midi.Pattern(format=1, resolution=480, tracks=\
[midi.Track(\
  [midi.SetTempoEvent(tick=0, data=[9, 87, 148]),
   midi.TrackNameEvent(tick=0, text='Addicted To Chaos', data=[65, 100, 100, 105, 99, 116, 101, 100, 32, 84, 111, 32, 67, 104, 97, 111, 115]),
   midi.TimeSignatureEvent(tick=0, data=[4, 2, 9, 87]),
   midi.EndOfTrackEvent(tick=0, data=[])]),
 midi.Track(\
  [midi.TrackNameEvent(tick=0, text='Dave', data=[68, 97, 118, 101]),
   midi.ControlChangeEvent(tick=0, channel=0, data=[100, 0]),
   midi.ControlChangeEvent(tick=0, channel=0, data=[101, 0]),
   midi.ControlChangeEvent(tick=0, channel=0, data=[6, 8]),
   midi.PitchWheelEvent(tick=0, channel=0, data=[0, 64]),
   midi.ControlChangeEvent(tick=0, channel=1, data=[100, 0]),
   midi.ControlChangeEvent(tick=0, channel=1, data=[101, 0]),
   midi.ControlChangeEvent(tick=0, channel=1, data=[6, 8]),
   midi.PitchWheelEvent(tick=0, channel=1, data=[0, 64]),
   midi.ProgramChangeEvent(tick=0, channel=0, data=[30]),
   midi.ProgramChangeEvent(tick=0, channel=1, data=[30]),
   midi.ControlChangeEvent(tick=0, channel=0, data=[7, 127]),
   midi.ControlChangeEvent(tick=0, channel=1, data=[7, 127]),
   midi.ControlChangeEvent(tick=0, channel=0, data=[10, 64]),
   midi.ControlChangeEvent(tick=0, channel=1, data=[10, 64]),
   midi.ControlChangeEvent(tick=0, channel=0, data=[93, 16]),
   midi.ControlChangeEvent(tick=0, channel=1, data=[93, 16]),
   midi.ControlChangeEvent(tick=0, channel=0, data=[91, 16]),
   midi.ControlChangeEvent(tick=0, channel=1, data=[91, 16]),
   midi.ControlChangeEvent(tick=0, channel=0, data=[92, 0]),
   midi.ControlChangeEvent(tick=0, channel=1, data=[92, 0]),
   midi.ControlChangeEvent(tick=0, channel=0, data=[95, 0]),
   midi.ControlChangeEvent(tick=0, channel=1, data=[95, 0]),
   midi.NoteOnEvent(tick=1920, channel=0, data=[54, 95]),
   midi.NoteOnEvent(tick=0, channel=0, data=[51, 95]),
   midi.NoteOffEvent(tick=240, channel=0, data=[54, 80]),
   midi.NoteOffEvent(tick=0, channel=0, data=[51, 80]),
   midi.NoteOnEvent(tick=0, channel=0, data=[39, 95]),
   midi.NoteOffEvent(tick=240, channel=0, data=[39, 80]),
   midi.NoteOnEvent(tick=0, channel=0, data=[39, 95]),
   midi.NoteOffEvent(tick=240, channel=0, data=[39, 80]),
   midi.NoteOnEvent(tick=0, channel=0, data=[39, 95]),
   midi.NoteOffEvent(tick=240, channel=0, data=[39, 80]),
   midi.NoteOnEvent(tick=0, channel=0, data=[44, 95]),
   midi.NoteOffEvent(tick=120, channel=0, data=[44, 80]),
   midi.NoteOnEvent(tick=0, channel=0, data=[46, 76]),
   midi.NoteOffEvent(tick=120, channel=0, data=[46, 80]),
   midi.NoteOnEvent(tick=0, channel=0, data=[49, 95]),
   midi.NoteOffEvent(tick=120, channel=0, data=[49, 80]),
   midi.NoteOnEvent(tick=0, channel=0, data=[51, 76]),
   midi.NoteOffEvent(tick=120, channel=0, data=[51, 80]),
   midi.NoteOnEvent(tick=120, channel=0, data=[39, 95]),
   midi.NoteOffEvent(tick=120, channel=0, data=[39, 80]),
   midi.NoteOnEvent(tick=0, channel=0, data=[54, 95]),
   midi.NoteOffEvent(tick=240, channel=0, data=[54, 80]),
   midi.NoteOnEvent(tick=0, channel=0, data=[53, 95]),
   midi.NoteOnEvent(tick=0, channel=0, data=[49, 95]),
   midi.NoteOffEvent(tick=240, channel=0, data=[53, 80]),
   midi.NoteOffEvent(tick=0, channel=0, data=[49, 80]),
   midi.NoteOnEvent(tick=0, channel=0, data=[39, 95]),
   midi.NoteOffEvent(tick=240, channel=0, data=[39, 80]),
   midi.NoteOnEvent(tick=0, channel=0, data=[39, 95]),
   midi.NoteOffEvent(tick=240, channel=0, data=[39, 80]),
   midi.NoteOnEvent(tick=0, channel=0, data=[39, 95]),
   midi.NoteOffEvent(tick=240, channel=0, data=[39, 80]),
   midi.NoteOnEvent(tick=0, channel=0, data=[44, 95]),
   midi.NoteOffEvent(tick=120, channel=0, data=[44, 80]),
   midi.NoteOnEvent(tick=0, channel=0, data=[46, 76]),
   midi.NoteOffEvent(tick=120, channel=0, data=[46, 80]),
   midi.NoteOnEvent(tick=0, channel=0, data=[49, 95]),
   midi.NoteOffEvent(tick=120, channel=0, data=[49, 80]),
   midi.NoteOnEvent(tick=0, channel=0, data=[51, 76]),
   midi.NoteOffEvent(tick=120, channel=0, data=[51, 80]),
   midi.NoteOnEvent(tick=120, channel=0, data=[39, 95]),
   midi.NoteOffEvent(tick=120, channel=0, data=[39, 80]),
   midi.NoteOnEvent(tick=0, channel=0, data=[54, 95]),
   midi.NoteOffEvent(tick=240, channel=0, data=[54, 80]),
   midi.NoteOnEvent(tick=0, channel=0, data=[54, 95]),
   midi.NoteOnEvent(tick=0, channel=0, data=[48, 95]),
   midi.NoteOffEvent(tick=240, channel=0, data=[54, 80]),
   midi.NoteOffEvent(tick=0, channel=0, data=[48, 80]),
   midi.NoteOnEvent(tick=0, channel=0, data=[39, 95]),
   midi.NoteOffEvent(tick=240, channel=0, data=[39, 80]),
   midi.NoteOnEvent(tick=0, channel=0, data=[39, 95]),
   midi.NoteOffEvent(tick=240, channel=0, data=[39, 80]),
   midi.NoteOnEvent(tick=0, channel=0, data=[39, 95]),
   midi.NoteOffEvent(tick=240, channel=0, data=[39, 80]),
   midi.NoteOnEvent(tick=0, channel=0, data=[44, 95]),
   midi.NoteOffEvent(tick=120, channel=0, data=[44, 80]),
   midi.NoteOnEvent(tick=0, channel=0, data=[46, 76]),
   midi.NoteOffEvent(tick=120, channel=0, data=[46, 80]),
   midi.NoteOnEvent(tick=0, channel=0, data=[49, 95]),
   midi.NoteOffEvent(tick=120, channel=0, data=[49, 80]),
   midi.NoteOnEvent(tick=0, channel=0, data=[51, 76]),
   midi.NoteOffEvent(tick=120, channel=0, data=[51, 80]),
   midi.NoteOnEvent(tick=120, channel=0, data=[39, 95]),
   midi.NoteOffEvent(tick=120, channel=0, data=[39, 80]),
   midi.NoteOnEvent(tick=0, channel=0, data=[54, 95]),
   midi.NoteOffEvent(tick=240, channel=0, data=[54, 80]),
   midi.NoteOnEvent(tick=0, channel=0, data=[56, 95]),
   midi.NoteOnEvent(tick=0, channel=0, data=[49, 95]),
   midi.NoteOffEvent(tick=240, channel=0, data=[56, 80]),
   midi.NoteOffEvent(tick=0, channel=0, data=[49, 80]),
   midi.NoteOnEvent(tick=0, channel=0, data=[39, 95]),
   midi.NoteOffEvent(tick=240, channel=0, data=[39, 80]),
   midi.NoteOnEvent(tick=0, channel=0, data=[39, 95]),
   midi.NoteOffEvent(tick=240, channel=0, data=[39, 80]),
   midi.NoteOnEvent(tick=0, channel=0, data=[39, 95]),
   midi.NoteOffEvent(tick=240, channel=0, data=[39, 80]),
   midi.NoteOnEvent(tick=0, channel=0, data=[44, 95]),
   midi.NoteOffEvent(tick=120, channel=0, data=[44, 80]),
   midi.NoteOnEvent(tick=0, channel=0, data=[46, 76]),
   midi.NoteOffEvent(tick=120, channel=0, data=[46, 80]),
   midi.NoteOnEvent(tick=0, channel=0, data=[49, 95]),
   midi.NoteOffEvent(tick=120, channel=0, data=[49, 80]),
   midi.NoteOnEvent(tick=0, channel=0, data=[51, 76]),
   midi.NoteOffEvent(tick=120, channel=0, data=[51, 80]),
   midi.NoteOnEvent(tick=120, channel=0, data=[39, 95]),
   midi.NoteOffEvent(tick=120, channel=0, data=[39, 80]),
   midi.NoteOnEvent(tick=0, channel=0, data=[54, 95]),
   midi.NoteOffEvent(tick=240, channel=0, data=[54, 80]),
   midi.NoteOnEvent(tick=0, channel=0, data=[54, 95]),
   midi.NoteOnEvent(tick=0, channel=0, data=[51, 95]),
   midi.NoteOffEvent(tick=240, channel=0, data=[54, 80]),
   midi.NoteOffEvent(tick=0, channel=0, data=[51, 80]),
   midi.NoteOnEvent(tick=0, channel=0, data=[39, 95]),
   midi.NoteOffEvent(tick=240, channel=0, data=[39, 80]),
   midi.NoteOnEvent(tick=0, channel=0, data=[39, 95]),
   midi.NoteOffEvent(tick=240, channel=0, data=[39, 80]),
   midi.NoteOnEvent(tick=0, channel=0, data=[39, 95]),
   midi.NoteOffEvent(tick=240, channel=0, data=[39, 80]),
   midi.NoteOnEvent(tick=0, channel=0, data=[44, 95]),
   midi.NoteOffEvent(tick=120, channel=0, data=[44, 80]),
   midi.NoteOnEvent(tick=0, channel=0, data=[46, 76]),
   midi.NoteOffEvent(tick=120, channel=0, data=[46, 80]),
   midi.NoteOnEvent(tick=0, channel=0, data=[49, 95]),
   midi.NoteOffEvent(tick=120, channel=0, data=[49, 80]),
   midi.NoteOnEvent(tick=0, channel=0, data=[51, 76]),
   midi.NoteOffEvent(tick=120, channel=0, data=[51, 80]),
   midi.NoteOnEvent(tick=120, channel=0, data=[39, 95]),
   midi.NoteOffEvent(tick=120, channel=0, data=[39, 80]),
   midi.NoteOnEvent(tick=0, channel=0, data=[54, 95]),
   midi.NoteOffEvent(tick=240, channel=0, data=[54, 80]),
   midi.NoteOnEvent(tick=0, channel=0, data=[53, 95]),
   midi.NoteOnEvent(tick=0, channel=0, data=[49, 95]),
   midi.NoteOffEvent(tick=240, channel=0, data=[53, 80]),
   midi.NoteOffEvent(tick=0, channel=0, data=[49, 80]),
   midi.NoteOnEvent(tick=0, channel=0, data=[39, 95]),
   midi.NoteOffEvent(tick=240, channel=0, data=[39, 80]),
   midi.NoteOnEvent(tick=0, channel=0, data=[39, 95]),
   midi.NoteOffEvent(tick=240, channel=0, data=[39, 80]),
   midi.NoteOnEvent(tick=0, channel=0, data=[39, 95]),
   midi.NoteOffEvent(tick=240, channel=0, data=[39, 80]),
   midi.NoteOnEvent(tick=0, channel=0, data=[44, 95]),
   midi.NoteOffEvent(tick=120, channel=0, data=[44, 80]),
   midi.NoteOnEvent(tick=0, channel=0, data=[46, 76]),
   midi.NoteOffEvent(tick=120, channel=0, data=[46, 80]),
   midi.NoteOnEvent(tick=0, channel=0, data=[49, 95]),
   midi.NoteOffEvent(tick=120, channel=0, data=[49, 80]),
   midi.NoteOnEvent(tick=0, channel=0, data=[51, 76]),
   midi.NoteOffEvent(tick=120, channel=0, data=[51, 80]),
   midi.NoteOnEvent(tick=120, channel=0, data=[39, 95]),
   midi.NoteOffEvent(tick=120, channel=0, data=[39, 80]),
   midi.NoteOnEvent(tick=0, channel=0, data=[54, 95]),
   midi.NoteOffEvent(tick=240, channel=0, data=[54, 80]),
   midi.NoteOnEvent(tick=0, channel=0, data=[54, 95]),
   midi.NoteOnEvent(tick=0, channel=0, data=[48, 95]),
   midi.NoteOffEvent(tick=240, channel=0, data=[54, 80]),
   midi.NoteOffEvent(tick=0, channel=0, data=[48, 80]),
   midi.NoteOnEvent(tick=0, channel=0, data=[39, 95]),
   midi.NoteOffEvent(tick=240, channel=0, data=[39, 80]),
   midi.NoteOnEvent(tick=0, channel=0, data=[39, 95]),
   midi.NoteOffEvent(tick=240, channel=0, data=[39, 80]),
   midi.NoteOnEvent(tick=0, channel=0, data=[39, 95]),
   midi.NoteOffEvent(tick=240, channel=0, data=[39, 80]),
   midi.NoteOnEvent(tick=0, channel=0, data=[44, 95]),
   midi.NoteOffEvent(tick=120, channel=0, data=[44, 80]),
   midi.NoteOnEvent(tick=0, channel=0, data=[46, 76]),
   midi.NoteOffEvent(tick=120, channel=0, data=[46, 80]),
   midi.NoteOnEvent(tick=0, channel=0, data=[49, 95]),
   midi.NoteOffEvent(tick=120, channel=0, data=[49, 80]),
   midi.NoteOnEvent(tick=0, channel=0, data=[51, 76]),
   midi.NoteOffEvent(tick=120, channel=0, data=[51, 80]),
   midi.NoteOnEvent(tick=120, channel=0, data=[39, 95]),
   midi.NoteOffEvent(tick=120, channel=0, data=[39, 80]),
   midi.NoteOnEvent(tick=0, channel=0, data=[54, 95]),
   midi.NoteOffEvent(tick=240, channel=0, data=[54, 80]),
   midi.NoteOnEvent(tick=0, channel=0, data=[56, 95]),
   midi.NoteOnEvent(tick=0, channel=0, data=[49, 95]),
   midi.NoteOffEvent(tick=240, channel=0, data=[56, 80]),
   midi.NoteOffEvent(tick=0, channel=0, data=[49, 80]),
   midi.NoteOnEvent(tick=0, channel=0, data=[39, 95]),
   midi.NoteOffEvent(tick=240, channel=0, data=[39, 80]),
   midi.NoteOnEvent(tick=0, channel=0, data=[39, 95]),
   midi.NoteOffEvent(tick=240, channel=0, data=[39, 80]),
   midi.NoteOnEvent(tick=0, channel=0, data=[39, 95]),
   midi.NoteOffEvent(tick=240, channel=0, data=[39, 80]),
   midi.NoteOnEvent(tick=0, channel=0, data=[44, 95]),
   midi.NoteOffEvent(tick=120, channel=0, data=[44, 80]),
   midi.NoteOnEvent(tick=0, channel=0, data=[46, 76]),
   midi.NoteOffEvent(tick=120, channel=0, data=[46, 80]),
   midi.NoteOnEvent(tick=0, channel=0, data=[49, 95]),
   midi.NoteOffEvent(tick=120, channel=0, data=[49, 80]),
   midi.NoteOnEvent(tick=0, channel=0, data=[51, 76]),
   midi.NoteOffEvent(tick=120, channel=0, data=[51, 80]),
   midi.NoteOnEvent(tick=120, channel=0, data=[39, 95]),
   midi.NoteOffEvent(tick=120, channel=0, data=[39, 80]),
   midi.NoteOnEvent(tick=0, channel=0, data=[54, 95]),
   midi.NoteOffEvent(tick=240, channel=0, data=[54, 80]),
   midi.NoteOnEvent(tick=0, channel=0, data=[54, 95]),
   midi.NoteOnEvent(tick=0, channel=0, data=[51, 95]),
   midi.NoteOffEvent(tick=240, channel=0, data=[54, 80]),
   midi.NoteOffEvent(tick=0, channel=0, data=[51, 80]),
   midi.NoteOnEvent(tick=0, channel=0, data=[39, 95]),
   midi.NoteOffEvent(tick=240, channel=0, data=[39, 80]),
   midi.NoteOnEvent(tick=0, channel=0, data=[39, 95]),
   midi.NoteOffEvent(tick=240, channel=0, data=[39, 80]),
   midi.NoteOnEvent(tick=0, channel=0, data=[39, 95]),
   midi.NoteOffEvent(tick=240, channel=0, data=[39, 80]),
   midi.NoteOnEvent(tick=0, channel=0, data=[44, 95]),
   midi.NoteOffEvent(tick=120, channel=0, data=[44, 80]),
   midi.NoteOnEvent(tick=0, channel=0, data=[46, 76]),
   midi.NoteOffEvent(tick=120, channel=0, data=[46, 80]),
   midi.NoteOnEvent(tick=0, channel=0, data=[49, 95]),
   midi.NoteOffEvent(tick=120, channel=0, data=[49, 80]),
   midi.NoteOnEvent(tick=0, channel=0, data=[51, 76]),
   midi.NoteOffEvent(tick=120, channel=0, data=[51, 80]),
   midi.NoteOnEvent(tick=120, channel=0, data=[39, 95]),
   midi.NoteOffEvent(tick=120, channel=0, data=[39, 80]),
   midi.NoteOnEvent(tick=0, channel=0, data=[54, 95]),
   midi.NoteOffEvent(tick=240, channel=0, data=[54, 80]),
   midi.NoteOnEvent(tick=0, channel=0, data=[53, 95]),
   midi.NoteOnEvent(tick=0, channel=0, data=[49, 95]),
   midi.NoteOffEvent(tick=240, channel=0, data=[53, 80]),
   midi.NoteOffEvent(tick=0, channel=0, data=[49, 80]),
   midi.NoteOnEvent(tick=0, channel=0, data=[39, 95]),
   midi.NoteOffEvent(tick=240, channel=0, data=[39, 80]),
   midi.NoteOnEvent(tick=0, channel=0, data=[39, 95]),
   midi.NoteOffEvent(tick=240, channel=0, data=[39, 80]),
   midi.NoteOnEvent(tick=0, channel=0, data=[39, 95]),
   midi.NoteOffEvent(tick=240, channel=0, data=[39, 80]),
   midi.NoteOnEvent(tick=0, channel=0, data=[44, 95]),
   midi.NoteOffEvent(tick=120, channel=0, data=[44, 80]),
   midi.NoteOnEvent(tick=0, channel=0, data=[46, 76]),
   midi.NoteOffEvent(tick=120, channel=0, data=[46, 80]),
   midi.NoteOnEvent(tick=0, channel=0, data=[49, 95]),
   midi.NoteOffEvent(tick=120, channel=0, data=[49, 80]),
   midi.NoteOnEvent(tick=0, channel=0, data=[51, 76]),
   midi.NoteOffEvent(tick=120, channel=0, data=[51, 80]),
   midi.NoteOnEvent(tick=120, channel=0, data=[39, 95]),
   midi.NoteOffEvent(tick=120, channel=0, data=[39, 80]),
   midi.NoteOnEvent(tick=0, channel=0, data=[54, 95]),
   midi.NoteOffEvent(tick=240, channel=0, data=[54, 80]),
   midi.NoteOnEvent(tick=0, channel=0, data=[54, 95]),
   midi.NoteOnEvent(tick=0, channel=0, data=[48, 95]),
   midi.NoteOffEvent(tick=240, channel=0, data=[54, 80]),
   midi.NoteOffEvent(tick=0, channel=0, data=[48, 80]),
   midi.NoteOnEvent(tick=0, channel=0, data=[39, 95]),
   midi.NoteOffEvent(tick=240, channel=0, data=[39, 80]),
   midi.NoteOnEvent(tick=0, channel=0, data=[39, 95]),
   midi.NoteOffEvent(tick=240, channel=0, data=[39, 80]),
   midi.NoteOnEvent(tick=0, channel=0, data=[39, 95]),
   midi.NoteOffEvent(tick=240, channel=0, data=[39, 80]),
   midi.NoteOnEvent(tick=0, channel=0, data=[44, 95]),
   midi.NoteOffEvent(tick=120, channel=0, data=[44, 80]),
   midi.NoteOnEvent(tick=0, channel=0, data=[46, 76]),
   midi.NoteOffEvent(tick=120, channel=0, data=[46, 80]),
   midi.NoteOnEvent(tick=0, channel=0, data=[49, 95]),
   midi.NoteOffEvent(tick=120, channel=0, data=[49, 80]),
   midi.NoteOnEvent(tick=0, channel=0, data=[51, 76]),
   midi.NoteOffEvent(tick=120, channel=0, data=[51, 80]),
   midi.NoteOnEvent(tick=120, channel=0, data=[39, 95]),
   midi.NoteOffEvent(tick=120, channel=0, data=[39, 80]),
   midi.NoteOnEvent(tick=0, channel=0, data=[54, 95]),
   midi.NoteOffEvent(tick=240, channel=0, data=[54, 80]),
   midi.NoteOnEvent(tick=0, channel=0, data=[56, 95]),
   midi.NoteOnEvent(tick=0, channel=0, data=[49, 95]),
   midi.NoteOffEvent(tick=240, channel=0, data=[56, 80]),
   midi.NoteOffEvent(tick=0, channel=0, data=[49, 80]),
   midi.NoteOnEvent(tick=0, channel=0, data=[39, 95]),
   midi.NoteOffEvent(tick=240, channel=0, data=[39, 80]),
   midi.NoteOnEvent(tick=0, channel=0, data=[39, 95]),
   midi.NoteOffEvent(tick=240, channel=0, data=[39, 80]),
   midi.NoteOnEvent(tick=0, channel=0, data=[39, 95]),
   midi.NoteOffEvent(tick=240, channel=0, data=[39, 80]),
   midi.NoteOnEvent(tick=0, channel=0, data=[44, 95]),
   midi.NoteOffEvent(tick=120, channel=0, data=[44, 80]),
   midi.NoteOnEvent(tick=0, channel=0, data=[46, 76]),
   midi.NoteOffEvent(tick=120, channel=0, data=[46, 80]),
   midi.NoteOnEvent(tick=0, channel=0, data=[49, 95]),
   midi.NoteOffEvent(tick=120, channel=0, data=[49, 80]),
   midi.NoteOnEvent(tick=0, channel=0, data=[51, 76]),
   midi.NoteOffEvent(tick=120, channel=0, data=[51, 80]),
   midi.NoteOnEvent(tick=120, channel=0, data=[39, 95]),
   midi.NoteOffEvent(tick=120, channel=0, data=[39, 80]),
   midi.NoteOnEvent(tick=0, channel=0, data=[54, 95]),
   midi.NoteOffEvent(tick=240, channel=0, data=[54, 80]),
   midi.NoteOnEvent(tick=0, channel=0, data=[54, 95]),
   midi.NoteOnEvent(tick=0, channel=0, data=[51, 95]),
   midi.NoteOffEvent(tick=240, channel=0, data=[54, 80]),
   midi.NoteOffEvent(tick=0, channel=0, data=[51, 80]),
   midi.NoteOnEvent(tick=0, channel=0, data=[39, 95]),
   midi.NoteOffEvent(tick=240, channel=0, data=[39, 80]),
   midi.NoteOnEvent(tick=0, channel=0, data=[39, 95]),
   midi.NoteOffEvent(tick=240, channel=0, data=[39, 80]),
   midi.NoteOnEvent(tick=0, channel=0, data=[39, 95]),
   midi.NoteOffEvent(tick=240, channel=0, data=[39, 80]),
   midi.NoteOnEvent(tick=0, channel=0, data=[44, 95]),
   midi.NoteOffEvent(tick=120, channel=0, data=[44, 80]),
   midi.NoteOnEvent(tick=0, channel=0, data=[46, 76]),
   midi.NoteOffEvent(tick=120, channel=0, data=[46, 80]),
   midi.NoteOnEvent(tick=0, channel=0, data=[49, 95]),
   midi.NoteOffEvent(tick=120, channel=0, data=[49, 80]),
   midi.NoteOnEvent(tick=0, channel=0, data=[51, 76]),
   midi.NoteOffEvent(tick=120, channel=0, data=[51, 80]),
   midi.NoteOnEvent(tick=120, channel=0, data=[39, 95]),
   midi.NoteOffEvent(tick=120, channel=0, data=[39, 80]),
   midi.NoteOnEvent(tick=0, channel=0, data=[54, 95]),
   midi.NoteOffEvent(tick=240, channel=0, data=[54, 80]),
   midi.NoteOnEvent(tick=0, channel=0, data=[53, 95]),
   midi.NoteOnEvent(tick=0, channel=0, data=[49, 95]),
   midi.NoteOffEvent(tick=240, channel=0, data=[53, 80]),
   midi.NoteOffEvent(tick=0, channel=0, data=[49, 80]),
   midi.NoteOnEvent(tick=0, channel=0, data=[39, 95]),
   midi.NoteOffEvent(tick=240, channel=0, data=[39, 80]),
   midi.NoteOnEvent(tick=0, channel=0, data=[39, 95]),
   midi.NoteOffEvent(tick=240, channel=0, data=[39, 80]),
   midi.NoteOnEvent(tick=0, channel=0, data=[39, 95]),
   midi.NoteOffEvent(tick=240, channel=0, data=[39, 80]),
   midi.NoteOnEvent(tick=0, channel=0, data=[44, 95]),
   midi.NoteOffEvent(tick=120, channel=0, data=[44, 80]),
   midi.NoteOnEvent(tick=0, channel=0, data=[46, 76]),
   midi.NoteOffEvent(tick=120, channel=0, data=[46, 80]),
   midi.NoteOnEvent(tick=0, channel=0, data=[49, 95]),
   midi.NoteOffEvent(tick=120, channel=0, data=[49, 80]),
   midi.NoteOnEvent(tick=0, channel=0, data=[51, 76]),
   midi.NoteOffEvent(tick=120, channel=0, data=[51, 80]),
   midi.NoteOnEvent(tick=120, channel=0, data=[39, 95]),
   midi.NoteOffEvent(tick=120, channel=0, data=[39, 80]),
   midi.NoteOnEvent(tick=0, channel=0, data=[54, 95]),
   midi.NoteOffEvent(tick=240, channel=0, data=[54, 80]),
   midi.NoteOnEvent(tick=0, channel=0, data=[54, 95]),
   midi.NoteOnEvent(tick=0, channel=0, data=[48, 95]),
   midi.NoteOffEvent(tick=240, channel=0, data=[54, 80]),
   midi.NoteOffEvent(tick=0, channel=0, data=[48, 80]),
   midi.NoteOnEvent(tick=0, channel=0, data=[39, 95]),
   midi.NoteOffEvent(tick=240, channel=0, data=[39, 80]),
   midi.NoteOnEvent(tick=0, channel=0, data=[39, 95]),
   midi.NoteOffEvent(tick=240, channel=0, data=[39, 80]),
   midi.NoteOnEvent(tick=0, channel=0, data=[39, 95]),
   midi.NoteOffEvent(tick=240, channel=0, data=[39, 80]),
   midi.NoteOnEvent(tick=0, channel=0, data=[44, 95]),
   midi.NoteOffEvent(tick=120, channel=0, data=[44, 80]),
   midi.NoteOnEvent(tick=0, channel=0, data=[46, 76]),
   midi.NoteOffEvent(tick=120, channel=0, data=[46, 80]),
   midi.NoteOnEvent(tick=0, channel=0, data=[49, 95]),
   midi.NoteOffEvent(tick=120, channel=0, data=[49, 80]),
   midi.NoteOnEvent(tick=0, channel=0, data=[51, 76]),
   midi.NoteOffEvent(tick=120, channel=0, data=[51, 80]),
   midi.NoteOnEvent(tick=120, channel=0, data=[39, 95]),
   midi.NoteOffEvent(tick=120, channel=0, data=[39, 80]),
   midi.NoteOnEvent(tick=0, channel=0, data=[54, 95]),
   midi.NoteOffEvent(tick=240, channel=0, data=[54, 80]),
   midi.NoteOnEvent(tick=0, channel=0, data=[56, 95]),
   midi.NoteOnEvent(tick=0, channel=0, data=[49, 95]),
   midi.NoteOffEvent(tick=240, channel=0, data=[56, 80]),
   midi.NoteOffEvent(tick=0, channel=0, data=[49, 80]),
   midi.NoteOnEvent(tick=0, channel=0, data=[39, 95]),
   midi.NoteOffEvent(tick=240, channel=0, data=[39, 80]),
   midi.NoteOnEvent(tick=0, channel=0, data=[39, 95]),
   midi.NoteOffEvent(tick=240, channel=0, data=[39, 80]),
   midi.NoteOnEvent(tick=0, channel=0, data=[39, 95]),
   midi.NoteOffEvent(tick=240, channel=0, data=[39, 80]),
   midi.NoteOnEvent(tick=0, channel=0, data=[44, 95]),
   midi.NoteOffEvent(tick=120, channel=0, data=[44, 80]),
   midi.NoteOnEvent(tick=0, channel=0, data=[46, 76]),
   midi.NoteOffEvent(tick=120, channel=0, data=[46, 80]),
   midi.NoteOnEvent(tick=0, channel=0, data=[49, 95]),
   midi.NoteOffEvent(tick=120, channel=0, data=[49, 80]),
   midi.NoteOnEvent(tick=0, channel=0, data=[51, 76]),
   midi.NoteOffEvent(tick=120, channel=0, data=[51, 80]),
   midi.NoteOnEvent(tick=120, channel=0, data=[39, 95]),
   midi.NoteOffEvent(tick=120, channel=0, data=[39, 80]),
   midi.NoteOnEvent(tick=0, channel=0, data=[54, 95]),
   midi.NoteOffEvent(tick=240, channel=0, data=[54, 80]),
   midi.NoteOnEvent(tick=0, channel=0, data=[54, 95]),
   midi.NoteOnEvent(tick=0, channel=0, data=[51, 95]),
   midi.NoteOffEvent(tick=240, channel=0, data=[54, 80]),
   midi.NoteOffEvent(tick=0, channel=0, data=[51, 80]),
   midi.NoteOnEvent(tick=0, channel=0, data=[39, 95]),
   midi.NoteOffEvent(tick=240, channel=0, data=[39, 80]),
   midi.NoteOnEvent(tick=0, channel=0, data=[39, 95]),
   midi.NoteOffEvent(tick=240, channel=0, data=[39, 80]),
   midi.NoteOnEvent(tick=0, channel=0, data=[39, 95]),
   midi.NoteOffEvent(tick=240, channel=0, data=[39, 80]),
   midi.NoteOnEvent(tick=0, channel=0, data=[44, 95]),
   midi.NoteOffEvent(tick=120, channel=0, data=[44, 80]),
   midi.NoteOnEvent(tick=0, channel=0, data=[46, 76]),
   midi.NoteOffEvent(tick=120, channel=0, data=[46, 80]),
   midi.NoteOnEvent(tick=0, channel=0, data=[49, 95]),
   midi.NoteOffEvent(tick=120, channel=0, data=[49, 80]),
   midi.NoteOnEvent(tick=0, channel=0, data=[51, 76]),
   midi.NoteOffEvent(tick=120, channel=0, data=[51, 80]),
   midi.NoteOnEvent(tick=120, channel=0, data=[39, 95]),
   midi.NoteOffEvent(tick=120, channel=0, data=[39, 80]),
   midi.NoteOnEvent(tick=0, channel=0, data=[54, 95]),
   midi.NoteOffEvent(tick=240, channel=0, data=[54, 80]),
   midi.NoteOnEvent(tick=0, channel=0, data=[53, 95]),
   midi.NoteOnEvent(tick=0, channel=0, data=[49, 95]),
   midi.NoteOffEvent(tick=240, channel=0, data=[53, 80]),
   midi.NoteOffEvent(tick=0, channel=0, data=[49, 80]),
   midi.NoteOnEvent(tick=0, channel=0, data=[39, 95]),
   midi.NoteOffEvent(tick=240, channel=0, data=[39, 80]),
   midi.NoteOnEvent(tick=0, channel=0, data=[39, 95]),
   midi.NoteOffEvent(tick=240, channel=0, data=[39, 80]),
   midi.NoteOnEvent(tick=0, channel=0, data=[39, 95]),
   midi.NoteOffEvent(tick=240, channel=0, data=[39, 80]),
   midi.NoteOnEvent(tick=0, channel=0, data=[44, 95]),
   midi.NoteOffEvent(tick=120, channel=0, data=[44, 80]),
   midi.NoteOnEvent(tick=0, channel=0, data=[46, 76]),
   midi.NoteOffEvent(tick=120, channel=0, data=[46, 80]),
   midi.NoteOnEvent(tick=0, channel=0, data=[49, 95]),
   midi.NoteOffEvent(tick=120, channel=0, data=[49, 80]),
   midi.NoteOnEvent(tick=0, channel=0, data=[51, 76]),
   midi.NoteOffEvent(tick=120, channel=0, data=[51, 80]),
   midi.NoteOnEvent(tick=120, channel=0, data=[39, 95]),
   midi.NoteOffEvent(tick=120, channel=0, data=[39, 80]),
   midi.NoteOnEvent(tick=0, channel=0, data=[54, 95]),
   midi.NoteOffEvent(tick=240, channel=0, data=[54, 80]),
   midi.NoteOnEvent(tick=0, channel=0, data=[54, 95]),
   midi.NoteOnEvent(tick=0, channel=0, data=[48, 95]),
   midi.NoteOffEvent(tick=240, channel=0, data=[54, 80]),
   midi.NoteOffEvent(tick=0, channel=0, data=[48, 80]),
   midi.NoteOnEvent(tick=0, channel=0, data=[39, 95]),
   midi.NoteOffEvent(tick=240, channel=0, data=[39, 80]),
   midi.NoteOnEvent(tick=0, channel=0, data=[39, 95]),
   midi.NoteOffEvent(tick=240, channel=0, data=[39, 80]),
   midi.NoteOnEvent(tick=0, channel=0, data=[39, 95]),
   midi.NoteOffEvent(tick=240, channel=0, data=[39, 80]),
   midi.NoteOnEvent(tick=0, channel=0, data=[44, 95]),
   midi.NoteOffEvent(tick=120, channel=0, data=[44, 80]),
   midi.NoteOnEvent(tick=0, channel=0, data=[46, 76]),
   midi.NoteOffEvent(tick=120, channel=0, data=[46, 80]),
   midi.NoteOnEvent(tick=0, channel=0, data=[49, 95]),
   midi.NoteOffEvent(tick=120, channel=0, data=[49, 80]),
   midi.NoteOnEvent(tick=0, channel=0, data=[51, 76]),
   midi.NoteOffEvent(tick=120, channel=0, data=[51, 80]),
   midi.NoteOnEvent(tick=120, channel=0, data=[39, 95]),
   midi.NoteOffEvent(tick=120, channel=0, data=[39, 80]),
   midi.NoteOnEvent(tick=0, channel=0, data=[54, 95]),
   midi.NoteOffEvent(tick=240, channel=0, data=[54, 80]),
   midi.NoteOnEvent(tick=0, channel=0, data=[56, 95]),
   midi.NoteOnEvent(tick=0, channel=0, data=[49, 95]),
   midi.NoteOffEvent(tick=240, channel=0, data=[56, 80]),
   midi.NoteOffEvent(tick=0, channel=0, data=[49, 80]),
   midi.NoteOnEvent(tick=0, channel=0, data=[39, 95]),
   midi.NoteOffEvent(tick=240, channel=0, data=[39, 80]),
   midi.NoteOnEvent(tick=0, channel=0, data=[39, 95]),
   midi.NoteOffEvent(tick=240, channel=0, data=[39, 80]),
   midi.NoteOnEvent(tick=0, channel=0, data=[39, 95]),
   midi.NoteOffEvent(tick=240, channel=0, data=[39, 80]),
   midi.NoteOnEvent(tick=0, channel=0, data=[44, 95]),
   midi.NoteOffEvent(tick=120, channel=0, data=[44, 80]),
   midi.NoteOnEvent(tick=0, channel=0, data=[46, 76]),
   midi.NoteOffEvent(tick=120, channel=0, data=[46, 80]),
   midi.NoteOnEvent(tick=0, channel=0, data=[49, 95]),
   midi.NoteOffEvent(tick=120, channel=0, data=[49, 80]),
   midi.NoteOnEvent(tick=0, channel=0, data=[51, 76]),
   midi.NoteOffEvent(tick=120, channel=0, data=[51, 80]),
   midi.NoteOnEvent(tick=120, channel=0, data=[39, 95]),
   midi.NoteOffEvent(tick=120, channel=0, data=[39, 80]),
   midi.NoteOnEvent(tick=0, channel=0, data=[54, 95]),
   midi.NoteOffEvent(tick=240, channel=0, data=[54, 80]),
   midi.NoteOnEvent(tick=0, channel=0, data=[54, 95]),
   midi.NoteOnEvent(tick=0, channel=0, data=[51, 95]),
   midi.NoteOffEvent(tick=240, channel=0, data=[54, 80]),
   midi.NoteOffEvent(tick=0, channel=0, data=[51, 80]),
   midi.NoteOnEvent(tick=0, channel=0, data=[39, 95]),
   midi.NoteOffEvent(tick=240, channel=0, data=[39, 80]),
   midi.NoteOnEvent(tick=0, channel=0, data=[39, 95]),
   midi.NoteOffEvent(tick=240, channel=0, data=[39, 80]),
   midi.NoteOnEvent(tick=0, channel=0, data=[39, 95]),
   midi.NoteOffEvent(tick=240, channel=0, data=[39, 80]),
   midi.NoteOnEvent(tick=0, channel=0, data=[44, 95]),
   midi.NoteOffEvent(tick=120, channel=0, data=[44, 80]),
   midi.NoteOnEvent(tick=0, channel=0, data=[46, 76]),
   midi.NoteOffEvent(tick=120, channel=0, data=[46, 80]),
   midi.NoteOnEvent(tick=0, channel=0, data=[49, 95]),
   midi.NoteOffEvent(tick=120, channel=0, data=[49, 80]),
   midi.NoteOnEvent(tick=0, channel=0, data=[51, 76]),
   midi.NoteOffEvent(tick=120, channel=0, data=[51, 80]),
   midi.NoteOnEvent(tick=120, channel=0, data=[39, 95]),
   midi.NoteOffEvent(tick=120, channel=0, data=[39, 80]),
   midi.NoteOnEvent(tick=0, channel=0, data=[54, 95]),
   midi.NoteOffEvent(tick=240, channel=0, data=[54, 80]),
   midi.NoteOnEvent(tick=0, channel=0, data=[53, 95]),
   midi.NoteOnEvent(tick=0, channel=0, data=[49, 95]),
   midi.NoteOffEvent(tick=240, channel=0, data=[53, 80]),
   midi.NoteOffEvent(tick=0, channel=0, data=[49, 80]),
   midi.NoteOnEvent(tick=0, channel=0, data=[39, 95]),
   midi.NoteOffEvent(tick=240, channel=0, data=[39, 80]),
   midi.NoteOnEvent(tick=0, channel=0, data=[39, 95]),
   midi.NoteOffEvent(tick=240, channel=0, data=[39, 80]),
   midi.NoteOnEvent(tick=0, channel=0, data=[39, 95]),
   midi.NoteOffEvent(tick=240, channel=0, data=[39, 80]),
   midi.NoteOnEvent(tick=0, channel=0, data=[44, 95]),
   midi.NoteOffEvent(tick=120, channel=0, data=[44, 80]),
   midi.NoteOnEvent(tick=0, channel=0, data=[46, 76]),
   midi.NoteOffEvent(tick=120, channel=0, data=[46, 80]),
   midi.NoteOnEvent(tick=0, channel=0, data=[49, 95]),
   midi.NoteOffEvent(tick=120, channel=0, data=[49, 80]),
   midi.NoteOnEvent(tick=0, channel=0, data=[51, 76]),
   midi.NoteOffEvent(tick=120, channel=0, data=[51, 80]),
   midi.NoteOnEvent(tick=120, channel=0, data=[39, 95]),
   midi.NoteOffEvent(tick=120, channel=0, data=[39, 80]),
   midi.NoteOnEvent(tick=0, channel=0, data=[54, 95]),
   midi.NoteOffEvent(tick=240, channel=0, data=[54, 80]),
   midi.NoteOnEvent(tick=0, channel=0, data=[54, 95]),
   midi.NoteOnEvent(tick=0, channel=0, data=[48, 95]),
   midi.NoteOffEvent(tick=240, channel=0, data=[54, 80]),
   midi.NoteOffEvent(tick=0, channel=0, data=[48, 80]),
   midi.NoteOnEvent(tick=0, channel=0, data=[39, 95]),
   midi.NoteOffEvent(tick=240, channel=0, data=[39, 80]),
   midi.NoteOnEvent(tick=0, channel=0, data=[39, 95]),
   midi.NoteOffEvent(tick=240, channel=0, data=[39, 80]),
   midi.NoteOnEvent(tick=0, channel=0, data=[39, 95]),
   midi.NoteOffEvent(tick=240, channel=0, data=[39, 80]),
   midi.NoteOnEvent(tick=0, channel=0, data=[44, 95]),
   midi.NoteOffEvent(tick=120, channel=0, data=[44, 80]),
   midi.NoteOnEvent(tick=0, channel=0, data=[46, 76]),
   midi.NoteOffEvent(tick=120, channel=0, data=[46, 80]),
   midi.NoteOnEvent(tick=0, channel=0, data=[49, 95]),
   midi.NoteOffEvent(tick=120, channel=0, data=[49, 80]),
   midi.NoteOnEvent(tick=0, channel=0, data=[51, 76]),
   midi.NoteOffEvent(tick=120, channel=0, data=[51, 80]),
   midi.NoteOnEvent(tick=120, channel=0, data=[39, 95]),
   midi.NoteOffEvent(tick=120, channel=0, data=[39, 80]),
   midi.NoteOnEvent(tick=0, channel=0, data=[54, 95]),
   midi.NoteOffEvent(tick=240, channel=0, data=[54, 80]),
   midi.NoteOnEvent(tick=0, channel=0, data=[54, 95]),
   midi.NoteOnEvent(tick=0, channel=0, data=[47, 95]),
   midi.NoteOffEvent(tick=960, channel=0, data=[54, 80]),
   midi.NoteOffEvent(tick=0, channel=0, data=[47, 80]),
   midi.NoteOnEvent(tick=0, channel=0, data=[51, 95]),
   midi.NoteOnEvent(tick=0, channel=0, data=[44, 95]),
   midi.NoteOffEvent(tick=480, channel=0, data=[51, 80]),
   midi.NoteOffEvent(tick=0, channel=0, data=[44, 80]),
   midi.NoteOnEvent(tick=0, channel=0, data=[53, 95]),
   midi.NoteOnEvent(tick=0, channel=0, data=[46, 95]),
   midi.NoteOffEvent(tick=480, channel=0, data=[53, 80]),
   midi.NoteOffEvent(tick=0, channel=0, data=[46, 80]),
   midi.NoteOnEvent(tick=0, channel=0, data=[39, 95]),
   midi.NoteOffEvent(tick=360, channel=0, data=[39, 80]),
   midi.NoteOnEvent(tick=0, channel=0, data=[46, 95]),
   midi.NoteOffEvent(tick=360, channel=0, data=[46, 80]),
   midi.NoteOnEvent(tick=0, channel=0, data=[42, 95]),
   midi.NoteOffEvent(tick=240, channel=0, data=[42, 80]),
   midi.NoteOnEvent(tick=0, channel=0, data=[41, 95]),
   midi.NoteOffEvent(tick=360, channel=0, data=[41, 80]),
   midi.NoteOnEvent(tick=0, channel=0, data=[49, 95]),
   midi.NoteOffEvent(tick=360, channel=0, data=[49, 80]),
   midi.NoteOnEvent(tick=0, channel=0, data=[41, 95]),
   midi.NoteOffEvent(tick=240, channel=0, data=[41, 80]),
   midi.NoteOnEvent(tick=0, channel=0, data=[42, 95]),
   midi.NoteOffEvent(tick=360, channel=0, data=[42, 80]),
   midi.NoteOnEvent(tick=0, channel=0, data=[46, 95]),
   midi.NoteOffEvent(tick=360, channel=0, data=[46, 80]),
   midi.NoteOnEvent(tick=0, channel=0, data=[42, 95]),
   midi.NoteOffEvent(tick=240, channel=0, data=[42, 80]),
   midi.NoteOnEvent(tick=0, channel=0, data=[44, 95]),
   midi.NoteOffEvent(tick=360, channel=0, data=[44, 80]),
   midi.NoteOnEvent(tick=0, channel=0, data=[51, 95]),
   midi.NoteOffEvent(tick=360, channel=0, data=[51, 80]),
   midi.NoteOnEvent(tick=0, channel=0, data=[42, 95]),
   midi.NoteOffEvent(tick=80, channel=0, data=[42, 80]),
   midi.NoteOnEvent(tick=0, channel=0, data=[44, 76]),
   midi.NoteOffEvent(tick=80, channel=0, data=[44, 80]),
   midi.NoteOnEvent(tick=0, channel=0, data=[42, 76]),
   midi.NoteOffEvent(tick=80, channel=0, data=[42, 80]),
   midi.NoteOnEvent(tick=0, channel=0, data=[39, 95]),
   midi.NoteOffEvent(tick=360, channel=0, data=[39, 80]),
   midi.NoteOnEvent(tick=0, channel=0, data=[46, 95]),
   midi.NoteOffEvent(tick=360, channel=0, data=[46, 80]),
   midi.NoteOnEvent(tick=0, channel=0, data=[42, 95]),
   midi.NoteOffEvent(tick=240, channel=0, data=[42, 80]),
   midi.NoteOnEvent(tick=0, channel=0, data=[41, 95]),
   midi.NoteOffEvent(tick=360, channel=0, data=[41, 80]),
   midi.NoteOnEvent(tick=0, channel=0, data=[49, 95]),
   midi.NoteOffEvent(tick=360, channel=0, data=[49, 80]),
   midi.NoteOnEvent(tick=0, channel=0, data=[41, 95]),
   midi.NoteOffEvent(tick=240, channel=0, data=[41, 80]),
   midi.NoteOnEvent(tick=0, channel=0, data=[42, 95]),
   midi.NoteOffEvent(tick=360, channel=0, data=[42, 80]),
   midi.NoteOnEvent(tick=0, channel=0, data=[46, 95]),
   midi.NoteOffEvent(tick=360, channel=0, data=[46, 80]),
   midi.NoteOnEvent(tick=0, channel=0, data=[42, 95]),
   midi.NoteOffEvent(tick=240, channel=0, data=[42, 80]),
   midi.NoteOnEvent(tick=0, channel=0, data=[51, 95]),
   midi.NoteOffEvent(tick=480, channel=0, data=[51, 80]),
   midi.NoteOnEvent(tick=0, channel=1, data=[63, 95]),
   midi.PitchWheelEvent(tick=240, channel=1, data=[0, 56]),
   midi.PitchWheelEvent(tick=30, channel=1, data=[0, 48]),
   midi.PitchWheelEvent(tick=30, channel=1, data=[0, 40]),
   midi.PitchWheelEvent(tick=30, channel=1, data=[0, 32]),
   midi.PitchWheelEvent(tick=30, channel=1, data=[0, 24]),
   midi.PitchWheelEvent(tick=30, channel=1, data=[0, 16]),
   midi.PitchWheelEvent(tick=30, channel=1, data=[0, 8]),
   midi.PitchWheelEvent(tick=30, channel=1, data=[0, 0]),
   midi.NoteOffEvent(tick=30, channel=1, data=[63, 80]),
   midi.PitchWheelEvent(tick=0, channel=1, data=[0, 64]),
   midi.NoteOnEvent(tick=0, channel=0, data=[39, 95]),
   midi.NoteOffEvent(tick=360, channel=0, data=[39, 80]),
   midi.NoteOnEvent(tick=0, channel=0, data=[46, 95]),
   midi.NoteOffEvent(tick=360, channel=0, data=[46, 80]),
   midi.NoteOnEvent(tick=0, channel=0, data=[42, 95]),
   midi.NoteOffEvent(tick=240, channel=0, data=[42, 80]),
   midi.NoteOnEvent(tick=0, channel=0, data=[41, 95]),
   midi.NoteOffEvent(tick=360, channel=0, data=[41, 80]),
   midi.NoteOnEvent(tick=0, channel=0, data=[49, 95]),
   midi.NoteOffEvent(tick=360, channel=0, data=[49, 80]),
   midi.NoteOnEvent(tick=0, channel=0, data=[41, 95]),
   midi.NoteOffEvent(tick=240, channel=0, data=[41, 80]),
   midi.NoteOnEvent(tick=0, channel=0, data=[42, 95]),
   midi.NoteOffEvent(tick=360, channel=0, data=[42, 80]),
   midi.NoteOnEvent(tick=0, channel=0, data=[46, 95]),
   midi.NoteOffEvent(tick=360, channel=0, data=[46, 80]),
   midi.NoteOnEvent(tick=0, channel=0, data=[42, 95]),
   midi.NoteOffEvent(tick=240, channel=0, data=[42, 80]),
   midi.NoteOnEvent(tick=0, channel=0, data=[44, 95]),
   midi.NoteOffEvent(tick=360, channel=0, data=[44, 80]),
   midi.NoteOnEvent(tick=0, channel=0, data=[51, 95]),
   midi.NoteOffEvent(tick=360, channel=0, data=[51, 80]),
   midi.NoteOnEvent(tick=0, channel=0, data=[42, 95]),
   midi.NoteOffEvent(tick=80, channel=0, data=[42, 80]),
   midi.NoteOnEvent(tick=0, channel=0, data=[44, 76]),
   midi.NoteOffEvent(tick=80, channel=0, data=[44, 80]),
   midi.NoteOnEvent(tick=0, channel=0, data=[42, 76]),
   midi.NoteOffEvent(tick=80, channel=0, data=[42, 80]),
   midi.NoteOnEvent(tick=0, channel=0, data=[39, 95]),
   midi.NoteOffEvent(tick=360, channel=0, data=[39, 80]),
   midi.NoteOnEvent(tick=0, channel=0, data=[46, 95]),
   midi.NoteOffEvent(tick=360, channel=0, data=[46, 80]),
   midi.NoteOnEvent(tick=0, channel=0, data=[42, 95]),
   midi.NoteOffEvent(tick=240, channel=0, data=[42, 80]),
   midi.NoteOnEvent(tick=0, channel=0, data=[41, 95]),
   midi.NoteOffEvent(tick=360, channel=0, data=[41, 80]),
   midi.NoteOnEvent(tick=0, channel=0, data=[49, 95]),
   midi.NoteOffEvent(tick=360, channel=0, data=[49, 80]),
   midi.NoteOnEvent(tick=0, channel=0, data=[41, 95]),
   midi.NoteOffEvent(tick=240, channel=0, data=[41, 80]),
   midi.NoteOnEvent(tick=0, channel=0, data=[51, 95]),
   midi.NoteOffEvent(tick=120, channel=0, data=[51, 80]),
   midi.NoteOnEvent(tick=0, channel=0, data=[49, 95]),
   midi.NoteOffEvent(tick=120, channel=0, data=[49, 80]),
   midi.NoteOnEvent(tick=0, channel=0, data=[47, 95]),
   midi.NoteOffEvent(tick=120, channel=0, data=[47, 80]),
   midi.NoteOnEvent(tick=0, channel=0, data=[46, 95]),
   midi.NoteOffEvent(tick=120, channel=0, data=[46, 80]),
   midi.NoteOnEvent(tick=0, channel=0, data=[44, 95]),
   midi.NoteOffEvent(tick=120, channel=0, data=[44, 80]),
   midi.NoteOnEvent(tick=0, channel=0, data=[51, 95]),
   midi.NoteOffEvent(tick=120, channel=0, data=[51, 80]),
   midi.NoteOnEvent(tick=0, channel=0, data=[49, 95]),
   midi.NoteOffEvent(tick=120, channel=0, data=[49, 80]),
   midi.NoteOnEvent(tick=0, channel=0, data=[47, 95]),
   midi.NoteOffEvent(tick=120, channel=0, data=[47, 80]),
   midi.NoteOnEvent(tick=0, channel=0, data=[46, 95]),
   midi.NoteOffEvent(tick=120, channel=0, data=[46, 80]),
   midi.NoteOnEvent(tick=0, channel=0, data=[44, 95]),
   midi.NoteOffEvent(tick=120, channel=0, data=[44, 80]),
   midi.NoteOnEvent(tick=0, channel=0, data=[51, 95]),
   midi.NoteOffEvent(tick=120, channel=0, data=[51, 80]),
   midi.NoteOnEvent(tick=0, channel=0, data=[49, 95]),
   midi.NoteOffEvent(tick=120, channel=0, data=[49, 80]),
   midi.NoteOnEvent(tick=0, channel=0, data=[47, 95]),
   midi.NoteOffEvent(tick=120, channel=0, data=[47, 80]),
   midi.NoteOnEvent(tick=0, channel=0, data=[46, 95]),
   midi.NoteOffEvent(tick=120, channel=0, data=[46, 80]),
   midi.NoteOnEvent(tick=0, channel=0, data=[44, 95]),
   midi.NoteOffEvent(tick=120, channel=0, data=[44, 80]),
   midi.NoteOnEvent(tick=0, channel=0, data=[42, 95]),
   midi.NoteOffEvent(tick=120, channel=0, data=[42, 80]),
   midi.NoteOnEvent(tick=0, channel=0, data=[54, 95]),
   midi.NoteOnEvent(tick=0, channel=0, data=[47, 95]),
   midi.NoteOffEvent(tick=240, channel=0, data=[54, 80]),
   midi.NoteOffEvent(tick=0, channel=0, data=[47, 80]),
   midi.NoteOnEvent(tick=0, channel=0, data=[47, 95]),
   midi.NoteOffEvent(tick=240, channel=0, data=[47, 80]),
   midi.NoteOnEvent(tick=0, channel=0, data=[47, 95]),
   midi.NoteOffEvent(tick=240, channel=0, data=[47, 80]),
   midi.NoteOnEvent(tick=0, channel=0, data=[47, 95]),
   midi.NoteOffEvent(tick=240, channel=0, data=[47, 80]),
   midi.NoteOnEvent(tick=0, channel=0, data=[51, 95]),
   midi.NoteOnEvent(tick=0, channel=0, data=[44, 95]),
   midi.NoteOffEvent(tick=480, channel=0, data=[51, 80]),
   midi.NoteOffEvent(tick=0, channel=0, data=[44, 80]),
   midi.NoteOnEvent(tick=0, channel=0, data=[53, 95]),
   midi.NoteOnEvent(tick=0, channel=0, data=[46, 95]),
   midi.NoteOffEvent(tick=480, channel=0, data=[53, 80]),
   midi.NoteOffEvent(tick=0, channel=0, data=[46, 80]),
   midi.NoteOnEvent(tick=0, channel=0, data=[51, 95]),
   midi.NoteOnEvent(tick=0, channel=0, data=[44, 95]),
   midi.NoteOffEvent(tick=1680, channel=0, data=[51, 80]),
   midi.NoteOffEvent(tick=0, channel=0, data=[44, 80]),
   midi.NoteOnEvent(tick=0, channel=0, data=[44, 95]),
   midi.NoteOnEvent(tick=0, channel=0, data=[39, 95]),
   midi.NoteOffEvent(tick=20, channel=0, data=[44, 80]),
   midi.NoteOffEvent(tick=0, channel=0, data=[39, 80]),
   midi.NoteOnEvent(tick=100, channel=0, data=[44, 95]),
   midi.NoteOnEvent(tick=0, channel=0, data=[39, 95]),
   midi.NoteOffEvent(tick=20, channel=0, data=[44, 80]),
   midi.NoteOffEvent(tick=0, channel=0, data=[39, 80]),
   midi.NoteOnEvent(tick=100, channel=0, data=[47, 95]),
   midi.NoteOnEvent(tick=0, channel=0, data=[40, 95]),
   midi.NoteOffEvent(tick=960, channel=0, data=[47, 80]),
   midi.NoteOffEvent(tick=0, channel=0, data=[40, 80]),
   midi.NoteOnEvent(tick=0, channel=0, data=[49, 95]),
   midi.NoteOnEvent(tick=0, channel=0, data=[42, 95]),
   midi.NoteOffEvent(tick=720, channel=0, data=[49, 80]),
   midi.NoteOffEvent(tick=0, channel=0, data=[42, 80]),
   midi.NoteOnEvent(tick=0, channel=0, data=[44, 95]),
   midi.NoteOnEvent(tick=0, channel=0, data=[39, 95]),
   midi.NoteOffEvent(tick=20, channel=0, data=[44, 80]),
   midi.NoteOffEvent(tick=0, channel=0, data=[39, 80]),
   midi.NoteOnEvent(tick=100, channel=0, data=[44, 95]),
   midi.NoteOnEvent(tick=0, channel=0, data=[39, 95]),
   midi.NoteOffEvent(tick=20, channel=0, data=[44, 80]),
   midi.NoteOffEvent(tick=0, channel=0, data=[39, 80]),
   midi.NoteOnEvent(tick=100, channel=0, data=[51, 95]),
   midi.NoteOnEvent(tick=0, channel=0, data=[44, 95]),
   midi.NoteOffEvent(tick=1920, channel=0, data=[51, 80]),
   midi.NoteOffEvent(tick=0, channel=0, data=[44, 80]),
   midi.NoteOnEvent(tick=0, channel=0, data=[47, 95]),
   midi.NoteOnEvent(tick=0, channel=0, data=[40, 95]),
   midi.NoteOffEvent(tick=960, channel=0, data=[47, 80]),
   midi.NoteOffEvent(tick=0, channel=0, data=[40, 80]),
   midi.NoteOnEvent(tick=0, channel=0, data=[49, 95]),
   midi.NoteOnEvent(tick=0, channel=0, data=[42, 95]),
   midi.NoteOffEvent(tick=960, channel=0, data=[49, 80]),
   midi.NoteOffEvent(tick=0, channel=0, data=[42, 80]),
   midi.NoteOnEvent(tick=0, channel=0, data=[51, 95]),
   midi.NoteOnEvent(tick=0, channel=0, data=[44, 95]),
   midi.NoteOffEvent(tick=1920, channel=0, data=[51, 80]),
   midi.NoteOffEvent(tick=0, channel=0, data=[44, 80]),
   midi.NoteOnEvent(tick=0, channel=0, data=[47, 95]),
   midi.NoteOnEvent(tick=0, channel=0, data=[40, 95]),
   midi.NoteOffEvent(tick=960, channel=0, data=[47, 80]),
   midi.NoteOffEvent(tick=0, channel=0, data=[40, 80]),
   midi.NoteOnEvent(tick=0, channel=0, data=[49, 95]),
   midi.NoteOnEvent(tick=0, channel=0, data=[42, 95]),
   midi.NoteOffEvent(tick=960, channel=0, data=[49, 80]),
   midi.NoteOffEvent(tick=0, channel=0, data=[42, 80]),
   midi.NoteOnEvent(tick=0, channel=0, data=[44, 95]),
   midi.NoteOffEvent(tick=360, channel=0, data=[44, 80]),
   midi.NoteOnEvent(tick=0, channel=0, data=[51, 95]),
   midi.NoteOffEvent(tick=360, channel=0, data=[51, 80]),
   midi.NoteOnEvent(tick=0, channel=0, data=[58, 76]),
   midi.NoteOffEvent(tick=240, channel=0, data=[58, 80]),
   midi.NoteOnEvent(tick=0, channel=0, data=[59, 95]),
   midi.NoteOffEvent(tick=360, channel=0, data=[59, 80]),
   midi.NoteOnEvent(tick=0, channel=0, data=[58, 95]),
   midi.NoteOffEvent(tick=360, channel=0, data=[58, 80]),
   midi.NoteOnEvent(tick=0, channel=0, data=[54, 95]),
   midi.NoteOffEvent(tick=240, channel=0, data=[54, 80]),
   midi.NoteOnEvent(tick=0, channel=0, data=[52, 95]),
   midi.NoteOffEvent(tick=360, channel=0, data=[52, 80]),
   midi.NoteOnEvent(tick=0, channel=0, data=[51, 95]),
   midi.NoteOffEvent(tick=360, channel=0, data=[51, 80]),
   midi.NoteOnEvent(tick=0, channel=0, data=[47, 95]),
   midi.NoteOffEvent(tick=240, channel=0, data=[47, 80]),
   midi.NoteOnEvent(tick=0, channel=0, data=[46, 95]),
   midi.NoteOffEvent(tick=360, channel=0, data=[46, 80]),
   midi.NoteOnEvent(tick=0, channel=0, data=[42, 95]),
   midi.NoteOffEvent(tick=360, channel=0, data=[42, 80]),
   midi.NoteOnEvent(tick=0, channel=0, data=[40, 95]),
   midi.NoteOffEvent(tick=240, channel=0, data=[40, 80]),
   midi.NoteOnEvent(tick=0, channel=1, data=[51, 95]),
   midi.PitchWheelEvent(tick=120, channel=1, data=[0, 56]),
   midi.NoteOffEvent(tick=120, channel=1, data=[51, 80]),
   midi.PitchWheelEvent(tick=0, channel=1, data=[0, 64]),
   midi.NoteOnEvent(tick=0, channel=0, data=[39, 95]),
   midi.NoteOffEvent(tick=240, channel=0, data=[39, 80]),
   midi.NoteOnEvent(tick=0, channel=0, data=[39, 95]),
   midi.NoteOffEvent(tick=240, channel=0, data=[39, 80]),
   midi.NoteOnEvent(tick=0, channel=0, data=[39, 95]),
   midi.NoteOffEvent(tick=240, channel=0, data=[39, 80]),
   midi.NoteOnEvent(tick=0, channel=0, data=[44, 95]),
   midi.NoteOffEvent(tick=120, channel=0, data=[44, 80]),
   midi.NoteOnEvent(tick=0, channel=0, data=[46, 76]),
   midi.NoteOffEvent(tick=120, channel=0, data=[46, 80]),
   midi.NoteOnEvent(tick=0, channel=0, data=[49, 76]),
   midi.NoteOffEvent(tick=120, channel=0, data=[49, 80]),
   midi.NoteOnEvent(tick=0, channel=0, data=[51, 76]),
   midi.NoteOffEvent(tick=120, channel=0, data=[51, 80]),
   midi.NoteOnEvent(tick=120, channel=0, data=[39, 95]),
   midi.NoteOffEvent(tick=120, channel=0, data=[39, 80]),
   midi.NoteOnEvent(tick=0, channel=0, data=[54, 95]),
   midi.NoteOffEvent(tick=240, channel=0, data=[54, 80]),
   midi.NoteOnEvent(tick=0, channel=0, data=[53, 95]),
   midi.NoteOnEvent(tick=0, channel=0, data=[49, 95]),
   midi.NoteOffEvent(tick=240, channel=0, data=[53, 80]),
   midi.NoteOffEvent(tick=0, channel=0, data=[49, 80]),
   midi.NoteOnEvent(tick=0, channel=0, data=[39, 95]),
   midi.NoteOffEvent(tick=240, channel=0, data=[39, 80]),
   midi.NoteOnEvent(tick=0, channel=0, data=[39, 95]),
   midi.NoteOffEvent(tick=240, channel=0, data=[39, 80]),
   midi.NoteOnEvent(tick=0, channel=0, data=[39, 95]),
   midi.NoteOffEvent(tick=240, channel=0, data=[39, 80]),
   midi.NoteOnEvent(tick=0, channel=0, data=[44, 95]),
   midi.NoteOffEvent(tick=120, channel=0, data=[44, 80]),
   midi.NoteOnEvent(tick=0, channel=0, data=[46, 76]),
   midi.NoteOffEvent(tick=120, channel=0, data=[46, 80]),
   midi.NoteOnEvent(tick=0, channel=0, data=[49, 95]),
   midi.NoteOffEvent(tick=120, channel=0, data=[49, 80]),
   midi.NoteOnEvent(tick=0, channel=0, data=[51, 76]),
   midi.NoteOffEvent(tick=120, channel=0, data=[51, 80]),
   midi.NoteOnEvent(tick=120, channel=0, data=[39, 95]),
   midi.NoteOffEvent(tick=120, channel=0, data=[39, 80]),
   midi.NoteOnEvent(tick=0, channel=0, data=[54, 95]),
   midi.NoteOffEvent(tick=240, channel=0, data=[54, 80]),
   midi.NoteOnEvent(tick=0, channel=0, data=[54, 95]),
   midi.NoteOnEvent(tick=0, channel=0, data=[48, 95]),
   midi.NoteOffEvent(tick=240, channel=0, data=[54, 80]),
   midi.NoteOffEvent(tick=0, channel=0, data=[48, 80]),
   midi.NoteOnEvent(tick=0, channel=0, data=[39, 95]),
   midi.NoteOffEvent(tick=240, channel=0, data=[39, 80]),
   midi.NoteOnEvent(tick=0, channel=0, data=[39, 95]),
   midi.NoteOffEvent(tick=240, channel=0, data=[39, 80]),
   midi.NoteOnEvent(tick=0, channel=0, data=[39, 95]),
   midi.NoteOffEvent(tick=240, channel=0, data=[39, 80]),
   midi.NoteOnEvent(tick=0, channel=0, data=[44, 95]),
   midi.NoteOffEvent(tick=120, channel=0, data=[44, 80]),
   midi.NoteOnEvent(tick=0, channel=0, data=[46, 76]),
   midi.NoteOffEvent(tick=120, channel=0, data=[46, 80]),
   midi.NoteOnEvent(tick=0, channel=0, data=[49, 95]),
   midi.NoteOffEvent(tick=120, channel=0, data=[49, 80]),
   midi.NoteOnEvent(tick=0, channel=0, data=[51, 76]),
   midi.NoteOffEvent(tick=120, channel=0, data=[51, 80]),
   midi.NoteOnEvent(tick=120, channel=0, data=[39, 95]),
   midi.NoteOffEvent(tick=120, channel=0, data=[39, 80]),
   midi.NoteOnEvent(tick=0, channel=0, data=[54, 95]),
   midi.NoteOffEvent(tick=240, channel=0, data=[54, 80]),
   midi.NoteOnEvent(tick=0, channel=0, data=[56, 95]),
   midi.NoteOnEvent(tick=0, channel=0, data=[49, 95]),
   midi.NoteOffEvent(tick=240, channel=0, data=[56, 80]),
   midi.NoteOffEvent(tick=0, channel=0, data=[49, 80]),
   midi.NoteOnEvent(tick=0, channel=0, data=[39, 95]),
   midi.NoteOffEvent(tick=240, channel=0, data=[39, 80]),
   midi.NoteOnEvent(tick=0, channel=0, data=[39, 95]),
   midi.NoteOffEvent(tick=240, channel=0, data=[39, 80]),
   midi.NoteOnEvent(tick=0, channel=0, data=[39, 95]),
   midi.NoteOffEvent(tick=240, channel=0, data=[39, 80]),
   midi.NoteOnEvent(tick=0, channel=0, data=[44, 95]),
   midi.NoteOffEvent(tick=120, channel=0, data=[44, 80]),
   midi.NoteOnEvent(tick=0, channel=0, data=[46, 76]),
   midi.NoteOffEvent(tick=120, channel=0, data=[46, 80]),
   midi.NoteOnEvent(tick=0, channel=0, data=[49, 95]),
   midi.NoteOffEvent(tick=120, channel=0, data=[49, 80]),
   midi.NoteOnEvent(tick=0, channel=0, data=[51, 76]),
   midi.NoteOffEvent(tick=120, channel=0, data=[51, 80]),
   midi.NoteOnEvent(tick=120, channel=0, data=[39, 95]),
   midi.NoteOffEvent(tick=120, channel=0, data=[39, 80]),
   midi.NoteOnEvent(tick=0, channel=0, data=[54, 95]),
   midi.NoteOffEvent(tick=240, channel=0, data=[54, 80]),
   midi.NoteOnEvent(tick=0, channel=0, data=[54, 95]),
   midi.NoteOnEvent(tick=0, channel=0, data=[51, 95]),
   midi.NoteOffEvent(tick=240, channel=0, data=[54, 80]),
   midi.NoteOffEvent(tick=0, channel=0, data=[51, 80]),
   midi.NoteOnEvent(tick=0, channel=0, data=[39, 95]),
   midi.NoteOffEvent(tick=240, channel=0, data=[39, 80]),
   midi.NoteOnEvent(tick=0, channel=0, data=[39, 95]),
   midi.NoteOffEvent(tick=240, channel=0, data=[39, 80]),
   midi.NoteOnEvent(tick=0, channel=0, data=[39, 95]),
   midi.NoteOffEvent(tick=240, channel=0, data=[39, 80]),
   midi.NoteOnEvent(tick=0, channel=0, data=[44, 95]),
   midi.NoteOffEvent(tick=120, channel=0, data=[44, 80]),
   midi.NoteOnEvent(tick=0, channel=0, data=[46, 76]),
   midi.NoteOffEvent(tick=120, channel=0, data=[46, 80]),
   midi.NoteOnEvent(tick=0, channel=0, data=[49, 95]),
   midi.NoteOffEvent(tick=120, channel=0, data=[49, 80]),
   midi.NoteOnEvent(tick=0, channel=0, data=[51, 76]),
   midi.NoteOffEvent(tick=120, channel=0, data=[51, 80]),
   midi.NoteOnEvent(tick=120, channel=0, data=[39, 95]),
   midi.NoteOffEvent(tick=120, channel=0, data=[39, 80]),
   midi.NoteOnEvent(tick=0, channel=0, data=[54, 95]),
   midi.NoteOffEvent(tick=240, channel=0, data=[54, 80]),
   midi.NoteOnEvent(tick=0, channel=0, data=[53, 95]),
   midi.NoteOnEvent(tick=0, channel=0, data=[49, 95]),
   midi.NoteOffEvent(tick=240, channel=0, data=[53, 80]),
   midi.NoteOffEvent(tick=0, channel=0, data=[49, 80]),
   midi.NoteOnEvent(tick=0, channel=0, data=[39, 95]),
   midi.NoteOffEvent(tick=240, channel=0, data=[39, 80]),
   midi.NoteOnEvent(tick=0, channel=0, data=[39, 95]),
   midi.NoteOffEvent(tick=240, channel=0, data=[39, 80]),
   midi.NoteOnEvent(tick=0, channel=0, data=[39, 95]),
   midi.NoteOffEvent(tick=240, channel=0, data=[39, 80]),
   midi.NoteOnEvent(tick=0, channel=0, data=[44, 95]),
   midi.NoteOffEvent(tick=120, channel=0, data=[44, 80]),
   midi.NoteOnEvent(tick=0, channel=0, data=[46, 76]),
   midi.NoteOffEvent(tick=120, channel=0, data=[46, 80]),
   midi.NoteOnEvent(tick=0, channel=0, data=[49, 95]),
   midi.NoteOffEvent(tick=120, channel=0, data=[49, 80]),
   midi.NoteOnEvent(tick=0, channel=0, data=[51, 76]),
   midi.NoteOffEvent(tick=120, channel=0, data=[51, 80]),
   midi.NoteOnEvent(tick=120, channel=0, data=[39, 95]),
   midi.NoteOffEvent(tick=120, channel=0, data=[39, 80]),
   midi.NoteOnEvent(tick=0, channel=0, data=[54, 95]),
   midi.NoteOffEvent(tick=240, channel=0, data=[54, 80]),
   midi.NoteOnEvent(tick=0, channel=0, data=[54, 95]),
   midi.NoteOnEvent(tick=0, channel=0, data=[48, 95]),
   midi.NoteOffEvent(tick=240, channel=0, data=[54, 80]),
   midi.NoteOffEvent(tick=0, channel=0, data=[48, 80]),
   midi.NoteOnEvent(tick=0, channel=0, data=[39, 95]),
   midi.NoteOffEvent(tick=240, channel=0, data=[39, 80]),
   midi.NoteOnEvent(tick=0, channel=0, data=[39, 95]),
   midi.NoteOffEvent(tick=240, channel=0, data=[39, 80]),
   midi.NoteOnEvent(tick=0, channel=0, data=[39, 95]),
   midi.NoteOffEvent(tick=240, channel=0, data=[39, 80]),
   midi.NoteOnEvent(tick=0, channel=0, data=[44, 95]),
   midi.NoteOffEvent(tick=120, channel=0, data=[44, 80]),
   midi.NoteOnEvent(tick=0, channel=0, data=[46, 76]),
   midi.NoteOffEvent(tick=120, channel=0, data=[46, 80]),
   midi.NoteOnEvent(tick=0, channel=0, data=[49, 95]),
   midi.NoteOffEvent(tick=120, channel=0, data=[49, 80]),
   midi.NoteOnEvent(tick=0, channel=0, data=[51, 76]),
   midi.NoteOffEvent(tick=120, channel=0, data=[51, 80]),
   midi.NoteOnEvent(tick=120, channel=0, data=[39, 95]),
   midi.NoteOffEvent(tick=120, channel=0, data=[39, 80]),
   midi.NoteOnEvent(tick=0, channel=0, data=[54, 95]),
   midi.NoteOffEvent(tick=240, channel=0, data=[54, 80]),
   midi.NoteOnEvent(tick=0, channel=0, data=[56, 95]),
   midi.NoteOnEvent(tick=0, channel=0, data=[49, 95]),
   midi.NoteOffEvent(tick=240, channel=0, data=[56, 80]),
   midi.NoteOffEvent(tick=0, channel=0, data=[49, 80]),
   midi.NoteOnEvent(tick=0, channel=0, data=[39, 95]),
   midi.NoteOffEvent(tick=240, channel=0, data=[39, 80]),
   midi.NoteOnEvent(tick=0, channel=0, data=[39, 95]),
   midi.NoteOffEvent(tick=240, channel=0, data=[39, 80]),
   midi.NoteOnEvent(tick=0, channel=0, data=[39, 95]),
   midi.NoteOffEvent(tick=240, channel=0, data=[39, 80]),
   midi.NoteOnEvent(tick=0, channel=0, data=[44, 95]),
   midi.NoteOffEvent(tick=120, channel=0, data=[44, 80]),
   midi.NoteOnEvent(tick=0, channel=0, data=[46, 76]),
   midi.NoteOffEvent(tick=120, channel=0, data=[46, 80]),
   midi.NoteOnEvent(tick=0, channel=0, data=[49, 95]),
   midi.NoteOffEvent(tick=120, channel=0, data=[49, 80]),
   midi.NoteOnEvent(tick=0, channel=0, data=[51, 76]),
   midi.NoteOffEvent(tick=120, channel=0, data=[51, 80]),
   midi.NoteOnEvent(tick=120, channel=0, data=[39, 95]),
   midi.NoteOffEvent(tick=120, channel=0, data=[39, 80]),
   midi.NoteOnEvent(tick=0, channel=0, data=[54, 95]),
   midi.NoteOffEvent(tick=240, channel=0, data=[54, 80]),
   midi.NoteOnEvent(tick=0, channel=0, data=[54, 95]),
   midi.NoteOnEvent(tick=0, channel=0, data=[51, 95]),
   midi.NoteOffEvent(tick=240, channel=0, data=[54, 80]),
   midi.NoteOffEvent(tick=0, channel=0, data=[51, 80]),
   midi.NoteOnEvent(tick=0, channel=0, data=[39, 95]),
   midi.NoteOffEvent(tick=240, channel=0, data=[39, 80]),
   midi.NoteOnEvent(tick=0, channel=0, data=[39, 95]),
   midi.NoteOffEvent(tick=240, channel=0, data=[39, 80]),
   midi.NoteOnEvent(tick=0, channel=0, data=[39, 95]),
   midi.NoteOffEvent(tick=240, channel=0, data=[39, 80]),
   midi.NoteOnEvent(tick=0, channel=0, data=[44, 95]),
   midi.NoteOffEvent(tick=120, channel=0, data=[44, 80]),
   midi.NoteOnEvent(tick=0, channel=0, data=[46, 76]),
   midi.NoteOffEvent(tick=120, channel=0, data=[46, 80]),
   midi.NoteOnEvent(tick=0, channel=0, data=[49, 95]),
   midi.NoteOffEvent(tick=120, channel=0, data=[49, 80]),
   midi.NoteOnEvent(tick=0, channel=0, data=[51, 76]),
   midi.NoteOffEvent(tick=120, channel=0, data=[51, 80]),
   midi.NoteOnEvent(tick=120, channel=0, data=[39, 95]),
   midi.NoteOffEvent(tick=120, channel=0, data=[39, 80]),
   midi.NoteOnEvent(tick=0, channel=0, data=[54, 95]),
   midi.NoteOffEvent(tick=240, channel=0, data=[54, 80]),
   midi.NoteOnEvent(tick=0, channel=0, data=[53, 95]),
   midi.NoteOnEvent(tick=0, channel=0, data=[49, 95]),
   midi.NoteOffEvent(tick=240, channel=0, data=[53, 80]),
   midi.NoteOffEvent(tick=0, channel=0, data=[49, 80]),
   midi.NoteOnEvent(tick=0, channel=0, data=[39, 95]),
   midi.NoteOffEvent(tick=240, channel=0, data=[39, 80]),
   midi.NoteOnEvent(tick=0, channel=0, data=[39, 95]),
   midi.NoteOffEvent(tick=240, channel=0, data=[39, 80]),
   midi.NoteOnEvent(tick=0, channel=0, data=[39, 95]),
   midi.NoteOffEvent(tick=240, channel=0, data=[39, 80]),
   midi.NoteOnEvent(tick=0, channel=0, data=[44, 95]),
   midi.NoteOffEvent(tick=120, channel=0, data=[44, 80]),
   midi.NoteOnEvent(tick=0, channel=0, data=[46, 76]),
   midi.NoteOffEvent(tick=120, channel=0, data=[46, 80]),
   midi.NoteOnEvent(tick=0, channel=0, data=[49, 95]),
   midi.NoteOffEvent(tick=120, channel=0, data=[49, 80]),
   midi.NoteOnEvent(tick=0, channel=0, data=[51, 76]),
   midi.NoteOffEvent(tick=120, channel=0, data=[51, 80]),
   midi.NoteOnEvent(tick=120, channel=0, data=[39, 95]),
   midi.NoteOffEvent(tick=120, channel=0, data=[39, 80]),
   midi.NoteOnEvent(tick=0, channel=0, data=[54, 95]),
   midi.NoteOffEvent(tick=240, channel=0, data=[54, 80]),
   midi.NoteOnEvent(tick=0, channel=0, data=[54, 95]),
   midi.NoteOnEvent(tick=0, channel=0, data=[48, 95]),
   midi.NoteOffEvent(tick=240, channel=0, data=[54, 80]),
   midi.NoteOffEvent(tick=0, channel=0, data=[48, 80]),
   midi.NoteOnEvent(tick=0, channel=0, data=[39, 95]),
   midi.NoteOffEvent(tick=240, channel=0, data=[39, 80]),
   midi.NoteOnEvent(tick=0, channel=0, data=[39, 95]),
   midi.NoteOffEvent(tick=240, channel=0, data=[39, 80]),
   midi.NoteOnEvent(tick=0, channel=0, data=[39, 95]),
   midi.NoteOffEvent(tick=240, channel=0, data=[39, 80]),
   midi.NoteOnEvent(tick=0, channel=0, data=[44, 95]),
   midi.NoteOffEvent(tick=120, channel=0, data=[44, 80]),
   midi.NoteOnEvent(tick=0, channel=0, data=[46, 76]),
   midi.NoteOffEvent(tick=120, channel=0, data=[46, 80]),
   midi.NoteOnEvent(tick=0, channel=0, data=[49, 95]),
   midi.NoteOffEvent(tick=120, channel=0, data=[49, 80]),
   midi.NoteOnEvent(tick=0, channel=0, data=[51, 76]),
   midi.NoteOffEvent(tick=120, channel=0, data=[51, 80]),
   midi.NoteOnEvent(tick=120, channel=0, data=[39, 95]),
   midi.NoteOffEvent(tick=120, channel=0, data=[39, 80]),
   midi.NoteOnEvent(tick=0, channel=0, data=[54, 95]),
   midi.NoteOffEvent(tick=240, channel=0, data=[54, 80]),
   midi.NoteOnEvent(tick=0, channel=0, data=[56, 95]),
   midi.NoteOnEvent(tick=0, channel=0, data=[49, 95]),
   midi.NoteOffEvent(tick=240, channel=0, data=[56, 80]),
   midi.NoteOffEvent(tick=0, channel=0, data=[49, 80]),
   midi.NoteOnEvent(tick=0, channel=0, data=[39, 95]),
   midi.NoteOffEvent(tick=240, channel=0, data=[39, 80]),
   midi.NoteOnEvent(tick=0, channel=0, data=[39, 95]),
   midi.NoteOffEvent(tick=240, channel=0, data=[39, 80]),
   midi.NoteOnEvent(tick=0, channel=0, data=[39, 95]),
   midi.NoteOffEvent(tick=240, channel=0, data=[39, 80]),
   midi.NoteOnEvent(tick=0, channel=0, data=[44, 95]),
   midi.NoteOffEvent(tick=120, channel=0, data=[44, 80]),
   midi.NoteOnEvent(tick=0, channel=0, data=[46, 76]),
   midi.NoteOffEvent(tick=120, channel=0, data=[46, 80]),
   midi.NoteOnEvent(tick=0, channel=0, data=[49, 95]),
   midi.NoteOffEvent(tick=120, channel=0, data=[49, 80]),
   midi.NoteOnEvent(tick=0, channel=0, data=[51, 76]),
   midi.NoteOffEvent(tick=120, channel=0, data=[51, 80]),
   midi.NoteOnEvent(tick=120, channel=0, data=[39, 95]),
   midi.NoteOffEvent(tick=120, channel=0, data=[39, 80]),
   midi.NoteOnEvent(tick=0, channel=0, data=[54, 95]),
   midi.NoteOffEvent(tick=240, channel=0, data=[54, 80]),
   midi.NoteOnEvent(tick=0, channel=0, data=[54, 95]),
   midi.NoteOnEvent(tick=0, channel=0, data=[51, 95]),
   midi.NoteOffEvent(tick=240, channel=0, data=[54, 80]),
   midi.NoteOffEvent(tick=0, channel=0, data=[51, 80]),
   midi.NoteOnEvent(tick=0, channel=0, data=[39, 95]),
   midi.NoteOffEvent(tick=240, channel=0, data=[39, 80]),
   midi.NoteOnEvent(tick=0, channel=0, data=[39, 95]),
   midi.NoteOffEvent(tick=240, channel=0, data=[39, 80]),
   midi.NoteOnEvent(tick=0, channel=0, data=[39, 95]),
   midi.NoteOffEvent(tick=240, channel=0, data=[39, 80]),
   midi.NoteOnEvent(tick=0, channel=0, data=[44, 95]),
   midi.NoteOffEvent(tick=120, channel=0, data=[44, 80]),
   midi.NoteOnEvent(tick=0, channel=0, data=[46, 76]),
   midi.NoteOffEvent(tick=120, channel=0, data=[46, 80]),
   midi.NoteOnEvent(tick=0, channel=0, data=[49, 95]),
   midi.NoteOffEvent(tick=120, channel=0, data=[49, 80]),
   midi.NoteOnEvent(tick=0, channel=0, data=[51, 76]),
   midi.NoteOffEvent(tick=120, channel=0, data=[51, 80]),
   midi.NoteOnEvent(tick=120, channel=0, data=[39, 95]),
   midi.NoteOffEvent(tick=120, channel=0, data=[39, 80]),
   midi.NoteOnEvent(tick=0, channel=0, data=[54, 95]),
   midi.NoteOffEvent(tick=240, channel=0, data=[54, 80]),
   midi.NoteOnEvent(tick=0, channel=0, data=[53, 95]),
   midi.NoteOnEvent(tick=0, channel=0, data=[49, 95]),
   midi.NoteOffEvent(tick=240, channel=0, data=[53, 80]),
   midi.NoteOffEvent(tick=0, channel=0, data=[49, 80]),
   midi.NoteOnEvent(tick=0, channel=0, data=[39, 95]),
   midi.NoteOffEvent(tick=240, channel=0, data=[39, 80]),
   midi.NoteOnEvent(tick=0, channel=0, data=[39, 95]),
   midi.NoteOffEvent(tick=240, channel=0, data=[39, 80]),
   midi.NoteOnEvent(tick=0, channel=0, data=[39, 95]),
   midi.NoteOffEvent(tick=240, channel=0, data=[39, 80]),
   midi.NoteOnEvent(tick=0, channel=0, data=[44, 95]),
   midi.NoteOffEvent(tick=120, channel=0, data=[44, 80]),
   midi.NoteOnEvent(tick=0, channel=0, data=[46, 76]),
   midi.NoteOffEvent(tick=120, channel=0, data=[46, 80]),
   midi.NoteOnEvent(tick=0, channel=0, data=[49, 95]),
   midi.NoteOffEvent(tick=120, channel=0, data=[49, 80]),
   midi.NoteOnEvent(tick=0, channel=0, data=[51, 76]),
   midi.NoteOffEvent(tick=120, channel=0, data=[51, 80]),
   midi.NoteOnEvent(tick=120, channel=0, data=[39, 95]),
   midi.NoteOffEvent(tick=120, channel=0, data=[39, 80]),
   midi.NoteOnEvent(tick=0, channel=0, data=[54, 95]),
   midi.NoteOffEvent(tick=240, channel=0, data=[54, 80]),
   midi.NoteOnEvent(tick=0, channel=0, data=[54, 95]),
   midi.NoteOnEvent(tick=0, channel=0, data=[48, 95]),
   midi.NoteOffEvent(tick=240, channel=0, data=[54, 80]),
   midi.NoteOffEvent(tick=0, channel=0, data=[48, 80]),
   midi.NoteOnEvent(tick=0, channel=0, data=[39, 95]),
   midi.NoteOffEvent(tick=240, channel=0, data=[39, 80]),
   midi.NoteOnEvent(tick=0, channel=0, data=[39, 95]),
   midi.NoteOffEvent(tick=240, channel=0, data=[39, 80]),
   midi.NoteOnEvent(tick=0, channel=0, data=[39, 95]),
   midi.NoteOffEvent(tick=240, channel=0, data=[39, 80]),
   midi.NoteOnEvent(tick=0, channel=0, data=[44, 95]),
   midi.NoteOffEvent(tick=120, channel=0, data=[44, 80]),
   midi.NoteOnEvent(tick=0, channel=0, data=[46, 76]),
   midi.NoteOffEvent(tick=120, channel=0, data=[46, 80]),
   midi.NoteOnEvent(tick=0, channel=0, data=[49, 95]),
   midi.NoteOffEvent(tick=120, channel=0, data=[49, 80]),
   midi.NoteOnEvent(tick=0, channel=0, data=[51, 76]),
   midi.NoteOffEvent(tick=120, channel=0, data=[51, 80]),
   midi.NoteOnEvent(tick=120, channel=0, data=[39, 95]),
   midi.NoteOffEvent(tick=120, channel=0, data=[39, 80]),
   midi.NoteOnEvent(tick=0, channel=0, data=[54, 95]),
   midi.NoteOffEvent(tick=240, channel=0, data=[54, 80]),
   midi.NoteOnEvent(tick=0, channel=0, data=[56, 95]),
   midi.NoteOnEvent(tick=0, channel=0, data=[49, 95]),
   midi.NoteOffEvent(tick=240, channel=0, data=[56, 80]),
   midi.NoteOffEvent(tick=0, channel=0, data=[49, 80]),
   midi.NoteOnEvent(tick=0, channel=0, data=[39, 95]),
   midi.NoteOffEvent(tick=240, channel=0, data=[39, 80]),
   midi.NoteOnEvent(tick=0, channel=0, data=[39, 95]),
   midi.NoteOffEvent(tick=240, channel=0, data=[39, 80]),
   midi.NoteOnEvent(tick=0, channel=0, data=[39, 95]),
   midi.NoteOffEvent(tick=240, channel=0, data=[39, 80]),
   midi.NoteOnEvent(tick=0, channel=0, data=[44, 95]),
   midi.NoteOffEvent(tick=120, channel=0, data=[44, 80]),
   midi.NoteOnEvent(tick=0, channel=0, data=[46, 76]),
   midi.NoteOffEvent(tick=120, channel=0, data=[46, 80]),
   midi.NoteOnEvent(tick=0, channel=0, data=[49, 95]),
   midi.NoteOffEvent(tick=120, channel=0, data=[49, 80]),
   midi.NoteOnEvent(tick=0, channel=0, data=[51, 76]),
   midi.NoteOffEvent(tick=120, channel=0, data=[51, 80]),
   midi.NoteOnEvent(tick=120, channel=0, data=[39, 95]),
   midi.NoteOffEvent(tick=120, channel=0, data=[39, 80]),
   midi.NoteOnEvent(tick=0, channel=0, data=[54, 95]),
   midi.NoteOffEvent(tick=240, channel=0, data=[54, 80]),
   midi.NoteOnEvent(tick=0, channel=0, data=[54, 95]),
   midi.NoteOnEvent(tick=0, channel=0, data=[51, 95]),
   midi.NoteOffEvent(tick=240, channel=0, data=[54, 80]),
   midi.NoteOffEvent(tick=0, channel=0, data=[51, 80]),
   midi.NoteOnEvent(tick=0, channel=0, data=[39, 95]),
   midi.NoteOffEvent(tick=240, channel=0, data=[39, 80]),
   midi.NoteOnEvent(tick=0, channel=0, data=[39, 95]),
   midi.NoteOffEvent(tick=240, channel=0, data=[39, 80]),
   midi.NoteOnEvent(tick=0, channel=0, data=[39, 95]),
   midi.NoteOffEvent(tick=240, channel=0, data=[39, 80]),
   midi.NoteOnEvent(tick=0, channel=0, data=[44, 95]),
   midi.NoteOffEvent(tick=120, channel=0, data=[44, 80]),
   midi.NoteOnEvent(tick=0, channel=0, data=[46, 76]),
   midi.NoteOffEvent(tick=120, channel=0, data=[46, 80]),
   midi.NoteOnEvent(tick=0, channel=0, data=[49, 95]),
   midi.NoteOffEvent(tick=120, channel=0, data=[49, 80]),
   midi.NoteOnEvent(tick=0, channel=0, data=[51, 76]),
   midi.NoteOffEvent(tick=120, channel=0, data=[51, 80]),
   midi.NoteOnEvent(tick=120, channel=0, data=[39, 95]),
   midi.NoteOffEvent(tick=120, channel=0, data=[39, 80]),
   midi.NoteOnEvent(tick=0, channel=0, data=[54, 95]),
   midi.NoteOffEvent(tick=240, channel=0, data=[54, 80]),
   midi.NoteOnEvent(tick=0, channel=0, data=[53, 95]),
   midi.NoteOnEvent(tick=0, channel=0, data=[49, 95]),
   midi.NoteOffEvent(tick=240, channel=0, data=[53, 80]),
   midi.NoteOffEvent(tick=0, channel=0, data=[49, 80]),
   midi.NoteOnEvent(tick=0, channel=0, data=[39, 95]),
   midi.NoteOffEvent(tick=240, channel=0, data=[39, 80]),
   midi.NoteOnEvent(tick=0, channel=0, data=[39, 95]),
   midi.NoteOffEvent(tick=240, channel=0, data=[39, 80]),
   midi.NoteOnEvent(tick=0, channel=0, data=[39, 95]),
   midi.NoteOffEvent(tick=240, channel=0, data=[39, 80]),
   midi.NoteOnEvent(tick=0, channel=0, data=[44, 95]),
   midi.NoteOffEvent(tick=120, channel=0, data=[44, 80]),
   midi.NoteOnEvent(tick=0, channel=0, data=[46, 76]),
   midi.NoteOffEvent(tick=120, channel=0, data=[46, 80]),
   midi.NoteOnEvent(tick=0, channel=0, data=[49, 95]),
   midi.NoteOffEvent(tick=120, channel=0, data=[49, 80]),
   midi.NoteOnEvent(tick=0, channel=0, data=[51, 76]),
   midi.NoteOffEvent(tick=120, channel=0, data=[51, 80]),
   midi.NoteOnEvent(tick=120, channel=0, data=[39, 95]),
   midi.NoteOffEvent(tick=120, channel=0, data=[39, 80]),
   midi.NoteOnEvent(tick=0, channel=0, data=[54, 95]),
   midi.NoteOffEvent(tick=240, channel=0, data=[54, 80]),
   midi.NoteOnEvent(tick=0, channel=0, data=[54, 95]),
   midi.NoteOnEvent(tick=0, channel=0, data=[48, 95]),
   midi.NoteOffEvent(tick=240, channel=0, data=[54, 80]),
   midi.NoteOffEvent(tick=0, channel=0, data=[48, 80]),
   midi.NoteOnEvent(tick=0, channel=0, data=[39, 95]),
   midi.NoteOffEvent(tick=240, channel=0, data=[39, 80]),
   midi.NoteOnEvent(tick=0, channel=0, data=[39, 95]),
   midi.NoteOffEvent(tick=240, channel=0, data=[39, 80]),
   midi.NoteOnEvent(tick=0, channel=0, data=[39, 95]),
   midi.NoteOffEvent(tick=240, channel=0, data=[39, 80]),
   midi.NoteOnEvent(tick=0, channel=0, data=[44, 95]),
   midi.NoteOffEvent(tick=120, channel=0, data=[44, 80]),
   midi.NoteOnEvent(tick=0, channel=0, data=[46, 76]),
   midi.NoteOffEvent(tick=120, channel=0, data=[46, 80]),
   midi.NoteOnEvent(tick=0, channel=0, data=[49, 95]),
   midi.NoteOffEvent(tick=120, channel=0, data=[49, 80]),
   midi.NoteOnEvent(tick=0, channel=0, data=[51, 76]),
   midi.NoteOffEvent(tick=120, channel=0, data=[51, 80]),
   midi.NoteOnEvent(tick=120, channel=0, data=[39, 95]),
   midi.NoteOffEvent(tick=120, channel=0, data=[39, 80]),
   midi.NoteOnEvent(tick=0, channel=0, data=[54, 95]),
   midi.NoteOffEvent(tick=240, channel=0, data=[54, 80]),
   midi.NoteOnEvent(tick=0, channel=0, data=[54, 95]),
   midi.NoteOnEvent(tick=0, channel=0, data=[47, 95]),
   midi.NoteOffEvent(tick=960, channel=0, data=[54, 80]),
   midi.NoteOffEvent(tick=0, channel=0, data=[47, 80]),
   midi.NoteOnEvent(tick=0, channel=0, data=[51, 95]),
   midi.NoteOnEvent(tick=0, channel=0, data=[44, 95]),
   midi.NoteOffEvent(tick=480, channel=0, data=[51, 80]),
   midi.NoteOffEvent(tick=0, channel=0, data=[44, 80]),
   midi.NoteOnEvent(tick=0, channel=0, data=[53, 95]),
   midi.NoteOnEvent(tick=0, channel=0, data=[46, 95]),
   midi.NoteOffEvent(tick=480, channel=0, data=[53, 80]),
   midi.NoteOffEvent(tick=0, channel=0, data=[46, 80]),
   midi.NoteOnEvent(tick=0, channel=0, data=[39, 95]),
   midi.NoteOffEvent(tick=360, channel=0, data=[39, 80]),
   midi.NoteOnEvent(tick=0, channel=0, data=[46, 95]),
   midi.NoteOffEvent(tick=360, channel=0, data=[46, 80]),
   midi.NoteOnEvent(tick=0, channel=0, data=[42, 95]),
   midi.NoteOffEvent(tick=240, channel=0, data=[42, 80]),
   midi.NoteOnEvent(tick=0, channel=0, data=[41, 95]),
   midi.NoteOffEvent(tick=360, channel=0, data=[41, 80]),
   midi.NoteOnEvent(tick=0, channel=0, data=[49, 95]),
   midi.NoteOffEvent(tick=360, channel=0, data=[49, 80]),
   midi.NoteOnEvent(tick=0, channel=0, data=[41, 95]),
   midi.NoteOffEvent(tick=240, channel=0, data=[41, 80]),
   midi.NoteOnEvent(tick=0, channel=0, data=[42, 95]),
   midi.NoteOffEvent(tick=360, channel=0, data=[42, 80]),
   midi.NoteOnEvent(tick=0, channel=0, data=[46, 95]),
   midi.NoteOffEvent(tick=360, channel=0, data=[46, 80]),
   midi.NoteOnEvent(tick=0, channel=0, data=[42, 95]),
   midi.NoteOffEvent(tick=240, channel=0, data=[42, 80]),
   midi.NoteOnEvent(tick=0, channel=0, data=[44, 95]),
   midi.NoteOffEvent(tick=360, channel=0, data=[44, 80]),
   midi.NoteOnEvent(tick=0, channel=0, data=[51, 95]),
   midi.NoteOffEvent(tick=360, channel=0, data=[51, 80]),
   midi.NoteOnEvent(tick=0, channel=0, data=[42, 95]),
   midi.NoteOffEvent(tick=80, channel=0, data=[42, 80]),
   midi.NoteOnEvent(tick=0, channel=0, data=[44, 76]),
   midi.NoteOffEvent(tick=80, channel=0, data=[44, 80]),
   midi.NoteOnEvent(tick=0, channel=0, data=[42, 76]),
   midi.NoteOffEvent(tick=80, channel=0, data=[42, 80]),
   midi.NoteOnEvent(tick=0, channel=0, data=[39, 95]),
   midi.NoteOffEvent(tick=360, channel=0, data=[39, 80]),
   midi.NoteOnEvent(tick=0, channel=0, data=[46, 95]),
   midi.NoteOffEvent(tick=360, channel=0, data=[46, 80]),
   midi.NoteOnEvent(tick=0, channel=0, data=[42, 95]),
   midi.NoteOffEvent(tick=240, channel=0, data=[42, 80]),
   midi.NoteOnEvent(tick=0, channel=0, data=[41, 95]),
   midi.NoteOffEvent(tick=360, channel=0, data=[41, 80]),
   midi.NoteOnEvent(tick=0, channel=0, data=[49, 95]),
   midi.NoteOffEvent(tick=360, channel=0, data=[49, 80]),
   midi.NoteOnEvent(tick=0, channel=0, data=[41, 95]),
   midi.NoteOffEvent(tick=240, channel=0, data=[41, 80]),
   midi.NoteOnEvent(tick=0, channel=0, data=[42, 95]),
   midi.NoteOffEvent(tick=360, channel=0, data=[42, 80]),
   midi.NoteOnEvent(tick=0, channel=0, data=[46, 95]),
   midi.NoteOffEvent(tick=360, channel=0, data=[46, 80]),
   midi.NoteOnEvent(tick=0, channel=0, data=[42, 95]),
   midi.NoteOffEvent(tick=240, channel=0, data=[42, 80]),
   midi.NoteOnEvent(tick=0, channel=0, data=[51, 95]),
   midi.NoteOffEvent(tick=480, channel=0, data=[51, 80]),
   midi.NoteOnEvent(tick=0, channel=1, data=[63, 95]),
   midi.PitchWheelEvent(tick=240, channel=1, data=[0, 56]),
   midi.PitchWheelEvent(tick=30, channel=1, data=[0, 48]),
   midi.PitchWheelEvent(tick=30, channel=1, data=[0, 40]),
   midi.PitchWheelEvent(tick=30, channel=1, data=[0, 32]),
   midi.PitchWheelEvent(tick=30, channel=1, data=[0, 24]),
   midi.PitchWheelEvent(tick=30, channel=1, data=[0, 16]),
   midi.PitchWheelEvent(tick=30, channel=1, data=[0, 8]),
   midi.PitchWheelEvent(tick=30, channel=1, data=[0, 0]),
   midi.NoteOffEvent(tick=30, channel=1, data=[63, 80]),
   midi.PitchWheelEvent(tick=0, channel=1, data=[0, 64]),
   midi.NoteOnEvent(tick=0, channel=0, data=[39, 95]),
   midi.NoteOffEvent(tick=360, channel=0, data=[39, 80]),
   midi.NoteOnEvent(tick=0, channel=0, data=[46, 95]),
   midi.NoteOffEvent(tick=360, channel=0, data=[46, 80]),
   midi.NoteOnEvent(tick=0, channel=0, data=[42, 95]),
   midi.NoteOffEvent(tick=240, channel=0, data=[42, 80]),
   midi.NoteOnEvent(tick=0, channel=0, data=[41, 95]),
   midi.NoteOffEvent(tick=360, channel=0, data=[41, 80]),
   midi.NoteOnEvent(tick=0, channel=0, data=[49, 95]),
   midi.NoteOffEvent(tick=360, channel=0, data=[49, 80]),
   midi.NoteOnEvent(tick=0, channel=0, data=[41, 95]),
   midi.NoteOffEvent(tick=240, channel=0, data=[41, 80]),
   midi.NoteOnEvent(tick=0, channel=0, data=[42, 95]),
   midi.NoteOffEvent(tick=360, channel=0, data=[42, 80]),
   midi.NoteOnEvent(tick=0, channel=0, data=[46, 95]),
   midi.NoteOffEvent(tick=360, channel=0, data=[46, 80]),
   midi.NoteOnEvent(tick=0, channel=0, data=[42, 95]),
   midi.NoteOffEvent(tick=240, channel=0, data=[42, 80]),
   midi.NoteOnEvent(tick=0, channel=0, data=[44, 95]),
   midi.NoteOffEvent(tick=360, channel=0, data=[44, 80]),
   midi.NoteOnEvent(tick=0, channel=0, data=[51, 95]),
   midi.NoteOffEvent(tick=360, channel=0, data=[51, 80]),
   midi.NoteOnEvent(tick=0, channel=0, data=[42, 95]),
   midi.NoteOffEvent(tick=80, channel=0, data=[42, 80]),
   midi.NoteOnEvent(tick=0, channel=0, data=[44, 76]),
   midi.NoteOffEvent(tick=80, channel=0, data=[44, 80]),
   midi.NoteOnEvent(tick=0, channel=0, data=[42, 76]),
   midi.NoteOffEvent(tick=80, channel=0, data=[42, 80]),
   midi.NoteOnEvent(tick=0, channel=0, data=[39, 95]),
   midi.NoteOffEvent(tick=360, channel=0, data=[39, 80]),
   midi.NoteOnEvent(tick=0, channel=0, data=[46, 95]),
   midi.NoteOffEvent(tick=360, channel=0, data=[46, 80]),
   midi.NoteOnEvent(tick=0, channel=0, data=[42, 95]),
   midi.NoteOffEvent(tick=240, channel=0, data=[42, 80]),
   midi.NoteOnEvent(tick=0, channel=0, data=[41, 95]),
   midi.NoteOffEvent(tick=360, channel=0, data=[41, 80]),
   midi.NoteOnEvent(tick=0, channel=0, data=[49, 95]),
   midi.NoteOffEvent(tick=360, channel=0, data=[49, 80]),
   midi.NoteOnEvent(tick=0, channel=0, data=[41, 95]),
   midi.NoteOffEvent(tick=240, channel=0, data=[41, 80]),
   midi.NoteOnEvent(tick=0, channel=0, data=[51, 95]),
   midi.NoteOffEvent(tick=120, channel=0, data=[51, 80]),
   midi.NoteOnEvent(tick=0, channel=0, data=[49, 95]),
   midi.NoteOffEvent(tick=120, channel=0, data=[49, 80]),
   midi.NoteOnEvent(tick=0, channel=0, data=[47, 95]),
   midi.NoteOffEvent(tick=120, channel=0, data=[47, 80]),
   midi.NoteOnEvent(tick=0, channel=0, data=[46, 95]),
   midi.NoteOffEvent(tick=120, channel=0, data=[46, 80]),
   midi.NoteOnEvent(tick=0, channel=0, data=[44, 95]),
   midi.NoteOffEvent(tick=120, channel=0, data=[44, 80]),
   midi.NoteOnEvent(tick=0, channel=0, data=[51, 95]),
   midi.NoteOffEvent(tick=120, channel=0, data=[51, 80]),
   midi.NoteOnEvent(tick=0, channel=0, data=[49, 95]),
   midi.NoteOffEvent(tick=120, channel=0, data=[49, 80]),
   midi.NoteOnEvent(tick=0, channel=0, data=[47, 95]),
   midi.NoteOffEvent(tick=120, channel=0, data=[47, 80]),
   midi.NoteOnEvent(tick=0, channel=0, data=[46, 95]),
   midi.NoteOffEvent(tick=120, channel=0, data=[46, 80]),
   midi.NoteOnEvent(tick=0, channel=0, data=[44, 95]),
   midi.NoteOffEvent(tick=120, channel=0, data=[44, 80]),
   midi.NoteOnEvent(tick=0, channel=0, data=[51, 95]),
   midi.NoteOffEvent(tick=120, channel=0, data=[51, 80]),
   midi.NoteOnEvent(tick=0, channel=0, data=[49, 95]),
   midi.NoteOffEvent(tick=120, channel=0, data=[49, 80]),
   midi.NoteOnEvent(tick=0, channel=0, data=[47, 95]),
   midi.NoteOffEvent(tick=120, channel=0, data=[47, 80]),
   midi.NoteOnEvent(tick=0, channel=0, data=[46, 95]),
   midi.NoteOffEvent(tick=120, channel=0, data=[46, 80]),
   midi.NoteOnEvent(tick=0, channel=0, data=[44, 95]),
   midi.NoteOffEvent(tick=120, channel=0, data=[44, 80]),
   midi.NoteOnEvent(tick=0, channel=0, data=[42, 95]),
   midi.NoteOffEvent(tick=120, channel=0, data=[42, 80]),
   midi.NoteOnEvent(tick=0, channel=0, data=[54, 95]),
   midi.NoteOnEvent(tick=0, channel=0, data=[47, 95]),
   midi.NoteOffEvent(tick=240, channel=0, data=[54, 80]),
   midi.NoteOffEvent(tick=0, channel=0, data=[47, 80]),
   midi.NoteOnEvent(tick=0, channel=0, data=[47, 95]),
   midi.NoteOffEvent(tick=240, channel=0, data=[47, 80]),
   midi.NoteOnEvent(tick=0, channel=0, data=[47, 95]),
   midi.NoteOffEvent(tick=240, channel=0, data=[47, 80]),
   midi.NoteOnEvent(tick=0, channel=0, data=[47, 95]),
   midi.NoteOffEvent(tick=240, channel=0, data=[47, 80]),
   midi.NoteOnEvent(tick=0, channel=0, data=[51, 95]),
   midi.NoteOnEvent(tick=0, channel=0, data=[44, 95]),
   midi.NoteOffEvent(tick=480, channel=0, data=[51, 80]),
   midi.NoteOffEvent(tick=0, channel=0, data=[44, 80]),
   midi.NoteOnEvent(tick=0, channel=0, data=[53, 95]),
   midi.NoteOnEvent(tick=0, channel=0, data=[46, 95]),
   midi.NoteOffEvent(tick=480, channel=0, data=[53, 80]),
   midi.NoteOffEvent(tick=0, channel=0, data=[46, 80]),
   midi.NoteOnEvent(tick=0, channel=0, data=[51, 95]),
   midi.NoteOnEvent(tick=0, channel=0, data=[44, 95]),
   midi.NoteOffEvent(tick=1680, channel=0, data=[51, 80]),
   midi.NoteOffEvent(tick=0, channel=0, data=[44, 80]),
   midi.NoteOnEvent(tick=0, channel=0, data=[44, 95]),
   midi.NoteOnEvent(tick=0, channel=0, data=[39, 95]),
   midi.NoteOffEvent(tick=20, channel=0, data=[44, 80]),
   midi.NoteOffEvent(tick=0, channel=0, data=[39, 80]),
   midi.NoteOnEvent(tick=100, channel=0, data=[44, 95]),
   midi.NoteOnEvent(tick=0, channel=0, data=[39, 95]),
   midi.NoteOffEvent(tick=20, channel=0, data=[44, 80]),
   midi.NoteOffEvent(tick=0, channel=0, data=[39, 80]),
   midi.NoteOnEvent(tick=100, channel=0, data=[47, 95]),
   midi.NoteOnEvent(tick=0, channel=0, data=[40, 95]),
   midi.NoteOffEvent(tick=960, channel=0, data=[47, 80]),
   midi.NoteOffEvent(tick=0, channel=0, data=[40, 80]),
   midi.NoteOnEvent(tick=0, channel=0, data=[49, 95]),
   midi.NoteOnEvent(tick=0, channel=0, data=[42, 95]),
   midi.NoteOffEvent(tick=720, channel=0, data=[49, 80]),
   midi.NoteOffEvent(tick=0, channel=0, data=[42, 80]),
   midi.NoteOnEvent(tick=0, channel=0, data=[44, 95]),
   midi.NoteOnEvent(tick=0, channel=0, data=[39, 95]),
   midi.NoteOffEvent(tick=20, channel=0, data=[44, 80]),
   midi.NoteOffEvent(tick=0, channel=0, data=[39, 80]),
   midi.NoteOnEvent(tick=100, channel=0, data=[44, 95]),
   midi.NoteOnEvent(tick=0, channel=0, data=[39, 95]),
   midi.NoteOffEvent(tick=20, channel=0, data=[44, 80]),
   midi.NoteOffEvent(tick=0, channel=0, data=[39, 80]),
   midi.NoteOnEvent(tick=100, channel=0, data=[51, 95]),
   midi.NoteOnEvent(tick=0, channel=0, data=[44, 95]),
   midi.NoteOffEvent(tick=1680, channel=0, data=[51, 80]),
   midi.NoteOffEvent(tick=0, channel=0, data=[44, 80]),
   midi.NoteOnEvent(tick=0, channel=0, data=[44, 95]),
   midi.NoteOnEvent(tick=0, channel=0, data=[39, 95]),
   midi.NoteOffEvent(tick=20, channel=0, data=[44, 80]),
   midi.NoteOffEvent(tick=0, channel=0, data=[39, 80]),
   midi.NoteOnEvent(tick=100, channel=0, data=[44, 95]),
   midi.NoteOnEvent(tick=0, channel=0, data=[39, 95]),
   midi.NoteOffEvent(tick=20, channel=0, data=[44, 80]),
   midi.NoteOffEvent(tick=0, channel=0, data=[39, 80]),
   midi.NoteOnEvent(tick=100, channel=0, data=[47, 95]),
   midi.NoteOnEvent(tick=0, channel=0, data=[40, 95]),
   midi.NoteOffEvent(tick=960, channel=0, data=[47, 80]),
   midi.NoteOffEvent(tick=0, channel=0, data=[40, 80]),
   midi.NoteOnEvent(tick=0, channel=0, data=[49, 95]),
   midi.NoteOnEvent(tick=0, channel=0, data=[42, 95]),
   midi.NoteOffEvent(tick=720, channel=0, data=[49, 80]),
   midi.NoteOffEvent(tick=0, channel=0, data=[42, 80]),
   midi.NoteOnEvent(tick=0, channel=0, data=[44, 95]),
   midi.NoteOnEvent(tick=0, channel=0, data=[39, 95]),
   midi.NoteOffEvent(tick=20, channel=0, data=[44, 80]),
   midi.NoteOffEvent(tick=0, channel=0, data=[39, 80]),
   midi.NoteOnEvent(tick=100, channel=0, data=[44, 95]),
   midi.NoteOnEvent(tick=0, channel=0, data=[39, 95]),
   midi.NoteOffEvent(tick=20, channel=0, data=[44, 80]),
   midi.NoteOffEvent(tick=0, channel=0, data=[39, 80]),
   midi.NoteOnEvent(tick=100, channel=0, data=[51, 95]),
   midi.NoteOnEvent(tick=0, channel=0, data=[44, 95]),
   midi.NoteOffEvent(tick=1680, channel=0, data=[51, 80]),
   midi.NoteOffEvent(tick=0, channel=0, data=[44, 80]),
   midi.NoteOnEvent(tick=0, channel=0, data=[44, 95]),
   midi.NoteOnEvent(tick=0, channel=0, data=[39, 95]),
   midi.NoteOffEvent(tick=20, channel=0, data=[44, 80]),
   midi.NoteOffEvent(tick=0, channel=0, data=[39, 80]),
   midi.NoteOnEvent(tick=100, channel=0, data=[44, 95]),
   midi.NoteOnEvent(tick=0, channel=0, data=[39, 95]),
   midi.NoteOffEvent(tick=20, channel=0, data=[44, 80]),
   midi.NoteOffEvent(tick=0, channel=0, data=[39, 80]),
   midi.NoteOnEvent(tick=100, channel=0, data=[47, 95]),
   midi.NoteOnEvent(tick=0, channel=0, data=[40, 95]),
   midi.NoteOffEvent(tick=960, channel=0, data=[47, 80]),
   midi.NoteOffEvent(tick=0, channel=0, data=[40, 80]),
   midi.NoteOnEvent(tick=0, channel=0, data=[49, 95]),
   midi.NoteOnEvent(tick=0, channel=0, data=[42, 95]),
   midi.NoteOffEvent(tick=720, channel=0, data=[49, 80]),
   midi.NoteOffEvent(tick=0, channel=0, data=[42, 80]),
   midi.NoteOnEvent(tick=0, channel=0, data=[44, 95]),
   midi.NoteOnEvent(tick=0, channel=0, data=[39, 95]),
   midi.NoteOffEvent(tick=20, channel=0, data=[44, 80]),
   midi.NoteOffEvent(tick=0, channel=0, data=[39, 80]),
   midi.NoteOnEvent(tick=100, channel=0, data=[44, 95]),
   midi.NoteOnEvent(tick=0, channel=0, data=[39, 95]),
   midi.NoteOffEvent(tick=20, channel=0, data=[44, 80]),
   midi.NoteOffEvent(tick=0, channel=0, data=[39, 80]),
   midi.NoteOnEvent(tick=100, channel=0, data=[44, 95]),
   midi.NoteOffEvent(tick=360, channel=0, data=[44, 80]),
   midi.NoteOnEvent(tick=0, channel=0, data=[51, 95]),
   midi.NoteOffEvent(tick=360, channel=0, data=[51, 80]),
   midi.NoteOnEvent(tick=0, channel=0, data=[58, 76]),
   midi.NoteOffEvent(tick=240, channel=0, data=[58, 80]),
   midi.NoteOnEvent(tick=0, channel=0, data=[59, 95]),
   midi.NoteOffEvent(tick=360, channel=0, data=[59, 80]),
   midi.NoteOnEvent(tick=0, channel=0, data=[58, 95]),
   midi.NoteOffEvent(tick=360, channel=0, data=[58, 80]),
   midi.NoteOnEvent(tick=0, channel=0, data=[54, 95]),
   midi.NoteOffEvent(tick=240, channel=0, data=[54, 80]),
   midi.NoteOnEvent(tick=0, channel=0, data=[52, 95]),
   midi.NoteOffEvent(tick=360, channel=0, data=[52, 80]),
   midi.NoteOnEvent(tick=0, channel=0, data=[51, 95]),
   midi.NoteOffEvent(tick=360, channel=0, data=[51, 80]),
   midi.NoteOnEvent(tick=0, channel=0, data=[47, 95]),
   midi.NoteOffEvent(tick=240, channel=0, data=[47, 80]),
   midi.NoteOnEvent(tick=0, channel=0, data=[49, 95]),
   midi.NoteOffEvent(tick=960, channel=0, data=[49, 80]),
   midi.NoteOnEvent(tick=0, channel=0, data=[49, 95]),
   midi.NoteOffEvent(tick=120, channel=0, data=[49, 80]),
   midi.NoteOnEvent(tick=0, channel=0, data=[51, 76]),
   midi.NoteOffEvent(tick=120, channel=0, data=[51, 80]),
   midi.NoteOnEvent(tick=0, channel=0, data=[51, 95]),
   midi.NoteOffEvent(tick=120, channel=0, data=[51, 80]),
   midi.NoteOnEvent(tick=0, channel=0, data=[49, 95]),
   midi.NoteOffEvent(tick=120, channel=0, data=[49, 80]),
   midi.NoteOnEvent(tick=0, channel=0, data=[51, 95]),
   midi.NoteOffEvent(tick=120, channel=0, data=[51, 80]),
   midi.NoteOnEvent(tick=0, channel=0, data=[52, 95]),
   midi.NoteOffEvent(tick=120, channel=0, data=[52, 80]),
   midi.NoteOnEvent(tick=0, channel=0, data=[51, 95]),
   midi.NoteOffEvent(tick=480, channel=0, data=[51, 80]),
   midi.NoteOnEvent(tick=0, channel=0, data=[51, 95]),
   midi.NoteOffEvent(tick=120, channel=0, data=[51, 80]),
   midi.NoteOnEvent(tick=0, channel=0, data=[49, 95]),
   midi.NoteOffEvent(tick=120, channel=0, data=[49, 80]),
   midi.NoteOnEvent(tick=0, channel=0, data=[46, 95]),
   midi.NoteOffEvent(tick=120, channel=0, data=[46, 80]),
   midi.NoteOnEvent(tick=0, channel=0, data=[45, 95]),
   midi.NoteOffEvent(tick=120, channel=0, data=[45, 80]),
   midi.NoteOnEvent(tick=0, channel=0, data=[44, 95]),
   midi.NoteOffEvent(tick=120, channel=0, data=[44, 80]),
   midi.NoteOnEvent(tick=0, channel=0, data=[42, 95]),
   midi.NoteOffEvent(tick=120, channel=0, data=[42, 80]),
   midi.NoteOnEvent(tick=0, channel=0, data=[42, 95]),
   midi.NoteOffEvent(tick=120, channel=0, data=[42, 80]),
   midi.NoteOnEvent(tick=0, channel=0, data=[44, 76]),
   midi.NoteOffEvent(tick=120, channel=0, data=[44, 80]),
   midi.NoteOnEvent(tick=0, channel=0, data=[44, 95]),
   midi.NoteOffEvent(tick=120, channel=0, data=[44, 80]),
   midi.NoteOnEvent(tick=0, channel=0, data=[42, 95]),
   midi.NoteOffEvent(tick=120, channel=0, data=[42, 80]),
   midi.NoteOnEvent(tick=0, channel=0, data=[44, 95]),
   midi.NoteOffEvent(tick=120, channel=0, data=[44, 80]),
   midi.NoteOnEvent(tick=0, channel=0, data=[45, 95]),
   midi.NoteOffEvent(tick=120, channel=0, data=[45, 80]),
   midi.NoteOnEvent(tick=0, channel=0, data=[44, 95]),
   midi.NoteOffEvent(tick=480, channel=0, data=[44, 80]),
   midi.NoteOnEvent(tick=0, channel=0, data=[39, 95]),
   midi.NoteOffEvent(tick=20, channel=0, data=[39, 80]),
   midi.NoteOnEvent(tick=100, channel=0, data=[39, 95]),
   midi.NoteOffEvent(tick=20, channel=0, data=[39, 80]),
   midi.NoteOnEvent(tick=100, channel=0, data=[39, 95]),
   midi.NoteOffEvent(tick=20, channel=0, data=[39, 80]),
   midi.NoteOnEvent(tick=100, channel=0, data=[49, 95]),
   midi.NoteOnEvent(tick=0, channel=0, data=[42, 95]),
   midi.NoteOffEvent(tick=360, channel=0, data=[49, 80]),
   midi.NoteOffEvent(tick=0, channel=0, data=[42, 80]),
   midi.NoteOnEvent(tick=0, channel=0, data=[49, 95]),
   midi.NoteOffEvent(tick=120, channel=0, data=[49, 80]),
   midi.NoteOnEvent(tick=0, channel=0, data=[51, 76]),
   midi.NoteOffEvent(tick=120, channel=0, data=[51, 80]),
   midi.NoteOnEvent(tick=0, channel=0, data=[51, 95]),
   midi.NoteOffEvent(tick=120, channel=0, data=[51, 80]),
   midi.NoteOnEvent(tick=0, channel=0, data=[49, 95]),
   midi.NoteOffEvent(tick=120, channel=0, data=[49, 80]),
   midi.NoteOnEvent(tick=0, channel=0, data=[51, 95]),
   midi.NoteOffEvent(tick=120, channel=0, data=[51, 80]),
   midi.NoteOnEvent(tick=0, channel=0, data=[52, 95]),
   midi.NoteOffEvent(tick=120, channel=0, data=[52, 80]),
   midi.NoteOnEvent(tick=0, channel=0, data=[51, 95]),
   midi.NoteOffEvent(tick=480, channel=0, data=[51, 80]),
   midi.NoteOnEvent(tick=0, channel=0, data=[51, 95]),
   midi.NoteOffEvent(tick=120, channel=0, data=[51, 80]),
   midi.NoteOnEvent(tick=0, channel=0, data=[49, 95]),
   midi.NoteOffEvent(tick=120, channel=0, data=[49, 80]),
   midi.NoteOnEvent(tick=0, channel=0, data=[46, 95]),
   midi.NoteOffEvent(tick=120, channel=0, data=[46, 80]),
   midi.NoteOnEvent(tick=0, channel=0, data=[45, 95]),
   midi.NoteOffEvent(tick=120, channel=0, data=[45, 80]),
   midi.NoteOnEvent(tick=0, channel=0, data=[44, 95]),
   midi.NoteOffEvent(tick=120, channel=0, data=[44, 80]),
   midi.NoteOnEvent(tick=0, channel=0, data=[42, 95]),
   midi.NoteOffEvent(tick=120, channel=0, data=[42, 80]),
   midi.NoteOnEvent(tick=0, channel=0, data=[42, 95]),
   midi.NoteOffEvent(tick=120, channel=0, data=[42, 80]),
   midi.NoteOnEvent(tick=0, channel=0, data=[44, 76]),
   midi.NoteOffEvent(tick=120, channel=0, data=[44, 80]),
   midi.NoteOnEvent(tick=0, channel=0, data=[44, 95]),
   midi.NoteOffEvent(tick=120, channel=0, data=[44, 80]),
   midi.NoteOnEvent(tick=0, channel=0, data=[42, 95]),
   midi.NoteOffEvent(tick=120, channel=0, data=[42, 80]),
   midi.NoteOnEvent(tick=0, channel=0, data=[44, 95]),
   midi.NoteOffEvent(tick=120, channel=0, data=[44, 80]),
   midi.NoteOnEvent(tick=0, channel=0, data=[45, 95]),
   midi.NoteOffEvent(tick=120, channel=0, data=[45, 80]),
   midi.NoteOnEvent(tick=0, channel=0, data=[44, 95]),
   midi.NoteOffEvent(tick=480, channel=0, data=[44, 80]),
   midi.NoteOnEvent(tick=0, channel=0, data=[39, 95]),
   midi.NoteOffEvent(tick=20, channel=0, data=[39, 80]),
   midi.NoteOnEvent(tick=100, channel=0, data=[39, 95]),
   midi.NoteOffEvent(tick=20, channel=0, data=[39, 80]),
   midi.NoteOnEvent(tick=100, channel=0, data=[39, 95]),
   midi.NoteOffEvent(tick=20, channel=0, data=[39, 80]),
   midi.NoteOnEvent(tick=100, channel=0, data=[49, 95]),
   midi.NoteOnEvent(tick=0, channel=0, data=[42, 95]),
   midi.NoteOffEvent(tick=360, channel=0, data=[49, 80]),
   midi.NoteOffEvent(tick=0, channel=0, data=[42, 80]),
   midi.NoteOnEvent(tick=0, channel=0, data=[49, 95]),
   midi.NoteOffEvent(tick=120, channel=0, data=[49, 80]),
   midi.NoteOnEvent(tick=0, channel=0, data=[51, 76]),
   midi.NoteOffEvent(tick=120, channel=0, data=[51, 80]),
   midi.NoteOnEvent(tick=0, channel=0, data=[51, 95]),
   midi.NoteOffEvent(tick=120, channel=0, data=[51, 80]),
   midi.NoteOnEvent(tick=0, channel=0, data=[49, 95]),
   midi.NoteOffEvent(tick=120, channel=0, data=[49, 80]),
   midi.NoteOnEvent(tick=0, channel=0, data=[51, 95]),
   midi.NoteOffEvent(tick=120, channel=0, data=[51, 80]),
   midi.NoteOnEvent(tick=0, channel=0, data=[52, 95]),
   midi.NoteOffEvent(tick=120, channel=0, data=[52, 80]),
   midi.NoteOnEvent(tick=0, channel=0, data=[51, 95]),
   midi.NoteOffEvent(tick=480, channel=0, data=[51, 80]),
   midi.NoteOnEvent(tick=0, channel=0, data=[51, 95]),
   midi.NoteOffEvent(tick=120, channel=0, data=[51, 80]),
   midi.NoteOnEvent(tick=0, channel=0, data=[49, 95]),
   midi.NoteOffEvent(tick=120, channel=0, data=[49, 80]),
   midi.NoteOnEvent(tick=0, channel=0, data=[46, 95]),
   midi.NoteOffEvent(tick=120, channel=0, data=[46, 80]),
   midi.NoteOnEvent(tick=0, channel=0, data=[45, 95]),
   midi.NoteOffEvent(tick=120, channel=0, data=[45, 80]),
   midi.NoteOnEvent(tick=0, channel=0, data=[44, 95]),
   midi.NoteOffEvent(tick=120, channel=0, data=[44, 80]),
   midi.NoteOnEvent(tick=0, channel=0, data=[42, 95]),
   midi.NoteOffEvent(tick=120, channel=0, data=[42, 80]),
   midi.NoteOnEvent(tick=0, channel=0, data=[42, 95]),
   midi.NoteOffEvent(tick=120, channel=0, data=[42, 80]),
   midi.NoteOnEvent(tick=0, channel=0, data=[44, 76]),
   midi.NoteOffEvent(tick=120, channel=0, data=[44, 80]),
   midi.NoteOnEvent(tick=0, channel=0, data=[44, 95]),
   midi.NoteOffEvent(tick=120, channel=0, data=[44, 80]),
   midi.NoteOnEvent(tick=0, channel=0, data=[42, 95]),
   midi.NoteOffEvent(tick=120, channel=0, data=[42, 80]),
   midi.NoteOnEvent(tick=0, channel=0, data=[44, 95]),
   midi.NoteOffEvent(tick=120, channel=0, data=[44, 80]),
   midi.NoteOnEvent(tick=0, channel=0, data=[45, 95]),
   midi.NoteOffEvent(tick=120, channel=0, data=[45, 80]),
   midi.NoteOnEvent(tick=0, channel=0, data=[44, 95]),
   midi.NoteOffEvent(tick=480, channel=0, data=[44, 80]),
   midi.NoteOnEvent(tick=0, channel=0, data=[39, 95]),
   midi.NoteOffEvent(tick=20, channel=0, data=[39, 80]),
   midi.NoteOnEvent(tick=100, channel=0, data=[39, 95]),
   midi.NoteOffEvent(tick=20, channel=0, data=[39, 80]),
   midi.NoteOnEvent(tick=100, channel=0, data=[39, 95]),
   midi.NoteOffEvent(tick=20, channel=0, data=[39, 80]),
   midi.NoteOnEvent(tick=100, channel=0, data=[49, 95]),
   midi.NoteOnEvent(tick=0, channel=0, data=[42, 95]),
   midi.NoteOffEvent(tick=360, channel=0, data=[49, 80]),
   midi.NoteOffEvent(tick=0, channel=0, data=[42, 80]),
   midi.NoteOnEvent(tick=0, channel=0, data=[49, 95]),
   midi.NoteOffEvent(tick=120, channel=0, data=[49, 80]),
   midi.NoteOnEvent(tick=0, channel=0, data=[51, 76]),
   midi.NoteOffEvent(tick=120, channel=0, data=[51, 80]),
   midi.NoteOnEvent(tick=0, channel=0, data=[51, 95]),
   midi.NoteOffEvent(tick=120, channel=0, data=[51, 80]),
   midi.NoteOnEvent(tick=0, channel=0, data=[49, 95]),
   midi.NoteOffEvent(tick=120, channel=0, data=[49, 80]),
   midi.NoteOnEvent(tick=0, channel=0, data=[51, 95]),
   midi.NoteOffEvent(tick=120, channel=0, data=[51, 80]),
   midi.NoteOnEvent(tick=0, channel=0, data=[52, 95]),
   midi.NoteOffEvent(tick=120, channel=0, data=[52, 80]),
   midi.NoteOnEvent(tick=0, channel=0, data=[51, 95]),
   midi.NoteOffEvent(tick=480, channel=0, data=[51, 80]),
   midi.NoteOnEvent(tick=0, channel=0, data=[51, 95]),
   midi.NoteOffEvent(tick=120, channel=0, data=[51, 80]),
   midi.NoteOnEvent(tick=0, channel=0, data=[49, 95]),
   midi.NoteOffEvent(tick=120, channel=0, data=[49, 80]),
   midi.NoteOnEvent(tick=0, channel=0, data=[46, 95]),
   midi.NoteOffEvent(tick=120, channel=0, data=[46, 80]),
   midi.NoteOnEvent(tick=0, channel=0, data=[45, 95]),
   midi.NoteOffEvent(tick=120, channel=0, data=[45, 80]),
   midi.NoteOnEvent(tick=0, channel=0, data=[44, 95]),
   midi.NoteOffEvent(tick=120, channel=0, data=[44, 80]),
   midi.NoteOnEvent(tick=0, channel=0, data=[42, 95]),
   midi.NoteOffEvent(tick=120, channel=0, data=[42, 80]),
   midi.NoteOnEvent(tick=0, channel=0, data=[42, 95]),
   midi.NoteOffEvent(tick=120, channel=0, data=[42, 80]),
   midi.NoteOnEvent(tick=0, channel=0, data=[44, 76]),
   midi.NoteOffEvent(tick=120, channel=0, data=[44, 80]),
   midi.NoteOnEvent(tick=0, channel=0, data=[44, 95]),
   midi.NoteOffEvent(tick=120, channel=0, data=[44, 80]),
   midi.NoteOnEvent(tick=0, channel=0, data=[42, 95]),
   midi.NoteOffEvent(tick=120, channel=0, data=[42, 80]),
   midi.NoteOnEvent(tick=0, channel=0, data=[44, 95]),
   midi.NoteOffEvent(tick=120, channel=0, data=[44, 80]),
   midi.NoteOnEvent(tick=0, channel=0, data=[45, 95]),
   midi.NoteOffEvent(tick=120, channel=0, data=[45, 80]),
   midi.NoteOnEvent(tick=0, channel=0, data=[44, 95]),
   midi.NoteOffEvent(tick=480, channel=0, data=[44, 80]),
   midi.NoteOnEvent(tick=0, channel=0, data=[39, 95]),
   midi.NoteOffEvent(tick=20, channel=0, data=[39, 80]),
   midi.NoteOnEvent(tick=100, channel=0, data=[39, 95]),
   midi.NoteOffEvent(tick=20, channel=0, data=[39, 80]),
   midi.NoteOnEvent(tick=100, channel=0, data=[39, 95]),
   midi.NoteOffEvent(tick=20, channel=0, data=[39, 80]),
   midi.NoteOnEvent(tick=100, channel=0, data=[49, 95]),
   midi.NoteOnEvent(tick=0, channel=0, data=[42, 95]),
   midi.NoteOffEvent(tick=360, channel=0, data=[49, 80]),
   midi.NoteOffEvent(tick=0, channel=0, data=[42, 80]),
   midi.NoteOnEvent(tick=0, channel=0, data=[51, 95]),
   midi.NoteOffEvent(tick=120, channel=0, data=[51, 80]),
   midi.NoteOnEvent(tick=0, channel=0, data=[53, 76]),
   midi.NoteOffEvent(tick=120, channel=0, data=[53, 80]),
   midi.NoteOnEvent(tick=0, channel=0, data=[53, 95]),
   midi.NoteOffEvent(tick=120, channel=0, data=[53, 80]),
   midi.NoteOnEvent(tick=0, channel=0, data=[51, 95]),
   midi.NoteOffEvent(tick=120, channel=0, data=[51, 80]),
   midi.NoteOnEvent(tick=0, channel=0, data=[53, 95]),
   midi.NoteOffEvent(tick=120, channel=0, data=[53, 80]),
   midi.NoteOnEvent(tick=0, channel=0, data=[54, 95]),
   midi.NoteOffEvent(tick=120, channel=0, data=[54, 80]),
   midi.NoteOnEvent(tick=0, channel=0, data=[53, 95]),
   midi.NoteOffEvent(tick=480, channel=0, data=[53, 80]),
   midi.NoteOnEvent(tick=0, channel=0, data=[53, 95]),
   midi.NoteOffEvent(tick=120, channel=0, data=[53, 80]),
   midi.NoteOnEvent(tick=0, channel=0, data=[51, 95]),
   midi.NoteOffEvent(tick=120, channel=0, data=[51, 80]),
   midi.NoteOnEvent(tick=0, channel=0, data=[48, 95]),
   midi.NoteOffEvent(tick=120, channel=0, data=[48, 80]),
   midi.NoteOnEvent(tick=0, channel=0, data=[47, 95]),
   midi.NoteOffEvent(tick=120, channel=0, data=[47, 80]),
   midi.NoteOnEvent(tick=0, channel=0, data=[46, 95]),
   midi.NoteOffEvent(tick=120, channel=0, data=[46, 80]),
   midi.NoteOnEvent(tick=0, channel=0, data=[44, 95]),
   midi.NoteOffEvent(tick=120, channel=0, data=[44, 80]),
   midi.NoteOnEvent(tick=0, channel=0, data=[44, 95]),
   midi.NoteOffEvent(tick=120, channel=0, data=[44, 80]),
   midi.NoteOnEvent(tick=0, channel=0, data=[46, 76]),
   midi.NoteOffEvent(tick=120, channel=0, data=[46, 80]),
   midi.NoteOnEvent(tick=0, channel=0, data=[46, 95]),
   midi.NoteOffEvent(tick=120, channel=0, data=[46, 80]),
   midi.NoteOnEvent(tick=0, channel=0, data=[44, 95]),
   midi.NoteOffEvent(tick=120, channel=0, data=[44, 80]),
   midi.NoteOnEvent(tick=0, channel=0, data=[46, 95]),
   midi.NoteOffEvent(tick=120, channel=0, data=[46, 80]),
   midi.NoteOnEvent(tick=0, channel=0, data=[47, 95]),
   midi.NoteOffEvent(tick=120, channel=0, data=[47, 80]),
   midi.NoteOnEvent(tick=0, channel=0, data=[46, 95]),
   midi.NoteOffEvent(tick=480, channel=0, data=[46, 80]),
   midi.NoteOnEvent(tick=0, channel=0, data=[39, 95]),
   midi.NoteOffEvent(tick=20, channel=0, data=[39, 80]),
   midi.NoteOnEvent(tick=100, channel=0, data=[39, 95]),
   midi.NoteOffEvent(tick=20, channel=0, data=[39, 80]),
   midi.NoteOnEvent(tick=100, channel=0, data=[39, 95]),
   midi.NoteOffEvent(tick=20, channel=0, data=[39, 80]),
   midi.NoteOnEvent(tick=100, channel=0, data=[51, 95]),
   midi.NoteOnEvent(tick=0, channel=0, data=[44, 95]),
   midi.NoteOffEvent(tick=360, channel=0, data=[51, 80]),
   midi.NoteOffEvent(tick=0, channel=0, data=[44, 80]),
   midi.NoteOnEvent(tick=0, channel=0, data=[51, 95]),
   midi.NoteOffEvent(tick=120, channel=0, data=[51, 80]),
   midi.NoteOnEvent(tick=0, channel=0, data=[53, 76]),
   midi.NoteOffEvent(tick=120, channel=0, data=[53, 80]),
   midi.NoteOnEvent(tick=0, channel=0, data=[53, 95]),
   midi.NoteOffEvent(tick=120, channel=0, data=[53, 80]),
   midi.NoteOnEvent(tick=0, channel=0, data=[51, 95]),
   midi.NoteOffEvent(tick=120, channel=0, data=[51, 80]),
   midi.NoteOnEvent(tick=0, channel=0, data=[53, 95]),
   midi.NoteOffEvent(tick=120, channel=0, data=[53, 80]),
   midi.NoteOnEvent(tick=0, channel=0, data=[54, 95]),
   midi.NoteOffEvent(tick=120, channel=0, data=[54, 80]),
   midi.NoteOnEvent(tick=0, channel=0, data=[53, 95]),
   midi.NoteOffEvent(tick=480, channel=0, data=[53, 80]),
   midi.NoteOnEvent(tick=0, channel=0, data=[53, 95]),
   midi.NoteOffEvent(tick=120, channel=0, data=[53, 80]),
   midi.NoteOnEvent(tick=0, channel=0, data=[51, 95]),
   midi.NoteOffEvent(tick=120, channel=0, data=[51, 80]),
   midi.NoteOnEvent(tick=0, channel=0, data=[48, 95]),
   midi.NoteOffEvent(tick=120, channel=0, data=[48, 80]),
   midi.NoteOnEvent(tick=0, channel=0, data=[47, 95]),
   midi.NoteOffEvent(tick=120, channel=0, data=[47, 80]),
   midi.NoteOnEvent(tick=0, channel=0, data=[46, 95]),
   midi.NoteOffEvent(tick=120, channel=0, data=[46, 80]),
   midi.NoteOnEvent(tick=0, channel=0, data=[44, 95]),
   midi.NoteOffEvent(tick=120, channel=0, data=[44, 80]),
   midi.NoteOnEvent(tick=0, channel=0, data=[44, 95]),
   midi.NoteOffEvent(tick=120, channel=0, data=[44, 80]),
   midi.NoteOnEvent(tick=0, channel=0, data=[46, 76]),
   midi.NoteOffEvent(tick=120, channel=0, data=[46, 80]),
   midi.NoteOnEvent(tick=0, channel=0, data=[46, 95]),
   midi.NoteOffEvent(tick=120, channel=0, data=[46, 80]),
   midi.NoteOnEvent(tick=0, channel=0, data=[44, 95]),
   midi.NoteOffEvent(tick=120, channel=0, data=[44, 80]),
   midi.NoteOnEvent(tick=0, channel=0, data=[46, 95]),
   midi.NoteOffEvent(tick=120, channel=0, data=[46, 80]),
   midi.NoteOnEvent(tick=0, channel=0, data=[47, 95]),
   midi.NoteOffEvent(tick=120, channel=0, data=[47, 80]),
   midi.NoteOnEvent(tick=0, channel=0, data=[46, 95]),
   midi.NoteOffEvent(tick=480, channel=0, data=[46, 80]),
   midi.NoteOnEvent(tick=0, channel=0, data=[39, 95]),
   midi.NoteOffEvent(tick=20, channel=0, data=[39, 80]),
   midi.NoteOnEvent(tick=100, channel=0, data=[39, 95]),
   midi.NoteOffEvent(tick=20, channel=0, data=[39, 80]),
   midi.NoteOnEvent(tick=100, channel=0, data=[39, 95]),
   midi.NoteOffEvent(tick=20, channel=0, data=[39, 80]),
   midi.NoteOnEvent(tick=100, channel=0, data=[51, 95]),
   midi.NoteOnEvent(tick=0, channel=0, data=[44, 95]),
   midi.NoteOffEvent(tick=360, channel=0, data=[51, 80]),
   midi.NoteOffEvent(tick=0, channel=0, data=[44, 80]),
   midi.NoteOnEvent(tick=0, channel=0, data=[39, 95]),
   midi.NoteOffEvent(tick=360, channel=0, data=[39, 80]),
   midi.NoteOnEvent(tick=0, channel=0, data=[46, 95]),
   midi.NoteOffEvent(tick=360, channel=0, data=[46, 80]),
   midi.NoteOnEvent(tick=0, channel=0, data=[42, 95]),
   midi.NoteOffEvent(tick=240, channel=0, data=[42, 80]),
   midi.NoteOnEvent(tick=0, channel=0, data=[41, 95]),
   midi.NoteOffEvent(tick=360, channel=0, data=[41, 80]),
   midi.NoteOnEvent(tick=0, channel=0, data=[49, 95]),
   midi.NoteOffEvent(tick=360, channel=0, data=[49, 80]),
   midi.NoteOnEvent(tick=0, channel=0, data=[41, 95]),
   midi.NoteOffEvent(tick=240, channel=0, data=[41, 80]),
   midi.NoteOnEvent(tick=0, channel=0, data=[42, 95]),
   midi.NoteOffEvent(tick=360, channel=0, data=[42, 80]),
   midi.NoteOnEvent(tick=0, channel=0, data=[46, 95]),
   midi.NoteOffEvent(tick=360, channel=0, data=[46, 80]),
   midi.NoteOnEvent(tick=0, channel=0, data=[42, 95]),
   midi.NoteOffEvent(tick=240, channel=0, data=[42, 80]),
   midi.NoteOnEvent(tick=0, channel=0, data=[44, 95]),
   midi.NoteOffEvent(tick=360, channel=0, data=[44, 80]),
   midi.NoteOnEvent(tick=0, channel=0, data=[51, 95]),
   midi.NoteOffEvent(tick=360, channel=0, data=[51, 80]),
   midi.NoteOnEvent(tick=0, channel=0, data=[42, 95]),
   midi.NoteOffEvent(tick=80, channel=0, data=[42, 80]),
   midi.NoteOnEvent(tick=0, channel=0, data=[44, 76]),
   midi.NoteOffEvent(tick=80, channel=0, data=[44, 80]),
   midi.NoteOnEvent(tick=0, channel=0, data=[42, 76]),
   midi.NoteOffEvent(tick=80, channel=0, data=[42, 80]),
   midi.NoteOnEvent(tick=0, channel=0, data=[39, 95]),
   midi.NoteOffEvent(tick=360, channel=0, data=[39, 80]),
   midi.NoteOnEvent(tick=0, channel=0, data=[46, 95]),
   midi.NoteOffEvent(tick=360, channel=0, data=[46, 80]),
   midi.NoteOnEvent(tick=0, channel=0, data=[42, 95]),
   midi.NoteOffEvent(tick=240, channel=0, data=[42, 80]),
   midi.NoteOnEvent(tick=0, channel=0, data=[41, 95]),
   midi.NoteOffEvent(tick=360, channel=0, data=[41, 80]),
   midi.NoteOnEvent(tick=0, channel=0, data=[49, 95]),
   midi.NoteOffEvent(tick=360, channel=0, data=[49, 80]),
   midi.NoteOnEvent(tick=0, channel=0, data=[41, 95]),
   midi.NoteOffEvent(tick=240, channel=0, data=[41, 80]),
   midi.NoteOnEvent(tick=0, channel=0, data=[42, 95]),
   midi.NoteOffEvent(tick=360, channel=0, data=[42, 80]),
   midi.NoteOnEvent(tick=0, channel=0, data=[46, 95]),
   midi.NoteOffEvent(tick=360, channel=0, data=[46, 80]),
   midi.NoteOnEvent(tick=0, channel=0, data=[42, 95]),
   midi.NoteOffEvent(tick=240, channel=0, data=[42, 80]),
   midi.NoteOnEvent(tick=0, channel=0, data=[51, 95]),
   midi.NoteOffEvent(tick=480, channel=0, data=[51, 80]),
   midi.NoteOnEvent(tick=0, channel=1, data=[63, 95]),
   midi.PitchWheelEvent(tick=240, channel=1, data=[0, 56]),
   midi.PitchWheelEvent(tick=30, channel=1, data=[0, 48]),
   midi.PitchWheelEvent(tick=30, channel=1, data=[0, 40]),
   midi.PitchWheelEvent(tick=30, channel=1, data=[0, 32]),
   midi.PitchWheelEvent(tick=30, channel=1, data=[0, 24]),
   midi.PitchWheelEvent(tick=30, channel=1, data=[0, 16]),
   midi.PitchWheelEvent(tick=30, channel=1, data=[0, 8]),
   midi.PitchWheelEvent(tick=30, channel=1, data=[0, 0]),
   midi.NoteOffEvent(tick=30, channel=1, data=[63, 80]),
   midi.PitchWheelEvent(tick=0, channel=1, data=[0, 64]),
   midi.NoteOnEvent(tick=0, channel=0, data=[39, 95]),
   midi.NoteOffEvent(tick=360, channel=0, data=[39, 80]),
   midi.NoteOnEvent(tick=0, channel=0, data=[46, 95]),
   midi.NoteOffEvent(tick=360, channel=0, data=[46, 80]),
   midi.NoteOnEvent(tick=0, channel=0, data=[42, 95]),
   midi.NoteOffEvent(tick=240, channel=0, data=[42, 80]),
   midi.NoteOnEvent(tick=0, channel=0, data=[41, 95]),
   midi.NoteOffEvent(tick=360, channel=0, data=[41, 80]),
   midi.NoteOnEvent(tick=0, channel=0, data=[49, 95]),
   midi.NoteOffEvent(tick=360, channel=0, data=[49, 80]),
   midi.NoteOnEvent(tick=0, channel=0, data=[41, 95]),
   midi.NoteOffEvent(tick=240, channel=0, data=[41, 80]),
   midi.NoteOnEvent(tick=0, channel=0, data=[42, 95]),
   midi.NoteOffEvent(tick=360, channel=0, data=[42, 80]),
   midi.NoteOnEvent(tick=0, channel=0, data=[46, 95]),
   midi.NoteOffEvent(tick=360, channel=0, data=[46, 80]),
   midi.NoteOnEvent(tick=0, channel=0, data=[42, 95]),
   midi.NoteOffEvent(tick=240, channel=0, data=[42, 80]),
   midi.NoteOnEvent(tick=0, channel=0, data=[44, 95]),
   midi.NoteOffEvent(tick=360, channel=0, data=[44, 80]),
   midi.NoteOnEvent(tick=0, channel=0, data=[51, 95]),
   midi.NoteOffEvent(tick=360, channel=0, data=[51, 80]),
   midi.NoteOnEvent(tick=0, channel=0, data=[42, 95]),
   midi.NoteOffEvent(tick=80, channel=0, data=[42, 80]),
   midi.NoteOnEvent(tick=0, channel=0, data=[44, 76]),
   midi.NoteOffEvent(tick=80, channel=0, data=[44, 80]),
   midi.NoteOnEvent(tick=0, channel=0, data=[42, 76]),
   midi.NoteOffEvent(tick=80, channel=0, data=[42, 80]),
   midi.NoteOnEvent(tick=0, channel=0, data=[39, 95]),
   midi.NoteOffEvent(tick=360, channel=0, data=[39, 80]),
   midi.NoteOnEvent(tick=0, channel=0, data=[46, 95]),
   midi.NoteOffEvent(tick=360, channel=0, data=[46, 80]),
   midi.NoteOnEvent(tick=0, channel=0, data=[42, 95]),
   midi.NoteOffEvent(tick=240, channel=0, data=[42, 80]),
   midi.NoteOnEvent(tick=0, channel=0, data=[41, 95]),
   midi.NoteOffEvent(tick=360, channel=0, data=[41, 80]),
   midi.NoteOnEvent(tick=0, channel=0, data=[49, 95]),
   midi.NoteOffEvent(tick=360, channel=0, data=[49, 80]),
   midi.NoteOnEvent(tick=0, channel=0, data=[41, 95]),
   midi.NoteOffEvent(tick=240, channel=0, data=[41, 80]),
   midi.NoteOnEvent(tick=0, channel=0, data=[51, 95]),
   midi.NoteOffEvent(tick=120, channel=0, data=[51, 80]),
   midi.NoteOnEvent(tick=0, channel=0, data=[49, 95]),
   midi.NoteOffEvent(tick=120, channel=0, data=[49, 80]),
   midi.NoteOnEvent(tick=0, channel=0, data=[47, 95]),
   midi.NoteOffEvent(tick=120, channel=0, data=[47, 80]),
   midi.NoteOnEvent(tick=0, channel=0, data=[46, 95]),
   midi.NoteOffEvent(tick=120, channel=0, data=[46, 80]),
   midi.NoteOnEvent(tick=0, channel=0, data=[44, 95]),
   midi.NoteOffEvent(tick=120, channel=0, data=[44, 80]),
   midi.NoteOnEvent(tick=0, channel=0, data=[51, 95]),
   midi.NoteOffEvent(tick=120, channel=0, data=[51, 80]),
   midi.NoteOnEvent(tick=0, channel=0, data=[49, 95]),
   midi.NoteOffEvent(tick=120, channel=0, data=[49, 80]),
   midi.NoteOnEvent(tick=0, channel=0, data=[47, 95]),
   midi.NoteOffEvent(tick=120, channel=0, data=[47, 80]),
   midi.NoteOnEvent(tick=0, channel=0, data=[46, 95]),
   midi.NoteOffEvent(tick=120, channel=0, data=[46, 80]),
   midi.NoteOnEvent(tick=0, channel=0, data=[44, 95]),
   midi.NoteOffEvent(tick=120, channel=0, data=[44, 80]),
   midi.NoteOnEvent(tick=0, channel=0, data=[51, 95]),
   midi.NoteOffEvent(tick=120, channel=0, data=[51, 80]),
   midi.NoteOnEvent(tick=0, channel=0, data=[49, 95]),
   midi.NoteOffEvent(tick=120, channel=0, data=[49, 80]),
   midi.NoteOnEvent(tick=0, channel=0, data=[47, 95]),
   midi.NoteOffEvent(tick=120, channel=0, data=[47, 80]),
   midi.NoteOnEvent(tick=0, channel=0, data=[46, 95]),
   midi.NoteOffEvent(tick=120, channel=0, data=[46, 80]),
   midi.NoteOnEvent(tick=0, channel=0, data=[44, 95]),
   midi.NoteOffEvent(tick=120, channel=0, data=[44, 80]),
   midi.NoteOnEvent(tick=0, channel=0, data=[42, 95]),
   midi.NoteOffEvent(tick=120, channel=0, data=[42, 80]),
   midi.NoteOnEvent(tick=0, channel=0, data=[54, 95]),
   midi.NoteOnEvent(tick=0, channel=0, data=[47, 95]),
   midi.NoteOffEvent(tick=240, channel=0, data=[54, 80]),
   midi.NoteOffEvent(tick=0, channel=0, data=[47, 80]),
   midi.NoteOnEvent(tick=0, channel=0, data=[47, 95]),
   midi.NoteOffEvent(tick=240, channel=0, data=[47, 80]),
   midi.NoteOnEvent(tick=0, channel=0, data=[47, 95]),
   midi.NoteOffEvent(tick=240, channel=0, data=[47, 80]),
   midi.NoteOnEvent(tick=0, channel=0, data=[47, 95]),
   midi.NoteOffEvent(tick=240, channel=0, data=[47, 80]),
   midi.NoteOnEvent(tick=0, channel=0, data=[51, 95]),
   midi.NoteOnEvent(tick=0, channel=0, data=[44, 95]),
   midi.NoteOffEvent(tick=480, channel=0, data=[51, 80]),
   midi.NoteOffEvent(tick=0, channel=0, data=[44, 80]),
   midi.NoteOnEvent(tick=0, channel=0, data=[53, 95]),
   midi.NoteOnEvent(tick=0, channel=0, data=[46, 95]),
   midi.NoteOffEvent(tick=480, channel=0, data=[53, 80]),
   midi.NoteOffEvent(tick=0, channel=0, data=[46, 80]),
   midi.NoteOnEvent(tick=0, channel=0, data=[51, 95]),
   midi.NoteOnEvent(tick=0, channel=0, data=[44, 95]),
   midi.NoteOffEvent(tick=1680, channel=0, data=[51, 80]),
   midi.NoteOffEvent(tick=0, channel=0, data=[44, 80]),
   midi.NoteOnEvent(tick=0, channel=0, data=[44, 95]),
   midi.NoteOnEvent(tick=0, channel=0, data=[39, 95]),
   midi.NoteOffEvent(tick=20, channel=0, data=[44, 80]),
   midi.NoteOffEvent(tick=0, channel=0, data=[39, 80]),
   midi.NoteOnEvent(tick=100, channel=0, data=[44, 95]),
   midi.NoteOnEvent(tick=0, channel=0, data=[39, 95]),
   midi.NoteOffEvent(tick=20, channel=0, data=[44, 80]),
   midi.NoteOffEvent(tick=0, channel=0, data=[39, 80]),
   midi.NoteOnEvent(tick=100, channel=0, data=[47, 95]),
   midi.NoteOnEvent(tick=0, channel=0, data=[40, 95]),
   midi.NoteOffEvent(tick=960, channel=0, data=[47, 80]),
   midi.NoteOffEvent(tick=0, channel=0, data=[40, 80]),
   midi.NoteOnEvent(tick=0, channel=0, data=[49, 95]),
   midi.NoteOnEvent(tick=0, channel=0, data=[42, 95]),
   midi.NoteOffEvent(tick=720, channel=0, data=[49, 80]),
   midi.NoteOffEvent(tick=0, channel=0, data=[42, 80]),
   midi.NoteOnEvent(tick=0, channel=0, data=[44, 95]),
   midi.NoteOnEvent(tick=0, channel=0, data=[39, 95]),
   midi.NoteOffEvent(tick=20, channel=0, data=[44, 80]),
   midi.NoteOffEvent(tick=0, channel=0, data=[39, 80]),
   midi.NoteOnEvent(tick=100, channel=0, data=[44, 95]),
   midi.NoteOnEvent(tick=0, channel=0, data=[39, 95]),
   midi.NoteOffEvent(tick=20, channel=0, data=[44, 80]),
   midi.NoteOffEvent(tick=0, channel=0, data=[39, 80]),
   midi.NoteOnEvent(tick=100, channel=0, data=[51, 95]),
   midi.NoteOnEvent(tick=0, channel=0, data=[44, 95]),
   midi.NoteOffEvent(tick=1920, channel=0, data=[51, 80]),
   midi.NoteOffEvent(tick=0, channel=0, data=[44, 80]),
   midi.NoteOnEvent(tick=0, channel=0, data=[47, 95]),
   midi.NoteOnEvent(tick=0, channel=0, data=[40, 95]),
   midi.NoteOffEvent(tick=960, channel=0, data=[47, 80]),
   midi.NoteOffEvent(tick=0, channel=0, data=[40, 80]),
   midi.NoteOnEvent(tick=0, channel=0, data=[49, 95]),
   midi.NoteOnEvent(tick=0, channel=0, data=[42, 95]),
   midi.NoteOffEvent(tick=960, channel=0, data=[49, 80]),
   midi.NoteOffEvent(tick=0, channel=0, data=[42, 80]),
   midi.NoteOnEvent(tick=0, channel=0, data=[51, 95]),
   midi.NoteOnEvent(tick=0, channel=0, data=[44, 95]),
   midi.NoteOffEvent(tick=1920, channel=0, data=[51, 80]),
   midi.NoteOffEvent(tick=0, channel=0, data=[44, 80]),
   midi.NoteOnEvent(tick=0, channel=0, data=[47, 95]),
   midi.NoteOnEvent(tick=0, channel=0, data=[40, 95]),
   midi.NoteOffEvent(tick=960, channel=0, data=[47, 80]),
   midi.NoteOffEvent(tick=0, channel=0, data=[40, 80]),
   midi.NoteOnEvent(tick=0, channel=0, data=[49, 95]),
   midi.NoteOnEvent(tick=0, channel=0, data=[42, 95]),
   midi.NoteOffEvent(tick=960, channel=0, data=[49, 80]),
   midi.NoteOffEvent(tick=0, channel=0, data=[42, 80]),
   midi.NoteOnEvent(tick=0, channel=0, data=[44, 95]),
   midi.NoteOffEvent(tick=360, channel=0, data=[44, 80]),
   midi.NoteOnEvent(tick=0, channel=0, data=[51, 95]),
   midi.NoteOffEvent(tick=360, channel=0, data=[51, 80]),
   midi.NoteOnEvent(tick=0, channel=0, data=[58, 76]),
   midi.NoteOffEvent(tick=240, channel=0, data=[58, 80]),
   midi.NoteOnEvent(tick=0, channel=0, data=[59, 95]),
   midi.NoteOffEvent(tick=360, channel=0, data=[59, 80]),
   midi.NoteOnEvent(tick=0, channel=0, data=[58, 95]),
   midi.NoteOffEvent(tick=360, channel=0, data=[58, 80]),
   midi.NoteOnEvent(tick=0, channel=0, data=[54, 95]),
   midi.NoteOffEvent(tick=240, channel=0, data=[54, 80]),
   midi.NoteOnEvent(tick=0, channel=0, data=[44, 95]),
   midi.NoteOffEvent(tick=360, channel=0, data=[44, 80]),
   midi.NoteOnEvent(tick=0, channel=0, data=[52, 95]),
   midi.NoteOffEvent(tick=360, channel=0, data=[52, 80]),
   midi.NoteOnEvent(tick=0, channel=1, data=[59, 95]),
   midi.PitchWheelEvent(tick=80, channel=1, data=[0, 64]),
   midi.PitchWheelEvent(tick=80, channel=1, data=[0, 67]),
   midi.PitchWheelEvent(tick=80, channel=1, data=[0, 64]),
   midi.PitchWheelEvent(tick=0, channel=1, data=[0, 64]),
   midi.NoteOffEvent(tick=0, channel=1, data=[59, 80]),
   midi.NoteOnEvent(tick=0, channel=0, data=[44, 95]),
   midi.NoteOffEvent(tick=360, channel=0, data=[44, 80]),
   midi.NoteOnEvent(tick=0, channel=0, data=[53, 95]),
   midi.NoteOffEvent(tick=360, channel=0, data=[53, 80]),
   midi.NoteOnEvent(tick=0, channel=1, data=[59, 95]),
   midi.PitchWheelEvent(tick=80, channel=1, data=[0, 64]),
   midi.PitchWheelEvent(tick=80, channel=1, data=[0, 67]),
   midi.PitchWheelEvent(tick=80, channel=1, data=[0, 64]),
   midi.PitchWheelEvent(tick=0, channel=1, data=[0, 64]),
   midi.NoteOffEvent(tick=0, channel=1, data=[59, 80]),
   midi.NoteOnEvent(tick=0, channel=0, data=[51, 95]),
   midi.NoteOnEvent(tick=0, channel=0, data=[44, 95]),
   midi.NoteOffEvent(tick=1680, channel=0, data=[51, 80]),
   midi.NoteOffEvent(tick=0, channel=0, data=[44, 80]),
   midi.NoteOnEvent(tick=0, channel=0, data=[44, 95]),
   midi.NoteOnEvent(tick=0, channel=0, data=[39, 95]),
   midi.NoteOffEvent(tick=20, channel=0, data=[44, 80]),
   midi.NoteOffEvent(tick=0, channel=0, data=[39, 80]),
   midi.NoteOnEvent(tick=100, channel=0, data=[44, 95]),
   midi.NoteOnEvent(tick=0, channel=0, data=[39, 95]),
   midi.NoteOffEvent(tick=20, channel=0, data=[44, 80]),
   midi.NoteOffEvent(tick=0, channel=0, data=[39, 80]),
   midi.NoteOnEvent(tick=100, channel=0, data=[47, 95]),
   midi.NoteOnEvent(tick=0, channel=0, data=[40, 95]),
   midi.NoteOffEvent(tick=960, channel=0, data=[47, 80]),
   midi.NoteOffEvent(tick=0, channel=0, data=[40, 80]),
   midi.NoteOnEvent(tick=0, channel=0, data=[49, 95]),
   midi.NoteOnEvent(tick=0, channel=0, data=[42, 95]),
   midi.NoteOffEvent(tick=720, channel=0, data=[49, 80]),
   midi.NoteOffEvent(tick=0, channel=0, data=[42, 80]),
   midi.NoteOnEvent(tick=0, channel=0, data=[44, 95]),
   midi.NoteOnEvent(tick=0, channel=0, data=[39, 95]),
   midi.NoteOffEvent(tick=20, channel=0, data=[44, 80]),
   midi.NoteOffEvent(tick=0, channel=0, data=[39, 80]),
   midi.NoteOnEvent(tick=100, channel=0, data=[44, 95]),
   midi.NoteOnEvent(tick=0, channel=0, data=[39, 95]),
   midi.NoteOffEvent(tick=20, channel=0, data=[44, 80]),
   midi.NoteOffEvent(tick=0, channel=0, data=[39, 80]),
   midi.NoteOnEvent(tick=100, channel=0, data=[51, 95]),
   midi.NoteOnEvent(tick=0, channel=0, data=[44, 95]),
   midi.NoteOffEvent(tick=1920, channel=0, data=[51, 80]),
   midi.NoteOffEvent(tick=0, channel=0, data=[44, 80]),
   midi.NoteOnEvent(tick=0, channel=0, data=[47, 95]),
   midi.NoteOnEvent(tick=0, channel=0, data=[40, 95]),
   midi.NoteOffEvent(tick=960, channel=0, data=[47, 80]),
   midi.NoteOffEvent(tick=0, channel=0, data=[40, 80]),
   midi.NoteOnEvent(tick=0, channel=0, data=[49, 95]),
   midi.NoteOnEvent(tick=0, channel=0, data=[42, 95]),
   midi.NoteOffEvent(tick=960, channel=0, data=[49, 80]),
   midi.NoteOffEvent(tick=0, channel=0, data=[42, 80]),
   midi.NoteOnEvent(tick=0, channel=0, data=[51, 95]),
   midi.NoteOnEvent(tick=0, channel=0, data=[44, 95]),
   midi.NoteOffEvent(tick=1920, channel=0, data=[51, 80]),
   midi.NoteOffEvent(tick=0, channel=0, data=[44, 80]),
   midi.NoteOnEvent(tick=0, channel=0, data=[47, 95]),
   midi.NoteOnEvent(tick=0, channel=0, data=[40, 95]),
   midi.NoteOffEvent(tick=960, channel=0, data=[47, 80]),
   midi.NoteOffEvent(tick=0, channel=0, data=[40, 80]),
   midi.NoteOnEvent(tick=0, channel=0, data=[49, 95]),
   midi.NoteOnEvent(tick=0, channel=0, data=[42, 95]),
   midi.NoteOffEvent(tick=960, channel=0, data=[49, 80]),
   midi.NoteOffEvent(tick=0, channel=0, data=[42, 80]),
   midi.NoteOnEvent(tick=0, channel=0, data=[44, 95]),
   midi.NoteOffEvent(tick=360, channel=0, data=[44, 80]),
   midi.NoteOnEvent(tick=0, channel=0, data=[51, 95]),
   midi.NoteOffEvent(tick=360, channel=0, data=[51, 80]),
   midi.NoteOnEvent(tick=0, channel=0, data=[58, 95]),
   midi.NoteOffEvent(tick=240, channel=0, data=[58, 80]),
   midi.NoteOnEvent(tick=0, channel=0, data=[59, 95]),
   midi.NoteOffEvent(tick=360, channel=0, data=[59, 80]),
   midi.NoteOnEvent(tick=0, channel=0, data=[58, 95]),
   midi.NoteOffEvent(tick=360, channel=0, data=[58, 80]),
   midi.NoteOnEvent(tick=0, channel=0, data=[54, 95]),
   midi.NoteOffEvent(tick=240, channel=0, data=[54, 80]),
   midi.NoteOnEvent(tick=0, channel=0, data=[52, 95]),
   midi.NoteOffEvent(tick=360, channel=0, data=[52, 80]),
   midi.NoteOnEvent(tick=0, channel=0, data=[51, 95]),
   midi.NoteOffEvent(tick=360, channel=0, data=[51, 80]),
   midi.NoteOnEvent(tick=0, channel=0, data=[47, 95]),
   midi.NoteOffEvent(tick=240, channel=0, data=[47, 80]),
   midi.NoteOnEvent(tick=0, channel=0, data=[46, 95]),
   midi.NoteOffEvent(tick=360, channel=0, data=[46, 80]),
   midi.NoteOnEvent(tick=0, channel=0, data=[42, 95]),
   midi.NoteOffEvent(tick=360, channel=0, data=[42, 80]),
   midi.NoteOnEvent(tick=0, channel=0, data=[40, 95]),
   midi.NoteOffEvent(tick=240, channel=0, data=[40, 80]),
   midi.NoteOnEvent(tick=0, channel=0, data=[39, 95]),
   midi.NoteOffEvent(tick=240, channel=0, data=[39, 80]),
   midi.NoteOnEvent(tick=0, channel=0, data=[39, 95]),
   midi.NoteOffEvent(tick=240, channel=0, data=[39, 80]),
   midi.NoteOnEvent(tick=0, channel=1, data=[51, 95]),
   midi.PitchWheelEvent(tick=80, channel=1, data=[0, 64]),
   midi.PitchWheelEvent(tick=80, channel=1, data=[0, 67]),
   midi.PitchWheelEvent(tick=80, channel=1, data=[0, 64]),
   midi.PitchWheelEvent(tick=80, channel=1, data=[0, 67]),
   midi.PitchWheelEvent(tick=80, channel=1, data=[0, 64]),
   midi.PitchWheelEvent(tick=80, channel=1, data=[0, 67]),
   midi.PitchWheelEvent(tick=0, channel=1, data=[0, 64]),
   midi.NoteOffEvent(tick=0, channel=1, data=[51, 80]),
   midi.NoteOnEvent(tick=0, channel=0, data=[39, 95]),
   midi.NoteOffEvent(tick=240, channel=0, data=[39, 80]),
   midi.NoteOnEvent(tick=0, channel=0, data=[39, 95]),
   midi.NoteOffEvent(tick=240, channel=0, data=[39, 80]),
   midi.NoteOnEvent(tick=0, channel=0, data=[49, 95]),
   midi.NoteOffEvent(tick=120, channel=0, data=[49, 80]),
   midi.NoteOnEvent(tick=0, channel=0, data=[51, 76]),
   midi.NoteOffEvent(tick=120, channel=0, data=[51, 80]),
   midi.NoteOnEvent(tick=0, channel=0, data=[54, 95]),
   midi.NoteOffEvent(tick=240, channel=0, data=[54, 80]),
   midi.NoteOnEvent(tick=0, channel=0, data=[39, 95]),
   midi.NoteOffEvent(tick=240, channel=0, data=[39, 80]),
   midi.NoteOnEvent(tick=0, channel=0, data=[39, 95]),
   midi.NoteOffEvent(tick=240, channel=0, data=[39, 80]),
   midi.NoteOnEvent(tick=0, channel=1, data=[49, 95]),
   midi.PitchWheelEvent(tick=80, channel=1, data=[0, 64]),
   midi.PitchWheelEvent(tick=80, channel=1, data=[0, 67]),
   midi.PitchWheelEvent(tick=80, channel=1, data=[0, 64]),
   midi.PitchWheelEvent(tick=80, channel=1, data=[0, 67]),
   midi.PitchWheelEvent(tick=80, channel=1, data=[0, 64]),
   midi.PitchWheelEvent(tick=80, channel=1, data=[0, 67]),
   midi.PitchWheelEvent(tick=0, channel=1, data=[0, 64]),
   midi.NoteOffEvent(tick=0, channel=1, data=[49, 80]),
   midi.NoteOnEvent(tick=0, channel=0, data=[39, 95]),
   midi.NoteOffEvent(tick=240, channel=0, data=[39, 80]),
   midi.NoteOnEvent(tick=0, channel=0, data=[39, 95]),
   midi.NoteOffEvent(tick=240, channel=0, data=[39, 80]),
   midi.NoteOnEvent(tick=0, channel=0, data=[56, 95]),
   midi.NoteOffEvent(tick=120, channel=0, data=[56, 80]),
   midi.NoteOnEvent(tick=0, channel=0, data=[54, 76]),
   midi.NoteOffEvent(tick=120, channel=0, data=[54, 80]),
   midi.NoteOnEvent(tick=0, channel=0, data=[51, 95]),
   midi.NoteOffEvent(tick=240, channel=0, data=[51, 80]),
   midi.NoteOnEvent(tick=0, channel=0, data=[39, 95]),
   midi.NoteOffEvent(tick=240, channel=0, data=[39, 80]),
   midi.NoteOnEvent(tick=0, channel=0, data=[39, 95]),
   midi.NoteOffEvent(tick=240, channel=0, data=[39, 80]),
   midi.NoteOnEvent(tick=0, channel=1, data=[51, 95]),
   midi.PitchWheelEvent(tick=80, channel=1, data=[0, 64]),
   midi.PitchWheelEvent(tick=80, channel=1, data=[0, 67]),
   midi.PitchWheelEvent(tick=80, channel=1, data=[0, 64]),
   midi.PitchWheelEvent(tick=80, channel=1, data=[0, 67]),
   midi.PitchWheelEvent(tick=80, channel=1, data=[0, 64]),
   midi.PitchWheelEvent(tick=80, channel=1, data=[0, 67]),
   midi.PitchWheelEvent(tick=0, channel=1, data=[0, 64]),
   midi.NoteOffEvent(tick=0, channel=1, data=[51, 80]),
   midi.NoteOnEvent(tick=0, channel=0, data=[39, 95]),
   midi.NoteOffEvent(tick=240, channel=0, data=[39, 80]),
   midi.NoteOnEvent(tick=0, channel=0, data=[39, 95]),
   midi.NoteOffEvent(tick=240, channel=0, data=[39, 80]),
   midi.NoteOnEvent(tick=0, channel=0, data=[49, 95]),
   midi.NoteOffEvent(tick=120, channel=0, data=[49, 80]),
   midi.NoteOnEvent(tick=0, channel=0, data=[51, 76]),
   midi.NoteOffEvent(tick=120, channel=0, data=[51, 80]),
   midi.NoteOnEvent(tick=0, channel=0, data=[54, 95]),
   midi.NoteOffEvent(tick=240, channel=0, data=[54, 80]),
   midi.NoteOnEvent(tick=0, channel=0, data=[39, 95]),
   midi.NoteOffEvent(tick=240, channel=0, data=[39, 80]),
   midi.NoteOnEvent(tick=0, channel=0, data=[39, 95]),
   midi.NoteOffEvent(tick=240, channel=0, data=[39, 80]),
   midi.NoteOnEvent(tick=0, channel=1, data=[47, 95]),
   midi.PitchWheelEvent(tick=80, channel=1, data=[0, 64]),
   midi.PitchWheelEvent(tick=80, channel=1, data=[0, 67]),
   midi.PitchWheelEvent(tick=80, channel=1, data=[0, 64]),
   midi.PitchWheelEvent(tick=80, channel=1, data=[0, 67]),
   midi.PitchWheelEvent(tick=80, channel=1, data=[0, 64]),
   midi.PitchWheelEvent(tick=80, channel=1, data=[0, 67]),
   midi.PitchWheelEvent(tick=0, channel=1, data=[0, 64]),
   midi.NoteOffEvent(tick=0, channel=1, data=[47, 80]),
   midi.NoteOnEvent(tick=0, channel=0, data=[39, 95]),
   midi.NoteOffEvent(tick=240, channel=0, data=[39, 80]),
   midi.NoteOnEvent(tick=0, channel=0, data=[39, 95]),
   midi.NoteOffEvent(tick=240, channel=0, data=[39, 80]),
   midi.NoteOnEvent(tick=0, channel=0, data=[56, 95]),
   midi.NoteOffEvent(tick=120, channel=0, data=[56, 80]),
   midi.NoteOnEvent(tick=0, channel=0, data=[54, 76]),
   midi.NoteOffEvent(tick=120, channel=0, data=[54, 80]),
   midi.NoteOnEvent(tick=0, channel=0, data=[51, 95]),
   midi.NoteOffEvent(tick=240, channel=0, data=[51, 80]),
   midi.NoteOnEvent(tick=0, channel=0, data=[39, 95]),
   midi.NoteOffEvent(tick=240, channel=0, data=[39, 80]),
   midi.NoteOnEvent(tick=0, channel=0, data=[39, 95]),
   midi.NoteOffEvent(tick=240, channel=0, data=[39, 80]),
   midi.NoteOnEvent(tick=0, channel=1, data=[51, 95]),
   midi.PitchWheelEvent(tick=80, channel=1, data=[0, 64]),
   midi.PitchWheelEvent(tick=80, channel=1, data=[0, 67]),
   midi.PitchWheelEvent(tick=80, channel=1, data=[0, 64]),
   midi.PitchWheelEvent(tick=80, channel=1, data=[0, 67]),
   midi.PitchWheelEvent(tick=80, channel=1, data=[0, 64]),
   midi.PitchWheelEvent(tick=80, channel=1, data=[0, 67]),
   midi.PitchWheelEvent(tick=0, channel=1, data=[0, 64]),
   midi.NoteOffEvent(tick=0, channel=1, data=[51, 80]),
   midi.NoteOnEvent(tick=0, channel=0, data=[39, 95]),
   midi.NoteOffEvent(tick=240, channel=0, data=[39, 80]),
   midi.NoteOnEvent(tick=0, channel=0, data=[39, 95]),
   midi.NoteOffEvent(tick=240, channel=0, data=[39, 80]),
   midi.NoteOnEvent(tick=0, channel=0, data=[49, 95]),
   midi.NoteOffEvent(tick=120, channel=0, data=[49, 80]),
   midi.NoteOnEvent(tick=0, channel=0, data=[51, 76]),
   midi.NoteOffEvent(tick=120, channel=0, data=[51, 80]),
   midi.NoteOnEvent(tick=0, channel=0, data=[54, 95]),
   midi.NoteOffEvent(tick=240, channel=0, data=[54, 80]),
   midi.NoteOnEvent(tick=0, channel=0, data=[39, 95]),
   midi.NoteOffEvent(tick=240, channel=0, data=[39, 80]),
   midi.NoteOnEvent(tick=0, channel=0, data=[39, 95]),
   midi.NoteOffEvent(tick=240, channel=0, data=[39, 80]),
   midi.NoteOnEvent(tick=0, channel=1, data=[49, 95]),
   midi.PitchWheelEvent(tick=80, channel=1, data=[0, 64]),
   midi.PitchWheelEvent(tick=80, channel=1, data=[0, 67]),
   midi.PitchWheelEvent(tick=80, channel=1, data=[0, 64]),
   midi.PitchWheelEvent(tick=80, channel=1, data=[0, 67]),
   midi.PitchWheelEvent(tick=80, channel=1, data=[0, 64]),
   midi.PitchWheelEvent(tick=80, channel=1, data=[0, 67]),
   midi.PitchWheelEvent(tick=0, channel=1, data=[0, 64]),
   midi.NoteOffEvent(tick=0, channel=1, data=[49, 80]),
   midi.NoteOnEvent(tick=0, channel=0, data=[39, 95]),
   midi.NoteOffEvent(tick=240, channel=0, data=[39, 80]),
   midi.NoteOnEvent(tick=0, channel=0, data=[39, 95]),
   midi.NoteOffEvent(tick=240, channel=0, data=[39, 80]),
   midi.NoteOnEvent(tick=0, channel=0, data=[56, 95]),
   midi.NoteOffEvent(tick=120, channel=0, data=[56, 80]),
   midi.NoteOnEvent(tick=0, channel=0, data=[54, 76]),
   midi.NoteOffEvent(tick=120, channel=0, data=[54, 80]),
   midi.NoteOnEvent(tick=0, channel=0, data=[51, 95]),
   midi.NoteOffEvent(tick=240, channel=0, data=[51, 80]),
   midi.NoteOnEvent(tick=0, channel=0, data=[39, 95]),
   midi.NoteOffEvent(tick=240, channel=0, data=[39, 80]),
   midi.NoteOnEvent(tick=0, channel=0, data=[39, 95]),
   midi.NoteOffEvent(tick=240, channel=0, data=[39, 80]),
   midi.NoteOnEvent(tick=0, channel=1, data=[51, 95]),
   midi.PitchWheelEvent(tick=80, channel=1, data=[0, 64]),
   midi.PitchWheelEvent(tick=80, channel=1, data=[0, 67]),
   midi.PitchWheelEvent(tick=80, channel=1, data=[0, 64]),
   midi.PitchWheelEvent(tick=80, channel=1, data=[0, 67]),
   midi.PitchWheelEvent(tick=80, channel=1, data=[0, 64]),
   midi.PitchWheelEvent(tick=80, channel=1, data=[0, 67]),
   midi.PitchWheelEvent(tick=0, channel=1, data=[0, 64]),
   midi.NoteOffEvent(tick=0, channel=1, data=[51, 80]),
   midi.NoteOnEvent(tick=0, channel=0, data=[39, 95]),
   midi.NoteOffEvent(tick=240, channel=0, data=[39, 80]),
   midi.NoteOnEvent(tick=0, channel=0, data=[39, 95]),
   midi.NoteOffEvent(tick=240, channel=0, data=[39, 80]),
   midi.NoteOnEvent(tick=0, channel=0, data=[49, 95]),
   midi.NoteOffEvent(tick=120, channel=0, data=[49, 80]),
   midi.NoteOnEvent(tick=0, channel=0, data=[51, 76]),
   midi.NoteOffEvent(tick=120, channel=0, data=[51, 80]),
   midi.NoteOnEvent(tick=0, channel=0, data=[54, 95]),
   midi.NoteOffEvent(tick=240, channel=0, data=[54, 80]),
   midi.NoteOnEvent(tick=0, channel=0, data=[39, 95]),
   midi.NoteOffEvent(tick=240, channel=0, data=[39, 80]),
   midi.NoteOnEvent(tick=0, channel=0, data=[39, 95]),
   midi.NoteOffEvent(tick=240, channel=0, data=[39, 80]),
   midi.NoteOnEvent(tick=0, channel=1, data=[47, 95]),
   midi.PitchWheelEvent(tick=80, channel=1, data=[0, 64]),
   midi.PitchWheelEvent(tick=80, channel=1, data=[0, 67]),
   midi.PitchWheelEvent(tick=80, channel=1, data=[0, 64]),
   midi.PitchWheelEvent(tick=80, channel=1, data=[0, 67]),
   midi.PitchWheelEvent(tick=80, channel=1, data=[0, 64]),
   midi.PitchWheelEvent(tick=80, channel=1, data=[0, 67]),
   midi.PitchWheelEvent(tick=0, channel=1, data=[0, 64]),
   midi.NoteOffEvent(tick=0, channel=1, data=[47, 80]),
   midi.NoteOnEvent(tick=0, channel=0, data=[39, 95]),
   midi.NoteOffEvent(tick=240, channel=0, data=[39, 80]),
   midi.NoteOnEvent(tick=0, channel=0, data=[39, 95]),
   midi.NoteOffEvent(tick=240, channel=0, data=[39, 80]),
   midi.NoteOnEvent(tick=0, channel=0, data=[56, 95]),
   midi.NoteOffEvent(tick=120, channel=0, data=[56, 80]),
   midi.NoteOnEvent(tick=0, channel=0, data=[54, 76]),
   midi.NoteOffEvent(tick=120, channel=0, data=[54, 80]),
   midi.NoteOnEvent(tick=0, channel=0, data=[51, 95]),
   midi.NoteOffEvent(tick=240, channel=0, data=[51, 80]),
   midi.NoteOnEvent(tick=0, channel=0, data=[39, 95]),
   midi.NoteOffEvent(tick=240, channel=0, data=[39, 80]),
   midi.NoteOnEvent(tick=0, channel=0, data=[39, 95]),
   midi.NoteOffEvent(tick=240, channel=0, data=[39, 80]),
   midi.NoteOnEvent(tick=0, channel=1, data=[51, 95]),
   midi.PitchWheelEvent(tick=80, channel=1, data=[0, 64]),
   midi.PitchWheelEvent(tick=80, channel=1, data=[0, 67]),
   midi.PitchWheelEvent(tick=80, channel=1, data=[0, 64]),
   midi.PitchWheelEvent(tick=80, channel=1, data=[0, 67]),
   midi.PitchWheelEvent(tick=80, channel=1, data=[0, 64]),
   midi.PitchWheelEvent(tick=80, channel=1, data=[0, 67]),
   midi.PitchWheelEvent(tick=0, channel=1, data=[0, 64]),
   midi.NoteOffEvent(tick=0, channel=1, data=[51, 80]),
   midi.NoteOnEvent(tick=0, channel=0, data=[39, 95]),
   midi.NoteOffEvent(tick=240, channel=0, data=[39, 80]),
   midi.NoteOnEvent(tick=0, channel=0, data=[39, 95]),
   midi.NoteOffEvent(tick=240, channel=0, data=[39, 80]),
   midi.NoteOnEvent(tick=0, channel=0, data=[49, 95]),
   midi.NoteOffEvent(tick=120, channel=0, data=[49, 80]),
   midi.NoteOnEvent(tick=0, channel=0, data=[51, 76]),
   midi.NoteOffEvent(tick=120, channel=0, data=[51, 80]),
   midi.NoteOnEvent(tick=0, channel=0, data=[54, 95]),
   midi.NoteOffEvent(tick=240, channel=0, data=[54, 80]),
   midi.NoteOnEvent(tick=0, channel=0, data=[39, 95]),
   midi.NoteOffEvent(tick=240, channel=0, data=[39, 80]),
   midi.NoteOnEvent(tick=0, channel=0, data=[39, 95]),
   midi.NoteOffEvent(tick=240, channel=0, data=[39, 80]),
   midi.NoteOnEvent(tick=0, channel=1, data=[49, 95]),
   midi.PitchWheelEvent(tick=80, channel=1, data=[0, 64]),
   midi.PitchWheelEvent(tick=80, channel=1, data=[0, 67]),
   midi.PitchWheelEvent(tick=80, channel=1, data=[0, 64]),
   midi.PitchWheelEvent(tick=80, channel=1, data=[0, 67]),
   midi.PitchWheelEvent(tick=80, channel=1, data=[0, 64]),
   midi.PitchWheelEvent(tick=80, channel=1, data=[0, 67]),
   midi.PitchWheelEvent(tick=0, channel=1, data=[0, 64]),
   midi.NoteOffEvent(tick=0, channel=1, data=[49, 80]),
   midi.NoteOnEvent(tick=0, channel=0, data=[39, 95]),
   midi.NoteOffEvent(tick=240, channel=0, data=[39, 80]),
   midi.NoteOnEvent(tick=0, channel=0, data=[39, 95]),
   midi.NoteOffEvent(tick=240, channel=0, data=[39, 80]),
   midi.NoteOnEvent(tick=0, channel=0, data=[56, 95]),
   midi.NoteOffEvent(tick=120, channel=0, data=[56, 80]),
   midi.NoteOnEvent(tick=0, channel=0, data=[54, 76]),
   midi.NoteOffEvent(tick=120, channel=0, data=[54, 80]),
   midi.NoteOnEvent(tick=0, channel=0, data=[51, 95]),
   midi.NoteOffEvent(tick=240, channel=0, data=[51, 80]),
   midi.NoteOnEvent(tick=0, channel=0, data=[39, 95]),
   midi.NoteOffEvent(tick=240, channel=0, data=[39, 80]),
   midi.NoteOnEvent(tick=0, channel=0, data=[39, 95]),
   midi.NoteOffEvent(tick=240, channel=0, data=[39, 80]),
   midi.NoteOnEvent(tick=0, channel=1, data=[51, 95]),
   midi.PitchWheelEvent(tick=80, channel=1, data=[0, 64]),
   midi.PitchWheelEvent(tick=80, channel=1, data=[0, 67]),
   midi.PitchWheelEvent(tick=80, channel=1, data=[0, 64]),
   midi.PitchWheelEvent(tick=80, channel=1, data=[0, 67]),
   midi.PitchWheelEvent(tick=80, channel=1, data=[0, 64]),
   midi.PitchWheelEvent(tick=80, channel=1, data=[0, 67]),
   midi.PitchWheelEvent(tick=0, channel=1, data=[0, 64]),
   midi.NoteOffEvent(tick=0, channel=1, data=[51, 80]),
   midi.NoteOnEvent(tick=0, channel=0, data=[39, 95]),
   midi.NoteOffEvent(tick=240, channel=0, data=[39, 80]),
   midi.NoteOnEvent(tick=0, channel=0, data=[39, 95]),
   midi.NoteOffEvent(tick=240, channel=0, data=[39, 80]),
   midi.NoteOnEvent(tick=0, channel=0, data=[49, 95]),
   midi.NoteOffEvent(tick=120, channel=0, data=[49, 80]),
   midi.NoteOnEvent(tick=0, channel=0, data=[51, 76]),
   midi.NoteOffEvent(tick=120, channel=0, data=[51, 80]),
   midi.NoteOnEvent(tick=0, channel=0, data=[54, 95]),
   midi.NoteOffEvent(tick=240, channel=0, data=[54, 80]),
   midi.NoteOnEvent(tick=0, channel=0, data=[39, 95]),
   midi.NoteOffEvent(tick=240, channel=0, data=[39, 80]),
   midi.NoteOnEvent(tick=0, channel=0, data=[39, 95]),
   midi.NoteOffEvent(tick=240, channel=0, data=[39, 80]),
   midi.NoteOnEvent(tick=0, channel=1, data=[47, 95]),
   midi.PitchWheelEvent(tick=80, channel=1, data=[0, 64]),
   midi.PitchWheelEvent(tick=80, channel=1, data=[0, 67]),
   midi.PitchWheelEvent(tick=80, channel=1, data=[0, 64]),
   midi.PitchWheelEvent(tick=80, channel=1, data=[0, 67]),
   midi.PitchWheelEvent(tick=80, channel=1, data=[0, 64]),
   midi.PitchWheelEvent(tick=80, channel=1, data=[0, 67]),
   midi.PitchWheelEvent(tick=0, channel=1, data=[0, 64]),
   midi.NoteOffEvent(tick=0, channel=1, data=[47, 80]),
   midi.NoteOnEvent(tick=0, channel=0, data=[39, 95]),
   midi.NoteOffEvent(tick=240, channel=0, data=[39, 80]),
   midi.NoteOnEvent(tick=0, channel=0, data=[39, 95]),
   midi.NoteOffEvent(tick=240, channel=0, data=[39, 80]),
   midi.NoteOnEvent(tick=0, channel=0, data=[56, 95]),
   midi.NoteOffEvent(tick=120, channel=0, data=[56, 80]),
   midi.NoteOnEvent(tick=0, channel=0, data=[54, 76]),
   midi.NoteOffEvent(tick=120, channel=0, data=[54, 80]),
   midi.NoteOnEvent(tick=0, channel=0, data=[51, 95]),
   midi.NoteOffEvent(tick=240, channel=0, data=[51, 80]),
   midi.NoteOnEvent(tick=0, channel=0, data=[39, 95]),
   midi.NoteOffEvent(tick=240, channel=0, data=[39, 80]),
   midi.NoteOnEvent(tick=0, channel=0, data=[39, 95]),
   midi.NoteOffEvent(tick=240, channel=0, data=[39, 80]),
   midi.NoteOnEvent(tick=0, channel=1, data=[51, 95]),
   midi.PitchWheelEvent(tick=80, channel=1, data=[0, 64]),
   midi.PitchWheelEvent(tick=80, channel=1, data=[0, 67]),
   midi.PitchWheelEvent(tick=80, channel=1, data=[0, 64]),
   midi.PitchWheelEvent(tick=80, channel=1, data=[0, 67]),
   midi.PitchWheelEvent(tick=80, channel=1, data=[0, 64]),
   midi.PitchWheelEvent(tick=80, channel=1, data=[0, 67]),
   midi.PitchWheelEvent(tick=0, channel=1, data=[0, 64]),
   midi.NoteOffEvent(tick=0, channel=1, data=[51, 80]),
   midi.NoteOnEvent(tick=0, channel=0, data=[39, 95]),
   midi.NoteOffEvent(tick=240, channel=0, data=[39, 80]),
   midi.NoteOnEvent(tick=0, channel=0, data=[39, 95]),
   midi.NoteOffEvent(tick=240, channel=0, data=[39, 80]),
   midi.NoteOnEvent(tick=0, channel=0, data=[49, 95]),
   midi.NoteOffEvent(tick=120, channel=0, data=[49, 80]),
   midi.NoteOnEvent(tick=0, channel=0, data=[51, 76]),
   midi.NoteOffEvent(tick=120, channel=0, data=[51, 80]),
   midi.NoteOnEvent(tick=0, channel=0, data=[54, 95]),
   midi.NoteOffEvent(tick=240, channel=0, data=[54, 80]),
   midi.NoteOnEvent(tick=0, channel=0, data=[39, 95]),
   midi.NoteOffEvent(tick=240, channel=0, data=[39, 80]),
   midi.NoteOnEvent(tick=0, channel=0, data=[39, 95]),
   midi.NoteOffEvent(tick=240, channel=0, data=[39, 80]),
   midi.NoteOnEvent(tick=0, channel=1, data=[49, 95]),
   midi.PitchWheelEvent(tick=80, channel=1, data=[0, 64]),
   midi.PitchWheelEvent(tick=80, channel=1, data=[0, 67]),
   midi.PitchWheelEvent(tick=80, channel=1, data=[0, 64]),
   midi.PitchWheelEvent(tick=80, channel=1, data=[0, 67]),
   midi.PitchWheelEvent(tick=80, channel=1, data=[0, 64]),
   midi.PitchWheelEvent(tick=80, channel=1, data=[0, 67]),
   midi.PitchWheelEvent(tick=0, channel=1, data=[0, 64]),
   midi.NoteOffEvent(tick=0, channel=1, data=[49, 80]),
   midi.NoteOnEvent(tick=0, channel=0, data=[39, 95]),
   midi.NoteOffEvent(tick=240, channel=0, data=[39, 80]),
   midi.NoteOnEvent(tick=0, channel=0, data=[39, 95]),
   midi.NoteOffEvent(tick=240, channel=0, data=[39, 80]),
   midi.NoteOnEvent(tick=0, channel=0, data=[56, 95]),
   midi.NoteOffEvent(tick=120, channel=0, data=[56, 80]),
   midi.NoteOnEvent(tick=0, channel=0, data=[54, 76]),
   midi.NoteOffEvent(tick=120, channel=0, data=[54, 80]),
   midi.NoteOnEvent(tick=0, channel=0, data=[51, 95]),
   midi.NoteOffEvent(tick=240, channel=0, data=[51, 80]),
   midi.NoteOnEvent(tick=0, channel=0, data=[39, 95]),
   midi.NoteOffEvent(tick=240, channel=0, data=[39, 80]),
   midi.NoteOnEvent(tick=0, channel=0, data=[39, 95]),
   midi.NoteOffEvent(tick=240, channel=0, data=[39, 80]),
   midi.NoteOnEvent(tick=0, channel=1, data=[51, 95]),
   midi.PitchWheelEvent(tick=80, channel=1, data=[0, 64]),
   midi.PitchWheelEvent(tick=80, channel=1, data=[0, 67]),
   midi.PitchWheelEvent(tick=80, channel=1, data=[0, 64]),
   midi.PitchWheelEvent(tick=80, channel=1, data=[0, 67]),
   midi.PitchWheelEvent(tick=80, channel=1, data=[0, 64]),
   midi.PitchWheelEvent(tick=80, channel=1, data=[0, 67]),
   midi.PitchWheelEvent(tick=0, channel=1, data=[0, 64]),
   midi.NoteOffEvent(tick=0, channel=1, data=[51, 80]),
   midi.NoteOnEvent(tick=0, channel=0, data=[39, 95]),
   midi.NoteOffEvent(tick=240, channel=0, data=[39, 80]),
   midi.NoteOnEvent(tick=0, channel=0, data=[39, 95]),
   midi.NoteOffEvent(tick=240, channel=0, data=[39, 80]),
   midi.NoteOnEvent(tick=0, channel=0, data=[49, 95]),
   midi.NoteOffEvent(tick=120, channel=0, data=[49, 80]),
   midi.NoteOnEvent(tick=0, channel=0, data=[51, 76]),
   midi.NoteOffEvent(tick=120, channel=0, data=[51, 80]),
   midi.NoteOnEvent(tick=0, channel=0, data=[54, 95]),
   midi.NoteOffEvent(tick=240, channel=0, data=[54, 80]),
   midi.NoteOnEvent(tick=0, channel=0, data=[39, 95]),
   midi.NoteOffEvent(tick=240, channel=0, data=[39, 80]),
   midi.NoteOnEvent(tick=0, channel=0, data=[39, 95]),
   midi.NoteOffEvent(tick=240, channel=0, data=[39, 80]),
   midi.NoteOnEvent(tick=0, channel=1, data=[47, 95]),
   midi.PitchWheelEvent(tick=80, channel=1, data=[0, 64]),
   midi.PitchWheelEvent(tick=80, channel=1, data=[0, 67]),
   midi.PitchWheelEvent(tick=80, channel=1, data=[0, 64]),
   midi.PitchWheelEvent(tick=80, channel=1, data=[0, 67]),
   midi.PitchWheelEvent(tick=80, channel=1, data=[0, 64]),
   midi.PitchWheelEvent(tick=80, channel=1, data=[0, 67]),
   midi.PitchWheelEvent(tick=0, channel=1, data=[0, 64]),
   midi.NoteOffEvent(tick=0, channel=1, data=[47, 80]),
   midi.NoteOnEvent(tick=0, channel=0, data=[39, 95]),
   midi.NoteOffEvent(tick=240, channel=0, data=[39, 80]),
   midi.NoteOnEvent(tick=0, channel=0, data=[39, 95]),
   midi.NoteOffEvent(tick=240, channel=0, data=[39, 80]),
   midi.NoteOnEvent(tick=0, channel=0, data=[56, 95]),
   midi.NoteOffEvent(tick=120, channel=0, data=[56, 80]),
   midi.NoteOnEvent(tick=0, channel=0, data=[54, 76]),
   midi.NoteOffEvent(tick=120, channel=0, data=[54, 80]),
   midi.NoteOnEvent(tick=0, channel=0, data=[51, 95]),
   midi.NoteOffEvent(tick=240, channel=0, data=[51, 80]),
   midi.EndOfTrackEvent(tick=0, data=[])]),
 midi.Track(\
  [midi.TrackNameEvent(tick=0, text='Marty', data=[77, 97, 114, 116, 121]),
   midi.ControlChangeEvent(tick=0, channel=2, data=[100, 0]),
   midi.ControlChangeEvent(tick=0, channel=2, data=[101, 0]),
   midi.ControlChangeEvent(tick=0, channel=2, data=[6, 8]),
   midi.PitchWheelEvent(tick=0, channel=2, data=[0, 64]),
   midi.ControlChangeEvent(tick=0, channel=3, data=[100, 0]),
   midi.ControlChangeEvent(tick=0, channel=3, data=[101, 0]),
   midi.ControlChangeEvent(tick=0, channel=3, data=[6, 8]),
   midi.PitchWheelEvent(tick=0, channel=3, data=[0, 64]),
   midi.ProgramChangeEvent(tick=0, channel=2, data=[30]),
   midi.ProgramChangeEvent(tick=0, channel=3, data=[30]),
   midi.ControlChangeEvent(tick=0, channel=2, data=[7, 127]),
   midi.ControlChangeEvent(tick=0, channel=3, data=[7, 127]),
   midi.ControlChangeEvent(tick=0, channel=2, data=[10, 64]),
   midi.ControlChangeEvent(tick=0, channel=3, data=[10, 64]),
   midi.ControlChangeEvent(tick=0, channel=2, data=[93, 24]),
   midi.ControlChangeEvent(tick=0, channel=3, data=[93, 24]),
   midi.ControlChangeEvent(tick=0, channel=2, data=[91, 48]),
   midi.ControlChangeEvent(tick=0, channel=3, data=[91, 48]),
   midi.ControlChangeEvent(tick=0, channel=2, data=[92, 0]),
   midi.ControlChangeEvent(tick=0, channel=3, data=[92, 0]),
   midi.ControlChangeEvent(tick=0, channel=2, data=[95, 0]),
   midi.ControlChangeEvent(tick=0, channel=3, data=[95, 0]),
   midi.NoteOnEvent(tick=48000, channel=2, data=[51, 95]),
   midi.NoteOffEvent(tick=360, channel=2, data=[51, 80]),
   midi.NoteOnEvent(tick=0, channel=2, data=[58, 95]),
   midi.NoteOffEvent(tick=360, channel=2, data=[58, 80]),
   midi.NoteOnEvent(tick=0, channel=2, data=[54, 95]),
   midi.NoteOffEvent(tick=240, channel=2, data=[54, 80]),
   midi.NoteOnEvent(tick=0, channel=2, data=[56, 95]),
   midi.NoteOffEvent(tick=360, channel=2, data=[56, 80]),
   midi.NoteOnEvent(tick=0, channel=2, data=[61, 95]),
   midi.NoteOffEvent(tick=360, channel=2, data=[61, 80]),
   midi.NoteOnEvent(tick=0, channel=2, data=[56, 95]),
   midi.NoteOffEvent(tick=240, channel=2, data=[56, 80]),
   midi.NoteOnEvent(tick=0, channel=2, data=[54, 95]),
   midi.NoteOffEvent(tick=360, channel=2, data=[54, 80]),
   midi.NoteOnEvent(tick=0, channel=2, data=[58, 95]),
   midi.NoteOffEvent(tick=360, channel=2, data=[58, 80]),
   midi.NoteOnEvent(tick=0, channel=2, data=[54, 95]),
   midi.NoteOffEvent(tick=240, channel=2, data=[54, 80]),
   midi.NoteOnEvent(tick=0, channel=2, data=[51, 95]),
   midi.NoteOffEvent(tick=360, channel=2, data=[51, 80]),
   midi.NoteOnEvent(tick=0, channel=2, data=[59, 95]),
   midi.NoteOffEvent(tick=360, channel=2, data=[59, 80]),
   midi.NoteOnEvent(tick=0, channel=2, data=[58, 95]),
   midi.NoteOffEvent(tick=240, channel=2, data=[58, 80]),
   midi.NoteOnEvent(tick=0, channel=2, data=[51, 95]),
   midi.NoteOffEvent(tick=360, channel=2, data=[51, 80]),
   midi.NoteOnEvent(tick=0, channel=2, data=[58, 95]),
   midi.NoteOffEvent(tick=360, channel=2, data=[58, 80]),
   midi.NoteOnEvent(tick=0, channel=2, data=[54, 95]),
   midi.NoteOffEvent(tick=240, channel=2, data=[54, 80]),
   midi.NoteOnEvent(tick=0, channel=2, data=[56, 95]),
   midi.NoteOffEvent(tick=360, channel=2, data=[56, 80]),
   midi.NoteOnEvent(tick=0, channel=2, data=[61, 95]),
   midi.NoteOffEvent(tick=360, channel=2, data=[61, 80]),
   midi.NoteOnEvent(tick=0, channel=2, data=[56, 95]),
   midi.NoteOffEvent(tick=240, channel=2, data=[56, 80]),
   midi.NoteOnEvent(tick=0, channel=2, data=[54, 95]),
   midi.NoteOffEvent(tick=360, channel=2, data=[54, 80]),
   midi.NoteOnEvent(tick=0, channel=2, data=[58, 95]),
   midi.NoteOffEvent(tick=360, channel=2, data=[58, 80]),
   midi.NoteOnEvent(tick=0, channel=2, data=[54, 95]),
   midi.NoteOffEvent(tick=240, channel=2, data=[54, 80]),
   midi.NoteOnEvent(tick=0, channel=2, data=[51, 95]),
   midi.NoteOffEvent(tick=480, channel=2, data=[51, 80]),
   midi.NoteOnEvent(tick=0, channel=3, data=[66, 95]),
   midi.PitchWheelEvent(tick=240, channel=3, data=[0, 56]),
   midi.PitchWheelEvent(tick=34, channel=3, data=[0, 48]),
   midi.PitchWheelEvent(tick=35, channel=3, data=[0, 40]),
   midi.PitchWheelEvent(tick=34, channel=3, data=[0, 32]),
   midi.PitchWheelEvent(tick=34, channel=3, data=[0, 24]),
   midi.PitchWheelEvent(tick=34, channel=3, data=[0, 16]),
   midi.PitchWheelEvent(tick=35, channel=3, data=[0, 8]),
   midi.NoteOffEvent(tick=34, channel=3, data=[66, 80]),
   midi.PitchWheelEvent(tick=0, channel=3, data=[0, 0]),
   midi.NoteOnEvent(tick=0, channel=2, data=[51, 95]),
   midi.PitchWheelEvent(tick=34, channel=3, data=[0, 64]),
   midi.NoteOffEvent(tick=326, channel=2, data=[51, 80]),
   midi.NoteOnEvent(tick=0, channel=2, data=[58, 95]),
   midi.NoteOffEvent(tick=360, channel=2, data=[58, 80]),
   midi.NoteOnEvent(tick=0, channel=2, data=[54, 95]),
   midi.NoteOffEvent(tick=240, channel=2, data=[54, 80]),
   midi.NoteOnEvent(tick=0, channel=2, data=[56, 95]),
   midi.NoteOffEvent(tick=360, channel=2, data=[56, 80]),
   midi.NoteOnEvent(tick=0, channel=2, data=[61, 95]),
   midi.NoteOffEvent(tick=360, channel=2, data=[61, 80]),
   midi.NoteOnEvent(tick=0, channel=2, data=[56, 95]),
   midi.NoteOffEvent(tick=240, channel=2, data=[56, 80]),
   midi.NoteOnEvent(tick=0, channel=2, data=[54, 95]),
   midi.NoteOffEvent(tick=360, channel=2, data=[54, 80]),
   midi.NoteOnEvent(tick=0, channel=2, data=[58, 95]),
   midi.NoteOffEvent(tick=360, channel=2, data=[58, 80]),
   midi.NoteOnEvent(tick=0, channel=2, data=[54, 95]),
   midi.NoteOffEvent(tick=240, channel=2, data=[54, 80]),
   midi.NoteOnEvent(tick=0, channel=2, data=[51, 95]),
   midi.NoteOffEvent(tick=360, channel=2, data=[51, 80]),
   midi.NoteOnEvent(tick=0, channel=2, data=[59, 95]),
   midi.NoteOffEvent(tick=360, channel=2, data=[59, 80]),
   midi.NoteOnEvent(tick=0, channel=2, data=[58, 95]),
   midi.NoteOffEvent(tick=240, channel=2, data=[58, 80]),
   midi.NoteOnEvent(tick=0, channel=2, data=[51, 95]),
   midi.NoteOffEvent(tick=360, channel=2, data=[51, 80]),
   midi.NoteOnEvent(tick=0, channel=2, data=[58, 95]),
   midi.NoteOffEvent(tick=360, channel=2, data=[58, 80]),
   midi.NoteOnEvent(tick=0, channel=2, data=[54, 95]),
   midi.NoteOffEvent(tick=240, channel=2, data=[54, 80]),
   midi.NoteOnEvent(tick=0, channel=2, data=[56, 95]),
   midi.NoteOffEvent(tick=360, channel=2, data=[56, 80]),
   midi.NoteOnEvent(tick=0, channel=2, data=[61, 95]),
   midi.NoteOffEvent(tick=360, channel=2, data=[61, 80]),
   midi.NoteOnEvent(tick=0, channel=2, data=[56, 95]),
   midi.NoteOffEvent(tick=240, channel=2, data=[56, 80]),
   midi.NoteOnEvent(tick=3840, channel=2, data=[44, 95]),
   midi.NoteOffEvent(tick=360, channel=2, data=[44, 80]),
   midi.NoteOnEvent(tick=0, channel=2, data=[66, 95]),
   midi.NoteOffEvent(tick=360, channel=2, data=[66, 80]),
   midi.NoteOnEvent(tick=0, channel=2, data=[73, 95]),
   midi.NoteOffEvent(tick=240, channel=2, data=[73, 80]),
   midi.NoteOnEvent(tick=0, channel=3, data=[72, 95]),
   midi.PitchWheelEvent(tick=80, channel=3, data=[0, 64]),
   midi.PitchWheelEvent(tick=80, channel=3, data=[0, 67]),
   midi.PitchWheelEvent(tick=80, channel=3, data=[0, 64]),
   midi.PitchWheelEvent(tick=80, channel=3, data=[0, 67]),
   midi.PitchWheelEvent(tick=40, channel=3, data=[0, 64]),
   midi.NoteOffEvent(tick=0, channel=3, data=[72, 80]),
   midi.NoteOnEvent(tick=0, channel=2, data=[68, 95]),
   midi.NoteOffEvent(tick=360, channel=2, data=[68, 80]),
   midi.NoteOnEvent(tick=0, channel=2, data=[66, 95]),
   midi.NoteOffEvent(tick=240, channel=2, data=[66, 80]),
   midi.NoteOnEvent(tick=0, channel=2, data=[44, 95]),
   midi.NoteOffEvent(tick=360, channel=2, data=[44, 80]),
   midi.NoteOnEvent(tick=0, channel=2, data=[64, 95]),
   midi.NoteOffEvent(tick=360, channel=2, data=[64, 80]),
   midi.NoteOnEvent(tick=0, channel=2, data=[71, 95]),
   midi.NoteOffEvent(tick=240, channel=2, data=[71, 80]),
   midi.NoteOnEvent(tick=0, channel=3, data=[70, 95]),
   midi.PitchWheelEvent(tick=80, channel=3, data=[0, 64]),
   midi.PitchWheelEvent(tick=80, channel=3, data=[0, 67]),
   midi.PitchWheelEvent(tick=80, channel=3, data=[0, 64]),
   midi.PitchWheelEvent(tick=80, channel=3, data=[0, 67]),
   midi.PitchWheelEvent(tick=40, channel=3, data=[0, 64]),
   midi.NoteOffEvent(tick=0, channel=3, data=[70, 80]),
   midi.NoteOnEvent(tick=0, channel=2, data=[66, 95]),
   midi.NoteOffEvent(tick=360, channel=2, data=[66, 80]),
   midi.NoteOnEvent(tick=0, channel=2, data=[64, 95]),
   midi.NoteOffEvent(tick=240, channel=2, data=[64, 80]),
   midi.NoteOnEvent(tick=0, channel=2, data=[44, 95]),
   midi.NoteOffEvent(tick=360, channel=2, data=[44, 80]),
   midi.NoteOnEvent(tick=0, channel=2, data=[66, 95]),
   midi.NoteOffEvent(tick=360, channel=2, data=[66, 80]),
   midi.NoteOnEvent(tick=0, channel=2, data=[73, 95]),
   midi.NoteOffEvent(tick=240, channel=2, data=[73, 80]),
   midi.NoteOnEvent(tick=0, channel=3, data=[72, 95]),
   midi.PitchWheelEvent(tick=80, channel=3, data=[0, 64]),
   midi.PitchWheelEvent(tick=80, channel=3, data=[0, 67]),
   midi.PitchWheelEvent(tick=80, channel=3, data=[0, 64]),
   midi.PitchWheelEvent(tick=80, channel=3, data=[0, 67]),
   midi.PitchWheelEvent(tick=40, channel=3, data=[0, 64]),
   midi.NoteOffEvent(tick=0, channel=3, data=[72, 80]),
   midi.NoteOnEvent(tick=0, channel=2, data=[68, 95]),
   midi.NoteOffEvent(tick=360, channel=2, data=[68, 80]),
   midi.NoteOnEvent(tick=0, channel=2, data=[66, 95]),
   midi.NoteOffEvent(tick=240, channel=2, data=[66, 80]),
   midi.NoteOnEvent(tick=0, channel=2, data=[44, 95]),
   midi.NoteOffEvent(tick=360, channel=2, data=[44, 80]),
   midi.NoteOnEvent(tick=0, channel=2, data=[64, 95]),
   midi.NoteOffEvent(tick=360, channel=2, data=[64, 80]),
   midi.NoteOnEvent(tick=0, channel=2, data=[71, 95]),
   midi.NoteOffEvent(tick=240, channel=2, data=[71, 80]),
   midi.NoteOnEvent(tick=0, channel=3, data=[70, 95]),
   midi.PitchWheelEvent(tick=80, channel=3, data=[0, 64]),
   midi.PitchWheelEvent(tick=80, channel=3, data=[0, 67]),
   midi.PitchWheelEvent(tick=80, channel=3, data=[0, 64]),
   midi.PitchWheelEvent(tick=80, channel=3, data=[0, 67]),
   midi.PitchWheelEvent(tick=40, channel=3, data=[0, 64]),
   midi.NoteOffEvent(tick=0, channel=3, data=[70, 80]),
   midi.NoteOnEvent(tick=0, channel=2, data=[66, 95]),
   midi.NoteOffEvent(tick=360, channel=2, data=[66, 80]),
   midi.NoteOnEvent(tick=0, channel=2, data=[64, 95]),
   midi.NoteOffEvent(tick=240, channel=2, data=[64, 80]),
   midi.NoteOnEvent(tick=0, channel=2, data=[44, 95]),
   midi.NoteOffEvent(tick=360, channel=2, data=[44, 80]),
   midi.NoteOnEvent(tick=0, channel=2, data=[66, 95]),
   midi.NoteOffEvent(tick=360, channel=2, data=[66, 80]),
   midi.NoteOnEvent(tick=0, channel=2, data=[73, 95]),
   midi.NoteOffEvent(tick=240, channel=2, data=[73, 80]),
   midi.NoteOnEvent(tick=0, channel=3, data=[72, 95]),
   midi.PitchWheelEvent(tick=80, channel=3, data=[0, 64]),
   midi.PitchWheelEvent(tick=80, channel=3, data=[0, 67]),
   midi.PitchWheelEvent(tick=80, channel=3, data=[0, 64]),
   midi.PitchWheelEvent(tick=80, channel=3, data=[0, 67]),
   midi.PitchWheelEvent(tick=40, channel=3, data=[0, 64]),
   midi.NoteOffEvent(tick=0, channel=3, data=[72, 80]),
   midi.NoteOnEvent(tick=0, channel=2, data=[68, 95]),
   midi.NoteOffEvent(tick=360, channel=2, data=[68, 80]),
   midi.NoteOnEvent(tick=0, channel=2, data=[66, 95]),
   midi.NoteOffEvent(tick=240, channel=2, data=[66, 80]),
   midi.NoteOnEvent(tick=0, channel=2, data=[44, 95]),
   midi.NoteOffEvent(tick=360, channel=2, data=[44, 80]),
   midi.NoteOnEvent(tick=0, channel=2, data=[64, 95]),
   midi.NoteOffEvent(tick=360, channel=2, data=[64, 80]),
   midi.NoteOnEvent(tick=0, channel=2, data=[71, 95]),
   midi.NoteOffEvent(tick=240, channel=2, data=[71, 80]),
   midi.NoteOnEvent(tick=0, channel=3, data=[70, 95]),
   midi.PitchWheelEvent(tick=80, channel=3, data=[0, 64]),
   midi.PitchWheelEvent(tick=80, channel=3, data=[0, 67]),
   midi.PitchWheelEvent(tick=80, channel=3, data=[0, 64]),
   midi.PitchWheelEvent(tick=80, channel=3, data=[0, 67]),
   midi.PitchWheelEvent(tick=40, channel=3, data=[0, 64]),
   midi.NoteOffEvent(tick=0, channel=3, data=[70, 80]),
   midi.NoteOnEvent(tick=0, channel=2, data=[66, 95]),
   midi.NoteOffEvent(tick=360, channel=2, data=[66, 80]),
   midi.NoteOnEvent(tick=0, channel=2, data=[64, 95]),
   midi.NoteOffEvent(tick=240, channel=2, data=[64, 80]),
   midi.NoteOnEvent(tick=0, channel=2, data=[44, 95]),
   midi.NoteOffEvent(tick=360, channel=2, data=[44, 80]),
   midi.NoteOnEvent(tick=0, channel=2, data=[63, 95]),
   midi.NoteOffEvent(tick=360, channel=2, data=[63, 80]),
   midi.NoteOnEvent(tick=0, channel=2, data=[70, 95]),
   midi.NoteOffEvent(tick=240, channel=2, data=[70, 80]),
   midi.NoteOnEvent(tick=0, channel=3, data=[71, 95]),
   midi.PitchWheelEvent(tick=80, channel=3, data=[0, 64]),
   midi.PitchWheelEvent(tick=80, channel=3, data=[0, 67]),
   midi.PitchWheelEvent(tick=80, channel=3, data=[0, 64]),
   midi.PitchWheelEvent(tick=80, channel=3, data=[0, 67]),
   midi.PitchWheelEvent(tick=40, channel=3, data=[0, 64]),
   midi.NoteOffEvent(tick=0, channel=3, data=[71, 80]),
   midi.NoteOnEvent(tick=0, channel=2, data=[70, 95]),
   midi.NoteOffEvent(tick=360, channel=2, data=[70, 80]),
   midi.NoteOnEvent(tick=0, channel=2, data=[66, 95]),
   midi.NoteOffEvent(tick=240, channel=2, data=[66, 80]),
   midi.NoteOnEvent(tick=0, channel=2, data=[64, 95]),
   midi.NoteOffEvent(tick=360, channel=2, data=[64, 80]),
   midi.NoteOnEvent(tick=0, channel=2, data=[63, 95]),
   midi.NoteOffEvent(tick=360, channel=2, data=[63, 80]),
   midi.NoteOnEvent(tick=0, channel=2, data=[59, 95]),
   midi.NoteOffEvent(tick=240, channel=2, data=[59, 80]),
   midi.NoteOnEvent(tick=0, channel=2, data=[58, 95]),
   midi.NoteOffEvent(tick=360, channel=2, data=[58, 80]),
   midi.NoteOnEvent(tick=0, channel=2, data=[54, 95]),
   midi.NoteOffEvent(tick=360, channel=2, data=[54, 80]),
   midi.NoteOnEvent(tick=0, channel=2, data=[52, 95]),
   midi.NoteOffEvent(tick=240, channel=2, data=[52, 80]),
   midi.NoteOnEvent(tick=0, channel=3, data=[54, 95]),
   midi.PitchWheelEvent(tick=240, channel=3, data=[0, 56]),
   midi.PitchWheelEvent(tick=17, channel=3, data=[0, 48]),
   midi.PitchWheelEvent(tick=17, channel=3, data=[0, 40]),
   midi.PitchWheelEvent(tick=17, channel=3, data=[0, 32]),
   midi.PitchWheelEvent(tick=18, channel=3, data=[0, 24]),
   midi.PitchWheelEvent(tick=17, channel=3, data=[0, 16]),
   midi.PitchWheelEvent(tick=17, channel=3, data=[0, 8]),
   midi.PitchWheelEvent(tick=17, channel=3, data=[0, 0]),
   midi.PitchWheelEvent(tick=17, channel=3, data=[0, 0]),
   midi.PitchWheelEvent(tick=17, channel=3, data=[0, 0]),
   midi.PitchWheelEvent(tick=17, channel=3, data=[0, 0]),
   midi.PitchWheelEvent(tick=18, channel=3, data=[0, 0]),
   midi.PitchWheelEvent(tick=17, channel=3, data=[0, 0]),
   midi.PitchWheelEvent(tick=17, channel=3, data=[0, 0]),
   midi.NoteOffEvent(tick=17, channel=3, data=[54, 80]),
   midi.PitchWheelEvent(tick=0, channel=3, data=[0, 64]),
   midi.NoteOnEvent(tick=3240, channel=2, data=[54, 95]),
   midi.NoteOffEvent(tick=20, channel=2, data=[54, 80]),
   midi.NoteOnEvent(tick=100, channel=3, data=[63, 95]),
   midi.PitchWheelEvent(tick=80, channel=3, data=[0, 64]),
   midi.PitchWheelEvent(tick=80, channel=3, data=[0, 67]),
   midi.PitchWheelEvent(tick=80, channel=3, data=[0, 64]),
   midi.PitchWheelEvent(tick=80, channel=3, data=[0, 67]),
   midi.PitchWheelEvent(tick=40, channel=3, data=[0, 64]),
   midi.NoteOffEvent(tick=0, channel=3, data=[63, 80]),
   midi.NoteOnEvent(tick=0, channel=2, data=[65, 95]),
   midi.NoteOffEvent(tick=360, channel=2, data=[65, 80]),
   midi.NoteOnEvent(tick=0, channel=2, data=[66, 95]),
   midi.NoteOffEvent(tick=240, channel=2, data=[66, 80]),
   midi.NoteOnEvent(tick=0, channel=2, data=[63, 95]),
   midi.NoteOffEvent(tick=360, channel=2, data=[63, 80]),
   midi.NoteOnEvent(tick=0, channel=2, data=[65, 95]),
   midi.NoteOffEvent(tick=360, channel=2, data=[65, 80]),
   midi.NoteOnEvent(tick=0, channel=2, data=[66, 95]),
   midi.NoteOffEvent(tick=240, channel=2, data=[66, 80]),
   midi.NoteOnEvent(tick=0, channel=3, data=[66, 95]),
   midi.PitchWheelEvent(tick=0, channel=3, data=[0, 64]),
   midi.PitchWheelEvent(tick=16, channel=3, data=[0, 66]),
   midi.PitchWheelEvent(tick=16, channel=3, data=[0, 67]),
   midi.PitchWheelEvent(tick=32, channel=3, data=[0, 69]),
   midi.PitchWheelEvent(tick=16, channel=3, data=[0, 70]),
   midi.PitchWheelEvent(tick=16, channel=3, data=[0, 72]),
   midi.PitchWheelEvent(tick=16, channel=3, data=[0, 74]),
   midi.PitchWheelEvent(tick=32, channel=3, data=[0, 75]),
   midi.PitchWheelEvent(tick=16, channel=3, data=[0, 77]),
   midi.PitchWheelEvent(tick=16, channel=3, data=[0, 78]),
   midi.PitchWheelEvent(tick=16, channel=3, data=[0, 80]),
   midi.PitchWheelEvent(tick=32, channel=3, data=[0, 82]),
   midi.PitchWheelEvent(tick=16, channel=3, data=[0, 83]),
   midi.PitchWheelEvent(tick=16, channel=3, data=[0, 85]),
   midi.PitchWheelEvent(tick=16, channel=3, data=[0, 86]),
   midi.PitchWheelEvent(tick=32, channel=3, data=[0, 88]),
   midi.PitchWheelEvent(tick=16, channel=3, data=[0, 90]),
   midi.PitchWheelEvent(tick=16, channel=3, data=[0, 91]),
   midi.PitchWheelEvent(tick=16, channel=3, data=[0, 93]),
   midi.PitchWheelEvent(tick=32, channel=3, data=[0, 94]),
   midi.PitchWheelEvent(tick=16, channel=3, data=[0, 96]),
   midi.PitchWheelEvent(tick=16, channel=3, data=[0, 98]),
   midi.PitchWheelEvent(tick=16, channel=3, data=[0, 99]),
   midi.PitchWheelEvent(tick=32, channel=3, data=[0, 101]),
   midi.PitchWheelEvent(tick=16, channel=3, data=[0, 102]),
   midi.PitchWheelEvent(tick=16, channel=3, data=[0, 104]),
   midi.PitchWheelEvent(tick=16, channel=3, data=[0, 106]),
   midi.PitchWheelEvent(tick=32, channel=3, data=[0, 107]),
   midi.PitchWheelEvent(tick=16, channel=3, data=[0, 109]),
   midi.PitchWheelEvent(tick=16, channel=3, data=[0, 110]),
   midi.PitchWheelEvent(tick=16, channel=3, data=[0, 114]),
   midi.PitchWheelEvent(tick=32, channel=3, data=[0, 112]),
   midi.PitchWheelEvent(tick=32, channel=3, data=[0, 110]),
   midi.PitchWheelEvent(tick=32, channel=3, data=[0, 112]),
   midi.PitchWheelEvent(tick=32, channel=3, data=[0, 114]),
   midi.PitchWheelEvent(tick=32, channel=3, data=[0, 112]),
   midi.PitchWheelEvent(tick=32, channel=3, data=[0, 110]),
   midi.PitchWheelEvent(tick=32, channel=3, data=[0, 112]),
   midi.PitchWheelEvent(tick=32, channel=3, data=[0, 114]),
   midi.PitchWheelEvent(tick=32, channel=3, data=[0, 112]),
   midi.PitchWheelEvent(tick=32, channel=3, data=[0, 110]),
   midi.PitchWheelEvent(tick=32, channel=3, data=[0, 112]),
   midi.PitchWheelEvent(tick=32, channel=3, data=[0, 114]),
   midi.PitchWheelEvent(tick=32, channel=3, data=[0, 112]),
   midi.PitchWheelEvent(tick=32, channel=3, data=[0, 110]),
   midi.PitchWheelEvent(tick=32, channel=3, data=[0, 112]),
   midi.PitchWheelEvent(tick=32, channel=3, data=[0, 114]),
   midi.PitchWheelEvent(tick=32, channel=3, data=[0, 112]),
   midi.PitchWheelEvent(tick=32, channel=3, data=[0, 110]),
   midi.NoteOffEvent(tick=32, channel=3, data=[66, 80]),
   midi.PitchWheelEvent(tick=0, channel=3, data=[0, 112]),
   midi.PitchWheelEvent(tick=0, channel=3, data=[0, 64]),
   midi.NoteOnEvent(tick=0, channel=2, data=[65, 95]),
   midi.NoteOffEvent(tick=120, channel=2, data=[65, 80]),
   midi.NoteOnEvent(tick=0, channel=2, data=[66, 95]),
   midi.NoteOffEvent(tick=120, channel=2, data=[66, 80]),
   midi.NoteOnEvent(tick=0, channel=2, data=[65, 95]),
   midi.NoteOffEvent(tick=120, channel=2, data=[65, 80]),
   midi.NoteOnEvent(tick=0, channel=2, data=[61, 95]),
   midi.NoteOffEvent(tick=120, channel=2, data=[61, 80]),
   midi.NoteOnEvent(tick=0, channel=2, data=[56, 95]),
   midi.NoteOffEvent(tick=120, channel=2, data=[56, 80]),
   midi.NoteOnEvent(tick=0, channel=2, data=[58, 95]),
   midi.NoteOffEvent(tick=600, channel=2, data=[58, 80]),
   midi.NoteOnEvent(tick=22560, channel=2, data=[70, 76]),
   midi.NoteOnEvent(tick=0, channel=2, data=[58, 95]),
   midi.NoteOffEvent(tick=1920, channel=2, data=[70, 80]),
   midi.NoteOffEvent(tick=0, channel=2, data=[58, 80]),
   midi.NoteOnEvent(tick=0, channel=2, data=[68, 95]),
   midi.NoteOnEvent(tick=0, channel=2, data=[56, 95]),
   midi.NoteOffEvent(tick=1920, channel=2, data=[68, 80]),
   midi.NoteOffEvent(tick=0, channel=2, data=[56, 80]),
   midi.NoteOnEvent(tick=0, channel=2, data=[66, 95]),
   midi.NoteOnEvent(tick=0, channel=2, data=[54, 95]),
   midi.NoteOffEvent(tick=3840, channel=2, data=[66, 80]),
   midi.NoteOffEvent(tick=0, channel=2, data=[54, 80]),
   midi.NoteOnEvent(tick=0, channel=2, data=[51, 95]),
   midi.NoteOffEvent(tick=360, channel=2, data=[51, 80]),
   midi.NoteOnEvent(tick=0, channel=2, data=[58, 95]),
   midi.NoteOffEvent(tick=360, channel=2, data=[58, 80]),
   midi.NoteOnEvent(tick=0, channel=2, data=[54, 95]),
   midi.NoteOffEvent(tick=240, channel=2, data=[54, 80]),
   midi.NoteOnEvent(tick=0, channel=2, data=[56, 95]),
   midi.NoteOffEvent(tick=360, channel=2, data=[56, 80]),
   midi.NoteOnEvent(tick=0, channel=2, data=[61, 95]),
   midi.NoteOffEvent(tick=360, channel=2, data=[61, 80]),
   midi.NoteOnEvent(tick=0, channel=2, data=[56, 95]),
   midi.NoteOffEvent(tick=240, channel=2, data=[56, 80]),
   midi.NoteOnEvent(tick=0, channel=2, data=[54, 95]),
   midi.NoteOffEvent(tick=360, channel=2, data=[54, 80]),
   midi.NoteOnEvent(tick=0, channel=2, data=[58, 95]),
   midi.NoteOffEvent(tick=360, channel=2, data=[58, 80]),
   midi.NoteOnEvent(tick=0, channel=2, data=[54, 95]),
   midi.NoteOffEvent(tick=240, channel=2, data=[54, 80]),
   midi.NoteOnEvent(tick=0, channel=2, data=[51, 95]),
   midi.NoteOffEvent(tick=360, channel=2, data=[51, 80]),
   midi.NoteOnEvent(tick=0, channel=2, data=[59, 95]),
   midi.NoteOffEvent(tick=360, channel=2, data=[59, 80]),
   midi.NoteOnEvent(tick=0, channel=2, data=[58, 95]),
   midi.NoteOffEvent(tick=240, channel=2, data=[58, 80]),
   midi.NoteOnEvent(tick=0, channel=2, data=[51, 95]),
   midi.NoteOffEvent(tick=360, channel=2, data=[51, 80]),
   midi.NoteOnEvent(tick=0, channel=2, data=[58, 95]),
   midi.NoteOffEvent(tick=360, channel=2, data=[58, 80]),
   midi.NoteOnEvent(tick=0, channel=2, data=[54, 95]),
   midi.NoteOffEvent(tick=240, channel=2, data=[54, 80]),
   midi.NoteOnEvent(tick=0, channel=2, data=[56, 95]),
   midi.NoteOffEvent(tick=360, channel=2, data=[56, 80]),
   midi.NoteOnEvent(tick=0, channel=2, data=[61, 95]),
   midi.NoteOffEvent(tick=360, channel=2, data=[61, 80]),
   midi.NoteOnEvent(tick=0, channel=2, data=[56, 95]),
   midi.NoteOffEvent(tick=240, channel=2, data=[56, 80]),
   midi.NoteOnEvent(tick=0, channel=2, data=[54, 95]),
   midi.NoteOffEvent(tick=360, channel=2, data=[54, 80]),
   midi.NoteOnEvent(tick=0, channel=2, data=[58, 95]),
   midi.NoteOffEvent(tick=360, channel=2, data=[58, 80]),
   midi.NoteOnEvent(tick=0, channel=2, data=[54, 95]),
   midi.NoteOffEvent(tick=240, channel=2, data=[54, 80]),
   midi.NoteOnEvent(tick=0, channel=2, data=[51, 95]),
   midi.NoteOffEvent(tick=480, channel=2, data=[51, 80]),
   midi.NoteOnEvent(tick=0, channel=3, data=[66, 95]),
   midi.PitchWheelEvent(tick=240, channel=3, data=[0, 56]),
   midi.PitchWheelEvent(tick=34, channel=3, data=[0, 48]),
   midi.PitchWheelEvent(tick=35, channel=3, data=[0, 40]),
   midi.PitchWheelEvent(tick=34, channel=3, data=[0, 32]),
   midi.PitchWheelEvent(tick=34, channel=3, data=[0, 24]),
   midi.PitchWheelEvent(tick=34, channel=3, data=[0, 16]),
   midi.PitchWheelEvent(tick=35, channel=3, data=[0, 8]),
   midi.NoteOffEvent(tick=34, channel=3, data=[66, 80]),
   midi.PitchWheelEvent(tick=0, channel=3, data=[0, 0]),
   midi.NoteOnEvent(tick=0, channel=2, data=[51, 95]),
   midi.PitchWheelEvent(tick=34, channel=3, data=[0, 64]),
   midi.NoteOffEvent(tick=326, channel=2, data=[51, 80]),
   midi.NoteOnEvent(tick=0, channel=2, data=[58, 95]),
   midi.NoteOffEvent(tick=360, channel=2, data=[58, 80]),
   midi.NoteOnEvent(tick=0, channel=2, data=[54, 95]),
   midi.NoteOffEvent(tick=240, channel=2, data=[54, 80]),
   midi.NoteOnEvent(tick=0, channel=2, data=[56, 95]),
   midi.NoteOffEvent(tick=360, channel=2, data=[56, 80]),
   midi.NoteOnEvent(tick=0, channel=2, data=[61, 95]),
   midi.NoteOffEvent(tick=360, channel=2, data=[61, 80]),
   midi.NoteOnEvent(tick=0, channel=2, data=[56, 95]),
   midi.NoteOffEvent(tick=240, channel=2, data=[56, 80]),
   midi.NoteOnEvent(tick=0, channel=2, data=[54, 95]),
   midi.NoteOffEvent(tick=360, channel=2, data=[54, 80]),
   midi.NoteOnEvent(tick=0, channel=2, data=[58, 95]),
   midi.NoteOffEvent(tick=360, channel=2, data=[58, 80]),
   midi.NoteOnEvent(tick=0, channel=2, data=[54, 95]),
   midi.NoteOffEvent(tick=240, channel=2, data=[54, 80]),
   midi.NoteOnEvent(tick=0, channel=2, data=[51, 95]),
   midi.NoteOffEvent(tick=360, channel=2, data=[51, 80]),
   midi.NoteOnEvent(tick=0, channel=2, data=[59, 95]),
   midi.NoteOffEvent(tick=360, channel=2, data=[59, 80]),
   midi.NoteOnEvent(tick=0, channel=2, data=[58, 95]),
   midi.NoteOffEvent(tick=240, channel=2, data=[58, 80]),
   midi.NoteOnEvent(tick=0, channel=2, data=[51, 95]),
   midi.NoteOffEvent(tick=360, channel=2, data=[51, 80]),
   midi.NoteOnEvent(tick=0, channel=2, data=[58, 95]),
   midi.NoteOffEvent(tick=360, channel=2, data=[58, 80]),
   midi.NoteOnEvent(tick=0, channel=2, data=[54, 95]),
   midi.NoteOffEvent(tick=240, channel=2, data=[54, 80]),
   midi.NoteOnEvent(tick=0, channel=2, data=[56, 95]),
   midi.NoteOffEvent(tick=360, channel=2, data=[56, 80]),
   midi.NoteOnEvent(tick=0, channel=2, data=[61, 95]),
   midi.NoteOffEvent(tick=360, channel=2, data=[61, 80]),
   midi.NoteOnEvent(tick=0, channel=2, data=[56, 95]),
   midi.NoteOffEvent(tick=240, channel=2, data=[56, 80]),
   midi.NoteOnEvent(tick=3840, channel=2, data=[44, 95]),
   midi.NoteOffEvent(tick=360, channel=2, data=[44, 80]),
   midi.NoteOnEvent(tick=0, channel=2, data=[66, 95]),
   midi.NoteOffEvent(tick=360, channel=2, data=[66, 80]),
   midi.NoteOnEvent(tick=0, channel=2, data=[73, 95]),
   midi.NoteOffEvent(tick=240, channel=2, data=[73, 80]),
   midi.NoteOnEvent(tick=0, channel=3, data=[72, 95]),
   midi.PitchWheelEvent(tick=80, channel=3, data=[0, 64]),
   midi.PitchWheelEvent(tick=80, channel=3, data=[0, 67]),
   midi.PitchWheelEvent(tick=80, channel=3, data=[0, 64]),
   midi.PitchWheelEvent(tick=80, channel=3, data=[0, 67]),
   midi.PitchWheelEvent(tick=40, channel=3, data=[0, 64]),
   midi.NoteOffEvent(tick=0, channel=3, data=[72, 80]),
   midi.NoteOnEvent(tick=0, channel=2, data=[68, 95]),
   midi.NoteOffEvent(tick=360, channel=2, data=[68, 80]),
   midi.NoteOnEvent(tick=0, channel=2, data=[66, 95]),
   midi.NoteOffEvent(tick=240, channel=2, data=[66, 80]),
   midi.NoteOnEvent(tick=0, channel=2, data=[44, 95]),
   midi.NoteOffEvent(tick=360, channel=2, data=[44, 80]),
   midi.NoteOnEvent(tick=0, channel=2, data=[64, 95]),
   midi.NoteOffEvent(tick=360, channel=2, data=[64, 80]),
   midi.NoteOnEvent(tick=0, channel=2, data=[71, 95]),
   midi.NoteOffEvent(tick=240, channel=2, data=[71, 80]),
   midi.NoteOnEvent(tick=0, channel=3, data=[70, 95]),
   midi.PitchWheelEvent(tick=80, channel=3, data=[0, 64]),
   midi.PitchWheelEvent(tick=80, channel=3, data=[0, 67]),
   midi.PitchWheelEvent(tick=80, channel=3, data=[0, 64]),
   midi.PitchWheelEvent(tick=80, channel=3, data=[0, 67]),
   midi.PitchWheelEvent(tick=40, channel=3, data=[0, 64]),
   midi.NoteOffEvent(tick=0, channel=3, data=[70, 80]),
   midi.NoteOnEvent(tick=0, channel=2, data=[66, 95]),
   midi.NoteOffEvent(tick=360, channel=2, data=[66, 80]),
   midi.NoteOnEvent(tick=0, channel=2, data=[64, 95]),
   midi.NoteOffEvent(tick=240, channel=2, data=[64, 80]),
   midi.NoteOnEvent(tick=0, channel=2, data=[44, 95]),
   midi.NoteOffEvent(tick=360, channel=2, data=[44, 80]),
   midi.NoteOnEvent(tick=0, channel=2, data=[66, 95]),
   midi.NoteOffEvent(tick=360, channel=2, data=[66, 80]),
   midi.NoteOnEvent(tick=0, channel=2, data=[73, 95]),
   midi.NoteOffEvent(tick=240, channel=2, data=[73, 80]),
   midi.NoteOnEvent(tick=0, channel=3, data=[72, 95]),
   midi.PitchWheelEvent(tick=80, channel=3, data=[0, 64]),
   midi.PitchWheelEvent(tick=80, channel=3, data=[0, 67]),
   midi.PitchWheelEvent(tick=80, channel=3, data=[0, 64]),
   midi.PitchWheelEvent(tick=80, channel=3, data=[0, 67]),
   midi.PitchWheelEvent(tick=40, channel=3, data=[0, 64]),
   midi.NoteOffEvent(tick=0, channel=3, data=[72, 80]),
   midi.NoteOnEvent(tick=0, channel=2, data=[68, 95]),
   midi.NoteOffEvent(tick=360, channel=2, data=[68, 80]),
   midi.NoteOnEvent(tick=0, channel=2, data=[66, 95]),
   midi.NoteOffEvent(tick=240, channel=2, data=[66, 80]),
   midi.NoteOnEvent(tick=0, channel=2, data=[44, 95]),
   midi.NoteOffEvent(tick=360, channel=2, data=[44, 80]),
   midi.NoteOnEvent(tick=0, channel=2, data=[64, 95]),
   midi.NoteOffEvent(tick=360, channel=2, data=[64, 80]),
   midi.NoteOnEvent(tick=0, channel=2, data=[71, 95]),
   midi.NoteOffEvent(tick=240, channel=2, data=[71, 80]),
   midi.NoteOnEvent(tick=0, channel=3, data=[70, 95]),
   midi.PitchWheelEvent(tick=80, channel=3, data=[0, 64]),
   midi.PitchWheelEvent(tick=80, channel=3, data=[0, 67]),
   midi.PitchWheelEvent(tick=80, channel=3, data=[0, 64]),
   midi.PitchWheelEvent(tick=80, channel=3, data=[0, 67]),
   midi.PitchWheelEvent(tick=40, channel=3, data=[0, 64]),
   midi.NoteOffEvent(tick=0, channel=3, data=[70, 80]),
   midi.NoteOnEvent(tick=0, channel=2, data=[66, 95]),
   midi.NoteOffEvent(tick=360, channel=2, data=[66, 80]),
   midi.NoteOnEvent(tick=0, channel=2, data=[64, 95]),
   midi.NoteOffEvent(tick=240, channel=2, data=[64, 80]),
   midi.NoteOnEvent(tick=0, channel=2, data=[44, 95]),
   midi.NoteOffEvent(tick=360, channel=2, data=[44, 80]),
   midi.NoteOnEvent(tick=0, channel=2, data=[66, 95]),
   midi.NoteOffEvent(tick=360, channel=2, data=[66, 80]),
   midi.NoteOnEvent(tick=0, channel=2, data=[73, 95]),
   midi.NoteOffEvent(tick=240, channel=2, data=[73, 80]),
   midi.NoteOnEvent(tick=0, channel=3, data=[72, 95]),
   midi.PitchWheelEvent(tick=80, channel=3, data=[0, 64]),
   midi.PitchWheelEvent(tick=80, channel=3, data=[0, 67]),
   midi.PitchWheelEvent(tick=80, channel=3, data=[0, 64]),
   midi.PitchWheelEvent(tick=80, channel=3, data=[0, 67]),
   midi.PitchWheelEvent(tick=40, channel=3, data=[0, 64]),
   midi.NoteOffEvent(tick=0, channel=3, data=[72, 80]),
   midi.NoteOnEvent(tick=0, channel=2, data=[68, 95]),
   midi.NoteOffEvent(tick=360, channel=2, data=[68, 80]),
   midi.NoteOnEvent(tick=0, channel=2, data=[66, 95]),
   midi.NoteOffEvent(tick=240, channel=2, data=[66, 80]),
   midi.NoteOnEvent(tick=0, channel=2, data=[44, 95]),
   midi.NoteOffEvent(tick=360, channel=2, data=[44, 80]),
   midi.NoteOnEvent(tick=0, channel=2, data=[64, 95]),
   midi.NoteOffEvent(tick=360, channel=2, data=[64, 80]),
   midi.NoteOnEvent(tick=0, channel=2, data=[71, 95]),
   midi.NoteOffEvent(tick=240, channel=2, data=[71, 80]),
   midi.NoteOnEvent(tick=0, channel=3, data=[70, 95]),
   midi.PitchWheelEvent(tick=80, channel=3, data=[0, 64]),
   midi.PitchWheelEvent(tick=80, channel=3, data=[0, 67]),
   midi.PitchWheelEvent(tick=80, channel=3, data=[0, 64]),
   midi.PitchWheelEvent(tick=80, channel=3, data=[0, 67]),
   midi.PitchWheelEvent(tick=40, channel=3, data=[0, 64]),
   midi.NoteOffEvent(tick=0, channel=3, data=[70, 80]),
   midi.NoteOnEvent(tick=0, channel=2, data=[66, 95]),
   midi.NoteOffEvent(tick=360, channel=2, data=[66, 80]),
   midi.NoteOnEvent(tick=0, channel=2, data=[64, 95]),
   midi.NoteOffEvent(tick=240, channel=2, data=[64, 80]),
   midi.NoteOnEvent(tick=0, channel=2, data=[44, 95]),
   midi.NoteOffEvent(tick=360, channel=2, data=[44, 80]),
   midi.NoteOnEvent(tick=0, channel=2, data=[63, 95]),
   midi.NoteOffEvent(tick=360, channel=2, data=[63, 80]),
   midi.NoteOnEvent(tick=0, channel=2, data=[70, 95]),
   midi.NoteOffEvent(tick=240, channel=2, data=[70, 80]),
   midi.NoteOnEvent(tick=0, channel=3, data=[71, 95]),
   midi.PitchWheelEvent(tick=80, channel=3, data=[0, 64]),
   midi.PitchWheelEvent(tick=80, channel=3, data=[0, 67]),
   midi.PitchWheelEvent(tick=80, channel=3, data=[0, 64]),
   midi.PitchWheelEvent(tick=80, channel=3, data=[0, 67]),
   midi.PitchWheelEvent(tick=40, channel=3, data=[0, 64]),
   midi.NoteOffEvent(tick=0, channel=3, data=[71, 80]),
   midi.NoteOnEvent(tick=0, channel=2, data=[70, 95]),
   midi.NoteOffEvent(tick=360, channel=2, data=[70, 80]),
   midi.NoteOnEvent(tick=0, channel=2, data=[66, 95]),
   midi.NoteOffEvent(tick=240, channel=2, data=[66, 80]),
   midi.NoteOnEvent(tick=1080, channel=2, data=[51, 76]),
   midi.NoteOffEvent(tick=120, channel=2, data=[51, 80]),
   midi.NoteOnEvent(tick=0, channel=2, data=[52, 95]),
   midi.NoteOffEvent(tick=120, channel=2, data=[52, 80]),
   midi.NoteOnEvent(tick=0, channel=2, data=[54, 95]),
   midi.NoteOffEvent(tick=120, channel=2, data=[54, 80]),
   midi.NoteOnEvent(tick=0, channel=2, data=[56, 95]),
   midi.NoteOffEvent(tick=120, channel=2, data=[56, 80]),
   midi.NoteOnEvent(tick=0, channel=2, data=[58, 95]),
   midi.NoteOffEvent(tick=120, channel=2, data=[58, 80]),
   midi.NoteOnEvent(tick=0, channel=2, data=[59, 95]),
   midi.NoteOffEvent(tick=120, channel=2, data=[59, 80]),
   midi.NoteOnEvent(tick=0, channel=2, data=[61, 95]),
   midi.NoteOffEvent(tick=120, channel=2, data=[61, 80]),
   midi.NoteOnEvent(tick=0, channel=2, data=[63, 95]),
   midi.NoteOffEvent(tick=1560, channel=2, data=[63, 80]),
   midi.NoteOnEvent(tick=0, channel=2, data=[64, 95]),
   midi.NoteOffEvent(tick=120, channel=2, data=[64, 80]),
   midi.NoteOnEvent(tick=0, channel=3, data=[63, 95]),
   midi.PitchWheelEvent(tick=60, channel=3, data=[0, 56]),
   midi.NoteOffEvent(tick=60, channel=3, data=[63, 80]),
   midi.PitchWheelEvent(tick=0, channel=3, data=[0, 64]),
   midi.NoteOnEvent(tick=0, channel=2, data=[61, 76]),
   midi.NoteOffEvent(tick=120, channel=2, data=[61, 80]),
   midi.NoteOnEvent(tick=0, channel=3, data=[61, 95]),
   midi.PitchWheelEvent(tick=60, channel=3, data=[0, 72]),
   midi.NoteOffEvent(tick=60, channel=3, data=[61, 80]),
   midi.PitchWheelEvent(tick=0, channel=3, data=[0, 64]),
   midi.NoteOnEvent(tick=0, channel=3, data=[63, 76]),
   midi.PitchWheelEvent(tick=80, channel=3, data=[0, 64]),
   midi.PitchWheelEvent(tick=80, channel=3, data=[0, 67]),
   midi.PitchWheelEvent(tick=80, channel=3, data=[0, 64]),
   midi.PitchWheelEvent(tick=80, channel=3, data=[0, 67]),
   midi.PitchWheelEvent(tick=80, channel=3, data=[0, 64]),
   midi.PitchWheelEvent(tick=80, channel=3, data=[0, 67]),
   midi.PitchWheelEvent(tick=80, channel=3, data=[0, 64]),
   midi.PitchWheelEvent(tick=80, channel=3, data=[0, 67]),
   midi.PitchWheelEvent(tick=80, channel=3, data=[0, 64]),
   midi.PitchWheelEvent(tick=80, channel=3, data=[0, 67]),
   midi.PitchWheelEvent(tick=40, channel=3, data=[0, 64]),
   midi.NoteOffEvent(tick=0, channel=3, data=[63, 80]),
   midi.NoteOnEvent(tick=0, channel=2, data=[68, 95]),
   midi.NoteOffEvent(tick=360, channel=2, data=[68, 80]),
   midi.NoteOnEvent(tick=0, channel=2, data=[67, 95]),
   midi.NoteOffEvent(tick=360, channel=2, data=[67, 80]),
   midi.NoteOnEvent(tick=0, channel=2, data=[64, 95]),
   midi.NoteOffEvent(tick=80, channel=2, data=[64, 80]),
   midi.NoteOnEvent(tick=0, channel=2, data=[67, 76]),
   midi.NoteOffEvent(tick=80, channel=2, data=[67, 80]),
   midi.NoteOnEvent(tick=0, channel=3, data=[64, 76]),
   midi.PitchWheelEvent(tick=64, channel=3, data=[0, 56]),
   midi.NoteOffEvent(tick=16, channel=3, data=[64, 80]),
   midi.PitchWheelEvent(tick=0, channel=3, data=[0, 64]),
   midi.NoteOnEvent(tick=0, channel=2, data=[63, 76]),
   midi.NoteOffEvent(tick=1560, channel=2, data=[63, 80]),
   midi.NoteOnEvent(tick=0, channel=2, data=[64, 95]),
   midi.NoteOffEvent(tick=120, channel=2, data=[64, 80]),
   midi.NoteOnEvent(tick=0, channel=2, data=[63, 95]),
   midi.NoteOffEvent(tick=60, channel=2, data=[63, 80]),
   midi.NoteOnEvent(tick=0, channel=2, data=[64, 76]),
   midi.NoteOffEvent(tick=60, channel=2, data=[64, 80]),
   midi.NoteOnEvent(tick=0, channel=2, data=[63, 76]),
   midi.NoteOffEvent(tick=60, channel=2, data=[63, 80]),
   midi.NoteOnEvent(tick=0, channel=2, data=[61, 76]),
   midi.NoteOffEvent(tick=60, channel=2, data=[61, 80]),
   midi.NoteOnEvent(tick=0, channel=3, data=[63, 95]),
   midi.PitchWheelEvent(tick=80, channel=3, data=[0, 64]),
   midi.PitchWheelEvent(tick=80, channel=3, data=[0, 67]),
   midi.PitchWheelEvent(tick=80, channel=3, data=[0, 64]),
   midi.PitchWheelEvent(tick=80, channel=3, data=[0, 67]),
   midi.PitchWheelEvent(tick=80, channel=3, data=[0, 64]),
   midi.PitchWheelEvent(tick=80, channel=3, data=[0, 67]),
   midi.PitchWheelEvent(tick=80, channel=3, data=[0, 64]),
   midi.PitchWheelEvent(tick=80, channel=3, data=[0, 67]),
   midi.PitchWheelEvent(tick=80, channel=3, data=[0, 64]),
   midi.PitchWheelEvent(tick=80, channel=3, data=[0, 67]),
   midi.PitchWheelEvent(tick=80, channel=3, data=[0, 64]),
   midi.PitchWheelEvent(tick=80, channel=3, data=[0, 67]),
   midi.PitchWheelEvent(tick=0, channel=3, data=[0, 64]),
   midi.NoteOffEvent(tick=0, channel=3, data=[63, 80]),
   midi.NoteOnEvent(tick=0, channel=2, data=[68, 95]),
   midi.NoteOffEvent(tick=320, channel=2, data=[68, 80]),
   midi.NoteOnEvent(tick=0, channel=2, data=[67, 95]),
   midi.NoteOffEvent(tick=320, channel=2, data=[67, 80]),
   midi.NoteOnEvent(tick=0, channel=2, data=[68, 95]),
   midi.NoteOffEvent(tick=320, channel=2, data=[68, 80]),
   midi.NoteOnEvent(tick=0, channel=3, data=[68, 95]),
   midi.PitchWheelEvent(tick=0, channel=3, data=[0, 64]),
   midi.PitchWheelEvent(tick=16, channel=3, data=[0, 67]),
   midi.PitchWheelEvent(tick=16, channel=3, data=[0, 70]),
   midi.PitchWheelEvent(tick=16, channel=3, data=[0, 74]),
   midi.PitchWheelEvent(tick=16, channel=3, data=[0, 77]),
   midi.PitchWheelEvent(tick=16, channel=3, data=[0, 80]),
   midi.PitchWheelEvent(tick=16, channel=3, data=[0, 83]),
   midi.PitchWheelEvent(tick=16, channel=3, data=[0, 86]),
   midi.PitchWheelEvent(tick=16, channel=3, data=[0, 90]),
   midi.PitchWheelEvent(tick=16, channel=3, data=[0, 93]),
   midi.PitchWheelEvent(tick=16, channel=3, data=[0, 96]),
   midi.PitchWheelEvent(tick=16, channel=3, data=[0, 99]),
   midi.PitchWheelEvent(tick=16, channel=3, data=[0, 102]),
   midi.PitchWheelEvent(tick=16, channel=3, data=[0, 106]),
   midi.PitchWheelEvent(tick=16, channel=3, data=[0, 109]),
   midi.PitchWheelEvent(tick=16, channel=3, data=[0, 112]),
   midi.PitchWheelEvent(tick=256, channel=3, data=[0, 109]),
   midi.PitchWheelEvent(tick=16, channel=3, data=[0, 106]),
   midi.PitchWheelEvent(tick=16, channel=3, data=[0, 102]),
   midi.PitchWheelEvent(tick=16, channel=3, data=[0, 99]),
   midi.PitchWheelEvent(tick=16, channel=3, data=[0, 96]),
   midi.PitchWheelEvent(tick=16, channel=3, data=[0, 93]),
   midi.PitchWheelEvent(tick=16, channel=3, data=[0, 90]),
   midi.PitchWheelEvent(tick=16, channel=3, data=[0, 86]),
   midi.PitchWheelEvent(tick=16, channel=3, data=[0, 83]),
   midi.PitchWheelEvent(tick=16, channel=3, data=[0, 80]),
   midi.PitchWheelEvent(tick=16, channel=3, data=[0, 77]),
   midi.PitchWheelEvent(tick=16, channel=3, data=[0, 74]),
   midi.PitchWheelEvent(tick=16, channel=3, data=[0, 70]),
   midi.PitchWheelEvent(tick=16, channel=3, data=[0, 67]),
   midi.PitchWheelEvent(tick=16, channel=3, data=[0, 64]),
   midi.NoteOffEvent(tick=240, channel=3, data=[68, 80]),
   midi.PitchWheelEvent(tick=0, channel=3, data=[0, 64]),
   midi.NoteOnEvent(tick=0, channel=3, data=[63, 95]),
   midi.PitchWheelEvent(tick=80, channel=3, data=[0, 64]),
   midi.PitchWheelEvent(tick=80, channel=3, data=[0, 67]),
   midi.PitchWheelEvent(tick=80, channel=3, data=[0, 64]),
   midi.PitchWheelEvent(tick=80, channel=3, data=[0, 67]),
   midi.PitchWheelEvent(tick=80, channel=3, data=[0, 64]),
   midi.PitchWheelEvent(tick=80, channel=3, data=[0, 67]),
   midi.PitchWheelEvent(tick=80, channel=3, data=[0, 64]),
   midi.PitchWheelEvent(tick=80, channel=3, data=[0, 67]),
   midi.PitchWheelEvent(tick=80, channel=3, data=[0, 64]),
   midi.PitchWheelEvent(tick=80, channel=3, data=[0, 67]),
   midi.PitchWheelEvent(tick=80, channel=3, data=[0, 64]),
   midi.PitchWheelEvent(tick=80, channel=3, data=[0, 67]),
   midi.PitchWheelEvent(tick=80, channel=3, data=[0, 64]),
   midi.PitchWheelEvent(tick=40, channel=3, data=[0, 64]),
   midi.NoteOffEvent(tick=0, channel=3, data=[63, 80]),
   midi.NoteOnEvent(tick=0, channel=2, data=[64, 76]),
   midi.NoteOffEvent(tick=120, channel=2, data=[64, 80]),
   midi.NoteOnEvent(tick=0, channel=3, data=[63, 76]),
   midi.PitchWheelEvent(tick=60, channel=3, data=[0, 56]),
   midi.NoteOffEvent(tick=60, channel=3, data=[63, 80]),
   midi.PitchWheelEvent(tick=0, channel=3, data=[0, 64]),
   midi.NoteOnEvent(tick=0, channel=3, data=[61, 76]),
   midi.PitchWheelEvent(tick=60, channel=3, data=[0, 72]),
   midi.NoteOffEvent(tick=60, channel=3, data=[61, 80]),
   midi.PitchWheelEvent(tick=0, channel=3, data=[0, 64]),
   midi.NoteOnEvent(tick=0, channel=3, data=[63, 76]),
   midi.PitchWheelEvent(tick=240, channel=3, data=[0, 56]),
   midi.PitchWheelEvent(tick=18, channel=3, data=[0, 48]),
   midi.PitchWheelEvent(tick=19, channel=3, data=[0, 40]),
   midi.PitchWheelEvent(tick=18, channel=3, data=[0, 32]),
   midi.PitchWheelEvent(tick=19, channel=3, data=[0, 24]),
   midi.PitchWheelEvent(tick=18, channel=3, data=[0, 16]),
   midi.PitchWheelEvent(tick=19, channel=3, data=[0, 8]),
   midi.PitchWheelEvent(tick=18, channel=3, data=[0, 0]),
   midi.PitchWheelEvent(tick=19, channel=3, data=[0, 0]),
   midi.PitchWheelEvent(tick=18, channel=3, data=[0, 0]),
   midi.PitchWheelEvent(tick=19, channel=3, data=[0, 0]),
   midi.PitchWheelEvent(tick=18, channel=3, data=[0, 0]),
   midi.PitchWheelEvent(tick=19, channel=3, data=[0, 0]),
   midi.NoteOffEvent(tick=18, channel=3, data=[63, 80]),
   midi.PitchWheelEvent(tick=0, channel=3, data=[0, 0]),
   midi.NoteOnEvent(tick=0, channel=2, data=[68, 95]),
   midi.PitchWheelEvent(tick=18, channel=3, data=[0, 64]),
   midi.NoteOffEvent(tick=302, channel=2, data=[68, 80]),
   midi.NoteOnEvent(tick=0, channel=2, data=[67, 95]),
   midi.NoteOffEvent(tick=320, channel=2, data=[67, 80]),
   midi.NoteOnEvent(tick=0, channel=2, data=[68, 95]),
   midi.NoteOffEvent(tick=320, channel=2, data=[68, 80]),
   midi.NoteOnEvent(tick=0, channel=3, data=[68, 95]),
   midi.PitchWheelEvent(tick=0, channel=3, data=[0, 64]),
   midi.PitchWheelEvent(tick=16, channel=3, data=[0, 67]),
   midi.PitchWheelEvent(tick=16, channel=3, data=[0, 70]),
   midi.PitchWheelEvent(tick=16, channel=3, data=[0, 74]),
   midi.PitchWheelEvent(tick=16, channel=3, data=[0, 77]),
   midi.PitchWheelEvent(tick=16, channel=3, data=[0, 80]),
   midi.PitchWheelEvent(tick=16, channel=3, data=[0, 83]),
   midi.PitchWheelEvent(tick=16, channel=3, data=[0, 86]),
   midi.PitchWheelEvent(tick=16, channel=3, data=[0, 90]),
   midi.PitchWheelEvent(tick=16, channel=3, data=[0, 93]),
   midi.PitchWheelEvent(tick=16, channel=3, data=[0, 96]),
   midi.PitchWheelEvent(tick=16, channel=3, data=[0, 99]),
   midi.PitchWheelEvent(tick=16, channel=3, data=[0, 102]),
   midi.PitchWheelEvent(tick=16, channel=3, data=[0, 106]),
   midi.PitchWheelEvent(tick=16, channel=3, data=[0, 109]),
   midi.PitchWheelEvent(tick=16, channel=3, data=[0, 112]),
   midi.NoteOffEvent(tick=240, channel=3, data=[68, 80]),
   midi.PitchWheelEvent(tick=0, channel=3, data=[0, 64]),
   midi.NoteOnEvent(tick=0, channel=2, data=[73, 95]),
   midi.NoteOffEvent(tick=960, channel=2, data=[73, 80]),
   midi.NoteOnEvent(tick=0, channel=3, data=[72, 76]),
   midi.PitchWheelEvent(tick=0, channel=3, data=[0, 64]),
   midi.PitchWheelEvent(tick=16, channel=3, data=[0, 66]),
   midi.PitchWheelEvent(tick=16, channel=3, data=[0, 68]),
   midi.PitchWheelEvent(tick=16, channel=3, data=[0, 70]),
   midi.PitchWheelEvent(tick=16, channel=3, data=[0, 72]),
   midi.PitchWheelEvent(tick=64, channel=3, data=[0, 71]),
   midi.PitchWheelEvent(tick=16, channel=3, data=[0, 69]),
   midi.PitchWheelEvent(tick=16, channel=3, data=[0, 67]),
   midi.PitchWheelEvent(tick=16, channel=3, data=[0, 64]),
   midi.NoteOffEvent(tick=64, channel=3, data=[72, 80]),
   midi.PitchWheelEvent(tick=0, channel=3, data=[0, 64]),
   midi.NoteOnEvent(tick=0, channel=2, data=[70, 95]),
   midi.NoteOffEvent(tick=240, channel=2, data=[70, 80]),
   midi.NoteOnEvent(tick=0, channel=3, data=[72, 95]),
   midi.PitchWheelEvent(tick=0, channel=3, data=[0, 64]),
   midi.PitchWheelEvent(tick=16, channel=3, data=[0, 66]),
   midi.PitchWheelEvent(tick=16, channel=3, data=[0, 67]),
   midi.PitchWheelEvent(tick=16, channel=3, data=[0, 68]),
   midi.PitchWheelEvent(tick=16, channel=3, data=[0, 70]),
   midi.PitchWheelEvent(tick=16, channel=3, data=[0, 71]),
   midi.PitchWheelEvent(tick=16, channel=3, data=[0, 72]),
   midi.PitchWheelEvent(tick=96, channel=3, data=[0, 71]),
   midi.PitchWheelEvent(tick=16, channel=3, data=[0, 69]),
   midi.PitchWheelEvent(tick=16, channel=3, data=[0, 68]),
   midi.PitchWheelEvent(tick=16, channel=3, data=[0, 67]),
   midi.PitchWheelEvent(tick=16, channel=3, data=[0, 65]),
   midi.PitchWheelEvent(tick=16, channel=3, data=[0, 64]),
   midi.NoteOffEvent(tick=88, channel=3, data=[72, 80]),
   midi.PitchWheelEvent(tick=0, channel=3, data=[0, 64]),
   midi.NoteOnEvent(tick=0, channel=2, data=[70, 95]),
   midi.NoteOffEvent(tick=120, channel=2, data=[70, 80]),
   midi.NoteOnEvent(tick=0, channel=2, data=[72, 95]),
   midi.NoteOffEvent(tick=120, channel=2, data=[72, 80]),
   midi.NoteOnEvent(tick=0, channel=3, data=[66, 95]),
   midi.PitchWheelEvent(tick=80, channel=3, data=[0, 64]),
   midi.PitchWheelEvent(tick=80, channel=3, data=[0, 67]),
   midi.PitchWheelEvent(tick=80, channel=3, data=[0, 64]),
   midi.PitchWheelEvent(tick=80, channel=3, data=[0, 67]),
   midi.PitchWheelEvent(tick=40, channel=3, data=[0, 64]),
   midi.NoteOffEvent(tick=0, channel=3, data=[66, 80]),
   midi.NoteOnEvent(tick=0, channel=3, data=[66, 95]),
   midi.PitchWheelEvent(tick=80, channel=3, data=[0, 64]),
   midi.PitchWheelEvent(tick=80, channel=3, data=[0, 67]),
   midi.PitchWheelEvent(tick=80, channel=3, data=[0, 64]),
   midi.PitchWheelEvent(tick=0, channel=3, data=[0, 64]),
   midi.NoteOffEvent(tick=0, channel=3, data=[66, 80]),
   midi.NoteOnEvent(tick=0, channel=2, data=[63, 76]),
   midi.NoteOffEvent(tick=120, channel=2, data=[63, 80]),
   midi.NoteOnEvent(tick=0, channel=2, data=[61, 76]),
   midi.NoteOffEvent(tick=120, channel=2, data=[61, 80]),
   midi.NoteOnEvent(tick=0, channel=2, data=[63, 95]),
   midi.NoteOffEvent(tick=240, channel=2, data=[63, 80]),
   midi.NoteOnEvent(tick=0, channel=2, data=[61, 95]),
   midi.NoteOffEvent(tick=120, channel=2, data=[61, 80]),
   midi.NoteOnEvent(tick=0, channel=2, data=[63, 95]),
   midi.NoteOffEvent(tick=120, channel=2, data=[63, 80]),
   midi.NoteOnEvent(tick=0, channel=3, data=[63, 95]),
   midi.PitchWheelEvent(tick=60, channel=3, data=[0, 72]),
   midi.NoteOffEvent(tick=60, channel=3, data=[63, 80]),
   midi.PitchWheelEvent(tick=0, channel=3, data=[0, 64]),
   midi.NoteOnEvent(tick=0, channel=3, data=[65, 76]),
   midi.PitchWheelEvent(tick=80, channel=3, data=[0, 64]),
   midi.PitchWheelEvent(tick=80, channel=3, data=[0, 67]),
   midi.PitchWheelEvent(tick=80, channel=3, data=[0, 64]),
   midi.PitchWheelEvent(tick=80, channel=3, data=[0, 67]),
   midi.PitchWheelEvent(tick=40, channel=3, data=[0, 64]),
   midi.NoteOffEvent(tick=0, channel=3, data=[65, 80]),
   midi.NoteOnEvent(tick=0, channel=3, data=[68, 95]),
   midi.PitchWheelEvent(tick=80, channel=3, data=[0, 64]),
   midi.PitchWheelEvent(tick=80, channel=3, data=[0, 67]),
   midi.PitchWheelEvent(tick=80, channel=3, data=[0, 64]),
   midi.PitchWheelEvent(tick=80, channel=3, data=[0, 67]),
   midi.PitchWheelEvent(tick=80, channel=3, data=[0, 64]),
   midi.PitchWheelEvent(tick=80, channel=3, data=[0, 67]),
   midi.PitchWheelEvent(tick=0, channel=3, data=[0, 64]),
   midi.NoteOffEvent(tick=0, channel=3, data=[68, 80]),
   midi.NoteOnEvent(tick=0, channel=3, data=[70, 95]),
   midi.PitchWheelEvent(tick=0, channel=3, data=[0, 64]),
   midi.PitchWheelEvent(tick=16, channel=3, data=[0, 77]),
   midi.PitchWheelEvent(tick=16, channel=3, data=[0, 90]),
   midi.PitchWheelEvent(tick=16, channel=3, data=[0, 102]),
   midi.PitchWheelEvent(tick=16, channel=3, data=[0, 112]),
   midi.PitchWheelEvent(tick=64, channel=3, data=[0, 106]),
   midi.PitchWheelEvent(tick=16, channel=3, data=[0, 93]),
   midi.PitchWheelEvent(tick=16, channel=3, data=[0, 80]),
   midi.PitchWheelEvent(tick=16, channel=3, data=[0, 67]),
   midi.PitchWheelEvent(tick=16, channel=3, data=[0, 64]),
   midi.NoteOffEvent(tick=48, channel=3, data=[70, 80]),
   midi.PitchWheelEvent(tick=0, channel=3, data=[0, 64]),
   midi.NoteOnEvent(tick=0, channel=2, data=[68, 95]),
   midi.NoteOffEvent(tick=120, channel=2, data=[68, 80]),
   midi.NoteOnEvent(tick=0, channel=3, data=[75, 95]),
   midi.PitchWheelEvent(tick=0, channel=3, data=[0, 64]),
   midi.PitchWheelEvent(tick=16, channel=3, data=[0, 69]),
   midi.PitchWheelEvent(tick=16, channel=3, data=[0, 72]),
   midi.PitchWheelEvent(tick=16, channel=3, data=[0, 77]),
   midi.PitchWheelEvent(tick=16, channel=3, data=[0, 82]),
   midi.PitchWheelEvent(tick=16, channel=3, data=[0, 85]),
   midi.PitchWheelEvent(tick=16, channel=3, data=[0, 90]),
   midi.PitchWheelEvent(tick=16, channel=3, data=[0, 94]),
   midi.PitchWheelEvent(tick=16, channel=3, data=[0, 98]),
   midi.PitchWheelEvent(tick=16, channel=3, data=[0, 102]),
   midi.PitchWheelEvent(tick=16, channel=3, data=[0, 107]),
   midi.PitchWheelEvent(tick=16, channel=3, data=[0, 110]),
   midi.PitchWheelEvent(tick=16, channel=3, data=[0, 114]),
   midi.PitchWheelEvent(tick=32, channel=3, data=[0, 112]),
   midi.PitchWheelEvent(tick=32, channel=3, data=[0, 110]),
   midi.PitchWheelEvent(tick=32, channel=3, data=[0, 112]),
   midi.PitchWheelEvent(tick=32, channel=3, data=[0, 114]),
   midi.PitchWheelEvent(tick=32, channel=3, data=[0, 112]),
   midi.NoteOffEvent(tick=8, channel=3, data=[75, 80]),
   midi.PitchWheelEvent(tick=0, channel=3, data=[0, 64]),
   midi.NoteOnEvent(tick=0, channel=2, data=[77, 95]),
   midi.NoteOffEvent(tick=80, channel=2, data=[77, 80]),
   midi.NoteOnEvent(tick=0, channel=2, data=[75, 95]),
   midi.NoteOffEvent(tick=80, channel=2, data=[75, 80]),
   midi.NoteOnEvent(tick=0, channel=2, data=[72, 95]),
   midi.NoteOffEvent(tick=80, channel=2, data=[72, 80]),
   midi.NoteOnEvent(tick=0, channel=3, data=[75, 95]),
   midi.PitchWheelEvent(tick=0, channel=3, data=[0, 64]),
   midi.PitchWheelEvent(tick=16, channel=3, data=[0, 74]),
   midi.PitchWheelEvent(tick=16, channel=3, data=[0, 83]),
   midi.PitchWheelEvent(tick=16, channel=3, data=[0, 93]),
   midi.PitchWheelEvent(tick=16, channel=3, data=[0, 102]),
   midi.PitchWheelEvent(tick=16, channel=3, data=[0, 112]),
   midi.NoteOffEvent(tick=80, channel=3, data=[75, 80]),
   midi.PitchWheelEvent(tick=0, channel=3, data=[0, 64]),
   midi.NoteOnEvent(tick=0, channel=3, data=[75, 95]),
   midi.PitchWheelEvent(tick=0, channel=3, data=[0, 64]),
   midi.PitchWheelEvent(tick=16, channel=3, data=[0, 74]),
   midi.PitchWheelEvent(tick=16, channel=3, data=[0, 83]),
   midi.PitchWheelEvent(tick=16, channel=3, data=[0, 93]),
   midi.PitchWheelEvent(tick=16, channel=3, data=[0, 102]),
   midi.PitchWheelEvent(tick=16, channel=3, data=[0, 112]),
   midi.PitchWheelEvent(tick=96, channel=3, data=[0, 102]),
   midi.PitchWheelEvent(tick=16, channel=3, data=[0, 93]),
   midi.PitchWheelEvent(tick=16, channel=3, data=[0, 83]),
   midi.PitchWheelEvent(tick=16, channel=3, data=[0, 74]),
   midi.PitchWheelEvent(tick=16, channel=3, data=[0, 64]),
   midi.NoteOffEvent(tick=80, channel=3, data=[75, 80]),
   midi.PitchWheelEvent(tick=0, channel=3, data=[0, 64]),
   midi.NoteOnEvent(tick=0, channel=2, data=[77, 95]),
   midi.NoteOffEvent(tick=80, channel=2, data=[77, 80]),
   midi.NoteOnEvent(tick=0, channel=2, data=[75, 95]),
   midi.NoteOffEvent(tick=80, channel=2, data=[75, 80]),
   midi.NoteOnEvent(tick=0, channel=2, data=[72, 95]),
   midi.NoteOffEvent(tick=80, channel=2, data=[72, 80]),
   midi.NoteOnEvent(tick=0, channel=2, data=[80, 95]),
   midi.NoteOffEvent(tick=60, channel=2, data=[80, 80]),
   midi.NoteOnEvent(tick=0, channel=2, data=[77, 95]),
   midi.NoteOffEvent(tick=60, channel=2, data=[77, 80]),
   midi.NoteOnEvent(tick=0, channel=2, data=[75, 95]),
   midi.NoteOffEvent(tick=60, channel=2, data=[75, 80]),
   midi.NoteOnEvent(tick=0, channel=2, data=[72, 95]),
   midi.NoteOffEvent(tick=60, channel=2, data=[72, 80]),
   midi.NoteOnEvent(tick=0, channel=3, data=[80, 95]),
   midi.PitchWheelEvent(tick=0, channel=3, data=[0, 64]),
   midi.PitchWheelEvent(tick=16, channel=3, data=[0, 66]),
   midi.PitchWheelEvent(tick=16, channel=3, data=[0, 67]),
   midi.PitchWheelEvent(tick=16, channel=3, data=[0, 69]),
   midi.PitchWheelEvent(tick=16, channel=3, data=[0, 70]),
   midi.PitchWheelEvent(tick=16, channel=3, data=[0, 72]),
   midi.PitchWheelEvent(tick=16, channel=3, data=[0, 74]),
   midi.PitchWheelEvent(tick=16, channel=3, data=[0, 75]),
   midi.PitchWheelEvent(tick=16, channel=3, data=[0, 77]),
   midi.PitchWheelEvent(tick=16, channel=3, data=[0, 78]),
   midi.PitchWheelEvent(tick=16, channel=3, data=[0, 80]),
   midi.PitchWheelEvent(tick=16, channel=3, data=[0, 82]),
   midi.PitchWheelEvent(tick=16, channel=3, data=[0, 83]),
   midi.PitchWheelEvent(tick=16, channel=3, data=[0, 85]),
   midi.PitchWheelEvent(tick=16, channel=3, data=[0, 86]),
   midi.PitchWheelEvent(tick=16, channel=3, data=[0, 88]),
   midi.PitchWheelEvent(tick=16, channel=3, data=[0, 90]),
   midi.PitchWheelEvent(tick=16, channel=3, data=[0, 91]),
   midi.PitchWheelEvent(tick=16, channel=3, data=[0, 93]),
   midi.PitchWheelEvent(tick=16, channel=3, data=[0, 94]),
   midi.PitchWheelEvent(tick=16, channel=3, data=[0, 96]),
   midi.PitchWheelEvent(tick=16, channel=3, data=[0, 98]),
   midi.PitchWheelEvent(tick=16, channel=3, data=[0, 99]),
   midi.PitchWheelEvent(tick=16, channel=3, data=[0, 101]),
   midi.PitchWheelEvent(tick=16, channel=3, data=[0, 102]),
   midi.PitchWheelEvent(tick=16, channel=3, data=[0, 104]),
   midi.PitchWheelEvent(tick=16, channel=3, data=[0, 106]),
   midi.PitchWheelEvent(tick=16, channel=3, data=[0, 107]),
   midi.PitchWheelEvent(tick=16, channel=3, data=[0, 109]),
   midi.PitchWheelEvent(tick=16, channel=3, data=[0, 110]),
   midi.PitchWheelEvent(tick=16, channel=3, data=[0, 112]),
   midi.NoteOffEvent(tick=480, channel=3, data=[80, 80]),
   midi.PitchWheelEvent(tick=0, channel=3, data=[0, 64]),
   midi.NoteOnEvent(tick=0, channel=3, data=[80, 95]),
   midi.PitchWheelEvent(tick=0, channel=3, data=[0, 64]),
   midi.PitchWheelEvent(tick=16, channel=3, data=[0, 74]),
   midi.PitchWheelEvent(tick=16, channel=3, data=[0, 83]),
   midi.PitchWheelEvent(tick=16, channel=3, data=[0, 93]),
   midi.PitchWheelEvent(tick=16, channel=3, data=[0, 102]),
   midi.PitchWheelEvent(tick=16, channel=3, data=[0, 112]),
   midi.PitchWheelEvent(tick=96, channel=3, data=[0, 102]),
   midi.PitchWheelEvent(tick=16, channel=3, data=[0, 93]),
   midi.PitchWheelEvent(tick=16, channel=3, data=[0, 83]),
   midi.PitchWheelEvent(tick=16, channel=3, data=[0, 74]),
   midi.PitchWheelEvent(tick=16, channel=3, data=[0, 64]),
   midi.NoteOffEvent(tick=80, channel=3, data=[80, 80]),
   midi.PitchWheelEvent(tick=0, channel=3, data=[0, 64]),
   midi.NoteOnEvent(tick=0, channel=2, data=[77, 95]),
   midi.NoteOffEvent(tick=80, channel=2, data=[77, 80]),
   midi.NoteOnEvent(tick=0, channel=2, data=[75, 95]),
   midi.NoteOffEvent(tick=80, channel=2, data=[75, 80]),
   midi.NoteOnEvent(tick=0, channel=2, data=[72, 95]),
   midi.NoteOffEvent(tick=80, channel=2, data=[72, 80]),
   midi.NoteOnEvent(tick=0, channel=2, data=[71, 95]),
   midi.NoteOffEvent(tick=80, channel=2, data=[71, 80]),
   midi.NoteOnEvent(tick=0, channel=2, data=[72, 95]),
   midi.NoteOffEvent(tick=80, channel=2, data=[72, 80]),
   midi.NoteOnEvent(tick=0, channel=3, data=[70, 95]),
   midi.PitchWheelEvent(tick=0, channel=3, data=[0, 64]),
   midi.PitchWheelEvent(tick=16, channel=3, data=[0, 112]),
   midi.PitchWheelEvent(tick=16, channel=3, data=[0, 106]),
   midi.PitchWheelEvent(tick=16, channel=3, data=[0, 64]),
   midi.NoteOffEvent(tick=12, channel=3, data=[70, 80]),
   midi.PitchWheelEvent(tick=0, channel=3, data=[0, 64]),
   midi.NoteOnEvent(tick=0, channel=2, data=[70, 95]),
   midi.NoteOffEvent(tick=60, channel=2, data=[70, 80]),
   midi.NoteOnEvent(tick=0, channel=2, data=[68, 95]),
   midi.NoteOffEvent(tick=60, channel=2, data=[68, 80]),
   midi.NoteOnEvent(tick=0, channel=2, data=[65, 95]),
   midi.NoteOffEvent(tick=60, channel=2, data=[65, 80]),
   midi.NoteOnEvent(tick=0, channel=2, data=[68, 95]),
   midi.NoteOffEvent(tick=80, channel=2, data=[68, 80]),
   midi.NoteOnEvent(tick=0, channel=2, data=[70, 95]),
   midi.NoteOffEvent(tick=80, channel=2, data=[70, 80]),
   midi.NoteOnEvent(tick=0, channel=2, data=[72, 95]),
   midi.NoteOffEvent(tick=80, channel=2, data=[72, 80]),
   midi.NoteOnEvent(tick=0, channel=2, data=[75, 95]),
   midi.NoteOffEvent(tick=60, channel=2, data=[75, 80]),
   midi.NoteOnEvent(tick=0, channel=2, data=[77, 95]),
   midi.NoteOffEvent(tick=60, channel=2, data=[77, 80]),
   midi.NoteOnEvent(tick=0, channel=2, data=[75, 95]),
   midi.NoteOffEvent(tick=60, channel=2, data=[75, 80]),
   midi.NoteOnEvent(tick=0, channel=2, data=[72, 95]),
   midi.NoteOffEvent(tick=60, channel=2, data=[72, 80]),
   midi.NoteOnEvent(tick=0, channel=2, data=[80, 95]),
   midi.NoteOffEvent(tick=60, channel=2, data=[80, 80]),
   midi.NoteOnEvent(tick=0, channel=2, data=[77, 76]),
   midi.NoteOffEvent(tick=60, channel=2, data=[77, 80]),
   midi.NoteOnEvent(tick=0, channel=2, data=[75, 95]),
   midi.NoteOffEvent(tick=60, channel=2, data=[75, 80]),
   midi.NoteOnEvent(tick=0, channel=2, data=[72, 76]),
   midi.NoteOffEvent(tick=60, channel=2, data=[72, 80]),
   midi.NoteOnEvent(tick=0, channel=3, data=[75, 95]),
   midi.PitchWheelEvent(tick=0, channel=3, data=[0, 64]),
   midi.PitchWheelEvent(tick=16, channel=3, data=[0, 77]),
   midi.PitchWheelEvent(tick=16, channel=3, data=[0, 90]),
   midi.PitchWheelEvent(tick=16, channel=3, data=[0, 102]),
   midi.PitchWheelEvent(tick=16, channel=3, data=[0, 112]),
   midi.NoteOffEvent(tick=56, channel=3, data=[75, 80]),
   midi.PitchWheelEvent(tick=0, channel=3, data=[0, 64]),
   midi.NoteOnEvent(tick=0, channel=2, data=[75, 95]),
   midi.NoteOffEvent(tick=60, channel=2, data=[75, 80]),
   midi.NoteOnEvent(tick=0, channel=2, data=[72, 76]),
   midi.NoteOffEvent(tick=60, channel=2, data=[72, 80]),
   midi.NoteOnEvent(tick=0, channel=2, data=[80, 95]),
   midi.NoteOffEvent(tick=60, channel=2, data=[80, 80]),
   midi.NoteOnEvent(tick=0, channel=2, data=[77, 76]),
   midi.NoteOffEvent(tick=60, channel=2, data=[77, 80]),
   midi.NoteOnEvent(tick=0, channel=2, data=[75, 95]),
   midi.NoteOffEvent(tick=60, channel=2, data=[75, 80]),
   midi.NoteOnEvent(tick=0, channel=2, data=[72, 76]),
   midi.NoteOffEvent(tick=60, channel=2, data=[72, 80]),
   midi.NoteOnEvent(tick=0, channel=2, data=[80, 95]),
   midi.NoteOffEvent(tick=60, channel=2, data=[80, 80]),
   midi.NoteOnEvent(tick=0, channel=2, data=[77, 76]),
   midi.NoteOffEvent(tick=60, channel=2, data=[77, 80]),
   midi.NoteOnEvent(tick=0, channel=2, data=[75, 95]),
   midi.NoteOffEvent(tick=60, channel=2, data=[75, 80]),
   midi.NoteOnEvent(tick=0, channel=2, data=[72, 76]),
   midi.NoteOffEvent(tick=60, channel=2, data=[72, 80]),
   midi.NoteOnEvent(tick=0, channel=2, data=[80, 95]),
   midi.NoteOffEvent(tick=60, channel=2, data=[80, 80]),
   midi.NoteOnEvent(tick=0, channel=2, data=[77, 76]),
   midi.NoteOffEvent(tick=60, channel=2, data=[77, 80]),
   midi.NoteOnEvent(tick=0, channel=3, data=[75, 95]),
   midi.PitchWheelEvent(tick=30, channel=3, data=[0, 72]),
   midi.NoteOffEvent(tick=30, channel=3, data=[75, 80]),
   midi.PitchWheelEvent(tick=0, channel=3, data=[0, 64]),
   midi.NoteOnEvent(tick=0, channel=2, data=[77, 76]),
   midi.NoteOffEvent(tick=60, channel=2, data=[77, 80]),
   midi.NoteOnEvent(tick=0, channel=2, data=[75, 95]),
   midi.NoteOffEvent(tick=60, channel=2, data=[75, 80]),
   midi.NoteOnEvent(tick=0, channel=2, data=[77, 76]),
   midi.NoteOffEvent(tick=60, channel=2, data=[77, 80]),
   midi.NoteOnEvent(tick=0, channel=2, data=[79, 76]),
   midi.NoteOffEvent(tick=60, channel=2, data=[79, 80]),
   midi.NoteOnEvent(tick=0, channel=2, data=[80, 95]),
   midi.NoteOffEvent(tick=60, channel=2, data=[80, 80]),
   midi.NoteOnEvent(tick=0, channel=2, data=[82, 76]),
   midi.NoteOffEvent(tick=60, channel=2, data=[82, 80]),
   midi.NoteOnEvent(tick=0, channel=2, data=[84, 76]),
   midi.NoteOffEvent(tick=60, channel=2, data=[84, 80]),
   midi.NoteOnEvent(tick=0, channel=2, data=[82, 76]),
   midi.NoteOffEvent(tick=60, channel=2, data=[82, 80]),
   midi.NoteOnEvent(tick=0, channel=2, data=[80, 76]),
   midi.NoteOffEvent(tick=60, channel=2, data=[80, 80]),
   midi.NoteOnEvent(tick=0, channel=2, data=[82, 76]),
   midi.NoteOffEvent(tick=60, channel=2, data=[82, 80]),
   midi.NoteOnEvent(tick=0, channel=2, data=[80, 76]),
   midi.NoteOffEvent(tick=60, channel=2, data=[80, 80]),
   midi.NoteOnEvent(tick=0, channel=2, data=[79, 95]),
   midi.NoteOffEvent(tick=60, channel=2, data=[79, 80]),
   midi.NoteOnEvent(tick=0, channel=2, data=[80, 95]),
   midi.NoteOffEvent(tick=60, channel=2, data=[80, 80]),
   midi.NoteOnEvent(tick=0, channel=2, data=[82, 95]),
   midi.NoteOffEvent(tick=60, channel=2, data=[82, 80]),
   midi.NoteOnEvent(tick=0, channel=2, data=[84, 76]),
   midi.NoteOffEvent(tick=60, channel=2, data=[84, 80]),
   midi.NoteOnEvent(tick=0, channel=2, data=[82, 76]),
   midi.NoteOffEvent(tick=60, channel=2, data=[82, 80]),
   midi.NoteOnEvent(tick=0, channel=2, data=[80, 76]),
   midi.NoteOffEvent(tick=60, channel=2, data=[80, 80]),
   midi.NoteOnEvent(tick=0, channel=2, data=[82, 76]),
   midi.NoteOffEvent(tick=60, channel=2, data=[82, 80]),
   midi.NoteOnEvent(tick=0, channel=2, data=[80, 76]),
   midi.NoteOffEvent(tick=60, channel=2, data=[80, 80]),
   midi.NoteOnEvent(tick=0, channel=2, data=[79, 95]),
   midi.NoteOffEvent(tick=60, channel=2, data=[79, 80]),
   midi.NoteOnEvent(tick=0, channel=3, data=[85, 95]),
   midi.PitchWheelEvent(tick=0, channel=3, data=[0, 64]),
   midi.PitchWheelEvent(tick=16, channel=3, data=[0, 67]),
   midi.PitchWheelEvent(tick=16, channel=3, data=[0, 70]),
   midi.PitchWheelEvent(tick=16, channel=3, data=[0, 72]),
   midi.PitchWheelEvent(tick=16, channel=3, data=[0, 75]),
   midi.PitchWheelEvent(tick=16, channel=3, data=[0, 78]),
   midi.PitchWheelEvent(tick=16, channel=3, data=[0, 82]),
   midi.PitchWheelEvent(tick=16, channel=3, data=[0, 83]),
   midi.PitchWheelEvent(tick=16, channel=3, data=[0, 86]),
   midi.PitchWheelEvent(tick=16, channel=3, data=[0, 90]),
   midi.PitchWheelEvent(tick=16, channel=3, data=[0, 93]),
   midi.PitchWheelEvent(tick=16, channel=3, data=[0, 96]),
   midi.PitchWheelEvent(tick=16, channel=3, data=[0, 98]),
   midi.PitchWheelEvent(tick=16, channel=3, data=[0, 101]),
   midi.PitchWheelEvent(tick=16, channel=3, data=[0, 104]),
   midi.PitchWheelEvent(tick=16, channel=3, data=[0, 107]),
   midi.PitchWheelEvent(tick=16, channel=3, data=[0, 109]),
   midi.PitchWheelEvent(tick=16, channel=3, data=[0, 112]),
   midi.NoteOffEvent(tick=268, channel=3, data=[85, 80]),
   midi.PitchWheelEvent(tick=0, channel=3, data=[0, 64]),
   midi.NoteOnEvent(tick=0, channel=3, data=[85, 95]),
   midi.PitchWheelEvent(tick=0, channel=3, data=[0, 64]),
   midi.PitchWheelEvent(tick=16, channel=3, data=[0, 66]),
   midi.PitchWheelEvent(tick=16, channel=3, data=[0, 67]),
   midi.PitchWheelEvent(tick=16, channel=3, data=[0, 69]),
   midi.PitchWheelEvent(tick=16, channel=3, data=[0, 70]),
   midi.PitchWheelEvent(tick=16, channel=3, data=[0, 72]),
   midi.PitchWheelEvent(tick=16, channel=3, data=[0, 74]),
   midi.PitchWheelEvent(tick=16, channel=3, data=[0, 75]),
   midi.PitchWheelEvent(tick=16, channel=3, data=[0, 77]),
   midi.PitchWheelEvent(tick=16, channel=3, data=[0, 78]),
   midi.PitchWheelEvent(tick=16, channel=3, data=[0, 80]),
   midi.PitchWheelEvent(tick=16, channel=3, data=[0, 82]),
   midi.PitchWheelEvent(tick=16, channel=3, data=[0, 83]),
   midi.PitchWheelEvent(tick=16, channel=3, data=[0, 85]),
   midi.PitchWheelEvent(tick=16, channel=3, data=[0, 86]),
   midi.PitchWheelEvent(tick=16, channel=3, data=[0, 88]),
   midi.PitchWheelEvent(tick=16, channel=3, data=[0, 90]),
   midi.PitchWheelEvent(tick=16, channel=3, data=[0, 91]),
   midi.PitchWheelEvent(tick=16, channel=3, data=[0, 93]),
   midi.PitchWheelEvent(tick=16, channel=3, data=[0, 94]),
   midi.PitchWheelEvent(tick=16, channel=3, data=[0, 96]),
   midi.PitchWheelEvent(tick=16, channel=3, data=[0, 98]),
   midi.PitchWheelEvent(tick=16, channel=3, data=[0, 99]),
   midi.PitchWheelEvent(tick=16, channel=3, data=[0, 101]),
   midi.PitchWheelEvent(tick=16, channel=3, data=[0, 102]),
   midi.PitchWheelEvent(tick=16, channel=3, data=[0, 104]),
   midi.PitchWheelEvent(tick=16, channel=3, data=[0, 106]),
   midi.PitchWheelEvent(tick=16, channel=3, data=[0, 107]),
   midi.PitchWheelEvent(tick=16, channel=3, data=[0, 109]),
   midi.PitchWheelEvent(tick=16, channel=3, data=[0, 110]),
   midi.PitchWheelEvent(tick=16, channel=3, data=[0, 114]),
   midi.PitchWheelEvent(tick=32, channel=3, data=[0, 112]),
   midi.PitchWheelEvent(tick=32, channel=3, data=[0, 110]),
   midi.PitchWheelEvent(tick=32, channel=3, data=[0, 112]),
   midi.PitchWheelEvent(tick=32, channel=3, data=[0, 114]),
   midi.PitchWheelEvent(tick=32, channel=3, data=[0, 112]),
   midi.PitchWheelEvent(tick=32, channel=3, data=[0, 110]),
   midi.PitchWheelEvent(tick=32, channel=3, data=[0, 112]),
   midi.PitchWheelEvent(tick=32, channel=3, data=[0, 114]),
   midi.PitchWheelEvent(tick=32, channel=3, data=[0, 112]),
   midi.PitchWheelEvent(tick=32, channel=3, data=[0, 110]),
   midi.PitchWheelEvent(tick=32, channel=3, data=[0, 112]),
   midi.PitchWheelEvent(tick=32, channel=3, data=[0, 114]),
   midi.PitchWheelEvent(tick=32, channel=3, data=[0, 112]),
   midi.PitchWheelEvent(tick=32, channel=3, data=[0, 110]),
   midi.NoteOffEvent(tick=32, channel=3, data=[85, 80]),
   midi.PitchWheelEvent(tick=0, channel=3, data=[0, 112]),
   midi.PitchWheelEvent(tick=0, channel=3, data=[0, 64]),
   midi.NoteOnEvent(tick=0, channel=3, data=[85, 95]),
   midi.PitchWheelEvent(tick=0, channel=3, data=[0, 64]),
   midi.PitchWheelEvent(tick=16, channel=3, data=[0, 70]),
   midi.PitchWheelEvent(tick=16, channel=3, data=[0, 77]),
   midi.PitchWheelEvent(tick=16, channel=3, data=[0, 83]),
   midi.PitchWheelEvent(tick=16, channel=3, data=[0, 90]),
   midi.PitchWheelEvent(tick=16, channel=3, data=[0, 96]),
   midi.PitchWheelEvent(tick=16, channel=3, data=[0, 102]),
   midi.PitchWheelEvent(tick=16, channel=3, data=[0, 109]),
   midi.PitchWheelEvent(tick=16, channel=3, data=[0, 112]),
   midi.PitchWheelEvent(tick=128, channel=3, data=[0, 106]),
   midi.PitchWheelEvent(tick=16, channel=3, data=[0, 99]),
   midi.PitchWheelEvent(tick=16, channel=3, data=[0, 93]),
   midi.PitchWheelEvent(tick=16, channel=3, data=[0, 86]),
   midi.PitchWheelEvent(tick=16, channel=3, data=[0, 80]),
   midi.PitchWheelEvent(tick=16, channel=3, data=[0, 74]),
   midi.PitchWheelEvent(tick=16, channel=3, data=[0, 67]),
   midi.PitchWheelEvent(tick=16, channel=3, data=[0, 64]),
   midi.NoteOffEvent(tick=112, channel=3, data=[85, 80]),
   midi.PitchWheelEvent(tick=0, channel=3, data=[0, 64]),
   midi.NoteOnEvent(tick=0, channel=3, data=[85, 95]),
   midi.PitchWheelEvent(tick=0, channel=3, data=[0, 64]),
   midi.PitchWheelEvent(tick=16, channel=3, data=[0, 67]),
   midi.PitchWheelEvent(tick=16, channel=3, data=[0, 70]),
   midi.PitchWheelEvent(tick=16, channel=3, data=[0, 74]),
   midi.PitchWheelEvent(tick=16, channel=3, data=[0, 77]),
   midi.PitchWheelEvent(tick=16, channel=3, data=[0, 80]),
   midi.PitchWheelEvent(tick=16, channel=3, data=[0, 83]),
   midi.PitchWheelEvent(tick=16, channel=3, data=[0, 86]),
   midi.PitchWheelEvent(tick=16, channel=3, data=[0, 90]),
   midi.PitchWheelEvent(tick=16, channel=3, data=[0, 93]),
   midi.PitchWheelEvent(tick=16, channel=3, data=[0, 96]),
   midi.PitchWheelEvent(tick=16, channel=3, data=[0, 99]),
   midi.PitchWheelEvent(tick=16, channel=3, data=[0, 102]),
   midi.PitchWheelEvent(tick=16, channel=3, data=[0, 106]),
   midi.PitchWheelEvent(tick=16, channel=3, data=[0, 109]),
   midi.PitchWheelEvent(tick=16, channel=3, data=[0, 112]),
   midi.NoteOffEvent(tick=240, channel=3, data=[85, 80]),
   midi.PitchWheelEvent(tick=0, channel=3, data=[0, 64]),
   midi.NoteOnEvent(tick=1440, channel=2, data=[51, 95]),
   midi.NoteOffEvent(tick=360, channel=2, data=[51, 80]),
   midi.NoteOnEvent(tick=0, channel=2, data=[58, 95]),
   midi.NoteOffEvent(tick=360, channel=2, data=[58, 80]),
   midi.NoteOnEvent(tick=0, channel=2, data=[54, 95]),
   midi.NoteOffEvent(tick=240, channel=2, data=[54, 80]),
   midi.NoteOnEvent(tick=0, channel=2, data=[56, 95]),
   midi.NoteOffEvent(tick=360, channel=2, data=[56, 80]),
   midi.NoteOnEvent(tick=0, channel=2, data=[61, 95]),
   midi.NoteOffEvent(tick=360, channel=2, data=[61, 80]),
   midi.NoteOnEvent(tick=0, channel=2, data=[56, 95]),
   midi.NoteOffEvent(tick=240, channel=2, data=[56, 80]),
   midi.NoteOnEvent(tick=0, channel=2, data=[54, 95]),
   midi.NoteOffEvent(tick=360, channel=2, data=[54, 80]),
   midi.NoteOnEvent(tick=0, channel=2, data=[58, 95]),
   midi.NoteOffEvent(tick=360, channel=2, data=[58, 80]),
   midi.NoteOnEvent(tick=0, channel=2, data=[54, 95]),
   midi.NoteOffEvent(tick=240, channel=2, data=[54, 80]),
   midi.NoteOnEvent(tick=0, channel=2, data=[51, 95]),
   midi.NoteOffEvent(tick=480, channel=2, data=[51, 80]),
   midi.NoteOnEvent(tick=0, channel=3, data=[66, 95]),
   midi.PitchWheelEvent(tick=240, channel=3, data=[0, 56]),
   midi.PitchWheelEvent(tick=34, channel=3, data=[0, 48]),
   midi.PitchWheelEvent(tick=35, channel=3, data=[0, 40]),
   midi.PitchWheelEvent(tick=34, channel=3, data=[0, 32]),
   midi.PitchWheelEvent(tick=34, channel=3, data=[0, 24]),
   midi.PitchWheelEvent(tick=34, channel=3, data=[0, 16]),
   midi.PitchWheelEvent(tick=35, channel=3, data=[0, 8]),
   midi.NoteOffEvent(tick=34, channel=3, data=[66, 80]),
   midi.PitchWheelEvent(tick=0, channel=3, data=[0, 0]),
   midi.NoteOnEvent(tick=0, channel=2, data=[51, 95]),
   midi.PitchWheelEvent(tick=34, channel=3, data=[0, 64]),
   midi.NoteOffEvent(tick=326, channel=2, data=[51, 80]),
   midi.NoteOnEvent(tick=0, channel=2, data=[58, 95]),
   midi.NoteOffEvent(tick=360, channel=2, data=[58, 80]),
   midi.NoteOnEvent(tick=0, channel=2, data=[54, 95]),
   midi.NoteOffEvent(tick=240, channel=2, data=[54, 80]),
   midi.NoteOnEvent(tick=0, channel=2, data=[56, 95]),
   midi.NoteOffEvent(tick=360, channel=2, data=[56, 80]),
   midi.NoteOnEvent(tick=0, channel=2, data=[61, 95]),
   midi.NoteOffEvent(tick=360, channel=2, data=[61, 80]),
   midi.NoteOnEvent(tick=0, channel=2, data=[56, 95]),
   midi.NoteOffEvent(tick=240, channel=2, data=[56, 80]),
   midi.NoteOnEvent(tick=0, channel=2, data=[54, 95]),
   midi.NoteOffEvent(tick=360, channel=2, data=[54, 80]),
   midi.NoteOnEvent(tick=0, channel=2, data=[58, 95]),
   midi.NoteOffEvent(tick=360, channel=2, data=[58, 80]),
   midi.NoteOnEvent(tick=0, channel=2, data=[54, 95]),
   midi.NoteOffEvent(tick=240, channel=2, data=[54, 80]),
   midi.NoteOnEvent(tick=0, channel=2, data=[51, 95]),
   midi.NoteOffEvent(tick=360, channel=2, data=[51, 80]),
   midi.NoteOnEvent(tick=0, channel=2, data=[59, 95]),
   midi.NoteOffEvent(tick=360, channel=2, data=[59, 80]),
   midi.NoteOnEvent(tick=0, channel=2, data=[58, 95]),
   midi.NoteOffEvent(tick=240, channel=2, data=[58, 80]),
   midi.NoteOnEvent(tick=0, channel=2, data=[51, 95]),
   midi.NoteOffEvent(tick=360, channel=2, data=[51, 80]),
   midi.NoteOnEvent(tick=0, channel=2, data=[58, 95]),
   midi.NoteOffEvent(tick=360, channel=2, data=[58, 80]),
   midi.NoteOnEvent(tick=0, channel=2, data=[54, 95]),
   midi.NoteOffEvent(tick=240, channel=2, data=[54, 80]),
   midi.NoteOnEvent(tick=0, channel=2, data=[56, 95]),
   midi.NoteOffEvent(tick=360, channel=2, data=[56, 80]),
   midi.NoteOnEvent(tick=0, channel=2, data=[61, 95]),
   midi.NoteOffEvent(tick=360, channel=2, data=[61, 80]),
   midi.NoteOnEvent(tick=0, channel=2, data=[56, 95]),
   midi.NoteOffEvent(tick=240, channel=2, data=[56, 80]),
   midi.NoteOnEvent(tick=3840, channel=2, data=[44, 95]),
   midi.NoteOffEvent(tick=360, channel=2, data=[44, 80]),
   midi.NoteOnEvent(tick=0, channel=2, data=[66, 95]),
   midi.NoteOffEvent(tick=360, channel=2, data=[66, 80]),
   midi.NoteOnEvent(tick=0, channel=2, data=[73, 95]),
   midi.NoteOffEvent(tick=240, channel=2, data=[73, 80]),
   midi.NoteOnEvent(tick=0, channel=3, data=[72, 95]),
   midi.PitchWheelEvent(tick=80, channel=3, data=[0, 64]),
   midi.PitchWheelEvent(tick=80, channel=3, data=[0, 67]),
   midi.PitchWheelEvent(tick=80, channel=3, data=[0, 64]),
   midi.PitchWheelEvent(tick=80, channel=3, data=[0, 67]),
   midi.PitchWheelEvent(tick=40, channel=3, data=[0, 64]),
   midi.NoteOffEvent(tick=0, channel=3, data=[72, 80]),
   midi.NoteOnEvent(tick=0, channel=2, data=[68, 95]),
   midi.NoteOffEvent(tick=360, channel=2, data=[68, 80]),
   midi.NoteOnEvent(tick=0, channel=2, data=[66, 95]),
   midi.NoteOffEvent(tick=240, channel=2, data=[66, 80]),
   midi.NoteOnEvent(tick=0, channel=2, data=[44, 95]),
   midi.NoteOffEvent(tick=360, channel=2, data=[44, 80]),
   midi.NoteOnEvent(tick=0, channel=2, data=[64, 95]),
   midi.NoteOffEvent(tick=360, channel=2, data=[64, 80]),
   midi.NoteOnEvent(tick=0, channel=2, data=[71, 95]),
   midi.NoteOffEvent(tick=240, channel=2, data=[71, 80]),
   midi.NoteOnEvent(tick=0, channel=3, data=[70, 95]),
   midi.PitchWheelEvent(tick=80, channel=3, data=[0, 64]),
   midi.PitchWheelEvent(tick=80, channel=3, data=[0, 67]),
   midi.PitchWheelEvent(tick=80, channel=3, data=[0, 64]),
   midi.PitchWheelEvent(tick=80, channel=3, data=[0, 67]),
   midi.PitchWheelEvent(tick=40, channel=3, data=[0, 64]),
   midi.NoteOffEvent(tick=0, channel=3, data=[70, 80]),
   midi.NoteOnEvent(tick=0, channel=2, data=[66, 95]),
   midi.NoteOffEvent(tick=360, channel=2, data=[66, 80]),
   midi.NoteOnEvent(tick=0, channel=2, data=[64, 95]),
   midi.NoteOffEvent(tick=240, channel=2, data=[64, 80]),
   midi.NoteOnEvent(tick=0, channel=2, data=[44, 95]),
   midi.NoteOffEvent(tick=360, channel=2, data=[44, 80]),
   midi.NoteOnEvent(tick=0, channel=2, data=[66, 95]),
   midi.NoteOffEvent(tick=360, channel=2, data=[66, 80]),
   midi.NoteOnEvent(tick=0, channel=2, data=[73, 95]),
   midi.NoteOffEvent(tick=240, channel=2, data=[73, 80]),
   midi.NoteOnEvent(tick=0, channel=3, data=[72, 95]),
   midi.PitchWheelEvent(tick=80, channel=3, data=[0, 64]),
   midi.PitchWheelEvent(tick=80, channel=3, data=[0, 67]),
   midi.PitchWheelEvent(tick=80, channel=3, data=[0, 64]),
   midi.PitchWheelEvent(tick=80, channel=3, data=[0, 67]),
   midi.PitchWheelEvent(tick=40, channel=3, data=[0, 64]),
   midi.NoteOffEvent(tick=0, channel=3, data=[72, 80]),
   midi.NoteOnEvent(tick=0, channel=2, data=[68, 95]),
   midi.NoteOffEvent(tick=360, channel=2, data=[68, 80]),
   midi.NoteOnEvent(tick=0, channel=2, data=[66, 95]),
   midi.NoteOffEvent(tick=240, channel=2, data=[66, 80]),
   midi.NoteOnEvent(tick=0, channel=2, data=[44, 95]),
   midi.NoteOffEvent(tick=360, channel=2, data=[44, 80]),
   midi.NoteOnEvent(tick=0, channel=2, data=[64, 95]),
   midi.NoteOffEvent(tick=360, channel=2, data=[64, 80]),
   midi.NoteOnEvent(tick=0, channel=2, data=[71, 95]),
   midi.NoteOffEvent(tick=240, channel=2, data=[71, 80]),
   midi.NoteOnEvent(tick=0, channel=3, data=[70, 95]),
   midi.PitchWheelEvent(tick=80, channel=3, data=[0, 64]),
   midi.PitchWheelEvent(tick=80, channel=3, data=[0, 67]),
   midi.PitchWheelEvent(tick=80, channel=3, data=[0, 64]),
   midi.PitchWheelEvent(tick=80, channel=3, data=[0, 67]),
   midi.PitchWheelEvent(tick=40, channel=3, data=[0, 64]),
   midi.NoteOffEvent(tick=0, channel=3, data=[70, 80]),
   midi.NoteOnEvent(tick=0, channel=2, data=[66, 95]),
   midi.NoteOffEvent(tick=360, channel=2, data=[66, 80]),
   midi.NoteOnEvent(tick=0, channel=2, data=[64, 95]),
   midi.NoteOffEvent(tick=240, channel=2, data=[64, 80]),
   midi.NoteOnEvent(tick=0, channel=2, data=[44, 95]),
   midi.NoteOffEvent(tick=360, channel=2, data=[44, 80]),
   midi.NoteOnEvent(tick=0, channel=2, data=[66, 95]),
   midi.NoteOffEvent(tick=360, channel=2, data=[66, 80]),
   midi.NoteOnEvent(tick=0, channel=2, data=[73, 95]),
   midi.NoteOffEvent(tick=240, channel=2, data=[73, 80]),
   midi.NoteOnEvent(tick=0, channel=3, data=[72, 95]),
   midi.PitchWheelEvent(tick=80, channel=3, data=[0, 64]),
   midi.PitchWheelEvent(tick=80, channel=3, data=[0, 67]),
   midi.PitchWheelEvent(tick=80, channel=3, data=[0, 64]),
   midi.PitchWheelEvent(tick=80, channel=3, data=[0, 67]),
   midi.PitchWheelEvent(tick=40, channel=3, data=[0, 64]),
   midi.NoteOffEvent(tick=0, channel=3, data=[72, 80]),
   midi.NoteOnEvent(tick=0, channel=2, data=[68, 95]),
   midi.NoteOffEvent(tick=360, channel=2, data=[68, 80]),
   midi.NoteOnEvent(tick=0, channel=2, data=[66, 95]),
   midi.NoteOffEvent(tick=240, channel=2, data=[66, 80]),
   midi.NoteOnEvent(tick=0, channel=2, data=[44, 95]),
   midi.NoteOffEvent(tick=360, channel=2, data=[44, 80]),
   midi.NoteOnEvent(tick=0, channel=2, data=[64, 95]),
   midi.NoteOffEvent(tick=360, channel=2, data=[64, 80]),
   midi.NoteOnEvent(tick=0, channel=2, data=[71, 95]),
   midi.NoteOffEvent(tick=240, channel=2, data=[71, 80]),
   midi.NoteOnEvent(tick=0, channel=3, data=[70, 95]),
   midi.PitchWheelEvent(tick=80, channel=3, data=[0, 64]),
   midi.PitchWheelEvent(tick=80, channel=3, data=[0, 67]),
   midi.PitchWheelEvent(tick=80, channel=3, data=[0, 64]),
   midi.PitchWheelEvent(tick=80, channel=3, data=[0, 67]),
   midi.PitchWheelEvent(tick=40, channel=3, data=[0, 64]),
   midi.NoteOffEvent(tick=0, channel=3, data=[70, 80]),
   midi.NoteOnEvent(tick=0, channel=2, data=[66, 95]),
   midi.NoteOffEvent(tick=360, channel=2, data=[66, 80]),
   midi.NoteOnEvent(tick=0, channel=2, data=[64, 95]),
   midi.NoteOffEvent(tick=240, channel=2, data=[64, 80]),
   midi.NoteOnEvent(tick=0, channel=2, data=[44, 95]),
   midi.NoteOffEvent(tick=360, channel=2, data=[44, 80]),
   midi.NoteOnEvent(tick=0, channel=2, data=[63, 95]),
   midi.NoteOffEvent(tick=360, channel=2, data=[63, 80]),
   midi.NoteOnEvent(tick=0, channel=2, data=[70, 95]),
   midi.NoteOffEvent(tick=240, channel=2, data=[70, 80]),
   midi.NoteOnEvent(tick=0, channel=3, data=[71, 95]),
   midi.PitchWheelEvent(tick=80, channel=3, data=[0, 64]),
   midi.PitchWheelEvent(tick=80, channel=3, data=[0, 67]),
   midi.PitchWheelEvent(tick=80, channel=3, data=[0, 64]),
   midi.PitchWheelEvent(tick=80, channel=3, data=[0, 67]),
   midi.PitchWheelEvent(tick=40, channel=3, data=[0, 64]),
   midi.NoteOffEvent(tick=0, channel=3, data=[71, 80]),
   midi.NoteOnEvent(tick=0, channel=2, data=[70, 95]),
   midi.NoteOffEvent(tick=360, channel=2, data=[70, 80]),
   midi.NoteOnEvent(tick=0, channel=2, data=[66, 95]),
   midi.NoteOffEvent(tick=240, channel=2, data=[66, 80]),
   midi.NoteOnEvent(tick=0, channel=2, data=[44, 95]),
   midi.NoteOffEvent(tick=360, channel=2, data=[44, 80]),
   midi.NoteOnEvent(tick=0, channel=2, data=[64, 95]),
   midi.NoteOffEvent(tick=360, channel=2, data=[64, 80]),
   midi.NoteOnEvent(tick=0, channel=3, data=[71, 95]),
   midi.PitchWheelEvent(tick=80, channel=3, data=[0, 64]),
   midi.PitchWheelEvent(tick=80, channel=3, data=[0, 67]),
   midi.PitchWheelEvent(tick=80, channel=3, data=[0, 64]),
   midi.PitchWheelEvent(tick=0, channel=3, data=[0, 64]),
   midi.NoteOffEvent(tick=0, channel=3, data=[71, 80]),
   midi.NoteOnEvent(tick=0, channel=2, data=[44, 95]),
   midi.NoteOffEvent(tick=360, channel=2, data=[44, 80]),
   midi.NoteOnEvent(tick=0, channel=2, data=[65, 95]),
   midi.NoteOffEvent(tick=360, channel=2, data=[65, 80]),
   midi.NoteOnEvent(tick=0, channel=3, data=[71, 95]),
   midi.PitchWheelEvent(tick=80, channel=3, data=[0, 64]),
   midi.PitchWheelEvent(tick=80, channel=3, data=[0, 67]),
   midi.PitchWheelEvent(tick=80, channel=3, data=[0, 64]),
   midi.PitchWheelEvent(tick=0, channel=3, data=[0, 64]),
   midi.NoteOffEvent(tick=0, channel=3, data=[71, 80]),
   midi.NoteOnEvent(tick=0, channel=2, data=[44, 95]),
   midi.NoteOffEvent(tick=360, channel=2, data=[44, 80]),
   midi.NoteOnEvent(tick=0, channel=2, data=[66, 95]),
   midi.NoteOffEvent(tick=360, channel=2, data=[66, 80]),
   midi.NoteOnEvent(tick=0, channel=2, data=[73, 95]),
   midi.NoteOffEvent(tick=240, channel=2, data=[73, 80]),
   midi.NoteOnEvent(tick=0, channel=3, data=[72, 95]),
   midi.PitchWheelEvent(tick=80, channel=3, data=[0, 64]),
   midi.PitchWheelEvent(tick=80, channel=3, data=[0, 67]),
   midi.PitchWheelEvent(tick=80, channel=3, data=[0, 64]),
   midi.PitchWheelEvent(tick=80, channel=3, data=[0, 67]),
   midi.PitchWheelEvent(tick=40, channel=3, data=[0, 64]),
   midi.NoteOffEvent(tick=0, channel=3, data=[72, 80]),
   midi.NoteOnEvent(tick=0, channel=2, data=[68, 95]),
   midi.NoteOffEvent(tick=360, channel=2, data=[68, 80]),
   midi.NoteOnEvent(tick=0, channel=2, data=[66, 95]),
   midi.NoteOffEvent(tick=240, channel=2, data=[66, 80]),
   midi.NoteOnEvent(tick=0, channel=2, data=[44, 95]),
   midi.NoteOffEvent(tick=360, channel=2, data=[44, 80]),
   midi.NoteOnEvent(tick=0, channel=2, data=[64, 95]),
   midi.NoteOffEvent(tick=360, channel=2, data=[64, 80]),
   midi.NoteOnEvent(tick=0, channel=2, data=[71, 95]),
   midi.NoteOffEvent(tick=240, channel=2, data=[71, 80]),
   midi.NoteOnEvent(tick=0, channel=3, data=[70, 95]),
   midi.PitchWheelEvent(tick=80, channel=3, data=[0, 64]),
   midi.PitchWheelEvent(tick=80, channel=3, data=[0, 67]),
   midi.PitchWheelEvent(tick=80, channel=3, data=[0, 64]),
   midi.PitchWheelEvent(tick=80, channel=3, data=[0, 67]),
   midi.PitchWheelEvent(tick=40, channel=3, data=[0, 64]),
   midi.NoteOffEvent(tick=0, channel=3, data=[70, 80]),
   midi.NoteOnEvent(tick=0, channel=2, data=[66, 95]),
   midi.NoteOffEvent(tick=360, channel=2, data=[66, 80]),
   midi.NoteOnEvent(tick=0, channel=2, data=[64, 95]),
   midi.NoteOffEvent(tick=240, channel=2, data=[64, 80]),
   midi.NoteOnEvent(tick=0, channel=2, data=[44, 95]),
   midi.NoteOffEvent(tick=360, channel=2, data=[44, 80]),
   midi.NoteOnEvent(tick=0, channel=2, data=[66, 95]),
   midi.NoteOffEvent(tick=360, channel=2, data=[66, 80]),
   midi.NoteOnEvent(tick=0, channel=2, data=[73, 95]),
   midi.NoteOffEvent(tick=240, channel=2, data=[73, 80]),
   midi.NoteOnEvent(tick=0, channel=3, data=[72, 95]),
   midi.PitchWheelEvent(tick=80, channel=3, data=[0, 64]),
   midi.PitchWheelEvent(tick=80, channel=3, data=[0, 67]),
   midi.PitchWheelEvent(tick=80, channel=3, data=[0, 64]),
   midi.PitchWheelEvent(tick=80, channel=3, data=[0, 67]),
   midi.PitchWheelEvent(tick=40, channel=3, data=[0, 64]),
   midi.NoteOffEvent(tick=0, channel=3, data=[72, 80]),
   midi.NoteOnEvent(tick=0, channel=2, data=[68, 95]),
   midi.NoteOffEvent(tick=360, channel=2, data=[68, 80]),
   midi.NoteOnEvent(tick=0, channel=2, data=[66, 95]),
   midi.NoteOffEvent(tick=240, channel=2, data=[66, 80]),
   midi.NoteOnEvent(tick=0, channel=2, data=[44, 95]),
   midi.NoteOffEvent(tick=360, channel=2, data=[44, 80]),
   midi.NoteOnEvent(tick=0, channel=2, data=[64, 95]),
   midi.NoteOffEvent(tick=360, channel=2, data=[64, 80]),
   midi.NoteOnEvent(tick=0, channel=2, data=[71, 95]),
   midi.NoteOffEvent(tick=240, channel=2, data=[71, 80]),
   midi.NoteOnEvent(tick=0, channel=3, data=[70, 95]),
   midi.PitchWheelEvent(tick=80, channel=3, data=[0, 64]),
   midi.PitchWheelEvent(tick=80, channel=3, data=[0, 67]),
   midi.PitchWheelEvent(tick=80, channel=3, data=[0, 64]),
   midi.PitchWheelEvent(tick=80, channel=3, data=[0, 67]),
   midi.PitchWheelEvent(tick=40, channel=3, data=[0, 64]),
   midi.NoteOffEvent(tick=0, channel=3, data=[70, 80]),
   midi.NoteOnEvent(tick=0, channel=2, data=[66, 95]),
   midi.NoteOffEvent(tick=360, channel=2, data=[66, 80]),
   midi.NoteOnEvent(tick=0, channel=2, data=[64, 95]),
   midi.NoteOffEvent(tick=240, channel=2, data=[64, 80]),
   midi.NoteOnEvent(tick=0, channel=2, data=[44, 95]),
   midi.NoteOffEvent(tick=360, channel=2, data=[44, 80]),
   midi.NoteOnEvent(tick=0, channel=2, data=[66, 95]),
   midi.NoteOffEvent(tick=360, channel=2, data=[66, 80]),
   midi.NoteOnEvent(tick=0, channel=2, data=[73, 95]),
   midi.NoteOffEvent(tick=240, channel=2, data=[73, 80]),
   midi.NoteOnEvent(tick=0, channel=3, data=[72, 95]),
   midi.PitchWheelEvent(tick=80, channel=3, data=[0, 64]),
   midi.PitchWheelEvent(tick=80, channel=3, data=[0, 67]),
   midi.PitchWheelEvent(tick=80, channel=3, data=[0, 64]),
   midi.PitchWheelEvent(tick=80, channel=3, data=[0, 67]),
   midi.PitchWheelEvent(tick=40, channel=3, data=[0, 64]),
   midi.NoteOffEvent(tick=0, channel=3, data=[72, 80]),
   midi.NoteOnEvent(tick=0, channel=2, data=[68, 95]),
   midi.NoteOffEvent(tick=360, channel=2, data=[68, 80]),
   midi.NoteOnEvent(tick=0, channel=2, data=[66, 95]),
   midi.NoteOffEvent(tick=240, channel=2, data=[66, 80]),
   midi.NoteOnEvent(tick=0, channel=2, data=[44, 95]),
   midi.NoteOffEvent(tick=360, channel=2, data=[44, 80]),
   midi.NoteOnEvent(tick=0, channel=2, data=[64, 95]),
   midi.NoteOffEvent(tick=360, channel=2, data=[64, 80]),
   midi.NoteOnEvent(tick=0, channel=2, data=[71, 95]),
   midi.NoteOffEvent(tick=240, channel=2, data=[71, 80]),
   midi.NoteOnEvent(tick=0, channel=3, data=[70, 95]),
   midi.PitchWheelEvent(tick=80, channel=3, data=[0, 64]),
   midi.PitchWheelEvent(tick=80, channel=3, data=[0, 67]),
   midi.PitchWheelEvent(tick=80, channel=3, data=[0, 64]),
   midi.PitchWheelEvent(tick=80, channel=3, data=[0, 67]),
   midi.PitchWheelEvent(tick=40, channel=3, data=[0, 64]),
   midi.NoteOffEvent(tick=0, channel=3, data=[70, 80]),
   midi.NoteOnEvent(tick=0, channel=2, data=[66, 95]),
   midi.NoteOffEvent(tick=360, channel=2, data=[66, 80]),
   midi.NoteOnEvent(tick=0, channel=2, data=[64, 95]),
   midi.NoteOffEvent(tick=240, channel=2, data=[64, 80]),
   midi.NoteOnEvent(tick=0, channel=2, data=[44, 95]),
   midi.NoteOffEvent(tick=360, channel=2, data=[44, 80]),
   midi.NoteOnEvent(tick=0, channel=2, data=[63, 95]),
   midi.NoteOffEvent(tick=360, channel=2, data=[63, 80]),
   midi.NoteOnEvent(tick=0, channel=2, data=[70, 95]),
   midi.NoteOffEvent(tick=240, channel=2, data=[70, 80]),
   midi.NoteOnEvent(tick=0, channel=3, data=[71, 95]),
   midi.PitchWheelEvent(tick=80, channel=3, data=[0, 64]),
   midi.PitchWheelEvent(tick=80, channel=3, data=[0, 67]),
   midi.PitchWheelEvent(tick=80, channel=3, data=[0, 64]),
   midi.PitchWheelEvent(tick=80, channel=3, data=[0, 67]),
   midi.PitchWheelEvent(tick=40, channel=3, data=[0, 64]),
   midi.NoteOffEvent(tick=0, channel=3, data=[71, 80]),
   midi.NoteOnEvent(tick=0, channel=2, data=[70, 95]),
   midi.NoteOffEvent(tick=360, channel=2, data=[70, 80]),
   midi.NoteOnEvent(tick=0, channel=2, data=[66, 95]),
   midi.NoteOffEvent(tick=240, channel=2, data=[66, 80]),
   midi.NoteOnEvent(tick=0, channel=2, data=[64, 95]),
   midi.NoteOffEvent(tick=360, channel=2, data=[64, 80]),
   midi.NoteOnEvent(tick=0, channel=2, data=[63, 95]),
   midi.NoteOffEvent(tick=360, channel=2, data=[63, 80]),
   midi.NoteOnEvent(tick=0, channel=2, data=[59, 95]),
   midi.NoteOffEvent(tick=240, channel=2, data=[59, 80]),
   midi.NoteOnEvent(tick=0, channel=2, data=[58, 95]),
   midi.NoteOffEvent(tick=360, channel=2, data=[58, 80]),
   midi.NoteOnEvent(tick=0, channel=2, data=[54, 95]),
   midi.NoteOffEvent(tick=360, channel=2, data=[54, 80]),
   midi.NoteOnEvent(tick=0, channel=2, data=[52, 95]),
   midi.NoteOffEvent(tick=240, channel=2, data=[52, 80]),
   midi.NoteOnEvent(tick=0, channel=2, data=[39, 95]),
   midi.NoteOffEvent(tick=240, channel=2, data=[39, 80]),
   midi.NoteOnEvent(tick=0, channel=2, data=[39, 95]),
   midi.NoteOffEvent(tick=240, channel=2, data=[39, 80]),
   midi.NoteOnEvent(tick=0, channel=2, data=[53, 95]),
   midi.NoteOffEvent(tick=120, channel=2, data=[53, 80]),
   midi.NoteOnEvent(tick=0, channel=3, data=[54, 76]),
   midi.PitchWheelEvent(tick=80, channel=3, data=[0, 64]),
   midi.PitchWheelEvent(tick=80, channel=3, data=[0, 67]),
   midi.PitchWheelEvent(tick=80, channel=3, data=[0, 64]),
   midi.PitchWheelEvent(tick=80, channel=3, data=[0, 67]),
   midi.PitchWheelEvent(tick=40, channel=3, data=[0, 64]),
   midi.NoteOffEvent(tick=0, channel=3, data=[54, 80]),
   midi.NoteOnEvent(tick=0, channel=2, data=[39, 95]),
   midi.NoteOffEvent(tick=240, channel=2, data=[39, 80]),
   midi.NoteOnEvent(tick=0, channel=2, data=[39, 95]),
   midi.NoteOffEvent(tick=240, channel=2, data=[39, 80]),
   midi.NoteOnEvent(tick=0, channel=2, data=[53, 95]),
   midi.NoteOffEvent(tick=120, channel=2, data=[53, 80]),
   midi.NoteOnEvent(tick=0, channel=2, data=[54, 76]),
   midi.NoteOffEvent(tick=120, channel=2, data=[54, 80]),
   midi.NoteOnEvent(tick=0, channel=2, data=[58, 95]),
   midi.NoteOffEvent(tick=240, channel=2, data=[58, 80]),
   midi.NoteOnEvent(tick=0, channel=2, data=[39, 95]),
   midi.NoteOffEvent(tick=240, channel=2, data=[39, 80]),
   midi.NoteOnEvent(tick=0, channel=2, data=[39, 95]),
   midi.NoteOffEvent(tick=240, channel=2, data=[39, 80]),
   midi.NoteOnEvent(tick=0, channel=3, data=[56, 95]),
   midi.PitchWheelEvent(tick=80, channel=3, data=[0, 64]),
   midi.PitchWheelEvent(tick=80, channel=3, data=[0, 67]),
   midi.PitchWheelEvent(tick=80, channel=3, data=[0, 64]),
   midi.PitchWheelEvent(tick=80, channel=3, data=[0, 67]),
   midi.PitchWheelEvent(tick=80, channel=3, data=[0, 64]),
   midi.PitchWheelEvent(tick=80, channel=3, data=[0, 67]),
   midi.PitchWheelEvent(tick=0, channel=3, data=[0, 64]),
   midi.NoteOffEvent(tick=0, channel=3, data=[56, 80]),
   midi.NoteOnEvent(tick=0, channel=2, data=[39, 95]),
   midi.NoteOffEvent(tick=240, channel=2, data=[39, 80]),
   midi.NoteOnEvent(tick=0, channel=2, data=[39, 95]),
   midi.NoteOffEvent(tick=240, channel=2, data=[39, 80]),
   midi.NoteOnEvent(tick=0, channel=2, data=[59, 95]),
   midi.NoteOffEvent(tick=120, channel=2, data=[59, 80]),
   midi.NoteOnEvent(tick=0, channel=2, data=[58, 76]),
   midi.NoteOffEvent(tick=120, channel=2, data=[58, 80]),
   midi.NoteOnEvent(tick=0, channel=2, data=[54, 95]),
   midi.NoteOffEvent(tick=240, channel=2, data=[54, 80]),
   midi.NoteOnEvent(tick=0, channel=2, data=[39, 95]),
   midi.NoteOffEvent(tick=240, channel=2, data=[39, 80]),
   midi.NoteOnEvent(tick=0, channel=2, data=[39, 95]),
   midi.NoteOffEvent(tick=240, channel=2, data=[39, 80]),
   midi.NoteOnEvent(tick=0, channel=2, data=[53, 95]),
   midi.NoteOffEvent(tick=120, channel=2, data=[53, 80]),
   midi.NoteOnEvent(tick=0, channel=3, data=[54, 76]),
   midi.PitchWheelEvent(tick=80, channel=3, data=[0, 64]),
   midi.PitchWheelEvent(tick=80, channel=3, data=[0, 67]),
   midi.PitchWheelEvent(tick=80, channel=3, data=[0, 64]),
   midi.PitchWheelEvent(tick=80, channel=3, data=[0, 67]),
   midi.PitchWheelEvent(tick=40, channel=3, data=[0, 64]),
   midi.NoteOffEvent(tick=0, channel=3, data=[54, 80]),
   midi.NoteOnEvent(tick=0, channel=2, data=[39, 95]),
   midi.NoteOffEvent(tick=240, channel=2, data=[39, 80]),
   midi.NoteOnEvent(tick=0, channel=2, data=[39, 95]),
   midi.NoteOffEvent(tick=240, channel=2, data=[39, 80]),
   midi.NoteOnEvent(tick=0, channel=2, data=[53, 95]),
   midi.NoteOffEvent(tick=120, channel=2, data=[53, 80]),
   midi.NoteOnEvent(tick=0, channel=2, data=[54, 76]),
   midi.NoteOffEvent(tick=120, channel=2, data=[54, 80]),
   midi.NoteOnEvent(tick=0, channel=2, data=[58, 95]),
   midi.NoteOffEvent(tick=240, channel=2, data=[58, 80]),
   midi.NoteOnEvent(tick=0, channel=2, data=[39, 95]),
   midi.NoteOffEvent(tick=240, channel=2, data=[39, 80]),
   midi.NoteOnEvent(tick=0, channel=2, data=[39, 95]),
   midi.NoteOffEvent(tick=240, channel=2, data=[39, 80]),
   midi.NoteOnEvent(tick=0, channel=3, data=[59, 95]),
   midi.PitchWheelEvent(tick=80, channel=3, data=[0, 64]),
   midi.PitchWheelEvent(tick=80, channel=3, data=[0, 67]),
   midi.PitchWheelEvent(tick=80, channel=3, data=[0, 64]),
   midi.PitchWheelEvent(tick=80, channel=3, data=[0, 67]),
   midi.PitchWheelEvent(tick=80, channel=3, data=[0, 64]),
   midi.PitchWheelEvent(tick=80, channel=3, data=[0, 67]),
   midi.PitchWheelEvent(tick=0, channel=3, data=[0, 64]),
   midi.NoteOffEvent(tick=0, channel=3, data=[59, 80]),
   midi.NoteOnEvent(tick=0, channel=2, data=[39, 95]),
   midi.NoteOffEvent(tick=240, channel=2, data=[39, 80]),
   midi.NoteOnEvent(tick=0, channel=2, data=[39, 95]),
   midi.NoteOffEvent(tick=240, channel=2, data=[39, 80]),
   midi.NoteOnEvent(tick=0, channel=2, data=[59, 95]),
   midi.NoteOffEvent(tick=120, channel=2, data=[59, 80]),
   midi.NoteOnEvent(tick=0, channel=2, data=[58, 76]),
   midi.NoteOffEvent(tick=120, channel=2, data=[58, 80]),
   midi.NoteOnEvent(tick=0, channel=2, data=[54, 95]),
   midi.NoteOffEvent(tick=240, channel=2, data=[54, 80]),
   midi.NoteOnEvent(tick=0, channel=2, data=[39, 95]),
   midi.NoteOffEvent(tick=240, channel=2, data=[39, 80]),
   midi.NoteOnEvent(tick=0, channel=2, data=[39, 95]),
   midi.NoteOffEvent(tick=240, channel=2, data=[39, 80]),
   midi.NoteOnEvent(tick=0, channel=2, data=[53, 95]),
   midi.NoteOffEvent(tick=120, channel=2, data=[53, 80]),
   midi.NoteOnEvent(tick=0, channel=3, data=[54, 76]),
   midi.PitchWheelEvent(tick=80, channel=3, data=[0, 64]),
   midi.PitchWheelEvent(tick=80, channel=3, data=[0, 67]),
   midi.PitchWheelEvent(tick=80, channel=3, data=[0, 64]),
   midi.PitchWheelEvent(tick=80, channel=3, data=[0, 67]),
   midi.PitchWheelEvent(tick=40, channel=3, data=[0, 64]),
   midi.NoteOffEvent(tick=0, channel=3, data=[54, 80]),
   midi.NoteOnEvent(tick=0, channel=2, data=[39, 95]),
   midi.NoteOffEvent(tick=240, channel=2, data=[39, 80]),
   midi.NoteOnEvent(tick=0, channel=2, data=[39, 95]),
   midi.NoteOffEvent(tick=240, channel=2, data=[39, 80]),
   midi.NoteOnEvent(tick=0, channel=2, data=[53, 95]),
   midi.NoteOffEvent(tick=120, channel=2, data=[53, 80]),
   midi.NoteOnEvent(tick=0, channel=2, data=[54, 76]),
   midi.NoteOffEvent(tick=120, channel=2, data=[54, 80]),
   midi.NoteOnEvent(tick=0, channel=2, data=[58, 95]),
   midi.NoteOffEvent(tick=240, channel=2, data=[58, 80]),
   midi.NoteOnEvent(tick=0, channel=2, data=[39, 95]),
   midi.NoteOffEvent(tick=240, channel=2, data=[39, 80]),
   midi.NoteOnEvent(tick=0, channel=2, data=[39, 95]),
   midi.NoteOffEvent(tick=240, channel=2, data=[39, 80]),
   midi.NoteOnEvent(tick=0, channel=3, data=[56, 95]),
   midi.PitchWheelEvent(tick=80, channel=3, data=[0, 64]),
   midi.PitchWheelEvent(tick=80, channel=3, data=[0, 67]),
   midi.PitchWheelEvent(tick=80, channel=3, data=[0, 64]),
   midi.PitchWheelEvent(tick=80, channel=3, data=[0, 67]),
   midi.PitchWheelEvent(tick=80, channel=3, data=[0, 64]),
   midi.PitchWheelEvent(tick=80, channel=3, data=[0, 67]),
   midi.PitchWheelEvent(tick=0, channel=3, data=[0, 64]),
   midi.NoteOffEvent(tick=0, channel=3, data=[56, 80]),
   midi.NoteOnEvent(tick=0, channel=2, data=[39, 95]),
   midi.NoteOffEvent(tick=240, channel=2, data=[39, 80]),
   midi.NoteOnEvent(tick=0, channel=2, data=[39, 95]),
   midi.NoteOffEvent(tick=240, channel=2, data=[39, 80]),
   midi.NoteOnEvent(tick=0, channel=2, data=[59, 95]),
   midi.NoteOffEvent(tick=120, channel=2, data=[59, 80]),
   midi.NoteOnEvent(tick=0, channel=2, data=[58, 76]),
   midi.NoteOffEvent(tick=120, channel=2, data=[58, 80]),
   midi.NoteOnEvent(tick=0, channel=2, data=[54, 95]),
   midi.NoteOffEvent(tick=240, channel=2, data=[54, 80]),
   midi.NoteOnEvent(tick=0, channel=2, data=[39, 95]),
   midi.NoteOffEvent(tick=240, channel=2, data=[39, 80]),
   midi.NoteOnEvent(tick=0, channel=2, data=[39, 95]),
   midi.NoteOffEvent(tick=240, channel=2, data=[39, 80]),
   midi.NoteOnEvent(tick=0, channel=2, data=[53, 95]),
   midi.NoteOffEvent(tick=120, channel=2, data=[53, 80]),
   midi.NoteOnEvent(tick=0, channel=3, data=[54, 76]),
   midi.PitchWheelEvent(tick=80, channel=3, data=[0, 64]),
   midi.PitchWheelEvent(tick=80, channel=3, data=[0, 67]),
   midi.PitchWheelEvent(tick=80, channel=3, data=[0, 64]),
   midi.PitchWheelEvent(tick=80, channel=3, data=[0, 67]),
   midi.PitchWheelEvent(tick=40, channel=3, data=[0, 64]),
   midi.NoteOffEvent(tick=0, channel=3, data=[54, 80]),
   midi.NoteOnEvent(tick=0, channel=2, data=[39, 95]),
   midi.NoteOffEvent(tick=240, channel=2, data=[39, 80]),
   midi.NoteOnEvent(tick=0, channel=2, data=[39, 95]),
   midi.NoteOffEvent(tick=240, channel=2, data=[39, 80]),
   midi.NoteOnEvent(tick=0, channel=2, data=[53, 95]),
   midi.NoteOffEvent(tick=120, channel=2, data=[53, 80]),
   midi.NoteOnEvent(tick=0, channel=2, data=[54, 76]),
   midi.NoteOffEvent(tick=120, channel=2, data=[54, 80]),
   midi.NoteOnEvent(tick=0, channel=2, data=[58, 95]),
   midi.NoteOffEvent(tick=240, channel=2, data=[58, 80]),
   midi.NoteOnEvent(tick=0, channel=2, data=[39, 95]),
   midi.NoteOffEvent(tick=240, channel=2, data=[39, 80]),
   midi.NoteOnEvent(tick=0, channel=2, data=[39, 95]),
   midi.NoteOffEvent(tick=240, channel=2, data=[39, 80]),
   midi.NoteOnEvent(tick=0, channel=3, data=[59, 95]),
   midi.PitchWheelEvent(tick=80, channel=3, data=[0, 64]),
   midi.PitchWheelEvent(tick=80, channel=3, data=[0, 67]),
   midi.PitchWheelEvent(tick=80, channel=3, data=[0, 64]),
   midi.PitchWheelEvent(tick=80, channel=3, data=[0, 67]),
   midi.PitchWheelEvent(tick=80, channel=3, data=[0, 64]),
   midi.PitchWheelEvent(tick=80, channel=3, data=[0, 67]),
   midi.PitchWheelEvent(tick=0, channel=3, data=[0, 64]),
   midi.NoteOffEvent(tick=0, channel=3, data=[59, 80]),
   midi.NoteOnEvent(tick=0, channel=2, data=[39, 95]),
   midi.NoteOffEvent(tick=240, channel=2, data=[39, 80]),
   midi.NoteOnEvent(tick=0, channel=2, data=[39, 95]),
   midi.NoteOffEvent(tick=240, channel=2, data=[39, 80]),
   midi.NoteOnEvent(tick=0, channel=2, data=[59, 95]),
   midi.NoteOffEvent(tick=120, channel=2, data=[59, 80]),
   midi.NoteOnEvent(tick=0, channel=2, data=[58, 76]),
   midi.NoteOffEvent(tick=120, channel=2, data=[58, 80]),
   midi.NoteOnEvent(tick=0, channel=2, data=[54, 95]),
   midi.NoteOffEvent(tick=240, channel=2, data=[54, 80]),
   midi.NoteOnEvent(tick=0, channel=2, data=[39, 95]),
   midi.NoteOffEvent(tick=240, channel=2, data=[39, 80]),
   midi.NoteOnEvent(tick=0, channel=2, data=[39, 95]),
   midi.NoteOffEvent(tick=240, channel=2, data=[39, 80]),
   midi.NoteOnEvent(tick=0, channel=2, data=[53, 95]),
   midi.NoteOffEvent(tick=120, channel=2, data=[53, 80]),
   midi.NoteOnEvent(tick=0, channel=3, data=[54, 76]),
   midi.PitchWheelEvent(tick=80, channel=3, data=[0, 64]),
   midi.PitchWheelEvent(tick=80, channel=3, data=[0, 67]),
   midi.PitchWheelEvent(tick=80, channel=3, data=[0, 64]),
   midi.PitchWheelEvent(tick=80, channel=3, data=[0, 67]),
   midi.PitchWheelEvent(tick=40, channel=3, data=[0, 64]),
   midi.NoteOffEvent(tick=0, channel=3, data=[54, 80]),
   midi.NoteOnEvent(tick=0, channel=2, data=[39, 95]),
   midi.NoteOffEvent(tick=240, channel=2, data=[39, 80]),
   midi.NoteOnEvent(tick=0, channel=2, data=[39, 95]),
   midi.NoteOffEvent(tick=240, channel=2, data=[39, 80]),
   midi.NoteOnEvent(tick=0, channel=2, data=[53, 95]),
   midi.NoteOffEvent(tick=120, channel=2, data=[53, 80]),
   midi.NoteOnEvent(tick=0, channel=2, data=[54, 76]),
   midi.NoteOffEvent(tick=120, channel=2, data=[54, 80]),
   midi.NoteOnEvent(tick=0, channel=2, data=[58, 95]),
   midi.NoteOffEvent(tick=240, channel=2, data=[58, 80]),
   midi.NoteOnEvent(tick=0, channel=2, data=[39, 95]),
   midi.NoteOffEvent(tick=240, channel=2, data=[39, 80]),
   midi.NoteOnEvent(tick=0, channel=2, data=[39, 95]),
   midi.NoteOffEvent(tick=240, channel=2, data=[39, 80]),
   midi.NoteOnEvent(tick=0, channel=3, data=[56, 95]),
   midi.PitchWheelEvent(tick=80, channel=3, data=[0, 64]),
   midi.PitchWheelEvent(tick=80, channel=3, data=[0, 67]),
   midi.PitchWheelEvent(tick=80, channel=3, data=[0, 64]),
   midi.PitchWheelEvent(tick=80, channel=3, data=[0, 67]),
   midi.PitchWheelEvent(tick=80, channel=3, data=[0, 64]),
   midi.PitchWheelEvent(tick=80, channel=3, data=[0, 67]),
   midi.PitchWheelEvent(tick=0, channel=3, data=[0, 64]),
   midi.NoteOffEvent(tick=0, channel=3, data=[56, 80]),
   midi.NoteOnEvent(tick=0, channel=2, data=[39, 95]),
   midi.NoteOffEvent(tick=240, channel=2, data=[39, 80]),
   midi.NoteOnEvent(tick=0, channel=2, data=[39, 95]),
   midi.NoteOffEvent(tick=240, channel=2, data=[39, 80]),
   midi.NoteOnEvent(tick=0, channel=2, data=[59, 95]),
   midi.NoteOffEvent(tick=120, channel=2, data=[59, 80]),
   midi.NoteOnEvent(tick=0, channel=2, data=[58, 76]),
   midi.NoteOffEvent(tick=120, channel=2, data=[58, 80]),
   midi.NoteOnEvent(tick=0, channel=2, data=[54, 95]),
   midi.NoteOffEvent(tick=240, channel=2, data=[54, 80]),
   midi.NoteOnEvent(tick=0, channel=2, data=[39, 95]),
   midi.NoteOffEvent(tick=240, channel=2, data=[39, 80]),
   midi.NoteOnEvent(tick=0, channel=2, data=[39, 95]),
   midi.NoteOffEvent(tick=240, channel=2, data=[39, 80]),
   midi.NoteOnEvent(tick=0, channel=2, data=[53, 95]),
   midi.NoteOffEvent(tick=120, channel=2, data=[53, 80]),
   midi.NoteOnEvent(tick=0, channel=3, data=[54, 76]),
   midi.PitchWheelEvent(tick=80, channel=3, data=[0, 64]),
   midi.PitchWheelEvent(tick=80, channel=3, data=[0, 67]),
   midi.PitchWheelEvent(tick=80, channel=3, data=[0, 64]),
   midi.PitchWheelEvent(tick=80, channel=3, data=[0, 67]),
   midi.PitchWheelEvent(tick=40, channel=3, data=[0, 64]),
   midi.NoteOffEvent(tick=0, channel=3, data=[54, 80]),
   midi.NoteOnEvent(tick=0, channel=2, data=[39, 95]),
   midi.NoteOffEvent(tick=240, channel=2, data=[39, 80]),
   midi.NoteOnEvent(tick=0, channel=2, data=[39, 95]),
   midi.NoteOffEvent(tick=240, channel=2, data=[39, 80]),
   midi.NoteOnEvent(tick=0, channel=2, data=[53, 95]),
   midi.NoteOffEvent(tick=120, channel=2, data=[53, 80]),
   midi.NoteOnEvent(tick=0, channel=2, data=[54, 76]),
   midi.NoteOffEvent(tick=120, channel=2, data=[54, 80]),
   midi.NoteOnEvent(tick=0, channel=2, data=[58, 95]),
   midi.NoteOffEvent(tick=240, channel=2, data=[58, 80]),
   midi.NoteOnEvent(tick=0, channel=2, data=[39, 95]),
   midi.NoteOffEvent(tick=240, channel=2, data=[39, 80]),
   midi.NoteOnEvent(tick=0, channel=2, data=[39, 95]),
   midi.NoteOffEvent(tick=240, channel=2, data=[39, 80]),
   midi.NoteOnEvent(tick=0, channel=3, data=[59, 95]),
   midi.PitchWheelEvent(tick=80, channel=3, data=[0, 64]),
   midi.PitchWheelEvent(tick=80, channel=3, data=[0, 67]),
   midi.PitchWheelEvent(tick=80, channel=3, data=[0, 64]),
   midi.PitchWheelEvent(tick=80, channel=3, data=[0, 67]),
   midi.PitchWheelEvent(tick=80, channel=3, data=[0, 64]),
   midi.PitchWheelEvent(tick=80, channel=3, data=[0, 67]),
   midi.PitchWheelEvent(tick=0, channel=3, data=[0, 64]),
   midi.NoteOffEvent(tick=0, channel=3, data=[59, 80]),
   midi.NoteOnEvent(tick=0, channel=2, data=[39, 95]),
   midi.NoteOffEvent(tick=240, channel=2, data=[39, 80]),
   midi.NoteOnEvent(tick=0, channel=2, data=[39, 95]),
   midi.NoteOffEvent(tick=240, channel=2, data=[39, 80]),
   midi.NoteOnEvent(tick=0, channel=2, data=[59, 95]),
   midi.NoteOffEvent(tick=120, channel=2, data=[59, 80]),
   midi.NoteOnEvent(tick=0, channel=2, data=[58, 76]),
   midi.NoteOffEvent(tick=120, channel=2, data=[58, 80]),
   midi.NoteOnEvent(tick=0, channel=2, data=[54, 95]),
   midi.NoteOffEvent(tick=240, channel=2, data=[54, 80]),
   midi.NoteOnEvent(tick=0, channel=2, data=[39, 95]),
   midi.NoteOffEvent(tick=240, channel=2, data=[39, 80]),
   midi.NoteOnEvent(tick=0, channel=2, data=[39, 95]),
   midi.NoteOffEvent(tick=240, channel=2, data=[39, 80]),
   midi.NoteOnEvent(tick=0, channel=2, data=[53, 95]),
   midi.NoteOffEvent(tick=120, channel=2, data=[53, 80]),
   midi.NoteOnEvent(tick=0, channel=3, data=[54, 76]),
   midi.PitchWheelEvent(tick=80, channel=3, data=[0, 64]),
   midi.PitchWheelEvent(tick=80, channel=3, data=[0, 67]),
   midi.PitchWheelEvent(tick=80, channel=3, data=[0, 64]),
   midi.PitchWheelEvent(tick=80, channel=3, data=[0, 67]),
   midi.PitchWheelEvent(tick=40, channel=3, data=[0, 64]),
   midi.NoteOffEvent(tick=0, channel=3, data=[54, 80]),
   midi.NoteOnEvent(tick=0, channel=2, data=[39, 95]),
   midi.NoteOffEvent(tick=240, channel=2, data=[39, 80]),
   midi.NoteOnEvent(tick=0, channel=2, data=[39, 95]),
   midi.NoteOffEvent(tick=240, channel=2, data=[39, 80]),
   midi.NoteOnEvent(tick=0, channel=2, data=[53, 95]),
   midi.NoteOffEvent(tick=120, channel=2, data=[53, 80]),
   midi.NoteOnEvent(tick=0, channel=2, data=[54, 76]),
   midi.NoteOffEvent(tick=120, channel=2, data=[54, 80]),
   midi.NoteOnEvent(tick=0, channel=2, data=[58, 95]),
   midi.NoteOffEvent(tick=240, channel=2, data=[58, 80]),
   midi.NoteOnEvent(tick=0, channel=2, data=[39, 95]),
   midi.NoteOffEvent(tick=240, channel=2, data=[39, 80]),
   midi.NoteOnEvent(tick=0, channel=2, data=[39, 95]),
   midi.NoteOffEvent(tick=240, channel=2, data=[39, 80]),
   midi.NoteOnEvent(tick=0, channel=3, data=[56, 95]),
   midi.PitchWheelEvent(tick=80, channel=3, data=[0, 64]),
   midi.PitchWheelEvent(tick=80, channel=3, data=[0, 67]),
   midi.PitchWheelEvent(tick=80, channel=3, data=[0, 64]),
   midi.PitchWheelEvent(tick=80, channel=3, data=[0, 67]),
   midi.PitchWheelEvent(tick=80, channel=3, data=[0, 64]),
   midi.PitchWheelEvent(tick=80, channel=3, data=[0, 67]),
   midi.PitchWheelEvent(tick=0, channel=3, data=[0, 64]),
   midi.NoteOffEvent(tick=0, channel=3, data=[56, 80]),
   midi.NoteOnEvent(tick=0, channel=2, data=[39, 95]),
   midi.NoteOffEvent(tick=240, channel=2, data=[39, 80]),
   midi.NoteOnEvent(tick=0, channel=2, data=[39, 95]),
   midi.NoteOffEvent(tick=240, channel=2, data=[39, 80]),
   midi.NoteOnEvent(tick=0, channel=2, data=[59, 95]),
   midi.NoteOffEvent(tick=120, channel=2, data=[59, 80]),
   midi.NoteOnEvent(tick=0, channel=2, data=[58, 76]),
   midi.NoteOffEvent(tick=120, channel=2, data=[58, 80]),
   midi.NoteOnEvent(tick=0, channel=2, data=[54, 95]),
   midi.NoteOffEvent(tick=240, channel=2, data=[54, 80]),
   midi.NoteOnEvent(tick=0, channel=2, data=[39, 95]),
   midi.NoteOffEvent(tick=240, channel=2, data=[39, 80]),
   midi.NoteOnEvent(tick=0, channel=2, data=[39, 95]),
   midi.NoteOffEvent(tick=240, channel=2, data=[39, 80]),
   midi.NoteOnEvent(tick=0, channel=2, data=[53, 95]),
   midi.NoteOffEvent(tick=120, channel=2, data=[53, 80]),
   midi.NoteOnEvent(tick=0, channel=3, data=[54, 76]),
   midi.PitchWheelEvent(tick=80, channel=3, data=[0, 64]),
   midi.PitchWheelEvent(tick=80, channel=3, data=[0, 67]),
   midi.PitchWheelEvent(tick=80, channel=3, data=[0, 64]),
   midi.PitchWheelEvent(tick=80, channel=3, data=[0, 67]),
   midi.PitchWheelEvent(tick=40, channel=3, data=[0, 64]),
   midi.NoteOffEvent(tick=0, channel=3, data=[54, 80]),
   midi.NoteOnEvent(tick=0, channel=2, data=[39, 95]),
   midi.NoteOffEvent(tick=240, channel=2, data=[39, 80]),
   midi.NoteOnEvent(tick=0, channel=2, data=[39, 95]),
   midi.NoteOffEvent(tick=240, channel=2, data=[39, 80]),
   midi.NoteOnEvent(tick=0, channel=2, data=[53, 95]),
   midi.NoteOffEvent(tick=120, channel=2, data=[53, 80]),
   midi.NoteOnEvent(tick=0, channel=2, data=[54, 76]),
   midi.NoteOffEvent(tick=120, channel=2, data=[54, 80]),
   midi.NoteOnEvent(tick=0, channel=2, data=[58, 95]),
   midi.NoteOffEvent(tick=240, channel=2, data=[58, 80]),
   midi.NoteOnEvent(tick=0, channel=2, data=[39, 95]),
   midi.NoteOffEvent(tick=240, channel=2, data=[39, 80]),
   midi.NoteOnEvent(tick=0, channel=2, data=[39, 95]),
   midi.NoteOffEvent(tick=240, channel=2, data=[39, 80]),
   midi.NoteOnEvent(tick=0, channel=3, data=[59, 95]),
   midi.PitchWheelEvent(tick=80, channel=3, data=[0, 64]),
   midi.PitchWheelEvent(tick=80, channel=3, data=[0, 67]),
   midi.PitchWheelEvent(tick=80, channel=3, data=[0, 64]),
   midi.PitchWheelEvent(tick=80, channel=3, data=[0, 67]),
   midi.PitchWheelEvent(tick=80, channel=3, data=[0, 64]),
   midi.PitchWheelEvent(tick=80, channel=3, data=[0, 67]),
   midi.PitchWheelEvent(tick=0, channel=3, data=[0, 64]),
   midi.NoteOffEvent(tick=0, channel=3, data=[59, 80]),
   midi.NoteOnEvent(tick=0, channel=2, data=[39, 95]),
   midi.NoteOffEvent(tick=240, channel=2, data=[39, 80]),
   midi.NoteOnEvent(tick=0, channel=2, data=[39, 95]),
   midi.NoteOffEvent(tick=240, channel=2, data=[39, 80]),
   midi.NoteOnEvent(tick=0, channel=2, data=[59, 95]),
   midi.NoteOffEvent(tick=120, channel=2, data=[59, 80]),
   midi.NoteOnEvent(tick=0, channel=2, data=[58, 76]),
   midi.NoteOffEvent(tick=120, channel=2, data=[58, 80]),
   midi.NoteOnEvent(tick=0, channel=2, data=[54, 95]),
   midi.NoteOffEvent(tick=240, channel=2, data=[54, 80]),
   midi.EndOfTrackEvent(tick=0, data=[])]),
 midi.Track(\
  [midi.TrackNameEvent(tick=0, text='Fills.', data=[70, 105, 108, 108, 115, 46]),
   midi.ControlChangeEvent(tick=0, channel=4, data=[100, 0]),
   midi.ControlChangeEvent(tick=0, channel=4, data=[101, 0]),
   midi.ControlChangeEvent(tick=0, channel=4, data=[6, 8]),
   midi.PitchWheelEvent(tick=0, channel=4, data=[0, 64]),
   midi.ControlChangeEvent(tick=0, channel=5, data=[100, 0]),
   midi.ControlChangeEvent(tick=0, channel=5, data=[101, 0]),
   midi.ControlChangeEvent(tick=0, channel=5, data=[6, 8]),
   midi.PitchWheelEvent(tick=0, channel=5, data=[0, 64]),
   midi.ProgramChangeEvent(tick=0, channel=4, data=[30]),
   midi.ProgramChangeEvent(tick=0, channel=5, data=[30]),
   midi.ControlChangeEvent(tick=0, channel=4, data=[7, 120]),
   midi.ControlChangeEvent(tick=0, channel=5, data=[7, 120]),
   midi.ControlChangeEvent(tick=0, channel=4, data=[10, 64]),
   midi.ControlChangeEvent(tick=0, channel=5, data=[10, 64]),
   midi.ControlChangeEvent(tick=0, channel=4, data=[93, 16]),
   midi.ControlChangeEvent(tick=0, channel=5, data=[93, 16]),
   midi.ControlChangeEvent(tick=0, channel=4, data=[91, 40]),
   midi.ControlChangeEvent(tick=0, channel=5, data=[91, 40]),
   midi.ControlChangeEvent(tick=0, channel=4, data=[92, 0]),
   midi.ControlChangeEvent(tick=0, channel=5, data=[92, 0]),
   midi.ControlChangeEvent(tick=0, channel=4, data=[95, 0]),
   midi.ControlChangeEvent(tick=0, channel=5, data=[95, 0]),
   midi.NoteOnEvent(tick=65280, channel=4, data=[44, 95]),
   midi.NoteOffEvent(tick=360, channel=4, data=[44, 80]),
   midi.NoteOnEvent(tick=0, channel=4, data=[54, 95]),
   midi.NoteOffEvent(tick=360, channel=4, data=[54, 80]),
   midi.NoteOnEvent(tick=0, channel=4, data=[61, 95]),
   midi.NoteOffEvent(tick=240, channel=4, data=[61, 80]),
   midi.NoteOnEvent(tick=0, channel=5, data=[60, 95]),
   midi.PitchWheelEvent(tick=80, channel=5, data=[0, 64]),
   midi.PitchWheelEvent(tick=80, channel=5, data=[0, 67]),
   midi.PitchWheelEvent(tick=80, channel=5, data=[0, 64]),
   midi.PitchWheelEvent(tick=80, channel=5, data=[0, 67]),
   midi.PitchWheelEvent(tick=40, channel=5, data=[0, 64]),
   midi.NoteOffEvent(tick=0, channel=5, data=[60, 80]),
   midi.NoteOnEvent(tick=0, channel=4, data=[56, 95]),
   midi.NoteOffEvent(tick=360, channel=4, data=[56, 80]),
   midi.NoteOnEvent(tick=0, channel=4, data=[54, 95]),
   midi.NoteOffEvent(tick=240, channel=4, data=[54, 80]),
   midi.NoteOnEvent(tick=0, channel=4, data=[44, 95]),
   midi.NoteOffEvent(tick=360, channel=4, data=[44, 80]),
   midi.NoteOnEvent(tick=0, channel=4, data=[52, 95]),
   midi.NoteOffEvent(tick=360, channel=4, data=[52, 80]),
   midi.NoteOnEvent(tick=0, channel=4, data=[59, 95]),
   midi.NoteOffEvent(tick=240, channel=4, data=[59, 80]),
   midi.NoteOnEvent(tick=0, channel=5, data=[58, 95]),
   midi.PitchWheelEvent(tick=80, channel=5, data=[0, 64]),
   midi.PitchWheelEvent(tick=80, channel=5, data=[0, 67]),
   midi.PitchWheelEvent(tick=80, channel=5, data=[0, 64]),
   midi.PitchWheelEvent(tick=80, channel=5, data=[0, 67]),
   midi.PitchWheelEvent(tick=40, channel=5, data=[0, 64]),
   midi.NoteOffEvent(tick=0, channel=5, data=[58, 80]),
   midi.NoteOnEvent(tick=0, channel=4, data=[54, 95]),
   midi.NoteOffEvent(tick=360, channel=4, data=[54, 80]),
   midi.NoteOnEvent(tick=0, channel=4, data=[52, 95]),
   midi.NoteOffEvent(tick=240, channel=4, data=[52, 80]),
   midi.NoteOnEvent(tick=0, channel=4, data=[44, 95]),
   midi.NoteOffEvent(tick=360, channel=4, data=[44, 80]),
   midi.NoteOnEvent(tick=0, channel=4, data=[54, 95]),
   midi.NoteOffEvent(tick=360, channel=4, data=[54, 80]),
   midi.NoteOnEvent(tick=0, channel=4, data=[61, 95]),
   midi.NoteOffEvent(tick=240, channel=4, data=[61, 80]),
   midi.NoteOnEvent(tick=0, channel=5, data=[60, 95]),
   midi.PitchWheelEvent(tick=80, channel=5, data=[0, 64]),
   midi.PitchWheelEvent(tick=80, channel=5, data=[0, 67]),
   midi.PitchWheelEvent(tick=80, channel=5, data=[0, 64]),
   midi.PitchWheelEvent(tick=80, channel=5, data=[0, 67]),
   midi.PitchWheelEvent(tick=40, channel=5, data=[0, 64]),
   midi.NoteOffEvent(tick=0, channel=5, data=[60, 80]),
   midi.NoteOnEvent(tick=0, channel=4, data=[56, 95]),
   midi.NoteOffEvent(tick=360, channel=4, data=[56, 80]),
   midi.NoteOnEvent(tick=0, channel=4, data=[54, 95]),
   midi.NoteOffEvent(tick=240, channel=4, data=[54, 80]),
   midi.NoteOnEvent(tick=0, channel=4, data=[44, 95]),
   midi.NoteOffEvent(tick=360, channel=4, data=[44, 80]),
   midi.NoteOnEvent(tick=0, channel=4, data=[52, 95]),
   midi.NoteOffEvent(tick=360, channel=4, data=[52, 80]),
   midi.NoteOnEvent(tick=0, channel=4, data=[59, 95]),
   midi.NoteOffEvent(tick=240, channel=4, data=[59, 80]),
   midi.NoteOnEvent(tick=0, channel=5, data=[58, 95]),
   midi.PitchWheelEvent(tick=80, channel=5, data=[0, 64]),
   midi.PitchWheelEvent(tick=80, channel=5, data=[0, 67]),
   midi.PitchWheelEvent(tick=80, channel=5, data=[0, 64]),
   midi.PitchWheelEvent(tick=80, channel=5, data=[0, 67]),
   midi.PitchWheelEvent(tick=40, channel=5, data=[0, 64]),
   midi.NoteOffEvent(tick=0, channel=5, data=[58, 80]),
   midi.NoteOnEvent(tick=0, channel=4, data=[54, 95]),
   midi.NoteOffEvent(tick=360, channel=4, data=[54, 80]),
   midi.NoteOnEvent(tick=0, channel=4, data=[52, 95]),
   midi.NoteOffEvent(tick=240, channel=4, data=[52, 80]),
   midi.NoteOnEvent(tick=0, channel=4, data=[44, 95]),
   midi.NoteOffEvent(tick=360, channel=4, data=[44, 80]),
   midi.NoteOnEvent(tick=0, channel=4, data=[54, 95]),
   midi.NoteOffEvent(tick=360, channel=4, data=[54, 80]),
   midi.NoteOnEvent(tick=0, channel=4, data=[61, 95]),
   midi.NoteOffEvent(tick=240, channel=4, data=[61, 80]),
   midi.NoteOnEvent(tick=0, channel=5, data=[60, 95]),
   midi.PitchWheelEvent(tick=80, channel=5, data=[0, 64]),
   midi.PitchWheelEvent(tick=80, channel=5, data=[0, 67]),
   midi.PitchWheelEvent(tick=80, channel=5, data=[0, 64]),
   midi.PitchWheelEvent(tick=80, channel=5, data=[0, 67]),
   midi.PitchWheelEvent(tick=40, channel=5, data=[0, 64]),
   midi.NoteOffEvent(tick=0, channel=5, data=[60, 80]),
   midi.NoteOnEvent(tick=0, channel=4, data=[56, 95]),
   midi.NoteOffEvent(tick=360, channel=4, data=[56, 80]),
   midi.NoteOnEvent(tick=0, channel=4, data=[54, 95]),
   midi.NoteOffEvent(tick=240, channel=4, data=[54, 80]),
   midi.NoteOnEvent(tick=0, channel=4, data=[44, 95]),
   midi.NoteOffEvent(tick=360, channel=4, data=[44, 80]),
   midi.NoteOnEvent(tick=0, channel=4, data=[52, 95]),
   midi.NoteOffEvent(tick=360, channel=4, data=[52, 80]),
   midi.NoteOnEvent(tick=0, channel=4, data=[59, 95]),
   midi.NoteOffEvent(tick=240, channel=4, data=[59, 80]),
   midi.NoteOnEvent(tick=0, channel=5, data=[58, 95]),
   midi.PitchWheelEvent(tick=80, channel=5, data=[0, 64]),
   midi.PitchWheelEvent(tick=80, channel=5, data=[0, 67]),
   midi.PitchWheelEvent(tick=80, channel=5, data=[0, 64]),
   midi.PitchWheelEvent(tick=80, channel=5, data=[0, 67]),
   midi.PitchWheelEvent(tick=40, channel=5, data=[0, 64]),
   midi.NoteOffEvent(tick=0, channel=5, data=[58, 80]),
   midi.NoteOnEvent(tick=0, channel=4, data=[54, 95]),
   midi.NoteOffEvent(tick=360, channel=4, data=[54, 80]),
   midi.NoteOnEvent(tick=0, channel=4, data=[52, 95]),
   midi.NoteOffEvent(tick=240, channel=4, data=[52, 80]),
   midi.NoteOnEvent(tick=59520, channel=4, data=[44, 95]),
   midi.NoteOffEvent(tick=360, channel=4, data=[44, 80]),
   midi.NoteOnEvent(tick=0, channel=4, data=[54, 95]),
   midi.NoteOffEvent(tick=360, channel=4, data=[54, 80]),
   midi.NoteOnEvent(tick=0, channel=4, data=[61, 95]),
   midi.NoteOffEvent(tick=240, channel=4, data=[61, 80]),
   midi.NoteOnEvent(tick=0, channel=5, data=[60, 95]),
   midi.PitchWheelEvent(tick=80, channel=5, data=[0, 64]),
   midi.PitchWheelEvent(tick=80, channel=5, data=[0, 67]),
   midi.PitchWheelEvent(tick=80, channel=5, data=[0, 64]),
   midi.PitchWheelEvent(tick=80, channel=5, data=[0, 67]),
   midi.PitchWheelEvent(tick=40, channel=5, data=[0, 64]),
   midi.NoteOffEvent(tick=0, channel=5, data=[60, 80]),
   midi.NoteOnEvent(tick=0, channel=4, data=[56, 95]),
   midi.NoteOffEvent(tick=360, channel=4, data=[56, 80]),
   midi.NoteOnEvent(tick=0, channel=4, data=[54, 95]),
   midi.NoteOffEvent(tick=240, channel=4, data=[54, 80]),
   midi.NoteOnEvent(tick=0, channel=4, data=[44, 95]),
   midi.NoteOffEvent(tick=360, channel=4, data=[44, 80]),
   midi.NoteOnEvent(tick=0, channel=4, data=[52, 95]),
   midi.NoteOffEvent(tick=360, channel=4, data=[52, 80]),
   midi.NoteOnEvent(tick=0, channel=4, data=[59, 95]),
   midi.NoteOffEvent(tick=240, channel=4, data=[59, 80]),
   midi.NoteOnEvent(tick=0, channel=5, data=[58, 95]),
   midi.PitchWheelEvent(tick=80, channel=5, data=[0, 64]),
   midi.PitchWheelEvent(tick=80, channel=5, data=[0, 67]),
   midi.PitchWheelEvent(tick=80, channel=5, data=[0, 64]),
   midi.PitchWheelEvent(tick=80, channel=5, data=[0, 67]),
   midi.PitchWheelEvent(tick=40, channel=5, data=[0, 64]),
   midi.NoteOffEvent(tick=0, channel=5, data=[58, 80]),
   midi.NoteOnEvent(tick=0, channel=4, data=[54, 95]),
   midi.NoteOffEvent(tick=360, channel=4, data=[54, 80]),
   midi.NoteOnEvent(tick=0, channel=4, data=[52, 95]),
   midi.NoteOffEvent(tick=240, channel=4, data=[52, 80]),
   midi.NoteOnEvent(tick=0, channel=4, data=[44, 95]),
   midi.NoteOffEvent(tick=360, channel=4, data=[44, 80]),
   midi.NoteOnEvent(tick=0, channel=4, data=[54, 95]),
   midi.NoteOffEvent(tick=360, channel=4, data=[54, 80]),
   midi.NoteOnEvent(tick=0, channel=4, data=[61, 95]),
   midi.NoteOffEvent(tick=240, channel=4, data=[61, 80]),
   midi.NoteOnEvent(tick=0, channel=5, data=[60, 95]),
   midi.PitchWheelEvent(tick=80, channel=5, data=[0, 64]),
   midi.PitchWheelEvent(tick=80, channel=5, data=[0, 67]),
   midi.PitchWheelEvent(tick=80, channel=5, data=[0, 64]),
   midi.PitchWheelEvent(tick=80, channel=5, data=[0, 67]),
   midi.PitchWheelEvent(tick=40, channel=5, data=[0, 64]),
   midi.NoteOffEvent(tick=0, channel=5, data=[60, 80]),
   midi.NoteOnEvent(tick=0, channel=4, data=[56, 95]),
   midi.NoteOffEvent(tick=360, channel=4, data=[56, 80]),
   midi.NoteOnEvent(tick=0, channel=4, data=[54, 95]),
   midi.NoteOffEvent(tick=240, channel=4, data=[54, 80]),
   midi.NoteOnEvent(tick=0, channel=4, data=[44, 95]),
   midi.NoteOffEvent(tick=360, channel=4, data=[44, 80]),
   midi.NoteOnEvent(tick=0, channel=4, data=[52, 95]),
   midi.NoteOffEvent(tick=360, channel=4, data=[52, 80]),
   midi.NoteOnEvent(tick=0, channel=4, data=[59, 95]),
   midi.NoteOffEvent(tick=240, channel=4, data=[59, 80]),
   midi.NoteOnEvent(tick=0, channel=5, data=[58, 95]),
   midi.PitchWheelEvent(tick=80, channel=5, data=[0, 64]),
   midi.PitchWheelEvent(tick=80, channel=5, data=[0, 67]),
   midi.PitchWheelEvent(tick=80, channel=5, data=[0, 64]),
   midi.PitchWheelEvent(tick=80, channel=5, data=[0, 67]),
   midi.PitchWheelEvent(tick=40, channel=5, data=[0, 64]),
   midi.NoteOffEvent(tick=0, channel=5, data=[58, 80]),
   midi.NoteOnEvent(tick=0, channel=4, data=[54, 95]),
   midi.NoteOffEvent(tick=360, channel=4, data=[54, 80]),
   midi.NoteOnEvent(tick=0, channel=4, data=[52, 95]),
   midi.NoteOffEvent(tick=240, channel=4, data=[52, 80]),
   midi.NoteOnEvent(tick=0, channel=4, data=[44, 95]),
   midi.NoteOffEvent(tick=360, channel=4, data=[44, 80]),
   midi.NoteOnEvent(tick=0, channel=4, data=[54, 95]),
   midi.NoteOffEvent(tick=360, channel=4, data=[54, 80]),
   midi.NoteOnEvent(tick=0, channel=4, data=[61, 95]),
   midi.NoteOffEvent(tick=240, channel=4, data=[61, 80]),
   midi.NoteOnEvent(tick=0, channel=5, data=[60, 95]),
   midi.PitchWheelEvent(tick=80, channel=5, data=[0, 64]),
   midi.PitchWheelEvent(tick=80, channel=5, data=[0, 67]),
   midi.PitchWheelEvent(tick=80, channel=5, data=[0, 64]),
   midi.PitchWheelEvent(tick=80, channel=5, data=[0, 67]),
   midi.PitchWheelEvent(tick=40, channel=5, data=[0, 64]),
   midi.NoteOffEvent(tick=0, channel=5, data=[60, 80]),
   midi.NoteOnEvent(tick=0, channel=4, data=[56, 95]),
   midi.NoteOffEvent(tick=360, channel=4, data=[56, 80]),
   midi.NoteOnEvent(tick=0, channel=4, data=[54, 95]),
   midi.NoteOffEvent(tick=240, channel=4, data=[54, 80]),
   midi.NoteOnEvent(tick=0, channel=4, data=[44, 95]),
   midi.NoteOffEvent(tick=360, channel=4, data=[44, 80]),
   midi.NoteOnEvent(tick=0, channel=4, data=[52, 95]),
   midi.NoteOffEvent(tick=360, channel=4, data=[52, 80]),
   midi.NoteOnEvent(tick=0, channel=4, data=[59, 95]),
   midi.NoteOffEvent(tick=240, channel=4, data=[59, 80]),
   midi.NoteOnEvent(tick=0, channel=5, data=[58, 95]),
   midi.PitchWheelEvent(tick=80, channel=5, data=[0, 64]),
   midi.PitchWheelEvent(tick=80, channel=5, data=[0, 67]),
   midi.PitchWheelEvent(tick=80, channel=5, data=[0, 64]),
   midi.PitchWheelEvent(tick=80, channel=5, data=[0, 67]),
   midi.PitchWheelEvent(tick=40, channel=5, data=[0, 64]),
   midi.NoteOffEvent(tick=0, channel=5, data=[58, 80]),
   midi.NoteOnEvent(tick=0, channel=4, data=[54, 95]),
   midi.NoteOffEvent(tick=360, channel=4, data=[54, 80]),
   midi.NoteOnEvent(tick=0, channel=4, data=[52, 95]),
   midi.NoteOffEvent(tick=240, channel=4, data=[52, 80]),
   midi.NoteOnEvent(tick=1920, channel=4, data=[64, 95]),
   midi.NoteOffEvent(tick=360, channel=4, data=[64, 80]),
   midi.NoteOnEvent(tick=0, channel=4, data=[63, 95]),
   midi.NoteOffEvent(tick=360, channel=4, data=[63, 80]),
   midi.NoteOnEvent(tick=0, channel=4, data=[59, 95]),
   midi.NoteOffEvent(tick=240, channel=4, data=[59, 80]),
   midi.NoteOnEvent(tick=0, channel=4, data=[58, 95]),
   midi.NoteOffEvent(tick=360, channel=4, data=[58, 80]),
   midi.NoteOnEvent(tick=0, channel=4, data=[54, 95]),
   midi.NoteOffEvent(tick=360, channel=4, data=[54, 80]),
   midi.NoteOnEvent(tick=0, channel=4, data=[52, 95]),
   midi.NoteOffEvent(tick=240, channel=4, data=[52, 80]),
   midi.NoteOnEvent(tick=23040, channel=4, data=[51, 95]),
   midi.NoteOffEvent(tick=360, channel=4, data=[51, 80]),
   midi.NoteOnEvent(tick=0, channel=4, data=[58, 95]),
   midi.NoteOffEvent(tick=360, channel=4, data=[58, 80]),
   midi.NoteOnEvent(tick=0, channel=4, data=[54, 95]),
   midi.NoteOffEvent(tick=240, channel=4, data=[54, 80]),
   midi.NoteOnEvent(tick=0, channel=4, data=[56, 95]),
   midi.NoteOffEvent(tick=360, channel=4, data=[56, 80]),
   midi.NoteOnEvent(tick=0, channel=4, data=[61, 95]),
   midi.NoteOffEvent(tick=360, channel=4, data=[61, 80]),
   midi.NoteOnEvent(tick=0, channel=4, data=[56, 95]),
   midi.NoteOffEvent(tick=240, channel=4, data=[56, 80]),
   midi.NoteOnEvent(tick=0, channel=4, data=[54, 95]),
   midi.NoteOffEvent(tick=360, channel=4, data=[54, 80]),
   midi.NoteOnEvent(tick=0, channel=4, data=[58, 95]),
   midi.NoteOffEvent(tick=360, channel=4, data=[58, 80]),
   midi.NoteOnEvent(tick=0, channel=4, data=[54, 95]),
   midi.NoteOffEvent(tick=240, channel=4, data=[54, 80]),
   midi.NoteOnEvent(tick=0, channel=4, data=[51, 95]),
   midi.NoteOffEvent(tick=360, channel=4, data=[51, 80]),
   midi.NoteOnEvent(tick=0, channel=4, data=[59, 95]),
   midi.NoteOffEvent(tick=360, channel=4, data=[59, 80]),
   midi.NoteOnEvent(tick=0, channel=4, data=[58, 95]),
   midi.NoteOffEvent(tick=240, channel=4, data=[58, 80]),
   midi.NoteOnEvent(tick=13440, channel=4, data=[44, 95]),
   midi.NoteOffEvent(tick=360, channel=4, data=[44, 80]),
   midi.NoteOnEvent(tick=0, channel=4, data=[54, 95]),
   midi.NoteOffEvent(tick=360, channel=4, data=[54, 80]),
   midi.NoteOnEvent(tick=0, channel=4, data=[61, 95]),
   midi.NoteOffEvent(tick=240, channel=4, data=[61, 80]),
   midi.NoteOnEvent(tick=0, channel=5, data=[60, 95]),
   midi.PitchWheelEvent(tick=80, channel=5, data=[0, 64]),
   midi.PitchWheelEvent(tick=80, channel=5, data=[0, 67]),
   midi.PitchWheelEvent(tick=80, channel=5, data=[0, 64]),
   midi.PitchWheelEvent(tick=80, channel=5, data=[0, 67]),
   midi.PitchWheelEvent(tick=40, channel=5, data=[0, 64]),
   midi.NoteOffEvent(tick=0, channel=5, data=[60, 80]),
   midi.NoteOnEvent(tick=0, channel=4, data=[56, 95]),
   midi.NoteOffEvent(tick=360, channel=4, data=[56, 80]),
   midi.NoteOnEvent(tick=0, channel=4, data=[54, 95]),
   midi.NoteOffEvent(tick=240, channel=4, data=[54, 80]),
   midi.NoteOnEvent(tick=0, channel=4, data=[44, 95]),
   midi.NoteOffEvent(tick=360, channel=4, data=[44, 80]),
   midi.NoteOnEvent(tick=0, channel=4, data=[52, 95]),
   midi.NoteOffEvent(tick=360, channel=4, data=[52, 80]),
   midi.NoteOnEvent(tick=0, channel=4, data=[59, 95]),
   midi.NoteOffEvent(tick=240, channel=4, data=[59, 80]),
   midi.NoteOnEvent(tick=0, channel=5, data=[58, 95]),
   midi.PitchWheelEvent(tick=80, channel=5, data=[0, 64]),
   midi.PitchWheelEvent(tick=80, channel=5, data=[0, 67]),
   midi.PitchWheelEvent(tick=80, channel=5, data=[0, 64]),
   midi.PitchWheelEvent(tick=80, channel=5, data=[0, 67]),
   midi.PitchWheelEvent(tick=40, channel=5, data=[0, 64]),
   midi.NoteOffEvent(tick=0, channel=5, data=[58, 80]),
   midi.NoteOnEvent(tick=0, channel=4, data=[54, 95]),
   midi.NoteOffEvent(tick=360, channel=4, data=[54, 80]),
   midi.NoteOnEvent(tick=0, channel=4, data=[52, 95]),
   midi.NoteOffEvent(tick=240, channel=4, data=[52, 80]),
   midi.NoteOnEvent(tick=0, channel=4, data=[44, 95]),
   midi.NoteOffEvent(tick=360, channel=4, data=[44, 80]),
   midi.NoteOnEvent(tick=0, channel=4, data=[54, 95]),
   midi.NoteOffEvent(tick=360, channel=4, data=[54, 80]),
   midi.NoteOnEvent(tick=0, channel=4, data=[61, 95]),
   midi.NoteOffEvent(tick=240, channel=4, data=[61, 80]),
   midi.NoteOnEvent(tick=0, channel=5, data=[60, 95]),
   midi.PitchWheelEvent(tick=80, channel=5, data=[0, 64]),
   midi.PitchWheelEvent(tick=80, channel=5, data=[0, 67]),
   midi.PitchWheelEvent(tick=80, channel=5, data=[0, 64]),
   midi.PitchWheelEvent(tick=80, channel=5, data=[0, 67]),
   midi.PitchWheelEvent(tick=40, channel=5, data=[0, 64]),
   midi.NoteOffEvent(tick=0, channel=5, data=[60, 80]),
   midi.NoteOnEvent(tick=0, channel=4, data=[56, 95]),
   midi.NoteOffEvent(tick=360, channel=4, data=[56, 80]),
   midi.NoteOnEvent(tick=0, channel=4, data=[54, 95]),
   midi.NoteOffEvent(tick=240, channel=4, data=[54, 80]),
   midi.NoteOnEvent(tick=0, channel=4, data=[44, 95]),
   midi.NoteOffEvent(tick=360, channel=4, data=[44, 80]),
   midi.NoteOnEvent(tick=0, channel=4, data=[52, 95]),
   midi.NoteOffEvent(tick=360, channel=4, data=[52, 80]),
   midi.NoteOnEvent(tick=0, channel=4, data=[59, 95]),
   midi.NoteOffEvent(tick=240, channel=4, data=[59, 80]),
   midi.NoteOnEvent(tick=0, channel=5, data=[58, 95]),
   midi.PitchWheelEvent(tick=80, channel=5, data=[0, 64]),
   midi.PitchWheelEvent(tick=80, channel=5, data=[0, 67]),
   midi.PitchWheelEvent(tick=80, channel=5, data=[0, 64]),
   midi.PitchWheelEvent(tick=80, channel=5, data=[0, 67]),
   midi.PitchWheelEvent(tick=40, channel=5, data=[0, 64]),
   midi.NoteOffEvent(tick=0, channel=5, data=[58, 80]),
   midi.NoteOnEvent(tick=0, channel=4, data=[54, 95]),
   midi.NoteOffEvent(tick=360, channel=4, data=[54, 80]),
   midi.NoteOnEvent(tick=0, channel=4, data=[52, 95]),
   midi.NoteOffEvent(tick=240, channel=4, data=[52, 80]),
   midi.NoteOnEvent(tick=0, channel=4, data=[44, 95]),
   midi.NoteOffEvent(tick=360, channel=4, data=[44, 80]),
   midi.NoteOnEvent(tick=0, channel=4, data=[54, 95]),
   midi.NoteOffEvent(tick=360, channel=4, data=[54, 80]),
   midi.NoteOnEvent(tick=0, channel=4, data=[61, 95]),
   midi.NoteOffEvent(tick=240, channel=4, data=[61, 80]),
   midi.NoteOnEvent(tick=0, channel=5, data=[60, 95]),
   midi.PitchWheelEvent(tick=80, channel=5, data=[0, 64]),
   midi.PitchWheelEvent(tick=80, channel=5, data=[0, 67]),
   midi.PitchWheelEvent(tick=80, channel=5, data=[0, 64]),
   midi.PitchWheelEvent(tick=80, channel=5, data=[0, 67]),
   midi.PitchWheelEvent(tick=40, channel=5, data=[0, 64]),
   midi.NoteOffEvent(tick=0, channel=5, data=[60, 80]),
   midi.NoteOnEvent(tick=0, channel=4, data=[56, 95]),
   midi.NoteOffEvent(tick=360, channel=4, data=[56, 80]),
   midi.NoteOnEvent(tick=0, channel=4, data=[54, 95]),
   midi.NoteOffEvent(tick=240, channel=4, data=[54, 80]),
   midi.NoteOnEvent(tick=0, channel=4, data=[44, 95]),
   midi.NoteOffEvent(tick=360, channel=4, data=[44, 80]),
   midi.NoteOnEvent(tick=0, channel=4, data=[52, 95]),
   midi.NoteOffEvent(tick=360, channel=4, data=[52, 80]),
   midi.NoteOnEvent(tick=0, channel=4, data=[59, 95]),
   midi.NoteOffEvent(tick=240, channel=4, data=[59, 80]),
   midi.NoteOnEvent(tick=0, channel=5, data=[58, 95]),
   midi.PitchWheelEvent(tick=80, channel=5, data=[0, 64]),
   midi.PitchWheelEvent(tick=80, channel=5, data=[0, 67]),
   midi.PitchWheelEvent(tick=80, channel=5, data=[0, 64]),
   midi.PitchWheelEvent(tick=80, channel=5, data=[0, 67]),
   midi.PitchWheelEvent(tick=40, channel=5, data=[0, 64]),
   midi.NoteOffEvent(tick=0, channel=5, data=[58, 80]),
   midi.NoteOnEvent(tick=0, channel=4, data=[54, 95]),
   midi.NoteOffEvent(tick=360, channel=4, data=[54, 80]),
   midi.NoteOnEvent(tick=0, channel=4, data=[52, 95]),
   midi.NoteOffEvent(tick=240, channel=4, data=[52, 80]),
   midi.NoteOnEvent(tick=3840, channel=4, data=[44, 95]),
   midi.NoteOffEvent(tick=360, channel=4, data=[44, 80]),
   midi.NoteOnEvent(tick=0, channel=4, data=[54, 95]),
   midi.NoteOffEvent(tick=360, channel=4, data=[54, 80]),
   midi.NoteOnEvent(tick=0, channel=4, data=[61, 95]),
   midi.NoteOffEvent(tick=240, channel=4, data=[61, 80]),
   midi.NoteOnEvent(tick=0, channel=5, data=[60, 95]),
   midi.PitchWheelEvent(tick=80, channel=5, data=[0, 64]),
   midi.PitchWheelEvent(tick=80, channel=5, data=[0, 67]),
   midi.PitchWheelEvent(tick=80, channel=5, data=[0, 64]),
   midi.PitchWheelEvent(tick=80, channel=5, data=[0, 67]),
   midi.PitchWheelEvent(tick=40, channel=5, data=[0, 64]),
   midi.NoteOffEvent(tick=0, channel=5, data=[60, 80]),
   midi.NoteOnEvent(tick=0, channel=4, data=[56, 95]),
   midi.NoteOffEvent(tick=360, channel=4, data=[56, 80]),
   midi.NoteOnEvent(tick=0, channel=4, data=[54, 95]),
   midi.NoteOffEvent(tick=240, channel=4, data=[54, 80]),
   midi.NoteOnEvent(tick=0, channel=4, data=[44, 95]),
   midi.NoteOffEvent(tick=360, channel=4, data=[44, 80]),
   midi.NoteOnEvent(tick=0, channel=4, data=[52, 95]),
   midi.NoteOffEvent(tick=360, channel=4, data=[52, 80]),
   midi.NoteOnEvent(tick=0, channel=4, data=[59, 95]),
   midi.NoteOffEvent(tick=240, channel=4, data=[59, 80]),
   midi.NoteOnEvent(tick=0, channel=5, data=[58, 95]),
   midi.PitchWheelEvent(tick=80, channel=5, data=[0, 64]),
   midi.PitchWheelEvent(tick=80, channel=5, data=[0, 67]),
   midi.PitchWheelEvent(tick=80, channel=5, data=[0, 64]),
   midi.PitchWheelEvent(tick=80, channel=5, data=[0, 67]),
   midi.PitchWheelEvent(tick=40, channel=5, data=[0, 64]),
   midi.NoteOffEvent(tick=0, channel=5, data=[58, 80]),
   midi.NoteOnEvent(tick=0, channel=4, data=[54, 95]),
   midi.NoteOffEvent(tick=360, channel=4, data=[54, 80]),
   midi.NoteOnEvent(tick=0, channel=4, data=[52, 95]),
   midi.NoteOffEvent(tick=240, channel=4, data=[52, 80]),
   midi.NoteOnEvent(tick=0, channel=4, data=[44, 95]),
   midi.NoteOffEvent(tick=360, channel=4, data=[44, 80]),
   midi.NoteOnEvent(tick=0, channel=4, data=[54, 95]),
   midi.NoteOffEvent(tick=360, channel=4, data=[54, 80]),
   midi.NoteOnEvent(tick=0, channel=4, data=[61, 95]),
   midi.NoteOffEvent(tick=240, channel=4, data=[61, 80]),
   midi.NoteOnEvent(tick=0, channel=5, data=[60, 95]),
   midi.PitchWheelEvent(tick=80, channel=5, data=[0, 64]),
   midi.PitchWheelEvent(tick=80, channel=5, data=[0, 67]),
   midi.PitchWheelEvent(tick=80, channel=5, data=[0, 64]),
   midi.PitchWheelEvent(tick=80, channel=5, data=[0, 67]),
   midi.PitchWheelEvent(tick=40, channel=5, data=[0, 64]),
   midi.NoteOffEvent(tick=0, channel=5, data=[60, 80]),
   midi.NoteOnEvent(tick=0, channel=4, data=[56, 95]),
   midi.NoteOffEvent(tick=360, channel=4, data=[56, 80]),
   midi.NoteOnEvent(tick=0, channel=4, data=[54, 95]),
   midi.NoteOffEvent(tick=240, channel=4, data=[54, 80]),
   midi.NoteOnEvent(tick=0, channel=4, data=[44, 95]),
   midi.NoteOffEvent(tick=360, channel=4, data=[44, 80]),
   midi.NoteOnEvent(tick=0, channel=4, data=[52, 95]),
   midi.NoteOffEvent(tick=360, channel=4, data=[52, 80]),
   midi.NoteOnEvent(tick=0, channel=4, data=[59, 95]),
   midi.NoteOffEvent(tick=240, channel=4, data=[59, 80]),
   midi.NoteOnEvent(tick=0, channel=5, data=[58, 95]),
   midi.PitchWheelEvent(tick=80, channel=5, data=[0, 64]),
   midi.PitchWheelEvent(tick=80, channel=5, data=[0, 67]),
   midi.PitchWheelEvent(tick=80, channel=5, data=[0, 64]),
   midi.PitchWheelEvent(tick=80, channel=5, data=[0, 67]),
   midi.PitchWheelEvent(tick=40, channel=5, data=[0, 64]),
   midi.NoteOffEvent(tick=0, channel=5, data=[58, 80]),
   midi.NoteOnEvent(tick=0, channel=4, data=[54, 95]),
   midi.NoteOffEvent(tick=360, channel=4, data=[54, 80]),
   midi.NoteOnEvent(tick=0, channel=4, data=[52, 95]),
   midi.NoteOffEvent(tick=240, channel=4, data=[52, 80]),
   midi.NoteOnEvent(tick=0, channel=4, data=[44, 95]),
   midi.NoteOffEvent(tick=360, channel=4, data=[44, 80]),
   midi.NoteOnEvent(tick=0, channel=4, data=[54, 95]),
   midi.NoteOffEvent(tick=360, channel=4, data=[54, 80]),
   midi.NoteOnEvent(tick=0, channel=4, data=[61, 95]),
   midi.NoteOffEvent(tick=240, channel=4, data=[61, 80]),
   midi.NoteOnEvent(tick=0, channel=5, data=[60, 95]),
   midi.PitchWheelEvent(tick=80, channel=5, data=[0, 64]),
   midi.PitchWheelEvent(tick=80, channel=5, data=[0, 67]),
   midi.PitchWheelEvent(tick=80, channel=5, data=[0, 64]),
   midi.PitchWheelEvent(tick=80, channel=5, data=[0, 67]),
   midi.PitchWheelEvent(tick=40, channel=5, data=[0, 64]),
   midi.NoteOffEvent(tick=0, channel=5, data=[60, 80]),
   midi.NoteOnEvent(tick=0, channel=4, data=[56, 95]),
   midi.NoteOffEvent(tick=360, channel=4, data=[56, 80]),
   midi.NoteOnEvent(tick=0, channel=4, data=[54, 95]),
   midi.NoteOffEvent(tick=240, channel=4, data=[54, 80]),
   midi.NoteOnEvent(tick=0, channel=4, data=[44, 95]),
   midi.NoteOffEvent(tick=360, channel=4, data=[44, 80]),
   midi.NoteOnEvent(tick=0, channel=4, data=[52, 95]),
   midi.NoteOffEvent(tick=360, channel=4, data=[52, 80]),
   midi.NoteOnEvent(tick=0, channel=4, data=[59, 95]),
   midi.NoteOffEvent(tick=240, channel=4, data=[59, 80]),
   midi.NoteOnEvent(tick=0, channel=5, data=[58, 95]),
   midi.PitchWheelEvent(tick=80, channel=5, data=[0, 64]),
   midi.PitchWheelEvent(tick=80, channel=5, data=[0, 67]),
   midi.PitchWheelEvent(tick=80, channel=5, data=[0, 64]),
   midi.PitchWheelEvent(tick=80, channel=5, data=[0, 67]),
   midi.PitchWheelEvent(tick=40, channel=5, data=[0, 64]),
   midi.NoteOffEvent(tick=0, channel=5, data=[58, 80]),
   midi.NoteOnEvent(tick=0, channel=4, data=[54, 95]),
   midi.NoteOffEvent(tick=360, channel=4, data=[54, 80]),
   midi.NoteOnEvent(tick=0, channel=4, data=[52, 95]),
   midi.NoteOffEvent(tick=240, channel=4, data=[52, 80]),
   midi.EndOfTrackEvent(tick=0, data=[])])])