midi.Pattern(format=1, resolution=384, tracks=\
[midi.Track(\
  [midi.CopyrightMetaEvent(tick=0, text='(c)1990, by MEGADETH', data=[40, 99, 41, 49, 57, 57, 48, 44, 32, 98, 121, 32, 77, 69, 71, 65, 68, 69, 84, 72]),
   midi.SequencerSpecificEvent(tick=0, data=[0, 0, 65]),
   midi.TimeSignatureEvent(tick=0, data=[4, 2, 24, 8]),
   midi.KeySignatureEvent(tick=0, data=[1, 0]),
   midi.SetTempoEvent(tick=0, data=[5, 98, 173]),
   midi.SetTempoEvent(tick=6144, data=[7, 24, 220]),
   midi.SetTempoEvent(tick=117504, data=[5, 140, 116]),
   midi.TimeSignatureEvent(tick=45312, data=[7, 3, 12, 8]),
   midi.TimeSignatureEvent(tick=1344, data=[10, 3, 12, 8]),
   midi.KeySignatureEvent(tick=0, data=[0, 0]),
   midi.SetTempoEvent(tick=0, data=[6, 26, 128]),
   midi.TimeSignatureEvent(tick=28800, data=[12, 3, 12, 8]),
   midi.TimeSignatureEvent(tick=2304, data=[4, 2, 24, 8]),
   midi.TimeSignatureEvent(tick=12288, data=[5, 2, 24, 8]),
   midi.SetTempoEvent(tick=0, data=[5, 98, 173]),
   midi.TimeSignatureEvent(tick=30720, data=[4, 2, 24, 8]),
   midi.EndOfTrackEvent(tick=0, data=[])]),
 midi.Track(\
  [midi.PortEvent(tick=0, data=[0]),
   midi.TrackNameEvent(tick=0, text='Vocal', data=[86, 111, 99, 97, 108]),
   midi.ProgramChangeEvent(tick=0, channel=0, data=[67]),
   midi.ControlChangeEvent(tick=0, channel=0, data=[7, 100]),
   midi.ControlChangeEvent(tick=0, channel=0, data=[0, 0]),
   midi.ControlChangeEvent(tick=0, channel=0, data=[32, 0]),
   midi.ControlChangeEvent(tick=0, channel=0, data=[0, 0]),
   midi.NoteOnEvent(tick=124800, channel=0, data=[77, 100]),
   midi.NoteOnEvent(tick=268, channel=0, data=[77, 0]),
   midi.NoteOnEvent(tick=116, channel=0, data=[77, 100]),
   midi.NoteOnEvent(tick=132, channel=0, data=[77, 0]),
   midi.NoteOnEvent(tick=60, channel=0, data=[77, 100]),
   midi.NoteOnEvent(tick=268, channel=0, data=[77, 0]),
   midi.NoteOnEvent(tick=116, channel=0, data=[79, 100]),
   midi.NoteOnEvent(tick=384, channel=0, data=[77, 100]),
   midi.NoteOnEvent(tick=16, channel=0, data=[79, 0]),
   midi.NoteOnEvent(tick=252, channel=0, data=[77, 0]),
   midi.NoteOnEvent(tick=116, channel=0, data=[77, 100]),
   midi.NoteOnEvent(tick=268, channel=0, data=[77, 0]),
   midi.NoteOnEvent(tick=116, channel=0, data=[79, 100]),
   midi.NoteOnEvent(tick=400, channel=0, data=[79, 0]),
   midi.NoteOnEvent(tick=176, channel=0, data=[76, 100]),
   midi.NoteOnEvent(tick=132, channel=0, data=[76, 0]),
   midi.NoteOnEvent(tick=60, channel=0, data=[76, 100]),
   midi.NoteOnEvent(tick=400, channel=0, data=[76, 0]),
   midi.NoteOnEvent(tick=176, channel=0, data=[76, 100]),
   midi.NoteOnEvent(tick=268, channel=0, data=[76, 0]),
   midi.NoteOnEvent(tick=116, channel=0, data=[76, 100]),
   midi.NoteOnEvent(tick=132, channel=0, data=[76, 0]),
   midi.NoteOnEvent(tick=60, channel=0, data=[76, 100]),
   midi.NoteOnEvent(tick=384, channel=0, data=[79, 100]),
   midi.NoteOnEvent(tick=16, channel=0, data=[76, 0]),
   midi.NoteOnEvent(tick=252, channel=0, data=[79, 0]),
   midi.NoteOnEvent(tick=116, channel=0, data=[76, 100]),
   midi.NoteOnEvent(tick=64, channel=0, data=[76, 0]),
   midi.NoteOnEvent(tick=32, channel=0, data=[74, 100]),
   midi.NoteOnEvent(tick=64, channel=0, data=[74, 0]),
   midi.NoteOnEvent(tick=32, channel=0, data=[76, 100]),
   midi.NoteOnEvent(tick=536, channel=0, data=[76, 0]),
   midi.NoteOnEvent(tick=6760, channel=0, data=[77, 100]),
   midi.NoteOnEvent(tick=268, channel=0, data=[77, 0]),
   midi.NoteOnEvent(tick=116, channel=0, data=[77, 100]),
   midi.NoteOnEvent(tick=268, channel=0, data=[77, 0]),
   midi.NoteOnEvent(tick=116, channel=0, data=[77, 100]),
   midi.NoteOnEvent(tick=132, channel=0, data=[77, 0]),
   midi.NoteOnEvent(tick=60, channel=0, data=[79, 100]),
   midi.NoteOnEvent(tick=384, channel=0, data=[77, 100]),
   midi.NoteOnEvent(tick=16, channel=0, data=[79, 0]),
   midi.NoteOnEvent(tick=252, channel=0, data=[77, 0]),
   midi.NoteOnEvent(tick=116, channel=0, data=[77, 100]),
   midi.NoteOnEvent(tick=268, channel=0, data=[77, 0]),
   midi.NoteOnEvent(tick=116, channel=0, data=[79, 100]),
   midi.NoteOnEvent(tick=132, channel=0, data=[79, 0]),
   midi.NoteOnEvent(tick=60, channel=0, data=[77, 100]),
   midi.NoteOnEvent(tick=268, channel=0, data=[77, 0]),
   midi.NoteOnEvent(tick=116, channel=0, data=[76, 100]),
   midi.NoteOnEvent(tick=268, channel=0, data=[76, 0]),
   midi.NoteOnEvent(tick=116, channel=0, data=[76, 100]),
   midi.NoteOnEvent(tick=132, channel=0, data=[76, 0]),
   midi.NoteOnEvent(tick=60, channel=0, data=[76, 100]),
   midi.NoteOnEvent(tick=132, channel=0, data=[76, 0]),
   midi.NoteOnEvent(tick=60, channel=0, data=[76, 100]),
   midi.NoteOnEvent(tick=536, channel=0, data=[76, 0]),
   midi.NoteOnEvent(tick=232, channel=0, data=[76, 100]),
   midi.NoteOnEvent(tick=268, channel=0, data=[76, 0]),
   midi.NoteOnEvent(tick=116, channel=0, data=[76, 100]),
   midi.NoteOnEvent(tick=132, channel=0, data=[76, 0]),
   midi.NoteOnEvent(tick=60, channel=0, data=[76, 100]),
   midi.NoteOnEvent(tick=132, channel=0, data=[76, 0]),
   midi.NoteOnEvent(tick=60, channel=0, data=[74, 100]),
   midi.NoteOnEvent(tick=536, channel=0, data=[74, 0]),
   midi.NoteOnEvent(tick=6760, channel=0, data=[77, 100]),
   midi.NoteOnEvent(tick=132, channel=0, data=[77, 0]),
   midi.NoteOnEvent(tick=60, channel=0, data=[77, 100]),
   midi.NoteOnEvent(tick=268, channel=0, data=[77, 0]),
   midi.NoteOnEvent(tick=116, channel=0, data=[77, 100]),
   midi.NoteOnEvent(tick=268, channel=0, data=[77, 0]),
   midi.NoteOnEvent(tick=116, channel=0, data=[79, 100]),
   midi.NoteOnEvent(tick=384, channel=0, data=[77, 100]),
   midi.NoteOnEvent(tick=16, channel=0, data=[79, 0]),
   midi.NoteOnEvent(tick=252, channel=0, data=[77, 0]),
   midi.NoteOnEvent(tick=116, channel=0, data=[77, 100]),
   midi.NoteOnEvent(tick=268, channel=0, data=[77, 0]),
   midi.NoteOnEvent(tick=116, channel=0, data=[77, 100]),
   midi.NoteOnEvent(tick=132, channel=0, data=[77, 0]),
   midi.NoteOnEvent(tick=60, channel=0, data=[77, 100]),
   midi.NoteOnEvent(tick=268, channel=0, data=[77, 0]),
   midi.NoteOnEvent(tick=116, channel=0, data=[76, 100]),
   midi.NoteOnEvent(tick=268, channel=0, data=[76, 0]),
   midi.NoteOnEvent(tick=116, channel=0, data=[76, 100]),
   midi.NoteOnEvent(tick=132, channel=0, data=[76, 0]),
   midi.NoteOnEvent(tick=60, channel=0, data=[76, 100]),
   midi.NoteOnEvent(tick=268, channel=0, data=[76, 0]),
   midi.NoteOnEvent(tick=116, channel=0, data=[76, 100]),
   midi.NoteOnEvent(tick=268, channel=0, data=[76, 0]),
   midi.NoteOnEvent(tick=116, channel=0, data=[76, 100]),
   midi.NoteOnEvent(tick=384, channel=0, data=[76, 100]),
   midi.NoteOnEvent(tick=16, channel=0, data=[76, 0]),
   midi.NoteOnEvent(tick=252, channel=0, data=[76, 0]),
   midi.NoteOnEvent(tick=116, channel=0, data=[76, 100]),
   midi.NoteOnEvent(tick=132, channel=0, data=[76, 0]),
   midi.NoteOnEvent(tick=60, channel=0, data=[74, 100]),
   midi.NoteOnEvent(tick=132, channel=0, data=[74, 0]),
   midi.NoteOnEvent(tick=60, channel=0, data=[76, 100]),
   midi.NoteOnEvent(tick=400, channel=0, data=[76, 0]),
   midi.NoteOnEvent(tick=6704, channel=0, data=[77, 100]),
   midi.NoteOnEvent(tick=132, channel=0, data=[77, 0]),
   midi.NoteOnEvent(tick=60, channel=0, data=[77, 100]),
   midi.NoteOnEvent(tick=132, channel=0, data=[77, 0]),
   midi.NoteOnEvent(tick=60, channel=0, data=[77, 100]),
   midi.NoteOnEvent(tick=132, channel=0, data=[77, 0]),
   midi.NoteOnEvent(tick=60, channel=0, data=[77, 100]),
   midi.NoteOnEvent(tick=268, channel=0, data=[77, 0]),
   midi.NoteOnEvent(tick=116, channel=0, data=[79, 100]),
   midi.NoteOnEvent(tick=384, channel=0, data=[77, 100]),
   midi.NoteOnEvent(tick=16, channel=0, data=[79, 0]),
   midi.NoteOnEvent(tick=252, channel=0, data=[77, 0]),
   midi.NoteOnEvent(tick=116, channel=0, data=[77, 100]),
   midi.NoteOnEvent(tick=268, channel=0, data=[77, 0]),
   midi.NoteOnEvent(tick=116, channel=0, data=[79, 100]),
   midi.NoteOnEvent(tick=268, channel=0, data=[79, 0]),
   midi.NoteOnEvent(tick=116, channel=0, data=[76, 100]),
   midi.NoteOnEvent(tick=384, channel=0, data=[76, 100]),
   midi.NoteOnEvent(tick=16, channel=0, data=[76, 0]),
   midi.NoteOnEvent(tick=252, channel=0, data=[76, 0]),
   midi.NoteOnEvent(tick=116, channel=0, data=[76, 100]),
   midi.NoteOnEvent(tick=268, channel=0, data=[76, 0]),
   midi.NoteOnEvent(tick=116, channel=0, data=[76, 100]),
   midi.NoteOnEvent(tick=400, channel=0, data=[76, 0]),
   midi.NoteOnEvent(tick=176, channel=0, data=[76, 100]),
   midi.NoteOnEvent(tick=132, channel=0, data=[76, 0]),
   midi.NoteOnEvent(tick=60, channel=0, data=[76, 100]),
   midi.NoteOnEvent(tick=268, channel=0, data=[76, 0]),
   midi.NoteOnEvent(tick=116, channel=0, data=[76, 100]),
   midi.NoteOnEvent(tick=268, channel=0, data=[76, 0]),
   midi.NoteOnEvent(tick=116, channel=0, data=[76, 100]),
   midi.NoteOnEvent(tick=268, channel=0, data=[76, 0]),
   midi.NoteOnEvent(tick=116, channel=0, data=[76, 100]),
   midi.NoteOnEvent(tick=132, channel=0, data=[76, 0]),
   midi.NoteOnEvent(tick=60, channel=0, data=[74, 100]),
   midi.NoteOnEvent(tick=536, channel=0, data=[74, 0]),
   midi.NoteOnEvent(tick=232, channel=0, data=[76, 100]),
   midi.NoteOnEvent(tick=1546, channel=0, data=[76, 0]),
   midi.NoteOnEvent(tick=23606, channel=0, data=[79, 100]),
   midi.NoteOnEvent(tick=132, channel=0, data=[79, 0]),
   midi.NoteOnEvent(tick=60, channel=0, data=[79, 100]),
   midi.NoteOnEvent(tick=132, channel=0, data=[79, 0]),
   midi.NoteOnEvent(tick=60, channel=0, data=[79, 100]),
   midi.NoteOnEvent(tick=132, channel=0, data=[79, 0]),
   midi.NoteOnEvent(tick=60, channel=0, data=[78, 100]),
   midi.NoteOnEvent(tick=132, channel=0, data=[78, 0]),
   midi.NoteOnEvent(tick=60, channel=0, data=[78, 100]),
   midi.NoteOnEvent(tick=132, channel=0, data=[78, 0]),
   midi.NoteOnEvent(tick=60, channel=0, data=[77, 100]),
   midi.NoteOnEvent(tick=132, channel=0, data=[77, 0]),
   midi.NoteOnEvent(tick=60, channel=0, data=[77, 100]),
   midi.NoteOnEvent(tick=132, channel=0, data=[77, 0]),
   midi.NoteOnEvent(tick=60, channel=0, data=[77, 100]),
   midi.NoteOnEvent(tick=132, channel=0, data=[77, 0]),
   midi.NoteOnEvent(tick=60, channel=0, data=[76, 100]),
   midi.NoteOnEvent(tick=132, channel=0, data=[76, 0]),
   midi.NoteOnEvent(tick=60, channel=0, data=[76, 100]),
   midi.NoteOnEvent(tick=132, channel=0, data=[76, 0]),
   midi.NoteOnEvent(tick=60, channel=0, data=[79, 100]),
   midi.NoteOnEvent(tick=132, channel=0, data=[79, 0]),
   midi.NoteOnEvent(tick=60, channel=0, data=[79, 100]),
   midi.NoteOnEvent(tick=132, channel=0, data=[79, 0]),
   midi.NoteOnEvent(tick=60, channel=0, data=[79, 100]),
   midi.NoteOnEvent(tick=64, channel=0, data=[79, 0]),
   midi.NoteOnEvent(tick=32, channel=0, data=[79, 100]),
   midi.NoteOnEvent(tick=64, channel=0, data=[79, 0]),
   midi.NoteOnEvent(tick=32, channel=0, data=[78, 100]),
   midi.NoteOnEvent(tick=132, channel=0, data=[78, 0]),
   midi.NoteOnEvent(tick=60, channel=0, data=[78, 100]),
   midi.NoteOnEvent(tick=132, channel=0, data=[78, 0]),
   midi.NoteOnEvent(tick=60, channel=0, data=[77, 100]),
   midi.NoteOnEvent(tick=132, channel=0, data=[77, 0]),
   midi.NoteOnEvent(tick=60, channel=0, data=[77, 100]),
   midi.NoteOnEvent(tick=132, channel=0, data=[77, 0]),
   midi.NoteOnEvent(tick=60, channel=0, data=[77, 100]),
   midi.NoteOnEvent(tick=132, channel=0, data=[77, 0]),
   midi.NoteOnEvent(tick=60, channel=0, data=[76, 100]),
   midi.NoteOnEvent(tick=132, channel=0, data=[76, 0]),
   midi.NoteOnEvent(tick=60, channel=0, data=[76, 100]),
   midi.NoteOnEvent(tick=132, channel=0, data=[76, 0]),
   midi.NoteOnEvent(tick=3516, channel=0, data=[79, 100]),
   midi.NoteOnEvent(tick=132, channel=0, data=[79, 0]),
   midi.NoteOnEvent(tick=60, channel=0, data=[76, 100]),
   midi.NoteOnEvent(tick=132, channel=0, data=[76, 0]),
   midi.NoteOnEvent(tick=60, channel=0, data=[76, 100]),
   midi.NoteOnEvent(tick=132, channel=0, data=[76, 0]),
   midi.NoteOnEvent(tick=60, channel=0, data=[74, 100]),
   midi.NoteOnEvent(tick=132, channel=0, data=[74, 0]),
   midi.NoteOnEvent(tick=60, channel=0, data=[76, 100]),
   midi.NoteOnEvent(tick=268, channel=0, data=[76, 0]),
   midi.NoteOnEvent(tick=500, channel=0, data=[79, 100]),
   midi.NoteOnEvent(tick=132, channel=0, data=[79, 0]),
   midi.NoteOnEvent(tick=60, channel=0, data=[76, 100]),
   midi.NoteOnEvent(tick=132, channel=0, data=[76, 0]),
   midi.NoteOnEvent(tick=60, channel=0, data=[76, 100]),
   midi.NoteOnEvent(tick=132, channel=0, data=[76, 0]),
   midi.NoteOnEvent(tick=60, channel=0, data=[74, 100]),
   midi.NoteOnEvent(tick=132, channel=0, data=[74, 0]),
   midi.NoteOnEvent(tick=60, channel=0, data=[76, 100]),
   midi.NoteOnEvent(tick=268, channel=0, data=[76, 0]),
   midi.NoteOnEvent(tick=500, channel=0, data=[79, 100]),
   midi.NoteOnEvent(tick=132, channel=0, data=[79, 0]),
   midi.NoteOnEvent(tick=60, channel=0, data=[76, 100]),
   midi.NoteOnEvent(tick=132, channel=0, data=[76, 0]),
   midi.NoteOnEvent(tick=60, channel=0, data=[76, 100]),
   midi.NoteOnEvent(tick=132, channel=0, data=[76, 0]),
   midi.NoteOnEvent(tick=60, channel=0, data=[74, 100]),
   midi.NoteOnEvent(tick=132, channel=0, data=[74, 0]),
   midi.NoteOnEvent(tick=60, channel=0, data=[76, 100]),
   midi.NoteOnEvent(tick=268, channel=0, data=[76, 0]),
   midi.NoteOnEvent(tick=500, channel=0, data=[79, 100]),
   midi.NoteOnEvent(tick=132, channel=0, data=[79, 0]),
   midi.NoteOnEvent(tick=60, channel=0, data=[76, 100]),
   midi.NoteOnEvent(tick=132, channel=0, data=[76, 0]),
   midi.NoteOnEvent(tick=60, channel=0, data=[76, 100]),
   midi.NoteOnEvent(tick=132, channel=0, data=[76, 0]),
   midi.NoteOnEvent(tick=60, channel=0, data=[74, 100]),
   midi.NoteOnEvent(tick=132, channel=0, data=[74, 0]),
   midi.NoteOnEvent(tick=60, channel=0, data=[76, 100]),
   midi.NoteOnEvent(tick=268, channel=0, data=[76, 0]),
   midi.NoteOnEvent(tick=500, channel=0, data=[79, 100]),
   midi.NoteOnEvent(tick=132, channel=0, data=[79, 0]),
   midi.NoteOnEvent(tick=60, channel=0, data=[76, 100]),
   midi.NoteOnEvent(tick=132, channel=0, data=[76, 0]),
   midi.NoteOnEvent(tick=60, channel=0, data=[76, 100]),
   midi.NoteOnEvent(tick=132, channel=0, data=[76, 0]),
   midi.NoteOnEvent(tick=60, channel=0, data=[74, 100]),
   midi.NoteOnEvent(tick=132, channel=0, data=[74, 0]),
   midi.NoteOnEvent(tick=60, channel=0, data=[76, 100]),
   midi.NoteOnEvent(tick=268, channel=0, data=[76, 0]),
   midi.NoteOnEvent(tick=500, channel=0, data=[79, 100]),
   midi.NoteOnEvent(tick=132, channel=0, data=[79, 0]),
   midi.NoteOnEvent(tick=60, channel=0, data=[76, 100]),
   midi.NoteOnEvent(tick=132, channel=0, data=[76, 0]),
   midi.NoteOnEvent(tick=60, channel=0, data=[76, 100]),
   midi.NoteOnEvent(tick=132, channel=0, data=[76, 0]),
   midi.NoteOnEvent(tick=60, channel=0, data=[74, 100]),
   midi.NoteOnEvent(tick=132, channel=0, data=[74, 0]),
   midi.NoteOnEvent(tick=60, channel=0, data=[76, 100]),
   midi.NoteOnEvent(tick=268, channel=0, data=[76, 0]),
   midi.NoteOnEvent(tick=500, channel=0, data=[79, 100]),
   midi.NoteOnEvent(tick=132, channel=0, data=[79, 0]),
   midi.NoteOnEvent(tick=60, channel=0, data=[76, 100]),
   midi.NoteOnEvent(tick=132, channel=0, data=[76, 0]),
   midi.NoteOnEvent(tick=60, channel=0, data=[76, 100]),
   midi.NoteOnEvent(tick=132, channel=0, data=[76, 0]),
   midi.NoteOnEvent(tick=60, channel=0, data=[74, 100]),
   midi.NoteOnEvent(tick=132, channel=0, data=[74, 0]),
   midi.NoteOnEvent(tick=60, channel=0, data=[76, 100]),
   midi.NoteOnEvent(tick=268, channel=0, data=[76, 0]),
   midi.NoteOnEvent(tick=500, channel=0, data=[79, 100]),
   midi.NoteOnEvent(tick=132, channel=0, data=[79, 0]),
   midi.NoteOnEvent(tick=60, channel=0, data=[76, 100]),
   midi.NoteOnEvent(tick=132, channel=0, data=[76, 0]),
   midi.NoteOnEvent(tick=60, channel=0, data=[76, 100]),
   midi.NoteOnEvent(tick=132, channel=0, data=[76, 0]),
   midi.NoteOnEvent(tick=60, channel=0, data=[74, 100]),
   midi.NoteOnEvent(tick=132, channel=0, data=[74, 0]),
   midi.NoteOnEvent(tick=60, channel=0, data=[76, 100]),
   midi.NoteOnEvent(tick=268, channel=0, data=[76, 0]),
   midi.NoteOnEvent(tick=500, channel=0, data=[74, 100]),
   midi.NoteOnEvent(tick=536, channel=0, data=[74, 0]),
   midi.NoteOnEvent(tick=232, channel=0, data=[76, 100]),
   midi.NoteOnEvent(tick=400, channel=0, data=[76, 0]),
   midi.NoteOnEvent(tick=176, channel=0, data=[76, 100]),
   midi.NoteOnEvent(tick=400, channel=0, data=[76, 0]),
   midi.NoteOnEvent(tick=2096, channel=0, data=[74, 100]),
   midi.NoteOnEvent(tick=536, channel=0, data=[74, 0]),
   midi.NoteOnEvent(tick=232, channel=0, data=[76, 100]),
   midi.NoteOnEvent(tick=400, channel=0, data=[76, 0]),
   midi.NoteOnEvent(tick=176, channel=0, data=[76, 100]),
   midi.NoteOnEvent(tick=400, channel=0, data=[76, 0]),
   midi.NoteOnEvent(tick=2096, channel=0, data=[74, 100]),
   midi.NoteOnEvent(tick=536, channel=0, data=[74, 0]),
   midi.NoteOnEvent(tick=232, channel=0, data=[76, 100]),
   midi.NoteOnEvent(tick=400, channel=0, data=[76, 0]),
   midi.NoteOnEvent(tick=176, channel=0, data=[76, 100]),
   midi.NoteOnEvent(tick=400, channel=0, data=[76, 0]),
   midi.NoteOnEvent(tick=2096, channel=0, data=[74, 100]),
   midi.NoteOnEvent(tick=536, channel=0, data=[74, 0]),
   midi.NoteOnEvent(tick=232, channel=0, data=[76, 100]),
   midi.NoteOnEvent(tick=400, channel=0, data=[76, 0]),
   midi.NoteOnEvent(tick=176, channel=0, data=[76, 100]),
   midi.NoteOnEvent(tick=400, channel=0, data=[76, 0]),
   midi.NoteOnEvent(tick=2096, channel=0, data=[74, 100]),
   midi.NoteOnEvent(tick=536, channel=0, data=[74, 0]),
   midi.NoteOnEvent(tick=232, channel=0, data=[76, 100]),
   midi.NoteOnEvent(tick=400, channel=0, data=[76, 0]),
   midi.NoteOnEvent(tick=176, channel=0, data=[76, 100]),
   midi.NoteOnEvent(tick=400, channel=0, data=[76, 0]),
   midi.NoteOnEvent(tick=2096, channel=0, data=[74, 100]),
   midi.NoteOnEvent(tick=536, channel=0, data=[74, 0]),
   midi.NoteOnEvent(tick=232, channel=0, data=[76, 100]),
   midi.NoteOnEvent(tick=400, channel=0, data=[76, 0]),
   midi.NoteOnEvent(tick=176, channel=0, data=[76, 100]),
   midi.NoteOnEvent(tick=400, channel=0, data=[76, 0]),
   midi.NoteOnEvent(tick=2096, channel=0, data=[74, 100]),
   midi.NoteOnEvent(tick=536, channel=0, data=[74, 0]),
   midi.NoteOnEvent(tick=232, channel=0, data=[76, 100]),
   midi.NoteOnEvent(tick=400, channel=0, data=[76, 0]),
   midi.NoteOnEvent(tick=176, channel=0, data=[76, 100]),
   midi.NoteOnEvent(tick=400, channel=0, data=[76, 0]),
   midi.NoteOnEvent(tick=2096, channel=0, data=[74, 100]),
   midi.NoteOnEvent(tick=536, channel=0, data=[74, 0]),
   midi.NoteOnEvent(tick=232, channel=0, data=[76, 100]),
   midi.NoteOnEvent(tick=400, channel=0, data=[76, 0]),
   midi.NoteOnEvent(tick=176, channel=0, data=[76, 100]),
   midi.NoteOnEvent(tick=400, channel=0, data=[76, 0]),
   midi.NoteOnEvent(tick=3248, channel=0, data=[77, 100]),
   midi.NoteOnEvent(tick=268, channel=0, data=[77, 0]),
   midi.NoteOnEvent(tick=116, channel=0, data=[77, 100]),
   midi.NoteOnEvent(tick=268, channel=0, data=[77, 0]),
   midi.NoteOnEvent(tick=116, channel=0, data=[77, 100]),
   midi.NoteOnEvent(tick=132, channel=0, data=[77, 0]),
   midi.NoteOnEvent(tick=60, channel=0, data=[79, 100]),
   midi.NoteOnEvent(tick=384, channel=0, data=[77, 100]),
   midi.NoteOnEvent(tick=152, channel=0, data=[79, 0]),
   midi.NoteOnEvent(tick=116, channel=0, data=[77, 0]),
   midi.NoteOnEvent(tick=116, channel=0, data=[77, 100]),
   midi.NoteOnEvent(tick=268, channel=0, data=[77, 0]),
   midi.NoteOnEvent(tick=116, channel=0, data=[79, 100]),
   midi.NoteOnEvent(tick=400, channel=0, data=[79, 0]),
   midi.NoteOnEvent(tick=560, channel=0, data=[64, 100]),
   midi.NoteOnEvent(tick=268, channel=0, data=[64, 0]),
   midi.NoteOnEvent(tick=116, channel=0, data=[66, 100]),
   midi.NoteOnEvent(tick=268, channel=0, data=[66, 0]),
   midi.NoteOnEvent(tick=116, channel=0, data=[64, 100]),
   midi.NoteOnEvent(tick=132, channel=0, data=[64, 0]),
   midi.NoteOnEvent(tick=60, channel=0, data=[64, 100]),
   midi.NoteOnEvent(tick=384, channel=0, data=[64, 100]),
   midi.NoteOnEvent(tick=16, channel=0, data=[64, 0]),
   midi.NoteOnEvent(tick=252, channel=0, data=[64, 0]),
   midi.NoteOnEvent(tick=116, channel=0, data=[64, 100]),
   midi.NoteOnEvent(tick=268, channel=0, data=[64, 0]),
   midi.NoteOnEvent(tick=116, channel=0, data=[64, 100]),
   midi.NoteOnEvent(tick=400, channel=0, data=[64, 0]),
   midi.NoteOnEvent(tick=560, channel=0, data=[77, 100]),
   midi.NoteOnEvent(tick=268, channel=0, data=[77, 0]),
   midi.NoteOnEvent(tick=116, channel=0, data=[77, 100]),
   midi.NoteOnEvent(tick=268, channel=0, data=[77, 0]),
   midi.NoteOnEvent(tick=116, channel=0, data=[77, 100]),
   midi.NoteOnEvent(tick=132, channel=0, data=[77, 0]),
   midi.NoteOnEvent(tick=60, channel=0, data=[79, 100]),
   midi.NoteOnEvent(tick=384, channel=0, data=[77, 100]),
   midi.NoteOnEvent(tick=152, channel=0, data=[79, 0]),
   midi.NoteOnEvent(tick=116, channel=0, data=[77, 0]),
   midi.NoteOnEvent(tick=116, channel=0, data=[77, 100]),
   midi.NoteOnEvent(tick=268, channel=0, data=[77, 0]),
   midi.NoteOnEvent(tick=116, channel=0, data=[79, 100]),
   midi.NoteOnEvent(tick=400, channel=0, data=[79, 0]),
   midi.NoteOnEvent(tick=560, channel=0, data=[64, 100]),
   midi.NoteOnEvent(tick=268, channel=0, data=[64, 0]),
   midi.NoteOnEvent(tick=116, channel=0, data=[66, 100]),
   midi.NoteOnEvent(tick=268, channel=0, data=[66, 0]),
   midi.NoteOnEvent(tick=116, channel=0, data=[64, 100]),
   midi.NoteOnEvent(tick=132, channel=0, data=[64, 0]),
   midi.NoteOnEvent(tick=60, channel=0, data=[64, 100]),
   midi.NoteOnEvent(tick=384, channel=0, data=[64, 100]),
   midi.NoteOnEvent(tick=16, channel=0, data=[64, 0]),
   midi.NoteOnEvent(tick=252, channel=0, data=[64, 0]),
   midi.NoteOnEvent(tick=116, channel=0, data=[64, 100]),
   midi.NoteOnEvent(tick=268, channel=0, data=[64, 0]),
   midi.NoteOnEvent(tick=116, channel=0, data=[64, 100]),
   midi.NoteOnEvent(tick=400, channel=0, data=[64, 0]),
   midi.NoteOnEvent(tick=560, channel=0, data=[77, 100]),
   midi.NoteOnEvent(tick=268, channel=0, data=[77, 0]),
   midi.NoteOnEvent(tick=116, channel=0, data=[77, 100]),
   midi.NoteOnEvent(tick=268, channel=0, data=[77, 0]),
   midi.NoteOnEvent(tick=116, channel=0, data=[77, 100]),
   midi.NoteOnEvent(tick=132, channel=0, data=[77, 0]),
   midi.NoteOnEvent(tick=60, channel=0, data=[79, 100]),
   midi.NoteOnEvent(tick=384, channel=0, data=[77, 100]),
   midi.NoteOnEvent(tick=152, channel=0, data=[79, 0]),
   midi.NoteOnEvent(tick=116, channel=0, data=[77, 0]),
   midi.NoteOnEvent(tick=116, channel=0, data=[77, 100]),
   midi.NoteOnEvent(tick=268, channel=0, data=[77, 0]),
   midi.NoteOnEvent(tick=116, channel=0, data=[79, 100]),
   midi.NoteOnEvent(tick=400, channel=0, data=[79, 0]),
   midi.NoteOnEvent(tick=560, channel=0, data=[64, 100]),
   midi.NoteOnEvent(tick=268, channel=0, data=[64, 0]),
   midi.NoteOnEvent(tick=116, channel=0, data=[66, 100]),
   midi.NoteOnEvent(tick=268, channel=0, data=[66, 0]),
   midi.NoteOnEvent(tick=116, channel=0, data=[64, 100]),
   midi.NoteOnEvent(tick=132, channel=0, data=[64, 0]),
   midi.NoteOnEvent(tick=60, channel=0, data=[64, 100]),
   midi.NoteOnEvent(tick=384, channel=0, data=[64, 100]),
   midi.NoteOnEvent(tick=16, channel=0, data=[64, 0]),
   midi.NoteOnEvent(tick=252, channel=0, data=[64, 0]),
   midi.NoteOnEvent(tick=116, channel=0, data=[64, 100]),
   midi.NoteOnEvent(tick=268, channel=0, data=[64, 0]),
   midi.NoteOnEvent(tick=116, channel=0, data=[64, 100]),
   midi.NoteOnEvent(tick=400, channel=0, data=[64, 0]),
   midi.NoteOnEvent(tick=560, channel=0, data=[77, 100]),
   midi.NoteOnEvent(tick=268, channel=0, data=[77, 0]),
   midi.NoteOnEvent(tick=116, channel=0, data=[77, 100]),
   midi.NoteOnEvent(tick=268, channel=0, data=[77, 0]),
   midi.NoteOnEvent(tick=116, channel=0, data=[77, 100]),
   midi.NoteOnEvent(tick=132, channel=0, data=[77, 0]),
   midi.NoteOnEvent(tick=60, channel=0, data=[79, 100]),
   midi.NoteOnEvent(tick=384, channel=0, data=[77, 100]),
   midi.NoteOnEvent(tick=152, channel=0, data=[79, 0]),
   midi.NoteOnEvent(tick=116, channel=0, data=[77, 0]),
   midi.NoteOnEvent(tick=116, channel=0, data=[77, 100]),
   midi.NoteOnEvent(tick=268, channel=0, data=[77, 0]),
   midi.NoteOnEvent(tick=116, channel=0, data=[79, 100]),
   midi.NoteOnEvent(tick=400, channel=0, data=[79, 0]),
   midi.NoteOnEvent(tick=560, channel=0, data=[64, 100]),
   midi.NoteOnEvent(tick=268, channel=0, data=[64, 0]),
   midi.NoteOnEvent(tick=116, channel=0, data=[66, 100]),
   midi.NoteOnEvent(tick=268, channel=0, data=[66, 0]),
   midi.NoteOnEvent(tick=116, channel=0, data=[64, 100]),
   midi.NoteOnEvent(tick=132, channel=0, data=[64, 0]),
   midi.NoteOnEvent(tick=60, channel=0, data=[64, 100]),
   midi.NoteOnEvent(tick=384, channel=0, data=[64, 100]),
   midi.NoteOnEvent(tick=16, channel=0, data=[64, 0]),
   midi.NoteOnEvent(tick=252, channel=0, data=[64, 0]),
   midi.NoteOnEvent(tick=116, channel=0, data=[64, 100]),
   midi.NoteOnEvent(tick=268, channel=0, data=[64, 0]),
   midi.NoteOnEvent(tick=116, channel=0, data=[64, 100]),
   midi.NoteOnEvent(tick=400, channel=0, data=[64, 0]),
   midi.NoteOnEvent(tick=560, channel=0, data=[77, 100]),
   midi.NoteOnEvent(tick=400, channel=0, data=[77, 0]),
   midi.NoteOnEvent(tick=176, channel=0, data=[77, 100]),
   midi.NoteOnEvent(tick=268, channel=0, data=[77, 0]),
   midi.NoteOnEvent(tick=116, channel=0, data=[79, 100]),
   midi.NoteOnEvent(tick=384, channel=0, data=[77, 100]),
   midi.NoteOnEvent(tick=16, channel=0, data=[79, 0]),
   midi.NoteOnEvent(tick=252, channel=0, data=[77, 0]),
   midi.NoteOnEvent(tick=116, channel=0, data=[77, 100]),
   midi.NoteOnEvent(tick=132, channel=0, data=[77, 0]),
   midi.NoteOnEvent(tick=60, channel=0, data=[77, 100]),
   midi.NoteOnEvent(tick=536, channel=0, data=[77, 0]),
   midi.NoteOnEvent(tick=616, channel=0, data=[66, 100]),
   midi.NoteOnEvent(tick=400, channel=0, data=[66, 0]),
   midi.NoteOnEvent(tick=176, channel=0, data=[66, 100]),
   midi.NoteOnEvent(tick=268, channel=0, data=[66, 0]),
   midi.NoteOnEvent(tick=116, channel=0, data=[66, 100]),
   midi.NoteOnEvent(tick=384, channel=0, data=[66, 100]),
   midi.NoteOnEvent(tick=16, channel=0, data=[66, 0]),
   midi.NoteOnEvent(tick=252, channel=0, data=[66, 0]),
   midi.NoteOnEvent(tick=116, channel=0, data=[66, 100]),
   midi.NoteOnEvent(tick=132, channel=0, data=[66, 0]),
   midi.NoteOnEvent(tick=60, channel=0, data=[66, 100]),
   midi.NoteOnEvent(tick=536, channel=0, data=[66, 0]),
   midi.NoteOnEvent(tick=616, channel=0, data=[77, 100]),
   midi.NoteOnEvent(tick=400, channel=0, data=[77, 0]),
   midi.NoteOnEvent(tick=176, channel=0, data=[77, 100]),
   midi.NoteOnEvent(tick=268, channel=0, data=[77, 0]),
   midi.NoteOnEvent(tick=116, channel=0, data=[79, 100]),
   midi.NoteOnEvent(tick=384, channel=0, data=[77, 100]),
   midi.NoteOnEvent(tick=16, channel=0, data=[79, 0]),
   midi.NoteOnEvent(tick=252, channel=0, data=[77, 0]),
   midi.NoteOnEvent(tick=116, channel=0, data=[77, 100]),
   midi.NoteOnEvent(tick=132, channel=0, data=[77, 0]),
   midi.NoteOnEvent(tick=60, channel=0, data=[77, 100]),
   midi.NoteOnEvent(tick=536, channel=0, data=[77, 0]),
   midi.NoteOnEvent(tick=616, channel=0, data=[66, 100]),
   midi.NoteOnEvent(tick=400, channel=0, data=[66, 0]),
   midi.NoteOnEvent(tick=176, channel=0, data=[66, 100]),
   midi.NoteOnEvent(tick=268, channel=0, data=[66, 0]),
   midi.NoteOnEvent(tick=116, channel=0, data=[66, 100]),
   midi.NoteOnEvent(tick=384, channel=0, data=[66, 100]),
   midi.NoteOnEvent(tick=16, channel=0, data=[66, 0]),
   midi.NoteOnEvent(tick=252, channel=0, data=[66, 0]),
   midi.NoteOnEvent(tick=116, channel=0, data=[66, 100]),
   midi.NoteOnEvent(tick=132, channel=0, data=[66, 0]),
   midi.NoteOnEvent(tick=60, channel=0, data=[66, 100]),
   midi.NoteOnEvent(tick=536, channel=0, data=[66, 0]),
   midi.NoteOnEvent(tick=616, channel=0, data=[77, 100]),
   midi.NoteOnEvent(tick=400, channel=0, data=[77, 0]),
   midi.NoteOnEvent(tick=176, channel=0, data=[77, 100]),
   midi.NoteOnEvent(tick=268, channel=0, data=[77, 0]),
   midi.NoteOnEvent(tick=116, channel=0, data=[79, 100]),
   midi.NoteOnEvent(tick=384, channel=0, data=[77, 100]),
   midi.NoteOnEvent(tick=16, channel=0, data=[79, 0]),
   midi.NoteOnEvent(tick=252, channel=0, data=[77, 0]),
   midi.NoteOnEvent(tick=116, channel=0, data=[77, 100]),
   midi.NoteOnEvent(tick=132, channel=0, data=[77, 0]),
   midi.NoteOnEvent(tick=60, channel=0, data=[77, 100]),
   midi.NoteOnEvent(tick=536, channel=0, data=[77, 0]),
   midi.NoteOnEvent(tick=616, channel=0, data=[66, 100]),
   midi.NoteOnEvent(tick=400, channel=0, data=[66, 0]),
   midi.NoteOnEvent(tick=176, channel=0, data=[66, 100]),
   midi.NoteOnEvent(tick=268, channel=0, data=[66, 0]),
   midi.NoteOnEvent(tick=116, channel=0, data=[66, 100]),
   midi.NoteOnEvent(tick=384, channel=0, data=[66, 100]),
   midi.NoteOnEvent(tick=16, channel=0, data=[66, 0]),
   midi.NoteOnEvent(tick=252, channel=0, data=[66, 0]),
   midi.NoteOnEvent(tick=116, channel=0, data=[66, 100]),
   midi.NoteOnEvent(tick=132, channel=0, data=[66, 0]),
   midi.NoteOnEvent(tick=60, channel=0, data=[66, 100]),
   midi.NoteOnEvent(tick=536, channel=0, data=[66, 0]),
   midi.NoteOnEvent(tick=616, channel=0, data=[77, 100]),
   midi.NoteOnEvent(tick=268, channel=0, data=[77, 0]),
   midi.NoteOnEvent(tick=116, channel=0, data=[77, 100]),
   midi.NoteOnEvent(tick=268, channel=0, data=[77, 0]),
   midi.NoteOnEvent(tick=116, channel=0, data=[77, 100]),
   midi.NoteOnEvent(tick=132, channel=0, data=[77, 0]),
   midi.NoteOnEvent(tick=60, channel=0, data=[79, 100]),
   midi.NoteOnEvent(tick=536, channel=0, data=[79, 0]),
   midi.NoteOnEvent(tick=40, channel=0, data=[77, 100]),
   midi.NoteOnEvent(tick=132, channel=0, data=[77, 0]),
   midi.NoteOnEvent(tick=60, channel=0, data=[77, 100]),
   midi.NoteOnEvent(tick=804, channel=0, data=[77, 0]),
   midi.EndOfTrackEvent(tick=0, data=[])]),
 midi.Track(\
  [midi.PortEvent(tick=0, data=[0]),
   midi.TrackNameEvent(tick=0, text='Guitar 1', data=[71, 117, 105, 116, 97, 114, 32, 49]),
   midi.ProgramChangeEvent(tick=0, channel=1, data=[29]),
   midi.ControlChangeEvent(tick=0, channel=1, data=[7, 127]),
   midi.ControlChangeEvent(tick=0, channel=1, data=[0, 7]),
   midi.ControlChangeEvent(tick=0, channel=1, data=[32, 0]),
   midi.ControlChangeEvent(tick=0, channel=1, data=[0, 0]),
   midi.ControlChangeEvent(tick=0, channel=1, data=[91, 97]),
   midi.ControlChangeEvent(tick=0, channel=1, data=[93, 84]),
   midi.ControlChangeEvent(tick=0, channel=1, data=[24, 0]),
   midi.NoteOnEvent(tick=36864, channel=1, data=[84, 100]),
   midi.NoteOnEvent(tick=384, channel=1, data=[84, 0]),
   midi.NoteOnEvent(tick=192, channel=1, data=[83, 100]),
   midi.NoteOnEvent(tick=384, channel=1, data=[83, 0]),
   midi.NoteOnEvent(tick=192, channel=1, data=[78, 100]),
   midi.NoteOnEvent(tick=256, channel=1, data=[78, 0]),
   midi.NoteOnEvent(tick=128, channel=1, data=[76, 100]),
   midi.NoteOnEvent(tick=384, channel=1, data=[76, 0]),
   midi.NoteOnEvent(tick=192, channel=1, data=[74, 100]),
   midi.NoteOnEvent(tick=384, channel=1, data=[74, 0]),
   midi.NoteOnEvent(tick=192, channel=1, data=[71, 100]),
   midi.NoteOnEvent(tick=256, channel=1, data=[71, 0]),
   midi.NoteOnEvent(tick=128, channel=1, data=[84, 100]),
   midi.NoteOnEvent(tick=384, channel=1, data=[84, 0]),
   midi.NoteOnEvent(tick=192, channel=1, data=[83, 100]),
   midi.NoteOnEvent(tick=384, channel=1, data=[83, 0]),
   midi.NoteOnEvent(tick=192, channel=1, data=[78, 100]),
   midi.NoteOnEvent(tick=256, channel=1, data=[78, 0]),
   midi.NoteOnEvent(tick=128, channel=1, data=[76, 100]),
   midi.NoteOnEvent(tick=384, channel=1, data=[76, 0]),
   midi.NoteOnEvent(tick=192, channel=1, data=[75, 100]),
   midi.NoteOnEvent(tick=384, channel=1, data=[75, 0]),
   midi.NoteOnEvent(tick=192, channel=1, data=[87, 100]),
   midi.NoteOnEvent(tick=384, channel=1, data=[87, 0]),
   midi.NoteOnEvent(tick=0, channel=1, data=[88, 100]),
   midi.NoteOnEvent(tick=2564, channel=1, data=[88, 0]),
   midi.NoteOnEvent(tick=49660, channel=1, data=[84, 100]),
   midi.NoteOnEvent(tick=384, channel=1, data=[84, 0]),
   midi.NoteOnEvent(tick=192, channel=1, data=[83, 100]),
   midi.NoteOnEvent(tick=384, channel=1, data=[83, 0]),
   midi.NoteOnEvent(tick=192, channel=1, data=[78, 100]),
   midi.NoteOnEvent(tick=256, channel=1, data=[78, 0]),
   midi.NoteOnEvent(tick=128, channel=1, data=[76, 100]),
   midi.NoteOnEvent(tick=384, channel=1, data=[76, 0]),
   midi.NoteOnEvent(tick=192, channel=1, data=[74, 100]),
   midi.NoteOnEvent(tick=384, channel=1, data=[74, 0]),
   midi.NoteOnEvent(tick=192, channel=1, data=[71, 100]),
   midi.NoteOnEvent(tick=256, channel=1, data=[71, 0]),
   midi.NoteOnEvent(tick=128, channel=1, data=[84, 100]),
   midi.NoteOnEvent(tick=384, channel=1, data=[84, 0]),
   midi.NoteOnEvent(tick=192, channel=1, data=[83, 100]),
   midi.NoteOnEvent(tick=384, channel=1, data=[83, 0]),
   midi.NoteOnEvent(tick=192, channel=1, data=[78, 100]),
   midi.NoteOnEvent(tick=256, channel=1, data=[78, 0]),
   midi.NoteOnEvent(tick=128, channel=1, data=[76, 100]),
   midi.NoteOnEvent(tick=384, channel=1, data=[76, 0]),
   midi.NoteOnEvent(tick=192, channel=1, data=[75, 100]),
   midi.NoteOnEvent(tick=384, channel=1, data=[75, 0]),
   midi.NoteOnEvent(tick=192, channel=1, data=[87, 100]),
   midi.NoteOnEvent(tick=384, channel=1, data=[87, 0]),
   midi.NoteOnEvent(tick=0, channel=1, data=[88, 100]),
   midi.NoteOnEvent(tick=2564, channel=1, data=[88, 0]),
   midi.NoteOnEvent(tick=26428, channel=1, data=[65, 100]),
   midi.NoteOnEvent(tick=472, channel=1, data=[65, 0]),
   midi.NoteOnEvent(tick=104, channel=1, data=[64, 100]),
   midi.NoteOnEvent(tick=64, channel=1, data=[64, 0]),
   midi.NoteOnEvent(tick=32, channel=1, data=[65, 100]),
   midi.NoteOnEvent(tick=64, channel=1, data=[65, 0]),
   midi.NoteOnEvent(tick=32, channel=1, data=[69, 100]),
   midi.NoteOnEvent(tick=64, channel=1, data=[69, 0]),
   midi.NoteOnEvent(tick=32, channel=1, data=[71, 100]),
   midi.NoteOnEvent(tick=64, channel=1, data=[71, 0]),
   midi.NoteOnEvent(tick=32, channel=1, data=[69, 100]),
   midi.NoteOnEvent(tick=64, channel=1, data=[69, 0]),
   midi.NoteOnEvent(tick=32, channel=1, data=[69, 100]),
   midi.NoteOnEvent(tick=64, channel=1, data=[69, 0]),
   midi.NoteOnEvent(tick=32, channel=1, data=[71, 100]),
   midi.NoteOnEvent(tick=64, channel=1, data=[71, 0]),
   midi.NoteOnEvent(tick=32, channel=1, data=[72, 100]),
   midi.NoteOnEvent(tick=64, channel=1, data=[72, 0]),
   midi.NoteOnEvent(tick=32, channel=1, data=[76, 100]),
   midi.NoteOnEvent(tick=132, channel=1, data=[76, 0]),
   midi.NoteOnEvent(tick=60, channel=1, data=[76, 100]),
   midi.NoteOnEvent(tick=64, channel=1, data=[76, 0]),
   midi.NoteOnEvent(tick=32, channel=1, data=[77, 100]),
   midi.NoteOnEvent(tick=64, channel=1, data=[77, 0]),
   midi.NoteOnEvent(tick=32, channel=1, data=[76, 100]),
   midi.NoteOnEvent(tick=64, channel=1, data=[76, 0]),
   midi.NoteOnEvent(tick=32, channel=1, data=[77, 100]),
   midi.NoteOnEvent(tick=64, channel=1, data=[77, 0]),
   midi.NoteOnEvent(tick=32, channel=1, data=[81, 100]),
   midi.NoteOnEvent(tick=64, channel=1, data=[81, 0]),
   midi.NoteOnEvent(tick=32, channel=1, data=[83, 100]),
   midi.NoteOnEvent(tick=64, channel=1, data=[83, 0]),
   midi.NoteOnEvent(tick=32, channel=1, data=[81, 100]),
   midi.NoteOnEvent(tick=132, channel=1, data=[81, 0]),
   midi.NoteOnEvent(tick=60, channel=1, data=[81, 100]),
   midi.NoteOnEvent(tick=64, channel=1, data=[81, 0]),
   midi.NoteOnEvent(tick=32, channel=1, data=[84, 100]),
   midi.NoteOnEvent(tick=64, channel=1, data=[84, 0]),
   midi.NoteOnEvent(tick=32, channel=1, data=[90, 100]),
   midi.NoteOnEvent(tick=96, channel=1, data=[90, 0]),
   midi.NoteOnEvent(tick=0, channel=1, data=[86, 100]),
   midi.NoteOnEvent(tick=96, channel=1, data=[86, 0]),
   midi.NoteOnEvent(tick=0, channel=1, data=[86, 100]),
   midi.NoteOnEvent(tick=64, channel=1, data=[86, 0]),
   midi.NoteOnEvent(tick=0, channel=1, data=[90, 100]),
   midi.NoteOnEvent(tick=64, channel=1, data=[90, 0]),
   midi.NoteOnEvent(tick=0, channel=1, data=[91, 100]),
   midi.NoteOnEvent(tick=64, channel=1, data=[91, 0]),
   midi.NoteOnEvent(tick=0, channel=1, data=[96, 100]),
   midi.NoteOnEvent(tick=192, channel=1, data=[96, 0]),
   midi.NoteOnEvent(tick=0, channel=1, data=[95, 100]),
   midi.NoteOnEvent(tick=96, channel=1, data=[95, 0]),
   midi.NoteOnEvent(tick=0, channel=1, data=[90, 100]),
   midi.NoteOnEvent(tick=96, channel=1, data=[90, 0]),
   midi.NoteOnEvent(tick=0, channel=1, data=[84, 100]),
   midi.NoteOnEvent(tick=64, channel=1, data=[84, 0]),
   midi.NoteOnEvent(tick=32, channel=1, data=[81, 100]),
   midi.NoteOnEvent(tick=64, channel=1, data=[81, 0]),
   midi.NoteOnEvent(tick=32, channel=1, data=[93, 100]),
   midi.NoteOnEvent(tick=64, channel=1, data=[93, 0]),
   midi.NoteOnEvent(tick=32, channel=1, data=[84, 100]),
   midi.NoteOnEvent(tick=64, channel=1, data=[84, 0]),
   midi.NoteOnEvent(tick=32, channel=1, data=[86, 100]),
   midi.NoteOnEvent(tick=64, channel=1, data=[86, 0]),
   midi.NoteOnEvent(tick=32, channel=1, data=[91, 100]),
   midi.NoteOnEvent(tick=64, channel=1, data=[91, 0]),
   midi.NoteOnEvent(tick=32, channel=1, data=[83, 100]),
   midi.NoteOnEvent(tick=64, channel=1, data=[83, 0]),
   midi.NoteOnEvent(tick=32, channel=1, data=[82, 100]),
   midi.NoteOnEvent(tick=64, channel=1, data=[82, 0]),
   midi.NoteOnEvent(tick=32, channel=1, data=[84, 100]),
   midi.NoteOnEvent(tick=64, channel=1, data=[84, 0]),
   midi.NoteOnEvent(tick=0, channel=1, data=[88, 100]),
   midi.NoteOnEvent(tick=64, channel=1, data=[88, 0]),
   midi.NoteOnEvent(tick=0, channel=1, data=[84, 100]),
   midi.NoteOnEvent(tick=64, channel=1, data=[84, 0]),
   midi.NoteOnEvent(tick=0, channel=1, data=[84, 100]),
   midi.NoteOnEvent(tick=192, channel=1, data=[84, 0]),
   midi.NoteOnEvent(tick=0, channel=1, data=[81, 100]),
   midi.NoteOnEvent(tick=64, channel=1, data=[81, 0]),
   midi.NoteOnEvent(tick=32, channel=1, data=[79, 100]),
   midi.NoteOnEvent(tick=64, channel=1, data=[79, 0]),
   midi.NoteOnEvent(tick=32, channel=1, data=[81, 100]),
   midi.NoteOnEvent(tick=132, channel=1, data=[81, 0]),
   midi.NoteOnEvent(tick=60, channel=1, data=[79, 100]),
   midi.NoteOnEvent(tick=528, channel=1, data=[79, 0]),
   midi.NoteOnEvent(tick=240, channel=1, data=[76, 100]),
   midi.NoteOnEvent(tick=132, channel=1, data=[76, 0]),
   midi.NoteOnEvent(tick=60, channel=1, data=[74, 100]),
   midi.NoteOnEvent(tick=132, channel=1, data=[74, 0]),
   midi.NoteOnEvent(tick=60, channel=1, data=[71, 100]),
   midi.NoteOnEvent(tick=132, channel=1, data=[71, 0]),
   midi.NoteOnEvent(tick=60, channel=1, data=[69, 100]),
   midi.NoteOnEvent(tick=692, channel=1, data=[69, 0]),
   midi.NoteOnEvent(tick=5452, channel=1, data=[81, 100]),
   midi.NoteOnEvent(tick=64, channel=1, data=[81, 0]),
   midi.NoteOnEvent(tick=32, channel=1, data=[84, 100]),
   midi.NoteOnEvent(tick=64, channel=1, data=[84, 0]),
   midi.NoteOnEvent(tick=32, channel=1, data=[89, 100]),
   midi.NoteOnEvent(tick=64, channel=1, data=[89, 0]),
   midi.NoteOnEvent(tick=32, channel=1, data=[84, 100]),
   midi.NoteOnEvent(tick=64, channel=1, data=[84, 0]),
   midi.NoteOnEvent(tick=32, channel=1, data=[81, 100]),
   midi.NoteOnEvent(tick=64, channel=1, data=[81, 0]),
   midi.NoteOnEvent(tick=32, channel=1, data=[79, 100]),
   midi.NoteOnEvent(tick=64, channel=1, data=[79, 0]),
   midi.NoteOnEvent(tick=32, channel=1, data=[84, 100]),
   midi.NoteOnEvent(tick=64, channel=1, data=[84, 0]),
   midi.NoteOnEvent(tick=32, channel=1, data=[81, 100]),
   midi.NoteOnEvent(tick=64, channel=1, data=[81, 0]),
   midi.NoteOnEvent(tick=32, channel=1, data=[79, 100]),
   midi.NoteOnEvent(tick=64, channel=1, data=[79, 0]),
   midi.NoteOnEvent(tick=32, channel=1, data=[77, 100]),
   midi.NoteOnEvent(tick=64, channel=1, data=[77, 0]),
   midi.NoteOnEvent(tick=32, channel=1, data=[81, 100]),
   midi.NoteOnEvent(tick=64, channel=1, data=[81, 0]),
   midi.NoteOnEvent(tick=32, channel=1, data=[79, 100]),
   midi.NoteOnEvent(tick=64, channel=1, data=[79, 0]),
   midi.NoteOnEvent(tick=32, channel=1, data=[77, 100]),
   midi.NoteOnEvent(tick=64, channel=1, data=[77, 0]),
   midi.NoteOnEvent(tick=32, channel=1, data=[74, 100]),
   midi.NoteOnEvent(tick=64, channel=1, data=[74, 0]),
   midi.NoteOnEvent(tick=32, channel=1, data=[79, 100]),
   midi.NoteOnEvent(tick=64, channel=1, data=[79, 0]),
   midi.NoteOnEvent(tick=32, channel=1, data=[77, 100]),
   midi.NoteOnEvent(tick=64, channel=1, data=[77, 0]),
   midi.NoteOnEvent(tick=32, channel=1, data=[74, 100]),
   midi.NoteOnEvent(tick=64, channel=1, data=[74, 0]),
   midi.NoteOnEvent(tick=32, channel=1, data=[72, 100]),
   midi.NoteOnEvent(tick=64, channel=1, data=[72, 0]),
   midi.NoteOnEvent(tick=32, channel=1, data=[77, 100]),
   midi.NoteOnEvent(tick=64, channel=1, data=[77, 0]),
   midi.NoteOnEvent(tick=32, channel=1, data=[74, 100]),
   midi.NoteOnEvent(tick=64, channel=1, data=[74, 0]),
   midi.NoteOnEvent(tick=32, channel=1, data=[72, 100]),
   midi.NoteOnEvent(tick=64, channel=1, data=[72, 0]),
   midi.NoteOnEvent(tick=32, channel=1, data=[69, 100]),
   midi.NoteOnEvent(tick=64, channel=1, data=[69, 0]),
   midi.NoteOnEvent(tick=32, channel=1, data=[74, 100]),
   midi.NoteOnEvent(tick=64, channel=1, data=[74, 0]),
   midi.NoteOnEvent(tick=32, channel=1, data=[72, 100]),
   midi.NoteOnEvent(tick=64, channel=1, data=[72, 0]),
   midi.NoteOnEvent(tick=32, channel=1, data=[69, 100]),
   midi.NoteOnEvent(tick=64, channel=1, data=[69, 0]),
   midi.NoteOnEvent(tick=32, channel=1, data=[67, 100]),
   midi.NoteOnEvent(tick=64, channel=1, data=[67, 0]),
   midi.NoteOnEvent(tick=32, channel=1, data=[72, 100]),
   midi.NoteOnEvent(tick=64, channel=1, data=[72, 0]),
   midi.NoteOnEvent(tick=32, channel=1, data=[69, 100]),
   midi.NoteOnEvent(tick=64, channel=1, data=[69, 0]),
   midi.NoteOnEvent(tick=32, channel=1, data=[67, 100]),
   midi.NoteOnEvent(tick=64, channel=1, data=[67, 0]),
   midi.NoteOnEvent(tick=32, channel=1, data=[65, 100]),
   midi.NoteOnEvent(tick=64, channel=1, data=[65, 0]),
   midi.NoteOnEvent(tick=32, channel=1, data=[65, 100]),
   midi.NoteOnEvent(tick=64, channel=1, data=[65, 0]),
   midi.NoteOnEvent(tick=32, channel=1, data=[69, 100]),
   midi.NoteOnEvent(tick=64, channel=1, data=[69, 0]),
   midi.NoteOnEvent(tick=32, channel=1, data=[65, 100]),
   midi.NoteOnEvent(tick=132, channel=1, data=[65, 0]),
   midi.NoteOnEvent(tick=252, channel=1, data=[64, 100]),
   midi.NoteOnEvent(tick=132, channel=1, data=[64, 0]),
   midi.NoteOnEvent(tick=60, channel=1, data=[67, 100]),
   midi.NoteOnEvent(tick=132, channel=1, data=[67, 0]),
   midi.NoteOnEvent(tick=60, channel=1, data=[69, 100]),
   midi.NoteOnEvent(tick=132, channel=1, data=[69, 0]),
   midi.NoteOnEvent(tick=60, channel=1, data=[69, 100]),
   midi.NoteOnEvent(tick=44, channel=1, data=[71, 100]),
   midi.NoteOnEvent(tick=16, channel=1, data=[69, 0]),
   midi.NoteOnEvent(tick=116, channel=1, data=[71, 0]),
   midi.NoteOnEvent(tick=16, channel=1, data=[69, 100]),
   midi.NoteOnEvent(tick=64, channel=1, data=[69, 0]),
   midi.NoteOnEvent(tick=32, channel=1, data=[67, 100]),
   midi.NoteOnEvent(tick=64, channel=1, data=[67, 0]),
   midi.NoteOnEvent(tick=32, channel=1, data=[69, 100]),
   midi.NoteOnEvent(tick=132, channel=1, data=[69, 0]),
   midi.NoteOnEvent(tick=60, channel=1, data=[67, 100]),
   midi.NoteOnEvent(tick=132, channel=1, data=[67, 0]),
   midi.NoteOnEvent(tick=60, channel=1, data=[74, 100]),
   midi.NoteOnEvent(tick=64, channel=1, data=[74, 0]),
   midi.NoteOnEvent(tick=32, channel=1, data=[76, 100]),
   midi.NoteOnEvent(tick=64, channel=1, data=[76, 0]),
   midi.NoteOnEvent(tick=32, channel=1, data=[74, 100]),
   midi.NoteOnEvent(tick=1072, channel=1, data=[74, 0]),
   midi.NoteOnEvent(tick=6416, channel=1, data=[96, 100]),
   midi.NoteOnEvent(tick=64, channel=1, data=[96, 0]),
   midi.NoteOnEvent(tick=32, channel=1, data=[91, 100]),
   midi.NoteOnEvent(tick=64, channel=1, data=[91, 0]),
   midi.NoteOnEvent(tick=32, channel=1, data=[88, 100]),
   midi.NoteOnEvent(tick=64, channel=1, data=[88, 0]),
   midi.NoteOnEvent(tick=32, channel=1, data=[89, 100]),
   midi.NoteOnEvent(tick=64, channel=1, data=[89, 0]),
   midi.NoteOnEvent(tick=32, channel=1, data=[91, 100]),
   midi.NoteOnEvent(tick=64, channel=1, data=[91, 0]),
   midi.NoteOnEvent(tick=32, channel=1, data=[93, 100]),
   midi.NoteOnEvent(tick=64, channel=1, data=[93, 0]),
   midi.NoteOnEvent(tick=32, channel=1, data=[89, 100]),
   midi.NoteOnEvent(tick=132, channel=1, data=[89, 0]),
   midi.NoteOnEvent(tick=60, channel=1, data=[93, 100]),
   midi.NoteOnEvent(tick=64, channel=1, data=[93, 0]),
   midi.NoteOnEvent(tick=32, channel=1, data=[89, 100]),
   midi.NoteOnEvent(tick=64, channel=1, data=[89, 0]),
   midi.NoteOnEvent(tick=32, channel=1, data=[91, 100]),
   midi.NoteOnEvent(tick=64, channel=1, data=[91, 0]),
   midi.NoteOnEvent(tick=32, channel=1, data=[88, 100]),
   midi.NoteOnEvent(tick=64, channel=1, data=[88, 0]),
   midi.NoteOnEvent(tick=32, channel=1, data=[89, 100]),
   midi.NoteOnEvent(tick=64, channel=1, data=[89, 0]),
   midi.NoteOnEvent(tick=32, channel=1, data=[88, 100]),
   midi.NoteOnEvent(tick=64, channel=1, data=[88, 0]),
   midi.NoteOnEvent(tick=32, channel=1, data=[86, 100]),
   midi.NoteOnEvent(tick=132, channel=1, data=[86, 0]),
   midi.NoteOnEvent(tick=60, channel=1, data=[91, 100]),
   midi.NoteOnEvent(tick=64, channel=1, data=[91, 0]),
   midi.NoteOnEvent(tick=32, channel=1, data=[88, 100]),
   midi.NoteOnEvent(tick=64, channel=1, data=[88, 0]),
   midi.NoteOnEvent(tick=32, channel=1, data=[84, 100]),
   midi.NoteOnEvent(tick=64, channel=1, data=[84, 0]),
   midi.NoteOnEvent(tick=32, channel=1, data=[86, 100]),
   midi.NoteOnEvent(tick=64, channel=1, data=[86, 0]),
   midi.NoteOnEvent(tick=32, channel=1, data=[88, 100]),
   midi.NoteOnEvent(tick=64, channel=1, data=[88, 0]),
   midi.NoteOnEvent(tick=32, channel=1, data=[90, 100]),
   midi.NoteOnEvent(tick=64, channel=1, data=[90, 0]),
   midi.NoteOnEvent(tick=32, channel=1, data=[86, 100]),
   midi.NoteOnEvent(tick=132, channel=1, data=[86, 0]),
   midi.NoteOnEvent(tick=60, channel=1, data=[90, 100]),
   midi.NoteOnEvent(tick=64, channel=1, data=[90, 0]),
   midi.NoteOnEvent(tick=32, channel=1, data=[86, 100]),
   midi.NoteOnEvent(tick=64, channel=1, data=[86, 0]),
   midi.NoteOnEvent(tick=32, channel=1, data=[88, 100]),
   midi.NoteOnEvent(tick=64, channel=1, data=[88, 0]),
   midi.NoteOnEvent(tick=32, channel=1, data=[84, 100]),
   midi.NoteOnEvent(tick=64, channel=1, data=[84, 0]),
   midi.NoteOnEvent(tick=32, channel=1, data=[86, 100]),
   midi.NoteOnEvent(tick=64, channel=1, data=[86, 0]),
   midi.NoteOnEvent(tick=32, channel=1, data=[84, 100]),
   midi.NoteOnEvent(tick=64, channel=1, data=[84, 0]),
   midi.NoteOnEvent(tick=32, channel=1, data=[83, 100]),
   midi.NoteOnEvent(tick=64, channel=1, data=[83, 0]),
   midi.NoteOnEvent(tick=32, channel=1, data=[81, 100]),
   midi.NoteOnEvent(tick=64, channel=1, data=[81, 0]),
   midi.NoteOnEvent(tick=32, channel=1, data=[79, 100]),
   midi.NoteOnEvent(tick=400, channel=1, data=[79, 0]),
   midi.NoteOnEvent(tick=176, channel=1, data=[76, 100]),
   midi.NoteOnEvent(tick=132, channel=1, data=[76, 0]),
   midi.NoteOnEvent(tick=60, channel=1, data=[76, 100]),
   midi.NoteOnEvent(tick=132, channel=1, data=[76, 0]),
   midi.NoteOnEvent(tick=60, channel=1, data=[79, 100]),
   midi.NoteOnEvent(tick=132, channel=1, data=[79, 0]),
   midi.NoteOnEvent(tick=60, channel=1, data=[79, 100]),
   midi.NoteOnEvent(tick=132, channel=1, data=[79, 0]),
   midi.NoteOnEvent(tick=60, channel=1, data=[81, 100]),
   midi.NoteOnEvent(tick=132, channel=1, data=[81, 0]),
   midi.NoteOnEvent(tick=60, channel=1, data=[81, 100]),
   midi.NoteOnEvent(tick=0, channel=1, data=[84, 100]),
   midi.NoteOnEvent(tick=44, channel=1, data=[83, 100]),
   midi.NoteOnEvent(tick=0, channel=1, data=[86, 100]),
   midi.NoteOnEvent(tick=64, channel=1, data=[81, 0]),
   midi.NoteOnEvent(tick=4, channel=1, data=[84, 0]),
   midi.NoteOnEvent(tick=272, channel=1, data=[79, 100]),
   midi.NoteOnEvent(tick=56, channel=1, data=[83, 0]),
   midi.NoteOnEvent(tick=8, channel=1, data=[79, 0]),
   midi.NoteOnEvent(tick=4, channel=1, data=[86, 0]),
   midi.NoteOnEvent(tick=28, channel=1, data=[81, 100]),
   midi.NoteOnEvent(tick=0, channel=1, data=[84, 100]),
   midi.NoteOnEvent(tick=536, channel=1, data=[84, 0]),
   midi.NoteOnEvent(tick=0, channel=1, data=[81, 0]),
   midi.NoteOnEvent(tick=136, channel=1, data=[79, 100]),
   midi.NoteOnEvent(tick=64, channel=1, data=[79, 0]),
   midi.NoteOnEvent(tick=32, channel=1, data=[76, 100]),
   midi.NoteOnEvent(tick=64, channel=1, data=[76, 0]),
   midi.NoteOnEvent(tick=32, channel=1, data=[79, 100]),
   midi.NoteOnEvent(tick=968, channel=1, data=[79, 0]),
   midi.NoteOnEvent(tick=5176, channel=1, data=[89, 100]),
   midi.NoteOnEvent(tick=64, channel=1, data=[89, 0]),
   midi.NoteOnEvent(tick=32, channel=1, data=[93, 100]),
   midi.NoteOnEvent(tick=64, channel=1, data=[93, 0]),
   midi.NoteOnEvent(tick=32, channel=1, data=[96, 100]),
   midi.NoteOnEvent(tick=64, channel=1, data=[96, 0]),
   midi.NoteOnEvent(tick=32, channel=1, data=[93, 100]),
   midi.NoteOnEvent(tick=64, channel=1, data=[93, 0]),
   midi.NoteOnEvent(tick=32, channel=1, data=[89, 100]),
   midi.NoteOnEvent(tick=64, channel=1, data=[89, 0]),
   midi.NoteOnEvent(tick=32, channel=1, data=[93, 100]),
   midi.NoteOnEvent(tick=64, channel=1, data=[93, 0]),
   midi.NoteOnEvent(tick=32, channel=1, data=[96, 100]),
   midi.NoteOnEvent(tick=64, channel=1, data=[96, 0]),
   midi.NoteOnEvent(tick=32, channel=1, data=[93, 100]),
   midi.NoteOnEvent(tick=64, channel=1, data=[93, 0]),
   midi.NoteOnEvent(tick=32, channel=1, data=[93, 100]),
   midi.NoteOnEvent(tick=64, channel=1, data=[93, 0]),
   midi.NoteOnEvent(tick=32, channel=1, data=[89, 100]),
   midi.NoteOnEvent(tick=64, channel=1, data=[89, 0]),
   midi.NoteOnEvent(tick=32, channel=1, data=[93, 100]),
   midi.NoteOnEvent(tick=64, channel=1, data=[93, 0]),
   midi.NoteOnEvent(tick=32, channel=1, data=[89, 100]),
   midi.NoteOnEvent(tick=64, channel=1, data=[89, 0]),
   midi.NoteOnEvent(tick=32, channel=1, data=[86, 100]),
   midi.NoteOnEvent(tick=64, channel=1, data=[86, 0]),
   midi.NoteOnEvent(tick=32, channel=1, data=[88, 100]),
   midi.NoteOnEvent(tick=64, channel=1, data=[88, 0]),
   midi.NoteOnEvent(tick=32, channel=1, data=[88, 100]),
   midi.NoteOnEvent(tick=20, channel=1, data=[88, 0]),
   midi.NoteOnEvent(tick=44, channel=1, data=[91, 100]),
   midi.NoteOnEvent(tick=20, channel=1, data=[91, 0]),
   midi.NoteOnEvent(tick=44, channel=1, data=[88, 100]),
   midi.NoteOnEvent(tick=20, channel=1, data=[88, 0]),
   midi.NoteOnEvent(tick=44, channel=1, data=[86, 100]),
   midi.NoteOnEvent(tick=20, channel=1, data=[86, 0]),
   midi.NoteOnEvent(tick=44, channel=1, data=[90, 100]),
   midi.NoteOnEvent(tick=20, channel=1, data=[90, 0]),
   midi.NoteOnEvent(tick=44, channel=1, data=[86, 100]),
   midi.NoteOnEvent(tick=20, channel=1, data=[86, 0]),
   midi.NoteOnEvent(tick=44, channel=1, data=[86, 100]),
   midi.NoteOnEvent(tick=20, channel=1, data=[86, 0]),
   midi.NoteOnEvent(tick=44, channel=1, data=[88, 100]),
   midi.NoteOnEvent(tick=20, channel=1, data=[88, 0]),
   midi.NoteOnEvent(tick=44, channel=1, data=[86, 100]),
   midi.NoteOnEvent(tick=20, channel=1, data=[86, 0]),
   midi.NoteOnEvent(tick=44, channel=1, data=[84, 100]),
   midi.NoteOnEvent(tick=20, channel=1, data=[84, 0]),
   midi.NoteOnEvent(tick=44, channel=1, data=[88, 100]),
   midi.NoteOnEvent(tick=20, channel=1, data=[88, 0]),
   midi.NoteOnEvent(tick=44, channel=1, data=[84, 100]),
   midi.NoteOnEvent(tick=20, channel=1, data=[84, 0]),
   midi.NoteOnEvent(tick=44, channel=1, data=[84, 100]),
   midi.NoteOnEvent(tick=20, channel=1, data=[84, 0]),
   midi.NoteOnEvent(tick=44, channel=1, data=[88, 100]),
   midi.NoteOnEvent(tick=20, channel=1, data=[88, 0]),
   midi.NoteOnEvent(tick=44, channel=1, data=[84, 100]),
   midi.NoteOnEvent(tick=20, channel=1, data=[84, 0]),
   midi.NoteOnEvent(tick=44, channel=1, data=[83, 100]),
   midi.NoteOnEvent(tick=20, channel=1, data=[83, 0]),
   midi.NoteOnEvent(tick=44, channel=1, data=[86, 100]),
   midi.NoteOnEvent(tick=20, channel=1, data=[86, 0]),
   midi.NoteOnEvent(tick=44, channel=1, data=[83, 100]),
   midi.NoteOnEvent(tick=20, channel=1, data=[83, 0]),
   midi.NoteOnEvent(tick=44, channel=1, data=[81, 100]),
   midi.NoteOnEvent(tick=96, channel=1, data=[81, 0]),
   midi.NoteOnEvent(tick=0, channel=1, data=[83, 100]),
   midi.NoteOnEvent(tick=96, channel=1, data=[83, 0]),
   midi.NoteOnEvent(tick=0, channel=1, data=[79, 100]),
   midi.NoteOnEvent(tick=192, channel=1, data=[79, 0]),
   midi.NoteOnEvent(tick=0, channel=1, data=[74, 100]),
   midi.NoteOnEvent(tick=192, channel=1, data=[74, 0]),
   midi.NoteOnEvent(tick=7680, channel=1, data=[90, 100]),
   midi.NoteOnEvent(tick=132, channel=1, data=[90, 0]),
   midi.NoteOnEvent(tick=60, channel=1, data=[91, 100]),
   midi.NoteOnEvent(tick=64, channel=1, data=[91, 0]),
   midi.NoteOnEvent(tick=0, channel=1, data=[93, 100]),
   midi.NoteOnEvent(tick=64, channel=1, data=[93, 0]),
   midi.NoteOnEvent(tick=0, channel=1, data=[91, 100]),
   midi.NoteOnEvent(tick=64, channel=1, data=[91, 0]),
   midi.NoteOnEvent(tick=0, channel=1, data=[88, 100]),
   midi.NoteOnEvent(tick=132, channel=1, data=[88, 0]),
   midi.NoteOnEvent(tick=60, channel=1, data=[90, 100]),
   midi.NoteOnEvent(tick=132, channel=1, data=[90, 0]),
   midi.NoteOnEvent(tick=60, channel=1, data=[91, 100]),
   midi.NoteOnEvent(tick=132, channel=1, data=[91, 0]),
   midi.NoteOnEvent(tick=60, channel=1, data=[88, 100]),
   midi.NoteOnEvent(tick=132, channel=1, data=[88, 0]),
   midi.NoteOnEvent(tick=60, channel=1, data=[88, 100]),
   midi.NoteOnEvent(tick=64, channel=1, data=[88, 0]),
   midi.NoteOnEvent(tick=0, channel=1, data=[89, 100]),
   midi.NoteOnEvent(tick=64, channel=1, data=[89, 0]),
   midi.NoteOnEvent(tick=0, channel=1, data=[88, 100]),
   midi.NoteOnEvent(tick=64, channel=1, data=[88, 0]),
   midi.NoteOnEvent(tick=0, channel=1, data=[83, 100]),
   midi.NoteOnEvent(tick=132, channel=1, data=[83, 0]),
   midi.NoteOnEvent(tick=60, channel=1, data=[86, 100]),
   midi.NoteOnEvent(tick=132, channel=1, data=[86, 0]),
   midi.NoteOnEvent(tick=60, channel=1, data=[88, 100]),
   midi.NoteOnEvent(tick=46, channel=1, data=[90, 100]),
   midi.NoteOnEvent(tick=18, channel=1, data=[88, 0]),
   midi.NoteOnEvent(tick=408, channel=1, data=[90, 0]),
   midi.NoteOnEvent(tick=104, channel=1, data=[83, 100]),
   midi.NoteOnEvent(tick=132, channel=1, data=[83, 0]),
   midi.NoteOnEvent(tick=60, channel=1, data=[82, 100]),
   midi.NoteOnEvent(tick=64, channel=1, data=[82, 0]),
   midi.NoteOnEvent(tick=0, channel=1, data=[84, 100]),
   midi.NoteOnEvent(tick=64, channel=1, data=[84, 0]),
   midi.NoteOnEvent(tick=0, channel=1, data=[82, 100]),
   midi.NoteOnEvent(tick=64, channel=1, data=[82, 0]),
   midi.NoteOnEvent(tick=0, channel=1, data=[79, 100]),
   midi.NoteOnEvent(tick=132, channel=1, data=[79, 0]),
   midi.NoteOnEvent(tick=60, channel=1, data=[82, 100]),
   midi.NoteOnEvent(tick=46, channel=1, data=[83, 100]),
   midi.NoteOnEvent(tick=18, channel=1, data=[82, 0]),
   midi.NoteOnEvent(tick=386, channel=1, data=[83, 0]),
   midi.NoteOnEvent(tick=126, channel=1, data=[79, 100]),
   midi.NoteOnEvent(tick=132, channel=1, data=[79, 0]),
   midi.NoteOnEvent(tick=60, channel=1, data=[78, 100]),
   midi.NoteOnEvent(tick=132, channel=1, data=[78, 0]),
   midi.NoteOnEvent(tick=60, channel=1, data=[79, 100]),
   midi.NoteOnEvent(tick=960, channel=1, data=[76, 100]),
   midi.NoteOnEvent(tick=8, channel=1, data=[79, 0]),
   midi.NoteOnEvent(tick=184, channel=1, data=[76, 0]),
   midi.NoteOnEvent(tick=0, channel=1, data=[79, 100]),
   midi.NoteOnEvent(tick=96, channel=1, data=[79, 0]),
   midi.NoteOnEvent(tick=0, channel=1, data=[80, 100]),
   midi.NoteOnEvent(tick=96, channel=1, data=[80, 0]),
   midi.NoteOnEvent(tick=0, channel=1, data=[82, 100]),
   midi.NoteOnEvent(tick=64, channel=1, data=[82, 0]),
   midi.NoteOnEvent(tick=0, channel=1, data=[80, 100]),
   midi.NoteOnEvent(tick=64, channel=1, data=[80, 0]),
   midi.NoteOnEvent(tick=0, channel=1, data=[79, 100]),
   midi.NoteOnEvent(tick=64, channel=1, data=[79, 0]),
   midi.NoteOnEvent(tick=0, channel=1, data=[80, 100]),
   midi.NoteOnEvent(tick=20, channel=1, data=[80, 0]),
   midi.NoteOnEvent(tick=44, channel=1, data=[82, 100]),
   midi.NoteOnEvent(tick=20, channel=1, data=[82, 0]),
   midi.NoteOnEvent(tick=44, channel=1, data=[80, 100]),
   midi.NoteOnEvent(tick=20, channel=1, data=[80, 0]),
   midi.NoteOnEvent(tick=44, channel=1, data=[79, 100]),
   midi.NoteOnEvent(tick=20, channel=1, data=[79, 0]),
   midi.NoteOnEvent(tick=44, channel=1, data=[80, 100]),
   midi.NoteOnEvent(tick=20, channel=1, data=[80, 0]),
   midi.NoteOnEvent(tick=44, channel=1, data=[82, 100]),
   midi.NoteOnEvent(tick=20, channel=1, data=[82, 0]),
   midi.NoteOnEvent(tick=44, channel=1, data=[79, 100]),
   midi.NoteOnEvent(tick=64, channel=1, data=[79, 0]),
   midi.NoteOnEvent(tick=32, channel=1, data=[80, 100]),
   midi.NoteOnEvent(tick=64, channel=1, data=[80, 0]),
   midi.NoteOnEvent(tick=32, channel=1, data=[82, 100]),
   midi.NoteOnEvent(tick=64, channel=1, data=[82, 0]),
   midi.NoteOnEvent(tick=32, channel=1, data=[84, 100]),
   midi.NoteOnEvent(tick=64, channel=1, data=[84, 0]),
   midi.NoteOnEvent(tick=32, channel=1, data=[85, 100]),
   midi.NoteOnEvent(tick=64, channel=1, data=[85, 0]),
   midi.NoteOnEvent(tick=32, channel=1, data=[87, 100]),
   midi.NoteOnEvent(tick=64, channel=1, data=[87, 0]),
   midi.NoteOnEvent(tick=32, channel=1, data=[89, 100]),
   midi.NoteOnEvent(tick=46, channel=1, data=[87, 100]),
   midi.NoteOnEvent(tick=18, channel=1, data=[89, 0]),
   midi.NoteOnEvent(tick=32, channel=1, data=[85, 100]),
   midi.NoteOnEvent(tick=14, channel=1, data=[87, 0]),
   midi.NoteOnEvent(tick=32, channel=1, data=[82, 100]),
   midi.NoteOnEvent(tick=18, channel=1, data=[85, 0]),
   midi.NoteOnEvent(tick=32, channel=1, data=[87, 100]),
   midi.NoteOnEvent(tick=14, channel=1, data=[82, 0]),
   midi.NoteOnEvent(tick=50, channel=1, data=[87, 0]),
   midi.NoteOnEvent(tick=32, channel=1, data=[85, 100]),
   midi.NoteOnEvent(tick=64, channel=1, data=[85, 0]),
   midi.NoteOnEvent(tick=32, channel=1, data=[82, 100]),
   midi.NoteOnEvent(tick=64, channel=1, data=[82, 0]),
   midi.NoteOnEvent(tick=32, channel=1, data=[82, 100]),
   midi.NoteOnEvent(tick=64, channel=1, data=[82, 0]),
   midi.NoteOnEvent(tick=32, channel=1, data=[82, 100]),
   midi.NoteOnEvent(tick=64, channel=1, data=[82, 0]),
   midi.NoteOnEvent(tick=32, channel=1, data=[85, 100]),
   midi.NoteOnEvent(tick=64, channel=1, data=[85, 0]),
   midi.NoteOnEvent(tick=32, channel=1, data=[82, 100]),
   midi.NoteOnEvent(tick=46, channel=1, data=[85, 100]),
   midi.NoteOnEvent(tick=18, channel=1, data=[82, 0]),
   midi.NoteOnEvent(tick=482, channel=1, data=[85, 0]),
   midi.NoteOnEvent(tick=30, channel=1, data=[76, 100]),
   midi.NoteOnEvent(tick=132, channel=1, data=[76, 0]),
   midi.NoteOnEvent(tick=60, channel=1, data=[83, 100]),
   midi.NoteOnEvent(tick=132, channel=1, data=[83, 0]),
   midi.NoteOnEvent(tick=60, channel=1, data=[80, 100]),
   midi.NoteOnEvent(tick=64, channel=1, data=[80, 0]),
   midi.NoteOnEvent(tick=0, channel=1, data=[83, 100]),
   midi.NoteOnEvent(tick=64, channel=1, data=[83, 0]),
   midi.NoteOnEvent(tick=0, channel=1, data=[80, 100]),
   midi.NoteOnEvent(tick=64, channel=1, data=[80, 0]),
   midi.NoteOnEvent(tick=0, channel=1, data=[79, 100]),
   midi.NoteOnEvent(tick=132, channel=1, data=[79, 0]),
   midi.NoteOnEvent(tick=60, channel=1, data=[81, 100]),
   midi.PitchWheelEvent(tick=100, channel=1, data=[80, 108]),
   midi.PitchWheelEvent(tick=128, channel=1, data=[16, 78]),
   midi.PitchWheelEvent(tick=2, channel=1, data=[0, 64]),
   midi.NoteOnEvent(tick=170, channel=1, data=[81, 0]),
   midi.NoteOnEvent(tick=176, channel=1, data=[78, 100]),
   midi.NoteOnEvent(tick=132, channel=1, data=[78, 0]),
   midi.NoteOnEvent(tick=60, channel=1, data=[79, 100]),
   midi.NoteOnEvent(tick=132, channel=1, data=[79, 0]),
   midi.NoteOnEvent(tick=60, channel=1, data=[76, 100]),
   midi.NoteOnEvent(tick=132, channel=1, data=[76, 0]),
   midi.NoteOnEvent(tick=60, channel=1, data=[79, 100]),
   midi.NoteOnEvent(tick=132, channel=1, data=[79, 0]),
   midi.NoteOnEvent(tick=60, channel=1, data=[86, 100]),
   midi.NoteOnEvent(tick=132, channel=1, data=[86, 0]),
   midi.NoteOnEvent(tick=60, channel=1, data=[85, 100]),
   midi.NoteOnEvent(tick=64, channel=1, data=[85, 0]),
   midi.NoteOnEvent(tick=0, channel=1, data=[86, 100]),
   midi.NoteOnEvent(tick=64, channel=1, data=[86, 0]),
   midi.NoteOnEvent(tick=0, channel=1, data=[85, 100]),
   midi.NoteOnEvent(tick=64, channel=1, data=[85, 0]),
   midi.NoteOnEvent(tick=0, channel=1, data=[83, 100]),
   midi.NoteOnEvent(tick=132, channel=1, data=[83, 0]),
   midi.NoteOnEvent(tick=60, channel=1, data=[84, 100]),
   midi.PitchWheelEvent(tick=100, channel=1, data=[80, 108]),
   midi.PitchWheelEvent(tick=128, channel=1, data=[16, 78]),
   midi.PitchWheelEvent(tick=2, channel=1, data=[0, 64]),
   midi.NoteOnEvent(tick=170, channel=1, data=[84, 0]),
   midi.NoteOnEvent(tick=176, channel=1, data=[81, 100]),
   midi.NoteOnEvent(tick=132, channel=1, data=[81, 0]),
   midi.NoteOnEvent(tick=60, channel=1, data=[83, 100]),
   midi.NoteOnEvent(tick=132, channel=1, data=[83, 0]),
   midi.NoteOnEvent(tick=60, channel=1, data=[79, 100]),
   midi.NoteOnEvent(tick=132, channel=1, data=[79, 0]),
   midi.NoteOnEvent(tick=60, channel=1, data=[83, 100]),
   midi.NoteOnEvent(tick=132, channel=1, data=[83, 0]),
   midi.NoteOnEvent(tick=60, channel=1, data=[95, 100]),
   midi.NoteOnEvent(tick=132, channel=1, data=[95, 0]),
   midi.NoteOnEvent(tick=60, channel=1, data=[91, 100]),
   midi.NoteOnEvent(tick=64, channel=1, data=[91, 0]),
   midi.NoteOnEvent(tick=32, channel=1, data=[90, 100]),
   midi.NoteOnEvent(tick=64, channel=1, data=[90, 0]),
   midi.NoteOnEvent(tick=32, channel=1, data=[88, 100]),
   midi.NoteOnEvent(tick=64, channel=1, data=[88, 0]),
   midi.NoteOnEvent(tick=32, channel=1, data=[83, 100]),
   midi.NoteOnEvent(tick=64, channel=1, data=[83, 0]),
   midi.NoteOnEvent(tick=32, channel=1, data=[95, 100]),
   midi.NoteOnEvent(tick=64, channel=1, data=[95, 0]),
   midi.NoteOnEvent(tick=32, channel=1, data=[91, 100]),
   midi.NoteOnEvent(tick=64, channel=1, data=[91, 0]),
   midi.NoteOnEvent(tick=32, channel=1, data=[88, 100]),
   midi.NoteOnEvent(tick=64, channel=1, data=[88, 0]),
   midi.NoteOnEvent(tick=32, channel=1, data=[90, 100]),
   midi.NoteOnEvent(tick=64, channel=1, data=[90, 0]),
   midi.NoteOnEvent(tick=32, channel=1, data=[91, 100]),
   midi.NoteOnEvent(tick=64, channel=1, data=[91, 0]),
   midi.NoteOnEvent(tick=32, channel=1, data=[93, 100]),
   midi.NoteOnEvent(tick=64, channel=1, data=[93, 0]),
   midi.NoteOnEvent(tick=32, channel=1, data=[90, 100]),
   midi.NoteOnEvent(tick=64, channel=1, data=[90, 0]),
   midi.NoteOnEvent(tick=32, channel=1, data=[86, 100]),
   midi.NoteOnEvent(tick=64, channel=1, data=[86, 0]),
   midi.NoteOnEvent(tick=32, channel=1, data=[94, 100]),
   midi.NoteOnEvent(tick=64, channel=1, data=[94, 0]),
   midi.NoteOnEvent(tick=32, channel=1, data=[91, 100]),
   midi.NoteOnEvent(tick=64, channel=1, data=[91, 0]),
   midi.NoteOnEvent(tick=32, channel=1, data=[88, 100]),
   midi.NoteOnEvent(tick=64, channel=1, data=[88, 0]),
   midi.NoteOnEvent(tick=32, channel=1, data=[85, 100]),
   midi.NoteOnEvent(tick=64, channel=1, data=[85, 0]),
   midi.NoteOnEvent(tick=32, channel=1, data=[82, 100]),
   midi.NoteOnEvent(tick=132, channel=1, data=[82, 0]),
   midi.NoteOnEvent(tick=60, channel=1, data=[79, 100]),
   midi.NoteOnEvent(tick=64, channel=1, data=[79, 0]),
   midi.NoteOnEvent(tick=0, channel=1, data=[81, 100]),
   midi.NoteOnEvent(tick=64, channel=1, data=[81, 0]),
   midi.NoteOnEvent(tick=0, channel=1, data=[85, 100]),
   midi.NoteOnEvent(tick=64, channel=1, data=[85, 0]),
   midi.NoteOnEvent(tick=0, channel=1, data=[88, 100]),
   midi.NoteOnEvent(tick=64, channel=1, data=[88, 0]),
   midi.NoteOnEvent(tick=32, channel=1, data=[91, 100]),
   midi.NoteOnEvent(tick=64, channel=1, data=[91, 0]),
   midi.NoteOnEvent(tick=32, channel=1, data=[94, 100]),
   midi.NoteOnEvent(tick=64, channel=1, data=[94, 0]),
   midi.NoteOnEvent(tick=32, channel=1, data=[95, 100]),
   midi.NoteOnEvent(tick=64, channel=1, data=[95, 0]),
   midi.NoteOnEvent(tick=32, channel=1, data=[94, 100]),
   midi.NoteOnEvent(tick=64, channel=1, data=[94, 0]),
   midi.NoteOnEvent(tick=32, channel=1, data=[91, 100]),
   midi.NoteOnEvent(tick=64, channel=1, data=[91, 0]),
   midi.NoteOnEvent(tick=32, channel=1, data=[90, 100]),
   midi.NoteOnEvent(tick=64, channel=1, data=[90, 0]),
   midi.NoteOnEvent(tick=32, channel=1, data=[91, 100]),
   midi.NoteOnEvent(tick=64, channel=1, data=[91, 0]),
   midi.NoteOnEvent(tick=32, channel=1, data=[95, 100]),
   midi.NoteOnEvent(tick=46, channel=1, data=[91, 100]),
   midi.NoteOnEvent(tick=18, channel=1, data=[95, 0]),
   midi.NoteOnEvent(tick=32, channel=1, data=[95, 100]),
   midi.NoteOnEvent(tick=14, channel=1, data=[91, 0]),
   midi.NoteOnEvent(tick=32, channel=1, data=[91, 100]),
   midi.NoteOnEvent(tick=18, channel=1, data=[95, 0]),
   midi.NoteOnEvent(tick=32, channel=1, data=[90, 100]),
   midi.NoteOnEvent(tick=14, channel=1, data=[91, 0]),
   midi.NoteOnEvent(tick=50, channel=1, data=[90, 0]),
   midi.NoteOnEvent(tick=32, channel=1, data=[95, 100]),
   midi.NoteOnEvent(tick=46, channel=1, data=[98, 100]),
   midi.NoteOnEvent(tick=18, channel=1, data=[95, 0]),
   midi.NoteOnEvent(tick=32, channel=1, data=[95, 100]),
   midi.NoteOnEvent(tick=14, channel=1, data=[98, 0]),
   midi.NoteOnEvent(tick=124, channel=1, data=[95, 0]),
   midi.NoteOnEvent(tick=54, channel=1, data=[93, 100]),
   midi.NoteOnEvent(tick=132, channel=1, data=[93, 0]),
   midi.NoteOnEvent(tick=60, channel=1, data=[95, 100]),
   midi.NoteOnEvent(tick=400, channel=1, data=[95, 0]),
   midi.NoteOnEvent(tick=96752, channel=1, data=[52, 100]),
   midi.NoteOnEvent(tick=64, channel=1, data=[52, 0]),
   midi.NoteOnEvent(tick=32, channel=1, data=[52, 100]),
   midi.NoteOnEvent(tick=64, channel=1, data=[52, 0]),
   midi.NoteOnEvent(tick=32, channel=1, data=[52, 100]),
   midi.NoteOnEvent(tick=64, channel=1, data=[52, 0]),
   midi.NoteOnEvent(tick=32, channel=1, data=[52, 100]),
   midi.NoteOnEvent(tick=64, channel=1, data=[52, 0]),
   midi.NoteOnEvent(tick=32, channel=1, data=[66, 100]),
   midi.NoteOnEvent(tick=0, channel=1, data=[59, 100]),
   midi.NoteOnEvent(tick=64, channel=1, data=[59, 0]),
   midi.NoteOnEvent(tick=0, channel=1, data=[66, 0]),
   midi.NoteOnEvent(tick=32, channel=1, data=[66, 100]),
   midi.NoteOnEvent(tick=0, channel=1, data=[59, 100]),
   midi.NoteOnEvent(tick=64, channel=1, data=[59, 0]),
   midi.NoteOnEvent(tick=0, channel=1, data=[66, 0]),
   midi.NoteOnEvent(tick=32, channel=1, data=[52, 100]),
   midi.NoteOnEvent(tick=64, channel=1, data=[52, 0]),
   midi.NoteOnEvent(tick=32, channel=1, data=[52, 100]),
   midi.NoteOnEvent(tick=64, channel=1, data=[52, 0]),
   midi.NoteOnEvent(tick=32, channel=1, data=[52, 100]),
   midi.NoteOnEvent(tick=64, channel=1, data=[52, 0]),
   midi.NoteOnEvent(tick=32, channel=1, data=[52, 100]),
   midi.NoteOnEvent(tick=64, channel=1, data=[52, 0]),
   midi.NoteOnEvent(tick=32, channel=1, data=[65, 100]),
   midi.NoteOnEvent(tick=0, channel=1, data=[58, 100]),
   midi.NoteOnEvent(tick=64, channel=1, data=[58, 0]),
   midi.NoteOnEvent(tick=0, channel=1, data=[65, 0]),
   midi.NoteOnEvent(tick=32, channel=1, data=[65, 100]),
   midi.NoteOnEvent(tick=0, channel=1, data=[58, 100]),
   midi.NoteOnEvent(tick=64, channel=1, data=[58, 0]),
   midi.NoteOnEvent(tick=0, channel=1, data=[65, 0]),
   midi.NoteOnEvent(tick=32, channel=1, data=[52, 100]),
   midi.NoteOnEvent(tick=64, channel=1, data=[52, 0]),
   midi.NoteOnEvent(tick=32, channel=1, data=[52, 100]),
   midi.NoteOnEvent(tick=64, channel=1, data=[52, 0]),
   midi.NoteOnEvent(tick=32, channel=1, data=[52, 100]),
   midi.NoteOnEvent(tick=64, channel=1, data=[52, 0]),
   midi.NoteOnEvent(tick=32, channel=1, data=[52, 100]),
   midi.NoteOnEvent(tick=64, channel=1, data=[52, 0]),
   midi.NoteOnEvent(tick=32, channel=1, data=[66, 100]),
   midi.NoteOnEvent(tick=0, channel=1, data=[59, 100]),
   midi.NoteOnEvent(tick=64, channel=1, data=[59, 0]),
   midi.NoteOnEvent(tick=0, channel=1, data=[66, 0]),
   midi.NoteOnEvent(tick=32, channel=1, data=[66, 100]),
   midi.NoteOnEvent(tick=0, channel=1, data=[59, 100]),
   midi.NoteOnEvent(tick=64, channel=1, data=[59, 0]),
   midi.NoteOnEvent(tick=0, channel=1, data=[66, 0]),
   midi.NoteOnEvent(tick=32, channel=1, data=[52, 100]),
   midi.NoteOnEvent(tick=64, channel=1, data=[52, 0]),
   midi.NoteOnEvent(tick=32, channel=1, data=[52, 100]),
   midi.NoteOnEvent(tick=64, channel=1, data=[52, 0]),
   midi.NoteOnEvent(tick=32, channel=1, data=[52, 100]),
   midi.NoteOnEvent(tick=64, channel=1, data=[52, 0]),
   midi.NoteOnEvent(tick=32, channel=1, data=[52, 100]),
   midi.NoteOnEvent(tick=64, channel=1, data=[52, 0]),
   midi.NoteOnEvent(tick=32, channel=1, data=[64, 100]),
   midi.NoteOnEvent(tick=0, channel=1, data=[71, 100]),
   midi.NoteOnEvent(tick=268, channel=1, data=[71, 0]),
   midi.NoteOnEvent(tick=0, channel=1, data=[64, 0]),
   midi.NoteOnEvent(tick=116, channel=1, data=[70, 100]),
   midi.NoteOnEvent(tick=0, channel=1, data=[63, 100]),
   midi.NoteOnEvent(tick=132, channel=1, data=[63, 0]),
   midi.NoteOnEvent(tick=0, channel=1, data=[70, 0]),
   midi.NoteOnEvent(tick=60, channel=1, data=[67, 100]),
   midi.NoteOnEvent(tick=0, channel=1, data=[60, 100]),
   midi.NoteOnEvent(tick=132, channel=1, data=[60, 0]),
   midi.NoteOnEvent(tick=0, channel=1, data=[67, 0]),
   midi.NoteOnEvent(tick=60, channel=1, data=[59, 100]),
   midi.NoteOnEvent(tick=0, channel=1, data=[66, 100]),
   midi.NoteOnEvent(tick=132, channel=1, data=[66, 0]),
   midi.NoteOnEvent(tick=0, channel=1, data=[59, 0]),
   midi.NoteOnEvent(tick=60, channel=1, data=[52, 100]),
   midi.NoteOnEvent(tick=64, channel=1, data=[52, 0]),
   midi.NoteOnEvent(tick=32, channel=1, data=[52, 100]),
   midi.NoteOnEvent(tick=64, channel=1, data=[52, 0]),
   midi.NoteOnEvent(tick=32, channel=1, data=[52, 100]),
   midi.NoteOnEvent(tick=64, channel=1, data=[52, 0]),
   midi.NoteOnEvent(tick=32, channel=1, data=[52, 100]),
   midi.NoteOnEvent(tick=64, channel=1, data=[52, 0]),
   midi.NoteOnEvent(tick=32, channel=1, data=[59, 100]),
   midi.NoteOnEvent(tick=0, channel=1, data=[66, 100]),
   midi.NoteOnEvent(tick=64, channel=1, data=[66, 0]),
   midi.NoteOnEvent(tick=0, channel=1, data=[59, 0]),
   midi.NoteOnEvent(tick=32, channel=1, data=[66, 100]),
   midi.NoteOnEvent(tick=0, channel=1, data=[59, 100]),
   midi.NoteOnEvent(tick=64, channel=1, data=[59, 0]),
   midi.NoteOnEvent(tick=0, channel=1, data=[66, 0]),
   midi.NoteOnEvent(tick=32, channel=1, data=[52, 100]),
   midi.NoteOnEvent(tick=64, channel=1, data=[52, 0]),
   midi.NoteOnEvent(tick=32, channel=1, data=[52, 100]),
   midi.NoteOnEvent(tick=64, channel=1, data=[52, 0]),
   midi.NoteOnEvent(tick=32, channel=1, data=[52, 100]),
   midi.NoteOnEvent(tick=64, channel=1, data=[52, 0]),
   midi.NoteOnEvent(tick=32, channel=1, data=[52, 100]),
   midi.NoteOnEvent(tick=64, channel=1, data=[52, 0]),
   midi.NoteOnEvent(tick=32, channel=1, data=[58, 100]),
   midi.NoteOnEvent(tick=0, channel=1, data=[65, 100]),
   midi.NoteOnEvent(tick=64, channel=1, data=[65, 0]),
   midi.NoteOnEvent(tick=0, channel=1, data=[58, 0]),
   midi.NoteOnEvent(tick=32, channel=1, data=[65, 100]),
   midi.NoteOnEvent(tick=0, channel=1, data=[58, 100]),
   midi.NoteOnEvent(tick=64, channel=1, data=[58, 0]),
   midi.NoteOnEvent(tick=0, channel=1, data=[65, 0]),
   midi.NoteOnEvent(tick=32, channel=1, data=[52, 100]),
   midi.NoteOnEvent(tick=64, channel=1, data=[52, 0]),
   midi.NoteOnEvent(tick=32, channel=1, data=[52, 100]),
   midi.NoteOnEvent(tick=64, channel=1, data=[52, 0]),
   midi.NoteOnEvent(tick=32, channel=1, data=[52, 100]),
   midi.NoteOnEvent(tick=64, channel=1, data=[52, 0]),
   midi.NoteOnEvent(tick=32, channel=1, data=[52, 100]),
   midi.NoteOnEvent(tick=64, channel=1, data=[52, 0]),
   midi.NoteOnEvent(tick=32, channel=1, data=[66, 100]),
   midi.NoteOnEvent(tick=0, channel=1, data=[59, 100]),
   midi.NoteOnEvent(tick=64, channel=1, data=[59, 0]),
   midi.NoteOnEvent(tick=0, channel=1, data=[66, 0]),
   midi.NoteOnEvent(tick=32, channel=1, data=[59, 100]),
   midi.NoteOnEvent(tick=0, channel=1, data=[66, 100]),
   midi.NoteOnEvent(tick=64, channel=1, data=[66, 0]),
   midi.NoteOnEvent(tick=0, channel=1, data=[59, 0]),
   midi.NoteOnEvent(tick=32, channel=1, data=[52, 100]),
   midi.NoteOnEvent(tick=64, channel=1, data=[52, 0]),
   midi.NoteOnEvent(tick=32, channel=1, data=[52, 100]),
   midi.NoteOnEvent(tick=64, channel=1, data=[52, 0]),
   midi.NoteOnEvent(tick=32, channel=1, data=[52, 100]),
   midi.NoteOnEvent(tick=64, channel=1, data=[52, 0]),
   midi.NoteOnEvent(tick=32, channel=1, data=[52, 100]),
   midi.NoteOnEvent(tick=64, channel=1, data=[52, 0]),
   midi.NoteOnEvent(tick=32, channel=1, data=[71, 100]),
   midi.NoteOnEvent(tick=0, channel=1, data=[64, 100]),
   midi.NoteOnEvent(tick=268, channel=1, data=[64, 0]),
   midi.NoteOnEvent(tick=0, channel=1, data=[71, 0]),
   midi.NoteOnEvent(tick=116, channel=1, data=[70, 100]),
   midi.NoteOnEvent(tick=0, channel=1, data=[63, 100]),
   midi.NoteOnEvent(tick=132, channel=1, data=[63, 0]),
   midi.NoteOnEvent(tick=0, channel=1, data=[70, 0]),
   midi.NoteOnEvent(tick=60, channel=1, data=[67, 100]),
   midi.NoteOnEvent(tick=0, channel=1, data=[60, 100]),
   midi.NoteOnEvent(tick=132, channel=1, data=[60, 0]),
   midi.NoteOnEvent(tick=0, channel=1, data=[67, 0]),
   midi.NoteOnEvent(tick=60, channel=1, data=[59, 100]),
   midi.NoteOnEvent(tick=0, channel=1, data=[66, 100]),
   midi.NoteOnEvent(tick=132, channel=1, data=[66, 0]),
   midi.NoteOnEvent(tick=0, channel=1, data=[59, 0]),
   midi.NoteOnEvent(tick=60, channel=1, data=[52, 100]),
   midi.NoteOnEvent(tick=64, channel=1, data=[52, 0]),
   midi.NoteOnEvent(tick=32, channel=1, data=[52, 100]),
   midi.NoteOnEvent(tick=64, channel=1, data=[52, 0]),
   midi.NoteOnEvent(tick=32, channel=1, data=[52, 100]),
   midi.NoteOnEvent(tick=64, channel=1, data=[52, 0]),
   midi.NoteOnEvent(tick=32, channel=1, data=[52, 100]),
   midi.NoteOnEvent(tick=64, channel=1, data=[52, 0]),
   midi.NoteOnEvent(tick=32, channel=1, data=[59, 100]),
   midi.NoteOnEvent(tick=0, channel=1, data=[66, 100]),
   midi.NoteOnEvent(tick=64, channel=1, data=[66, 0]),
   midi.NoteOnEvent(tick=0, channel=1, data=[59, 0]),
   midi.NoteOnEvent(tick=32, channel=1, data=[59, 100]),
   midi.NoteOnEvent(tick=0, channel=1, data=[66, 100]),
   midi.NoteOnEvent(tick=64, channel=1, data=[66, 0]),
   midi.NoteOnEvent(tick=0, channel=1, data=[59, 0]),
   midi.NoteOnEvent(tick=32, channel=1, data=[52, 100]),
   midi.NoteOnEvent(tick=64, channel=1, data=[52, 0]),
   midi.NoteOnEvent(tick=32, channel=1, data=[52, 100]),
   midi.NoteOnEvent(tick=64, channel=1, data=[52, 0]),
   midi.NoteOnEvent(tick=32, channel=1, data=[52, 100]),
   midi.NoteOnEvent(tick=64, channel=1, data=[52, 0]),
   midi.NoteOnEvent(tick=32, channel=1, data=[52, 100]),
   midi.NoteOnEvent(tick=64, channel=1, data=[52, 0]),
   midi.NoteOnEvent(tick=32, channel=1, data=[58, 100]),
   midi.NoteOnEvent(tick=0, channel=1, data=[65, 100]),
   midi.NoteOnEvent(tick=64, channel=1, data=[65, 0]),
   midi.NoteOnEvent(tick=0, channel=1, data=[58, 0]),
   midi.NoteOnEvent(tick=32, channel=1, data=[65, 100]),
   midi.NoteOnEvent(tick=0, channel=1, data=[58, 100]),
   midi.NoteOnEvent(tick=64, channel=1, data=[58, 0]),
   midi.NoteOnEvent(tick=0, channel=1, data=[65, 0]),
   midi.NoteOnEvent(tick=32, channel=1, data=[52, 100]),
   midi.NoteOnEvent(tick=64, channel=1, data=[52, 0]),
   midi.NoteOnEvent(tick=32, channel=1, data=[52, 100]),
   midi.NoteOnEvent(tick=64, channel=1, data=[52, 0]),
   midi.NoteOnEvent(tick=32, channel=1, data=[52, 100]),
   midi.NoteOnEvent(tick=64, channel=1, data=[52, 0]),
   midi.NoteOnEvent(tick=32, channel=1, data=[52, 100]),
   midi.NoteOnEvent(tick=64, channel=1, data=[52, 0]),
   midi.NoteOnEvent(tick=32, channel=1, data=[59, 100]),
   midi.NoteOnEvent(tick=0, channel=1, data=[66, 100]),
   midi.NoteOnEvent(tick=64, channel=1, data=[66, 0]),
   midi.NoteOnEvent(tick=0, channel=1, data=[59, 0]),
   midi.NoteOnEvent(tick=32, channel=1, data=[66, 100]),
   midi.NoteOnEvent(tick=0, channel=1, data=[59, 100]),
   midi.NoteOnEvent(tick=64, channel=1, data=[59, 0]),
   midi.NoteOnEvent(tick=0, channel=1, data=[66, 0]),
   midi.NoteOnEvent(tick=32, channel=1, data=[52, 100]),
   midi.NoteOnEvent(tick=64, channel=1, data=[52, 0]),
   midi.NoteOnEvent(tick=32, channel=1, data=[52, 100]),
   midi.NoteOnEvent(tick=64, channel=1, data=[52, 0]),
   midi.NoteOnEvent(tick=32, channel=1, data=[52, 100]),
   midi.NoteOnEvent(tick=64, channel=1, data=[52, 0]),
   midi.NoteOnEvent(tick=32, channel=1, data=[52, 100]),
   midi.NoteOnEvent(tick=64, channel=1, data=[52, 0]),
   midi.NoteOnEvent(tick=32, channel=1, data=[71, 100]),
   midi.NoteOnEvent(tick=0, channel=1, data=[64, 100]),
   midi.NoteOnEvent(tick=268, channel=1, data=[64, 0]),
   midi.NoteOnEvent(tick=0, channel=1, data=[71, 0]),
   midi.NoteOnEvent(tick=116, channel=1, data=[63, 100]),
   midi.NoteOnEvent(tick=0, channel=1, data=[70, 100]),
   midi.NoteOnEvent(tick=132, channel=1, data=[70, 0]),
   midi.NoteOnEvent(tick=0, channel=1, data=[63, 0]),
   midi.NoteOnEvent(tick=60, channel=1, data=[60, 100]),
   midi.NoteOnEvent(tick=0, channel=1, data=[67, 100]),
   midi.NoteOnEvent(tick=132, channel=1, data=[67, 0]),
   midi.NoteOnEvent(tick=0, channel=1, data=[60, 0]),
   midi.NoteOnEvent(tick=60, channel=1, data=[66, 100]),
   midi.NoteOnEvent(tick=0, channel=1, data=[59, 100]),
   midi.NoteOnEvent(tick=132, channel=1, data=[59, 0]),
   midi.NoteOnEvent(tick=0, channel=1, data=[66, 0]),
   midi.NoteOnEvent(tick=60, channel=1, data=[52, 100]),
   midi.NoteOnEvent(tick=64, channel=1, data=[52, 0]),
   midi.NoteOnEvent(tick=32, channel=1, data=[52, 100]),
   midi.NoteOnEvent(tick=64, channel=1, data=[52, 0]),
   midi.NoteOnEvent(tick=32, channel=1, data=[52, 100]),
   midi.NoteOnEvent(tick=64, channel=1, data=[52, 0]),
   midi.NoteOnEvent(tick=32, channel=1, data=[52, 100]),
   midi.NoteOnEvent(tick=64, channel=1, data=[52, 0]),
   midi.NoteOnEvent(tick=32, channel=1, data=[66, 100]),
   midi.NoteOnEvent(tick=0, channel=1, data=[59, 100]),
   midi.NoteOnEvent(tick=64, channel=1, data=[59, 0]),
   midi.NoteOnEvent(tick=0, channel=1, data=[66, 0]),
   midi.NoteOnEvent(tick=32, channel=1, data=[59, 100]),
   midi.NoteOnEvent(tick=0, channel=1, data=[66, 100]),
   midi.NoteOnEvent(tick=64, channel=1, data=[66, 0]),
   midi.NoteOnEvent(tick=0, channel=1, data=[59, 0]),
   midi.NoteOnEvent(tick=32, channel=1, data=[52, 100]),
   midi.NoteOnEvent(tick=64, channel=1, data=[52, 0]),
   midi.NoteOnEvent(tick=32, channel=1, data=[52, 100]),
   midi.NoteOnEvent(tick=64, channel=1, data=[52, 0]),
   midi.NoteOnEvent(tick=32, channel=1, data=[52, 100]),
   midi.NoteOnEvent(tick=64, channel=1, data=[52, 0]),
   midi.NoteOnEvent(tick=32, channel=1, data=[52, 100]),
   midi.NoteOnEvent(tick=64, channel=1, data=[52, 0]),
   midi.NoteOnEvent(tick=32, channel=1, data=[65, 100]),
   midi.NoteOnEvent(tick=0, channel=1, data=[58, 100]),
   midi.NoteOnEvent(tick=64, channel=1, data=[58, 0]),
   midi.NoteOnEvent(tick=0, channel=1, data=[65, 0]),
   midi.NoteOnEvent(tick=32, channel=1, data=[65, 100]),
   midi.NoteOnEvent(tick=0, channel=1, data=[58, 100]),
   midi.NoteOnEvent(tick=64, channel=1, data=[58, 0]),
   midi.NoteOnEvent(tick=0, channel=1, data=[65, 0]),
   midi.NoteOnEvent(tick=32, channel=1, data=[52, 100]),
   midi.NoteOnEvent(tick=64, channel=1, data=[52, 0]),
   midi.NoteOnEvent(tick=32, channel=1, data=[52, 100]),
   midi.NoteOnEvent(tick=64, channel=1, data=[52, 0]),
   midi.NoteOnEvent(tick=32, channel=1, data=[52, 100]),
   midi.NoteOnEvent(tick=64, channel=1, data=[52, 0]),
   midi.NoteOnEvent(tick=32, channel=1, data=[52, 100]),
   midi.NoteOnEvent(tick=64, channel=1, data=[52, 0]),
   midi.NoteOnEvent(tick=32, channel=1, data=[66, 100]),
   midi.NoteOnEvent(tick=0, channel=1, data=[59, 100]),
   midi.NoteOnEvent(tick=64, channel=1, data=[59, 0]),
   midi.NoteOnEvent(tick=0, channel=1, data=[66, 0]),
   midi.NoteOnEvent(tick=32, channel=1, data=[66, 100]),
   midi.NoteOnEvent(tick=0, channel=1, data=[59, 100]),
   midi.NoteOnEvent(tick=64, channel=1, data=[59, 0]),
   midi.NoteOnEvent(tick=0, channel=1, data=[66, 0]),
   midi.NoteOnEvent(tick=32, channel=1, data=[52, 100]),
   midi.NoteOnEvent(tick=64, channel=1, data=[52, 0]),
   midi.NoteOnEvent(tick=32, channel=1, data=[52, 100]),
   midi.NoteOnEvent(tick=64, channel=1, data=[52, 0]),
   midi.NoteOnEvent(tick=32, channel=1, data=[52, 100]),
   midi.NoteOnEvent(tick=64, channel=1, data=[52, 0]),
   midi.NoteOnEvent(tick=32, channel=1, data=[52, 100]),
   midi.NoteOnEvent(tick=64, channel=1, data=[52, 0]),
   midi.NoteOnEvent(tick=32, channel=1, data=[64, 100]),
   midi.NoteOnEvent(tick=0, channel=1, data=[71, 100]),
   midi.NoteOnEvent(tick=268, channel=1, data=[71, 0]),
   midi.NoteOnEvent(tick=0, channel=1, data=[64, 0]),
   midi.NoteOnEvent(tick=116, channel=1, data=[63, 100]),
   midi.NoteOnEvent(tick=0, channel=1, data=[70, 100]),
   midi.NoteOnEvent(tick=132, channel=1, data=[70, 0]),
   midi.NoteOnEvent(tick=0, channel=1, data=[63, 0]),
   midi.NoteOnEvent(tick=60, channel=1, data=[60, 100]),
   midi.NoteOnEvent(tick=0, channel=1, data=[67, 100]),
   midi.NoteOnEvent(tick=132, channel=1, data=[67, 0]),
   midi.NoteOnEvent(tick=0, channel=1, data=[60, 0]),
   midi.NoteOnEvent(tick=60, channel=1, data=[59, 100]),
   midi.NoteOnEvent(tick=0, channel=1, data=[66, 100]),
   midi.NoteOnEvent(tick=132, channel=1, data=[66, 0]),
   midi.NoteOnEvent(tick=0, channel=1, data=[59, 0]),
   midi.NoteOnEvent(tick=60, channel=1, data=[100, 100]),
   midi.NoteOnEvent(tick=128, channel=1, data=[100, 0]),
   midi.NoteOnEvent(tick=0, channel=1, data=[76, 100]),
   midi.NoteOnEvent(tick=128, channel=1, data=[76, 0]),
   midi.NoteOnEvent(tick=0, channel=1, data=[98, 100]),
   midi.NoteOnEvent(tick=128, channel=1, data=[98, 0]),
   midi.NoteOnEvent(tick=0, channel=1, data=[76, 100]),
   midi.NoteOnEvent(tick=128, channel=1, data=[76, 0]),
   midi.NoteOnEvent(tick=0, channel=1, data=[96, 100]),
   midi.NoteOnEvent(tick=128, channel=1, data=[96, 0]),
   midi.NoteOnEvent(tick=0, channel=1, data=[76, 100]),
   midi.NoteOnEvent(tick=128, channel=1, data=[76, 0]),
   midi.NoteOnEvent(tick=0, channel=1, data=[98, 100]),
   midi.NoteOnEvent(tick=128, channel=1, data=[98, 0]),
   midi.NoteOnEvent(tick=0, channel=1, data=[76, 100]),
   midi.NoteOnEvent(tick=128, channel=1, data=[76, 0]),
   midi.NoteOnEvent(tick=0, channel=1, data=[96, 100]),
   midi.NoteOnEvent(tick=128, channel=1, data=[96, 0]),
   midi.NoteOnEvent(tick=0, channel=1, data=[76, 100]),
   midi.NoteOnEvent(tick=128, channel=1, data=[76, 0]),
   midi.NoteOnEvent(tick=0, channel=1, data=[95, 100]),
   midi.NoteOnEvent(tick=128, channel=1, data=[95, 0]),
   midi.NoteOnEvent(tick=0, channel=1, data=[76, 100]),
   midi.NoteOnEvent(tick=128, channel=1, data=[76, 0]),
   midi.NoteOnEvent(tick=0, channel=1, data=[100, 100]),
   midi.NoteOnEvent(tick=128, channel=1, data=[100, 0]),
   midi.NoteOnEvent(tick=0, channel=1, data=[76, 100]),
   midi.NoteOnEvent(tick=128, channel=1, data=[76, 0]),
   midi.NoteOnEvent(tick=0, channel=1, data=[98, 100]),
   midi.NoteOnEvent(tick=128, channel=1, data=[98, 0]),
   midi.NoteOnEvent(tick=0, channel=1, data=[76, 100]),
   midi.NoteOnEvent(tick=128, channel=1, data=[76, 0]),
   midi.NoteOnEvent(tick=0, channel=1, data=[96, 100]),
   midi.NoteOnEvent(tick=128, channel=1, data=[96, 0]),
   midi.NoteOnEvent(tick=0, channel=1, data=[76, 100]),
   midi.NoteOnEvent(tick=128, channel=1, data=[76, 0]),
   midi.NoteOnEvent(tick=0, channel=1, data=[98, 100]),
   midi.NoteOnEvent(tick=128, channel=1, data=[98, 0]),
   midi.NoteOnEvent(tick=0, channel=1, data=[76, 100]),
   midi.NoteOnEvent(tick=128, channel=1, data=[76, 0]),
   midi.NoteOnEvent(tick=0, channel=1, data=[96, 100]),
   midi.NoteOnEvent(tick=128, channel=1, data=[96, 0]),
   midi.NoteOnEvent(tick=0, channel=1, data=[76, 100]),
   midi.NoteOnEvent(tick=128, channel=1, data=[76, 0]),
   midi.NoteOnEvent(tick=0, channel=1, data=[95, 100]),
   midi.NoteOnEvent(tick=128, channel=1, data=[95, 0]),
   midi.NoteOnEvent(tick=0, channel=1, data=[76, 100]),
   midi.NoteOnEvent(tick=128, channel=1, data=[76, 0]),
   midi.NoteOnEvent(tick=0, channel=1, data=[100, 100]),
   midi.NoteOnEvent(tick=128, channel=1, data=[100, 0]),
   midi.NoteOnEvent(tick=0, channel=1, data=[76, 100]),
   midi.NoteOnEvent(tick=128, channel=1, data=[76, 0]),
   midi.NoteOnEvent(tick=0, channel=1, data=[98, 100]),
   midi.NoteOnEvent(tick=128, channel=1, data=[98, 0]),
   midi.NoteOnEvent(tick=0, channel=1, data=[76, 100]),
   midi.NoteOnEvent(tick=128, channel=1, data=[76, 0]),
   midi.NoteOnEvent(tick=0, channel=1, data=[96, 100]),
   midi.NoteOnEvent(tick=128, channel=1, data=[96, 0]),
   midi.NoteOnEvent(tick=0, channel=1, data=[76, 100]),
   midi.NoteOnEvent(tick=128, channel=1, data=[76, 0]),
   midi.NoteOnEvent(tick=0, channel=1, data=[98, 100]),
   midi.NoteOnEvent(tick=128, channel=1, data=[98, 0]),
   midi.NoteOnEvent(tick=0, channel=1, data=[76, 100]),
   midi.NoteOnEvent(tick=128, channel=1, data=[76, 0]),
   midi.NoteOnEvent(tick=0, channel=1, data=[96, 100]),
   midi.NoteOnEvent(tick=128, channel=1, data=[96, 0]),
   midi.NoteOnEvent(tick=0, channel=1, data=[76, 100]),
   midi.NoteOnEvent(tick=128, channel=1, data=[76, 0]),
   midi.NoteOnEvent(tick=0, channel=1, data=[95, 100]),
   midi.NoteOnEvent(tick=128, channel=1, data=[95, 0]),
   midi.NoteOnEvent(tick=0, channel=1, data=[76, 100]),
   midi.NoteOnEvent(tick=128, channel=1, data=[76, 0]),
   midi.NoteOnEvent(tick=0, channel=1, data=[96, 100]),
   midi.NoteOnEvent(tick=128, channel=1, data=[96, 0]),
   midi.NoteOnEvent(tick=0, channel=1, data=[76, 100]),
   midi.NoteOnEvent(tick=128, channel=1, data=[76, 0]),
   midi.NoteOnEvent(tick=0, channel=1, data=[95, 100]),
   midi.NoteOnEvent(tick=128, channel=1, data=[95, 0]),
   midi.NoteOnEvent(tick=0, channel=1, data=[76, 100]),
   midi.NoteOnEvent(tick=128, channel=1, data=[76, 0]),
   midi.NoteOnEvent(tick=0, channel=1, data=[93, 100]),
   midi.NoteOnEvent(tick=128, channel=1, data=[93, 0]),
   midi.NoteOnEvent(tick=0, channel=1, data=[76, 100]),
   midi.NoteOnEvent(tick=128, channel=1, data=[76, 0]),
   midi.NoteOnEvent(tick=0, channel=1, data=[95, 100]),
   midi.NoteOnEvent(tick=128, channel=1, data=[95, 0]),
   midi.NoteOnEvent(tick=0, channel=1, data=[76, 100]),
   midi.NoteOnEvent(tick=128, channel=1, data=[76, 0]),
   midi.NoteOnEvent(tick=0, channel=1, data=[93, 100]),
   midi.NoteOnEvent(tick=128, channel=1, data=[93, 0]),
   midi.NoteOnEvent(tick=0, channel=1, data=[76, 100]),
   midi.NoteOnEvent(tick=128, channel=1, data=[76, 0]),
   midi.NoteOnEvent(tick=0, channel=1, data=[91, 100]),
   midi.NoteOnEvent(tick=128, channel=1, data=[91, 0]),
   midi.NoteOnEvent(tick=0, channel=1, data=[76, 100]),
   midi.NoteOnEvent(tick=128, channel=1, data=[76, 0]),
   midi.NoteOnEvent(tick=0, channel=1, data=[93, 100]),
   midi.NoteOnEvent(tick=128, channel=1, data=[93, 0]),
   midi.NoteOnEvent(tick=0, channel=1, data=[76, 100]),
   midi.NoteOnEvent(tick=128, channel=1, data=[76, 0]),
   midi.NoteOnEvent(tick=0, channel=1, data=[91, 100]),
   midi.NoteOnEvent(tick=128, channel=1, data=[91, 0]),
   midi.NoteOnEvent(tick=0, channel=1, data=[76, 100]),
   midi.NoteOnEvent(tick=128, channel=1, data=[76, 0]),
   midi.NoteOnEvent(tick=0, channel=1, data=[90, 100]),
   midi.NoteOnEvent(tick=128, channel=1, data=[90, 0]),
   midi.NoteOnEvent(tick=0, channel=1, data=[76, 100]),
   midi.NoteOnEvent(tick=128, channel=1, data=[76, 0]),
   midi.NoteOnEvent(tick=0, channel=1, data=[91, 100]),
   midi.NoteOnEvent(tick=128, channel=1, data=[91, 0]),
   midi.NoteOnEvent(tick=0, channel=1, data=[76, 100]),
   midi.NoteOnEvent(tick=128, channel=1, data=[76, 0]),
   midi.NoteOnEvent(tick=0, channel=1, data=[93, 100]),
   midi.NoteOnEvent(tick=128, channel=1, data=[93, 0]),
   midi.NoteOnEvent(tick=0, channel=1, data=[76, 100]),
   midi.NoteOnEvent(tick=128, channel=1, data=[76, 0]),
   midi.NoteOnEvent(tick=0, channel=1, data=[95, 100]),
   midi.NoteOnEvent(tick=128, channel=1, data=[95, 0]),
   midi.NoteOnEvent(tick=0, channel=1, data=[76, 100]),
   midi.NoteOnEvent(tick=128, channel=1, data=[76, 0]),
   midi.NoteOnEvent(tick=0, channel=1, data=[93, 100]),
   midi.NoteOnEvent(tick=128, channel=1, data=[93, 0]),
   midi.NoteOnEvent(tick=0, channel=1, data=[76, 100]),
   midi.NoteOnEvent(tick=128, channel=1, data=[76, 0]),
   midi.NoteOnEvent(tick=0, channel=1, data=[91, 100]),
   midi.NoteOnEvent(tick=128, channel=1, data=[91, 0]),
   midi.NoteOnEvent(tick=0, channel=1, data=[76, 100]),
   midi.NoteOnEvent(tick=128, channel=1, data=[76, 0]),
   midi.NoteOnEvent(tick=0, channel=1, data=[90, 100]),
   midi.NoteOnEvent(tick=128, channel=1, data=[90, 0]),
   midi.NoteOnEvent(tick=0, channel=1, data=[76, 100]),
   midi.NoteOnEvent(tick=128, channel=1, data=[76, 0]),
   midi.NoteOnEvent(tick=0, channel=1, data=[91, 100]),
   midi.NoteOnEvent(tick=128, channel=1, data=[91, 0]),
   midi.NoteOnEvent(tick=0, channel=1, data=[76, 100]),
   midi.NoteOnEvent(tick=128, channel=1, data=[76, 0]),
   midi.NoteOnEvent(tick=0, channel=1, data=[93, 100]),
   midi.NoteOnEvent(tick=128, channel=1, data=[93, 0]),
   midi.NoteOnEvent(tick=0, channel=1, data=[76, 100]),
   midi.NoteOnEvent(tick=128, channel=1, data=[76, 0]),
   midi.NoteOnEvent(tick=0, channel=1, data=[95, 100]),
   midi.NoteOnEvent(tick=128, channel=1, data=[95, 0]),
   midi.NoteOnEvent(tick=0, channel=1, data=[76, 100]),
   midi.NoteOnEvent(tick=128, channel=1, data=[76, 0]),
   midi.NoteOnEvent(tick=0, channel=1, data=[93, 100]),
   midi.NoteOnEvent(tick=128, channel=1, data=[93, 0]),
   midi.NoteOnEvent(tick=0, channel=1, data=[76, 100]),
   midi.NoteOnEvent(tick=128, channel=1, data=[76, 0]),
   midi.NoteOnEvent(tick=0, channel=1, data=[91, 100]),
   midi.NoteOnEvent(tick=128, channel=1, data=[91, 0]),
   midi.NoteOnEvent(tick=0, channel=1, data=[76, 100]),
   midi.NoteOnEvent(tick=128, channel=1, data=[76, 0]),
   midi.NoteOnEvent(tick=0, channel=1, data=[90, 100]),
   midi.NoteOnEvent(tick=128, channel=1, data=[90, 0]),
   midi.NoteOnEvent(tick=0, channel=1, data=[76, 100]),
   midi.NoteOnEvent(tick=128, channel=1, data=[76, 0]),
   midi.NoteOnEvent(tick=0, channel=1, data=[91, 100]),
   midi.NoteOnEvent(tick=128, channel=1, data=[91, 0]),
   midi.NoteOnEvent(tick=0, channel=1, data=[76, 100]),
   midi.NoteOnEvent(tick=128, channel=1, data=[76, 0]),
   midi.NoteOnEvent(tick=0, channel=1, data=[93, 100]),
   midi.NoteOnEvent(tick=128, channel=1, data=[93, 0]),
   midi.NoteOnEvent(tick=0, channel=1, data=[76, 100]),
   midi.NoteOnEvent(tick=128, channel=1, data=[76, 0]),
   midi.NoteOnEvent(tick=0, channel=1, data=[95, 100]),
   midi.NoteOnEvent(tick=128, channel=1, data=[95, 0]),
   midi.NoteOnEvent(tick=0, channel=1, data=[76, 100]),
   midi.NoteOnEvent(tick=128, channel=1, data=[76, 0]),
   midi.NoteOnEvent(tick=0, channel=1, data=[93, 100]),
   midi.NoteOnEvent(tick=128, channel=1, data=[93, 0]),
   midi.NoteOnEvent(tick=0, channel=1, data=[76, 100]),
   midi.NoteOnEvent(tick=128, channel=1, data=[76, 0]),
   midi.NoteOnEvent(tick=0, channel=1, data=[95, 100]),
   midi.NoteOnEvent(tick=128, channel=1, data=[95, 0]),
   midi.NoteOnEvent(tick=0, channel=1, data=[76, 100]),
   midi.NoteOnEvent(tick=128, channel=1, data=[76, 0]),
   midi.NoteOnEvent(tick=0, channel=1, data=[96, 100]),
   midi.NoteOnEvent(tick=128, channel=1, data=[96, 0]),
   midi.NoteOnEvent(tick=0, channel=1, data=[76, 100]),
   midi.NoteOnEvent(tick=128, channel=1, data=[76, 0]),
   midi.NoteOnEvent(tick=0, channel=1, data=[95, 100]),
   midi.NoteOnEvent(tick=128, channel=1, data=[95, 0]),
   midi.NoteOnEvent(tick=0, channel=1, data=[76, 100]),
   midi.NoteOnEvent(tick=128, channel=1, data=[76, 0]),
   midi.NoteOnEvent(tick=0, channel=1, data=[96, 100]),
   midi.NoteOnEvent(tick=128, channel=1, data=[96, 0]),
   midi.NoteOnEvent(tick=0, channel=1, data=[76, 100]),
   midi.NoteOnEvent(tick=128, channel=1, data=[76, 0]),
   midi.NoteOnEvent(tick=0, channel=1, data=[98, 100]),
   midi.NoteOnEvent(tick=128, channel=1, data=[98, 0]),
   midi.NoteOnEvent(tick=0, channel=1, data=[76, 100]),
   midi.NoteOnEvent(tick=128, channel=1, data=[76, 0]),
   midi.NoteOnEvent(tick=0, channel=1, data=[88, 100]),
   midi.NoteOnEvent(tick=64, channel=1, data=[88, 0]),
   midi.NoteOnEvent(tick=32, channel=1, data=[86, 100]),
   midi.NoteOnEvent(tick=64, channel=1, data=[86, 0]),
   midi.NoteOnEvent(tick=32, channel=1, data=[83, 100]),
   midi.NoteOnEvent(tick=64, channel=1, data=[83, 0]),
   midi.NoteOnEvent(tick=32, channel=1, data=[83, 100]),
   midi.NoteOnEvent(tick=64, channel=1, data=[83, 0]),
   midi.NoteOnEvent(tick=32, channel=1, data=[82, 100]),
   midi.NoteOnEvent(tick=268, channel=1, data=[82, 0]),
   midi.NoteOnEvent(tick=116, channel=1, data=[88, 100]),
   midi.NoteOnEvent(tick=64, channel=1, data=[88, 0]),
   midi.NoteOnEvent(tick=32, channel=1, data=[86, 100]),
   midi.NoteOnEvent(tick=64, channel=1, data=[86, 0]),
   midi.NoteOnEvent(tick=32, channel=1, data=[83, 100]),
   midi.NoteOnEvent(tick=64, channel=1, data=[83, 0]),
   midi.NoteOnEvent(tick=32, channel=1, data=[83, 100]),
   midi.NoteOnEvent(tick=64, channel=1, data=[83, 0]),
   midi.NoteOnEvent(tick=32, channel=1, data=[82, 100]),
   midi.NoteOnEvent(tick=268, channel=1, data=[82, 0]),
   midi.NoteOnEvent(tick=116, channel=1, data=[88, 100]),
   midi.NoteOnEvent(tick=64, channel=1, data=[88, 0]),
   midi.NoteOnEvent(tick=32, channel=1, data=[86, 100]),
   midi.NoteOnEvent(tick=64, channel=1, data=[86, 0]),
   midi.NoteOnEvent(tick=32, channel=1, data=[83, 100]),
   midi.NoteOnEvent(tick=64, channel=1, data=[83, 0]),
   midi.NoteOnEvent(tick=32, channel=1, data=[83, 100]),
   midi.NoteOnEvent(tick=64, channel=1, data=[83, 0]),
   midi.NoteOnEvent(tick=32, channel=1, data=[82, 100]),
   midi.NoteOnEvent(tick=268, channel=1, data=[82, 0]),
   midi.NoteOnEvent(tick=116, channel=1, data=[88, 100]),
   midi.NoteOnEvent(tick=64, channel=1, data=[88, 0]),
   midi.NoteOnEvent(tick=32, channel=1, data=[86, 100]),
   midi.NoteOnEvent(tick=64, channel=1, data=[86, 0]),
   midi.NoteOnEvent(tick=32, channel=1, data=[83, 100]),
   midi.NoteOnEvent(tick=64, channel=1, data=[83, 0]),
   midi.NoteOnEvent(tick=32, channel=1, data=[83, 100]),
   midi.NoteOnEvent(tick=64, channel=1, data=[83, 0]),
   midi.NoteOnEvent(tick=32, channel=1, data=[82, 100]),
   midi.NoteOnEvent(tick=268, channel=1, data=[82, 0]),
   midi.NoteOnEvent(tick=116, channel=1, data=[79, 100]),
   midi.NoteOnEvent(tick=64, channel=1, data=[79, 0]),
   midi.NoteOnEvent(tick=0, channel=1, data=[82, 100]),
   midi.NoteOnEvent(tick=64, channel=1, data=[82, 0]),
   midi.NoteOnEvent(tick=0, channel=1, data=[79, 100]),
   midi.NoteOnEvent(tick=64, channel=1, data=[79, 0]),
   midi.NoteOnEvent(tick=0, channel=1, data=[77, 100]),
   midi.NoteOnEvent(tick=192, channel=1, data=[77, 0]),
   midi.NoteOnEvent(tick=0, channel=1, data=[79, 100]),
   midi.NoteOnEvent(tick=132, channel=1, data=[79, 0]),
   midi.NoteOnEvent(tick=60, channel=1, data=[77, 100]),
   midi.NoteOnEvent(tick=64, channel=1, data=[77, 0]),
   midi.NoteOnEvent(tick=32, channel=1, data=[76, 100]),
   midi.NoteOnEvent(tick=64, channel=1, data=[76, 0]),
   midi.NoteOnEvent(tick=32, channel=1, data=[74, 100]),
   midi.NoteOnEvent(tick=64, channel=1, data=[74, 0]),
   midi.NoteOnEvent(tick=32, channel=1, data=[77, 100]),
   midi.NoteOnEvent(tick=132, channel=1, data=[77, 0]),
   midi.NoteOnEvent(tick=60, channel=1, data=[76, 100]),
   midi.NoteOnEvent(tick=64, channel=1, data=[76, 0]),
   midi.NoteOnEvent(tick=32, channel=1, data=[74, 100]),
   midi.NoteOnEvent(tick=64, channel=1, data=[74, 0]),
   midi.NoteOnEvent(tick=32, channel=1, data=[76, 100]),
   midi.NoteOnEvent(tick=132, channel=1, data=[76, 0]),
   midi.NoteOnEvent(tick=60, channel=1, data=[74, 100]),
   midi.NoteOnEvent(tick=64, channel=1, data=[74, 0]),
   midi.NoteOnEvent(tick=32, channel=1, data=[71, 100]),
   midi.NoteOnEvent(tick=64, channel=1, data=[71, 0]),
   midi.NoteOnEvent(tick=32, channel=1, data=[74, 100]),
   midi.NoteOnEvent(tick=64, channel=1, data=[74, 0]),
   midi.NoteOnEvent(tick=32, channel=1, data=[71, 100]),
   midi.NoteOnEvent(tick=64, channel=1, data=[71, 0]),
   midi.NoteOnEvent(tick=32, channel=1, data=[70, 100]),
   midi.NoteOnEvent(tick=64, channel=1, data=[70, 0]),
   midi.NoteOnEvent(tick=32, channel=1, data=[69, 100]),
   midi.NoteOnEvent(tick=64, channel=1, data=[69, 0]),
   midi.NoteOnEvent(tick=32, channel=1, data=[71, 100]),
   midi.NoteOnEvent(tick=64, channel=1, data=[71, 0]),
   midi.NoteOnEvent(tick=32, channel=1, data=[70, 100]),
   midi.NoteOnEvent(tick=64, channel=1, data=[70, 0]),
   midi.NoteOnEvent(tick=32, channel=1, data=[69, 100]),
   midi.NoteOnEvent(tick=200, channel=1, data=[69, 0]),
   midi.NoteOnEvent(tick=88, channel=1, data=[67, 100]),
   midi.NoteOnEvent(tick=132, channel=1, data=[67, 0]),
   midi.NoteOnEvent(tick=60, channel=1, data=[64, 100]),
   midi.NoteOnEvent(tick=64, channel=1, data=[64, 0]),
   midi.NoteOnEvent(tick=32, channel=1, data=[67, 100]),
   midi.NoteOnEvent(tick=132, channel=1, data=[67, 0]),
   midi.NoteOnEvent(tick=60, channel=1, data=[69, 100]),
   midi.NoteOnEvent(tick=64, channel=1, data=[69, 0]),
   midi.NoteOnEvent(tick=32, channel=1, data=[69, 100]),
   midi.NoteOnEvent(tick=64, channel=1, data=[69, 0]),
   midi.NoteOnEvent(tick=32, channel=1, data=[71, 100]),
   midi.NoteOnEvent(tick=64, channel=1, data=[71, 0]),
   midi.NoteOnEvent(tick=32, channel=1, data=[69, 100]),
   midi.NoteOnEvent(tick=64, channel=1, data=[69, 0]),
   midi.NoteOnEvent(tick=32, channel=1, data=[67, 100]),
   midi.NoteOnEvent(tick=64, channel=1, data=[67, 0]),
   midi.NoteOnEvent(tick=32, channel=1, data=[69, 100]),
   midi.NoteOnEvent(tick=64, channel=1, data=[69, 0]),
   midi.NoteOnEvent(tick=32, channel=1, data=[70, 100]),
   midi.NoteOnEvent(tick=64, channel=1, data=[70, 0]),
   midi.NoteOnEvent(tick=32, channel=1, data=[71, 100]),
   midi.NoteOnEvent(tick=132, channel=1, data=[71, 0]),
   midi.NoteOnEvent(tick=60, channel=1, data=[74, 100]),
   midi.NoteOnEvent(tick=64, channel=1, data=[74, 0]),
   midi.NoteOnEvent(tick=32, channel=1, data=[76, 100]),
   midi.NoteOnEvent(tick=64, channel=1, data=[76, 0]),
   midi.NoteOnEvent(tick=32, channel=1, data=[74, 100]),
   midi.NoteOnEvent(tick=64, channel=1, data=[74, 0]),
   midi.NoteOnEvent(tick=32, channel=1, data=[71, 100]),
   midi.NoteOnEvent(tick=64, channel=1, data=[71, 0]),
   midi.NoteOnEvent(tick=32, channel=1, data=[74, 100]),
   midi.NoteOnEvent(tick=64, channel=1, data=[74, 0]),
   midi.NoteOnEvent(tick=32, channel=1, data=[75, 100]),
   midi.NoteOnEvent(tick=64, channel=1, data=[75, 0]),
   midi.NoteOnEvent(tick=32, channel=1, data=[76, 100]),
   midi.NoteOnEvent(tick=132, channel=1, data=[76, 0]),
   midi.NoteOnEvent(tick=60, channel=1, data=[79, 100]),
   midi.NoteOnEvent(tick=64, channel=1, data=[79, 0]),
   midi.NoteOnEvent(tick=32, channel=1, data=[81, 100]),
   midi.NoteOnEvent(tick=64, channel=1, data=[81, 0]),
   midi.NoteOnEvent(tick=32, channel=1, data=[79, 100]),
   midi.NoteOnEvent(tick=64, channel=1, data=[79, 0]),
   midi.NoteOnEvent(tick=32, channel=1, data=[76, 100]),
   midi.NoteOnEvent(tick=64, channel=1, data=[76, 0]),
   midi.NoteOnEvent(tick=32, channel=1, data=[79, 100]),
   midi.NoteOnEvent(tick=64, channel=1, data=[79, 0]),
   midi.NoteOnEvent(tick=32, channel=1, data=[80, 100]),
   midi.NoteOnEvent(tick=64, channel=1, data=[80, 0]),
   midi.NoteOnEvent(tick=32, channel=1, data=[81, 100]),
   midi.NoteOnEvent(tick=132, channel=1, data=[81, 0]),
   midi.NoteOnEvent(tick=60, channel=1, data=[81, 100]),
   midi.NoteOnEvent(tick=64, channel=1, data=[81, 0]),
   midi.NoteOnEvent(tick=32, channel=1, data=[83, 100]),
   midi.NoteOnEvent(tick=64, channel=1, data=[83, 0]),
   midi.NoteOnEvent(tick=32, channel=1, data=[86, 100]),
   midi.NoteOnEvent(tick=64, channel=1, data=[86, 0]),
   midi.NoteOnEvent(tick=32, channel=1, data=[83, 100]),
   midi.NoteOnEvent(tick=64, channel=1, data=[83, 0]),
   midi.NoteOnEvent(tick=32, channel=1, data=[86, 100]),
   midi.NoteOnEvent(tick=64, channel=1, data=[86, 0]),
   midi.NoteOnEvent(tick=32, channel=1, data=[83, 100]),
   midi.NoteOnEvent(tick=64, channel=1, data=[83, 0]),
   midi.NoteOnEvent(tick=32, channel=1, data=[88, 100]),
   midi.NoteOnEvent(tick=64, channel=1, data=[88, 0]),
   midi.NoteOnEvent(tick=32, channel=1, data=[86, 100]),
   midi.NoteOnEvent(tick=64, channel=1, data=[86, 0]),
   midi.NoteOnEvent(tick=32, channel=1, data=[88, 100]),
   midi.NoteOnEvent(tick=64, channel=1, data=[88, 0]),
   midi.NoteOnEvent(tick=32, channel=1, data=[86, 100]),
   midi.NoteOnEvent(tick=64, channel=1, data=[86, 0]),
   midi.NoteOnEvent(tick=32, channel=1, data=[83, 100]),
   midi.NoteOnEvent(tick=64, channel=1, data=[83, 0]),
   midi.NoteOnEvent(tick=32, channel=1, data=[83, 100]),
   midi.NoteOnEvent(tick=64, channel=1, data=[83, 0]),
   midi.NoteOnEvent(tick=32, channel=1, data=[82, 100]),
   midi.NoteOnEvent(tick=268, channel=1, data=[82, 0]),
   midi.NoteOnEvent(tick=116, channel=1, data=[88, 100]),
   midi.NoteOnEvent(tick=64, channel=1, data=[88, 0]),
   midi.NoteOnEvent(tick=32, channel=1, data=[86, 100]),
   midi.NoteOnEvent(tick=64, channel=1, data=[86, 0]),
   midi.NoteOnEvent(tick=32, channel=1, data=[83, 100]),
   midi.NoteOnEvent(tick=64, channel=1, data=[83, 0]),
   midi.NoteOnEvent(tick=32, channel=1, data=[83, 100]),
   midi.NoteOnEvent(tick=64, channel=1, data=[83, 0]),
   midi.NoteOnEvent(tick=32, channel=1, data=[82, 100]),
   midi.NoteOnEvent(tick=268, channel=1, data=[82, 0]),
   midi.NoteOnEvent(tick=116, channel=1, data=[88, 100]),
   midi.NoteOnEvent(tick=64, channel=1, data=[88, 0]),
   midi.NoteOnEvent(tick=32, channel=1, data=[86, 100]),
   midi.NoteOnEvent(tick=64, channel=1, data=[86, 0]),
   midi.NoteOnEvent(tick=32, channel=1, data=[83, 100]),
   midi.NoteOnEvent(tick=64, channel=1, data=[83, 0]),
   midi.NoteOnEvent(tick=32, channel=1, data=[83, 100]),
   midi.NoteOnEvent(tick=64, channel=1, data=[83, 0]),
   midi.NoteOnEvent(tick=32, channel=1, data=[82, 100]),
   midi.NoteOnEvent(tick=268, channel=1, data=[82, 0]),
   midi.NoteOnEvent(tick=116, channel=1, data=[88, 100]),
   midi.NoteOnEvent(tick=64, channel=1, data=[88, 0]),
   midi.NoteOnEvent(tick=32, channel=1, data=[86, 100]),
   midi.NoteOnEvent(tick=64, channel=1, data=[86, 0]),
   midi.NoteOnEvent(tick=32, channel=1, data=[83, 100]),
   midi.NoteOnEvent(tick=64, channel=1, data=[83, 0]),
   midi.NoteOnEvent(tick=32, channel=1, data=[83, 100]),
   midi.NoteOnEvent(tick=64, channel=1, data=[83, 0]),
   midi.NoteOnEvent(tick=32, channel=1, data=[82, 100]),
   midi.NoteOnEvent(tick=268, channel=1, data=[82, 0]),
   midi.NoteOnEvent(tick=116, channel=1, data=[88, 100]),
   midi.NoteOnEvent(tick=64, channel=1, data=[88, 0]),
   midi.NoteOnEvent(tick=32, channel=1, data=[86, 100]),
   midi.NoteOnEvent(tick=64, channel=1, data=[86, 0]),
   midi.NoteOnEvent(tick=32, channel=1, data=[83, 100]),
   midi.NoteOnEvent(tick=64, channel=1, data=[83, 0]),
   midi.NoteOnEvent(tick=32, channel=1, data=[86, 100]),
   midi.NoteOnEvent(tick=64, channel=1, data=[86, 0]),
   midi.NoteOnEvent(tick=32, channel=1, data=[88, 100]),
   midi.NoteOnEvent(tick=64, channel=1, data=[88, 0]),
   midi.NoteOnEvent(tick=32, channel=1, data=[88, 100]),
   midi.NoteOnEvent(tick=64, channel=1, data=[88, 0]),
   midi.NoteOnEvent(tick=32, channel=1, data=[88, 100]),
   midi.NoteOnEvent(tick=64, channel=1, data=[88, 0]),
   midi.NoteOnEvent(tick=32, channel=1, data=[88, 100]),
   midi.NoteOnEvent(tick=64, channel=1, data=[88, 0]),
   midi.NoteOnEvent(tick=32, channel=1, data=[86, 100]),
   midi.NoteOnEvent(tick=48, channel=1, data=[88, 100]),
   midi.NoteOnEvent(tick=16, channel=1, data=[86, 0]),
   midi.NoteOnEvent(tick=116, channel=1, data=[88, 0]),
   midi.NoteOnEvent(tick=12, channel=1, data=[88, 100]),
   midi.NoteOnEvent(tick=64, channel=1, data=[88, 0]),
   midi.NoteOnEvent(tick=32, channel=1, data=[88, 100]),
   midi.NoteOnEvent(tick=64, channel=1, data=[88, 0]),
   midi.NoteOnEvent(tick=32, channel=1, data=[88, 100]),
   midi.NoteOnEvent(tick=64, channel=1, data=[88, 0]),
   midi.NoteOnEvent(tick=32, channel=1, data=[88, 100]),
   midi.NoteOnEvent(tick=64, channel=1, data=[88, 0]),
   midi.NoteOnEvent(tick=32, channel=1, data=[88, 100]),
   midi.NoteOnEvent(tick=64, channel=1, data=[88, 0]),
   midi.NoteOnEvent(tick=32, channel=1, data=[88, 100]),
   midi.NoteOnEvent(tick=64, channel=1, data=[88, 0]),
   midi.NoteOnEvent(tick=32, channel=1, data=[88, 100]),
   midi.NoteOnEvent(tick=64, channel=1, data=[88, 0]),
   midi.NoteOnEvent(tick=32, channel=1, data=[88, 100]),
   midi.NoteOnEvent(tick=64, channel=1, data=[88, 0]),
   midi.NoteOnEvent(tick=32, channel=1, data=[88, 100]),
   midi.NoteOnEvent(tick=64, channel=1, data=[88, 0]),
   midi.NoteOnEvent(tick=32, channel=1, data=[88, 100]),
   midi.NoteOnEvent(tick=64, channel=1, data=[88, 0]),
   midi.NoteOnEvent(tick=32, channel=1, data=[88, 100]),
   midi.NoteOnEvent(tick=64, channel=1, data=[88, 0]),
   midi.NoteOnEvent(tick=32, channel=1, data=[88, 100]),
   midi.NoteOnEvent(tick=64, channel=1, data=[88, 0]),
   midi.NoteOnEvent(tick=32, channel=1, data=[88, 100]),
   midi.NoteOnEvent(tick=64, channel=1, data=[88, 0]),
   midi.NoteOnEvent(tick=32, channel=1, data=[88, 100]),
   midi.NoteOnEvent(tick=64, channel=1, data=[88, 0]),
   midi.NoteOnEvent(tick=32, channel=1, data=[86, 100]),
   midi.NoteOnEvent(tick=48, channel=1, data=[88, 100]),
   midi.NoteOnEvent(tick=16, channel=1, data=[86, 0]),
   midi.NoteOnEvent(tick=116, channel=1, data=[88, 0]),
   midi.NoteOnEvent(tick=12, channel=1, data=[88, 100]),
   midi.NoteOnEvent(tick=64, channel=1, data=[88, 0]),
   midi.NoteOnEvent(tick=32, channel=1, data=[88, 100]),
   midi.NoteOnEvent(tick=64, channel=1, data=[88, 0]),
   midi.NoteOnEvent(tick=32, channel=1, data=[86, 100]),
   midi.NoteOnEvent(tick=48, channel=1, data=[88, 100]),
   midi.NoteOnEvent(tick=16, channel=1, data=[86, 0]),
   midi.NoteOnEvent(tick=240, channel=1, data=[88, 0]),
   midi.NoteOnEvent(tick=80, channel=1, data=[93, 100]),
   midi.NoteOnEvent(tick=64, channel=1, data=[93, 0]),
   midi.NoteOnEvent(tick=32, channel=1, data=[91, 100]),
   midi.NoteOnEvent(tick=64, channel=1, data=[91, 0]),
   midi.NoteOnEvent(tick=32, channel=1, data=[88, 100]),
   midi.NoteOnEvent(tick=132, channel=1, data=[88, 0]),
   midi.NoteOnEvent(tick=60, channel=1, data=[88, 100]),
   midi.NoteOnEvent(tick=64, channel=1, data=[88, 0]),
   midi.NoteOnEvent(tick=32, channel=1, data=[88, 100]),
   midi.NoteOnEvent(tick=64, channel=1, data=[88, 0]),
   midi.NoteOnEvent(tick=32, channel=1, data=[88, 100]),
   midi.NoteOnEvent(tick=64, channel=1, data=[88, 0]),
   midi.NoteOnEvent(tick=32, channel=1, data=[88, 100]),
   midi.NoteOnEvent(tick=64, channel=1, data=[88, 0]),
   midi.NoteOnEvent(tick=32, channel=1, data=[88, 100]),
   midi.NoteOnEvent(tick=200, channel=1, data=[88, 0]),
   midi.NoteOnEvent(tick=88, channel=1, data=[86, 100]),
   midi.NoteOnEvent(tick=64, channel=1, data=[86, 0]),
   midi.NoteOnEvent(tick=32, channel=1, data=[88, 100]),
   midi.NoteOnEvent(tick=64, channel=1, data=[88, 0]),
   midi.NoteOnEvent(tick=32, channel=1, data=[88, 100]),
   midi.NoteOnEvent(tick=64, channel=1, data=[88, 0]),
   midi.NoteOnEvent(tick=32, channel=1, data=[86, 100]),
   midi.NoteOnEvent(tick=64, channel=1, data=[86, 0]),
   midi.NoteOnEvent(tick=32, channel=1, data=[86, 100]),
   midi.NoteOnEvent(tick=244, channel=1, data=[86, 0]),
   midi.NoteOnEvent(tick=44, channel=1, data=[81, 100]),
   midi.NoteOnEvent(tick=44, channel=1, data=[83, 100]),
   midi.NoteOnEvent(tick=20, channel=1, data=[81, 0]),
   midi.NoteOnEvent(tick=112, channel=1, data=[83, 0]),
   midi.NoteOnEvent(tick=16, channel=1, data=[83, 100]),
   midi.NoteOnEvent(tick=64, channel=1, data=[83, 0]),
   midi.NoteOnEvent(tick=32, channel=1, data=[82, 100]),
   midi.NoteOnEvent(tick=64, channel=1, data=[82, 0]),
   midi.NoteOnEvent(tick=32, channel=1, data=[81, 100]),
   midi.NoteOnEvent(tick=64, channel=1, data=[81, 0]),
   midi.NoteOnEvent(tick=32, channel=1, data=[79, 100]),
   midi.NoteOnEvent(tick=64, channel=1, data=[79, 0]),
   midi.NoteOnEvent(tick=32, channel=1, data=[82, 100]),
   midi.NoteOnEvent(tick=64, channel=1, data=[82, 0]),
   midi.NoteOnEvent(tick=32, channel=1, data=[81, 100]),
   midi.NoteOnEvent(tick=64, channel=1, data=[81, 0]),
   midi.NoteOnEvent(tick=32, channel=1, data=[79, 100]),
   midi.NoteOnEvent(tick=64, channel=1, data=[79, 0]),
   midi.NoteOnEvent(tick=32, channel=1, data=[81, 100]),
   midi.NoteOnEvent(tick=64, channel=1, data=[81, 0]),
   midi.NoteOnEvent(tick=32, channel=1, data=[79, 100]),
   midi.NoteOnEvent(tick=64, channel=1, data=[79, 0]),
   midi.NoteOnEvent(tick=32, channel=1, data=[81, 100]),
   midi.NoteOnEvent(tick=64, channel=1, data=[81, 0]),
   midi.NoteOnEvent(tick=32, channel=1, data=[83, 100]),
   midi.NoteOnEvent(tick=132, channel=1, data=[83, 0]),
   midi.NoteOnEvent(tick=60, channel=1, data=[88, 100]),
   midi.NoteOnEvent(tick=64, channel=1, data=[88, 0]),
   midi.NoteOnEvent(tick=32, channel=1, data=[86, 100]),
   midi.NoteOnEvent(tick=64, channel=1, data=[86, 0]),
   midi.NoteOnEvent(tick=32, channel=1, data=[83, 100]),
   midi.NoteOnEvent(tick=64, channel=1, data=[83, 0]),
   midi.NoteOnEvent(tick=32, channel=1, data=[83, 100]),
   midi.NoteOnEvent(tick=64, channel=1, data=[83, 0]),
   midi.NoteOnEvent(tick=32, channel=1, data=[82, 100]),
   midi.NoteOnEvent(tick=268, channel=1, data=[82, 0]),
   midi.NoteOnEvent(tick=116, channel=1, data=[88, 100]),
   midi.NoteOnEvent(tick=64, channel=1, data=[88, 0]),
   midi.NoteOnEvent(tick=32, channel=1, data=[86, 100]),
   midi.NoteOnEvent(tick=64, channel=1, data=[86, 0]),
   midi.NoteOnEvent(tick=32, channel=1, data=[83, 100]),
   midi.NoteOnEvent(tick=64, channel=1, data=[83, 0]),
   midi.NoteOnEvent(tick=32, channel=1, data=[83, 100]),
   midi.NoteOnEvent(tick=64, channel=1, data=[83, 0]),
   midi.NoteOnEvent(tick=32, channel=1, data=[82, 100]),
   midi.NoteOnEvent(tick=268, channel=1, data=[82, 0]),
   midi.NoteOnEvent(tick=116, channel=1, data=[88, 100]),
   midi.NoteOnEvent(tick=64, channel=1, data=[88, 0]),
   midi.NoteOnEvent(tick=32, channel=1, data=[86, 100]),
   midi.NoteOnEvent(tick=64, channel=1, data=[86, 0]),
   midi.NoteOnEvent(tick=32, channel=1, data=[83, 100]),
   midi.NoteOnEvent(tick=64, channel=1, data=[83, 0]),
   midi.NoteOnEvent(tick=32, channel=1, data=[83, 100]),
   midi.NoteOnEvent(tick=64, channel=1, data=[83, 0]),
   midi.NoteOnEvent(tick=32, channel=1, data=[82, 100]),
   midi.NoteOnEvent(tick=268, channel=1, data=[82, 0]),
   midi.NoteOnEvent(tick=116, channel=1, data=[88, 100]),
   midi.NoteOnEvent(tick=64, channel=1, data=[88, 0]),
   midi.NoteOnEvent(tick=32, channel=1, data=[86, 100]),
   midi.NoteOnEvent(tick=64, channel=1, data=[86, 0]),
   midi.NoteOnEvent(tick=32, channel=1, data=[83, 100]),
   midi.NoteOnEvent(tick=64, channel=1, data=[83, 0]),
   midi.NoteOnEvent(tick=32, channel=1, data=[83, 100]),
   midi.NoteOnEvent(tick=64, channel=1, data=[83, 0]),
   midi.NoteOnEvent(tick=32, channel=1, data=[82, 100]),
   midi.NoteOnEvent(tick=268, channel=1, data=[82, 0]),
   midi.NoteOnEvent(tick=116, channel=1, data=[83, 100]),
   midi.NoteOnEvent(tick=64, channel=1, data=[83, 0]),
   midi.NoteOnEvent(tick=32, channel=1, data=[86, 100]),
   midi.NoteOnEvent(tick=64, channel=1, data=[86, 0]),
   midi.NoteOnEvent(tick=32, channel=1, data=[83, 100]),
   midi.NoteOnEvent(tick=64, channel=1, data=[83, 0]),
   midi.NoteOnEvent(tick=32, channel=1, data=[82, 100]),
   midi.NoteOnEvent(tick=64, channel=1, data=[82, 0]),
   midi.NoteOnEvent(tick=32, channel=1, data=[83, 100]),
   midi.NoteOnEvent(tick=64, channel=1, data=[83, 0]),
   midi.NoteOnEvent(tick=32, channel=1, data=[83, 100]),
   midi.NoteOnEvent(tick=64, channel=1, data=[83, 0]),
   midi.NoteOnEvent(tick=32, channel=1, data=[82, 100]),
   midi.NoteOnEvent(tick=64, channel=1, data=[82, 0]),
   midi.NoteOnEvent(tick=32, channel=1, data=[81, 100]),
   midi.NoteOnEvent(tick=64, channel=1, data=[81, 0]),
   midi.NoteOnEvent(tick=32, channel=1, data=[79, 100]),
   midi.NoteOnEvent(tick=64, channel=1, data=[79, 0]),
   midi.NoteOnEvent(tick=32, channel=1, data=[82, 100]),
   midi.NoteOnEvent(tick=64, channel=1, data=[82, 0]),
   midi.NoteOnEvent(tick=32, channel=1, data=[81, 100]),
   midi.NoteOnEvent(tick=64, channel=1, data=[81, 0]),
   midi.NoteOnEvent(tick=32, channel=1, data=[79, 100]),
   midi.NoteOnEvent(tick=64, channel=1, data=[79, 0]),
   midi.NoteOnEvent(tick=32, channel=1, data=[81, 100]),
   midi.NoteOnEvent(tick=64, channel=1, data=[81, 0]),
   midi.NoteOnEvent(tick=32, channel=1, data=[79, 100]),
   midi.NoteOnEvent(tick=64, channel=1, data=[79, 0]),
   midi.NoteOnEvent(tick=32, channel=1, data=[76, 100]),
   midi.NoteOnEvent(tick=64, channel=1, data=[76, 0]),
   midi.NoteOnEvent(tick=32, channel=1, data=[79, 100]),
   midi.NoteOnEvent(tick=64, channel=1, data=[79, 0]),
   midi.NoteOnEvent(tick=32, channel=1, data=[76, 100]),
   midi.NoteOnEvent(tick=64, channel=1, data=[76, 0]),
   midi.NoteOnEvent(tick=32, channel=1, data=[75, 100]),
   midi.NoteOnEvent(tick=64, channel=1, data=[75, 0]),
   midi.NoteOnEvent(tick=32, channel=1, data=[74, 100]),
   midi.NoteOnEvent(tick=132, channel=1, data=[74, 0]),
   midi.NoteOnEvent(tick=60, channel=1, data=[76, 100]),
   midi.NoteOnEvent(tick=64, channel=1, data=[76, 0]),
   midi.NoteOnEvent(tick=32, channel=1, data=[75, 100]),
   midi.NoteOnEvent(tick=64, channel=1, data=[75, 0]),
   midi.NoteOnEvent(tick=32, channel=1, data=[74, 100]),
   midi.NoteOnEvent(tick=268, channel=1, data=[74, 0]),
   midi.NoteOnEvent(tick=116, channel=1, data=[71, 100]),
   midi.NoteOnEvent(tick=64, channel=1, data=[71, 0]),
   midi.NoteOnEvent(tick=32, channel=1, data=[70, 100]),
   midi.NoteOnEvent(tick=64, channel=1, data=[70, 0]),
   midi.NoteOnEvent(tick=32, channel=1, data=[71, 100]),
   midi.NoteOnEvent(tick=64, channel=1, data=[71, 0]),
   midi.NoteOnEvent(tick=32, channel=1, data=[70, 100]),
   midi.NoteOnEvent(tick=64, channel=1, data=[70, 0]),
   midi.NoteOnEvent(tick=32, channel=1, data=[69, 100]),
   midi.NoteOnEvent(tick=132, channel=1, data=[69, 0]),
   midi.NoteOnEvent(tick=252, channel=1, data=[69, 100]),
   midi.NoteOnEvent(tick=64, channel=1, data=[69, 0]),
   midi.NoteOnEvent(tick=32, channel=1, data=[70, 100]),
   midi.NoteOnEvent(tick=64, channel=1, data=[70, 0]),
   midi.NoteOnEvent(tick=32, channel=1, data=[69, 100]),
   midi.NoteOnEvent(tick=268, channel=1, data=[69, 0]),
   midi.NoteOnEvent(tick=500, channel=1, data=[52, 100]),
   midi.NoteOnEvent(tick=132, channel=1, data=[52, 0]),
   midi.NoteOnEvent(tick=60, channel=1, data=[52, 100]),
   midi.NoteOnEvent(tick=132, channel=1, data=[52, 0]),
   midi.NoteOnEvent(tick=60, channel=1, data=[59, 100]),
   midi.NoteOnEvent(tick=132, channel=1, data=[59, 0]),
   midi.NoteOnEvent(tick=60, channel=1, data=[57, 100]),
   midi.NoteOnEvent(tick=132, channel=1, data=[57, 0]),
   midi.NoteOnEvent(tick=60, channel=1, data=[59, 100]),
   midi.NoteOnEvent(tick=132, channel=1, data=[59, 0]),
   midi.NoteOnEvent(tick=60, channel=1, data=[62, 100]),
   midi.NoteOnEvent(tick=400, channel=1, data=[62, 0]),
   midi.NoteOnEvent(tick=176, channel=1, data=[76, 100]),
   midi.NoteOnEvent(tick=132, channel=1, data=[76, 0]),
   midi.NoteOnEvent(tick=60, channel=1, data=[76, 100]),
   midi.NoteOnEvent(tick=132, channel=1, data=[76, 0]),
   midi.NoteOnEvent(tick=60, channel=1, data=[88, 100]),
   midi.NoteOnEvent(tick=64, channel=1, data=[88, 0]),
   midi.NoteOnEvent(tick=32, channel=1, data=[86, 100]),
   midi.NoteOnEvent(tick=64, channel=1, data=[86, 0]),
   midi.NoteOnEvent(tick=32, channel=1, data=[83, 100]),
   midi.NoteOnEvent(tick=64, channel=1, data=[83, 0]),
   midi.NoteOnEvent(tick=32, channel=1, data=[83, 100]),
   midi.NoteOnEvent(tick=64, channel=1, data=[83, 0]),
   midi.NoteOnEvent(tick=32, channel=1, data=[82, 100]),
   midi.NoteOnEvent(tick=268, channel=1, data=[82, 0]),
   midi.NoteOnEvent(tick=116, channel=1, data=[88, 100]),
   midi.NoteOnEvent(tick=64, channel=1, data=[88, 0]),
   midi.NoteOnEvent(tick=32, channel=1, data=[86, 100]),
   midi.NoteOnEvent(tick=64, channel=1, data=[86, 0]),
   midi.NoteOnEvent(tick=32, channel=1, data=[83, 100]),
   midi.NoteOnEvent(tick=64, channel=1, data=[83, 0]),
   midi.NoteOnEvent(tick=32, channel=1, data=[83, 100]),
   midi.NoteOnEvent(tick=64, channel=1, data=[83, 0]),
   midi.NoteOnEvent(tick=32, channel=1, data=[82, 100]),
   midi.NoteOnEvent(tick=268, channel=1, data=[82, 0]),
   midi.NoteOnEvent(tick=116, channel=1, data=[88, 100]),
   midi.NoteOnEvent(tick=64, channel=1, data=[88, 0]),
   midi.NoteOnEvent(tick=32, channel=1, data=[86, 100]),
   midi.NoteOnEvent(tick=64, channel=1, data=[86, 0]),
   midi.NoteOnEvent(tick=32, channel=1, data=[83, 100]),
   midi.NoteOnEvent(tick=64, channel=1, data=[83, 0]),
   midi.NoteOnEvent(tick=32, channel=1, data=[83, 100]),
   midi.NoteOnEvent(tick=64, channel=1, data=[83, 0]),
   midi.NoteOnEvent(tick=32, channel=1, data=[82, 100]),
   midi.NoteOnEvent(tick=268, channel=1, data=[82, 0]),
   midi.NoteOnEvent(tick=116, channel=1, data=[88, 100]),
   midi.NoteOnEvent(tick=64, channel=1, data=[88, 0]),
   midi.NoteOnEvent(tick=32, channel=1, data=[86, 100]),
   midi.NoteOnEvent(tick=64, channel=1, data=[86, 0]),
   midi.NoteOnEvent(tick=32, channel=1, data=[83, 100]),
   midi.NoteOnEvent(tick=64, channel=1, data=[83, 0]),
   midi.NoteOnEvent(tick=32, channel=1, data=[83, 100]),
   midi.NoteOnEvent(tick=64, channel=1, data=[83, 0]),
   midi.NoteOnEvent(tick=32, channel=1, data=[88, 100]),
   midi.NoteOnEvent(tick=268, channel=1, data=[88, 0]),
   midi.NoteOnEvent(tick=116, channel=1, data=[100, 100]),
   midi.NoteOnEvent(tick=64, channel=1, data=[100, 0]),
   midi.NoteOnEvent(tick=32, channel=1, data=[98, 100]),
   midi.NoteOnEvent(tick=64, channel=1, data=[98, 0]),
   midi.NoteOnEvent(tick=32, channel=1, data=[95, 100]),
   midi.NoteOnEvent(tick=64, channel=1, data=[95, 0]),
   midi.NoteOnEvent(tick=32, channel=1, data=[95, 100]),
   midi.NoteOnEvent(tick=64, channel=1, data=[95, 0]),
   midi.NoteOnEvent(tick=32, channel=1, data=[94, 100]),
   midi.NoteOnEvent(tick=268, channel=1, data=[94, 0]),
   midi.NoteOnEvent(tick=116, channel=1, data=[100, 100]),
   midi.NoteOnEvent(tick=64, channel=1, data=[100, 0]),
   midi.NoteOnEvent(tick=32, channel=1, data=[98, 100]),
   midi.NoteOnEvent(tick=64, channel=1, data=[98, 0]),
   midi.NoteOnEvent(tick=32, channel=1, data=[95, 100]),
   midi.NoteOnEvent(tick=64, channel=1, data=[95, 0]),
   midi.NoteOnEvent(tick=32, channel=1, data=[95, 100]),
   midi.NoteOnEvent(tick=64, channel=1, data=[95, 0]),
   midi.NoteOnEvent(tick=32, channel=1, data=[94, 100]),
   midi.NoteOnEvent(tick=268, channel=1, data=[94, 0]),
   midi.NoteOnEvent(tick=116, channel=1, data=[100, 100]),
   midi.NoteOnEvent(tick=64, channel=1, data=[100, 0]),
   midi.NoteOnEvent(tick=32, channel=1, data=[98, 100]),
   midi.NoteOnEvent(tick=64, channel=1, data=[98, 0]),
   midi.NoteOnEvent(tick=32, channel=1, data=[95, 100]),
   midi.NoteOnEvent(tick=64, channel=1, data=[95, 0]),
   midi.NoteOnEvent(tick=32, channel=1, data=[95, 100]),
   midi.NoteOnEvent(tick=64, channel=1, data=[95, 0]),
   midi.NoteOnEvent(tick=32, channel=1, data=[94, 100]),
   midi.NoteOnEvent(tick=268, channel=1, data=[94, 0]),
   midi.NoteOnEvent(tick=116, channel=1, data=[100, 100]),
   midi.NoteOnEvent(tick=64, channel=1, data=[100, 0]),
   midi.NoteOnEvent(tick=32, channel=1, data=[98, 100]),
   midi.NoteOnEvent(tick=64, channel=1, data=[98, 0]),
   midi.NoteOnEvent(tick=32, channel=1, data=[95, 100]),
   midi.NoteOnEvent(tick=64, channel=1, data=[95, 0]),
   midi.NoteOnEvent(tick=32, channel=1, data=[95, 100]),
   midi.NoteOnEvent(tick=64, channel=1, data=[95, 0]),
   midi.NoteOnEvent(tick=32, channel=1, data=[94, 100]),
   midi.NoteOnEvent(tick=132, channel=1, data=[94, 0]),
   midi.NoteOnEvent(tick=60, channel=1, data=[91, 100]),
   midi.NoteOnEvent(tick=132, channel=1, data=[91, 0]),
   midi.NoteOnEvent(tick=60, channel=1, data=[88, 100]),
   midi.NoteOnEvent(tick=536, channel=1, data=[88, 0]),
   midi.EndOfTrackEvent(tick=0, data=[])]),
 midi.Track(\
  [midi.PortEvent(tick=0, data=[0]),
   midi.TrackNameEvent(tick=0, text='Guitar 2', data=[71, 117, 105, 116, 97, 114, 32, 50]),
   midi.ProgramChangeEvent(tick=0, channel=2, data=[29]),
   midi.ControlChangeEvent(tick=0, channel=2, data=[7, 100]),
   midi.ControlChangeEvent(tick=0, channel=2, data=[0, 0]),
   midi.ControlChangeEvent(tick=0, channel=2, data=[32, 0]),
   midi.ControlChangeEvent(tick=0, channel=2, data=[0, 0]),
   midi.ControlChangeEvent(tick=0, channel=2, data=[91, 105]),
   midi.ControlChangeEvent(tick=0, channel=2, data=[93, 84]),
   midi.ControlChangeEvent(tick=0, channel=2, data=[24, 0]),
   midi.NoteOnEvent(tick=0, channel=2, data=[64, 100]),
   midi.ControlChangeEvent(tick=16, channel=2, data=[91, 127]),
   midi.ControlChangeEvent(tick=16, channel=2, data=[91, 125]),
   midi.ControlChangeEvent(tick=0, channel=2, data=[93, 126]),
   midi.ControlChangeEvent(tick=16, channel=2, data=[91, 127]),
   midi.ControlChangeEvent(tick=0, channel=2, data=[93, 127]),
   midi.NoteOnEvent(tick=16, channel=2, data=[64, 0]),
   midi.ControlChangeEvent(tick=0, channel=2, data=[91, 127]),
   midi.ControlChangeEvent(tick=0, channel=2, data=[93, 125]),
   midi.ControlChangeEvent(tick=16, channel=2, data=[91, 127]),
   midi.ControlChangeEvent(tick=16, channel=2, data=[91, 127]),
   midi.NoteOnEvent(tick=0, channel=2, data=[62, 100]),
   midi.ControlChangeEvent(tick=16, channel=2, data=[91, 127]),
   midi.ControlChangeEvent(tick=32, channel=2, data=[91, 127]),
   midi.NoteOnEvent(tick=16, channel=2, data=[62, 0]),
   midi.NoteOnEvent(tick=32, channel=2, data=[59, 100]),
   midi.NoteOnEvent(tick=64, channel=2, data=[59, 0]),
   midi.NoteOnEvent(tick=32, channel=2, data=[59, 100]),
   midi.NoteOnEvent(tick=64, channel=2, data=[59, 0]),
   midi.NoteOnEvent(tick=32, channel=2, data=[58, 100]),
   midi.NoteOnEvent(tick=0, channel=2, data=[65, 100]),
   midi.NoteOnEvent(tick=256, channel=2, data=[65, 0]),
   midi.NoteOnEvent(tick=0, channel=2, data=[58, 0]),
   midi.NoteOnEvent(tick=128, channel=2, data=[64, 100]),
   midi.NoteOnEvent(tick=64, channel=2, data=[64, 0]),
   midi.NoteOnEvent(tick=32, channel=2, data=[62, 100]),
   midi.NoteOnEvent(tick=64, channel=2, data=[62, 0]),
   midi.NoteOnEvent(tick=32, channel=2, data=[59, 100]),
   midi.NoteOnEvent(tick=64, channel=2, data=[59, 0]),
   midi.NoteOnEvent(tick=32, channel=2, data=[59, 100]),
   midi.NoteOnEvent(tick=64, channel=2, data=[59, 0]),
   midi.NoteOnEvent(tick=32, channel=2, data=[58, 100]),
   midi.NoteOnEvent(tick=0, channel=2, data=[65, 100]),
   midi.NoteOnEvent(tick=256, channel=2, data=[65, 0]),
   midi.NoteOnEvent(tick=0, channel=2, data=[58, 0]),
   midi.NoteOnEvent(tick=128, channel=2, data=[64, 100]),
   midi.NoteOnEvent(tick=64, channel=2, data=[64, 0]),
   midi.NoteOnEvent(tick=32, channel=2, data=[62, 100]),
   midi.NoteOnEvent(tick=64, channel=2, data=[62, 0]),
   midi.NoteOnEvent(tick=32, channel=2, data=[59, 100]),
   midi.NoteOnEvent(tick=64, channel=2, data=[59, 0]),
   midi.NoteOnEvent(tick=32, channel=2, data=[59, 100]),
   midi.NoteOnEvent(tick=64, channel=2, data=[59, 0]),
   midi.NoteOnEvent(tick=32, channel=2, data=[58, 100]),
   midi.NoteOnEvent(tick=0, channel=2, data=[65, 100]),
   midi.NoteOnEvent(tick=256, channel=2, data=[65, 0]),
   midi.NoteOnEvent(tick=0, channel=2, data=[58, 0]),
   midi.NoteOnEvent(tick=128, channel=2, data=[64, 100]),
   midi.NoteOnEvent(tick=64, channel=2, data=[64, 0]),
   midi.NoteOnEvent(tick=32, channel=2, data=[62, 100]),
   midi.NoteOnEvent(tick=64, channel=2, data=[62, 0]),
   midi.NoteOnEvent(tick=32, channel=2, data=[59, 100]),
   midi.NoteOnEvent(tick=64, channel=2, data=[59, 0]),
   midi.NoteOnEvent(tick=32, channel=2, data=[59, 100]),
   midi.NoteOnEvent(tick=64, channel=2, data=[59, 0]),
   midi.NoteOnEvent(tick=32, channel=2, data=[62, 100]),
   midi.NoteOnEvent(tick=0, channel=2, data=[55, 100]),
   midi.NoteOnEvent(tick=256, channel=2, data=[55, 0]),
   midi.NoteOnEvent(tick=0, channel=2, data=[62, 0]),
   midi.NoteOnEvent(tick=128, channel=2, data=[64, 100]),
   midi.NoteOnEvent(tick=64, channel=2, data=[64, 0]),
   midi.NoteOnEvent(tick=32, channel=2, data=[62, 100]),
   midi.NoteOnEvent(tick=64, channel=2, data=[62, 0]),
   midi.NoteOnEvent(tick=32, channel=2, data=[59, 100]),
   midi.NoteOnEvent(tick=64, channel=2, data=[59, 0]),
   midi.NoteOnEvent(tick=32, channel=2, data=[59, 100]),
   midi.NoteOnEvent(tick=64, channel=2, data=[59, 0]),
   midi.NoteOnEvent(tick=32, channel=2, data=[58, 100]),
   midi.NoteOnEvent(tick=0, channel=2, data=[65, 100]),
   midi.NoteOnEvent(tick=256, channel=2, data=[65, 0]),
   midi.NoteOnEvent(tick=0, channel=2, data=[58, 0]),
   midi.NoteOnEvent(tick=128, channel=2, data=[64, 100]),
   midi.NoteOnEvent(tick=64, channel=2, data=[64, 0]),
   midi.NoteOnEvent(tick=32, channel=2, data=[62, 100]),
   midi.NoteOnEvent(tick=64, channel=2, data=[62, 0]),
   midi.NoteOnEvent(tick=32, channel=2, data=[59, 100]),
   midi.NoteOnEvent(tick=64, channel=2, data=[59, 0]),
   midi.NoteOnEvent(tick=32, channel=2, data=[59, 100]),
   midi.NoteOnEvent(tick=64, channel=2, data=[59, 0]),
   midi.NoteOnEvent(tick=32, channel=2, data=[58, 100]),
   midi.NoteOnEvent(tick=0, channel=2, data=[65, 100]),
   midi.NoteOnEvent(tick=256, channel=2, data=[65, 0]),
   midi.NoteOnEvent(tick=0, channel=2, data=[58, 0]),
   midi.NoteOnEvent(tick=128, channel=2, data=[64, 100]),
   midi.NoteOnEvent(tick=64, channel=2, data=[64, 0]),
   midi.NoteOnEvent(tick=32, channel=2, data=[62, 100]),
   midi.NoteOnEvent(tick=64, channel=2, data=[62, 0]),
   midi.NoteOnEvent(tick=32, channel=2, data=[59, 100]),
   midi.NoteOnEvent(tick=64, channel=2, data=[59, 0]),
   midi.NoteOnEvent(tick=32, channel=2, data=[59, 100]),
   midi.NoteOnEvent(tick=64, channel=2, data=[59, 0]),
   midi.NoteOnEvent(tick=32, channel=2, data=[58, 100]),
   midi.NoteOnEvent(tick=0, channel=2, data=[65, 100]),
   midi.NoteOnEvent(tick=256, channel=2, data=[65, 0]),
   midi.NoteOnEvent(tick=0, channel=2, data=[58, 0]),
   midi.NoteOnEvent(tick=128, channel=2, data=[64, 100]),
   midi.NoteOnEvent(tick=64, channel=2, data=[64, 0]),
   midi.NoteOnEvent(tick=32, channel=2, data=[62, 100]),
   midi.NoteOnEvent(tick=64, channel=2, data=[62, 0]),
   midi.NoteOnEvent(tick=32, channel=2, data=[59, 100]),
   midi.NoteOnEvent(tick=64, channel=2, data=[59, 0]),
   midi.NoteOnEvent(tick=32, channel=2, data=[59, 100]),
   midi.NoteOnEvent(tick=64, channel=2, data=[59, 0]),
   midi.NoteOnEvent(tick=32, channel=2, data=[62, 100]),
   midi.NoteOnEvent(tick=0, channel=2, data=[55, 100]),
   midi.NoteOnEvent(tick=256, channel=2, data=[55, 0]),
   midi.NoteOnEvent(tick=0, channel=2, data=[62, 0]),
   midi.NoteOnEvent(tick=128, channel=2, data=[52, 100]),
   midi.NoteOnEvent(tick=0, channel=2, data=[59, 100]),
   midi.NoteOnEvent(tick=23808, channel=2, data=[59, 0]),
   midi.NoteOnEvent(tick=0, channel=2, data=[52, 0]),
   midi.PitchWheelEvent(tick=368, channel=2, data=[0, 71]),
   midi.NoteOnEvent(tick=16, channel=2, data=[69, 100]),
   midi.PitchWheelEvent(tick=32, channel=2, data=[0, 73]),
   midi.PitchWheelEvent(tick=16, channel=2, data=[0, 75]),
   midi.PitchWheelEvent(tick=16, channel=2, data=[0, 77]),
   midi.PitchWheelEvent(tick=32, channel=2, data=[0, 78]),
   midi.PitchWheelEvent(tick=28, channel=2, data=[0, 81]),
   midi.PitchWheelEvent(tick=4, channel=2, data=[0, 82]),
   midi.PitchWheelEvent(tick=16, channel=2, data=[0, 85]),
   midi.PitchWheelEvent(tick=16, channel=2, data=[0, 86]),
   midi.PitchWheelEvent(tick=32, channel=2, data=[0, 88]),
   midi.PitchWheelEvent(tick=16, channel=2, data=[0, 89]),
   midi.PitchWheelEvent(tick=16, channel=2, data=[0, 95]),
   midi.PitchWheelEvent(tick=16, channel=2, data=[0, 111]),
   midi.NoteOnEvent(tick=16, channel=2, data=[69, 0]),
   midi.PitchWheelEvent(tick=80, channel=2, data=[0, 113]),
   midi.NoteOnEvent(tick=48, channel=2, data=[76, 100]),
   midi.NoteOnEvent(tick=384, channel=2, data=[76, 0]),
   midi.NoteOnEvent(tick=192, channel=2, data=[75, 100]),
   midi.NoteOnEvent(tick=384, channel=2, data=[75, 0]),
   midi.NoteOnEvent(tick=192, channel=2, data=[71, 100]),
   midi.NoteOnEvent(tick=256, channel=2, data=[71, 0]),
   midi.NoteOnEvent(tick=128, channel=2, data=[67, 100]),
   midi.NoteOnEvent(tick=384, channel=2, data=[67, 0]),
   midi.NoteOnEvent(tick=192, channel=2, data=[66, 100]),
   midi.NoteOnEvent(tick=384, channel=2, data=[66, 0]),
   midi.NoteOnEvent(tick=192, channel=2, data=[63, 100]),
   midi.NoteOnEvent(tick=256, channel=2, data=[63, 0]),
   midi.NoteOnEvent(tick=128, channel=2, data=[76, 100]),
   midi.NoteOnEvent(tick=384, channel=2, data=[76, 0]),
   midi.NoteOnEvent(tick=192, channel=2, data=[75, 100]),
   midi.NoteOnEvent(tick=384, channel=2, data=[75, 0]),
   midi.NoteOnEvent(tick=192, channel=2, data=[71, 100]),
   midi.NoteOnEvent(tick=256, channel=2, data=[71, 0]),
   midi.NoteOnEvent(tick=128, channel=2, data=[67, 100]),
   midi.NoteOnEvent(tick=384, channel=2, data=[67, 0]),
   midi.NoteOnEvent(tick=192, channel=2, data=[66, 100]),
   midi.NoteOnEvent(tick=384, channel=2, data=[66, 0]),
   midi.NoteOnEvent(tick=192, channel=2, data=[79, 100]),
   midi.NoteOnEvent(tick=256, channel=2, data=[79, 0]),
   midi.NoteOnEvent(tick=128, channel=2, data=[76, 100]),
   midi.NoteOnEvent(tick=384, channel=2, data=[76, 0]),
   midi.NoteOnEvent(tick=192, channel=2, data=[75, 100]),
   midi.NoteOnEvent(tick=384, channel=2, data=[75, 0]),
   midi.NoteOnEvent(tick=192, channel=2, data=[71, 100]),
   midi.NoteOnEvent(tick=256, channel=2, data=[71, 0]),
   midi.NoteOnEvent(tick=128, channel=2, data=[67, 100]),
   midi.NoteOnEvent(tick=384, channel=2, data=[67, 0]),
   midi.NoteOnEvent(tick=192, channel=2, data=[66, 100]),
   midi.NoteOnEvent(tick=384, channel=2, data=[66, 0]),
   midi.NoteOnEvent(tick=192, channel=2, data=[63, 100]),
   midi.NoteOnEvent(tick=256, channel=2, data=[63, 0]),
   midi.NoteOnEvent(tick=128, channel=2, data=[76, 100]),
   midi.NoteOnEvent(tick=384, channel=2, data=[76, 0]),
   midi.NoteOnEvent(tick=192, channel=2, data=[75, 100]),
   midi.NoteOnEvent(tick=384, channel=2, data=[75, 0]),
   midi.NoteOnEvent(tick=192, channel=2, data=[71, 100]),
   midi.NoteOnEvent(tick=256, channel=2, data=[71, 0]),
   midi.NoteOnEvent(tick=128, channel=2, data=[67, 100]),
   midi.NoteOnEvent(tick=384, channel=2, data=[67, 0]),
   midi.NoteOnEvent(tick=192, channel=2, data=[66, 100]),
   midi.NoteOnEvent(tick=384, channel=2, data=[66, 0]),
   midi.NoteOnEvent(tick=192, channel=2, data=[75, 100]),
   midi.NoteOnEvent(tick=256, channel=2, data=[75, 0]),
   midi.NoteOnEvent(tick=128, channel=2, data=[52, 100]),
   midi.NoteOnEvent(tick=128, channel=2, data=[52, 0]),
   midi.NoteOnEvent(tick=64, channel=2, data=[64, 100]),
   midi.NoteOnEvent(tick=128, channel=2, data=[64, 0]),
   midi.NoteOnEvent(tick=64, channel=2, data=[67, 100]),
   midi.NoteOnEvent(tick=128, channel=2, data=[67, 0]),
   midi.NoteOnEvent(tick=64, channel=2, data=[52, 100]),
   midi.NoteOnEvent(tick=128, channel=2, data=[52, 0]),
   midi.NoteOnEvent(tick=64, channel=2, data=[64, 100]),
   midi.NoteOnEvent(tick=128, channel=2, data=[64, 0]),
   midi.NoteOnEvent(tick=64, channel=2, data=[70, 100]),
   midi.NoteOnEvent(tick=128, channel=2, data=[70, 0]),
   midi.NoteOnEvent(tick=64, channel=2, data=[67, 100]),
   midi.NoteOnEvent(tick=128, channel=2, data=[67, 0]),
   midi.NoteOnEvent(tick=64, channel=2, data=[70, 100]),
   midi.NoteOnEvent(tick=128, channel=2, data=[70, 0]),
   midi.NoteOnEvent(tick=64, channel=2, data=[52, 100]),
   midi.NoteOnEvent(tick=128, channel=2, data=[52, 0]),
   midi.NoteOnEvent(tick=64, channel=2, data=[67, 100]),
   midi.NoteOnEvent(tick=128, channel=2, data=[67, 0]),
   midi.NoteOnEvent(tick=64, channel=2, data=[71, 100]),
   midi.NoteOnEvent(tick=128, channel=2, data=[71, 0]),
   midi.NoteOnEvent(tick=64, channel=2, data=[52, 100]),
   midi.NoteOnEvent(tick=128, channel=2, data=[52, 0]),
   midi.NoteOnEvent(tick=64, channel=2, data=[69, 100]),
   midi.NoteOnEvent(tick=128, channel=2, data=[69, 0]),
   midi.NoteOnEvent(tick=64, channel=2, data=[72, 100]),
   midi.NoteOnEvent(tick=128, channel=2, data=[72, 0]),
   midi.NoteOnEvent(tick=64, channel=2, data=[78, 100]),
   midi.NoteOnEvent(tick=128, channel=2, data=[78, 0]),
   midi.NoteOnEvent(tick=64, channel=2, data=[72, 100]),
   midi.NoteOnEvent(tick=128, channel=2, data=[72, 0]),
   midi.NoteOnEvent(tick=64, channel=2, data=[52, 100]),
   midi.NoteOnEvent(tick=128, channel=2, data=[52, 0]),
   midi.NoteOnEvent(tick=64, channel=2, data=[64, 100]),
   midi.NoteOnEvent(tick=128, channel=2, data=[64, 0]),
   midi.NoteOnEvent(tick=64, channel=2, data=[67, 100]),
   midi.NoteOnEvent(tick=128, channel=2, data=[67, 0]),
   midi.NoteOnEvent(tick=64, channel=2, data=[52, 100]),
   midi.NoteOnEvent(tick=128, channel=2, data=[52, 0]),
   midi.NoteOnEvent(tick=64, channel=2, data=[64, 100]),
   midi.NoteOnEvent(tick=128, channel=2, data=[64, 0]),
   midi.NoteOnEvent(tick=64, channel=2, data=[70, 100]),
   midi.NoteOnEvent(tick=128, channel=2, data=[70, 0]),
   midi.NoteOnEvent(tick=64, channel=2, data=[67, 100]),
   midi.NoteOnEvent(tick=128, channel=2, data=[67, 0]),
   midi.NoteOnEvent(tick=64, channel=2, data=[70, 100]),
   midi.NoteOnEvent(tick=128, channel=2, data=[70, 0]),
   midi.NoteOnEvent(tick=64, channel=2, data=[52, 100]),
   midi.NoteOnEvent(tick=128, channel=2, data=[52, 0]),
   midi.NoteOnEvent(tick=64, channel=2, data=[67, 100]),
   midi.NoteOnEvent(tick=128, channel=2, data=[67, 0]),
   midi.NoteOnEvent(tick=64, channel=2, data=[71, 100]),
   midi.NoteOnEvent(tick=128, channel=2, data=[71, 0]),
   midi.NoteOnEvent(tick=64, channel=2, data=[52, 100]),
   midi.NoteOnEvent(tick=128, channel=2, data=[52, 0]),
   midi.NoteOnEvent(tick=64, channel=2, data=[69, 100]),
   midi.NoteOnEvent(tick=128, channel=2, data=[69, 0]),
   midi.NoteOnEvent(tick=64, channel=2, data=[72, 100]),
   midi.NoteOnEvent(tick=128, channel=2, data=[72, 0]),
   midi.NoteOnEvent(tick=64, channel=2, data=[78, 100]),
   midi.NoteOnEvent(tick=256, channel=2, data=[78, 0]),
   midi.NoteOnEvent(tick=128, channel=2, data=[52, 100]),
   midi.NoteOnEvent(tick=128, channel=2, data=[52, 0]),
   midi.NoteOnEvent(tick=64, channel=2, data=[64, 100]),
   midi.NoteOnEvent(tick=128, channel=2, data=[64, 0]),
   midi.NoteOnEvent(tick=64, channel=2, data=[67, 100]),
   midi.NoteOnEvent(tick=128, channel=2, data=[67, 0]),
   midi.NoteOnEvent(tick=64, channel=2, data=[52, 100]),
   midi.NoteOnEvent(tick=128, channel=2, data=[52, 0]),
   midi.NoteOnEvent(tick=64, channel=2, data=[64, 100]),
   midi.NoteOnEvent(tick=128, channel=2, data=[64, 0]),
   midi.NoteOnEvent(tick=64, channel=2, data=[70, 100]),
   midi.NoteOnEvent(tick=128, channel=2, data=[70, 0]),
   midi.NoteOnEvent(tick=64, channel=2, data=[67, 100]),
   midi.NoteOnEvent(tick=128, channel=2, data=[67, 0]),
   midi.NoteOnEvent(tick=64, channel=2, data=[70, 100]),
   midi.NoteOnEvent(tick=128, channel=2, data=[70, 0]),
   midi.NoteOnEvent(tick=64, channel=2, data=[52, 100]),
   midi.NoteOnEvent(tick=128, channel=2, data=[52, 0]),
   midi.NoteOnEvent(tick=64, channel=2, data=[67, 100]),
   midi.NoteOnEvent(tick=128, channel=2, data=[67, 0]),
   midi.NoteOnEvent(tick=64, channel=2, data=[71, 100]),
   midi.NoteOnEvent(tick=128, channel=2, data=[71, 0]),
   midi.NoteOnEvent(tick=64, channel=2, data=[52, 100]),
   midi.NoteOnEvent(tick=128, channel=2, data=[52, 0]),
   midi.NoteOnEvent(tick=64, channel=2, data=[69, 100]),
   midi.NoteOnEvent(tick=128, channel=2, data=[69, 0]),
   midi.NoteOnEvent(tick=64, channel=2, data=[72, 100]),
   midi.NoteOnEvent(tick=128, channel=2, data=[72, 0]),
   midi.NoteOnEvent(tick=64, channel=2, data=[78, 100]),
   midi.NoteOnEvent(tick=128, channel=2, data=[78, 0]),
   midi.NoteOnEvent(tick=64, channel=2, data=[72, 100]),
   midi.NoteOnEvent(tick=128, channel=2, data=[72, 0]),
   midi.NoteOnEvent(tick=64, channel=2, data=[59, 100]),
   midi.NoteOnEvent(tick=128, channel=2, data=[59, 0]),
   midi.NoteOnEvent(tick=64, channel=2, data=[62, 100]),
   midi.NoteOnEvent(tick=128, channel=2, data=[62, 0]),
   midi.NoteOnEvent(tick=64, channel=2, data=[67, 100]),
   midi.NoteOnEvent(tick=128, channel=2, data=[67, 0]),
   midi.NoteOnEvent(tick=64, channel=2, data=[58, 100]),
   midi.NoteOnEvent(tick=128, channel=2, data=[58, 0]),
   midi.NoteOnEvent(tick=64, channel=2, data=[62, 100]),
   midi.NoteOnEvent(tick=128, channel=2, data=[62, 0]),
   midi.NoteOnEvent(tick=64, channel=2, data=[67, 100]),
   midi.NoteOnEvent(tick=128, channel=2, data=[67, 0]),
   midi.NoteOnEvent(tick=64, channel=2, data=[55, 100]),
   midi.NoteOnEvent(tick=128, channel=2, data=[55, 0]),
   midi.NoteOnEvent(tick=64, channel=2, data=[54, 100]),
   midi.NoteOnEvent(tick=128, channel=2, data=[54, 0]),
   midi.NoteOnEvent(tick=64, channel=2, data=[59, 100]),
   midi.NoteOnEvent(tick=0, channel=2, data=[64, 100]),
   midi.NoteOnEvent(tick=128, channel=2, data=[64, 0]),
   midi.NoteOnEvent(tick=0, channel=2, data=[59, 0]),
   midi.NoteOnEvent(tick=64, channel=2, data=[58, 100]),
   midi.NoteOnEvent(tick=0, channel=2, data=[63, 100]),
   midi.NoteOnEvent(tick=128, channel=2, data=[63, 0]),
   midi.NoteOnEvent(tick=0, channel=2, data=[58, 0]),
   midi.NoteOnEvent(tick=64, channel=2, data=[59, 100]),
   midi.NoteOnEvent(tick=0, channel=2, data=[64, 100]),
   midi.NoteOnEvent(tick=128, channel=2, data=[64, 0]),
   midi.NoteOnEvent(tick=0, channel=2, data=[59, 0]),
   midi.NoteOnEvent(tick=64, channel=2, data=[61, 100]),
   midi.NoteOnEvent(tick=0, channel=2, data=[66, 100]),
   midi.NoteOnEvent(tick=128, channel=2, data=[66, 0]),
   midi.NoteOnEvent(tick=0, channel=2, data=[61, 0]),
   midi.NoteOnEvent(tick=64, channel=2, data=[62, 100]),
   midi.NoteOnEvent(tick=0, channel=2, data=[67, 100]),
   midi.NoteOnEvent(tick=128, channel=2, data=[67, 0]),
   midi.NoteOnEvent(tick=0, channel=2, data=[62, 0]),
   midi.NoteOnEvent(tick=64, channel=2, data=[61, 100]),
   midi.NoteOnEvent(tick=0, channel=2, data=[66, 100]),
   midi.NoteOnEvent(tick=128, channel=2, data=[66, 0]),
   midi.NoteOnEvent(tick=0, channel=2, data=[61, 0]),
   midi.NoteOnEvent(tick=64, channel=2, data=[62, 100]),
   midi.NoteOnEvent(tick=0, channel=2, data=[67, 100]),
   midi.NoteOnEvent(tick=128, channel=2, data=[67, 0]),
   midi.NoteOnEvent(tick=0, channel=2, data=[62, 0]),
   midi.NoteOnEvent(tick=64, channel=2, data=[69, 100]),
   midi.NoteOnEvent(tick=0, channel=2, data=[64, 100]),
   midi.NoteOnEvent(tick=128, channel=2, data=[64, 0]),
   midi.NoteOnEvent(tick=0, channel=2, data=[69, 0]),
   midi.NoteOnEvent(tick=64, channel=2, data=[59, 100]),
   midi.NoteOnEvent(tick=128, channel=2, data=[59, 0]),
   midi.NoteOnEvent(tick=64, channel=2, data=[62, 100]),
   midi.NoteOnEvent(tick=128, channel=2, data=[62, 0]),
   midi.NoteOnEvent(tick=64, channel=2, data=[67, 100]),
   midi.NoteOnEvent(tick=128, channel=2, data=[67, 0]),
   midi.NoteOnEvent(tick=64, channel=2, data=[58, 100]),
   midi.NoteOnEvent(tick=128, channel=2, data=[58, 0]),
   midi.NoteOnEvent(tick=64, channel=2, data=[62, 100]),
   midi.NoteOnEvent(tick=128, channel=2, data=[62, 0]),
   midi.NoteOnEvent(tick=64, channel=2, data=[67, 100]),
   midi.NoteOnEvent(tick=128, channel=2, data=[67, 0]),
   midi.NoteOnEvent(tick=64, channel=2, data=[55, 100]),
   midi.NoteOnEvent(tick=128, channel=2, data=[55, 0]),
   midi.NoteOnEvent(tick=64, channel=2, data=[54, 100]),
   midi.NoteOnEvent(tick=128, channel=2, data=[54, 0]),
   midi.NoteOnEvent(tick=64, channel=2, data=[59, 100]),
   midi.NoteOnEvent(tick=0, channel=2, data=[64, 100]),
   midi.NoteOnEvent(tick=128, channel=2, data=[64, 0]),
   midi.NoteOnEvent(tick=0, channel=2, data=[59, 0]),
   midi.NoteOnEvent(tick=64, channel=2, data=[58, 100]),
   midi.NoteOnEvent(tick=0, channel=2, data=[63, 100]),
   midi.NoteOnEvent(tick=128, channel=2, data=[63, 0]),
   midi.NoteOnEvent(tick=0, channel=2, data=[58, 0]),
   midi.NoteOnEvent(tick=64, channel=2, data=[59, 100]),
   midi.NoteOnEvent(tick=0, channel=2, data=[64, 100]),
   midi.NoteOnEvent(tick=128, channel=2, data=[64, 0]),
   midi.NoteOnEvent(tick=0, channel=2, data=[59, 0]),
   midi.NoteOnEvent(tick=64, channel=2, data=[61, 100]),
   midi.NoteOnEvent(tick=0, channel=2, data=[66, 100]),
   midi.NoteOnEvent(tick=128, channel=2, data=[66, 0]),
   midi.NoteOnEvent(tick=0, channel=2, data=[61, 0]),
   midi.NoteOnEvent(tick=64, channel=2, data=[62, 100]),
   midi.NoteOnEvent(tick=0, channel=2, data=[67, 100]),
   midi.NoteOnEvent(tick=128, channel=2, data=[67, 0]),
   midi.NoteOnEvent(tick=0, channel=2, data=[62, 0]),
   midi.NoteOnEvent(tick=64, channel=2, data=[61, 100]),
   midi.NoteOnEvent(tick=0, channel=2, data=[66, 100]),
   midi.NoteOnEvent(tick=128, channel=2, data=[66, 0]),
   midi.NoteOnEvent(tick=0, channel=2, data=[61, 0]),
   midi.NoteOnEvent(tick=64, channel=2, data=[62, 100]),
   midi.NoteOnEvent(tick=0, channel=2, data=[67, 100]),
   midi.NoteOnEvent(tick=128, channel=2, data=[67, 0]),
   midi.NoteOnEvent(tick=0, channel=2, data=[62, 0]),
   midi.NoteOnEvent(tick=64, channel=2, data=[69, 100]),
   midi.NoteOnEvent(tick=0, channel=2, data=[64, 100]),
   midi.NoteOnEvent(tick=128, channel=2, data=[64, 0]),
   midi.NoteOnEvent(tick=0, channel=2, data=[69, 0]),
   midi.NoteOnEvent(tick=64, channel=2, data=[59, 100]),
   midi.NoteOnEvent(tick=128, channel=2, data=[59, 0]),
   midi.NoteOnEvent(tick=64, channel=2, data=[62, 100]),
   midi.NoteOnEvent(tick=128, channel=2, data=[62, 0]),
   midi.NoteOnEvent(tick=64, channel=2, data=[67, 100]),
   midi.NoteOnEvent(tick=128, channel=2, data=[67, 0]),
   midi.NoteOnEvent(tick=64, channel=2, data=[58, 100]),
   midi.NoteOnEvent(tick=128, channel=2, data=[58, 0]),
   midi.NoteOnEvent(tick=64, channel=2, data=[62, 100]),
   midi.NoteOnEvent(tick=128, channel=2, data=[62, 0]),
   midi.NoteOnEvent(tick=64, channel=2, data=[67, 100]),
   midi.NoteOnEvent(tick=128, channel=2, data=[67, 0]),
   midi.NoteOnEvent(tick=64, channel=2, data=[55, 100]),
   midi.NoteOnEvent(tick=128, channel=2, data=[55, 0]),
   midi.NoteOnEvent(tick=64, channel=2, data=[54, 100]),
   midi.NoteOnEvent(tick=128, channel=2, data=[54, 0]),
   midi.NoteOnEvent(tick=64, channel=2, data=[59, 100]),
   midi.NoteOnEvent(tick=0, channel=2, data=[64, 100]),
   midi.NoteOnEvent(tick=128, channel=2, data=[64, 0]),
   midi.NoteOnEvent(tick=0, channel=2, data=[59, 0]),
   midi.NoteOnEvent(tick=64, channel=2, data=[58, 100]),
   midi.NoteOnEvent(tick=0, channel=2, data=[63, 100]),
   midi.NoteOnEvent(tick=128, channel=2, data=[63, 0]),
   midi.NoteOnEvent(tick=0, channel=2, data=[58, 0]),
   midi.NoteOnEvent(tick=64, channel=2, data=[59, 100]),
   midi.NoteOnEvent(tick=0, channel=2, data=[64, 100]),
   midi.NoteOnEvent(tick=128, channel=2, data=[64, 0]),
   midi.NoteOnEvent(tick=0, channel=2, data=[59, 0]),
   midi.NoteOnEvent(tick=64, channel=2, data=[61, 100]),
   midi.NoteOnEvent(tick=0, channel=2, data=[66, 100]),
   midi.NoteOnEvent(tick=128, channel=2, data=[66, 0]),
   midi.NoteOnEvent(tick=0, channel=2, data=[61, 0]),
   midi.NoteOnEvent(tick=64, channel=2, data=[62, 100]),
   midi.NoteOnEvent(tick=0, channel=2, data=[67, 100]),
   midi.NoteOnEvent(tick=128, channel=2, data=[67, 0]),
   midi.NoteOnEvent(tick=0, channel=2, data=[62, 0]),
   midi.NoteOnEvent(tick=64, channel=2, data=[61, 100]),
   midi.NoteOnEvent(tick=0, channel=2, data=[66, 100]),
   midi.NoteOnEvent(tick=128, channel=2, data=[66, 0]),
   midi.NoteOnEvent(tick=0, channel=2, data=[61, 0]),
   midi.NoteOnEvent(tick=64, channel=2, data=[62, 100]),
   midi.NoteOnEvent(tick=0, channel=2, data=[67, 100]),
   midi.NoteOnEvent(tick=128, channel=2, data=[67, 0]),
   midi.NoteOnEvent(tick=0, channel=2, data=[62, 0]),
   midi.NoteOnEvent(tick=64, channel=2, data=[69, 100]),
   midi.NoteOnEvent(tick=0, channel=2, data=[64, 100]),
   midi.NoteOnEvent(tick=128, channel=2, data=[64, 0]),
   midi.NoteOnEvent(tick=0, channel=2, data=[69, 0]),
   midi.NoteOnEvent(tick=64, channel=2, data=[59, 100]),
   midi.NoteOnEvent(tick=128, channel=2, data=[59, 0]),
   midi.NoteOnEvent(tick=64, channel=2, data=[62, 100]),
   midi.NoteOnEvent(tick=128, channel=2, data=[62, 0]),
   midi.NoteOnEvent(tick=64, channel=2, data=[67, 100]),
   midi.NoteOnEvent(tick=128, channel=2, data=[67, 0]),
   midi.NoteOnEvent(tick=64, channel=2, data=[58, 100]),
   midi.NoteOnEvent(tick=128, channel=2, data=[58, 0]),
   midi.NoteOnEvent(tick=64, channel=2, data=[62, 100]),
   midi.NoteOnEvent(tick=128, channel=2, data=[62, 0]),
   midi.NoteOnEvent(tick=64, channel=2, data=[67, 100]),
   midi.NoteOnEvent(tick=128, channel=2, data=[67, 0]),
   midi.NoteOnEvent(tick=64, channel=2, data=[55, 100]),
   midi.NoteOnEvent(tick=128, channel=2, data=[55, 0]),
   midi.NoteOnEvent(tick=64, channel=2, data=[54, 100]),
   midi.NoteOnEvent(tick=128, channel=2, data=[54, 0]),
   midi.NoteOnEvent(tick=64, channel=2, data=[52, 100]),
   midi.NoteOnEvent(tick=0, channel=2, data=[59, 100]),
   midi.NoteOnEvent(tick=25344, channel=2, data=[59, 0]),
   midi.NoteOnEvent(tick=0, channel=2, data=[52, 0]),
   midi.NoteOnEvent(tick=384, channel=2, data=[69, 100]),
   midi.PitchWheelEvent(tick=4, channel=2, data=[0, 64]),
   midi.PitchWheelEvent(tick=4, channel=2, data=[96, 61]),
   midi.PitchWheelEvent(tick=4, channel=2, data=[96, 60]),
   midi.PitchWheelEvent(tick=4, channel=2, data=[103, 72]),
   midi.PitchWheelEvent(tick=4, channel=2, data=[64, 64]),
   midi.PitchWheelEvent(tick=4, channel=2, data=[96, 66]),
   midi.PitchWheelEvent(tick=4, channel=2, data=[64, 68]),
   midi.PitchWheelEvent(tick=4, channel=2, data=[0, 70]),
   midi.PitchWheelEvent(tick=4, channel=2, data=[66, 74]),
   midi.PitchWheelEvent(tick=20, channel=2, data=[9, 75]),
   midi.PitchWheelEvent(tick=20, channel=2, data=[124, 75]),
   midi.PitchWheelEvent(tick=20, channel=2, data=[35, 77]),
   midi.PitchWheelEvent(tick=20, channel=2, data=[48, 77]),
   midi.PitchWheelEvent(tick=20, channel=2, data=[103, 80]),
   midi.PitchWheelEvent(tick=20, channel=2, data=[52, 89]),
   midi.PitchWheelEvent(tick=4, channel=2, data=[0, 98]),
   midi.PitchWheelEvent(tick=16, channel=2, data=[0, 104]),
   midi.PitchWheelEvent(tick=16, channel=2, data=[0, 122]),
   midi.PitchWheelEvent(tick=16, channel=2, data=[0, 127]),
   midi.NoteOnEvent(tick=48, channel=2, data=[69, 0]),
   midi.NoteOnEvent(tick=128, channel=2, data=[76, 100]),
   midi.NoteOnEvent(tick=384, channel=2, data=[76, 0]),
   midi.NoteOnEvent(tick=192, channel=2, data=[75, 100]),
   midi.NoteOnEvent(tick=384, channel=2, data=[75, 0]),
   midi.NoteOnEvent(tick=192, channel=2, data=[71, 100]),
   midi.NoteOnEvent(tick=256, channel=2, data=[71, 0]),
   midi.NoteOnEvent(tick=128, channel=2, data=[67, 100]),
   midi.NoteOnEvent(tick=384, channel=2, data=[67, 0]),
   midi.NoteOnEvent(tick=192, channel=2, data=[66, 100]),
   midi.NoteOnEvent(tick=384, channel=2, data=[66, 0]),
   midi.NoteOnEvent(tick=192, channel=2, data=[63, 100]),
   midi.NoteOnEvent(tick=256, channel=2, data=[63, 0]),
   midi.NoteOnEvent(tick=128, channel=2, data=[76, 100]),
   midi.NoteOnEvent(tick=384, channel=2, data=[76, 0]),
   midi.NoteOnEvent(tick=192, channel=2, data=[75, 100]),
   midi.NoteOnEvent(tick=384, channel=2, data=[75, 0]),
   midi.NoteOnEvent(tick=192, channel=2, data=[71, 100]),
   midi.NoteOnEvent(tick=256, channel=2, data=[71, 0]),
   midi.NoteOnEvent(tick=128, channel=2, data=[67, 100]),
   midi.NoteOnEvent(tick=384, channel=2, data=[67, 0]),
   midi.NoteOnEvent(tick=192, channel=2, data=[66, 100]),
   midi.NoteOnEvent(tick=384, channel=2, data=[66, 0]),
   midi.NoteOnEvent(tick=192, channel=2, data=[79, 100]),
   midi.NoteOnEvent(tick=256, channel=2, data=[79, 0]),
   midi.NoteOnEvent(tick=128, channel=2, data=[76, 100]),
   midi.NoteOnEvent(tick=384, channel=2, data=[76, 0]),
   midi.NoteOnEvent(tick=192, channel=2, data=[75, 100]),
   midi.NoteOnEvent(tick=384, channel=2, data=[75, 0]),
   midi.NoteOnEvent(tick=192, channel=2, data=[71, 100]),
   midi.NoteOnEvent(tick=256, channel=2, data=[71, 0]),
   midi.NoteOnEvent(tick=128, channel=2, data=[67, 100]),
   midi.NoteOnEvent(tick=384, channel=2, data=[67, 0]),
   midi.NoteOnEvent(tick=192, channel=2, data=[66, 100]),
   midi.NoteOnEvent(tick=384, channel=2, data=[66, 0]),
   midi.NoteOnEvent(tick=192, channel=2, data=[63, 100]),
   midi.NoteOnEvent(tick=256, channel=2, data=[63, 0]),
   midi.NoteOnEvent(tick=128, channel=2, data=[76, 100]),
   midi.NoteOnEvent(tick=384, channel=2, data=[76, 0]),
   midi.NoteOnEvent(tick=192, channel=2, data=[75, 100]),
   midi.NoteOnEvent(tick=384, channel=2, data=[75, 0]),
   midi.NoteOnEvent(tick=192, channel=2, data=[71, 100]),
   midi.NoteOnEvent(tick=256, channel=2, data=[71, 0]),
   midi.NoteOnEvent(tick=128, channel=2, data=[67, 100]),
   midi.NoteOnEvent(tick=384, channel=2, data=[67, 0]),
   midi.NoteOnEvent(tick=192, channel=2, data=[66, 100]),
   midi.NoteOnEvent(tick=384, channel=2, data=[66, 0]),
   midi.NoteOnEvent(tick=192, channel=2, data=[75, 100]),
   midi.NoteOnEvent(tick=256, channel=2, data=[75, 0]),
   midi.NoteOnEvent(tick=128, channel=2, data=[52, 100]),
   midi.NoteOnEvent(tick=128, channel=2, data=[52, 0]),
   midi.NoteOnEvent(tick=64, channel=2, data=[64, 100]),
   midi.NoteOnEvent(tick=128, channel=2, data=[64, 0]),
   midi.NoteOnEvent(tick=64, channel=2, data=[67, 100]),
   midi.NoteOnEvent(tick=128, channel=2, data=[67, 0]),
   midi.NoteOnEvent(tick=64, channel=2, data=[52, 100]),
   midi.NoteOnEvent(tick=128, channel=2, data=[52, 0]),
   midi.NoteOnEvent(tick=64, channel=2, data=[64, 100]),
   midi.NoteOnEvent(tick=128, channel=2, data=[64, 0]),
   midi.NoteOnEvent(tick=64, channel=2, data=[70, 100]),
   midi.NoteOnEvent(tick=128, channel=2, data=[70, 0]),
   midi.NoteOnEvent(tick=64, channel=2, data=[67, 100]),
   midi.NoteOnEvent(tick=128, channel=2, data=[67, 0]),
   midi.NoteOnEvent(tick=64, channel=2, data=[70, 100]),
   midi.NoteOnEvent(tick=128, channel=2, data=[70, 0]),
   midi.NoteOnEvent(tick=64, channel=2, data=[52, 100]),
   midi.NoteOnEvent(tick=128, channel=2, data=[52, 0]),
   midi.NoteOnEvent(tick=64, channel=2, data=[67, 100]),
   midi.NoteOnEvent(tick=128, channel=2, data=[67, 0]),
   midi.NoteOnEvent(tick=64, channel=2, data=[71, 100]),
   midi.NoteOnEvent(tick=128, channel=2, data=[71, 0]),
   midi.NoteOnEvent(tick=64, channel=2, data=[52, 100]),
   midi.NoteOnEvent(tick=128, channel=2, data=[52, 0]),
   midi.NoteOnEvent(tick=64, channel=2, data=[69, 100]),
   midi.NoteOnEvent(tick=128, channel=2, data=[69, 0]),
   midi.NoteOnEvent(tick=64, channel=2, data=[72, 100]),
   midi.NoteOnEvent(tick=128, channel=2, data=[72, 0]),
   midi.NoteOnEvent(tick=64, channel=2, data=[78, 100]),
   midi.NoteOnEvent(tick=128, channel=2, data=[78, 0]),
   midi.NoteOnEvent(tick=64, channel=2, data=[72, 100]),
   midi.NoteOnEvent(tick=128, channel=2, data=[72, 0]),
   midi.NoteOnEvent(tick=64, channel=2, data=[52, 100]),
   midi.NoteOnEvent(tick=128, channel=2, data=[52, 0]),
   midi.NoteOnEvent(tick=64, channel=2, data=[64, 100]),
   midi.NoteOnEvent(tick=128, channel=2, data=[64, 0]),
   midi.NoteOnEvent(tick=64, channel=2, data=[67, 100]),
   midi.NoteOnEvent(tick=128, channel=2, data=[67, 0]),
   midi.NoteOnEvent(tick=64, channel=2, data=[52, 100]),
   midi.NoteOnEvent(tick=128, channel=2, data=[52, 0]),
   midi.NoteOnEvent(tick=64, channel=2, data=[64, 100]),
   midi.NoteOnEvent(tick=128, channel=2, data=[64, 0]),
   midi.NoteOnEvent(tick=64, channel=2, data=[70, 100]),
   midi.NoteOnEvent(tick=128, channel=2, data=[70, 0]),
   midi.NoteOnEvent(tick=64, channel=2, data=[67, 100]),
   midi.NoteOnEvent(tick=128, channel=2, data=[67, 0]),
   midi.NoteOnEvent(tick=64, channel=2, data=[70, 100]),
   midi.NoteOnEvent(tick=128, channel=2, data=[70, 0]),
   midi.NoteOnEvent(tick=64, channel=2, data=[52, 100]),
   midi.NoteOnEvent(tick=128, channel=2, data=[52, 0]),
   midi.NoteOnEvent(tick=64, channel=2, data=[67, 100]),
   midi.NoteOnEvent(tick=128, channel=2, data=[67, 0]),
   midi.NoteOnEvent(tick=64, channel=2, data=[71, 100]),
   midi.NoteOnEvent(tick=128, channel=2, data=[71, 0]),
   midi.NoteOnEvent(tick=64, channel=2, data=[52, 100]),
   midi.NoteOnEvent(tick=128, channel=2, data=[52, 0]),
   midi.NoteOnEvent(tick=64, channel=2, data=[69, 100]),
   midi.NoteOnEvent(tick=128, channel=2, data=[69, 0]),
   midi.NoteOnEvent(tick=64, channel=2, data=[72, 100]),
   midi.NoteOnEvent(tick=128, channel=2, data=[72, 0]),
   midi.NoteOnEvent(tick=64, channel=2, data=[78, 100]),
   midi.NoteOnEvent(tick=256, channel=2, data=[78, 0]),
   midi.NoteOnEvent(tick=128, channel=2, data=[52, 100]),
   midi.NoteOnEvent(tick=128, channel=2, data=[52, 0]),
   midi.NoteOnEvent(tick=64, channel=2, data=[64, 100]),
   midi.NoteOnEvent(tick=128, channel=2, data=[64, 0]),
   midi.NoteOnEvent(tick=64, channel=2, data=[67, 100]),
   midi.NoteOnEvent(tick=128, channel=2, data=[67, 0]),
   midi.NoteOnEvent(tick=64, channel=2, data=[52, 100]),
   midi.NoteOnEvent(tick=128, channel=2, data=[52, 0]),
   midi.NoteOnEvent(tick=64, channel=2, data=[64, 100]),
   midi.NoteOnEvent(tick=128, channel=2, data=[64, 0]),
   midi.NoteOnEvent(tick=64, channel=2, data=[70, 100]),
   midi.NoteOnEvent(tick=128, channel=2, data=[70, 0]),
   midi.NoteOnEvent(tick=64, channel=2, data=[67, 100]),
   midi.NoteOnEvent(tick=128, channel=2, data=[67, 0]),
   midi.NoteOnEvent(tick=64, channel=2, data=[70, 100]),
   midi.NoteOnEvent(tick=128, channel=2, data=[70, 0]),
   midi.NoteOnEvent(tick=64, channel=2, data=[52, 100]),
   midi.NoteOnEvent(tick=128, channel=2, data=[52, 0]),
   midi.NoteOnEvent(tick=64, channel=2, data=[67, 100]),
   midi.NoteOnEvent(tick=128, channel=2, data=[67, 0]),
   midi.NoteOnEvent(tick=64, channel=2, data=[71, 100]),
   midi.NoteOnEvent(tick=128, channel=2, data=[71, 0]),
   midi.NoteOnEvent(tick=64, channel=2, data=[52, 100]),
   midi.NoteOnEvent(tick=128, channel=2, data=[52, 0]),
   midi.NoteOnEvent(tick=64, channel=2, data=[69, 100]),
   midi.NoteOnEvent(tick=128, channel=2, data=[69, 0]),
   midi.NoteOnEvent(tick=64, channel=2, data=[72, 100]),
   midi.NoteOnEvent(tick=128, channel=2, data=[72, 0]),
   midi.NoteOnEvent(tick=64, channel=2, data=[78, 100]),
   midi.NoteOnEvent(tick=128, channel=2, data=[78, 0]),
   midi.NoteOnEvent(tick=64, channel=2, data=[72, 100]),
   midi.NoteOnEvent(tick=128, channel=2, data=[72, 0]),
   midi.NoteOnEvent(tick=64, channel=2, data=[59, 100]),
   midi.NoteOnEvent(tick=128, channel=2, data=[59, 0]),
   midi.NoteOnEvent(tick=64, channel=2, data=[62, 100]),
   midi.NoteOnEvent(tick=128, channel=2, data=[62, 0]),
   midi.NoteOnEvent(tick=64, channel=2, data=[67, 100]),
   midi.NoteOnEvent(tick=128, channel=2, data=[67, 0]),
   midi.NoteOnEvent(tick=64, channel=2, data=[58, 100]),
   midi.NoteOnEvent(tick=128, channel=2, data=[58, 0]),
   midi.NoteOnEvent(tick=64, channel=2, data=[62, 100]),
   midi.NoteOnEvent(tick=128, channel=2, data=[62, 0]),
   midi.NoteOnEvent(tick=64, channel=2, data=[67, 100]),
   midi.NoteOnEvent(tick=128, channel=2, data=[67, 0]),
   midi.NoteOnEvent(tick=64, channel=2, data=[55, 100]),
   midi.NoteOnEvent(tick=128, channel=2, data=[55, 0]),
   midi.NoteOnEvent(tick=64, channel=2, data=[54, 100]),
   midi.NoteOnEvent(tick=128, channel=2, data=[54, 0]),
   midi.NoteOnEvent(tick=64, channel=2, data=[59, 100]),
   midi.NoteOnEvent(tick=0, channel=2, data=[64, 100]),
   midi.NoteOnEvent(tick=128, channel=2, data=[64, 0]),
   midi.NoteOnEvent(tick=0, channel=2, data=[59, 0]),
   midi.NoteOnEvent(tick=64, channel=2, data=[58, 100]),
   midi.NoteOnEvent(tick=0, channel=2, data=[63, 100]),
   midi.NoteOnEvent(tick=128, channel=2, data=[63, 0]),
   midi.NoteOnEvent(tick=0, channel=2, data=[58, 0]),
   midi.NoteOnEvent(tick=64, channel=2, data=[59, 100]),
   midi.NoteOnEvent(tick=0, channel=2, data=[64, 100]),
   midi.NoteOnEvent(tick=128, channel=2, data=[64, 0]),
   midi.NoteOnEvent(tick=0, channel=2, data=[59, 0]),
   midi.NoteOnEvent(tick=64, channel=2, data=[61, 100]),
   midi.NoteOnEvent(tick=0, channel=2, data=[66, 100]),
   midi.NoteOnEvent(tick=128, channel=2, data=[66, 0]),
   midi.NoteOnEvent(tick=0, channel=2, data=[61, 0]),
   midi.NoteOnEvent(tick=64, channel=2, data=[62, 100]),
   midi.NoteOnEvent(tick=0, channel=2, data=[67, 100]),
   midi.NoteOnEvent(tick=128, channel=2, data=[67, 0]),
   midi.NoteOnEvent(tick=0, channel=2, data=[62, 0]),
   midi.NoteOnEvent(tick=64, channel=2, data=[61, 100]),
   midi.NoteOnEvent(tick=0, channel=2, data=[66, 100]),
   midi.NoteOnEvent(tick=128, channel=2, data=[66, 0]),
   midi.NoteOnEvent(tick=0, channel=2, data=[61, 0]),
   midi.NoteOnEvent(tick=64, channel=2, data=[62, 100]),
   midi.NoteOnEvent(tick=0, channel=2, data=[67, 100]),
   midi.NoteOnEvent(tick=128, channel=2, data=[67, 0]),
   midi.NoteOnEvent(tick=0, channel=2, data=[62, 0]),
   midi.NoteOnEvent(tick=64, channel=2, data=[69, 100]),
   midi.NoteOnEvent(tick=0, channel=2, data=[64, 100]),
   midi.NoteOnEvent(tick=128, channel=2, data=[64, 0]),
   midi.NoteOnEvent(tick=0, channel=2, data=[69, 0]),
   midi.NoteOnEvent(tick=64, channel=2, data=[59, 100]),
   midi.NoteOnEvent(tick=128, channel=2, data=[59, 0]),
   midi.NoteOnEvent(tick=64, channel=2, data=[62, 100]),
   midi.NoteOnEvent(tick=128, channel=2, data=[62, 0]),
   midi.NoteOnEvent(tick=64, channel=2, data=[67, 100]),
   midi.NoteOnEvent(tick=128, channel=2, data=[67, 0]),
   midi.NoteOnEvent(tick=64, channel=2, data=[58, 100]),
   midi.NoteOnEvent(tick=128, channel=2, data=[58, 0]),
   midi.NoteOnEvent(tick=64, channel=2, data=[62, 100]),
   midi.NoteOnEvent(tick=128, channel=2, data=[62, 0]),
   midi.NoteOnEvent(tick=64, channel=2, data=[67, 100]),
   midi.NoteOnEvent(tick=128, channel=2, data=[67, 0]),
   midi.NoteOnEvent(tick=64, channel=2, data=[55, 100]),
   midi.NoteOnEvent(tick=128, channel=2, data=[55, 0]),
   midi.NoteOnEvent(tick=64, channel=2, data=[54, 100]),
   midi.NoteOnEvent(tick=128, channel=2, data=[54, 0]),
   midi.NoteOnEvent(tick=64, channel=2, data=[59, 100]),
   midi.NoteOnEvent(tick=0, channel=2, data=[64, 100]),
   midi.NoteOnEvent(tick=128, channel=2, data=[64, 0]),
   midi.NoteOnEvent(tick=0, channel=2, data=[59, 0]),
   midi.NoteOnEvent(tick=64, channel=2, data=[58, 100]),
   midi.NoteOnEvent(tick=0, channel=2, data=[63, 100]),
   midi.NoteOnEvent(tick=128, channel=2, data=[63, 0]),
   midi.NoteOnEvent(tick=0, channel=2, data=[58, 0]),
   midi.NoteOnEvent(tick=64, channel=2, data=[59, 100]),
   midi.NoteOnEvent(tick=0, channel=2, data=[64, 100]),
   midi.NoteOnEvent(tick=128, channel=2, data=[64, 0]),
   midi.NoteOnEvent(tick=0, channel=2, data=[59, 0]),
   midi.NoteOnEvent(tick=64, channel=2, data=[61, 100]),
   midi.NoteOnEvent(tick=0, channel=2, data=[66, 100]),
   midi.NoteOnEvent(tick=128, channel=2, data=[66, 0]),
   midi.NoteOnEvent(tick=0, channel=2, data=[61, 0]),
   midi.NoteOnEvent(tick=64, channel=2, data=[62, 100]),
   midi.NoteOnEvent(tick=0, channel=2, data=[67, 100]),
   midi.NoteOnEvent(tick=128, channel=2, data=[67, 0]),
   midi.NoteOnEvent(tick=0, channel=2, data=[62, 0]),
   midi.NoteOnEvent(tick=64, channel=2, data=[61, 100]),
   midi.NoteOnEvent(tick=0, channel=2, data=[66, 100]),
   midi.NoteOnEvent(tick=128, channel=2, data=[66, 0]),
   midi.NoteOnEvent(tick=0, channel=2, data=[61, 0]),
   midi.NoteOnEvent(tick=64, channel=2, data=[62, 100]),
   midi.NoteOnEvent(tick=0, channel=2, data=[67, 100]),
   midi.NoteOnEvent(tick=128, channel=2, data=[67, 0]),
   midi.NoteOnEvent(tick=0, channel=2, data=[62, 0]),
   midi.NoteOnEvent(tick=64, channel=2, data=[69, 100]),
   midi.NoteOnEvent(tick=0, channel=2, data=[64, 100]),
   midi.NoteOnEvent(tick=128, channel=2, data=[64, 0]),
   midi.NoteOnEvent(tick=0, channel=2, data=[69, 0]),
   midi.NoteOnEvent(tick=64, channel=2, data=[59, 100]),
   midi.NoteOnEvent(tick=128, channel=2, data=[59, 0]),
   midi.NoteOnEvent(tick=64, channel=2, data=[62, 100]),
   midi.NoteOnEvent(tick=128, channel=2, data=[62, 0]),
   midi.NoteOnEvent(tick=64, channel=2, data=[67, 100]),
   midi.NoteOnEvent(tick=128, channel=2, data=[67, 0]),
   midi.NoteOnEvent(tick=64, channel=2, data=[58, 100]),
   midi.NoteOnEvent(tick=128, channel=2, data=[58, 0]),
   midi.NoteOnEvent(tick=64, channel=2, data=[62, 100]),
   midi.NoteOnEvent(tick=128, channel=2, data=[62, 0]),
   midi.NoteOnEvent(tick=64, channel=2, data=[67, 100]),
   midi.NoteOnEvent(tick=128, channel=2, data=[67, 0]),
   midi.NoteOnEvent(tick=64, channel=2, data=[55, 100]),
   midi.NoteOnEvent(tick=128, channel=2, data=[55, 0]),
   midi.NoteOnEvent(tick=64, channel=2, data=[54, 100]),
   midi.NoteOnEvent(tick=128, channel=2, data=[54, 0]),
   midi.NoteOnEvent(tick=64, channel=2, data=[59, 100]),
   midi.NoteOnEvent(tick=0, channel=2, data=[64, 100]),
   midi.NoteOnEvent(tick=128, channel=2, data=[64, 0]),
   midi.NoteOnEvent(tick=0, channel=2, data=[59, 0]),
   midi.NoteOnEvent(tick=64, channel=2, data=[58, 100]),
   midi.NoteOnEvent(tick=0, channel=2, data=[63, 100]),
   midi.NoteOnEvent(tick=128, channel=2, data=[63, 0]),
   midi.NoteOnEvent(tick=0, channel=2, data=[58, 0]),
   midi.NoteOnEvent(tick=64, channel=2, data=[59, 100]),
   midi.NoteOnEvent(tick=0, channel=2, data=[64, 100]),
   midi.NoteOnEvent(tick=128, channel=2, data=[64, 0]),
   midi.NoteOnEvent(tick=0, channel=2, data=[59, 0]),
   midi.NoteOnEvent(tick=64, channel=2, data=[61, 100]),
   midi.NoteOnEvent(tick=0, channel=2, data=[66, 100]),
   midi.NoteOnEvent(tick=128, channel=2, data=[66, 0]),
   midi.NoteOnEvent(tick=0, channel=2, data=[61, 0]),
   midi.NoteOnEvent(tick=64, channel=2, data=[62, 100]),
   midi.NoteOnEvent(tick=0, channel=2, data=[67, 100]),
   midi.NoteOnEvent(tick=128, channel=2, data=[67, 0]),
   midi.NoteOnEvent(tick=0, channel=2, data=[62, 0]),
   midi.NoteOnEvent(tick=64, channel=2, data=[61, 100]),
   midi.NoteOnEvent(tick=0, channel=2, data=[66, 100]),
   midi.NoteOnEvent(tick=128, channel=2, data=[66, 0]),
   midi.NoteOnEvent(tick=0, channel=2, data=[61, 0]),
   midi.NoteOnEvent(tick=64, channel=2, data=[62, 100]),
   midi.NoteOnEvent(tick=0, channel=2, data=[67, 100]),
   midi.NoteOnEvent(tick=128, channel=2, data=[67, 0]),
   midi.NoteOnEvent(tick=0, channel=2, data=[62, 0]),
   midi.NoteOnEvent(tick=64, channel=2, data=[69, 100]),
   midi.NoteOnEvent(tick=0, channel=2, data=[64, 100]),
   midi.NoteOnEvent(tick=128, channel=2, data=[64, 0]),
   midi.NoteOnEvent(tick=0, channel=2, data=[69, 0]),
   midi.NoteOnEvent(tick=64, channel=2, data=[59, 100]),
   midi.NoteOnEvent(tick=128, channel=2, data=[59, 0]),
   midi.NoteOnEvent(tick=64, channel=2, data=[62, 100]),
   midi.NoteOnEvent(tick=128, channel=2, data=[62, 0]),
   midi.NoteOnEvent(tick=64, channel=2, data=[67, 100]),
   midi.NoteOnEvent(tick=128, channel=2, data=[67, 0]),
   midi.NoteOnEvent(tick=64, channel=2, data=[58, 100]),
   midi.NoteOnEvent(tick=128, channel=2, data=[58, 0]),
   midi.NoteOnEvent(tick=64, channel=2, data=[62, 100]),
   midi.NoteOnEvent(tick=128, channel=2, data=[62, 0]),
   midi.NoteOnEvent(tick=64, channel=2, data=[67, 100]),
   midi.NoteOnEvent(tick=128, channel=2, data=[67, 0]),
   midi.NoteOnEvent(tick=64, channel=2, data=[55, 100]),
   midi.NoteOnEvent(tick=128, channel=2, data=[55, 0]),
   midi.NoteOnEvent(tick=64, channel=2, data=[54, 100]),
   midi.NoteOnEvent(tick=128, channel=2, data=[54, 0]),
   midi.NoteOnEvent(tick=64, channel=2, data=[59, 100]),
   midi.NoteOnEvent(tick=0, channel=2, data=[52, 100]),
   midi.NoteOnEvent(tick=2020, channel=2, data=[52, 0]),
   midi.NoteOnEvent(tick=0, channel=2, data=[59, 0]),
   midi.NoteOnEvent(tick=284, channel=2, data=[52, 100]),
   midi.NoteOnEvent(tick=128, channel=2, data=[52, 0]),
   midi.NoteOnEvent(tick=64, channel=2, data=[59, 100]),
   midi.NoteOnEvent(tick=128, channel=2, data=[59, 0]),
   midi.NoteOnEvent(tick=64, channel=2, data=[55, 100]),
   midi.NoteOnEvent(tick=64, channel=2, data=[55, 0]),
   midi.NoteOnEvent(tick=32, channel=2, data=[55, 100]),
   midi.NoteOnEvent(tick=64, channel=2, data=[55, 0]),
   midi.NoteOnEvent(tick=32, channel=2, data=[60, 100]),
   midi.NoteOnEvent(tick=0, channel=2, data=[53, 100]),
   midi.NoteOnEvent(tick=520, channel=2, data=[53, 0]),
   midi.NoteOnEvent(tick=0, channel=2, data=[60, 0]),
   midi.NoteOnEvent(tick=56, channel=2, data=[60, 100]),
   midi.NoteOnEvent(tick=0, channel=2, data=[53, 100]),
   midi.NoteOnEvent(tick=192, channel=2, data=[53, 0]),
   midi.NoteOnEvent(tick=0, channel=2, data=[60, 0]),
   midi.NoteOnEvent(tick=0, channel=2, data=[53, 100]),
   midi.NoteOnEvent(tick=0, channel=2, data=[60, 100]),
   midi.NoteOnEvent(tick=192, channel=2, data=[60, 0]),
   midi.NoteOnEvent(tick=0, channel=2, data=[53, 0]),
   midi.NoteOnEvent(tick=0, channel=2, data=[53, 100]),
   midi.NoteOnEvent(tick=0, channel=2, data=[60, 100]),
   midi.NoteOnEvent(tick=192, channel=2, data=[60, 0]),
   midi.NoteOnEvent(tick=0, channel=2, data=[53, 0]),
   midi.NoteOnEvent(tick=0, channel=2, data=[53, 100]),
   midi.NoteOnEvent(tick=0, channel=2, data=[60, 100]),
   midi.NoteOnEvent(tick=192, channel=2, data=[60, 0]),
   midi.NoteOnEvent(tick=0, channel=2, data=[53, 0]),
   midi.NoteOnEvent(tick=0, channel=2, data=[53, 100]),
   midi.NoteOnEvent(tick=0, channel=2, data=[60, 100]),
   midi.NoteOnEvent(tick=192, channel=2, data=[60, 0]),
   midi.NoteOnEvent(tick=0, channel=2, data=[53, 0]),
   midi.NoteOnEvent(tick=0, channel=2, data=[53, 100]),
   midi.NoteOnEvent(tick=0, channel=2, data=[60, 100]),
   midi.NoteOnEvent(tick=192, channel=2, data=[60, 0]),
   midi.NoteOnEvent(tick=0, channel=2, data=[53, 0]),
   midi.NoteOnEvent(tick=0, channel=2, data=[53, 100]),
   midi.NoteOnEvent(tick=0, channel=2, data=[60, 100]),
   midi.NoteOnEvent(tick=192, channel=2, data=[60, 0]),
   midi.NoteOnEvent(tick=0, channel=2, data=[53, 0]),
   midi.NoteOnEvent(tick=0, channel=2, data=[53, 100]),
   midi.NoteOnEvent(tick=0, channel=2, data=[60, 100]),
   midi.NoteOnEvent(tick=192, channel=2, data=[60, 0]),
   midi.NoteOnEvent(tick=0, channel=2, data=[53, 0]),
   midi.NoteOnEvent(tick=0, channel=2, data=[53, 100]),
   midi.NoteOnEvent(tick=0, channel=2, data=[60, 100]),
   midi.NoteOnEvent(tick=192, channel=2, data=[60, 0]),
   midi.NoteOnEvent(tick=0, channel=2, data=[53, 0]),
   midi.NoteOnEvent(tick=0, channel=2, data=[53, 100]),
   midi.NoteOnEvent(tick=0, channel=2, data=[60, 100]),
   midi.NoteOnEvent(tick=192, channel=2, data=[60, 0]),
   midi.NoteOnEvent(tick=0, channel=2, data=[53, 0]),
   midi.NoteOnEvent(tick=0, channel=2, data=[52, 100]),
   midi.NoteOnEvent(tick=132, channel=2, data=[52, 0]),
   midi.NoteOnEvent(tick=60, channel=2, data=[59, 100]),
   midi.NoteOnEvent(tick=132, channel=2, data=[59, 0]),
   midi.NoteOnEvent(tick=60, channel=2, data=[55, 100]),
   midi.NoteOnEvent(tick=64, channel=2, data=[55, 0]),
   midi.NoteOnEvent(tick=32, channel=2, data=[55, 100]),
   midi.NoteOnEvent(tick=64, channel=2, data=[55, 0]),
   midi.NoteOnEvent(tick=32, channel=2, data=[59, 100]),
   midi.NoteOnEvent(tick=0, channel=2, data=[52, 100]),
   midi.NoteOnEvent(tick=464, channel=2, data=[52, 0]),
   midi.NoteOnEvent(tick=0, channel=2, data=[59, 0]),
   midi.NoteOnEvent(tick=112, channel=2, data=[52, 100]),
   midi.NoteOnEvent(tick=132, channel=2, data=[52, 0]),
   midi.NoteOnEvent(tick=60, channel=2, data=[52, 100]),
   midi.NoteOnEvent(tick=132, channel=2, data=[52, 0]),
   midi.NoteOnEvent(tick=60, channel=2, data=[65, 100]),
   midi.NoteOnEvent(tick=0, channel=2, data=[59, 100]),
   midi.NoteOnEvent(tick=264, channel=2, data=[59, 0]),
   midi.NoteOnEvent(tick=0, channel=2, data=[65, 0]),
   midi.NoteOnEvent(tick=120, channel=2, data=[52, 100]),
   midi.NoteOnEvent(tick=132, channel=2, data=[52, 0]),
   midi.NoteOnEvent(tick=60, channel=2, data=[52, 100]),
   midi.NoteOnEvent(tick=132, channel=2, data=[52, 0]),
   midi.NoteOnEvent(tick=60, channel=2, data=[57, 100]),
   midi.NoteOnEvent(tick=64, channel=2, data=[57, 0]),
   midi.NoteOnEvent(tick=32, channel=2, data=[57, 100]),
   midi.NoteOnEvent(tick=64, channel=2, data=[57, 0]),
   midi.NoteOnEvent(tick=32, channel=2, data=[55, 100]),
   midi.NoteOnEvent(tick=396, channel=2, data=[55, 0]),
   midi.NoteOnEvent(tick=180, channel=2, data=[53, 100]),
   midi.NoteOnEvent(tick=132, channel=2, data=[53, 0]),
   midi.NoteOnEvent(tick=60, channel=2, data=[59, 100]),
   midi.NoteOnEvent(tick=132, channel=2, data=[59, 0]),
   midi.NoteOnEvent(tick=60, channel=2, data=[55, 100]),
   midi.NoteOnEvent(tick=64, channel=2, data=[55, 0]),
   midi.NoteOnEvent(tick=32, channel=2, data=[55, 100]),
   midi.NoteOnEvent(tick=64, channel=2, data=[55, 0]),
   midi.NoteOnEvent(tick=32, channel=2, data=[60, 100]),
   midi.NoteOnEvent(tick=0, channel=2, data=[53, 100]),
   midi.NoteOnEvent(tick=520, channel=2, data=[53, 0]),
   midi.NoteOnEvent(tick=0, channel=2, data=[60, 0]),
   midi.NoteOnEvent(tick=56, channel=2, data=[60, 100]),
   midi.NoteOnEvent(tick=0, channel=2, data=[53, 100]),
   midi.NoteOnEvent(tick=192, channel=2, data=[53, 0]),
   midi.NoteOnEvent(tick=0, channel=2, data=[60, 0]),
   midi.NoteOnEvent(tick=0, channel=2, data=[53, 100]),
   midi.NoteOnEvent(tick=0, channel=2, data=[60, 100]),
   midi.NoteOnEvent(tick=192, channel=2, data=[60, 0]),
   midi.NoteOnEvent(tick=0, channel=2, data=[53, 0]),
   midi.NoteOnEvent(tick=0, channel=2, data=[53, 100]),
   midi.NoteOnEvent(tick=0, channel=2, data=[60, 100]),
   midi.NoteOnEvent(tick=192, channel=2, data=[60, 0]),
   midi.NoteOnEvent(tick=0, channel=2, data=[53, 0]),
   midi.NoteOnEvent(tick=0, channel=2, data=[53, 100]),
   midi.NoteOnEvent(tick=0, channel=2, data=[60, 100]),
   midi.NoteOnEvent(tick=192, channel=2, data=[60, 0]),
   midi.NoteOnEvent(tick=0, channel=2, data=[53, 0]),
   midi.NoteOnEvent(tick=0, channel=2, data=[53, 100]),
   midi.NoteOnEvent(tick=0, channel=2, data=[60, 100]),
   midi.NoteOnEvent(tick=192, channel=2, data=[60, 0]),
   midi.NoteOnEvent(tick=0, channel=2, data=[53, 0]),
   midi.NoteOnEvent(tick=0, channel=2, data=[53, 100]),
   midi.NoteOnEvent(tick=0, channel=2, data=[60, 100]),
   midi.NoteOnEvent(tick=192, channel=2, data=[60, 0]),
   midi.NoteOnEvent(tick=0, channel=2, data=[53, 0]),
   midi.NoteOnEvent(tick=0, channel=2, data=[53, 100]),
   midi.NoteOnEvent(tick=0, channel=2, data=[60, 100]),
   midi.NoteOnEvent(tick=192, channel=2, data=[60, 0]),
   midi.NoteOnEvent(tick=0, channel=2, data=[53, 0]),
   midi.NoteOnEvent(tick=0, channel=2, data=[53, 100]),
   midi.NoteOnEvent(tick=0, channel=2, data=[60, 100]),
   midi.NoteOnEvent(tick=192, channel=2, data=[60, 0]),
   midi.NoteOnEvent(tick=0, channel=2, data=[53, 0]),
   midi.NoteOnEvent(tick=0, channel=2, data=[53, 100]),
   midi.NoteOnEvent(tick=0, channel=2, data=[60, 100]),
   midi.NoteOnEvent(tick=192, channel=2, data=[60, 0]),
   midi.NoteOnEvent(tick=0, channel=2, data=[53, 0]),
   midi.NoteOnEvent(tick=0, channel=2, data=[53, 100]),
   midi.NoteOnEvent(tick=0, channel=2, data=[60, 100]),
   midi.NoteOnEvent(tick=192, channel=2, data=[60, 0]),
   midi.NoteOnEvent(tick=0, channel=2, data=[53, 0]),
   midi.NoteOnEvent(tick=0, channel=2, data=[52, 100]),
   midi.NoteOnEvent(tick=132, channel=2, data=[52, 0]),
   midi.NoteOnEvent(tick=60, channel=2, data=[59, 100]),
   midi.NoteOnEvent(tick=132, channel=2, data=[59, 0]),
   midi.NoteOnEvent(tick=60, channel=2, data=[55, 100]),
   midi.NoteOnEvent(tick=64, channel=2, data=[55, 0]),
   midi.NoteOnEvent(tick=32, channel=2, data=[55, 100]),
   midi.NoteOnEvent(tick=64, channel=2, data=[55, 0]),
   midi.NoteOnEvent(tick=32, channel=2, data=[59, 100]),
   midi.NoteOnEvent(tick=0, channel=2, data=[52, 100]),
   midi.NoteOnEvent(tick=464, channel=2, data=[52, 0]),
   midi.NoteOnEvent(tick=0, channel=2, data=[59, 0]),
   midi.NoteOnEvent(tick=112, channel=2, data=[52, 100]),
   midi.NoteOnEvent(tick=132, channel=2, data=[52, 0]),
   midi.NoteOnEvent(tick=60, channel=2, data=[52, 100]),
   midi.NoteOnEvent(tick=132, channel=2, data=[52, 0]),
   midi.NoteOnEvent(tick=60, channel=2, data=[65, 100]),
   midi.NoteOnEvent(tick=0, channel=2, data=[59, 100]),
   midi.NoteOnEvent(tick=264, channel=2, data=[59, 0]),
   midi.NoteOnEvent(tick=0, channel=2, data=[65, 0]),
   midi.NoteOnEvent(tick=120, channel=2, data=[52, 100]),
   midi.NoteOnEvent(tick=132, channel=2, data=[52, 0]),
   midi.NoteOnEvent(tick=60, channel=2, data=[52, 100]),
   midi.NoteOnEvent(tick=132, channel=2, data=[52, 0]),
   midi.NoteOnEvent(tick=60, channel=2, data=[57, 100]),
   midi.NoteOnEvent(tick=64, channel=2, data=[57, 0]),
   midi.NoteOnEvent(tick=32, channel=2, data=[57, 100]),
   midi.NoteOnEvent(tick=64, channel=2, data=[57, 0]),
   midi.NoteOnEvent(tick=32, channel=2, data=[55, 100]),
   midi.NoteOnEvent(tick=396, channel=2, data=[55, 0]),
   midi.NoteOnEvent(tick=180, channel=2, data=[53, 100]),
   midi.NoteOnEvent(tick=132, channel=2, data=[53, 0]),
   midi.NoteOnEvent(tick=60, channel=2, data=[59, 100]),
   midi.NoteOnEvent(tick=132, channel=2, data=[59, 0]),
   midi.NoteOnEvent(tick=60, channel=2, data=[55, 100]),
   midi.NoteOnEvent(tick=64, channel=2, data=[55, 0]),
   midi.NoteOnEvent(tick=32, channel=2, data=[55, 100]),
   midi.NoteOnEvent(tick=64, channel=2, data=[55, 0]),
   midi.NoteOnEvent(tick=32, channel=2, data=[60, 100]),
   midi.NoteOnEvent(tick=0, channel=2, data=[53, 100]),
   midi.NoteOnEvent(tick=520, channel=2, data=[53, 0]),
   midi.NoteOnEvent(tick=0, channel=2, data=[60, 0]),
   midi.NoteOnEvent(tick=56, channel=2, data=[60, 100]),
   midi.NoteOnEvent(tick=0, channel=2, data=[53, 100]),
   midi.NoteOnEvent(tick=192, channel=2, data=[53, 0]),
   midi.NoteOnEvent(tick=0, channel=2, data=[60, 0]),
   midi.NoteOnEvent(tick=0, channel=2, data=[53, 100]),
   midi.NoteOnEvent(tick=0, channel=2, data=[60, 100]),
   midi.NoteOnEvent(tick=192, channel=2, data=[60, 0]),
   midi.NoteOnEvent(tick=0, channel=2, data=[53, 0]),
   midi.NoteOnEvent(tick=0, channel=2, data=[53, 100]),
   midi.NoteOnEvent(tick=0, channel=2, data=[60, 100]),
   midi.NoteOnEvent(tick=192, channel=2, data=[60, 0]),
   midi.NoteOnEvent(tick=0, channel=2, data=[53, 0]),
   midi.NoteOnEvent(tick=0, channel=2, data=[53, 100]),
   midi.NoteOnEvent(tick=0, channel=2, data=[60, 100]),
   midi.NoteOnEvent(tick=192, channel=2, data=[60, 0]),
   midi.NoteOnEvent(tick=0, channel=2, data=[53, 0]),
   midi.NoteOnEvent(tick=0, channel=2, data=[53, 100]),
   midi.NoteOnEvent(tick=0, channel=2, data=[60, 100]),
   midi.NoteOnEvent(tick=192, channel=2, data=[60, 0]),
   midi.NoteOnEvent(tick=0, channel=2, data=[53, 0]),
   midi.NoteOnEvent(tick=0, channel=2, data=[53, 100]),
   midi.NoteOnEvent(tick=0, channel=2, data=[60, 100]),
   midi.NoteOnEvent(tick=192, channel=2, data=[60, 0]),
   midi.NoteOnEvent(tick=0, channel=2, data=[53, 0]),
   midi.NoteOnEvent(tick=0, channel=2, data=[53, 100]),
   midi.NoteOnEvent(tick=0, channel=2, data=[60, 100]),
   midi.NoteOnEvent(tick=192, channel=2, data=[60, 0]),
   midi.NoteOnEvent(tick=0, channel=2, data=[53, 0]),
   midi.NoteOnEvent(tick=0, channel=2, data=[53, 100]),
   midi.NoteOnEvent(tick=0, channel=2, data=[60, 100]),
   midi.NoteOnEvent(tick=192, channel=2, data=[60, 0]),
   midi.NoteOnEvent(tick=0, channel=2, data=[53, 0]),
   midi.NoteOnEvent(tick=0, channel=2, data=[53, 100]),
   midi.NoteOnEvent(tick=0, channel=2, data=[60, 100]),
   midi.NoteOnEvent(tick=192, channel=2, data=[60, 0]),
   midi.NoteOnEvent(tick=0, channel=2, data=[53, 0]),
   midi.NoteOnEvent(tick=0, channel=2, data=[53, 100]),
   midi.NoteOnEvent(tick=0, channel=2, data=[60, 100]),
   midi.NoteOnEvent(tick=192, channel=2, data=[60, 0]),
   midi.NoteOnEvent(tick=0, channel=2, data=[53, 0]),
   midi.NoteOnEvent(tick=0, channel=2, data=[52, 100]),
   midi.NoteOnEvent(tick=132, channel=2, data=[52, 0]),
   midi.NoteOnEvent(tick=60, channel=2, data=[59, 100]),
   midi.NoteOnEvent(tick=132, channel=2, data=[59, 0]),
   midi.NoteOnEvent(tick=60, channel=2, data=[55, 100]),
   midi.NoteOnEvent(tick=64, channel=2, data=[55, 0]),
   midi.NoteOnEvent(tick=32, channel=2, data=[55, 100]),
   midi.NoteOnEvent(tick=64, channel=2, data=[55, 0]),
   midi.NoteOnEvent(tick=32, channel=2, data=[59, 100]),
   midi.NoteOnEvent(tick=0, channel=2, data=[52, 100]),
   midi.NoteOnEvent(tick=464, channel=2, data=[52, 0]),
   midi.NoteOnEvent(tick=0, channel=2, data=[59, 0]),
   midi.NoteOnEvent(tick=112, channel=2, data=[52, 100]),
   midi.NoteOnEvent(tick=132, channel=2, data=[52, 0]),
   midi.NoteOnEvent(tick=60, channel=2, data=[52, 100]),
   midi.NoteOnEvent(tick=132, channel=2, data=[52, 0]),
   midi.NoteOnEvent(tick=60, channel=2, data=[65, 100]),
   midi.NoteOnEvent(tick=0, channel=2, data=[59, 100]),
   midi.NoteOnEvent(tick=264, channel=2, data=[59, 0]),
   midi.NoteOnEvent(tick=0, channel=2, data=[65, 0]),
   midi.NoteOnEvent(tick=120, channel=2, data=[52, 100]),
   midi.NoteOnEvent(tick=132, channel=2, data=[52, 0]),
   midi.NoteOnEvent(tick=60, channel=2, data=[52, 100]),
   midi.NoteOnEvent(tick=132, channel=2, data=[52, 0]),
   midi.NoteOnEvent(tick=60, channel=2, data=[57, 100]),
   midi.NoteOnEvent(tick=64, channel=2, data=[57, 0]),
   midi.NoteOnEvent(tick=32, channel=2, data=[57, 100]),
   midi.NoteOnEvent(tick=64, channel=2, data=[57, 0]),
   midi.NoteOnEvent(tick=32, channel=2, data=[55, 100]),
   midi.NoteOnEvent(tick=396, channel=2, data=[55, 0]),
   midi.NoteOnEvent(tick=180, channel=2, data=[53, 100]),
   midi.NoteOnEvent(tick=132, channel=2, data=[53, 0]),
   midi.NoteOnEvent(tick=60, channel=2, data=[59, 100]),
   midi.NoteOnEvent(tick=132, channel=2, data=[59, 0]),
   midi.NoteOnEvent(tick=60, channel=2, data=[55, 100]),
   midi.NoteOnEvent(tick=64, channel=2, data=[55, 0]),
   midi.NoteOnEvent(tick=32, channel=2, data=[55, 100]),
   midi.NoteOnEvent(tick=64, channel=2, data=[55, 0]),
   midi.NoteOnEvent(tick=32, channel=2, data=[60, 100]),
   midi.NoteOnEvent(tick=0, channel=2, data=[53, 100]),
   midi.NoteOnEvent(tick=520, channel=2, data=[53, 0]),
   midi.NoteOnEvent(tick=0, channel=2, data=[60, 0]),
   midi.NoteOnEvent(tick=56, channel=2, data=[60, 100]),
   midi.NoteOnEvent(tick=0, channel=2, data=[53, 100]),
   midi.NoteOnEvent(tick=192, channel=2, data=[53, 0]),
   midi.NoteOnEvent(tick=0, channel=2, data=[60, 0]),
   midi.NoteOnEvent(tick=0, channel=2, data=[53, 100]),
   midi.NoteOnEvent(tick=0, channel=2, data=[60, 100]),
   midi.NoteOnEvent(tick=192, channel=2, data=[60, 0]),
   midi.NoteOnEvent(tick=0, channel=2, data=[53, 0]),
   midi.NoteOnEvent(tick=0, channel=2, data=[53, 100]),
   midi.NoteOnEvent(tick=0, channel=2, data=[60, 100]),
   midi.NoteOnEvent(tick=192, channel=2, data=[60, 0]),
   midi.NoteOnEvent(tick=0, channel=2, data=[53, 0]),
   midi.NoteOnEvent(tick=0, channel=2, data=[53, 100]),
   midi.NoteOnEvent(tick=0, channel=2, data=[60, 100]),
   midi.NoteOnEvent(tick=192, channel=2, data=[60, 0]),
   midi.NoteOnEvent(tick=0, channel=2, data=[53, 0]),
   midi.NoteOnEvent(tick=0, channel=2, data=[53, 100]),
   midi.NoteOnEvent(tick=0, channel=2, data=[60, 100]),
   midi.NoteOnEvent(tick=192, channel=2, data=[60, 0]),
   midi.NoteOnEvent(tick=0, channel=2, data=[53, 0]),
   midi.NoteOnEvent(tick=0, channel=2, data=[53, 100]),
   midi.NoteOnEvent(tick=0, channel=2, data=[60, 100]),
   midi.NoteOnEvent(tick=192, channel=2, data=[60, 0]),
   midi.NoteOnEvent(tick=0, channel=2, data=[53, 0]),
   midi.NoteOnEvent(tick=0, channel=2, data=[53, 100]),
   midi.NoteOnEvent(tick=0, channel=2, data=[60, 100]),
   midi.NoteOnEvent(tick=192, channel=2, data=[60, 0]),
   midi.NoteOnEvent(tick=0, channel=2, data=[53, 0]),
   midi.NoteOnEvent(tick=0, channel=2, data=[53, 100]),
   midi.NoteOnEvent(tick=0, channel=2, data=[60, 100]),
   midi.NoteOnEvent(tick=192, channel=2, data=[60, 0]),
   midi.NoteOnEvent(tick=0, channel=2, data=[53, 0]),
   midi.NoteOnEvent(tick=0, channel=2, data=[53, 100]),
   midi.NoteOnEvent(tick=0, channel=2, data=[60, 100]),
   midi.NoteOnEvent(tick=192, channel=2, data=[60, 0]),
   midi.NoteOnEvent(tick=0, channel=2, data=[53, 0]),
   midi.NoteOnEvent(tick=0, channel=2, data=[53, 100]),
   midi.NoteOnEvent(tick=0, channel=2, data=[60, 100]),
   midi.NoteOnEvent(tick=192, channel=2, data=[60, 0]),
   midi.NoteOnEvent(tick=0, channel=2, data=[53, 0]),
   midi.NoteOnEvent(tick=0, channel=2, data=[52, 100]),
   midi.NoteOnEvent(tick=132, channel=2, data=[52, 0]),
   midi.NoteOnEvent(tick=60, channel=2, data=[59, 100]),
   midi.NoteOnEvent(tick=132, channel=2, data=[59, 0]),
   midi.NoteOnEvent(tick=60, channel=2, data=[55, 100]),
   midi.NoteOnEvent(tick=64, channel=2, data=[55, 0]),
   midi.NoteOnEvent(tick=32, channel=2, data=[55, 100]),
   midi.NoteOnEvent(tick=64, channel=2, data=[55, 0]),
   midi.NoteOnEvent(tick=32, channel=2, data=[59, 100]),
   midi.NoteOnEvent(tick=0, channel=2, data=[52, 100]),
   midi.NoteOnEvent(tick=464, channel=2, data=[52, 0]),
   midi.NoteOnEvent(tick=0, channel=2, data=[59, 0]),
   midi.NoteOnEvent(tick=112, channel=2, data=[52, 100]),
   midi.NoteOnEvent(tick=132, channel=2, data=[52, 0]),
   midi.NoteOnEvent(tick=60, channel=2, data=[52, 100]),
   midi.NoteOnEvent(tick=132, channel=2, data=[52, 0]),
   midi.NoteOnEvent(tick=60, channel=2, data=[65, 100]),
   midi.NoteOnEvent(tick=0, channel=2, data=[59, 100]),
   midi.NoteOnEvent(tick=264, channel=2, data=[59, 0]),
   midi.NoteOnEvent(tick=0, channel=2, data=[65, 0]),
   midi.NoteOnEvent(tick=120, channel=2, data=[52, 100]),
   midi.NoteOnEvent(tick=132, channel=2, data=[52, 0]),
   midi.NoteOnEvent(tick=60, channel=2, data=[52, 100]),
   midi.NoteOnEvent(tick=132, channel=2, data=[52, 0]),
   midi.NoteOnEvent(tick=60, channel=2, data=[57, 100]),
   midi.NoteOnEvent(tick=64, channel=2, data=[57, 0]),
   midi.NoteOnEvent(tick=32, channel=2, data=[57, 100]),
   midi.NoteOnEvent(tick=64, channel=2, data=[57, 0]),
   midi.NoteOnEvent(tick=32, channel=2, data=[55, 100]),
   midi.NoteOnEvent(tick=396, channel=2, data=[55, 0]),
   midi.NoteOnEvent(tick=180, channel=2, data=[53, 100]),
   midi.NoteOnEvent(tick=132, channel=2, data=[53, 0]),
   midi.NoteOnEvent(tick=60, channel=2, data=[59, 100]),
   midi.NoteOnEvent(tick=132, channel=2, data=[59, 0]),
   midi.NoteOnEvent(tick=60, channel=2, data=[55, 100]),
   midi.NoteOnEvent(tick=64, channel=2, data=[55, 0]),
   midi.NoteOnEvent(tick=32, channel=2, data=[55, 100]),
   midi.NoteOnEvent(tick=64, channel=2, data=[55, 0]),
   midi.NoteOnEvent(tick=32, channel=2, data=[60, 100]),
   midi.NoteOnEvent(tick=0, channel=2, data=[53, 100]),
   midi.NoteOnEvent(tick=520, channel=2, data=[53, 0]),
   midi.NoteOnEvent(tick=0, channel=2, data=[60, 0]),
   midi.NoteOnEvent(tick=56, channel=2, data=[60, 100]),
   midi.NoteOnEvent(tick=0, channel=2, data=[53, 100]),
   midi.NoteOnEvent(tick=192, channel=2, data=[53, 0]),
   midi.NoteOnEvent(tick=0, channel=2, data=[60, 0]),
   midi.NoteOnEvent(tick=0, channel=2, data=[53, 100]),
   midi.NoteOnEvent(tick=0, channel=2, data=[60, 100]),
   midi.NoteOnEvent(tick=192, channel=2, data=[60, 0]),
   midi.NoteOnEvent(tick=0, channel=2, data=[53, 0]),
   midi.NoteOnEvent(tick=0, channel=2, data=[53, 100]),
   midi.NoteOnEvent(tick=0, channel=2, data=[60, 100]),
   midi.NoteOnEvent(tick=192, channel=2, data=[60, 0]),
   midi.NoteOnEvent(tick=0, channel=2, data=[53, 0]),
   midi.NoteOnEvent(tick=0, channel=2, data=[53, 100]),
   midi.NoteOnEvent(tick=0, channel=2, data=[60, 100]),
   midi.NoteOnEvent(tick=192, channel=2, data=[60, 0]),
   midi.NoteOnEvent(tick=0, channel=2, data=[53, 0]),
   midi.NoteOnEvent(tick=0, channel=2, data=[53, 100]),
   midi.NoteOnEvent(tick=0, channel=2, data=[60, 100]),
   midi.NoteOnEvent(tick=192, channel=2, data=[60, 0]),
   midi.NoteOnEvent(tick=0, channel=2, data=[53, 0]),
   midi.NoteOnEvent(tick=0, channel=2, data=[53, 100]),
   midi.NoteOnEvent(tick=0, channel=2, data=[60, 100]),
   midi.NoteOnEvent(tick=192, channel=2, data=[60, 0]),
   midi.NoteOnEvent(tick=0, channel=2, data=[53, 0]),
   midi.NoteOnEvent(tick=0, channel=2, data=[53, 100]),
   midi.NoteOnEvent(tick=0, channel=2, data=[60, 100]),
   midi.NoteOnEvent(tick=192, channel=2, data=[60, 0]),
   midi.NoteOnEvent(tick=0, channel=2, data=[53, 0]),
   midi.NoteOnEvent(tick=0, channel=2, data=[53, 100]),
   midi.NoteOnEvent(tick=0, channel=2, data=[60, 100]),
   midi.NoteOnEvent(tick=192, channel=2, data=[60, 0]),
   midi.NoteOnEvent(tick=0, channel=2, data=[53, 0]),
   midi.NoteOnEvent(tick=0, channel=2, data=[53, 100]),
   midi.NoteOnEvent(tick=0, channel=2, data=[60, 100]),
   midi.NoteOnEvent(tick=192, channel=2, data=[60, 0]),
   midi.NoteOnEvent(tick=0, channel=2, data=[53, 0]),
   midi.NoteOnEvent(tick=0, channel=2, data=[53, 100]),
   midi.NoteOnEvent(tick=0, channel=2, data=[60, 100]),
   midi.NoteOnEvent(tick=192, channel=2, data=[60, 0]),
   midi.NoteOnEvent(tick=0, channel=2, data=[53, 0]),
   midi.NoteOnEvent(tick=0, channel=2, data=[52, 100]),
   midi.NoteOnEvent(tick=132, channel=2, data=[52, 0]),
   midi.NoteOnEvent(tick=60, channel=2, data=[59, 100]),
   midi.NoteOnEvent(tick=132, channel=2, data=[59, 0]),
   midi.NoteOnEvent(tick=60, channel=2, data=[55, 100]),
   midi.NoteOnEvent(tick=64, channel=2, data=[55, 0]),
   midi.NoteOnEvent(tick=32, channel=2, data=[55, 100]),
   midi.NoteOnEvent(tick=64, channel=2, data=[55, 0]),
   midi.NoteOnEvent(tick=32, channel=2, data=[59, 100]),
   midi.NoteOnEvent(tick=0, channel=2, data=[52, 100]),
   midi.NoteOnEvent(tick=464, channel=2, data=[52, 0]),
   midi.NoteOnEvent(tick=0, channel=2, data=[59, 0]),
   midi.NoteOnEvent(tick=112, channel=2, data=[52, 100]),
   midi.NoteOnEvent(tick=132, channel=2, data=[52, 0]),
   midi.NoteOnEvent(tick=60, channel=2, data=[52, 100]),
   midi.NoteOnEvent(tick=132, channel=2, data=[52, 0]),
   midi.NoteOnEvent(tick=60, channel=2, data=[65, 100]),
   midi.NoteOnEvent(tick=0, channel=2, data=[59, 100]),
   midi.NoteOnEvent(tick=264, channel=2, data=[59, 0]),
   midi.NoteOnEvent(tick=0, channel=2, data=[65, 0]),
   midi.NoteOnEvent(tick=120, channel=2, data=[52, 100]),
   midi.NoteOnEvent(tick=132, channel=2, data=[52, 0]),
   midi.NoteOnEvent(tick=60, channel=2, data=[52, 100]),
   midi.NoteOnEvent(tick=132, channel=2, data=[52, 0]),
   midi.NoteOnEvent(tick=60, channel=2, data=[57, 100]),
   midi.NoteOnEvent(tick=64, channel=2, data=[57, 0]),
   midi.NoteOnEvent(tick=32, channel=2, data=[57, 100]),
   midi.NoteOnEvent(tick=64, channel=2, data=[57, 0]),
   midi.NoteOnEvent(tick=32, channel=2, data=[55, 100]),
   midi.NoteOnEvent(tick=396, channel=2, data=[55, 0]),
   midi.NoteOnEvent(tick=180, channel=2, data=[53, 100]),
   midi.NoteOnEvent(tick=132, channel=2, data=[53, 0]),
   midi.NoteOnEvent(tick=60, channel=2, data=[59, 100]),
   midi.NoteOnEvent(tick=132, channel=2, data=[59, 0]),
   midi.NoteOnEvent(tick=60, channel=2, data=[55, 100]),
   midi.NoteOnEvent(tick=64, channel=2, data=[55, 0]),
   midi.NoteOnEvent(tick=32, channel=2, data=[55, 100]),
   midi.NoteOnEvent(tick=64, channel=2, data=[55, 0]),
   midi.NoteOnEvent(tick=32, channel=2, data=[60, 100]),
   midi.NoteOnEvent(tick=0, channel=2, data=[53, 100]),
   midi.NoteOnEvent(tick=520, channel=2, data=[53, 0]),
   midi.NoteOnEvent(tick=0, channel=2, data=[60, 0]),
   midi.NoteOnEvent(tick=56, channel=2, data=[60, 100]),
   midi.NoteOnEvent(tick=0, channel=2, data=[53, 100]),
   midi.NoteOnEvent(tick=192, channel=2, data=[53, 0]),
   midi.NoteOnEvent(tick=0, channel=2, data=[60, 0]),
   midi.NoteOnEvent(tick=0, channel=2, data=[53, 100]),
   midi.NoteOnEvent(tick=0, channel=2, data=[60, 100]),
   midi.NoteOnEvent(tick=192, channel=2, data=[60, 0]),
   midi.NoteOnEvent(tick=0, channel=2, data=[53, 0]),
   midi.NoteOnEvent(tick=0, channel=2, data=[53, 100]),
   midi.NoteOnEvent(tick=0, channel=2, data=[60, 100]),
   midi.NoteOnEvent(tick=192, channel=2, data=[60, 0]),
   midi.NoteOnEvent(tick=0, channel=2, data=[53, 0]),
   midi.NoteOnEvent(tick=0, channel=2, data=[53, 100]),
   midi.NoteOnEvent(tick=0, channel=2, data=[60, 100]),
   midi.NoteOnEvent(tick=192, channel=2, data=[60, 0]),
   midi.NoteOnEvent(tick=0, channel=2, data=[53, 0]),
   midi.NoteOnEvent(tick=0, channel=2, data=[53, 100]),
   midi.NoteOnEvent(tick=0, channel=2, data=[60, 100]),
   midi.NoteOnEvent(tick=192, channel=2, data=[60, 0]),
   midi.NoteOnEvent(tick=0, channel=2, data=[53, 0]),
   midi.NoteOnEvent(tick=0, channel=2, data=[53, 100]),
   midi.NoteOnEvent(tick=0, channel=2, data=[60, 100]),
   midi.NoteOnEvent(tick=192, channel=2, data=[60, 0]),
   midi.NoteOnEvent(tick=0, channel=2, data=[53, 0]),
   midi.NoteOnEvent(tick=0, channel=2, data=[53, 100]),
   midi.NoteOnEvent(tick=0, channel=2, data=[60, 100]),
   midi.NoteOnEvent(tick=192, channel=2, data=[60, 0]),
   midi.NoteOnEvent(tick=0, channel=2, data=[53, 0]),
   midi.NoteOnEvent(tick=0, channel=2, data=[53, 100]),
   midi.NoteOnEvent(tick=0, channel=2, data=[60, 100]),
   midi.NoteOnEvent(tick=192, channel=2, data=[60, 0]),
   midi.NoteOnEvent(tick=0, channel=2, data=[53, 0]),
   midi.NoteOnEvent(tick=0, channel=2, data=[53, 100]),
   midi.NoteOnEvent(tick=0, channel=2, data=[60, 100]),
   midi.NoteOnEvent(tick=192, channel=2, data=[60, 0]),
   midi.NoteOnEvent(tick=0, channel=2, data=[53, 0]),
   midi.NoteOnEvent(tick=0, channel=2, data=[53, 100]),
   midi.NoteOnEvent(tick=0, channel=2, data=[60, 100]),
   midi.NoteOnEvent(tick=192, channel=2, data=[60, 0]),
   midi.NoteOnEvent(tick=0, channel=2, data=[53, 0]),
   midi.NoteOnEvent(tick=0, channel=2, data=[52, 100]),
   midi.NoteOnEvent(tick=132, channel=2, data=[52, 0]),
   midi.NoteOnEvent(tick=60, channel=2, data=[59, 100]),
   midi.NoteOnEvent(tick=132, channel=2, data=[59, 0]),
   midi.NoteOnEvent(tick=60, channel=2, data=[55, 100]),
   midi.NoteOnEvent(tick=64, channel=2, data=[55, 0]),
   midi.NoteOnEvent(tick=32, channel=2, data=[55, 100]),
   midi.NoteOnEvent(tick=64, channel=2, data=[55, 0]),
   midi.NoteOnEvent(tick=32, channel=2, data=[59, 100]),
   midi.NoteOnEvent(tick=0, channel=2, data=[52, 100]),
   midi.NoteOnEvent(tick=464, channel=2, data=[52, 0]),
   midi.NoteOnEvent(tick=0, channel=2, data=[59, 0]),
   midi.NoteOnEvent(tick=112, channel=2, data=[52, 100]),
   midi.NoteOnEvent(tick=132, channel=2, data=[52, 0]),
   midi.NoteOnEvent(tick=60, channel=2, data=[52, 100]),
   midi.NoteOnEvent(tick=132, channel=2, data=[52, 0]),
   midi.NoteOnEvent(tick=60, channel=2, data=[65, 100]),
   midi.NoteOnEvent(tick=0, channel=2, data=[59, 100]),
   midi.NoteOnEvent(tick=264, channel=2, data=[59, 0]),
   midi.NoteOnEvent(tick=0, channel=2, data=[65, 0]),
   midi.NoteOnEvent(tick=120, channel=2, data=[52, 100]),
   midi.NoteOnEvent(tick=132, channel=2, data=[52, 0]),
   midi.NoteOnEvent(tick=60, channel=2, data=[52, 100]),
   midi.NoteOnEvent(tick=132, channel=2, data=[52, 0]),
   midi.NoteOnEvent(tick=60, channel=2, data=[57, 100]),
   midi.NoteOnEvent(tick=64, channel=2, data=[57, 0]),
   midi.NoteOnEvent(tick=32, channel=2, data=[57, 100]),
   midi.NoteOnEvent(tick=64, channel=2, data=[57, 0]),
   midi.NoteOnEvent(tick=32, channel=2, data=[55, 100]),
   midi.NoteOnEvent(tick=396, channel=2, data=[55, 0]),
   midi.NoteOnEvent(tick=180, channel=2, data=[53, 100]),
   midi.NoteOnEvent(tick=132, channel=2, data=[53, 0]),
   midi.NoteOnEvent(tick=60, channel=2, data=[59, 100]),
   midi.NoteOnEvent(tick=132, channel=2, data=[59, 0]),
   midi.NoteOnEvent(tick=60, channel=2, data=[55, 100]),
   midi.NoteOnEvent(tick=64, channel=2, data=[55, 0]),
   midi.NoteOnEvent(tick=32, channel=2, data=[55, 100]),
   midi.NoteOnEvent(tick=64, channel=2, data=[55, 0]),
   midi.NoteOnEvent(tick=32, channel=2, data=[60, 100]),
   midi.NoteOnEvent(tick=0, channel=2, data=[53, 100]),
   midi.NoteOnEvent(tick=520, channel=2, data=[53, 0]),
   midi.NoteOnEvent(tick=0, channel=2, data=[60, 0]),
   midi.NoteOnEvent(tick=56, channel=2, data=[60, 100]),
   midi.NoteOnEvent(tick=0, channel=2, data=[53, 100]),
   midi.NoteOnEvent(tick=192, channel=2, data=[53, 0]),
   midi.NoteOnEvent(tick=0, channel=2, data=[60, 0]),
   midi.NoteOnEvent(tick=0, channel=2, data=[53, 100]),
   midi.NoteOnEvent(tick=0, channel=2, data=[60, 100]),
   midi.NoteOnEvent(tick=192, channel=2, data=[60, 0]),
   midi.NoteOnEvent(tick=0, channel=2, data=[53, 0]),
   midi.NoteOnEvent(tick=0, channel=2, data=[53, 100]),
   midi.NoteOnEvent(tick=0, channel=2, data=[60, 100]),
   midi.NoteOnEvent(tick=192, channel=2, data=[60, 0]),
   midi.NoteOnEvent(tick=0, channel=2, data=[53, 0]),
   midi.NoteOnEvent(tick=0, channel=2, data=[53, 100]),
   midi.NoteOnEvent(tick=0, channel=2, data=[60, 100]),
   midi.NoteOnEvent(tick=192, channel=2, data=[60, 0]),
   midi.NoteOnEvent(tick=0, channel=2, data=[53, 0]),
   midi.NoteOnEvent(tick=0, channel=2, data=[53, 100]),
   midi.NoteOnEvent(tick=0, channel=2, data=[60, 100]),
   midi.NoteOnEvent(tick=192, channel=2, data=[60, 0]),
   midi.NoteOnEvent(tick=0, channel=2, data=[53, 0]),
   midi.NoteOnEvent(tick=0, channel=2, data=[53, 100]),
   midi.NoteOnEvent(tick=0, channel=2, data=[60, 100]),
   midi.NoteOnEvent(tick=192, channel=2, data=[60, 0]),
   midi.NoteOnEvent(tick=0, channel=2, data=[53, 0]),
   midi.NoteOnEvent(tick=0, channel=2, data=[53, 100]),
   midi.NoteOnEvent(tick=0, channel=2, data=[60, 100]),
   midi.NoteOnEvent(tick=192, channel=2, data=[60, 0]),
   midi.NoteOnEvent(tick=0, channel=2, data=[53, 0]),
   midi.NoteOnEvent(tick=0, channel=2, data=[53, 100]),
   midi.NoteOnEvent(tick=0, channel=2, data=[60, 100]),
   midi.NoteOnEvent(tick=192, channel=2, data=[60, 0]),
   midi.NoteOnEvent(tick=0, channel=2, data=[53, 0]),
   midi.NoteOnEvent(tick=0, channel=2, data=[53, 100]),
   midi.NoteOnEvent(tick=0, channel=2, data=[60, 100]),
   midi.NoteOnEvent(tick=192, channel=2, data=[60, 0]),
   midi.NoteOnEvent(tick=0, channel=2, data=[53, 0]),
   midi.NoteOnEvent(tick=0, channel=2, data=[53, 100]),
   midi.NoteOnEvent(tick=0, channel=2, data=[60, 100]),
   midi.NoteOnEvent(tick=192, channel=2, data=[60, 0]),
   midi.NoteOnEvent(tick=0, channel=2, data=[53, 0]),
   midi.NoteOnEvent(tick=0, channel=2, data=[52, 100]),
   midi.NoteOnEvent(tick=132, channel=2, data=[52, 0]),
   midi.NoteOnEvent(tick=60, channel=2, data=[59, 100]),
   midi.NoteOnEvent(tick=132, channel=2, data=[59, 0]),
   midi.NoteOnEvent(tick=60, channel=2, data=[55, 100]),
   midi.NoteOnEvent(tick=64, channel=2, data=[55, 0]),
   midi.NoteOnEvent(tick=32, channel=2, data=[55, 100]),
   midi.NoteOnEvent(tick=64, channel=2, data=[55, 0]),
   midi.NoteOnEvent(tick=32, channel=2, data=[59, 100]),
   midi.NoteOnEvent(tick=0, channel=2, data=[52, 100]),
   midi.NoteOnEvent(tick=464, channel=2, data=[52, 0]),
   midi.NoteOnEvent(tick=0, channel=2, data=[59, 0]),
   midi.NoteOnEvent(tick=112, channel=2, data=[52, 100]),
   midi.NoteOnEvent(tick=132, channel=2, data=[52, 0]),
   midi.NoteOnEvent(tick=60, channel=2, data=[52, 100]),
   midi.NoteOnEvent(tick=132, channel=2, data=[52, 0]),
   midi.NoteOnEvent(tick=60, channel=2, data=[65, 100]),
   midi.NoteOnEvent(tick=0, channel=2, data=[59, 100]),
   midi.NoteOnEvent(tick=264, channel=2, data=[59, 0]),
   midi.NoteOnEvent(tick=0, channel=2, data=[65, 0]),
   midi.NoteOnEvent(tick=120, channel=2, data=[52, 100]),
   midi.NoteOnEvent(tick=132, channel=2, data=[52, 0]),
   midi.NoteOnEvent(tick=60, channel=2, data=[52, 100]),
   midi.NoteOnEvent(tick=132, channel=2, data=[52, 0]),
   midi.NoteOnEvent(tick=60, channel=2, data=[57, 100]),
   midi.NoteOnEvent(tick=64, channel=2, data=[57, 0]),
   midi.NoteOnEvent(tick=32, channel=2, data=[57, 100]),
   midi.NoteOnEvent(tick=64, channel=2, data=[57, 0]),
   midi.NoteOnEvent(tick=32, channel=2, data=[55, 100]),
   midi.NoteOnEvent(tick=396, channel=2, data=[55, 0]),
   midi.NoteOnEvent(tick=180, channel=2, data=[53, 100]),
   midi.NoteOnEvent(tick=132, channel=2, data=[53, 0]),
   midi.NoteOnEvent(tick=60, channel=2, data=[59, 100]),
   midi.NoteOnEvent(tick=132, channel=2, data=[59, 0]),
   midi.NoteOnEvent(tick=60, channel=2, data=[55, 100]),
   midi.NoteOnEvent(tick=64, channel=2, data=[55, 0]),
   midi.NoteOnEvent(tick=32, channel=2, data=[55, 100]),
   midi.NoteOnEvent(tick=64, channel=2, data=[55, 0]),
   midi.NoteOnEvent(tick=32, channel=2, data=[60, 100]),
   midi.NoteOnEvent(tick=0, channel=2, data=[53, 100]),
   midi.NoteOnEvent(tick=520, channel=2, data=[53, 0]),
   midi.NoteOnEvent(tick=0, channel=2, data=[60, 0]),
   midi.NoteOnEvent(tick=56, channel=2, data=[53, 100]),
   midi.NoteOnEvent(tick=0, channel=2, data=[60, 100]),
   midi.NoteOnEvent(tick=192, channel=2, data=[60, 0]),
   midi.NoteOnEvent(tick=0, channel=2, data=[53, 0]),
   midi.NoteOnEvent(tick=0, channel=2, data=[53, 100]),
   midi.NoteOnEvent(tick=0, channel=2, data=[60, 100]),
   midi.NoteOnEvent(tick=192, channel=2, data=[60, 0]),
   midi.NoteOnEvent(tick=0, channel=2, data=[53, 0]),
   midi.NoteOnEvent(tick=0, channel=2, data=[53, 100]),
   midi.NoteOnEvent(tick=0, channel=2, data=[60, 100]),
   midi.NoteOnEvent(tick=192, channel=2, data=[60, 0]),
   midi.NoteOnEvent(tick=0, channel=2, data=[53, 0]),
   midi.NoteOnEvent(tick=0, channel=2, data=[53, 100]),
   midi.NoteOnEvent(tick=0, channel=2, data=[60, 100]),
   midi.NoteOnEvent(tick=192, channel=2, data=[60, 0]),
   midi.NoteOnEvent(tick=0, channel=2, data=[53, 0]),
   midi.NoteOnEvent(tick=0, channel=2, data=[53, 100]),
   midi.NoteOnEvent(tick=0, channel=2, data=[60, 100]),
   midi.NoteOnEvent(tick=192, channel=2, data=[60, 0]),
   midi.NoteOnEvent(tick=0, channel=2, data=[53, 0]),
   midi.NoteOnEvent(tick=0, channel=2, data=[53, 100]),
   midi.NoteOnEvent(tick=0, channel=2, data=[60, 100]),
   midi.NoteOnEvent(tick=192, channel=2, data=[60, 0]),
   midi.NoteOnEvent(tick=0, channel=2, data=[53, 0]),
   midi.NoteOnEvent(tick=0, channel=2, data=[53, 100]),
   midi.NoteOnEvent(tick=0, channel=2, data=[60, 100]),
   midi.NoteOnEvent(tick=168, channel=2, data=[60, 0]),
   midi.NoteOnEvent(tick=0, channel=2, data=[53, 0]),
   midi.NoteOnEvent(tick=0, channel=2, data=[53, 100]),
   midi.NoteOnEvent(tick=0, channel=2, data=[60, 100]),
   midi.NoteOnEvent(tick=168, channel=2, data=[60, 0]),
   midi.NoteOnEvent(tick=0, channel=2, data=[53, 0]),
   midi.NoteOnEvent(tick=48, channel=2, data=[53, 100]),
   midi.NoteOnEvent(tick=0, channel=2, data=[60, 100]),
   midi.NoteOnEvent(tick=168, channel=2, data=[60, 0]),
   midi.NoteOnEvent(tick=0, channel=2, data=[53, 0]),
   midi.NoteOnEvent(tick=0, channel=2, data=[53, 100]),
   midi.NoteOnEvent(tick=0, channel=2, data=[60, 100]),
   midi.NoteOnEvent(tick=168, channel=2, data=[60, 0]),
   midi.NoteOnEvent(tick=0, channel=2, data=[53, 0]),
   midi.NoteOnEvent(tick=48, channel=2, data=[52, 100]),
   midi.NoteOnEvent(tick=168, channel=2, data=[52, 0]),
   midi.NoteOnEvent(tick=0, channel=2, data=[59, 100]),
   midi.NoteOnEvent(tick=168, channel=2, data=[59, 0]),
   midi.NoteOnEvent(tick=48, channel=2, data=[55, 100]),
   midi.NoteOnEvent(tick=64, channel=2, data=[55, 0]),
   midi.NoteOnEvent(tick=32, channel=2, data=[55, 100]),
   midi.NoteOnEvent(tick=64, channel=2, data=[55, 0]),
   midi.NoteOnEvent(tick=32, channel=2, data=[52, 100]),
   midi.NoteOnEvent(tick=132, channel=2, data=[52, 0]),
   midi.NoteOnEvent(tick=60, channel=2, data=[59, 100]),
   midi.NoteOnEvent(tick=132, channel=2, data=[59, 0]),
   midi.NoteOnEvent(tick=60, channel=2, data=[62, 100]),
   midi.NoteOnEvent(tick=64, channel=2, data=[62, 0]),
   midi.NoteOnEvent(tick=32, channel=2, data=[64, 100]),
   midi.NoteOnEvent(tick=64, channel=2, data=[64, 0]),
   midi.NoteOnEvent(tick=32, channel=2, data=[53, 100]),
   midi.NoteOnEvent(tick=132, channel=2, data=[53, 0]),
   midi.NoteOnEvent(tick=60, channel=2, data=[60, 100]),
   midi.NoteOnEvent(tick=132, channel=2, data=[60, 0]),
   midi.NoteOnEvent(tick=60, channel=2, data=[54, 100]),
   midi.NoteOnEvent(tick=132, channel=2, data=[54, 0]),
   midi.NoteOnEvent(tick=60, channel=2, data=[60, 100]),
   midi.NoteOnEvent(tick=132, channel=2, data=[60, 0]),
   midi.NoteOnEvent(tick=60, channel=2, data=[66, 100]),
   midi.NoteOnEvent(tick=64, channel=2, data=[66, 0]),
   midi.NoteOnEvent(tick=32, channel=2, data=[60, 100]),
   midi.NoteOnEvent(tick=64, channel=2, data=[60, 0]),
   midi.NoteOnEvent(tick=32, channel=2, data=[55, 100]),
   midi.NoteOnEvent(tick=132, channel=2, data=[55, 0]),
   midi.NoteOnEvent(tick=60, channel=2, data=[67, 100]),
   midi.NoteOnEvent(tick=132, channel=2, data=[67, 0]),
   midi.NoteOnEvent(tick=60, channel=2, data=[52, 100]),
   midi.NoteOnEvent(tick=132, channel=2, data=[52, 0]),
   midi.NoteOnEvent(tick=60, channel=2, data=[59, 100]),
   midi.NoteOnEvent(tick=132, channel=2, data=[59, 0]),
   midi.NoteOnEvent(tick=60, channel=2, data=[62, 100]),
   midi.NoteOnEvent(tick=64, channel=2, data=[62, 0]),
   midi.NoteOnEvent(tick=32, channel=2, data=[64, 100]),
   midi.NoteOnEvent(tick=64, channel=2, data=[64, 0]),
   midi.NoteOnEvent(tick=32, channel=2, data=[53, 100]),
   midi.NoteOnEvent(tick=132, channel=2, data=[53, 0]),
   midi.NoteOnEvent(tick=60, channel=2, data=[60, 100]),
   midi.NoteOnEvent(tick=132, channel=2, data=[60, 0]),
   midi.NoteOnEvent(tick=60, channel=2, data=[54, 100]),
   midi.NoteOnEvent(tick=132, channel=2, data=[54, 0]),
   midi.NoteOnEvent(tick=60, channel=2, data=[60, 100]),
   midi.NoteOnEvent(tick=132, channel=2, data=[60, 0]),
   midi.NoteOnEvent(tick=60, channel=2, data=[66, 100]),
   midi.NoteOnEvent(tick=64, channel=2, data=[66, 0]),
   midi.NoteOnEvent(tick=32, channel=2, data=[60, 100]),
   midi.NoteOnEvent(tick=64, channel=2, data=[60, 0]),
   midi.NoteOnEvent(tick=32, channel=2, data=[55, 100]),
   midi.NoteOnEvent(tick=132, channel=2, data=[55, 0]),
   midi.NoteOnEvent(tick=60, channel=2, data=[67, 100]),
   midi.NoteOnEvent(tick=132, channel=2, data=[67, 0]),
   midi.NoteOnEvent(tick=60, channel=2, data=[52, 100]),
   midi.NoteOnEvent(tick=132, channel=2, data=[52, 0]),
   midi.NoteOnEvent(tick=60, channel=2, data=[59, 100]),
   midi.NoteOnEvent(tick=132, channel=2, data=[59, 0]),
   midi.NoteOnEvent(tick=60, channel=2, data=[62, 100]),
   midi.NoteOnEvent(tick=64, channel=2, data=[62, 0]),
   midi.NoteOnEvent(tick=32, channel=2, data=[64, 100]),
   midi.NoteOnEvent(tick=64, channel=2, data=[64, 0]),
   midi.NoteOnEvent(tick=32, channel=2, data=[53, 100]),
   midi.NoteOnEvent(tick=132, channel=2, data=[53, 0]),
   midi.NoteOnEvent(tick=60, channel=2, data=[60, 100]),
   midi.NoteOnEvent(tick=132, channel=2, data=[60, 0]),
   midi.NoteOnEvent(tick=60, channel=2, data=[54, 100]),
   midi.NoteOnEvent(tick=132, channel=2, data=[54, 0]),
   midi.NoteOnEvent(tick=60, channel=2, data=[60, 100]),
   midi.NoteOnEvent(tick=132, channel=2, data=[60, 0]),
   midi.NoteOnEvent(tick=60, channel=2, data=[66, 100]),
   midi.NoteOnEvent(tick=64, channel=2, data=[66, 0]),
   midi.NoteOnEvent(tick=32, channel=2, data=[60, 100]),
   midi.NoteOnEvent(tick=64, channel=2, data=[60, 0]),
   midi.NoteOnEvent(tick=32, channel=2, data=[55, 100]),
   midi.NoteOnEvent(tick=132, channel=2, data=[55, 0]),
   midi.NoteOnEvent(tick=60, channel=2, data=[67, 100]),
   midi.NoteOnEvent(tick=132, channel=2, data=[67, 0]),
   midi.NoteOnEvent(tick=60, channel=2, data=[52, 100]),
   midi.NoteOnEvent(tick=132, channel=2, data=[52, 0]),
   midi.NoteOnEvent(tick=60, channel=2, data=[59, 100]),
   midi.NoteOnEvent(tick=132, channel=2, data=[59, 0]),
   midi.NoteOnEvent(tick=60, channel=2, data=[62, 100]),
   midi.NoteOnEvent(tick=64, channel=2, data=[62, 0]),
   midi.NoteOnEvent(tick=32, channel=2, data=[64, 100]),
   midi.NoteOnEvent(tick=64, channel=2, data=[64, 0]),
   midi.NoteOnEvent(tick=32, channel=2, data=[53, 100]),
   midi.NoteOnEvent(tick=132, channel=2, data=[53, 0]),
   midi.NoteOnEvent(tick=60, channel=2, data=[60, 100]),
   midi.NoteOnEvent(tick=132, channel=2, data=[60, 0]),
   midi.NoteOnEvent(tick=60, channel=2, data=[54, 100]),
   midi.NoteOnEvent(tick=132, channel=2, data=[54, 0]),
   midi.NoteOnEvent(tick=60, channel=2, data=[60, 100]),
   midi.NoteOnEvent(tick=132, channel=2, data=[60, 0]),
   midi.NoteOnEvent(tick=60, channel=2, data=[66, 100]),
   midi.NoteOnEvent(tick=64, channel=2, data=[66, 0]),
   midi.NoteOnEvent(tick=32, channel=2, data=[60, 100]),
   midi.NoteOnEvent(tick=64, channel=2, data=[60, 0]),
   midi.NoteOnEvent(tick=32, channel=2, data=[55, 100]),
   midi.NoteOnEvent(tick=132, channel=2, data=[55, 0]),
   midi.NoteOnEvent(tick=60, channel=2, data=[67, 100]),
   midi.NoteOnEvent(tick=132, channel=2, data=[67, 0]),
   midi.NoteOnEvent(tick=60, channel=2, data=[52, 100]),
   midi.NoteOnEvent(tick=132, channel=2, data=[52, 0]),
   midi.NoteOnEvent(tick=60, channel=2, data=[59, 100]),
   midi.NoteOnEvent(tick=132, channel=2, data=[59, 0]),
   midi.NoteOnEvent(tick=60, channel=2, data=[62, 100]),
   midi.NoteOnEvent(tick=64, channel=2, data=[62, 0]),
   midi.NoteOnEvent(tick=32, channel=2, data=[64, 100]),
   midi.NoteOnEvent(tick=64, channel=2, data=[64, 0]),
   midi.NoteOnEvent(tick=32, channel=2, data=[53, 100]),
   midi.NoteOnEvent(tick=132, channel=2, data=[53, 0]),
   midi.NoteOnEvent(tick=60, channel=2, data=[60, 100]),
   midi.NoteOnEvent(tick=132, channel=2, data=[60, 0]),
   midi.NoteOnEvent(tick=60, channel=2, data=[54, 100]),
   midi.NoteOnEvent(tick=132, channel=2, data=[54, 0]),
   midi.NoteOnEvent(tick=60, channel=2, data=[60, 100]),
   midi.NoteOnEvent(tick=132, channel=2, data=[60, 0]),
   midi.NoteOnEvent(tick=60, channel=2, data=[66, 100]),
   midi.NoteOnEvent(tick=64, channel=2, data=[66, 0]),
   midi.NoteOnEvent(tick=32, channel=2, data=[60, 100]),
   midi.NoteOnEvent(tick=64, channel=2, data=[60, 0]),
   midi.NoteOnEvent(tick=32, channel=2, data=[55, 100]),
   midi.NoteOnEvent(tick=132, channel=2, data=[55, 0]),
   midi.NoteOnEvent(tick=60, channel=2, data=[67, 100]),
   midi.NoteOnEvent(tick=132, channel=2, data=[67, 0]),
   midi.NoteOnEvent(tick=60, channel=2, data=[52, 100]),
   midi.NoteOnEvent(tick=132, channel=2, data=[52, 0]),
   midi.NoteOnEvent(tick=60, channel=2, data=[59, 100]),
   midi.NoteOnEvent(tick=132, channel=2, data=[59, 0]),
   midi.NoteOnEvent(tick=60, channel=2, data=[62, 100]),
   midi.NoteOnEvent(tick=64, channel=2, data=[62, 0]),
   midi.NoteOnEvent(tick=32, channel=2, data=[64, 100]),
   midi.NoteOnEvent(tick=64, channel=2, data=[64, 0]),
   midi.NoteOnEvent(tick=32, channel=2, data=[53, 100]),
   midi.NoteOnEvent(tick=132, channel=2, data=[53, 0]),
   midi.NoteOnEvent(tick=60, channel=2, data=[60, 100]),
   midi.NoteOnEvent(tick=132, channel=2, data=[60, 0]),
   midi.NoteOnEvent(tick=60, channel=2, data=[54, 100]),
   midi.NoteOnEvent(tick=132, channel=2, data=[54, 0]),
   midi.NoteOnEvent(tick=60, channel=2, data=[60, 100]),
   midi.NoteOnEvent(tick=132, channel=2, data=[60, 0]),
   midi.NoteOnEvent(tick=60, channel=2, data=[66, 100]),
   midi.NoteOnEvent(tick=64, channel=2, data=[66, 0]),
   midi.NoteOnEvent(tick=32, channel=2, data=[60, 100]),
   midi.NoteOnEvent(tick=64, channel=2, data=[60, 0]),
   midi.NoteOnEvent(tick=32, channel=2, data=[55, 100]),
   midi.NoteOnEvent(tick=132, channel=2, data=[55, 0]),
   midi.NoteOnEvent(tick=60, channel=2, data=[67, 100]),
   midi.NoteOnEvent(tick=132, channel=2, data=[67, 0]),
   midi.NoteOnEvent(tick=60, channel=2, data=[52, 100]),
   midi.NoteOnEvent(tick=132, channel=2, data=[52, 0]),
   midi.NoteOnEvent(tick=60, channel=2, data=[59, 100]),
   midi.NoteOnEvent(tick=132, channel=2, data=[59, 0]),
   midi.NoteOnEvent(tick=60, channel=2, data=[62, 100]),
   midi.NoteOnEvent(tick=64, channel=2, data=[62, 0]),
   midi.NoteOnEvent(tick=32, channel=2, data=[64, 100]),
   midi.NoteOnEvent(tick=64, channel=2, data=[64, 0]),
   midi.NoteOnEvent(tick=32, channel=2, data=[53, 100]),
   midi.NoteOnEvent(tick=132, channel=2, data=[53, 0]),
   midi.NoteOnEvent(tick=60, channel=2, data=[60, 100]),
   midi.NoteOnEvent(tick=132, channel=2, data=[60, 0]),
   midi.NoteOnEvent(tick=60, channel=2, data=[54, 100]),
   midi.NoteOnEvent(tick=132, channel=2, data=[54, 0]),
   midi.NoteOnEvent(tick=60, channel=2, data=[60, 100]),
   midi.NoteOnEvent(tick=132, channel=2, data=[60, 0]),
   midi.NoteOnEvent(tick=60, channel=2, data=[66, 100]),
   midi.NoteOnEvent(tick=64, channel=2, data=[66, 0]),
   midi.NoteOnEvent(tick=32, channel=2, data=[60, 100]),
   midi.NoteOnEvent(tick=64, channel=2, data=[60, 0]),
   midi.NoteOnEvent(tick=32, channel=2, data=[55, 100]),
   midi.NoteOnEvent(tick=132, channel=2, data=[55, 0]),
   midi.NoteOnEvent(tick=60, channel=2, data=[67, 100]),
   midi.NoteOnEvent(tick=132, channel=2, data=[67, 0]),
   midi.NoteOnEvent(tick=60, channel=2, data=[52, 100]),
   midi.NoteOnEvent(tick=132, channel=2, data=[52, 0]),
   midi.NoteOnEvent(tick=60, channel=2, data=[59, 100]),
   midi.NoteOnEvent(tick=132, channel=2, data=[59, 0]),
   midi.NoteOnEvent(tick=60, channel=2, data=[62, 100]),
   midi.NoteOnEvent(tick=64, channel=2, data=[62, 0]),
   midi.NoteOnEvent(tick=32, channel=2, data=[64, 100]),
   midi.NoteOnEvent(tick=64, channel=2, data=[64, 0]),
   midi.NoteOnEvent(tick=32, channel=2, data=[53, 100]),
   midi.NoteOnEvent(tick=132, channel=2, data=[53, 0]),
   midi.NoteOnEvent(tick=60, channel=2, data=[60, 100]),
   midi.NoteOnEvent(tick=132, channel=2, data=[60, 0]),
   midi.NoteOnEvent(tick=60, channel=2, data=[54, 100]),
   midi.NoteOnEvent(tick=132, channel=2, data=[54, 0]),
   midi.NoteOnEvent(tick=60, channel=2, data=[60, 100]),
   midi.NoteOnEvent(tick=132, channel=2, data=[60, 0]),
   midi.NoteOnEvent(tick=60, channel=2, data=[66, 100]),
   midi.NoteOnEvent(tick=64, channel=2, data=[66, 0]),
   midi.NoteOnEvent(tick=32, channel=2, data=[60, 100]),
   midi.NoteOnEvent(tick=64, channel=2, data=[60, 0]),
   midi.NoteOnEvent(tick=32, channel=2, data=[55, 100]),
   midi.NoteOnEvent(tick=132, channel=2, data=[55, 0]),
   midi.NoteOnEvent(tick=60, channel=2, data=[67, 100]),
   midi.NoteOnEvent(tick=132, channel=2, data=[67, 0]),
   midi.NoteOnEvent(tick=60, channel=2, data=[52, 100]),
   midi.NoteOnEvent(tick=132, channel=2, data=[52, 0]),
   midi.NoteOnEvent(tick=60, channel=2, data=[59, 100]),
   midi.NoteOnEvent(tick=132, channel=2, data=[59, 0]),
   midi.NoteOnEvent(tick=60, channel=2, data=[62, 100]),
   midi.NoteOnEvent(tick=64, channel=2, data=[62, 0]),
   midi.NoteOnEvent(tick=32, channel=2, data=[64, 100]),
   midi.NoteOnEvent(tick=64, channel=2, data=[64, 0]),
   midi.NoteOnEvent(tick=32, channel=2, data=[53, 100]),
   midi.NoteOnEvent(tick=132, channel=2, data=[53, 0]),
   midi.NoteOnEvent(tick=60, channel=2, data=[60, 100]),
   midi.NoteOnEvent(tick=132, channel=2, data=[60, 0]),
   midi.NoteOnEvent(tick=60, channel=2, data=[54, 100]),
   midi.NoteOnEvent(tick=132, channel=2, data=[54, 0]),
   midi.NoteOnEvent(tick=60, channel=2, data=[60, 100]),
   midi.NoteOnEvent(tick=132, channel=2, data=[60, 0]),
   midi.NoteOnEvent(tick=60, channel=2, data=[66, 100]),
   midi.NoteOnEvent(tick=64, channel=2, data=[66, 0]),
   midi.NoteOnEvent(tick=32, channel=2, data=[60, 100]),
   midi.NoteOnEvent(tick=64, channel=2, data=[60, 0]),
   midi.NoteOnEvent(tick=32, channel=2, data=[55, 100]),
   midi.NoteOnEvent(tick=132, channel=2, data=[55, 0]),
   midi.NoteOnEvent(tick=60, channel=2, data=[67, 100]),
   midi.NoteOnEvent(tick=132, channel=2, data=[67, 0]),
   midi.NoteOnEvent(tick=60, channel=2, data=[52, 100]),
   midi.NoteOnEvent(tick=132, channel=2, data=[52, 0]),
   midi.NoteOnEvent(tick=60, channel=2, data=[59, 100]),
   midi.NoteOnEvent(tick=132, channel=2, data=[59, 0]),
   midi.NoteOnEvent(tick=60, channel=2, data=[62, 100]),
   midi.NoteOnEvent(tick=64, channel=2, data=[62, 0]),
   midi.NoteOnEvent(tick=32, channel=2, data=[64, 100]),
   midi.NoteOnEvent(tick=64, channel=2, data=[64, 0]),
   midi.NoteOnEvent(tick=32, channel=2, data=[53, 100]),
   midi.NoteOnEvent(tick=132, channel=2, data=[53, 0]),
   midi.NoteOnEvent(tick=60, channel=2, data=[60, 100]),
   midi.NoteOnEvent(tick=132, channel=2, data=[60, 0]),
   midi.NoteOnEvent(tick=60, channel=2, data=[54, 100]),
   midi.NoteOnEvent(tick=132, channel=2, data=[54, 0]),
   midi.NoteOnEvent(tick=60, channel=2, data=[60, 100]),
   midi.NoteOnEvent(tick=132, channel=2, data=[60, 0]),
   midi.NoteOnEvent(tick=60, channel=2, data=[66, 100]),
   midi.NoteOnEvent(tick=64, channel=2, data=[66, 0]),
   midi.NoteOnEvent(tick=32, channel=2, data=[60, 100]),
   midi.NoteOnEvent(tick=64, channel=2, data=[60, 0]),
   midi.NoteOnEvent(tick=32, channel=2, data=[55, 100]),
   midi.NoteOnEvent(tick=132, channel=2, data=[55, 0]),
   midi.NoteOnEvent(tick=60, channel=2, data=[67, 100]),
   midi.NoteOnEvent(tick=132, channel=2, data=[67, 0]),
   midi.NoteOnEvent(tick=60, channel=2, data=[52, 100]),
   midi.NoteOnEvent(tick=132, channel=2, data=[52, 0]),
   midi.NoteOnEvent(tick=60, channel=2, data=[59, 100]),
   midi.NoteOnEvent(tick=132, channel=2, data=[59, 0]),
   midi.NoteOnEvent(tick=60, channel=2, data=[62, 100]),
   midi.NoteOnEvent(tick=64, channel=2, data=[62, 0]),
   midi.NoteOnEvent(tick=32, channel=2, data=[64, 100]),
   midi.NoteOnEvent(tick=64, channel=2, data=[64, 0]),
   midi.NoteOnEvent(tick=32, channel=2, data=[53, 100]),
   midi.NoteOnEvent(tick=132, channel=2, data=[53, 0]),
   midi.NoteOnEvent(tick=60, channel=2, data=[60, 100]),
   midi.NoteOnEvent(tick=132, channel=2, data=[60, 0]),
   midi.NoteOnEvent(tick=60, channel=2, data=[54, 100]),
   midi.NoteOnEvent(tick=132, channel=2, data=[54, 0]),
   midi.NoteOnEvent(tick=60, channel=2, data=[60, 100]),
   midi.NoteOnEvent(tick=132, channel=2, data=[60, 0]),
   midi.NoteOnEvent(tick=60, channel=2, data=[66, 100]),
   midi.NoteOnEvent(tick=64, channel=2, data=[66, 0]),
   midi.NoteOnEvent(tick=32, channel=2, data=[60, 100]),
   midi.NoteOnEvent(tick=64, channel=2, data=[60, 0]),
   midi.NoteOnEvent(tick=32, channel=2, data=[55, 100]),
   midi.NoteOnEvent(tick=132, channel=2, data=[55, 0]),
   midi.NoteOnEvent(tick=60, channel=2, data=[67, 100]),
   midi.NoteOnEvent(tick=132, channel=2, data=[67, 0]),
   midi.NoteOnEvent(tick=60, channel=2, data=[52, 100]),
   midi.NoteOnEvent(tick=132, channel=2, data=[52, 0]),
   midi.NoteOnEvent(tick=60, channel=2, data=[59, 100]),
   midi.NoteOnEvent(tick=132, channel=2, data=[59, 0]),
   midi.NoteOnEvent(tick=60, channel=2, data=[62, 100]),
   midi.NoteOnEvent(tick=64, channel=2, data=[62, 0]),
   midi.NoteOnEvent(tick=32, channel=2, data=[64, 100]),
   midi.NoteOnEvent(tick=64, channel=2, data=[64, 0]),
   midi.NoteOnEvent(tick=32, channel=2, data=[53, 100]),
   midi.NoteOnEvent(tick=132, channel=2, data=[53, 0]),
   midi.NoteOnEvent(tick=60, channel=2, data=[60, 100]),
   midi.NoteOnEvent(tick=132, channel=2, data=[60, 0]),
   midi.NoteOnEvent(tick=60, channel=2, data=[54, 100]),
   midi.NoteOnEvent(tick=132, channel=2, data=[54, 0]),
   midi.NoteOnEvent(tick=60, channel=2, data=[60, 100]),
   midi.NoteOnEvent(tick=132, channel=2, data=[60, 0]),
   midi.NoteOnEvent(tick=60, channel=2, data=[66, 100]),
   midi.NoteOnEvent(tick=64, channel=2, data=[66, 0]),
   midi.NoteOnEvent(tick=32, channel=2, data=[60, 100]),
   midi.NoteOnEvent(tick=64, channel=2, data=[60, 0]),
   midi.NoteOnEvent(tick=32, channel=2, data=[55, 100]),
   midi.NoteOnEvent(tick=132, channel=2, data=[55, 0]),
   midi.NoteOnEvent(tick=60, channel=2, data=[67, 100]),
   midi.NoteOnEvent(tick=132, channel=2, data=[67, 0]),
   midi.NoteOnEvent(tick=60, channel=2, data=[64, 100]),
   midi.NoteOnEvent(tick=132, channel=2, data=[64, 0]),
   midi.NoteOnEvent(tick=60, channel=2, data=[71, 100]),
   midi.NoteOnEvent(tick=132, channel=2, data=[71, 0]),
   midi.NoteOnEvent(tick=60, channel=2, data=[74, 100]),
   midi.NoteOnEvent(tick=64, channel=2, data=[74, 0]),
   midi.NoteOnEvent(tick=32, channel=2, data=[76, 100]),
   midi.NoteOnEvent(tick=64, channel=2, data=[76, 0]),
   midi.NoteOnEvent(tick=32, channel=2, data=[65, 100]),
   midi.NoteOnEvent(tick=132, channel=2, data=[65, 0]),
   midi.NoteOnEvent(tick=60, channel=2, data=[72, 100]),
   midi.NoteOnEvent(tick=132, channel=2, data=[72, 0]),
   midi.NoteOnEvent(tick=60, channel=2, data=[66, 100]),
   midi.NoteOnEvent(tick=132, channel=2, data=[66, 0]),
   midi.NoteOnEvent(tick=60, channel=2, data=[73, 100]),
   midi.NoteOnEvent(tick=132, channel=2, data=[73, 0]),
   midi.NoteOnEvent(tick=60, channel=2, data=[78, 100]),
   midi.NoteOnEvent(tick=64, channel=2, data=[78, 0]),
   midi.NoteOnEvent(tick=32, channel=2, data=[73, 100]),
   midi.NoteOnEvent(tick=64, channel=2, data=[73, 0]),
   midi.NoteOnEvent(tick=32, channel=2, data=[67, 100]),
   midi.NoteOnEvent(tick=132, channel=2, data=[67, 0]),
   midi.NoteOnEvent(tick=60, channel=2, data=[79, 100]),
   midi.NoteOnEvent(tick=132, channel=2, data=[79, 0]),
   midi.NoteOnEvent(tick=60, channel=2, data=[64, 100]),
   midi.NoteOnEvent(tick=132, channel=2, data=[64, 0]),
   midi.NoteOnEvent(tick=60, channel=2, data=[71, 100]),
   midi.NoteOnEvent(tick=132, channel=2, data=[71, 0]),
   midi.NoteOnEvent(tick=60, channel=2, data=[74, 100]),
   midi.NoteOnEvent(tick=64, channel=2, data=[74, 0]),
   midi.NoteOnEvent(tick=32, channel=2, data=[76, 100]),
   midi.NoteOnEvent(tick=64, channel=2, data=[76, 0]),
   midi.NoteOnEvent(tick=32, channel=2, data=[65, 100]),
   midi.NoteOnEvent(tick=132, channel=2, data=[65, 0]),
   midi.NoteOnEvent(tick=60, channel=2, data=[72, 100]),
   midi.NoteOnEvent(tick=132, channel=2, data=[72, 0]),
   midi.NoteOnEvent(tick=60, channel=2, data=[66, 100]),
   midi.NoteOnEvent(tick=132, channel=2, data=[66, 0]),
   midi.NoteOnEvent(tick=60, channel=2, data=[73, 100]),
   midi.NoteOnEvent(tick=132, channel=2, data=[73, 0]),
   midi.NoteOnEvent(tick=60, channel=2, data=[78, 100]),
   midi.NoteOnEvent(tick=64, channel=2, data=[78, 0]),
   midi.NoteOnEvent(tick=32, channel=2, data=[73, 100]),
   midi.NoteOnEvent(tick=64, channel=2, data=[73, 0]),
   midi.NoteOnEvent(tick=32, channel=2, data=[67, 100]),
   midi.NoteOnEvent(tick=132, channel=2, data=[67, 0]),
   midi.NoteOnEvent(tick=60, channel=2, data=[79, 100]),
   midi.NoteOnEvent(tick=132, channel=2, data=[79, 0]),
   midi.NoteOnEvent(tick=60, channel=2, data=[64, 100]),
   midi.NoteOnEvent(tick=132, channel=2, data=[64, 0]),
   midi.NoteOnEvent(tick=60, channel=2, data=[64, 100]),
   midi.NoteOnEvent(tick=132, channel=2, data=[64, 0]),
   midi.NoteOnEvent(tick=60, channel=2, data=[71, 100]),
   midi.NoteOnEvent(tick=0, channel=2, data=[76, 100]),
   midi.NoteOnEvent(tick=64, channel=2, data=[76, 0]),
   midi.NoteOnEvent(tick=0, channel=2, data=[71, 0]),
   midi.NoteOnEvent(tick=32, channel=2, data=[71, 100]),
   midi.NoteOnEvent(tick=0, channel=2, data=[76, 100]),
   midi.NoteOnEvent(tick=64, channel=2, data=[76, 0]),
   midi.NoteOnEvent(tick=0, channel=2, data=[71, 0]),
   midi.NoteOnEvent(tick=32, channel=2, data=[63, 100]),
   midi.NoteOnEvent(tick=132, channel=2, data=[63, 0]),
   midi.NoteOnEvent(tick=60, channel=2, data=[75, 100]),
   midi.NoteOnEvent(tick=0, channel=2, data=[70, 100]),
   midi.NoteOnEvent(tick=132, channel=2, data=[70, 0]),
   midi.NoteOnEvent(tick=0, channel=2, data=[75, 0]),
   midi.NoteOnEvent(tick=60, channel=2, data=[62, 100]),
   midi.NoteOnEvent(tick=132, channel=2, data=[62, 0]),
   midi.NoteOnEvent(tick=60, channel=2, data=[62, 100]),
   midi.NoteOnEvent(tick=132, channel=2, data=[62, 0]),
   midi.NoteOnEvent(tick=60, channel=2, data=[69, 100]),
   midi.NoteOnEvent(tick=0, channel=2, data=[74, 100]),
   midi.NoteOnEvent(tick=64, channel=2, data=[74, 0]),
   midi.NoteOnEvent(tick=0, channel=2, data=[69, 0]),
   midi.NoteOnEvent(tick=32, channel=2, data=[69, 100]),
   midi.NoteOnEvent(tick=0, channel=2, data=[74, 100]),
   midi.NoteOnEvent(tick=64, channel=2, data=[74, 0]),
   midi.NoteOnEvent(tick=0, channel=2, data=[69, 0]),
   midi.NoteOnEvent(tick=32, channel=2, data=[61, 100]),
   midi.NoteOnEvent(tick=132, channel=2, data=[61, 0]),
   midi.NoteOnEvent(tick=60, channel=2, data=[73, 100]),
   midi.NoteOnEvent(tick=0, channel=2, data=[68, 100]),
   midi.NoteOnEvent(tick=132, channel=2, data=[68, 0]),
   midi.NoteOnEvent(tick=0, channel=2, data=[73, 0]),
   midi.NoteOnEvent(tick=60, channel=2, data=[60, 100]),
   midi.NoteOnEvent(tick=132, channel=2, data=[60, 0]),
   midi.NoteOnEvent(tick=60, channel=2, data=[60, 100]),
   midi.NoteOnEvent(tick=132, channel=2, data=[60, 0]),
   midi.NoteOnEvent(tick=60, channel=2, data=[72, 100]),
   midi.NoteOnEvent(tick=0, channel=2, data=[67, 100]),
   midi.NoteOnEvent(tick=64, channel=2, data=[67, 0]),
   midi.NoteOnEvent(tick=0, channel=2, data=[72, 0]),
   midi.NoteOnEvent(tick=32, channel=2, data=[72, 100]),
   midi.NoteOnEvent(tick=0, channel=2, data=[67, 100]),
   midi.NoteOnEvent(tick=64, channel=2, data=[67, 0]),
   midi.NoteOnEvent(tick=0, channel=2, data=[72, 0]),
   midi.NoteOnEvent(tick=32, channel=2, data=[59, 100]),
   midi.NoteOnEvent(tick=132, channel=2, data=[59, 0]),
   midi.NoteOnEvent(tick=60, channel=2, data=[71, 100]),
   midi.NoteOnEvent(tick=0, channel=2, data=[66, 100]),
   midi.NoteOnEvent(tick=132, channel=2, data=[66, 0]),
   midi.NoteOnEvent(tick=0, channel=2, data=[71, 0]),
   midi.NoteOnEvent(tick=60, channel=2, data=[58, 100]),
   midi.NoteOnEvent(tick=132, channel=2, data=[58, 0]),
   midi.NoteOnEvent(tick=60, channel=2, data=[58, 100]),
   midi.NoteOnEvent(tick=64, channel=2, data=[58, 0]),
   midi.NoteOnEvent(tick=32, channel=2, data=[58, 100]),
   midi.NoteOnEvent(tick=64, channel=2, data=[58, 0]),
   midi.NoteOnEvent(tick=32, channel=2, data=[57, 100]),
   midi.NoteOnEvent(tick=132, channel=2, data=[57, 0]),
   midi.NoteOnEvent(tick=60, channel=2, data=[59, 100]),
   midi.NoteOnEvent(tick=132, channel=2, data=[59, 0]),
   midi.NoteOnEvent(tick=60, channel=2, data=[57, 100]),
   midi.NoteOnEvent(tick=132, channel=2, data=[57, 0]),
   midi.NoteOnEvent(tick=60, channel=2, data=[55, 100]),
   midi.NoteOnEvent(tick=132, channel=2, data=[55, 0]),
   midi.NoteOnEvent(tick=60, channel=2, data=[54, 100]),
   midi.NoteOnEvent(tick=132, channel=2, data=[54, 0]),
   midi.NoteOnEvent(tick=60, channel=2, data=[52, 100]),
   midi.NoteOnEvent(tick=0, channel=2, data=[59, 100]),
   midi.NoteOnEvent(tick=536, channel=2, data=[59, 0]),
   midi.NoteOnEvent(tick=0, channel=2, data=[52, 0]),
   midi.NoteOnEvent(tick=232, channel=2, data=[59, 100]),
   midi.NoteOnEvent(tick=132, channel=2, data=[59, 0]),
   midi.NoteOnEvent(tick=60, channel=2, data=[57, 100]),
   midi.NoteOnEvent(tick=132, channel=2, data=[57, 0]),
   midi.NoteOnEvent(tick=60, channel=2, data=[55, 100]),
   midi.NoteOnEvent(tick=132, channel=2, data=[55, 0]),
   midi.NoteOnEvent(tick=60, channel=2, data=[54, 100]),
   midi.NoteOnEvent(tick=132, channel=2, data=[54, 0]),
   midi.NoteOnEvent(tick=60, channel=2, data=[60, 100]),
   midi.NoteOnEvent(tick=0, channel=2, data=[53, 100]),
   midi.NoteOnEvent(tick=768, channel=2, data=[53, 0]),
   midi.NoteOnEvent(tick=0, channel=2, data=[60, 0]),
   midi.NoteOnEvent(tick=0, channel=2, data=[59, 100]),
   midi.NoteOnEvent(tick=192, channel=2, data=[59, 0]),
   midi.NoteOnEvent(tick=0, channel=2, data=[57, 100]),
   midi.NoteOnEvent(tick=192, channel=2, data=[57, 0]),
   midi.NoteOnEvent(tick=0, channel=2, data=[55, 100]),
   midi.NoteOnEvent(tick=192, channel=2, data=[55, 0]),
   midi.NoteOnEvent(tick=0, channel=2, data=[54, 100]),
   midi.NoteOnEvent(tick=192, channel=2, data=[54, 0]),
   midi.NoteOnEvent(tick=0, channel=2, data=[53, 100]),
   midi.NoteOnEvent(tick=0, channel=2, data=[60, 100]),
   midi.NoteOnEvent(tick=96, channel=2, data=[60, 0]),
   midi.NoteOnEvent(tick=0, channel=2, data=[53, 0]),
   midi.NoteOnEvent(tick=96, channel=2, data=[54, 100]),
   midi.NoteOnEvent(tick=0, channel=2, data=[61, 100]),
   midi.NoteOnEvent(tick=360, channel=2, data=[61, 0]),
   midi.NoteOnEvent(tick=0, channel=2, data=[54, 0]),
   midi.NoteOnEvent(tick=216, channel=2, data=[59, 100]),
   midi.NoteOnEvent(tick=192, channel=2, data=[59, 0]),
   midi.NoteOnEvent(tick=0, channel=2, data=[57, 100]),
   midi.NoteOnEvent(tick=192, channel=2, data=[57, 0]),
   midi.NoteOnEvent(tick=0, channel=2, data=[55, 100]),
   midi.NoteOnEvent(tick=192, channel=2, data=[55, 0]),
   midi.NoteOnEvent(tick=0, channel=2, data=[54, 100]),
   midi.NoteOnEvent(tick=192, channel=2, data=[54, 0]),
   midi.NoteOnEvent(tick=0, channel=2, data=[62, 100]),
   midi.NoteOnEvent(tick=0, channel=2, data=[55, 100]),
   midi.NoteOnEvent(tick=768, channel=2, data=[55, 0]),
   midi.NoteOnEvent(tick=0, channel=2, data=[62, 0]),
   midi.NoteOnEvent(tick=0, channel=2, data=[59, 100]),
   midi.NoteOnEvent(tick=192, channel=2, data=[59, 0]),
   midi.NoteOnEvent(tick=0, channel=2, data=[57, 100]),
   midi.NoteOnEvent(tick=192, channel=2, data=[57, 0]),
   midi.NoteOnEvent(tick=0, channel=2, data=[55, 100]),
   midi.NoteOnEvent(tick=192, channel=2, data=[55, 0]),
   midi.NoteOnEvent(tick=0, channel=2, data=[54, 100]),
   midi.NoteOnEvent(tick=192, channel=2, data=[54, 0]),
   midi.NoteOnEvent(tick=0, channel=2, data=[52, 100]),
   midi.NoteOnEvent(tick=0, channel=2, data=[59, 100]),
   midi.NoteOnEvent(tick=536, channel=2, data=[59, 0]),
   midi.NoteOnEvent(tick=0, channel=2, data=[52, 0]),
   midi.NoteOnEvent(tick=232, channel=2, data=[59, 100]),
   midi.NoteOnEvent(tick=132, channel=2, data=[59, 0]),
   midi.NoteOnEvent(tick=60, channel=2, data=[57, 100]),
   midi.NoteOnEvent(tick=132, channel=2, data=[57, 0]),
   midi.NoteOnEvent(tick=60, channel=2, data=[55, 100]),
   midi.NoteOnEvent(tick=132, channel=2, data=[55, 0]),
   midi.NoteOnEvent(tick=60, channel=2, data=[54, 100]),
   midi.NoteOnEvent(tick=132, channel=2, data=[54, 0]),
   midi.NoteOnEvent(tick=60, channel=2, data=[60, 100]),
   midi.NoteOnEvent(tick=0, channel=2, data=[53, 100]),
   midi.NoteOnEvent(tick=768, channel=2, data=[53, 0]),
   midi.NoteOnEvent(tick=0, channel=2, data=[60, 0]),
   midi.NoteOnEvent(tick=0, channel=2, data=[59, 100]),
   midi.NoteOnEvent(tick=192, channel=2, data=[59, 0]),
   midi.NoteOnEvent(tick=0, channel=2, data=[57, 100]),
   midi.NoteOnEvent(tick=192, channel=2, data=[57, 0]),
   midi.NoteOnEvent(tick=0, channel=2, data=[55, 100]),
   midi.NoteOnEvent(tick=192, channel=2, data=[55, 0]),
   midi.NoteOnEvent(tick=0, channel=2, data=[54, 100]),
   midi.NoteOnEvent(tick=192, channel=2, data=[54, 0]),
   midi.NoteOnEvent(tick=0, channel=2, data=[53, 100]),
   midi.NoteOnEvent(tick=0, channel=2, data=[60, 100]),
   midi.NoteOnEvent(tick=96, channel=2, data=[60, 0]),
   midi.NoteOnEvent(tick=0, channel=2, data=[53, 0]),
   midi.NoteOnEvent(tick=96, channel=2, data=[61, 100]),
   midi.NoteOnEvent(tick=0, channel=2, data=[54, 100]),
   midi.NoteOnEvent(tick=288, channel=2, data=[54, 0]),
   midi.NoteOnEvent(tick=0, channel=2, data=[61, 0]),
   midi.NoteOnEvent(tick=288, channel=2, data=[59, 100]),
   midi.NoteOnEvent(tick=192, channel=2, data=[59, 0]),
   midi.NoteOnEvent(tick=0, channel=2, data=[57, 100]),
   midi.NoteOnEvent(tick=192, channel=2, data=[57, 0]),
   midi.NoteOnEvent(tick=0, channel=2, data=[55, 100]),
   midi.NoteOnEvent(tick=192, channel=2, data=[55, 0]),
   midi.NoteOnEvent(tick=0, channel=2, data=[54, 100]),
   midi.NoteOnEvent(tick=192, channel=2, data=[54, 0]),
   midi.NoteOnEvent(tick=0, channel=2, data=[62, 100]),
   midi.NoteOnEvent(tick=0, channel=2, data=[55, 100]),
   midi.NoteOnEvent(tick=768, channel=2, data=[55, 0]),
   midi.NoteOnEvent(tick=0, channel=2, data=[62, 0]),
   midi.NoteOnEvent(tick=0, channel=2, data=[59, 100]),
   midi.NoteOnEvent(tick=192, channel=2, data=[59, 0]),
   midi.NoteOnEvent(tick=0, channel=2, data=[57, 100]),
   midi.NoteOnEvent(tick=192, channel=2, data=[57, 0]),
   midi.NoteOnEvent(tick=0, channel=2, data=[55, 100]),
   midi.NoteOnEvent(tick=192, channel=2, data=[55, 0]),
   midi.NoteOnEvent(tick=0, channel=2, data=[54, 100]),
   midi.NoteOnEvent(tick=192, channel=2, data=[54, 0]),
   midi.NoteOnEvent(tick=0, channel=2, data=[59, 100]),
   midi.NoteOnEvent(tick=0, channel=2, data=[52, 100]),
   midi.NoteOnEvent(tick=192, channel=2, data=[52, 0]),
   midi.NoteOnEvent(tick=0, channel=2, data=[59, 0]),
   midi.NoteOnEvent(tick=0, channel=2, data=[52, 100]),
   midi.NoteOnEvent(tick=192, channel=2, data=[52, 0]),
   midi.NoteOnEvent(tick=0, channel=2, data=[52, 100]),
   midi.NoteOnEvent(tick=192, channel=2, data=[52, 0]),
   midi.NoteOnEvent(tick=0, channel=2, data=[59, 100]),
   midi.NoteOnEvent(tick=0, channel=2, data=[52, 100]),
   midi.NoteOnEvent(tick=192, channel=2, data=[52, 0]),
   midi.NoteOnEvent(tick=0, channel=2, data=[59, 0]),
   midi.NoteOnEvent(tick=0, channel=2, data=[52, 100]),
   midi.NoteOnEvent(tick=192, channel=2, data=[52, 0]),
   midi.NoteOnEvent(tick=0, channel=2, data=[52, 100]),
   midi.NoteOnEvent(tick=192, channel=2, data=[52, 0]),
   midi.NoteOnEvent(tick=0, channel=2, data=[59, 100]),
   midi.NoteOnEvent(tick=192, channel=2, data=[59, 0]),
   midi.NoteOnEvent(tick=0, channel=2, data=[57, 100]),
   midi.NoteOnEvent(tick=192, channel=2, data=[57, 0]),
   midi.NoteOnEvent(tick=0, channel=2, data=[55, 100]),
   midi.NoteOnEvent(tick=192, channel=2, data=[55, 0]),
   midi.NoteOnEvent(tick=0, channel=2, data=[54, 100]),
   midi.NoteOnEvent(tick=192, channel=2, data=[54, 0]),
   midi.NoteOnEvent(tick=0, channel=2, data=[60, 100]),
   midi.NoteOnEvent(tick=0, channel=2, data=[53, 100]),
   midi.NoteOnEvent(tick=192, channel=2, data=[53, 0]),
   midi.NoteOnEvent(tick=0, channel=2, data=[60, 0]),
   midi.NoteOnEvent(tick=0, channel=2, data=[53, 100]),
   midi.NoteOnEvent(tick=192, channel=2, data=[53, 0]),
   midi.NoteOnEvent(tick=0, channel=2, data=[53, 100]),
   midi.NoteOnEvent(tick=192, channel=2, data=[53, 0]),
   midi.NoteOnEvent(tick=0, channel=2, data=[60, 100]),
   midi.NoteOnEvent(tick=0, channel=2, data=[53, 100]),
   midi.NoteOnEvent(tick=192, channel=2, data=[53, 0]),
   midi.NoteOnEvent(tick=0, channel=2, data=[60, 0]),
   midi.NoteOnEvent(tick=0, channel=2, data=[53, 100]),
   midi.NoteOnEvent(tick=192, channel=2, data=[53, 0]),
   midi.NoteOnEvent(tick=0, channel=2, data=[53, 100]),
   midi.NoteOnEvent(tick=192, channel=2, data=[53, 0]),
   midi.NoteOnEvent(tick=0, channel=2, data=[59, 100]),
   midi.NoteOnEvent(tick=192, channel=2, data=[59, 0]),
   midi.NoteOnEvent(tick=0, channel=2, data=[57, 100]),
   midi.NoteOnEvent(tick=192, channel=2, data=[57, 0]),
   midi.NoteOnEvent(tick=0, channel=2, data=[55, 100]),
   midi.NoteOnEvent(tick=192, channel=2, data=[55, 0]),
   midi.NoteOnEvent(tick=0, channel=2, data=[54, 100]),
   midi.NoteOnEvent(tick=192, channel=2, data=[54, 0]),
   midi.NoteOnEvent(tick=0, channel=2, data=[60, 100]),
   midi.NoteOnEvent(tick=0, channel=2, data=[53, 100]),
   midi.NoteOnEvent(tick=192, channel=2, data=[53, 0]),
   midi.NoteOnEvent(tick=0, channel=2, data=[60, 0]),
   midi.NoteOnEvent(tick=0, channel=2, data=[61, 100]),
   midi.NoteOnEvent(tick=0, channel=2, data=[54, 100]),
   midi.NoteOnEvent(tick=192, channel=2, data=[54, 0]),
   midi.NoteOnEvent(tick=0, channel=2, data=[61, 0]),
   midi.NoteOnEvent(tick=0, channel=2, data=[54, 100]),
   midi.NoteOnEvent(tick=192, channel=2, data=[54, 0]),
   midi.NoteOnEvent(tick=0, channel=2, data=[61, 100]),
   midi.NoteOnEvent(tick=0, channel=2, data=[54, 100]),
   midi.NoteOnEvent(tick=192, channel=2, data=[54, 0]),
   midi.NoteOnEvent(tick=0, channel=2, data=[61, 0]),
   midi.NoteOnEvent(tick=0, channel=2, data=[54, 100]),
   midi.NoteOnEvent(tick=192, channel=2, data=[54, 0]),
   midi.NoteOnEvent(tick=0, channel=2, data=[54, 100]),
   midi.NoteOnEvent(tick=192, channel=2, data=[54, 0]),
   midi.NoteOnEvent(tick=0, channel=2, data=[59, 100]),
   midi.NoteOnEvent(tick=192, channel=2, data=[59, 0]),
   midi.NoteOnEvent(tick=0, channel=2, data=[57, 100]),
   midi.NoteOnEvent(tick=192, channel=2, data=[57, 0]),
   midi.NoteOnEvent(tick=0, channel=2, data=[55, 100]),
   midi.NoteOnEvent(tick=192, channel=2, data=[55, 0]),
   midi.NoteOnEvent(tick=0, channel=2, data=[54, 100]),
   midi.NoteOnEvent(tick=192, channel=2, data=[54, 0]),
   midi.NoteOnEvent(tick=0, channel=2, data=[62, 100]),
   midi.NoteOnEvent(tick=0, channel=2, data=[55, 100]),
   midi.NoteOnEvent(tick=192, channel=2, data=[55, 0]),
   midi.NoteOnEvent(tick=0, channel=2, data=[62, 0]),
   midi.NoteOnEvent(tick=0, channel=2, data=[55, 100]),
   midi.NoteOnEvent(tick=192, channel=2, data=[55, 0]),
   midi.NoteOnEvent(tick=0, channel=2, data=[55, 100]),
   midi.NoteOnEvent(tick=192, channel=2, data=[55, 0]),
   midi.NoteOnEvent(tick=0, channel=2, data=[62, 100]),
   midi.NoteOnEvent(tick=0, channel=2, data=[55, 100]),
   midi.NoteOnEvent(tick=192, channel=2, data=[55, 0]),
   midi.NoteOnEvent(tick=0, channel=2, data=[62, 0]),
   midi.NoteOnEvent(tick=0, channel=2, data=[55, 100]),
   midi.NoteOnEvent(tick=192, channel=2, data=[55, 0]),
   midi.NoteOnEvent(tick=0, channel=2, data=[55, 100]),
   midi.NoteOnEvent(tick=192, channel=2, data=[55, 0]),
   midi.NoteOnEvent(tick=0, channel=2, data=[59, 100]),
   midi.NoteOnEvent(tick=192, channel=2, data=[59, 0]),
   midi.NoteOnEvent(tick=0, channel=2, data=[57, 100]),
   midi.NoteOnEvent(tick=192, channel=2, data=[57, 0]),
   midi.NoteOnEvent(tick=0, channel=2, data=[55, 100]),
   midi.NoteOnEvent(tick=192, channel=2, data=[55, 0]),
   midi.NoteOnEvent(tick=0, channel=2, data=[54, 100]),
   midi.NoteOnEvent(tick=192, channel=2, data=[54, 0]),
   midi.NoteOnEvent(tick=0, channel=2, data=[59, 100]),
   midi.NoteOnEvent(tick=0, channel=2, data=[52, 100]),
   midi.NoteOnEvent(tick=192, channel=2, data=[52, 0]),
   midi.NoteOnEvent(tick=0, channel=2, data=[59, 0]),
   midi.NoteOnEvent(tick=0, channel=2, data=[52, 100]),
   midi.NoteOnEvent(tick=192, channel=2, data=[52, 0]),
   midi.NoteOnEvent(tick=0, channel=2, data=[52, 100]),
   midi.NoteOnEvent(tick=192, channel=2, data=[52, 0]),
   midi.NoteOnEvent(tick=0, channel=2, data=[59, 100]),
   midi.NoteOnEvent(tick=0, channel=2, data=[52, 100]),
   midi.NoteOnEvent(tick=192, channel=2, data=[52, 0]),
   midi.NoteOnEvent(tick=0, channel=2, data=[59, 0]),
   midi.NoteOnEvent(tick=0, channel=2, data=[52, 100]),
   midi.NoteOnEvent(tick=192, channel=2, data=[52, 0]),
   midi.NoteOnEvent(tick=0, channel=2, data=[52, 100]),
   midi.NoteOnEvent(tick=192, channel=2, data=[52, 0]),
   midi.NoteOnEvent(tick=0, channel=2, data=[59, 100]),
   midi.NoteOnEvent(tick=192, channel=2, data=[59, 0]),
   midi.NoteOnEvent(tick=0, channel=2, data=[57, 100]),
   midi.NoteOnEvent(tick=192, channel=2, data=[57, 0]),
   midi.NoteOnEvent(tick=0, channel=2, data=[55, 100]),
   midi.NoteOnEvent(tick=192, channel=2, data=[55, 0]),
   midi.NoteOnEvent(tick=0, channel=2, data=[54, 100]),
   midi.NoteOnEvent(tick=192, channel=2, data=[54, 0]),
   midi.NoteOnEvent(tick=0, channel=2, data=[60, 100]),
   midi.NoteOnEvent(tick=0, channel=2, data=[53, 100]),
   midi.NoteOnEvent(tick=192, channel=2, data=[53, 0]),
   midi.NoteOnEvent(tick=0, channel=2, data=[60, 0]),
   midi.NoteOnEvent(tick=0, channel=2, data=[53, 100]),
   midi.NoteOnEvent(tick=192, channel=2, data=[53, 0]),
   midi.NoteOnEvent(tick=0, channel=2, data=[53, 100]),
   midi.NoteOnEvent(tick=192, channel=2, data=[53, 0]),
   midi.NoteOnEvent(tick=0, channel=2, data=[60, 100]),
   midi.NoteOnEvent(tick=0, channel=2, data=[53, 100]),
   midi.NoteOnEvent(tick=192, channel=2, data=[53, 0]),
   midi.NoteOnEvent(tick=0, channel=2, data=[60, 0]),
   midi.NoteOnEvent(tick=0, channel=2, data=[53, 100]),
   midi.NoteOnEvent(tick=192, channel=2, data=[53, 0]),
   midi.NoteOnEvent(tick=0, channel=2, data=[53, 100]),
   midi.NoteOnEvent(tick=192, channel=2, data=[53, 0]),
   midi.NoteOnEvent(tick=0, channel=2, data=[59, 100]),
   midi.NoteOnEvent(tick=192, channel=2, data=[59, 0]),
   midi.NoteOnEvent(tick=0, channel=2, data=[57, 100]),
   midi.NoteOnEvent(tick=192, channel=2, data=[57, 0]),
   midi.NoteOnEvent(tick=0, channel=2, data=[55, 100]),
   midi.NoteOnEvent(tick=192, channel=2, data=[55, 0]),
   midi.NoteOnEvent(tick=0, channel=2, data=[54, 100]),
   midi.NoteOnEvent(tick=192, channel=2, data=[54, 0]),
   midi.NoteOnEvent(tick=0, channel=2, data=[60, 100]),
   midi.NoteOnEvent(tick=0, channel=2, data=[53, 100]),
   midi.NoteOnEvent(tick=192, channel=2, data=[53, 0]),
   midi.NoteOnEvent(tick=0, channel=2, data=[60, 0]),
   midi.NoteOnEvent(tick=0, channel=2, data=[61, 100]),
   midi.NoteOnEvent(tick=0, channel=2, data=[54, 100]),
   midi.NoteOnEvent(tick=192, channel=2, data=[54, 0]),
   midi.NoteOnEvent(tick=0, channel=2, data=[61, 0]),
   midi.NoteOnEvent(tick=0, channel=2, data=[54, 100]),
   midi.NoteOnEvent(tick=192, channel=2, data=[54, 0]),
   midi.NoteOnEvent(tick=0, channel=2, data=[61, 100]),
   midi.NoteOnEvent(tick=0, channel=2, data=[54, 100]),
   midi.NoteOnEvent(tick=192, channel=2, data=[54, 0]),
   midi.NoteOnEvent(tick=0, channel=2, data=[61, 0]),
   midi.NoteOnEvent(tick=0, channel=2, data=[54, 100]),
   midi.NoteOnEvent(tick=192, channel=2, data=[54, 0]),
   midi.NoteOnEvent(tick=0, channel=2, data=[54, 100]),
   midi.NoteOnEvent(tick=192, channel=2, data=[54, 0]),
   midi.NoteOnEvent(tick=0, channel=2, data=[59, 100]),
   midi.NoteOnEvent(tick=192, channel=2, data=[59, 0]),
   midi.NoteOnEvent(tick=0, channel=2, data=[57, 100]),
   midi.NoteOnEvent(tick=192, channel=2, data=[57, 0]),
   midi.NoteOnEvent(tick=0, channel=2, data=[55, 100]),
   midi.NoteOnEvent(tick=192, channel=2, data=[55, 0]),
   midi.NoteOnEvent(tick=0, channel=2, data=[54, 100]),
   midi.NoteOnEvent(tick=192, channel=2, data=[54, 0]),
   midi.NoteOnEvent(tick=0, channel=2, data=[62, 100]),
   midi.NoteOnEvent(tick=0, channel=2, data=[55, 100]),
   midi.NoteOnEvent(tick=192, channel=2, data=[55, 0]),
   midi.NoteOnEvent(tick=0, channel=2, data=[62, 0]),
   midi.NoteOnEvent(tick=0, channel=2, data=[55, 100]),
   midi.NoteOnEvent(tick=192, channel=2, data=[55, 0]),
   midi.NoteOnEvent(tick=0, channel=2, data=[55, 100]),
   midi.NoteOnEvent(tick=192, channel=2, data=[55, 0]),
   midi.NoteOnEvent(tick=0, channel=2, data=[62, 100]),
   midi.NoteOnEvent(tick=0, channel=2, data=[55, 100]),
   midi.NoteOnEvent(tick=192, channel=2, data=[55, 0]),
   midi.NoteOnEvent(tick=0, channel=2, data=[62, 0]),
   midi.NoteOnEvent(tick=0, channel=2, data=[55, 100]),
   midi.NoteOnEvent(tick=192, channel=2, data=[55, 0]),
   midi.NoteOnEvent(tick=0, channel=2, data=[55, 100]),
   midi.NoteOnEvent(tick=192, channel=2, data=[55, 0]),
   midi.NoteOnEvent(tick=0, channel=2, data=[59, 100]),
   midi.NoteOnEvent(tick=192, channel=2, data=[59, 0]),
   midi.NoteOnEvent(tick=0, channel=2, data=[57, 100]),
   midi.NoteOnEvent(tick=192, channel=2, data=[57, 0]),
   midi.NoteOnEvent(tick=0, channel=2, data=[55, 100]),
   midi.NoteOnEvent(tick=192, channel=2, data=[55, 0]),
   midi.NoteOnEvent(tick=0, channel=2, data=[54, 100]),
   midi.NoteOnEvent(tick=192, channel=2, data=[54, 0]),
   midi.NoteOnEvent(tick=0, channel=2, data=[59, 100]),
   midi.NoteOnEvent(tick=0, channel=2, data=[52, 100]),
   midi.NoteOnEvent(tick=192, channel=2, data=[52, 0]),
   midi.NoteOnEvent(tick=0, channel=2, data=[59, 0]),
   midi.NoteOnEvent(tick=0, channel=2, data=[52, 100]),
   midi.NoteOnEvent(tick=192, channel=2, data=[52, 0]),
   midi.NoteOnEvent(tick=0, channel=2, data=[52, 100]),
   midi.NoteOnEvent(tick=192, channel=2, data=[52, 0]),
   midi.NoteOnEvent(tick=0, channel=2, data=[59, 100]),
   midi.NoteOnEvent(tick=0, channel=2, data=[52, 100]),
   midi.NoteOnEvent(tick=192, channel=2, data=[52, 0]),
   midi.NoteOnEvent(tick=0, channel=2, data=[59, 0]),
   midi.NoteOnEvent(tick=0, channel=2, data=[52, 100]),
   midi.NoteOnEvent(tick=192, channel=2, data=[52, 0]),
   midi.NoteOnEvent(tick=0, channel=2, data=[52, 100]),
   midi.NoteOnEvent(tick=192, channel=2, data=[52, 0]),
   midi.NoteOnEvent(tick=0, channel=2, data=[59, 100]),
   midi.NoteOnEvent(tick=192, channel=2, data=[59, 0]),
   midi.NoteOnEvent(tick=0, channel=2, data=[57, 100]),
   midi.NoteOnEvent(tick=192, channel=2, data=[57, 0]),
   midi.NoteOnEvent(tick=0, channel=2, data=[55, 100]),
   midi.NoteOnEvent(tick=192, channel=2, data=[55, 0]),
   midi.NoteOnEvent(tick=0, channel=2, data=[54, 100]),
   midi.NoteOnEvent(tick=192, channel=2, data=[54, 0]),
   midi.NoteOnEvent(tick=0, channel=2, data=[60, 100]),
   midi.NoteOnEvent(tick=0, channel=2, data=[53, 100]),
   midi.NoteOnEvent(tick=192, channel=2, data=[53, 0]),
   midi.NoteOnEvent(tick=0, channel=2, data=[60, 0]),
   midi.NoteOnEvent(tick=0, channel=2, data=[53, 100]),
   midi.NoteOnEvent(tick=192, channel=2, data=[53, 0]),
   midi.NoteOnEvent(tick=0, channel=2, data=[53, 100]),
   midi.NoteOnEvent(tick=192, channel=2, data=[53, 0]),
   midi.NoteOnEvent(tick=0, channel=2, data=[60, 100]),
   midi.NoteOnEvent(tick=0, channel=2, data=[53, 100]),
   midi.NoteOnEvent(tick=192, channel=2, data=[53, 0]),
   midi.NoteOnEvent(tick=0, channel=2, data=[60, 0]),
   midi.NoteOnEvent(tick=0, channel=2, data=[53, 100]),
   midi.NoteOnEvent(tick=192, channel=2, data=[53, 0]),
   midi.NoteOnEvent(tick=0, channel=2, data=[53, 100]),
   midi.NoteOnEvent(tick=192, channel=2, data=[53, 0]),
   midi.NoteOnEvent(tick=0, channel=2, data=[59, 100]),
   midi.NoteOnEvent(tick=192, channel=2, data=[59, 0]),
   midi.NoteOnEvent(tick=0, channel=2, data=[57, 100]),
   midi.NoteOnEvent(tick=192, channel=2, data=[57, 0]),
   midi.NoteOnEvent(tick=0, channel=2, data=[55, 100]),
   midi.NoteOnEvent(tick=192, channel=2, data=[55, 0]),
   midi.NoteOnEvent(tick=0, channel=2, data=[54, 100]),
   midi.NoteOnEvent(tick=192, channel=2, data=[54, 0]),
   midi.NoteOnEvent(tick=0, channel=2, data=[60, 100]),
   midi.NoteOnEvent(tick=0, channel=2, data=[53, 100]),
   midi.NoteOnEvent(tick=192, channel=2, data=[53, 0]),
   midi.NoteOnEvent(tick=0, channel=2, data=[60, 0]),
   midi.NoteOnEvent(tick=0, channel=2, data=[61, 100]),
   midi.NoteOnEvent(tick=0, channel=2, data=[54, 100]),
   midi.NoteOnEvent(tick=192, channel=2, data=[54, 0]),
   midi.NoteOnEvent(tick=0, channel=2, data=[61, 0]),
   midi.NoteOnEvent(tick=0, channel=2, data=[54, 100]),
   midi.NoteOnEvent(tick=192, channel=2, data=[54, 0]),
   midi.NoteOnEvent(tick=0, channel=2, data=[61, 100]),
   midi.NoteOnEvent(tick=0, channel=2, data=[54, 100]),
   midi.NoteOnEvent(tick=192, channel=2, data=[54, 0]),
   midi.NoteOnEvent(tick=0, channel=2, data=[61, 0]),
   midi.NoteOnEvent(tick=0, channel=2, data=[54, 100]),
   midi.NoteOnEvent(tick=192, channel=2, data=[54, 0]),
   midi.NoteOnEvent(tick=0, channel=2, data=[54, 100]),
   midi.NoteOnEvent(tick=192, channel=2, data=[54, 0]),
   midi.NoteOnEvent(tick=0, channel=2, data=[59, 100]),
   midi.NoteOnEvent(tick=192, channel=2, data=[59, 0]),
   midi.NoteOnEvent(tick=0, channel=2, data=[57, 100]),
   midi.NoteOnEvent(tick=192, channel=2, data=[57, 0]),
   midi.NoteOnEvent(tick=0, channel=2, data=[55, 100]),
   midi.NoteOnEvent(tick=192, channel=2, data=[55, 0]),
   midi.NoteOnEvent(tick=0, channel=2, data=[54, 100]),
   midi.NoteOnEvent(tick=192, channel=2, data=[54, 0]),
   midi.NoteOnEvent(tick=0, channel=2, data=[62, 100]),
   midi.NoteOnEvent(tick=0, channel=2, data=[55, 100]),
   midi.NoteOnEvent(tick=192, channel=2, data=[55, 0]),
   midi.NoteOnEvent(tick=0, channel=2, data=[62, 0]),
   midi.NoteOnEvent(tick=0, channel=2, data=[55, 100]),
   midi.NoteOnEvent(tick=192, channel=2, data=[55, 0]),
   midi.NoteOnEvent(tick=0, channel=2, data=[55, 100]),
   midi.NoteOnEvent(tick=192, channel=2, data=[55, 0]),
   midi.NoteOnEvent(tick=0, channel=2, data=[62, 100]),
   midi.NoteOnEvent(tick=0, channel=2, data=[55, 100]),
   midi.NoteOnEvent(tick=192, channel=2, data=[55, 0]),
   midi.NoteOnEvent(tick=0, channel=2, data=[62, 0]),
   midi.NoteOnEvent(tick=0, channel=2, data=[55, 100]),
   midi.NoteOnEvent(tick=192, channel=2, data=[55, 0]),
   midi.NoteOnEvent(tick=0, channel=2, data=[55, 100]),
   midi.NoteOnEvent(tick=192, channel=2, data=[55, 0]),
   midi.NoteOnEvent(tick=0, channel=2, data=[59, 100]),
   midi.NoteOnEvent(tick=192, channel=2, data=[59, 0]),
   midi.NoteOnEvent(tick=0, channel=2, data=[57, 100]),
   midi.NoteOnEvent(tick=192, channel=2, data=[57, 0]),
   midi.NoteOnEvent(tick=0, channel=2, data=[55, 100]),
   midi.NoteOnEvent(tick=192, channel=2, data=[55, 0]),
   midi.NoteOnEvent(tick=0, channel=2, data=[54, 100]),
   midi.NoteOnEvent(tick=192, channel=2, data=[54, 0]),
   midi.NoteOnEvent(tick=0, channel=2, data=[59, 100]),
   midi.NoteOnEvent(tick=0, channel=2, data=[52, 100]),
   midi.NoteOnEvent(tick=192, channel=2, data=[52, 0]),
   midi.NoteOnEvent(tick=0, channel=2, data=[59, 0]),
   midi.NoteOnEvent(tick=0, channel=2, data=[52, 100]),
   midi.NoteOnEvent(tick=192, channel=2, data=[52, 0]),
   midi.NoteOnEvent(tick=0, channel=2, data=[52, 100]),
   midi.NoteOnEvent(tick=192, channel=2, data=[52, 0]),
   midi.NoteOnEvent(tick=0, channel=2, data=[59, 100]),
   midi.NoteOnEvent(tick=0, channel=2, data=[52, 100]),
   midi.NoteOnEvent(tick=192, channel=2, data=[52, 0]),
   midi.NoteOnEvent(tick=0, channel=2, data=[59, 0]),
   midi.NoteOnEvent(tick=0, channel=2, data=[52, 100]),
   midi.NoteOnEvent(tick=192, channel=2, data=[52, 0]),
   midi.NoteOnEvent(tick=0, channel=2, data=[52, 100]),
   midi.NoteOnEvent(tick=192, channel=2, data=[52, 0]),
   midi.NoteOnEvent(tick=0, channel=2, data=[59, 100]),
   midi.NoteOnEvent(tick=192, channel=2, data=[59, 0]),
   midi.NoteOnEvent(tick=0, channel=2, data=[57, 100]),
   midi.NoteOnEvent(tick=192, channel=2, data=[57, 0]),
   midi.NoteOnEvent(tick=0, channel=2, data=[55, 100]),
   midi.NoteOnEvent(tick=192, channel=2, data=[55, 0]),
   midi.NoteOnEvent(tick=0, channel=2, data=[54, 100]),
   midi.NoteOnEvent(tick=192, channel=2, data=[54, 0]),
   midi.NoteOnEvent(tick=0, channel=2, data=[60, 100]),
   midi.NoteOnEvent(tick=0, channel=2, data=[53, 100]),
   midi.NoteOnEvent(tick=192, channel=2, data=[53, 0]),
   midi.NoteOnEvent(tick=0, channel=2, data=[60, 0]),
   midi.NoteOnEvent(tick=0, channel=2, data=[53, 100]),
   midi.NoteOnEvent(tick=192, channel=2, data=[53, 0]),
   midi.NoteOnEvent(tick=0, channel=2, data=[53, 100]),
   midi.NoteOnEvent(tick=192, channel=2, data=[53, 0]),
   midi.NoteOnEvent(tick=0, channel=2, data=[60, 100]),
   midi.NoteOnEvent(tick=0, channel=2, data=[53, 100]),
   midi.NoteOnEvent(tick=192, channel=2, data=[53, 0]),
   midi.NoteOnEvent(tick=0, channel=2, data=[60, 0]),
   midi.NoteOnEvent(tick=0, channel=2, data=[53, 100]),
   midi.NoteOnEvent(tick=192, channel=2, data=[53, 0]),
   midi.NoteOnEvent(tick=0, channel=2, data=[53, 100]),
   midi.NoteOnEvent(tick=192, channel=2, data=[53, 0]),
   midi.NoteOnEvent(tick=0, channel=2, data=[59, 100]),
   midi.NoteOnEvent(tick=192, channel=2, data=[59, 0]),
   midi.NoteOnEvent(tick=0, channel=2, data=[57, 100]),
   midi.NoteOnEvent(tick=192, channel=2, data=[57, 0]),
   midi.NoteOnEvent(tick=0, channel=2, data=[55, 100]),
   midi.NoteOnEvent(tick=192, channel=2, data=[55, 0]),
   midi.NoteOnEvent(tick=0, channel=2, data=[54, 100]),
   midi.NoteOnEvent(tick=192, channel=2, data=[54, 0]),
   midi.NoteOnEvent(tick=0, channel=2, data=[60, 100]),
   midi.NoteOnEvent(tick=0, channel=2, data=[53, 100]),
   midi.NoteOnEvent(tick=192, channel=2, data=[53, 0]),
   midi.NoteOnEvent(tick=0, channel=2, data=[60, 0]),
   midi.NoteOnEvent(tick=0, channel=2, data=[61, 100]),
   midi.NoteOnEvent(tick=0, channel=2, data=[54, 100]),
   midi.NoteOnEvent(tick=192, channel=2, data=[54, 0]),
   midi.NoteOnEvent(tick=0, channel=2, data=[61, 0]),
   midi.NoteOnEvent(tick=0, channel=2, data=[54, 100]),
   midi.NoteOnEvent(tick=192, channel=2, data=[54, 0]),
   midi.NoteOnEvent(tick=0, channel=2, data=[61, 100]),
   midi.NoteOnEvent(tick=0, channel=2, data=[54, 100]),
   midi.NoteOnEvent(tick=192, channel=2, data=[54, 0]),
   midi.NoteOnEvent(tick=0, channel=2, data=[61, 0]),
   midi.NoteOnEvent(tick=0, channel=2, data=[54, 100]),
   midi.NoteOnEvent(tick=192, channel=2, data=[54, 0]),
   midi.NoteOnEvent(tick=0, channel=2, data=[54, 100]),
   midi.NoteOnEvent(tick=192, channel=2, data=[54, 0]),
   midi.NoteOnEvent(tick=0, channel=2, data=[59, 100]),
   midi.NoteOnEvent(tick=192, channel=2, data=[59, 0]),
   midi.NoteOnEvent(tick=0, channel=2, data=[57, 100]),
   midi.NoteOnEvent(tick=192, channel=2, data=[57, 0]),
   midi.NoteOnEvent(tick=0, channel=2, data=[55, 100]),
   midi.NoteOnEvent(tick=192, channel=2, data=[55, 0]),
   midi.NoteOnEvent(tick=0, channel=2, data=[54, 100]),
   midi.NoteOnEvent(tick=192, channel=2, data=[54, 0]),
   midi.NoteOnEvent(tick=0, channel=2, data=[62, 100]),
   midi.NoteOnEvent(tick=0, channel=2, data=[55, 100]),
   midi.NoteOnEvent(tick=192, channel=2, data=[55, 0]),
   midi.NoteOnEvent(tick=0, channel=2, data=[62, 0]),
   midi.NoteOnEvent(tick=0, channel=2, data=[55, 100]),
   midi.NoteOnEvent(tick=192, channel=2, data=[55, 0]),
   midi.NoteOnEvent(tick=0, channel=2, data=[55, 100]),
   midi.NoteOnEvent(tick=192, channel=2, data=[55, 0]),
   midi.NoteOnEvent(tick=0, channel=2, data=[62, 100]),
   midi.NoteOnEvent(tick=0, channel=2, data=[55, 100]),
   midi.NoteOnEvent(tick=192, channel=2, data=[55, 0]),
   midi.NoteOnEvent(tick=0, channel=2, data=[62, 0]),
   midi.NoteOnEvent(tick=0, channel=2, data=[55, 100]),
   midi.NoteOnEvent(tick=192, channel=2, data=[55, 0]),
   midi.NoteOnEvent(tick=0, channel=2, data=[55, 100]),
   midi.NoteOnEvent(tick=192, channel=2, data=[55, 0]),
   midi.NoteOnEvent(tick=0, channel=2, data=[59, 100]),
   midi.NoteOnEvent(tick=192, channel=2, data=[59, 0]),
   midi.NoteOnEvent(tick=0, channel=2, data=[57, 100]),
   midi.NoteOnEvent(tick=192, channel=2, data=[57, 0]),
   midi.NoteOnEvent(tick=0, channel=2, data=[55, 100]),
   midi.NoteOnEvent(tick=192, channel=2, data=[55, 0]),
   midi.NoteOnEvent(tick=0, channel=2, data=[54, 100]),
   midi.NoteOnEvent(tick=192, channel=2, data=[54, 0]),
   midi.NoteOnEvent(tick=0, channel=2, data=[60, 100]),
   midi.NoteOnEvent(tick=0, channel=2, data=[53, 100]),
   midi.NoteOnEvent(tick=384, channel=2, data=[53, 0]),
   midi.NoteOnEvent(tick=0, channel=2, data=[60, 0]),
   midi.NoteOnEvent(tick=0, channel=2, data=[53, 100]),
   midi.NoteOnEvent(tick=192, channel=2, data=[53, 0]),
   midi.NoteOnEvent(tick=0, channel=2, data=[53, 100]),
   midi.NoteOnEvent(tick=192, channel=2, data=[53, 0]),
   midi.NoteOnEvent(tick=0, channel=2, data=[53, 100]),
   midi.NoteOnEvent(tick=192, channel=2, data=[53, 0]),
   midi.NoteOnEvent(tick=0, channel=2, data=[53, 100]),
   midi.NoteOnEvent(tick=192, channel=2, data=[53, 0]),
   midi.NoteOnEvent(tick=0, channel=2, data=[53, 100]),
   midi.NoteOnEvent(tick=192, channel=2, data=[53, 0]),
   midi.NoteOnEvent(tick=0, channel=2, data=[53, 100]),
   midi.NoteOnEvent(tick=192, channel=2, data=[53, 0]),
   midi.NoteOnEvent(tick=0, channel=2, data=[53, 100]),
   midi.NoteOnEvent(tick=192, channel=2, data=[53, 0]),
   midi.NoteOnEvent(tick=0, channel=2, data=[53, 100]),
   midi.NoteOnEvent(tick=192, channel=2, data=[53, 0]),
   midi.NoteOnEvent(tick=0, channel=2, data=[53, 100]),
   midi.NoteOnEvent(tick=192, channel=2, data=[53, 0]),
   midi.NoteOnEvent(tick=0, channel=2, data=[53, 100]),
   midi.NoteOnEvent(tick=192, channel=2, data=[53, 0]),
   midi.NoteOnEvent(tick=0, channel=2, data=[52, 100]),
   midi.NoteOnEvent(tick=192, channel=2, data=[52, 0]),
   midi.NoteOnEvent(tick=0, channel=2, data=[59, 100]),
   midi.NoteOnEvent(tick=192, channel=2, data=[59, 0]),
   midi.NoteOnEvent(tick=0, channel=2, data=[57, 100]),
   midi.NoteOnEvent(tick=96, channel=2, data=[57, 0]),
   midi.NoteOnEvent(tick=0, channel=2, data=[57, 100]),
   midi.NoteOnEvent(tick=96, channel=2, data=[57, 0]),
   midi.NoteOnEvent(tick=0, channel=2, data=[59, 100]),
   midi.NoteOnEvent(tick=0, channel=2, data=[52, 100]),
   midi.NoteOnEvent(tick=576, channel=2, data=[52, 0]),
   midi.NoteOnEvent(tick=0, channel=2, data=[59, 0]),
   midi.NoteOnEvent(tick=0, channel=2, data=[52, 100]),
   midi.NoteOnEvent(tick=192, channel=2, data=[52, 0]),
   midi.NoteOnEvent(tick=0, channel=2, data=[52, 100]),
   midi.NoteOnEvent(tick=96, channel=2, data=[52, 0]),
   midi.NoteOnEvent(tick=0, channel=2, data=[52, 100]),
   midi.NoteOnEvent(tick=96, channel=2, data=[52, 0]),
   midi.NoteOnEvent(tick=0, channel=2, data=[52, 100]),
   midi.NoteOnEvent(tick=192, channel=2, data=[52, 0]),
   midi.NoteOnEvent(tick=0, channel=2, data=[52, 100]),
   midi.NoteOnEvent(tick=96, channel=2, data=[52, 0]),
   midi.NoteOnEvent(tick=0, channel=2, data=[52, 100]),
   midi.NoteOnEvent(tick=96, channel=2, data=[52, 0]),
   midi.NoteOnEvent(tick=0, channel=2, data=[52, 100]),
   midi.NoteOnEvent(tick=192, channel=2, data=[52, 0]),
   midi.NoteOnEvent(tick=0, channel=2, data=[52, 100]),
   midi.NoteOnEvent(tick=96, channel=2, data=[52, 0]),
   midi.NoteOnEvent(tick=0, channel=2, data=[52, 100]),
   midi.NoteOnEvent(tick=96, channel=2, data=[52, 0]),
   midi.NoteOnEvent(tick=0, channel=2, data=[52, 100]),
   midi.NoteOnEvent(tick=192, channel=2, data=[52, 0]),
   midi.NoteOnEvent(tick=0, channel=2, data=[52, 100]),
   midi.NoteOnEvent(tick=96, channel=2, data=[52, 0]),
   midi.NoteOnEvent(tick=0, channel=2, data=[52, 100]),
   midi.NoteOnEvent(tick=96, channel=2, data=[52, 0]),
   midi.NoteOnEvent(tick=0, channel=2, data=[52, 100]),
   midi.NoteOnEvent(tick=192, channel=2, data=[52, 0]),
   midi.NoteOnEvent(tick=0, channel=2, data=[52, 100]),
   midi.NoteOnEvent(tick=96, channel=2, data=[52, 0]),
   midi.NoteOnEvent(tick=0, channel=2, data=[52, 100]),
   midi.NoteOnEvent(tick=96, channel=2, data=[52, 0]),
   midi.NoteOnEvent(tick=0, channel=2, data=[52, 100]),
   midi.NoteOnEvent(tick=192, channel=2, data=[52, 0]),
   midi.NoteOnEvent(tick=0, channel=2, data=[59, 100]),
   midi.NoteOnEvent(tick=192, channel=2, data=[59, 0]),
   midi.NoteOnEvent(tick=0, channel=2, data=[57, 100]),
   midi.NoteOnEvent(tick=96, channel=2, data=[57, 0]),
   midi.NoteOnEvent(tick=0, channel=2, data=[57, 100]),
   midi.NoteOnEvent(tick=96, channel=2, data=[57, 0]),
   midi.NoteOnEvent(tick=0, channel=2, data=[60, 100]),
   midi.NoteOnEvent(tick=0, channel=2, data=[53, 100]),
   midi.NoteOnEvent(tick=544, channel=2, data=[53, 0]),
   midi.NoteOnEvent(tick=0, channel=2, data=[60, 0]),
   midi.NoteOnEvent(tick=32, channel=2, data=[53, 100]),
   midi.NoteOnEvent(tick=192, channel=2, data=[53, 0]),
   midi.NoteOnEvent(tick=0, channel=2, data=[53, 100]),
   midi.NoteOnEvent(tick=192, channel=2, data=[53, 0]),
   midi.NoteOnEvent(tick=0, channel=2, data=[53, 100]),
   midi.NoteOnEvent(tick=192, channel=2, data=[53, 0]),
   midi.NoteOnEvent(tick=0, channel=2, data=[53, 100]),
   midi.NoteOnEvent(tick=192, channel=2, data=[53, 0]),
   midi.NoteOnEvent(tick=0, channel=2, data=[53, 100]),
   midi.NoteOnEvent(tick=192, channel=2, data=[53, 0]),
   midi.NoteOnEvent(tick=0, channel=2, data=[53, 100]),
   midi.NoteOnEvent(tick=192, channel=2, data=[53, 0]),
   midi.NoteOnEvent(tick=0, channel=2, data=[53, 100]),
   midi.NoteOnEvent(tick=192, channel=2, data=[53, 0]),
   midi.NoteOnEvent(tick=0, channel=2, data=[53, 100]),
   midi.NoteOnEvent(tick=192, channel=2, data=[53, 0]),
   midi.NoteOnEvent(tick=0, channel=2, data=[53, 100]),
   midi.NoteOnEvent(tick=192, channel=2, data=[53, 0]),
   midi.NoteOnEvent(tick=0, channel=2, data=[53, 100]),
   midi.NoteOnEvent(tick=192, channel=2, data=[53, 0]),
   midi.NoteOnEvent(tick=0, channel=2, data=[52, 100]),
   midi.NoteOnEvent(tick=192, channel=2, data=[52, 0]),
   midi.NoteOnEvent(tick=0, channel=2, data=[59, 100]),
   midi.NoteOnEvent(tick=192, channel=2, data=[59, 0]),
   midi.NoteOnEvent(tick=0, channel=2, data=[57, 100]),
   midi.NoteOnEvent(tick=96, channel=2, data=[57, 0]),
   midi.NoteOnEvent(tick=0, channel=2, data=[57, 100]),
   midi.NoteOnEvent(tick=96, channel=2, data=[57, 0]),
   midi.NoteOnEvent(tick=0, channel=2, data=[59, 100]),
   midi.NoteOnEvent(tick=0, channel=2, data=[52, 100]),
   midi.NoteOnEvent(tick=576, channel=2, data=[52, 0]),
   midi.NoteOnEvent(tick=0, channel=2, data=[59, 0]),
   midi.NoteOnEvent(tick=0, channel=2, data=[52, 100]),
   midi.NoteOnEvent(tick=192, channel=2, data=[52, 0]),
   midi.NoteOnEvent(tick=0, channel=2, data=[52, 100]),
   midi.NoteOnEvent(tick=96, channel=2, data=[52, 0]),
   midi.NoteOnEvent(tick=0, channel=2, data=[52, 100]),
   midi.NoteOnEvent(tick=96, channel=2, data=[52, 0]),
   midi.NoteOnEvent(tick=0, channel=2, data=[52, 100]),
   midi.NoteOnEvent(tick=192, channel=2, data=[52, 0]),
   midi.NoteOnEvent(tick=0, channel=2, data=[52, 100]),
   midi.NoteOnEvent(tick=96, channel=2, data=[52, 0]),
   midi.NoteOnEvent(tick=0, channel=2, data=[52, 100]),
   midi.NoteOnEvent(tick=96, channel=2, data=[52, 0]),
   midi.NoteOnEvent(tick=0, channel=2, data=[52, 100]),
   midi.NoteOnEvent(tick=192, channel=2, data=[52, 0]),
   midi.NoteOnEvent(tick=0, channel=2, data=[52, 100]),
   midi.NoteOnEvent(tick=96, channel=2, data=[52, 0]),
   midi.NoteOnEvent(tick=0, channel=2, data=[52, 100]),
   midi.NoteOnEvent(tick=96, channel=2, data=[52, 0]),
   midi.NoteOnEvent(tick=0, channel=2, data=[52, 100]),
   midi.NoteOnEvent(tick=192, channel=2, data=[52, 0]),
   midi.NoteOnEvent(tick=0, channel=2, data=[52, 100]),
   midi.NoteOnEvent(tick=96, channel=2, data=[52, 0]),
   midi.NoteOnEvent(tick=0, channel=2, data=[52, 100]),
   midi.NoteOnEvent(tick=96, channel=2, data=[52, 0]),
   midi.NoteOnEvent(tick=0, channel=2, data=[52, 100]),
   midi.NoteOnEvent(tick=192, channel=2, data=[52, 0]),
   midi.NoteOnEvent(tick=0, channel=2, data=[52, 100]),
   midi.NoteOnEvent(tick=96, channel=2, data=[52, 0]),
   midi.NoteOnEvent(tick=0, channel=2, data=[52, 100]),
   midi.NoteOnEvent(tick=96, channel=2, data=[52, 0]),
   midi.NoteOnEvent(tick=0, channel=2, data=[52, 100]),
   midi.NoteOnEvent(tick=192, channel=2, data=[52, 0]),
   midi.NoteOnEvent(tick=0, channel=2, data=[59, 100]),
   midi.NoteOnEvent(tick=192, channel=2, data=[59, 0]),
   midi.NoteOnEvent(tick=0, channel=2, data=[57, 100]),
   midi.NoteOnEvent(tick=96, channel=2, data=[57, 0]),
   midi.NoteOnEvent(tick=0, channel=2, data=[57, 100]),
   midi.NoteOnEvent(tick=96, channel=2, data=[57, 0]),
   midi.NoteOnEvent(tick=0, channel=2, data=[60, 100]),
   midi.NoteOnEvent(tick=0, channel=2, data=[53, 100]),
   midi.NoteOnEvent(tick=544, channel=2, data=[53, 0]),
   midi.NoteOnEvent(tick=0, channel=2, data=[60, 0]),
   midi.NoteOnEvent(tick=32, channel=2, data=[53, 100]),
   midi.NoteOnEvent(tick=192, channel=2, data=[53, 0]),
   midi.NoteOnEvent(tick=0, channel=2, data=[53, 100]),
   midi.NoteOnEvent(tick=192, channel=2, data=[53, 0]),
   midi.NoteOnEvent(tick=0, channel=2, data=[53, 100]),
   midi.NoteOnEvent(tick=192, channel=2, data=[53, 0]),
   midi.NoteOnEvent(tick=0, channel=2, data=[53, 100]),
   midi.NoteOnEvent(tick=192, channel=2, data=[53, 0]),
   midi.NoteOnEvent(tick=0, channel=2, data=[53, 100]),
   midi.NoteOnEvent(tick=192, channel=2, data=[53, 0]),
   midi.NoteOnEvent(tick=0, channel=2, data=[53, 100]),
   midi.NoteOnEvent(tick=192, channel=2, data=[53, 0]),
   midi.NoteOnEvent(tick=0, channel=2, data=[53, 100]),
   midi.NoteOnEvent(tick=192, channel=2, data=[53, 0]),
   midi.NoteOnEvent(tick=0, channel=2, data=[53, 100]),
   midi.NoteOnEvent(tick=192, channel=2, data=[53, 0]),
   midi.NoteOnEvent(tick=0, channel=2, data=[53, 100]),
   midi.NoteOnEvent(tick=192, channel=2, data=[53, 0]),
   midi.NoteOnEvent(tick=0, channel=2, data=[53, 100]),
   midi.NoteOnEvent(tick=192, channel=2, data=[53, 0]),
   midi.NoteOnEvent(tick=0, channel=2, data=[52, 100]),
   midi.NoteOnEvent(tick=192, channel=2, data=[52, 0]),
   midi.NoteOnEvent(tick=0, channel=2, data=[59, 100]),
   midi.NoteOnEvent(tick=192, channel=2, data=[59, 0]),
   midi.NoteOnEvent(tick=0, channel=2, data=[57, 100]),
   midi.NoteOnEvent(tick=96, channel=2, data=[57, 0]),
   midi.NoteOnEvent(tick=0, channel=2, data=[57, 100]),
   midi.NoteOnEvent(tick=96, channel=2, data=[57, 0]),
   midi.NoteOnEvent(tick=0, channel=2, data=[59, 100]),
   midi.NoteOnEvent(tick=0, channel=2, data=[52, 100]),
   midi.NoteOnEvent(tick=576, channel=2, data=[52, 0]),
   midi.NoteOnEvent(tick=0, channel=2, data=[59, 0]),
   midi.NoteOnEvent(tick=0, channel=2, data=[52, 100]),
   midi.NoteOnEvent(tick=192, channel=2, data=[52, 0]),
   midi.NoteOnEvent(tick=0, channel=2, data=[52, 100]),
   midi.NoteOnEvent(tick=96, channel=2, data=[52, 0]),
   midi.NoteOnEvent(tick=0, channel=2, data=[52, 100]),
   midi.NoteOnEvent(tick=96, channel=2, data=[52, 0]),
   midi.NoteOnEvent(tick=0, channel=2, data=[52, 100]),
   midi.NoteOnEvent(tick=192, channel=2, data=[52, 0]),
   midi.NoteOnEvent(tick=0, channel=2, data=[52, 100]),
   midi.NoteOnEvent(tick=96, channel=2, data=[52, 0]),
   midi.NoteOnEvent(tick=0, channel=2, data=[52, 100]),
   midi.NoteOnEvent(tick=96, channel=2, data=[52, 0]),
   midi.NoteOnEvent(tick=0, channel=2, data=[52, 100]),
   midi.NoteOnEvent(tick=192, channel=2, data=[52, 0]),
   midi.NoteOnEvent(tick=0, channel=2, data=[52, 100]),
   midi.NoteOnEvent(tick=96, channel=2, data=[52, 0]),
   midi.NoteOnEvent(tick=0, channel=2, data=[52, 100]),
   midi.NoteOnEvent(tick=96, channel=2, data=[52, 0]),
   midi.NoteOnEvent(tick=0, channel=2, data=[52, 100]),
   midi.NoteOnEvent(tick=192, channel=2, data=[52, 0]),
   midi.NoteOnEvent(tick=0, channel=2, data=[52, 100]),
   midi.NoteOnEvent(tick=96, channel=2, data=[52, 0]),
   midi.NoteOnEvent(tick=0, channel=2, data=[52, 100]),
   midi.NoteOnEvent(tick=96, channel=2, data=[52, 0]),
   midi.NoteOnEvent(tick=0, channel=2, data=[52, 100]),
   midi.NoteOnEvent(tick=192, channel=2, data=[52, 0]),
   midi.NoteOnEvent(tick=0, channel=2, data=[52, 100]),
   midi.NoteOnEvent(tick=96, channel=2, data=[52, 0]),
   midi.NoteOnEvent(tick=0, channel=2, data=[52, 100]),
   midi.NoteOnEvent(tick=96, channel=2, data=[52, 0]),
   midi.NoteOnEvent(tick=0, channel=2, data=[52, 100]),
   midi.NoteOnEvent(tick=192, channel=2, data=[52, 0]),
   midi.NoteOnEvent(tick=0, channel=2, data=[59, 100]),
   midi.NoteOnEvent(tick=192, channel=2, data=[59, 0]),
   midi.NoteOnEvent(tick=0, channel=2, data=[57, 100]),
   midi.NoteOnEvent(tick=96, channel=2, data=[57, 0]),
   midi.NoteOnEvent(tick=0, channel=2, data=[57, 100]),
   midi.NoteOnEvent(tick=96, channel=2, data=[57, 0]),
   midi.NoteOnEvent(tick=0, channel=2, data=[60, 100]),
   midi.NoteOnEvent(tick=0, channel=2, data=[53, 100]),
   midi.NoteOnEvent(tick=544, channel=2, data=[53, 0]),
   midi.NoteOnEvent(tick=0, channel=2, data=[60, 0]),
   midi.NoteOnEvent(tick=32, channel=2, data=[53, 100]),
   midi.NoteOnEvent(tick=192, channel=2, data=[53, 0]),
   midi.NoteOnEvent(tick=0, channel=2, data=[53, 100]),
   midi.NoteOnEvent(tick=192, channel=2, data=[53, 0]),
   midi.NoteOnEvent(tick=0, channel=2, data=[53, 100]),
   midi.NoteOnEvent(tick=192, channel=2, data=[53, 0]),
   midi.NoteOnEvent(tick=0, channel=2, data=[53, 100]),
   midi.NoteOnEvent(tick=192, channel=2, data=[53, 0]),
   midi.NoteOnEvent(tick=0, channel=2, data=[53, 100]),
   midi.NoteOnEvent(tick=192, channel=2, data=[53, 0]),
   midi.NoteOnEvent(tick=0, channel=2, data=[53, 100]),
   midi.NoteOnEvent(tick=192, channel=2, data=[53, 0]),
   midi.NoteOnEvent(tick=0, channel=2, data=[53, 100]),
   midi.NoteOnEvent(tick=192, channel=2, data=[53, 0]),
   midi.NoteOnEvent(tick=0, channel=2, data=[53, 100]),
   midi.NoteOnEvent(tick=192, channel=2, data=[53, 0]),
   midi.NoteOnEvent(tick=0, channel=2, data=[53, 100]),
   midi.NoteOnEvent(tick=192, channel=2, data=[53, 0]),
   midi.NoteOnEvent(tick=0, channel=2, data=[53, 100]),
   midi.NoteOnEvent(tick=192, channel=2, data=[53, 0]),
   midi.NoteOnEvent(tick=0, channel=2, data=[52, 100]),
   midi.NoteOnEvent(tick=192, channel=2, data=[52, 0]),
   midi.NoteOnEvent(tick=0, channel=2, data=[59, 100]),
   midi.NoteOnEvent(tick=192, channel=2, data=[59, 0]),
   midi.NoteOnEvent(tick=0, channel=2, data=[57, 100]),
   midi.NoteOnEvent(tick=96, channel=2, data=[57, 0]),
   midi.NoteOnEvent(tick=0, channel=2, data=[57, 100]),
   midi.NoteOnEvent(tick=96, channel=2, data=[57, 0]),
   midi.NoteOnEvent(tick=0, channel=2, data=[59, 100]),
   midi.NoteOnEvent(tick=0, channel=2, data=[52, 100]),
   midi.NoteOnEvent(tick=576, channel=2, data=[52, 0]),
   midi.NoteOnEvent(tick=0, channel=2, data=[59, 0]),
   midi.NoteOnEvent(tick=0, channel=2, data=[52, 100]),
   midi.NoteOnEvent(tick=192, channel=2, data=[52, 0]),
   midi.NoteOnEvent(tick=0, channel=2, data=[52, 100]),
   midi.NoteOnEvent(tick=96, channel=2, data=[52, 0]),
   midi.NoteOnEvent(tick=0, channel=2, data=[52, 100]),
   midi.NoteOnEvent(tick=96, channel=2, data=[52, 0]),
   midi.NoteOnEvent(tick=0, channel=2, data=[52, 100]),
   midi.NoteOnEvent(tick=192, channel=2, data=[52, 0]),
   midi.NoteOnEvent(tick=0, channel=2, data=[52, 100]),
   midi.NoteOnEvent(tick=96, channel=2, data=[52, 0]),
   midi.NoteOnEvent(tick=0, channel=2, data=[52, 100]),
   midi.NoteOnEvent(tick=96, channel=2, data=[52, 0]),
   midi.NoteOnEvent(tick=0, channel=2, data=[52, 100]),
   midi.NoteOnEvent(tick=192, channel=2, data=[52, 0]),
   midi.NoteOnEvent(tick=0, channel=2, data=[52, 100]),
   midi.NoteOnEvent(tick=96, channel=2, data=[52, 0]),
   midi.NoteOnEvent(tick=0, channel=2, data=[52, 100]),
   midi.NoteOnEvent(tick=96, channel=2, data=[52, 0]),
   midi.NoteOnEvent(tick=0, channel=2, data=[52, 100]),
   midi.NoteOnEvent(tick=192, channel=2, data=[52, 0]),
   midi.NoteOnEvent(tick=0, channel=2, data=[52, 100]),
   midi.NoteOnEvent(tick=96, channel=2, data=[52, 0]),
   midi.NoteOnEvent(tick=0, channel=2, data=[52, 100]),
   midi.NoteOnEvent(tick=96, channel=2, data=[52, 0]),
   midi.NoteOnEvent(tick=0, channel=2, data=[52, 100]),
   midi.NoteOnEvent(tick=192, channel=2, data=[52, 0]),
   midi.NoteOnEvent(tick=0, channel=2, data=[52, 100]),
   midi.NoteOnEvent(tick=96, channel=2, data=[52, 0]),
   midi.NoteOnEvent(tick=0, channel=2, data=[52, 100]),
   midi.NoteOnEvent(tick=96, channel=2, data=[52, 0]),
   midi.NoteOnEvent(tick=0, channel=2, data=[52, 100]),
   midi.NoteOnEvent(tick=192, channel=2, data=[52, 0]),
   midi.NoteOnEvent(tick=0, channel=2, data=[59, 100]),
   midi.NoteOnEvent(tick=192, channel=2, data=[59, 0]),
   midi.NoteOnEvent(tick=0, channel=2, data=[57, 100]),
   midi.NoteOnEvent(tick=96, channel=2, data=[57, 0]),
   midi.NoteOnEvent(tick=0, channel=2, data=[57, 100]),
   midi.NoteOnEvent(tick=96, channel=2, data=[57, 0]),
   midi.NoteOnEvent(tick=0, channel=2, data=[53, 100]),
   midi.NoteOnEvent(tick=0, channel=2, data=[60, 100]),
   midi.NoteOnEvent(tick=2420, channel=2, data=[60, 0]),
   midi.NoteOnEvent(tick=76, channel=2, data=[53, 0]),
   midi.NoteOnEvent(tick=0, channel=2, data=[52, 100]),
   midi.NoteOnEvent(tick=132, channel=2, data=[52, 0]),
   midi.NoteOnEvent(tick=60, channel=2, data=[59, 100]),
   midi.NoteOnEvent(tick=132, channel=2, data=[59, 0]),
   midi.NoteOnEvent(tick=60, channel=2, data=[57, 100]),
   midi.NoteOnEvent(tick=64, channel=2, data=[57, 0]),
   midi.NoteOnEvent(tick=32, channel=2, data=[57, 100]),
   midi.NoteOnEvent(tick=64, channel=2, data=[57, 0]),
   midi.NoteOnEvent(tick=32, channel=2, data=[59, 100]),
   midi.NoteOnEvent(tick=0, channel=2, data=[52, 100]),
   midi.NoteOnEvent(tick=536, channel=2, data=[52, 0]),
   midi.NoteOnEvent(tick=0, channel=2, data=[59, 0]),
   midi.NoteOnEvent(tick=40, channel=2, data=[52, 100]),
   midi.NoteOnEvent(tick=132, channel=2, data=[52, 0]),
   midi.NoteOnEvent(tick=60, channel=2, data=[52, 100]),
   midi.NoteOnEvent(tick=64, channel=2, data=[52, 0]),
   midi.NoteOnEvent(tick=32, channel=2, data=[52, 100]),
   midi.NoteOnEvent(tick=64, channel=2, data=[52, 0]),
   midi.NoteOnEvent(tick=32, channel=2, data=[52, 100]),
   midi.NoteOnEvent(tick=132, channel=2, data=[52, 0]),
   midi.NoteOnEvent(tick=60, channel=2, data=[52, 100]),
   midi.NoteOnEvent(tick=64, channel=2, data=[52, 0]),
   midi.NoteOnEvent(tick=32, channel=2, data=[52, 100]),
   midi.NoteOnEvent(tick=64, channel=2, data=[52, 0]),
   midi.NoteOnEvent(tick=32, channel=2, data=[52, 100]),
   midi.NoteOnEvent(tick=132, channel=2, data=[52, 0]),
   midi.NoteOnEvent(tick=60, channel=2, data=[52, 100]),
   midi.NoteOnEvent(tick=64, channel=2, data=[52, 0]),
   midi.NoteOnEvent(tick=32, channel=2, data=[52, 100]),
   midi.NoteOnEvent(tick=64, channel=2, data=[52, 0]),
   midi.NoteOnEvent(tick=32, channel=2, data=[52, 100]),
   midi.NoteOnEvent(tick=132, channel=2, data=[52, 0]),
   midi.NoteOnEvent(tick=60, channel=2, data=[52, 100]),
   midi.NoteOnEvent(tick=64, channel=2, data=[52, 0]),
   midi.NoteOnEvent(tick=32, channel=2, data=[52, 100]),
   midi.NoteOnEvent(tick=64, channel=2, data=[52, 0]),
   midi.NoteOnEvent(tick=32, channel=2, data=[52, 100]),
   midi.NoteOnEvent(tick=132, channel=2, data=[52, 0]),
   midi.NoteOnEvent(tick=60, channel=2, data=[52, 100]),
   midi.NoteOnEvent(tick=64, channel=2, data=[52, 0]),
   midi.NoteOnEvent(tick=32, channel=2, data=[52, 100]),
   midi.NoteOnEvent(tick=64, channel=2, data=[52, 0]),
   midi.NoteOnEvent(tick=32, channel=2, data=[52, 100]),
   midi.NoteOnEvent(tick=132, channel=2, data=[52, 0]),
   midi.NoteOnEvent(tick=60, channel=2, data=[59, 100]),
   midi.NoteOnEvent(tick=132, channel=2, data=[59, 0]),
   midi.NoteOnEvent(tick=60, channel=2, data=[57, 100]),
   midi.NoteOnEvent(tick=64, channel=2, data=[57, 0]),
   midi.NoteOnEvent(tick=32, channel=2, data=[57, 100]),
   midi.NoteOnEvent(tick=64, channel=2, data=[57, 0]),
   midi.NoteOnEvent(tick=32, channel=2, data=[60, 100]),
   midi.NoteOnEvent(tick=0, channel=2, data=[53, 100]),
   midi.NoteOnEvent(tick=2456, channel=2, data=[53, 0]),
   midi.NoteOnEvent(tick=0, channel=2, data=[60, 0]),
   midi.NoteOnEvent(tick=40, channel=2, data=[52, 100]),
   midi.NoteOnEvent(tick=132, channel=2, data=[52, 0]),
   midi.NoteOnEvent(tick=60, channel=2, data=[59, 100]),
   midi.NoteOnEvent(tick=132, channel=2, data=[59, 0]),
   midi.NoteOnEvent(tick=60, channel=2, data=[57, 100]),
   midi.NoteOnEvent(tick=64, channel=2, data=[57, 0]),
   midi.NoteOnEvent(tick=32, channel=2, data=[57, 100]),
   midi.NoteOnEvent(tick=64, channel=2, data=[57, 0]),
   midi.NoteOnEvent(tick=32, channel=2, data=[59, 100]),
   midi.NoteOnEvent(tick=0, channel=2, data=[52, 100]),
   midi.NoteOnEvent(tick=536, channel=2, data=[52, 0]),
   midi.NoteOnEvent(tick=0, channel=2, data=[59, 0]),
   midi.NoteOnEvent(tick=40, channel=2, data=[52, 100]),
   midi.NoteOnEvent(tick=132, channel=2, data=[52, 0]),
   midi.NoteOnEvent(tick=60, channel=2, data=[52, 100]),
   midi.NoteOnEvent(tick=64, channel=2, data=[52, 0]),
   midi.NoteOnEvent(tick=32, channel=2, data=[52, 100]),
   midi.NoteOnEvent(tick=64, channel=2, data=[52, 0]),
   midi.NoteOnEvent(tick=32, channel=2, data=[52, 100]),
   midi.NoteOnEvent(tick=132, channel=2, data=[52, 0]),
   midi.NoteOnEvent(tick=60, channel=2, data=[52, 100]),
   midi.NoteOnEvent(tick=64, channel=2, data=[52, 0]),
   midi.NoteOnEvent(tick=32, channel=2, data=[52, 100]),
   midi.NoteOnEvent(tick=64, channel=2, data=[52, 0]),
   midi.NoteOnEvent(tick=32, channel=2, data=[52, 100]),
   midi.NoteOnEvent(tick=132, channel=2, data=[52, 0]),
   midi.NoteOnEvent(tick=60, channel=2, data=[52, 100]),
   midi.NoteOnEvent(tick=64, channel=2, data=[52, 0]),
   midi.NoteOnEvent(tick=32, channel=2, data=[52, 100]),
   midi.NoteOnEvent(tick=64, channel=2, data=[52, 0]),
   midi.NoteOnEvent(tick=32, channel=2, data=[52, 100]),
   midi.NoteOnEvent(tick=132, channel=2, data=[52, 0]),
   midi.NoteOnEvent(tick=60, channel=2, data=[52, 100]),
   midi.NoteOnEvent(tick=64, channel=2, data=[52, 0]),
   midi.NoteOnEvent(tick=32, channel=2, data=[52, 100]),
   midi.NoteOnEvent(tick=64, channel=2, data=[52, 0]),
   midi.NoteOnEvent(tick=32, channel=2, data=[52, 100]),
   midi.NoteOnEvent(tick=132, channel=2, data=[52, 0]),
   midi.NoteOnEvent(tick=60, channel=2, data=[52, 100]),
   midi.NoteOnEvent(tick=64, channel=2, data=[52, 0]),
   midi.NoteOnEvent(tick=32, channel=2, data=[52, 100]),
   midi.NoteOnEvent(tick=64, channel=2, data=[52, 0]),
   midi.NoteOnEvent(tick=32, channel=2, data=[52, 100]),
   midi.NoteOnEvent(tick=132, channel=2, data=[52, 0]),
   midi.NoteOnEvent(tick=60, channel=2, data=[59, 100]),
   midi.NoteOnEvent(tick=132, channel=2, data=[59, 0]),
   midi.NoteOnEvent(tick=60, channel=2, data=[57, 100]),
   midi.NoteOnEvent(tick=64, channel=2, data=[57, 0]),
   midi.NoteOnEvent(tick=32, channel=2, data=[57, 100]),
   midi.NoteOnEvent(tick=64, channel=2, data=[57, 0]),
   midi.NoteOnEvent(tick=32, channel=2, data=[60, 100]),
   midi.NoteOnEvent(tick=0, channel=2, data=[53, 100]),
   midi.NoteOnEvent(tick=2456, channel=2, data=[53, 0]),
   midi.NoteOnEvent(tick=0, channel=2, data=[60, 0]),
   midi.NoteOnEvent(tick=40, channel=2, data=[52, 100]),
   midi.NoteOnEvent(tick=132, channel=2, data=[52, 0]),
   midi.NoteOnEvent(tick=60, channel=2, data=[59, 100]),
   midi.NoteOnEvent(tick=132, channel=2, data=[59, 0]),
   midi.NoteOnEvent(tick=60, channel=2, data=[57, 100]),
   midi.NoteOnEvent(tick=64, channel=2, data=[57, 0]),
   midi.NoteOnEvent(tick=32, channel=2, data=[57, 100]),
   midi.NoteOnEvent(tick=64, channel=2, data=[57, 0]),
   midi.NoteOnEvent(tick=32, channel=2, data=[59, 100]),
   midi.NoteOnEvent(tick=0, channel=2, data=[52, 100]),
   midi.NoteOnEvent(tick=536, channel=2, data=[52, 0]),
   midi.NoteOnEvent(tick=0, channel=2, data=[59, 0]),
   midi.NoteOnEvent(tick=40, channel=2, data=[52, 100]),
   midi.NoteOnEvent(tick=132, channel=2, data=[52, 0]),
   midi.NoteOnEvent(tick=60, channel=2, data=[52, 100]),
   midi.NoteOnEvent(tick=64, channel=2, data=[52, 0]),
   midi.NoteOnEvent(tick=32, channel=2, data=[52, 100]),
   midi.NoteOnEvent(tick=64, channel=2, data=[52, 0]),
   midi.NoteOnEvent(tick=32, channel=2, data=[52, 100]),
   midi.NoteOnEvent(tick=132, channel=2, data=[52, 0]),
   midi.NoteOnEvent(tick=60, channel=2, data=[52, 100]),
   midi.NoteOnEvent(tick=64, channel=2, data=[52, 0]),
   midi.NoteOnEvent(tick=32, channel=2, data=[52, 100]),
   midi.NoteOnEvent(tick=64, channel=2, data=[52, 0]),
   midi.NoteOnEvent(tick=32, channel=2, data=[52, 100]),
   midi.NoteOnEvent(tick=132, channel=2, data=[52, 0]),
   midi.NoteOnEvent(tick=60, channel=2, data=[52, 100]),
   midi.NoteOnEvent(tick=64, channel=2, data=[52, 0]),
   midi.NoteOnEvent(tick=32, channel=2, data=[52, 100]),
   midi.NoteOnEvent(tick=64, channel=2, data=[52, 0]),
   midi.NoteOnEvent(tick=32, channel=2, data=[52, 100]),
   midi.NoteOnEvent(tick=132, channel=2, data=[52, 0]),
   midi.NoteOnEvent(tick=60, channel=2, data=[52, 100]),
   midi.NoteOnEvent(tick=64, channel=2, data=[52, 0]),
   midi.NoteOnEvent(tick=32, channel=2, data=[52, 100]),
   midi.NoteOnEvent(tick=64, channel=2, data=[52, 0]),
   midi.NoteOnEvent(tick=32, channel=2, data=[52, 100]),
   midi.NoteOnEvent(tick=132, channel=2, data=[52, 0]),
   midi.NoteOnEvent(tick=60, channel=2, data=[52, 100]),
   midi.NoteOnEvent(tick=64, channel=2, data=[52, 0]),
   midi.NoteOnEvent(tick=32, channel=2, data=[52, 100]),
   midi.NoteOnEvent(tick=64, channel=2, data=[52, 0]),
   midi.NoteOnEvent(tick=32, channel=2, data=[52, 100]),
   midi.NoteOnEvent(tick=132, channel=2, data=[52, 0]),
   midi.NoteOnEvent(tick=60, channel=2, data=[59, 100]),
   midi.NoteOnEvent(tick=132, channel=2, data=[59, 0]),
   midi.NoteOnEvent(tick=60, channel=2, data=[57, 100]),
   midi.NoteOnEvent(tick=64, channel=2, data=[57, 0]),
   midi.NoteOnEvent(tick=32, channel=2, data=[57, 100]),
   midi.NoteOnEvent(tick=64, channel=2, data=[57, 0]),
   midi.NoteOnEvent(tick=32, channel=2, data=[60, 100]),
   midi.NoteOnEvent(tick=0, channel=2, data=[53, 100]),
   midi.NoteOnEvent(tick=2456, channel=2, data=[53, 0]),
   midi.NoteOnEvent(tick=0, channel=2, data=[60, 0]),
   midi.NoteOnEvent(tick=40, channel=2, data=[52, 100]),
   midi.NoteOnEvent(tick=132, channel=2, data=[52, 0]),
   midi.NoteOnEvent(tick=60, channel=2, data=[59, 100]),
   midi.NoteOnEvent(tick=132, channel=2, data=[59, 0]),
   midi.NoteOnEvent(tick=60, channel=2, data=[57, 100]),
   midi.NoteOnEvent(tick=64, channel=2, data=[57, 0]),
   midi.NoteOnEvent(tick=32, channel=2, data=[57, 100]),
   midi.NoteOnEvent(tick=64, channel=2, data=[57, 0]),
   midi.NoteOnEvent(tick=32, channel=2, data=[52, 100]),
   midi.NoteOnEvent(tick=0, channel=2, data=[59, 100]),
   midi.NoteOnEvent(tick=152, channel=2, data=[59, 0]),
   midi.NoteOnEvent(tick=0, channel=2, data=[52, 0]),
   midi.NoteOnEvent(tick=3112, channel=2, data=[52, 100]),
   midi.NoteOnEvent(tick=0, channel=2, data=[59, 100]),
   midi.NoteOnEvent(tick=268, channel=2, data=[59, 0]),
   midi.NoteOnEvent(tick=0, channel=2, data=[52, 0]),
   midi.NoteOnEvent(tick=2804, channel=2, data=[52, 100]),
   midi.NoteOnEvent(tick=0, channel=2, data=[59, 100]),
   midi.NoteOnEvent(tick=268, channel=2, data=[59, 0]),
   midi.NoteOnEvent(tick=0, channel=2, data=[52, 0]),
   midi.NoteOnEvent(tick=116, channel=2, data=[66, 100]),
   midi.NoteOnEvent(tick=0, channel=2, data=[59, 100]),
   midi.NoteOnEvent(tick=268, channel=2, data=[59, 0]),
   midi.NoteOnEvent(tick=0, channel=2, data=[66, 0]),
   midi.NoteOnEvent(tick=308, channel=2, data=[65, 100]),
   midi.NoteOnEvent(tick=0, channel=2, data=[58, 100]),
   midi.NoteOnEvent(tick=132, channel=2, data=[58, 0]),
   midi.NoteOnEvent(tick=0, channel=2, data=[65, 0]),
   midi.NoteOnEvent(tick=444, channel=2, data=[66, 100]),
   midi.NoteOnEvent(tick=0, channel=2, data=[59, 100]),
   midi.NoteOnEvent(tick=268, channel=2, data=[59, 0]),
   midi.NoteOnEvent(tick=0, channel=2, data=[66, 0]),
   midi.NoteOnEvent(tick=308, channel=2, data=[71, 100]),
   midi.NoteOnEvent(tick=0, channel=2, data=[64, 100]),
   midi.NoteOnEvent(tick=268, channel=2, data=[64, 0]),
   midi.NoteOnEvent(tick=0, channel=2, data=[71, 0]),
   midi.NoteOnEvent(tick=116, channel=2, data=[70, 100]),
   midi.NoteOnEvent(tick=0, channel=2, data=[63, 100]),
   midi.NoteOnEvent(tick=132, channel=2, data=[63, 0]),
   midi.NoteOnEvent(tick=0, channel=2, data=[70, 0]),
   midi.NoteOnEvent(tick=60, channel=2, data=[60, 100]),
   midi.NoteOnEvent(tick=0, channel=2, data=[67, 100]),
   midi.NoteOnEvent(tick=132, channel=2, data=[67, 0]),
   midi.NoteOnEvent(tick=0, channel=2, data=[60, 0]),
   midi.NoteOnEvent(tick=60, channel=2, data=[66, 100]),
   midi.NoteOnEvent(tick=0, channel=2, data=[59, 100]),
   midi.NoteOnEvent(tick=132, channel=2, data=[59, 0]),
   midi.NoteOnEvent(tick=0, channel=2, data=[66, 0]),
   midi.NoteOnEvent(tick=60, channel=2, data=[52, 100]),
   midi.NoteOnEvent(tick=0, channel=2, data=[59, 100]),
   midi.NoteOnEvent(tick=268, channel=2, data=[59, 0]),
   midi.NoteOnEvent(tick=0, channel=2, data=[52, 0]),
   midi.NoteOnEvent(tick=116, channel=2, data=[66, 100]),
   midi.NoteOnEvent(tick=0, channel=2, data=[59, 100]),
   midi.NoteOnEvent(tick=268, channel=2, data=[59, 0]),
   midi.NoteOnEvent(tick=0, channel=2, data=[66, 0]),
   midi.NoteOnEvent(tick=308, channel=2, data=[65, 100]),
   midi.NoteOnEvent(tick=0, channel=2, data=[58, 100]),
   midi.NoteOnEvent(tick=132, channel=2, data=[58, 0]),
   midi.NoteOnEvent(tick=0, channel=2, data=[65, 0]),
   midi.NoteOnEvent(tick=444, channel=2, data=[66, 100]),
   midi.NoteOnEvent(tick=0, channel=2, data=[59, 100]),
   midi.NoteOnEvent(tick=268, channel=2, data=[59, 0]),
   midi.NoteOnEvent(tick=0, channel=2, data=[66, 0]),
   midi.NoteOnEvent(tick=308, channel=2, data=[71, 100]),
   midi.NoteOnEvent(tick=0, channel=2, data=[64, 100]),
   midi.NoteOnEvent(tick=268, channel=2, data=[64, 0]),
   midi.NoteOnEvent(tick=0, channel=2, data=[71, 0]),
   midi.NoteOnEvent(tick=116, channel=2, data=[70, 100]),
   midi.NoteOnEvent(tick=0, channel=2, data=[63, 100]),
   midi.NoteOnEvent(tick=132, channel=2, data=[63, 0]),
   midi.NoteOnEvent(tick=0, channel=2, data=[70, 0]),
   midi.NoteOnEvent(tick=60, channel=2, data=[60, 100]),
   midi.NoteOnEvent(tick=0, channel=2, data=[67, 100]),
   midi.NoteOnEvent(tick=132, channel=2, data=[67, 0]),
   midi.NoteOnEvent(tick=0, channel=2, data=[60, 0]),
   midi.NoteOnEvent(tick=60, channel=2, data=[66, 100]),
   midi.NoteOnEvent(tick=0, channel=2, data=[59, 100]),
   midi.NoteOnEvent(tick=132, channel=2, data=[59, 0]),
   midi.NoteOnEvent(tick=0, channel=2, data=[66, 0]),
   midi.NoteOnEvent(tick=60, channel=2, data=[52, 100]),
   midi.NoteOnEvent(tick=64, channel=2, data=[52, 0]),
   midi.NoteOnEvent(tick=32, channel=2, data=[52, 100]),
   midi.NoteOnEvent(tick=64, channel=2, data=[52, 0]),
   midi.NoteOnEvent(tick=32, channel=2, data=[52, 100]),
   midi.NoteOnEvent(tick=64, channel=2, data=[52, 0]),
   midi.NoteOnEvent(tick=32, channel=2, data=[52, 100]),
   midi.NoteOnEvent(tick=64, channel=2, data=[52, 0]),
   midi.NoteOnEvent(tick=32, channel=2, data=[66, 100]),
   midi.NoteOnEvent(tick=0, channel=2, data=[59, 100]),
   midi.NoteOnEvent(tick=64, channel=2, data=[59, 0]),
   midi.NoteOnEvent(tick=0, channel=2, data=[66, 0]),
   midi.NoteOnEvent(tick=32, channel=2, data=[59, 100]),
   midi.NoteOnEvent(tick=0, channel=2, data=[66, 100]),
   midi.NoteOnEvent(tick=64, channel=2, data=[66, 0]),
   midi.NoteOnEvent(tick=0, channel=2, data=[59, 0]),
   midi.NoteOnEvent(tick=32, channel=2, data=[52, 100]),
   midi.NoteOnEvent(tick=64, channel=2, data=[52, 0]),
   midi.NoteOnEvent(tick=32, channel=2, data=[52, 100]),
   midi.NoteOnEvent(tick=64, channel=2, data=[52, 0]),
   midi.NoteOnEvent(tick=32, channel=2, data=[52, 100]),
   midi.NoteOnEvent(tick=64, channel=2, data=[52, 0]),
   midi.NoteOnEvent(tick=32, channel=2, data=[52, 100]),
   midi.NoteOnEvent(tick=64, channel=2, data=[52, 0]),
   midi.NoteOnEvent(tick=32, channel=2, data=[65, 100]),
   midi.NoteOnEvent(tick=0, channel=2, data=[58, 100]),
   midi.NoteOnEvent(tick=64, channel=2, data=[58, 0]),
   midi.NoteOnEvent(tick=0, channel=2, data=[65, 0]),
   midi.NoteOnEvent(tick=32, channel=2, data=[65, 100]),
   midi.NoteOnEvent(tick=0, channel=2, data=[58, 100]),
   midi.NoteOnEvent(tick=64, channel=2, data=[58, 0]),
   midi.NoteOnEvent(tick=0, channel=2, data=[65, 0]),
   midi.NoteOnEvent(tick=32, channel=2, data=[52, 100]),
   midi.NoteOnEvent(tick=64, channel=2, data=[52, 0]),
   midi.NoteOnEvent(tick=32, channel=2, data=[52, 100]),
   midi.NoteOnEvent(tick=64, channel=2, data=[52, 0]),
   midi.NoteOnEvent(tick=32, channel=2, data=[52, 100]),
   midi.NoteOnEvent(tick=64, channel=2, data=[52, 0]),
   midi.NoteOnEvent(tick=32, channel=2, data=[52, 100]),
   midi.NoteOnEvent(tick=64, channel=2, data=[52, 0]),
   midi.NoteOnEvent(tick=32, channel=2, data=[66, 100]),
   midi.NoteOnEvent(tick=0, channel=2, data=[59, 100]),
   midi.NoteOnEvent(tick=64, channel=2, data=[59, 0]),
   midi.NoteOnEvent(tick=0, channel=2, data=[66, 0]),
   midi.NoteOnEvent(tick=32, channel=2, data=[59, 100]),
   midi.NoteOnEvent(tick=0, channel=2, data=[66, 100]),
   midi.NoteOnEvent(tick=64, channel=2, data=[66, 0]),
   midi.NoteOnEvent(tick=0, channel=2, data=[59, 0]),
   midi.NoteOnEvent(tick=32, channel=2, data=[52, 100]),
   midi.NoteOnEvent(tick=64, channel=2, data=[52, 0]),
   midi.NoteOnEvent(tick=32, channel=2, data=[52, 100]),
   midi.NoteOnEvent(tick=64, channel=2, data=[52, 0]),
   midi.NoteOnEvent(tick=32, channel=2, data=[52, 100]),
   midi.NoteOnEvent(tick=64, channel=2, data=[52, 0]),
   midi.NoteOnEvent(tick=32, channel=2, data=[52, 100]),
   midi.NoteOnEvent(tick=64, channel=2, data=[52, 0]),
   midi.NoteOnEvent(tick=32, channel=2, data=[71, 100]),
   midi.NoteOnEvent(tick=0, channel=2, data=[64, 100]),
   midi.NoteOnEvent(tick=268, channel=2, data=[64, 0]),
   midi.NoteOnEvent(tick=0, channel=2, data=[71, 0]),
   midi.NoteOnEvent(tick=116, channel=2, data=[70, 100]),
   midi.NoteOnEvent(tick=0, channel=2, data=[63, 100]),
   midi.NoteOnEvent(tick=132, channel=2, data=[63, 0]),
   midi.NoteOnEvent(tick=0, channel=2, data=[70, 0]),
   midi.NoteOnEvent(tick=60, channel=2, data=[60, 100]),
   midi.NoteOnEvent(tick=0, channel=2, data=[67, 100]),
   midi.NoteOnEvent(tick=132, channel=2, data=[67, 0]),
   midi.NoteOnEvent(tick=0, channel=2, data=[60, 0]),
   midi.NoteOnEvent(tick=60, channel=2, data=[66, 100]),
   midi.NoteOnEvent(tick=0, channel=2, data=[59, 100]),
   midi.NoteOnEvent(tick=132, channel=2, data=[59, 0]),
   midi.NoteOnEvent(tick=0, channel=2, data=[66, 0]),
   midi.NoteOnEvent(tick=60, channel=2, data=[52, 100]),
   midi.NoteOnEvent(tick=64, channel=2, data=[52, 0]),
   midi.NoteOnEvent(tick=32, channel=2, data=[52, 100]),
   midi.NoteOnEvent(tick=64, channel=2, data=[52, 0]),
   midi.NoteOnEvent(tick=32, channel=2, data=[52, 100]),
   midi.NoteOnEvent(tick=64, channel=2, data=[52, 0]),
   midi.NoteOnEvent(tick=32, channel=2, data=[52, 100]),
   midi.NoteOnEvent(tick=64, channel=2, data=[52, 0]),
   midi.NoteOnEvent(tick=32, channel=2, data=[66, 100]),
   midi.NoteOnEvent(tick=0, channel=2, data=[59, 100]),
   midi.NoteOnEvent(tick=64, channel=2, data=[59, 0]),
   midi.NoteOnEvent(tick=0, channel=2, data=[66, 0]),
   midi.NoteOnEvent(tick=32, channel=2, data=[59, 100]),
   midi.NoteOnEvent(tick=0, channel=2, data=[66, 100]),
   midi.NoteOnEvent(tick=64, channel=2, data=[66, 0]),
   midi.NoteOnEvent(tick=0, channel=2, data=[59, 0]),
   midi.NoteOnEvent(tick=32, channel=2, data=[52, 100]),
   midi.NoteOnEvent(tick=64, channel=2, data=[52, 0]),
   midi.NoteOnEvent(tick=32, channel=2, data=[52, 100]),
   midi.NoteOnEvent(tick=64, channel=2, data=[52, 0]),
   midi.NoteOnEvent(tick=32, channel=2, data=[52, 100]),
   midi.NoteOnEvent(tick=64, channel=2, data=[52, 0]),
   midi.NoteOnEvent(tick=32, channel=2, data=[52, 100]),
   midi.NoteOnEvent(tick=64, channel=2, data=[52, 0]),
   midi.NoteOnEvent(tick=32, channel=2, data=[65, 100]),
   midi.NoteOnEvent(tick=0, channel=2, data=[58, 100]),
   midi.NoteOnEvent(tick=64, channel=2, data=[58, 0]),
   midi.NoteOnEvent(tick=0, channel=2, data=[65, 0]),
   midi.NoteOnEvent(tick=32, channel=2, data=[65, 100]),
   midi.NoteOnEvent(tick=0, channel=2, data=[58, 100]),
   midi.NoteOnEvent(tick=64, channel=2, data=[58, 0]),
   midi.NoteOnEvent(tick=0, channel=2, data=[65, 0]),
   midi.NoteOnEvent(tick=32, channel=2, data=[52, 100]),
   midi.NoteOnEvent(tick=64, channel=2, data=[52, 0]),
   midi.NoteOnEvent(tick=32, channel=2, data=[52, 100]),
   midi.NoteOnEvent(tick=64, channel=2, data=[52, 0]),
   midi.NoteOnEvent(tick=32, channel=2, data=[52, 100]),
   midi.NoteOnEvent(tick=64, channel=2, data=[52, 0]),
   midi.NoteOnEvent(tick=32, channel=2, data=[52, 100]),
   midi.NoteOnEvent(tick=64, channel=2, data=[52, 0]),
   midi.NoteOnEvent(tick=32, channel=2, data=[66, 100]),
   midi.NoteOnEvent(tick=0, channel=2, data=[59, 100]),
   midi.NoteOnEvent(tick=64, channel=2, data=[59, 0]),
   midi.NoteOnEvent(tick=0, channel=2, data=[66, 0]),
   midi.NoteOnEvent(tick=32, channel=2, data=[59, 100]),
   midi.NoteOnEvent(tick=0, channel=2, data=[66, 100]),
   midi.NoteOnEvent(tick=64, channel=2, data=[66, 0]),
   midi.NoteOnEvent(tick=0, channel=2, data=[59, 0]),
   midi.NoteOnEvent(tick=32, channel=2, data=[52, 100]),
   midi.NoteOnEvent(tick=64, channel=2, data=[52, 0]),
   midi.NoteOnEvent(tick=32, channel=2, data=[52, 100]),
   midi.NoteOnEvent(tick=64, channel=2, data=[52, 0]),
   midi.NoteOnEvent(tick=32, channel=2, data=[52, 100]),
   midi.NoteOnEvent(tick=64, channel=2, data=[52, 0]),
   midi.NoteOnEvent(tick=32, channel=2, data=[52, 100]),
   midi.NoteOnEvent(tick=64, channel=2, data=[52, 0]),
   midi.NoteOnEvent(tick=32, channel=2, data=[71, 100]),
   midi.NoteOnEvent(tick=0, channel=2, data=[64, 100]),
   midi.NoteOnEvent(tick=268, channel=2, data=[64, 0]),
   midi.NoteOnEvent(tick=0, channel=2, data=[71, 0]),
   midi.NoteOnEvent(tick=116, channel=2, data=[70, 100]),
   midi.NoteOnEvent(tick=0, channel=2, data=[63, 100]),
   midi.NoteOnEvent(tick=132, channel=2, data=[63, 0]),
   midi.NoteOnEvent(tick=0, channel=2, data=[70, 0]),
   midi.NoteOnEvent(tick=60, channel=2, data=[60, 100]),
   midi.NoteOnEvent(tick=0, channel=2, data=[67, 100]),
   midi.NoteOnEvent(tick=132, channel=2, data=[67, 0]),
   midi.NoteOnEvent(tick=0, channel=2, data=[60, 0]),
   midi.NoteOnEvent(tick=60, channel=2, data=[66, 100]),
   midi.NoteOnEvent(tick=0, channel=2, data=[59, 100]),
   midi.NoteOnEvent(tick=132, channel=2, data=[59, 0]),
   midi.NoteOnEvent(tick=0, channel=2, data=[66, 0]),
   midi.NoteOnEvent(tick=60, channel=2, data=[52, 100]),
   midi.NoteOnEvent(tick=64, channel=2, data=[52, 0]),
   midi.NoteOnEvent(tick=32, channel=2, data=[52, 100]),
   midi.NoteOnEvent(tick=64, channel=2, data=[52, 0]),
   midi.NoteOnEvent(tick=32, channel=2, data=[52, 100]),
   midi.NoteOnEvent(tick=64, channel=2, data=[52, 0]),
   midi.NoteOnEvent(tick=32, channel=2, data=[52, 100]),
   midi.NoteOnEvent(tick=64, channel=2, data=[52, 0]),
   midi.NoteOnEvent(tick=32, channel=2, data=[66, 100]),
   midi.NoteOnEvent(tick=0, channel=2, data=[59, 100]),
   midi.NoteOnEvent(tick=64, channel=2, data=[59, 0]),
   midi.NoteOnEvent(tick=0, channel=2, data=[66, 0]),
   midi.NoteOnEvent(tick=32, channel=2, data=[59, 100]),
   midi.NoteOnEvent(tick=0, channel=2, data=[66, 100]),
   midi.NoteOnEvent(tick=64, channel=2, data=[66, 0]),
   midi.NoteOnEvent(tick=0, channel=2, data=[59, 0]),
   midi.NoteOnEvent(tick=32, channel=2, data=[52, 100]),
   midi.NoteOnEvent(tick=64, channel=2, data=[52, 0]),
   midi.NoteOnEvent(tick=32, channel=2, data=[52, 100]),
   midi.NoteOnEvent(tick=64, channel=2, data=[52, 0]),
   midi.NoteOnEvent(tick=32, channel=2, data=[52, 100]),
   midi.NoteOnEvent(tick=64, channel=2, data=[52, 0]),
   midi.NoteOnEvent(tick=32, channel=2, data=[52, 100]),
   midi.NoteOnEvent(tick=64, channel=2, data=[52, 0]),
   midi.NoteOnEvent(tick=32, channel=2, data=[65, 100]),
   midi.NoteOnEvent(tick=0, channel=2, data=[58, 100]),
   midi.NoteOnEvent(tick=64, channel=2, data=[58, 0]),
   midi.NoteOnEvent(tick=0, channel=2, data=[65, 0]),
   midi.NoteOnEvent(tick=32, channel=2, data=[65, 100]),
   midi.NoteOnEvent(tick=0, channel=2, data=[58, 100]),
   midi.NoteOnEvent(tick=64, channel=2, data=[58, 0]),
   midi.NoteOnEvent(tick=0, channel=2, data=[65, 0]),
   midi.NoteOnEvent(tick=32, channel=2, data=[52, 100]),
   midi.NoteOnEvent(tick=64, channel=2, data=[52, 0]),
   midi.NoteOnEvent(tick=32, channel=2, data=[52, 100]),
   midi.NoteOnEvent(tick=64, channel=2, data=[52, 0]),
   midi.NoteOnEvent(tick=32, channel=2, data=[52, 100]),
   midi.NoteOnEvent(tick=64, channel=2, data=[52, 0]),
   midi.NoteOnEvent(tick=32, channel=2, data=[52, 100]),
   midi.NoteOnEvent(tick=64, channel=2, data=[52, 0]),
   midi.NoteOnEvent(tick=32, channel=2, data=[66, 100]),
   midi.NoteOnEvent(tick=0, channel=2, data=[59, 100]),
   midi.NoteOnEvent(tick=64, channel=2, data=[59, 0]),
   midi.NoteOnEvent(tick=0, channel=2, data=[66, 0]),
   midi.NoteOnEvent(tick=32, channel=2, data=[59, 100]),
   midi.NoteOnEvent(tick=0, channel=2, data=[66, 100]),
   midi.NoteOnEvent(tick=64, channel=2, data=[66, 0]),
   midi.NoteOnEvent(tick=0, channel=2, data=[59, 0]),
   midi.NoteOnEvent(tick=32, channel=2, data=[52, 100]),
   midi.NoteOnEvent(tick=64, channel=2, data=[52, 0]),
   midi.NoteOnEvent(tick=32, channel=2, data=[52, 100]),
   midi.NoteOnEvent(tick=64, channel=2, data=[52, 0]),
   midi.NoteOnEvent(tick=32, channel=2, data=[52, 100]),
   midi.NoteOnEvent(tick=64, channel=2, data=[52, 0]),
   midi.NoteOnEvent(tick=32, channel=2, data=[52, 100]),
   midi.NoteOnEvent(tick=64, channel=2, data=[52, 0]),
   midi.NoteOnEvent(tick=32, channel=2, data=[71, 100]),
   midi.NoteOnEvent(tick=0, channel=2, data=[64, 100]),
   midi.NoteOnEvent(tick=268, channel=2, data=[64, 0]),
   midi.NoteOnEvent(tick=0, channel=2, data=[71, 0]),
   midi.NoteOnEvent(tick=116, channel=2, data=[70, 100]),
   midi.NoteOnEvent(tick=0, channel=2, data=[63, 100]),
   midi.NoteOnEvent(tick=132, channel=2, data=[63, 0]),
   midi.NoteOnEvent(tick=0, channel=2, data=[70, 0]),
   midi.NoteOnEvent(tick=60, channel=2, data=[60, 100]),
   midi.NoteOnEvent(tick=0, channel=2, data=[67, 100]),
   midi.NoteOnEvent(tick=132, channel=2, data=[67, 0]),
   midi.NoteOnEvent(tick=0, channel=2, data=[60, 0]),
   midi.NoteOnEvent(tick=60, channel=2, data=[66, 100]),
   midi.NoteOnEvent(tick=0, channel=2, data=[59, 100]),
   midi.NoteOnEvent(tick=132, channel=2, data=[59, 0]),
   midi.NoteOnEvent(tick=0, channel=2, data=[66, 0]),
   midi.NoteOnEvent(tick=60, channel=2, data=[52, 100]),
   midi.NoteOnEvent(tick=64, channel=2, data=[52, 0]),
   midi.NoteOnEvent(tick=32, channel=2, data=[52, 100]),
   midi.NoteOnEvent(tick=64, channel=2, data=[52, 0]),
   midi.NoteOnEvent(tick=32, channel=2, data=[52, 100]),
   midi.NoteOnEvent(tick=64, channel=2, data=[52, 0]),
   midi.NoteOnEvent(tick=32, channel=2, data=[52, 100]),
   midi.NoteOnEvent(tick=64, channel=2, data=[52, 0]),
   midi.NoteOnEvent(tick=32, channel=2, data=[66, 100]),
   midi.NoteOnEvent(tick=0, channel=2, data=[59, 100]),
   midi.NoteOnEvent(tick=64, channel=2, data=[59, 0]),
   midi.NoteOnEvent(tick=0, channel=2, data=[66, 0]),
   midi.NoteOnEvent(tick=32, channel=2, data=[59, 100]),
   midi.NoteOnEvent(tick=0, channel=2, data=[66, 100]),
   midi.NoteOnEvent(tick=64, channel=2, data=[66, 0]),
   midi.NoteOnEvent(tick=0, channel=2, data=[59, 0]),
   midi.NoteOnEvent(tick=32, channel=2, data=[52, 100]),
   midi.NoteOnEvent(tick=64, channel=2, data=[52, 0]),
   midi.NoteOnEvent(tick=32, channel=2, data=[52, 100]),
   midi.NoteOnEvent(tick=64, channel=2, data=[52, 0]),
   midi.NoteOnEvent(tick=32, channel=2, data=[52, 100]),
   midi.NoteOnEvent(tick=64, channel=2, data=[52, 0]),
   midi.NoteOnEvent(tick=32, channel=2, data=[52, 100]),
   midi.NoteOnEvent(tick=64, channel=2, data=[52, 0]),
   midi.NoteOnEvent(tick=32, channel=2, data=[65, 100]),
   midi.NoteOnEvent(tick=0, channel=2, data=[58, 100]),
   midi.NoteOnEvent(tick=64, channel=2, data=[58, 0]),
   midi.NoteOnEvent(tick=0, channel=2, data=[65, 0]),
   midi.NoteOnEvent(tick=32, channel=2, data=[65, 100]),
   midi.NoteOnEvent(tick=0, channel=2, data=[58, 100]),
   midi.NoteOnEvent(tick=64, channel=2, data=[58, 0]),
   midi.NoteOnEvent(tick=0, channel=2, data=[65, 0]),
   midi.NoteOnEvent(tick=32, channel=2, data=[52, 100]),
   midi.NoteOnEvent(tick=64, channel=2, data=[52, 0]),
   midi.NoteOnEvent(tick=32, channel=2, data=[52, 100]),
   midi.NoteOnEvent(tick=64, channel=2, data=[52, 0]),
   midi.NoteOnEvent(tick=32, channel=2, data=[52, 100]),
   midi.NoteOnEvent(tick=64, channel=2, data=[52, 0]),
   midi.NoteOnEvent(tick=32, channel=2, data=[52, 100]),
   midi.NoteOnEvent(tick=64, channel=2, data=[52, 0]),
   midi.NoteOnEvent(tick=32, channel=2, data=[66, 100]),
   midi.NoteOnEvent(tick=0, channel=2, data=[59, 100]),
   midi.NoteOnEvent(tick=64, channel=2, data=[59, 0]),
   midi.NoteOnEvent(tick=0, channel=2, data=[66, 0]),
   midi.NoteOnEvent(tick=32, channel=2, data=[59, 100]),
   midi.NoteOnEvent(tick=0, channel=2, data=[66, 100]),
   midi.NoteOnEvent(tick=64, channel=2, data=[66, 0]),
   midi.NoteOnEvent(tick=0, channel=2, data=[59, 0]),
   midi.NoteOnEvent(tick=32, channel=2, data=[52, 100]),
   midi.NoteOnEvent(tick=64, channel=2, data=[52, 0]),
   midi.NoteOnEvent(tick=32, channel=2, data=[52, 100]),
   midi.NoteOnEvent(tick=64, channel=2, data=[52, 0]),
   midi.NoteOnEvent(tick=32, channel=2, data=[52, 100]),
   midi.NoteOnEvent(tick=64, channel=2, data=[52, 0]),
   midi.NoteOnEvent(tick=32, channel=2, data=[52, 100]),
   midi.NoteOnEvent(tick=64, channel=2, data=[52, 0]),
   midi.NoteOnEvent(tick=32, channel=2, data=[71, 100]),
   midi.NoteOnEvent(tick=0, channel=2, data=[64, 100]),
   midi.NoteOnEvent(tick=268, channel=2, data=[64, 0]),
   midi.NoteOnEvent(tick=0, channel=2, data=[71, 0]),
   midi.NoteOnEvent(tick=116, channel=2, data=[70, 100]),
   midi.NoteOnEvent(tick=0, channel=2, data=[63, 100]),
   midi.NoteOnEvent(tick=132, channel=2, data=[63, 0]),
   midi.NoteOnEvent(tick=0, channel=2, data=[70, 0]),
   midi.NoteOnEvent(tick=60, channel=2, data=[60, 100]),
   midi.NoteOnEvent(tick=0, channel=2, data=[67, 100]),
   midi.NoteOnEvent(tick=132, channel=2, data=[67, 0]),
   midi.NoteOnEvent(tick=0, channel=2, data=[60, 0]),
   midi.NoteOnEvent(tick=60, channel=2, data=[66, 100]),
   midi.NoteOnEvent(tick=0, channel=2, data=[59, 100]),
   midi.NoteOnEvent(tick=132, channel=2, data=[59, 0]),
   midi.NoteOnEvent(tick=0, channel=2, data=[66, 0]),
   midi.NoteOnEvent(tick=60, channel=2, data=[64, 100]),
   midi.NoteOnEvent(tick=96, channel=2, data=[64, 0]),
   midi.NoteOnEvent(tick=0, channel=2, data=[62, 100]),
   midi.NoteOnEvent(tick=96, channel=2, data=[62, 0]),
   midi.NoteOnEvent(tick=0, channel=2, data=[59, 100]),
   midi.NoteOnEvent(tick=96, channel=2, data=[59, 0]),
   midi.NoteOnEvent(tick=0, channel=2, data=[59, 100]),
   midi.NoteOnEvent(tick=96, channel=2, data=[59, 0]),
   midi.NoteOnEvent(tick=0, channel=2, data=[58, 100]),
   midi.NoteOnEvent(tick=0, channel=2, data=[65, 100]),
   midi.NoteOnEvent(tick=384, channel=2, data=[65, 0]),
   midi.NoteOnEvent(tick=0, channel=2, data=[58, 0]),
   midi.NoteOnEvent(tick=0, channel=2, data=[64, 100]),
   midi.NoteOnEvent(tick=96, channel=2, data=[64, 0]),
   midi.NoteOnEvent(tick=0, channel=2, data=[62, 100]),
   midi.NoteOnEvent(tick=96, channel=2, data=[62, 0]),
   midi.NoteOnEvent(tick=0, channel=2, data=[59, 100]),
   midi.NoteOnEvent(tick=96, channel=2, data=[59, 0]),
   midi.NoteOnEvent(tick=0, channel=2, data=[59, 100]),
   midi.NoteOnEvent(tick=96, channel=2, data=[59, 0]),
   midi.NoteOnEvent(tick=0, channel=2, data=[58, 100]),
   midi.NoteOnEvent(tick=0, channel=2, data=[65, 100]),
   midi.NoteOnEvent(tick=384, channel=2, data=[65, 0]),
   midi.NoteOnEvent(tick=0, channel=2, data=[58, 0]),
   midi.NoteOnEvent(tick=0, channel=2, data=[64, 100]),
   midi.NoteOnEvent(tick=96, channel=2, data=[64, 0]),
   midi.NoteOnEvent(tick=0, channel=2, data=[62, 100]),
   midi.NoteOnEvent(tick=96, channel=2, data=[62, 0]),
   midi.NoteOnEvent(tick=0, channel=2, data=[59, 100]),
   midi.NoteOnEvent(tick=96, channel=2, data=[59, 0]),
   midi.NoteOnEvent(tick=0, channel=2, data=[59, 100]),
   midi.NoteOnEvent(tick=96, channel=2, data=[59, 0]),
   midi.NoteOnEvent(tick=0, channel=2, data=[58, 100]),
   midi.NoteOnEvent(tick=0, channel=2, data=[65, 100]),
   midi.NoteOnEvent(tick=384, channel=2, data=[65, 0]),
   midi.NoteOnEvent(tick=0, channel=2, data=[58, 0]),
   midi.NoteOnEvent(tick=0, channel=2, data=[64, 100]),
   midi.NoteOnEvent(tick=96, channel=2, data=[64, 0]),
   midi.NoteOnEvent(tick=0, channel=2, data=[62, 100]),
   midi.NoteOnEvent(tick=96, channel=2, data=[62, 0]),
   midi.NoteOnEvent(tick=0, channel=2, data=[59, 100]),
   midi.NoteOnEvent(tick=96, channel=2, data=[59, 0]),
   midi.NoteOnEvent(tick=0, channel=2, data=[59, 100]),
   midi.NoteOnEvent(tick=96, channel=2, data=[59, 0]),
   midi.NoteOnEvent(tick=0, channel=2, data=[62, 100]),
   midi.NoteOnEvent(tick=0, channel=2, data=[55, 100]),
   midi.NoteOnEvent(tick=384, channel=2, data=[55, 0]),
   midi.NoteOnEvent(tick=0, channel=2, data=[62, 0]),
   midi.NoteOnEvent(tick=0, channel=2, data=[52, 100]),
   midi.NoteOnEvent(tick=64, channel=2, data=[52, 0]),
   midi.NoteOnEvent(tick=32, channel=2, data=[52, 100]),
   midi.NoteOnEvent(tick=64, channel=2, data=[52, 0]),
   midi.NoteOnEvent(tick=32, channel=2, data=[52, 100]),
   midi.NoteOnEvent(tick=64, channel=2, data=[52, 0]),
   midi.NoteOnEvent(tick=32, channel=2, data=[52, 100]),
   midi.NoteOnEvent(tick=64, channel=2, data=[52, 0]),
   midi.NoteOnEvent(tick=32, channel=2, data=[66, 100]),
   midi.NoteOnEvent(tick=0, channel=2, data=[59, 100]),
   midi.NoteOnEvent(tick=64, channel=2, data=[59, 0]),
   midi.NoteOnEvent(tick=0, channel=2, data=[66, 0]),
   midi.NoteOnEvent(tick=32, channel=2, data=[59, 100]),
   midi.NoteOnEvent(tick=0, channel=2, data=[66, 100]),
   midi.NoteOnEvent(tick=64, channel=2, data=[66, 0]),
   midi.NoteOnEvent(tick=0, channel=2, data=[59, 0]),
   midi.NoteOnEvent(tick=32, channel=2, data=[52, 100]),
   midi.NoteOnEvent(tick=64, channel=2, data=[52, 0]),
   midi.NoteOnEvent(tick=32, channel=2, data=[52, 100]),
   midi.NoteOnEvent(tick=64, channel=2, data=[52, 0]),
   midi.NoteOnEvent(tick=32, channel=2, data=[52, 100]),
   midi.NoteOnEvent(tick=64, channel=2, data=[52, 0]),
   midi.NoteOnEvent(tick=32, channel=2, data=[52, 100]),
   midi.NoteOnEvent(tick=64, channel=2, data=[52, 0]),
   midi.NoteOnEvent(tick=32, channel=2, data=[65, 100]),
   midi.NoteOnEvent(tick=0, channel=2, data=[58, 100]),
   midi.NoteOnEvent(tick=64, channel=2, data=[58, 0]),
   midi.NoteOnEvent(tick=0, channel=2, data=[65, 0]),
   midi.NoteOnEvent(tick=32, channel=2, data=[65, 100]),
   midi.NoteOnEvent(tick=0, channel=2, data=[58, 100]),
   midi.NoteOnEvent(tick=64, channel=2, data=[58, 0]),
   midi.NoteOnEvent(tick=0, channel=2, data=[65, 0]),
   midi.NoteOnEvent(tick=32, channel=2, data=[52, 100]),
   midi.NoteOnEvent(tick=64, channel=2, data=[52, 0]),
   midi.NoteOnEvent(tick=32, channel=2, data=[52, 100]),
   midi.NoteOnEvent(tick=64, channel=2, data=[52, 0]),
   midi.NoteOnEvent(tick=32, channel=2, data=[52, 100]),
   midi.NoteOnEvent(tick=64, channel=2, data=[52, 0]),
   midi.NoteOnEvent(tick=32, channel=2, data=[52, 100]),
   midi.NoteOnEvent(tick=64, channel=2, data=[52, 0]),
   midi.NoteOnEvent(tick=32, channel=2, data=[66, 100]),
   midi.NoteOnEvent(tick=0, channel=2, data=[59, 100]),
   midi.NoteOnEvent(tick=64, channel=2, data=[59, 0]),
   midi.NoteOnEvent(tick=0, channel=2, data=[66, 0]),
   midi.NoteOnEvent(tick=32, channel=2, data=[59, 100]),
   midi.NoteOnEvent(tick=0, channel=2, data=[66, 100]),
   midi.NoteOnEvent(tick=64, channel=2, data=[66, 0]),
   midi.NoteOnEvent(tick=0, channel=2, data=[59, 0]),
   midi.NoteOnEvent(tick=32, channel=2, data=[52, 100]),
   midi.NoteOnEvent(tick=64, channel=2, data=[52, 0]),
   midi.NoteOnEvent(tick=32, channel=2, data=[52, 100]),
   midi.NoteOnEvent(tick=64, channel=2, data=[52, 0]),
   midi.NoteOnEvent(tick=32, channel=2, data=[52, 100]),
   midi.NoteOnEvent(tick=64, channel=2, data=[52, 0]),
   midi.NoteOnEvent(tick=32, channel=2, data=[52, 100]),
   midi.NoteOnEvent(tick=64, channel=2, data=[52, 0]),
   midi.NoteOnEvent(tick=32, channel=2, data=[71, 100]),
   midi.NoteOnEvent(tick=0, channel=2, data=[64, 100]),
   midi.NoteOnEvent(tick=268, channel=2, data=[64, 0]),
   midi.NoteOnEvent(tick=0, channel=2, data=[71, 0]),
   midi.NoteOnEvent(tick=116, channel=2, data=[70, 100]),
   midi.NoteOnEvent(tick=0, channel=2, data=[63, 100]),
   midi.NoteOnEvent(tick=132, channel=2, data=[63, 0]),
   midi.NoteOnEvent(tick=0, channel=2, data=[70, 0]),
   midi.NoteOnEvent(tick=60, channel=2, data=[60, 100]),
   midi.NoteOnEvent(tick=0, channel=2, data=[67, 100]),
   midi.NoteOnEvent(tick=132, channel=2, data=[67, 0]),
   midi.NoteOnEvent(tick=0, channel=2, data=[60, 0]),
   midi.NoteOnEvent(tick=60, channel=2, data=[66, 100]),
   midi.NoteOnEvent(tick=0, channel=2, data=[59, 100]),
   midi.NoteOnEvent(tick=132, channel=2, data=[59, 0]),
   midi.NoteOnEvent(tick=0, channel=2, data=[66, 0]),
   midi.NoteOnEvent(tick=60, channel=2, data=[52, 100]),
   midi.NoteOnEvent(tick=64, channel=2, data=[52, 0]),
   midi.NoteOnEvent(tick=32, channel=2, data=[52, 100]),
   midi.NoteOnEvent(tick=64, channel=2, data=[52, 0]),
   midi.NoteOnEvent(tick=32, channel=2, data=[52, 100]),
   midi.NoteOnEvent(tick=64, channel=2, data=[52, 0]),
   midi.NoteOnEvent(tick=32, channel=2, data=[52, 100]),
   midi.NoteOnEvent(tick=64, channel=2, data=[52, 0]),
   midi.NoteOnEvent(tick=32, channel=2, data=[66, 100]),
   midi.NoteOnEvent(tick=0, channel=2, data=[59, 100]),
   midi.NoteOnEvent(tick=64, channel=2, data=[59, 0]),
   midi.NoteOnEvent(tick=0, channel=2, data=[66, 0]),
   midi.NoteOnEvent(tick=32, channel=2, data=[59, 100]),
   midi.NoteOnEvent(tick=0, channel=2, data=[66, 100]),
   midi.NoteOnEvent(tick=64, channel=2, data=[66, 0]),
   midi.NoteOnEvent(tick=0, channel=2, data=[59, 0]),
   midi.NoteOnEvent(tick=32, channel=2, data=[52, 100]),
   midi.NoteOnEvent(tick=64, channel=2, data=[52, 0]),
   midi.NoteOnEvent(tick=32, channel=2, data=[52, 100]),
   midi.NoteOnEvent(tick=64, channel=2, data=[52, 0]),
   midi.NoteOnEvent(tick=32, channel=2, data=[52, 100]),
   midi.NoteOnEvent(tick=64, channel=2, data=[52, 0]),
   midi.NoteOnEvent(tick=32, channel=2, data=[52, 100]),
   midi.NoteOnEvent(tick=64, channel=2, data=[52, 0]),
   midi.NoteOnEvent(tick=32, channel=2, data=[65, 100]),
   midi.NoteOnEvent(tick=0, channel=2, data=[58, 100]),
   midi.NoteOnEvent(tick=64, channel=2, data=[58, 0]),
   midi.NoteOnEvent(tick=0, channel=2, data=[65, 0]),
   midi.NoteOnEvent(tick=32, channel=2, data=[65, 100]),
   midi.NoteOnEvent(tick=0, channel=2, data=[58, 100]),
   midi.NoteOnEvent(tick=64, channel=2, data=[58, 0]),
   midi.NoteOnEvent(tick=0, channel=2, data=[65, 0]),
   midi.NoteOnEvent(tick=32, channel=2, data=[52, 100]),
   midi.NoteOnEvent(tick=64, channel=2, data=[52, 0]),
   midi.NoteOnEvent(tick=32, channel=2, data=[52, 100]),
   midi.NoteOnEvent(tick=64, channel=2, data=[52, 0]),
   midi.NoteOnEvent(tick=32, channel=2, data=[52, 100]),
   midi.NoteOnEvent(tick=64, channel=2, data=[52, 0]),
   midi.NoteOnEvent(tick=32, channel=2, data=[52, 100]),
   midi.NoteOnEvent(tick=64, channel=2, data=[52, 0]),
   midi.NoteOnEvent(tick=32, channel=2, data=[66, 100]),
   midi.NoteOnEvent(tick=0, channel=2, data=[59, 100]),
   midi.NoteOnEvent(tick=64, channel=2, data=[59, 0]),
   midi.NoteOnEvent(tick=0, channel=2, data=[66, 0]),
   midi.NoteOnEvent(tick=32, channel=2, data=[59, 100]),
   midi.NoteOnEvent(tick=0, channel=2, data=[66, 100]),
   midi.NoteOnEvent(tick=64, channel=2, data=[66, 0]),
   midi.NoteOnEvent(tick=0, channel=2, data=[59, 0]),
   midi.NoteOnEvent(tick=32, channel=2, data=[52, 100]),
   midi.NoteOnEvent(tick=64, channel=2, data=[52, 0]),
   midi.NoteOnEvent(tick=32, channel=2, data=[52, 100]),
   midi.NoteOnEvent(tick=64, channel=2, data=[52, 0]),
   midi.NoteOnEvent(tick=32, channel=2, data=[52, 100]),
   midi.NoteOnEvent(tick=64, channel=2, data=[52, 0]),
   midi.NoteOnEvent(tick=32, channel=2, data=[52, 100]),
   midi.NoteOnEvent(tick=64, channel=2, data=[52, 0]),
   midi.NoteOnEvent(tick=32, channel=2, data=[71, 100]),
   midi.NoteOnEvent(tick=0, channel=2, data=[64, 100]),
   midi.NoteOnEvent(tick=268, channel=2, data=[64, 0]),
   midi.NoteOnEvent(tick=0, channel=2, data=[71, 0]),
   midi.NoteOnEvent(tick=116, channel=2, data=[70, 100]),
   midi.NoteOnEvent(tick=0, channel=2, data=[63, 100]),
   midi.NoteOnEvent(tick=132, channel=2, data=[63, 0]),
   midi.NoteOnEvent(tick=0, channel=2, data=[70, 0]),
   midi.NoteOnEvent(tick=60, channel=2, data=[60, 100]),
   midi.NoteOnEvent(tick=0, channel=2, data=[67, 100]),
   midi.NoteOnEvent(tick=132, channel=2, data=[67, 0]),
   midi.NoteOnEvent(tick=0, channel=2, data=[60, 0]),
   midi.NoteOnEvent(tick=60, channel=2, data=[66, 100]),
   midi.NoteOnEvent(tick=0, channel=2, data=[59, 100]),
   midi.NoteOnEvent(tick=132, channel=2, data=[59, 0]),
   midi.NoteOnEvent(tick=0, channel=2, data=[66, 0]),
   midi.NoteOnEvent(tick=60, channel=2, data=[64, 100]),
   midi.NoteOnEvent(tick=96, channel=2, data=[64, 0]),
   midi.NoteOnEvent(tick=0, channel=2, data=[62, 100]),
   midi.NoteOnEvent(tick=96, channel=2, data=[62, 0]),
   midi.NoteOnEvent(tick=0, channel=2, data=[59, 100]),
   midi.NoteOnEvent(tick=96, channel=2, data=[59, 0]),
   midi.NoteOnEvent(tick=0, channel=2, data=[59, 100]),
   midi.NoteOnEvent(tick=96, channel=2, data=[59, 0]),
   midi.NoteOnEvent(tick=0, channel=2, data=[58, 100]),
   midi.NoteOnEvent(tick=0, channel=2, data=[65, 100]),
   midi.NoteOnEvent(tick=384, channel=2, data=[65, 0]),
   midi.NoteOnEvent(tick=0, channel=2, data=[58, 0]),
   midi.NoteOnEvent(tick=0, channel=2, data=[64, 100]),
   midi.NoteOnEvent(tick=96, channel=2, data=[64, 0]),
   midi.NoteOnEvent(tick=0, channel=2, data=[62, 100]),
   midi.NoteOnEvent(tick=96, channel=2, data=[62, 0]),
   midi.NoteOnEvent(tick=0, channel=2, data=[59, 100]),
   midi.NoteOnEvent(tick=96, channel=2, data=[59, 0]),
   midi.NoteOnEvent(tick=0, channel=2, data=[59, 100]),
   midi.NoteOnEvent(tick=96, channel=2, data=[59, 0]),
   midi.NoteOnEvent(tick=0, channel=2, data=[58, 100]),
   midi.NoteOnEvent(tick=0, channel=2, data=[65, 100]),
   midi.NoteOnEvent(tick=384, channel=2, data=[65, 0]),
   midi.NoteOnEvent(tick=0, channel=2, data=[58, 0]),
   midi.NoteOnEvent(tick=0, channel=2, data=[64, 100]),
   midi.NoteOnEvent(tick=96, channel=2, data=[64, 0]),
   midi.NoteOnEvent(tick=0, channel=2, data=[62, 100]),
   midi.NoteOnEvent(tick=96, channel=2, data=[62, 0]),
   midi.NoteOnEvent(tick=0, channel=2, data=[59, 100]),
   midi.NoteOnEvent(tick=96, channel=2, data=[59, 0]),
   midi.NoteOnEvent(tick=0, channel=2, data=[59, 100]),
   midi.NoteOnEvent(tick=96, channel=2, data=[59, 0]),
   midi.NoteOnEvent(tick=0, channel=2, data=[58, 100]),
   midi.NoteOnEvent(tick=0, channel=2, data=[65, 100]),
   midi.NoteOnEvent(tick=384, channel=2, data=[65, 0]),
   midi.NoteOnEvent(tick=0, channel=2, data=[58, 0]),
   midi.NoteOnEvent(tick=0, channel=2, data=[64, 100]),
   midi.NoteOnEvent(tick=96, channel=2, data=[64, 0]),
   midi.NoteOnEvent(tick=0, channel=2, data=[62, 100]),
   midi.NoteOnEvent(tick=96, channel=2, data=[62, 0]),
   midi.NoteOnEvent(tick=0, channel=2, data=[59, 100]),
   midi.NoteOnEvent(tick=96, channel=2, data=[59, 0]),
   midi.NoteOnEvent(tick=0, channel=2, data=[59, 100]),
   midi.NoteOnEvent(tick=96, channel=2, data=[59, 0]),
   midi.NoteOnEvent(tick=0, channel=2, data=[62, 100]),
   midi.NoteOnEvent(tick=0, channel=2, data=[55, 100]),
   midi.NoteOnEvent(tick=384, channel=2, data=[55, 0]),
   midi.NoteOnEvent(tick=0, channel=2, data=[62, 0]),
   midi.NoteOnEvent(tick=0, channel=2, data=[52, 100]),
   midi.NoteOnEvent(tick=64, channel=2, data=[52, 0]),
   midi.NoteOnEvent(tick=32, channel=2, data=[52, 100]),
   midi.NoteOnEvent(tick=64, channel=2, data=[52, 0]),
   midi.NoteOnEvent(tick=32, channel=2, data=[52, 100]),
   midi.NoteOnEvent(tick=64, channel=2, data=[52, 0]),
   midi.NoteOnEvent(tick=32, channel=2, data=[52, 100]),
   midi.NoteOnEvent(tick=64, channel=2, data=[52, 0]),
   midi.NoteOnEvent(tick=32, channel=2, data=[66, 100]),
   midi.NoteOnEvent(tick=0, channel=2, data=[59, 100]),
   midi.NoteOnEvent(tick=64, channel=2, data=[59, 0]),
   midi.NoteOnEvent(tick=0, channel=2, data=[66, 0]),
   midi.NoteOnEvent(tick=32, channel=2, data=[59, 100]),
   midi.NoteOnEvent(tick=0, channel=2, data=[66, 100]),
   midi.NoteOnEvent(tick=64, channel=2, data=[66, 0]),
   midi.NoteOnEvent(tick=0, channel=2, data=[59, 0]),
   midi.NoteOnEvent(tick=32, channel=2, data=[52, 100]),
   midi.NoteOnEvent(tick=64, channel=2, data=[52, 0]),
   midi.NoteOnEvent(tick=32, channel=2, data=[52, 100]),
   midi.NoteOnEvent(tick=64, channel=2, data=[52, 0]),
   midi.NoteOnEvent(tick=32, channel=2, data=[52, 100]),
   midi.NoteOnEvent(tick=64, channel=2, data=[52, 0]),
   midi.NoteOnEvent(tick=32, channel=2, data=[52, 100]),
   midi.NoteOnEvent(tick=64, channel=2, data=[52, 0]),
   midi.NoteOnEvent(tick=32, channel=2, data=[65, 100]),
   midi.NoteOnEvent(tick=0, channel=2, data=[58, 100]),
   midi.NoteOnEvent(tick=64, channel=2, data=[58, 0]),
   midi.NoteOnEvent(tick=0, channel=2, data=[65, 0]),
   midi.NoteOnEvent(tick=32, channel=2, data=[65, 100]),
   midi.NoteOnEvent(tick=0, channel=2, data=[58, 100]),
   midi.NoteOnEvent(tick=64, channel=2, data=[58, 0]),
   midi.NoteOnEvent(tick=0, channel=2, data=[65, 0]),
   midi.NoteOnEvent(tick=32, channel=2, data=[52, 100]),
   midi.NoteOnEvent(tick=64, channel=2, data=[52, 0]),
   midi.NoteOnEvent(tick=32, channel=2, data=[52, 100]),
   midi.NoteOnEvent(tick=64, channel=2, data=[52, 0]),
   midi.NoteOnEvent(tick=32, channel=2, data=[52, 100]),
   midi.NoteOnEvent(tick=64, channel=2, data=[52, 0]),
   midi.NoteOnEvent(tick=32, channel=2, data=[52, 100]),
   midi.NoteOnEvent(tick=64, channel=2, data=[52, 0]),
   midi.NoteOnEvent(tick=32, channel=2, data=[66, 100]),
   midi.NoteOnEvent(tick=0, channel=2, data=[59, 100]),
   midi.NoteOnEvent(tick=64, channel=2, data=[59, 0]),
   midi.NoteOnEvent(tick=0, channel=2, data=[66, 0]),
   midi.NoteOnEvent(tick=32, channel=2, data=[59, 100]),
   midi.NoteOnEvent(tick=0, channel=2, data=[66, 100]),
   midi.NoteOnEvent(tick=64, channel=2, data=[66, 0]),
   midi.NoteOnEvent(tick=0, channel=2, data=[59, 0]),
   midi.NoteOnEvent(tick=32, channel=2, data=[52, 100]),
   midi.NoteOnEvent(tick=64, channel=2, data=[52, 0]),
   midi.NoteOnEvent(tick=32, channel=2, data=[52, 100]),
   midi.NoteOnEvent(tick=64, channel=2, data=[52, 0]),
   midi.NoteOnEvent(tick=32, channel=2, data=[52, 100]),
   midi.NoteOnEvent(tick=64, channel=2, data=[52, 0]),
   midi.NoteOnEvent(tick=32, channel=2, data=[52, 100]),
   midi.NoteOnEvent(tick=64, channel=2, data=[52, 0]),
   midi.NoteOnEvent(tick=32, channel=2, data=[71, 100]),
   midi.NoteOnEvent(tick=0, channel=2, data=[64, 100]),
   midi.NoteOnEvent(tick=268, channel=2, data=[64, 0]),
   midi.NoteOnEvent(tick=0, channel=2, data=[71, 0]),
   midi.NoteOnEvent(tick=116, channel=2, data=[70, 100]),
   midi.NoteOnEvent(tick=0, channel=2, data=[63, 100]),
   midi.NoteOnEvent(tick=132, channel=2, data=[63, 0]),
   midi.NoteOnEvent(tick=0, channel=2, data=[70, 0]),
   midi.NoteOnEvent(tick=60, channel=2, data=[60, 100]),
   midi.NoteOnEvent(tick=0, channel=2, data=[67, 100]),
   midi.NoteOnEvent(tick=132, channel=2, data=[67, 0]),
   midi.NoteOnEvent(tick=0, channel=2, data=[60, 0]),
   midi.NoteOnEvent(tick=60, channel=2, data=[66, 100]),
   midi.NoteOnEvent(tick=0, channel=2, data=[59, 100]),
   midi.NoteOnEvent(tick=132, channel=2, data=[59, 0]),
   midi.NoteOnEvent(tick=0, channel=2, data=[66, 0]),
   midi.NoteOnEvent(tick=60, channel=2, data=[52, 100]),
   midi.NoteOnEvent(tick=64, channel=2, data=[52, 0]),
   midi.NoteOnEvent(tick=32, channel=2, data=[52, 100]),
   midi.NoteOnEvent(tick=64, channel=2, data=[52, 0]),
   midi.NoteOnEvent(tick=32, channel=2, data=[52, 100]),
   midi.NoteOnEvent(tick=64, channel=2, data=[52, 0]),
   midi.NoteOnEvent(tick=32, channel=2, data=[52, 100]),
   midi.NoteOnEvent(tick=64, channel=2, data=[52, 0]),
   midi.NoteOnEvent(tick=32, channel=2, data=[66, 100]),
   midi.NoteOnEvent(tick=0, channel=2, data=[59, 100]),
   midi.NoteOnEvent(tick=64, channel=2, data=[59, 0]),
   midi.NoteOnEvent(tick=0, channel=2, data=[66, 0]),
   midi.NoteOnEvent(tick=32, channel=2, data=[59, 100]),
   midi.NoteOnEvent(tick=0, channel=2, data=[66, 100]),
   midi.NoteOnEvent(tick=64, channel=2, data=[66, 0]),
   midi.NoteOnEvent(tick=0, channel=2, data=[59, 0]),
   midi.NoteOnEvent(tick=32, channel=2, data=[52, 100]),
   midi.NoteOnEvent(tick=64, channel=2, data=[52, 0]),
   midi.NoteOnEvent(tick=32, channel=2, data=[52, 100]),
   midi.NoteOnEvent(tick=64, channel=2, data=[52, 0]),
   midi.NoteOnEvent(tick=32, channel=2, data=[52, 100]),
   midi.NoteOnEvent(tick=64, channel=2, data=[52, 0]),
   midi.NoteOnEvent(tick=32, channel=2, data=[52, 100]),
   midi.NoteOnEvent(tick=64, channel=2, data=[52, 0]),
   midi.NoteOnEvent(tick=32, channel=2, data=[65, 100]),
   midi.NoteOnEvent(tick=0, channel=2, data=[58, 100]),
   midi.NoteOnEvent(tick=64, channel=2, data=[58, 0]),
   midi.NoteOnEvent(tick=0, channel=2, data=[65, 0]),
   midi.NoteOnEvent(tick=32, channel=2, data=[65, 100]),
   midi.NoteOnEvent(tick=0, channel=2, data=[58, 100]),
   midi.NoteOnEvent(tick=64, channel=2, data=[58, 0]),
   midi.NoteOnEvent(tick=0, channel=2, data=[65, 0]),
   midi.NoteOnEvent(tick=32, channel=2, data=[52, 100]),
   midi.NoteOnEvent(tick=64, channel=2, data=[52, 0]),
   midi.NoteOnEvent(tick=32, channel=2, data=[52, 100]),
   midi.NoteOnEvent(tick=64, channel=2, data=[52, 0]),
   midi.NoteOnEvent(tick=32, channel=2, data=[52, 100]),
   midi.NoteOnEvent(tick=64, channel=2, data=[52, 0]),
   midi.NoteOnEvent(tick=32, channel=2, data=[52, 100]),
   midi.NoteOnEvent(tick=64, channel=2, data=[52, 0]),
   midi.NoteOnEvent(tick=32, channel=2, data=[66, 100]),
   midi.NoteOnEvent(tick=0, channel=2, data=[59, 100]),
   midi.NoteOnEvent(tick=64, channel=2, data=[59, 0]),
   midi.NoteOnEvent(tick=0, channel=2, data=[66, 0]),
   midi.NoteOnEvent(tick=32, channel=2, data=[59, 100]),
   midi.NoteOnEvent(tick=0, channel=2, data=[66, 100]),
   midi.NoteOnEvent(tick=64, channel=2, data=[66, 0]),
   midi.NoteOnEvent(tick=0, channel=2, data=[59, 0]),
   midi.NoteOnEvent(tick=32, channel=2, data=[52, 100]),
   midi.NoteOnEvent(tick=64, channel=2, data=[52, 0]),
   midi.NoteOnEvent(tick=32, channel=2, data=[52, 100]),
   midi.NoteOnEvent(tick=64, channel=2, data=[52, 0]),
   midi.NoteOnEvent(tick=32, channel=2, data=[52, 100]),
   midi.NoteOnEvent(tick=64, channel=2, data=[52, 0]),
   midi.NoteOnEvent(tick=32, channel=2, data=[52, 100]),
   midi.NoteOnEvent(tick=64, channel=2, data=[52, 0]),
   midi.NoteOnEvent(tick=32, channel=2, data=[71, 100]),
   midi.NoteOnEvent(tick=0, channel=2, data=[64, 100]),
   midi.NoteOnEvent(tick=268, channel=2, data=[64, 0]),
   midi.NoteOnEvent(tick=0, channel=2, data=[71, 0]),
   midi.NoteOnEvent(tick=116, channel=2, data=[70, 100]),
   midi.NoteOnEvent(tick=0, channel=2, data=[63, 100]),
   midi.NoteOnEvent(tick=132, channel=2, data=[63, 0]),
   midi.NoteOnEvent(tick=0, channel=2, data=[70, 0]),
   midi.NoteOnEvent(tick=60, channel=2, data=[60, 100]),
   midi.NoteOnEvent(tick=0, channel=2, data=[67, 100]),
   midi.NoteOnEvent(tick=132, channel=2, data=[67, 0]),
   midi.NoteOnEvent(tick=0, channel=2, data=[60, 0]),
   midi.NoteOnEvent(tick=60, channel=2, data=[66, 100]),
   midi.NoteOnEvent(tick=0, channel=2, data=[59, 100]),
   midi.NoteOnEvent(tick=132, channel=2, data=[59, 0]),
   midi.NoteOnEvent(tick=0, channel=2, data=[66, 0]),
   midi.NoteOnEvent(tick=60, channel=2, data=[64, 100]),
   midi.NoteOnEvent(tick=96, channel=2, data=[64, 0]),
   midi.NoteOnEvent(tick=0, channel=2, data=[62, 100]),
   midi.NoteOnEvent(tick=96, channel=2, data=[62, 0]),
   midi.NoteOnEvent(tick=0, channel=2, data=[59, 100]),
   midi.NoteOnEvent(tick=96, channel=2, data=[59, 0]),
   midi.NoteOnEvent(tick=0, channel=2, data=[59, 100]),
   midi.NoteOnEvent(tick=96, channel=2, data=[59, 0]),
   midi.NoteOnEvent(tick=0, channel=2, data=[58, 100]),
   midi.NoteOnEvent(tick=0, channel=2, data=[65, 100]),
   midi.NoteOnEvent(tick=384, channel=2, data=[65, 0]),
   midi.NoteOnEvent(tick=0, channel=2, data=[58, 0]),
   midi.NoteOnEvent(tick=0, channel=2, data=[64, 100]),
   midi.NoteOnEvent(tick=96, channel=2, data=[64, 0]),
   midi.NoteOnEvent(tick=0, channel=2, data=[62, 100]),
   midi.NoteOnEvent(tick=96, channel=2, data=[62, 0]),
   midi.NoteOnEvent(tick=0, channel=2, data=[59, 100]),
   midi.NoteOnEvent(tick=96, channel=2, data=[59, 0]),
   midi.NoteOnEvent(tick=0, channel=2, data=[59, 100]),
   midi.NoteOnEvent(tick=96, channel=2, data=[59, 0]),
   midi.NoteOnEvent(tick=0, channel=2, data=[58, 100]),
   midi.NoteOnEvent(tick=0, channel=2, data=[65, 100]),
   midi.NoteOnEvent(tick=384, channel=2, data=[65, 0]),
   midi.NoteOnEvent(tick=0, channel=2, data=[58, 0]),
   midi.NoteOnEvent(tick=0, channel=2, data=[64, 100]),
   midi.NoteOnEvent(tick=96, channel=2, data=[64, 0]),
   midi.NoteOnEvent(tick=0, channel=2, data=[62, 100]),
   midi.NoteOnEvent(tick=96, channel=2, data=[62, 0]),
   midi.NoteOnEvent(tick=0, channel=2, data=[59, 100]),
   midi.NoteOnEvent(tick=96, channel=2, data=[59, 0]),
   midi.NoteOnEvent(tick=0, channel=2, data=[59, 100]),
   midi.NoteOnEvent(tick=96, channel=2, data=[59, 0]),
   midi.NoteOnEvent(tick=0, channel=2, data=[58, 100]),
   midi.NoteOnEvent(tick=0, channel=2, data=[65, 100]),
   midi.NoteOnEvent(tick=384, channel=2, data=[65, 0]),
   midi.NoteOnEvent(tick=0, channel=2, data=[58, 0]),
   midi.NoteOnEvent(tick=0, channel=2, data=[64, 100]),
   midi.NoteOnEvent(tick=96, channel=2, data=[64, 0]),
   midi.NoteOnEvent(tick=0, channel=2, data=[62, 100]),
   midi.NoteOnEvent(tick=96, channel=2, data=[62, 0]),
   midi.NoteOnEvent(tick=0, channel=2, data=[59, 100]),
   midi.NoteOnEvent(tick=96, channel=2, data=[59, 0]),
   midi.NoteOnEvent(tick=0, channel=2, data=[59, 100]),
   midi.NoteOnEvent(tick=96, channel=2, data=[59, 0]),
   midi.NoteOnEvent(tick=0, channel=2, data=[62, 100]),
   midi.NoteOnEvent(tick=0, channel=2, data=[55, 100]),
   midi.NoteOnEvent(tick=384, channel=2, data=[55, 0]),
   midi.NoteOnEvent(tick=0, channel=2, data=[62, 0]),
   midi.NoteOnEvent(tick=0, channel=2, data=[52, 100]),
   midi.NoteOnEvent(tick=64, channel=2, data=[52, 0]),
   midi.NoteOnEvent(tick=32, channel=2, data=[52, 100]),
   midi.NoteOnEvent(tick=64, channel=2, data=[52, 0]),
   midi.NoteOnEvent(tick=32, channel=2, data=[52, 100]),
   midi.NoteOnEvent(tick=64, channel=2, data=[52, 0]),
   midi.NoteOnEvent(tick=32, channel=2, data=[52, 100]),
   midi.NoteOnEvent(tick=64, channel=2, data=[52, 0]),
   midi.NoteOnEvent(tick=32, channel=2, data=[66, 100]),
   midi.NoteOnEvent(tick=0, channel=2, data=[59, 100]),
   midi.NoteOnEvent(tick=64, channel=2, data=[59, 0]),
   midi.NoteOnEvent(tick=0, channel=2, data=[66, 0]),
   midi.NoteOnEvent(tick=32, channel=2, data=[59, 100]),
   midi.NoteOnEvent(tick=0, channel=2, data=[66, 100]),
   midi.NoteOnEvent(tick=64, channel=2, data=[66, 0]),
   midi.NoteOnEvent(tick=0, channel=2, data=[59, 0]),
   midi.NoteOnEvent(tick=32, channel=2, data=[52, 100]),
   midi.NoteOnEvent(tick=64, channel=2, data=[52, 0]),
   midi.NoteOnEvent(tick=32, channel=2, data=[52, 100]),
   midi.NoteOnEvent(tick=64, channel=2, data=[52, 0]),
   midi.NoteOnEvent(tick=32, channel=2, data=[52, 100]),
   midi.NoteOnEvent(tick=64, channel=2, data=[52, 0]),
   midi.NoteOnEvent(tick=32, channel=2, data=[52, 100]),
   midi.NoteOnEvent(tick=64, channel=2, data=[52, 0]),
   midi.NoteOnEvent(tick=32, channel=2, data=[65, 100]),
   midi.NoteOnEvent(tick=0, channel=2, data=[58, 100]),
   midi.NoteOnEvent(tick=64, channel=2, data=[58, 0]),
   midi.NoteOnEvent(tick=0, channel=2, data=[65, 0]),
   midi.NoteOnEvent(tick=32, channel=2, data=[65, 100]),
   midi.NoteOnEvent(tick=0, channel=2, data=[58, 100]),
   midi.NoteOnEvent(tick=64, channel=2, data=[58, 0]),
   midi.NoteOnEvent(tick=0, channel=2, data=[65, 0]),
   midi.NoteOnEvent(tick=32, channel=2, data=[52, 100]),
   midi.NoteOnEvent(tick=64, channel=2, data=[52, 0]),
   midi.NoteOnEvent(tick=32, channel=2, data=[52, 100]),
   midi.NoteOnEvent(tick=64, channel=2, data=[52, 0]),
   midi.NoteOnEvent(tick=32, channel=2, data=[52, 100]),
   midi.NoteOnEvent(tick=64, channel=2, data=[52, 0]),
   midi.NoteOnEvent(tick=32, channel=2, data=[52, 100]),
   midi.NoteOnEvent(tick=64, channel=2, data=[52, 0]),
   midi.NoteOnEvent(tick=32, channel=2, data=[66, 100]),
   midi.NoteOnEvent(tick=0, channel=2, data=[59, 100]),
   midi.NoteOnEvent(tick=64, channel=2, data=[59, 0]),
   midi.NoteOnEvent(tick=0, channel=2, data=[66, 0]),
   midi.NoteOnEvent(tick=32, channel=2, data=[59, 100]),
   midi.NoteOnEvent(tick=0, channel=2, data=[66, 100]),
   midi.NoteOnEvent(tick=64, channel=2, data=[66, 0]),
   midi.NoteOnEvent(tick=0, channel=2, data=[59, 0]),
   midi.NoteOnEvent(tick=32, channel=2, data=[52, 100]),
   midi.NoteOnEvent(tick=64, channel=2, data=[52, 0]),
   midi.NoteOnEvent(tick=32, channel=2, data=[52, 100]),
   midi.NoteOnEvent(tick=64, channel=2, data=[52, 0]),
   midi.NoteOnEvent(tick=32, channel=2, data=[52, 100]),
   midi.NoteOnEvent(tick=64, channel=2, data=[52, 0]),
   midi.NoteOnEvent(tick=32, channel=2, data=[52, 100]),
   midi.NoteOnEvent(tick=64, channel=2, data=[52, 0]),
   midi.NoteOnEvent(tick=32, channel=2, data=[71, 100]),
   midi.NoteOnEvent(tick=0, channel=2, data=[64, 100]),
   midi.NoteOnEvent(tick=268, channel=2, data=[64, 0]),
   midi.NoteOnEvent(tick=0, channel=2, data=[71, 0]),
   midi.NoteOnEvent(tick=116, channel=2, data=[70, 100]),
   midi.NoteOnEvent(tick=0, channel=2, data=[63, 100]),
   midi.NoteOnEvent(tick=132, channel=2, data=[63, 0]),
   midi.NoteOnEvent(tick=0, channel=2, data=[70, 0]),
   midi.NoteOnEvent(tick=60, channel=2, data=[60, 100]),
   midi.NoteOnEvent(tick=0, channel=2, data=[67, 100]),
   midi.NoteOnEvent(tick=132, channel=2, data=[67, 0]),
   midi.NoteOnEvent(tick=0, channel=2, data=[60, 0]),
   midi.NoteOnEvent(tick=60, channel=2, data=[66, 100]),
   midi.NoteOnEvent(tick=0, channel=2, data=[59, 100]),
   midi.NoteOnEvent(tick=132, channel=2, data=[59, 0]),
   midi.NoteOnEvent(tick=0, channel=2, data=[66, 0]),
   midi.NoteOnEvent(tick=60, channel=2, data=[52, 100]),
   midi.NoteOnEvent(tick=64, channel=2, data=[52, 0]),
   midi.NoteOnEvent(tick=32, channel=2, data=[52, 100]),
   midi.NoteOnEvent(tick=64, channel=2, data=[52, 0]),
   midi.NoteOnEvent(tick=32, channel=2, data=[52, 100]),
   midi.NoteOnEvent(tick=64, channel=2, data=[52, 0]),
   midi.NoteOnEvent(tick=32, channel=2, data=[52, 100]),
   midi.NoteOnEvent(tick=64, channel=2, data=[52, 0]),
   midi.NoteOnEvent(tick=32, channel=2, data=[66, 100]),
   midi.NoteOnEvent(tick=0, channel=2, data=[59, 100]),
   midi.NoteOnEvent(tick=64, channel=2, data=[59, 0]),
   midi.NoteOnEvent(tick=0, channel=2, data=[66, 0]),
   midi.NoteOnEvent(tick=32, channel=2, data=[59, 100]),
   midi.NoteOnEvent(tick=0, channel=2, data=[66, 100]),
   midi.NoteOnEvent(tick=64, channel=2, data=[66, 0]),
   midi.NoteOnEvent(tick=0, channel=2, data=[59, 0]),
   midi.NoteOnEvent(tick=32, channel=2, data=[52, 100]),
   midi.NoteOnEvent(tick=64, channel=2, data=[52, 0]),
   midi.NoteOnEvent(tick=32, channel=2, data=[52, 100]),
   midi.NoteOnEvent(tick=64, channel=2, data=[52, 0]),
   midi.NoteOnEvent(tick=32, channel=2, data=[52, 100]),
   midi.NoteOnEvent(tick=64, channel=2, data=[52, 0]),
   midi.NoteOnEvent(tick=32, channel=2, data=[52, 100]),
   midi.NoteOnEvent(tick=64, channel=2, data=[52, 0]),
   midi.NoteOnEvent(tick=32, channel=2, data=[65, 100]),
   midi.NoteOnEvent(tick=0, channel=2, data=[58, 100]),
   midi.NoteOnEvent(tick=64, channel=2, data=[58, 0]),
   midi.NoteOnEvent(tick=0, channel=2, data=[65, 0]),
   midi.NoteOnEvent(tick=32, channel=2, data=[65, 100]),
   midi.NoteOnEvent(tick=0, channel=2, data=[58, 100]),
   midi.NoteOnEvent(tick=64, channel=2, data=[58, 0]),
   midi.NoteOnEvent(tick=0, channel=2, data=[65, 0]),
   midi.NoteOnEvent(tick=32, channel=2, data=[52, 100]),
   midi.NoteOnEvent(tick=64, channel=2, data=[52, 0]),
   midi.NoteOnEvent(tick=32, channel=2, data=[52, 100]),
   midi.NoteOnEvent(tick=64, channel=2, data=[52, 0]),
   midi.NoteOnEvent(tick=32, channel=2, data=[52, 100]),
   midi.NoteOnEvent(tick=64, channel=2, data=[52, 0]),
   midi.NoteOnEvent(tick=32, channel=2, data=[52, 100]),
   midi.NoteOnEvent(tick=64, channel=2, data=[52, 0]),
   midi.NoteOnEvent(tick=32, channel=2, data=[66, 100]),
   midi.NoteOnEvent(tick=0, channel=2, data=[59, 100]),
   midi.NoteOnEvent(tick=64, channel=2, data=[59, 0]),
   midi.NoteOnEvent(tick=0, channel=2, data=[66, 0]),
   midi.NoteOnEvent(tick=32, channel=2, data=[59, 100]),
   midi.NoteOnEvent(tick=0, channel=2, data=[66, 100]),
   midi.NoteOnEvent(tick=64, channel=2, data=[66, 0]),
   midi.NoteOnEvent(tick=0, channel=2, data=[59, 0]),
   midi.NoteOnEvent(tick=32, channel=2, data=[52, 100]),
   midi.NoteOnEvent(tick=64, channel=2, data=[52, 0]),
   midi.NoteOnEvent(tick=32, channel=2, data=[52, 100]),
   midi.NoteOnEvent(tick=64, channel=2, data=[52, 0]),
   midi.NoteOnEvent(tick=32, channel=2, data=[52, 100]),
   midi.NoteOnEvent(tick=64, channel=2, data=[52, 0]),
   midi.NoteOnEvent(tick=32, channel=2, data=[52, 100]),
   midi.NoteOnEvent(tick=64, channel=2, data=[52, 0]),
   midi.NoteOnEvent(tick=32, channel=2, data=[71, 100]),
   midi.NoteOnEvent(tick=0, channel=2, data=[64, 100]),
   midi.NoteOnEvent(tick=268, channel=2, data=[64, 0]),
   midi.NoteOnEvent(tick=0, channel=2, data=[71, 0]),
   midi.NoteOnEvent(tick=116, channel=2, data=[70, 100]),
   midi.NoteOnEvent(tick=0, channel=2, data=[63, 100]),
   midi.NoteOnEvent(tick=132, channel=2, data=[63, 0]),
   midi.NoteOnEvent(tick=0, channel=2, data=[70, 0]),
   midi.NoteOnEvent(tick=60, channel=2, data=[60, 100]),
   midi.NoteOnEvent(tick=0, channel=2, data=[67, 100]),
   midi.NoteOnEvent(tick=132, channel=2, data=[67, 0]),
   midi.NoteOnEvent(tick=0, channel=2, data=[60, 0]),
   midi.NoteOnEvent(tick=60, channel=2, data=[66, 100]),
   midi.NoteOnEvent(tick=0, channel=2, data=[59, 100]),
   midi.NoteOnEvent(tick=132, channel=2, data=[59, 0]),
   midi.NoteOnEvent(tick=0, channel=2, data=[66, 0]),
   midi.NoteOnEvent(tick=60, channel=2, data=[64, 100]),
   midi.NoteOnEvent(tick=96, channel=2, data=[64, 0]),
   midi.NoteOnEvent(tick=0, channel=2, data=[62, 100]),
   midi.NoteOnEvent(tick=96, channel=2, data=[62, 0]),
   midi.NoteOnEvent(tick=0, channel=2, data=[59, 100]),
   midi.NoteOnEvent(tick=96, channel=2, data=[59, 0]),
   midi.NoteOnEvent(tick=0, channel=2, data=[59, 100]),
   midi.NoteOnEvent(tick=96, channel=2, data=[59, 0]),
   midi.NoteOnEvent(tick=0, channel=2, data=[58, 100]),
   midi.NoteOnEvent(tick=0, channel=2, data=[65, 100]),
   midi.NoteOnEvent(tick=384, channel=2, data=[65, 0]),
   midi.NoteOnEvent(tick=0, channel=2, data=[58, 0]),
   midi.NoteOnEvent(tick=0, channel=2, data=[64, 100]),
   midi.NoteOnEvent(tick=96, channel=2, data=[64, 0]),
   midi.NoteOnEvent(tick=0, channel=2, data=[62, 100]),
   midi.NoteOnEvent(tick=96, channel=2, data=[62, 0]),
   midi.NoteOnEvent(tick=0, channel=2, data=[59, 100]),
   midi.NoteOnEvent(tick=96, channel=2, data=[59, 0]),
   midi.NoteOnEvent(tick=0, channel=2, data=[59, 100]),
   midi.NoteOnEvent(tick=96, channel=2, data=[59, 0]),
   midi.NoteOnEvent(tick=0, channel=2, data=[58, 100]),
   midi.NoteOnEvent(tick=0, channel=2, data=[65, 100]),
   midi.NoteOnEvent(tick=384, channel=2, data=[65, 0]),
   midi.NoteOnEvent(tick=0, channel=2, data=[58, 0]),
   midi.NoteOnEvent(tick=0, channel=2, data=[64, 100]),
   midi.NoteOnEvent(tick=96, channel=2, data=[64, 0]),
   midi.NoteOnEvent(tick=0, channel=2, data=[62, 100]),
   midi.NoteOnEvent(tick=96, channel=2, data=[62, 0]),
   midi.NoteOnEvent(tick=0, channel=2, data=[59, 100]),
   midi.NoteOnEvent(tick=96, channel=2, data=[59, 0]),
   midi.NoteOnEvent(tick=0, channel=2, data=[59, 100]),
   midi.NoteOnEvent(tick=96, channel=2, data=[59, 0]),
   midi.NoteOnEvent(tick=0, channel=2, data=[58, 100]),
   midi.NoteOnEvent(tick=0, channel=2, data=[65, 100]),
   midi.NoteOnEvent(tick=384, channel=2, data=[65, 0]),
   midi.NoteOnEvent(tick=0, channel=2, data=[58, 0]),
   midi.NoteOnEvent(tick=0, channel=2, data=[64, 100]),
   midi.NoteOnEvent(tick=96, channel=2, data=[64, 0]),
   midi.NoteOnEvent(tick=0, channel=2, data=[62, 100]),
   midi.NoteOnEvent(tick=96, channel=2, data=[62, 0]),
   midi.NoteOnEvent(tick=0, channel=2, data=[59, 100]),
   midi.NoteOnEvent(tick=96, channel=2, data=[59, 0]),
   midi.NoteOnEvent(tick=0, channel=2, data=[59, 100]),
   midi.NoteOnEvent(tick=96, channel=2, data=[59, 0]),
   midi.NoteOnEvent(tick=0, channel=2, data=[58, 100]),
   midi.NoteOnEvent(tick=0, channel=2, data=[65, 100]),
   midi.NoteOnEvent(tick=384, channel=2, data=[65, 0]),
   midi.NoteOnEvent(tick=0, channel=2, data=[58, 0]),
   midi.NoteOnEvent(tick=0, channel=2, data=[64, 100]),
   midi.NoteOnEvent(tick=96, channel=2, data=[64, 0]),
   midi.NoteOnEvent(tick=0, channel=2, data=[62, 100]),
   midi.NoteOnEvent(tick=96, channel=2, data=[62, 0]),
   midi.NoteOnEvent(tick=0, channel=2, data=[59, 100]),
   midi.NoteOnEvent(tick=96, channel=2, data=[59, 0]),
   midi.NoteOnEvent(tick=0, channel=2, data=[59, 100]),
   midi.NoteOnEvent(tick=96, channel=2, data=[59, 0]),
   midi.NoteOnEvent(tick=0, channel=2, data=[58, 100]),
   midi.NoteOnEvent(tick=0, channel=2, data=[65, 100]),
   midi.NoteOnEvent(tick=384, channel=2, data=[65, 0]),
   midi.NoteOnEvent(tick=0, channel=2, data=[58, 0]),
   midi.NoteOnEvent(tick=0, channel=2, data=[64, 100]),
   midi.NoteOnEvent(tick=96, channel=2, data=[64, 0]),
   midi.NoteOnEvent(tick=0, channel=2, data=[62, 100]),
   midi.NoteOnEvent(tick=96, channel=2, data=[62, 0]),
   midi.NoteOnEvent(tick=0, channel=2, data=[59, 100]),
   midi.NoteOnEvent(tick=96, channel=2, data=[59, 0]),
   midi.NoteOnEvent(tick=0, channel=2, data=[59, 100]),
   midi.NoteOnEvent(tick=96, channel=2, data=[59, 0]),
   midi.NoteOnEvent(tick=0, channel=2, data=[58, 100]),
   midi.NoteOnEvent(tick=0, channel=2, data=[65, 100]),
   midi.NoteOnEvent(tick=384, channel=2, data=[65, 0]),
   midi.NoteOnEvent(tick=0, channel=2, data=[58, 0]),
   midi.NoteOnEvent(tick=0, channel=2, data=[64, 100]),
   midi.NoteOnEvent(tick=96, channel=2, data=[64, 0]),
   midi.NoteOnEvent(tick=0, channel=2, data=[62, 100]),
   midi.NoteOnEvent(tick=96, channel=2, data=[62, 0]),
   midi.NoteOnEvent(tick=0, channel=2, data=[59, 100]),
   midi.NoteOnEvent(tick=96, channel=2, data=[59, 0]),
   midi.NoteOnEvent(tick=0, channel=2, data=[59, 100]),
   midi.NoteOnEvent(tick=96, channel=2, data=[59, 0]),
   midi.NoteOnEvent(tick=0, channel=2, data=[58, 100]),
   midi.NoteOnEvent(tick=0, channel=2, data=[65, 100]),
   midi.NoteOnEvent(tick=384, channel=2, data=[65, 0]),
   midi.NoteOnEvent(tick=0, channel=2, data=[58, 0]),
   midi.NoteOnEvent(tick=0, channel=2, data=[64, 100]),
   midi.NoteOnEvent(tick=96, channel=2, data=[64, 0]),
   midi.NoteOnEvent(tick=0, channel=2, data=[62, 100]),
   midi.NoteOnEvent(tick=96, channel=2, data=[62, 0]),
   midi.NoteOnEvent(tick=0, channel=2, data=[59, 100]),
   midi.NoteOnEvent(tick=96, channel=2, data=[59, 0]),
   midi.NoteOnEvent(tick=0, channel=2, data=[59, 100]),
   midi.NoteOnEvent(tick=96, channel=2, data=[59, 0]),
   midi.NoteOnEvent(tick=0, channel=2, data=[58, 100]),
   midi.NoteOnEvent(tick=0, channel=2, data=[65, 100]),
   midi.NoteOnEvent(tick=384, channel=2, data=[65, 0]),
   midi.NoteOnEvent(tick=0, channel=2, data=[58, 0]),
   midi.NoteOnEvent(tick=0, channel=2, data=[59, 100]),
   midi.NoteOnEvent(tick=0, channel=2, data=[52, 100]),
   midi.NoteOnEvent(tick=268, channel=2, data=[52, 0]),
   midi.NoteOnEvent(tick=0, channel=2, data=[59, 0]),
   midi.EndOfTrackEvent(tick=0, data=[])]),
 midi.Track(\
  [midi.PortEvent(tick=0, data=[0]),
   midi.TrackNameEvent(tick=0, text='Bass', data=[66, 97, 115, 115]),
   midi.ProgramChangeEvent(tick=0, channel=3, data=[5]),
   midi.ControlChangeEvent(tick=0, channel=3, data=[7, 127]),
   midi.ControlChangeEvent(tick=0, channel=3, data=[0, 0]),
   midi.NoteOnEvent(tick=0, channel=3, data=[40, 127]),
   midi.NoteOnEvent(tick=64, channel=3, data=[40, 0]),
   midi.NoteOnEvent(tick=32, channel=3, data=[38, 127]),
   midi.NoteOnEvent(tick=64, channel=3, data=[38, 0]),
   midi.NoteOnEvent(tick=32, channel=3, data=[35, 127]),
   midi.NoteOnEvent(tick=64, channel=3, data=[35, 0]),
   midi.NoteOnEvent(tick=32, channel=3, data=[35, 127]),
   midi.NoteOnEvent(tick=64, channel=3, data=[35, 0]),
   midi.NoteOnEvent(tick=32, channel=3, data=[34, 127]),
   midi.NoteOnEvent(tick=256, channel=3, data=[34, 0]),
   midi.NoteOnEvent(tick=128, channel=3, data=[40, 127]),
   midi.NoteOnEvent(tick=64, channel=3, data=[40, 0]),
   midi.NoteOnEvent(tick=32, channel=3, data=[38, 127]),
   midi.NoteOnEvent(tick=64, channel=3, data=[38, 0]),
   midi.NoteOnEvent(tick=32, channel=3, data=[35, 127]),
   midi.NoteOnEvent(tick=64, channel=3, data=[35, 0]),
   midi.NoteOnEvent(tick=32, channel=3, data=[35, 127]),
   midi.NoteOnEvent(tick=64, channel=3, data=[35, 0]),
   midi.NoteOnEvent(tick=32, channel=3, data=[34, 127]),
   midi.NoteOnEvent(tick=256, channel=3, data=[34, 0]),
   midi.NoteOnEvent(tick=128, channel=3, data=[40, 127]),
   midi.NoteOnEvent(tick=64, channel=3, data=[40, 0]),
   midi.NoteOnEvent(tick=32, channel=3, data=[38, 127]),
   midi.NoteOnEvent(tick=64, channel=3, data=[38, 0]),
   midi.NoteOnEvent(tick=32, channel=3, data=[35, 127]),
   midi.NoteOnEvent(tick=64, channel=3, data=[35, 0]),
   midi.NoteOnEvent(tick=32, channel=3, data=[35, 127]),
   midi.NoteOnEvent(tick=64, channel=3, data=[35, 0]),
   midi.NoteOnEvent(tick=32, channel=3, data=[34, 127]),
   midi.NoteOnEvent(tick=256, channel=3, data=[34, 0]),
   midi.NoteOnEvent(tick=128, channel=3, data=[40, 127]),
   midi.NoteOnEvent(tick=64, channel=3, data=[40, 0]),
   midi.NoteOnEvent(tick=32, channel=3, data=[38, 127]),
   midi.NoteOnEvent(tick=64, channel=3, data=[38, 0]),
   midi.NoteOnEvent(tick=32, channel=3, data=[35, 127]),
   midi.NoteOnEvent(tick=64, channel=3, data=[35, 0]),
   midi.NoteOnEvent(tick=32, channel=3, data=[35, 127]),
   midi.NoteOnEvent(tick=64, channel=3, data=[35, 0]),
   midi.NoteOnEvent(tick=32, channel=3, data=[35, 127]),
   midi.NoteOnEvent(tick=256, channel=3, data=[35, 0]),
   midi.NoteOnEvent(tick=128, channel=3, data=[40, 127]),
   midi.NoteOnEvent(tick=64, channel=3, data=[40, 0]),
   midi.NoteOnEvent(tick=32, channel=3, data=[38, 127]),
   midi.NoteOnEvent(tick=64, channel=3, data=[38, 0]),
   midi.NoteOnEvent(tick=32, channel=3, data=[35, 127]),
   midi.NoteOnEvent(tick=64, channel=3, data=[35, 0]),
   midi.NoteOnEvent(tick=32, channel=3, data=[35, 127]),
   midi.NoteOnEvent(tick=64, channel=3, data=[35, 0]),
   midi.NoteOnEvent(tick=32, channel=3, data=[34, 127]),
   midi.NoteOnEvent(tick=256, channel=3, data=[34, 0]),
   midi.NoteOnEvent(tick=128, channel=3, data=[40, 127]),
   midi.NoteOnEvent(tick=64, channel=3, data=[40, 0]),
   midi.NoteOnEvent(tick=32, channel=3, data=[38, 127]),
   midi.NoteOnEvent(tick=64, channel=3, data=[38, 0]),
   midi.NoteOnEvent(tick=32, channel=3, data=[35, 127]),
   midi.NoteOnEvent(tick=64, channel=3, data=[35, 0]),
   midi.NoteOnEvent(tick=32, channel=3, data=[35, 127]),
   midi.NoteOnEvent(tick=64, channel=3, data=[35, 0]),
   midi.NoteOnEvent(tick=32, channel=3, data=[34, 127]),
   midi.NoteOnEvent(tick=256, channel=3, data=[34, 0]),
   midi.NoteOnEvent(tick=128, channel=3, data=[40, 127]),
   midi.NoteOnEvent(tick=64, channel=3, data=[40, 0]),
   midi.NoteOnEvent(tick=32, channel=3, data=[38, 127]),
   midi.NoteOnEvent(tick=64, channel=3, data=[38, 0]),
   midi.NoteOnEvent(tick=32, channel=3, data=[35, 127]),
   midi.NoteOnEvent(tick=64, channel=3, data=[35, 0]),
   midi.NoteOnEvent(tick=32, channel=3, data=[35, 127]),
   midi.NoteOnEvent(tick=64, channel=3, data=[35, 0]),
   midi.NoteOnEvent(tick=32, channel=3, data=[34, 127]),
   midi.NoteOnEvent(tick=256, channel=3, data=[34, 0]),
   midi.NoteOnEvent(tick=128, channel=3, data=[40, 127]),
   midi.NoteOnEvent(tick=64, channel=3, data=[40, 0]),
   midi.NoteOnEvent(tick=32, channel=3, data=[38, 127]),
   midi.NoteOnEvent(tick=64, channel=3, data=[38, 0]),
   midi.NoteOnEvent(tick=32, channel=3, data=[35, 127]),
   midi.NoteOnEvent(tick=64, channel=3, data=[35, 0]),
   midi.NoteOnEvent(tick=32, channel=3, data=[35, 127]),
   midi.NoteOnEvent(tick=64, channel=3, data=[35, 0]),
   midi.NoteOnEvent(tick=32, channel=3, data=[35, 127]),
   midi.NoteOnEvent(tick=256, channel=3, data=[35, 0]),
   midi.NoteOnEvent(tick=128, channel=3, data=[28, 127]),
   midi.NoteOnEvent(tick=128, channel=3, data=[28, 0]),
   midi.NoteOnEvent(tick=64, channel=3, data=[40, 127]),
   midi.NoteOnEvent(tick=128, channel=3, data=[40, 0]),
   midi.NoteOnEvent(tick=64, channel=3, data=[43, 127]),
   midi.NoteOnEvent(tick=128, channel=3, data=[43, 0]),
   midi.NoteOnEvent(tick=64, channel=3, data=[28, 127]),
   midi.NoteOnEvent(tick=128, channel=3, data=[28, 0]),
   midi.NoteOnEvent(tick=64, channel=3, data=[40, 127]),
   midi.NoteOnEvent(tick=128, channel=3, data=[40, 0]),
   midi.NoteOnEvent(tick=64, channel=3, data=[46, 127]),
   midi.NoteOnEvent(tick=128, channel=3, data=[46, 0]),
   midi.NoteOnEvent(tick=64, channel=3, data=[43, 127]),
   midi.NoteOnEvent(tick=128, channel=3, data=[43, 0]),
   midi.NoteOnEvent(tick=64, channel=3, data=[46, 127]),
   midi.NoteOnEvent(tick=128, channel=3, data=[46, 0]),
   midi.NoteOnEvent(tick=64, channel=3, data=[28, 127]),
   midi.NoteOnEvent(tick=128, channel=3, data=[28, 0]),
   midi.NoteOnEvent(tick=64, channel=3, data=[43, 127]),
   midi.NoteOnEvent(tick=128, channel=3, data=[43, 0]),
   midi.NoteOnEvent(tick=64, channel=3, data=[47, 127]),
   midi.NoteOnEvent(tick=128, channel=3, data=[47, 0]),
   midi.NoteOnEvent(tick=64, channel=3, data=[28, 127]),
   midi.NoteOnEvent(tick=128, channel=3, data=[28, 0]),
   midi.NoteOnEvent(tick=64, channel=3, data=[45, 127]),
   midi.NoteOnEvent(tick=128, channel=3, data=[45, 0]),
   midi.NoteOnEvent(tick=64, channel=3, data=[48, 127]),
   midi.NoteOnEvent(tick=128, channel=3, data=[48, 0]),
   midi.NoteOnEvent(tick=64, channel=3, data=[54, 127]),
   midi.NoteOnEvent(tick=128, channel=3, data=[54, 0]),
   midi.NoteOnEvent(tick=64, channel=3, data=[48, 127]),
   midi.NoteOnEvent(tick=128, channel=3, data=[48, 0]),
   midi.NoteOnEvent(tick=64, channel=3, data=[28, 127]),
   midi.NoteOnEvent(tick=128, channel=3, data=[28, 0]),
   midi.NoteOnEvent(tick=64, channel=3, data=[40, 127]),
   midi.NoteOnEvent(tick=128, channel=3, data=[40, 0]),
   midi.NoteOnEvent(tick=64, channel=3, data=[43, 127]),
   midi.NoteOnEvent(tick=128, channel=3, data=[43, 0]),
   midi.NoteOnEvent(tick=64, channel=3, data=[28, 127]),
   midi.NoteOnEvent(tick=128, channel=3, data=[28, 0]),
   midi.NoteOnEvent(tick=64, channel=3, data=[40, 127]),
   midi.NoteOnEvent(tick=128, channel=3, data=[40, 0]),
   midi.NoteOnEvent(tick=64, channel=3, data=[46, 127]),
   midi.NoteOnEvent(tick=128, channel=3, data=[46, 0]),
   midi.NoteOnEvent(tick=64, channel=3, data=[43, 127]),
   midi.NoteOnEvent(tick=128, channel=3, data=[43, 0]),
   midi.NoteOnEvent(tick=64, channel=3, data=[46, 127]),
   midi.NoteOnEvent(tick=128, channel=3, data=[46, 0]),
   midi.NoteOnEvent(tick=64, channel=3, data=[28, 127]),
   midi.NoteOnEvent(tick=128, channel=3, data=[28, 0]),
   midi.NoteOnEvent(tick=64, channel=3, data=[43, 127]),
   midi.NoteOnEvent(tick=128, channel=3, data=[43, 0]),
   midi.NoteOnEvent(tick=64, channel=3, data=[47, 127]),
   midi.NoteOnEvent(tick=128, channel=3, data=[47, 0]),
   midi.NoteOnEvent(tick=64, channel=3, data=[28, 127]),
   midi.NoteOnEvent(tick=128, channel=3, data=[28, 0]),
   midi.NoteOnEvent(tick=64, channel=3, data=[45, 127]),
   midi.NoteOnEvent(tick=128, channel=3, data=[45, 0]),
   midi.NoteOnEvent(tick=64, channel=3, data=[48, 127]),
   midi.NoteOnEvent(tick=128, channel=3, data=[48, 0]),
   midi.NoteOnEvent(tick=64, channel=3, data=[54, 127]),
   midi.NoteOnEvent(tick=256, channel=3, data=[54, 0]),
   midi.NoteOnEvent(tick=128, channel=3, data=[28, 127]),
   midi.NoteOnEvent(tick=128, channel=3, data=[28, 0]),
   midi.NoteOnEvent(tick=64, channel=3, data=[40, 127]),
   midi.NoteOnEvent(tick=128, channel=3, data=[40, 0]),
   midi.NoteOnEvent(tick=64, channel=3, data=[43, 127]),
   midi.NoteOnEvent(tick=128, channel=3, data=[43, 0]),
   midi.NoteOnEvent(tick=64, channel=3, data=[28, 127]),
   midi.NoteOnEvent(tick=128, channel=3, data=[28, 0]),
   midi.NoteOnEvent(tick=64, channel=3, data=[40, 127]),
   midi.NoteOnEvent(tick=128, channel=3, data=[40, 0]),
   midi.NoteOnEvent(tick=64, channel=3, data=[46, 127]),
   midi.NoteOnEvent(tick=128, channel=3, data=[46, 0]),
   midi.NoteOnEvent(tick=64, channel=3, data=[43, 127]),
   midi.NoteOnEvent(tick=128, channel=3, data=[43, 0]),
   midi.NoteOnEvent(tick=64, channel=3, data=[46, 127]),
   midi.NoteOnEvent(tick=128, channel=3, data=[46, 0]),
   midi.NoteOnEvent(tick=64, channel=3, data=[28, 127]),
   midi.NoteOnEvent(tick=128, channel=3, data=[28, 0]),
   midi.NoteOnEvent(tick=64, channel=3, data=[43, 127]),
   midi.NoteOnEvent(tick=128, channel=3, data=[43, 0]),
   midi.NoteOnEvent(tick=64, channel=3, data=[47, 127]),
   midi.NoteOnEvent(tick=128, channel=3, data=[47, 0]),
   midi.NoteOnEvent(tick=64, channel=3, data=[28, 127]),
   midi.NoteOnEvent(tick=128, channel=3, data=[28, 0]),
   midi.NoteOnEvent(tick=64, channel=3, data=[45, 127]),
   midi.NoteOnEvent(tick=128, channel=3, data=[45, 0]),
   midi.NoteOnEvent(tick=64, channel=3, data=[48, 127]),
   midi.NoteOnEvent(tick=128, channel=3, data=[48, 0]),
   midi.NoteOnEvent(tick=64, channel=3, data=[54, 127]),
   midi.NoteOnEvent(tick=128, channel=3, data=[54, 0]),
   midi.NoteOnEvent(tick=64, channel=3, data=[48, 127]),
   midi.NoteOnEvent(tick=128, channel=3, data=[48, 0]),
   midi.NoteOnEvent(tick=64, channel=3, data=[28, 127]),
   midi.NoteOnEvent(tick=128, channel=3, data=[28, 0]),
   midi.NoteOnEvent(tick=64, channel=3, data=[40, 127]),
   midi.NoteOnEvent(tick=128, channel=3, data=[40, 0]),
   midi.NoteOnEvent(tick=64, channel=3, data=[43, 127]),
   midi.NoteOnEvent(tick=128, channel=3, data=[43, 0]),
   midi.NoteOnEvent(tick=64, channel=3, data=[28, 127]),
   midi.NoteOnEvent(tick=128, channel=3, data=[28, 0]),
   midi.NoteOnEvent(tick=64, channel=3, data=[40, 127]),
   midi.NoteOnEvent(tick=128, channel=3, data=[40, 0]),
   midi.NoteOnEvent(tick=64, channel=3, data=[46, 127]),
   midi.NoteOnEvent(tick=128, channel=3, data=[46, 0]),
   midi.NoteOnEvent(tick=64, channel=3, data=[43, 127]),
   midi.NoteOnEvent(tick=128, channel=3, data=[43, 0]),
   midi.NoteOnEvent(tick=64, channel=3, data=[46, 127]),
   midi.NoteOnEvent(tick=128, channel=3, data=[46, 0]),
   midi.NoteOnEvent(tick=64, channel=3, data=[28, 127]),
   midi.NoteOnEvent(tick=128, channel=3, data=[28, 0]),
   midi.NoteOnEvent(tick=64, channel=3, data=[43, 127]),
   midi.NoteOnEvent(tick=128, channel=3, data=[43, 0]),
   midi.NoteOnEvent(tick=64, channel=3, data=[47, 127]),
   midi.NoteOnEvent(tick=128, channel=3, data=[47, 0]),
   midi.NoteOnEvent(tick=64, channel=3, data=[28, 127]),
   midi.NoteOnEvent(tick=128, channel=3, data=[28, 0]),
   midi.NoteOnEvent(tick=64, channel=3, data=[45, 127]),
   midi.NoteOnEvent(tick=128, channel=3, data=[45, 0]),
   midi.NoteOnEvent(tick=64, channel=3, data=[48, 127]),
   midi.NoteOnEvent(tick=128, channel=3, data=[48, 0]),
   midi.NoteOnEvent(tick=64, channel=3, data=[54, 127]),
   midi.NoteOnEvent(tick=256, channel=3, data=[54, 0]),
   midi.NoteOnEvent(tick=128, channel=3, data=[28, 127]),
   midi.NoteOnEvent(tick=128, channel=3, data=[28, 0]),
   midi.NoteOnEvent(tick=64, channel=3, data=[40, 127]),
   midi.NoteOnEvent(tick=128, channel=3, data=[40, 0]),
   midi.NoteOnEvent(tick=64, channel=3, data=[43, 127]),
   midi.NoteOnEvent(tick=128, channel=3, data=[43, 0]),
   midi.NoteOnEvent(tick=64, channel=3, data=[28, 127]),
   midi.NoteOnEvent(tick=128, channel=3, data=[28, 0]),
   midi.NoteOnEvent(tick=64, channel=3, data=[40, 127]),
   midi.NoteOnEvent(tick=128, channel=3, data=[40, 0]),
   midi.NoteOnEvent(tick=64, channel=3, data=[46, 127]),
   midi.NoteOnEvent(tick=128, channel=3, data=[46, 0]),
   midi.NoteOnEvent(tick=64, channel=3, data=[43, 127]),
   midi.NoteOnEvent(tick=128, channel=3, data=[43, 0]),
   midi.NoteOnEvent(tick=64, channel=3, data=[46, 127]),
   midi.NoteOnEvent(tick=128, channel=3, data=[46, 0]),
   midi.NoteOnEvent(tick=64, channel=3, data=[28, 127]),
   midi.NoteOnEvent(tick=128, channel=3, data=[28, 0]),
   midi.NoteOnEvent(tick=64, channel=3, data=[43, 127]),
   midi.NoteOnEvent(tick=128, channel=3, data=[43, 0]),
   midi.NoteOnEvent(tick=64, channel=3, data=[47, 127]),
   midi.NoteOnEvent(tick=128, channel=3, data=[47, 0]),
   midi.NoteOnEvent(tick=64, channel=3, data=[28, 127]),
   midi.NoteOnEvent(tick=128, channel=3, data=[28, 0]),
   midi.NoteOnEvent(tick=64, channel=3, data=[45, 127]),
   midi.NoteOnEvent(tick=128, channel=3, data=[45, 0]),
   midi.NoteOnEvent(tick=64, channel=3, data=[48, 127]),
   midi.NoteOnEvent(tick=128, channel=3, data=[48, 0]),
   midi.NoteOnEvent(tick=64, channel=3, data=[54, 127]),
   midi.NoteOnEvent(tick=128, channel=3, data=[54, 0]),
   midi.NoteOnEvent(tick=64, channel=3, data=[48, 127]),
   midi.NoteOnEvent(tick=128, channel=3, data=[48, 0]),
   midi.NoteOnEvent(tick=64, channel=3, data=[28, 127]),
   midi.NoteOnEvent(tick=128, channel=3, data=[28, 0]),
   midi.NoteOnEvent(tick=64, channel=3, data=[40, 127]),
   midi.NoteOnEvent(tick=128, channel=3, data=[40, 0]),
   midi.NoteOnEvent(tick=64, channel=3, data=[43, 127]),
   midi.NoteOnEvent(tick=128, channel=3, data=[43, 0]),
   midi.NoteOnEvent(tick=64, channel=3, data=[28, 127]),
   midi.NoteOnEvent(tick=128, channel=3, data=[28, 0]),
   midi.NoteOnEvent(tick=64, channel=3, data=[40, 127]),
   midi.NoteOnEvent(tick=128, channel=3, data=[40, 0]),
   midi.NoteOnEvent(tick=64, channel=3, data=[46, 127]),
   midi.NoteOnEvent(tick=128, channel=3, data=[46, 0]),
   midi.NoteOnEvent(tick=64, channel=3, data=[43, 127]),
   midi.NoteOnEvent(tick=128, channel=3, data=[43, 0]),
   midi.NoteOnEvent(tick=64, channel=3, data=[46, 127]),
   midi.NoteOnEvent(tick=128, channel=3, data=[46, 0]),
   midi.NoteOnEvent(tick=64, channel=3, data=[28, 127]),
   midi.NoteOnEvent(tick=128, channel=3, data=[28, 0]),
   midi.NoteOnEvent(tick=64, channel=3, data=[43, 127]),
   midi.NoteOnEvent(tick=128, channel=3, data=[43, 0]),
   midi.NoteOnEvent(tick=64, channel=3, data=[47, 127]),
   midi.NoteOnEvent(tick=128, channel=3, data=[47, 0]),
   midi.NoteOnEvent(tick=64, channel=3, data=[28, 127]),
   midi.NoteOnEvent(tick=128, channel=3, data=[28, 0]),
   midi.NoteOnEvent(tick=64, channel=3, data=[45, 127]),
   midi.NoteOnEvent(tick=128, channel=3, data=[45, 0]),
   midi.NoteOnEvent(tick=64, channel=3, data=[48, 127]),
   midi.NoteOnEvent(tick=128, channel=3, data=[48, 0]),
   midi.NoteOnEvent(tick=64, channel=3, data=[54, 127]),
   midi.NoteOnEvent(tick=256, channel=3, data=[54, 0]),
   midi.NoteOnEvent(tick=128, channel=3, data=[28, 127]),
   midi.NoteOnEvent(tick=128, channel=3, data=[28, 0]),
   midi.NoteOnEvent(tick=64, channel=3, data=[40, 127]),
   midi.NoteOnEvent(tick=128, channel=3, data=[40, 0]),
   midi.NoteOnEvent(tick=64, channel=3, data=[43, 127]),
   midi.NoteOnEvent(tick=128, channel=3, data=[43, 0]),
   midi.NoteOnEvent(tick=64, channel=3, data=[28, 127]),
   midi.NoteOnEvent(tick=128, channel=3, data=[28, 0]),
   midi.NoteOnEvent(tick=64, channel=3, data=[40, 127]),
   midi.NoteOnEvent(tick=128, channel=3, data=[40, 0]),
   midi.NoteOnEvent(tick=64, channel=3, data=[46, 127]),
   midi.NoteOnEvent(tick=128, channel=3, data=[46, 0]),
   midi.NoteOnEvent(tick=64, channel=3, data=[43, 127]),
   midi.NoteOnEvent(tick=128, channel=3, data=[43, 0]),
   midi.NoteOnEvent(tick=64, channel=3, data=[46, 127]),
   midi.NoteOnEvent(tick=128, channel=3, data=[46, 0]),
   midi.NoteOnEvent(tick=64, channel=3, data=[28, 127]),
   midi.NoteOnEvent(tick=128, channel=3, data=[28, 0]),
   midi.NoteOnEvent(tick=64, channel=3, data=[43, 127]),
   midi.NoteOnEvent(tick=128, channel=3, data=[43, 0]),
   midi.NoteOnEvent(tick=64, channel=3, data=[47, 127]),
   midi.NoteOnEvent(tick=128, channel=3, data=[47, 0]),
   midi.NoteOnEvent(tick=64, channel=3, data=[28, 127]),
   midi.NoteOnEvent(tick=128, channel=3, data=[28, 0]),
   midi.NoteOnEvent(tick=64, channel=3, data=[45, 127]),
   midi.NoteOnEvent(tick=128, channel=3, data=[45, 0]),
   midi.NoteOnEvent(tick=64, channel=3, data=[48, 127]),
   midi.NoteOnEvent(tick=128, channel=3, data=[48, 0]),
   midi.NoteOnEvent(tick=64, channel=3, data=[54, 127]),
   midi.NoteOnEvent(tick=128, channel=3, data=[54, 0]),
   midi.NoteOnEvent(tick=64, channel=3, data=[48, 127]),
   midi.NoteOnEvent(tick=128, channel=3, data=[48, 0]),
   midi.NoteOnEvent(tick=64, channel=3, data=[28, 127]),
   midi.NoteOnEvent(tick=128, channel=3, data=[28, 0]),
   midi.NoteOnEvent(tick=64, channel=3, data=[40, 127]),
   midi.NoteOnEvent(tick=128, channel=3, data=[40, 0]),
   midi.NoteOnEvent(tick=64, channel=3, data=[43, 127]),
   midi.NoteOnEvent(tick=128, channel=3, data=[43, 0]),
   midi.NoteOnEvent(tick=64, channel=3, data=[28, 127]),
   midi.NoteOnEvent(tick=128, channel=3, data=[28, 0]),
   midi.NoteOnEvent(tick=64, channel=3, data=[40, 127]),
   midi.NoteOnEvent(tick=128, channel=3, data=[40, 0]),
   midi.NoteOnEvent(tick=64, channel=3, data=[46, 127]),
   midi.NoteOnEvent(tick=128, channel=3, data=[46, 0]),
   midi.NoteOnEvent(tick=64, channel=3, data=[43, 127]),
   midi.NoteOnEvent(tick=128, channel=3, data=[43, 0]),
   midi.NoteOnEvent(tick=64, channel=3, data=[46, 127]),
   midi.NoteOnEvent(tick=128, channel=3, data=[46, 0]),
   midi.NoteOnEvent(tick=64, channel=3, data=[28, 127]),
   midi.NoteOnEvent(tick=128, channel=3, data=[28, 0]),
   midi.NoteOnEvent(tick=64, channel=3, data=[43, 127]),
   midi.NoteOnEvent(tick=128, channel=3, data=[43, 0]),
   midi.NoteOnEvent(tick=64, channel=3, data=[47, 127]),
   midi.NoteOnEvent(tick=128, channel=3, data=[47, 0]),
   midi.NoteOnEvent(tick=64, channel=3, data=[28, 127]),
   midi.NoteOnEvent(tick=128, channel=3, data=[28, 0]),
   midi.NoteOnEvent(tick=64, channel=3, data=[45, 127]),
   midi.NoteOnEvent(tick=128, channel=3, data=[45, 0]),
   midi.NoteOnEvent(tick=64, channel=3, data=[48, 127]),
   midi.NoteOnEvent(tick=128, channel=3, data=[48, 0]),
   midi.NoteOnEvent(tick=64, channel=3, data=[54, 127]),
   midi.NoteOnEvent(tick=256, channel=3, data=[54, 0]),
   midi.NoteOnEvent(tick=128, channel=3, data=[28, 127]),
   midi.NoteOnEvent(tick=128, channel=3, data=[28, 0]),
   midi.NoteOnEvent(tick=64, channel=3, data=[40, 127]),
   midi.NoteOnEvent(tick=128, channel=3, data=[40, 0]),
   midi.NoteOnEvent(tick=64, channel=3, data=[43, 127]),
   midi.NoteOnEvent(tick=128, channel=3, data=[43, 0]),
   midi.NoteOnEvent(tick=64, channel=3, data=[28, 127]),
   midi.NoteOnEvent(tick=128, channel=3, data=[28, 0]),
   midi.NoteOnEvent(tick=64, channel=3, data=[40, 127]),
   midi.NoteOnEvent(tick=128, channel=3, data=[40, 0]),
   midi.NoteOnEvent(tick=64, channel=3, data=[46, 127]),
   midi.NoteOnEvent(tick=128, channel=3, data=[46, 0]),
   midi.NoteOnEvent(tick=64, channel=3, data=[43, 127]),
   midi.NoteOnEvent(tick=128, channel=3, data=[43, 0]),
   midi.NoteOnEvent(tick=64, channel=3, data=[46, 127]),
   midi.NoteOnEvent(tick=128, channel=3, data=[46, 0]),
   midi.NoteOnEvent(tick=64, channel=3, data=[28, 127]),
   midi.NoteOnEvent(tick=128, channel=3, data=[28, 0]),
   midi.NoteOnEvent(tick=64, channel=3, data=[43, 127]),
   midi.NoteOnEvent(tick=128, channel=3, data=[43, 0]),
   midi.NoteOnEvent(tick=64, channel=3, data=[47, 127]),
   midi.NoteOnEvent(tick=128, channel=3, data=[47, 0]),
   midi.NoteOnEvent(tick=64, channel=3, data=[28, 127]),
   midi.NoteOnEvent(tick=128, channel=3, data=[28, 0]),
   midi.NoteOnEvent(tick=64, channel=3, data=[45, 127]),
   midi.NoteOnEvent(tick=128, channel=3, data=[45, 0]),
   midi.NoteOnEvent(tick=64, channel=3, data=[48, 127]),
   midi.NoteOnEvent(tick=128, channel=3, data=[48, 0]),
   midi.NoteOnEvent(tick=64, channel=3, data=[54, 127]),
   midi.NoteOnEvent(tick=128, channel=3, data=[54, 0]),
   midi.NoteOnEvent(tick=64, channel=3, data=[48, 127]),
   midi.NoteOnEvent(tick=128, channel=3, data=[48, 0]),
   midi.NoteOnEvent(tick=64, channel=3, data=[28, 127]),
   midi.NoteOnEvent(tick=128, channel=3, data=[28, 0]),
   midi.NoteOnEvent(tick=64, channel=3, data=[40, 127]),
   midi.NoteOnEvent(tick=128, channel=3, data=[40, 0]),
   midi.NoteOnEvent(tick=64, channel=3, data=[43, 127]),
   midi.NoteOnEvent(tick=128, channel=3, data=[43, 0]),
   midi.NoteOnEvent(tick=64, channel=3, data=[28, 127]),
   midi.NoteOnEvent(tick=128, channel=3, data=[28, 0]),
   midi.NoteOnEvent(tick=64, channel=3, data=[40, 127]),
   midi.NoteOnEvent(tick=128, channel=3, data=[40, 0]),
   midi.NoteOnEvent(tick=64, channel=3, data=[46, 127]),
   midi.NoteOnEvent(tick=128, channel=3, data=[46, 0]),
   midi.NoteOnEvent(tick=64, channel=3, data=[43, 127]),
   midi.NoteOnEvent(tick=128, channel=3, data=[43, 0]),
   midi.NoteOnEvent(tick=64, channel=3, data=[46, 127]),
   midi.NoteOnEvent(tick=128, channel=3, data=[46, 0]),
   midi.NoteOnEvent(tick=64, channel=3, data=[28, 127]),
   midi.NoteOnEvent(tick=128, channel=3, data=[28, 0]),
   midi.NoteOnEvent(tick=64, channel=3, data=[43, 127]),
   midi.NoteOnEvent(tick=128, channel=3, data=[43, 0]),
   midi.NoteOnEvent(tick=64, channel=3, data=[47, 127]),
   midi.NoteOnEvent(tick=128, channel=3, data=[47, 0]),
   midi.NoteOnEvent(tick=64, channel=3, data=[28, 127]),
   midi.NoteOnEvent(tick=128, channel=3, data=[28, 0]),
   midi.NoteOnEvent(tick=64, channel=3, data=[45, 127]),
   midi.NoteOnEvent(tick=128, channel=3, data=[45, 0]),
   midi.NoteOnEvent(tick=64, channel=3, data=[48, 127]),
   midi.NoteOnEvent(tick=128, channel=3, data=[48, 0]),
   midi.NoteOnEvent(tick=64, channel=3, data=[54, 127]),
   midi.NoteOnEvent(tick=256, channel=3, data=[54, 0]),
   midi.NoteOnEvent(tick=128, channel=3, data=[28, 127]),
   midi.NoteOnEvent(tick=128, channel=3, data=[28, 0]),
   midi.NoteOnEvent(tick=64, channel=3, data=[40, 127]),
   midi.NoteOnEvent(tick=128, channel=3, data=[40, 0]),
   midi.NoteOnEvent(tick=64, channel=3, data=[43, 127]),
   midi.NoteOnEvent(tick=128, channel=3, data=[43, 0]),
   midi.NoteOnEvent(tick=64, channel=3, data=[28, 127]),
   midi.NoteOnEvent(tick=128, channel=3, data=[28, 0]),
   midi.NoteOnEvent(tick=64, channel=3, data=[40, 127]),
   midi.NoteOnEvent(tick=128, channel=3, data=[40, 0]),
   midi.NoteOnEvent(tick=64, channel=3, data=[46, 127]),
   midi.NoteOnEvent(tick=128, channel=3, data=[46, 0]),
   midi.NoteOnEvent(tick=64, channel=3, data=[43, 127]),
   midi.NoteOnEvent(tick=128, channel=3, data=[43, 0]),
   midi.NoteOnEvent(tick=64, channel=3, data=[46, 127]),
   midi.NoteOnEvent(tick=128, channel=3, data=[46, 0]),
   midi.NoteOnEvent(tick=64, channel=3, data=[28, 127]),
   midi.NoteOnEvent(tick=128, channel=3, data=[28, 0]),
   midi.NoteOnEvent(tick=64, channel=3, data=[43, 127]),
   midi.NoteOnEvent(tick=128, channel=3, data=[43, 0]),
   midi.NoteOnEvent(tick=64, channel=3, data=[47, 127]),
   midi.NoteOnEvent(tick=128, channel=3, data=[47, 0]),
   midi.NoteOnEvent(tick=64, channel=3, data=[28, 127]),
   midi.NoteOnEvent(tick=128, channel=3, data=[28, 0]),
   midi.NoteOnEvent(tick=64, channel=3, data=[45, 127]),
   midi.NoteOnEvent(tick=128, channel=3, data=[45, 0]),
   midi.NoteOnEvent(tick=64, channel=3, data=[48, 127]),
   midi.NoteOnEvent(tick=128, channel=3, data=[48, 0]),
   midi.NoteOnEvent(tick=64, channel=3, data=[54, 127]),
   midi.NoteOnEvent(tick=128, channel=3, data=[54, 0]),
   midi.NoteOnEvent(tick=64, channel=3, data=[48, 127]),
   midi.NoteOnEvent(tick=128, channel=3, data=[48, 0]),
   midi.NoteOnEvent(tick=64, channel=3, data=[28, 127]),
   midi.NoteOnEvent(tick=128, channel=3, data=[28, 0]),
   midi.NoteOnEvent(tick=64, channel=3, data=[40, 127]),
   midi.NoteOnEvent(tick=128, channel=3, data=[40, 0]),
   midi.NoteOnEvent(tick=64, channel=3, data=[43, 127]),
   midi.NoteOnEvent(tick=128, channel=3, data=[43, 0]),
   midi.NoteOnEvent(tick=64, channel=3, data=[28, 127]),
   midi.NoteOnEvent(tick=128, channel=3, data=[28, 0]),
   midi.NoteOnEvent(tick=64, channel=3, data=[40, 127]),
   midi.NoteOnEvent(tick=128, channel=3, data=[40, 0]),
   midi.NoteOnEvent(tick=64, channel=3, data=[46, 127]),
   midi.NoteOnEvent(tick=128, channel=3, data=[46, 0]),
   midi.NoteOnEvent(tick=64, channel=3, data=[43, 127]),
   midi.NoteOnEvent(tick=128, channel=3, data=[43, 0]),
   midi.NoteOnEvent(tick=64, channel=3, data=[46, 127]),
   midi.NoteOnEvent(tick=128, channel=3, data=[46, 0]),
   midi.NoteOnEvent(tick=64, channel=3, data=[28, 127]),
   midi.NoteOnEvent(tick=128, channel=3, data=[28, 0]),
   midi.NoteOnEvent(tick=64, channel=3, data=[43, 127]),
   midi.NoteOnEvent(tick=128, channel=3, data=[43, 0]),
   midi.NoteOnEvent(tick=64, channel=3, data=[47, 127]),
   midi.NoteOnEvent(tick=128, channel=3, data=[47, 0]),
   midi.NoteOnEvent(tick=64, channel=3, data=[28, 127]),
   midi.NoteOnEvent(tick=128, channel=3, data=[28, 0]),
   midi.NoteOnEvent(tick=64, channel=3, data=[45, 127]),
   midi.NoteOnEvent(tick=128, channel=3, data=[45, 0]),
   midi.NoteOnEvent(tick=64, channel=3, data=[48, 127]),
   midi.NoteOnEvent(tick=128, channel=3, data=[48, 0]),
   midi.NoteOnEvent(tick=64, channel=3, data=[54, 127]),
   midi.NoteOnEvent(tick=256, channel=3, data=[54, 0]),
   midi.NoteOnEvent(tick=128, channel=3, data=[28, 127]),
   midi.NoteOnEvent(tick=128, channel=3, data=[28, 0]),
   midi.NoteOnEvent(tick=64, channel=3, data=[40, 127]),
   midi.NoteOnEvent(tick=128, channel=3, data=[40, 0]),
   midi.NoteOnEvent(tick=64, channel=3, data=[43, 127]),
   midi.NoteOnEvent(tick=128, channel=3, data=[43, 0]),
   midi.NoteOnEvent(tick=64, channel=3, data=[28, 127]),
   midi.NoteOnEvent(tick=128, channel=3, data=[28, 0]),
   midi.NoteOnEvent(tick=64, channel=3, data=[40, 127]),
   midi.NoteOnEvent(tick=128, channel=3, data=[40, 0]),
   midi.NoteOnEvent(tick=64, channel=3, data=[46, 127]),
   midi.NoteOnEvent(tick=128, channel=3, data=[46, 0]),
   midi.NoteOnEvent(tick=64, channel=3, data=[43, 127]),
   midi.NoteOnEvent(tick=128, channel=3, data=[43, 0]),
   midi.NoteOnEvent(tick=64, channel=3, data=[46, 127]),
   midi.NoteOnEvent(tick=128, channel=3, data=[46, 0]),
   midi.NoteOnEvent(tick=64, channel=3, data=[28, 127]),
   midi.NoteOnEvent(tick=128, channel=3, data=[28, 0]),
   midi.NoteOnEvent(tick=64, channel=3, data=[43, 127]),
   midi.NoteOnEvent(tick=128, channel=3, data=[43, 0]),
   midi.NoteOnEvent(tick=64, channel=3, data=[47, 127]),
   midi.NoteOnEvent(tick=128, channel=3, data=[47, 0]),
   midi.NoteOnEvent(tick=64, channel=3, data=[28, 127]),
   midi.NoteOnEvent(tick=128, channel=3, data=[28, 0]),
   midi.NoteOnEvent(tick=64, channel=3, data=[45, 127]),
   midi.NoteOnEvent(tick=128, channel=3, data=[45, 0]),
   midi.NoteOnEvent(tick=64, channel=3, data=[48, 127]),
   midi.NoteOnEvent(tick=128, channel=3, data=[48, 0]),
   midi.NoteOnEvent(tick=64, channel=3, data=[54, 127]),
   midi.NoteOnEvent(tick=128, channel=3, data=[54, 0]),
   midi.NoteOnEvent(tick=64, channel=3, data=[48, 127]),
   midi.NoteOnEvent(tick=128, channel=3, data=[48, 0]),
   midi.NoteOnEvent(tick=64, channel=3, data=[28, 127]),
   midi.NoteOnEvent(tick=128, channel=3, data=[28, 0]),
   midi.NoteOnEvent(tick=64, channel=3, data=[40, 127]),
   midi.NoteOnEvent(tick=128, channel=3, data=[40, 0]),
   midi.NoteOnEvent(tick=64, channel=3, data=[43, 127]),
   midi.NoteOnEvent(tick=128, channel=3, data=[43, 0]),
   midi.NoteOnEvent(tick=64, channel=3, data=[28, 127]),
   midi.NoteOnEvent(tick=128, channel=3, data=[28, 0]),
   midi.NoteOnEvent(tick=64, channel=3, data=[40, 127]),
   midi.NoteOnEvent(tick=128, channel=3, data=[40, 0]),
   midi.NoteOnEvent(tick=64, channel=3, data=[46, 127]),
   midi.NoteOnEvent(tick=128, channel=3, data=[46, 0]),
   midi.NoteOnEvent(tick=64, channel=3, data=[43, 127]),
   midi.NoteOnEvent(tick=128, channel=3, data=[43, 0]),
   midi.NoteOnEvent(tick=64, channel=3, data=[46, 127]),
   midi.NoteOnEvent(tick=128, channel=3, data=[46, 0]),
   midi.NoteOnEvent(tick=64, channel=3, data=[28, 127]),
   midi.NoteOnEvent(tick=128, channel=3, data=[28, 0]),
   midi.NoteOnEvent(tick=64, channel=3, data=[43, 127]),
   midi.NoteOnEvent(tick=128, channel=3, data=[43, 0]),
   midi.NoteOnEvent(tick=64, channel=3, data=[47, 127]),
   midi.NoteOnEvent(tick=128, channel=3, data=[47, 0]),
   midi.NoteOnEvent(tick=64, channel=3, data=[28, 127]),
   midi.NoteOnEvent(tick=128, channel=3, data=[28, 0]),
   midi.NoteOnEvent(tick=64, channel=3, data=[45, 127]),
   midi.NoteOnEvent(tick=128, channel=3, data=[45, 0]),
   midi.NoteOnEvent(tick=64, channel=3, data=[48, 127]),
   midi.NoteOnEvent(tick=128, channel=3, data=[48, 0]),
   midi.NoteOnEvent(tick=64, channel=3, data=[54, 127]),
   midi.NoteOnEvent(tick=256, channel=3, data=[54, 0]),
   midi.NoteOnEvent(tick=128, channel=3, data=[28, 127]),
   midi.NoteOnEvent(tick=128, channel=3, data=[28, 0]),
   midi.NoteOnEvent(tick=64, channel=3, data=[40, 127]),
   midi.NoteOnEvent(tick=128, channel=3, data=[40, 0]),
   midi.NoteOnEvent(tick=64, channel=3, data=[43, 127]),
   midi.NoteOnEvent(tick=128, channel=3, data=[43, 0]),
   midi.NoteOnEvent(tick=64, channel=3, data=[28, 127]),
   midi.NoteOnEvent(tick=128, channel=3, data=[28, 0]),
   midi.NoteOnEvent(tick=64, channel=3, data=[40, 127]),
   midi.NoteOnEvent(tick=128, channel=3, data=[40, 0]),
   midi.NoteOnEvent(tick=64, channel=3, data=[46, 127]),
   midi.NoteOnEvent(tick=128, channel=3, data=[46, 0]),
   midi.NoteOnEvent(tick=64, channel=3, data=[43, 127]),
   midi.NoteOnEvent(tick=128, channel=3, data=[43, 0]),
   midi.NoteOnEvent(tick=64, channel=3, data=[46, 127]),
   midi.NoteOnEvent(tick=128, channel=3, data=[46, 0]),
   midi.NoteOnEvent(tick=64, channel=3, data=[28, 127]),
   midi.NoteOnEvent(tick=128, channel=3, data=[28, 0]),
   midi.NoteOnEvent(tick=64, channel=3, data=[43, 127]),
   midi.NoteOnEvent(tick=128, channel=3, data=[43, 0]),
   midi.NoteOnEvent(tick=64, channel=3, data=[47, 127]),
   midi.NoteOnEvent(tick=128, channel=3, data=[47, 0]),
   midi.NoteOnEvent(tick=64, channel=3, data=[28, 127]),
   midi.NoteOnEvent(tick=128, channel=3, data=[28, 0]),
   midi.NoteOnEvent(tick=64, channel=3, data=[45, 127]),
   midi.NoteOnEvent(tick=128, channel=3, data=[45, 0]),
   midi.NoteOnEvent(tick=64, channel=3, data=[48, 127]),
   midi.NoteOnEvent(tick=128, channel=3, data=[48, 0]),
   midi.NoteOnEvent(tick=64, channel=3, data=[54, 127]),
   midi.NoteOnEvent(tick=128, channel=3, data=[54, 0]),
   midi.NoteOnEvent(tick=64, channel=3, data=[48, 127]),
   midi.NoteOnEvent(tick=128, channel=3, data=[48, 0]),
   midi.NoteOnEvent(tick=64, channel=3, data=[35, 127]),
   midi.NoteOnEvent(tick=128, channel=3, data=[35, 0]),
   midi.NoteOnEvent(tick=64, channel=3, data=[38, 127]),
   midi.NoteOnEvent(tick=128, channel=3, data=[38, 0]),
   midi.NoteOnEvent(tick=64, channel=3, data=[43, 127]),
   midi.NoteOnEvent(tick=128, channel=3, data=[43, 0]),
   midi.NoteOnEvent(tick=64, channel=3, data=[34, 127]),
   midi.NoteOnEvent(tick=128, channel=3, data=[34, 0]),
   midi.NoteOnEvent(tick=64, channel=3, data=[38, 127]),
   midi.NoteOnEvent(tick=128, channel=3, data=[38, 0]),
   midi.NoteOnEvent(tick=64, channel=3, data=[43, 127]),
   midi.NoteOnEvent(tick=128, channel=3, data=[43, 0]),
   midi.NoteOnEvent(tick=64, channel=3, data=[31, 127]),
   midi.NoteOnEvent(tick=128, channel=3, data=[31, 0]),
   midi.NoteOnEvent(tick=64, channel=3, data=[30, 127]),
   midi.NoteOnEvent(tick=128, channel=3, data=[30, 0]),
   midi.NoteOnEvent(tick=64, channel=3, data=[40, 127]),
   midi.NoteOnEvent(tick=128, channel=3, data=[40, 0]),
   midi.NoteOnEvent(tick=64, channel=3, data=[39, 127]),
   midi.NoteOnEvent(tick=128, channel=3, data=[39, 0]),
   midi.NoteOnEvent(tick=64, channel=3, data=[40, 127]),
   midi.NoteOnEvent(tick=128, channel=3, data=[40, 0]),
   midi.NoteOnEvent(tick=64, channel=3, data=[42, 127]),
   midi.NoteOnEvent(tick=128, channel=3, data=[42, 0]),
   midi.NoteOnEvent(tick=64, channel=3, data=[43, 127]),
   midi.NoteOnEvent(tick=128, channel=3, data=[43, 0]),
   midi.NoteOnEvent(tick=64, channel=3, data=[42, 127]),
   midi.NoteOnEvent(tick=128, channel=3, data=[42, 0]),
   midi.NoteOnEvent(tick=64, channel=3, data=[43, 127]),
   midi.NoteOnEvent(tick=128, channel=3, data=[43, 0]),
   midi.NoteOnEvent(tick=64, channel=3, data=[45, 127]),
   midi.NoteOnEvent(tick=128, channel=3, data=[45, 0]),
   midi.NoteOnEvent(tick=64, channel=3, data=[35, 127]),
   midi.NoteOnEvent(tick=128, channel=3, data=[35, 0]),
   midi.NoteOnEvent(tick=64, channel=3, data=[38, 127]),
   midi.NoteOnEvent(tick=128, channel=3, data=[38, 0]),
   midi.NoteOnEvent(tick=64, channel=3, data=[43, 127]),
   midi.NoteOnEvent(tick=128, channel=3, data=[43, 0]),
   midi.NoteOnEvent(tick=64, channel=3, data=[34, 127]),
   midi.NoteOnEvent(tick=128, channel=3, data=[34, 0]),
   midi.NoteOnEvent(tick=64, channel=3, data=[38, 127]),
   midi.NoteOnEvent(tick=128, channel=3, data=[38, 0]),
   midi.NoteOnEvent(tick=64, channel=3, data=[43, 127]),
   midi.NoteOnEvent(tick=128, channel=3, data=[43, 0]),
   midi.NoteOnEvent(tick=64, channel=3, data=[31, 127]),
   midi.NoteOnEvent(tick=128, channel=3, data=[31, 0]),
   midi.NoteOnEvent(tick=64, channel=3, data=[30, 127]),
   midi.NoteOnEvent(tick=128, channel=3, data=[30, 0]),
   midi.NoteOnEvent(tick=64, channel=3, data=[40, 127]),
   midi.NoteOnEvent(tick=128, channel=3, data=[40, 0]),
   midi.NoteOnEvent(tick=64, channel=3, data=[39, 127]),
   midi.NoteOnEvent(tick=128, channel=3, data=[39, 0]),
   midi.NoteOnEvent(tick=64, channel=3, data=[40, 127]),
   midi.NoteOnEvent(tick=128, channel=3, data=[40, 0]),
   midi.NoteOnEvent(tick=64, channel=3, data=[42, 127]),
   midi.NoteOnEvent(tick=128, channel=3, data=[42, 0]),
   midi.NoteOnEvent(tick=64, channel=3, data=[43, 127]),
   midi.NoteOnEvent(tick=128, channel=3, data=[43, 0]),
   midi.NoteOnEvent(tick=64, channel=3, data=[42, 127]),
   midi.NoteOnEvent(tick=128, channel=3, data=[42, 0]),
   midi.NoteOnEvent(tick=64, channel=3, data=[43, 127]),
   midi.NoteOnEvent(tick=128, channel=3, data=[43, 0]),
   midi.NoteOnEvent(tick=64, channel=3, data=[45, 127]),
   midi.NoteOnEvent(tick=128, channel=3, data=[45, 0]),
   midi.NoteOnEvent(tick=64, channel=3, data=[35, 127]),
   midi.NoteOnEvent(tick=128, channel=3, data=[35, 0]),
   midi.NoteOnEvent(tick=64, channel=3, data=[38, 127]),
   midi.NoteOnEvent(tick=128, channel=3, data=[38, 0]),
   midi.NoteOnEvent(tick=64, channel=3, data=[43, 127]),
   midi.NoteOnEvent(tick=128, channel=3, data=[43, 0]),
   midi.NoteOnEvent(tick=64, channel=3, data=[34, 127]),
   midi.NoteOnEvent(tick=128, channel=3, data=[34, 0]),
   midi.NoteOnEvent(tick=64, channel=3, data=[38, 127]),
   midi.NoteOnEvent(tick=128, channel=3, data=[38, 0]),
   midi.NoteOnEvent(tick=64, channel=3, data=[43, 127]),
   midi.NoteOnEvent(tick=128, channel=3, data=[43, 0]),
   midi.NoteOnEvent(tick=64, channel=3, data=[31, 127]),
   midi.NoteOnEvent(tick=128, channel=3, data=[31, 0]),
   midi.NoteOnEvent(tick=64, channel=3, data=[30, 127]),
   midi.NoteOnEvent(tick=128, channel=3, data=[30, 0]),
   midi.NoteOnEvent(tick=64, channel=3, data=[40, 127]),
   midi.NoteOnEvent(tick=128, channel=3, data=[40, 0]),
   midi.NoteOnEvent(tick=64, channel=3, data=[39, 127]),
   midi.NoteOnEvent(tick=128, channel=3, data=[39, 0]),
   midi.NoteOnEvent(tick=64, channel=3, data=[40, 127]),
   midi.NoteOnEvent(tick=128, channel=3, data=[40, 0]),
   midi.NoteOnEvent(tick=64, channel=3, data=[42, 127]),
   midi.NoteOnEvent(tick=128, channel=3, data=[42, 0]),
   midi.NoteOnEvent(tick=64, channel=3, data=[43, 127]),
   midi.NoteOnEvent(tick=128, channel=3, data=[43, 0]),
   midi.NoteOnEvent(tick=64, channel=3, data=[42, 127]),
   midi.NoteOnEvent(tick=128, channel=3, data=[42, 0]),
   midi.NoteOnEvent(tick=64, channel=3, data=[43, 127]),
   midi.NoteOnEvent(tick=128, channel=3, data=[43, 0]),
   midi.NoteOnEvent(tick=64, channel=3, data=[45, 127]),
   midi.NoteOnEvent(tick=128, channel=3, data=[45, 0]),
   midi.NoteOnEvent(tick=64, channel=3, data=[35, 127]),
   midi.NoteOnEvent(tick=128, channel=3, data=[35, 0]),
   midi.NoteOnEvent(tick=64, channel=3, data=[38, 127]),
   midi.NoteOnEvent(tick=128, channel=3, data=[38, 0]),
   midi.NoteOnEvent(tick=64, channel=3, data=[43, 127]),
   midi.NoteOnEvent(tick=128, channel=3, data=[43, 0]),
   midi.NoteOnEvent(tick=64, channel=3, data=[34, 127]),
   midi.NoteOnEvent(tick=128, channel=3, data=[34, 0]),
   midi.NoteOnEvent(tick=64, channel=3, data=[38, 127]),
   midi.NoteOnEvent(tick=128, channel=3, data=[38, 0]),
   midi.NoteOnEvent(tick=64, channel=3, data=[43, 127]),
   midi.NoteOnEvent(tick=128, channel=3, data=[43, 0]),
   midi.NoteOnEvent(tick=64, channel=3, data=[31, 127]),
   midi.NoteOnEvent(tick=128, channel=3, data=[31, 0]),
   midi.NoteOnEvent(tick=64, channel=3, data=[30, 127]),
   midi.NoteOnEvent(tick=128, channel=3, data=[30, 0]),
   midi.NoteOnEvent(tick=1600, channel=3, data=[28, 127]),
   midi.NoteOnEvent(tick=128, channel=3, data=[28, 0]),
   midi.NoteOnEvent(tick=64, channel=3, data=[40, 127]),
   midi.NoteOnEvent(tick=128, channel=3, data=[40, 0]),
   midi.NoteOnEvent(tick=64, channel=3, data=[43, 127]),
   midi.NoteOnEvent(tick=128, channel=3, data=[43, 0]),
   midi.NoteOnEvent(tick=64, channel=3, data=[28, 127]),
   midi.NoteOnEvent(tick=128, channel=3, data=[28, 0]),
   midi.NoteOnEvent(tick=64, channel=3, data=[40, 127]),
   midi.NoteOnEvent(tick=128, channel=3, data=[40, 0]),
   midi.NoteOnEvent(tick=64, channel=3, data=[46, 127]),
   midi.NoteOnEvent(tick=128, channel=3, data=[46, 0]),
   midi.NoteOnEvent(tick=64, channel=3, data=[43, 127]),
   midi.NoteOnEvent(tick=128, channel=3, data=[43, 0]),
   midi.NoteOnEvent(tick=64, channel=3, data=[46, 127]),
   midi.NoteOnEvent(tick=128, channel=3, data=[46, 0]),
   midi.NoteOnEvent(tick=64, channel=3, data=[28, 127]),
   midi.NoteOnEvent(tick=128, channel=3, data=[28, 0]),
   midi.NoteOnEvent(tick=64, channel=3, data=[43, 127]),
   midi.NoteOnEvent(tick=128, channel=3, data=[43, 0]),
   midi.NoteOnEvent(tick=64, channel=3, data=[47, 127]),
   midi.NoteOnEvent(tick=128, channel=3, data=[47, 0]),
   midi.NoteOnEvent(tick=64, channel=3, data=[28, 127]),
   midi.NoteOnEvent(tick=128, channel=3, data=[28, 0]),
   midi.NoteOnEvent(tick=64, channel=3, data=[45, 127]),
   midi.NoteOnEvent(tick=128, channel=3, data=[45, 0]),
   midi.NoteOnEvent(tick=64, channel=3, data=[48, 127]),
   midi.NoteOnEvent(tick=128, channel=3, data=[48, 0]),
   midi.NoteOnEvent(tick=64, channel=3, data=[54, 127]),
   midi.NoteOnEvent(tick=128, channel=3, data=[54, 0]),
   midi.NoteOnEvent(tick=64, channel=3, data=[48, 127]),
   midi.NoteOnEvent(tick=128, channel=3, data=[48, 0]),
   midi.NoteOnEvent(tick=64, channel=3, data=[28, 127]),
   midi.NoteOnEvent(tick=128, channel=3, data=[28, 0]),
   midi.NoteOnEvent(tick=64, channel=3, data=[40, 127]),
   midi.NoteOnEvent(tick=128, channel=3, data=[40, 0]),
   midi.NoteOnEvent(tick=64, channel=3, data=[43, 127]),
   midi.NoteOnEvent(tick=128, channel=3, data=[43, 0]),
   midi.NoteOnEvent(tick=64, channel=3, data=[28, 127]),
   midi.NoteOnEvent(tick=128, channel=3, data=[28, 0]),
   midi.NoteOnEvent(tick=64, channel=3, data=[40, 127]),
   midi.NoteOnEvent(tick=128, channel=3, data=[40, 0]),
   midi.NoteOnEvent(tick=64, channel=3, data=[46, 127]),
   midi.NoteOnEvent(tick=128, channel=3, data=[46, 0]),
   midi.NoteOnEvent(tick=64, channel=3, data=[43, 127]),
   midi.NoteOnEvent(tick=128, channel=3, data=[43, 0]),
   midi.NoteOnEvent(tick=64, channel=3, data=[46, 127]),
   midi.NoteOnEvent(tick=128, channel=3, data=[46, 0]),
   midi.NoteOnEvent(tick=64, channel=3, data=[28, 127]),
   midi.NoteOnEvent(tick=128, channel=3, data=[28, 0]),
   midi.NoteOnEvent(tick=64, channel=3, data=[43, 127]),
   midi.NoteOnEvent(tick=128, channel=3, data=[43, 0]),
   midi.NoteOnEvent(tick=64, channel=3, data=[47, 127]),
   midi.NoteOnEvent(tick=128, channel=3, data=[47, 0]),
   midi.NoteOnEvent(tick=64, channel=3, data=[28, 127]),
   midi.NoteOnEvent(tick=128, channel=3, data=[28, 0]),
   midi.NoteOnEvent(tick=64, channel=3, data=[45, 127]),
   midi.NoteOnEvent(tick=128, channel=3, data=[45, 0]),
   midi.NoteOnEvent(tick=64, channel=3, data=[48, 127]),
   midi.NoteOnEvent(tick=128, channel=3, data=[48, 0]),
   midi.NoteOnEvent(tick=64, channel=3, data=[54, 127]),
   midi.NoteOnEvent(tick=256, channel=3, data=[54, 0]),
   midi.NoteOnEvent(tick=128, channel=3, data=[28, 127]),
   midi.NoteOnEvent(tick=128, channel=3, data=[28, 0]),
   midi.NoteOnEvent(tick=64, channel=3, data=[40, 127]),
   midi.NoteOnEvent(tick=128, channel=3, data=[40, 0]),
   midi.NoteOnEvent(tick=64, channel=3, data=[43, 127]),
   midi.NoteOnEvent(tick=128, channel=3, data=[43, 0]),
   midi.NoteOnEvent(tick=64, channel=3, data=[28, 127]),
   midi.NoteOnEvent(tick=128, channel=3, data=[28, 0]),
   midi.NoteOnEvent(tick=64, channel=3, data=[40, 127]),
   midi.NoteOnEvent(tick=128, channel=3, data=[40, 0]),
   midi.NoteOnEvent(tick=64, channel=3, data=[46, 127]),
   midi.NoteOnEvent(tick=128, channel=3, data=[46, 0]),
   midi.NoteOnEvent(tick=64, channel=3, data=[43, 127]),
   midi.NoteOnEvent(tick=128, channel=3, data=[43, 0]),
   midi.NoteOnEvent(tick=64, channel=3, data=[46, 127]),
   midi.NoteOnEvent(tick=128, channel=3, data=[46, 0]),
   midi.NoteOnEvent(tick=64, channel=3, data=[28, 127]),
   midi.NoteOnEvent(tick=128, channel=3, data=[28, 0]),
   midi.NoteOnEvent(tick=64, channel=3, data=[43, 127]),
   midi.NoteOnEvent(tick=128, channel=3, data=[43, 0]),
   midi.NoteOnEvent(tick=64, channel=3, data=[47, 127]),
   midi.NoteOnEvent(tick=128, channel=3, data=[47, 0]),
   midi.NoteOnEvent(tick=64, channel=3, data=[28, 127]),
   midi.NoteOnEvent(tick=128, channel=3, data=[28, 0]),
   midi.NoteOnEvent(tick=64, channel=3, data=[45, 127]),
   midi.NoteOnEvent(tick=128, channel=3, data=[45, 0]),
   midi.NoteOnEvent(tick=64, channel=3, data=[48, 127]),
   midi.NoteOnEvent(tick=128, channel=3, data=[48, 0]),
   midi.NoteOnEvent(tick=64, channel=3, data=[54, 127]),
   midi.NoteOnEvent(tick=128, channel=3, data=[54, 0]),
   midi.NoteOnEvent(tick=64, channel=3, data=[48, 127]),
   midi.NoteOnEvent(tick=128, channel=3, data=[48, 0]),
   midi.NoteOnEvent(tick=64, channel=3, data=[28, 127]),
   midi.NoteOnEvent(tick=128, channel=3, data=[28, 0]),
   midi.NoteOnEvent(tick=64, channel=3, data=[40, 127]),
   midi.NoteOnEvent(tick=128, channel=3, data=[40, 0]),
   midi.NoteOnEvent(tick=64, channel=3, data=[43, 127]),
   midi.NoteOnEvent(tick=128, channel=3, data=[43, 0]),
   midi.NoteOnEvent(tick=64, channel=3, data=[28, 127]),
   midi.NoteOnEvent(tick=128, channel=3, data=[28, 0]),
   midi.NoteOnEvent(tick=64, channel=3, data=[40, 127]),
   midi.NoteOnEvent(tick=128, channel=3, data=[40, 0]),
   midi.NoteOnEvent(tick=64, channel=3, data=[46, 127]),
   midi.NoteOnEvent(tick=128, channel=3, data=[46, 0]),
   midi.NoteOnEvent(tick=64, channel=3, data=[43, 127]),
   midi.NoteOnEvent(tick=128, channel=3, data=[43, 0]),
   midi.NoteOnEvent(tick=64, channel=3, data=[46, 127]),
   midi.NoteOnEvent(tick=128, channel=3, data=[46, 0]),
   midi.NoteOnEvent(tick=64, channel=3, data=[28, 127]),
   midi.NoteOnEvent(tick=128, channel=3, data=[28, 0]),
   midi.NoteOnEvent(tick=64, channel=3, data=[43, 127]),
   midi.NoteOnEvent(tick=128, channel=3, data=[43, 0]),
   midi.NoteOnEvent(tick=64, channel=3, data=[47, 127]),
   midi.NoteOnEvent(tick=128, channel=3, data=[47, 0]),
   midi.NoteOnEvent(tick=64, channel=3, data=[28, 127]),
   midi.NoteOnEvent(tick=128, channel=3, data=[28, 0]),
   midi.NoteOnEvent(tick=64, channel=3, data=[45, 127]),
   midi.NoteOnEvent(tick=128, channel=3, data=[45, 0]),
   midi.NoteOnEvent(tick=64, channel=3, data=[48, 127]),
   midi.NoteOnEvent(tick=128, channel=3, data=[48, 0]),
   midi.NoteOnEvent(tick=64, channel=3, data=[54, 127]),
   midi.NoteOnEvent(tick=256, channel=3, data=[54, 0]),
   midi.NoteOnEvent(tick=128, channel=3, data=[28, 127]),
   midi.NoteOnEvent(tick=128, channel=3, data=[28, 0]),
   midi.NoteOnEvent(tick=64, channel=3, data=[40, 127]),
   midi.NoteOnEvent(tick=128, channel=3, data=[40, 0]),
   midi.NoteOnEvent(tick=64, channel=3, data=[43, 127]),
   midi.NoteOnEvent(tick=128, channel=3, data=[43, 0]),
   midi.NoteOnEvent(tick=64, channel=3, data=[28, 127]),
   midi.NoteOnEvent(tick=128, channel=3, data=[28, 0]),
   midi.NoteOnEvent(tick=64, channel=3, data=[40, 127]),
   midi.NoteOnEvent(tick=128, channel=3, data=[40, 0]),
   midi.NoteOnEvent(tick=64, channel=3, data=[46, 127]),
   midi.NoteOnEvent(tick=128, channel=3, data=[46, 0]),
   midi.NoteOnEvent(tick=64, channel=3, data=[43, 127]),
   midi.NoteOnEvent(tick=128, channel=3, data=[43, 0]),
   midi.NoteOnEvent(tick=64, channel=3, data=[46, 127]),
   midi.NoteOnEvent(tick=128, channel=3, data=[46, 0]),
   midi.NoteOnEvent(tick=64, channel=3, data=[28, 127]),
   midi.NoteOnEvent(tick=128, channel=3, data=[28, 0]),
   midi.NoteOnEvent(tick=64, channel=3, data=[43, 127]),
   midi.NoteOnEvent(tick=128, channel=3, data=[43, 0]),
   midi.NoteOnEvent(tick=64, channel=3, data=[47, 127]),
   midi.NoteOnEvent(tick=128, channel=3, data=[47, 0]),
   midi.NoteOnEvent(tick=64, channel=3, data=[28, 127]),
   midi.NoteOnEvent(tick=128, channel=3, data=[28, 0]),
   midi.NoteOnEvent(tick=64, channel=3, data=[45, 127]),
   midi.NoteOnEvent(tick=128, channel=3, data=[45, 0]),
   midi.NoteOnEvent(tick=64, channel=3, data=[48, 127]),
   midi.NoteOnEvent(tick=128, channel=3, data=[48, 0]),
   midi.NoteOnEvent(tick=64, channel=3, data=[54, 127]),
   midi.NoteOnEvent(tick=128, channel=3, data=[54, 0]),
   midi.NoteOnEvent(tick=64, channel=3, data=[48, 127]),
   midi.NoteOnEvent(tick=128, channel=3, data=[48, 0]),
   midi.NoteOnEvent(tick=64, channel=3, data=[28, 127]),
   midi.NoteOnEvent(tick=128, channel=3, data=[28, 0]),
   midi.NoteOnEvent(tick=64, channel=3, data=[40, 127]),
   midi.NoteOnEvent(tick=128, channel=3, data=[40, 0]),
   midi.NoteOnEvent(tick=64, channel=3, data=[43, 127]),
   midi.NoteOnEvent(tick=128, channel=3, data=[43, 0]),
   midi.NoteOnEvent(tick=64, channel=3, data=[28, 127]),
   midi.NoteOnEvent(tick=128, channel=3, data=[28, 0]),
   midi.NoteOnEvent(tick=64, channel=3, data=[40, 127]),
   midi.NoteOnEvent(tick=128, channel=3, data=[40, 0]),
   midi.NoteOnEvent(tick=64, channel=3, data=[46, 127]),
   midi.NoteOnEvent(tick=128, channel=3, data=[46, 0]),
   midi.NoteOnEvent(tick=64, channel=3, data=[43, 127]),
   midi.NoteOnEvent(tick=128, channel=3, data=[43, 0]),
   midi.NoteOnEvent(tick=64, channel=3, data=[46, 127]),
   midi.NoteOnEvent(tick=128, channel=3, data=[46, 0]),
   midi.NoteOnEvent(tick=64, channel=3, data=[28, 127]),
   midi.NoteOnEvent(tick=128, channel=3, data=[28, 0]),
   midi.NoteOnEvent(tick=64, channel=3, data=[43, 127]),
   midi.NoteOnEvent(tick=128, channel=3, data=[43, 0]),
   midi.NoteOnEvent(tick=64, channel=3, data=[47, 127]),
   midi.NoteOnEvent(tick=128, channel=3, data=[47, 0]),
   midi.NoteOnEvent(tick=64, channel=3, data=[28, 127]),
   midi.NoteOnEvent(tick=128, channel=3, data=[28, 0]),
   midi.NoteOnEvent(tick=64, channel=3, data=[45, 127]),
   midi.NoteOnEvent(tick=128, channel=3, data=[45, 0]),
   midi.NoteOnEvent(tick=64, channel=3, data=[48, 127]),
   midi.NoteOnEvent(tick=128, channel=3, data=[48, 0]),
   midi.NoteOnEvent(tick=64, channel=3, data=[54, 127]),
   midi.NoteOnEvent(tick=256, channel=3, data=[54, 0]),
   midi.NoteOnEvent(tick=128, channel=3, data=[28, 127]),
   midi.NoteOnEvent(tick=128, channel=3, data=[28, 0]),
   midi.NoteOnEvent(tick=64, channel=3, data=[40, 127]),
   midi.NoteOnEvent(tick=128, channel=3, data=[40, 0]),
   midi.NoteOnEvent(tick=64, channel=3, data=[43, 127]),
   midi.NoteOnEvent(tick=128, channel=3, data=[43, 0]),
   midi.NoteOnEvent(tick=64, channel=3, data=[28, 127]),
   midi.NoteOnEvent(tick=128, channel=3, data=[28, 0]),
   midi.NoteOnEvent(tick=64, channel=3, data=[40, 127]),
   midi.NoteOnEvent(tick=128, channel=3, data=[40, 0]),
   midi.NoteOnEvent(tick=64, channel=3, data=[46, 127]),
   midi.NoteOnEvent(tick=128, channel=3, data=[46, 0]),
   midi.NoteOnEvent(tick=64, channel=3, data=[43, 127]),
   midi.NoteOnEvent(tick=128, channel=3, data=[43, 0]),
   midi.NoteOnEvent(tick=64, channel=3, data=[46, 127]),
   midi.NoteOnEvent(tick=128, channel=3, data=[46, 0]),
   midi.NoteOnEvent(tick=64, channel=3, data=[28, 127]),
   midi.NoteOnEvent(tick=128, channel=3, data=[28, 0]),
   midi.NoteOnEvent(tick=64, channel=3, data=[43, 127]),
   midi.NoteOnEvent(tick=128, channel=3, data=[43, 0]),
   midi.NoteOnEvent(tick=64, channel=3, data=[47, 127]),
   midi.NoteOnEvent(tick=128, channel=3, data=[47, 0]),
   midi.NoteOnEvent(tick=64, channel=3, data=[28, 127]),
   midi.NoteOnEvent(tick=128, channel=3, data=[28, 0]),
   midi.NoteOnEvent(tick=64, channel=3, data=[45, 127]),
   midi.NoteOnEvent(tick=128, channel=3, data=[45, 0]),
   midi.NoteOnEvent(tick=64, channel=3, data=[48, 127]),
   midi.NoteOnEvent(tick=128, channel=3, data=[48, 0]),
   midi.NoteOnEvent(tick=64, channel=3, data=[54, 127]),
   midi.NoteOnEvent(tick=128, channel=3, data=[54, 0]),
   midi.NoteOnEvent(tick=64, channel=3, data=[48, 127]),
   midi.NoteOnEvent(tick=128, channel=3, data=[48, 0]),
   midi.NoteOnEvent(tick=64, channel=3, data=[28, 127]),
   midi.NoteOnEvent(tick=128, channel=3, data=[28, 0]),
   midi.NoteOnEvent(tick=64, channel=3, data=[40, 127]),
   midi.NoteOnEvent(tick=128, channel=3, data=[40, 0]),
   midi.NoteOnEvent(tick=64, channel=3, data=[43, 127]),
   midi.NoteOnEvent(tick=128, channel=3, data=[43, 0]),
   midi.NoteOnEvent(tick=64, channel=3, data=[28, 127]),
   midi.NoteOnEvent(tick=128, channel=3, data=[28, 0]),
   midi.NoteOnEvent(tick=64, channel=3, data=[40, 127]),
   midi.NoteOnEvent(tick=128, channel=3, data=[40, 0]),
   midi.NoteOnEvent(tick=64, channel=3, data=[46, 127]),
   midi.NoteOnEvent(tick=128, channel=3, data=[46, 0]),
   midi.NoteOnEvent(tick=64, channel=3, data=[43, 127]),
   midi.NoteOnEvent(tick=128, channel=3, data=[43, 0]),
   midi.NoteOnEvent(tick=64, channel=3, data=[46, 127]),
   midi.NoteOnEvent(tick=128, channel=3, data=[46, 0]),
   midi.NoteOnEvent(tick=64, channel=3, data=[28, 127]),
   midi.NoteOnEvent(tick=128, channel=3, data=[28, 0]),
   midi.NoteOnEvent(tick=64, channel=3, data=[43, 127]),
   midi.NoteOnEvent(tick=128, channel=3, data=[43, 0]),
   midi.NoteOnEvent(tick=64, channel=3, data=[47, 127]),
   midi.NoteOnEvent(tick=128, channel=3, data=[47, 0]),
   midi.NoteOnEvent(tick=64, channel=3, data=[28, 127]),
   midi.NoteOnEvent(tick=128, channel=3, data=[28, 0]),
   midi.NoteOnEvent(tick=64, channel=3, data=[45, 127]),
   midi.NoteOnEvent(tick=128, channel=3, data=[45, 0]),
   midi.NoteOnEvent(tick=64, channel=3, data=[48, 127]),
   midi.NoteOnEvent(tick=128, channel=3, data=[48, 0]),
   midi.NoteOnEvent(tick=64, channel=3, data=[54, 127]),
   midi.NoteOnEvent(tick=256, channel=3, data=[54, 0]),
   midi.NoteOnEvent(tick=128, channel=3, data=[28, 127]),
   midi.NoteOnEvent(tick=128, channel=3, data=[28, 0]),
   midi.NoteOnEvent(tick=64, channel=3, data=[40, 127]),
   midi.NoteOnEvent(tick=128, channel=3, data=[40, 0]),
   midi.NoteOnEvent(tick=64, channel=3, data=[43, 127]),
   midi.NoteOnEvent(tick=128, channel=3, data=[43, 0]),
   midi.NoteOnEvent(tick=64, channel=3, data=[28, 127]),
   midi.NoteOnEvent(tick=128, channel=3, data=[28, 0]),
   midi.NoteOnEvent(tick=64, channel=3, data=[40, 127]),
   midi.NoteOnEvent(tick=128, channel=3, data=[40, 0]),
   midi.NoteOnEvent(tick=64, channel=3, data=[46, 127]),
   midi.NoteOnEvent(tick=128, channel=3, data=[46, 0]),
   midi.NoteOnEvent(tick=64, channel=3, data=[43, 127]),
   midi.NoteOnEvent(tick=128, channel=3, data=[43, 0]),
   midi.NoteOnEvent(tick=64, channel=3, data=[46, 127]),
   midi.NoteOnEvent(tick=128, channel=3, data=[46, 0]),
   midi.NoteOnEvent(tick=64, channel=3, data=[28, 127]),
   midi.NoteOnEvent(tick=128, channel=3, data=[28, 0]),
   midi.NoteOnEvent(tick=64, channel=3, data=[43, 127]),
   midi.NoteOnEvent(tick=128, channel=3, data=[43, 0]),
   midi.NoteOnEvent(tick=64, channel=3, data=[47, 127]),
   midi.NoteOnEvent(tick=128, channel=3, data=[47, 0]),
   midi.NoteOnEvent(tick=64, channel=3, data=[28, 127]),
   midi.NoteOnEvent(tick=128, channel=3, data=[28, 0]),
   midi.NoteOnEvent(tick=64, channel=3, data=[45, 127]),
   midi.NoteOnEvent(tick=128, channel=3, data=[45, 0]),
   midi.NoteOnEvent(tick=64, channel=3, data=[48, 127]),
   midi.NoteOnEvent(tick=128, channel=3, data=[48, 0]),
   midi.NoteOnEvent(tick=64, channel=3, data=[54, 127]),
   midi.NoteOnEvent(tick=128, channel=3, data=[54, 0]),
   midi.NoteOnEvent(tick=64, channel=3, data=[48, 127]),
   midi.NoteOnEvent(tick=128, channel=3, data=[48, 0]),
   midi.NoteOnEvent(tick=64, channel=3, data=[28, 127]),
   midi.NoteOnEvent(tick=128, channel=3, data=[28, 0]),
   midi.NoteOnEvent(tick=64, channel=3, data=[40, 127]),
   midi.NoteOnEvent(tick=128, channel=3, data=[40, 0]),
   midi.NoteOnEvent(tick=64, channel=3, data=[43, 127]),
   midi.NoteOnEvent(tick=128, channel=3, data=[43, 0]),
   midi.NoteOnEvent(tick=64, channel=3, data=[28, 127]),
   midi.NoteOnEvent(tick=128, channel=3, data=[28, 0]),
   midi.NoteOnEvent(tick=64, channel=3, data=[40, 127]),
   midi.NoteOnEvent(tick=128, channel=3, data=[40, 0]),
   midi.NoteOnEvent(tick=64, channel=3, data=[46, 127]),
   midi.NoteOnEvent(tick=128, channel=3, data=[46, 0]),
   midi.NoteOnEvent(tick=64, channel=3, data=[43, 127]),
   midi.NoteOnEvent(tick=128, channel=3, data=[43, 0]),
   midi.NoteOnEvent(tick=64, channel=3, data=[46, 127]),
   midi.NoteOnEvent(tick=128, channel=3, data=[46, 0]),
   midi.NoteOnEvent(tick=64, channel=3, data=[28, 127]),
   midi.NoteOnEvent(tick=128, channel=3, data=[28, 0]),
   midi.NoteOnEvent(tick=64, channel=3, data=[43, 127]),
   midi.NoteOnEvent(tick=128, channel=3, data=[43, 0]),
   midi.NoteOnEvent(tick=64, channel=3, data=[47, 127]),
   midi.NoteOnEvent(tick=128, channel=3, data=[47, 0]),
   midi.NoteOnEvent(tick=64, channel=3, data=[28, 127]),
   midi.NoteOnEvent(tick=128, channel=3, data=[28, 0]),
   midi.NoteOnEvent(tick=64, channel=3, data=[45, 127]),
   midi.NoteOnEvent(tick=128, channel=3, data=[45, 0]),
   midi.NoteOnEvent(tick=64, channel=3, data=[48, 127]),
   midi.NoteOnEvent(tick=128, channel=3, data=[48, 0]),
   midi.NoteOnEvent(tick=64, channel=3, data=[54, 127]),
   midi.NoteOnEvent(tick=256, channel=3, data=[54, 0]),
   midi.NoteOnEvent(tick=128, channel=3, data=[28, 127]),
   midi.NoteOnEvent(tick=128, channel=3, data=[28, 0]),
   midi.NoteOnEvent(tick=64, channel=3, data=[40, 127]),
   midi.NoteOnEvent(tick=128, channel=3, data=[40, 0]),
   midi.NoteOnEvent(tick=64, channel=3, data=[43, 127]),
   midi.NoteOnEvent(tick=128, channel=3, data=[43, 0]),
   midi.NoteOnEvent(tick=64, channel=3, data=[28, 127]),
   midi.NoteOnEvent(tick=128, channel=3, data=[28, 0]),
   midi.NoteOnEvent(tick=64, channel=3, data=[40, 127]),
   midi.NoteOnEvent(tick=128, channel=3, data=[40, 0]),
   midi.NoteOnEvent(tick=64, channel=3, data=[46, 127]),
   midi.NoteOnEvent(tick=128, channel=3, data=[46, 0]),
   midi.NoteOnEvent(tick=64, channel=3, data=[43, 127]),
   midi.NoteOnEvent(tick=128, channel=3, data=[43, 0]),
   midi.NoteOnEvent(tick=64, channel=3, data=[46, 127]),
   midi.NoteOnEvent(tick=128, channel=3, data=[46, 0]),
   midi.NoteOnEvent(tick=64, channel=3, data=[28, 127]),
   midi.NoteOnEvent(tick=128, channel=3, data=[28, 0]),
   midi.NoteOnEvent(tick=64, channel=3, data=[43, 127]),
   midi.NoteOnEvent(tick=128, channel=3, data=[43, 0]),
   midi.NoteOnEvent(tick=64, channel=3, data=[47, 127]),
   midi.NoteOnEvent(tick=128, channel=3, data=[47, 0]),
   midi.NoteOnEvent(tick=64, channel=3, data=[28, 127]),
   midi.NoteOnEvent(tick=128, channel=3, data=[28, 0]),
   midi.NoteOnEvent(tick=64, channel=3, data=[45, 127]),
   midi.NoteOnEvent(tick=128, channel=3, data=[45, 0]),
   midi.NoteOnEvent(tick=64, channel=3, data=[48, 127]),
   midi.NoteOnEvent(tick=128, channel=3, data=[48, 0]),
   midi.NoteOnEvent(tick=64, channel=3, data=[54, 127]),
   midi.NoteOnEvent(tick=128, channel=3, data=[54, 0]),
   midi.NoteOnEvent(tick=64, channel=3, data=[48, 127]),
   midi.NoteOnEvent(tick=128, channel=3, data=[48, 0]),
   midi.NoteOnEvent(tick=64, channel=3, data=[28, 127]),
   midi.NoteOnEvent(tick=128, channel=3, data=[28, 0]),
   midi.NoteOnEvent(tick=64, channel=3, data=[40, 127]),
   midi.NoteOnEvent(tick=128, channel=3, data=[40, 0]),
   midi.NoteOnEvent(tick=64, channel=3, data=[43, 127]),
   midi.NoteOnEvent(tick=128, channel=3, data=[43, 0]),
   midi.NoteOnEvent(tick=64, channel=3, data=[28, 127]),
   midi.NoteOnEvent(tick=128, channel=3, data=[28, 0]),
   midi.NoteOnEvent(tick=64, channel=3, data=[40, 127]),
   midi.NoteOnEvent(tick=128, channel=3, data=[40, 0]),
   midi.NoteOnEvent(tick=64, channel=3, data=[46, 127]),
   midi.NoteOnEvent(tick=128, channel=3, data=[46, 0]),
   midi.NoteOnEvent(tick=64, channel=3, data=[43, 127]),
   midi.NoteOnEvent(tick=128, channel=3, data=[43, 0]),
   midi.NoteOnEvent(tick=64, channel=3, data=[46, 127]),
   midi.NoteOnEvent(tick=128, channel=3, data=[46, 0]),
   midi.NoteOnEvent(tick=64, channel=3, data=[28, 127]),
   midi.NoteOnEvent(tick=128, channel=3, data=[28, 0]),
   midi.NoteOnEvent(tick=64, channel=3, data=[43, 127]),
   midi.NoteOnEvent(tick=128, channel=3, data=[43, 0]),
   midi.NoteOnEvent(tick=64, channel=3, data=[47, 127]),
   midi.NoteOnEvent(tick=128, channel=3, data=[47, 0]),
   midi.NoteOnEvent(tick=64, channel=3, data=[28, 127]),
   midi.NoteOnEvent(tick=128, channel=3, data=[28, 0]),
   midi.NoteOnEvent(tick=64, channel=3, data=[45, 127]),
   midi.NoteOnEvent(tick=128, channel=3, data=[45, 0]),
   midi.NoteOnEvent(tick=64, channel=3, data=[48, 127]),
   midi.NoteOnEvent(tick=128, channel=3, data=[48, 0]),
   midi.NoteOnEvent(tick=64, channel=3, data=[54, 127]),
   midi.NoteOnEvent(tick=256, channel=3, data=[54, 0]),
   midi.NoteOnEvent(tick=128, channel=3, data=[28, 127]),
   midi.NoteOnEvent(tick=128, channel=3, data=[28, 0]),
   midi.NoteOnEvent(tick=64, channel=3, data=[40, 127]),
   midi.NoteOnEvent(tick=128, channel=3, data=[40, 0]),
   midi.NoteOnEvent(tick=64, channel=3, data=[43, 127]),
   midi.NoteOnEvent(tick=128, channel=3, data=[43, 0]),
   midi.NoteOnEvent(tick=64, channel=3, data=[28, 127]),
   midi.NoteOnEvent(tick=128, channel=3, data=[28, 0]),
   midi.NoteOnEvent(tick=64, channel=3, data=[40, 127]),
   midi.NoteOnEvent(tick=128, channel=3, data=[40, 0]),
   midi.NoteOnEvent(tick=64, channel=3, data=[46, 127]),
   midi.NoteOnEvent(tick=128, channel=3, data=[46, 0]),
   midi.NoteOnEvent(tick=64, channel=3, data=[43, 127]),
   midi.NoteOnEvent(tick=128, channel=3, data=[43, 0]),
   midi.NoteOnEvent(tick=64, channel=3, data=[46, 127]),
   midi.NoteOnEvent(tick=128, channel=3, data=[46, 0]),
   midi.NoteOnEvent(tick=64, channel=3, data=[28, 127]),
   midi.NoteOnEvent(tick=128, channel=3, data=[28, 0]),
   midi.NoteOnEvent(tick=64, channel=3, data=[43, 127]),
   midi.NoteOnEvent(tick=128, channel=3, data=[43, 0]),
   midi.NoteOnEvent(tick=64, channel=3, data=[47, 127]),
   midi.NoteOnEvent(tick=128, channel=3, data=[47, 0]),
   midi.NoteOnEvent(tick=64, channel=3, data=[28, 127]),
   midi.NoteOnEvent(tick=128, channel=3, data=[28, 0]),
   midi.NoteOnEvent(tick=64, channel=3, data=[45, 127]),
   midi.NoteOnEvent(tick=128, channel=3, data=[45, 0]),
   midi.NoteOnEvent(tick=64, channel=3, data=[48, 127]),
   midi.NoteOnEvent(tick=128, channel=3, data=[48, 0]),
   midi.NoteOnEvent(tick=64, channel=3, data=[54, 127]),
   midi.NoteOnEvent(tick=128, channel=3, data=[54, 0]),
   midi.NoteOnEvent(tick=64, channel=3, data=[48, 127]),
   midi.NoteOnEvent(tick=128, channel=3, data=[48, 0]),
   midi.NoteOnEvent(tick=64, channel=3, data=[28, 127]),
   midi.NoteOnEvent(tick=128, channel=3, data=[28, 0]),
   midi.NoteOnEvent(tick=64, channel=3, data=[40, 127]),
   midi.NoteOnEvent(tick=128, channel=3, data=[40, 0]),
   midi.NoteOnEvent(tick=64, channel=3, data=[43, 127]),
   midi.NoteOnEvent(tick=128, channel=3, data=[43, 0]),
   midi.NoteOnEvent(tick=64, channel=3, data=[28, 127]),
   midi.NoteOnEvent(tick=128, channel=3, data=[28, 0]),
   midi.NoteOnEvent(tick=64, channel=3, data=[40, 127]),
   midi.NoteOnEvent(tick=128, channel=3, data=[40, 0]),
   midi.NoteOnEvent(tick=64, channel=3, data=[46, 127]),
   midi.NoteOnEvent(tick=128, channel=3, data=[46, 0]),
   midi.NoteOnEvent(tick=64, channel=3, data=[43, 127]),
   midi.NoteOnEvent(tick=128, channel=3, data=[43, 0]),
   midi.NoteOnEvent(tick=64, channel=3, data=[46, 127]),
   midi.NoteOnEvent(tick=128, channel=3, data=[46, 0]),
   midi.NoteOnEvent(tick=64, channel=3, data=[28, 127]),
   midi.NoteOnEvent(tick=128, channel=3, data=[28, 0]),
   midi.NoteOnEvent(tick=64, channel=3, data=[43, 127]),
   midi.NoteOnEvent(tick=128, channel=3, data=[43, 0]),
   midi.NoteOnEvent(tick=64, channel=3, data=[47, 127]),
   midi.NoteOnEvent(tick=128, channel=3, data=[47, 0]),
   midi.NoteOnEvent(tick=64, channel=3, data=[28, 127]),
   midi.NoteOnEvent(tick=128, channel=3, data=[28, 0]),
   midi.NoteOnEvent(tick=64, channel=3, data=[45, 127]),
   midi.NoteOnEvent(tick=128, channel=3, data=[45, 0]),
   midi.NoteOnEvent(tick=64, channel=3, data=[48, 127]),
   midi.NoteOnEvent(tick=128, channel=3, data=[48, 0]),
   midi.NoteOnEvent(tick=64, channel=3, data=[54, 127]),
   midi.NoteOnEvent(tick=256, channel=3, data=[54, 0]),
   midi.NoteOnEvent(tick=128, channel=3, data=[28, 127]),
   midi.NoteOnEvent(tick=128, channel=3, data=[28, 0]),
   midi.NoteOnEvent(tick=64, channel=3, data=[40, 127]),
   midi.NoteOnEvent(tick=128, channel=3, data=[40, 0]),
   midi.NoteOnEvent(tick=64, channel=3, data=[43, 127]),
   midi.NoteOnEvent(tick=128, channel=3, data=[43, 0]),
   midi.NoteOnEvent(tick=64, channel=3, data=[28, 127]),
   midi.NoteOnEvent(tick=128, channel=3, data=[28, 0]),
   midi.NoteOnEvent(tick=64, channel=3, data=[40, 127]),
   midi.NoteOnEvent(tick=128, channel=3, data=[40, 0]),
   midi.NoteOnEvent(tick=64, channel=3, data=[46, 127]),
   midi.NoteOnEvent(tick=128, channel=3, data=[46, 0]),
   midi.NoteOnEvent(tick=64, channel=3, data=[43, 127]),
   midi.NoteOnEvent(tick=128, channel=3, data=[43, 0]),
   midi.NoteOnEvent(tick=64, channel=3, data=[46, 127]),
   midi.NoteOnEvent(tick=128, channel=3, data=[46, 0]),
   midi.NoteOnEvent(tick=64, channel=3, data=[28, 127]),
   midi.NoteOnEvent(tick=128, channel=3, data=[28, 0]),
   midi.NoteOnEvent(tick=64, channel=3, data=[43, 127]),
   midi.NoteOnEvent(tick=128, channel=3, data=[43, 0]),
   midi.NoteOnEvent(tick=64, channel=3, data=[47, 127]),
   midi.NoteOnEvent(tick=128, channel=3, data=[47, 0]),
   midi.NoteOnEvent(tick=64, channel=3, data=[28, 127]),
   midi.NoteOnEvent(tick=128, channel=3, data=[28, 0]),
   midi.NoteOnEvent(tick=64, channel=3, data=[45, 127]),
   midi.NoteOnEvent(tick=128, channel=3, data=[45, 0]),
   midi.NoteOnEvent(tick=64, channel=3, data=[48, 127]),
   midi.NoteOnEvent(tick=128, channel=3, data=[48, 0]),
   midi.NoteOnEvent(tick=64, channel=3, data=[54, 127]),
   midi.NoteOnEvent(tick=128, channel=3, data=[54, 0]),
   midi.NoteOnEvent(tick=64, channel=3, data=[48, 127]),
   midi.NoteOnEvent(tick=128, channel=3, data=[48, 0]),
   midi.NoteOnEvent(tick=64, channel=3, data=[35, 127]),
   midi.NoteOnEvent(tick=128, channel=3, data=[35, 0]),
   midi.NoteOnEvent(tick=64, channel=3, data=[38, 127]),
   midi.NoteOnEvent(tick=128, channel=3, data=[38, 0]),
   midi.NoteOnEvent(tick=64, channel=3, data=[43, 127]),
   midi.NoteOnEvent(tick=128, channel=3, data=[43, 0]),
   midi.NoteOnEvent(tick=64, channel=3, data=[34, 127]),
   midi.NoteOnEvent(tick=128, channel=3, data=[34, 0]),
   midi.NoteOnEvent(tick=64, channel=3, data=[38, 127]),
   midi.NoteOnEvent(tick=128, channel=3, data=[38, 0]),
   midi.NoteOnEvent(tick=64, channel=3, data=[43, 127]),
   midi.NoteOnEvent(tick=128, channel=3, data=[43, 0]),
   midi.NoteOnEvent(tick=64, channel=3, data=[31, 127]),
   midi.NoteOnEvent(tick=128, channel=3, data=[31, 0]),
   midi.NoteOnEvent(tick=64, channel=3, data=[30, 127]),
   midi.NoteOnEvent(tick=128, channel=3, data=[30, 0]),
   midi.NoteOnEvent(tick=64, channel=3, data=[40, 127]),
   midi.NoteOnEvent(tick=128, channel=3, data=[40, 0]),
   midi.NoteOnEvent(tick=64, channel=3, data=[39, 127]),
   midi.NoteOnEvent(tick=128, channel=3, data=[39, 0]),
   midi.NoteOnEvent(tick=64, channel=3, data=[40, 127]),
   midi.NoteOnEvent(tick=128, channel=3, data=[40, 0]),
   midi.NoteOnEvent(tick=64, channel=3, data=[42, 127]),
   midi.NoteOnEvent(tick=128, channel=3, data=[42, 0]),
   midi.NoteOnEvent(tick=64, channel=3, data=[43, 127]),
   midi.NoteOnEvent(tick=128, channel=3, data=[43, 0]),
   midi.NoteOnEvent(tick=64, channel=3, data=[42, 127]),
   midi.NoteOnEvent(tick=128, channel=3, data=[42, 0]),
   midi.NoteOnEvent(tick=64, channel=3, data=[43, 127]),
   midi.NoteOnEvent(tick=128, channel=3, data=[43, 0]),
   midi.NoteOnEvent(tick=64, channel=3, data=[45, 127]),
   midi.NoteOnEvent(tick=128, channel=3, data=[45, 0]),
   midi.NoteOnEvent(tick=64, channel=3, data=[35, 127]),
   midi.NoteOnEvent(tick=128, channel=3, data=[35, 0]),
   midi.NoteOnEvent(tick=64, channel=3, data=[38, 127]),
   midi.NoteOnEvent(tick=128, channel=3, data=[38, 0]),
   midi.NoteOnEvent(tick=64, channel=3, data=[43, 127]),
   midi.NoteOnEvent(tick=128, channel=3, data=[43, 0]),
   midi.NoteOnEvent(tick=64, channel=3, data=[34, 127]),
   midi.NoteOnEvent(tick=128, channel=3, data=[34, 0]),
   midi.NoteOnEvent(tick=64, channel=3, data=[38, 127]),
   midi.NoteOnEvent(tick=128, channel=3, data=[38, 0]),
   midi.NoteOnEvent(tick=64, channel=3, data=[43, 127]),
   midi.NoteOnEvent(tick=128, channel=3, data=[43, 0]),
   midi.NoteOnEvent(tick=64, channel=3, data=[31, 127]),
   midi.NoteOnEvent(tick=128, channel=3, data=[31, 0]),
   midi.NoteOnEvent(tick=64, channel=3, data=[30, 127]),
   midi.NoteOnEvent(tick=128, channel=3, data=[30, 0]),
   midi.NoteOnEvent(tick=64, channel=3, data=[40, 127]),
   midi.NoteOnEvent(tick=128, channel=3, data=[40, 0]),
   midi.NoteOnEvent(tick=64, channel=3, data=[39, 127]),
   midi.NoteOnEvent(tick=128, channel=3, data=[39, 0]),
   midi.NoteOnEvent(tick=64, channel=3, data=[40, 127]),
   midi.NoteOnEvent(tick=128, channel=3, data=[40, 0]),
   midi.NoteOnEvent(tick=64, channel=3, data=[42, 127]),
   midi.NoteOnEvent(tick=128, channel=3, data=[42, 0]),
   midi.NoteOnEvent(tick=64, channel=3, data=[43, 127]),
   midi.NoteOnEvent(tick=128, channel=3, data=[43, 0]),
   midi.NoteOnEvent(tick=64, channel=3, data=[42, 127]),
   midi.NoteOnEvent(tick=128, channel=3, data=[42, 0]),
   midi.NoteOnEvent(tick=64, channel=3, data=[43, 127]),
   midi.NoteOnEvent(tick=128, channel=3, data=[43, 0]),
   midi.NoteOnEvent(tick=64, channel=3, data=[45, 127]),
   midi.NoteOnEvent(tick=128, channel=3, data=[45, 0]),
   midi.NoteOnEvent(tick=64, channel=3, data=[35, 127]),
   midi.NoteOnEvent(tick=128, channel=3, data=[35, 0]),
   midi.NoteOnEvent(tick=64, channel=3, data=[38, 127]),
   midi.NoteOnEvent(tick=128, channel=3, data=[38, 0]),
   midi.NoteOnEvent(tick=64, channel=3, data=[43, 127]),
   midi.NoteOnEvent(tick=128, channel=3, data=[43, 0]),
   midi.NoteOnEvent(tick=64, channel=3, data=[34, 127]),
   midi.NoteOnEvent(tick=128, channel=3, data=[34, 0]),
   midi.NoteOnEvent(tick=64, channel=3, data=[38, 127]),
   midi.NoteOnEvent(tick=128, channel=3, data=[38, 0]),
   midi.NoteOnEvent(tick=64, channel=3, data=[43, 127]),
   midi.NoteOnEvent(tick=128, channel=3, data=[43, 0]),
   midi.NoteOnEvent(tick=64, channel=3, data=[31, 127]),
   midi.NoteOnEvent(tick=128, channel=3, data=[31, 0]),
   midi.NoteOnEvent(tick=64, channel=3, data=[30, 127]),
   midi.NoteOnEvent(tick=128, channel=3, data=[30, 0]),
   midi.NoteOnEvent(tick=64, channel=3, data=[40, 127]),
   midi.NoteOnEvent(tick=128, channel=3, data=[40, 0]),
   midi.NoteOnEvent(tick=64, channel=3, data=[39, 127]),
   midi.NoteOnEvent(tick=128, channel=3, data=[39, 0]),
   midi.NoteOnEvent(tick=64, channel=3, data=[40, 127]),
   midi.NoteOnEvent(tick=128, channel=3, data=[40, 0]),
   midi.NoteOnEvent(tick=64, channel=3, data=[42, 127]),
   midi.NoteOnEvent(tick=128, channel=3, data=[42, 0]),
   midi.NoteOnEvent(tick=64, channel=3, data=[43, 127]),
   midi.NoteOnEvent(tick=128, channel=3, data=[43, 0]),
   midi.NoteOnEvent(tick=64, channel=3, data=[42, 127]),
   midi.NoteOnEvent(tick=128, channel=3, data=[42, 0]),
   midi.NoteOnEvent(tick=64, channel=3, data=[43, 127]),
   midi.NoteOnEvent(tick=128, channel=3, data=[43, 0]),
   midi.NoteOnEvent(tick=64, channel=3, data=[45, 127]),
   midi.NoteOnEvent(tick=128, channel=3, data=[45, 0]),
   midi.NoteOnEvent(tick=64, channel=3, data=[35, 127]),
   midi.NoteOnEvent(tick=128, channel=3, data=[35, 0]),
   midi.NoteOnEvent(tick=64, channel=3, data=[38, 127]),
   midi.NoteOnEvent(tick=128, channel=3, data=[38, 0]),
   midi.NoteOnEvent(tick=64, channel=3, data=[43, 127]),
   midi.NoteOnEvent(tick=128, channel=3, data=[43, 0]),
   midi.NoteOnEvent(tick=64, channel=3, data=[34, 127]),
   midi.NoteOnEvent(tick=128, channel=3, data=[34, 0]),
   midi.NoteOnEvent(tick=64, channel=3, data=[38, 127]),
   midi.NoteOnEvent(tick=128, channel=3, data=[38, 0]),
   midi.NoteOnEvent(tick=64, channel=3, data=[43, 127]),
   midi.NoteOnEvent(tick=128, channel=3, data=[43, 0]),
   midi.NoteOnEvent(tick=64, channel=3, data=[31, 127]),
   midi.NoteOnEvent(tick=128, channel=3, data=[31, 0]),
   midi.NoteOnEvent(tick=64, channel=3, data=[30, 127]),
   midi.NoteOnEvent(tick=128, channel=3, data=[30, 0]),
   midi.NoteOnEvent(tick=64, channel=3, data=[28, 127]),
   midi.NoteOnEvent(tick=2020, channel=3, data=[28, 0]),
   midi.NoteOnEvent(tick=284, channel=3, data=[28, 127]),
   midi.NoteOnEvent(tick=128, channel=3, data=[28, 0]),
   midi.NoteOnEvent(tick=64, channel=3, data=[35, 127]),
   midi.NoteOnEvent(tick=128, channel=3, data=[35, 0]),
   midi.NoteOnEvent(tick=64, channel=3, data=[31, 127]),
   midi.NoteOnEvent(tick=64, channel=3, data=[31, 0]),
   midi.NoteOnEvent(tick=32, channel=3, data=[31, 127]),
   midi.NoteOnEvent(tick=64, channel=3, data=[31, 0]),
   midi.NoteOnEvent(tick=32, channel=3, data=[29, 127]),
   midi.NoteOnEvent(tick=520, channel=3, data=[29, 0]),
   midi.NoteOnEvent(tick=56, channel=3, data=[29, 127]),
   midi.NoteOnEvent(tick=132, channel=3, data=[29, 0]),
   midi.NoteOnEvent(tick=60, channel=3, data=[29, 127]),
   midi.NoteOnEvent(tick=132, channel=3, data=[29, 0]),
   midi.NoteOnEvent(tick=60, channel=3, data=[29, 127]),
   midi.NoteOnEvent(tick=132, channel=3, data=[29, 0]),
   midi.NoteOnEvent(tick=60, channel=3, data=[29, 127]),
   midi.NoteOnEvent(tick=132, channel=3, data=[29, 0]),
   midi.NoteOnEvent(tick=60, channel=3, data=[29, 127]),
   midi.NoteOnEvent(tick=132, channel=3, data=[29, 0]),
   midi.NoteOnEvent(tick=60, channel=3, data=[29, 127]),
   midi.NoteOnEvent(tick=132, channel=3, data=[29, 0]),
   midi.NoteOnEvent(tick=60, channel=3, data=[29, 127]),
   midi.NoteOnEvent(tick=132, channel=3, data=[29, 0]),
   midi.NoteOnEvent(tick=60, channel=3, data=[29, 127]),
   midi.NoteOnEvent(tick=132, channel=3, data=[29, 0]),
   midi.NoteOnEvent(tick=60, channel=3, data=[29, 127]),
   midi.NoteOnEvent(tick=132, channel=3, data=[29, 0]),
   midi.NoteOnEvent(tick=60, channel=3, data=[29, 127]),
   midi.NoteOnEvent(tick=132, channel=3, data=[29, 0]),
   midi.NoteOnEvent(tick=60, channel=3, data=[28, 127]),
   midi.NoteOnEvent(tick=132, channel=3, data=[28, 0]),
   midi.NoteOnEvent(tick=60, channel=3, data=[35, 127]),
   midi.NoteOnEvent(tick=132, channel=3, data=[35, 0]),
   midi.NoteOnEvent(tick=60, channel=3, data=[31, 127]),
   midi.NoteOnEvent(tick=64, channel=3, data=[31, 0]),
   midi.NoteOnEvent(tick=32, channel=3, data=[31, 127]),
   midi.NoteOnEvent(tick=64, channel=3, data=[31, 0]),
   midi.NoteOnEvent(tick=32, channel=3, data=[28, 127]),
   midi.NoteOnEvent(tick=384, channel=3, data=[28, 127]),
   midi.NoteOnEvent(tick=12, channel=3, data=[28, 0]),
   midi.NoteOnEvent(tick=120, channel=3, data=[28, 0]),
   midi.NoteOnEvent(tick=60, channel=3, data=[28, 127]),
   midi.NoteOnEvent(tick=132, channel=3, data=[28, 0]),
   midi.NoteOnEvent(tick=60, channel=3, data=[28, 127]),
   midi.NoteOnEvent(tick=132, channel=3, data=[28, 0]),
   midi.NoteOnEvent(tick=60, channel=3, data=[35, 127]),
   midi.NoteOnEvent(tick=264, channel=3, data=[35, 0]),
   midi.NoteOnEvent(tick=120, channel=3, data=[28, 127]),
   midi.NoteOnEvent(tick=132, channel=3, data=[28, 0]),
   midi.NoteOnEvent(tick=60, channel=3, data=[28, 127]),
   midi.NoteOnEvent(tick=132, channel=3, data=[28, 0]),
   midi.NoteOnEvent(tick=60, channel=3, data=[33, 127]),
   midi.NoteOnEvent(tick=64, channel=3, data=[33, 0]),
   midi.NoteOnEvent(tick=32, channel=3, data=[33, 127]),
   midi.NoteOnEvent(tick=64, channel=3, data=[33, 0]),
   midi.NoteOnEvent(tick=32, channel=3, data=[31, 127]),
   midi.NoteOnEvent(tick=396, channel=3, data=[31, 0]),
   midi.NoteOnEvent(tick=180, channel=3, data=[28, 127]),
   midi.NoteOnEvent(tick=132, channel=3, data=[28, 0]),
   midi.NoteOnEvent(tick=60, channel=3, data=[35, 127]),
   midi.NoteOnEvent(tick=132, channel=3, data=[35, 0]),
   midi.NoteOnEvent(tick=60, channel=3, data=[31, 127]),
   midi.NoteOnEvent(tick=64, channel=3, data=[31, 0]),
   midi.NoteOnEvent(tick=32, channel=3, data=[31, 127]),
   midi.NoteOnEvent(tick=64, channel=3, data=[31, 0]),
   midi.NoteOnEvent(tick=32, channel=3, data=[29, 127]),
   midi.NoteOnEvent(tick=520, channel=3, data=[29, 0]),
   midi.NoteOnEvent(tick=56, channel=3, data=[29, 127]),
   midi.NoteOnEvent(tick=132, channel=3, data=[29, 0]),
   midi.NoteOnEvent(tick=60, channel=3, data=[29, 127]),
   midi.NoteOnEvent(tick=132, channel=3, data=[29, 0]),
   midi.NoteOnEvent(tick=60, channel=3, data=[29, 127]),
   midi.NoteOnEvent(tick=132, channel=3, data=[29, 0]),
   midi.NoteOnEvent(tick=60, channel=3, data=[29, 127]),
   midi.NoteOnEvent(tick=132, channel=3, data=[29, 0]),
   midi.NoteOnEvent(tick=60, channel=3, data=[29, 127]),
   midi.NoteOnEvent(tick=132, channel=3, data=[29, 0]),
   midi.NoteOnEvent(tick=60, channel=3, data=[29, 127]),
   midi.NoteOnEvent(tick=132, channel=3, data=[29, 0]),
   midi.NoteOnEvent(tick=60, channel=3, data=[29, 127]),
   midi.NoteOnEvent(tick=132, channel=3, data=[29, 0]),
   midi.NoteOnEvent(tick=60, channel=3, data=[29, 127]),
   midi.NoteOnEvent(tick=132, channel=3, data=[29, 0]),
   midi.NoteOnEvent(tick=60, channel=3, data=[29, 127]),
   midi.NoteOnEvent(tick=132, channel=3, data=[29, 0]),
   midi.NoteOnEvent(tick=60, channel=3, data=[29, 127]),
   midi.NoteOnEvent(tick=132, channel=3, data=[29, 0]),
   midi.NoteOnEvent(tick=60, channel=3, data=[28, 127]),
   midi.NoteOnEvent(tick=132, channel=3, data=[28, 0]),
   midi.NoteOnEvent(tick=60, channel=3, data=[35, 127]),
   midi.NoteOnEvent(tick=132, channel=3, data=[35, 0]),
   midi.NoteOnEvent(tick=60, channel=3, data=[31, 127]),
   midi.NoteOnEvent(tick=64, channel=3, data=[31, 0]),
   midi.NoteOnEvent(tick=32, channel=3, data=[31, 127]),
   midi.NoteOnEvent(tick=64, channel=3, data=[31, 0]),
   midi.NoteOnEvent(tick=32, channel=3, data=[28, 127]),
   midi.NoteOnEvent(tick=384, channel=3, data=[28, 127]),
   midi.NoteOnEvent(tick=12, channel=3, data=[28, 0]),
   midi.NoteOnEvent(tick=120, channel=3, data=[28, 0]),
   midi.NoteOnEvent(tick=60, channel=3, data=[28, 127]),
   midi.NoteOnEvent(tick=132, channel=3, data=[28, 0]),
   midi.NoteOnEvent(tick=60, channel=3, data=[28, 127]),
   midi.NoteOnEvent(tick=132, channel=3, data=[28, 0]),
   midi.NoteOnEvent(tick=60, channel=3, data=[35, 127]),
   midi.NoteOnEvent(tick=264, channel=3, data=[35, 0]),
   midi.NoteOnEvent(tick=120, channel=3, data=[28, 127]),
   midi.NoteOnEvent(tick=132, channel=3, data=[28, 0]),
   midi.NoteOnEvent(tick=60, channel=3, data=[28, 127]),
   midi.NoteOnEvent(tick=132, channel=3, data=[28, 0]),
   midi.NoteOnEvent(tick=60, channel=3, data=[33, 127]),
   midi.NoteOnEvent(tick=64, channel=3, data=[33, 0]),
   midi.NoteOnEvent(tick=32, channel=3, data=[33, 127]),
   midi.NoteOnEvent(tick=64, channel=3, data=[33, 0]),
   midi.NoteOnEvent(tick=32, channel=3, data=[31, 127]),
   midi.NoteOnEvent(tick=400, channel=3, data=[31, 0]),
   midi.NoteOnEvent(tick=176, channel=3, data=[28, 127]),
   midi.NoteOnEvent(tick=132, channel=3, data=[28, 0]),
   midi.NoteOnEvent(tick=60, channel=3, data=[35, 127]),
   midi.NoteOnEvent(tick=132, channel=3, data=[35, 0]),
   midi.NoteOnEvent(tick=60, channel=3, data=[31, 127]),
   midi.NoteOnEvent(tick=64, channel=3, data=[31, 0]),
   midi.NoteOnEvent(tick=32, channel=3, data=[31, 127]),
   midi.NoteOnEvent(tick=64, channel=3, data=[31, 0]),
   midi.NoteOnEvent(tick=32, channel=3, data=[29, 127]),
   midi.NoteOnEvent(tick=520, channel=3, data=[29, 0]),
   midi.NoteOnEvent(tick=56, channel=3, data=[29, 127]),
   midi.NoteOnEvent(tick=132, channel=3, data=[29, 0]),
   midi.NoteOnEvent(tick=60, channel=3, data=[29, 127]),
   midi.NoteOnEvent(tick=132, channel=3, data=[29, 0]),
   midi.NoteOnEvent(tick=60, channel=3, data=[29, 127]),
   midi.NoteOnEvent(tick=132, channel=3, data=[29, 0]),
   midi.NoteOnEvent(tick=60, channel=3, data=[29, 127]),
   midi.NoteOnEvent(tick=132, channel=3, data=[29, 0]),
   midi.NoteOnEvent(tick=60, channel=3, data=[29, 127]),
   midi.NoteOnEvent(tick=132, channel=3, data=[29, 0]),
   midi.NoteOnEvent(tick=60, channel=3, data=[29, 127]),
   midi.NoteOnEvent(tick=132, channel=3, data=[29, 0]),
   midi.NoteOnEvent(tick=60, channel=3, data=[29, 127]),
   midi.NoteOnEvent(tick=132, channel=3, data=[29, 0]),
   midi.NoteOnEvent(tick=60, channel=3, data=[29, 127]),
   midi.NoteOnEvent(tick=132, channel=3, data=[29, 0]),
   midi.NoteOnEvent(tick=60, channel=3, data=[29, 127]),
   midi.NoteOnEvent(tick=132, channel=3, data=[29, 0]),
   midi.NoteOnEvent(tick=60, channel=3, data=[29, 127]),
   midi.NoteOnEvent(tick=132, channel=3, data=[29, 0]),
   midi.NoteOnEvent(tick=60, channel=3, data=[28, 127]),
   midi.NoteOnEvent(tick=132, channel=3, data=[28, 0]),
   midi.NoteOnEvent(tick=60, channel=3, data=[35, 127]),
   midi.NoteOnEvent(tick=132, channel=3, data=[35, 0]),
   midi.NoteOnEvent(tick=60, channel=3, data=[31, 127]),
   midi.NoteOnEvent(tick=64, channel=3, data=[31, 0]),
   midi.NoteOnEvent(tick=32, channel=3, data=[31, 127]),
   midi.NoteOnEvent(tick=64, channel=3, data=[31, 0]),
   midi.NoteOnEvent(tick=32, channel=3, data=[28, 127]),
   midi.NoteOnEvent(tick=384, channel=3, data=[28, 127]),
   midi.NoteOnEvent(tick=12, channel=3, data=[28, 0]),
   midi.NoteOnEvent(tick=120, channel=3, data=[28, 0]),
   midi.NoteOnEvent(tick=60, channel=3, data=[28, 127]),
   midi.NoteOnEvent(tick=132, channel=3, data=[28, 0]),
   midi.NoteOnEvent(tick=60, channel=3, data=[28, 127]),
   midi.NoteOnEvent(tick=132, channel=3, data=[28, 0]),
   midi.NoteOnEvent(tick=60, channel=3, data=[35, 127]),
   midi.NoteOnEvent(tick=264, channel=3, data=[35, 0]),
   midi.NoteOnEvent(tick=120, channel=3, data=[28, 127]),
   midi.NoteOnEvent(tick=132, channel=3, data=[28, 0]),
   midi.NoteOnEvent(tick=60, channel=3, data=[28, 127]),
   midi.NoteOnEvent(tick=132, channel=3, data=[28, 0]),
   midi.NoteOnEvent(tick=60, channel=3, data=[33, 127]),
   midi.NoteOnEvent(tick=64, channel=3, data=[33, 0]),
   midi.NoteOnEvent(tick=32, channel=3, data=[33, 127]),
   midi.NoteOnEvent(tick=64, channel=3, data=[33, 0]),
   midi.NoteOnEvent(tick=32, channel=3, data=[31, 127]),
   midi.NoteOnEvent(tick=400, channel=3, data=[31, 0]),
   midi.NoteOnEvent(tick=176, channel=3, data=[28, 127]),
   midi.NoteOnEvent(tick=132, channel=3, data=[28, 0]),
   midi.NoteOnEvent(tick=60, channel=3, data=[35, 127]),
   midi.NoteOnEvent(tick=132, channel=3, data=[35, 0]),
   midi.NoteOnEvent(tick=60, channel=3, data=[31, 127]),
   midi.NoteOnEvent(tick=64, channel=3, data=[31, 0]),
   midi.NoteOnEvent(tick=32, channel=3, data=[31, 127]),
   midi.NoteOnEvent(tick=64, channel=3, data=[31, 0]),
   midi.NoteOnEvent(tick=32, channel=3, data=[29, 127]),
   midi.NoteOnEvent(tick=520, channel=3, data=[29, 0]),
   midi.NoteOnEvent(tick=56, channel=3, data=[29, 127]),
   midi.NoteOnEvent(tick=132, channel=3, data=[29, 0]),
   midi.NoteOnEvent(tick=60, channel=3, data=[29, 127]),
   midi.NoteOnEvent(tick=132, channel=3, data=[29, 0]),
   midi.NoteOnEvent(tick=60, channel=3, data=[29, 127]),
   midi.NoteOnEvent(tick=132, channel=3, data=[29, 0]),
   midi.NoteOnEvent(tick=60, channel=3, data=[29, 127]),
   midi.NoteOnEvent(tick=132, channel=3, data=[29, 0]),
   midi.NoteOnEvent(tick=60, channel=3, data=[29, 127]),
   midi.NoteOnEvent(tick=132, channel=3, data=[29, 0]),
   midi.NoteOnEvent(tick=60, channel=3, data=[29, 127]),
   midi.NoteOnEvent(tick=132, channel=3, data=[29, 0]),
   midi.NoteOnEvent(tick=60, channel=3, data=[29, 127]),
   midi.NoteOnEvent(tick=132, channel=3, data=[29, 0]),
   midi.NoteOnEvent(tick=60, channel=3, data=[29, 127]),
   midi.NoteOnEvent(tick=132, channel=3, data=[29, 0]),
   midi.NoteOnEvent(tick=60, channel=3, data=[29, 127]),
   midi.NoteOnEvent(tick=132, channel=3, data=[29, 0]),
   midi.NoteOnEvent(tick=60, channel=3, data=[29, 127]),
   midi.NoteOnEvent(tick=132, channel=3, data=[29, 0]),
   midi.NoteOnEvent(tick=60, channel=3, data=[28, 127]),
   midi.NoteOnEvent(tick=132, channel=3, data=[28, 0]),
   midi.NoteOnEvent(tick=60, channel=3, data=[35, 127]),
   midi.NoteOnEvent(tick=132, channel=3, data=[35, 0]),
   midi.NoteOnEvent(tick=60, channel=3, data=[31, 127]),
   midi.NoteOnEvent(tick=64, channel=3, data=[31, 0]),
   midi.NoteOnEvent(tick=32, channel=3, data=[31, 127]),
   midi.NoteOnEvent(tick=64, channel=3, data=[31, 0]),
   midi.NoteOnEvent(tick=32, channel=3, data=[28, 127]),
   midi.NoteOnEvent(tick=384, channel=3, data=[28, 127]),
   midi.NoteOnEvent(tick=12, channel=3, data=[28, 0]),
   midi.NoteOnEvent(tick=120, channel=3, data=[28, 0]),
   midi.NoteOnEvent(tick=60, channel=3, data=[28, 127]),
   midi.NoteOnEvent(tick=132, channel=3, data=[28, 0]),
   midi.NoteOnEvent(tick=60, channel=3, data=[28, 127]),
   midi.NoteOnEvent(tick=132, channel=3, data=[28, 0]),
   midi.NoteOnEvent(tick=60, channel=3, data=[35, 127]),
   midi.NoteOnEvent(tick=264, channel=3, data=[35, 0]),
   midi.NoteOnEvent(tick=120, channel=3, data=[28, 127]),
   midi.NoteOnEvent(tick=132, channel=3, data=[28, 0]),
   midi.NoteOnEvent(tick=60, channel=3, data=[28, 127]),
   midi.NoteOnEvent(tick=132, channel=3, data=[28, 0]),
   midi.NoteOnEvent(tick=60, channel=3, data=[33, 127]),
   midi.NoteOnEvent(tick=64, channel=3, data=[33, 0]),
   midi.NoteOnEvent(tick=32, channel=3, data=[33, 127]),
   midi.NoteOnEvent(tick=64, channel=3, data=[33, 0]),
   midi.NoteOnEvent(tick=32, channel=3, data=[31, 127]),
   midi.NoteOnEvent(tick=400, channel=3, data=[31, 0]),
   midi.NoteOnEvent(tick=176, channel=3, data=[28, 127]),
   midi.NoteOnEvent(tick=132, channel=3, data=[28, 0]),
   midi.NoteOnEvent(tick=60, channel=3, data=[35, 127]),
   midi.NoteOnEvent(tick=132, channel=3, data=[35, 0]),
   midi.NoteOnEvent(tick=60, channel=3, data=[31, 127]),
   midi.NoteOnEvent(tick=64, channel=3, data=[31, 0]),
   midi.NoteOnEvent(tick=32, channel=3, data=[31, 127]),
   midi.NoteOnEvent(tick=64, channel=3, data=[31, 0]),
   midi.NoteOnEvent(tick=32, channel=3, data=[29, 127]),
   midi.NoteOnEvent(tick=520, channel=3, data=[29, 0]),
   midi.NoteOnEvent(tick=56, channel=3, data=[29, 127]),
   midi.NoteOnEvent(tick=132, channel=3, data=[29, 0]),
   midi.NoteOnEvent(tick=60, channel=3, data=[29, 127]),
   midi.NoteOnEvent(tick=132, channel=3, data=[29, 0]),
   midi.NoteOnEvent(tick=60, channel=3, data=[29, 127]),
   midi.NoteOnEvent(tick=132, channel=3, data=[29, 0]),
   midi.NoteOnEvent(tick=60, channel=3, data=[29, 127]),
   midi.NoteOnEvent(tick=132, channel=3, data=[29, 0]),
   midi.NoteOnEvent(tick=60, channel=3, data=[29, 127]),
   midi.NoteOnEvent(tick=132, channel=3, data=[29, 0]),
   midi.NoteOnEvent(tick=60, channel=3, data=[29, 127]),
   midi.NoteOnEvent(tick=132, channel=3, data=[29, 0]),
   midi.NoteOnEvent(tick=60, channel=3, data=[29, 127]),
   midi.NoteOnEvent(tick=132, channel=3, data=[29, 0]),
   midi.NoteOnEvent(tick=60, channel=3, data=[29, 127]),
   midi.NoteOnEvent(tick=132, channel=3, data=[29, 0]),
   midi.NoteOnEvent(tick=60, channel=3, data=[29, 127]),
   midi.NoteOnEvent(tick=132, channel=3, data=[29, 0]),
   midi.NoteOnEvent(tick=60, channel=3, data=[29, 127]),
   midi.NoteOnEvent(tick=132, channel=3, data=[29, 0]),
   midi.NoteOnEvent(tick=60, channel=3, data=[28, 127]),
   midi.NoteOnEvent(tick=132, channel=3, data=[28, 0]),
   midi.NoteOnEvent(tick=60, channel=3, data=[35, 127]),
   midi.NoteOnEvent(tick=132, channel=3, data=[35, 0]),
   midi.NoteOnEvent(tick=60, channel=3, data=[31, 127]),
   midi.NoteOnEvent(tick=64, channel=3, data=[31, 0]),
   midi.NoteOnEvent(tick=32, channel=3, data=[31, 127]),
   midi.NoteOnEvent(tick=64, channel=3, data=[31, 0]),
   midi.NoteOnEvent(tick=32, channel=3, data=[28, 127]),
   midi.NoteOnEvent(tick=384, channel=3, data=[28, 127]),
   midi.NoteOnEvent(tick=12, channel=3, data=[28, 0]),
   midi.NoteOnEvent(tick=120, channel=3, data=[28, 0]),
   midi.NoteOnEvent(tick=60, channel=3, data=[28, 127]),
   midi.NoteOnEvent(tick=132, channel=3, data=[28, 0]),
   midi.NoteOnEvent(tick=60, channel=3, data=[28, 127]),
   midi.NoteOnEvent(tick=132, channel=3, data=[28, 0]),
   midi.NoteOnEvent(tick=60, channel=3, data=[35, 127]),
   midi.NoteOnEvent(tick=264, channel=3, data=[35, 0]),
   midi.NoteOnEvent(tick=120, channel=3, data=[28, 127]),
   midi.NoteOnEvent(tick=132, channel=3, data=[28, 0]),
   midi.NoteOnEvent(tick=60, channel=3, data=[28, 127]),
   midi.NoteOnEvent(tick=132, channel=3, data=[28, 0]),
   midi.NoteOnEvent(tick=60, channel=3, data=[33, 127]),
   midi.NoteOnEvent(tick=64, channel=3, data=[33, 0]),
   midi.NoteOnEvent(tick=32, channel=3, data=[33, 127]),
   midi.NoteOnEvent(tick=64, channel=3, data=[33, 0]),
   midi.NoteOnEvent(tick=32, channel=3, data=[31, 127]),
   midi.NoteOnEvent(tick=400, channel=3, data=[31, 0]),
   midi.NoteOnEvent(tick=176, channel=3, data=[28, 127]),
   midi.NoteOnEvent(tick=132, channel=3, data=[28, 0]),
   midi.NoteOnEvent(tick=60, channel=3, data=[35, 127]),
   midi.NoteOnEvent(tick=132, channel=3, data=[35, 0]),
   midi.NoteOnEvent(tick=60, channel=3, data=[31, 127]),
   midi.NoteOnEvent(tick=64, channel=3, data=[31, 0]),
   midi.NoteOnEvent(tick=32, channel=3, data=[31, 127]),
   midi.NoteOnEvent(tick=64, channel=3, data=[31, 0]),
   midi.NoteOnEvent(tick=32, channel=3, data=[29, 127]),
   midi.NoteOnEvent(tick=520, channel=3, data=[29, 0]),
   midi.NoteOnEvent(tick=56, channel=3, data=[29, 127]),
   midi.NoteOnEvent(tick=132, channel=3, data=[29, 0]),
   midi.NoteOnEvent(tick=60, channel=3, data=[29, 127]),
   midi.NoteOnEvent(tick=132, channel=3, data=[29, 0]),
   midi.NoteOnEvent(tick=60, channel=3, data=[29, 127]),
   midi.NoteOnEvent(tick=132, channel=3, data=[29, 0]),
   midi.NoteOnEvent(tick=60, channel=3, data=[29, 127]),
   midi.NoteOnEvent(tick=132, channel=3, data=[29, 0]),
   midi.NoteOnEvent(tick=60, channel=3, data=[29, 127]),
   midi.NoteOnEvent(tick=132, channel=3, data=[29, 0]),
   midi.NoteOnEvent(tick=60, channel=3, data=[29, 127]),
   midi.NoteOnEvent(tick=132, channel=3, data=[29, 0]),
   midi.NoteOnEvent(tick=60, channel=3, data=[29, 127]),
   midi.NoteOnEvent(tick=132, channel=3, data=[29, 0]),
   midi.NoteOnEvent(tick=60, channel=3, data=[29, 127]),
   midi.NoteOnEvent(tick=132, channel=3, data=[29, 0]),
   midi.NoteOnEvent(tick=60, channel=3, data=[29, 127]),
   midi.NoteOnEvent(tick=132, channel=3, data=[29, 0]),
   midi.NoteOnEvent(tick=60, channel=3, data=[29, 127]),
   midi.NoteOnEvent(tick=132, channel=3, data=[29, 0]),
   midi.NoteOnEvent(tick=60, channel=3, data=[28, 127]),
   midi.NoteOnEvent(tick=132, channel=3, data=[28, 0]),
   midi.NoteOnEvent(tick=60, channel=3, data=[35, 127]),
   midi.NoteOnEvent(tick=132, channel=3, data=[35, 0]),
   midi.NoteOnEvent(tick=60, channel=3, data=[31, 127]),
   midi.NoteOnEvent(tick=64, channel=3, data=[31, 0]),
   midi.NoteOnEvent(tick=32, channel=3, data=[31, 127]),
   midi.NoteOnEvent(tick=64, channel=3, data=[31, 0]),
   midi.NoteOnEvent(tick=32, channel=3, data=[28, 127]),
   midi.NoteOnEvent(tick=384, channel=3, data=[28, 127]),
   midi.NoteOnEvent(tick=12, channel=3, data=[28, 0]),
   midi.NoteOnEvent(tick=120, channel=3, data=[28, 0]),
   midi.NoteOnEvent(tick=60, channel=3, data=[28, 127]),
   midi.NoteOnEvent(tick=132, channel=3, data=[28, 0]),
   midi.NoteOnEvent(tick=60, channel=3, data=[28, 127]),
   midi.NoteOnEvent(tick=132, channel=3, data=[28, 0]),
   midi.NoteOnEvent(tick=60, channel=3, data=[35, 127]),
   midi.NoteOnEvent(tick=264, channel=3, data=[35, 0]),
   midi.NoteOnEvent(tick=120, channel=3, data=[28, 127]),
   midi.NoteOnEvent(tick=132, channel=3, data=[28, 0]),
   midi.NoteOnEvent(tick=60, channel=3, data=[28, 127]),
   midi.NoteOnEvent(tick=132, channel=3, data=[28, 0]),
   midi.NoteOnEvent(tick=60, channel=3, data=[33, 127]),
   midi.NoteOnEvent(tick=64, channel=3, data=[33, 0]),
   midi.NoteOnEvent(tick=32, channel=3, data=[33, 127]),
   midi.NoteOnEvent(tick=64, channel=3, data=[33, 0]),
   midi.NoteOnEvent(tick=32, channel=3, data=[31, 127]),
   midi.NoteOnEvent(tick=400, channel=3, data=[31, 0]),
   midi.NoteOnEvent(tick=176, channel=3, data=[28, 127]),
   midi.NoteOnEvent(tick=132, channel=3, data=[28, 0]),
   midi.NoteOnEvent(tick=60, channel=3, data=[35, 127]),
   midi.NoteOnEvent(tick=132, channel=3, data=[35, 0]),
   midi.NoteOnEvent(tick=60, channel=3, data=[31, 127]),
   midi.NoteOnEvent(tick=64, channel=3, data=[31, 0]),
   midi.NoteOnEvent(tick=32, channel=3, data=[31, 127]),
   midi.NoteOnEvent(tick=64, channel=3, data=[31, 0]),
   midi.NoteOnEvent(tick=32, channel=3, data=[29, 127]),
   midi.NoteOnEvent(tick=520, channel=3, data=[29, 0]),
   midi.NoteOnEvent(tick=56, channel=3, data=[29, 127]),
   midi.NoteOnEvent(tick=132, channel=3, data=[29, 0]),
   midi.NoteOnEvent(tick=60, channel=3, data=[29, 127]),
   midi.NoteOnEvent(tick=132, channel=3, data=[29, 0]),
   midi.NoteOnEvent(tick=60, channel=3, data=[29, 127]),
   midi.NoteOnEvent(tick=132, channel=3, data=[29, 0]),
   midi.NoteOnEvent(tick=60, channel=3, data=[29, 127]),
   midi.NoteOnEvent(tick=132, channel=3, data=[29, 0]),
   midi.NoteOnEvent(tick=60, channel=3, data=[29, 127]),
   midi.NoteOnEvent(tick=132, channel=3, data=[29, 0]),
   midi.NoteOnEvent(tick=60, channel=3, data=[29, 127]),
   midi.NoteOnEvent(tick=132, channel=3, data=[29, 0]),
   midi.NoteOnEvent(tick=60, channel=3, data=[29, 127]),
   midi.NoteOnEvent(tick=132, channel=3, data=[29, 0]),
   midi.NoteOnEvent(tick=60, channel=3, data=[29, 127]),
   midi.NoteOnEvent(tick=132, channel=3, data=[29, 0]),
   midi.NoteOnEvent(tick=60, channel=3, data=[29, 127]),
   midi.NoteOnEvent(tick=132, channel=3, data=[29, 0]),
   midi.NoteOnEvent(tick=60, channel=3, data=[29, 127]),
   midi.NoteOnEvent(tick=132, channel=3, data=[29, 0]),
   midi.NoteOnEvent(tick=60, channel=3, data=[28, 127]),
   midi.NoteOnEvent(tick=132, channel=3, data=[28, 0]),
   midi.NoteOnEvent(tick=60, channel=3, data=[35, 127]),
   midi.NoteOnEvent(tick=132, channel=3, data=[35, 0]),
   midi.NoteOnEvent(tick=60, channel=3, data=[31, 127]),
   midi.NoteOnEvent(tick=64, channel=3, data=[31, 0]),
   midi.NoteOnEvent(tick=32, channel=3, data=[31, 127]),
   midi.NoteOnEvent(tick=64, channel=3, data=[31, 0]),
   midi.NoteOnEvent(tick=32, channel=3, data=[28, 127]),
   midi.NoteOnEvent(tick=384, channel=3, data=[28, 127]),
   midi.NoteOnEvent(tick=12, channel=3, data=[28, 0]),
   midi.NoteOnEvent(tick=120, channel=3, data=[28, 0]),
   midi.NoteOnEvent(tick=60, channel=3, data=[28, 127]),
   midi.NoteOnEvent(tick=132, channel=3, data=[28, 0]),
   midi.NoteOnEvent(tick=60, channel=3, data=[28, 127]),
   midi.NoteOnEvent(tick=132, channel=3, data=[28, 0]),
   midi.NoteOnEvent(tick=60, channel=3, data=[35, 127]),
   midi.NoteOnEvent(tick=264, channel=3, data=[35, 0]),
   midi.NoteOnEvent(tick=120, channel=3, data=[28, 127]),
   midi.NoteOnEvent(tick=132, channel=3, data=[28, 0]),
   midi.NoteOnEvent(tick=60, channel=3, data=[28, 127]),
   midi.NoteOnEvent(tick=132, channel=3, data=[28, 0]),
   midi.NoteOnEvent(tick=60, channel=3, data=[33, 127]),
   midi.NoteOnEvent(tick=64, channel=3, data=[33, 0]),
   midi.NoteOnEvent(tick=32, channel=3, data=[33, 127]),
   midi.NoteOnEvent(tick=64, channel=3, data=[33, 0]),
   midi.NoteOnEvent(tick=32, channel=3, data=[31, 127]),
   midi.NoteOnEvent(tick=400, channel=3, data=[31, 0]),
   midi.NoteOnEvent(tick=176, channel=3, data=[28, 127]),
   midi.NoteOnEvent(tick=132, channel=3, data=[28, 0]),
   midi.NoteOnEvent(tick=60, channel=3, data=[35, 127]),
   midi.NoteOnEvent(tick=132, channel=3, data=[35, 0]),
   midi.NoteOnEvent(tick=60, channel=3, data=[31, 127]),
   midi.NoteOnEvent(tick=64, channel=3, data=[31, 0]),
   midi.NoteOnEvent(tick=32, channel=3, data=[31, 127]),
   midi.NoteOnEvent(tick=64, channel=3, data=[31, 0]),
   midi.NoteOnEvent(tick=32, channel=3, data=[29, 127]),
   midi.NoteOnEvent(tick=520, channel=3, data=[29, 0]),
   midi.NoteOnEvent(tick=56, channel=3, data=[29, 127]),
   midi.NoteOnEvent(tick=132, channel=3, data=[29, 0]),
   midi.NoteOnEvent(tick=60, channel=3, data=[29, 127]),
   midi.NoteOnEvent(tick=132, channel=3, data=[29, 0]),
   midi.NoteOnEvent(tick=60, channel=3, data=[29, 127]),
   midi.NoteOnEvent(tick=132, channel=3, data=[29, 0]),
   midi.NoteOnEvent(tick=60, channel=3, data=[29, 127]),
   midi.NoteOnEvent(tick=132, channel=3, data=[29, 0]),
   midi.NoteOnEvent(tick=60, channel=3, data=[29, 127]),
   midi.NoteOnEvent(tick=132, channel=3, data=[29, 0]),
   midi.NoteOnEvent(tick=60, channel=3, data=[29, 127]),
   midi.NoteOnEvent(tick=132, channel=3, data=[29, 0]),
   midi.NoteOnEvent(tick=60, channel=3, data=[30, 127]),
   midi.NoteOnEvent(tick=132, channel=3, data=[30, 0]),
   midi.NoteOnEvent(tick=60, channel=3, data=[30, 127]),
   midi.NoteOnEvent(tick=132, channel=3, data=[30, 0]),
   midi.NoteOnEvent(tick=60, channel=3, data=[30, 127]),
   midi.NoteOnEvent(tick=132, channel=3, data=[30, 0]),
   midi.NoteOnEvent(tick=60, channel=3, data=[30, 127]),
   midi.NoteOnEvent(tick=132, channel=3, data=[30, 0]),
   midi.NoteOnEvent(tick=60, channel=3, data=[28, 127]),
   midi.NoteOnEvent(tick=132, channel=3, data=[28, 0]),
   midi.NoteOnEvent(tick=60, channel=3, data=[35, 127]),
   midi.NoteOnEvent(tick=132, channel=3, data=[35, 0]),
   midi.NoteOnEvent(tick=60, channel=3, data=[31, 127]),
   midi.NoteOnEvent(tick=64, channel=3, data=[31, 0]),
   midi.NoteOnEvent(tick=32, channel=3, data=[31, 127]),
   midi.NoteOnEvent(tick=64, channel=3, data=[31, 0]),
   midi.NoteOnEvent(tick=32, channel=3, data=[40, 127]),
   midi.NoteOnEvent(tick=132, channel=3, data=[40, 0]),
   midi.NoteOnEvent(tick=1788, channel=3, data=[28, 127]),
   midi.NoteOnEvent(tick=1612, channel=3, data=[28, 0]),
   midi.NoteOnEvent(tick=308, channel=3, data=[28, 127]),
   midi.NoteOnEvent(tick=132, channel=3, data=[28, 0]),
   midi.NoteOnEvent(tick=1788, channel=3, data=[40, 127]),
   midi.NoteOnEvent(tick=1072, channel=3, data=[40, 0]),
   midi.NoteOnEvent(tick=464, channel=3, data=[31, 127]),
   midi.NoteOnEvent(tick=132, channel=3, data=[31, 0]),
   midi.NoteOnEvent(tick=60, channel=3, data=[31, 127]),
   midi.NoteOnEvent(tick=132, channel=3, data=[31, 0]),
   midi.NoteOnEvent(tick=60, channel=3, data=[28, 127]),
   midi.NoteOnEvent(tick=132, channel=3, data=[28, 0]),
   midi.NoteOnEvent(tick=60, channel=3, data=[35, 127]),
   midi.NoteOnEvent(tick=132, channel=3, data=[35, 0]),
   midi.NoteOnEvent(tick=60, channel=3, data=[38, 127]),
   midi.NoteOnEvent(tick=64, channel=3, data=[38, 0]),
   midi.NoteOnEvent(tick=32, channel=3, data=[40, 127]),
   midi.NoteOnEvent(tick=64, channel=3, data=[40, 0]),
   midi.NoteOnEvent(tick=32, channel=3, data=[29, 127]),
   midi.NoteOnEvent(tick=132, channel=3, data=[29, 0]),
   midi.NoteOnEvent(tick=60, channel=3, data=[36, 127]),
   midi.NoteOnEvent(tick=132, channel=3, data=[36, 0]),
   midi.NoteOnEvent(tick=60, channel=3, data=[30, 127]),
   midi.NoteOnEvent(tick=132, channel=3, data=[30, 0]),
   midi.NoteOnEvent(tick=60, channel=3, data=[36, 127]),
   midi.NoteOnEvent(tick=132, channel=3, data=[36, 0]),
   midi.NoteOnEvent(tick=60, channel=3, data=[42, 127]),
   midi.NoteOnEvent(tick=64, channel=3, data=[42, 0]),
   midi.NoteOnEvent(tick=32, channel=3, data=[36, 127]),
   midi.NoteOnEvent(tick=64, channel=3, data=[36, 0]),
   midi.NoteOnEvent(tick=32, channel=3, data=[31, 127]),
   midi.NoteOnEvent(tick=132, channel=3, data=[31, 0]),
   midi.NoteOnEvent(tick=60, channel=3, data=[43, 127]),
   midi.NoteOnEvent(tick=132, channel=3, data=[43, 0]),
   midi.NoteOnEvent(tick=60, channel=3, data=[28, 127]),
   midi.NoteOnEvent(tick=132, channel=3, data=[28, 0]),
   midi.NoteOnEvent(tick=60, channel=3, data=[35, 127]),
   midi.NoteOnEvent(tick=132, channel=3, data=[35, 0]),
   midi.NoteOnEvent(tick=60, channel=3, data=[38, 127]),
   midi.NoteOnEvent(tick=64, channel=3, data=[38, 0]),
   midi.NoteOnEvent(tick=32, channel=3, data=[40, 127]),
   midi.NoteOnEvent(tick=64, channel=3, data=[40, 0]),
   midi.NoteOnEvent(tick=32, channel=3, data=[29, 127]),
   midi.NoteOnEvent(tick=132, channel=3, data=[29, 0]),
   midi.NoteOnEvent(tick=60, channel=3, data=[36, 127]),
   midi.NoteOnEvent(tick=132, channel=3, data=[36, 0]),
   midi.NoteOnEvent(tick=60, channel=3, data=[30, 127]),
   midi.NoteOnEvent(tick=132, channel=3, data=[30, 0]),
   midi.NoteOnEvent(tick=60, channel=3, data=[36, 127]),
   midi.NoteOnEvent(tick=132, channel=3, data=[36, 0]),
   midi.NoteOnEvent(tick=60, channel=3, data=[42, 127]),
   midi.NoteOnEvent(tick=64, channel=3, data=[42, 0]),
   midi.NoteOnEvent(tick=32, channel=3, data=[36, 127]),
   midi.NoteOnEvent(tick=64, channel=3, data=[36, 0]),
   midi.NoteOnEvent(tick=32, channel=3, data=[31, 127]),
   midi.NoteOnEvent(tick=132, channel=3, data=[31, 0]),
   midi.NoteOnEvent(tick=60, channel=3, data=[43, 127]),
   midi.NoteOnEvent(tick=132, channel=3, data=[43, 0]),
   midi.NoteOnEvent(tick=60, channel=3, data=[28, 127]),
   midi.NoteOnEvent(tick=132, channel=3, data=[28, 0]),
   midi.NoteOnEvent(tick=60, channel=3, data=[35, 127]),
   midi.NoteOnEvent(tick=132, channel=3, data=[35, 0]),
   midi.NoteOnEvent(tick=60, channel=3, data=[38, 127]),
   midi.NoteOnEvent(tick=64, channel=3, data=[38, 0]),
   midi.NoteOnEvent(tick=32, channel=3, data=[40, 127]),
   midi.NoteOnEvent(tick=64, channel=3, data=[40, 0]),
   midi.NoteOnEvent(tick=32, channel=3, data=[29, 127]),
   midi.NoteOnEvent(tick=132, channel=3, data=[29, 0]),
   midi.NoteOnEvent(tick=60, channel=3, data=[36, 127]),
   midi.NoteOnEvent(tick=132, channel=3, data=[36, 0]),
   midi.NoteOnEvent(tick=60, channel=3, data=[30, 127]),
   midi.NoteOnEvent(tick=132, channel=3, data=[30, 0]),
   midi.NoteOnEvent(tick=60, channel=3, data=[36, 127]),
   midi.NoteOnEvent(tick=132, channel=3, data=[36, 0]),
   midi.NoteOnEvent(tick=60, channel=3, data=[42, 127]),
   midi.NoteOnEvent(tick=64, channel=3, data=[42, 0]),
   midi.NoteOnEvent(tick=32, channel=3, data=[36, 127]),
   midi.NoteOnEvent(tick=64, channel=3, data=[36, 0]),
   midi.NoteOnEvent(tick=32, channel=3, data=[31, 127]),
   midi.NoteOnEvent(tick=132, channel=3, data=[31, 0]),
   midi.NoteOnEvent(tick=60, channel=3, data=[43, 127]),
   midi.NoteOnEvent(tick=132, channel=3, data=[43, 0]),
   midi.NoteOnEvent(tick=60, channel=3, data=[28, 127]),
   midi.NoteOnEvent(tick=132, channel=3, data=[28, 0]),
   midi.NoteOnEvent(tick=60, channel=3, data=[35, 127]),
   midi.NoteOnEvent(tick=132, channel=3, data=[35, 0]),
   midi.NoteOnEvent(tick=60, channel=3, data=[38, 127]),
   midi.NoteOnEvent(tick=64, channel=3, data=[38, 0]),
   midi.NoteOnEvent(tick=32, channel=3, data=[40, 127]),
   midi.NoteOnEvent(tick=64, channel=3, data=[40, 0]),
   midi.NoteOnEvent(tick=32, channel=3, data=[29, 127]),
   midi.NoteOnEvent(tick=132, channel=3, data=[29, 0]),
   midi.NoteOnEvent(tick=60, channel=3, data=[36, 127]),
   midi.NoteOnEvent(tick=132, channel=3, data=[36, 0]),
   midi.NoteOnEvent(tick=60, channel=3, data=[30, 127]),
   midi.NoteOnEvent(tick=132, channel=3, data=[30, 0]),
   midi.NoteOnEvent(tick=60, channel=3, data=[36, 127]),
   midi.NoteOnEvent(tick=132, channel=3, data=[36, 0]),
   midi.NoteOnEvent(tick=60, channel=3, data=[42, 127]),
   midi.NoteOnEvent(tick=64, channel=3, data=[42, 0]),
   midi.NoteOnEvent(tick=32, channel=3, data=[36, 127]),
   midi.NoteOnEvent(tick=64, channel=3, data=[36, 0]),
   midi.NoteOnEvent(tick=32, channel=3, data=[31, 127]),
   midi.NoteOnEvent(tick=132, channel=3, data=[31, 0]),
   midi.NoteOnEvent(tick=60, channel=3, data=[43, 127]),
   midi.NoteOnEvent(tick=132, channel=3, data=[43, 0]),
   midi.NoteOnEvent(tick=60, channel=3, data=[28, 127]),
   midi.NoteOnEvent(tick=132, channel=3, data=[28, 0]),
   midi.NoteOnEvent(tick=60, channel=3, data=[35, 127]),
   midi.NoteOnEvent(tick=132, channel=3, data=[35, 0]),
   midi.NoteOnEvent(tick=60, channel=3, data=[38, 127]),
   midi.NoteOnEvent(tick=64, channel=3, data=[38, 0]),
   midi.NoteOnEvent(tick=32, channel=3, data=[40, 127]),
   midi.NoteOnEvent(tick=64, channel=3, data=[40, 0]),
   midi.NoteOnEvent(tick=32, channel=3, data=[29, 127]),
   midi.NoteOnEvent(tick=132, channel=3, data=[29, 0]),
   midi.NoteOnEvent(tick=60, channel=3, data=[36, 127]),
   midi.NoteOnEvent(tick=132, channel=3, data=[36, 0]),
   midi.NoteOnEvent(tick=60, channel=3, data=[30, 127]),
   midi.NoteOnEvent(tick=132, channel=3, data=[30, 0]),
   midi.NoteOnEvent(tick=60, channel=3, data=[36, 127]),
   midi.NoteOnEvent(tick=132, channel=3, data=[36, 0]),
   midi.NoteOnEvent(tick=60, channel=3, data=[42, 127]),
   midi.NoteOnEvent(tick=64, channel=3, data=[42, 0]),
   midi.NoteOnEvent(tick=32, channel=3, data=[36, 127]),
   midi.NoteOnEvent(tick=64, channel=3, data=[36, 0]),
   midi.NoteOnEvent(tick=32, channel=3, data=[31, 127]),
   midi.NoteOnEvent(tick=132, channel=3, data=[31, 0]),
   midi.NoteOnEvent(tick=60, channel=3, data=[43, 127]),
   midi.NoteOnEvent(tick=132, channel=3, data=[43, 0]),
   midi.NoteOnEvent(tick=60, channel=3, data=[28, 127]),
   midi.NoteOnEvent(tick=132, channel=3, data=[28, 0]),
   midi.NoteOnEvent(tick=60, channel=3, data=[35, 127]),
   midi.NoteOnEvent(tick=132, channel=3, data=[35, 0]),
   midi.NoteOnEvent(tick=60, channel=3, data=[38, 127]),
   midi.NoteOnEvent(tick=64, channel=3, data=[38, 0]),
   midi.NoteOnEvent(tick=32, channel=3, data=[40, 127]),
   midi.NoteOnEvent(tick=64, channel=3, data=[40, 0]),
   midi.NoteOnEvent(tick=32, channel=3, data=[29, 127]),
   midi.NoteOnEvent(tick=132, channel=3, data=[29, 0]),
   midi.NoteOnEvent(tick=60, channel=3, data=[36, 127]),
   midi.NoteOnEvent(tick=132, channel=3, data=[36, 0]),
   midi.NoteOnEvent(tick=60, channel=3, data=[30, 127]),
   midi.NoteOnEvent(tick=132, channel=3, data=[30, 0]),
   midi.NoteOnEvent(tick=60, channel=3, data=[36, 127]),
   midi.NoteOnEvent(tick=132, channel=3, data=[36, 0]),
   midi.NoteOnEvent(tick=60, channel=3, data=[42, 127]),
   midi.NoteOnEvent(tick=64, channel=3, data=[42, 0]),
   midi.NoteOnEvent(tick=32, channel=3, data=[36, 127]),
   midi.NoteOnEvent(tick=64, channel=3, data=[36, 0]),
   midi.NoteOnEvent(tick=32, channel=3, data=[31, 127]),
   midi.NoteOnEvent(tick=132, channel=3, data=[31, 0]),
   midi.NoteOnEvent(tick=60, channel=3, data=[43, 127]),
   midi.NoteOnEvent(tick=132, channel=3, data=[43, 0]),
   midi.NoteOnEvent(tick=60, channel=3, data=[28, 127]),
   midi.NoteOnEvent(tick=132, channel=3, data=[28, 0]),
   midi.NoteOnEvent(tick=60, channel=3, data=[35, 127]),
   midi.NoteOnEvent(tick=132, channel=3, data=[35, 0]),
   midi.NoteOnEvent(tick=60, channel=3, data=[38, 127]),
   midi.NoteOnEvent(tick=64, channel=3, data=[38, 0]),
   midi.NoteOnEvent(tick=32, channel=3, data=[40, 127]),
   midi.NoteOnEvent(tick=64, channel=3, data=[40, 0]),
   midi.NoteOnEvent(tick=32, channel=3, data=[29, 127]),
   midi.NoteOnEvent(tick=132, channel=3, data=[29, 0]),
   midi.NoteOnEvent(tick=60, channel=3, data=[36, 127]),
   midi.NoteOnEvent(tick=132, channel=3, data=[36, 0]),
   midi.NoteOnEvent(tick=60, channel=3, data=[30, 127]),
   midi.NoteOnEvent(tick=132, channel=3, data=[30, 0]),
   midi.NoteOnEvent(tick=60, channel=3, data=[36, 127]),
   midi.NoteOnEvent(tick=132, channel=3, data=[36, 0]),
   midi.NoteOnEvent(tick=60, channel=3, data=[42, 127]),
   midi.NoteOnEvent(tick=64, channel=3, data=[42, 0]),
   midi.NoteOnEvent(tick=32, channel=3, data=[36, 127]),
   midi.NoteOnEvent(tick=64, channel=3, data=[36, 0]),
   midi.NoteOnEvent(tick=32, channel=3, data=[31, 127]),
   midi.NoteOnEvent(tick=132, channel=3, data=[31, 0]),
   midi.NoteOnEvent(tick=60, channel=3, data=[43, 127]),
   midi.NoteOnEvent(tick=132, channel=3, data=[43, 0]),
   midi.NoteOnEvent(tick=60, channel=3, data=[28, 127]),
   midi.NoteOnEvent(tick=132, channel=3, data=[28, 0]),
   midi.NoteOnEvent(tick=60, channel=3, data=[35, 127]),
   midi.NoteOnEvent(tick=132, channel=3, data=[35, 0]),
   midi.NoteOnEvent(tick=60, channel=3, data=[38, 127]),
   midi.NoteOnEvent(tick=64, channel=3, data=[38, 0]),
   midi.NoteOnEvent(tick=32, channel=3, data=[40, 127]),
   midi.NoteOnEvent(tick=64, channel=3, data=[40, 0]),
   midi.NoteOnEvent(tick=32, channel=3, data=[29, 127]),
   midi.NoteOnEvent(tick=132, channel=3, data=[29, 0]),
   midi.NoteOnEvent(tick=60, channel=3, data=[36, 127]),
   midi.NoteOnEvent(tick=132, channel=3, data=[36, 0]),
   midi.NoteOnEvent(tick=60, channel=3, data=[30, 127]),
   midi.NoteOnEvent(tick=132, channel=3, data=[30, 0]),
   midi.NoteOnEvent(tick=60, channel=3, data=[36, 127]),
   midi.NoteOnEvent(tick=132, channel=3, data=[36, 0]),
   midi.NoteOnEvent(tick=60, channel=3, data=[42, 127]),
   midi.NoteOnEvent(tick=64, channel=3, data=[42, 0]),
   midi.NoteOnEvent(tick=32, channel=3, data=[36, 127]),
   midi.NoteOnEvent(tick=64, channel=3, data=[36, 0]),
   midi.NoteOnEvent(tick=32, channel=3, data=[31, 127]),
   midi.NoteOnEvent(tick=132, channel=3, data=[31, 0]),
   midi.NoteOnEvent(tick=60, channel=3, data=[43, 127]),
   midi.NoteOnEvent(tick=132, channel=3, data=[43, 0]),
   midi.NoteOnEvent(tick=60, channel=3, data=[40, 127]),
   midi.NoteOnEvent(tick=132, channel=3, data=[40, 0]),
   midi.NoteOnEvent(tick=60, channel=3, data=[47, 127]),
   midi.NoteOnEvent(tick=132, channel=3, data=[47, 0]),
   midi.NoteOnEvent(tick=60, channel=3, data=[50, 127]),
   midi.NoteOnEvent(tick=64, channel=3, data=[50, 0]),
   midi.NoteOnEvent(tick=32, channel=3, data=[52, 127]),
   midi.NoteOnEvent(tick=64, channel=3, data=[52, 0]),
   midi.NoteOnEvent(tick=32, channel=3, data=[41, 127]),
   midi.NoteOnEvent(tick=132, channel=3, data=[41, 0]),
   midi.NoteOnEvent(tick=60, channel=3, data=[48, 127]),
   midi.NoteOnEvent(tick=132, channel=3, data=[48, 0]),
   midi.NoteOnEvent(tick=60, channel=3, data=[42, 127]),
   midi.NoteOnEvent(tick=132, channel=3, data=[42, 0]),
   midi.NoteOnEvent(tick=60, channel=3, data=[49, 127]),
   midi.NoteOnEvent(tick=132, channel=3, data=[49, 0]),
   midi.NoteOnEvent(tick=60, channel=3, data=[54, 127]),
   midi.NoteOnEvent(tick=64, channel=3, data=[54, 0]),
   midi.NoteOnEvent(tick=32, channel=3, data=[49, 127]),
   midi.NoteOnEvent(tick=64, channel=3, data=[49, 0]),
   midi.NoteOnEvent(tick=32, channel=3, data=[43, 127]),
   midi.NoteOnEvent(tick=132, channel=3, data=[43, 0]),
   midi.NoteOnEvent(tick=60, channel=3, data=[55, 127]),
   midi.NoteOnEvent(tick=132, channel=3, data=[55, 0]),
   midi.NoteOnEvent(tick=60, channel=3, data=[40, 127]),
   midi.NoteOnEvent(tick=132, channel=3, data=[40, 0]),
   midi.NoteOnEvent(tick=60, channel=3, data=[47, 127]),
   midi.NoteOnEvent(tick=132, channel=3, data=[47, 0]),
   midi.NoteOnEvent(tick=60, channel=3, data=[50, 127]),
   midi.NoteOnEvent(tick=64, channel=3, data=[50, 0]),
   midi.NoteOnEvent(tick=32, channel=3, data=[52, 127]),
   midi.NoteOnEvent(tick=64, channel=3, data=[52, 0]),
   midi.NoteOnEvent(tick=32, channel=3, data=[41, 127]),
   midi.NoteOnEvent(tick=132, channel=3, data=[41, 0]),
   midi.NoteOnEvent(tick=60, channel=3, data=[48, 127]),
   midi.NoteOnEvent(tick=132, channel=3, data=[48, 0]),
   midi.NoteOnEvent(tick=60, channel=3, data=[42, 127]),
   midi.NoteOnEvent(tick=132, channel=3, data=[42, 0]),
   midi.NoteOnEvent(tick=60, channel=3, data=[49, 127]),
   midi.NoteOnEvent(tick=132, channel=3, data=[49, 0]),
   midi.NoteOnEvent(tick=60, channel=3, data=[54, 127]),
   midi.NoteOnEvent(tick=64, channel=3, data=[54, 0]),
   midi.NoteOnEvent(tick=32, channel=3, data=[49, 127]),
   midi.NoteOnEvent(tick=64, channel=3, data=[49, 0]),
   midi.NoteOnEvent(tick=32, channel=3, data=[43, 127]),
   midi.NoteOnEvent(tick=132, channel=3, data=[43, 0]),
   midi.NoteOnEvent(tick=60, channel=3, data=[55, 127]),
   midi.NoteOnEvent(tick=132, channel=3, data=[55, 0]),
   midi.NoteOnEvent(tick=60, channel=3, data=[40, 127]),
   midi.NoteOnEvent(tick=132, channel=3, data=[40, 0]),
   midi.NoteOnEvent(tick=60, channel=3, data=[40, 127]),
   midi.NoteOnEvent(tick=132, channel=3, data=[40, 0]),
   midi.NoteOnEvent(tick=60, channel=3, data=[47, 127]),
   midi.NoteOnEvent(tick=64, channel=3, data=[47, 0]),
   midi.NoteOnEvent(tick=32, channel=3, data=[52, 127]),
   midi.NoteOnEvent(tick=64, channel=3, data=[52, 0]),
   midi.NoteOnEvent(tick=32, channel=3, data=[39, 127]),
   midi.NoteOnEvent(tick=132, channel=3, data=[39, 0]),
   midi.NoteOnEvent(tick=60, channel=3, data=[51, 127]),
   midi.NoteOnEvent(tick=132, channel=3, data=[51, 0]),
   midi.NoteOnEvent(tick=60, channel=3, data=[38, 127]),
   midi.NoteOnEvent(tick=132, channel=3, data=[38, 0]),
   midi.NoteOnEvent(tick=60, channel=3, data=[38, 127]),
   midi.NoteOnEvent(tick=132, channel=3, data=[38, 0]),
   midi.NoteOnEvent(tick=60, channel=3, data=[45, 127]),
   midi.NoteOnEvent(tick=64, channel=3, data=[45, 0]),
   midi.NoteOnEvent(tick=32, channel=3, data=[50, 127]),
   midi.NoteOnEvent(tick=64, channel=3, data=[50, 0]),
   midi.NoteOnEvent(tick=32, channel=3, data=[37, 127]),
   midi.NoteOnEvent(tick=132, channel=3, data=[37, 0]),
   midi.NoteOnEvent(tick=60, channel=3, data=[49, 127]),
   midi.NoteOnEvent(tick=132, channel=3, data=[49, 0]),
   midi.NoteOnEvent(tick=60, channel=3, data=[36, 127]),
   midi.NoteOnEvent(tick=132, channel=3, data=[36, 0]),
   midi.NoteOnEvent(tick=60, channel=3, data=[36, 127]),
   midi.NoteOnEvent(tick=132, channel=3, data=[36, 0]),
   midi.NoteOnEvent(tick=60, channel=3, data=[43, 127]),
   midi.NoteOnEvent(tick=64, channel=3, data=[43, 0]),
   midi.NoteOnEvent(tick=32, channel=3, data=[48, 127]),
   midi.NoteOnEvent(tick=64, channel=3, data=[48, 0]),
   midi.NoteOnEvent(tick=32, channel=3, data=[35, 127]),
   midi.NoteOnEvent(tick=132, channel=3, data=[35, 0]),
   midi.NoteOnEvent(tick=60, channel=3, data=[47, 127]),
   midi.NoteOnEvent(tick=132, channel=3, data=[47, 0]),
   midi.NoteOnEvent(tick=60, channel=3, data=[34, 127]),
   midi.NoteOnEvent(tick=132, channel=3, data=[34, 0]),
   midi.NoteOnEvent(tick=60, channel=3, data=[34, 127]),
   midi.NoteOnEvent(tick=64, channel=3, data=[34, 0]),
   midi.NoteOnEvent(tick=32, channel=3, data=[34, 127]),
   midi.NoteOnEvent(tick=64, channel=3, data=[34, 0]),
   midi.NoteOnEvent(tick=32, channel=3, data=[33, 127]),
   midi.NoteOnEvent(tick=132, channel=3, data=[33, 0]),
   midi.NoteOnEvent(tick=60, channel=3, data=[35, 127]),
   midi.NoteOnEvent(tick=132, channel=3, data=[35, 0]),
   midi.NoteOnEvent(tick=60, channel=3, data=[33, 127]),
   midi.NoteOnEvent(tick=132, channel=3, data=[33, 0]),
   midi.NoteOnEvent(tick=60, channel=3, data=[31, 127]),
   midi.NoteOnEvent(tick=132, channel=3, data=[31, 0]),
   midi.NoteOnEvent(tick=60, channel=3, data=[30, 127]),
   midi.NoteOnEvent(tick=132, channel=3, data=[30, 0]),
   midi.NoteOnEvent(tick=60, channel=3, data=[28, 127]),
   midi.NoteOnEvent(tick=536, channel=3, data=[28, 0]),
   midi.NoteOnEvent(tick=232, channel=3, data=[35, 127]),
   midi.NoteOnEvent(tick=132, channel=3, data=[35, 0]),
   midi.NoteOnEvent(tick=60, channel=3, data=[33, 127]),
   midi.NoteOnEvent(tick=132, channel=3, data=[33, 0]),
   midi.NoteOnEvent(tick=60, channel=3, data=[31, 127]),
   midi.NoteOnEvent(tick=132, channel=3, data=[31, 0]),
   midi.NoteOnEvent(tick=60, channel=3, data=[30, 127]),
   midi.NoteOnEvent(tick=132, channel=3, data=[30, 0]),
   midi.NoteOnEvent(tick=60, channel=3, data=[29, 127]),
   midi.NoteOnEvent(tick=536, channel=3, data=[29, 0]),
   midi.NoteOnEvent(tick=232, channel=3, data=[35, 127]),
   midi.NoteOnEvent(tick=132, channel=3, data=[35, 0]),
   midi.NoteOnEvent(tick=60, channel=3, data=[33, 127]),
   midi.NoteOnEvent(tick=132, channel=3, data=[33, 0]),
   midi.NoteOnEvent(tick=60, channel=3, data=[31, 127]),
   midi.NoteOnEvent(tick=132, channel=3, data=[31, 0]),
   midi.NoteOnEvent(tick=60, channel=3, data=[30, 127]),
   midi.NoteOnEvent(tick=132, channel=3, data=[30, 0]),
   midi.NoteOnEvent(tick=60, channel=3, data=[29, 127]),
   midi.NoteOnEvent(tick=132, channel=3, data=[29, 0]),
   midi.NoteOnEvent(tick=60, channel=3, data=[30, 127]),
   midi.NoteOnEvent(tick=400, channel=3, data=[30, 0]),
   midi.NoteOnEvent(tick=176, channel=3, data=[35, 127]),
   midi.NoteOnEvent(tick=132, channel=3, data=[35, 0]),
   midi.NoteOnEvent(tick=60, channel=3, data=[33, 127]),
   midi.NoteOnEvent(tick=132, channel=3, data=[33, 0]),
   midi.NoteOnEvent(tick=60, channel=3, data=[31, 127]),
   midi.NoteOnEvent(tick=132, channel=3, data=[31, 0]),
   midi.NoteOnEvent(tick=60, channel=3, data=[30, 127]),
   midi.NoteOnEvent(tick=132, channel=3, data=[30, 0]),
   midi.NoteOnEvent(tick=60, channel=3, data=[31, 127]),
   midi.NoteOnEvent(tick=536, channel=3, data=[31, 0]),
   midi.NoteOnEvent(tick=232, channel=3, data=[35, 127]),
   midi.NoteOnEvent(tick=132, channel=3, data=[35, 0]),
   midi.NoteOnEvent(tick=60, channel=3, data=[33, 127]),
   midi.NoteOnEvent(tick=132, channel=3, data=[33, 0]),
   midi.NoteOnEvent(tick=60, channel=3, data=[31, 127]),
   midi.NoteOnEvent(tick=132, channel=3, data=[31, 0]),
   midi.NoteOnEvent(tick=60, channel=3, data=[30, 127]),
   midi.NoteOnEvent(tick=132, channel=3, data=[30, 0]),
   midi.NoteOnEvent(tick=60, channel=3, data=[28, 127]),
   midi.NoteOnEvent(tick=536, channel=3, data=[28, 0]),
   midi.NoteOnEvent(tick=232, channel=3, data=[35, 127]),
   midi.NoteOnEvent(tick=132, channel=3, data=[35, 0]),
   midi.NoteOnEvent(tick=60, channel=3, data=[33, 127]),
   midi.NoteOnEvent(tick=132, channel=3, data=[33, 0]),
   midi.NoteOnEvent(tick=60, channel=3, data=[31, 127]),
   midi.NoteOnEvent(tick=132, channel=3, data=[31, 0]),
   midi.NoteOnEvent(tick=60, channel=3, data=[30, 127]),
   midi.NoteOnEvent(tick=132, channel=3, data=[30, 0]),
   midi.NoteOnEvent(tick=60, channel=3, data=[29, 127]),
   midi.NoteOnEvent(tick=536, channel=3, data=[29, 0]),
   midi.NoteOnEvent(tick=232, channel=3, data=[35, 127]),
   midi.NoteOnEvent(tick=132, channel=3, data=[35, 0]),
   midi.NoteOnEvent(tick=60, channel=3, data=[33, 127]),
   midi.NoteOnEvent(tick=132, channel=3, data=[33, 0]),
   midi.NoteOnEvent(tick=60, channel=3, data=[31, 127]),
   midi.NoteOnEvent(tick=132, channel=3, data=[31, 0]),
   midi.NoteOnEvent(tick=60, channel=3, data=[30, 127]),
   midi.NoteOnEvent(tick=132, channel=3, data=[30, 0]),
   midi.NoteOnEvent(tick=60, channel=3, data=[29, 127]),
   midi.NoteOnEvent(tick=132, channel=3, data=[29, 0]),
   midi.NoteOnEvent(tick=60, channel=3, data=[30, 127]),
   midi.NoteOnEvent(tick=400, channel=3, data=[30, 0]),
   midi.NoteOnEvent(tick=176, channel=3, data=[35, 127]),
   midi.NoteOnEvent(tick=132, channel=3, data=[35, 0]),
   midi.NoteOnEvent(tick=60, channel=3, data=[33, 127]),
   midi.NoteOnEvent(tick=132, channel=3, data=[33, 0]),
   midi.NoteOnEvent(tick=60, channel=3, data=[31, 127]),
   midi.NoteOnEvent(tick=132, channel=3, data=[31, 0]),
   midi.NoteOnEvent(tick=60, channel=3, data=[30, 127]),
   midi.NoteOnEvent(tick=132, channel=3, data=[30, 0]),
   midi.NoteOnEvent(tick=60, channel=3, data=[31, 127]),
   midi.NoteOnEvent(tick=536, channel=3, data=[31, 0]),
   midi.NoteOnEvent(tick=232, channel=3, data=[35, 127]),
   midi.NoteOnEvent(tick=132, channel=3, data=[35, 0]),
   midi.NoteOnEvent(tick=60, channel=3, data=[33, 127]),
   midi.NoteOnEvent(tick=132, channel=3, data=[33, 0]),
   midi.NoteOnEvent(tick=60, channel=3, data=[31, 127]),
   midi.NoteOnEvent(tick=132, channel=3, data=[31, 0]),
   midi.NoteOnEvent(tick=60, channel=3, data=[30, 127]),
   midi.NoteOnEvent(tick=132, channel=3, data=[30, 0]),
   midi.NoteOnEvent(tick=60, channel=3, data=[28, 127]),
   midi.NoteOnEvent(tick=132, channel=3, data=[28, 0]),
   midi.NoteOnEvent(tick=60, channel=3, data=[28, 127]),
   midi.NoteOnEvent(tick=132, channel=3, data=[28, 0]),
   midi.NoteOnEvent(tick=60, channel=3, data=[28, 127]),
   midi.NoteOnEvent(tick=132, channel=3, data=[28, 0]),
   midi.NoteOnEvent(tick=60, channel=3, data=[28, 127]),
   midi.NoteOnEvent(tick=132, channel=3, data=[28, 0]),
   midi.NoteOnEvent(tick=60, channel=3, data=[28, 127]),
   midi.NoteOnEvent(tick=132, channel=3, data=[28, 0]),
   midi.NoteOnEvent(tick=60, channel=3, data=[28, 127]),
   midi.NoteOnEvent(tick=132, channel=3, data=[28, 0]),
   midi.NoteOnEvent(tick=60, channel=3, data=[35, 127]),
   midi.NoteOnEvent(tick=132, channel=3, data=[35, 0]),
   midi.NoteOnEvent(tick=60, channel=3, data=[33, 127]),
   midi.NoteOnEvent(tick=132, channel=3, data=[33, 0]),
   midi.NoteOnEvent(tick=60, channel=3, data=[31, 127]),
   midi.NoteOnEvent(tick=132, channel=3, data=[31, 0]),
   midi.NoteOnEvent(tick=60, channel=3, data=[30, 127]),
   midi.NoteOnEvent(tick=132, channel=3, data=[30, 0]),
   midi.NoteOnEvent(tick=60, channel=3, data=[29, 127]),
   midi.NoteOnEvent(tick=132, channel=3, data=[29, 0]),
   midi.NoteOnEvent(tick=60, channel=3, data=[29, 127]),
   midi.NoteOnEvent(tick=132, channel=3, data=[29, 0]),
   midi.NoteOnEvent(tick=60, channel=3, data=[29, 127]),
   midi.NoteOnEvent(tick=132, channel=3, data=[29, 0]),
   midi.NoteOnEvent(tick=60, channel=3, data=[29, 127]),
   midi.NoteOnEvent(tick=132, channel=3, data=[29, 0]),
   midi.NoteOnEvent(tick=60, channel=3, data=[29, 127]),
   midi.NoteOnEvent(tick=132, channel=3, data=[29, 0]),
   midi.NoteOnEvent(tick=60, channel=3, data=[29, 127]),
   midi.NoteOnEvent(tick=132, channel=3, data=[29, 0]),
   midi.NoteOnEvent(tick=60, channel=3, data=[35, 127]),
   midi.NoteOnEvent(tick=132, channel=3, data=[35, 0]),
   midi.NoteOnEvent(tick=60, channel=3, data=[33, 127]),
   midi.NoteOnEvent(tick=132, channel=3, data=[33, 0]),
   midi.NoteOnEvent(tick=60, channel=3, data=[31, 127]),
   midi.NoteOnEvent(tick=132, channel=3, data=[31, 0]),
   midi.NoteOnEvent(tick=60, channel=3, data=[30, 127]),
   midi.NoteOnEvent(tick=132, channel=3, data=[30, 0]),
   midi.NoteOnEvent(tick=60, channel=3, data=[29, 127]),
   midi.NoteOnEvent(tick=132, channel=3, data=[29, 0]),
   midi.NoteOnEvent(tick=60, channel=3, data=[30, 127]),
   midi.NoteOnEvent(tick=132, channel=3, data=[30, 0]),
   midi.NoteOnEvent(tick=60, channel=3, data=[30, 127]),
   midi.NoteOnEvent(tick=132, channel=3, data=[30, 0]),
   midi.NoteOnEvent(tick=60, channel=3, data=[30, 127]),
   midi.NoteOnEvent(tick=132, channel=3, data=[30, 0]),
   midi.NoteOnEvent(tick=60, channel=3, data=[30, 127]),
   midi.NoteOnEvent(tick=132, channel=3, data=[30, 0]),
   midi.NoteOnEvent(tick=60, channel=3, data=[30, 127]),
   midi.NoteOnEvent(tick=132, channel=3, data=[30, 0]),
   midi.NoteOnEvent(tick=60, channel=3, data=[35, 127]),
   midi.NoteOnEvent(tick=132, channel=3, data=[35, 0]),
   midi.NoteOnEvent(tick=60, channel=3, data=[33, 127]),
   midi.NoteOnEvent(tick=132, channel=3, data=[33, 0]),
   midi.NoteOnEvent(tick=60, channel=3, data=[31, 127]),
   midi.NoteOnEvent(tick=132, channel=3, data=[31, 0]),
   midi.NoteOnEvent(tick=60, channel=3, data=[30, 127]),
   midi.NoteOnEvent(tick=132, channel=3, data=[30, 0]),
   midi.NoteOnEvent(tick=60, channel=3, data=[31, 127]),
   midi.NoteOnEvent(tick=132, channel=3, data=[31, 0]),
   midi.NoteOnEvent(tick=60, channel=3, data=[31, 127]),
   midi.NoteOnEvent(tick=132, channel=3, data=[31, 0]),
   midi.NoteOnEvent(tick=60, channel=3, data=[31, 127]),
   midi.NoteOnEvent(tick=132, channel=3, data=[31, 0]),
   midi.NoteOnEvent(tick=60, channel=3, data=[31, 127]),
   midi.NoteOnEvent(tick=132, channel=3, data=[31, 0]),
   midi.NoteOnEvent(tick=60, channel=3, data=[31, 127]),
   midi.NoteOnEvent(tick=132, channel=3, data=[31, 0]),
   midi.NoteOnEvent(tick=60, channel=3, data=[31, 127]),
   midi.NoteOnEvent(tick=132, channel=3, data=[31, 0]),
   midi.NoteOnEvent(tick=60, channel=3, data=[35, 127]),
   midi.NoteOnEvent(tick=132, channel=3, data=[35, 0]),
   midi.NoteOnEvent(tick=60, channel=3, data=[33, 127]),
   midi.NoteOnEvent(tick=132, channel=3, data=[33, 0]),
   midi.NoteOnEvent(tick=60, channel=3, data=[31, 127]),
   midi.NoteOnEvent(tick=132, channel=3, data=[31, 0]),
   midi.NoteOnEvent(tick=60, channel=3, data=[30, 127]),
   midi.NoteOnEvent(tick=132, channel=3, data=[30, 0]),
   midi.NoteOnEvent(tick=60, channel=3, data=[28, 127]),
   midi.NoteOnEvent(tick=132, channel=3, data=[28, 0]),
   midi.NoteOnEvent(tick=60, channel=3, data=[28, 127]),
   midi.NoteOnEvent(tick=132, channel=3, data=[28, 0]),
   midi.NoteOnEvent(tick=60, channel=3, data=[28, 127]),
   midi.NoteOnEvent(tick=132, channel=3, data=[28, 0]),
   midi.NoteOnEvent(tick=60, channel=3, data=[28, 127]),
   midi.NoteOnEvent(tick=132, channel=3, data=[28, 0]),
   midi.NoteOnEvent(tick=60, channel=3, data=[28, 127]),
   midi.NoteOnEvent(tick=132, channel=3, data=[28, 0]),
   midi.NoteOnEvent(tick=60, channel=3, data=[28, 127]),
   midi.NoteOnEvent(tick=132, channel=3, data=[28, 0]),
   midi.NoteOnEvent(tick=60, channel=3, data=[35, 127]),
   midi.NoteOnEvent(tick=132, channel=3, data=[35, 0]),
   midi.NoteOnEvent(tick=60, channel=3, data=[33, 127]),
   midi.NoteOnEvent(tick=132, channel=3, data=[33, 0]),
   midi.NoteOnEvent(tick=60, channel=3, data=[31, 127]),
   midi.NoteOnEvent(tick=132, channel=3, data=[31, 0]),
   midi.NoteOnEvent(tick=60, channel=3, data=[30, 127]),
   midi.NoteOnEvent(tick=132, channel=3, data=[30, 0]),
   midi.NoteOnEvent(tick=60, channel=3, data=[29, 127]),
   midi.NoteOnEvent(tick=132, channel=3, data=[29, 0]),
   midi.NoteOnEvent(tick=60, channel=3, data=[29, 127]),
   midi.NoteOnEvent(tick=132, channel=3, data=[29, 0]),
   midi.NoteOnEvent(tick=60, channel=3, data=[29, 127]),
   midi.NoteOnEvent(tick=132, channel=3, data=[29, 0]),
   midi.NoteOnEvent(tick=60, channel=3, data=[29, 127]),
   midi.NoteOnEvent(tick=132, channel=3, data=[29, 0]),
   midi.NoteOnEvent(tick=60, channel=3, data=[29, 127]),
   midi.NoteOnEvent(tick=132, channel=3, data=[29, 0]),
   midi.NoteOnEvent(tick=60, channel=3, data=[29, 127]),
   midi.NoteOnEvent(tick=132, channel=3, data=[29, 0]),
   midi.NoteOnEvent(tick=60, channel=3, data=[35, 127]),
   midi.NoteOnEvent(tick=132, channel=3, data=[35, 0]),
   midi.NoteOnEvent(tick=60, channel=3, data=[33, 127]),
   midi.NoteOnEvent(tick=132, channel=3, data=[33, 0]),
   midi.NoteOnEvent(tick=60, channel=3, data=[31, 127]),
   midi.NoteOnEvent(tick=132, channel=3, data=[31, 0]),
   midi.NoteOnEvent(tick=60, channel=3, data=[30, 127]),
   midi.NoteOnEvent(tick=132, channel=3, data=[30, 0]),
   midi.NoteOnEvent(tick=60, channel=3, data=[29, 127]),
   midi.NoteOnEvent(tick=132, channel=3, data=[29, 0]),
   midi.NoteOnEvent(tick=60, channel=3, data=[30, 127]),
   midi.NoteOnEvent(tick=132, channel=3, data=[30, 0]),
   midi.NoteOnEvent(tick=60, channel=3, data=[30, 127]),
   midi.NoteOnEvent(tick=132, channel=3, data=[30, 0]),
   midi.NoteOnEvent(tick=60, channel=3, data=[30, 127]),
   midi.NoteOnEvent(tick=132, channel=3, data=[30, 0]),
   midi.NoteOnEvent(tick=60, channel=3, data=[30, 127]),
   midi.NoteOnEvent(tick=132, channel=3, data=[30, 0]),
   midi.NoteOnEvent(tick=60, channel=3, data=[30, 127]),
   midi.NoteOnEvent(tick=132, channel=3, data=[30, 0]),
   midi.NoteOnEvent(tick=60, channel=3, data=[35, 127]),
   midi.NoteOnEvent(tick=132, channel=3, data=[35, 0]),
   midi.NoteOnEvent(tick=60, channel=3, data=[33, 127]),
   midi.NoteOnEvent(tick=132, channel=3, data=[33, 0]),
   midi.NoteOnEvent(tick=60, channel=3, data=[31, 127]),
   midi.NoteOnEvent(tick=132, channel=3, data=[31, 0]),
   midi.NoteOnEvent(tick=60, channel=3, data=[30, 127]),
   midi.NoteOnEvent(tick=132, channel=3, data=[30, 0]),
   midi.NoteOnEvent(tick=60, channel=3, data=[31, 127]),
   midi.NoteOnEvent(tick=132, channel=3, data=[31, 0]),
   midi.NoteOnEvent(tick=60, channel=3, data=[31, 127]),
   midi.NoteOnEvent(tick=132, channel=3, data=[31, 0]),
   midi.NoteOnEvent(tick=60, channel=3, data=[31, 127]),
   midi.NoteOnEvent(tick=132, channel=3, data=[31, 0]),
   midi.NoteOnEvent(tick=60, channel=3, data=[31, 127]),
   midi.NoteOnEvent(tick=132, channel=3, data=[31, 0]),
   midi.NoteOnEvent(tick=60, channel=3, data=[31, 127]),
   midi.NoteOnEvent(tick=132, channel=3, data=[31, 0]),
   midi.NoteOnEvent(tick=60, channel=3, data=[31, 127]),
   midi.NoteOnEvent(tick=132, channel=3, data=[31, 0]),
   midi.NoteOnEvent(tick=60, channel=3, data=[35, 127]),
   midi.NoteOnEvent(tick=132, channel=3, data=[35, 0]),
   midi.NoteOnEvent(tick=60, channel=3, data=[33, 127]),
   midi.NoteOnEvent(tick=132, channel=3, data=[33, 0]),
   midi.NoteOnEvent(tick=60, channel=3, data=[31, 127]),
   midi.NoteOnEvent(tick=132, channel=3, data=[31, 0]),
   midi.NoteOnEvent(tick=60, channel=3, data=[30, 127]),
   midi.NoteOnEvent(tick=132, channel=3, data=[30, 0]),
   midi.NoteOnEvent(tick=60, channel=3, data=[28, 127]),
   midi.NoteOnEvent(tick=132, channel=3, data=[28, 0]),
   midi.NoteOnEvent(tick=60, channel=3, data=[28, 127]),
   midi.NoteOnEvent(tick=132, channel=3, data=[28, 0]),
   midi.NoteOnEvent(tick=60, channel=3, data=[28, 127]),
   midi.NoteOnEvent(tick=132, channel=3, data=[28, 0]),
   midi.NoteOnEvent(tick=60, channel=3, data=[28, 127]),
   midi.NoteOnEvent(tick=132, channel=3, data=[28, 0]),
   midi.NoteOnEvent(tick=60, channel=3, data=[28, 127]),
   midi.NoteOnEvent(tick=132, channel=3, data=[28, 0]),
   midi.NoteOnEvent(tick=60, channel=3, data=[28, 127]),
   midi.NoteOnEvent(tick=132, channel=3, data=[28, 0]),
   midi.NoteOnEvent(tick=60, channel=3, data=[35, 127]),
   midi.NoteOnEvent(tick=132, channel=3, data=[35, 0]),
   midi.NoteOnEvent(tick=60, channel=3, data=[33, 127]),
   midi.NoteOnEvent(tick=132, channel=3, data=[33, 0]),
   midi.NoteOnEvent(tick=60, channel=3, data=[31, 127]),
   midi.NoteOnEvent(tick=132, channel=3, data=[31, 0]),
   midi.NoteOnEvent(tick=60, channel=3, data=[30, 127]),
   midi.NoteOnEvent(tick=132, channel=3, data=[30, 0]),
   midi.NoteOnEvent(tick=60, channel=3, data=[29, 127]),
   midi.NoteOnEvent(tick=132, channel=3, data=[29, 0]),
   midi.NoteOnEvent(tick=60, channel=3, data=[29, 127]),
   midi.NoteOnEvent(tick=132, channel=3, data=[29, 0]),
   midi.NoteOnEvent(tick=60, channel=3, data=[29, 127]),
   midi.NoteOnEvent(tick=132, channel=3, data=[29, 0]),
   midi.NoteOnEvent(tick=60, channel=3, data=[29, 127]),
   midi.NoteOnEvent(tick=132, channel=3, data=[29, 0]),
   midi.NoteOnEvent(tick=60, channel=3, data=[29, 127]),
   midi.NoteOnEvent(tick=132, channel=3, data=[29, 0]),
   midi.NoteOnEvent(tick=60, channel=3, data=[29, 127]),
   midi.NoteOnEvent(tick=132, channel=3, data=[29, 0]),
   midi.NoteOnEvent(tick=60, channel=3, data=[35, 127]),
   midi.NoteOnEvent(tick=132, channel=3, data=[35, 0]),
   midi.NoteOnEvent(tick=60, channel=3, data=[33, 127]),
   midi.NoteOnEvent(tick=132, channel=3, data=[33, 0]),
   midi.NoteOnEvent(tick=60, channel=3, data=[31, 127]),
   midi.NoteOnEvent(tick=132, channel=3, data=[31, 0]),
   midi.NoteOnEvent(tick=60, channel=3, data=[30, 127]),
   midi.NoteOnEvent(tick=132, channel=3, data=[30, 0]),
   midi.NoteOnEvent(tick=60, channel=3, data=[29, 127]),
   midi.NoteOnEvent(tick=132, channel=3, data=[29, 0]),
   midi.NoteOnEvent(tick=60, channel=3, data=[30, 127]),
   midi.NoteOnEvent(tick=132, channel=3, data=[30, 0]),
   midi.NoteOnEvent(tick=60, channel=3, data=[30, 127]),
   midi.NoteOnEvent(tick=132, channel=3, data=[30, 0]),
   midi.NoteOnEvent(tick=60, channel=3, data=[30, 127]),
   midi.NoteOnEvent(tick=132, channel=3, data=[30, 0]),
   midi.NoteOnEvent(tick=60, channel=3, data=[30, 127]),
   midi.NoteOnEvent(tick=132, channel=3, data=[30, 0]),
   midi.NoteOnEvent(tick=60, channel=3, data=[30, 127]),
   midi.NoteOnEvent(tick=132, channel=3, data=[30, 0]),
   midi.NoteOnEvent(tick=60, channel=3, data=[35, 127]),
   midi.NoteOnEvent(tick=132, channel=3, data=[35, 0]),
   midi.NoteOnEvent(tick=60, channel=3, data=[33, 127]),
   midi.NoteOnEvent(tick=132, channel=3, data=[33, 0]),
   midi.NoteOnEvent(tick=60, channel=3, data=[31, 127]),
   midi.NoteOnEvent(tick=132, channel=3, data=[31, 0]),
   midi.NoteOnEvent(tick=60, channel=3, data=[30, 127]),
   midi.NoteOnEvent(tick=132, channel=3, data=[30, 0]),
   midi.NoteOnEvent(tick=60, channel=3, data=[31, 127]),
   midi.NoteOnEvent(tick=132, channel=3, data=[31, 0]),
   midi.NoteOnEvent(tick=60, channel=3, data=[31, 127]),
   midi.NoteOnEvent(tick=132, channel=3, data=[31, 0]),
   midi.NoteOnEvent(tick=60, channel=3, data=[31, 127]),
   midi.NoteOnEvent(tick=132, channel=3, data=[31, 0]),
   midi.NoteOnEvent(tick=60, channel=3, data=[31, 127]),
   midi.NoteOnEvent(tick=132, channel=3, data=[31, 0]),
   midi.NoteOnEvent(tick=60, channel=3, data=[31, 127]),
   midi.NoteOnEvent(tick=132, channel=3, data=[31, 0]),
   midi.NoteOnEvent(tick=60, channel=3, data=[31, 127]),
   midi.NoteOnEvent(tick=132, channel=3, data=[31, 0]),
   midi.NoteOnEvent(tick=60, channel=3, data=[35, 127]),
   midi.NoteOnEvent(tick=132, channel=3, data=[35, 0]),
   midi.NoteOnEvent(tick=60, channel=3, data=[33, 127]),
   midi.NoteOnEvent(tick=132, channel=3, data=[33, 0]),
   midi.NoteOnEvent(tick=60, channel=3, data=[31, 127]),
   midi.NoteOnEvent(tick=132, channel=3, data=[31, 0]),
   midi.NoteOnEvent(tick=60, channel=3, data=[30, 127]),
   midi.NoteOnEvent(tick=132, channel=3, data=[30, 0]),
   midi.NoteOnEvent(tick=60, channel=3, data=[28, 127]),
   midi.NoteOnEvent(tick=132, channel=3, data=[28, 0]),
   midi.NoteOnEvent(tick=60, channel=3, data=[28, 127]),
   midi.NoteOnEvent(tick=132, channel=3, data=[28, 0]),
   midi.NoteOnEvent(tick=60, channel=3, data=[28, 127]),
   midi.NoteOnEvent(tick=132, channel=3, data=[28, 0]),
   midi.NoteOnEvent(tick=60, channel=3, data=[28, 127]),
   midi.NoteOnEvent(tick=132, channel=3, data=[28, 0]),
   midi.NoteOnEvent(tick=60, channel=3, data=[28, 127]),
   midi.NoteOnEvent(tick=132, channel=3, data=[28, 0]),
   midi.NoteOnEvent(tick=60, channel=3, data=[28, 127]),
   midi.NoteOnEvent(tick=132, channel=3, data=[28, 0]),
   midi.NoteOnEvent(tick=60, channel=3, data=[35, 127]),
   midi.NoteOnEvent(tick=132, channel=3, data=[35, 0]),
   midi.NoteOnEvent(tick=60, channel=3, data=[33, 127]),
   midi.NoteOnEvent(tick=132, channel=3, data=[33, 0]),
   midi.NoteOnEvent(tick=60, channel=3, data=[31, 127]),
   midi.NoteOnEvent(tick=132, channel=3, data=[31, 0]),
   midi.NoteOnEvent(tick=60, channel=3, data=[30, 127]),
   midi.NoteOnEvent(tick=132, channel=3, data=[30, 0]),
   midi.NoteOnEvent(tick=60, channel=3, data=[29, 127]),
   midi.NoteOnEvent(tick=132, channel=3, data=[29, 0]),
   midi.NoteOnEvent(tick=60, channel=3, data=[29, 127]),
   midi.NoteOnEvent(tick=132, channel=3, data=[29, 0]),
   midi.NoteOnEvent(tick=60, channel=3, data=[29, 127]),
   midi.NoteOnEvent(tick=132, channel=3, data=[29, 0]),
   midi.NoteOnEvent(tick=60, channel=3, data=[29, 127]),
   midi.NoteOnEvent(tick=132, channel=3, data=[29, 0]),
   midi.NoteOnEvent(tick=60, channel=3, data=[29, 127]),
   midi.NoteOnEvent(tick=132, channel=3, data=[29, 0]),
   midi.NoteOnEvent(tick=60, channel=3, data=[29, 127]),
   midi.NoteOnEvent(tick=132, channel=3, data=[29, 0]),
   midi.NoteOnEvent(tick=60, channel=3, data=[35, 127]),
   midi.NoteOnEvent(tick=132, channel=3, data=[35, 0]),
   midi.NoteOnEvent(tick=60, channel=3, data=[33, 127]),
   midi.NoteOnEvent(tick=132, channel=3, data=[33, 0]),
   midi.NoteOnEvent(tick=60, channel=3, data=[31, 127]),
   midi.NoteOnEvent(tick=132, channel=3, data=[31, 0]),
   midi.NoteOnEvent(tick=60, channel=3, data=[30, 127]),
   midi.NoteOnEvent(tick=132, channel=3, data=[30, 0]),
   midi.NoteOnEvent(tick=60, channel=3, data=[29, 127]),
   midi.NoteOnEvent(tick=132, channel=3, data=[29, 0]),
   midi.NoteOnEvent(tick=60, channel=3, data=[30, 127]),
   midi.NoteOnEvent(tick=132, channel=3, data=[30, 0]),
   midi.NoteOnEvent(tick=60, channel=3, data=[30, 127]),
   midi.NoteOnEvent(tick=132, channel=3, data=[30, 0]),
   midi.NoteOnEvent(tick=60, channel=3, data=[30, 127]),
   midi.NoteOnEvent(tick=132, channel=3, data=[30, 0]),
   midi.NoteOnEvent(tick=60, channel=3, data=[30, 127]),
   midi.NoteOnEvent(tick=132, channel=3, data=[30, 0]),
   midi.NoteOnEvent(tick=60, channel=3, data=[30, 127]),
   midi.NoteOnEvent(tick=132, channel=3, data=[30, 0]),
   midi.NoteOnEvent(tick=60, channel=3, data=[35, 127]),
   midi.NoteOnEvent(tick=132, channel=3, data=[35, 0]),
   midi.NoteOnEvent(tick=60, channel=3, data=[33, 127]),
   midi.NoteOnEvent(tick=132, channel=3, data=[33, 0]),
   midi.NoteOnEvent(tick=60, channel=3, data=[31, 127]),
   midi.NoteOnEvent(tick=132, channel=3, data=[31, 0]),
   midi.NoteOnEvent(tick=60, channel=3, data=[30, 127]),
   midi.NoteOnEvent(tick=132, channel=3, data=[30, 0]),
   midi.NoteOnEvent(tick=60, channel=3, data=[31, 127]),
   midi.NoteOnEvent(tick=132, channel=3, data=[31, 0]),
   midi.NoteOnEvent(tick=60, channel=3, data=[31, 127]),
   midi.NoteOnEvent(tick=132, channel=3, data=[31, 0]),
   midi.NoteOnEvent(tick=60, channel=3, data=[31, 127]),
   midi.NoteOnEvent(tick=132, channel=3, data=[31, 0]),
   midi.NoteOnEvent(tick=60, channel=3, data=[31, 127]),
   midi.NoteOnEvent(tick=132, channel=3, data=[31, 0]),
   midi.NoteOnEvent(tick=60, channel=3, data=[31, 127]),
   midi.NoteOnEvent(tick=132, channel=3, data=[31, 0]),
   midi.NoteOnEvent(tick=60, channel=3, data=[31, 127]),
   midi.NoteOnEvent(tick=132, channel=3, data=[31, 0]),
   midi.NoteOnEvent(tick=60, channel=3, data=[35, 127]),
   midi.NoteOnEvent(tick=132, channel=3, data=[35, 0]),
   midi.NoteOnEvent(tick=60, channel=3, data=[33, 127]),
   midi.NoteOnEvent(tick=132, channel=3, data=[33, 0]),
   midi.NoteOnEvent(tick=60, channel=3, data=[31, 127]),
   midi.NoteOnEvent(tick=132, channel=3, data=[31, 0]),
   midi.NoteOnEvent(tick=60, channel=3, data=[30, 127]),
   midi.NoteOnEvent(tick=132, channel=3, data=[30, 0]),
   midi.NoteOnEvent(tick=60, channel=3, data=[29, 127]),
   midi.NoteOnEvent(tick=268, channel=3, data=[29, 0]),
   midi.NoteOnEvent(tick=116, channel=3, data=[29, 127]),
   midi.NoteOnEvent(tick=132, channel=3, data=[29, 0]),
   midi.NoteOnEvent(tick=60, channel=3, data=[29, 127]),
   midi.NoteOnEvent(tick=132, channel=3, data=[29, 0]),
   midi.NoteOnEvent(tick=60, channel=3, data=[29, 127]),
   midi.NoteOnEvent(tick=132, channel=3, data=[29, 0]),
   midi.NoteOnEvent(tick=60, channel=3, data=[29, 127]),
   midi.NoteOnEvent(tick=132, channel=3, data=[29, 0]),
   midi.NoteOnEvent(tick=60, channel=3, data=[29, 127]),
   midi.NoteOnEvent(tick=132, channel=3, data=[29, 0]),
   midi.NoteOnEvent(tick=60, channel=3, data=[29, 127]),
   midi.NoteOnEvent(tick=132, channel=3, data=[29, 0]),
   midi.NoteOnEvent(tick=60, channel=3, data=[29, 127]),
   midi.NoteOnEvent(tick=132, channel=3, data=[29, 0]),
   midi.NoteOnEvent(tick=60, channel=3, data=[29, 127]),
   midi.NoteOnEvent(tick=132, channel=3, data=[29, 0]),
   midi.NoteOnEvent(tick=60, channel=3, data=[29, 127]),
   midi.NoteOnEvent(tick=132, channel=3, data=[29, 0]),
   midi.NoteOnEvent(tick=60, channel=3, data=[29, 127]),
   midi.NoteOnEvent(tick=132, channel=3, data=[29, 0]),
   midi.NoteOnEvent(tick=60, channel=3, data=[28, 127]),
   midi.NoteOnEvent(tick=132, channel=3, data=[28, 0]),
   midi.NoteOnEvent(tick=60, channel=3, data=[35, 127]),
   midi.NoteOnEvent(tick=132, channel=3, data=[35, 0]),
   midi.NoteOnEvent(tick=60, channel=3, data=[33, 127]),
   midi.NoteOnEvent(tick=64, channel=3, data=[33, 0]),
   midi.NoteOnEvent(tick=32, channel=3, data=[33, 127]),
   midi.NoteOnEvent(tick=64, channel=3, data=[33, 0]),
   midi.NoteOnEvent(tick=32, channel=3, data=[28, 127]),
   midi.NoteOnEvent(tick=472, channel=3, data=[28, 0]),
   midi.NoteOnEvent(tick=104, channel=3, data=[28, 127]),
   midi.NoteOnEvent(tick=192, channel=3, data=[28, 0]),
   midi.NoteOnEvent(tick=0, channel=3, data=[28, 127]),
   midi.NoteOnEvent(tick=96, channel=3, data=[28, 0]),
   midi.NoteOnEvent(tick=0, channel=3, data=[28, 127]),
   midi.NoteOnEvent(tick=96, channel=3, data=[28, 0]),
   midi.NoteOnEvent(tick=0, channel=3, data=[28, 127]),
   midi.NoteOnEvent(tick=192, channel=3, data=[28, 0]),
   midi.NoteOnEvent(tick=0, channel=3, data=[28, 127]),
   midi.NoteOnEvent(tick=96, channel=3, data=[28, 0]),
   midi.NoteOnEvent(tick=0, channel=3, data=[28, 127]),
   midi.NoteOnEvent(tick=96, channel=3, data=[28, 0]),
   midi.NoteOnEvent(tick=0, channel=3, data=[28, 127]),
   midi.NoteOnEvent(tick=192, channel=3, data=[28, 0]),
   midi.NoteOnEvent(tick=0, channel=3, data=[28, 127]),
   midi.NoteOnEvent(tick=96, channel=3, data=[28, 0]),
   midi.NoteOnEvent(tick=0, channel=3, data=[28, 127]),
   midi.NoteOnEvent(tick=96, channel=3, data=[28, 0]),
   midi.NoteOnEvent(tick=0, channel=3, data=[28, 127]),
   midi.NoteOnEvent(tick=192, channel=3, data=[28, 0]),
   midi.NoteOnEvent(tick=0, channel=3, data=[28, 127]),
   midi.NoteOnEvent(tick=96, channel=3, data=[28, 0]),
   midi.NoteOnEvent(tick=0, channel=3, data=[28, 127]),
   midi.NoteOnEvent(tick=96, channel=3, data=[28, 0]),
   midi.NoteOnEvent(tick=0, channel=3, data=[28, 127]),
   midi.NoteOnEvent(tick=192, channel=3, data=[28, 0]),
   midi.NoteOnEvent(tick=0, channel=3, data=[28, 127]),
   midi.NoteOnEvent(tick=96, channel=3, data=[28, 0]),
   midi.NoteOnEvent(tick=0, channel=3, data=[28, 127]),
   midi.NoteOnEvent(tick=96, channel=3, data=[28, 0]),
   midi.NoteOnEvent(tick=0, channel=3, data=[28, 127]),
   midi.NoteOnEvent(tick=192, channel=3, data=[28, 0]),
   midi.NoteOnEvent(tick=0, channel=3, data=[35, 127]),
   midi.NoteOnEvent(tick=192, channel=3, data=[35, 0]),
   midi.NoteOnEvent(tick=0, channel=3, data=[33, 127]),
   midi.NoteOnEvent(tick=96, channel=3, data=[33, 0]),
   midi.NoteOnEvent(tick=0, channel=3, data=[33, 127]),
   midi.NoteOnEvent(tick=96, channel=3, data=[33, 0]),
   midi.NoteOnEvent(tick=0, channel=3, data=[29, 127]),
   midi.NoteOnEvent(tick=544, channel=3, data=[29, 0]),
   midi.NoteOnEvent(tick=32, channel=3, data=[29, 127]),
   midi.NoteOnEvent(tick=132, channel=3, data=[29, 0]),
   midi.NoteOnEvent(tick=60, channel=3, data=[29, 127]),
   midi.NoteOnEvent(tick=132, channel=3, data=[29, 0]),
   midi.NoteOnEvent(tick=60, channel=3, data=[29, 127]),
   midi.NoteOnEvent(tick=132, channel=3, data=[29, 0]),
   midi.NoteOnEvent(tick=60, channel=3, data=[29, 127]),
   midi.NoteOnEvent(tick=132, channel=3, data=[29, 0]),
   midi.NoteOnEvent(tick=60, channel=3, data=[29, 127]),
   midi.NoteOnEvent(tick=132, channel=3, data=[29, 0]),
   midi.NoteOnEvent(tick=60, channel=3, data=[29, 127]),
   midi.NoteOnEvent(tick=132, channel=3, data=[29, 0]),
   midi.NoteOnEvent(tick=60, channel=3, data=[29, 127]),
   midi.NoteOnEvent(tick=132, channel=3, data=[29, 0]),
   midi.NoteOnEvent(tick=60, channel=3, data=[29, 127]),
   midi.NoteOnEvent(tick=132, channel=3, data=[29, 0]),
   midi.NoteOnEvent(tick=60, channel=3, data=[29, 127]),
   midi.NoteOnEvent(tick=132, channel=3, data=[29, 0]),
   midi.NoteOnEvent(tick=60, channel=3, data=[29, 127]),
   midi.NoteOnEvent(tick=132, channel=3, data=[29, 0]),
   midi.NoteOnEvent(tick=60, channel=3, data=[28, 127]),
   midi.NoteOnEvent(tick=132, channel=3, data=[28, 0]),
   midi.NoteOnEvent(tick=60, channel=3, data=[35, 127]),
   midi.NoteOnEvent(tick=132, channel=3, data=[35, 0]),
   midi.NoteOnEvent(tick=60, channel=3, data=[33, 127]),
   midi.NoteOnEvent(tick=64, channel=3, data=[33, 0]),
   midi.NoteOnEvent(tick=32, channel=3, data=[33, 127]),
   midi.NoteOnEvent(tick=64, channel=3, data=[33, 0]),
   midi.NoteOnEvent(tick=32, channel=3, data=[28, 127]),
   midi.NoteOnEvent(tick=472, channel=3, data=[28, 0]),
   midi.NoteOnEvent(tick=104, channel=3, data=[28, 127]),
   midi.NoteOnEvent(tick=192, channel=3, data=[28, 0]),
   midi.NoteOnEvent(tick=0, channel=3, data=[28, 127]),
   midi.NoteOnEvent(tick=96, channel=3, data=[28, 0]),
   midi.NoteOnEvent(tick=0, channel=3, data=[28, 127]),
   midi.NoteOnEvent(tick=96, channel=3, data=[28, 0]),
   midi.NoteOnEvent(tick=0, channel=3, data=[28, 127]),
   midi.NoteOnEvent(tick=192, channel=3, data=[28, 0]),
   midi.NoteOnEvent(tick=0, channel=3, data=[28, 127]),
   midi.NoteOnEvent(tick=96, channel=3, data=[28, 0]),
   midi.NoteOnEvent(tick=0, channel=3, data=[28, 127]),
   midi.NoteOnEvent(tick=96, channel=3, data=[28, 0]),
   midi.NoteOnEvent(tick=0, channel=3, data=[28, 127]),
   midi.NoteOnEvent(tick=192, channel=3, data=[28, 0]),
   midi.NoteOnEvent(tick=0, channel=3, data=[28, 127]),
   midi.NoteOnEvent(tick=96, channel=3, data=[28, 0]),
   midi.NoteOnEvent(tick=0, channel=3, data=[28, 127]),
   midi.NoteOnEvent(tick=96, channel=3, data=[28, 0]),
   midi.NoteOnEvent(tick=0, channel=3, data=[28, 127]),
   midi.NoteOnEvent(tick=192, channel=3, data=[28, 0]),
   midi.NoteOnEvent(tick=0, channel=3, data=[28, 127]),
   midi.NoteOnEvent(tick=96, channel=3, data=[28, 0]),
   midi.NoteOnEvent(tick=0, channel=3, data=[28, 127]),
   midi.NoteOnEvent(tick=96, channel=3, data=[28, 0]),
   midi.NoteOnEvent(tick=0, channel=3, data=[28, 127]),
   midi.NoteOnEvent(tick=192, channel=3, data=[28, 0]),
   midi.NoteOnEvent(tick=0, channel=3, data=[28, 127]),
   midi.NoteOnEvent(tick=96, channel=3, data=[28, 0]),
   midi.NoteOnEvent(tick=0, channel=3, data=[28, 127]),
   midi.NoteOnEvent(tick=96, channel=3, data=[28, 0]),
   midi.NoteOnEvent(tick=0, channel=3, data=[28, 127]),
   midi.NoteOnEvent(tick=192, channel=3, data=[28, 0]),
   midi.NoteOnEvent(tick=0, channel=3, data=[35, 127]),
   midi.NoteOnEvent(tick=192, channel=3, data=[35, 0]),
   midi.NoteOnEvent(tick=0, channel=3, data=[33, 127]),
   midi.NoteOnEvent(tick=96, channel=3, data=[33, 0]),
   midi.NoteOnEvent(tick=0, channel=3, data=[33, 127]),
   midi.NoteOnEvent(tick=96, channel=3, data=[33, 0]),
   midi.NoteOnEvent(tick=0, channel=3, data=[29, 127]),
   midi.NoteOnEvent(tick=544, channel=3, data=[29, 0]),
   midi.NoteOnEvent(tick=32, channel=3, data=[29, 127]),
   midi.NoteOnEvent(tick=132, channel=3, data=[29, 0]),
   midi.NoteOnEvent(tick=60, channel=3, data=[29, 127]),
   midi.NoteOnEvent(tick=132, channel=3, data=[29, 0]),
   midi.NoteOnEvent(tick=60, channel=3, data=[29, 127]),
   midi.NoteOnEvent(tick=132, channel=3, data=[29, 0]),
   midi.NoteOnEvent(tick=60, channel=3, data=[29, 127]),
   midi.NoteOnEvent(tick=132, channel=3, data=[29, 0]),
   midi.NoteOnEvent(tick=60, channel=3, data=[29, 127]),
   midi.NoteOnEvent(tick=132, channel=3, data=[29, 0]),
   midi.NoteOnEvent(tick=60, channel=3, data=[29, 127]),
   midi.NoteOnEvent(tick=132, channel=3, data=[29, 0]),
   midi.NoteOnEvent(tick=60, channel=3, data=[29, 127]),
   midi.NoteOnEvent(tick=132, channel=3, data=[29, 0]),
   midi.NoteOnEvent(tick=60, channel=3, data=[29, 127]),
   midi.NoteOnEvent(tick=132, channel=3, data=[29, 0]),
   midi.NoteOnEvent(tick=60, channel=3, data=[29, 127]),
   midi.NoteOnEvent(tick=132, channel=3, data=[29, 0]),
   midi.NoteOnEvent(tick=60, channel=3, data=[29, 127]),
   midi.NoteOnEvent(tick=132, channel=3, data=[29, 0]),
   midi.NoteOnEvent(tick=60, channel=3, data=[28, 127]),
   midi.NoteOnEvent(tick=132, channel=3, data=[28, 0]),
   midi.NoteOnEvent(tick=60, channel=3, data=[35, 127]),
   midi.NoteOnEvent(tick=132, channel=3, data=[35, 0]),
   midi.NoteOnEvent(tick=60, channel=3, data=[33, 127]),
   midi.NoteOnEvent(tick=64, channel=3, data=[33, 0]),
   midi.NoteOnEvent(tick=32, channel=3, data=[33, 127]),
   midi.NoteOnEvent(tick=64, channel=3, data=[33, 0]),
   midi.NoteOnEvent(tick=32, channel=3, data=[28, 127]),
   midi.NoteOnEvent(tick=472, channel=3, data=[28, 0]),
   midi.NoteOnEvent(tick=104, channel=3, data=[28, 127]),
   midi.NoteOnEvent(tick=192, channel=3, data=[28, 0]),
   midi.NoteOnEvent(tick=0, channel=3, data=[28, 127]),
   midi.NoteOnEvent(tick=96, channel=3, data=[28, 0]),
   midi.NoteOnEvent(tick=0, channel=3, data=[28, 127]),
   midi.NoteOnEvent(tick=96, channel=3, data=[28, 0]),
   midi.NoteOnEvent(tick=0, channel=3, data=[28, 127]),
   midi.NoteOnEvent(tick=192, channel=3, data=[28, 0]),
   midi.NoteOnEvent(tick=0, channel=3, data=[28, 127]),
   midi.NoteOnEvent(tick=96, channel=3, data=[28, 0]),
   midi.NoteOnEvent(tick=0, channel=3, data=[28, 127]),
   midi.NoteOnEvent(tick=96, channel=3, data=[28, 0]),
   midi.NoteOnEvent(tick=0, channel=3, data=[28, 127]),
   midi.NoteOnEvent(tick=192, channel=3, data=[28, 0]),
   midi.NoteOnEvent(tick=0, channel=3, data=[28, 127]),
   midi.NoteOnEvent(tick=96, channel=3, data=[28, 0]),
   midi.NoteOnEvent(tick=0, channel=3, data=[28, 127]),
   midi.NoteOnEvent(tick=96, channel=3, data=[28, 0]),
   midi.NoteOnEvent(tick=0, channel=3, data=[28, 127]),
   midi.NoteOnEvent(tick=192, channel=3, data=[28, 0]),
   midi.NoteOnEvent(tick=0, channel=3, data=[28, 127]),
   midi.NoteOnEvent(tick=96, channel=3, data=[28, 0]),
   midi.NoteOnEvent(tick=0, channel=3, data=[28, 127]),
   midi.NoteOnEvent(tick=96, channel=3, data=[28, 0]),
   midi.NoteOnEvent(tick=0, channel=3, data=[28, 127]),
   midi.NoteOnEvent(tick=192, channel=3, data=[28, 0]),
   midi.NoteOnEvent(tick=0, channel=3, data=[28, 127]),
   midi.NoteOnEvent(tick=96, channel=3, data=[28, 0]),
   midi.NoteOnEvent(tick=0, channel=3, data=[28, 127]),
   midi.NoteOnEvent(tick=96, channel=3, data=[28, 0]),
   midi.NoteOnEvent(tick=0, channel=3, data=[28, 127]),
   midi.NoteOnEvent(tick=192, channel=3, data=[28, 0]),
   midi.NoteOnEvent(tick=0, channel=3, data=[35, 127]),
   midi.NoteOnEvent(tick=192, channel=3, data=[35, 0]),
   midi.NoteOnEvent(tick=0, channel=3, data=[33, 127]),
   midi.NoteOnEvent(tick=96, channel=3, data=[33, 0]),
   midi.NoteOnEvent(tick=0, channel=3, data=[33, 127]),
   midi.NoteOnEvent(tick=96, channel=3, data=[33, 0]),
   midi.NoteOnEvent(tick=0, channel=3, data=[29, 127]),
   midi.NoteOnEvent(tick=544, channel=3, data=[29, 0]),
   midi.NoteOnEvent(tick=32, channel=3, data=[29, 127]),
   midi.NoteOnEvent(tick=132, channel=3, data=[29, 0]),
   midi.NoteOnEvent(tick=60, channel=3, data=[29, 127]),
   midi.NoteOnEvent(tick=132, channel=3, data=[29, 0]),
   midi.NoteOnEvent(tick=60, channel=3, data=[29, 127]),
   midi.NoteOnEvent(tick=132, channel=3, data=[29, 0]),
   midi.NoteOnEvent(tick=60, channel=3, data=[29, 127]),
   midi.NoteOnEvent(tick=132, channel=3, data=[29, 0]),
   midi.NoteOnEvent(tick=60, channel=3, data=[29, 127]),
   midi.NoteOnEvent(tick=132, channel=3, data=[29, 0]),
   midi.NoteOnEvent(tick=60, channel=3, data=[29, 127]),
   midi.NoteOnEvent(tick=132, channel=3, data=[29, 0]),
   midi.NoteOnEvent(tick=60, channel=3, data=[29, 127]),
   midi.NoteOnEvent(tick=132, channel=3, data=[29, 0]),
   midi.NoteOnEvent(tick=60, channel=3, data=[29, 127]),
   midi.NoteOnEvent(tick=132, channel=3, data=[29, 0]),
   midi.NoteOnEvent(tick=60, channel=3, data=[29, 127]),
   midi.NoteOnEvent(tick=132, channel=3, data=[29, 0]),
   midi.NoteOnEvent(tick=60, channel=3, data=[29, 127]),
   midi.NoteOnEvent(tick=132, channel=3, data=[29, 0]),
   midi.NoteOnEvent(tick=60, channel=3, data=[28, 127]),
   midi.NoteOnEvent(tick=132, channel=3, data=[28, 0]),
   midi.NoteOnEvent(tick=60, channel=3, data=[35, 127]),
   midi.NoteOnEvent(tick=132, channel=3, data=[35, 0]),
   midi.NoteOnEvent(tick=60, channel=3, data=[33, 127]),
   midi.NoteOnEvent(tick=64, channel=3, data=[33, 0]),
   midi.NoteOnEvent(tick=32, channel=3, data=[33, 127]),
   midi.NoteOnEvent(tick=64, channel=3, data=[33, 0]),
   midi.NoteOnEvent(tick=32, channel=3, data=[28, 127]),
   midi.NoteOnEvent(tick=472, channel=3, data=[28, 0]),
   midi.NoteOnEvent(tick=104, channel=3, data=[28, 127]),
   midi.NoteOnEvent(tick=192, channel=3, data=[28, 0]),
   midi.NoteOnEvent(tick=0, channel=3, data=[28, 127]),
   midi.NoteOnEvent(tick=96, channel=3, data=[28, 0]),
   midi.NoteOnEvent(tick=0, channel=3, data=[28, 127]),
   midi.NoteOnEvent(tick=96, channel=3, data=[28, 0]),
   midi.NoteOnEvent(tick=0, channel=3, data=[28, 127]),
   midi.NoteOnEvent(tick=192, channel=3, data=[28, 0]),
   midi.NoteOnEvent(tick=0, channel=3, data=[28, 127]),
   midi.NoteOnEvent(tick=96, channel=3, data=[28, 0]),
   midi.NoteOnEvent(tick=0, channel=3, data=[28, 127]),
   midi.NoteOnEvent(tick=96, channel=3, data=[28, 0]),
   midi.NoteOnEvent(tick=0, channel=3, data=[28, 127]),
   midi.NoteOnEvent(tick=192, channel=3, data=[28, 0]),
   midi.NoteOnEvent(tick=0, channel=3, data=[28, 127]),
   midi.NoteOnEvent(tick=96, channel=3, data=[28, 0]),
   midi.NoteOnEvent(tick=0, channel=3, data=[28, 127]),
   midi.NoteOnEvent(tick=96, channel=3, data=[28, 0]),
   midi.NoteOnEvent(tick=0, channel=3, data=[28, 127]),
   midi.NoteOnEvent(tick=192, channel=3, data=[28, 0]),
   midi.NoteOnEvent(tick=0, channel=3, data=[28, 127]),
   midi.NoteOnEvent(tick=96, channel=3, data=[28, 0]),
   midi.NoteOnEvent(tick=0, channel=3, data=[28, 127]),
   midi.NoteOnEvent(tick=96, channel=3, data=[28, 0]),
   midi.NoteOnEvent(tick=0, channel=3, data=[28, 127]),
   midi.NoteOnEvent(tick=192, channel=3, data=[28, 0]),
   midi.NoteOnEvent(tick=0, channel=3, data=[28, 127]),
   midi.NoteOnEvent(tick=96, channel=3, data=[28, 0]),
   midi.NoteOnEvent(tick=0, channel=3, data=[28, 127]),
   midi.NoteOnEvent(tick=96, channel=3, data=[28, 0]),
   midi.NoteOnEvent(tick=0, channel=3, data=[28, 127]),
   midi.NoteOnEvent(tick=192, channel=3, data=[28, 0]),
   midi.NoteOnEvent(tick=0, channel=3, data=[35, 127]),
   midi.NoteOnEvent(tick=192, channel=3, data=[35, 0]),
   midi.NoteOnEvent(tick=0, channel=3, data=[33, 127]),
   midi.NoteOnEvent(tick=96, channel=3, data=[33, 0]),
   midi.NoteOnEvent(tick=0, channel=3, data=[33, 127]),
   midi.NoteOnEvent(tick=96, channel=3, data=[33, 0]),
   midi.NoteOnEvent(tick=0, channel=3, data=[29, 127]),
   midi.NoteOnEvent(tick=2444, channel=3, data=[29, 0]),
   midi.NoteOnEvent(tick=52, channel=3, data=[28, 127]),
   midi.NoteOnEvent(tick=132, channel=3, data=[28, 0]),
   midi.NoteOnEvent(tick=60, channel=3, data=[35, 127]),
   midi.NoteOnEvent(tick=132, channel=3, data=[35, 0]),
   midi.NoteOnEvent(tick=60, channel=3, data=[33, 127]),
   midi.NoteOnEvent(tick=64, channel=3, data=[33, 0]),
   midi.NoteOnEvent(tick=32, channel=3, data=[33, 127]),
   midi.NoteOnEvent(tick=64, channel=3, data=[33, 0]),
   midi.NoteOnEvent(tick=32, channel=3, data=[28, 127]),
   midi.NoteOnEvent(tick=536, channel=3, data=[28, 0]),
   midi.NoteOnEvent(tick=40, channel=3, data=[28, 127]),
   midi.NoteOnEvent(tick=132, channel=3, data=[28, 0]),
   midi.NoteOnEvent(tick=60, channel=3, data=[28, 127]),
   midi.NoteOnEvent(tick=64, channel=3, data=[28, 0]),
   midi.NoteOnEvent(tick=32, channel=3, data=[28, 127]),
   midi.NoteOnEvent(tick=64, channel=3, data=[28, 0]),
   midi.NoteOnEvent(tick=32, channel=3, data=[28, 127]),
   midi.NoteOnEvent(tick=132, channel=3, data=[28, 0]),
   midi.NoteOnEvent(tick=60, channel=3, data=[28, 127]),
   midi.NoteOnEvent(tick=64, channel=3, data=[28, 0]),
   midi.NoteOnEvent(tick=32, channel=3, data=[28, 127]),
   midi.NoteOnEvent(tick=64, channel=3, data=[28, 0]),
   midi.NoteOnEvent(tick=32, channel=3, data=[28, 127]),
   midi.NoteOnEvent(tick=132, channel=3, data=[28, 0]),
   midi.NoteOnEvent(tick=60, channel=3, data=[28, 127]),
   midi.NoteOnEvent(tick=64, channel=3, data=[28, 0]),
   midi.NoteOnEvent(tick=32, channel=3, data=[28, 127]),
   midi.NoteOnEvent(tick=64, channel=3, data=[28, 0]),
   midi.NoteOnEvent(tick=32, channel=3, data=[28, 127]),
   midi.NoteOnEvent(tick=132, channel=3, data=[28, 0]),
   midi.NoteOnEvent(tick=60, channel=3, data=[28, 127]),
   midi.NoteOnEvent(tick=64, channel=3, data=[28, 0]),
   midi.NoteOnEvent(tick=32, channel=3, data=[28, 127]),
   midi.NoteOnEvent(tick=64, channel=3, data=[28, 0]),
   midi.NoteOnEvent(tick=32, channel=3, data=[28, 127]),
   midi.NoteOnEvent(tick=132, channel=3, data=[28, 0]),
   midi.NoteOnEvent(tick=60, channel=3, data=[28, 127]),
   midi.NoteOnEvent(tick=64, channel=3, data=[28, 0]),
   midi.NoteOnEvent(tick=32, channel=3, data=[28, 127]),
   midi.NoteOnEvent(tick=64, channel=3, data=[28, 0]),
   midi.NoteOnEvent(tick=32, channel=3, data=[28, 127]),
   midi.NoteOnEvent(tick=132, channel=3, data=[28, 0]),
   midi.NoteOnEvent(tick=60, channel=3, data=[35, 127]),
   midi.NoteOnEvent(tick=132, channel=3, data=[35, 0]),
   midi.NoteOnEvent(tick=60, channel=3, data=[33, 127]),
   midi.NoteOnEvent(tick=64, channel=3, data=[33, 0]),
   midi.NoteOnEvent(tick=32, channel=3, data=[33, 127]),
   midi.NoteOnEvent(tick=64, channel=3, data=[33, 0]),
   midi.NoteOnEvent(tick=32, channel=3, data=[29, 127]),
   midi.NoteOnEvent(tick=2456, channel=3, data=[29, 0]),
   midi.NoteOnEvent(tick=40, channel=3, data=[28, 127]),
   midi.NoteOnEvent(tick=132, channel=3, data=[28, 0]),
   midi.NoteOnEvent(tick=60, channel=3, data=[35, 127]),
   midi.NoteOnEvent(tick=132, channel=3, data=[35, 0]),
   midi.NoteOnEvent(tick=60, channel=3, data=[33, 127]),
   midi.NoteOnEvent(tick=64, channel=3, data=[33, 0]),
   midi.NoteOnEvent(tick=32, channel=3, data=[33, 127]),
   midi.NoteOnEvent(tick=64, channel=3, data=[33, 0]),
   midi.NoteOnEvent(tick=32, channel=3, data=[28, 127]),
   midi.NoteOnEvent(tick=536, channel=3, data=[28, 0]),
   midi.NoteOnEvent(tick=40, channel=3, data=[28, 127]),
   midi.NoteOnEvent(tick=132, channel=3, data=[28, 0]),
   midi.NoteOnEvent(tick=60, channel=3, data=[28, 127]),
   midi.NoteOnEvent(tick=64, channel=3, data=[28, 0]),
   midi.NoteOnEvent(tick=32, channel=3, data=[28, 127]),
   midi.NoteOnEvent(tick=64, channel=3, data=[28, 0]),
   midi.NoteOnEvent(tick=32, channel=3, data=[28, 127]),
   midi.NoteOnEvent(tick=132, channel=3, data=[28, 0]),
   midi.NoteOnEvent(tick=60, channel=3, data=[28, 127]),
   midi.NoteOnEvent(tick=64, channel=3, data=[28, 0]),
   midi.NoteOnEvent(tick=32, channel=3, data=[28, 127]),
   midi.NoteOnEvent(tick=64, channel=3, data=[28, 0]),
   midi.NoteOnEvent(tick=32, channel=3, data=[28, 127]),
   midi.NoteOnEvent(tick=132, channel=3, data=[28, 0]),
   midi.NoteOnEvent(tick=60, channel=3, data=[28, 127]),
   midi.NoteOnEvent(tick=64, channel=3, data=[28, 0]),
   midi.NoteOnEvent(tick=32, channel=3, data=[28, 127]),
   midi.NoteOnEvent(tick=64, channel=3, data=[28, 0]),
   midi.NoteOnEvent(tick=32, channel=3, data=[28, 127]),
   midi.NoteOnEvent(tick=132, channel=3, data=[28, 0]),
   midi.NoteOnEvent(tick=60, channel=3, data=[28, 127]),
   midi.NoteOnEvent(tick=64, channel=3, data=[28, 0]),
   midi.NoteOnEvent(tick=32, channel=3, data=[28, 127]),
   midi.NoteOnEvent(tick=64, channel=3, data=[28, 0]),
   midi.NoteOnEvent(tick=32, channel=3, data=[28, 127]),
   midi.NoteOnEvent(tick=132, channel=3, data=[28, 0]),
   midi.NoteOnEvent(tick=60, channel=3, data=[28, 127]),
   midi.NoteOnEvent(tick=64, channel=3, data=[28, 0]),
   midi.NoteOnEvent(tick=32, channel=3, data=[28, 127]),
   midi.NoteOnEvent(tick=64, channel=3, data=[28, 0]),
   midi.NoteOnEvent(tick=32, channel=3, data=[28, 127]),
   midi.NoteOnEvent(tick=132, channel=3, data=[28, 0]),
   midi.NoteOnEvent(tick=60, channel=3, data=[35, 127]),
   midi.NoteOnEvent(tick=132, channel=3, data=[35, 0]),
   midi.NoteOnEvent(tick=60, channel=3, data=[33, 127]),
   midi.NoteOnEvent(tick=64, channel=3, data=[33, 0]),
   midi.NoteOnEvent(tick=32, channel=3, data=[33, 127]),
   midi.NoteOnEvent(tick=64, channel=3, data=[33, 0]),
   midi.NoteOnEvent(tick=32, channel=3, data=[29, 127]),
   midi.NoteOnEvent(tick=2456, channel=3, data=[29, 0]),
   midi.NoteOnEvent(tick=40, channel=3, data=[28, 127]),
   midi.NoteOnEvent(tick=132, channel=3, data=[28, 0]),
   midi.NoteOnEvent(tick=60, channel=3, data=[35, 127]),
   midi.NoteOnEvent(tick=132, channel=3, data=[35, 0]),
   midi.NoteOnEvent(tick=60, channel=3, data=[33, 127]),
   midi.NoteOnEvent(tick=64, channel=3, data=[33, 0]),
   midi.NoteOnEvent(tick=32, channel=3, data=[33, 127]),
   midi.NoteOnEvent(tick=64, channel=3, data=[33, 0]),
   midi.NoteOnEvent(tick=32, channel=3, data=[28, 127]),
   midi.NoteOnEvent(tick=536, channel=3, data=[28, 0]),
   midi.NoteOnEvent(tick=40, channel=3, data=[28, 127]),
   midi.NoteOnEvent(tick=132, channel=3, data=[28, 0]),
   midi.NoteOnEvent(tick=60, channel=3, data=[28, 127]),
   midi.NoteOnEvent(tick=64, channel=3, data=[28, 0]),
   midi.NoteOnEvent(tick=32, channel=3, data=[28, 127]),
   midi.NoteOnEvent(tick=64, channel=3, data=[28, 0]),
   midi.NoteOnEvent(tick=32, channel=3, data=[28, 127]),
   midi.NoteOnEvent(tick=132, channel=3, data=[28, 0]),
   midi.NoteOnEvent(tick=60, channel=3, data=[28, 127]),
   midi.NoteOnEvent(tick=64, channel=3, data=[28, 0]),
   midi.NoteOnEvent(tick=32, channel=3, data=[28, 127]),
   midi.NoteOnEvent(tick=64, channel=3, data=[28, 0]),
   midi.NoteOnEvent(tick=32, channel=3, data=[28, 127]),
   midi.NoteOnEvent(tick=132, channel=3, data=[28, 0]),
   midi.NoteOnEvent(tick=60, channel=3, data=[28, 127]),
   midi.NoteOnEvent(tick=64, channel=3, data=[28, 0]),
   midi.NoteOnEvent(tick=32, channel=3, data=[28, 127]),
   midi.NoteOnEvent(tick=64, channel=3, data=[28, 0]),
   midi.NoteOnEvent(tick=32, channel=3, data=[28, 127]),
   midi.NoteOnEvent(tick=132, channel=3, data=[28, 0]),
   midi.NoteOnEvent(tick=60, channel=3, data=[28, 127]),
   midi.NoteOnEvent(tick=64, channel=3, data=[28, 0]),
   midi.NoteOnEvent(tick=32, channel=3, data=[28, 127]),
   midi.NoteOnEvent(tick=64, channel=3, data=[28, 0]),
   midi.NoteOnEvent(tick=32, channel=3, data=[28, 127]),
   midi.NoteOnEvent(tick=132, channel=3, data=[28, 0]),
   midi.NoteOnEvent(tick=60, channel=3, data=[28, 127]),
   midi.NoteOnEvent(tick=64, channel=3, data=[28, 0]),
   midi.NoteOnEvent(tick=32, channel=3, data=[28, 127]),
   midi.NoteOnEvent(tick=64, channel=3, data=[28, 0]),
   midi.NoteOnEvent(tick=32, channel=3, data=[28, 127]),
   midi.NoteOnEvent(tick=132, channel=3, data=[28, 0]),
   midi.NoteOnEvent(tick=60, channel=3, data=[35, 127]),
   midi.NoteOnEvent(tick=132, channel=3, data=[35, 0]),
   midi.NoteOnEvent(tick=60, channel=3, data=[33, 127]),
   midi.NoteOnEvent(tick=64, channel=3, data=[33, 0]),
   midi.NoteOnEvent(tick=32, channel=3, data=[33, 127]),
   midi.NoteOnEvent(tick=64, channel=3, data=[33, 0]),
   midi.NoteOnEvent(tick=32, channel=3, data=[29, 127]),
   midi.NoteOnEvent(tick=2456, channel=3, data=[29, 0]),
   midi.NoteOnEvent(tick=40, channel=3, data=[28, 127]),
   midi.NoteOnEvent(tick=132, channel=3, data=[28, 0]),
   midi.NoteOnEvent(tick=60, channel=3, data=[35, 127]),
   midi.NoteOnEvent(tick=132, channel=3, data=[35, 0]),
   midi.NoteOnEvent(tick=60, channel=3, data=[33, 127]),
   midi.NoteOnEvent(tick=64, channel=3, data=[33, 0]),
   midi.NoteOnEvent(tick=32, channel=3, data=[33, 127]),
   midi.NoteOnEvent(tick=64, channel=3, data=[33, 0]),
   midi.NoteOnEvent(tick=32, channel=3, data=[28, 127]),
   midi.NoteOnEvent(tick=152, channel=3, data=[28, 0]),
   midi.NoteOnEvent(tick=3112, channel=3, data=[28, 127]),
   midi.NoteOnEvent(tick=268, channel=3, data=[28, 0]),
   midi.NoteOnEvent(tick=2804, channel=3, data=[28, 127]),
   midi.NoteOnEvent(tick=268, channel=3, data=[28, 0]),
   midi.NoteOnEvent(tick=116, channel=3, data=[35, 127]),
   midi.NoteOnEvent(tick=268, channel=3, data=[35, 0]),
   midi.NoteOnEvent(tick=308, channel=3, data=[34, 127]),
   midi.NoteOnEvent(tick=132, channel=3, data=[34, 0]),
   midi.NoteOnEvent(tick=444, channel=3, data=[35, 127]),
   midi.NoteOnEvent(tick=268, channel=3, data=[35, 0]),
   midi.NoteOnEvent(tick=308, channel=3, data=[40, 127]),
   midi.NoteOnEvent(tick=268, channel=3, data=[40, 0]),
   midi.NoteOnEvent(tick=116, channel=3, data=[39, 127]),
   midi.NoteOnEvent(tick=132, channel=3, data=[39, 0]),
   midi.NoteOnEvent(tick=60, channel=3, data=[36, 127]),
   midi.NoteOnEvent(tick=132, channel=3, data=[36, 0]),
   midi.NoteOnEvent(tick=60, channel=3, data=[35, 127]),
   midi.NoteOnEvent(tick=132, channel=3, data=[35, 0]),
   midi.NoteOnEvent(tick=60, channel=3, data=[28, 127]),
   midi.NoteOnEvent(tick=268, channel=3, data=[28, 0]),
   midi.NoteOnEvent(tick=116, channel=3, data=[35, 127]),
   midi.NoteOnEvent(tick=268, channel=3, data=[35, 0]),
   midi.NoteOnEvent(tick=308, channel=3, data=[34, 127]),
   midi.NoteOnEvent(tick=132, channel=3, data=[34, 0]),
   midi.NoteOnEvent(tick=444, channel=3, data=[35, 127]),
   midi.NoteOnEvent(tick=268, channel=3, data=[35, 0]),
   midi.NoteOnEvent(tick=308, channel=3, data=[40, 127]),
   midi.NoteOnEvent(tick=268, channel=3, data=[40, 0]),
   midi.NoteOnEvent(tick=116, channel=3, data=[39, 127]),
   midi.NoteOnEvent(tick=132, channel=3, data=[39, 0]),
   midi.NoteOnEvent(tick=60, channel=3, data=[36, 127]),
   midi.NoteOnEvent(tick=132, channel=3, data=[36, 0]),
   midi.NoteOnEvent(tick=60, channel=3, data=[35, 127]),
   midi.NoteOnEvent(tick=132, channel=3, data=[35, 0]),
   midi.NoteOnEvent(tick=60, channel=3, data=[28, 127]),
   midi.NoteOnEvent(tick=64, channel=3, data=[28, 0]),
   midi.NoteOnEvent(tick=32, channel=3, data=[28, 127]),
   midi.NoteOnEvent(tick=64, channel=3, data=[28, 0]),
   midi.NoteOnEvent(tick=32, channel=3, data=[28, 127]),
   midi.NoteOnEvent(tick=64, channel=3, data=[28, 0]),
   midi.NoteOnEvent(tick=32, channel=3, data=[28, 127]),
   midi.NoteOnEvent(tick=64, channel=3, data=[28, 0]),
   midi.NoteOnEvent(tick=32, channel=3, data=[35, 127]),
   midi.NoteOnEvent(tick=64, channel=3, data=[35, 0]),
   midi.NoteOnEvent(tick=32, channel=3, data=[35, 127]),
   midi.NoteOnEvent(tick=64, channel=3, data=[35, 0]),
   midi.NoteOnEvent(tick=32, channel=3, data=[28, 127]),
   midi.NoteOnEvent(tick=64, channel=3, data=[28, 0]),
   midi.NoteOnEvent(tick=32, channel=3, data=[28, 127]),
   midi.NoteOnEvent(tick=64, channel=3, data=[28, 0]),
   midi.NoteOnEvent(tick=32, channel=3, data=[28, 127]),
   midi.NoteOnEvent(tick=64, channel=3, data=[28, 0]),
   midi.NoteOnEvent(tick=32, channel=3, data=[28, 127]),
   midi.NoteOnEvent(tick=64, channel=3, data=[28, 0]),
   midi.NoteOnEvent(tick=32, channel=3, data=[34, 127]),
   midi.NoteOnEvent(tick=64, channel=3, data=[34, 0]),
   midi.NoteOnEvent(tick=32, channel=3, data=[34, 127]),
   midi.NoteOnEvent(tick=64, channel=3, data=[34, 0]),
   midi.NoteOnEvent(tick=32, channel=3, data=[28, 127]),
   midi.NoteOnEvent(tick=64, channel=3, data=[28, 0]),
   midi.NoteOnEvent(tick=32, channel=3, data=[28, 127]),
   midi.NoteOnEvent(tick=64, channel=3, data=[28, 0]),
   midi.NoteOnEvent(tick=32, channel=3, data=[28, 127]),
   midi.NoteOnEvent(tick=64, channel=3, data=[28, 0]),
   midi.NoteOnEvent(tick=32, channel=3, data=[28, 127]),
   midi.NoteOnEvent(tick=64, channel=3, data=[28, 0]),
   midi.NoteOnEvent(tick=32, channel=3, data=[35, 127]),
   midi.NoteOnEvent(tick=64, channel=3, data=[35, 0]),
   midi.NoteOnEvent(tick=32, channel=3, data=[35, 127]),
   midi.NoteOnEvent(tick=64, channel=3, data=[35, 0]),
   midi.NoteOnEvent(tick=32, channel=3, data=[28, 127]),
   midi.NoteOnEvent(tick=64, channel=3, data=[28, 0]),
   midi.NoteOnEvent(tick=32, channel=3, data=[28, 127]),
   midi.NoteOnEvent(tick=64, channel=3, data=[28, 0]),
   midi.NoteOnEvent(tick=32, channel=3, data=[28, 127]),
   midi.NoteOnEvent(tick=64, channel=3, data=[28, 0]),
   midi.NoteOnEvent(tick=32, channel=3, data=[28, 127]),
   midi.NoteOnEvent(tick=64, channel=3, data=[28, 0]),
   midi.NoteOnEvent(tick=32, channel=3, data=[40, 127]),
   midi.NoteOnEvent(tick=268, channel=3, data=[40, 0]),
   midi.NoteOnEvent(tick=116, channel=3, data=[39, 127]),
   midi.NoteOnEvent(tick=132, channel=3, data=[39, 0]),
   midi.NoteOnEvent(tick=60, channel=3, data=[36, 127]),
   midi.NoteOnEvent(tick=132, channel=3, data=[36, 0]),
   midi.NoteOnEvent(tick=60, channel=3, data=[35, 127]),
   midi.NoteOnEvent(tick=132, channel=3, data=[35, 0]),
   midi.NoteOnEvent(tick=60, channel=3, data=[28, 127]),
   midi.NoteOnEvent(tick=64, channel=3, data=[28, 0]),
   midi.NoteOnEvent(tick=32, channel=3, data=[28, 127]),
   midi.NoteOnEvent(tick=64, channel=3, data=[28, 0]),
   midi.NoteOnEvent(tick=32, channel=3, data=[28, 127]),
   midi.NoteOnEvent(tick=64, channel=3, data=[28, 0]),
   midi.NoteOnEvent(tick=32, channel=3, data=[28, 127]),
   midi.NoteOnEvent(tick=64, channel=3, data=[28, 0]),
   midi.NoteOnEvent(tick=32, channel=3, data=[35, 127]),
   midi.NoteOnEvent(tick=64, channel=3, data=[35, 0]),
   midi.NoteOnEvent(tick=32, channel=3, data=[35, 127]),
   midi.NoteOnEvent(tick=64, channel=3, data=[35, 0]),
   midi.NoteOnEvent(tick=32, channel=3, data=[28, 127]),
   midi.NoteOnEvent(tick=64, channel=3, data=[28, 0]),
   midi.NoteOnEvent(tick=32, channel=3, data=[28, 127]),
   midi.NoteOnEvent(tick=64, channel=3, data=[28, 0]),
   midi.NoteOnEvent(tick=32, channel=3, data=[28, 127]),
   midi.NoteOnEvent(tick=64, channel=3, data=[28, 0]),
   midi.NoteOnEvent(tick=32, channel=3, data=[28, 127]),
   midi.NoteOnEvent(tick=64, channel=3, data=[28, 0]),
   midi.NoteOnEvent(tick=32, channel=3, data=[34, 127]),
   midi.NoteOnEvent(tick=64, channel=3, data=[34, 0]),
   midi.NoteOnEvent(tick=32, channel=3, data=[34, 127]),
   midi.NoteOnEvent(tick=64, channel=3, data=[34, 0]),
   midi.NoteOnEvent(tick=32, channel=3, data=[28, 127]),
   midi.NoteOnEvent(tick=64, channel=3, data=[28, 0]),
   midi.NoteOnEvent(tick=32, channel=3, data=[28, 127]),
   midi.NoteOnEvent(tick=64, channel=3, data=[28, 0]),
   midi.NoteOnEvent(tick=32, channel=3, data=[28, 127]),
   midi.NoteOnEvent(tick=64, channel=3, data=[28, 0]),
   midi.NoteOnEvent(tick=32, channel=3, data=[28, 127]),
   midi.NoteOnEvent(tick=64, channel=3, data=[28, 0]),
   midi.NoteOnEvent(tick=32, channel=3, data=[35, 127]),
   midi.NoteOnEvent(tick=64, channel=3, data=[35, 0]),
   midi.NoteOnEvent(tick=32, channel=3, data=[35, 127]),
   midi.NoteOnEvent(tick=64, channel=3, data=[35, 0]),
   midi.NoteOnEvent(tick=32, channel=3, data=[28, 127]),
   midi.NoteOnEvent(tick=64, channel=3, data=[28, 0]),
   midi.NoteOnEvent(tick=32, channel=3, data=[28, 127]),
   midi.NoteOnEvent(tick=64, channel=3, data=[28, 0]),
   midi.NoteOnEvent(tick=32, channel=3, data=[28, 127]),
   midi.NoteOnEvent(tick=64, channel=3, data=[28, 0]),
   midi.NoteOnEvent(tick=32, channel=3, data=[28, 127]),
   midi.NoteOnEvent(tick=64, channel=3, data=[28, 0]),
   midi.NoteOnEvent(tick=32, channel=3, data=[40, 127]),
   midi.NoteOnEvent(tick=268, channel=3, data=[40, 0]),
   midi.NoteOnEvent(tick=116, channel=3, data=[39, 127]),
   midi.NoteOnEvent(tick=132, channel=3, data=[39, 0]),
   midi.NoteOnEvent(tick=60, channel=3, data=[36, 127]),
   midi.NoteOnEvent(tick=132, channel=3, data=[36, 0]),
   midi.NoteOnEvent(tick=60, channel=3, data=[35, 127]),
   midi.NoteOnEvent(tick=132, channel=3, data=[35, 0]),
   midi.NoteOnEvent(tick=60, channel=3, data=[28, 127]),
   midi.NoteOnEvent(tick=64, channel=3, data=[28, 0]),
   midi.NoteOnEvent(tick=32, channel=3, data=[28, 127]),
   midi.NoteOnEvent(tick=64, channel=3, data=[28, 0]),
   midi.NoteOnEvent(tick=32, channel=3, data=[28, 127]),
   midi.NoteOnEvent(tick=64, channel=3, data=[28, 0]),
   midi.NoteOnEvent(tick=32, channel=3, data=[28, 127]),
   midi.NoteOnEvent(tick=64, channel=3, data=[28, 0]),
   midi.NoteOnEvent(tick=32, channel=3, data=[35, 127]),
   midi.NoteOnEvent(tick=64, channel=3, data=[35, 0]),
   midi.NoteOnEvent(tick=32, channel=3, data=[35, 127]),
   midi.NoteOnEvent(tick=64, channel=3, data=[35, 0]),
   midi.NoteOnEvent(tick=32, channel=3, data=[28, 127]),
   midi.NoteOnEvent(tick=64, channel=3, data=[28, 0]),
   midi.NoteOnEvent(tick=32, channel=3, data=[28, 127]),
   midi.NoteOnEvent(tick=64, channel=3, data=[28, 0]),
   midi.NoteOnEvent(tick=32, channel=3, data=[28, 127]),
   midi.NoteOnEvent(tick=64, channel=3, data=[28, 0]),
   midi.NoteOnEvent(tick=32, channel=3, data=[28, 127]),
   midi.NoteOnEvent(tick=64, channel=3, data=[28, 0]),
   midi.NoteOnEvent(tick=32, channel=3, data=[34, 127]),
   midi.NoteOnEvent(tick=64, channel=3, data=[34, 0]),
   midi.NoteOnEvent(tick=32, channel=3, data=[34, 127]),
   midi.NoteOnEvent(tick=64, channel=3, data=[34, 0]),
   midi.NoteOnEvent(tick=32, channel=3, data=[28, 127]),
   midi.NoteOnEvent(tick=64, channel=3, data=[28, 0]),
   midi.NoteOnEvent(tick=32, channel=3, data=[28, 127]),
   midi.NoteOnEvent(tick=64, channel=3, data=[28, 0]),
   midi.NoteOnEvent(tick=32, channel=3, data=[28, 127]),
   midi.NoteOnEvent(tick=64, channel=3, data=[28, 0]),
   midi.NoteOnEvent(tick=32, channel=3, data=[28, 127]),
   midi.NoteOnEvent(tick=64, channel=3, data=[28, 0]),
   midi.NoteOnEvent(tick=32, channel=3, data=[35, 127]),
   midi.NoteOnEvent(tick=64, channel=3, data=[35, 0]),
   midi.NoteOnEvent(tick=32, channel=3, data=[35, 127]),
   midi.NoteOnEvent(tick=64, channel=3, data=[35, 0]),
   midi.NoteOnEvent(tick=32, channel=3, data=[28, 127]),
   midi.NoteOnEvent(tick=64, channel=3, data=[28, 0]),
   midi.NoteOnEvent(tick=32, channel=3, data=[28, 127]),
   midi.NoteOnEvent(tick=64, channel=3, data=[28, 0]),
   midi.NoteOnEvent(tick=32, channel=3, data=[28, 127]),
   midi.NoteOnEvent(tick=64, channel=3, data=[28, 0]),
   midi.NoteOnEvent(tick=32, channel=3, data=[28, 127]),
   midi.NoteOnEvent(tick=64, channel=3, data=[28, 0]),
   midi.NoteOnEvent(tick=32, channel=3, data=[40, 127]),
   midi.NoteOnEvent(tick=268, channel=3, data=[40, 0]),
   midi.NoteOnEvent(tick=116, channel=3, data=[39, 127]),
   midi.NoteOnEvent(tick=132, channel=3, data=[39, 0]),
   midi.NoteOnEvent(tick=60, channel=3, data=[36, 127]),
   midi.NoteOnEvent(tick=132, channel=3, data=[36, 0]),
   midi.NoteOnEvent(tick=60, channel=3, data=[35, 127]),
   midi.NoteOnEvent(tick=132, channel=3, data=[35, 0]),
   midi.NoteOnEvent(tick=60, channel=3, data=[28, 127]),
   midi.NoteOnEvent(tick=64, channel=3, data=[28, 0]),
   midi.NoteOnEvent(tick=32, channel=3, data=[28, 127]),
   midi.NoteOnEvent(tick=64, channel=3, data=[28, 0]),
   midi.NoteOnEvent(tick=32, channel=3, data=[28, 127]),
   midi.NoteOnEvent(tick=64, channel=3, data=[28, 0]),
   midi.NoteOnEvent(tick=32, channel=3, data=[28, 127]),
   midi.NoteOnEvent(tick=64, channel=3, data=[28, 0]),
   midi.NoteOnEvent(tick=32, channel=3, data=[35, 127]),
   midi.NoteOnEvent(tick=64, channel=3, data=[35, 0]),
   midi.NoteOnEvent(tick=32, channel=3, data=[35, 127]),
   midi.NoteOnEvent(tick=64, channel=3, data=[35, 0]),
   midi.NoteOnEvent(tick=32, channel=3, data=[28, 127]),
   midi.NoteOnEvent(tick=64, channel=3, data=[28, 0]),
   midi.NoteOnEvent(tick=32, channel=3, data=[28, 127]),
   midi.NoteOnEvent(tick=64, channel=3, data=[28, 0]),
   midi.NoteOnEvent(tick=32, channel=3, data=[28, 127]),
   midi.NoteOnEvent(tick=64, channel=3, data=[28, 0]),
   midi.NoteOnEvent(tick=32, channel=3, data=[28, 127]),
   midi.NoteOnEvent(tick=64, channel=3, data=[28, 0]),
   midi.NoteOnEvent(tick=32, channel=3, data=[34, 127]),
   midi.NoteOnEvent(tick=64, channel=3, data=[34, 0]),
   midi.NoteOnEvent(tick=32, channel=3, data=[34, 127]),
   midi.NoteOnEvent(tick=64, channel=3, data=[34, 0]),
   midi.NoteOnEvent(tick=32, channel=3, data=[28, 127]),
   midi.NoteOnEvent(tick=64, channel=3, data=[28, 0]),
   midi.NoteOnEvent(tick=32, channel=3, data=[28, 127]),
   midi.NoteOnEvent(tick=64, channel=3, data=[28, 0]),
   midi.NoteOnEvent(tick=32, channel=3, data=[28, 127]),
   midi.NoteOnEvent(tick=64, channel=3, data=[28, 0]),
   midi.NoteOnEvent(tick=32, channel=3, data=[28, 127]),
   midi.NoteOnEvent(tick=64, channel=3, data=[28, 0]),
   midi.NoteOnEvent(tick=32, channel=3, data=[35, 127]),
   midi.NoteOnEvent(tick=64, channel=3, data=[35, 0]),
   midi.NoteOnEvent(tick=32, channel=3, data=[35, 127]),
   midi.NoteOnEvent(tick=64, channel=3, data=[35, 0]),
   midi.NoteOnEvent(tick=32, channel=3, data=[28, 127]),
   midi.NoteOnEvent(tick=64, channel=3, data=[28, 0]),
   midi.NoteOnEvent(tick=32, channel=3, data=[28, 127]),
   midi.NoteOnEvent(tick=64, channel=3, data=[28, 0]),
   midi.NoteOnEvent(tick=32, channel=3, data=[28, 127]),
   midi.NoteOnEvent(tick=64, channel=3, data=[28, 0]),
   midi.NoteOnEvent(tick=32, channel=3, data=[28, 127]),
   midi.NoteOnEvent(tick=64, channel=3, data=[28, 0]),
   midi.NoteOnEvent(tick=32, channel=3, data=[40, 127]),
   midi.NoteOnEvent(tick=268, channel=3, data=[40, 0]),
   midi.NoteOnEvent(tick=116, channel=3, data=[39, 127]),
   midi.NoteOnEvent(tick=132, channel=3, data=[39, 0]),
   midi.NoteOnEvent(tick=60, channel=3, data=[36, 127]),
   midi.NoteOnEvent(tick=132, channel=3, data=[36, 0]),
   midi.NoteOnEvent(tick=60, channel=3, data=[35, 127]),
   midi.NoteOnEvent(tick=132, channel=3, data=[35, 0]),
   midi.NoteOnEvent(tick=60, channel=3, data=[40, 127]),
   midi.NoteOnEvent(tick=64, channel=3, data=[40, 0]),
   midi.NoteOnEvent(tick=32, channel=3, data=[38, 127]),
   midi.NoteOnEvent(tick=64, channel=3, data=[38, 0]),
   midi.NoteOnEvent(tick=32, channel=3, data=[35, 127]),
   midi.NoteOnEvent(tick=64, channel=3, data=[35, 0]),
   midi.NoteOnEvent(tick=32, channel=3, data=[35, 127]),
   midi.NoteOnEvent(tick=64, channel=3, data=[35, 0]),
   midi.NoteOnEvent(tick=32, channel=3, data=[34, 127]),
   midi.NoteOnEvent(tick=268, channel=3, data=[34, 0]),
   midi.NoteOnEvent(tick=116, channel=3, data=[40, 127]),
   midi.NoteOnEvent(tick=64, channel=3, data=[40, 0]),
   midi.NoteOnEvent(tick=32, channel=3, data=[38, 127]),
   midi.NoteOnEvent(tick=64, channel=3, data=[38, 0]),
   midi.NoteOnEvent(tick=32, channel=3, data=[35, 127]),
   midi.NoteOnEvent(tick=64, channel=3, data=[35, 0]),
   midi.NoteOnEvent(tick=32, channel=3, data=[35, 127]),
   midi.NoteOnEvent(tick=64, channel=3, data=[35, 0]),
   midi.NoteOnEvent(tick=32, channel=3, data=[34, 127]),
   midi.NoteOnEvent(tick=268, channel=3, data=[34, 0]),
   midi.NoteOnEvent(tick=116, channel=3, data=[40, 127]),
   midi.NoteOnEvent(tick=64, channel=3, data=[40, 0]),
   midi.NoteOnEvent(tick=32, channel=3, data=[38, 127]),
   midi.NoteOnEvent(tick=64, channel=3, data=[38, 0]),
   midi.NoteOnEvent(tick=32, channel=3, data=[35, 127]),
   midi.NoteOnEvent(tick=64, channel=3, data=[35, 0]),
   midi.NoteOnEvent(tick=32, channel=3, data=[35, 127]),
   midi.NoteOnEvent(tick=64, channel=3, data=[35, 0]),
   midi.NoteOnEvent(tick=32, channel=3, data=[34, 127]),
   midi.NoteOnEvent(tick=268, channel=3, data=[34, 0]),
   midi.NoteOnEvent(tick=116, channel=3, data=[40, 127]),
   midi.NoteOnEvent(tick=64, channel=3, data=[40, 0]),
   midi.NoteOnEvent(tick=32, channel=3, data=[38, 127]),
   midi.NoteOnEvent(tick=64, channel=3, data=[38, 0]),
   midi.NoteOnEvent(tick=32, channel=3, data=[35, 127]),
   midi.NoteOnEvent(tick=64, channel=3, data=[35, 0]),
   midi.NoteOnEvent(tick=32, channel=3, data=[35, 127]),
   midi.NoteOnEvent(tick=64, channel=3, data=[35, 0]),
   midi.NoteOnEvent(tick=32, channel=3, data=[31, 127]),
   midi.NoteOnEvent(tick=268, channel=3, data=[31, 0]),
   midi.NoteOnEvent(tick=116, channel=3, data=[28, 127]),
   midi.NoteOnEvent(tick=64, channel=3, data=[28, 0]),
   midi.NoteOnEvent(tick=32, channel=3, data=[28, 127]),
   midi.NoteOnEvent(tick=64, channel=3, data=[28, 0]),
   midi.NoteOnEvent(tick=32, channel=3, data=[28, 127]),
   midi.NoteOnEvent(tick=64, channel=3, data=[28, 0]),
   midi.NoteOnEvent(tick=32, channel=3, data=[28, 127]),
   midi.NoteOnEvent(tick=64, channel=3, data=[28, 0]),
   midi.NoteOnEvent(tick=32, channel=3, data=[35, 127]),
   midi.NoteOnEvent(tick=64, channel=3, data=[35, 0]),
   midi.NoteOnEvent(tick=32, channel=3, data=[35, 127]),
   midi.NoteOnEvent(tick=64, channel=3, data=[35, 0]),
   midi.NoteOnEvent(tick=32, channel=3, data=[28, 127]),
   midi.NoteOnEvent(tick=64, channel=3, data=[28, 0]),
   midi.NoteOnEvent(tick=32, channel=3, data=[28, 127]),
   midi.NoteOnEvent(tick=64, channel=3, data=[28, 0]),
   midi.NoteOnEvent(tick=32, channel=3, data=[28, 127]),
   midi.NoteOnEvent(tick=64, channel=3, data=[28, 0]),
   midi.NoteOnEvent(tick=32, channel=3, data=[28, 127]),
   midi.NoteOnEvent(tick=64, channel=3, data=[28, 0]),
   midi.NoteOnEvent(tick=32, channel=3, data=[34, 127]),
   midi.NoteOnEvent(tick=64, channel=3, data=[34, 0]),
   midi.NoteOnEvent(tick=32, channel=3, data=[34, 127]),
   midi.NoteOnEvent(tick=64, channel=3, data=[34, 0]),
   midi.NoteOnEvent(tick=32, channel=3, data=[28, 127]),
   midi.NoteOnEvent(tick=64, channel=3, data=[28, 0]),
   midi.NoteOnEvent(tick=32, channel=3, data=[28, 127]),
   midi.NoteOnEvent(tick=64, channel=3, data=[28, 0]),
   midi.NoteOnEvent(tick=32, channel=3, data=[28, 127]),
   midi.NoteOnEvent(tick=64, channel=3, data=[28, 0]),
   midi.NoteOnEvent(tick=32, channel=3, data=[28, 127]),
   midi.NoteOnEvent(tick=64, channel=3, data=[28, 0]),
   midi.NoteOnEvent(tick=32, channel=3, data=[35, 127]),
   midi.NoteOnEvent(tick=64, channel=3, data=[35, 0]),
   midi.NoteOnEvent(tick=32, channel=3, data=[35, 127]),
   midi.NoteOnEvent(tick=64, channel=3, data=[35, 0]),
   midi.NoteOnEvent(tick=32, channel=3, data=[28, 127]),
   midi.NoteOnEvent(tick=64, channel=3, data=[28, 0]),
   midi.NoteOnEvent(tick=32, channel=3, data=[28, 127]),
   midi.NoteOnEvent(tick=64, channel=3, data=[28, 0]),
   midi.NoteOnEvent(tick=32, channel=3, data=[28, 127]),
   midi.NoteOnEvent(tick=64, channel=3, data=[28, 0]),
   midi.NoteOnEvent(tick=32, channel=3, data=[28, 127]),
   midi.NoteOnEvent(tick=64, channel=3, data=[28, 0]),
   midi.NoteOnEvent(tick=32, channel=3, data=[40, 127]),
   midi.NoteOnEvent(tick=268, channel=3, data=[40, 0]),
   midi.NoteOnEvent(tick=116, channel=3, data=[39, 127]),
   midi.NoteOnEvent(tick=132, channel=3, data=[39, 0]),
   midi.NoteOnEvent(tick=60, channel=3, data=[36, 127]),
   midi.NoteOnEvent(tick=132, channel=3, data=[36, 0]),
   midi.NoteOnEvent(tick=60, channel=3, data=[35, 127]),
   midi.NoteOnEvent(tick=132, channel=3, data=[35, 0]),
   midi.NoteOnEvent(tick=60, channel=3, data=[28, 127]),
   midi.NoteOnEvent(tick=64, channel=3, data=[28, 0]),
   midi.NoteOnEvent(tick=32, channel=3, data=[28, 127]),
   midi.NoteOnEvent(tick=64, channel=3, data=[28, 0]),
   midi.NoteOnEvent(tick=32, channel=3, data=[28, 127]),
   midi.NoteOnEvent(tick=64, channel=3, data=[28, 0]),
   midi.NoteOnEvent(tick=32, channel=3, data=[28, 127]),
   midi.NoteOnEvent(tick=64, channel=3, data=[28, 0]),
   midi.NoteOnEvent(tick=32, channel=3, data=[35, 127]),
   midi.NoteOnEvent(tick=64, channel=3, data=[35, 0]),
   midi.NoteOnEvent(tick=32, channel=3, data=[35, 127]),
   midi.NoteOnEvent(tick=64, channel=3, data=[35, 0]),
   midi.NoteOnEvent(tick=32, channel=3, data=[28, 127]),
   midi.NoteOnEvent(tick=64, channel=3, data=[28, 0]),
   midi.NoteOnEvent(tick=32, channel=3, data=[28, 127]),
   midi.NoteOnEvent(tick=64, channel=3, data=[28, 0]),
   midi.NoteOnEvent(tick=32, channel=3, data=[28, 127]),
   midi.NoteOnEvent(tick=64, channel=3, data=[28, 0]),
   midi.NoteOnEvent(tick=32, channel=3, data=[28, 127]),
   midi.NoteOnEvent(tick=64, channel=3, data=[28, 0]),
   midi.NoteOnEvent(tick=32, channel=3, data=[34, 127]),
   midi.NoteOnEvent(tick=64, channel=3, data=[34, 0]),
   midi.NoteOnEvent(tick=32, channel=3, data=[34, 127]),
   midi.NoteOnEvent(tick=64, channel=3, data=[34, 0]),
   midi.NoteOnEvent(tick=32, channel=3, data=[28, 127]),
   midi.NoteOnEvent(tick=64, channel=3, data=[28, 0]),
   midi.NoteOnEvent(tick=32, channel=3, data=[28, 127]),
   midi.NoteOnEvent(tick=64, channel=3, data=[28, 0]),
   midi.NoteOnEvent(tick=32, channel=3, data=[28, 127]),
   midi.NoteOnEvent(tick=64, channel=3, data=[28, 0]),
   midi.NoteOnEvent(tick=32, channel=3, data=[28, 127]),
   midi.NoteOnEvent(tick=64, channel=3, data=[28, 0]),
   midi.NoteOnEvent(tick=32, channel=3, data=[35, 127]),
   midi.NoteOnEvent(tick=64, channel=3, data=[35, 0]),
   midi.NoteOnEvent(tick=32, channel=3, data=[35, 127]),
   midi.NoteOnEvent(tick=64, channel=3, data=[35, 0]),
   midi.NoteOnEvent(tick=32, channel=3, data=[28, 127]),
   midi.NoteOnEvent(tick=64, channel=3, data=[28, 0]),
   midi.NoteOnEvent(tick=32, channel=3, data=[28, 127]),
   midi.NoteOnEvent(tick=64, channel=3, data=[28, 0]),
   midi.NoteOnEvent(tick=32, channel=3, data=[28, 127]),
   midi.NoteOnEvent(tick=64, channel=3, data=[28, 0]),
   midi.NoteOnEvent(tick=32, channel=3, data=[28, 127]),
   midi.NoteOnEvent(tick=64, channel=3, data=[28, 0]),
   midi.NoteOnEvent(tick=32, channel=3, data=[40, 127]),
   midi.NoteOnEvent(tick=268, channel=3, data=[40, 0]),
   midi.NoteOnEvent(tick=116, channel=3, data=[39, 127]),
   midi.NoteOnEvent(tick=132, channel=3, data=[39, 0]),
   midi.NoteOnEvent(tick=60, channel=3, data=[36, 127]),
   midi.NoteOnEvent(tick=132, channel=3, data=[36, 0]),
   midi.NoteOnEvent(tick=60, channel=3, data=[35, 127]),
   midi.NoteOnEvent(tick=132, channel=3, data=[35, 0]),
   midi.NoteOnEvent(tick=60, channel=3, data=[40, 127]),
   midi.NoteOnEvent(tick=64, channel=3, data=[40, 0]),
   midi.NoteOnEvent(tick=32, channel=3, data=[38, 127]),
   midi.NoteOnEvent(tick=64, channel=3, data=[38, 0]),
   midi.NoteOnEvent(tick=32, channel=3, data=[35, 127]),
   midi.NoteOnEvent(tick=64, channel=3, data=[35, 0]),
   midi.NoteOnEvent(tick=32, channel=3, data=[35, 127]),
   midi.NoteOnEvent(tick=64, channel=3, data=[35, 0]),
   midi.NoteOnEvent(tick=32, channel=3, data=[34, 127]),
   midi.NoteOnEvent(tick=268, channel=3, data=[34, 0]),
   midi.NoteOnEvent(tick=116, channel=3, data=[40, 127]),
   midi.NoteOnEvent(tick=64, channel=3, data=[40, 0]),
   midi.NoteOnEvent(tick=32, channel=3, data=[38, 127]),
   midi.NoteOnEvent(tick=64, channel=3, data=[38, 0]),
   midi.NoteOnEvent(tick=32, channel=3, data=[35, 127]),
   midi.NoteOnEvent(tick=64, channel=3, data=[35, 0]),
   midi.NoteOnEvent(tick=32, channel=3, data=[35, 127]),
   midi.NoteOnEvent(tick=64, channel=3, data=[35, 0]),
   midi.NoteOnEvent(tick=32, channel=3, data=[34, 127]),
   midi.NoteOnEvent(tick=268, channel=3, data=[34, 0]),
   midi.NoteOnEvent(tick=116, channel=3, data=[40, 127]),
   midi.NoteOnEvent(tick=64, channel=3, data=[40, 0]),
   midi.NoteOnEvent(tick=32, channel=3, data=[38, 127]),
   midi.NoteOnEvent(tick=64, channel=3, data=[38, 0]),
   midi.NoteOnEvent(tick=32, channel=3, data=[35, 127]),
   midi.NoteOnEvent(tick=64, channel=3, data=[35, 0]),
   midi.NoteOnEvent(tick=32, channel=3, data=[35, 127]),
   midi.NoteOnEvent(tick=64, channel=3, data=[35, 0]),
   midi.NoteOnEvent(tick=32, channel=3, data=[34, 127]),
   midi.NoteOnEvent(tick=268, channel=3, data=[34, 0]),
   midi.NoteOnEvent(tick=116, channel=3, data=[40, 127]),
   midi.NoteOnEvent(tick=64, channel=3, data=[40, 0]),
   midi.NoteOnEvent(tick=32, channel=3, data=[38, 127]),
   midi.NoteOnEvent(tick=64, channel=3, data=[38, 0]),
   midi.NoteOnEvent(tick=32, channel=3, data=[35, 127]),
   midi.NoteOnEvent(tick=64, channel=3, data=[35, 0]),
   midi.NoteOnEvent(tick=32, channel=3, data=[35, 127]),
   midi.NoteOnEvent(tick=64, channel=3, data=[35, 0]),
   midi.NoteOnEvent(tick=32, channel=3, data=[31, 127]),
   midi.NoteOnEvent(tick=268, channel=3, data=[31, 0]),
   midi.NoteOnEvent(tick=116, channel=3, data=[28, 127]),
   midi.NoteOnEvent(tick=64, channel=3, data=[28, 0]),
   midi.NoteOnEvent(tick=32, channel=3, data=[28, 127]),
   midi.NoteOnEvent(tick=64, channel=3, data=[28, 0]),
   midi.NoteOnEvent(tick=32, channel=3, data=[28, 127]),
   midi.NoteOnEvent(tick=64, channel=3, data=[28, 0]),
   midi.NoteOnEvent(tick=32, channel=3, data=[28, 127]),
   midi.NoteOnEvent(tick=64, channel=3, data=[28, 0]),
   midi.NoteOnEvent(tick=32, channel=3, data=[35, 127]),
   midi.NoteOnEvent(tick=64, channel=3, data=[35, 0]),
   midi.NoteOnEvent(tick=32, channel=3, data=[35, 127]),
   midi.NoteOnEvent(tick=64, channel=3, data=[35, 0]),
   midi.NoteOnEvent(tick=32, channel=3, data=[28, 127]),
   midi.NoteOnEvent(tick=64, channel=3, data=[28, 0]),
   midi.NoteOnEvent(tick=32, channel=3, data=[28, 127]),
   midi.NoteOnEvent(tick=64, channel=3, data=[28, 0]),
   midi.NoteOnEvent(tick=32, channel=3, data=[28, 127]),
   midi.NoteOnEvent(tick=64, channel=3, data=[28, 0]),
   midi.NoteOnEvent(tick=32, channel=3, data=[28, 127]),
   midi.NoteOnEvent(tick=64, channel=3, data=[28, 0]),
   midi.NoteOnEvent(tick=32, channel=3, data=[34, 127]),
   midi.NoteOnEvent(tick=64, channel=3, data=[34, 0]),
   midi.NoteOnEvent(tick=32, channel=3, data=[34, 127]),
   midi.NoteOnEvent(tick=64, channel=3, data=[34, 0]),
   midi.NoteOnEvent(tick=32, channel=3, data=[28, 127]),
   midi.NoteOnEvent(tick=64, channel=3, data=[28, 0]),
   midi.NoteOnEvent(tick=32, channel=3, data=[28, 127]),
   midi.NoteOnEvent(tick=64, channel=3, data=[28, 0]),
   midi.NoteOnEvent(tick=32, channel=3, data=[28, 127]),
   midi.NoteOnEvent(tick=64, channel=3, data=[28, 0]),
   midi.NoteOnEvent(tick=32, channel=3, data=[28, 127]),
   midi.NoteOnEvent(tick=64, channel=3, data=[28, 0]),
   midi.NoteOnEvent(tick=32, channel=3, data=[35, 127]),
   midi.NoteOnEvent(tick=64, channel=3, data=[35, 0]),
   midi.NoteOnEvent(tick=32, channel=3, data=[35, 127]),
   midi.NoteOnEvent(tick=64, channel=3, data=[35, 0]),
   midi.NoteOnEvent(tick=32, channel=3, data=[28, 127]),
   midi.NoteOnEvent(tick=64, channel=3, data=[28, 0]),
   midi.NoteOnEvent(tick=32, channel=3, data=[28, 127]),
   midi.NoteOnEvent(tick=64, channel=3, data=[28, 0]),
   midi.NoteOnEvent(tick=32, channel=3, data=[28, 127]),
   midi.NoteOnEvent(tick=64, channel=3, data=[28, 0]),
   midi.NoteOnEvent(tick=32, channel=3, data=[28, 127]),
   midi.NoteOnEvent(tick=64, channel=3, data=[28, 0]),
   midi.NoteOnEvent(tick=32, channel=3, data=[40, 127]),
   midi.NoteOnEvent(tick=268, channel=3, data=[40, 0]),
   midi.NoteOnEvent(tick=116, channel=3, data=[39, 127]),
   midi.NoteOnEvent(tick=132, channel=3, data=[39, 0]),
   midi.NoteOnEvent(tick=60, channel=3, data=[36, 127]),
   midi.NoteOnEvent(tick=132, channel=3, data=[36, 0]),
   midi.NoteOnEvent(tick=60, channel=3, data=[35, 127]),
   midi.NoteOnEvent(tick=132, channel=3, data=[35, 0]),
   midi.NoteOnEvent(tick=60, channel=3, data=[28, 127]),
   midi.NoteOnEvent(tick=64, channel=3, data=[28, 0]),
   midi.NoteOnEvent(tick=32, channel=3, data=[28, 127]),
   midi.NoteOnEvent(tick=64, channel=3, data=[28, 0]),
   midi.NoteOnEvent(tick=32, channel=3, data=[28, 127]),
   midi.NoteOnEvent(tick=64, channel=3, data=[28, 0]),
   midi.NoteOnEvent(tick=32, channel=3, data=[28, 127]),
   midi.NoteOnEvent(tick=64, channel=3, data=[28, 0]),
   midi.NoteOnEvent(tick=32, channel=3, data=[35, 127]),
   midi.NoteOnEvent(tick=64, channel=3, data=[35, 0]),
   midi.NoteOnEvent(tick=32, channel=3, data=[35, 127]),
   midi.NoteOnEvent(tick=64, channel=3, data=[35, 0]),
   midi.NoteOnEvent(tick=32, channel=3, data=[28, 127]),
   midi.NoteOnEvent(tick=64, channel=3, data=[28, 0]),
   midi.NoteOnEvent(tick=32, channel=3, data=[28, 127]),
   midi.NoteOnEvent(tick=64, channel=3, data=[28, 0]),
   midi.NoteOnEvent(tick=32, channel=3, data=[28, 127]),
   midi.NoteOnEvent(tick=64, channel=3, data=[28, 0]),
   midi.NoteOnEvent(tick=32, channel=3, data=[28, 127]),
   midi.NoteOnEvent(tick=64, channel=3, data=[28, 0]),
   midi.NoteOnEvent(tick=32, channel=3, data=[34, 127]),
   midi.NoteOnEvent(tick=64, channel=3, data=[34, 0]),
   midi.NoteOnEvent(tick=32, channel=3, data=[34, 127]),
   midi.NoteOnEvent(tick=64, channel=3, data=[34, 0]),
   midi.NoteOnEvent(tick=32, channel=3, data=[28, 127]),
   midi.NoteOnEvent(tick=64, channel=3, data=[28, 0]),
   midi.NoteOnEvent(tick=32, channel=3, data=[28, 127]),
   midi.NoteOnEvent(tick=64, channel=3, data=[28, 0]),
   midi.NoteOnEvent(tick=32, channel=3, data=[28, 127]),
   midi.NoteOnEvent(tick=64, channel=3, data=[28, 0]),
   midi.NoteOnEvent(tick=32, channel=3, data=[28, 127]),
   midi.NoteOnEvent(tick=64, channel=3, data=[28, 0]),
   midi.NoteOnEvent(tick=32, channel=3, data=[35, 127]),
   midi.NoteOnEvent(tick=64, channel=3, data=[35, 0]),
   midi.NoteOnEvent(tick=32, channel=3, data=[35, 127]),
   midi.NoteOnEvent(tick=64, channel=3, data=[35, 0]),
   midi.NoteOnEvent(tick=32, channel=3, data=[28, 127]),
   midi.NoteOnEvent(tick=64, channel=3, data=[28, 0]),
   midi.NoteOnEvent(tick=32, channel=3, data=[28, 127]),
   midi.NoteOnEvent(tick=64, channel=3, data=[28, 0]),
   midi.NoteOnEvent(tick=32, channel=3, data=[28, 127]),
   midi.NoteOnEvent(tick=64, channel=3, data=[28, 0]),
   midi.NoteOnEvent(tick=32, channel=3, data=[28, 127]),
   midi.NoteOnEvent(tick=64, channel=3, data=[28, 0]),
   midi.NoteOnEvent(tick=32, channel=3, data=[40, 127]),
   midi.NoteOnEvent(tick=268, channel=3, data=[40, 0]),
   midi.NoteOnEvent(tick=116, channel=3, data=[39, 127]),
   midi.NoteOnEvent(tick=132, channel=3, data=[39, 0]),
   midi.NoteOnEvent(tick=60, channel=3, data=[36, 127]),
   midi.NoteOnEvent(tick=132, channel=3, data=[36, 0]),
   midi.NoteOnEvent(tick=60, channel=3, data=[35, 127]),
   midi.NoteOnEvent(tick=132, channel=3, data=[35, 0]),
   midi.NoteOnEvent(tick=60, channel=3, data=[40, 127]),
   midi.NoteOnEvent(tick=64, channel=3, data=[40, 0]),
   midi.NoteOnEvent(tick=32, channel=3, data=[38, 127]),
   midi.NoteOnEvent(tick=64, channel=3, data=[38, 0]),
   midi.NoteOnEvent(tick=32, channel=3, data=[35, 127]),
   midi.NoteOnEvent(tick=64, channel=3, data=[35, 0]),
   midi.NoteOnEvent(tick=32, channel=3, data=[35, 127]),
   midi.NoteOnEvent(tick=64, channel=3, data=[35, 0]),
   midi.NoteOnEvent(tick=32, channel=3, data=[34, 127]),
   midi.NoteOnEvent(tick=268, channel=3, data=[34, 0]),
   midi.NoteOnEvent(tick=116, channel=3, data=[40, 127]),
   midi.NoteOnEvent(tick=64, channel=3, data=[40, 0]),
   midi.NoteOnEvent(tick=32, channel=3, data=[38, 127]),
   midi.NoteOnEvent(tick=64, channel=3, data=[38, 0]),
   midi.NoteOnEvent(tick=32, channel=3, data=[35, 127]),
   midi.NoteOnEvent(tick=64, channel=3, data=[35, 0]),
   midi.NoteOnEvent(tick=32, channel=3, data=[35, 127]),
   midi.NoteOnEvent(tick=64, channel=3, data=[35, 0]),
   midi.NoteOnEvent(tick=32, channel=3, data=[34, 127]),
   midi.NoteOnEvent(tick=268, channel=3, data=[34, 0]),
   midi.NoteOnEvent(tick=116, channel=3, data=[40, 127]),
   midi.NoteOnEvent(tick=64, channel=3, data=[40, 0]),
   midi.NoteOnEvent(tick=32, channel=3, data=[38, 127]),
   midi.NoteOnEvent(tick=64, channel=3, data=[38, 0]),
   midi.NoteOnEvent(tick=32, channel=3, data=[35, 127]),
   midi.NoteOnEvent(tick=64, channel=3, data=[35, 0]),
   midi.NoteOnEvent(tick=32, channel=3, data=[35, 127]),
   midi.NoteOnEvent(tick=64, channel=3, data=[35, 0]),
   midi.NoteOnEvent(tick=32, channel=3, data=[34, 127]),
   midi.NoteOnEvent(tick=268, channel=3, data=[34, 0]),
   midi.NoteOnEvent(tick=116, channel=3, data=[40, 127]),
   midi.NoteOnEvent(tick=64, channel=3, data=[40, 0]),
   midi.NoteOnEvent(tick=32, channel=3, data=[38, 127]),
   midi.NoteOnEvent(tick=64, channel=3, data=[38, 0]),
   midi.NoteOnEvent(tick=32, channel=3, data=[35, 127]),
   midi.NoteOnEvent(tick=64, channel=3, data=[35, 0]),
   midi.NoteOnEvent(tick=32, channel=3, data=[35, 127]),
   midi.NoteOnEvent(tick=64, channel=3, data=[35, 0]),
   midi.NoteOnEvent(tick=32, channel=3, data=[31, 127]),
   midi.NoteOnEvent(tick=268, channel=3, data=[31, 0]),
   midi.NoteOnEvent(tick=116, channel=3, data=[28, 127]),
   midi.NoteOnEvent(tick=64, channel=3, data=[28, 0]),
   midi.NoteOnEvent(tick=32, channel=3, data=[28, 127]),
   midi.NoteOnEvent(tick=64, channel=3, data=[28, 0]),
   midi.NoteOnEvent(tick=32, channel=3, data=[28, 127]),
   midi.NoteOnEvent(tick=64, channel=3, data=[28, 0]),
   midi.NoteOnEvent(tick=32, channel=3, data=[28, 127]),
   midi.NoteOnEvent(tick=64, channel=3, data=[28, 0]),
   midi.NoteOnEvent(tick=32, channel=3, data=[35, 127]),
   midi.NoteOnEvent(tick=64, channel=3, data=[35, 0]),
   midi.NoteOnEvent(tick=32, channel=3, data=[35, 127]),
   midi.NoteOnEvent(tick=64, channel=3, data=[35, 0]),
   midi.NoteOnEvent(tick=32, channel=3, data=[28, 127]),
   midi.NoteOnEvent(tick=64, channel=3, data=[28, 0]),
   midi.NoteOnEvent(tick=32, channel=3, data=[28, 127]),
   midi.NoteOnEvent(tick=64, channel=3, data=[28, 0]),
   midi.NoteOnEvent(tick=32, channel=3, data=[28, 127]),
   midi.NoteOnEvent(tick=64, channel=3, data=[28, 0]),
   midi.NoteOnEvent(tick=32, channel=3, data=[28, 127]),
   midi.NoteOnEvent(tick=64, channel=3, data=[28, 0]),
   midi.NoteOnEvent(tick=32, channel=3, data=[34, 127]),
   midi.NoteOnEvent(tick=64, channel=3, data=[34, 0]),
   midi.NoteOnEvent(tick=32, channel=3, data=[34, 127]),
   midi.NoteOnEvent(tick=64, channel=3, data=[34, 0]),
   midi.NoteOnEvent(tick=32, channel=3, data=[28, 127]),
   midi.NoteOnEvent(tick=64, channel=3, data=[28, 0]),
   midi.NoteOnEvent(tick=32, channel=3, data=[28, 127]),
   midi.NoteOnEvent(tick=64, channel=3, data=[28, 0]),
   midi.NoteOnEvent(tick=32, channel=3, data=[28, 127]),
   midi.NoteOnEvent(tick=64, channel=3, data=[28, 0]),
   midi.NoteOnEvent(tick=32, channel=3, data=[28, 127]),
   midi.NoteOnEvent(tick=64, channel=3, data=[28, 0]),
   midi.NoteOnEvent(tick=32, channel=3, data=[35, 127]),
   midi.NoteOnEvent(tick=64, channel=3, data=[35, 0]),
   midi.NoteOnEvent(tick=32, channel=3, data=[35, 127]),
   midi.NoteOnEvent(tick=64, channel=3, data=[35, 0]),
   midi.NoteOnEvent(tick=32, channel=3, data=[28, 127]),
   midi.NoteOnEvent(tick=64, channel=3, data=[28, 0]),
   midi.NoteOnEvent(tick=32, channel=3, data=[28, 127]),
   midi.NoteOnEvent(tick=64, channel=3, data=[28, 0]),
   midi.NoteOnEvent(tick=32, channel=3, data=[28, 127]),
   midi.NoteOnEvent(tick=64, channel=3, data=[28, 0]),
   midi.NoteOnEvent(tick=32, channel=3, data=[28, 127]),
   midi.NoteOnEvent(tick=64, channel=3, data=[28, 0]),
   midi.NoteOnEvent(tick=32, channel=3, data=[40, 127]),
   midi.NoteOnEvent(tick=268, channel=3, data=[40, 0]),
   midi.NoteOnEvent(tick=116, channel=3, data=[39, 127]),
   midi.NoteOnEvent(tick=132, channel=3, data=[39, 0]),
   midi.NoteOnEvent(tick=60, channel=3, data=[36, 127]),
   midi.NoteOnEvent(tick=132, channel=3, data=[36, 0]),
   midi.NoteOnEvent(tick=60, channel=3, data=[35, 127]),
   midi.NoteOnEvent(tick=132, channel=3, data=[35, 0]),
   midi.NoteOnEvent(tick=60, channel=3, data=[28, 127]),
   midi.NoteOnEvent(tick=64, channel=3, data=[28, 0]),
   midi.NoteOnEvent(tick=32, channel=3, data=[28, 127]),
   midi.NoteOnEvent(tick=64, channel=3, data=[28, 0]),
   midi.NoteOnEvent(tick=32, channel=3, data=[28, 127]),
   midi.NoteOnEvent(tick=64, channel=3, data=[28, 0]),
   midi.NoteOnEvent(tick=32, channel=3, data=[28, 127]),
   midi.NoteOnEvent(tick=64, channel=3, data=[28, 0]),
   midi.NoteOnEvent(tick=32, channel=3, data=[35, 127]),
   midi.NoteOnEvent(tick=64, channel=3, data=[35, 0]),
   midi.NoteOnEvent(tick=32, channel=3, data=[35, 127]),
   midi.NoteOnEvent(tick=64, channel=3, data=[35, 0]),
   midi.NoteOnEvent(tick=32, channel=3, data=[28, 127]),
   midi.NoteOnEvent(tick=64, channel=3, data=[28, 0]),
   midi.NoteOnEvent(tick=32, channel=3, data=[28, 127]),
   midi.NoteOnEvent(tick=64, channel=3, data=[28, 0]),
   midi.NoteOnEvent(tick=32, channel=3, data=[28, 127]),
   midi.NoteOnEvent(tick=64, channel=3, data=[28, 0]),
   midi.NoteOnEvent(tick=32, channel=3, data=[28, 127]),
   midi.NoteOnEvent(tick=64, channel=3, data=[28, 0]),
   midi.NoteOnEvent(tick=32, channel=3, data=[34, 127]),
   midi.NoteOnEvent(tick=64, channel=3, data=[34, 0]),
   midi.NoteOnEvent(tick=32, channel=3, data=[34, 127]),
   midi.NoteOnEvent(tick=64, channel=3, data=[34, 0]),
   midi.NoteOnEvent(tick=32, channel=3, data=[28, 127]),
   midi.NoteOnEvent(tick=64, channel=3, data=[28, 0]),
   midi.NoteOnEvent(tick=32, channel=3, data=[28, 127]),
   midi.NoteOnEvent(tick=64, channel=3, data=[28, 0]),
   midi.NoteOnEvent(tick=32, channel=3, data=[28, 127]),
   midi.NoteOnEvent(tick=64, channel=3, data=[28, 0]),
   midi.NoteOnEvent(tick=32, channel=3, data=[28, 127]),
   midi.NoteOnEvent(tick=64, channel=3, data=[28, 0]),
   midi.NoteOnEvent(tick=32, channel=3, data=[35, 127]),
   midi.NoteOnEvent(tick=64, channel=3, data=[35, 0]),
   midi.NoteOnEvent(tick=32, channel=3, data=[35, 127]),
   midi.NoteOnEvent(tick=64, channel=3, data=[35, 0]),
   midi.NoteOnEvent(tick=32, channel=3, data=[28, 127]),
   midi.NoteOnEvent(tick=64, channel=3, data=[28, 0]),
   midi.NoteOnEvent(tick=32, channel=3, data=[28, 127]),
   midi.NoteOnEvent(tick=64, channel=3, data=[28, 0]),
   midi.NoteOnEvent(tick=32, channel=3, data=[28, 127]),
   midi.NoteOnEvent(tick=64, channel=3, data=[28, 0]),
   midi.NoteOnEvent(tick=32, channel=3, data=[28, 127]),
   midi.NoteOnEvent(tick=64, channel=3, data=[28, 0]),
   midi.NoteOnEvent(tick=32, channel=3, data=[40, 127]),
   midi.NoteOnEvent(tick=268, channel=3, data=[40, 0]),
   midi.NoteOnEvent(tick=116, channel=3, data=[39, 127]),
   midi.NoteOnEvent(tick=132, channel=3, data=[39, 0]),
   midi.NoteOnEvent(tick=60, channel=3, data=[36, 127]),
   midi.NoteOnEvent(tick=132, channel=3, data=[36, 0]),
   midi.NoteOnEvent(tick=60, channel=3, data=[35, 127]),
   midi.NoteOnEvent(tick=132, channel=3, data=[35, 0]),
   midi.NoteOnEvent(tick=60, channel=3, data=[40, 127]),
   midi.NoteOnEvent(tick=64, channel=3, data=[40, 0]),
   midi.NoteOnEvent(tick=32, channel=3, data=[38, 127]),
   midi.NoteOnEvent(tick=64, channel=3, data=[38, 0]),
   midi.NoteOnEvent(tick=32, channel=3, data=[35, 127]),
   midi.NoteOnEvent(tick=64, channel=3, data=[35, 0]),
   midi.NoteOnEvent(tick=32, channel=3, data=[35, 127]),
   midi.NoteOnEvent(tick=64, channel=3, data=[35, 0]),
   midi.NoteOnEvent(tick=32, channel=3, data=[34, 127]),
   midi.NoteOnEvent(tick=268, channel=3, data=[34, 0]),
   midi.NoteOnEvent(tick=116, channel=3, data=[40, 127]),
   midi.NoteOnEvent(tick=64, channel=3, data=[40, 0]),
   midi.NoteOnEvent(tick=32, channel=3, data=[38, 127]),
   midi.NoteOnEvent(tick=64, channel=3, data=[38, 0]),
   midi.NoteOnEvent(tick=32, channel=3, data=[35, 127]),
   midi.NoteOnEvent(tick=64, channel=3, data=[35, 0]),
   midi.NoteOnEvent(tick=32, channel=3, data=[35, 127]),
   midi.NoteOnEvent(tick=64, channel=3, data=[35, 0]),
   midi.NoteOnEvent(tick=32, channel=3, data=[34, 127]),
   midi.NoteOnEvent(tick=268, channel=3, data=[34, 0]),
   midi.NoteOnEvent(tick=116, channel=3, data=[40, 127]),
   midi.NoteOnEvent(tick=64, channel=3, data=[40, 0]),
   midi.NoteOnEvent(tick=32, channel=3, data=[38, 127]),
   midi.NoteOnEvent(tick=64, channel=3, data=[38, 0]),
   midi.NoteOnEvent(tick=32, channel=3, data=[35, 127]),
   midi.NoteOnEvent(tick=64, channel=3, data=[35, 0]),
   midi.NoteOnEvent(tick=32, channel=3, data=[35, 127]),
   midi.NoteOnEvent(tick=64, channel=3, data=[35, 0]),
   midi.NoteOnEvent(tick=32, channel=3, data=[34, 127]),
   midi.NoteOnEvent(tick=268, channel=3, data=[34, 0]),
   midi.NoteOnEvent(tick=116, channel=3, data=[40, 127]),
   midi.NoteOnEvent(tick=64, channel=3, data=[40, 0]),
   midi.NoteOnEvent(tick=32, channel=3, data=[38, 127]),
   midi.NoteOnEvent(tick=64, channel=3, data=[38, 0]),
   midi.NoteOnEvent(tick=32, channel=3, data=[35, 127]),
   midi.NoteOnEvent(tick=64, channel=3, data=[35, 0]),
   midi.NoteOnEvent(tick=32, channel=3, data=[35, 127]),
   midi.NoteOnEvent(tick=64, channel=3, data=[35, 0]),
   midi.NoteOnEvent(tick=32, channel=3, data=[34, 127]),
   midi.NoteOnEvent(tick=268, channel=3, data=[34, 0]),
   midi.NoteOnEvent(tick=116, channel=3, data=[40, 127]),
   midi.NoteOnEvent(tick=64, channel=3, data=[40, 0]),
   midi.NoteOnEvent(tick=32, channel=3, data=[38, 127]),
   midi.NoteOnEvent(tick=64, channel=3, data=[38, 0]),
   midi.NoteOnEvent(tick=32, channel=3, data=[35, 127]),
   midi.NoteOnEvent(tick=64, channel=3, data=[35, 0]),
   midi.NoteOnEvent(tick=32, channel=3, data=[35, 127]),
   midi.NoteOnEvent(tick=64, channel=3, data=[35, 0]),
   midi.NoteOnEvent(tick=32, channel=3, data=[34, 127]),
   midi.NoteOnEvent(tick=268, channel=3, data=[34, 0]),
   midi.NoteOnEvent(tick=116, channel=3, data=[40, 127]),
   midi.NoteOnEvent(tick=64, channel=3, data=[40, 0]),
   midi.NoteOnEvent(tick=32, channel=3, data=[38, 127]),
   midi.NoteOnEvent(tick=64, channel=3, data=[38, 0]),
   midi.NoteOnEvent(tick=32, channel=3, data=[35, 127]),
   midi.NoteOnEvent(tick=64, channel=3, data=[35, 0]),
   midi.NoteOnEvent(tick=32, channel=3, data=[35, 127]),
   midi.NoteOnEvent(tick=64, channel=3, data=[35, 0]),
   midi.NoteOnEvent(tick=32, channel=3, data=[34, 127]),
   midi.NoteOnEvent(tick=268, channel=3, data=[34, 0]),
   midi.NoteOnEvent(tick=116, channel=3, data=[40, 127]),
   midi.NoteOnEvent(tick=64, channel=3, data=[40, 0]),
   midi.NoteOnEvent(tick=32, channel=3, data=[38, 127]),
   midi.NoteOnEvent(tick=64, channel=3, data=[38, 0]),
   midi.NoteOnEvent(tick=32, channel=3, data=[35, 127]),
   midi.NoteOnEvent(tick=64, channel=3, data=[35, 0]),
   midi.NoteOnEvent(tick=32, channel=3, data=[35, 127]),
   midi.NoteOnEvent(tick=64, channel=3, data=[35, 0]),
   midi.NoteOnEvent(tick=32, channel=3, data=[34, 127]),
   midi.NoteOnEvent(tick=268, channel=3, data=[34, 0]),
   midi.NoteOnEvent(tick=116, channel=3, data=[40, 127]),
   midi.NoteOnEvent(tick=64, channel=3, data=[40, 0]),
   midi.NoteOnEvent(tick=32, channel=3, data=[38, 127]),
   midi.NoteOnEvent(tick=64, channel=3, data=[38, 0]),
   midi.NoteOnEvent(tick=32, channel=3, data=[35, 127]),
   midi.NoteOnEvent(tick=64, channel=3, data=[35, 0]),
   midi.NoteOnEvent(tick=32, channel=3, data=[35, 127]),
   midi.NoteOnEvent(tick=64, channel=3, data=[35, 0]),
   midi.NoteOnEvent(tick=32, channel=3, data=[34, 127]),
   midi.NoteOnEvent(tick=268, channel=3, data=[34, 0]),
   midi.NoteOnEvent(tick=116, channel=3, data=[28, 127]),
   midi.NoteOnEvent(tick=268, channel=3, data=[28, 0]),
   midi.EndOfTrackEvent(tick=0, data=[])]),
 midi.Track(\
  [midi.PortEvent(tick=0, data=[0]),
   midi.TrackNameEvent(tick=0, text='Drums', data=[68, 114, 117, 109, 115]),
   midi.ControlChangeEvent(tick=0, channel=9, data=[7, 127]),
   midi.ControlChangeEvent(tick=0, channel=9, data=[24, 0]),
   midi.NoteOnEvent(tick=0, channel=9, data=[38, 127]),
   midi.NoteOnEvent(tick=64, channel=9, data=[38, 0]),
   midi.NoteOnEvent(tick=32, channel=9, data=[38, 127]),
   midi.NoteOnEvent(tick=64, channel=9, data=[38, 0]),
   midi.NoteOnEvent(tick=32, channel=9, data=[36, 127]),
   midi.NoteOnEvent(tick=64, channel=9, data=[36, 0]),
   midi.NoteOnEvent(tick=32, channel=9, data=[36, 127]),
   midi.NoteOnEvent(tick=64, channel=9, data=[36, 0]),
   midi.NoteOnEvent(tick=32, channel=9, data=[46, 127]),
   midi.NoteOnEvent(tick=256, channel=9, data=[46, 0]),
   midi.NoteOnEvent(tick=128, channel=9, data=[38, 127]),
   midi.NoteOnEvent(tick=64, channel=9, data=[38, 0]),
   midi.NoteOnEvent(tick=32, channel=9, data=[38, 127]),
   midi.NoteOnEvent(tick=64, channel=9, data=[38, 0]),
   midi.NoteOnEvent(tick=32, channel=9, data=[36, 127]),
   midi.NoteOnEvent(tick=64, channel=9, data=[36, 0]),
   midi.NoteOnEvent(tick=32, channel=9, data=[36, 127]),
   midi.NoteOnEvent(tick=64, channel=9, data=[36, 0]),
   midi.NoteOnEvent(tick=32, channel=9, data=[46, 127]),
   midi.NoteOnEvent(tick=256, channel=9, data=[46, 0]),
   midi.NoteOnEvent(tick=128, channel=9, data=[38, 127]),
   midi.NoteOnEvent(tick=64, channel=9, data=[38, 0]),
   midi.NoteOnEvent(tick=32, channel=9, data=[38, 127]),
   midi.NoteOnEvent(tick=64, channel=9, data=[38, 0]),
   midi.NoteOnEvent(tick=32, channel=9, data=[36, 127]),
   midi.NoteOnEvent(tick=64, channel=9, data=[36, 0]),
   midi.NoteOnEvent(tick=32, channel=9, data=[36, 127]),
   midi.NoteOnEvent(tick=64, channel=9, data=[36, 0]),
   midi.NoteOnEvent(tick=32, channel=9, data=[46, 127]),
   midi.NoteOnEvent(tick=256, channel=9, data=[46, 0]),
   midi.NoteOnEvent(tick=128, channel=9, data=[38, 127]),
   midi.NoteOnEvent(tick=64, channel=9, data=[38, 0]),
   midi.NoteOnEvent(tick=32, channel=9, data=[38, 127]),
   midi.NoteOnEvent(tick=64, channel=9, data=[38, 0]),
   midi.NoteOnEvent(tick=32, channel=9, data=[36, 127]),
   midi.NoteOnEvent(tick=64, channel=9, data=[36, 0]),
   midi.NoteOnEvent(tick=32, channel=9, data=[36, 127]),
   midi.NoteOnEvent(tick=64, channel=9, data=[36, 0]),
   midi.NoteOnEvent(tick=416, channel=9, data=[38, 127]),
   midi.NoteOnEvent(tick=64, channel=9, data=[38, 0]),
   midi.NoteOnEvent(tick=32, channel=9, data=[38, 127]),
   midi.NoteOnEvent(tick=64, channel=9, data=[38, 0]),
   midi.NoteOnEvent(tick=32, channel=9, data=[36, 127]),
   midi.NoteOnEvent(tick=64, channel=9, data=[36, 0]),
   midi.NoteOnEvent(tick=32, channel=9, data=[36, 127]),
   midi.NoteOnEvent(tick=64, channel=9, data=[36, 0]),
   midi.NoteOnEvent(tick=32, channel=9, data=[46, 127]),
   midi.NoteOnEvent(tick=256, channel=9, data=[46, 0]),
   midi.NoteOnEvent(tick=128, channel=9, data=[38, 127]),
   midi.NoteOnEvent(tick=64, channel=9, data=[38, 0]),
   midi.NoteOnEvent(tick=32, channel=9, data=[38, 127]),
   midi.NoteOnEvent(tick=64, channel=9, data=[38, 0]),
   midi.NoteOnEvent(tick=32, channel=9, data=[36, 127]),
   midi.NoteOnEvent(tick=64, channel=9, data=[36, 0]),
   midi.NoteOnEvent(tick=32, channel=9, data=[36, 127]),
   midi.NoteOnEvent(tick=64, channel=9, data=[36, 0]),
   midi.NoteOnEvent(tick=32, channel=9, data=[46, 127]),
   midi.NoteOnEvent(tick=256, channel=9, data=[46, 0]),
   midi.NoteOnEvent(tick=128, channel=9, data=[38, 127]),
   midi.NoteOnEvent(tick=64, channel=9, data=[38, 0]),
   midi.NoteOnEvent(tick=32, channel=9, data=[38, 127]),
   midi.NoteOnEvent(tick=64, channel=9, data=[38, 0]),
   midi.NoteOnEvent(tick=32, channel=9, data=[36, 127]),
   midi.NoteOnEvent(tick=64, channel=9, data=[36, 0]),
   midi.NoteOnEvent(tick=32, channel=9, data=[36, 127]),
   midi.NoteOnEvent(tick=64, channel=9, data=[36, 0]),
   midi.NoteOnEvent(tick=32, channel=9, data=[46, 127]),
   midi.NoteOnEvent(tick=256, channel=9, data=[46, 0]),
   midi.NoteOnEvent(tick=128, channel=9, data=[38, 127]),
   midi.NoteOnEvent(tick=64, channel=9, data=[38, 0]),
   midi.NoteOnEvent(tick=32, channel=9, data=[38, 127]),
   midi.NoteOnEvent(tick=64, channel=9, data=[38, 0]),
   midi.NoteOnEvent(tick=32, channel=9, data=[36, 127]),
   midi.NoteOnEvent(tick=64, channel=9, data=[36, 0]),
   midi.NoteOnEvent(tick=32, channel=9, data=[36, 127]),
   midi.NoteOnEvent(tick=64, channel=9, data=[36, 0]),
   midi.NoteOnEvent(tick=416, channel=9, data=[36, 127]),
   midi.NoteOnEvent(tick=128, channel=9, data=[36, 0]),
   midi.NoteOnEvent(tick=64, channel=9, data=[46, 127]),
   midi.NoteOnEvent(tick=128, channel=9, data=[46, 0]),
   midi.NoteOnEvent(tick=64, channel=9, data=[42, 127]),
   midi.NoteOnEvent(tick=128, channel=9, data=[42, 0]),
   midi.NoteOnEvent(tick=64, channel=9, data=[36, 127]),
   midi.NoteOnEvent(tick=0, channel=9, data=[46, 127]),
   midi.NoteOnEvent(tick=128, channel=9, data=[46, 0]),
   midi.NoteOnEvent(tick=0, channel=9, data=[36, 0]),
   midi.NoteOnEvent(tick=64, channel=9, data=[42, 127]),
   midi.NoteOnEvent(tick=128, channel=9, data=[42, 0]),
   midi.NoteOnEvent(tick=64, channel=9, data=[46, 127]),
   midi.NoteOnEvent(tick=128, channel=9, data=[46, 0]),
   midi.NoteOnEvent(tick=64, channel=9, data=[42, 127]),
   midi.NoteOnEvent(tick=128, channel=9, data=[42, 0]),
   midi.NoteOnEvent(tick=64, channel=9, data=[46, 127]),
   midi.NoteOnEvent(tick=128, channel=9, data=[46, 0]),
   midi.NoteOnEvent(tick=64, channel=9, data=[36, 127]),
   midi.NoteOnEvent(tick=0, channel=9, data=[42, 127]),
   midi.NoteOnEvent(tick=128, channel=9, data=[42, 0]),
   midi.NoteOnEvent(tick=64, channel=9, data=[46, 127]),
   midi.NoteOnEvent(tick=64, channel=9, data=[36, 0]),
   midi.NoteOnEvent(tick=64, channel=9, data=[46, 0]),
   midi.NoteOnEvent(tick=64, channel=9, data=[42, 127]),
   midi.NoteOnEvent(tick=128, channel=9, data=[42, 0]),
   midi.NoteOnEvent(tick=64, channel=9, data=[36, 127]),
   midi.NoteOnEvent(tick=0, channel=9, data=[46, 127]),
   midi.NoteOnEvent(tick=128, channel=9, data=[46, 0]),
   midi.NoteOnEvent(tick=0, channel=9, data=[36, 0]),
   midi.NoteOnEvent(tick=64, channel=9, data=[42, 127]),
   midi.NoteOnEvent(tick=128, channel=9, data=[42, 0]),
   midi.NoteOnEvent(tick=64, channel=9, data=[46, 127]),
   midi.NoteOnEvent(tick=128, channel=9, data=[46, 0]),
   midi.NoteOnEvent(tick=64, channel=9, data=[42, 127]),
   midi.NoteOnEvent(tick=128, channel=9, data=[42, 0]),
   midi.NoteOnEvent(tick=64, channel=9, data=[46, 127]),
   midi.NoteOnEvent(tick=128, channel=9, data=[46, 0]),
   midi.NoteOnEvent(tick=64, channel=9, data=[36, 127]),
   midi.NoteOnEvent(tick=0, channel=9, data=[42, 127]),
   midi.NoteOnEvent(tick=128, channel=9, data=[42, 0]),
   midi.NoteOnEvent(tick=64, channel=9, data=[46, 127]),
   midi.NoteOnEvent(tick=64, channel=9, data=[36, 0]),
   midi.NoteOnEvent(tick=64, channel=9, data=[46, 0]),
   midi.NoteOnEvent(tick=64, channel=9, data=[42, 127]),
   midi.NoteOnEvent(tick=128, channel=9, data=[42, 0]),
   midi.NoteOnEvent(tick=64, channel=9, data=[36, 127]),
   midi.NoteOnEvent(tick=0, channel=9, data=[46, 127]),
   midi.NoteOnEvent(tick=128, channel=9, data=[46, 0]),
   midi.NoteOnEvent(tick=0, channel=9, data=[36, 0]),
   midi.NoteOnEvent(tick=64, channel=9, data=[42, 127]),
   midi.NoteOnEvent(tick=128, channel=9, data=[42, 0]),
   midi.NoteOnEvent(tick=64, channel=9, data=[46, 127]),
   midi.NoteOnEvent(tick=128, channel=9, data=[46, 0]),
   midi.NoteOnEvent(tick=64, channel=9, data=[42, 127]),
   midi.NoteOnEvent(tick=128, channel=9, data=[42, 0]),
   midi.NoteOnEvent(tick=64, channel=9, data=[46, 127]),
   midi.NoteOnEvent(tick=128, channel=9, data=[46, 0]),
   midi.NoteOnEvent(tick=64, channel=9, data=[36, 127]),
   midi.NoteOnEvent(tick=0, channel=9, data=[42, 127]),
   midi.NoteOnEvent(tick=128, channel=9, data=[42, 0]),
   midi.NoteOnEvent(tick=64, channel=9, data=[46, 127]),
   midi.NoteOnEvent(tick=64, channel=9, data=[36, 0]),
   midi.NoteOnEvent(tick=64, channel=9, data=[46, 0]),
   midi.NoteOnEvent(tick=64, channel=9, data=[42, 127]),
   midi.NoteOnEvent(tick=128, channel=9, data=[42, 0]),
   midi.NoteOnEvent(tick=64, channel=9, data=[36, 127]),
   midi.NoteOnEvent(tick=0, channel=9, data=[46, 127]),
   midi.NoteOnEvent(tick=128, channel=9, data=[46, 0]),
   midi.NoteOnEvent(tick=0, channel=9, data=[36, 0]),
   midi.NoteOnEvent(tick=64, channel=9, data=[42, 127]),
   midi.NoteOnEvent(tick=128, channel=9, data=[42, 0]),
   midi.NoteOnEvent(tick=64, channel=9, data=[46, 127]),
   midi.NoteOnEvent(tick=128, channel=9, data=[46, 0]),
   midi.NoteOnEvent(tick=64, channel=9, data=[42, 127]),
   midi.NoteOnEvent(tick=128, channel=9, data=[42, 0]),
   midi.NoteOnEvent(tick=64, channel=9, data=[46, 127]),
   midi.NoteOnEvent(tick=128, channel=9, data=[46, 0]),
   midi.NoteOnEvent(tick=64, channel=9, data=[36, 127]),
   midi.NoteOnEvent(tick=0, channel=9, data=[42, 127]),
   midi.NoteOnEvent(tick=128, channel=9, data=[42, 0]),
   midi.NoteOnEvent(tick=64, channel=9, data=[46, 127]),
   midi.NoteOnEvent(tick=64, channel=9, data=[36, 0]),
   midi.NoteOnEvent(tick=64, channel=9, data=[46, 0]),
   midi.NoteOnEvent(tick=64, channel=9, data=[42, 127]),
   midi.NoteOnEvent(tick=128, channel=9, data=[42, 0]),
   midi.NoteOnEvent(tick=64, channel=9, data=[36, 127]),
   midi.NoteOnEvent(tick=0, channel=9, data=[46, 127]),
   midi.NoteOnEvent(tick=128, channel=9, data=[46, 0]),
   midi.NoteOnEvent(tick=0, channel=9, data=[36, 0]),
   midi.NoteOnEvent(tick=64, channel=9, data=[42, 127]),
   midi.NoteOnEvent(tick=128, channel=9, data=[42, 0]),
   midi.NoteOnEvent(tick=64, channel=9, data=[46, 127]),
   midi.NoteOnEvent(tick=128, channel=9, data=[46, 0]),
   midi.NoteOnEvent(tick=64, channel=9, data=[42, 127]),
   midi.NoteOnEvent(tick=128, channel=9, data=[42, 0]),
   midi.NoteOnEvent(tick=64, channel=9, data=[46, 127]),
   midi.NoteOnEvent(tick=128, channel=9, data=[46, 0]),
   midi.NoteOnEvent(tick=64, channel=9, data=[36, 127]),
   midi.NoteOnEvent(tick=0, channel=9, data=[42, 127]),
   midi.NoteOnEvent(tick=128, channel=9, data=[42, 0]),
   midi.NoteOnEvent(tick=64, channel=9, data=[46, 127]),
   midi.NoteOnEvent(tick=64, channel=9, data=[36, 0]),
   midi.NoteOnEvent(tick=64, channel=9, data=[46, 0]),
   midi.NoteOnEvent(tick=64, channel=9, data=[42, 127]),
   midi.NoteOnEvent(tick=128, channel=9, data=[42, 0]),
   midi.NoteOnEvent(tick=64, channel=9, data=[36, 127]),
   midi.NoteOnEvent(tick=0, channel=9, data=[46, 127]),
   midi.NoteOnEvent(tick=128, channel=9, data=[46, 0]),
   midi.NoteOnEvent(tick=0, channel=9, data=[36, 0]),
   midi.NoteOnEvent(tick=64, channel=9, data=[42, 127]),
   midi.NoteOnEvent(tick=128, channel=9, data=[42, 0]),
   midi.NoteOnEvent(tick=64, channel=9, data=[46, 127]),
   midi.NoteOnEvent(tick=128, channel=9, data=[46, 0]),
   midi.NoteOnEvent(tick=64, channel=9, data=[42, 127]),
   midi.NoteOnEvent(tick=128, channel=9, data=[42, 0]),
   midi.NoteOnEvent(tick=64, channel=9, data=[46, 127]),
   midi.NoteOnEvent(tick=128, channel=9, data=[46, 0]),
   midi.NoteOnEvent(tick=64, channel=9, data=[36, 127]),
   midi.NoteOnEvent(tick=0, channel=9, data=[42, 127]),
   midi.NoteOnEvent(tick=128, channel=9, data=[42, 0]),
   midi.NoteOnEvent(tick=64, channel=9, data=[46, 127]),
   midi.NoteOnEvent(tick=64, channel=9, data=[36, 0]),
   midi.NoteOnEvent(tick=64, channel=9, data=[46, 0]),
   midi.NoteOnEvent(tick=64, channel=9, data=[42, 127]),
   midi.NoteOnEvent(tick=128, channel=9, data=[42, 0]),
   midi.NoteOnEvent(tick=64, channel=9, data=[36, 127]),
   midi.NoteOnEvent(tick=0, channel=9, data=[46, 127]),
   midi.NoteOnEvent(tick=128, channel=9, data=[46, 0]),
   midi.NoteOnEvent(tick=0, channel=9, data=[36, 0]),
   midi.NoteOnEvent(tick=64, channel=9, data=[42, 127]),
   midi.NoteOnEvent(tick=128, channel=9, data=[42, 0]),
   midi.NoteOnEvent(tick=64, channel=9, data=[46, 127]),
   midi.NoteOnEvent(tick=128, channel=9, data=[46, 0]),
   midi.NoteOnEvent(tick=64, channel=9, data=[42, 127]),
   midi.NoteOnEvent(tick=128, channel=9, data=[42, 0]),
   midi.NoteOnEvent(tick=64, channel=9, data=[46, 127]),
   midi.NoteOnEvent(tick=128, channel=9, data=[46, 0]),
   midi.NoteOnEvent(tick=64, channel=9, data=[36, 127]),
   midi.NoteOnEvent(tick=0, channel=9, data=[42, 127]),
   midi.NoteOnEvent(tick=128, channel=9, data=[42, 0]),
   midi.NoteOnEvent(tick=64, channel=9, data=[46, 127]),
   midi.NoteOnEvent(tick=64, channel=9, data=[36, 0]),
   midi.NoteOnEvent(tick=64, channel=9, data=[46, 0]),
   midi.NoteOnEvent(tick=64, channel=9, data=[42, 127]),
   midi.NoteOnEvent(tick=128, channel=9, data=[42, 0]),
   midi.NoteOnEvent(tick=64, channel=9, data=[36, 127]),
   midi.NoteOnEvent(tick=0, channel=9, data=[46, 127]),
   midi.NoteOnEvent(tick=128, channel=9, data=[46, 0]),
   midi.NoteOnEvent(tick=0, channel=9, data=[36, 0]),
   midi.NoteOnEvent(tick=64, channel=9, data=[42, 127]),
   midi.NoteOnEvent(tick=128, channel=9, data=[42, 0]),
   midi.NoteOnEvent(tick=64, channel=9, data=[46, 127]),
   midi.NoteOnEvent(tick=128, channel=9, data=[46, 0]),
   midi.NoteOnEvent(tick=64, channel=9, data=[42, 127]),
   midi.NoteOnEvent(tick=128, channel=9, data=[42, 0]),
   midi.NoteOnEvent(tick=64, channel=9, data=[46, 127]),
   midi.NoteOnEvent(tick=128, channel=9, data=[46, 0]),
   midi.NoteOnEvent(tick=64, channel=9, data=[36, 127]),
   midi.NoteOnEvent(tick=0, channel=9, data=[42, 127]),
   midi.NoteOnEvent(tick=128, channel=9, data=[42, 0]),
   midi.NoteOnEvent(tick=64, channel=9, data=[46, 127]),
   midi.NoteOnEvent(tick=64, channel=9, data=[36, 0]),
   midi.NoteOnEvent(tick=64, channel=9, data=[46, 0]),
   midi.NoteOnEvent(tick=64, channel=9, data=[42, 127]),
   midi.NoteOnEvent(tick=128, channel=9, data=[42, 0]),
   midi.NoteOnEvent(tick=64, channel=9, data=[36, 127]),
   midi.NoteOnEvent(tick=0, channel=9, data=[46, 127]),
   midi.NoteOnEvent(tick=128, channel=9, data=[46, 0]),
   midi.NoteOnEvent(tick=0, channel=9, data=[36, 0]),
   midi.NoteOnEvent(tick=64, channel=9, data=[42, 127]),
   midi.NoteOnEvent(tick=128, channel=9, data=[42, 0]),
   midi.NoteOnEvent(tick=64, channel=9, data=[46, 127]),
   midi.NoteOnEvent(tick=128, channel=9, data=[46, 0]),
   midi.NoteOnEvent(tick=64, channel=9, data=[42, 127]),
   midi.NoteOnEvent(tick=128, channel=9, data=[42, 0]),
   midi.NoteOnEvent(tick=64, channel=9, data=[46, 127]),
   midi.NoteOnEvent(tick=128, channel=9, data=[46, 0]),
   midi.NoteOnEvent(tick=64, channel=9, data=[36, 127]),
   midi.NoteOnEvent(tick=0, channel=9, data=[42, 127]),
   midi.NoteOnEvent(tick=128, channel=9, data=[42, 0]),
   midi.NoteOnEvent(tick=64, channel=9, data=[46, 127]),
   midi.NoteOnEvent(tick=64, channel=9, data=[36, 0]),
   midi.NoteOnEvent(tick=64, channel=9, data=[46, 0]),
   midi.NoteOnEvent(tick=64, channel=9, data=[42, 127]),
   midi.NoteOnEvent(tick=128, channel=9, data=[42, 0]),
   midi.NoteOnEvent(tick=64, channel=9, data=[36, 127]),
   midi.NoteOnEvent(tick=0, channel=9, data=[46, 127]),
   midi.NoteOnEvent(tick=128, channel=9, data=[46, 0]),
   midi.NoteOnEvent(tick=0, channel=9, data=[36, 0]),
   midi.NoteOnEvent(tick=64, channel=9, data=[42, 127]),
   midi.NoteOnEvent(tick=128, channel=9, data=[42, 0]),
   midi.NoteOnEvent(tick=64, channel=9, data=[46, 127]),
   midi.NoteOnEvent(tick=128, channel=9, data=[46, 0]),
   midi.NoteOnEvent(tick=64, channel=9, data=[42, 127]),
   midi.NoteOnEvent(tick=128, channel=9, data=[42, 0]),
   midi.NoteOnEvent(tick=64, channel=9, data=[46, 127]),
   midi.NoteOnEvent(tick=128, channel=9, data=[46, 0]),
   midi.NoteOnEvent(tick=64, channel=9, data=[36, 127]),
   midi.NoteOnEvent(tick=0, channel=9, data=[42, 127]),
   midi.NoteOnEvent(tick=128, channel=9, data=[42, 0]),
   midi.NoteOnEvent(tick=64, channel=9, data=[46, 127]),
   midi.NoteOnEvent(tick=64, channel=9, data=[36, 0]),
   midi.NoteOnEvent(tick=64, channel=9, data=[46, 0]),
   midi.NoteOnEvent(tick=64, channel=9, data=[42, 127]),
   midi.NoteOnEvent(tick=128, channel=9, data=[42, 0]),
   midi.NoteOnEvent(tick=64, channel=9, data=[36, 127]),
   midi.NoteOnEvent(tick=0, channel=9, data=[46, 127]),
   midi.NoteOnEvent(tick=128, channel=9, data=[46, 0]),
   midi.NoteOnEvent(tick=0, channel=9, data=[36, 0]),
   midi.NoteOnEvent(tick=64, channel=9, data=[42, 127]),
   midi.NoteOnEvent(tick=128, channel=9, data=[42, 0]),
   midi.NoteOnEvent(tick=64, channel=9, data=[46, 127]),
   midi.NoteOnEvent(tick=128, channel=9, data=[46, 0]),
   midi.NoteOnEvent(tick=64, channel=9, data=[42, 127]),
   midi.NoteOnEvent(tick=128, channel=9, data=[42, 0]),
   midi.NoteOnEvent(tick=64, channel=9, data=[46, 127]),
   midi.NoteOnEvent(tick=128, channel=9, data=[46, 0]),
   midi.NoteOnEvent(tick=64, channel=9, data=[36, 127]),
   midi.NoteOnEvent(tick=0, channel=9, data=[42, 127]),
   midi.NoteOnEvent(tick=128, channel=9, data=[42, 0]),
   midi.NoteOnEvent(tick=64, channel=9, data=[46, 127]),
   midi.NoteOnEvent(tick=64, channel=9, data=[36, 0]),
   midi.NoteOnEvent(tick=64, channel=9, data=[46, 0]),
   midi.NoteOnEvent(tick=64, channel=9, data=[42, 127]),
   midi.NoteOnEvent(tick=128, channel=9, data=[42, 0]),
   midi.NoteOnEvent(tick=64, channel=9, data=[36, 127]),
   midi.NoteOnEvent(tick=0, channel=9, data=[46, 127]),
   midi.NoteOnEvent(tick=128, channel=9, data=[46, 0]),
   midi.NoteOnEvent(tick=0, channel=9, data=[36, 0]),
   midi.NoteOnEvent(tick=64, channel=9, data=[42, 127]),
   midi.NoteOnEvent(tick=128, channel=9, data=[42, 0]),
   midi.NoteOnEvent(tick=64, channel=9, data=[46, 127]),
   midi.NoteOnEvent(tick=128, channel=9, data=[46, 0]),
   midi.NoteOnEvent(tick=64, channel=9, data=[42, 127]),
   midi.NoteOnEvent(tick=128, channel=9, data=[42, 0]),
   midi.NoteOnEvent(tick=64, channel=9, data=[46, 127]),
   midi.NoteOnEvent(tick=128, channel=9, data=[46, 0]),
   midi.NoteOnEvent(tick=64, channel=9, data=[36, 127]),
   midi.NoteOnEvent(tick=0, channel=9, data=[42, 127]),
   midi.NoteOnEvent(tick=128, channel=9, data=[42, 0]),
   midi.NoteOnEvent(tick=64, channel=9, data=[46, 127]),
   midi.NoteOnEvent(tick=64, channel=9, data=[36, 0]),
   midi.NoteOnEvent(tick=64, channel=9, data=[46, 0]),
   midi.NoteOnEvent(tick=64, channel=9, data=[42, 127]),
   midi.NoteOnEvent(tick=128, channel=9, data=[42, 0]),
   midi.NoteOnEvent(tick=64, channel=9, data=[36, 127]),
   midi.NoteOnEvent(tick=0, channel=9, data=[46, 127]),
   midi.NoteOnEvent(tick=128, channel=9, data=[46, 0]),
   midi.NoteOnEvent(tick=0, channel=9, data=[36, 0]),
   midi.NoteOnEvent(tick=64, channel=9, data=[42, 127]),
   midi.NoteOnEvent(tick=128, channel=9, data=[42, 0]),
   midi.NoteOnEvent(tick=64, channel=9, data=[46, 127]),
   midi.NoteOnEvent(tick=128, channel=9, data=[46, 0]),
   midi.NoteOnEvent(tick=64, channel=9, data=[42, 127]),
   midi.NoteOnEvent(tick=128, channel=9, data=[42, 0]),
   midi.NoteOnEvent(tick=64, channel=9, data=[46, 127]),
   midi.NoteOnEvent(tick=128, channel=9, data=[46, 0]),
   midi.NoteOnEvent(tick=64, channel=9, data=[36, 127]),
   midi.NoteOnEvent(tick=0, channel=9, data=[42, 127]),
   midi.NoteOnEvent(tick=128, channel=9, data=[42, 0]),
   midi.NoteOnEvent(tick=64, channel=9, data=[46, 127]),
   midi.NoteOnEvent(tick=64, channel=9, data=[36, 0]),
   midi.NoteOnEvent(tick=64, channel=9, data=[46, 0]),
   midi.NoteOnEvent(tick=64, channel=9, data=[42, 127]),
   midi.NoteOnEvent(tick=128, channel=9, data=[42, 0]),
   midi.NoteOnEvent(tick=64, channel=9, data=[36, 127]),
   midi.NoteOnEvent(tick=0, channel=9, data=[46, 127]),
   midi.NoteOnEvent(tick=128, channel=9, data=[46, 0]),
   midi.NoteOnEvent(tick=0, channel=9, data=[36, 0]),
   midi.NoteOnEvent(tick=64, channel=9, data=[42, 127]),
   midi.NoteOnEvent(tick=128, channel=9, data=[42, 0]),
   midi.NoteOnEvent(tick=64, channel=9, data=[46, 127]),
   midi.NoteOnEvent(tick=128, channel=9, data=[46, 0]),
   midi.NoteOnEvent(tick=64, channel=9, data=[42, 127]),
   midi.NoteOnEvent(tick=128, channel=9, data=[42, 0]),
   midi.NoteOnEvent(tick=64, channel=9, data=[46, 127]),
   midi.NoteOnEvent(tick=128, channel=9, data=[46, 0]),
   midi.NoteOnEvent(tick=64, channel=9, data=[36, 127]),
   midi.NoteOnEvent(tick=0, channel=9, data=[42, 127]),
   midi.NoteOnEvent(tick=128, channel=9, data=[42, 0]),
   midi.NoteOnEvent(tick=64, channel=9, data=[46, 127]),
   midi.NoteOnEvent(tick=64, channel=9, data=[36, 0]),
   midi.NoteOnEvent(tick=64, channel=9, data=[46, 0]),
   midi.NoteOnEvent(tick=64, channel=9, data=[42, 127]),
   midi.NoteOnEvent(tick=128, channel=9, data=[42, 0]),
   midi.NoteOnEvent(tick=64, channel=9, data=[36, 127]),
   midi.NoteOnEvent(tick=0, channel=9, data=[46, 127]),
   midi.NoteOnEvent(tick=128, channel=9, data=[46, 0]),
   midi.NoteOnEvent(tick=0, channel=9, data=[36, 0]),
   midi.NoteOnEvent(tick=64, channel=9, data=[42, 127]),
   midi.NoteOnEvent(tick=128, channel=9, data=[42, 0]),
   midi.NoteOnEvent(tick=64, channel=9, data=[46, 127]),
   midi.NoteOnEvent(tick=128, channel=9, data=[46, 0]),
   midi.NoteOnEvent(tick=64, channel=9, data=[42, 127]),
   midi.NoteOnEvent(tick=128, channel=9, data=[42, 0]),
   midi.NoteOnEvent(tick=64, channel=9, data=[46, 127]),
   midi.NoteOnEvent(tick=128, channel=9, data=[46, 0]),
   midi.NoteOnEvent(tick=64, channel=9, data=[36, 127]),
   midi.NoteOnEvent(tick=0, channel=9, data=[42, 127]),
   midi.NoteOnEvent(tick=128, channel=9, data=[42, 0]),
   midi.NoteOnEvent(tick=64, channel=9, data=[46, 127]),
   midi.NoteOnEvent(tick=64, channel=9, data=[36, 0]),
   midi.NoteOnEvent(tick=64, channel=9, data=[46, 0]),
   midi.NoteOnEvent(tick=64, channel=9, data=[42, 127]),
   midi.NoteOnEvent(tick=128, channel=9, data=[42, 0]),
   midi.NoteOnEvent(tick=64, channel=9, data=[36, 127]),
   midi.NoteOnEvent(tick=0, channel=9, data=[46, 127]),
   midi.NoteOnEvent(tick=128, channel=9, data=[46, 0]),
   midi.NoteOnEvent(tick=0, channel=9, data=[36, 0]),
   midi.NoteOnEvent(tick=64, channel=9, data=[42, 127]),
   midi.NoteOnEvent(tick=128, channel=9, data=[42, 0]),
   midi.NoteOnEvent(tick=64, channel=9, data=[46, 127]),
   midi.NoteOnEvent(tick=128, channel=9, data=[46, 0]),
   midi.NoteOnEvent(tick=64, channel=9, data=[42, 127]),
   midi.NoteOnEvent(tick=128, channel=9, data=[42, 0]),
   midi.NoteOnEvent(tick=64, channel=9, data=[46, 127]),
   midi.NoteOnEvent(tick=128, channel=9, data=[46, 0]),
   midi.NoteOnEvent(tick=64, channel=9, data=[36, 127]),
   midi.NoteOnEvent(tick=0, channel=9, data=[42, 127]),
   midi.NoteOnEvent(tick=128, channel=9, data=[42, 0]),
   midi.NoteOnEvent(tick=64, channel=9, data=[46, 127]),
   midi.NoteOnEvent(tick=64, channel=9, data=[36, 0]),
   midi.NoteOnEvent(tick=64, channel=9, data=[46, 0]),
   midi.NoteOnEvent(tick=64, channel=9, data=[42, 127]),
   midi.NoteOnEvent(tick=128, channel=9, data=[42, 0]),
   midi.NoteOnEvent(tick=64, channel=9, data=[36, 127]),
   midi.NoteOnEvent(tick=0, channel=9, data=[46, 127]),
   midi.NoteOnEvent(tick=128, channel=9, data=[46, 0]),
   midi.NoteOnEvent(tick=0, channel=9, data=[36, 0]),
   midi.NoteOnEvent(tick=64, channel=9, data=[42, 127]),
   midi.NoteOnEvent(tick=128, channel=9, data=[42, 0]),
   midi.NoteOnEvent(tick=64, channel=9, data=[46, 127]),
   midi.NoteOnEvent(tick=128, channel=9, data=[46, 0]),
   midi.NoteOnEvent(tick=64, channel=9, data=[36, 127]),
   midi.NoteOnEvent(tick=0, channel=9, data=[42, 127]),
   midi.NoteOnEvent(tick=128, channel=9, data=[42, 0]),
   midi.NoteOnEvent(tick=0, channel=9, data=[36, 0]),
   midi.NoteOnEvent(tick=64, channel=9, data=[46, 127]),
   midi.NoteOnEvent(tick=128, channel=9, data=[46, 0]),
   midi.NoteOnEvent(tick=64, channel=9, data=[36, 127]),
   midi.NoteOnEvent(tick=0, channel=9, data=[42, 127]),
   midi.NoteOnEvent(tick=128, channel=9, data=[42, 0]),
   midi.NoteOnEvent(tick=64, channel=9, data=[46, 127]),
   midi.NoteOnEvent(tick=64, channel=9, data=[36, 0]),
   midi.NoteOnEvent(tick=64, channel=9, data=[46, 0]),
   midi.NoteOnEvent(tick=64, channel=9, data=[42, 127]),
   midi.NoteOnEvent(tick=128, channel=9, data=[42, 0]),
   midi.NoteOnEvent(tick=64, channel=9, data=[36, 127]),
   midi.NoteOnEvent(tick=0, channel=9, data=[46, 127]),
   midi.NoteOnEvent(tick=128, channel=9, data=[46, 0]),
   midi.NoteOnEvent(tick=0, channel=9, data=[36, 0]),
   midi.NoteOnEvent(tick=64, channel=9, data=[42, 127]),
   midi.NoteOnEvent(tick=128, channel=9, data=[42, 0]),
   midi.NoteOnEvent(tick=64, channel=9, data=[46, 127]),
   midi.NoteOnEvent(tick=128, channel=9, data=[46, 0]),
   midi.NoteOnEvent(tick=64, channel=9, data=[36, 127]),
   midi.NoteOnEvent(tick=0, channel=9, data=[42, 127]),
   midi.NoteOnEvent(tick=128, channel=9, data=[42, 0]),
   midi.NoteOnEvent(tick=0, channel=9, data=[36, 0]),
   midi.NoteOnEvent(tick=64, channel=9, data=[46, 127]),
   midi.NoteOnEvent(tick=128, channel=9, data=[46, 0]),
   midi.NoteOnEvent(tick=64, channel=9, data=[36, 127]),
   midi.NoteOnEvent(tick=0, channel=9, data=[42, 127]),
   midi.NoteOnEvent(tick=128, channel=9, data=[42, 0]),
   midi.NoteOnEvent(tick=64, channel=9, data=[46, 127]),
   midi.NoteOnEvent(tick=64, channel=9, data=[36, 0]),
   midi.NoteOnEvent(tick=64, channel=9, data=[46, 0]),
   midi.NoteOnEvent(tick=64, channel=9, data=[42, 127]),
   midi.NoteOnEvent(tick=128, channel=9, data=[42, 0]),
   midi.NoteOnEvent(tick=64, channel=9, data=[36, 127]),
   midi.NoteOnEvent(tick=0, channel=9, data=[46, 127]),
   midi.NoteOnEvent(tick=128, channel=9, data=[46, 0]),
   midi.NoteOnEvent(tick=0, channel=9, data=[36, 0]),
   midi.NoteOnEvent(tick=64, channel=9, data=[42, 127]),
   midi.NoteOnEvent(tick=128, channel=9, data=[42, 0]),
   midi.NoteOnEvent(tick=64, channel=9, data=[46, 127]),
   midi.NoteOnEvent(tick=128, channel=9, data=[46, 0]),
   midi.NoteOnEvent(tick=64, channel=9, data=[36, 127]),
   midi.NoteOnEvent(tick=0, channel=9, data=[42, 127]),
   midi.NoteOnEvent(tick=128, channel=9, data=[42, 0]),
   midi.NoteOnEvent(tick=0, channel=9, data=[36, 0]),
   midi.NoteOnEvent(tick=64, channel=9, data=[46, 127]),
   midi.NoteOnEvent(tick=128, channel=9, data=[46, 0]),
   midi.NoteOnEvent(tick=64, channel=9, data=[36, 127]),
   midi.NoteOnEvent(tick=0, channel=9, data=[42, 127]),
   midi.NoteOnEvent(tick=128, channel=9, data=[42, 0]),
   midi.NoteOnEvent(tick=64, channel=9, data=[46, 127]),
   midi.NoteOnEvent(tick=64, channel=9, data=[36, 0]),
   midi.NoteOnEvent(tick=64, channel=9, data=[46, 0]),
   midi.NoteOnEvent(tick=64, channel=9, data=[42, 127]),
   midi.NoteOnEvent(tick=128, channel=9, data=[42, 0]),
   midi.NoteOnEvent(tick=64, channel=9, data=[36, 127]),
   midi.NoteOnEvent(tick=0, channel=9, data=[46, 127]),
   midi.NoteOnEvent(tick=128, channel=9, data=[46, 0]),
   midi.NoteOnEvent(tick=0, channel=9, data=[36, 0]),
   midi.NoteOnEvent(tick=64, channel=9, data=[42, 127]),
   midi.NoteOnEvent(tick=128, channel=9, data=[42, 0]),
   midi.NoteOnEvent(tick=64, channel=9, data=[46, 127]),
   midi.NoteOnEvent(tick=128, channel=9, data=[46, 0]),
   midi.NoteOnEvent(tick=64, channel=9, data=[36, 127]),
   midi.NoteOnEvent(tick=0, channel=9, data=[42, 127]),
   midi.NoteOnEvent(tick=128, channel=9, data=[42, 0]),
   midi.NoteOnEvent(tick=0, channel=9, data=[36, 0]),
   midi.NoteOnEvent(tick=64, channel=9, data=[46, 127]),
   midi.NoteOnEvent(tick=128, channel=9, data=[46, 0]),
   midi.NoteOnEvent(tick=64, channel=9, data=[36, 127]),
   midi.NoteOnEvent(tick=0, channel=9, data=[42, 127]),
   midi.NoteOnEvent(tick=128, channel=9, data=[42, 0]),
   midi.NoteOnEvent(tick=64, channel=9, data=[46, 127]),
   midi.NoteOnEvent(tick=64, channel=9, data=[36, 0]),
   midi.NoteOnEvent(tick=64, channel=9, data=[46, 0]),
   midi.NoteOnEvent(tick=64, channel=9, data=[42, 127]),
   midi.NoteOnEvent(tick=128, channel=9, data=[42, 0]),
   midi.NoteOnEvent(tick=64, channel=9, data=[36, 127]),
   midi.NoteOnEvent(tick=0, channel=9, data=[46, 127]),
   midi.NoteOnEvent(tick=128, channel=9, data=[46, 0]),
   midi.NoteOnEvent(tick=0, channel=9, data=[36, 0]),
   midi.NoteOnEvent(tick=64, channel=9, data=[42, 127]),
   midi.NoteOnEvent(tick=128, channel=9, data=[42, 0]),
   midi.NoteOnEvent(tick=64, channel=9, data=[46, 127]),
   midi.NoteOnEvent(tick=128, channel=9, data=[46, 0]),
   midi.NoteOnEvent(tick=64, channel=9, data=[36, 127]),
   midi.NoteOnEvent(tick=0, channel=9, data=[42, 127]),
   midi.NoteOnEvent(tick=128, channel=9, data=[42, 0]),
   midi.NoteOnEvent(tick=0, channel=9, data=[36, 0]),
   midi.NoteOnEvent(tick=64, channel=9, data=[46, 127]),
   midi.NoteOnEvent(tick=128, channel=9, data=[46, 0]),
   midi.NoteOnEvent(tick=64, channel=9, data=[36, 127]),
   midi.NoteOnEvent(tick=0, channel=9, data=[42, 127]),
   midi.NoteOnEvent(tick=128, channel=9, data=[42, 0]),
   midi.NoteOnEvent(tick=64, channel=9, data=[46, 127]),
   midi.NoteOnEvent(tick=64, channel=9, data=[36, 0]),
   midi.NoteOnEvent(tick=64, channel=9, data=[46, 0]),
   midi.NoteOnEvent(tick=64, channel=9, data=[42, 127]),
   midi.NoteOnEvent(tick=128, channel=9, data=[42, 0]),
   midi.NoteOnEvent(tick=64, channel=9, data=[36, 127]),
   midi.NoteOnEvent(tick=0, channel=9, data=[46, 127]),
   midi.NoteOnEvent(tick=128, channel=9, data=[46, 0]),
   midi.NoteOnEvent(tick=0, channel=9, data=[36, 0]),
   midi.NoteOnEvent(tick=64, channel=9, data=[42, 127]),
   midi.NoteOnEvent(tick=128, channel=9, data=[42, 0]),
   midi.NoteOnEvent(tick=64, channel=9, data=[46, 127]),
   midi.NoteOnEvent(tick=128, channel=9, data=[46, 0]),
   midi.NoteOnEvent(tick=64, channel=9, data=[36, 127]),
   midi.NoteOnEvent(tick=0, channel=9, data=[42, 127]),
   midi.NoteOnEvent(tick=128, channel=9, data=[42, 0]),
   midi.NoteOnEvent(tick=0, channel=9, data=[36, 0]),
   midi.NoteOnEvent(tick=64, channel=9, data=[46, 127]),
   midi.NoteOnEvent(tick=128, channel=9, data=[46, 0]),
   midi.NoteOnEvent(tick=64, channel=9, data=[36, 127]),
   midi.NoteOnEvent(tick=0, channel=9, data=[42, 127]),
   midi.NoteOnEvent(tick=128, channel=9, data=[42, 0]),
   midi.NoteOnEvent(tick=64, channel=9, data=[46, 127]),
   midi.NoteOnEvent(tick=64, channel=9, data=[36, 0]),
   midi.NoteOnEvent(tick=64, channel=9, data=[46, 0]),
   midi.NoteOnEvent(tick=64, channel=9, data=[42, 127]),
   midi.NoteOnEvent(tick=128, channel=9, data=[42, 0]),
   midi.NoteOnEvent(tick=64, channel=9, data=[36, 127]),
   midi.NoteOnEvent(tick=0, channel=9, data=[46, 127]),
   midi.NoteOnEvent(tick=128, channel=9, data=[46, 0]),
   midi.NoteOnEvent(tick=0, channel=9, data=[36, 0]),
   midi.NoteOnEvent(tick=64, channel=9, data=[42, 127]),
   midi.NoteOnEvent(tick=128, channel=9, data=[42, 0]),
   midi.NoteOnEvent(tick=64, channel=9, data=[46, 127]),
   midi.NoteOnEvent(tick=128, channel=9, data=[46, 0]),
   midi.NoteOnEvent(tick=64, channel=9, data=[36, 127]),
   midi.NoteOnEvent(tick=0, channel=9, data=[42, 127]),
   midi.NoteOnEvent(tick=128, channel=9, data=[42, 0]),
   midi.NoteOnEvent(tick=0, channel=9, data=[36, 0]),
   midi.NoteOnEvent(tick=64, channel=9, data=[46, 127]),
   midi.NoteOnEvent(tick=128, channel=9, data=[46, 0]),
   midi.NoteOnEvent(tick=64, channel=9, data=[36, 127]),
   midi.NoteOnEvent(tick=0, channel=9, data=[42, 127]),
   midi.NoteOnEvent(tick=128, channel=9, data=[42, 0]),
   midi.NoteOnEvent(tick=64, channel=9, data=[46, 127]),
   midi.NoteOnEvent(tick=64, channel=9, data=[36, 0]),
   midi.NoteOnEvent(tick=64, channel=9, data=[46, 0]),
   midi.NoteOnEvent(tick=64, channel=9, data=[42, 127]),
   midi.NoteOnEvent(tick=128, channel=9, data=[42, 0]),
   midi.NoteOnEvent(tick=64, channel=9, data=[36, 127]),
   midi.NoteOnEvent(tick=0, channel=9, data=[46, 127]),
   midi.NoteOnEvent(tick=128, channel=9, data=[46, 0]),
   midi.NoteOnEvent(tick=0, channel=9, data=[36, 0]),
   midi.NoteOnEvent(tick=64, channel=9, data=[42, 127]),
   midi.NoteOnEvent(tick=128, channel=9, data=[42, 0]),
   midi.NoteOnEvent(tick=64, channel=9, data=[45, 127]),
   midi.NoteOnEvent(tick=0, channel=9, data=[36, 127]),
   midi.NoteOnEvent(tick=128, channel=9, data=[36, 0]),
   midi.NoteOnEvent(tick=0, channel=9, data=[45, 0]),
   midi.NoteOnEvent(tick=64, channel=9, data=[36, 127]),
   midi.NoteOnEvent(tick=0, channel=9, data=[45, 127]),
   midi.NoteOnEvent(tick=256, channel=9, data=[45, 0]),
   midi.NoteOnEvent(tick=0, channel=9, data=[36, 0]),
   midi.NoteOnEvent(tick=128, channel=9, data=[36, 127]),
   midi.NoteOnEvent(tick=128, channel=9, data=[36, 0]),
   midi.NoteOnEvent(tick=448, channel=9, data=[36, 127]),
   midi.NoteOnEvent(tick=128, channel=9, data=[36, 0]),
   midi.NoteOnEvent(tick=256, channel=9, data=[36, 127]),
   midi.NoteOnEvent(tick=128, channel=9, data=[36, 0]),
   midi.NoteOnEvent(tick=64, channel=9, data=[38, 127]),
   midi.NoteOnEvent(tick=128, channel=9, data=[38, 0]),
   midi.NoteOnEvent(tick=256, channel=9, data=[36, 127]),
   midi.NoteOnEvent(tick=128, channel=9, data=[36, 0]),
   midi.NoteOnEvent(tick=448, channel=9, data=[36, 127]),
   midi.NoteOnEvent(tick=128, channel=9, data=[36, 0]),
   midi.NoteOnEvent(tick=256, channel=9, data=[36, 127]),
   midi.NoteOnEvent(tick=128, channel=9, data=[36, 0]),
   midi.NoteOnEvent(tick=64, channel=9, data=[38, 127]),
   midi.NoteOnEvent(tick=128, channel=9, data=[38, 0]),
   midi.NoteOnEvent(tick=256, channel=9, data=[36, 127]),
   midi.NoteOnEvent(tick=256, channel=9, data=[36, 0]),
   midi.NoteOnEvent(tick=320, channel=9, data=[36, 127]),
   midi.NoteOnEvent(tick=128, channel=9, data=[36, 0]),
   midi.NoteOnEvent(tick=256, channel=9, data=[36, 127]),
   midi.NoteOnEvent(tick=128, channel=9, data=[36, 0]),
   midi.NoteOnEvent(tick=64, channel=9, data=[38, 127]),
   midi.NoteOnEvent(tick=128, channel=9, data=[38, 0]),
   midi.NoteOnEvent(tick=256, channel=9, data=[36, 127]),
   midi.NoteOnEvent(tick=128, channel=9, data=[36, 0]),
   midi.NoteOnEvent(tick=448, channel=9, data=[36, 127]),
   midi.NoteOnEvent(tick=128, channel=9, data=[36, 0]),
   midi.NoteOnEvent(tick=256, channel=9, data=[36, 127]),
   midi.NoteOnEvent(tick=128, channel=9, data=[36, 0]),
   midi.NoteOnEvent(tick=64, channel=9, data=[38, 127]),
   midi.NoteOnEvent(tick=128, channel=9, data=[38, 0]),
   midi.NoteOnEvent(tick=256, channel=9, data=[36, 127]),
   midi.NoteOnEvent(tick=256, channel=9, data=[36, 0]),
   midi.NoteOnEvent(tick=320, channel=9, data=[36, 127]),
   midi.NoteOnEvent(tick=128, channel=9, data=[36, 0]),
   midi.NoteOnEvent(tick=256, channel=9, data=[36, 127]),
   midi.NoteOnEvent(tick=128, channel=9, data=[36, 0]),
   midi.NoteOnEvent(tick=64, channel=9, data=[38, 127]),
   midi.NoteOnEvent(tick=128, channel=9, data=[38, 0]),
   midi.NoteOnEvent(tick=256, channel=9, data=[36, 127]),
   midi.NoteOnEvent(tick=128, channel=9, data=[36, 0]),
   midi.NoteOnEvent(tick=448, channel=9, data=[36, 127]),
   midi.NoteOnEvent(tick=128, channel=9, data=[36, 0]),
   midi.NoteOnEvent(tick=256, channel=9, data=[36, 127]),
   midi.NoteOnEvent(tick=128, channel=9, data=[36, 0]),
   midi.NoteOnEvent(tick=64, channel=9, data=[38, 127]),
   midi.NoteOnEvent(tick=128, channel=9, data=[38, 0]),
   midi.NoteOnEvent(tick=256, channel=9, data=[36, 127]),
   midi.NoteOnEvent(tick=128, channel=9, data=[36, 0]),
   midi.NoteOnEvent(tick=64, channel=9, data=[36, 127]),
   midi.NoteOnEvent(tick=128, channel=9, data=[36, 0]),
   midi.NoteOnEvent(tick=64, channel=9, data=[38, 127]),
   midi.NoteOnEvent(tick=128, channel=9, data=[38, 0]),
   midi.NoteOnEvent(tick=64, channel=9, data=[36, 127]),
   midi.NoteOnEvent(tick=128, channel=9, data=[36, 0]),
   midi.NoteOnEvent(tick=64, channel=9, data=[36, 127]),
   midi.NoteOnEvent(tick=128, channel=9, data=[36, 0]),
   midi.NoteOnEvent(tick=64, channel=9, data=[38, 127]),
   midi.NoteOnEvent(tick=128, channel=9, data=[38, 0]),
   midi.NoteOnEvent(tick=64, channel=9, data=[36, 127]),
   midi.NoteOnEvent(tick=128, channel=9, data=[36, 0]),
   midi.NoteOnEvent(tick=64, channel=9, data=[36, 127]),
   midi.NoteOnEvent(tick=128, channel=9, data=[36, 0]),
   midi.NoteOnEvent(tick=64, channel=9, data=[38, 127]),
   midi.NoteOnEvent(tick=36, channel=9, data=[38, 127]),
   midi.NoteOnEvent(tick=92, channel=9, data=[38, 0]),
   midi.NoteOnEvent(tick=64, channel=9, data=[36, 127]),
   midi.NoteOnEvent(tick=100, channel=9, data=[38, 0]),
   midi.NoteOnEvent(tick=28, channel=9, data=[36, 0]),
   midi.NoteOnEvent(tick=256, channel=9, data=[36, 127]),
   midi.NoteOnEvent(tick=128, channel=9, data=[36, 0]),
   midi.NoteOnEvent(tick=64, channel=9, data=[45, 127]),
   midi.NoteOnEvent(tick=40, channel=9, data=[45, 127]),
   midi.NoteOnEvent(tick=88, channel=9, data=[45, 0]),
   midi.NoteOnEvent(tick=64, channel=9, data=[36, 127]),
   midi.NoteOnEvent(tick=104, channel=9, data=[45, 0]),
   midi.NoteOnEvent(tick=24, channel=9, data=[36, 0]),
   midi.NoteOnEvent(tick=64, channel=9, data=[38, 127]),
   midi.NoteOnEvent(tick=64, channel=9, data=[38, 0]),
   midi.NoteOnEvent(tick=32, channel=9, data=[38, 127]),
   midi.NoteOnEvent(tick=64, channel=9, data=[38, 0]),
   midi.NoteOnEvent(tick=32, channel=9, data=[36, 127]),
   midi.NoteOnEvent(tick=128, channel=9, data=[36, 0]),
   midi.NoteOnEvent(tick=64, channel=9, data=[36, 127]),
   midi.NoteOnEvent(tick=128, channel=9, data=[36, 0]),
   midi.NoteOnEvent(tick=64, channel=9, data=[36, 127]),
   midi.NoteOnEvent(tick=128, channel=9, data=[36, 0]),
   midi.NoteOnEvent(tick=64, channel=9, data=[38, 127]),
   midi.NoteOnEvent(tick=128, channel=9, data=[38, 0]),
   midi.NoteOnEvent(tick=64, channel=9, data=[36, 127]),
   midi.NoteOnEvent(tick=128, channel=9, data=[36, 0]),
   midi.NoteOnEvent(tick=64, channel=9, data=[36, 127]),
   midi.NoteOnEvent(tick=128, channel=9, data=[36, 0]),
   midi.NoteOnEvent(tick=64, channel=9, data=[38, 127]),
   midi.NoteOnEvent(tick=128, channel=9, data=[38, 0]),
   midi.NoteOnEvent(tick=64, channel=9, data=[36, 127]),
   midi.NoteOnEvent(tick=128, channel=9, data=[36, 0]),
   midi.NoteOnEvent(tick=64, channel=9, data=[36, 127]),
   midi.NoteOnEvent(tick=128, channel=9, data=[36, 0]),
   midi.NoteOnEvent(tick=64, channel=9, data=[38, 127]),
   midi.NoteOnEvent(tick=36, channel=9, data=[38, 127]),
   midi.NoteOnEvent(tick=92, channel=9, data=[38, 0]),
   midi.NoteOnEvent(tick=64, channel=9, data=[36, 127]),
   midi.NoteOnEvent(tick=100, channel=9, data=[38, 0]),
   midi.NoteOnEvent(tick=28, channel=9, data=[36, 0]),
   midi.NoteOnEvent(tick=256, channel=9, data=[36, 127]),
   midi.NoteOnEvent(tick=128, channel=9, data=[36, 0]),
   midi.NoteOnEvent(tick=64, channel=9, data=[45, 127]),
   midi.NoteOnEvent(tick=40, channel=9, data=[45, 127]),
   midi.NoteOnEvent(tick=88, channel=9, data=[45, 0]),
   midi.NoteOnEvent(tick=64, channel=9, data=[36, 127]),
   midi.NoteOnEvent(tick=104, channel=9, data=[45, 0]),
   midi.NoteOnEvent(tick=24, channel=9, data=[36, 0]),
   midi.NoteOnEvent(tick=64, channel=9, data=[38, 127]),
   midi.NoteOnEvent(tick=64, channel=9, data=[38, 0]),
   midi.NoteOnEvent(tick=32, channel=9, data=[38, 127]),
   midi.NoteOnEvent(tick=64, channel=9, data=[38, 0]),
   midi.NoteOnEvent(tick=32, channel=9, data=[36, 127]),
   midi.NoteOnEvent(tick=128, channel=9, data=[36, 0]),
   midi.NoteOnEvent(tick=64, channel=9, data=[36, 127]),
   midi.NoteOnEvent(tick=128, channel=9, data=[36, 0]),
   midi.NoteOnEvent(tick=64, channel=9, data=[36, 127]),
   midi.NoteOnEvent(tick=128, channel=9, data=[36, 0]),
   midi.NoteOnEvent(tick=64, channel=9, data=[38, 127]),
   midi.NoteOnEvent(tick=128, channel=9, data=[38, 0]),
   midi.NoteOnEvent(tick=64, channel=9, data=[36, 127]),
   midi.NoteOnEvent(tick=128, channel=9, data=[36, 0]),
   midi.NoteOnEvent(tick=64, channel=9, data=[36, 127]),
   midi.NoteOnEvent(tick=128, channel=9, data=[36, 0]),
   midi.NoteOnEvent(tick=64, channel=9, data=[38, 127]),
   midi.NoteOnEvent(tick=128, channel=9, data=[38, 0]),
   midi.NoteOnEvent(tick=64, channel=9, data=[36, 127]),
   midi.NoteOnEvent(tick=128, channel=9, data=[36, 0]),
   midi.NoteOnEvent(tick=64, channel=9, data=[36, 127]),
   midi.NoteOnEvent(tick=128, channel=9, data=[36, 0]),
   midi.NoteOnEvent(tick=64, channel=9, data=[38, 127]),
   midi.NoteOnEvent(tick=36, channel=9, data=[38, 127]),
   midi.NoteOnEvent(tick=92, channel=9, data=[38, 0]),
   midi.NoteOnEvent(tick=64, channel=9, data=[36, 127]),
   midi.NoteOnEvent(tick=100, channel=9, data=[38, 0]),
   midi.NoteOnEvent(tick=28, channel=9, data=[36, 0]),
   midi.NoteOnEvent(tick=256, channel=9, data=[36, 127]),
   midi.NoteOnEvent(tick=128, channel=9, data=[36, 0]),
   midi.NoteOnEvent(tick=64, channel=9, data=[45, 127]),
   midi.NoteOnEvent(tick=40, channel=9, data=[45, 127]),
   midi.NoteOnEvent(tick=88, channel=9, data=[45, 0]),
   midi.NoteOnEvent(tick=64, channel=9, data=[36, 127]),
   midi.NoteOnEvent(tick=104, channel=9, data=[45, 0]),
   midi.NoteOnEvent(tick=24, channel=9, data=[36, 0]),
   midi.NoteOnEvent(tick=64, channel=9, data=[38, 127]),
   midi.NoteOnEvent(tick=64, channel=9, data=[38, 0]),
   midi.NoteOnEvent(tick=32, channel=9, data=[38, 127]),
   midi.NoteOnEvent(tick=64, channel=9, data=[38, 0]),
   midi.NoteOnEvent(tick=32, channel=9, data=[36, 127]),
   midi.NoteOnEvent(tick=128, channel=9, data=[36, 0]),
   midi.NoteOnEvent(tick=64, channel=9, data=[36, 127]),
   midi.NoteOnEvent(tick=128, channel=9, data=[36, 0]),
   midi.NoteOnEvent(tick=64, channel=9, data=[36, 127]),
   midi.NoteOnEvent(tick=128, channel=9, data=[36, 0]),
   midi.NoteOnEvent(tick=64, channel=9, data=[38, 127]),
   midi.NoteOnEvent(tick=128, channel=9, data=[38, 0]),
   midi.NoteOnEvent(tick=64, channel=9, data=[36, 127]),
   midi.NoteOnEvent(tick=128, channel=9, data=[36, 0]),
   midi.NoteOnEvent(tick=64, channel=9, data=[36, 127]),
   midi.NoteOnEvent(tick=128, channel=9, data=[36, 0]),
   midi.NoteOnEvent(tick=64, channel=9, data=[38, 127]),
   midi.NoteOnEvent(tick=128, channel=9, data=[38, 0]),
   midi.NoteOnEvent(tick=64, channel=9, data=[36, 127]),
   midi.NoteOnEvent(tick=128, channel=9, data=[36, 0]),
   midi.NoteOnEvent(tick=64, channel=9, data=[36, 127]),
   midi.NoteOnEvent(tick=128, channel=9, data=[36, 0]),
   midi.NoteOnEvent(tick=64, channel=9, data=[36, 127]),
   midi.NoteOnEvent(tick=128, channel=9, data=[36, 0]),
   midi.NoteOnEvent(tick=1024, channel=9, data=[38, 127]),
   midi.NoteOnEvent(tick=64, channel=9, data=[38, 0]),
   midi.NoteOnEvent(tick=32, channel=9, data=[38, 127]),
   midi.NoteOnEvent(tick=64, channel=9, data=[38, 0]),
   midi.NoteOnEvent(tick=32, channel=9, data=[36, 127]),
   midi.NoteOnEvent(tick=128, channel=9, data=[36, 0]),
   midi.NoteOnEvent(tick=64, channel=9, data=[36, 127]),
   midi.NoteOnEvent(tick=128, channel=9, data=[36, 0]),
   midi.NoteOnEvent(tick=64, channel=9, data=[46, 127]),
   midi.NoteOnEvent(tick=128, channel=9, data=[46, 0]),
   midi.NoteOnEvent(tick=64, channel=9, data=[42, 127]),
   midi.NoteOnEvent(tick=128, channel=9, data=[42, 0]),
   midi.NoteOnEvent(tick=64, channel=9, data=[36, 127]),
   midi.NoteOnEvent(tick=0, channel=9, data=[46, 127]),
   midi.NoteOnEvent(tick=128, channel=9, data=[46, 0]),
   midi.NoteOnEvent(tick=0, channel=9, data=[36, 0]),
   midi.NoteOnEvent(tick=64, channel=9, data=[42, 127]),
   midi.NoteOnEvent(tick=128, channel=9, data=[42, 0]),
   midi.NoteOnEvent(tick=64, channel=9, data=[46, 127]),
   midi.NoteOnEvent(tick=128, channel=9, data=[46, 0]),
   midi.NoteOnEvent(tick=64, channel=9, data=[42, 127]),
   midi.NoteOnEvent(tick=128, channel=9, data=[42, 0]),
   midi.NoteOnEvent(tick=64, channel=9, data=[46, 127]),
   midi.NoteOnEvent(tick=128, channel=9, data=[46, 0]),
   midi.NoteOnEvent(tick=64, channel=9, data=[36, 127]),
   midi.NoteOnEvent(tick=0, channel=9, data=[42, 127]),
   midi.NoteOnEvent(tick=128, channel=9, data=[42, 0]),
   midi.NoteOnEvent(tick=64, channel=9, data=[46, 127]),
   midi.NoteOnEvent(tick=64, channel=9, data=[36, 0]),
   midi.NoteOnEvent(tick=64, channel=9, data=[46, 0]),
   midi.NoteOnEvent(tick=64, channel=9, data=[42, 127]),
   midi.NoteOnEvent(tick=128, channel=9, data=[42, 0]),
   midi.NoteOnEvent(tick=64, channel=9, data=[36, 127]),
   midi.NoteOnEvent(tick=0, channel=9, data=[46, 127]),
   midi.NoteOnEvent(tick=128, channel=9, data=[46, 0]),
   midi.NoteOnEvent(tick=0, channel=9, data=[36, 0]),
   midi.NoteOnEvent(tick=64, channel=9, data=[42, 127]),
   midi.NoteOnEvent(tick=128, channel=9, data=[42, 0]),
   midi.NoteOnEvent(tick=64, channel=9, data=[46, 127]),
   midi.NoteOnEvent(tick=128, channel=9, data=[46, 0]),
   midi.NoteOnEvent(tick=64, channel=9, data=[42, 127]),
   midi.NoteOnEvent(tick=128, channel=9, data=[42, 0]),
   midi.NoteOnEvent(tick=64, channel=9, data=[46, 127]),
   midi.NoteOnEvent(tick=128, channel=9, data=[46, 0]),
   midi.NoteOnEvent(tick=64, channel=9, data=[36, 127]),
   midi.NoteOnEvent(tick=0, channel=9, data=[42, 127]),
   midi.NoteOnEvent(tick=128, channel=9, data=[42, 0]),
   midi.NoteOnEvent(tick=64, channel=9, data=[46, 127]),
   midi.NoteOnEvent(tick=64, channel=9, data=[36, 0]),
   midi.NoteOnEvent(tick=64, channel=9, data=[46, 0]),
   midi.NoteOnEvent(tick=64, channel=9, data=[42, 127]),
   midi.NoteOnEvent(tick=128, channel=9, data=[42, 0]),
   midi.NoteOnEvent(tick=64, channel=9, data=[36, 127]),
   midi.NoteOnEvent(tick=0, channel=9, data=[46, 127]),
   midi.NoteOnEvent(tick=128, channel=9, data=[46, 0]),
   midi.NoteOnEvent(tick=0, channel=9, data=[36, 0]),
   midi.NoteOnEvent(tick=64, channel=9, data=[42, 127]),
   midi.NoteOnEvent(tick=128, channel=9, data=[42, 0]),
   midi.NoteOnEvent(tick=64, channel=9, data=[46, 127]),
   midi.NoteOnEvent(tick=128, channel=9, data=[46, 0]),
   midi.NoteOnEvent(tick=64, channel=9, data=[42, 127]),
   midi.NoteOnEvent(tick=128, channel=9, data=[42, 0]),
   midi.NoteOnEvent(tick=64, channel=9, data=[46, 127]),
   midi.NoteOnEvent(tick=128, channel=9, data=[46, 0]),
   midi.NoteOnEvent(tick=64, channel=9, data=[36, 127]),
   midi.NoteOnEvent(tick=0, channel=9, data=[42, 127]),
   midi.NoteOnEvent(tick=128, channel=9, data=[42, 0]),
   midi.NoteOnEvent(tick=64, channel=9, data=[46, 127]),
   midi.NoteOnEvent(tick=64, channel=9, data=[36, 0]),
   midi.NoteOnEvent(tick=64, channel=9, data=[46, 0]),
   midi.NoteOnEvent(tick=64, channel=9, data=[42, 127]),
   midi.NoteOnEvent(tick=128, channel=9, data=[42, 0]),
   midi.NoteOnEvent(tick=64, channel=9, data=[36, 127]),
   midi.NoteOnEvent(tick=0, channel=9, data=[46, 127]),
   midi.NoteOnEvent(tick=128, channel=9, data=[46, 0]),
   midi.NoteOnEvent(tick=0, channel=9, data=[36, 0]),
   midi.NoteOnEvent(tick=64, channel=9, data=[42, 127]),
   midi.NoteOnEvent(tick=128, channel=9, data=[42, 0]),
   midi.NoteOnEvent(tick=64, channel=9, data=[46, 127]),
   midi.NoteOnEvent(tick=128, channel=9, data=[46, 0]),
   midi.NoteOnEvent(tick=64, channel=9, data=[42, 127]),
   midi.NoteOnEvent(tick=128, channel=9, data=[42, 0]),
   midi.NoteOnEvent(tick=64, channel=9, data=[46, 127]),
   midi.NoteOnEvent(tick=128, channel=9, data=[46, 0]),
   midi.NoteOnEvent(tick=64, channel=9, data=[36, 127]),
   midi.NoteOnEvent(tick=0, channel=9, data=[42, 127]),
   midi.NoteOnEvent(tick=128, channel=9, data=[42, 0]),
   midi.NoteOnEvent(tick=64, channel=9, data=[46, 127]),
   midi.NoteOnEvent(tick=64, channel=9, data=[36, 0]),
   midi.NoteOnEvent(tick=64, channel=9, data=[46, 0]),
   midi.NoteOnEvent(tick=64, channel=9, data=[42, 127]),
   midi.NoteOnEvent(tick=128, channel=9, data=[42, 0]),
   midi.NoteOnEvent(tick=64, channel=9, data=[36, 127]),
   midi.NoteOnEvent(tick=0, channel=9, data=[46, 127]),
   midi.NoteOnEvent(tick=128, channel=9, data=[46, 0]),
   midi.NoteOnEvent(tick=0, channel=9, data=[36, 0]),
   midi.NoteOnEvent(tick=64, channel=9, data=[42, 127]),
   midi.NoteOnEvent(tick=128, channel=9, data=[42, 0]),
   midi.NoteOnEvent(tick=64, channel=9, data=[46, 127]),
   midi.NoteOnEvent(tick=128, channel=9, data=[46, 0]),
   midi.NoteOnEvent(tick=64, channel=9, data=[42, 127]),
   midi.NoteOnEvent(tick=128, channel=9, data=[42, 0]),
   midi.NoteOnEvent(tick=64, channel=9, data=[46, 127]),
   midi.NoteOnEvent(tick=128, channel=9, data=[46, 0]),
   midi.NoteOnEvent(tick=64, channel=9, data=[36, 127]),
   midi.NoteOnEvent(tick=0, channel=9, data=[42, 127]),
   midi.NoteOnEvent(tick=128, channel=9, data=[42, 0]),
   midi.NoteOnEvent(tick=64, channel=9, data=[46, 127]),
   midi.NoteOnEvent(tick=64, channel=9, data=[36, 0]),
   midi.NoteOnEvent(tick=64, channel=9, data=[46, 0]),
   midi.NoteOnEvent(tick=64, channel=9, data=[42, 127]),
   midi.NoteOnEvent(tick=128, channel=9, data=[42, 0]),
   midi.NoteOnEvent(tick=64, channel=9, data=[36, 127]),
   midi.NoteOnEvent(tick=0, channel=9, data=[46, 127]),
   midi.NoteOnEvent(tick=128, channel=9, data=[46, 0]),
   midi.NoteOnEvent(tick=0, channel=9, data=[36, 0]),
   midi.NoteOnEvent(tick=64, channel=9, data=[42, 127]),
   midi.NoteOnEvent(tick=128, channel=9, data=[42, 0]),
   midi.NoteOnEvent(tick=64, channel=9, data=[46, 127]),
   midi.NoteOnEvent(tick=128, channel=9, data=[46, 0]),
   midi.NoteOnEvent(tick=64, channel=9, data=[42, 127]),
   midi.NoteOnEvent(tick=128, channel=9, data=[42, 0]),
   midi.NoteOnEvent(tick=64, channel=9, data=[46, 127]),
   midi.NoteOnEvent(tick=128, channel=9, data=[46, 0]),
   midi.NoteOnEvent(tick=64, channel=9, data=[36, 127]),
   midi.NoteOnEvent(tick=0, channel=9, data=[42, 127]),
   midi.NoteOnEvent(tick=128, channel=9, data=[42, 0]),
   midi.NoteOnEvent(tick=64, channel=9, data=[46, 127]),
   midi.NoteOnEvent(tick=64, channel=9, data=[36, 0]),
   midi.NoteOnEvent(tick=64, channel=9, data=[46, 0]),
   midi.NoteOnEvent(tick=64, channel=9, data=[42, 127]),
   midi.NoteOnEvent(tick=128, channel=9, data=[42, 0]),
   midi.NoteOnEvent(tick=64, channel=9, data=[36, 127]),
   midi.NoteOnEvent(tick=0, channel=9, data=[46, 127]),
   midi.NoteOnEvent(tick=128, channel=9, data=[46, 0]),
   midi.NoteOnEvent(tick=0, channel=9, data=[36, 0]),
   midi.NoteOnEvent(tick=64, channel=9, data=[42, 127]),
   midi.NoteOnEvent(tick=128, channel=9, data=[42, 0]),
   midi.NoteOnEvent(tick=64, channel=9, data=[46, 127]),
   midi.NoteOnEvent(tick=128, channel=9, data=[46, 0]),
   midi.NoteOnEvent(tick=64, channel=9, data=[42, 127]),
   midi.NoteOnEvent(tick=128, channel=9, data=[42, 0]),
   midi.NoteOnEvent(tick=64, channel=9, data=[46, 127]),
   midi.NoteOnEvent(tick=128, channel=9, data=[46, 0]),
   midi.NoteOnEvent(tick=64, channel=9, data=[36, 127]),
   midi.NoteOnEvent(tick=0, channel=9, data=[42, 127]),
   midi.NoteOnEvent(tick=128, channel=9, data=[42, 0]),
   midi.NoteOnEvent(tick=64, channel=9, data=[46, 127]),
   midi.NoteOnEvent(tick=64, channel=9, data=[36, 0]),
   midi.NoteOnEvent(tick=64, channel=9, data=[46, 0]),
   midi.NoteOnEvent(tick=64, channel=9, data=[42, 127]),
   midi.NoteOnEvent(tick=128, channel=9, data=[42, 0]),
   midi.NoteOnEvent(tick=64, channel=9, data=[36, 127]),
   midi.NoteOnEvent(tick=0, channel=9, data=[46, 127]),
   midi.NoteOnEvent(tick=128, channel=9, data=[46, 0]),
   midi.NoteOnEvent(tick=0, channel=9, data=[36, 0]),
   midi.NoteOnEvent(tick=64, channel=9, data=[42, 127]),
   midi.NoteOnEvent(tick=128, channel=9, data=[42, 0]),
   midi.NoteOnEvent(tick=64, channel=9, data=[46, 127]),
   midi.NoteOnEvent(tick=128, channel=9, data=[46, 0]),
   midi.NoteOnEvent(tick=64, channel=9, data=[42, 127]),
   midi.NoteOnEvent(tick=128, channel=9, data=[42, 0]),
   midi.NoteOnEvent(tick=64, channel=9, data=[46, 127]),
   midi.NoteOnEvent(tick=128, channel=9, data=[46, 0]),
   midi.NoteOnEvent(tick=64, channel=9, data=[36, 127]),
   midi.NoteOnEvent(tick=0, channel=9, data=[42, 127]),
   midi.NoteOnEvent(tick=128, channel=9, data=[42, 0]),
   midi.NoteOnEvent(tick=64, channel=9, data=[46, 127]),
   midi.NoteOnEvent(tick=64, channel=9, data=[36, 0]),
   midi.NoteOnEvent(tick=64, channel=9, data=[46, 0]),
   midi.NoteOnEvent(tick=64, channel=9, data=[42, 127]),
   midi.NoteOnEvent(tick=128, channel=9, data=[42, 0]),
   midi.NoteOnEvent(tick=64, channel=9, data=[36, 127]),
   midi.NoteOnEvent(tick=0, channel=9, data=[46, 127]),
   midi.NoteOnEvent(tick=128, channel=9, data=[46, 0]),
   midi.NoteOnEvent(tick=0, channel=9, data=[36, 0]),
   midi.NoteOnEvent(tick=64, channel=9, data=[42, 127]),
   midi.NoteOnEvent(tick=128, channel=9, data=[42, 0]),
   midi.NoteOnEvent(tick=64, channel=9, data=[46, 127]),
   midi.NoteOnEvent(tick=128, channel=9, data=[46, 0]),
   midi.NoteOnEvent(tick=64, channel=9, data=[42, 127]),
   midi.NoteOnEvent(tick=128, channel=9, data=[42, 0]),
   midi.NoteOnEvent(tick=64, channel=9, data=[46, 127]),
   midi.NoteOnEvent(tick=128, channel=9, data=[46, 0]),
   midi.NoteOnEvent(tick=64, channel=9, data=[36, 127]),
   midi.NoteOnEvent(tick=0, channel=9, data=[42, 127]),
   midi.NoteOnEvent(tick=128, channel=9, data=[42, 0]),
   midi.NoteOnEvent(tick=64, channel=9, data=[46, 127]),
   midi.NoteOnEvent(tick=64, channel=9, data=[36, 0]),
   midi.NoteOnEvent(tick=64, channel=9, data=[46, 0]),
   midi.NoteOnEvent(tick=64, channel=9, data=[42, 127]),
   midi.NoteOnEvent(tick=128, channel=9, data=[42, 0]),
   midi.NoteOnEvent(tick=64, channel=9, data=[36, 127]),
   midi.NoteOnEvent(tick=0, channel=9, data=[46, 127]),
   midi.NoteOnEvent(tick=128, channel=9, data=[46, 0]),
   midi.NoteOnEvent(tick=0, channel=9, data=[36, 0]),
   midi.NoteOnEvent(tick=64, channel=9, data=[42, 127]),
   midi.NoteOnEvent(tick=128, channel=9, data=[42, 0]),
   midi.NoteOnEvent(tick=64, channel=9, data=[46, 127]),
   midi.NoteOnEvent(tick=128, channel=9, data=[46, 0]),
   midi.NoteOnEvent(tick=64, channel=9, data=[42, 127]),
   midi.NoteOnEvent(tick=128, channel=9, data=[42, 0]),
   midi.NoteOnEvent(tick=64, channel=9, data=[46, 127]),
   midi.NoteOnEvent(tick=128, channel=9, data=[46, 0]),
   midi.NoteOnEvent(tick=64, channel=9, data=[36, 127]),
   midi.NoteOnEvent(tick=0, channel=9, data=[42, 127]),
   midi.NoteOnEvent(tick=128, channel=9, data=[42, 0]),
   midi.NoteOnEvent(tick=64, channel=9, data=[46, 127]),
   midi.NoteOnEvent(tick=64, channel=9, data=[36, 0]),
   midi.NoteOnEvent(tick=64, channel=9, data=[46, 0]),
   midi.NoteOnEvent(tick=64, channel=9, data=[42, 127]),
   midi.NoteOnEvent(tick=128, channel=9, data=[42, 0]),
   midi.NoteOnEvent(tick=64, channel=9, data=[36, 127]),
   midi.NoteOnEvent(tick=0, channel=9, data=[46, 127]),
   midi.NoteOnEvent(tick=128, channel=9, data=[46, 0]),
   midi.NoteOnEvent(tick=0, channel=9, data=[36, 0]),
   midi.NoteOnEvent(tick=64, channel=9, data=[42, 127]),
   midi.NoteOnEvent(tick=128, channel=9, data=[42, 0]),
   midi.NoteOnEvent(tick=64, channel=9, data=[46, 127]),
   midi.NoteOnEvent(tick=128, channel=9, data=[46, 0]),
   midi.NoteOnEvent(tick=64, channel=9, data=[42, 127]),
   midi.NoteOnEvent(tick=128, channel=9, data=[42, 0]),
   midi.NoteOnEvent(tick=64, channel=9, data=[46, 127]),
   midi.NoteOnEvent(tick=128, channel=9, data=[46, 0]),
   midi.NoteOnEvent(tick=64, channel=9, data=[36, 127]),
   midi.NoteOnEvent(tick=0, channel=9, data=[42, 127]),
   midi.NoteOnEvent(tick=128, channel=9, data=[42, 0]),
   midi.NoteOnEvent(tick=64, channel=9, data=[46, 127]),
   midi.NoteOnEvent(tick=64, channel=9, data=[36, 0]),
   midi.NoteOnEvent(tick=64, channel=9, data=[46, 0]),
   midi.NoteOnEvent(tick=64, channel=9, data=[42, 127]),
   midi.NoteOnEvent(tick=128, channel=9, data=[42, 0]),
   midi.NoteOnEvent(tick=64, channel=9, data=[36, 127]),
   midi.NoteOnEvent(tick=0, channel=9, data=[46, 127]),
   midi.NoteOnEvent(tick=128, channel=9, data=[46, 0]),
   midi.NoteOnEvent(tick=0, channel=9, data=[36, 0]),
   midi.NoteOnEvent(tick=64, channel=9, data=[42, 127]),
   midi.NoteOnEvent(tick=128, channel=9, data=[42, 0]),
   midi.NoteOnEvent(tick=64, channel=9, data=[46, 127]),
   midi.NoteOnEvent(tick=128, channel=9, data=[46, 0]),
   midi.NoteOnEvent(tick=64, channel=9, data=[42, 127]),
   midi.NoteOnEvent(tick=128, channel=9, data=[42, 0]),
   midi.NoteOnEvent(tick=64, channel=9, data=[46, 127]),
   midi.NoteOnEvent(tick=128, channel=9, data=[46, 0]),
   midi.NoteOnEvent(tick=64, channel=9, data=[36, 127]),
   midi.NoteOnEvent(tick=0, channel=9, data=[42, 127]),
   midi.NoteOnEvent(tick=128, channel=9, data=[42, 0]),
   midi.NoteOnEvent(tick=64, channel=9, data=[46, 127]),
   midi.NoteOnEvent(tick=64, channel=9, data=[36, 0]),
   midi.NoteOnEvent(tick=64, channel=9, data=[46, 0]),
   midi.NoteOnEvent(tick=64, channel=9, data=[42, 127]),
   midi.NoteOnEvent(tick=128, channel=9, data=[42, 0]),
   midi.NoteOnEvent(tick=64, channel=9, data=[36, 127]),
   midi.NoteOnEvent(tick=0, channel=9, data=[46, 127]),
   midi.NoteOnEvent(tick=128, channel=9, data=[46, 0]),
   midi.NoteOnEvent(tick=0, channel=9, data=[36, 0]),
   midi.NoteOnEvent(tick=64, channel=9, data=[42, 127]),
   midi.NoteOnEvent(tick=128, channel=9, data=[42, 0]),
   midi.NoteOnEvent(tick=64, channel=9, data=[46, 127]),
   midi.NoteOnEvent(tick=128, channel=9, data=[46, 0]),
   midi.NoteOnEvent(tick=64, channel=9, data=[42, 127]),
   midi.NoteOnEvent(tick=128, channel=9, data=[42, 0]),
   midi.NoteOnEvent(tick=64, channel=9, data=[46, 127]),
   midi.NoteOnEvent(tick=128, channel=9, data=[46, 0]),
   midi.NoteOnEvent(tick=64, channel=9, data=[36, 127]),
   midi.NoteOnEvent(tick=0, channel=9, data=[42, 127]),
   midi.NoteOnEvent(tick=128, channel=9, data=[42, 0]),
   midi.NoteOnEvent(tick=64, channel=9, data=[46, 127]),
   midi.NoteOnEvent(tick=64, channel=9, data=[36, 0]),
   midi.NoteOnEvent(tick=64, channel=9, data=[46, 0]),
   midi.NoteOnEvent(tick=64, channel=9, data=[42, 127]),
   midi.NoteOnEvent(tick=128, channel=9, data=[42, 0]),
   midi.NoteOnEvent(tick=64, channel=9, data=[36, 127]),
   midi.NoteOnEvent(tick=0, channel=9, data=[46, 127]),
   midi.NoteOnEvent(tick=128, channel=9, data=[46, 0]),
   midi.NoteOnEvent(tick=0, channel=9, data=[36, 0]),
   midi.NoteOnEvent(tick=64, channel=9, data=[42, 127]),
   midi.NoteOnEvent(tick=128, channel=9, data=[42, 0]),
   midi.NoteOnEvent(tick=64, channel=9, data=[46, 127]),
   midi.NoteOnEvent(tick=128, channel=9, data=[46, 0]),
   midi.NoteOnEvent(tick=64, channel=9, data=[42, 127]),
   midi.NoteOnEvent(tick=128, channel=9, data=[42, 0]),
   midi.NoteOnEvent(tick=64, channel=9, data=[46, 127]),
   midi.NoteOnEvent(tick=128, channel=9, data=[46, 0]),
   midi.NoteOnEvent(tick=64, channel=9, data=[36, 127]),
   midi.NoteOnEvent(tick=0, channel=9, data=[42, 127]),
   midi.NoteOnEvent(tick=128, channel=9, data=[42, 0]),
   midi.NoteOnEvent(tick=64, channel=9, data=[46, 127]),
   midi.NoteOnEvent(tick=64, channel=9, data=[36, 0]),
   midi.NoteOnEvent(tick=64, channel=9, data=[46, 0]),
   midi.NoteOnEvent(tick=64, channel=9, data=[42, 127]),
   midi.NoteOnEvent(tick=128, channel=9, data=[42, 0]),
   midi.NoteOnEvent(tick=64, channel=9, data=[36, 127]),
   midi.NoteOnEvent(tick=0, channel=9, data=[46, 127]),
   midi.NoteOnEvent(tick=128, channel=9, data=[46, 0]),
   midi.NoteOnEvent(tick=0, channel=9, data=[36, 0]),
   midi.NoteOnEvent(tick=64, channel=9, data=[42, 127]),
   midi.NoteOnEvent(tick=128, channel=9, data=[42, 0]),
   midi.NoteOnEvent(tick=64, channel=9, data=[46, 127]),
   midi.NoteOnEvent(tick=128, channel=9, data=[46, 0]),
   midi.NoteOnEvent(tick=64, channel=9, data=[42, 127]),
   midi.NoteOnEvent(tick=128, channel=9, data=[42, 0]),
   midi.NoteOnEvent(tick=64, channel=9, data=[46, 127]),
   midi.NoteOnEvent(tick=128, channel=9, data=[46, 0]),
   midi.NoteOnEvent(tick=64, channel=9, data=[36, 127]),
   midi.NoteOnEvent(tick=0, channel=9, data=[42, 127]),
   midi.NoteOnEvent(tick=128, channel=9, data=[42, 0]),
   midi.NoteOnEvent(tick=64, channel=9, data=[46, 127]),
   midi.NoteOnEvent(tick=64, channel=9, data=[36, 0]),
   midi.NoteOnEvent(tick=64, channel=9, data=[46, 0]),
   midi.NoteOnEvent(tick=64, channel=9, data=[42, 127]),
   midi.NoteOnEvent(tick=128, channel=9, data=[42, 0]),
   midi.NoteOnEvent(tick=64, channel=9, data=[36, 127]),
   midi.NoteOnEvent(tick=0, channel=9, data=[46, 127]),
   midi.NoteOnEvent(tick=128, channel=9, data=[46, 0]),
   midi.NoteOnEvent(tick=0, channel=9, data=[36, 0]),
   midi.NoteOnEvent(tick=64, channel=9, data=[42, 127]),
   midi.NoteOnEvent(tick=128, channel=9, data=[42, 0]),
   midi.NoteOnEvent(tick=64, channel=9, data=[46, 127]),
   midi.NoteOnEvent(tick=128, channel=9, data=[46, 0]),
   midi.NoteOnEvent(tick=64, channel=9, data=[42, 127]),
   midi.NoteOnEvent(tick=128, channel=9, data=[42, 0]),
   midi.NoteOnEvent(tick=64, channel=9, data=[46, 127]),
   midi.NoteOnEvent(tick=128, channel=9, data=[46, 0]),
   midi.NoteOnEvent(tick=64, channel=9, data=[36, 127]),
   midi.NoteOnEvent(tick=0, channel=9, data=[42, 127]),
   midi.NoteOnEvent(tick=128, channel=9, data=[42, 0]),
   midi.NoteOnEvent(tick=64, channel=9, data=[46, 127]),
   midi.NoteOnEvent(tick=64, channel=9, data=[36, 0]),
   midi.NoteOnEvent(tick=64, channel=9, data=[46, 0]),
   midi.NoteOnEvent(tick=64, channel=9, data=[42, 127]),
   midi.NoteOnEvent(tick=128, channel=9, data=[42, 0]),
   midi.NoteOnEvent(tick=64, channel=9, data=[36, 127]),
   midi.NoteOnEvent(tick=0, channel=9, data=[46, 127]),
   midi.NoteOnEvent(tick=128, channel=9, data=[46, 0]),
   midi.NoteOnEvent(tick=0, channel=9, data=[36, 0]),
   midi.NoteOnEvent(tick=64, channel=9, data=[42, 127]),
   midi.NoteOnEvent(tick=128, channel=9, data=[42, 0]),
   midi.NoteOnEvent(tick=64, channel=9, data=[46, 127]),
   midi.NoteOnEvent(tick=128, channel=9, data=[46, 0]),
   midi.NoteOnEvent(tick=64, channel=9, data=[36, 127]),
   midi.NoteOnEvent(tick=0, channel=9, data=[42, 127]),
   midi.NoteOnEvent(tick=128, channel=9, data=[42, 0]),
   midi.NoteOnEvent(tick=0, channel=9, data=[36, 0]),
   midi.NoteOnEvent(tick=64, channel=9, data=[46, 127]),
   midi.NoteOnEvent(tick=128, channel=9, data=[46, 0]),
   midi.NoteOnEvent(tick=64, channel=9, data=[36, 127]),
   midi.NoteOnEvent(tick=0, channel=9, data=[42, 127]),
   midi.NoteOnEvent(tick=128, channel=9, data=[42, 0]),
   midi.NoteOnEvent(tick=64, channel=9, data=[46, 127]),
   midi.NoteOnEvent(tick=64, channel=9, data=[36, 0]),
   midi.NoteOnEvent(tick=64, channel=9, data=[46, 0]),
   midi.NoteOnEvent(tick=64, channel=9, data=[42, 127]),
   midi.NoteOnEvent(tick=128, channel=9, data=[42, 0]),
   midi.NoteOnEvent(tick=64, channel=9, data=[36, 127]),
   midi.NoteOnEvent(tick=0, channel=9, data=[46, 127]),
   midi.NoteOnEvent(tick=128, channel=9, data=[46, 0]),
   midi.NoteOnEvent(tick=0, channel=9, data=[36, 0]),
   midi.NoteOnEvent(tick=64, channel=9, data=[42, 127]),
   midi.NoteOnEvent(tick=128, channel=9, data=[42, 0]),
   midi.NoteOnEvent(tick=64, channel=9, data=[46, 127]),
   midi.NoteOnEvent(tick=128, channel=9, data=[46, 0]),
   midi.NoteOnEvent(tick=64, channel=9, data=[36, 127]),
   midi.NoteOnEvent(tick=0, channel=9, data=[42, 127]),
   midi.NoteOnEvent(tick=128, channel=9, data=[42, 0]),
   midi.NoteOnEvent(tick=0, channel=9, data=[36, 0]),
   midi.NoteOnEvent(tick=64, channel=9, data=[46, 127]),
   midi.NoteOnEvent(tick=128, channel=9, data=[46, 0]),
   midi.NoteOnEvent(tick=64, channel=9, data=[36, 127]),
   midi.NoteOnEvent(tick=0, channel=9, data=[42, 127]),
   midi.NoteOnEvent(tick=128, channel=9, data=[42, 0]),
   midi.NoteOnEvent(tick=64, channel=9, data=[46, 127]),
   midi.NoteOnEvent(tick=64, channel=9, data=[36, 0]),
   midi.NoteOnEvent(tick=64, channel=9, data=[46, 0]),
   midi.NoteOnEvent(tick=64, channel=9, data=[42, 127]),
   midi.NoteOnEvent(tick=128, channel=9, data=[42, 0]),
   midi.NoteOnEvent(tick=64, channel=9, data=[36, 127]),
   midi.NoteOnEvent(tick=0, channel=9, data=[46, 127]),
   midi.NoteOnEvent(tick=128, channel=9, data=[46, 0]),
   midi.NoteOnEvent(tick=0, channel=9, data=[36, 0]),
   midi.NoteOnEvent(tick=64, channel=9, data=[42, 127]),
   midi.NoteOnEvent(tick=128, channel=9, data=[42, 0]),
   midi.NoteOnEvent(tick=64, channel=9, data=[46, 127]),
   midi.NoteOnEvent(tick=128, channel=9, data=[46, 0]),
   midi.NoteOnEvent(tick=64, channel=9, data=[36, 127]),
   midi.NoteOnEvent(tick=0, channel=9, data=[42, 127]),
   midi.NoteOnEvent(tick=128, channel=9, data=[42, 0]),
   midi.NoteOnEvent(tick=0, channel=9, data=[36, 0]),
   midi.NoteOnEvent(tick=64, channel=9, data=[46, 127]),
   midi.NoteOnEvent(tick=128, channel=9, data=[46, 0]),
   midi.NoteOnEvent(tick=64, channel=9, data=[36, 127]),
   midi.NoteOnEvent(tick=0, channel=9, data=[42, 127]),
   midi.NoteOnEvent(tick=128, channel=9, data=[42, 0]),
   midi.NoteOnEvent(tick=64, channel=9, data=[46, 127]),
   midi.NoteOnEvent(tick=64, channel=9, data=[36, 0]),
   midi.NoteOnEvent(tick=64, channel=9, data=[46, 0]),
   midi.NoteOnEvent(tick=64, channel=9, data=[42, 127]),
   midi.NoteOnEvent(tick=128, channel=9, data=[42, 0]),
   midi.NoteOnEvent(tick=64, channel=9, data=[36, 127]),
   midi.NoteOnEvent(tick=0, channel=9, data=[46, 127]),
   midi.NoteOnEvent(tick=128, channel=9, data=[46, 0]),
   midi.NoteOnEvent(tick=0, channel=9, data=[36, 0]),
   midi.NoteOnEvent(tick=64, channel=9, data=[42, 127]),
   midi.NoteOnEvent(tick=128, channel=9, data=[42, 0]),
   midi.NoteOnEvent(tick=64, channel=9, data=[46, 127]),
   midi.NoteOnEvent(tick=128, channel=9, data=[46, 0]),
   midi.NoteOnEvent(tick=64, channel=9, data=[36, 127]),
   midi.NoteOnEvent(tick=0, channel=9, data=[42, 127]),
   midi.NoteOnEvent(tick=128, channel=9, data=[42, 0]),
   midi.NoteOnEvent(tick=0, channel=9, data=[36, 0]),
   midi.NoteOnEvent(tick=64, channel=9, data=[46, 127]),
   midi.NoteOnEvent(tick=128, channel=9, data=[46, 0]),
   midi.NoteOnEvent(tick=64, channel=9, data=[36, 127]),
   midi.NoteOnEvent(tick=0, channel=9, data=[42, 127]),
   midi.NoteOnEvent(tick=128, channel=9, data=[42, 0]),
   midi.NoteOnEvent(tick=64, channel=9, data=[46, 127]),
   midi.NoteOnEvent(tick=64, channel=9, data=[36, 0]),
   midi.NoteOnEvent(tick=64, channel=9, data=[46, 0]),
   midi.NoteOnEvent(tick=64, channel=9, data=[42, 127]),
   midi.NoteOnEvent(tick=128, channel=9, data=[42, 0]),
   midi.NoteOnEvent(tick=64, channel=9, data=[36, 127]),
   midi.NoteOnEvent(tick=0, channel=9, data=[46, 127]),
   midi.NoteOnEvent(tick=128, channel=9, data=[46, 0]),
   midi.NoteOnEvent(tick=0, channel=9, data=[36, 0]),
   midi.NoteOnEvent(tick=64, channel=9, data=[42, 127]),
   midi.NoteOnEvent(tick=128, channel=9, data=[42, 0]),
   midi.NoteOnEvent(tick=64, channel=9, data=[46, 127]),
   midi.NoteOnEvent(tick=128, channel=9, data=[46, 0]),
   midi.NoteOnEvent(tick=64, channel=9, data=[36, 127]),
   midi.NoteOnEvent(tick=0, channel=9, data=[42, 127]),
   midi.NoteOnEvent(tick=128, channel=9, data=[42, 0]),
   midi.NoteOnEvent(tick=0, channel=9, data=[36, 0]),
   midi.NoteOnEvent(tick=64, channel=9, data=[46, 127]),
   midi.NoteOnEvent(tick=128, channel=9, data=[46, 0]),
   midi.NoteOnEvent(tick=64, channel=9, data=[36, 127]),
   midi.NoteOnEvent(tick=0, channel=9, data=[42, 127]),
   midi.NoteOnEvent(tick=128, channel=9, data=[42, 0]),
   midi.NoteOnEvent(tick=64, channel=9, data=[46, 127]),
   midi.NoteOnEvent(tick=64, channel=9, data=[36, 0]),
   midi.NoteOnEvent(tick=64, channel=9, data=[46, 0]),
   midi.NoteOnEvent(tick=64, channel=9, data=[42, 127]),
   midi.NoteOnEvent(tick=128, channel=9, data=[42, 0]),
   midi.NoteOnEvent(tick=64, channel=9, data=[36, 127]),
   midi.NoteOnEvent(tick=0, channel=9, data=[46, 127]),
   midi.NoteOnEvent(tick=128, channel=9, data=[46, 0]),
   midi.NoteOnEvent(tick=0, channel=9, data=[36, 0]),
   midi.NoteOnEvent(tick=64, channel=9, data=[42, 127]),
   midi.NoteOnEvent(tick=128, channel=9, data=[42, 0]),
   midi.NoteOnEvent(tick=64, channel=9, data=[46, 127]),
   midi.NoteOnEvent(tick=128, channel=9, data=[46, 0]),
   midi.NoteOnEvent(tick=64, channel=9, data=[36, 127]),
   midi.NoteOnEvent(tick=0, channel=9, data=[42, 127]),
   midi.NoteOnEvent(tick=128, channel=9, data=[42, 0]),
   midi.NoteOnEvent(tick=0, channel=9, data=[36, 0]),
   midi.NoteOnEvent(tick=64, channel=9, data=[46, 127]),
   midi.NoteOnEvent(tick=128, channel=9, data=[46, 0]),
   midi.NoteOnEvent(tick=64, channel=9, data=[36, 127]),
   midi.NoteOnEvent(tick=0, channel=9, data=[42, 127]),
   midi.NoteOnEvent(tick=128, channel=9, data=[42, 0]),
   midi.NoteOnEvent(tick=64, channel=9, data=[46, 127]),
   midi.NoteOnEvent(tick=64, channel=9, data=[36, 0]),
   midi.NoteOnEvent(tick=64, channel=9, data=[46, 0]),
   midi.NoteOnEvent(tick=64, channel=9, data=[42, 127]),
   midi.NoteOnEvent(tick=128, channel=9, data=[42, 0]),
   midi.NoteOnEvent(tick=64, channel=9, data=[36, 127]),
   midi.NoteOnEvent(tick=0, channel=9, data=[46, 127]),
   midi.NoteOnEvent(tick=128, channel=9, data=[46, 0]),
   midi.NoteOnEvent(tick=0, channel=9, data=[36, 0]),
   midi.NoteOnEvent(tick=64, channel=9, data=[42, 127]),
   midi.NoteOnEvent(tick=128, channel=9, data=[42, 0]),
   midi.NoteOnEvent(tick=64, channel=9, data=[46, 127]),
   midi.NoteOnEvent(tick=128, channel=9, data=[46, 0]),
   midi.NoteOnEvent(tick=64, channel=9, data=[36, 127]),
   midi.NoteOnEvent(tick=0, channel=9, data=[42, 127]),
   midi.NoteOnEvent(tick=128, channel=9, data=[42, 0]),
   midi.NoteOnEvent(tick=0, channel=9, data=[36, 0]),
   midi.NoteOnEvent(tick=64, channel=9, data=[46, 127]),
   midi.NoteOnEvent(tick=128, channel=9, data=[46, 0]),
   midi.NoteOnEvent(tick=64, channel=9, data=[36, 127]),
   midi.NoteOnEvent(tick=0, channel=9, data=[42, 127]),
   midi.NoteOnEvent(tick=128, channel=9, data=[42, 0]),
   midi.NoteOnEvent(tick=64, channel=9, data=[46, 127]),
   midi.NoteOnEvent(tick=64, channel=9, data=[36, 0]),
   midi.NoteOnEvent(tick=64, channel=9, data=[46, 0]),
   midi.NoteOnEvent(tick=64, channel=9, data=[42, 127]),
   midi.NoteOnEvent(tick=128, channel=9, data=[42, 0]),
   midi.NoteOnEvent(tick=64, channel=9, data=[36, 127]),
   midi.NoteOnEvent(tick=0, channel=9, data=[46, 127]),
   midi.NoteOnEvent(tick=128, channel=9, data=[46, 0]),
   midi.NoteOnEvent(tick=0, channel=9, data=[36, 0]),
   midi.NoteOnEvent(tick=64, channel=9, data=[42, 127]),
   midi.NoteOnEvent(tick=128, channel=9, data=[42, 0]),
   midi.NoteOnEvent(tick=64, channel=9, data=[45, 127]),
   midi.NoteOnEvent(tick=0, channel=9, data=[36, 127]),
   midi.NoteOnEvent(tick=128, channel=9, data=[36, 0]),
   midi.NoteOnEvent(tick=0, channel=9, data=[45, 0]),
   midi.NoteOnEvent(tick=64, channel=9, data=[36, 127]),
   midi.NoteOnEvent(tick=0, channel=9, data=[45, 127]),
   midi.NoteOnEvent(tick=256, channel=9, data=[45, 0]),
   midi.NoteOnEvent(tick=0, channel=9, data=[36, 0]),
   midi.NoteOnEvent(tick=128, channel=9, data=[36, 127]),
   midi.NoteOnEvent(tick=128, channel=9, data=[36, 0]),
   midi.NoteOnEvent(tick=448, channel=9, data=[36, 127]),
   midi.NoteOnEvent(tick=128, channel=9, data=[36, 0]),
   midi.NoteOnEvent(tick=256, channel=9, data=[36, 127]),
   midi.NoteOnEvent(tick=128, channel=9, data=[36, 0]),
   midi.NoteOnEvent(tick=64, channel=9, data=[38, 127]),
   midi.NoteOnEvent(tick=128, channel=9, data=[38, 0]),
   midi.NoteOnEvent(tick=256, channel=9, data=[36, 127]),
   midi.NoteOnEvent(tick=128, channel=9, data=[36, 0]),
   midi.NoteOnEvent(tick=448, channel=9, data=[36, 127]),
   midi.NoteOnEvent(tick=128, channel=9, data=[36, 0]),
   midi.NoteOnEvent(tick=256, channel=9, data=[36, 127]),
   midi.NoteOnEvent(tick=128, channel=9, data=[36, 0]),
   midi.NoteOnEvent(tick=64, channel=9, data=[38, 127]),
   midi.NoteOnEvent(tick=128, channel=9, data=[38, 0]),
   midi.NoteOnEvent(tick=256, channel=9, data=[36, 127]),
   midi.NoteOnEvent(tick=256, channel=9, data=[36, 0]),
   midi.NoteOnEvent(tick=320, channel=9, data=[36, 127]),
   midi.NoteOnEvent(tick=128, channel=9, data=[36, 0]),
   midi.NoteOnEvent(tick=256, channel=9, data=[36, 127]),
   midi.NoteOnEvent(tick=128, channel=9, data=[36, 0]),
   midi.NoteOnEvent(tick=64, channel=9, data=[38, 127]),
   midi.NoteOnEvent(tick=128, channel=9, data=[38, 0]),
   midi.NoteOnEvent(tick=256, channel=9, data=[36, 127]),
   midi.NoteOnEvent(tick=128, channel=9, data=[36, 0]),
   midi.NoteOnEvent(tick=448, channel=9, data=[36, 127]),
   midi.NoteOnEvent(tick=128, channel=9, data=[36, 0]),
   midi.NoteOnEvent(tick=256, channel=9, data=[36, 127]),
   midi.NoteOnEvent(tick=128, channel=9, data=[36, 0]),
   midi.NoteOnEvent(tick=64, channel=9, data=[38, 127]),
   midi.NoteOnEvent(tick=128, channel=9, data=[38, 0]),
   midi.NoteOnEvent(tick=256, channel=9, data=[36, 127]),
   midi.NoteOnEvent(tick=256, channel=9, data=[36, 0]),
   midi.NoteOnEvent(tick=320, channel=9, data=[36, 127]),
   midi.NoteOnEvent(tick=128, channel=9, data=[36, 0]),
   midi.NoteOnEvent(tick=256, channel=9, data=[36, 127]),
   midi.NoteOnEvent(tick=128, channel=9, data=[36, 0]),
   midi.NoteOnEvent(tick=64, channel=9, data=[38, 127]),
   midi.NoteOnEvent(tick=128, channel=9, data=[38, 0]),
   midi.NoteOnEvent(tick=256, channel=9, data=[36, 127]),
   midi.NoteOnEvent(tick=128, channel=9, data=[36, 0]),
   midi.NoteOnEvent(tick=448, channel=9, data=[36, 127]),
   midi.NoteOnEvent(tick=128, channel=9, data=[36, 0]),
   midi.NoteOnEvent(tick=256, channel=9, data=[36, 127]),
   midi.NoteOnEvent(tick=128, channel=9, data=[36, 0]),
   midi.NoteOnEvent(tick=64, channel=9, data=[38, 127]),
   midi.NoteOnEvent(tick=128, channel=9, data=[38, 0]),
   midi.NoteOnEvent(tick=256, channel=9, data=[36, 127]),
   midi.NoteOnEvent(tick=128, channel=9, data=[36, 0]),
   midi.NoteOnEvent(tick=64, channel=9, data=[36, 127]),
   midi.NoteOnEvent(tick=128, channel=9, data=[36, 0]),
   midi.NoteOnEvent(tick=64, channel=9, data=[38, 127]),
   midi.NoteOnEvent(tick=128, channel=9, data=[38, 0]),
   midi.NoteOnEvent(tick=64, channel=9, data=[36, 127]),
   midi.NoteOnEvent(tick=128, channel=9, data=[36, 0]),
   midi.NoteOnEvent(tick=64, channel=9, data=[36, 127]),
   midi.NoteOnEvent(tick=128, channel=9, data=[36, 0]),
   midi.NoteOnEvent(tick=64, channel=9, data=[38, 127]),
   midi.NoteOnEvent(tick=128, channel=9, data=[38, 0]),
   midi.NoteOnEvent(tick=64, channel=9, data=[36, 127]),
   midi.NoteOnEvent(tick=128, channel=9, data=[36, 0]),
   midi.NoteOnEvent(tick=64, channel=9, data=[36, 127]),
   midi.NoteOnEvent(tick=128, channel=9, data=[36, 0]),
   midi.NoteOnEvent(tick=64, channel=9, data=[38, 127]),
   midi.NoteOnEvent(tick=36, channel=9, data=[38, 127]),
   midi.NoteOnEvent(tick=92, channel=9, data=[38, 0]),
   midi.NoteOnEvent(tick=64, channel=9, data=[36, 127]),
   midi.NoteOnEvent(tick=100, channel=9, data=[38, 0]),
   midi.NoteOnEvent(tick=28, channel=9, data=[36, 0]),
   midi.NoteOnEvent(tick=256, channel=9, data=[36, 127]),
   midi.NoteOnEvent(tick=128, channel=9, data=[36, 0]),
   midi.NoteOnEvent(tick=64, channel=9, data=[45, 127]),
   midi.NoteOnEvent(tick=40, channel=9, data=[45, 127]),
   midi.NoteOnEvent(tick=88, channel=9, data=[45, 0]),
   midi.NoteOnEvent(tick=64, channel=9, data=[36, 127]),
   midi.NoteOnEvent(tick=104, channel=9, data=[45, 0]),
   midi.NoteOnEvent(tick=24, channel=9, data=[36, 0]),
   midi.NoteOnEvent(tick=64, channel=9, data=[38, 127]),
   midi.NoteOnEvent(tick=64, channel=9, data=[38, 0]),
   midi.NoteOnEvent(tick=32, channel=9, data=[38, 127]),
   midi.NoteOnEvent(tick=64, channel=9, data=[38, 0]),
   midi.NoteOnEvent(tick=32, channel=9, data=[36, 127]),
   midi.NoteOnEvent(tick=128, channel=9, data=[36, 0]),
   midi.NoteOnEvent(tick=64, channel=9, data=[36, 127]),
   midi.NoteOnEvent(tick=128, channel=9, data=[36, 0]),
   midi.NoteOnEvent(tick=64, channel=9, data=[36, 127]),
   midi.NoteOnEvent(tick=128, channel=9, data=[36, 0]),
   midi.NoteOnEvent(tick=64, channel=9, data=[38, 127]),
   midi.NoteOnEvent(tick=128, channel=9, data=[38, 0]),
   midi.NoteOnEvent(tick=64, channel=9, data=[36, 127]),
   midi.NoteOnEvent(tick=128, channel=9, data=[36, 0]),
   midi.NoteOnEvent(tick=64, channel=9, data=[36, 127]),
   midi.NoteOnEvent(tick=128, channel=9, data=[36, 0]),
   midi.NoteOnEvent(tick=64, channel=9, data=[38, 127]),
   midi.NoteOnEvent(tick=128, channel=9, data=[38, 0]),
   midi.NoteOnEvent(tick=64, channel=9, data=[36, 127]),
   midi.NoteOnEvent(tick=128, channel=9, data=[36, 0]),
   midi.NoteOnEvent(tick=64, channel=9, data=[36, 127]),
   midi.NoteOnEvent(tick=128, channel=9, data=[36, 0]),
   midi.NoteOnEvent(tick=64, channel=9, data=[38, 127]),
   midi.NoteOnEvent(tick=36, channel=9, data=[38, 127]),
   midi.NoteOnEvent(tick=92, channel=9, data=[38, 0]),
   midi.NoteOnEvent(tick=64, channel=9, data=[36, 127]),
   midi.NoteOnEvent(tick=100, channel=9, data=[38, 0]),
   midi.NoteOnEvent(tick=28, channel=9, data=[36, 0]),
   midi.NoteOnEvent(tick=256, channel=9, data=[36, 127]),
   midi.NoteOnEvent(tick=128, channel=9, data=[36, 0]),
   midi.NoteOnEvent(tick=64, channel=9, data=[45, 127]),
   midi.NoteOnEvent(tick=40, channel=9, data=[45, 127]),
   midi.NoteOnEvent(tick=88, channel=9, data=[45, 0]),
   midi.NoteOnEvent(tick=64, channel=9, data=[36, 127]),
   midi.NoteOnEvent(tick=104, channel=9, data=[45, 0]),
   midi.NoteOnEvent(tick=24, channel=9, data=[36, 0]),
   midi.NoteOnEvent(tick=64, channel=9, data=[38, 127]),
   midi.NoteOnEvent(tick=64, channel=9, data=[38, 0]),
   midi.NoteOnEvent(tick=32, channel=9, data=[38, 127]),
   midi.NoteOnEvent(tick=64, channel=9, data=[38, 0]),
   midi.NoteOnEvent(tick=32, channel=9, data=[36, 127]),
   midi.NoteOnEvent(tick=128, channel=9, data=[36, 0]),
   midi.NoteOnEvent(tick=64, channel=9, data=[36, 127]),
   midi.NoteOnEvent(tick=128, channel=9, data=[36, 0]),
   midi.NoteOnEvent(tick=64, channel=9, data=[36, 127]),
   midi.NoteOnEvent(tick=128, channel=9, data=[36, 0]),
   midi.NoteOnEvent(tick=64, channel=9, data=[38, 127]),
   midi.NoteOnEvent(tick=128, channel=9, data=[38, 0]),
   midi.NoteOnEvent(tick=64, channel=9, data=[36, 127]),
   midi.NoteOnEvent(tick=128, channel=9, data=[36, 0]),
   midi.NoteOnEvent(tick=64, channel=9, data=[36, 127]),
   midi.NoteOnEvent(tick=128, channel=9, data=[36, 0]),
   midi.NoteOnEvent(tick=64, channel=9, data=[38, 127]),
   midi.NoteOnEvent(tick=128, channel=9, data=[38, 0]),
   midi.NoteOnEvent(tick=64, channel=9, data=[36, 127]),
   midi.NoteOnEvent(tick=128, channel=9, data=[36, 0]),
   midi.NoteOnEvent(tick=64, channel=9, data=[36, 127]),
   midi.NoteOnEvent(tick=128, channel=9, data=[36, 0]),
   midi.NoteOnEvent(tick=64, channel=9, data=[38, 127]),
   midi.NoteOnEvent(tick=36, channel=9, data=[38, 127]),
   midi.NoteOnEvent(tick=92, channel=9, data=[38, 0]),
   midi.NoteOnEvent(tick=64, channel=9, data=[36, 127]),
   midi.NoteOnEvent(tick=100, channel=9, data=[38, 0]),
   midi.NoteOnEvent(tick=28, channel=9, data=[36, 0]),
   midi.NoteOnEvent(tick=256, channel=9, data=[36, 127]),
   midi.NoteOnEvent(tick=128, channel=9, data=[36, 0]),
   midi.NoteOnEvent(tick=64, channel=9, data=[45, 127]),
   midi.NoteOnEvent(tick=40, channel=9, data=[45, 127]),
   midi.NoteOnEvent(tick=88, channel=9, data=[45, 0]),
   midi.NoteOnEvent(tick=64, channel=9, data=[36, 127]),
   midi.NoteOnEvent(tick=104, channel=9, data=[45, 0]),
   midi.NoteOnEvent(tick=24, channel=9, data=[36, 0]),
   midi.NoteOnEvent(tick=64, channel=9, data=[38, 127]),
   midi.NoteOnEvent(tick=64, channel=9, data=[38, 0]),
   midi.NoteOnEvent(tick=32, channel=9, data=[38, 127]),
   midi.NoteOnEvent(tick=64, channel=9, data=[38, 0]),
   midi.NoteOnEvent(tick=32, channel=9, data=[36, 127]),
   midi.NoteOnEvent(tick=128, channel=9, data=[36, 0]),
   midi.NoteOnEvent(tick=64, channel=9, data=[36, 127]),
   midi.NoteOnEvent(tick=128, channel=9, data=[36, 0]),
   midi.NoteOnEvent(tick=64, channel=9, data=[36, 127]),
   midi.NoteOnEvent(tick=128, channel=9, data=[36, 0]),
   midi.NoteOnEvent(tick=64, channel=9, data=[38, 127]),
   midi.NoteOnEvent(tick=128, channel=9, data=[38, 0]),
   midi.NoteOnEvent(tick=64, channel=9, data=[36, 127]),
   midi.NoteOnEvent(tick=128, channel=9, data=[36, 0]),
   midi.NoteOnEvent(tick=64, channel=9, data=[36, 127]),
   midi.NoteOnEvent(tick=128, channel=9, data=[36, 0]),
   midi.NoteOnEvent(tick=64, channel=9, data=[38, 127]),
   midi.NoteOnEvent(tick=128, channel=9, data=[38, 0]),
   midi.NoteOnEvent(tick=64, channel=9, data=[36, 127]),
   midi.NoteOnEvent(tick=128, channel=9, data=[36, 0]),
   midi.NoteOnEvent(tick=64, channel=9, data=[36, 127]),
   midi.NoteOnEvent(tick=128, channel=9, data=[36, 0]),
   midi.NoteOnEvent(tick=64, channel=9, data=[36, 127]),
   midi.NoteOnEvent(tick=256, channel=9, data=[36, 0]),
   midi.NoteOnEvent(tick=2048, channel=9, data=[36, 127]),
   midi.NoteOnEvent(tick=0, channel=9, data=[46, 127]),
   midi.NoteOnEvent(tick=132, channel=9, data=[46, 0]),
   midi.NoteOnEvent(tick=0, channel=9, data=[36, 0]),
   midi.NoteOnEvent(tick=60, channel=9, data=[36, 127]),
   midi.NoteOnEvent(tick=0, channel=9, data=[46, 127]),
   midi.NoteOnEvent(tick=132, channel=9, data=[46, 0]),
   midi.NoteOnEvent(tick=0, channel=9, data=[36, 0]),
   midi.NoteOnEvent(tick=60, channel=9, data=[38, 127]),
   midi.NoteOnEvent(tick=64, channel=9, data=[38, 0]),
   midi.NoteOnEvent(tick=32, channel=9, data=[38, 127]),
   midi.NoteOnEvent(tick=64, channel=9, data=[38, 0]),
   midi.NoteOnEvent(tick=32, channel=9, data=[36, 127]),
   midi.NoteOnEvent(tick=132, channel=9, data=[36, 0]),
   midi.NoteOnEvent(tick=60, channel=9, data=[42, 127]),
   midi.NoteOnEvent(tick=132, channel=9, data=[42, 0]),
   midi.NoteOnEvent(tick=60, channel=9, data=[36, 127]),
   midi.NoteOnEvent(tick=0, channel=9, data=[42, 127]),
   midi.NoteOnEvent(tick=132, channel=9, data=[42, 0]),
   midi.NoteOnEvent(tick=0, channel=9, data=[36, 0]),
   midi.NoteOnEvent(tick=60, channel=9, data=[38, 127]),
   midi.NoteOnEvent(tick=0, channel=9, data=[42, 127]),
   midi.NoteOnEvent(tick=132, channel=9, data=[42, 0]),
   midi.NoteOnEvent(tick=0, channel=9, data=[38, 0]),
   midi.NoteOnEvent(tick=60, channel=9, data=[36, 127]),
   midi.NoteOnEvent(tick=0, channel=9, data=[42, 127]),
   midi.NoteOnEvent(tick=132, channel=9, data=[42, 0]),
   midi.NoteOnEvent(tick=0, channel=9, data=[36, 0]),
   midi.NoteOnEvent(tick=60, channel=9, data=[36, 127]),
   midi.NoteOnEvent(tick=0, channel=9, data=[42, 127]),
   midi.NoteOnEvent(tick=132, channel=9, data=[42, 0]),
   midi.NoteOnEvent(tick=0, channel=9, data=[36, 0]),
   midi.NoteOnEvent(tick=60, channel=9, data=[36, 127]),
   midi.NoteOnEvent(tick=0, channel=9, data=[42, 127]),
   midi.NoteOnEvent(tick=132, channel=9, data=[42, 0]),
   midi.NoteOnEvent(tick=0, channel=9, data=[36, 0]),
   midi.NoteOnEvent(tick=60, channel=9, data=[38, 127]),
   midi.NoteOnEvent(tick=0, channel=9, data=[42, 127]),
   midi.NoteOnEvent(tick=132, channel=9, data=[42, 0]),
   midi.NoteOnEvent(tick=0, channel=9, data=[38, 0]),
   midi.NoteOnEvent(tick=60, channel=9, data=[42, 127]),
   midi.NoteOnEvent(tick=132, channel=9, data=[42, 0]),
   midi.NoteOnEvent(tick=60, channel=9, data=[36, 127]),
   midi.NoteOnEvent(tick=0, channel=9, data=[42, 127]),
   midi.NoteOnEvent(tick=132, channel=9, data=[42, 0]),
   midi.NoteOnEvent(tick=0, channel=9, data=[36, 0]),
   midi.NoteOnEvent(tick=60, channel=9, data=[36, 127]),
   midi.NoteOnEvent(tick=0, channel=9, data=[42, 127]),
   midi.NoteOnEvent(tick=132, channel=9, data=[42, 0]),
   midi.NoteOnEvent(tick=0, channel=9, data=[36, 0]),
   midi.NoteOnEvent(tick=60, channel=9, data=[38, 127]),
   midi.NoteOnEvent(tick=0, channel=9, data=[42, 127]),
   midi.NoteOnEvent(tick=132, channel=9, data=[42, 0]),
   midi.NoteOnEvent(tick=0, channel=9, data=[38, 0]),
   midi.NoteOnEvent(tick=60, channel=9, data=[36, 127]),
   midi.NoteOnEvent(tick=0, channel=9, data=[42, 127]),
   midi.NoteOnEvent(tick=132, channel=9, data=[42, 0]),
   midi.NoteOnEvent(tick=0, channel=9, data=[36, 0]),
   midi.NoteOnEvent(tick=60, channel=9, data=[36, 127]),
   midi.NoteOnEvent(tick=0, channel=9, data=[42, 127]),
   midi.NoteOnEvent(tick=132, channel=9, data=[42, 0]),
   midi.NoteOnEvent(tick=0, channel=9, data=[36, 0]),
   midi.NoteOnEvent(tick=60, channel=9, data=[36, 127]),
   midi.NoteOnEvent(tick=0, channel=9, data=[42, 127]),
   midi.NoteOnEvent(tick=132, channel=9, data=[42, 0]),
   midi.NoteOnEvent(tick=0, channel=9, data=[36, 0]),
   midi.NoteOnEvent(tick=60, channel=9, data=[38, 127]),
   midi.NoteOnEvent(tick=64, channel=9, data=[38, 0]),
   midi.NoteOnEvent(tick=32, channel=9, data=[38, 127]),
   midi.NoteOnEvent(tick=64, channel=9, data=[38, 0]),
   midi.NoteOnEvent(tick=32, channel=9, data=[36, 127]),
   midi.NoteOnEvent(tick=132, channel=9, data=[36, 0]),
   midi.NoteOnEvent(tick=60, channel=9, data=[42, 127]),
   midi.NoteOnEvent(tick=132, channel=9, data=[42, 0]),
   midi.NoteOnEvent(tick=60, channel=9, data=[36, 127]),
   midi.NoteOnEvent(tick=0, channel=9, data=[42, 127]),
   midi.NoteOnEvent(tick=132, channel=9, data=[42, 0]),
   midi.NoteOnEvent(tick=0, channel=9, data=[36, 0]),
   midi.NoteOnEvent(tick=60, channel=9, data=[38, 127]),
   midi.NoteOnEvent(tick=0, channel=9, data=[42, 127]),
   midi.NoteOnEvent(tick=132, channel=9, data=[42, 0]),
   midi.NoteOnEvent(tick=0, channel=9, data=[38, 0]),
   midi.NoteOnEvent(tick=60, channel=9, data=[36, 127]),
   midi.NoteOnEvent(tick=0, channel=9, data=[42, 127]),
   midi.NoteOnEvent(tick=132, channel=9, data=[42, 0]),
   midi.NoteOnEvent(tick=0, channel=9, data=[36, 0]),
   midi.NoteOnEvent(tick=60, channel=9, data=[36, 127]),
   midi.NoteOnEvent(tick=264, channel=9, data=[36, 0]),
   midi.NoteOnEvent(tick=120, channel=9, data=[38, 127]),
   midi.NoteOnEvent(tick=0, channel=9, data=[42, 127]),
   midi.NoteOnEvent(tick=132, channel=9, data=[42, 0]),
   midi.NoteOnEvent(tick=0, channel=9, data=[38, 0]),
   midi.NoteOnEvent(tick=60, channel=9, data=[42, 127]),
   midi.NoteOnEvent(tick=132, channel=9, data=[42, 0]),
   midi.NoteOnEvent(tick=60, channel=9, data=[38, 127]),
   midi.NoteOnEvent(tick=64, channel=9, data=[38, 0]),
   midi.NoteOnEvent(tick=32, channel=9, data=[38, 127]),
   midi.NoteOnEvent(tick=64, channel=9, data=[38, 0]),
   midi.NoteOnEvent(tick=32, channel=9, data=[36, 127]),
   midi.NoteOnEvent(tick=132, channel=9, data=[36, 0]),
   midi.NoteOnEvent(tick=60, channel=9, data=[42, 127]),
   midi.NoteOnEvent(tick=132, channel=9, data=[42, 0]),
   midi.NoteOnEvent(tick=60, channel=9, data=[42, 127]),
   midi.NoteOnEvent(tick=132, channel=9, data=[42, 0]),
   midi.NoteOnEvent(tick=60, channel=9, data=[36, 127]),
   midi.NoteOnEvent(tick=0, channel=9, data=[42, 127]),
   midi.NoteOnEvent(tick=132, channel=9, data=[42, 0]),
   midi.NoteOnEvent(tick=0, channel=9, data=[36, 0]),
   midi.NoteOnEvent(tick=60, channel=9, data=[36, 127]),
   midi.NoteOnEvent(tick=0, channel=9, data=[42, 127]),
   midi.NoteOnEvent(tick=132, channel=9, data=[42, 0]),
   midi.NoteOnEvent(tick=0, channel=9, data=[36, 0]),
   midi.NoteOnEvent(tick=60, channel=9, data=[38, 127]),
   midi.NoteOnEvent(tick=64, channel=9, data=[38, 0]),
   midi.NoteOnEvent(tick=32, channel=9, data=[38, 127]),
   midi.NoteOnEvent(tick=64, channel=9, data=[38, 0]),
   midi.NoteOnEvent(tick=32, channel=9, data=[36, 127]),
   midi.NoteOnEvent(tick=132, channel=9, data=[36, 0]),
   midi.NoteOnEvent(tick=60, channel=9, data=[42, 127]),
   midi.NoteOnEvent(tick=132, channel=9, data=[42, 0]),
   midi.NoteOnEvent(tick=60, channel=9, data=[36, 127]),
   midi.NoteOnEvent(tick=0, channel=9, data=[42, 127]),
   midi.NoteOnEvent(tick=132, channel=9, data=[42, 0]),
   midi.NoteOnEvent(tick=0, channel=9, data=[36, 0]),
   midi.NoteOnEvent(tick=60, channel=9, data=[38, 127]),
   midi.NoteOnEvent(tick=0, channel=9, data=[42, 127]),
   midi.NoteOnEvent(tick=132, channel=9, data=[42, 0]),
   midi.NoteOnEvent(tick=0, channel=9, data=[38, 0]),
   midi.NoteOnEvent(tick=60, channel=9, data=[36, 127]),
   midi.NoteOnEvent(tick=0, channel=9, data=[42, 127]),
   midi.NoteOnEvent(tick=132, channel=9, data=[42, 0]),
   midi.NoteOnEvent(tick=0, channel=9, data=[36, 0]),
   midi.NoteOnEvent(tick=60, channel=9, data=[36, 127]),
   midi.NoteOnEvent(tick=0, channel=9, data=[42, 127]),
   midi.NoteOnEvent(tick=132, channel=9, data=[42, 0]),
   midi.NoteOnEvent(tick=0, channel=9, data=[36, 0]),
   midi.NoteOnEvent(tick=60, channel=9, data=[36, 127]),
   midi.NoteOnEvent(tick=0, channel=9, data=[42, 127]),
   midi.NoteOnEvent(tick=132, channel=9, data=[42, 0]),
   midi.NoteOnEvent(tick=0, channel=9, data=[36, 0]),
   midi.NoteOnEvent(tick=60, channel=9, data=[38, 127]),
   midi.NoteOnEvent(tick=0, channel=9, data=[42, 127]),
   midi.NoteOnEvent(tick=132, channel=9, data=[42, 0]),
   midi.NoteOnEvent(tick=0, channel=9, data=[38, 0]),
   midi.NoteOnEvent(tick=60, channel=9, data=[42, 127]),
   midi.NoteOnEvent(tick=132, channel=9, data=[42, 0]),
   midi.NoteOnEvent(tick=60, channel=9, data=[36, 127]),
   midi.NoteOnEvent(tick=0, channel=9, data=[42, 127]),
   midi.NoteOnEvent(tick=132, channel=9, data=[42, 0]),
   midi.NoteOnEvent(tick=0, channel=9, data=[36, 0]),
   midi.NoteOnEvent(tick=60, channel=9, data=[36, 127]),
   midi.NoteOnEvent(tick=0, channel=9, data=[42, 127]),
   midi.NoteOnEvent(tick=132, channel=9, data=[42, 0]),
   midi.NoteOnEvent(tick=0, channel=9, data=[36, 0]),
   midi.NoteOnEvent(tick=60, channel=9, data=[38, 127]),
   midi.NoteOnEvent(tick=0, channel=9, data=[42, 127]),
   midi.NoteOnEvent(tick=132, channel=9, data=[42, 0]),
   midi.NoteOnEvent(tick=0, channel=9, data=[38, 0]),
   midi.NoteOnEvent(tick=60, channel=9, data=[36, 127]),
   midi.NoteOnEvent(tick=0, channel=9, data=[42, 127]),
   midi.NoteOnEvent(tick=132, channel=9, data=[42, 0]),
   midi.NoteOnEvent(tick=0, channel=9, data=[36, 0]),
   midi.NoteOnEvent(tick=60, channel=9, data=[36, 127]),
   midi.NoteOnEvent(tick=0, channel=9, data=[42, 127]),
   midi.NoteOnEvent(tick=132, channel=9, data=[42, 0]),
   midi.NoteOnEvent(tick=0, channel=9, data=[36, 0]),
   midi.NoteOnEvent(tick=60, channel=9, data=[36, 127]),
   midi.NoteOnEvent(tick=0, channel=9, data=[42, 127]),
   midi.NoteOnEvent(tick=132, channel=9, data=[42, 0]),
   midi.NoteOnEvent(tick=0, channel=9, data=[36, 0]),
   midi.NoteOnEvent(tick=60, channel=9, data=[38, 127]),
   midi.NoteOnEvent(tick=64, channel=9, data=[38, 0]),
   midi.NoteOnEvent(tick=32, channel=9, data=[38, 127]),
   midi.NoteOnEvent(tick=64, channel=9, data=[38, 0]),
   midi.NoteOnEvent(tick=32, channel=9, data=[36, 127]),
   midi.NoteOnEvent(tick=132, channel=9, data=[36, 0]),
   midi.NoteOnEvent(tick=60, channel=9, data=[42, 127]),
   midi.NoteOnEvent(tick=132, channel=9, data=[42, 0]),
   midi.NoteOnEvent(tick=60, channel=9, data=[36, 127]),
   midi.NoteOnEvent(tick=0, channel=9, data=[42, 127]),
   midi.NoteOnEvent(tick=132, channel=9, data=[42, 0]),
   midi.NoteOnEvent(tick=0, channel=9, data=[36, 0]),
   midi.NoteOnEvent(tick=60, channel=9, data=[38, 127]),
   midi.NoteOnEvent(tick=0, channel=9, data=[42, 127]),
   midi.NoteOnEvent(tick=132, channel=9, data=[42, 0]),
   midi.NoteOnEvent(tick=0, channel=9, data=[38, 0]),
   midi.NoteOnEvent(tick=60, channel=9, data=[36, 127]),
   midi.NoteOnEvent(tick=0, channel=9, data=[42, 127]),
   midi.NoteOnEvent(tick=132, channel=9, data=[42, 0]),
   midi.NoteOnEvent(tick=0, channel=9, data=[36, 0]),
   midi.NoteOnEvent(tick=60, channel=9, data=[36, 127]),
   midi.NoteOnEvent(tick=264, channel=9, data=[36, 0]),
   midi.NoteOnEvent(tick=120, channel=9, data=[38, 127]),
   midi.NoteOnEvent(tick=0, channel=9, data=[42, 127]),
   midi.NoteOnEvent(tick=132, channel=9, data=[42, 0]),
   midi.NoteOnEvent(tick=0, channel=9, data=[38, 0]),
   midi.NoteOnEvent(tick=60, channel=9, data=[42, 127]),
   midi.NoteOnEvent(tick=132, channel=9, data=[42, 0]),
   midi.NoteOnEvent(tick=60, channel=9, data=[38, 127]),
   midi.NoteOnEvent(tick=64, channel=9, data=[38, 0]),
   midi.NoteOnEvent(tick=32, channel=9, data=[38, 127]),
   midi.NoteOnEvent(tick=64, channel=9, data=[38, 0]),
   midi.NoteOnEvent(tick=32, channel=9, data=[36, 127]),
   midi.NoteOnEvent(tick=132, channel=9, data=[36, 0]),
   midi.NoteOnEvent(tick=60, channel=9, data=[42, 127]),
   midi.NoteOnEvent(tick=132, channel=9, data=[42, 0]),
   midi.NoteOnEvent(tick=60, channel=9, data=[42, 127]),
   midi.NoteOnEvent(tick=132, channel=9, data=[42, 0]),
   midi.NoteOnEvent(tick=60, channel=9, data=[36, 127]),
   midi.NoteOnEvent(tick=0, channel=9, data=[42, 127]),
   midi.NoteOnEvent(tick=132, channel=9, data=[42, 0]),
   midi.NoteOnEvent(tick=0, channel=9, data=[36, 0]),
   midi.NoteOnEvent(tick=60, channel=9, data=[36, 127]),
   midi.NoteOnEvent(tick=0, channel=9, data=[42, 127]),
   midi.NoteOnEvent(tick=132, channel=9, data=[42, 0]),
   midi.NoteOnEvent(tick=0, channel=9, data=[36, 0]),
   midi.NoteOnEvent(tick=60, channel=9, data=[38, 127]),
   midi.NoteOnEvent(tick=64, channel=9, data=[38, 0]),
   midi.NoteOnEvent(tick=32, channel=9, data=[38, 127]),
   midi.NoteOnEvent(tick=64, channel=9, data=[38, 0]),
   midi.NoteOnEvent(tick=32, channel=9, data=[36, 127]),
   midi.NoteOnEvent(tick=132, channel=9, data=[36, 0]),
   midi.NoteOnEvent(tick=60, channel=9, data=[42, 127]),
   midi.NoteOnEvent(tick=132, channel=9, data=[42, 0]),
   midi.NoteOnEvent(tick=60, channel=9, data=[36, 127]),
   midi.NoteOnEvent(tick=0, channel=9, data=[42, 127]),
   midi.NoteOnEvent(tick=132, channel=9, data=[42, 0]),
   midi.NoteOnEvent(tick=0, channel=9, data=[36, 0]),
   midi.NoteOnEvent(tick=60, channel=9, data=[38, 127]),
   midi.NoteOnEvent(tick=0, channel=9, data=[42, 127]),
   midi.NoteOnEvent(tick=132, channel=9, data=[42, 0]),
   midi.NoteOnEvent(tick=0, channel=9, data=[38, 0]),
   midi.NoteOnEvent(tick=60, channel=9, data=[36, 127]),
   midi.NoteOnEvent(tick=0, channel=9, data=[42, 127]),
   midi.NoteOnEvent(tick=132, channel=9, data=[42, 0]),
   midi.NoteOnEvent(tick=0, channel=9, data=[36, 0]),
   midi.NoteOnEvent(tick=60, channel=9, data=[36, 127]),
   midi.NoteOnEvent(tick=0, channel=9, data=[42, 127]),
   midi.NoteOnEvent(tick=132, channel=9, data=[42, 0]),
   midi.NoteOnEvent(tick=0, channel=9, data=[36, 0]),
   midi.NoteOnEvent(tick=60, channel=9, data=[36, 127]),
   midi.NoteOnEvent(tick=0, channel=9, data=[42, 127]),
   midi.NoteOnEvent(tick=132, channel=9, data=[42, 0]),
   midi.NoteOnEvent(tick=0, channel=9, data=[36, 0]),
   midi.NoteOnEvent(tick=60, channel=9, data=[38, 127]),
   midi.NoteOnEvent(tick=0, channel=9, data=[42, 127]),
   midi.NoteOnEvent(tick=132, channel=9, data=[42, 0]),
   midi.NoteOnEvent(tick=0, channel=9, data=[38, 0]),
   midi.NoteOnEvent(tick=60, channel=9, data=[42, 127]),
   midi.NoteOnEvent(tick=132, channel=9, data=[42, 0]),
   midi.NoteOnEvent(tick=60, channel=9, data=[36, 127]),
   midi.NoteOnEvent(tick=0, channel=9, data=[42, 127]),
   midi.NoteOnEvent(tick=132, channel=9, data=[42, 0]),
   midi.NoteOnEvent(tick=0, channel=9, data=[36, 0]),
   midi.NoteOnEvent(tick=60, channel=9, data=[36, 127]),
   midi.NoteOnEvent(tick=0, channel=9, data=[42, 127]),
   midi.NoteOnEvent(tick=132, channel=9, data=[42, 0]),
   midi.NoteOnEvent(tick=0, channel=9, data=[36, 0]),
   midi.NoteOnEvent(tick=60, channel=9, data=[38, 127]),
   midi.NoteOnEvent(tick=0, channel=9, data=[42, 127]),
   midi.NoteOnEvent(tick=132, channel=9, data=[42, 0]),
   midi.NoteOnEvent(tick=0, channel=9, data=[38, 0]),
   midi.NoteOnEvent(tick=60, channel=9, data=[36, 127]),
   midi.NoteOnEvent(tick=0, channel=9, data=[42, 127]),
   midi.NoteOnEvent(tick=132, channel=9, data=[42, 0]),
   midi.NoteOnEvent(tick=0, channel=9, data=[36, 0]),
   midi.NoteOnEvent(tick=60, channel=9, data=[36, 127]),
   midi.NoteOnEvent(tick=0, channel=9, data=[42, 127]),
   midi.NoteOnEvent(tick=132, channel=9, data=[42, 0]),
   midi.NoteOnEvent(tick=0, channel=9, data=[36, 0]),
   midi.NoteOnEvent(tick=60, channel=9, data=[36, 127]),
   midi.NoteOnEvent(tick=0, channel=9, data=[42, 127]),
   midi.NoteOnEvent(tick=132, channel=9, data=[42, 0]),
   midi.NoteOnEvent(tick=0, channel=9, data=[36, 0]),
   midi.NoteOnEvent(tick=60, channel=9, data=[38, 127]),
   midi.NoteOnEvent(tick=64, channel=9, data=[38, 0]),
   midi.NoteOnEvent(tick=32, channel=9, data=[38, 127]),
   midi.NoteOnEvent(tick=64, channel=9, data=[38, 0]),
   midi.NoteOnEvent(tick=32, channel=9, data=[36, 127]),
   midi.NoteOnEvent(tick=132, channel=9, data=[36, 0]),
   midi.NoteOnEvent(tick=60, channel=9, data=[42, 127]),
   midi.NoteOnEvent(tick=132, channel=9, data=[42, 0]),
   midi.NoteOnEvent(tick=60, channel=9, data=[36, 127]),
   midi.NoteOnEvent(tick=0, channel=9, data=[42, 127]),
   midi.NoteOnEvent(tick=132, channel=9, data=[42, 0]),
   midi.NoteOnEvent(tick=0, channel=9, data=[36, 0]),
   midi.NoteOnEvent(tick=60, channel=9, data=[38, 127]),
   midi.NoteOnEvent(tick=0, channel=9, data=[42, 127]),
   midi.NoteOnEvent(tick=132, channel=9, data=[42, 0]),
   midi.NoteOnEvent(tick=0, channel=9, data=[38, 0]),
   midi.NoteOnEvent(tick=60, channel=9, data=[36, 127]),
   midi.NoteOnEvent(tick=0, channel=9, data=[42, 127]),
   midi.NoteOnEvent(tick=132, channel=9, data=[42, 0]),
   midi.NoteOnEvent(tick=0, channel=9, data=[36, 0]),
   midi.NoteOnEvent(tick=60, channel=9, data=[36, 127]),
   midi.NoteOnEvent(tick=264, channel=9, data=[36, 0]),
   midi.NoteOnEvent(tick=120, channel=9, data=[38, 127]),
   midi.NoteOnEvent(tick=0, channel=9, data=[42, 127]),
   midi.NoteOnEvent(tick=132, channel=9, data=[42, 0]),
   midi.NoteOnEvent(tick=0, channel=9, data=[38, 0]),
   midi.NoteOnEvent(tick=60, channel=9, data=[42, 127]),
   midi.NoteOnEvent(tick=132, channel=9, data=[42, 0]),
   midi.NoteOnEvent(tick=60, channel=9, data=[38, 127]),
   midi.NoteOnEvent(tick=64, channel=9, data=[38, 0]),
   midi.NoteOnEvent(tick=32, channel=9, data=[38, 127]),
   midi.NoteOnEvent(tick=64, channel=9, data=[38, 0]),
   midi.NoteOnEvent(tick=32, channel=9, data=[36, 127]),
   midi.NoteOnEvent(tick=132, channel=9, data=[36, 0]),
   midi.NoteOnEvent(tick=60, channel=9, data=[42, 127]),
   midi.NoteOnEvent(tick=132, channel=9, data=[42, 0]),
   midi.NoteOnEvent(tick=60, channel=9, data=[42, 127]),
   midi.NoteOnEvent(tick=132, channel=9, data=[42, 0]),
   midi.NoteOnEvent(tick=60, channel=9, data=[36, 127]),
   midi.NoteOnEvent(tick=0, channel=9, data=[42, 127]),
   midi.NoteOnEvent(tick=132, channel=9, data=[42, 0]),
   midi.NoteOnEvent(tick=0, channel=9, data=[36, 0]),
   midi.NoteOnEvent(tick=60, channel=9, data=[36, 127]),
   midi.NoteOnEvent(tick=0, channel=9, data=[42, 127]),
   midi.NoteOnEvent(tick=132, channel=9, data=[42, 0]),
   midi.NoteOnEvent(tick=0, channel=9, data=[36, 0]),
   midi.NoteOnEvent(tick=60, channel=9, data=[38, 127]),
   midi.NoteOnEvent(tick=64, channel=9, data=[38, 0]),
   midi.NoteOnEvent(tick=32, channel=9, data=[38, 127]),
   midi.NoteOnEvent(tick=64, channel=9, data=[38, 0]),
   midi.NoteOnEvent(tick=32, channel=9, data=[36, 127]),
   midi.NoteOnEvent(tick=132, channel=9, data=[36, 0]),
   midi.NoteOnEvent(tick=60, channel=9, data=[42, 127]),
   midi.NoteOnEvent(tick=132, channel=9, data=[42, 0]),
   midi.NoteOnEvent(tick=60, channel=9, data=[36, 127]),
   midi.NoteOnEvent(tick=0, channel=9, data=[42, 127]),
   midi.NoteOnEvent(tick=132, channel=9, data=[42, 0]),
   midi.NoteOnEvent(tick=0, channel=9, data=[36, 0]),
   midi.NoteOnEvent(tick=60, channel=9, data=[38, 127]),
   midi.NoteOnEvent(tick=0, channel=9, data=[42, 127]),
   midi.NoteOnEvent(tick=132, channel=9, data=[42, 0]),
   midi.NoteOnEvent(tick=0, channel=9, data=[38, 0]),
   midi.NoteOnEvent(tick=60, channel=9, data=[36, 127]),
   midi.NoteOnEvent(tick=0, channel=9, data=[42, 127]),
   midi.NoteOnEvent(tick=132, channel=9, data=[42, 0]),
   midi.NoteOnEvent(tick=0, channel=9, data=[36, 0]),
   midi.NoteOnEvent(tick=60, channel=9, data=[36, 127]),
   midi.NoteOnEvent(tick=0, channel=9, data=[42, 127]),
   midi.NoteOnEvent(tick=132, channel=9, data=[42, 0]),
   midi.NoteOnEvent(tick=0, channel=9, data=[36, 0]),
   midi.NoteOnEvent(tick=60, channel=9, data=[36, 127]),
   midi.NoteOnEvent(tick=0, channel=9, data=[42, 127]),
   midi.NoteOnEvent(tick=132, channel=9, data=[42, 0]),
   midi.NoteOnEvent(tick=0, channel=9, data=[36, 0]),
   midi.NoteOnEvent(tick=60, channel=9, data=[38, 127]),
   midi.NoteOnEvent(tick=0, channel=9, data=[42, 127]),
   midi.NoteOnEvent(tick=132, channel=9, data=[42, 0]),
   midi.NoteOnEvent(tick=0, channel=9, data=[38, 0]),
   midi.NoteOnEvent(tick=60, channel=9, data=[42, 127]),
   midi.NoteOnEvent(tick=132, channel=9, data=[42, 0]),
   midi.NoteOnEvent(tick=60, channel=9, data=[36, 127]),
   midi.NoteOnEvent(tick=0, channel=9, data=[42, 127]),
   midi.NoteOnEvent(tick=132, channel=9, data=[42, 0]),
   midi.NoteOnEvent(tick=0, channel=9, data=[36, 0]),
   midi.NoteOnEvent(tick=60, channel=9, data=[36, 127]),
   midi.NoteOnEvent(tick=0, channel=9, data=[42, 127]),
   midi.NoteOnEvent(tick=132, channel=9, data=[42, 0]),
   midi.NoteOnEvent(tick=0, channel=9, data=[36, 0]),
   midi.NoteOnEvent(tick=60, channel=9, data=[38, 127]),
   midi.NoteOnEvent(tick=0, channel=9, data=[42, 127]),
   midi.NoteOnEvent(tick=132, channel=9, data=[42, 0]),
   midi.NoteOnEvent(tick=0, channel=9, data=[38, 0]),
   midi.NoteOnEvent(tick=60, channel=9, data=[36, 127]),
   midi.NoteOnEvent(tick=0, channel=9, data=[42, 127]),
   midi.NoteOnEvent(tick=132, channel=9, data=[42, 0]),
   midi.NoteOnEvent(tick=0, channel=9, data=[36, 0]),
   midi.NoteOnEvent(tick=60, channel=9, data=[36, 127]),
   midi.NoteOnEvent(tick=0, channel=9, data=[42, 127]),
   midi.NoteOnEvent(tick=132, channel=9, data=[42, 0]),
   midi.NoteOnEvent(tick=0, channel=9, data=[36, 0]),
   midi.NoteOnEvent(tick=60, channel=9, data=[36, 127]),
   midi.NoteOnEvent(tick=0, channel=9, data=[42, 127]),
   midi.NoteOnEvent(tick=132, channel=9, data=[42, 0]),
   midi.NoteOnEvent(tick=0, channel=9, data=[36, 0]),
   midi.NoteOnEvent(tick=60, channel=9, data=[38, 127]),
   midi.NoteOnEvent(tick=64, channel=9, data=[38, 0]),
   midi.NoteOnEvent(tick=32, channel=9, data=[38, 127]),
   midi.NoteOnEvent(tick=64, channel=9, data=[38, 0]),
   midi.NoteOnEvent(tick=32, channel=9, data=[36, 127]),
   midi.NoteOnEvent(tick=132, channel=9, data=[36, 0]),
   midi.NoteOnEvent(tick=60, channel=9, data=[42, 127]),
   midi.NoteOnEvent(tick=132, channel=9, data=[42, 0]),
   midi.NoteOnEvent(tick=60, channel=9, data=[36, 127]),
   midi.NoteOnEvent(tick=0, channel=9, data=[42, 127]),
   midi.NoteOnEvent(tick=132, channel=9, data=[42, 0]),
   midi.NoteOnEvent(tick=0, channel=9, data=[36, 0]),
   midi.NoteOnEvent(tick=60, channel=9, data=[38, 127]),
   midi.NoteOnEvent(tick=0, channel=9, data=[42, 127]),
   midi.NoteOnEvent(tick=132, channel=9, data=[42, 0]),
   midi.NoteOnEvent(tick=0, channel=9, data=[38, 0]),
   midi.NoteOnEvent(tick=60, channel=9, data=[36, 127]),
   midi.NoteOnEvent(tick=0, channel=9, data=[42, 127]),
   midi.NoteOnEvent(tick=132, channel=9, data=[42, 0]),
   midi.NoteOnEvent(tick=0, channel=9, data=[36, 0]),
   midi.NoteOnEvent(tick=60, channel=9, data=[36, 127]),
   midi.NoteOnEvent(tick=264, channel=9, data=[36, 0]),
   midi.NoteOnEvent(tick=120, channel=9, data=[38, 127]),
   midi.NoteOnEvent(tick=0, channel=9, data=[42, 127]),
   midi.NoteOnEvent(tick=132, channel=9, data=[42, 0]),
   midi.NoteOnEvent(tick=0, channel=9, data=[38, 0]),
   midi.NoteOnEvent(tick=60, channel=9, data=[42, 127]),
   midi.NoteOnEvent(tick=132, channel=9, data=[42, 0]),
   midi.NoteOnEvent(tick=60, channel=9, data=[38, 127]),
   midi.NoteOnEvent(tick=64, channel=9, data=[38, 0]),
   midi.NoteOnEvent(tick=32, channel=9, data=[38, 127]),
   midi.NoteOnEvent(tick=64, channel=9, data=[38, 0]),
   midi.NoteOnEvent(tick=32, channel=9, data=[36, 127]),
   midi.NoteOnEvent(tick=132, channel=9, data=[36, 0]),
   midi.NoteOnEvent(tick=60, channel=9, data=[42, 127]),
   midi.NoteOnEvent(tick=132, channel=9, data=[42, 0]),
   midi.NoteOnEvent(tick=60, channel=9, data=[42, 127]),
   midi.NoteOnEvent(tick=132, channel=9, data=[42, 0]),
   midi.NoteOnEvent(tick=60, channel=9, data=[36, 127]),
   midi.NoteOnEvent(tick=0, channel=9, data=[42, 127]),
   midi.NoteOnEvent(tick=132, channel=9, data=[42, 0]),
   midi.NoteOnEvent(tick=0, channel=9, data=[36, 0]),
   midi.NoteOnEvent(tick=60, channel=9, data=[36, 127]),
   midi.NoteOnEvent(tick=0, channel=9, data=[42, 127]),
   midi.NoteOnEvent(tick=132, channel=9, data=[42, 0]),
   midi.NoteOnEvent(tick=0, channel=9, data=[36, 0]),
   midi.NoteOnEvent(tick=60, channel=9, data=[38, 127]),
   midi.NoteOnEvent(tick=64, channel=9, data=[38, 0]),
   midi.NoteOnEvent(tick=32, channel=9, data=[38, 127]),
   midi.NoteOnEvent(tick=64, channel=9, data=[38, 0]),
   midi.NoteOnEvent(tick=32, channel=9, data=[36, 127]),
   midi.NoteOnEvent(tick=132, channel=9, data=[36, 0]),
   midi.NoteOnEvent(tick=60, channel=9, data=[42, 127]),
   midi.NoteOnEvent(tick=132, channel=9, data=[42, 0]),
   midi.NoteOnEvent(tick=60, channel=9, data=[36, 127]),
   midi.NoteOnEvent(tick=0, channel=9, data=[42, 127]),
   midi.NoteOnEvent(tick=132, channel=9, data=[42, 0]),
   midi.NoteOnEvent(tick=0, channel=9, data=[36, 0]),
   midi.NoteOnEvent(tick=60, channel=9, data=[38, 127]),
   midi.NoteOnEvent(tick=0, channel=9, data=[42, 127]),
   midi.NoteOnEvent(tick=132, channel=9, data=[42, 0]),
   midi.NoteOnEvent(tick=0, channel=9, data=[38, 0]),
   midi.NoteOnEvent(tick=60, channel=9, data=[36, 127]),
   midi.NoteOnEvent(tick=0, channel=9, data=[42, 127]),
   midi.NoteOnEvent(tick=132, channel=9, data=[42, 0]),
   midi.NoteOnEvent(tick=0, channel=9, data=[36, 0]),
   midi.NoteOnEvent(tick=60, channel=9, data=[36, 127]),
   midi.NoteOnEvent(tick=0, channel=9, data=[42, 127]),
   midi.NoteOnEvent(tick=132, channel=9, data=[42, 0]),
   midi.NoteOnEvent(tick=0, channel=9, data=[36, 0]),
   midi.NoteOnEvent(tick=60, channel=9, data=[36, 127]),
   midi.NoteOnEvent(tick=0, channel=9, data=[42, 127]),
   midi.NoteOnEvent(tick=132, channel=9, data=[42, 0]),
   midi.NoteOnEvent(tick=0, channel=9, data=[36, 0]),
   midi.NoteOnEvent(tick=60, channel=9, data=[38, 127]),
   midi.NoteOnEvent(tick=0, channel=9, data=[42, 127]),
   midi.NoteOnEvent(tick=132, channel=9, data=[42, 0]),
   midi.NoteOnEvent(tick=0, channel=9, data=[38, 0]),
   midi.NoteOnEvent(tick=60, channel=9, data=[42, 127]),
   midi.NoteOnEvent(tick=132, channel=9, data=[42, 0]),
   midi.NoteOnEvent(tick=60, channel=9, data=[36, 127]),
   midi.NoteOnEvent(tick=0, channel=9, data=[42, 127]),
   midi.NoteOnEvent(tick=132, channel=9, data=[42, 0]),
   midi.NoteOnEvent(tick=0, channel=9, data=[36, 0]),
   midi.NoteOnEvent(tick=60, channel=9, data=[36, 127]),
   midi.NoteOnEvent(tick=0, channel=9, data=[42, 127]),
   midi.NoteOnEvent(tick=132, channel=9, data=[42, 0]),
   midi.NoteOnEvent(tick=0, channel=9, data=[36, 0]),
   midi.NoteOnEvent(tick=60, channel=9, data=[38, 127]),
   midi.NoteOnEvent(tick=0, channel=9, data=[42, 127]),
   midi.NoteOnEvent(tick=132, channel=9, data=[42, 0]),
   midi.NoteOnEvent(tick=0, channel=9, data=[38, 0]),
   midi.NoteOnEvent(tick=60, channel=9, data=[36, 127]),
   midi.NoteOnEvent(tick=0, channel=9, data=[42, 127]),
   midi.NoteOnEvent(tick=132, channel=9, data=[42, 0]),
   midi.NoteOnEvent(tick=0, channel=9, data=[36, 0]),
   midi.NoteOnEvent(tick=60, channel=9, data=[36, 127]),
   midi.NoteOnEvent(tick=0, channel=9, data=[42, 127]),
   midi.NoteOnEvent(tick=132, channel=9, data=[42, 0]),
   midi.NoteOnEvent(tick=0, channel=9, data=[36, 0]),
   midi.NoteOnEvent(tick=60, channel=9, data=[36, 127]),
   midi.NoteOnEvent(tick=0, channel=9, data=[42, 127]),
   midi.NoteOnEvent(tick=132, channel=9, data=[42, 0]),
   midi.NoteOnEvent(tick=0, channel=9, data=[36, 0]),
   midi.NoteOnEvent(tick=60, channel=9, data=[38, 127]),
   midi.NoteOnEvent(tick=64, channel=9, data=[38, 0]),
   midi.NoteOnEvent(tick=32, channel=9, data=[38, 127]),
   midi.NoteOnEvent(tick=64, channel=9, data=[38, 0]),
   midi.NoteOnEvent(tick=32, channel=9, data=[36, 127]),
   midi.NoteOnEvent(tick=132, channel=9, data=[36, 0]),
   midi.NoteOnEvent(tick=60, channel=9, data=[42, 127]),
   midi.NoteOnEvent(tick=132, channel=9, data=[42, 0]),
   midi.NoteOnEvent(tick=60, channel=9, data=[36, 127]),
   midi.NoteOnEvent(tick=0, channel=9, data=[42, 127]),
   midi.NoteOnEvent(tick=132, channel=9, data=[42, 0]),
   midi.NoteOnEvent(tick=0, channel=9, data=[36, 0]),
   midi.NoteOnEvent(tick=60, channel=9, data=[38, 127]),
   midi.NoteOnEvent(tick=0, channel=9, data=[42, 127]),
   midi.NoteOnEvent(tick=132, channel=9, data=[42, 0]),
   midi.NoteOnEvent(tick=0, channel=9, data=[38, 0]),
   midi.NoteOnEvent(tick=60, channel=9, data=[36, 127]),
   midi.NoteOnEvent(tick=0, channel=9, data=[42, 127]),
   midi.NoteOnEvent(tick=132, channel=9, data=[42, 0]),
   midi.NoteOnEvent(tick=0, channel=9, data=[36, 0]),
   midi.NoteOnEvent(tick=60, channel=9, data=[36, 127]),
   midi.NoteOnEvent(tick=264, channel=9, data=[36, 0]),
   midi.NoteOnEvent(tick=120, channel=9, data=[38, 127]),
   midi.NoteOnEvent(tick=0, channel=9, data=[42, 127]),
   midi.NoteOnEvent(tick=132, channel=9, data=[42, 0]),
   midi.NoteOnEvent(tick=0, channel=9, data=[38, 0]),
   midi.NoteOnEvent(tick=60, channel=9, data=[42, 127]),
   midi.NoteOnEvent(tick=132, channel=9, data=[42, 0]),
   midi.NoteOnEvent(tick=60, channel=9, data=[38, 127]),
   midi.NoteOnEvent(tick=64, channel=9, data=[38, 0]),
   midi.NoteOnEvent(tick=32, channel=9, data=[38, 127]),
   midi.NoteOnEvent(tick=64, channel=9, data=[38, 0]),
   midi.NoteOnEvent(tick=32, channel=9, data=[36, 127]),
   midi.NoteOnEvent(tick=132, channel=9, data=[36, 0]),
   midi.NoteOnEvent(tick=60, channel=9, data=[42, 127]),
   midi.NoteOnEvent(tick=132, channel=9, data=[42, 0]),
   midi.NoteOnEvent(tick=60, channel=9, data=[42, 127]),
   midi.NoteOnEvent(tick=132, channel=9, data=[42, 0]),
   midi.NoteOnEvent(tick=60, channel=9, data=[36, 127]),
   midi.NoteOnEvent(tick=0, channel=9, data=[42, 127]),
   midi.NoteOnEvent(tick=132, channel=9, data=[42, 0]),
   midi.NoteOnEvent(tick=0, channel=9, data=[36, 0]),
   midi.NoteOnEvent(tick=60, channel=9, data=[36, 127]),
   midi.NoteOnEvent(tick=0, channel=9, data=[42, 127]),
   midi.NoteOnEvent(tick=132, channel=9, data=[42, 0]),
   midi.NoteOnEvent(tick=0, channel=9, data=[36, 0]),
   midi.NoteOnEvent(tick=60, channel=9, data=[38, 127]),
   midi.NoteOnEvent(tick=64, channel=9, data=[38, 0]),
   midi.NoteOnEvent(tick=32, channel=9, data=[38, 127]),
   midi.NoteOnEvent(tick=64, channel=9, data=[38, 0]),
   midi.NoteOnEvent(tick=32, channel=9, data=[36, 127]),
   midi.NoteOnEvent(tick=132, channel=9, data=[36, 0]),
   midi.NoteOnEvent(tick=60, channel=9, data=[42, 127]),
   midi.NoteOnEvent(tick=132, channel=9, data=[42, 0]),
   midi.NoteOnEvent(tick=60, channel=9, data=[36, 127]),
   midi.NoteOnEvent(tick=0, channel=9, data=[42, 127]),
   midi.NoteOnEvent(tick=132, channel=9, data=[42, 0]),
   midi.NoteOnEvent(tick=0, channel=9, data=[36, 0]),
   midi.NoteOnEvent(tick=60, channel=9, data=[38, 127]),
   midi.NoteOnEvent(tick=0, channel=9, data=[42, 127]),
   midi.NoteOnEvent(tick=132, channel=9, data=[42, 0]),
   midi.NoteOnEvent(tick=0, channel=9, data=[38, 0]),
   midi.NoteOnEvent(tick=60, channel=9, data=[36, 127]),
   midi.NoteOnEvent(tick=0, channel=9, data=[42, 127]),
   midi.NoteOnEvent(tick=132, channel=9, data=[42, 0]),
   midi.NoteOnEvent(tick=0, channel=9, data=[36, 0]),
   midi.NoteOnEvent(tick=60, channel=9, data=[36, 127]),
   midi.NoteOnEvent(tick=0, channel=9, data=[42, 127]),
   midi.NoteOnEvent(tick=132, channel=9, data=[42, 0]),
   midi.NoteOnEvent(tick=0, channel=9, data=[36, 0]),
   midi.NoteOnEvent(tick=60, channel=9, data=[36, 127]),
   midi.NoteOnEvent(tick=0, channel=9, data=[42, 127]),
   midi.NoteOnEvent(tick=132, channel=9, data=[42, 0]),
   midi.NoteOnEvent(tick=0, channel=9, data=[36, 0]),
   midi.NoteOnEvent(tick=60, channel=9, data=[38, 127]),
   midi.NoteOnEvent(tick=0, channel=9, data=[42, 127]),
   midi.NoteOnEvent(tick=132, channel=9, data=[42, 0]),
   midi.NoteOnEvent(tick=0, channel=9, data=[38, 0]),
   midi.NoteOnEvent(tick=60, channel=9, data=[42, 127]),
   midi.NoteOnEvent(tick=132, channel=9, data=[42, 0]),
   midi.NoteOnEvent(tick=60, channel=9, data=[36, 127]),
   midi.NoteOnEvent(tick=0, channel=9, data=[42, 127]),
   midi.NoteOnEvent(tick=132, channel=9, data=[42, 0]),
   midi.NoteOnEvent(tick=0, channel=9, data=[36, 0]),
   midi.NoteOnEvent(tick=60, channel=9, data=[36, 127]),
   midi.NoteOnEvent(tick=0, channel=9, data=[42, 127]),
   midi.NoteOnEvent(tick=132, channel=9, data=[42, 0]),
   midi.NoteOnEvent(tick=0, channel=9, data=[36, 0]),
   midi.NoteOnEvent(tick=60, channel=9, data=[38, 127]),
   midi.NoteOnEvent(tick=0, channel=9, data=[42, 127]),
   midi.NoteOnEvent(tick=132, channel=9, data=[42, 0]),
   midi.NoteOnEvent(tick=0, channel=9, data=[38, 0]),
   midi.NoteOnEvent(tick=60, channel=9, data=[36, 127]),
   midi.NoteOnEvent(tick=0, channel=9, data=[42, 127]),
   midi.NoteOnEvent(tick=132, channel=9, data=[42, 0]),
   midi.NoteOnEvent(tick=0, channel=9, data=[36, 0]),
   midi.NoteOnEvent(tick=60, channel=9, data=[36, 127]),
   midi.NoteOnEvent(tick=0, channel=9, data=[42, 127]),
   midi.NoteOnEvent(tick=132, channel=9, data=[42, 0]),
   midi.NoteOnEvent(tick=0, channel=9, data=[36, 0]),
   midi.NoteOnEvent(tick=60, channel=9, data=[36, 127]),
   midi.NoteOnEvent(tick=0, channel=9, data=[42, 127]),
   midi.NoteOnEvent(tick=132, channel=9, data=[42, 0]),
   midi.NoteOnEvent(tick=0, channel=9, data=[36, 0]),
   midi.NoteOnEvent(tick=60, channel=9, data=[38, 127]),
   midi.NoteOnEvent(tick=64, channel=9, data=[38, 0]),
   midi.NoteOnEvent(tick=32, channel=9, data=[38, 127]),
   midi.NoteOnEvent(tick=64, channel=9, data=[38, 0]),
   midi.NoteOnEvent(tick=32, channel=9, data=[36, 127]),
   midi.NoteOnEvent(tick=132, channel=9, data=[36, 0]),
   midi.NoteOnEvent(tick=60, channel=9, data=[42, 127]),
   midi.NoteOnEvent(tick=132, channel=9, data=[42, 0]),
   midi.NoteOnEvent(tick=60, channel=9, data=[36, 127]),
   midi.NoteOnEvent(tick=0, channel=9, data=[42, 127]),
   midi.NoteOnEvent(tick=132, channel=9, data=[42, 0]),
   midi.NoteOnEvent(tick=0, channel=9, data=[36, 0]),
   midi.NoteOnEvent(tick=60, channel=9, data=[38, 127]),
   midi.NoteOnEvent(tick=0, channel=9, data=[42, 127]),
   midi.NoteOnEvent(tick=132, channel=9, data=[42, 0]),
   midi.NoteOnEvent(tick=0, channel=9, data=[38, 0]),
   midi.NoteOnEvent(tick=60, channel=9, data=[36, 127]),
   midi.NoteOnEvent(tick=0, channel=9, data=[42, 127]),
   midi.NoteOnEvent(tick=132, channel=9, data=[42, 0]),
   midi.NoteOnEvent(tick=0, channel=9, data=[36, 0]),
   midi.NoteOnEvent(tick=60, channel=9, data=[36, 127]),
   midi.NoteOnEvent(tick=264, channel=9, data=[36, 0]),
   midi.NoteOnEvent(tick=120, channel=9, data=[38, 127]),
   midi.NoteOnEvent(tick=0, channel=9, data=[42, 127]),
   midi.NoteOnEvent(tick=132, channel=9, data=[42, 0]),
   midi.NoteOnEvent(tick=0, channel=9, data=[38, 0]),
   midi.NoteOnEvent(tick=60, channel=9, data=[42, 127]),
   midi.NoteOnEvent(tick=132, channel=9, data=[42, 0]),
   midi.NoteOnEvent(tick=60, channel=9, data=[38, 127]),
   midi.NoteOnEvent(tick=64, channel=9, data=[38, 0]),
   midi.NoteOnEvent(tick=32, channel=9, data=[38, 127]),
   midi.NoteOnEvent(tick=64, channel=9, data=[38, 0]),
   midi.NoteOnEvent(tick=32, channel=9, data=[36, 127]),
   midi.NoteOnEvent(tick=132, channel=9, data=[36, 0]),
   midi.NoteOnEvent(tick=60, channel=9, data=[42, 127]),
   midi.NoteOnEvent(tick=132, channel=9, data=[42, 0]),
   midi.NoteOnEvent(tick=60, channel=9, data=[42, 127]),
   midi.NoteOnEvent(tick=132, channel=9, data=[42, 0]),
   midi.NoteOnEvent(tick=60, channel=9, data=[36, 127]),
   midi.NoteOnEvent(tick=0, channel=9, data=[42, 127]),
   midi.NoteOnEvent(tick=132, channel=9, data=[42, 0]),
   midi.NoteOnEvent(tick=0, channel=9, data=[36, 0]),
   midi.NoteOnEvent(tick=60, channel=9, data=[36, 127]),
   midi.NoteOnEvent(tick=0, channel=9, data=[42, 127]),
   midi.NoteOnEvent(tick=132, channel=9, data=[42, 0]),
   midi.NoteOnEvent(tick=0, channel=9, data=[36, 0]),
   midi.NoteOnEvent(tick=60, channel=9, data=[38, 127]),
   midi.NoteOnEvent(tick=64, channel=9, data=[38, 0]),
   midi.NoteOnEvent(tick=32, channel=9, data=[38, 127]),
   midi.NoteOnEvent(tick=64, channel=9, data=[38, 0]),
   midi.NoteOnEvent(tick=32, channel=9, data=[36, 127]),
   midi.NoteOnEvent(tick=132, channel=9, data=[36, 0]),
   midi.NoteOnEvent(tick=60, channel=9, data=[42, 127]),
   midi.NoteOnEvent(tick=132, channel=9, data=[42, 0]),
   midi.NoteOnEvent(tick=60, channel=9, data=[36, 127]),
   midi.NoteOnEvent(tick=0, channel=9, data=[42, 127]),
   midi.NoteOnEvent(tick=132, channel=9, data=[42, 0]),
   midi.NoteOnEvent(tick=0, channel=9, data=[36, 0]),
   midi.NoteOnEvent(tick=60, channel=9, data=[38, 127]),
   midi.NoteOnEvent(tick=0, channel=9, data=[42, 127]),
   midi.NoteOnEvent(tick=132, channel=9, data=[42, 0]),
   midi.NoteOnEvent(tick=0, channel=9, data=[38, 0]),
   midi.NoteOnEvent(tick=60, channel=9, data=[36, 127]),
   midi.NoteOnEvent(tick=0, channel=9, data=[42, 127]),
   midi.NoteOnEvent(tick=132, channel=9, data=[42, 0]),
   midi.NoteOnEvent(tick=0, channel=9, data=[36, 0]),
   midi.NoteOnEvent(tick=60, channel=9, data=[36, 127]),
   midi.NoteOnEvent(tick=0, channel=9, data=[42, 127]),
   midi.NoteOnEvent(tick=132, channel=9, data=[42, 0]),
   midi.NoteOnEvent(tick=0, channel=9, data=[36, 0]),
   midi.NoteOnEvent(tick=60, channel=9, data=[36, 127]),
   midi.NoteOnEvent(tick=0, channel=9, data=[42, 127]),
   midi.NoteOnEvent(tick=132, channel=9, data=[42, 0]),
   midi.NoteOnEvent(tick=0, channel=9, data=[36, 0]),
   midi.NoteOnEvent(tick=60, channel=9, data=[38, 127]),
   midi.NoteOnEvent(tick=0, channel=9, data=[42, 127]),
   midi.NoteOnEvent(tick=132, channel=9, data=[42, 0]),
   midi.NoteOnEvent(tick=0, channel=9, data=[38, 0]),
   midi.NoteOnEvent(tick=60, channel=9, data=[42, 127]),
   midi.NoteOnEvent(tick=132, channel=9, data=[42, 0]),
   midi.NoteOnEvent(tick=60, channel=9, data=[36, 127]),
   midi.NoteOnEvent(tick=0, channel=9, data=[42, 127]),
   midi.NoteOnEvent(tick=132, channel=9, data=[42, 0]),
   midi.NoteOnEvent(tick=0, channel=9, data=[36, 0]),
   midi.NoteOnEvent(tick=60, channel=9, data=[36, 127]),
   midi.NoteOnEvent(tick=0, channel=9, data=[42, 127]),
   midi.NoteOnEvent(tick=132, channel=9, data=[42, 0]),
   midi.NoteOnEvent(tick=0, channel=9, data=[36, 0]),
   midi.NoteOnEvent(tick=60, channel=9, data=[38, 127]),
   midi.NoteOnEvent(tick=0, channel=9, data=[42, 127]),
   midi.NoteOnEvent(tick=132, channel=9, data=[42, 0]),
   midi.NoteOnEvent(tick=0, channel=9, data=[38, 0]),
   midi.NoteOnEvent(tick=60, channel=9, data=[36, 127]),
   midi.NoteOnEvent(tick=0, channel=9, data=[42, 127]),
   midi.NoteOnEvent(tick=132, channel=9, data=[42, 0]),
   midi.NoteOnEvent(tick=0, channel=9, data=[36, 0]),
   midi.NoteOnEvent(tick=60, channel=9, data=[36, 127]),
   midi.NoteOnEvent(tick=0, channel=9, data=[42, 127]),
   midi.NoteOnEvent(tick=132, channel=9, data=[42, 0]),
   midi.NoteOnEvent(tick=0, channel=9, data=[36, 0]),
   midi.NoteOnEvent(tick=60, channel=9, data=[36, 127]),
   midi.NoteOnEvent(tick=0, channel=9, data=[42, 127]),
   midi.NoteOnEvent(tick=132, channel=9, data=[42, 0]),
   midi.NoteOnEvent(tick=0, channel=9, data=[36, 0]),
   midi.NoteOnEvent(tick=60, channel=9, data=[38, 127]),
   midi.NoteOnEvent(tick=64, channel=9, data=[38, 0]),
   midi.NoteOnEvent(tick=32, channel=9, data=[38, 127]),
   midi.NoteOnEvent(tick=64, channel=9, data=[38, 0]),
   midi.NoteOnEvent(tick=32, channel=9, data=[36, 127]),
   midi.NoteOnEvent(tick=132, channel=9, data=[36, 0]),
   midi.NoteOnEvent(tick=60, channel=9, data=[42, 127]),
   midi.NoteOnEvent(tick=132, channel=9, data=[42, 0]),
   midi.NoteOnEvent(tick=60, channel=9, data=[36, 127]),
   midi.NoteOnEvent(tick=0, channel=9, data=[42, 127]),
   midi.NoteOnEvent(tick=132, channel=9, data=[42, 0]),
   midi.NoteOnEvent(tick=0, channel=9, data=[36, 0]),
   midi.NoteOnEvent(tick=60, channel=9, data=[38, 127]),
   midi.NoteOnEvent(tick=0, channel=9, data=[42, 127]),
   midi.NoteOnEvent(tick=132, channel=9, data=[42, 0]),
   midi.NoteOnEvent(tick=0, channel=9, data=[38, 0]),
   midi.NoteOnEvent(tick=60, channel=9, data=[36, 127]),
   midi.NoteOnEvent(tick=0, channel=9, data=[42, 127]),
   midi.NoteOnEvent(tick=132, channel=9, data=[42, 0]),
   midi.NoteOnEvent(tick=0, channel=9, data=[36, 0]),
   midi.NoteOnEvent(tick=60, channel=9, data=[36, 127]),
   midi.NoteOnEvent(tick=264, channel=9, data=[36, 0]),
   midi.NoteOnEvent(tick=120, channel=9, data=[38, 127]),
   midi.NoteOnEvent(tick=0, channel=9, data=[42, 127]),
   midi.NoteOnEvent(tick=132, channel=9, data=[42, 0]),
   midi.NoteOnEvent(tick=0, channel=9, data=[38, 0]),
   midi.NoteOnEvent(tick=60, channel=9, data=[42, 127]),
   midi.NoteOnEvent(tick=132, channel=9, data=[42, 0]),
   midi.NoteOnEvent(tick=60, channel=9, data=[38, 127]),
   midi.NoteOnEvent(tick=64, channel=9, data=[38, 0]),
   midi.NoteOnEvent(tick=32, channel=9, data=[38, 127]),
   midi.NoteOnEvent(tick=64, channel=9, data=[38, 0]),
   midi.NoteOnEvent(tick=32, channel=9, data=[36, 127]),
   midi.NoteOnEvent(tick=132, channel=9, data=[36, 0]),
   midi.NoteOnEvent(tick=60, channel=9, data=[42, 127]),
   midi.NoteOnEvent(tick=132, channel=9, data=[42, 0]),
   midi.NoteOnEvent(tick=60, channel=9, data=[42, 127]),
   midi.NoteOnEvent(tick=132, channel=9, data=[42, 0]),
   midi.NoteOnEvent(tick=60, channel=9, data=[36, 127]),
   midi.NoteOnEvent(tick=0, channel=9, data=[42, 127]),
   midi.NoteOnEvent(tick=132, channel=9, data=[42, 0]),
   midi.NoteOnEvent(tick=0, channel=9, data=[36, 0]),
   midi.NoteOnEvent(tick=60, channel=9, data=[36, 127]),
   midi.NoteOnEvent(tick=0, channel=9, data=[42, 127]),
   midi.NoteOnEvent(tick=132, channel=9, data=[42, 0]),
   midi.NoteOnEvent(tick=0, channel=9, data=[36, 0]),
   midi.NoteOnEvent(tick=60, channel=9, data=[38, 127]),
   midi.NoteOnEvent(tick=64, channel=9, data=[38, 0]),
   midi.NoteOnEvent(tick=32, channel=9, data=[38, 127]),
   midi.NoteOnEvent(tick=64, channel=9, data=[38, 0]),
   midi.NoteOnEvent(tick=32, channel=9, data=[36, 127]),
   midi.NoteOnEvent(tick=132, channel=9, data=[36, 0]),
   midi.NoteOnEvent(tick=60, channel=9, data=[42, 127]),
   midi.NoteOnEvent(tick=132, channel=9, data=[42, 0]),
   midi.NoteOnEvent(tick=60, channel=9, data=[36, 127]),
   midi.NoteOnEvent(tick=0, channel=9, data=[42, 127]),
   midi.NoteOnEvent(tick=132, channel=9, data=[42, 0]),
   midi.NoteOnEvent(tick=0, channel=9, data=[36, 0]),
   midi.NoteOnEvent(tick=60, channel=9, data=[38, 127]),
   midi.NoteOnEvent(tick=0, channel=9, data=[42, 127]),
   midi.NoteOnEvent(tick=132, channel=9, data=[42, 0]),
   midi.NoteOnEvent(tick=0, channel=9, data=[38, 0]),
   midi.NoteOnEvent(tick=60, channel=9, data=[36, 127]),
   midi.NoteOnEvent(tick=0, channel=9, data=[42, 127]),
   midi.NoteOnEvent(tick=132, channel=9, data=[42, 0]),
   midi.NoteOnEvent(tick=0, channel=9, data=[36, 0]),
   midi.NoteOnEvent(tick=60, channel=9, data=[38, 127]),
   midi.NoteOnEvent(tick=0, channel=9, data=[42, 127]),
   midi.NoteOnEvent(tick=132, channel=9, data=[42, 0]),
   midi.NoteOnEvent(tick=0, channel=9, data=[38, 0]),
   midi.NoteOnEvent(tick=60, channel=9, data=[36, 127]),
   midi.NoteOnEvent(tick=0, channel=9, data=[42, 127]),
   midi.NoteOnEvent(tick=64, channel=9, data=[36, 0]),
   midi.NoteOnEvent(tick=32, channel=9, data=[36, 127]),
   midi.NoteOnEvent(tick=36, channel=9, data=[42, 0]),
   midi.NoteOnEvent(tick=28, channel=9, data=[36, 0]),
   midi.NoteOnEvent(tick=32, channel=9, data=[38, 127]),
   midi.NoteOnEvent(tick=0, channel=9, data=[42, 127]),
   midi.NoteOnEvent(tick=132, channel=9, data=[42, 0]),
   midi.NoteOnEvent(tick=0, channel=9, data=[38, 0]),
   midi.NoteOnEvent(tick=60, channel=9, data=[36, 127]),
   midi.NoteOnEvent(tick=0, channel=9, data=[42, 127]),
   midi.NoteOnEvent(tick=132, channel=9, data=[42, 0]),
   midi.NoteOnEvent(tick=0, channel=9, data=[36, 0]),
   midi.NoteOnEvent(tick=60, channel=9, data=[42, 127]),
   midi.NoteOnEvent(tick=132, channel=9, data=[42, 0]),
   midi.NoteOnEvent(tick=60, channel=9, data=[42, 127]),
   midi.NoteOnEvent(tick=132, channel=9, data=[42, 0]),
   midi.NoteOnEvent(tick=60, channel=9, data=[42, 127]),
   midi.NoteOnEvent(tick=132, channel=9, data=[42, 0]),
   midi.NoteOnEvent(tick=60, channel=9, data=[42, 127]),
   midi.NoteOnEvent(tick=132, channel=9, data=[42, 0]),
   midi.NoteOnEvent(tick=60, channel=9, data=[38, 127]),
   midi.NoteOnEvent(tick=132, channel=9, data=[38, 0]),
   midi.NoteOnEvent(tick=60, channel=9, data=[40, 127]),
   midi.NoteOnEvent(tick=46, channel=9, data=[40, 127]),
   midi.NoteOnEvent(tick=18, channel=9, data=[40, 0]),
   midi.NoteOnEvent(tick=32, channel=9, data=[45, 127]),
   midi.NoteOnEvent(tick=14, channel=9, data=[40, 0]),
   midi.NoteOnEvent(tick=50, channel=9, data=[45, 0]),
   midi.NoteOnEvent(tick=32, channel=9, data=[36, 127]),
   midi.NoteOnEvent(tick=132, channel=9, data=[36, 0]),
   midi.NoteOnEvent(tick=60, channel=9, data=[48, 127]),
   midi.NoteOnEvent(tick=132, channel=9, data=[48, 0]),
   midi.NoteOnEvent(tick=1788, channel=9, data=[36, 127]),
   midi.NoteOnEvent(tick=400, channel=9, data=[36, 0]),
   midi.NoteOnEvent(tick=1520, channel=9, data=[36, 127]),
   midi.NoteOnEvent(tick=132, channel=9, data=[36, 0]),
   midi.NoteOnEvent(tick=1788, channel=9, data=[36, 127]),
   midi.NoteOnEvent(tick=400, channel=9, data=[36, 0]),
   midi.NoteOnEvent(tick=1136, channel=9, data=[45, 127]),
   midi.NoteOnEvent(tick=132, channel=9, data=[45, 0]),
   midi.NoteOnEvent(tick=60, channel=9, data=[45, 127]),
   midi.NoteOnEvent(tick=22, channel=9, data=[43, 127]),
   midi.NoteOnEvent(tick=110, channel=9, data=[45, 0]),
   midi.NoteOnEvent(tick=22, channel=9, data=[43, 0]),
   midi.NoteOnEvent(tick=38, channel=9, data=[36, 127]),
   midi.NoteOnEvent(tick=400, channel=9, data=[36, 0]),
   midi.NoteOnEvent(tick=176, channel=9, data=[38, 127]),
   midi.NoteOnEvent(tick=132, channel=9, data=[38, 0]),
   midi.NoteOnEvent(tick=252, channel=9, data=[36, 127]),
   midi.NoteOnEvent(tick=268, channel=9, data=[36, 0]),
   midi.NoteOnEvent(tick=116, channel=9, data=[36, 127]),
   midi.NoteOnEvent(tick=64, channel=9, data=[36, 0]),
   midi.NoteOnEvent(tick=32, channel=9, data=[36, 127]),
   midi.NoteOnEvent(tick=64, channel=9, data=[36, 0]),
   midi.NoteOnEvent(tick=32, channel=9, data=[38, 127]),
   midi.NoteOnEvent(tick=132, channel=9, data=[38, 0]),
   midi.NoteOnEvent(tick=60, channel=9, data=[36, 127]),
   midi.NoteOnEvent(tick=132, channel=9, data=[36, 0]),
   midi.NoteOnEvent(tick=60, channel=9, data=[36, 127]),
   midi.NoteOnEvent(tick=400, channel=9, data=[36, 0]),
   midi.NoteOnEvent(tick=176, channel=9, data=[38, 127]),
   midi.NoteOnEvent(tick=132, channel=9, data=[38, 0]),
   midi.NoteOnEvent(tick=252, channel=9, data=[36, 127]),
   midi.NoteOnEvent(tick=268, channel=9, data=[36, 0]),
   midi.NoteOnEvent(tick=116, channel=9, data=[36, 127]),
   midi.NoteOnEvent(tick=64, channel=9, data=[36, 0]),
   midi.NoteOnEvent(tick=32, channel=9, data=[36, 127]),
   midi.NoteOnEvent(tick=64, channel=9, data=[36, 0]),
   midi.NoteOnEvent(tick=32, channel=9, data=[38, 127]),
   midi.NoteOnEvent(tick=132, channel=9, data=[38, 0]),
   midi.NoteOnEvent(tick=60, channel=9, data=[36, 127]),
   midi.NoteOnEvent(tick=132, channel=9, data=[36, 0]),
   midi.NoteOnEvent(tick=60, channel=9, data=[36, 127]),
   midi.NoteOnEvent(tick=400, channel=9, data=[36, 0]),
   midi.NoteOnEvent(tick=176, channel=9, data=[38, 127]),
   midi.NoteOnEvent(tick=132, channel=9, data=[38, 0]),
   midi.NoteOnEvent(tick=252, channel=9, data=[36, 127]),
   midi.NoteOnEvent(tick=268, channel=9, data=[36, 0]),
   midi.NoteOnEvent(tick=116, channel=9, data=[36, 127]),
   midi.NoteOnEvent(tick=64, channel=9, data=[36, 0]),
   midi.NoteOnEvent(tick=32, channel=9, data=[36, 127]),
   midi.NoteOnEvent(tick=64, channel=9, data=[36, 0]),
   midi.NoteOnEvent(tick=32, channel=9, data=[38, 127]),
   midi.NoteOnEvent(tick=132, channel=9, data=[38, 0]),
   midi.NoteOnEvent(tick=60, channel=9, data=[36, 127]),
   midi.NoteOnEvent(tick=132, channel=9, data=[36, 0]),
   midi.NoteOnEvent(tick=60, channel=9, data=[36, 127]),
   midi.NoteOnEvent(tick=400, channel=9, data=[36, 0]),
   midi.NoteOnEvent(tick=176, channel=9, data=[38, 127]),
   midi.NoteOnEvent(tick=132, channel=9, data=[38, 0]),
   midi.NoteOnEvent(tick=252, channel=9, data=[36, 127]),
   midi.NoteOnEvent(tick=268, channel=9, data=[36, 0]),
   midi.NoteOnEvent(tick=116, channel=9, data=[36, 127]),
   midi.NoteOnEvent(tick=46, channel=9, data=[36, 127]),
   midi.NoteOnEvent(tick=18, channel=9, data=[36, 0]),
   midi.NoteOnEvent(tick=32, channel=9, data=[36, 127]),
   midi.NoteOnEvent(tick=14, channel=9, data=[36, 0]),
   midi.NoteOnEvent(tick=50, channel=9, data=[36, 0]),
   midi.NoteOnEvent(tick=32, channel=9, data=[38, 127]),
   midi.NoteOnEvent(tick=132, channel=9, data=[38, 0]),
   midi.NoteOnEvent(tick=60, channel=9, data=[36, 127]),
   midi.NoteOnEvent(tick=132, channel=9, data=[36, 0]),
   midi.NoteOnEvent(tick=60, channel=9, data=[36, 127]),
   midi.NoteOnEvent(tick=400, channel=9, data=[36, 0]),
   midi.NoteOnEvent(tick=176, channel=9, data=[38, 127]),
   midi.NoteOnEvent(tick=132, channel=9, data=[38, 0]),
   midi.NoteOnEvent(tick=252, channel=9, data=[36, 127]),
   midi.NoteOnEvent(tick=268, channel=9, data=[36, 0]),
   midi.NoteOnEvent(tick=116, channel=9, data=[36, 127]),
   midi.NoteOnEvent(tick=64, channel=9, data=[36, 0]),
   midi.NoteOnEvent(tick=32, channel=9, data=[36, 127]),
   midi.NoteOnEvent(tick=64, channel=9, data=[36, 0]),
   midi.NoteOnEvent(tick=32, channel=9, data=[38, 127]),
   midi.NoteOnEvent(tick=132, channel=9, data=[38, 0]),
   midi.NoteOnEvent(tick=60, channel=9, data=[36, 127]),
   midi.NoteOnEvent(tick=132, channel=9, data=[36, 0]),
   midi.NoteOnEvent(tick=60, channel=9, data=[36, 127]),
   midi.NoteOnEvent(tick=400, channel=9, data=[36, 0]),
   midi.NoteOnEvent(tick=176, channel=9, data=[38, 127]),
   midi.NoteOnEvent(tick=132, channel=9, data=[38, 0]),
   midi.NoteOnEvent(tick=252, channel=9, data=[36, 127]),
   midi.NoteOnEvent(tick=268, channel=9, data=[36, 0]),
   midi.NoteOnEvent(tick=116, channel=9, data=[36, 127]),
   midi.NoteOnEvent(tick=64, channel=9, data=[36, 0]),
   midi.NoteOnEvent(tick=32, channel=9, data=[36, 127]),
   midi.NoteOnEvent(tick=64, channel=9, data=[36, 0]),
   midi.NoteOnEvent(tick=32, channel=9, data=[38, 127]),
   midi.NoteOnEvent(tick=132, channel=9, data=[38, 0]),
   midi.NoteOnEvent(tick=60, channel=9, data=[36, 127]),
   midi.NoteOnEvent(tick=132, channel=9, data=[36, 0]),
   midi.NoteOnEvent(tick=60, channel=9, data=[36, 127]),
   midi.NoteOnEvent(tick=400, channel=9, data=[36, 0]),
   midi.NoteOnEvent(tick=176, channel=9, data=[38, 127]),
   midi.NoteOnEvent(tick=132, channel=9, data=[38, 0]),
   midi.NoteOnEvent(tick=252, channel=9, data=[36, 127]),
   midi.NoteOnEvent(tick=268, channel=9, data=[36, 0]),
   midi.NoteOnEvent(tick=116, channel=9, data=[36, 127]),
   midi.NoteOnEvent(tick=64, channel=9, data=[36, 0]),
   midi.NoteOnEvent(tick=32, channel=9, data=[36, 127]),
   midi.NoteOnEvent(tick=64, channel=9, data=[36, 0]),
   midi.NoteOnEvent(tick=32, channel=9, data=[38, 127]),
   midi.NoteOnEvent(tick=132, channel=9, data=[38, 0]),
   midi.NoteOnEvent(tick=60, channel=9, data=[36, 127]),
   midi.NoteOnEvent(tick=132, channel=9, data=[36, 0]),
   midi.NoteOnEvent(tick=60, channel=9, data=[36, 127]),
   midi.NoteOnEvent(tick=400, channel=9, data=[36, 0]),
   midi.NoteOnEvent(tick=176, channel=9, data=[38, 127]),
   midi.NoteOnEvent(tick=132, channel=9, data=[38, 0]),
   midi.NoteOnEvent(tick=252, channel=9, data=[36, 127]),
   midi.NoteOnEvent(tick=268, channel=9, data=[36, 0]),
   midi.NoteOnEvent(tick=116, channel=9, data=[36, 127]),
   midi.NoteOnEvent(tick=64, channel=9, data=[36, 0]),
   midi.NoteOnEvent(tick=32, channel=9, data=[36, 127]),
   midi.NoteOnEvent(tick=64, channel=9, data=[36, 0]),
   midi.NoteOnEvent(tick=32, channel=9, data=[38, 127]),
   midi.NoteOnEvent(tick=132, channel=9, data=[38, 0]),
   midi.NoteOnEvent(tick=60, channel=9, data=[36, 127]),
   midi.NoteOnEvent(tick=132, channel=9, data=[36, 0]),
   midi.NoteOnEvent(tick=60, channel=9, data=[36, 127]),
   midi.NoteOnEvent(tick=400, channel=9, data=[36, 0]),
   midi.NoteOnEvent(tick=176, channel=9, data=[38, 127]),
   midi.NoteOnEvent(tick=132, channel=9, data=[38, 0]),
   midi.NoteOnEvent(tick=252, channel=9, data=[36, 127]),
   midi.NoteOnEvent(tick=400, channel=9, data=[36, 0]),
   midi.NoteOnEvent(tick=176, channel=9, data=[38, 127]),
   midi.NoteOnEvent(tick=132, channel=9, data=[38, 0]),
   midi.NoteOnEvent(tick=60, channel=9, data=[36, 127]),
   midi.NoteOnEvent(tick=64, channel=9, data=[36, 0]),
   midi.NoteOnEvent(tick=32, channel=9, data=[36, 127]),
   midi.NoteOnEvent(tick=64, channel=9, data=[36, 0]),
   midi.NoteOnEvent(tick=32, channel=9, data=[36, 127]),
   midi.NoteOnEvent(tick=400, channel=9, data=[36, 0]),
   midi.NoteOnEvent(tick=176, channel=9, data=[38, 127]),
   midi.NoteOnEvent(tick=132, channel=9, data=[38, 0]),
   midi.NoteOnEvent(tick=252, channel=9, data=[36, 127]),
   midi.NoteOnEvent(tick=400, channel=9, data=[36, 0]),
   midi.NoteOnEvent(tick=176, channel=9, data=[38, 127]),
   midi.NoteOnEvent(tick=132, channel=9, data=[38, 0]),
   midi.NoteOnEvent(tick=60, channel=9, data=[36, 127]),
   midi.NoteOnEvent(tick=64, channel=9, data=[36, 0]),
   midi.NoteOnEvent(tick=32, channel=9, data=[36, 127]),
   midi.NoteOnEvent(tick=64, channel=9, data=[36, 0]),
   midi.NoteOnEvent(tick=32, channel=9, data=[36, 127]),
   midi.NoteOnEvent(tick=132, channel=9, data=[36, 0]),
   midi.NoteOnEvent(tick=60, channel=9, data=[36, 127]),
   midi.NoteOnEvent(tick=64, channel=9, data=[36, 0]),
   midi.NoteOnEvent(tick=32, channel=9, data=[36, 127]),
   midi.NoteOnEvent(tick=64, channel=9, data=[36, 0]),
   midi.NoteOnEvent(tick=32, channel=9, data=[36, 127]),
   midi.NoteOnEvent(tick=64, channel=9, data=[36, 0]),
   midi.NoteOnEvent(tick=32, channel=9, data=[36, 127]),
   midi.NoteOnEvent(tick=64, channel=9, data=[36, 0]),
   midi.NoteOnEvent(tick=32, channel=9, data=[38, 127]),
   midi.NoteOnEvent(tick=0, channel=9, data=[36, 127]),
   midi.NoteOnEvent(tick=64, channel=9, data=[36, 0]),
   midi.NoteOnEvent(tick=0, channel=9, data=[38, 0]),
   midi.NoteOnEvent(tick=32, channel=9, data=[36, 127]),
   midi.NoteOnEvent(tick=64, channel=9, data=[36, 0]),
   midi.NoteOnEvent(tick=32, channel=9, data=[36, 127]),
   midi.NoteOnEvent(tick=64, channel=9, data=[36, 0]),
   midi.NoteOnEvent(tick=32, channel=9, data=[36, 127]),
   midi.NoteOnEvent(tick=64, channel=9, data=[36, 0]),
   midi.NoteOnEvent(tick=32, channel=9, data=[36, 127]),
   midi.NoteOnEvent(tick=64, channel=9, data=[36, 0]),
   midi.NoteOnEvent(tick=32, channel=9, data=[36, 127]),
   midi.NoteOnEvent(tick=64, channel=9, data=[36, 0]),
   midi.NoteOnEvent(tick=32, channel=9, data=[36, 127]),
   midi.NoteOnEvent(tick=64, channel=9, data=[36, 0]),
   midi.NoteOnEvent(tick=32, channel=9, data=[36, 127]),
   midi.NoteOnEvent(tick=64, channel=9, data=[36, 0]),
   midi.NoteOnEvent(tick=32, channel=9, data=[36, 127]),
   midi.NoteOnEvent(tick=64, channel=9, data=[36, 0]),
   midi.NoteOnEvent(tick=32, channel=9, data=[36, 127]),
   midi.NoteOnEvent(tick=64, channel=9, data=[36, 0]),
   midi.NoteOnEvent(tick=32, channel=9, data=[38, 127]),
   midi.NoteOnEvent(tick=0, channel=9, data=[36, 127]),
   midi.NoteOnEvent(tick=64, channel=9, data=[36, 0]),
   midi.NoteOnEvent(tick=0, channel=9, data=[38, 0]),
   midi.NoteOnEvent(tick=32, channel=9, data=[36, 127]),
   midi.NoteOnEvent(tick=64, channel=9, data=[36, 0]),
   midi.NoteOnEvent(tick=32, channel=9, data=[36, 127]),
   midi.NoteOnEvent(tick=64, channel=9, data=[36, 0]),
   midi.NoteOnEvent(tick=32, channel=9, data=[36, 127]),
   midi.NoteOnEvent(tick=64, channel=9, data=[36, 0]),
   midi.NoteOnEvent(tick=32, channel=9, data=[36, 127]),
   midi.NoteOnEvent(tick=64, channel=9, data=[36, 0]),
   midi.NoteOnEvent(tick=32, channel=9, data=[36, 127]),
   midi.NoteOnEvent(tick=64, channel=9, data=[36, 0]),
   midi.NoteOnEvent(tick=32, channel=9, data=[36, 127]),
   midi.NoteOnEvent(tick=64, channel=9, data=[36, 0]),
   midi.NoteOnEvent(tick=32, channel=9, data=[36, 127]),
   midi.NoteOnEvent(tick=64, channel=9, data=[36, 0]),
   midi.NoteOnEvent(tick=32, channel=9, data=[36, 127]),
   midi.NoteOnEvent(tick=64, channel=9, data=[36, 0]),
   midi.NoteOnEvent(tick=32, channel=9, data=[36, 127]),
   midi.NoteOnEvent(tick=64, channel=9, data=[36, 0]),
   midi.NoteOnEvent(tick=32, channel=9, data=[38, 127]),
   midi.NoteOnEvent(tick=0, channel=9, data=[36, 127]),
   midi.NoteOnEvent(tick=64, channel=9, data=[36, 0]),
   midi.NoteOnEvent(tick=0, channel=9, data=[38, 0]),
   midi.NoteOnEvent(tick=32, channel=9, data=[36, 127]),
   midi.NoteOnEvent(tick=64, channel=9, data=[36, 0]),
   midi.NoteOnEvent(tick=32, channel=9, data=[36, 127]),
   midi.NoteOnEvent(tick=64, channel=9, data=[36, 0]),
   midi.NoteOnEvent(tick=32, channel=9, data=[36, 127]),
   midi.NoteOnEvent(tick=64, channel=9, data=[36, 0]),
   midi.NoteOnEvent(tick=32, channel=9, data=[36, 127]),
   midi.NoteOnEvent(tick=64, channel=9, data=[36, 0]),
   midi.NoteOnEvent(tick=32, channel=9, data=[36, 127]),
   midi.NoteOnEvent(tick=64, channel=9, data=[36, 0]),
   midi.NoteOnEvent(tick=32, channel=9, data=[36, 127]),
   midi.NoteOnEvent(tick=64, channel=9, data=[36, 0]),
   midi.NoteOnEvent(tick=32, channel=9, data=[36, 127]),
   midi.NoteOnEvent(tick=64, channel=9, data=[36, 0]),
   midi.NoteOnEvent(tick=32, channel=9, data=[36, 127]),
   midi.NoteOnEvent(tick=64, channel=9, data=[36, 0]),
   midi.NoteOnEvent(tick=32, channel=9, data=[36, 127]),
   midi.NoteOnEvent(tick=64, channel=9, data=[36, 0]),
   midi.NoteOnEvent(tick=32, channel=9, data=[38, 127]),
   midi.NoteOnEvent(tick=46, channel=9, data=[38, 127]),
   midi.NoteOnEvent(tick=64, channel=9, data=[38, 0]),
   midi.NoteOnEvent(tick=82, channel=9, data=[36, 127]),
   midi.NoteOnEvent(tick=76, channel=9, data=[38, 0]),
   midi.NoteOnEvent(tick=56, channel=9, data=[36, 0]),
   midi.NoteOnEvent(tick=60, channel=9, data=[36, 127]),
   midi.NoteOnEvent(tick=132, channel=9, data=[36, 0]),
   midi.NoteOnEvent(tick=60, channel=9, data=[36, 127]),
   midi.NoteOnEvent(tick=132, channel=9, data=[36, 0]),
   midi.NoteOnEvent(tick=60, channel=9, data=[36, 127]),
   midi.NoteOnEvent(tick=268, channel=9, data=[36, 0]),
   midi.NoteOnEvent(tick=500, channel=9, data=[38, 127]),
   midi.NoteOnEvent(tick=44, channel=9, data=[38, 127]),
   midi.NoteOnEvent(tick=88, channel=9, data=[38, 0]),
   midi.NoteOnEvent(tick=60, channel=9, data=[36, 127]),
   midi.NoteOnEvent(tick=120, channel=9, data=[38, 0]),
   midi.NoteOnEvent(tick=12, channel=9, data=[36, 0]),
   midi.NoteOnEvent(tick=60, channel=9, data=[36, 127]),
   midi.NoteOnEvent(tick=132, channel=9, data=[36, 0]),
   midi.NoteOnEvent(tick=60, channel=9, data=[36, 127]),
   midi.NoteOnEvent(tick=132, channel=9, data=[36, 0]),
   midi.NoteOnEvent(tick=60, channel=9, data=[36, 127]),
   midi.NoteOnEvent(tick=268, channel=9, data=[36, 0]),
   midi.NoteOnEvent(tick=500, channel=9, data=[38, 127]),
   midi.NoteOnEvent(tick=44, channel=9, data=[38, 127]),
   midi.NoteOnEvent(tick=88, channel=9, data=[38, 0]),
   midi.NoteOnEvent(tick=60, channel=9, data=[36, 127]),
   midi.NoteOnEvent(tick=120, channel=9, data=[38, 0]),
   midi.NoteOnEvent(tick=12, channel=9, data=[36, 0]),
   midi.NoteOnEvent(tick=60, channel=9, data=[36, 127]),
   midi.NoteOnEvent(tick=132, channel=9, data=[36, 0]),
   midi.NoteOnEvent(tick=60, channel=9, data=[36, 127]),
   midi.NoteOnEvent(tick=132, channel=9, data=[36, 0]),
   midi.NoteOnEvent(tick=60, channel=9, data=[36, 127]),
   midi.NoteOnEvent(tick=132, channel=9, data=[36, 0]),
   midi.NoteOnEvent(tick=60, channel=9, data=[36, 127]),
   midi.NoteOnEvent(tick=132, channel=9, data=[36, 0]),
   midi.NoteOnEvent(tick=444, channel=9, data=[38, 127]),
   midi.NoteOnEvent(tick=44, channel=9, data=[38, 127]),
   midi.NoteOnEvent(tick=20, channel=9, data=[38, 0]),
   midi.NoteOnEvent(tick=112, channel=9, data=[38, 0]),
   midi.NoteOnEvent(tick=16, channel=9, data=[36, 127]),
   midi.NoteOnEvent(tick=132, channel=9, data=[36, 0]),
   midi.NoteOnEvent(tick=60, channel=9, data=[36, 127]),
   midi.NoteOnEvent(tick=132, channel=9, data=[36, 0]),
   midi.NoteOnEvent(tick=60, channel=9, data=[36, 127]),
   midi.NoteOnEvent(tick=132, channel=9, data=[36, 0]),
   midi.NoteOnEvent(tick=60, channel=9, data=[36, 127]),
   midi.NoteOnEvent(tick=268, channel=9, data=[36, 0]),
   midi.NoteOnEvent(tick=500, channel=9, data=[38, 127]),
   midi.NoteOnEvent(tick=44, channel=9, data=[38, 127]),
   midi.NoteOnEvent(tick=88, channel=9, data=[38, 0]),
   midi.NoteOnEvent(tick=60, channel=9, data=[36, 127]),
   midi.NoteOnEvent(tick=120, channel=9, data=[38, 0]),
   midi.NoteOnEvent(tick=12, channel=9, data=[36, 0]),
   midi.NoteOnEvent(tick=60, channel=9, data=[36, 127]),
   midi.NoteOnEvent(tick=132, channel=9, data=[36, 0]),
   midi.NoteOnEvent(tick=60, channel=9, data=[36, 127]),
   midi.NoteOnEvent(tick=132, channel=9, data=[36, 0]),
   midi.NoteOnEvent(tick=60, channel=9, data=[36, 127]),
   midi.NoteOnEvent(tick=268, channel=9, data=[36, 0]),
   midi.NoteOnEvent(tick=500, channel=9, data=[38, 127]),
   midi.NoteOnEvent(tick=44, channel=9, data=[38, 127]),
   midi.NoteOnEvent(tick=88, channel=9, data=[38, 0]),
   midi.NoteOnEvent(tick=60, channel=9, data=[36, 127]),
   midi.NoteOnEvent(tick=120, channel=9, data=[38, 0]),
   midi.NoteOnEvent(tick=12, channel=9, data=[36, 0]),
   midi.NoteOnEvent(tick=60, channel=9, data=[36, 127]),
   midi.NoteOnEvent(tick=132, channel=9, data=[36, 0]),
   midi.NoteOnEvent(tick=60, channel=9, data=[36, 127]),
   midi.NoteOnEvent(tick=132, channel=9, data=[36, 0]),
   midi.NoteOnEvent(tick=60, channel=9, data=[36, 127]),
   midi.NoteOnEvent(tick=268, channel=9, data=[36, 0]),
   midi.NoteOnEvent(tick=500, channel=9, data=[38, 127]),
   midi.NoteOnEvent(tick=44, channel=9, data=[38, 127]),
   midi.NoteOnEvent(tick=88, channel=9, data=[38, 0]),
   midi.NoteOnEvent(tick=60, channel=9, data=[36, 127]),
   midi.NoteOnEvent(tick=120, channel=9, data=[38, 0]),
   midi.NoteOnEvent(tick=12, channel=9, data=[36, 0]),
   midi.NoteOnEvent(tick=60, channel=9, data=[36, 127]),
   midi.NoteOnEvent(tick=132, channel=9, data=[36, 0]),
   midi.NoteOnEvent(tick=60, channel=9, data=[36, 127]),
   midi.NoteOnEvent(tick=132, channel=9, data=[36, 0]),
   midi.NoteOnEvent(tick=60, channel=9, data=[36, 127]),
   midi.NoteOnEvent(tick=132, channel=9, data=[36, 0]),
   midi.NoteOnEvent(tick=60, channel=9, data=[36, 127]),
   midi.NoteOnEvent(tick=132, channel=9, data=[36, 0]),
   midi.NoteOnEvent(tick=444, channel=9, data=[38, 127]),
   midi.NoteOnEvent(tick=44, channel=9, data=[38, 127]),
   midi.NoteOnEvent(tick=20, channel=9, data=[38, 0]),
   midi.NoteOnEvent(tick=112, channel=9, data=[38, 0]),
   midi.NoteOnEvent(tick=16, channel=9, data=[36, 127]),
   midi.NoteOnEvent(tick=132, channel=9, data=[36, 0]),
   midi.NoteOnEvent(tick=60, channel=9, data=[36, 127]),
   midi.NoteOnEvent(tick=132, channel=9, data=[36, 0]),
   midi.NoteOnEvent(tick=60, channel=9, data=[36, 127]),
   midi.NoteOnEvent(tick=132, channel=9, data=[36, 0]),
   midi.NoteOnEvent(tick=60, channel=9, data=[36, 127]),
   midi.NoteOnEvent(tick=268, channel=9, data=[36, 0]),
   midi.NoteOnEvent(tick=500, channel=9, data=[38, 127]),
   midi.NoteOnEvent(tick=132, channel=9, data=[38, 0]),
   midi.NoteOnEvent(tick=60, channel=9, data=[36, 127]),
   midi.NoteOnEvent(tick=132, channel=9, data=[36, 0]),
   midi.NoteOnEvent(tick=60, channel=9, data=[38, 127]),
   midi.NoteOnEvent(tick=132, channel=9, data=[38, 0]),
   midi.NoteOnEvent(tick=60, channel=9, data=[36, 127]),
   midi.NoteOnEvent(tick=132, channel=9, data=[36, 0]),
   midi.NoteOnEvent(tick=60, channel=9, data=[38, 127]),
   midi.NoteOnEvent(tick=132, channel=9, data=[38, 0]),
   midi.NoteOnEvent(tick=60, channel=9, data=[35, 127]),
   midi.NoteOnEvent(tick=132, channel=9, data=[35, 0]),
   midi.NoteOnEvent(tick=60, channel=9, data=[42, 127]),
   midi.NoteOnEvent(tick=0, channel=9, data=[38, 127]),
   midi.NoteOnEvent(tick=132, channel=9, data=[38, 0]),
   midi.NoteOnEvent(tick=0, channel=9, data=[42, 0]),
   midi.NoteOnEvent(tick=60, channel=9, data=[36, 127]),
   midi.NoteOnEvent(tick=132, channel=9, data=[36, 0]),
   midi.NoteOnEvent(tick=60, channel=9, data=[42, 127]),
   midi.NoteOnEvent(tick=0, channel=9, data=[38, 127]),
   midi.NoteOnEvent(tick=132, channel=9, data=[38, 0]),
   midi.NoteOnEvent(tick=0, channel=9, data=[42, 0]),
   midi.NoteOnEvent(tick=60, channel=9, data=[36, 127]),
   midi.NoteOnEvent(tick=132, channel=9, data=[36, 0]),
   midi.NoteOnEvent(tick=60, channel=9, data=[42, 127]),
   midi.NoteOnEvent(tick=0, channel=9, data=[38, 127]),
   midi.NoteOnEvent(tick=132, channel=9, data=[38, 0]),
   midi.NoteOnEvent(tick=0, channel=9, data=[42, 0]),
   midi.NoteOnEvent(tick=60, channel=9, data=[36, 127]),
   midi.NoteOnEvent(tick=132, channel=9, data=[36, 0]),
   midi.NoteOnEvent(tick=60, channel=9, data=[42, 127]),
   midi.NoteOnEvent(tick=0, channel=9, data=[38, 127]),
   midi.NoteOnEvent(tick=132, channel=9, data=[38, 0]),
   midi.NoteOnEvent(tick=0, channel=9, data=[42, 0]),
   midi.NoteOnEvent(tick=60, channel=9, data=[36, 127]),
   midi.NoteOnEvent(tick=132, channel=9, data=[36, 0]),
   midi.NoteOnEvent(tick=60, channel=9, data=[38, 127]),
   midi.NoteOnEvent(tick=0, channel=9, data=[42, 127]),
   midi.NoteOnEvent(tick=132, channel=9, data=[42, 0]),
   midi.NoteOnEvent(tick=0, channel=9, data=[38, 0]),
   midi.NoteOnEvent(tick=60, channel=9, data=[35, 127]),
   midi.NoteOnEvent(tick=132, channel=9, data=[35, 0]),
   midi.NoteOnEvent(tick=60, channel=9, data=[42, 127]),
   midi.NoteOnEvent(tick=0, channel=9, data=[38, 127]),
   midi.NoteOnEvent(tick=132, channel=9, data=[38, 0]),
   midi.NoteOnEvent(tick=0, channel=9, data=[42, 0]),
   midi.NoteOnEvent(tick=60, channel=9, data=[36, 127]),
   midi.NoteOnEvent(tick=132, channel=9, data=[36, 0]),
   midi.NoteOnEvent(tick=60, channel=9, data=[42, 127]),
   midi.NoteOnEvent(tick=0, channel=9, data=[38, 127]),
   midi.NoteOnEvent(tick=132, channel=9, data=[38, 0]),
   midi.NoteOnEvent(tick=0, channel=9, data=[42, 0]),
   midi.NoteOnEvent(tick=60, channel=9, data=[36, 127]),
   midi.NoteOnEvent(tick=132, channel=9, data=[36, 0]),
   midi.NoteOnEvent(tick=60, channel=9, data=[42, 127]),
   midi.NoteOnEvent(tick=0, channel=9, data=[38, 127]),
   midi.NoteOnEvent(tick=132, channel=9, data=[38, 0]),
   midi.NoteOnEvent(tick=0, channel=9, data=[42, 0]),
   midi.NoteOnEvent(tick=60, channel=9, data=[36, 127]),
   midi.NoteOnEvent(tick=96, channel=9, data=[36, 127]),
   midi.NoteOnEvent(tick=36, channel=9, data=[36, 0]),
   midi.NoteOnEvent(tick=28, channel=9, data=[36, 0]),
   midi.NoteOnEvent(tick=32, channel=9, data=[42, 127]),
   midi.NoteOnEvent(tick=0, channel=9, data=[38, 127]),
   midi.NoteOnEvent(tick=132, channel=9, data=[38, 0]),
   midi.NoteOnEvent(tick=0, channel=9, data=[42, 0]),
   midi.NoteOnEvent(tick=60, channel=9, data=[36, 127]),
   midi.NoteOnEvent(tick=132, channel=9, data=[36, 0]),
   midi.NoteOnEvent(tick=60, channel=9, data=[42, 127]),
   midi.NoteOnEvent(tick=0, channel=9, data=[38, 127]),
   midi.NoteOnEvent(tick=132, channel=9, data=[38, 0]),
   midi.NoteOnEvent(tick=0, channel=9, data=[42, 0]),
   midi.NoteOnEvent(tick=60, channel=9, data=[35, 127]),
   midi.NoteOnEvent(tick=132, channel=9, data=[35, 0]),
   midi.NoteOnEvent(tick=60, channel=9, data=[42, 127]),
   midi.NoteOnEvent(tick=0, channel=9, data=[38, 127]),
   midi.NoteOnEvent(tick=132, channel=9, data=[38, 0]),
   midi.NoteOnEvent(tick=0, channel=9, data=[42, 0]),
   midi.NoteOnEvent(tick=60, channel=9, data=[36, 127]),
   midi.NoteOnEvent(tick=132, channel=9, data=[36, 0]),
   midi.NoteOnEvent(tick=60, channel=9, data=[42, 127]),
   midi.NoteOnEvent(tick=0, channel=9, data=[38, 127]),
   midi.NoteOnEvent(tick=132, channel=9, data=[38, 0]),
   midi.NoteOnEvent(tick=0, channel=9, data=[42, 0]),
   midi.NoteOnEvent(tick=60, channel=9, data=[36, 127]),
   midi.NoteOnEvent(tick=132, channel=9, data=[36, 0]),
   midi.NoteOnEvent(tick=60, channel=9, data=[42, 127]),
   midi.NoteOnEvent(tick=0, channel=9, data=[38, 127]),
   midi.NoteOnEvent(tick=132, channel=9, data=[38, 0]),
   midi.NoteOnEvent(tick=0, channel=9, data=[42, 0]),
   midi.NoteOnEvent(tick=60, channel=9, data=[36, 127]),
   midi.NoteOnEvent(tick=132, channel=9, data=[36, 0]),
   midi.NoteOnEvent(tick=60, channel=9, data=[42, 127]),
   midi.NoteOnEvent(tick=0, channel=9, data=[38, 127]),
   midi.NoteOnEvent(tick=132, channel=9, data=[38, 0]),
   midi.NoteOnEvent(tick=0, channel=9, data=[42, 0]),
   midi.NoteOnEvent(tick=60, channel=9, data=[36, 127]),
   midi.NoteOnEvent(tick=132, channel=9, data=[36, 0]),
   midi.NoteOnEvent(tick=60, channel=9, data=[42, 127]),
   midi.NoteOnEvent(tick=0, channel=9, data=[38, 127]),
   midi.NoteOnEvent(tick=132, channel=9, data=[38, 0]),
   midi.NoteOnEvent(tick=0, channel=9, data=[42, 0]),
   midi.NoteOnEvent(tick=60, channel=9, data=[35, 127]),
   midi.NoteOnEvent(tick=132, channel=9, data=[35, 0]),
   midi.NoteOnEvent(tick=60, channel=9, data=[42, 127]),
   midi.NoteOnEvent(tick=0, channel=9, data=[38, 127]),
   midi.NoteOnEvent(tick=132, channel=9, data=[38, 0]),
   midi.NoteOnEvent(tick=0, channel=9, data=[42, 0]),
   midi.NoteOnEvent(tick=60, channel=9, data=[36, 127]),
   midi.NoteOnEvent(tick=132, channel=9, data=[36, 0]),
   midi.NoteOnEvent(tick=60, channel=9, data=[42, 127]),
   midi.NoteOnEvent(tick=0, channel=9, data=[38, 127]),
   midi.NoteOnEvent(tick=132, channel=9, data=[38, 0]),
   midi.NoteOnEvent(tick=0, channel=9, data=[42, 0]),
   midi.NoteOnEvent(tick=60, channel=9, data=[36, 127]),
   midi.NoteOnEvent(tick=96, channel=9, data=[36, 127]),
   midi.NoteOnEvent(tick=36, channel=9, data=[36, 0]),
   midi.NoteOnEvent(tick=28, channel=9, data=[36, 0]),
   midi.NoteOnEvent(tick=32, channel=9, data=[42, 127]),
   midi.NoteOnEvent(tick=0, channel=9, data=[38, 127]),
   midi.NoteOnEvent(tick=132, channel=9, data=[38, 0]),
   midi.NoteOnEvent(tick=0, channel=9, data=[42, 0]),
   midi.NoteOnEvent(tick=60, channel=9, data=[36, 127]),
   midi.NoteOnEvent(tick=96, channel=9, data=[36, 127]),
   midi.NoteOnEvent(tick=36, channel=9, data=[36, 0]),
   midi.NoteOnEvent(tick=28, channel=9, data=[36, 0]),
   midi.NoteOnEvent(tick=32, channel=9, data=[42, 127]),
   midi.NoteOnEvent(tick=0, channel=9, data=[38, 127]),
   midi.NoteOnEvent(tick=132, channel=9, data=[38, 0]),
   midi.NoteOnEvent(tick=0, channel=9, data=[42, 0]),
   midi.NoteOnEvent(tick=60, channel=9, data=[36, 127]),
   midi.NoteOnEvent(tick=132, channel=9, data=[36, 0]),
   midi.NoteOnEvent(tick=60, channel=9, data=[38, 127]),
   midi.NoteOnEvent(tick=132, channel=9, data=[38, 0]),
   midi.NoteOnEvent(tick=60, channel=9, data=[35, 127]),
   midi.NoteOnEvent(tick=96, channel=9, data=[35, 127]),
   midi.NoteOnEvent(tick=36, channel=9, data=[35, 0]),
   midi.NoteOnEvent(tick=28, channel=9, data=[35, 0]),
   midi.NoteOnEvent(tick=32, channel=9, data=[42, 127]),
   midi.NoteOnEvent(tick=0, channel=9, data=[38, 127]),
   midi.NoteOnEvent(tick=132, channel=9, data=[38, 0]),
   midi.NoteOnEvent(tick=0, channel=9, data=[42, 0]),
   midi.NoteOnEvent(tick=60, channel=9, data=[36, 127]),
   midi.NoteOnEvent(tick=132, channel=9, data=[36, 0]),
   midi.NoteOnEvent(tick=60, channel=9, data=[42, 127]),
   midi.NoteOnEvent(tick=0, channel=9, data=[38, 127]),
   midi.NoteOnEvent(tick=132, channel=9, data=[38, 0]),
   midi.NoteOnEvent(tick=0, channel=9, data=[42, 0]),
   midi.NoteOnEvent(tick=60, channel=9, data=[36, 127]),
   midi.NoteOnEvent(tick=132, channel=9, data=[36, 0]),
   midi.NoteOnEvent(tick=60, channel=9, data=[42, 127]),
   midi.NoteOnEvent(tick=0, channel=9, data=[38, 127]),
   midi.NoteOnEvent(tick=132, channel=9, data=[38, 0]),
   midi.NoteOnEvent(tick=0, channel=9, data=[42, 0]),
   midi.NoteOnEvent(tick=60, channel=9, data=[36, 127]),
   midi.NoteOnEvent(tick=132, channel=9, data=[36, 0]),
   midi.NoteOnEvent(tick=60, channel=9, data=[42, 127]),
   midi.NoteOnEvent(tick=0, channel=9, data=[38, 127]),
   midi.NoteOnEvent(tick=132, channel=9, data=[38, 0]),
   midi.NoteOnEvent(tick=0, channel=9, data=[42, 0]),
   midi.NoteOnEvent(tick=60, channel=9, data=[36, 127]),
   midi.NoteOnEvent(tick=132, channel=9, data=[36, 0]),
   midi.NoteOnEvent(tick=60, channel=9, data=[38, 127]),
   midi.NoteOnEvent(tick=0, channel=9, data=[42, 127]),
   midi.NoteOnEvent(tick=132, channel=9, data=[42, 0]),
   midi.NoteOnEvent(tick=0, channel=9, data=[38, 0]),
   midi.NoteOnEvent(tick=60, channel=9, data=[35, 127]),
   midi.NoteOnEvent(tick=132, channel=9, data=[35, 0]),
   midi.NoteOnEvent(tick=60, channel=9, data=[42, 127]),
   midi.NoteOnEvent(tick=0, channel=9, data=[38, 127]),
   midi.NoteOnEvent(tick=132, channel=9, data=[38, 0]),
   midi.NoteOnEvent(tick=0, channel=9, data=[42, 0]),
   midi.NoteOnEvent(tick=60, channel=9, data=[36, 127]),
   midi.NoteOnEvent(tick=132, channel=9, data=[36, 0]),
   midi.NoteOnEvent(tick=60, channel=9, data=[42, 127]),
   midi.NoteOnEvent(tick=0, channel=9, data=[38, 127]),
   midi.NoteOnEvent(tick=132, channel=9, data=[38, 0]),
   midi.NoteOnEvent(tick=0, channel=9, data=[42, 0]),
   midi.NoteOnEvent(tick=60, channel=9, data=[36, 127]),
   midi.NoteOnEvent(tick=132, channel=9, data=[36, 0]),
   midi.NoteOnEvent(tick=60, channel=9, data=[42, 127]),
   midi.NoteOnEvent(tick=0, channel=9, data=[38, 127]),
   midi.NoteOnEvent(tick=132, channel=9, data=[38, 0]),
   midi.NoteOnEvent(tick=0, channel=9, data=[42, 0]),
   midi.NoteOnEvent(tick=60, channel=9, data=[36, 127]),
   midi.NoteOnEvent(tick=96, channel=9, data=[36, 127]),
   midi.NoteOnEvent(tick=36, channel=9, data=[36, 0]),
   midi.NoteOnEvent(tick=28, channel=9, data=[36, 0]),
   midi.NoteOnEvent(tick=32, channel=9, data=[42, 127]),
   midi.NoteOnEvent(tick=0, channel=9, data=[38, 127]),
   midi.NoteOnEvent(tick=132, channel=9, data=[38, 0]),
   midi.NoteOnEvent(tick=0, channel=9, data=[42, 0]),
   midi.NoteOnEvent(tick=60, channel=9, data=[36, 127]),
   midi.NoteOnEvent(tick=132, channel=9, data=[36, 0]),
   midi.NoteOnEvent(tick=60, channel=9, data=[42, 127]),
   midi.NoteOnEvent(tick=0, channel=9, data=[38, 127]),
   midi.NoteOnEvent(tick=132, channel=9, data=[38, 0]),
   midi.NoteOnEvent(tick=0, channel=9, data=[42, 0]),
   midi.NoteOnEvent(tick=60, channel=9, data=[35, 127]),
   midi.NoteOnEvent(tick=132, channel=9, data=[35, 0]),
   midi.NoteOnEvent(tick=60, channel=9, data=[42, 127]),
   midi.NoteOnEvent(tick=0, channel=9, data=[38, 127]),
   midi.NoteOnEvent(tick=132, channel=9, data=[38, 0]),
   midi.NoteOnEvent(tick=0, channel=9, data=[42, 0]),
   midi.NoteOnEvent(tick=60, channel=9, data=[36, 127]),
   midi.NoteOnEvent(tick=132, channel=9, data=[36, 0]),
   midi.NoteOnEvent(tick=60, channel=9, data=[42, 127]),
   midi.NoteOnEvent(tick=0, channel=9, data=[38, 127]),
   midi.NoteOnEvent(tick=132, channel=9, data=[38, 0]),
   midi.NoteOnEvent(tick=0, channel=9, data=[42, 0]),
   midi.NoteOnEvent(tick=60, channel=9, data=[36, 127]),
   midi.NoteOnEvent(tick=132, channel=9, data=[36, 0]),
   midi.NoteOnEvent(tick=60, channel=9, data=[42, 127]),
   midi.NoteOnEvent(tick=0, channel=9, data=[38, 127]),
   midi.NoteOnEvent(tick=132, channel=9, data=[38, 0]),
   midi.NoteOnEvent(tick=0, channel=9, data=[42, 0]),
   midi.NoteOnEvent(tick=60, channel=9, data=[36, 127]),
   midi.NoteOnEvent(tick=132, channel=9, data=[36, 0]),
   midi.NoteOnEvent(tick=60, channel=9, data=[42, 127]),
   midi.NoteOnEvent(tick=0, channel=9, data=[38, 127]),
   midi.NoteOnEvent(tick=132, channel=9, data=[38, 0]),
   midi.NoteOnEvent(tick=0, channel=9, data=[42, 0]),
   midi.NoteOnEvent(tick=60, channel=9, data=[36, 127]),
   midi.NoteOnEvent(tick=132, channel=9, data=[36, 0]),
   midi.NoteOnEvent(tick=60, channel=9, data=[42, 127]),
   midi.NoteOnEvent(tick=0, channel=9, data=[38, 127]),
   midi.NoteOnEvent(tick=132, channel=9, data=[38, 0]),
   midi.NoteOnEvent(tick=0, channel=9, data=[42, 0]),
   midi.NoteOnEvent(tick=60, channel=9, data=[35, 127]),
   midi.NoteOnEvent(tick=132, channel=9, data=[35, 0]),
   midi.NoteOnEvent(tick=60, channel=9, data=[42, 127]),
   midi.NoteOnEvent(tick=0, channel=9, data=[38, 127]),
   midi.NoteOnEvent(tick=132, channel=9, data=[38, 0]),
   midi.NoteOnEvent(tick=0, channel=9, data=[42, 0]),
   midi.NoteOnEvent(tick=60, channel=9, data=[36, 127]),
   midi.NoteOnEvent(tick=132, channel=9, data=[36, 0]),
   midi.NoteOnEvent(tick=60, channel=9, data=[42, 127]),
   midi.NoteOnEvent(tick=0, channel=9, data=[38, 127]),
   midi.NoteOnEvent(tick=132, channel=9, data=[38, 0]),
   midi.NoteOnEvent(tick=0, channel=9, data=[42, 0]),
   midi.NoteOnEvent(tick=60, channel=9, data=[36, 127]),
   midi.NoteOnEvent(tick=96, channel=9, data=[36, 127]),
   midi.NoteOnEvent(tick=36, channel=9, data=[36, 0]),
   midi.NoteOnEvent(tick=28, channel=9, data=[36, 0]),
   midi.NoteOnEvent(tick=32, channel=9, data=[42, 127]),
   midi.NoteOnEvent(tick=0, channel=9, data=[38, 127]),
   midi.NoteOnEvent(tick=132, channel=9, data=[38, 0]),
   midi.NoteOnEvent(tick=0, channel=9, data=[42, 0]),
   midi.NoteOnEvent(tick=60, channel=9, data=[36, 127]),
   midi.NoteOnEvent(tick=96, channel=9, data=[36, 127]),
   midi.NoteOnEvent(tick=36, channel=9, data=[36, 0]),
   midi.NoteOnEvent(tick=28, channel=9, data=[36, 0]),
   midi.NoteOnEvent(tick=32, channel=9, data=[42, 127]),
   midi.NoteOnEvent(tick=0, channel=9, data=[38, 127]),
   midi.NoteOnEvent(tick=132, channel=9, data=[38, 0]),
   midi.NoteOnEvent(tick=0, channel=9, data=[42, 0]),
   midi.NoteOnEvent(tick=60, channel=9, data=[36, 127]),
   midi.NoteOnEvent(tick=132, channel=9, data=[36, 0]),
   midi.NoteOnEvent(tick=60, channel=9, data=[38, 127]),
   midi.NoteOnEvent(tick=132, channel=9, data=[38, 0]),
   midi.NoteOnEvent(tick=60, channel=9, data=[35, 127]),
   midi.NoteOnEvent(tick=96, channel=9, data=[35, 127]),
   midi.NoteOnEvent(tick=36, channel=9, data=[35, 0]),
   midi.NoteOnEvent(tick=28, channel=9, data=[35, 0]),
   midi.NoteOnEvent(tick=32, channel=9, data=[42, 127]),
   midi.NoteOnEvent(tick=0, channel=9, data=[38, 127]),
   midi.NoteOnEvent(tick=132, channel=9, data=[38, 0]),
   midi.NoteOnEvent(tick=0, channel=9, data=[42, 0]),
   midi.NoteOnEvent(tick=60, channel=9, data=[36, 127]),
   midi.NoteOnEvent(tick=132, channel=9, data=[36, 0]),
   midi.NoteOnEvent(tick=60, channel=9, data=[42, 127]),
   midi.NoteOnEvent(tick=0, channel=9, data=[38, 127]),
   midi.NoteOnEvent(tick=132, channel=9, data=[38, 0]),
   midi.NoteOnEvent(tick=0, channel=9, data=[42, 0]),
   midi.NoteOnEvent(tick=60, channel=9, data=[36, 127]),
   midi.NoteOnEvent(tick=132, channel=9, data=[36, 0]),
   midi.NoteOnEvent(tick=60, channel=9, data=[42, 127]),
   midi.NoteOnEvent(tick=0, channel=9, data=[38, 127]),
   midi.NoteOnEvent(tick=132, channel=9, data=[38, 0]),
   midi.NoteOnEvent(tick=0, channel=9, data=[42, 0]),
   midi.NoteOnEvent(tick=60, channel=9, data=[36, 127]),
   midi.NoteOnEvent(tick=132, channel=9, data=[36, 0]),
   midi.NoteOnEvent(tick=60, channel=9, data=[42, 127]),
   midi.NoteOnEvent(tick=0, channel=9, data=[38, 127]),
   midi.NoteOnEvent(tick=132, channel=9, data=[38, 0]),
   midi.NoteOnEvent(tick=0, channel=9, data=[42, 0]),
   midi.NoteOnEvent(tick=60, channel=9, data=[36, 127]),
   midi.NoteOnEvent(tick=132, channel=9, data=[36, 0]),
   midi.NoteOnEvent(tick=60, channel=9, data=[38, 127]),
   midi.NoteOnEvent(tick=0, channel=9, data=[42, 127]),
   midi.NoteOnEvent(tick=132, channel=9, data=[42, 0]),
   midi.NoteOnEvent(tick=0, channel=9, data=[38, 0]),
   midi.NoteOnEvent(tick=60, channel=9, data=[35, 127]),
   midi.NoteOnEvent(tick=132, channel=9, data=[35, 0]),
   midi.NoteOnEvent(tick=60, channel=9, data=[42, 127]),
   midi.NoteOnEvent(tick=0, channel=9, data=[38, 127]),
   midi.NoteOnEvent(tick=132, channel=9, data=[38, 0]),
   midi.NoteOnEvent(tick=0, channel=9, data=[42, 0]),
   midi.NoteOnEvent(tick=60, channel=9, data=[36, 127]),
   midi.NoteOnEvent(tick=132, channel=9, data=[36, 0]),
   midi.NoteOnEvent(tick=60, channel=9, data=[42, 127]),
   midi.NoteOnEvent(tick=0, channel=9, data=[38, 127]),
   midi.NoteOnEvent(tick=132, channel=9, data=[38, 0]),
   midi.NoteOnEvent(tick=0, channel=9, data=[42, 0]),
   midi.NoteOnEvent(tick=60, channel=9, data=[36, 127]),
   midi.NoteOnEvent(tick=132, channel=9, data=[36, 0]),
   midi.NoteOnEvent(tick=60, channel=9, data=[42, 127]),
   midi.NoteOnEvent(tick=0, channel=9, data=[38, 127]),
   midi.NoteOnEvent(tick=132, channel=9, data=[38, 0]),
   midi.NoteOnEvent(tick=0, channel=9, data=[42, 0]),
   midi.NoteOnEvent(tick=60, channel=9, data=[36, 127]),
   midi.NoteOnEvent(tick=96, channel=9, data=[36, 127]),
   midi.NoteOnEvent(tick=36, channel=9, data=[36, 0]),
   midi.NoteOnEvent(tick=28, channel=9, data=[36, 0]),
   midi.NoteOnEvent(tick=32, channel=9, data=[42, 127]),
   midi.NoteOnEvent(tick=0, channel=9, data=[38, 127]),
   midi.NoteOnEvent(tick=132, channel=9, data=[38, 0]),
   midi.NoteOnEvent(tick=0, channel=9, data=[42, 0]),
   midi.NoteOnEvent(tick=60, channel=9, data=[36, 127]),
   midi.NoteOnEvent(tick=132, channel=9, data=[36, 0]),
   midi.NoteOnEvent(tick=60, channel=9, data=[42, 127]),
   midi.NoteOnEvent(tick=0, channel=9, data=[38, 127]),
   midi.NoteOnEvent(tick=132, channel=9, data=[38, 0]),
   midi.NoteOnEvent(tick=0, channel=9, data=[42, 0]),
   midi.NoteOnEvent(tick=60, channel=9, data=[35, 127]),
   midi.NoteOnEvent(tick=132, channel=9, data=[35, 0]),
   midi.NoteOnEvent(tick=60, channel=9, data=[42, 127]),
   midi.NoteOnEvent(tick=0, channel=9, data=[38, 127]),
   midi.NoteOnEvent(tick=132, channel=9, data=[38, 0]),
   midi.NoteOnEvent(tick=0, channel=9, data=[42, 0]),
   midi.NoteOnEvent(tick=60, channel=9, data=[36, 127]),
   midi.NoteOnEvent(tick=132, channel=9, data=[36, 0]),
   midi.NoteOnEvent(tick=60, channel=9, data=[42, 127]),
   midi.NoteOnEvent(tick=0, channel=9, data=[38, 127]),
   midi.NoteOnEvent(tick=132, channel=9, data=[38, 0]),
   midi.NoteOnEvent(tick=0, channel=9, data=[42, 0]),
   midi.NoteOnEvent(tick=60, channel=9, data=[36, 127]),
   midi.NoteOnEvent(tick=132, channel=9, data=[36, 0]),
   midi.NoteOnEvent(tick=60, channel=9, data=[42, 127]),
   midi.NoteOnEvent(tick=0, channel=9, data=[38, 127]),
   midi.NoteOnEvent(tick=132, channel=9, data=[38, 0]),
   midi.NoteOnEvent(tick=0, channel=9, data=[42, 0]),
   midi.NoteOnEvent(tick=60, channel=9, data=[36, 127]),
   midi.NoteOnEvent(tick=132, channel=9, data=[36, 0]),
   midi.NoteOnEvent(tick=60, channel=9, data=[42, 127]),
   midi.NoteOnEvent(tick=0, channel=9, data=[38, 127]),
   midi.NoteOnEvent(tick=132, channel=9, data=[38, 0]),
   midi.NoteOnEvent(tick=0, channel=9, data=[42, 0]),
   midi.NoteOnEvent(tick=60, channel=9, data=[36, 127]),
   midi.NoteOnEvent(tick=132, channel=9, data=[36, 0]),
   midi.NoteOnEvent(tick=60, channel=9, data=[42, 127]),
   midi.NoteOnEvent(tick=0, channel=9, data=[38, 127]),
   midi.NoteOnEvent(tick=132, channel=9, data=[38, 0]),
   midi.NoteOnEvent(tick=0, channel=9, data=[42, 0]),
   midi.NoteOnEvent(tick=60, channel=9, data=[35, 127]),
   midi.NoteOnEvent(tick=132, channel=9, data=[35, 0]),
   midi.NoteOnEvent(tick=60, channel=9, data=[42, 127]),
   midi.NoteOnEvent(tick=0, channel=9, data=[38, 127]),
   midi.NoteOnEvent(tick=132, channel=9, data=[38, 0]),
   midi.NoteOnEvent(tick=0, channel=9, data=[42, 0]),
   midi.NoteOnEvent(tick=60, channel=9, data=[36, 127]),
   midi.NoteOnEvent(tick=132, channel=9, data=[36, 0]),
   midi.NoteOnEvent(tick=60, channel=9, data=[42, 127]),
   midi.NoteOnEvent(tick=0, channel=9, data=[38, 127]),
   midi.NoteOnEvent(tick=132, channel=9, data=[38, 0]),
   midi.NoteOnEvent(tick=0, channel=9, data=[42, 0]),
   midi.NoteOnEvent(tick=60, channel=9, data=[36, 127]),
   midi.NoteOnEvent(tick=96, channel=9, data=[36, 127]),
   midi.NoteOnEvent(tick=36, channel=9, data=[36, 0]),
   midi.NoteOnEvent(tick=28, channel=9, data=[36, 0]),
   midi.NoteOnEvent(tick=32, channel=9, data=[42, 127]),
   midi.NoteOnEvent(tick=0, channel=9, data=[38, 127]),
   midi.NoteOnEvent(tick=132, channel=9, data=[38, 0]),
   midi.NoteOnEvent(tick=0, channel=9, data=[42, 0]),
   midi.NoteOnEvent(tick=60, channel=9, data=[36, 127]),
   midi.NoteOnEvent(tick=96, channel=9, data=[36, 127]),
   midi.NoteOnEvent(tick=36, channel=9, data=[36, 0]),
   midi.NoteOnEvent(tick=28, channel=9, data=[36, 0]),
   midi.NoteOnEvent(tick=32, channel=9, data=[42, 127]),
   midi.NoteOnEvent(tick=0, channel=9, data=[38, 127]),
   midi.NoteOnEvent(tick=132, channel=9, data=[38, 0]),
   midi.NoteOnEvent(tick=0, channel=9, data=[42, 0]),
   midi.NoteOnEvent(tick=60, channel=9, data=[36, 127]),
   midi.NoteOnEvent(tick=132, channel=9, data=[36, 0]),
   midi.NoteOnEvent(tick=60, channel=9, data=[38, 127]),
   midi.NoteOnEvent(tick=132, channel=9, data=[38, 0]),
   midi.NoteOnEvent(tick=60, channel=9, data=[35, 127]),
   midi.NoteOnEvent(tick=96, channel=9, data=[35, 127]),
   midi.NoteOnEvent(tick=36, channel=9, data=[35, 0]),
   midi.NoteOnEvent(tick=28, channel=9, data=[35, 0]),
   midi.NoteOnEvent(tick=32, channel=9, data=[42, 127]),
   midi.NoteOnEvent(tick=0, channel=9, data=[38, 127]),
   midi.NoteOnEvent(tick=132, channel=9, data=[38, 0]),
   midi.NoteOnEvent(tick=0, channel=9, data=[42, 0]),
   midi.NoteOnEvent(tick=60, channel=9, data=[36, 127]),
   midi.NoteOnEvent(tick=132, channel=9, data=[36, 0]),
   midi.NoteOnEvent(tick=60, channel=9, data=[42, 127]),
   midi.NoteOnEvent(tick=0, channel=9, data=[38, 127]),
   midi.NoteOnEvent(tick=132, channel=9, data=[38, 0]),
   midi.NoteOnEvent(tick=0, channel=9, data=[42, 0]),
   midi.NoteOnEvent(tick=60, channel=9, data=[36, 127]),
   midi.NoteOnEvent(tick=132, channel=9, data=[36, 0]),
   midi.NoteOnEvent(tick=60, channel=9, data=[42, 127]),
   midi.NoteOnEvent(tick=0, channel=9, data=[38, 127]),
   midi.NoteOnEvent(tick=132, channel=9, data=[38, 0]),
   midi.NoteOnEvent(tick=0, channel=9, data=[42, 0]),
   midi.NoteOnEvent(tick=60, channel=9, data=[36, 127]),
   midi.NoteOnEvent(tick=132, channel=9, data=[36, 0]),
   midi.NoteOnEvent(tick=60, channel=9, data=[42, 127]),
   midi.NoteOnEvent(tick=0, channel=9, data=[38, 127]),
   midi.NoteOnEvent(tick=132, channel=9, data=[38, 0]),
   midi.NoteOnEvent(tick=0, channel=9, data=[42, 0]),
   midi.NoteOnEvent(tick=60, channel=9, data=[36, 127]),
   midi.NoteOnEvent(tick=132, channel=9, data=[36, 0]),
   midi.NoteOnEvent(tick=60, channel=9, data=[38, 127]),
   midi.NoteOnEvent(tick=0, channel=9, data=[42, 127]),
   midi.NoteOnEvent(tick=132, channel=9, data=[42, 0]),
   midi.NoteOnEvent(tick=0, channel=9, data=[38, 0]),
   midi.NoteOnEvent(tick=60, channel=9, data=[35, 127]),
   midi.NoteOnEvent(tick=132, channel=9, data=[35, 0]),
   midi.NoteOnEvent(tick=60, channel=9, data=[42, 127]),
   midi.NoteOnEvent(tick=0, channel=9, data=[38, 127]),
   midi.NoteOnEvent(tick=132, channel=9, data=[38, 0]),
   midi.NoteOnEvent(tick=0, channel=9, data=[42, 0]),
   midi.NoteOnEvent(tick=60, channel=9, data=[36, 127]),
   midi.NoteOnEvent(tick=132, channel=9, data=[36, 0]),
   midi.NoteOnEvent(tick=60, channel=9, data=[42, 127]),
   midi.NoteOnEvent(tick=0, channel=9, data=[38, 127]),
   midi.NoteOnEvent(tick=132, channel=9, data=[38, 0]),
   midi.NoteOnEvent(tick=0, channel=9, data=[42, 0]),
   midi.NoteOnEvent(tick=60, channel=9, data=[36, 127]),
   midi.NoteOnEvent(tick=132, channel=9, data=[36, 0]),
   midi.NoteOnEvent(tick=60, channel=9, data=[42, 127]),
   midi.NoteOnEvent(tick=0, channel=9, data=[38, 127]),
   midi.NoteOnEvent(tick=132, channel=9, data=[38, 0]),
   midi.NoteOnEvent(tick=0, channel=9, data=[42, 0]),
   midi.NoteOnEvent(tick=60, channel=9, data=[36, 127]),
   midi.NoteOnEvent(tick=96, channel=9, data=[36, 127]),
   midi.NoteOnEvent(tick=36, channel=9, data=[36, 0]),
   midi.NoteOnEvent(tick=28, channel=9, data=[36, 0]),
   midi.NoteOnEvent(tick=32, channel=9, data=[42, 127]),
   midi.NoteOnEvent(tick=0, channel=9, data=[38, 127]),
   midi.NoteOnEvent(tick=132, channel=9, data=[38, 0]),
   midi.NoteOnEvent(tick=0, channel=9, data=[42, 0]),
   midi.NoteOnEvent(tick=60, channel=9, data=[36, 127]),
   midi.NoteOnEvent(tick=132, channel=9, data=[36, 0]),
   midi.NoteOnEvent(tick=60, channel=9, data=[42, 127]),
   midi.NoteOnEvent(tick=0, channel=9, data=[38, 127]),
   midi.NoteOnEvent(tick=132, channel=9, data=[38, 0]),
   midi.NoteOnEvent(tick=0, channel=9, data=[42, 0]),
   midi.NoteOnEvent(tick=60, channel=9, data=[35, 127]),
   midi.NoteOnEvent(tick=132, channel=9, data=[35, 0]),
   midi.NoteOnEvent(tick=60, channel=9, data=[42, 127]),
   midi.NoteOnEvent(tick=0, channel=9, data=[38, 127]),
   midi.NoteOnEvent(tick=132, channel=9, data=[38, 0]),
   midi.NoteOnEvent(tick=0, channel=9, data=[42, 0]),
   midi.NoteOnEvent(tick=60, channel=9, data=[36, 127]),
   midi.NoteOnEvent(tick=132, channel=9, data=[36, 0]),
   midi.NoteOnEvent(tick=60, channel=9, data=[42, 127]),
   midi.NoteOnEvent(tick=0, channel=9, data=[38, 127]),
   midi.NoteOnEvent(tick=132, channel=9, data=[38, 0]),
   midi.NoteOnEvent(tick=0, channel=9, data=[42, 0]),
   midi.NoteOnEvent(tick=60, channel=9, data=[36, 127]),
   midi.NoteOnEvent(tick=132, channel=9, data=[36, 0]),
   midi.NoteOnEvent(tick=60, channel=9, data=[42, 127]),
   midi.NoteOnEvent(tick=0, channel=9, data=[38, 127]),
   midi.NoteOnEvent(tick=132, channel=9, data=[38, 0]),
   midi.NoteOnEvent(tick=0, channel=9, data=[42, 0]),
   midi.NoteOnEvent(tick=60, channel=9, data=[36, 127]),
   midi.NoteOnEvent(tick=132, channel=9, data=[36, 0]),
   midi.NoteOnEvent(tick=60, channel=9, data=[42, 127]),
   midi.NoteOnEvent(tick=0, channel=9, data=[38, 127]),
   midi.NoteOnEvent(tick=132, channel=9, data=[38, 0]),
   midi.NoteOnEvent(tick=0, channel=9, data=[42, 0]),
   midi.NoteOnEvent(tick=60, channel=9, data=[36, 127]),
   midi.NoteOnEvent(tick=132, channel=9, data=[36, 0]),
   midi.NoteOnEvent(tick=60, channel=9, data=[42, 127]),
   midi.NoteOnEvent(tick=0, channel=9, data=[38, 127]),
   midi.NoteOnEvent(tick=132, channel=9, data=[38, 0]),
   midi.NoteOnEvent(tick=0, channel=9, data=[42, 0]),
   midi.NoteOnEvent(tick=60, channel=9, data=[35, 127]),
   midi.NoteOnEvent(tick=132, channel=9, data=[35, 0]),
   midi.NoteOnEvent(tick=60, channel=9, data=[42, 127]),
   midi.NoteOnEvent(tick=0, channel=9, data=[38, 127]),
   midi.NoteOnEvent(tick=132, channel=9, data=[38, 0]),
   midi.NoteOnEvent(tick=0, channel=9, data=[42, 0]),
   midi.NoteOnEvent(tick=60, channel=9, data=[36, 127]),
   midi.NoteOnEvent(tick=132, channel=9, data=[36, 0]),
   midi.NoteOnEvent(tick=60, channel=9, data=[42, 127]),
   midi.NoteOnEvent(tick=0, channel=9, data=[38, 127]),
   midi.NoteOnEvent(tick=132, channel=9, data=[38, 0]),
   midi.NoteOnEvent(tick=0, channel=9, data=[42, 0]),
   midi.NoteOnEvent(tick=60, channel=9, data=[36, 127]),
   midi.NoteOnEvent(tick=132, channel=9, data=[36, 0]),
   midi.NoteOnEvent(tick=60, channel=9, data=[38, 127]),
   midi.NoteOnEvent(tick=132, channel=9, data=[38, 0]),
   midi.NoteOnEvent(tick=60, channel=9, data=[38, 127]),
   midi.NoteOnEvent(tick=132, channel=9, data=[38, 0]),
   midi.NoteOnEvent(tick=60, channel=9, data=[36, 127]),
   midi.NoteOnEvent(tick=132, channel=9, data=[36, 0]),
   midi.NoteOnEvent(tick=60, channel=9, data=[36, 127]),
   midi.NoteOnEvent(tick=132, channel=9, data=[36, 0]),
   midi.NoteOnEvent(tick=60, channel=9, data=[36, 127]),
   midi.NoteOnEvent(tick=268, channel=9, data=[36, 0]),
   midi.NoteOnEvent(tick=116, channel=9, data=[38, 127]),
   midi.NoteOnEvent(tick=0, channel=9, data=[42, 127]),
   midi.NoteOnEvent(tick=132, channel=9, data=[42, 0]),
   midi.NoteOnEvent(tick=0, channel=9, data=[38, 0]),
   midi.NoteOnEvent(tick=60, channel=9, data=[42, 127]),
   midi.NoteOnEvent(tick=132, channel=9, data=[42, 0]),
   midi.NoteOnEvent(tick=60, channel=9, data=[36, 127]),
   midi.NoteOnEvent(tick=0, channel=9, data=[42, 127]),
   midi.NoteOnEvent(tick=132, channel=9, data=[42, 0]),
   midi.NoteOnEvent(tick=0, channel=9, data=[36, 0]),
   midi.NoteOnEvent(tick=60, channel=9, data=[36, 127]),
   midi.NoteOnEvent(tick=0, channel=9, data=[42, 127]),
   midi.NoteOnEvent(tick=132, channel=9, data=[42, 0]),
   midi.NoteOnEvent(tick=0, channel=9, data=[36, 0]),
   midi.NoteOnEvent(tick=60, channel=9, data=[38, 127]),
   midi.NoteOnEvent(tick=0, channel=9, data=[42, 127]),
   midi.NoteOnEvent(tick=132, channel=9, data=[42, 0]),
   midi.NoteOnEvent(tick=0, channel=9, data=[38, 0]),
   midi.NoteOnEvent(tick=60, channel=9, data=[42, 127]),
   midi.NoteOnEvent(tick=132, channel=9, data=[42, 0]),
   midi.NoteOnEvent(tick=60, channel=9, data=[36, 127]),
   midi.NoteOnEvent(tick=0, channel=9, data=[42, 127]),
   midi.NoteOnEvent(tick=132, channel=9, data=[42, 0]),
   midi.NoteOnEvent(tick=0, channel=9, data=[36, 0]),
   midi.NoteOnEvent(tick=60, channel=9, data=[36, 127]),
   midi.NoteOnEvent(tick=0, channel=9, data=[42, 127]),
   midi.NoteOnEvent(tick=132, channel=9, data=[42, 0]),
   midi.NoteOnEvent(tick=0, channel=9, data=[36, 0]),
   midi.NoteOnEvent(tick=60, channel=9, data=[38, 127]),
   midi.NoteOnEvent(tick=0, channel=9, data=[42, 127]),
   midi.NoteOnEvent(tick=132, channel=9, data=[42, 0]),
   midi.NoteOnEvent(tick=0, channel=9, data=[38, 0]),
   midi.NoteOnEvent(tick=60, channel=9, data=[42, 127]),
   midi.NoteOnEvent(tick=132, channel=9, data=[42, 0]),
   midi.NoteOnEvent(tick=60, channel=9, data=[36, 127]),
   midi.NoteOnEvent(tick=0, channel=9, data=[42, 127]),
   midi.NoteOnEvent(tick=132, channel=9, data=[42, 0]),
   midi.NoteOnEvent(tick=0, channel=9, data=[36, 0]),
   midi.NoteOnEvent(tick=60, channel=9, data=[36, 127]),
   midi.NoteOnEvent(tick=0, channel=9, data=[42, 127]),
   midi.NoteOnEvent(tick=132, channel=9, data=[42, 0]),
   midi.NoteOnEvent(tick=0, channel=9, data=[36, 0]),
   midi.NoteOnEvent(tick=60, channel=9, data=[38, 127]),
   midi.NoteOnEvent(tick=132, channel=9, data=[38, 0]),
   midi.NoteOnEvent(tick=60, channel=9, data=[36, 127]),
   midi.NoteOnEvent(tick=132, channel=9, data=[36, 0]),
   midi.NoteOnEvent(tick=60, channel=9, data=[42, 127]),
   midi.NoteOnEvent(tick=132, channel=9, data=[42, 0]),
   midi.NoteOnEvent(tick=60, channel=9, data=[36, 127]),
   midi.NoteOnEvent(tick=0, channel=9, data=[42, 127]),
   midi.NoteOnEvent(tick=132, channel=9, data=[42, 0]),
   midi.NoteOnEvent(tick=0, channel=9, data=[36, 0]),
   midi.NoteOnEvent(tick=60, channel=9, data=[38, 127]),
   midi.NoteOnEvent(tick=0, channel=9, data=[42, 127]),
   midi.NoteOnEvent(tick=132, channel=9, data=[42, 0]),
   midi.NoteOnEvent(tick=0, channel=9, data=[38, 0]),
   midi.NoteOnEvent(tick=60, channel=9, data=[36, 127]),
   midi.NoteOnEvent(tick=0, channel=9, data=[42, 127]),
   midi.NoteOnEvent(tick=64, channel=9, data=[36, 0]),
   midi.NoteOnEvent(tick=32, channel=9, data=[36, 127]),
   midi.NoteOnEvent(tick=36, channel=9, data=[42, 0]),
   midi.NoteOnEvent(tick=28, channel=9, data=[36, 0]),
   midi.NoteOnEvent(tick=32, channel=9, data=[36, 127]),
   midi.NoteOnEvent(tick=0, channel=9, data=[42, 127]),
   midi.NoteOnEvent(tick=132, channel=9, data=[42, 0]),
   midi.NoteOnEvent(tick=0, channel=9, data=[36, 0]),
   midi.NoteOnEvent(tick=60, channel=9, data=[36, 127]),
   midi.NoteOnEvent(tick=0, channel=9, data=[42, 127]),
   midi.NoteOnEvent(tick=64, channel=9, data=[36, 0]),
   midi.NoteOnEvent(tick=32, channel=9, data=[36, 127]),
   midi.NoteOnEvent(tick=36, channel=9, data=[42, 0]),
   midi.NoteOnEvent(tick=28, channel=9, data=[36, 0]),
   midi.NoteOnEvent(tick=32, channel=9, data=[36, 127]),
   midi.NoteOnEvent(tick=0, channel=9, data=[38, 127]),
   midi.NoteOnEvent(tick=0, channel=9, data=[42, 127]),
   midi.NoteOnEvent(tick=132, channel=9, data=[42, 0]),
   midi.NoteOnEvent(tick=0, channel=9, data=[38, 0]),
   midi.NoteOnEvent(tick=0, channel=9, data=[36, 0]),
   midi.NoteOnEvent(tick=60, channel=9, data=[36, 127]),
   midi.NoteOnEvent(tick=0, channel=9, data=[42, 127]),
   midi.NoteOnEvent(tick=64, channel=9, data=[36, 0]),
   midi.NoteOnEvent(tick=32, channel=9, data=[36, 127]),
   midi.NoteOnEvent(tick=36, channel=9, data=[42, 0]),
   midi.NoteOnEvent(tick=28, channel=9, data=[36, 0]),
   midi.NoteOnEvent(tick=32, channel=9, data=[36, 127]),
   midi.NoteOnEvent(tick=0, channel=9, data=[42, 127]),
   midi.NoteOnEvent(tick=132, channel=9, data=[42, 0]),
   midi.NoteOnEvent(tick=0, channel=9, data=[36, 0]),
   midi.NoteOnEvent(tick=60, channel=9, data=[36, 127]),
   midi.NoteOnEvent(tick=0, channel=9, data=[42, 127]),
   midi.NoteOnEvent(tick=64, channel=9, data=[36, 0]),
   midi.NoteOnEvent(tick=32, channel=9, data=[36, 127]),
   midi.NoteOnEvent(tick=36, channel=9, data=[42, 0]),
   midi.NoteOnEvent(tick=28, channel=9, data=[36, 0]),
   midi.NoteOnEvent(tick=32, channel=9, data=[35, 127]),
   midi.NoteOnEvent(tick=0, channel=9, data=[38, 127]),
   midi.NoteOnEvent(tick=0, channel=9, data=[42, 127]),
   midi.NoteOnEvent(tick=132, channel=9, data=[42, 0]),
   midi.NoteOnEvent(tick=0, channel=9, data=[38, 0]),
   midi.NoteOnEvent(tick=0, channel=9, data=[35, 0]),
   midi.NoteOnEvent(tick=60, channel=9, data=[36, 127]),
   midi.NoteOnEvent(tick=0, channel=9, data=[42, 127]),
   midi.NoteOnEvent(tick=64, channel=9, data=[36, 0]),
   midi.NoteOnEvent(tick=32, channel=9, data=[36, 127]),
   midi.NoteOnEvent(tick=36, channel=9, data=[42, 0]),
   midi.NoteOnEvent(tick=28, channel=9, data=[36, 0]),
   midi.NoteOnEvent(tick=32, channel=9, data=[36, 127]),
   midi.NoteOnEvent(tick=0, channel=9, data=[42, 127]),
   midi.NoteOnEvent(tick=132, channel=9, data=[42, 0]),
   midi.NoteOnEvent(tick=0, channel=9, data=[36, 0]),
   midi.NoteOnEvent(tick=60, channel=9, data=[36, 127]),
   midi.NoteOnEvent(tick=0, channel=9, data=[42, 127]),
   midi.NoteOnEvent(tick=132, channel=9, data=[42, 0]),
   midi.NoteOnEvent(tick=0, channel=9, data=[36, 0]),
   midi.NoteOnEvent(tick=60, channel=9, data=[38, 127]),
   midi.NoteOnEvent(tick=132, channel=9, data=[38, 0]),
   midi.NoteOnEvent(tick=60, channel=9, data=[36, 127]),
   midi.NoteOnEvent(tick=132, channel=9, data=[36, 0]),
   midi.NoteOnEvent(tick=60, channel=9, data=[42, 127]),
   midi.NoteOnEvent(tick=132, channel=9, data=[42, 0]),
   midi.NoteOnEvent(tick=60, channel=9, data=[36, 127]),
   midi.NoteOnEvent(tick=0, channel=9, data=[42, 127]),
   midi.NoteOnEvent(tick=132, channel=9, data=[42, 0]),
   midi.NoteOnEvent(tick=0, channel=9, data=[36, 0]),
   midi.NoteOnEvent(tick=60, channel=9, data=[38, 127]),
   midi.NoteOnEvent(tick=0, channel=9, data=[42, 127]),
   midi.NoteOnEvent(tick=132, channel=9, data=[42, 0]),
   midi.NoteOnEvent(tick=0, channel=9, data=[38, 0]),
   midi.NoteOnEvent(tick=60, channel=9, data=[36, 127]),
   midi.NoteOnEvent(tick=0, channel=9, data=[42, 127]),
   midi.NoteOnEvent(tick=132, channel=9, data=[42, 0]),
   midi.NoteOnEvent(tick=0, channel=9, data=[36, 0]),
   midi.NoteOnEvent(tick=60, channel=9, data=[36, 127]),
   midi.NoteOnEvent(tick=0, channel=9, data=[42, 127]),
   midi.NoteOnEvent(tick=132, channel=9, data=[42, 0]),
   midi.NoteOnEvent(tick=0, channel=9, data=[36, 0]),
   midi.NoteOnEvent(tick=60, channel=9, data=[36, 127]),
   midi.NoteOnEvent(tick=0, channel=9, data=[42, 127]),
   midi.NoteOnEvent(tick=132, channel=9, data=[42, 0]),
   midi.NoteOnEvent(tick=0, channel=9, data=[36, 0]),
   midi.NoteOnEvent(tick=60, channel=9, data=[38, 127]),
   midi.NoteOnEvent(tick=0, channel=9, data=[42, 127]),
   midi.NoteOnEvent(tick=132, channel=9, data=[42, 0]),
   midi.NoteOnEvent(tick=0, channel=9, data=[38, 0]),
   midi.NoteOnEvent(tick=60, channel=9, data=[36, 127]),
   midi.NoteOnEvent(tick=0, channel=9, data=[42, 127]),
   midi.NoteOnEvent(tick=132, channel=9, data=[42, 0]),
   midi.NoteOnEvent(tick=0, channel=9, data=[36, 0]),
   midi.NoteOnEvent(tick=60, channel=9, data=[36, 127]),
   midi.NoteOnEvent(tick=0, channel=9, data=[42, 127]),
   midi.NoteOnEvent(tick=132, channel=9, data=[42, 0]),
   midi.NoteOnEvent(tick=0, channel=9, data=[36, 0]),
   midi.NoteOnEvent(tick=60, channel=9, data=[36, 127]),
   midi.NoteOnEvent(tick=0, channel=9, data=[42, 127]),
   midi.NoteOnEvent(tick=132, channel=9, data=[42, 0]),
   midi.NoteOnEvent(tick=0, channel=9, data=[36, 0]),
   midi.NoteOnEvent(tick=60, channel=9, data=[38, 127]),
   midi.NoteOnEvent(tick=0, channel=9, data=[42, 127]),
   midi.NoteOnEvent(tick=132, channel=9, data=[42, 0]),
   midi.NoteOnEvent(tick=0, channel=9, data=[38, 0]),
   midi.NoteOnEvent(tick=60, channel=9, data=[42, 127]),
   midi.NoteOnEvent(tick=132, channel=9, data=[42, 0]),
   midi.NoteOnEvent(tick=60, channel=9, data=[36, 127]),
   midi.NoteOnEvent(tick=0, channel=9, data=[42, 127]),
   midi.NoteOnEvent(tick=132, channel=9, data=[42, 0]),
   midi.NoteOnEvent(tick=0, channel=9, data=[36, 0]),
   midi.NoteOnEvent(tick=60, channel=9, data=[36, 127]),
   midi.NoteOnEvent(tick=0, channel=9, data=[42, 127]),
   midi.NoteOnEvent(tick=132, channel=9, data=[42, 0]),
   midi.NoteOnEvent(tick=0, channel=9, data=[36, 0]),
   midi.NoteOnEvent(tick=60, channel=9, data=[38, 127]),
   midi.NoteOnEvent(tick=132, channel=9, data=[38, 0]),
   midi.NoteOnEvent(tick=60, channel=9, data=[36, 127]),
   midi.NoteOnEvent(tick=132, channel=9, data=[36, 0]),
   midi.NoteOnEvent(tick=60, channel=9, data=[42, 127]),
   midi.NoteOnEvent(tick=132, channel=9, data=[42, 0]),
   midi.NoteOnEvent(tick=60, channel=9, data=[36, 127]),
   midi.NoteOnEvent(tick=0, channel=9, data=[42, 127]),
   midi.NoteOnEvent(tick=132, channel=9, data=[42, 0]),
   midi.NoteOnEvent(tick=0, channel=9, data=[36, 0]),
   midi.NoteOnEvent(tick=60, channel=9, data=[38, 127]),
   midi.NoteOnEvent(tick=0, channel=9, data=[42, 127]),
   midi.NoteOnEvent(tick=132, channel=9, data=[42, 0]),
   midi.NoteOnEvent(tick=0, channel=9, data=[38, 0]),
   midi.NoteOnEvent(tick=60, channel=9, data=[36, 127]),
   midi.NoteOnEvent(tick=0, channel=9, data=[42, 127]),
   midi.NoteOnEvent(tick=64, channel=9, data=[36, 0]),
   midi.NoteOnEvent(tick=32, channel=9, data=[36, 127]),
   midi.NoteOnEvent(tick=36, channel=9, data=[42, 0]),
   midi.NoteOnEvent(tick=28, channel=9, data=[36, 0]),
   midi.NoteOnEvent(tick=32, channel=9, data=[36, 127]),
   midi.NoteOnEvent(tick=0, channel=9, data=[42, 127]),
   midi.NoteOnEvent(tick=132, channel=9, data=[42, 0]),
   midi.NoteOnEvent(tick=0, channel=9, data=[36, 0]),
   midi.NoteOnEvent(tick=60, channel=9, data=[36, 127]),
   midi.NoteOnEvent(tick=0, channel=9, data=[42, 127]),
   midi.NoteOnEvent(tick=64, channel=9, data=[36, 0]),
   midi.NoteOnEvent(tick=32, channel=9, data=[36, 127]),
   midi.NoteOnEvent(tick=36, channel=9, data=[42, 0]),
   midi.NoteOnEvent(tick=28, channel=9, data=[36, 0]),
   midi.NoteOnEvent(tick=32, channel=9, data=[36, 127]),
   midi.NoteOnEvent(tick=0, channel=9, data=[38, 127]),
   midi.NoteOnEvent(tick=0, channel=9, data=[42, 127]),
   midi.NoteOnEvent(tick=132, channel=9, data=[42, 0]),
   midi.NoteOnEvent(tick=0, channel=9, data=[38, 0]),
   midi.NoteOnEvent(tick=0, channel=9, data=[36, 0]),
   midi.NoteOnEvent(tick=60, channel=9, data=[36, 127]),
   midi.NoteOnEvent(tick=0, channel=9, data=[42, 127]),
   midi.NoteOnEvent(tick=64, channel=9, data=[36, 0]),
   midi.NoteOnEvent(tick=32, channel=9, data=[36, 127]),
   midi.NoteOnEvent(tick=36, channel=9, data=[42, 0]),
   midi.NoteOnEvent(tick=28, channel=9, data=[36, 0]),
   midi.NoteOnEvent(tick=32, channel=9, data=[36, 127]),
   midi.NoteOnEvent(tick=0, channel=9, data=[42, 127]),
   midi.NoteOnEvent(tick=132, channel=9, data=[42, 0]),
   midi.NoteOnEvent(tick=0, channel=9, data=[36, 0]),
   midi.NoteOnEvent(tick=60, channel=9, data=[36, 127]),
   midi.NoteOnEvent(tick=0, channel=9, data=[42, 127]),
   midi.NoteOnEvent(tick=64, channel=9, data=[36, 0]),
   midi.NoteOnEvent(tick=32, channel=9, data=[36, 127]),
   midi.NoteOnEvent(tick=36, channel=9, data=[42, 0]),
   midi.NoteOnEvent(tick=28, channel=9, data=[36, 0]),
   midi.NoteOnEvent(tick=32, channel=9, data=[35, 127]),
   midi.NoteOnEvent(tick=0, channel=9, data=[38, 127]),
   midi.NoteOnEvent(tick=0, channel=9, data=[42, 127]),
   midi.NoteOnEvent(tick=132, channel=9, data=[42, 0]),
   midi.NoteOnEvent(tick=0, channel=9, data=[38, 0]),
   midi.NoteOnEvent(tick=0, channel=9, data=[35, 0]),
   midi.NoteOnEvent(tick=60, channel=9, data=[36, 127]),
   midi.NoteOnEvent(tick=0, channel=9, data=[42, 127]),
   midi.NoteOnEvent(tick=64, channel=9, data=[36, 0]),
   midi.NoteOnEvent(tick=32, channel=9, data=[36, 127]),
   midi.NoteOnEvent(tick=36, channel=9, data=[42, 0]),
   midi.NoteOnEvent(tick=28, channel=9, data=[36, 0]),
   midi.NoteOnEvent(tick=32, channel=9, data=[36, 127]),
   midi.NoteOnEvent(tick=0, channel=9, data=[42, 127]),
   midi.NoteOnEvent(tick=132, channel=9, data=[42, 0]),
   midi.NoteOnEvent(tick=0, channel=9, data=[36, 0]),
   midi.NoteOnEvent(tick=60, channel=9, data=[36, 127]),
   midi.NoteOnEvent(tick=0, channel=9, data=[42, 127]),
   midi.NoteOnEvent(tick=132, channel=9, data=[42, 0]),
   midi.NoteOnEvent(tick=0, channel=9, data=[36, 0]),
   midi.NoteOnEvent(tick=60, channel=9, data=[38, 127]),
   midi.NoteOnEvent(tick=132, channel=9, data=[38, 0]),
   midi.NoteOnEvent(tick=60, channel=9, data=[36, 127]),
   midi.NoteOnEvent(tick=132, channel=9, data=[36, 0]),
   midi.NoteOnEvent(tick=60, channel=9, data=[42, 127]),
   midi.NoteOnEvent(tick=132, channel=9, data=[42, 0]),
   midi.NoteOnEvent(tick=60, channel=9, data=[36, 127]),
   midi.NoteOnEvent(tick=0, channel=9, data=[42, 127]),
   midi.NoteOnEvent(tick=132, channel=9, data=[42, 0]),
   midi.NoteOnEvent(tick=0, channel=9, data=[36, 0]),
   midi.NoteOnEvent(tick=60, channel=9, data=[38, 127]),
   midi.NoteOnEvent(tick=0, channel=9, data=[42, 127]),
   midi.NoteOnEvent(tick=132, channel=9, data=[42, 0]),
   midi.NoteOnEvent(tick=0, channel=9, data=[38, 0]),
   midi.NoteOnEvent(tick=60, channel=9, data=[36, 127]),
   midi.NoteOnEvent(tick=0, channel=9, data=[42, 127]),
   midi.NoteOnEvent(tick=132, channel=9, data=[42, 0]),
   midi.NoteOnEvent(tick=0, channel=9, data=[36, 0]),
   midi.NoteOnEvent(tick=60, channel=9, data=[36, 127]),
   midi.NoteOnEvent(tick=0, channel=9, data=[42, 127]),
   midi.NoteOnEvent(tick=132, channel=9, data=[42, 0]),
   midi.NoteOnEvent(tick=0, channel=9, data=[36, 0]),
   midi.NoteOnEvent(tick=60, channel=9, data=[36, 127]),
   midi.NoteOnEvent(tick=0, channel=9, data=[42, 127]),
   midi.NoteOnEvent(tick=132, channel=9, data=[42, 0]),
   midi.NoteOnEvent(tick=0, channel=9, data=[36, 0]),
   midi.NoteOnEvent(tick=60, channel=9, data=[38, 127]),
   midi.NoteOnEvent(tick=0, channel=9, data=[42, 127]),
   midi.NoteOnEvent(tick=132, channel=9, data=[42, 0]),
   midi.NoteOnEvent(tick=0, channel=9, data=[38, 0]),
   midi.NoteOnEvent(tick=60, channel=9, data=[36, 127]),
   midi.NoteOnEvent(tick=0, channel=9, data=[42, 127]),
   midi.NoteOnEvent(tick=132, channel=9, data=[42, 0]),
   midi.NoteOnEvent(tick=0, channel=9, data=[36, 0]),
   midi.NoteOnEvent(tick=60, channel=9, data=[36, 127]),
   midi.NoteOnEvent(tick=0, channel=9, data=[42, 127]),
   midi.NoteOnEvent(tick=132, channel=9, data=[42, 0]),
   midi.NoteOnEvent(tick=0, channel=9, data=[36, 0]),
   midi.NoteOnEvent(tick=60, channel=9, data=[36, 127]),
   midi.NoteOnEvent(tick=0, channel=9, data=[42, 127]),
   midi.NoteOnEvent(tick=132, channel=9, data=[42, 0]),
   midi.NoteOnEvent(tick=0, channel=9, data=[36, 0]),
   midi.NoteOnEvent(tick=60, channel=9, data=[38, 127]),
   midi.NoteOnEvent(tick=0, channel=9, data=[42, 127]),
   midi.NoteOnEvent(tick=132, channel=9, data=[42, 0]),
   midi.NoteOnEvent(tick=0, channel=9, data=[38, 0]),
   midi.NoteOnEvent(tick=60, channel=9, data=[42, 127]),
   midi.NoteOnEvent(tick=132, channel=9, data=[42, 0]),
   midi.NoteOnEvent(tick=60, channel=9, data=[36, 127]),
   midi.NoteOnEvent(tick=0, channel=9, data=[42, 127]),
   midi.NoteOnEvent(tick=132, channel=9, data=[42, 0]),
   midi.NoteOnEvent(tick=0, channel=9, data=[36, 0]),
   midi.NoteOnEvent(tick=60, channel=9, data=[36, 127]),
   midi.NoteOnEvent(tick=0, channel=9, data=[42, 127]),
   midi.NoteOnEvent(tick=132, channel=9, data=[42, 0]),
   midi.NoteOnEvent(tick=0, channel=9, data=[36, 0]),
   midi.NoteOnEvent(tick=60, channel=9, data=[38, 127]),
   midi.NoteOnEvent(tick=132, channel=9, data=[38, 0]),
   midi.NoteOnEvent(tick=60, channel=9, data=[36, 127]),
   midi.NoteOnEvent(tick=132, channel=9, data=[36, 0]),
   midi.NoteOnEvent(tick=60, channel=9, data=[42, 127]),
   midi.NoteOnEvent(tick=132, channel=9, data=[42, 0]),
   midi.NoteOnEvent(tick=60, channel=9, data=[36, 127]),
   midi.NoteOnEvent(tick=0, channel=9, data=[42, 127]),
   midi.NoteOnEvent(tick=132, channel=9, data=[42, 0]),
   midi.NoteOnEvent(tick=0, channel=9, data=[36, 0]),
   midi.NoteOnEvent(tick=60, channel=9, data=[38, 127]),
   midi.NoteOnEvent(tick=0, channel=9, data=[42, 127]),
   midi.NoteOnEvent(tick=132, channel=9, data=[42, 0]),
   midi.NoteOnEvent(tick=0, channel=9, data=[38, 0]),
   midi.NoteOnEvent(tick=60, channel=9, data=[36, 127]),
   midi.NoteOnEvent(tick=0, channel=9, data=[42, 127]),
   midi.NoteOnEvent(tick=64, channel=9, data=[36, 0]),
   midi.NoteOnEvent(tick=32, channel=9, data=[36, 127]),
   midi.NoteOnEvent(tick=36, channel=9, data=[42, 0]),
   midi.NoteOnEvent(tick=28, channel=9, data=[36, 0]),
   midi.NoteOnEvent(tick=32, channel=9, data=[36, 127]),
   midi.NoteOnEvent(tick=0, channel=9, data=[42, 127]),
   midi.NoteOnEvent(tick=132, channel=9, data=[42, 0]),
   midi.NoteOnEvent(tick=0, channel=9, data=[36, 0]),
   midi.NoteOnEvent(tick=60, channel=9, data=[36, 127]),
   midi.NoteOnEvent(tick=0, channel=9, data=[42, 127]),
   midi.NoteOnEvent(tick=64, channel=9, data=[36, 0]),
   midi.NoteOnEvent(tick=32, channel=9, data=[36, 127]),
   midi.NoteOnEvent(tick=36, channel=9, data=[42, 0]),
   midi.NoteOnEvent(tick=28, channel=9, data=[36, 0]),
   midi.NoteOnEvent(tick=32, channel=9, data=[36, 127]),
   midi.NoteOnEvent(tick=0, channel=9, data=[38, 127]),
   midi.NoteOnEvent(tick=0, channel=9, data=[42, 127]),
   midi.NoteOnEvent(tick=132, channel=9, data=[42, 0]),
   midi.NoteOnEvent(tick=0, channel=9, data=[38, 0]),
   midi.NoteOnEvent(tick=0, channel=9, data=[36, 0]),
   midi.NoteOnEvent(tick=60, channel=9, data=[36, 127]),
   midi.NoteOnEvent(tick=0, channel=9, data=[42, 127]),
   midi.NoteOnEvent(tick=64, channel=9, data=[36, 0]),
   midi.NoteOnEvent(tick=32, channel=9, data=[36, 127]),
   midi.NoteOnEvent(tick=36, channel=9, data=[42, 0]),
   midi.NoteOnEvent(tick=28, channel=9, data=[36, 0]),
   midi.NoteOnEvent(tick=32, channel=9, data=[36, 127]),
   midi.NoteOnEvent(tick=0, channel=9, data=[42, 127]),
   midi.NoteOnEvent(tick=132, channel=9, data=[42, 0]),
   midi.NoteOnEvent(tick=0, channel=9, data=[36, 0]),
   midi.NoteOnEvent(tick=60, channel=9, data=[36, 127]),
   midi.NoteOnEvent(tick=0, channel=9, data=[42, 127]),
   midi.NoteOnEvent(tick=64, channel=9, data=[36, 0]),
   midi.NoteOnEvent(tick=32, channel=9, data=[36, 127]),
   midi.NoteOnEvent(tick=36, channel=9, data=[42, 0]),
   midi.NoteOnEvent(tick=28, channel=9, data=[36, 0]),
   midi.NoteOnEvent(tick=32, channel=9, data=[35, 127]),
   midi.NoteOnEvent(tick=0, channel=9, data=[38, 127]),
   midi.NoteOnEvent(tick=0, channel=9, data=[42, 127]),
   midi.NoteOnEvent(tick=132, channel=9, data=[42, 0]),
   midi.NoteOnEvent(tick=0, channel=9, data=[38, 0]),
   midi.NoteOnEvent(tick=0, channel=9, data=[35, 0]),
   midi.NoteOnEvent(tick=60, channel=9, data=[36, 127]),
   midi.NoteOnEvent(tick=0, channel=9, data=[42, 127]),
   midi.NoteOnEvent(tick=64, channel=9, data=[36, 0]),
   midi.NoteOnEvent(tick=32, channel=9, data=[36, 127]),
   midi.NoteOnEvent(tick=36, channel=9, data=[42, 0]),
   midi.NoteOnEvent(tick=28, channel=9, data=[36, 0]),
   midi.NoteOnEvent(tick=32, channel=9, data=[36, 127]),
   midi.NoteOnEvent(tick=0, channel=9, data=[42, 127]),
   midi.NoteOnEvent(tick=132, channel=9, data=[42, 0]),
   midi.NoteOnEvent(tick=0, channel=9, data=[36, 0]),
   midi.NoteOnEvent(tick=60, channel=9, data=[36, 127]),
   midi.NoteOnEvent(tick=0, channel=9, data=[42, 127]),
   midi.NoteOnEvent(tick=132, channel=9, data=[42, 0]),
   midi.NoteOnEvent(tick=0, channel=9, data=[36, 0]),
   midi.NoteOnEvent(tick=60, channel=9, data=[38, 127]),
   midi.NoteOnEvent(tick=132, channel=9, data=[38, 0]),
   midi.NoteOnEvent(tick=60, channel=9, data=[36, 127]),
   midi.NoteOnEvent(tick=132, channel=9, data=[36, 0]),
   midi.NoteOnEvent(tick=60, channel=9, data=[42, 127]),
   midi.NoteOnEvent(tick=132, channel=9, data=[42, 0]),
   midi.NoteOnEvent(tick=60, channel=9, data=[36, 127]),
   midi.NoteOnEvent(tick=0, channel=9, data=[42, 127]),
   midi.NoteOnEvent(tick=132, channel=9, data=[42, 0]),
   midi.NoteOnEvent(tick=0, channel=9, data=[36, 0]),
   midi.NoteOnEvent(tick=60, channel=9, data=[38, 127]),
   midi.NoteOnEvent(tick=0, channel=9, data=[42, 127]),
   midi.NoteOnEvent(tick=132, channel=9, data=[42, 0]),
   midi.NoteOnEvent(tick=0, channel=9, data=[38, 0]),
   midi.NoteOnEvent(tick=60, channel=9, data=[36, 127]),
   midi.NoteOnEvent(tick=0, channel=9, data=[42, 127]),
   midi.NoteOnEvent(tick=132, channel=9, data=[42, 0]),
   midi.NoteOnEvent(tick=0, channel=9, data=[36, 0]),
   midi.NoteOnEvent(tick=60, channel=9, data=[36, 127]),
   midi.NoteOnEvent(tick=0, channel=9, data=[42, 127]),
   midi.NoteOnEvent(tick=132, channel=9, data=[42, 0]),
   midi.NoteOnEvent(tick=0, channel=9, data=[36, 0]),
   midi.NoteOnEvent(tick=60, channel=9, data=[36, 127]),
   midi.NoteOnEvent(tick=0, channel=9, data=[42, 127]),
   midi.NoteOnEvent(tick=132, channel=9, data=[42, 0]),
   midi.NoteOnEvent(tick=0, channel=9, data=[36, 0]),
   midi.NoteOnEvent(tick=60, channel=9, data=[38, 127]),
   midi.NoteOnEvent(tick=0, channel=9, data=[42, 127]),
   midi.NoteOnEvent(tick=132, channel=9, data=[42, 0]),
   midi.NoteOnEvent(tick=0, channel=9, data=[38, 0]),
   midi.NoteOnEvent(tick=60, channel=9, data=[36, 127]),
   midi.NoteOnEvent(tick=0, channel=9, data=[42, 127]),
   midi.NoteOnEvent(tick=132, channel=9, data=[42, 0]),
   midi.NoteOnEvent(tick=0, channel=9, data=[36, 0]),
   midi.NoteOnEvent(tick=60, channel=9, data=[36, 127]),
   midi.NoteOnEvent(tick=0, channel=9, data=[42, 127]),
   midi.NoteOnEvent(tick=132, channel=9, data=[42, 0]),
   midi.NoteOnEvent(tick=0, channel=9, data=[36, 0]),
   midi.NoteOnEvent(tick=60, channel=9, data=[36, 127]),
   midi.NoteOnEvent(tick=0, channel=9, data=[42, 127]),
   midi.NoteOnEvent(tick=132, channel=9, data=[42, 0]),
   midi.NoteOnEvent(tick=0, channel=9, data=[36, 0]),
   midi.NoteOnEvent(tick=60, channel=9, data=[38, 127]),
   midi.NoteOnEvent(tick=0, channel=9, data=[42, 127]),
   midi.NoteOnEvent(tick=132, channel=9, data=[42, 0]),
   midi.NoteOnEvent(tick=0, channel=9, data=[38, 0]),
   midi.NoteOnEvent(tick=60, channel=9, data=[42, 127]),
   midi.NoteOnEvent(tick=132, channel=9, data=[42, 0]),
   midi.NoteOnEvent(tick=60, channel=9, data=[36, 127]),
   midi.NoteOnEvent(tick=0, channel=9, data=[42, 127]),
   midi.NoteOnEvent(tick=132, channel=9, data=[42, 0]),
   midi.NoteOnEvent(tick=0, channel=9, data=[36, 0]),
   midi.NoteOnEvent(tick=60, channel=9, data=[36, 127]),
   midi.NoteOnEvent(tick=0, channel=9, data=[42, 127]),
   midi.NoteOnEvent(tick=132, channel=9, data=[42, 0]),
   midi.NoteOnEvent(tick=0, channel=9, data=[36, 0]),
   midi.NoteOnEvent(tick=60, channel=9, data=[38, 127]),
   midi.NoteOnEvent(tick=132, channel=9, data=[38, 0]),
   midi.NoteOnEvent(tick=60, channel=9, data=[36, 127]),
   midi.NoteOnEvent(tick=132, channel=9, data=[36, 0]),
   midi.NoteOnEvent(tick=60, channel=9, data=[42, 127]),
   midi.NoteOnEvent(tick=132, channel=9, data=[42, 0]),
   midi.NoteOnEvent(tick=60, channel=9, data=[36, 127]),
   midi.NoteOnEvent(tick=0, channel=9, data=[42, 127]),
   midi.NoteOnEvent(tick=132, channel=9, data=[42, 0]),
   midi.NoteOnEvent(tick=0, channel=9, data=[36, 0]),
   midi.NoteOnEvent(tick=60, channel=9, data=[38, 127]),
   midi.NoteOnEvent(tick=0, channel=9, data=[42, 127]),
   midi.NoteOnEvent(tick=132, channel=9, data=[42, 0]),
   midi.NoteOnEvent(tick=0, channel=9, data=[38, 0]),
   midi.NoteOnEvent(tick=60, channel=9, data=[36, 127]),
   midi.NoteOnEvent(tick=0, channel=9, data=[42, 127]),
   midi.NoteOnEvent(tick=64, channel=9, data=[36, 0]),
   midi.NoteOnEvent(tick=32, channel=9, data=[36, 127]),
   midi.NoteOnEvent(tick=36, channel=9, data=[42, 0]),
   midi.NoteOnEvent(tick=28, channel=9, data=[36, 0]),
   midi.NoteOnEvent(tick=32, channel=9, data=[36, 127]),
   midi.NoteOnEvent(tick=0, channel=9, data=[42, 127]),
   midi.NoteOnEvent(tick=132, channel=9, data=[42, 0]),
   midi.NoteOnEvent(tick=0, channel=9, data=[36, 0]),
   midi.NoteOnEvent(tick=60, channel=9, data=[36, 127]),
   midi.NoteOnEvent(tick=0, channel=9, data=[42, 127]),
   midi.NoteOnEvent(tick=64, channel=9, data=[36, 0]),
   midi.NoteOnEvent(tick=32, channel=9, data=[36, 127]),
   midi.NoteOnEvent(tick=36, channel=9, data=[42, 0]),
   midi.NoteOnEvent(tick=28, channel=9, data=[36, 0]),
   midi.NoteOnEvent(tick=32, channel=9, data=[36, 127]),
   midi.NoteOnEvent(tick=0, channel=9, data=[38, 127]),
   midi.NoteOnEvent(tick=0, channel=9, data=[42, 127]),
   midi.NoteOnEvent(tick=132, channel=9, data=[42, 0]),
   midi.NoteOnEvent(tick=0, channel=9, data=[38, 0]),
   midi.NoteOnEvent(tick=0, channel=9, data=[36, 0]),
   midi.NoteOnEvent(tick=60, channel=9, data=[36, 127]),
   midi.NoteOnEvent(tick=0, channel=9, data=[42, 127]),
   midi.NoteOnEvent(tick=64, channel=9, data=[36, 0]),
   midi.NoteOnEvent(tick=32, channel=9, data=[36, 127]),
   midi.NoteOnEvent(tick=36, channel=9, data=[42, 0]),
   midi.NoteOnEvent(tick=28, channel=9, data=[36, 0]),
   midi.NoteOnEvent(tick=32, channel=9, data=[36, 127]),
   midi.NoteOnEvent(tick=0, channel=9, data=[42, 127]),
   midi.NoteOnEvent(tick=132, channel=9, data=[42, 0]),
   midi.NoteOnEvent(tick=0, channel=9, data=[36, 0]),
   midi.NoteOnEvent(tick=60, channel=9, data=[36, 127]),
   midi.NoteOnEvent(tick=0, channel=9, data=[42, 127]),
   midi.NoteOnEvent(tick=64, channel=9, data=[36, 0]),
   midi.NoteOnEvent(tick=32, channel=9, data=[36, 127]),
   midi.NoteOnEvent(tick=36, channel=9, data=[42, 0]),
   midi.NoteOnEvent(tick=28, channel=9, data=[36, 0]),
   midi.NoteOnEvent(tick=32, channel=9, data=[35, 127]),
   midi.NoteOnEvent(tick=0, channel=9, data=[38, 127]),
   midi.NoteOnEvent(tick=0, channel=9, data=[42, 127]),
   midi.NoteOnEvent(tick=132, channel=9, data=[42, 0]),
   midi.NoteOnEvent(tick=0, channel=9, data=[38, 0]),
   midi.NoteOnEvent(tick=0, channel=9, data=[35, 0]),
   midi.NoteOnEvent(tick=60, channel=9, data=[36, 127]),
   midi.NoteOnEvent(tick=0, channel=9, data=[42, 127]),
   midi.NoteOnEvent(tick=64, channel=9, data=[36, 0]),
   midi.NoteOnEvent(tick=32, channel=9, data=[36, 127]),
   midi.NoteOnEvent(tick=36, channel=9, data=[42, 0]),
   midi.NoteOnEvent(tick=28, channel=9, data=[36, 0]),
   midi.NoteOnEvent(tick=32, channel=9, data=[36, 127]),
   midi.NoteOnEvent(tick=0, channel=9, data=[42, 127]),
   midi.NoteOnEvent(tick=132, channel=9, data=[42, 0]),
   midi.NoteOnEvent(tick=0, channel=9, data=[36, 0]),
   midi.NoteOnEvent(tick=60, channel=9, data=[36, 127]),
   midi.NoteOnEvent(tick=0, channel=9, data=[42, 127]),
   midi.NoteOnEvent(tick=132, channel=9, data=[42, 0]),
   midi.NoteOnEvent(tick=0, channel=9, data=[36, 0]),
   midi.NoteOnEvent(tick=60, channel=9, data=[38, 127]),
   midi.NoteOnEvent(tick=132, channel=9, data=[38, 0]),
   midi.NoteOnEvent(tick=60, channel=9, data=[36, 127]),
   midi.NoteOnEvent(tick=132, channel=9, data=[36, 0]),
   midi.NoteOnEvent(tick=252, channel=9, data=[36, 127]),
   midi.NoteOnEvent(tick=0, channel=9, data=[38, 127]),
   midi.NoteOnEvent(tick=64, channel=9, data=[38, 0]),
   midi.NoteOnEvent(tick=32, channel=9, data=[38, 127]),
   midi.NoteOnEvent(tick=36, channel=9, data=[36, 0]),
   midi.NoteOnEvent(tick=28, channel=9, data=[38, 0]),
   midi.NoteOnEvent(tick=32, channel=9, data=[38, 127]),
   midi.NoteOnEvent(tick=64, channel=9, data=[38, 0]),
   midi.NoteOnEvent(tick=32, channel=9, data=[38, 127]),
   midi.NoteOnEvent(tick=64, channel=9, data=[38, 0]),
   midi.NoteOnEvent(tick=32, channel=9, data=[36, 127]),
   midi.NoteOnEvent(tick=0, channel=9, data=[38, 127]),
   midi.NoteOnEvent(tick=64, channel=9, data=[38, 0]),
   midi.NoteOnEvent(tick=32, channel=9, data=[38, 127]),
   midi.NoteOnEvent(tick=36, channel=9, data=[36, 0]),
   midi.NoteOnEvent(tick=28, channel=9, data=[38, 0]),
   midi.NoteOnEvent(tick=32, channel=9, data=[38, 127]),
   midi.NoteOnEvent(tick=64, channel=9, data=[38, 0]),
   midi.NoteOnEvent(tick=32, channel=9, data=[36, 127]),
   midi.NoteOnEvent(tick=0, channel=9, data=[38, 127]),
   midi.NoteOnEvent(tick=64, channel=9, data=[38, 0]),
   midi.NoteOnEvent(tick=32, channel=9, data=[38, 127]),
   midi.NoteOnEvent(tick=36, channel=9, data=[36, 0]),
   midi.NoteOnEvent(tick=28, channel=9, data=[38, 0]),
   midi.NoteOnEvent(tick=32, channel=9, data=[38, 127]),
   midi.NoteOnEvent(tick=64, channel=9, data=[38, 0]),
   midi.NoteOnEvent(tick=32, channel=9, data=[38, 127]),
   midi.NoteOnEvent(tick=64, channel=9, data=[38, 0]),
   midi.NoteOnEvent(tick=32, channel=9, data=[36, 127]),
   midi.NoteOnEvent(tick=0, channel=9, data=[38, 127]),
   midi.NoteOnEvent(tick=64, channel=9, data=[38, 0]),
   midi.NoteOnEvent(tick=32, channel=9, data=[38, 127]),
   midi.NoteOnEvent(tick=36, channel=9, data=[36, 0]),
   midi.NoteOnEvent(tick=28, channel=9, data=[38, 0]),
   midi.NoteOnEvent(tick=32, channel=9, data=[38, 127]),
   midi.NoteOnEvent(tick=64, channel=9, data=[38, 0]),
   midi.NoteOnEvent(tick=32, channel=9, data=[36, 127]),
   midi.NoteOnEvent(tick=0, channel=9, data=[38, 127]),
   midi.NoteOnEvent(tick=64, channel=9, data=[38, 0]),
   midi.NoteOnEvent(tick=32, channel=9, data=[38, 127]),
   midi.NoteOnEvent(tick=64, channel=9, data=[38, 0]),
   midi.NoteOnEvent(tick=32, channel=9, data=[38, 127]),
   midi.NoteOnEvent(tick=64, channel=9, data=[38, 0]),
   midi.NoteOnEvent(tick=12, channel=9, data=[36, 0]),
   midi.NoteOnEvent(tick=20, channel=9, data=[38, 127]),
   midi.NoteOnEvent(tick=64, channel=9, data=[38, 0]),
   midi.NoteOnEvent(tick=32, channel=9, data=[36, 127]),
   midi.NoteOnEvent(tick=0, channel=9, data=[38, 127]),
   midi.NoteOnEvent(tick=64, channel=9, data=[38, 0]),
   midi.NoteOnEvent(tick=32, channel=9, data=[38, 127]),
   midi.NoteOnEvent(tick=64, channel=9, data=[38, 0]),
   midi.NoteOnEvent(tick=32, channel=9, data=[38, 127]),
   midi.NoteOnEvent(tick=64, channel=9, data=[38, 0]),
   midi.NoteOnEvent(tick=12, channel=9, data=[36, 0]),
   midi.NoteOnEvent(tick=20, channel=9, data=[38, 127]),
   midi.NoteOnEvent(tick=64, channel=9, data=[38, 0]),
   midi.NoteOnEvent(tick=32, channel=9, data=[36, 127]),
   midi.NoteOnEvent(tick=132, channel=9, data=[36, 0]),
   midi.NoteOnEvent(tick=60, channel=9, data=[36, 127]),
   midi.NoteOnEvent(tick=132, channel=9, data=[36, 0]),
   midi.NoteOnEvent(tick=60, channel=9, data=[36, 127]),
   midi.NoteOnEvent(tick=132, channel=9, data=[36, 0]),
   midi.NoteOnEvent(tick=60, channel=9, data=[36, 127]),
   midi.NoteOnEvent(tick=132, channel=9, data=[36, 0]),
   midi.NoteOnEvent(tick=252, channel=9, data=[36, 127]),
   midi.NoteOnEvent(tick=132, channel=9, data=[36, 0]),
   midi.NoteOnEvent(tick=60, channel=9, data=[40, 127]),
   midi.NoteOnEvent(tick=48, channel=9, data=[40, 127]),
   midi.NoteOnEvent(tick=84, channel=9, data=[40, 0]),
   midi.NoteOnEvent(tick=48, channel=9, data=[40, 0]),
   midi.NoteOnEvent(tick=12, channel=9, data=[36, 127]),
   midi.NoteOnEvent(tick=64, channel=9, data=[36, 0]),
   midi.NoteOnEvent(tick=32, channel=9, data=[36, 127]),
   midi.NoteOnEvent(tick=64, channel=9, data=[36, 0]),
   midi.NoteOnEvent(tick=224, channel=9, data=[36, 127]),
   midi.NoteOnEvent(tick=64, channel=9, data=[36, 0]),
   midi.NoteOnEvent(tick=32, channel=9, data=[36, 127]),
   midi.NoteOnEvent(tick=64, channel=9, data=[36, 0]),
   midi.NoteOnEvent(tick=224, channel=9, data=[36, 127]),
   midi.NoteOnEvent(tick=64, channel=9, data=[36, 0]),
   midi.NoteOnEvent(tick=32, channel=9, data=[36, 127]),
   midi.NoteOnEvent(tick=64, channel=9, data=[36, 0]),
   midi.NoteOnEvent(tick=32, channel=9, data=[45, 127]),
   midi.NoteOnEvent(tick=48, channel=9, data=[45, 127]),
   midi.NoteOnEvent(tick=84, channel=9, data=[45, 0]),
   midi.NoteOnEvent(tick=48, channel=9, data=[45, 0]),
   midi.NoteOnEvent(tick=12, channel=9, data=[35, 127]),
   midi.NoteOnEvent(tick=64, channel=9, data=[35, 0]),
   midi.NoteOnEvent(tick=32, channel=9, data=[35, 127]),
   midi.NoteOnEvent(tick=64, channel=9, data=[35, 0]),
   midi.NoteOnEvent(tick=32, channel=9, data=[43, 127]),
   midi.NoteOnEvent(tick=44, channel=9, data=[43, 127]),
   midi.NoteOnEvent(tick=88, channel=9, data=[43, 0]),
   midi.NoteOnEvent(tick=44, channel=9, data=[43, 0]),
   midi.NoteOnEvent(tick=16, channel=9, data=[35, 127]),
   midi.NoteOnEvent(tick=64, channel=9, data=[35, 0]),
   midi.NoteOnEvent(tick=32, channel=9, data=[35, 127]),
   midi.NoteOnEvent(tick=64, channel=9, data=[35, 0]),
   midi.NoteOnEvent(tick=32, channel=9, data=[40, 127]),
   midi.NoteOnEvent(tick=48, channel=9, data=[40, 127]),
   midi.NoteOnEvent(tick=84, channel=9, data=[40, 0]),
   midi.NoteOnEvent(tick=48, channel=9, data=[40, 0]),
   midi.NoteOnEvent(tick=12, channel=9, data=[35, 127]),
   midi.NoteOnEvent(tick=132, channel=9, data=[35, 0]),
   midi.NoteOnEvent(tick=60, channel=9, data=[35, 127]),
   midi.NoteOnEvent(tick=132, channel=9, data=[35, 0]),
   midi.NoteOnEvent(tick=60, channel=9, data=[35, 127]),
   midi.NoteOnEvent(tick=132, channel=9, data=[35, 0]),
   midi.NoteOnEvent(tick=252, channel=9, data=[36, 127]),
   midi.NoteOnEvent(tick=0, channel=9, data=[38, 127]),
   midi.NoteOnEvent(tick=64, channel=9, data=[38, 0]),
   midi.NoteOnEvent(tick=32, channel=9, data=[38, 127]),
   midi.NoteOnEvent(tick=36, channel=9, data=[36, 0]),
   midi.NoteOnEvent(tick=28, channel=9, data=[38, 0]),
   midi.NoteOnEvent(tick=32, channel=9, data=[38, 127]),
   midi.NoteOnEvent(tick=64, channel=9, data=[38, 0]),
   midi.NoteOnEvent(tick=32, channel=9, data=[38, 127]),
   midi.NoteOnEvent(tick=64, channel=9, data=[38, 0]),
   midi.NoteOnEvent(tick=32, channel=9, data=[36, 127]),
   midi.NoteOnEvent(tick=0, channel=9, data=[38, 127]),
   midi.NoteOnEvent(tick=64, channel=9, data=[38, 0]),
   midi.NoteOnEvent(tick=32, channel=9, data=[38, 127]),
   midi.NoteOnEvent(tick=36, channel=9, data=[36, 0]),
   midi.NoteOnEvent(tick=28, channel=9, data=[38, 0]),
   midi.NoteOnEvent(tick=32, channel=9, data=[38, 127]),
   midi.NoteOnEvent(tick=64, channel=9, data=[38, 0]),
   midi.NoteOnEvent(tick=32, channel=9, data=[36, 127]),
   midi.NoteOnEvent(tick=0, channel=9, data=[38, 127]),
   midi.NoteOnEvent(tick=64, channel=9, data=[38, 0]),
   midi.NoteOnEvent(tick=32, channel=9, data=[38, 127]),
   midi.NoteOnEvent(tick=36, channel=9, data=[36, 0]),
   midi.NoteOnEvent(tick=28, channel=9, data=[38, 0]),
   midi.NoteOnEvent(tick=32, channel=9, data=[38, 127]),
   midi.NoteOnEvent(tick=64, channel=9, data=[38, 0]),
   midi.NoteOnEvent(tick=32, channel=9, data=[38, 127]),
   midi.NoteOnEvent(tick=64, channel=9, data=[38, 0]),
   midi.NoteOnEvent(tick=32, channel=9, data=[36, 127]),
   midi.NoteOnEvent(tick=0, channel=9, data=[38, 127]),
   midi.NoteOnEvent(tick=64, channel=9, data=[38, 0]),
   midi.NoteOnEvent(tick=32, channel=9, data=[38, 127]),
   midi.NoteOnEvent(tick=36, channel=9, data=[36, 0]),
   midi.NoteOnEvent(tick=28, channel=9, data=[38, 0]),
   midi.NoteOnEvent(tick=32, channel=9, data=[38, 127]),
   midi.NoteOnEvent(tick=64, channel=9, data=[38, 0]),
   midi.NoteOnEvent(tick=32, channel=9, data=[36, 127]),
   midi.NoteOnEvent(tick=0, channel=9, data=[38, 127]),
   midi.NoteOnEvent(tick=64, channel=9, data=[38, 0]),
   midi.NoteOnEvent(tick=32, channel=9, data=[38, 127]),
   midi.NoteOnEvent(tick=64, channel=9, data=[38, 0]),
   midi.NoteOnEvent(tick=32, channel=9, data=[38, 127]),
   midi.NoteOnEvent(tick=64, channel=9, data=[38, 0]),
   midi.NoteOnEvent(tick=12, channel=9, data=[36, 0]),
   midi.NoteOnEvent(tick=20, channel=9, data=[38, 127]),
   midi.NoteOnEvent(tick=64, channel=9, data=[38, 0]),
   midi.NoteOnEvent(tick=32, channel=9, data=[36, 127]),
   midi.NoteOnEvent(tick=0, channel=9, data=[38, 127]),
   midi.NoteOnEvent(tick=64, channel=9, data=[38, 0]),
   midi.NoteOnEvent(tick=32, channel=9, data=[38, 127]),
   midi.NoteOnEvent(tick=64, channel=9, data=[38, 0]),
   midi.NoteOnEvent(tick=32, channel=9, data=[38, 127]),
   midi.NoteOnEvent(tick=64, channel=9, data=[38, 0]),
   midi.NoteOnEvent(tick=12, channel=9, data=[36, 0]),
   midi.NoteOnEvent(tick=20, channel=9, data=[38, 127]),
   midi.NoteOnEvent(tick=64, channel=9, data=[38, 0]),
   midi.NoteOnEvent(tick=32, channel=9, data=[36, 127]),
   midi.NoteOnEvent(tick=132, channel=9, data=[36, 0]),
   midi.NoteOnEvent(tick=60, channel=9, data=[36, 127]),
   midi.NoteOnEvent(tick=132, channel=9, data=[36, 0]),
   midi.NoteOnEvent(tick=60, channel=9, data=[36, 127]),
   midi.NoteOnEvent(tick=132, channel=9, data=[36, 0]),
   midi.NoteOnEvent(tick=60, channel=9, data=[36, 127]),
   midi.NoteOnEvent(tick=132, channel=9, data=[36, 0]),
   midi.NoteOnEvent(tick=252, channel=9, data=[36, 127]),
   midi.NoteOnEvent(tick=132, channel=9, data=[36, 0]),
   midi.NoteOnEvent(tick=60, channel=9, data=[40, 127]),
   midi.NoteOnEvent(tick=48, channel=9, data=[40, 127]),
   midi.NoteOnEvent(tick=84, channel=9, data=[40, 0]),
   midi.NoteOnEvent(tick=48, channel=9, data=[40, 0]),
   midi.NoteOnEvent(tick=12, channel=9, data=[36, 127]),
   midi.NoteOnEvent(tick=64, channel=9, data=[36, 0]),
   midi.NoteOnEvent(tick=32, channel=9, data=[36, 127]),
   midi.NoteOnEvent(tick=64, channel=9, data=[36, 0]),
   midi.NoteOnEvent(tick=224, channel=9, data=[36, 127]),
   midi.NoteOnEvent(tick=64, channel=9, data=[36, 0]),
   midi.NoteOnEvent(tick=32, channel=9, data=[36, 127]),
   midi.NoteOnEvent(tick=64, channel=9, data=[36, 0]),
   midi.NoteOnEvent(tick=224, channel=9, data=[36, 127]),
   midi.NoteOnEvent(tick=64, channel=9, data=[36, 0]),
   midi.NoteOnEvent(tick=32, channel=9, data=[36, 127]),
   midi.NoteOnEvent(tick=64, channel=9, data=[36, 0]),
   midi.NoteOnEvent(tick=32, channel=9, data=[45, 127]),
   midi.NoteOnEvent(tick=48, channel=9, data=[45, 127]),
   midi.NoteOnEvent(tick=84, channel=9, data=[45, 0]),
   midi.NoteOnEvent(tick=48, channel=9, data=[45, 0]),
   midi.NoteOnEvent(tick=12, channel=9, data=[35, 127]),
   midi.NoteOnEvent(tick=64, channel=9, data=[35, 0]),
   midi.NoteOnEvent(tick=32, channel=9, data=[35, 127]),
   midi.NoteOnEvent(tick=64, channel=9, data=[35, 0]),
   midi.NoteOnEvent(tick=32, channel=9, data=[43, 127]),
   midi.NoteOnEvent(tick=44, channel=9, data=[43, 127]),
   midi.NoteOnEvent(tick=88, channel=9, data=[43, 0]),
   midi.NoteOnEvent(tick=44, channel=9, data=[43, 0]),
   midi.NoteOnEvent(tick=16, channel=9, data=[35, 127]),
   midi.NoteOnEvent(tick=64, channel=9, data=[35, 0]),
   midi.NoteOnEvent(tick=32, channel=9, data=[35, 127]),
   midi.NoteOnEvent(tick=64, channel=9, data=[35, 0]),
   midi.NoteOnEvent(tick=32, channel=9, data=[40, 127]),
   midi.NoteOnEvent(tick=48, channel=9, data=[40, 127]),
   midi.NoteOnEvent(tick=84, channel=9, data=[40, 0]),
   midi.NoteOnEvent(tick=48, channel=9, data=[40, 0]),
   midi.NoteOnEvent(tick=12, channel=9, data=[35, 127]),
   midi.NoteOnEvent(tick=132, channel=9, data=[35, 0]),
   midi.NoteOnEvent(tick=60, channel=9, data=[35, 127]),
   midi.NoteOnEvent(tick=132, channel=9, data=[35, 0]),
   midi.NoteOnEvent(tick=60, channel=9, data=[35, 127]),
   midi.NoteOnEvent(tick=132, channel=9, data=[35, 0]),
   midi.NoteOnEvent(tick=252, channel=9, data=[36, 127]),
   midi.NoteOnEvent(tick=0, channel=9, data=[38, 127]),
   midi.NoteOnEvent(tick=64, channel=9, data=[38, 0]),
   midi.NoteOnEvent(tick=32, channel=9, data=[38, 127]),
   midi.NoteOnEvent(tick=36, channel=9, data=[36, 0]),
   midi.NoteOnEvent(tick=28, channel=9, data=[38, 0]),
   midi.NoteOnEvent(tick=32, channel=9, data=[38, 127]),
   midi.NoteOnEvent(tick=64, channel=9, data=[38, 0]),
   midi.NoteOnEvent(tick=32, channel=9, data=[38, 127]),
   midi.NoteOnEvent(tick=64, channel=9, data=[38, 0]),
   midi.NoteOnEvent(tick=32, channel=9, data=[36, 127]),
   midi.NoteOnEvent(tick=0, channel=9, data=[38, 127]),
   midi.NoteOnEvent(tick=64, channel=9, data=[38, 0]),
   midi.NoteOnEvent(tick=32, channel=9, data=[38, 127]),
   midi.NoteOnEvent(tick=36, channel=9, data=[36, 0]),
   midi.NoteOnEvent(tick=28, channel=9, data=[38, 0]),
   midi.NoteOnEvent(tick=32, channel=9, data=[38, 127]),
   midi.NoteOnEvent(tick=64, channel=9, data=[38, 0]),
   midi.NoteOnEvent(tick=32, channel=9, data=[36, 127]),
   midi.NoteOnEvent(tick=0, channel=9, data=[38, 127]),
   midi.NoteOnEvent(tick=64, channel=9, data=[38, 0]),
   midi.NoteOnEvent(tick=32, channel=9, data=[38, 127]),
   midi.NoteOnEvent(tick=36, channel=9, data=[36, 0]),
   midi.NoteOnEvent(tick=28, channel=9, data=[38, 0]),
   midi.NoteOnEvent(tick=32, channel=9, data=[38, 127]),
   midi.NoteOnEvent(tick=64, channel=9, data=[38, 0]),
   midi.NoteOnEvent(tick=32, channel=9, data=[38, 127]),
   midi.NoteOnEvent(tick=64, channel=9, data=[38, 0]),
   midi.NoteOnEvent(tick=32, channel=9, data=[36, 127]),
   midi.NoteOnEvent(tick=0, channel=9, data=[38, 127]),
   midi.NoteOnEvent(tick=64, channel=9, data=[38, 0]),
   midi.NoteOnEvent(tick=32, channel=9, data=[38, 127]),
   midi.NoteOnEvent(tick=36, channel=9, data=[36, 0]),
   midi.NoteOnEvent(tick=28, channel=9, data=[38, 0]),
   midi.NoteOnEvent(tick=32, channel=9, data=[38, 127]),
   midi.NoteOnEvent(tick=64, channel=9, data=[38, 0]),
   midi.NoteOnEvent(tick=32, channel=9, data=[36, 127]),
   midi.NoteOnEvent(tick=0, channel=9, data=[38, 127]),
   midi.NoteOnEvent(tick=64, channel=9, data=[38, 0]),
   midi.NoteOnEvent(tick=32, channel=9, data=[38, 127]),
   midi.NoteOnEvent(tick=64, channel=9, data=[38, 0]),
   midi.NoteOnEvent(tick=32, channel=9, data=[38, 127]),
   midi.NoteOnEvent(tick=64, channel=9, data=[38, 0]),
   midi.NoteOnEvent(tick=12, channel=9, data=[36, 0]),
   midi.NoteOnEvent(tick=20, channel=9, data=[38, 127]),
   midi.NoteOnEvent(tick=64, channel=9, data=[38, 0]),
   midi.NoteOnEvent(tick=32, channel=9, data=[36, 127]),
   midi.NoteOnEvent(tick=0, channel=9, data=[38, 127]),
   midi.NoteOnEvent(tick=64, channel=9, data=[38, 0]),
   midi.NoteOnEvent(tick=32, channel=9, data=[38, 127]),
   midi.NoteOnEvent(tick=64, channel=9, data=[38, 0]),
   midi.NoteOnEvent(tick=32, channel=9, data=[38, 127]),
   midi.NoteOnEvent(tick=64, channel=9, data=[38, 0]),
   midi.NoteOnEvent(tick=12, channel=9, data=[36, 0]),
   midi.NoteOnEvent(tick=20, channel=9, data=[38, 127]),
   midi.NoteOnEvent(tick=64, channel=9, data=[38, 0]),
   midi.NoteOnEvent(tick=32, channel=9, data=[36, 127]),
   midi.NoteOnEvent(tick=132, channel=9, data=[36, 0]),
   midi.NoteOnEvent(tick=60, channel=9, data=[36, 127]),
   midi.NoteOnEvent(tick=132, channel=9, data=[36, 0]),
   midi.NoteOnEvent(tick=60, channel=9, data=[36, 127]),
   midi.NoteOnEvent(tick=132, channel=9, data=[36, 0]),
   midi.NoteOnEvent(tick=60, channel=9, data=[36, 127]),
   midi.NoteOnEvent(tick=132, channel=9, data=[36, 0]),
   midi.NoteOnEvent(tick=252, channel=9, data=[36, 127]),
   midi.NoteOnEvent(tick=132, channel=9, data=[36, 0]),
   midi.NoteOnEvent(tick=60, channel=9, data=[40, 127]),
   midi.NoteOnEvent(tick=48, channel=9, data=[40, 127]),
   midi.NoteOnEvent(tick=84, channel=9, data=[40, 0]),
   midi.NoteOnEvent(tick=48, channel=9, data=[40, 0]),
   midi.NoteOnEvent(tick=12, channel=9, data=[36, 127]),
   midi.NoteOnEvent(tick=64, channel=9, data=[36, 0]),
   midi.NoteOnEvent(tick=32, channel=9, data=[36, 127]),
   midi.NoteOnEvent(tick=64, channel=9, data=[36, 0]),
   midi.NoteOnEvent(tick=224, channel=9, data=[36, 127]),
   midi.NoteOnEvent(tick=64, channel=9, data=[36, 0]),
   midi.NoteOnEvent(tick=32, channel=9, data=[36, 127]),
   midi.NoteOnEvent(tick=64, channel=9, data=[36, 0]),
   midi.NoteOnEvent(tick=224, channel=9, data=[36, 127]),
   midi.NoteOnEvent(tick=64, channel=9, data=[36, 0]),
   midi.NoteOnEvent(tick=32, channel=9, data=[36, 127]),
   midi.NoteOnEvent(tick=64, channel=9, data=[36, 0]),
   midi.NoteOnEvent(tick=32, channel=9, data=[45, 127]),
   midi.NoteOnEvent(tick=48, channel=9, data=[45, 127]),
   midi.NoteOnEvent(tick=84, channel=9, data=[45, 0]),
   midi.NoteOnEvent(tick=48, channel=9, data=[45, 0]),
   midi.NoteOnEvent(tick=12, channel=9, data=[35, 127]),
   midi.NoteOnEvent(tick=64, channel=9, data=[35, 0]),
   midi.NoteOnEvent(tick=32, channel=9, data=[35, 127]),
   midi.NoteOnEvent(tick=64, channel=9, data=[35, 0]),
   midi.NoteOnEvent(tick=32, channel=9, data=[43, 127]),
   midi.NoteOnEvent(tick=44, channel=9, data=[43, 127]),
   midi.NoteOnEvent(tick=88, channel=9, data=[43, 0]),
   midi.NoteOnEvent(tick=44, channel=9, data=[43, 0]),
   midi.NoteOnEvent(tick=16, channel=9, data=[35, 127]),
   midi.NoteOnEvent(tick=64, channel=9, data=[35, 0]),
   midi.NoteOnEvent(tick=32, channel=9, data=[35, 127]),
   midi.NoteOnEvent(tick=64, channel=9, data=[35, 0]),
   midi.NoteOnEvent(tick=32, channel=9, data=[40, 127]),
   midi.NoteOnEvent(tick=48, channel=9, data=[40, 127]),
   midi.NoteOnEvent(tick=84, channel=9, data=[40, 0]),
   midi.NoteOnEvent(tick=48, channel=9, data=[40, 0]),
   midi.NoteOnEvent(tick=12, channel=9, data=[35, 127]),
   midi.NoteOnEvent(tick=132, channel=9, data=[35, 0]),
   midi.NoteOnEvent(tick=60, channel=9, data=[35, 127]),
   midi.NoteOnEvent(tick=132, channel=9, data=[35, 0]),
   midi.NoteOnEvent(tick=60, channel=9, data=[35, 127]),
   midi.NoteOnEvent(tick=132, channel=9, data=[35, 0]),
   midi.NoteOnEvent(tick=2364, channel=9, data=[35, 127]),
   midi.NoteOnEvent(tick=132, channel=9, data=[35, 0]),
   midi.NoteOnEvent(tick=60, channel=9, data=[35, 127]),
   midi.NoteOnEvent(tick=132, channel=9, data=[35, 0]),
   midi.NoteOnEvent(tick=60, channel=9, data=[38, 127]),
   midi.NoteOnEvent(tick=64, channel=9, data=[38, 0]),
   midi.NoteOnEvent(tick=32, channel=9, data=[38, 127]),
   midi.NoteOnEvent(tick=64, channel=9, data=[38, 0]),
   midi.NoteOnEvent(tick=32, channel=9, data=[35, 127]),
   midi.NoteOnEvent(tick=132, channel=9, data=[35, 0]),
   midi.NoteOnEvent(tick=3132, channel=9, data=[35, 127]),
   midi.NoteOnEvent(tick=132, channel=9, data=[35, 0]),
   midi.NoteOnEvent(tick=2940, channel=9, data=[35, 127]),
   midi.NoteOnEvent(tick=132, channel=9, data=[35, 0]),
   midi.NoteOnEvent(tick=252, channel=9, data=[35, 127]),
   midi.NoteOnEvent(tick=132, channel=9, data=[35, 0]),
   midi.NoteOnEvent(tick=444, channel=9, data=[35, 127]),
   midi.NoteOnEvent(tick=132, channel=9, data=[35, 0]),
   midi.NoteOnEvent(tick=444, channel=9, data=[35, 127]),
   midi.NoteOnEvent(tick=268, channel=9, data=[35, 0]),
   midi.NoteOnEvent(tick=692, channel=9, data=[35, 127]),
   midi.NoteOnEvent(tick=132, channel=9, data=[35, 0]),
   midi.NoteOnEvent(tick=60, channel=9, data=[35, 127]),
   midi.NoteOnEvent(tick=132, channel=9, data=[35, 0]),
   midi.NoteOnEvent(tick=60, channel=9, data=[35, 127]),
   midi.NoteOnEvent(tick=132, channel=9, data=[35, 0]),
   midi.NoteOnEvent(tick=60, channel=9, data=[35, 127]),
   midi.NoteOnEvent(tick=132, channel=9, data=[35, 0]),
   midi.NoteOnEvent(tick=252, channel=9, data=[35, 127]),
   midi.NoteOnEvent(tick=132, channel=9, data=[35, 0]),
   midi.NoteOnEvent(tick=444, channel=9, data=[35, 127]),
   midi.NoteOnEvent(tick=132, channel=9, data=[35, 0]),
   midi.NoteOnEvent(tick=444, channel=9, data=[35, 127]),
   midi.NoteOnEvent(tick=268, channel=9, data=[35, 0]),
   midi.NoteOnEvent(tick=692, channel=9, data=[35, 127]),
   midi.NoteOnEvent(tick=132, channel=9, data=[35, 0]),
   midi.NoteOnEvent(tick=60, channel=9, data=[35, 127]),
   midi.NoteOnEvent(tick=132, channel=9, data=[35, 0]),
   midi.NoteOnEvent(tick=60, channel=9, data=[35, 127]),
   midi.NoteOnEvent(tick=132, channel=9, data=[35, 0]),
   midi.NoteOnEvent(tick=60, channel=9, data=[35, 127]),
   midi.NoteOnEvent(tick=132, channel=9, data=[35, 0]),
   midi.NoteOnEvent(tick=60, channel=9, data=[35, 127]),
   midi.NoteOnEvent(tick=64, channel=9, data=[35, 0]),
   midi.NoteOnEvent(tick=32, channel=9, data=[35, 127]),
   midi.NoteOnEvent(tick=64, channel=9, data=[35, 0]),
   midi.NoteOnEvent(tick=32, channel=9, data=[42, 127]),
   midi.NoteOnEvent(tick=0, channel=9, data=[38, 127]),
   midi.NoteOnEvent(tick=96, channel=9, data=[35, 127]),
   midi.NoteOnEvent(tick=36, channel=9, data=[38, 0]),
   midi.NoteOnEvent(tick=0, channel=9, data=[42, 0]),
   midi.NoteOnEvent(tick=28, channel=9, data=[35, 0]),
   midi.NoteOnEvent(tick=32, channel=9, data=[35, 127]),
   midi.NoteOnEvent(tick=0, channel=9, data=[42, 127]),
   midi.NoteOnEvent(tick=132, channel=9, data=[42, 0]),
   midi.NoteOnEvent(tick=0, channel=9, data=[35, 0]),
   midi.NoteOnEvent(tick=60, channel=9, data=[35, 127]),
   midi.NoteOnEvent(tick=0, channel=9, data=[42, 127]),
   midi.NoteOnEvent(tick=64, channel=9, data=[35, 0]),
   midi.NoteOnEvent(tick=32, channel=9, data=[35, 127]),
   midi.NoteOnEvent(tick=36, channel=9, data=[42, 0]),
   midi.NoteOnEvent(tick=28, channel=9, data=[35, 0]),
   midi.NoteOnEvent(tick=32, channel=9, data=[42, 127]),
   midi.NoteOnEvent(tick=132, channel=9, data=[42, 0]),
   midi.NoteOnEvent(tick=60, channel=9, data=[38, 127]),
   midi.NoteOnEvent(tick=0, channel=9, data=[42, 127]),
   midi.NoteOnEvent(tick=96, channel=9, data=[35, 127]),
   midi.NoteOnEvent(tick=36, channel=9, data=[42, 0]),
   midi.NoteOnEvent(tick=0, channel=9, data=[38, 0]),
   midi.NoteOnEvent(tick=28, channel=9, data=[35, 0]),
   midi.NoteOnEvent(tick=32, channel=9, data=[35, 127]),
   midi.NoteOnEvent(tick=0, channel=9, data=[42, 127]),
   midi.NoteOnEvent(tick=132, channel=9, data=[42, 0]),
   midi.NoteOnEvent(tick=0, channel=9, data=[35, 0]),
   midi.NoteOnEvent(tick=60, channel=9, data=[35, 127]),
   midi.NoteOnEvent(tick=0, channel=9, data=[42, 127]),
   midi.NoteOnEvent(tick=132, channel=9, data=[42, 0]),
   midi.NoteOnEvent(tick=0, channel=9, data=[35, 0]),
   midi.NoteOnEvent(tick=60, channel=9, data=[35, 127]),
   midi.NoteOnEvent(tick=0, channel=9, data=[42, 127]),
   midi.NoteOnEvent(tick=64, channel=9, data=[35, 0]),
   midi.NoteOnEvent(tick=32, channel=9, data=[35, 127]),
   midi.NoteOnEvent(tick=36, channel=9, data=[42, 0]),
   midi.NoteOnEvent(tick=28, channel=9, data=[35, 0]),
   midi.NoteOnEvent(tick=32, channel=9, data=[38, 127]),
   midi.NoteOnEvent(tick=0, channel=9, data=[42, 127]),
   midi.NoteOnEvent(tick=132, channel=9, data=[42, 0]),
   midi.NoteOnEvent(tick=0, channel=9, data=[38, 0]),
   midi.NoteOnEvent(tick=60, channel=9, data=[35, 127]),
   midi.NoteOnEvent(tick=0, channel=9, data=[42, 127]),
   midi.NoteOnEvent(tick=132, channel=9, data=[42, 0]),
   midi.NoteOnEvent(tick=0, channel=9, data=[35, 0]),
   midi.NoteOnEvent(tick=60, channel=9, data=[42, 127]),
   midi.NoteOnEvent(tick=132, channel=9, data=[42, 0]),
   midi.NoteOnEvent(tick=60, channel=9, data=[35, 127]),
   midi.NoteOnEvent(tick=0, channel=9, data=[42, 127]),
   midi.NoteOnEvent(tick=132, channel=9, data=[42, 0]),
   midi.NoteOnEvent(tick=0, channel=9, data=[35, 0]),
   midi.NoteOnEvent(tick=60, channel=9, data=[38, 127]),
   midi.NoteOnEvent(tick=0, channel=9, data=[42, 127]),
   midi.NoteOnEvent(tick=132, channel=9, data=[42, 0]),
   midi.NoteOnEvent(tick=0, channel=9, data=[38, 0]),
   midi.NoteOnEvent(tick=60, channel=9, data=[35, 127]),
   midi.NoteOnEvent(tick=0, channel=9, data=[42, 127]),
   midi.NoteOnEvent(tick=132, channel=9, data=[42, 0]),
   midi.NoteOnEvent(tick=0, channel=9, data=[35, 0]),
   midi.NoteOnEvent(tick=60, channel=9, data=[42, 127]),
   midi.NoteOnEvent(tick=0, channel=9, data=[35, 127]),
   midi.NoteOnEvent(tick=132, channel=9, data=[35, 0]),
   midi.NoteOnEvent(tick=0, channel=9, data=[42, 0]),
   midi.NoteOnEvent(tick=60, channel=9, data=[35, 127]),
   midi.NoteOnEvent(tick=64, channel=9, data=[35, 0]),
   midi.NoteOnEvent(tick=32, channel=9, data=[35, 127]),
   midi.NoteOnEvent(tick=64, channel=9, data=[35, 0]),
   midi.NoteOnEvent(tick=32, channel=9, data=[42, 127]),
   midi.NoteOnEvent(tick=0, channel=9, data=[38, 127]),
   midi.NoteOnEvent(tick=96, channel=9, data=[35, 127]),
   midi.NoteOnEvent(tick=36, channel=9, data=[38, 0]),
   midi.NoteOnEvent(tick=0, channel=9, data=[42, 0]),
   midi.NoteOnEvent(tick=28, channel=9, data=[35, 0]),
   midi.NoteOnEvent(tick=32, channel=9, data=[35, 127]),
   midi.NoteOnEvent(tick=0, channel=9, data=[42, 127]),
   midi.NoteOnEvent(tick=132, channel=9, data=[42, 0]),
   midi.NoteOnEvent(tick=0, channel=9, data=[35, 0]),
   midi.NoteOnEvent(tick=60, channel=9, data=[35, 127]),
   midi.NoteOnEvent(tick=0, channel=9, data=[42, 127]),
   midi.NoteOnEvent(tick=64, channel=9, data=[35, 0]),
   midi.NoteOnEvent(tick=32, channel=9, data=[35, 127]),
   midi.NoteOnEvent(tick=36, channel=9, data=[42, 0]),
   midi.NoteOnEvent(tick=28, channel=9, data=[35, 0]),
   midi.NoteOnEvent(tick=32, channel=9, data=[42, 127]),
   midi.NoteOnEvent(tick=132, channel=9, data=[42, 0]),
   midi.NoteOnEvent(tick=60, channel=9, data=[38, 127]),
   midi.NoteOnEvent(tick=0, channel=9, data=[42, 127]),
   midi.NoteOnEvent(tick=96, channel=9, data=[35, 127]),
   midi.NoteOnEvent(tick=36, channel=9, data=[42, 0]),
   midi.NoteOnEvent(tick=0, channel=9, data=[38, 0]),
   midi.NoteOnEvent(tick=28, channel=9, data=[35, 0]),
   midi.NoteOnEvent(tick=32, channel=9, data=[35, 127]),
   midi.NoteOnEvent(tick=0, channel=9, data=[42, 127]),
   midi.NoteOnEvent(tick=132, channel=9, data=[42, 0]),
   midi.NoteOnEvent(tick=0, channel=9, data=[35, 0]),
   midi.NoteOnEvent(tick=60, channel=9, data=[35, 127]),
   midi.NoteOnEvent(tick=0, channel=9, data=[42, 127]),
   midi.NoteOnEvent(tick=132, channel=9, data=[42, 0]),
   midi.NoteOnEvent(tick=0, channel=9, data=[35, 0]),
   midi.NoteOnEvent(tick=60, channel=9, data=[35, 127]),
   midi.NoteOnEvent(tick=0, channel=9, data=[42, 127]),
   midi.NoteOnEvent(tick=64, channel=9, data=[35, 0]),
   midi.NoteOnEvent(tick=32, channel=9, data=[35, 127]),
   midi.NoteOnEvent(tick=36, channel=9, data=[42, 0]),
   midi.NoteOnEvent(tick=28, channel=9, data=[35, 0]),
   midi.NoteOnEvent(tick=32, channel=9, data=[38, 127]),
   midi.NoteOnEvent(tick=0, channel=9, data=[42, 127]),
   midi.NoteOnEvent(tick=132, channel=9, data=[42, 0]),
   midi.NoteOnEvent(tick=0, channel=9, data=[38, 0]),
   midi.NoteOnEvent(tick=60, channel=9, data=[35, 127]),
   midi.NoteOnEvent(tick=0, channel=9, data=[42, 127]),
   midi.NoteOnEvent(tick=132, channel=9, data=[42, 0]),
   midi.NoteOnEvent(tick=0, channel=9, data=[35, 0]),
   midi.NoteOnEvent(tick=60, channel=9, data=[42, 127]),
   midi.NoteOnEvent(tick=132, channel=9, data=[42, 0]),
   midi.NoteOnEvent(tick=60, channel=9, data=[35, 127]),
   midi.NoteOnEvent(tick=0, channel=9, data=[42, 127]),
   midi.NoteOnEvent(tick=132, channel=9, data=[42, 0]),
   midi.NoteOnEvent(tick=0, channel=9, data=[35, 0]),
   midi.NoteOnEvent(tick=60, channel=9, data=[38, 127]),
   midi.NoteOnEvent(tick=0, channel=9, data=[42, 127]),
   midi.NoteOnEvent(tick=132, channel=9, data=[42, 0]),
   midi.NoteOnEvent(tick=0, channel=9, data=[38, 0]),
   midi.NoteOnEvent(tick=60, channel=9, data=[35, 127]),
   midi.NoteOnEvent(tick=0, channel=9, data=[42, 127]),
   midi.NoteOnEvent(tick=132, channel=9, data=[42, 0]),
   midi.NoteOnEvent(tick=0, channel=9, data=[35, 0]),
   midi.NoteOnEvent(tick=60, channel=9, data=[42, 127]),
   midi.NoteOnEvent(tick=0, channel=9, data=[35, 127]),
   midi.NoteOnEvent(tick=132, channel=9, data=[35, 0]),
   midi.NoteOnEvent(tick=0, channel=9, data=[42, 0]),
   midi.NoteOnEvent(tick=60, channel=9, data=[35, 127]),
   midi.NoteOnEvent(tick=64, channel=9, data=[35, 0]),
   midi.NoteOnEvent(tick=32, channel=9, data=[35, 127]),
   midi.NoteOnEvent(tick=64, channel=9, data=[35, 0]),
   midi.NoteOnEvent(tick=32, channel=9, data=[42, 127]),
   midi.NoteOnEvent(tick=0, channel=9, data=[38, 127]),
   midi.NoteOnEvent(tick=96, channel=9, data=[35, 127]),
   midi.NoteOnEvent(tick=36, channel=9, data=[38, 0]),
   midi.NoteOnEvent(tick=0, channel=9, data=[42, 0]),
   midi.NoteOnEvent(tick=28, channel=9, data=[35, 0]),
   midi.NoteOnEvent(tick=32, channel=9, data=[35, 127]),
   midi.NoteOnEvent(tick=0, channel=9, data=[42, 127]),
   midi.NoteOnEvent(tick=132, channel=9, data=[42, 0]),
   midi.NoteOnEvent(tick=0, channel=9, data=[35, 0]),
   midi.NoteOnEvent(tick=60, channel=9, data=[35, 127]),
   midi.NoteOnEvent(tick=0, channel=9, data=[42, 127]),
   midi.NoteOnEvent(tick=64, channel=9, data=[35, 0]),
   midi.NoteOnEvent(tick=32, channel=9, data=[35, 127]),
   midi.NoteOnEvent(tick=36, channel=9, data=[42, 0]),
   midi.NoteOnEvent(tick=28, channel=9, data=[35, 0]),
   midi.NoteOnEvent(tick=32, channel=9, data=[42, 127]),
   midi.NoteOnEvent(tick=132, channel=9, data=[42, 0]),
   midi.NoteOnEvent(tick=60, channel=9, data=[38, 127]),
   midi.NoteOnEvent(tick=0, channel=9, data=[42, 127]),
   midi.NoteOnEvent(tick=96, channel=9, data=[35, 127]),
   midi.NoteOnEvent(tick=36, channel=9, data=[42, 0]),
   midi.NoteOnEvent(tick=0, channel=9, data=[38, 0]),
   midi.NoteOnEvent(tick=28, channel=9, data=[35, 0]),
   midi.NoteOnEvent(tick=32, channel=9, data=[35, 127]),
   midi.NoteOnEvent(tick=0, channel=9, data=[42, 127]),
   midi.NoteOnEvent(tick=132, channel=9, data=[42, 0]),
   midi.NoteOnEvent(tick=0, channel=9, data=[35, 0]),
   midi.NoteOnEvent(tick=60, channel=9, data=[35, 127]),
   midi.NoteOnEvent(tick=0, channel=9, data=[42, 127]),
   midi.NoteOnEvent(tick=132, channel=9, data=[42, 0]),
   midi.NoteOnEvent(tick=0, channel=9, data=[35, 0]),
   midi.NoteOnEvent(tick=60, channel=9, data=[35, 127]),
   midi.NoteOnEvent(tick=0, channel=9, data=[42, 127]),
   midi.NoteOnEvent(tick=64, channel=9, data=[35, 0]),
   midi.NoteOnEvent(tick=32, channel=9, data=[35, 127]),
   midi.NoteOnEvent(tick=36, channel=9, data=[42, 0]),
   midi.NoteOnEvent(tick=28, channel=9, data=[35, 0]),
   midi.NoteOnEvent(tick=32, channel=9, data=[38, 127]),
   midi.NoteOnEvent(tick=0, channel=9, data=[42, 127]),
   midi.NoteOnEvent(tick=132, channel=9, data=[42, 0]),
   midi.NoteOnEvent(tick=0, channel=9, data=[38, 0]),
   midi.NoteOnEvent(tick=60, channel=9, data=[35, 127]),
   midi.NoteOnEvent(tick=0, channel=9, data=[42, 127]),
   midi.NoteOnEvent(tick=132, channel=9, data=[42, 0]),
   midi.NoteOnEvent(tick=0, channel=9, data=[35, 0]),
   midi.NoteOnEvent(tick=60, channel=9, data=[42, 127]),
   midi.NoteOnEvent(tick=132, channel=9, data=[42, 0]),
   midi.NoteOnEvent(tick=60, channel=9, data=[35, 127]),
   midi.NoteOnEvent(tick=0, channel=9, data=[42, 127]),
   midi.NoteOnEvent(tick=132, channel=9, data=[42, 0]),
   midi.NoteOnEvent(tick=0, channel=9, data=[35, 0]),
   midi.NoteOnEvent(tick=60, channel=9, data=[38, 127]),
   midi.NoteOnEvent(tick=0, channel=9, data=[42, 127]),
   midi.NoteOnEvent(tick=132, channel=9, data=[42, 0]),
   midi.NoteOnEvent(tick=0, channel=9, data=[38, 0]),
   midi.NoteOnEvent(tick=60, channel=9, data=[35, 127]),
   midi.NoteOnEvent(tick=0, channel=9, data=[42, 127]),
   midi.NoteOnEvent(tick=132, channel=9, data=[42, 0]),
   midi.NoteOnEvent(tick=0, channel=9, data=[35, 0]),
   midi.NoteOnEvent(tick=60, channel=9, data=[42, 127]),
   midi.NoteOnEvent(tick=0, channel=9, data=[35, 127]),
   midi.NoteOnEvent(tick=132, channel=9, data=[35, 0]),
   midi.NoteOnEvent(tick=0, channel=9, data=[42, 0]),
   midi.NoteOnEvent(tick=60, channel=9, data=[35, 127]),
   midi.NoteOnEvent(tick=64, channel=9, data=[35, 0]),
   midi.NoteOnEvent(tick=32, channel=9, data=[35, 127]),
   midi.NoteOnEvent(tick=64, channel=9, data=[35, 0]),
   midi.NoteOnEvent(tick=32, channel=9, data=[42, 127]),
   midi.NoteOnEvent(tick=0, channel=9, data=[38, 127]),
   midi.NoteOnEvent(tick=96, channel=9, data=[35, 127]),
   midi.NoteOnEvent(tick=36, channel=9, data=[38, 0]),
   midi.NoteOnEvent(tick=0, channel=9, data=[42, 0]),
   midi.NoteOnEvent(tick=28, channel=9, data=[35, 0]),
   midi.NoteOnEvent(tick=32, channel=9, data=[35, 127]),
   midi.NoteOnEvent(tick=0, channel=9, data=[42, 127]),
   midi.NoteOnEvent(tick=132, channel=9, data=[42, 0]),
   midi.NoteOnEvent(tick=0, channel=9, data=[35, 0]),
   midi.NoteOnEvent(tick=60, channel=9, data=[35, 127]),
   midi.NoteOnEvent(tick=0, channel=9, data=[42, 127]),
   midi.NoteOnEvent(tick=64, channel=9, data=[35, 0]),
   midi.NoteOnEvent(tick=32, channel=9, data=[35, 127]),
   midi.NoteOnEvent(tick=36, channel=9, data=[42, 0]),
   midi.NoteOnEvent(tick=28, channel=9, data=[35, 0]),
   midi.NoteOnEvent(tick=32, channel=9, data=[42, 127]),
   midi.NoteOnEvent(tick=132, channel=9, data=[42, 0]),
   midi.NoteOnEvent(tick=60, channel=9, data=[38, 127]),
   midi.NoteOnEvent(tick=0, channel=9, data=[42, 127]),
   midi.NoteOnEvent(tick=96, channel=9, data=[35, 127]),
   midi.NoteOnEvent(tick=36, channel=9, data=[42, 0]),
   midi.NoteOnEvent(tick=0, channel=9, data=[38, 0]),
   midi.NoteOnEvent(tick=28, channel=9, data=[35, 0]),
   midi.NoteOnEvent(tick=32, channel=9, data=[35, 127]),
   midi.NoteOnEvent(tick=0, channel=9, data=[42, 127]),
   midi.NoteOnEvent(tick=132, channel=9, data=[42, 0]),
   midi.NoteOnEvent(tick=0, channel=9, data=[35, 0]),
   midi.NoteOnEvent(tick=60, channel=9, data=[35, 127]),
   midi.NoteOnEvent(tick=0, channel=9, data=[42, 127]),
   midi.NoteOnEvent(tick=132, channel=9, data=[42, 0]),
   midi.NoteOnEvent(tick=0, channel=9, data=[35, 0]),
   midi.NoteOnEvent(tick=60, channel=9, data=[35, 127]),
   midi.NoteOnEvent(tick=0, channel=9, data=[42, 127]),
   midi.NoteOnEvent(tick=64, channel=9, data=[35, 0]),
   midi.NoteOnEvent(tick=32, channel=9, data=[35, 127]),
   midi.NoteOnEvent(tick=36, channel=9, data=[42, 0]),
   midi.NoteOnEvent(tick=28, channel=9, data=[35, 0]),
   midi.NoteOnEvent(tick=32, channel=9, data=[38, 127]),
   midi.NoteOnEvent(tick=0, channel=9, data=[42, 127]),
   midi.NoteOnEvent(tick=132, channel=9, data=[42, 0]),
   midi.NoteOnEvent(tick=0, channel=9, data=[38, 0]),
   midi.NoteOnEvent(tick=60, channel=9, data=[35, 127]),
   midi.NoteOnEvent(tick=0, channel=9, data=[42, 127]),
   midi.NoteOnEvent(tick=132, channel=9, data=[42, 0]),
   midi.NoteOnEvent(tick=0, channel=9, data=[35, 0]),
   midi.NoteOnEvent(tick=60, channel=9, data=[42, 127]),
   midi.NoteOnEvent(tick=132, channel=9, data=[42, 0]),
   midi.NoteOnEvent(tick=60, channel=9, data=[35, 127]),
   midi.NoteOnEvent(tick=0, channel=9, data=[42, 127]),
   midi.NoteOnEvent(tick=132, channel=9, data=[42, 0]),
   midi.NoteOnEvent(tick=0, channel=9, data=[35, 0]),
   midi.NoteOnEvent(tick=60, channel=9, data=[38, 127]),
   midi.NoteOnEvent(tick=0, channel=9, data=[42, 127]),
   midi.NoteOnEvent(tick=132, channel=9, data=[42, 0]),
   midi.NoteOnEvent(tick=0, channel=9, data=[38, 0]),
   midi.NoteOnEvent(tick=60, channel=9, data=[35, 127]),
   midi.NoteOnEvent(tick=0, channel=9, data=[42, 127]),
   midi.NoteOnEvent(tick=132, channel=9, data=[42, 0]),
   midi.NoteOnEvent(tick=0, channel=9, data=[35, 0]),
   midi.NoteOnEvent(tick=60, channel=9, data=[38, 127]),
   midi.NoteOnEvent(tick=64, channel=9, data=[38, 0]),
   midi.NoteOnEvent(tick=32, channel=9, data=[38, 127]),
   midi.NoteOnEvent(tick=64, channel=9, data=[38, 0]),
   midi.NoteOnEvent(tick=32, channel=9, data=[35, 127]),
   midi.NoteOnEvent(tick=64, channel=9, data=[35, 0]),
   midi.NoteOnEvent(tick=32, channel=9, data=[35, 127]),
   midi.NoteOnEvent(tick=64, channel=9, data=[35, 0]),
   midi.NoteOnEvent(tick=32, channel=9, data=[38, 127]),
   midi.NoteOnEvent(tick=0, channel=9, data=[46, 127]),
   midi.NoteOnEvent(tick=192, channel=9, data=[36, 127]),
   midi.NoteOnEvent(tick=64, channel=9, data=[36, 0]),
   midi.NoteOnEvent(tick=12, channel=9, data=[46, 0]),
   midi.NoteOnEvent(tick=0, channel=9, data=[38, 0]),
   midi.NoteOnEvent(tick=20, channel=9, data=[35, 127]),
   midi.NoteOnEvent(tick=64, channel=9, data=[35, 0]),
   midi.NoteOnEvent(tick=32, channel=9, data=[38, 127]),
   midi.NoteOnEvent(tick=64, channel=9, data=[38, 0]),
   midi.NoteOnEvent(tick=32, channel=9, data=[38, 127]),
   midi.NoteOnEvent(tick=64, channel=9, data=[38, 0]),
   midi.NoteOnEvent(tick=32, channel=9, data=[35, 127]),
   midi.NoteOnEvent(tick=64, channel=9, data=[35, 0]),
   midi.NoteOnEvent(tick=32, channel=9, data=[35, 127]),
   midi.NoteOnEvent(tick=64, channel=9, data=[35, 0]),
   midi.NoteOnEvent(tick=32, channel=9, data=[38, 127]),
   midi.NoteOnEvent(tick=0, channel=9, data=[46, 127]),
   midi.NoteOnEvent(tick=132, channel=9, data=[46, 0]),
   midi.NoteOnEvent(tick=0, channel=9, data=[38, 0]),
   midi.NoteOnEvent(tick=60, channel=9, data=[35, 127]),
   midi.NoteOnEvent(tick=64, channel=9, data=[35, 0]),
   midi.NoteOnEvent(tick=32, channel=9, data=[35, 127]),
   midi.NoteOnEvent(tick=64, channel=9, data=[35, 0]),
   midi.NoteOnEvent(tick=32, channel=9, data=[38, 127]),
   midi.NoteOnEvent(tick=64, channel=9, data=[38, 0]),
   midi.NoteOnEvent(tick=32, channel=9, data=[38, 127]),
   midi.NoteOnEvent(tick=64, channel=9, data=[38, 0]),
   midi.NoteOnEvent(tick=32, channel=9, data=[35, 127]),
   midi.NoteOnEvent(tick=64, channel=9, data=[35, 0]),
   midi.NoteOnEvent(tick=32, channel=9, data=[35, 127]),
   midi.NoteOnEvent(tick=64, channel=9, data=[35, 0]),
   midi.NoteOnEvent(tick=32, channel=9, data=[38, 127]),
   midi.NoteOnEvent(tick=0, channel=9, data=[46, 127]),
   midi.NoteOnEvent(tick=192, channel=9, data=[36, 127]),
   midi.NoteOnEvent(tick=64, channel=9, data=[36, 0]),
   midi.NoteOnEvent(tick=12, channel=9, data=[46, 0]),
   midi.NoteOnEvent(tick=0, channel=9, data=[38, 0]),
   midi.NoteOnEvent(tick=20, channel=9, data=[35, 127]),
   midi.NoteOnEvent(tick=64, channel=9, data=[35, 0]),
   midi.NoteOnEvent(tick=32, channel=9, data=[38, 127]),
   midi.NoteOnEvent(tick=64, channel=9, data=[38, 0]),
   midi.NoteOnEvent(tick=32, channel=9, data=[38, 127]),
   midi.NoteOnEvent(tick=64, channel=9, data=[38, 0]),
   midi.NoteOnEvent(tick=32, channel=9, data=[35, 127]),
   midi.NoteOnEvent(tick=64, channel=9, data=[35, 0]),
   midi.NoteOnEvent(tick=32, channel=9, data=[35, 127]),
   midi.NoteOnEvent(tick=64, channel=9, data=[35, 0]),
   midi.NoteOnEvent(tick=32, channel=9, data=[38, 127]),
   midi.NoteOnEvent(tick=268, channel=9, data=[38, 0]),
   midi.NoteOnEvent(tick=116, channel=9, data=[35, 127]),
   midi.NoteOnEvent(tick=132, channel=9, data=[35, 0]),
   midi.NoteOnEvent(tick=60, channel=9, data=[35, 127]),
   midi.NoteOnEvent(tick=64, channel=9, data=[35, 0]),
   midi.NoteOnEvent(tick=32, channel=9, data=[35, 127]),
   midi.NoteOnEvent(tick=64, channel=9, data=[35, 0]),
   midi.NoteOnEvent(tick=32, channel=9, data=[42, 127]),
   midi.NoteOnEvent(tick=0, channel=9, data=[38, 127]),
   midi.NoteOnEvent(tick=96, channel=9, data=[35, 127]),
   midi.NoteOnEvent(tick=36, channel=9, data=[38, 0]),
   midi.NoteOnEvent(tick=0, channel=9, data=[42, 0]),
   midi.NoteOnEvent(tick=28, channel=9, data=[35, 0]),
   midi.NoteOnEvent(tick=32, channel=9, data=[35, 127]),
   midi.NoteOnEvent(tick=0, channel=9, data=[42, 127]),
   midi.NoteOnEvent(tick=132, channel=9, data=[42, 0]),
   midi.NoteOnEvent(tick=0, channel=9, data=[35, 0]),
   midi.NoteOnEvent(tick=60, channel=9, data=[35, 127]),
   midi.NoteOnEvent(tick=0, channel=9, data=[42, 127]),
   midi.NoteOnEvent(tick=64, channel=9, data=[35, 0]),
   midi.NoteOnEvent(tick=32, channel=9, data=[35, 127]),
   midi.NoteOnEvent(tick=36, channel=9, data=[42, 0]),
   midi.NoteOnEvent(tick=28, channel=9, data=[35, 0]),
   midi.NoteOnEvent(tick=32, channel=9, data=[42, 127]),
   midi.NoteOnEvent(tick=132, channel=9, data=[42, 0]),
   midi.NoteOnEvent(tick=60, channel=9, data=[38, 127]),
   midi.NoteOnEvent(tick=0, channel=9, data=[42, 127]),
   midi.NoteOnEvent(tick=96, channel=9, data=[35, 127]),
   midi.NoteOnEvent(tick=36, channel=9, data=[42, 0]),
   midi.NoteOnEvent(tick=0, channel=9, data=[38, 0]),
   midi.NoteOnEvent(tick=28, channel=9, data=[35, 0]),
   midi.NoteOnEvent(tick=32, channel=9, data=[35, 127]),
   midi.NoteOnEvent(tick=0, channel=9, data=[42, 127]),
   midi.NoteOnEvent(tick=132, channel=9, data=[42, 0]),
   midi.NoteOnEvent(tick=0, channel=9, data=[35, 0]),
   midi.NoteOnEvent(tick=60, channel=9, data=[35, 127]),
   midi.NoteOnEvent(tick=0, channel=9, data=[42, 127]),
   midi.NoteOnEvent(tick=132, channel=9, data=[42, 0]),
   midi.NoteOnEvent(tick=0, channel=9, data=[35, 0]),
   midi.NoteOnEvent(tick=60, channel=9, data=[35, 127]),
   midi.NoteOnEvent(tick=0, channel=9, data=[42, 127]),
   midi.NoteOnEvent(tick=64, channel=9, data=[35, 0]),
   midi.NoteOnEvent(tick=32, channel=9, data=[35, 127]),
   midi.NoteOnEvent(tick=36, channel=9, data=[42, 0]),
   midi.NoteOnEvent(tick=28, channel=9, data=[35, 0]),
   midi.NoteOnEvent(tick=32, channel=9, data=[38, 127]),
   midi.NoteOnEvent(tick=0, channel=9, data=[42, 127]),
   midi.NoteOnEvent(tick=132, channel=9, data=[42, 0]),
   midi.NoteOnEvent(tick=0, channel=9, data=[38, 0]),
   midi.NoteOnEvent(tick=60, channel=9, data=[35, 127]),
   midi.NoteOnEvent(tick=0, channel=9, data=[42, 127]),
   midi.NoteOnEvent(tick=132, channel=9, data=[42, 0]),
   midi.NoteOnEvent(tick=0, channel=9, data=[35, 0]),
   midi.NoteOnEvent(tick=60, channel=9, data=[42, 127]),
   midi.NoteOnEvent(tick=132, channel=9, data=[42, 0]),
   midi.NoteOnEvent(tick=60, channel=9, data=[35, 127]),
   midi.NoteOnEvent(tick=0, channel=9, data=[42, 127]),
   midi.NoteOnEvent(tick=132, channel=9, data=[42, 0]),
   midi.NoteOnEvent(tick=0, channel=9, data=[35, 0]),
   midi.NoteOnEvent(tick=60, channel=9, data=[38, 127]),
   midi.NoteOnEvent(tick=0, channel=9, data=[42, 127]),
   midi.NoteOnEvent(tick=132, channel=9, data=[42, 0]),
   midi.NoteOnEvent(tick=0, channel=9, data=[38, 0]),
   midi.NoteOnEvent(tick=60, channel=9, data=[35, 127]),
   midi.NoteOnEvent(tick=0, channel=9, data=[42, 127]),
   midi.NoteOnEvent(tick=132, channel=9, data=[42, 0]),
   midi.NoteOnEvent(tick=0, channel=9, data=[35, 0]),
   midi.NoteOnEvent(tick=60, channel=9, data=[35, 127]),
   midi.NoteOnEvent(tick=128, channel=9, data=[35, 0]),
   midi.NoteOnEvent(tick=64, channel=9, data=[35, 127]),
   midi.NoteOnEvent(tick=128, channel=9, data=[35, 0]),
   midi.NoteOnEvent(tick=64, channel=9, data=[38, 127]),
   midi.NoteOnEvent(tick=192, channel=9, data=[35, 127]),
   midi.NoteOnEvent(tick=64, channel=9, data=[35, 0]),
   midi.NoteOnEvent(tick=0, channel=9, data=[38, 0]),
   midi.NoteOnEvent(tick=32, channel=9, data=[35, 127]),
   midi.NoteOnEvent(tick=64, channel=9, data=[35, 0]),
   midi.NoteOnEvent(tick=32, channel=9, data=[35, 127]),
   midi.NoteOnEvent(tick=64, channel=9, data=[35, 0]),
   midi.NoteOnEvent(tick=32, channel=9, data=[35, 127]),
   midi.NoteOnEvent(tick=64, channel=9, data=[35, 0]),
   midi.NoteOnEvent(tick=32, channel=9, data=[38, 127]),
   midi.NoteOnEvent(tick=128, channel=9, data=[38, 0]),
   midi.NoteOnEvent(tick=64, channel=9, data=[35, 127]),
   midi.NoteOnEvent(tick=64, channel=9, data=[35, 0]),
   midi.NoteOnEvent(tick=32, channel=9, data=[35, 127]),
   midi.NoteOnEvent(tick=64, channel=9, data=[35, 0]),
   midi.NoteOnEvent(tick=32, channel=9, data=[35, 127]),
   midi.NoteOnEvent(tick=64, channel=9, data=[35, 0]),
   midi.NoteOnEvent(tick=32, channel=9, data=[35, 127]),
   midi.NoteOnEvent(tick=64, channel=9, data=[35, 0]),
   midi.NoteOnEvent(tick=32, channel=9, data=[38, 127]),
   midi.NoteOnEvent(tick=128, channel=9, data=[38, 0]),
   midi.NoteOnEvent(tick=64, channel=9, data=[35, 127]),
   midi.NoteOnEvent(tick=64, channel=9, data=[35, 0]),
   midi.NoteOnEvent(tick=32, channel=9, data=[35, 127]),
   midi.NoteOnEvent(tick=64, channel=9, data=[35, 0]),
   midi.NoteOnEvent(tick=32, channel=9, data=[35, 127]),
   midi.NoteOnEvent(tick=64, channel=9, data=[35, 0]),
   midi.NoteOnEvent(tick=32, channel=9, data=[35, 127]),
   midi.NoteOnEvent(tick=64, channel=9, data=[35, 0]),
   midi.NoteOnEvent(tick=32, channel=9, data=[38, 127]),
   midi.NoteOnEvent(tick=128, channel=9, data=[38, 0]),
   midi.NoteOnEvent(tick=256, channel=9, data=[36, 127]),
   midi.NoteOnEvent(tick=128, channel=9, data=[36, 0]),
   midi.NoteOnEvent(tick=64, channel=9, data=[38, 127]),
   midi.NoteOnEvent(tick=128, channel=9, data=[38, 0]),
   midi.NoteOnEvent(tick=64, channel=9, data=[35, 127]),
   midi.NoteOnEvent(tick=128, channel=9, data=[35, 0]),
   midi.NoteOnEvent(tick=64, channel=9, data=[38, 127]),
   midi.NoteOnEvent(tick=64, channel=9, data=[38, 0]),
   midi.NoteOnEvent(tick=32, channel=9, data=[38, 127]),
   midi.NoteOnEvent(tick=64, channel=9, data=[38, 0]),
   midi.NoteOnEvent(tick=32, channel=9, data=[35, 127]),
   midi.NoteOnEvent(tick=64, channel=9, data=[35, 0]),
   midi.NoteOnEvent(tick=32, channel=9, data=[35, 127]),
   midi.NoteOnEvent(tick=64, channel=9, data=[35, 0]),
   midi.NoteOnEvent(tick=32, channel=9, data=[38, 127]),
   midi.NoteOnEvent(tick=0, channel=9, data=[46, 127]),
   midi.NoteOnEvent(tick=192, channel=9, data=[36, 127]),
   midi.NoteOnEvent(tick=64, channel=9, data=[36, 0]),
   midi.NoteOnEvent(tick=12, channel=9, data=[46, 0]),
   midi.NoteOnEvent(tick=0, channel=9, data=[38, 0]),
   midi.NoteOnEvent(tick=20, channel=9, data=[35, 127]),
   midi.NoteOnEvent(tick=64, channel=9, data=[35, 0]),
   midi.NoteOnEvent(tick=32, channel=9, data=[38, 127]),
   midi.NoteOnEvent(tick=64, channel=9, data=[38, 0]),
   midi.NoteOnEvent(tick=32, channel=9, data=[38, 127]),
   midi.NoteOnEvent(tick=64, channel=9, data=[38, 0]),
   midi.NoteOnEvent(tick=32, channel=9, data=[35, 127]),
   midi.NoteOnEvent(tick=64, channel=9, data=[35, 0]),
   midi.NoteOnEvent(tick=32, channel=9, data=[35, 127]),
   midi.NoteOnEvent(tick=64, channel=9, data=[35, 0]),
   midi.NoteOnEvent(tick=32, channel=9, data=[38, 127]),
   midi.NoteOnEvent(tick=0, channel=9, data=[46, 127]),
   midi.NoteOnEvent(tick=132, channel=9, data=[46, 0]),
   midi.NoteOnEvent(tick=0, channel=9, data=[38, 0]),
   midi.NoteOnEvent(tick=60, channel=9, data=[35, 127]),
   midi.NoteOnEvent(tick=64, channel=9, data=[35, 0]),
   midi.NoteOnEvent(tick=32, channel=9, data=[35, 127]),
   midi.NoteOnEvent(tick=64, channel=9, data=[35, 0]),
   midi.NoteOnEvent(tick=32, channel=9, data=[38, 127]),
   midi.NoteOnEvent(tick=64, channel=9, data=[38, 0]),
   midi.NoteOnEvent(tick=32, channel=9, data=[38, 127]),
   midi.NoteOnEvent(tick=64, channel=9, data=[38, 0]),
   midi.NoteOnEvent(tick=32, channel=9, data=[35, 127]),
   midi.NoteOnEvent(tick=64, channel=9, data=[35, 0]),
   midi.NoteOnEvent(tick=32, channel=9, data=[35, 127]),
   midi.NoteOnEvent(tick=64, channel=9, data=[35, 0]),
   midi.NoteOnEvent(tick=32, channel=9, data=[38, 127]),
   midi.NoteOnEvent(tick=0, channel=9, data=[46, 127]),
   midi.NoteOnEvent(tick=192, channel=9, data=[36, 127]),
   midi.NoteOnEvent(tick=64, channel=9, data=[36, 0]),
   midi.NoteOnEvent(tick=12, channel=9, data=[46, 0]),
   midi.NoteOnEvent(tick=0, channel=9, data=[38, 0]),
   midi.NoteOnEvent(tick=20, channel=9, data=[35, 127]),
   midi.NoteOnEvent(tick=64, channel=9, data=[35, 0]),
   midi.NoteOnEvent(tick=32, channel=9, data=[38, 127]),
   midi.NoteOnEvent(tick=64, channel=9, data=[38, 0]),
   midi.NoteOnEvent(tick=32, channel=9, data=[38, 127]),
   midi.NoteOnEvent(tick=64, channel=9, data=[38, 0]),
   midi.NoteOnEvent(tick=32, channel=9, data=[35, 127]),
   midi.NoteOnEvent(tick=64, channel=9, data=[35, 0]),
   midi.NoteOnEvent(tick=32, channel=9, data=[35, 127]),
   midi.NoteOnEvent(tick=64, channel=9, data=[35, 0]),
   midi.NoteOnEvent(tick=32, channel=9, data=[38, 127]),
   midi.NoteOnEvent(tick=268, channel=9, data=[38, 0]),
   midi.NoteOnEvent(tick=116, channel=9, data=[35, 127]),
   midi.NoteOnEvent(tick=132, channel=9, data=[35, 0]),
   midi.NoteOnEvent(tick=60, channel=9, data=[35, 127]),
   midi.NoteOnEvent(tick=64, channel=9, data=[35, 0]),
   midi.NoteOnEvent(tick=32, channel=9, data=[35, 127]),
   midi.NoteOnEvent(tick=64, channel=9, data=[35, 0]),
   midi.NoteOnEvent(tick=32, channel=9, data=[42, 127]),
   midi.NoteOnEvent(tick=0, channel=9, data=[38, 127]),
   midi.NoteOnEvent(tick=96, channel=9, data=[35, 127]),
   midi.NoteOnEvent(tick=36, channel=9, data=[38, 0]),
   midi.NoteOnEvent(tick=0, channel=9, data=[42, 0]),
   midi.NoteOnEvent(tick=28, channel=9, data=[35, 0]),
   midi.NoteOnEvent(tick=32, channel=9, data=[35, 127]),
   midi.NoteOnEvent(tick=0, channel=9, data=[42, 127]),
   midi.NoteOnEvent(tick=132, channel=9, data=[42, 0]),
   midi.NoteOnEvent(tick=0, channel=9, data=[35, 0]),
   midi.NoteOnEvent(tick=60, channel=9, data=[35, 127]),
   midi.NoteOnEvent(tick=0, channel=9, data=[42, 127]),
   midi.NoteOnEvent(tick=64, channel=9, data=[35, 0]),
   midi.NoteOnEvent(tick=32, channel=9, data=[35, 127]),
   midi.NoteOnEvent(tick=36, channel=9, data=[42, 0]),
   midi.NoteOnEvent(tick=28, channel=9, data=[35, 0]),
   midi.NoteOnEvent(tick=32, channel=9, data=[42, 127]),
   midi.NoteOnEvent(tick=132, channel=9, data=[42, 0]),
   midi.NoteOnEvent(tick=60, channel=9, data=[38, 127]),
   midi.NoteOnEvent(tick=0, channel=9, data=[42, 127]),
   midi.NoteOnEvent(tick=96, channel=9, data=[35, 127]),
   midi.NoteOnEvent(tick=36, channel=9, data=[42, 0]),
   midi.NoteOnEvent(tick=0, channel=9, data=[38, 0]),
   midi.NoteOnEvent(tick=28, channel=9, data=[35, 0]),
   midi.NoteOnEvent(tick=32, channel=9, data=[35, 127]),
   midi.NoteOnEvent(tick=0, channel=9, data=[42, 127]),
   midi.NoteOnEvent(tick=132, channel=9, data=[42, 0]),
   midi.NoteOnEvent(tick=0, channel=9, data=[35, 0]),
   midi.NoteOnEvent(tick=60, channel=9, data=[35, 127]),
   midi.NoteOnEvent(tick=0, channel=9, data=[42, 127]),
   midi.NoteOnEvent(tick=132, channel=9, data=[42, 0]),
   midi.NoteOnEvent(tick=0, channel=9, data=[35, 0]),
   midi.NoteOnEvent(tick=60, channel=9, data=[35, 127]),
   midi.NoteOnEvent(tick=0, channel=9, data=[42, 127]),
   midi.NoteOnEvent(tick=64, channel=9, data=[35, 0]),
   midi.NoteOnEvent(tick=32, channel=9, data=[35, 127]),
   midi.NoteOnEvent(tick=36, channel=9, data=[42, 0]),
   midi.NoteOnEvent(tick=28, channel=9, data=[35, 0]),
   midi.NoteOnEvent(tick=32, channel=9, data=[38, 127]),
   midi.NoteOnEvent(tick=0, channel=9, data=[42, 127]),
   midi.NoteOnEvent(tick=132, channel=9, data=[42, 0]),
   midi.NoteOnEvent(tick=0, channel=9, data=[38, 0]),
   midi.NoteOnEvent(tick=60, channel=9, data=[35, 127]),
   midi.NoteOnEvent(tick=0, channel=9, data=[42, 127]),
   midi.NoteOnEvent(tick=132, channel=9, data=[42, 0]),
   midi.NoteOnEvent(tick=0, channel=9, data=[35, 0]),
   midi.NoteOnEvent(tick=60, channel=9, data=[42, 127]),
   midi.NoteOnEvent(tick=132, channel=9, data=[42, 0]),
   midi.NoteOnEvent(tick=60, channel=9, data=[35, 127]),
   midi.NoteOnEvent(tick=0, channel=9, data=[42, 127]),
   midi.NoteOnEvent(tick=132, channel=9, data=[42, 0]),
   midi.NoteOnEvent(tick=0, channel=9, data=[35, 0]),
   midi.NoteOnEvent(tick=60, channel=9, data=[38, 127]),
   midi.NoteOnEvent(tick=0, channel=9, data=[42, 127]),
   midi.NoteOnEvent(tick=132, channel=9, data=[42, 0]),
   midi.NoteOnEvent(tick=0, channel=9, data=[38, 0]),
   midi.NoteOnEvent(tick=60, channel=9, data=[35, 127]),
   midi.NoteOnEvent(tick=0, channel=9, data=[42, 127]),
   midi.NoteOnEvent(tick=132, channel=9, data=[42, 0]),
   midi.NoteOnEvent(tick=0, channel=9, data=[35, 0]),
   midi.NoteOnEvent(tick=60, channel=9, data=[35, 127]),
   midi.NoteOnEvent(tick=0, channel=9, data=[42, 127]),
   midi.NoteOnEvent(tick=132, channel=9, data=[42, 0]),
   midi.NoteOnEvent(tick=0, channel=9, data=[35, 0]),
   midi.NoteOnEvent(tick=60, channel=9, data=[35, 127]),
   midi.NoteOnEvent(tick=0, channel=9, data=[42, 127]),
   midi.NoteOnEvent(tick=132, channel=9, data=[42, 0]),
   midi.NoteOnEvent(tick=0, channel=9, data=[35, 0]),
   midi.NoteOnEvent(tick=60, channel=9, data=[38, 127]),
   midi.NoteOnEvent(tick=132, channel=9, data=[38, 0]),
   midi.NoteOnEvent(tick=60, channel=9, data=[35, 127]),
   midi.NoteOnEvent(tick=64, channel=9, data=[35, 0]),
   midi.NoteOnEvent(tick=32, channel=9, data=[35, 127]),
   midi.NoteOnEvent(tick=64, channel=9, data=[35, 0]),
   midi.NoteOnEvent(tick=32, channel=9, data=[35, 127]),
   midi.NoteOnEvent(tick=64, channel=9, data=[35, 0]),
   midi.NoteOnEvent(tick=32, channel=9, data=[35, 127]),
   midi.NoteOnEvent(tick=64, channel=9, data=[35, 0]),
   midi.NoteOnEvent(tick=32, channel=9, data=[38, 127]),
   midi.NoteOnEvent(tick=132, channel=9, data=[38, 0]),
   midi.NoteOnEvent(tick=60, channel=9, data=[35, 127]),
   midi.NoteOnEvent(tick=64, channel=9, data=[35, 0]),
   midi.NoteOnEvent(tick=32, channel=9, data=[35, 127]),
   midi.NoteOnEvent(tick=64, channel=9, data=[35, 0]),
   midi.NoteOnEvent(tick=32, channel=9, data=[35, 127]),
   midi.NoteOnEvent(tick=64, channel=9, data=[35, 0]),
   midi.NoteOnEvent(tick=32, channel=9, data=[35, 127]),
   midi.NoteOnEvent(tick=64, channel=9, data=[35, 0]),
   midi.NoteOnEvent(tick=32, channel=9, data=[38, 127]),
   midi.NoteOnEvent(tick=132, channel=9, data=[38, 0]),
   midi.NoteOnEvent(tick=60, channel=9, data=[35, 127]),
   midi.NoteOnEvent(tick=64, channel=9, data=[35, 0]),
   midi.NoteOnEvent(tick=32, channel=9, data=[35, 127]),
   midi.NoteOnEvent(tick=64, channel=9, data=[35, 0]),
   midi.NoteOnEvent(tick=32, channel=9, data=[35, 127]),
   midi.NoteOnEvent(tick=64, channel=9, data=[35, 0]),
   midi.NoteOnEvent(tick=32, channel=9, data=[35, 127]),
   midi.NoteOnEvent(tick=64, channel=9, data=[35, 0]),
   midi.NoteOnEvent(tick=32, channel=9, data=[38, 127]),
   midi.NoteOnEvent(tick=132, channel=9, data=[38, 0]),
   midi.NoteOnEvent(tick=252, channel=9, data=[35, 127]),
   midi.NoteOnEvent(tick=132, channel=9, data=[35, 0]),
   midi.NoteOnEvent(tick=60, channel=9, data=[38, 127]),
   midi.NoteOnEvent(tick=132, channel=9, data=[38, 0]),
   midi.NoteOnEvent(tick=60, channel=9, data=[36, 127]),
   midi.NoteOnEvent(tick=132, channel=9, data=[36, 0]),
   midi.NoteOnEvent(tick=60, channel=9, data=[38, 127]),
   midi.NoteOnEvent(tick=64, channel=9, data=[38, 0]),
   midi.NoteOnEvent(tick=32, channel=9, data=[38, 127]),
   midi.NoteOnEvent(tick=64, channel=9, data=[38, 0]),
   midi.NoteOnEvent(tick=32, channel=9, data=[35, 127]),
   midi.NoteOnEvent(tick=64, channel=9, data=[35, 0]),
   midi.NoteOnEvent(tick=32, channel=9, data=[35, 127]),
   midi.NoteOnEvent(tick=64, channel=9, data=[35, 0]),
   midi.NoteOnEvent(tick=32, channel=9, data=[38, 127]),
   midi.NoteOnEvent(tick=0, channel=9, data=[46, 127]),
   midi.NoteOnEvent(tick=192, channel=9, data=[36, 127]),
   midi.NoteOnEvent(tick=64, channel=9, data=[36, 0]),
   midi.NoteOnEvent(tick=12, channel=9, data=[46, 0]),
   midi.NoteOnEvent(tick=0, channel=9, data=[38, 0]),
   midi.NoteOnEvent(tick=20, channel=9, data=[35, 127]),
   midi.NoteOnEvent(tick=64, channel=9, data=[35, 0]),
   midi.NoteOnEvent(tick=32, channel=9, data=[38, 127]),
   midi.NoteOnEvent(tick=64, channel=9, data=[38, 0]),
   midi.NoteOnEvent(tick=32, channel=9, data=[38, 127]),
   midi.NoteOnEvent(tick=64, channel=9, data=[38, 0]),
   midi.NoteOnEvent(tick=32, channel=9, data=[35, 127]),
   midi.NoteOnEvent(tick=64, channel=9, data=[35, 0]),
   midi.NoteOnEvent(tick=32, channel=9, data=[35, 127]),
   midi.NoteOnEvent(tick=64, channel=9, data=[35, 0]),
   midi.NoteOnEvent(tick=32, channel=9, data=[38, 127]),
   midi.NoteOnEvent(tick=0, channel=9, data=[46, 127]),
   midi.NoteOnEvent(tick=132, channel=9, data=[46, 0]),
   midi.NoteOnEvent(tick=0, channel=9, data=[38, 0]),
   midi.NoteOnEvent(tick=60, channel=9, data=[35, 127]),
   midi.NoteOnEvent(tick=64, channel=9, data=[35, 0]),
   midi.NoteOnEvent(tick=32, channel=9, data=[35, 127]),
   midi.NoteOnEvent(tick=64, channel=9, data=[35, 0]),
   midi.NoteOnEvent(tick=32, channel=9, data=[38, 127]),
   midi.NoteOnEvent(tick=64, channel=9, data=[38, 0]),
   midi.NoteOnEvent(tick=32, channel=9, data=[38, 127]),
   midi.NoteOnEvent(tick=64, channel=9, data=[38, 0]),
   midi.NoteOnEvent(tick=32, channel=9, data=[35, 127]),
   midi.NoteOnEvent(tick=64, channel=9, data=[35, 0]),
   midi.NoteOnEvent(tick=32, channel=9, data=[35, 127]),
   midi.NoteOnEvent(tick=64, channel=9, data=[35, 0]),
   midi.NoteOnEvent(tick=32, channel=9, data=[38, 127]),
   midi.NoteOnEvent(tick=0, channel=9, data=[46, 127]),
   midi.NoteOnEvent(tick=192, channel=9, data=[36, 127]),
   midi.NoteOnEvent(tick=64, channel=9, data=[36, 0]),
   midi.NoteOnEvent(tick=12, channel=9, data=[46, 0]),
   midi.NoteOnEvent(tick=0, channel=9, data=[38, 0]),
   midi.NoteOnEvent(tick=20, channel=9, data=[35, 127]),
   midi.NoteOnEvent(tick=64, channel=9, data=[35, 0]),
   midi.NoteOnEvent(tick=32, channel=9, data=[38, 127]),
   midi.NoteOnEvent(tick=64, channel=9, data=[38, 0]),
   midi.NoteOnEvent(tick=32, channel=9, data=[38, 127]),
   midi.NoteOnEvent(tick=64, channel=9, data=[38, 0]),
   midi.NoteOnEvent(tick=32, channel=9, data=[35, 127]),
   midi.NoteOnEvent(tick=64, channel=9, data=[35, 0]),
   midi.NoteOnEvent(tick=32, channel=9, data=[35, 127]),
   midi.NoteOnEvent(tick=64, channel=9, data=[35, 0]),
   midi.NoteOnEvent(tick=32, channel=9, data=[38, 127]),
   midi.NoteOnEvent(tick=268, channel=9, data=[38, 0]),
   midi.NoteOnEvent(tick=116, channel=9, data=[35, 127]),
   midi.NoteOnEvent(tick=132, channel=9, data=[35, 0]),
   midi.NoteOnEvent(tick=60, channel=9, data=[35, 127]),
   midi.NoteOnEvent(tick=64, channel=9, data=[35, 0]),
   midi.NoteOnEvent(tick=32, channel=9, data=[35, 127]),
   midi.NoteOnEvent(tick=64, channel=9, data=[35, 0]),
   midi.NoteOnEvent(tick=32, channel=9, data=[42, 127]),
   midi.NoteOnEvent(tick=0, channel=9, data=[38, 127]),
   midi.NoteOnEvent(tick=96, channel=9, data=[35, 127]),
   midi.NoteOnEvent(tick=36, channel=9, data=[38, 0]),
   midi.NoteOnEvent(tick=0, channel=9, data=[42, 0]),
   midi.NoteOnEvent(tick=28, channel=9, data=[35, 0]),
   midi.NoteOnEvent(tick=32, channel=9, data=[35, 127]),
   midi.NoteOnEvent(tick=0, channel=9, data=[42, 127]),
   midi.NoteOnEvent(tick=132, channel=9, data=[42, 0]),
   midi.NoteOnEvent(tick=0, channel=9, data=[35, 0]),
   midi.NoteOnEvent(tick=60, channel=9, data=[35, 127]),
   midi.NoteOnEvent(tick=0, channel=9, data=[42, 127]),
   midi.NoteOnEvent(tick=64, channel=9, data=[35, 0]),
   midi.NoteOnEvent(tick=32, channel=9, data=[35, 127]),
   midi.NoteOnEvent(tick=36, channel=9, data=[42, 0]),
   midi.NoteOnEvent(tick=28, channel=9, data=[35, 0]),
   midi.NoteOnEvent(tick=32, channel=9, data=[42, 127]),
   midi.NoteOnEvent(tick=132, channel=9, data=[42, 0]),
   midi.NoteOnEvent(tick=60, channel=9, data=[38, 127]),
   midi.NoteOnEvent(tick=0, channel=9, data=[42, 127]),
   midi.NoteOnEvent(tick=96, channel=9, data=[35, 127]),
   midi.NoteOnEvent(tick=36, channel=9, data=[42, 0]),
   midi.NoteOnEvent(tick=0, channel=9, data=[38, 0]),
   midi.NoteOnEvent(tick=28, channel=9, data=[35, 0]),
   midi.NoteOnEvent(tick=32, channel=9, data=[35, 127]),
   midi.NoteOnEvent(tick=0, channel=9, data=[42, 127]),
   midi.NoteOnEvent(tick=132, channel=9, data=[42, 0]),
   midi.NoteOnEvent(tick=0, channel=9, data=[35, 0]),
   midi.NoteOnEvent(tick=60, channel=9, data=[35, 127]),
   midi.NoteOnEvent(tick=0, channel=9, data=[42, 127]),
   midi.NoteOnEvent(tick=132, channel=9, data=[42, 0]),
   midi.NoteOnEvent(tick=0, channel=9, data=[35, 0]),
   midi.NoteOnEvent(tick=60, channel=9, data=[35, 127]),
   midi.NoteOnEvent(tick=0, channel=9, data=[42, 127]),
   midi.NoteOnEvent(tick=64, channel=9, data=[35, 0]),
   midi.NoteOnEvent(tick=32, channel=9, data=[35, 127]),
   midi.NoteOnEvent(tick=36, channel=9, data=[42, 0]),
   midi.NoteOnEvent(tick=28, channel=9, data=[35, 0]),
   midi.NoteOnEvent(tick=32, channel=9, data=[38, 127]),
   midi.NoteOnEvent(tick=0, channel=9, data=[42, 127]),
   midi.NoteOnEvent(tick=132, channel=9, data=[42, 0]),
   midi.NoteOnEvent(tick=0, channel=9, data=[38, 0]),
   midi.NoteOnEvent(tick=60, channel=9, data=[35, 127]),
   midi.NoteOnEvent(tick=0, channel=9, data=[42, 127]),
   midi.NoteOnEvent(tick=132, channel=9, data=[42, 0]),
   midi.NoteOnEvent(tick=0, channel=9, data=[35, 0]),
   midi.NoteOnEvent(tick=60, channel=9, data=[42, 127]),
   midi.NoteOnEvent(tick=132, channel=9, data=[42, 0]),
   midi.NoteOnEvent(tick=60, channel=9, data=[35, 127]),
   midi.NoteOnEvent(tick=0, channel=9, data=[42, 127]),
   midi.NoteOnEvent(tick=132, channel=9, data=[42, 0]),
   midi.NoteOnEvent(tick=0, channel=9, data=[35, 0]),
   midi.NoteOnEvent(tick=60, channel=9, data=[38, 127]),
   midi.NoteOnEvent(tick=0, channel=9, data=[42, 127]),
   midi.NoteOnEvent(tick=132, channel=9, data=[42, 0]),
   midi.NoteOnEvent(tick=0, channel=9, data=[38, 0]),
   midi.NoteOnEvent(tick=60, channel=9, data=[35, 127]),
   midi.NoteOnEvent(tick=0, channel=9, data=[42, 127]),
   midi.NoteOnEvent(tick=132, channel=9, data=[42, 0]),
   midi.NoteOnEvent(tick=0, channel=9, data=[35, 0]),
   midi.NoteOnEvent(tick=60, channel=9, data=[35, 127]),
   midi.NoteOnEvent(tick=0, channel=9, data=[42, 127]),
   midi.NoteOnEvent(tick=132, channel=9, data=[42, 0]),
   midi.NoteOnEvent(tick=0, channel=9, data=[35, 0]),
   midi.NoteOnEvent(tick=60, channel=9, data=[35, 127]),
   midi.NoteOnEvent(tick=0, channel=9, data=[42, 127]),
   midi.NoteOnEvent(tick=132, channel=9, data=[42, 0]),
   midi.NoteOnEvent(tick=0, channel=9, data=[35, 0]),
   midi.NoteOnEvent(tick=60, channel=9, data=[38, 127]),
   midi.NoteOnEvent(tick=132, channel=9, data=[38, 0]),
   midi.NoteOnEvent(tick=60, channel=9, data=[35, 127]),
   midi.NoteOnEvent(tick=64, channel=9, data=[35, 0]),
   midi.NoteOnEvent(tick=32, channel=9, data=[35, 127]),
   midi.NoteOnEvent(tick=64, channel=9, data=[35, 0]),
   midi.NoteOnEvent(tick=32, channel=9, data=[35, 127]),
   midi.NoteOnEvent(tick=64, channel=9, data=[35, 0]),
   midi.NoteOnEvent(tick=32, channel=9, data=[35, 127]),
   midi.NoteOnEvent(tick=64, channel=9, data=[35, 0]),
   midi.NoteOnEvent(tick=32, channel=9, data=[38, 127]),
   midi.NoteOnEvent(tick=132, channel=9, data=[38, 0]),
   midi.NoteOnEvent(tick=60, channel=9, data=[35, 127]),
   midi.NoteOnEvent(tick=64, channel=9, data=[35, 0]),
   midi.NoteOnEvent(tick=32, channel=9, data=[35, 127]),
   midi.NoteOnEvent(tick=64, channel=9, data=[35, 0]),
   midi.NoteOnEvent(tick=32, channel=9, data=[35, 127]),
   midi.NoteOnEvent(tick=64, channel=9, data=[35, 0]),
   midi.NoteOnEvent(tick=32, channel=9, data=[35, 127]),
   midi.NoteOnEvent(tick=64, channel=9, data=[35, 0]),
   midi.NoteOnEvent(tick=32, channel=9, data=[38, 127]),
   midi.NoteOnEvent(tick=132, channel=9, data=[38, 0]),
   midi.NoteOnEvent(tick=60, channel=9, data=[35, 127]),
   midi.NoteOnEvent(tick=64, channel=9, data=[35, 0]),
   midi.NoteOnEvent(tick=32, channel=9, data=[35, 127]),
   midi.NoteOnEvent(tick=64, channel=9, data=[35, 0]),
   midi.NoteOnEvent(tick=32, channel=9, data=[35, 127]),
   midi.NoteOnEvent(tick=64, channel=9, data=[35, 0]),
   midi.NoteOnEvent(tick=32, channel=9, data=[35, 127]),
   midi.NoteOnEvent(tick=64, channel=9, data=[35, 0]),
   midi.NoteOnEvent(tick=32, channel=9, data=[38, 127]),
   midi.NoteOnEvent(tick=132, channel=9, data=[38, 0]),
   midi.NoteOnEvent(tick=252, channel=9, data=[35, 127]),
   midi.NoteOnEvent(tick=132, channel=9, data=[35, 0]),
   midi.NoteOnEvent(tick=60, channel=9, data=[38, 127]),
   midi.NoteOnEvent(tick=132, channel=9, data=[38, 0]),
   midi.NoteOnEvent(tick=60, channel=9, data=[36, 127]),
   midi.NoteOnEvent(tick=132, channel=9, data=[36, 0]),
   midi.NoteOnEvent(tick=60, channel=9, data=[38, 127]),
   midi.NoteOnEvent(tick=64, channel=9, data=[38, 0]),
   midi.NoteOnEvent(tick=32, channel=9, data=[38, 127]),
   midi.NoteOnEvent(tick=64, channel=9, data=[38, 0]),
   midi.NoteOnEvent(tick=32, channel=9, data=[35, 127]),
   midi.NoteOnEvent(tick=64, channel=9, data=[35, 0]),
   midi.NoteOnEvent(tick=32, channel=9, data=[35, 127]),
   midi.NoteOnEvent(tick=64, channel=9, data=[35, 0]),
   midi.NoteOnEvent(tick=32, channel=9, data=[38, 127]),
   midi.NoteOnEvent(tick=0, channel=9, data=[46, 127]),
   midi.NoteOnEvent(tick=192, channel=9, data=[36, 127]),
   midi.NoteOnEvent(tick=64, channel=9, data=[36, 0]),
   midi.NoteOnEvent(tick=12, channel=9, data=[46, 0]),
   midi.NoteOnEvent(tick=0, channel=9, data=[38, 0]),
   midi.NoteOnEvent(tick=20, channel=9, data=[35, 127]),
   midi.NoteOnEvent(tick=64, channel=9, data=[35, 0]),
   midi.NoteOnEvent(tick=32, channel=9, data=[38, 127]),
   midi.NoteOnEvent(tick=64, channel=9, data=[38, 0]),
   midi.NoteOnEvent(tick=32, channel=9, data=[38, 127]),
   midi.NoteOnEvent(tick=64, channel=9, data=[38, 0]),
   midi.NoteOnEvent(tick=32, channel=9, data=[35, 127]),
   midi.NoteOnEvent(tick=64, channel=9, data=[35, 0]),
   midi.NoteOnEvent(tick=32, channel=9, data=[35, 127]),
   midi.NoteOnEvent(tick=64, channel=9, data=[35, 0]),
   midi.NoteOnEvent(tick=32, channel=9, data=[38, 127]),
   midi.NoteOnEvent(tick=0, channel=9, data=[46, 127]),
   midi.NoteOnEvent(tick=132, channel=9, data=[46, 0]),
   midi.NoteOnEvent(tick=0, channel=9, data=[38, 0]),
   midi.NoteOnEvent(tick=60, channel=9, data=[35, 127]),
   midi.NoteOnEvent(tick=64, channel=9, data=[35, 0]),
   midi.NoteOnEvent(tick=32, channel=9, data=[35, 127]),
   midi.NoteOnEvent(tick=64, channel=9, data=[35, 0]),
   midi.NoteOnEvent(tick=32, channel=9, data=[38, 127]),
   midi.NoteOnEvent(tick=64, channel=9, data=[38, 0]),
   midi.NoteOnEvent(tick=32, channel=9, data=[38, 127]),
   midi.NoteOnEvent(tick=64, channel=9, data=[38, 0]),
   midi.NoteOnEvent(tick=32, channel=9, data=[35, 127]),
   midi.NoteOnEvent(tick=64, channel=9, data=[35, 0]),
   midi.NoteOnEvent(tick=32, channel=9, data=[35, 127]),
   midi.NoteOnEvent(tick=64, channel=9, data=[35, 0]),
   midi.NoteOnEvent(tick=32, channel=9, data=[38, 127]),
   midi.NoteOnEvent(tick=0, channel=9, data=[46, 127]),
   midi.NoteOnEvent(tick=192, channel=9, data=[36, 127]),
   midi.NoteOnEvent(tick=64, channel=9, data=[36, 0]),
   midi.NoteOnEvent(tick=12, channel=9, data=[46, 0]),
   midi.NoteOnEvent(tick=0, channel=9, data=[38, 0]),
   midi.NoteOnEvent(tick=20, channel=9, data=[35, 127]),
   midi.NoteOnEvent(tick=64, channel=9, data=[35, 0]),
   midi.NoteOnEvent(tick=32, channel=9, data=[38, 127]),
   midi.NoteOnEvent(tick=64, channel=9, data=[38, 0]),
   midi.NoteOnEvent(tick=32, channel=9, data=[38, 127]),
   midi.NoteOnEvent(tick=64, channel=9, data=[38, 0]),
   midi.NoteOnEvent(tick=32, channel=9, data=[35, 127]),
   midi.NoteOnEvent(tick=64, channel=9, data=[35, 0]),
   midi.NoteOnEvent(tick=32, channel=9, data=[35, 127]),
   midi.NoteOnEvent(tick=64, channel=9, data=[35, 0]),
   midi.NoteOnEvent(tick=32, channel=9, data=[38, 127]),
   midi.NoteOnEvent(tick=132, channel=9, data=[38, 0]),
   midi.NoteOnEvent(tick=60, channel=9, data=[35, 127]),
   midi.NoteOnEvent(tick=64, channel=9, data=[35, 0]),
   midi.NoteOnEvent(tick=32, channel=9, data=[35, 127]),
   midi.NoteOnEvent(tick=64, channel=9, data=[35, 0]),
   midi.NoteOnEvent(tick=32, channel=9, data=[38, 127]),
   midi.NoteOnEvent(tick=64, channel=9, data=[38, 0]),
   midi.NoteOnEvent(tick=32, channel=9, data=[38, 127]),
   midi.NoteOnEvent(tick=64, channel=9, data=[38, 0]),
   midi.NoteOnEvent(tick=32, channel=9, data=[35, 127]),
   midi.NoteOnEvent(tick=64, channel=9, data=[35, 0]),
   midi.NoteOnEvent(tick=32, channel=9, data=[35, 127]),
   midi.NoteOnEvent(tick=64, channel=9, data=[35, 0]),
   midi.NoteOnEvent(tick=32, channel=9, data=[38, 127]),
   midi.NoteOnEvent(tick=0, channel=9, data=[46, 127]),
   midi.NoteOnEvent(tick=192, channel=9, data=[36, 127]),
   midi.NoteOnEvent(tick=64, channel=9, data=[36, 0]),
   midi.NoteOnEvent(tick=12, channel=9, data=[46, 0]),
   midi.NoteOnEvent(tick=0, channel=9, data=[38, 0]),
   midi.NoteOnEvent(tick=20, channel=9, data=[35, 127]),
   midi.NoteOnEvent(tick=64, channel=9, data=[35, 0]),
   midi.NoteOnEvent(tick=32, channel=9, data=[38, 127]),
   midi.NoteOnEvent(tick=64, channel=9, data=[38, 0]),
   midi.NoteOnEvent(tick=32, channel=9, data=[38, 127]),
   midi.NoteOnEvent(tick=64, channel=9, data=[38, 0]),
   midi.NoteOnEvent(tick=32, channel=9, data=[35, 127]),
   midi.NoteOnEvent(tick=64, channel=9, data=[35, 0]),
   midi.NoteOnEvent(tick=32, channel=9, data=[35, 127]),
   midi.NoteOnEvent(tick=64, channel=9, data=[35, 0]),
   midi.NoteOnEvent(tick=32, channel=9, data=[46, 127]),
   midi.NoteOnEvent(tick=0, channel=9, data=[38, 127]),
   midi.NoteOnEvent(tick=132, channel=9, data=[38, 0]),
   midi.NoteOnEvent(tick=0, channel=9, data=[46, 0]),
   midi.NoteOnEvent(tick=60, channel=9, data=[35, 127]),
   midi.NoteOnEvent(tick=64, channel=9, data=[35, 0]),
   midi.NoteOnEvent(tick=32, channel=9, data=[35, 127]),
   midi.NoteOnEvent(tick=64, channel=9, data=[35, 0]),
   midi.NoteOnEvent(tick=32, channel=9, data=[38, 127]),
   midi.NoteOnEvent(tick=64, channel=9, data=[38, 0]),
   midi.NoteOnEvent(tick=32, channel=9, data=[38, 127]),
   midi.NoteOnEvent(tick=64, channel=9, data=[38, 0]),
   midi.NoteOnEvent(tick=32, channel=9, data=[35, 127]),
   midi.NoteOnEvent(tick=64, channel=9, data=[35, 0]),
   midi.NoteOnEvent(tick=32, channel=9, data=[35, 127]),
   midi.NoteOnEvent(tick=64, channel=9, data=[35, 0]),
   midi.NoteOnEvent(tick=32, channel=9, data=[38, 127]),
   midi.NoteOnEvent(tick=0, channel=9, data=[46, 127]),
   midi.NoteOnEvent(tick=192, channel=9, data=[36, 127]),
   midi.NoteOnEvent(tick=64, channel=9, data=[36, 0]),
   midi.NoteOnEvent(tick=12, channel=9, data=[46, 0]),
   midi.NoteOnEvent(tick=0, channel=9, data=[38, 0]),
   midi.NoteOnEvent(tick=20, channel=9, data=[35, 127]),
   midi.NoteOnEvent(tick=64, channel=9, data=[35, 0]),
   midi.NoteOnEvent(tick=32, channel=9, data=[38, 127]),
   midi.NoteOnEvent(tick=64, channel=9, data=[38, 0]),
   midi.NoteOnEvent(tick=32, channel=9, data=[38, 127]),
   midi.NoteOnEvent(tick=64, channel=9, data=[38, 0]),
   midi.NoteOnEvent(tick=32, channel=9, data=[35, 127]),
   midi.NoteOnEvent(tick=64, channel=9, data=[35, 0]),
   midi.NoteOnEvent(tick=32, channel=9, data=[35, 127]),
   midi.NoteOnEvent(tick=64, channel=9, data=[35, 0]),
   midi.NoteOnEvent(tick=32, channel=9, data=[38, 127]),
   midi.NoteOnEvent(tick=0, channel=9, data=[46, 127]),
   midi.NoteOnEvent(tick=132, channel=9, data=[46, 0]),
   midi.NoteOnEvent(tick=0, channel=9, data=[38, 0]),
   midi.NoteOnEvent(tick=60, channel=9, data=[35, 127]),
   midi.NoteOnEvent(tick=64, channel=9, data=[35, 0]),
   midi.NoteOnEvent(tick=32, channel=9, data=[35, 127]),
   midi.NoteOnEvent(tick=64, channel=9, data=[35, 0]),
   midi.NoteOnEvent(tick=32, channel=9, data=[35, 127]),
   midi.NoteOnEvent(tick=268, channel=9, data=[35, 0]),
   midi.EndOfTrackEvent(tick=0, data=[])]),
 midi.Track(\
  [midi.PortEvent(tick=0, data=[0]),
   midi.TrackNameEvent(tick=0, text='x-tra Drums', data=[120, 45, 116, 114, 97, 32, 68, 114, 117, 109, 115]),
   midi.ControlChangeEvent(tick=0, channel=9, data=[7, 127]),
   midi.ControlChangeEvent(tick=0, channel=9, data=[24, 0]),
   midi.NoteOnEvent(tick=2688, channel=9, data=[57, 100]),
   midi.NoteOnEvent(tick=256, channel=9, data=[57, 0]),
   midi.NoteOnEvent(tick=2816, channel=9, data=[57, 100]),
   midi.NoteOnEvent(tick=256, channel=9, data=[57, 0]),
   midi.NoteOnEvent(tick=128, channel=9, data=[57, 100]),
   midi.NoteOnEvent(tick=128, channel=9, data=[57, 0]),
   midi.NoteOnEvent(tick=36736, channel=9, data=[57, 100]),
   midi.NoteOnEvent(tick=128, channel=9, data=[57, 0]),
   midi.NoteOnEvent(tick=64, channel=9, data=[59, 100]),
   midi.NoteOnEvent(tick=128, channel=9, data=[59, 0]),
   midi.NoteOnEvent(tick=64, channel=9, data=[59, 100]),
   midi.NoteOnEvent(tick=128, channel=9, data=[59, 0]),
   midi.NoteOnEvent(tick=64, channel=9, data=[59, 100]),
   midi.NoteOnEvent(tick=128, channel=9, data=[59, 0]),
   midi.NoteOnEvent(tick=64, channel=9, data=[59, 100]),
   midi.NoteOnEvent(tick=128, channel=9, data=[59, 0]),
   midi.NoteOnEvent(tick=64, channel=9, data=[59, 100]),
   midi.NoteOnEvent(tick=128, channel=9, data=[59, 0]),
   midi.NoteOnEvent(tick=64, channel=9, data=[59, 100]),
   midi.NoteOnEvent(tick=128, channel=9, data=[59, 0]),
   midi.NoteOnEvent(tick=64, channel=9, data=[59, 100]),
   midi.NoteOnEvent(tick=128, channel=9, data=[59, 0]),
   midi.NoteOnEvent(tick=64, channel=9, data=[59, 100]),
   midi.NoteOnEvent(tick=128, channel=9, data=[59, 0]),
   midi.NoteOnEvent(tick=64, channel=9, data=[59, 100]),
   midi.NoteOnEvent(tick=64, channel=9, data=[59, 0]),
   midi.NoteOnEvent(tick=32, channel=9, data=[59, 100]),
   midi.NoteOnEvent(tick=64, channel=9, data=[59, 0]),
   midi.NoteOnEvent(tick=32, channel=9, data=[59, 100]),
   midi.NoteOnEvent(tick=128, channel=9, data=[59, 0]),
   midi.NoteOnEvent(tick=64, channel=9, data=[59, 100]),
   midi.NoteOnEvent(tick=128, channel=9, data=[59, 0]),
   midi.NoteOnEvent(tick=64, channel=9, data=[59, 100]),
   midi.NoteOnEvent(tick=128, channel=9, data=[59, 0]),
   midi.NoteOnEvent(tick=64, channel=9, data=[59, 100]),
   midi.NoteOnEvent(tick=128, channel=9, data=[59, 0]),
   midi.NoteOnEvent(tick=64, channel=9, data=[59, 100]),
   midi.NoteOnEvent(tick=128, channel=9, data=[59, 0]),
   midi.NoteOnEvent(tick=64, channel=9, data=[59, 100]),
   midi.NoteOnEvent(tick=128, channel=9, data=[59, 0]),
   midi.NoteOnEvent(tick=64, channel=9, data=[57, 100]),
   midi.NoteOnEvent(tick=128, channel=9, data=[57, 0]),
   midi.NoteOnEvent(tick=64, channel=9, data=[59, 100]),
   midi.NoteOnEvent(tick=128, channel=9, data=[59, 0]),
   midi.NoteOnEvent(tick=64, channel=9, data=[59, 100]),
   midi.NoteOnEvent(tick=128, channel=9, data=[59, 0]),
   midi.NoteOnEvent(tick=64, channel=9, data=[57, 100]),
   midi.NoteOnEvent(tick=128, channel=9, data=[57, 0]),
   midi.NoteOnEvent(tick=64, channel=9, data=[59, 100]),
   midi.NoteOnEvent(tick=128, channel=9, data=[59, 0]),
   midi.NoteOnEvent(tick=64, channel=9, data=[59, 100]),
   midi.NoteOnEvent(tick=128, channel=9, data=[59, 0]),
   midi.NoteOnEvent(tick=64, channel=9, data=[59, 100]),
   midi.NoteOnEvent(tick=128, channel=9, data=[59, 0]),
   midi.NoteOnEvent(tick=64, channel=9, data=[59, 100]),
   midi.NoteOnEvent(tick=128, channel=9, data=[59, 0]),
   midi.NoteOnEvent(tick=64, channel=9, data=[59, 100]),
   midi.NoteOnEvent(tick=128, channel=9, data=[59, 0]),
   midi.NoteOnEvent(tick=64, channel=9, data=[59, 100]),
   midi.NoteOnEvent(tick=64, channel=9, data=[59, 0]),
   midi.NoteOnEvent(tick=32, channel=9, data=[59, 100]),
   midi.NoteOnEvent(tick=64, channel=9, data=[59, 0]),
   midi.NoteOnEvent(tick=32, channel=9, data=[59, 100]),
   midi.NoteOnEvent(tick=128, channel=9, data=[59, 0]),
   midi.NoteOnEvent(tick=64, channel=9, data=[59, 100]),
   midi.NoteOnEvent(tick=128, channel=9, data=[59, 0]),
   midi.NoteOnEvent(tick=64, channel=9, data=[59, 100]),
   midi.NoteOnEvent(tick=128, channel=9, data=[59, 0]),
   midi.NoteOnEvent(tick=64, channel=9, data=[59, 100]),
   midi.NoteOnEvent(tick=128, channel=9, data=[59, 0]),
   midi.NoteOnEvent(tick=64, channel=9, data=[59, 100]),
   midi.NoteOnEvent(tick=128, channel=9, data=[59, 0]),
   midi.NoteOnEvent(tick=64, channel=9, data=[59, 100]),
   midi.NoteOnEvent(tick=128, channel=9, data=[59, 0]),
   midi.NoteOnEvent(tick=64, channel=9, data=[57, 100]),
   midi.NoteOnEvent(tick=128, channel=9, data=[57, 0]),
   midi.NoteOnEvent(tick=64, channel=9, data=[59, 100]),
   midi.NoteOnEvent(tick=128, channel=9, data=[59, 0]),
   midi.NoteOnEvent(tick=64, channel=9, data=[59, 100]),
   midi.NoteOnEvent(tick=128, channel=9, data=[59, 0]),
   midi.NoteOnEvent(tick=64, channel=9, data=[57, 100]),
   midi.NoteOnEvent(tick=128, channel=9, data=[57, 0]),
   midi.NoteOnEvent(tick=64, channel=9, data=[59, 100]),
   midi.NoteOnEvent(tick=128, channel=9, data=[59, 0]),
   midi.NoteOnEvent(tick=64, channel=9, data=[59, 100]),
   midi.NoteOnEvent(tick=128, channel=9, data=[59, 0]),
   midi.NoteOnEvent(tick=64, channel=9, data=[59, 100]),
   midi.NoteOnEvent(tick=128, channel=9, data=[59, 0]),
   midi.NoteOnEvent(tick=64, channel=9, data=[59, 100]),
   midi.NoteOnEvent(tick=128, channel=9, data=[59, 0]),
   midi.NoteOnEvent(tick=64, channel=9, data=[59, 100]),
   midi.NoteOnEvent(tick=128, channel=9, data=[59, 0]),
   midi.NoteOnEvent(tick=64, channel=9, data=[59, 100]),
   midi.NoteOnEvent(tick=64, channel=9, data=[59, 0]),
   midi.NoteOnEvent(tick=32, channel=9, data=[59, 100]),
   midi.NoteOnEvent(tick=64, channel=9, data=[59, 0]),
   midi.NoteOnEvent(tick=32, channel=9, data=[59, 100]),
   midi.NoteOnEvent(tick=128, channel=9, data=[59, 0]),
   midi.NoteOnEvent(tick=64, channel=9, data=[59, 100]),
   midi.NoteOnEvent(tick=128, channel=9, data=[59, 0]),
   midi.NoteOnEvent(tick=64, channel=9, data=[59, 100]),
   midi.NoteOnEvent(tick=128, channel=9, data=[59, 0]),
   midi.NoteOnEvent(tick=64, channel=9, data=[59, 100]),
   midi.NoteOnEvent(tick=128, channel=9, data=[59, 0]),
   midi.NoteOnEvent(tick=64, channel=9, data=[59, 100]),
   midi.NoteOnEvent(tick=128, channel=9, data=[59, 0]),
   midi.NoteOnEvent(tick=64, channel=9, data=[59, 100]),
   midi.NoteOnEvent(tick=128, channel=9, data=[59, 0]),
   midi.NoteOnEvent(tick=64, channel=9, data=[57, 100]),
   midi.NoteOnEvent(tick=128, channel=9, data=[57, 0]),
   midi.NoteOnEvent(tick=64, channel=9, data=[57, 100]),
   midi.NoteOnEvent(tick=128, channel=9, data=[57, 0]),
   midi.NoteOnEvent(tick=256, channel=9, data=[57, 100]),
   midi.NoteOnEvent(tick=128, channel=9, data=[57, 0]),
   midi.NoteOnEvent(tick=64, channel=9, data=[57, 100]),
   midi.NoteOnEvent(tick=128, channel=9, data=[57, 0]),
   midi.NoteOnEvent(tick=256, channel=9, data=[57, 100]),
   midi.NoteOnEvent(tick=128, channel=9, data=[57, 0]),
   midi.NoteOnEvent(tick=64, channel=9, data=[57, 100]),
   midi.NoteOnEvent(tick=128, channel=9, data=[57, 0]),
   midi.NoteOnEvent(tick=448, channel=9, data=[50, 100]),
   midi.NoteOnEvent(tick=36, channel=9, data=[50, 100]),
   midi.NoteOnEvent(tick=92, channel=9, data=[50, 0]),
   midi.NoteOnEvent(tick=164, channel=9, data=[50, 0]),
   midi.NoteOnEvent(tick=860, channel=9, data=[57, 100]),
   midi.NoteOnEvent(tick=128, channel=9, data=[57, 0]),
   midi.NoteOnEvent(tick=64, channel=9, data=[57, 100]),
   midi.NoteOnEvent(tick=128, channel=9, data=[57, 0]),
   midi.NoteOnEvent(tick=256, channel=9, data=[57, 100]),
   midi.NoteOnEvent(tick=128, channel=9, data=[57, 0]),
   midi.NoteOnEvent(tick=64, channel=9, data=[57, 100]),
   midi.NoteOnEvent(tick=128, channel=9, data=[57, 0]),
   midi.NoteOnEvent(tick=256, channel=9, data=[57, 100]),
   midi.NoteOnEvent(tick=128, channel=9, data=[57, 0]),
   midi.NoteOnEvent(tick=64, channel=9, data=[57, 100]),
   midi.NoteOnEvent(tick=128, channel=9, data=[57, 0]),
   midi.NoteOnEvent(tick=448, channel=9, data=[50, 100]),
   midi.NoteOnEvent(tick=36, channel=9, data=[50, 100]),
   midi.NoteOnEvent(tick=92, channel=9, data=[50, 0]),
   midi.NoteOnEvent(tick=164, channel=9, data=[50, 0]),
   midi.NoteOnEvent(tick=860, channel=9, data=[57, 100]),
   midi.NoteOnEvent(tick=128, channel=9, data=[57, 0]),
   midi.NoteOnEvent(tick=64, channel=9, data=[57, 100]),
   midi.NoteOnEvent(tick=128, channel=9, data=[57, 0]),
   midi.NoteOnEvent(tick=256, channel=9, data=[57, 100]),
   midi.NoteOnEvent(tick=128, channel=9, data=[57, 0]),
   midi.NoteOnEvent(tick=64, channel=9, data=[57, 100]),
   midi.NoteOnEvent(tick=128, channel=9, data=[57, 0]),
   midi.NoteOnEvent(tick=256, channel=9, data=[57, 100]),
   midi.NoteOnEvent(tick=128, channel=9, data=[57, 0]),
   midi.NoteOnEvent(tick=64, channel=9, data=[57, 100]),
   midi.NoteOnEvent(tick=128, channel=9, data=[57, 0]),
   midi.NoteOnEvent(tick=448, channel=9, data=[50, 100]),
   midi.NoteOnEvent(tick=36, channel=9, data=[50, 100]),
   midi.NoteOnEvent(tick=92, channel=9, data=[50, 0]),
   midi.NoteOnEvent(tick=164, channel=9, data=[50, 0]),
   midi.NoteOnEvent(tick=860, channel=9, data=[57, 100]),
   midi.NoteOnEvent(tick=128, channel=9, data=[57, 0]),
   midi.NoteOnEvent(tick=64, channel=9, data=[57, 100]),
   midi.NoteOnEvent(tick=128, channel=9, data=[57, 0]),
   midi.NoteOnEvent(tick=256, channel=9, data=[57, 100]),
   midi.NoteOnEvent(tick=128, channel=9, data=[57, 0]),
   midi.NoteOnEvent(tick=64, channel=9, data=[57, 100]),
   midi.NoteOnEvent(tick=128, channel=9, data=[57, 0]),
   midi.NoteOnEvent(tick=256, channel=9, data=[57, 100]),
   midi.NoteOnEvent(tick=128, channel=9, data=[57, 0]),
   midi.NoteOnEvent(tick=64, channel=9, data=[57, 100]),
   midi.NoteOnEvent(tick=128, channel=9, data=[57, 0]),
   midi.NoteOnEvent(tick=64, channel=9, data=[57, 100]),
   midi.NoteOnEvent(tick=128, channel=9, data=[57, 0]),
   midi.NoteOnEvent(tick=1408, channel=9, data=[57, 100]),
   midi.NoteOnEvent(tick=128, channel=9, data=[57, 0]),
   midi.NoteOnEvent(tick=36736, channel=9, data=[57, 100]),
   midi.NoteOnEvent(tick=128, channel=9, data=[57, 0]),
   midi.NoteOnEvent(tick=64, channel=9, data=[59, 100]),
   midi.NoteOnEvent(tick=128, channel=9, data=[59, 0]),
   midi.NoteOnEvent(tick=64, channel=9, data=[59, 100]),
   midi.NoteOnEvent(tick=128, channel=9, data=[59, 0]),
   midi.NoteOnEvent(tick=64, channel=9, data=[59, 100]),
   midi.NoteOnEvent(tick=128, channel=9, data=[59, 0]),
   midi.NoteOnEvent(tick=64, channel=9, data=[59, 100]),
   midi.NoteOnEvent(tick=128, channel=9, data=[59, 0]),
   midi.NoteOnEvent(tick=64, channel=9, data=[59, 100]),
   midi.NoteOnEvent(tick=128, channel=9, data=[59, 0]),
   midi.NoteOnEvent(tick=64, channel=9, data=[59, 100]),
   midi.NoteOnEvent(tick=128, channel=9, data=[59, 0]),
   midi.NoteOnEvent(tick=64, channel=9, data=[59, 100]),
   midi.NoteOnEvent(tick=128, channel=9, data=[59, 0]),
   midi.NoteOnEvent(tick=64, channel=9, data=[59, 100]),
   midi.NoteOnEvent(tick=128, channel=9, data=[59, 0]),
   midi.NoteOnEvent(tick=64, channel=9, data=[59, 100]),
   midi.NoteOnEvent(tick=64, channel=9, data=[59, 0]),
   midi.NoteOnEvent(tick=32, channel=9, data=[59, 100]),
   midi.NoteOnEvent(tick=64, channel=9, data=[59, 0]),
   midi.NoteOnEvent(tick=32, channel=9, data=[59, 100]),
   midi.NoteOnEvent(tick=128, channel=9, data=[59, 0]),
   midi.NoteOnEvent(tick=64, channel=9, data=[59, 100]),
   midi.NoteOnEvent(tick=128, channel=9, data=[59, 0]),
   midi.NoteOnEvent(tick=64, channel=9, data=[59, 100]),
   midi.NoteOnEvent(tick=128, channel=9, data=[59, 0]),
   midi.NoteOnEvent(tick=64, channel=9, data=[59, 100]),
   midi.NoteOnEvent(tick=128, channel=9, data=[59, 0]),
   midi.NoteOnEvent(tick=64, channel=9, data=[59, 100]),
   midi.NoteOnEvent(tick=128, channel=9, data=[59, 0]),
   midi.NoteOnEvent(tick=64, channel=9, data=[59, 100]),
   midi.NoteOnEvent(tick=128, channel=9, data=[59, 0]),
   midi.NoteOnEvent(tick=64, channel=9, data=[57, 100]),
   midi.NoteOnEvent(tick=128, channel=9, data=[57, 0]),
   midi.NoteOnEvent(tick=64, channel=9, data=[59, 100]),
   midi.NoteOnEvent(tick=128, channel=9, data=[59, 0]),
   midi.NoteOnEvent(tick=64, channel=9, data=[59, 100]),
   midi.NoteOnEvent(tick=128, channel=9, data=[59, 0]),
   midi.NoteOnEvent(tick=64, channel=9, data=[57, 100]),
   midi.NoteOnEvent(tick=128, channel=9, data=[57, 0]),
   midi.NoteOnEvent(tick=64, channel=9, data=[59, 100]),
   midi.NoteOnEvent(tick=128, channel=9, data=[59, 0]),
   midi.NoteOnEvent(tick=64, channel=9, data=[59, 100]),
   midi.NoteOnEvent(tick=128, channel=9, data=[59, 0]),
   midi.NoteOnEvent(tick=64, channel=9, data=[59, 100]),
   midi.NoteOnEvent(tick=128, channel=9, data=[59, 0]),
   midi.NoteOnEvent(tick=64, channel=9, data=[59, 100]),
   midi.NoteOnEvent(tick=128, channel=9, data=[59, 0]),
   midi.NoteOnEvent(tick=64, channel=9, data=[59, 100]),
   midi.NoteOnEvent(tick=128, channel=9, data=[59, 0]),
   midi.NoteOnEvent(tick=64, channel=9, data=[59, 100]),
   midi.NoteOnEvent(tick=64, channel=9, data=[59, 0]),
   midi.NoteOnEvent(tick=32, channel=9, data=[59, 100]),
   midi.NoteOnEvent(tick=64, channel=9, data=[59, 0]),
   midi.NoteOnEvent(tick=32, channel=9, data=[59, 100]),
   midi.NoteOnEvent(tick=128, channel=9, data=[59, 0]),
   midi.NoteOnEvent(tick=64, channel=9, data=[59, 100]),
   midi.NoteOnEvent(tick=128, channel=9, data=[59, 0]),
   midi.NoteOnEvent(tick=64, channel=9, data=[59, 100]),
   midi.NoteOnEvent(tick=128, channel=9, data=[59, 0]),
   midi.NoteOnEvent(tick=64, channel=9, data=[59, 100]),
   midi.NoteOnEvent(tick=128, channel=9, data=[59, 0]),
   midi.NoteOnEvent(tick=64, channel=9, data=[59, 100]),
   midi.NoteOnEvent(tick=128, channel=9, data=[59, 0]),
   midi.NoteOnEvent(tick=64, channel=9, data=[59, 100]),
   midi.NoteOnEvent(tick=128, channel=9, data=[59, 0]),
   midi.NoteOnEvent(tick=64, channel=9, data=[57, 100]),
   midi.NoteOnEvent(tick=128, channel=9, data=[57, 0]),
   midi.NoteOnEvent(tick=64, channel=9, data=[59, 100]),
   midi.NoteOnEvent(tick=128, channel=9, data=[59, 0]),
   midi.NoteOnEvent(tick=64, channel=9, data=[59, 100]),
   midi.NoteOnEvent(tick=128, channel=9, data=[59, 0]),
   midi.NoteOnEvent(tick=64, channel=9, data=[57, 100]),
   midi.NoteOnEvent(tick=128, channel=9, data=[57, 0]),
   midi.NoteOnEvent(tick=64, channel=9, data=[59, 100]),
   midi.NoteOnEvent(tick=128, channel=9, data=[59, 0]),
   midi.NoteOnEvent(tick=64, channel=9, data=[59, 100]),
   midi.NoteOnEvent(tick=128, channel=9, data=[59, 0]),
   midi.NoteOnEvent(tick=64, channel=9, data=[59, 100]),
   midi.NoteOnEvent(tick=128, channel=9, data=[59, 0]),
   midi.NoteOnEvent(tick=64, channel=9, data=[59, 100]),
   midi.NoteOnEvent(tick=128, channel=9, data=[59, 0]),
   midi.NoteOnEvent(tick=64, channel=9, data=[59, 100]),
   midi.NoteOnEvent(tick=128, channel=9, data=[59, 0]),
   midi.NoteOnEvent(tick=64, channel=9, data=[59, 100]),
   midi.NoteOnEvent(tick=64, channel=9, data=[59, 0]),
   midi.NoteOnEvent(tick=32, channel=9, data=[59, 100]),
   midi.NoteOnEvent(tick=64, channel=9, data=[59, 0]),
   midi.NoteOnEvent(tick=32, channel=9, data=[59, 100]),
   midi.NoteOnEvent(tick=128, channel=9, data=[59, 0]),
   midi.NoteOnEvent(tick=64, channel=9, data=[59, 100]),
   midi.NoteOnEvent(tick=128, channel=9, data=[59, 0]),
   midi.NoteOnEvent(tick=64, channel=9, data=[59, 100]),
   midi.NoteOnEvent(tick=128, channel=9, data=[59, 0]),
   midi.NoteOnEvent(tick=64, channel=9, data=[59, 100]),
   midi.NoteOnEvent(tick=128, channel=9, data=[59, 0]),
   midi.NoteOnEvent(tick=64, channel=9, data=[59, 100]),
   midi.NoteOnEvent(tick=128, channel=9, data=[59, 0]),
   midi.NoteOnEvent(tick=64, channel=9, data=[59, 100]),
   midi.NoteOnEvent(tick=128, channel=9, data=[59, 0]),
   midi.NoteOnEvent(tick=64, channel=9, data=[57, 100]),
   midi.NoteOnEvent(tick=128, channel=9, data=[57, 0]),
   midi.NoteOnEvent(tick=64, channel=9, data=[57, 100]),
   midi.NoteOnEvent(tick=128, channel=9, data=[57, 0]),
   midi.NoteOnEvent(tick=256, channel=9, data=[57, 100]),
   midi.NoteOnEvent(tick=128, channel=9, data=[57, 0]),
   midi.NoteOnEvent(tick=64, channel=9, data=[57, 100]),
   midi.NoteOnEvent(tick=128, channel=9, data=[57, 0]),
   midi.NoteOnEvent(tick=256, channel=9, data=[57, 100]),
   midi.NoteOnEvent(tick=128, channel=9, data=[57, 0]),
   midi.NoteOnEvent(tick=64, channel=9, data=[57, 100]),
   midi.NoteOnEvent(tick=128, channel=9, data=[57, 0]),
   midi.NoteOnEvent(tick=448, channel=9, data=[50, 100]),
   midi.NoteOnEvent(tick=36, channel=9, data=[50, 100]),
   midi.NoteOnEvent(tick=92, channel=9, data=[50, 0]),
   midi.NoteOnEvent(tick=164, channel=9, data=[50, 0]),
   midi.NoteOnEvent(tick=860, channel=9, data=[57, 100]),
   midi.NoteOnEvent(tick=128, channel=9, data=[57, 0]),
   midi.NoteOnEvent(tick=64, channel=9, data=[57, 100]),
   midi.NoteOnEvent(tick=128, channel=9, data=[57, 0]),
   midi.NoteOnEvent(tick=256, channel=9, data=[57, 100]),
   midi.NoteOnEvent(tick=128, channel=9, data=[57, 0]),
   midi.NoteOnEvent(tick=64, channel=9, data=[57, 100]),
   midi.NoteOnEvent(tick=128, channel=9, data=[57, 0]),
   midi.NoteOnEvent(tick=256, channel=9, data=[57, 100]),
   midi.NoteOnEvent(tick=128, channel=9, data=[57, 0]),
   midi.NoteOnEvent(tick=64, channel=9, data=[57, 100]),
   midi.NoteOnEvent(tick=128, channel=9, data=[57, 0]),
   midi.NoteOnEvent(tick=448, channel=9, data=[50, 100]),
   midi.NoteOnEvent(tick=36, channel=9, data=[50, 100]),
   midi.NoteOnEvent(tick=92, channel=9, data=[50, 0]),
   midi.NoteOnEvent(tick=164, channel=9, data=[50, 0]),
   midi.NoteOnEvent(tick=860, channel=9, data=[57, 100]),
   midi.NoteOnEvent(tick=128, channel=9, data=[57, 0]),
   midi.NoteOnEvent(tick=64, channel=9, data=[57, 100]),
   midi.NoteOnEvent(tick=128, channel=9, data=[57, 0]),
   midi.NoteOnEvent(tick=256, channel=9, data=[57, 100]),
   midi.NoteOnEvent(tick=128, channel=9, data=[57, 0]),
   midi.NoteOnEvent(tick=64, channel=9, data=[57, 100]),
   midi.NoteOnEvent(tick=128, channel=9, data=[57, 0]),
   midi.NoteOnEvent(tick=256, channel=9, data=[57, 100]),
   midi.NoteOnEvent(tick=128, channel=9, data=[57, 0]),
   midi.NoteOnEvent(tick=64, channel=9, data=[57, 100]),
   midi.NoteOnEvent(tick=128, channel=9, data=[57, 0]),
   midi.NoteOnEvent(tick=448, channel=9, data=[50, 100]),
   midi.NoteOnEvent(tick=36, channel=9, data=[50, 100]),
   midi.NoteOnEvent(tick=92, channel=9, data=[50, 0]),
   midi.NoteOnEvent(tick=164, channel=9, data=[50, 0]),
   midi.NoteOnEvent(tick=860, channel=9, data=[57, 100]),
   midi.NoteOnEvent(tick=128, channel=9, data=[57, 0]),
   midi.NoteOnEvent(tick=64, channel=9, data=[57, 100]),
   midi.NoteOnEvent(tick=128, channel=9, data=[57, 0]),
   midi.NoteOnEvent(tick=256, channel=9, data=[57, 100]),
   midi.NoteOnEvent(tick=128, channel=9, data=[57, 0]),
   midi.NoteOnEvent(tick=64, channel=9, data=[57, 100]),
   midi.NoteOnEvent(tick=128, channel=9, data=[57, 0]),
   midi.NoteOnEvent(tick=256, channel=9, data=[57, 100]),
   midi.NoteOnEvent(tick=128, channel=9, data=[57, 0]),
   midi.NoteOnEvent(tick=64, channel=9, data=[57, 100]),
   midi.NoteOnEvent(tick=128, channel=9, data=[57, 0]),
   midi.NoteOnEvent(tick=64, channel=9, data=[57, 100]),
   midi.NoteOnEvent(tick=256, channel=9, data=[57, 0]),
   midi.NoteOnEvent(tick=2624, channel=9, data=[57, 100]),
   midi.NoteOnEvent(tick=132, channel=9, data=[57, 0]),
   midi.NoteOnEvent(tick=2940, channel=9, data=[57, 100]),
   midi.NoteOnEvent(tick=132, channel=9, data=[57, 0]),
   midi.NoteOnEvent(tick=828, channel=9, data=[57, 100]),
   midi.NoteOnEvent(tick=264, channel=9, data=[57, 0]),
   midi.NoteOnEvent(tick=696, channel=9, data=[57, 100]),
   midi.NoteOnEvent(tick=132, channel=9, data=[57, 0]),
   midi.NoteOnEvent(tick=1020, channel=9, data=[57, 100]),
   midi.NoteOnEvent(tick=132, channel=9, data=[57, 0]),
   midi.NoteOnEvent(tick=2940, channel=9, data=[57, 100]),
   midi.NoteOnEvent(tick=132, channel=9, data=[57, 0]),
   midi.NoteOnEvent(tick=828, channel=9, data=[57, 100]),
   midi.NoteOnEvent(tick=264, channel=9, data=[57, 0]),
   midi.NoteOnEvent(tick=696, channel=9, data=[57, 100]),
   midi.NoteOnEvent(tick=132, channel=9, data=[57, 0]),
   midi.NoteOnEvent(tick=1020, channel=9, data=[57, 100]),
   midi.NoteOnEvent(tick=132, channel=9, data=[57, 0]),
   midi.NoteOnEvent(tick=2940, channel=9, data=[57, 100]),
   midi.NoteOnEvent(tick=132, channel=9, data=[57, 0]),
   midi.NoteOnEvent(tick=828, channel=9, data=[57, 100]),
   midi.NoteOnEvent(tick=264, channel=9, data=[57, 0]),
   midi.NoteOnEvent(tick=696, channel=9, data=[57, 100]),
   midi.NoteOnEvent(tick=132, channel=9, data=[57, 0]),
   midi.NoteOnEvent(tick=1020, channel=9, data=[57, 100]),
   midi.NoteOnEvent(tick=132, channel=9, data=[57, 0]),
   midi.NoteOnEvent(tick=2940, channel=9, data=[57, 100]),
   midi.NoteOnEvent(tick=132, channel=9, data=[57, 0]),
   midi.NoteOnEvent(tick=828, channel=9, data=[57, 100]),
   midi.NoteOnEvent(tick=264, channel=9, data=[57, 0]),
   midi.NoteOnEvent(tick=696, channel=9, data=[57, 100]),
   midi.NoteOnEvent(tick=132, channel=9, data=[57, 0]),
   midi.NoteOnEvent(tick=1020, channel=9, data=[57, 100]),
   midi.NoteOnEvent(tick=132, channel=9, data=[57, 0]),
   midi.NoteOnEvent(tick=2940, channel=9, data=[57, 100]),
   midi.NoteOnEvent(tick=132, channel=9, data=[57, 0]),
   midi.NoteOnEvent(tick=828, channel=9, data=[57, 100]),
   midi.NoteOnEvent(tick=264, channel=9, data=[57, 0]),
   midi.NoteOnEvent(tick=696, channel=9, data=[57, 100]),
   midi.NoteOnEvent(tick=132, channel=9, data=[57, 0]),
   midi.NoteOnEvent(tick=1020, channel=9, data=[57, 100]),
   midi.NoteOnEvent(tick=132, channel=9, data=[57, 0]),
   midi.NoteOnEvent(tick=2940, channel=9, data=[57, 100]),
   midi.NoteOnEvent(tick=132, channel=9, data=[57, 0]),
   midi.NoteOnEvent(tick=828, channel=9, data=[57, 100]),
   midi.NoteOnEvent(tick=264, channel=9, data=[57, 0]),
   midi.NoteOnEvent(tick=696, channel=9, data=[57, 100]),
   midi.NoteOnEvent(tick=132, channel=9, data=[57, 0]),
   midi.NoteOnEvent(tick=1020, channel=9, data=[57, 100]),
   midi.NoteOnEvent(tick=132, channel=9, data=[57, 0]),
   midi.NoteOnEvent(tick=2940, channel=9, data=[57, 100]),
   midi.NoteOnEvent(tick=132, channel=9, data=[57, 0]),
   midi.NoteOnEvent(tick=828, channel=9, data=[57, 100]),
   midi.NoteOnEvent(tick=264, channel=9, data=[57, 0]),
   midi.NoteOnEvent(tick=696, channel=9, data=[57, 100]),
   midi.NoteOnEvent(tick=132, channel=9, data=[57, 0]),
   midi.NoteOnEvent(tick=1020, channel=9, data=[57, 100]),
   midi.NoteOnEvent(tick=132, channel=9, data=[57, 0]),
   midi.NoteOnEvent(tick=2602, channel=9, data=[48, 100]),
   midi.NoteOnEvent(tick=64, channel=9, data=[48, 0]),
   midi.NoteOnEvent(tick=274, channel=9, data=[57, 100]),
   midi.NoteOnEvent(tick=132, channel=9, data=[57, 0]),
   midi.NoteOnEvent(tick=1788, channel=9, data=[57, 100]),
   midi.NoteOnEvent(tick=1612, channel=9, data=[57, 0]),
   midi.NoteOnEvent(tick=308, channel=9, data=[57, 100]),
   midi.NoteOnEvent(tick=132, channel=9, data=[57, 0]),
   midi.NoteOnEvent(tick=1788, channel=9, data=[57, 100]),
   midi.NoteOnEvent(tick=1072, channel=9, data=[57, 0]),
   midi.NoteOnEvent(tick=510, channel=9, data=[48, 100]),
   midi.NoteOnEvent(tick=132, channel=9, data=[48, 0]),
   midi.NoteOnEvent(tick=206, channel=9, data=[51, 100]),
   midi.NoteOnEvent(tick=132, channel=9, data=[51, 0]),
   midi.NoteOnEvent(tick=60, channel=9, data=[51, 100]),
   midi.NoteOnEvent(tick=132, channel=9, data=[51, 0]),
   midi.NoteOnEvent(tick=60, channel=9, data=[51, 100]),
   midi.NoteOnEvent(tick=132, channel=9, data=[51, 0]),
   midi.NoteOnEvent(tick=60, channel=9, data=[51, 100]),
   midi.NoteOnEvent(tick=132, channel=9, data=[51, 0]),
   midi.NoteOnEvent(tick=60, channel=9, data=[51, 100]),
   midi.NoteOnEvent(tick=132, channel=9, data=[51, 0]),
   midi.NoteOnEvent(tick=60, channel=9, data=[51, 100]),
   midi.NoteOnEvent(tick=132, channel=9, data=[51, 0]),
   midi.NoteOnEvent(tick=60, channel=9, data=[51, 100]),
   midi.NoteOnEvent(tick=132, channel=9, data=[51, 0]),
   midi.NoteOnEvent(tick=60, channel=9, data=[51, 100]),
   midi.NoteOnEvent(tick=132, channel=9, data=[51, 0]),
   midi.NoteOnEvent(tick=60, channel=9, data=[51, 100]),
   midi.NoteOnEvent(tick=132, channel=9, data=[51, 0]),
   midi.NoteOnEvent(tick=60, channel=9, data=[51, 100]),
   midi.NoteOnEvent(tick=132, channel=9, data=[51, 0]),
   midi.NoteOnEvent(tick=60, channel=9, data=[51, 100]),
   midi.NoteOnEvent(tick=132, channel=9, data=[51, 0]),
   midi.NoteOnEvent(tick=60, channel=9, data=[51, 100]),
   midi.NoteOnEvent(tick=132, channel=9, data=[51, 0]),
   midi.NoteOnEvent(tick=60, channel=9, data=[51, 100]),
   midi.NoteOnEvent(tick=132, channel=9, data=[51, 0]),
   midi.NoteOnEvent(tick=60, channel=9, data=[51, 100]),
   midi.NoteOnEvent(tick=132, channel=9, data=[51, 0]),
   midi.NoteOnEvent(tick=60, channel=9, data=[51, 100]),
   midi.NoteOnEvent(tick=132, channel=9, data=[51, 0]),
   midi.NoteOnEvent(tick=60, channel=9, data=[51, 100]),
   midi.NoteOnEvent(tick=132, channel=9, data=[51, 0]),
   midi.NoteOnEvent(tick=60, channel=9, data=[51, 100]),
   midi.NoteOnEvent(tick=132, channel=9, data=[51, 0]),
   midi.NoteOnEvent(tick=60, channel=9, data=[51, 100]),
   midi.NoteOnEvent(tick=132, channel=9, data=[51, 0]),
   midi.NoteOnEvent(tick=60, channel=9, data=[51, 100]),
   midi.NoteOnEvent(tick=132, channel=9, data=[51, 0]),
   midi.NoteOnEvent(tick=60, channel=9, data=[51, 100]),
   midi.NoteOnEvent(tick=132, channel=9, data=[51, 0]),
   midi.NoteOnEvent(tick=60, channel=9, data=[51, 100]),
   midi.NoteOnEvent(tick=132, channel=9, data=[51, 0]),
   midi.NoteOnEvent(tick=60, channel=9, data=[51, 100]),
   midi.NoteOnEvent(tick=132, channel=9, data=[51, 0]),
   midi.NoteOnEvent(tick=60, channel=9, data=[51, 100]),
   midi.NoteOnEvent(tick=132, channel=9, data=[51, 0]),
   midi.NoteOnEvent(tick=60, channel=9, data=[51, 100]),
   midi.NoteOnEvent(tick=132, channel=9, data=[51, 0]),
   midi.NoteOnEvent(tick=60, channel=9, data=[51, 100]),
   midi.NoteOnEvent(tick=132, channel=9, data=[51, 0]),
   midi.NoteOnEvent(tick=60, channel=9, data=[51, 100]),
   midi.NoteOnEvent(tick=132, channel=9, data=[51, 0]),
   midi.NoteOnEvent(tick=60, channel=9, data=[51, 100]),
   midi.NoteOnEvent(tick=132, channel=9, data=[51, 0]),
   midi.NoteOnEvent(tick=60, channel=9, data=[51, 100]),
   midi.NoteOnEvent(tick=132, channel=9, data=[51, 0]),
   midi.NoteOnEvent(tick=60, channel=9, data=[51, 100]),
   midi.NoteOnEvent(tick=132, channel=9, data=[51, 0]),
   midi.NoteOnEvent(tick=60, channel=9, data=[51, 100]),
   midi.NoteOnEvent(tick=132, channel=9, data=[51, 0]),
   midi.NoteOnEvent(tick=60, channel=9, data=[51, 100]),
   midi.NoteOnEvent(tick=132, channel=9, data=[51, 0]),
   midi.NoteOnEvent(tick=60, channel=9, data=[51, 100]),
   midi.NoteOnEvent(tick=132, channel=9, data=[51, 0]),
   midi.NoteOnEvent(tick=60, channel=9, data=[51, 100]),
   midi.NoteOnEvent(tick=132, channel=9, data=[51, 0]),
   midi.NoteOnEvent(tick=60, channel=9, data=[51, 100]),
   midi.NoteOnEvent(tick=132, channel=9, data=[51, 0]),
   midi.NoteOnEvent(tick=60, channel=9, data=[51, 100]),
   midi.NoteOnEvent(tick=132, channel=9, data=[51, 0]),
   midi.NoteOnEvent(tick=60, channel=9, data=[51, 100]),
   midi.NoteOnEvent(tick=132, channel=9, data=[51, 0]),
   midi.NoteOnEvent(tick=60, channel=9, data=[51, 100]),
   midi.NoteOnEvent(tick=132, channel=9, data=[51, 0]),
   midi.NoteOnEvent(tick=60, channel=9, data=[51, 100]),
   midi.NoteOnEvent(tick=132, channel=9, data=[51, 0]),
   midi.NoteOnEvent(tick=60, channel=9, data=[51, 100]),
   midi.NoteOnEvent(tick=132, channel=9, data=[51, 0]),
   midi.NoteOnEvent(tick=60, channel=9, data=[51, 100]),
   midi.NoteOnEvent(tick=132, channel=9, data=[51, 0]),
   midi.NoteOnEvent(tick=60, channel=9, data=[51, 100]),
   midi.NoteOnEvent(tick=132, channel=9, data=[51, 0]),
   midi.NoteOnEvent(tick=60, channel=9, data=[51, 100]),
   midi.NoteOnEvent(tick=132, channel=9, data=[51, 0]),
   midi.NoteOnEvent(tick=60, channel=9, data=[51, 100]),
   midi.NoteOnEvent(tick=132, channel=9, data=[51, 0]),
   midi.NoteOnEvent(tick=60, channel=9, data=[51, 100]),
   midi.NoteOnEvent(tick=132, channel=9, data=[51, 0]),
   midi.NoteOnEvent(tick=60, channel=9, data=[51, 100]),
   midi.NoteOnEvent(tick=132, channel=9, data=[51, 0]),
   midi.NoteOnEvent(tick=60, channel=9, data=[51, 100]),
   midi.NoteOnEvent(tick=132, channel=9, data=[51, 0]),
   midi.NoteOnEvent(tick=60, channel=9, data=[51, 100]),
   midi.NoteOnEvent(tick=132, channel=9, data=[51, 0]),
   midi.NoteOnEvent(tick=60, channel=9, data=[51, 100]),
   midi.NoteOnEvent(tick=132, channel=9, data=[51, 0]),
   midi.NoteOnEvent(tick=60, channel=9, data=[51, 100]),
   midi.NoteOnEvent(tick=132, channel=9, data=[51, 0]),
   midi.NoteOnEvent(tick=60, channel=9, data=[51, 100]),
   midi.NoteOnEvent(tick=132, channel=9, data=[51, 0]),
   midi.NoteOnEvent(tick=60, channel=9, data=[51, 100]),
   midi.NoteOnEvent(tick=132, channel=9, data=[51, 0]),
   midi.NoteOnEvent(tick=60, channel=9, data=[51, 100]),
   midi.NoteOnEvent(tick=132, channel=9, data=[51, 0]),
   midi.NoteOnEvent(tick=60, channel=9, data=[51, 100]),
   midi.NoteOnEvent(tick=132, channel=9, data=[51, 0]),
   midi.NoteOnEvent(tick=60, channel=9, data=[51, 100]),
   midi.NoteOnEvent(tick=132, channel=9, data=[51, 0]),
   midi.NoteOnEvent(tick=60, channel=9, data=[51, 100]),
   midi.NoteOnEvent(tick=132, channel=9, data=[51, 0]),
   midi.NoteOnEvent(tick=60, channel=9, data=[51, 100]),
   midi.NoteOnEvent(tick=132, channel=9, data=[51, 0]),
   midi.NoteOnEvent(tick=60, channel=9, data=[51, 100]),
   midi.NoteOnEvent(tick=132, channel=9, data=[51, 0]),
   midi.NoteOnEvent(tick=60, channel=9, data=[51, 100]),
   midi.NoteOnEvent(tick=132, channel=9, data=[51, 0]),
   midi.NoteOnEvent(tick=60, channel=9, data=[51, 100]),
   midi.NoteOnEvent(tick=132, channel=9, data=[51, 0]),
   midi.NoteOnEvent(tick=60, channel=9, data=[51, 100]),
   midi.NoteOnEvent(tick=132, channel=9, data=[51, 0]),
   midi.NoteOnEvent(tick=60, channel=9, data=[51, 100]),
   midi.NoteOnEvent(tick=132, channel=9, data=[51, 0]),
   midi.NoteOnEvent(tick=60, channel=9, data=[51, 100]),
   midi.NoteOnEvent(tick=132, channel=9, data=[51, 0]),
   midi.NoteOnEvent(tick=60, channel=9, data=[51, 100]),
   midi.NoteOnEvent(tick=132, channel=9, data=[51, 0]),
   midi.NoteOnEvent(tick=60, channel=9, data=[51, 100]),
   midi.NoteOnEvent(tick=132, channel=9, data=[51, 0]),
   midi.NoteOnEvent(tick=60, channel=9, data=[51, 100]),
   midi.NoteOnEvent(tick=132, channel=9, data=[51, 0]),
   midi.NoteOnEvent(tick=60, channel=9, data=[51, 100]),
   midi.NoteOnEvent(tick=132, channel=9, data=[51, 0]),
   midi.NoteOnEvent(tick=60, channel=9, data=[51, 100]),
   midi.NoteOnEvent(tick=132, channel=9, data=[51, 0]),
   midi.NoteOnEvent(tick=60, channel=9, data=[51, 100]),
   midi.NoteOnEvent(tick=132, channel=9, data=[51, 0]),
   midi.NoteOnEvent(tick=60, channel=9, data=[51, 100]),
   midi.NoteOnEvent(tick=132, channel=9, data=[51, 0]),
   midi.NoteOnEvent(tick=60, channel=9, data=[51, 100]),
   midi.NoteOnEvent(tick=132, channel=9, data=[51, 0]),
   midi.NoteOnEvent(tick=60, channel=9, data=[51, 100]),
   midi.NoteOnEvent(tick=132, channel=9, data=[51, 0]),
   midi.NoteOnEvent(tick=60, channel=9, data=[51, 100]),
   midi.NoteOnEvent(tick=132, channel=9, data=[51, 0]),
   midi.NoteOnEvent(tick=60, channel=9, data=[51, 100]),
   midi.NoteOnEvent(tick=132, channel=9, data=[51, 0]),
   midi.NoteOnEvent(tick=60, channel=9, data=[51, 100]),
   midi.NoteOnEvent(tick=132, channel=9, data=[51, 0]),
   midi.NoteOnEvent(tick=60, channel=9, data=[51, 100]),
   midi.NoteOnEvent(tick=132, channel=9, data=[51, 0]),
   midi.NoteOnEvent(tick=60, channel=9, data=[51, 100]),
   midi.NoteOnEvent(tick=132, channel=9, data=[51, 0]),
   midi.NoteOnEvent(tick=60, channel=9, data=[51, 100]),
   midi.NoteOnEvent(tick=132, channel=9, data=[51, 0]),
   midi.NoteOnEvent(tick=60, channel=9, data=[51, 100]),
   midi.NoteOnEvent(tick=132, channel=9, data=[51, 0]),
   midi.NoteOnEvent(tick=60, channel=9, data=[51, 100]),
   midi.NoteOnEvent(tick=132, channel=9, data=[51, 0]),
   midi.NoteOnEvent(tick=60, channel=9, data=[51, 100]),
   midi.NoteOnEvent(tick=132, channel=9, data=[51, 0]),
   midi.NoteOnEvent(tick=60, channel=9, data=[51, 100]),
   midi.NoteOnEvent(tick=132, channel=9, data=[51, 0]),
   midi.NoteOnEvent(tick=60, channel=9, data=[51, 100]),
   midi.NoteOnEvent(tick=132, channel=9, data=[51, 0]),
   midi.NoteOnEvent(tick=60, channel=9, data=[51, 100]),
   midi.NoteOnEvent(tick=132, channel=9, data=[51, 0]),
   midi.NoteOnEvent(tick=60, channel=9, data=[51, 100]),
   midi.NoteOnEvent(tick=132, channel=9, data=[51, 0]),
   midi.NoteOnEvent(tick=60, channel=9, data=[51, 100]),
   midi.NoteOnEvent(tick=132, channel=9, data=[51, 0]),
   midi.NoteOnEvent(tick=60, channel=9, data=[51, 100]),
   midi.NoteOnEvent(tick=132, channel=9, data=[51, 0]),
   midi.NoteOnEvent(tick=60, channel=9, data=[51, 100]),
   midi.NoteOnEvent(tick=132, channel=9, data=[51, 0]),
   midi.NoteOnEvent(tick=60, channel=9, data=[51, 100]),
   midi.NoteOnEvent(tick=132, channel=9, data=[51, 0]),
   midi.NoteOnEvent(tick=60, channel=9, data=[51, 100]),
   midi.NoteOnEvent(tick=132, channel=9, data=[51, 0]),
   midi.NoteOnEvent(tick=60, channel=9, data=[51, 100]),
   midi.NoteOnEvent(tick=132, channel=9, data=[51, 0]),
   midi.NoteOnEvent(tick=60, channel=9, data=[51, 100]),
   midi.NoteOnEvent(tick=132, channel=9, data=[51, 0]),
   midi.NoteOnEvent(tick=60, channel=9, data=[51, 100]),
   midi.NoteOnEvent(tick=132, channel=9, data=[51, 0]),
   midi.NoteOnEvent(tick=60, channel=9, data=[51, 100]),
   midi.NoteOnEvent(tick=132, channel=9, data=[51, 0]),
   midi.NoteOnEvent(tick=60, channel=9, data=[51, 100]),
   midi.NoteOnEvent(tick=132, channel=9, data=[51, 0]),
   midi.NoteOnEvent(tick=60, channel=9, data=[51, 100]),
   midi.NoteOnEvent(tick=132, channel=9, data=[51, 0]),
   midi.NoteOnEvent(tick=60, channel=9, data=[51, 100]),
   midi.NoteOnEvent(tick=132, channel=9, data=[51, 0]),
   midi.NoteOnEvent(tick=60, channel=9, data=[51, 100]),
   midi.NoteOnEvent(tick=132, channel=9, data=[51, 0]),
   midi.NoteOnEvent(tick=60, channel=9, data=[51, 100]),
   midi.NoteOnEvent(tick=132, channel=9, data=[51, 0]),
   midi.NoteOnEvent(tick=60, channel=9, data=[51, 100]),
   midi.NoteOnEvent(tick=132, channel=9, data=[51, 0]),
   midi.NoteOnEvent(tick=60, channel=9, data=[51, 100]),
   midi.NoteOnEvent(tick=132, channel=9, data=[51, 0]),
   midi.NoteOnEvent(tick=60, channel=9, data=[51, 100]),
   midi.NoteOnEvent(tick=132, channel=9, data=[51, 0]),
   midi.NoteOnEvent(tick=60, channel=9, data=[51, 100]),
   midi.NoteOnEvent(tick=132, channel=9, data=[51, 0]),
   midi.NoteOnEvent(tick=60, channel=9, data=[51, 100]),
   midi.NoteOnEvent(tick=132, channel=9, data=[51, 0]),
   midi.NoteOnEvent(tick=60, channel=9, data=[51, 100]),
   midi.NoteOnEvent(tick=132, channel=9, data=[51, 0]),
   midi.NoteOnEvent(tick=60, channel=9, data=[51, 100]),
   midi.NoteOnEvent(tick=132, channel=9, data=[51, 0]),
   midi.NoteOnEvent(tick=60, channel=9, data=[51, 100]),
   midi.NoteOnEvent(tick=132, channel=9, data=[51, 0]),
   midi.NoteOnEvent(tick=60, channel=9, data=[51, 100]),
   midi.NoteOnEvent(tick=132, channel=9, data=[51, 0]),
   midi.NoteOnEvent(tick=60, channel=9, data=[51, 100]),
   midi.NoteOnEvent(tick=132, channel=9, data=[51, 0]),
   midi.NoteOnEvent(tick=60, channel=9, data=[51, 100]),
   midi.NoteOnEvent(tick=132, channel=9, data=[51, 0]),
   midi.NoteOnEvent(tick=60, channel=9, data=[51, 100]),
   midi.NoteOnEvent(tick=132, channel=9, data=[51, 0]),
   midi.NoteOnEvent(tick=60, channel=9, data=[51, 100]),
   midi.NoteOnEvent(tick=132, channel=9, data=[51, 0]),
   midi.NoteOnEvent(tick=60, channel=9, data=[51, 100]),
   midi.NoteOnEvent(tick=132, channel=9, data=[51, 0]),
   midi.NoteOnEvent(tick=60, channel=9, data=[51, 100]),
   midi.NoteOnEvent(tick=132, channel=9, data=[51, 0]),
   midi.NoteOnEvent(tick=60, channel=9, data=[51, 100]),
   midi.NoteOnEvent(tick=132, channel=9, data=[51, 0]),
   midi.NoteOnEvent(tick=60, channel=9, data=[51, 100]),
   midi.NoteOnEvent(tick=132, channel=9, data=[51, 0]),
   midi.NoteOnEvent(tick=60, channel=9, data=[51, 100]),
   midi.NoteOnEvent(tick=132, channel=9, data=[51, 0]),
   midi.NoteOnEvent(tick=60, channel=9, data=[51, 100]),
   midi.NoteOnEvent(tick=132, channel=9, data=[51, 0]),
   midi.NoteOnEvent(tick=60, channel=9, data=[51, 100]),
   midi.NoteOnEvent(tick=132, channel=9, data=[51, 0]),
   midi.NoteOnEvent(tick=828, channel=9, data=[57, 100]),
   midi.NoteOnEvent(tick=268, channel=9, data=[57, 0]),
   midi.NoteOnEvent(tick=1268, channel=9, data=[57, 100]),
   midi.NoteOnEvent(tick=268, channel=9, data=[57, 0]),
   midi.NoteOnEvent(tick=1268, channel=9, data=[57, 100]),
   midi.NoteOnEvent(tick=132, channel=9, data=[57, 0]),
   midi.NoteOnEvent(tick=60, channel=9, data=[57, 100]),
   midi.NoteOnEvent(tick=132, channel=9, data=[57, 0]),
   midi.NoteOnEvent(tick=1212, channel=9, data=[57, 100]),
   midi.NoteOnEvent(tick=268, channel=9, data=[57, 0]),
   midi.NoteOnEvent(tick=1268, channel=9, data=[57, 100]),
   midi.NoteOnEvent(tick=268, channel=9, data=[57, 0]),
   midi.NoteOnEvent(tick=1268, channel=9, data=[57, 100]),
   midi.NoteOnEvent(tick=268, channel=9, data=[57, 0]),
   midi.NoteOnEvent(tick=1268, channel=9, data=[57, 100]),
   midi.NoteOnEvent(tick=132, channel=9, data=[57, 0]),
   midi.NoteOnEvent(tick=60, channel=9, data=[57, 100]),
   midi.NoteOnEvent(tick=132, channel=9, data=[57, 0]),
   midi.NoteOnEvent(tick=1212, channel=9, data=[57, 100]),
   midi.NoteOnEvent(tick=268, channel=9, data=[57, 0]),
   midi.NoteOnEvent(tick=500, channel=9, data=[57, 100]),
   midi.NoteOnEvent(tick=132, channel=9, data=[57, 0]),
   midi.NoteOnEvent(tick=252, channel=9, data=[57, 100]),
   midi.NoteOnEvent(tick=132, channel=9, data=[57, 0]),
   midi.NoteOnEvent(tick=252, channel=9, data=[57, 100]),
   midi.NoteOnEvent(tick=132, channel=9, data=[57, 0]),
   midi.NoteOnEvent(tick=7548, channel=9, data=[57, 100]),
   midi.NoteOnEvent(tick=132, channel=9, data=[57, 0]),
   midi.NoteOnEvent(tick=7548, channel=9, data=[57, 100]),
   midi.NoteOnEvent(tick=132, channel=9, data=[57, 0]),
   midi.NoteOnEvent(tick=7548, channel=9, data=[57, 100]),
   midi.NoteOnEvent(tick=132, channel=9, data=[57, 0]),
   midi.NoteOnEvent(tick=7164, channel=9, data=[57, 100]),
   midi.NoteOnEvent(tick=132, channel=9, data=[57, 0]),
   midi.NoteOnEvent(tick=60, channel=9, data=[57, 100]),
   midi.NoteOnEvent(tick=132, channel=9, data=[57, 0]),
   midi.NoteOnEvent(tick=60, channel=9, data=[57, 100]),
   midi.NoteOnEvent(tick=268, channel=9, data=[57, 0]),
   midi.NoteOnEvent(tick=2612, channel=9, data=[57, 100]),
   midi.NoteOnEvent(tick=132, channel=9, data=[57, 0]),
   midi.NoteOnEvent(tick=2940, channel=9, data=[57, 100]),
   midi.NoteOnEvent(tick=132, channel=9, data=[57, 0]),
   midi.NoteOnEvent(tick=2940, channel=9, data=[57, 100]),
   midi.NoteOnEvent(tick=132, channel=9, data=[57, 0]),
   midi.NoteOnEvent(tick=2940, channel=9, data=[57, 100]),
   midi.NoteOnEvent(tick=132, channel=9, data=[57, 0]),
   midi.NoteOnEvent(tick=2940, channel=9, data=[57, 100]),
   midi.NoteOnEvent(tick=132, channel=9, data=[57, 0]),
   midi.NoteOnEvent(tick=2940, channel=9, data=[57, 100]),
   midi.NoteOnEvent(tick=132, channel=9, data=[57, 0]),
   midi.NoteOnEvent(tick=2940, channel=9, data=[57, 100]),
   midi.NoteOnEvent(tick=132, channel=9, data=[57, 0]),
   midi.NoteOnEvent(tick=2940, channel=9, data=[57, 100]),
   midi.NoteOnEvent(tick=132, channel=9, data=[57, 0]),
   midi.NoteOnEvent(tick=2364, channel=9, data=[57, 100]),
   midi.NoteOnEvent(tick=132, channel=9, data=[57, 0]),
   midi.NoteOnEvent(tick=60, channel=9, data=[57, 100]),
   midi.NoteOnEvent(tick=132, channel=9, data=[57, 0]),
   midi.NoteOnEvent(tick=60, channel=9, data=[57, 100]),
   midi.NoteOnEvent(tick=132, channel=9, data=[57, 0]),
   midi.NoteOnEvent(tick=60, channel=9, data=[57, 100]),
   midi.NoteOnEvent(tick=132, channel=9, data=[57, 0]),
   midi.NoteOnEvent(tick=828, channel=9, data=[50, 100]),
   midi.NoteOnEvent(tick=48, channel=9, data=[50, 100]),
   midi.NoteOnEvent(tick=84, channel=9, data=[50, 0]),
   midi.NoteOnEvent(tick=48, channel=9, data=[50, 0]),
   midi.NoteOnEvent(tick=204, channel=9, data=[48, 100]),
   midi.NoteOnEvent(tick=48, channel=9, data=[48, 100]),
   midi.NoteOnEvent(tick=84, channel=9, data=[48, 0]),
   midi.NoteOnEvent(tick=48, channel=9, data=[48, 0]),
   midi.NoteOnEvent(tick=1164, channel=9, data=[57, 100]),
   midi.NoteOnEvent(tick=132, channel=9, data=[57, 0]),
   midi.NoteOnEvent(tick=60, channel=9, data=[57, 100]),
   midi.NoteOnEvent(tick=132, channel=9, data=[57, 0]),
   midi.NoteOnEvent(tick=60, channel=9, data=[57, 100]),
   midi.NoteOnEvent(tick=132, channel=9, data=[57, 0]),
   midi.NoteOnEvent(tick=2364, channel=9, data=[57, 100]),
   midi.NoteOnEvent(tick=132, channel=9, data=[57, 0]),
   midi.NoteOnEvent(tick=60, channel=9, data=[57, 100]),
   midi.NoteOnEvent(tick=132, channel=9, data=[57, 0]),
   midi.NoteOnEvent(tick=60, channel=9, data=[57, 100]),
   midi.NoteOnEvent(tick=132, channel=9, data=[57, 0]),
   midi.NoteOnEvent(tick=60, channel=9, data=[57, 100]),
   midi.NoteOnEvent(tick=132, channel=9, data=[57, 0]),
   midi.NoteOnEvent(tick=828, channel=9, data=[50, 100]),
   midi.NoteOnEvent(tick=48, channel=9, data=[50, 100]),
   midi.NoteOnEvent(tick=84, channel=9, data=[50, 0]),
   midi.NoteOnEvent(tick=48, channel=9, data=[50, 0]),
   midi.NoteOnEvent(tick=204, channel=9, data=[48, 100]),
   midi.NoteOnEvent(tick=48, channel=9, data=[48, 100]),
   midi.NoteOnEvent(tick=84, channel=9, data=[48, 0]),
   midi.NoteOnEvent(tick=48, channel=9, data=[48, 0]),
   midi.NoteOnEvent(tick=1164, channel=9, data=[57, 100]),
   midi.NoteOnEvent(tick=132, channel=9, data=[57, 0]),
   midi.NoteOnEvent(tick=60, channel=9, data=[57, 100]),
   midi.NoteOnEvent(tick=132, channel=9, data=[57, 0]),
   midi.NoteOnEvent(tick=60, channel=9, data=[57, 100]),
   midi.NoteOnEvent(tick=132, channel=9, data=[57, 0]),
   midi.NoteOnEvent(tick=2364, channel=9, data=[57, 100]),
   midi.NoteOnEvent(tick=132, channel=9, data=[57, 0]),
   midi.NoteOnEvent(tick=60, channel=9, data=[57, 100]),
   midi.NoteOnEvent(tick=132, channel=9, data=[57, 0]),
   midi.NoteOnEvent(tick=60, channel=9, data=[57, 100]),
   midi.NoteOnEvent(tick=132, channel=9, data=[57, 0]),
   midi.NoteOnEvent(tick=60, channel=9, data=[57, 100]),
   midi.NoteOnEvent(tick=132, channel=9, data=[57, 0]),
   midi.NoteOnEvent(tick=828, channel=9, data=[50, 100]),
   midi.NoteOnEvent(tick=48, channel=9, data=[50, 100]),
   midi.NoteOnEvent(tick=84, channel=9, data=[50, 0]),
   midi.NoteOnEvent(tick=48, channel=9, data=[50, 0]),
   midi.NoteOnEvent(tick=204, channel=9, data=[48, 100]),
   midi.NoteOnEvent(tick=48, channel=9, data=[48, 100]),
   midi.NoteOnEvent(tick=84, channel=9, data=[48, 0]),
   midi.NoteOnEvent(tick=48, channel=9, data=[48, 0]),
   midi.NoteOnEvent(tick=1164, channel=9, data=[57, 100]),
   midi.NoteOnEvent(tick=132, channel=9, data=[57, 0]),
   midi.NoteOnEvent(tick=60, channel=9, data=[57, 100]),
   midi.NoteOnEvent(tick=132, channel=9, data=[57, 0]),
   midi.NoteOnEvent(tick=60, channel=9, data=[57, 100]),
   midi.NoteOnEvent(tick=132, channel=9, data=[57, 0]),
   midi.NoteOnEvent(tick=2364, channel=9, data=[57, 100]),
   midi.NoteOnEvent(tick=132, channel=9, data=[57, 0]),
   midi.NoteOnEvent(tick=60, channel=9, data=[57, 100]),
   midi.NoteOnEvent(tick=132, channel=9, data=[57, 0]),
   midi.NoteOnEvent(tick=252, channel=9, data=[57, 100]),
   midi.NoteOnEvent(tick=132, channel=9, data=[57, 0]),
   midi.NoteOnEvent(tick=3132, channel=9, data=[57, 100]),
   midi.NoteOnEvent(tick=64, channel=9, data=[57, 0]),
   midi.NoteOnEvent(tick=3008, channel=9, data=[57, 100]),
   midi.NoteOnEvent(tick=64, channel=9, data=[57, 0]),
   midi.NoteOnEvent(tick=320, channel=9, data=[57, 100]),
   midi.NoteOnEvent(tick=64, channel=9, data=[57, 0]),
   midi.NoteOnEvent(tick=512, channel=9, data=[57, 100]),
   midi.NoteOnEvent(tick=132, channel=9, data=[57, 0]),
   midi.NoteOnEvent(tick=444, channel=9, data=[57, 100]),
   midi.NoteOnEvent(tick=268, channel=9, data=[57, 0]),
   midi.NoteOnEvent(tick=308, channel=9, data=[57, 100]),
   midi.NoteOnEvent(tick=132, channel=9, data=[57, 0]),
   midi.NoteOnEvent(tick=252, channel=9, data=[57, 100]),
   midi.NoteOnEvent(tick=132, channel=9, data=[57, 0]),
   midi.NoteOnEvent(tick=60, channel=9, data=[57, 100]),
   midi.NoteOnEvent(tick=132, channel=9, data=[57, 0]),
   midi.NoteOnEvent(tick=60, channel=9, data=[57, 100]),
   midi.NoteOnEvent(tick=132, channel=9, data=[57, 0]),
   midi.NoteOnEvent(tick=60, channel=9, data=[57, 100]),
   midi.NoteOnEvent(tick=64, channel=9, data=[57, 0]),
   midi.NoteOnEvent(tick=320, channel=9, data=[57, 100]),
   midi.NoteOnEvent(tick=64, channel=9, data=[57, 0]),
   midi.NoteOnEvent(tick=512, channel=9, data=[57, 100]),
   midi.NoteOnEvent(tick=132, channel=9, data=[57, 0]),
   midi.NoteOnEvent(tick=444, channel=9, data=[57, 100]),
   midi.NoteOnEvent(tick=268, channel=9, data=[57, 0]),
   midi.NoteOnEvent(tick=308, channel=9, data=[57, 100]),
   midi.NoteOnEvent(tick=132, channel=9, data=[57, 0]),
   midi.NoteOnEvent(tick=252, channel=9, data=[57, 100]),
   midi.NoteOnEvent(tick=132, channel=9, data=[57, 0]),
   midi.NoteOnEvent(tick=60, channel=9, data=[57, 100]),
   midi.NoteOnEvent(tick=132, channel=9, data=[57, 0]),
   midi.NoteOnEvent(tick=60, channel=9, data=[57, 100]),
   midi.NoteOnEvent(tick=132, channel=9, data=[57, 0]),
   midi.NoteOnEvent(tick=60, channel=9, data=[57, 100]),
   midi.NoteOnEvent(tick=268, channel=9, data=[57, 0]),
   midi.NoteOnEvent(tick=14708, channel=9, data=[57, 100]),
   midi.NoteOnEvent(tick=268, channel=9, data=[57, 0]),
   midi.NoteOnEvent(tick=116, channel=9, data=[57, 100]),
   midi.NoteOnEvent(tick=132, channel=9, data=[57, 0]),
   midi.NoteOnEvent(tick=2940, channel=9, data=[57, 100]),
   midi.NoteOnEvent(tick=256, channel=9, data=[57, 0]),
   midi.NoteOnEvent(tick=128, channel=9, data=[57, 100]),
   midi.NoteOnEvent(tick=256, channel=9, data=[57, 0]),
   midi.NoteOnEvent(tick=320, channel=9, data=[57, 100]),
   midi.NoteOnEvent(tick=128, channel=9, data=[57, 0]),
   midi.NoteOnEvent(tick=448, channel=9, data=[57, 100]),
   midi.NoteOnEvent(tick=128, channel=9, data=[57, 0]),
   midi.NoteOnEvent(tick=448, channel=9, data=[57, 100]),
   midi.NoteOnEvent(tick=128, channel=9, data=[57, 0]),
   midi.NoteOnEvent(tick=448, channel=9, data=[57, 100]),
   midi.NoteOnEvent(tick=128, channel=9, data=[57, 0]),
   midi.NoteOnEvent(tick=2944, channel=9, data=[57, 100]),
   midi.NoteOnEvent(tick=268, channel=9, data=[57, 0]),
   midi.NoteOnEvent(tick=116, channel=9, data=[57, 100]),
   midi.NoteOnEvent(tick=132, channel=9, data=[57, 0]),
   midi.NoteOnEvent(tick=3324, channel=9, data=[57, 100]),
   midi.NoteOnEvent(tick=132, channel=9, data=[57, 0]),
   midi.NoteOnEvent(tick=444, channel=9, data=[57, 100]),
   midi.NoteOnEvent(tick=132, channel=9, data=[57, 0]),
   midi.NoteOnEvent(tick=444, channel=9, data=[57, 100]),
   midi.NoteOnEvent(tick=132, channel=9, data=[57, 0]),
   midi.NoteOnEvent(tick=444, channel=9, data=[57, 100]),
   midi.NoteOnEvent(tick=132, channel=9, data=[57, 0]),
   midi.NoteOnEvent(tick=444, channel=9, data=[57, 100]),
   midi.NoteOnEvent(tick=132, channel=9, data=[57, 0]),
   midi.NoteOnEvent(tick=2940, channel=9, data=[57, 100]),
   midi.NoteOnEvent(tick=268, channel=9, data=[57, 0]),
   midi.NoteOnEvent(tick=116, channel=9, data=[57, 100]),
   midi.NoteOnEvent(tick=132, channel=9, data=[57, 0]),
   midi.NoteOnEvent(tick=3324, channel=9, data=[57, 100]),
   midi.NoteOnEvent(tick=132, channel=9, data=[57, 0]),
   midi.NoteOnEvent(tick=444, channel=9, data=[57, 100]),
   midi.NoteOnEvent(tick=132, channel=9, data=[57, 0]),
   midi.NoteOnEvent(tick=444, channel=9, data=[57, 100]),
   midi.NoteOnEvent(tick=132, channel=9, data=[57, 0]),
   midi.NoteOnEvent(tick=444, channel=9, data=[57, 100]),
   midi.NoteOnEvent(tick=132, channel=9, data=[57, 0]),
   midi.NoteOnEvent(tick=444, channel=9, data=[57, 100]),
   midi.NoteOnEvent(tick=132, channel=9, data=[57, 0]),
   midi.NoteOnEvent(tick=2940, channel=9, data=[57, 100]),
   midi.NoteOnEvent(tick=132, channel=9, data=[57, 0]),
   midi.NoteOnEvent(tick=3324, channel=9, data=[57, 100]),
   midi.NoteOnEvent(tick=268, channel=9, data=[57, 0]),
   midi.EndOfTrackEvent(tick=0, data=[])]),
 midi.Track(\
  [midi.PortEvent(tick=0, data=[0]),
   midi.TrackNameEvent(tick=0, text='Five Magics', data=[70, 105, 118, 101, 32, 77, 97, 103, 105, 99, 115]),
   midi.ProgramChangeEvent(tick=0, channel=6, data=[7]),
   midi.ControlChangeEvent(tick=0, channel=6, data=[7, 99]),
   midi.ControlChangeEvent(tick=0, channel=6, data=[0, 0]),
   midi.EndOfTrackEvent(tick=0, data=[])]),
 midi.Track(\
  [midi.PortEvent(tick=0, data=[0]),
   midi.TrackNameEvent(tick=0, text='(c)1990, by MEGADETH', data=[40, 99, 41, 49, 57, 57, 48, 44, 32, 98, 121, 32, 77, 69, 71, 65, 68, 69, 84, 72]),
   midi.EndOfTrackEvent(tick=0, data=[])]),
 midi.Track(\
  [midi.PortEvent(tick=0, data=[0]),
   midi.TrackNameEvent(tick=0, text='1996, Sequenzed by', data=[49, 57, 57, 54, 44, 32, 83, 101, 113, 117, 101, 110, 122, 101, 100, 32, 98, 121]),
   midi.EndOfTrackEvent(tick=0, data=[])]),
 midi.Track(\
  [midi.PortEvent(tick=0, data=[0]),
   midi.TrackNameEvent(tick=0, text='Joddy Ari Krisnadi', data=[74, 111, 100, 100, 121, 32, 65, 114, 105, 32, 75, 114, 105, 115, 110, 97, 100, 105]),
   midi.EndOfTrackEvent(tick=0, data=[])])])