midi.Pattern(format=1, resolution=192, tracks=\
[midi.Track(\
  [midi.TextMetaEvent(tick=0, text='Disposable Heroes', data=[68, 105, 115, 112, 111, 115, 97, 98, 108, 101, 32, 72, 101, 114, 111, 101, 115]),
   midi.TextMetaEvent(tick=0, text='By Metallica', data=[66, 121, 32, 77, 101, 116, 97, 108, 108, 105, 99, 97]),
   midi.CopyrightMetaEvent(tick=0, text='Copyright \xa9 1996 by NoteWorthy ArtWare, Inc.\rAll Rights Reserved', data=[67, 111, 112, 121, 114, 105, 103, 104, 116, 32, 169, 32, 49, 57, 57, 54, 32, 98, 121, 32, 78, 111, 116, 101, 87, 111, 114, 116, 104, 121, 32, 65, 114, 116, 87, 97, 114, 101, 44, 32, 73, 110, 99, 46, 13, 65, 108, 108, 32, 82, 105, 103, 104, 116, 115, 32, 82, 101, 115, 101, 114, 118, 101, 100]),
   midi.TextMetaEvent(tick=0, text='Generated by NoteWorthy Composer', data=[71, 101, 110, 101, 114, 97, 116, 101, 100, 32, 98, 121, 32, 78, 111, 116, 101, 87, 111, 114, 116, 104, 121, 32, 67, 111, 109, 112, 111, 115, 101, 114]),
   midi.KeySignatureEvent(tick=0, data=[1, 0]),
   midi.TimeSignatureEvent(tick=0, data=[6, 2, 24, 8]),
   midi.SetTempoEvent(tick=0, data=[4, 209, 141]),
   midi.SetTempoEvent(tick=0, data=[4, 209, 141]),
   midi.SetTempoEvent(tick=0, data=[4, 209, 141]),
   midi.SetTempoEvent(tick=0, data=[4, 209, 141]),
   midi.SetTempoEvent(tick=0, data=[4, 209, 141]),
   midi.TimeSignatureEvent(tick=19584, data=[4, 2, 24, 8]),
   midi.SetTempoEvent(tick=24576, data=[4, 147, 224]),
   midi.SetTempoEvent(tick=0, data=[4, 147, 224]),
   midi.SetTempoEvent(tick=0, data=[4, 147, 224]),
   midi.SetTempoEvent(tick=0, data=[4, 147, 224]),
   midi.SetTempoEvent(tick=0, data=[4, 147, 224]),
   midi.SetTempoEvent(tick=6144, data=[4, 209, 141]),
   midi.SetTempoEvent(tick=0, data=[4, 209, 141]),
   midi.SetTempoEvent(tick=0, data=[4, 209, 141]),
   midi.SetTempoEvent(tick=0, data=[4, 209, 141]),
   midi.SetTempoEvent(tick=0, data=[4, 209, 141]),
   midi.SetTempoEvent(tick=1536, data=[4, 209, 141]),
   midi.SetTempoEvent(tick=0, data=[4, 209, 141]),
   midi.SetTempoEvent(tick=0, data=[4, 209, 141]),
   midi.SetTempoEvent(tick=0, data=[4, 209, 141]),
   midi.SetTempoEvent(tick=0, data=[4, 209, 141]),
   midi.TimeSignatureEvent(tick=16896, data=[4, 2, 24, 8]),
   midi.TimeSignatureEvent(tick=1536, data=[3, 2, 24, 8]),
   midi.TimeSignatureEvent(tick=1152, data=[4, 2, 24, 8]),
   midi.TimeSignatureEvent(tick=1536, data=[3, 2, 24, 8]),
   midi.TimeSignatureEvent(tick=1152, data=[4, 2, 24, 8]),
   midi.TimeSignatureEvent(tick=1536, data=[3, 2, 24, 8]),
   midi.TimeSignatureEvent(tick=1152, data=[4, 2, 24, 8]),
   midi.TimeSignatureEvent(tick=1536, data=[3, 2, 24, 8]),
   midi.TimeSignatureEvent(tick=1152, data=[4, 2, 24, 8]),
   midi.TimeSignatureEvent(tick=1536, data=[3, 2, 24, 8]),
   midi.TimeSignatureEvent(tick=1152, data=[4, 2, 24, 8]),
   midi.TimeSignatureEvent(tick=1536, data=[3, 2, 24, 8]),
   midi.TimeSignatureEvent(tick=1152, data=[4, 2, 24, 8]),
   midi.TimeSignatureEvent(tick=13056, data=[7, 3, 24, 8]),
   midi.TimeSignatureEvent(tick=672, data=[2, 2, 24, 8]),
   midi.TimeSignatureEvent(tick=12672, data=[4, 2, 24, 8]),
   midi.TimeSignatureEvent(tick=1536, data=[3, 2, 24, 8]),
   midi.TimeSignatureEvent(tick=1152, data=[4, 2, 24, 8]),
   midi.TimeSignatureEvent(tick=1536, data=[3, 2, 24, 8]),
   midi.TimeSignatureEvent(tick=1152, data=[4, 2, 24, 8]),
   midi.TimeSignatureEvent(tick=1536, data=[3, 2, 24, 8]),
   midi.TimeSignatureEvent(tick=1152, data=[4, 2, 24, 8]),
   midi.TimeSignatureEvent(tick=1536, data=[3, 2, 24, 8]),
   midi.TimeSignatureEvent(tick=1152, data=[4, 2, 24, 8]),
   midi.TimeSignatureEvent(tick=1536, data=[3, 2, 24, 8]),
   midi.TimeSignatureEvent(tick=1152, data=[4, 2, 24, 8]),
   midi.TimeSignatureEvent(tick=1536, data=[3, 2, 24, 8]),
   midi.TimeSignatureEvent(tick=1152, data=[4, 2, 24, 8]),
   midi.TimeSignatureEvent(tick=13056, data=[7, 3, 24, 8]),
   midi.TimeSignatureEvent(tick=672, data=[2, 2, 24, 8]),
   midi.TimeSignatureEvent(tick=384, data=[7, 3, 24, 8]),
   midi.TimeSignatureEvent(tick=672, data=[4, 2, 24, 8]),
   midi.TimeSignatureEvent(tick=3072, data=[4, 2, 24, 8]),
   midi.TimeSignatureEvent(tick=52224, data=[7, 3, 24, 8]),
   midi.TimeSignatureEvent(tick=672, data=[4, 2, 24, 8]),
   midi.SetTempoEvent(tick=3072, data=[4, 147, 224]),
   midi.SetTempoEvent(tick=0, data=[4, 147, 224]),
   midi.SetTempoEvent(tick=0, data=[4, 147, 224]),
   midi.SetTempoEvent(tick=0, data=[4, 147, 224]),
   midi.SetTempoEvent(tick=0, data=[4, 147, 224]),
   midi.SetTempoEvent(tick=6144, data=[4, 209, 141]),
   midi.SetTempoEvent(tick=0, data=[4, 209, 141]),
   midi.SetTempoEvent(tick=0, data=[4, 209, 141]),
   midi.SetTempoEvent(tick=0, data=[4, 209, 141]),
   midi.SetTempoEvent(tick=0, data=[4, 209, 141]),
   midi.TimeSignatureEvent(tick=12288, data=[4, 2, 24, 8]),
   midi.TimeSignatureEvent(tick=1536, data=[3, 2, 24, 8]),
   midi.TimeSignatureEvent(tick=1152, data=[4, 2, 24, 8]),
   midi.TimeSignatureEvent(tick=1536, data=[3, 2, 24, 8]),
   midi.TimeSignatureEvent(tick=1152, data=[4, 2, 24, 8]),
   midi.TimeSignatureEvent(tick=1536, data=[3, 2, 24, 8]),
   midi.TimeSignatureEvent(tick=1152, data=[4, 2, 24, 8]),
   midi.TimeSignatureEvent(tick=1536, data=[3, 2, 24, 8]),
   midi.TimeSignatureEvent(tick=1152, data=[4, 2, 24, 8]),
   midi.TimeSignatureEvent(tick=1536, data=[3, 2, 24, 8]),
   midi.TimeSignatureEvent(tick=1152, data=[4, 2, 24, 8]),
   midi.TimeSignatureEvent(tick=1536, data=[3, 2, 24, 8]),
   midi.TimeSignatureEvent(tick=1152, data=[4, 2, 24, 8]),
   midi.TimeSignatureEvent(tick=25344, data=[7, 3, 24, 8]),
   midi.EndOfTrackEvent(tick=0, data=[])]),
 midi.Track(\
  [midi.PortEvent(tick=0, data=[0]),
   midi.TextMetaEvent(tick=0, text='Vocals', data=[86, 111, 99, 97, 108, 115]),
   midi.TrackNameEvent(tick=0, text='Vocals', data=[86, 111, 99, 97, 108, 115]),
   midi.InstrumentNameEvent(tick=0, text='Vocals', data=[86, 111, 99, 97, 108, 115]),
   midi.ProgramChangeEvent(tick=0, channel=0, data=[52]),
   midi.ControlChangeEvent(tick=0, channel=0, data=[7, 127]),
   midi.ControlChangeEvent(tick=0, channel=0, data=[10, 64]),
   midi.SetTempoEvent(tick=48768, data=[4, 147, 224]),
   midi.SetTempoEvent(tick=51, data=[4, 159, 182]),
   midi.SetTempoEvent(tick=51, data=[4, 171, 202]),
   midi.SetTempoEvent(tick=51, data=[4, 184, 30]),
   midi.SetTempoEvent(tick=51, data=[4, 196, 180]),
   midi.SetTempoEvent(tick=52, data=[4, 209, 141]),
   midi.SetTempoEvent(tick=51, data=[4, 222, 172]),
   midi.SetTempoEvent(tick=51, data=[4, 236, 20]),
   midi.SetTempoEvent(tick=51, data=[4, 249, 198]),
   midi.SetTempoEvent(tick=51, data=[5, 7, 198]),
   midi.SetTempoEvent(tick=52, data=[5, 22, 21]),
   midi.SetTempoEvent(tick=51, data=[5, 36, 182]),
   midi.SetTempoEvent(tick=51, data=[5, 51, 173]),
   midi.SetTempoEvent(tick=51, data=[5, 66, 251]),
   midi.SetTempoEvent(tick=51, data=[5, 82, 165]),
   midi.SetTempoEvent(tick=52, data=[5, 98, 173]),
   midi.NoteOnEvent(tick=6912, channel=0, data=[76, 110]),
   midi.NoteOnEvent(tick=94, channel=0, data=[76, 0]),
   midi.NoteOnEvent(tick=2, channel=0, data=[76, 110]),
   midi.NoteOnEvent(tick=160, channel=0, data=[76, 0]),
   midi.NoteOnEvent(tick=32, channel=0, data=[76, 110]),
   midi.NoteOnEvent(tick=190, channel=0, data=[76, 0]),
   midi.NoteOnEvent(tick=2, channel=0, data=[76, 110]),
   midi.NoteOnEvent(tick=160, channel=0, data=[76, 0]),
   midi.NoteOnEvent(tick=32, channel=0, data=[79, 110]),
   midi.NoteOnEvent(tick=190, channel=0, data=[79, 0]),
   midi.NoteOnEvent(tick=2, channel=0, data=[79, 110]),
   midi.NoteOnEvent(tick=160, channel=0, data=[79, 0]),
   midi.NoteOnEvent(tick=32, channel=0, data=[79, 110]),
   midi.NoteOnEvent(tick=256, channel=0, data=[79, 0]),
   midi.NoteOnEvent(tick=224, channel=0, data=[74, 110]),
   midi.NoteOnEvent(tick=94, channel=0, data=[74, 0]),
   midi.NoteOnEvent(tick=2, channel=0, data=[76, 110]),
   midi.NoteOnEvent(tick=160, channel=0, data=[76, 0]),
   midi.NoteOnEvent(tick=32, channel=0, data=[76, 110]),
   midi.NoteOnEvent(tick=190, channel=0, data=[76, 0]),
   midi.NoteOnEvent(tick=2, channel=0, data=[76, 110]),
   midi.NoteOnEvent(tick=160, channel=0, data=[76, 0]),
   midi.NoteOnEvent(tick=32, channel=0, data=[78, 110]),
   midi.NoteOnEvent(tick=256, channel=0, data=[78, 0]),
   midi.NoteOnEvent(tick=608, channel=0, data=[76, 110]),
   midi.NoteOnEvent(tick=94, channel=0, data=[76, 0]),
   midi.NoteOnEvent(tick=2, channel=0, data=[76, 110]),
   midi.NoteOnEvent(tick=160, channel=0, data=[76, 0]),
   midi.NoteOnEvent(tick=32, channel=0, data=[76, 110]),
   midi.NoteOnEvent(tick=190, channel=0, data=[76, 0]),
   midi.NoteOnEvent(tick=2, channel=0, data=[76, 110]),
   midi.NoteOnEvent(tick=160, channel=0, data=[76, 0]),
   midi.NoteOnEvent(tick=32, channel=0, data=[79, 110]),
   midi.NoteOnEvent(tick=190, channel=0, data=[79, 0]),
   midi.NoteOnEvent(tick=2, channel=0, data=[79, 110]),
   midi.NoteOnEvent(tick=160, channel=0, data=[79, 0]),
   midi.NoteOnEvent(tick=32, channel=0, data=[79, 110]),
   midi.NoteOnEvent(tick=256, channel=0, data=[79, 0]),
   midi.NoteOnEvent(tick=224, channel=0, data=[74, 110]),
   midi.NoteOnEvent(tick=94, channel=0, data=[74, 0]),
   midi.NoteOnEvent(tick=2, channel=0, data=[76, 110]),
   midi.NoteOnEvent(tick=160, channel=0, data=[76, 0]),
   midi.NoteOnEvent(tick=32, channel=0, data=[76, 110]),
   midi.NoteOnEvent(tick=190, channel=0, data=[76, 0]),
   midi.NoteOnEvent(tick=2, channel=0, data=[76, 110]),
   midi.NoteOnEvent(tick=160, channel=0, data=[76, 0]),
   midi.NoteOnEvent(tick=32, channel=0, data=[78, 110]),
   midi.NoteOnEvent(tick=256, channel=0, data=[78, 0]),
   midi.NoteOnEvent(tick=608, channel=0, data=[76, 110]),
   midi.NoteOnEvent(tick=94, channel=0, data=[76, 0]),
   midi.NoteOnEvent(tick=2, channel=0, data=[76, 110]),
   midi.NoteOnEvent(tick=160, channel=0, data=[76, 0]),
   midi.NoteOnEvent(tick=32, channel=0, data=[76, 110]),
   midi.NoteOnEvent(tick=190, channel=0, data=[76, 0]),
   midi.NoteOnEvent(tick=2, channel=0, data=[76, 110]),
   midi.NoteOnEvent(tick=160, channel=0, data=[76, 0]),
   midi.NoteOnEvent(tick=32, channel=0, data=[79, 110]),
   midi.NoteOnEvent(tick=190, channel=0, data=[79, 0]),
   midi.NoteOnEvent(tick=2, channel=0, data=[79, 110]),
   midi.NoteOnEvent(tick=160, channel=0, data=[79, 0]),
   midi.NoteOnEvent(tick=32, channel=0, data=[79, 110]),
   midi.NoteOnEvent(tick=256, channel=0, data=[79, 0]),
   midi.NoteOnEvent(tick=224, channel=0, data=[74, 110]),
   midi.NoteOnEvent(tick=160, channel=0, data=[74, 0]),
   midi.NoteOnEvent(tick=32, channel=0, data=[76, 110]),
   midi.NoteOnEvent(tick=94, channel=0, data=[76, 0]),
   midi.NoteOnEvent(tick=2, channel=0, data=[76, 110]),
   midi.NoteOnEvent(tick=190, channel=0, data=[76, 0]),
   midi.NoteOnEvent(tick=2, channel=0, data=[76, 110]),
   midi.NoteOnEvent(tick=160, channel=0, data=[76, 0]),
   midi.NoteOnEvent(tick=32, channel=0, data=[78, 110]),
   midi.NoteOnEvent(tick=256, channel=0, data=[78, 0]),
   midi.NoteOnEvent(tick=608, channel=0, data=[76, 110]),
   midi.NoteOnEvent(tick=94, channel=0, data=[76, 0]),
   midi.NoteOnEvent(tick=2, channel=0, data=[76, 110]),
   midi.NoteOnEvent(tick=160, channel=0, data=[76, 0]),
   midi.NoteOnEvent(tick=32, channel=0, data=[76, 110]),
   midi.NoteOnEvent(tick=190, channel=0, data=[76, 0]),
   midi.NoteOnEvent(tick=2, channel=0, data=[76, 110]),
   midi.NoteOnEvent(tick=160, channel=0, data=[76, 0]),
   midi.NoteOnEvent(tick=32, channel=0, data=[79, 110]),
   midi.NoteOnEvent(tick=190, channel=0, data=[79, 0]),
   midi.NoteOnEvent(tick=2, channel=0, data=[79, 110]),
   midi.NoteOnEvent(tick=160, channel=0, data=[79, 0]),
   midi.NoteOnEvent(tick=32, channel=0, data=[79, 110]),
   midi.NoteOnEvent(tick=256, channel=0, data=[79, 0]),
   midi.NoteOnEvent(tick=128, channel=0, data=[71, 110]),
   midi.NoteOnEvent(tick=94, channel=0, data=[71, 0]),
   midi.NoteOnEvent(tick=2, channel=0, data=[74, 110]),
   midi.NoteOnEvent(tick=94, channel=0, data=[74, 0]),
   midi.NoteOnEvent(tick=2, channel=0, data=[76, 110]),
   midi.NoteOnEvent(tick=160, channel=0, data=[76, 0]),
   midi.NoteOnEvent(tick=32, channel=0, data=[76, 110]),
   midi.NoteOnEvent(tick=190, channel=0, data=[76, 0]),
   midi.NoteOnEvent(tick=2, channel=0, data=[76, 110]),
   midi.NoteOnEvent(tick=160, channel=0, data=[76, 0]),
   midi.NoteOnEvent(tick=32, channel=0, data=[76, 110]),
   midi.NoteOnEvent(tick=432, channel=0, data=[76, 0]),
   midi.NoteOnEvent(tick=432, channel=0, data=[73, 110]),
   midi.NoteOnEvent(tick=94, channel=0, data=[73, 0]),
   midi.NoteOnEvent(tick=2, channel=0, data=[73, 110]),
   midi.NoteOnEvent(tick=160, channel=0, data=[73, 0]),
   midi.NoteOnEvent(tick=32, channel=0, data=[73, 110]),
   midi.NoteOnEvent(tick=256, channel=0, data=[73, 0]),
   midi.NoteOnEvent(tick=224, channel=0, data=[73, 110]),
   midi.NoteOnEvent(tick=94, channel=0, data=[73, 0]),
   midi.NoteOnEvent(tick=2, channel=0, data=[73, 110]),
   midi.NoteOnEvent(tick=160, channel=0, data=[73, 0]),
   midi.NoteOnEvent(tick=32, channel=0, data=[73, 110]),
   midi.NoteOnEvent(tick=256, channel=0, data=[73, 0]),
   midi.NoteOnEvent(tick=224, channel=0, data=[73, 110]),
   midi.NoteOnEvent(tick=94, channel=0, data=[73, 0]),
   midi.NoteOnEvent(tick=2, channel=0, data=[73, 110]),
   midi.NoteOnEvent(tick=160, channel=0, data=[73, 0]),
   midi.NoteOnEvent(tick=32, channel=0, data=[73, 110]),
   midi.NoteOnEvent(tick=142, channel=0, data=[73, 0]),
   midi.NoteOnEvent(tick=2, channel=0, data=[73, 110]),
   midi.NoteOnEvent(tick=142, channel=0, data=[73, 0]),
   midi.NoteOnEvent(tick=2, channel=0, data=[75, 110]),
   midi.NoteOnEvent(tick=256, channel=0, data=[75, 0]),
   midi.NoteOnEvent(tick=32, channel=0, data=[73, 110]),
   midi.NoteOnEvent(tick=256, channel=0, data=[73, 0]),
   midi.NoteOnEvent(tick=32, channel=0, data=[73, 110]),
   midi.NoteOnEvent(tick=94, channel=0, data=[73, 0]),
   midi.NoteOnEvent(tick=2, channel=0, data=[73, 110]),
   midi.NoteOnEvent(tick=160, channel=0, data=[73, 0]),
   midi.NoteOnEvent(tick=32, channel=0, data=[73, 110]),
   midi.NoteOnEvent(tick=256, channel=0, data=[73, 0]),
   midi.NoteOnEvent(tick=224, channel=0, data=[73, 110]),
   midi.NoteOnEvent(tick=94, channel=0, data=[73, 0]),
   midi.NoteOnEvent(tick=2, channel=0, data=[73, 110]),
   midi.NoteOnEvent(tick=160, channel=0, data=[73, 0]),
   midi.NoteOnEvent(tick=32, channel=0, data=[73, 110]),
   midi.NoteOnEvent(tick=256, channel=0, data=[73, 0]),
   midi.NoteOnEvent(tick=224, channel=0, data=[73, 110]),
   midi.NoteOnEvent(tick=94, channel=0, data=[73, 0]),
   midi.NoteOnEvent(tick=2, channel=0, data=[73, 110]),
   midi.NoteOnEvent(tick=160, channel=0, data=[73, 0]),
   midi.NoteOnEvent(tick=32, channel=0, data=[73, 110]),
   midi.NoteOnEvent(tick=142, channel=0, data=[73, 0]),
   midi.NoteOnEvent(tick=2, channel=0, data=[73, 110]),
   midi.NoteOnEvent(tick=142, channel=0, data=[73, 0]),
   midi.NoteOnEvent(tick=2, channel=0, data=[75, 110]),
   midi.NoteOnEvent(tick=256, channel=0, data=[75, 0]),
   midi.NoteOnEvent(tick=32, channel=0, data=[73, 110]),
   midi.NoteOnEvent(tick=256, channel=0, data=[73, 0]),
   midi.NoteOnEvent(tick=32, channel=0, data=[77, 110]),
   midi.NoteOnEvent(tick=94, channel=0, data=[77, 0]),
   midi.NoteOnEvent(tick=2, channel=0, data=[77, 110]),
   midi.NoteOnEvent(tick=160, channel=0, data=[77, 0]),
   midi.NoteOnEvent(tick=32, channel=0, data=[77, 110]),
   midi.NoteOnEvent(tick=256, channel=0, data=[77, 0]),
   midi.NoteOnEvent(tick=224, channel=0, data=[77, 110]),
   midi.NoteOnEvent(tick=94, channel=0, data=[77, 0]),
   midi.NoteOnEvent(tick=2, channel=0, data=[77, 110]),
   midi.NoteOnEvent(tick=160, channel=0, data=[77, 0]),
   midi.NoteOnEvent(tick=32, channel=0, data=[77, 110]),
   midi.NoteOnEvent(tick=256, channel=0, data=[77, 0]),
   midi.NoteOnEvent(tick=224, channel=0, data=[77, 110]),
   midi.NoteOnEvent(tick=94, channel=0, data=[77, 0]),
   midi.NoteOnEvent(tick=2, channel=0, data=[77, 110]),
   midi.NoteOnEvent(tick=160, channel=0, data=[77, 0]),
   midi.NoteOnEvent(tick=32, channel=0, data=[77, 110]),
   midi.NoteOnEvent(tick=142, channel=0, data=[77, 0]),
   midi.NoteOnEvent(tick=2, channel=0, data=[77, 110]),
   midi.NoteOnEvent(tick=142, channel=0, data=[77, 0]),
   midi.NoteOnEvent(tick=2, channel=0, data=[78, 110]),
   midi.NoteOnEvent(tick=336, channel=0, data=[78, 0]),
   midi.NoteOnEvent(tick=240, channel=0, data=[80, 110]),
   midi.NoteOnEvent(tick=94, channel=0, data=[80, 0]),
   midi.NoteOnEvent(tick=2, channel=0, data=[80, 110]),
   midi.NoteOnEvent(tick=160, channel=0, data=[80, 0]),
   midi.NoteOnEvent(tick=32, channel=0, data=[80, 110]),
   midi.NoteOnEvent(tick=256, channel=0, data=[80, 0]),
   midi.NoteOnEvent(tick=224, channel=0, data=[80, 110]),
   midi.NoteOnEvent(tick=94, channel=0, data=[80, 0]),
   midi.NoteOnEvent(tick=2, channel=0, data=[80, 110]),
   midi.NoteOnEvent(tick=160, channel=0, data=[80, 0]),
   midi.NoteOnEvent(tick=32, channel=0, data=[80, 110]),
   midi.NoteOnEvent(tick=256, channel=0, data=[80, 0]),
   midi.NoteOnEvent(tick=128, channel=0, data=[80, 110]),
   midi.NoteOnEvent(tick=94, channel=0, data=[80, 0]),
   midi.NoteOnEvent(tick=2, channel=0, data=[80, 110]),
   midi.NoteOnEvent(tick=160, channel=0, data=[80, 0]),
   midi.NoteOnEvent(tick=32, channel=0, data=[80, 110]),
   midi.NoteOnEvent(tick=94, channel=0, data=[80, 0]),
   midi.NoteOnEvent(tick=2, channel=0, data=[80, 110]),
   midi.NoteOnEvent(tick=142, channel=0, data=[80, 0]),
   midi.NoteOnEvent(tick=2, channel=0, data=[80, 110]),
   midi.NoteOnEvent(tick=142, channel=0, data=[80, 0]),
   midi.NoteOnEvent(tick=2, channel=0, data=[78, 110]),
   midi.NoteOnEvent(tick=528, channel=0, data=[78, 0]),
   midi.NoteOnEvent(tick=9264, channel=0, data=[76, 110]),
   midi.NoteOnEvent(tick=94, channel=0, data=[76, 0]),
   midi.NoteOnEvent(tick=2, channel=0, data=[76, 110]),
   midi.NoteOnEvent(tick=94, channel=0, data=[76, 0]),
   midi.NoteOnEvent(tick=2, channel=0, data=[76, 110]),
   midi.NoteOnEvent(tick=94, channel=0, data=[76, 0]),
   midi.NoteOnEvent(tick=2, channel=0, data=[76, 110]),
   midi.NoteOnEvent(tick=256, channel=0, data=[76, 0]),
   midi.NoteOnEvent(tick=416, channel=0, data=[79, 110]),
   midi.NoteOnEvent(tick=94, channel=0, data=[79, 0]),
   midi.NoteOnEvent(tick=2, channel=0, data=[81, 110]),
   midi.NoteOnEvent(tick=190, channel=0, data=[81, 0]),
   midi.NoteOnEvent(tick=2, channel=0, data=[79, 110]),
   midi.NoteOnEvent(tick=256, channel=0, data=[79, 0]),
   midi.NoteOnEvent(tick=224, channel=0, data=[78, 110]),
   midi.NoteOnEvent(tick=94, channel=0, data=[78, 0]),
   midi.NoteOnEvent(tick=2, channel=0, data=[79, 110]),
   midi.NoteOnEvent(tick=190, channel=0, data=[79, 0]),
   midi.NoteOnEvent(tick=2, channel=0, data=[78, 110]),
   midi.NoteOnEvent(tick=256, channel=0, data=[78, 0]),
   midi.NoteOnEvent(tick=224, channel=0, data=[78, 110]),
   midi.NoteOnEvent(tick=94, channel=0, data=[78, 0]),
   midi.NoteOnEvent(tick=2, channel=0, data=[79, 110]),
   midi.NoteOnEvent(tick=190, channel=0, data=[79, 0]),
   midi.NoteOnEvent(tick=2, channel=0, data=[79, 110]),
   midi.NoteOnEvent(tick=256, channel=0, data=[79, 0]),
   midi.NoteOnEvent(tick=32, channel=0, data=[76, 110]),
   midi.NoteOnEvent(tick=94, channel=0, data=[76, 0]),
   midi.NoteOnEvent(tick=2, channel=0, data=[76, 110]),
   midi.NoteOnEvent(tick=94, channel=0, data=[76, 0]),
   midi.NoteOnEvent(tick=2, channel=0, data=[76, 110]),
   midi.NoteOnEvent(tick=94, channel=0, data=[76, 0]),
   midi.NoteOnEvent(tick=2, channel=0, data=[76, 110]),
   midi.NoteOnEvent(tick=256, channel=0, data=[76, 0]),
   midi.NoteOnEvent(tick=416, channel=0, data=[79, 110]),
   midi.NoteOnEvent(tick=94, channel=0, data=[79, 0]),
   midi.NoteOnEvent(tick=2, channel=0, data=[81, 110]),
   midi.NoteOnEvent(tick=190, channel=0, data=[81, 0]),
   midi.NoteOnEvent(tick=2, channel=0, data=[79, 110]),
   midi.NoteOnEvent(tick=256, channel=0, data=[79, 0]),
   midi.NoteOnEvent(tick=224, channel=0, data=[78, 110]),
   midi.NoteOnEvent(tick=94, channel=0, data=[78, 0]),
   midi.NoteOnEvent(tick=2, channel=0, data=[79, 110]),
   midi.NoteOnEvent(tick=190, channel=0, data=[79, 0]),
   midi.NoteOnEvent(tick=2, channel=0, data=[78, 110]),
   midi.NoteOnEvent(tick=256, channel=0, data=[78, 0]),
   midi.NoteOnEvent(tick=224, channel=0, data=[78, 110]),
   midi.NoteOnEvent(tick=94, channel=0, data=[78, 0]),
   midi.NoteOnEvent(tick=2, channel=0, data=[79, 110]),
   midi.NoteOnEvent(tick=190, channel=0, data=[79, 0]),
   midi.NoteOnEvent(tick=2, channel=0, data=[79, 110]),
   midi.NoteOnEvent(tick=256, channel=0, data=[79, 0]),
   midi.NoteOnEvent(tick=32, channel=0, data=[76, 110]),
   midi.NoteOnEvent(tick=94, channel=0, data=[76, 0]),
   midi.NoteOnEvent(tick=2, channel=0, data=[76, 110]),
   midi.NoteOnEvent(tick=94, channel=0, data=[76, 0]),
   midi.NoteOnEvent(tick=2, channel=0, data=[76, 110]),
   midi.NoteOnEvent(tick=94, channel=0, data=[76, 0]),
   midi.NoteOnEvent(tick=2, channel=0, data=[76, 110]),
   midi.NoteOnEvent(tick=256, channel=0, data=[76, 0]),
   midi.NoteOnEvent(tick=416, channel=0, data=[79, 110]),
   midi.NoteOnEvent(tick=94, channel=0, data=[79, 0]),
   midi.NoteOnEvent(tick=2, channel=0, data=[81, 110]),
   midi.NoteOnEvent(tick=190, channel=0, data=[81, 0]),
   midi.NoteOnEvent(tick=2, channel=0, data=[79, 110]),
   midi.NoteOnEvent(tick=256, channel=0, data=[79, 0]),
   midi.NoteOnEvent(tick=224, channel=0, data=[78, 110]),
   midi.NoteOnEvent(tick=94, channel=0, data=[78, 0]),
   midi.NoteOnEvent(tick=2, channel=0, data=[79, 110]),
   midi.NoteOnEvent(tick=190, channel=0, data=[79, 0]),
   midi.NoteOnEvent(tick=2, channel=0, data=[78, 110]),
   midi.NoteOnEvent(tick=256, channel=0, data=[78, 0]),
   midi.NoteOnEvent(tick=224, channel=0, data=[78, 110]),
   midi.NoteOnEvent(tick=94, channel=0, data=[78, 0]),
   midi.NoteOnEvent(tick=2, channel=0, data=[79, 110]),
   midi.NoteOnEvent(tick=190, channel=0, data=[79, 0]),
   midi.NoteOnEvent(tick=2, channel=0, data=[79, 110]),
   midi.NoteOnEvent(tick=256, channel=0, data=[79, 0]),
   midi.NoteOnEvent(tick=1088, channel=0, data=[76, 110]),
   midi.NoteOnEvent(tick=94, channel=0, data=[76, 0]),
   midi.NoteOnEvent(tick=2, channel=0, data=[76, 110]),
   midi.NoteOnEvent(tick=160, channel=0, data=[76, 0]),
   midi.NoteOnEvent(tick=32, channel=0, data=[76, 110]),
   midi.NoteOnEvent(tick=190, channel=0, data=[76, 0]),
   midi.NoteOnEvent(tick=2, channel=0, data=[76, 110]),
   midi.NoteOnEvent(tick=160, channel=0, data=[76, 0]),
   midi.NoteOnEvent(tick=32, channel=0, data=[79, 110]),
   midi.NoteOnEvent(tick=190, channel=0, data=[79, 0]),
   midi.NoteOnEvent(tick=2, channel=0, data=[79, 110]),
   midi.NoteOnEvent(tick=160, channel=0, data=[79, 0]),
   midi.NoteOnEvent(tick=32, channel=0, data=[79, 110]),
   midi.NoteOnEvent(tick=256, channel=0, data=[79, 0]),
   midi.NoteOnEvent(tick=224, channel=0, data=[74, 110]),
   midi.NoteOnEvent(tick=94, channel=0, data=[74, 0]),
   midi.NoteOnEvent(tick=2, channel=0, data=[76, 110]),
   midi.NoteOnEvent(tick=160, channel=0, data=[76, 0]),
   midi.NoteOnEvent(tick=32, channel=0, data=[76, 110]),
   midi.NoteOnEvent(tick=190, channel=0, data=[76, 0]),
   midi.NoteOnEvent(tick=2, channel=0, data=[76, 110]),
   midi.NoteOnEvent(tick=160, channel=0, data=[76, 0]),
   midi.NoteOnEvent(tick=32, channel=0, data=[78, 110]),
   midi.NoteOnEvent(tick=256, channel=0, data=[78, 0]),
   midi.NoteOnEvent(tick=608, channel=0, data=[76, 110]),
   midi.NoteOnEvent(tick=94, channel=0, data=[76, 0]),
   midi.NoteOnEvent(tick=2, channel=0, data=[76, 110]),
   midi.NoteOnEvent(tick=160, channel=0, data=[76, 0]),
   midi.NoteOnEvent(tick=32, channel=0, data=[76, 110]),
   midi.NoteOnEvent(tick=190, channel=0, data=[76, 0]),
   midi.NoteOnEvent(tick=2, channel=0, data=[76, 110]),
   midi.NoteOnEvent(tick=160, channel=0, data=[76, 0]),
   midi.NoteOnEvent(tick=32, channel=0, data=[79, 110]),
   midi.NoteOnEvent(tick=190, channel=0, data=[79, 0]),
   midi.NoteOnEvent(tick=2, channel=0, data=[79, 110]),
   midi.NoteOnEvent(tick=160, channel=0, data=[79, 0]),
   midi.NoteOnEvent(tick=32, channel=0, data=[79, 110]),
   midi.NoteOnEvent(tick=256, channel=0, data=[79, 0]),
   midi.NoteOnEvent(tick=224, channel=0, data=[74, 110]),
   midi.NoteOnEvent(tick=94, channel=0, data=[74, 0]),
   midi.NoteOnEvent(tick=2, channel=0, data=[76, 110]),
   midi.NoteOnEvent(tick=160, channel=0, data=[76, 0]),
   midi.NoteOnEvent(tick=32, channel=0, data=[76, 110]),
   midi.NoteOnEvent(tick=190, channel=0, data=[76, 0]),
   midi.NoteOnEvent(tick=2, channel=0, data=[76, 110]),
   midi.NoteOnEvent(tick=160, channel=0, data=[76, 0]),
   midi.NoteOnEvent(tick=32, channel=0, data=[78, 110]),
   midi.NoteOnEvent(tick=256, channel=0, data=[78, 0]),
   midi.NoteOnEvent(tick=608, channel=0, data=[76, 110]),
   midi.NoteOnEvent(tick=94, channel=0, data=[76, 0]),
   midi.NoteOnEvent(tick=2, channel=0, data=[76, 110]),
   midi.NoteOnEvent(tick=160, channel=0, data=[76, 0]),
   midi.NoteOnEvent(tick=32, channel=0, data=[76, 110]),
   midi.NoteOnEvent(tick=190, channel=0, data=[76, 0]),
   midi.NoteOnEvent(tick=2, channel=0, data=[76, 110]),
   midi.NoteOnEvent(tick=160, channel=0, data=[76, 0]),
   midi.NoteOnEvent(tick=32, channel=0, data=[79, 110]),
   midi.NoteOnEvent(tick=190, channel=0, data=[79, 0]),
   midi.NoteOnEvent(tick=2, channel=0, data=[79, 110]),
   midi.NoteOnEvent(tick=160, channel=0, data=[79, 0]),
   midi.NoteOnEvent(tick=32, channel=0, data=[79, 110]),
   midi.NoteOnEvent(tick=256, channel=0, data=[79, 0]),
   midi.NoteOnEvent(tick=224, channel=0, data=[74, 110]),
   midi.NoteOnEvent(tick=160, channel=0, data=[74, 0]),
   midi.NoteOnEvent(tick=32, channel=0, data=[76, 110]),
   midi.NoteOnEvent(tick=94, channel=0, data=[76, 0]),
   midi.NoteOnEvent(tick=2, channel=0, data=[76, 110]),
   midi.NoteOnEvent(tick=190, channel=0, data=[76, 0]),
   midi.NoteOnEvent(tick=2, channel=0, data=[76, 110]),
   midi.NoteOnEvent(tick=160, channel=0, data=[76, 0]),
   midi.NoteOnEvent(tick=32, channel=0, data=[78, 110]),
   midi.NoteOnEvent(tick=256, channel=0, data=[78, 0]),
   midi.NoteOnEvent(tick=608, channel=0, data=[76, 110]),
   midi.NoteOnEvent(tick=94, channel=0, data=[76, 0]),
   midi.NoteOnEvent(tick=2, channel=0, data=[76, 110]),
   midi.NoteOnEvent(tick=160, channel=0, data=[76, 0]),
   midi.NoteOnEvent(tick=32, channel=0, data=[76, 110]),
   midi.NoteOnEvent(tick=190, channel=0, data=[76, 0]),
   midi.NoteOnEvent(tick=2, channel=0, data=[76, 110]),
   midi.NoteOnEvent(tick=160, channel=0, data=[76, 0]),
   midi.NoteOnEvent(tick=32, channel=0, data=[79, 110]),
   midi.NoteOnEvent(tick=190, channel=0, data=[79, 0]),
   midi.NoteOnEvent(tick=2, channel=0, data=[79, 110]),
   midi.NoteOnEvent(tick=160, channel=0, data=[79, 0]),
   midi.NoteOnEvent(tick=32, channel=0, data=[79, 110]),
   midi.NoteOnEvent(tick=256, channel=0, data=[79, 0]),
   midi.NoteOnEvent(tick=128, channel=0, data=[71, 110]),
   midi.NoteOnEvent(tick=94, channel=0, data=[71, 0]),
   midi.NoteOnEvent(tick=2, channel=0, data=[74, 110]),
   midi.NoteOnEvent(tick=94, channel=0, data=[74, 0]),
   midi.NoteOnEvent(tick=2, channel=0, data=[76, 110]),
   midi.NoteOnEvent(tick=160, channel=0, data=[76, 0]),
   midi.NoteOnEvent(tick=32, channel=0, data=[76, 110]),
   midi.NoteOnEvent(tick=190, channel=0, data=[76, 0]),
   midi.NoteOnEvent(tick=2, channel=0, data=[76, 110]),
   midi.NoteOnEvent(tick=160, channel=0, data=[76, 0]),
   midi.NoteOnEvent(tick=32, channel=0, data=[76, 110]),
   midi.NoteOnEvent(tick=432, channel=0, data=[76, 0]),
   midi.NoteOnEvent(tick=432, channel=0, data=[73, 110]),
   midi.NoteOnEvent(tick=94, channel=0, data=[73, 0]),
   midi.NoteOnEvent(tick=2, channel=0, data=[73, 110]),
   midi.NoteOnEvent(tick=160, channel=0, data=[73, 0]),
   midi.NoteOnEvent(tick=32, channel=0, data=[73, 110]),
   midi.NoteOnEvent(tick=256, channel=0, data=[73, 0]),
   midi.NoteOnEvent(tick=224, channel=0, data=[73, 110]),
   midi.NoteOnEvent(tick=94, channel=0, data=[73, 0]),
   midi.NoteOnEvent(tick=2, channel=0, data=[73, 110]),
   midi.NoteOnEvent(tick=160, channel=0, data=[73, 0]),
   midi.NoteOnEvent(tick=32, channel=0, data=[73, 110]),
   midi.NoteOnEvent(tick=256, channel=0, data=[73, 0]),
   midi.NoteOnEvent(tick=224, channel=0, data=[73, 110]),
   midi.NoteOnEvent(tick=94, channel=0, data=[73, 0]),
   midi.NoteOnEvent(tick=2, channel=0, data=[73, 110]),
   midi.NoteOnEvent(tick=160, channel=0, data=[73, 0]),
   midi.NoteOnEvent(tick=32, channel=0, data=[73, 110]),
   midi.NoteOnEvent(tick=142, channel=0, data=[73, 0]),
   midi.NoteOnEvent(tick=2, channel=0, data=[73, 110]),
   midi.NoteOnEvent(tick=142, channel=0, data=[73, 0]),
   midi.NoteOnEvent(tick=2, channel=0, data=[75, 110]),
   midi.NoteOnEvent(tick=256, channel=0, data=[75, 0]),
   midi.NoteOnEvent(tick=32, channel=0, data=[73, 110]),
   midi.NoteOnEvent(tick=256, channel=0, data=[73, 0]),
   midi.NoteOnEvent(tick=32, channel=0, data=[73, 110]),
   midi.NoteOnEvent(tick=94, channel=0, data=[73, 0]),
   midi.NoteOnEvent(tick=2, channel=0, data=[73, 110]),
   midi.NoteOnEvent(tick=160, channel=0, data=[73, 0]),
   midi.NoteOnEvent(tick=32, channel=0, data=[73, 110]),
   midi.NoteOnEvent(tick=256, channel=0, data=[73, 0]),
   midi.NoteOnEvent(tick=224, channel=0, data=[73, 110]),
   midi.NoteOnEvent(tick=94, channel=0, data=[73, 0]),
   midi.NoteOnEvent(tick=2, channel=0, data=[73, 110]),
   midi.NoteOnEvent(tick=160, channel=0, data=[73, 0]),
   midi.NoteOnEvent(tick=32, channel=0, data=[73, 110]),
   midi.NoteOnEvent(tick=256, channel=0, data=[73, 0]),
   midi.NoteOnEvent(tick=224, channel=0, data=[73, 110]),
   midi.NoteOnEvent(tick=94, channel=0, data=[73, 0]),
   midi.NoteOnEvent(tick=2, channel=0, data=[73, 110]),
   midi.NoteOnEvent(tick=160, channel=0, data=[73, 0]),
   midi.NoteOnEvent(tick=32, channel=0, data=[73, 110]),
   midi.NoteOnEvent(tick=142, channel=0, data=[73, 0]),
   midi.NoteOnEvent(tick=2, channel=0, data=[73, 110]),
   midi.NoteOnEvent(tick=142, channel=0, data=[73, 0]),
   midi.NoteOnEvent(tick=2, channel=0, data=[75, 110]),
   midi.NoteOnEvent(tick=256, channel=0, data=[75, 0]),
   midi.NoteOnEvent(tick=32, channel=0, data=[73, 110]),
   midi.NoteOnEvent(tick=256, channel=0, data=[73, 0]),
   midi.NoteOnEvent(tick=32, channel=0, data=[77, 110]),
   midi.NoteOnEvent(tick=94, channel=0, data=[77, 0]),
   midi.NoteOnEvent(tick=2, channel=0, data=[77, 110]),
   midi.NoteOnEvent(tick=160, channel=0, data=[77, 0]),
   midi.NoteOnEvent(tick=32, channel=0, data=[77, 110]),
   midi.NoteOnEvent(tick=256, channel=0, data=[77, 0]),
   midi.NoteOnEvent(tick=224, channel=0, data=[77, 110]),
   midi.NoteOnEvent(tick=94, channel=0, data=[77, 0]),
   midi.NoteOnEvent(tick=2, channel=0, data=[77, 110]),
   midi.NoteOnEvent(tick=160, channel=0, data=[77, 0]),
   midi.NoteOnEvent(tick=32, channel=0, data=[77, 110]),
   midi.NoteOnEvent(tick=256, channel=0, data=[77, 0]),
   midi.NoteOnEvent(tick=224, channel=0, data=[77, 110]),
   midi.NoteOnEvent(tick=94, channel=0, data=[77, 0]),
   midi.NoteOnEvent(tick=2, channel=0, data=[77, 110]),
   midi.NoteOnEvent(tick=160, channel=0, data=[77, 0]),
   midi.NoteOnEvent(tick=32, channel=0, data=[77, 110]),
   midi.NoteOnEvent(tick=142, channel=0, data=[77, 0]),
   midi.NoteOnEvent(tick=2, channel=0, data=[77, 110]),
   midi.NoteOnEvent(tick=142, channel=0, data=[77, 0]),
   midi.NoteOnEvent(tick=2, channel=0, data=[78, 110]),
   midi.NoteOnEvent(tick=336, channel=0, data=[78, 0]),
   midi.NoteOnEvent(tick=240, channel=0, data=[80, 110]),
   midi.NoteOnEvent(tick=94, channel=0, data=[80, 0]),
   midi.NoteOnEvent(tick=2, channel=0, data=[80, 110]),
   midi.NoteOnEvent(tick=160, channel=0, data=[80, 0]),
   midi.NoteOnEvent(tick=32, channel=0, data=[80, 110]),
   midi.NoteOnEvent(tick=256, channel=0, data=[80, 0]),
   midi.NoteOnEvent(tick=224, channel=0, data=[80, 110]),
   midi.NoteOnEvent(tick=94, channel=0, data=[80, 0]),
   midi.NoteOnEvent(tick=2, channel=0, data=[80, 110]),
   midi.NoteOnEvent(tick=160, channel=0, data=[80, 0]),
   midi.NoteOnEvent(tick=32, channel=0, data=[80, 110]),
   midi.NoteOnEvent(tick=256, channel=0, data=[80, 0]),
   midi.NoteOnEvent(tick=128, channel=0, data=[80, 110]),
   midi.NoteOnEvent(tick=94, channel=0, data=[80, 0]),
   midi.NoteOnEvent(tick=2, channel=0, data=[80, 110]),
   midi.NoteOnEvent(tick=160, channel=0, data=[80, 0]),
   midi.NoteOnEvent(tick=32, channel=0, data=[80, 110]),
   midi.NoteOnEvent(tick=94, channel=0, data=[80, 0]),
   midi.NoteOnEvent(tick=2, channel=0, data=[80, 110]),
   midi.NoteOnEvent(tick=142, channel=0, data=[80, 0]),
   midi.NoteOnEvent(tick=2, channel=0, data=[80, 110]),
   midi.NoteOnEvent(tick=142, channel=0, data=[80, 0]),
   midi.NoteOnEvent(tick=2, channel=0, data=[78, 110]),
   midi.NoteOnEvent(tick=528, channel=0, data=[78, 0]),
   midi.NoteOnEvent(tick=9264, channel=0, data=[76, 110]),
   midi.NoteOnEvent(tick=94, channel=0, data=[76, 0]),
   midi.NoteOnEvent(tick=2, channel=0, data=[76, 110]),
   midi.NoteOnEvent(tick=94, channel=0, data=[76, 0]),
   midi.NoteOnEvent(tick=2, channel=0, data=[76, 110]),
   midi.NoteOnEvent(tick=94, channel=0, data=[76, 0]),
   midi.NoteOnEvent(tick=2, channel=0, data=[76, 110]),
   midi.NoteOnEvent(tick=256, channel=0, data=[76, 0]),
   midi.NoteOnEvent(tick=416, channel=0, data=[79, 110]),
   midi.NoteOnEvent(tick=94, channel=0, data=[79, 0]),
   midi.NoteOnEvent(tick=2, channel=0, data=[81, 110]),
   midi.NoteOnEvent(tick=190, channel=0, data=[81, 0]),
   midi.NoteOnEvent(tick=2, channel=0, data=[79, 110]),
   midi.NoteOnEvent(tick=256, channel=0, data=[79, 0]),
   midi.NoteOnEvent(tick=224, channel=0, data=[78, 110]),
   midi.NoteOnEvent(tick=94, channel=0, data=[78, 0]),
   midi.NoteOnEvent(tick=2, channel=0, data=[79, 110]),
   midi.NoteOnEvent(tick=190, channel=0, data=[79, 0]),
   midi.NoteOnEvent(tick=2, channel=0, data=[78, 110]),
   midi.NoteOnEvent(tick=256, channel=0, data=[78, 0]),
   midi.NoteOnEvent(tick=224, channel=0, data=[78, 110]),
   midi.NoteOnEvent(tick=94, channel=0, data=[78, 0]),
   midi.NoteOnEvent(tick=2, channel=0, data=[79, 110]),
   midi.NoteOnEvent(tick=190, channel=0, data=[79, 0]),
   midi.NoteOnEvent(tick=2, channel=0, data=[79, 110]),
   midi.NoteOnEvent(tick=256, channel=0, data=[79, 0]),
   midi.NoteOnEvent(tick=32, channel=0, data=[76, 110]),
   midi.NoteOnEvent(tick=94, channel=0, data=[76, 0]),
   midi.NoteOnEvent(tick=2, channel=0, data=[76, 110]),
   midi.NoteOnEvent(tick=94, channel=0, data=[76, 0]),
   midi.NoteOnEvent(tick=2, channel=0, data=[76, 110]),
   midi.NoteOnEvent(tick=94, channel=0, data=[76, 0]),
   midi.NoteOnEvent(tick=2, channel=0, data=[76, 110]),
   midi.NoteOnEvent(tick=256, channel=0, data=[76, 0]),
   midi.NoteOnEvent(tick=416, channel=0, data=[79, 110]),
   midi.NoteOnEvent(tick=94, channel=0, data=[79, 0]),
   midi.NoteOnEvent(tick=2, channel=0, data=[81, 110]),
   midi.NoteOnEvent(tick=190, channel=0, data=[81, 0]),
   midi.NoteOnEvent(tick=2, channel=0, data=[79, 110]),
   midi.NoteOnEvent(tick=256, channel=0, data=[79, 0]),
   midi.NoteOnEvent(tick=224, channel=0, data=[78, 110]),
   midi.NoteOnEvent(tick=94, channel=0, data=[78, 0]),
   midi.NoteOnEvent(tick=2, channel=0, data=[79, 110]),
   midi.NoteOnEvent(tick=190, channel=0, data=[79, 0]),
   midi.NoteOnEvent(tick=2, channel=0, data=[78, 110]),
   midi.NoteOnEvent(tick=256, channel=0, data=[78, 0]),
   midi.NoteOnEvent(tick=224, channel=0, data=[78, 110]),
   midi.NoteOnEvent(tick=94, channel=0, data=[78, 0]),
   midi.NoteOnEvent(tick=2, channel=0, data=[79, 110]),
   midi.NoteOnEvent(tick=190, channel=0, data=[79, 0]),
   midi.NoteOnEvent(tick=2, channel=0, data=[79, 110]),
   midi.NoteOnEvent(tick=256, channel=0, data=[79, 0]),
   midi.NoteOnEvent(tick=32, channel=0, data=[76, 110]),
   midi.NoteOnEvent(tick=94, channel=0, data=[76, 0]),
   midi.NoteOnEvent(tick=2, channel=0, data=[76, 110]),
   midi.NoteOnEvent(tick=94, channel=0, data=[76, 0]),
   midi.NoteOnEvent(tick=2, channel=0, data=[76, 110]),
   midi.NoteOnEvent(tick=94, channel=0, data=[76, 0]),
   midi.NoteOnEvent(tick=2, channel=0, data=[76, 110]),
   midi.NoteOnEvent(tick=256, channel=0, data=[76, 0]),
   midi.NoteOnEvent(tick=416, channel=0, data=[79, 110]),
   midi.NoteOnEvent(tick=94, channel=0, data=[79, 0]),
   midi.NoteOnEvent(tick=2, channel=0, data=[81, 110]),
   midi.NoteOnEvent(tick=190, channel=0, data=[81, 0]),
   midi.NoteOnEvent(tick=2, channel=0, data=[79, 110]),
   midi.NoteOnEvent(tick=256, channel=0, data=[79, 0]),
   midi.NoteOnEvent(tick=224, channel=0, data=[78, 110]),
   midi.NoteOnEvent(tick=94, channel=0, data=[78, 0]),
   midi.NoteOnEvent(tick=2, channel=0, data=[79, 110]),
   midi.NoteOnEvent(tick=190, channel=0, data=[79, 0]),
   midi.NoteOnEvent(tick=2, channel=0, data=[78, 110]),
   midi.NoteOnEvent(tick=256, channel=0, data=[78, 0]),
   midi.NoteOnEvent(tick=224, channel=0, data=[78, 110]),
   midi.NoteOnEvent(tick=94, channel=0, data=[78, 0]),
   midi.NoteOnEvent(tick=2, channel=0, data=[79, 110]),
   midi.NoteOnEvent(tick=190, channel=0, data=[79, 0]),
   midi.NoteOnEvent(tick=2, channel=0, data=[79, 110]),
   midi.NoteOnEvent(tick=256, channel=0, data=[79, 0]),
   midi.NoteOnEvent(tick=7904, channel=0, data=[76, 110]),
   midi.NoteOnEvent(tick=336, channel=0, data=[76, 0]),
   midi.NoteOnEvent(tick=432, channel=0, data=[81, 110]),
   midi.NoteOnEvent(tick=94, channel=0, data=[81, 0]),
   midi.NoteOnEvent(tick=2, channel=0, data=[81, 110]),
   midi.NoteOnEvent(tick=160, channel=0, data=[81, 0]),
   midi.NoteOnEvent(tick=32, channel=0, data=[81, 110]),
   midi.NoteOnEvent(tick=190, channel=0, data=[81, 0]),
   midi.NoteOnEvent(tick=2, channel=0, data=[79, 110]),
   midi.NoteOnEvent(tick=256, channel=0, data=[79, 0]),
   midi.NoteOnEvent(tick=32, channel=0, data=[76, 110]),
   midi.NoteOnEvent(tick=336, channel=0, data=[76, 0]),
   midi.NoteOnEvent(tick=432, channel=0, data=[76, 110]),
   midi.NoteOnEvent(tick=256, channel=0, data=[76, 0]),
   midi.NoteOnEvent(tick=32, channel=0, data=[76, 110]),
   midi.NoteOnEvent(tick=256, channel=0, data=[76, 0]),
   midi.NoteOnEvent(tick=32, channel=0, data=[76, 110]),
   midi.NoteOnEvent(tick=160, channel=0, data=[76, 0]),
   midi.NoteOnEvent(tick=32, channel=0, data=[76, 110]),
   midi.NoteOnEvent(tick=336, channel=0, data=[76, 0]),
   midi.NoteOnEvent(tick=432, channel=0, data=[81, 110]),
   midi.NoteOnEvent(tick=94, channel=0, data=[81, 0]),
   midi.NoteOnEvent(tick=2, channel=0, data=[81, 110]),
   midi.NoteOnEvent(tick=160, channel=0, data=[81, 0]),
   midi.NoteOnEvent(tick=32, channel=0, data=[81, 110]),
   midi.NoteOnEvent(tick=190, channel=0, data=[81, 0]),
   midi.NoteOnEvent(tick=2, channel=0, data=[79, 110]),
   midi.NoteOnEvent(tick=256, channel=0, data=[79, 0]),
   midi.NoteOnEvent(tick=32, channel=0, data=[76, 110]),
   midi.NoteOnEvent(tick=336, channel=0, data=[76, 0]),
   midi.NoteOnEvent(tick=432, channel=0, data=[76, 110]),
   midi.NoteOnEvent(tick=256, channel=0, data=[76, 0]),
   midi.NoteOnEvent(tick=32, channel=0, data=[76, 110]),
   midi.NoteOnEvent(tick=256, channel=0, data=[76, 0]),
   midi.NoteOnEvent(tick=32, channel=0, data=[79, 110]),
   midi.NoteOnEvent(tick=736, channel=0, data=[79, 0]),
   midi.NoteOnEvent(tick=36320, channel=0, data=[76, 110]),
   midi.NoteOnEvent(tick=336, channel=0, data=[76, 0]),
   midi.NoteOnEvent(tick=432, channel=0, data=[81, 110]),
   midi.NoteOnEvent(tick=94, channel=0, data=[81, 0]),
   midi.NoteOnEvent(tick=2, channel=0, data=[81, 110]),
   midi.NoteOnEvent(tick=160, channel=0, data=[81, 0]),
   midi.NoteOnEvent(tick=32, channel=0, data=[81, 110]),
   midi.NoteOnEvent(tick=190, channel=0, data=[81, 0]),
   midi.NoteOnEvent(tick=2, channel=0, data=[79, 110]),
   midi.NoteOnEvent(tick=256, channel=0, data=[79, 0]),
   midi.NoteOnEvent(tick=32, channel=0, data=[76, 110]),
   midi.NoteOnEvent(tick=336, channel=0, data=[76, 0]),
   midi.NoteOnEvent(tick=432, channel=0, data=[76, 110]),
   midi.NoteOnEvent(tick=256, channel=0, data=[76, 0]),
   midi.NoteOnEvent(tick=32, channel=0, data=[76, 110]),
   midi.NoteOnEvent(tick=256, channel=0, data=[76, 0]),
   midi.NoteOnEvent(tick=32, channel=0, data=[76, 110]),
   midi.NoteOnEvent(tick=160, channel=0, data=[76, 0]),
   midi.NoteOnEvent(tick=32, channel=0, data=[76, 110]),
   midi.NoteOnEvent(tick=336, channel=0, data=[76, 0]),
   midi.NoteOnEvent(tick=432, channel=0, data=[81, 110]),
   midi.NoteOnEvent(tick=94, channel=0, data=[81, 0]),
   midi.NoteOnEvent(tick=2, channel=0, data=[81, 110]),
   midi.NoteOnEvent(tick=160, channel=0, data=[81, 0]),
   midi.NoteOnEvent(tick=32, channel=0, data=[81, 110]),
   midi.NoteOnEvent(tick=190, channel=0, data=[81, 0]),
   midi.NoteOnEvent(tick=2, channel=0, data=[79, 110]),
   midi.NoteOnEvent(tick=256, channel=0, data=[79, 0]),
   midi.NoteOnEvent(tick=32, channel=0, data=[76, 110]),
   midi.NoteOnEvent(tick=336, channel=0, data=[76, 0]),
   midi.NoteOnEvent(tick=432, channel=0, data=[76, 110]),
   midi.NoteOnEvent(tick=256, channel=0, data=[76, 0]),
   midi.NoteOnEvent(tick=32, channel=0, data=[76, 110]),
   midi.NoteOnEvent(tick=256, channel=0, data=[76, 0]),
   midi.NoteOnEvent(tick=32, channel=0, data=[79, 110]),
   midi.NoteOnEvent(tick=192, channel=0, data=[79, 110]),
   midi.NoteOnEvent(tick=336, channel=0, data=[79, 0]),
   midi.NoteOnEvent(tick=336, channel=0, data=[76, 110]),
   midi.NoteOnEvent(tick=160, channel=0, data=[76, 0]),
   midi.NoteOnEvent(tick=32, channel=0, data=[76, 110]),
   midi.NoteOnEvent(tick=160, channel=0, data=[76, 0]),
   midi.NoteOnEvent(tick=32, channel=0, data=[76, 110]),
   midi.NoteOnEvent(tick=160, channel=0, data=[76, 0]),
   midi.NoteOnEvent(tick=32, channel=0, data=[76, 110]),
   midi.NoteOnEvent(tick=160, channel=0, data=[76, 0]),
   midi.NoteOnEvent(tick=32, channel=0, data=[79, 110]),
   midi.NoteOnEvent(tick=160, channel=0, data=[79, 0]),
   midi.NoteOnEvent(tick=32, channel=0, data=[79, 110]),
   midi.NoteOnEvent(tick=2064, channel=0, data=[79, 0]),
   midi.SetTempoEvent(tick=4656, data=[4, 147, 224]),
   midi.SetTempoEvent(tick=51, data=[4, 159, 182]),
   midi.SetTempoEvent(tick=51, data=[4, 171, 202]),
   midi.SetTempoEvent(tick=51, data=[4, 184, 30]),
   midi.SetTempoEvent(tick=51, data=[4, 196, 180]),
   midi.SetTempoEvent(tick=52, data=[4, 209, 141]),
   midi.SetTempoEvent(tick=51, data=[4, 222, 172]),
   midi.SetTempoEvent(tick=51, data=[4, 236, 20]),
   midi.SetTempoEvent(tick=51, data=[4, 249, 198]),
   midi.SetTempoEvent(tick=51, data=[5, 7, 198]),
   midi.SetTempoEvent(tick=52, data=[5, 22, 21]),
   midi.SetTempoEvent(tick=51, data=[5, 36, 182]),
   midi.SetTempoEvent(tick=51, data=[5, 51, 173]),
   midi.SetTempoEvent(tick=51, data=[5, 66, 251]),
   midi.SetTempoEvent(tick=51, data=[5, 82, 165]),
   midi.SetTempoEvent(tick=52, data=[5, 98, 173]),
   midi.NoteOnEvent(tick=768, channel=0, data=[76, 110]),
   midi.NoteOnEvent(tick=94, channel=0, data=[76, 0]),
   midi.NoteOnEvent(tick=2, channel=0, data=[76, 110]),
   midi.NoteOnEvent(tick=160, channel=0, data=[76, 0]),
   midi.NoteOnEvent(tick=32, channel=0, data=[76, 110]),
   midi.NoteOnEvent(tick=190, channel=0, data=[76, 0]),
   midi.NoteOnEvent(tick=2, channel=0, data=[76, 110]),
   midi.NoteOnEvent(tick=160, channel=0, data=[76, 0]),
   midi.NoteOnEvent(tick=32, channel=0, data=[79, 110]),
   midi.NoteOnEvent(tick=190, channel=0, data=[79, 0]),
   midi.NoteOnEvent(tick=2, channel=0, data=[79, 110]),
   midi.NoteOnEvent(tick=160, channel=0, data=[79, 0]),
   midi.NoteOnEvent(tick=32, channel=0, data=[79, 110]),
   midi.NoteOnEvent(tick=256, channel=0, data=[79, 0]),
   midi.NoteOnEvent(tick=224, channel=0, data=[74, 110]),
   midi.NoteOnEvent(tick=94, channel=0, data=[74, 0]),
   midi.NoteOnEvent(tick=2, channel=0, data=[76, 110]),
   midi.NoteOnEvent(tick=160, channel=0, data=[76, 0]),
   midi.NoteOnEvent(tick=32, channel=0, data=[76, 110]),
   midi.NoteOnEvent(tick=190, channel=0, data=[76, 0]),
   midi.NoteOnEvent(tick=2, channel=0, data=[76, 110]),
   midi.NoteOnEvent(tick=160, channel=0, data=[76, 0]),
   midi.NoteOnEvent(tick=32, channel=0, data=[78, 110]),
   midi.NoteOnEvent(tick=256, channel=0, data=[78, 0]),
   midi.NoteOnEvent(tick=608, channel=0, data=[76, 110]),
   midi.NoteOnEvent(tick=94, channel=0, data=[76, 0]),
   midi.NoteOnEvent(tick=2, channel=0, data=[76, 110]),
   midi.NoteOnEvent(tick=160, channel=0, data=[76, 0]),
   midi.NoteOnEvent(tick=32, channel=0, data=[76, 110]),
   midi.NoteOnEvent(tick=190, channel=0, data=[76, 0]),
   midi.NoteOnEvent(tick=2, channel=0, data=[76, 110]),
   midi.NoteOnEvent(tick=160, channel=0, data=[76, 0]),
   midi.NoteOnEvent(tick=32, channel=0, data=[79, 110]),
   midi.NoteOnEvent(tick=190, channel=0, data=[79, 0]),
   midi.NoteOnEvent(tick=2, channel=0, data=[79, 110]),
   midi.NoteOnEvent(tick=160, channel=0, data=[79, 0]),
   midi.NoteOnEvent(tick=32, channel=0, data=[79, 110]),
   midi.NoteOnEvent(tick=256, channel=0, data=[79, 0]),
   midi.NoteOnEvent(tick=224, channel=0, data=[74, 110]),
   midi.NoteOnEvent(tick=94, channel=0, data=[74, 0]),
   midi.NoteOnEvent(tick=2, channel=0, data=[76, 110]),
   midi.NoteOnEvent(tick=160, channel=0, data=[76, 0]),
   midi.NoteOnEvent(tick=32, channel=0, data=[76, 110]),
   midi.NoteOnEvent(tick=190, channel=0, data=[76, 0]),
   midi.NoteOnEvent(tick=2, channel=0, data=[76, 110]),
   midi.NoteOnEvent(tick=160, channel=0, data=[76, 0]),
   midi.NoteOnEvent(tick=32, channel=0, data=[78, 110]),
   midi.NoteOnEvent(tick=256, channel=0, data=[78, 0]),
   midi.NoteOnEvent(tick=608, channel=0, data=[76, 110]),
   midi.NoteOnEvent(tick=94, channel=0, data=[76, 0]),
   midi.NoteOnEvent(tick=2, channel=0, data=[76, 110]),
   midi.NoteOnEvent(tick=160, channel=0, data=[76, 0]),
   midi.NoteOnEvent(tick=32, channel=0, data=[76, 110]),
   midi.NoteOnEvent(tick=190, channel=0, data=[76, 0]),
   midi.NoteOnEvent(tick=2, channel=0, data=[76, 110]),
   midi.NoteOnEvent(tick=160, channel=0, data=[76, 0]),
   midi.NoteOnEvent(tick=32, channel=0, data=[79, 110]),
   midi.NoteOnEvent(tick=190, channel=0, data=[79, 0]),
   midi.NoteOnEvent(tick=2, channel=0, data=[79, 110]),
   midi.NoteOnEvent(tick=160, channel=0, data=[79, 0]),
   midi.NoteOnEvent(tick=32, channel=0, data=[79, 110]),
   midi.NoteOnEvent(tick=256, channel=0, data=[79, 0]),
   midi.NoteOnEvent(tick=224, channel=0, data=[74, 110]),
   midi.NoteOnEvent(tick=160, channel=0, data=[74, 0]),
   midi.NoteOnEvent(tick=32, channel=0, data=[76, 110]),
   midi.NoteOnEvent(tick=94, channel=0, data=[76, 0]),
   midi.NoteOnEvent(tick=2, channel=0, data=[76, 110]),
   midi.NoteOnEvent(tick=190, channel=0, data=[76, 0]),
   midi.NoteOnEvent(tick=2, channel=0, data=[76, 110]),
   midi.NoteOnEvent(tick=160, channel=0, data=[76, 0]),
   midi.NoteOnEvent(tick=32, channel=0, data=[78, 110]),
   midi.NoteOnEvent(tick=256, channel=0, data=[78, 0]),
   midi.NoteOnEvent(tick=608, channel=0, data=[76, 110]),
   midi.NoteOnEvent(tick=94, channel=0, data=[76, 0]),
   midi.NoteOnEvent(tick=2, channel=0, data=[76, 110]),
   midi.NoteOnEvent(tick=160, channel=0, data=[76, 0]),
   midi.NoteOnEvent(tick=32, channel=0, data=[76, 110]),
   midi.NoteOnEvent(tick=190, channel=0, data=[76, 0]),
   midi.NoteOnEvent(tick=2, channel=0, data=[76, 110]),
   midi.NoteOnEvent(tick=160, channel=0, data=[76, 0]),
   midi.NoteOnEvent(tick=32, channel=0, data=[79, 110]),
   midi.NoteOnEvent(tick=190, channel=0, data=[79, 0]),
   midi.NoteOnEvent(tick=2, channel=0, data=[79, 110]),
   midi.NoteOnEvent(tick=160, channel=0, data=[79, 0]),
   midi.NoteOnEvent(tick=32, channel=0, data=[79, 110]),
   midi.NoteOnEvent(tick=256, channel=0, data=[79, 0]),
   midi.NoteOnEvent(tick=128, channel=0, data=[71, 110]),
   midi.NoteOnEvent(tick=94, channel=0, data=[71, 0]),
   midi.NoteOnEvent(tick=2, channel=0, data=[74, 110]),
   midi.NoteOnEvent(tick=94, channel=0, data=[74, 0]),
   midi.NoteOnEvent(tick=2, channel=0, data=[76, 110]),
   midi.NoteOnEvent(tick=160, channel=0, data=[76, 0]),
   midi.NoteOnEvent(tick=32, channel=0, data=[76, 110]),
   midi.NoteOnEvent(tick=190, channel=0, data=[76, 0]),
   midi.NoteOnEvent(tick=2, channel=0, data=[76, 110]),
   midi.NoteOnEvent(tick=160, channel=0, data=[76, 0]),
   midi.NoteOnEvent(tick=32, channel=0, data=[76, 110]),
   midi.NoteOnEvent(tick=432, channel=0, data=[76, 0]),
   midi.NoteOnEvent(tick=432, channel=0, data=[73, 110]),
   midi.NoteOnEvent(tick=94, channel=0, data=[73, 0]),
   midi.NoteOnEvent(tick=2, channel=0, data=[73, 110]),
   midi.NoteOnEvent(tick=160, channel=0, data=[73, 0]),
   midi.NoteOnEvent(tick=32, channel=0, data=[73, 110]),
   midi.NoteOnEvent(tick=256, channel=0, data=[73, 0]),
   midi.NoteOnEvent(tick=224, channel=0, data=[73, 110]),
   midi.NoteOnEvent(tick=94, channel=0, data=[73, 0]),
   midi.NoteOnEvent(tick=2, channel=0, data=[73, 110]),
   midi.NoteOnEvent(tick=160, channel=0, data=[73, 0]),
   midi.NoteOnEvent(tick=32, channel=0, data=[73, 110]),
   midi.NoteOnEvent(tick=256, channel=0, data=[73, 0]),
   midi.NoteOnEvent(tick=224, channel=0, data=[73, 110]),
   midi.NoteOnEvent(tick=94, channel=0, data=[73, 0]),
   midi.NoteOnEvent(tick=2, channel=0, data=[73, 110]),
   midi.NoteOnEvent(tick=160, channel=0, data=[73, 0]),
   midi.NoteOnEvent(tick=32, channel=0, data=[73, 110]),
   midi.NoteOnEvent(tick=142, channel=0, data=[73, 0]),
   midi.NoteOnEvent(tick=2, channel=0, data=[73, 110]),
   midi.NoteOnEvent(tick=142, channel=0, data=[73, 0]),
   midi.NoteOnEvent(tick=2, channel=0, data=[75, 110]),
   midi.NoteOnEvent(tick=256, channel=0, data=[75, 0]),
   midi.NoteOnEvent(tick=32, channel=0, data=[73, 110]),
   midi.NoteOnEvent(tick=256, channel=0, data=[73, 0]),
   midi.NoteOnEvent(tick=32, channel=0, data=[73, 110]),
   midi.NoteOnEvent(tick=94, channel=0, data=[73, 0]),
   midi.NoteOnEvent(tick=2, channel=0, data=[73, 110]),
   midi.NoteOnEvent(tick=160, channel=0, data=[73, 0]),
   midi.NoteOnEvent(tick=32, channel=0, data=[73, 110]),
   midi.NoteOnEvent(tick=256, channel=0, data=[73, 0]),
   midi.NoteOnEvent(tick=224, channel=0, data=[73, 110]),
   midi.NoteOnEvent(tick=94, channel=0, data=[73, 0]),
   midi.NoteOnEvent(tick=2, channel=0, data=[73, 110]),
   midi.NoteOnEvent(tick=160, channel=0, data=[73, 0]),
   midi.NoteOnEvent(tick=32, channel=0, data=[73, 110]),
   midi.NoteOnEvent(tick=256, channel=0, data=[73, 0]),
   midi.NoteOnEvent(tick=224, channel=0, data=[73, 110]),
   midi.NoteOnEvent(tick=94, channel=0, data=[73, 0]),
   midi.NoteOnEvent(tick=2, channel=0, data=[73, 110]),
   midi.NoteOnEvent(tick=160, channel=0, data=[73, 0]),
   midi.NoteOnEvent(tick=32, channel=0, data=[73, 110]),
   midi.NoteOnEvent(tick=142, channel=0, data=[73, 0]),
   midi.NoteOnEvent(tick=2, channel=0, data=[73, 110]),
   midi.NoteOnEvent(tick=142, channel=0, data=[73, 0]),
   midi.NoteOnEvent(tick=2, channel=0, data=[75, 110]),
   midi.NoteOnEvent(tick=256, channel=0, data=[75, 0]),
   midi.NoteOnEvent(tick=32, channel=0, data=[73, 110]),
   midi.NoteOnEvent(tick=256, channel=0, data=[73, 0]),
   midi.NoteOnEvent(tick=32, channel=0, data=[77, 110]),
   midi.NoteOnEvent(tick=94, channel=0, data=[77, 0]),
   midi.NoteOnEvent(tick=2, channel=0, data=[77, 110]),
   midi.NoteOnEvent(tick=160, channel=0, data=[77, 0]),
   midi.NoteOnEvent(tick=32, channel=0, data=[77, 110]),
   midi.NoteOnEvent(tick=256, channel=0, data=[77, 0]),
   midi.NoteOnEvent(tick=224, channel=0, data=[77, 110]),
   midi.NoteOnEvent(tick=94, channel=0, data=[77, 0]),
   midi.NoteOnEvent(tick=2, channel=0, data=[77, 110]),
   midi.NoteOnEvent(tick=160, channel=0, data=[77, 0]),
   midi.NoteOnEvent(tick=32, channel=0, data=[77, 110]),
   midi.NoteOnEvent(tick=256, channel=0, data=[77, 0]),
   midi.NoteOnEvent(tick=224, channel=0, data=[77, 110]),
   midi.NoteOnEvent(tick=94, channel=0, data=[77, 0]),
   midi.NoteOnEvent(tick=2, channel=0, data=[77, 110]),
   midi.NoteOnEvent(tick=160, channel=0, data=[77, 0]),
   midi.NoteOnEvent(tick=32, channel=0, data=[77, 110]),
   midi.NoteOnEvent(tick=142, channel=0, data=[77, 0]),
   midi.NoteOnEvent(tick=2, channel=0, data=[77, 110]),
   midi.NoteOnEvent(tick=142, channel=0, data=[77, 0]),
   midi.NoteOnEvent(tick=2, channel=0, data=[78, 110]),
   midi.NoteOnEvent(tick=336, channel=0, data=[78, 0]),
   midi.NoteOnEvent(tick=240, channel=0, data=[80, 110]),
   midi.NoteOnEvent(tick=94, channel=0, data=[80, 0]),
   midi.NoteOnEvent(tick=2, channel=0, data=[80, 110]),
   midi.NoteOnEvent(tick=160, channel=0, data=[80, 0]),
   midi.NoteOnEvent(tick=32, channel=0, data=[80, 110]),
   midi.NoteOnEvent(tick=256, channel=0, data=[80, 0]),
   midi.NoteOnEvent(tick=224, channel=0, data=[80, 110]),
   midi.NoteOnEvent(tick=94, channel=0, data=[80, 0]),
   midi.NoteOnEvent(tick=2, channel=0, data=[80, 110]),
   midi.NoteOnEvent(tick=160, channel=0, data=[80, 0]),
   midi.NoteOnEvent(tick=32, channel=0, data=[80, 110]),
   midi.NoteOnEvent(tick=256, channel=0, data=[80, 0]),
   midi.NoteOnEvent(tick=128, channel=0, data=[80, 110]),
   midi.NoteOnEvent(tick=94, channel=0, data=[80, 0]),
   midi.NoteOnEvent(tick=2, channel=0, data=[80, 110]),
   midi.NoteOnEvent(tick=160, channel=0, data=[80, 0]),
   midi.NoteOnEvent(tick=32, channel=0, data=[80, 110]),
   midi.NoteOnEvent(tick=94, channel=0, data=[80, 0]),
   midi.NoteOnEvent(tick=2, channel=0, data=[80, 110]),
   midi.NoteOnEvent(tick=142, channel=0, data=[80, 0]),
   midi.NoteOnEvent(tick=2, channel=0, data=[80, 110]),
   midi.NoteOnEvent(tick=142, channel=0, data=[80, 0]),
   midi.NoteOnEvent(tick=2, channel=0, data=[78, 110]),
   midi.NoteOnEvent(tick=528, channel=0, data=[78, 0]),
   midi.NoteOnEvent(tick=9264, channel=0, data=[76, 110]),
   midi.NoteOnEvent(tick=94, channel=0, data=[76, 0]),
   midi.NoteOnEvent(tick=2, channel=0, data=[76, 110]),
   midi.NoteOnEvent(tick=94, channel=0, data=[76, 0]),
   midi.NoteOnEvent(tick=2, channel=0, data=[76, 110]),
   midi.NoteOnEvent(tick=94, channel=0, data=[76, 0]),
   midi.NoteOnEvent(tick=2, channel=0, data=[76, 110]),
   midi.NoteOnEvent(tick=256, channel=0, data=[76, 0]),
   midi.NoteOnEvent(tick=416, channel=0, data=[79, 110]),
   midi.NoteOnEvent(tick=94, channel=0, data=[79, 0]),
   midi.NoteOnEvent(tick=2, channel=0, data=[81, 110]),
   midi.NoteOnEvent(tick=190, channel=0, data=[81, 0]),
   midi.NoteOnEvent(tick=2, channel=0, data=[79, 110]),
   midi.NoteOnEvent(tick=256, channel=0, data=[79, 0]),
   midi.NoteOnEvent(tick=224, channel=0, data=[78, 110]),
   midi.NoteOnEvent(tick=94, channel=0, data=[78, 0]),
   midi.NoteOnEvent(tick=2, channel=0, data=[79, 110]),
   midi.NoteOnEvent(tick=190, channel=0, data=[79, 0]),
   midi.NoteOnEvent(tick=2, channel=0, data=[78, 110]),
   midi.NoteOnEvent(tick=256, channel=0, data=[78, 0]),
   midi.NoteOnEvent(tick=224, channel=0, data=[78, 110]),
   midi.NoteOnEvent(tick=94, channel=0, data=[78, 0]),
   midi.NoteOnEvent(tick=2, channel=0, data=[79, 110]),
   midi.NoteOnEvent(tick=190, channel=0, data=[79, 0]),
   midi.NoteOnEvent(tick=2, channel=0, data=[79, 110]),
   midi.NoteOnEvent(tick=256, channel=0, data=[79, 0]),
   midi.NoteOnEvent(tick=32, channel=0, data=[76, 110]),
   midi.NoteOnEvent(tick=94, channel=0, data=[76, 0]),
   midi.NoteOnEvent(tick=2, channel=0, data=[76, 110]),
   midi.NoteOnEvent(tick=94, channel=0, data=[76, 0]),
   midi.NoteOnEvent(tick=2, channel=0, data=[76, 110]),
   midi.NoteOnEvent(tick=94, channel=0, data=[76, 0]),
   midi.NoteOnEvent(tick=2, channel=0, data=[76, 110]),
   midi.NoteOnEvent(tick=256, channel=0, data=[76, 0]),
   midi.NoteOnEvent(tick=416, channel=0, data=[79, 110]),
   midi.NoteOnEvent(tick=94, channel=0, data=[79, 0]),
   midi.NoteOnEvent(tick=2, channel=0, data=[81, 110]),
   midi.NoteOnEvent(tick=190, channel=0, data=[81, 0]),
   midi.NoteOnEvent(tick=2, channel=0, data=[79, 110]),
   midi.NoteOnEvent(tick=256, channel=0, data=[79, 0]),
   midi.NoteOnEvent(tick=224, channel=0, data=[78, 110]),
   midi.NoteOnEvent(tick=94, channel=0, data=[78, 0]),
   midi.NoteOnEvent(tick=2, channel=0, data=[79, 110]),
   midi.NoteOnEvent(tick=190, channel=0, data=[79, 0]),
   midi.NoteOnEvent(tick=2, channel=0, data=[78, 110]),
   midi.NoteOnEvent(tick=256, channel=0, data=[78, 0]),
   midi.NoteOnEvent(tick=224, channel=0, data=[78, 110]),
   midi.NoteOnEvent(tick=94, channel=0, data=[78, 0]),
   midi.NoteOnEvent(tick=2, channel=0, data=[79, 110]),
   midi.NoteOnEvent(tick=190, channel=0, data=[79, 0]),
   midi.NoteOnEvent(tick=2, channel=0, data=[79, 110]),
   midi.NoteOnEvent(tick=256, channel=0, data=[79, 0]),
   midi.NoteOnEvent(tick=32, channel=0, data=[76, 110]),
   midi.NoteOnEvent(tick=94, channel=0, data=[76, 0]),
   midi.NoteOnEvent(tick=2, channel=0, data=[76, 110]),
   midi.NoteOnEvent(tick=94, channel=0, data=[76, 0]),
   midi.NoteOnEvent(tick=2, channel=0, data=[76, 110]),
   midi.NoteOnEvent(tick=94, channel=0, data=[76, 0]),
   midi.NoteOnEvent(tick=2, channel=0, data=[76, 110]),
   midi.NoteOnEvent(tick=256, channel=0, data=[76, 0]),
   midi.NoteOnEvent(tick=416, channel=0, data=[79, 110]),
   midi.NoteOnEvent(tick=94, channel=0, data=[79, 0]),
   midi.NoteOnEvent(tick=2, channel=0, data=[81, 110]),
   midi.NoteOnEvent(tick=190, channel=0, data=[81, 0]),
   midi.NoteOnEvent(tick=2, channel=0, data=[79, 110]),
   midi.NoteOnEvent(tick=256, channel=0, data=[79, 0]),
   midi.NoteOnEvent(tick=224, channel=0, data=[78, 110]),
   midi.NoteOnEvent(tick=94, channel=0, data=[78, 0]),
   midi.NoteOnEvent(tick=2, channel=0, data=[79, 110]),
   midi.NoteOnEvent(tick=190, channel=0, data=[79, 0]),
   midi.NoteOnEvent(tick=2, channel=0, data=[78, 110]),
   midi.NoteOnEvent(tick=256, channel=0, data=[78, 0]),
   midi.NoteOnEvent(tick=224, channel=0, data=[75, 110]),
   midi.NoteOnEvent(tick=94, channel=0, data=[75, 0]),
   midi.NoteOnEvent(tick=2, channel=0, data=[74, 110]),
   midi.NoteOnEvent(tick=190, channel=0, data=[74, 0]),
   midi.NoteOnEvent(tick=2, channel=0, data=[73, 110]),
   midi.NoteOnEvent(tick=256, channel=0, data=[73, 0]),
   midi.NoteOnEvent(tick=32, channel=0, data=[76, 110]),
   midi.NoteOnEvent(tick=94, channel=0, data=[76, 0]),
   midi.NoteOnEvent(tick=2, channel=0, data=[72, 110]),
   midi.NoteOnEvent(tick=94, channel=0, data=[72, 0]),
   midi.NoteOnEvent(tick=2, channel=0, data=[72, 110]),
   midi.NoteOnEvent(tick=160, channel=0, data=[72, 0]),
   midi.NoteOnEvent(tick=32, channel=0, data=[71, 110]),
   midi.NoteOnEvent(tick=160, channel=0, data=[71, 0]),
   midi.NoteOnEvent(tick=2528, channel=0, data=[76, 110]),
   midi.NoteOnEvent(tick=94, channel=0, data=[76, 0]),
   midi.NoteOnEvent(tick=2, channel=0, data=[76, 110]),
   midi.NoteOnEvent(tick=94, channel=0, data=[76, 0]),
   midi.NoteOnEvent(tick=2, channel=0, data=[76, 110]),
   midi.NoteOnEvent(tick=94, channel=0, data=[76, 0]),
   midi.NoteOnEvent(tick=2, channel=0, data=[76, 110]),
   midi.NoteOnEvent(tick=256, channel=0, data=[76, 0]),
   midi.NoteOnEvent(tick=2528, channel=0, data=[76, 110]),
   midi.NoteOnEvent(tick=94, channel=0, data=[76, 0]),
   midi.NoteOnEvent(tick=2, channel=0, data=[76, 110]),
   midi.NoteOnEvent(tick=94, channel=0, data=[76, 0]),
   midi.NoteOnEvent(tick=2, channel=0, data=[76, 110]),
   midi.NoteOnEvent(tick=94, channel=0, data=[76, 0]),
   midi.NoteOnEvent(tick=2, channel=0, data=[76, 110]),
   midi.NoteOnEvent(tick=256, channel=0, data=[76, 0]),
   midi.NoteOnEvent(tick=2528, channel=0, data=[76, 110]),
   midi.NoteOnEvent(tick=94, channel=0, data=[76, 0]),
   midi.NoteOnEvent(tick=2, channel=0, data=[76, 110]),
   midi.NoteOnEvent(tick=94, channel=0, data=[76, 0]),
   midi.NoteOnEvent(tick=2, channel=0, data=[76, 110]),
   midi.NoteOnEvent(tick=94, channel=0, data=[76, 0]),
   midi.NoteOnEvent(tick=2, channel=0, data=[76, 110]),
   midi.NoteOnEvent(tick=256, channel=0, data=[76, 0]),
   midi.NoteOnEvent(tick=2528, channel=0, data=[76, 110]),
   midi.NoteOnEvent(tick=94, channel=0, data=[76, 0]),
   midi.NoteOnEvent(tick=2, channel=0, data=[76, 110]),
   midi.NoteOnEvent(tick=94, channel=0, data=[76, 0]),
   midi.NoteOnEvent(tick=2, channel=0, data=[76, 110]),
   midi.NoteOnEvent(tick=94, channel=0, data=[76, 0]),
   midi.NoteOnEvent(tick=2, channel=0, data=[76, 110]),
   midi.NoteOnEvent(tick=352, channel=0, data=[76, 0]),
   midi.EndOfTrackEvent(tick=0, data=[])]),
 midi.Track(\
  [midi.PortEvent(tick=0, data=[0]),
   midi.TextMetaEvent(tick=0, text='Rhythm Guitar', data=[82, 104, 121, 116, 104, 109, 32, 71, 117, 105, 116, 97, 114]),
   midi.TrackNameEvent(tick=0, text='Rhythm Guitar', data=[82, 104, 121, 116, 104, 109, 32, 71, 117, 105, 116, 97, 114]),
   midi.InstrumentNameEvent(tick=0, text='Rhythm Guitar', data=[82, 104, 121, 116, 104, 109, 32, 71, 117, 105, 116, 97, 114]),
   midi.ProgramChangeEvent(tick=0, channel=1, data=[30]),
   midi.ControlChangeEvent(tick=0, channel=1, data=[7, 70]),
   midi.ControlChangeEvent(tick=0, channel=1, data=[10, 64]),
   midi.NoteOnEvent(tick=0, channel=1, data=[52, 110]),
   midi.NoteOnEvent(tick=94, channel=1, data=[52, 0]),
   midi.NoteOnEvent(tick=2, channel=1, data=[52, 110]),
   midi.NoteOnEvent(tick=94, channel=1, data=[52, 0]),
   midi.NoteOnEvent(tick=2, channel=1, data=[52, 110]),
   midi.NoteOnEvent(tick=94, channel=1, data=[52, 0]),
   midi.NoteOnEvent(tick=2, channel=1, data=[52, 110]),
   midi.NoteOnEvent(tick=94, channel=1, data=[52, 0]),
   midi.NoteOnEvent(tick=2, channel=1, data=[52, 110]),
   midi.NoteOnEvent(tick=94, channel=1, data=[52, 0]),
   midi.NoteOnEvent(tick=2, channel=1, data=[52, 110]),
   midi.NoteOnEvent(tick=94, channel=1, data=[52, 0]),
   midi.NoteOnEvent(tick=2, channel=1, data=[54, 110]),
   midi.NoteOnEvent(tick=0, channel=1, data=[61, 110]),
   midi.NoteOnEvent(tick=0, channel=1, data=[66, 110]),
   midi.NoteOnEvent(tick=160, channel=1, data=[54, 0]),
   midi.NoteOnEvent(tick=0, channel=1, data=[61, 0]),
   midi.NoteOnEvent(tick=0, channel=1, data=[66, 0]),
   midi.NoteOnEvent(tick=32, channel=1, data=[55, 110]),
   midi.NoteOnEvent(tick=0, channel=1, data=[62, 110]),
   midi.NoteOnEvent(tick=0, channel=1, data=[67, 110]),
   midi.NoteOnEvent(tick=160, channel=1, data=[55, 0]),
   midi.NoteOnEvent(tick=0, channel=1, data=[62, 0]),
   midi.NoteOnEvent(tick=0, channel=1, data=[67, 0]),
   midi.NoteOnEvent(tick=32, channel=1, data=[54, 110]),
   midi.NoteOnEvent(tick=0, channel=1, data=[61, 110]),
   midi.NoteOnEvent(tick=0, channel=1, data=[66, 110]),
   midi.NoteOnEvent(tick=160, channel=1, data=[54, 0]),
   midi.NoteOnEvent(tick=0, channel=1, data=[61, 0]),
   midi.NoteOnEvent(tick=0, channel=1, data=[66, 0]),
   midi.NoteOnEvent(tick=32, channel=1, data=[52, 110]),
   midi.NoteOnEvent(tick=94, channel=1, data=[52, 0]),
   midi.NoteOnEvent(tick=2, channel=1, data=[52, 110]),
   midi.NoteOnEvent(tick=94, channel=1, data=[52, 0]),
   midi.NoteOnEvent(tick=2, channel=1, data=[52, 110]),
   midi.NoteOnEvent(tick=94, channel=1, data=[52, 0]),
   midi.NoteOnEvent(tick=2, channel=1, data=[52, 110]),
   midi.NoteOnEvent(tick=94, channel=1, data=[52, 0]),
   midi.NoteOnEvent(tick=2, channel=1, data=[52, 110]),
   midi.NoteOnEvent(tick=94, channel=1, data=[52, 0]),
   midi.NoteOnEvent(tick=2, channel=1, data=[52, 110]),
   midi.NoteOnEvent(tick=94, channel=1, data=[52, 0]),
   midi.NoteOnEvent(tick=2, channel=1, data=[55, 110]),
   midi.NoteOnEvent(tick=0, channel=1, data=[62, 110]),
   midi.NoteOnEvent(tick=0, channel=1, data=[67, 110]),
   midi.NoteOnEvent(tick=160, channel=1, data=[55, 0]),
   midi.NoteOnEvent(tick=0, channel=1, data=[62, 0]),
   midi.NoteOnEvent(tick=0, channel=1, data=[67, 0]),
   midi.NoteOnEvent(tick=32, channel=1, data=[57, 110]),
   midi.NoteOnEvent(tick=0, channel=1, data=[64, 110]),
   midi.NoteOnEvent(tick=0, channel=1, data=[69, 110]),
   midi.NoteOnEvent(tick=160, channel=1, data=[57, 0]),
   midi.NoteOnEvent(tick=0, channel=1, data=[64, 0]),
   midi.NoteOnEvent(tick=0, channel=1, data=[69, 0]),
   midi.NoteOnEvent(tick=32, channel=1, data=[54, 110]),
   midi.NoteOnEvent(tick=0, channel=1, data=[61, 110]),
   midi.NoteOnEvent(tick=0, channel=1, data=[66, 110]),
   midi.NoteOnEvent(tick=160, channel=1, data=[54, 0]),
   midi.NoteOnEvent(tick=0, channel=1, data=[61, 0]),
   midi.NoteOnEvent(tick=0, channel=1, data=[66, 0]),
   midi.NoteOnEvent(tick=32, channel=1, data=[52, 110]),
   midi.NoteOnEvent(tick=94, channel=1, data=[52, 0]),
   midi.NoteOnEvent(tick=2, channel=1, data=[52, 110]),
   midi.NoteOnEvent(tick=94, channel=1, data=[52, 0]),
   midi.NoteOnEvent(tick=2, channel=1, data=[52, 110]),
   midi.NoteOnEvent(tick=94, channel=1, data=[52, 0]),
   midi.NoteOnEvent(tick=2, channel=1, data=[52, 110]),
   midi.NoteOnEvent(tick=94, channel=1, data=[52, 0]),
   midi.NoteOnEvent(tick=2, channel=1, data=[52, 110]),
   midi.NoteOnEvent(tick=94, channel=1, data=[52, 0]),
   midi.NoteOnEvent(tick=2, channel=1, data=[52, 110]),
   midi.NoteOnEvent(tick=94, channel=1, data=[52, 0]),
   midi.NoteOnEvent(tick=2, channel=1, data=[54, 110]),
   midi.NoteOnEvent(tick=0, channel=1, data=[61, 110]),
   midi.NoteOnEvent(tick=0, channel=1, data=[66, 110]),
   midi.NoteOnEvent(tick=160, channel=1, data=[54, 0]),
   midi.NoteOnEvent(tick=0, channel=1, data=[61, 0]),
   midi.NoteOnEvent(tick=0, channel=1, data=[66, 0]),
   midi.NoteOnEvent(tick=32, channel=1, data=[55, 110]),
   midi.NoteOnEvent(tick=0, channel=1, data=[62, 110]),
   midi.NoteOnEvent(tick=0, channel=1, data=[67, 110]),
   midi.NoteOnEvent(tick=160, channel=1, data=[55, 0]),
   midi.NoteOnEvent(tick=0, channel=1, data=[62, 0]),
   midi.NoteOnEvent(tick=0, channel=1, data=[67, 0]),
   midi.NoteOnEvent(tick=32, channel=1, data=[54, 110]),
   midi.NoteOnEvent(tick=0, channel=1, data=[61, 110]),
   midi.NoteOnEvent(tick=0, channel=1, data=[66, 110]),
   midi.NoteOnEvent(tick=160, channel=1, data=[54, 0]),
   midi.NoteOnEvent(tick=0, channel=1, data=[61, 0]),
   midi.NoteOnEvent(tick=0, channel=1, data=[66, 0]),
   midi.NoteOnEvent(tick=32, channel=1, data=[52, 110]),
   midi.NoteOnEvent(tick=94, channel=1, data=[52, 0]),
   midi.NoteOnEvent(tick=2, channel=1, data=[52, 110]),
   midi.NoteOnEvent(tick=94, channel=1, data=[52, 0]),
   midi.NoteOnEvent(tick=2, channel=1, data=[52, 110]),
   midi.NoteOnEvent(tick=94, channel=1, data=[52, 0]),
   midi.NoteOnEvent(tick=2, channel=1, data=[52, 110]),
   midi.NoteOnEvent(tick=94, channel=1, data=[52, 0]),
   midi.NoteOnEvent(tick=2, channel=1, data=[52, 110]),
   midi.NoteOnEvent(tick=94, channel=1, data=[52, 0]),
   midi.NoteOnEvent(tick=2, channel=1, data=[52, 110]),
   midi.NoteOnEvent(tick=94, channel=1, data=[52, 0]),
   midi.NoteOnEvent(tick=2, channel=1, data=[52, 110]),
   midi.NoteOnEvent(tick=94, channel=1, data=[52, 0]),
   midi.NoteOnEvent(tick=2, channel=1, data=[52, 110]),
   midi.NoteOnEvent(tick=94, channel=1, data=[52, 0]),
   midi.NoteOnEvent(tick=2, channel=1, data=[52, 110]),
   midi.NoteOnEvent(tick=94, channel=1, data=[52, 0]),
   midi.NoteOnEvent(tick=2, channel=1, data=[64, 110]),
   midi.NoteOnEvent(tick=0, channel=1, data=[71, 110]),
   midi.NoteOnEvent(tick=0, channel=1, data=[76, 110]),
   midi.NoteOnEvent(tick=256, channel=1, data=[64, 0]),
   midi.NoteOnEvent(tick=0, channel=1, data=[71, 0]),
   midi.NoteOnEvent(tick=0, channel=1, data=[76, 0]),
   midi.NoteOnEvent(tick=32, channel=1, data=[52, 110]),
   midi.NoteOnEvent(tick=94, channel=1, data=[52, 0]),
   midi.NoteOnEvent(tick=2, channel=1, data=[52, 110]),
   midi.NoteOnEvent(tick=94, channel=1, data=[52, 0]),
   midi.NoteOnEvent(tick=2, channel=1, data=[52, 110]),
   midi.NoteOnEvent(tick=94, channel=1, data=[52, 0]),
   midi.NoteOnEvent(tick=2, channel=1, data=[52, 110]),
   midi.NoteOnEvent(tick=94, channel=1, data=[52, 0]),
   midi.NoteOnEvent(tick=2, channel=1, data=[52, 110]),
   midi.NoteOnEvent(tick=94, channel=1, data=[52, 0]),
   midi.NoteOnEvent(tick=2, channel=1, data=[52, 110]),
   midi.NoteOnEvent(tick=94, channel=1, data=[52, 0]),
   midi.NoteOnEvent(tick=2, channel=1, data=[54, 110]),
   midi.NoteOnEvent(tick=0, channel=1, data=[61, 110]),
   midi.NoteOnEvent(tick=0, channel=1, data=[66, 110]),
   midi.NoteOnEvent(tick=160, channel=1, data=[54, 0]),
   midi.NoteOnEvent(tick=0, channel=1, data=[61, 0]),
   midi.NoteOnEvent(tick=0, channel=1, data=[66, 0]),
   midi.NoteOnEvent(tick=32, channel=1, data=[55, 110]),
   midi.NoteOnEvent(tick=0, channel=1, data=[62, 110]),
   midi.NoteOnEvent(tick=0, channel=1, data=[67, 110]),
   midi.NoteOnEvent(tick=160, channel=1, data=[55, 0]),
   midi.NoteOnEvent(tick=0, channel=1, data=[62, 0]),
   midi.NoteOnEvent(tick=0, channel=1, data=[67, 0]),
   midi.NoteOnEvent(tick=32, channel=1, data=[54, 110]),
   midi.NoteOnEvent(tick=0, channel=1, data=[61, 110]),
   midi.NoteOnEvent(tick=0, channel=1, data=[66, 110]),
   midi.NoteOnEvent(tick=160, channel=1, data=[54, 0]),
   midi.NoteOnEvent(tick=0, channel=1, data=[61, 0]),
   midi.NoteOnEvent(tick=0, channel=1, data=[66, 0]),
   midi.NoteOnEvent(tick=32, channel=1, data=[52, 110]),
   midi.NoteOnEvent(tick=94, channel=1, data=[52, 0]),
   midi.NoteOnEvent(tick=2, channel=1, data=[52, 110]),
   midi.NoteOnEvent(tick=94, channel=1, data=[52, 0]),
   midi.NoteOnEvent(tick=2, channel=1, data=[52, 110]),
   midi.NoteOnEvent(tick=94, channel=1, data=[52, 0]),
   midi.NoteOnEvent(tick=2, channel=1, data=[52, 110]),
   midi.NoteOnEvent(tick=94, channel=1, data=[52, 0]),
   midi.NoteOnEvent(tick=2, channel=1, data=[52, 110]),
   midi.NoteOnEvent(tick=94, channel=1, data=[52, 0]),
   midi.NoteOnEvent(tick=2, channel=1, data=[52, 110]),
   midi.NoteOnEvent(tick=94, channel=1, data=[52, 0]),
   midi.NoteOnEvent(tick=2, channel=1, data=[55, 110]),
   midi.NoteOnEvent(tick=0, channel=1, data=[62, 110]),
   midi.NoteOnEvent(tick=0, channel=1, data=[67, 110]),
   midi.NoteOnEvent(tick=160, channel=1, data=[55, 0]),
   midi.NoteOnEvent(tick=0, channel=1, data=[62, 0]),
   midi.NoteOnEvent(tick=0, channel=1, data=[67, 0]),
   midi.NoteOnEvent(tick=32, channel=1, data=[57, 110]),
   midi.NoteOnEvent(tick=0, channel=1, data=[64, 110]),
   midi.NoteOnEvent(tick=0, channel=1, data=[69, 110]),
   midi.NoteOnEvent(tick=160, channel=1, data=[57, 0]),
   midi.NoteOnEvent(tick=0, channel=1, data=[64, 0]),
   midi.NoteOnEvent(tick=0, channel=1, data=[69, 0]),
   midi.NoteOnEvent(tick=32, channel=1, data=[54, 110]),
   midi.NoteOnEvent(tick=0, channel=1, data=[61, 110]),
   midi.NoteOnEvent(tick=0, channel=1, data=[66, 110]),
   midi.NoteOnEvent(tick=160, channel=1, data=[54, 0]),
   midi.NoteOnEvent(tick=0, channel=1, data=[61, 0]),
   midi.NoteOnEvent(tick=0, channel=1, data=[66, 0]),
   midi.NoteOnEvent(tick=32, channel=1, data=[52, 110]),
   midi.NoteOnEvent(tick=94, channel=1, data=[52, 0]),
   midi.NoteOnEvent(tick=2, channel=1, data=[52, 110]),
   midi.NoteOnEvent(tick=94, channel=1, data=[52, 0]),
   midi.NoteOnEvent(tick=2, channel=1, data=[52, 110]),
   midi.NoteOnEvent(tick=94, channel=1, data=[52, 0]),
   midi.NoteOnEvent(tick=2, channel=1, data=[52, 110]),
   midi.NoteOnEvent(tick=94, channel=1, data=[52, 0]),
   midi.NoteOnEvent(tick=2, channel=1, data=[52, 110]),
   midi.NoteOnEvent(tick=94, channel=1, data=[52, 0]),
   midi.NoteOnEvent(tick=2, channel=1, data=[52, 110]),
   midi.NoteOnEvent(tick=94, channel=1, data=[52, 0]),
   midi.NoteOnEvent(tick=2, channel=1, data=[54, 110]),
   midi.NoteOnEvent(tick=0, channel=1, data=[61, 110]),
   midi.NoteOnEvent(tick=0, channel=1, data=[66, 110]),
   midi.NoteOnEvent(tick=160, channel=1, data=[54, 0]),
   midi.NoteOnEvent(tick=0, channel=1, data=[61, 0]),
   midi.NoteOnEvent(tick=0, channel=1, data=[66, 0]),
   midi.NoteOnEvent(tick=32, channel=1, data=[55, 110]),
   midi.NoteOnEvent(tick=0, channel=1, data=[62, 110]),
   midi.NoteOnEvent(tick=0, channel=1, data=[67, 110]),
   midi.NoteOnEvent(tick=160, channel=1, data=[55, 0]),
   midi.NoteOnEvent(tick=0, channel=1, data=[62, 0]),
   midi.NoteOnEvent(tick=0, channel=1, data=[67, 0]),
   midi.NoteOnEvent(tick=32, channel=1, data=[54, 110]),
   midi.NoteOnEvent(tick=0, channel=1, data=[61, 110]),
   midi.NoteOnEvent(tick=0, channel=1, data=[66, 110]),
   midi.NoteOnEvent(tick=160, channel=1, data=[54, 0]),
   midi.NoteOnEvent(tick=0, channel=1, data=[61, 0]),
   midi.NoteOnEvent(tick=0, channel=1, data=[66, 0]),
   midi.NoteOnEvent(tick=32, channel=1, data=[52, 110]),
   midi.NoteOnEvent(tick=94, channel=1, data=[52, 0]),
   midi.NoteOnEvent(tick=2, channel=1, data=[52, 110]),
   midi.NoteOnEvent(tick=94, channel=1, data=[52, 0]),
   midi.NoteOnEvent(tick=2, channel=1, data=[52, 110]),
   midi.NoteOnEvent(tick=94, channel=1, data=[52, 0]),
   midi.NoteOnEvent(tick=2, channel=1, data=[52, 110]),
   midi.NoteOnEvent(tick=94, channel=1, data=[52, 0]),
   midi.NoteOnEvent(tick=2, channel=1, data=[52, 110]),
   midi.NoteOnEvent(tick=94, channel=1, data=[52, 0]),
   midi.NoteOnEvent(tick=2, channel=1, data=[52, 110]),
   midi.NoteOnEvent(tick=94, channel=1, data=[52, 0]),
   midi.NoteOnEvent(tick=2, channel=1, data=[52, 110]),
   midi.NoteOnEvent(tick=94, channel=1, data=[52, 0]),
   midi.NoteOnEvent(tick=2, channel=1, data=[52, 110]),
   midi.NoteOnEvent(tick=94, channel=1, data=[52, 0]),
   midi.NoteOnEvent(tick=2, channel=1, data=[52, 110]),
   midi.NoteOnEvent(tick=94, channel=1, data=[52, 0]),
   midi.NoteOnEvent(tick=2, channel=1, data=[64, 110]),
   midi.NoteOnEvent(tick=0, channel=1, data=[71, 110]),
   midi.NoteOnEvent(tick=0, channel=1, data=[76, 110]),
   midi.NoteOnEvent(tick=256, channel=1, data=[64, 0]),
   midi.NoteOnEvent(tick=0, channel=1, data=[71, 0]),
   midi.NoteOnEvent(tick=0, channel=1, data=[76, 0]),
   midi.NoteOnEvent(tick=32, channel=1, data=[52, 110]),
   midi.NoteOnEvent(tick=94, channel=1, data=[52, 0]),
   midi.NoteOnEvent(tick=2, channel=1, data=[52, 110]),
   midi.NoteOnEvent(tick=94, channel=1, data=[52, 0]),
   midi.NoteOnEvent(tick=2, channel=1, data=[52, 110]),
   midi.NoteOnEvent(tick=94, channel=1, data=[52, 0]),
   midi.NoteOnEvent(tick=2, channel=1, data=[52, 110]),
   midi.NoteOnEvent(tick=94, channel=1, data=[52, 0]),
   midi.NoteOnEvent(tick=2, channel=1, data=[52, 110]),
   midi.NoteOnEvent(tick=94, channel=1, data=[52, 0]),
   midi.NoteOnEvent(tick=2, channel=1, data=[52, 110]),
   midi.NoteOnEvent(tick=94, channel=1, data=[52, 0]),
   midi.NoteOnEvent(tick=2, channel=1, data=[54, 110]),
   midi.NoteOnEvent(tick=0, channel=1, data=[61, 110]),
   midi.NoteOnEvent(tick=0, channel=1, data=[66, 110]),
   midi.NoteOnEvent(tick=160, channel=1, data=[54, 0]),
   midi.NoteOnEvent(tick=0, channel=1, data=[61, 0]),
   midi.NoteOnEvent(tick=0, channel=1, data=[66, 0]),
   midi.NoteOnEvent(tick=32, channel=1, data=[55, 110]),
   midi.NoteOnEvent(tick=0, channel=1, data=[62, 110]),
   midi.NoteOnEvent(tick=0, channel=1, data=[67, 110]),
   midi.NoteOnEvent(tick=160, channel=1, data=[55, 0]),
   midi.NoteOnEvent(tick=0, channel=1, data=[62, 0]),
   midi.NoteOnEvent(tick=0, channel=1, data=[67, 0]),
   midi.NoteOnEvent(tick=32, channel=1, data=[54, 110]),
   midi.NoteOnEvent(tick=0, channel=1, data=[61, 110]),
   midi.NoteOnEvent(tick=0, channel=1, data=[66, 110]),
   midi.NoteOnEvent(tick=160, channel=1, data=[54, 0]),
   midi.NoteOnEvent(tick=0, channel=1, data=[61, 0]),
   midi.NoteOnEvent(tick=0, channel=1, data=[66, 0]),
   midi.NoteOnEvent(tick=32, channel=1, data=[52, 110]),
   midi.NoteOnEvent(tick=94, channel=1, data=[52, 0]),
   midi.NoteOnEvent(tick=2, channel=1, data=[52, 110]),
   midi.NoteOnEvent(tick=94, channel=1, data=[52, 0]),
   midi.NoteOnEvent(tick=2, channel=1, data=[52, 110]),
   midi.NoteOnEvent(tick=94, channel=1, data=[52, 0]),
   midi.NoteOnEvent(tick=2, channel=1, data=[52, 110]),
   midi.NoteOnEvent(tick=94, channel=1, data=[52, 0]),
   midi.NoteOnEvent(tick=2, channel=1, data=[52, 110]),
   midi.NoteOnEvent(tick=94, channel=1, data=[52, 0]),
   midi.NoteOnEvent(tick=2, channel=1, data=[52, 110]),
   midi.NoteOnEvent(tick=94, channel=1, data=[52, 0]),
   midi.NoteOnEvent(tick=2, channel=1, data=[55, 110]),
   midi.NoteOnEvent(tick=0, channel=1, data=[62, 110]),
   midi.NoteOnEvent(tick=0, channel=1, data=[67, 110]),
   midi.NoteOnEvent(tick=160, channel=1, data=[55, 0]),
   midi.NoteOnEvent(tick=0, channel=1, data=[62, 0]),
   midi.NoteOnEvent(tick=0, channel=1, data=[67, 0]),
   midi.NoteOnEvent(tick=32, channel=1, data=[57, 110]),
   midi.NoteOnEvent(tick=0, channel=1, data=[64, 110]),
   midi.NoteOnEvent(tick=0, channel=1, data=[69, 110]),
   midi.NoteOnEvent(tick=160, channel=1, data=[57, 0]),
   midi.NoteOnEvent(tick=0, channel=1, data=[64, 0]),
   midi.NoteOnEvent(tick=0, channel=1, data=[69, 0]),
   midi.NoteOnEvent(tick=32, channel=1, data=[54, 110]),
   midi.NoteOnEvent(tick=0, channel=1, data=[61, 110]),
   midi.NoteOnEvent(tick=0, channel=1, data=[66, 110]),
   midi.NoteOnEvent(tick=160, channel=1, data=[54, 0]),
   midi.NoteOnEvent(tick=0, channel=1, data=[61, 0]),
   midi.NoteOnEvent(tick=0, channel=1, data=[66, 0]),
   midi.NoteOnEvent(tick=32, channel=1, data=[52, 110]),
   midi.NoteOnEvent(tick=94, channel=1, data=[52, 0]),
   midi.NoteOnEvent(tick=2, channel=1, data=[52, 110]),
   midi.NoteOnEvent(tick=94, channel=1, data=[52, 0]),
   midi.NoteOnEvent(tick=2, channel=1, data=[52, 110]),
   midi.NoteOnEvent(tick=94, channel=1, data=[52, 0]),
   midi.NoteOnEvent(tick=2, channel=1, data=[52, 110]),
   midi.NoteOnEvent(tick=94, channel=1, data=[52, 0]),
   midi.NoteOnEvent(tick=2, channel=1, data=[52, 110]),
   midi.NoteOnEvent(tick=94, channel=1, data=[52, 0]),
   midi.NoteOnEvent(tick=2, channel=1, data=[52, 110]),
   midi.NoteOnEvent(tick=94, channel=1, data=[52, 0]),
   midi.NoteOnEvent(tick=2, channel=1, data=[54, 110]),
   midi.NoteOnEvent(tick=0, channel=1, data=[61, 110]),
   midi.NoteOnEvent(tick=0, channel=1, data=[66, 110]),
   midi.NoteOnEvent(tick=160, channel=1, data=[54, 0]),
   midi.NoteOnEvent(tick=0, channel=1, data=[61, 0]),
   midi.NoteOnEvent(tick=0, channel=1, data=[66, 0]),
   midi.NoteOnEvent(tick=32, channel=1, data=[55, 110]),
   midi.NoteOnEvent(tick=0, channel=1, data=[62, 110]),
   midi.NoteOnEvent(tick=0, channel=1, data=[67, 110]),
   midi.NoteOnEvent(tick=160, channel=1, data=[55, 0]),
   midi.NoteOnEvent(tick=0, channel=1, data=[62, 0]),
   midi.NoteOnEvent(tick=0, channel=1, data=[67, 0]),
   midi.NoteOnEvent(tick=32, channel=1, data=[54, 110]),
   midi.NoteOnEvent(tick=0, channel=1, data=[61, 110]),
   midi.NoteOnEvent(tick=0, channel=1, data=[66, 110]),
   midi.NoteOnEvent(tick=160, channel=1, data=[54, 0]),
   midi.NoteOnEvent(tick=0, channel=1, data=[61, 0]),
   midi.NoteOnEvent(tick=0, channel=1, data=[66, 0]),
   midi.NoteOnEvent(tick=32, channel=1, data=[52, 110]),
   midi.NoteOnEvent(tick=94, channel=1, data=[52, 0]),
   midi.NoteOnEvent(tick=2, channel=1, data=[52, 110]),
   midi.NoteOnEvent(tick=94, channel=1, data=[52, 0]),
   midi.NoteOnEvent(tick=2, channel=1, data=[52, 110]),
   midi.NoteOnEvent(tick=94, channel=1, data=[52, 0]),
   midi.NoteOnEvent(tick=2, channel=1, data=[52, 110]),
   midi.NoteOnEvent(tick=94, channel=1, data=[52, 0]),
   midi.NoteOnEvent(tick=2, channel=1, data=[52, 110]),
   midi.NoteOnEvent(tick=94, channel=1, data=[52, 0]),
   midi.NoteOnEvent(tick=2, channel=1, data=[52, 110]),
   midi.NoteOnEvent(tick=94, channel=1, data=[52, 0]),
   midi.NoteOnEvent(tick=2, channel=1, data=[52, 110]),
   midi.NoteOnEvent(tick=94, channel=1, data=[52, 0]),
   midi.NoteOnEvent(tick=2, channel=1, data=[52, 110]),
   midi.NoteOnEvent(tick=94, channel=1, data=[52, 0]),
   midi.NoteOnEvent(tick=2, channel=1, data=[52, 110]),
   midi.NoteOnEvent(tick=94, channel=1, data=[52, 0]),
   midi.NoteOnEvent(tick=2, channel=1, data=[64, 110]),
   midi.NoteOnEvent(tick=0, channel=1, data=[71, 110]),
   midi.NoteOnEvent(tick=0, channel=1, data=[76, 110]),
   midi.NoteOnEvent(tick=256, channel=1, data=[64, 0]),
   midi.NoteOnEvent(tick=0, channel=1, data=[71, 0]),
   midi.NoteOnEvent(tick=0, channel=1, data=[76, 0]),
   midi.NoteOnEvent(tick=32, channel=1, data=[52, 110]),
   midi.NoteOnEvent(tick=94, channel=1, data=[52, 0]),
   midi.NoteOnEvent(tick=2, channel=1, data=[52, 110]),
   midi.NoteOnEvent(tick=94, channel=1, data=[52, 0]),
   midi.NoteOnEvent(tick=2, channel=1, data=[52, 110]),
   midi.NoteOnEvent(tick=94, channel=1, data=[52, 0]),
   midi.NoteOnEvent(tick=2, channel=1, data=[52, 110]),
   midi.NoteOnEvent(tick=94, channel=1, data=[52, 0]),
   midi.NoteOnEvent(tick=2, channel=1, data=[52, 110]),
   midi.NoteOnEvent(tick=94, channel=1, data=[52, 0]),
   midi.NoteOnEvent(tick=2, channel=1, data=[52, 110]),
   midi.NoteOnEvent(tick=94, channel=1, data=[52, 0]),
   midi.NoteOnEvent(tick=2, channel=1, data=[54, 110]),
   midi.NoteOnEvent(tick=0, channel=1, data=[61, 110]),
   midi.NoteOnEvent(tick=0, channel=1, data=[66, 110]),
   midi.NoteOnEvent(tick=160, channel=1, data=[54, 0]),
   midi.NoteOnEvent(tick=0, channel=1, data=[61, 0]),
   midi.NoteOnEvent(tick=0, channel=1, data=[66, 0]),
   midi.NoteOnEvent(tick=32, channel=1, data=[55, 110]),
   midi.NoteOnEvent(tick=0, channel=1, data=[62, 110]),
   midi.NoteOnEvent(tick=0, channel=1, data=[67, 110]),
   midi.NoteOnEvent(tick=160, channel=1, data=[55, 0]),
   midi.NoteOnEvent(tick=0, channel=1, data=[62, 0]),
   midi.NoteOnEvent(tick=0, channel=1, data=[67, 0]),
   midi.NoteOnEvent(tick=32, channel=1, data=[54, 110]),
   midi.NoteOnEvent(tick=0, channel=1, data=[61, 110]),
   midi.NoteOnEvent(tick=0, channel=1, data=[66, 110]),
   midi.NoteOnEvent(tick=160, channel=1, data=[54, 0]),
   midi.NoteOnEvent(tick=0, channel=1, data=[61, 0]),
   midi.NoteOnEvent(tick=0, channel=1, data=[66, 0]),
   midi.NoteOnEvent(tick=32, channel=1, data=[52, 110]),
   midi.NoteOnEvent(tick=94, channel=1, data=[52, 0]),
   midi.NoteOnEvent(tick=2, channel=1, data=[52, 110]),
   midi.NoteOnEvent(tick=94, channel=1, data=[52, 0]),
   midi.NoteOnEvent(tick=2, channel=1, data=[52, 110]),
   midi.NoteOnEvent(tick=94, channel=1, data=[52, 0]),
   midi.NoteOnEvent(tick=2, channel=1, data=[52, 110]),
   midi.NoteOnEvent(tick=94, channel=1, data=[52, 0]),
   midi.NoteOnEvent(tick=2, channel=1, data=[52, 110]),
   midi.NoteOnEvent(tick=94, channel=1, data=[52, 0]),
   midi.NoteOnEvent(tick=2, channel=1, data=[52, 110]),
   midi.NoteOnEvent(tick=94, channel=1, data=[52, 0]),
   midi.NoteOnEvent(tick=2, channel=1, data=[55, 110]),
   midi.NoteOnEvent(tick=0, channel=1, data=[62, 110]),
   midi.NoteOnEvent(tick=0, channel=1, data=[67, 110]),
   midi.NoteOnEvent(tick=160, channel=1, data=[55, 0]),
   midi.NoteOnEvent(tick=0, channel=1, data=[62, 0]),
   midi.NoteOnEvent(tick=0, channel=1, data=[67, 0]),
   midi.NoteOnEvent(tick=32, channel=1, data=[57, 110]),
   midi.NoteOnEvent(tick=0, channel=1, data=[64, 110]),
   midi.NoteOnEvent(tick=0, channel=1, data=[69, 110]),
   midi.NoteOnEvent(tick=160, channel=1, data=[57, 0]),
   midi.NoteOnEvent(tick=0, channel=1, data=[64, 0]),
   midi.NoteOnEvent(tick=0, channel=1, data=[69, 0]),
   midi.NoteOnEvent(tick=32, channel=1, data=[54, 110]),
   midi.NoteOnEvent(tick=0, channel=1, data=[61, 110]),
   midi.NoteOnEvent(tick=0, channel=1, data=[66, 110]),
   midi.NoteOnEvent(tick=160, channel=1, data=[54, 0]),
   midi.NoteOnEvent(tick=0, channel=1, data=[61, 0]),
   midi.NoteOnEvent(tick=0, channel=1, data=[66, 0]),
   midi.NoteOnEvent(tick=32, channel=1, data=[52, 110]),
   midi.NoteOnEvent(tick=94, channel=1, data=[52, 0]),
   midi.NoteOnEvent(tick=2, channel=1, data=[52, 110]),
   midi.NoteOnEvent(tick=94, channel=1, data=[52, 0]),
   midi.NoteOnEvent(tick=2, channel=1, data=[52, 110]),
   midi.NoteOnEvent(tick=94, channel=1, data=[52, 0]),
   midi.NoteOnEvent(tick=2, channel=1, data=[52, 110]),
   midi.NoteOnEvent(tick=94, channel=1, data=[52, 0]),
   midi.NoteOnEvent(tick=2, channel=1, data=[52, 110]),
   midi.NoteOnEvent(tick=94, channel=1, data=[52, 0]),
   midi.NoteOnEvent(tick=2, channel=1, data=[52, 110]),
   midi.NoteOnEvent(tick=94, channel=1, data=[52, 0]),
   midi.NoteOnEvent(tick=2, channel=1, data=[54, 110]),
   midi.NoteOnEvent(tick=0, channel=1, data=[61, 110]),
   midi.NoteOnEvent(tick=0, channel=1, data=[66, 110]),
   midi.NoteOnEvent(tick=160, channel=1, data=[54, 0]),
   midi.NoteOnEvent(tick=0, channel=1, data=[61, 0]),
   midi.NoteOnEvent(tick=0, channel=1, data=[66, 0]),
   midi.NoteOnEvent(tick=32, channel=1, data=[55, 110]),
   midi.NoteOnEvent(tick=0, channel=1, data=[62, 110]),
   midi.NoteOnEvent(tick=0, channel=1, data=[67, 110]),
   midi.NoteOnEvent(tick=160, channel=1, data=[55, 0]),
   midi.NoteOnEvent(tick=0, channel=1, data=[62, 0]),
   midi.NoteOnEvent(tick=0, channel=1, data=[67, 0]),
   midi.NoteOnEvent(tick=32, channel=1, data=[54, 110]),
   midi.NoteOnEvent(tick=0, channel=1, data=[61, 110]),
   midi.NoteOnEvent(tick=0, channel=1, data=[66, 110]),
   midi.NoteOnEvent(tick=160, channel=1, data=[54, 0]),
   midi.NoteOnEvent(tick=0, channel=1, data=[61, 0]),
   midi.NoteOnEvent(tick=0, channel=1, data=[66, 0]),
   midi.NoteOnEvent(tick=32, channel=1, data=[52, 110]),
   midi.NoteOnEvent(tick=94, channel=1, data=[52, 0]),
   midi.NoteOnEvent(tick=2, channel=1, data=[52, 110]),
   midi.NoteOnEvent(tick=94, channel=1, data=[52, 0]),
   midi.NoteOnEvent(tick=2, channel=1, data=[52, 110]),
   midi.NoteOnEvent(tick=94, channel=1, data=[52, 0]),
   midi.NoteOnEvent(tick=2, channel=1, data=[52, 110]),
   midi.NoteOnEvent(tick=94, channel=1, data=[52, 0]),
   midi.NoteOnEvent(tick=2, channel=1, data=[52, 110]),
   midi.NoteOnEvent(tick=94, channel=1, data=[52, 0]),
   midi.NoteOnEvent(tick=2, channel=1, data=[52, 110]),
   midi.NoteOnEvent(tick=94, channel=1, data=[52, 0]),
   midi.NoteOnEvent(tick=2, channel=1, data=[52, 110]),
   midi.NoteOnEvent(tick=94, channel=1, data=[52, 0]),
   midi.NoteOnEvent(tick=2, channel=1, data=[52, 110]),
   midi.NoteOnEvent(tick=94, channel=1, data=[52, 0]),
   midi.NoteOnEvent(tick=2, channel=1, data=[52, 110]),
   midi.NoteOnEvent(tick=94, channel=1, data=[52, 0]),
   midi.NoteOnEvent(tick=2, channel=1, data=[64, 110]),
   midi.NoteOnEvent(tick=0, channel=1, data=[71, 110]),
   midi.NoteOnEvent(tick=0, channel=1, data=[76, 110]),
   midi.NoteOnEvent(tick=1392, channel=1, data=[64, 0]),
   midi.NoteOnEvent(tick=0, channel=1, data=[71, 0]),
   midi.NoteOnEvent(tick=0, channel=1, data=[76, 0]),
   midi.NoteOnEvent(tick=48, channel=1, data=[52, 110]),
   midi.NoteOnEvent(tick=94, channel=1, data=[52, 0]),
   midi.NoteOnEvent(tick=2, channel=1, data=[52, 110]),
   midi.NoteOnEvent(tick=46, channel=1, data=[52, 0]),
   midi.NoteOnEvent(tick=2, channel=1, data=[52, 110]),
   midi.NoteOnEvent(tick=46, channel=1, data=[52, 0]),
   midi.NoteOnEvent(tick=2, channel=1, data=[52, 110]),
   midi.NoteOnEvent(tick=94, channel=1, data=[52, 0]),
   midi.NoteOnEvent(tick=2, channel=1, data=[52, 110]),
   midi.NoteOnEvent(tick=94, channel=1, data=[52, 0]),
   midi.NoteOnEvent(tick=2, channel=1, data=[52, 110]),
   midi.NoteOnEvent(tick=94, channel=1, data=[52, 0]),
   midi.NoteOnEvent(tick=2, channel=1, data=[52, 110]),
   midi.NoteOnEvent(tick=94, channel=1, data=[52, 0]),
   midi.NoteOnEvent(tick=2, channel=1, data=[52, 110]),
   midi.NoteOnEvent(tick=46, channel=1, data=[52, 0]),
   midi.NoteOnEvent(tick=2, channel=1, data=[52, 110]),
   midi.NoteOnEvent(tick=46, channel=1, data=[52, 0]),
   midi.NoteOnEvent(tick=2, channel=1, data=[52, 110]),
   midi.NoteOnEvent(tick=46, channel=1, data=[52, 0]),
   midi.NoteOnEvent(tick=2, channel=1, data=[52, 110]),
   midi.NoteOnEvent(tick=46, channel=1, data=[52, 0]),
   midi.NoteOnEvent(tick=2, channel=1, data=[52, 110]),
   midi.NoteOnEvent(tick=94, channel=1, data=[52, 0]),
   midi.NoteOnEvent(tick=2, channel=1, data=[52, 110]),
   midi.NoteOnEvent(tick=46, channel=1, data=[52, 0]),
   midi.NoteOnEvent(tick=2, channel=1, data=[52, 110]),
   midi.NoteOnEvent(tick=46, channel=1, data=[52, 0]),
   midi.NoteOnEvent(tick=2, channel=1, data=[52, 110]),
   midi.NoteOnEvent(tick=94, channel=1, data=[52, 0]),
   midi.NoteOnEvent(tick=2, channel=1, data=[52, 110]),
   midi.NoteOnEvent(tick=94, channel=1, data=[52, 0]),
   midi.NoteOnEvent(tick=2, channel=1, data=[52, 110]),
   midi.NoteOnEvent(tick=94, channel=1, data=[52, 0]),
   midi.NoteOnEvent(tick=2, channel=1, data=[52, 110]),
   midi.NoteOnEvent(tick=94, channel=1, data=[52, 0]),
   midi.NoteOnEvent(tick=2, channel=1, data=[52, 110]),
   midi.NoteOnEvent(tick=46, channel=1, data=[52, 0]),
   midi.NoteOnEvent(tick=2, channel=1, data=[52, 110]),
   midi.NoteOnEvent(tick=46, channel=1, data=[52, 0]),
   midi.NoteOnEvent(tick=2, channel=1, data=[52, 110]),
   midi.NoteOnEvent(tick=46, channel=1, data=[52, 0]),
   midi.NoteOnEvent(tick=2, channel=1, data=[52, 110]),
   midi.NoteOnEvent(tick=46, channel=1, data=[52, 0]),
   midi.NoteOnEvent(tick=2, channel=1, data=[52, 110]),
   midi.NoteOnEvent(tick=94, channel=1, data=[52, 0]),
   midi.NoteOnEvent(tick=2, channel=1, data=[52, 110]),
   midi.NoteOnEvent(tick=46, channel=1, data=[52, 0]),
   midi.NoteOnEvent(tick=2, channel=1, data=[52, 110]),
   midi.NoteOnEvent(tick=46, channel=1, data=[52, 0]),
   midi.NoteOnEvent(tick=2, channel=1, data=[52, 110]),
   midi.NoteOnEvent(tick=94, channel=1, data=[52, 0]),
   midi.NoteOnEvent(tick=2, channel=1, data=[52, 110]),
   midi.NoteOnEvent(tick=94, channel=1, data=[52, 0]),
   midi.NoteOnEvent(tick=2, channel=1, data=[52, 110]),
   midi.NoteOnEvent(tick=94, channel=1, data=[52, 0]),
   midi.NoteOnEvent(tick=2, channel=1, data=[52, 110]),
   midi.NoteOnEvent(tick=94, channel=1, data=[52, 0]),
   midi.NoteOnEvent(tick=2, channel=1, data=[52, 110]),
   midi.NoteOnEvent(tick=46, channel=1, data=[52, 0]),
   midi.NoteOnEvent(tick=2, channel=1, data=[52, 110]),
   midi.NoteOnEvent(tick=46, channel=1, data=[52, 0]),
   midi.NoteOnEvent(tick=2, channel=1, data=[52, 110]),
   midi.NoteOnEvent(tick=46, channel=1, data=[52, 0]),
   midi.NoteOnEvent(tick=2, channel=1, data=[52, 110]),
   midi.NoteOnEvent(tick=46, channel=1, data=[52, 0]),
   midi.NoteOnEvent(tick=2, channel=1, data=[52, 110]),
   midi.NoteOnEvent(tick=94, channel=1, data=[52, 0]),
   midi.NoteOnEvent(tick=2, channel=1, data=[52, 110]),
   midi.NoteOnEvent(tick=46, channel=1, data=[52, 0]),
   midi.NoteOnEvent(tick=2, channel=1, data=[52, 110]),
   midi.NoteOnEvent(tick=46, channel=1, data=[52, 0]),
   midi.NoteOnEvent(tick=2, channel=1, data=[52, 110]),
   midi.NoteOnEvent(tick=94, channel=1, data=[52, 0]),
   midi.NoteOnEvent(tick=2, channel=1, data=[52, 110]),
   midi.NoteOnEvent(tick=94, channel=1, data=[52, 0]),
   midi.NoteOnEvent(tick=2, channel=1, data=[52, 110]),
   midi.NoteOnEvent(tick=94, channel=1, data=[52, 0]),
   midi.NoteOnEvent(tick=2, channel=1, data=[52, 110]),
   midi.NoteOnEvent(tick=94, channel=1, data=[52, 0]),
   midi.NoteOnEvent(tick=2, channel=1, data=[52, 110]),
   midi.NoteOnEvent(tick=46, channel=1, data=[52, 0]),
   midi.NoteOnEvent(tick=2, channel=1, data=[52, 110]),
   midi.NoteOnEvent(tick=46, channel=1, data=[52, 0]),
   midi.NoteOnEvent(tick=2, channel=1, data=[52, 110]),
   midi.NoteOnEvent(tick=46, channel=1, data=[52, 0]),
   midi.NoteOnEvent(tick=2, channel=1, data=[52, 110]),
   midi.NoteOnEvent(tick=46, channel=1, data=[52, 0]),
   midi.NoteOnEvent(tick=2, channel=1, data=[52, 110]),
   midi.NoteOnEvent(tick=94, channel=1, data=[52, 0]),
   midi.NoteOnEvent(tick=2, channel=1, data=[52, 110]),
   midi.NoteOnEvent(tick=46, channel=1, data=[52, 0]),
   midi.NoteOnEvent(tick=2, channel=1, data=[52, 110]),
   midi.NoteOnEvent(tick=46, channel=1, data=[52, 0]),
   midi.NoteOnEvent(tick=2, channel=1, data=[52, 110]),
   midi.NoteOnEvent(tick=94, channel=1, data=[52, 0]),
   midi.NoteOnEvent(tick=2, channel=1, data=[52, 110]),
   midi.NoteOnEvent(tick=94, channel=1, data=[52, 0]),
   midi.NoteOnEvent(tick=2, channel=1, data=[52, 110]),
   midi.NoteOnEvent(tick=94, channel=1, data=[52, 0]),
   midi.NoteOnEvent(tick=2, channel=1, data=[52, 110]),
   midi.NoteOnEvent(tick=94, channel=1, data=[52, 0]),
   midi.NoteOnEvent(tick=2, channel=1, data=[52, 110]),
   midi.NoteOnEvent(tick=46, channel=1, data=[52, 0]),
   midi.NoteOnEvent(tick=2, channel=1, data=[52, 110]),
   midi.NoteOnEvent(tick=46, channel=1, data=[52, 0]),
   midi.NoteOnEvent(tick=2, channel=1, data=[52, 110]),
   midi.NoteOnEvent(tick=46, channel=1, data=[52, 0]),
   midi.NoteOnEvent(tick=2, channel=1, data=[52, 110]),
   midi.NoteOnEvent(tick=46, channel=1, data=[52, 0]),
   midi.NoteOnEvent(tick=2, channel=1, data=[52, 110]),
   midi.NoteOnEvent(tick=94, channel=1, data=[52, 0]),
   midi.NoteOnEvent(tick=2, channel=1, data=[52, 110]),
   midi.NoteOnEvent(tick=46, channel=1, data=[52, 0]),
   midi.NoteOnEvent(tick=2, channel=1, data=[52, 110]),
   midi.NoteOnEvent(tick=46, channel=1, data=[52, 0]),
   midi.NoteOnEvent(tick=2, channel=1, data=[52, 110]),
   midi.NoteOnEvent(tick=94, channel=1, data=[52, 0]),
   midi.NoteOnEvent(tick=2, channel=1, data=[52, 110]),
   midi.NoteOnEvent(tick=94, channel=1, data=[52, 0]),
   midi.NoteOnEvent(tick=2, channel=1, data=[52, 110]),
   midi.NoteOnEvent(tick=94, channel=1, data=[52, 0]),
   midi.NoteOnEvent(tick=2, channel=1, data=[52, 110]),
   midi.NoteOnEvent(tick=94, channel=1, data=[52, 0]),
   midi.NoteOnEvent(tick=2, channel=1, data=[52, 110]),
   midi.NoteOnEvent(tick=46, channel=1, data=[52, 0]),
   midi.NoteOnEvent(tick=2, channel=1, data=[52, 110]),
   midi.NoteOnEvent(tick=46, channel=1, data=[52, 0]),
   midi.NoteOnEvent(tick=2, channel=1, data=[52, 110]),
   midi.NoteOnEvent(tick=46, channel=1, data=[52, 0]),
   midi.NoteOnEvent(tick=2, channel=1, data=[52, 110]),
   midi.NoteOnEvent(tick=46, channel=1, data=[52, 0]),
   midi.NoteOnEvent(tick=2, channel=1, data=[52, 110]),
   midi.NoteOnEvent(tick=94, channel=1, data=[52, 0]),
   midi.NoteOnEvent(tick=2, channel=1, data=[52, 110]),
   midi.NoteOnEvent(tick=46, channel=1, data=[52, 0]),
   midi.NoteOnEvent(tick=2, channel=1, data=[52, 110]),
   midi.NoteOnEvent(tick=46, channel=1, data=[52, 0]),
   midi.NoteOnEvent(tick=2, channel=1, data=[52, 110]),
   midi.NoteOnEvent(tick=94, channel=1, data=[52, 0]),
   midi.NoteOnEvent(tick=2, channel=1, data=[52, 110]),
   midi.NoteOnEvent(tick=94, channel=1, data=[52, 0]),
   midi.NoteOnEvent(tick=2, channel=1, data=[52, 110]),
   midi.NoteOnEvent(tick=94, channel=1, data=[52, 0]),
   midi.NoteOnEvent(tick=2, channel=1, data=[52, 110]),
   midi.NoteOnEvent(tick=94, channel=1, data=[52, 0]),
   midi.NoteOnEvent(tick=2, channel=1, data=[52, 110]),
   midi.NoteOnEvent(tick=46, channel=1, data=[52, 0]),
   midi.NoteOnEvent(tick=2, channel=1, data=[52, 110]),
   midi.NoteOnEvent(tick=46, channel=1, data=[52, 0]),
   midi.NoteOnEvent(tick=2, channel=1, data=[52, 110]),
   midi.NoteOnEvent(tick=46, channel=1, data=[52, 0]),
   midi.NoteOnEvent(tick=2, channel=1, data=[52, 110]),
   midi.NoteOnEvent(tick=46, channel=1, data=[52, 0]),
   midi.NoteOnEvent(tick=2, channel=1, data=[52, 110]),
   midi.NoteOnEvent(tick=94, channel=1, data=[52, 0]),
   midi.NoteOnEvent(tick=2, channel=1, data=[52, 110]),
   midi.NoteOnEvent(tick=46, channel=1, data=[52, 0]),
   midi.NoteOnEvent(tick=2, channel=1, data=[52, 110]),
   midi.NoteOnEvent(tick=46, channel=1, data=[52, 0]),
   midi.NoteOnEvent(tick=2, channel=1, data=[52, 110]),
   midi.NoteOnEvent(tick=94, channel=1, data=[52, 0]),
   midi.NoteOnEvent(tick=2, channel=1, data=[52, 110]),
   midi.NoteOnEvent(tick=94, channel=1, data=[52, 0]),
   midi.NoteOnEvent(tick=2, channel=1, data=[52, 110]),
   midi.NoteOnEvent(tick=94, channel=1, data=[52, 0]),
   midi.NoteOnEvent(tick=2, channel=1, data=[52, 110]),
   midi.NoteOnEvent(tick=94, channel=1, data=[52, 0]),
   midi.NoteOnEvent(tick=2, channel=1, data=[52, 110]),
   midi.NoteOnEvent(tick=46, channel=1, data=[52, 0]),
   midi.NoteOnEvent(tick=2, channel=1, data=[52, 110]),
   midi.NoteOnEvent(tick=46, channel=1, data=[52, 0]),
   midi.NoteOnEvent(tick=2, channel=1, data=[52, 110]),
   midi.NoteOnEvent(tick=46, channel=1, data=[52, 0]),
   midi.NoteOnEvent(tick=2, channel=1, data=[52, 110]),
   midi.NoteOnEvent(tick=46, channel=1, data=[52, 0]),
   midi.NoteOnEvent(tick=2, channel=1, data=[52, 110]),
   midi.NoteOnEvent(tick=94, channel=1, data=[52, 0]),
   midi.NoteOnEvent(tick=2, channel=1, data=[52, 110]),
   midi.NoteOnEvent(tick=46, channel=1, data=[52, 0]),
   midi.NoteOnEvent(tick=2, channel=1, data=[52, 110]),
   midi.NoteOnEvent(tick=46, channel=1, data=[52, 0]),
   midi.NoteOnEvent(tick=2, channel=1, data=[52, 110]),
   midi.NoteOnEvent(tick=94, channel=1, data=[52, 0]),
   midi.NoteOnEvent(tick=2, channel=1, data=[52, 110]),
   midi.NoteOnEvent(tick=94, channel=1, data=[52, 0]),
   midi.NoteOnEvent(tick=2, channel=1, data=[52, 110]),
   midi.NoteOnEvent(tick=94, channel=1, data=[52, 0]),
   midi.NoteOnEvent(tick=2, channel=1, data=[52, 110]),
   midi.NoteOnEvent(tick=94, channel=1, data=[52, 0]),
   midi.NoteOnEvent(tick=2, channel=1, data=[52, 110]),
   midi.NoteOnEvent(tick=46, channel=1, data=[52, 0]),
   midi.NoteOnEvent(tick=2, channel=1, data=[52, 110]),
   midi.NoteOnEvent(tick=46, channel=1, data=[52, 0]),
   midi.NoteOnEvent(tick=2, channel=1, data=[52, 110]),
   midi.NoteOnEvent(tick=46, channel=1, data=[52, 0]),
   midi.NoteOnEvent(tick=2, channel=1, data=[52, 110]),
   midi.NoteOnEvent(tick=46, channel=1, data=[52, 0]),
   midi.NoteOnEvent(tick=2, channel=1, data=[52, 110]),
   midi.NoteOnEvent(tick=94, channel=1, data=[52, 0]),
   midi.NoteOnEvent(tick=2, channel=1, data=[52, 110]),
   midi.NoteOnEvent(tick=46, channel=1, data=[52, 0]),
   midi.NoteOnEvent(tick=2, channel=1, data=[52, 110]),
   midi.NoteOnEvent(tick=46, channel=1, data=[52, 0]),
   midi.NoteOnEvent(tick=2, channel=1, data=[52, 110]),
   midi.NoteOnEvent(tick=94, channel=1, data=[52, 0]),
   midi.NoteOnEvent(tick=2, channel=1, data=[52, 110]),
   midi.NoteOnEvent(tick=94, channel=1, data=[52, 0]),
   midi.NoteOnEvent(tick=2, channel=1, data=[52, 110]),
   midi.NoteOnEvent(tick=94, channel=1, data=[52, 0]),
   midi.NoteOnEvent(tick=2, channel=1, data=[52, 110]),
   midi.NoteOnEvent(tick=94, channel=1, data=[52, 0]),
   midi.NoteOnEvent(tick=2, channel=1, data=[52, 110]),
   midi.NoteOnEvent(tick=46, channel=1, data=[52, 0]),
   midi.NoteOnEvent(tick=2, channel=1, data=[52, 110]),
   midi.NoteOnEvent(tick=46, channel=1, data=[52, 0]),
   midi.NoteOnEvent(tick=2, channel=1, data=[52, 110]),
   midi.NoteOnEvent(tick=46, channel=1, data=[52, 0]),
   midi.NoteOnEvent(tick=2, channel=1, data=[52, 110]),
   midi.NoteOnEvent(tick=46, channel=1, data=[52, 0]),
   midi.NoteOnEvent(tick=2, channel=1, data=[52, 110]),
   midi.NoteOnEvent(tick=94, channel=1, data=[52, 0]),
   midi.NoteOnEvent(tick=2, channel=1, data=[52, 110]),
   midi.NoteOnEvent(tick=46, channel=1, data=[52, 0]),
   midi.NoteOnEvent(tick=2, channel=1, data=[52, 110]),
   midi.NoteOnEvent(tick=46, channel=1, data=[52, 0]),
   midi.NoteOnEvent(tick=2, channel=1, data=[52, 110]),
   midi.NoteOnEvent(tick=94, channel=1, data=[52, 0]),
   midi.NoteOnEvent(tick=2, channel=1, data=[52, 110]),
   midi.NoteOnEvent(tick=94, channel=1, data=[52, 0]),
   midi.NoteOnEvent(tick=2, channel=1, data=[52, 110]),
   midi.NoteOnEvent(tick=94, channel=1, data=[52, 0]),
   midi.NoteOnEvent(tick=2, channel=1, data=[52, 110]),
   midi.NoteOnEvent(tick=94, channel=1, data=[52, 0]),
   midi.NoteOnEvent(tick=2, channel=1, data=[52, 110]),
   midi.NoteOnEvent(tick=46, channel=1, data=[52, 0]),
   midi.NoteOnEvent(tick=2, channel=1, data=[52, 110]),
   midi.NoteOnEvent(tick=46, channel=1, data=[52, 0]),
   midi.NoteOnEvent(tick=2, channel=1, data=[52, 110]),
   midi.NoteOnEvent(tick=46, channel=1, data=[52, 0]),
   midi.NoteOnEvent(tick=2, channel=1, data=[52, 110]),
   midi.NoteOnEvent(tick=46, channel=1, data=[52, 0]),
   midi.NoteOnEvent(tick=2, channel=1, data=[52, 110]),
   midi.NoteOnEvent(tick=94, channel=1, data=[52, 0]),
   midi.NoteOnEvent(tick=2, channel=1, data=[52, 110]),
   midi.NoteOnEvent(tick=46, channel=1, data=[52, 0]),
   midi.NoteOnEvent(tick=2, channel=1, data=[52, 110]),
   midi.NoteOnEvent(tick=46, channel=1, data=[52, 0]),
   midi.NoteOnEvent(tick=2, channel=1, data=[52, 110]),
   midi.NoteOnEvent(tick=94, channel=1, data=[52, 0]),
   midi.NoteOnEvent(tick=2, channel=1, data=[52, 110]),
   midi.NoteOnEvent(tick=94, channel=1, data=[52, 0]),
   midi.NoteOnEvent(tick=2, channel=1, data=[52, 110]),
   midi.NoteOnEvent(tick=94, channel=1, data=[52, 0]),
   midi.NoteOnEvent(tick=2, channel=1, data=[52, 110]),
   midi.NoteOnEvent(tick=94, channel=1, data=[52, 0]),
   midi.NoteOnEvent(tick=2, channel=1, data=[52, 110]),
   midi.NoteOnEvent(tick=46, channel=1, data=[52, 0]),
   midi.NoteOnEvent(tick=2, channel=1, data=[52, 110]),
   midi.NoteOnEvent(tick=46, channel=1, data=[52, 0]),
   midi.NoteOnEvent(tick=2, channel=1, data=[52, 110]),
   midi.NoteOnEvent(tick=46, channel=1, data=[52, 0]),
   midi.NoteOnEvent(tick=2, channel=1, data=[52, 110]),
   midi.NoteOnEvent(tick=46, channel=1, data=[52, 0]),
   midi.NoteOnEvent(tick=2, channel=1, data=[52, 110]),
   midi.NoteOnEvent(tick=94, channel=1, data=[52, 0]),
   midi.NoteOnEvent(tick=2, channel=1, data=[52, 110]),
   midi.NoteOnEvent(tick=46, channel=1, data=[52, 0]),
   midi.NoteOnEvent(tick=2, channel=1, data=[52, 110]),
   midi.NoteOnEvent(tick=46, channel=1, data=[52, 0]),
   midi.NoteOnEvent(tick=2, channel=1, data=[52, 110]),
   midi.NoteOnEvent(tick=94, channel=1, data=[52, 0]),
   midi.NoteOnEvent(tick=2, channel=1, data=[52, 110]),
   midi.NoteOnEvent(tick=94, channel=1, data=[52, 0]),
   midi.NoteOnEvent(tick=2, channel=1, data=[52, 110]),
   midi.NoteOnEvent(tick=94, channel=1, data=[52, 0]),
   midi.NoteOnEvent(tick=2, channel=1, data=[52, 110]),
   midi.NoteOnEvent(tick=94, channel=1, data=[52, 0]),
   midi.NoteOnEvent(tick=2, channel=1, data=[52, 110]),
   midi.NoteOnEvent(tick=46, channel=1, data=[52, 0]),
   midi.NoteOnEvent(tick=2, channel=1, data=[52, 110]),
   midi.NoteOnEvent(tick=46, channel=1, data=[52, 0]),
   midi.NoteOnEvent(tick=2, channel=1, data=[52, 110]),
   midi.NoteOnEvent(tick=46, channel=1, data=[52, 0]),
   midi.NoteOnEvent(tick=2, channel=1, data=[52, 110]),
   midi.NoteOnEvent(tick=46, channel=1, data=[52, 0]),
   midi.NoteOnEvent(tick=2, channel=1, data=[52, 110]),
   midi.NoteOnEvent(tick=94, channel=1, data=[52, 0]),
   midi.NoteOnEvent(tick=2, channel=1, data=[52, 110]),
   midi.NoteOnEvent(tick=46, channel=1, data=[52, 0]),
   midi.NoteOnEvent(tick=2, channel=1, data=[52, 110]),
   midi.NoteOnEvent(tick=46, channel=1, data=[52, 0]),
   midi.NoteOnEvent(tick=2, channel=1, data=[52, 110]),
   midi.NoteOnEvent(tick=94, channel=1, data=[52, 0]),
   midi.NoteOnEvent(tick=2, channel=1, data=[52, 110]),
   midi.NoteOnEvent(tick=94, channel=1, data=[52, 0]),
   midi.NoteOnEvent(tick=2, channel=1, data=[52, 110]),
   midi.NoteOnEvent(tick=94, channel=1, data=[52, 0]),
   midi.NoteOnEvent(tick=2, channel=1, data=[52, 110]),
   midi.NoteOnEvent(tick=94, channel=1, data=[52, 0]),
   midi.NoteOnEvent(tick=2, channel=1, data=[52, 110]),
   midi.NoteOnEvent(tick=46, channel=1, data=[52, 0]),
   midi.NoteOnEvent(tick=2, channel=1, data=[52, 110]),
   midi.NoteOnEvent(tick=46, channel=1, data=[52, 0]),
   midi.NoteOnEvent(tick=2, channel=1, data=[52, 110]),
   midi.NoteOnEvent(tick=46, channel=1, data=[52, 0]),
   midi.NoteOnEvent(tick=2, channel=1, data=[52, 110]),
   midi.NoteOnEvent(tick=46, channel=1, data=[52, 0]),
   midi.NoteOnEvent(tick=2, channel=1, data=[52, 110]),
   midi.NoteOnEvent(tick=94, channel=1, data=[52, 0]),
   midi.NoteOnEvent(tick=2, channel=1, data=[52, 110]),
   midi.NoteOnEvent(tick=46, channel=1, data=[52, 0]),
   midi.NoteOnEvent(tick=2, channel=1, data=[52, 110]),
   midi.NoteOnEvent(tick=46, channel=1, data=[52, 0]),
   midi.NoteOnEvent(tick=2, channel=1, data=[52, 110]),
   midi.NoteOnEvent(tick=94, channel=1, data=[52, 0]),
   midi.NoteOnEvent(tick=2, channel=1, data=[52, 110]),
   midi.NoteOnEvent(tick=94, channel=1, data=[52, 0]),
   midi.NoteOnEvent(tick=2, channel=1, data=[52, 110]),
   midi.NoteOnEvent(tick=94, channel=1, data=[52, 0]),
   midi.NoteOnEvent(tick=2, channel=1, data=[52, 110]),
   midi.NoteOnEvent(tick=94, channel=1, data=[52, 0]),
   midi.NoteOnEvent(tick=2, channel=1, data=[52, 110]),
   midi.NoteOnEvent(tick=46, channel=1, data=[52, 0]),
   midi.NoteOnEvent(tick=2, channel=1, data=[52, 110]),
   midi.NoteOnEvent(tick=46, channel=1, data=[52, 0]),
   midi.NoteOnEvent(tick=2, channel=1, data=[52, 110]),
   midi.NoteOnEvent(tick=46, channel=1, data=[52, 0]),
   midi.NoteOnEvent(tick=2, channel=1, data=[52, 110]),
   midi.NoteOnEvent(tick=46, channel=1, data=[52, 0]),
   midi.NoteOnEvent(tick=2, channel=1, data=[52, 110]),
   midi.NoteOnEvent(tick=94, channel=1, data=[52, 0]),
   midi.NoteOnEvent(tick=2, channel=1, data=[52, 110]),
   midi.NoteOnEvent(tick=46, channel=1, data=[52, 0]),
   midi.NoteOnEvent(tick=2, channel=1, data=[52, 110]),
   midi.NoteOnEvent(tick=46, channel=1, data=[52, 0]),
   midi.NoteOnEvent(tick=2, channel=1, data=[52, 110]),
   midi.NoteOnEvent(tick=94, channel=1, data=[52, 0]),
   midi.NoteOnEvent(tick=2, channel=1, data=[52, 110]),
   midi.NoteOnEvent(tick=94, channel=1, data=[52, 0]),
   midi.NoteOnEvent(tick=2, channel=1, data=[52, 110]),
   midi.NoteOnEvent(tick=94, channel=1, data=[52, 0]),
   midi.NoteOnEvent(tick=2, channel=1, data=[52, 110]),
   midi.NoteOnEvent(tick=94, channel=1, data=[52, 0]),
   midi.NoteOnEvent(tick=2, channel=1, data=[52, 110]),
   midi.NoteOnEvent(tick=46, channel=1, data=[52, 0]),
   midi.NoteOnEvent(tick=2, channel=1, data=[52, 110]),
   midi.NoteOnEvent(tick=46, channel=1, data=[52, 0]),
   midi.NoteOnEvent(tick=2, channel=1, data=[52, 110]),
   midi.NoteOnEvent(tick=46, channel=1, data=[52, 0]),
   midi.NoteOnEvent(tick=2, channel=1, data=[52, 110]),
   midi.NoteOnEvent(tick=46, channel=1, data=[52, 0]),
   midi.NoteOnEvent(tick=2, channel=1, data=[52, 110]),
   midi.NoteOnEvent(tick=94, channel=1, data=[52, 0]),
   midi.NoteOnEvent(tick=2, channel=1, data=[52, 110]),
   midi.NoteOnEvent(tick=46, channel=1, data=[52, 0]),
   midi.NoteOnEvent(tick=2, channel=1, data=[52, 110]),
   midi.NoteOnEvent(tick=46, channel=1, data=[52, 0]),
   midi.NoteOnEvent(tick=2, channel=1, data=[52, 110]),
   midi.NoteOnEvent(tick=94, channel=1, data=[52, 0]),
   midi.NoteOnEvent(tick=2, channel=1, data=[52, 110]),
   midi.NoteOnEvent(tick=94, channel=1, data=[52, 0]),
   midi.NoteOnEvent(tick=2, channel=1, data=[52, 110]),
   midi.NoteOnEvent(tick=94, channel=1, data=[52, 0]),
   midi.NoteOnEvent(tick=2, channel=1, data=[52, 110]),
   midi.NoteOnEvent(tick=94, channel=1, data=[52, 0]),
   midi.NoteOnEvent(tick=2, channel=1, data=[52, 110]),
   midi.NoteOnEvent(tick=46, channel=1, data=[52, 0]),
   midi.NoteOnEvent(tick=2, channel=1, data=[52, 110]),
   midi.NoteOnEvent(tick=46, channel=1, data=[52, 0]),
   midi.NoteOnEvent(tick=2, channel=1, data=[52, 110]),
   midi.NoteOnEvent(tick=46, channel=1, data=[52, 0]),
   midi.NoteOnEvent(tick=2, channel=1, data=[52, 110]),
   midi.NoteOnEvent(tick=46, channel=1, data=[52, 0]),
   midi.NoteOnEvent(tick=2, channel=1, data=[52, 110]),
   midi.NoteOnEvent(tick=94, channel=1, data=[52, 0]),
   midi.NoteOnEvent(tick=2, channel=1, data=[52, 110]),
   midi.NoteOnEvent(tick=46, channel=1, data=[52, 0]),
   midi.NoteOnEvent(tick=2, channel=1, data=[52, 110]),
   midi.NoteOnEvent(tick=46, channel=1, data=[52, 0]),
   midi.NoteOnEvent(tick=2, channel=1, data=[52, 110]),
   midi.NoteOnEvent(tick=94, channel=1, data=[52, 0]),
   midi.NoteOnEvent(tick=2, channel=1, data=[52, 110]),
   midi.NoteOnEvent(tick=94, channel=1, data=[52, 0]),
   midi.NoteOnEvent(tick=2, channel=1, data=[52, 110]),
   midi.NoteOnEvent(tick=94, channel=1, data=[52, 0]),
   midi.NoteOnEvent(tick=2, channel=1, data=[52, 110]),
   midi.NoteOnEvent(tick=94, channel=1, data=[52, 0]),
   midi.NoteOnEvent(tick=2, channel=1, data=[52, 110]),
   midi.NoteOnEvent(tick=46, channel=1, data=[52, 0]),
   midi.NoteOnEvent(tick=2, channel=1, data=[52, 110]),
   midi.NoteOnEvent(tick=46, channel=1, data=[52, 0]),
   midi.NoteOnEvent(tick=2, channel=1, data=[52, 110]),
   midi.NoteOnEvent(tick=46, channel=1, data=[52, 0]),
   midi.NoteOnEvent(tick=2, channel=1, data=[52, 110]),
   midi.NoteOnEvent(tick=46, channel=1, data=[52, 0]),
   midi.NoteOnEvent(tick=2, channel=1, data=[52, 110]),
   midi.NoteOnEvent(tick=94, channel=1, data=[52, 0]),
   midi.NoteOnEvent(tick=2, channel=1, data=[52, 110]),
   midi.NoteOnEvent(tick=46, channel=1, data=[52, 0]),
   midi.NoteOnEvent(tick=2, channel=1, data=[52, 110]),
   midi.NoteOnEvent(tick=46, channel=1, data=[52, 0]),
   midi.NoteOnEvent(tick=2, channel=1, data=[52, 110]),
   midi.NoteOnEvent(tick=94, channel=1, data=[52, 0]),
   midi.NoteOnEvent(tick=2, channel=1, data=[52, 110]),
   midi.NoteOnEvent(tick=94, channel=1, data=[52, 0]),
   midi.NoteOnEvent(tick=2, channel=1, data=[52, 110]),
   midi.NoteOnEvent(tick=94, channel=1, data=[52, 0]),
   midi.NoteOnEvent(tick=2, channel=1, data=[52, 110]),
   midi.NoteOnEvent(tick=94, channel=1, data=[52, 0]),
   midi.NoteOnEvent(tick=2, channel=1, data=[52, 110]),
   midi.NoteOnEvent(tick=46, channel=1, data=[52, 0]),
   midi.NoteOnEvent(tick=2, channel=1, data=[52, 110]),
   midi.NoteOnEvent(tick=46, channel=1, data=[52, 0]),
   midi.NoteOnEvent(tick=2, channel=1, data=[52, 110]),
   midi.NoteOnEvent(tick=46, channel=1, data=[52, 0]),
   midi.NoteOnEvent(tick=2, channel=1, data=[52, 110]),
   midi.NoteOnEvent(tick=46, channel=1, data=[52, 0]),
   midi.NoteOnEvent(tick=2, channel=1, data=[52, 110]),
   midi.NoteOnEvent(tick=94, channel=1, data=[52, 0]),
   midi.NoteOnEvent(tick=2, channel=1, data=[52, 110]),
   midi.NoteOnEvent(tick=46, channel=1, data=[52, 0]),
   midi.NoteOnEvent(tick=2, channel=1, data=[52, 110]),
   midi.NoteOnEvent(tick=46, channel=1, data=[52, 0]),
   midi.NoteOnEvent(tick=2, channel=1, data=[52, 110]),
   midi.NoteOnEvent(tick=94, channel=1, data=[52, 0]),
   midi.NoteOnEvent(tick=2, channel=1, data=[52, 110]),
   midi.NoteOnEvent(tick=94, channel=1, data=[52, 0]),
   midi.NoteOnEvent(tick=2, channel=1, data=[52, 110]),
   midi.NoteOnEvent(tick=94, channel=1, data=[52, 0]),
   midi.NoteOnEvent(tick=2, channel=1, data=[52, 110]),
   midi.NoteOnEvent(tick=94, channel=1, data=[52, 0]),
   midi.NoteOnEvent(tick=2, channel=1, data=[52, 110]),
   midi.NoteOnEvent(tick=46, channel=1, data=[52, 0]),
   midi.NoteOnEvent(tick=2, channel=1, data=[52, 110]),
   midi.NoteOnEvent(tick=46, channel=1, data=[52, 0]),
   midi.NoteOnEvent(tick=2, channel=1, data=[52, 110]),
   midi.NoteOnEvent(tick=46, channel=1, data=[52, 0]),
   midi.NoteOnEvent(tick=2, channel=1, data=[52, 110]),
   midi.NoteOnEvent(tick=46, channel=1, data=[52, 0]),
   midi.NoteOnEvent(tick=2, channel=1, data=[52, 110]),
   midi.NoteOnEvent(tick=94, channel=1, data=[52, 0]),
   midi.NoteOnEvent(tick=2, channel=1, data=[52, 110]),
   midi.NoteOnEvent(tick=46, channel=1, data=[52, 0]),
   midi.NoteOnEvent(tick=2, channel=1, data=[52, 110]),
   midi.NoteOnEvent(tick=46, channel=1, data=[52, 0]),
   midi.NoteOnEvent(tick=2, channel=1, data=[52, 110]),
   midi.NoteOnEvent(tick=94, channel=1, data=[52, 0]),
   midi.NoteOnEvent(tick=2, channel=1, data=[52, 110]),
   midi.NoteOnEvent(tick=94, channel=1, data=[52, 0]),
   midi.NoteOnEvent(tick=2, channel=1, data=[52, 110]),
   midi.NoteOnEvent(tick=94, channel=1, data=[52, 0]),
   midi.NoteOnEvent(tick=2, channel=1, data=[52, 110]),
   midi.NoteOnEvent(tick=94, channel=1, data=[52, 0]),
   midi.NoteOnEvent(tick=2, channel=1, data=[52, 110]),
   midi.NoteOnEvent(tick=46, channel=1, data=[52, 0]),
   midi.NoteOnEvent(tick=2, channel=1, data=[52, 110]),
   midi.NoteOnEvent(tick=46, channel=1, data=[52, 0]),
   midi.NoteOnEvent(tick=2, channel=1, data=[52, 110]),
   midi.NoteOnEvent(tick=46, channel=1, data=[52, 0]),
   midi.NoteOnEvent(tick=2, channel=1, data=[52, 110]),
   midi.NoteOnEvent(tick=46, channel=1, data=[52, 0]),
   midi.NoteOnEvent(tick=2, channel=1, data=[52, 110]),
   midi.NoteOnEvent(tick=94, channel=1, data=[52, 0]),
   midi.NoteOnEvent(tick=2, channel=1, data=[52, 110]),
   midi.NoteOnEvent(tick=46, channel=1, data=[52, 0]),
   midi.NoteOnEvent(tick=2, channel=1, data=[52, 110]),
   midi.NoteOnEvent(tick=46, channel=1, data=[52, 0]),
   midi.NoteOnEvent(tick=2, channel=1, data=[52, 110]),
   midi.NoteOnEvent(tick=94, channel=1, data=[52, 0]),
   midi.NoteOnEvent(tick=2, channel=1, data=[52, 110]),
   midi.NoteOnEvent(tick=94, channel=1, data=[52, 0]),
   midi.NoteOnEvent(tick=2, channel=1, data=[52, 110]),
   midi.NoteOnEvent(tick=94, channel=1, data=[52, 0]),
   midi.NoteOnEvent(tick=2, channel=1, data=[52, 110]),
   midi.NoteOnEvent(tick=94, channel=1, data=[52, 0]),
   midi.NoteOnEvent(tick=2, channel=1, data=[52, 110]),
   midi.NoteOnEvent(tick=46, channel=1, data=[52, 0]),
   midi.NoteOnEvent(tick=2, channel=1, data=[52, 110]),
   midi.NoteOnEvent(tick=46, channel=1, data=[52, 0]),
   midi.NoteOnEvent(tick=2, channel=1, data=[52, 110]),
   midi.NoteOnEvent(tick=46, channel=1, data=[52, 0]),
   midi.NoteOnEvent(tick=2, channel=1, data=[52, 110]),
   midi.NoteOnEvent(tick=46, channel=1, data=[52, 0]),
   midi.NoteOnEvent(tick=2, channel=1, data=[52, 110]),
   midi.NoteOnEvent(tick=94, channel=1, data=[52, 0]),
   midi.NoteOnEvent(tick=2, channel=1, data=[52, 110]),
   midi.NoteOnEvent(tick=46, channel=1, data=[52, 0]),
   midi.NoteOnEvent(tick=2, channel=1, data=[52, 110]),
   midi.NoteOnEvent(tick=46, channel=1, data=[52, 0]),
   midi.NoteOnEvent(tick=2, channel=1, data=[52, 110]),
   midi.NoteOnEvent(tick=94, channel=1, data=[52, 0]),
   midi.NoteOnEvent(tick=2, channel=1, data=[52, 110]),
   midi.NoteOnEvent(tick=94, channel=1, data=[52, 0]),
   midi.NoteOnEvent(tick=2, channel=1, data=[52, 110]),
   midi.NoteOnEvent(tick=94, channel=1, data=[52, 0]),
   midi.NoteOnEvent(tick=2, channel=1, data=[52, 110]),
   midi.NoteOnEvent(tick=94, channel=1, data=[52, 0]),
   midi.NoteOnEvent(tick=2, channel=1, data=[52, 110]),
   midi.NoteOnEvent(tick=46, channel=1, data=[52, 0]),
   midi.NoteOnEvent(tick=2, channel=1, data=[52, 110]),
   midi.NoteOnEvent(tick=46, channel=1, data=[52, 0]),
   midi.NoteOnEvent(tick=2, channel=1, data=[52, 110]),
   midi.NoteOnEvent(tick=46, channel=1, data=[52, 0]),
   midi.NoteOnEvent(tick=2, channel=1, data=[52, 110]),
   midi.NoteOnEvent(tick=46, channel=1, data=[52, 0]),
   midi.NoteOnEvent(tick=2, channel=1, data=[52, 110]),
   midi.NoteOnEvent(tick=94, channel=1, data=[52, 0]),
   midi.NoteOnEvent(tick=2, channel=1, data=[52, 110]),
   midi.NoteOnEvent(tick=46, channel=1, data=[52, 0]),
   midi.NoteOnEvent(tick=2, channel=1, data=[52, 110]),
   midi.NoteOnEvent(tick=46, channel=1, data=[52, 0]),
   midi.NoteOnEvent(tick=2, channel=1, data=[52, 110]),
   midi.NoteOnEvent(tick=94, channel=1, data=[52, 0]),
   midi.NoteOnEvent(tick=2, channel=1, data=[52, 110]),
   midi.NoteOnEvent(tick=94, channel=1, data=[52, 0]),
   midi.NoteOnEvent(tick=2, channel=1, data=[52, 110]),
   midi.NoteOnEvent(tick=94, channel=1, data=[52, 0]),
   midi.NoteOnEvent(tick=2, channel=1, data=[52, 110]),
   midi.NoteOnEvent(tick=94, channel=1, data=[52, 0]),
   midi.NoteOnEvent(tick=2, channel=1, data=[52, 110]),
   midi.NoteOnEvent(tick=46, channel=1, data=[52, 0]),
   midi.NoteOnEvent(tick=2, channel=1, data=[52, 110]),
   midi.NoteOnEvent(tick=46, channel=1, data=[52, 0]),
   midi.NoteOnEvent(tick=2, channel=1, data=[52, 110]),
   midi.NoteOnEvent(tick=46, channel=1, data=[52, 0]),
   midi.NoteOnEvent(tick=2, channel=1, data=[52, 110]),
   midi.NoteOnEvent(tick=46, channel=1, data=[52, 0]),
   midi.NoteOnEvent(tick=2, channel=1, data=[52, 110]),
   midi.NoteOnEvent(tick=94, channel=1, data=[52, 0]),
   midi.NoteOnEvent(tick=2, channel=1, data=[52, 110]),
   midi.NoteOnEvent(tick=46, channel=1, data=[52, 0]),
   midi.NoteOnEvent(tick=2, channel=1, data=[52, 110]),
   midi.NoteOnEvent(tick=46, channel=1, data=[52, 0]),
   midi.NoteOnEvent(tick=2, channel=1, data=[52, 110]),
   midi.NoteOnEvent(tick=94, channel=1, data=[52, 0]),
   midi.NoteOnEvent(tick=2, channel=1, data=[52, 110]),
   midi.NoteOnEvent(tick=94, channel=1, data=[52, 0]),
   midi.NoteOnEvent(tick=2, channel=1, data=[52, 110]),
   midi.NoteOnEvent(tick=94, channel=1, data=[52, 0]),
   midi.NoteOnEvent(tick=2, channel=1, data=[52, 110]),
   midi.NoteOnEvent(tick=94, channel=1, data=[52, 0]),
   midi.NoteOnEvent(tick=2, channel=1, data=[52, 110]),
   midi.NoteOnEvent(tick=46, channel=1, data=[52, 0]),
   midi.NoteOnEvent(tick=2, channel=1, data=[52, 110]),
   midi.NoteOnEvent(tick=46, channel=1, data=[52, 0]),
   midi.NoteOnEvent(tick=2, channel=1, data=[52, 110]),
   midi.NoteOnEvent(tick=46, channel=1, data=[52, 0]),
   midi.NoteOnEvent(tick=2, channel=1, data=[52, 110]),
   midi.NoteOnEvent(tick=46, channel=1, data=[52, 0]),
   midi.NoteOnEvent(tick=2, channel=1, data=[52, 110]),
   midi.NoteOnEvent(tick=94, channel=1, data=[52, 0]),
   midi.NoteOnEvent(tick=2, channel=1, data=[52, 110]),
   midi.NoteOnEvent(tick=46, channel=1, data=[52, 0]),
   midi.NoteOnEvent(tick=2, channel=1, data=[52, 110]),
   midi.NoteOnEvent(tick=46, channel=1, data=[52, 0]),
   midi.NoteOnEvent(tick=2, channel=1, data=[52, 110]),
   midi.NoteOnEvent(tick=94, channel=1, data=[52, 0]),
   midi.NoteOnEvent(tick=2, channel=1, data=[52, 110]),
   midi.NoteOnEvent(tick=94, channel=1, data=[52, 0]),
   midi.NoteOnEvent(tick=2, channel=1, data=[52, 110]),
   midi.NoteOnEvent(tick=94, channel=1, data=[52, 0]),
   midi.NoteOnEvent(tick=2, channel=1, data=[52, 110]),
   midi.NoteOnEvent(tick=94, channel=1, data=[52, 0]),
   midi.NoteOnEvent(tick=2, channel=1, data=[52, 110]),
   midi.NoteOnEvent(tick=46, channel=1, data=[52, 0]),
   midi.NoteOnEvent(tick=2, channel=1, data=[52, 110]),
   midi.NoteOnEvent(tick=46, channel=1, data=[52, 0]),
   midi.NoteOnEvent(tick=2, channel=1, data=[52, 110]),
   midi.NoteOnEvent(tick=46, channel=1, data=[52, 0]),
   midi.NoteOnEvent(tick=2, channel=1, data=[52, 110]),
   midi.NoteOnEvent(tick=46, channel=1, data=[52, 0]),
   midi.NoteOnEvent(tick=2, channel=1, data=[52, 110]),
   midi.NoteOnEvent(tick=94, channel=1, data=[52, 0]),
   midi.NoteOnEvent(tick=2, channel=1, data=[52, 110]),
   midi.NoteOnEvent(tick=46, channel=1, data=[52, 0]),
   midi.NoteOnEvent(tick=2, channel=1, data=[52, 110]),
   midi.NoteOnEvent(tick=46, channel=1, data=[52, 0]),
   midi.NoteOnEvent(tick=2, channel=1, data=[52, 110]),
   midi.NoteOnEvent(tick=94, channel=1, data=[52, 0]),
   midi.NoteOnEvent(tick=2, channel=1, data=[52, 110]),
   midi.NoteOnEvent(tick=94, channel=1, data=[52, 0]),
   midi.NoteOnEvent(tick=2, channel=1, data=[52, 110]),
   midi.NoteOnEvent(tick=94, channel=1, data=[52, 0]),
   midi.NoteOnEvent(tick=2, channel=1, data=[52, 110]),
   midi.NoteOnEvent(tick=94, channel=1, data=[52, 0]),
   midi.NoteOnEvent(tick=2, channel=1, data=[52, 110]),
   midi.NoteOnEvent(tick=46, channel=1, data=[52, 0]),
   midi.NoteOnEvent(tick=2, channel=1, data=[52, 110]),
   midi.NoteOnEvent(tick=46, channel=1, data=[52, 0]),
   midi.NoteOnEvent(tick=2, channel=1, data=[52, 110]),
   midi.NoteOnEvent(tick=46, channel=1, data=[52, 0]),
   midi.NoteOnEvent(tick=2, channel=1, data=[52, 110]),
   midi.NoteOnEvent(tick=46, channel=1, data=[52, 0]),
   midi.NoteOnEvent(tick=2, channel=1, data=[52, 110]),
   midi.NoteOnEvent(tick=94, channel=1, data=[52, 0]),
   midi.NoteOnEvent(tick=2, channel=1, data=[52, 110]),
   midi.NoteOnEvent(tick=46, channel=1, data=[52, 0]),
   midi.NoteOnEvent(tick=2, channel=1, data=[52, 110]),
   midi.NoteOnEvent(tick=46, channel=1, data=[52, 0]),
   midi.NoteOnEvent(tick=2, channel=1, data=[52, 110]),
   midi.NoteOnEvent(tick=94, channel=1, data=[52, 0]),
   midi.NoteOnEvent(tick=2, channel=1, data=[52, 110]),
   midi.NoteOnEvent(tick=94, channel=1, data=[52, 0]),
   midi.NoteOnEvent(tick=2, channel=1, data=[52, 110]),
   midi.NoteOnEvent(tick=94, channel=1, data=[52, 0]),
   midi.NoteOnEvent(tick=2, channel=1, data=[52, 110]),
   midi.NoteOnEvent(tick=94, channel=1, data=[52, 0]),
   midi.NoteOnEvent(tick=2, channel=1, data=[52, 110]),
   midi.NoteOnEvent(tick=46, channel=1, data=[52, 0]),
   midi.NoteOnEvent(tick=2, channel=1, data=[52, 110]),
   midi.NoteOnEvent(tick=46, channel=1, data=[52, 0]),
   midi.NoteOnEvent(tick=2, channel=1, data=[52, 110]),
   midi.NoteOnEvent(tick=46, channel=1, data=[52, 0]),
   midi.NoteOnEvent(tick=2, channel=1, data=[52, 110]),
   midi.NoteOnEvent(tick=46, channel=1, data=[52, 0]),
   midi.NoteOnEvent(tick=2, channel=1, data=[52, 110]),
   midi.NoteOnEvent(tick=94, channel=1, data=[52, 0]),
   midi.NoteOnEvent(tick=2, channel=1, data=[52, 110]),
   midi.NoteOnEvent(tick=46, channel=1, data=[52, 0]),
   midi.NoteOnEvent(tick=2, channel=1, data=[52, 110]),
   midi.NoteOnEvent(tick=46, channel=1, data=[52, 0]),
   midi.NoteOnEvent(tick=2, channel=1, data=[52, 110]),
   midi.NoteOnEvent(tick=94, channel=1, data=[52, 0]),
   midi.NoteOnEvent(tick=2, channel=1, data=[52, 110]),
   midi.NoteOnEvent(tick=94, channel=1, data=[52, 0]),
   midi.NoteOnEvent(tick=2, channel=1, data=[52, 110]),
   midi.NoteOnEvent(tick=94, channel=1, data=[52, 0]),
   midi.NoteOnEvent(tick=2, channel=1, data=[52, 110]),
   midi.NoteOnEvent(tick=94, channel=1, data=[52, 0]),
   midi.NoteOnEvent(tick=2, channel=1, data=[52, 110]),
   midi.NoteOnEvent(tick=46, channel=1, data=[52, 0]),
   midi.NoteOnEvent(tick=2, channel=1, data=[52, 110]),
   midi.NoteOnEvent(tick=46, channel=1, data=[52, 0]),
   midi.NoteOnEvent(tick=2, channel=1, data=[52, 110]),
   midi.NoteOnEvent(tick=46, channel=1, data=[52, 0]),
   midi.NoteOnEvent(tick=2, channel=1, data=[52, 110]),
   midi.NoteOnEvent(tick=46, channel=1, data=[52, 0]),
   midi.NoteOnEvent(tick=2, channel=1, data=[52, 110]),
   midi.NoteOnEvent(tick=94, channel=1, data=[52, 0]),
   midi.NoteOnEvent(tick=2, channel=1, data=[52, 110]),
   midi.NoteOnEvent(tick=46, channel=1, data=[52, 0]),
   midi.NoteOnEvent(tick=2, channel=1, data=[52, 110]),
   midi.NoteOnEvent(tick=46, channel=1, data=[52, 0]),
   midi.NoteOnEvent(tick=2, channel=1, data=[52, 110]),
   midi.NoteOnEvent(tick=94, channel=1, data=[52, 0]),
   midi.NoteOnEvent(tick=2, channel=1, data=[52, 110]),
   midi.NoteOnEvent(tick=94, channel=1, data=[52, 0]),
   midi.NoteOnEvent(tick=2, channel=1, data=[52, 110]),
   midi.NoteOnEvent(tick=94, channel=1, data=[52, 0]),
   midi.NoteOnEvent(tick=2, channel=1, data=[52, 110]),
   midi.NoteOnEvent(tick=94, channel=1, data=[52, 0]),
   midi.NoteOnEvent(tick=2, channel=1, data=[52, 110]),
   midi.NoteOnEvent(tick=46, channel=1, data=[52, 0]),
   midi.NoteOnEvent(tick=2, channel=1, data=[52, 110]),
   midi.NoteOnEvent(tick=46, channel=1, data=[52, 0]),
   midi.NoteOnEvent(tick=2, channel=1, data=[52, 110]),
   midi.NoteOnEvent(tick=46, channel=1, data=[52, 0]),
   midi.NoteOnEvent(tick=2, channel=1, data=[52, 110]),
   midi.NoteOnEvent(tick=46, channel=1, data=[52, 0]),
   midi.NoteOnEvent(tick=2, channel=1, data=[52, 110]),
   midi.NoteOnEvent(tick=94, channel=1, data=[52, 0]),
   midi.NoteOnEvent(tick=2, channel=1, data=[52, 110]),
   midi.NoteOnEvent(tick=46, channel=1, data=[52, 0]),
   midi.NoteOnEvent(tick=2, channel=1, data=[52, 110]),
   midi.NoteOnEvent(tick=46, channel=1, data=[52, 0]),
   midi.NoteOnEvent(tick=2, channel=1, data=[52, 110]),
   midi.NoteOnEvent(tick=94, channel=1, data=[52, 0]),
   midi.NoteOnEvent(tick=2, channel=1, data=[52, 110]),
   midi.NoteOnEvent(tick=94, channel=1, data=[52, 0]),
   midi.NoteOnEvent(tick=2, channel=1, data=[52, 110]),
   midi.NoteOnEvent(tick=94, channel=1, data=[52, 0]),
   midi.NoteOnEvent(tick=2, channel=1, data=[52, 110]),
   midi.NoteOnEvent(tick=94, channel=1, data=[52, 0]),
   midi.NoteOnEvent(tick=2, channel=1, data=[52, 110]),
   midi.NoteOnEvent(tick=46, channel=1, data=[52, 0]),
   midi.NoteOnEvent(tick=2, channel=1, data=[52, 110]),
   midi.NoteOnEvent(tick=46, channel=1, data=[52, 0]),
   midi.NoteOnEvent(tick=2, channel=1, data=[52, 110]),
   midi.NoteOnEvent(tick=46, channel=1, data=[52, 0]),
   midi.NoteOnEvent(tick=2, channel=1, data=[52, 110]),
   midi.NoteOnEvent(tick=46, channel=1, data=[52, 0]),
   midi.NoteOnEvent(tick=2, channel=1, data=[52, 110]),
   midi.NoteOnEvent(tick=94, channel=1, data=[52, 0]),
   midi.NoteOnEvent(tick=2, channel=1, data=[52, 110]),
   midi.NoteOnEvent(tick=46, channel=1, data=[52, 0]),
   midi.NoteOnEvent(tick=2, channel=1, data=[52, 110]),
   midi.NoteOnEvent(tick=46, channel=1, data=[52, 0]),
   midi.NoteOnEvent(tick=2, channel=1, data=[52, 110]),
   midi.NoteOnEvent(tick=94, channel=1, data=[52, 0]),
   midi.NoteOnEvent(tick=2, channel=1, data=[52, 110]),
   midi.NoteOnEvent(tick=94, channel=1, data=[52, 0]),
   midi.NoteOnEvent(tick=2, channel=1, data=[52, 110]),
   midi.NoteOnEvent(tick=94, channel=1, data=[52, 0]),
   midi.NoteOnEvent(tick=2, channel=1, data=[52, 110]),
   midi.NoteOnEvent(tick=94, channel=1, data=[52, 0]),
   midi.NoteOnEvent(tick=2, channel=1, data=[52, 110]),
   midi.NoteOnEvent(tick=46, channel=1, data=[52, 0]),
   midi.NoteOnEvent(tick=2, channel=1, data=[52, 110]),
   midi.NoteOnEvent(tick=46, channel=1, data=[52, 0]),
   midi.NoteOnEvent(tick=2, channel=1, data=[52, 110]),
   midi.NoteOnEvent(tick=46, channel=1, data=[52, 0]),
   midi.NoteOnEvent(tick=2, channel=1, data=[52, 110]),
   midi.NoteOnEvent(tick=46, channel=1, data=[52, 0]),
   midi.NoteOnEvent(tick=2, channel=1, data=[61, 110]),
   midi.NoteOnEvent(tick=0, channel=1, data=[68, 110]),
   midi.NoteOnEvent(tick=94, channel=1, data=[61, 0]),
   midi.NoteOnEvent(tick=0, channel=1, data=[68, 0]),
   midi.NoteOnEvent(tick=2, channel=1, data=[61, 110]),
   midi.NoteOnEvent(tick=46, channel=1, data=[61, 0]),
   midi.NoteOnEvent(tick=2, channel=1, data=[61, 110]),
   midi.NoteOnEvent(tick=46, channel=1, data=[61, 0]),
   midi.NoteOnEvent(tick=2, channel=1, data=[61, 110]),
   midi.NoteOnEvent(tick=46, channel=1, data=[61, 0]),
   midi.NoteOnEvent(tick=2, channel=1, data=[61, 110]),
   midi.NoteOnEvent(tick=46, channel=1, data=[61, 0]),
   midi.NoteOnEvent(tick=2, channel=1, data=[61, 110]),
   midi.NoteOnEvent(tick=46, channel=1, data=[61, 0]),
   midi.NoteOnEvent(tick=2, channel=1, data=[61, 110]),
   midi.NoteOnEvent(tick=46, channel=1, data=[61, 0]),
   midi.NoteOnEvent(tick=2, channel=1, data=[61, 110]),
   midi.NoteOnEvent(tick=94, channel=1, data=[61, 0]),
   midi.NoteOnEvent(tick=2, channel=1, data=[61, 110]),
   midi.NoteOnEvent(tick=46, channel=1, data=[61, 0]),
   midi.NoteOnEvent(tick=2, channel=1, data=[61, 110]),
   midi.NoteOnEvent(tick=46, channel=1, data=[61, 0]),
   midi.NoteOnEvent(tick=2, channel=1, data=[61, 110]),
   midi.NoteOnEvent(tick=46, channel=1, data=[61, 0]),
   midi.NoteOnEvent(tick=2, channel=1, data=[61, 110]),
   midi.NoteOnEvent(tick=46, channel=1, data=[61, 0]),
   midi.NoteOnEvent(tick=2, channel=1, data=[61, 110]),
   midi.NoteOnEvent(tick=46, channel=1, data=[61, 0]),
   midi.NoteOnEvent(tick=2, channel=1, data=[61, 110]),
   midi.NoteOnEvent(tick=46, channel=1, data=[61, 0]),
   midi.NoteOnEvent(tick=2, channel=1, data=[61, 110]),
   midi.NoteOnEvent(tick=0, channel=1, data=[68, 110]),
   midi.NoteOnEvent(tick=94, channel=1, data=[61, 0]),
   midi.NoteOnEvent(tick=0, channel=1, data=[68, 0]),
   midi.NoteOnEvent(tick=2, channel=1, data=[61, 110]),
   midi.NoteOnEvent(tick=46, channel=1, data=[61, 0]),
   midi.NoteOnEvent(tick=2, channel=1, data=[61, 110]),
   midi.NoteOnEvent(tick=46, channel=1, data=[61, 0]),
   midi.NoteOnEvent(tick=2, channel=1, data=[61, 110]),
   midi.NoteOnEvent(tick=46, channel=1, data=[61, 0]),
   midi.NoteOnEvent(tick=2, channel=1, data=[61, 110]),
   midi.NoteOnEvent(tick=46, channel=1, data=[61, 0]),
   midi.NoteOnEvent(tick=2, channel=1, data=[61, 110]),
   midi.NoteOnEvent(tick=46, channel=1, data=[61, 0]),
   midi.NoteOnEvent(tick=2, channel=1, data=[61, 110]),
   midi.NoteOnEvent(tick=46, channel=1, data=[61, 0]),
   midi.NoteOnEvent(tick=2, channel=1, data=[61, 110]),
   midi.NoteOnEvent(tick=94, channel=1, data=[61, 0]),
   midi.NoteOnEvent(tick=2, channel=1, data=[61, 110]),
   midi.NoteOnEvent(tick=46, channel=1, data=[61, 0]),
   midi.NoteOnEvent(tick=2, channel=1, data=[61, 110]),
   midi.NoteOnEvent(tick=46, channel=1, data=[61, 0]),
   midi.NoteOnEvent(tick=2, channel=1, data=[61, 110]),
   midi.NoteOnEvent(tick=46, channel=1, data=[61, 0]),
   midi.NoteOnEvent(tick=2, channel=1, data=[61, 110]),
   midi.NoteOnEvent(tick=46, channel=1, data=[61, 0]),
   midi.NoteOnEvent(tick=2, channel=1, data=[61, 110]),
   midi.NoteOnEvent(tick=46, channel=1, data=[61, 0]),
   midi.NoteOnEvent(tick=2, channel=1, data=[61, 110]),
   midi.NoteOnEvent(tick=46, channel=1, data=[61, 0]),
   midi.NoteOnEvent(tick=2, channel=1, data=[61, 110]),
   midi.NoteOnEvent(tick=0, channel=1, data=[68, 110]),
   midi.NoteOnEvent(tick=94, channel=1, data=[61, 0]),
   midi.NoteOnEvent(tick=0, channel=1, data=[68, 0]),
   midi.NoteOnEvent(tick=2, channel=1, data=[61, 110]),
   midi.NoteOnEvent(tick=46, channel=1, data=[61, 0]),
   midi.NoteOnEvent(tick=2, channel=1, data=[61, 110]),
   midi.NoteOnEvent(tick=46, channel=1, data=[61, 0]),
   midi.NoteOnEvent(tick=2, channel=1, data=[61, 110]),
   midi.NoteOnEvent(tick=46, channel=1, data=[61, 0]),
   midi.NoteOnEvent(tick=2, channel=1, data=[61, 110]),
   midi.NoteOnEvent(tick=46, channel=1, data=[61, 0]),
   midi.NoteOnEvent(tick=2, channel=1, data=[61, 110]),
   midi.NoteOnEvent(tick=46, channel=1, data=[61, 0]),
   midi.NoteOnEvent(tick=2, channel=1, data=[61, 110]),
   midi.NoteOnEvent(tick=46, channel=1, data=[61, 0]),
   midi.NoteOnEvent(tick=2, channel=1, data=[61, 110]),
   midi.NoteOnEvent(tick=94, channel=1, data=[61, 0]),
   midi.NoteOnEvent(tick=2, channel=1, data=[61, 110]),
   midi.NoteOnEvent(tick=46, channel=1, data=[61, 0]),
   midi.NoteOnEvent(tick=2, channel=1, data=[61, 110]),
   midi.NoteOnEvent(tick=46, channel=1, data=[61, 0]),
   midi.NoteOnEvent(tick=2, channel=1, data=[61, 110]),
   midi.NoteOnEvent(tick=46, channel=1, data=[61, 0]),
   midi.NoteOnEvent(tick=2, channel=1, data=[61, 110]),
   midi.NoteOnEvent(tick=46, channel=1, data=[61, 0]),
   midi.NoteOnEvent(tick=2, channel=1, data=[61, 110]),
   midi.NoteOnEvent(tick=46, channel=1, data=[61, 0]),
   midi.NoteOnEvent(tick=2, channel=1, data=[61, 110]),
   midi.NoteOnEvent(tick=46, channel=1, data=[61, 0]),
   midi.NoteOnEvent(tick=2, channel=1, data=[61, 110]),
   midi.NoteOnEvent(tick=0, channel=1, data=[68, 110]),
   midi.NoteOnEvent(tick=94, channel=1, data=[61, 0]),
   midi.NoteOnEvent(tick=0, channel=1, data=[68, 0]),
   midi.NoteOnEvent(tick=2, channel=1, data=[61, 110]),
   midi.NoteOnEvent(tick=46, channel=1, data=[61, 0]),
   midi.NoteOnEvent(tick=2, channel=1, data=[61, 110]),
   midi.NoteOnEvent(tick=46, channel=1, data=[61, 0]),
   midi.NoteOnEvent(tick=2, channel=1, data=[61, 110]),
   midi.NoteOnEvent(tick=46, channel=1, data=[61, 0]),
   midi.NoteOnEvent(tick=2, channel=1, data=[61, 110]),
   midi.NoteOnEvent(tick=46, channel=1, data=[61, 0]),
   midi.NoteOnEvent(tick=2, channel=1, data=[61, 110]),
   midi.NoteOnEvent(tick=46, channel=1, data=[61, 0]),
   midi.NoteOnEvent(tick=2, channel=1, data=[61, 110]),
   midi.NoteOnEvent(tick=46, channel=1, data=[61, 0]),
   midi.NoteOnEvent(tick=2, channel=1, data=[61, 110]),
   midi.NoteOnEvent(tick=94, channel=1, data=[61, 0]),
   midi.NoteOnEvent(tick=2, channel=1, data=[61, 110]),
   midi.NoteOnEvent(tick=46, channel=1, data=[61, 0]),
   midi.NoteOnEvent(tick=2, channel=1, data=[61, 110]),
   midi.NoteOnEvent(tick=46, channel=1, data=[61, 0]),
   midi.NoteOnEvent(tick=2, channel=1, data=[61, 110]),
   midi.NoteOnEvent(tick=46, channel=1, data=[61, 0]),
   midi.NoteOnEvent(tick=2, channel=1, data=[61, 110]),
   midi.NoteOnEvent(tick=46, channel=1, data=[61, 0]),
   midi.NoteOnEvent(tick=2, channel=1, data=[61, 110]),
   midi.NoteOnEvent(tick=46, channel=1, data=[61, 0]),
   midi.NoteOnEvent(tick=2, channel=1, data=[61, 110]),
   midi.NoteOnEvent(tick=46, channel=1, data=[61, 0]),
   midi.NoteOnEvent(tick=2, channel=1, data=[61, 110]),
   midi.NoteOnEvent(tick=0, channel=1, data=[68, 110]),
   midi.NoteOnEvent(tick=94, channel=1, data=[61, 0]),
   midi.NoteOnEvent(tick=0, channel=1, data=[68, 0]),
   midi.NoteOnEvent(tick=2, channel=1, data=[61, 110]),
   midi.NoteOnEvent(tick=46, channel=1, data=[61, 0]),
   midi.NoteOnEvent(tick=2, channel=1, data=[61, 110]),
   midi.NoteOnEvent(tick=46, channel=1, data=[61, 0]),
   midi.NoteOnEvent(tick=2, channel=1, data=[61, 110]),
   midi.NoteOnEvent(tick=46, channel=1, data=[61, 0]),
   midi.NoteOnEvent(tick=2, channel=1, data=[61, 110]),
   midi.NoteOnEvent(tick=46, channel=1, data=[61, 0]),
   midi.NoteOnEvent(tick=2, channel=1, data=[61, 110]),
   midi.NoteOnEvent(tick=46, channel=1, data=[61, 0]),
   midi.NoteOnEvent(tick=2, channel=1, data=[61, 110]),
   midi.NoteOnEvent(tick=46, channel=1, data=[61, 0]),
   midi.NoteOnEvent(tick=2, channel=1, data=[61, 110]),
   midi.NoteOnEvent(tick=94, channel=1, data=[61, 0]),
   midi.NoteOnEvent(tick=2, channel=1, data=[61, 110]),
   midi.NoteOnEvent(tick=46, channel=1, data=[61, 0]),
   midi.NoteOnEvent(tick=2, channel=1, data=[61, 110]),
   midi.NoteOnEvent(tick=46, channel=1, data=[61, 0]),
   midi.NoteOnEvent(tick=2, channel=1, data=[61, 110]),
   midi.NoteOnEvent(tick=46, channel=1, data=[61, 0]),
   midi.NoteOnEvent(tick=2, channel=1, data=[61, 110]),
   midi.NoteOnEvent(tick=46, channel=1, data=[61, 0]),
   midi.NoteOnEvent(tick=2, channel=1, data=[61, 110]),
   midi.NoteOnEvent(tick=46, channel=1, data=[61, 0]),
   midi.NoteOnEvent(tick=2, channel=1, data=[61, 110]),
   midi.NoteOnEvent(tick=46, channel=1, data=[61, 0]),
   midi.NoteOnEvent(tick=2, channel=1, data=[61, 110]),
   midi.NoteOnEvent(tick=0, channel=1, data=[68, 110]),
   midi.NoteOnEvent(tick=94, channel=1, data=[61, 0]),
   midi.NoteOnEvent(tick=0, channel=1, data=[68, 0]),
   midi.NoteOnEvent(tick=2, channel=1, data=[61, 110]),
   midi.NoteOnEvent(tick=46, channel=1, data=[61, 0]),
   midi.NoteOnEvent(tick=2, channel=1, data=[61, 110]),
   midi.NoteOnEvent(tick=46, channel=1, data=[61, 0]),
   midi.NoteOnEvent(tick=2, channel=1, data=[61, 110]),
   midi.NoteOnEvent(tick=46, channel=1, data=[61, 0]),
   midi.NoteOnEvent(tick=2, channel=1, data=[61, 110]),
   midi.NoteOnEvent(tick=46, channel=1, data=[61, 0]),
   midi.NoteOnEvent(tick=2, channel=1, data=[61, 110]),
   midi.NoteOnEvent(tick=46, channel=1, data=[61, 0]),
   midi.NoteOnEvent(tick=2, channel=1, data=[61, 110]),
   midi.NoteOnEvent(tick=46, channel=1, data=[61, 0]),
   midi.NoteOnEvent(tick=2, channel=1, data=[61, 110]),
   midi.NoteOnEvent(tick=94, channel=1, data=[61, 0]),
   midi.NoteOnEvent(tick=2, channel=1, data=[61, 110]),
   midi.NoteOnEvent(tick=46, channel=1, data=[61, 0]),
   midi.NoteOnEvent(tick=2, channel=1, data=[61, 110]),
   midi.NoteOnEvent(tick=46, channel=1, data=[61, 0]),
   midi.NoteOnEvent(tick=2, channel=1, data=[61, 110]),
   midi.NoteOnEvent(tick=46, channel=1, data=[61, 0]),
   midi.NoteOnEvent(tick=2, channel=1, data=[61, 110]),
   midi.NoteOnEvent(tick=46, channel=1, data=[61, 0]),
   midi.NoteOnEvent(tick=2, channel=1, data=[61, 110]),
   midi.NoteOnEvent(tick=46, channel=1, data=[61, 0]),
   midi.NoteOnEvent(tick=2, channel=1, data=[61, 110]),
   midi.NoteOnEvent(tick=46, channel=1, data=[61, 0]),
   midi.SetTempoEvent(tick=2, data=[4, 147, 224]),
   midi.NoteOnEvent(tick=0, channel=1, data=[57, 110]),
   midi.SetTempoEvent(tick=51, data=[4, 159, 182]),
   midi.NoteOnEvent(tick=43, channel=1, data=[57, 0]),
   midi.NoteOnEvent(tick=2, channel=1, data=[67, 110]),
   midi.SetTempoEvent(tick=6, data=[4, 171, 202]),
   midi.SetTempoEvent(tick=51, data=[4, 184, 30]),
   midi.NoteOnEvent(tick=37, channel=1, data=[67, 0]),
   midi.NoteOnEvent(tick=2, channel=1, data=[66, 110]),
   midi.SetTempoEvent(tick=12, data=[4, 196, 180]),
   midi.SetTempoEvent(tick=52, data=[4, 209, 141]),
   midi.NoteOnEvent(tick=30, channel=1, data=[66, 0]),
   midi.NoteOnEvent(tick=2, channel=1, data=[57, 110]),
   midi.SetTempoEvent(tick=19, data=[4, 222, 172]),
   midi.SetTempoEvent(tick=51, data=[4, 236, 20]),
   midi.NoteOnEvent(tick=24, channel=1, data=[57, 0]),
   midi.NoteOnEvent(tick=2, channel=1, data=[66, 110]),
   midi.SetTempoEvent(tick=25, data=[4, 249, 198]),
   midi.SetTempoEvent(tick=51, data=[5, 7, 198]),
   midi.NoteOnEvent(tick=18, channel=1, data=[66, 0]),
   midi.NoteOnEvent(tick=2, channel=1, data=[64, 110]),
   midi.SetTempoEvent(tick=32, data=[5, 22, 21]),
   midi.SetTempoEvent(tick=51, data=[5, 36, 182]),
   midi.NoteOnEvent(tick=11, channel=1, data=[64, 0]),
   midi.NoteOnEvent(tick=2, channel=1, data=[62, 110]),
   midi.SetTempoEvent(tick=38, data=[5, 51, 173]),
   midi.SetTempoEvent(tick=51, data=[5, 66, 251]),
   midi.NoteOnEvent(tick=5, channel=1, data=[62, 0]),
   midi.NoteOnEvent(tick=2, channel=1, data=[61, 110]),
   midi.SetTempoEvent(tick=44, data=[5, 82, 165]),
   midi.NoteOnEvent(tick=50, channel=1, data=[61, 0]),
   midi.SetTempoEvent(tick=2, data=[5, 98, 173]),
   midi.NoteOnEvent(tick=0, channel=1, data=[55, 110]),
   midi.NoteOnEvent(tick=0, channel=1, data=[62, 110]),
   midi.NoteOnEvent(tick=0, channel=1, data=[67, 110]),
   midi.NoteOnEvent(tick=126, channel=1, data=[55, 0]),
   midi.NoteOnEvent(tick=0, channel=1, data=[62, 0]),
   midi.NoteOnEvent(tick=0, channel=1, data=[67, 0]),
   midi.NoteOnEvent(tick=2, channel=1, data=[54, 110]),
   midi.NoteOnEvent(tick=0, channel=1, data=[61, 110]),
   midi.NoteOnEvent(tick=0, channel=1, data=[66, 110]),
   midi.NoteOnEvent(tick=126, channel=1, data=[54, 0]),
   midi.NoteOnEvent(tick=0, channel=1, data=[61, 0]),
   midi.NoteOnEvent(tick=0, channel=1, data=[66, 0]),
   midi.NoteOnEvent(tick=2, channel=1, data=[52, 110]),
   midi.NoteOnEvent(tick=0, channel=1, data=[59, 110]),
   midi.NoteOnEvent(tick=0, channel=1, data=[64, 110]),
   midi.NoteOnEvent(tick=126, channel=1, data=[52, 0]),
   midi.NoteOnEvent(tick=0, channel=1, data=[59, 0]),
   midi.NoteOnEvent(tick=0, channel=1, data=[64, 0]),
   midi.NoteOnEvent(tick=2, channel=1, data=[62, 110]),
   midi.NoteOnEvent(tick=0, channel=1, data=[69, 110]),
   midi.NoteOnEvent(tick=0, channel=1, data=[74, 110]),
   midi.NoteOnEvent(tick=126, channel=1, data=[62, 0]),
   midi.NoteOnEvent(tick=0, channel=1, data=[69, 0]),
   midi.NoteOnEvent(tick=0, channel=1, data=[74, 0]),
   midi.NoteOnEvent(tick=2, channel=1, data=[61, 110]),
   midi.NoteOnEvent(tick=0, channel=1, data=[68, 110]),
   midi.NoteOnEvent(tick=0, channel=1, data=[73, 110]),
   midi.NoteOnEvent(tick=126, channel=1, data=[61, 0]),
   midi.NoteOnEvent(tick=0, channel=1, data=[68, 0]),
   midi.NoteOnEvent(tick=0, channel=1, data=[73, 0]),
   midi.NoteOnEvent(tick=2, channel=1, data=[59, 110]),
   midi.NoteOnEvent(tick=0, channel=1, data=[66, 110]),
   midi.NoteOnEvent(tick=0, channel=1, data=[71, 110]),
   midi.NoteOnEvent(tick=126, channel=1, data=[59, 0]),
   midi.NoteOnEvent(tick=0, channel=1, data=[66, 0]),
   midi.NoteOnEvent(tick=0, channel=1, data=[71, 0]),
   midi.NoteOnEvent(tick=2, channel=1, data=[52, 110]),
   midi.NoteOnEvent(tick=94, channel=1, data=[52, 0]),
   midi.NoteOnEvent(tick=2, channel=1, data=[52, 110]),
   midi.NoteOnEvent(tick=46, channel=1, data=[52, 0]),
   midi.NoteOnEvent(tick=2, channel=1, data=[52, 110]),
   midi.NoteOnEvent(tick=46, channel=1, data=[52, 0]),
   midi.NoteOnEvent(tick=2, channel=1, data=[52, 110]),
   midi.NoteOnEvent(tick=94, channel=1, data=[52, 0]),
   midi.NoteOnEvent(tick=2, channel=1, data=[52, 110]),
   midi.NoteOnEvent(tick=94, channel=1, data=[52, 0]),
   midi.NoteOnEvent(tick=2, channel=1, data=[52, 110]),
   midi.NoteOnEvent(tick=94, channel=1, data=[52, 0]),
   midi.NoteOnEvent(tick=2, channel=1, data=[52, 110]),
   midi.NoteOnEvent(tick=94, channel=1, data=[52, 0]),
   midi.NoteOnEvent(tick=2, channel=1, data=[52, 110]),
   midi.NoteOnEvent(tick=46, channel=1, data=[52, 0]),
   midi.NoteOnEvent(tick=2, channel=1, data=[52, 110]),
   midi.NoteOnEvent(tick=46, channel=1, data=[52, 0]),
   midi.NoteOnEvent(tick=2, channel=1, data=[52, 110]),
   midi.NoteOnEvent(tick=46, channel=1, data=[52, 0]),
   midi.NoteOnEvent(tick=2, channel=1, data=[52, 110]),
   midi.NoteOnEvent(tick=46, channel=1, data=[52, 0]),
   midi.NoteOnEvent(tick=2, channel=1, data=[52, 110]),
   midi.NoteOnEvent(tick=94, channel=1, data=[52, 0]),
   midi.NoteOnEvent(tick=2, channel=1, data=[52, 110]),
   midi.NoteOnEvent(tick=46, channel=1, data=[52, 0]),
   midi.NoteOnEvent(tick=2, channel=1, data=[52, 110]),
   midi.NoteOnEvent(tick=46, channel=1, data=[52, 0]),
   midi.NoteOnEvent(tick=2, channel=1, data=[52, 110]),
   midi.NoteOnEvent(tick=94, channel=1, data=[52, 0]),
   midi.NoteOnEvent(tick=2, channel=1, data=[52, 110]),
   midi.NoteOnEvent(tick=94, channel=1, data=[52, 0]),
   midi.NoteOnEvent(tick=2, channel=1, data=[52, 110]),
   midi.NoteOnEvent(tick=94, channel=1, data=[52, 0]),
   midi.NoteOnEvent(tick=2, channel=1, data=[52, 110]),
   midi.NoteOnEvent(tick=94, channel=1, data=[52, 0]),
   midi.NoteOnEvent(tick=2, channel=1, data=[52, 110]),
   midi.NoteOnEvent(tick=46, channel=1, data=[52, 0]),
   midi.NoteOnEvent(tick=2, channel=1, data=[52, 110]),
   midi.NoteOnEvent(tick=46, channel=1, data=[52, 0]),
   midi.NoteOnEvent(tick=2, channel=1, data=[52, 110]),
   midi.NoteOnEvent(tick=46, channel=1, data=[52, 0]),
   midi.NoteOnEvent(tick=2, channel=1, data=[52, 110]),
   midi.NoteOnEvent(tick=46, channel=1, data=[52, 0]),
   midi.NoteOnEvent(tick=2, channel=1, data=[52, 110]),
   midi.NoteOnEvent(tick=94, channel=1, data=[52, 0]),
   midi.NoteOnEvent(tick=2, channel=1, data=[52, 110]),
   midi.NoteOnEvent(tick=46, channel=1, data=[52, 0]),
   midi.NoteOnEvent(tick=2, channel=1, data=[52, 110]),
   midi.NoteOnEvent(tick=46, channel=1, data=[52, 0]),
   midi.NoteOnEvent(tick=2, channel=1, data=[52, 110]),
   midi.NoteOnEvent(tick=94, channel=1, data=[52, 0]),
   midi.NoteOnEvent(tick=2, channel=1, data=[52, 110]),
   midi.NoteOnEvent(tick=94, channel=1, data=[52, 0]),
   midi.NoteOnEvent(tick=2, channel=1, data=[52, 110]),
   midi.NoteOnEvent(tick=94, channel=1, data=[52, 0]),
   midi.NoteOnEvent(tick=2, channel=1, data=[52, 110]),
   midi.NoteOnEvent(tick=94, channel=1, data=[52, 0]),
   midi.NoteOnEvent(tick=2, channel=1, data=[52, 110]),
   midi.NoteOnEvent(tick=46, channel=1, data=[52, 0]),
   midi.NoteOnEvent(tick=2, channel=1, data=[52, 110]),
   midi.NoteOnEvent(tick=46, channel=1, data=[52, 0]),
   midi.NoteOnEvent(tick=2, channel=1, data=[52, 110]),
   midi.NoteOnEvent(tick=46, channel=1, data=[52, 0]),
   midi.NoteOnEvent(tick=2, channel=1, data=[52, 110]),
   midi.NoteOnEvent(tick=46, channel=1, data=[52, 0]),
   midi.NoteOnEvent(tick=2, channel=1, data=[52, 110]),
   midi.NoteOnEvent(tick=94, channel=1, data=[52, 0]),
   midi.NoteOnEvent(tick=2, channel=1, data=[52, 110]),
   midi.NoteOnEvent(tick=46, channel=1, data=[52, 0]),
   midi.NoteOnEvent(tick=2, channel=1, data=[52, 110]),
   midi.NoteOnEvent(tick=46, channel=1, data=[52, 0]),
   midi.NoteOnEvent(tick=2, channel=1, data=[52, 110]),
   midi.NoteOnEvent(tick=94, channel=1, data=[52, 0]),
   midi.NoteOnEvent(tick=2, channel=1, data=[52, 110]),
   midi.NoteOnEvent(tick=94, channel=1, data=[52, 0]),
   midi.NoteOnEvent(tick=2, channel=1, data=[52, 110]),
   midi.NoteOnEvent(tick=94, channel=1, data=[52, 0]),
   midi.NoteOnEvent(tick=2, channel=1, data=[52, 110]),
   midi.NoteOnEvent(tick=94, channel=1, data=[52, 0]),
   midi.NoteOnEvent(tick=2, channel=1, data=[52, 110]),
   midi.NoteOnEvent(tick=46, channel=1, data=[52, 0]),
   midi.NoteOnEvent(tick=2, channel=1, data=[52, 110]),
   midi.NoteOnEvent(tick=46, channel=1, data=[52, 0]),
   midi.NoteOnEvent(tick=2, channel=1, data=[52, 110]),
   midi.NoteOnEvent(tick=46, channel=1, data=[52, 0]),
   midi.NoteOnEvent(tick=2, channel=1, data=[52, 110]),
   midi.NoteOnEvent(tick=46, channel=1, data=[52, 0]),
   midi.NoteOnEvent(tick=2, channel=1, data=[52, 110]),
   midi.NoteOnEvent(tick=94, channel=1, data=[52, 0]),
   midi.NoteOnEvent(tick=2, channel=1, data=[52, 110]),
   midi.NoteOnEvent(tick=46, channel=1, data=[52, 0]),
   midi.NoteOnEvent(tick=2, channel=1, data=[52, 110]),
   midi.NoteOnEvent(tick=46, channel=1, data=[52, 0]),
   midi.NoteOnEvent(tick=2, channel=1, data=[52, 110]),
   midi.NoteOnEvent(tick=94, channel=1, data=[52, 0]),
   midi.NoteOnEvent(tick=2, channel=1, data=[52, 110]),
   midi.NoteOnEvent(tick=94, channel=1, data=[52, 0]),
   midi.NoteOnEvent(tick=2, channel=1, data=[52, 110]),
   midi.NoteOnEvent(tick=94, channel=1, data=[52, 0]),
   midi.NoteOnEvent(tick=2, channel=1, data=[52, 110]),
   midi.NoteOnEvent(tick=94, channel=1, data=[52, 0]),
   midi.NoteOnEvent(tick=2, channel=1, data=[52, 110]),
   midi.NoteOnEvent(tick=46, channel=1, data=[52, 0]),
   midi.NoteOnEvent(tick=2, channel=1, data=[52, 110]),
   midi.NoteOnEvent(tick=46, channel=1, data=[52, 0]),
   midi.NoteOnEvent(tick=2, channel=1, data=[52, 110]),
   midi.NoteOnEvent(tick=46, channel=1, data=[52, 0]),
   midi.NoteOnEvent(tick=2, channel=1, data=[52, 110]),
   midi.NoteOnEvent(tick=46, channel=1, data=[52, 0]),
   midi.NoteOnEvent(tick=2, channel=1, data=[52, 110]),
   midi.NoteOnEvent(tick=94, channel=1, data=[52, 0]),
   midi.NoteOnEvent(tick=2, channel=1, data=[52, 110]),
   midi.NoteOnEvent(tick=46, channel=1, data=[52, 0]),
   midi.NoteOnEvent(tick=2, channel=1, data=[52, 110]),
   midi.NoteOnEvent(tick=46, channel=1, data=[52, 0]),
   midi.NoteOnEvent(tick=2, channel=1, data=[52, 110]),
   midi.NoteOnEvent(tick=94, channel=1, data=[52, 0]),
   midi.NoteOnEvent(tick=2, channel=1, data=[52, 110]),
   midi.NoteOnEvent(tick=94, channel=1, data=[52, 0]),
   midi.NoteOnEvent(tick=2, channel=1, data=[52, 110]),
   midi.NoteOnEvent(tick=94, channel=1, data=[52, 0]),
   midi.NoteOnEvent(tick=2, channel=1, data=[52, 110]),
   midi.NoteOnEvent(tick=94, channel=1, data=[52, 0]),
   midi.NoteOnEvent(tick=2, channel=1, data=[52, 110]),
   midi.NoteOnEvent(tick=46, channel=1, data=[52, 0]),
   midi.NoteOnEvent(tick=2, channel=1, data=[52, 110]),
   midi.NoteOnEvent(tick=46, channel=1, data=[52, 0]),
   midi.NoteOnEvent(tick=2, channel=1, data=[52, 110]),
   midi.NoteOnEvent(tick=46, channel=1, data=[52, 0]),
   midi.NoteOnEvent(tick=2, channel=1, data=[52, 110]),
   midi.NoteOnEvent(tick=46, channel=1, data=[52, 0]),
   midi.NoteOnEvent(tick=2, channel=1, data=[52, 110]),
   midi.NoteOnEvent(tick=94, channel=1, data=[52, 0]),
   midi.NoteOnEvent(tick=2, channel=1, data=[52, 110]),
   midi.NoteOnEvent(tick=46, channel=1, data=[52, 0]),
   midi.NoteOnEvent(tick=2, channel=1, data=[52, 110]),
   midi.NoteOnEvent(tick=46, channel=1, data=[52, 0]),
   midi.NoteOnEvent(tick=2, channel=1, data=[52, 110]),
   midi.NoteOnEvent(tick=94, channel=1, data=[52, 0]),
   midi.NoteOnEvent(tick=2, channel=1, data=[52, 110]),
   midi.NoteOnEvent(tick=94, channel=1, data=[52, 0]),
   midi.NoteOnEvent(tick=2, channel=1, data=[52, 110]),
   midi.NoteOnEvent(tick=94, channel=1, data=[52, 0]),
   midi.NoteOnEvent(tick=2, channel=1, data=[52, 110]),
   midi.NoteOnEvent(tick=94, channel=1, data=[52, 0]),
   midi.NoteOnEvent(tick=2, channel=1, data=[52, 110]),
   midi.NoteOnEvent(tick=46, channel=1, data=[52, 0]),
   midi.NoteOnEvent(tick=2, channel=1, data=[52, 110]),
   midi.NoteOnEvent(tick=46, channel=1, data=[52, 0]),
   midi.NoteOnEvent(tick=2, channel=1, data=[52, 110]),
   midi.NoteOnEvent(tick=46, channel=1, data=[52, 0]),
   midi.NoteOnEvent(tick=2, channel=1, data=[52, 110]),
   midi.NoteOnEvent(tick=46, channel=1, data=[52, 0]),
   midi.NoteOnEvent(tick=2, channel=1, data=[52, 110]),
   midi.NoteOnEvent(tick=94, channel=1, data=[52, 0]),
   midi.NoteOnEvent(tick=2, channel=1, data=[52, 110]),
   midi.NoteOnEvent(tick=46, channel=1, data=[52, 0]),
   midi.NoteOnEvent(tick=2, channel=1, data=[52, 110]),
   midi.NoteOnEvent(tick=46, channel=1, data=[52, 0]),
   midi.NoteOnEvent(tick=2, channel=1, data=[52, 110]),
   midi.NoteOnEvent(tick=94, channel=1, data=[52, 0]),
   midi.NoteOnEvent(tick=2, channel=1, data=[52, 110]),
   midi.NoteOnEvent(tick=94, channel=1, data=[52, 0]),
   midi.NoteOnEvent(tick=2, channel=1, data=[52, 110]),
   midi.NoteOnEvent(tick=94, channel=1, data=[52, 0]),
   midi.NoteOnEvent(tick=2, channel=1, data=[52, 110]),
   midi.NoteOnEvent(tick=94, channel=1, data=[52, 0]),
   midi.NoteOnEvent(tick=2, channel=1, data=[52, 110]),
   midi.NoteOnEvent(tick=46, channel=1, data=[52, 0]),
   midi.NoteOnEvent(tick=2, channel=1, data=[52, 110]),
   midi.NoteOnEvent(tick=46, channel=1, data=[52, 0]),
   midi.NoteOnEvent(tick=2, channel=1, data=[52, 110]),
   midi.NoteOnEvent(tick=46, channel=1, data=[52, 0]),
   midi.NoteOnEvent(tick=2, channel=1, data=[52, 110]),
   midi.NoteOnEvent(tick=46, channel=1, data=[52, 0]),
   midi.NoteOnEvent(tick=2, channel=1, data=[52, 110]),
   midi.NoteOnEvent(tick=94, channel=1, data=[52, 0]),
   midi.NoteOnEvent(tick=2, channel=1, data=[52, 110]),
   midi.NoteOnEvent(tick=46, channel=1, data=[52, 0]),
   midi.NoteOnEvent(tick=2, channel=1, data=[52, 110]),
   midi.NoteOnEvent(tick=46, channel=1, data=[52, 0]),
   midi.NoteOnEvent(tick=2, channel=1, data=[52, 110]),
   midi.NoteOnEvent(tick=94, channel=1, data=[52, 0]),
   midi.NoteOnEvent(tick=2, channel=1, data=[52, 110]),
   midi.NoteOnEvent(tick=94, channel=1, data=[52, 0]),
   midi.NoteOnEvent(tick=2, channel=1, data=[52, 110]),
   midi.NoteOnEvent(tick=94, channel=1, data=[52, 0]),
   midi.NoteOnEvent(tick=2, channel=1, data=[52, 110]),
   midi.NoteOnEvent(tick=94, channel=1, data=[52, 0]),
   midi.NoteOnEvent(tick=2, channel=1, data=[52, 110]),
   midi.NoteOnEvent(tick=46, channel=1, data=[52, 0]),
   midi.NoteOnEvent(tick=2, channel=1, data=[52, 110]),
   midi.NoteOnEvent(tick=46, channel=1, data=[52, 0]),
   midi.NoteOnEvent(tick=2, channel=1, data=[52, 110]),
   midi.NoteOnEvent(tick=46, channel=1, data=[52, 0]),
   midi.NoteOnEvent(tick=2, channel=1, data=[52, 110]),
   midi.NoteOnEvent(tick=46, channel=1, data=[52, 0]),
   midi.NoteOnEvent(tick=2, channel=1, data=[52, 110]),
   midi.NoteOnEvent(tick=94, channel=1, data=[52, 0]),
   midi.NoteOnEvent(tick=2, channel=1, data=[52, 110]),
   midi.NoteOnEvent(tick=46, channel=1, data=[52, 0]),
   midi.NoteOnEvent(tick=2, channel=1, data=[52, 110]),
   midi.NoteOnEvent(tick=46, channel=1, data=[52, 0]),
   midi.NoteOnEvent(tick=2, channel=1, data=[52, 110]),
   midi.NoteOnEvent(tick=94, channel=1, data=[52, 0]),
   midi.NoteOnEvent(tick=2, channel=1, data=[52, 110]),
   midi.NoteOnEvent(tick=94, channel=1, data=[52, 0]),
   midi.NoteOnEvent(tick=2, channel=1, data=[52, 110]),
   midi.NoteOnEvent(tick=94, channel=1, data=[52, 0]),
   midi.NoteOnEvent(tick=2, channel=1, data=[52, 110]),
   midi.NoteOnEvent(tick=94, channel=1, data=[52, 0]),
   midi.NoteOnEvent(tick=2, channel=1, data=[52, 110]),
   midi.NoteOnEvent(tick=46, channel=1, data=[52, 0]),
   midi.NoteOnEvent(tick=2, channel=1, data=[52, 110]),
   midi.NoteOnEvent(tick=46, channel=1, data=[52, 0]),
   midi.NoteOnEvent(tick=2, channel=1, data=[52, 110]),
   midi.NoteOnEvent(tick=46, channel=1, data=[52, 0]),
   midi.NoteOnEvent(tick=2, channel=1, data=[52, 110]),
   midi.NoteOnEvent(tick=46, channel=1, data=[52, 0]),
   midi.NoteOnEvent(tick=2, channel=1, data=[55, 110]),
   midi.NoteOnEvent(tick=94, channel=1, data=[55, 0]),
   midi.NoteOnEvent(tick=2, channel=1, data=[55, 110]),
   midi.NoteOnEvent(tick=46, channel=1, data=[55, 0]),
   midi.NoteOnEvent(tick=2, channel=1, data=[55, 110]),
   midi.NoteOnEvent(tick=46, channel=1, data=[55, 0]),
   midi.NoteOnEvent(tick=2, channel=1, data=[55, 110]),
   midi.NoteOnEvent(tick=94, channel=1, data=[55, 0]),
   midi.NoteOnEvent(tick=2, channel=1, data=[55, 110]),
   midi.NoteOnEvent(tick=94, channel=1, data=[55, 0]),
   midi.NoteOnEvent(tick=2, channel=1, data=[55, 110]),
   midi.NoteOnEvent(tick=94, channel=1, data=[55, 0]),
   midi.NoteOnEvent(tick=2, channel=1, data=[55, 110]),
   midi.NoteOnEvent(tick=94, channel=1, data=[55, 0]),
   midi.NoteOnEvent(tick=2, channel=1, data=[55, 110]),
   midi.NoteOnEvent(tick=46, channel=1, data=[55, 0]),
   midi.NoteOnEvent(tick=2, channel=1, data=[55, 110]),
   midi.NoteOnEvent(tick=46, channel=1, data=[55, 0]),
   midi.NoteOnEvent(tick=2, channel=1, data=[55, 110]),
   midi.NoteOnEvent(tick=46, channel=1, data=[55, 0]),
   midi.NoteOnEvent(tick=2, channel=1, data=[55, 110]),
   midi.NoteOnEvent(tick=46, channel=1, data=[55, 0]),
   midi.NoteOnEvent(tick=2, channel=1, data=[54, 110]),
   midi.NoteOnEvent(tick=94, channel=1, data=[54, 0]),
   midi.NoteOnEvent(tick=2, channel=1, data=[54, 110]),
   midi.NoteOnEvent(tick=46, channel=1, data=[54, 0]),
   midi.NoteOnEvent(tick=2, channel=1, data=[54, 110]),
   midi.NoteOnEvent(tick=46, channel=1, data=[54, 0]),
   midi.NoteOnEvent(tick=2, channel=1, data=[54, 110]),
   midi.NoteOnEvent(tick=94, channel=1, data=[54, 0]),
   midi.NoteOnEvent(tick=2, channel=1, data=[54, 110]),
   midi.NoteOnEvent(tick=94, channel=1, data=[54, 0]),
   midi.NoteOnEvent(tick=2, channel=1, data=[54, 110]),
   midi.NoteOnEvent(tick=94, channel=1, data=[54, 0]),
   midi.NoteOnEvent(tick=2, channel=1, data=[54, 110]),
   midi.NoteOnEvent(tick=94, channel=1, data=[54, 0]),
   midi.NoteOnEvent(tick=2, channel=1, data=[54, 110]),
   midi.NoteOnEvent(tick=46, channel=1, data=[54, 0]),
   midi.NoteOnEvent(tick=2, channel=1, data=[54, 110]),
   midi.NoteOnEvent(tick=46, channel=1, data=[54, 0]),
   midi.NoteOnEvent(tick=2, channel=1, data=[54, 110]),
   midi.NoteOnEvent(tick=46, channel=1, data=[54, 0]),
   midi.NoteOnEvent(tick=2, channel=1, data=[54, 110]),
   midi.NoteOnEvent(tick=46, channel=1, data=[54, 0]),
   midi.NoteOnEvent(tick=2, channel=1, data=[52, 110]),
   midi.NoteOnEvent(tick=94, channel=1, data=[52, 0]),
   midi.NoteOnEvent(tick=2, channel=1, data=[52, 110]),
   midi.NoteOnEvent(tick=46, channel=1, data=[52, 0]),
   midi.NoteOnEvent(tick=2, channel=1, data=[52, 110]),
   midi.NoteOnEvent(tick=46, channel=1, data=[52, 0]),
   midi.NoteOnEvent(tick=2, channel=1, data=[52, 110]),
   midi.NoteOnEvent(tick=94, channel=1, data=[52, 0]),
   midi.NoteOnEvent(tick=2, channel=1, data=[52, 110]),
   midi.NoteOnEvent(tick=94, channel=1, data=[52, 0]),
   midi.NoteOnEvent(tick=2, channel=1, data=[52, 110]),
   midi.NoteOnEvent(tick=94, channel=1, data=[52, 0]),
   midi.NoteOnEvent(tick=2, channel=1, data=[52, 110]),
   midi.NoteOnEvent(tick=94, channel=1, data=[52, 0]),
   midi.NoteOnEvent(tick=2, channel=1, data=[52, 110]),
   midi.NoteOnEvent(tick=46, channel=1, data=[52, 0]),
   midi.NoteOnEvent(tick=2, channel=1, data=[52, 110]),
   midi.NoteOnEvent(tick=46, channel=1, data=[52, 0]),
   midi.NoteOnEvent(tick=2, channel=1, data=[52, 110]),
   midi.NoteOnEvent(tick=46, channel=1, data=[52, 0]),
   midi.NoteOnEvent(tick=2, channel=1, data=[52, 110]),
   midi.NoteOnEvent(tick=46, channel=1, data=[52, 0]),
   midi.NoteOnEvent(tick=2, channel=1, data=[52, 110]),
   midi.NoteOnEvent(tick=94, channel=1, data=[52, 0]),
   midi.NoteOnEvent(tick=2, channel=1, data=[52, 110]),
   midi.NoteOnEvent(tick=46, channel=1, data=[52, 0]),
   midi.NoteOnEvent(tick=2, channel=1, data=[52, 110]),
   midi.NoteOnEvent(tick=46, channel=1, data=[52, 0]),
   midi.NoteOnEvent(tick=2, channel=1, data=[52, 110]),
   midi.NoteOnEvent(tick=94, channel=1, data=[52, 0]),
   midi.NoteOnEvent(tick=2, channel=1, data=[52, 110]),
   midi.NoteOnEvent(tick=94, channel=1, data=[52, 0]),
   midi.NoteOnEvent(tick=2, channel=1, data=[52, 110]),
   midi.NoteOnEvent(tick=94, channel=1, data=[52, 0]),
   midi.NoteOnEvent(tick=2, channel=1, data=[52, 110]),
   midi.NoteOnEvent(tick=94, channel=1, data=[52, 0]),
   midi.NoteOnEvent(tick=2, channel=1, data=[52, 110]),
   midi.NoteOnEvent(tick=46, channel=1, data=[52, 0]),
   midi.NoteOnEvent(tick=2, channel=1, data=[52, 110]),
   midi.NoteOnEvent(tick=46, channel=1, data=[52, 0]),
   midi.NoteOnEvent(tick=2, channel=1, data=[52, 110]),
   midi.NoteOnEvent(tick=46, channel=1, data=[52, 0]),
   midi.NoteOnEvent(tick=2, channel=1, data=[52, 110]),
   midi.NoteOnEvent(tick=46, channel=1, data=[52, 0]),
   midi.NoteOnEvent(tick=2, channel=1, data=[55, 110]),
   midi.NoteOnEvent(tick=94, channel=1, data=[55, 0]),
   midi.NoteOnEvent(tick=2, channel=1, data=[55, 110]),
   midi.NoteOnEvent(tick=46, channel=1, data=[55, 0]),
   midi.NoteOnEvent(tick=2, channel=1, data=[55, 110]),
   midi.NoteOnEvent(tick=46, channel=1, data=[55, 0]),
   midi.NoteOnEvent(tick=2, channel=1, data=[55, 110]),
   midi.NoteOnEvent(tick=94, channel=1, data=[55, 0]),
   midi.NoteOnEvent(tick=2, channel=1, data=[55, 110]),
   midi.NoteOnEvent(tick=94, channel=1, data=[55, 0]),
   midi.NoteOnEvent(tick=2, channel=1, data=[55, 110]),
   midi.NoteOnEvent(tick=94, channel=1, data=[55, 0]),
   midi.NoteOnEvent(tick=2, channel=1, data=[55, 110]),
   midi.NoteOnEvent(tick=94, channel=1, data=[55, 0]),
   midi.NoteOnEvent(tick=2, channel=1, data=[55, 110]),
   midi.NoteOnEvent(tick=46, channel=1, data=[55, 0]),
   midi.NoteOnEvent(tick=2, channel=1, data=[55, 110]),
   midi.NoteOnEvent(tick=46, channel=1, data=[55, 0]),
   midi.NoteOnEvent(tick=2, channel=1, data=[55, 110]),
   midi.NoteOnEvent(tick=46, channel=1, data=[55, 0]),
   midi.NoteOnEvent(tick=2, channel=1, data=[55, 110]),
   midi.NoteOnEvent(tick=46, channel=1, data=[55, 0]),
   midi.NoteOnEvent(tick=2, channel=1, data=[59, 110]),
   midi.NoteOnEvent(tick=94, channel=1, data=[59, 0]),
   midi.NoteOnEvent(tick=2, channel=1, data=[59, 110]),
   midi.NoteOnEvent(tick=46, channel=1, data=[59, 0]),
   midi.NoteOnEvent(tick=2, channel=1, data=[59, 110]),
   midi.NoteOnEvent(tick=46, channel=1, data=[59, 0]),
   midi.NoteOnEvent(tick=2, channel=1, data=[59, 110]),
   midi.NoteOnEvent(tick=94, channel=1, data=[59, 0]),
   midi.NoteOnEvent(tick=2, channel=1, data=[59, 110]),
   midi.NoteOnEvent(tick=94, channel=1, data=[59, 0]),
   midi.NoteOnEvent(tick=2, channel=1, data=[59, 110]),
   midi.NoteOnEvent(tick=94, channel=1, data=[59, 0]),
   midi.NoteOnEvent(tick=2, channel=1, data=[59, 110]),
   midi.NoteOnEvent(tick=94, channel=1, data=[59, 0]),
   midi.NoteOnEvent(tick=2, channel=1, data=[59, 110]),
   midi.NoteOnEvent(tick=46, channel=1, data=[59, 0]),
   midi.NoteOnEvent(tick=2, channel=1, data=[59, 110]),
   midi.NoteOnEvent(tick=46, channel=1, data=[59, 0]),
   midi.NoteOnEvent(tick=2, channel=1, data=[59, 110]),
   midi.NoteOnEvent(tick=46, channel=1, data=[59, 0]),
   midi.NoteOnEvent(tick=2, channel=1, data=[59, 110]),
   midi.NoteOnEvent(tick=46, channel=1, data=[59, 0]),
   midi.NoteOnEvent(tick=2, channel=1, data=[52, 110]),
   midi.NoteOnEvent(tick=94, channel=1, data=[52, 0]),
   midi.NoteOnEvent(tick=2, channel=1, data=[52, 110]),
   midi.NoteOnEvent(tick=46, channel=1, data=[52, 0]),
   midi.NoteOnEvent(tick=2, channel=1, data=[52, 110]),
   midi.NoteOnEvent(tick=46, channel=1, data=[52, 0]),
   midi.NoteOnEvent(tick=2, channel=1, data=[52, 110]),
   midi.NoteOnEvent(tick=94, channel=1, data=[52, 0]),
   midi.NoteOnEvent(tick=2, channel=1, data=[52, 110]),
   midi.NoteOnEvent(tick=94, channel=1, data=[52, 0]),
   midi.NoteOnEvent(tick=2, channel=1, data=[52, 110]),
   midi.NoteOnEvent(tick=94, channel=1, data=[52, 0]),
   midi.NoteOnEvent(tick=2, channel=1, data=[52, 110]),
   midi.NoteOnEvent(tick=94, channel=1, data=[52, 0]),
   midi.NoteOnEvent(tick=2, channel=1, data=[52, 110]),
   midi.NoteOnEvent(tick=46, channel=1, data=[52, 0]),
   midi.NoteOnEvent(tick=2, channel=1, data=[52, 110]),
   midi.NoteOnEvent(tick=46, channel=1, data=[52, 0]),
   midi.NoteOnEvent(tick=2, channel=1, data=[52, 110]),
   midi.NoteOnEvent(tick=46, channel=1, data=[52, 0]),
   midi.NoteOnEvent(tick=2, channel=1, data=[52, 110]),
   midi.NoteOnEvent(tick=46, channel=1, data=[52, 0]),
   midi.NoteOnEvent(tick=2, channel=1, data=[52, 110]),
   midi.NoteOnEvent(tick=94, channel=1, data=[52, 0]),
   midi.NoteOnEvent(tick=2, channel=1, data=[52, 110]),
   midi.NoteOnEvent(tick=46, channel=1, data=[52, 0]),
   midi.NoteOnEvent(tick=2, channel=1, data=[52, 110]),
   midi.NoteOnEvent(tick=46, channel=1, data=[52, 0]),
   midi.NoteOnEvent(tick=2, channel=1, data=[52, 110]),
   midi.NoteOnEvent(tick=94, channel=1, data=[52, 0]),
   midi.NoteOnEvent(tick=2, channel=1, data=[52, 110]),
   midi.NoteOnEvent(tick=94, channel=1, data=[52, 0]),
   midi.NoteOnEvent(tick=2, channel=1, data=[52, 110]),
   midi.NoteOnEvent(tick=94, channel=1, data=[52, 0]),
   midi.NoteOnEvent(tick=2, channel=1, data=[52, 110]),
   midi.NoteOnEvent(tick=94, channel=1, data=[52, 0]),
   midi.NoteOnEvent(tick=2, channel=1, data=[52, 110]),
   midi.NoteOnEvent(tick=46, channel=1, data=[52, 0]),
   midi.NoteOnEvent(tick=2, channel=1, data=[52, 110]),
   midi.NoteOnEvent(tick=46, channel=1, data=[52, 0]),
   midi.NoteOnEvent(tick=2, channel=1, data=[52, 110]),
   midi.NoteOnEvent(tick=46, channel=1, data=[52, 0]),
   midi.NoteOnEvent(tick=2, channel=1, data=[52, 110]),
   midi.NoteOnEvent(tick=46, channel=1, data=[52, 0]),
   midi.NoteOnEvent(tick=2, channel=1, data=[55, 110]),
   midi.NoteOnEvent(tick=94, channel=1, data=[55, 0]),
   midi.NoteOnEvent(tick=2, channel=1, data=[55, 110]),
   midi.NoteOnEvent(tick=46, channel=1, data=[55, 0]),
   midi.NoteOnEvent(tick=2, channel=1, data=[55, 110]),
   midi.NoteOnEvent(tick=46, channel=1, data=[55, 0]),
   midi.NoteOnEvent(tick=2, channel=1, data=[55, 110]),
   midi.NoteOnEvent(tick=94, channel=1, data=[55, 0]),
   midi.NoteOnEvent(tick=2, channel=1, data=[55, 110]),
   midi.NoteOnEvent(tick=94, channel=1, data=[55, 0]),
   midi.NoteOnEvent(tick=2, channel=1, data=[55, 110]),
   midi.NoteOnEvent(tick=94, channel=1, data=[55, 0]),
   midi.NoteOnEvent(tick=2, channel=1, data=[55, 110]),
   midi.NoteOnEvent(tick=94, channel=1, data=[55, 0]),
   midi.NoteOnEvent(tick=2, channel=1, data=[55, 110]),
   midi.NoteOnEvent(tick=46, channel=1, data=[55, 0]),
   midi.NoteOnEvent(tick=2, channel=1, data=[55, 110]),
   midi.NoteOnEvent(tick=46, channel=1, data=[55, 0]),
   midi.NoteOnEvent(tick=2, channel=1, data=[55, 110]),
   midi.NoteOnEvent(tick=46, channel=1, data=[55, 0]),
   midi.NoteOnEvent(tick=2, channel=1, data=[55, 110]),
   midi.NoteOnEvent(tick=46, channel=1, data=[55, 0]),
   midi.NoteOnEvent(tick=2, channel=1, data=[54, 110]),
   midi.NoteOnEvent(tick=94, channel=1, data=[54, 0]),
   midi.NoteOnEvent(tick=2, channel=1, data=[54, 110]),
   midi.NoteOnEvent(tick=46, channel=1, data=[54, 0]),
   midi.NoteOnEvent(tick=2, channel=1, data=[54, 110]),
   midi.NoteOnEvent(tick=46, channel=1, data=[54, 0]),
   midi.NoteOnEvent(tick=2, channel=1, data=[54, 110]),
   midi.NoteOnEvent(tick=94, channel=1, data=[54, 0]),
   midi.NoteOnEvent(tick=2, channel=1, data=[54, 110]),
   midi.NoteOnEvent(tick=94, channel=1, data=[54, 0]),
   midi.NoteOnEvent(tick=2, channel=1, data=[54, 110]),
   midi.NoteOnEvent(tick=94, channel=1, data=[54, 0]),
   midi.NoteOnEvent(tick=2, channel=1, data=[54, 110]),
   midi.NoteOnEvent(tick=94, channel=1, data=[54, 0]),
   midi.NoteOnEvent(tick=2, channel=1, data=[54, 110]),
   midi.NoteOnEvent(tick=46, channel=1, data=[54, 0]),
   midi.NoteOnEvent(tick=2, channel=1, data=[54, 110]),
   midi.NoteOnEvent(tick=46, channel=1, data=[54, 0]),
   midi.NoteOnEvent(tick=2, channel=1, data=[54, 110]),
   midi.NoteOnEvent(tick=46, channel=1, data=[54, 0]),
   midi.NoteOnEvent(tick=2, channel=1, data=[54, 110]),
   midi.NoteOnEvent(tick=46, channel=1, data=[54, 0]),
   midi.NoteOnEvent(tick=2, channel=1, data=[52, 110]),
   midi.NoteOnEvent(tick=94, channel=1, data=[52, 0]),
   midi.NoteOnEvent(tick=2, channel=1, data=[52, 110]),
   midi.NoteOnEvent(tick=46, channel=1, data=[52, 0]),
   midi.NoteOnEvent(tick=2, channel=1, data=[52, 110]),
   midi.NoteOnEvent(tick=46, channel=1, data=[52, 0]),
   midi.NoteOnEvent(tick=2, channel=1, data=[52, 110]),
   midi.NoteOnEvent(tick=94, channel=1, data=[52, 0]),
   midi.NoteOnEvent(tick=2, channel=1, data=[52, 110]),
   midi.NoteOnEvent(tick=94, channel=1, data=[52, 0]),
   midi.NoteOnEvent(tick=2, channel=1, data=[52, 110]),
   midi.NoteOnEvent(tick=94, channel=1, data=[52, 0]),
   midi.NoteOnEvent(tick=2, channel=1, data=[52, 110]),
   midi.NoteOnEvent(tick=94, channel=1, data=[52, 0]),
   midi.NoteOnEvent(tick=2, channel=1, data=[52, 110]),
   midi.NoteOnEvent(tick=46, channel=1, data=[52, 0]),
   midi.NoteOnEvent(tick=2, channel=1, data=[52, 110]),
   midi.NoteOnEvent(tick=46, channel=1, data=[52, 0]),
   midi.NoteOnEvent(tick=2, channel=1, data=[52, 110]),
   midi.NoteOnEvent(tick=46, channel=1, data=[52, 0]),
   midi.NoteOnEvent(tick=2, channel=1, data=[52, 110]),
   midi.NoteOnEvent(tick=46, channel=1, data=[52, 0]),
   midi.NoteOnEvent(tick=2, channel=1, data=[52, 110]),
   midi.NoteOnEvent(tick=94, channel=1, data=[52, 0]),
   midi.NoteOnEvent(tick=2, channel=1, data=[52, 110]),
   midi.NoteOnEvent(tick=46, channel=1, data=[52, 0]),
   midi.NoteOnEvent(tick=2, channel=1, data=[52, 110]),
   midi.NoteOnEvent(tick=46, channel=1, data=[52, 0]),
   midi.NoteOnEvent(tick=2, channel=1, data=[52, 110]),
   midi.NoteOnEvent(tick=94, channel=1, data=[52, 0]),
   midi.NoteOnEvent(tick=2, channel=1, data=[52, 110]),
   midi.NoteOnEvent(tick=94, channel=1, data=[52, 0]),
   midi.NoteOnEvent(tick=2, channel=1, data=[52, 110]),
   midi.NoteOnEvent(tick=94, channel=1, data=[52, 0]),
   midi.NoteOnEvent(tick=2, channel=1, data=[52, 110]),
   midi.NoteOnEvent(tick=94, channel=1, data=[52, 0]),
   midi.NoteOnEvent(tick=2, channel=1, data=[52, 110]),
   midi.NoteOnEvent(tick=46, channel=1, data=[52, 0]),
   midi.NoteOnEvent(tick=2, channel=1, data=[52, 110]),
   midi.NoteOnEvent(tick=46, channel=1, data=[52, 0]),
   midi.NoteOnEvent(tick=2, channel=1, data=[52, 110]),
   midi.NoteOnEvent(tick=46, channel=1, data=[52, 0]),
   midi.NoteOnEvent(tick=2, channel=1, data=[52, 110]),
   midi.NoteOnEvent(tick=46, channel=1, data=[52, 0]),
   midi.NoteOnEvent(tick=2, channel=1, data=[55, 110]),
   midi.NoteOnEvent(tick=94, channel=1, data=[55, 0]),
   midi.NoteOnEvent(tick=2, channel=1, data=[55, 110]),
   midi.NoteOnEvent(tick=46, channel=1, data=[55, 0]),
   midi.NoteOnEvent(tick=2, channel=1, data=[55, 110]),
   midi.NoteOnEvent(tick=46, channel=1, data=[55, 0]),
   midi.NoteOnEvent(tick=2, channel=1, data=[55, 110]),
   midi.NoteOnEvent(tick=94, channel=1, data=[55, 0]),
   midi.NoteOnEvent(tick=2, channel=1, data=[55, 110]),
   midi.NoteOnEvent(tick=94, channel=1, data=[55, 0]),
   midi.NoteOnEvent(tick=2, channel=1, data=[55, 110]),
   midi.NoteOnEvent(tick=94, channel=1, data=[55, 0]),
   midi.NoteOnEvent(tick=2, channel=1, data=[55, 110]),
   midi.NoteOnEvent(tick=94, channel=1, data=[55, 0]),
   midi.NoteOnEvent(tick=2, channel=1, data=[55, 110]),
   midi.NoteOnEvent(tick=46, channel=1, data=[55, 0]),
   midi.NoteOnEvent(tick=2, channel=1, data=[55, 110]),
   midi.NoteOnEvent(tick=46, channel=1, data=[55, 0]),
   midi.NoteOnEvent(tick=2, channel=1, data=[55, 110]),
   midi.NoteOnEvent(tick=46, channel=1, data=[55, 0]),
   midi.NoteOnEvent(tick=2, channel=1, data=[55, 110]),
   midi.NoteOnEvent(tick=46, channel=1, data=[55, 0]),
   midi.NoteOnEvent(tick=2, channel=1, data=[59, 110]),
   midi.NoteOnEvent(tick=94, channel=1, data=[59, 0]),
   midi.NoteOnEvent(tick=2, channel=1, data=[59, 110]),
   midi.NoteOnEvent(tick=46, channel=1, data=[59, 0]),
   midi.NoteOnEvent(tick=2, channel=1, data=[59, 110]),
   midi.NoteOnEvent(tick=46, channel=1, data=[59, 0]),
   midi.NoteOnEvent(tick=2, channel=1, data=[59, 110]),
   midi.NoteOnEvent(tick=94, channel=1, data=[59, 0]),
   midi.NoteOnEvent(tick=2, channel=1, data=[59, 110]),
   midi.NoteOnEvent(tick=94, channel=1, data=[59, 0]),
   midi.NoteOnEvent(tick=2, channel=1, data=[59, 110]),
   midi.NoteOnEvent(tick=94, channel=1, data=[59, 0]),
   midi.NoteOnEvent(tick=2, channel=1, data=[59, 110]),
   midi.NoteOnEvent(tick=94, channel=1, data=[59, 0]),
   midi.NoteOnEvent(tick=2, channel=1, data=[59, 110]),
   midi.NoteOnEvent(tick=46, channel=1, data=[59, 0]),
   midi.NoteOnEvent(tick=2, channel=1, data=[59, 110]),
   midi.NoteOnEvent(tick=46, channel=1, data=[59, 0]),
   midi.NoteOnEvent(tick=2, channel=1, data=[59, 110]),
   midi.NoteOnEvent(tick=46, channel=1, data=[59, 0]),
   midi.NoteOnEvent(tick=2, channel=1, data=[59, 110]),
   midi.NoteOnEvent(tick=46, channel=1, data=[59, 0]),
   midi.NoteOnEvent(tick=2, channel=1, data=[61, 110]),
   midi.NoteOnEvent(tick=0, channel=1, data=[68, 110]),
   midi.NoteOnEvent(tick=94, channel=1, data=[61, 0]),
   midi.NoteOnEvent(tick=0, channel=1, data=[68, 0]),
   midi.NoteOnEvent(tick=2, channel=1, data=[61, 110]),
   midi.NoteOnEvent(tick=46, channel=1, data=[61, 0]),
   midi.NoteOnEvent(tick=2, channel=1, data=[61, 110]),
   midi.NoteOnEvent(tick=46, channel=1, data=[61, 0]),
   midi.NoteOnEvent(tick=2, channel=1, data=[61, 110]),
   midi.NoteOnEvent(tick=46, channel=1, data=[61, 0]),
   midi.NoteOnEvent(tick=2, channel=1, data=[61, 110]),
   midi.NoteOnEvent(tick=46, channel=1, data=[61, 0]),
   midi.NoteOnEvent(tick=2, channel=1, data=[61, 110]),
   midi.NoteOnEvent(tick=46, channel=1, data=[61, 0]),
   midi.NoteOnEvent(tick=2, channel=1, data=[61, 110]),
   midi.NoteOnEvent(tick=46, channel=1, data=[61, 0]),
   midi.NoteOnEvent(tick=2, channel=1, data=[61, 110]),
   midi.NoteOnEvent(tick=94, channel=1, data=[61, 0]),
   midi.NoteOnEvent(tick=2, channel=1, data=[61, 110]),
   midi.NoteOnEvent(tick=46, channel=1, data=[61, 0]),
   midi.NoteOnEvent(tick=2, channel=1, data=[61, 110]),
   midi.NoteOnEvent(tick=46, channel=1, data=[61, 0]),
   midi.NoteOnEvent(tick=2, channel=1, data=[61, 110]),
   midi.NoteOnEvent(tick=46, channel=1, data=[61, 0]),
   midi.NoteOnEvent(tick=2, channel=1, data=[61, 110]),
   midi.NoteOnEvent(tick=46, channel=1, data=[61, 0]),
   midi.NoteOnEvent(tick=2, channel=1, data=[61, 110]),
   midi.NoteOnEvent(tick=46, channel=1, data=[61, 0]),
   midi.NoteOnEvent(tick=2, channel=1, data=[61, 110]),
   midi.NoteOnEvent(tick=46, channel=1, data=[61, 0]),
   midi.NoteOnEvent(tick=2, channel=1, data=[61, 110]),
   midi.NoteOnEvent(tick=0, channel=1, data=[68, 110]),
   midi.NoteOnEvent(tick=94, channel=1, data=[61, 0]),
   midi.NoteOnEvent(tick=0, channel=1, data=[68, 0]),
   midi.NoteOnEvent(tick=2, channel=1, data=[61, 110]),
   midi.NoteOnEvent(tick=46, channel=1, data=[61, 0]),
   midi.NoteOnEvent(tick=2, channel=1, data=[61, 110]),
   midi.NoteOnEvent(tick=46, channel=1, data=[61, 0]),
   midi.NoteOnEvent(tick=2, channel=1, data=[61, 110]),
   midi.NoteOnEvent(tick=46, channel=1, data=[61, 0]),
   midi.NoteOnEvent(tick=2, channel=1, data=[61, 110]),
   midi.NoteOnEvent(tick=46, channel=1, data=[61, 0]),
   midi.NoteOnEvent(tick=2, channel=1, data=[61, 110]),
   midi.NoteOnEvent(tick=46, channel=1, data=[61, 0]),
   midi.NoteOnEvent(tick=2, channel=1, data=[61, 110]),
   midi.NoteOnEvent(tick=46, channel=1, data=[61, 0]),
   midi.NoteOnEvent(tick=2, channel=1, data=[61, 110]),
   midi.NoteOnEvent(tick=94, channel=1, data=[61, 0]),
   midi.NoteOnEvent(tick=2, channel=1, data=[61, 110]),
   midi.NoteOnEvent(tick=46, channel=1, data=[61, 0]),
   midi.NoteOnEvent(tick=2, channel=1, data=[61, 110]),
   midi.NoteOnEvent(tick=46, channel=1, data=[61, 0]),
   midi.NoteOnEvent(tick=2, channel=1, data=[61, 110]),
   midi.NoteOnEvent(tick=46, channel=1, data=[61, 0]),
   midi.NoteOnEvent(tick=2, channel=1, data=[61, 110]),
   midi.NoteOnEvent(tick=46, channel=1, data=[61, 0]),
   midi.NoteOnEvent(tick=2, channel=1, data=[61, 110]),
   midi.NoteOnEvent(tick=46, channel=1, data=[61, 0]),
   midi.NoteOnEvent(tick=2, channel=1, data=[61, 110]),
   midi.NoteOnEvent(tick=46, channel=1, data=[61, 0]),
   midi.NoteOnEvent(tick=2, channel=1, data=[61, 110]),
   midi.NoteOnEvent(tick=0, channel=1, data=[68, 110]),
   midi.NoteOnEvent(tick=94, channel=1, data=[61, 0]),
   midi.NoteOnEvent(tick=0, channel=1, data=[68, 0]),
   midi.NoteOnEvent(tick=2, channel=1, data=[61, 110]),
   midi.NoteOnEvent(tick=46, channel=1, data=[61, 0]),
   midi.NoteOnEvent(tick=2, channel=1, data=[61, 110]),
   midi.NoteOnEvent(tick=46, channel=1, data=[61, 0]),
   midi.NoteOnEvent(tick=2, channel=1, data=[61, 110]),
   midi.NoteOnEvent(tick=46, channel=1, data=[61, 0]),
   midi.NoteOnEvent(tick=2, channel=1, data=[61, 110]),
   midi.NoteOnEvent(tick=46, channel=1, data=[61, 0]),
   midi.NoteOnEvent(tick=2, channel=1, data=[61, 110]),
   midi.NoteOnEvent(tick=46, channel=1, data=[61, 0]),
   midi.NoteOnEvent(tick=2, channel=1, data=[61, 110]),
   midi.NoteOnEvent(tick=46, channel=1, data=[61, 0]),
   midi.NoteOnEvent(tick=2, channel=1, data=[61, 110]),
   midi.NoteOnEvent(tick=94, channel=1, data=[61, 0]),
   midi.NoteOnEvent(tick=2, channel=1, data=[61, 110]),
   midi.NoteOnEvent(tick=46, channel=1, data=[61, 0]),
   midi.NoteOnEvent(tick=2, channel=1, data=[61, 110]),
   midi.NoteOnEvent(tick=46, channel=1, data=[61, 0]),
   midi.NoteOnEvent(tick=2, channel=1, data=[59, 110]),
   midi.NoteOnEvent(tick=0, channel=1, data=[66, 110]),
   midi.NoteOnEvent(tick=94, channel=1, data=[59, 0]),
   midi.NoteOnEvent(tick=0, channel=1, data=[66, 0]),
   midi.NoteOnEvent(tick=2, channel=1, data=[59, 110]),
   midi.NoteOnEvent(tick=46, channel=1, data=[59, 0]),
   midi.NoteOnEvent(tick=2, channel=1, data=[59, 110]),
   midi.NoteOnEvent(tick=46, channel=1, data=[59, 0]),
   midi.NoteOnEvent(tick=2, channel=1, data=[59, 110]),
   midi.NoteOnEvent(tick=46, channel=1, data=[59, 0]),
   midi.NoteOnEvent(tick=2, channel=1, data=[59, 110]),
   midi.NoteOnEvent(tick=46, channel=1, data=[59, 0]),
   midi.NoteOnEvent(tick=2, channel=1, data=[59, 110]),
   midi.NoteOnEvent(tick=46, channel=1, data=[59, 0]),
   midi.NoteOnEvent(tick=2, channel=1, data=[59, 110]),
   midi.NoteOnEvent(tick=46, channel=1, data=[59, 0]),
   midi.NoteOnEvent(tick=2, channel=1, data=[59, 110]),
   midi.NoteOnEvent(tick=94, channel=1, data=[59, 0]),
   midi.NoteOnEvent(tick=2, channel=1, data=[59, 110]),
   midi.NoteOnEvent(tick=46, channel=1, data=[59, 0]),
   midi.NoteOnEvent(tick=2, channel=1, data=[59, 110]),
   midi.NoteOnEvent(tick=46, channel=1, data=[59, 0]),
   midi.NoteOnEvent(tick=2, channel=1, data=[61, 110]),
   midi.NoteOnEvent(tick=0, channel=1, data=[68, 110]),
   midi.NoteOnEvent(tick=94, channel=1, data=[61, 0]),
   midi.NoteOnEvent(tick=0, channel=1, data=[68, 0]),
   midi.NoteOnEvent(tick=2, channel=1, data=[61, 110]),
   midi.NoteOnEvent(tick=46, channel=1, data=[61, 0]),
   midi.NoteOnEvent(tick=2, channel=1, data=[61, 110]),
   midi.NoteOnEvent(tick=46, channel=1, data=[61, 0]),
   midi.NoteOnEvent(tick=2, channel=1, data=[61, 110]),
   midi.NoteOnEvent(tick=46, channel=1, data=[61, 0]),
   midi.NoteOnEvent(tick=2, channel=1, data=[61, 110]),
   midi.NoteOnEvent(tick=46, channel=1, data=[61, 0]),
   midi.NoteOnEvent(tick=2, channel=1, data=[61, 110]),
   midi.NoteOnEvent(tick=46, channel=1, data=[61, 0]),
   midi.NoteOnEvent(tick=2, channel=1, data=[61, 110]),
   midi.NoteOnEvent(tick=46, channel=1, data=[61, 0]),
   midi.NoteOnEvent(tick=2, channel=1, data=[61, 110]),
   midi.NoteOnEvent(tick=94, channel=1, data=[61, 0]),
   midi.NoteOnEvent(tick=2, channel=1, data=[61, 110]),
   midi.NoteOnEvent(tick=46, channel=1, data=[61, 0]),
   midi.NoteOnEvent(tick=2, channel=1, data=[61, 110]),
   midi.NoteOnEvent(tick=46, channel=1, data=[61, 0]),
   midi.NoteOnEvent(tick=2, channel=1, data=[61, 110]),
   midi.NoteOnEvent(tick=46, channel=1, data=[61, 0]),
   midi.NoteOnEvent(tick=2, channel=1, data=[61, 110]),
   midi.NoteOnEvent(tick=46, channel=1, data=[61, 0]),
   midi.NoteOnEvent(tick=2, channel=1, data=[61, 110]),
   midi.NoteOnEvent(tick=46, channel=1, data=[61, 0]),
   midi.NoteOnEvent(tick=2, channel=1, data=[61, 110]),
   midi.NoteOnEvent(tick=46, channel=1, data=[61, 0]),
   midi.NoteOnEvent(tick=2, channel=1, data=[61, 110]),
   midi.NoteOnEvent(tick=0, channel=1, data=[68, 110]),
   midi.NoteOnEvent(tick=94, channel=1, data=[61, 0]),
   midi.NoteOnEvent(tick=0, channel=1, data=[68, 0]),
   midi.NoteOnEvent(tick=2, channel=1, data=[61, 110]),
   midi.NoteOnEvent(tick=46, channel=1, data=[61, 0]),
   midi.NoteOnEvent(tick=2, channel=1, data=[61, 110]),
   midi.NoteOnEvent(tick=46, channel=1, data=[61, 0]),
   midi.NoteOnEvent(tick=2, channel=1, data=[61, 110]),
   midi.NoteOnEvent(tick=46, channel=1, data=[61, 0]),
   midi.NoteOnEvent(tick=2, channel=1, data=[61, 110]),
   midi.NoteOnEvent(tick=46, channel=1, data=[61, 0]),
   midi.NoteOnEvent(tick=2, channel=1, data=[61, 110]),
   midi.NoteOnEvent(tick=46, channel=1, data=[61, 0]),
   midi.NoteOnEvent(tick=2, channel=1, data=[61, 110]),
   midi.NoteOnEvent(tick=46, channel=1, data=[61, 0]),
   midi.NoteOnEvent(tick=2, channel=1, data=[61, 110]),
   midi.NoteOnEvent(tick=94, channel=1, data=[61, 0]),
   midi.NoteOnEvent(tick=2, channel=1, data=[61, 110]),
   midi.NoteOnEvent(tick=46, channel=1, data=[61, 0]),
   midi.NoteOnEvent(tick=2, channel=1, data=[61, 110]),
   midi.NoteOnEvent(tick=46, channel=1, data=[61, 0]),
   midi.NoteOnEvent(tick=2, channel=1, data=[61, 110]),
   midi.NoteOnEvent(tick=46, channel=1, data=[61, 0]),
   midi.NoteOnEvent(tick=2, channel=1, data=[61, 110]),
   midi.NoteOnEvent(tick=46, channel=1, data=[61, 0]),
   midi.NoteOnEvent(tick=2, channel=1, data=[61, 110]),
   midi.NoteOnEvent(tick=46, channel=1, data=[61, 0]),
   midi.NoteOnEvent(tick=2, channel=1, data=[61, 110]),
   midi.NoteOnEvent(tick=46, channel=1, data=[61, 0]),
   midi.NoteOnEvent(tick=2, channel=1, data=[61, 110]),
   midi.NoteOnEvent(tick=0, channel=1, data=[68, 110]),
   midi.NoteOnEvent(tick=94, channel=1, data=[61, 0]),
   midi.NoteOnEvent(tick=0, channel=1, data=[68, 0]),
   midi.NoteOnEvent(tick=2, channel=1, data=[61, 110]),
   midi.NoteOnEvent(tick=46, channel=1, data=[61, 0]),
   midi.NoteOnEvent(tick=2, channel=1, data=[61, 110]),
   midi.NoteOnEvent(tick=46, channel=1, data=[61, 0]),
   midi.NoteOnEvent(tick=2, channel=1, data=[61, 110]),
   midi.NoteOnEvent(tick=46, channel=1, data=[61, 0]),
   midi.NoteOnEvent(tick=2, channel=1, data=[61, 110]),
   midi.NoteOnEvent(tick=46, channel=1, data=[61, 0]),
   midi.NoteOnEvent(tick=2, channel=1, data=[61, 110]),
   midi.NoteOnEvent(tick=46, channel=1, data=[61, 0]),
   midi.NoteOnEvent(tick=2, channel=1, data=[61, 110]),
   midi.NoteOnEvent(tick=46, channel=1, data=[61, 0]),
   midi.NoteOnEvent(tick=2, channel=1, data=[61, 110]),
   midi.NoteOnEvent(tick=94, channel=1, data=[61, 0]),
   midi.NoteOnEvent(tick=2, channel=1, data=[61, 110]),
   midi.NoteOnEvent(tick=46, channel=1, data=[61, 0]),
   midi.NoteOnEvent(tick=2, channel=1, data=[61, 110]),
   midi.NoteOnEvent(tick=46, channel=1, data=[61, 0]),
   midi.NoteOnEvent(tick=2, channel=1, data=[59, 110]),
   midi.NoteOnEvent(tick=0, channel=1, data=[66, 110]),
   midi.NoteOnEvent(tick=94, channel=1, data=[59, 0]),
   midi.NoteOnEvent(tick=0, channel=1, data=[66, 0]),
   midi.NoteOnEvent(tick=2, channel=1, data=[59, 110]),
   midi.NoteOnEvent(tick=46, channel=1, data=[59, 0]),
   midi.NoteOnEvent(tick=2, channel=1, data=[59, 110]),
   midi.NoteOnEvent(tick=46, channel=1, data=[59, 0]),
   midi.NoteOnEvent(tick=2, channel=1, data=[59, 110]),
   midi.NoteOnEvent(tick=46, channel=1, data=[59, 0]),
   midi.NoteOnEvent(tick=2, channel=1, data=[59, 110]),
   midi.NoteOnEvent(tick=46, channel=1, data=[59, 0]),
   midi.NoteOnEvent(tick=2, channel=1, data=[59, 110]),
   midi.NoteOnEvent(tick=46, channel=1, data=[59, 0]),
   midi.NoteOnEvent(tick=2, channel=1, data=[59, 110]),
   midi.NoteOnEvent(tick=46, channel=1, data=[59, 0]),
   midi.NoteOnEvent(tick=2, channel=1, data=[59, 110]),
   midi.NoteOnEvent(tick=94, channel=1, data=[59, 0]),
   midi.NoteOnEvent(tick=2, channel=1, data=[59, 110]),
   midi.NoteOnEvent(tick=46, channel=1, data=[59, 0]),
   midi.NoteOnEvent(tick=2, channel=1, data=[59, 110]),
   midi.NoteOnEvent(tick=46, channel=1, data=[59, 0]),
   midi.NoteOnEvent(tick=2, channel=1, data=[61, 110]),
   midi.NoteOnEvent(tick=0, channel=1, data=[68, 110]),
   midi.NoteOnEvent(tick=94, channel=1, data=[61, 0]),
   midi.NoteOnEvent(tick=0, channel=1, data=[68, 0]),
   midi.NoteOnEvent(tick=2, channel=1, data=[61, 110]),
   midi.NoteOnEvent(tick=46, channel=1, data=[61, 0]),
   midi.NoteOnEvent(tick=2, channel=1, data=[61, 110]),
   midi.NoteOnEvent(tick=46, channel=1, data=[61, 0]),
   midi.NoteOnEvent(tick=2, channel=1, data=[61, 110]),
   midi.NoteOnEvent(tick=46, channel=1, data=[61, 0]),
   midi.NoteOnEvent(tick=2, channel=1, data=[61, 110]),
   midi.NoteOnEvent(tick=46, channel=1, data=[61, 0]),
   midi.NoteOnEvent(tick=2, channel=1, data=[61, 110]),
   midi.NoteOnEvent(tick=46, channel=1, data=[61, 0]),
   midi.NoteOnEvent(tick=2, channel=1, data=[61, 110]),
   midi.NoteOnEvent(tick=46, channel=1, data=[61, 0]),
   midi.NoteOnEvent(tick=2, channel=1, data=[61, 110]),
   midi.NoteOnEvent(tick=94, channel=1, data=[61, 0]),
   midi.NoteOnEvent(tick=2, channel=1, data=[61, 110]),
   midi.NoteOnEvent(tick=46, channel=1, data=[61, 0]),
   midi.NoteOnEvent(tick=2, channel=1, data=[61, 110]),
   midi.NoteOnEvent(tick=46, channel=1, data=[61, 0]),
   midi.NoteOnEvent(tick=2, channel=1, data=[61, 110]),
   midi.NoteOnEvent(tick=46, channel=1, data=[61, 0]),
   midi.NoteOnEvent(tick=2, channel=1, data=[61, 110]),
   midi.NoteOnEvent(tick=46, channel=1, data=[61, 0]),
   midi.NoteOnEvent(tick=2, channel=1, data=[61, 110]),
   midi.NoteOnEvent(tick=46, channel=1, data=[61, 0]),
   midi.NoteOnEvent(tick=2, channel=1, data=[61, 110]),
   midi.NoteOnEvent(tick=46, channel=1, data=[61, 0]),
   midi.NoteOnEvent(tick=2, channel=1, data=[61, 110]),
   midi.NoteOnEvent(tick=0, channel=1, data=[68, 110]),
   midi.NoteOnEvent(tick=94, channel=1, data=[61, 0]),
   midi.NoteOnEvent(tick=0, channel=1, data=[68, 0]),
   midi.NoteOnEvent(tick=2, channel=1, data=[61, 110]),
   midi.NoteOnEvent(tick=46, channel=1, data=[61, 0]),
   midi.NoteOnEvent(tick=2, channel=1, data=[61, 110]),
   midi.NoteOnEvent(tick=46, channel=1, data=[61, 0]),
   midi.NoteOnEvent(tick=2, channel=1, data=[61, 110]),
   midi.NoteOnEvent(tick=46, channel=1, data=[61, 0]),
   midi.NoteOnEvent(tick=2, channel=1, data=[61, 110]),
   midi.NoteOnEvent(tick=46, channel=1, data=[61, 0]),
   midi.NoteOnEvent(tick=2, channel=1, data=[61, 110]),
   midi.NoteOnEvent(tick=46, channel=1, data=[61, 0]),
   midi.NoteOnEvent(tick=2, channel=1, data=[61, 110]),
   midi.NoteOnEvent(tick=46, channel=1, data=[61, 0]),
   midi.NoteOnEvent(tick=2, channel=1, data=[61, 110]),
   midi.NoteOnEvent(tick=94, channel=1, data=[61, 0]),
   midi.NoteOnEvent(tick=2, channel=1, data=[61, 110]),
   midi.NoteOnEvent(tick=46, channel=1, data=[61, 0]),
   midi.NoteOnEvent(tick=2, channel=1, data=[61, 110]),
   midi.NoteOnEvent(tick=46, channel=1, data=[61, 0]),
   midi.NoteOnEvent(tick=2, channel=1, data=[61, 110]),
   midi.NoteOnEvent(tick=46, channel=1, data=[61, 0]),
   midi.NoteOnEvent(tick=2, channel=1, data=[61, 110]),
   midi.NoteOnEvent(tick=46, channel=1, data=[61, 0]),
   midi.NoteOnEvent(tick=2, channel=1, data=[61, 110]),
   midi.NoteOnEvent(tick=46, channel=1, data=[61, 0]),
   midi.NoteOnEvent(tick=2, channel=1, data=[61, 110]),
   midi.NoteOnEvent(tick=46, channel=1, data=[61, 0]),
   midi.NoteOnEvent(tick=2, channel=1, data=[61, 110]),
   midi.NoteOnEvent(tick=0, channel=1, data=[68, 110]),
   midi.NoteOnEvent(tick=94, channel=1, data=[61, 0]),
   midi.NoteOnEvent(tick=0, channel=1, data=[68, 0]),
   midi.NoteOnEvent(tick=2, channel=1, data=[61, 110]),
   midi.NoteOnEvent(tick=46, channel=1, data=[61, 0]),
   midi.NoteOnEvent(tick=2, channel=1, data=[61, 110]),
   midi.NoteOnEvent(tick=46, channel=1, data=[61, 0]),
   midi.NoteOnEvent(tick=2, channel=1, data=[61, 110]),
   midi.NoteOnEvent(tick=46, channel=1, data=[61, 0]),
   midi.NoteOnEvent(tick=2, channel=1, data=[61, 110]),
   midi.NoteOnEvent(tick=46, channel=1, data=[61, 0]),
   midi.NoteOnEvent(tick=2, channel=1, data=[61, 110]),
   midi.NoteOnEvent(tick=46, channel=1, data=[61, 0]),
   midi.NoteOnEvent(tick=2, channel=1, data=[61, 110]),
   midi.NoteOnEvent(tick=46, channel=1, data=[61, 0]),
   midi.NoteOnEvent(tick=2, channel=1, data=[61, 110]),
   midi.NoteOnEvent(tick=94, channel=1, data=[61, 0]),
   midi.NoteOnEvent(tick=2, channel=1, data=[61, 110]),
   midi.NoteOnEvent(tick=46, channel=1, data=[61, 0]),
   midi.NoteOnEvent(tick=2, channel=1, data=[61, 110]),
   midi.NoteOnEvent(tick=46, channel=1, data=[61, 0]),
   midi.NoteOnEvent(tick=2, channel=1, data=[59, 110]),
   midi.NoteOnEvent(tick=0, channel=1, data=[66, 110]),
   midi.NoteOnEvent(tick=94, channel=1, data=[59, 0]),
   midi.NoteOnEvent(tick=0, channel=1, data=[66, 0]),
   midi.NoteOnEvent(tick=2, channel=1, data=[59, 110]),
   midi.NoteOnEvent(tick=46, channel=1, data=[59, 0]),
   midi.NoteOnEvent(tick=2, channel=1, data=[59, 110]),
   midi.NoteOnEvent(tick=46, channel=1, data=[59, 0]),
   midi.NoteOnEvent(tick=2, channel=1, data=[59, 110]),
   midi.NoteOnEvent(tick=46, channel=1, data=[59, 0]),
   midi.NoteOnEvent(tick=2, channel=1, data=[59, 110]),
   midi.NoteOnEvent(tick=46, channel=1, data=[59, 0]),
   midi.NoteOnEvent(tick=2, channel=1, data=[59, 110]),
   midi.NoteOnEvent(tick=46, channel=1, data=[59, 0]),
   midi.NoteOnEvent(tick=2, channel=1, data=[59, 110]),
   midi.NoteOnEvent(tick=46, channel=1, data=[59, 0]),
   midi.NoteOnEvent(tick=2, channel=1, data=[59, 110]),
   midi.NoteOnEvent(tick=94, channel=1, data=[59, 0]),
   midi.NoteOnEvent(tick=2, channel=1, data=[59, 110]),
   midi.NoteOnEvent(tick=46, channel=1, data=[59, 0]),
   midi.NoteOnEvent(tick=2, channel=1, data=[59, 110]),
   midi.NoteOnEvent(tick=46, channel=1, data=[59, 0]),
   midi.NoteOnEvent(tick=2, channel=1, data=[61, 110]),
   midi.NoteOnEvent(tick=0, channel=1, data=[68, 110]),
   midi.NoteOnEvent(tick=94, channel=1, data=[61, 0]),
   midi.NoteOnEvent(tick=0, channel=1, data=[68, 0]),
   midi.NoteOnEvent(tick=2, channel=1, data=[61, 110]),
   midi.NoteOnEvent(tick=46, channel=1, data=[61, 0]),
   midi.NoteOnEvent(tick=2, channel=1, data=[61, 110]),
   midi.NoteOnEvent(tick=46, channel=1, data=[61, 0]),
   midi.NoteOnEvent(tick=2, channel=1, data=[61, 110]),
   midi.NoteOnEvent(tick=46, channel=1, data=[61, 0]),
   midi.NoteOnEvent(tick=2, channel=1, data=[61, 110]),
   midi.NoteOnEvent(tick=46, channel=1, data=[61, 0]),
   midi.NoteOnEvent(tick=2, channel=1, data=[61, 110]),
   midi.NoteOnEvent(tick=46, channel=1, data=[61, 0]),
   midi.NoteOnEvent(tick=2, channel=1, data=[61, 110]),
   midi.NoteOnEvent(tick=46, channel=1, data=[61, 0]),
   midi.NoteOnEvent(tick=2, channel=1, data=[61, 110]),
   midi.NoteOnEvent(tick=94, channel=1, data=[61, 0]),
   midi.NoteOnEvent(tick=2, channel=1, data=[61, 110]),
   midi.NoteOnEvent(tick=46, channel=1, data=[61, 0]),
   midi.NoteOnEvent(tick=2, channel=1, data=[61, 110]),
   midi.NoteOnEvent(tick=46, channel=1, data=[61, 0]),
   midi.NoteOnEvent(tick=2, channel=1, data=[61, 110]),
   midi.NoteOnEvent(tick=46, channel=1, data=[61, 0]),
   midi.NoteOnEvent(tick=2, channel=1, data=[61, 110]),
   midi.NoteOnEvent(tick=46, channel=1, data=[61, 0]),
   midi.NoteOnEvent(tick=2, channel=1, data=[61, 110]),
   midi.NoteOnEvent(tick=46, channel=1, data=[61, 0]),
   midi.NoteOnEvent(tick=2, channel=1, data=[61, 110]),
   midi.NoteOnEvent(tick=46, channel=1, data=[61, 0]),
   midi.NoteOnEvent(tick=2, channel=1, data=[61, 110]),
   midi.NoteOnEvent(tick=0, channel=1, data=[68, 110]),
   midi.NoteOnEvent(tick=94, channel=1, data=[61, 0]),
   midi.NoteOnEvent(tick=0, channel=1, data=[68, 0]),
   midi.NoteOnEvent(tick=2, channel=1, data=[61, 110]),
   midi.NoteOnEvent(tick=46, channel=1, data=[61, 0]),
   midi.NoteOnEvent(tick=2, channel=1, data=[61, 110]),
   midi.NoteOnEvent(tick=46, channel=1, data=[61, 0]),
   midi.NoteOnEvent(tick=2, channel=1, data=[61, 110]),
   midi.NoteOnEvent(tick=46, channel=1, data=[61, 0]),
   midi.NoteOnEvent(tick=2, channel=1, data=[61, 110]),
   midi.NoteOnEvent(tick=46, channel=1, data=[61, 0]),
   midi.NoteOnEvent(tick=2, channel=1, data=[61, 110]),
   midi.NoteOnEvent(tick=46, channel=1, data=[61, 0]),
   midi.NoteOnEvent(tick=2, channel=1, data=[61, 110]),
   midi.NoteOnEvent(tick=46, channel=1, data=[61, 0]),
   midi.NoteOnEvent(tick=2, channel=1, data=[61, 110]),
   midi.NoteOnEvent(tick=94, channel=1, data=[61, 0]),
   midi.NoteOnEvent(tick=2, channel=1, data=[61, 110]),
   midi.NoteOnEvent(tick=46, channel=1, data=[61, 0]),
   midi.NoteOnEvent(tick=2, channel=1, data=[61, 110]),
   midi.NoteOnEvent(tick=46, channel=1, data=[61, 0]),
   midi.NoteOnEvent(tick=2, channel=1, data=[61, 110]),
   midi.NoteOnEvent(tick=46, channel=1, data=[61, 0]),
   midi.NoteOnEvent(tick=2, channel=1, data=[61, 110]),
   midi.NoteOnEvent(tick=46, channel=1, data=[61, 0]),
   midi.NoteOnEvent(tick=2, channel=1, data=[61, 110]),
   midi.NoteOnEvent(tick=46, channel=1, data=[61, 0]),
   midi.NoteOnEvent(tick=2, channel=1, data=[61, 110]),
   midi.NoteOnEvent(tick=46, channel=1, data=[61, 0]),
   midi.NoteOnEvent(tick=2, channel=1, data=[61, 110]),
   midi.NoteOnEvent(tick=0, channel=1, data=[68, 110]),
   midi.NoteOnEvent(tick=94, channel=1, data=[61, 0]),
   midi.NoteOnEvent(tick=0, channel=1, data=[68, 0]),
   midi.NoteOnEvent(tick=2, channel=1, data=[61, 110]),
   midi.NoteOnEvent(tick=46, channel=1, data=[61, 0]),
   midi.NoteOnEvent(tick=2, channel=1, data=[61, 110]),
   midi.NoteOnEvent(tick=46, channel=1, data=[61, 0]),
   midi.NoteOnEvent(tick=2, channel=1, data=[61, 110]),
   midi.NoteOnEvent(tick=46, channel=1, data=[61, 0]),
   midi.NoteOnEvent(tick=2, channel=1, data=[61, 110]),
   midi.NoteOnEvent(tick=46, channel=1, data=[61, 0]),
   midi.NoteOnEvent(tick=2, channel=1, data=[61, 110]),
   midi.NoteOnEvent(tick=46, channel=1, data=[61, 0]),
   midi.NoteOnEvent(tick=2, channel=1, data=[61, 110]),
   midi.NoteOnEvent(tick=46, channel=1, data=[61, 0]),
   midi.NoteOnEvent(tick=2, channel=1, data=[61, 110]),
   midi.NoteOnEvent(tick=94, channel=1, data=[61, 0]),
   midi.NoteOnEvent(tick=2, channel=1, data=[61, 110]),
   midi.NoteOnEvent(tick=46, channel=1, data=[61, 0]),
   midi.NoteOnEvent(tick=2, channel=1, data=[61, 110]),
   midi.NoteOnEvent(tick=46, channel=1, data=[61, 0]),
   midi.NoteOnEvent(tick=2, channel=1, data=[59, 110]),
   midi.NoteOnEvent(tick=0, channel=1, data=[66, 110]),
   midi.NoteOnEvent(tick=94, channel=1, data=[59, 0]),
   midi.NoteOnEvent(tick=0, channel=1, data=[66, 0]),
   midi.NoteOnEvent(tick=2, channel=1, data=[59, 110]),
   midi.NoteOnEvent(tick=46, channel=1, data=[59, 0]),
   midi.NoteOnEvent(tick=2, channel=1, data=[59, 110]),
   midi.NoteOnEvent(tick=46, channel=1, data=[59, 0]),
   midi.NoteOnEvent(tick=2, channel=1, data=[59, 110]),
   midi.NoteOnEvent(tick=46, channel=1, data=[59, 0]),
   midi.NoteOnEvent(tick=2, channel=1, data=[59, 110]),
   midi.NoteOnEvent(tick=46, channel=1, data=[59, 0]),
   midi.NoteOnEvent(tick=2, channel=1, data=[59, 110]),
   midi.NoteOnEvent(tick=46, channel=1, data=[59, 0]),
   midi.NoteOnEvent(tick=2, channel=1, data=[59, 110]),
   midi.NoteOnEvent(tick=46, channel=1, data=[59, 0]),
   midi.NoteOnEvent(tick=2, channel=1, data=[59, 110]),
   midi.NoteOnEvent(tick=94, channel=1, data=[59, 0]),
   midi.NoteOnEvent(tick=2, channel=1, data=[59, 110]),
   midi.NoteOnEvent(tick=46, channel=1, data=[59, 0]),
   midi.NoteOnEvent(tick=2, channel=1, data=[59, 110]),
   midi.NoteOnEvent(tick=46, channel=1, data=[59, 0]),
   midi.NoteOnEvent(tick=2, channel=1, data=[71, 110]),
   midi.NoteOnEvent(tick=334, channel=1, data=[71, 0]),
   midi.NoteOnEvent(tick=2, channel=1, data=[72, 110]),
   midi.NoteOnEvent(tick=22, channel=1, data=[72, 0]),
   midi.NoteOnEvent(tick=2, channel=1, data=[71, 110]),
   midi.NoteOnEvent(tick=22, channel=1, data=[71, 0]),
   midi.NoteOnEvent(tick=2, channel=1, data=[69, 110]),
   midi.NoteOnEvent(tick=334, channel=1, data=[69, 0]),
   midi.NoteOnEvent(tick=2, channel=1, data=[71, 110]),
   midi.NoteOnEvent(tick=22, channel=1, data=[71, 0]),
   midi.NoteOnEvent(tick=2, channel=1, data=[72, 110]),
   midi.NoteOnEvent(tick=22, channel=1, data=[72, 0]),
   midi.NoteOnEvent(tick=2, channel=1, data=[71, 110]),
   midi.NoteOnEvent(tick=334, channel=1, data=[71, 0]),
   midi.NoteOnEvent(tick=2, channel=1, data=[72, 110]),
   midi.NoteOnEvent(tick=22, channel=1, data=[72, 0]),
   midi.NoteOnEvent(tick=2, channel=1, data=[71, 110]),
   midi.NoteOnEvent(tick=22, channel=1, data=[71, 0]),
   midi.NoteOnEvent(tick=2, channel=1, data=[69, 110]),
   midi.NoteOnEvent(tick=334, channel=1, data=[69, 0]),
   midi.NoteOnEvent(tick=2, channel=1, data=[71, 110]),
   midi.NoteOnEvent(tick=22, channel=1, data=[71, 0]),
   midi.NoteOnEvent(tick=2, channel=1, data=[72, 110]),
   midi.NoteOnEvent(tick=22, channel=1, data=[72, 0]),
   midi.NoteOnEvent(tick=2, channel=1, data=[71, 110]),
   midi.NoteOnEvent(tick=334, channel=1, data=[71, 0]),
   midi.NoteOnEvent(tick=2, channel=1, data=[72, 110]),
   midi.NoteOnEvent(tick=22, channel=1, data=[72, 0]),
   midi.NoteOnEvent(tick=2, channel=1, data=[71, 110]),
   midi.NoteOnEvent(tick=22, channel=1, data=[71, 0]),
   midi.NoteOnEvent(tick=2, channel=1, data=[69, 110]),
   midi.NoteOnEvent(tick=160, channel=1, data=[69, 0]),
   midi.PitchWheelEvent(tick=32, channel=1, data=[0, 64]),
   midi.NoteOnEvent(tick=0, channel=1, data=[71, 110]),
   midi.PitchWheelEvent(tick=1, channel=1, data=[96, 63]),
   midi.PitchWheelEvent(tick=2, channel=1, data=[64, 63]),
   midi.PitchWheelEvent(tick=1, channel=1, data=[32, 63]),
   midi.PitchWheelEvent(tick=2, channel=1, data=[0, 63]),
   midi.PitchWheelEvent(tick=1, channel=1, data=[96, 62]),
   midi.PitchWheelEvent(tick=2, channel=1, data=[64, 62]),
   midi.PitchWheelEvent(tick=1, channel=1, data=[32, 62]),
   midi.PitchWheelEvent(tick=2, channel=1, data=[0, 62]),
   midi.PitchWheelEvent(tick=1, channel=1, data=[96, 61]),
   midi.PitchWheelEvent(tick=2, channel=1, data=[64, 61]),
   midi.PitchWheelEvent(tick=1, channel=1, data=[32, 61]),
   midi.PitchWheelEvent(tick=2, channel=1, data=[0, 61]),
   midi.PitchWheelEvent(tick=1, channel=1, data=[96, 60]),
   midi.PitchWheelEvent(tick=2, channel=1, data=[64, 60]),
   midi.PitchWheelEvent(tick=1, channel=1, data=[32, 60]),
   midi.PitchWheelEvent(tick=2, channel=1, data=[0, 60]),
   midi.PitchWheelEvent(tick=1, channel=1, data=[96, 59]),
   midi.PitchWheelEvent(tick=2, channel=1, data=[64, 59]),
   midi.PitchWheelEvent(tick=1, channel=1, data=[32, 59]),
   midi.PitchWheelEvent(tick=2, channel=1, data=[0, 59]),
   midi.PitchWheelEvent(tick=1, channel=1, data=[96, 58]),
   midi.PitchWheelEvent(tick=2, channel=1, data=[64, 58]),
   midi.PitchWheelEvent(tick=1, channel=1, data=[32, 58]),
   midi.PitchWheelEvent(tick=2, channel=1, data=[0, 58]),
   midi.PitchWheelEvent(tick=1, channel=1, data=[96, 57]),
   midi.PitchWheelEvent(tick=2, channel=1, data=[64, 57]),
   midi.PitchWheelEvent(tick=1, channel=1, data=[32, 57]),
   midi.PitchWheelEvent(tick=2, channel=1, data=[0, 57]),
   midi.PitchWheelEvent(tick=1, channel=1, data=[96, 56]),
   midi.PitchWheelEvent(tick=2, channel=1, data=[64, 56]),
   midi.PitchWheelEvent(tick=1, channel=1, data=[32, 56]),
   midi.PitchWheelEvent(tick=2, channel=1, data=[0, 56]),
   midi.PitchWheelEvent(tick=1, channel=1, data=[96, 55]),
   midi.PitchWheelEvent(tick=2, channel=1, data=[64, 55]),
   midi.PitchWheelEvent(tick=1, channel=1, data=[32, 55]),
   midi.PitchWheelEvent(tick=2, channel=1, data=[0, 55]),
   midi.PitchWheelEvent(tick=1, channel=1, data=[96, 54]),
   midi.PitchWheelEvent(tick=2, channel=1, data=[64, 54]),
   midi.PitchWheelEvent(tick=1, channel=1, data=[32, 54]),
   midi.PitchWheelEvent(tick=2, channel=1, data=[0, 54]),
   midi.PitchWheelEvent(tick=1, channel=1, data=[96, 53]),
   midi.PitchWheelEvent(tick=2, channel=1, data=[64, 53]),
   midi.PitchWheelEvent(tick=1, channel=1, data=[32, 53]),
   midi.PitchWheelEvent(tick=2, channel=1, data=[0, 53]),
   midi.PitchWheelEvent(tick=1, channel=1, data=[96, 52]),
   midi.PitchWheelEvent(tick=2, channel=1, data=[64, 52]),
   midi.PitchWheelEvent(tick=1, channel=1, data=[32, 52]),
   midi.PitchWheelEvent(tick=2, channel=1, data=[0, 52]),
   midi.PitchWheelEvent(tick=1, channel=1, data=[96, 51]),
   midi.PitchWheelEvent(tick=2, channel=1, data=[64, 51]),
   midi.PitchWheelEvent(tick=1, channel=1, data=[32, 51]),
   midi.PitchWheelEvent(tick=2, channel=1, data=[0, 51]),
   midi.PitchWheelEvent(tick=1, channel=1, data=[96, 50]),
   midi.PitchWheelEvent(tick=2, channel=1, data=[64, 50]),
   midi.PitchWheelEvent(tick=1, channel=1, data=[32, 50]),
   midi.PitchWheelEvent(tick=2, channel=1, data=[0, 50]),
   midi.PitchWheelEvent(tick=1, channel=1, data=[96, 49]),
   midi.PitchWheelEvent(tick=2, channel=1, data=[64, 49]),
   midi.PitchWheelEvent(tick=1, channel=1, data=[32, 49]),
   midi.PitchWheelEvent(tick=2, channel=1, data=[0, 49]),
   midi.PitchWheelEvent(tick=1, channel=1, data=[96, 48]),
   midi.PitchWheelEvent(tick=2, channel=1, data=[64, 48]),
   midi.PitchWheelEvent(tick=1, channel=1, data=[32, 48]),
   midi.PitchWheelEvent(tick=2, channel=1, data=[0, 48]),
   midi.PitchWheelEvent(tick=1, channel=1, data=[96, 47]),
   midi.PitchWheelEvent(tick=2, channel=1, data=[64, 47]),
   midi.PitchWheelEvent(tick=1, channel=1, data=[32, 47]),
   midi.PitchWheelEvent(tick=2, channel=1, data=[0, 47]),
   midi.PitchWheelEvent(tick=1, channel=1, data=[96, 46]),
   midi.PitchWheelEvent(tick=2, channel=1, data=[64, 46]),
   midi.PitchWheelEvent(tick=1, channel=1, data=[32, 46]),
   midi.PitchWheelEvent(tick=2, channel=1, data=[0, 46]),
   midi.PitchWheelEvent(tick=1, channel=1, data=[96, 45]),
   midi.PitchWheelEvent(tick=2, channel=1, data=[64, 45]),
   midi.PitchWheelEvent(tick=1, channel=1, data=[32, 45]),
   midi.PitchWheelEvent(tick=2, channel=1, data=[0, 45]),
   midi.PitchWheelEvent(tick=1, channel=1, data=[96, 44]),
   midi.PitchWheelEvent(tick=2, channel=1, data=[64, 44]),
   midi.PitchWheelEvent(tick=1, channel=1, data=[32, 44]),
   midi.PitchWheelEvent(tick=2, channel=1, data=[0, 44]),
   midi.PitchWheelEvent(tick=1, channel=1, data=[96, 43]),
   midi.PitchWheelEvent(tick=2, channel=1, data=[64, 43]),
   midi.PitchWheelEvent(tick=1, channel=1, data=[32, 43]),
   midi.PitchWheelEvent(tick=2, channel=1, data=[0, 43]),
   midi.PitchWheelEvent(tick=1, channel=1, data=[96, 42]),
   midi.PitchWheelEvent(tick=2, channel=1, data=[64, 42]),
   midi.PitchWheelEvent(tick=1, channel=1, data=[32, 42]),
   midi.PitchWheelEvent(tick=2, channel=1, data=[0, 42]),
   midi.PitchWheelEvent(tick=1, channel=1, data=[96, 41]),
   midi.PitchWheelEvent(tick=2, channel=1, data=[64, 41]),
   midi.PitchWheelEvent(tick=1, channel=1, data=[32, 41]),
   midi.PitchWheelEvent(tick=2, channel=1, data=[0, 41]),
   midi.PitchWheelEvent(tick=1, channel=1, data=[96, 40]),
   midi.PitchWheelEvent(tick=2, channel=1, data=[64, 40]),
   midi.PitchWheelEvent(tick=1, channel=1, data=[32, 40]),
   midi.PitchWheelEvent(tick=2, channel=1, data=[0, 40]),
   midi.PitchWheelEvent(tick=1, channel=1, data=[96, 39]),
   midi.PitchWheelEvent(tick=2, channel=1, data=[64, 39]),
   midi.PitchWheelEvent(tick=1, channel=1, data=[32, 39]),
   midi.PitchWheelEvent(tick=2, channel=1, data=[0, 39]),
   midi.PitchWheelEvent(tick=1, channel=1, data=[96, 38]),
   midi.PitchWheelEvent(tick=2, channel=1, data=[64, 38]),
   midi.PitchWheelEvent(tick=1, channel=1, data=[32, 38]),
   midi.PitchWheelEvent(tick=2, channel=1, data=[0, 38]),
   midi.PitchWheelEvent(tick=1, channel=1, data=[96, 37]),
   midi.PitchWheelEvent(tick=2, channel=1, data=[64, 37]),
   midi.PitchWheelEvent(tick=1, channel=1, data=[32, 37]),
   midi.PitchWheelEvent(tick=2, channel=1, data=[0, 37]),
   midi.PitchWheelEvent(tick=1, channel=1, data=[96, 36]),
   midi.PitchWheelEvent(tick=2, channel=1, data=[64, 36]),
   midi.PitchWheelEvent(tick=1, channel=1, data=[32, 36]),
   midi.PitchWheelEvent(tick=2, channel=1, data=[0, 36]),
   midi.PitchWheelEvent(tick=1, channel=1, data=[96, 35]),
   midi.PitchWheelEvent(tick=2, channel=1, data=[64, 35]),
   midi.PitchWheelEvent(tick=1, channel=1, data=[32, 35]),
   midi.PitchWheelEvent(tick=2, channel=1, data=[0, 35]),
   midi.PitchWheelEvent(tick=1, channel=1, data=[96, 34]),
   midi.PitchWheelEvent(tick=2, channel=1, data=[64, 34]),
   midi.PitchWheelEvent(tick=1, channel=1, data=[32, 34]),
   midi.PitchWheelEvent(tick=2, channel=1, data=[0, 34]),
   midi.PitchWheelEvent(tick=1, channel=1, data=[96, 33]),
   midi.PitchWheelEvent(tick=2, channel=1, data=[64, 33]),
   midi.PitchWheelEvent(tick=1, channel=1, data=[32, 33]),
   midi.PitchWheelEvent(tick=2, channel=1, data=[0, 33]),
   midi.PitchWheelEvent(tick=1, channel=1, data=[96, 32]),
   midi.PitchWheelEvent(tick=2, channel=1, data=[64, 32]),
   midi.PitchWheelEvent(tick=1, channel=1, data=[32, 32]),
   midi.PitchWheelEvent(tick=2, channel=1, data=[0, 32]),
   midi.PitchWheelEvent(tick=1, channel=1, data=[96, 31]),
   midi.PitchWheelEvent(tick=2, channel=1, data=[64, 31]),
   midi.PitchWheelEvent(tick=1, channel=1, data=[32, 31]),
   midi.PitchWheelEvent(tick=2, channel=1, data=[0, 31]),
   midi.PitchWheelEvent(tick=1, channel=1, data=[96, 30]),
   midi.PitchWheelEvent(tick=2, channel=1, data=[64, 30]),
   midi.PitchWheelEvent(tick=1, channel=1, data=[32, 30]),
   midi.PitchWheelEvent(tick=2, channel=1, data=[0, 30]),
   midi.PitchWheelEvent(tick=1, channel=1, data=[96, 29]),
   midi.PitchWheelEvent(tick=2, channel=1, data=[64, 29]),
   midi.PitchWheelEvent(tick=1, channel=1, data=[32, 29]),
   midi.PitchWheelEvent(tick=2, channel=1, data=[0, 29]),
   midi.PitchWheelEvent(tick=1, channel=1, data=[96, 28]),
   midi.PitchWheelEvent(tick=2, channel=1, data=[64, 28]),
   midi.PitchWheelEvent(tick=1, channel=1, data=[32, 28]),
   midi.PitchWheelEvent(tick=2, channel=1, data=[0, 28]),
   midi.PitchWheelEvent(tick=1, channel=1, data=[96, 27]),
   midi.PitchWheelEvent(tick=2, channel=1, data=[64, 27]),
   midi.PitchWheelEvent(tick=1, channel=1, data=[32, 27]),
   midi.PitchWheelEvent(tick=2, channel=1, data=[0, 27]),
   midi.PitchWheelEvent(tick=1, channel=1, data=[96, 26]),
   midi.PitchWheelEvent(tick=2, channel=1, data=[64, 26]),
   midi.PitchWheelEvent(tick=1, channel=1, data=[32, 26]),
   midi.PitchWheelEvent(tick=2, channel=1, data=[0, 26]),
   midi.PitchWheelEvent(tick=1, channel=1, data=[96, 25]),
   midi.PitchWheelEvent(tick=2, channel=1, data=[64, 25]),
   midi.PitchWheelEvent(tick=1, channel=1, data=[32, 25]),
   midi.PitchWheelEvent(tick=2, channel=1, data=[0, 25]),
   midi.PitchWheelEvent(tick=1, channel=1, data=[96, 24]),
   midi.PitchWheelEvent(tick=2, channel=1, data=[64, 24]),
   midi.PitchWheelEvent(tick=1, channel=1, data=[32, 24]),
   midi.PitchWheelEvent(tick=2, channel=1, data=[0, 24]),
   midi.PitchWheelEvent(tick=1, channel=1, data=[96, 23]),
   midi.PitchWheelEvent(tick=2, channel=1, data=[64, 23]),
   midi.PitchWheelEvent(tick=1, channel=1, data=[32, 23]),
   midi.PitchWheelEvent(tick=2, channel=1, data=[0, 23]),
   midi.PitchWheelEvent(tick=1, channel=1, data=[96, 22]),
   midi.PitchWheelEvent(tick=2, channel=1, data=[64, 22]),
   midi.PitchWheelEvent(tick=1, channel=1, data=[32, 22]),
   midi.PitchWheelEvent(tick=2, channel=1, data=[0, 22]),
   midi.PitchWheelEvent(tick=1, channel=1, data=[96, 21]),
   midi.PitchWheelEvent(tick=2, channel=1, data=[64, 21]),
   midi.PitchWheelEvent(tick=1, channel=1, data=[32, 21]),
   midi.PitchWheelEvent(tick=2, channel=1, data=[0, 21]),
   midi.PitchWheelEvent(tick=1, channel=1, data=[96, 20]),
   midi.PitchWheelEvent(tick=2, channel=1, data=[64, 20]),
   midi.PitchWheelEvent(tick=1, channel=1, data=[32, 20]),
   midi.PitchWheelEvent(tick=2, channel=1, data=[0, 20]),
   midi.PitchWheelEvent(tick=1, channel=1, data=[96, 19]),
   midi.PitchWheelEvent(tick=2, channel=1, data=[64, 19]),
   midi.PitchWheelEvent(tick=1, channel=1, data=[32, 19]),
   midi.PitchWheelEvent(tick=2, channel=1, data=[0, 19]),
   midi.PitchWheelEvent(tick=1, channel=1, data=[96, 18]),
   midi.PitchWheelEvent(tick=2, channel=1, data=[64, 18]),
   midi.PitchWheelEvent(tick=1, channel=1, data=[32, 18]),
   midi.PitchWheelEvent(tick=2, channel=1, data=[0, 18]),
   midi.PitchWheelEvent(tick=1, channel=1, data=[96, 17]),
   midi.PitchWheelEvent(tick=2, channel=1, data=[64, 17]),
   midi.PitchWheelEvent(tick=1, channel=1, data=[32, 17]),
   midi.PitchWheelEvent(tick=2, channel=1, data=[0, 17]),
   midi.PitchWheelEvent(tick=1, channel=1, data=[96, 16]),
   midi.PitchWheelEvent(tick=2, channel=1, data=[64, 16]),
   midi.PitchWheelEvent(tick=1, channel=1, data=[32, 16]),
   midi.PitchWheelEvent(tick=2, channel=1, data=[0, 16]),
   midi.PitchWheelEvent(tick=1, channel=1, data=[96, 15]),
   midi.PitchWheelEvent(tick=2, channel=1, data=[64, 15]),
   midi.PitchWheelEvent(tick=1, channel=1, data=[32, 15]),
   midi.PitchWheelEvent(tick=2, channel=1, data=[0, 15]),
   midi.PitchWheelEvent(tick=1, channel=1, data=[96, 14]),
   midi.PitchWheelEvent(tick=2, channel=1, data=[64, 14]),
   midi.PitchWheelEvent(tick=1, channel=1, data=[32, 14]),
   midi.PitchWheelEvent(tick=2, channel=1, data=[0, 14]),
   midi.PitchWheelEvent(tick=1, channel=1, data=[96, 13]),
   midi.PitchWheelEvent(tick=2, channel=1, data=[64, 13]),
   midi.PitchWheelEvent(tick=1, channel=1, data=[32, 13]),
   midi.PitchWheelEvent(tick=2, channel=1, data=[0, 13]),
   midi.PitchWheelEvent(tick=1, channel=1, data=[96, 12]),
   midi.PitchWheelEvent(tick=2, channel=1, data=[64, 12]),
   midi.PitchWheelEvent(tick=1, channel=1, data=[32, 12]),
   midi.PitchWheelEvent(tick=2, channel=1, data=[0, 12]),
   midi.PitchWheelEvent(tick=1, channel=1, data=[96, 11]),
   midi.PitchWheelEvent(tick=2, channel=1, data=[64, 11]),
   midi.PitchWheelEvent(tick=1, channel=1, data=[32, 11]),
   midi.PitchWheelEvent(tick=2, channel=1, data=[0, 11]),
   midi.PitchWheelEvent(tick=1, channel=1, data=[96, 10]),
   midi.PitchWheelEvent(tick=2, channel=1, data=[64, 10]),
   midi.PitchWheelEvent(tick=1, channel=1, data=[32, 10]),
   midi.PitchWheelEvent(tick=2, channel=1, data=[0, 10]),
   midi.PitchWheelEvent(tick=1, channel=1, data=[96, 9]),
   midi.PitchWheelEvent(tick=2, channel=1, data=[64, 9]),
   midi.PitchWheelEvent(tick=1, channel=1, data=[32, 9]),
   midi.PitchWheelEvent(tick=2, channel=1, data=[0, 9]),
   midi.PitchWheelEvent(tick=1, channel=1, data=[96, 8]),
   midi.PitchWheelEvent(tick=2, channel=1, data=[64, 8]),
   midi.PitchWheelEvent(tick=1, channel=1, data=[32, 8]),
   midi.PitchWheelEvent(tick=2, channel=1, data=[0, 8]),
   midi.PitchWheelEvent(tick=1, channel=1, data=[96, 7]),
   midi.PitchWheelEvent(tick=2, channel=1, data=[64, 7]),
   midi.PitchWheelEvent(tick=1, channel=1, data=[32, 7]),
   midi.PitchWheelEvent(tick=2, channel=1, data=[0, 7]),
   midi.PitchWheelEvent(tick=1, channel=1, data=[96, 6]),
   midi.PitchWheelEvent(tick=2, channel=1, data=[64, 6]),
   midi.PitchWheelEvent(tick=1, channel=1, data=[32, 6]),
   midi.PitchWheelEvent(tick=2, channel=1, data=[0, 6]),
   midi.PitchWheelEvent(tick=1, channel=1, data=[96, 5]),
   midi.PitchWheelEvent(tick=2, channel=1, data=[64, 5]),
   midi.PitchWheelEvent(tick=1, channel=1, data=[32, 5]),
   midi.PitchWheelEvent(tick=2, channel=1, data=[0, 5]),
   midi.PitchWheelEvent(tick=1, channel=1, data=[96, 4]),
   midi.PitchWheelEvent(tick=2, channel=1, data=[64, 4]),
   midi.PitchWheelEvent(tick=1, channel=1, data=[32, 4]),
   midi.PitchWheelEvent(tick=2, channel=1, data=[0, 4]),
   midi.PitchWheelEvent(tick=1, channel=1, data=[96, 3]),
   midi.PitchWheelEvent(tick=2, channel=1, data=[64, 3]),
   midi.PitchWheelEvent(tick=1, channel=1, data=[32, 3]),
   midi.PitchWheelEvent(tick=2, channel=1, data=[0, 3]),
   midi.PitchWheelEvent(tick=1, channel=1, data=[96, 2]),
   midi.PitchWheelEvent(tick=2, channel=1, data=[64, 2]),
   midi.PitchWheelEvent(tick=1, channel=1, data=[32, 2]),
   midi.PitchWheelEvent(tick=2, channel=1, data=[0, 2]),
   midi.PitchWheelEvent(tick=1, channel=1, data=[96, 1]),
   midi.PitchWheelEvent(tick=2, channel=1, data=[64, 1]),
   midi.PitchWheelEvent(tick=1, channel=1, data=[32, 1]),
   midi.PitchWheelEvent(tick=2, channel=1, data=[0, 1]),
   midi.PitchWheelEvent(tick=1, channel=1, data=[96, 0]),
   midi.PitchWheelEvent(tick=2, channel=1, data=[64, 0]),
   midi.PitchWheelEvent(tick=1, channel=1, data=[32, 0]),
   midi.PitchWheelEvent(tick=2, channel=1, data=[0, 0]),
   midi.NoteOnEvent(tick=160, channel=1, data=[71, 0]),
   midi.PitchWheelEvent(tick=32, channel=1, data=[0, 64]),
   midi.NoteOnEvent(tick=0, channel=1, data=[71, 110]),
   midi.NoteOnEvent(tick=334, channel=1, data=[71, 0]),
   midi.NoteOnEvent(tick=2, channel=1, data=[72, 110]),
   midi.NoteOnEvent(tick=22, channel=1, data=[72, 0]),
   midi.NoteOnEvent(tick=2, channel=1, data=[71, 110]),
   midi.NoteOnEvent(tick=22, channel=1, data=[71, 0]),
   midi.NoteOnEvent(tick=2, channel=1, data=[69, 110]),
   midi.NoteOnEvent(tick=334, channel=1, data=[69, 0]),
   midi.NoteOnEvent(tick=2, channel=1, data=[71, 110]),
   midi.NoteOnEvent(tick=22, channel=1, data=[71, 0]),
   midi.NoteOnEvent(tick=2, channel=1, data=[72, 110]),
   midi.NoteOnEvent(tick=22, channel=1, data=[72, 0]),
   midi.NoteOnEvent(tick=2, channel=1, data=[71, 110]),
   midi.NoteOnEvent(tick=334, channel=1, data=[71, 0]),
   midi.NoteOnEvent(tick=2, channel=1, data=[72, 110]),
   midi.NoteOnEvent(tick=22, channel=1, data=[72, 0]),
   midi.NoteOnEvent(tick=2, channel=1, data=[71, 110]),
   midi.NoteOnEvent(tick=22, channel=1, data=[71, 0]),
   midi.NoteOnEvent(tick=2, channel=1, data=[69, 110]),
   midi.NoteOnEvent(tick=334, channel=1, data=[69, 0]),
   midi.NoteOnEvent(tick=2, channel=1, data=[71, 110]),
   midi.NoteOnEvent(tick=22, channel=1, data=[71, 0]),
   midi.NoteOnEvent(tick=2, channel=1, data=[72, 110]),
   midi.NoteOnEvent(tick=22, channel=1, data=[72, 0]),
   midi.NoteOnEvent(tick=2, channel=1, data=[71, 110]),
   midi.NoteOnEvent(tick=334, channel=1, data=[71, 0]),
   midi.NoteOnEvent(tick=2, channel=1, data=[72, 110]),
   midi.NoteOnEvent(tick=22, channel=1, data=[72, 0]),
   midi.NoteOnEvent(tick=2, channel=1, data=[71, 110]),
   midi.NoteOnEvent(tick=22, channel=1, data=[71, 0]),
   midi.NoteOnEvent(tick=2, channel=1, data=[69, 110]),
   midi.NoteOnEvent(tick=160, channel=1, data=[69, 0]),
   midi.PitchWheelEvent(tick=32, channel=1, data=[0, 64]),
   midi.NoteOnEvent(tick=0, channel=1, data=[71, 110]),
   midi.PitchWheelEvent(tick=1, channel=1, data=[96, 63]),
   midi.PitchWheelEvent(tick=2, channel=1, data=[64, 63]),
   midi.PitchWheelEvent(tick=1, channel=1, data=[32, 63]),
   midi.PitchWheelEvent(tick=2, channel=1, data=[0, 63]),
   midi.PitchWheelEvent(tick=1, channel=1, data=[96, 62]),
   midi.PitchWheelEvent(tick=2, channel=1, data=[64, 62]),
   midi.PitchWheelEvent(tick=1, channel=1, data=[32, 62]),
   midi.PitchWheelEvent(tick=2, channel=1, data=[0, 62]),
   midi.PitchWheelEvent(tick=1, channel=1, data=[96, 61]),
   midi.PitchWheelEvent(tick=2, channel=1, data=[64, 61]),
   midi.PitchWheelEvent(tick=1, channel=1, data=[32, 61]),
   midi.PitchWheelEvent(tick=2, channel=1, data=[0, 61]),
   midi.PitchWheelEvent(tick=1, channel=1, data=[96, 60]),
   midi.PitchWheelEvent(tick=2, channel=1, data=[64, 60]),
   midi.PitchWheelEvent(tick=1, channel=1, data=[32, 60]),
   midi.PitchWheelEvent(tick=2, channel=1, data=[0, 60]),
   midi.PitchWheelEvent(tick=1, channel=1, data=[96, 59]),
   midi.PitchWheelEvent(tick=2, channel=1, data=[64, 59]),
   midi.PitchWheelEvent(tick=1, channel=1, data=[32, 59]),
   midi.PitchWheelEvent(tick=2, channel=1, data=[0, 59]),
   midi.PitchWheelEvent(tick=1, channel=1, data=[96, 58]),
   midi.PitchWheelEvent(tick=2, channel=1, data=[64, 58]),
   midi.PitchWheelEvent(tick=1, channel=1, data=[32, 58]),
   midi.PitchWheelEvent(tick=2, channel=1, data=[0, 58]),
   midi.PitchWheelEvent(tick=1, channel=1, data=[96, 57]),
   midi.PitchWheelEvent(tick=2, channel=1, data=[64, 57]),
   midi.PitchWheelEvent(tick=1, channel=1, data=[32, 57]),
   midi.PitchWheelEvent(tick=2, channel=1, data=[0, 57]),
   midi.PitchWheelEvent(tick=1, channel=1, data=[96, 56]),
   midi.PitchWheelEvent(tick=2, channel=1, data=[64, 56]),
   midi.PitchWheelEvent(tick=1, channel=1, data=[32, 56]),
   midi.PitchWheelEvent(tick=2, channel=1, data=[0, 56]),
   midi.PitchWheelEvent(tick=1, channel=1, data=[96, 55]),
   midi.PitchWheelEvent(tick=2, channel=1, data=[64, 55]),
   midi.PitchWheelEvent(tick=1, channel=1, data=[32, 55]),
   midi.PitchWheelEvent(tick=2, channel=1, data=[0, 55]),
   midi.PitchWheelEvent(tick=1, channel=1, data=[96, 54]),
   midi.PitchWheelEvent(tick=2, channel=1, data=[64, 54]),
   midi.PitchWheelEvent(tick=1, channel=1, data=[32, 54]),
   midi.PitchWheelEvent(tick=2, channel=1, data=[0, 54]),
   midi.PitchWheelEvent(tick=1, channel=1, data=[96, 53]),
   midi.PitchWheelEvent(tick=2, channel=1, data=[64, 53]),
   midi.PitchWheelEvent(tick=1, channel=1, data=[32, 53]),
   midi.PitchWheelEvent(tick=2, channel=1, data=[0, 53]),
   midi.PitchWheelEvent(tick=1, channel=1, data=[96, 52]),
   midi.PitchWheelEvent(tick=2, channel=1, data=[64, 52]),
   midi.PitchWheelEvent(tick=1, channel=1, data=[32, 52]),
   midi.PitchWheelEvent(tick=2, channel=1, data=[0, 52]),
   midi.PitchWheelEvent(tick=1, channel=1, data=[96, 51]),
   midi.PitchWheelEvent(tick=2, channel=1, data=[64, 51]),
   midi.PitchWheelEvent(tick=1, channel=1, data=[32, 51]),
   midi.PitchWheelEvent(tick=2, channel=1, data=[0, 51]),
   midi.PitchWheelEvent(tick=1, channel=1, data=[96, 50]),
   midi.PitchWheelEvent(tick=2, channel=1, data=[64, 50]),
   midi.PitchWheelEvent(tick=1, channel=1, data=[32, 50]),
   midi.PitchWheelEvent(tick=2, channel=1, data=[0, 50]),
   midi.PitchWheelEvent(tick=1, channel=1, data=[96, 49]),
   midi.PitchWheelEvent(tick=2, channel=1, data=[64, 49]),
   midi.PitchWheelEvent(tick=1, channel=1, data=[32, 49]),
   midi.PitchWheelEvent(tick=2, channel=1, data=[0, 49]),
   midi.PitchWheelEvent(tick=1, channel=1, data=[96, 48]),
   midi.PitchWheelEvent(tick=2, channel=1, data=[64, 48]),
   midi.PitchWheelEvent(tick=1, channel=1, data=[32, 48]),
   midi.PitchWheelEvent(tick=2, channel=1, data=[0, 48]),
   midi.PitchWheelEvent(tick=1, channel=1, data=[96, 47]),
   midi.PitchWheelEvent(tick=2, channel=1, data=[64, 47]),
   midi.PitchWheelEvent(tick=1, channel=1, data=[32, 47]),
   midi.PitchWheelEvent(tick=2, channel=1, data=[0, 47]),
   midi.PitchWheelEvent(tick=1, channel=1, data=[96, 46]),
   midi.PitchWheelEvent(tick=2, channel=1, data=[64, 46]),
   midi.PitchWheelEvent(tick=1, channel=1, data=[32, 46]),
   midi.PitchWheelEvent(tick=2, channel=1, data=[0, 46]),
   midi.PitchWheelEvent(tick=1, channel=1, data=[96, 45]),
   midi.PitchWheelEvent(tick=2, channel=1, data=[64, 45]),
   midi.PitchWheelEvent(tick=1, channel=1, data=[32, 45]),
   midi.PitchWheelEvent(tick=2, channel=1, data=[0, 45]),
   midi.PitchWheelEvent(tick=1, channel=1, data=[96, 44]),
   midi.PitchWheelEvent(tick=2, channel=1, data=[64, 44]),
   midi.PitchWheelEvent(tick=1, channel=1, data=[32, 44]),
   midi.PitchWheelEvent(tick=2, channel=1, data=[0, 44]),
   midi.PitchWheelEvent(tick=1, channel=1, data=[96, 43]),
   midi.PitchWheelEvent(tick=2, channel=1, data=[64, 43]),
   midi.PitchWheelEvent(tick=1, channel=1, data=[32, 43]),
   midi.PitchWheelEvent(tick=2, channel=1, data=[0, 43]),
   midi.PitchWheelEvent(tick=1, channel=1, data=[96, 42]),
   midi.PitchWheelEvent(tick=2, channel=1, data=[64, 42]),
   midi.PitchWheelEvent(tick=1, channel=1, data=[32, 42]),
   midi.PitchWheelEvent(tick=2, channel=1, data=[0, 42]),
   midi.PitchWheelEvent(tick=1, channel=1, data=[96, 41]),
   midi.PitchWheelEvent(tick=2, channel=1, data=[64, 41]),
   midi.PitchWheelEvent(tick=1, channel=1, data=[32, 41]),
   midi.PitchWheelEvent(tick=2, channel=1, data=[0, 41]),
   midi.PitchWheelEvent(tick=1, channel=1, data=[96, 40]),
   midi.PitchWheelEvent(tick=2, channel=1, data=[64, 40]),
   midi.PitchWheelEvent(tick=1, channel=1, data=[32, 40]),
   midi.PitchWheelEvent(tick=2, channel=1, data=[0, 40]),
   midi.PitchWheelEvent(tick=1, channel=1, data=[96, 39]),
   midi.PitchWheelEvent(tick=2, channel=1, data=[64, 39]),
   midi.PitchWheelEvent(tick=1, channel=1, data=[32, 39]),
   midi.PitchWheelEvent(tick=2, channel=1, data=[0, 39]),
   midi.PitchWheelEvent(tick=1, channel=1, data=[96, 38]),
   midi.PitchWheelEvent(tick=2, channel=1, data=[64, 38]),
   midi.PitchWheelEvent(tick=1, channel=1, data=[32, 38]),
   midi.PitchWheelEvent(tick=2, channel=1, data=[0, 38]),
   midi.PitchWheelEvent(tick=1, channel=1, data=[96, 37]),
   midi.PitchWheelEvent(tick=2, channel=1, data=[64, 37]),
   midi.PitchWheelEvent(tick=1, channel=1, data=[32, 37]),
   midi.PitchWheelEvent(tick=2, channel=1, data=[0, 37]),
   midi.PitchWheelEvent(tick=1, channel=1, data=[96, 36]),
   midi.PitchWheelEvent(tick=2, channel=1, data=[64, 36]),
   midi.PitchWheelEvent(tick=1, channel=1, data=[32, 36]),
   midi.PitchWheelEvent(tick=2, channel=1, data=[0, 36]),
   midi.PitchWheelEvent(tick=1, channel=1, data=[96, 35]),
   midi.PitchWheelEvent(tick=2, channel=1, data=[64, 35]),
   midi.PitchWheelEvent(tick=1, channel=1, data=[32, 35]),
   midi.PitchWheelEvent(tick=2, channel=1, data=[0, 35]),
   midi.PitchWheelEvent(tick=1, channel=1, data=[96, 34]),
   midi.PitchWheelEvent(tick=2, channel=1, data=[64, 34]),
   midi.PitchWheelEvent(tick=1, channel=1, data=[32, 34]),
   midi.PitchWheelEvent(tick=2, channel=1, data=[0, 34]),
   midi.PitchWheelEvent(tick=1, channel=1, data=[96, 33]),
   midi.PitchWheelEvent(tick=2, channel=1, data=[64, 33]),
   midi.PitchWheelEvent(tick=1, channel=1, data=[32, 33]),
   midi.PitchWheelEvent(tick=2, channel=1, data=[0, 33]),
   midi.PitchWheelEvent(tick=1, channel=1, data=[96, 32]),
   midi.PitchWheelEvent(tick=2, channel=1, data=[64, 32]),
   midi.PitchWheelEvent(tick=1, channel=1, data=[32, 32]),
   midi.PitchWheelEvent(tick=2, channel=1, data=[0, 32]),
   midi.PitchWheelEvent(tick=1, channel=1, data=[96, 31]),
   midi.PitchWheelEvent(tick=2, channel=1, data=[64, 31]),
   midi.PitchWheelEvent(tick=1, channel=1, data=[32, 31]),
   midi.PitchWheelEvent(tick=2, channel=1, data=[0, 31]),
   midi.PitchWheelEvent(tick=1, channel=1, data=[96, 30]),
   midi.PitchWheelEvent(tick=2, channel=1, data=[64, 30]),
   midi.PitchWheelEvent(tick=1, channel=1, data=[32, 30]),
   midi.PitchWheelEvent(tick=2, channel=1, data=[0, 30]),
   midi.PitchWheelEvent(tick=1, channel=1, data=[96, 29]),
   midi.PitchWheelEvent(tick=2, channel=1, data=[64, 29]),
   midi.PitchWheelEvent(tick=1, channel=1, data=[32, 29]),
   midi.PitchWheelEvent(tick=2, channel=1, data=[0, 29]),
   midi.PitchWheelEvent(tick=1, channel=1, data=[96, 28]),
   midi.PitchWheelEvent(tick=2, channel=1, data=[64, 28]),
   midi.PitchWheelEvent(tick=1, channel=1, data=[32, 28]),
   midi.PitchWheelEvent(tick=2, channel=1, data=[0, 28]),
   midi.PitchWheelEvent(tick=1, channel=1, data=[96, 27]),
   midi.PitchWheelEvent(tick=2, channel=1, data=[64, 27]),
   midi.PitchWheelEvent(tick=1, channel=1, data=[32, 27]),
   midi.PitchWheelEvent(tick=2, channel=1, data=[0, 27]),
   midi.PitchWheelEvent(tick=1, channel=1, data=[96, 26]),
   midi.PitchWheelEvent(tick=2, channel=1, data=[64, 26]),
   midi.PitchWheelEvent(tick=1, channel=1, data=[32, 26]),
   midi.PitchWheelEvent(tick=2, channel=1, data=[0, 26]),
   midi.PitchWheelEvent(tick=1, channel=1, data=[96, 25]),
   midi.PitchWheelEvent(tick=2, channel=1, data=[64, 25]),
   midi.PitchWheelEvent(tick=1, channel=1, data=[32, 25]),
   midi.PitchWheelEvent(tick=2, channel=1, data=[0, 25]),
   midi.PitchWheelEvent(tick=1, channel=1, data=[96, 24]),
   midi.PitchWheelEvent(tick=2, channel=1, data=[64, 24]),
   midi.PitchWheelEvent(tick=1, channel=1, data=[32, 24]),
   midi.PitchWheelEvent(tick=2, channel=1, data=[0, 24]),
   midi.PitchWheelEvent(tick=1, channel=1, data=[96, 23]),
   midi.PitchWheelEvent(tick=2, channel=1, data=[64, 23]),
   midi.PitchWheelEvent(tick=1, channel=1, data=[32, 23]),
   midi.PitchWheelEvent(tick=2, channel=1, data=[0, 23]),
   midi.PitchWheelEvent(tick=1, channel=1, data=[96, 22]),
   midi.PitchWheelEvent(tick=2, channel=1, data=[64, 22]),
   midi.PitchWheelEvent(tick=1, channel=1, data=[32, 22]),
   midi.PitchWheelEvent(tick=2, channel=1, data=[0, 22]),
   midi.PitchWheelEvent(tick=1, channel=1, data=[96, 21]),
   midi.PitchWheelEvent(tick=2, channel=1, data=[64, 21]),
   midi.PitchWheelEvent(tick=1, channel=1, data=[32, 21]),
   midi.PitchWheelEvent(tick=2, channel=1, data=[0, 21]),
   midi.PitchWheelEvent(tick=1, channel=1, data=[96, 20]),
   midi.PitchWheelEvent(tick=2, channel=1, data=[64, 20]),
   midi.PitchWheelEvent(tick=1, channel=1, data=[32, 20]),
   midi.PitchWheelEvent(tick=2, channel=1, data=[0, 20]),
   midi.PitchWheelEvent(tick=1, channel=1, data=[96, 19]),
   midi.PitchWheelEvent(tick=2, channel=1, data=[64, 19]),
   midi.PitchWheelEvent(tick=1, channel=1, data=[32, 19]),
   midi.PitchWheelEvent(tick=2, channel=1, data=[0, 19]),
   midi.PitchWheelEvent(tick=1, channel=1, data=[96, 18]),
   midi.PitchWheelEvent(tick=2, channel=1, data=[64, 18]),
   midi.PitchWheelEvent(tick=1, channel=1, data=[32, 18]),
   midi.PitchWheelEvent(tick=2, channel=1, data=[0, 18]),
   midi.PitchWheelEvent(tick=1, channel=1, data=[96, 17]),
   midi.PitchWheelEvent(tick=2, channel=1, data=[64, 17]),
   midi.PitchWheelEvent(tick=1, channel=1, data=[32, 17]),
   midi.PitchWheelEvent(tick=2, channel=1, data=[0, 17]),
   midi.PitchWheelEvent(tick=1, channel=1, data=[96, 16]),
   midi.PitchWheelEvent(tick=2, channel=1, data=[64, 16]),
   midi.PitchWheelEvent(tick=1, channel=1, data=[32, 16]),
   midi.PitchWheelEvent(tick=2, channel=1, data=[0, 16]),
   midi.PitchWheelEvent(tick=1, channel=1, data=[96, 15]),
   midi.PitchWheelEvent(tick=2, channel=1, data=[64, 15]),
   midi.PitchWheelEvent(tick=1, channel=1, data=[32, 15]),
   midi.PitchWheelEvent(tick=2, channel=1, data=[0, 15]),
   midi.PitchWheelEvent(tick=1, channel=1, data=[96, 14]),
   midi.PitchWheelEvent(tick=2, channel=1, data=[64, 14]),
   midi.PitchWheelEvent(tick=1, channel=1, data=[32, 14]),
   midi.PitchWheelEvent(tick=2, channel=1, data=[0, 14]),
   midi.PitchWheelEvent(tick=1, channel=1, data=[96, 13]),
   midi.PitchWheelEvent(tick=2, channel=1, data=[64, 13]),
   midi.PitchWheelEvent(tick=1, channel=1, data=[32, 13]),
   midi.PitchWheelEvent(tick=2, channel=1, data=[0, 13]),
   midi.PitchWheelEvent(tick=1, channel=1, data=[96, 12]),
   midi.PitchWheelEvent(tick=2, channel=1, data=[64, 12]),
   midi.PitchWheelEvent(tick=1, channel=1, data=[32, 12]),
   midi.PitchWheelEvent(tick=2, channel=1, data=[0, 12]),
   midi.PitchWheelEvent(tick=1, channel=1, data=[96, 11]),
   midi.PitchWheelEvent(tick=2, channel=1, data=[64, 11]),
   midi.PitchWheelEvent(tick=1, channel=1, data=[32, 11]),
   midi.PitchWheelEvent(tick=2, channel=1, data=[0, 11]),
   midi.PitchWheelEvent(tick=1, channel=1, data=[96, 10]),
   midi.PitchWheelEvent(tick=2, channel=1, data=[64, 10]),
   midi.PitchWheelEvent(tick=1, channel=1, data=[32, 10]),
   midi.PitchWheelEvent(tick=2, channel=1, data=[0, 10]),
   midi.PitchWheelEvent(tick=1, channel=1, data=[96, 9]),
   midi.PitchWheelEvent(tick=2, channel=1, data=[64, 9]),
   midi.PitchWheelEvent(tick=1, channel=1, data=[32, 9]),
   midi.PitchWheelEvent(tick=2, channel=1, data=[0, 9]),
   midi.PitchWheelEvent(tick=1, channel=1, data=[96, 8]),
   midi.PitchWheelEvent(tick=2, channel=1, data=[64, 8]),
   midi.PitchWheelEvent(tick=1, channel=1, data=[32, 8]),
   midi.PitchWheelEvent(tick=2, channel=1, data=[0, 8]),
   midi.PitchWheelEvent(tick=1, channel=1, data=[96, 7]),
   midi.PitchWheelEvent(tick=2, channel=1, data=[64, 7]),
   midi.PitchWheelEvent(tick=1, channel=1, data=[32, 7]),
   midi.PitchWheelEvent(tick=2, channel=1, data=[0, 7]),
   midi.PitchWheelEvent(tick=1, channel=1, data=[96, 6]),
   midi.PitchWheelEvent(tick=2, channel=1, data=[64, 6]),
   midi.PitchWheelEvent(tick=1, channel=1, data=[32, 6]),
   midi.PitchWheelEvent(tick=2, channel=1, data=[0, 6]),
   midi.PitchWheelEvent(tick=1, channel=1, data=[96, 5]),
   midi.PitchWheelEvent(tick=2, channel=1, data=[64, 5]),
   midi.PitchWheelEvent(tick=1, channel=1, data=[32, 5]),
   midi.PitchWheelEvent(tick=2, channel=1, data=[0, 5]),
   midi.PitchWheelEvent(tick=1, channel=1, data=[96, 4]),
   midi.PitchWheelEvent(tick=2, channel=1, data=[64, 4]),
   midi.PitchWheelEvent(tick=1, channel=1, data=[32, 4]),
   midi.PitchWheelEvent(tick=2, channel=1, data=[0, 4]),
   midi.PitchWheelEvent(tick=1, channel=1, data=[96, 3]),
   midi.PitchWheelEvent(tick=2, channel=1, data=[64, 3]),
   midi.PitchWheelEvent(tick=1, channel=1, data=[32, 3]),
   midi.PitchWheelEvent(tick=2, channel=1, data=[0, 3]),
   midi.PitchWheelEvent(tick=1, channel=1, data=[96, 2]),
   midi.PitchWheelEvent(tick=2, channel=1, data=[64, 2]),
   midi.PitchWheelEvent(tick=1, channel=1, data=[32, 2]),
   midi.PitchWheelEvent(tick=2, channel=1, data=[0, 2]),
   midi.PitchWheelEvent(tick=1, channel=1, data=[96, 1]),
   midi.PitchWheelEvent(tick=2, channel=1, data=[64, 1]),
   midi.PitchWheelEvent(tick=1, channel=1, data=[32, 1]),
   midi.PitchWheelEvent(tick=2, channel=1, data=[0, 1]),
   midi.PitchWheelEvent(tick=1, channel=1, data=[96, 0]),
   midi.PitchWheelEvent(tick=2, channel=1, data=[64, 0]),
   midi.PitchWheelEvent(tick=1, channel=1, data=[32, 0]),
   midi.PitchWheelEvent(tick=2, channel=1, data=[0, 0]),
   midi.NoteOnEvent(tick=160, channel=1, data=[71, 0]),
   midi.PitchWheelEvent(tick=32, channel=1, data=[0, 64]),
   midi.NoteOnEvent(tick=0, channel=1, data=[59, 110]),
   midi.NoteOnEvent(tick=0, channel=1, data=[66, 110]),
   midi.NoteOnEvent(tick=0, channel=1, data=[71, 110]),
   midi.NoteOnEvent(tick=126, channel=1, data=[59, 0]),
   midi.NoteOnEvent(tick=0, channel=1, data=[66, 0]),
   midi.NoteOnEvent(tick=0, channel=1, data=[71, 0]),
   midi.NoteOnEvent(tick=2, channel=1, data=[58, 110]),
   midi.NoteOnEvent(tick=0, channel=1, data=[65, 110]),
   midi.NoteOnEvent(tick=0, channel=1, data=[70, 110]),
   midi.NoteOnEvent(tick=126, channel=1, data=[58, 0]),
   midi.NoteOnEvent(tick=0, channel=1, data=[65, 0]),
   midi.NoteOnEvent(tick=0, channel=1, data=[70, 0]),
   midi.NoteOnEvent(tick=2, channel=1, data=[59, 110]),
   midi.NoteOnEvent(tick=0, channel=1, data=[66, 110]),
   midi.NoteOnEvent(tick=0, channel=1, data=[71, 110]),
   midi.NoteOnEvent(tick=126, channel=1, data=[59, 0]),
   midi.NoteOnEvent(tick=0, channel=1, data=[66, 0]),
   midi.NoteOnEvent(tick=0, channel=1, data=[71, 0]),
   midi.NoteOnEvent(tick=2, channel=1, data=[60, 110]),
   midi.NoteOnEvent(tick=0, channel=1, data=[67, 110]),
   midi.NoteOnEvent(tick=0, channel=1, data=[72, 110]),
   midi.NoteOnEvent(tick=160, channel=1, data=[60, 0]),
   midi.NoteOnEvent(tick=0, channel=1, data=[67, 0]),
   midi.NoteOnEvent(tick=0, channel=1, data=[72, 0]),
   midi.NoteOnEvent(tick=32, channel=1, data=[59, 110]),
   midi.NoteOnEvent(tick=0, channel=1, data=[66, 110]),
   midi.NoteOnEvent(tick=0, channel=1, data=[71, 110]),
   midi.NoteOnEvent(tick=160, channel=1, data=[59, 0]),
   midi.NoteOnEvent(tick=0, channel=1, data=[66, 0]),
   midi.NoteOnEvent(tick=0, channel=1, data=[71, 0]),
   midi.NoteOnEvent(tick=32, channel=1, data=[52, 110]),
   midi.NoteOnEvent(tick=0, channel=1, data=[64, 110]),
   midi.NoteOnEvent(tick=0, channel=1, data=[71, 110]),
   midi.NoteOnEvent(tick=0, channel=1, data=[76, 110]),
   midi.NoteOnEvent(tick=94, channel=1, data=[52, 0]),
   midi.NoteOnEvent(tick=0, channel=1, data=[64, 0]),
   midi.NoteOnEvent(tick=0, channel=1, data=[71, 0]),
   midi.NoteOnEvent(tick=0, channel=1, data=[76, 0]),
   midi.NoteOnEvent(tick=2, channel=1, data=[52, 110]),
   midi.NoteOnEvent(tick=46, channel=1, data=[52, 0]),
   midi.NoteOnEvent(tick=2, channel=1, data=[52, 110]),
   midi.NoteOnEvent(tick=46, channel=1, data=[52, 0]),
   midi.NoteOnEvent(tick=2, channel=1, data=[52, 110]),
   midi.NoteOnEvent(tick=94, channel=1, data=[52, 0]),
   midi.NoteOnEvent(tick=2, channel=1, data=[52, 110]),
   midi.NoteOnEvent(tick=94, channel=1, data=[52, 0]),
   midi.NoteOnEvent(tick=2, channel=1, data=[52, 110]),
   midi.NoteOnEvent(tick=94, channel=1, data=[52, 0]),
   midi.NoteOnEvent(tick=2, channel=1, data=[52, 110]),
   midi.NoteOnEvent(tick=94, channel=1, data=[52, 0]),
   midi.NoteOnEvent(tick=2, channel=1, data=[52, 110]),
   midi.NoteOnEvent(tick=94, channel=1, data=[52, 0]),
   midi.NoteOnEvent(tick=2, channel=1, data=[55, 110]),
   midi.NoteOnEvent(tick=0, channel=1, data=[62, 110]),
   midi.NoteOnEvent(tick=0, channel=1, data=[67, 110]),
   midi.NoteOnEvent(tick=574, channel=1, data=[55, 0]),
   midi.NoteOnEvent(tick=0, channel=1, data=[62, 0]),
   midi.NoteOnEvent(tick=0, channel=1, data=[67, 0]),
   midi.NoteOnEvent(tick=2, channel=1, data=[58, 110]),
   midi.NoteOnEvent(tick=0, channel=1, data=[65, 110]),
   midi.NoteOnEvent(tick=0, channel=1, data=[70, 110]),
   midi.NoteOnEvent(tick=160, channel=1, data=[58, 0]),
   midi.NoteOnEvent(tick=0, channel=1, data=[65, 0]),
   midi.NoteOnEvent(tick=0, channel=1, data=[70, 0]),
   midi.NoteOnEvent(tick=32, channel=1, data=[54, 110]),
   midi.NoteOnEvent(tick=0, channel=1, data=[61, 110]),
   midi.NoteOnEvent(tick=0, channel=1, data=[66, 110]),
   midi.NoteOnEvent(tick=574, channel=1, data=[54, 0]),
   midi.NoteOnEvent(tick=0, channel=1, data=[61, 0]),
   midi.NoteOnEvent(tick=0, channel=1, data=[66, 0]),
   midi.NoteOnEvent(tick=2, channel=1, data=[57, 110]),
   midi.NoteOnEvent(tick=0, channel=1, data=[64, 110]),
   midi.NoteOnEvent(tick=0, channel=1, data=[69, 110]),
   midi.NoteOnEvent(tick=160, channel=1, data=[57, 0]),
   midi.NoteOnEvent(tick=0, channel=1, data=[64, 0]),
   midi.NoteOnEvent(tick=0, channel=1, data=[69, 0]),
   midi.NoteOnEvent(tick=32, channel=1, data=[53, 110]),
   midi.NoteOnEvent(tick=0, channel=1, data=[60, 110]),
   midi.NoteOnEvent(tick=0, channel=1, data=[65, 110]),
   midi.NoteOnEvent(tick=574, channel=1, data=[53, 0]),
   midi.NoteOnEvent(tick=0, channel=1, data=[60, 0]),
   midi.NoteOnEvent(tick=0, channel=1, data=[65, 0]),
   midi.NoteOnEvent(tick=2, channel=1, data=[55, 110]),
   midi.NoteOnEvent(tick=0, channel=1, data=[62, 110]),
   midi.NoteOnEvent(tick=0, channel=1, data=[67, 110]),
   midi.NoteOnEvent(tick=256, channel=1, data=[55, 0]),
   midi.NoteOnEvent(tick=0, channel=1, data=[62, 0]),
   midi.NoteOnEvent(tick=0, channel=1, data=[67, 0]),
   midi.NoteOnEvent(tick=32, channel=1, data=[52, 110]),
   midi.NoteOnEvent(tick=94, channel=1, data=[52, 0]),
   midi.NoteOnEvent(tick=2, channel=1, data=[52, 110]),
   midi.NoteOnEvent(tick=46, channel=1, data=[52, 0]),
   midi.NoteOnEvent(tick=2, channel=1, data=[52, 110]),
   midi.NoteOnEvent(tick=46, channel=1, data=[52, 0]),
   midi.NoteOnEvent(tick=2, channel=1, data=[52, 110]),
   midi.NoteOnEvent(tick=94, channel=1, data=[52, 0]),
   midi.NoteOnEvent(tick=2, channel=1, data=[52, 110]),
   midi.NoteOnEvent(tick=94, channel=1, data=[52, 0]),
   midi.NoteOnEvent(tick=2, channel=1, data=[52, 110]),
   midi.NoteOnEvent(tick=94, channel=1, data=[52, 0]),
   midi.NoteOnEvent(tick=2, channel=1, data=[52, 110]),
   midi.NoteOnEvent(tick=94, channel=1, data=[52, 0]),
   midi.NoteOnEvent(tick=2, channel=1, data=[52, 110]),
   midi.NoteOnEvent(tick=94, channel=1, data=[52, 0]),
   midi.NoteOnEvent(tick=2, channel=1, data=[55, 110]),
   midi.NoteOnEvent(tick=0, channel=1, data=[62, 110]),
   midi.NoteOnEvent(tick=0, channel=1, data=[67, 110]),
   midi.NoteOnEvent(tick=574, channel=1, data=[55, 0]),
   midi.NoteOnEvent(tick=0, channel=1, data=[62, 0]),
   midi.NoteOnEvent(tick=0, channel=1, data=[67, 0]),
   midi.NoteOnEvent(tick=2, channel=1, data=[58, 110]),
   midi.NoteOnEvent(tick=0, channel=1, data=[65, 110]),
   midi.NoteOnEvent(tick=0, channel=1, data=[70, 110]),
   midi.NoteOnEvent(tick=160, channel=1, data=[58, 0]),
   midi.NoteOnEvent(tick=0, channel=1, data=[65, 0]),
   midi.NoteOnEvent(tick=0, channel=1, data=[70, 0]),
   midi.NoteOnEvent(tick=32, channel=1, data=[54, 110]),
   midi.NoteOnEvent(tick=0, channel=1, data=[61, 110]),
   midi.NoteOnEvent(tick=0, channel=1, data=[66, 110]),
   midi.NoteOnEvent(tick=574, channel=1, data=[54, 0]),
   midi.NoteOnEvent(tick=0, channel=1, data=[61, 0]),
   midi.NoteOnEvent(tick=0, channel=1, data=[66, 0]),
   midi.NoteOnEvent(tick=2, channel=1, data=[57, 110]),
   midi.NoteOnEvent(tick=0, channel=1, data=[64, 110]),
   midi.NoteOnEvent(tick=0, channel=1, data=[69, 110]),
   midi.NoteOnEvent(tick=160, channel=1, data=[57, 0]),
   midi.NoteOnEvent(tick=0, channel=1, data=[64, 0]),
   midi.NoteOnEvent(tick=0, channel=1, data=[69, 0]),
   midi.NoteOnEvent(tick=32, channel=1, data=[53, 110]),
   midi.NoteOnEvent(tick=0, channel=1, data=[60, 110]),
   midi.NoteOnEvent(tick=0, channel=1, data=[65, 110]),
   midi.NoteOnEvent(tick=574, channel=1, data=[53, 0]),
   midi.NoteOnEvent(tick=0, channel=1, data=[60, 0]),
   midi.NoteOnEvent(tick=0, channel=1, data=[65, 0]),
   midi.NoteOnEvent(tick=2, channel=1, data=[55, 110]),
   midi.NoteOnEvent(tick=0, channel=1, data=[62, 110]),
   midi.NoteOnEvent(tick=0, channel=1, data=[67, 110]),
   midi.NoteOnEvent(tick=256, channel=1, data=[55, 0]),
   midi.NoteOnEvent(tick=0, channel=1, data=[62, 0]),
   midi.NoteOnEvent(tick=0, channel=1, data=[67, 0]),
   midi.NoteOnEvent(tick=32, channel=1, data=[52, 110]),
   midi.NoteOnEvent(tick=94, channel=1, data=[52, 0]),
   midi.NoteOnEvent(tick=2, channel=1, data=[52, 110]),
   midi.NoteOnEvent(tick=46, channel=1, data=[52, 0]),
   midi.NoteOnEvent(tick=2, channel=1, data=[52, 110]),
   midi.NoteOnEvent(tick=46, channel=1, data=[52, 0]),
   midi.NoteOnEvent(tick=2, channel=1, data=[52, 110]),
   midi.NoteOnEvent(tick=94, channel=1, data=[52, 0]),
   midi.NoteOnEvent(tick=2, channel=1, data=[52, 110]),
   midi.NoteOnEvent(tick=94, channel=1, data=[52, 0]),
   midi.NoteOnEvent(tick=2, channel=1, data=[52, 110]),
   midi.NoteOnEvent(tick=94, channel=1, data=[52, 0]),
   midi.NoteOnEvent(tick=2, channel=1, data=[52, 110]),
   midi.NoteOnEvent(tick=94, channel=1, data=[52, 0]),
   midi.NoteOnEvent(tick=2, channel=1, data=[52, 110]),
   midi.NoteOnEvent(tick=94, channel=1, data=[52, 0]),
   midi.NoteOnEvent(tick=2, channel=1, data=[55, 110]),
   midi.NoteOnEvent(tick=0, channel=1, data=[62, 110]),
   midi.NoteOnEvent(tick=0, channel=1, data=[67, 110]),
   midi.NoteOnEvent(tick=574, channel=1, data=[55, 0]),
   midi.NoteOnEvent(tick=0, channel=1, data=[62, 0]),
   midi.NoteOnEvent(tick=0, channel=1, data=[67, 0]),
   midi.NoteOnEvent(tick=2, channel=1, data=[58, 110]),
   midi.NoteOnEvent(tick=0, channel=1, data=[65, 110]),
   midi.NoteOnEvent(tick=0, channel=1, data=[70, 110]),
   midi.NoteOnEvent(tick=160, channel=1, data=[58, 0]),
   midi.NoteOnEvent(tick=0, channel=1, data=[65, 0]),
   midi.NoteOnEvent(tick=0, channel=1, data=[70, 0]),
   midi.NoteOnEvent(tick=32, channel=1, data=[54, 110]),
   midi.NoteOnEvent(tick=0, channel=1, data=[61, 110]),
   midi.NoteOnEvent(tick=0, channel=1, data=[66, 110]),
   midi.NoteOnEvent(tick=574, channel=1, data=[54, 0]),
   midi.NoteOnEvent(tick=0, channel=1, data=[61, 0]),
   midi.NoteOnEvent(tick=0, channel=1, data=[66, 0]),
   midi.NoteOnEvent(tick=2, channel=1, data=[57, 110]),
   midi.NoteOnEvent(tick=0, channel=1, data=[64, 110]),
   midi.NoteOnEvent(tick=0, channel=1, data=[69, 110]),
   midi.NoteOnEvent(tick=160, channel=1, data=[57, 0]),
   midi.NoteOnEvent(tick=0, channel=1, data=[64, 0]),
   midi.NoteOnEvent(tick=0, channel=1, data=[69, 0]),
   midi.NoteOnEvent(tick=32, channel=1, data=[53, 110]),
   midi.NoteOnEvent(tick=0, channel=1, data=[60, 110]),
   midi.NoteOnEvent(tick=0, channel=1, data=[65, 110]),
   midi.NoteOnEvent(tick=574, channel=1, data=[53, 0]),
   midi.NoteOnEvent(tick=0, channel=1, data=[60, 0]),
   midi.NoteOnEvent(tick=0, channel=1, data=[65, 0]),
   midi.NoteOnEvent(tick=2, channel=1, data=[55, 110]),
   midi.NoteOnEvent(tick=0, channel=1, data=[62, 110]),
   midi.NoteOnEvent(tick=0, channel=1, data=[67, 110]),
   midi.NoteOnEvent(tick=256, channel=1, data=[55, 0]),
   midi.NoteOnEvent(tick=0, channel=1, data=[62, 0]),
   midi.NoteOnEvent(tick=0, channel=1, data=[67, 0]),
   midi.NoteOnEvent(tick=32, channel=1, data=[52, 110]),
   midi.NoteOnEvent(tick=94, channel=1, data=[52, 0]),
   midi.NoteOnEvent(tick=2, channel=1, data=[52, 110]),
   midi.NoteOnEvent(tick=46, channel=1, data=[52, 0]),
   midi.NoteOnEvent(tick=2, channel=1, data=[52, 110]),
   midi.NoteOnEvent(tick=46, channel=1, data=[52, 0]),
   midi.NoteOnEvent(tick=2, channel=1, data=[52, 110]),
   midi.NoteOnEvent(tick=94, channel=1, data=[52, 0]),
   midi.NoteOnEvent(tick=2, channel=1, data=[52, 110]),
   midi.NoteOnEvent(tick=94, channel=1, data=[52, 0]),
   midi.NoteOnEvent(tick=2, channel=1, data=[52, 110]),
   midi.NoteOnEvent(tick=94, channel=1, data=[52, 0]),
   midi.NoteOnEvent(tick=2, channel=1, data=[52, 110]),
   midi.NoteOnEvent(tick=94, channel=1, data=[52, 0]),
   midi.NoteOnEvent(tick=2, channel=1, data=[52, 110]),
   midi.NoteOnEvent(tick=94, channel=1, data=[52, 0]),
   midi.NoteOnEvent(tick=2, channel=1, data=[55, 110]),
   midi.NoteOnEvent(tick=0, channel=1, data=[62, 110]),
   midi.NoteOnEvent(tick=0, channel=1, data=[67, 110]),
   midi.NoteOnEvent(tick=574, channel=1, data=[55, 0]),
   midi.NoteOnEvent(tick=0, channel=1, data=[62, 0]),
   midi.NoteOnEvent(tick=0, channel=1, data=[67, 0]),
   midi.NoteOnEvent(tick=2, channel=1, data=[58, 110]),
   midi.NoteOnEvent(tick=0, channel=1, data=[65, 110]),
   midi.NoteOnEvent(tick=0, channel=1, data=[70, 110]),
   midi.NoteOnEvent(tick=160, channel=1, data=[58, 0]),
   midi.NoteOnEvent(tick=0, channel=1, data=[65, 0]),
   midi.NoteOnEvent(tick=0, channel=1, data=[70, 0]),
   midi.NoteOnEvent(tick=32, channel=1, data=[54, 110]),
   midi.NoteOnEvent(tick=0, channel=1, data=[61, 110]),
   midi.NoteOnEvent(tick=0, channel=1, data=[66, 110]),
   midi.NoteOnEvent(tick=574, channel=1, data=[54, 0]),
   midi.NoteOnEvent(tick=0, channel=1, data=[61, 0]),
   midi.NoteOnEvent(tick=0, channel=1, data=[66, 0]),
   midi.NoteOnEvent(tick=2, channel=1, data=[57, 110]),
   midi.NoteOnEvent(tick=0, channel=1, data=[64, 110]),
   midi.NoteOnEvent(tick=0, channel=1, data=[69, 110]),
   midi.NoteOnEvent(tick=160, channel=1, data=[57, 0]),
   midi.NoteOnEvent(tick=0, channel=1, data=[64, 0]),
   midi.NoteOnEvent(tick=0, channel=1, data=[69, 0]),
   midi.NoteOnEvent(tick=32, channel=1, data=[53, 110]),
   midi.NoteOnEvent(tick=0, channel=1, data=[60, 110]),
   midi.NoteOnEvent(tick=0, channel=1, data=[65, 110]),
   midi.NoteOnEvent(tick=574, channel=1, data=[53, 0]),
   midi.NoteOnEvent(tick=0, channel=1, data=[60, 0]),
   midi.NoteOnEvent(tick=0, channel=1, data=[65, 0]),
   midi.NoteOnEvent(tick=2, channel=1, data=[55, 110]),
   midi.NoteOnEvent(tick=0, channel=1, data=[62, 110]),
   midi.NoteOnEvent(tick=0, channel=1, data=[67, 110]),
   midi.NoteOnEvent(tick=256, channel=1, data=[55, 0]),
   midi.NoteOnEvent(tick=0, channel=1, data=[62, 0]),
   midi.NoteOnEvent(tick=0, channel=1, data=[67, 0]),
   midi.NoteOnEvent(tick=32, channel=1, data=[52, 110]),
   midi.NoteOnEvent(tick=94, channel=1, data=[52, 0]),
   midi.NoteOnEvent(tick=2, channel=1, data=[52, 110]),
   midi.NoteOnEvent(tick=46, channel=1, data=[52, 0]),
   midi.NoteOnEvent(tick=2, channel=1, data=[52, 110]),
   midi.NoteOnEvent(tick=46, channel=1, data=[52, 0]),
   midi.NoteOnEvent(tick=2, channel=1, data=[52, 110]),
   midi.NoteOnEvent(tick=94, channel=1, data=[52, 0]),
   midi.NoteOnEvent(tick=2, channel=1, data=[52, 110]),
   midi.NoteOnEvent(tick=94, channel=1, data=[52, 0]),
   midi.NoteOnEvent(tick=2, channel=1, data=[52, 110]),
   midi.NoteOnEvent(tick=94, channel=1, data=[52, 0]),
   midi.NoteOnEvent(tick=2, channel=1, data=[52, 110]),
   midi.NoteOnEvent(tick=94, channel=1, data=[52, 0]),
   midi.NoteOnEvent(tick=2, channel=1, data=[52, 110]),
   midi.NoteOnEvent(tick=94, channel=1, data=[52, 0]),
   midi.NoteOnEvent(tick=2, channel=1, data=[52, 110]),
   midi.NoteOnEvent(tick=94, channel=1, data=[52, 0]),
   midi.NoteOnEvent(tick=290, channel=1, data=[52, 110]),
   midi.NoteOnEvent(tick=94, channel=1, data=[52, 0]),
   midi.NoteOnEvent(tick=2, channel=1, data=[52, 110]),
   midi.NoteOnEvent(tick=46, channel=1, data=[52, 0]),
   midi.NoteOnEvent(tick=2, channel=1, data=[52, 110]),
   midi.NoteOnEvent(tick=46, channel=1, data=[52, 0]),
   midi.NoteOnEvent(tick=2, channel=1, data=[52, 110]),
   midi.NoteOnEvent(tick=94, channel=1, data=[52, 0]),
   midi.NoteOnEvent(tick=2, channel=1, data=[52, 110]),
   midi.NoteOnEvent(tick=94, channel=1, data=[52, 0]),
   midi.NoteOnEvent(tick=2, channel=1, data=[52, 110]),
   midi.NoteOnEvent(tick=94, channel=1, data=[52, 0]),
   midi.NoteOnEvent(tick=2, channel=1, data=[52, 110]),
   midi.NoteOnEvent(tick=94, channel=1, data=[52, 0]),
   midi.NoteOnEvent(tick=2, channel=1, data=[52, 110]),
   midi.NoteOnEvent(tick=46, channel=1, data=[52, 0]),
   midi.NoteOnEvent(tick=2, channel=1, data=[52, 110]),
   midi.NoteOnEvent(tick=46, channel=1, data=[52, 0]),
   midi.NoteOnEvent(tick=2, channel=1, data=[52, 110]),
   midi.NoteOnEvent(tick=46, channel=1, data=[52, 0]),
   midi.NoteOnEvent(tick=2, channel=1, data=[52, 110]),
   midi.NoteOnEvent(tick=46, channel=1, data=[52, 0]),
   midi.NoteOnEvent(tick=2, channel=1, data=[52, 110]),
   midi.NoteOnEvent(tick=94, channel=1, data=[52, 0]),
   midi.NoteOnEvent(tick=2, channel=1, data=[52, 110]),
   midi.NoteOnEvent(tick=46, channel=1, data=[52, 0]),
   midi.NoteOnEvent(tick=2, channel=1, data=[52, 110]),
   midi.NoteOnEvent(tick=46, channel=1, data=[52, 0]),
   midi.NoteOnEvent(tick=2, channel=1, data=[52, 110]),
   midi.NoteOnEvent(tick=94, channel=1, data=[52, 0]),
   midi.NoteOnEvent(tick=2, channel=1, data=[52, 110]),
   midi.NoteOnEvent(tick=94, channel=1, data=[52, 0]),
   midi.NoteOnEvent(tick=2, channel=1, data=[52, 110]),
   midi.NoteOnEvent(tick=94, channel=1, data=[52, 0]),
   midi.NoteOnEvent(tick=2, channel=1, data=[52, 110]),
   midi.NoteOnEvent(tick=94, channel=1, data=[52, 0]),
   midi.NoteOnEvent(tick=2, channel=1, data=[52, 110]),
   midi.NoteOnEvent(tick=46, channel=1, data=[52, 0]),
   midi.NoteOnEvent(tick=2, channel=1, data=[52, 110]),
   midi.NoteOnEvent(tick=46, channel=1, data=[52, 0]),
   midi.NoteOnEvent(tick=2, channel=1, data=[52, 110]),
   midi.NoteOnEvent(tick=46, channel=1, data=[52, 0]),
   midi.NoteOnEvent(tick=2, channel=1, data=[52, 110]),
   midi.NoteOnEvent(tick=46, channel=1, data=[52, 0]),
   midi.NoteOnEvent(tick=2, channel=1, data=[55, 110]),
   midi.NoteOnEvent(tick=94, channel=1, data=[55, 0]),
   midi.NoteOnEvent(tick=2, channel=1, data=[55, 110]),
   midi.NoteOnEvent(tick=46, channel=1, data=[55, 0]),
   midi.NoteOnEvent(tick=2, channel=1, data=[55, 110]),
   midi.NoteOnEvent(tick=46, channel=1, data=[55, 0]),
   midi.NoteOnEvent(tick=2, channel=1, data=[55, 110]),
   midi.NoteOnEvent(tick=94, channel=1, data=[55, 0]),
   midi.NoteOnEvent(tick=2, channel=1, data=[55, 110]),
   midi.NoteOnEvent(tick=94, channel=1, data=[55, 0]),
   midi.NoteOnEvent(tick=2, channel=1, data=[55, 110]),
   midi.NoteOnEvent(tick=94, channel=1, data=[55, 0]),
   midi.NoteOnEvent(tick=2, channel=1, data=[55, 110]),
   midi.NoteOnEvent(tick=94, channel=1, data=[55, 0]),
   midi.NoteOnEvent(tick=2, channel=1, data=[55, 110]),
   midi.NoteOnEvent(tick=46, channel=1, data=[55, 0]),
   midi.NoteOnEvent(tick=2, channel=1, data=[55, 110]),
   midi.NoteOnEvent(tick=46, channel=1, data=[55, 0]),
   midi.NoteOnEvent(tick=2, channel=1, data=[55, 110]),
   midi.NoteOnEvent(tick=46, channel=1, data=[55, 0]),
   midi.NoteOnEvent(tick=2, channel=1, data=[55, 110]),
   midi.NoteOnEvent(tick=46, channel=1, data=[55, 0]),
   midi.NoteOnEvent(tick=2, channel=1, data=[54, 110]),
   midi.NoteOnEvent(tick=94, channel=1, data=[54, 0]),
   midi.NoteOnEvent(tick=2, channel=1, data=[54, 110]),
   midi.NoteOnEvent(tick=46, channel=1, data=[54, 0]),
   midi.NoteOnEvent(tick=2, channel=1, data=[54, 110]),
   midi.NoteOnEvent(tick=46, channel=1, data=[54, 0]),
   midi.NoteOnEvent(tick=2, channel=1, data=[54, 110]),
   midi.NoteOnEvent(tick=94, channel=1, data=[54, 0]),
   midi.NoteOnEvent(tick=2, channel=1, data=[54, 110]),
   midi.NoteOnEvent(tick=94, channel=1, data=[54, 0]),
   midi.NoteOnEvent(tick=2, channel=1, data=[54, 110]),
   midi.NoteOnEvent(tick=94, channel=1, data=[54, 0]),
   midi.NoteOnEvent(tick=2, channel=1, data=[54, 110]),
   midi.NoteOnEvent(tick=94, channel=1, data=[54, 0]),
   midi.NoteOnEvent(tick=2, channel=1, data=[54, 110]),
   midi.NoteOnEvent(tick=46, channel=1, data=[54, 0]),
   midi.NoteOnEvent(tick=2, channel=1, data=[54, 110]),
   midi.NoteOnEvent(tick=46, channel=1, data=[54, 0]),
   midi.NoteOnEvent(tick=2, channel=1, data=[54, 110]),
   midi.NoteOnEvent(tick=46, channel=1, data=[54, 0]),
   midi.NoteOnEvent(tick=2, channel=1, data=[54, 110]),
   midi.NoteOnEvent(tick=46, channel=1, data=[54, 0]),
   midi.NoteOnEvent(tick=2, channel=1, data=[52, 110]),
   midi.NoteOnEvent(tick=94, channel=1, data=[52, 0]),
   midi.NoteOnEvent(tick=2, channel=1, data=[52, 110]),
   midi.NoteOnEvent(tick=46, channel=1, data=[52, 0]),
   midi.NoteOnEvent(tick=2, channel=1, data=[52, 110]),
   midi.NoteOnEvent(tick=46, channel=1, data=[52, 0]),
   midi.NoteOnEvent(tick=2, channel=1, data=[52, 110]),
   midi.NoteOnEvent(tick=94, channel=1, data=[52, 0]),
   midi.NoteOnEvent(tick=2, channel=1, data=[52, 110]),
   midi.NoteOnEvent(tick=94, channel=1, data=[52, 0]),
   midi.NoteOnEvent(tick=2, channel=1, data=[52, 110]),
   midi.NoteOnEvent(tick=94, channel=1, data=[52, 0]),
   midi.NoteOnEvent(tick=2, channel=1, data=[52, 110]),
   midi.NoteOnEvent(tick=94, channel=1, data=[52, 0]),
   midi.NoteOnEvent(tick=2, channel=1, data=[52, 110]),
   midi.NoteOnEvent(tick=46, channel=1, data=[52, 0]),
   midi.NoteOnEvent(tick=2, channel=1, data=[52, 110]),
   midi.NoteOnEvent(tick=46, channel=1, data=[52, 0]),
   midi.NoteOnEvent(tick=2, channel=1, data=[52, 110]),
   midi.NoteOnEvent(tick=46, channel=1, data=[52, 0]),
   midi.NoteOnEvent(tick=2, channel=1, data=[52, 110]),
   midi.NoteOnEvent(tick=46, channel=1, data=[52, 0]),
   midi.NoteOnEvent(tick=2, channel=1, data=[52, 110]),
   midi.NoteOnEvent(tick=94, channel=1, data=[52, 0]),
   midi.NoteOnEvent(tick=2, channel=1, data=[52, 110]),
   midi.NoteOnEvent(tick=46, channel=1, data=[52, 0]),
   midi.NoteOnEvent(tick=2, channel=1, data=[52, 110]),
   midi.NoteOnEvent(tick=46, channel=1, data=[52, 0]),
   midi.NoteOnEvent(tick=2, channel=1, data=[52, 110]),
   midi.NoteOnEvent(tick=94, channel=1, data=[52, 0]),
   midi.NoteOnEvent(tick=2, channel=1, data=[52, 110]),
   midi.NoteOnEvent(tick=94, channel=1, data=[52, 0]),
   midi.NoteOnEvent(tick=2, channel=1, data=[52, 110]),
   midi.NoteOnEvent(tick=94, channel=1, data=[52, 0]),
   midi.NoteOnEvent(tick=2, channel=1, data=[52, 110]),
   midi.NoteOnEvent(tick=94, channel=1, data=[52, 0]),
   midi.NoteOnEvent(tick=2, channel=1, data=[52, 110]),
   midi.NoteOnEvent(tick=46, channel=1, data=[52, 0]),
   midi.NoteOnEvent(tick=2, channel=1, data=[52, 110]),
   midi.NoteOnEvent(tick=46, channel=1, data=[52, 0]),
   midi.NoteOnEvent(tick=2, channel=1, data=[52, 110]),
   midi.NoteOnEvent(tick=46, channel=1, data=[52, 0]),
   midi.NoteOnEvent(tick=2, channel=1, data=[52, 110]),
   midi.NoteOnEvent(tick=46, channel=1, data=[52, 0]),
   midi.NoteOnEvent(tick=2, channel=1, data=[55, 110]),
   midi.NoteOnEvent(tick=94, channel=1, data=[55, 0]),
   midi.NoteOnEvent(tick=2, channel=1, data=[55, 110]),
   midi.NoteOnEvent(tick=46, channel=1, data=[55, 0]),
   midi.NoteOnEvent(tick=2, channel=1, data=[55, 110]),
   midi.NoteOnEvent(tick=46, channel=1, data=[55, 0]),
   midi.NoteOnEvent(tick=2, channel=1, data=[55, 110]),
   midi.NoteOnEvent(tick=94, channel=1, data=[55, 0]),
   midi.NoteOnEvent(tick=2, channel=1, data=[55, 110]),
   midi.NoteOnEvent(tick=94, channel=1, data=[55, 0]),
   midi.NoteOnEvent(tick=2, channel=1, data=[55, 110]),
   midi.NoteOnEvent(tick=94, channel=1, data=[55, 0]),
   midi.NoteOnEvent(tick=2, channel=1, data=[55, 110]),
   midi.NoteOnEvent(tick=94, channel=1, data=[55, 0]),
   midi.NoteOnEvent(tick=2, channel=1, data=[55, 110]),
   midi.NoteOnEvent(tick=46, channel=1, data=[55, 0]),
   midi.NoteOnEvent(tick=2, channel=1, data=[55, 110]),
   midi.NoteOnEvent(tick=46, channel=1, data=[55, 0]),
   midi.NoteOnEvent(tick=2, channel=1, data=[55, 110]),
   midi.NoteOnEvent(tick=46, channel=1, data=[55, 0]),
   midi.NoteOnEvent(tick=2, channel=1, data=[55, 110]),
   midi.NoteOnEvent(tick=46, channel=1, data=[55, 0]),
   midi.NoteOnEvent(tick=2, channel=1, data=[59, 110]),
   midi.NoteOnEvent(tick=94, channel=1, data=[59, 0]),
   midi.NoteOnEvent(tick=2, channel=1, data=[59, 110]),
   midi.NoteOnEvent(tick=46, channel=1, data=[59, 0]),
   midi.NoteOnEvent(tick=2, channel=1, data=[59, 110]),
   midi.NoteOnEvent(tick=46, channel=1, data=[59, 0]),
   midi.NoteOnEvent(tick=2, channel=1, data=[59, 110]),
   midi.NoteOnEvent(tick=94, channel=1, data=[59, 0]),
   midi.NoteOnEvent(tick=2, channel=1, data=[59, 110]),
   midi.NoteOnEvent(tick=94, channel=1, data=[59, 0]),
   midi.NoteOnEvent(tick=2, channel=1, data=[59, 110]),
   midi.NoteOnEvent(tick=94, channel=1, data=[59, 0]),
   midi.NoteOnEvent(tick=2, channel=1, data=[59, 110]),
   midi.NoteOnEvent(tick=94, channel=1, data=[59, 0]),
   midi.NoteOnEvent(tick=2, channel=1, data=[59, 110]),
   midi.NoteOnEvent(tick=46, channel=1, data=[59, 0]),
   midi.NoteOnEvent(tick=2, channel=1, data=[59, 110]),
   midi.NoteOnEvent(tick=46, channel=1, data=[59, 0]),
   midi.NoteOnEvent(tick=2, channel=1, data=[59, 110]),
   midi.NoteOnEvent(tick=46, channel=1, data=[59, 0]),
   midi.NoteOnEvent(tick=2, channel=1, data=[59, 110]),
   midi.NoteOnEvent(tick=46, channel=1, data=[59, 0]),
   midi.NoteOnEvent(tick=2, channel=1, data=[52, 110]),
   midi.NoteOnEvent(tick=94, channel=1, data=[52, 0]),
   midi.NoteOnEvent(tick=2, channel=1, data=[52, 110]),
   midi.NoteOnEvent(tick=46, channel=1, data=[52, 0]),
   midi.NoteOnEvent(tick=2, channel=1, data=[52, 110]),
   midi.NoteOnEvent(tick=46, channel=1, data=[52, 0]),
   midi.NoteOnEvent(tick=2, channel=1, data=[52, 110]),
   midi.NoteOnEvent(tick=94, channel=1, data=[52, 0]),
   midi.NoteOnEvent(tick=2, channel=1, data=[52, 110]),
   midi.NoteOnEvent(tick=94, channel=1, data=[52, 0]),
   midi.NoteOnEvent(tick=2, channel=1, data=[52, 110]),
   midi.NoteOnEvent(tick=94, channel=1, data=[52, 0]),
   midi.NoteOnEvent(tick=2, channel=1, data=[52, 110]),
   midi.NoteOnEvent(tick=94, channel=1, data=[52, 0]),
   midi.NoteOnEvent(tick=2, channel=1, data=[52, 110]),
   midi.NoteOnEvent(tick=46, channel=1, data=[52, 0]),
   midi.NoteOnEvent(tick=2, channel=1, data=[52, 110]),
   midi.NoteOnEvent(tick=46, channel=1, data=[52, 0]),
   midi.NoteOnEvent(tick=2, channel=1, data=[52, 110]),
   midi.NoteOnEvent(tick=46, channel=1, data=[52, 0]),
   midi.NoteOnEvent(tick=2, channel=1, data=[52, 110]),
   midi.NoteOnEvent(tick=46, channel=1, data=[52, 0]),
   midi.NoteOnEvent(tick=2, channel=1, data=[52, 110]),
   midi.NoteOnEvent(tick=94, channel=1, data=[52, 0]),
   midi.NoteOnEvent(tick=2, channel=1, data=[52, 110]),
   midi.NoteOnEvent(tick=46, channel=1, data=[52, 0]),
   midi.NoteOnEvent(tick=2, channel=1, data=[52, 110]),
   midi.NoteOnEvent(tick=46, channel=1, data=[52, 0]),
   midi.NoteOnEvent(tick=2, channel=1, data=[52, 110]),
   midi.NoteOnEvent(tick=94, channel=1, data=[52, 0]),
   midi.NoteOnEvent(tick=2, channel=1, data=[52, 110]),
   midi.NoteOnEvent(tick=94, channel=1, data=[52, 0]),
   midi.NoteOnEvent(tick=2, channel=1, data=[52, 110]),
   midi.NoteOnEvent(tick=94, channel=1, data=[52, 0]),
   midi.NoteOnEvent(tick=2, channel=1, data=[52, 110]),
   midi.NoteOnEvent(tick=94, channel=1, data=[52, 0]),
   midi.NoteOnEvent(tick=2, channel=1, data=[52, 110]),
   midi.NoteOnEvent(tick=46, channel=1, data=[52, 0]),
   midi.NoteOnEvent(tick=2, channel=1, data=[52, 110]),
   midi.NoteOnEvent(tick=46, channel=1, data=[52, 0]),
   midi.NoteOnEvent(tick=2, channel=1, data=[52, 110]),
   midi.NoteOnEvent(tick=46, channel=1, data=[52, 0]),
   midi.NoteOnEvent(tick=2, channel=1, data=[52, 110]),
   midi.NoteOnEvent(tick=46, channel=1, data=[52, 0]),
   midi.NoteOnEvent(tick=2, channel=1, data=[55, 110]),
   midi.NoteOnEvent(tick=94, channel=1, data=[55, 0]),
   midi.NoteOnEvent(tick=2, channel=1, data=[55, 110]),
   midi.NoteOnEvent(tick=46, channel=1, data=[55, 0]),
   midi.NoteOnEvent(tick=2, channel=1, data=[55, 110]),
   midi.NoteOnEvent(tick=46, channel=1, data=[55, 0]),
   midi.NoteOnEvent(tick=2, channel=1, data=[55, 110]),
   midi.NoteOnEvent(tick=94, channel=1, data=[55, 0]),
   midi.NoteOnEvent(tick=2, channel=1, data=[55, 110]),
   midi.NoteOnEvent(tick=94, channel=1, data=[55, 0]),
   midi.NoteOnEvent(tick=2, channel=1, data=[55, 110]),
   midi.NoteOnEvent(tick=94, channel=1, data=[55, 0]),
   midi.NoteOnEvent(tick=2, channel=1, data=[55, 110]),
   midi.NoteOnEvent(tick=94, channel=1, data=[55, 0]),
   midi.NoteOnEvent(tick=2, channel=1, data=[55, 110]),
   midi.NoteOnEvent(tick=46, channel=1, data=[55, 0]),
   midi.NoteOnEvent(tick=2, channel=1, data=[55, 110]),
   midi.NoteOnEvent(tick=46, channel=1, data=[55, 0]),
   midi.NoteOnEvent(tick=2, channel=1, data=[55, 110]),
   midi.NoteOnEvent(tick=46, channel=1, data=[55, 0]),
   midi.NoteOnEvent(tick=2, channel=1, data=[55, 110]),
   midi.NoteOnEvent(tick=46, channel=1, data=[55, 0]),
   midi.NoteOnEvent(tick=2, channel=1, data=[54, 110]),
   midi.NoteOnEvent(tick=94, channel=1, data=[54, 0]),
   midi.NoteOnEvent(tick=2, channel=1, data=[54, 110]),
   midi.NoteOnEvent(tick=46, channel=1, data=[54, 0]),
   midi.NoteOnEvent(tick=2, channel=1, data=[54, 110]),
   midi.NoteOnEvent(tick=46, channel=1, data=[54, 0]),
   midi.NoteOnEvent(tick=2, channel=1, data=[54, 110]),
   midi.NoteOnEvent(tick=94, channel=1, data=[54, 0]),
   midi.NoteOnEvent(tick=2, channel=1, data=[54, 110]),
   midi.NoteOnEvent(tick=94, channel=1, data=[54, 0]),
   midi.NoteOnEvent(tick=2, channel=1, data=[54, 110]),
   midi.NoteOnEvent(tick=94, channel=1, data=[54, 0]),
   midi.NoteOnEvent(tick=2, channel=1, data=[54, 110]),
   midi.NoteOnEvent(tick=94, channel=1, data=[54, 0]),
   midi.NoteOnEvent(tick=2, channel=1, data=[54, 110]),
   midi.NoteOnEvent(tick=46, channel=1, data=[54, 0]),
   midi.NoteOnEvent(tick=2, channel=1, data=[54, 110]),
   midi.NoteOnEvent(tick=46, channel=1, data=[54, 0]),
   midi.NoteOnEvent(tick=2, channel=1, data=[54, 110]),
   midi.NoteOnEvent(tick=46, channel=1, data=[54, 0]),
   midi.NoteOnEvent(tick=2, channel=1, data=[54, 110]),
   midi.NoteOnEvent(tick=46, channel=1, data=[54, 0]),
   midi.NoteOnEvent(tick=2, channel=1, data=[52, 110]),
   midi.NoteOnEvent(tick=94, channel=1, data=[52, 0]),
   midi.NoteOnEvent(tick=2, channel=1, data=[52, 110]),
   midi.NoteOnEvent(tick=46, channel=1, data=[52, 0]),
   midi.NoteOnEvent(tick=2, channel=1, data=[52, 110]),
   midi.NoteOnEvent(tick=46, channel=1, data=[52, 0]),
   midi.NoteOnEvent(tick=2, channel=1, data=[52, 110]),
   midi.NoteOnEvent(tick=94, channel=1, data=[52, 0]),
   midi.NoteOnEvent(tick=2, channel=1, data=[52, 110]),
   midi.NoteOnEvent(tick=94, channel=1, data=[52, 0]),
   midi.NoteOnEvent(tick=2, channel=1, data=[52, 110]),
   midi.NoteOnEvent(tick=94, channel=1, data=[52, 0]),
   midi.NoteOnEvent(tick=2, channel=1, data=[52, 110]),
   midi.NoteOnEvent(tick=94, channel=1, data=[52, 0]),
   midi.NoteOnEvent(tick=2, channel=1, data=[52, 110]),
   midi.NoteOnEvent(tick=46, channel=1, data=[52, 0]),
   midi.NoteOnEvent(tick=2, channel=1, data=[52, 110]),
   midi.NoteOnEvent(tick=46, channel=1, data=[52, 0]),
   midi.NoteOnEvent(tick=2, channel=1, data=[52, 110]),
   midi.NoteOnEvent(tick=46, channel=1, data=[52, 0]),
   midi.NoteOnEvent(tick=2, channel=1, data=[52, 110]),
   midi.NoteOnEvent(tick=46, channel=1, data=[52, 0]),
   midi.NoteOnEvent(tick=2, channel=1, data=[52, 110]),
   midi.NoteOnEvent(tick=94, channel=1, data=[52, 0]),
   midi.NoteOnEvent(tick=2, channel=1, data=[52, 110]),
   midi.NoteOnEvent(tick=46, channel=1, data=[52, 0]),
   midi.NoteOnEvent(tick=2, channel=1, data=[52, 110]),
   midi.NoteOnEvent(tick=46, channel=1, data=[52, 0]),
   midi.NoteOnEvent(tick=2, channel=1, data=[52, 110]),
   midi.NoteOnEvent(tick=94, channel=1, data=[52, 0]),
   midi.NoteOnEvent(tick=2, channel=1, data=[52, 110]),
   midi.NoteOnEvent(tick=94, channel=1, data=[52, 0]),
   midi.NoteOnEvent(tick=2, channel=1, data=[52, 110]),
   midi.NoteOnEvent(tick=94, channel=1, data=[52, 0]),
   midi.NoteOnEvent(tick=2, channel=1, data=[52, 110]),
   midi.NoteOnEvent(tick=94, channel=1, data=[52, 0]),
   midi.NoteOnEvent(tick=2, channel=1, data=[52, 110]),
   midi.NoteOnEvent(tick=46, channel=1, data=[52, 0]),
   midi.NoteOnEvent(tick=2, channel=1, data=[52, 110]),
   midi.NoteOnEvent(tick=46, channel=1, data=[52, 0]),
   midi.NoteOnEvent(tick=2, channel=1, data=[52, 110]),
   midi.NoteOnEvent(tick=46, channel=1, data=[52, 0]),
   midi.NoteOnEvent(tick=2, channel=1, data=[52, 110]),
   midi.NoteOnEvent(tick=46, channel=1, data=[52, 0]),
   midi.NoteOnEvent(tick=2, channel=1, data=[55, 110]),
   midi.NoteOnEvent(tick=94, channel=1, data=[55, 0]),
   midi.NoteOnEvent(tick=2, channel=1, data=[55, 110]),
   midi.NoteOnEvent(tick=46, channel=1, data=[55, 0]),
   midi.NoteOnEvent(tick=2, channel=1, data=[55, 110]),
   midi.NoteOnEvent(tick=46, channel=1, data=[55, 0]),
   midi.NoteOnEvent(tick=2, channel=1, data=[55, 110]),
   midi.NoteOnEvent(tick=94, channel=1, data=[55, 0]),
   midi.NoteOnEvent(tick=2, channel=1, data=[55, 110]),
   midi.NoteOnEvent(tick=94, channel=1, data=[55, 0]),
   midi.NoteOnEvent(tick=2, channel=1, data=[55, 110]),
   midi.NoteOnEvent(tick=94, channel=1, data=[55, 0]),
   midi.NoteOnEvent(tick=2, channel=1, data=[55, 110]),
   midi.NoteOnEvent(tick=94, channel=1, data=[55, 0]),
   midi.NoteOnEvent(tick=2, channel=1, data=[55, 110]),
   midi.NoteOnEvent(tick=46, channel=1, data=[55, 0]),
   midi.NoteOnEvent(tick=2, channel=1, data=[55, 110]),
   midi.NoteOnEvent(tick=46, channel=1, data=[55, 0]),
   midi.NoteOnEvent(tick=2, channel=1, data=[55, 110]),
   midi.NoteOnEvent(tick=46, channel=1, data=[55, 0]),
   midi.NoteOnEvent(tick=2, channel=1, data=[55, 110]),
   midi.NoteOnEvent(tick=46, channel=1, data=[55, 0]),
   midi.NoteOnEvent(tick=2, channel=1, data=[59, 110]),
   midi.NoteOnEvent(tick=94, channel=1, data=[59, 0]),
   midi.NoteOnEvent(tick=2, channel=1, data=[59, 110]),
   midi.NoteOnEvent(tick=46, channel=1, data=[59, 0]),
   midi.NoteOnEvent(tick=2, channel=1, data=[59, 110]),
   midi.NoteOnEvent(tick=46, channel=1, data=[59, 0]),
   midi.NoteOnEvent(tick=2, channel=1, data=[59, 110]),
   midi.NoteOnEvent(tick=94, channel=1, data=[59, 0]),
   midi.NoteOnEvent(tick=2, channel=1, data=[59, 110]),
   midi.NoteOnEvent(tick=94, channel=1, data=[59, 0]),
   midi.NoteOnEvent(tick=2, channel=1, data=[59, 110]),
   midi.NoteOnEvent(tick=94, channel=1, data=[59, 0]),
   midi.NoteOnEvent(tick=2, channel=1, data=[59, 110]),
   midi.NoteOnEvent(tick=94, channel=1, data=[59, 0]),
   midi.NoteOnEvent(tick=2, channel=1, data=[59, 110]),
   midi.NoteOnEvent(tick=46, channel=1, data=[59, 0]),
   midi.NoteOnEvent(tick=2, channel=1, data=[59, 110]),
   midi.NoteOnEvent(tick=46, channel=1, data=[59, 0]),
   midi.NoteOnEvent(tick=2, channel=1, data=[59, 110]),
   midi.NoteOnEvent(tick=46, channel=1, data=[59, 0]),
   midi.NoteOnEvent(tick=2, channel=1, data=[59, 110]),
   midi.NoteOnEvent(tick=46, channel=1, data=[59, 0]),
   midi.NoteOnEvent(tick=2, channel=1, data=[61, 110]),
   midi.NoteOnEvent(tick=0, channel=1, data=[68, 110]),
   midi.NoteOnEvent(tick=94, channel=1, data=[61, 0]),
   midi.NoteOnEvent(tick=0, channel=1, data=[68, 0]),
   midi.NoteOnEvent(tick=2, channel=1, data=[61, 110]),
   midi.NoteOnEvent(tick=46, channel=1, data=[61, 0]),
   midi.NoteOnEvent(tick=2, channel=1, data=[61, 110]),
   midi.NoteOnEvent(tick=46, channel=1, data=[61, 0]),
   midi.NoteOnEvent(tick=2, channel=1, data=[61, 110]),
   midi.NoteOnEvent(tick=46, channel=1, data=[61, 0]),
   midi.NoteOnEvent(tick=2, channel=1, data=[61, 110]),
   midi.NoteOnEvent(tick=46, channel=1, data=[61, 0]),
   midi.NoteOnEvent(tick=2, channel=1, data=[61, 110]),
   midi.NoteOnEvent(tick=46, channel=1, data=[61, 0]),
   midi.NoteOnEvent(tick=2, channel=1, data=[61, 110]),
   midi.NoteOnEvent(tick=46, channel=1, data=[61, 0]),
   midi.NoteOnEvent(tick=2, channel=1, data=[61, 110]),
   midi.NoteOnEvent(tick=94, channel=1, data=[61, 0]),
   midi.NoteOnEvent(tick=2, channel=1, data=[61, 110]),
   midi.NoteOnEvent(tick=46, channel=1, data=[61, 0]),
   midi.NoteOnEvent(tick=2, channel=1, data=[61, 110]),
   midi.NoteOnEvent(tick=46, channel=1, data=[61, 0]),
   midi.NoteOnEvent(tick=2, channel=1, data=[61, 110]),
   midi.NoteOnEvent(tick=46, channel=1, data=[61, 0]),
   midi.NoteOnEvent(tick=2, channel=1, data=[61, 110]),
   midi.NoteOnEvent(tick=46, channel=1, data=[61, 0]),
   midi.NoteOnEvent(tick=2, channel=1, data=[61, 110]),
   midi.NoteOnEvent(tick=46, channel=1, data=[61, 0]),
   midi.NoteOnEvent(tick=2, channel=1, data=[61, 110]),
   midi.NoteOnEvent(tick=46, channel=1, data=[61, 0]),
   midi.NoteOnEvent(tick=2, channel=1, data=[61, 110]),
   midi.NoteOnEvent(tick=0, channel=1, data=[68, 110]),
   midi.NoteOnEvent(tick=94, channel=1, data=[61, 0]),
   midi.NoteOnEvent(tick=0, channel=1, data=[68, 0]),
   midi.NoteOnEvent(tick=2, channel=1, data=[61, 110]),
   midi.NoteOnEvent(tick=46, channel=1, data=[61, 0]),
   midi.NoteOnEvent(tick=2, channel=1, data=[61, 110]),
   midi.NoteOnEvent(tick=46, channel=1, data=[61, 0]),
   midi.NoteOnEvent(tick=2, channel=1, data=[61, 110]),
   midi.NoteOnEvent(tick=46, channel=1, data=[61, 0]),
   midi.NoteOnEvent(tick=2, channel=1, data=[61, 110]),
   midi.NoteOnEvent(tick=46, channel=1, data=[61, 0]),
   midi.NoteOnEvent(tick=2, channel=1, data=[61, 110]),
   midi.NoteOnEvent(tick=46, channel=1, data=[61, 0]),
   midi.NoteOnEvent(tick=2, channel=1, data=[61, 110]),
   midi.NoteOnEvent(tick=46, channel=1, data=[61, 0]),
   midi.NoteOnEvent(tick=2, channel=1, data=[61, 110]),
   midi.NoteOnEvent(tick=94, channel=1, data=[61, 0]),
   midi.NoteOnEvent(tick=2, channel=1, data=[61, 110]),
   midi.NoteOnEvent(tick=46, channel=1, data=[61, 0]),
   midi.NoteOnEvent(tick=2, channel=1, data=[61, 110]),
   midi.NoteOnEvent(tick=46, channel=1, data=[61, 0]),
   midi.NoteOnEvent(tick=2, channel=1, data=[61, 110]),
   midi.NoteOnEvent(tick=46, channel=1, data=[61, 0]),
   midi.NoteOnEvent(tick=2, channel=1, data=[61, 110]),
   midi.NoteOnEvent(tick=46, channel=1, data=[61, 0]),
   midi.NoteOnEvent(tick=2, channel=1, data=[61, 110]),
   midi.NoteOnEvent(tick=46, channel=1, data=[61, 0]),
   midi.NoteOnEvent(tick=2, channel=1, data=[61, 110]),
   midi.NoteOnEvent(tick=46, channel=1, data=[61, 0]),
   midi.NoteOnEvent(tick=2, channel=1, data=[61, 110]),
   midi.NoteOnEvent(tick=0, channel=1, data=[68, 110]),
   midi.NoteOnEvent(tick=94, channel=1, data=[61, 0]),
   midi.NoteOnEvent(tick=0, channel=1, data=[68, 0]),
   midi.NoteOnEvent(tick=2, channel=1, data=[61, 110]),
   midi.NoteOnEvent(tick=46, channel=1, data=[61, 0]),
   midi.NoteOnEvent(tick=2, channel=1, data=[61, 110]),
   midi.NoteOnEvent(tick=46, channel=1, data=[61, 0]),
   midi.NoteOnEvent(tick=2, channel=1, data=[61, 110]),
   midi.NoteOnEvent(tick=46, channel=1, data=[61, 0]),
   midi.NoteOnEvent(tick=2, channel=1, data=[61, 110]),
   midi.NoteOnEvent(tick=46, channel=1, data=[61, 0]),
   midi.NoteOnEvent(tick=2, channel=1, data=[61, 110]),
   midi.NoteOnEvent(tick=46, channel=1, data=[61, 0]),
   midi.NoteOnEvent(tick=2, channel=1, data=[61, 110]),
   midi.NoteOnEvent(tick=46, channel=1, data=[61, 0]),
   midi.NoteOnEvent(tick=2, channel=1, data=[61, 110]),
   midi.NoteOnEvent(tick=94, channel=1, data=[61, 0]),
   midi.NoteOnEvent(tick=2, channel=1, data=[61, 110]),
   midi.NoteOnEvent(tick=46, channel=1, data=[61, 0]),
   midi.NoteOnEvent(tick=2, channel=1, data=[61, 110]),
   midi.NoteOnEvent(tick=46, channel=1, data=[61, 0]),
   midi.NoteOnEvent(tick=2, channel=1, data=[59, 110]),
   midi.NoteOnEvent(tick=0, channel=1, data=[66, 110]),
   midi.NoteOnEvent(tick=94, channel=1, data=[59, 0]),
   midi.NoteOnEvent(tick=0, channel=1, data=[66, 0]),
   midi.NoteOnEvent(tick=2, channel=1, data=[59, 110]),
   midi.NoteOnEvent(tick=46, channel=1, data=[59, 0]),
   midi.NoteOnEvent(tick=2, channel=1, data=[59, 110]),
   midi.NoteOnEvent(tick=46, channel=1, data=[59, 0]),
   midi.NoteOnEvent(tick=2, channel=1, data=[59, 110]),
   midi.NoteOnEvent(tick=46, channel=1, data=[59, 0]),
   midi.NoteOnEvent(tick=2, channel=1, data=[59, 110]),
   midi.NoteOnEvent(tick=46, channel=1, data=[59, 0]),
   midi.NoteOnEvent(tick=2, channel=1, data=[59, 110]),
   midi.NoteOnEvent(tick=46, channel=1, data=[59, 0]),
   midi.NoteOnEvent(tick=2, channel=1, data=[59, 110]),
   midi.NoteOnEvent(tick=46, channel=1, data=[59, 0]),
   midi.NoteOnEvent(tick=2, channel=1, data=[59, 110]),
   midi.NoteOnEvent(tick=94, channel=1, data=[59, 0]),
   midi.NoteOnEvent(tick=2, channel=1, data=[59, 110]),
   midi.NoteOnEvent(tick=46, channel=1, data=[59, 0]),
   midi.NoteOnEvent(tick=2, channel=1, data=[59, 110]),
   midi.NoteOnEvent(tick=46, channel=1, data=[59, 0]),
   midi.NoteOnEvent(tick=2, channel=1, data=[61, 110]),
   midi.NoteOnEvent(tick=0, channel=1, data=[68, 110]),
   midi.NoteOnEvent(tick=94, channel=1, data=[61, 0]),
   midi.NoteOnEvent(tick=0, channel=1, data=[68, 0]),
   midi.NoteOnEvent(tick=2, channel=1, data=[61, 110]),
   midi.NoteOnEvent(tick=46, channel=1, data=[61, 0]),
   midi.NoteOnEvent(tick=2, channel=1, data=[61, 110]),
   midi.NoteOnEvent(tick=46, channel=1, data=[61, 0]),
   midi.NoteOnEvent(tick=2, channel=1, data=[61, 110]),
   midi.NoteOnEvent(tick=46, channel=1, data=[61, 0]),
   midi.NoteOnEvent(tick=2, channel=1, data=[61, 110]),
   midi.NoteOnEvent(tick=46, channel=1, data=[61, 0]),
   midi.NoteOnEvent(tick=2, channel=1, data=[61, 110]),
   midi.NoteOnEvent(tick=46, channel=1, data=[61, 0]),
   midi.NoteOnEvent(tick=2, channel=1, data=[61, 110]),
   midi.NoteOnEvent(tick=46, channel=1, data=[61, 0]),
   midi.NoteOnEvent(tick=2, channel=1, data=[61, 110]),
   midi.NoteOnEvent(tick=94, channel=1, data=[61, 0]),
   midi.NoteOnEvent(tick=2, channel=1, data=[61, 110]),
   midi.NoteOnEvent(tick=46, channel=1, data=[61, 0]),
   midi.NoteOnEvent(tick=2, channel=1, data=[61, 110]),
   midi.NoteOnEvent(tick=46, channel=1, data=[61, 0]),
   midi.NoteOnEvent(tick=2, channel=1, data=[61, 110]),
   midi.NoteOnEvent(tick=46, channel=1, data=[61, 0]),
   midi.NoteOnEvent(tick=2, channel=1, data=[61, 110]),
   midi.NoteOnEvent(tick=46, channel=1, data=[61, 0]),
   midi.NoteOnEvent(tick=2, channel=1, data=[61, 110]),
   midi.NoteOnEvent(tick=46, channel=1, data=[61, 0]),
   midi.NoteOnEvent(tick=2, channel=1, data=[61, 110]),
   midi.NoteOnEvent(tick=46, channel=1, data=[61, 0]),
   midi.NoteOnEvent(tick=2, channel=1, data=[61, 110]),
   midi.NoteOnEvent(tick=0, channel=1, data=[68, 110]),
   midi.NoteOnEvent(tick=94, channel=1, data=[61, 0]),
   midi.NoteOnEvent(tick=0, channel=1, data=[68, 0]),
   midi.NoteOnEvent(tick=2, channel=1, data=[61, 110]),
   midi.NoteOnEvent(tick=46, channel=1, data=[61, 0]),
   midi.NoteOnEvent(tick=2, channel=1, data=[61, 110]),
   midi.NoteOnEvent(tick=46, channel=1, data=[61, 0]),
   midi.NoteOnEvent(tick=2, channel=1, data=[61, 110]),
   midi.NoteOnEvent(tick=46, channel=1, data=[61, 0]),
   midi.NoteOnEvent(tick=2, channel=1, data=[61, 110]),
   midi.NoteOnEvent(tick=46, channel=1, data=[61, 0]),
   midi.NoteOnEvent(tick=2, channel=1, data=[61, 110]),
   midi.NoteOnEvent(tick=46, channel=1, data=[61, 0]),
   midi.NoteOnEvent(tick=2, channel=1, data=[61, 110]),
   midi.NoteOnEvent(tick=46, channel=1, data=[61, 0]),
   midi.NoteOnEvent(tick=2, channel=1, data=[61, 110]),
   midi.NoteOnEvent(tick=94, channel=1, data=[61, 0]),
   midi.NoteOnEvent(tick=2, channel=1, data=[61, 110]),
   midi.NoteOnEvent(tick=46, channel=1, data=[61, 0]),
   midi.NoteOnEvent(tick=2, channel=1, data=[61, 110]),
   midi.NoteOnEvent(tick=46, channel=1, data=[61, 0]),
   midi.NoteOnEvent(tick=2, channel=1, data=[61, 110]),
   midi.NoteOnEvent(tick=46, channel=1, data=[61, 0]),
   midi.NoteOnEvent(tick=2, channel=1, data=[61, 110]),
   midi.NoteOnEvent(tick=46, channel=1, data=[61, 0]),
   midi.NoteOnEvent(tick=2, channel=1, data=[61, 110]),
   midi.NoteOnEvent(tick=46, channel=1, data=[61, 0]),
   midi.NoteOnEvent(tick=2, channel=1, data=[61, 110]),
   midi.NoteOnEvent(tick=46, channel=1, data=[61, 0]),
   midi.NoteOnEvent(tick=2, channel=1, data=[61, 110]),
   midi.NoteOnEvent(tick=0, channel=1, data=[68, 110]),
   midi.NoteOnEvent(tick=94, channel=1, data=[61, 0]),
   midi.NoteOnEvent(tick=0, channel=1, data=[68, 0]),
   midi.NoteOnEvent(tick=2, channel=1, data=[61, 110]),
   midi.NoteOnEvent(tick=46, channel=1, data=[61, 0]),
   midi.NoteOnEvent(tick=2, channel=1, data=[61, 110]),
   midi.NoteOnEvent(tick=46, channel=1, data=[61, 0]),
   midi.NoteOnEvent(tick=2, channel=1, data=[61, 110]),
   midi.NoteOnEvent(tick=46, channel=1, data=[61, 0]),
   midi.NoteOnEvent(tick=2, channel=1, data=[61, 110]),
   midi.NoteOnEvent(tick=46, channel=1, data=[61, 0]),
   midi.NoteOnEvent(tick=2, channel=1, data=[61, 110]),
   midi.NoteOnEvent(tick=46, channel=1, data=[61, 0]),
   midi.NoteOnEvent(tick=2, channel=1, data=[61, 110]),
   midi.NoteOnEvent(tick=46, channel=1, data=[61, 0]),
   midi.NoteOnEvent(tick=2, channel=1, data=[61, 110]),
   midi.NoteOnEvent(tick=94, channel=1, data=[61, 0]),
   midi.NoteOnEvent(tick=2, channel=1, data=[61, 110]),
   midi.NoteOnEvent(tick=46, channel=1, data=[61, 0]),
   midi.NoteOnEvent(tick=2, channel=1, data=[61, 110]),
   midi.NoteOnEvent(tick=46, channel=1, data=[61, 0]),
   midi.NoteOnEvent(tick=2, channel=1, data=[59, 110]),
   midi.NoteOnEvent(tick=0, channel=1, data=[66, 110]),
   midi.NoteOnEvent(tick=94, channel=1, data=[59, 0]),
   midi.NoteOnEvent(tick=0, channel=1, data=[66, 0]),
   midi.NoteOnEvent(tick=2, channel=1, data=[59, 110]),
   midi.NoteOnEvent(tick=46, channel=1, data=[59, 0]),
   midi.NoteOnEvent(tick=2, channel=1, data=[59, 110]),
   midi.NoteOnEvent(tick=46, channel=1, data=[59, 0]),
   midi.NoteOnEvent(tick=2, channel=1, data=[59, 110]),
   midi.NoteOnEvent(tick=46, channel=1, data=[59, 0]),
   midi.NoteOnEvent(tick=2, channel=1, data=[59, 110]),
   midi.NoteOnEvent(tick=46, channel=1, data=[59, 0]),
   midi.NoteOnEvent(tick=2, channel=1, data=[59, 110]),
   midi.NoteOnEvent(tick=46, channel=1, data=[59, 0]),
   midi.NoteOnEvent(tick=2, channel=1, data=[59, 110]),
   midi.NoteOnEvent(tick=46, channel=1, data=[59, 0]),
   midi.NoteOnEvent(tick=2, channel=1, data=[59, 110]),
   midi.NoteOnEvent(tick=94, channel=1, data=[59, 0]),
   midi.NoteOnEvent(tick=2, channel=1, data=[59, 110]),
   midi.NoteOnEvent(tick=46, channel=1, data=[59, 0]),
   midi.NoteOnEvent(tick=2, channel=1, data=[59, 110]),
   midi.NoteOnEvent(tick=46, channel=1, data=[59, 0]),
   midi.NoteOnEvent(tick=2, channel=1, data=[61, 110]),
   midi.NoteOnEvent(tick=0, channel=1, data=[68, 110]),
   midi.NoteOnEvent(tick=94, channel=1, data=[61, 0]),
   midi.NoteOnEvent(tick=0, channel=1, data=[68, 0]),
   midi.NoteOnEvent(tick=2, channel=1, data=[61, 110]),
   midi.NoteOnEvent(tick=46, channel=1, data=[61, 0]),
   midi.NoteOnEvent(tick=2, channel=1, data=[61, 110]),
   midi.NoteOnEvent(tick=46, channel=1, data=[61, 0]),
   midi.NoteOnEvent(tick=2, channel=1, data=[61, 110]),
   midi.NoteOnEvent(tick=46, channel=1, data=[61, 0]),
   midi.NoteOnEvent(tick=2, channel=1, data=[61, 110]),
   midi.NoteOnEvent(tick=46, channel=1, data=[61, 0]),
   midi.NoteOnEvent(tick=2, channel=1, data=[61, 110]),
   midi.NoteOnEvent(tick=46, channel=1, data=[61, 0]),
   midi.NoteOnEvent(tick=2, channel=1, data=[61, 110]),
   midi.NoteOnEvent(tick=46, channel=1, data=[61, 0]),
   midi.NoteOnEvent(tick=2, channel=1, data=[61, 110]),
   midi.NoteOnEvent(tick=94, channel=1, data=[61, 0]),
   midi.NoteOnEvent(tick=2, channel=1, data=[61, 110]),
   midi.NoteOnEvent(tick=46, channel=1, data=[61, 0]),
   midi.NoteOnEvent(tick=2, channel=1, data=[61, 110]),
   midi.NoteOnEvent(tick=46, channel=1, data=[61, 0]),
   midi.NoteOnEvent(tick=2, channel=1, data=[61, 110]),
   midi.NoteOnEvent(tick=46, channel=1, data=[61, 0]),
   midi.NoteOnEvent(tick=2, channel=1, data=[61, 110]),
   midi.NoteOnEvent(tick=46, channel=1, data=[61, 0]),
   midi.NoteOnEvent(tick=2, channel=1, data=[61, 110]),
   midi.NoteOnEvent(tick=46, channel=1, data=[61, 0]),
   midi.NoteOnEvent(tick=2, channel=1, data=[61, 110]),
   midi.NoteOnEvent(tick=46, channel=1, data=[61, 0]),
   midi.NoteOnEvent(tick=2, channel=1, data=[61, 110]),
   midi.NoteOnEvent(tick=0, channel=1, data=[68, 110]),
   midi.NoteOnEvent(tick=94, channel=1, data=[61, 0]),
   midi.NoteOnEvent(tick=0, channel=1, data=[68, 0]),
   midi.NoteOnEvent(tick=2, channel=1, data=[61, 110]),
   midi.NoteOnEvent(tick=46, channel=1, data=[61, 0]),
   midi.NoteOnEvent(tick=2, channel=1, data=[61, 110]),
   midi.NoteOnEvent(tick=46, channel=1, data=[61, 0]),
   midi.NoteOnEvent(tick=2, channel=1, data=[61, 110]),
   midi.NoteOnEvent(tick=46, channel=1, data=[61, 0]),
   midi.NoteOnEvent(tick=2, channel=1, data=[61, 110]),
   midi.NoteOnEvent(tick=46, channel=1, data=[61, 0]),
   midi.NoteOnEvent(tick=2, channel=1, data=[61, 110]),
   midi.NoteOnEvent(tick=46, channel=1, data=[61, 0]),
   midi.NoteOnEvent(tick=2, channel=1, data=[61, 110]),
   midi.NoteOnEvent(tick=46, channel=1, data=[61, 0]),
   midi.NoteOnEvent(tick=2, channel=1, data=[61, 110]),
   midi.NoteOnEvent(tick=94, channel=1, data=[61, 0]),
   midi.NoteOnEvent(tick=2, channel=1, data=[61, 110]),
   midi.NoteOnEvent(tick=46, channel=1, data=[61, 0]),
   midi.NoteOnEvent(tick=2, channel=1, data=[61, 110]),
   midi.NoteOnEvent(tick=46, channel=1, data=[61, 0]),
   midi.NoteOnEvent(tick=2, channel=1, data=[61, 110]),
   midi.NoteOnEvent(tick=46, channel=1, data=[61, 0]),
   midi.NoteOnEvent(tick=2, channel=1, data=[61, 110]),
   midi.NoteOnEvent(tick=46, channel=1, data=[61, 0]),
   midi.NoteOnEvent(tick=2, channel=1, data=[61, 110]),
   midi.NoteOnEvent(tick=46, channel=1, data=[61, 0]),
   midi.NoteOnEvent(tick=2, channel=1, data=[61, 110]),
   midi.NoteOnEvent(tick=46, channel=1, data=[61, 0]),
   midi.NoteOnEvent(tick=2, channel=1, data=[61, 110]),
   midi.NoteOnEvent(tick=0, channel=1, data=[68, 110]),
   midi.NoteOnEvent(tick=94, channel=1, data=[61, 0]),
   midi.NoteOnEvent(tick=0, channel=1, data=[68, 0]),
   midi.NoteOnEvent(tick=2, channel=1, data=[61, 110]),
   midi.NoteOnEvent(tick=46, channel=1, data=[61, 0]),
   midi.NoteOnEvent(tick=2, channel=1, data=[61, 110]),
   midi.NoteOnEvent(tick=46, channel=1, data=[61, 0]),
   midi.NoteOnEvent(tick=2, channel=1, data=[61, 110]),
   midi.NoteOnEvent(tick=46, channel=1, data=[61, 0]),
   midi.NoteOnEvent(tick=2, channel=1, data=[61, 110]),
   midi.NoteOnEvent(tick=46, channel=1, data=[61, 0]),
   midi.NoteOnEvent(tick=2, channel=1, data=[61, 110]),
   midi.NoteOnEvent(tick=46, channel=1, data=[61, 0]),
   midi.NoteOnEvent(tick=2, channel=1, data=[61, 110]),
   midi.NoteOnEvent(tick=46, channel=1, data=[61, 0]),
   midi.NoteOnEvent(tick=2, channel=1, data=[61, 110]),
   midi.NoteOnEvent(tick=94, channel=1, data=[61, 0]),
   midi.NoteOnEvent(tick=2, channel=1, data=[61, 110]),
   midi.NoteOnEvent(tick=46, channel=1, data=[61, 0]),
   midi.NoteOnEvent(tick=2, channel=1, data=[61, 110]),
   midi.NoteOnEvent(tick=46, channel=1, data=[61, 0]),
   midi.NoteOnEvent(tick=2, channel=1, data=[59, 110]),
   midi.NoteOnEvent(tick=0, channel=1, data=[66, 110]),
   midi.NoteOnEvent(tick=94, channel=1, data=[59, 0]),
   midi.NoteOnEvent(tick=0, channel=1, data=[66, 0]),
   midi.NoteOnEvent(tick=2, channel=1, data=[59, 110]),
   midi.NoteOnEvent(tick=46, channel=1, data=[59, 0]),
   midi.NoteOnEvent(tick=2, channel=1, data=[59, 110]),
   midi.NoteOnEvent(tick=46, channel=1, data=[59, 0]),
   midi.NoteOnEvent(tick=2, channel=1, data=[59, 110]),
   midi.NoteOnEvent(tick=46, channel=1, data=[59, 0]),
   midi.NoteOnEvent(tick=2, channel=1, data=[59, 110]),
   midi.NoteOnEvent(tick=46, channel=1, data=[59, 0]),
   midi.NoteOnEvent(tick=2, channel=1, data=[59, 110]),
   midi.NoteOnEvent(tick=46, channel=1, data=[59, 0]),
   midi.NoteOnEvent(tick=2, channel=1, data=[59, 110]),
   midi.NoteOnEvent(tick=46, channel=1, data=[59, 0]),
   midi.NoteOnEvent(tick=2, channel=1, data=[59, 110]),
   midi.NoteOnEvent(tick=94, channel=1, data=[59, 0]),
   midi.NoteOnEvent(tick=2, channel=1, data=[59, 110]),
   midi.NoteOnEvent(tick=46, channel=1, data=[59, 0]),
   midi.NoteOnEvent(tick=2, channel=1, data=[59, 110]),
   midi.NoteOnEvent(tick=46, channel=1, data=[59, 0]),
   midi.NoteOnEvent(tick=2, channel=1, data=[61, 110]),
   midi.NoteOnEvent(tick=0, channel=1, data=[68, 110]),
   midi.NoteOnEvent(tick=94, channel=1, data=[61, 0]),
   midi.NoteOnEvent(tick=0, channel=1, data=[68, 0]),
   midi.NoteOnEvent(tick=2, channel=1, data=[61, 110]),
   midi.NoteOnEvent(tick=46, channel=1, data=[61, 0]),
   midi.NoteOnEvent(tick=2, channel=1, data=[61, 110]),
   midi.NoteOnEvent(tick=46, channel=1, data=[61, 0]),
   midi.NoteOnEvent(tick=2, channel=1, data=[61, 110]),
   midi.NoteOnEvent(tick=46, channel=1, data=[61, 0]),
   midi.NoteOnEvent(tick=2, channel=1, data=[61, 110]),
   midi.NoteOnEvent(tick=46, channel=1, data=[61, 0]),
   midi.NoteOnEvent(tick=2, channel=1, data=[61, 110]),
   midi.NoteOnEvent(tick=46, channel=1, data=[61, 0]),
   midi.NoteOnEvent(tick=2, channel=1, data=[61, 110]),
   midi.NoteOnEvent(tick=46, channel=1, data=[61, 0]),
   midi.NoteOnEvent(tick=2, channel=1, data=[61, 110]),
   midi.NoteOnEvent(tick=94, channel=1, data=[61, 0]),
   midi.NoteOnEvent(tick=2, channel=1, data=[61, 110]),
   midi.NoteOnEvent(tick=46, channel=1, data=[61, 0]),
   midi.NoteOnEvent(tick=2, channel=1, data=[61, 110]),
   midi.NoteOnEvent(tick=46, channel=1, data=[61, 0]),
   midi.NoteOnEvent(tick=2, channel=1, data=[61, 110]),
   midi.NoteOnEvent(tick=46, channel=1, data=[61, 0]),
   midi.NoteOnEvent(tick=2, channel=1, data=[61, 110]),
   midi.NoteOnEvent(tick=46, channel=1, data=[61, 0]),
   midi.NoteOnEvent(tick=2, channel=1, data=[61, 110]),
   midi.NoteOnEvent(tick=46, channel=1, data=[61, 0]),
   midi.NoteOnEvent(tick=2, channel=1, data=[61, 110]),
   midi.NoteOnEvent(tick=46, channel=1, data=[61, 0]),
   midi.NoteOnEvent(tick=2, channel=1, data=[61, 110]),
   midi.NoteOnEvent(tick=0, channel=1, data=[68, 110]),
   midi.NoteOnEvent(tick=94, channel=1, data=[61, 0]),
   midi.NoteOnEvent(tick=0, channel=1, data=[68, 0]),
   midi.NoteOnEvent(tick=2, channel=1, data=[61, 110]),
   midi.NoteOnEvent(tick=46, channel=1, data=[61, 0]),
   midi.NoteOnEvent(tick=2, channel=1, data=[61, 110]),
   midi.NoteOnEvent(tick=46, channel=1, data=[61, 0]),
   midi.NoteOnEvent(tick=2, channel=1, data=[61, 110]),
   midi.NoteOnEvent(tick=46, channel=1, data=[61, 0]),
   midi.NoteOnEvent(tick=2, channel=1, data=[61, 110]),
   midi.NoteOnEvent(tick=46, channel=1, data=[61, 0]),
   midi.NoteOnEvent(tick=2, channel=1, data=[61, 110]),
   midi.NoteOnEvent(tick=46, channel=1, data=[61, 0]),
   midi.NoteOnEvent(tick=2, channel=1, data=[61, 110]),
   midi.NoteOnEvent(tick=46, channel=1, data=[61, 0]),
   midi.NoteOnEvent(tick=2, channel=1, data=[61, 110]),
   midi.NoteOnEvent(tick=94, channel=1, data=[61, 0]),
   midi.NoteOnEvent(tick=2, channel=1, data=[61, 110]),
   midi.NoteOnEvent(tick=46, channel=1, data=[61, 0]),
   midi.NoteOnEvent(tick=2, channel=1, data=[61, 110]),
   midi.NoteOnEvent(tick=46, channel=1, data=[61, 0]),
   midi.NoteOnEvent(tick=2, channel=1, data=[61, 110]),
   midi.NoteOnEvent(tick=46, channel=1, data=[61, 0]),
   midi.NoteOnEvent(tick=2, channel=1, data=[61, 110]),
   midi.NoteOnEvent(tick=46, channel=1, data=[61, 0]),
   midi.NoteOnEvent(tick=2, channel=1, data=[61, 110]),
   midi.NoteOnEvent(tick=46, channel=1, data=[61, 0]),
   midi.NoteOnEvent(tick=2, channel=1, data=[61, 110]),
   midi.NoteOnEvent(tick=46, channel=1, data=[61, 0]),
   midi.NoteOnEvent(tick=2, channel=1, data=[61, 110]),
   midi.NoteOnEvent(tick=0, channel=1, data=[68, 110]),
   midi.NoteOnEvent(tick=94, channel=1, data=[61, 0]),
   midi.NoteOnEvent(tick=0, channel=1, data=[68, 0]),
   midi.NoteOnEvent(tick=2, channel=1, data=[61, 110]),
   midi.NoteOnEvent(tick=46, channel=1, data=[61, 0]),
   midi.NoteOnEvent(tick=2, channel=1, data=[61, 110]),
   midi.NoteOnEvent(tick=46, channel=1, data=[61, 0]),
   midi.NoteOnEvent(tick=2, channel=1, data=[61, 110]),
   midi.NoteOnEvent(tick=46, channel=1, data=[61, 0]),
   midi.NoteOnEvent(tick=2, channel=1, data=[61, 110]),
   midi.NoteOnEvent(tick=46, channel=1, data=[61, 0]),
   midi.NoteOnEvent(tick=2, channel=1, data=[61, 110]),
   midi.NoteOnEvent(tick=46, channel=1, data=[61, 0]),
   midi.NoteOnEvent(tick=2, channel=1, data=[61, 110]),
   midi.NoteOnEvent(tick=46, channel=1, data=[61, 0]),
   midi.NoteOnEvent(tick=2, channel=1, data=[61, 110]),
   midi.NoteOnEvent(tick=94, channel=1, data=[61, 0]),
   midi.NoteOnEvent(tick=2, channel=1, data=[61, 110]),
   midi.NoteOnEvent(tick=46, channel=1, data=[61, 0]),
   midi.NoteOnEvent(tick=2, channel=1, data=[61, 110]),
   midi.NoteOnEvent(tick=46, channel=1, data=[61, 0]),
   midi.NoteOnEvent(tick=2, channel=1, data=[59, 110]),
   midi.NoteOnEvent(tick=0, channel=1, data=[66, 110]),
   midi.NoteOnEvent(tick=94, channel=1, data=[59, 0]),
   midi.NoteOnEvent(tick=0, channel=1, data=[66, 0]),
   midi.NoteOnEvent(tick=2, channel=1, data=[59, 110]),
   midi.NoteOnEvent(tick=46, channel=1, data=[59, 0]),
   midi.NoteOnEvent(tick=2, channel=1, data=[59, 110]),
   midi.NoteOnEvent(tick=46, channel=1, data=[59, 0]),
   midi.NoteOnEvent(tick=2, channel=1, data=[59, 110]),
   midi.NoteOnEvent(tick=46, channel=1, data=[59, 0]),
   midi.NoteOnEvent(tick=2, channel=1, data=[59, 110]),
   midi.NoteOnEvent(tick=46, channel=1, data=[59, 0]),
   midi.NoteOnEvent(tick=2, channel=1, data=[59, 110]),
   midi.NoteOnEvent(tick=46, channel=1, data=[59, 0]),
   midi.NoteOnEvent(tick=2, channel=1, data=[59, 110]),
   midi.NoteOnEvent(tick=46, channel=1, data=[59, 0]),
   midi.NoteOnEvent(tick=2, channel=1, data=[59, 110]),
   midi.NoteOnEvent(tick=94, channel=1, data=[59, 0]),
   midi.NoteOnEvent(tick=2, channel=1, data=[59, 110]),
   midi.NoteOnEvent(tick=46, channel=1, data=[59, 0]),
   midi.NoteOnEvent(tick=2, channel=1, data=[59, 110]),
   midi.NoteOnEvent(tick=46, channel=1, data=[59, 0]),
   midi.NoteOnEvent(tick=2, channel=1, data=[71, 110]),
   midi.NoteOnEvent(tick=334, channel=1, data=[71, 0]),
   midi.NoteOnEvent(tick=2, channel=1, data=[72, 110]),
   midi.NoteOnEvent(tick=22, channel=1, data=[72, 0]),
   midi.NoteOnEvent(tick=2, channel=1, data=[71, 110]),
   midi.NoteOnEvent(tick=22, channel=1, data=[71, 0]),
   midi.NoteOnEvent(tick=2, channel=1, data=[69, 110]),
   midi.NoteOnEvent(tick=334, channel=1, data=[69, 0]),
   midi.NoteOnEvent(tick=2, channel=1, data=[71, 110]),
   midi.NoteOnEvent(tick=22, channel=1, data=[71, 0]),
   midi.NoteOnEvent(tick=2, channel=1, data=[72, 110]),
   midi.NoteOnEvent(tick=22, channel=1, data=[72, 0]),
   midi.NoteOnEvent(tick=2, channel=1, data=[71, 110]),
   midi.NoteOnEvent(tick=334, channel=1, data=[71, 0]),
   midi.NoteOnEvent(tick=2, channel=1, data=[72, 110]),
   midi.NoteOnEvent(tick=22, channel=1, data=[72, 0]),
   midi.NoteOnEvent(tick=2, channel=1, data=[71, 110]),
   midi.NoteOnEvent(tick=22, channel=1, data=[71, 0]),
   midi.NoteOnEvent(tick=2, channel=1, data=[69, 110]),
   midi.NoteOnEvent(tick=334, channel=1, data=[69, 0]),
   midi.NoteOnEvent(tick=2, channel=1, data=[71, 110]),
   midi.NoteOnEvent(tick=22, channel=1, data=[71, 0]),
   midi.NoteOnEvent(tick=2, channel=1, data=[72, 110]),
   midi.NoteOnEvent(tick=22, channel=1, data=[72, 0]),
   midi.NoteOnEvent(tick=2, channel=1, data=[71, 110]),
   midi.NoteOnEvent(tick=334, channel=1, data=[71, 0]),
   midi.NoteOnEvent(tick=2, channel=1, data=[72, 110]),
   midi.NoteOnEvent(tick=22, channel=1, data=[72, 0]),
   midi.NoteOnEvent(tick=2, channel=1, data=[71, 110]),
   midi.NoteOnEvent(tick=22, channel=1, data=[71, 0]),
   midi.NoteOnEvent(tick=2, channel=1, data=[69, 110]),
   midi.NoteOnEvent(tick=160, channel=1, data=[69, 0]),
   midi.PitchWheelEvent(tick=32, channel=1, data=[0, 64]),
   midi.NoteOnEvent(tick=0, channel=1, data=[71, 110]),
   midi.PitchWheelEvent(tick=1, channel=1, data=[96, 63]),
   midi.PitchWheelEvent(tick=2, channel=1, data=[64, 63]),
   midi.PitchWheelEvent(tick=1, channel=1, data=[32, 63]),
   midi.PitchWheelEvent(tick=2, channel=1, data=[0, 63]),
   midi.PitchWheelEvent(tick=1, channel=1, data=[96, 62]),
   midi.PitchWheelEvent(tick=2, channel=1, data=[64, 62]),
   midi.PitchWheelEvent(tick=1, channel=1, data=[32, 62]),
   midi.PitchWheelEvent(tick=2, channel=1, data=[0, 62]),
   midi.PitchWheelEvent(tick=1, channel=1, data=[96, 61]),
   midi.PitchWheelEvent(tick=2, channel=1, data=[64, 61]),
   midi.PitchWheelEvent(tick=1, channel=1, data=[32, 61]),
   midi.PitchWheelEvent(tick=2, channel=1, data=[0, 61]),
   midi.PitchWheelEvent(tick=1, channel=1, data=[96, 60]),
   midi.PitchWheelEvent(tick=2, channel=1, data=[64, 60]),
   midi.PitchWheelEvent(tick=1, channel=1, data=[32, 60]),
   midi.PitchWheelEvent(tick=2, channel=1, data=[0, 60]),
   midi.PitchWheelEvent(tick=1, channel=1, data=[96, 59]),
   midi.PitchWheelEvent(tick=2, channel=1, data=[64, 59]),
   midi.PitchWheelEvent(tick=1, channel=1, data=[32, 59]),
   midi.PitchWheelEvent(tick=2, channel=1, data=[0, 59]),
   midi.PitchWheelEvent(tick=1, channel=1, data=[96, 58]),
   midi.PitchWheelEvent(tick=2, channel=1, data=[64, 58]),
   midi.PitchWheelEvent(tick=1, channel=1, data=[32, 58]),
   midi.PitchWheelEvent(tick=2, channel=1, data=[0, 58]),
   midi.PitchWheelEvent(tick=1, channel=1, data=[96, 57]),
   midi.PitchWheelEvent(tick=2, channel=1, data=[64, 57]),
   midi.PitchWheelEvent(tick=1, channel=1, data=[32, 57]),
   midi.PitchWheelEvent(tick=2, channel=1, data=[0, 57]),
   midi.PitchWheelEvent(tick=1, channel=1, data=[96, 56]),
   midi.PitchWheelEvent(tick=2, channel=1, data=[64, 56]),
   midi.PitchWheelEvent(tick=1, channel=1, data=[32, 56]),
   midi.PitchWheelEvent(tick=2, channel=1, data=[0, 56]),
   midi.PitchWheelEvent(tick=1, channel=1, data=[96, 55]),
   midi.PitchWheelEvent(tick=2, channel=1, data=[64, 55]),
   midi.PitchWheelEvent(tick=1, channel=1, data=[32, 55]),
   midi.PitchWheelEvent(tick=2, channel=1, data=[0, 55]),
   midi.PitchWheelEvent(tick=1, channel=1, data=[96, 54]),
   midi.PitchWheelEvent(tick=2, channel=1, data=[64, 54]),
   midi.PitchWheelEvent(tick=1, channel=1, data=[32, 54]),
   midi.PitchWheelEvent(tick=2, channel=1, data=[0, 54]),
   midi.PitchWheelEvent(tick=1, channel=1, data=[96, 53]),
   midi.PitchWheelEvent(tick=2, channel=1, data=[64, 53]),
   midi.PitchWheelEvent(tick=1, channel=1, data=[32, 53]),
   midi.PitchWheelEvent(tick=2, channel=1, data=[0, 53]),
   midi.PitchWheelEvent(tick=1, channel=1, data=[96, 52]),
   midi.PitchWheelEvent(tick=2, channel=1, data=[64, 52]),
   midi.PitchWheelEvent(tick=1, channel=1, data=[32, 52]),
   midi.PitchWheelEvent(tick=2, channel=1, data=[0, 52]),
   midi.PitchWheelEvent(tick=1, channel=1, data=[96, 51]),
   midi.PitchWheelEvent(tick=2, channel=1, data=[64, 51]),
   midi.PitchWheelEvent(tick=1, channel=1, data=[32, 51]),
   midi.PitchWheelEvent(tick=2, channel=1, data=[0, 51]),
   midi.PitchWheelEvent(tick=1, channel=1, data=[96, 50]),
   midi.PitchWheelEvent(tick=2, channel=1, data=[64, 50]),
   midi.PitchWheelEvent(tick=1, channel=1, data=[32, 50]),
   midi.PitchWheelEvent(tick=2, channel=1, data=[0, 50]),
   midi.PitchWheelEvent(tick=1, channel=1, data=[96, 49]),
   midi.PitchWheelEvent(tick=2, channel=1, data=[64, 49]),
   midi.PitchWheelEvent(tick=1, channel=1, data=[32, 49]),
   midi.PitchWheelEvent(tick=2, channel=1, data=[0, 49]),
   midi.PitchWheelEvent(tick=1, channel=1, data=[96, 48]),
   midi.PitchWheelEvent(tick=2, channel=1, data=[64, 48]),
   midi.PitchWheelEvent(tick=1, channel=1, data=[32, 48]),
   midi.PitchWheelEvent(tick=2, channel=1, data=[0, 48]),
   midi.PitchWheelEvent(tick=1, channel=1, data=[96, 47]),
   midi.PitchWheelEvent(tick=2, channel=1, data=[64, 47]),
   midi.PitchWheelEvent(tick=1, channel=1, data=[32, 47]),
   midi.PitchWheelEvent(tick=2, channel=1, data=[0, 47]),
   midi.PitchWheelEvent(tick=1, channel=1, data=[96, 46]),
   midi.PitchWheelEvent(tick=2, channel=1, data=[64, 46]),
   midi.PitchWheelEvent(tick=1, channel=1, data=[32, 46]),
   midi.PitchWheelEvent(tick=2, channel=1, data=[0, 46]),
   midi.PitchWheelEvent(tick=1, channel=1, data=[96, 45]),
   midi.PitchWheelEvent(tick=2, channel=1, data=[64, 45]),
   midi.PitchWheelEvent(tick=1, channel=1, data=[32, 45]),
   midi.PitchWheelEvent(tick=2, channel=1, data=[0, 45]),
   midi.PitchWheelEvent(tick=1, channel=1, data=[96, 44]),
   midi.PitchWheelEvent(tick=2, channel=1, data=[64, 44]),
   midi.PitchWheelEvent(tick=1, channel=1, data=[32, 44]),
   midi.PitchWheelEvent(tick=2, channel=1, data=[0, 44]),
   midi.PitchWheelEvent(tick=1, channel=1, data=[96, 43]),
   midi.PitchWheelEvent(tick=2, channel=1, data=[64, 43]),
   midi.PitchWheelEvent(tick=1, channel=1, data=[32, 43]),
   midi.PitchWheelEvent(tick=2, channel=1, data=[0, 43]),
   midi.PitchWheelEvent(tick=1, channel=1, data=[96, 42]),
   midi.PitchWheelEvent(tick=2, channel=1, data=[64, 42]),
   midi.PitchWheelEvent(tick=1, channel=1, data=[32, 42]),
   midi.PitchWheelEvent(tick=2, channel=1, data=[0, 42]),
   midi.PitchWheelEvent(tick=1, channel=1, data=[96, 41]),
   midi.PitchWheelEvent(tick=2, channel=1, data=[64, 41]),
   midi.PitchWheelEvent(tick=1, channel=1, data=[32, 41]),
   midi.PitchWheelEvent(tick=2, channel=1, data=[0, 41]),
   midi.PitchWheelEvent(tick=1, channel=1, data=[96, 40]),
   midi.PitchWheelEvent(tick=2, channel=1, data=[64, 40]),
   midi.PitchWheelEvent(tick=1, channel=1, data=[32, 40]),
   midi.PitchWheelEvent(tick=2, channel=1, data=[0, 40]),
   midi.PitchWheelEvent(tick=1, channel=1, data=[96, 39]),
   midi.PitchWheelEvent(tick=2, channel=1, data=[64, 39]),
   midi.PitchWheelEvent(tick=1, channel=1, data=[32, 39]),
   midi.PitchWheelEvent(tick=2, channel=1, data=[0, 39]),
   midi.PitchWheelEvent(tick=1, channel=1, data=[96, 38]),
   midi.PitchWheelEvent(tick=2, channel=1, data=[64, 38]),
   midi.PitchWheelEvent(tick=1, channel=1, data=[32, 38]),
   midi.PitchWheelEvent(tick=2, channel=1, data=[0, 38]),
   midi.PitchWheelEvent(tick=1, channel=1, data=[96, 37]),
   midi.PitchWheelEvent(tick=2, channel=1, data=[64, 37]),
   midi.PitchWheelEvent(tick=1, channel=1, data=[32, 37]),
   midi.PitchWheelEvent(tick=2, channel=1, data=[0, 37]),
   midi.PitchWheelEvent(tick=1, channel=1, data=[96, 36]),
   midi.PitchWheelEvent(tick=2, channel=1, data=[64, 36]),
   midi.PitchWheelEvent(tick=1, channel=1, data=[32, 36]),
   midi.PitchWheelEvent(tick=2, channel=1, data=[0, 36]),
   midi.PitchWheelEvent(tick=1, channel=1, data=[96, 35]),
   midi.PitchWheelEvent(tick=2, channel=1, data=[64, 35]),
   midi.PitchWheelEvent(tick=1, channel=1, data=[32, 35]),
   midi.PitchWheelEvent(tick=2, channel=1, data=[0, 35]),
   midi.PitchWheelEvent(tick=1, channel=1, data=[96, 34]),
   midi.PitchWheelEvent(tick=2, channel=1, data=[64, 34]),
   midi.PitchWheelEvent(tick=1, channel=1, data=[32, 34]),
   midi.PitchWheelEvent(tick=2, channel=1, data=[0, 34]),
   midi.PitchWheelEvent(tick=1, channel=1, data=[96, 33]),
   midi.PitchWheelEvent(tick=2, channel=1, data=[64, 33]),
   midi.PitchWheelEvent(tick=1, channel=1, data=[32, 33]),
   midi.PitchWheelEvent(tick=2, channel=1, data=[0, 33]),
   midi.PitchWheelEvent(tick=1, channel=1, data=[96, 32]),
   midi.PitchWheelEvent(tick=2, channel=1, data=[64, 32]),
   midi.PitchWheelEvent(tick=1, channel=1, data=[32, 32]),
   midi.PitchWheelEvent(tick=2, channel=1, data=[0, 32]),
   midi.PitchWheelEvent(tick=1, channel=1, data=[96, 31]),
   midi.PitchWheelEvent(tick=2, channel=1, data=[64, 31]),
   midi.PitchWheelEvent(tick=1, channel=1, data=[32, 31]),
   midi.PitchWheelEvent(tick=2, channel=1, data=[0, 31]),
   midi.PitchWheelEvent(tick=1, channel=1, data=[96, 30]),
   midi.PitchWheelEvent(tick=2, channel=1, data=[64, 30]),
   midi.PitchWheelEvent(tick=1, channel=1, data=[32, 30]),
   midi.PitchWheelEvent(tick=2, channel=1, data=[0, 30]),
   midi.PitchWheelEvent(tick=1, channel=1, data=[96, 29]),
   midi.PitchWheelEvent(tick=2, channel=1, data=[64, 29]),
   midi.PitchWheelEvent(tick=1, channel=1, data=[32, 29]),
   midi.PitchWheelEvent(tick=2, channel=1, data=[0, 29]),
   midi.PitchWheelEvent(tick=1, channel=1, data=[96, 28]),
   midi.PitchWheelEvent(tick=2, channel=1, data=[64, 28]),
   midi.PitchWheelEvent(tick=1, channel=1, data=[32, 28]),
   midi.PitchWheelEvent(tick=2, channel=1, data=[0, 28]),
   midi.PitchWheelEvent(tick=1, channel=1, data=[96, 27]),
   midi.PitchWheelEvent(tick=2, channel=1, data=[64, 27]),
   midi.PitchWheelEvent(tick=1, channel=1, data=[32, 27]),
   midi.PitchWheelEvent(tick=2, channel=1, data=[0, 27]),
   midi.PitchWheelEvent(tick=1, channel=1, data=[96, 26]),
   midi.PitchWheelEvent(tick=2, channel=1, data=[64, 26]),
   midi.PitchWheelEvent(tick=1, channel=1, data=[32, 26]),
   midi.PitchWheelEvent(tick=2, channel=1, data=[0, 26]),
   midi.PitchWheelEvent(tick=1, channel=1, data=[96, 25]),
   midi.PitchWheelEvent(tick=2, channel=1, data=[64, 25]),
   midi.PitchWheelEvent(tick=1, channel=1, data=[32, 25]),
   midi.PitchWheelEvent(tick=2, channel=1, data=[0, 25]),
   midi.PitchWheelEvent(tick=1, channel=1, data=[96, 24]),
   midi.PitchWheelEvent(tick=2, channel=1, data=[64, 24]),
   midi.PitchWheelEvent(tick=1, channel=1, data=[32, 24]),
   midi.PitchWheelEvent(tick=2, channel=1, data=[0, 24]),
   midi.PitchWheelEvent(tick=1, channel=1, data=[96, 23]),
   midi.PitchWheelEvent(tick=2, channel=1, data=[64, 23]),
   midi.PitchWheelEvent(tick=1, channel=1, data=[32, 23]),
   midi.PitchWheelEvent(tick=2, channel=1, data=[0, 23]),
   midi.PitchWheelEvent(tick=1, channel=1, data=[96, 22]),
   midi.PitchWheelEvent(tick=2, channel=1, data=[64, 22]),
   midi.PitchWheelEvent(tick=1, channel=1, data=[32, 22]),
   midi.PitchWheelEvent(tick=2, channel=1, data=[0, 22]),
   midi.PitchWheelEvent(tick=1, channel=1, data=[96, 21]),
   midi.PitchWheelEvent(tick=2, channel=1, data=[64, 21]),
   midi.PitchWheelEvent(tick=1, channel=1, data=[32, 21]),
   midi.PitchWheelEvent(tick=2, channel=1, data=[0, 21]),
   midi.PitchWheelEvent(tick=1, channel=1, data=[96, 20]),
   midi.PitchWheelEvent(tick=2, channel=1, data=[64, 20]),
   midi.PitchWheelEvent(tick=1, channel=1, data=[32, 20]),
   midi.PitchWheelEvent(tick=2, channel=1, data=[0, 20]),
   midi.PitchWheelEvent(tick=1, channel=1, data=[96, 19]),
   midi.PitchWheelEvent(tick=2, channel=1, data=[64, 19]),
   midi.PitchWheelEvent(tick=1, channel=1, data=[32, 19]),
   midi.PitchWheelEvent(tick=2, channel=1, data=[0, 19]),
   midi.PitchWheelEvent(tick=1, channel=1, data=[96, 18]),
   midi.PitchWheelEvent(tick=2, channel=1, data=[64, 18]),
   midi.PitchWheelEvent(tick=1, channel=1, data=[32, 18]),
   midi.PitchWheelEvent(tick=2, channel=1, data=[0, 18]),
   midi.PitchWheelEvent(tick=1, channel=1, data=[96, 17]),
   midi.PitchWheelEvent(tick=2, channel=1, data=[64, 17]),
   midi.PitchWheelEvent(tick=1, channel=1, data=[32, 17]),
   midi.PitchWheelEvent(tick=2, channel=1, data=[0, 17]),
   midi.PitchWheelEvent(tick=1, channel=1, data=[96, 16]),
   midi.PitchWheelEvent(tick=2, channel=1, data=[64, 16]),
   midi.PitchWheelEvent(tick=1, channel=1, data=[32, 16]),
   midi.PitchWheelEvent(tick=2, channel=1, data=[0, 16]),
   midi.PitchWheelEvent(tick=1, channel=1, data=[96, 15]),
   midi.PitchWheelEvent(tick=2, channel=1, data=[64, 15]),
   midi.PitchWheelEvent(tick=1, channel=1, data=[32, 15]),
   midi.PitchWheelEvent(tick=2, channel=1, data=[0, 15]),
   midi.PitchWheelEvent(tick=1, channel=1, data=[96, 14]),
   midi.PitchWheelEvent(tick=2, channel=1, data=[64, 14]),
   midi.PitchWheelEvent(tick=1, channel=1, data=[32, 14]),
   midi.PitchWheelEvent(tick=2, channel=1, data=[0, 14]),
   midi.PitchWheelEvent(tick=1, channel=1, data=[96, 13]),
   midi.PitchWheelEvent(tick=2, channel=1, data=[64, 13]),
   midi.PitchWheelEvent(tick=1, channel=1, data=[32, 13]),
   midi.PitchWheelEvent(tick=2, channel=1, data=[0, 13]),
   midi.PitchWheelEvent(tick=1, channel=1, data=[96, 12]),
   midi.PitchWheelEvent(tick=2, channel=1, data=[64, 12]),
   midi.PitchWheelEvent(tick=1, channel=1, data=[32, 12]),
   midi.PitchWheelEvent(tick=2, channel=1, data=[0, 12]),
   midi.PitchWheelEvent(tick=1, channel=1, data=[96, 11]),
   midi.PitchWheelEvent(tick=2, channel=1, data=[64, 11]),
   midi.PitchWheelEvent(tick=1, channel=1, data=[32, 11]),
   midi.PitchWheelEvent(tick=2, channel=1, data=[0, 11]),
   midi.PitchWheelEvent(tick=1, channel=1, data=[96, 10]),
   midi.PitchWheelEvent(tick=2, channel=1, data=[64, 10]),
   midi.PitchWheelEvent(tick=1, channel=1, data=[32, 10]),
   midi.PitchWheelEvent(tick=2, channel=1, data=[0, 10]),
   midi.PitchWheelEvent(tick=1, channel=1, data=[96, 9]),
   midi.PitchWheelEvent(tick=2, channel=1, data=[64, 9]),
   midi.PitchWheelEvent(tick=1, channel=1, data=[32, 9]),
   midi.PitchWheelEvent(tick=2, channel=1, data=[0, 9]),
   midi.PitchWheelEvent(tick=1, channel=1, data=[96, 8]),
   midi.PitchWheelEvent(tick=2, channel=1, data=[64, 8]),
   midi.PitchWheelEvent(tick=1, channel=1, data=[32, 8]),
   midi.PitchWheelEvent(tick=2, channel=1, data=[0, 8]),
   midi.PitchWheelEvent(tick=1, channel=1, data=[96, 7]),
   midi.PitchWheelEvent(tick=2, channel=1, data=[64, 7]),
   midi.PitchWheelEvent(tick=1, channel=1, data=[32, 7]),
   midi.PitchWheelEvent(tick=2, channel=1, data=[0, 7]),
   midi.PitchWheelEvent(tick=1, channel=1, data=[96, 6]),
   midi.PitchWheelEvent(tick=2, channel=1, data=[64, 6]),
   midi.PitchWheelEvent(tick=1, channel=1, data=[32, 6]),
   midi.PitchWheelEvent(tick=2, channel=1, data=[0, 6]),
   midi.PitchWheelEvent(tick=1, channel=1, data=[96, 5]),
   midi.PitchWheelEvent(tick=2, channel=1, data=[64, 5]),
   midi.PitchWheelEvent(tick=1, channel=1, data=[32, 5]),
   midi.PitchWheelEvent(tick=2, channel=1, data=[0, 5]),
   midi.PitchWheelEvent(tick=1, channel=1, data=[96, 4]),
   midi.PitchWheelEvent(tick=2, channel=1, data=[64, 4]),
   midi.PitchWheelEvent(tick=1, channel=1, data=[32, 4]),
   midi.PitchWheelEvent(tick=2, channel=1, data=[0, 4]),
   midi.PitchWheelEvent(tick=1, channel=1, data=[96, 3]),
   midi.PitchWheelEvent(tick=2, channel=1, data=[64, 3]),
   midi.PitchWheelEvent(tick=1, channel=1, data=[32, 3]),
   midi.PitchWheelEvent(tick=2, channel=1, data=[0, 3]),
   midi.PitchWheelEvent(tick=1, channel=1, data=[96, 2]),
   midi.PitchWheelEvent(tick=2, channel=1, data=[64, 2]),
   midi.PitchWheelEvent(tick=1, channel=1, data=[32, 2]),
   midi.PitchWheelEvent(tick=2, channel=1, data=[0, 2]),
   midi.PitchWheelEvent(tick=1, channel=1, data=[96, 1]),
   midi.PitchWheelEvent(tick=2, channel=1, data=[64, 1]),
   midi.PitchWheelEvent(tick=1, channel=1, data=[32, 1]),
   midi.PitchWheelEvent(tick=2, channel=1, data=[0, 1]),
   midi.PitchWheelEvent(tick=1, channel=1, data=[96, 0]),
   midi.PitchWheelEvent(tick=2, channel=1, data=[64, 0]),
   midi.PitchWheelEvent(tick=1, channel=1, data=[32, 0]),
   midi.PitchWheelEvent(tick=2, channel=1, data=[0, 0]),
   midi.NoteOnEvent(tick=160, channel=1, data=[71, 0]),
   midi.PitchWheelEvent(tick=32, channel=1, data=[0, 64]),
   midi.NoteOnEvent(tick=0, channel=1, data=[71, 110]),
   midi.NoteOnEvent(tick=334, channel=1, data=[71, 0]),
   midi.NoteOnEvent(tick=2, channel=1, data=[72, 110]),
   midi.NoteOnEvent(tick=22, channel=1, data=[72, 0]),
   midi.NoteOnEvent(tick=2, channel=1, data=[71, 110]),
   midi.NoteOnEvent(tick=22, channel=1, data=[71, 0]),
   midi.NoteOnEvent(tick=2, channel=1, data=[69, 110]),
   midi.NoteOnEvent(tick=334, channel=1, data=[69, 0]),
   midi.NoteOnEvent(tick=2, channel=1, data=[71, 110]),
   midi.NoteOnEvent(tick=22, channel=1, data=[71, 0]),
   midi.NoteOnEvent(tick=2, channel=1, data=[72, 110]),
   midi.NoteOnEvent(tick=22, channel=1, data=[72, 0]),
   midi.NoteOnEvent(tick=2, channel=1, data=[71, 110]),
   midi.NoteOnEvent(tick=334, channel=1, data=[71, 0]),
   midi.NoteOnEvent(tick=2, channel=1, data=[72, 110]),
   midi.NoteOnEvent(tick=22, channel=1, data=[72, 0]),
   midi.NoteOnEvent(tick=2, channel=1, data=[71, 110]),
   midi.NoteOnEvent(tick=22, channel=1, data=[71, 0]),
   midi.NoteOnEvent(tick=2, channel=1, data=[69, 110]),
   midi.NoteOnEvent(tick=334, channel=1, data=[69, 0]),
   midi.NoteOnEvent(tick=2, channel=1, data=[71, 110]),
   midi.NoteOnEvent(tick=22, channel=1, data=[71, 0]),
   midi.NoteOnEvent(tick=2, channel=1, data=[72, 110]),
   midi.NoteOnEvent(tick=22, channel=1, data=[72, 0]),
   midi.NoteOnEvent(tick=2, channel=1, data=[71, 110]),
   midi.NoteOnEvent(tick=334, channel=1, data=[71, 0]),
   midi.NoteOnEvent(tick=2, channel=1, data=[72, 110]),
   midi.NoteOnEvent(tick=22, channel=1, data=[72, 0]),
   midi.NoteOnEvent(tick=2, channel=1, data=[71, 110]),
   midi.NoteOnEvent(tick=22, channel=1, data=[71, 0]),
   midi.NoteOnEvent(tick=2, channel=1, data=[69, 110]),
   midi.NoteOnEvent(tick=160, channel=1, data=[69, 0]),
   midi.PitchWheelEvent(tick=32, channel=1, data=[0, 64]),
   midi.NoteOnEvent(tick=0, channel=1, data=[71, 110]),
   midi.PitchWheelEvent(tick=1, channel=1, data=[96, 63]),
   midi.PitchWheelEvent(tick=2, channel=1, data=[64, 63]),
   midi.PitchWheelEvent(tick=1, channel=1, data=[32, 63]),
   midi.PitchWheelEvent(tick=2, channel=1, data=[0, 63]),
   midi.PitchWheelEvent(tick=1, channel=1, data=[96, 62]),
   midi.PitchWheelEvent(tick=2, channel=1, data=[64, 62]),
   midi.PitchWheelEvent(tick=1, channel=1, data=[32, 62]),
   midi.PitchWheelEvent(tick=2, channel=1, data=[0, 62]),
   midi.PitchWheelEvent(tick=1, channel=1, data=[96, 61]),
   midi.PitchWheelEvent(tick=2, channel=1, data=[64, 61]),
   midi.PitchWheelEvent(tick=1, channel=1, data=[32, 61]),
   midi.PitchWheelEvent(tick=2, channel=1, data=[0, 61]),
   midi.PitchWheelEvent(tick=1, channel=1, data=[96, 60]),
   midi.PitchWheelEvent(tick=2, channel=1, data=[64, 60]),
   midi.PitchWheelEvent(tick=1, channel=1, data=[32, 60]),
   midi.PitchWheelEvent(tick=2, channel=1, data=[0, 60]),
   midi.PitchWheelEvent(tick=1, channel=1, data=[96, 59]),
   midi.PitchWheelEvent(tick=2, channel=1, data=[64, 59]),
   midi.PitchWheelEvent(tick=1, channel=1, data=[32, 59]),
   midi.PitchWheelEvent(tick=2, channel=1, data=[0, 59]),
   midi.PitchWheelEvent(tick=1, channel=1, data=[96, 58]),
   midi.PitchWheelEvent(tick=2, channel=1, data=[64, 58]),
   midi.PitchWheelEvent(tick=1, channel=1, data=[32, 58]),
   midi.PitchWheelEvent(tick=2, channel=1, data=[0, 58]),
   midi.PitchWheelEvent(tick=1, channel=1, data=[96, 57]),
   midi.PitchWheelEvent(tick=2, channel=1, data=[64, 57]),
   midi.PitchWheelEvent(tick=1, channel=1, data=[32, 57]),
   midi.PitchWheelEvent(tick=2, channel=1, data=[0, 57]),
   midi.PitchWheelEvent(tick=1, channel=1, data=[96, 56]),
   midi.PitchWheelEvent(tick=2, channel=1, data=[64, 56]),
   midi.PitchWheelEvent(tick=1, channel=1, data=[32, 56]),
   midi.PitchWheelEvent(tick=2, channel=1, data=[0, 56]),
   midi.PitchWheelEvent(tick=1, channel=1, data=[96, 55]),
   midi.PitchWheelEvent(tick=2, channel=1, data=[64, 55]),
   midi.PitchWheelEvent(tick=1, channel=1, data=[32, 55]),
   midi.PitchWheelEvent(tick=2, channel=1, data=[0, 55]),
   midi.PitchWheelEvent(tick=1, channel=1, data=[96, 54]),
   midi.PitchWheelEvent(tick=2, channel=1, data=[64, 54]),
   midi.PitchWheelEvent(tick=1, channel=1, data=[32, 54]),
   midi.PitchWheelEvent(tick=2, channel=1, data=[0, 54]),
   midi.PitchWheelEvent(tick=1, channel=1, data=[96, 53]),
   midi.PitchWheelEvent(tick=2, channel=1, data=[64, 53]),
   midi.PitchWheelEvent(tick=1, channel=1, data=[32, 53]),
   midi.PitchWheelEvent(tick=2, channel=1, data=[0, 53]),
   midi.PitchWheelEvent(tick=1, channel=1, data=[96, 52]),
   midi.PitchWheelEvent(tick=2, channel=1, data=[64, 52]),
   midi.PitchWheelEvent(tick=1, channel=1, data=[32, 52]),
   midi.PitchWheelEvent(tick=2, channel=1, data=[0, 52]),
   midi.PitchWheelEvent(tick=1, channel=1, data=[96, 51]),
   midi.PitchWheelEvent(tick=2, channel=1, data=[64, 51]),
   midi.PitchWheelEvent(tick=1, channel=1, data=[32, 51]),
   midi.PitchWheelEvent(tick=2, channel=1, data=[0, 51]),
   midi.PitchWheelEvent(tick=1, channel=1, data=[96, 50]),
   midi.PitchWheelEvent(tick=2, channel=1, data=[64, 50]),
   midi.PitchWheelEvent(tick=1, channel=1, data=[32, 50]),
   midi.PitchWheelEvent(tick=2, channel=1, data=[0, 50]),
   midi.PitchWheelEvent(tick=1, channel=1, data=[96, 49]),
   midi.PitchWheelEvent(tick=2, channel=1, data=[64, 49]),
   midi.PitchWheelEvent(tick=1, channel=1, data=[32, 49]),
   midi.PitchWheelEvent(tick=2, channel=1, data=[0, 49]),
   midi.PitchWheelEvent(tick=1, channel=1, data=[96, 48]),
   midi.PitchWheelEvent(tick=2, channel=1, data=[64, 48]),
   midi.PitchWheelEvent(tick=1, channel=1, data=[32, 48]),
   midi.PitchWheelEvent(tick=2, channel=1, data=[0, 48]),
   midi.PitchWheelEvent(tick=1, channel=1, data=[96, 47]),
   midi.PitchWheelEvent(tick=2, channel=1, data=[64, 47]),
   midi.PitchWheelEvent(tick=1, channel=1, data=[32, 47]),
   midi.PitchWheelEvent(tick=2, channel=1, data=[0, 47]),
   midi.PitchWheelEvent(tick=1, channel=1, data=[96, 46]),
   midi.PitchWheelEvent(tick=2, channel=1, data=[64, 46]),
   midi.PitchWheelEvent(tick=1, channel=1, data=[32, 46]),
   midi.PitchWheelEvent(tick=2, channel=1, data=[0, 46]),
   midi.PitchWheelEvent(tick=1, channel=1, data=[96, 45]),
   midi.PitchWheelEvent(tick=2, channel=1, data=[64, 45]),
   midi.PitchWheelEvent(tick=1, channel=1, data=[32, 45]),
   midi.PitchWheelEvent(tick=2, channel=1, data=[0, 45]),
   midi.PitchWheelEvent(tick=1, channel=1, data=[96, 44]),
   midi.PitchWheelEvent(tick=2, channel=1, data=[64, 44]),
   midi.PitchWheelEvent(tick=1, channel=1, data=[32, 44]),
   midi.PitchWheelEvent(tick=2, channel=1, data=[0, 44]),
   midi.PitchWheelEvent(tick=1, channel=1, data=[96, 43]),
   midi.PitchWheelEvent(tick=2, channel=1, data=[64, 43]),
   midi.PitchWheelEvent(tick=1, channel=1, data=[32, 43]),
   midi.PitchWheelEvent(tick=2, channel=1, data=[0, 43]),
   midi.PitchWheelEvent(tick=1, channel=1, data=[96, 42]),
   midi.PitchWheelEvent(tick=2, channel=1, data=[64, 42]),
   midi.PitchWheelEvent(tick=1, channel=1, data=[32, 42]),
   midi.PitchWheelEvent(tick=2, channel=1, data=[0, 42]),
   midi.PitchWheelEvent(tick=1, channel=1, data=[96, 41]),
   midi.PitchWheelEvent(tick=2, channel=1, data=[64, 41]),
   midi.PitchWheelEvent(tick=1, channel=1, data=[32, 41]),
   midi.PitchWheelEvent(tick=2, channel=1, data=[0, 41]),
   midi.PitchWheelEvent(tick=1, channel=1, data=[96, 40]),
   midi.PitchWheelEvent(tick=2, channel=1, data=[64, 40]),
   midi.PitchWheelEvent(tick=1, channel=1, data=[32, 40]),
   midi.PitchWheelEvent(tick=2, channel=1, data=[0, 40]),
   midi.PitchWheelEvent(tick=1, channel=1, data=[96, 39]),
   midi.PitchWheelEvent(tick=2, channel=1, data=[64, 39]),
   midi.PitchWheelEvent(tick=1, channel=1, data=[32, 39]),
   midi.PitchWheelEvent(tick=2, channel=1, data=[0, 39]),
   midi.PitchWheelEvent(tick=1, channel=1, data=[96, 38]),
   midi.PitchWheelEvent(tick=2, channel=1, data=[64, 38]),
   midi.PitchWheelEvent(tick=1, channel=1, data=[32, 38]),
   midi.PitchWheelEvent(tick=2, channel=1, data=[0, 38]),
   midi.PitchWheelEvent(tick=1, channel=1, data=[96, 37]),
   midi.PitchWheelEvent(tick=2, channel=1, data=[64, 37]),
   midi.PitchWheelEvent(tick=1, channel=1, data=[32, 37]),
   midi.PitchWheelEvent(tick=2, channel=1, data=[0, 37]),
   midi.PitchWheelEvent(tick=1, channel=1, data=[96, 36]),
   midi.PitchWheelEvent(tick=2, channel=1, data=[64, 36]),
   midi.PitchWheelEvent(tick=1, channel=1, data=[32, 36]),
   midi.PitchWheelEvent(tick=2, channel=1, data=[0, 36]),
   midi.PitchWheelEvent(tick=1, channel=1, data=[96, 35]),
   midi.PitchWheelEvent(tick=2, channel=1, data=[64, 35]),
   midi.PitchWheelEvent(tick=1, channel=1, data=[32, 35]),
   midi.PitchWheelEvent(tick=2, channel=1, data=[0, 35]),
   midi.PitchWheelEvent(tick=1, channel=1, data=[96, 34]),
   midi.PitchWheelEvent(tick=2, channel=1, data=[64, 34]),
   midi.PitchWheelEvent(tick=1, channel=1, data=[32, 34]),
   midi.PitchWheelEvent(tick=2, channel=1, data=[0, 34]),
   midi.PitchWheelEvent(tick=1, channel=1, data=[96, 33]),
   midi.PitchWheelEvent(tick=2, channel=1, data=[64, 33]),
   midi.PitchWheelEvent(tick=1, channel=1, data=[32, 33]),
   midi.PitchWheelEvent(tick=2, channel=1, data=[0, 33]),
   midi.PitchWheelEvent(tick=1, channel=1, data=[96, 32]),
   midi.PitchWheelEvent(tick=2, channel=1, data=[64, 32]),
   midi.PitchWheelEvent(tick=1, channel=1, data=[32, 32]),
   midi.PitchWheelEvent(tick=2, channel=1, data=[0, 32]),
   midi.PitchWheelEvent(tick=1, channel=1, data=[96, 31]),
   midi.PitchWheelEvent(tick=2, channel=1, data=[64, 31]),
   midi.PitchWheelEvent(tick=1, channel=1, data=[32, 31]),
   midi.PitchWheelEvent(tick=2, channel=1, data=[0, 31]),
   midi.PitchWheelEvent(tick=1, channel=1, data=[96, 30]),
   midi.PitchWheelEvent(tick=2, channel=1, data=[64, 30]),
   midi.PitchWheelEvent(tick=1, channel=1, data=[32, 30]),
   midi.PitchWheelEvent(tick=2, channel=1, data=[0, 30]),
   midi.PitchWheelEvent(tick=1, channel=1, data=[96, 29]),
   midi.PitchWheelEvent(tick=2, channel=1, data=[64, 29]),
   midi.PitchWheelEvent(tick=1, channel=1, data=[32, 29]),
   midi.PitchWheelEvent(tick=2, channel=1, data=[0, 29]),
   midi.PitchWheelEvent(tick=1, channel=1, data=[96, 28]),
   midi.PitchWheelEvent(tick=2, channel=1, data=[64, 28]),
   midi.PitchWheelEvent(tick=1, channel=1, data=[32, 28]),
   midi.PitchWheelEvent(tick=2, channel=1, data=[0, 28]),
   midi.PitchWheelEvent(tick=1, channel=1, data=[96, 27]),
   midi.PitchWheelEvent(tick=2, channel=1, data=[64, 27]),
   midi.PitchWheelEvent(tick=1, channel=1, data=[32, 27]),
   midi.PitchWheelEvent(tick=2, channel=1, data=[0, 27]),
   midi.PitchWheelEvent(tick=1, channel=1, data=[96, 26]),
   midi.PitchWheelEvent(tick=2, channel=1, data=[64, 26]),
   midi.PitchWheelEvent(tick=1, channel=1, data=[32, 26]),
   midi.PitchWheelEvent(tick=2, channel=1, data=[0, 26]),
   midi.PitchWheelEvent(tick=1, channel=1, data=[96, 25]),
   midi.PitchWheelEvent(tick=2, channel=1, data=[64, 25]),
   midi.PitchWheelEvent(tick=1, channel=1, data=[32, 25]),
   midi.PitchWheelEvent(tick=2, channel=1, data=[0, 25]),
   midi.PitchWheelEvent(tick=1, channel=1, data=[96, 24]),
   midi.PitchWheelEvent(tick=2, channel=1, data=[64, 24]),
   midi.PitchWheelEvent(tick=1, channel=1, data=[32, 24]),
   midi.PitchWheelEvent(tick=2, channel=1, data=[0, 24]),
   midi.PitchWheelEvent(tick=1, channel=1, data=[96, 23]),
   midi.PitchWheelEvent(tick=2, channel=1, data=[64, 23]),
   midi.PitchWheelEvent(tick=1, channel=1, data=[32, 23]),
   midi.PitchWheelEvent(tick=2, channel=1, data=[0, 23]),
   midi.PitchWheelEvent(tick=1, channel=1, data=[96, 22]),
   midi.PitchWheelEvent(tick=2, channel=1, data=[64, 22]),
   midi.PitchWheelEvent(tick=1, channel=1, data=[32, 22]),
   midi.PitchWheelEvent(tick=2, channel=1, data=[0, 22]),
   midi.PitchWheelEvent(tick=1, channel=1, data=[96, 21]),
   midi.PitchWheelEvent(tick=2, channel=1, data=[64, 21]),
   midi.PitchWheelEvent(tick=1, channel=1, data=[32, 21]),
   midi.PitchWheelEvent(tick=2, channel=1, data=[0, 21]),
   midi.PitchWheelEvent(tick=1, channel=1, data=[96, 20]),
   midi.PitchWheelEvent(tick=2, channel=1, data=[64, 20]),
   midi.PitchWheelEvent(tick=1, channel=1, data=[32, 20]),
   midi.PitchWheelEvent(tick=2, channel=1, data=[0, 20]),
   midi.PitchWheelEvent(tick=1, channel=1, data=[96, 19]),
   midi.PitchWheelEvent(tick=2, channel=1, data=[64, 19]),
   midi.PitchWheelEvent(tick=1, channel=1, data=[32, 19]),
   midi.PitchWheelEvent(tick=2, channel=1, data=[0, 19]),
   midi.PitchWheelEvent(tick=1, channel=1, data=[96, 18]),
   midi.PitchWheelEvent(tick=2, channel=1, data=[64, 18]),
   midi.PitchWheelEvent(tick=1, channel=1, data=[32, 18]),
   midi.PitchWheelEvent(tick=2, channel=1, data=[0, 18]),
   midi.PitchWheelEvent(tick=1, channel=1, data=[96, 17]),
   midi.PitchWheelEvent(tick=2, channel=1, data=[64, 17]),
   midi.PitchWheelEvent(tick=1, channel=1, data=[32, 17]),
   midi.PitchWheelEvent(tick=2, channel=1, data=[0, 17]),
   midi.PitchWheelEvent(tick=1, channel=1, data=[96, 16]),
   midi.PitchWheelEvent(tick=2, channel=1, data=[64, 16]),
   midi.PitchWheelEvent(tick=1, channel=1, data=[32, 16]),
   midi.PitchWheelEvent(tick=2, channel=1, data=[0, 16]),
   midi.PitchWheelEvent(tick=1, channel=1, data=[96, 15]),
   midi.PitchWheelEvent(tick=2, channel=1, data=[64, 15]),
   midi.PitchWheelEvent(tick=1, channel=1, data=[32, 15]),
   midi.PitchWheelEvent(tick=2, channel=1, data=[0, 15]),
   midi.PitchWheelEvent(tick=1, channel=1, data=[96, 14]),
   midi.PitchWheelEvent(tick=2, channel=1, data=[64, 14]),
   midi.PitchWheelEvent(tick=1, channel=1, data=[32, 14]),
   midi.PitchWheelEvent(tick=2, channel=1, data=[0, 14]),
   midi.PitchWheelEvent(tick=1, channel=1, data=[96, 13]),
   midi.PitchWheelEvent(tick=2, channel=1, data=[64, 13]),
   midi.PitchWheelEvent(tick=1, channel=1, data=[32, 13]),
   midi.PitchWheelEvent(tick=2, channel=1, data=[0, 13]),
   midi.PitchWheelEvent(tick=1, channel=1, data=[96, 12]),
   midi.PitchWheelEvent(tick=2, channel=1, data=[64, 12]),
   midi.PitchWheelEvent(tick=1, channel=1, data=[32, 12]),
   midi.PitchWheelEvent(tick=2, channel=1, data=[0, 12]),
   midi.PitchWheelEvent(tick=1, channel=1, data=[96, 11]),
   midi.PitchWheelEvent(tick=2, channel=1, data=[64, 11]),
   midi.PitchWheelEvent(tick=1, channel=1, data=[32, 11]),
   midi.PitchWheelEvent(tick=2, channel=1, data=[0, 11]),
   midi.PitchWheelEvent(tick=1, channel=1, data=[96, 10]),
   midi.PitchWheelEvent(tick=2, channel=1, data=[64, 10]),
   midi.PitchWheelEvent(tick=1, channel=1, data=[32, 10]),
   midi.PitchWheelEvent(tick=2, channel=1, data=[0, 10]),
   midi.PitchWheelEvent(tick=1, channel=1, data=[96, 9]),
   midi.PitchWheelEvent(tick=2, channel=1, data=[64, 9]),
   midi.PitchWheelEvent(tick=1, channel=1, data=[32, 9]),
   midi.PitchWheelEvent(tick=2, channel=1, data=[0, 9]),
   midi.PitchWheelEvent(tick=1, channel=1, data=[96, 8]),
   midi.PitchWheelEvent(tick=2, channel=1, data=[64, 8]),
   midi.PitchWheelEvent(tick=1, channel=1, data=[32, 8]),
   midi.PitchWheelEvent(tick=2, channel=1, data=[0, 8]),
   midi.PitchWheelEvent(tick=1, channel=1, data=[96, 7]),
   midi.PitchWheelEvent(tick=2, channel=1, data=[64, 7]),
   midi.PitchWheelEvent(tick=1, channel=1, data=[32, 7]),
   midi.PitchWheelEvent(tick=2, channel=1, data=[0, 7]),
   midi.PitchWheelEvent(tick=1, channel=1, data=[96, 6]),
   midi.PitchWheelEvent(tick=2, channel=1, data=[64, 6]),
   midi.PitchWheelEvent(tick=1, channel=1, data=[32, 6]),
   midi.PitchWheelEvent(tick=2, channel=1, data=[0, 6]),
   midi.PitchWheelEvent(tick=1, channel=1, data=[96, 5]),
   midi.PitchWheelEvent(tick=2, channel=1, data=[64, 5]),
   midi.PitchWheelEvent(tick=1, channel=1, data=[32, 5]),
   midi.PitchWheelEvent(tick=2, channel=1, data=[0, 5]),
   midi.PitchWheelEvent(tick=1, channel=1, data=[96, 4]),
   midi.PitchWheelEvent(tick=2, channel=1, data=[64, 4]),
   midi.PitchWheelEvent(tick=1, channel=1, data=[32, 4]),
   midi.PitchWheelEvent(tick=2, channel=1, data=[0, 4]),
   midi.PitchWheelEvent(tick=1, channel=1, data=[96, 3]),
   midi.PitchWheelEvent(tick=2, channel=1, data=[64, 3]),
   midi.PitchWheelEvent(tick=1, channel=1, data=[32, 3]),
   midi.PitchWheelEvent(tick=2, channel=1, data=[0, 3]),
   midi.PitchWheelEvent(tick=1, channel=1, data=[96, 2]),
   midi.PitchWheelEvent(tick=2, channel=1, data=[64, 2]),
   midi.PitchWheelEvent(tick=1, channel=1, data=[32, 2]),
   midi.PitchWheelEvent(tick=2, channel=1, data=[0, 2]),
   midi.PitchWheelEvent(tick=1, channel=1, data=[96, 1]),
   midi.PitchWheelEvent(tick=2, channel=1, data=[64, 1]),
   midi.PitchWheelEvent(tick=1, channel=1, data=[32, 1]),
   midi.PitchWheelEvent(tick=2, channel=1, data=[0, 1]),
   midi.PitchWheelEvent(tick=1, channel=1, data=[96, 0]),
   midi.PitchWheelEvent(tick=2, channel=1, data=[64, 0]),
   midi.PitchWheelEvent(tick=1, channel=1, data=[32, 0]),
   midi.PitchWheelEvent(tick=2, channel=1, data=[0, 0]),
   midi.NoteOnEvent(tick=160, channel=1, data=[71, 0]),
   midi.PitchWheelEvent(tick=32, channel=1, data=[0, 64]),
   midi.NoteOnEvent(tick=0, channel=1, data=[59, 110]),
   midi.NoteOnEvent(tick=0, channel=1, data=[66, 110]),
   midi.NoteOnEvent(tick=0, channel=1, data=[71, 110]),
   midi.NoteOnEvent(tick=126, channel=1, data=[59, 0]),
   midi.NoteOnEvent(tick=0, channel=1, data=[66, 0]),
   midi.NoteOnEvent(tick=0, channel=1, data=[71, 0]),
   midi.NoteOnEvent(tick=2, channel=1, data=[58, 110]),
   midi.NoteOnEvent(tick=0, channel=1, data=[65, 110]),
   midi.NoteOnEvent(tick=0, channel=1, data=[70, 110]),
   midi.NoteOnEvent(tick=126, channel=1, data=[58, 0]),
   midi.NoteOnEvent(tick=0, channel=1, data=[65, 0]),
   midi.NoteOnEvent(tick=0, channel=1, data=[70, 0]),
   midi.NoteOnEvent(tick=2, channel=1, data=[59, 110]),
   midi.NoteOnEvent(tick=0, channel=1, data=[66, 110]),
   midi.NoteOnEvent(tick=0, channel=1, data=[71, 110]),
   midi.NoteOnEvent(tick=126, channel=1, data=[59, 0]),
   midi.NoteOnEvent(tick=0, channel=1, data=[66, 0]),
   midi.NoteOnEvent(tick=0, channel=1, data=[71, 0]),
   midi.NoteOnEvent(tick=2, channel=1, data=[60, 110]),
   midi.NoteOnEvent(tick=0, channel=1, data=[67, 110]),
   midi.NoteOnEvent(tick=0, channel=1, data=[72, 110]),
   midi.NoteOnEvent(tick=160, channel=1, data=[60, 0]),
   midi.NoteOnEvent(tick=0, channel=1, data=[67, 0]),
   midi.NoteOnEvent(tick=0, channel=1, data=[72, 0]),
   midi.NoteOnEvent(tick=32, channel=1, data=[59, 110]),
   midi.NoteOnEvent(tick=0, channel=1, data=[66, 110]),
   midi.NoteOnEvent(tick=0, channel=1, data=[71, 110]),
   midi.NoteOnEvent(tick=160, channel=1, data=[59, 0]),
   midi.NoteOnEvent(tick=0, channel=1, data=[66, 0]),
   midi.NoteOnEvent(tick=0, channel=1, data=[71, 0]),
   midi.NoteOnEvent(tick=32, channel=1, data=[52, 110]),
   midi.NoteOnEvent(tick=0, channel=1, data=[64, 110]),
   midi.NoteOnEvent(tick=0, channel=1, data=[71, 110]),
   midi.NoteOnEvent(tick=0, channel=1, data=[76, 110]),
   midi.NoteOnEvent(tick=94, channel=1, data=[52, 0]),
   midi.NoteOnEvent(tick=0, channel=1, data=[64, 0]),
   midi.NoteOnEvent(tick=0, channel=1, data=[71, 0]),
   midi.NoteOnEvent(tick=0, channel=1, data=[76, 0]),
   midi.NoteOnEvent(tick=2, channel=1, data=[52, 110]),
   midi.NoteOnEvent(tick=46, channel=1, data=[52, 0]),
   midi.NoteOnEvent(tick=2, channel=1, data=[52, 110]),
   midi.NoteOnEvent(tick=46, channel=1, data=[52, 0]),
   midi.NoteOnEvent(tick=2, channel=1, data=[52, 110]),
   midi.NoteOnEvent(tick=94, channel=1, data=[52, 0]),
   midi.NoteOnEvent(tick=2, channel=1, data=[52, 110]),
   midi.NoteOnEvent(tick=94, channel=1, data=[52, 0]),
   midi.NoteOnEvent(tick=2, channel=1, data=[52, 110]),
   midi.NoteOnEvent(tick=94, channel=1, data=[52, 0]),
   midi.NoteOnEvent(tick=2, channel=1, data=[52, 110]),
   midi.NoteOnEvent(tick=94, channel=1, data=[52, 0]),
   midi.NoteOnEvent(tick=2, channel=1, data=[52, 110]),
   midi.NoteOnEvent(tick=94, channel=1, data=[52, 0]),
   midi.NoteOnEvent(tick=2, channel=1, data=[55, 110]),
   midi.NoteOnEvent(tick=0, channel=1, data=[62, 110]),
   midi.NoteOnEvent(tick=0, channel=1, data=[67, 110]),
   midi.NoteOnEvent(tick=574, channel=1, data=[55, 0]),
   midi.NoteOnEvent(tick=0, channel=1, data=[62, 0]),
   midi.NoteOnEvent(tick=0, channel=1, data=[67, 0]),
   midi.NoteOnEvent(tick=2, channel=1, data=[58, 110]),
   midi.NoteOnEvent(tick=0, channel=1, data=[65, 110]),
   midi.NoteOnEvent(tick=0, channel=1, data=[70, 110]),
   midi.NoteOnEvent(tick=160, channel=1, data=[58, 0]),
   midi.NoteOnEvent(tick=0, channel=1, data=[65, 0]),
   midi.NoteOnEvent(tick=0, channel=1, data=[70, 0]),
   midi.NoteOnEvent(tick=32, channel=1, data=[54, 110]),
   midi.NoteOnEvent(tick=0, channel=1, data=[61, 110]),
   midi.NoteOnEvent(tick=0, channel=1, data=[66, 110]),
   midi.NoteOnEvent(tick=574, channel=1, data=[54, 0]),
   midi.NoteOnEvent(tick=0, channel=1, data=[61, 0]),
   midi.NoteOnEvent(tick=0, channel=1, data=[66, 0]),
   midi.NoteOnEvent(tick=2, channel=1, data=[57, 110]),
   midi.NoteOnEvent(tick=0, channel=1, data=[64, 110]),
   midi.NoteOnEvent(tick=0, channel=1, data=[69, 110]),
   midi.NoteOnEvent(tick=160, channel=1, data=[57, 0]),
   midi.NoteOnEvent(tick=0, channel=1, data=[64, 0]),
   midi.NoteOnEvent(tick=0, channel=1, data=[69, 0]),
   midi.NoteOnEvent(tick=32, channel=1, data=[53, 110]),
   midi.NoteOnEvent(tick=0, channel=1, data=[60, 110]),
   midi.NoteOnEvent(tick=0, channel=1, data=[65, 110]),
   midi.NoteOnEvent(tick=574, channel=1, data=[53, 0]),
   midi.NoteOnEvent(tick=0, channel=1, data=[60, 0]),
   midi.NoteOnEvent(tick=0, channel=1, data=[65, 0]),
   midi.NoteOnEvent(tick=2, channel=1, data=[55, 110]),
   midi.NoteOnEvent(tick=0, channel=1, data=[62, 110]),
   midi.NoteOnEvent(tick=0, channel=1, data=[67, 110]),
   midi.NoteOnEvent(tick=256, channel=1, data=[55, 0]),
   midi.NoteOnEvent(tick=0, channel=1, data=[62, 0]),
   midi.NoteOnEvent(tick=0, channel=1, data=[67, 0]),
   midi.NoteOnEvent(tick=32, channel=1, data=[52, 110]),
   midi.NoteOnEvent(tick=94, channel=1, data=[52, 0]),
   midi.NoteOnEvent(tick=2, channel=1, data=[52, 110]),
   midi.NoteOnEvent(tick=46, channel=1, data=[52, 0]),
   midi.NoteOnEvent(tick=2, channel=1, data=[52, 110]),
   midi.NoteOnEvent(tick=46, channel=1, data=[52, 0]),
   midi.NoteOnEvent(tick=2, channel=1, data=[52, 110]),
   midi.NoteOnEvent(tick=94, channel=1, data=[52, 0]),
   midi.NoteOnEvent(tick=2, channel=1, data=[52, 110]),
   midi.NoteOnEvent(tick=94, channel=1, data=[52, 0]),
   midi.NoteOnEvent(tick=2, channel=1, data=[52, 110]),
   midi.NoteOnEvent(tick=94, channel=1, data=[52, 0]),
   midi.NoteOnEvent(tick=2, channel=1, data=[52, 110]),
   midi.NoteOnEvent(tick=94, channel=1, data=[52, 0]),
   midi.NoteOnEvent(tick=2, channel=1, data=[52, 110]),
   midi.NoteOnEvent(tick=94, channel=1, data=[52, 0]),
   midi.NoteOnEvent(tick=2, channel=1, data=[55, 110]),
   midi.NoteOnEvent(tick=0, channel=1, data=[62, 110]),
   midi.NoteOnEvent(tick=0, channel=1, data=[67, 110]),
   midi.NoteOnEvent(tick=574, channel=1, data=[55, 0]),
   midi.NoteOnEvent(tick=0, channel=1, data=[62, 0]),
   midi.NoteOnEvent(tick=0, channel=1, data=[67, 0]),
   midi.NoteOnEvent(tick=2, channel=1, data=[58, 110]),
   midi.NoteOnEvent(tick=0, channel=1, data=[65, 110]),
   midi.NoteOnEvent(tick=0, channel=1, data=[70, 110]),
   midi.NoteOnEvent(tick=160, channel=1, data=[58, 0]),
   midi.NoteOnEvent(tick=0, channel=1, data=[65, 0]),
   midi.NoteOnEvent(tick=0, channel=1, data=[70, 0]),
   midi.NoteOnEvent(tick=32, channel=1, data=[54, 110]),
   midi.NoteOnEvent(tick=0, channel=1, data=[61, 110]),
   midi.NoteOnEvent(tick=0, channel=1, data=[66, 110]),
   midi.NoteOnEvent(tick=574, channel=1, data=[54, 0]),
   midi.NoteOnEvent(tick=0, channel=1, data=[61, 0]),
   midi.NoteOnEvent(tick=0, channel=1, data=[66, 0]),
   midi.NoteOnEvent(tick=2, channel=1, data=[57, 110]),
   midi.NoteOnEvent(tick=0, channel=1, data=[64, 110]),
   midi.NoteOnEvent(tick=0, channel=1, data=[69, 110]),
   midi.NoteOnEvent(tick=160, channel=1, data=[57, 0]),
   midi.NoteOnEvent(tick=0, channel=1, data=[64, 0]),
   midi.NoteOnEvent(tick=0, channel=1, data=[69, 0]),
   midi.NoteOnEvent(tick=32, channel=1, data=[53, 110]),
   midi.NoteOnEvent(tick=0, channel=1, data=[60, 110]),
   midi.NoteOnEvent(tick=0, channel=1, data=[65, 110]),
   midi.NoteOnEvent(tick=574, channel=1, data=[53, 0]),
   midi.NoteOnEvent(tick=0, channel=1, data=[60, 0]),
   midi.NoteOnEvent(tick=0, channel=1, data=[65, 0]),
   midi.NoteOnEvent(tick=2, channel=1, data=[55, 110]),
   midi.NoteOnEvent(tick=0, channel=1, data=[62, 110]),
   midi.NoteOnEvent(tick=0, channel=1, data=[67, 110]),
   midi.NoteOnEvent(tick=256, channel=1, data=[55, 0]),
   midi.NoteOnEvent(tick=0, channel=1, data=[62, 0]),
   midi.NoteOnEvent(tick=0, channel=1, data=[67, 0]),
   midi.NoteOnEvent(tick=32, channel=1, data=[52, 110]),
   midi.NoteOnEvent(tick=94, channel=1, data=[52, 0]),
   midi.NoteOnEvent(tick=2, channel=1, data=[52, 110]),
   midi.NoteOnEvent(tick=46, channel=1, data=[52, 0]),
   midi.NoteOnEvent(tick=2, channel=1, data=[52, 110]),
   midi.NoteOnEvent(tick=46, channel=1, data=[52, 0]),
   midi.NoteOnEvent(tick=2, channel=1, data=[52, 110]),
   midi.NoteOnEvent(tick=94, channel=1, data=[52, 0]),
   midi.NoteOnEvent(tick=2, channel=1, data=[52, 110]),
   midi.NoteOnEvent(tick=94, channel=1, data=[52, 0]),
   midi.NoteOnEvent(tick=2, channel=1, data=[52, 110]),
   midi.NoteOnEvent(tick=94, channel=1, data=[52, 0]),
   midi.NoteOnEvent(tick=2, channel=1, data=[52, 110]),
   midi.NoteOnEvent(tick=94, channel=1, data=[52, 0]),
   midi.NoteOnEvent(tick=2, channel=1, data=[52, 110]),
   midi.NoteOnEvent(tick=94, channel=1, data=[52, 0]),
   midi.NoteOnEvent(tick=2, channel=1, data=[55, 110]),
   midi.NoteOnEvent(tick=0, channel=1, data=[62, 110]),
   midi.NoteOnEvent(tick=0, channel=1, data=[67, 110]),
   midi.NoteOnEvent(tick=574, channel=1, data=[55, 0]),
   midi.NoteOnEvent(tick=0, channel=1, data=[62, 0]),
   midi.NoteOnEvent(tick=0, channel=1, data=[67, 0]),
   midi.NoteOnEvent(tick=2, channel=1, data=[58, 110]),
   midi.NoteOnEvent(tick=0, channel=1, data=[65, 110]),
   midi.NoteOnEvent(tick=0, channel=1, data=[70, 110]),
   midi.NoteOnEvent(tick=160, channel=1, data=[58, 0]),
   midi.NoteOnEvent(tick=0, channel=1, data=[65, 0]),
   midi.NoteOnEvent(tick=0, channel=1, data=[70, 0]),
   midi.NoteOnEvent(tick=32, channel=1, data=[54, 110]),
   midi.NoteOnEvent(tick=0, channel=1, data=[61, 110]),
   midi.NoteOnEvent(tick=0, channel=1, data=[66, 110]),
   midi.NoteOnEvent(tick=574, channel=1, data=[54, 0]),
   midi.NoteOnEvent(tick=0, channel=1, data=[61, 0]),
   midi.NoteOnEvent(tick=0, channel=1, data=[66, 0]),
   midi.NoteOnEvent(tick=2, channel=1, data=[57, 110]),
   midi.NoteOnEvent(tick=0, channel=1, data=[64, 110]),
   midi.NoteOnEvent(tick=0, channel=1, data=[69, 110]),
   midi.NoteOnEvent(tick=160, channel=1, data=[57, 0]),
   midi.NoteOnEvent(tick=0, channel=1, data=[64, 0]),
   midi.NoteOnEvent(tick=0, channel=1, data=[69, 0]),
   midi.NoteOnEvent(tick=32, channel=1, data=[53, 110]),
   midi.NoteOnEvent(tick=0, channel=1, data=[60, 110]),
   midi.NoteOnEvent(tick=0, channel=1, data=[65, 110]),
   midi.NoteOnEvent(tick=574, channel=1, data=[53, 0]),
   midi.NoteOnEvent(tick=0, channel=1, data=[60, 0]),
   midi.NoteOnEvent(tick=0, channel=1, data=[65, 0]),
   midi.NoteOnEvent(tick=2, channel=1, data=[55, 110]),
   midi.NoteOnEvent(tick=0, channel=1, data=[62, 110]),
   midi.NoteOnEvent(tick=0, channel=1, data=[67, 110]),
   midi.NoteOnEvent(tick=256, channel=1, data=[55, 0]),
   midi.NoteOnEvent(tick=0, channel=1, data=[62, 0]),
   midi.NoteOnEvent(tick=0, channel=1, data=[67, 0]),
   midi.NoteOnEvent(tick=32, channel=1, data=[52, 110]),
   midi.NoteOnEvent(tick=94, channel=1, data=[52, 0]),
   midi.NoteOnEvent(tick=2, channel=1, data=[52, 110]),
   midi.NoteOnEvent(tick=46, channel=1, data=[52, 0]),
   midi.NoteOnEvent(tick=2, channel=1, data=[52, 110]),
   midi.NoteOnEvent(tick=46, channel=1, data=[52, 0]),
   midi.NoteOnEvent(tick=2, channel=1, data=[52, 110]),
   midi.NoteOnEvent(tick=94, channel=1, data=[52, 0]),
   midi.NoteOnEvent(tick=2, channel=1, data=[52, 110]),
   midi.NoteOnEvent(tick=94, channel=1, data=[52, 0]),
   midi.NoteOnEvent(tick=2, channel=1, data=[52, 110]),
   midi.NoteOnEvent(tick=94, channel=1, data=[52, 0]),
   midi.NoteOnEvent(tick=2, channel=1, data=[52, 110]),
   midi.NoteOnEvent(tick=94, channel=1, data=[52, 0]),
   midi.NoteOnEvent(tick=2, channel=1, data=[52, 110]),
   midi.NoteOnEvent(tick=94, channel=1, data=[52, 0]),
   midi.NoteOnEvent(tick=2, channel=1, data=[55, 110]),
   midi.NoteOnEvent(tick=0, channel=1, data=[62, 110]),
   midi.NoteOnEvent(tick=0, channel=1, data=[67, 110]),
   midi.NoteOnEvent(tick=574, channel=1, data=[55, 0]),
   midi.NoteOnEvent(tick=0, channel=1, data=[62, 0]),
   midi.NoteOnEvent(tick=0, channel=1, data=[67, 0]),
   midi.NoteOnEvent(tick=2, channel=1, data=[58, 110]),
   midi.NoteOnEvent(tick=0, channel=1, data=[65, 110]),
   midi.NoteOnEvent(tick=0, channel=1, data=[70, 110]),
   midi.NoteOnEvent(tick=160, channel=1, data=[58, 0]),
   midi.NoteOnEvent(tick=0, channel=1, data=[65, 0]),
   midi.NoteOnEvent(tick=0, channel=1, data=[70, 0]),
   midi.NoteOnEvent(tick=32, channel=1, data=[54, 110]),
   midi.NoteOnEvent(tick=0, channel=1, data=[61, 110]),
   midi.NoteOnEvent(tick=0, channel=1, data=[66, 110]),
   midi.NoteOnEvent(tick=574, channel=1, data=[54, 0]),
   midi.NoteOnEvent(tick=0, channel=1, data=[61, 0]),
   midi.NoteOnEvent(tick=0, channel=1, data=[66, 0]),
   midi.NoteOnEvent(tick=2, channel=1, data=[57, 110]),
   midi.NoteOnEvent(tick=0, channel=1, data=[64, 110]),
   midi.NoteOnEvent(tick=0, channel=1, data=[69, 110]),
   midi.NoteOnEvent(tick=160, channel=1, data=[57, 0]),
   midi.NoteOnEvent(tick=0, channel=1, data=[64, 0]),
   midi.NoteOnEvent(tick=0, channel=1, data=[69, 0]),
   midi.NoteOnEvent(tick=32, channel=1, data=[53, 110]),
   midi.NoteOnEvent(tick=0, channel=1, data=[60, 110]),
   midi.NoteOnEvent(tick=0, channel=1, data=[65, 110]),
   midi.NoteOnEvent(tick=574, channel=1, data=[53, 0]),
   midi.NoteOnEvent(tick=0, channel=1, data=[60, 0]),
   midi.NoteOnEvent(tick=0, channel=1, data=[65, 0]),
   midi.NoteOnEvent(tick=2, channel=1, data=[55, 110]),
   midi.NoteOnEvent(tick=0, channel=1, data=[62, 110]),
   midi.NoteOnEvent(tick=0, channel=1, data=[67, 110]),
   midi.NoteOnEvent(tick=256, channel=1, data=[55, 0]),
   midi.NoteOnEvent(tick=0, channel=1, data=[62, 0]),
   midi.NoteOnEvent(tick=0, channel=1, data=[67, 0]),
   midi.NoteOnEvent(tick=32, channel=1, data=[52, 110]),
   midi.NoteOnEvent(tick=94, channel=1, data=[52, 0]),
   midi.NoteOnEvent(tick=2, channel=1, data=[52, 110]),
   midi.NoteOnEvent(tick=46, channel=1, data=[52, 0]),
   midi.NoteOnEvent(tick=2, channel=1, data=[52, 110]),
   midi.NoteOnEvent(tick=46, channel=1, data=[52, 0]),
   midi.NoteOnEvent(tick=2, channel=1, data=[52, 110]),
   midi.NoteOnEvent(tick=94, channel=1, data=[52, 0]),
   midi.NoteOnEvent(tick=2, channel=1, data=[52, 110]),
   midi.NoteOnEvent(tick=94, channel=1, data=[52, 0]),
   midi.NoteOnEvent(tick=2, channel=1, data=[52, 110]),
   midi.NoteOnEvent(tick=94, channel=1, data=[52, 0]),
   midi.NoteOnEvent(tick=2, channel=1, data=[52, 110]),
   midi.NoteOnEvent(tick=94, channel=1, data=[52, 0]),
   midi.NoteOnEvent(tick=2, channel=1, data=[52, 110]),
   midi.NoteOnEvent(tick=94, channel=1, data=[52, 0]),
   midi.NoteOnEvent(tick=2, channel=1, data=[52, 110]),
   midi.NoteOnEvent(tick=94, channel=1, data=[52, 0]),
   midi.NoteOnEvent(tick=290, channel=1, data=[52, 110]),
   midi.NoteOnEvent(tick=94, channel=1, data=[52, 0]),
   midi.NoteOnEvent(tick=2, channel=1, data=[52, 110]),
   midi.NoteOnEvent(tick=46, channel=1, data=[52, 0]),
   midi.NoteOnEvent(tick=2, channel=1, data=[52, 110]),
   midi.NoteOnEvent(tick=46, channel=1, data=[52, 0]),
   midi.NoteOnEvent(tick=2, channel=1, data=[52, 110]),
   midi.NoteOnEvent(tick=94, channel=1, data=[52, 0]),
   midi.NoteOnEvent(tick=2, channel=1, data=[52, 110]),
   midi.NoteOnEvent(tick=94, channel=1, data=[52, 0]),
   midi.NoteOnEvent(tick=2, channel=1, data=[52, 110]),
   midi.NoteOnEvent(tick=94, channel=1, data=[52, 0]),
   midi.NoteOnEvent(tick=2, channel=1, data=[52, 110]),
   midi.NoteOnEvent(tick=94, channel=1, data=[52, 0]),
   midi.NoteOnEvent(tick=2, channel=1, data=[52, 110]),
   midi.NoteOnEvent(tick=94, channel=1, data=[52, 0]),
   midi.NoteOnEvent(tick=2, channel=1, data=[52, 110]),
   midi.NoteOnEvent(tick=0, channel=1, data=[59, 110]),
   midi.NoteOnEvent(tick=0, channel=1, data=[64, 110]),
   midi.NoteOnEvent(tick=160, channel=1, data=[52, 0]),
   midi.NoteOnEvent(tick=0, channel=1, data=[59, 0]),
   midi.NoteOnEvent(tick=0, channel=1, data=[64, 0]),
   midi.NoteOnEvent(tick=32, channel=1, data=[52, 110]),
   midi.NoteOnEvent(tick=94, channel=1, data=[52, 0]),
   midi.NoteOnEvent(tick=2, channel=1, data=[52, 110]),
   midi.NoteOnEvent(tick=94, channel=1, data=[52, 0]),
   midi.NoteOnEvent(tick=2, channel=1, data=[52, 110]),
   midi.NoteOnEvent(tick=0, channel=1, data=[62, 110]),
   midi.NoteOnEvent(tick=94, channel=1, data=[52, 0]),
   midi.NoteOnEvent(tick=0, channel=1, data=[62, 0]),
   midi.NoteOnEvent(tick=2, channel=1, data=[64, 110]),
   midi.NoteOnEvent(tick=94, channel=1, data=[64, 0]),
   midi.NoteOnEvent(tick=2, channel=1, data=[52, 110]),
   midi.NoteOnEvent(tick=94, channel=1, data=[52, 0]),
   midi.NoteOnEvent(tick=2, channel=1, data=[52, 110]),
   midi.NoteOnEvent(tick=94, channel=1, data=[52, 0]),
   midi.NoteOnEvent(tick=2, channel=1, data=[52, 110]),
   midi.NoteOnEvent(tick=0, channel=1, data=[62, 110]),
   midi.NoteOnEvent(tick=160, channel=1, data=[52, 0]),
   midi.NoteOnEvent(tick=0, channel=1, data=[62, 0]),
   midi.NoteOnEvent(tick=32, channel=1, data=[52, 110]),
   midi.NoteOnEvent(tick=94, channel=1, data=[52, 0]),
   midi.NoteOnEvent(tick=2, channel=1, data=[52, 110]),
   midi.NoteOnEvent(tick=94, channel=1, data=[52, 0]),
   midi.NoteOnEvent(tick=2, channel=1, data=[52, 110]),
   midi.NoteOnEvent(tick=0, channel=1, data=[61, 110]),
   midi.NoteOnEvent(tick=94, channel=1, data=[52, 0]),
   midi.NoteOnEvent(tick=0, channel=1, data=[61, 0]),
   midi.NoteOnEvent(tick=2, channel=1, data=[64, 110]),
   midi.NoteOnEvent(tick=94, channel=1, data=[64, 0]),
   midi.NoteOnEvent(tick=2, channel=1, data=[52, 110]),
   midi.NoteOnEvent(tick=94, channel=1, data=[52, 0]),
   midi.NoteOnEvent(tick=2, channel=1, data=[52, 110]),
   midi.NoteOnEvent(tick=94, channel=1, data=[52, 0]),
   midi.NoteOnEvent(tick=2, channel=1, data=[52, 110]),
   midi.NoteOnEvent(tick=0, channel=1, data=[59, 110]),
   midi.NoteOnEvent(tick=0, channel=1, data=[64, 110]),
   midi.NoteOnEvent(tick=160, channel=1, data=[52, 0]),
   midi.NoteOnEvent(tick=0, channel=1, data=[59, 0]),
   midi.NoteOnEvent(tick=0, channel=1, data=[64, 0]),
   midi.NoteOnEvent(tick=32, channel=1, data=[52, 110]),
   midi.NoteOnEvent(tick=94, channel=1, data=[52, 0]),
   midi.NoteOnEvent(tick=2, channel=1, data=[52, 110]),
   midi.NoteOnEvent(tick=94, channel=1, data=[52, 0]),
   midi.NoteOnEvent(tick=2, channel=1, data=[52, 110]),
   midi.NoteOnEvent(tick=0, channel=1, data=[62, 110]),
   midi.NoteOnEvent(tick=94, channel=1, data=[52, 0]),
   midi.NoteOnEvent(tick=0, channel=1, data=[62, 0]),
   midi.NoteOnEvent(tick=2, channel=1, data=[64, 110]),
   midi.NoteOnEvent(tick=94, channel=1, data=[64, 0]),
   midi.NoteOnEvent(tick=2, channel=1, data=[52, 110]),
   midi.NoteOnEvent(tick=94, channel=1, data=[52, 0]),
   midi.NoteOnEvent(tick=2, channel=1, data=[52, 110]),
   midi.NoteOnEvent(tick=94, channel=1, data=[52, 0]),
   midi.NoteOnEvent(tick=2, channel=1, data=[52, 110]),
   midi.NoteOnEvent(tick=0, channel=1, data=[62, 110]),
   midi.NoteOnEvent(tick=160, channel=1, data=[52, 0]),
   midi.NoteOnEvent(tick=0, channel=1, data=[62, 0]),
   midi.NoteOnEvent(tick=32, channel=1, data=[52, 110]),
   midi.NoteOnEvent(tick=94, channel=1, data=[52, 0]),
   midi.NoteOnEvent(tick=2, channel=1, data=[52, 110]),
   midi.NoteOnEvent(tick=94, channel=1, data=[52, 0]),
   midi.NoteOnEvent(tick=2, channel=1, data=[52, 110]),
   midi.NoteOnEvent(tick=0, channel=1, data=[61, 110]),
   midi.NoteOnEvent(tick=94, channel=1, data=[52, 0]),
   midi.NoteOnEvent(tick=0, channel=1, data=[61, 0]),
   midi.NoteOnEvent(tick=2, channel=1, data=[64, 110]),
   midi.NoteOnEvent(tick=94, channel=1, data=[64, 0]),
   midi.NoteOnEvent(tick=2, channel=1, data=[52, 110]),
   midi.NoteOnEvent(tick=0, channel=1, data=[59, 110]),
   midi.NoteOnEvent(tick=160, channel=1, data=[52, 0]),
   midi.NoteOnEvent(tick=0, channel=1, data=[59, 0]),
   midi.NoteOnEvent(tick=32, channel=1, data=[52, 110]),
   midi.NoteOnEvent(tick=0, channel=1, data=[59, 110]),
   midi.NoteOnEvent(tick=0, channel=1, data=[64, 110]),
   midi.NoteOnEvent(tick=160, channel=1, data=[52, 0]),
   midi.NoteOnEvent(tick=0, channel=1, data=[59, 0]),
   midi.NoteOnEvent(tick=0, channel=1, data=[64, 0]),
   midi.NoteOnEvent(tick=32, channel=1, data=[52, 110]),
   midi.NoteOnEvent(tick=94, channel=1, data=[52, 0]),
   midi.NoteOnEvent(tick=2, channel=1, data=[52, 110]),
   midi.NoteOnEvent(tick=94, channel=1, data=[52, 0]),
   midi.NoteOnEvent(tick=2, channel=1, data=[52, 110]),
   midi.NoteOnEvent(tick=0, channel=1, data=[62, 110]),
   midi.NoteOnEvent(tick=94, channel=1, data=[52, 0]),
   midi.NoteOnEvent(tick=0, channel=1, data=[62, 0]),
   midi.NoteOnEvent(tick=2, channel=1, data=[64, 110]),
   midi.NoteOnEvent(tick=94, channel=1, data=[64, 0]),
   midi.NoteOnEvent(tick=2, channel=1, data=[52, 110]),
   midi.NoteOnEvent(tick=94, channel=1, data=[52, 0]),
   midi.NoteOnEvent(tick=2, channel=1, data=[52, 110]),
   midi.NoteOnEvent(tick=94, channel=1, data=[52, 0]),
   midi.NoteOnEvent(tick=2, channel=1, data=[52, 110]),
   midi.NoteOnEvent(tick=0, channel=1, data=[62, 110]),
   midi.NoteOnEvent(tick=160, channel=1, data=[52, 0]),
   midi.NoteOnEvent(tick=0, channel=1, data=[62, 0]),
   midi.NoteOnEvent(tick=32, channel=1, data=[52, 110]),
   midi.NoteOnEvent(tick=94, channel=1, data=[52, 0]),
   midi.NoteOnEvent(tick=2, channel=1, data=[52, 110]),
   midi.NoteOnEvent(tick=94, channel=1, data=[52, 0]),
   midi.NoteOnEvent(tick=2, channel=1, data=[52, 110]),
   midi.NoteOnEvent(tick=0, channel=1, data=[61, 110]),
   midi.NoteOnEvent(tick=94, channel=1, data=[52, 0]),
   midi.NoteOnEvent(tick=0, channel=1, data=[61, 0]),
   midi.NoteOnEvent(tick=2, channel=1, data=[64, 110]),
   midi.NoteOnEvent(tick=94, channel=1, data=[64, 0]),
   midi.NoteOnEvent(tick=2, channel=1, data=[52, 110]),
   midi.NoteOnEvent(tick=94, channel=1, data=[52, 0]),
   midi.NoteOnEvent(tick=2, channel=1, data=[52, 110]),
   midi.NoteOnEvent(tick=94, channel=1, data=[52, 0]),
   midi.NoteOnEvent(tick=2, channel=1, data=[52, 110]),
   midi.NoteOnEvent(tick=0, channel=1, data=[59, 110]),
   midi.NoteOnEvent(tick=0, channel=1, data=[64, 110]),
   midi.NoteOnEvent(tick=160, channel=1, data=[52, 0]),
   midi.NoteOnEvent(tick=0, channel=1, data=[59, 0]),
   midi.NoteOnEvent(tick=0, channel=1, data=[64, 0]),
   midi.NoteOnEvent(tick=32, channel=1, data=[52, 110]),
   midi.NoteOnEvent(tick=94, channel=1, data=[52, 0]),
   midi.NoteOnEvent(tick=2, channel=1, data=[52, 110]),
   midi.NoteOnEvent(tick=94, channel=1, data=[52, 0]),
   midi.NoteOnEvent(tick=2, channel=1, data=[52, 110]),
   midi.NoteOnEvent(tick=0, channel=1, data=[62, 110]),
   midi.NoteOnEvent(tick=94, channel=1, data=[52, 0]),
   midi.NoteOnEvent(tick=0, channel=1, data=[62, 0]),
   midi.NoteOnEvent(tick=2, channel=1, data=[64, 110]),
   midi.NoteOnEvent(tick=94, channel=1, data=[64, 0]),
   midi.NoteOnEvent(tick=2, channel=1, data=[52, 110]),
   midi.NoteOnEvent(tick=94, channel=1, data=[52, 0]),
   midi.NoteOnEvent(tick=2, channel=1, data=[52, 110]),
   midi.NoteOnEvent(tick=94, channel=1, data=[52, 0]),
   midi.NoteOnEvent(tick=2, channel=1, data=[52, 110]),
   midi.NoteOnEvent(tick=0, channel=1, data=[62, 110]),
   midi.NoteOnEvent(tick=160, channel=1, data=[52, 0]),
   midi.NoteOnEvent(tick=0, channel=1, data=[62, 0]),
   midi.NoteOnEvent(tick=32, channel=1, data=[52, 110]),
   midi.NoteOnEvent(tick=94, channel=1, data=[52, 0]),
   midi.NoteOnEvent(tick=2, channel=1, data=[52, 110]),
   midi.NoteOnEvent(tick=94, channel=1, data=[52, 0]),
   midi.NoteOnEvent(tick=2, channel=1, data=[52, 110]),
   midi.NoteOnEvent(tick=0, channel=1, data=[61, 110]),
   midi.NoteOnEvent(tick=94, channel=1, data=[52, 0]),
   midi.NoteOnEvent(tick=0, channel=1, data=[61, 0]),
   midi.NoteOnEvent(tick=2, channel=1, data=[64, 110]),
   midi.NoteOnEvent(tick=94, channel=1, data=[64, 0]),
   midi.NoteOnEvent(tick=2, channel=1, data=[52, 110]),
   midi.NoteOnEvent(tick=0, channel=1, data=[59, 110]),
   midi.NoteOnEvent(tick=160, channel=1, data=[52, 0]),
   midi.NoteOnEvent(tick=0, channel=1, data=[59, 0]),
   midi.NoteOnEvent(tick=32, channel=1, data=[52, 110]),
   midi.NoteOnEvent(tick=0, channel=1, data=[59, 110]),
   midi.NoteOnEvent(tick=0, channel=1, data=[64, 110]),
   midi.NoteOnEvent(tick=160, channel=1, data=[52, 0]),
   midi.NoteOnEvent(tick=0, channel=1, data=[59, 0]),
   midi.NoteOnEvent(tick=0, channel=1, data=[64, 0]),
   midi.NoteOnEvent(tick=32, channel=1, data=[52, 110]),
   midi.NoteOnEvent(tick=94, channel=1, data=[52, 0]),
   midi.NoteOnEvent(tick=2, channel=1, data=[52, 110]),
   midi.NoteOnEvent(tick=94, channel=1, data=[52, 0]),
   midi.NoteOnEvent(tick=2, channel=1, data=[52, 110]),
   midi.NoteOnEvent(tick=0, channel=1, data=[62, 110]),
   midi.NoteOnEvent(tick=94, channel=1, data=[52, 0]),
   midi.NoteOnEvent(tick=0, channel=1, data=[62, 0]),
   midi.NoteOnEvent(tick=2, channel=1, data=[64, 110]),
   midi.NoteOnEvent(tick=94, channel=1, data=[64, 0]),
   midi.NoteOnEvent(tick=2, channel=1, data=[52, 110]),
   midi.NoteOnEvent(tick=94, channel=1, data=[52, 0]),
   midi.NoteOnEvent(tick=2, channel=1, data=[52, 110]),
   midi.NoteOnEvent(tick=94, channel=1, data=[52, 0]),
   midi.NoteOnEvent(tick=2, channel=1, data=[52, 110]),
   midi.NoteOnEvent(tick=0, channel=1, data=[62, 110]),
   midi.NoteOnEvent(tick=160, channel=1, data=[52, 0]),
   midi.NoteOnEvent(tick=0, channel=1, data=[62, 0]),
   midi.NoteOnEvent(tick=32, channel=1, data=[52, 110]),
   midi.NoteOnEvent(tick=94, channel=1, data=[52, 0]),
   midi.NoteOnEvent(tick=2, channel=1, data=[52, 110]),
   midi.NoteOnEvent(tick=94, channel=1, data=[52, 0]),
   midi.NoteOnEvent(tick=2, channel=1, data=[52, 110]),
   midi.NoteOnEvent(tick=0, channel=1, data=[61, 110]),
   midi.NoteOnEvent(tick=94, channel=1, data=[52, 0]),
   midi.NoteOnEvent(tick=0, channel=1, data=[61, 0]),
   midi.NoteOnEvent(tick=2, channel=1, data=[64, 110]),
   midi.NoteOnEvent(tick=94, channel=1, data=[64, 0]),
   midi.NoteOnEvent(tick=2, channel=1, data=[52, 110]),
   midi.NoteOnEvent(tick=94, channel=1, data=[52, 0]),
   midi.NoteOnEvent(tick=2, channel=1, data=[52, 110]),
   midi.NoteOnEvent(tick=94, channel=1, data=[52, 0]),
   midi.NoteOnEvent(tick=2, channel=1, data=[52, 110]),
   midi.NoteOnEvent(tick=0, channel=1, data=[59, 110]),
   midi.NoteOnEvent(tick=0, channel=1, data=[64, 110]),
   midi.NoteOnEvent(tick=160, channel=1, data=[52, 0]),
   midi.NoteOnEvent(tick=0, channel=1, data=[59, 0]),
   midi.NoteOnEvent(tick=0, channel=1, data=[64, 0]),
   midi.NoteOnEvent(tick=32, channel=1, data=[52, 110]),
   midi.NoteOnEvent(tick=94, channel=1, data=[52, 0]),
   midi.NoteOnEvent(tick=2, channel=1, data=[52, 110]),
   midi.NoteOnEvent(tick=94, channel=1, data=[52, 0]),
   midi.NoteOnEvent(tick=2, channel=1, data=[52, 110]),
   midi.NoteOnEvent(tick=0, channel=1, data=[62, 110]),
   midi.NoteOnEvent(tick=94, channel=1, data=[52, 0]),
   midi.NoteOnEvent(tick=0, channel=1, data=[62, 0]),
   midi.NoteOnEvent(tick=2, channel=1, data=[64, 110]),
   midi.NoteOnEvent(tick=94, channel=1, data=[64, 0]),
   midi.NoteOnEvent(tick=2, channel=1, data=[52, 110]),
   midi.NoteOnEvent(tick=94, channel=1, data=[52, 0]),
   midi.NoteOnEvent(tick=2, channel=1, data=[52, 110]),
   midi.NoteOnEvent(tick=94, channel=1, data=[52, 0]),
   midi.NoteOnEvent(tick=2, channel=1, data=[52, 110]),
   midi.NoteOnEvent(tick=0, channel=1, data=[62, 110]),
   midi.NoteOnEvent(tick=160, channel=1, data=[52, 0]),
   midi.NoteOnEvent(tick=0, channel=1, data=[62, 0]),
   midi.NoteOnEvent(tick=32, channel=1, data=[52, 110]),
   midi.NoteOnEvent(tick=94, channel=1, data=[52, 0]),
   midi.NoteOnEvent(tick=2, channel=1, data=[52, 110]),
   midi.NoteOnEvent(tick=94, channel=1, data=[52, 0]),
   midi.NoteOnEvent(tick=2, channel=1, data=[52, 110]),
   midi.NoteOnEvent(tick=0, channel=1, data=[61, 110]),
   midi.NoteOnEvent(tick=94, channel=1, data=[52, 0]),
   midi.NoteOnEvent(tick=0, channel=1, data=[61, 0]),
   midi.NoteOnEvent(tick=2, channel=1, data=[64, 110]),
   midi.NoteOnEvent(tick=94, channel=1, data=[64, 0]),
   midi.NoteOnEvent(tick=2, channel=1, data=[52, 110]),
   midi.NoteOnEvent(tick=0, channel=1, data=[59, 110]),
   midi.NoteOnEvent(tick=160, channel=1, data=[52, 0]),
   midi.NoteOnEvent(tick=0, channel=1, data=[59, 0]),
   midi.NoteOnEvent(tick=32, channel=1, data=[52, 110]),
   midi.NoteOnEvent(tick=0, channel=1, data=[59, 110]),
   midi.NoteOnEvent(tick=0, channel=1, data=[64, 110]),
   midi.NoteOnEvent(tick=160, channel=1, data=[52, 0]),
   midi.NoteOnEvent(tick=0, channel=1, data=[59, 0]),
   midi.NoteOnEvent(tick=0, channel=1, data=[64, 0]),
   midi.NoteOnEvent(tick=32, channel=1, data=[52, 110]),
   midi.NoteOnEvent(tick=94, channel=1, data=[52, 0]),
   midi.NoteOnEvent(tick=2, channel=1, data=[52, 110]),
   midi.NoteOnEvent(tick=94, channel=1, data=[52, 0]),
   midi.NoteOnEvent(tick=2, channel=1, data=[52, 110]),
   midi.NoteOnEvent(tick=0, channel=1, data=[62, 110]),
   midi.NoteOnEvent(tick=94, channel=1, data=[52, 0]),
   midi.NoteOnEvent(tick=0, channel=1, data=[62, 0]),
   midi.NoteOnEvent(tick=2, channel=1, data=[64, 110]),
   midi.NoteOnEvent(tick=94, channel=1, data=[64, 0]),
   midi.NoteOnEvent(tick=2, channel=1, data=[52, 110]),
   midi.NoteOnEvent(tick=94, channel=1, data=[52, 0]),
   midi.NoteOnEvent(tick=2, channel=1, data=[52, 110]),
   midi.NoteOnEvent(tick=94, channel=1, data=[52, 0]),
   midi.NoteOnEvent(tick=2, channel=1, data=[52, 110]),
   midi.NoteOnEvent(tick=0, channel=1, data=[62, 110]),
   midi.NoteOnEvent(tick=160, channel=1, data=[52, 0]),
   midi.NoteOnEvent(tick=0, channel=1, data=[62, 0]),
   midi.NoteOnEvent(tick=32, channel=1, data=[52, 110]),
   midi.NoteOnEvent(tick=94, channel=1, data=[52, 0]),
   midi.NoteOnEvent(tick=2, channel=1, data=[52, 110]),
   midi.NoteOnEvent(tick=94, channel=1, data=[52, 0]),
   midi.NoteOnEvent(tick=2, channel=1, data=[52, 110]),
   midi.NoteOnEvent(tick=0, channel=1, data=[61, 110]),
   midi.NoteOnEvent(tick=94, channel=1, data=[52, 0]),
   midi.NoteOnEvent(tick=0, channel=1, data=[61, 0]),
   midi.NoteOnEvent(tick=2, channel=1, data=[64, 110]),
   midi.NoteOnEvent(tick=94, channel=1, data=[64, 0]),
   midi.NoteOnEvent(tick=2, channel=1, data=[52, 110]),
   midi.NoteOnEvent(tick=94, channel=1, data=[52, 0]),
   midi.NoteOnEvent(tick=2, channel=1, data=[52, 110]),
   midi.NoteOnEvent(tick=94, channel=1, data=[52, 0]),
   midi.NoteOnEvent(tick=2, channel=1, data=[52, 110]),
   midi.NoteOnEvent(tick=0, channel=1, data=[59, 110]),
   midi.NoteOnEvent(tick=0, channel=1, data=[64, 110]),
   midi.NoteOnEvent(tick=160, channel=1, data=[52, 0]),
   midi.NoteOnEvent(tick=0, channel=1, data=[59, 0]),
   midi.NoteOnEvent(tick=0, channel=1, data=[64, 0]),
   midi.NoteOnEvent(tick=32, channel=1, data=[52, 110]),
   midi.NoteOnEvent(tick=94, channel=1, data=[52, 0]),
   midi.NoteOnEvent(tick=2, channel=1, data=[52, 110]),
   midi.NoteOnEvent(tick=94, channel=1, data=[52, 0]),
   midi.NoteOnEvent(tick=2, channel=1, data=[52, 110]),
   midi.NoteOnEvent(tick=0, channel=1, data=[62, 110]),
   midi.NoteOnEvent(tick=94, channel=1, data=[52, 0]),
   midi.NoteOnEvent(tick=0, channel=1, data=[62, 0]),
   midi.NoteOnEvent(tick=2, channel=1, data=[64, 110]),
   midi.NoteOnEvent(tick=94, channel=1, data=[64, 0]),
   midi.NoteOnEvent(tick=2, channel=1, data=[52, 110]),
   midi.NoteOnEvent(tick=94, channel=1, data=[52, 0]),
   midi.NoteOnEvent(tick=2, channel=1, data=[52, 110]),
   midi.NoteOnEvent(tick=94, channel=1, data=[52, 0]),
   midi.NoteOnEvent(tick=2, channel=1, data=[52, 110]),
   midi.NoteOnEvent(tick=0, channel=1, data=[62, 110]),
   midi.NoteOnEvent(tick=160, channel=1, data=[52, 0]),
   midi.NoteOnEvent(tick=0, channel=1, data=[62, 0]),
   midi.NoteOnEvent(tick=32, channel=1, data=[52, 110]),
   midi.NoteOnEvent(tick=94, channel=1, data=[52, 0]),
   midi.NoteOnEvent(tick=2, channel=1, data=[52, 110]),
   midi.NoteOnEvent(tick=94, channel=1, data=[52, 0]),
   midi.NoteOnEvent(tick=2, channel=1, data=[52, 110]),
   midi.NoteOnEvent(tick=0, channel=1, data=[61, 110]),
   midi.NoteOnEvent(tick=94, channel=1, data=[52, 0]),
   midi.NoteOnEvent(tick=0, channel=1, data=[61, 0]),
   midi.NoteOnEvent(tick=2, channel=1, data=[64, 110]),
   midi.NoteOnEvent(tick=94, channel=1, data=[64, 0]),
   midi.NoteOnEvent(tick=2, channel=1, data=[52, 110]),
   midi.NoteOnEvent(tick=0, channel=1, data=[59, 110]),
   midi.NoteOnEvent(tick=160, channel=1, data=[52, 0]),
   midi.NoteOnEvent(tick=0, channel=1, data=[59, 0]),
   midi.PitchWheelEvent(tick=32, channel=1, data=[0, 64]),
   midi.NoteOnEvent(tick=0, channel=1, data=[81, 110]),
   midi.PitchWheelEvent(tick=1, channel=1, data=[96, 64]),
   midi.PitchWheelEvent(tick=1, channel=1, data=[64, 65]),
   midi.PitchWheelEvent(tick=1, channel=1, data=[0, 66]),
   midi.PitchWheelEvent(tick=1, channel=1, data=[96, 66]),
   midi.PitchWheelEvent(tick=1, channel=1, data=[64, 67]),
   midi.PitchWheelEvent(tick=1, channel=1, data=[0, 68]),
   midi.PitchWheelEvent(tick=1, channel=1, data=[96, 68]),
   midi.PitchWheelEvent(tick=1, channel=1, data=[64, 69]),
   midi.PitchWheelEvent(tick=1, channel=1, data=[0, 70]),
   midi.PitchWheelEvent(tick=1, channel=1, data=[96, 70]),
   midi.PitchWheelEvent(tick=1, channel=1, data=[64, 71]),
   midi.PitchWheelEvent(tick=1, channel=1, data=[0, 72]),
   midi.PitchWheelEvent(tick=1, channel=1, data=[96, 72]),
   midi.PitchWheelEvent(tick=1, channel=1, data=[64, 73]),
   midi.PitchWheelEvent(tick=1, channel=1, data=[0, 74]),
   midi.PitchWheelEvent(tick=1, channel=1, data=[96, 74]),
   midi.PitchWheelEvent(tick=1, channel=1, data=[64, 75]),
   midi.PitchWheelEvent(tick=1, channel=1, data=[0, 76]),
   midi.PitchWheelEvent(tick=1, channel=1, data=[96, 76]),
   midi.PitchWheelEvent(tick=1, channel=1, data=[64, 77]),
   midi.PitchWheelEvent(tick=1, channel=1, data=[0, 78]),
   midi.PitchWheelEvent(tick=1, channel=1, data=[96, 78]),
   midi.PitchWheelEvent(tick=1, channel=1, data=[64, 79]),
   midi.PitchWheelEvent(tick=1, channel=1, data=[0, 80]),
   midi.PitchWheelEvent(tick=1, channel=1, data=[96, 80]),
   midi.PitchWheelEvent(tick=1, channel=1, data=[64, 81]),
   midi.PitchWheelEvent(tick=1, channel=1, data=[0, 82]),
   midi.PitchWheelEvent(tick=1, channel=1, data=[96, 82]),
   midi.PitchWheelEvent(tick=1, channel=1, data=[64, 83]),
   midi.PitchWheelEvent(tick=1, channel=1, data=[0, 84]),
   midi.PitchWheelEvent(tick=1, channel=1, data=[96, 84]),
   midi.PitchWheelEvent(tick=1, channel=1, data=[32, 85]),
   midi.PitchWheelEvent(tick=1, channel=1, data=[0, 86]),
   midi.PitchWheelEvent(tick=1, channel=1, data=[96, 86]),
   midi.PitchWheelEvent(tick=1, channel=1, data=[32, 87]),
   midi.PitchWheelEvent(tick=1, channel=1, data=[0, 88]),
   midi.PitchWheelEvent(tick=1, channel=1, data=[96, 88]),
   midi.PitchWheelEvent(tick=1, channel=1, data=[32, 89]),
   midi.PitchWheelEvent(tick=1, channel=1, data=[0, 90]),
   midi.PitchWheelEvent(tick=1, channel=1, data=[96, 90]),
   midi.PitchWheelEvent(tick=1, channel=1, data=[32, 91]),
   midi.PitchWheelEvent(tick=1, channel=1, data=[0, 92]),
   midi.PitchWheelEvent(tick=1, channel=1, data=[96, 92]),
   midi.PitchWheelEvent(tick=1, channel=1, data=[32, 93]),
   midi.PitchWheelEvent(tick=1, channel=1, data=[0, 94]),
   midi.PitchWheelEvent(tick=1, channel=1, data=[96, 94]),
   midi.PitchWheelEvent(tick=1, channel=1, data=[32, 95]),
   midi.PitchWheelEvent(tick=1, channel=1, data=[0, 96]),
   midi.PitchWheelEvent(tick=1, channel=1, data=[96, 96]),
   midi.PitchWheelEvent(tick=1, channel=1, data=[32, 97]),
   midi.PitchWheelEvent(tick=1, channel=1, data=[0, 98]),
   midi.PitchWheelEvent(tick=1, channel=1, data=[96, 98]),
   midi.PitchWheelEvent(tick=1, channel=1, data=[32, 99]),
   midi.PitchWheelEvent(tick=1, channel=1, data=[0, 100]),
   midi.PitchWheelEvent(tick=1, channel=1, data=[96, 100]),
   midi.PitchWheelEvent(tick=1, channel=1, data=[32, 101]),
   midi.PitchWheelEvent(tick=1, channel=1, data=[0, 102]),
   midi.PitchWheelEvent(tick=1, channel=1, data=[96, 102]),
   midi.PitchWheelEvent(tick=1, channel=1, data=[32, 103]),
   midi.PitchWheelEvent(tick=1, channel=1, data=[0, 104]),
   midi.PitchWheelEvent(tick=1, channel=1, data=[96, 104]),
   midi.PitchWheelEvent(tick=1, channel=1, data=[32, 105]),
   midi.PitchWheelEvent(tick=1, channel=1, data=[0, 106]),
   midi.PitchWheelEvent(tick=1, channel=1, data=[64, 106]),
   midi.PitchWheelEvent(tick=1, channel=1, data=[32, 107]),
   midi.PitchWheelEvent(tick=1, channel=1, data=[0, 108]),
   midi.PitchWheelEvent(tick=1, channel=1, data=[64, 108]),
   midi.PitchWheelEvent(tick=1, channel=1, data=[32, 109]),
   midi.PitchWheelEvent(tick=1, channel=1, data=[0, 110]),
   midi.PitchWheelEvent(tick=1, channel=1, data=[64, 110]),
   midi.PitchWheelEvent(tick=1, channel=1, data=[32, 111]),
   midi.PitchWheelEvent(tick=1, channel=1, data=[0, 112]),
   midi.PitchWheelEvent(tick=1, channel=1, data=[64, 112]),
   midi.PitchWheelEvent(tick=1, channel=1, data=[32, 113]),
   midi.PitchWheelEvent(tick=1, channel=1, data=[0, 114]),
   midi.PitchWheelEvent(tick=1, channel=1, data=[64, 114]),
   midi.PitchWheelEvent(tick=1, channel=1, data=[32, 115]),
   midi.PitchWheelEvent(tick=1, channel=1, data=[0, 116]),
   midi.PitchWheelEvent(tick=1, channel=1, data=[64, 116]),
   midi.PitchWheelEvent(tick=1, channel=1, data=[32, 117]),
   midi.PitchWheelEvent(tick=1, channel=1, data=[0, 118]),
   midi.PitchWheelEvent(tick=1, channel=1, data=[64, 118]),
   midi.PitchWheelEvent(tick=1, channel=1, data=[32, 119]),
   midi.PitchWheelEvent(tick=1, channel=1, data=[0, 120]),
   midi.PitchWheelEvent(tick=1, channel=1, data=[64, 120]),
   midi.PitchWheelEvent(tick=1, channel=1, data=[32, 121]),
   midi.PitchWheelEvent(tick=1, channel=1, data=[0, 122]),
   midi.PitchWheelEvent(tick=1, channel=1, data=[64, 122]),
   midi.PitchWheelEvent(tick=1, channel=1, data=[32, 123]),
   midi.PitchWheelEvent(tick=1, channel=1, data=[0, 124]),
   midi.PitchWheelEvent(tick=1, channel=1, data=[64, 124]),
   midi.PitchWheelEvent(tick=1, channel=1, data=[32, 125]),
   midi.PitchWheelEvent(tick=1, channel=1, data=[0, 126]),
   midi.PitchWheelEvent(tick=1, channel=1, data=[64, 126]),
   midi.PitchWheelEvent(tick=1, channel=1, data=[32, 127]),
   midi.PitchWheelEvent(tick=1, channel=1, data=[127, 127]),
   midi.NoteOnEvent(tick=64, channel=1, data=[81, 0]),
   midi.PitchWheelEvent(tick=32, channel=1, data=[0, 64]),
   midi.PitchWheelEvent(tick=0, channel=1, data=[0, 64]),
   midi.NoteOnEvent(tick=0, channel=1, data=[81, 110]),
   midi.PitchWheelEvent(tick=1, channel=1, data=[96, 64]),
   midi.PitchWheelEvent(tick=1, channel=1, data=[64, 65]),
   midi.PitchWheelEvent(tick=1, channel=1, data=[0, 66]),
   midi.PitchWheelEvent(tick=1, channel=1, data=[96, 66]),
   midi.PitchWheelEvent(tick=1, channel=1, data=[64, 67]),
   midi.PitchWheelEvent(tick=1, channel=1, data=[0, 68]),
   midi.PitchWheelEvent(tick=1, channel=1, data=[96, 68]),
   midi.PitchWheelEvent(tick=1, channel=1, data=[64, 69]),
   midi.PitchWheelEvent(tick=1, channel=1, data=[0, 70]),
   midi.PitchWheelEvent(tick=1, channel=1, data=[96, 70]),
   midi.PitchWheelEvent(tick=1, channel=1, data=[64, 71]),
   midi.PitchWheelEvent(tick=1, channel=1, data=[0, 72]),
   midi.PitchWheelEvent(tick=1, channel=1, data=[96, 72]),
   midi.PitchWheelEvent(tick=1, channel=1, data=[64, 73]),
   midi.PitchWheelEvent(tick=1, channel=1, data=[0, 74]),
   midi.PitchWheelEvent(tick=1, channel=1, data=[96, 74]),
   midi.PitchWheelEvent(tick=1, channel=1, data=[64, 75]),
   midi.PitchWheelEvent(tick=1, channel=1, data=[0, 76]),
   midi.PitchWheelEvent(tick=1, channel=1, data=[96, 76]),
   midi.PitchWheelEvent(tick=1, channel=1, data=[64, 77]),
   midi.PitchWheelEvent(tick=1, channel=1, data=[0, 78]),
   midi.PitchWheelEvent(tick=1, channel=1, data=[96, 78]),
   midi.PitchWheelEvent(tick=1, channel=1, data=[64, 79]),
   midi.PitchWheelEvent(tick=1, channel=1, data=[0, 80]),
   midi.PitchWheelEvent(tick=1, channel=1, data=[96, 80]),
   midi.PitchWheelEvent(tick=1, channel=1, data=[64, 81]),
   midi.PitchWheelEvent(tick=1, channel=1, data=[0, 82]),
   midi.PitchWheelEvent(tick=1, channel=1, data=[96, 82]),
   midi.PitchWheelEvent(tick=1, channel=1, data=[64, 83]),
   midi.PitchWheelEvent(tick=1, channel=1, data=[0, 84]),
   midi.PitchWheelEvent(tick=1, channel=1, data=[96, 84]),
   midi.PitchWheelEvent(tick=1, channel=1, data=[32, 85]),
   midi.PitchWheelEvent(tick=1, channel=1, data=[0, 86]),
   midi.PitchWheelEvent(tick=1, channel=1, data=[96, 86]),
   midi.PitchWheelEvent(tick=1, channel=1, data=[32, 87]),
   midi.PitchWheelEvent(tick=1, channel=1, data=[0, 88]),
   midi.PitchWheelEvent(tick=1, channel=1, data=[96, 88]),
   midi.PitchWheelEvent(tick=1, channel=1, data=[32, 89]),
   midi.PitchWheelEvent(tick=1, channel=1, data=[0, 90]),
   midi.PitchWheelEvent(tick=1, channel=1, data=[96, 90]),
   midi.PitchWheelEvent(tick=1, channel=1, data=[32, 91]),
   midi.PitchWheelEvent(tick=1, channel=1, data=[0, 92]),
   midi.PitchWheelEvent(tick=1, channel=1, data=[96, 92]),
   midi.PitchWheelEvent(tick=1, channel=1, data=[32, 93]),
   midi.PitchWheelEvent(tick=1, channel=1, data=[0, 94]),
   midi.PitchWheelEvent(tick=1, channel=1, data=[96, 94]),
   midi.PitchWheelEvent(tick=1, channel=1, data=[32, 95]),
   midi.PitchWheelEvent(tick=1, channel=1, data=[0, 96]),
   midi.PitchWheelEvent(tick=1, channel=1, data=[96, 96]),
   midi.PitchWheelEvent(tick=1, channel=1, data=[32, 97]),
   midi.PitchWheelEvent(tick=1, channel=1, data=[0, 98]),
   midi.PitchWheelEvent(tick=1, channel=1, data=[96, 98]),
   midi.PitchWheelEvent(tick=1, channel=1, data=[32, 99]),
   midi.PitchWheelEvent(tick=1, channel=1, data=[0, 100]),
   midi.PitchWheelEvent(tick=1, channel=1, data=[96, 100]),
   midi.PitchWheelEvent(tick=1, channel=1, data=[32, 101]),
   midi.PitchWheelEvent(tick=1, channel=1, data=[0, 102]),
   midi.PitchWheelEvent(tick=1, channel=1, data=[96, 102]),
   midi.PitchWheelEvent(tick=1, channel=1, data=[32, 103]),
   midi.PitchWheelEvent(tick=1, channel=1, data=[0, 104]),
   midi.PitchWheelEvent(tick=1, channel=1, data=[96, 104]),
   midi.PitchWheelEvent(tick=1, channel=1, data=[32, 105]),
   midi.PitchWheelEvent(tick=1, channel=1, data=[0, 106]),
   midi.PitchWheelEvent(tick=1, channel=1, data=[64, 106]),
   midi.PitchWheelEvent(tick=1, channel=1, data=[32, 107]),
   midi.PitchWheelEvent(tick=1, channel=1, data=[0, 108]),
   midi.PitchWheelEvent(tick=1, channel=1, data=[64, 108]),
   midi.PitchWheelEvent(tick=1, channel=1, data=[32, 109]),
   midi.PitchWheelEvent(tick=1, channel=1, data=[0, 110]),
   midi.PitchWheelEvent(tick=1, channel=1, data=[64, 110]),
   midi.PitchWheelEvent(tick=1, channel=1, data=[32, 111]),
   midi.PitchWheelEvent(tick=1, channel=1, data=[0, 112]),
   midi.PitchWheelEvent(tick=1, channel=1, data=[64, 112]),
   midi.PitchWheelEvent(tick=1, channel=1, data=[32, 113]),
   midi.PitchWheelEvent(tick=1, channel=1, data=[0, 114]),
   midi.PitchWheelEvent(tick=1, channel=1, data=[64, 114]),
   midi.PitchWheelEvent(tick=1, channel=1, data=[32, 115]),
   midi.PitchWheelEvent(tick=1, channel=1, data=[0, 116]),
   midi.PitchWheelEvent(tick=1, channel=1, data=[64, 116]),
   midi.PitchWheelEvent(tick=1, channel=1, data=[32, 117]),
   midi.PitchWheelEvent(tick=1, channel=1, data=[0, 118]),
   midi.PitchWheelEvent(tick=1, channel=1, data=[64, 118]),
   midi.PitchWheelEvent(tick=1, channel=1, data=[32, 119]),
   midi.PitchWheelEvent(tick=1, channel=1, data=[0, 120]),
   midi.PitchWheelEvent(tick=1, channel=1, data=[64, 120]),
   midi.PitchWheelEvent(tick=1, channel=1, data=[32, 121]),
   midi.PitchWheelEvent(tick=1, channel=1, data=[0, 122]),
   midi.PitchWheelEvent(tick=1, channel=1, data=[64, 122]),
   midi.PitchWheelEvent(tick=1, channel=1, data=[32, 123]),
   midi.PitchWheelEvent(tick=1, channel=1, data=[0, 124]),
   midi.PitchWheelEvent(tick=1, channel=1, data=[64, 124]),
   midi.PitchWheelEvent(tick=1, channel=1, data=[32, 125]),
   midi.PitchWheelEvent(tick=1, channel=1, data=[0, 126]),
   midi.PitchWheelEvent(tick=1, channel=1, data=[64, 126]),
   midi.PitchWheelEvent(tick=1, channel=1, data=[32, 127]),
   midi.PitchWheelEvent(tick=1, channel=1, data=[127, 127]),
   midi.NoteOnEvent(tick=64, channel=1, data=[81, 0]),
   midi.PitchWheelEvent(tick=32, channel=1, data=[0, 64]),
   midi.PitchWheelEvent(tick=0, channel=1, data=[0, 64]),
   midi.NoteOnEvent(tick=0, channel=1, data=[81, 110]),
   midi.PitchWheelEvent(tick=1, channel=1, data=[96, 64]),
   midi.PitchWheelEvent(tick=1, channel=1, data=[64, 65]),
   midi.PitchWheelEvent(tick=1, channel=1, data=[0, 66]),
   midi.PitchWheelEvent(tick=1, channel=1, data=[96, 66]),
   midi.PitchWheelEvent(tick=1, channel=1, data=[64, 67]),
   midi.PitchWheelEvent(tick=1, channel=1, data=[0, 68]),
   midi.PitchWheelEvent(tick=1, channel=1, data=[96, 68]),
   midi.PitchWheelEvent(tick=1, channel=1, data=[64, 69]),
   midi.PitchWheelEvent(tick=1, channel=1, data=[0, 70]),
   midi.PitchWheelEvent(tick=1, channel=1, data=[96, 70]),
   midi.PitchWheelEvent(tick=1, channel=1, data=[64, 71]),
   midi.PitchWheelEvent(tick=1, channel=1, data=[0, 72]),
   midi.PitchWheelEvent(tick=1, channel=1, data=[96, 72]),
   midi.PitchWheelEvent(tick=1, channel=1, data=[64, 73]),
   midi.PitchWheelEvent(tick=1, channel=1, data=[0, 74]),
   midi.PitchWheelEvent(tick=1, channel=1, data=[96, 74]),
   midi.PitchWheelEvent(tick=1, channel=1, data=[64, 75]),
   midi.PitchWheelEvent(tick=1, channel=1, data=[0, 76]),
   midi.PitchWheelEvent(tick=1, channel=1, data=[96, 76]),
   midi.PitchWheelEvent(tick=1, channel=1, data=[64, 77]),
   midi.PitchWheelEvent(tick=1, channel=1, data=[0, 78]),
   midi.PitchWheelEvent(tick=1, channel=1, data=[96, 78]),
   midi.PitchWheelEvent(tick=1, channel=1, data=[64, 79]),
   midi.PitchWheelEvent(tick=1, channel=1, data=[0, 80]),
   midi.PitchWheelEvent(tick=1, channel=1, data=[96, 80]),
   midi.PitchWheelEvent(tick=1, channel=1, data=[64, 81]),
   midi.PitchWheelEvent(tick=1, channel=1, data=[0, 82]),
   midi.PitchWheelEvent(tick=1, channel=1, data=[96, 82]),
   midi.PitchWheelEvent(tick=1, channel=1, data=[64, 83]),
   midi.PitchWheelEvent(tick=1, channel=1, data=[0, 84]),
   midi.PitchWheelEvent(tick=1, channel=1, data=[96, 84]),
   midi.PitchWheelEvent(tick=1, channel=1, data=[32, 85]),
   midi.PitchWheelEvent(tick=1, channel=1, data=[0, 86]),
   midi.PitchWheelEvent(tick=1, channel=1, data=[96, 86]),
   midi.PitchWheelEvent(tick=1, channel=1, data=[32, 87]),
   midi.PitchWheelEvent(tick=1, channel=1, data=[0, 88]),
   midi.PitchWheelEvent(tick=1, channel=1, data=[96, 88]),
   midi.PitchWheelEvent(tick=1, channel=1, data=[32, 89]),
   midi.PitchWheelEvent(tick=1, channel=1, data=[0, 90]),
   midi.PitchWheelEvent(tick=1, channel=1, data=[96, 90]),
   midi.PitchWheelEvent(tick=1, channel=1, data=[32, 91]),
   midi.PitchWheelEvent(tick=1, channel=1, data=[0, 92]),
   midi.PitchWheelEvent(tick=1, channel=1, data=[96, 92]),
   midi.PitchWheelEvent(tick=1, channel=1, data=[32, 93]),
   midi.PitchWheelEvent(tick=1, channel=1, data=[0, 94]),
   midi.PitchWheelEvent(tick=1, channel=1, data=[96, 94]),
   midi.PitchWheelEvent(tick=1, channel=1, data=[32, 95]),
   midi.PitchWheelEvent(tick=1, channel=1, data=[0, 96]),
   midi.PitchWheelEvent(tick=1, channel=1, data=[96, 96]),
   midi.PitchWheelEvent(tick=1, channel=1, data=[32, 97]),
   midi.PitchWheelEvent(tick=1, channel=1, data=[0, 98]),
   midi.PitchWheelEvent(tick=1, channel=1, data=[96, 98]),
   midi.PitchWheelEvent(tick=1, channel=1, data=[32, 99]),
   midi.PitchWheelEvent(tick=1, channel=1, data=[0, 100]),
   midi.PitchWheelEvent(tick=1, channel=1, data=[96, 100]),
   midi.PitchWheelEvent(tick=1, channel=1, data=[32, 101]),
   midi.PitchWheelEvent(tick=1, channel=1, data=[0, 102]),
   midi.PitchWheelEvent(tick=1, channel=1, data=[96, 102]),
   midi.PitchWheelEvent(tick=1, channel=1, data=[32, 103]),
   midi.PitchWheelEvent(tick=1, channel=1, data=[0, 104]),
   midi.PitchWheelEvent(tick=1, channel=1, data=[96, 104]),
   midi.PitchWheelEvent(tick=1, channel=1, data=[32, 105]),
   midi.PitchWheelEvent(tick=1, channel=1, data=[0, 106]),
   midi.PitchWheelEvent(tick=1, channel=1, data=[64, 106]),
   midi.PitchWheelEvent(tick=1, channel=1, data=[32, 107]),
   midi.PitchWheelEvent(tick=1, channel=1, data=[0, 108]),
   midi.PitchWheelEvent(tick=1, channel=1, data=[64, 108]),
   midi.PitchWheelEvent(tick=1, channel=1, data=[32, 109]),
   midi.PitchWheelEvent(tick=1, channel=1, data=[0, 110]),
   midi.PitchWheelEvent(tick=1, channel=1, data=[64, 110]),
   midi.PitchWheelEvent(tick=1, channel=1, data=[32, 111]),
   midi.PitchWheelEvent(tick=1, channel=1, data=[0, 112]),
   midi.PitchWheelEvent(tick=1, channel=1, data=[64, 112]),
   midi.PitchWheelEvent(tick=1, channel=1, data=[32, 113]),
   midi.PitchWheelEvent(tick=1, channel=1, data=[0, 114]),
   midi.PitchWheelEvent(tick=1, channel=1, data=[64, 114]),
   midi.PitchWheelEvent(tick=1, channel=1, data=[32, 115]),
   midi.PitchWheelEvent(tick=1, channel=1, data=[0, 116]),
   midi.PitchWheelEvent(tick=1, channel=1, data=[64, 116]),
   midi.PitchWheelEvent(tick=1, channel=1, data=[32, 117]),
   midi.PitchWheelEvent(tick=1, channel=1, data=[0, 118]),
   midi.PitchWheelEvent(tick=1, channel=1, data=[64, 118]),
   midi.PitchWheelEvent(tick=1, channel=1, data=[32, 119]),
   midi.PitchWheelEvent(tick=1, channel=1, data=[0, 120]),
   midi.PitchWheelEvent(tick=1, channel=1, data=[64, 120]),
   midi.PitchWheelEvent(tick=1, channel=1, data=[32, 121]),
   midi.PitchWheelEvent(tick=1, channel=1, data=[0, 122]),
   midi.PitchWheelEvent(tick=1, channel=1, data=[64, 122]),
   midi.PitchWheelEvent(tick=1, channel=1, data=[32, 123]),
   midi.PitchWheelEvent(tick=1, channel=1, data=[0, 124]),
   midi.PitchWheelEvent(tick=1, channel=1, data=[64, 124]),
   midi.PitchWheelEvent(tick=1, channel=1, data=[32, 125]),
   midi.PitchWheelEvent(tick=1, channel=1, data=[0, 126]),
   midi.PitchWheelEvent(tick=1, channel=1, data=[64, 126]),
   midi.PitchWheelEvent(tick=1, channel=1, data=[32, 127]),
   midi.PitchWheelEvent(tick=1, channel=1, data=[127, 127]),
   midi.NoteOnEvent(tick=160, channel=1, data=[81, 0]),
   midi.PitchWheelEvent(tick=32, channel=1, data=[0, 64]),
   midi.PitchWheelEvent(tick=0, channel=1, data=[0, 64]),
   midi.NoteOnEvent(tick=0, channel=1, data=[81, 110]),
   midi.PitchWheelEvent(tick=1, channel=1, data=[96, 64]),
   midi.PitchWheelEvent(tick=1, channel=1, data=[64, 65]),
   midi.PitchWheelEvent(tick=1, channel=1, data=[0, 66]),
   midi.PitchWheelEvent(tick=1, channel=1, data=[96, 66]),
   midi.PitchWheelEvent(tick=1, channel=1, data=[64, 67]),
   midi.PitchWheelEvent(tick=1, channel=1, data=[0, 68]),
   midi.PitchWheelEvent(tick=1, channel=1, data=[96, 68]),
   midi.PitchWheelEvent(tick=1, channel=1, data=[64, 69]),
   midi.PitchWheelEvent(tick=1, channel=1, data=[0, 70]),
   midi.PitchWheelEvent(tick=1, channel=1, data=[96, 70]),
   midi.PitchWheelEvent(tick=1, channel=1, data=[64, 71]),
   midi.PitchWheelEvent(tick=1, channel=1, data=[0, 72]),
   midi.PitchWheelEvent(tick=1, channel=1, data=[96, 72]),
   midi.PitchWheelEvent(tick=1, channel=1, data=[64, 73]),
   midi.PitchWheelEvent(tick=1, channel=1, data=[0, 74]),
   midi.PitchWheelEvent(tick=1, channel=1, data=[96, 74]),
   midi.PitchWheelEvent(tick=1, channel=1, data=[64, 75]),
   midi.PitchWheelEvent(tick=1, channel=1, data=[0, 76]),
   midi.PitchWheelEvent(tick=1, channel=1, data=[96, 76]),
   midi.PitchWheelEvent(tick=1, channel=1, data=[64, 77]),
   midi.PitchWheelEvent(tick=1, channel=1, data=[0, 78]),
   midi.PitchWheelEvent(tick=1, channel=1, data=[96, 78]),
   midi.PitchWheelEvent(tick=1, channel=1, data=[64, 79]),
   midi.PitchWheelEvent(tick=1, channel=1, data=[0, 80]),
   midi.PitchWheelEvent(tick=1, channel=1, data=[96, 80]),
   midi.PitchWheelEvent(tick=1, channel=1, data=[64, 81]),
   midi.PitchWheelEvent(tick=1, channel=1, data=[0, 82]),
   midi.PitchWheelEvent(tick=1, channel=1, data=[96, 82]),
   midi.PitchWheelEvent(tick=1, channel=1, data=[64, 83]),
   midi.PitchWheelEvent(tick=1, channel=1, data=[0, 84]),
   midi.PitchWheelEvent(tick=1, channel=1, data=[96, 84]),
   midi.PitchWheelEvent(tick=1, channel=1, data=[32, 85]),
   midi.PitchWheelEvent(tick=1, channel=1, data=[0, 86]),
   midi.PitchWheelEvent(tick=1, channel=1, data=[96, 86]),
   midi.PitchWheelEvent(tick=1, channel=1, data=[32, 87]),
   midi.PitchWheelEvent(tick=1, channel=1, data=[0, 88]),
   midi.PitchWheelEvent(tick=1, channel=1, data=[96, 88]),
   midi.PitchWheelEvent(tick=1, channel=1, data=[32, 89]),
   midi.PitchWheelEvent(tick=1, channel=1, data=[0, 90]),
   midi.PitchWheelEvent(tick=1, channel=1, data=[96, 90]),
   midi.PitchWheelEvent(tick=1, channel=1, data=[32, 91]),
   midi.PitchWheelEvent(tick=1, channel=1, data=[0, 92]),
   midi.PitchWheelEvent(tick=1, channel=1, data=[96, 92]),
   midi.PitchWheelEvent(tick=1, channel=1, data=[32, 93]),
   midi.PitchWheelEvent(tick=1, channel=1, data=[0, 94]),
   midi.PitchWheelEvent(tick=1, channel=1, data=[96, 94]),
   midi.PitchWheelEvent(tick=1, channel=1, data=[32, 95]),
   midi.PitchWheelEvent(tick=1, channel=1, data=[0, 96]),
   midi.PitchWheelEvent(tick=1, channel=1, data=[96, 96]),
   midi.PitchWheelEvent(tick=1, channel=1, data=[32, 97]),
   midi.PitchWheelEvent(tick=1, channel=1, data=[0, 98]),
   midi.PitchWheelEvent(tick=1, channel=1, data=[96, 98]),
   midi.PitchWheelEvent(tick=1, channel=1, data=[32, 99]),
   midi.PitchWheelEvent(tick=1, channel=1, data=[0, 100]),
   midi.PitchWheelEvent(tick=1, channel=1, data=[96, 100]),
   midi.PitchWheelEvent(tick=1, channel=1, data=[32, 101]),
   midi.PitchWheelEvent(tick=1, channel=1, data=[0, 102]),
   midi.PitchWheelEvent(tick=1, channel=1, data=[96, 102]),
   midi.PitchWheelEvent(tick=1, channel=1, data=[32, 103]),
   midi.PitchWheelEvent(tick=1, channel=1, data=[0, 104]),
   midi.PitchWheelEvent(tick=1, channel=1, data=[96, 104]),
   midi.PitchWheelEvent(tick=1, channel=1, data=[32, 105]),
   midi.PitchWheelEvent(tick=1, channel=1, data=[0, 106]),
   midi.PitchWheelEvent(tick=1, channel=1, data=[64, 106]),
   midi.PitchWheelEvent(tick=1, channel=1, data=[32, 107]),
   midi.PitchWheelEvent(tick=1, channel=1, data=[0, 108]),
   midi.PitchWheelEvent(tick=1, channel=1, data=[64, 108]),
   midi.PitchWheelEvent(tick=1, channel=1, data=[32, 109]),
   midi.PitchWheelEvent(tick=1, channel=1, data=[0, 110]),
   midi.PitchWheelEvent(tick=1, channel=1, data=[64, 110]),
   midi.PitchWheelEvent(tick=1, channel=1, data=[32, 111]),
   midi.PitchWheelEvent(tick=1, channel=1, data=[0, 112]),
   midi.PitchWheelEvent(tick=1, channel=1, data=[64, 112]),
   midi.PitchWheelEvent(tick=1, channel=1, data=[32, 113]),
   midi.PitchWheelEvent(tick=1, channel=1, data=[0, 114]),
   midi.PitchWheelEvent(tick=1, channel=1, data=[64, 114]),
   midi.PitchWheelEvent(tick=1, channel=1, data=[32, 115]),
   midi.PitchWheelEvent(tick=1, channel=1, data=[0, 116]),
   midi.PitchWheelEvent(tick=1, channel=1, data=[64, 116]),
   midi.PitchWheelEvent(tick=1, channel=1, data=[32, 117]),
   midi.PitchWheelEvent(tick=1, channel=1, data=[0, 118]),
   midi.PitchWheelEvent(tick=1, channel=1, data=[64, 118]),
   midi.PitchWheelEvent(tick=1, channel=1, data=[32, 119]),
   midi.PitchWheelEvent(tick=1, channel=1, data=[0, 120]),
   midi.PitchWheelEvent(tick=1, channel=1, data=[64, 120]),
   midi.PitchWheelEvent(tick=1, channel=1, data=[32, 121]),
   midi.PitchWheelEvent(tick=1, channel=1, data=[0, 122]),
   midi.PitchWheelEvent(tick=1, channel=1, data=[64, 122]),
   midi.PitchWheelEvent(tick=1, channel=1, data=[32, 123]),
   midi.PitchWheelEvent(tick=1, channel=1, data=[0, 124]),
   midi.PitchWheelEvent(tick=1, channel=1, data=[64, 124]),
   midi.PitchWheelEvent(tick=1, channel=1, data=[32, 125]),
   midi.PitchWheelEvent(tick=1, channel=1, data=[0, 126]),
   midi.PitchWheelEvent(tick=1, channel=1, data=[64, 126]),
   midi.PitchWheelEvent(tick=1, channel=1, data=[32, 127]),
   midi.PitchWheelEvent(tick=1, channel=1, data=[127, 127]),
   midi.NoteOnEvent(tick=160, channel=1, data=[81, 0]),
   midi.PitchWheelEvent(tick=32, channel=1, data=[0, 64]),
   midi.NoteOnEvent(tick=0, channel=1, data=[81, 110]),
   midi.NoteOnEvent(tick=46, channel=1, data=[81, 0]),
   midi.NoteOnEvent(tick=2, channel=1, data=[79, 110]),
   midi.NoteOnEvent(tick=46, channel=1, data=[79, 0]),
   midi.NoteOnEvent(tick=2, channel=1, data=[76, 110]),
   midi.NoteOnEvent(tick=94, channel=1, data=[76, 0]),
   midi.NoteOnEvent(tick=2, channel=1, data=[79, 110]),
   midi.NoteOnEvent(tick=94, channel=1, data=[79, 0]),
   midi.PitchWheelEvent(tick=2, channel=1, data=[0, 64]),
   midi.NoteOnEvent(tick=0, channel=1, data=[81, 110]),
   midi.PitchWheelEvent(tick=1, channel=1, data=[96, 64]),
   midi.PitchWheelEvent(tick=1, channel=1, data=[64, 65]),
   midi.PitchWheelEvent(tick=1, channel=1, data=[0, 66]),
   midi.PitchWheelEvent(tick=1, channel=1, data=[96, 66]),
   midi.PitchWheelEvent(tick=1, channel=1, data=[64, 67]),
   midi.PitchWheelEvent(tick=1, channel=1, data=[0, 68]),
   midi.PitchWheelEvent(tick=1, channel=1, data=[96, 68]),
   midi.PitchWheelEvent(tick=1, channel=1, data=[64, 69]),
   midi.PitchWheelEvent(tick=1, channel=1, data=[0, 70]),
   midi.PitchWheelEvent(tick=1, channel=1, data=[96, 70]),
   midi.PitchWheelEvent(tick=1, channel=1, data=[64, 71]),
   midi.PitchWheelEvent(tick=1, channel=1, data=[0, 72]),
   midi.PitchWheelEvent(tick=1, channel=1, data=[96, 72]),
   midi.PitchWheelEvent(tick=1, channel=1, data=[64, 73]),
   midi.PitchWheelEvent(tick=1, channel=1, data=[0, 74]),
   midi.PitchWheelEvent(tick=1, channel=1, data=[96, 74]),
   midi.PitchWheelEvent(tick=1, channel=1, data=[64, 75]),
   midi.PitchWheelEvent(tick=1, channel=1, data=[0, 76]),
   midi.PitchWheelEvent(tick=1, channel=1, data=[96, 76]),
   midi.PitchWheelEvent(tick=1, channel=1, data=[64, 77]),
   midi.PitchWheelEvent(tick=1, channel=1, data=[0, 78]),
   midi.PitchWheelEvent(tick=1, channel=1, data=[96, 78]),
   midi.PitchWheelEvent(tick=1, channel=1, data=[64, 79]),
   midi.PitchWheelEvent(tick=1, channel=1, data=[0, 80]),
   midi.PitchWheelEvent(tick=1, channel=1, data=[96, 80]),
   midi.PitchWheelEvent(tick=1, channel=1, data=[64, 81]),
   midi.PitchWheelEvent(tick=1, channel=1, data=[0, 82]),
   midi.PitchWheelEvent(tick=1, channel=1, data=[96, 82]),
   midi.PitchWheelEvent(tick=1, channel=1, data=[64, 83]),
   midi.PitchWheelEvent(tick=1, channel=1, data=[0, 84]),
   midi.PitchWheelEvent(tick=1, channel=1, data=[96, 84]),
   midi.PitchWheelEvent(tick=1, channel=1, data=[32, 85]),
   midi.PitchWheelEvent(tick=1, channel=1, data=[0, 86]),
   midi.PitchWheelEvent(tick=1, channel=1, data=[96, 86]),
   midi.PitchWheelEvent(tick=1, channel=1, data=[32, 87]),
   midi.PitchWheelEvent(tick=1, channel=1, data=[0, 88]),
   midi.PitchWheelEvent(tick=1, channel=1, data=[96, 88]),
   midi.PitchWheelEvent(tick=1, channel=1, data=[32, 89]),
   midi.PitchWheelEvent(tick=1, channel=1, data=[0, 90]),
   midi.PitchWheelEvent(tick=1, channel=1, data=[96, 90]),
   midi.PitchWheelEvent(tick=1, channel=1, data=[32, 91]),
   midi.PitchWheelEvent(tick=1, channel=1, data=[0, 92]),
   midi.PitchWheelEvent(tick=1, channel=1, data=[96, 92]),
   midi.PitchWheelEvent(tick=1, channel=1, data=[32, 93]),
   midi.PitchWheelEvent(tick=1, channel=1, data=[0, 94]),
   midi.PitchWheelEvent(tick=1, channel=1, data=[96, 94]),
   midi.PitchWheelEvent(tick=1, channel=1, data=[32, 95]),
   midi.PitchWheelEvent(tick=1, channel=1, data=[0, 96]),
   midi.PitchWheelEvent(tick=1, channel=1, data=[96, 96]),
   midi.PitchWheelEvent(tick=1, channel=1, data=[32, 97]),
   midi.PitchWheelEvent(tick=1, channel=1, data=[0, 98]),
   midi.PitchWheelEvent(tick=1, channel=1, data=[96, 98]),
   midi.PitchWheelEvent(tick=1, channel=1, data=[32, 99]),
   midi.PitchWheelEvent(tick=1, channel=1, data=[0, 100]),
   midi.PitchWheelEvent(tick=1, channel=1, data=[96, 100]),
   midi.PitchWheelEvent(tick=1, channel=1, data=[32, 101]),
   midi.PitchWheelEvent(tick=1, channel=1, data=[0, 102]),
   midi.PitchWheelEvent(tick=1, channel=1, data=[96, 102]),
   midi.PitchWheelEvent(tick=1, channel=1, data=[32, 103]),
   midi.PitchWheelEvent(tick=1, channel=1, data=[0, 104]),
   midi.PitchWheelEvent(tick=1, channel=1, data=[96, 104]),
   midi.PitchWheelEvent(tick=1, channel=1, data=[32, 105]),
   midi.PitchWheelEvent(tick=1, channel=1, data=[0, 106]),
   midi.PitchWheelEvent(tick=1, channel=1, data=[64, 106]),
   midi.PitchWheelEvent(tick=1, channel=1, data=[32, 107]),
   midi.PitchWheelEvent(tick=1, channel=1, data=[0, 108]),
   midi.PitchWheelEvent(tick=1, channel=1, data=[64, 108]),
   midi.PitchWheelEvent(tick=1, channel=1, data=[32, 109]),
   midi.PitchWheelEvent(tick=1, channel=1, data=[0, 110]),
   midi.PitchWheelEvent(tick=1, channel=1, data=[64, 110]),
   midi.PitchWheelEvent(tick=1, channel=1, data=[32, 111]),
   midi.PitchWheelEvent(tick=1, channel=1, data=[0, 112]),
   midi.PitchWheelEvent(tick=1, channel=1, data=[64, 112]),
   midi.PitchWheelEvent(tick=1, channel=1, data=[32, 113]),
   midi.PitchWheelEvent(tick=1, channel=1, data=[0, 114]),
   midi.PitchWheelEvent(tick=1, channel=1, data=[64, 114]),
   midi.PitchWheelEvent(tick=1, channel=1, data=[32, 115]),
   midi.PitchWheelEvent(tick=1, channel=1, data=[0, 116]),
   midi.PitchWheelEvent(tick=1, channel=1, data=[64, 116]),
   midi.PitchWheelEvent(tick=1, channel=1, data=[32, 117]),
   midi.PitchWheelEvent(tick=1, channel=1, data=[0, 118]),
   midi.PitchWheelEvent(tick=1, channel=1, data=[64, 118]),
   midi.PitchWheelEvent(tick=1, channel=1, data=[32, 119]),
   midi.PitchWheelEvent(tick=1, channel=1, data=[0, 120]),
   midi.PitchWheelEvent(tick=1, channel=1, data=[64, 120]),
   midi.PitchWheelEvent(tick=1, channel=1, data=[32, 121]),
   midi.PitchWheelEvent(tick=1, channel=1, data=[0, 122]),
   midi.PitchWheelEvent(tick=1, channel=1, data=[64, 122]),
   midi.PitchWheelEvent(tick=1, channel=1, data=[32, 123]),
   midi.PitchWheelEvent(tick=1, channel=1, data=[0, 124]),
   midi.PitchWheelEvent(tick=1, channel=1, data=[64, 124]),
   midi.PitchWheelEvent(tick=1, channel=1, data=[32, 125]),
   midi.PitchWheelEvent(tick=1, channel=1, data=[0, 126]),
   midi.PitchWheelEvent(tick=1, channel=1, data=[64, 126]),
   midi.PitchWheelEvent(tick=1, channel=1, data=[32, 127]),
   midi.PitchWheelEvent(tick=1, channel=1, data=[127, 127]),
   midi.NoteOnEvent(tick=64, channel=1, data=[81, 0]),
   midi.PitchWheelEvent(tick=32, channel=1, data=[0, 64]),
   midi.NoteOnEvent(tick=0, channel=1, data=[88, 110]),
   midi.NoteOnEvent(tick=94, channel=1, data=[88, 0]),
   midi.NoteOnEvent(tick=2, channel=1, data=[86, 110]),
   midi.NoteOnEvent(tick=46, channel=1, data=[86, 0]),
   midi.NoteOnEvent(tick=2, channel=1, data=[83, 110]),
   midi.NoteOnEvent(tick=46, channel=1, data=[83, 0]),
   midi.NoteOnEvent(tick=2, channel=1, data=[81, 110]),
   midi.NoteOnEvent(tick=46, channel=1, data=[81, 0]),
   midi.NoteOnEvent(tick=2, channel=1, data=[83, 110]),
   midi.NoteOnEvent(tick=46, channel=1, data=[83, 0]),
   midi.NoteOnEvent(tick=2, channel=1, data=[86, 110]),
   midi.NoteOnEvent(tick=46, channel=1, data=[86, 0]),
   midi.NoteOnEvent(tick=2, channel=1, data=[83, 110]),
   midi.NoteOnEvent(tick=142, channel=1, data=[83, 0]),
   midi.NoteOnEvent(tick=2, channel=1, data=[83, 110]),
   midi.NoteOnEvent(tick=94, channel=1, data=[83, 0]),
   midi.NoteOnEvent(tick=2, channel=1, data=[86, 110]),
   midi.NoteOnEvent(tick=46, channel=1, data=[86, 0]),
   midi.NoteOnEvent(tick=2, channel=1, data=[83, 110]),
   midi.NoteOnEvent(tick=46, channel=1, data=[83, 0]),
   midi.NoteOnEvent(tick=2, channel=1, data=[86, 110]),
   midi.NoteOnEvent(tick=46, channel=1, data=[86, 0]),
   midi.NoteOnEvent(tick=2, channel=1, data=[88, 110]),
   midi.NoteOnEvent(tick=46, channel=1, data=[88, 0]),
   midi.NoteOnEvent(tick=2, channel=1, data=[83, 110]),
   midi.NoteOnEvent(tick=94, channel=1, data=[83, 0]),
   midi.PitchWheelEvent(tick=2, channel=1, data=[0, 64]),
   midi.NoteOnEvent(tick=0, channel=1, data=[86, 110]),
   midi.PitchWheelEvent(tick=1, channel=1, data=[64, 65]),
   midi.PitchWheelEvent(tick=1, channel=1, data=[96, 66]),
   midi.PitchWheelEvent(tick=1, channel=1, data=[0, 68]),
   midi.PitchWheelEvent(tick=1, channel=1, data=[64, 69]),
   midi.PitchWheelEvent(tick=1, channel=1, data=[96, 70]),
   midi.PitchWheelEvent(tick=1, channel=1, data=[0, 72]),
   midi.PitchWheelEvent(tick=1, channel=1, data=[64, 73]),
   midi.PitchWheelEvent(tick=1, channel=1, data=[96, 74]),
   midi.PitchWheelEvent(tick=1, channel=1, data=[0, 76]),
   midi.PitchWheelEvent(tick=1, channel=1, data=[64, 77]),
   midi.PitchWheelEvent(tick=1, channel=1, data=[96, 78]),
   midi.PitchWheelEvent(tick=1, channel=1, data=[0, 80]),
   midi.PitchWheelEvent(tick=1, channel=1, data=[64, 81]),
   midi.PitchWheelEvent(tick=1, channel=1, data=[96, 82]),
   midi.PitchWheelEvent(tick=1, channel=1, data=[0, 84]),
   midi.PitchWheelEvent(tick=1, channel=1, data=[32, 85]),
   midi.PitchWheelEvent(tick=1, channel=1, data=[96, 86]),
   midi.PitchWheelEvent(tick=1, channel=1, data=[0, 88]),
   midi.PitchWheelEvent(tick=1, channel=1, data=[32, 89]),
   midi.PitchWheelEvent(tick=1, channel=1, data=[96, 90]),
   midi.PitchWheelEvent(tick=1, channel=1, data=[0, 92]),
   midi.PitchWheelEvent(tick=1, channel=1, data=[32, 93]),
   midi.PitchWheelEvent(tick=1, channel=1, data=[96, 94]),
   midi.PitchWheelEvent(tick=1, channel=1, data=[0, 96]),
   midi.PitchWheelEvent(tick=1, channel=1, data=[32, 97]),
   midi.PitchWheelEvent(tick=1, channel=1, data=[96, 98]),
   midi.PitchWheelEvent(tick=1, channel=1, data=[0, 100]),
   midi.PitchWheelEvent(tick=1, channel=1, data=[32, 101]),
   midi.PitchWheelEvent(tick=1, channel=1, data=[96, 102]),
   midi.PitchWheelEvent(tick=1, channel=1, data=[0, 104]),
   midi.PitchWheelEvent(tick=1, channel=1, data=[32, 105]),
   midi.PitchWheelEvent(tick=1, channel=1, data=[64, 106]),
   midi.PitchWheelEvent(tick=1, channel=1, data=[0, 108]),
   midi.PitchWheelEvent(tick=1, channel=1, data=[32, 109]),
   midi.PitchWheelEvent(tick=1, channel=1, data=[64, 110]),
   midi.PitchWheelEvent(tick=1, channel=1, data=[0, 112]),
   midi.PitchWheelEvent(tick=1, channel=1, data=[32, 113]),
   midi.PitchWheelEvent(tick=1, channel=1, data=[64, 114]),
   midi.PitchWheelEvent(tick=1, channel=1, data=[0, 116]),
   midi.PitchWheelEvent(tick=1, channel=1, data=[32, 117]),
   midi.PitchWheelEvent(tick=1, channel=1, data=[64, 118]),
   midi.PitchWheelEvent(tick=1, channel=1, data=[0, 120]),
   midi.PitchWheelEvent(tick=1, channel=1, data=[32, 121]),
   midi.PitchWheelEvent(tick=1, channel=1, data=[64, 122]),
   midi.PitchWheelEvent(tick=1, channel=1, data=[0, 124]),
   midi.PitchWheelEvent(tick=1, channel=1, data=[32, 125]),
   midi.PitchWheelEvent(tick=1, channel=1, data=[64, 126]),
   midi.PitchWheelEvent(tick=1, channel=1, data=[127, 127]),
   midi.NoteOnEvent(tick=46, channel=1, data=[86, 0]),
   midi.PitchWheelEvent(tick=2, channel=1, data=[0, 64]),
   midi.NoteOnEvent(tick=0, channel=1, data=[88, 110]),
   midi.NoteOnEvent(tick=94, channel=1, data=[88, 0]),
   midi.PitchWheelEvent(tick=2, channel=1, data=[0, 64]),
   midi.NoteOnEvent(tick=0, channel=1, data=[86, 110]),
   midi.PitchWheelEvent(tick=1, channel=1, data=[64, 65]),
   midi.PitchWheelEvent(tick=1, channel=1, data=[96, 66]),
   midi.PitchWheelEvent(tick=1, channel=1, data=[0, 68]),
   midi.PitchWheelEvent(tick=1, channel=1, data=[64, 69]),
   midi.PitchWheelEvent(tick=1, channel=1, data=[96, 70]),
   midi.PitchWheelEvent(tick=1, channel=1, data=[0, 72]),
   midi.PitchWheelEvent(tick=1, channel=1, data=[64, 73]),
   midi.PitchWheelEvent(tick=1, channel=1, data=[96, 74]),
   midi.PitchWheelEvent(tick=1, channel=1, data=[0, 76]),
   midi.PitchWheelEvent(tick=1, channel=1, data=[64, 77]),
   midi.PitchWheelEvent(tick=1, channel=1, data=[96, 78]),
   midi.PitchWheelEvent(tick=1, channel=1, data=[0, 80]),
   midi.PitchWheelEvent(tick=1, channel=1, data=[64, 81]),
   midi.PitchWheelEvent(tick=1, channel=1, data=[96, 82]),
   midi.PitchWheelEvent(tick=1, channel=1, data=[0, 84]),
   midi.PitchWheelEvent(tick=1, channel=1, data=[32, 85]),
   midi.PitchWheelEvent(tick=1, channel=1, data=[96, 86]),
   midi.PitchWheelEvent(tick=1, channel=1, data=[0, 88]),
   midi.PitchWheelEvent(tick=1, channel=1, data=[32, 89]),
   midi.PitchWheelEvent(tick=1, channel=1, data=[96, 90]),
   midi.PitchWheelEvent(tick=1, channel=1, data=[0, 92]),
   midi.PitchWheelEvent(tick=1, channel=1, data=[32, 93]),
   midi.PitchWheelEvent(tick=1, channel=1, data=[96, 94]),
   midi.PitchWheelEvent(tick=1, channel=1, data=[0, 96]),
   midi.PitchWheelEvent(tick=1, channel=1, data=[32, 97]),
   midi.PitchWheelEvent(tick=1, channel=1, data=[96, 98]),
   midi.PitchWheelEvent(tick=1, channel=1, data=[0, 100]),
   midi.PitchWheelEvent(tick=1, channel=1, data=[32, 101]),
   midi.PitchWheelEvent(tick=1, channel=1, data=[96, 102]),
   midi.PitchWheelEvent(tick=1, channel=1, data=[0, 104]),
   midi.PitchWheelEvent(tick=1, channel=1, data=[32, 105]),
   midi.PitchWheelEvent(tick=1, channel=1, data=[64, 106]),
   midi.PitchWheelEvent(tick=1, channel=1, data=[0, 108]),
   midi.PitchWheelEvent(tick=1, channel=1, data=[32, 109]),
   midi.PitchWheelEvent(tick=1, channel=1, data=[64, 110]),
   midi.PitchWheelEvent(tick=1, channel=1, data=[0, 112]),
   midi.PitchWheelEvent(tick=1, channel=1, data=[32, 113]),
   midi.PitchWheelEvent(tick=1, channel=1, data=[64, 114]),
   midi.PitchWheelEvent(tick=1, channel=1, data=[0, 116]),
   midi.PitchWheelEvent(tick=1, channel=1, data=[32, 117]),
   midi.PitchWheelEvent(tick=1, channel=1, data=[64, 118]),
   midi.PitchWheelEvent(tick=1, channel=1, data=[0, 120]),
   midi.PitchWheelEvent(tick=1, channel=1, data=[32, 121]),
   midi.PitchWheelEvent(tick=1, channel=1, data=[64, 122]),
   midi.PitchWheelEvent(tick=1, channel=1, data=[0, 124]),
   midi.PitchWheelEvent(tick=1, channel=1, data=[32, 125]),
   midi.PitchWheelEvent(tick=1, channel=1, data=[64, 126]),
   midi.PitchWheelEvent(tick=1, channel=1, data=[127, 127]),
   midi.NoteOnEvent(tick=46, channel=1, data=[86, 0]),
   midi.PitchWheelEvent(tick=2, channel=1, data=[0, 64]),
   midi.NoteOnEvent(tick=0, channel=1, data=[88, 110]),
   midi.NoteOnEvent(tick=94, channel=1, data=[88, 0]),
   midi.PitchWheelEvent(tick=2, channel=1, data=[0, 64]),
   midi.NoteOnEvent(tick=0, channel=1, data=[86, 110]),
   midi.PitchWheelEvent(tick=1, channel=1, data=[64, 65]),
   midi.PitchWheelEvent(tick=1, channel=1, data=[96, 66]),
   midi.PitchWheelEvent(tick=1, channel=1, data=[0, 68]),
   midi.PitchWheelEvent(tick=1, channel=1, data=[64, 69]),
   midi.PitchWheelEvent(tick=1, channel=1, data=[96, 70]),
   midi.PitchWheelEvent(tick=1, channel=1, data=[0, 72]),
   midi.PitchWheelEvent(tick=1, channel=1, data=[64, 73]),
   midi.PitchWheelEvent(tick=1, channel=1, data=[96, 74]),
   midi.PitchWheelEvent(tick=1, channel=1, data=[0, 76]),
   midi.PitchWheelEvent(tick=1, channel=1, data=[64, 77]),
   midi.PitchWheelEvent(tick=1, channel=1, data=[96, 78]),
   midi.PitchWheelEvent(tick=1, channel=1, data=[0, 80]),
   midi.PitchWheelEvent(tick=1, channel=1, data=[64, 81]),
   midi.PitchWheelEvent(tick=1, channel=1, data=[96, 82]),
   midi.PitchWheelEvent(tick=1, channel=1, data=[0, 84]),
   midi.PitchWheelEvent(tick=1, channel=1, data=[32, 85]),
   midi.PitchWheelEvent(tick=1, channel=1, data=[96, 86]),
   midi.PitchWheelEvent(tick=1, channel=1, data=[0, 88]),
   midi.PitchWheelEvent(tick=1, channel=1, data=[32, 89]),
   midi.PitchWheelEvent(tick=1, channel=1, data=[96, 90]),
   midi.PitchWheelEvent(tick=1, channel=1, data=[0, 92]),
   midi.PitchWheelEvent(tick=1, channel=1, data=[32, 93]),
   midi.PitchWheelEvent(tick=1, channel=1, data=[96, 94]),
   midi.PitchWheelEvent(tick=1, channel=1, data=[0, 96]),
   midi.PitchWheelEvent(tick=1, channel=1, data=[32, 97]),
   midi.PitchWheelEvent(tick=1, channel=1, data=[96, 98]),
   midi.PitchWheelEvent(tick=1, channel=1, data=[0, 100]),
   midi.PitchWheelEvent(tick=1, channel=1, data=[32, 101]),
   midi.PitchWheelEvent(tick=1, channel=1, data=[96, 102]),
   midi.PitchWheelEvent(tick=1, channel=1, data=[0, 104]),
   midi.PitchWheelEvent(tick=1, channel=1, data=[32, 105]),
   midi.PitchWheelEvent(tick=1, channel=1, data=[64, 106]),
   midi.PitchWheelEvent(tick=1, channel=1, data=[0, 108]),
   midi.PitchWheelEvent(tick=1, channel=1, data=[32, 109]),
   midi.PitchWheelEvent(tick=1, channel=1, data=[64, 110]),
   midi.PitchWheelEvent(tick=1, channel=1, data=[0, 112]),
   midi.PitchWheelEvent(tick=1, channel=1, data=[32, 113]),
   midi.PitchWheelEvent(tick=1, channel=1, data=[64, 114]),
   midi.PitchWheelEvent(tick=1, channel=1, data=[0, 116]),
   midi.PitchWheelEvent(tick=1, channel=1, data=[32, 117]),
   midi.PitchWheelEvent(tick=1, channel=1, data=[64, 118]),
   midi.PitchWheelEvent(tick=1, channel=1, data=[0, 120]),
   midi.PitchWheelEvent(tick=1, channel=1, data=[32, 121]),
   midi.PitchWheelEvent(tick=1, channel=1, data=[64, 122]),
   midi.PitchWheelEvent(tick=1, channel=1, data=[0, 124]),
   midi.PitchWheelEvent(tick=1, channel=1, data=[32, 125]),
   midi.PitchWheelEvent(tick=1, channel=1, data=[64, 126]),
   midi.PitchWheelEvent(tick=1, channel=1, data=[127, 127]),
   midi.NoteOnEvent(tick=112, channel=1, data=[86, 0]),
   midi.PitchWheelEvent(tick=32, channel=1, data=[0, 64]),
   midi.PitchWheelEvent(tick=0, channel=1, data=[0, 64]),
   midi.NoteOnEvent(tick=0, channel=1, data=[86, 110]),
   midi.PitchWheelEvent(tick=1, channel=1, data=[64, 65]),
   midi.PitchWheelEvent(tick=1, channel=1, data=[96, 66]),
   midi.PitchWheelEvent(tick=1, channel=1, data=[0, 68]),
   midi.PitchWheelEvent(tick=1, channel=1, data=[64, 69]),
   midi.PitchWheelEvent(tick=1, channel=1, data=[96, 70]),
   midi.PitchWheelEvent(tick=1, channel=1, data=[0, 72]),
   midi.PitchWheelEvent(tick=1, channel=1, data=[64, 73]),
   midi.PitchWheelEvent(tick=1, channel=1, data=[96, 74]),
   midi.PitchWheelEvent(tick=1, channel=1, data=[0, 76]),
   midi.PitchWheelEvent(tick=1, channel=1, data=[64, 77]),
   midi.PitchWheelEvent(tick=1, channel=1, data=[96, 78]),
   midi.PitchWheelEvent(tick=1, channel=1, data=[0, 80]),
   midi.PitchWheelEvent(tick=1, channel=1, data=[64, 81]),
   midi.PitchWheelEvent(tick=1, channel=1, data=[96, 82]),
   midi.PitchWheelEvent(tick=1, channel=1, data=[0, 84]),
   midi.PitchWheelEvent(tick=1, channel=1, data=[32, 85]),
   midi.PitchWheelEvent(tick=1, channel=1, data=[96, 86]),
   midi.PitchWheelEvent(tick=1, channel=1, data=[0, 88]),
   midi.PitchWheelEvent(tick=1, channel=1, data=[32, 89]),
   midi.PitchWheelEvent(tick=1, channel=1, data=[96, 90]),
   midi.PitchWheelEvent(tick=1, channel=1, data=[0, 92]),
   midi.PitchWheelEvent(tick=1, channel=1, data=[32, 93]),
   midi.PitchWheelEvent(tick=1, channel=1, data=[96, 94]),
   midi.PitchWheelEvent(tick=1, channel=1, data=[0, 96]),
   midi.PitchWheelEvent(tick=1, channel=1, data=[32, 97]),
   midi.PitchWheelEvent(tick=1, channel=1, data=[96, 98]),
   midi.PitchWheelEvent(tick=1, channel=1, data=[0, 100]),
   midi.PitchWheelEvent(tick=1, channel=1, data=[32, 101]),
   midi.PitchWheelEvent(tick=1, channel=1, data=[96, 102]),
   midi.PitchWheelEvent(tick=1, channel=1, data=[0, 104]),
   midi.PitchWheelEvent(tick=1, channel=1, data=[32, 105]),
   midi.PitchWheelEvent(tick=1, channel=1, data=[64, 106]),
   midi.PitchWheelEvent(tick=1, channel=1, data=[0, 108]),
   midi.PitchWheelEvent(tick=1, channel=1, data=[32, 109]),
   midi.PitchWheelEvent(tick=1, channel=1, data=[64, 110]),
   midi.PitchWheelEvent(tick=1, channel=1, data=[0, 112]),
   midi.PitchWheelEvent(tick=1, channel=1, data=[32, 113]),
   midi.PitchWheelEvent(tick=1, channel=1, data=[64, 114]),
   midi.PitchWheelEvent(tick=1, channel=1, data=[0, 116]),
   midi.PitchWheelEvent(tick=1, channel=1, data=[32, 117]),
   midi.PitchWheelEvent(tick=1, channel=1, data=[64, 118]),
   midi.PitchWheelEvent(tick=1, channel=1, data=[0, 120]),
   midi.PitchWheelEvent(tick=1, channel=1, data=[32, 121]),
   midi.PitchWheelEvent(tick=1, channel=1, data=[64, 122]),
   midi.PitchWheelEvent(tick=1, channel=1, data=[0, 124]),
   midi.PitchWheelEvent(tick=1, channel=1, data=[32, 125]),
   midi.PitchWheelEvent(tick=1, channel=1, data=[64, 126]),
   midi.PitchWheelEvent(tick=1, channel=1, data=[127, 127]),
   midi.NoteOnEvent(tick=46, channel=1, data=[86, 0]),
   midi.PitchWheelEvent(tick=2, channel=1, data=[0, 64]),
   midi.NoteOnEvent(tick=0, channel=1, data=[88, 110]),
   midi.NoteOnEvent(tick=94, channel=1, data=[88, 0]),
   midi.PitchWheelEvent(tick=2, channel=1, data=[0, 64]),
   midi.NoteOnEvent(tick=0, channel=1, data=[98, 110]),
   midi.PitchWheelEvent(tick=1, channel=1, data=[96, 64]),
   midi.PitchWheelEvent(tick=1, channel=1, data=[64, 65]),
   midi.PitchWheelEvent(tick=1, channel=1, data=[0, 66]),
   midi.PitchWheelEvent(tick=1, channel=1, data=[96, 66]),
   midi.PitchWheelEvent(tick=1, channel=1, data=[64, 67]),
   midi.PitchWheelEvent(tick=1, channel=1, data=[0, 68]),
   midi.PitchWheelEvent(tick=1, channel=1, data=[96, 68]),
   midi.PitchWheelEvent(tick=1, channel=1, data=[64, 69]),
   midi.PitchWheelEvent(tick=1, channel=1, data=[0, 70]),
   midi.PitchWheelEvent(tick=1, channel=1, data=[96, 70]),
   midi.PitchWheelEvent(tick=1, channel=1, data=[64, 71]),
   midi.PitchWheelEvent(tick=1, channel=1, data=[0, 72]),
   midi.PitchWheelEvent(tick=1, channel=1, data=[96, 72]),
   midi.PitchWheelEvent(tick=1, channel=1, data=[64, 73]),
   midi.PitchWheelEvent(tick=1, channel=1, data=[0, 74]),
   midi.PitchWheelEvent(tick=1, channel=1, data=[96, 74]),
   midi.PitchWheelEvent(tick=1, channel=1, data=[64, 75]),
   midi.PitchWheelEvent(tick=1, channel=1, data=[0, 76]),
   midi.PitchWheelEvent(tick=1, channel=1, data=[96, 76]),
   midi.PitchWheelEvent(tick=1, channel=1, data=[64, 77]),
   midi.PitchWheelEvent(tick=1, channel=1, data=[0, 78]),
   midi.PitchWheelEvent(tick=1, channel=1, data=[96, 78]),
   midi.PitchWheelEvent(tick=1, channel=1, data=[64, 79]),
   midi.PitchWheelEvent(tick=1, channel=1, data=[0, 80]),
   midi.PitchWheelEvent(tick=1, channel=1, data=[96, 80]),
   midi.PitchWheelEvent(tick=1, channel=1, data=[64, 81]),
   midi.PitchWheelEvent(tick=1, channel=1, data=[0, 82]),
   midi.PitchWheelEvent(tick=1, channel=1, data=[96, 82]),
   midi.PitchWheelEvent(tick=1, channel=1, data=[64, 83]),
   midi.PitchWheelEvent(tick=1, channel=1, data=[0, 84]),
   midi.PitchWheelEvent(tick=1, channel=1, data=[96, 84]),
   midi.PitchWheelEvent(tick=1, channel=1, data=[32, 85]),
   midi.PitchWheelEvent(tick=1, channel=1, data=[0, 86]),
   midi.PitchWheelEvent(tick=1, channel=1, data=[96, 86]),
   midi.PitchWheelEvent(tick=1, channel=1, data=[32, 87]),
   midi.PitchWheelEvent(tick=1, channel=1, data=[0, 88]),
   midi.PitchWheelEvent(tick=1, channel=1, data=[96, 88]),
   midi.PitchWheelEvent(tick=1, channel=1, data=[32, 89]),
   midi.PitchWheelEvent(tick=1, channel=1, data=[0, 90]),
   midi.PitchWheelEvent(tick=1, channel=1, data=[96, 90]),
   midi.PitchWheelEvent(tick=1, channel=1, data=[32, 91]),
   midi.PitchWheelEvent(tick=1, channel=1, data=[0, 92]),
   midi.PitchWheelEvent(tick=1, channel=1, data=[96, 92]),
   midi.PitchWheelEvent(tick=1, channel=1, data=[32, 93]),
   midi.PitchWheelEvent(tick=1, channel=1, data=[0, 94]),
   midi.PitchWheelEvent(tick=1, channel=1, data=[96, 94]),
   midi.PitchWheelEvent(tick=1, channel=1, data=[32, 95]),
   midi.PitchWheelEvent(tick=1, channel=1, data=[0, 96]),
   midi.PitchWheelEvent(tick=1, channel=1, data=[96, 96]),
   midi.PitchWheelEvent(tick=1, channel=1, data=[32, 97]),
   midi.PitchWheelEvent(tick=1, channel=1, data=[0, 98]),
   midi.PitchWheelEvent(tick=1, channel=1, data=[96, 98]),
   midi.PitchWheelEvent(tick=1, channel=1, data=[32, 99]),
   midi.PitchWheelEvent(tick=1, channel=1, data=[0, 100]),
   midi.PitchWheelEvent(tick=1, channel=1, data=[96, 100]),
   midi.PitchWheelEvent(tick=1, channel=1, data=[32, 101]),
   midi.PitchWheelEvent(tick=1, channel=1, data=[0, 102]),
   midi.PitchWheelEvent(tick=1, channel=1, data=[96, 102]),
   midi.PitchWheelEvent(tick=1, channel=1, data=[32, 103]),
   midi.PitchWheelEvent(tick=1, channel=1, data=[0, 104]),
   midi.PitchWheelEvent(tick=1, channel=1, data=[96, 104]),
   midi.PitchWheelEvent(tick=1, channel=1, data=[32, 105]),
   midi.PitchWheelEvent(tick=1, channel=1, data=[0, 106]),
   midi.PitchWheelEvent(tick=1, channel=1, data=[64, 106]),
   midi.PitchWheelEvent(tick=1, channel=1, data=[32, 107]),
   midi.PitchWheelEvent(tick=1, channel=1, data=[0, 108]),
   midi.PitchWheelEvent(tick=1, channel=1, data=[64, 108]),
   midi.PitchWheelEvent(tick=1, channel=1, data=[32, 109]),
   midi.PitchWheelEvent(tick=1, channel=1, data=[0, 110]),
   midi.PitchWheelEvent(tick=1, channel=1, data=[64, 110]),
   midi.PitchWheelEvent(tick=1, channel=1, data=[32, 111]),
   midi.PitchWheelEvent(tick=1, channel=1, data=[0, 112]),
   midi.PitchWheelEvent(tick=1, channel=1, data=[64, 112]),
   midi.PitchWheelEvent(tick=1, channel=1, data=[32, 113]),
   midi.PitchWheelEvent(tick=1, channel=1, data=[0, 114]),
   midi.PitchWheelEvent(tick=1, channel=1, data=[64, 114]),
   midi.PitchWheelEvent(tick=1, channel=1, data=[32, 115]),
   midi.PitchWheelEvent(tick=1, channel=1, data=[0, 116]),
   midi.PitchWheelEvent(tick=1, channel=1, data=[64, 116]),
   midi.PitchWheelEvent(tick=1, channel=1, data=[32, 117]),
   midi.PitchWheelEvent(tick=1, channel=1, data=[0, 118]),
   midi.PitchWheelEvent(tick=1, channel=1, data=[64, 118]),
   midi.PitchWheelEvent(tick=1, channel=1, data=[32, 119]),
   midi.PitchWheelEvent(tick=1, channel=1, data=[0, 120]),
   midi.PitchWheelEvent(tick=1, channel=1, data=[64, 120]),
   midi.PitchWheelEvent(tick=1, channel=1, data=[32, 121]),
   midi.PitchWheelEvent(tick=1, channel=1, data=[0, 122]),
   midi.PitchWheelEvent(tick=1, channel=1, data=[64, 122]),
   midi.PitchWheelEvent(tick=1, channel=1, data=[32, 123]),
   midi.PitchWheelEvent(tick=1, channel=1, data=[0, 124]),
   midi.PitchWheelEvent(tick=1, channel=1, data=[64, 124]),
   midi.PitchWheelEvent(tick=1, channel=1, data=[32, 125]),
   midi.PitchWheelEvent(tick=1, channel=1, data=[0, 126]),
   midi.PitchWheelEvent(tick=1, channel=1, data=[64, 126]),
   midi.PitchWheelEvent(tick=1, channel=1, data=[32, 127]),
   midi.PitchWheelEvent(tick=1, channel=1, data=[127, 127]),
   midi.NoteOnEvent(tick=64, channel=1, data=[98, 0]),
   midi.PitchWheelEvent(tick=32, channel=1, data=[0, 64]),
   midi.PitchWheelEvent(tick=0, channel=1, data=[0, 64]),
   midi.NoteOnEvent(tick=0, channel=1, data=[98, 110]),
   midi.PitchWheelEvent(tick=1, channel=1, data=[96, 64]),
   midi.PitchWheelEvent(tick=1, channel=1, data=[64, 65]),
   midi.PitchWheelEvent(tick=1, channel=1, data=[0, 66]),
   midi.PitchWheelEvent(tick=1, channel=1, data=[96, 66]),
   midi.PitchWheelEvent(tick=1, channel=1, data=[64, 67]),
   midi.PitchWheelEvent(tick=1, channel=1, data=[0, 68]),
   midi.PitchWheelEvent(tick=1, channel=1, data=[96, 68]),
   midi.PitchWheelEvent(tick=1, channel=1, data=[64, 69]),
   midi.PitchWheelEvent(tick=1, channel=1, data=[0, 70]),
   midi.PitchWheelEvent(tick=1, channel=1, data=[96, 70]),
   midi.PitchWheelEvent(tick=1, channel=1, data=[64, 71]),
   midi.PitchWheelEvent(tick=1, channel=1, data=[0, 72]),
   midi.PitchWheelEvent(tick=1, channel=1, data=[96, 72]),
   midi.PitchWheelEvent(tick=1, channel=1, data=[64, 73]),
   midi.PitchWheelEvent(tick=1, channel=1, data=[0, 74]),
   midi.PitchWheelEvent(tick=1, channel=1, data=[96, 74]),
   midi.PitchWheelEvent(tick=1, channel=1, data=[64, 75]),
   midi.PitchWheelEvent(tick=1, channel=1, data=[0, 76]),
   midi.PitchWheelEvent(tick=1, channel=1, data=[96, 76]),
   midi.PitchWheelEvent(tick=1, channel=1, data=[64, 77]),
   midi.PitchWheelEvent(tick=1, channel=1, data=[0, 78]),
   midi.PitchWheelEvent(tick=1, channel=1, data=[96, 78]),
   midi.PitchWheelEvent(tick=1, channel=1, data=[64, 79]),
   midi.PitchWheelEvent(tick=1, channel=1, data=[0, 80]),
   midi.PitchWheelEvent(tick=1, channel=1, data=[96, 80]),
   midi.PitchWheelEvent(tick=1, channel=1, data=[64, 81]),
   midi.PitchWheelEvent(tick=1, channel=1, data=[0, 82]),
   midi.PitchWheelEvent(tick=1, channel=1, data=[96, 82]),
   midi.PitchWheelEvent(tick=1, channel=1, data=[64, 83]),
   midi.PitchWheelEvent(tick=1, channel=1, data=[0, 84]),
   midi.PitchWheelEvent(tick=1, channel=1, data=[96, 84]),
   midi.PitchWheelEvent(tick=1, channel=1, data=[32, 85]),
   midi.PitchWheelEvent(tick=1, channel=1, data=[0, 86]),
   midi.PitchWheelEvent(tick=1, channel=1, data=[96, 86]),
   midi.PitchWheelEvent(tick=1, channel=1, data=[32, 87]),
   midi.PitchWheelEvent(tick=1, channel=1, data=[0, 88]),
   midi.PitchWheelEvent(tick=1, channel=1, data=[96, 88]),
   midi.PitchWheelEvent(tick=1, channel=1, data=[32, 89]),
   midi.PitchWheelEvent(tick=1, channel=1, data=[0, 90]),
   midi.PitchWheelEvent(tick=1, channel=1, data=[96, 90]),
   midi.PitchWheelEvent(tick=1, channel=1, data=[32, 91]),
   midi.PitchWheelEvent(tick=1, channel=1, data=[0, 92]),
   midi.PitchWheelEvent(tick=1, channel=1, data=[96, 92]),
   midi.PitchWheelEvent(tick=1, channel=1, data=[32, 93]),
   midi.PitchWheelEvent(tick=1, channel=1, data=[0, 94]),
   midi.PitchWheelEvent(tick=1, channel=1, data=[96, 94]),
   midi.PitchWheelEvent(tick=1, channel=1, data=[32, 95]),
   midi.PitchWheelEvent(tick=1, channel=1, data=[0, 96]),
   midi.PitchWheelEvent(tick=1, channel=1, data=[96, 96]),
   midi.PitchWheelEvent(tick=1, channel=1, data=[32, 97]),
   midi.PitchWheelEvent(tick=1, channel=1, data=[0, 98]),
   midi.PitchWheelEvent(tick=1, channel=1, data=[96, 98]),
   midi.PitchWheelEvent(tick=1, channel=1, data=[32, 99]),
   midi.PitchWheelEvent(tick=1, channel=1, data=[0, 100]),
   midi.PitchWheelEvent(tick=1, channel=1, data=[96, 100]),
   midi.PitchWheelEvent(tick=1, channel=1, data=[32, 101]),
   midi.PitchWheelEvent(tick=1, channel=1, data=[0, 102]),
   midi.PitchWheelEvent(tick=1, channel=1, data=[96, 102]),
   midi.PitchWheelEvent(tick=1, channel=1, data=[32, 103]),
   midi.PitchWheelEvent(tick=1, channel=1, data=[0, 104]),
   midi.PitchWheelEvent(tick=1, channel=1, data=[96, 104]),
   midi.PitchWheelEvent(tick=1, channel=1, data=[32, 105]),
   midi.PitchWheelEvent(tick=1, channel=1, data=[0, 106]),
   midi.PitchWheelEvent(tick=1, channel=1, data=[64, 106]),
   midi.PitchWheelEvent(tick=1, channel=1, data=[32, 107]),
   midi.PitchWheelEvent(tick=1, channel=1, data=[0, 108]),
   midi.PitchWheelEvent(tick=1, channel=1, data=[64, 108]),
   midi.PitchWheelEvent(tick=1, channel=1, data=[32, 109]),
   midi.PitchWheelEvent(tick=1, channel=1, data=[0, 110]),
   midi.PitchWheelEvent(tick=1, channel=1, data=[64, 110]),
   midi.PitchWheelEvent(tick=1, channel=1, data=[32, 111]),
   midi.PitchWheelEvent(tick=1, channel=1, data=[0, 112]),
   midi.PitchWheelEvent(tick=1, channel=1, data=[64, 112]),
   midi.PitchWheelEvent(tick=1, channel=1, data=[32, 113]),
   midi.PitchWheelEvent(tick=1, channel=1, data=[0, 114]),
   midi.PitchWheelEvent(tick=1, channel=1, data=[64, 114]),
   midi.PitchWheelEvent(tick=1, channel=1, data=[32, 115]),
   midi.PitchWheelEvent(tick=1, channel=1, data=[0, 116]),
   midi.PitchWheelEvent(tick=1, channel=1, data=[64, 116]),
   midi.PitchWheelEvent(tick=1, channel=1, data=[32, 117]),
   midi.PitchWheelEvent(tick=1, channel=1, data=[0, 118]),
   midi.PitchWheelEvent(tick=1, channel=1, data=[64, 118]),
   midi.PitchWheelEvent(tick=1, channel=1, data=[32, 119]),
   midi.PitchWheelEvent(tick=1, channel=1, data=[0, 120]),
   midi.PitchWheelEvent(tick=1, channel=1, data=[64, 120]),
   midi.PitchWheelEvent(tick=1, channel=1, data=[32, 121]),
   midi.PitchWheelEvent(tick=1, channel=1, data=[0, 122]),
   midi.PitchWheelEvent(tick=1, channel=1, data=[64, 122]),
   midi.PitchWheelEvent(tick=1, channel=1, data=[32, 123]),
   midi.PitchWheelEvent(tick=1, channel=1, data=[0, 124]),
   midi.PitchWheelEvent(tick=1, channel=1, data=[64, 124]),
   midi.PitchWheelEvent(tick=1, channel=1, data=[32, 125]),
   midi.PitchWheelEvent(tick=1, channel=1, data=[0, 126]),
   midi.PitchWheelEvent(tick=1, channel=1, data=[64, 126]),
   midi.PitchWheelEvent(tick=1, channel=1, data=[32, 127]),
   midi.PitchWheelEvent(tick=1, channel=1, data=[127, 127]),
   midi.NoteOnEvent(tick=240, channel=1, data=[98, 0]),
   midi.PitchWheelEvent(tick=48, channel=1, data=[0, 64]),
   midi.PitchWheelEvent(tick=0, channel=1, data=[0, 64]),
   midi.NoteOnEvent(tick=0, channel=1, data=[98, 110]),
   midi.PitchWheelEvent(tick=1, channel=1, data=[96, 64]),
   midi.PitchWheelEvent(tick=1, channel=1, data=[64, 65]),
   midi.PitchWheelEvent(tick=1, channel=1, data=[0, 66]),
   midi.PitchWheelEvent(tick=1, channel=1, data=[96, 66]),
   midi.PitchWheelEvent(tick=1, channel=1, data=[64, 67]),
   midi.PitchWheelEvent(tick=1, channel=1, data=[0, 68]),
   midi.PitchWheelEvent(tick=1, channel=1, data=[96, 68]),
   midi.PitchWheelEvent(tick=1, channel=1, data=[64, 69]),
   midi.PitchWheelEvent(tick=1, channel=1, data=[0, 70]),
   midi.PitchWheelEvent(tick=1, channel=1, data=[96, 70]),
   midi.PitchWheelEvent(tick=1, channel=1, data=[64, 71]),
   midi.PitchWheelEvent(tick=1, channel=1, data=[0, 72]),
   midi.PitchWheelEvent(tick=1, channel=1, data=[96, 72]),
   midi.PitchWheelEvent(tick=1, channel=1, data=[64, 73]),
   midi.PitchWheelEvent(tick=1, channel=1, data=[0, 74]),
   midi.PitchWheelEvent(tick=1, channel=1, data=[96, 74]),
   midi.PitchWheelEvent(tick=1, channel=1, data=[64, 75]),
   midi.PitchWheelEvent(tick=1, channel=1, data=[0, 76]),
   midi.PitchWheelEvent(tick=1, channel=1, data=[96, 76]),
   midi.PitchWheelEvent(tick=1, channel=1, data=[64, 77]),
   midi.PitchWheelEvent(tick=1, channel=1, data=[0, 78]),
   midi.PitchWheelEvent(tick=1, channel=1, data=[96, 78]),
   midi.PitchWheelEvent(tick=1, channel=1, data=[64, 79]),
   midi.PitchWheelEvent(tick=1, channel=1, data=[0, 80]),
   midi.PitchWheelEvent(tick=1, channel=1, data=[96, 80]),
   midi.PitchWheelEvent(tick=1, channel=1, data=[64, 81]),
   midi.PitchWheelEvent(tick=1, channel=1, data=[0, 82]),
   midi.PitchWheelEvent(tick=1, channel=1, data=[96, 82]),
   midi.PitchWheelEvent(tick=1, channel=1, data=[64, 83]),
   midi.PitchWheelEvent(tick=1, channel=1, data=[0, 84]),
   midi.PitchWheelEvent(tick=1, channel=1, data=[96, 84]),
   midi.PitchWheelEvent(tick=1, channel=1, data=[32, 85]),
   midi.PitchWheelEvent(tick=1, channel=1, data=[0, 86]),
   midi.PitchWheelEvent(tick=1, channel=1, data=[96, 86]),
   midi.PitchWheelEvent(tick=1, channel=1, data=[32, 87]),
   midi.PitchWheelEvent(tick=1, channel=1, data=[0, 88]),
   midi.PitchWheelEvent(tick=1, channel=1, data=[96, 88]),
   midi.PitchWheelEvent(tick=1, channel=1, data=[32, 89]),
   midi.PitchWheelEvent(tick=1, channel=1, data=[0, 90]),
   midi.PitchWheelEvent(tick=1, channel=1, data=[96, 90]),
   midi.PitchWheelEvent(tick=1, channel=1, data=[32, 91]),
   midi.PitchWheelEvent(tick=1, channel=1, data=[0, 92]),
   midi.PitchWheelEvent(tick=1, channel=1, data=[96, 92]),
   midi.PitchWheelEvent(tick=1, channel=1, data=[32, 93]),
   midi.PitchWheelEvent(tick=1, channel=1, data=[0, 94]),
   midi.PitchWheelEvent(tick=1, channel=1, data=[96, 94]),
   midi.PitchWheelEvent(tick=1, channel=1, data=[32, 95]),
   midi.PitchWheelEvent(tick=1, channel=1, data=[0, 96]),
   midi.PitchWheelEvent(tick=1, channel=1, data=[96, 96]),
   midi.PitchWheelEvent(tick=1, channel=1, data=[32, 97]),
   midi.PitchWheelEvent(tick=1, channel=1, data=[0, 98]),
   midi.PitchWheelEvent(tick=1, channel=1, data=[96, 98]),
   midi.PitchWheelEvent(tick=1, channel=1, data=[32, 99]),
   midi.PitchWheelEvent(tick=1, channel=1, data=[0, 100]),
   midi.PitchWheelEvent(tick=1, channel=1, data=[96, 100]),
   midi.PitchWheelEvent(tick=1, channel=1, data=[32, 101]),
   midi.PitchWheelEvent(tick=1, channel=1, data=[0, 102]),
   midi.PitchWheelEvent(tick=1, channel=1, data=[96, 102]),
   midi.PitchWheelEvent(tick=1, channel=1, data=[32, 103]),
   midi.PitchWheelEvent(tick=1, channel=1, data=[0, 104]),
   midi.PitchWheelEvent(tick=1, channel=1, data=[96, 104]),
   midi.PitchWheelEvent(tick=1, channel=1, data=[32, 105]),
   midi.PitchWheelEvent(tick=1, channel=1, data=[0, 106]),
   midi.PitchWheelEvent(tick=1, channel=1, data=[64, 106]),
   midi.PitchWheelEvent(tick=1, channel=1, data=[32, 107]),
   midi.PitchWheelEvent(tick=1, channel=1, data=[0, 108]),
   midi.PitchWheelEvent(tick=1, channel=1, data=[64, 108]),
   midi.PitchWheelEvent(tick=1, channel=1, data=[32, 109]),
   midi.PitchWheelEvent(tick=1, channel=1, data=[0, 110]),
   midi.PitchWheelEvent(tick=1, channel=1, data=[64, 110]),
   midi.PitchWheelEvent(tick=1, channel=1, data=[32, 111]),
   midi.PitchWheelEvent(tick=1, channel=1, data=[0, 112]),
   midi.PitchWheelEvent(tick=1, channel=1, data=[64, 112]),
   midi.PitchWheelEvent(tick=1, channel=1, data=[32, 113]),
   midi.PitchWheelEvent(tick=1, channel=1, data=[0, 114]),
   midi.PitchWheelEvent(tick=1, channel=1, data=[64, 114]),
   midi.PitchWheelEvent(tick=1, channel=1, data=[32, 115]),
   midi.PitchWheelEvent(tick=1, channel=1, data=[0, 116]),
   midi.PitchWheelEvent(tick=1, channel=1, data=[64, 116]),
   midi.PitchWheelEvent(tick=1, channel=1, data=[32, 117]),
   midi.PitchWheelEvent(tick=1, channel=1, data=[0, 118]),
   midi.PitchWheelEvent(tick=1, channel=1, data=[64, 118]),
   midi.PitchWheelEvent(tick=1, channel=1, data=[32, 119]),
   midi.PitchWheelEvent(tick=1, channel=1, data=[0, 120]),
   midi.PitchWheelEvent(tick=1, channel=1, data=[64, 120]),
   midi.PitchWheelEvent(tick=1, channel=1, data=[32, 121]),
   midi.PitchWheelEvent(tick=1, channel=1, data=[0, 122]),
   midi.PitchWheelEvent(tick=1, channel=1, data=[64, 122]),
   midi.PitchWheelEvent(tick=1, channel=1, data=[32, 123]),
   midi.PitchWheelEvent(tick=1, channel=1, data=[0, 124]),
   midi.PitchWheelEvent(tick=1, channel=1, data=[64, 124]),
   midi.PitchWheelEvent(tick=1, channel=1, data=[32, 125]),
   midi.PitchWheelEvent(tick=1, channel=1, data=[0, 126]),
   midi.PitchWheelEvent(tick=1, channel=1, data=[64, 126]),
   midi.NoteOnEvent(tick=0, channel=1, data=[98, 0]),
   midi.PitchWheelEvent(tick=1, channel=1, data=[32, 127]),
   midi.PitchWheelEvent(tick=1, channel=1, data=[127, 127]),
   midi.PitchWheelEvent(tick=0, channel=1, data=[0, 64]),
   midi.NoteOnEvent(tick=0, channel=1, data=[98, 110]),
   midi.NoteOnEvent(tick=46, channel=1, data=[98, 0]),
   midi.NoteOnEvent(tick=2, channel=1, data=[95, 110]),
   midi.NoteOnEvent(tick=46, channel=1, data=[95, 0]),
   midi.NoteOnEvent(tick=2, channel=1, data=[98, 110]),
   midi.NoteOnEvent(tick=46, channel=1, data=[98, 0]),
   midi.NoteOnEvent(tick=2, channel=1, data=[95, 110]),
   midi.NoteOnEvent(tick=46, channel=1, data=[95, 0]),
   midi.NoteOnEvent(tick=2, channel=1, data=[93, 110]),
   midi.NoteOnEvent(tick=94, channel=1, data=[93, 0]),
   midi.NoteOnEvent(tick=2, channel=1, data=[95, 110]),
   midi.NoteOnEvent(tick=94, channel=1, data=[95, 0]),
   midi.PitchWheelEvent(tick=2, channel=1, data=[0, 64]),
   midi.NoteOnEvent(tick=0, channel=1, data=[93, 110]),
   midi.PitchWheelEvent(tick=1, channel=1, data=[96, 64]),
   midi.PitchWheelEvent(tick=1, channel=1, data=[64, 65]),
   midi.PitchWheelEvent(tick=1, channel=1, data=[0, 66]),
   midi.PitchWheelEvent(tick=1, channel=1, data=[96, 66]),
   midi.PitchWheelEvent(tick=1, channel=1, data=[64, 67]),
   midi.PitchWheelEvent(tick=1, channel=1, data=[0, 68]),
   midi.PitchWheelEvent(tick=1, channel=1, data=[96, 68]),
   midi.PitchWheelEvent(tick=1, channel=1, data=[64, 69]),
   midi.PitchWheelEvent(tick=1, channel=1, data=[0, 70]),
   midi.PitchWheelEvent(tick=1, channel=1, data=[96, 70]),
   midi.PitchWheelEvent(tick=1, channel=1, data=[64, 71]),
   midi.PitchWheelEvent(tick=1, channel=1, data=[0, 72]),
   midi.PitchWheelEvent(tick=1, channel=1, data=[96, 72]),
   midi.PitchWheelEvent(tick=1, channel=1, data=[64, 73]),
   midi.PitchWheelEvent(tick=1, channel=1, data=[0, 74]),
   midi.PitchWheelEvent(tick=1, channel=1, data=[96, 74]),
   midi.PitchWheelEvent(tick=1, channel=1, data=[64, 75]),
   midi.PitchWheelEvent(tick=1, channel=1, data=[0, 76]),
   midi.PitchWheelEvent(tick=1, channel=1, data=[96, 76]),
   midi.PitchWheelEvent(tick=1, channel=1, data=[64, 77]),
   midi.PitchWheelEvent(tick=1, channel=1, data=[0, 78]),
   midi.PitchWheelEvent(tick=1, channel=1, data=[96, 78]),
   midi.PitchWheelEvent(tick=1, channel=1, data=[64, 79]),
   midi.PitchWheelEvent(tick=1, channel=1, data=[0, 80]),
   midi.PitchWheelEvent(tick=1, channel=1, data=[96, 80]),
   midi.PitchWheelEvent(tick=1, channel=1, data=[64, 81]),
   midi.PitchWheelEvent(tick=1, channel=1, data=[0, 82]),
   midi.PitchWheelEvent(tick=1, channel=1, data=[96, 82]),
   midi.PitchWheelEvent(tick=1, channel=1, data=[64, 83]),
   midi.PitchWheelEvent(tick=1, channel=1, data=[0, 84]),
   midi.PitchWheelEvent(tick=1, channel=1, data=[96, 84]),
   midi.PitchWheelEvent(tick=1, channel=1, data=[32, 85]),
   midi.PitchWheelEvent(tick=1, channel=1, data=[0, 86]),
   midi.PitchWheelEvent(tick=1, channel=1, data=[96, 86]),
   midi.PitchWheelEvent(tick=1, channel=1, data=[32, 87]),
   midi.PitchWheelEvent(tick=1, channel=1, data=[0, 88]),
   midi.PitchWheelEvent(tick=1, channel=1, data=[96, 88]),
   midi.PitchWheelEvent(tick=1, channel=1, data=[32, 89]),
   midi.PitchWheelEvent(tick=1, channel=1, data=[0, 90]),
   midi.PitchWheelEvent(tick=1, channel=1, data=[96, 90]),
   midi.PitchWheelEvent(tick=1, channel=1, data=[32, 91]),
   midi.PitchWheelEvent(tick=1, channel=1, data=[0, 92]),
   midi.PitchWheelEvent(tick=1, channel=1, data=[96, 92]),
   midi.PitchWheelEvent(tick=1, channel=1, data=[32, 93]),
   midi.PitchWheelEvent(tick=1, channel=1, data=[0, 94]),
   midi.PitchWheelEvent(tick=1, channel=1, data=[96, 94]),
   midi.PitchWheelEvent(tick=1, channel=1, data=[32, 95]),
   midi.PitchWheelEvent(tick=1, channel=1, data=[0, 96]),
   midi.PitchWheelEvent(tick=1, channel=1, data=[96, 96]),
   midi.PitchWheelEvent(tick=1, channel=1, data=[32, 97]),
   midi.PitchWheelEvent(tick=1, channel=1, data=[0, 98]),
   midi.PitchWheelEvent(tick=1, channel=1, data=[96, 98]),
   midi.PitchWheelEvent(tick=1, channel=1, data=[32, 99]),
   midi.PitchWheelEvent(tick=1, channel=1, data=[0, 100]),
   midi.PitchWheelEvent(tick=1, channel=1, data=[96, 100]),
   midi.PitchWheelEvent(tick=1, channel=1, data=[32, 101]),
   midi.PitchWheelEvent(tick=1, channel=1, data=[0, 102]),
   midi.PitchWheelEvent(tick=1, channel=1, data=[96, 102]),
   midi.PitchWheelEvent(tick=1, channel=1, data=[32, 103]),
   midi.PitchWheelEvent(tick=1, channel=1, data=[0, 104]),
   midi.PitchWheelEvent(tick=1, channel=1, data=[96, 104]),
   midi.PitchWheelEvent(tick=1, channel=1, data=[32, 105]),
   midi.PitchWheelEvent(tick=1, channel=1, data=[0, 106]),
   midi.PitchWheelEvent(tick=1, channel=1, data=[64, 106]),
   midi.PitchWheelEvent(tick=1, channel=1, data=[32, 107]),
   midi.PitchWheelEvent(tick=1, channel=1, data=[0, 108]),
   midi.PitchWheelEvent(tick=1, channel=1, data=[64, 108]),
   midi.PitchWheelEvent(tick=1, channel=1, data=[32, 109]),
   midi.PitchWheelEvent(tick=1, channel=1, data=[0, 110]),
   midi.PitchWheelEvent(tick=1, channel=1, data=[64, 110]),
   midi.PitchWheelEvent(tick=1, channel=1, data=[32, 111]),
   midi.PitchWheelEvent(tick=1, channel=1, data=[0, 112]),
   midi.PitchWheelEvent(tick=1, channel=1, data=[64, 112]),
   midi.PitchWheelEvent(tick=1, channel=1, data=[32, 113]),
   midi.PitchWheelEvent(tick=1, channel=1, data=[0, 114]),
   midi.PitchWheelEvent(tick=1, channel=1, data=[64, 114]),
   midi.PitchWheelEvent(tick=1, channel=1, data=[32, 115]),
   midi.PitchWheelEvent(tick=1, channel=1, data=[0, 116]),
   midi.PitchWheelEvent(tick=1, channel=1, data=[64, 116]),
   midi.PitchWheelEvent(tick=1, channel=1, data=[32, 117]),
   midi.PitchWheelEvent(tick=1, channel=1, data=[0, 118]),
   midi.PitchWheelEvent(tick=1, channel=1, data=[64, 118]),
   midi.PitchWheelEvent(tick=1, channel=1, data=[32, 119]),
   midi.PitchWheelEvent(tick=1, channel=1, data=[0, 120]),
   midi.PitchWheelEvent(tick=1, channel=1, data=[64, 120]),
   midi.PitchWheelEvent(tick=1, channel=1, data=[32, 121]),
   midi.PitchWheelEvent(tick=1, channel=1, data=[0, 122]),
   midi.PitchWheelEvent(tick=1, channel=1, data=[64, 122]),
   midi.PitchWheelEvent(tick=1, channel=1, data=[32, 123]),
   midi.PitchWheelEvent(tick=1, channel=1, data=[0, 124]),
   midi.PitchWheelEvent(tick=1, channel=1, data=[64, 124]),
   midi.PitchWheelEvent(tick=1, channel=1, data=[32, 125]),
   midi.PitchWheelEvent(tick=1, channel=1, data=[0, 126]),
   midi.PitchWheelEvent(tick=1, channel=1, data=[64, 126]),
   midi.PitchWheelEvent(tick=1, channel=1, data=[32, 127]),
   midi.PitchWheelEvent(tick=1, channel=1, data=[127, 127]),
   midi.NoteOnEvent(tick=94, channel=1, data=[93, 0]),
   midi.PitchWheelEvent(tick=2, channel=1, data=[0, 64]),
   midi.NoteOnEvent(tick=0, channel=1, data=[95, 110]),
   midi.NoteOnEvent(tick=94, channel=1, data=[95, 0]),
   midi.NoteOnEvent(tick=2, channel=1, data=[93, 110]),
   midi.NoteOnEvent(tick=46, channel=1, data=[93, 0]),
   midi.NoteOnEvent(tick=2, channel=1, data=[90, 110]),
   midi.NoteOnEvent(tick=46, channel=1, data=[90, 0]),
   midi.NoteOnEvent(tick=2, channel=1, data=[93, 110]),
   midi.NoteOnEvent(tick=94, channel=1, data=[93, 0]),
   midi.PitchWheelEvent(tick=2, channel=1, data=[0, 64]),
   midi.NoteOnEvent(tick=0, channel=1, data=[93, 110]),
   midi.PitchWheelEvent(tick=1, channel=1, data=[96, 64]),
   midi.PitchWheelEvent(tick=1, channel=1, data=[64, 65]),
   midi.PitchWheelEvent(tick=1, channel=1, data=[0, 66]),
   midi.PitchWheelEvent(tick=1, channel=1, data=[96, 66]),
   midi.PitchWheelEvent(tick=1, channel=1, data=[64, 67]),
   midi.PitchWheelEvent(tick=1, channel=1, data=[0, 68]),
   midi.PitchWheelEvent(tick=1, channel=1, data=[96, 68]),
   midi.PitchWheelEvent(tick=1, channel=1, data=[64, 69]),
   midi.PitchWheelEvent(tick=1, channel=1, data=[0, 70]),
   midi.PitchWheelEvent(tick=1, channel=1, data=[96, 70]),
   midi.PitchWheelEvent(tick=1, channel=1, data=[64, 71]),
   midi.PitchWheelEvent(tick=1, channel=1, data=[0, 72]),
   midi.PitchWheelEvent(tick=1, channel=1, data=[96, 72]),
   midi.PitchWheelEvent(tick=1, channel=1, data=[64, 73]),
   midi.PitchWheelEvent(tick=1, channel=1, data=[0, 74]),
   midi.PitchWheelEvent(tick=1, channel=1, data=[96, 74]),
   midi.PitchWheelEvent(tick=1, channel=1, data=[64, 75]),
   midi.PitchWheelEvent(tick=1, channel=1, data=[0, 76]),
   midi.PitchWheelEvent(tick=1, channel=1, data=[96, 76]),
   midi.PitchWheelEvent(tick=1, channel=1, data=[64, 77]),
   midi.PitchWheelEvent(tick=1, channel=1, data=[0, 78]),
   midi.PitchWheelEvent(tick=1, channel=1, data=[96, 78]),
   midi.PitchWheelEvent(tick=1, channel=1, data=[64, 79]),
   midi.PitchWheelEvent(tick=1, channel=1, data=[0, 80]),
   midi.PitchWheelEvent(tick=1, channel=1, data=[96, 80]),
   midi.PitchWheelEvent(tick=1, channel=1, data=[64, 81]),
   midi.PitchWheelEvent(tick=1, channel=1, data=[0, 82]),
   midi.PitchWheelEvent(tick=1, channel=1, data=[96, 82]),
   midi.PitchWheelEvent(tick=1, channel=1, data=[64, 83]),
   midi.PitchWheelEvent(tick=1, channel=1, data=[0, 84]),
   midi.PitchWheelEvent(tick=1, channel=1, data=[96, 84]),
   midi.PitchWheelEvent(tick=1, channel=1, data=[32, 85]),
   midi.PitchWheelEvent(tick=1, channel=1, data=[0, 86]),
   midi.PitchWheelEvent(tick=1, channel=1, data=[96, 86]),
   midi.PitchWheelEvent(tick=1, channel=1, data=[32, 87]),
   midi.PitchWheelEvent(tick=1, channel=1, data=[0, 88]),
   midi.PitchWheelEvent(tick=1, channel=1, data=[96, 88]),
   midi.PitchWheelEvent(tick=1, channel=1, data=[32, 89]),
   midi.PitchWheelEvent(tick=1, channel=1, data=[0, 90]),
   midi.PitchWheelEvent(tick=1, channel=1, data=[96, 90]),
   midi.PitchWheelEvent(tick=1, channel=1, data=[32, 91]),
   midi.PitchWheelEvent(tick=1, channel=1, data=[0, 92]),
   midi.PitchWheelEvent(tick=1, channel=1, data=[96, 92]),
   midi.PitchWheelEvent(tick=1, channel=1, data=[32, 93]),
   midi.PitchWheelEvent(tick=1, channel=1, data=[0, 94]),
   midi.PitchWheelEvent(tick=1, channel=1, data=[96, 94]),
   midi.PitchWheelEvent(tick=1, channel=1, data=[32, 95]),
   midi.PitchWheelEvent(tick=1, channel=1, data=[0, 96]),
   midi.PitchWheelEvent(tick=1, channel=1, data=[96, 96]),
   midi.PitchWheelEvent(tick=1, channel=1, data=[32, 97]),
   midi.PitchWheelEvent(tick=1, channel=1, data=[0, 98]),
   midi.PitchWheelEvent(tick=1, channel=1, data=[96, 98]),
   midi.PitchWheelEvent(tick=1, channel=1, data=[32, 99]),
   midi.PitchWheelEvent(tick=1, channel=1, data=[0, 100]),
   midi.PitchWheelEvent(tick=1, channel=1, data=[96, 100]),
   midi.PitchWheelEvent(tick=1, channel=1, data=[32, 101]),
   midi.PitchWheelEvent(tick=1, channel=1, data=[0, 102]),
   midi.PitchWheelEvent(tick=1, channel=1, data=[96, 102]),
   midi.PitchWheelEvent(tick=1, channel=1, data=[32, 103]),
   midi.PitchWheelEvent(tick=1, channel=1, data=[0, 104]),
   midi.PitchWheelEvent(tick=1, channel=1, data=[96, 104]),
   midi.PitchWheelEvent(tick=1, channel=1, data=[32, 105]),
   midi.PitchWheelEvent(tick=1, channel=1, data=[0, 106]),
   midi.PitchWheelEvent(tick=1, channel=1, data=[64, 106]),
   midi.PitchWheelEvent(tick=1, channel=1, data=[32, 107]),
   midi.PitchWheelEvent(tick=1, channel=1, data=[0, 108]),
   midi.PitchWheelEvent(tick=1, channel=1, data=[64, 108]),
   midi.PitchWheelEvent(tick=1, channel=1, data=[32, 109]),
   midi.PitchWheelEvent(tick=1, channel=1, data=[0, 110]),
   midi.PitchWheelEvent(tick=1, channel=1, data=[64, 110]),
   midi.PitchWheelEvent(tick=1, channel=1, data=[32, 111]),
   midi.PitchWheelEvent(tick=1, channel=1, data=[0, 112]),
   midi.PitchWheelEvent(tick=1, channel=1, data=[64, 112]),
   midi.PitchWheelEvent(tick=1, channel=1, data=[32, 113]),
   midi.PitchWheelEvent(tick=1, channel=1, data=[0, 114]),
   midi.PitchWheelEvent(tick=1, channel=1, data=[64, 114]),
   midi.PitchWheelEvent(tick=1, channel=1, data=[32, 115]),
   midi.PitchWheelEvent(tick=1, channel=1, data=[0, 116]),
   midi.PitchWheelEvent(tick=1, channel=1, data=[64, 116]),
   midi.PitchWheelEvent(tick=1, channel=1, data=[32, 117]),
   midi.PitchWheelEvent(tick=1, channel=1, data=[0, 118]),
   midi.PitchWheelEvent(tick=1, channel=1, data=[64, 118]),
   midi.PitchWheelEvent(tick=1, channel=1, data=[32, 119]),
   midi.PitchWheelEvent(tick=1, channel=1, data=[0, 120]),
   midi.PitchWheelEvent(tick=1, channel=1, data=[64, 120]),
   midi.PitchWheelEvent(tick=1, channel=1, data=[32, 121]),
   midi.PitchWheelEvent(tick=1, channel=1, data=[0, 122]),
   midi.PitchWheelEvent(tick=1, channel=1, data=[64, 122]),
   midi.PitchWheelEvent(tick=1, channel=1, data=[32, 123]),
   midi.PitchWheelEvent(tick=1, channel=1, data=[0, 124]),
   midi.PitchWheelEvent(tick=1, channel=1, data=[64, 124]),
   midi.PitchWheelEvent(tick=1, channel=1, data=[32, 125]),
   midi.PitchWheelEvent(tick=1, channel=1, data=[0, 126]),
   midi.PitchWheelEvent(tick=1, channel=1, data=[64, 126]),
   midi.NoteOnEvent(tick=0, channel=1, data=[93, 0]),
   midi.PitchWheelEvent(tick=1, channel=1, data=[32, 127]),
   midi.PitchWheelEvent(tick=1, channel=1, data=[127, 127]),
   midi.PitchWheelEvent(tick=0, channel=1, data=[0, 64]),
   midi.NoteOnEvent(tick=0, channel=1, data=[95, 110]),
   midi.NoteOnEvent(tick=94, channel=1, data=[95, 0]),
   midi.NoteOnEvent(tick=2, channel=1, data=[93, 110]),
   midi.NoteOnEvent(tick=46, channel=1, data=[93, 0]),
   midi.NoteOnEvent(tick=2, channel=1, data=[90, 110]),
   midi.NoteOnEvent(tick=46, channel=1, data=[90, 0]),
   midi.NoteOnEvent(tick=2, channel=1, data=[93, 110]),
   midi.NoteOnEvent(tick=94, channel=1, data=[93, 0]),
   midi.PitchWheelEvent(tick=2, channel=1, data=[0, 64]),
   midi.NoteOnEvent(tick=0, channel=1, data=[93, 110]),
   midi.PitchWheelEvent(tick=1, channel=1, data=[96, 64]),
   midi.PitchWheelEvent(tick=1, channel=1, data=[64, 65]),
   midi.PitchWheelEvent(tick=1, channel=1, data=[0, 66]),
   midi.PitchWheelEvent(tick=1, channel=1, data=[96, 66]),
   midi.PitchWheelEvent(tick=1, channel=1, data=[64, 67]),
   midi.PitchWheelEvent(tick=1, channel=1, data=[0, 68]),
   midi.PitchWheelEvent(tick=1, channel=1, data=[96, 68]),
   midi.PitchWheelEvent(tick=1, channel=1, data=[64, 69]),
   midi.PitchWheelEvent(tick=1, channel=1, data=[0, 70]),
   midi.PitchWheelEvent(tick=1, channel=1, data=[96, 70]),
   midi.PitchWheelEvent(tick=1, channel=1, data=[64, 71]),
   midi.PitchWheelEvent(tick=1, channel=1, data=[0, 72]),
   midi.PitchWheelEvent(tick=1, channel=1, data=[96, 72]),
   midi.PitchWheelEvent(tick=1, channel=1, data=[64, 73]),
   midi.PitchWheelEvent(tick=1, channel=1, data=[0, 74]),
   midi.PitchWheelEvent(tick=1, channel=1, data=[96, 74]),
   midi.PitchWheelEvent(tick=1, channel=1, data=[64, 75]),
   midi.PitchWheelEvent(tick=1, channel=1, data=[0, 76]),
   midi.PitchWheelEvent(tick=1, channel=1, data=[96, 76]),
   midi.PitchWheelEvent(tick=1, channel=1, data=[64, 77]),
   midi.PitchWheelEvent(tick=1, channel=1, data=[0, 78]),
   midi.PitchWheelEvent(tick=1, channel=1, data=[96, 78]),
   midi.PitchWheelEvent(tick=1, channel=1, data=[64, 79]),
   midi.PitchWheelEvent(tick=1, channel=1, data=[0, 80]),
   midi.PitchWheelEvent(tick=1, channel=1, data=[96, 80]),
   midi.PitchWheelEvent(tick=1, channel=1, data=[64, 81]),
   midi.PitchWheelEvent(tick=1, channel=1, data=[0, 82]),
   midi.PitchWheelEvent(tick=1, channel=1, data=[96, 82]),
   midi.PitchWheelEvent(tick=1, channel=1, data=[64, 83]),
   midi.PitchWheelEvent(tick=1, channel=1, data=[0, 84]),
   midi.PitchWheelEvent(tick=1, channel=1, data=[96, 84]),
   midi.PitchWheelEvent(tick=1, channel=1, data=[32, 85]),
   midi.PitchWheelEvent(tick=1, channel=1, data=[0, 86]),
   midi.PitchWheelEvent(tick=1, channel=1, data=[96, 86]),
   midi.PitchWheelEvent(tick=1, channel=1, data=[32, 87]),
   midi.PitchWheelEvent(tick=1, channel=1, data=[0, 88]),
   midi.PitchWheelEvent(tick=1, channel=1, data=[96, 88]),
   midi.PitchWheelEvent(tick=1, channel=1, data=[32, 89]),
   midi.PitchWheelEvent(tick=1, channel=1, data=[0, 90]),
   midi.PitchWheelEvent(tick=1, channel=1, data=[96, 90]),
   midi.PitchWheelEvent(tick=1, channel=1, data=[32, 91]),
   midi.PitchWheelEvent(tick=1, channel=1, data=[0, 92]),
   midi.PitchWheelEvent(tick=1, channel=1, data=[96, 92]),
   midi.PitchWheelEvent(tick=1, channel=1, data=[32, 93]),
   midi.PitchWheelEvent(tick=1, channel=1, data=[0, 94]),
   midi.PitchWheelEvent(tick=1, channel=1, data=[96, 94]),
   midi.PitchWheelEvent(tick=1, channel=1, data=[32, 95]),
   midi.PitchWheelEvent(tick=1, channel=1, data=[0, 96]),
   midi.PitchWheelEvent(tick=1, channel=1, data=[96, 96]),
   midi.PitchWheelEvent(tick=1, channel=1, data=[32, 97]),
   midi.PitchWheelEvent(tick=1, channel=1, data=[0, 98]),
   midi.PitchWheelEvent(tick=1, channel=1, data=[96, 98]),
   midi.PitchWheelEvent(tick=1, channel=1, data=[32, 99]),
   midi.PitchWheelEvent(tick=1, channel=1, data=[0, 100]),
   midi.PitchWheelEvent(tick=1, channel=1, data=[96, 100]),
   midi.PitchWheelEvent(tick=1, channel=1, data=[32, 101]),
   midi.PitchWheelEvent(tick=1, channel=1, data=[0, 102]),
   midi.PitchWheelEvent(tick=1, channel=1, data=[96, 102]),
   midi.PitchWheelEvent(tick=1, channel=1, data=[32, 103]),
   midi.PitchWheelEvent(tick=1, channel=1, data=[0, 104]),
   midi.PitchWheelEvent(tick=1, channel=1, data=[96, 104]),
   midi.PitchWheelEvent(tick=1, channel=1, data=[32, 105]),
   midi.PitchWheelEvent(tick=1, channel=1, data=[0, 106]),
   midi.PitchWheelEvent(tick=1, channel=1, data=[64, 106]),
   midi.PitchWheelEvent(tick=1, channel=1, data=[32, 107]),
   midi.PitchWheelEvent(tick=1, channel=1, data=[0, 108]),
   midi.PitchWheelEvent(tick=1, channel=1, data=[64, 108]),
   midi.PitchWheelEvent(tick=1, channel=1, data=[32, 109]),
   midi.PitchWheelEvent(tick=1, channel=1, data=[0, 110]),
   midi.PitchWheelEvent(tick=1, channel=1, data=[64, 110]),
   midi.PitchWheelEvent(tick=1, channel=1, data=[32, 111]),
   midi.PitchWheelEvent(tick=1, channel=1, data=[0, 112]),
   midi.PitchWheelEvent(tick=1, channel=1, data=[64, 112]),
   midi.PitchWheelEvent(tick=1, channel=1, data=[32, 113]),
   midi.PitchWheelEvent(tick=1, channel=1, data=[0, 114]),
   midi.PitchWheelEvent(tick=1, channel=1, data=[64, 114]),
   midi.PitchWheelEvent(tick=1, channel=1, data=[32, 115]),
   midi.PitchWheelEvent(tick=1, channel=1, data=[0, 116]),
   midi.PitchWheelEvent(tick=1, channel=1, data=[64, 116]),
   midi.PitchWheelEvent(tick=1, channel=1, data=[32, 117]),
   midi.PitchWheelEvent(tick=1, channel=1, data=[0, 118]),
   midi.PitchWheelEvent(tick=1, channel=1, data=[64, 118]),
   midi.PitchWheelEvent(tick=1, channel=1, data=[32, 119]),
   midi.PitchWheelEvent(tick=1, channel=1, data=[0, 120]),
   midi.PitchWheelEvent(tick=1, channel=1, data=[64, 120]),
   midi.PitchWheelEvent(tick=1, channel=1, data=[32, 121]),
   midi.PitchWheelEvent(tick=1, channel=1, data=[0, 122]),
   midi.PitchWheelEvent(tick=1, channel=1, data=[64, 122]),
   midi.PitchWheelEvent(tick=1, channel=1, data=[32, 123]),
   midi.PitchWheelEvent(tick=1, channel=1, data=[0, 124]),
   midi.PitchWheelEvent(tick=1, channel=1, data=[64, 124]),
   midi.PitchWheelEvent(tick=1, channel=1, data=[32, 125]),
   midi.PitchWheelEvent(tick=1, channel=1, data=[0, 126]),
   midi.PitchWheelEvent(tick=1, channel=1, data=[64, 126]),
   midi.NoteOnEvent(tick=0, channel=1, data=[93, 0]),
   midi.PitchWheelEvent(tick=1, channel=1, data=[32, 127]),
   midi.PitchWheelEvent(tick=1, channel=1, data=[127, 127]),
   midi.PitchWheelEvent(tick=0, channel=1, data=[0, 64]),
   midi.NoteOnEvent(tick=0, channel=1, data=[95, 110]),
   midi.NoteOnEvent(tick=94, channel=1, data=[95, 0]),
   midi.NoteOnEvent(tick=2, channel=1, data=[93, 110]),
   midi.NoteOnEvent(tick=46, channel=1, data=[93, 0]),
   midi.NoteOnEvent(tick=2, channel=1, data=[90, 110]),
   midi.NoteOnEvent(tick=46, channel=1, data=[90, 0]),
   midi.NoteOnEvent(tick=2, channel=1, data=[93, 110]),
   midi.NoteOnEvent(tick=94, channel=1, data=[93, 0]),
   midi.PitchWheelEvent(tick=2, channel=1, data=[0, 64]),
   midi.NoteOnEvent(tick=0, channel=1, data=[93, 110]),
   midi.PitchWheelEvent(tick=1, channel=1, data=[96, 64]),
   midi.PitchWheelEvent(tick=1, channel=1, data=[64, 65]),
   midi.PitchWheelEvent(tick=1, channel=1, data=[0, 66]),
   midi.PitchWheelEvent(tick=1, channel=1, data=[96, 66]),
   midi.PitchWheelEvent(tick=1, channel=1, data=[64, 67]),
   midi.PitchWheelEvent(tick=1, channel=1, data=[0, 68]),
   midi.PitchWheelEvent(tick=1, channel=1, data=[96, 68]),
   midi.PitchWheelEvent(tick=1, channel=1, data=[64, 69]),
   midi.PitchWheelEvent(tick=1, channel=1, data=[0, 70]),
   midi.PitchWheelEvent(tick=1, channel=1, data=[96, 70]),
   midi.PitchWheelEvent(tick=1, channel=1, data=[64, 71]),
   midi.PitchWheelEvent(tick=1, channel=1, data=[0, 72]),
   midi.PitchWheelEvent(tick=1, channel=1, data=[96, 72]),
   midi.PitchWheelEvent(tick=1, channel=1, data=[64, 73]),
   midi.PitchWheelEvent(tick=1, channel=1, data=[0, 74]),
   midi.PitchWheelEvent(tick=1, channel=1, data=[96, 74]),
   midi.PitchWheelEvent(tick=1, channel=1, data=[64, 75]),
   midi.PitchWheelEvent(tick=1, channel=1, data=[0, 76]),
   midi.PitchWheelEvent(tick=1, channel=1, data=[96, 76]),
   midi.PitchWheelEvent(tick=1, channel=1, data=[64, 77]),
   midi.PitchWheelEvent(tick=1, channel=1, data=[0, 78]),
   midi.PitchWheelEvent(tick=1, channel=1, data=[96, 78]),
   midi.PitchWheelEvent(tick=1, channel=1, data=[64, 79]),
   midi.PitchWheelEvent(tick=1, channel=1, data=[0, 80]),
   midi.PitchWheelEvent(tick=1, channel=1, data=[96, 80]),
   midi.PitchWheelEvent(tick=1, channel=1, data=[64, 81]),
   midi.PitchWheelEvent(tick=1, channel=1, data=[0, 82]),
   midi.PitchWheelEvent(tick=1, channel=1, data=[96, 82]),
   midi.PitchWheelEvent(tick=1, channel=1, data=[64, 83]),
   midi.PitchWheelEvent(tick=1, channel=1, data=[0, 84]),
   midi.PitchWheelEvent(tick=1, channel=1, data=[96, 84]),
   midi.PitchWheelEvent(tick=1, channel=1, data=[32, 85]),
   midi.PitchWheelEvent(tick=1, channel=1, data=[0, 86]),
   midi.PitchWheelEvent(tick=1, channel=1, data=[96, 86]),
   midi.PitchWheelEvent(tick=1, channel=1, data=[32, 87]),
   midi.PitchWheelEvent(tick=1, channel=1, data=[0, 88]),
   midi.PitchWheelEvent(tick=1, channel=1, data=[96, 88]),
   midi.PitchWheelEvent(tick=1, channel=1, data=[32, 89]),
   midi.PitchWheelEvent(tick=1, channel=1, data=[0, 90]),
   midi.PitchWheelEvent(tick=1, channel=1, data=[96, 90]),
   midi.PitchWheelEvent(tick=1, channel=1, data=[32, 91]),
   midi.PitchWheelEvent(tick=1, channel=1, data=[0, 92]),
   midi.PitchWheelEvent(tick=1, channel=1, data=[96, 92]),
   midi.PitchWheelEvent(tick=1, channel=1, data=[32, 93]),
   midi.PitchWheelEvent(tick=1, channel=1, data=[0, 94]),
   midi.PitchWheelEvent(tick=1, channel=1, data=[96, 94]),
   midi.PitchWheelEvent(tick=1, channel=1, data=[32, 95]),
   midi.PitchWheelEvent(tick=1, channel=1, data=[0, 96]),
   midi.PitchWheelEvent(tick=1, channel=1, data=[96, 96]),
   midi.PitchWheelEvent(tick=1, channel=1, data=[32, 97]),
   midi.PitchWheelEvent(tick=1, channel=1, data=[0, 98]),
   midi.PitchWheelEvent(tick=1, channel=1, data=[96, 98]),
   midi.PitchWheelEvent(tick=1, channel=1, data=[32, 99]),
   midi.PitchWheelEvent(tick=1, channel=1, data=[0, 100]),
   midi.PitchWheelEvent(tick=1, channel=1, data=[96, 100]),
   midi.PitchWheelEvent(tick=1, channel=1, data=[32, 101]),
   midi.PitchWheelEvent(tick=1, channel=1, data=[0, 102]),
   midi.PitchWheelEvent(tick=1, channel=1, data=[96, 102]),
   midi.PitchWheelEvent(tick=1, channel=1, data=[32, 103]),
   midi.PitchWheelEvent(tick=1, channel=1, data=[0, 104]),
   midi.PitchWheelEvent(tick=1, channel=1, data=[96, 104]),
   midi.PitchWheelEvent(tick=1, channel=1, data=[32, 105]),
   midi.PitchWheelEvent(tick=1, channel=1, data=[0, 106]),
   midi.PitchWheelEvent(tick=1, channel=1, data=[64, 106]),
   midi.PitchWheelEvent(tick=1, channel=1, data=[32, 107]),
   midi.PitchWheelEvent(tick=1, channel=1, data=[0, 108]),
   midi.PitchWheelEvent(tick=1, channel=1, data=[64, 108]),
   midi.PitchWheelEvent(tick=1, channel=1, data=[32, 109]),
   midi.PitchWheelEvent(tick=1, channel=1, data=[0, 110]),
   midi.PitchWheelEvent(tick=1, channel=1, data=[64, 110]),
   midi.PitchWheelEvent(tick=1, channel=1, data=[32, 111]),
   midi.PitchWheelEvent(tick=1, channel=1, data=[0, 112]),
   midi.PitchWheelEvent(tick=1, channel=1, data=[64, 112]),
   midi.PitchWheelEvent(tick=1, channel=1, data=[32, 113]),
   midi.PitchWheelEvent(tick=1, channel=1, data=[0, 114]),
   midi.PitchWheelEvent(tick=1, channel=1, data=[64, 114]),
   midi.PitchWheelEvent(tick=1, channel=1, data=[32, 115]),
   midi.PitchWheelEvent(tick=1, channel=1, data=[0, 116]),
   midi.PitchWheelEvent(tick=1, channel=1, data=[64, 116]),
   midi.PitchWheelEvent(tick=1, channel=1, data=[32, 117]),
   midi.PitchWheelEvent(tick=1, channel=1, data=[0, 118]),
   midi.PitchWheelEvent(tick=1, channel=1, data=[64, 118]),
   midi.PitchWheelEvent(tick=1, channel=1, data=[32, 119]),
   midi.PitchWheelEvent(tick=1, channel=1, data=[0, 120]),
   midi.PitchWheelEvent(tick=1, channel=1, data=[64, 120]),
   midi.PitchWheelEvent(tick=1, channel=1, data=[32, 121]),
   midi.PitchWheelEvent(tick=1, channel=1, data=[0, 122]),
   midi.PitchWheelEvent(tick=1, channel=1, data=[64, 122]),
   midi.PitchWheelEvent(tick=1, channel=1, data=[32, 123]),
   midi.PitchWheelEvent(tick=1, channel=1, data=[0, 124]),
   midi.PitchWheelEvent(tick=1, channel=1, data=[64, 124]),
   midi.PitchWheelEvent(tick=1, channel=1, data=[32, 125]),
   midi.PitchWheelEvent(tick=1, channel=1, data=[0, 126]),
   midi.PitchWheelEvent(tick=1, channel=1, data=[64, 126]),
   midi.NoteOnEvent(tick=0, channel=1, data=[93, 0]),
   midi.PitchWheelEvent(tick=1, channel=1, data=[32, 127]),
   midi.PitchWheelEvent(tick=1, channel=1, data=[127, 127]),
   midi.PitchWheelEvent(tick=0, channel=1, data=[0, 64]),
   midi.NoteOnEvent(tick=0, channel=1, data=[95, 110]),
   midi.NoteOnEvent(tick=94, channel=1, data=[95, 0]),
   midi.PitchWheelEvent(tick=2, channel=1, data=[0, 64]),
   midi.NoteOnEvent(tick=0, channel=1, data=[93, 110]),
   midi.PitchWheelEvent(tick=1, channel=1, data=[96, 64]),
   midi.PitchWheelEvent(tick=1, channel=1, data=[64, 65]),
   midi.PitchWheelEvent(tick=1, channel=1, data=[0, 66]),
   midi.PitchWheelEvent(tick=1, channel=1, data=[96, 66]),
   midi.PitchWheelEvent(tick=1, channel=1, data=[64, 67]),
   midi.PitchWheelEvent(tick=1, channel=1, data=[0, 68]),
   midi.PitchWheelEvent(tick=1, channel=1, data=[96, 68]),
   midi.PitchWheelEvent(tick=1, channel=1, data=[64, 69]),
   midi.PitchWheelEvent(tick=1, channel=1, data=[0, 70]),
   midi.PitchWheelEvent(tick=1, channel=1, data=[96, 70]),
   midi.PitchWheelEvent(tick=1, channel=1, data=[64, 71]),
   midi.PitchWheelEvent(tick=1, channel=1, data=[0, 72]),
   midi.PitchWheelEvent(tick=1, channel=1, data=[96, 72]),
   midi.PitchWheelEvent(tick=1, channel=1, data=[64, 73]),
   midi.PitchWheelEvent(tick=1, channel=1, data=[0, 74]),
   midi.PitchWheelEvent(tick=1, channel=1, data=[96, 74]),
   midi.PitchWheelEvent(tick=1, channel=1, data=[64, 75]),
   midi.PitchWheelEvent(tick=1, channel=1, data=[0, 76]),
   midi.PitchWheelEvent(tick=1, channel=1, data=[96, 76]),
   midi.PitchWheelEvent(tick=1, channel=1, data=[64, 77]),
   midi.PitchWheelEvent(tick=1, channel=1, data=[0, 78]),
   midi.PitchWheelEvent(tick=1, channel=1, data=[96, 78]),
   midi.PitchWheelEvent(tick=1, channel=1, data=[64, 79]),
   midi.PitchWheelEvent(tick=1, channel=1, data=[0, 80]),
   midi.PitchWheelEvent(tick=1, channel=1, data=[96, 80]),
   midi.PitchWheelEvent(tick=1, channel=1, data=[64, 81]),
   midi.PitchWheelEvent(tick=1, channel=1, data=[0, 82]),
   midi.PitchWheelEvent(tick=1, channel=1, data=[96, 82]),
   midi.PitchWheelEvent(tick=1, channel=1, data=[64, 83]),
   midi.PitchWheelEvent(tick=1, channel=1, data=[0, 84]),
   midi.PitchWheelEvent(tick=1, channel=1, data=[96, 84]),
   midi.PitchWheelEvent(tick=1, channel=1, data=[32, 85]),
   midi.PitchWheelEvent(tick=1, channel=1, data=[0, 86]),
   midi.PitchWheelEvent(tick=1, channel=1, data=[96, 86]),
   midi.PitchWheelEvent(tick=1, channel=1, data=[32, 87]),
   midi.PitchWheelEvent(tick=1, channel=1, data=[0, 88]),
   midi.PitchWheelEvent(tick=1, channel=1, data=[96, 88]),
   midi.PitchWheelEvent(tick=1, channel=1, data=[32, 89]),
   midi.PitchWheelEvent(tick=1, channel=1, data=[0, 90]),
   midi.PitchWheelEvent(tick=1, channel=1, data=[96, 90]),
   midi.PitchWheelEvent(tick=1, channel=1, data=[32, 91]),
   midi.PitchWheelEvent(tick=1, channel=1, data=[0, 92]),
   midi.PitchWheelEvent(tick=1, channel=1, data=[96, 92]),
   midi.PitchWheelEvent(tick=1, channel=1, data=[32, 93]),
   midi.PitchWheelEvent(tick=1, channel=1, data=[0, 94]),
   midi.PitchWheelEvent(tick=1, channel=1, data=[96, 94]),
   midi.PitchWheelEvent(tick=1, channel=1, data=[32, 95]),
   midi.PitchWheelEvent(tick=1, channel=1, data=[0, 96]),
   midi.PitchWheelEvent(tick=1, channel=1, data=[96, 96]),
   midi.PitchWheelEvent(tick=1, channel=1, data=[32, 97]),
   midi.PitchWheelEvent(tick=1, channel=1, data=[0, 98]),
   midi.PitchWheelEvent(tick=1, channel=1, data=[96, 98]),
   midi.PitchWheelEvent(tick=1, channel=1, data=[32, 99]),
   midi.PitchWheelEvent(tick=1, channel=1, data=[0, 100]),
   midi.PitchWheelEvent(tick=1, channel=1, data=[96, 100]),
   midi.PitchWheelEvent(tick=1, channel=1, data=[32, 101]),
   midi.PitchWheelEvent(tick=1, channel=1, data=[0, 102]),
   midi.PitchWheelEvent(tick=1, channel=1, data=[96, 102]),
   midi.PitchWheelEvent(tick=1, channel=1, data=[32, 103]),
   midi.PitchWheelEvent(tick=1, channel=1, data=[0, 104]),
   midi.PitchWheelEvent(tick=1, channel=1, data=[96, 104]),
   midi.PitchWheelEvent(tick=1, channel=1, data=[32, 105]),
   midi.PitchWheelEvent(tick=1, channel=1, data=[0, 106]),
   midi.PitchWheelEvent(tick=1, channel=1, data=[64, 106]),
   midi.PitchWheelEvent(tick=1, channel=1, data=[32, 107]),
   midi.PitchWheelEvent(tick=1, channel=1, data=[0, 108]),
   midi.PitchWheelEvent(tick=1, channel=1, data=[64, 108]),
   midi.PitchWheelEvent(tick=1, channel=1, data=[32, 109]),
   midi.PitchWheelEvent(tick=1, channel=1, data=[0, 110]),
   midi.PitchWheelEvent(tick=1, channel=1, data=[64, 110]),
   midi.PitchWheelEvent(tick=1, channel=1, data=[32, 111]),
   midi.PitchWheelEvent(tick=1, channel=1, data=[0, 112]),
   midi.PitchWheelEvent(tick=1, channel=1, data=[64, 112]),
   midi.PitchWheelEvent(tick=1, channel=1, data=[32, 113]),
   midi.PitchWheelEvent(tick=1, channel=1, data=[0, 114]),
   midi.PitchWheelEvent(tick=1, channel=1, data=[64, 114]),
   midi.PitchWheelEvent(tick=1, channel=1, data=[32, 115]),
   midi.PitchWheelEvent(tick=1, channel=1, data=[0, 116]),
   midi.PitchWheelEvent(tick=1, channel=1, data=[64, 116]),
   midi.PitchWheelEvent(tick=1, channel=1, data=[32, 117]),
   midi.PitchWheelEvent(tick=1, channel=1, data=[0, 118]),
   midi.PitchWheelEvent(tick=1, channel=1, data=[64, 118]),
   midi.PitchWheelEvent(tick=1, channel=1, data=[32, 119]),
   midi.PitchWheelEvent(tick=1, channel=1, data=[0, 120]),
   midi.PitchWheelEvent(tick=1, channel=1, data=[64, 120]),
   midi.PitchWheelEvent(tick=1, channel=1, data=[32, 121]),
   midi.PitchWheelEvent(tick=1, channel=1, data=[0, 122]),
   midi.PitchWheelEvent(tick=1, channel=1, data=[64, 122]),
   midi.PitchWheelEvent(tick=1, channel=1, data=[32, 123]),
   midi.PitchWheelEvent(tick=1, channel=1, data=[0, 124]),
   midi.PitchWheelEvent(tick=1, channel=1, data=[64, 124]),
   midi.PitchWheelEvent(tick=1, channel=1, data=[32, 125]),
   midi.PitchWheelEvent(tick=1, channel=1, data=[0, 126]),
   midi.PitchWheelEvent(tick=1, channel=1, data=[64, 126]),
   midi.NoteOnEvent(tick=0, channel=1, data=[93, 0]),
   midi.PitchWheelEvent(tick=1, channel=1, data=[32, 127]),
   midi.PitchWheelEvent(tick=1, channel=1, data=[127, 127]),
   midi.PitchWheelEvent(tick=0, channel=1, data=[0, 64]),
   midi.NoteOnEvent(tick=0, channel=1, data=[95, 110]),
   midi.NoteOnEvent(tick=94, channel=1, data=[95, 0]),
   midi.PitchWheelEvent(tick=2, channel=1, data=[0, 64]),
   midi.NoteOnEvent(tick=0, channel=1, data=[93, 110]),
   midi.PitchWheelEvent(tick=1, channel=1, data=[96, 64]),
   midi.PitchWheelEvent(tick=1, channel=1, data=[64, 65]),
   midi.PitchWheelEvent(tick=1, channel=1, data=[0, 66]),
   midi.PitchWheelEvent(tick=1, channel=1, data=[96, 66]),
   midi.PitchWheelEvent(tick=1, channel=1, data=[64, 67]),
   midi.PitchWheelEvent(tick=1, channel=1, data=[0, 68]),
   midi.PitchWheelEvent(tick=1, channel=1, data=[96, 68]),
   midi.PitchWheelEvent(tick=1, channel=1, data=[64, 69]),
   midi.PitchWheelEvent(tick=1, channel=1, data=[0, 70]),
   midi.PitchWheelEvent(tick=1, channel=1, data=[96, 70]),
   midi.PitchWheelEvent(tick=1, channel=1, data=[64, 71]),
   midi.PitchWheelEvent(tick=1, channel=1, data=[0, 72]),
   midi.PitchWheelEvent(tick=1, channel=1, data=[96, 72]),
   midi.PitchWheelEvent(tick=1, channel=1, data=[64, 73]),
   midi.PitchWheelEvent(tick=1, channel=1, data=[0, 74]),
   midi.PitchWheelEvent(tick=1, channel=1, data=[96, 74]),
   midi.PitchWheelEvent(tick=1, channel=1, data=[64, 75]),
   midi.PitchWheelEvent(tick=1, channel=1, data=[0, 76]),
   midi.PitchWheelEvent(tick=1, channel=1, data=[96, 76]),
   midi.PitchWheelEvent(tick=1, channel=1, data=[64, 77]),
   midi.PitchWheelEvent(tick=1, channel=1, data=[0, 78]),
   midi.PitchWheelEvent(tick=1, channel=1, data=[96, 78]),
   midi.PitchWheelEvent(tick=1, channel=1, data=[64, 79]),
   midi.PitchWheelEvent(tick=1, channel=1, data=[0, 80]),
   midi.PitchWheelEvent(tick=1, channel=1, data=[96, 80]),
   midi.PitchWheelEvent(tick=1, channel=1, data=[64, 81]),
   midi.PitchWheelEvent(tick=1, channel=1, data=[0, 82]),
   midi.PitchWheelEvent(tick=1, channel=1, data=[96, 82]),
   midi.PitchWheelEvent(tick=1, channel=1, data=[64, 83]),
   midi.PitchWheelEvent(tick=1, channel=1, data=[0, 84]),
   midi.PitchWheelEvent(tick=1, channel=1, data=[96, 84]),
   midi.PitchWheelEvent(tick=1, channel=1, data=[32, 85]),
   midi.PitchWheelEvent(tick=1, channel=1, data=[0, 86]),
   midi.PitchWheelEvent(tick=1, channel=1, data=[96, 86]),
   midi.PitchWheelEvent(tick=1, channel=1, data=[32, 87]),
   midi.PitchWheelEvent(tick=1, channel=1, data=[0, 88]),
   midi.PitchWheelEvent(tick=1, channel=1, data=[96, 88]),
   midi.PitchWheelEvent(tick=1, channel=1, data=[32, 89]),
   midi.PitchWheelEvent(tick=1, channel=1, data=[0, 90]),
   midi.PitchWheelEvent(tick=1, channel=1, data=[96, 90]),
   midi.PitchWheelEvent(tick=1, channel=1, data=[32, 91]),
   midi.PitchWheelEvent(tick=1, channel=1, data=[0, 92]),
   midi.PitchWheelEvent(tick=1, channel=1, data=[96, 92]),
   midi.PitchWheelEvent(tick=1, channel=1, data=[32, 93]),
   midi.PitchWheelEvent(tick=1, channel=1, data=[0, 94]),
   midi.PitchWheelEvent(tick=1, channel=1, data=[96, 94]),
   midi.PitchWheelEvent(tick=1, channel=1, data=[32, 95]),
   midi.PitchWheelEvent(tick=1, channel=1, data=[0, 96]),
   midi.PitchWheelEvent(tick=1, channel=1, data=[96, 96]),
   midi.PitchWheelEvent(tick=1, channel=1, data=[32, 97]),
   midi.PitchWheelEvent(tick=1, channel=1, data=[0, 98]),
   midi.PitchWheelEvent(tick=1, channel=1, data=[96, 98]),
   midi.PitchWheelEvent(tick=1, channel=1, data=[32, 99]),
   midi.PitchWheelEvent(tick=1, channel=1, data=[0, 100]),
   midi.PitchWheelEvent(tick=1, channel=1, data=[96, 100]),
   midi.PitchWheelEvent(tick=1, channel=1, data=[32, 101]),
   midi.PitchWheelEvent(tick=1, channel=1, data=[0, 102]),
   midi.PitchWheelEvent(tick=1, channel=1, data=[96, 102]),
   midi.PitchWheelEvent(tick=1, channel=1, data=[32, 103]),
   midi.PitchWheelEvent(tick=1, channel=1, data=[0, 104]),
   midi.PitchWheelEvent(tick=1, channel=1, data=[96, 104]),
   midi.PitchWheelEvent(tick=1, channel=1, data=[32, 105]),
   midi.PitchWheelEvent(tick=1, channel=1, data=[0, 106]),
   midi.PitchWheelEvent(tick=1, channel=1, data=[64, 106]),
   midi.PitchWheelEvent(tick=1, channel=1, data=[32, 107]),
   midi.PitchWheelEvent(tick=1, channel=1, data=[0, 108]),
   midi.PitchWheelEvent(tick=1, channel=1, data=[64, 108]),
   midi.PitchWheelEvent(tick=1, channel=1, data=[32, 109]),
   midi.PitchWheelEvent(tick=1, channel=1, data=[0, 110]),
   midi.PitchWheelEvent(tick=1, channel=1, data=[64, 110]),
   midi.PitchWheelEvent(tick=1, channel=1, data=[32, 111]),
   midi.PitchWheelEvent(tick=1, channel=1, data=[0, 112]),
   midi.PitchWheelEvent(tick=1, channel=1, data=[64, 112]),
   midi.PitchWheelEvent(tick=1, channel=1, data=[32, 113]),
   midi.PitchWheelEvent(tick=1, channel=1, data=[0, 114]),
   midi.PitchWheelEvent(tick=1, channel=1, data=[64, 114]),
   midi.PitchWheelEvent(tick=1, channel=1, data=[32, 115]),
   midi.PitchWheelEvent(tick=1, channel=1, data=[0, 116]),
   midi.PitchWheelEvent(tick=1, channel=1, data=[64, 116]),
   midi.PitchWheelEvent(tick=1, channel=1, data=[32, 117]),
   midi.PitchWheelEvent(tick=1, channel=1, data=[0, 118]),
   midi.PitchWheelEvent(tick=1, channel=1, data=[64, 118]),
   midi.PitchWheelEvent(tick=1, channel=1, data=[32, 119]),
   midi.PitchWheelEvent(tick=1, channel=1, data=[0, 120]),
   midi.PitchWheelEvent(tick=1, channel=1, data=[64, 120]),
   midi.PitchWheelEvent(tick=1, channel=1, data=[32, 121]),
   midi.PitchWheelEvent(tick=1, channel=1, data=[0, 122]),
   midi.PitchWheelEvent(tick=1, channel=1, data=[64, 122]),
   midi.PitchWheelEvent(tick=1, channel=1, data=[32, 123]),
   midi.PitchWheelEvent(tick=1, channel=1, data=[0, 124]),
   midi.PitchWheelEvent(tick=1, channel=1, data=[64, 124]),
   midi.PitchWheelEvent(tick=1, channel=1, data=[32, 125]),
   midi.PitchWheelEvent(tick=1, channel=1, data=[0, 126]),
   midi.PitchWheelEvent(tick=1, channel=1, data=[64, 126]),
   midi.PitchWheelEvent(tick=1, channel=1, data=[32, 127]),
   midi.PitchWheelEvent(tick=1, channel=1, data=[127, 127]),
   midi.NoteOnEvent(tick=190, channel=1, data=[93, 0]),
   midi.PitchWheelEvent(tick=2, channel=1, data=[0, 64]),
   midi.NoteOnEvent(tick=96, channel=1, data=[95, 110]),
   midi.NoteOnEvent(tick=62, channel=1, data=[95, 0]),
   midi.NoteOnEvent(tick=2, channel=1, data=[96, 110]),
   midi.NoteOnEvent(tick=62, channel=1, data=[96, 0]),
   midi.NoteOnEvent(tick=2, channel=1, data=[98, 110]),
   midi.NoteOnEvent(tick=62, channel=1, data=[98, 0]),
   midi.NoteOnEvent(tick=2, channel=1, data=[96, 110]),
   midi.NoteOnEvent(tick=62, channel=1, data=[96, 0]),
   midi.NoteOnEvent(tick=2, channel=1, data=[95, 110]),
   midi.NoteOnEvent(tick=62, channel=1, data=[95, 0]),
   midi.NoteOnEvent(tick=2, channel=1, data=[93, 110]),
   midi.NoteOnEvent(tick=62, channel=1, data=[93, 0]),
   midi.NoteOnEvent(tick=2, channel=1, data=[95, 110]),
   midi.NoteOnEvent(tick=62, channel=1, data=[95, 0]),
   midi.NoteOnEvent(tick=2, channel=1, data=[93, 110]),
   midi.NoteOnEvent(tick=62, channel=1, data=[93, 0]),
   midi.NoteOnEvent(tick=2, channel=1, data=[91, 110]),
   midi.NoteOnEvent(tick=62, channel=1, data=[91, 0]),
   midi.NoteOnEvent(tick=2, channel=1, data=[93, 110]),
   midi.NoteOnEvent(tick=62, channel=1, data=[93, 0]),
   midi.NoteOnEvent(tick=2, channel=1, data=[91, 110]),
   midi.NoteOnEvent(tick=62, channel=1, data=[91, 0]),
   midi.NoteOnEvent(tick=2, channel=1, data=[90, 110]),
   midi.NoteOnEvent(tick=62, channel=1, data=[90, 0]),
   midi.NoteOnEvent(tick=2, channel=1, data=[91, 110]),
   midi.NoteOnEvent(tick=62, channel=1, data=[91, 0]),
   midi.NoteOnEvent(tick=2, channel=1, data=[93, 110]),
   midi.NoteOnEvent(tick=62, channel=1, data=[93, 0]),
   midi.NoteOnEvent(tick=2, channel=1, data=[90, 110]),
   midi.NoteOnEvent(tick=62, channel=1, data=[90, 0]),
   midi.NoteOnEvent(tick=2, channel=1, data=[91, 110]),
   midi.NoteOnEvent(tick=62, channel=1, data=[91, 0]),
   midi.NoteOnEvent(tick=2, channel=1, data=[90, 110]),
   midi.NoteOnEvent(tick=62, channel=1, data=[90, 0]),
   midi.NoteOnEvent(tick=2, channel=1, data=[88, 110]),
   midi.NoteOnEvent(tick=62, channel=1, data=[88, 0]),
   midi.NoteOnEvent(tick=2, channel=1, data=[90, 110]),
   midi.NoteOnEvent(tick=62, channel=1, data=[90, 0]),
   midi.NoteOnEvent(tick=2, channel=1, data=[88, 110]),
   midi.NoteOnEvent(tick=62, channel=1, data=[88, 0]),
   midi.NoteOnEvent(tick=2, channel=1, data=[86, 110]),
   midi.NoteOnEvent(tick=62, channel=1, data=[86, 0]),
   midi.NoteOnEvent(tick=2, channel=1, data=[88, 110]),
   midi.NoteOnEvent(tick=62, channel=1, data=[88, 0]),
   midi.NoteOnEvent(tick=2, channel=1, data=[86, 110]),
   midi.NoteOnEvent(tick=62, channel=1, data=[86, 0]),
   midi.NoteOnEvent(tick=2, channel=1, data=[84, 110]),
   midi.NoteOnEvent(tick=62, channel=1, data=[84, 0]),
   midi.NoteOnEvent(tick=2, channel=1, data=[84, 110]),
   midi.NoteOnEvent(tick=62, channel=1, data=[84, 0]),
   midi.NoteOnEvent(tick=2, channel=1, data=[86, 110]),
   midi.NoteOnEvent(tick=62, channel=1, data=[86, 0]),
   midi.NoteOnEvent(tick=2, channel=1, data=[88, 110]),
   midi.NoteOnEvent(tick=62, channel=1, data=[88, 0]),
   midi.NoteOnEvent(tick=2, channel=1, data=[86, 110]),
   midi.NoteOnEvent(tick=62, channel=1, data=[86, 0]),
   midi.NoteOnEvent(tick=2, channel=1, data=[84, 110]),
   midi.NoteOnEvent(tick=62, channel=1, data=[84, 0]),
   midi.NoteOnEvent(tick=2, channel=1, data=[83, 110]),
   midi.NoteOnEvent(tick=126, channel=1, data=[83, 0]),
   midi.NoteOnEvent(tick=2, channel=1, data=[81, 110]),
   midi.NoteOnEvent(tick=62, channel=1, data=[81, 0]),
   midi.NoteOnEvent(tick=2, channel=1, data=[83, 110]),
   midi.NoteOnEvent(tick=62, channel=1, data=[83, 0]),
   midi.NoteOnEvent(tick=2, channel=1, data=[81, 110]),
   midi.NoteOnEvent(tick=62, channel=1, data=[81, 0]),
   midi.NoteOnEvent(tick=2, channel=1, data=[79, 110]),
   midi.NoteOnEvent(tick=62, channel=1, data=[79, 0]),
   midi.NoteOnEvent(tick=2, channel=1, data=[78, 110]),
   midi.NoteOnEvent(tick=62, channel=1, data=[78, 0]),
   midi.NoteOnEvent(tick=2, channel=1, data=[86, 110]),
   midi.NoteOnEvent(tick=30, channel=1, data=[86, 0]),
   midi.NoteOnEvent(tick=2, channel=1, data=[83, 110]),
   midi.NoteOnEvent(tick=30, channel=1, data=[83, 0]),
   midi.NoteOnEvent(tick=2, channel=1, data=[88, 110]),
   midi.NoteOnEvent(tick=30, channel=1, data=[88, 0]),
   midi.NoteOnEvent(tick=2, channel=1, data=[86, 110]),
   midi.NoteOnEvent(tick=30, channel=1, data=[86, 0]),
   midi.NoteOnEvent(tick=2, channel=1, data=[83, 110]),
   midi.NoteOnEvent(tick=30, channel=1, data=[83, 0]),
   midi.NoteOnEvent(tick=2, channel=1, data=[88, 110]),
   midi.NoteOnEvent(tick=30, channel=1, data=[88, 0]),
   midi.NoteOnEvent(tick=2, channel=1, data=[86, 110]),
   midi.NoteOnEvent(tick=62, channel=1, data=[86, 0]),
   midi.NoteOnEvent(tick=2, channel=1, data=[88, 110]),
   midi.NoteOnEvent(tick=30, channel=1, data=[88, 0]),
   midi.NoteOnEvent(tick=2, channel=1, data=[83, 110]),
   midi.NoteOnEvent(tick=30, channel=1, data=[83, 0]),
   midi.NoteOnEvent(tick=2, channel=1, data=[86, 110]),
   midi.NoteOnEvent(tick=30, channel=1, data=[86, 0]),
   midi.NoteOnEvent(tick=2, channel=1, data=[88, 110]),
   midi.NoteOnEvent(tick=30, channel=1, data=[88, 0]),
   midi.NoteOnEvent(tick=2, channel=1, data=[83, 110]),
   midi.NoteOnEvent(tick=30, channel=1, data=[83, 0]),
   midi.NoteOnEvent(tick=2, channel=1, data=[86, 110]),
   midi.NoteOnEvent(tick=30, channel=1, data=[86, 0]),
   midi.NoteOnEvent(tick=2, channel=1, data=[88, 110]),
   midi.NoteOnEvent(tick=30, channel=1, data=[88, 0]),
   midi.NoteOnEvent(tick=2, channel=1, data=[83, 110]),
   midi.NoteOnEvent(tick=30, channel=1, data=[83, 0]),
   midi.NoteOnEvent(tick=2, channel=1, data=[86, 110]),
   midi.NoteOnEvent(tick=126, channel=1, data=[86, 0]),
   midi.NoteOnEvent(tick=2, channel=1, data=[88, 110]),
   midi.NoteOnEvent(tick=30, channel=1, data=[88, 0]),
   midi.NoteOnEvent(tick=2, channel=1, data=[83, 110]),
   midi.NoteOnEvent(tick=30, channel=1, data=[83, 0]),
   midi.NoteOnEvent(tick=2, channel=1, data=[79, 110]),
   midi.NoteOnEvent(tick=62, channel=1, data=[79, 0]),
   midi.PitchWheelEvent(tick=2, channel=1, data=[0, 64]),
   midi.NoteOnEvent(tick=0, channel=1, data=[76, 110]),
   midi.PitchWheelEvent(tick=1, channel=1, data=[96, 64]),
   midi.PitchWheelEvent(tick=1, channel=1, data=[64, 65]),
   midi.PitchWheelEvent(tick=1, channel=1, data=[0, 66]),
   midi.PitchWheelEvent(tick=1, channel=1, data=[96, 66]),
   midi.PitchWheelEvent(tick=1, channel=1, data=[64, 67]),
   midi.PitchWheelEvent(tick=1, channel=1, data=[0, 68]),
   midi.PitchWheelEvent(tick=1, channel=1, data=[96, 68]),
   midi.PitchWheelEvent(tick=1, channel=1, data=[64, 69]),
   midi.PitchWheelEvent(tick=1, channel=1, data=[0, 70]),
   midi.PitchWheelEvent(tick=1, channel=1, data=[96, 70]),
   midi.PitchWheelEvent(tick=1, channel=1, data=[64, 71]),
   midi.PitchWheelEvent(tick=1, channel=1, data=[0, 72]),
   midi.PitchWheelEvent(tick=1, channel=1, data=[96, 72]),
   midi.PitchWheelEvent(tick=1, channel=1, data=[64, 73]),
   midi.PitchWheelEvent(tick=1, channel=1, data=[0, 74]),
   midi.PitchWheelEvent(tick=1, channel=1, data=[96, 74]),
   midi.PitchWheelEvent(tick=1, channel=1, data=[64, 75]),
   midi.PitchWheelEvent(tick=1, channel=1, data=[0, 76]),
   midi.PitchWheelEvent(tick=1, channel=1, data=[96, 76]),
   midi.PitchWheelEvent(tick=1, channel=1, data=[64, 77]),
   midi.PitchWheelEvent(tick=1, channel=1, data=[0, 78]),
   midi.PitchWheelEvent(tick=1, channel=1, data=[96, 78]),
   midi.PitchWheelEvent(tick=1, channel=1, data=[64, 79]),
   midi.PitchWheelEvent(tick=1, channel=1, data=[0, 80]),
   midi.PitchWheelEvent(tick=1, channel=1, data=[96, 80]),
   midi.PitchWheelEvent(tick=1, channel=1, data=[64, 81]),
   midi.PitchWheelEvent(tick=1, channel=1, data=[0, 82]),
   midi.PitchWheelEvent(tick=1, channel=1, data=[96, 82]),
   midi.PitchWheelEvent(tick=1, channel=1, data=[64, 83]),
   midi.PitchWheelEvent(tick=1, channel=1, data=[0, 84]),
   midi.PitchWheelEvent(tick=1, channel=1, data=[96, 84]),
   midi.PitchWheelEvent(tick=1, channel=1, data=[32, 85]),
   midi.PitchWheelEvent(tick=1, channel=1, data=[0, 86]),
   midi.PitchWheelEvent(tick=1, channel=1, data=[96, 86]),
   midi.PitchWheelEvent(tick=1, channel=1, data=[32, 87]),
   midi.PitchWheelEvent(tick=1, channel=1, data=[0, 88]),
   midi.PitchWheelEvent(tick=1, channel=1, data=[96, 88]),
   midi.PitchWheelEvent(tick=1, channel=1, data=[32, 89]),
   midi.PitchWheelEvent(tick=1, channel=1, data=[0, 90]),
   midi.PitchWheelEvent(tick=1, channel=1, data=[96, 90]),
   midi.PitchWheelEvent(tick=1, channel=1, data=[32, 91]),
   midi.PitchWheelEvent(tick=1, channel=1, data=[0, 92]),
   midi.PitchWheelEvent(tick=1, channel=1, data=[96, 92]),
   midi.PitchWheelEvent(tick=1, channel=1, data=[32, 93]),
   midi.PitchWheelEvent(tick=1, channel=1, data=[0, 94]),
   midi.PitchWheelEvent(tick=1, channel=1, data=[96, 94]),
   midi.PitchWheelEvent(tick=1, channel=1, data=[32, 95]),
   midi.PitchWheelEvent(tick=1, channel=1, data=[0, 96]),
   midi.PitchWheelEvent(tick=1, channel=1, data=[96, 96]),
   midi.PitchWheelEvent(tick=1, channel=1, data=[32, 97]),
   midi.PitchWheelEvent(tick=1, channel=1, data=[0, 98]),
   midi.PitchWheelEvent(tick=1, channel=1, data=[96, 98]),
   midi.PitchWheelEvent(tick=1, channel=1, data=[32, 99]),
   midi.PitchWheelEvent(tick=1, channel=1, data=[0, 100]),
   midi.PitchWheelEvent(tick=1, channel=1, data=[96, 100]),
   midi.PitchWheelEvent(tick=1, channel=1, data=[32, 101]),
   midi.PitchWheelEvent(tick=1, channel=1, data=[0, 102]),
   midi.PitchWheelEvent(tick=1, channel=1, data=[96, 102]),
   midi.PitchWheelEvent(tick=1, channel=1, data=[32, 103]),
   midi.PitchWheelEvent(tick=1, channel=1, data=[0, 104]),
   midi.PitchWheelEvent(tick=1, channel=1, data=[96, 104]),
   midi.PitchWheelEvent(tick=1, channel=1, data=[32, 105]),
   midi.PitchWheelEvent(tick=1, channel=1, data=[0, 106]),
   midi.PitchWheelEvent(tick=1, channel=1, data=[64, 106]),
   midi.PitchWheelEvent(tick=1, channel=1, data=[32, 107]),
   midi.PitchWheelEvent(tick=1, channel=1, data=[0, 108]),
   midi.PitchWheelEvent(tick=1, channel=1, data=[64, 108]),
   midi.PitchWheelEvent(tick=1, channel=1, data=[32, 109]),
   midi.PitchWheelEvent(tick=1, channel=1, data=[0, 110]),
   midi.PitchWheelEvent(tick=1, channel=1, data=[64, 110]),
   midi.PitchWheelEvent(tick=1, channel=1, data=[32, 111]),
   midi.PitchWheelEvent(tick=1, channel=1, data=[0, 112]),
   midi.PitchWheelEvent(tick=1, channel=1, data=[64, 112]),
   midi.PitchWheelEvent(tick=1, channel=1, data=[32, 113]),
   midi.PitchWheelEvent(tick=1, channel=1, data=[0, 114]),
   midi.PitchWheelEvent(tick=1, channel=1, data=[64, 114]),
   midi.PitchWheelEvent(tick=1, channel=1, data=[32, 115]),
   midi.PitchWheelEvent(tick=1, channel=1, data=[0, 116]),
   midi.PitchWheelEvent(tick=1, channel=1, data=[64, 116]),
   midi.PitchWheelEvent(tick=1, channel=1, data=[32, 117]),
   midi.PitchWheelEvent(tick=1, channel=1, data=[0, 118]),
   midi.PitchWheelEvent(tick=1, channel=1, data=[64, 118]),
   midi.PitchWheelEvent(tick=1, channel=1, data=[32, 119]),
   midi.PitchWheelEvent(tick=1, channel=1, data=[0, 120]),
   midi.PitchWheelEvent(tick=1, channel=1, data=[64, 120]),
   midi.PitchWheelEvent(tick=1, channel=1, data=[32, 121]),
   midi.PitchWheelEvent(tick=1, channel=1, data=[0, 122]),
   midi.PitchWheelEvent(tick=1, channel=1, data=[64, 122]),
   midi.PitchWheelEvent(tick=1, channel=1, data=[32, 123]),
   midi.PitchWheelEvent(tick=1, channel=1, data=[0, 124]),
   midi.PitchWheelEvent(tick=1, channel=1, data=[64, 124]),
   midi.PitchWheelEvent(tick=1, channel=1, data=[32, 125]),
   midi.PitchWheelEvent(tick=1, channel=1, data=[0, 126]),
   midi.PitchWheelEvent(tick=1, channel=1, data=[64, 126]),
   midi.PitchWheelEvent(tick=1, channel=1, data=[32, 127]),
   midi.PitchWheelEvent(tick=1, channel=1, data=[127, 127]),
   midi.NoteOnEvent(tick=64, channel=1, data=[76, 0]),
   midi.NoteOnEvent(tick=32, channel=1, data=[76, 110]),
   midi.NoteOnEvent(tick=94, channel=1, data=[76, 0]),
   midi.NoteOnEvent(tick=2, channel=1, data=[76, 110]),
   midi.NoteOnEvent(tick=94, channel=1, data=[76, 0]),
   midi.NoteOnEvent(tick=2, channel=1, data=[76, 110]),
   midi.NoteOnEvent(tick=94, channel=1, data=[76, 0]),
   midi.NoteOnEvent(tick=2, channel=1, data=[76, 110]),
   midi.NoteOnEvent(tick=94, channel=1, data=[76, 0]),
   midi.NoteOnEvent(tick=98, channel=1, data=[76, 110]),
   midi.NoteOnEvent(tick=94, channel=1, data=[76, 0]),
   midi.NoteOnEvent(tick=2, channel=1, data=[76, 110]),
   midi.NoteOnEvent(tick=126, channel=1, data=[76, 0]),
   midi.NoteOnEvent(tick=2, channel=1, data=[76, 110]),
   midi.NoteOnEvent(tick=126, channel=1, data=[76, 0]),
   midi.NoteOnEvent(tick=2, channel=1, data=[76, 110]),
   midi.NoteOnEvent(tick=126, channel=1, data=[76, 0]),
   midi.NoteOnEvent(tick=2, channel=1, data=[76, 110]),
   midi.PitchWheelEvent(tick=96, channel=1, data=[127, 127]),
   midi.PitchWheelEvent(tick=1, channel=1, data=[31, 127]),
   midi.PitchWheelEvent(tick=1, channel=1, data=[63, 126]),
   midi.PitchWheelEvent(tick=1, channel=1, data=[127, 125]),
   midi.PitchWheelEvent(tick=1, channel=1, data=[31, 125]),
   midi.PitchWheelEvent(tick=1, channel=1, data=[63, 124]),
   midi.PitchWheelEvent(tick=1, channel=1, data=[127, 123]),
   midi.PitchWheelEvent(tick=1, channel=1, data=[31, 123]),
   midi.PitchWheelEvent(tick=1, channel=1, data=[63, 122]),
   midi.PitchWheelEvent(tick=1, channel=1, data=[127, 121]),
   midi.PitchWheelEvent(tick=1, channel=1, data=[31, 121]),
   midi.PitchWheelEvent(tick=1, channel=1, data=[63, 120]),
   midi.PitchWheelEvent(tick=1, channel=1, data=[127, 119]),
   midi.PitchWheelEvent(tick=1, channel=1, data=[31, 119]),
   midi.PitchWheelEvent(tick=1, channel=1, data=[63, 118]),
   midi.PitchWheelEvent(tick=1, channel=1, data=[127, 117]),
   midi.PitchWheelEvent(tick=1, channel=1, data=[31, 117]),
   midi.PitchWheelEvent(tick=1, channel=1, data=[63, 116]),
   midi.PitchWheelEvent(tick=1, channel=1, data=[127, 115]),
   midi.PitchWheelEvent(tick=1, channel=1, data=[31, 115]),
   midi.PitchWheelEvent(tick=1, channel=1, data=[63, 114]),
   midi.PitchWheelEvent(tick=1, channel=1, data=[127, 113]),
   midi.PitchWheelEvent(tick=1, channel=1, data=[31, 113]),
   midi.PitchWheelEvent(tick=1, channel=1, data=[63, 112]),
   midi.PitchWheelEvent(tick=1, channel=1, data=[127, 111]),
   midi.PitchWheelEvent(tick=1, channel=1, data=[31, 111]),
   midi.PitchWheelEvent(tick=1, channel=1, data=[63, 110]),
   midi.PitchWheelEvent(tick=1, channel=1, data=[127, 109]),
   midi.PitchWheelEvent(tick=1, channel=1, data=[31, 109]),
   midi.PitchWheelEvent(tick=1, channel=1, data=[63, 108]),
   midi.PitchWheelEvent(tick=1, channel=1, data=[127, 107]),
   midi.PitchWheelEvent(tick=1, channel=1, data=[31, 107]),
   midi.PitchWheelEvent(tick=1, channel=1, data=[95, 106]),
   midi.PitchWheelEvent(tick=1, channel=1, data=[127, 105]),
   midi.PitchWheelEvent(tick=1, channel=1, data=[31, 105]),
   midi.PitchWheelEvent(tick=1, channel=1, data=[95, 104]),
   midi.PitchWheelEvent(tick=1, channel=1, data=[127, 103]),
   midi.PitchWheelEvent(tick=1, channel=1, data=[31, 103]),
   midi.PitchWheelEvent(tick=1, channel=1, data=[95, 102]),
   midi.PitchWheelEvent(tick=1, channel=1, data=[127, 101]),
   midi.PitchWheelEvent(tick=1, channel=1, data=[31, 101]),
   midi.PitchWheelEvent(tick=1, channel=1, data=[95, 100]),
   midi.PitchWheelEvent(tick=1, channel=1, data=[127, 99]),
   midi.PitchWheelEvent(tick=1, channel=1, data=[31, 99]),
   midi.PitchWheelEvent(tick=1, channel=1, data=[95, 98]),
   midi.PitchWheelEvent(tick=1, channel=1, data=[127, 97]),
   midi.PitchWheelEvent(tick=1, channel=1, data=[31, 97]),
   midi.PitchWheelEvent(tick=1, channel=1, data=[95, 96]),
   midi.PitchWheelEvent(tick=1, channel=1, data=[127, 95]),
   midi.PitchWheelEvent(tick=1, channel=1, data=[31, 95]),
   midi.PitchWheelEvent(tick=1, channel=1, data=[95, 94]),
   midi.PitchWheelEvent(tick=1, channel=1, data=[127, 93]),
   midi.PitchWheelEvent(tick=1, channel=1, data=[31, 93]),
   midi.PitchWheelEvent(tick=1, channel=1, data=[95, 92]),
   midi.PitchWheelEvent(tick=1, channel=1, data=[127, 91]),
   midi.PitchWheelEvent(tick=1, channel=1, data=[31, 91]),
   midi.PitchWheelEvent(tick=1, channel=1, data=[95, 90]),
   midi.PitchWheelEvent(tick=1, channel=1, data=[127, 89]),
   midi.PitchWheelEvent(tick=1, channel=1, data=[31, 89]),
   midi.PitchWheelEvent(tick=1, channel=1, data=[95, 88]),
   midi.PitchWheelEvent(tick=1, channel=1, data=[127, 87]),
   midi.PitchWheelEvent(tick=1, channel=1, data=[31, 87]),
   midi.PitchWheelEvent(tick=1, channel=1, data=[95, 86]),
   midi.PitchWheelEvent(tick=1, channel=1, data=[127, 85]),
   midi.PitchWheelEvent(tick=1, channel=1, data=[63, 85]),
   midi.PitchWheelEvent(tick=1, channel=1, data=[95, 84]),
   midi.PitchWheelEvent(tick=1, channel=1, data=[127, 83]),
   midi.PitchWheelEvent(tick=1, channel=1, data=[63, 83]),
   midi.PitchWheelEvent(tick=1, channel=1, data=[95, 82]),
   midi.PitchWheelEvent(tick=1, channel=1, data=[127, 81]),
   midi.PitchWheelEvent(tick=1, channel=1, data=[63, 81]),
   midi.PitchWheelEvent(tick=1, channel=1, data=[95, 80]),
   midi.PitchWheelEvent(tick=1, channel=1, data=[127, 79]),
   midi.PitchWheelEvent(tick=1, channel=1, data=[63, 79]),
   midi.PitchWheelEvent(tick=1, channel=1, data=[95, 78]),
   midi.PitchWheelEvent(tick=1, channel=1, data=[127, 77]),
   midi.PitchWheelEvent(tick=1, channel=1, data=[63, 77]),
   midi.PitchWheelEvent(tick=1, channel=1, data=[95, 76]),
   midi.PitchWheelEvent(tick=1, channel=1, data=[127, 75]),
   midi.PitchWheelEvent(tick=1, channel=1, data=[63, 75]),
   midi.PitchWheelEvent(tick=1, channel=1, data=[95, 74]),
   midi.PitchWheelEvent(tick=1, channel=1, data=[127, 73]),
   midi.PitchWheelEvent(tick=1, channel=1, data=[63, 73]),
   midi.PitchWheelEvent(tick=1, channel=1, data=[95, 72]),
   midi.PitchWheelEvent(tick=1, channel=1, data=[127, 71]),
   midi.PitchWheelEvent(tick=1, channel=1, data=[63, 71]),
   midi.PitchWheelEvent(tick=1, channel=1, data=[95, 70]),
   midi.PitchWheelEvent(tick=1, channel=1, data=[127, 69]),
   midi.PitchWheelEvent(tick=1, channel=1, data=[63, 69]),
   midi.PitchWheelEvent(tick=1, channel=1, data=[95, 68]),
   midi.PitchWheelEvent(tick=1, channel=1, data=[127, 67]),
   midi.PitchWheelEvent(tick=1, channel=1, data=[63, 67]),
   midi.PitchWheelEvent(tick=1, channel=1, data=[95, 66]),
   midi.PitchWheelEvent(tick=1, channel=1, data=[127, 65]),
   midi.PitchWheelEvent(tick=1, channel=1, data=[63, 65]),
   midi.NoteOnEvent(tick=0, channel=1, data=[76, 0]),
   midi.PitchWheelEvent(tick=1, channel=1, data=[95, 64]),
   midi.PitchWheelEvent(tick=1, channel=1, data=[0, 64]),
   midi.NoteOnEvent(tick=0, channel=1, data=[74, 110]),
   midi.NoteOnEvent(tick=94, channel=1, data=[74, 0]),
   midi.NoteOnEvent(tick=2, channel=1, data=[76, 110]),
   midi.NoteOnEvent(tick=94, channel=1, data=[76, 0]),
   midi.PitchWheelEvent(tick=2, channel=1, data=[0, 64]),
   midi.NoteOnEvent(tick=0, channel=1, data=[76, 110]),
   midi.PitchWheelEvent(tick=1, channel=1, data=[96, 64]),
   midi.PitchWheelEvent(tick=1, channel=1, data=[64, 65]),
   midi.PitchWheelEvent(tick=1, channel=1, data=[0, 66]),
   midi.PitchWheelEvent(tick=1, channel=1, data=[96, 66]),
   midi.PitchWheelEvent(tick=1, channel=1, data=[64, 67]),
   midi.PitchWheelEvent(tick=1, channel=1, data=[0, 68]),
   midi.PitchWheelEvent(tick=1, channel=1, data=[96, 68]),
   midi.PitchWheelEvent(tick=1, channel=1, data=[64, 69]),
   midi.PitchWheelEvent(tick=1, channel=1, data=[0, 70]),
   midi.PitchWheelEvent(tick=1, channel=1, data=[96, 70]),
   midi.PitchWheelEvent(tick=1, channel=1, data=[64, 71]),
   midi.PitchWheelEvent(tick=1, channel=1, data=[0, 72]),
   midi.PitchWheelEvent(tick=1, channel=1, data=[96, 72]),
   midi.PitchWheelEvent(tick=1, channel=1, data=[64, 73]),
   midi.PitchWheelEvent(tick=1, channel=1, data=[0, 74]),
   midi.PitchWheelEvent(tick=1, channel=1, data=[96, 74]),
   midi.PitchWheelEvent(tick=1, channel=1, data=[64, 75]),
   midi.PitchWheelEvent(tick=1, channel=1, data=[0, 76]),
   midi.PitchWheelEvent(tick=1, channel=1, data=[96, 76]),
   midi.PitchWheelEvent(tick=1, channel=1, data=[64, 77]),
   midi.PitchWheelEvent(tick=1, channel=1, data=[0, 78]),
   midi.PitchWheelEvent(tick=1, channel=1, data=[96, 78]),
   midi.PitchWheelEvent(tick=1, channel=1, data=[64, 79]),
   midi.PitchWheelEvent(tick=1, channel=1, data=[0, 80]),
   midi.PitchWheelEvent(tick=1, channel=1, data=[96, 80]),
   midi.PitchWheelEvent(tick=1, channel=1, data=[64, 81]),
   midi.PitchWheelEvent(tick=1, channel=1, data=[0, 82]),
   midi.PitchWheelEvent(tick=1, channel=1, data=[96, 82]),
   midi.PitchWheelEvent(tick=1, channel=1, data=[64, 83]),
   midi.PitchWheelEvent(tick=1, channel=1, data=[0, 84]),
   midi.PitchWheelEvent(tick=1, channel=1, data=[96, 84]),
   midi.PitchWheelEvent(tick=1, channel=1, data=[32, 85]),
   midi.PitchWheelEvent(tick=1, channel=1, data=[0, 86]),
   midi.PitchWheelEvent(tick=1, channel=1, data=[96, 86]),
   midi.PitchWheelEvent(tick=1, channel=1, data=[32, 87]),
   midi.PitchWheelEvent(tick=1, channel=1, data=[0, 88]),
   midi.PitchWheelEvent(tick=1, channel=1, data=[96, 88]),
   midi.PitchWheelEvent(tick=1, channel=1, data=[32, 89]),
   midi.PitchWheelEvent(tick=1, channel=1, data=[0, 90]),
   midi.PitchWheelEvent(tick=1, channel=1, data=[96, 90]),
   midi.PitchWheelEvent(tick=1, channel=1, data=[32, 91]),
   midi.PitchWheelEvent(tick=1, channel=1, data=[0, 92]),
   midi.PitchWheelEvent(tick=1, channel=1, data=[96, 92]),
   midi.PitchWheelEvent(tick=1, channel=1, data=[32, 93]),
   midi.PitchWheelEvent(tick=1, channel=1, data=[0, 94]),
   midi.PitchWheelEvent(tick=1, channel=1, data=[96, 94]),
   midi.PitchWheelEvent(tick=1, channel=1, data=[32, 95]),
   midi.PitchWheelEvent(tick=1, channel=1, data=[0, 96]),
   midi.PitchWheelEvent(tick=1, channel=1, data=[96, 96]),
   midi.PitchWheelEvent(tick=1, channel=1, data=[32, 97]),
   midi.PitchWheelEvent(tick=1, channel=1, data=[0, 98]),
   midi.PitchWheelEvent(tick=1, channel=1, data=[96, 98]),
   midi.PitchWheelEvent(tick=1, channel=1, data=[32, 99]),
   midi.PitchWheelEvent(tick=1, channel=1, data=[0, 100]),
   midi.PitchWheelEvent(tick=1, channel=1, data=[96, 100]),
   midi.PitchWheelEvent(tick=1, channel=1, data=[32, 101]),
   midi.PitchWheelEvent(tick=1, channel=1, data=[0, 102]),
   midi.PitchWheelEvent(tick=1, channel=1, data=[96, 102]),
   midi.PitchWheelEvent(tick=1, channel=1, data=[32, 103]),
   midi.PitchWheelEvent(tick=1, channel=1, data=[0, 104]),
   midi.PitchWheelEvent(tick=1, channel=1, data=[96, 104]),
   midi.PitchWheelEvent(tick=1, channel=1, data=[32, 105]),
   midi.PitchWheelEvent(tick=1, channel=1, data=[0, 106]),
   midi.PitchWheelEvent(tick=1, channel=1, data=[64, 106]),
   midi.PitchWheelEvent(tick=1, channel=1, data=[32, 107]),
   midi.PitchWheelEvent(tick=1, channel=1, data=[0, 108]),
   midi.PitchWheelEvent(tick=1, channel=1, data=[64, 108]),
   midi.PitchWheelEvent(tick=1, channel=1, data=[32, 109]),
   midi.PitchWheelEvent(tick=1, channel=1, data=[0, 110]),
   midi.PitchWheelEvent(tick=1, channel=1, data=[64, 110]),
   midi.PitchWheelEvent(tick=1, channel=1, data=[32, 111]),
   midi.PitchWheelEvent(tick=1, channel=1, data=[0, 112]),
   midi.PitchWheelEvent(tick=1, channel=1, data=[64, 112]),
   midi.PitchWheelEvent(tick=1, channel=1, data=[32, 113]),
   midi.PitchWheelEvent(tick=1, channel=1, data=[0, 114]),
   midi.PitchWheelEvent(tick=1, channel=1, data=[64, 114]),
   midi.PitchWheelEvent(tick=1, channel=1, data=[32, 115]),
   midi.PitchWheelEvent(tick=1, channel=1, data=[0, 116]),
   midi.PitchWheelEvent(tick=1, channel=1, data=[64, 116]),
   midi.PitchWheelEvent(tick=1, channel=1, data=[32, 117]),
   midi.PitchWheelEvent(tick=1, channel=1, data=[0, 118]),
   midi.PitchWheelEvent(tick=1, channel=1, data=[64, 118]),
   midi.PitchWheelEvent(tick=1, channel=1, data=[32, 119]),
   midi.PitchWheelEvent(tick=1, channel=1, data=[0, 120]),
   midi.PitchWheelEvent(tick=1, channel=1, data=[64, 120]),
   midi.PitchWheelEvent(tick=1, channel=1, data=[32, 121]),
   midi.PitchWheelEvent(tick=1, channel=1, data=[0, 122]),
   midi.PitchWheelEvent(tick=1, channel=1, data=[64, 122]),
   midi.PitchWheelEvent(tick=1, channel=1, data=[32, 123]),
   midi.PitchWheelEvent(tick=1, channel=1, data=[0, 124]),
   midi.PitchWheelEvent(tick=1, channel=1, data=[64, 124]),
   midi.PitchWheelEvent(tick=1, channel=1, data=[32, 125]),
   midi.PitchWheelEvent(tick=1, channel=1, data=[0, 126]),
   midi.PitchWheelEvent(tick=1, channel=1, data=[64, 126]),
   midi.NoteOnEvent(tick=0, channel=1, data=[76, 0]),
   midi.PitchWheelEvent(tick=1, channel=1, data=[32, 127]),
   midi.PitchWheelEvent(tick=1, channel=1, data=[127, 127]),
   midi.NoteOnEvent(tick=0, channel=1, data=[74, 110]),
   midi.PitchWheelEvent(tick=1, channel=1, data=[31, 127]),
   midi.PitchWheelEvent(tick=1, channel=1, data=[63, 126]),
   midi.PitchWheelEvent(tick=1, channel=1, data=[127, 125]),
   midi.PitchWheelEvent(tick=1, channel=1, data=[31, 125]),
   midi.PitchWheelEvent(tick=1, channel=1, data=[63, 124]),
   midi.PitchWheelEvent(tick=1, channel=1, data=[127, 123]),
   midi.PitchWheelEvent(tick=1, channel=1, data=[31, 123]),
   midi.PitchWheelEvent(tick=1, channel=1, data=[63, 122]),
   midi.PitchWheelEvent(tick=1, channel=1, data=[127, 121]),
   midi.PitchWheelEvent(tick=1, channel=1, data=[31, 121]),
   midi.PitchWheelEvent(tick=1, channel=1, data=[63, 120]),
   midi.PitchWheelEvent(tick=1, channel=1, data=[127, 119]),
   midi.PitchWheelEvent(tick=1, channel=1, data=[31, 119]),
   midi.PitchWheelEvent(tick=1, channel=1, data=[63, 118]),
   midi.PitchWheelEvent(tick=1, channel=1, data=[127, 117]),
   midi.PitchWheelEvent(tick=1, channel=1, data=[31, 117]),
   midi.PitchWheelEvent(tick=1, channel=1, data=[63, 116]),
   midi.PitchWheelEvent(tick=1, channel=1, data=[127, 115]),
   midi.PitchWheelEvent(tick=1, channel=1, data=[31, 115]),
   midi.PitchWheelEvent(tick=1, channel=1, data=[63, 114]),
   midi.PitchWheelEvent(tick=1, channel=1, data=[127, 113]),
   midi.PitchWheelEvent(tick=1, channel=1, data=[31, 113]),
   midi.PitchWheelEvent(tick=1, channel=1, data=[63, 112]),
   midi.PitchWheelEvent(tick=1, channel=1, data=[127, 111]),
   midi.PitchWheelEvent(tick=1, channel=1, data=[31, 111]),
   midi.PitchWheelEvent(tick=1, channel=1, data=[63, 110]),
   midi.PitchWheelEvent(tick=1, channel=1, data=[127, 109]),
   midi.PitchWheelEvent(tick=1, channel=1, data=[31, 109]),
   midi.PitchWheelEvent(tick=1, channel=1, data=[63, 108]),
   midi.PitchWheelEvent(tick=1, channel=1, data=[127, 107]),
   midi.PitchWheelEvent(tick=1, channel=1, data=[31, 107]),
   midi.PitchWheelEvent(tick=1, channel=1, data=[95, 106]),
   midi.PitchWheelEvent(tick=1, channel=1, data=[127, 105]),
   midi.PitchWheelEvent(tick=1, channel=1, data=[31, 105]),
   midi.PitchWheelEvent(tick=1, channel=1, data=[95, 104]),
   midi.PitchWheelEvent(tick=1, channel=1, data=[127, 103]),
   midi.PitchWheelEvent(tick=1, channel=1, data=[31, 103]),
   midi.PitchWheelEvent(tick=1, channel=1, data=[95, 102]),
   midi.PitchWheelEvent(tick=1, channel=1, data=[127, 101]),
   midi.PitchWheelEvent(tick=1, channel=1, data=[31, 101]),
   midi.PitchWheelEvent(tick=1, channel=1, data=[95, 100]),
   midi.PitchWheelEvent(tick=1, channel=1, data=[127, 99]),
   midi.PitchWheelEvent(tick=1, channel=1, data=[31, 99]),
   midi.PitchWheelEvent(tick=1, channel=1, data=[95, 98]),
   midi.PitchWheelEvent(tick=1, channel=1, data=[127, 97]),
   midi.PitchWheelEvent(tick=1, channel=1, data=[31, 97]),
   midi.PitchWheelEvent(tick=1, channel=1, data=[95, 96]),
   midi.PitchWheelEvent(tick=1, channel=1, data=[127, 95]),
   midi.PitchWheelEvent(tick=1, channel=1, data=[31, 95]),
   midi.PitchWheelEvent(tick=1, channel=1, data=[95, 94]),
   midi.PitchWheelEvent(tick=1, channel=1, data=[127, 93]),
   midi.PitchWheelEvent(tick=1, channel=1, data=[31, 93]),
   midi.PitchWheelEvent(tick=1, channel=1, data=[95, 92]),
   midi.PitchWheelEvent(tick=1, channel=1, data=[127, 91]),
   midi.PitchWheelEvent(tick=1, channel=1, data=[31, 91]),
   midi.PitchWheelEvent(tick=1, channel=1, data=[95, 90]),
   midi.PitchWheelEvent(tick=1, channel=1, data=[127, 89]),
   midi.PitchWheelEvent(tick=1, channel=1, data=[31, 89]),
   midi.PitchWheelEvent(tick=1, channel=1, data=[95, 88]),
   midi.PitchWheelEvent(tick=1, channel=1, data=[127, 87]),
   midi.PitchWheelEvent(tick=1, channel=1, data=[31, 87]),
   midi.PitchWheelEvent(tick=1, channel=1, data=[95, 86]),
   midi.PitchWheelEvent(tick=1, channel=1, data=[127, 85]),
   midi.PitchWheelEvent(tick=1, channel=1, data=[63, 85]),
   midi.PitchWheelEvent(tick=1, channel=1, data=[95, 84]),
   midi.PitchWheelEvent(tick=1, channel=1, data=[127, 83]),
   midi.PitchWheelEvent(tick=1, channel=1, data=[63, 83]),
   midi.PitchWheelEvent(tick=1, channel=1, data=[95, 82]),
   midi.PitchWheelEvent(tick=1, channel=1, data=[127, 81]),
   midi.PitchWheelEvent(tick=1, channel=1, data=[63, 81]),
   midi.PitchWheelEvent(tick=1, channel=1, data=[95, 80]),
   midi.PitchWheelEvent(tick=1, channel=1, data=[127, 79]),
   midi.PitchWheelEvent(tick=1, channel=1, data=[63, 79]),
   midi.PitchWheelEvent(tick=1, channel=1, data=[95, 78]),
   midi.PitchWheelEvent(tick=1, channel=1, data=[127, 77]),
   midi.PitchWheelEvent(tick=1, channel=1, data=[63, 77]),
   midi.PitchWheelEvent(tick=1, channel=1, data=[95, 76]),
   midi.PitchWheelEvent(tick=1, channel=1, data=[127, 75]),
   midi.PitchWheelEvent(tick=1, channel=1, data=[63, 75]),
   midi.PitchWheelEvent(tick=1, channel=1, data=[95, 74]),
   midi.PitchWheelEvent(tick=1, channel=1, data=[127, 73]),
   midi.PitchWheelEvent(tick=1, channel=1, data=[63, 73]),
   midi.PitchWheelEvent(tick=1, channel=1, data=[95, 72]),
   midi.PitchWheelEvent(tick=1, channel=1, data=[127, 71]),
   midi.PitchWheelEvent(tick=1, channel=1, data=[63, 71]),
   midi.PitchWheelEvent(tick=1, channel=1, data=[95, 70]),
   midi.PitchWheelEvent(tick=1, channel=1, data=[127, 69]),
   midi.PitchWheelEvent(tick=1, channel=1, data=[63, 69]),
   midi.PitchWheelEvent(tick=1, channel=1, data=[95, 68]),
   midi.PitchWheelEvent(tick=1, channel=1, data=[127, 67]),
   midi.PitchWheelEvent(tick=1, channel=1, data=[63, 67]),
   midi.PitchWheelEvent(tick=1, channel=1, data=[95, 66]),
   midi.PitchWheelEvent(tick=1, channel=1, data=[127, 65]),
   midi.PitchWheelEvent(tick=1, channel=1, data=[63, 65]),
   midi.NoteOnEvent(tick=0, channel=1, data=[74, 0]),
   midi.PitchWheelEvent(tick=1, channel=1, data=[95, 64]),
   midi.PitchWheelEvent(tick=1, channel=1, data=[0, 64]),
   midi.NoteOnEvent(tick=0, channel=1, data=[71, 110]),
   midi.NoteOnEvent(tick=94, channel=1, data=[71, 0]),
   midi.NoteOnEvent(tick=2, channel=1, data=[74, 110]),
   midi.NoteOnEvent(tick=94, channel=1, data=[74, 0]),
   midi.NoteOnEvent(tick=2, channel=1, data=[76, 110]),
   midi.NoteOnEvent(tick=46, channel=1, data=[76, 0]),
   midi.NoteOnEvent(tick=2, channel=1, data=[74, 110]),
   midi.NoteOnEvent(tick=46, channel=1, data=[74, 0]),
   midi.NoteOnEvent(tick=2, channel=1, data=[71, 110]),
   midi.NoteOnEvent(tick=94, channel=1, data=[71, 0]),
   midi.NoteOnEvent(tick=2, channel=1, data=[69, 110]),
   midi.NoteOnEvent(tick=94, channel=1, data=[69, 0]),
   midi.NoteOnEvent(tick=2, channel=1, data=[66, 110]),
   midi.NoteOnEvent(tick=94, channel=1, data=[66, 0]),
   midi.NoteOnEvent(tick=2, channel=1, data=[65, 110]),
   midi.NoteOnEvent(tick=94, channel=1, data=[65, 0]),
   midi.NoteOnEvent(tick=2, channel=1, data=[64, 110]),
   midi.NoteOnEvent(tick=94, channel=1, data=[64, 0]),
   midi.NoteOnEvent(tick=2, channel=1, data=[62, 110]),
   midi.NoteOnEvent(tick=94, channel=1, data=[62, 0]),
   midi.NoteOnEvent(tick=2, channel=1, data=[64, 110]),
   midi.NoteOnEvent(tick=94, channel=1, data=[64, 0]),
   midi.NoteOnEvent(tick=2, channel=1, data=[66, 110]),
   midi.NoteOnEvent(tick=336, channel=1, data=[66, 0]),
   midi.NoteOnEvent(tick=48, channel=1, data=[94, 110]),
   midi.NoteOnEvent(tick=46, channel=1, data=[94, 0]),
   midi.NoteOnEvent(tick=2, channel=1, data=[91, 110]),
   midi.NoteOnEvent(tick=46, channel=1, data=[91, 0]),
   midi.NoteOnEvent(tick=2, channel=1, data=[87, 110]),
   midi.NoteOnEvent(tick=94, channel=1, data=[87, 0]),
   midi.NoteOnEvent(tick=2, channel=1, data=[84, 110]),
   midi.NoteOnEvent(tick=94, channel=1, data=[84, 0]),
   midi.NoteOnEvent(tick=2, channel=1, data=[79, 110]),
   midi.NoteOnEvent(tick=94, channel=1, data=[79, 0]),
   midi.NoteOnEvent(tick=2, channel=1, data=[75, 110]),
   midi.NoteOnEvent(tick=94, channel=1, data=[75, 0]),
   midi.NoteOnEvent(tick=2, channel=1, data=[74, 110]),
   midi.NoteOnEvent(tick=94, channel=1, data=[74, 0]),
   midi.NoteOnEvent(tick=2, channel=1, data=[72, 110]),
   midi.NoteOnEvent(tick=94, channel=1, data=[72, 0]),
   midi.NoteOnEvent(tick=2, channel=1, data=[70, 110]),
   midi.NoteOnEvent(tick=94, channel=1, data=[70, 0]),
   midi.NoteOnEvent(tick=2, channel=1, data=[72, 110]),
   midi.NoteOnEvent(tick=94, channel=1, data=[72, 0]),
   midi.NoteOnEvent(tick=2, channel=1, data=[75, 110]),
   midi.NoteOnEvent(tick=94, channel=1, data=[75, 0]),
   midi.NoteOnEvent(tick=2, channel=1, data=[77, 110]),
   midi.NoteOnEvent(tick=94, channel=1, data=[77, 0]),
   midi.NoteOnEvent(tick=2, channel=1, data=[79, 110]),
   midi.NoteOnEvent(tick=94, channel=1, data=[79, 0]),
   midi.NoteOnEvent(tick=2, channel=1, data=[82, 110]),
   midi.NoteOnEvent(tick=256, channel=1, data=[82, 0]),
   midi.NoteOnEvent(tick=32, channel=1, data=[82, 110]),
   midi.NoteOnEvent(tick=94, channel=1, data=[82, 0]),
   midi.NoteOnEvent(tick=2, channel=1, data=[84, 110]),
   midi.NoteOnEvent(tick=62, channel=1, data=[84, 0]),
   midi.NoteOnEvent(tick=2, channel=1, data=[84, 110]),
   midi.NoteOnEvent(tick=62, channel=1, data=[84, 0]),
   midi.NoteOnEvent(tick=2, channel=1, data=[84, 110]),
   midi.NoteOnEvent(tick=62, channel=1, data=[84, 0]),
   midi.NoteOnEvent(tick=2, channel=1, data=[86, 110]),
   midi.NoteOnEvent(tick=62, channel=1, data=[86, 0]),
   midi.NoteOnEvent(tick=2, channel=1, data=[86, 110]),
   midi.NoteOnEvent(tick=62, channel=1, data=[86, 0]),
   midi.NoteOnEvent(tick=2, channel=1, data=[86, 110]),
   midi.NoteOnEvent(tick=62, channel=1, data=[86, 0]),
   midi.NoteOnEvent(tick=2, channel=1, data=[87, 110]),
   midi.NoteOnEvent(tick=62, channel=1, data=[87, 0]),
   midi.NoteOnEvent(tick=2, channel=1, data=[87, 110]),
   midi.NoteOnEvent(tick=62, channel=1, data=[87, 0]),
   midi.NoteOnEvent(tick=2, channel=1, data=[87, 110]),
   midi.NoteOnEvent(tick=62, channel=1, data=[87, 0]),
   midi.NoteOnEvent(tick=2, channel=1, data=[89, 110]),
   midi.NoteOnEvent(tick=62, channel=1, data=[89, 0]),
   midi.NoteOnEvent(tick=2, channel=1, data=[89, 110]),
   midi.NoteOnEvent(tick=62, channel=1, data=[89, 0]),
   midi.NoteOnEvent(tick=2, channel=1, data=[89, 110]),
   midi.NoteOnEvent(tick=62, channel=1, data=[89, 0]),
   midi.NoteOnEvent(tick=2, channel=1, data=[79, 110]),
   midi.NoteOnEvent(tick=62, channel=1, data=[79, 0]),
   midi.NoteOnEvent(tick=2, channel=1, data=[79, 110]),
   midi.NoteOnEvent(tick=62, channel=1, data=[79, 0]),
   midi.NoteOnEvent(tick=2, channel=1, data=[79, 110]),
   midi.NoteOnEvent(tick=62, channel=1, data=[79, 0]),
   midi.NoteOnEvent(tick=2, channel=1, data=[81, 110]),
   midi.NoteOnEvent(tick=62, channel=1, data=[81, 0]),
   midi.NoteOnEvent(tick=2, channel=1, data=[81, 110]),
   midi.NoteOnEvent(tick=62, channel=1, data=[81, 0]),
   midi.NoteOnEvent(tick=2, channel=1, data=[81, 110]),
   midi.NoteOnEvent(tick=62, channel=1, data=[81, 0]),
   midi.NoteOnEvent(tick=2, channel=1, data=[84, 110]),
   midi.NoteOnEvent(tick=62, channel=1, data=[84, 0]),
   midi.NoteOnEvent(tick=2, channel=1, data=[84, 110]),
   midi.NoteOnEvent(tick=62, channel=1, data=[84, 0]),
   midi.NoteOnEvent(tick=2, channel=1, data=[84, 110]),
   midi.NoteOnEvent(tick=62, channel=1, data=[84, 0]),
   midi.NoteOnEvent(tick=2, channel=1, data=[86, 110]),
   midi.NoteOnEvent(tick=126, channel=1, data=[86, 0]),
   midi.NoteOnEvent(tick=2, channel=1, data=[88, 110]),
   midi.NoteOnEvent(tick=62, channel=1, data=[88, 0]),
   midi.NoteOnEvent(tick=2, channel=1, data=[93, 110]),
   midi.NoteOnEvent(tick=62, channel=1, data=[93, 0]),
   midi.NoteOnEvent(tick=2, channel=1, data=[88, 110]),
   midi.NoteOnEvent(tick=62, channel=1, data=[88, 0]),
   midi.NoteOnEvent(tick=2, channel=1, data=[83, 110]),
   midi.NoteOnEvent(tick=62, channel=1, data=[83, 0]),
   midi.NoteOnEvent(tick=2, channel=1, data=[93, 110]),
   midi.NoteOnEvent(tick=62, channel=1, data=[93, 0]),
   midi.NoteOnEvent(tick=2, channel=1, data=[88, 110]),
   midi.NoteOnEvent(tick=62, channel=1, data=[88, 0]),
   midi.NoteOnEvent(tick=2, channel=1, data=[83, 110]),
   midi.NoteOnEvent(tick=62, channel=1, data=[83, 0]),
   midi.NoteOnEvent(tick=2, channel=1, data=[93, 110]),
   midi.NoteOnEvent(tick=62, channel=1, data=[93, 0]),
   midi.NoteOnEvent(tick=2, channel=1, data=[88, 110]),
   midi.NoteOnEvent(tick=62, channel=1, data=[88, 0]),
   midi.NoteOnEvent(tick=2, channel=1, data=[83, 110]),
   midi.NoteOnEvent(tick=62, channel=1, data=[83, 0]),
   midi.NoteOnEvent(tick=2, channel=1, data=[93, 110]),
   midi.NoteOnEvent(tick=62, channel=1, data=[93, 0]),
   midi.NoteOnEvent(tick=2, channel=1, data=[88, 110]),
   midi.NoteOnEvent(tick=62, channel=1, data=[88, 0]),
   midi.NoteOnEvent(tick=2, channel=1, data=[83, 110]),
   midi.NoteOnEvent(tick=62, channel=1, data=[83, 0]),
   midi.NoteOnEvent(tick=2, channel=1, data=[92, 110]),
   midi.NoteOnEvent(tick=62, channel=1, data=[92, 0]),
   midi.NoteOnEvent(tick=2, channel=1, data=[88, 110]),
   midi.NoteOnEvent(tick=62, channel=1, data=[88, 0]),
   midi.NoteOnEvent(tick=2, channel=1, data=[83, 110]),
   midi.NoteOnEvent(tick=62, channel=1, data=[83, 0]),
   midi.NoteOnEvent(tick=2, channel=1, data=[92, 110]),
   midi.NoteOnEvent(tick=62, channel=1, data=[92, 0]),
   midi.NoteOnEvent(tick=2, channel=1, data=[88, 110]),
   midi.NoteOnEvent(tick=62, channel=1, data=[88, 0]),
   midi.NoteOnEvent(tick=2, channel=1, data=[83, 110]),
   midi.NoteOnEvent(tick=62, channel=1, data=[83, 0]),
   midi.NoteOnEvent(tick=2, channel=1, data=[92, 110]),
   midi.NoteOnEvent(tick=62, channel=1, data=[92, 0]),
   midi.NoteOnEvent(tick=2, channel=1, data=[88, 110]),
   midi.NoteOnEvent(tick=62, channel=1, data=[88, 0]),
   midi.NoteOnEvent(tick=2, channel=1, data=[83, 110]),
   midi.NoteOnEvent(tick=62, channel=1, data=[83, 0]),
   midi.NoteOnEvent(tick=2, channel=1, data=[92, 110]),
   midi.NoteOnEvent(tick=62, channel=1, data=[92, 0]),
   midi.NoteOnEvent(tick=2, channel=1, data=[88, 110]),
   midi.NoteOnEvent(tick=62, channel=1, data=[88, 0]),
   midi.NoteOnEvent(tick=2, channel=1, data=[83, 110]),
   midi.NoteOnEvent(tick=62, channel=1, data=[83, 0]),
   midi.NoteOnEvent(tick=2, channel=1, data=[93, 110]),
   midi.NoteOnEvent(tick=62, channel=1, data=[93, 0]),
   midi.NoteOnEvent(tick=2, channel=1, data=[88, 110]),
   midi.NoteOnEvent(tick=62, channel=1, data=[88, 0]),
   midi.NoteOnEvent(tick=2, channel=1, data=[83, 110]),
   midi.NoteOnEvent(tick=62, channel=1, data=[83, 0]),
   midi.NoteOnEvent(tick=2, channel=1, data=[93, 110]),
   midi.NoteOnEvent(tick=62, channel=1, data=[93, 0]),
   midi.NoteOnEvent(tick=2, channel=1, data=[88, 110]),
   midi.NoteOnEvent(tick=62, channel=1, data=[88, 0]),
   midi.NoteOnEvent(tick=2, channel=1, data=[83, 110]),
   midi.NoteOnEvent(tick=62, channel=1, data=[83, 0]),
   midi.NoteOnEvent(tick=2, channel=1, data=[92, 110]),
   midi.NoteOnEvent(tick=62, channel=1, data=[92, 0]),
   midi.NoteOnEvent(tick=2, channel=1, data=[88, 110]),
   midi.NoteOnEvent(tick=62, channel=1, data=[88, 0]),
   midi.NoteOnEvent(tick=2, channel=1, data=[83, 110]),
   midi.NoteOnEvent(tick=62, channel=1, data=[83, 0]),
   midi.NoteOnEvent(tick=2, channel=1, data=[92, 110]),
   midi.NoteOnEvent(tick=62, channel=1, data=[92, 0]),
   midi.NoteOnEvent(tick=2, channel=1, data=[88, 110]),
   midi.NoteOnEvent(tick=62, channel=1, data=[88, 0]),
   midi.NoteOnEvent(tick=2, channel=1, data=[83, 110]),
   midi.NoteOnEvent(tick=62, channel=1, data=[83, 0]),
   midi.NoteOnEvent(tick=2, channel=1, data=[93, 110]),
   midi.NoteOnEvent(tick=62, channel=1, data=[93, 0]),
   midi.NoteOnEvent(tick=2, channel=1, data=[88, 110]),
   midi.NoteOnEvent(tick=62, channel=1, data=[88, 0]),
   midi.NoteOnEvent(tick=2, channel=1, data=[83, 110]),
   midi.NoteOnEvent(tick=62, channel=1, data=[83, 0]),
   midi.NoteOnEvent(tick=2, channel=1, data=[93, 110]),
   midi.NoteOnEvent(tick=62, channel=1, data=[93, 0]),
   midi.NoteOnEvent(tick=2, channel=1, data=[88, 110]),
   midi.NoteOnEvent(tick=62, channel=1, data=[88, 0]),
   midi.NoteOnEvent(tick=2, channel=1, data=[83, 110]),
   midi.NoteOnEvent(tick=62, channel=1, data=[83, 0]),
   midi.NoteOnEvent(tick=2, channel=1, data=[92, 110]),
   midi.NoteOnEvent(tick=62, channel=1, data=[92, 0]),
   midi.NoteOnEvent(tick=2, channel=1, data=[88, 110]),
   midi.NoteOnEvent(tick=62, channel=1, data=[88, 0]),
   midi.NoteOnEvent(tick=2, channel=1, data=[83, 110]),
   midi.NoteOnEvent(tick=62, channel=1, data=[83, 0]),
   midi.NoteOnEvent(tick=2, channel=1, data=[92, 110]),
   midi.NoteOnEvent(tick=62, channel=1, data=[92, 0]),
   midi.NoteOnEvent(tick=2, channel=1, data=[88, 110]),
   midi.NoteOnEvent(tick=62, channel=1, data=[88, 0]),
   midi.NoteOnEvent(tick=2, channel=1, data=[83, 110]),
   midi.NoteOnEvent(tick=62, channel=1, data=[83, 0]),
   midi.PitchWheelEvent(tick=2, channel=1, data=[0, 64]),
   midi.NoteOnEvent(tick=0, channel=1, data=[86, 110]),
   midi.PitchWheelEvent(tick=1, channel=1, data=[96, 64]),
   midi.PitchWheelEvent(tick=1, channel=1, data=[64, 65]),
   midi.PitchWheelEvent(tick=1, channel=1, data=[0, 66]),
   midi.PitchWheelEvent(tick=1, channel=1, data=[96, 66]),
   midi.PitchWheelEvent(tick=1, channel=1, data=[64, 67]),
   midi.PitchWheelEvent(tick=1, channel=1, data=[0, 68]),
   midi.PitchWheelEvent(tick=1, channel=1, data=[96, 68]),
   midi.PitchWheelEvent(tick=1, channel=1, data=[64, 69]),
   midi.PitchWheelEvent(tick=1, channel=1, data=[0, 70]),
   midi.PitchWheelEvent(tick=1, channel=1, data=[96, 70]),
   midi.PitchWheelEvent(tick=1, channel=1, data=[64, 71]),
   midi.PitchWheelEvent(tick=1, channel=1, data=[0, 72]),
   midi.PitchWheelEvent(tick=1, channel=1, data=[96, 72]),
   midi.PitchWheelEvent(tick=1, channel=1, data=[64, 73]),
   midi.PitchWheelEvent(tick=1, channel=1, data=[0, 74]),
   midi.PitchWheelEvent(tick=1, channel=1, data=[96, 74]),
   midi.PitchWheelEvent(tick=1, channel=1, data=[64, 75]),
   midi.PitchWheelEvent(tick=1, channel=1, data=[0, 76]),
   midi.PitchWheelEvent(tick=1, channel=1, data=[96, 76]),
   midi.PitchWheelEvent(tick=1, channel=1, data=[64, 77]),
   midi.PitchWheelEvent(tick=1, channel=1, data=[0, 78]),
   midi.PitchWheelEvent(tick=1, channel=1, data=[96, 78]),
   midi.PitchWheelEvent(tick=1, channel=1, data=[64, 79]),
   midi.PitchWheelEvent(tick=1, channel=1, data=[0, 80]),
   midi.PitchWheelEvent(tick=1, channel=1, data=[96, 80]),
   midi.PitchWheelEvent(tick=1, channel=1, data=[64, 81]),
   midi.PitchWheelEvent(tick=1, channel=1, data=[0, 82]),
   midi.PitchWheelEvent(tick=1, channel=1, data=[96, 82]),
   midi.PitchWheelEvent(tick=1, channel=1, data=[64, 83]),
   midi.PitchWheelEvent(tick=1, channel=1, data=[0, 84]),
   midi.PitchWheelEvent(tick=1, channel=1, data=[96, 84]),
   midi.PitchWheelEvent(tick=1, channel=1, data=[32, 85]),
   midi.PitchWheelEvent(tick=1, channel=1, data=[0, 86]),
   midi.PitchWheelEvent(tick=1, channel=1, data=[96, 86]),
   midi.PitchWheelEvent(tick=1, channel=1, data=[32, 87]),
   midi.PitchWheelEvent(tick=1, channel=1, data=[0, 88]),
   midi.PitchWheelEvent(tick=1, channel=1, data=[96, 88]),
   midi.PitchWheelEvent(tick=1, channel=1, data=[32, 89]),
   midi.PitchWheelEvent(tick=1, channel=1, data=[0, 90]),
   midi.PitchWheelEvent(tick=1, channel=1, data=[96, 90]),
   midi.PitchWheelEvent(tick=1, channel=1, data=[32, 91]),
   midi.PitchWheelEvent(tick=1, channel=1, data=[0, 92]),
   midi.PitchWheelEvent(tick=1, channel=1, data=[96, 92]),
   midi.PitchWheelEvent(tick=1, channel=1, data=[32, 93]),
   midi.PitchWheelEvent(tick=1, channel=1, data=[0, 94]),
   midi.PitchWheelEvent(tick=1, channel=1, data=[96, 94]),
   midi.PitchWheelEvent(tick=1, channel=1, data=[32, 95]),
   midi.PitchWheelEvent(tick=1, channel=1, data=[0, 96]),
   midi.PitchWheelEvent(tick=1, channel=1, data=[96, 96]),
   midi.PitchWheelEvent(tick=1, channel=1, data=[32, 97]),
   midi.PitchWheelEvent(tick=1, channel=1, data=[0, 98]),
   midi.PitchWheelEvent(tick=1, channel=1, data=[96, 98]),
   midi.PitchWheelEvent(tick=1, channel=1, data=[32, 99]),
   midi.PitchWheelEvent(tick=1, channel=1, data=[0, 100]),
   midi.PitchWheelEvent(tick=1, channel=1, data=[96, 100]),
   midi.PitchWheelEvent(tick=1, channel=1, data=[32, 101]),
   midi.PitchWheelEvent(tick=1, channel=1, data=[0, 102]),
   midi.PitchWheelEvent(tick=1, channel=1, data=[96, 102]),
   midi.PitchWheelEvent(tick=1, channel=1, data=[32, 103]),
   midi.PitchWheelEvent(tick=1, channel=1, data=[0, 104]),
   midi.PitchWheelEvent(tick=1, channel=1, data=[96, 104]),
   midi.PitchWheelEvent(tick=1, channel=1, data=[32, 105]),
   midi.PitchWheelEvent(tick=1, channel=1, data=[0, 106]),
   midi.PitchWheelEvent(tick=1, channel=1, data=[64, 106]),
   midi.PitchWheelEvent(tick=1, channel=1, data=[32, 107]),
   midi.PitchWheelEvent(tick=1, channel=1, data=[0, 108]),
   midi.PitchWheelEvent(tick=1, channel=1, data=[64, 108]),
   midi.PitchWheelEvent(tick=1, channel=1, data=[32, 109]),
   midi.PitchWheelEvent(tick=1, channel=1, data=[0, 110]),
   midi.PitchWheelEvent(tick=1, channel=1, data=[64, 110]),
   midi.PitchWheelEvent(tick=1, channel=1, data=[32, 111]),
   midi.PitchWheelEvent(tick=1, channel=1, data=[0, 112]),
   midi.PitchWheelEvent(tick=1, channel=1, data=[64, 112]),
   midi.PitchWheelEvent(tick=1, channel=1, data=[32, 113]),
   midi.PitchWheelEvent(tick=1, channel=1, data=[0, 114]),
   midi.PitchWheelEvent(tick=1, channel=1, data=[64, 114]),
   midi.PitchWheelEvent(tick=1, channel=1, data=[32, 115]),
   midi.PitchWheelEvent(tick=1, channel=1, data=[0, 116]),
   midi.PitchWheelEvent(tick=1, channel=1, data=[64, 116]),
   midi.PitchWheelEvent(tick=1, channel=1, data=[32, 117]),
   midi.PitchWheelEvent(tick=1, channel=1, data=[0, 118]),
   midi.PitchWheelEvent(tick=1, channel=1, data=[64, 118]),
   midi.PitchWheelEvent(tick=1, channel=1, data=[32, 119]),
   midi.PitchWheelEvent(tick=1, channel=1, data=[0, 120]),
   midi.PitchWheelEvent(tick=1, channel=1, data=[64, 120]),
   midi.PitchWheelEvent(tick=1, channel=1, data=[32, 121]),
   midi.PitchWheelEvent(tick=1, channel=1, data=[0, 122]),
   midi.PitchWheelEvent(tick=1, channel=1, data=[64, 122]),
   midi.PitchWheelEvent(tick=1, channel=1, data=[32, 123]),
   midi.PitchWheelEvent(tick=1, channel=1, data=[0, 124]),
   midi.PitchWheelEvent(tick=1, channel=1, data=[64, 124]),
   midi.PitchWheelEvent(tick=1, channel=1, data=[32, 125]),
   midi.PitchWheelEvent(tick=1, channel=1, data=[0, 126]),
   midi.PitchWheelEvent(tick=1, channel=1, data=[64, 126]),
   midi.PitchWheelEvent(tick=1, channel=1, data=[32, 127]),
   midi.PitchWheelEvent(tick=1, channel=1, data=[127, 127]),
   midi.NoteOnEvent(tick=240, channel=1, data=[86, 0]),
   midi.PitchWheelEvent(tick=48, channel=1, data=[0, 64]),
   midi.PitchWheelEvent(tick=0, channel=1, data=[0, 64]),
   midi.NoteOnEvent(tick=0, channel=1, data=[86, 110]),
   midi.PitchWheelEvent(tick=1, channel=1, data=[96, 64]),
   midi.PitchWheelEvent(tick=1, channel=1, data=[64, 65]),
   midi.PitchWheelEvent(tick=1, channel=1, data=[0, 66]),
   midi.PitchWheelEvent(tick=1, channel=1, data=[96, 66]),
   midi.PitchWheelEvent(tick=1, channel=1, data=[64, 67]),
   midi.PitchWheelEvent(tick=1, channel=1, data=[0, 68]),
   midi.PitchWheelEvent(tick=1, channel=1, data=[96, 68]),
   midi.PitchWheelEvent(tick=1, channel=1, data=[64, 69]),
   midi.PitchWheelEvent(tick=1, channel=1, data=[0, 70]),
   midi.PitchWheelEvent(tick=1, channel=1, data=[96, 70]),
   midi.PitchWheelEvent(tick=1, channel=1, data=[64, 71]),
   midi.PitchWheelEvent(tick=1, channel=1, data=[0, 72]),
   midi.PitchWheelEvent(tick=1, channel=1, data=[96, 72]),
   midi.PitchWheelEvent(tick=1, channel=1, data=[64, 73]),
   midi.PitchWheelEvent(tick=1, channel=1, data=[0, 74]),
   midi.PitchWheelEvent(tick=1, channel=1, data=[96, 74]),
   midi.PitchWheelEvent(tick=1, channel=1, data=[64, 75]),
   midi.PitchWheelEvent(tick=1, channel=1, data=[0, 76]),
   midi.PitchWheelEvent(tick=1, channel=1, data=[96, 76]),
   midi.PitchWheelEvent(tick=1, channel=1, data=[64, 77]),
   midi.PitchWheelEvent(tick=1, channel=1, data=[0, 78]),
   midi.PitchWheelEvent(tick=1, channel=1, data=[96, 78]),
   midi.PitchWheelEvent(tick=1, channel=1, data=[64, 79]),
   midi.PitchWheelEvent(tick=1, channel=1, data=[0, 80]),
   midi.PitchWheelEvent(tick=1, channel=1, data=[96, 80]),
   midi.PitchWheelEvent(tick=1, channel=1, data=[64, 81]),
   midi.PitchWheelEvent(tick=1, channel=1, data=[0, 82]),
   midi.PitchWheelEvent(tick=1, channel=1, data=[96, 82]),
   midi.PitchWheelEvent(tick=1, channel=1, data=[64, 83]),
   midi.PitchWheelEvent(tick=1, channel=1, data=[0, 84]),
   midi.PitchWheelEvent(tick=1, channel=1, data=[96, 84]),
   midi.PitchWheelEvent(tick=1, channel=1, data=[32, 85]),
   midi.PitchWheelEvent(tick=1, channel=1, data=[0, 86]),
   midi.PitchWheelEvent(tick=1, channel=1, data=[96, 86]),
   midi.PitchWheelEvent(tick=1, channel=1, data=[32, 87]),
   midi.PitchWheelEvent(tick=1, channel=1, data=[0, 88]),
   midi.PitchWheelEvent(tick=1, channel=1, data=[96, 88]),
   midi.PitchWheelEvent(tick=1, channel=1, data=[32, 89]),
   midi.PitchWheelEvent(tick=1, channel=1, data=[0, 90]),
   midi.PitchWheelEvent(tick=1, channel=1, data=[96, 90]),
   midi.PitchWheelEvent(tick=1, channel=1, data=[32, 91]),
   midi.PitchWheelEvent(tick=1, channel=1, data=[0, 92]),
   midi.PitchWheelEvent(tick=1, channel=1, data=[96, 92]),
   midi.PitchWheelEvent(tick=1, channel=1, data=[32, 93]),
   midi.PitchWheelEvent(tick=1, channel=1, data=[0, 94]),
   midi.PitchWheelEvent(tick=1, channel=1, data=[96, 94]),
   midi.PitchWheelEvent(tick=1, channel=1, data=[32, 95]),
   midi.PitchWheelEvent(tick=1, channel=1, data=[0, 96]),
   midi.PitchWheelEvent(tick=1, channel=1, data=[96, 96]),
   midi.PitchWheelEvent(tick=1, channel=1, data=[32, 97]),
   midi.PitchWheelEvent(tick=1, channel=1, data=[0, 98]),
   midi.PitchWheelEvent(tick=1, channel=1, data=[96, 98]),
   midi.PitchWheelEvent(tick=1, channel=1, data=[32, 99]),
   midi.PitchWheelEvent(tick=1, channel=1, data=[0, 100]),
   midi.PitchWheelEvent(tick=1, channel=1, data=[96, 100]),
   midi.PitchWheelEvent(tick=1, channel=1, data=[32, 101]),
   midi.PitchWheelEvent(tick=1, channel=1, data=[0, 102]),
   midi.PitchWheelEvent(tick=1, channel=1, data=[96, 102]),
   midi.PitchWheelEvent(tick=1, channel=1, data=[32, 103]),
   midi.PitchWheelEvent(tick=1, channel=1, data=[0, 104]),
   midi.PitchWheelEvent(tick=1, channel=1, data=[96, 104]),
   midi.PitchWheelEvent(tick=1, channel=1, data=[32, 105]),
   midi.PitchWheelEvent(tick=1, channel=1, data=[0, 106]),
   midi.PitchWheelEvent(tick=1, channel=1, data=[64, 106]),
   midi.PitchWheelEvent(tick=1, channel=1, data=[32, 107]),
   midi.PitchWheelEvent(tick=1, channel=1, data=[0, 108]),
   midi.PitchWheelEvent(tick=1, channel=1, data=[64, 108]),
   midi.PitchWheelEvent(tick=1, channel=1, data=[32, 109]),
   midi.PitchWheelEvent(tick=1, channel=1, data=[0, 110]),
   midi.PitchWheelEvent(tick=1, channel=1, data=[64, 110]),
   midi.PitchWheelEvent(tick=1, channel=1, data=[32, 111]),
   midi.PitchWheelEvent(tick=1, channel=1, data=[0, 112]),
   midi.PitchWheelEvent(tick=1, channel=1, data=[64, 112]),
   midi.PitchWheelEvent(tick=1, channel=1, data=[32, 113]),
   midi.PitchWheelEvent(tick=1, channel=1, data=[0, 114]),
   midi.PitchWheelEvent(tick=1, channel=1, data=[64, 114]),
   midi.PitchWheelEvent(tick=1, channel=1, data=[32, 115]),
   midi.PitchWheelEvent(tick=1, channel=1, data=[0, 116]),
   midi.PitchWheelEvent(tick=1, channel=1, data=[64, 116]),
   midi.PitchWheelEvent(tick=1, channel=1, data=[32, 117]),
   midi.PitchWheelEvent(tick=1, channel=1, data=[0, 118]),
   midi.PitchWheelEvent(tick=1, channel=1, data=[64, 118]),
   midi.PitchWheelEvent(tick=1, channel=1, data=[32, 119]),
   midi.PitchWheelEvent(tick=1, channel=1, data=[0, 120]),
   midi.PitchWheelEvent(tick=1, channel=1, data=[64, 120]),
   midi.PitchWheelEvent(tick=1, channel=1, data=[32, 121]),
   midi.PitchWheelEvent(tick=1, channel=1, data=[0, 122]),
   midi.PitchWheelEvent(tick=1, channel=1, data=[64, 122]),
   midi.PitchWheelEvent(tick=1, channel=1, data=[32, 123]),
   midi.PitchWheelEvent(tick=1, channel=1, data=[0, 124]),
   midi.PitchWheelEvent(tick=1, channel=1, data=[64, 124]),
   midi.PitchWheelEvent(tick=1, channel=1, data=[32, 125]),
   midi.PitchWheelEvent(tick=1, channel=1, data=[0, 126]),
   midi.PitchWheelEvent(tick=1, channel=1, data=[64, 126]),
   midi.PitchWheelEvent(tick=1, channel=1, data=[32, 127]),
   midi.PitchWheelEvent(tick=1, channel=1, data=[127, 127]),
   midi.NoteOnEvent(tick=64, channel=1, data=[86, 0]),
   midi.PitchWheelEvent(tick=32, channel=1, data=[0, 64]),
   midi.NoteOnEvent(tick=0, channel=1, data=[83, 110]),
   midi.NoteOnEvent(tick=94, channel=1, data=[83, 0]),
   midi.NoteOnEvent(tick=2, channel=1, data=[81, 110]),
   midi.NoteOnEvent(tick=94, channel=1, data=[81, 0]),
   midi.NoteOnEvent(tick=2, channel=1, data=[83, 110]),
   midi.NoteOnEvent(tick=94, channel=1, data=[83, 0]),
   midi.NoteOnEvent(tick=2, channel=1, data=[86, 110]),
   midi.NoteOnEvent(tick=94, channel=1, data=[86, 0]),
   midi.NoteOnEvent(tick=2, channel=1, data=[83, 110]),
   midi.NoteOnEvent(tick=46, channel=1, data=[83, 0]),
   midi.NoteOnEvent(tick=2, channel=1, data=[86, 110]),
   midi.NoteOnEvent(tick=46, channel=1, data=[86, 0]),
   midi.PitchWheelEvent(tick=2, channel=1, data=[0, 64]),
   midi.NoteOnEvent(tick=0, channel=1, data=[86, 110]),
   midi.PitchWheelEvent(tick=1, channel=1, data=[96, 64]),
   midi.PitchWheelEvent(tick=1, channel=1, data=[64, 65]),
   midi.PitchWheelEvent(tick=1, channel=1, data=[0, 66]),
   midi.PitchWheelEvent(tick=1, channel=1, data=[96, 66]),
   midi.PitchWheelEvent(tick=1, channel=1, data=[64, 67]),
   midi.PitchWheelEvent(tick=1, channel=1, data=[0, 68]),
   midi.PitchWheelEvent(tick=1, channel=1, data=[96, 68]),
   midi.PitchWheelEvent(tick=1, channel=1, data=[64, 69]),
   midi.PitchWheelEvent(tick=1, channel=1, data=[0, 70]),
   midi.PitchWheelEvent(tick=1, channel=1, data=[96, 70]),
   midi.PitchWheelEvent(tick=1, channel=1, data=[64, 71]),
   midi.PitchWheelEvent(tick=1, channel=1, data=[0, 72]),
   midi.PitchWheelEvent(tick=1, channel=1, data=[96, 72]),
   midi.PitchWheelEvent(tick=1, channel=1, data=[64, 73]),
   midi.PitchWheelEvent(tick=1, channel=1, data=[0, 74]),
   midi.PitchWheelEvent(tick=1, channel=1, data=[96, 74]),
   midi.PitchWheelEvent(tick=1, channel=1, data=[64, 75]),
   midi.PitchWheelEvent(tick=1, channel=1, data=[0, 76]),
   midi.PitchWheelEvent(tick=1, channel=1, data=[96, 76]),
   midi.PitchWheelEvent(tick=1, channel=1, data=[64, 77]),
   midi.PitchWheelEvent(tick=1, channel=1, data=[0, 78]),
   midi.PitchWheelEvent(tick=1, channel=1, data=[96, 78]),
   midi.PitchWheelEvent(tick=1, channel=1, data=[64, 79]),
   midi.PitchWheelEvent(tick=1, channel=1, data=[0, 80]),
   midi.PitchWheelEvent(tick=1, channel=1, data=[96, 80]),
   midi.PitchWheelEvent(tick=1, channel=1, data=[64, 81]),
   midi.PitchWheelEvent(tick=1, channel=1, data=[0, 82]),
   midi.PitchWheelEvent(tick=1, channel=1, data=[96, 82]),
   midi.PitchWheelEvent(tick=1, channel=1, data=[64, 83]),
   midi.PitchWheelEvent(tick=1, channel=1, data=[0, 84]),
   midi.PitchWheelEvent(tick=1, channel=1, data=[96, 84]),
   midi.PitchWheelEvent(tick=1, channel=1, data=[32, 85]),
   midi.PitchWheelEvent(tick=1, channel=1, data=[0, 86]),
   midi.PitchWheelEvent(tick=1, channel=1, data=[96, 86]),
   midi.PitchWheelEvent(tick=1, channel=1, data=[32, 87]),
   midi.PitchWheelEvent(tick=1, channel=1, data=[0, 88]),
   midi.PitchWheelEvent(tick=1, channel=1, data=[96, 88]),
   midi.PitchWheelEvent(tick=1, channel=1, data=[32, 89]),
   midi.PitchWheelEvent(tick=1, channel=1, data=[0, 90]),
   midi.PitchWheelEvent(tick=1, channel=1, data=[96, 90]),
   midi.PitchWheelEvent(tick=1, channel=1, data=[32, 91]),
   midi.PitchWheelEvent(tick=1, channel=1, data=[0, 92]),
   midi.PitchWheelEvent(tick=1, channel=1, data=[96, 92]),
   midi.PitchWheelEvent(tick=1, channel=1, data=[32, 93]),
   midi.PitchWheelEvent(tick=1, channel=1, data=[0, 94]),
   midi.PitchWheelEvent(tick=1, channel=1, data=[96, 94]),
   midi.PitchWheelEvent(tick=1, channel=1, data=[32, 95]),
   midi.PitchWheelEvent(tick=1, channel=1, data=[0, 96]),
   midi.PitchWheelEvent(tick=1, channel=1, data=[96, 96]),
   midi.PitchWheelEvent(tick=1, channel=1, data=[32, 97]),
   midi.PitchWheelEvent(tick=1, channel=1, data=[0, 98]),
   midi.PitchWheelEvent(tick=1, channel=1, data=[96, 98]),
   midi.PitchWheelEvent(tick=1, channel=1, data=[32, 99]),
   midi.PitchWheelEvent(tick=1, channel=1, data=[0, 100]),
   midi.PitchWheelEvent(tick=1, channel=1, data=[96, 100]),
   midi.PitchWheelEvent(tick=1, channel=1, data=[32, 101]),
   midi.PitchWheelEvent(tick=1, channel=1, data=[0, 102]),
   midi.PitchWheelEvent(tick=1, channel=1, data=[96, 102]),
   midi.PitchWheelEvent(tick=1, channel=1, data=[32, 103]),
   midi.PitchWheelEvent(tick=1, channel=1, data=[0, 104]),
   midi.PitchWheelEvent(tick=1, channel=1, data=[96, 104]),
   midi.PitchWheelEvent(tick=1, channel=1, data=[32, 105]),
   midi.PitchWheelEvent(tick=1, channel=1, data=[0, 106]),
   midi.PitchWheelEvent(tick=1, channel=1, data=[64, 106]),
   midi.PitchWheelEvent(tick=1, channel=1, data=[32, 107]),
   midi.PitchWheelEvent(tick=1, channel=1, data=[0, 108]),
   midi.PitchWheelEvent(tick=1, channel=1, data=[64, 108]),
   midi.PitchWheelEvent(tick=1, channel=1, data=[32, 109]),
   midi.PitchWheelEvent(tick=1, channel=1, data=[0, 110]),
   midi.PitchWheelEvent(tick=1, channel=1, data=[64, 110]),
   midi.PitchWheelEvent(tick=1, channel=1, data=[32, 111]),
   midi.PitchWheelEvent(tick=1, channel=1, data=[0, 112]),
   midi.PitchWheelEvent(tick=1, channel=1, data=[64, 112]),
   midi.PitchWheelEvent(tick=1, channel=1, data=[32, 113]),
   midi.PitchWheelEvent(tick=1, channel=1, data=[0, 114]),
   midi.PitchWheelEvent(tick=1, channel=1, data=[64, 114]),
   midi.PitchWheelEvent(tick=1, channel=1, data=[32, 115]),
   midi.PitchWheelEvent(tick=1, channel=1, data=[0, 116]),
   midi.PitchWheelEvent(tick=1, channel=1, data=[64, 116]),
   midi.PitchWheelEvent(tick=1, channel=1, data=[32, 117]),
   midi.PitchWheelEvent(tick=1, channel=1, data=[0, 118]),
   midi.PitchWheelEvent(tick=1, channel=1, data=[64, 118]),
   midi.PitchWheelEvent(tick=1, channel=1, data=[32, 119]),
   midi.PitchWheelEvent(tick=1, channel=1, data=[0, 120]),
   midi.PitchWheelEvent(tick=1, channel=1, data=[64, 120]),
   midi.PitchWheelEvent(tick=1, channel=1, data=[32, 121]),
   midi.PitchWheelEvent(tick=1, channel=1, data=[0, 122]),
   midi.PitchWheelEvent(tick=1, channel=1, data=[64, 122]),
   midi.PitchWheelEvent(tick=1, channel=1, data=[32, 123]),
   midi.PitchWheelEvent(tick=1, channel=1, data=[0, 124]),
   midi.PitchWheelEvent(tick=1, channel=1, data=[64, 124]),
   midi.PitchWheelEvent(tick=1, channel=1, data=[32, 125]),
   midi.PitchWheelEvent(tick=1, channel=1, data=[0, 126]),
   midi.PitchWheelEvent(tick=1, channel=1, data=[64, 126]),
   midi.PitchWheelEvent(tick=1, channel=1, data=[32, 127]),
   midi.PitchWheelEvent(tick=1, channel=1, data=[127, 127]),
   midi.NoteOnEvent(tick=160, channel=1, data=[86, 0]),
   midi.PitchWheelEvent(tick=32, channel=1, data=[0, 64]),
   midi.NoteOnEvent(tick=0, channel=1, data=[86, 110]),
   midi.NoteOnEvent(tick=62, channel=1, data=[86, 0]),
   midi.NoteOnEvent(tick=2, channel=1, data=[83, 110]),
   midi.NoteOnEvent(tick=62, channel=1, data=[83, 0]),
   midi.NoteOnEvent(tick=2, channel=1, data=[81, 110]),
   midi.NoteOnEvent(tick=62, channel=1, data=[81, 0]),
   midi.NoteOnEvent(tick=2, channel=1, data=[83, 110]),
   midi.NoteOnEvent(tick=94, channel=1, data=[83, 0]),
   midi.PitchWheelEvent(tick=2, channel=1, data=[0, 64]),
   midi.NoteOnEvent(tick=0, channel=1, data=[91, 110]),
   midi.PitchWheelEvent(tick=1, channel=1, data=[96, 64]),
   midi.PitchWheelEvent(tick=1, channel=1, data=[64, 65]),
   midi.PitchWheelEvent(tick=1, channel=1, data=[0, 66]),
   midi.PitchWheelEvent(tick=1, channel=1, data=[96, 66]),
   midi.PitchWheelEvent(tick=1, channel=1, data=[64, 67]),
   midi.PitchWheelEvent(tick=1, channel=1, data=[0, 68]),
   midi.PitchWheelEvent(tick=1, channel=1, data=[96, 68]),
   midi.PitchWheelEvent(tick=1, channel=1, data=[64, 69]),
   midi.PitchWheelEvent(tick=1, channel=1, data=[0, 70]),
   midi.PitchWheelEvent(tick=1, channel=1, data=[96, 70]),
   midi.PitchWheelEvent(tick=1, channel=1, data=[64, 71]),
   midi.PitchWheelEvent(tick=1, channel=1, data=[0, 72]),
   midi.PitchWheelEvent(tick=1, channel=1, data=[96, 72]),
   midi.PitchWheelEvent(tick=1, channel=1, data=[64, 73]),
   midi.PitchWheelEvent(tick=1, channel=1, data=[0, 74]),
   midi.PitchWheelEvent(tick=1, channel=1, data=[96, 74]),
   midi.PitchWheelEvent(tick=1, channel=1, data=[64, 75]),
   midi.PitchWheelEvent(tick=1, channel=1, data=[0, 76]),
   midi.PitchWheelEvent(tick=1, channel=1, data=[96, 76]),
   midi.PitchWheelEvent(tick=1, channel=1, data=[64, 77]),
   midi.PitchWheelEvent(tick=1, channel=1, data=[0, 78]),
   midi.PitchWheelEvent(tick=1, channel=1, data=[96, 78]),
   midi.PitchWheelEvent(tick=1, channel=1, data=[64, 79]),
   midi.PitchWheelEvent(tick=1, channel=1, data=[0, 80]),
   midi.PitchWheelEvent(tick=1, channel=1, data=[96, 80]),
   midi.PitchWheelEvent(tick=1, channel=1, data=[64, 81]),
   midi.PitchWheelEvent(tick=1, channel=1, data=[0, 82]),
   midi.PitchWheelEvent(tick=1, channel=1, data=[96, 82]),
   midi.PitchWheelEvent(tick=1, channel=1, data=[64, 83]),
   midi.PitchWheelEvent(tick=1, channel=1, data=[0, 84]),
   midi.PitchWheelEvent(tick=1, channel=1, data=[96, 84]),
   midi.PitchWheelEvent(tick=1, channel=1, data=[32, 85]),
   midi.PitchWheelEvent(tick=1, channel=1, data=[0, 86]),
   midi.PitchWheelEvent(tick=1, channel=1, data=[96, 86]),
   midi.PitchWheelEvent(tick=1, channel=1, data=[32, 87]),
   midi.PitchWheelEvent(tick=1, channel=1, data=[0, 88]),
   midi.PitchWheelEvent(tick=1, channel=1, data=[96, 88]),
   midi.PitchWheelEvent(tick=1, channel=1, data=[32, 89]),
   midi.PitchWheelEvent(tick=1, channel=1, data=[0, 90]),
   midi.PitchWheelEvent(tick=1, channel=1, data=[96, 90]),
   midi.PitchWheelEvent(tick=1, channel=1, data=[32, 91]),
   midi.PitchWheelEvent(tick=1, channel=1, data=[0, 92]),
   midi.PitchWheelEvent(tick=1, channel=1, data=[96, 92]),
   midi.PitchWheelEvent(tick=1, channel=1, data=[32, 93]),
   midi.PitchWheelEvent(tick=1, channel=1, data=[0, 94]),
   midi.PitchWheelEvent(tick=1, channel=1, data=[96, 94]),
   midi.PitchWheelEvent(tick=1, channel=1, data=[32, 95]),
   midi.PitchWheelEvent(tick=1, channel=1, data=[0, 96]),
   midi.PitchWheelEvent(tick=1, channel=1, data=[96, 96]),
   midi.PitchWheelEvent(tick=1, channel=1, data=[32, 97]),
   midi.PitchWheelEvent(tick=1, channel=1, data=[0, 98]),
   midi.PitchWheelEvent(tick=1, channel=1, data=[96, 98]),
   midi.PitchWheelEvent(tick=1, channel=1, data=[32, 99]),
   midi.PitchWheelEvent(tick=1, channel=1, data=[0, 100]),
   midi.PitchWheelEvent(tick=1, channel=1, data=[96, 100]),
   midi.PitchWheelEvent(tick=1, channel=1, data=[32, 101]),
   midi.PitchWheelEvent(tick=1, channel=1, data=[0, 102]),
   midi.PitchWheelEvent(tick=1, channel=1, data=[96, 102]),
   midi.PitchWheelEvent(tick=1, channel=1, data=[32, 103]),
   midi.PitchWheelEvent(tick=1, channel=1, data=[0, 104]),
   midi.PitchWheelEvent(tick=1, channel=1, data=[96, 104]),
   midi.PitchWheelEvent(tick=1, channel=1, data=[32, 105]),
   midi.PitchWheelEvent(tick=1, channel=1, data=[0, 106]),
   midi.PitchWheelEvent(tick=1, channel=1, data=[64, 106]),
   midi.PitchWheelEvent(tick=1, channel=1, data=[32, 107]),
   midi.PitchWheelEvent(tick=1, channel=1, data=[0, 108]),
   midi.PitchWheelEvent(tick=1, channel=1, data=[64, 108]),
   midi.PitchWheelEvent(tick=1, channel=1, data=[32, 109]),
   midi.PitchWheelEvent(tick=1, channel=1, data=[0, 110]),
   midi.PitchWheelEvent(tick=1, channel=1, data=[64, 110]),
   midi.PitchWheelEvent(tick=1, channel=1, data=[32, 111]),
   midi.PitchWheelEvent(tick=1, channel=1, data=[0, 112]),
   midi.PitchWheelEvent(tick=1, channel=1, data=[64, 112]),
   midi.PitchWheelEvent(tick=1, channel=1, data=[32, 113]),
   midi.PitchWheelEvent(tick=1, channel=1, data=[0, 114]),
   midi.PitchWheelEvent(tick=1, channel=1, data=[64, 114]),
   midi.PitchWheelEvent(tick=1, channel=1, data=[32, 115]),
   midi.PitchWheelEvent(tick=1, channel=1, data=[0, 116]),
   midi.PitchWheelEvent(tick=1, channel=1, data=[64, 116]),
   midi.PitchWheelEvent(tick=1, channel=1, data=[32, 117]),
   midi.PitchWheelEvent(tick=1, channel=1, data=[0, 118]),
   midi.PitchWheelEvent(tick=1, channel=1, data=[64, 118]),
   midi.PitchWheelEvent(tick=1, channel=1, data=[32, 119]),
   midi.PitchWheelEvent(tick=1, channel=1, data=[0, 120]),
   midi.PitchWheelEvent(tick=1, channel=1, data=[64, 120]),
   midi.PitchWheelEvent(tick=1, channel=1, data=[32, 121]),
   midi.PitchWheelEvent(tick=1, channel=1, data=[0, 122]),
   midi.PitchWheelEvent(tick=1, channel=1, data=[64, 122]),
   midi.PitchWheelEvent(tick=1, channel=1, data=[32, 123]),
   midi.PitchWheelEvent(tick=1, channel=1, data=[0, 124]),
   midi.PitchWheelEvent(tick=1, channel=1, data=[64, 124]),
   midi.PitchWheelEvent(tick=1, channel=1, data=[32, 125]),
   midi.PitchWheelEvent(tick=1, channel=1, data=[0, 126]),
   midi.PitchWheelEvent(tick=1, channel=1, data=[64, 126]),
   midi.PitchWheelEvent(tick=1, channel=1, data=[32, 127]),
   midi.PitchWheelEvent(tick=1, channel=1, data=[127, 127]),
   midi.NoteOnEvent(tick=160, channel=1, data=[91, 0]),
   midi.PitchWheelEvent(tick=32, channel=1, data=[0, 64]),
   midi.NoteOnEvent(tick=0, channel=1, data=[91, 110]),
   midi.NoteOnEvent(tick=62, channel=1, data=[91, 0]),
   midi.NoteOnEvent(tick=2, channel=1, data=[88, 110]),
   midi.NoteOnEvent(tick=62, channel=1, data=[88, 0]),
   midi.NoteOnEvent(tick=2, channel=1, data=[86, 110]),
   midi.NoteOnEvent(tick=62, channel=1, data=[86, 0]),
   midi.NoteOnEvent(tick=2, channel=1, data=[83, 110]),
   midi.NoteOnEvent(tick=94, channel=1, data=[83, 0]),
   midi.NoteOnEvent(tick=2, channel=1, data=[81, 110]),
   midi.NoteOnEvent(tick=94, channel=1, data=[81, 0]),
   midi.NoteOnEvent(tick=2, channel=1, data=[79, 110]),
   midi.NoteOnEvent(tick=94, channel=1, data=[79, 0]),
   midi.NoteOnEvent(tick=2, channel=1, data=[76, 110]),
   midi.NoteOnEvent(tick=94, channel=1, data=[76, 0]),
   midi.NoteOnEvent(tick=2, channel=1, data=[79, 110]),
   midi.NoteOnEvent(tick=94, channel=1, data=[79, 0]),
   midi.PitchWheelEvent(tick=2, channel=1, data=[0, 64]),
   midi.NoteOnEvent(tick=0, channel=1, data=[81, 110]),
   midi.PitchWheelEvent(tick=1, channel=1, data=[96, 64]),
   midi.PitchWheelEvent(tick=1, channel=1, data=[64, 65]),
   midi.PitchWheelEvent(tick=1, channel=1, data=[0, 66]),
   midi.PitchWheelEvent(tick=1, channel=1, data=[96, 66]),
   midi.PitchWheelEvent(tick=1, channel=1, data=[64, 67]),
   midi.PitchWheelEvent(tick=1, channel=1, data=[0, 68]),
   midi.PitchWheelEvent(tick=1, channel=1, data=[96, 68]),
   midi.PitchWheelEvent(tick=1, channel=1, data=[64, 69]),
   midi.PitchWheelEvent(tick=1, channel=1, data=[0, 70]),
   midi.PitchWheelEvent(tick=1, channel=1, data=[96, 70]),
   midi.PitchWheelEvent(tick=1, channel=1, data=[64, 71]),
   midi.PitchWheelEvent(tick=1, channel=1, data=[0, 72]),
   midi.PitchWheelEvent(tick=1, channel=1, data=[96, 72]),
   midi.PitchWheelEvent(tick=1, channel=1, data=[64, 73]),
   midi.PitchWheelEvent(tick=1, channel=1, data=[0, 74]),
   midi.PitchWheelEvent(tick=1, channel=1, data=[96, 74]),
   midi.PitchWheelEvent(tick=1, channel=1, data=[64, 75]),
   midi.PitchWheelEvent(tick=1, channel=1, data=[0, 76]),
   midi.PitchWheelEvent(tick=1, channel=1, data=[96, 76]),
   midi.PitchWheelEvent(tick=1, channel=1, data=[64, 77]),
   midi.PitchWheelEvent(tick=1, channel=1, data=[0, 78]),
   midi.PitchWheelEvent(tick=1, channel=1, data=[96, 78]),
   midi.PitchWheelEvent(tick=1, channel=1, data=[64, 79]),
   midi.PitchWheelEvent(tick=1, channel=1, data=[0, 80]),
   midi.PitchWheelEvent(tick=1, channel=1, data=[96, 80]),
   midi.PitchWheelEvent(tick=1, channel=1, data=[64, 81]),
   midi.PitchWheelEvent(tick=1, channel=1, data=[0, 82]),
   midi.PitchWheelEvent(tick=1, channel=1, data=[96, 82]),
   midi.PitchWheelEvent(tick=1, channel=1, data=[64, 83]),
   midi.PitchWheelEvent(tick=1, channel=1, data=[0, 84]),
   midi.PitchWheelEvent(tick=1, channel=1, data=[96, 84]),
   midi.PitchWheelEvent(tick=1, channel=1, data=[32, 85]),
   midi.PitchWheelEvent(tick=1, channel=1, data=[0, 86]),
   midi.PitchWheelEvent(tick=1, channel=1, data=[96, 86]),
   midi.PitchWheelEvent(tick=1, channel=1, data=[32, 87]),
   midi.PitchWheelEvent(tick=1, channel=1, data=[0, 88]),
   midi.PitchWheelEvent(tick=1, channel=1, data=[96, 88]),
   midi.PitchWheelEvent(tick=1, channel=1, data=[32, 89]),
   midi.PitchWheelEvent(tick=1, channel=1, data=[0, 90]),
   midi.PitchWheelEvent(tick=1, channel=1, data=[96, 90]),
   midi.PitchWheelEvent(tick=1, channel=1, data=[32, 91]),
   midi.PitchWheelEvent(tick=1, channel=1, data=[0, 92]),
   midi.PitchWheelEvent(tick=1, channel=1, data=[96, 92]),
   midi.PitchWheelEvent(tick=1, channel=1, data=[32, 93]),
   midi.PitchWheelEvent(tick=1, channel=1, data=[0, 94]),
   midi.PitchWheelEvent(tick=1, channel=1, data=[96, 94]),
   midi.PitchWheelEvent(tick=1, channel=1, data=[32, 95]),
   midi.PitchWheelEvent(tick=1, channel=1, data=[0, 96]),
   midi.PitchWheelEvent(tick=1, channel=1, data=[96, 96]),
   midi.PitchWheelEvent(tick=1, channel=1, data=[32, 97]),
   midi.PitchWheelEvent(tick=1, channel=1, data=[0, 98]),
   midi.PitchWheelEvent(tick=1, channel=1, data=[96, 98]),
   midi.PitchWheelEvent(tick=1, channel=1, data=[32, 99]),
   midi.PitchWheelEvent(tick=1, channel=1, data=[0, 100]),
   midi.PitchWheelEvent(tick=1, channel=1, data=[96, 100]),
   midi.PitchWheelEvent(tick=1, channel=1, data=[32, 101]),
   midi.PitchWheelEvent(tick=1, channel=1, data=[0, 102]),
   midi.PitchWheelEvent(tick=1, channel=1, data=[96, 102]),
   midi.PitchWheelEvent(tick=1, channel=1, data=[32, 103]),
   midi.PitchWheelEvent(tick=1, channel=1, data=[0, 104]),
   midi.PitchWheelEvent(tick=1, channel=1, data=[96, 104]),
   midi.PitchWheelEvent(tick=1, channel=1, data=[32, 105]),
   midi.PitchWheelEvent(tick=1, channel=1, data=[0, 106]),
   midi.PitchWheelEvent(tick=1, channel=1, data=[64, 106]),
   midi.PitchWheelEvent(tick=1, channel=1, data=[32, 107]),
   midi.PitchWheelEvent(tick=1, channel=1, data=[0, 108]),
   midi.PitchWheelEvent(tick=1, channel=1, data=[64, 108]),
   midi.PitchWheelEvent(tick=1, channel=1, data=[32, 109]),
   midi.PitchWheelEvent(tick=1, channel=1, data=[0, 110]),
   midi.PitchWheelEvent(tick=1, channel=1, data=[64, 110]),
   midi.PitchWheelEvent(tick=1, channel=1, data=[32, 111]),
   midi.PitchWheelEvent(tick=1, channel=1, data=[0, 112]),
   midi.PitchWheelEvent(tick=1, channel=1, data=[64, 112]),
   midi.PitchWheelEvent(tick=1, channel=1, data=[32, 113]),
   midi.PitchWheelEvent(tick=1, channel=1, data=[0, 114]),
   midi.PitchWheelEvent(tick=1, channel=1, data=[64, 114]),
   midi.PitchWheelEvent(tick=1, channel=1, data=[32, 115]),
   midi.PitchWheelEvent(tick=1, channel=1, data=[0, 116]),
   midi.PitchWheelEvent(tick=1, channel=1, data=[64, 116]),
   midi.PitchWheelEvent(tick=1, channel=1, data=[32, 117]),
   midi.PitchWheelEvent(tick=1, channel=1, data=[0, 118]),
   midi.PitchWheelEvent(tick=1, channel=1, data=[64, 118]),
   midi.PitchWheelEvent(tick=1, channel=1, data=[32, 119]),
   midi.PitchWheelEvent(tick=1, channel=1, data=[0, 120]),
   midi.PitchWheelEvent(tick=1, channel=1, data=[64, 120]),
   midi.PitchWheelEvent(tick=1, channel=1, data=[32, 121]),
   midi.PitchWheelEvent(tick=1, channel=1, data=[0, 122]),
   midi.PitchWheelEvent(tick=1, channel=1, data=[64, 122]),
   midi.PitchWheelEvent(tick=1, channel=1, data=[32, 123]),
   midi.PitchWheelEvent(tick=1, channel=1, data=[0, 124]),
   midi.PitchWheelEvent(tick=1, channel=1, data=[64, 124]),
   midi.PitchWheelEvent(tick=1, channel=1, data=[32, 125]),
   midi.PitchWheelEvent(tick=1, channel=1, data=[0, 126]),
   midi.PitchWheelEvent(tick=1, channel=1, data=[64, 126]),
   midi.PitchWheelEvent(tick=1, channel=1, data=[32, 127]),
   midi.PitchWheelEvent(tick=1, channel=1, data=[127, 127]),
   midi.NoteOnEvent(tick=336, channel=1, data=[81, 0]),
   midi.PitchWheelEvent(tick=48, channel=1, data=[0, 64]),
   midi.NoteOnEvent(tick=0, channel=1, data=[71, 110]),
   midi.NoteOnEvent(tick=94, channel=1, data=[71, 0]),
   midi.NoteOnEvent(tick=2, channel=1, data=[64, 110]),
   midi.NoteOnEvent(tick=94, channel=1, data=[64, 0]),
   midi.NoteOnEvent(tick=2, channel=1, data=[64, 110]),
   midi.NoteOnEvent(tick=94, channel=1, data=[64, 0]),
   midi.NoteOnEvent(tick=2, channel=1, data=[67, 110]),
   midi.NoteOnEvent(tick=94, channel=1, data=[67, 0]),
   midi.NoteOnEvent(tick=2, channel=1, data=[66, 110]),
   midi.NoteOnEvent(tick=94, channel=1, data=[66, 0]),
   midi.NoteOnEvent(tick=2, channel=1, data=[62, 110]),
   midi.NoteOnEvent(tick=94, channel=1, data=[62, 0]),
   midi.NoteOnEvent(tick=2, channel=1, data=[69, 110]),
   midi.NoteOnEvent(tick=94, channel=1, data=[69, 0]),
   midi.NoteOnEvent(tick=2, channel=1, data=[67, 110]),
   midi.NoteOnEvent(tick=94, channel=1, data=[67, 0]),
   midi.NoteOnEvent(tick=2, channel=1, data=[71, 110]),
   midi.NoteOnEvent(tick=94, channel=1, data=[71, 0]),
   midi.NoteOnEvent(tick=2, channel=1, data=[69, 110]),
   midi.NoteOnEvent(tick=94, channel=1, data=[69, 0]),
   midi.NoteOnEvent(tick=2, channel=1, data=[74, 110]),
   midi.NoteOnEvent(tick=94, channel=1, data=[74, 0]),
   midi.NoteOnEvent(tick=2, channel=1, data=[72, 110]),
   midi.NoteOnEvent(tick=94, channel=1, data=[72, 0]),
   midi.NoteOnEvent(tick=2, channel=1, data=[71, 110]),
   midi.NoteOnEvent(tick=94, channel=1, data=[71, 0]),
   midi.NoteOnEvent(tick=2, channel=1, data=[74, 110]),
   midi.NoteOnEvent(tick=94, channel=1, data=[74, 0]),
   midi.NoteOnEvent(tick=2, channel=1, data=[74, 110]),
   midi.NoteOnEvent(tick=94, channel=1, data=[74, 0]),
   midi.NoteOnEvent(tick=2, channel=1, data=[72, 110]),
   midi.NoteOnEvent(tick=94, channel=1, data=[72, 0]),
   midi.NoteOnEvent(tick=2, channel=1, data=[76, 110]),
   midi.NoteOnEvent(tick=94, channel=1, data=[76, 0]),
   midi.NoteOnEvent(tick=2, channel=1, data=[74, 110]),
   midi.NoteOnEvent(tick=94, channel=1, data=[74, 0]),
   midi.NoteOnEvent(tick=2, channel=1, data=[74, 110]),
   midi.NoteOnEvent(tick=94, channel=1, data=[74, 0]),
   midi.NoteOnEvent(tick=2, channel=1, data=[78, 110]),
   midi.NoteOnEvent(tick=94, channel=1, data=[78, 0]),
   midi.NoteOnEvent(tick=2, channel=1, data=[76, 110]),
   midi.NoteOnEvent(tick=94, channel=1, data=[76, 0]),
   midi.NoteOnEvent(tick=2, channel=1, data=[74, 110]),
   midi.NoteOnEvent(tick=94, channel=1, data=[74, 0]),
   midi.NoteOnEvent(tick=2, channel=1, data=[83, 110]),
   midi.NoteOnEvent(tick=94, channel=1, data=[83, 0]),
   midi.NoteOnEvent(tick=2, channel=1, data=[81, 110]),
   midi.NoteOnEvent(tick=94, channel=1, data=[81, 0]),
   midi.NoteOnEvent(tick=98, channel=1, data=[88, 110]),
   midi.NoteOnEvent(tick=94, channel=1, data=[88, 0]),
   midi.NoteOnEvent(tick=2, channel=1, data=[86, 110]),
   midi.NoteOnEvent(tick=94, channel=1, data=[86, 0]),
   midi.NoteOnEvent(tick=2, channel=1, data=[85, 110]),
   midi.NoteOnEvent(tick=94, channel=1, data=[85, 0]),
   midi.NoteOnEvent(tick=2, channel=1, data=[93, 110]),
   midi.NoteOnEvent(tick=336, channel=1, data=[93, 0]),
   midi.NoteOnEvent(tick=48, channel=1, data=[79, 110]),
   midi.NoteOnEvent(tick=160, channel=1, data=[79, 0]),
   midi.NoteOnEvent(tick=32, channel=1, data=[79, 110]),
   midi.NoteOnEvent(tick=94, channel=1, data=[79, 0]),
   midi.NoteOnEvent(tick=2, channel=1, data=[79, 110]),
   midi.NoteOnEvent(tick=94, channel=1, data=[79, 0]),
   midi.NoteOnEvent(tick=2, channel=1, data=[84, 110]),
   midi.NoteOnEvent(tick=94, channel=1, data=[84, 0]),
   midi.NoteOnEvent(tick=2, channel=1, data=[79, 110]),
   midi.NoteOnEvent(tick=160, channel=1, data=[79, 0]),
   midi.NoteOnEvent(tick=32, channel=1, data=[79, 110]),
   midi.NoteOnEvent(tick=94, channel=1, data=[79, 0]),
   midi.NoteOnEvent(tick=2, channel=1, data=[86, 110]),
   midi.NoteOnEvent(tick=94, channel=1, data=[86, 0]),
   midi.NoteOnEvent(tick=2, channel=1, data=[79, 110]),
   midi.NoteOnEvent(tick=160, channel=1, data=[79, 0]),
   midi.NoteOnEvent(tick=32, channel=1, data=[79, 110]),
   midi.NoteOnEvent(tick=94, channel=1, data=[79, 0]),
   midi.NoteOnEvent(tick=2, channel=1, data=[88, 110]),
   midi.NoteOnEvent(tick=94, channel=1, data=[88, 0]),
   midi.NoteOnEvent(tick=2, channel=1, data=[79, 110]),
   midi.NoteOnEvent(tick=94, channel=1, data=[79, 0]),
   midi.NoteOnEvent(tick=2, channel=1, data=[79, 110]),
   midi.NoteOnEvent(tick=94, channel=1, data=[79, 0]),
   midi.NoteOnEvent(tick=2, channel=1, data=[79, 110]),
   midi.NoteOnEvent(tick=94, channel=1, data=[79, 0]),
   midi.NoteOnEvent(tick=2, channel=1, data=[79, 110]),
   midi.NoteOnEvent(tick=160, channel=1, data=[79, 0]),
   midi.NoteOnEvent(tick=32, channel=1, data=[79, 110]),
   midi.NoteOnEvent(tick=94, channel=1, data=[79, 0]),
   midi.NoteOnEvent(tick=2, channel=1, data=[79, 110]),
   midi.NoteOnEvent(tick=94, channel=1, data=[79, 0]),
   midi.NoteOnEvent(tick=2, channel=1, data=[84, 110]),
   midi.NoteOnEvent(tick=94, channel=1, data=[84, 0]),
   midi.NoteOnEvent(tick=2, channel=1, data=[79, 110]),
   midi.NoteOnEvent(tick=160, channel=1, data=[79, 0]),
   midi.NoteOnEvent(tick=32, channel=1, data=[79, 110]),
   midi.NoteOnEvent(tick=94, channel=1, data=[79, 0]),
   midi.NoteOnEvent(tick=2, channel=1, data=[86, 110]),
   midi.NoteOnEvent(tick=94, channel=1, data=[86, 0]),
   midi.NoteOnEvent(tick=2, channel=1, data=[79, 110]),
   midi.NoteOnEvent(tick=160, channel=1, data=[79, 0]),
   midi.NoteOnEvent(tick=32, channel=1, data=[79, 110]),
   midi.NoteOnEvent(tick=94, channel=1, data=[79, 0]),
   midi.PitchWheelEvent(tick=2, channel=1, data=[0, 64]),
   midi.NoteOnEvent(tick=0, channel=1, data=[91, 110]),
   midi.PitchWheelEvent(tick=1, channel=1, data=[96, 64]),
   midi.PitchWheelEvent(tick=1, channel=1, data=[64, 65]),
   midi.PitchWheelEvent(tick=1, channel=1, data=[0, 66]),
   midi.PitchWheelEvent(tick=1, channel=1, data=[96, 66]),
   midi.PitchWheelEvent(tick=1, channel=1, data=[64, 67]),
   midi.PitchWheelEvent(tick=1, channel=1, data=[0, 68]),
   midi.PitchWheelEvent(tick=1, channel=1, data=[96, 68]),
   midi.PitchWheelEvent(tick=1, channel=1, data=[64, 69]),
   midi.PitchWheelEvent(tick=1, channel=1, data=[0, 70]),
   midi.PitchWheelEvent(tick=1, channel=1, data=[96, 70]),
   midi.PitchWheelEvent(tick=1, channel=1, data=[64, 71]),
   midi.PitchWheelEvent(tick=1, channel=1, data=[0, 72]),
   midi.PitchWheelEvent(tick=1, channel=1, data=[96, 72]),
   midi.PitchWheelEvent(tick=1, channel=1, data=[64, 73]),
   midi.PitchWheelEvent(tick=1, channel=1, data=[0, 74]),
   midi.PitchWheelEvent(tick=1, channel=1, data=[96, 74]),
   midi.PitchWheelEvent(tick=1, channel=1, data=[64, 75]),
   midi.PitchWheelEvent(tick=1, channel=1, data=[0, 76]),
   midi.PitchWheelEvent(tick=1, channel=1, data=[96, 76]),
   midi.PitchWheelEvent(tick=1, channel=1, data=[64, 77]),
   midi.PitchWheelEvent(tick=1, channel=1, data=[0, 78]),
   midi.PitchWheelEvent(tick=1, channel=1, data=[96, 78]),
   midi.PitchWheelEvent(tick=1, channel=1, data=[64, 79]),
   midi.PitchWheelEvent(tick=1, channel=1, data=[0, 80]),
   midi.PitchWheelEvent(tick=1, channel=1, data=[96, 80]),
   midi.PitchWheelEvent(tick=1, channel=1, data=[64, 81]),
   midi.PitchWheelEvent(tick=1, channel=1, data=[0, 82]),
   midi.PitchWheelEvent(tick=1, channel=1, data=[96, 82]),
   midi.PitchWheelEvent(tick=1, channel=1, data=[64, 83]),
   midi.PitchWheelEvent(tick=1, channel=1, data=[0, 84]),
   midi.PitchWheelEvent(tick=1, channel=1, data=[96, 84]),
   midi.PitchWheelEvent(tick=1, channel=1, data=[32, 85]),
   midi.PitchWheelEvent(tick=1, channel=1, data=[0, 86]),
   midi.PitchWheelEvent(tick=1, channel=1, data=[96, 86]),
   midi.PitchWheelEvent(tick=1, channel=1, data=[32, 87]),
   midi.PitchWheelEvent(tick=1, channel=1, data=[0, 88]),
   midi.PitchWheelEvent(tick=1, channel=1, data=[96, 88]),
   midi.PitchWheelEvent(tick=1, channel=1, data=[32, 89]),
   midi.PitchWheelEvent(tick=1, channel=1, data=[0, 90]),
   midi.PitchWheelEvent(tick=1, channel=1, data=[96, 90]),
   midi.PitchWheelEvent(tick=1, channel=1, data=[32, 91]),
   midi.PitchWheelEvent(tick=1, channel=1, data=[0, 92]),
   midi.PitchWheelEvent(tick=1, channel=1, data=[96, 92]),
   midi.PitchWheelEvent(tick=1, channel=1, data=[32, 93]),
   midi.PitchWheelEvent(tick=1, channel=1, data=[0, 94]),
   midi.PitchWheelEvent(tick=1, channel=1, data=[96, 94]),
   midi.PitchWheelEvent(tick=1, channel=1, data=[32, 95]),
   midi.PitchWheelEvent(tick=1, channel=1, data=[0, 96]),
   midi.PitchWheelEvent(tick=1, channel=1, data=[96, 96]),
   midi.PitchWheelEvent(tick=1, channel=1, data=[32, 97]),
   midi.PitchWheelEvent(tick=1, channel=1, data=[0, 98]),
   midi.PitchWheelEvent(tick=1, channel=1, data=[96, 98]),
   midi.PitchWheelEvent(tick=1, channel=1, data=[32, 99]),
   midi.PitchWheelEvent(tick=1, channel=1, data=[0, 100]),
   midi.PitchWheelEvent(tick=1, channel=1, data=[96, 100]),
   midi.PitchWheelEvent(tick=1, channel=1, data=[32, 101]),
   midi.PitchWheelEvent(tick=1, channel=1, data=[0, 102]),
   midi.PitchWheelEvent(tick=1, channel=1, data=[96, 102]),
   midi.PitchWheelEvent(tick=1, channel=1, data=[32, 103]),
   midi.PitchWheelEvent(tick=1, channel=1, data=[0, 104]),
   midi.PitchWheelEvent(tick=1, channel=1, data=[96, 104]),
   midi.PitchWheelEvent(tick=1, channel=1, data=[32, 105]),
   midi.PitchWheelEvent(tick=1, channel=1, data=[0, 106]),
   midi.PitchWheelEvent(tick=1, channel=1, data=[64, 106]),
   midi.PitchWheelEvent(tick=1, channel=1, data=[32, 107]),
   midi.PitchWheelEvent(tick=1, channel=1, data=[0, 108]),
   midi.PitchWheelEvent(tick=1, channel=1, data=[64, 108]),
   midi.PitchWheelEvent(tick=1, channel=1, data=[32, 109]),
   midi.PitchWheelEvent(tick=1, channel=1, data=[0, 110]),
   midi.PitchWheelEvent(tick=1, channel=1, data=[64, 110]),
   midi.PitchWheelEvent(tick=1, channel=1, data=[32, 111]),
   midi.PitchWheelEvent(tick=1, channel=1, data=[0, 112]),
   midi.PitchWheelEvent(tick=1, channel=1, data=[64, 112]),
   midi.PitchWheelEvent(tick=1, channel=1, data=[32, 113]),
   midi.PitchWheelEvent(tick=1, channel=1, data=[0, 114]),
   midi.PitchWheelEvent(tick=1, channel=1, data=[64, 114]),
   midi.PitchWheelEvent(tick=1, channel=1, data=[32, 115]),
   midi.PitchWheelEvent(tick=1, channel=1, data=[0, 116]),
   midi.PitchWheelEvent(tick=1, channel=1, data=[64, 116]),
   midi.PitchWheelEvent(tick=1, channel=1, data=[32, 117]),
   midi.PitchWheelEvent(tick=1, channel=1, data=[0, 118]),
   midi.PitchWheelEvent(tick=1, channel=1, data=[64, 118]),
   midi.PitchWheelEvent(tick=1, channel=1, data=[32, 119]),
   midi.PitchWheelEvent(tick=1, channel=1, data=[0, 120]),
   midi.PitchWheelEvent(tick=1, channel=1, data=[64, 120]),
   midi.PitchWheelEvent(tick=1, channel=1, data=[32, 121]),
   midi.PitchWheelEvent(tick=1, channel=1, data=[0, 122]),
   midi.PitchWheelEvent(tick=1, channel=1, data=[64, 122]),
   midi.PitchWheelEvent(tick=1, channel=1, data=[32, 123]),
   midi.PitchWheelEvent(tick=1, channel=1, data=[0, 124]),
   midi.PitchWheelEvent(tick=1, channel=1, data=[64, 124]),
   midi.PitchWheelEvent(tick=1, channel=1, data=[32, 125]),
   midi.PitchWheelEvent(tick=1, channel=1, data=[0, 126]),
   midi.PitchWheelEvent(tick=1, channel=1, data=[64, 126]),
   midi.PitchWheelEvent(tick=1, channel=1, data=[32, 127]),
   midi.PitchWheelEvent(tick=1, channel=1, data=[127, 127]),
   midi.PitchWheelEvent(tick=192, channel=1, data=[127, 127]),
   midi.PitchWheelEvent(tick=1, channel=1, data=[31, 127]),
   midi.PitchWheelEvent(tick=1, channel=1, data=[63, 126]),
   midi.PitchWheelEvent(tick=1, channel=1, data=[127, 125]),
   midi.PitchWheelEvent(tick=1, channel=1, data=[31, 125]),
   midi.PitchWheelEvent(tick=1, channel=1, data=[63, 124]),
   midi.PitchWheelEvent(tick=1, channel=1, data=[127, 123]),
   midi.PitchWheelEvent(tick=1, channel=1, data=[31, 123]),
   midi.PitchWheelEvent(tick=1, channel=1, data=[63, 122]),
   midi.PitchWheelEvent(tick=1, channel=1, data=[127, 121]),
   midi.PitchWheelEvent(tick=1, channel=1, data=[31, 121]),
   midi.PitchWheelEvent(tick=1, channel=1, data=[63, 120]),
   midi.PitchWheelEvent(tick=1, channel=1, data=[127, 119]),
   midi.PitchWheelEvent(tick=1, channel=1, data=[31, 119]),
   midi.PitchWheelEvent(tick=1, channel=1, data=[63, 118]),
   midi.PitchWheelEvent(tick=1, channel=1, data=[127, 117]),
   midi.PitchWheelEvent(tick=1, channel=1, data=[31, 117]),
   midi.PitchWheelEvent(tick=1, channel=1, data=[63, 116]),
   midi.PitchWheelEvent(tick=1, channel=1, data=[127, 115]),
   midi.PitchWheelEvent(tick=1, channel=1, data=[31, 115]),
   midi.PitchWheelEvent(tick=1, channel=1, data=[63, 114]),
   midi.PitchWheelEvent(tick=1, channel=1, data=[127, 113]),
   midi.PitchWheelEvent(tick=1, channel=1, data=[31, 113]),
   midi.PitchWheelEvent(tick=1, channel=1, data=[63, 112]),
   midi.PitchWheelEvent(tick=1, channel=1, data=[127, 111]),
   midi.PitchWheelEvent(tick=1, channel=1, data=[31, 111]),
   midi.PitchWheelEvent(tick=1, channel=1, data=[63, 110]),
   midi.PitchWheelEvent(tick=1, channel=1, data=[127, 109]),
   midi.PitchWheelEvent(tick=1, channel=1, data=[31, 109]),
   midi.PitchWheelEvent(tick=1, channel=1, data=[63, 108]),
   midi.PitchWheelEvent(tick=1, channel=1, data=[127, 107]),
   midi.PitchWheelEvent(tick=1, channel=1, data=[31, 107]),
   midi.PitchWheelEvent(tick=1, channel=1, data=[95, 106]),
   midi.PitchWheelEvent(tick=1, channel=1, data=[127, 105]),
   midi.PitchWheelEvent(tick=1, channel=1, data=[31, 105]),
   midi.PitchWheelEvent(tick=1, channel=1, data=[95, 104]),
   midi.PitchWheelEvent(tick=1, channel=1, data=[127, 103]),
   midi.PitchWheelEvent(tick=1, channel=1, data=[31, 103]),
   midi.PitchWheelEvent(tick=1, channel=1, data=[95, 102]),
   midi.PitchWheelEvent(tick=1, channel=1, data=[127, 101]),
   midi.PitchWheelEvent(tick=1, channel=1, data=[31, 101]),
   midi.PitchWheelEvent(tick=1, channel=1, data=[95, 100]),
   midi.PitchWheelEvent(tick=1, channel=1, data=[127, 99]),
   midi.PitchWheelEvent(tick=1, channel=1, data=[31, 99]),
   midi.PitchWheelEvent(tick=1, channel=1, data=[95, 98]),
   midi.PitchWheelEvent(tick=1, channel=1, data=[127, 97]),
   midi.PitchWheelEvent(tick=1, channel=1, data=[31, 97]),
   midi.PitchWheelEvent(tick=1, channel=1, data=[95, 96]),
   midi.PitchWheelEvent(tick=1, channel=1, data=[127, 95]),
   midi.PitchWheelEvent(tick=1, channel=1, data=[31, 95]),
   midi.PitchWheelEvent(tick=1, channel=1, data=[95, 94]),
   midi.PitchWheelEvent(tick=1, channel=1, data=[127, 93]),
   midi.PitchWheelEvent(tick=1, channel=1, data=[31, 93]),
   midi.PitchWheelEvent(tick=1, channel=1, data=[95, 92]),
   midi.PitchWheelEvent(tick=1, channel=1, data=[127, 91]),
   midi.PitchWheelEvent(tick=1, channel=1, data=[31, 91]),
   midi.PitchWheelEvent(tick=1, channel=1, data=[95, 90]),
   midi.PitchWheelEvent(tick=1, channel=1, data=[127, 89]),
   midi.PitchWheelEvent(tick=1, channel=1, data=[31, 89]),
   midi.PitchWheelEvent(tick=1, channel=1, data=[95, 88]),
   midi.PitchWheelEvent(tick=1, channel=1, data=[127, 87]),
   midi.PitchWheelEvent(tick=1, channel=1, data=[31, 87]),
   midi.PitchWheelEvent(tick=1, channel=1, data=[95, 86]),
   midi.PitchWheelEvent(tick=1, channel=1, data=[127, 85]),
   midi.PitchWheelEvent(tick=1, channel=1, data=[63, 85]),
   midi.PitchWheelEvent(tick=1, channel=1, data=[95, 84]),
   midi.PitchWheelEvent(tick=1, channel=1, data=[127, 83]),
   midi.PitchWheelEvent(tick=1, channel=1, data=[63, 83]),
   midi.PitchWheelEvent(tick=1, channel=1, data=[95, 82]),
   midi.PitchWheelEvent(tick=1, channel=1, data=[127, 81]),
   midi.PitchWheelEvent(tick=1, channel=1, data=[63, 81]),
   midi.PitchWheelEvent(tick=1, channel=1, data=[95, 80]),
   midi.PitchWheelEvent(tick=1, channel=1, data=[127, 79]),
   midi.PitchWheelEvent(tick=1, channel=1, data=[63, 79]),
   midi.PitchWheelEvent(tick=1, channel=1, data=[95, 78]),
   midi.PitchWheelEvent(tick=1, channel=1, data=[127, 77]),
   midi.PitchWheelEvent(tick=1, channel=1, data=[63, 77]),
   midi.PitchWheelEvent(tick=1, channel=1, data=[95, 76]),
   midi.PitchWheelEvent(tick=1, channel=1, data=[127, 75]),
   midi.PitchWheelEvent(tick=1, channel=1, data=[63, 75]),
   midi.PitchWheelEvent(tick=1, channel=1, data=[95, 74]),
   midi.PitchWheelEvent(tick=1, channel=1, data=[127, 73]),
   midi.PitchWheelEvent(tick=1, channel=1, data=[63, 73]),
   midi.PitchWheelEvent(tick=1, channel=1, data=[95, 72]),
   midi.PitchWheelEvent(tick=1, channel=1, data=[127, 71]),
   midi.PitchWheelEvent(tick=1, channel=1, data=[63, 71]),
   midi.PitchWheelEvent(tick=1, channel=1, data=[95, 70]),
   midi.PitchWheelEvent(tick=1, channel=1, data=[127, 69]),
   midi.PitchWheelEvent(tick=1, channel=1, data=[63, 69]),
   midi.PitchWheelEvent(tick=1, channel=1, data=[95, 68]),
   midi.PitchWheelEvent(tick=1, channel=1, data=[127, 67]),
   midi.PitchWheelEvent(tick=1, channel=1, data=[63, 67]),
   midi.PitchWheelEvent(tick=1, channel=1, data=[95, 66]),
   midi.PitchWheelEvent(tick=1, channel=1, data=[127, 65]),
   midi.PitchWheelEvent(tick=1, channel=1, data=[63, 65]),
   midi.NoteOnEvent(tick=0, channel=1, data=[91, 0]),
   midi.PitchWheelEvent(tick=1, channel=1, data=[95, 64]),
   midi.PitchWheelEvent(tick=1, channel=1, data=[0, 64]),
   midi.NoteOnEvent(tick=0, channel=1, data=[91, 110]),
   midi.NoteOnEvent(tick=62, channel=1, data=[91, 0]),
   midi.NoteOnEvent(tick=2, channel=1, data=[88, 110]),
   midi.NoteOnEvent(tick=62, channel=1, data=[88, 0]),
   midi.NoteOnEvent(tick=2, channel=1, data=[86, 110]),
   midi.NoteOnEvent(tick=62, channel=1, data=[86, 0]),
   midi.NoteOnEvent(tick=2, channel=1, data=[88, 110]),
   midi.NoteOnEvent(tick=62, channel=1, data=[88, 0]),
   midi.NoteOnEvent(tick=2, channel=1, data=[86, 110]),
   midi.NoteOnEvent(tick=62, channel=1, data=[86, 0]),
   midi.NoteOnEvent(tick=2, channel=1, data=[83, 110]),
   midi.NoteOnEvent(tick=62, channel=1, data=[83, 0]),
   midi.NoteOnEvent(tick=2, channel=1, data=[86, 110]),
   midi.NoteOnEvent(tick=62, channel=1, data=[86, 0]),
   midi.NoteOnEvent(tick=2, channel=1, data=[83, 110]),
   midi.NoteOnEvent(tick=62, channel=1, data=[83, 0]),
   midi.NoteOnEvent(tick=2, channel=1, data=[81, 110]),
   midi.NoteOnEvent(tick=62, channel=1, data=[81, 0]),
   midi.NoteOnEvent(tick=2, channel=1, data=[83, 110]),
   midi.NoteOnEvent(tick=62, channel=1, data=[83, 0]),
   midi.NoteOnEvent(tick=2, channel=1, data=[81, 110]),
   midi.NoteOnEvent(tick=62, channel=1, data=[81, 0]),
   midi.NoteOnEvent(tick=2, channel=1, data=[83, 110]),
   midi.NoteOnEvent(tick=62, channel=1, data=[83, 0]),
   midi.NoteOnEvent(tick=2, channel=1, data=[86, 110]),
   midi.NoteOnEvent(tick=62, channel=1, data=[86, 0]),
   midi.NoteOnEvent(tick=2, channel=1, data=[83, 110]),
   midi.NoteOnEvent(tick=62, channel=1, data=[83, 0]),
   midi.NoteOnEvent(tick=2, channel=1, data=[81, 110]),
   midi.NoteOnEvent(tick=62, channel=1, data=[81, 0]),
   midi.NoteOnEvent(tick=2, channel=1, data=[79, 110]),
   midi.NoteOnEvent(tick=62, channel=1, data=[79, 0]),
   midi.NoteOnEvent(tick=2, channel=1, data=[76, 110]),
   midi.NoteOnEvent(tick=62, channel=1, data=[76, 0]),
   midi.NoteOnEvent(tick=2, channel=1, data=[79, 110]),
   midi.NoteOnEvent(tick=62, channel=1, data=[79, 0]),
   midi.NoteOnEvent(tick=2, channel=1, data=[81, 110]),
   midi.NoteOnEvent(tick=62, channel=1, data=[81, 0]),
   midi.NoteOnEvent(tick=2, channel=1, data=[79, 110]),
   midi.NoteOnEvent(tick=62, channel=1, data=[79, 0]),
   midi.NoteOnEvent(tick=2, channel=1, data=[76, 110]),
   midi.NoteOnEvent(tick=62, channel=1, data=[76, 0]),
   midi.NoteOnEvent(tick=2, channel=1, data=[76, 110]),
   midi.NoteOnEvent(tick=62, channel=1, data=[76, 0]),
   midi.NoteOnEvent(tick=66, channel=1, data=[88, 110]),
   midi.NoteOnEvent(tick=62, channel=1, data=[88, 0]),
   midi.NoteOnEvent(tick=2, channel=1, data=[91, 110]),
   midi.NoteOnEvent(tick=62, channel=1, data=[91, 0]),
   midi.NoteOnEvent(tick=2, channel=1, data=[88, 110]),
   midi.NoteOnEvent(tick=62, channel=1, data=[88, 0]),
   midi.NoteOnEvent(tick=2, channel=1, data=[86, 110]),
   midi.NoteOnEvent(tick=62, channel=1, data=[86, 0]),
   midi.NoteOnEvent(tick=2, channel=1, data=[83, 110]),
   midi.NoteOnEvent(tick=62, channel=1, data=[83, 0]),
   midi.NoteOnEvent(tick=2, channel=1, data=[81, 110]),
   midi.NoteOnEvent(tick=62, channel=1, data=[81, 0]),
   midi.NoteOnEvent(tick=2, channel=1, data=[83, 110]),
   midi.NoteOnEvent(tick=62, channel=1, data=[83, 0]),
   midi.NoteOnEvent(tick=2, channel=1, data=[86, 110]),
   midi.NoteOnEvent(tick=62, channel=1, data=[86, 0]),
   midi.NoteOnEvent(tick=2, channel=1, data=[83, 110]),
   midi.NoteOnEvent(tick=62, channel=1, data=[83, 0]),
   midi.NoteOnEvent(tick=2, channel=1, data=[81, 110]),
   midi.NoteOnEvent(tick=62, channel=1, data=[81, 0]),
   midi.NoteOnEvent(tick=2, channel=1, data=[79, 110]),
   midi.NoteOnEvent(tick=62, channel=1, data=[79, 0]),
   midi.NoteOnEvent(tick=2, channel=1, data=[76, 110]),
   midi.NoteOnEvent(tick=62, channel=1, data=[76, 0]),
   midi.NoteOnEvent(tick=2, channel=1, data=[79, 110]),
   midi.NoteOnEvent(tick=62, channel=1, data=[79, 0]),
   midi.NoteOnEvent(tick=2, channel=1, data=[83, 110]),
   midi.NoteOnEvent(tick=126, channel=1, data=[83, 0]),
   midi.NoteOnEvent(tick=2, channel=1, data=[81, 110]),
   midi.NoteOnEvent(tick=126, channel=1, data=[81, 0]),
   midi.NoteOnEvent(tick=2, channel=1, data=[79, 110]),
   midi.NoteOnEvent(tick=126, channel=1, data=[79, 0]),
   midi.NoteOnEvent(tick=2, channel=1, data=[76, 110]),
   midi.NoteOnEvent(tick=336, channel=1, data=[76, 0]),
   midi.NoteOnEvent(tick=48, channel=1, data=[79, 110]),
   midi.NoteOnEvent(tick=160, channel=1, data=[79, 0]),
   midi.NoteOnEvent(tick=32, channel=1, data=[79, 110]),
   midi.NoteOnEvent(tick=94, channel=1, data=[79, 0]),
   midi.NoteOnEvent(tick=2, channel=1, data=[79, 110]),
   midi.NoteOnEvent(tick=94, channel=1, data=[79, 0]),
   midi.NoteOnEvent(tick=2, channel=1, data=[84, 110]),
   midi.NoteOnEvent(tick=94, channel=1, data=[84, 0]),
   midi.NoteOnEvent(tick=2, channel=1, data=[79, 110]),
   midi.NoteOnEvent(tick=160, channel=1, data=[79, 0]),
   midi.NoteOnEvent(tick=32, channel=1, data=[79, 110]),
   midi.NoteOnEvent(tick=94, channel=1, data=[79, 0]),
   midi.NoteOnEvent(tick=2, channel=1, data=[86, 110]),
   midi.NoteOnEvent(tick=94, channel=1, data=[86, 0]),
   midi.NoteOnEvent(tick=2, channel=1, data=[79, 110]),
   midi.NoteOnEvent(tick=160, channel=1, data=[79, 0]),
   midi.NoteOnEvent(tick=32, channel=1, data=[79, 110]),
   midi.NoteOnEvent(tick=94, channel=1, data=[79, 0]),
   midi.NoteOnEvent(tick=2, channel=1, data=[88, 110]),
   midi.NoteOnEvent(tick=94, channel=1, data=[88, 0]),
   midi.NoteOnEvent(tick=2, channel=1, data=[79, 110]),
   midi.NoteOnEvent(tick=94, channel=1, data=[79, 0]),
   midi.NoteOnEvent(tick=2, channel=1, data=[79, 110]),
   midi.NoteOnEvent(tick=94, channel=1, data=[79, 0]),
   midi.NoteOnEvent(tick=2, channel=1, data=[79, 110]),
   midi.NoteOnEvent(tick=94, channel=1, data=[79, 0]),
   midi.NoteOnEvent(tick=2, channel=1, data=[79, 110]),
   midi.NoteOnEvent(tick=160, channel=1, data=[79, 0]),
   midi.NoteOnEvent(tick=32, channel=1, data=[79, 110]),
   midi.NoteOnEvent(tick=94, channel=1, data=[79, 0]),
   midi.NoteOnEvent(tick=2, channel=1, data=[79, 110]),
   midi.NoteOnEvent(tick=94, channel=1, data=[79, 0]),
   midi.NoteOnEvent(tick=2, channel=1, data=[84, 110]),
   midi.NoteOnEvent(tick=94, channel=1, data=[84, 0]),
   midi.NoteOnEvent(tick=2, channel=1, data=[79, 110]),
   midi.NoteOnEvent(tick=160, channel=1, data=[79, 0]),
   midi.NoteOnEvent(tick=32, channel=1, data=[79, 110]),
   midi.NoteOnEvent(tick=94, channel=1, data=[79, 0]),
   midi.NoteOnEvent(tick=2, channel=1, data=[86, 110]),
   midi.NoteOnEvent(tick=94, channel=1, data=[86, 0]),
   midi.NoteOnEvent(tick=2, channel=1, data=[79, 110]),
   midi.NoteOnEvent(tick=160, channel=1, data=[79, 0]),
   midi.NoteOnEvent(tick=32, channel=1, data=[79, 110]),
   midi.NoteOnEvent(tick=94, channel=1, data=[79, 0]),
   midi.PitchWheelEvent(tick=2, channel=1, data=[0, 64]),
   midi.NoteOnEvent(tick=0, channel=1, data=[91, 110]),
   midi.PitchWheelEvent(tick=1, channel=1, data=[96, 64]),
   midi.PitchWheelEvent(tick=1, channel=1, data=[64, 65]),
   midi.PitchWheelEvent(tick=1, channel=1, data=[0, 66]),
   midi.PitchWheelEvent(tick=1, channel=1, data=[96, 66]),
   midi.PitchWheelEvent(tick=1, channel=1, data=[64, 67]),
   midi.PitchWheelEvent(tick=1, channel=1, data=[0, 68]),
   midi.PitchWheelEvent(tick=1, channel=1, data=[96, 68]),
   midi.PitchWheelEvent(tick=1, channel=1, data=[64, 69]),
   midi.PitchWheelEvent(tick=1, channel=1, data=[0, 70]),
   midi.PitchWheelEvent(tick=1, channel=1, data=[96, 70]),
   midi.PitchWheelEvent(tick=1, channel=1, data=[64, 71]),
   midi.PitchWheelEvent(tick=1, channel=1, data=[0, 72]),
   midi.PitchWheelEvent(tick=1, channel=1, data=[96, 72]),
   midi.PitchWheelEvent(tick=1, channel=1, data=[64, 73]),
   midi.PitchWheelEvent(tick=1, channel=1, data=[0, 74]),
   midi.PitchWheelEvent(tick=1, channel=1, data=[96, 74]),
   midi.PitchWheelEvent(tick=1, channel=1, data=[64, 75]),
   midi.PitchWheelEvent(tick=1, channel=1, data=[0, 76]),
   midi.PitchWheelEvent(tick=1, channel=1, data=[96, 76]),
   midi.PitchWheelEvent(tick=1, channel=1, data=[64, 77]),
   midi.PitchWheelEvent(tick=1, channel=1, data=[0, 78]),
   midi.PitchWheelEvent(tick=1, channel=1, data=[96, 78]),
   midi.PitchWheelEvent(tick=1, channel=1, data=[64, 79]),
   midi.PitchWheelEvent(tick=1, channel=1, data=[0, 80]),
   midi.PitchWheelEvent(tick=1, channel=1, data=[96, 80]),
   midi.PitchWheelEvent(tick=1, channel=1, data=[64, 81]),
   midi.PitchWheelEvent(tick=1, channel=1, data=[0, 82]),
   midi.PitchWheelEvent(tick=1, channel=1, data=[96, 82]),
   midi.PitchWheelEvent(tick=1, channel=1, data=[64, 83]),
   midi.PitchWheelEvent(tick=1, channel=1, data=[0, 84]),
   midi.PitchWheelEvent(tick=1, channel=1, data=[96, 84]),
   midi.PitchWheelEvent(tick=1, channel=1, data=[32, 85]),
   midi.PitchWheelEvent(tick=1, channel=1, data=[0, 86]),
   midi.PitchWheelEvent(tick=1, channel=1, data=[96, 86]),
   midi.PitchWheelEvent(tick=1, channel=1, data=[32, 87]),
   midi.PitchWheelEvent(tick=1, channel=1, data=[0, 88]),
   midi.PitchWheelEvent(tick=1, channel=1, data=[96, 88]),
   midi.PitchWheelEvent(tick=1, channel=1, data=[32, 89]),
   midi.PitchWheelEvent(tick=1, channel=1, data=[0, 90]),
   midi.PitchWheelEvent(tick=1, channel=1, data=[96, 90]),
   midi.PitchWheelEvent(tick=1, channel=1, data=[32, 91]),
   midi.PitchWheelEvent(tick=1, channel=1, data=[0, 92]),
   midi.PitchWheelEvent(tick=1, channel=1, data=[96, 92]),
   midi.PitchWheelEvent(tick=1, channel=1, data=[32, 93]),
   midi.PitchWheelEvent(tick=1, channel=1, data=[0, 94]),
   midi.PitchWheelEvent(tick=1, channel=1, data=[96, 94]),
   midi.PitchWheelEvent(tick=1, channel=1, data=[32, 95]),
   midi.PitchWheelEvent(tick=1, channel=1, data=[0, 96]),
   midi.PitchWheelEvent(tick=1, channel=1, data=[96, 96]),
   midi.PitchWheelEvent(tick=1, channel=1, data=[32, 97]),
   midi.PitchWheelEvent(tick=1, channel=1, data=[0, 98]),
   midi.PitchWheelEvent(tick=1, channel=1, data=[96, 98]),
   midi.PitchWheelEvent(tick=1, channel=1, data=[32, 99]),
   midi.PitchWheelEvent(tick=1, channel=1, data=[0, 100]),
   midi.PitchWheelEvent(tick=1, channel=1, data=[96, 100]),
   midi.PitchWheelEvent(tick=1, channel=1, data=[32, 101]),
   midi.PitchWheelEvent(tick=1, channel=1, data=[0, 102]),
   midi.PitchWheelEvent(tick=1, channel=1, data=[96, 102]),
   midi.PitchWheelEvent(tick=1, channel=1, data=[32, 103]),
   midi.PitchWheelEvent(tick=1, channel=1, data=[0, 104]),
   midi.PitchWheelEvent(tick=1, channel=1, data=[96, 104]),
   midi.PitchWheelEvent(tick=1, channel=1, data=[32, 105]),
   midi.PitchWheelEvent(tick=1, channel=1, data=[0, 106]),
   midi.PitchWheelEvent(tick=1, channel=1, data=[64, 106]),
   midi.PitchWheelEvent(tick=1, channel=1, data=[32, 107]),
   midi.PitchWheelEvent(tick=1, channel=1, data=[0, 108]),
   midi.PitchWheelEvent(tick=1, channel=1, data=[64, 108]),
   midi.PitchWheelEvent(tick=1, channel=1, data=[32, 109]),
   midi.PitchWheelEvent(tick=1, channel=1, data=[0, 110]),
   midi.PitchWheelEvent(tick=1, channel=1, data=[64, 110]),
   midi.PitchWheelEvent(tick=1, channel=1, data=[32, 111]),
   midi.PitchWheelEvent(tick=1, channel=1, data=[0, 112]),
   midi.PitchWheelEvent(tick=1, channel=1, data=[64, 112]),
   midi.PitchWheelEvent(tick=1, channel=1, data=[32, 113]),
   midi.PitchWheelEvent(tick=1, channel=1, data=[0, 114]),
   midi.PitchWheelEvent(tick=1, channel=1, data=[64, 114]),
   midi.PitchWheelEvent(tick=1, channel=1, data=[32, 115]),
   midi.PitchWheelEvent(tick=1, channel=1, data=[0, 116]),
   midi.PitchWheelEvent(tick=1, channel=1, data=[64, 116]),
   midi.PitchWheelEvent(tick=1, channel=1, data=[32, 117]),
   midi.PitchWheelEvent(tick=1, channel=1, data=[0, 118]),
   midi.PitchWheelEvent(tick=1, channel=1, data=[64, 118]),
   midi.PitchWheelEvent(tick=1, channel=1, data=[32, 119]),
   midi.PitchWheelEvent(tick=1, channel=1, data=[0, 120]),
   midi.PitchWheelEvent(tick=1, channel=1, data=[64, 120]),
   midi.PitchWheelEvent(tick=1, channel=1, data=[32, 121]),
   midi.PitchWheelEvent(tick=1, channel=1, data=[0, 122]),
   midi.PitchWheelEvent(tick=1, channel=1, data=[64, 122]),
   midi.PitchWheelEvent(tick=1, channel=1, data=[32, 123]),
   midi.PitchWheelEvent(tick=1, channel=1, data=[0, 124]),
   midi.PitchWheelEvent(tick=1, channel=1, data=[64, 124]),
   midi.PitchWheelEvent(tick=1, channel=1, data=[32, 125]),
   midi.PitchWheelEvent(tick=1, channel=1, data=[0, 126]),
   midi.PitchWheelEvent(tick=1, channel=1, data=[64, 126]),
   midi.PitchWheelEvent(tick=1, channel=1, data=[32, 127]),
   midi.PitchWheelEvent(tick=1, channel=1, data=[127, 127]),
   midi.PitchWheelEvent(tick=192, channel=1, data=[127, 127]),
   midi.PitchWheelEvent(tick=1, channel=1, data=[31, 127]),
   midi.PitchWheelEvent(tick=1, channel=1, data=[63, 126]),
   midi.PitchWheelEvent(tick=1, channel=1, data=[127, 125]),
   midi.PitchWheelEvent(tick=1, channel=1, data=[31, 125]),
   midi.PitchWheelEvent(tick=1, channel=1, data=[63, 124]),
   midi.PitchWheelEvent(tick=1, channel=1, data=[127, 123]),
   midi.PitchWheelEvent(tick=1, channel=1, data=[31, 123]),
   midi.PitchWheelEvent(tick=1, channel=1, data=[63, 122]),
   midi.PitchWheelEvent(tick=1, channel=1, data=[127, 121]),
   midi.PitchWheelEvent(tick=1, channel=1, data=[31, 121]),
   midi.PitchWheelEvent(tick=1, channel=1, data=[63, 120]),
   midi.PitchWheelEvent(tick=1, channel=1, data=[127, 119]),
   midi.PitchWheelEvent(tick=1, channel=1, data=[31, 119]),
   midi.PitchWheelEvent(tick=1, channel=1, data=[63, 118]),
   midi.PitchWheelEvent(tick=1, channel=1, data=[127, 117]),
   midi.PitchWheelEvent(tick=1, channel=1, data=[31, 117]),
   midi.PitchWheelEvent(tick=1, channel=1, data=[63, 116]),
   midi.PitchWheelEvent(tick=1, channel=1, data=[127, 115]),
   midi.PitchWheelEvent(tick=1, channel=1, data=[31, 115]),
   midi.PitchWheelEvent(tick=1, channel=1, data=[63, 114]),
   midi.PitchWheelEvent(tick=1, channel=1, data=[127, 113]),
   midi.PitchWheelEvent(tick=1, channel=1, data=[31, 113]),
   midi.PitchWheelEvent(tick=1, channel=1, data=[63, 112]),
   midi.PitchWheelEvent(tick=1, channel=1, data=[127, 111]),
   midi.PitchWheelEvent(tick=1, channel=1, data=[31, 111]),
   midi.PitchWheelEvent(tick=1, channel=1, data=[63, 110]),
   midi.PitchWheelEvent(tick=1, channel=1, data=[127, 109]),
   midi.PitchWheelEvent(tick=1, channel=1, data=[31, 109]),
   midi.PitchWheelEvent(tick=1, channel=1, data=[63, 108]),
   midi.PitchWheelEvent(tick=1, channel=1, data=[127, 107]),
   midi.PitchWheelEvent(tick=1, channel=1, data=[31, 107]),
   midi.PitchWheelEvent(tick=1, channel=1, data=[95, 106]),
   midi.PitchWheelEvent(tick=1, channel=1, data=[127, 105]),
   midi.PitchWheelEvent(tick=1, channel=1, data=[31, 105]),
   midi.PitchWheelEvent(tick=1, channel=1, data=[95, 104]),
   midi.PitchWheelEvent(tick=1, channel=1, data=[127, 103]),
   midi.PitchWheelEvent(tick=1, channel=1, data=[31, 103]),
   midi.PitchWheelEvent(tick=1, channel=1, data=[95, 102]),
   midi.PitchWheelEvent(tick=1, channel=1, data=[127, 101]),
   midi.PitchWheelEvent(tick=1, channel=1, data=[31, 101]),
   midi.PitchWheelEvent(tick=1, channel=1, data=[95, 100]),
   midi.PitchWheelEvent(tick=1, channel=1, data=[127, 99]),
   midi.PitchWheelEvent(tick=1, channel=1, data=[31, 99]),
   midi.PitchWheelEvent(tick=1, channel=1, data=[95, 98]),
   midi.PitchWheelEvent(tick=1, channel=1, data=[127, 97]),
   midi.PitchWheelEvent(tick=1, channel=1, data=[31, 97]),
   midi.PitchWheelEvent(tick=1, channel=1, data=[95, 96]),
   midi.PitchWheelEvent(tick=1, channel=1, data=[127, 95]),
   midi.PitchWheelEvent(tick=1, channel=1, data=[31, 95]),
   midi.PitchWheelEvent(tick=1, channel=1, data=[95, 94]),
   midi.PitchWheelEvent(tick=1, channel=1, data=[127, 93]),
   midi.PitchWheelEvent(tick=1, channel=1, data=[31, 93]),
   midi.PitchWheelEvent(tick=1, channel=1, data=[95, 92]),
   midi.PitchWheelEvent(tick=1, channel=1, data=[127, 91]),
   midi.PitchWheelEvent(tick=1, channel=1, data=[31, 91]),
   midi.PitchWheelEvent(tick=1, channel=1, data=[95, 90]),
   midi.PitchWheelEvent(tick=1, channel=1, data=[127, 89]),
   midi.PitchWheelEvent(tick=1, channel=1, data=[31, 89]),
   midi.PitchWheelEvent(tick=1, channel=1, data=[95, 88]),
   midi.PitchWheelEvent(tick=1, channel=1, data=[127, 87]),
   midi.PitchWheelEvent(tick=1, channel=1, data=[31, 87]),
   midi.PitchWheelEvent(tick=1, channel=1, data=[95, 86]),
   midi.PitchWheelEvent(tick=1, channel=1, data=[127, 85]),
   midi.PitchWheelEvent(tick=1, channel=1, data=[63, 85]),
   midi.PitchWheelEvent(tick=1, channel=1, data=[95, 84]),
   midi.PitchWheelEvent(tick=1, channel=1, data=[127, 83]),
   midi.PitchWheelEvent(tick=1, channel=1, data=[63, 83]),
   midi.PitchWheelEvent(tick=1, channel=1, data=[95, 82]),
   midi.PitchWheelEvent(tick=1, channel=1, data=[127, 81]),
   midi.PitchWheelEvent(tick=1, channel=1, data=[63, 81]),
   midi.PitchWheelEvent(tick=1, channel=1, data=[95, 80]),
   midi.PitchWheelEvent(tick=1, channel=1, data=[127, 79]),
   midi.PitchWheelEvent(tick=1, channel=1, data=[63, 79]),
   midi.PitchWheelEvent(tick=1, channel=1, data=[95, 78]),
   midi.PitchWheelEvent(tick=1, channel=1, data=[127, 77]),
   midi.PitchWheelEvent(tick=1, channel=1, data=[63, 77]),
   midi.PitchWheelEvent(tick=1, channel=1, data=[95, 76]),
   midi.PitchWheelEvent(tick=1, channel=1, data=[127, 75]),
   midi.PitchWheelEvent(tick=1, channel=1, data=[63, 75]),
   midi.PitchWheelEvent(tick=1, channel=1, data=[95, 74]),
   midi.PitchWheelEvent(tick=1, channel=1, data=[127, 73]),
   midi.PitchWheelEvent(tick=1, channel=1, data=[63, 73]),
   midi.PitchWheelEvent(tick=1, channel=1, data=[95, 72]),
   midi.PitchWheelEvent(tick=1, channel=1, data=[127, 71]),
   midi.PitchWheelEvent(tick=1, channel=1, data=[63, 71]),
   midi.PitchWheelEvent(tick=1, channel=1, data=[95, 70]),
   midi.PitchWheelEvent(tick=1, channel=1, data=[127, 69]),
   midi.PitchWheelEvent(tick=1, channel=1, data=[63, 69]),
   midi.PitchWheelEvent(tick=1, channel=1, data=[95, 68]),
   midi.PitchWheelEvent(tick=1, channel=1, data=[127, 67]),
   midi.PitchWheelEvent(tick=1, channel=1, data=[63, 67]),
   midi.PitchWheelEvent(tick=1, channel=1, data=[95, 66]),
   midi.PitchWheelEvent(tick=1, channel=1, data=[127, 65]),
   midi.PitchWheelEvent(tick=1, channel=1, data=[63, 65]),
   midi.NoteOnEvent(tick=0, channel=1, data=[91, 0]),
   midi.PitchWheelEvent(tick=1, channel=1, data=[95, 64]),
   midi.PitchWheelEvent(tick=1, channel=1, data=[0, 64]),
   midi.NoteOnEvent(tick=0, channel=1, data=[91, 110]),
   midi.NoteOnEvent(tick=62, channel=1, data=[91, 0]),
   midi.NoteOnEvent(tick=2, channel=1, data=[88, 110]),
   midi.NoteOnEvent(tick=62, channel=1, data=[88, 0]),
   midi.NoteOnEvent(tick=2, channel=1, data=[86, 110]),
   midi.NoteOnEvent(tick=62, channel=1, data=[86, 0]),
   midi.NoteOnEvent(tick=2, channel=1, data=[88, 110]),
   midi.NoteOnEvent(tick=62, channel=1, data=[88, 0]),
   midi.NoteOnEvent(tick=2, channel=1, data=[86, 110]),
   midi.NoteOnEvent(tick=62, channel=1, data=[86, 0]),
   midi.NoteOnEvent(tick=2, channel=1, data=[83, 110]),
   midi.NoteOnEvent(tick=62, channel=1, data=[83, 0]),
   midi.NoteOnEvent(tick=2, channel=1, data=[86, 110]),
   midi.NoteOnEvent(tick=62, channel=1, data=[86, 0]),
   midi.NoteOnEvent(tick=2, channel=1, data=[83, 110]),
   midi.NoteOnEvent(tick=62, channel=1, data=[83, 0]),
   midi.NoteOnEvent(tick=2, channel=1, data=[81, 110]),
   midi.NoteOnEvent(tick=62, channel=1, data=[81, 0]),
   midi.NoteOnEvent(tick=2, channel=1, data=[83, 110]),
   midi.NoteOnEvent(tick=62, channel=1, data=[83, 0]),
   midi.NoteOnEvent(tick=2, channel=1, data=[81, 110]),
   midi.NoteOnEvent(tick=62, channel=1, data=[81, 0]),
   midi.NoteOnEvent(tick=2, channel=1, data=[90, 110]),
   midi.NoteOnEvent(tick=62, channel=1, data=[90, 0]),
   midi.NoteOnEvent(tick=2, channel=1, data=[93, 110]),
   midi.NoteOnEvent(tick=62, channel=1, data=[93, 0]),
   midi.NoteOnEvent(tick=2, channel=1, data=[91, 110]),
   midi.NoteOnEvent(tick=62, channel=1, data=[91, 0]),
   midi.NoteOnEvent(tick=2, channel=1, data=[90, 110]),
   midi.NoteOnEvent(tick=62, channel=1, data=[90, 0]),
   midi.NoteOnEvent(tick=2, channel=1, data=[91, 110]),
   midi.NoteOnEvent(tick=62, channel=1, data=[91, 0]),
   midi.NoteOnEvent(tick=2, channel=1, data=[90, 110]),
   midi.NoteOnEvent(tick=62, channel=1, data=[90, 0]),
   midi.NoteOnEvent(tick=2, channel=1, data=[88, 110]),
   midi.NoteOnEvent(tick=62, channel=1, data=[88, 0]),
   midi.NoteOnEvent(tick=2, channel=1, data=[90, 110]),
   midi.NoteOnEvent(tick=62, channel=1, data=[90, 0]),
   midi.NoteOnEvent(tick=2, channel=1, data=[88, 110]),
   midi.NoteOnEvent(tick=62, channel=1, data=[88, 0]),
   midi.NoteOnEvent(tick=2, channel=1, data=[86, 110]),
   midi.NoteOnEvent(tick=62, channel=1, data=[86, 0]),
   midi.NoteOnEvent(tick=2, channel=1, data=[88, 110]),
   midi.NoteOnEvent(tick=62, channel=1, data=[88, 0]),
   midi.NoteOnEvent(tick=2, channel=1, data=[86, 110]),
   midi.NoteOnEvent(tick=62, channel=1, data=[86, 0]),
   midi.NoteOnEvent(tick=2, channel=1, data=[85, 110]),
   midi.NoteOnEvent(tick=62, channel=1, data=[85, 0]),
   midi.NoteOnEvent(tick=2, channel=1, data=[95, 110]),
   midi.NoteOnEvent(tick=62, channel=1, data=[95, 0]),
   midi.NoteOnEvent(tick=2, channel=1, data=[93, 110]),
   midi.NoteOnEvent(tick=62, channel=1, data=[93, 0]),
   midi.NoteOnEvent(tick=2, channel=1, data=[91, 110]),
   midi.NoteOnEvent(tick=62, channel=1, data=[91, 0]),
   midi.NoteOnEvent(tick=2, channel=1, data=[90, 110]),
   midi.NoteOnEvent(tick=62, channel=1, data=[90, 0]),
   midi.NoteOnEvent(tick=2, channel=1, data=[88, 110]),
   midi.NoteOnEvent(tick=62, channel=1, data=[88, 0]),
   midi.NoteOnEvent(tick=2, channel=1, data=[87, 110]),
   midi.NoteOnEvent(tick=62, channel=1, data=[87, 0]),
   midi.NoteOnEvent(tick=2, channel=1, data=[97, 110]),
   midi.NoteOnEvent(tick=62, channel=1, data=[97, 0]),
   midi.NoteOnEvent(tick=2, channel=1, data=[95, 110]),
   midi.NoteOnEvent(tick=62, channel=1, data=[95, 0]),
   midi.NoteOnEvent(tick=2, channel=1, data=[93, 110]),
   midi.NoteOnEvent(tick=62, channel=1, data=[93, 0]),
   midi.NoteOnEvent(tick=2, channel=1, data=[92, 110]),
   midi.NoteOnEvent(tick=62, channel=1, data=[92, 0]),
   midi.NoteOnEvent(tick=2, channel=1, data=[90, 110]),
   midi.NoteOnEvent(tick=62, channel=1, data=[90, 0]),
   midi.NoteOnEvent(tick=2, channel=1, data=[88, 110]),
   midi.NoteOnEvent(tick=62, channel=1, data=[88, 0]),
   midi.NoteOnEvent(tick=2, channel=1, data=[98, 110]),
   midi.NoteOnEvent(tick=62, channel=1, data=[98, 0]),
   midi.NoteOnEvent(tick=2, channel=1, data=[97, 110]),
   midi.NoteOnEvent(tick=62, channel=1, data=[97, 0]),
   midi.NoteOnEvent(tick=2, channel=1, data=[95, 110]),
   midi.NoteOnEvent(tick=62, channel=1, data=[95, 0]),
   midi.NoteOnEvent(tick=2, channel=1, data=[93, 110]),
   midi.NoteOnEvent(tick=62, channel=1, data=[93, 0]),
   midi.NoteOnEvent(tick=2, channel=1, data=[92, 110]),
   midi.NoteOnEvent(tick=62, channel=1, data=[92, 0]),
   midi.NoteOnEvent(tick=2, channel=1, data=[90, 110]),
   midi.NoteOnEvent(tick=62, channel=1, data=[90, 0]),
   midi.PitchWheelEvent(tick=2, channel=1, data=[0, 64]),
   midi.NoteOnEvent(tick=0, channel=1, data=[98, 110]),
   midi.PitchWheelEvent(tick=1, channel=1, data=[96, 64]),
   midi.PitchWheelEvent(tick=1, channel=1, data=[64, 65]),
   midi.PitchWheelEvent(tick=1, channel=1, data=[0, 66]),
   midi.PitchWheelEvent(tick=1, channel=1, data=[96, 66]),
   midi.PitchWheelEvent(tick=1, channel=1, data=[64, 67]),
   midi.PitchWheelEvent(tick=1, channel=1, data=[0, 68]),
   midi.PitchWheelEvent(tick=1, channel=1, data=[96, 68]),
   midi.PitchWheelEvent(tick=1, channel=1, data=[64, 69]),
   midi.PitchWheelEvent(tick=1, channel=1, data=[0, 70]),
   midi.PitchWheelEvent(tick=1, channel=1, data=[96, 70]),
   midi.PitchWheelEvent(tick=1, channel=1, data=[64, 71]),
   midi.PitchWheelEvent(tick=1, channel=1, data=[0, 72]),
   midi.PitchWheelEvent(tick=1, channel=1, data=[96, 72]),
   midi.PitchWheelEvent(tick=1, channel=1, data=[64, 73]),
   midi.PitchWheelEvent(tick=1, channel=1, data=[0, 74]),
   midi.PitchWheelEvent(tick=1, channel=1, data=[96, 74]),
   midi.PitchWheelEvent(tick=1, channel=1, data=[64, 75]),
   midi.PitchWheelEvent(tick=1, channel=1, data=[0, 76]),
   midi.PitchWheelEvent(tick=1, channel=1, data=[96, 76]),
   midi.PitchWheelEvent(tick=1, channel=1, data=[64, 77]),
   midi.PitchWheelEvent(tick=1, channel=1, data=[0, 78]),
   midi.PitchWheelEvent(tick=1, channel=1, data=[96, 78]),
   midi.PitchWheelEvent(tick=1, channel=1, data=[64, 79]),
   midi.PitchWheelEvent(tick=1, channel=1, data=[0, 80]),
   midi.PitchWheelEvent(tick=1, channel=1, data=[96, 80]),
   midi.PitchWheelEvent(tick=1, channel=1, data=[64, 81]),
   midi.PitchWheelEvent(tick=1, channel=1, data=[0, 82]),
   midi.PitchWheelEvent(tick=1, channel=1, data=[96, 82]),
   midi.PitchWheelEvent(tick=1, channel=1, data=[64, 83]),
   midi.PitchWheelEvent(tick=1, channel=1, data=[0, 84]),
   midi.PitchWheelEvent(tick=1, channel=1, data=[96, 84]),
   midi.PitchWheelEvent(tick=1, channel=1, data=[32, 85]),
   midi.PitchWheelEvent(tick=1, channel=1, data=[0, 86]),
   midi.PitchWheelEvent(tick=1, channel=1, data=[96, 86]),
   midi.PitchWheelEvent(tick=1, channel=1, data=[32, 87]),
   midi.PitchWheelEvent(tick=1, channel=1, data=[0, 88]),
   midi.PitchWheelEvent(tick=1, channel=1, data=[96, 88]),
   midi.PitchWheelEvent(tick=1, channel=1, data=[32, 89]),
   midi.PitchWheelEvent(tick=1, channel=1, data=[0, 90]),
   midi.PitchWheelEvent(tick=1, channel=1, data=[96, 90]),
   midi.PitchWheelEvent(tick=1, channel=1, data=[32, 91]),
   midi.PitchWheelEvent(tick=1, channel=1, data=[0, 92]),
   midi.PitchWheelEvent(tick=1, channel=1, data=[96, 92]),
   midi.PitchWheelEvent(tick=1, channel=1, data=[32, 93]),
   midi.PitchWheelEvent(tick=1, channel=1, data=[0, 94]),
   midi.PitchWheelEvent(tick=1, channel=1, data=[96, 94]),
   midi.PitchWheelEvent(tick=1, channel=1, data=[32, 95]),
   midi.PitchWheelEvent(tick=1, channel=1, data=[0, 96]),
   midi.PitchWheelEvent(tick=1, channel=1, data=[96, 96]),
   midi.PitchWheelEvent(tick=1, channel=1, data=[32, 97]),
   midi.PitchWheelEvent(tick=1, channel=1, data=[0, 98]),
   midi.PitchWheelEvent(tick=1, channel=1, data=[96, 98]),
   midi.PitchWheelEvent(tick=1, channel=1, data=[32, 99]),
   midi.PitchWheelEvent(tick=1, channel=1, data=[0, 100]),
   midi.PitchWheelEvent(tick=1, channel=1, data=[96, 100]),
   midi.PitchWheelEvent(tick=1, channel=1, data=[32, 101]),
   midi.PitchWheelEvent(tick=1, channel=1, data=[0, 102]),
   midi.PitchWheelEvent(tick=1, channel=1, data=[96, 102]),
   midi.PitchWheelEvent(tick=1, channel=1, data=[32, 103]),
   midi.PitchWheelEvent(tick=1, channel=1, data=[0, 104]),
   midi.PitchWheelEvent(tick=1, channel=1, data=[96, 104]),
   midi.PitchWheelEvent(tick=1, channel=1, data=[32, 105]),
   midi.PitchWheelEvent(tick=1, channel=1, data=[0, 106]),
   midi.PitchWheelEvent(tick=1, channel=1, data=[64, 106]),
   midi.PitchWheelEvent(tick=1, channel=1, data=[32, 107]),
   midi.PitchWheelEvent(tick=1, channel=1, data=[0, 108]),
   midi.PitchWheelEvent(tick=1, channel=1, data=[64, 108]),
   midi.PitchWheelEvent(tick=1, channel=1, data=[32, 109]),
   midi.PitchWheelEvent(tick=1, channel=1, data=[0, 110]),
   midi.PitchWheelEvent(tick=1, channel=1, data=[64, 110]),
   midi.PitchWheelEvent(tick=1, channel=1, data=[32, 111]),
   midi.PitchWheelEvent(tick=1, channel=1, data=[0, 112]),
   midi.PitchWheelEvent(tick=1, channel=1, data=[64, 112]),
   midi.PitchWheelEvent(tick=1, channel=1, data=[32, 113]),
   midi.PitchWheelEvent(tick=1, channel=1, data=[0, 114]),
   midi.PitchWheelEvent(tick=1, channel=1, data=[64, 114]),
   midi.PitchWheelEvent(tick=1, channel=1, data=[32, 115]),
   midi.PitchWheelEvent(tick=1, channel=1, data=[0, 116]),
   midi.PitchWheelEvent(tick=1, channel=1, data=[64, 116]),
   midi.PitchWheelEvent(tick=1, channel=1, data=[32, 117]),
   midi.PitchWheelEvent(tick=1, channel=1, data=[0, 118]),
   midi.PitchWheelEvent(tick=1, channel=1, data=[64, 118]),
   midi.PitchWheelEvent(tick=1, channel=1, data=[32, 119]),
   midi.PitchWheelEvent(tick=1, channel=1, data=[0, 120]),
   midi.PitchWheelEvent(tick=1, channel=1, data=[64, 120]),
   midi.PitchWheelEvent(tick=1, channel=1, data=[32, 121]),
   midi.PitchWheelEvent(tick=1, channel=1, data=[0, 122]),
   midi.PitchWheelEvent(tick=1, channel=1, data=[64, 122]),
   midi.PitchWheelEvent(tick=1, channel=1, data=[32, 123]),
   midi.PitchWheelEvent(tick=1, channel=1, data=[0, 124]),
   midi.PitchWheelEvent(tick=1, channel=1, data=[64, 124]),
   midi.PitchWheelEvent(tick=1, channel=1, data=[32, 125]),
   midi.PitchWheelEvent(tick=1, channel=1, data=[0, 126]),
   midi.PitchWheelEvent(tick=1, channel=1, data=[64, 126]),
   midi.PitchWheelEvent(tick=1, channel=1, data=[32, 127]),
   midi.PitchWheelEvent(tick=1, channel=1, data=[127, 127]),
   midi.NoteOnEvent(tick=64, channel=1, data=[98, 0]),
   midi.PitchWheelEvent(tick=32, channel=1, data=[0, 64]),
   midi.PitchWheelEvent(tick=0, channel=1, data=[0, 64]),
   midi.NoteOnEvent(tick=0, channel=1, data=[98, 110]),
   midi.PitchWheelEvent(tick=1, channel=1, data=[96, 64]),
   midi.PitchWheelEvent(tick=1, channel=1, data=[64, 65]),
   midi.PitchWheelEvent(tick=1, channel=1, data=[0, 66]),
   midi.PitchWheelEvent(tick=1, channel=1, data=[96, 66]),
   midi.PitchWheelEvent(tick=1, channel=1, data=[64, 67]),
   midi.PitchWheelEvent(tick=1, channel=1, data=[0, 68]),
   midi.PitchWheelEvent(tick=1, channel=1, data=[96, 68]),
   midi.PitchWheelEvent(tick=1, channel=1, data=[64, 69]),
   midi.PitchWheelEvent(tick=1, channel=1, data=[0, 70]),
   midi.PitchWheelEvent(tick=1, channel=1, data=[96, 70]),
   midi.PitchWheelEvent(tick=1, channel=1, data=[64, 71]),
   midi.PitchWheelEvent(tick=1, channel=1, data=[0, 72]),
   midi.PitchWheelEvent(tick=1, channel=1, data=[96, 72]),
   midi.PitchWheelEvent(tick=1, channel=1, data=[64, 73]),
   midi.PitchWheelEvent(tick=1, channel=1, data=[0, 74]),
   midi.PitchWheelEvent(tick=1, channel=1, data=[96, 74]),
   midi.PitchWheelEvent(tick=1, channel=1, data=[64, 75]),
   midi.PitchWheelEvent(tick=1, channel=1, data=[0, 76]),
   midi.PitchWheelEvent(tick=1, channel=1, data=[96, 76]),
   midi.PitchWheelEvent(tick=1, channel=1, data=[64, 77]),
   midi.PitchWheelEvent(tick=1, channel=1, data=[0, 78]),
   midi.PitchWheelEvent(tick=1, channel=1, data=[96, 78]),
   midi.PitchWheelEvent(tick=1, channel=1, data=[64, 79]),
   midi.PitchWheelEvent(tick=1, channel=1, data=[0, 80]),
   midi.PitchWheelEvent(tick=1, channel=1, data=[96, 80]),
   midi.PitchWheelEvent(tick=1, channel=1, data=[64, 81]),
   midi.PitchWheelEvent(tick=1, channel=1, data=[0, 82]),
   midi.PitchWheelEvent(tick=1, channel=1, data=[96, 82]),
   midi.PitchWheelEvent(tick=1, channel=1, data=[64, 83]),
   midi.PitchWheelEvent(tick=1, channel=1, data=[0, 84]),
   midi.PitchWheelEvent(tick=1, channel=1, data=[96, 84]),
   midi.PitchWheelEvent(tick=1, channel=1, data=[32, 85]),
   midi.PitchWheelEvent(tick=1, channel=1, data=[0, 86]),
   midi.PitchWheelEvent(tick=1, channel=1, data=[96, 86]),
   midi.PitchWheelEvent(tick=1, channel=1, data=[32, 87]),
   midi.PitchWheelEvent(tick=1, channel=1, data=[0, 88]),
   midi.PitchWheelEvent(tick=1, channel=1, data=[96, 88]),
   midi.PitchWheelEvent(tick=1, channel=1, data=[32, 89]),
   midi.PitchWheelEvent(tick=1, channel=1, data=[0, 90]),
   midi.PitchWheelEvent(tick=1, channel=1, data=[96, 90]),
   midi.PitchWheelEvent(tick=1, channel=1, data=[32, 91]),
   midi.PitchWheelEvent(tick=1, channel=1, data=[0, 92]),
   midi.PitchWheelEvent(tick=1, channel=1, data=[96, 92]),
   midi.PitchWheelEvent(tick=1, channel=1, data=[32, 93]),
   midi.PitchWheelEvent(tick=1, channel=1, data=[0, 94]),
   midi.PitchWheelEvent(tick=1, channel=1, data=[96, 94]),
   midi.PitchWheelEvent(tick=1, channel=1, data=[32, 95]),
   midi.PitchWheelEvent(tick=1, channel=1, data=[0, 96]),
   midi.PitchWheelEvent(tick=1, channel=1, data=[96, 96]),
   midi.PitchWheelEvent(tick=1, channel=1, data=[32, 97]),
   midi.PitchWheelEvent(tick=1, channel=1, data=[0, 98]),
   midi.PitchWheelEvent(tick=1, channel=1, data=[96, 98]),
   midi.PitchWheelEvent(tick=1, channel=1, data=[32, 99]),
   midi.PitchWheelEvent(tick=1, channel=1, data=[0, 100]),
   midi.PitchWheelEvent(tick=1, channel=1, data=[96, 100]),
   midi.PitchWheelEvent(tick=1, channel=1, data=[32, 101]),
   midi.PitchWheelEvent(tick=1, channel=1, data=[0, 102]),
   midi.PitchWheelEvent(tick=1, channel=1, data=[96, 102]),
   midi.PitchWheelEvent(tick=1, channel=1, data=[32, 103]),
   midi.PitchWheelEvent(tick=1, channel=1, data=[0, 104]),
   midi.PitchWheelEvent(tick=1, channel=1, data=[96, 104]),
   midi.PitchWheelEvent(tick=1, channel=1, data=[32, 105]),
   midi.PitchWheelEvent(tick=1, channel=1, data=[0, 106]),
   midi.PitchWheelEvent(tick=1, channel=1, data=[64, 106]),
   midi.PitchWheelEvent(tick=1, channel=1, data=[32, 107]),
   midi.PitchWheelEvent(tick=1, channel=1, data=[0, 108]),
   midi.PitchWheelEvent(tick=1, channel=1, data=[64, 108]),
   midi.PitchWheelEvent(tick=1, channel=1, data=[32, 109]),
   midi.PitchWheelEvent(tick=1, channel=1, data=[0, 110]),
   midi.PitchWheelEvent(tick=1, channel=1, data=[64, 110]),
   midi.PitchWheelEvent(tick=1, channel=1, data=[32, 111]),
   midi.PitchWheelEvent(tick=1, channel=1, data=[0, 112]),
   midi.PitchWheelEvent(tick=1, channel=1, data=[64, 112]),
   midi.PitchWheelEvent(tick=1, channel=1, data=[32, 113]),
   midi.PitchWheelEvent(tick=1, channel=1, data=[0, 114]),
   midi.PitchWheelEvent(tick=1, channel=1, data=[64, 114]),
   midi.PitchWheelEvent(tick=1, channel=1, data=[32, 115]),
   midi.PitchWheelEvent(tick=1, channel=1, data=[0, 116]),
   midi.PitchWheelEvent(tick=1, channel=1, data=[64, 116]),
   midi.PitchWheelEvent(tick=1, channel=1, data=[32, 117]),
   midi.PitchWheelEvent(tick=1, channel=1, data=[0, 118]),
   midi.PitchWheelEvent(tick=1, channel=1, data=[64, 118]),
   midi.PitchWheelEvent(tick=1, channel=1, data=[32, 119]),
   midi.PitchWheelEvent(tick=1, channel=1, data=[0, 120]),
   midi.PitchWheelEvent(tick=1, channel=1, data=[64, 120]),
   midi.PitchWheelEvent(tick=1, channel=1, data=[32, 121]),
   midi.PitchWheelEvent(tick=1, channel=1, data=[0, 122]),
   midi.PitchWheelEvent(tick=1, channel=1, data=[64, 122]),
   midi.PitchWheelEvent(tick=1, channel=1, data=[32, 123]),
   midi.PitchWheelEvent(tick=1, channel=1, data=[0, 124]),
   midi.PitchWheelEvent(tick=1, channel=1, data=[64, 124]),
   midi.PitchWheelEvent(tick=1, channel=1, data=[32, 125]),
   midi.PitchWheelEvent(tick=1, channel=1, data=[0, 126]),
   midi.PitchWheelEvent(tick=1, channel=1, data=[64, 126]),
   midi.PitchWheelEvent(tick=1, channel=1, data=[32, 127]),
   midi.PitchWheelEvent(tick=1, channel=1, data=[127, 127]),
   midi.NoteOnEvent(tick=64, channel=1, data=[98, 0]),
   midi.PitchWheelEvent(tick=32, channel=1, data=[0, 64]),
   midi.PitchWheelEvent(tick=0, channel=1, data=[0, 64]),
   midi.NoteOnEvent(tick=0, channel=1, data=[98, 110]),
   midi.PitchWheelEvent(tick=1, channel=1, data=[96, 64]),
   midi.PitchWheelEvent(tick=1, channel=1, data=[64, 65]),
   midi.PitchWheelEvent(tick=1, channel=1, data=[0, 66]),
   midi.PitchWheelEvent(tick=1, channel=1, data=[96, 66]),
   midi.PitchWheelEvent(tick=1, channel=1, data=[64, 67]),
   midi.PitchWheelEvent(tick=1, channel=1, data=[0, 68]),
   midi.PitchWheelEvent(tick=1, channel=1, data=[96, 68]),
   midi.PitchWheelEvent(tick=1, channel=1, data=[64, 69]),
   midi.PitchWheelEvent(tick=1, channel=1, data=[0, 70]),
   midi.PitchWheelEvent(tick=1, channel=1, data=[96, 70]),
   midi.PitchWheelEvent(tick=1, channel=1, data=[64, 71]),
   midi.PitchWheelEvent(tick=1, channel=1, data=[0, 72]),
   midi.PitchWheelEvent(tick=1, channel=1, data=[96, 72]),
   midi.PitchWheelEvent(tick=1, channel=1, data=[64, 73]),
   midi.PitchWheelEvent(tick=1, channel=1, data=[0, 74]),
   midi.PitchWheelEvent(tick=1, channel=1, data=[96, 74]),
   midi.PitchWheelEvent(tick=1, channel=1, data=[64, 75]),
   midi.PitchWheelEvent(tick=1, channel=1, data=[0, 76]),
   midi.PitchWheelEvent(tick=1, channel=1, data=[96, 76]),
   midi.PitchWheelEvent(tick=1, channel=1, data=[64, 77]),
   midi.PitchWheelEvent(tick=1, channel=1, data=[0, 78]),
   midi.PitchWheelEvent(tick=1, channel=1, data=[96, 78]),
   midi.PitchWheelEvent(tick=1, channel=1, data=[64, 79]),
   midi.PitchWheelEvent(tick=1, channel=1, data=[0, 80]),
   midi.PitchWheelEvent(tick=1, channel=1, data=[96, 80]),
   midi.PitchWheelEvent(tick=1, channel=1, data=[64, 81]),
   midi.PitchWheelEvent(tick=1, channel=1, data=[0, 82]),
   midi.PitchWheelEvent(tick=1, channel=1, data=[96, 82]),
   midi.PitchWheelEvent(tick=1, channel=1, data=[64, 83]),
   midi.PitchWheelEvent(tick=1, channel=1, data=[0, 84]),
   midi.PitchWheelEvent(tick=1, channel=1, data=[96, 84]),
   midi.PitchWheelEvent(tick=1, channel=1, data=[32, 85]),
   midi.PitchWheelEvent(tick=1, channel=1, data=[0, 86]),
   midi.PitchWheelEvent(tick=1, channel=1, data=[96, 86]),
   midi.PitchWheelEvent(tick=1, channel=1, data=[32, 87]),
   midi.PitchWheelEvent(tick=1, channel=1, data=[0, 88]),
   midi.PitchWheelEvent(tick=1, channel=1, data=[96, 88]),
   midi.PitchWheelEvent(tick=1, channel=1, data=[32, 89]),
   midi.PitchWheelEvent(tick=1, channel=1, data=[0, 90]),
   midi.PitchWheelEvent(tick=1, channel=1, data=[96, 90]),
   midi.PitchWheelEvent(tick=1, channel=1, data=[32, 91]),
   midi.PitchWheelEvent(tick=1, channel=1, data=[0, 92]),
   midi.PitchWheelEvent(tick=1, channel=1, data=[96, 92]),
   midi.PitchWheelEvent(tick=1, channel=1, data=[32, 93]),
   midi.PitchWheelEvent(tick=1, channel=1, data=[0, 94]),
   midi.PitchWheelEvent(tick=1, channel=1, data=[96, 94]),
   midi.PitchWheelEvent(tick=1, channel=1, data=[32, 95]),
   midi.PitchWheelEvent(tick=1, channel=1, data=[0, 96]),
   midi.PitchWheelEvent(tick=1, channel=1, data=[96, 96]),
   midi.PitchWheelEvent(tick=1, channel=1, data=[32, 97]),
   midi.PitchWheelEvent(tick=1, channel=1, data=[0, 98]),
   midi.PitchWheelEvent(tick=1, channel=1, data=[96, 98]),
   midi.PitchWheelEvent(tick=1, channel=1, data=[32, 99]),
   midi.PitchWheelEvent(tick=1, channel=1, data=[0, 100]),
   midi.PitchWheelEvent(tick=1, channel=1, data=[96, 100]),
   midi.PitchWheelEvent(tick=1, channel=1, data=[32, 101]),
   midi.PitchWheelEvent(tick=1, channel=1, data=[0, 102]),
   midi.PitchWheelEvent(tick=1, channel=1, data=[96, 102]),
   midi.PitchWheelEvent(tick=1, channel=1, data=[32, 103]),
   midi.PitchWheelEvent(tick=1, channel=1, data=[0, 104]),
   midi.PitchWheelEvent(tick=1, channel=1, data=[96, 104]),
   midi.PitchWheelEvent(tick=1, channel=1, data=[32, 105]),
   midi.PitchWheelEvent(tick=1, channel=1, data=[0, 106]),
   midi.PitchWheelEvent(tick=1, channel=1, data=[64, 106]),
   midi.PitchWheelEvent(tick=1, channel=1, data=[32, 107]),
   midi.PitchWheelEvent(tick=1, channel=1, data=[0, 108]),
   midi.PitchWheelEvent(tick=1, channel=1, data=[64, 108]),
   midi.PitchWheelEvent(tick=1, channel=1, data=[32, 109]),
   midi.PitchWheelEvent(tick=1, channel=1, data=[0, 110]),
   midi.PitchWheelEvent(tick=1, channel=1, data=[64, 110]),
   midi.PitchWheelEvent(tick=1, channel=1, data=[32, 111]),
   midi.PitchWheelEvent(tick=1, channel=1, data=[0, 112]),
   midi.PitchWheelEvent(tick=1, channel=1, data=[64, 112]),
   midi.PitchWheelEvent(tick=1, channel=1, data=[32, 113]),
   midi.PitchWheelEvent(tick=1, channel=1, data=[0, 114]),
   midi.PitchWheelEvent(tick=1, channel=1, data=[64, 114]),
   midi.PitchWheelEvent(tick=1, channel=1, data=[32, 115]),
   midi.PitchWheelEvent(tick=1, channel=1, data=[0, 116]),
   midi.PitchWheelEvent(tick=1, channel=1, data=[64, 116]),
   midi.PitchWheelEvent(tick=1, channel=1, data=[32, 117]),
   midi.PitchWheelEvent(tick=1, channel=1, data=[0, 118]),
   midi.PitchWheelEvent(tick=1, channel=1, data=[64, 118]),
   midi.PitchWheelEvent(tick=1, channel=1, data=[32, 119]),
   midi.PitchWheelEvent(tick=1, channel=1, data=[0, 120]),
   midi.PitchWheelEvent(tick=1, channel=1, data=[64, 120]),
   midi.PitchWheelEvent(tick=1, channel=1, data=[32, 121]),
   midi.PitchWheelEvent(tick=1, channel=1, data=[0, 122]),
   midi.PitchWheelEvent(tick=1, channel=1, data=[64, 122]),
   midi.PitchWheelEvent(tick=1, channel=1, data=[32, 123]),
   midi.PitchWheelEvent(tick=1, channel=1, data=[0, 124]),
   midi.PitchWheelEvent(tick=1, channel=1, data=[64, 124]),
   midi.PitchWheelEvent(tick=1, channel=1, data=[32, 125]),
   midi.PitchWheelEvent(tick=1, channel=1, data=[0, 126]),
   midi.PitchWheelEvent(tick=1, channel=1, data=[64, 126]),
   midi.PitchWheelEvent(tick=1, channel=1, data=[32, 127]),
   midi.PitchWheelEvent(tick=1, channel=1, data=[127, 127]),
   midi.NoteOnEvent(tick=64, channel=1, data=[98, 0]),
   midi.PitchWheelEvent(tick=32, channel=1, data=[0, 64]),
   midi.NoteOnEvent(tick=576, channel=1, data=[52, 110]),
   midi.NoteOnEvent(tick=0, channel=1, data=[62, 110]),
   midi.NoteOnEvent(tick=160, channel=1, data=[52, 0]),
   midi.NoteOnEvent(tick=0, channel=1, data=[62, 0]),
   midi.NoteOnEvent(tick=32, channel=1, data=[52, 110]),
   midi.NoteOnEvent(tick=94, channel=1, data=[52, 0]),
   midi.NoteOnEvent(tick=2, channel=1, data=[52, 110]),
   midi.NoteOnEvent(tick=94, channel=1, data=[52, 0]),
   midi.NoteOnEvent(tick=2, channel=1, data=[52, 110]),
   midi.NoteOnEvent(tick=0, channel=1, data=[61, 110]),
   midi.NoteOnEvent(tick=94, channel=1, data=[52, 0]),
   midi.NoteOnEvent(tick=0, channel=1, data=[61, 0]),
   midi.NoteOnEvent(tick=2, channel=1, data=[64, 110]),
   midi.NoteOnEvent(tick=94, channel=1, data=[64, 0]),
   midi.NoteOnEvent(tick=2, channel=1, data=[52, 110]),
   midi.NoteOnEvent(tick=94, channel=1, data=[52, 0]),
   midi.NoteOnEvent(tick=2, channel=1, data=[52, 110]),
   midi.NoteOnEvent(tick=94, channel=1, data=[52, 0]),
   midi.NoteOnEvent(tick=2, channel=1, data=[52, 110]),
   midi.NoteOnEvent(tick=0, channel=1, data=[59, 110]),
   midi.NoteOnEvent(tick=0, channel=1, data=[64, 110]),
   midi.NoteOnEvent(tick=160, channel=1, data=[52, 0]),
   midi.NoteOnEvent(tick=0, channel=1, data=[59, 0]),
   midi.NoteOnEvent(tick=0, channel=1, data=[64, 0]),
   midi.NoteOnEvent(tick=32, channel=1, data=[52, 110]),
   midi.NoteOnEvent(tick=94, channel=1, data=[52, 0]),
   midi.NoteOnEvent(tick=2, channel=1, data=[52, 110]),
   midi.NoteOnEvent(tick=94, channel=1, data=[52, 0]),
   midi.NoteOnEvent(tick=2, channel=1, data=[52, 110]),
   midi.NoteOnEvent(tick=0, channel=1, data=[62, 110]),
   midi.NoteOnEvent(tick=94, channel=1, data=[52, 0]),
   midi.NoteOnEvent(tick=0, channel=1, data=[62, 0]),
   midi.NoteOnEvent(tick=2, channel=1, data=[64, 110]),
   midi.NoteOnEvent(tick=94, channel=1, data=[64, 0]),
   midi.NoteOnEvent(tick=2, channel=1, data=[52, 110]),
   midi.NoteOnEvent(tick=94, channel=1, data=[52, 0]),
   midi.NoteOnEvent(tick=2, channel=1, data=[52, 110]),
   midi.NoteOnEvent(tick=94, channel=1, data=[52, 0]),
   midi.NoteOnEvent(tick=2, channel=1, data=[52, 110]),
   midi.NoteOnEvent(tick=0, channel=1, data=[62, 110]),
   midi.NoteOnEvent(tick=160, channel=1, data=[52, 0]),
   midi.NoteOnEvent(tick=0, channel=1, data=[62, 0]),
   midi.NoteOnEvent(tick=32, channel=1, data=[52, 110]),
   midi.NoteOnEvent(tick=94, channel=1, data=[52, 0]),
   midi.NoteOnEvent(tick=2, channel=1, data=[52, 110]),
   midi.NoteOnEvent(tick=94, channel=1, data=[52, 0]),
   midi.NoteOnEvent(tick=2, channel=1, data=[52, 110]),
   midi.NoteOnEvent(tick=0, channel=1, data=[61, 110]),
   midi.NoteOnEvent(tick=94, channel=1, data=[52, 0]),
   midi.NoteOnEvent(tick=0, channel=1, data=[61, 0]),
   midi.NoteOnEvent(tick=2, channel=1, data=[64, 110]),
   midi.NoteOnEvent(tick=94, channel=1, data=[64, 0]),
   midi.NoteOnEvent(tick=2, channel=1, data=[52, 110]),
   midi.NoteOnEvent(tick=0, channel=1, data=[59, 110]),
   midi.NoteOnEvent(tick=160, channel=1, data=[52, 0]),
   midi.NoteOnEvent(tick=0, channel=1, data=[59, 0]),
   midi.NoteOnEvent(tick=32, channel=1, data=[52, 110]),
   midi.NoteOnEvent(tick=0, channel=1, data=[59, 110]),
   midi.NoteOnEvent(tick=0, channel=1, data=[64, 110]),
   midi.NoteOnEvent(tick=160, channel=1, data=[52, 0]),
   midi.NoteOnEvent(tick=0, channel=1, data=[59, 0]),
   midi.NoteOnEvent(tick=0, channel=1, data=[64, 0]),
   midi.NoteOnEvent(tick=32, channel=1, data=[52, 110]),
   midi.NoteOnEvent(tick=94, channel=1, data=[52, 0]),
   midi.NoteOnEvent(tick=2, channel=1, data=[52, 110]),
   midi.NoteOnEvent(tick=94, channel=1, data=[52, 0]),
   midi.NoteOnEvent(tick=2, channel=1, data=[52, 110]),
   midi.NoteOnEvent(tick=0, channel=1, data=[62, 110]),
   midi.NoteOnEvent(tick=94, channel=1, data=[52, 0]),
   midi.NoteOnEvent(tick=0, channel=1, data=[62, 0]),
   midi.NoteOnEvent(tick=2, channel=1, data=[64, 110]),
   midi.NoteOnEvent(tick=94, channel=1, data=[64, 0]),
   midi.NoteOnEvent(tick=2, channel=1, data=[52, 110]),
   midi.NoteOnEvent(tick=94, channel=1, data=[52, 0]),
   midi.NoteOnEvent(tick=2, channel=1, data=[52, 110]),
   midi.NoteOnEvent(tick=94, channel=1, data=[52, 0]),
   midi.NoteOnEvent(tick=2, channel=1, data=[52, 110]),
   midi.NoteOnEvent(tick=0, channel=1, data=[62, 110]),
   midi.NoteOnEvent(tick=160, channel=1, data=[52, 0]),
   midi.NoteOnEvent(tick=0, channel=1, data=[62, 0]),
   midi.NoteOnEvent(tick=32, channel=1, data=[52, 110]),
   midi.NoteOnEvent(tick=94, channel=1, data=[52, 0]),
   midi.NoteOnEvent(tick=2, channel=1, data=[52, 110]),
   midi.NoteOnEvent(tick=94, channel=1, data=[52, 0]),
   midi.NoteOnEvent(tick=2, channel=1, data=[52, 110]),
   midi.NoteOnEvent(tick=0, channel=1, data=[61, 110]),
   midi.NoteOnEvent(tick=94, channel=1, data=[52, 0]),
   midi.NoteOnEvent(tick=0, channel=1, data=[61, 0]),
   midi.NoteOnEvent(tick=2, channel=1, data=[64, 110]),
   midi.NoteOnEvent(tick=94, channel=1, data=[64, 0]),
   midi.NoteOnEvent(tick=2, channel=1, data=[52, 110]),
   midi.NoteOnEvent(tick=94, channel=1, data=[52, 0]),
   midi.NoteOnEvent(tick=2, channel=1, data=[52, 110]),
   midi.NoteOnEvent(tick=94, channel=1, data=[52, 0]),
   midi.NoteOnEvent(tick=2, channel=1, data=[52, 110]),
   midi.NoteOnEvent(tick=0, channel=1, data=[59, 110]),
   midi.NoteOnEvent(tick=0, channel=1, data=[64, 110]),
   midi.NoteOnEvent(tick=160, channel=1, data=[52, 0]),
   midi.NoteOnEvent(tick=0, channel=1, data=[59, 0]),
   midi.NoteOnEvent(tick=0, channel=1, data=[64, 0]),
   midi.NoteOnEvent(tick=32, channel=1, data=[52, 110]),
   midi.NoteOnEvent(tick=94, channel=1, data=[52, 0]),
   midi.NoteOnEvent(tick=2, channel=1, data=[52, 110]),
   midi.NoteOnEvent(tick=94, channel=1, data=[52, 0]),
   midi.NoteOnEvent(tick=2, channel=1, data=[52, 110]),
   midi.NoteOnEvent(tick=0, channel=1, data=[62, 110]),
   midi.NoteOnEvent(tick=94, channel=1, data=[52, 0]),
   midi.NoteOnEvent(tick=0, channel=1, data=[62, 0]),
   midi.NoteOnEvent(tick=2, channel=1, data=[64, 110]),
   midi.NoteOnEvent(tick=94, channel=1, data=[64, 0]),
   midi.NoteOnEvent(tick=2, channel=1, data=[52, 110]),
   midi.NoteOnEvent(tick=94, channel=1, data=[52, 0]),
   midi.NoteOnEvent(tick=2, channel=1, data=[52, 110]),
   midi.NoteOnEvent(tick=94, channel=1, data=[52, 0]),
   midi.NoteOnEvent(tick=2, channel=1, data=[52, 110]),
   midi.NoteOnEvent(tick=0, channel=1, data=[62, 110]),
   midi.NoteOnEvent(tick=160, channel=1, data=[52, 0]),
   midi.NoteOnEvent(tick=0, channel=1, data=[62, 0]),
   midi.NoteOnEvent(tick=32, channel=1, data=[52, 110]),
   midi.NoteOnEvent(tick=94, channel=1, data=[52, 0]),
   midi.NoteOnEvent(tick=2, channel=1, data=[52, 110]),
   midi.NoteOnEvent(tick=94, channel=1, data=[52, 0]),
   midi.NoteOnEvent(tick=2, channel=1, data=[52, 110]),
   midi.NoteOnEvent(tick=0, channel=1, data=[61, 110]),
   midi.NoteOnEvent(tick=94, channel=1, data=[52, 0]),
   midi.NoteOnEvent(tick=0, channel=1, data=[61, 0]),
   midi.NoteOnEvent(tick=2, channel=1, data=[64, 110]),
   midi.NoteOnEvent(tick=94, channel=1, data=[64, 0]),
   midi.NoteOnEvent(tick=2, channel=1, data=[52, 110]),
   midi.NoteOnEvent(tick=0, channel=1, data=[59, 110]),
   midi.NoteOnEvent(tick=160, channel=1, data=[52, 0]),
   midi.NoteOnEvent(tick=0, channel=1, data=[59, 0]),
   midi.NoteOnEvent(tick=32, channel=1, data=[52, 110]),
   midi.NoteOnEvent(tick=94, channel=1, data=[52, 0]),
   midi.NoteOnEvent(tick=2, channel=1, data=[52, 110]),
   midi.NoteOnEvent(tick=46, channel=1, data=[52, 0]),
   midi.NoteOnEvent(tick=2, channel=1, data=[52, 110]),
   midi.NoteOnEvent(tick=46, channel=1, data=[52, 0]),
   midi.NoteOnEvent(tick=2, channel=1, data=[52, 110]),
   midi.NoteOnEvent(tick=94, channel=1, data=[52, 0]),
   midi.NoteOnEvent(tick=2, channel=1, data=[52, 110]),
   midi.NoteOnEvent(tick=94, channel=1, data=[52, 0]),
   midi.NoteOnEvent(tick=2, channel=1, data=[52, 110]),
   midi.NoteOnEvent(tick=94, channel=1, data=[52, 0]),
   midi.NoteOnEvent(tick=2, channel=1, data=[52, 110]),
   midi.NoteOnEvent(tick=94, channel=1, data=[52, 0]),
   midi.NoteOnEvent(tick=2, channel=1, data=[52, 110]),
   midi.NoteOnEvent(tick=94, channel=1, data=[52, 0]),
   midi.NoteOnEvent(tick=2, channel=1, data=[52, 110]),
   midi.NoteOnEvent(tick=94, channel=1, data=[52, 0]),
   midi.NoteOnEvent(tick=1442, channel=1, data=[55, 110]),
   midi.NoteOnEvent(tick=94, channel=1, data=[55, 0]),
   midi.NoteOnEvent(tick=2, channel=1, data=[55, 110]),
   midi.NoteOnEvent(tick=94, channel=1, data=[55, 0]),
   midi.NoteOnEvent(tick=2, channel=1, data=[55, 110]),
   midi.NoteOnEvent(tick=94, channel=1, data=[55, 0]),
   midi.NoteOnEvent(tick=2, channel=1, data=[55, 110]),
   midi.NoteOnEvent(tick=94, channel=1, data=[55, 0]),
   midi.NoteOnEvent(tick=2, channel=1, data=[55, 110]),
   midi.NoteOnEvent(tick=94, channel=1, data=[55, 0]),
   midi.NoteOnEvent(tick=2, channel=1, data=[55, 110]),
   midi.NoteOnEvent(tick=94, channel=1, data=[55, 0]),
   midi.NoteOnEvent(tick=2, channel=1, data=[55, 110]),
   midi.NoteOnEvent(tick=94, channel=1, data=[55, 0]),
   midi.NoteOnEvent(tick=2, channel=1, data=[55, 110]),
   midi.NoteOnEvent(tick=94, channel=1, data=[55, 0]),
   midi.NoteOnEvent(tick=2, channel=1, data=[55, 110]),
   midi.NoteOnEvent(tick=94, channel=1, data=[55, 0]),
   midi.NoteOnEvent(tick=2, channel=1, data=[55, 110]),
   midi.NoteOnEvent(tick=94, channel=1, data=[55, 0]),
   midi.NoteOnEvent(tick=2, channel=1, data=[55, 110]),
   midi.NoteOnEvent(tick=94, channel=1, data=[55, 0]),
   midi.NoteOnEvent(tick=2, channel=1, data=[55, 110]),
   midi.NoteOnEvent(tick=94, channel=1, data=[55, 0]),
   midi.NoteOnEvent(tick=2, channel=1, data=[55, 110]),
   midi.NoteOnEvent(tick=94, channel=1, data=[55, 0]),
   midi.NoteOnEvent(tick=2, channel=1, data=[55, 110]),
   midi.NoteOnEvent(tick=94, channel=1, data=[55, 0]),
   midi.NoteOnEvent(tick=2, channel=1, data=[55, 110]),
   midi.NoteOnEvent(tick=94, channel=1, data=[55, 0]),
   midi.NoteOnEvent(tick=2, channel=1, data=[55, 110]),
   midi.NoteOnEvent(tick=94, channel=1, data=[55, 0]),
   midi.NoteOnEvent(tick=2, channel=1, data=[61, 110]),
   midi.NoteOnEvent(tick=0, channel=1, data=[68, 110]),
   midi.NoteOnEvent(tick=94, channel=1, data=[61, 0]),
   midi.NoteOnEvent(tick=0, channel=1, data=[68, 0]),
   midi.NoteOnEvent(tick=2, channel=1, data=[61, 110]),
   midi.NoteOnEvent(tick=46, channel=1, data=[61, 0]),
   midi.NoteOnEvent(tick=2, channel=1, data=[61, 110]),
   midi.NoteOnEvent(tick=46, channel=1, data=[61, 0]),
   midi.NoteOnEvent(tick=2, channel=1, data=[61, 110]),
   midi.NoteOnEvent(tick=46, channel=1, data=[61, 0]),
   midi.NoteOnEvent(tick=2, channel=1, data=[61, 110]),
   midi.NoteOnEvent(tick=46, channel=1, data=[61, 0]),
   midi.NoteOnEvent(tick=2, channel=1, data=[61, 110]),
   midi.NoteOnEvent(tick=46, channel=1, data=[61, 0]),
   midi.NoteOnEvent(tick=2, channel=1, data=[61, 110]),
   midi.NoteOnEvent(tick=46, channel=1, data=[61, 0]),
   midi.NoteOnEvent(tick=2, channel=1, data=[61, 110]),
   midi.NoteOnEvent(tick=94, channel=1, data=[61, 0]),
   midi.NoteOnEvent(tick=2, channel=1, data=[61, 110]),
   midi.NoteOnEvent(tick=46, channel=1, data=[61, 0]),
   midi.NoteOnEvent(tick=2, channel=1, data=[61, 110]),
   midi.NoteOnEvent(tick=46, channel=1, data=[61, 0]),
   midi.NoteOnEvent(tick=2, channel=1, data=[61, 110]),
   midi.NoteOnEvent(tick=46, channel=1, data=[61, 0]),
   midi.NoteOnEvent(tick=2, channel=1, data=[61, 110]),
   midi.NoteOnEvent(tick=46, channel=1, data=[61, 0]),
   midi.NoteOnEvent(tick=2, channel=1, data=[61, 110]),
   midi.NoteOnEvent(tick=46, channel=1, data=[61, 0]),
   midi.NoteOnEvent(tick=2, channel=1, data=[61, 110]),
   midi.NoteOnEvent(tick=46, channel=1, data=[61, 0]),
   midi.NoteOnEvent(tick=2, channel=1, data=[61, 110]),
   midi.NoteOnEvent(tick=0, channel=1, data=[68, 110]),
   midi.NoteOnEvent(tick=94, channel=1, data=[61, 0]),
   midi.NoteOnEvent(tick=0, channel=1, data=[68, 0]),
   midi.NoteOnEvent(tick=2, channel=1, data=[61, 110]),
   midi.NoteOnEvent(tick=46, channel=1, data=[61, 0]),
   midi.NoteOnEvent(tick=2, channel=1, data=[61, 110]),
   midi.NoteOnEvent(tick=46, channel=1, data=[61, 0]),
   midi.NoteOnEvent(tick=2, channel=1, data=[61, 110]),
   midi.NoteOnEvent(tick=46, channel=1, data=[61, 0]),
   midi.NoteOnEvent(tick=2, channel=1, data=[61, 110]),
   midi.NoteOnEvent(tick=46, channel=1, data=[61, 0]),
   midi.NoteOnEvent(tick=2, channel=1, data=[61, 110]),
   midi.NoteOnEvent(tick=46, channel=1, data=[61, 0]),
   midi.NoteOnEvent(tick=2, channel=1, data=[61, 110]),
   midi.NoteOnEvent(tick=46, channel=1, data=[61, 0]),
   midi.NoteOnEvent(tick=2, channel=1, data=[61, 110]),
   midi.NoteOnEvent(tick=94, channel=1, data=[61, 0]),
   midi.NoteOnEvent(tick=2, channel=1, data=[61, 110]),
   midi.NoteOnEvent(tick=46, channel=1, data=[61, 0]),
   midi.NoteOnEvent(tick=2, channel=1, data=[61, 110]),
   midi.NoteOnEvent(tick=46, channel=1, data=[61, 0]),
   midi.NoteOnEvent(tick=2, channel=1, data=[61, 110]),
   midi.NoteOnEvent(tick=46, channel=1, data=[61, 0]),
   midi.NoteOnEvent(tick=2, channel=1, data=[61, 110]),
   midi.NoteOnEvent(tick=46, channel=1, data=[61, 0]),
   midi.NoteOnEvent(tick=2, channel=1, data=[61, 110]),
   midi.NoteOnEvent(tick=46, channel=1, data=[61, 0]),
   midi.NoteOnEvent(tick=2, channel=1, data=[61, 110]),
   midi.NoteOnEvent(tick=46, channel=1, data=[61, 0]),
   midi.NoteOnEvent(tick=2, channel=1, data=[61, 110]),
   midi.NoteOnEvent(tick=0, channel=1, data=[68, 110]),
   midi.NoteOnEvent(tick=94, channel=1, data=[61, 0]),
   midi.NoteOnEvent(tick=0, channel=1, data=[68, 0]),
   midi.NoteOnEvent(tick=2, channel=1, data=[61, 110]),
   midi.NoteOnEvent(tick=46, channel=1, data=[61, 0]),
   midi.NoteOnEvent(tick=2, channel=1, data=[61, 110]),
   midi.NoteOnEvent(tick=46, channel=1, data=[61, 0]),
   midi.NoteOnEvent(tick=2, channel=1, data=[61, 110]),
   midi.NoteOnEvent(tick=46, channel=1, data=[61, 0]),
   midi.NoteOnEvent(tick=2, channel=1, data=[61, 110]),
   midi.NoteOnEvent(tick=46, channel=1, data=[61, 0]),
   midi.NoteOnEvent(tick=2, channel=1, data=[61, 110]),
   midi.NoteOnEvent(tick=46, channel=1, data=[61, 0]),
   midi.NoteOnEvent(tick=2, channel=1, data=[61, 110]),
   midi.NoteOnEvent(tick=46, channel=1, data=[61, 0]),
   midi.NoteOnEvent(tick=2, channel=1, data=[61, 110]),
   midi.NoteOnEvent(tick=94, channel=1, data=[61, 0]),
   midi.NoteOnEvent(tick=2, channel=1, data=[61, 110]),
   midi.NoteOnEvent(tick=46, channel=1, data=[61, 0]),
   midi.NoteOnEvent(tick=2, channel=1, data=[61, 110]),
   midi.NoteOnEvent(tick=46, channel=1, data=[61, 0]),
   midi.NoteOnEvent(tick=2, channel=1, data=[61, 110]),
   midi.NoteOnEvent(tick=46, channel=1, data=[61, 0]),
   midi.NoteOnEvent(tick=2, channel=1, data=[61, 110]),
   midi.NoteOnEvent(tick=46, channel=1, data=[61, 0]),
   midi.NoteOnEvent(tick=2, channel=1, data=[61, 110]),
   midi.NoteOnEvent(tick=46, channel=1, data=[61, 0]),
   midi.NoteOnEvent(tick=2, channel=1, data=[61, 110]),
   midi.NoteOnEvent(tick=46, channel=1, data=[61, 0]),
   midi.NoteOnEvent(tick=2, channel=1, data=[61, 110]),
   midi.NoteOnEvent(tick=0, channel=1, data=[68, 110]),
   midi.NoteOnEvent(tick=94, channel=1, data=[61, 0]),
   midi.NoteOnEvent(tick=0, channel=1, data=[68, 0]),
   midi.NoteOnEvent(tick=2, channel=1, data=[61, 110]),
   midi.NoteOnEvent(tick=46, channel=1, data=[61, 0]),
   midi.NoteOnEvent(tick=2, channel=1, data=[61, 110]),
   midi.NoteOnEvent(tick=46, channel=1, data=[61, 0]),
   midi.NoteOnEvent(tick=2, channel=1, data=[61, 110]),
   midi.NoteOnEvent(tick=46, channel=1, data=[61, 0]),
   midi.NoteOnEvent(tick=2, channel=1, data=[61, 110]),
   midi.NoteOnEvent(tick=46, channel=1, data=[61, 0]),
   midi.NoteOnEvent(tick=2, channel=1, data=[61, 110]),
   midi.NoteOnEvent(tick=46, channel=1, data=[61, 0]),
   midi.NoteOnEvent(tick=2, channel=1, data=[61, 110]),
   midi.NoteOnEvent(tick=46, channel=1, data=[61, 0]),
   midi.NoteOnEvent(tick=2, channel=1, data=[61, 110]),
   midi.NoteOnEvent(tick=94, channel=1, data=[61, 0]),
   midi.NoteOnEvent(tick=2, channel=1, data=[61, 110]),
   midi.NoteOnEvent(tick=46, channel=1, data=[61, 0]),
   midi.NoteOnEvent(tick=2, channel=1, data=[61, 110]),
   midi.NoteOnEvent(tick=46, channel=1, data=[61, 0]),
   midi.NoteOnEvent(tick=2, channel=1, data=[61, 110]),
   midi.NoteOnEvent(tick=46, channel=1, data=[61, 0]),
   midi.NoteOnEvent(tick=2, channel=1, data=[61, 110]),
   midi.NoteOnEvent(tick=46, channel=1, data=[61, 0]),
   midi.NoteOnEvent(tick=2, channel=1, data=[61, 110]),
   midi.NoteOnEvent(tick=46, channel=1, data=[61, 0]),
   midi.NoteOnEvent(tick=2, channel=1, data=[61, 110]),
   midi.NoteOnEvent(tick=46, channel=1, data=[61, 0]),
   midi.NoteOnEvent(tick=2, channel=1, data=[61, 110]),
   midi.NoteOnEvent(tick=0, channel=1, data=[68, 110]),
   midi.NoteOnEvent(tick=94, channel=1, data=[61, 0]),
   midi.NoteOnEvent(tick=0, channel=1, data=[68, 0]),
   midi.NoteOnEvent(tick=2, channel=1, data=[61, 110]),
   midi.NoteOnEvent(tick=46, channel=1, data=[61, 0]),
   midi.NoteOnEvent(tick=2, channel=1, data=[61, 110]),
   midi.NoteOnEvent(tick=46, channel=1, data=[61, 0]),
   midi.NoteOnEvent(tick=2, channel=1, data=[61, 110]),
   midi.NoteOnEvent(tick=46, channel=1, data=[61, 0]),
   midi.NoteOnEvent(tick=2, channel=1, data=[61, 110]),
   midi.NoteOnEvent(tick=46, channel=1, data=[61, 0]),
   midi.NoteOnEvent(tick=2, channel=1, data=[61, 110]),
   midi.NoteOnEvent(tick=46, channel=1, data=[61, 0]),
   midi.NoteOnEvent(tick=2, channel=1, data=[61, 110]),
   midi.NoteOnEvent(tick=46, channel=1, data=[61, 0]),
   midi.NoteOnEvent(tick=2, channel=1, data=[61, 110]),
   midi.NoteOnEvent(tick=94, channel=1, data=[61, 0]),
   midi.NoteOnEvent(tick=2, channel=1, data=[61, 110]),
   midi.NoteOnEvent(tick=46, channel=1, data=[61, 0]),
   midi.NoteOnEvent(tick=2, channel=1, data=[61, 110]),
   midi.NoteOnEvent(tick=46, channel=1, data=[61, 0]),
   midi.NoteOnEvent(tick=2, channel=1, data=[61, 110]),
   midi.NoteOnEvent(tick=46, channel=1, data=[61, 0]),
   midi.NoteOnEvent(tick=2, channel=1, data=[61, 110]),
   midi.NoteOnEvent(tick=46, channel=1, data=[61, 0]),
   midi.NoteOnEvent(tick=2, channel=1, data=[61, 110]),
   midi.NoteOnEvent(tick=46, channel=1, data=[61, 0]),
   midi.NoteOnEvent(tick=2, channel=1, data=[61, 110]),
   midi.NoteOnEvent(tick=46, channel=1, data=[61, 0]),
   midi.NoteOnEvent(tick=2, channel=1, data=[61, 110]),
   midi.NoteOnEvent(tick=0, channel=1, data=[68, 110]),
   midi.NoteOnEvent(tick=94, channel=1, data=[61, 0]),
   midi.NoteOnEvent(tick=0, channel=1, data=[68, 0]),
   midi.NoteOnEvent(tick=2, channel=1, data=[61, 110]),
   midi.NoteOnEvent(tick=46, channel=1, data=[61, 0]),
   midi.NoteOnEvent(tick=2, channel=1, data=[61, 110]),
   midi.NoteOnEvent(tick=46, channel=1, data=[61, 0]),
   midi.NoteOnEvent(tick=2, channel=1, data=[61, 110]),
   midi.NoteOnEvent(tick=46, channel=1, data=[61, 0]),
   midi.NoteOnEvent(tick=2, channel=1, data=[61, 110]),
   midi.NoteOnEvent(tick=46, channel=1, data=[61, 0]),
   midi.NoteOnEvent(tick=2, channel=1, data=[61, 110]),
   midi.NoteOnEvent(tick=46, channel=1, data=[61, 0]),
   midi.NoteOnEvent(tick=2, channel=1, data=[61, 110]),
   midi.NoteOnEvent(tick=46, channel=1, data=[61, 0]),
   midi.NoteOnEvent(tick=2, channel=1, data=[61, 110]),
   midi.NoteOnEvent(tick=94, channel=1, data=[61, 0]),
   midi.NoteOnEvent(tick=2, channel=1, data=[61, 110]),
   midi.NoteOnEvent(tick=46, channel=1, data=[61, 0]),
   midi.NoteOnEvent(tick=2, channel=1, data=[61, 110]),
   midi.NoteOnEvent(tick=46, channel=1, data=[61, 0]),
   midi.NoteOnEvent(tick=2, channel=1, data=[61, 110]),
   midi.NoteOnEvent(tick=46, channel=1, data=[61, 0]),
   midi.NoteOnEvent(tick=2, channel=1, data=[61, 110]),
   midi.NoteOnEvent(tick=46, channel=1, data=[61, 0]),
   midi.NoteOnEvent(tick=2, channel=1, data=[61, 110]),
   midi.NoteOnEvent(tick=46, channel=1, data=[61, 0]),
   midi.NoteOnEvent(tick=2, channel=1, data=[61, 110]),
   midi.NoteOnEvent(tick=46, channel=1, data=[61, 0]),
   midi.SetTempoEvent(tick=2, data=[4, 147, 224]),
   midi.NoteOnEvent(tick=0, channel=1, data=[57, 110]),
   midi.SetTempoEvent(tick=51, data=[4, 159, 182]),
   midi.NoteOnEvent(tick=43, channel=1, data=[57, 0]),
   midi.NoteOnEvent(tick=2, channel=1, data=[67, 110]),
   midi.SetTempoEvent(tick=6, data=[4, 171, 202]),
   midi.SetTempoEvent(tick=51, data=[4, 184, 30]),
   midi.NoteOnEvent(tick=37, channel=1, data=[67, 0]),
   midi.NoteOnEvent(tick=2, channel=1, data=[66, 110]),
   midi.SetTempoEvent(tick=12, data=[4, 196, 180]),
   midi.SetTempoEvent(tick=52, data=[4, 209, 141]),
   midi.NoteOnEvent(tick=30, channel=1, data=[66, 0]),
   midi.NoteOnEvent(tick=2, channel=1, data=[57, 110]),
   midi.SetTempoEvent(tick=19, data=[4, 222, 172]),
   midi.SetTempoEvent(tick=51, data=[4, 236, 20]),
   midi.NoteOnEvent(tick=24, channel=1, data=[57, 0]),
   midi.NoteOnEvent(tick=2, channel=1, data=[66, 110]),
   midi.SetTempoEvent(tick=25, data=[4, 249, 198]),
   midi.SetTempoEvent(tick=51, data=[5, 7, 198]),
   midi.NoteOnEvent(tick=18, channel=1, data=[66, 0]),
   midi.NoteOnEvent(tick=2, channel=1, data=[64, 110]),
   midi.SetTempoEvent(tick=32, data=[5, 22, 21]),
   midi.SetTempoEvent(tick=51, data=[5, 36, 182]),
   midi.NoteOnEvent(tick=11, channel=1, data=[64, 0]),
   midi.NoteOnEvent(tick=2, channel=1, data=[62, 110]),
   midi.SetTempoEvent(tick=38, data=[5, 51, 173]),
   midi.SetTempoEvent(tick=51, data=[5, 66, 251]),
   midi.NoteOnEvent(tick=5, channel=1, data=[62, 0]),
   midi.NoteOnEvent(tick=2, channel=1, data=[61, 110]),
   midi.SetTempoEvent(tick=44, data=[5, 82, 165]),
   midi.NoteOnEvent(tick=50, channel=1, data=[61, 0]),
   midi.SetTempoEvent(tick=2, data=[5, 98, 173]),
   midi.NoteOnEvent(tick=0, channel=1, data=[55, 110]),
   midi.NoteOnEvent(tick=0, channel=1, data=[62, 110]),
   midi.NoteOnEvent(tick=0, channel=1, data=[67, 110]),
   midi.NoteOnEvent(tick=126, channel=1, data=[55, 0]),
   midi.NoteOnEvent(tick=0, channel=1, data=[62, 0]),
   midi.NoteOnEvent(tick=0, channel=1, data=[67, 0]),
   midi.NoteOnEvent(tick=2, channel=1, data=[54, 110]),
   midi.NoteOnEvent(tick=0, channel=1, data=[61, 110]),
   midi.NoteOnEvent(tick=0, channel=1, data=[66, 110]),
   midi.NoteOnEvent(tick=126, channel=1, data=[54, 0]),
   midi.NoteOnEvent(tick=0, channel=1, data=[61, 0]),
   midi.NoteOnEvent(tick=0, channel=1, data=[66, 0]),
   midi.NoteOnEvent(tick=2, channel=1, data=[52, 110]),
   midi.NoteOnEvent(tick=0, channel=1, data=[59, 110]),
   midi.NoteOnEvent(tick=0, channel=1, data=[64, 110]),
   midi.NoteOnEvent(tick=126, channel=1, data=[52, 0]),
   midi.NoteOnEvent(tick=0, channel=1, data=[59, 0]),
   midi.NoteOnEvent(tick=0, channel=1, data=[64, 0]),
   midi.NoteOnEvent(tick=2, channel=1, data=[62, 110]),
   midi.NoteOnEvent(tick=0, channel=1, data=[69, 110]),
   midi.NoteOnEvent(tick=0, channel=1, data=[74, 110]),
   midi.NoteOnEvent(tick=126, channel=1, data=[62, 0]),
   midi.NoteOnEvent(tick=0, channel=1, data=[69, 0]),
   midi.NoteOnEvent(tick=0, channel=1, data=[74, 0]),
   midi.NoteOnEvent(tick=2, channel=1, data=[61, 110]),
   midi.NoteOnEvent(tick=0, channel=1, data=[68, 110]),
   midi.NoteOnEvent(tick=0, channel=1, data=[73, 110]),
   midi.NoteOnEvent(tick=126, channel=1, data=[61, 0]),
   midi.NoteOnEvent(tick=0, channel=1, data=[68, 0]),
   midi.NoteOnEvent(tick=0, channel=1, data=[73, 0]),
   midi.NoteOnEvent(tick=2, channel=1, data=[59, 110]),
   midi.NoteOnEvent(tick=0, channel=1, data=[66, 110]),
   midi.NoteOnEvent(tick=0, channel=1, data=[71, 110]),
   midi.NoteOnEvent(tick=126, channel=1, data=[59, 0]),
   midi.NoteOnEvent(tick=0, channel=1, data=[66, 0]),
   midi.NoteOnEvent(tick=0, channel=1, data=[71, 0]),
   midi.NoteOnEvent(tick=2, channel=1, data=[52, 110]),
   midi.NoteOnEvent(tick=94, channel=1, data=[52, 0]),
   midi.NoteOnEvent(tick=2, channel=1, data=[52, 110]),
   midi.NoteOnEvent(tick=46, channel=1, data=[52, 0]),
   midi.NoteOnEvent(tick=2, channel=1, data=[52, 110]),
   midi.NoteOnEvent(tick=46, channel=1, data=[52, 0]),
   midi.NoteOnEvent(tick=2, channel=1, data=[52, 110]),
   midi.NoteOnEvent(tick=94, channel=1, data=[52, 0]),
   midi.NoteOnEvent(tick=2, channel=1, data=[52, 110]),
   midi.NoteOnEvent(tick=94, channel=1, data=[52, 0]),
   midi.NoteOnEvent(tick=2, channel=1, data=[52, 110]),
   midi.NoteOnEvent(tick=94, channel=1, data=[52, 0]),
   midi.NoteOnEvent(tick=2, channel=1, data=[52, 110]),
   midi.NoteOnEvent(tick=94, channel=1, data=[52, 0]),
   midi.NoteOnEvent(tick=2, channel=1, data=[52, 110]),
   midi.NoteOnEvent(tick=46, channel=1, data=[52, 0]),
   midi.NoteOnEvent(tick=2, channel=1, data=[52, 110]),
   midi.NoteOnEvent(tick=46, channel=1, data=[52, 0]),
   midi.NoteOnEvent(tick=2, channel=1, data=[52, 110]),
   midi.NoteOnEvent(tick=46, channel=1, data=[52, 0]),
   midi.NoteOnEvent(tick=2, channel=1, data=[52, 110]),
   midi.NoteOnEvent(tick=46, channel=1, data=[52, 0]),
   midi.NoteOnEvent(tick=2, channel=1, data=[52, 110]),
   midi.NoteOnEvent(tick=94, channel=1, data=[52, 0]),
   midi.NoteOnEvent(tick=2, channel=1, data=[52, 110]),
   midi.NoteOnEvent(tick=46, channel=1, data=[52, 0]),
   midi.NoteOnEvent(tick=2, channel=1, data=[52, 110]),
   midi.NoteOnEvent(tick=46, channel=1, data=[52, 0]),
   midi.NoteOnEvent(tick=2, channel=1, data=[52, 110]),
   midi.NoteOnEvent(tick=94, channel=1, data=[52, 0]),
   midi.NoteOnEvent(tick=2, channel=1, data=[52, 110]),
   midi.NoteOnEvent(tick=94, channel=1, data=[52, 0]),
   midi.NoteOnEvent(tick=2, channel=1, data=[52, 110]),
   midi.NoteOnEvent(tick=94, channel=1, data=[52, 0]),
   midi.NoteOnEvent(tick=2, channel=1, data=[52, 110]),
   midi.NoteOnEvent(tick=94, channel=1, data=[52, 0]),
   midi.NoteOnEvent(tick=2, channel=1, data=[52, 110]),
   midi.NoteOnEvent(tick=46, channel=1, data=[52, 0]),
   midi.NoteOnEvent(tick=2, channel=1, data=[52, 110]),
   midi.NoteOnEvent(tick=46, channel=1, data=[52, 0]),
   midi.NoteOnEvent(tick=2, channel=1, data=[52, 110]),
   midi.NoteOnEvent(tick=46, channel=1, data=[52, 0]),
   midi.NoteOnEvent(tick=2, channel=1, data=[52, 110]),
   midi.NoteOnEvent(tick=46, channel=1, data=[52, 0]),
   midi.NoteOnEvent(tick=2, channel=1, data=[55, 110]),
   midi.NoteOnEvent(tick=94, channel=1, data=[55, 0]),
   midi.NoteOnEvent(tick=2, channel=1, data=[55, 110]),
   midi.NoteOnEvent(tick=46, channel=1, data=[55, 0]),
   midi.NoteOnEvent(tick=2, channel=1, data=[55, 110]),
   midi.NoteOnEvent(tick=46, channel=1, data=[55, 0]),
   midi.NoteOnEvent(tick=2, channel=1, data=[55, 110]),
   midi.NoteOnEvent(tick=94, channel=1, data=[55, 0]),
   midi.NoteOnEvent(tick=2, channel=1, data=[55, 110]),
   midi.NoteOnEvent(tick=94, channel=1, data=[55, 0]),
   midi.NoteOnEvent(tick=2, channel=1, data=[55, 110]),
   midi.NoteOnEvent(tick=94, channel=1, data=[55, 0]),
   midi.NoteOnEvent(tick=2, channel=1, data=[55, 110]),
   midi.NoteOnEvent(tick=94, channel=1, data=[55, 0]),
   midi.NoteOnEvent(tick=2, channel=1, data=[55, 110]),
   midi.NoteOnEvent(tick=46, channel=1, data=[55, 0]),
   midi.NoteOnEvent(tick=2, channel=1, data=[55, 110]),
   midi.NoteOnEvent(tick=46, channel=1, data=[55, 0]),
   midi.NoteOnEvent(tick=2, channel=1, data=[55, 110]),
   midi.NoteOnEvent(tick=46, channel=1, data=[55, 0]),
   midi.NoteOnEvent(tick=2, channel=1, data=[55, 110]),
   midi.NoteOnEvent(tick=46, channel=1, data=[55, 0]),
   midi.NoteOnEvent(tick=2, channel=1, data=[54, 110]),
   midi.NoteOnEvent(tick=94, channel=1, data=[54, 0]),
   midi.NoteOnEvent(tick=2, channel=1, data=[54, 110]),
   midi.NoteOnEvent(tick=46, channel=1, data=[54, 0]),
   midi.NoteOnEvent(tick=2, channel=1, data=[54, 110]),
   midi.NoteOnEvent(tick=46, channel=1, data=[54, 0]),
   midi.NoteOnEvent(tick=2, channel=1, data=[54, 110]),
   midi.NoteOnEvent(tick=94, channel=1, data=[54, 0]),
   midi.NoteOnEvent(tick=2, channel=1, data=[54, 110]),
   midi.NoteOnEvent(tick=94, channel=1, data=[54, 0]),
   midi.NoteOnEvent(tick=2, channel=1, data=[54, 110]),
   midi.NoteOnEvent(tick=94, channel=1, data=[54, 0]),
   midi.NoteOnEvent(tick=2, channel=1, data=[54, 110]),
   midi.NoteOnEvent(tick=94, channel=1, data=[54, 0]),
   midi.NoteOnEvent(tick=2, channel=1, data=[54, 110]),
   midi.NoteOnEvent(tick=46, channel=1, data=[54, 0]),
   midi.NoteOnEvent(tick=2, channel=1, data=[54, 110]),
   midi.NoteOnEvent(tick=46, channel=1, data=[54, 0]),
   midi.NoteOnEvent(tick=2, channel=1, data=[54, 110]),
   midi.NoteOnEvent(tick=46, channel=1, data=[54, 0]),
   midi.NoteOnEvent(tick=2, channel=1, data=[54, 110]),
   midi.NoteOnEvent(tick=46, channel=1, data=[54, 0]),
   midi.NoteOnEvent(tick=2, channel=1, data=[52, 110]),
   midi.NoteOnEvent(tick=94, channel=1, data=[52, 0]),
   midi.NoteOnEvent(tick=2, channel=1, data=[52, 110]),
   midi.NoteOnEvent(tick=46, channel=1, data=[52, 0]),
   midi.NoteOnEvent(tick=2, channel=1, data=[52, 110]),
   midi.NoteOnEvent(tick=46, channel=1, data=[52, 0]),
   midi.NoteOnEvent(tick=2, channel=1, data=[52, 110]),
   midi.NoteOnEvent(tick=94, channel=1, data=[52, 0]),
   midi.NoteOnEvent(tick=2, channel=1, data=[52, 110]),
   midi.NoteOnEvent(tick=94, channel=1, data=[52, 0]),
   midi.NoteOnEvent(tick=2, channel=1, data=[52, 110]),
   midi.NoteOnEvent(tick=94, channel=1, data=[52, 0]),
   midi.NoteOnEvent(tick=2, channel=1, data=[52, 110]),
   midi.NoteOnEvent(tick=94, channel=1, data=[52, 0]),
   midi.NoteOnEvent(tick=2, channel=1, data=[52, 110]),
   midi.NoteOnEvent(tick=46, channel=1, data=[52, 0]),
   midi.NoteOnEvent(tick=2, channel=1, data=[52, 110]),
   midi.NoteOnEvent(tick=46, channel=1, data=[52, 0]),
   midi.NoteOnEvent(tick=2, channel=1, data=[52, 110]),
   midi.NoteOnEvent(tick=46, channel=1, data=[52, 0]),
   midi.NoteOnEvent(tick=2, channel=1, data=[52, 110]),
   midi.NoteOnEvent(tick=46, channel=1, data=[52, 0]),
   midi.NoteOnEvent(tick=2, channel=1, data=[52, 110]),
   midi.NoteOnEvent(tick=94, channel=1, data=[52, 0]),
   midi.NoteOnEvent(tick=2, channel=1, data=[52, 110]),
   midi.NoteOnEvent(tick=46, channel=1, data=[52, 0]),
   midi.NoteOnEvent(tick=2, channel=1, data=[52, 110]),
   midi.NoteOnEvent(tick=46, channel=1, data=[52, 0]),
   midi.NoteOnEvent(tick=2, channel=1, data=[52, 110]),
   midi.NoteOnEvent(tick=94, channel=1, data=[52, 0]),
   midi.NoteOnEvent(tick=2, channel=1, data=[52, 110]),
   midi.NoteOnEvent(tick=94, channel=1, data=[52, 0]),
   midi.NoteOnEvent(tick=2, channel=1, data=[52, 110]),
   midi.NoteOnEvent(tick=94, channel=1, data=[52, 0]),
   midi.NoteOnEvent(tick=2, channel=1, data=[52, 110]),
   midi.NoteOnEvent(tick=94, channel=1, data=[52, 0]),
   midi.NoteOnEvent(tick=2, channel=1, data=[52, 110]),
   midi.NoteOnEvent(tick=46, channel=1, data=[52, 0]),
   midi.NoteOnEvent(tick=2, channel=1, data=[52, 110]),
   midi.NoteOnEvent(tick=46, channel=1, data=[52, 0]),
   midi.NoteOnEvent(tick=2, channel=1, data=[52, 110]),
   midi.NoteOnEvent(tick=46, channel=1, data=[52, 0]),
   midi.NoteOnEvent(tick=2, channel=1, data=[52, 110]),
   midi.NoteOnEvent(tick=46, channel=1, data=[52, 0]),
   midi.NoteOnEvent(tick=2, channel=1, data=[55, 110]),
   midi.NoteOnEvent(tick=94, channel=1, data=[55, 0]),
   midi.NoteOnEvent(tick=2, channel=1, data=[55, 110]),
   midi.NoteOnEvent(tick=46, channel=1, data=[55, 0]),
   midi.NoteOnEvent(tick=2, channel=1, data=[55, 110]),
   midi.NoteOnEvent(tick=46, channel=1, data=[55, 0]),
   midi.NoteOnEvent(tick=2, channel=1, data=[55, 110]),
   midi.NoteOnEvent(tick=94, channel=1, data=[55, 0]),
   midi.NoteOnEvent(tick=2, channel=1, data=[55, 110]),
   midi.NoteOnEvent(tick=94, channel=1, data=[55, 0]),
   midi.NoteOnEvent(tick=2, channel=1, data=[55, 110]),
   midi.NoteOnEvent(tick=94, channel=1, data=[55, 0]),
   midi.NoteOnEvent(tick=2, channel=1, data=[55, 110]),
   midi.NoteOnEvent(tick=94, channel=1, data=[55, 0]),
   midi.NoteOnEvent(tick=2, channel=1, data=[55, 110]),
   midi.NoteOnEvent(tick=46, channel=1, data=[55, 0]),
   midi.NoteOnEvent(tick=2, channel=1, data=[55, 110]),
   midi.NoteOnEvent(tick=46, channel=1, data=[55, 0]),
   midi.NoteOnEvent(tick=2, channel=1, data=[55, 110]),
   midi.NoteOnEvent(tick=46, channel=1, data=[55, 0]),
   midi.NoteOnEvent(tick=2, channel=1, data=[55, 110]),
   midi.NoteOnEvent(tick=46, channel=1, data=[55, 0]),
   midi.NoteOnEvent(tick=2, channel=1, data=[59, 110]),
   midi.NoteOnEvent(tick=94, channel=1, data=[59, 0]),
   midi.NoteOnEvent(tick=2, channel=1, data=[59, 110]),
   midi.NoteOnEvent(tick=46, channel=1, data=[59, 0]),
   midi.NoteOnEvent(tick=2, channel=1, data=[59, 110]),
   midi.NoteOnEvent(tick=46, channel=1, data=[59, 0]),
   midi.NoteOnEvent(tick=2, channel=1, data=[59, 110]),
   midi.NoteOnEvent(tick=94, channel=1, data=[59, 0]),
   midi.NoteOnEvent(tick=2, channel=1, data=[59, 110]),
   midi.NoteOnEvent(tick=94, channel=1, data=[59, 0]),
   midi.NoteOnEvent(tick=2, channel=1, data=[59, 110]),
   midi.NoteOnEvent(tick=94, channel=1, data=[59, 0]),
   midi.NoteOnEvent(tick=2, channel=1, data=[59, 110]),
   midi.NoteOnEvent(tick=94, channel=1, data=[59, 0]),
   midi.NoteOnEvent(tick=2, channel=1, data=[59, 110]),
   midi.NoteOnEvent(tick=46, channel=1, data=[59, 0]),
   midi.NoteOnEvent(tick=2, channel=1, data=[59, 110]),
   midi.NoteOnEvent(tick=46, channel=1, data=[59, 0]),
   midi.NoteOnEvent(tick=2, channel=1, data=[59, 110]),
   midi.NoteOnEvent(tick=46, channel=1, data=[59, 0]),
   midi.NoteOnEvent(tick=2, channel=1, data=[59, 110]),
   midi.NoteOnEvent(tick=46, channel=1, data=[59, 0]),
   midi.NoteOnEvent(tick=2, channel=1, data=[52, 110]),
   midi.NoteOnEvent(tick=94, channel=1, data=[52, 0]),
   midi.NoteOnEvent(tick=2, channel=1, data=[52, 110]),
   midi.NoteOnEvent(tick=46, channel=1, data=[52, 0]),
   midi.NoteOnEvent(tick=2, channel=1, data=[52, 110]),
   midi.NoteOnEvent(tick=46, channel=1, data=[52, 0]),
   midi.NoteOnEvent(tick=2, channel=1, data=[52, 110]),
   midi.NoteOnEvent(tick=94, channel=1, data=[52, 0]),
   midi.NoteOnEvent(tick=2, channel=1, data=[52, 110]),
   midi.NoteOnEvent(tick=94, channel=1, data=[52, 0]),
   midi.NoteOnEvent(tick=2, channel=1, data=[52, 110]),
   midi.NoteOnEvent(tick=94, channel=1, data=[52, 0]),
   midi.NoteOnEvent(tick=2, channel=1, data=[52, 110]),
   midi.NoteOnEvent(tick=94, channel=1, data=[52, 0]),
   midi.NoteOnEvent(tick=2, channel=1, data=[52, 110]),
   midi.NoteOnEvent(tick=46, channel=1, data=[52, 0]),
   midi.NoteOnEvent(tick=2, channel=1, data=[52, 110]),
   midi.NoteOnEvent(tick=46, channel=1, data=[52, 0]),
   midi.NoteOnEvent(tick=2, channel=1, data=[52, 110]),
   midi.NoteOnEvent(tick=46, channel=1, data=[52, 0]),
   midi.NoteOnEvent(tick=2, channel=1, data=[52, 110]),
   midi.NoteOnEvent(tick=46, channel=1, data=[52, 0]),
   midi.NoteOnEvent(tick=2, channel=1, data=[52, 110]),
   midi.NoteOnEvent(tick=94, channel=1, data=[52, 0]),
   midi.NoteOnEvent(tick=2, channel=1, data=[52, 110]),
   midi.NoteOnEvent(tick=46, channel=1, data=[52, 0]),
   midi.NoteOnEvent(tick=2, channel=1, data=[52, 110]),
   midi.NoteOnEvent(tick=46, channel=1, data=[52, 0]),
   midi.NoteOnEvent(tick=2, channel=1, data=[52, 110]),
   midi.NoteOnEvent(tick=94, channel=1, data=[52, 0]),
   midi.NoteOnEvent(tick=2, channel=1, data=[52, 110]),
   midi.NoteOnEvent(tick=94, channel=1, data=[52, 0]),
   midi.NoteOnEvent(tick=2, channel=1, data=[52, 110]),
   midi.NoteOnEvent(tick=94, channel=1, data=[52, 0]),
   midi.NoteOnEvent(tick=2, channel=1, data=[52, 110]),
   midi.NoteOnEvent(tick=94, channel=1, data=[52, 0]),
   midi.NoteOnEvent(tick=2, channel=1, data=[52, 110]),
   midi.NoteOnEvent(tick=46, channel=1, data=[52, 0]),
   midi.NoteOnEvent(tick=2, channel=1, data=[52, 110]),
   midi.NoteOnEvent(tick=46, channel=1, data=[52, 0]),
   midi.NoteOnEvent(tick=2, channel=1, data=[52, 110]),
   midi.NoteOnEvent(tick=46, channel=1, data=[52, 0]),
   midi.NoteOnEvent(tick=2, channel=1, data=[52, 110]),
   midi.NoteOnEvent(tick=46, channel=1, data=[52, 0]),
   midi.NoteOnEvent(tick=2, channel=1, data=[55, 110]),
   midi.NoteOnEvent(tick=94, channel=1, data=[55, 0]),
   midi.NoteOnEvent(tick=2, channel=1, data=[55, 110]),
   midi.NoteOnEvent(tick=46, channel=1, data=[55, 0]),
   midi.NoteOnEvent(tick=2, channel=1, data=[55, 110]),
   midi.NoteOnEvent(tick=46, channel=1, data=[55, 0]),
   midi.NoteOnEvent(tick=2, channel=1, data=[55, 110]),
   midi.NoteOnEvent(tick=94, channel=1, data=[55, 0]),
   midi.NoteOnEvent(tick=2, channel=1, data=[55, 110]),
   midi.NoteOnEvent(tick=94, channel=1, data=[55, 0]),
   midi.NoteOnEvent(tick=2, channel=1, data=[55, 110]),
   midi.NoteOnEvent(tick=94, channel=1, data=[55, 0]),
   midi.NoteOnEvent(tick=2, channel=1, data=[55, 110]),
   midi.NoteOnEvent(tick=94, channel=1, data=[55, 0]),
   midi.NoteOnEvent(tick=2, channel=1, data=[55, 110]),
   midi.NoteOnEvent(tick=46, channel=1, data=[55, 0]),
   midi.NoteOnEvent(tick=2, channel=1, data=[55, 110]),
   midi.NoteOnEvent(tick=46, channel=1, data=[55, 0]),
   midi.NoteOnEvent(tick=2, channel=1, data=[55, 110]),
   midi.NoteOnEvent(tick=46, channel=1, data=[55, 0]),
   midi.NoteOnEvent(tick=2, channel=1, data=[55, 110]),
   midi.NoteOnEvent(tick=46, channel=1, data=[55, 0]),
   midi.NoteOnEvent(tick=2, channel=1, data=[54, 110]),
   midi.NoteOnEvent(tick=94, channel=1, data=[54, 0]),
   midi.NoteOnEvent(tick=2, channel=1, data=[54, 110]),
   midi.NoteOnEvent(tick=46, channel=1, data=[54, 0]),
   midi.NoteOnEvent(tick=2, channel=1, data=[54, 110]),
   midi.NoteOnEvent(tick=46, channel=1, data=[54, 0]),
   midi.NoteOnEvent(tick=2, channel=1, data=[54, 110]),
   midi.NoteOnEvent(tick=94, channel=1, data=[54, 0]),
   midi.NoteOnEvent(tick=2, channel=1, data=[54, 110]),
   midi.NoteOnEvent(tick=94, channel=1, data=[54, 0]),
   midi.NoteOnEvent(tick=2, channel=1, data=[54, 110]),
   midi.NoteOnEvent(tick=94, channel=1, data=[54, 0]),
   midi.NoteOnEvent(tick=2, channel=1, data=[54, 110]),
   midi.NoteOnEvent(tick=94, channel=1, data=[54, 0]),
   midi.NoteOnEvent(tick=2, channel=1, data=[54, 110]),
   midi.NoteOnEvent(tick=46, channel=1, data=[54, 0]),
   midi.NoteOnEvent(tick=2, channel=1, data=[54, 110]),
   midi.NoteOnEvent(tick=46, channel=1, data=[54, 0]),
   midi.NoteOnEvent(tick=2, channel=1, data=[54, 110]),
   midi.NoteOnEvent(tick=46, channel=1, data=[54, 0]),
   midi.NoteOnEvent(tick=2, channel=1, data=[54, 110]),
   midi.NoteOnEvent(tick=46, channel=1, data=[54, 0]),
   midi.NoteOnEvent(tick=2, channel=1, data=[52, 110]),
   midi.NoteOnEvent(tick=94, channel=1, data=[52, 0]),
   midi.NoteOnEvent(tick=2, channel=1, data=[52, 110]),
   midi.NoteOnEvent(tick=46, channel=1, data=[52, 0]),
   midi.NoteOnEvent(tick=2, channel=1, data=[52, 110]),
   midi.NoteOnEvent(tick=46, channel=1, data=[52, 0]),
   midi.NoteOnEvent(tick=2, channel=1, data=[52, 110]),
   midi.NoteOnEvent(tick=94, channel=1, data=[52, 0]),
   midi.NoteOnEvent(tick=2, channel=1, data=[52, 110]),
   midi.NoteOnEvent(tick=94, channel=1, data=[52, 0]),
   midi.NoteOnEvent(tick=2, channel=1, data=[52, 110]),
   midi.NoteOnEvent(tick=94, channel=1, data=[52, 0]),
   midi.NoteOnEvent(tick=2, channel=1, data=[52, 110]),
   midi.NoteOnEvent(tick=94, channel=1, data=[52, 0]),
   midi.NoteOnEvent(tick=2, channel=1, data=[52, 110]),
   midi.NoteOnEvent(tick=46, channel=1, data=[52, 0]),
   midi.NoteOnEvent(tick=2, channel=1, data=[52, 110]),
   midi.NoteOnEvent(tick=46, channel=1, data=[52, 0]),
   midi.NoteOnEvent(tick=2, channel=1, data=[52, 110]),
   midi.NoteOnEvent(tick=46, channel=1, data=[52, 0]),
   midi.NoteOnEvent(tick=2, channel=1, data=[52, 110]),
   midi.NoteOnEvent(tick=46, channel=1, data=[52, 0]),
   midi.NoteOnEvent(tick=2, channel=1, data=[52, 110]),
   midi.NoteOnEvent(tick=94, channel=1, data=[52, 0]),
   midi.NoteOnEvent(tick=2, channel=1, data=[52, 110]),
   midi.NoteOnEvent(tick=46, channel=1, data=[52, 0]),
   midi.NoteOnEvent(tick=2, channel=1, data=[52, 110]),
   midi.NoteOnEvent(tick=46, channel=1, data=[52, 0]),
   midi.NoteOnEvent(tick=2, channel=1, data=[52, 110]),
   midi.NoteOnEvent(tick=94, channel=1, data=[52, 0]),
   midi.NoteOnEvent(tick=2, channel=1, data=[52, 110]),
   midi.NoteOnEvent(tick=94, channel=1, data=[52, 0]),
   midi.NoteOnEvent(tick=2, channel=1, data=[52, 110]),
   midi.NoteOnEvent(tick=94, channel=1, data=[52, 0]),
   midi.NoteOnEvent(tick=2, channel=1, data=[52, 110]),
   midi.NoteOnEvent(tick=94, channel=1, data=[52, 0]),
   midi.NoteOnEvent(tick=2, channel=1, data=[52, 110]),
   midi.NoteOnEvent(tick=46, channel=1, data=[52, 0]),
   midi.NoteOnEvent(tick=2, channel=1, data=[52, 110]),
   midi.NoteOnEvent(tick=46, channel=1, data=[52, 0]),
   midi.NoteOnEvent(tick=2, channel=1, data=[52, 110]),
   midi.NoteOnEvent(tick=46, channel=1, data=[52, 0]),
   midi.NoteOnEvent(tick=2, channel=1, data=[52, 110]),
   midi.NoteOnEvent(tick=46, channel=1, data=[52, 0]),
   midi.NoteOnEvent(tick=2, channel=1, data=[55, 110]),
   midi.NoteOnEvent(tick=94, channel=1, data=[55, 0]),
   midi.NoteOnEvent(tick=2, channel=1, data=[55, 110]),
   midi.NoteOnEvent(tick=46, channel=1, data=[55, 0]),
   midi.NoteOnEvent(tick=2, channel=1, data=[55, 110]),
   midi.NoteOnEvent(tick=46, channel=1, data=[55, 0]),
   midi.NoteOnEvent(tick=2, channel=1, data=[55, 110]),
   midi.NoteOnEvent(tick=94, channel=1, data=[55, 0]),
   midi.NoteOnEvent(tick=2, channel=1, data=[55, 110]),
   midi.NoteOnEvent(tick=94, channel=1, data=[55, 0]),
   midi.NoteOnEvent(tick=2, channel=1, data=[55, 110]),
   midi.NoteOnEvent(tick=94, channel=1, data=[55, 0]),
   midi.NoteOnEvent(tick=2, channel=1, data=[55, 110]),
   midi.NoteOnEvent(tick=94, channel=1, data=[55, 0]),
   midi.NoteOnEvent(tick=2, channel=1, data=[55, 110]),
   midi.NoteOnEvent(tick=46, channel=1, data=[55, 0]),
   midi.NoteOnEvent(tick=2, channel=1, data=[55, 110]),
   midi.NoteOnEvent(tick=46, channel=1, data=[55, 0]),
   midi.NoteOnEvent(tick=2, channel=1, data=[55, 110]),
   midi.NoteOnEvent(tick=46, channel=1, data=[55, 0]),
   midi.NoteOnEvent(tick=2, channel=1, data=[55, 110]),
   midi.NoteOnEvent(tick=46, channel=1, data=[55, 0]),
   midi.NoteOnEvent(tick=2, channel=1, data=[59, 110]),
   midi.NoteOnEvent(tick=94, channel=1, data=[59, 0]),
   midi.NoteOnEvent(tick=2, channel=1, data=[59, 110]),
   midi.NoteOnEvent(tick=46, channel=1, data=[59, 0]),
   midi.NoteOnEvent(tick=2, channel=1, data=[59, 110]),
   midi.NoteOnEvent(tick=46, channel=1, data=[59, 0]),
   midi.NoteOnEvent(tick=2, channel=1, data=[59, 110]),
   midi.NoteOnEvent(tick=94, channel=1, data=[59, 0]),
   midi.NoteOnEvent(tick=2, channel=1, data=[59, 110]),
   midi.NoteOnEvent(tick=94, channel=1, data=[59, 0]),
   midi.NoteOnEvent(tick=2, channel=1, data=[59, 110]),
   midi.NoteOnEvent(tick=94, channel=1, data=[59, 0]),
   midi.NoteOnEvent(tick=2, channel=1, data=[59, 110]),
   midi.NoteOnEvent(tick=94, channel=1, data=[59, 0]),
   midi.NoteOnEvent(tick=2, channel=1, data=[59, 110]),
   midi.NoteOnEvent(tick=46, channel=1, data=[59, 0]),
   midi.NoteOnEvent(tick=2, channel=1, data=[59, 110]),
   midi.NoteOnEvent(tick=46, channel=1, data=[59, 0]),
   midi.NoteOnEvent(tick=2, channel=1, data=[59, 110]),
   midi.NoteOnEvent(tick=46, channel=1, data=[59, 0]),
   midi.NoteOnEvent(tick=2, channel=1, data=[59, 110]),
   midi.NoteOnEvent(tick=46, channel=1, data=[59, 0]),
   midi.NoteOnEvent(tick=2, channel=1, data=[61, 110]),
   midi.NoteOnEvent(tick=0, channel=1, data=[68, 110]),
   midi.NoteOnEvent(tick=94, channel=1, data=[61, 0]),
   midi.NoteOnEvent(tick=0, channel=1, data=[68, 0]),
   midi.NoteOnEvent(tick=2, channel=1, data=[61, 110]),
   midi.NoteOnEvent(tick=46, channel=1, data=[61, 0]),
   midi.NoteOnEvent(tick=2, channel=1, data=[61, 110]),
   midi.NoteOnEvent(tick=46, channel=1, data=[61, 0]),
   midi.NoteOnEvent(tick=2, channel=1, data=[61, 110]),
   midi.NoteOnEvent(tick=46, channel=1, data=[61, 0]),
   midi.NoteOnEvent(tick=2, channel=1, data=[61, 110]),
   midi.NoteOnEvent(tick=46, channel=1, data=[61, 0]),
   midi.NoteOnEvent(tick=2, channel=1, data=[61, 110]),
   midi.NoteOnEvent(tick=46, channel=1, data=[61, 0]),
   midi.NoteOnEvent(tick=2, channel=1, data=[61, 110]),
   midi.NoteOnEvent(tick=46, channel=1, data=[61, 0]),
   midi.NoteOnEvent(tick=2, channel=1, data=[61, 110]),
   midi.NoteOnEvent(tick=94, channel=1, data=[61, 0]),
   midi.NoteOnEvent(tick=2, channel=1, data=[61, 110]),
   midi.NoteOnEvent(tick=46, channel=1, data=[61, 0]),
   midi.NoteOnEvent(tick=2, channel=1, data=[61, 110]),
   midi.NoteOnEvent(tick=46, channel=1, data=[61, 0]),
   midi.NoteOnEvent(tick=2, channel=1, data=[61, 110]),
   midi.NoteOnEvent(tick=46, channel=1, data=[61, 0]),
   midi.NoteOnEvent(tick=2, channel=1, data=[61, 110]),
   midi.NoteOnEvent(tick=46, channel=1, data=[61, 0]),
   midi.NoteOnEvent(tick=2, channel=1, data=[61, 110]),
   midi.NoteOnEvent(tick=46, channel=1, data=[61, 0]),
   midi.NoteOnEvent(tick=2, channel=1, data=[61, 110]),
   midi.NoteOnEvent(tick=46, channel=1, data=[61, 0]),
   midi.NoteOnEvent(tick=2, channel=1, data=[61, 110]),
   midi.NoteOnEvent(tick=0, channel=1, data=[68, 110]),
   midi.NoteOnEvent(tick=94, channel=1, data=[61, 0]),
   midi.NoteOnEvent(tick=0, channel=1, data=[68, 0]),
   midi.NoteOnEvent(tick=2, channel=1, data=[61, 110]),
   midi.NoteOnEvent(tick=46, channel=1, data=[61, 0]),
   midi.NoteOnEvent(tick=2, channel=1, data=[61, 110]),
   midi.NoteOnEvent(tick=46, channel=1, data=[61, 0]),
   midi.NoteOnEvent(tick=2, channel=1, data=[61, 110]),
   midi.NoteOnEvent(tick=46, channel=1, data=[61, 0]),
   midi.NoteOnEvent(tick=2, channel=1, data=[61, 110]),
   midi.NoteOnEvent(tick=46, channel=1, data=[61, 0]),
   midi.NoteOnEvent(tick=2, channel=1, data=[61, 110]),
   midi.NoteOnEvent(tick=46, channel=1, data=[61, 0]),
   midi.NoteOnEvent(tick=2, channel=1, data=[61, 110]),
   midi.NoteOnEvent(tick=46, channel=1, data=[61, 0]),
   midi.NoteOnEvent(tick=2, channel=1, data=[61, 110]),
   midi.NoteOnEvent(tick=94, channel=1, data=[61, 0]),
   midi.NoteOnEvent(tick=2, channel=1, data=[61, 110]),
   midi.NoteOnEvent(tick=46, channel=1, data=[61, 0]),
   midi.NoteOnEvent(tick=2, channel=1, data=[61, 110]),
   midi.NoteOnEvent(tick=46, channel=1, data=[61, 0]),
   midi.NoteOnEvent(tick=2, channel=1, data=[61, 110]),
   midi.NoteOnEvent(tick=46, channel=1, data=[61, 0]),
   midi.NoteOnEvent(tick=2, channel=1, data=[61, 110]),
   midi.NoteOnEvent(tick=46, channel=1, data=[61, 0]),
   midi.NoteOnEvent(tick=2, channel=1, data=[61, 110]),
   midi.NoteOnEvent(tick=46, channel=1, data=[61, 0]),
   midi.NoteOnEvent(tick=2, channel=1, data=[61, 110]),
   midi.NoteOnEvent(tick=46, channel=1, data=[61, 0]),
   midi.NoteOnEvent(tick=2, channel=1, data=[61, 110]),
   midi.NoteOnEvent(tick=0, channel=1, data=[68, 110]),
   midi.NoteOnEvent(tick=94, channel=1, data=[61, 0]),
   midi.NoteOnEvent(tick=0, channel=1, data=[68, 0]),
   midi.NoteOnEvent(tick=2, channel=1, data=[61, 110]),
   midi.NoteOnEvent(tick=46, channel=1, data=[61, 0]),
   midi.NoteOnEvent(tick=2, channel=1, data=[61, 110]),
   midi.NoteOnEvent(tick=46, channel=1, data=[61, 0]),
   midi.NoteOnEvent(tick=2, channel=1, data=[61, 110]),
   midi.NoteOnEvent(tick=46, channel=1, data=[61, 0]),
   midi.NoteOnEvent(tick=2, channel=1, data=[61, 110]),
   midi.NoteOnEvent(tick=46, channel=1, data=[61, 0]),
   midi.NoteOnEvent(tick=2, channel=1, data=[61, 110]),
   midi.NoteOnEvent(tick=46, channel=1, data=[61, 0]),
   midi.NoteOnEvent(tick=2, channel=1, data=[61, 110]),
   midi.NoteOnEvent(tick=46, channel=1, data=[61, 0]),
   midi.NoteOnEvent(tick=2, channel=1, data=[61, 110]),
   midi.NoteOnEvent(tick=94, channel=1, data=[61, 0]),
   midi.NoteOnEvent(tick=2, channel=1, data=[61, 110]),
   midi.NoteOnEvent(tick=46, channel=1, data=[61, 0]),
   midi.NoteOnEvent(tick=2, channel=1, data=[61, 110]),
   midi.NoteOnEvent(tick=46, channel=1, data=[61, 0]),
   midi.NoteOnEvent(tick=2, channel=1, data=[59, 110]),
   midi.NoteOnEvent(tick=0, channel=1, data=[66, 110]),
   midi.NoteOnEvent(tick=94, channel=1, data=[59, 0]),
   midi.NoteOnEvent(tick=0, channel=1, data=[66, 0]),
   midi.NoteOnEvent(tick=2, channel=1, data=[59, 110]),
   midi.NoteOnEvent(tick=46, channel=1, data=[59, 0]),
   midi.NoteOnEvent(tick=2, channel=1, data=[59, 110]),
   midi.NoteOnEvent(tick=46, channel=1, data=[59, 0]),
   midi.NoteOnEvent(tick=2, channel=1, data=[59, 110]),
   midi.NoteOnEvent(tick=46, channel=1, data=[59, 0]),
   midi.NoteOnEvent(tick=2, channel=1, data=[59, 110]),
   midi.NoteOnEvent(tick=46, channel=1, data=[59, 0]),
   midi.NoteOnEvent(tick=2, channel=1, data=[59, 110]),
   midi.NoteOnEvent(tick=46, channel=1, data=[59, 0]),
   midi.NoteOnEvent(tick=2, channel=1, data=[59, 110]),
   midi.NoteOnEvent(tick=46, channel=1, data=[59, 0]),
   midi.NoteOnEvent(tick=2, channel=1, data=[59, 110]),
   midi.NoteOnEvent(tick=94, channel=1, data=[59, 0]),
   midi.NoteOnEvent(tick=2, channel=1, data=[59, 110]),
   midi.NoteOnEvent(tick=46, channel=1, data=[59, 0]),
   midi.NoteOnEvent(tick=2, channel=1, data=[59, 110]),
   midi.NoteOnEvent(tick=46, channel=1, data=[59, 0]),
   midi.NoteOnEvent(tick=2, channel=1, data=[61, 110]),
   midi.NoteOnEvent(tick=0, channel=1, data=[68, 110]),
   midi.NoteOnEvent(tick=94, channel=1, data=[61, 0]),
   midi.NoteOnEvent(tick=0, channel=1, data=[68, 0]),
   midi.NoteOnEvent(tick=2, channel=1, data=[61, 110]),
   midi.NoteOnEvent(tick=46, channel=1, data=[61, 0]),
   midi.NoteOnEvent(tick=2, channel=1, data=[61, 110]),
   midi.NoteOnEvent(tick=46, channel=1, data=[61, 0]),
   midi.NoteOnEvent(tick=2, channel=1, data=[61, 110]),
   midi.NoteOnEvent(tick=46, channel=1, data=[61, 0]),
   midi.NoteOnEvent(tick=2, channel=1, data=[61, 110]),
   midi.NoteOnEvent(tick=46, channel=1, data=[61, 0]),
   midi.NoteOnEvent(tick=2, channel=1, data=[61, 110]),
   midi.NoteOnEvent(tick=46, channel=1, data=[61, 0]),
   midi.NoteOnEvent(tick=2, channel=1, data=[61, 110]),
   midi.NoteOnEvent(tick=46, channel=1, data=[61, 0]),
   midi.NoteOnEvent(tick=2, channel=1, data=[61, 110]),
   midi.NoteOnEvent(tick=94, channel=1, data=[61, 0]),
   midi.NoteOnEvent(tick=2, channel=1, data=[61, 110]),
   midi.NoteOnEvent(tick=46, channel=1, data=[61, 0]),
   midi.NoteOnEvent(tick=2, channel=1, data=[61, 110]),
   midi.NoteOnEvent(tick=46, channel=1, data=[61, 0]),
   midi.NoteOnEvent(tick=2, channel=1, data=[61, 110]),
   midi.NoteOnEvent(tick=46, channel=1, data=[61, 0]),
   midi.NoteOnEvent(tick=2, channel=1, data=[61, 110]),
   midi.NoteOnEvent(tick=46, channel=1, data=[61, 0]),
   midi.NoteOnEvent(tick=2, channel=1, data=[61, 110]),
   midi.NoteOnEvent(tick=46, channel=1, data=[61, 0]),
   midi.NoteOnEvent(tick=2, channel=1, data=[61, 110]),
   midi.NoteOnEvent(tick=46, channel=1, data=[61, 0]),
   midi.NoteOnEvent(tick=2, channel=1, data=[61, 110]),
   midi.NoteOnEvent(tick=0, channel=1, data=[68, 110]),
   midi.NoteOnEvent(tick=94, channel=1, data=[61, 0]),
   midi.NoteOnEvent(tick=0, channel=1, data=[68, 0]),
   midi.NoteOnEvent(tick=2, channel=1, data=[61, 110]),
   midi.NoteOnEvent(tick=46, channel=1, data=[61, 0]),
   midi.NoteOnEvent(tick=2, channel=1, data=[61, 110]),
   midi.NoteOnEvent(tick=46, channel=1, data=[61, 0]),
   midi.NoteOnEvent(tick=2, channel=1, data=[61, 110]),
   midi.NoteOnEvent(tick=46, channel=1, data=[61, 0]),
   midi.NoteOnEvent(tick=2, channel=1, data=[61, 110]),
   midi.NoteOnEvent(tick=46, channel=1, data=[61, 0]),
   midi.NoteOnEvent(tick=2, channel=1, data=[61, 110]),
   midi.NoteOnEvent(tick=46, channel=1, data=[61, 0]),
   midi.NoteOnEvent(tick=2, channel=1, data=[61, 110]),
   midi.NoteOnEvent(tick=46, channel=1, data=[61, 0]),
   midi.NoteOnEvent(tick=2, channel=1, data=[61, 110]),
   midi.NoteOnEvent(tick=94, channel=1, data=[61, 0]),
   midi.NoteOnEvent(tick=2, channel=1, data=[61, 110]),
   midi.NoteOnEvent(tick=46, channel=1, data=[61, 0]),
   midi.NoteOnEvent(tick=2, channel=1, data=[61, 110]),
   midi.NoteOnEvent(tick=46, channel=1, data=[61, 0]),
   midi.NoteOnEvent(tick=2, channel=1, data=[61, 110]),
   midi.NoteOnEvent(tick=46, channel=1, data=[61, 0]),
   midi.NoteOnEvent(tick=2, channel=1, data=[61, 110]),
   midi.NoteOnEvent(tick=46, channel=1, data=[61, 0]),
   midi.NoteOnEvent(tick=2, channel=1, data=[61, 110]),
   midi.NoteOnEvent(tick=46, channel=1, data=[61, 0]),
   midi.NoteOnEvent(tick=2, channel=1, data=[61, 110]),
   midi.NoteOnEvent(tick=46, channel=1, data=[61, 0]),
   midi.NoteOnEvent(tick=2, channel=1, data=[61, 110]),
   midi.NoteOnEvent(tick=0, channel=1, data=[68, 110]),
   midi.NoteOnEvent(tick=94, channel=1, data=[61, 0]),
   midi.NoteOnEvent(tick=0, channel=1, data=[68, 0]),
   midi.NoteOnEvent(tick=2, channel=1, data=[61, 110]),
   midi.NoteOnEvent(tick=46, channel=1, data=[61, 0]),
   midi.NoteOnEvent(tick=2, channel=1, data=[61, 110]),
   midi.NoteOnEvent(tick=46, channel=1, data=[61, 0]),
   midi.NoteOnEvent(tick=2, channel=1, data=[61, 110]),
   midi.NoteOnEvent(tick=46, channel=1, data=[61, 0]),
   midi.NoteOnEvent(tick=2, channel=1, data=[61, 110]),
   midi.NoteOnEvent(tick=46, channel=1, data=[61, 0]),
   midi.NoteOnEvent(tick=2, channel=1, data=[61, 110]),
   midi.NoteOnEvent(tick=46, channel=1, data=[61, 0]),
   midi.NoteOnEvent(tick=2, channel=1, data=[61, 110]),
   midi.NoteOnEvent(tick=46, channel=1, data=[61, 0]),
   midi.NoteOnEvent(tick=2, channel=1, data=[61, 110]),
   midi.NoteOnEvent(tick=94, channel=1, data=[61, 0]),
   midi.NoteOnEvent(tick=2, channel=1, data=[61, 110]),
   midi.NoteOnEvent(tick=46, channel=1, data=[61, 0]),
   midi.NoteOnEvent(tick=2, channel=1, data=[61, 110]),
   midi.NoteOnEvent(tick=46, channel=1, data=[61, 0]),
   midi.NoteOnEvent(tick=2, channel=1, data=[59, 110]),
   midi.NoteOnEvent(tick=0, channel=1, data=[66, 110]),
   midi.NoteOnEvent(tick=94, channel=1, data=[59, 0]),
   midi.NoteOnEvent(tick=0, channel=1, data=[66, 0]),
   midi.NoteOnEvent(tick=2, channel=1, data=[59, 110]),
   midi.NoteOnEvent(tick=46, channel=1, data=[59, 0]),
   midi.NoteOnEvent(tick=2, channel=1, data=[59, 110]),
   midi.NoteOnEvent(tick=46, channel=1, data=[59, 0]),
   midi.NoteOnEvent(tick=2, channel=1, data=[59, 110]),
   midi.NoteOnEvent(tick=46, channel=1, data=[59, 0]),
   midi.NoteOnEvent(tick=2, channel=1, data=[59, 110]),
   midi.NoteOnEvent(tick=46, channel=1, data=[59, 0]),
   midi.NoteOnEvent(tick=2, channel=1, data=[59, 110]),
   midi.NoteOnEvent(tick=46, channel=1, data=[59, 0]),
   midi.NoteOnEvent(tick=2, channel=1, data=[59, 110]),
   midi.NoteOnEvent(tick=46, channel=1, data=[59, 0]),
   midi.NoteOnEvent(tick=2, channel=1, data=[59, 110]),
   midi.NoteOnEvent(tick=94, channel=1, data=[59, 0]),
   midi.NoteOnEvent(tick=2, channel=1, data=[59, 110]),
   midi.NoteOnEvent(tick=46, channel=1, data=[59, 0]),
   midi.NoteOnEvent(tick=2, channel=1, data=[59, 110]),
   midi.NoteOnEvent(tick=46, channel=1, data=[59, 0]),
   midi.NoteOnEvent(tick=2, channel=1, data=[61, 110]),
   midi.NoteOnEvent(tick=0, channel=1, data=[68, 110]),
   midi.NoteOnEvent(tick=94, channel=1, data=[61, 0]),
   midi.NoteOnEvent(tick=0, channel=1, data=[68, 0]),
   midi.NoteOnEvent(tick=2, channel=1, data=[61, 110]),
   midi.NoteOnEvent(tick=46, channel=1, data=[61, 0]),
   midi.NoteOnEvent(tick=2, channel=1, data=[61, 110]),
   midi.NoteOnEvent(tick=46, channel=1, data=[61, 0]),
   midi.NoteOnEvent(tick=2, channel=1, data=[61, 110]),
   midi.NoteOnEvent(tick=46, channel=1, data=[61, 0]),
   midi.NoteOnEvent(tick=2, channel=1, data=[61, 110]),
   midi.NoteOnEvent(tick=46, channel=1, data=[61, 0]),
   midi.NoteOnEvent(tick=2, channel=1, data=[61, 110]),
   midi.NoteOnEvent(tick=46, channel=1, data=[61, 0]),
   midi.NoteOnEvent(tick=2, channel=1, data=[61, 110]),
   midi.NoteOnEvent(tick=46, channel=1, data=[61, 0]),
   midi.NoteOnEvent(tick=2, channel=1, data=[61, 110]),
   midi.NoteOnEvent(tick=94, channel=1, data=[61, 0]),
   midi.NoteOnEvent(tick=2, channel=1, data=[61, 110]),
   midi.NoteOnEvent(tick=46, channel=1, data=[61, 0]),
   midi.NoteOnEvent(tick=2, channel=1, data=[61, 110]),
   midi.NoteOnEvent(tick=46, channel=1, data=[61, 0]),
   midi.NoteOnEvent(tick=2, channel=1, data=[61, 110]),
   midi.NoteOnEvent(tick=46, channel=1, data=[61, 0]),
   midi.NoteOnEvent(tick=2, channel=1, data=[61, 110]),
   midi.NoteOnEvent(tick=46, channel=1, data=[61, 0]),
   midi.NoteOnEvent(tick=2, channel=1, data=[61, 110]),
   midi.NoteOnEvent(tick=46, channel=1, data=[61, 0]),
   midi.NoteOnEvent(tick=2, channel=1, data=[61, 110]),
   midi.NoteOnEvent(tick=46, channel=1, data=[61, 0]),
   midi.NoteOnEvent(tick=2, channel=1, data=[61, 110]),
   midi.NoteOnEvent(tick=0, channel=1, data=[68, 110]),
   midi.NoteOnEvent(tick=94, channel=1, data=[61, 0]),
   midi.NoteOnEvent(tick=0, channel=1, data=[68, 0]),
   midi.NoteOnEvent(tick=2, channel=1, data=[61, 110]),
   midi.NoteOnEvent(tick=46, channel=1, data=[61, 0]),
   midi.NoteOnEvent(tick=2, channel=1, data=[61, 110]),
   midi.NoteOnEvent(tick=46, channel=1, data=[61, 0]),
   midi.NoteOnEvent(tick=2, channel=1, data=[61, 110]),
   midi.NoteOnEvent(tick=46, channel=1, data=[61, 0]),
   midi.NoteOnEvent(tick=2, channel=1, data=[61, 110]),
   midi.NoteOnEvent(tick=46, channel=1, data=[61, 0]),
   midi.NoteOnEvent(tick=2, channel=1, data=[61, 110]),
   midi.NoteOnEvent(tick=46, channel=1, data=[61, 0]),
   midi.NoteOnEvent(tick=2, channel=1, data=[61, 110]),
   midi.NoteOnEvent(tick=46, channel=1, data=[61, 0]),
   midi.NoteOnEvent(tick=2, channel=1, data=[61, 110]),
   midi.NoteOnEvent(tick=94, channel=1, data=[61, 0]),
   midi.NoteOnEvent(tick=2, channel=1, data=[61, 110]),
   midi.NoteOnEvent(tick=46, channel=1, data=[61, 0]),
   midi.NoteOnEvent(tick=2, channel=1, data=[61, 110]),
   midi.NoteOnEvent(tick=46, channel=1, data=[61, 0]),
   midi.NoteOnEvent(tick=2, channel=1, data=[61, 110]),
   midi.NoteOnEvent(tick=46, channel=1, data=[61, 0]),
   midi.NoteOnEvent(tick=2, channel=1, data=[61, 110]),
   midi.NoteOnEvent(tick=46, channel=1, data=[61, 0]),
   midi.NoteOnEvent(tick=2, channel=1, data=[61, 110]),
   midi.NoteOnEvent(tick=46, channel=1, data=[61, 0]),
   midi.NoteOnEvent(tick=2, channel=1, data=[61, 110]),
   midi.NoteOnEvent(tick=46, channel=1, data=[61, 0]),
   midi.NoteOnEvent(tick=2, channel=1, data=[61, 110]),
   midi.NoteOnEvent(tick=0, channel=1, data=[68, 110]),
   midi.NoteOnEvent(tick=94, channel=1, data=[61, 0]),
   midi.NoteOnEvent(tick=0, channel=1, data=[68, 0]),
   midi.NoteOnEvent(tick=2, channel=1, data=[61, 110]),
   midi.NoteOnEvent(tick=46, channel=1, data=[61, 0]),
   midi.NoteOnEvent(tick=2, channel=1, data=[61, 110]),
   midi.NoteOnEvent(tick=46, channel=1, data=[61, 0]),
   midi.NoteOnEvent(tick=2, channel=1, data=[61, 110]),
   midi.NoteOnEvent(tick=46, channel=1, data=[61, 0]),
   midi.NoteOnEvent(tick=2, channel=1, data=[61, 110]),
   midi.NoteOnEvent(tick=46, channel=1, data=[61, 0]),
   midi.NoteOnEvent(tick=2, channel=1, data=[61, 110]),
   midi.NoteOnEvent(tick=46, channel=1, data=[61, 0]),
   midi.NoteOnEvent(tick=2, channel=1, data=[61, 110]),
   midi.NoteOnEvent(tick=46, channel=1, data=[61, 0]),
   midi.NoteOnEvent(tick=2, channel=1, data=[61, 110]),
   midi.NoteOnEvent(tick=94, channel=1, data=[61, 0]),
   midi.NoteOnEvent(tick=2, channel=1, data=[61, 110]),
   midi.NoteOnEvent(tick=46, channel=1, data=[61, 0]),
   midi.NoteOnEvent(tick=2, channel=1, data=[61, 110]),
   midi.NoteOnEvent(tick=46, channel=1, data=[61, 0]),
   midi.NoteOnEvent(tick=2, channel=1, data=[59, 110]),
   midi.NoteOnEvent(tick=0, channel=1, data=[66, 110]),
   midi.NoteOnEvent(tick=94, channel=1, data=[59, 0]),
   midi.NoteOnEvent(tick=0, channel=1, data=[66, 0]),
   midi.NoteOnEvent(tick=2, channel=1, data=[59, 110]),
   midi.NoteOnEvent(tick=46, channel=1, data=[59, 0]),
   midi.NoteOnEvent(tick=2, channel=1, data=[59, 110]),
   midi.NoteOnEvent(tick=46, channel=1, data=[59, 0]),
   midi.NoteOnEvent(tick=2, channel=1, data=[59, 110]),
   midi.NoteOnEvent(tick=46, channel=1, data=[59, 0]),
   midi.NoteOnEvent(tick=2, channel=1, data=[59, 110]),
   midi.NoteOnEvent(tick=46, channel=1, data=[59, 0]),
   midi.NoteOnEvent(tick=2, channel=1, data=[59, 110]),
   midi.NoteOnEvent(tick=46, channel=1, data=[59, 0]),
   midi.NoteOnEvent(tick=2, channel=1, data=[59, 110]),
   midi.NoteOnEvent(tick=46, channel=1, data=[59, 0]),
   midi.NoteOnEvent(tick=2, channel=1, data=[59, 110]),
   midi.NoteOnEvent(tick=94, channel=1, data=[59, 0]),
   midi.NoteOnEvent(tick=2, channel=1, data=[59, 110]),
   midi.NoteOnEvent(tick=46, channel=1, data=[59, 0]),
   midi.NoteOnEvent(tick=2, channel=1, data=[59, 110]),
   midi.NoteOnEvent(tick=46, channel=1, data=[59, 0]),
   midi.NoteOnEvent(tick=2, channel=1, data=[61, 110]),
   midi.NoteOnEvent(tick=0, channel=1, data=[68, 110]),
   midi.NoteOnEvent(tick=94, channel=1, data=[61, 0]),
   midi.NoteOnEvent(tick=0, channel=1, data=[68, 0]),
   midi.NoteOnEvent(tick=2, channel=1, data=[61, 110]),
   midi.NoteOnEvent(tick=46, channel=1, data=[61, 0]),
   midi.NoteOnEvent(tick=2, channel=1, data=[61, 110]),
   midi.NoteOnEvent(tick=46, channel=1, data=[61, 0]),
   midi.NoteOnEvent(tick=2, channel=1, data=[61, 110]),
   midi.NoteOnEvent(tick=46, channel=1, data=[61, 0]),
   midi.NoteOnEvent(tick=2, channel=1, data=[61, 110]),
   midi.NoteOnEvent(tick=46, channel=1, data=[61, 0]),
   midi.NoteOnEvent(tick=2, channel=1, data=[61, 110]),
   midi.NoteOnEvent(tick=46, channel=1, data=[61, 0]),
   midi.NoteOnEvent(tick=2, channel=1, data=[61, 110]),
   midi.NoteOnEvent(tick=46, channel=1, data=[61, 0]),
   midi.NoteOnEvent(tick=2, channel=1, data=[61, 110]),
   midi.NoteOnEvent(tick=94, channel=1, data=[61, 0]),
   midi.NoteOnEvent(tick=2, channel=1, data=[61, 110]),
   midi.NoteOnEvent(tick=46, channel=1, data=[61, 0]),
   midi.NoteOnEvent(tick=2, channel=1, data=[61, 110]),
   midi.NoteOnEvent(tick=46, channel=1, data=[61, 0]),
   midi.NoteOnEvent(tick=2, channel=1, data=[61, 110]),
   midi.NoteOnEvent(tick=46, channel=1, data=[61, 0]),
   midi.NoteOnEvent(tick=2, channel=1, data=[61, 110]),
   midi.NoteOnEvent(tick=46, channel=1, data=[61, 0]),
   midi.NoteOnEvent(tick=2, channel=1, data=[61, 110]),
   midi.NoteOnEvent(tick=46, channel=1, data=[61, 0]),
   midi.NoteOnEvent(tick=2, channel=1, data=[61, 110]),
   midi.NoteOnEvent(tick=46, channel=1, data=[61, 0]),
   midi.NoteOnEvent(tick=2, channel=1, data=[61, 110]),
   midi.NoteOnEvent(tick=0, channel=1, data=[68, 110]),
   midi.NoteOnEvent(tick=94, channel=1, data=[61, 0]),
   midi.NoteOnEvent(tick=0, channel=1, data=[68, 0]),
   midi.NoteOnEvent(tick=2, channel=1, data=[61, 110]),
   midi.NoteOnEvent(tick=46, channel=1, data=[61, 0]),
   midi.NoteOnEvent(tick=2, channel=1, data=[61, 110]),
   midi.NoteOnEvent(tick=46, channel=1, data=[61, 0]),
   midi.NoteOnEvent(tick=2, channel=1, data=[61, 110]),
   midi.NoteOnEvent(tick=46, channel=1, data=[61, 0]),
   midi.NoteOnEvent(tick=2, channel=1, data=[61, 110]),
   midi.NoteOnEvent(tick=46, channel=1, data=[61, 0]),
   midi.NoteOnEvent(tick=2, channel=1, data=[61, 110]),
   midi.NoteOnEvent(tick=46, channel=1, data=[61, 0]),
   midi.NoteOnEvent(tick=2, channel=1, data=[61, 110]),
   midi.NoteOnEvent(tick=46, channel=1, data=[61, 0]),
   midi.NoteOnEvent(tick=2, channel=1, data=[61, 110]),
   midi.NoteOnEvent(tick=94, channel=1, data=[61, 0]),
   midi.NoteOnEvent(tick=2, channel=1, data=[61, 110]),
   midi.NoteOnEvent(tick=46, channel=1, data=[61, 0]),
   midi.NoteOnEvent(tick=2, channel=1, data=[61, 110]),
   midi.NoteOnEvent(tick=46, channel=1, data=[61, 0]),
   midi.NoteOnEvent(tick=2, channel=1, data=[61, 110]),
   midi.NoteOnEvent(tick=46, channel=1, data=[61, 0]),
   midi.NoteOnEvent(tick=2, channel=1, data=[61, 110]),
   midi.NoteOnEvent(tick=46, channel=1, data=[61, 0]),
   midi.NoteOnEvent(tick=2, channel=1, data=[61, 110]),
   midi.NoteOnEvent(tick=46, channel=1, data=[61, 0]),
   midi.NoteOnEvent(tick=2, channel=1, data=[61, 110]),
   midi.NoteOnEvent(tick=46, channel=1, data=[61, 0]),
   midi.NoteOnEvent(tick=2, channel=1, data=[61, 110]),
   midi.NoteOnEvent(tick=0, channel=1, data=[68, 110]),
   midi.NoteOnEvent(tick=94, channel=1, data=[61, 0]),
   midi.NoteOnEvent(tick=0, channel=1, data=[68, 0]),
   midi.NoteOnEvent(tick=2, channel=1, data=[61, 110]),
   midi.NoteOnEvent(tick=46, channel=1, data=[61, 0]),
   midi.NoteOnEvent(tick=2, channel=1, data=[61, 110]),
   midi.NoteOnEvent(tick=46, channel=1, data=[61, 0]),
   midi.NoteOnEvent(tick=2, channel=1, data=[61, 110]),
   midi.NoteOnEvent(tick=46, channel=1, data=[61, 0]),
   midi.NoteOnEvent(tick=2, channel=1, data=[61, 110]),
   midi.NoteOnEvent(tick=46, channel=1, data=[61, 0]),
   midi.NoteOnEvent(tick=2, channel=1, data=[61, 110]),
   midi.NoteOnEvent(tick=46, channel=1, data=[61, 0]),
   midi.NoteOnEvent(tick=2, channel=1, data=[61, 110]),
   midi.NoteOnEvent(tick=46, channel=1, data=[61, 0]),
   midi.NoteOnEvent(tick=2, channel=1, data=[61, 110]),
   midi.NoteOnEvent(tick=94, channel=1, data=[61, 0]),
   midi.NoteOnEvent(tick=2, channel=1, data=[61, 110]),
   midi.NoteOnEvent(tick=46, channel=1, data=[61, 0]),
   midi.NoteOnEvent(tick=2, channel=1, data=[61, 110]),
   midi.NoteOnEvent(tick=46, channel=1, data=[61, 0]),
   midi.NoteOnEvent(tick=2, channel=1, data=[59, 110]),
   midi.NoteOnEvent(tick=0, channel=1, data=[66, 110]),
   midi.NoteOnEvent(tick=94, channel=1, data=[59, 0]),
   midi.NoteOnEvent(tick=0, channel=1, data=[66, 0]),
   midi.NoteOnEvent(tick=2, channel=1, data=[59, 110]),
   midi.NoteOnEvent(tick=46, channel=1, data=[59, 0]),
   midi.NoteOnEvent(tick=2, channel=1, data=[59, 110]),
   midi.NoteOnEvent(tick=46, channel=1, data=[59, 0]),
   midi.NoteOnEvent(tick=2, channel=1, data=[59, 110]),
   midi.NoteOnEvent(tick=46, channel=1, data=[59, 0]),
   midi.NoteOnEvent(tick=2, channel=1, data=[59, 110]),
   midi.NoteOnEvent(tick=46, channel=1, data=[59, 0]),
   midi.NoteOnEvent(tick=2, channel=1, data=[59, 110]),
   midi.NoteOnEvent(tick=46, channel=1, data=[59, 0]),
   midi.NoteOnEvent(tick=2, channel=1, data=[59, 110]),
   midi.NoteOnEvent(tick=46, channel=1, data=[59, 0]),
   midi.NoteOnEvent(tick=2, channel=1, data=[59, 110]),
   midi.NoteOnEvent(tick=94, channel=1, data=[59, 0]),
   midi.NoteOnEvent(tick=2, channel=1, data=[59, 110]),
   midi.NoteOnEvent(tick=46, channel=1, data=[59, 0]),
   midi.NoteOnEvent(tick=2, channel=1, data=[59, 110]),
   midi.NoteOnEvent(tick=46, channel=1, data=[59, 0]),
   midi.NoteOnEvent(tick=2, channel=1, data=[71, 110]),
   midi.NoteOnEvent(tick=334, channel=1, data=[71, 0]),
   midi.NoteOnEvent(tick=2, channel=1, data=[72, 110]),
   midi.NoteOnEvent(tick=22, channel=1, data=[72, 0]),
   midi.NoteOnEvent(tick=2, channel=1, data=[71, 110]),
   midi.NoteOnEvent(tick=22, channel=1, data=[71, 0]),
   midi.NoteOnEvent(tick=2, channel=1, data=[69, 110]),
   midi.NoteOnEvent(tick=334, channel=1, data=[69, 0]),
   midi.NoteOnEvent(tick=2, channel=1, data=[71, 110]),
   midi.NoteOnEvent(tick=22, channel=1, data=[71, 0]),
   midi.NoteOnEvent(tick=2, channel=1, data=[72, 110]),
   midi.NoteOnEvent(tick=22, channel=1, data=[72, 0]),
   midi.NoteOnEvent(tick=2, channel=1, data=[71, 110]),
   midi.NoteOnEvent(tick=334, channel=1, data=[71, 0]),
   midi.NoteOnEvent(tick=2, channel=1, data=[72, 110]),
   midi.NoteOnEvent(tick=22, channel=1, data=[72, 0]),
   midi.NoteOnEvent(tick=2, channel=1, data=[71, 110]),
   midi.NoteOnEvent(tick=22, channel=1, data=[71, 0]),
   midi.NoteOnEvent(tick=2, channel=1, data=[69, 110]),
   midi.NoteOnEvent(tick=334, channel=1, data=[69, 0]),
   midi.NoteOnEvent(tick=2, channel=1, data=[71, 110]),
   midi.NoteOnEvent(tick=22, channel=1, data=[71, 0]),
   midi.NoteOnEvent(tick=2, channel=1, data=[72, 110]),
   midi.NoteOnEvent(tick=22, channel=1, data=[72, 0]),
   midi.NoteOnEvent(tick=2, channel=1, data=[71, 110]),
   midi.NoteOnEvent(tick=334, channel=1, data=[71, 0]),
   midi.NoteOnEvent(tick=2, channel=1, data=[72, 110]),
   midi.NoteOnEvent(tick=22, channel=1, data=[72, 0]),
   midi.NoteOnEvent(tick=2, channel=1, data=[71, 110]),
   midi.NoteOnEvent(tick=22, channel=1, data=[71, 0]),
   midi.NoteOnEvent(tick=2, channel=1, data=[69, 110]),
   midi.NoteOnEvent(tick=160, channel=1, data=[69, 0]),
   midi.PitchWheelEvent(tick=32, channel=1, data=[0, 64]),
   midi.NoteOnEvent(tick=0, channel=1, data=[71, 110]),
   midi.PitchWheelEvent(tick=1, channel=1, data=[96, 63]),
   midi.PitchWheelEvent(tick=2, channel=1, data=[64, 63]),
   midi.PitchWheelEvent(tick=1, channel=1, data=[32, 63]),
   midi.PitchWheelEvent(tick=2, channel=1, data=[0, 63]),
   midi.PitchWheelEvent(tick=1, channel=1, data=[96, 62]),
   midi.PitchWheelEvent(tick=2, channel=1, data=[64, 62]),
   midi.PitchWheelEvent(tick=1, channel=1, data=[32, 62]),
   midi.PitchWheelEvent(tick=2, channel=1, data=[0, 62]),
   midi.PitchWheelEvent(tick=1, channel=1, data=[96, 61]),
   midi.PitchWheelEvent(tick=2, channel=1, data=[64, 61]),
   midi.PitchWheelEvent(tick=1, channel=1, data=[32, 61]),
   midi.PitchWheelEvent(tick=2, channel=1, data=[0, 61]),
   midi.PitchWheelEvent(tick=1, channel=1, data=[96, 60]),
   midi.PitchWheelEvent(tick=2, channel=1, data=[64, 60]),
   midi.PitchWheelEvent(tick=1, channel=1, data=[32, 60]),
   midi.PitchWheelEvent(tick=2, channel=1, data=[0, 60]),
   midi.PitchWheelEvent(tick=1, channel=1, data=[96, 59]),
   midi.PitchWheelEvent(tick=2, channel=1, data=[64, 59]),
   midi.PitchWheelEvent(tick=1, channel=1, data=[32, 59]),
   midi.PitchWheelEvent(tick=2, channel=1, data=[0, 59]),
   midi.PitchWheelEvent(tick=1, channel=1, data=[96, 58]),
   midi.PitchWheelEvent(tick=2, channel=1, data=[64, 58]),
   midi.PitchWheelEvent(tick=1, channel=1, data=[32, 58]),
   midi.PitchWheelEvent(tick=2, channel=1, data=[0, 58]),
   midi.PitchWheelEvent(tick=1, channel=1, data=[96, 57]),
   midi.PitchWheelEvent(tick=2, channel=1, data=[64, 57]),
   midi.PitchWheelEvent(tick=1, channel=1, data=[32, 57]),
   midi.PitchWheelEvent(tick=2, channel=1, data=[0, 57]),
   midi.PitchWheelEvent(tick=1, channel=1, data=[96, 56]),
   midi.PitchWheelEvent(tick=2, channel=1, data=[64, 56]),
   midi.PitchWheelEvent(tick=1, channel=1, data=[32, 56]),
   midi.PitchWheelEvent(tick=2, channel=1, data=[0, 56]),
   midi.PitchWheelEvent(tick=1, channel=1, data=[96, 55]),
   midi.PitchWheelEvent(tick=2, channel=1, data=[64, 55]),
   midi.PitchWheelEvent(tick=1, channel=1, data=[32, 55]),
   midi.PitchWheelEvent(tick=2, channel=1, data=[0, 55]),
   midi.PitchWheelEvent(tick=1, channel=1, data=[96, 54]),
   midi.PitchWheelEvent(tick=2, channel=1, data=[64, 54]),
   midi.PitchWheelEvent(tick=1, channel=1, data=[32, 54]),
   midi.PitchWheelEvent(tick=2, channel=1, data=[0, 54]),
   midi.PitchWheelEvent(tick=1, channel=1, data=[96, 53]),
   midi.PitchWheelEvent(tick=2, channel=1, data=[64, 53]),
   midi.PitchWheelEvent(tick=1, channel=1, data=[32, 53]),
   midi.PitchWheelEvent(tick=2, channel=1, data=[0, 53]),
   midi.PitchWheelEvent(tick=1, channel=1, data=[96, 52]),
   midi.PitchWheelEvent(tick=2, channel=1, data=[64, 52]),
   midi.PitchWheelEvent(tick=1, channel=1, data=[32, 52]),
   midi.PitchWheelEvent(tick=2, channel=1, data=[0, 52]),
   midi.PitchWheelEvent(tick=1, channel=1, data=[96, 51]),
   midi.PitchWheelEvent(tick=2, channel=1, data=[64, 51]),
   midi.PitchWheelEvent(tick=1, channel=1, data=[32, 51]),
   midi.PitchWheelEvent(tick=2, channel=1, data=[0, 51]),
   midi.PitchWheelEvent(tick=1, channel=1, data=[96, 50]),
   midi.PitchWheelEvent(tick=2, channel=1, data=[64, 50]),
   midi.PitchWheelEvent(tick=1, channel=1, data=[32, 50]),
   midi.PitchWheelEvent(tick=2, channel=1, data=[0, 50]),
   midi.PitchWheelEvent(tick=1, channel=1, data=[96, 49]),
   midi.PitchWheelEvent(tick=2, channel=1, data=[64, 49]),
   midi.PitchWheelEvent(tick=1, channel=1, data=[32, 49]),
   midi.PitchWheelEvent(tick=2, channel=1, data=[0, 49]),
   midi.PitchWheelEvent(tick=1, channel=1, data=[96, 48]),
   midi.PitchWheelEvent(tick=2, channel=1, data=[64, 48]),
   midi.PitchWheelEvent(tick=1, channel=1, data=[32, 48]),
   midi.PitchWheelEvent(tick=2, channel=1, data=[0, 48]),
   midi.PitchWheelEvent(tick=1, channel=1, data=[96, 47]),
   midi.PitchWheelEvent(tick=2, channel=1, data=[64, 47]),
   midi.PitchWheelEvent(tick=1, channel=1, data=[32, 47]),
   midi.PitchWheelEvent(tick=2, channel=1, data=[0, 47]),
   midi.PitchWheelEvent(tick=1, channel=1, data=[96, 46]),
   midi.PitchWheelEvent(tick=2, channel=1, data=[64, 46]),
   midi.PitchWheelEvent(tick=1, channel=1, data=[32, 46]),
   midi.PitchWheelEvent(tick=2, channel=1, data=[0, 46]),
   midi.PitchWheelEvent(tick=1, channel=1, data=[96, 45]),
   midi.PitchWheelEvent(tick=2, channel=1, data=[64, 45]),
   midi.PitchWheelEvent(tick=1, channel=1, data=[32, 45]),
   midi.PitchWheelEvent(tick=2, channel=1, data=[0, 45]),
   midi.PitchWheelEvent(tick=1, channel=1, data=[96, 44]),
   midi.PitchWheelEvent(tick=2, channel=1, data=[64, 44]),
   midi.PitchWheelEvent(tick=1, channel=1, data=[32, 44]),
   midi.PitchWheelEvent(tick=2, channel=1, data=[0, 44]),
   midi.PitchWheelEvent(tick=1, channel=1, data=[96, 43]),
   midi.PitchWheelEvent(tick=2, channel=1, data=[64, 43]),
   midi.PitchWheelEvent(tick=1, channel=1, data=[32, 43]),
   midi.PitchWheelEvent(tick=2, channel=1, data=[0, 43]),
   midi.PitchWheelEvent(tick=1, channel=1, data=[96, 42]),
   midi.PitchWheelEvent(tick=2, channel=1, data=[64, 42]),
   midi.PitchWheelEvent(tick=1, channel=1, data=[32, 42]),
   midi.PitchWheelEvent(tick=2, channel=1, data=[0, 42]),
   midi.PitchWheelEvent(tick=1, channel=1, data=[96, 41]),
   midi.PitchWheelEvent(tick=2, channel=1, data=[64, 41]),
   midi.PitchWheelEvent(tick=1, channel=1, data=[32, 41]),
   midi.PitchWheelEvent(tick=2, channel=1, data=[0, 41]),
   midi.PitchWheelEvent(tick=1, channel=1, data=[96, 40]),
   midi.PitchWheelEvent(tick=2, channel=1, data=[64, 40]),
   midi.PitchWheelEvent(tick=1, channel=1, data=[32, 40]),
   midi.PitchWheelEvent(tick=2, channel=1, data=[0, 40]),
   midi.PitchWheelEvent(tick=1, channel=1, data=[96, 39]),
   midi.PitchWheelEvent(tick=2, channel=1, data=[64, 39]),
   midi.PitchWheelEvent(tick=1, channel=1, data=[32, 39]),
   midi.PitchWheelEvent(tick=2, channel=1, data=[0, 39]),
   midi.PitchWheelEvent(tick=1, channel=1, data=[96, 38]),
   midi.PitchWheelEvent(tick=2, channel=1, data=[64, 38]),
   midi.PitchWheelEvent(tick=1, channel=1, data=[32, 38]),
   midi.PitchWheelEvent(tick=2, channel=1, data=[0, 38]),
   midi.PitchWheelEvent(tick=1, channel=1, data=[96, 37]),
   midi.PitchWheelEvent(tick=2, channel=1, data=[64, 37]),
   midi.PitchWheelEvent(tick=1, channel=1, data=[32, 37]),
   midi.PitchWheelEvent(tick=2, channel=1, data=[0, 37]),
   midi.PitchWheelEvent(tick=1, channel=1, data=[96, 36]),
   midi.PitchWheelEvent(tick=2, channel=1, data=[64, 36]),
   midi.PitchWheelEvent(tick=1, channel=1, data=[32, 36]),
   midi.PitchWheelEvent(tick=2, channel=1, data=[0, 36]),
   midi.PitchWheelEvent(tick=1, channel=1, data=[96, 35]),
   midi.PitchWheelEvent(tick=2, channel=1, data=[64, 35]),
   midi.PitchWheelEvent(tick=1, channel=1, data=[32, 35]),
   midi.PitchWheelEvent(tick=2, channel=1, data=[0, 35]),
   midi.PitchWheelEvent(tick=1, channel=1, data=[96, 34]),
   midi.PitchWheelEvent(tick=2, channel=1, data=[64, 34]),
   midi.PitchWheelEvent(tick=1, channel=1, data=[32, 34]),
   midi.PitchWheelEvent(tick=2, channel=1, data=[0, 34]),
   midi.PitchWheelEvent(tick=1, channel=1, data=[96, 33]),
   midi.PitchWheelEvent(tick=2, channel=1, data=[64, 33]),
   midi.PitchWheelEvent(tick=1, channel=1, data=[32, 33]),
   midi.PitchWheelEvent(tick=2, channel=1, data=[0, 33]),
   midi.PitchWheelEvent(tick=1, channel=1, data=[96, 32]),
   midi.PitchWheelEvent(tick=2, channel=1, data=[64, 32]),
   midi.PitchWheelEvent(tick=1, channel=1, data=[32, 32]),
   midi.PitchWheelEvent(tick=2, channel=1, data=[0, 32]),
   midi.PitchWheelEvent(tick=1, channel=1, data=[96, 31]),
   midi.PitchWheelEvent(tick=2, channel=1, data=[64, 31]),
   midi.PitchWheelEvent(tick=1, channel=1, data=[32, 31]),
   midi.PitchWheelEvent(tick=2, channel=1, data=[0, 31]),
   midi.PitchWheelEvent(tick=1, channel=1, data=[96, 30]),
   midi.PitchWheelEvent(tick=2, channel=1, data=[64, 30]),
   midi.PitchWheelEvent(tick=1, channel=1, data=[32, 30]),
   midi.PitchWheelEvent(tick=2, channel=1, data=[0, 30]),
   midi.PitchWheelEvent(tick=1, channel=1, data=[96, 29]),
   midi.PitchWheelEvent(tick=2, channel=1, data=[64, 29]),
   midi.PitchWheelEvent(tick=1, channel=1, data=[32, 29]),
   midi.PitchWheelEvent(tick=2, channel=1, data=[0, 29]),
   midi.PitchWheelEvent(tick=1, channel=1, data=[96, 28]),
   midi.PitchWheelEvent(tick=2, channel=1, data=[64, 28]),
   midi.PitchWheelEvent(tick=1, channel=1, data=[32, 28]),
   midi.PitchWheelEvent(tick=2, channel=1, data=[0, 28]),
   midi.PitchWheelEvent(tick=1, channel=1, data=[96, 27]),
   midi.PitchWheelEvent(tick=2, channel=1, data=[64, 27]),
   midi.PitchWheelEvent(tick=1, channel=1, data=[32, 27]),
   midi.PitchWheelEvent(tick=2, channel=1, data=[0, 27]),
   midi.PitchWheelEvent(tick=1, channel=1, data=[96, 26]),
   midi.PitchWheelEvent(tick=2, channel=1, data=[64, 26]),
   midi.PitchWheelEvent(tick=1, channel=1, data=[32, 26]),
   midi.PitchWheelEvent(tick=2, channel=1, data=[0, 26]),
   midi.PitchWheelEvent(tick=1, channel=1, data=[96, 25]),
   midi.PitchWheelEvent(tick=2, channel=1, data=[64, 25]),
   midi.PitchWheelEvent(tick=1, channel=1, data=[32, 25]),
   midi.PitchWheelEvent(tick=2, channel=1, data=[0, 25]),
   midi.PitchWheelEvent(tick=1, channel=1, data=[96, 24]),
   midi.PitchWheelEvent(tick=2, channel=1, data=[64, 24]),
   midi.PitchWheelEvent(tick=1, channel=1, data=[32, 24]),
   midi.PitchWheelEvent(tick=2, channel=1, data=[0, 24]),
   midi.PitchWheelEvent(tick=1, channel=1, data=[96, 23]),
   midi.PitchWheelEvent(tick=2, channel=1, data=[64, 23]),
   midi.PitchWheelEvent(tick=1, channel=1, data=[32, 23]),
   midi.PitchWheelEvent(tick=2, channel=1, data=[0, 23]),
   midi.PitchWheelEvent(tick=1, channel=1, data=[96, 22]),
   midi.PitchWheelEvent(tick=2, channel=1, data=[64, 22]),
   midi.PitchWheelEvent(tick=1, channel=1, data=[32, 22]),
   midi.PitchWheelEvent(tick=2, channel=1, data=[0, 22]),
   midi.PitchWheelEvent(tick=1, channel=1, data=[96, 21]),
   midi.PitchWheelEvent(tick=2, channel=1, data=[64, 21]),
   midi.PitchWheelEvent(tick=1, channel=1, data=[32, 21]),
   midi.PitchWheelEvent(tick=2, channel=1, data=[0, 21]),
   midi.PitchWheelEvent(tick=1, channel=1, data=[96, 20]),
   midi.PitchWheelEvent(tick=2, channel=1, data=[64, 20]),
   midi.PitchWheelEvent(tick=1, channel=1, data=[32, 20]),
   midi.PitchWheelEvent(tick=2, channel=1, data=[0, 20]),
   midi.PitchWheelEvent(tick=1, channel=1, data=[96, 19]),
   midi.PitchWheelEvent(tick=2, channel=1, data=[64, 19]),
   midi.PitchWheelEvent(tick=1, channel=1, data=[32, 19]),
   midi.PitchWheelEvent(tick=2, channel=1, data=[0, 19]),
   midi.PitchWheelEvent(tick=1, channel=1, data=[96, 18]),
   midi.PitchWheelEvent(tick=2, channel=1, data=[64, 18]),
   midi.PitchWheelEvent(tick=1, channel=1, data=[32, 18]),
   midi.PitchWheelEvent(tick=2, channel=1, data=[0, 18]),
   midi.PitchWheelEvent(tick=1, channel=1, data=[96, 17]),
   midi.PitchWheelEvent(tick=2, channel=1, data=[64, 17]),
   midi.PitchWheelEvent(tick=1, channel=1, data=[32, 17]),
   midi.PitchWheelEvent(tick=2, channel=1, data=[0, 17]),
   midi.PitchWheelEvent(tick=1, channel=1, data=[96, 16]),
   midi.PitchWheelEvent(tick=2, channel=1, data=[64, 16]),
   midi.PitchWheelEvent(tick=1, channel=1, data=[32, 16]),
   midi.PitchWheelEvent(tick=2, channel=1, data=[0, 16]),
   midi.PitchWheelEvent(tick=1, channel=1, data=[96, 15]),
   midi.PitchWheelEvent(tick=2, channel=1, data=[64, 15]),
   midi.PitchWheelEvent(tick=1, channel=1, data=[32, 15]),
   midi.PitchWheelEvent(tick=2, channel=1, data=[0, 15]),
   midi.PitchWheelEvent(tick=1, channel=1, data=[96, 14]),
   midi.PitchWheelEvent(tick=2, channel=1, data=[64, 14]),
   midi.PitchWheelEvent(tick=1, channel=1, data=[32, 14]),
   midi.PitchWheelEvent(tick=2, channel=1, data=[0, 14]),
   midi.PitchWheelEvent(tick=1, channel=1, data=[96, 13]),
   midi.PitchWheelEvent(tick=2, channel=1, data=[64, 13]),
   midi.PitchWheelEvent(tick=1, channel=1, data=[32, 13]),
   midi.PitchWheelEvent(tick=2, channel=1, data=[0, 13]),
   midi.PitchWheelEvent(tick=1, channel=1, data=[96, 12]),
   midi.PitchWheelEvent(tick=2, channel=1, data=[64, 12]),
   midi.PitchWheelEvent(tick=1, channel=1, data=[32, 12]),
   midi.PitchWheelEvent(tick=2, channel=1, data=[0, 12]),
   midi.PitchWheelEvent(tick=1, channel=1, data=[96, 11]),
   midi.PitchWheelEvent(tick=2, channel=1, data=[64, 11]),
   midi.PitchWheelEvent(tick=1, channel=1, data=[32, 11]),
   midi.PitchWheelEvent(tick=2, channel=1, data=[0, 11]),
   midi.PitchWheelEvent(tick=1, channel=1, data=[96, 10]),
   midi.PitchWheelEvent(tick=2, channel=1, data=[64, 10]),
   midi.PitchWheelEvent(tick=1, channel=1, data=[32, 10]),
   midi.PitchWheelEvent(tick=2, channel=1, data=[0, 10]),
   midi.PitchWheelEvent(tick=1, channel=1, data=[96, 9]),
   midi.PitchWheelEvent(tick=2, channel=1, data=[64, 9]),
   midi.PitchWheelEvent(tick=1, channel=1, data=[32, 9]),
   midi.PitchWheelEvent(tick=2, channel=1, data=[0, 9]),
   midi.PitchWheelEvent(tick=1, channel=1, data=[96, 8]),
   midi.PitchWheelEvent(tick=2, channel=1, data=[64, 8]),
   midi.PitchWheelEvent(tick=1, channel=1, data=[32, 8]),
   midi.PitchWheelEvent(tick=2, channel=1, data=[0, 8]),
   midi.PitchWheelEvent(tick=1, channel=1, data=[96, 7]),
   midi.PitchWheelEvent(tick=2, channel=1, data=[64, 7]),
   midi.PitchWheelEvent(tick=1, channel=1, data=[32, 7]),
   midi.PitchWheelEvent(tick=2, channel=1, data=[0, 7]),
   midi.PitchWheelEvent(tick=1, channel=1, data=[96, 6]),
   midi.PitchWheelEvent(tick=2, channel=1, data=[64, 6]),
   midi.PitchWheelEvent(tick=1, channel=1, data=[32, 6]),
   midi.PitchWheelEvent(tick=2, channel=1, data=[0, 6]),
   midi.PitchWheelEvent(tick=1, channel=1, data=[96, 5]),
   midi.PitchWheelEvent(tick=2, channel=1, data=[64, 5]),
   midi.PitchWheelEvent(tick=1, channel=1, data=[32, 5]),
   midi.PitchWheelEvent(tick=2, channel=1, data=[0, 5]),
   midi.PitchWheelEvent(tick=1, channel=1, data=[96, 4]),
   midi.PitchWheelEvent(tick=2, channel=1, data=[64, 4]),
   midi.PitchWheelEvent(tick=1, channel=1, data=[32, 4]),
   midi.PitchWheelEvent(tick=2, channel=1, data=[0, 4]),
   midi.PitchWheelEvent(tick=1, channel=1, data=[96, 3]),
   midi.PitchWheelEvent(tick=2, channel=1, data=[64, 3]),
   midi.PitchWheelEvent(tick=1, channel=1, data=[32, 3]),
   midi.PitchWheelEvent(tick=2, channel=1, data=[0, 3]),
   midi.PitchWheelEvent(tick=1, channel=1, data=[96, 2]),
   midi.PitchWheelEvent(tick=2, channel=1, data=[64, 2]),
   midi.PitchWheelEvent(tick=1, channel=1, data=[32, 2]),
   midi.PitchWheelEvent(tick=2, channel=1, data=[0, 2]),
   midi.PitchWheelEvent(tick=1, channel=1, data=[96, 1]),
   midi.PitchWheelEvent(tick=2, channel=1, data=[64, 1]),
   midi.PitchWheelEvent(tick=1, channel=1, data=[32, 1]),
   midi.PitchWheelEvent(tick=2, channel=1, data=[0, 1]),
   midi.PitchWheelEvent(tick=1, channel=1, data=[96, 0]),
   midi.PitchWheelEvent(tick=2, channel=1, data=[64, 0]),
   midi.PitchWheelEvent(tick=1, channel=1, data=[32, 0]),
   midi.PitchWheelEvent(tick=2, channel=1, data=[0, 0]),
   midi.NoteOnEvent(tick=160, channel=1, data=[71, 0]),
   midi.PitchWheelEvent(tick=32, channel=1, data=[0, 64]),
   midi.NoteOnEvent(tick=0, channel=1, data=[71, 110]),
   midi.NoteOnEvent(tick=334, channel=1, data=[71, 0]),
   midi.NoteOnEvent(tick=2, channel=1, data=[72, 110]),
   midi.NoteOnEvent(tick=22, channel=1, data=[72, 0]),
   midi.NoteOnEvent(tick=2, channel=1, data=[71, 110]),
   midi.NoteOnEvent(tick=22, channel=1, data=[71, 0]),
   midi.NoteOnEvent(tick=2, channel=1, data=[69, 110]),
   midi.NoteOnEvent(tick=334, channel=1, data=[69, 0]),
   midi.NoteOnEvent(tick=2, channel=1, data=[71, 110]),
   midi.NoteOnEvent(tick=22, channel=1, data=[71, 0]),
   midi.NoteOnEvent(tick=2, channel=1, data=[72, 110]),
   midi.NoteOnEvent(tick=22, channel=1, data=[72, 0]),
   midi.NoteOnEvent(tick=2, channel=1, data=[71, 110]),
   midi.NoteOnEvent(tick=334, channel=1, data=[71, 0]),
   midi.NoteOnEvent(tick=2, channel=1, data=[72, 110]),
   midi.NoteOnEvent(tick=22, channel=1, data=[72, 0]),
   midi.NoteOnEvent(tick=2, channel=1, data=[71, 110]),
   midi.NoteOnEvent(tick=22, channel=1, data=[71, 0]),
   midi.NoteOnEvent(tick=2, channel=1, data=[69, 110]),
   midi.NoteOnEvent(tick=334, channel=1, data=[69, 0]),
   midi.NoteOnEvent(tick=2, channel=1, data=[71, 110]),
   midi.NoteOnEvent(tick=22, channel=1, data=[71, 0]),
   midi.NoteOnEvent(tick=2, channel=1, data=[72, 110]),
   midi.NoteOnEvent(tick=22, channel=1, data=[72, 0]),
   midi.NoteOnEvent(tick=2, channel=1, data=[71, 110]),
   midi.NoteOnEvent(tick=334, channel=1, data=[71, 0]),
   midi.NoteOnEvent(tick=2, channel=1, data=[72, 110]),
   midi.NoteOnEvent(tick=22, channel=1, data=[72, 0]),
   midi.NoteOnEvent(tick=2, channel=1, data=[71, 110]),
   midi.NoteOnEvent(tick=22, channel=1, data=[71, 0]),
   midi.NoteOnEvent(tick=2, channel=1, data=[69, 110]),
   midi.NoteOnEvent(tick=160, channel=1, data=[69, 0]),
   midi.PitchWheelEvent(tick=32, channel=1, data=[0, 64]),
   midi.NoteOnEvent(tick=0, channel=1, data=[71, 110]),
   midi.PitchWheelEvent(tick=1, channel=1, data=[96, 63]),
   midi.PitchWheelEvent(tick=2, channel=1, data=[64, 63]),
   midi.PitchWheelEvent(tick=1, channel=1, data=[32, 63]),
   midi.PitchWheelEvent(tick=2, channel=1, data=[0, 63]),
   midi.PitchWheelEvent(tick=1, channel=1, data=[96, 62]),
   midi.PitchWheelEvent(tick=2, channel=1, data=[64, 62]),
   midi.PitchWheelEvent(tick=1, channel=1, data=[32, 62]),
   midi.PitchWheelEvent(tick=2, channel=1, data=[0, 62]),
   midi.PitchWheelEvent(tick=1, channel=1, data=[96, 61]),
   midi.PitchWheelEvent(tick=2, channel=1, data=[64, 61]),
   midi.PitchWheelEvent(tick=1, channel=1, data=[32, 61]),
   midi.PitchWheelEvent(tick=2, channel=1, data=[0, 61]),
   midi.PitchWheelEvent(tick=1, channel=1, data=[96, 60]),
   midi.PitchWheelEvent(tick=2, channel=1, data=[64, 60]),
   midi.PitchWheelEvent(tick=1, channel=1, data=[32, 60]),
   midi.PitchWheelEvent(tick=2, channel=1, data=[0, 60]),
   midi.PitchWheelEvent(tick=1, channel=1, data=[96, 59]),
   midi.PitchWheelEvent(tick=2, channel=1, data=[64, 59]),
   midi.PitchWheelEvent(tick=1, channel=1, data=[32, 59]),
   midi.PitchWheelEvent(tick=2, channel=1, data=[0, 59]),
   midi.PitchWheelEvent(tick=1, channel=1, data=[96, 58]),
   midi.PitchWheelEvent(tick=2, channel=1, data=[64, 58]),
   midi.PitchWheelEvent(tick=1, channel=1, data=[32, 58]),
   midi.PitchWheelEvent(tick=2, channel=1, data=[0, 58]),
   midi.PitchWheelEvent(tick=1, channel=1, data=[96, 57]),
   midi.PitchWheelEvent(tick=2, channel=1, data=[64, 57]),
   midi.PitchWheelEvent(tick=1, channel=1, data=[32, 57]),
   midi.PitchWheelEvent(tick=2, channel=1, data=[0, 57]),
   midi.PitchWheelEvent(tick=1, channel=1, data=[96, 56]),
   midi.PitchWheelEvent(tick=2, channel=1, data=[64, 56]),
   midi.PitchWheelEvent(tick=1, channel=1, data=[32, 56]),
   midi.PitchWheelEvent(tick=2, channel=1, data=[0, 56]),
   midi.PitchWheelEvent(tick=1, channel=1, data=[96, 55]),
   midi.PitchWheelEvent(tick=2, channel=1, data=[64, 55]),
   midi.PitchWheelEvent(tick=1, channel=1, data=[32, 55]),
   midi.PitchWheelEvent(tick=2, channel=1, data=[0, 55]),
   midi.PitchWheelEvent(tick=1, channel=1, data=[96, 54]),
   midi.PitchWheelEvent(tick=2, channel=1, data=[64, 54]),
   midi.PitchWheelEvent(tick=1, channel=1, data=[32, 54]),
   midi.PitchWheelEvent(tick=2, channel=1, data=[0, 54]),
   midi.PitchWheelEvent(tick=1, channel=1, data=[96, 53]),
   midi.PitchWheelEvent(tick=2, channel=1, data=[64, 53]),
   midi.PitchWheelEvent(tick=1, channel=1, data=[32, 53]),
   midi.PitchWheelEvent(tick=2, channel=1, data=[0, 53]),
   midi.PitchWheelEvent(tick=1, channel=1, data=[96, 52]),
   midi.PitchWheelEvent(tick=2, channel=1, data=[64, 52]),
   midi.PitchWheelEvent(tick=1, channel=1, data=[32, 52]),
   midi.PitchWheelEvent(tick=2, channel=1, data=[0, 52]),
   midi.PitchWheelEvent(tick=1, channel=1, data=[96, 51]),
   midi.PitchWheelEvent(tick=2, channel=1, data=[64, 51]),
   midi.PitchWheelEvent(tick=1, channel=1, data=[32, 51]),
   midi.PitchWheelEvent(tick=2, channel=1, data=[0, 51]),
   midi.PitchWheelEvent(tick=1, channel=1, data=[96, 50]),
   midi.PitchWheelEvent(tick=2, channel=1, data=[64, 50]),
   midi.PitchWheelEvent(tick=1, channel=1, data=[32, 50]),
   midi.PitchWheelEvent(tick=2, channel=1, data=[0, 50]),
   midi.PitchWheelEvent(tick=1, channel=1, data=[96, 49]),
   midi.PitchWheelEvent(tick=2, channel=1, data=[64, 49]),
   midi.PitchWheelEvent(tick=1, channel=1, data=[32, 49]),
   midi.PitchWheelEvent(tick=2, channel=1, data=[0, 49]),
   midi.PitchWheelEvent(tick=1, channel=1, data=[96, 48]),
   midi.PitchWheelEvent(tick=2, channel=1, data=[64, 48]),
   midi.PitchWheelEvent(tick=1, channel=1, data=[32, 48]),
   midi.PitchWheelEvent(tick=2, channel=1, data=[0, 48]),
   midi.PitchWheelEvent(tick=1, channel=1, data=[96, 47]),
   midi.PitchWheelEvent(tick=2, channel=1, data=[64, 47]),
   midi.PitchWheelEvent(tick=1, channel=1, data=[32, 47]),
   midi.PitchWheelEvent(tick=2, channel=1, data=[0, 47]),
   midi.PitchWheelEvent(tick=1, channel=1, data=[96, 46]),
   midi.PitchWheelEvent(tick=2, channel=1, data=[64, 46]),
   midi.PitchWheelEvent(tick=1, channel=1, data=[32, 46]),
   midi.PitchWheelEvent(tick=2, channel=1, data=[0, 46]),
   midi.PitchWheelEvent(tick=1, channel=1, data=[96, 45]),
   midi.PitchWheelEvent(tick=2, channel=1, data=[64, 45]),
   midi.PitchWheelEvent(tick=1, channel=1, data=[32, 45]),
   midi.PitchWheelEvent(tick=2, channel=1, data=[0, 45]),
   midi.PitchWheelEvent(tick=1, channel=1, data=[96, 44]),
   midi.PitchWheelEvent(tick=2, channel=1, data=[64, 44]),
   midi.PitchWheelEvent(tick=1, channel=1, data=[32, 44]),
   midi.PitchWheelEvent(tick=2, channel=1, data=[0, 44]),
   midi.PitchWheelEvent(tick=1, channel=1, data=[96, 43]),
   midi.PitchWheelEvent(tick=2, channel=1, data=[64, 43]),
   midi.PitchWheelEvent(tick=1, channel=1, data=[32, 43]),
   midi.PitchWheelEvent(tick=2, channel=1, data=[0, 43]),
   midi.PitchWheelEvent(tick=1, channel=1, data=[96, 42]),
   midi.PitchWheelEvent(tick=2, channel=1, data=[64, 42]),
   midi.PitchWheelEvent(tick=1, channel=1, data=[32, 42]),
   midi.PitchWheelEvent(tick=2, channel=1, data=[0, 42]),
   midi.PitchWheelEvent(tick=1, channel=1, data=[96, 41]),
   midi.PitchWheelEvent(tick=2, channel=1, data=[64, 41]),
   midi.PitchWheelEvent(tick=1, channel=1, data=[32, 41]),
   midi.PitchWheelEvent(tick=2, channel=1, data=[0, 41]),
   midi.PitchWheelEvent(tick=1, channel=1, data=[96, 40]),
   midi.PitchWheelEvent(tick=2, channel=1, data=[64, 40]),
   midi.PitchWheelEvent(tick=1, channel=1, data=[32, 40]),
   midi.PitchWheelEvent(tick=2, channel=1, data=[0, 40]),
   midi.PitchWheelEvent(tick=1, channel=1, data=[96, 39]),
   midi.PitchWheelEvent(tick=2, channel=1, data=[64, 39]),
   midi.PitchWheelEvent(tick=1, channel=1, data=[32, 39]),
   midi.PitchWheelEvent(tick=2, channel=1, data=[0, 39]),
   midi.PitchWheelEvent(tick=1, channel=1, data=[96, 38]),
   midi.PitchWheelEvent(tick=2, channel=1, data=[64, 38]),
   midi.PitchWheelEvent(tick=1, channel=1, data=[32, 38]),
   midi.PitchWheelEvent(tick=2, channel=1, data=[0, 38]),
   midi.PitchWheelEvent(tick=1, channel=1, data=[96, 37]),
   midi.PitchWheelEvent(tick=2, channel=1, data=[64, 37]),
   midi.PitchWheelEvent(tick=1, channel=1, data=[32, 37]),
   midi.PitchWheelEvent(tick=2, channel=1, data=[0, 37]),
   midi.PitchWheelEvent(tick=1, channel=1, data=[96, 36]),
   midi.PitchWheelEvent(tick=2, channel=1, data=[64, 36]),
   midi.PitchWheelEvent(tick=1, channel=1, data=[32, 36]),
   midi.PitchWheelEvent(tick=2, channel=1, data=[0, 36]),
   midi.PitchWheelEvent(tick=1, channel=1, data=[96, 35]),
   midi.PitchWheelEvent(tick=2, channel=1, data=[64, 35]),
   midi.PitchWheelEvent(tick=1, channel=1, data=[32, 35]),
   midi.PitchWheelEvent(tick=2, channel=1, data=[0, 35]),
   midi.PitchWheelEvent(tick=1, channel=1, data=[96, 34]),
   midi.PitchWheelEvent(tick=2, channel=1, data=[64, 34]),
   midi.PitchWheelEvent(tick=1, channel=1, data=[32, 34]),
   midi.PitchWheelEvent(tick=2, channel=1, data=[0, 34]),
   midi.PitchWheelEvent(tick=1, channel=1, data=[96, 33]),
   midi.PitchWheelEvent(tick=2, channel=1, data=[64, 33]),
   midi.PitchWheelEvent(tick=1, channel=1, data=[32, 33]),
   midi.PitchWheelEvent(tick=2, channel=1, data=[0, 33]),
   midi.PitchWheelEvent(tick=1, channel=1, data=[96, 32]),
   midi.PitchWheelEvent(tick=2, channel=1, data=[64, 32]),
   midi.PitchWheelEvent(tick=1, channel=1, data=[32, 32]),
   midi.PitchWheelEvent(tick=2, channel=1, data=[0, 32]),
   midi.PitchWheelEvent(tick=1, channel=1, data=[96, 31]),
   midi.PitchWheelEvent(tick=2, channel=1, data=[64, 31]),
   midi.PitchWheelEvent(tick=1, channel=1, data=[32, 31]),
   midi.PitchWheelEvent(tick=2, channel=1, data=[0, 31]),
   midi.PitchWheelEvent(tick=1, channel=1, data=[96, 30]),
   midi.PitchWheelEvent(tick=2, channel=1, data=[64, 30]),
   midi.PitchWheelEvent(tick=1, channel=1, data=[32, 30]),
   midi.PitchWheelEvent(tick=2, channel=1, data=[0, 30]),
   midi.PitchWheelEvent(tick=1, channel=1, data=[96, 29]),
   midi.PitchWheelEvent(tick=2, channel=1, data=[64, 29]),
   midi.PitchWheelEvent(tick=1, channel=1, data=[32, 29]),
   midi.PitchWheelEvent(tick=2, channel=1, data=[0, 29]),
   midi.PitchWheelEvent(tick=1, channel=1, data=[96, 28]),
   midi.PitchWheelEvent(tick=2, channel=1, data=[64, 28]),
   midi.PitchWheelEvent(tick=1, channel=1, data=[32, 28]),
   midi.PitchWheelEvent(tick=2, channel=1, data=[0, 28]),
   midi.PitchWheelEvent(tick=1, channel=1, data=[96, 27]),
   midi.PitchWheelEvent(tick=2, channel=1, data=[64, 27]),
   midi.PitchWheelEvent(tick=1, channel=1, data=[32, 27]),
   midi.PitchWheelEvent(tick=2, channel=1, data=[0, 27]),
   midi.PitchWheelEvent(tick=1, channel=1, data=[96, 26]),
   midi.PitchWheelEvent(tick=2, channel=1, data=[64, 26]),
   midi.PitchWheelEvent(tick=1, channel=1, data=[32, 26]),
   midi.PitchWheelEvent(tick=2, channel=1, data=[0, 26]),
   midi.PitchWheelEvent(tick=1, channel=1, data=[96, 25]),
   midi.PitchWheelEvent(tick=2, channel=1, data=[64, 25]),
   midi.PitchWheelEvent(tick=1, channel=1, data=[32, 25]),
   midi.PitchWheelEvent(tick=2, channel=1, data=[0, 25]),
   midi.PitchWheelEvent(tick=1, channel=1, data=[96, 24]),
   midi.PitchWheelEvent(tick=2, channel=1, data=[64, 24]),
   midi.PitchWheelEvent(tick=1, channel=1, data=[32, 24]),
   midi.PitchWheelEvent(tick=2, channel=1, data=[0, 24]),
   midi.PitchWheelEvent(tick=1, channel=1, data=[96, 23]),
   midi.PitchWheelEvent(tick=2, channel=1, data=[64, 23]),
   midi.PitchWheelEvent(tick=1, channel=1, data=[32, 23]),
   midi.PitchWheelEvent(tick=2, channel=1, data=[0, 23]),
   midi.PitchWheelEvent(tick=1, channel=1, data=[96, 22]),
   midi.PitchWheelEvent(tick=2, channel=1, data=[64, 22]),
   midi.PitchWheelEvent(tick=1, channel=1, data=[32, 22]),
   midi.PitchWheelEvent(tick=2, channel=1, data=[0, 22]),
   midi.PitchWheelEvent(tick=1, channel=1, data=[96, 21]),
   midi.PitchWheelEvent(tick=2, channel=1, data=[64, 21]),
   midi.PitchWheelEvent(tick=1, channel=1, data=[32, 21]),
   midi.PitchWheelEvent(tick=2, channel=1, data=[0, 21]),
   midi.PitchWheelEvent(tick=1, channel=1, data=[96, 20]),
   midi.PitchWheelEvent(tick=2, channel=1, data=[64, 20]),
   midi.PitchWheelEvent(tick=1, channel=1, data=[32, 20]),
   midi.PitchWheelEvent(tick=2, channel=1, data=[0, 20]),
   midi.PitchWheelEvent(tick=1, channel=1, data=[96, 19]),
   midi.PitchWheelEvent(tick=2, channel=1, data=[64, 19]),
   midi.PitchWheelEvent(tick=1, channel=1, data=[32, 19]),
   midi.PitchWheelEvent(tick=2, channel=1, data=[0, 19]),
   midi.PitchWheelEvent(tick=1, channel=1, data=[96, 18]),
   midi.PitchWheelEvent(tick=2, channel=1, data=[64, 18]),
   midi.PitchWheelEvent(tick=1, channel=1, data=[32, 18]),
   midi.PitchWheelEvent(tick=2, channel=1, data=[0, 18]),
   midi.PitchWheelEvent(tick=1, channel=1, data=[96, 17]),
   midi.PitchWheelEvent(tick=2, channel=1, data=[64, 17]),
   midi.PitchWheelEvent(tick=1, channel=1, data=[32, 17]),
   midi.PitchWheelEvent(tick=2, channel=1, data=[0, 17]),
   midi.PitchWheelEvent(tick=1, channel=1, data=[96, 16]),
   midi.PitchWheelEvent(tick=2, channel=1, data=[64, 16]),
   midi.PitchWheelEvent(tick=1, channel=1, data=[32, 16]),
   midi.PitchWheelEvent(tick=2, channel=1, data=[0, 16]),
   midi.PitchWheelEvent(tick=1, channel=1, data=[96, 15]),
   midi.PitchWheelEvent(tick=2, channel=1, data=[64, 15]),
   midi.PitchWheelEvent(tick=1, channel=1, data=[32, 15]),
   midi.PitchWheelEvent(tick=2, channel=1, data=[0, 15]),
   midi.PitchWheelEvent(tick=1, channel=1, data=[96, 14]),
   midi.PitchWheelEvent(tick=2, channel=1, data=[64, 14]),
   midi.PitchWheelEvent(tick=1, channel=1, data=[32, 14]),
   midi.PitchWheelEvent(tick=2, channel=1, data=[0, 14]),
   midi.PitchWheelEvent(tick=1, channel=1, data=[96, 13]),
   midi.PitchWheelEvent(tick=2, channel=1, data=[64, 13]),
   midi.PitchWheelEvent(tick=1, channel=1, data=[32, 13]),
   midi.PitchWheelEvent(tick=2, channel=1, data=[0, 13]),
   midi.PitchWheelEvent(tick=1, channel=1, data=[96, 12]),
   midi.PitchWheelEvent(tick=2, channel=1, data=[64, 12]),
   midi.PitchWheelEvent(tick=1, channel=1, data=[32, 12]),
   midi.PitchWheelEvent(tick=2, channel=1, data=[0, 12]),
   midi.PitchWheelEvent(tick=1, channel=1, data=[96, 11]),
   midi.PitchWheelEvent(tick=2, channel=1, data=[64, 11]),
   midi.PitchWheelEvent(tick=1, channel=1, data=[32, 11]),
   midi.PitchWheelEvent(tick=2, channel=1, data=[0, 11]),
   midi.PitchWheelEvent(tick=1, channel=1, data=[96, 10]),
   midi.PitchWheelEvent(tick=2, channel=1, data=[64, 10]),
   midi.PitchWheelEvent(tick=1, channel=1, data=[32, 10]),
   midi.PitchWheelEvent(tick=2, channel=1, data=[0, 10]),
   midi.PitchWheelEvent(tick=1, channel=1, data=[96, 9]),
   midi.PitchWheelEvent(tick=2, channel=1, data=[64, 9]),
   midi.PitchWheelEvent(tick=1, channel=1, data=[32, 9]),
   midi.PitchWheelEvent(tick=2, channel=1, data=[0, 9]),
   midi.PitchWheelEvent(tick=1, channel=1, data=[96, 8]),
   midi.PitchWheelEvent(tick=2, channel=1, data=[64, 8]),
   midi.PitchWheelEvent(tick=1, channel=1, data=[32, 8]),
   midi.PitchWheelEvent(tick=2, channel=1, data=[0, 8]),
   midi.PitchWheelEvent(tick=1, channel=1, data=[96, 7]),
   midi.PitchWheelEvent(tick=2, channel=1, data=[64, 7]),
   midi.PitchWheelEvent(tick=1, channel=1, data=[32, 7]),
   midi.PitchWheelEvent(tick=2, channel=1, data=[0, 7]),
   midi.PitchWheelEvent(tick=1, channel=1, data=[96, 6]),
   midi.PitchWheelEvent(tick=2, channel=1, data=[64, 6]),
   midi.PitchWheelEvent(tick=1, channel=1, data=[32, 6]),
   midi.PitchWheelEvent(tick=2, channel=1, data=[0, 6]),
   midi.PitchWheelEvent(tick=1, channel=1, data=[96, 5]),
   midi.PitchWheelEvent(tick=2, channel=1, data=[64, 5]),
   midi.PitchWheelEvent(tick=1, channel=1, data=[32, 5]),
   midi.PitchWheelEvent(tick=2, channel=1, data=[0, 5]),
   midi.PitchWheelEvent(tick=1, channel=1, data=[96, 4]),
   midi.PitchWheelEvent(tick=2, channel=1, data=[64, 4]),
   midi.PitchWheelEvent(tick=1, channel=1, data=[32, 4]),
   midi.PitchWheelEvent(tick=2, channel=1, data=[0, 4]),
   midi.PitchWheelEvent(tick=1, channel=1, data=[96, 3]),
   midi.PitchWheelEvent(tick=2, channel=1, data=[64, 3]),
   midi.PitchWheelEvent(tick=1, channel=1, data=[32, 3]),
   midi.PitchWheelEvent(tick=2, channel=1, data=[0, 3]),
   midi.PitchWheelEvent(tick=1, channel=1, data=[96, 2]),
   midi.PitchWheelEvent(tick=2, channel=1, data=[64, 2]),
   midi.PitchWheelEvent(tick=1, channel=1, data=[32, 2]),
   midi.PitchWheelEvent(tick=2, channel=1, data=[0, 2]),
   midi.PitchWheelEvent(tick=1, channel=1, data=[96, 1]),
   midi.PitchWheelEvent(tick=2, channel=1, data=[64, 1]),
   midi.PitchWheelEvent(tick=1, channel=1, data=[32, 1]),
   midi.PitchWheelEvent(tick=2, channel=1, data=[0, 1]),
   midi.PitchWheelEvent(tick=1, channel=1, data=[96, 0]),
   midi.PitchWheelEvent(tick=2, channel=1, data=[64, 0]),
   midi.PitchWheelEvent(tick=1, channel=1, data=[32, 0]),
   midi.PitchWheelEvent(tick=2, channel=1, data=[0, 0]),
   midi.NoteOnEvent(tick=160, channel=1, data=[71, 0]),
   midi.PitchWheelEvent(tick=32, channel=1, data=[0, 64]),
   midi.NoteOnEvent(tick=0, channel=1, data=[59, 110]),
   midi.NoteOnEvent(tick=0, channel=1, data=[66, 110]),
   midi.NoteOnEvent(tick=0, channel=1, data=[71, 110]),
   midi.NoteOnEvent(tick=126, channel=1, data=[59, 0]),
   midi.NoteOnEvent(tick=0, channel=1, data=[66, 0]),
   midi.NoteOnEvent(tick=0, channel=1, data=[71, 0]),
   midi.NoteOnEvent(tick=2, channel=1, data=[58, 110]),
   midi.NoteOnEvent(tick=0, channel=1, data=[65, 110]),
   midi.NoteOnEvent(tick=0, channel=1, data=[70, 110]),
   midi.NoteOnEvent(tick=126, channel=1, data=[58, 0]),
   midi.NoteOnEvent(tick=0, channel=1, data=[65, 0]),
   midi.NoteOnEvent(tick=0, channel=1, data=[70, 0]),
   midi.NoteOnEvent(tick=2, channel=1, data=[59, 110]),
   midi.NoteOnEvent(tick=0, channel=1, data=[66, 110]),
   midi.NoteOnEvent(tick=0, channel=1, data=[71, 110]),
   midi.NoteOnEvent(tick=126, channel=1, data=[59, 0]),
   midi.NoteOnEvent(tick=0, channel=1, data=[66, 0]),
   midi.NoteOnEvent(tick=0, channel=1, data=[71, 0]),
   midi.NoteOnEvent(tick=2, channel=1, data=[60, 110]),
   midi.NoteOnEvent(tick=0, channel=1, data=[67, 110]),
   midi.NoteOnEvent(tick=0, channel=1, data=[72, 110]),
   midi.NoteOnEvent(tick=160, channel=1, data=[60, 0]),
   midi.NoteOnEvent(tick=0, channel=1, data=[67, 0]),
   midi.NoteOnEvent(tick=0, channel=1, data=[72, 0]),
   midi.NoteOnEvent(tick=32, channel=1, data=[59, 110]),
   midi.NoteOnEvent(tick=0, channel=1, data=[66, 110]),
   midi.NoteOnEvent(tick=0, channel=1, data=[71, 110]),
   midi.NoteOnEvent(tick=160, channel=1, data=[59, 0]),
   midi.NoteOnEvent(tick=0, channel=1, data=[66, 0]),
   midi.NoteOnEvent(tick=0, channel=1, data=[71, 0]),
   midi.NoteOnEvent(tick=32, channel=1, data=[52, 110]),
   midi.NoteOnEvent(tick=0, channel=1, data=[64, 110]),
   midi.NoteOnEvent(tick=0, channel=1, data=[71, 110]),
   midi.NoteOnEvent(tick=0, channel=1, data=[76, 110]),
   midi.NoteOnEvent(tick=94, channel=1, data=[52, 0]),
   midi.NoteOnEvent(tick=0, channel=1, data=[64, 0]),
   midi.NoteOnEvent(tick=0, channel=1, data=[71, 0]),
   midi.NoteOnEvent(tick=0, channel=1, data=[76, 0]),
   midi.NoteOnEvent(tick=2, channel=1, data=[52, 110]),
   midi.NoteOnEvent(tick=46, channel=1, data=[52, 0]),
   midi.NoteOnEvent(tick=2, channel=1, data=[52, 110]),
   midi.NoteOnEvent(tick=46, channel=1, data=[52, 0]),
   midi.NoteOnEvent(tick=2, channel=1, data=[52, 110]),
   midi.NoteOnEvent(tick=94, channel=1, data=[52, 0]),
   midi.NoteOnEvent(tick=2, channel=1, data=[52, 110]),
   midi.NoteOnEvent(tick=94, channel=1, data=[52, 0]),
   midi.NoteOnEvent(tick=2, channel=1, data=[52, 110]),
   midi.NoteOnEvent(tick=94, channel=1, data=[52, 0]),
   midi.NoteOnEvent(tick=2, channel=1, data=[52, 110]),
   midi.NoteOnEvent(tick=94, channel=1, data=[52, 0]),
   midi.NoteOnEvent(tick=2, channel=1, data=[52, 110]),
   midi.NoteOnEvent(tick=94, channel=1, data=[52, 0]),
   midi.NoteOnEvent(tick=2, channel=1, data=[55, 110]),
   midi.NoteOnEvent(tick=0, channel=1, data=[62, 110]),
   midi.NoteOnEvent(tick=0, channel=1, data=[67, 110]),
   midi.NoteOnEvent(tick=574, channel=1, data=[55, 0]),
   midi.NoteOnEvent(tick=0, channel=1, data=[62, 0]),
   midi.NoteOnEvent(tick=0, channel=1, data=[67, 0]),
   midi.NoteOnEvent(tick=2, channel=1, data=[58, 110]),
   midi.NoteOnEvent(tick=0, channel=1, data=[65, 110]),
   midi.NoteOnEvent(tick=0, channel=1, data=[70, 110]),
   midi.NoteOnEvent(tick=160, channel=1, data=[58, 0]),
   midi.NoteOnEvent(tick=0, channel=1, data=[65, 0]),
   midi.NoteOnEvent(tick=0, channel=1, data=[70, 0]),
   midi.NoteOnEvent(tick=32, channel=1, data=[54, 110]),
   midi.NoteOnEvent(tick=0, channel=1, data=[61, 110]),
   midi.NoteOnEvent(tick=0, channel=1, data=[66, 110]),
   midi.NoteOnEvent(tick=574, channel=1, data=[54, 0]),
   midi.NoteOnEvent(tick=0, channel=1, data=[61, 0]),
   midi.NoteOnEvent(tick=0, channel=1, data=[66, 0]),
   midi.NoteOnEvent(tick=2, channel=1, data=[57, 110]),
   midi.NoteOnEvent(tick=0, channel=1, data=[64, 110]),
   midi.NoteOnEvent(tick=0, channel=1, data=[69, 110]),
   midi.NoteOnEvent(tick=160, channel=1, data=[57, 0]),
   midi.NoteOnEvent(tick=0, channel=1, data=[64, 0]),
   midi.NoteOnEvent(tick=0, channel=1, data=[69, 0]),
   midi.NoteOnEvent(tick=32, channel=1, data=[53, 110]),
   midi.NoteOnEvent(tick=0, channel=1, data=[60, 110]),
   midi.NoteOnEvent(tick=0, channel=1, data=[65, 110]),
   midi.NoteOnEvent(tick=574, channel=1, data=[53, 0]),
   midi.NoteOnEvent(tick=0, channel=1, data=[60, 0]),
   midi.NoteOnEvent(tick=0, channel=1, data=[65, 0]),
   midi.NoteOnEvent(tick=2, channel=1, data=[55, 110]),
   midi.NoteOnEvent(tick=0, channel=1, data=[62, 110]),
   midi.NoteOnEvent(tick=0, channel=1, data=[67, 110]),
   midi.NoteOnEvent(tick=256, channel=1, data=[55, 0]),
   midi.NoteOnEvent(tick=0, channel=1, data=[62, 0]),
   midi.NoteOnEvent(tick=0, channel=1, data=[67, 0]),
   midi.NoteOnEvent(tick=32, channel=1, data=[52, 110]),
   midi.NoteOnEvent(tick=94, channel=1, data=[52, 0]),
   midi.NoteOnEvent(tick=2, channel=1, data=[52, 110]),
   midi.NoteOnEvent(tick=46, channel=1, data=[52, 0]),
   midi.NoteOnEvent(tick=2, channel=1, data=[52, 110]),
   midi.NoteOnEvent(tick=46, channel=1, data=[52, 0]),
   midi.NoteOnEvent(tick=2, channel=1, data=[52, 110]),
   midi.NoteOnEvent(tick=94, channel=1, data=[52, 0]),
   midi.NoteOnEvent(tick=2, channel=1, data=[52, 110]),
   midi.NoteOnEvent(tick=94, channel=1, data=[52, 0]),
   midi.NoteOnEvent(tick=2, channel=1, data=[52, 110]),
   midi.NoteOnEvent(tick=94, channel=1, data=[52, 0]),
   midi.NoteOnEvent(tick=2, channel=1, data=[52, 110]),
   midi.NoteOnEvent(tick=94, channel=1, data=[52, 0]),
   midi.NoteOnEvent(tick=2, channel=1, data=[52, 110]),
   midi.NoteOnEvent(tick=94, channel=1, data=[52, 0]),
   midi.NoteOnEvent(tick=2, channel=1, data=[55, 110]),
   midi.NoteOnEvent(tick=0, channel=1, data=[62, 110]),
   midi.NoteOnEvent(tick=0, channel=1, data=[67, 110]),
   midi.NoteOnEvent(tick=574, channel=1, data=[55, 0]),
   midi.NoteOnEvent(tick=0, channel=1, data=[62, 0]),
   midi.NoteOnEvent(tick=0, channel=1, data=[67, 0]),
   midi.NoteOnEvent(tick=2, channel=1, data=[58, 110]),
   midi.NoteOnEvent(tick=0, channel=1, data=[65, 110]),
   midi.NoteOnEvent(tick=0, channel=1, data=[70, 110]),
   midi.NoteOnEvent(tick=160, channel=1, data=[58, 0]),
   midi.NoteOnEvent(tick=0, channel=1, data=[65, 0]),
   midi.NoteOnEvent(tick=0, channel=1, data=[70, 0]),
   midi.NoteOnEvent(tick=32, channel=1, data=[54, 110]),
   midi.NoteOnEvent(tick=0, channel=1, data=[61, 110]),
   midi.NoteOnEvent(tick=0, channel=1, data=[66, 110]),
   midi.NoteOnEvent(tick=574, channel=1, data=[54, 0]),
   midi.NoteOnEvent(tick=0, channel=1, data=[61, 0]),
   midi.NoteOnEvent(tick=0, channel=1, data=[66, 0]),
   midi.NoteOnEvent(tick=2, channel=1, data=[57, 110]),
   midi.NoteOnEvent(tick=0, channel=1, data=[64, 110]),
   midi.NoteOnEvent(tick=0, channel=1, data=[69, 110]),
   midi.NoteOnEvent(tick=160, channel=1, data=[57, 0]),
   midi.NoteOnEvent(tick=0, channel=1, data=[64, 0]),
   midi.NoteOnEvent(tick=0, channel=1, data=[69, 0]),
   midi.NoteOnEvent(tick=32, channel=1, data=[53, 110]),
   midi.NoteOnEvent(tick=0, channel=1, data=[60, 110]),
   midi.NoteOnEvent(tick=0, channel=1, data=[65, 110]),
   midi.NoteOnEvent(tick=574, channel=1, data=[53, 0]),
   midi.NoteOnEvent(tick=0, channel=1, data=[60, 0]),
   midi.NoteOnEvent(tick=0, channel=1, data=[65, 0]),
   midi.NoteOnEvent(tick=2, channel=1, data=[55, 110]),
   midi.NoteOnEvent(tick=0, channel=1, data=[62, 110]),
   midi.NoteOnEvent(tick=0, channel=1, data=[67, 110]),
   midi.NoteOnEvent(tick=256, channel=1, data=[55, 0]),
   midi.NoteOnEvent(tick=0, channel=1, data=[62, 0]),
   midi.NoteOnEvent(tick=0, channel=1, data=[67, 0]),
   midi.NoteOnEvent(tick=32, channel=1, data=[52, 110]),
   midi.NoteOnEvent(tick=94, channel=1, data=[52, 0]),
   midi.NoteOnEvent(tick=2, channel=1, data=[52, 110]),
   midi.NoteOnEvent(tick=46, channel=1, data=[52, 0]),
   midi.NoteOnEvent(tick=2, channel=1, data=[52, 110]),
   midi.NoteOnEvent(tick=46, channel=1, data=[52, 0]),
   midi.NoteOnEvent(tick=2, channel=1, data=[52, 110]),
   midi.NoteOnEvent(tick=94, channel=1, data=[52, 0]),
   midi.NoteOnEvent(tick=2, channel=1, data=[52, 110]),
   midi.NoteOnEvent(tick=94, channel=1, data=[52, 0]),
   midi.NoteOnEvent(tick=2, channel=1, data=[52, 110]),
   midi.NoteOnEvent(tick=94, channel=1, data=[52, 0]),
   midi.NoteOnEvent(tick=2, channel=1, data=[52, 110]),
   midi.NoteOnEvent(tick=94, channel=1, data=[52, 0]),
   midi.NoteOnEvent(tick=2, channel=1, data=[52, 110]),
   midi.NoteOnEvent(tick=94, channel=1, data=[52, 0]),
   midi.NoteOnEvent(tick=2, channel=1, data=[55, 110]),
   midi.NoteOnEvent(tick=0, channel=1, data=[62, 110]),
   midi.NoteOnEvent(tick=0, channel=1, data=[67, 110]),
   midi.NoteOnEvent(tick=574, channel=1, data=[55, 0]),
   midi.NoteOnEvent(tick=0, channel=1, data=[62, 0]),
   midi.NoteOnEvent(tick=0, channel=1, data=[67, 0]),
   midi.NoteOnEvent(tick=2, channel=1, data=[58, 110]),
   midi.NoteOnEvent(tick=0, channel=1, data=[65, 110]),
   midi.NoteOnEvent(tick=0, channel=1, data=[70, 110]),
   midi.NoteOnEvent(tick=160, channel=1, data=[58, 0]),
   midi.NoteOnEvent(tick=0, channel=1, data=[65, 0]),
   midi.NoteOnEvent(tick=0, channel=1, data=[70, 0]),
   midi.NoteOnEvent(tick=32, channel=1, data=[54, 110]),
   midi.NoteOnEvent(tick=0, channel=1, data=[61, 110]),
   midi.NoteOnEvent(tick=0, channel=1, data=[66, 110]),
   midi.NoteOnEvent(tick=574, channel=1, data=[54, 0]),
   midi.NoteOnEvent(tick=0, channel=1, data=[61, 0]),
   midi.NoteOnEvent(tick=0, channel=1, data=[66, 0]),
   midi.NoteOnEvent(tick=2, channel=1, data=[57, 110]),
   midi.NoteOnEvent(tick=0, channel=1, data=[64, 110]),
   midi.NoteOnEvent(tick=0, channel=1, data=[69, 110]),
   midi.NoteOnEvent(tick=160, channel=1, data=[57, 0]),
   midi.NoteOnEvent(tick=0, channel=1, data=[64, 0]),
   midi.NoteOnEvent(tick=0, channel=1, data=[69, 0]),
   midi.NoteOnEvent(tick=32, channel=1, data=[53, 110]),
   midi.NoteOnEvent(tick=0, channel=1, data=[60, 110]),
   midi.NoteOnEvent(tick=0, channel=1, data=[65, 110]),
   midi.NoteOnEvent(tick=574, channel=1, data=[53, 0]),
   midi.NoteOnEvent(tick=0, channel=1, data=[60, 0]),
   midi.NoteOnEvent(tick=0, channel=1, data=[65, 0]),
   midi.NoteOnEvent(tick=2, channel=1, data=[55, 110]),
   midi.NoteOnEvent(tick=0, channel=1, data=[62, 110]),
   midi.NoteOnEvent(tick=0, channel=1, data=[67, 110]),
   midi.NoteOnEvent(tick=256, channel=1, data=[55, 0]),
   midi.NoteOnEvent(tick=0, channel=1, data=[62, 0]),
   midi.NoteOnEvent(tick=0, channel=1, data=[67, 0]),
   midi.NoteOnEvent(tick=32, channel=1, data=[52, 110]),
   midi.NoteOnEvent(tick=94, channel=1, data=[52, 0]),
   midi.NoteOnEvent(tick=2, channel=1, data=[52, 110]),
   midi.NoteOnEvent(tick=46, channel=1, data=[52, 0]),
   midi.NoteOnEvent(tick=2, channel=1, data=[52, 110]),
   midi.NoteOnEvent(tick=46, channel=1, data=[52, 0]),
   midi.NoteOnEvent(tick=2, channel=1, data=[52, 110]),
   midi.NoteOnEvent(tick=94, channel=1, data=[52, 0]),
   midi.NoteOnEvent(tick=2, channel=1, data=[52, 110]),
   midi.NoteOnEvent(tick=94, channel=1, data=[52, 0]),
   midi.NoteOnEvent(tick=2, channel=1, data=[52, 110]),
   midi.NoteOnEvent(tick=94, channel=1, data=[52, 0]),
   midi.NoteOnEvent(tick=2, channel=1, data=[52, 110]),
   midi.NoteOnEvent(tick=94, channel=1, data=[52, 0]),
   midi.NoteOnEvent(tick=2, channel=1, data=[52, 110]),
   midi.NoteOnEvent(tick=94, channel=1, data=[52, 0]),
   midi.NoteOnEvent(tick=2, channel=1, data=[55, 110]),
   midi.NoteOnEvent(tick=0, channel=1, data=[62, 110]),
   midi.NoteOnEvent(tick=0, channel=1, data=[67, 110]),
   midi.NoteOnEvent(tick=574, channel=1, data=[55, 0]),
   midi.NoteOnEvent(tick=0, channel=1, data=[62, 0]),
   midi.NoteOnEvent(tick=0, channel=1, data=[67, 0]),
   midi.NoteOnEvent(tick=2, channel=1, data=[58, 110]),
   midi.NoteOnEvent(tick=0, channel=1, data=[65, 110]),
   midi.NoteOnEvent(tick=0, channel=1, data=[70, 110]),
   midi.NoteOnEvent(tick=160, channel=1, data=[58, 0]),
   midi.NoteOnEvent(tick=0, channel=1, data=[65, 0]),
   midi.NoteOnEvent(tick=0, channel=1, data=[70, 0]),
   midi.NoteOnEvent(tick=32, channel=1, data=[54, 110]),
   midi.NoteOnEvent(tick=0, channel=1, data=[61, 110]),
   midi.NoteOnEvent(tick=0, channel=1, data=[66, 110]),
   midi.NoteOnEvent(tick=574, channel=1, data=[54, 0]),
   midi.NoteOnEvent(tick=0, channel=1, data=[61, 0]),
   midi.NoteOnEvent(tick=0, channel=1, data=[66, 0]),
   midi.NoteOnEvent(tick=2, channel=1, data=[57, 110]),
   midi.NoteOnEvent(tick=0, channel=1, data=[64, 110]),
   midi.NoteOnEvent(tick=0, channel=1, data=[69, 110]),
   midi.NoteOnEvent(tick=160, channel=1, data=[57, 0]),
   midi.NoteOnEvent(tick=0, channel=1, data=[64, 0]),
   midi.NoteOnEvent(tick=0, channel=1, data=[69, 0]),
   midi.NoteOnEvent(tick=32, channel=1, data=[53, 110]),
   midi.NoteOnEvent(tick=0, channel=1, data=[60, 110]),
   midi.NoteOnEvent(tick=0, channel=1, data=[65, 110]),
   midi.NoteOnEvent(tick=574, channel=1, data=[53, 0]),
   midi.NoteOnEvent(tick=0, channel=1, data=[60, 0]),
   midi.NoteOnEvent(tick=0, channel=1, data=[65, 0]),
   midi.NoteOnEvent(tick=2, channel=1, data=[55, 110]),
   midi.NoteOnEvent(tick=0, channel=1, data=[62, 110]),
   midi.NoteOnEvent(tick=0, channel=1, data=[67, 110]),
   midi.NoteOnEvent(tick=256, channel=1, data=[55, 0]),
   midi.NoteOnEvent(tick=0, channel=1, data=[62, 0]),
   midi.NoteOnEvent(tick=0, channel=1, data=[67, 0]),
   midi.NoteOnEvent(tick=32, channel=1, data=[52, 110]),
   midi.NoteOnEvent(tick=94, channel=1, data=[52, 0]),
   midi.NoteOnEvent(tick=2, channel=1, data=[52, 110]),
   midi.NoteOnEvent(tick=46, channel=1, data=[52, 0]),
   midi.NoteOnEvent(tick=2, channel=1, data=[52, 110]),
   midi.NoteOnEvent(tick=46, channel=1, data=[52, 0]),
   midi.NoteOnEvent(tick=2, channel=1, data=[52, 110]),
   midi.NoteOnEvent(tick=94, channel=1, data=[52, 0]),
   midi.NoteOnEvent(tick=2, channel=1, data=[52, 110]),
   midi.NoteOnEvent(tick=94, channel=1, data=[52, 0]),
   midi.NoteOnEvent(tick=2, channel=1, data=[52, 110]),
   midi.NoteOnEvent(tick=94, channel=1, data=[52, 0]),
   midi.NoteOnEvent(tick=2, channel=1, data=[52, 110]),
   midi.NoteOnEvent(tick=94, channel=1, data=[52, 0]),
   midi.NoteOnEvent(tick=2, channel=1, data=[52, 110]),
   midi.NoteOnEvent(tick=94, channel=1, data=[52, 0]),
   midi.NoteOnEvent(tick=2, channel=1, data=[79, 110]),
   midi.NoteOnEvent(tick=574, channel=1, data=[79, 0]),
   midi.NoteOnEvent(tick=2, channel=1, data=[82, 110]),
   midi.NoteOnEvent(tick=160, channel=1, data=[82, 0]),
   midi.NoteOnEvent(tick=32, channel=1, data=[78, 110]),
   midi.NoteOnEvent(tick=574, channel=1, data=[78, 0]),
   midi.NoteOnEvent(tick=2, channel=1, data=[81, 110]),
   midi.NoteOnEvent(tick=160, channel=1, data=[81, 0]),
   midi.NoteOnEvent(tick=32, channel=1, data=[77, 110]),
   midi.NoteOnEvent(tick=574, channel=1, data=[77, 0]),
   midi.NoteOnEvent(tick=2, channel=1, data=[79, 110]),
   midi.NoteOnEvent(tick=256, channel=1, data=[79, 0]),
   midi.NoteOnEvent(tick=32, channel=1, data=[76, 110]),
   midi.NoteOnEvent(tick=640, channel=1, data=[76, 0]),
   midi.NoteOnEvent(tick=32, channel=1, data=[79, 110]),
   midi.NoteOnEvent(tick=574, channel=1, data=[79, 0]),
   midi.NoteOnEvent(tick=2, channel=1, data=[82, 110]),
   midi.NoteOnEvent(tick=160, channel=1, data=[82, 0]),
   midi.NoteOnEvent(tick=32, channel=1, data=[78, 110]),
   midi.NoteOnEvent(tick=574, channel=1, data=[78, 0]),
   midi.NoteOnEvent(tick=2, channel=1, data=[81, 110]),
   midi.NoteOnEvent(tick=160, channel=1, data=[81, 0]),
   midi.NoteOnEvent(tick=32, channel=1, data=[77, 110]),
   midi.NoteOnEvent(tick=574, channel=1, data=[77, 0]),
   midi.NoteOnEvent(tick=2, channel=1, data=[79, 110]),
   midi.NoteOnEvent(tick=256, channel=1, data=[79, 0]),
   midi.NoteOnEvent(tick=32, channel=1, data=[76, 110]),
   midi.NoteOnEvent(tick=640, channel=1, data=[76, 0]),
   midi.NoteOnEvent(tick=32, channel=1, data=[79, 110]),
   midi.NoteOnEvent(tick=0, channel=1, data=[82, 110]),
   midi.NoteOnEvent(tick=574, channel=1, data=[79, 0]),
   midi.NoteOnEvent(tick=0, channel=1, data=[82, 0]),
   midi.NoteOnEvent(tick=2, channel=1, data=[82, 110]),
   midi.NoteOnEvent(tick=0, channel=1, data=[85, 110]),
   midi.NoteOnEvent(tick=160, channel=1, data=[82, 0]),
   midi.NoteOnEvent(tick=0, channel=1, data=[85, 0]),
   midi.NoteOnEvent(tick=32, channel=1, data=[78, 110]),
   midi.NoteOnEvent(tick=0, channel=1, data=[81, 110]),
   midi.NoteOnEvent(tick=574, channel=1, data=[78, 0]),
   midi.NoteOnEvent(tick=0, channel=1, data=[81, 0]),
   midi.NoteOnEvent(tick=2, channel=1, data=[81, 110]),
   midi.NoteOnEvent(tick=0, channel=1, data=[84, 110]),
   midi.NoteOnEvent(tick=160, channel=1, data=[81, 0]),
   midi.NoteOnEvent(tick=0, channel=1, data=[84, 0]),
   midi.NoteOnEvent(tick=32, channel=1, data=[77, 110]),
   midi.NoteOnEvent(tick=0, channel=1, data=[80, 110]),
   midi.NoteOnEvent(tick=574, channel=1, data=[77, 0]),
   midi.NoteOnEvent(tick=0, channel=1, data=[80, 0]),
   midi.NoteOnEvent(tick=2, channel=1, data=[79, 110]),
   midi.NoteOnEvent(tick=0, channel=1, data=[82, 110]),
   midi.NoteOnEvent(tick=256, channel=1, data=[79, 0]),
   midi.NoteOnEvent(tick=0, channel=1, data=[82, 0]),
   midi.NoteOnEvent(tick=32, channel=1, data=[76, 110]),
   midi.NoteOnEvent(tick=0, channel=1, data=[79, 110]),
   midi.NoteOnEvent(tick=640, channel=1, data=[76, 0]),
   midi.NoteOnEvent(tick=0, channel=1, data=[79, 0]),
   midi.NoteOnEvent(tick=32, channel=1, data=[79, 110]),
   midi.NoteOnEvent(tick=0, channel=1, data=[82, 110]),
   midi.NoteOnEvent(tick=574, channel=1, data=[79, 0]),
   midi.NoteOnEvent(tick=0, channel=1, data=[82, 0]),
   midi.NoteOnEvent(tick=2, channel=1, data=[82, 110]),
   midi.NoteOnEvent(tick=0, channel=1, data=[85, 110]),
   midi.NoteOnEvent(tick=160, channel=1, data=[82, 0]),
   midi.NoteOnEvent(tick=0, channel=1, data=[85, 0]),
   midi.NoteOnEvent(tick=32, channel=1, data=[78, 110]),
   midi.NoteOnEvent(tick=0, channel=1, data=[81, 110]),
   midi.NoteOnEvent(tick=574, channel=1, data=[78, 0]),
   midi.NoteOnEvent(tick=0, channel=1, data=[81, 0]),
   midi.NoteOnEvent(tick=2, channel=1, data=[81, 110]),
   midi.NoteOnEvent(tick=0, channel=1, data=[84, 110]),
   midi.NoteOnEvent(tick=160, channel=1, data=[81, 0]),
   midi.NoteOnEvent(tick=0, channel=1, data=[84, 0]),
   midi.NoteOnEvent(tick=32, channel=1, data=[77, 110]),
   midi.NoteOnEvent(tick=0, channel=1, data=[80, 110]),
   midi.NoteOnEvent(tick=574, channel=1, data=[77, 0]),
   midi.NoteOnEvent(tick=0, channel=1, data=[80, 0]),
   midi.NoteOnEvent(tick=2, channel=1, data=[79, 110]),
   midi.NoteOnEvent(tick=0, channel=1, data=[82, 110]),
   midi.NoteOnEvent(tick=256, channel=1, data=[79, 0]),
   midi.NoteOnEvent(tick=0, channel=1, data=[82, 0]),
   midi.NoteOnEvent(tick=32, channel=1, data=[52, 110]),
   midi.NoteOnEvent(tick=94, channel=1, data=[52, 0]),
   midi.NoteOnEvent(tick=2, channel=1, data=[52, 110]),
   midi.NoteOnEvent(tick=46, channel=1, data=[52, 0]),
   midi.NoteOnEvent(tick=2, channel=1, data=[52, 110]),
   midi.NoteOnEvent(tick=46, channel=1, data=[52, 0]),
   midi.NoteOnEvent(tick=2, channel=1, data=[52, 110]),
   midi.NoteOnEvent(tick=94, channel=1, data=[52, 0]),
   midi.NoteOnEvent(tick=2, channel=1, data=[52, 110]),
   midi.NoteOnEvent(tick=94, channel=1, data=[52, 0]),
   midi.NoteOnEvent(tick=2, channel=1, data=[52, 110]),
   midi.NoteOnEvent(tick=94, channel=1, data=[52, 0]),
   midi.NoteOnEvent(tick=2, channel=1, data=[52, 110]),
   midi.NoteOnEvent(tick=94, channel=1, data=[52, 0]),
   midi.NoteOnEvent(tick=2, channel=1, data=[52, 110]),
   midi.NoteOnEvent(tick=94, channel=1, data=[52, 0]),
   midi.NoteOnEvent(tick=2, channel=1, data=[61, 110]),
   midi.NoteOnEvent(tick=0, channel=1, data=[68, 110]),
   midi.NoteOnEvent(tick=94, channel=1, data=[61, 0]),
   midi.NoteOnEvent(tick=0, channel=1, data=[68, 0]),
   midi.NoteOnEvent(tick=2, channel=1, data=[61, 110]),
   midi.NoteOnEvent(tick=46, channel=1, data=[61, 0]),
   midi.NoteOnEvent(tick=2, channel=1, data=[61, 110]),
   midi.NoteOnEvent(tick=46, channel=1, data=[61, 0]),
   midi.NoteOnEvent(tick=2, channel=1, data=[61, 110]),
   midi.NoteOnEvent(tick=46, channel=1, data=[61, 0]),
   midi.NoteOnEvent(tick=2, channel=1, data=[61, 110]),
   midi.NoteOnEvent(tick=46, channel=1, data=[61, 0]),
   midi.NoteOnEvent(tick=2, channel=1, data=[61, 110]),
   midi.NoteOnEvent(tick=46, channel=1, data=[61, 0]),
   midi.NoteOnEvent(tick=2, channel=1, data=[61, 110]),
   midi.NoteOnEvent(tick=46, channel=1, data=[61, 0]),
   midi.NoteOnEvent(tick=2, channel=1, data=[61, 110]),
   midi.NoteOnEvent(tick=94, channel=1, data=[61, 0]),
   midi.NoteOnEvent(tick=2, channel=1, data=[61, 110]),
   midi.NoteOnEvent(tick=46, channel=1, data=[61, 0]),
   midi.NoteOnEvent(tick=2, channel=1, data=[61, 110]),
   midi.NoteOnEvent(tick=46, channel=1, data=[61, 0]),
   midi.NoteOnEvent(tick=2, channel=1, data=[61, 110]),
   midi.NoteOnEvent(tick=46, channel=1, data=[61, 0]),
   midi.NoteOnEvent(tick=2, channel=1, data=[61, 110]),
   midi.NoteOnEvent(tick=46, channel=1, data=[61, 0]),
   midi.NoteOnEvent(tick=2, channel=1, data=[61, 110]),
   midi.NoteOnEvent(tick=46, channel=1, data=[61, 0]),
   midi.NoteOnEvent(tick=2, channel=1, data=[61, 110]),
   midi.NoteOnEvent(tick=46, channel=1, data=[61, 0]),
   midi.NoteOnEvent(tick=2, channel=1, data=[61, 110]),
   midi.NoteOnEvent(tick=0, channel=1, data=[68, 110]),
   midi.NoteOnEvent(tick=94, channel=1, data=[61, 0]),
   midi.NoteOnEvent(tick=0, channel=1, data=[68, 0]),
   midi.NoteOnEvent(tick=2, channel=1, data=[61, 110]),
   midi.NoteOnEvent(tick=46, channel=1, data=[61, 0]),
   midi.NoteOnEvent(tick=2, channel=1, data=[61, 110]),
   midi.NoteOnEvent(tick=46, channel=1, data=[61, 0]),
   midi.NoteOnEvent(tick=2, channel=1, data=[61, 110]),
   midi.NoteOnEvent(tick=46, channel=1, data=[61, 0]),
   midi.NoteOnEvent(tick=2, channel=1, data=[61, 110]),
   midi.NoteOnEvent(tick=46, channel=1, data=[61, 0]),
   midi.NoteOnEvent(tick=2, channel=1, data=[61, 110]),
   midi.NoteOnEvent(tick=46, channel=1, data=[61, 0]),
   midi.NoteOnEvent(tick=2, channel=1, data=[61, 110]),
   midi.NoteOnEvent(tick=46, channel=1, data=[61, 0]),
   midi.NoteOnEvent(tick=2, channel=1, data=[61, 110]),
   midi.NoteOnEvent(tick=94, channel=1, data=[61, 0]),
   midi.NoteOnEvent(tick=2, channel=1, data=[61, 110]),
   midi.NoteOnEvent(tick=46, channel=1, data=[61, 0]),
   midi.NoteOnEvent(tick=2, channel=1, data=[61, 110]),
   midi.NoteOnEvent(tick=46, channel=1, data=[61, 0]),
   midi.NoteOnEvent(tick=2, channel=1, data=[61, 110]),
   midi.NoteOnEvent(tick=46, channel=1, data=[61, 0]),
   midi.NoteOnEvent(tick=2, channel=1, data=[61, 110]),
   midi.NoteOnEvent(tick=46, channel=1, data=[61, 0]),
   midi.NoteOnEvent(tick=2, channel=1, data=[61, 110]),
   midi.NoteOnEvent(tick=46, channel=1, data=[61, 0]),
   midi.NoteOnEvent(tick=2, channel=1, data=[61, 110]),
   midi.NoteOnEvent(tick=46, channel=1, data=[61, 0]),
   midi.NoteOnEvent(tick=2, channel=1, data=[61, 110]),
   midi.NoteOnEvent(tick=0, channel=1, data=[68, 110]),
   midi.NoteOnEvent(tick=94, channel=1, data=[61, 0]),
   midi.NoteOnEvent(tick=0, channel=1, data=[68, 0]),
   midi.NoteOnEvent(tick=2, channel=1, data=[61, 110]),
   midi.NoteOnEvent(tick=46, channel=1, data=[61, 0]),
   midi.NoteOnEvent(tick=2, channel=1, data=[61, 110]),
   midi.NoteOnEvent(tick=46, channel=1, data=[61, 0]),
   midi.NoteOnEvent(tick=2, channel=1, data=[61, 110]),
   midi.NoteOnEvent(tick=46, channel=1, data=[61, 0]),
   midi.NoteOnEvent(tick=2, channel=1, data=[61, 110]),
   midi.NoteOnEvent(tick=46, channel=1, data=[61, 0]),
   midi.NoteOnEvent(tick=2, channel=1, data=[61, 110]),
   midi.NoteOnEvent(tick=46, channel=1, data=[61, 0]),
   midi.NoteOnEvent(tick=2, channel=1, data=[61, 110]),
   midi.NoteOnEvent(tick=46, channel=1, data=[61, 0]),
   midi.NoteOnEvent(tick=2, channel=1, data=[61, 110]),
   midi.NoteOnEvent(tick=94, channel=1, data=[61, 0]),
   midi.NoteOnEvent(tick=2, channel=1, data=[61, 110]),
   midi.NoteOnEvent(tick=46, channel=1, data=[61, 0]),
   midi.NoteOnEvent(tick=2, channel=1, data=[61, 110]),
   midi.NoteOnEvent(tick=46, channel=1, data=[61, 0]),
   midi.NoteOnEvent(tick=2, channel=1, data=[61, 110]),
   midi.NoteOnEvent(tick=46, channel=1, data=[61, 0]),
   midi.NoteOnEvent(tick=2, channel=1, data=[61, 110]),
   midi.NoteOnEvent(tick=46, channel=1, data=[61, 0]),
   midi.NoteOnEvent(tick=2, channel=1, data=[61, 110]),
   midi.NoteOnEvent(tick=46, channel=1, data=[61, 0]),
   midi.NoteOnEvent(tick=2, channel=1, data=[61, 110]),
   midi.NoteOnEvent(tick=46, channel=1, data=[61, 0]),
   midi.NoteOnEvent(tick=2, channel=1, data=[57, 110]),
   midi.NoteOnEvent(tick=94, channel=1, data=[57, 0]),
   midi.NoteOnEvent(tick=2, channel=1, data=[67, 110]),
   midi.NoteOnEvent(tick=94, channel=1, data=[67, 0]),
   midi.NoteOnEvent(tick=2, channel=1, data=[66, 110]),
   midi.NoteOnEvent(tick=94, channel=1, data=[66, 0]),
   midi.NoteOnEvent(tick=2, channel=1, data=[57, 110]),
   midi.NoteOnEvent(tick=94, channel=1, data=[57, 0]),
   midi.NoteOnEvent(tick=2, channel=1, data=[66, 110]),
   midi.NoteOnEvent(tick=94, channel=1, data=[66, 0]),
   midi.NoteOnEvent(tick=2, channel=1, data=[64, 110]),
   midi.NoteOnEvent(tick=94, channel=1, data=[64, 0]),
   midi.NoteOnEvent(tick=2, channel=1, data=[62, 110]),
   midi.NoteOnEvent(tick=94, channel=1, data=[62, 0]),
   midi.NoteOnEvent(tick=2, channel=1, data=[61, 110]),
   midi.NoteOnEvent(tick=94, channel=1, data=[61, 0]),
   midi.NoteOnEvent(tick=2, channel=1, data=[61, 110]),
   midi.NoteOnEvent(tick=0, channel=1, data=[68, 110]),
   midi.NoteOnEvent(tick=94, channel=1, data=[61, 0]),
   midi.NoteOnEvent(tick=0, channel=1, data=[68, 0]),
   midi.NoteOnEvent(tick=2, channel=1, data=[61, 110]),
   midi.NoteOnEvent(tick=46, channel=1, data=[61, 0]),
   midi.NoteOnEvent(tick=2, channel=1, data=[61, 110]),
   midi.NoteOnEvent(tick=46, channel=1, data=[61, 0]),
   midi.NoteOnEvent(tick=2, channel=1, data=[61, 110]),
   midi.NoteOnEvent(tick=46, channel=1, data=[61, 0]),
   midi.NoteOnEvent(tick=2, channel=1, data=[61, 110]),
   midi.NoteOnEvent(tick=46, channel=1, data=[61, 0]),
   midi.NoteOnEvent(tick=2, channel=1, data=[61, 110]),
   midi.NoteOnEvent(tick=46, channel=1, data=[61, 0]),
   midi.NoteOnEvent(tick=2, channel=1, data=[61, 110]),
   midi.NoteOnEvent(tick=46, channel=1, data=[61, 0]),
   midi.NoteOnEvent(tick=2, channel=1, data=[61, 110]),
   midi.NoteOnEvent(tick=94, channel=1, data=[61, 0]),
   midi.NoteOnEvent(tick=2, channel=1, data=[61, 110]),
   midi.NoteOnEvent(tick=46, channel=1, data=[61, 0]),
   midi.NoteOnEvent(tick=2, channel=1, data=[61, 110]),
   midi.NoteOnEvent(tick=46, channel=1, data=[61, 0]),
   midi.NoteOnEvent(tick=2, channel=1, data=[61, 110]),
   midi.NoteOnEvent(tick=46, channel=1, data=[61, 0]),
   midi.NoteOnEvent(tick=2, channel=1, data=[61, 110]),
   midi.NoteOnEvent(tick=46, channel=1, data=[61, 0]),
   midi.NoteOnEvent(tick=2, channel=1, data=[61, 110]),
   midi.NoteOnEvent(tick=46, channel=1, data=[61, 0]),
   midi.NoteOnEvent(tick=2, channel=1, data=[61, 110]),
   midi.NoteOnEvent(tick=46, channel=1, data=[61, 0]),
   midi.NoteOnEvent(tick=2, channel=1, data=[61, 110]),
   midi.NoteOnEvent(tick=0, channel=1, data=[68, 110]),
   midi.NoteOnEvent(tick=94, channel=1, data=[61, 0]),
   midi.NoteOnEvent(tick=0, channel=1, data=[68, 0]),
   midi.NoteOnEvent(tick=2, channel=1, data=[61, 110]),
   midi.NoteOnEvent(tick=46, channel=1, data=[61, 0]),
   midi.NoteOnEvent(tick=2, channel=1, data=[61, 110]),
   midi.NoteOnEvent(tick=46, channel=1, data=[61, 0]),
   midi.NoteOnEvent(tick=2, channel=1, data=[61, 110]),
   midi.NoteOnEvent(tick=46, channel=1, data=[61, 0]),
   midi.NoteOnEvent(tick=2, channel=1, data=[61, 110]),
   midi.NoteOnEvent(tick=46, channel=1, data=[61, 0]),
   midi.NoteOnEvent(tick=2, channel=1, data=[61, 110]),
   midi.NoteOnEvent(tick=46, channel=1, data=[61, 0]),
   midi.NoteOnEvent(tick=2, channel=1, data=[61, 110]),
   midi.NoteOnEvent(tick=46, channel=1, data=[61, 0]),
   midi.NoteOnEvent(tick=2, channel=1, data=[61, 110]),
   midi.NoteOnEvent(tick=94, channel=1, data=[61, 0]),
   midi.NoteOnEvent(tick=2, channel=1, data=[61, 110]),
   midi.NoteOnEvent(tick=46, channel=1, data=[61, 0]),
   midi.NoteOnEvent(tick=2, channel=1, data=[61, 110]),
   midi.NoteOnEvent(tick=46, channel=1, data=[61, 0]),
   midi.NoteOnEvent(tick=2, channel=1, data=[61, 110]),
   midi.NoteOnEvent(tick=46, channel=1, data=[61, 0]),
   midi.NoteOnEvent(tick=2, channel=1, data=[61, 110]),
   midi.NoteOnEvent(tick=46, channel=1, data=[61, 0]),
   midi.NoteOnEvent(tick=2, channel=1, data=[61, 110]),
   midi.NoteOnEvent(tick=46, channel=1, data=[61, 0]),
   midi.NoteOnEvent(tick=2, channel=1, data=[61, 110]),
   midi.NoteOnEvent(tick=46, channel=1, data=[61, 0]),
   midi.NoteOnEvent(tick=2, channel=1, data=[61, 110]),
   midi.NoteOnEvent(tick=0, channel=1, data=[68, 110]),
   midi.NoteOnEvent(tick=94, channel=1, data=[61, 0]),
   midi.NoteOnEvent(tick=0, channel=1, data=[68, 0]),
   midi.NoteOnEvent(tick=2, channel=1, data=[61, 110]),
   midi.NoteOnEvent(tick=46, channel=1, data=[61, 0]),
   midi.NoteOnEvent(tick=2, channel=1, data=[61, 110]),
   midi.NoteOnEvent(tick=46, channel=1, data=[61, 0]),
   midi.NoteOnEvent(tick=2, channel=1, data=[61, 110]),
   midi.NoteOnEvent(tick=46, channel=1, data=[61, 0]),
   midi.NoteOnEvent(tick=2, channel=1, data=[61, 110]),
   midi.NoteOnEvent(tick=46, channel=1, data=[61, 0]),
   midi.NoteOnEvent(tick=2, channel=1, data=[61, 110]),
   midi.NoteOnEvent(tick=46, channel=1, data=[61, 0]),
   midi.NoteOnEvent(tick=2, channel=1, data=[61, 110]),
   midi.NoteOnEvent(tick=46, channel=1, data=[61, 0]),
   midi.NoteOnEvent(tick=2, channel=1, data=[61, 110]),
   midi.NoteOnEvent(tick=94, channel=1, data=[61, 0]),
   midi.NoteOnEvent(tick=2, channel=1, data=[61, 110]),
   midi.NoteOnEvent(tick=46, channel=1, data=[61, 0]),
   midi.NoteOnEvent(tick=2, channel=1, data=[61, 110]),
   midi.NoteOnEvent(tick=46, channel=1, data=[61, 0]),
   midi.NoteOnEvent(tick=2, channel=1, data=[61, 110]),
   midi.NoteOnEvent(tick=46, channel=1, data=[61, 0]),
   midi.NoteOnEvent(tick=2, channel=1, data=[61, 110]),
   midi.NoteOnEvent(tick=46, channel=1, data=[61, 0]),
   midi.NoteOnEvent(tick=2, channel=1, data=[61, 110]),
   midi.NoteOnEvent(tick=46, channel=1, data=[61, 0]),
   midi.NoteOnEvent(tick=2, channel=1, data=[61, 110]),
   midi.NoteOnEvent(tick=46, channel=1, data=[61, 0]),
   midi.NoteOnEvent(tick=2, channel=1, data=[57, 110]),
   midi.NoteOnEvent(tick=94, channel=1, data=[57, 0]),
   midi.NoteOnEvent(tick=2, channel=1, data=[67, 110]),
   midi.NoteOnEvent(tick=94, channel=1, data=[67, 0]),
   midi.NoteOnEvent(tick=2, channel=1, data=[66, 110]),
   midi.NoteOnEvent(tick=94, channel=1, data=[66, 0]),
   midi.NoteOnEvent(tick=2, channel=1, data=[57, 110]),
   midi.NoteOnEvent(tick=94, channel=1, data=[57, 0]),
   midi.NoteOnEvent(tick=2, channel=1, data=[66, 110]),
   midi.NoteOnEvent(tick=94, channel=1, data=[66, 0]),
   midi.NoteOnEvent(tick=2, channel=1, data=[64, 110]),
   midi.NoteOnEvent(tick=94, channel=1, data=[64, 0]),
   midi.NoteOnEvent(tick=2, channel=1, data=[62, 110]),
   midi.NoteOnEvent(tick=94, channel=1, data=[62, 0]),
   midi.NoteOnEvent(tick=2, channel=1, data=[61, 110]),
   midi.NoteOnEvent(tick=94, channel=1, data=[61, 0]),
   midi.NoteOnEvent(tick=2, channel=1, data=[62, 110]),
   midi.NoteOnEvent(tick=0, channel=1, data=[69, 110]),
   midi.NoteOnEvent(tick=94, channel=1, data=[62, 0]),
   midi.NoteOnEvent(tick=0, channel=1, data=[69, 0]),
   midi.NoteOnEvent(tick=2, channel=1, data=[62, 110]),
   midi.NoteOnEvent(tick=46, channel=1, data=[62, 0]),
   midi.NoteOnEvent(tick=2, channel=1, data=[62, 110]),
   midi.NoteOnEvent(tick=46, channel=1, data=[62, 0]),
   midi.NoteOnEvent(tick=2, channel=1, data=[62, 110]),
   midi.NoteOnEvent(tick=46, channel=1, data=[62, 0]),
   midi.NoteOnEvent(tick=2, channel=1, data=[62, 110]),
   midi.NoteOnEvent(tick=46, channel=1, data=[62, 0]),
   midi.NoteOnEvent(tick=2, channel=1, data=[62, 110]),
   midi.NoteOnEvent(tick=46, channel=1, data=[62, 0]),
   midi.NoteOnEvent(tick=2, channel=1, data=[62, 110]),
   midi.NoteOnEvent(tick=46, channel=1, data=[62, 0]),
   midi.NoteOnEvent(tick=2, channel=1, data=[62, 110]),
   midi.NoteOnEvent(tick=94, channel=1, data=[62, 0]),
   midi.NoteOnEvent(tick=2, channel=1, data=[62, 110]),
   midi.NoteOnEvent(tick=46, channel=1, data=[62, 0]),
   midi.NoteOnEvent(tick=2, channel=1, data=[62, 110]),
   midi.NoteOnEvent(tick=46, channel=1, data=[62, 0]),
   midi.NoteOnEvent(tick=2, channel=1, data=[62, 110]),
   midi.NoteOnEvent(tick=46, channel=1, data=[62, 0]),
   midi.NoteOnEvent(tick=2, channel=1, data=[62, 110]),
   midi.NoteOnEvent(tick=46, channel=1, data=[62, 0]),
   midi.NoteOnEvent(tick=2, channel=1, data=[62, 110]),
   midi.NoteOnEvent(tick=46, channel=1, data=[62, 0]),
   midi.NoteOnEvent(tick=2, channel=1, data=[62, 110]),
   midi.NoteOnEvent(tick=46, channel=1, data=[62, 0]),
   midi.NoteOnEvent(tick=2, channel=1, data=[62, 110]),
   midi.NoteOnEvent(tick=0, channel=1, data=[69, 110]),
   midi.NoteOnEvent(tick=94, channel=1, data=[62, 0]),
   midi.NoteOnEvent(tick=0, channel=1, data=[69, 0]),
   midi.NoteOnEvent(tick=2, channel=1, data=[62, 110]),
   midi.NoteOnEvent(tick=46, channel=1, data=[62, 0]),
   midi.NoteOnEvent(tick=2, channel=1, data=[62, 110]),
   midi.NoteOnEvent(tick=46, channel=1, data=[62, 0]),
   midi.NoteOnEvent(tick=2, channel=1, data=[62, 110]),
   midi.NoteOnEvent(tick=46, channel=1, data=[62, 0]),
   midi.NoteOnEvent(tick=2, channel=1, data=[62, 110]),
   midi.NoteOnEvent(tick=46, channel=1, data=[62, 0]),
   midi.NoteOnEvent(tick=2, channel=1, data=[62, 110]),
   midi.NoteOnEvent(tick=46, channel=1, data=[62, 0]),
   midi.NoteOnEvent(tick=2, channel=1, data=[62, 110]),
   midi.NoteOnEvent(tick=46, channel=1, data=[62, 0]),
   midi.NoteOnEvent(tick=2, channel=1, data=[62, 110]),
   midi.NoteOnEvent(tick=94, channel=1, data=[62, 0]),
   midi.NoteOnEvent(tick=2, channel=1, data=[62, 110]),
   midi.NoteOnEvent(tick=46, channel=1, data=[62, 0]),
   midi.NoteOnEvent(tick=2, channel=1, data=[62, 110]),
   midi.NoteOnEvent(tick=46, channel=1, data=[62, 0]),
   midi.NoteOnEvent(tick=2, channel=1, data=[62, 110]),
   midi.NoteOnEvent(tick=46, channel=1, data=[62, 0]),
   midi.NoteOnEvent(tick=2, channel=1, data=[62, 110]),
   midi.NoteOnEvent(tick=46, channel=1, data=[62, 0]),
   midi.NoteOnEvent(tick=2, channel=1, data=[62, 110]),
   midi.NoteOnEvent(tick=46, channel=1, data=[62, 0]),
   midi.NoteOnEvent(tick=2, channel=1, data=[62, 110]),
   midi.NoteOnEvent(tick=46, channel=1, data=[62, 0]),
   midi.NoteOnEvent(tick=2, channel=1, data=[62, 110]),
   midi.NoteOnEvent(tick=0, channel=1, data=[69, 110]),
   midi.NoteOnEvent(tick=94, channel=1, data=[62, 0]),
   midi.NoteOnEvent(tick=0, channel=1, data=[69, 0]),
   midi.NoteOnEvent(tick=2, channel=1, data=[62, 110]),
   midi.NoteOnEvent(tick=46, channel=1, data=[62, 0]),
   midi.NoteOnEvent(tick=2, channel=1, data=[62, 110]),
   midi.NoteOnEvent(tick=46, channel=1, data=[62, 0]),
   midi.NoteOnEvent(tick=2, channel=1, data=[62, 110]),
   midi.NoteOnEvent(tick=46, channel=1, data=[62, 0]),
   midi.NoteOnEvent(tick=2, channel=1, data=[62, 110]),
   midi.NoteOnEvent(tick=46, channel=1, data=[62, 0]),
   midi.NoteOnEvent(tick=2, channel=1, data=[62, 110]),
   midi.NoteOnEvent(tick=46, channel=1, data=[62, 0]),
   midi.NoteOnEvent(tick=2, channel=1, data=[62, 110]),
   midi.NoteOnEvent(tick=46, channel=1, data=[62, 0]),
   midi.NoteOnEvent(tick=2, channel=1, data=[62, 110]),
   midi.NoteOnEvent(tick=94, channel=1, data=[62, 0]),
   midi.NoteOnEvent(tick=2, channel=1, data=[62, 110]),
   midi.NoteOnEvent(tick=46, channel=1, data=[62, 0]),
   midi.NoteOnEvent(tick=2, channel=1, data=[62, 110]),
   midi.NoteOnEvent(tick=46, channel=1, data=[62, 0]),
   midi.NoteOnEvent(tick=2, channel=1, data=[62, 110]),
   midi.NoteOnEvent(tick=46, channel=1, data=[62, 0]),
   midi.NoteOnEvent(tick=2, channel=1, data=[62, 110]),
   midi.NoteOnEvent(tick=46, channel=1, data=[62, 0]),
   midi.NoteOnEvent(tick=2, channel=1, data=[62, 110]),
   midi.NoteOnEvent(tick=46, channel=1, data=[62, 0]),
   midi.NoteOnEvent(tick=2, channel=1, data=[62, 110]),
   midi.NoteOnEvent(tick=46, channel=1, data=[62, 0]),
   midi.NoteOnEvent(tick=2, channel=1, data=[57, 110]),
   midi.NoteOnEvent(tick=94, channel=1, data=[57, 0]),
   midi.NoteOnEvent(tick=2, channel=1, data=[67, 110]),
   midi.NoteOnEvent(tick=94, channel=1, data=[67, 0]),
   midi.NoteOnEvent(tick=2, channel=1, data=[66, 110]),
   midi.NoteOnEvent(tick=94, channel=1, data=[66, 0]),
   midi.NoteOnEvent(tick=2, channel=1, data=[57, 110]),
   midi.NoteOnEvent(tick=94, channel=1, data=[57, 0]),
   midi.NoteOnEvent(tick=2, channel=1, data=[66, 110]),
   midi.NoteOnEvent(tick=94, channel=1, data=[66, 0]),
   midi.NoteOnEvent(tick=2, channel=1, data=[64, 110]),
   midi.NoteOnEvent(tick=94, channel=1, data=[64, 0]),
   midi.NoteOnEvent(tick=2, channel=1, data=[62, 110]),
   midi.NoteOnEvent(tick=94, channel=1, data=[62, 0]),
   midi.NoteOnEvent(tick=2, channel=1, data=[61, 110]),
   midi.NoteOnEvent(tick=94, channel=1, data=[61, 0]),
   midi.NoteOnEvent(tick=2, channel=1, data=[61, 110]),
   midi.NoteOnEvent(tick=0, channel=1, data=[68, 110]),
   midi.NoteOnEvent(tick=94, channel=1, data=[61, 0]),
   midi.NoteOnEvent(tick=0, channel=1, data=[68, 0]),
   midi.NoteOnEvent(tick=2, channel=1, data=[61, 110]),
   midi.NoteOnEvent(tick=46, channel=1, data=[61, 0]),
   midi.NoteOnEvent(tick=2, channel=1, data=[61, 110]),
   midi.NoteOnEvent(tick=46, channel=1, data=[61, 0]),
   midi.NoteOnEvent(tick=2, channel=1, data=[61, 110]),
   midi.NoteOnEvent(tick=46, channel=1, data=[61, 0]),
   midi.NoteOnEvent(tick=2, channel=1, data=[61, 110]),
   midi.NoteOnEvent(tick=46, channel=1, data=[61, 0]),
   midi.NoteOnEvent(tick=2, channel=1, data=[61, 110]),
   midi.NoteOnEvent(tick=46, channel=1, data=[61, 0]),
   midi.NoteOnEvent(tick=2, channel=1, data=[61, 110]),
   midi.NoteOnEvent(tick=46, channel=1, data=[61, 0]),
   midi.NoteOnEvent(tick=2, channel=1, data=[61, 110]),
   midi.NoteOnEvent(tick=94, channel=1, data=[61, 0]),
   midi.NoteOnEvent(tick=2, channel=1, data=[61, 110]),
   midi.NoteOnEvent(tick=46, channel=1, data=[61, 0]),
   midi.NoteOnEvent(tick=2, channel=1, data=[61, 110]),
   midi.NoteOnEvent(tick=46, channel=1, data=[61, 0]),
   midi.NoteOnEvent(tick=2, channel=1, data=[61, 110]),
   midi.NoteOnEvent(tick=46, channel=1, data=[61, 0]),
   midi.NoteOnEvent(tick=2, channel=1, data=[61, 110]),
   midi.NoteOnEvent(tick=46, channel=1, data=[61, 0]),
   midi.NoteOnEvent(tick=2, channel=1, data=[61, 110]),
   midi.NoteOnEvent(tick=46, channel=1, data=[61, 0]),
   midi.NoteOnEvent(tick=2, channel=1, data=[61, 110]),
   midi.NoteOnEvent(tick=46, channel=1, data=[61, 0]),
   midi.NoteOnEvent(tick=2, channel=1, data=[61, 110]),
   midi.NoteOnEvent(tick=0, channel=1, data=[68, 110]),
   midi.NoteOnEvent(tick=94, channel=1, data=[61, 0]),
   midi.NoteOnEvent(tick=0, channel=1, data=[68, 0]),
   midi.NoteOnEvent(tick=2, channel=1, data=[61, 110]),
   midi.NoteOnEvent(tick=46, channel=1, data=[61, 0]),
   midi.NoteOnEvent(tick=2, channel=1, data=[61, 110]),
   midi.NoteOnEvent(tick=46, channel=1, data=[61, 0]),
   midi.NoteOnEvent(tick=2, channel=1, data=[61, 110]),
   midi.NoteOnEvent(tick=46, channel=1, data=[61, 0]),
   midi.NoteOnEvent(tick=2, channel=1, data=[61, 110]),
   midi.NoteOnEvent(tick=46, channel=1, data=[61, 0]),
   midi.NoteOnEvent(tick=2, channel=1, data=[61, 110]),
   midi.NoteOnEvent(tick=46, channel=1, data=[61, 0]),
   midi.NoteOnEvent(tick=2, channel=1, data=[61, 110]),
   midi.NoteOnEvent(tick=46, channel=1, data=[61, 0]),
   midi.NoteOnEvent(tick=2, channel=1, data=[61, 110]),
   midi.NoteOnEvent(tick=94, channel=1, data=[61, 0]),
   midi.NoteOnEvent(tick=2, channel=1, data=[61, 110]),
   midi.NoteOnEvent(tick=46, channel=1, data=[61, 0]),
   midi.NoteOnEvent(tick=2, channel=1, data=[61, 110]),
   midi.NoteOnEvent(tick=46, channel=1, data=[61, 0]),
   midi.NoteOnEvent(tick=2, channel=1, data=[61, 110]),
   midi.NoteOnEvent(tick=46, channel=1, data=[61, 0]),
   midi.NoteOnEvent(tick=2, channel=1, data=[61, 110]),
   midi.NoteOnEvent(tick=46, channel=1, data=[61, 0]),
   midi.NoteOnEvent(tick=2, channel=1, data=[61, 110]),
   midi.NoteOnEvent(tick=46, channel=1, data=[61, 0]),
   midi.NoteOnEvent(tick=2, channel=1, data=[61, 110]),
   midi.NoteOnEvent(tick=46, channel=1, data=[61, 0]),
   midi.NoteOnEvent(tick=2, channel=1, data=[61, 110]),
   midi.NoteOnEvent(tick=0, channel=1, data=[68, 110]),
   midi.NoteOnEvent(tick=94, channel=1, data=[61, 0]),
   midi.NoteOnEvent(tick=0, channel=1, data=[68, 0]),
   midi.NoteOnEvent(tick=2, channel=1, data=[61, 110]),
   midi.NoteOnEvent(tick=46, channel=1, data=[61, 0]),
   midi.NoteOnEvent(tick=2, channel=1, data=[61, 110]),
   midi.NoteOnEvent(tick=46, channel=1, data=[61, 0]),
   midi.NoteOnEvent(tick=2, channel=1, data=[61, 110]),
   midi.NoteOnEvent(tick=46, channel=1, data=[61, 0]),
   midi.NoteOnEvent(tick=2, channel=1, data=[61, 110]),
   midi.NoteOnEvent(tick=46, channel=1, data=[61, 0]),
   midi.NoteOnEvent(tick=2, channel=1, data=[61, 110]),
   midi.NoteOnEvent(tick=46, channel=1, data=[61, 0]),
   midi.NoteOnEvent(tick=2, channel=1, data=[61, 110]),
   midi.NoteOnEvent(tick=46, channel=1, data=[61, 0]),
   midi.NoteOnEvent(tick=2, channel=1, data=[61, 110]),
   midi.NoteOnEvent(tick=94, channel=1, data=[61, 0]),
   midi.NoteOnEvent(tick=2, channel=1, data=[61, 110]),
   midi.NoteOnEvent(tick=46, channel=1, data=[61, 0]),
   midi.NoteOnEvent(tick=2, channel=1, data=[61, 110]),
   midi.NoteOnEvent(tick=46, channel=1, data=[61, 0]),
   midi.NoteOnEvent(tick=2, channel=1, data=[61, 110]),
   midi.NoteOnEvent(tick=46, channel=1, data=[61, 0]),
   midi.NoteOnEvent(tick=2, channel=1, data=[61, 110]),
   midi.NoteOnEvent(tick=46, channel=1, data=[61, 0]),
   midi.NoteOnEvent(tick=2, channel=1, data=[61, 110]),
   midi.NoteOnEvent(tick=46, channel=1, data=[61, 0]),
   midi.NoteOnEvent(tick=2, channel=1, data=[61, 110]),
   midi.NoteOnEvent(tick=46, channel=1, data=[61, 0]),
   midi.NoteOnEvent(tick=2, channel=1, data=[57, 110]),
   midi.NoteOnEvent(tick=94, channel=1, data=[57, 0]),
   midi.NoteOnEvent(tick=2, channel=1, data=[67, 110]),
   midi.NoteOnEvent(tick=94, channel=1, data=[67, 0]),
   midi.NoteOnEvent(tick=2, channel=1, data=[66, 110]),
   midi.NoteOnEvent(tick=94, channel=1, data=[66, 0]),
   midi.NoteOnEvent(tick=2, channel=1, data=[57, 110]),
   midi.NoteOnEvent(tick=94, channel=1, data=[57, 0]),
   midi.NoteOnEvent(tick=2, channel=1, data=[66, 110]),
   midi.NoteOnEvent(tick=94, channel=1, data=[66, 0]),
   midi.NoteOnEvent(tick=2, channel=1, data=[64, 110]),
   midi.NoteOnEvent(tick=94, channel=1, data=[64, 0]),
   midi.NoteOnEvent(tick=2, channel=1, data=[62, 110]),
   midi.NoteOnEvent(tick=94, channel=1, data=[62, 0]),
   midi.NoteOnEvent(tick=2, channel=1, data=[61, 110]),
   midi.NoteOnEvent(tick=94, channel=1, data=[61, 0]),
   midi.NoteOnEvent(tick=2, channel=1, data=[55, 110]),
   midi.NoteOnEvent(tick=0, channel=1, data=[62, 110]),
   midi.NoteOnEvent(tick=0, channel=1, data=[67, 110]),
   midi.NoteOnEvent(tick=126, channel=1, data=[55, 0]),
   midi.NoteOnEvent(tick=0, channel=1, data=[62, 0]),
   midi.NoteOnEvent(tick=0, channel=1, data=[67, 0]),
   midi.NoteOnEvent(tick=2, channel=1, data=[54, 110]),
   midi.NoteOnEvent(tick=0, channel=1, data=[61, 110]),
   midi.NoteOnEvent(tick=0, channel=1, data=[66, 110]),
   midi.NoteOnEvent(tick=126, channel=1, data=[54, 0]),
   midi.NoteOnEvent(tick=0, channel=1, data=[61, 0]),
   midi.NoteOnEvent(tick=0, channel=1, data=[66, 0]),
   midi.NoteOnEvent(tick=2, channel=1, data=[52, 110]),
   midi.NoteOnEvent(tick=0, channel=1, data=[59, 110]),
   midi.NoteOnEvent(tick=0, channel=1, data=[64, 110]),
   midi.NoteOnEvent(tick=126, channel=1, data=[52, 0]),
   midi.NoteOnEvent(tick=0, channel=1, data=[59, 0]),
   midi.NoteOnEvent(tick=0, channel=1, data=[64, 0]),
   midi.NoteOnEvent(tick=2, channel=1, data=[62, 110]),
   midi.NoteOnEvent(tick=0, channel=1, data=[69, 110]),
   midi.NoteOnEvent(tick=0, channel=1, data=[74, 110]),
   midi.NoteOnEvent(tick=126, channel=1, data=[62, 0]),
   midi.NoteOnEvent(tick=0, channel=1, data=[69, 0]),
   midi.NoteOnEvent(tick=0, channel=1, data=[74, 0]),
   midi.NoteOnEvent(tick=2, channel=1, data=[61, 110]),
   midi.NoteOnEvent(tick=0, channel=1, data=[68, 110]),
   midi.NoteOnEvent(tick=0, channel=1, data=[73, 110]),
   midi.NoteOnEvent(tick=126, channel=1, data=[61, 0]),
   midi.NoteOnEvent(tick=0, channel=1, data=[68, 0]),
   midi.NoteOnEvent(tick=0, channel=1, data=[73, 0]),
   midi.NoteOnEvent(tick=2, channel=1, data=[59, 110]),
   midi.NoteOnEvent(tick=0, channel=1, data=[66, 110]),
   midi.NoteOnEvent(tick=0, channel=1, data=[71, 110]),
   midi.NoteOnEvent(tick=126, channel=1, data=[59, 0]),
   midi.NoteOnEvent(tick=0, channel=1, data=[66, 0]),
   midi.NoteOnEvent(tick=0, channel=1, data=[71, 0]),
   midi.NoteOnEvent(tick=2, channel=1, data=[61, 110]),
   midi.NoteOnEvent(tick=0, channel=1, data=[68, 110]),
   midi.NoteOnEvent(tick=0, channel=1, data=[73, 110]),
   midi.NoteOnEvent(tick=336, channel=1, data=[61, 0]),
   midi.NoteOnEvent(tick=0, channel=1, data=[68, 0]),
   midi.NoteOnEvent(tick=0, channel=1, data=[73, 0]),
   midi.NoteOnEvent(tick=48, channel=1, data=[61, 110]),
   midi.NoteOnEvent(tick=0, channel=1, data=[68, 110]),
   midi.NoteOnEvent(tick=0, channel=1, data=[73, 110]),
   midi.NoteOnEvent(tick=336, channel=1, data=[61, 0]),
   midi.NoteOnEvent(tick=0, channel=1, data=[68, 0]),
   midi.NoteOnEvent(tick=0, channel=1, data=[73, 0]),
   midi.NoteOnEvent(tick=48, channel=1, data=[61, 110]),
   midi.NoteOnEvent(tick=0, channel=1, data=[68, 110]),
   midi.NoteOnEvent(tick=0, channel=1, data=[73, 110]),
   midi.NoteOnEvent(tick=336, channel=1, data=[61, 0]),
   midi.NoteOnEvent(tick=0, channel=1, data=[68, 0]),
   midi.NoteOnEvent(tick=0, channel=1, data=[73, 0]),
   midi.NoteOnEvent(tick=48, channel=1, data=[61, 110]),
   midi.NoteOnEvent(tick=0, channel=1, data=[68, 110]),
   midi.NoteOnEvent(tick=0, channel=1, data=[73, 110]),
   midi.NoteOnEvent(tick=336, channel=1, data=[61, 0]),
   midi.NoteOnEvent(tick=0, channel=1, data=[68, 0]),
   midi.NoteOnEvent(tick=0, channel=1, data=[73, 0]),
   midi.NoteOnEvent(tick=48, channel=1, data=[61, 110]),
   midi.NoteOnEvent(tick=0, channel=1, data=[68, 110]),
   midi.NoteOnEvent(tick=0, channel=1, data=[73, 110]),
   midi.NoteOnEvent(tick=1488, channel=1, data=[61, 0]),
   midi.NoteOnEvent(tick=0, channel=1, data=[68, 0]),
   midi.NoteOnEvent(tick=0, channel=1, data=[73, 0]),
   midi.NoteOnEvent(tick=48, channel=1, data=[61, 110]),
   midi.NoteOnEvent(tick=0, channel=1, data=[68, 110]),
   midi.NoteOnEvent(tick=94, channel=1, data=[61, 0]),
   midi.NoteOnEvent(tick=0, channel=1, data=[68, 0]),
   midi.NoteOnEvent(tick=2, channel=1, data=[61, 110]),
   midi.NoteOnEvent(tick=46, channel=1, data=[61, 0]),
   midi.NoteOnEvent(tick=2, channel=1, data=[61, 110]),
   midi.NoteOnEvent(tick=46, channel=1, data=[61, 0]),
   midi.NoteOnEvent(tick=2, channel=1, data=[61, 110]),
   midi.NoteOnEvent(tick=46, channel=1, data=[61, 0]),
   midi.NoteOnEvent(tick=2, channel=1, data=[61, 110]),
   midi.NoteOnEvent(tick=46, channel=1, data=[61, 0]),
   midi.NoteOnEvent(tick=2, channel=1, data=[61, 110]),
   midi.NoteOnEvent(tick=46, channel=1, data=[61, 0]),
   midi.NoteOnEvent(tick=2, channel=1, data=[61, 110]),
   midi.NoteOnEvent(tick=46, channel=1, data=[61, 0]),
   midi.NoteOnEvent(tick=2, channel=1, data=[61, 110]),
   midi.NoteOnEvent(tick=94, channel=1, data=[61, 0]),
   midi.NoteOnEvent(tick=2, channel=1, data=[61, 110]),
   midi.NoteOnEvent(tick=46, channel=1, data=[61, 0]),
   midi.NoteOnEvent(tick=2, channel=1, data=[61, 110]),
   midi.NoteOnEvent(tick=46, channel=1, data=[61, 0]),
   midi.NoteOnEvent(tick=2, channel=1, data=[61, 110]),
   midi.NoteOnEvent(tick=46, channel=1, data=[61, 0]),
   midi.NoteOnEvent(tick=2, channel=1, data=[61, 110]),
   midi.NoteOnEvent(tick=46, channel=1, data=[61, 0]),
   midi.NoteOnEvent(tick=2, channel=1, data=[61, 110]),
   midi.NoteOnEvent(tick=46, channel=1, data=[61, 0]),
   midi.NoteOnEvent(tick=2, channel=1, data=[61, 110]),
   midi.NoteOnEvent(tick=46, channel=1, data=[61, 0]),
   midi.NoteOnEvent(tick=2, channel=1, data=[61, 110]),
   midi.NoteOnEvent(tick=0, channel=1, data=[68, 110]),
   midi.NoteOnEvent(tick=94, channel=1, data=[61, 0]),
   midi.NoteOnEvent(tick=0, channel=1, data=[68, 0]),
   midi.NoteOnEvent(tick=2, channel=1, data=[61, 110]),
   midi.NoteOnEvent(tick=46, channel=1, data=[61, 0]),
   midi.NoteOnEvent(tick=2, channel=1, data=[61, 110]),
   midi.NoteOnEvent(tick=46, channel=1, data=[61, 0]),
   midi.NoteOnEvent(tick=2, channel=1, data=[61, 110]),
   midi.NoteOnEvent(tick=46, channel=1, data=[61, 0]),
   midi.NoteOnEvent(tick=2, channel=1, data=[61, 110]),
   midi.NoteOnEvent(tick=46, channel=1, data=[61, 0]),
   midi.NoteOnEvent(tick=2, channel=1, data=[61, 110]),
   midi.NoteOnEvent(tick=46, channel=1, data=[61, 0]),
   midi.NoteOnEvent(tick=2, channel=1, data=[61, 110]),
   midi.NoteOnEvent(tick=46, channel=1, data=[61, 0]),
   midi.NoteOnEvent(tick=2, channel=1, data=[61, 110]),
   midi.NoteOnEvent(tick=94, channel=1, data=[61, 0]),
   midi.NoteOnEvent(tick=2, channel=1, data=[61, 110]),
   midi.NoteOnEvent(tick=46, channel=1, data=[61, 0]),
   midi.NoteOnEvent(tick=2, channel=1, data=[61, 110]),
   midi.NoteOnEvent(tick=46, channel=1, data=[61, 0]),
   midi.NoteOnEvent(tick=2, channel=1, data=[61, 110]),
   midi.NoteOnEvent(tick=46, channel=1, data=[61, 0]),
   midi.NoteOnEvent(tick=2, channel=1, data=[61, 110]),
   midi.NoteOnEvent(tick=46, channel=1, data=[61, 0]),
   midi.NoteOnEvent(tick=2, channel=1, data=[61, 110]),
   midi.NoteOnEvent(tick=46, channel=1, data=[61, 0]),
   midi.NoteOnEvent(tick=2, channel=1, data=[61, 110]),
   midi.NoteOnEvent(tick=46, channel=1, data=[61, 0]),
   midi.NoteOnEvent(tick=2, channel=1, data=[61, 110]),
   midi.NoteOnEvent(tick=0, channel=1, data=[68, 110]),
   midi.NoteOnEvent(tick=94, channel=1, data=[61, 0]),
   midi.NoteOnEvent(tick=0, channel=1, data=[68, 0]),
   midi.NoteOnEvent(tick=2, channel=1, data=[61, 110]),
   midi.NoteOnEvent(tick=46, channel=1, data=[61, 0]),
   midi.NoteOnEvent(tick=2, channel=1, data=[61, 110]),
   midi.NoteOnEvent(tick=46, channel=1, data=[61, 0]),
   midi.NoteOnEvent(tick=2, channel=1, data=[61, 110]),
   midi.NoteOnEvent(tick=46, channel=1, data=[61, 0]),
   midi.NoteOnEvent(tick=2, channel=1, data=[61, 110]),
   midi.NoteOnEvent(tick=46, channel=1, data=[61, 0]),
   midi.NoteOnEvent(tick=2, channel=1, data=[61, 110]),
   midi.NoteOnEvent(tick=46, channel=1, data=[61, 0]),
   midi.NoteOnEvent(tick=2, channel=1, data=[61, 110]),
   midi.NoteOnEvent(tick=46, channel=1, data=[61, 0]),
   midi.NoteOnEvent(tick=2, channel=1, data=[61, 110]),
   midi.NoteOnEvent(tick=94, channel=1, data=[61, 0]),
   midi.NoteOnEvent(tick=2, channel=1, data=[61, 110]),
   midi.NoteOnEvent(tick=46, channel=1, data=[61, 0]),
   midi.NoteOnEvent(tick=2, channel=1, data=[61, 110]),
   midi.NoteOnEvent(tick=46, channel=1, data=[61, 0]),
   midi.NoteOnEvent(tick=2, channel=1, data=[61, 110]),
   midi.NoteOnEvent(tick=46, channel=1, data=[61, 0]),
   midi.NoteOnEvent(tick=2, channel=1, data=[61, 110]),
   midi.NoteOnEvent(tick=46, channel=1, data=[61, 0]),
   midi.NoteOnEvent(tick=2, channel=1, data=[61, 110]),
   midi.NoteOnEvent(tick=46, channel=1, data=[61, 0]),
   midi.NoteOnEvent(tick=2, channel=1, data=[61, 110]),
   midi.NoteOnEvent(tick=46, channel=1, data=[61, 0]),
   midi.NoteOnEvent(tick=2, channel=1, data=[57, 110]),
   midi.NoteOnEvent(tick=94, channel=1, data=[57, 0]),
   midi.NoteOnEvent(tick=2, channel=1, data=[71, 110]),
   midi.NoteOnEvent(tick=94, channel=1, data=[71, 0]),
   midi.NoteOnEvent(tick=2, channel=1, data=[69, 110]),
   midi.NoteOnEvent(tick=94, channel=1, data=[69, 0]),
   midi.NoteOnEvent(tick=2, channel=1, data=[67, 110]),
   midi.NoteOnEvent(tick=94, channel=1, data=[67, 0]),
   midi.NoteOnEvent(tick=2, channel=1, data=[71, 110]),
   midi.NoteOnEvent(tick=94, channel=1, data=[71, 0]),
   midi.NoteOnEvent(tick=2, channel=1, data=[67, 110]),
   midi.NoteOnEvent(tick=94, channel=1, data=[67, 0]),
   midi.NoteOnEvent(tick=2, channel=1, data=[66, 110]),
   midi.NoteOnEvent(tick=94, channel=1, data=[66, 0]),
   midi.NoteOnEvent(tick=2, channel=1, data=[62, 110]),
   midi.NoteOnEvent(tick=94, channel=1, data=[62, 0]),
   midi.NoteOnEvent(tick=2, channel=1, data=[55, 110]),
   midi.NoteOnEvent(tick=0, channel=1, data=[62, 110]),
   midi.NoteOnEvent(tick=0, channel=1, data=[67, 110]),
   midi.NoteOnEvent(tick=126, channel=1, data=[55, 0]),
   midi.NoteOnEvent(tick=0, channel=1, data=[62, 0]),
   midi.NoteOnEvent(tick=0, channel=1, data=[67, 0]),
   midi.NoteOnEvent(tick=2, channel=1, data=[54, 110]),
   midi.NoteOnEvent(tick=0, channel=1, data=[61, 110]),
   midi.NoteOnEvent(tick=0, channel=1, data=[66, 110]),
   midi.NoteOnEvent(tick=126, channel=1, data=[54, 0]),
   midi.NoteOnEvent(tick=0, channel=1, data=[61, 0]),
   midi.NoteOnEvent(tick=0, channel=1, data=[66, 0]),
   midi.NoteOnEvent(tick=2, channel=1, data=[52, 110]),
   midi.NoteOnEvent(tick=0, channel=1, data=[59, 110]),
   midi.NoteOnEvent(tick=0, channel=1, data=[64, 110]),
   midi.NoteOnEvent(tick=126, channel=1, data=[52, 0]),
   midi.NoteOnEvent(tick=0, channel=1, data=[59, 0]),
   midi.NoteOnEvent(tick=0, channel=1, data=[64, 0]),
   midi.NoteOnEvent(tick=2, channel=1, data=[62, 110]),
   midi.NoteOnEvent(tick=0, channel=1, data=[69, 110]),
   midi.NoteOnEvent(tick=0, channel=1, data=[74, 110]),
   midi.NoteOnEvent(tick=126, channel=1, data=[62, 0]),
   midi.NoteOnEvent(tick=0, channel=1, data=[69, 0]),
   midi.NoteOnEvent(tick=0, channel=1, data=[74, 0]),
   midi.NoteOnEvent(tick=2, channel=1, data=[61, 110]),
   midi.NoteOnEvent(tick=0, channel=1, data=[68, 110]),
   midi.NoteOnEvent(tick=0, channel=1, data=[73, 110]),
   midi.NoteOnEvent(tick=126, channel=1, data=[61, 0]),
   midi.NoteOnEvent(tick=0, channel=1, data=[68, 0]),
   midi.NoteOnEvent(tick=0, channel=1, data=[73, 0]),
   midi.NoteOnEvent(tick=2, channel=1, data=[59, 110]),
   midi.NoteOnEvent(tick=0, channel=1, data=[66, 110]),
   midi.NoteOnEvent(tick=0, channel=1, data=[71, 110]),
   midi.NoteOnEvent(tick=126, channel=1, data=[59, 0]),
   midi.NoteOnEvent(tick=0, channel=1, data=[66, 0]),
   midi.NoteOnEvent(tick=0, channel=1, data=[71, 0]),
   midi.NoteOnEvent(tick=2, channel=1, data=[61, 110]),
   midi.NoteOnEvent(tick=0, channel=1, data=[68, 110]),
   midi.NoteOnEvent(tick=0, channel=1, data=[73, 110]),
   midi.NoteOnEvent(tick=720, channel=1, data=[61, 0]),
   midi.NoteOnEvent(tick=0, channel=1, data=[68, 0]),
   midi.NoteOnEvent(tick=0, channel=1, data=[73, 0]),
   midi.EndOfTrackEvent(tick=0, data=[])]),
 midi.Track(\
  [midi.PortEvent(tick=0, data=[0]),
   midi.TextMetaEvent(tick=0, text='Lead Guitar', data=[76, 101, 97, 100, 32, 71, 117, 105, 116, 97, 114]),
   midi.TrackNameEvent(tick=0, text='Lead Guitar', data=[76, 101, 97, 100, 32, 71, 117, 105, 116, 97, 114]),
   midi.InstrumentNameEvent(tick=0, text='Lead Guitar', data=[76, 101, 97, 100, 32, 71, 117, 105, 116, 97, 114]),
   midi.ProgramChangeEvent(tick=0, channel=2, data=[30]),
   midi.ControlChangeEvent(tick=0, channel=2, data=[7, 50]),
   midi.ControlChangeEvent(tick=0, channel=2, data=[10, 64]),
   midi.ControlChangeEvent(tick=9216, channel=2, data=[7, 0]),
   midi.NoteOnEvent(tick=0, channel=2, data=[64, 110]),
   midi.NoteOnEvent(tick=0, channel=2, data=[71, 110]),
   midi.NoteOnEvent(tick=0, channel=2, data=[76, 110]),
   midi.ControlChangeEvent(tick=7, channel=2, data=[7, 1]),
   midi.ControlChangeEvent(tick=8, channel=2, data=[7, 2]),
   midi.ControlChangeEvent(tick=8, channel=2, data=[7, 3]),
   midi.ControlChangeEvent(tick=7, channel=2, data=[7, 4]),
   midi.ControlChangeEvent(tick=8, channel=2, data=[7, 5]),
   midi.ControlChangeEvent(tick=8, channel=2, data=[7, 6]),
   midi.ControlChangeEvent(tick=7, channel=2, data=[7, 7]),
   midi.ControlChangeEvent(tick=8, channel=2, data=[7, 8]),
   midi.ControlChangeEvent(tick=8, channel=2, data=[7, 9]),
   midi.ControlChangeEvent(tick=7, channel=2, data=[7, 10]),
   midi.ControlChangeEvent(tick=8, channel=2, data=[7, 11]),
   midi.ControlChangeEvent(tick=8, channel=2, data=[7, 12]),
   midi.ControlChangeEvent(tick=7, channel=2, data=[7, 13]),
   midi.ControlChangeEvent(tick=8, channel=2, data=[7, 14]),
   midi.ControlChangeEvent(tick=8, channel=2, data=[7, 15]),
   midi.ControlChangeEvent(tick=7, channel=2, data=[7, 16]),
   midi.ControlChangeEvent(tick=8, channel=2, data=[7, 17]),
   midi.ControlChangeEvent(tick=8, channel=2, data=[7, 18]),
   midi.ControlChangeEvent(tick=7, channel=2, data=[7, 19]),
   midi.ControlChangeEvent(tick=8, channel=2, data=[7, 20]),
   midi.ControlChangeEvent(tick=8, channel=2, data=[7, 21]),
   midi.ControlChangeEvent(tick=7, channel=2, data=[7, 22]),
   midi.ControlChangeEvent(tick=8, channel=2, data=[7, 23]),
   midi.ControlChangeEvent(tick=8, channel=2, data=[7, 24]),
   midi.ControlChangeEvent(tick=7, channel=2, data=[7, 25]),
   midi.ControlChangeEvent(tick=8, channel=2, data=[7, 26]),
   midi.ControlChangeEvent(tick=8, channel=2, data=[7, 27]),
   midi.ControlChangeEvent(tick=8, channel=2, data=[7, 28]),
   midi.ControlChangeEvent(tick=7, channel=2, data=[7, 29]),
   midi.ControlChangeEvent(tick=8, channel=2, data=[7, 30]),
   midi.ControlChangeEvent(tick=8, channel=2, data=[7, 31]),
   midi.ControlChangeEvent(tick=7, channel=2, data=[7, 32]),
   midi.ControlChangeEvent(tick=8, channel=2, data=[7, 33]),
   midi.ControlChangeEvent(tick=8, channel=2, data=[7, 34]),
   midi.ControlChangeEvent(tick=7, channel=2, data=[7, 35]),
   midi.ControlChangeEvent(tick=8, channel=2, data=[7, 36]),
   midi.ControlChangeEvent(tick=8, channel=2, data=[7, 37]),
   midi.ControlChangeEvent(tick=7, channel=2, data=[7, 38]),
   midi.ControlChangeEvent(tick=8, channel=2, data=[7, 39]),
   midi.ControlChangeEvent(tick=8, channel=2, data=[7, 40]),
   midi.ControlChangeEvent(tick=7, channel=2, data=[7, 41]),
   midi.ControlChangeEvent(tick=8, channel=2, data=[7, 42]),
   midi.ControlChangeEvent(tick=8, channel=2, data=[7, 43]),
   midi.ControlChangeEvent(tick=7, channel=2, data=[7, 44]),
   midi.ControlChangeEvent(tick=8, channel=2, data=[7, 45]),
   midi.ControlChangeEvent(tick=8, channel=2, data=[7, 46]),
   midi.ControlChangeEvent(tick=7, channel=2, data=[7, 47]),
   midi.ControlChangeEvent(tick=8, channel=2, data=[7, 48]),
   midi.ControlChangeEvent(tick=8, channel=2, data=[7, 49]),
   midi.ControlChangeEvent(tick=8, channel=2, data=[7, 50]),
   midi.NoteOnEvent(tick=144, channel=2, data=[64, 0]),
   midi.NoteOnEvent(tick=0, channel=2, data=[71, 0]),
   midi.NoteOnEvent(tick=0, channel=2, data=[76, 0]),
   midi.NoteOnEvent(tick=48, channel=2, data=[66, 110]),
   midi.NoteOnEvent(tick=0, channel=2, data=[73, 110]),
   midi.NoteOnEvent(tick=0, channel=2, data=[78, 110]),
   midi.NoteOnEvent(tick=160, channel=2, data=[66, 0]),
   midi.NoteOnEvent(tick=0, channel=2, data=[73, 0]),
   midi.NoteOnEvent(tick=0, channel=2, data=[78, 0]),
   midi.NoteOnEvent(tick=32, channel=2, data=[67, 110]),
   midi.NoteOnEvent(tick=0, channel=2, data=[74, 110]),
   midi.NoteOnEvent(tick=0, channel=2, data=[79, 110]),
   midi.NoteOnEvent(tick=160, channel=2, data=[67, 0]),
   midi.NoteOnEvent(tick=0, channel=2, data=[74, 0]),
   midi.NoteOnEvent(tick=0, channel=2, data=[79, 0]),
   midi.NoteOnEvent(tick=32, channel=2, data=[66, 110]),
   midi.NoteOnEvent(tick=0, channel=2, data=[73, 110]),
   midi.NoteOnEvent(tick=0, channel=2, data=[78, 110]),
   midi.NoteOnEvent(tick=160, channel=2, data=[66, 0]),
   midi.NoteOnEvent(tick=0, channel=2, data=[73, 0]),
   midi.NoteOnEvent(tick=0, channel=2, data=[78, 0]),
   midi.ControlChangeEvent(tick=32, channel=2, data=[7, 0]),
   midi.NoteOnEvent(tick=0, channel=2, data=[64, 110]),
   midi.NoteOnEvent(tick=0, channel=2, data=[71, 110]),
   midi.NoteOnEvent(tick=0, channel=2, data=[76, 110]),
   midi.ControlChangeEvent(tick=7, channel=2, data=[7, 1]),
   midi.ControlChangeEvent(tick=8, channel=2, data=[7, 2]),
   midi.ControlChangeEvent(tick=8, channel=2, data=[7, 3]),
   midi.ControlChangeEvent(tick=7, channel=2, data=[7, 4]),
   midi.ControlChangeEvent(tick=8, channel=2, data=[7, 5]),
   midi.ControlChangeEvent(tick=8, channel=2, data=[7, 6]),
   midi.ControlChangeEvent(tick=7, channel=2, data=[7, 7]),
   midi.ControlChangeEvent(tick=8, channel=2, data=[7, 8]),
   midi.ControlChangeEvent(tick=8, channel=2, data=[7, 9]),
   midi.ControlChangeEvent(tick=7, channel=2, data=[7, 10]),
   midi.ControlChangeEvent(tick=8, channel=2, data=[7, 11]),
   midi.ControlChangeEvent(tick=8, channel=2, data=[7, 12]),
   midi.ControlChangeEvent(tick=7, channel=2, data=[7, 13]),
   midi.ControlChangeEvent(tick=8, channel=2, data=[7, 14]),
   midi.ControlChangeEvent(tick=8, channel=2, data=[7, 15]),
   midi.ControlChangeEvent(tick=7, channel=2, data=[7, 16]),
   midi.ControlChangeEvent(tick=8, channel=2, data=[7, 17]),
   midi.ControlChangeEvent(tick=8, channel=2, data=[7, 18]),
   midi.ControlChangeEvent(tick=7, channel=2, data=[7, 19]),
   midi.ControlChangeEvent(tick=8, channel=2, data=[7, 20]),
   midi.ControlChangeEvent(tick=8, channel=2, data=[7, 21]),
   midi.ControlChangeEvent(tick=7, channel=2, data=[7, 22]),
   midi.ControlChangeEvent(tick=8, channel=2, data=[7, 23]),
   midi.ControlChangeEvent(tick=8, channel=2, data=[7, 24]),
   midi.ControlChangeEvent(tick=7, channel=2, data=[7, 25]),
   midi.ControlChangeEvent(tick=8, channel=2, data=[7, 26]),
   midi.ControlChangeEvent(tick=8, channel=2, data=[7, 27]),
   midi.ControlChangeEvent(tick=8, channel=2, data=[7, 28]),
   midi.ControlChangeEvent(tick=7, channel=2, data=[7, 29]),
   midi.ControlChangeEvent(tick=8, channel=2, data=[7, 30]),
   midi.ControlChangeEvent(tick=8, channel=2, data=[7, 31]),
   midi.ControlChangeEvent(tick=7, channel=2, data=[7, 32]),
   midi.ControlChangeEvent(tick=8, channel=2, data=[7, 33]),
   midi.ControlChangeEvent(tick=8, channel=2, data=[7, 34]),
   midi.ControlChangeEvent(tick=7, channel=2, data=[7, 35]),
   midi.ControlChangeEvent(tick=8, channel=2, data=[7, 36]),
   midi.ControlChangeEvent(tick=8, channel=2, data=[7, 37]),
   midi.ControlChangeEvent(tick=7, channel=2, data=[7, 38]),
   midi.ControlChangeEvent(tick=8, channel=2, data=[7, 39]),
   midi.ControlChangeEvent(tick=8, channel=2, data=[7, 40]),
   midi.ControlChangeEvent(tick=7, channel=2, data=[7, 41]),
   midi.ControlChangeEvent(tick=8, channel=2, data=[7, 42]),
   midi.ControlChangeEvent(tick=8, channel=2, data=[7, 43]),
   midi.ControlChangeEvent(tick=7, channel=2, data=[7, 44]),
   midi.ControlChangeEvent(tick=8, channel=2, data=[7, 45]),
   midi.ControlChangeEvent(tick=8, channel=2, data=[7, 46]),
   midi.ControlChangeEvent(tick=7, channel=2, data=[7, 47]),
   midi.ControlChangeEvent(tick=8, channel=2, data=[7, 48]),
   midi.ControlChangeEvent(tick=8, channel=2, data=[7, 49]),
   midi.ControlChangeEvent(tick=8, channel=2, data=[7, 50]),
   midi.NoteOnEvent(tick=144, channel=2, data=[64, 0]),
   midi.NoteOnEvent(tick=0, channel=2, data=[71, 0]),
   midi.NoteOnEvent(tick=0, channel=2, data=[76, 0]),
   midi.NoteOnEvent(tick=48, channel=2, data=[67, 110]),
   midi.NoteOnEvent(tick=0, channel=2, data=[74, 110]),
   midi.NoteOnEvent(tick=0, channel=2, data=[79, 110]),
   midi.NoteOnEvent(tick=160, channel=2, data=[67, 0]),
   midi.NoteOnEvent(tick=0, channel=2, data=[74, 0]),
   midi.NoteOnEvent(tick=0, channel=2, data=[79, 0]),
   midi.NoteOnEvent(tick=32, channel=2, data=[69, 110]),
   midi.NoteOnEvent(tick=0, channel=2, data=[76, 110]),
   midi.NoteOnEvent(tick=0, channel=2, data=[81, 110]),
   midi.NoteOnEvent(tick=160, channel=2, data=[69, 0]),
   midi.NoteOnEvent(tick=0, channel=2, data=[76, 0]),
   midi.NoteOnEvent(tick=0, channel=2, data=[81, 0]),
   midi.NoteOnEvent(tick=32, channel=2, data=[66, 110]),
   midi.NoteOnEvent(tick=0, channel=2, data=[73, 110]),
   midi.NoteOnEvent(tick=0, channel=2, data=[78, 110]),
   midi.NoteOnEvent(tick=160, channel=2, data=[66, 0]),
   midi.NoteOnEvent(tick=0, channel=2, data=[73, 0]),
   midi.NoteOnEvent(tick=0, channel=2, data=[78, 0]),
   midi.ControlChangeEvent(tick=32, channel=2, data=[7, 0]),
   midi.NoteOnEvent(tick=0, channel=2, data=[64, 110]),
   midi.NoteOnEvent(tick=0, channel=2, data=[71, 110]),
   midi.NoteOnEvent(tick=0, channel=2, data=[76, 110]),
   midi.ControlChangeEvent(tick=7, channel=2, data=[7, 1]),
   midi.ControlChangeEvent(tick=8, channel=2, data=[7, 2]),
   midi.ControlChangeEvent(tick=8, channel=2, data=[7, 3]),
   midi.ControlChangeEvent(tick=7, channel=2, data=[7, 4]),
   midi.ControlChangeEvent(tick=8, channel=2, data=[7, 5]),
   midi.ControlChangeEvent(tick=8, channel=2, data=[7, 6]),
   midi.ControlChangeEvent(tick=7, channel=2, data=[7, 7]),
   midi.ControlChangeEvent(tick=8, channel=2, data=[7, 8]),
   midi.ControlChangeEvent(tick=8, channel=2, data=[7, 9]),
   midi.ControlChangeEvent(tick=7, channel=2, data=[7, 10]),
   midi.ControlChangeEvent(tick=8, channel=2, data=[7, 11]),
   midi.ControlChangeEvent(tick=8, channel=2, data=[7, 12]),
   midi.ControlChangeEvent(tick=7, channel=2, data=[7, 13]),
   midi.ControlChangeEvent(tick=8, channel=2, data=[7, 14]),
   midi.ControlChangeEvent(tick=8, channel=2, data=[7, 15]),
   midi.ControlChangeEvent(tick=7, channel=2, data=[7, 16]),
   midi.ControlChangeEvent(tick=8, channel=2, data=[7, 17]),
   midi.ControlChangeEvent(tick=8, channel=2, data=[7, 18]),
   midi.ControlChangeEvent(tick=7, channel=2, data=[7, 19]),
   midi.ControlChangeEvent(tick=8, channel=2, data=[7, 20]),
   midi.ControlChangeEvent(tick=8, channel=2, data=[7, 21]),
   midi.ControlChangeEvent(tick=7, channel=2, data=[7, 22]),
   midi.ControlChangeEvent(tick=8, channel=2, data=[7, 23]),
   midi.ControlChangeEvent(tick=8, channel=2, data=[7, 24]),
   midi.ControlChangeEvent(tick=7, channel=2, data=[7, 25]),
   midi.ControlChangeEvent(tick=8, channel=2, data=[7, 26]),
   midi.ControlChangeEvent(tick=8, channel=2, data=[7, 27]),
   midi.ControlChangeEvent(tick=8, channel=2, data=[7, 28]),
   midi.ControlChangeEvent(tick=7, channel=2, data=[7, 29]),
   midi.ControlChangeEvent(tick=8, channel=2, data=[7, 30]),
   midi.ControlChangeEvent(tick=8, channel=2, data=[7, 31]),
   midi.ControlChangeEvent(tick=7, channel=2, data=[7, 32]),
   midi.ControlChangeEvent(tick=8, channel=2, data=[7, 33]),
   midi.ControlChangeEvent(tick=8, channel=2, data=[7, 34]),
   midi.ControlChangeEvent(tick=7, channel=2, data=[7, 35]),
   midi.ControlChangeEvent(tick=8, channel=2, data=[7, 36]),
   midi.ControlChangeEvent(tick=8, channel=2, data=[7, 37]),
   midi.ControlChangeEvent(tick=7, channel=2, data=[7, 38]),
   midi.ControlChangeEvent(tick=8, channel=2, data=[7, 39]),
   midi.ControlChangeEvent(tick=8, channel=2, data=[7, 40]),
   midi.ControlChangeEvent(tick=7, channel=2, data=[7, 41]),
   midi.ControlChangeEvent(tick=8, channel=2, data=[7, 42]),
   midi.ControlChangeEvent(tick=8, channel=2, data=[7, 43]),
   midi.ControlChangeEvent(tick=7, channel=2, data=[7, 44]),
   midi.ControlChangeEvent(tick=8, channel=2, data=[7, 45]),
   midi.ControlChangeEvent(tick=8, channel=2, data=[7, 46]),
   midi.ControlChangeEvent(tick=7, channel=2, data=[7, 47]),
   midi.ControlChangeEvent(tick=8, channel=2, data=[7, 48]),
   midi.ControlChangeEvent(tick=8, channel=2, data=[7, 49]),
   midi.ControlChangeEvent(tick=8, channel=2, data=[7, 50]),
   midi.NoteOnEvent(tick=144, channel=2, data=[64, 0]),
   midi.NoteOnEvent(tick=0, channel=2, data=[71, 0]),
   midi.NoteOnEvent(tick=0, channel=2, data=[76, 0]),
   midi.NoteOnEvent(tick=48, channel=2, data=[66, 110]),
   midi.NoteOnEvent(tick=0, channel=2, data=[73, 110]),
   midi.NoteOnEvent(tick=0, channel=2, data=[78, 110]),
   midi.NoteOnEvent(tick=160, channel=2, data=[66, 0]),
   midi.NoteOnEvent(tick=0, channel=2, data=[73, 0]),
   midi.NoteOnEvent(tick=0, channel=2, data=[78, 0]),
   midi.NoteOnEvent(tick=32, channel=2, data=[67, 110]),
   midi.NoteOnEvent(tick=0, channel=2, data=[74, 110]),
   midi.NoteOnEvent(tick=0, channel=2, data=[79, 110]),
   midi.NoteOnEvent(tick=160, channel=2, data=[67, 0]),
   midi.NoteOnEvent(tick=0, channel=2, data=[74, 0]),
   midi.NoteOnEvent(tick=0, channel=2, data=[79, 0]),
   midi.NoteOnEvent(tick=32, channel=2, data=[66, 110]),
   midi.NoteOnEvent(tick=0, channel=2, data=[73, 110]),
   midi.NoteOnEvent(tick=0, channel=2, data=[78, 110]),
   midi.NoteOnEvent(tick=160, channel=2, data=[66, 0]),
   midi.NoteOnEvent(tick=0, channel=2, data=[73, 0]),
   midi.NoteOnEvent(tick=0, channel=2, data=[78, 0]),
   midi.ControlChangeEvent(tick=32, channel=2, data=[7, 0]),
   midi.NoteOnEvent(tick=0, channel=2, data=[64, 110]),
   midi.NoteOnEvent(tick=0, channel=2, data=[71, 110]),
   midi.NoteOnEvent(tick=0, channel=2, data=[76, 110]),
   midi.ControlChangeEvent(tick=7, channel=2, data=[7, 1]),
   midi.ControlChangeEvent(tick=8, channel=2, data=[7, 2]),
   midi.ControlChangeEvent(tick=8, channel=2, data=[7, 3]),
   midi.ControlChangeEvent(tick=7, channel=2, data=[7, 4]),
   midi.ControlChangeEvent(tick=8, channel=2, data=[7, 5]),
   midi.ControlChangeEvent(tick=8, channel=2, data=[7, 6]),
   midi.ControlChangeEvent(tick=7, channel=2, data=[7, 7]),
   midi.ControlChangeEvent(tick=8, channel=2, data=[7, 8]),
   midi.ControlChangeEvent(tick=8, channel=2, data=[7, 9]),
   midi.ControlChangeEvent(tick=7, channel=2, data=[7, 10]),
   midi.ControlChangeEvent(tick=8, channel=2, data=[7, 11]),
   midi.ControlChangeEvent(tick=8, channel=2, data=[7, 12]),
   midi.ControlChangeEvent(tick=7, channel=2, data=[7, 13]),
   midi.ControlChangeEvent(tick=8, channel=2, data=[7, 14]),
   midi.ControlChangeEvent(tick=8, channel=2, data=[7, 15]),
   midi.ControlChangeEvent(tick=7, channel=2, data=[7, 16]),
   midi.ControlChangeEvent(tick=8, channel=2, data=[7, 17]),
   midi.ControlChangeEvent(tick=8, channel=2, data=[7, 18]),
   midi.ControlChangeEvent(tick=7, channel=2, data=[7, 19]),
   midi.ControlChangeEvent(tick=8, channel=2, data=[7, 20]),
   midi.ControlChangeEvent(tick=8, channel=2, data=[7, 21]),
   midi.ControlChangeEvent(tick=7, channel=2, data=[7, 22]),
   midi.ControlChangeEvent(tick=8, channel=2, data=[7, 23]),
   midi.ControlChangeEvent(tick=8, channel=2, data=[7, 24]),
   midi.ControlChangeEvent(tick=7, channel=2, data=[7, 25]),
   midi.ControlChangeEvent(tick=8, channel=2, data=[7, 26]),
   midi.ControlChangeEvent(tick=8, channel=2, data=[7, 27]),
   midi.ControlChangeEvent(tick=8, channel=2, data=[7, 28]),
   midi.ControlChangeEvent(tick=7, channel=2, data=[7, 29]),
   midi.ControlChangeEvent(tick=8, channel=2, data=[7, 30]),
   midi.ControlChangeEvent(tick=8, channel=2, data=[7, 31]),
   midi.ControlChangeEvent(tick=7, channel=2, data=[7, 32]),
   midi.ControlChangeEvent(tick=8, channel=2, data=[7, 33]),
   midi.ControlChangeEvent(tick=8, channel=2, data=[7, 34]),
   midi.ControlChangeEvent(tick=7, channel=2, data=[7, 35]),
   midi.ControlChangeEvent(tick=8, channel=2, data=[7, 36]),
   midi.ControlChangeEvent(tick=8, channel=2, data=[7, 37]),
   midi.ControlChangeEvent(tick=7, channel=2, data=[7, 38]),
   midi.ControlChangeEvent(tick=8, channel=2, data=[7, 39]),
   midi.ControlChangeEvent(tick=8, channel=2, data=[7, 40]),
   midi.ControlChangeEvent(tick=7, channel=2, data=[7, 41]),
   midi.ControlChangeEvent(tick=8, channel=2, data=[7, 42]),
   midi.ControlChangeEvent(tick=8, channel=2, data=[7, 43]),
   midi.ControlChangeEvent(tick=7, channel=2, data=[7, 44]),
   midi.ControlChangeEvent(tick=8, channel=2, data=[7, 45]),
   midi.ControlChangeEvent(tick=8, channel=2, data=[7, 46]),
   midi.ControlChangeEvent(tick=7, channel=2, data=[7, 47]),
   midi.ControlChangeEvent(tick=8, channel=2, data=[7, 48]),
   midi.ControlChangeEvent(tick=8, channel=2, data=[7, 49]),
   midi.ControlChangeEvent(tick=8, channel=2, data=[7, 50]),
   midi.NoteOnEvent(tick=448, channel=2, data=[64, 0]),
   midi.NoteOnEvent(tick=0, channel=2, data=[71, 0]),
   midi.NoteOnEvent(tick=0, channel=2, data=[76, 0]),
   midi.NoteOnEvent(tick=32, channel=2, data=[67, 110]),
   midi.NoteOnEvent(tick=0, channel=2, data=[74, 110]),
   midi.NoteOnEvent(tick=0, channel=2, data=[79, 110]),
   midi.NoteOnEvent(tick=256, channel=2, data=[67, 0]),
   midi.NoteOnEvent(tick=0, channel=2, data=[74, 0]),
   midi.NoteOnEvent(tick=0, channel=2, data=[79, 0]),
   midi.ControlChangeEvent(tick=32, channel=2, data=[7, 0]),
   midi.NoteOnEvent(tick=0, channel=2, data=[64, 110]),
   midi.NoteOnEvent(tick=0, channel=2, data=[71, 110]),
   midi.NoteOnEvent(tick=0, channel=2, data=[76, 110]),
   midi.ControlChangeEvent(tick=7, channel=2, data=[7, 1]),
   midi.ControlChangeEvent(tick=8, channel=2, data=[7, 2]),
   midi.ControlChangeEvent(tick=8, channel=2, data=[7, 3]),
   midi.ControlChangeEvent(tick=7, channel=2, data=[7, 4]),
   midi.ControlChangeEvent(tick=8, channel=2, data=[7, 5]),
   midi.ControlChangeEvent(tick=8, channel=2, data=[7, 6]),
   midi.ControlChangeEvent(tick=7, channel=2, data=[7, 7]),
   midi.ControlChangeEvent(tick=8, channel=2, data=[7, 8]),
   midi.ControlChangeEvent(tick=8, channel=2, data=[7, 9]),
   midi.ControlChangeEvent(tick=7, channel=2, data=[7, 10]),
   midi.ControlChangeEvent(tick=8, channel=2, data=[7, 11]),
   midi.ControlChangeEvent(tick=8, channel=2, data=[7, 12]),
   midi.ControlChangeEvent(tick=7, channel=2, data=[7, 13]),
   midi.ControlChangeEvent(tick=8, channel=2, data=[7, 14]),
   midi.ControlChangeEvent(tick=8, channel=2, data=[7, 15]),
   midi.ControlChangeEvent(tick=7, channel=2, data=[7, 16]),
   midi.ControlChangeEvent(tick=8, channel=2, data=[7, 17]),
   midi.ControlChangeEvent(tick=8, channel=2, data=[7, 18]),
   midi.ControlChangeEvent(tick=7, channel=2, data=[7, 19]),
   midi.ControlChangeEvent(tick=8, channel=2, data=[7, 20]),
   midi.ControlChangeEvent(tick=8, channel=2, data=[7, 21]),
   midi.ControlChangeEvent(tick=7, channel=2, data=[7, 22]),
   midi.ControlChangeEvent(tick=8, channel=2, data=[7, 23]),
   midi.ControlChangeEvent(tick=8, channel=2, data=[7, 24]),
   midi.ControlChangeEvent(tick=7, channel=2, data=[7, 25]),
   midi.ControlChangeEvent(tick=8, channel=2, data=[7, 26]),
   midi.ControlChangeEvent(tick=8, channel=2, data=[7, 27]),
   midi.ControlChangeEvent(tick=8, channel=2, data=[7, 28]),
   midi.ControlChangeEvent(tick=7, channel=2, data=[7, 29]),
   midi.ControlChangeEvent(tick=8, channel=2, data=[7, 30]),
   midi.ControlChangeEvent(tick=8, channel=2, data=[7, 31]),
   midi.ControlChangeEvent(tick=7, channel=2, data=[7, 32]),
   midi.ControlChangeEvent(tick=8, channel=2, data=[7, 33]),
   midi.ControlChangeEvent(tick=8, channel=2, data=[7, 34]),
   midi.ControlChangeEvent(tick=7, channel=2, data=[7, 35]),
   midi.ControlChangeEvent(tick=8, channel=2, data=[7, 36]),
   midi.ControlChangeEvent(tick=8, channel=2, data=[7, 37]),
   midi.ControlChangeEvent(tick=7, channel=2, data=[7, 38]),
   midi.ControlChangeEvent(tick=8, channel=2, data=[7, 39]),
   midi.ControlChangeEvent(tick=8, channel=2, data=[7, 40]),
   midi.ControlChangeEvent(tick=7, channel=2, data=[7, 41]),
   midi.ControlChangeEvent(tick=8, channel=2, data=[7, 42]),
   midi.ControlChangeEvent(tick=8, channel=2, data=[7, 43]),
   midi.ControlChangeEvent(tick=7, channel=2, data=[7, 44]),
   midi.ControlChangeEvent(tick=8, channel=2, data=[7, 45]),
   midi.ControlChangeEvent(tick=8, channel=2, data=[7, 46]),
   midi.ControlChangeEvent(tick=7, channel=2, data=[7, 47]),
   midi.ControlChangeEvent(tick=8, channel=2, data=[7, 48]),
   midi.ControlChangeEvent(tick=8, channel=2, data=[7, 49]),
   midi.ControlChangeEvent(tick=8, channel=2, data=[7, 50]),
   midi.NoteOnEvent(tick=144, channel=2, data=[64, 0]),
   midi.NoteOnEvent(tick=0, channel=2, data=[71, 0]),
   midi.NoteOnEvent(tick=0, channel=2, data=[76, 0]),
   midi.NoteOnEvent(tick=48, channel=2, data=[66, 110]),
   midi.NoteOnEvent(tick=0, channel=2, data=[73, 110]),
   midi.NoteOnEvent(tick=0, channel=2, data=[78, 110]),
   midi.NoteOnEvent(tick=160, channel=2, data=[66, 0]),
   midi.NoteOnEvent(tick=0, channel=2, data=[73, 0]),
   midi.NoteOnEvent(tick=0, channel=2, data=[78, 0]),
   midi.NoteOnEvent(tick=32, channel=2, data=[67, 110]),
   midi.NoteOnEvent(tick=0, channel=2, data=[74, 110]),
   midi.NoteOnEvent(tick=0, channel=2, data=[79, 110]),
   midi.NoteOnEvent(tick=160, channel=2, data=[67, 0]),
   midi.NoteOnEvent(tick=0, channel=2, data=[74, 0]),
   midi.NoteOnEvent(tick=0, channel=2, data=[79, 0]),
   midi.NoteOnEvent(tick=32, channel=2, data=[66, 110]),
   midi.NoteOnEvent(tick=0, channel=2, data=[73, 110]),
   midi.NoteOnEvent(tick=0, channel=2, data=[78, 110]),
   midi.NoteOnEvent(tick=160, channel=2, data=[66, 0]),
   midi.NoteOnEvent(tick=0, channel=2, data=[73, 0]),
   midi.NoteOnEvent(tick=0, channel=2, data=[78, 0]),
   midi.ControlChangeEvent(tick=32, channel=2, data=[7, 0]),
   midi.NoteOnEvent(tick=0, channel=2, data=[64, 110]),
   midi.NoteOnEvent(tick=0, channel=2, data=[71, 110]),
   midi.NoteOnEvent(tick=0, channel=2, data=[76, 110]),
   midi.ControlChangeEvent(tick=7, channel=2, data=[7, 1]),
   midi.ControlChangeEvent(tick=8, channel=2, data=[7, 2]),
   midi.ControlChangeEvent(tick=8, channel=2, data=[7, 3]),
   midi.ControlChangeEvent(tick=7, channel=2, data=[7, 4]),
   midi.ControlChangeEvent(tick=8, channel=2, data=[7, 5]),
   midi.ControlChangeEvent(tick=8, channel=2, data=[7, 6]),
   midi.ControlChangeEvent(tick=7, channel=2, data=[7, 7]),
   midi.ControlChangeEvent(tick=8, channel=2, data=[7, 8]),
   midi.ControlChangeEvent(tick=8, channel=2, data=[7, 9]),
   midi.ControlChangeEvent(tick=7, channel=2, data=[7, 10]),
   midi.ControlChangeEvent(tick=8, channel=2, data=[7, 11]),
   midi.ControlChangeEvent(tick=8, channel=2, data=[7, 12]),
   midi.ControlChangeEvent(tick=7, channel=2, data=[7, 13]),
   midi.ControlChangeEvent(tick=8, channel=2, data=[7, 14]),
   midi.ControlChangeEvent(tick=8, channel=2, data=[7, 15]),
   midi.ControlChangeEvent(tick=7, channel=2, data=[7, 16]),
   midi.ControlChangeEvent(tick=8, channel=2, data=[7, 17]),
   midi.ControlChangeEvent(tick=8, channel=2, data=[7, 18]),
   midi.ControlChangeEvent(tick=7, channel=2, data=[7, 19]),
   midi.ControlChangeEvent(tick=8, channel=2, data=[7, 20]),
   midi.ControlChangeEvent(tick=8, channel=2, data=[7, 21]),
   midi.ControlChangeEvent(tick=7, channel=2, data=[7, 22]),
   midi.ControlChangeEvent(tick=8, channel=2, data=[7, 23]),
   midi.ControlChangeEvent(tick=8, channel=2, data=[7, 24]),
   midi.ControlChangeEvent(tick=7, channel=2, data=[7, 25]),
   midi.ControlChangeEvent(tick=8, channel=2, data=[7, 26]),
   midi.ControlChangeEvent(tick=8, channel=2, data=[7, 27]),
   midi.ControlChangeEvent(tick=8, channel=2, data=[7, 28]),
   midi.ControlChangeEvent(tick=7, channel=2, data=[7, 29]),
   midi.ControlChangeEvent(tick=8, channel=2, data=[7, 30]),
   midi.ControlChangeEvent(tick=8, channel=2, data=[7, 31]),
   midi.ControlChangeEvent(tick=7, channel=2, data=[7, 32]),
   midi.ControlChangeEvent(tick=8, channel=2, data=[7, 33]),
   midi.ControlChangeEvent(tick=8, channel=2, data=[7, 34]),
   midi.ControlChangeEvent(tick=7, channel=2, data=[7, 35]),
   midi.ControlChangeEvent(tick=8, channel=2, data=[7, 36]),
   midi.ControlChangeEvent(tick=8, channel=2, data=[7, 37]),
   midi.ControlChangeEvent(tick=7, channel=2, data=[7, 38]),
   midi.ControlChangeEvent(tick=8, channel=2, data=[7, 39]),
   midi.ControlChangeEvent(tick=8, channel=2, data=[7, 40]),
   midi.ControlChangeEvent(tick=7, channel=2, data=[7, 41]),
   midi.ControlChangeEvent(tick=8, channel=2, data=[7, 42]),
   midi.ControlChangeEvent(tick=8, channel=2, data=[7, 43]),
   midi.ControlChangeEvent(tick=7, channel=2, data=[7, 44]),
   midi.ControlChangeEvent(tick=8, channel=2, data=[7, 45]),
   midi.ControlChangeEvent(tick=8, channel=2, data=[7, 46]),
   midi.ControlChangeEvent(tick=7, channel=2, data=[7, 47]),
   midi.ControlChangeEvent(tick=8, channel=2, data=[7, 48]),
   midi.ControlChangeEvent(tick=8, channel=2, data=[7, 49]),
   midi.ControlChangeEvent(tick=8, channel=2, data=[7, 50]),
   midi.NoteOnEvent(tick=144, channel=2, data=[64, 0]),
   midi.NoteOnEvent(tick=0, channel=2, data=[71, 0]),
   midi.NoteOnEvent(tick=0, channel=2, data=[76, 0]),
   midi.NoteOnEvent(tick=48, channel=2, data=[67, 110]),
   midi.NoteOnEvent(tick=0, channel=2, data=[74, 110]),
   midi.NoteOnEvent(tick=0, channel=2, data=[79, 110]),
   midi.NoteOnEvent(tick=160, channel=2, data=[67, 0]),
   midi.NoteOnEvent(tick=0, channel=2, data=[74, 0]),
   midi.NoteOnEvent(tick=0, channel=2, data=[79, 0]),
   midi.NoteOnEvent(tick=32, channel=2, data=[69, 110]),
   midi.NoteOnEvent(tick=0, channel=2, data=[76, 110]),
   midi.NoteOnEvent(tick=0, channel=2, data=[81, 110]),
   midi.NoteOnEvent(tick=160, channel=2, data=[69, 0]),
   midi.NoteOnEvent(tick=0, channel=2, data=[76, 0]),
   midi.NoteOnEvent(tick=0, channel=2, data=[81, 0]),
   midi.NoteOnEvent(tick=32, channel=2, data=[66, 110]),
   midi.NoteOnEvent(tick=0, channel=2, data=[73, 110]),
   midi.NoteOnEvent(tick=0, channel=2, data=[78, 110]),
   midi.NoteOnEvent(tick=160, channel=2, data=[66, 0]),
   midi.NoteOnEvent(tick=0, channel=2, data=[73, 0]),
   midi.NoteOnEvent(tick=0, channel=2, data=[78, 0]),
   midi.ControlChangeEvent(tick=32, channel=2, data=[7, 0]),
   midi.NoteOnEvent(tick=0, channel=2, data=[64, 110]),
   midi.NoteOnEvent(tick=0, channel=2, data=[71, 110]),
   midi.NoteOnEvent(tick=0, channel=2, data=[76, 110]),
   midi.ControlChangeEvent(tick=7, channel=2, data=[7, 1]),
   midi.ControlChangeEvent(tick=8, channel=2, data=[7, 2]),
   midi.ControlChangeEvent(tick=8, channel=2, data=[7, 3]),
   midi.ControlChangeEvent(tick=7, channel=2, data=[7, 4]),
   midi.ControlChangeEvent(tick=8, channel=2, data=[7, 5]),
   midi.ControlChangeEvent(tick=8, channel=2, data=[7, 6]),
   midi.ControlChangeEvent(tick=7, channel=2, data=[7, 7]),
   midi.ControlChangeEvent(tick=8, channel=2, data=[7, 8]),
   midi.ControlChangeEvent(tick=8, channel=2, data=[7, 9]),
   midi.ControlChangeEvent(tick=7, channel=2, data=[7, 10]),
   midi.ControlChangeEvent(tick=8, channel=2, data=[7, 11]),
   midi.ControlChangeEvent(tick=8, channel=2, data=[7, 12]),
   midi.ControlChangeEvent(tick=7, channel=2, data=[7, 13]),
   midi.ControlChangeEvent(tick=8, channel=2, data=[7, 14]),
   midi.ControlChangeEvent(tick=8, channel=2, data=[7, 15]),
   midi.ControlChangeEvent(tick=7, channel=2, data=[7, 16]),
   midi.ControlChangeEvent(tick=8, channel=2, data=[7, 17]),
   midi.ControlChangeEvent(tick=8, channel=2, data=[7, 18]),
   midi.ControlChangeEvent(tick=7, channel=2, data=[7, 19]),
   midi.ControlChangeEvent(tick=8, channel=2, data=[7, 20]),
   midi.ControlChangeEvent(tick=8, channel=2, data=[7, 21]),
   midi.ControlChangeEvent(tick=7, channel=2, data=[7, 22]),
   midi.ControlChangeEvent(tick=8, channel=2, data=[7, 23]),
   midi.ControlChangeEvent(tick=8, channel=2, data=[7, 24]),
   midi.ControlChangeEvent(tick=7, channel=2, data=[7, 25]),
   midi.ControlChangeEvent(tick=8, channel=2, data=[7, 26]),
   midi.ControlChangeEvent(tick=8, channel=2, data=[7, 27]),
   midi.ControlChangeEvent(tick=8, channel=2, data=[7, 28]),
   midi.ControlChangeEvent(tick=7, channel=2, data=[7, 29]),
   midi.ControlChangeEvent(tick=8, channel=2, data=[7, 30]),
   midi.ControlChangeEvent(tick=8, channel=2, data=[7, 31]),
   midi.ControlChangeEvent(tick=7, channel=2, data=[7, 32]),
   midi.ControlChangeEvent(tick=8, channel=2, data=[7, 33]),
   midi.ControlChangeEvent(tick=8, channel=2, data=[7, 34]),
   midi.ControlChangeEvent(tick=7, channel=2, data=[7, 35]),
   midi.ControlChangeEvent(tick=8, channel=2, data=[7, 36]),
   midi.ControlChangeEvent(tick=8, channel=2, data=[7, 37]),
   midi.ControlChangeEvent(tick=7, channel=2, data=[7, 38]),
   midi.ControlChangeEvent(tick=8, channel=2, data=[7, 39]),
   midi.ControlChangeEvent(tick=8, channel=2, data=[7, 40]),
   midi.ControlChangeEvent(tick=7, channel=2, data=[7, 41]),
   midi.ControlChangeEvent(tick=8, channel=2, data=[7, 42]),
   midi.ControlChangeEvent(tick=8, channel=2, data=[7, 43]),
   midi.ControlChangeEvent(tick=7, channel=2, data=[7, 44]),
   midi.ControlChangeEvent(tick=8, channel=2, data=[7, 45]),
   midi.ControlChangeEvent(tick=8, channel=2, data=[7, 46]),
   midi.ControlChangeEvent(tick=7, channel=2, data=[7, 47]),
   midi.ControlChangeEvent(tick=8, channel=2, data=[7, 48]),
   midi.ControlChangeEvent(tick=8, channel=2, data=[7, 49]),
   midi.ControlChangeEvent(tick=8, channel=2, data=[7, 50]),
   midi.NoteOnEvent(tick=144, channel=2, data=[64, 0]),
   midi.NoteOnEvent(tick=0, channel=2, data=[71, 0]),
   midi.NoteOnEvent(tick=0, channel=2, data=[76, 0]),
   midi.NoteOnEvent(tick=48, channel=2, data=[66, 110]),
   midi.NoteOnEvent(tick=0, channel=2, data=[73, 110]),
   midi.NoteOnEvent(tick=0, channel=2, data=[78, 110]),
   midi.NoteOnEvent(tick=160, channel=2, data=[66, 0]),
   midi.NoteOnEvent(tick=0, channel=2, data=[73, 0]),
   midi.NoteOnEvent(tick=0, channel=2, data=[78, 0]),
   midi.NoteOnEvent(tick=32, channel=2, data=[67, 110]),
   midi.NoteOnEvent(tick=0, channel=2, data=[74, 110]),
   midi.NoteOnEvent(tick=0, channel=2, data=[79, 110]),
   midi.NoteOnEvent(tick=160, channel=2, data=[67, 0]),
   midi.NoteOnEvent(tick=0, channel=2, data=[74, 0]),
   midi.NoteOnEvent(tick=0, channel=2, data=[79, 0]),
   midi.NoteOnEvent(tick=32, channel=2, data=[66, 110]),
   midi.NoteOnEvent(tick=0, channel=2, data=[73, 110]),
   midi.NoteOnEvent(tick=0, channel=2, data=[78, 110]),
   midi.NoteOnEvent(tick=160, channel=2, data=[66, 0]),
   midi.NoteOnEvent(tick=0, channel=2, data=[73, 0]),
   midi.NoteOnEvent(tick=0, channel=2, data=[78, 0]),
   midi.ControlChangeEvent(tick=32, channel=2, data=[7, 0]),
   midi.ControlChangeEvent(tick=0, channel=2, data=[7, 0]),
   midi.NoteOnEvent(tick=0, channel=2, data=[64, 110]),
   midi.NoteOnEvent(tick=0, channel=2, data=[71, 110]),
   midi.NoteOnEvent(tick=0, channel=2, data=[76, 110]),
   midi.ControlChangeEvent(tick=7, channel=2, data=[7, 1]),
   midi.ControlChangeEvent(tick=0, channel=2, data=[7, 1]),
   midi.ControlChangeEvent(tick=8, channel=2, data=[7, 2]),
   midi.ControlChangeEvent(tick=0, channel=2, data=[7, 2]),
   midi.ControlChangeEvent(tick=8, channel=2, data=[7, 3]),
   midi.ControlChangeEvent(tick=0, channel=2, data=[7, 3]),
   midi.ControlChangeEvent(tick=7, channel=2, data=[7, 4]),
   midi.ControlChangeEvent(tick=0, channel=2, data=[7, 4]),
   midi.ControlChangeEvent(tick=8, channel=2, data=[7, 5]),
   midi.ControlChangeEvent(tick=0, channel=2, data=[7, 5]),
   midi.ControlChangeEvent(tick=8, channel=2, data=[7, 6]),
   midi.ControlChangeEvent(tick=0, channel=2, data=[7, 6]),
   midi.ControlChangeEvent(tick=7, channel=2, data=[7, 7]),
   midi.ControlChangeEvent(tick=0, channel=2, data=[7, 7]),
   midi.ControlChangeEvent(tick=8, channel=2, data=[7, 8]),
   midi.ControlChangeEvent(tick=0, channel=2, data=[7, 8]),
   midi.ControlChangeEvent(tick=8, channel=2, data=[7, 9]),
   midi.ControlChangeEvent(tick=0, channel=2, data=[7, 9]),
   midi.ControlChangeEvent(tick=7, channel=2, data=[7, 10]),
   midi.ControlChangeEvent(tick=0, channel=2, data=[7, 10]),
   midi.ControlChangeEvent(tick=8, channel=2, data=[7, 11]),
   midi.ControlChangeEvent(tick=0, channel=2, data=[7, 11]),
   midi.ControlChangeEvent(tick=8, channel=2, data=[7, 12]),
   midi.ControlChangeEvent(tick=0, channel=2, data=[7, 12]),
   midi.ControlChangeEvent(tick=7, channel=2, data=[7, 13]),
   midi.ControlChangeEvent(tick=0, channel=2, data=[7, 13]),
   midi.ControlChangeEvent(tick=8, channel=2, data=[7, 14]),
   midi.ControlChangeEvent(tick=0, channel=2, data=[7, 14]),
   midi.ControlChangeEvent(tick=8, channel=2, data=[7, 15]),
   midi.ControlChangeEvent(tick=0, channel=2, data=[7, 15]),
   midi.ControlChangeEvent(tick=7, channel=2, data=[7, 16]),
   midi.ControlChangeEvent(tick=0, channel=2, data=[7, 16]),
   midi.ControlChangeEvent(tick=8, channel=2, data=[7, 17]),
   midi.ControlChangeEvent(tick=0, channel=2, data=[7, 17]),
   midi.ControlChangeEvent(tick=8, channel=2, data=[7, 18]),
   midi.ControlChangeEvent(tick=0, channel=2, data=[7, 18]),
   midi.ControlChangeEvent(tick=7, channel=2, data=[7, 19]),
   midi.ControlChangeEvent(tick=0, channel=2, data=[7, 19]),
   midi.ControlChangeEvent(tick=8, channel=2, data=[7, 20]),
   midi.ControlChangeEvent(tick=0, channel=2, data=[7, 20]),
   midi.ControlChangeEvent(tick=8, channel=2, data=[7, 21]),
   midi.ControlChangeEvent(tick=0, channel=2, data=[7, 21]),
   midi.ControlChangeEvent(tick=7, channel=2, data=[7, 22]),
   midi.ControlChangeEvent(tick=0, channel=2, data=[7, 22]),
   midi.ControlChangeEvent(tick=8, channel=2, data=[7, 23]),
   midi.ControlChangeEvent(tick=0, channel=2, data=[7, 23]),
   midi.ControlChangeEvent(tick=8, channel=2, data=[7, 24]),
   midi.ControlChangeEvent(tick=0, channel=2, data=[7, 24]),
   midi.ControlChangeEvent(tick=7, channel=2, data=[7, 25]),
   midi.ControlChangeEvent(tick=0, channel=2, data=[7, 25]),
   midi.ControlChangeEvent(tick=8, channel=2, data=[7, 26]),
   midi.ControlChangeEvent(tick=0, channel=2, data=[7, 26]),
   midi.ControlChangeEvent(tick=8, channel=2, data=[7, 27]),
   midi.ControlChangeEvent(tick=0, channel=2, data=[7, 27]),
   midi.ControlChangeEvent(tick=8, channel=2, data=[7, 28]),
   midi.ControlChangeEvent(tick=0, channel=2, data=[7, 28]),
   midi.ControlChangeEvent(tick=7, channel=2, data=[7, 29]),
   midi.ControlChangeEvent(tick=0, channel=2, data=[7, 29]),
   midi.ControlChangeEvent(tick=8, channel=2, data=[7, 30]),
   midi.ControlChangeEvent(tick=0, channel=2, data=[7, 30]),
   midi.ControlChangeEvent(tick=8, channel=2, data=[7, 31]),
   midi.ControlChangeEvent(tick=0, channel=2, data=[7, 31]),
   midi.ControlChangeEvent(tick=7, channel=2, data=[7, 32]),
   midi.ControlChangeEvent(tick=0, channel=2, data=[7, 32]),
   midi.ControlChangeEvent(tick=8, channel=2, data=[7, 33]),
   midi.ControlChangeEvent(tick=0, channel=2, data=[7, 33]),
   midi.ControlChangeEvent(tick=8, channel=2, data=[7, 34]),
   midi.ControlChangeEvent(tick=0, channel=2, data=[7, 34]),
   midi.ControlChangeEvent(tick=7, channel=2, data=[7, 35]),
   midi.ControlChangeEvent(tick=0, channel=2, data=[7, 35]),
   midi.ControlChangeEvent(tick=8, channel=2, data=[7, 36]),
   midi.ControlChangeEvent(tick=0, channel=2, data=[7, 36]),
   midi.ControlChangeEvent(tick=8, channel=2, data=[7, 37]),
   midi.ControlChangeEvent(tick=0, channel=2, data=[7, 37]),
   midi.ControlChangeEvent(tick=7, channel=2, data=[7, 38]),
   midi.ControlChangeEvent(tick=0, channel=2, data=[7, 38]),
   midi.ControlChangeEvent(tick=8, channel=2, data=[7, 39]),
   midi.ControlChangeEvent(tick=0, channel=2, data=[7, 39]),
   midi.ControlChangeEvent(tick=8, channel=2, data=[7, 40]),
   midi.ControlChangeEvent(tick=0, channel=2, data=[7, 40]),
   midi.ControlChangeEvent(tick=7, channel=2, data=[7, 41]),
   midi.ControlChangeEvent(tick=0, channel=2, data=[7, 41]),
   midi.ControlChangeEvent(tick=8, channel=2, data=[7, 42]),
   midi.ControlChangeEvent(tick=0, channel=2, data=[7, 42]),
   midi.ControlChangeEvent(tick=8, channel=2, data=[7, 43]),
   midi.ControlChangeEvent(tick=0, channel=2, data=[7, 43]),
   midi.ControlChangeEvent(tick=7, channel=2, data=[7, 44]),
   midi.ControlChangeEvent(tick=0, channel=2, data=[7, 44]),
   midi.ControlChangeEvent(tick=8, channel=2, data=[7, 45]),
   midi.ControlChangeEvent(tick=0, channel=2, data=[7, 45]),
   midi.ControlChangeEvent(tick=8, channel=2, data=[7, 46]),
   midi.ControlChangeEvent(tick=0, channel=2, data=[7, 46]),
   midi.ControlChangeEvent(tick=7, channel=2, data=[7, 47]),
   midi.ControlChangeEvent(tick=0, channel=2, data=[7, 47]),
   midi.ControlChangeEvent(tick=8, channel=2, data=[7, 48]),
   midi.ControlChangeEvent(tick=0, channel=2, data=[7, 48]),
   midi.ControlChangeEvent(tick=8, channel=2, data=[7, 49]),
   midi.ControlChangeEvent(tick=0, channel=2, data=[7, 49]),
   midi.ControlChangeEvent(tick=8, channel=2, data=[7, 50]),
   midi.ControlChangeEvent(tick=0, channel=2, data=[7, 50]),
   midi.NoteOnEvent(tick=448, channel=2, data=[64, 0]),
   midi.NoteOnEvent(tick=0, channel=2, data=[71, 0]),
   midi.NoteOnEvent(tick=0, channel=2, data=[76, 0]),
   midi.NoteOnEvent(tick=32, channel=2, data=[64, 110]),
   midi.NoteOnEvent(tick=0, channel=2, data=[71, 110]),
   midi.NoteOnEvent(tick=0, channel=2, data=[76, 110]),
   midi.NoteOnEvent(tick=1392, channel=2, data=[64, 0]),
   midi.NoteOnEvent(tick=0, channel=2, data=[71, 0]),
   midi.NoteOnEvent(tick=0, channel=2, data=[76, 0]),
   midi.NoteOnEvent(tick=6192, channel=2, data=[52, 110]),
   midi.NoteOnEvent(tick=94, channel=2, data=[52, 0]),
   midi.NoteOnEvent(tick=2, channel=2, data=[52, 110]),
   midi.NoteOnEvent(tick=46, channel=2, data=[52, 0]),
   midi.NoteOnEvent(tick=2, channel=2, data=[52, 110]),
   midi.NoteOnEvent(tick=46, channel=2, data=[52, 0]),
   midi.NoteOnEvent(tick=2, channel=2, data=[52, 110]),
   midi.NoteOnEvent(tick=94, channel=2, data=[52, 0]),
   midi.NoteOnEvent(tick=2, channel=2, data=[52, 110]),
   midi.NoteOnEvent(tick=94, channel=2, data=[52, 0]),
   midi.NoteOnEvent(tick=2, channel=2, data=[52, 110]),
   midi.NoteOnEvent(tick=94, channel=2, data=[52, 0]),
   midi.NoteOnEvent(tick=2, channel=2, data=[52, 110]),
   midi.NoteOnEvent(tick=94, channel=2, data=[52, 0]),
   midi.NoteOnEvent(tick=2, channel=2, data=[52, 110]),
   midi.NoteOnEvent(tick=46, channel=2, data=[52, 0]),
   midi.NoteOnEvent(tick=2, channel=2, data=[52, 110]),
   midi.NoteOnEvent(tick=46, channel=2, data=[52, 0]),
   midi.NoteOnEvent(tick=2, channel=2, data=[52, 110]),
   midi.NoteOnEvent(tick=46, channel=2, data=[52, 0]),
   midi.NoteOnEvent(tick=2, channel=2, data=[52, 110]),
   midi.NoteOnEvent(tick=46, channel=2, data=[52, 0]),
   midi.NoteOnEvent(tick=2, channel=2, data=[52, 110]),
   midi.NoteOnEvent(tick=94, channel=2, data=[52, 0]),
   midi.NoteOnEvent(tick=2, channel=2, data=[52, 110]),
   midi.NoteOnEvent(tick=46, channel=2, data=[52, 0]),
   midi.NoteOnEvent(tick=2, channel=2, data=[52, 110]),
   midi.NoteOnEvent(tick=46, channel=2, data=[52, 0]),
   midi.NoteOnEvent(tick=2, channel=2, data=[52, 110]),
   midi.NoteOnEvent(tick=94, channel=2, data=[52, 0]),
   midi.NoteOnEvent(tick=2, channel=2, data=[52, 110]),
   midi.NoteOnEvent(tick=94, channel=2, data=[52, 0]),
   midi.NoteOnEvent(tick=2, channel=2, data=[52, 110]),
   midi.NoteOnEvent(tick=94, channel=2, data=[52, 0]),
   midi.NoteOnEvent(tick=2, channel=2, data=[52, 110]),
   midi.NoteOnEvent(tick=94, channel=2, data=[52, 0]),
   midi.NoteOnEvent(tick=2, channel=2, data=[52, 110]),
   midi.NoteOnEvent(tick=46, channel=2, data=[52, 0]),
   midi.NoteOnEvent(tick=2, channel=2, data=[52, 110]),
   midi.NoteOnEvent(tick=46, channel=2, data=[52, 0]),
   midi.NoteOnEvent(tick=2, channel=2, data=[52, 110]),
   midi.NoteOnEvent(tick=46, channel=2, data=[52, 0]),
   midi.NoteOnEvent(tick=2, channel=2, data=[52, 110]),
   midi.NoteOnEvent(tick=46, channel=2, data=[52, 0]),
   midi.NoteOnEvent(tick=2, channel=2, data=[52, 110]),
   midi.NoteOnEvent(tick=94, channel=2, data=[52, 0]),
   midi.NoteOnEvent(tick=2, channel=2, data=[52, 110]),
   midi.NoteOnEvent(tick=46, channel=2, data=[52, 0]),
   midi.NoteOnEvent(tick=2, channel=2, data=[52, 110]),
   midi.NoteOnEvent(tick=46, channel=2, data=[52, 0]),
   midi.NoteOnEvent(tick=2, channel=2, data=[52, 110]),
   midi.NoteOnEvent(tick=94, channel=2, data=[52, 0]),
   midi.NoteOnEvent(tick=2, channel=2, data=[52, 110]),
   midi.NoteOnEvent(tick=94, channel=2, data=[52, 0]),
   midi.NoteOnEvent(tick=2, channel=2, data=[52, 110]),
   midi.NoteOnEvent(tick=94, channel=2, data=[52, 0]),
   midi.NoteOnEvent(tick=2, channel=2, data=[52, 110]),
   midi.NoteOnEvent(tick=94, channel=2, data=[52, 0]),
   midi.NoteOnEvent(tick=2, channel=2, data=[52, 110]),
   midi.NoteOnEvent(tick=46, channel=2, data=[52, 0]),
   midi.NoteOnEvent(tick=2, channel=2, data=[52, 110]),
   midi.NoteOnEvent(tick=46, channel=2, data=[52, 0]),
   midi.NoteOnEvent(tick=2, channel=2, data=[52, 110]),
   midi.NoteOnEvent(tick=46, channel=2, data=[52, 0]),
   midi.NoteOnEvent(tick=2, channel=2, data=[52, 110]),
   midi.NoteOnEvent(tick=46, channel=2, data=[52, 0]),
   midi.NoteOnEvent(tick=2, channel=2, data=[52, 110]),
   midi.NoteOnEvent(tick=94, channel=2, data=[52, 0]),
   midi.NoteOnEvent(tick=2, channel=2, data=[52, 110]),
   midi.NoteOnEvent(tick=46, channel=2, data=[52, 0]),
   midi.NoteOnEvent(tick=2, channel=2, data=[52, 110]),
   midi.NoteOnEvent(tick=46, channel=2, data=[52, 0]),
   midi.NoteOnEvent(tick=2, channel=2, data=[52, 110]),
   midi.NoteOnEvent(tick=94, channel=2, data=[52, 0]),
   midi.NoteOnEvent(tick=2, channel=2, data=[52, 110]),
   midi.NoteOnEvent(tick=94, channel=2, data=[52, 0]),
   midi.NoteOnEvent(tick=2, channel=2, data=[52, 110]),
   midi.NoteOnEvent(tick=94, channel=2, data=[52, 0]),
   midi.NoteOnEvent(tick=2, channel=2, data=[52, 110]),
   midi.NoteOnEvent(tick=94, channel=2, data=[52, 0]),
   midi.NoteOnEvent(tick=2, channel=2, data=[52, 110]),
   midi.NoteOnEvent(tick=46, channel=2, data=[52, 0]),
   midi.NoteOnEvent(tick=2, channel=2, data=[52, 110]),
   midi.NoteOnEvent(tick=46, channel=2, data=[52, 0]),
   midi.NoteOnEvent(tick=2, channel=2, data=[52, 110]),
   midi.NoteOnEvent(tick=46, channel=2, data=[52, 0]),
   midi.NoteOnEvent(tick=2, channel=2, data=[52, 110]),
   midi.NoteOnEvent(tick=46, channel=2, data=[52, 0]),
   midi.NoteOnEvent(tick=2, channel=2, data=[52, 110]),
   midi.NoteOnEvent(tick=94, channel=2, data=[52, 0]),
   midi.NoteOnEvent(tick=2, channel=2, data=[52, 110]),
   midi.NoteOnEvent(tick=46, channel=2, data=[52, 0]),
   midi.NoteOnEvent(tick=2, channel=2, data=[52, 110]),
   midi.NoteOnEvent(tick=46, channel=2, data=[52, 0]),
   midi.NoteOnEvent(tick=2, channel=2, data=[52, 110]),
   midi.NoteOnEvent(tick=94, channel=2, data=[52, 0]),
   midi.NoteOnEvent(tick=2, channel=2, data=[52, 110]),
   midi.NoteOnEvent(tick=94, channel=2, data=[52, 0]),
   midi.NoteOnEvent(tick=2, channel=2, data=[52, 110]),
   midi.NoteOnEvent(tick=94, channel=2, data=[52, 0]),
   midi.NoteOnEvent(tick=2, channel=2, data=[52, 110]),
   midi.NoteOnEvent(tick=94, channel=2, data=[52, 0]),
   midi.NoteOnEvent(tick=2, channel=2, data=[52, 110]),
   midi.NoteOnEvent(tick=46, channel=2, data=[52, 0]),
   midi.NoteOnEvent(tick=2, channel=2, data=[52, 110]),
   midi.NoteOnEvent(tick=46, channel=2, data=[52, 0]),
   midi.NoteOnEvent(tick=2, channel=2, data=[52, 110]),
   midi.NoteOnEvent(tick=46, channel=2, data=[52, 0]),
   midi.NoteOnEvent(tick=2, channel=2, data=[52, 110]),
   midi.NoteOnEvent(tick=46, channel=2, data=[52, 0]),
   midi.NoteOnEvent(tick=2, channel=2, data=[52, 110]),
   midi.NoteOnEvent(tick=94, channel=2, data=[52, 0]),
   midi.NoteOnEvent(tick=2, channel=2, data=[52, 110]),
   midi.NoteOnEvent(tick=46, channel=2, data=[52, 0]),
   midi.NoteOnEvent(tick=2, channel=2, data=[52, 110]),
   midi.NoteOnEvent(tick=46, channel=2, data=[52, 0]),
   midi.NoteOnEvent(tick=2, channel=2, data=[52, 110]),
   midi.NoteOnEvent(tick=94, channel=2, data=[52, 0]),
   midi.NoteOnEvent(tick=2, channel=2, data=[52, 110]),
   midi.NoteOnEvent(tick=94, channel=2, data=[52, 0]),
   midi.NoteOnEvent(tick=2, channel=2, data=[52, 110]),
   midi.NoteOnEvent(tick=94, channel=2, data=[52, 0]),
   midi.NoteOnEvent(tick=2, channel=2, data=[52, 110]),
   midi.NoteOnEvent(tick=94, channel=2, data=[52, 0]),
   midi.NoteOnEvent(tick=2, channel=2, data=[52, 110]),
   midi.NoteOnEvent(tick=46, channel=2, data=[52, 0]),
   midi.NoteOnEvent(tick=2, channel=2, data=[52, 110]),
   midi.NoteOnEvent(tick=46, channel=2, data=[52, 0]),
   midi.NoteOnEvent(tick=2, channel=2, data=[52, 110]),
   midi.NoteOnEvent(tick=46, channel=2, data=[52, 0]),
   midi.NoteOnEvent(tick=2, channel=2, data=[52, 110]),
   midi.NoteOnEvent(tick=46, channel=2, data=[52, 0]),
   midi.NoteOnEvent(tick=2, channel=2, data=[52, 110]),
   midi.NoteOnEvent(tick=94, channel=2, data=[52, 0]),
   midi.NoteOnEvent(tick=2, channel=2, data=[52, 110]),
   midi.NoteOnEvent(tick=46, channel=2, data=[52, 0]),
   midi.NoteOnEvent(tick=2, channel=2, data=[52, 110]),
   midi.NoteOnEvent(tick=46, channel=2, data=[52, 0]),
   midi.NoteOnEvent(tick=2, channel=2, data=[52, 110]),
   midi.NoteOnEvent(tick=94, channel=2, data=[52, 0]),
   midi.NoteOnEvent(tick=2, channel=2, data=[52, 110]),
   midi.NoteOnEvent(tick=94, channel=2, data=[52, 0]),
   midi.NoteOnEvent(tick=2, channel=2, data=[52, 110]),
   midi.NoteOnEvent(tick=94, channel=2, data=[52, 0]),
   midi.NoteOnEvent(tick=2, channel=2, data=[52, 110]),
   midi.NoteOnEvent(tick=94, channel=2, data=[52, 0]),
   midi.NoteOnEvent(tick=2, channel=2, data=[52, 110]),
   midi.NoteOnEvent(tick=46, channel=2, data=[52, 0]),
   midi.NoteOnEvent(tick=2, channel=2, data=[52, 110]),
   midi.NoteOnEvent(tick=46, channel=2, data=[52, 0]),
   midi.NoteOnEvent(tick=2, channel=2, data=[52, 110]),
   midi.NoteOnEvent(tick=46, channel=2, data=[52, 0]),
   midi.NoteOnEvent(tick=2, channel=2, data=[52, 110]),
   midi.NoteOnEvent(tick=46, channel=2, data=[52, 0]),
   midi.NoteOnEvent(tick=2, channel=2, data=[52, 110]),
   midi.NoteOnEvent(tick=94, channel=2, data=[52, 0]),
   midi.NoteOnEvent(tick=2, channel=2, data=[52, 110]),
   midi.NoteOnEvent(tick=46, channel=2, data=[52, 0]),
   midi.NoteOnEvent(tick=2, channel=2, data=[52, 110]),
   midi.NoteOnEvent(tick=46, channel=2, data=[52, 0]),
   midi.NoteOnEvent(tick=2, channel=2, data=[52, 110]),
   midi.NoteOnEvent(tick=94, channel=2, data=[52, 0]),
   midi.NoteOnEvent(tick=2, channel=2, data=[52, 110]),
   midi.NoteOnEvent(tick=94, channel=2, data=[52, 0]),
   midi.NoteOnEvent(tick=2, channel=2, data=[52, 110]),
   midi.NoteOnEvent(tick=94, channel=2, data=[52, 0]),
   midi.NoteOnEvent(tick=2, channel=2, data=[52, 110]),
   midi.NoteOnEvent(tick=94, channel=2, data=[52, 0]),
   midi.NoteOnEvent(tick=2, channel=2, data=[52, 110]),
   midi.NoteOnEvent(tick=46, channel=2, data=[52, 0]),
   midi.NoteOnEvent(tick=2, channel=2, data=[52, 110]),
   midi.NoteOnEvent(tick=46, channel=2, data=[52, 0]),
   midi.NoteOnEvent(tick=2, channel=2, data=[52, 110]),
   midi.NoteOnEvent(tick=46, channel=2, data=[52, 0]),
   midi.NoteOnEvent(tick=2, channel=2, data=[52, 110]),
   midi.NoteOnEvent(tick=46, channel=2, data=[52, 0]),
   midi.NoteOnEvent(tick=2, channel=2, data=[67, 110]),
   midi.NoteOnEvent(tick=0, channel=2, data=[74, 110]),
   midi.NoteOnEvent(tick=0, channel=2, data=[79, 110]),
   midi.NoteOnEvent(tick=1296, channel=2, data=[67, 0]),
   midi.NoteOnEvent(tick=0, channel=2, data=[74, 0]),
   midi.NoteOnEvent(tick=0, channel=2, data=[79, 0]),
   midi.NoteOnEvent(tick=48, channel=2, data=[69, 110]),
   midi.NoteOnEvent(tick=0, channel=2, data=[76, 110]),
   midi.NoteOnEvent(tick=0, channel=2, data=[81, 110]),
   midi.NoteOnEvent(tick=160, channel=2, data=[69, 0]),
   midi.NoteOnEvent(tick=0, channel=2, data=[76, 0]),
   midi.NoteOnEvent(tick=0, channel=2, data=[81, 0]),
   midi.NoteOnEvent(tick=32, channel=2, data=[66, 110]),
   midi.NoteOnEvent(tick=0, channel=2, data=[73, 110]),
   midi.NoteOnEvent(tick=0, channel=2, data=[78, 110]),
   midi.NoteOnEvent(tick=1296, channel=2, data=[66, 0]),
   midi.NoteOnEvent(tick=0, channel=2, data=[73, 0]),
   midi.NoteOnEvent(tick=0, channel=2, data=[78, 0]),
   midi.NoteOnEvent(tick=48, channel=2, data=[69, 110]),
   midi.NoteOnEvent(tick=0, channel=2, data=[76, 110]),
   midi.NoteOnEvent(tick=0, channel=2, data=[81, 110]),
   midi.NoteOnEvent(tick=160, channel=2, data=[69, 0]),
   midi.NoteOnEvent(tick=0, channel=2, data=[76, 0]),
   midi.NoteOnEvent(tick=0, channel=2, data=[81, 0]),
   midi.NoteOnEvent(tick=32, channel=2, data=[65, 110]),
   midi.NoteOnEvent(tick=0, channel=2, data=[72, 110]),
   midi.NoteOnEvent(tick=0, channel=2, data=[77, 110]),
   midi.NoteOnEvent(tick=1296, channel=2, data=[65, 0]),
   midi.NoteOnEvent(tick=0, channel=2, data=[72, 0]),
   midi.NoteOnEvent(tick=0, channel=2, data=[77, 0]),
   midi.NoteOnEvent(tick=48, channel=2, data=[67, 110]),
   midi.NoteOnEvent(tick=0, channel=2, data=[74, 110]),
   midi.NoteOnEvent(tick=0, channel=2, data=[79, 110]),
   midi.NoteOnEvent(tick=160, channel=2, data=[67, 0]),
   midi.NoteOnEvent(tick=0, channel=2, data=[74, 0]),
   midi.NoteOnEvent(tick=0, channel=2, data=[79, 0]),
   midi.NoteOnEvent(tick=32, channel=2, data=[64, 110]),
   midi.NoteOnEvent(tick=0, channel=2, data=[71, 110]),
   midi.NoteOnEvent(tick=0, channel=2, data=[76, 110]),
   midi.NoteOnEvent(tick=1488, channel=2, data=[64, 0]),
   midi.NoteOnEvent(tick=0, channel=2, data=[71, 0]),
   midi.NoteOnEvent(tick=0, channel=2, data=[76, 0]),
   midi.NoteOnEvent(tick=48, channel=2, data=[67, 110]),
   midi.NoteOnEvent(tick=0, channel=2, data=[74, 110]),
   midi.NoteOnEvent(tick=0, channel=2, data=[79, 110]),
   midi.NoteOnEvent(tick=1296, channel=2, data=[67, 0]),
   midi.NoteOnEvent(tick=0, channel=2, data=[74, 0]),
   midi.NoteOnEvent(tick=0, channel=2, data=[79, 0]),
   midi.NoteOnEvent(tick=48, channel=2, data=[69, 110]),
   midi.NoteOnEvent(tick=0, channel=2, data=[76, 110]),
   midi.NoteOnEvent(tick=0, channel=2, data=[81, 110]),
   midi.NoteOnEvent(tick=160, channel=2, data=[69, 0]),
   midi.NoteOnEvent(tick=0, channel=2, data=[76, 0]),
   midi.NoteOnEvent(tick=0, channel=2, data=[81, 0]),
   midi.NoteOnEvent(tick=32, channel=2, data=[66, 110]),
   midi.NoteOnEvent(tick=0, channel=2, data=[73, 110]),
   midi.NoteOnEvent(tick=0, channel=2, data=[78, 110]),
   midi.NoteOnEvent(tick=1296, channel=2, data=[66, 0]),
   midi.NoteOnEvent(tick=0, channel=2, data=[73, 0]),
   midi.NoteOnEvent(tick=0, channel=2, data=[78, 0]),
   midi.NoteOnEvent(tick=48, channel=2, data=[69, 110]),
   midi.NoteOnEvent(tick=0, channel=2, data=[76, 110]),
   midi.NoteOnEvent(tick=0, channel=2, data=[81, 110]),
   midi.NoteOnEvent(tick=160, channel=2, data=[69, 0]),
   midi.NoteOnEvent(tick=0, channel=2, data=[76, 0]),
   midi.NoteOnEvent(tick=0, channel=2, data=[81, 0]),
   midi.NoteOnEvent(tick=32, channel=2, data=[65, 110]),
   midi.NoteOnEvent(tick=0, channel=2, data=[72, 110]),
   midi.NoteOnEvent(tick=0, channel=2, data=[77, 110]),
   midi.NoteOnEvent(tick=1296, channel=2, data=[65, 0]),
   midi.NoteOnEvent(tick=0, channel=2, data=[72, 0]),
   midi.NoteOnEvent(tick=0, channel=2, data=[77, 0]),
   midi.NoteOnEvent(tick=48, channel=2, data=[67, 110]),
   midi.NoteOnEvent(tick=0, channel=2, data=[74, 110]),
   midi.NoteOnEvent(tick=0, channel=2, data=[79, 110]),
   midi.NoteOnEvent(tick=160, channel=2, data=[67, 0]),
   midi.NoteOnEvent(tick=0, channel=2, data=[74, 0]),
   midi.NoteOnEvent(tick=0, channel=2, data=[79, 0]),
   midi.NoteOnEvent(tick=32, channel=2, data=[64, 110]),
   midi.NoteOnEvent(tick=0, channel=2, data=[71, 110]),
   midi.NoteOnEvent(tick=0, channel=2, data=[76, 110]),
   midi.NoteOnEvent(tick=1488, channel=2, data=[64, 0]),
   midi.NoteOnEvent(tick=0, channel=2, data=[71, 0]),
   midi.NoteOnEvent(tick=0, channel=2, data=[76, 0]),
   midi.NoteOnEvent(tick=48, channel=2, data=[61, 110]),
   midi.NoteOnEvent(tick=0, channel=2, data=[68, 110]),
   midi.NoteOnEvent(tick=94, channel=2, data=[61, 0]),
   midi.NoteOnEvent(tick=0, channel=2, data=[68, 0]),
   midi.NoteOnEvent(tick=2, channel=2, data=[61, 110]),
   midi.NoteOnEvent(tick=46, channel=2, data=[61, 0]),
   midi.NoteOnEvent(tick=2, channel=2, data=[61, 110]),
   midi.NoteOnEvent(tick=46, channel=2, data=[61, 0]),
   midi.NoteOnEvent(tick=2, channel=2, data=[61, 110]),
   midi.NoteOnEvent(tick=46, channel=2, data=[61, 0]),
   midi.NoteOnEvent(tick=2, channel=2, data=[61, 110]),
   midi.NoteOnEvent(tick=46, channel=2, data=[61, 0]),
   midi.NoteOnEvent(tick=2, channel=2, data=[61, 110]),
   midi.NoteOnEvent(tick=46, channel=2, data=[61, 0]),
   midi.NoteOnEvent(tick=2, channel=2, data=[61, 110]),
   midi.NoteOnEvent(tick=46, channel=2, data=[61, 0]),
   midi.NoteOnEvent(tick=2, channel=2, data=[61, 110]),
   midi.NoteOnEvent(tick=94, channel=2, data=[61, 0]),
   midi.NoteOnEvent(tick=2, channel=2, data=[61, 110]),
   midi.NoteOnEvent(tick=46, channel=2, data=[61, 0]),
   midi.NoteOnEvent(tick=2, channel=2, data=[61, 110]),
   midi.NoteOnEvent(tick=46, channel=2, data=[61, 0]),
   midi.NoteOnEvent(tick=2, channel=2, data=[61, 110]),
   midi.NoteOnEvent(tick=46, channel=2, data=[61, 0]),
   midi.NoteOnEvent(tick=2, channel=2, data=[61, 110]),
   midi.NoteOnEvent(tick=46, channel=2, data=[61, 0]),
   midi.NoteOnEvent(tick=2, channel=2, data=[61, 110]),
   midi.NoteOnEvent(tick=46, channel=2, data=[61, 0]),
   midi.NoteOnEvent(tick=2, channel=2, data=[61, 110]),
   midi.NoteOnEvent(tick=46, channel=2, data=[61, 0]),
   midi.NoteOnEvent(tick=2, channel=2, data=[61, 110]),
   midi.NoteOnEvent(tick=0, channel=2, data=[68, 110]),
   midi.NoteOnEvent(tick=94, channel=2, data=[61, 0]),
   midi.NoteOnEvent(tick=0, channel=2, data=[68, 0]),
   midi.NoteOnEvent(tick=2, channel=2, data=[61, 110]),
   midi.NoteOnEvent(tick=46, channel=2, data=[61, 0]),
   midi.NoteOnEvent(tick=2, channel=2, data=[61, 110]),
   midi.NoteOnEvent(tick=46, channel=2, data=[61, 0]),
   midi.NoteOnEvent(tick=2, channel=2, data=[61, 110]),
   midi.NoteOnEvent(tick=46, channel=2, data=[61, 0]),
   midi.NoteOnEvent(tick=2, channel=2, data=[61, 110]),
   midi.NoteOnEvent(tick=46, channel=2, data=[61, 0]),
   midi.NoteOnEvent(tick=2, channel=2, data=[61, 110]),
   midi.NoteOnEvent(tick=46, channel=2, data=[61, 0]),
   midi.NoteOnEvent(tick=2, channel=2, data=[61, 110]),
   midi.NoteOnEvent(tick=46, channel=2, data=[61, 0]),
   midi.NoteOnEvent(tick=2, channel=2, data=[61, 110]),
   midi.NoteOnEvent(tick=94, channel=2, data=[61, 0]),
   midi.NoteOnEvent(tick=2, channel=2, data=[61, 110]),
   midi.NoteOnEvent(tick=46, channel=2, data=[61, 0]),
   midi.NoteOnEvent(tick=2, channel=2, data=[61, 110]),
   midi.NoteOnEvent(tick=46, channel=2, data=[61, 0]),
   midi.NoteOnEvent(tick=2, channel=2, data=[61, 110]),
   midi.NoteOnEvent(tick=46, channel=2, data=[61, 0]),
   midi.NoteOnEvent(tick=2, channel=2, data=[61, 110]),
   midi.NoteOnEvent(tick=46, channel=2, data=[61, 0]),
   midi.NoteOnEvent(tick=2, channel=2, data=[61, 110]),
   midi.NoteOnEvent(tick=46, channel=2, data=[61, 0]),
   midi.NoteOnEvent(tick=2, channel=2, data=[61, 110]),
   midi.NoteOnEvent(tick=46, channel=2, data=[61, 0]),
   midi.NoteOnEvent(tick=2, channel=2, data=[61, 110]),
   midi.NoteOnEvent(tick=0, channel=2, data=[68, 110]),
   midi.NoteOnEvent(tick=94, channel=2, data=[61, 0]),
   midi.NoteOnEvent(tick=0, channel=2, data=[68, 0]),
   midi.NoteOnEvent(tick=2, channel=2, data=[61, 110]),
   midi.NoteOnEvent(tick=46, channel=2, data=[61, 0]),
   midi.NoteOnEvent(tick=2, channel=2, data=[61, 110]),
   midi.NoteOnEvent(tick=46, channel=2, data=[61, 0]),
   midi.NoteOnEvent(tick=2, channel=2, data=[61, 110]),
   midi.NoteOnEvent(tick=46, channel=2, data=[61, 0]),
   midi.NoteOnEvent(tick=2, channel=2, data=[61, 110]),
   midi.NoteOnEvent(tick=46, channel=2, data=[61, 0]),
   midi.NoteOnEvent(tick=2, channel=2, data=[61, 110]),
   midi.NoteOnEvent(tick=46, channel=2, data=[61, 0]),
   midi.NoteOnEvent(tick=2, channel=2, data=[61, 110]),
   midi.NoteOnEvent(tick=46, channel=2, data=[61, 0]),
   midi.NoteOnEvent(tick=2, channel=2, data=[61, 110]),
   midi.NoteOnEvent(tick=94, channel=2, data=[61, 0]),
   midi.NoteOnEvent(tick=2, channel=2, data=[61, 110]),
   midi.NoteOnEvent(tick=46, channel=2, data=[61, 0]),
   midi.NoteOnEvent(tick=2, channel=2, data=[61, 110]),
   midi.NoteOnEvent(tick=46, channel=2, data=[61, 0]),
   midi.NoteOnEvent(tick=2, channel=2, data=[61, 110]),
   midi.NoteOnEvent(tick=46, channel=2, data=[61, 0]),
   midi.NoteOnEvent(tick=2, channel=2, data=[61, 110]),
   midi.NoteOnEvent(tick=46, channel=2, data=[61, 0]),
   midi.NoteOnEvent(tick=2, channel=2, data=[61, 110]),
   midi.NoteOnEvent(tick=46, channel=2, data=[61, 0]),
   midi.NoteOnEvent(tick=2, channel=2, data=[61, 110]),
   midi.NoteOnEvent(tick=46, channel=2, data=[61, 0]),
   midi.NoteOnEvent(tick=2, channel=2, data=[61, 110]),
   midi.NoteOnEvent(tick=0, channel=2, data=[68, 110]),
   midi.NoteOnEvent(tick=94, channel=2, data=[61, 0]),
   midi.NoteOnEvent(tick=0, channel=2, data=[68, 0]),
   midi.NoteOnEvent(tick=2, channel=2, data=[61, 110]),
   midi.NoteOnEvent(tick=46, channel=2, data=[61, 0]),
   midi.NoteOnEvent(tick=2, channel=2, data=[61, 110]),
   midi.NoteOnEvent(tick=46, channel=2, data=[61, 0]),
   midi.NoteOnEvent(tick=2, channel=2, data=[61, 110]),
   midi.NoteOnEvent(tick=46, channel=2, data=[61, 0]),
   midi.NoteOnEvent(tick=2, channel=2, data=[61, 110]),
   midi.NoteOnEvent(tick=46, channel=2, data=[61, 0]),
   midi.NoteOnEvent(tick=2, channel=2, data=[61, 110]),
   midi.NoteOnEvent(tick=46, channel=2, data=[61, 0]),
   midi.NoteOnEvent(tick=2, channel=2, data=[61, 110]),
   midi.NoteOnEvent(tick=46, channel=2, data=[61, 0]),
   midi.NoteOnEvent(tick=2, channel=2, data=[61, 110]),
   midi.NoteOnEvent(tick=94, channel=2, data=[61, 0]),
   midi.NoteOnEvent(tick=2, channel=2, data=[61, 110]),
   midi.NoteOnEvent(tick=46, channel=2, data=[61, 0]),
   midi.NoteOnEvent(tick=2, channel=2, data=[61, 110]),
   midi.NoteOnEvent(tick=46, channel=2, data=[61, 0]),
   midi.NoteOnEvent(tick=2, channel=2, data=[61, 110]),
   midi.NoteOnEvent(tick=46, channel=2, data=[61, 0]),
   midi.NoteOnEvent(tick=2, channel=2, data=[61, 110]),
   midi.NoteOnEvent(tick=46, channel=2, data=[61, 0]),
   midi.NoteOnEvent(tick=2, channel=2, data=[61, 110]),
   midi.NoteOnEvent(tick=46, channel=2, data=[61, 0]),
   midi.NoteOnEvent(tick=2, channel=2, data=[61, 110]),
   midi.NoteOnEvent(tick=46, channel=2, data=[61, 0]),
   midi.NoteOnEvent(tick=2, channel=2, data=[61, 110]),
   midi.NoteOnEvent(tick=0, channel=2, data=[68, 110]),
   midi.NoteOnEvent(tick=94, channel=2, data=[61, 0]),
   midi.NoteOnEvent(tick=0, channel=2, data=[68, 0]),
   midi.NoteOnEvent(tick=2, channel=2, data=[61, 110]),
   midi.NoteOnEvent(tick=46, channel=2, data=[61, 0]),
   midi.NoteOnEvent(tick=2, channel=2, data=[61, 110]),
   midi.NoteOnEvent(tick=46, channel=2, data=[61, 0]),
   midi.NoteOnEvent(tick=2, channel=2, data=[61, 110]),
   midi.NoteOnEvent(tick=46, channel=2, data=[61, 0]),
   midi.NoteOnEvent(tick=2, channel=2, data=[61, 110]),
   midi.NoteOnEvent(tick=46, channel=2, data=[61, 0]),
   midi.NoteOnEvent(tick=2, channel=2, data=[61, 110]),
   midi.NoteOnEvent(tick=46, channel=2, data=[61, 0]),
   midi.NoteOnEvent(tick=2, channel=2, data=[61, 110]),
   midi.NoteOnEvent(tick=46, channel=2, data=[61, 0]),
   midi.NoteOnEvent(tick=2, channel=2, data=[61, 110]),
   midi.NoteOnEvent(tick=94, channel=2, data=[61, 0]),
   midi.NoteOnEvent(tick=2, channel=2, data=[61, 110]),
   midi.NoteOnEvent(tick=46, channel=2, data=[61, 0]),
   midi.NoteOnEvent(tick=2, channel=2, data=[61, 110]),
   midi.NoteOnEvent(tick=46, channel=2, data=[61, 0]),
   midi.NoteOnEvent(tick=2, channel=2, data=[61, 110]),
   midi.NoteOnEvent(tick=46, channel=2, data=[61, 0]),
   midi.NoteOnEvent(tick=2, channel=2, data=[61, 110]),
   midi.NoteOnEvent(tick=46, channel=2, data=[61, 0]),
   midi.NoteOnEvent(tick=2, channel=2, data=[61, 110]),
   midi.NoteOnEvent(tick=46, channel=2, data=[61, 0]),
   midi.NoteOnEvent(tick=2, channel=2, data=[61, 110]),
   midi.NoteOnEvent(tick=46, channel=2, data=[61, 0]),
   midi.NoteOnEvent(tick=2, channel=2, data=[61, 110]),
   midi.NoteOnEvent(tick=0, channel=2, data=[68, 110]),
   midi.NoteOnEvent(tick=94, channel=2, data=[61, 0]),
   midi.NoteOnEvent(tick=0, channel=2, data=[68, 0]),
   midi.NoteOnEvent(tick=2, channel=2, data=[61, 110]),
   midi.NoteOnEvent(tick=46, channel=2, data=[61, 0]),
   midi.NoteOnEvent(tick=2, channel=2, data=[61, 110]),
   midi.NoteOnEvent(tick=46, channel=2, data=[61, 0]),
   midi.NoteOnEvent(tick=2, channel=2, data=[61, 110]),
   midi.NoteOnEvent(tick=46, channel=2, data=[61, 0]),
   midi.NoteOnEvent(tick=2, channel=2, data=[61, 110]),
   midi.NoteOnEvent(tick=46, channel=2, data=[61, 0]),
   midi.NoteOnEvent(tick=2, channel=2, data=[61, 110]),
   midi.NoteOnEvent(tick=46, channel=2, data=[61, 0]),
   midi.NoteOnEvent(tick=2, channel=2, data=[61, 110]),
   midi.NoteOnEvent(tick=46, channel=2, data=[61, 0]),
   midi.NoteOnEvent(tick=2, channel=2, data=[61, 110]),
   midi.NoteOnEvent(tick=94, channel=2, data=[61, 0]),
   midi.NoteOnEvent(tick=2, channel=2, data=[61, 110]),
   midi.NoteOnEvent(tick=46, channel=2, data=[61, 0]),
   midi.NoteOnEvent(tick=2, channel=2, data=[61, 110]),
   midi.NoteOnEvent(tick=46, channel=2, data=[61, 0]),
   midi.NoteOnEvent(tick=2, channel=2, data=[61, 110]),
   midi.NoteOnEvent(tick=46, channel=2, data=[61, 0]),
   midi.NoteOnEvent(tick=2, channel=2, data=[61, 110]),
   midi.NoteOnEvent(tick=46, channel=2, data=[61, 0]),
   midi.NoteOnEvent(tick=2, channel=2, data=[61, 110]),
   midi.NoteOnEvent(tick=46, channel=2, data=[61, 0]),
   midi.NoteOnEvent(tick=2, channel=2, data=[61, 110]),
   midi.NoteOnEvent(tick=46, channel=2, data=[61, 0]),
   midi.SetTempoEvent(tick=2, data=[4, 147, 224]),
   midi.NoteOnEvent(tick=0, channel=2, data=[57, 110]),
   midi.SetTempoEvent(tick=51, data=[4, 159, 182]),
   midi.NoteOnEvent(tick=43, channel=2, data=[57, 0]),
   midi.NoteOnEvent(tick=2, channel=2, data=[67, 110]),
   midi.SetTempoEvent(tick=6, data=[4, 171, 202]),
   midi.SetTempoEvent(tick=51, data=[4, 184, 30]),
   midi.NoteOnEvent(tick=37, channel=2, data=[67, 0]),
   midi.NoteOnEvent(tick=2, channel=2, data=[66, 110]),
   midi.SetTempoEvent(tick=12, data=[4, 196, 180]),
   midi.SetTempoEvent(tick=52, data=[4, 209, 141]),
   midi.NoteOnEvent(tick=30, channel=2, data=[66, 0]),
   midi.NoteOnEvent(tick=2, channel=2, data=[57, 110]),
   midi.SetTempoEvent(tick=19, data=[4, 222, 172]),
   midi.SetTempoEvent(tick=51, data=[4, 236, 20]),
   midi.NoteOnEvent(tick=24, channel=2, data=[57, 0]),
   midi.NoteOnEvent(tick=2, channel=2, data=[66, 110]),
   midi.SetTempoEvent(tick=25, data=[4, 249, 198]),
   midi.SetTempoEvent(tick=51, data=[5, 7, 198]),
   midi.NoteOnEvent(tick=18, channel=2, data=[66, 0]),
   midi.NoteOnEvent(tick=2, channel=2, data=[64, 110]),
   midi.SetTempoEvent(tick=32, data=[5, 22, 21]),
   midi.SetTempoEvent(tick=51, data=[5, 36, 182]),
   midi.NoteOnEvent(tick=11, channel=2, data=[64, 0]),
   midi.NoteOnEvent(tick=2, channel=2, data=[62, 110]),
   midi.SetTempoEvent(tick=38, data=[5, 51, 173]),
   midi.SetTempoEvent(tick=51, data=[5, 66, 251]),
   midi.NoteOnEvent(tick=5, channel=2, data=[62, 0]),
   midi.NoteOnEvent(tick=2, channel=2, data=[61, 110]),
   midi.SetTempoEvent(tick=44, data=[5, 82, 165]),
   midi.NoteOnEvent(tick=50, channel=2, data=[61, 0]),
   midi.SetTempoEvent(tick=2, data=[5, 98, 173]),
   midi.NoteOnEvent(tick=0, channel=2, data=[55, 110]),
   midi.NoteOnEvent(tick=0, channel=2, data=[62, 110]),
   midi.NoteOnEvent(tick=0, channel=2, data=[67, 110]),
   midi.NoteOnEvent(tick=126, channel=2, data=[55, 0]),
   midi.NoteOnEvent(tick=0, channel=2, data=[62, 0]),
   midi.NoteOnEvent(tick=0, channel=2, data=[67, 0]),
   midi.NoteOnEvent(tick=2, channel=2, data=[54, 110]),
   midi.NoteOnEvent(tick=0, channel=2, data=[61, 110]),
   midi.NoteOnEvent(tick=0, channel=2, data=[66, 110]),
   midi.NoteOnEvent(tick=126, channel=2, data=[54, 0]),
   midi.NoteOnEvent(tick=0, channel=2, data=[61, 0]),
   midi.NoteOnEvent(tick=0, channel=2, data=[66, 0]),
   midi.NoteOnEvent(tick=2, channel=2, data=[52, 110]),
   midi.NoteOnEvent(tick=0, channel=2, data=[59, 110]),
   midi.NoteOnEvent(tick=0, channel=2, data=[64, 110]),
   midi.NoteOnEvent(tick=126, channel=2, data=[52, 0]),
   midi.NoteOnEvent(tick=0, channel=2, data=[59, 0]),
   midi.NoteOnEvent(tick=0, channel=2, data=[64, 0]),
   midi.NoteOnEvent(tick=2, channel=2, data=[62, 110]),
   midi.NoteOnEvent(tick=0, channel=2, data=[69, 110]),
   midi.NoteOnEvent(tick=0, channel=2, data=[74, 110]),
   midi.NoteOnEvent(tick=126, channel=2, data=[62, 0]),
   midi.NoteOnEvent(tick=0, channel=2, data=[69, 0]),
   midi.NoteOnEvent(tick=0, channel=2, data=[74, 0]),
   midi.NoteOnEvent(tick=2, channel=2, data=[61, 110]),
   midi.NoteOnEvent(tick=0, channel=2, data=[68, 110]),
   midi.NoteOnEvent(tick=0, channel=2, data=[73, 110]),
   midi.NoteOnEvent(tick=126, channel=2, data=[61, 0]),
   midi.NoteOnEvent(tick=0, channel=2, data=[68, 0]),
   midi.NoteOnEvent(tick=0, channel=2, data=[73, 0]),
   midi.NoteOnEvent(tick=2, channel=2, data=[59, 110]),
   midi.NoteOnEvent(tick=0, channel=2, data=[66, 110]),
   midi.NoteOnEvent(tick=0, channel=2, data=[71, 110]),
   midi.NoteOnEvent(tick=126, channel=2, data=[59, 0]),
   midi.NoteOnEvent(tick=0, channel=2, data=[66, 0]),
   midi.NoteOnEvent(tick=0, channel=2, data=[71, 0]),
   midi.NoteOnEvent(tick=2, channel=2, data=[52, 110]),
   midi.NoteOnEvent(tick=94, channel=2, data=[52, 0]),
   midi.NoteOnEvent(tick=2, channel=2, data=[52, 110]),
   midi.NoteOnEvent(tick=46, channel=2, data=[52, 0]),
   midi.NoteOnEvent(tick=2, channel=2, data=[52, 110]),
   midi.NoteOnEvent(tick=46, channel=2, data=[52, 0]),
   midi.NoteOnEvent(tick=2, channel=2, data=[52, 110]),
   midi.NoteOnEvent(tick=94, channel=2, data=[52, 0]),
   midi.NoteOnEvent(tick=2, channel=2, data=[52, 110]),
   midi.NoteOnEvent(tick=94, channel=2, data=[52, 0]),
   midi.NoteOnEvent(tick=2, channel=2, data=[52, 110]),
   midi.NoteOnEvent(tick=94, channel=2, data=[52, 0]),
   midi.NoteOnEvent(tick=2, channel=2, data=[52, 110]),
   midi.NoteOnEvent(tick=94, channel=2, data=[52, 0]),
   midi.NoteOnEvent(tick=2, channel=2, data=[52, 110]),
   midi.NoteOnEvent(tick=46, channel=2, data=[52, 0]),
   midi.NoteOnEvent(tick=2, channel=2, data=[52, 110]),
   midi.NoteOnEvent(tick=46, channel=2, data=[52, 0]),
   midi.NoteOnEvent(tick=2, channel=2, data=[52, 110]),
   midi.NoteOnEvent(tick=46, channel=2, data=[52, 0]),
   midi.NoteOnEvent(tick=2, channel=2, data=[52, 110]),
   midi.NoteOnEvent(tick=46, channel=2, data=[52, 0]),
   midi.NoteOnEvent(tick=2, channel=2, data=[52, 110]),
   midi.NoteOnEvent(tick=94, channel=2, data=[52, 0]),
   midi.NoteOnEvent(tick=2, channel=2, data=[52, 110]),
   midi.NoteOnEvent(tick=46, channel=2, data=[52, 0]),
   midi.NoteOnEvent(tick=2, channel=2, data=[52, 110]),
   midi.NoteOnEvent(tick=46, channel=2, data=[52, 0]),
   midi.NoteOnEvent(tick=2, channel=2, data=[52, 110]),
   midi.NoteOnEvent(tick=94, channel=2, data=[52, 0]),
   midi.NoteOnEvent(tick=2, channel=2, data=[52, 110]),
   midi.NoteOnEvent(tick=94, channel=2, data=[52, 0]),
   midi.NoteOnEvent(tick=2, channel=2, data=[52, 110]),
   midi.NoteOnEvent(tick=94, channel=2, data=[52, 0]),
   midi.NoteOnEvent(tick=2, channel=2, data=[52, 110]),
   midi.NoteOnEvent(tick=94, channel=2, data=[52, 0]),
   midi.NoteOnEvent(tick=2, channel=2, data=[52, 110]),
   midi.NoteOnEvent(tick=46, channel=2, data=[52, 0]),
   midi.NoteOnEvent(tick=2, channel=2, data=[52, 110]),
   midi.NoteOnEvent(tick=46, channel=2, data=[52, 0]),
   midi.NoteOnEvent(tick=2, channel=2, data=[52, 110]),
   midi.NoteOnEvent(tick=46, channel=2, data=[52, 0]),
   midi.NoteOnEvent(tick=2, channel=2, data=[52, 110]),
   midi.NoteOnEvent(tick=46, channel=2, data=[52, 0]),
   midi.NoteOnEvent(tick=2, channel=2, data=[52, 110]),
   midi.NoteOnEvent(tick=94, channel=2, data=[52, 0]),
   midi.NoteOnEvent(tick=2, channel=2, data=[52, 110]),
   midi.NoteOnEvent(tick=46, channel=2, data=[52, 0]),
   midi.NoteOnEvent(tick=2, channel=2, data=[52, 110]),
   midi.NoteOnEvent(tick=46, channel=2, data=[52, 0]),
   midi.NoteOnEvent(tick=2, channel=2, data=[52, 110]),
   midi.NoteOnEvent(tick=94, channel=2, data=[52, 0]),
   midi.NoteOnEvent(tick=2, channel=2, data=[52, 110]),
   midi.NoteOnEvent(tick=94, channel=2, data=[52, 0]),
   midi.NoteOnEvent(tick=2, channel=2, data=[52, 110]),
   midi.NoteOnEvent(tick=94, channel=2, data=[52, 0]),
   midi.NoteOnEvent(tick=2, channel=2, data=[52, 110]),
   midi.NoteOnEvent(tick=94, channel=2, data=[52, 0]),
   midi.NoteOnEvent(tick=2, channel=2, data=[52, 110]),
   midi.NoteOnEvent(tick=46, channel=2, data=[52, 0]),
   midi.NoteOnEvent(tick=2, channel=2, data=[52, 110]),
   midi.NoteOnEvent(tick=46, channel=2, data=[52, 0]),
   midi.NoteOnEvent(tick=2, channel=2, data=[52, 110]),
   midi.NoteOnEvent(tick=46, channel=2, data=[52, 0]),
   midi.NoteOnEvent(tick=2, channel=2, data=[52, 110]),
   midi.NoteOnEvent(tick=46, channel=2, data=[52, 0]),
   midi.NoteOnEvent(tick=2, channel=2, data=[52, 110]),
   midi.NoteOnEvent(tick=94, channel=2, data=[52, 0]),
   midi.NoteOnEvent(tick=2, channel=2, data=[52, 110]),
   midi.NoteOnEvent(tick=46, channel=2, data=[52, 0]),
   midi.NoteOnEvent(tick=2, channel=2, data=[52, 110]),
   midi.NoteOnEvent(tick=46, channel=2, data=[52, 0]),
   midi.NoteOnEvent(tick=2, channel=2, data=[52, 110]),
   midi.NoteOnEvent(tick=94, channel=2, data=[52, 0]),
   midi.NoteOnEvent(tick=2, channel=2, data=[52, 110]),
   midi.NoteOnEvent(tick=94, channel=2, data=[52, 0]),
   midi.NoteOnEvent(tick=2, channel=2, data=[52, 110]),
   midi.NoteOnEvent(tick=94, channel=2, data=[52, 0]),
   midi.NoteOnEvent(tick=2, channel=2, data=[52, 110]),
   midi.NoteOnEvent(tick=94, channel=2, data=[52, 0]),
   midi.NoteOnEvent(tick=2, channel=2, data=[52, 110]),
   midi.NoteOnEvent(tick=46, channel=2, data=[52, 0]),
   midi.NoteOnEvent(tick=2, channel=2, data=[52, 110]),
   midi.NoteOnEvent(tick=46, channel=2, data=[52, 0]),
   midi.NoteOnEvent(tick=2, channel=2, data=[52, 110]),
   midi.NoteOnEvent(tick=46, channel=2, data=[52, 0]),
   midi.NoteOnEvent(tick=2, channel=2, data=[52, 110]),
   midi.NoteOnEvent(tick=46, channel=2, data=[52, 0]),
   midi.NoteOnEvent(tick=2, channel=2, data=[52, 110]),
   midi.NoteOnEvent(tick=94, channel=2, data=[52, 0]),
   midi.NoteOnEvent(tick=2, channel=2, data=[52, 110]),
   midi.NoteOnEvent(tick=46, channel=2, data=[52, 0]),
   midi.NoteOnEvent(tick=2, channel=2, data=[52, 110]),
   midi.NoteOnEvent(tick=46, channel=2, data=[52, 0]),
   midi.NoteOnEvent(tick=2, channel=2, data=[52, 110]),
   midi.NoteOnEvent(tick=94, channel=2, data=[52, 0]),
   midi.NoteOnEvent(tick=2, channel=2, data=[52, 110]),
   midi.NoteOnEvent(tick=94, channel=2, data=[52, 0]),
   midi.NoteOnEvent(tick=2, channel=2, data=[52, 110]),
   midi.NoteOnEvent(tick=94, channel=2, data=[52, 0]),
   midi.NoteOnEvent(tick=2, channel=2, data=[52, 110]),
   midi.NoteOnEvent(tick=94, channel=2, data=[52, 0]),
   midi.NoteOnEvent(tick=2, channel=2, data=[52, 110]),
   midi.NoteOnEvent(tick=46, channel=2, data=[52, 0]),
   midi.NoteOnEvent(tick=2, channel=2, data=[52, 110]),
   midi.NoteOnEvent(tick=46, channel=2, data=[52, 0]),
   midi.NoteOnEvent(tick=2, channel=2, data=[52, 110]),
   midi.NoteOnEvent(tick=46, channel=2, data=[52, 0]),
   midi.NoteOnEvent(tick=2, channel=2, data=[52, 110]),
   midi.NoteOnEvent(tick=46, channel=2, data=[52, 0]),
   midi.NoteOnEvent(tick=2, channel=2, data=[52, 110]),
   midi.NoteOnEvent(tick=94, channel=2, data=[52, 0]),
   midi.NoteOnEvent(tick=2, channel=2, data=[52, 110]),
   midi.NoteOnEvent(tick=46, channel=2, data=[52, 0]),
   midi.NoteOnEvent(tick=2, channel=2, data=[52, 110]),
   midi.NoteOnEvent(tick=46, channel=2, data=[52, 0]),
   midi.NoteOnEvent(tick=2, channel=2, data=[52, 110]),
   midi.NoteOnEvent(tick=94, channel=2, data=[52, 0]),
   midi.NoteOnEvent(tick=2, channel=2, data=[52, 110]),
   midi.NoteOnEvent(tick=94, channel=2, data=[52, 0]),
   midi.NoteOnEvent(tick=2, channel=2, data=[52, 110]),
   midi.NoteOnEvent(tick=94, channel=2, data=[52, 0]),
   midi.NoteOnEvent(tick=2, channel=2, data=[52, 110]),
   midi.NoteOnEvent(tick=94, channel=2, data=[52, 0]),
   midi.NoteOnEvent(tick=2, channel=2, data=[52, 110]),
   midi.NoteOnEvent(tick=46, channel=2, data=[52, 0]),
   midi.NoteOnEvent(tick=2, channel=2, data=[52, 110]),
   midi.NoteOnEvent(tick=46, channel=2, data=[52, 0]),
   midi.NoteOnEvent(tick=2, channel=2, data=[52, 110]),
   midi.NoteOnEvent(tick=46, channel=2, data=[52, 0]),
   midi.NoteOnEvent(tick=2, channel=2, data=[52, 110]),
   midi.NoteOnEvent(tick=46, channel=2, data=[52, 0]),
   midi.NoteOnEvent(tick=2, channel=2, data=[52, 110]),
   midi.NoteOnEvent(tick=94, channel=2, data=[52, 0]),
   midi.NoteOnEvent(tick=2, channel=2, data=[52, 110]),
   midi.NoteOnEvent(tick=46, channel=2, data=[52, 0]),
   midi.NoteOnEvent(tick=2, channel=2, data=[52, 110]),
   midi.NoteOnEvent(tick=46, channel=2, data=[52, 0]),
   midi.NoteOnEvent(tick=2, channel=2, data=[52, 110]),
   midi.NoteOnEvent(tick=94, channel=2, data=[52, 0]),
   midi.NoteOnEvent(tick=2, channel=2, data=[52, 110]),
   midi.NoteOnEvent(tick=94, channel=2, data=[52, 0]),
   midi.NoteOnEvent(tick=2, channel=2, data=[52, 110]),
   midi.NoteOnEvent(tick=94, channel=2, data=[52, 0]),
   midi.NoteOnEvent(tick=2, channel=2, data=[52, 110]),
   midi.NoteOnEvent(tick=94, channel=2, data=[52, 0]),
   midi.NoteOnEvent(tick=2, channel=2, data=[52, 110]),
   midi.NoteOnEvent(tick=46, channel=2, data=[52, 0]),
   midi.NoteOnEvent(tick=2, channel=2, data=[52, 110]),
   midi.NoteOnEvent(tick=46, channel=2, data=[52, 0]),
   midi.NoteOnEvent(tick=2, channel=2, data=[52, 110]),
   midi.NoteOnEvent(tick=46, channel=2, data=[52, 0]),
   midi.NoteOnEvent(tick=2, channel=2, data=[52, 110]),
   midi.NoteOnEvent(tick=46, channel=2, data=[52, 0]),
   midi.NoteOnEvent(tick=2, channel=2, data=[52, 110]),
   midi.NoteOnEvent(tick=94, channel=2, data=[52, 0]),
   midi.NoteOnEvent(tick=2, channel=2, data=[52, 110]),
   midi.NoteOnEvent(tick=46, channel=2, data=[52, 0]),
   midi.NoteOnEvent(tick=2, channel=2, data=[52, 110]),
   midi.NoteOnEvent(tick=46, channel=2, data=[52, 0]),
   midi.NoteOnEvent(tick=2, channel=2, data=[52, 110]),
   midi.NoteOnEvent(tick=94, channel=2, data=[52, 0]),
   midi.NoteOnEvent(tick=2, channel=2, data=[52, 110]),
   midi.NoteOnEvent(tick=94, channel=2, data=[52, 0]),
   midi.NoteOnEvent(tick=2, channel=2, data=[52, 110]),
   midi.NoteOnEvent(tick=94, channel=2, data=[52, 0]),
   midi.NoteOnEvent(tick=2, channel=2, data=[52, 110]),
   midi.NoteOnEvent(tick=94, channel=2, data=[52, 0]),
   midi.NoteOnEvent(tick=2, channel=2, data=[52, 110]),
   midi.NoteOnEvent(tick=46, channel=2, data=[52, 0]),
   midi.NoteOnEvent(tick=2, channel=2, data=[52, 110]),
   midi.NoteOnEvent(tick=46, channel=2, data=[52, 0]),
   midi.NoteOnEvent(tick=2, channel=2, data=[52, 110]),
   midi.NoteOnEvent(tick=46, channel=2, data=[52, 0]),
   midi.NoteOnEvent(tick=2, channel=2, data=[52, 110]),
   midi.NoteOnEvent(tick=46, channel=2, data=[52, 0]),
   midi.NoteOnEvent(tick=2, channel=2, data=[52, 110]),
   midi.NoteOnEvent(tick=94, channel=2, data=[52, 0]),
   midi.NoteOnEvent(tick=2, channel=2, data=[52, 110]),
   midi.NoteOnEvent(tick=46, channel=2, data=[52, 0]),
   midi.NoteOnEvent(tick=2, channel=2, data=[52, 110]),
   midi.NoteOnEvent(tick=46, channel=2, data=[52, 0]),
   midi.NoteOnEvent(tick=2, channel=2, data=[52, 110]),
   midi.NoteOnEvent(tick=94, channel=2, data=[52, 0]),
   midi.NoteOnEvent(tick=2, channel=2, data=[52, 110]),
   midi.NoteOnEvent(tick=94, channel=2, data=[52, 0]),
   midi.NoteOnEvent(tick=2, channel=2, data=[52, 110]),
   midi.NoteOnEvent(tick=94, channel=2, data=[52, 0]),
   midi.NoteOnEvent(tick=2, channel=2, data=[52, 110]),
   midi.NoteOnEvent(tick=94, channel=2, data=[52, 0]),
   midi.NoteOnEvent(tick=2, channel=2, data=[52, 110]),
   midi.NoteOnEvent(tick=46, channel=2, data=[52, 0]),
   midi.NoteOnEvent(tick=2, channel=2, data=[52, 110]),
   midi.NoteOnEvent(tick=46, channel=2, data=[52, 0]),
   midi.NoteOnEvent(tick=2, channel=2, data=[52, 110]),
   midi.NoteOnEvent(tick=46, channel=2, data=[52, 0]),
   midi.NoteOnEvent(tick=2, channel=2, data=[52, 110]),
   midi.NoteOnEvent(tick=46, channel=2, data=[52, 0]),
   midi.NoteOnEvent(tick=2, channel=2, data=[52, 110]),
   midi.NoteOnEvent(tick=94, channel=2, data=[52, 0]),
   midi.NoteOnEvent(tick=2, channel=2, data=[52, 110]),
   midi.NoteOnEvent(tick=46, channel=2, data=[52, 0]),
   midi.NoteOnEvent(tick=2, channel=2, data=[52, 110]),
   midi.NoteOnEvent(tick=46, channel=2, data=[52, 0]),
   midi.NoteOnEvent(tick=2, channel=2, data=[52, 110]),
   midi.NoteOnEvent(tick=94, channel=2, data=[52, 0]),
   midi.NoteOnEvent(tick=2, channel=2, data=[52, 110]),
   midi.NoteOnEvent(tick=94, channel=2, data=[52, 0]),
   midi.NoteOnEvent(tick=2, channel=2, data=[52, 110]),
   midi.NoteOnEvent(tick=94, channel=2, data=[52, 0]),
   midi.NoteOnEvent(tick=2, channel=2, data=[52, 110]),
   midi.NoteOnEvent(tick=94, channel=2, data=[52, 0]),
   midi.NoteOnEvent(tick=2, channel=2, data=[52, 110]),
   midi.NoteOnEvent(tick=46, channel=2, data=[52, 0]),
   midi.NoteOnEvent(tick=2, channel=2, data=[52, 110]),
   midi.NoteOnEvent(tick=46, channel=2, data=[52, 0]),
   midi.NoteOnEvent(tick=2, channel=2, data=[52, 110]),
   midi.NoteOnEvent(tick=46, channel=2, data=[52, 0]),
   midi.NoteOnEvent(tick=2, channel=2, data=[52, 110]),
   midi.NoteOnEvent(tick=46, channel=2, data=[52, 0]),
   midi.NoteOnEvent(tick=2, channel=2, data=[55, 110]),
   midi.NoteOnEvent(tick=94, channel=2, data=[55, 0]),
   midi.NoteOnEvent(tick=2, channel=2, data=[55, 110]),
   midi.NoteOnEvent(tick=46, channel=2, data=[55, 0]),
   midi.NoteOnEvent(tick=2, channel=2, data=[55, 110]),
   midi.NoteOnEvent(tick=46, channel=2, data=[55, 0]),
   midi.NoteOnEvent(tick=2, channel=2, data=[55, 110]),
   midi.NoteOnEvent(tick=94, channel=2, data=[55, 0]),
   midi.NoteOnEvent(tick=2, channel=2, data=[55, 110]),
   midi.NoteOnEvent(tick=94, channel=2, data=[55, 0]),
   midi.NoteOnEvent(tick=2, channel=2, data=[55, 110]),
   midi.NoteOnEvent(tick=94, channel=2, data=[55, 0]),
   midi.NoteOnEvent(tick=2, channel=2, data=[55, 110]),
   midi.NoteOnEvent(tick=94, channel=2, data=[55, 0]),
   midi.NoteOnEvent(tick=2, channel=2, data=[55, 110]),
   midi.NoteOnEvent(tick=46, channel=2, data=[55, 0]),
   midi.NoteOnEvent(tick=2, channel=2, data=[55, 110]),
   midi.NoteOnEvent(tick=46, channel=2, data=[55, 0]),
   midi.NoteOnEvent(tick=2, channel=2, data=[55, 110]),
   midi.NoteOnEvent(tick=46, channel=2, data=[55, 0]),
   midi.NoteOnEvent(tick=2, channel=2, data=[55, 110]),
   midi.NoteOnEvent(tick=46, channel=2, data=[55, 0]),
   midi.NoteOnEvent(tick=2, channel=2, data=[54, 110]),
   midi.NoteOnEvent(tick=94, channel=2, data=[54, 0]),
   midi.NoteOnEvent(tick=2, channel=2, data=[54, 110]),
   midi.NoteOnEvent(tick=46, channel=2, data=[54, 0]),
   midi.NoteOnEvent(tick=2, channel=2, data=[54, 110]),
   midi.NoteOnEvent(tick=46, channel=2, data=[54, 0]),
   midi.NoteOnEvent(tick=2, channel=2, data=[54, 110]),
   midi.NoteOnEvent(tick=94, channel=2, data=[54, 0]),
   midi.NoteOnEvent(tick=2, channel=2, data=[54, 110]),
   midi.NoteOnEvent(tick=94, channel=2, data=[54, 0]),
   midi.NoteOnEvent(tick=2, channel=2, data=[54, 110]),
   midi.NoteOnEvent(tick=94, channel=2, data=[54, 0]),
   midi.NoteOnEvent(tick=2, channel=2, data=[54, 110]),
   midi.NoteOnEvent(tick=94, channel=2, data=[54, 0]),
   midi.NoteOnEvent(tick=2, channel=2, data=[54, 110]),
   midi.NoteOnEvent(tick=46, channel=2, data=[54, 0]),
   midi.NoteOnEvent(tick=2, channel=2, data=[54, 110]),
   midi.NoteOnEvent(tick=46, channel=2, data=[54, 0]),
   midi.NoteOnEvent(tick=2, channel=2, data=[54, 110]),
   midi.NoteOnEvent(tick=46, channel=2, data=[54, 0]),
   midi.NoteOnEvent(tick=2, channel=2, data=[54, 110]),
   midi.NoteOnEvent(tick=46, channel=2, data=[54, 0]),
   midi.NoteOnEvent(tick=2, channel=2, data=[52, 110]),
   midi.NoteOnEvent(tick=94, channel=2, data=[52, 0]),
   midi.NoteOnEvent(tick=2, channel=2, data=[52, 110]),
   midi.NoteOnEvent(tick=46, channel=2, data=[52, 0]),
   midi.NoteOnEvent(tick=2, channel=2, data=[52, 110]),
   midi.NoteOnEvent(tick=46, channel=2, data=[52, 0]),
   midi.NoteOnEvent(tick=2, channel=2, data=[52, 110]),
   midi.NoteOnEvent(tick=94, channel=2, data=[52, 0]),
   midi.NoteOnEvent(tick=2, channel=2, data=[52, 110]),
   midi.NoteOnEvent(tick=94, channel=2, data=[52, 0]),
   midi.NoteOnEvent(tick=2, channel=2, data=[52, 110]),
   midi.NoteOnEvent(tick=94, channel=2, data=[52, 0]),
   midi.NoteOnEvent(tick=2, channel=2, data=[52, 110]),
   midi.NoteOnEvent(tick=94, channel=2, data=[52, 0]),
   midi.NoteOnEvent(tick=2, channel=2, data=[52, 110]),
   midi.NoteOnEvent(tick=46, channel=2, data=[52, 0]),
   midi.NoteOnEvent(tick=2, channel=2, data=[52, 110]),
   midi.NoteOnEvent(tick=46, channel=2, data=[52, 0]),
   midi.NoteOnEvent(tick=2, channel=2, data=[52, 110]),
   midi.NoteOnEvent(tick=46, channel=2, data=[52, 0]),
   midi.NoteOnEvent(tick=2, channel=2, data=[52, 110]),
   midi.NoteOnEvent(tick=46, channel=2, data=[52, 0]),
   midi.NoteOnEvent(tick=2, channel=2, data=[52, 110]),
   midi.NoteOnEvent(tick=94, channel=2, data=[52, 0]),
   midi.NoteOnEvent(tick=2, channel=2, data=[52, 110]),
   midi.NoteOnEvent(tick=46, channel=2, data=[52, 0]),
   midi.NoteOnEvent(tick=2, channel=2, data=[52, 110]),
   midi.NoteOnEvent(tick=46, channel=2, data=[52, 0]),
   midi.NoteOnEvent(tick=2, channel=2, data=[52, 110]),
   midi.NoteOnEvent(tick=94, channel=2, data=[52, 0]),
   midi.NoteOnEvent(tick=2, channel=2, data=[52, 110]),
   midi.NoteOnEvent(tick=94, channel=2, data=[52, 0]),
   midi.NoteOnEvent(tick=2, channel=2, data=[52, 110]),
   midi.NoteOnEvent(tick=94, channel=2, data=[52, 0]),
   midi.NoteOnEvent(tick=2, channel=2, data=[52, 110]),
   midi.NoteOnEvent(tick=94, channel=2, data=[52, 0]),
   midi.NoteOnEvent(tick=2, channel=2, data=[52, 110]),
   midi.NoteOnEvent(tick=46, channel=2, data=[52, 0]),
   midi.NoteOnEvent(tick=2, channel=2, data=[52, 110]),
   midi.NoteOnEvent(tick=46, channel=2, data=[52, 0]),
   midi.NoteOnEvent(tick=2, channel=2, data=[52, 110]),
   midi.NoteOnEvent(tick=46, channel=2, data=[52, 0]),
   midi.NoteOnEvent(tick=2, channel=2, data=[52, 110]),
   midi.NoteOnEvent(tick=46, channel=2, data=[52, 0]),
   midi.NoteOnEvent(tick=2, channel=2, data=[55, 110]),
   midi.NoteOnEvent(tick=94, channel=2, data=[55, 0]),
   midi.NoteOnEvent(tick=2, channel=2, data=[55, 110]),
   midi.NoteOnEvent(tick=46, channel=2, data=[55, 0]),
   midi.NoteOnEvent(tick=2, channel=2, data=[55, 110]),
   midi.NoteOnEvent(tick=46, channel=2, data=[55, 0]),
   midi.NoteOnEvent(tick=2, channel=2, data=[55, 110]),
   midi.NoteOnEvent(tick=94, channel=2, data=[55, 0]),
   midi.NoteOnEvent(tick=2, channel=2, data=[55, 110]),
   midi.NoteOnEvent(tick=94, channel=2, data=[55, 0]),
   midi.NoteOnEvent(tick=2, channel=2, data=[55, 110]),
   midi.NoteOnEvent(tick=94, channel=2, data=[55, 0]),
   midi.NoteOnEvent(tick=2, channel=2, data=[55, 110]),
   midi.NoteOnEvent(tick=94, channel=2, data=[55, 0]),
   midi.NoteOnEvent(tick=2, channel=2, data=[55, 110]),
   midi.NoteOnEvent(tick=46, channel=2, data=[55, 0]),
   midi.NoteOnEvent(tick=2, channel=2, data=[55, 110]),
   midi.NoteOnEvent(tick=46, channel=2, data=[55, 0]),
   midi.NoteOnEvent(tick=2, channel=2, data=[55, 110]),
   midi.NoteOnEvent(tick=46, channel=2, data=[55, 0]),
   midi.NoteOnEvent(tick=2, channel=2, data=[55, 110]),
   midi.NoteOnEvent(tick=46, channel=2, data=[55, 0]),
   midi.NoteOnEvent(tick=2, channel=2, data=[59, 110]),
   midi.NoteOnEvent(tick=94, channel=2, data=[59, 0]),
   midi.NoteOnEvent(tick=2, channel=2, data=[59, 110]),
   midi.NoteOnEvent(tick=46, channel=2, data=[59, 0]),
   midi.NoteOnEvent(tick=2, channel=2, data=[59, 110]),
   midi.NoteOnEvent(tick=46, channel=2, data=[59, 0]),
   midi.NoteOnEvent(tick=2, channel=2, data=[59, 110]),
   midi.NoteOnEvent(tick=94, channel=2, data=[59, 0]),
   midi.NoteOnEvent(tick=2, channel=2, data=[59, 110]),
   midi.NoteOnEvent(tick=94, channel=2, data=[59, 0]),
   midi.NoteOnEvent(tick=2, channel=2, data=[59, 110]),
   midi.NoteOnEvent(tick=94, channel=2, data=[59, 0]),
   midi.NoteOnEvent(tick=2, channel=2, data=[59, 110]),
   midi.NoteOnEvent(tick=94, channel=2, data=[59, 0]),
   midi.NoteOnEvent(tick=2, channel=2, data=[59, 110]),
   midi.NoteOnEvent(tick=46, channel=2, data=[59, 0]),
   midi.NoteOnEvent(tick=2, channel=2, data=[59, 110]),
   midi.NoteOnEvent(tick=46, channel=2, data=[59, 0]),
   midi.NoteOnEvent(tick=2, channel=2, data=[59, 110]),
   midi.NoteOnEvent(tick=46, channel=2, data=[59, 0]),
   midi.NoteOnEvent(tick=2, channel=2, data=[59, 110]),
   midi.NoteOnEvent(tick=46, channel=2, data=[59, 0]),
   midi.NoteOnEvent(tick=2, channel=2, data=[52, 110]),
   midi.NoteOnEvent(tick=94, channel=2, data=[52, 0]),
   midi.NoteOnEvent(tick=2, channel=2, data=[52, 110]),
   midi.NoteOnEvent(tick=46, channel=2, data=[52, 0]),
   midi.NoteOnEvent(tick=2, channel=2, data=[52, 110]),
   midi.NoteOnEvent(tick=46, channel=2, data=[52, 0]),
   midi.NoteOnEvent(tick=2, channel=2, data=[52, 110]),
   midi.NoteOnEvent(tick=94, channel=2, data=[52, 0]),
   midi.NoteOnEvent(tick=2, channel=2, data=[52, 110]),
   midi.NoteOnEvent(tick=94, channel=2, data=[52, 0]),
   midi.NoteOnEvent(tick=2, channel=2, data=[52, 110]),
   midi.NoteOnEvent(tick=94, channel=2, data=[52, 0]),
   midi.NoteOnEvent(tick=2, channel=2, data=[52, 110]),
   midi.NoteOnEvent(tick=94, channel=2, data=[52, 0]),
   midi.NoteOnEvent(tick=2, channel=2, data=[52, 110]),
   midi.NoteOnEvent(tick=46, channel=2, data=[52, 0]),
   midi.NoteOnEvent(tick=2, channel=2, data=[52, 110]),
   midi.NoteOnEvent(tick=46, channel=2, data=[52, 0]),
   midi.NoteOnEvent(tick=2, channel=2, data=[52, 110]),
   midi.NoteOnEvent(tick=46, channel=2, data=[52, 0]),
   midi.NoteOnEvent(tick=2, channel=2, data=[52, 110]),
   midi.NoteOnEvent(tick=46, channel=2, data=[52, 0]),
   midi.NoteOnEvent(tick=2, channel=2, data=[52, 110]),
   midi.NoteOnEvent(tick=94, channel=2, data=[52, 0]),
   midi.NoteOnEvent(tick=2, channel=2, data=[52, 110]),
   midi.NoteOnEvent(tick=46, channel=2, data=[52, 0]),
   midi.NoteOnEvent(tick=2, channel=2, data=[52, 110]),
   midi.NoteOnEvent(tick=46, channel=2, data=[52, 0]),
   midi.NoteOnEvent(tick=2, channel=2, data=[52, 110]),
   midi.NoteOnEvent(tick=94, channel=2, data=[52, 0]),
   midi.NoteOnEvent(tick=2, channel=2, data=[52, 110]),
   midi.NoteOnEvent(tick=94, channel=2, data=[52, 0]),
   midi.NoteOnEvent(tick=2, channel=2, data=[52, 110]),
   midi.NoteOnEvent(tick=94, channel=2, data=[52, 0]),
   midi.NoteOnEvent(tick=2, channel=2, data=[52, 110]),
   midi.NoteOnEvent(tick=94, channel=2, data=[52, 0]),
   midi.NoteOnEvent(tick=2, channel=2, data=[52, 110]),
   midi.NoteOnEvent(tick=46, channel=2, data=[52, 0]),
   midi.NoteOnEvent(tick=2, channel=2, data=[52, 110]),
   midi.NoteOnEvent(tick=46, channel=2, data=[52, 0]),
   midi.NoteOnEvent(tick=2, channel=2, data=[52, 110]),
   midi.NoteOnEvent(tick=46, channel=2, data=[52, 0]),
   midi.NoteOnEvent(tick=2, channel=2, data=[52, 110]),
   midi.NoteOnEvent(tick=46, channel=2, data=[52, 0]),
   midi.NoteOnEvent(tick=2, channel=2, data=[55, 110]),
   midi.NoteOnEvent(tick=94, channel=2, data=[55, 0]),
   midi.NoteOnEvent(tick=2, channel=2, data=[55, 110]),
   midi.NoteOnEvent(tick=46, channel=2, data=[55, 0]),
   midi.NoteOnEvent(tick=2, channel=2, data=[55, 110]),
   midi.NoteOnEvent(tick=46, channel=2, data=[55, 0]),
   midi.NoteOnEvent(tick=2, channel=2, data=[55, 110]),
   midi.NoteOnEvent(tick=94, channel=2, data=[55, 0]),
   midi.NoteOnEvent(tick=2, channel=2, data=[55, 110]),
   midi.NoteOnEvent(tick=94, channel=2, data=[55, 0]),
   midi.NoteOnEvent(tick=2, channel=2, data=[55, 110]),
   midi.NoteOnEvent(tick=94, channel=2, data=[55, 0]),
   midi.NoteOnEvent(tick=2, channel=2, data=[55, 110]),
   midi.NoteOnEvent(tick=94, channel=2, data=[55, 0]),
   midi.NoteOnEvent(tick=2, channel=2, data=[55, 110]),
   midi.NoteOnEvent(tick=46, channel=2, data=[55, 0]),
   midi.NoteOnEvent(tick=2, channel=2, data=[55, 110]),
   midi.NoteOnEvent(tick=46, channel=2, data=[55, 0]),
   midi.NoteOnEvent(tick=2, channel=2, data=[55, 110]),
   midi.NoteOnEvent(tick=46, channel=2, data=[55, 0]),
   midi.NoteOnEvent(tick=2, channel=2, data=[55, 110]),
   midi.NoteOnEvent(tick=46, channel=2, data=[55, 0]),
   midi.NoteOnEvent(tick=2, channel=2, data=[54, 110]),
   midi.NoteOnEvent(tick=94, channel=2, data=[54, 0]),
   midi.NoteOnEvent(tick=2, channel=2, data=[54, 110]),
   midi.NoteOnEvent(tick=46, channel=2, data=[54, 0]),
   midi.NoteOnEvent(tick=2, channel=2, data=[54, 110]),
   midi.NoteOnEvent(tick=46, channel=2, data=[54, 0]),
   midi.NoteOnEvent(tick=2, channel=2, data=[54, 110]),
   midi.NoteOnEvent(tick=94, channel=2, data=[54, 0]),
   midi.NoteOnEvent(tick=2, channel=2, data=[54, 110]),
   midi.NoteOnEvent(tick=94, channel=2, data=[54, 0]),
   midi.NoteOnEvent(tick=2, channel=2, data=[54, 110]),
   midi.NoteOnEvent(tick=94, channel=2, data=[54, 0]),
   midi.NoteOnEvent(tick=2, channel=2, data=[54, 110]),
   midi.NoteOnEvent(tick=94, channel=2, data=[54, 0]),
   midi.NoteOnEvent(tick=2, channel=2, data=[54, 110]),
   midi.NoteOnEvent(tick=46, channel=2, data=[54, 0]),
   midi.NoteOnEvent(tick=2, channel=2, data=[54, 110]),
   midi.NoteOnEvent(tick=46, channel=2, data=[54, 0]),
   midi.NoteOnEvent(tick=2, channel=2, data=[54, 110]),
   midi.NoteOnEvent(tick=46, channel=2, data=[54, 0]),
   midi.NoteOnEvent(tick=2, channel=2, data=[54, 110]),
   midi.NoteOnEvent(tick=46, channel=2, data=[54, 0]),
   midi.NoteOnEvent(tick=2, channel=2, data=[52, 110]),
   midi.NoteOnEvent(tick=94, channel=2, data=[52, 0]),
   midi.NoteOnEvent(tick=2, channel=2, data=[52, 110]),
   midi.NoteOnEvent(tick=46, channel=2, data=[52, 0]),
   midi.NoteOnEvent(tick=2, channel=2, data=[52, 110]),
   midi.NoteOnEvent(tick=46, channel=2, data=[52, 0]),
   midi.NoteOnEvent(tick=2, channel=2, data=[52, 110]),
   midi.NoteOnEvent(tick=94, channel=2, data=[52, 0]),
   midi.NoteOnEvent(tick=2, channel=2, data=[52, 110]),
   midi.NoteOnEvent(tick=94, channel=2, data=[52, 0]),
   midi.NoteOnEvent(tick=2, channel=2, data=[52, 110]),
   midi.NoteOnEvent(tick=94, channel=2, data=[52, 0]),
   midi.NoteOnEvent(tick=2, channel=2, data=[52, 110]),
   midi.NoteOnEvent(tick=94, channel=2, data=[52, 0]),
   midi.NoteOnEvent(tick=2, channel=2, data=[52, 110]),
   midi.NoteOnEvent(tick=46, channel=2, data=[52, 0]),
   midi.NoteOnEvent(tick=2, channel=2, data=[52, 110]),
   midi.NoteOnEvent(tick=46, channel=2, data=[52, 0]),
   midi.NoteOnEvent(tick=2, channel=2, data=[52, 110]),
   midi.NoteOnEvent(tick=46, channel=2, data=[52, 0]),
   midi.NoteOnEvent(tick=2, channel=2, data=[52, 110]),
   midi.NoteOnEvent(tick=46, channel=2, data=[52, 0]),
   midi.NoteOnEvent(tick=2, channel=2, data=[52, 110]),
   midi.NoteOnEvent(tick=94, channel=2, data=[52, 0]),
   midi.NoteOnEvent(tick=2, channel=2, data=[52, 110]),
   midi.NoteOnEvent(tick=46, channel=2, data=[52, 0]),
   midi.NoteOnEvent(tick=2, channel=2, data=[52, 110]),
   midi.NoteOnEvent(tick=46, channel=2, data=[52, 0]),
   midi.NoteOnEvent(tick=2, channel=2, data=[52, 110]),
   midi.NoteOnEvent(tick=94, channel=2, data=[52, 0]),
   midi.NoteOnEvent(tick=2, channel=2, data=[52, 110]),
   midi.NoteOnEvent(tick=94, channel=2, data=[52, 0]),
   midi.NoteOnEvent(tick=2, channel=2, data=[52, 110]),
   midi.NoteOnEvent(tick=94, channel=2, data=[52, 0]),
   midi.NoteOnEvent(tick=2, channel=2, data=[52, 110]),
   midi.NoteOnEvent(tick=94, channel=2, data=[52, 0]),
   midi.NoteOnEvent(tick=2, channel=2, data=[52, 110]),
   midi.NoteOnEvent(tick=46, channel=2, data=[52, 0]),
   midi.NoteOnEvent(tick=2, channel=2, data=[52, 110]),
   midi.NoteOnEvent(tick=46, channel=2, data=[52, 0]),
   midi.NoteOnEvent(tick=2, channel=2, data=[52, 110]),
   midi.NoteOnEvent(tick=46, channel=2, data=[52, 0]),
   midi.NoteOnEvent(tick=2, channel=2, data=[52, 110]),
   midi.NoteOnEvent(tick=46, channel=2, data=[52, 0]),
   midi.NoteOnEvent(tick=2, channel=2, data=[55, 110]),
   midi.NoteOnEvent(tick=94, channel=2, data=[55, 0]),
   midi.NoteOnEvent(tick=2, channel=2, data=[55, 110]),
   midi.NoteOnEvent(tick=46, channel=2, data=[55, 0]),
   midi.NoteOnEvent(tick=2, channel=2, data=[55, 110]),
   midi.NoteOnEvent(tick=46, channel=2, data=[55, 0]),
   midi.NoteOnEvent(tick=2, channel=2, data=[55, 110]),
   midi.NoteOnEvent(tick=94, channel=2, data=[55, 0]),
   midi.NoteOnEvent(tick=2, channel=2, data=[55, 110]),
   midi.NoteOnEvent(tick=94, channel=2, data=[55, 0]),
   midi.NoteOnEvent(tick=2, channel=2, data=[55, 110]),
   midi.NoteOnEvent(tick=94, channel=2, data=[55, 0]),
   midi.NoteOnEvent(tick=2, channel=2, data=[55, 110]),
   midi.NoteOnEvent(tick=94, channel=2, data=[55, 0]),
   midi.NoteOnEvent(tick=2, channel=2, data=[55, 110]),
   midi.NoteOnEvent(tick=46, channel=2, data=[55, 0]),
   midi.NoteOnEvent(tick=2, channel=2, data=[55, 110]),
   midi.NoteOnEvent(tick=46, channel=2, data=[55, 0]),
   midi.NoteOnEvent(tick=2, channel=2, data=[55, 110]),
   midi.NoteOnEvent(tick=46, channel=2, data=[55, 0]),
   midi.NoteOnEvent(tick=2, channel=2, data=[55, 110]),
   midi.NoteOnEvent(tick=46, channel=2, data=[55, 0]),
   midi.NoteOnEvent(tick=2, channel=2, data=[59, 110]),
   midi.NoteOnEvent(tick=94, channel=2, data=[59, 0]),
   midi.NoteOnEvent(tick=2, channel=2, data=[59, 110]),
   midi.NoteOnEvent(tick=46, channel=2, data=[59, 0]),
   midi.NoteOnEvent(tick=2, channel=2, data=[59, 110]),
   midi.NoteOnEvent(tick=46, channel=2, data=[59, 0]),
   midi.NoteOnEvent(tick=2, channel=2, data=[59, 110]),
   midi.NoteOnEvent(tick=94, channel=2, data=[59, 0]),
   midi.NoteOnEvent(tick=2, channel=2, data=[59, 110]),
   midi.NoteOnEvent(tick=94, channel=2, data=[59, 0]),
   midi.NoteOnEvent(tick=2, channel=2, data=[59, 110]),
   midi.NoteOnEvent(tick=94, channel=2, data=[59, 0]),
   midi.NoteOnEvent(tick=2, channel=2, data=[59, 110]),
   midi.NoteOnEvent(tick=94, channel=2, data=[59, 0]),
   midi.NoteOnEvent(tick=2, channel=2, data=[59, 110]),
   midi.NoteOnEvent(tick=46, channel=2, data=[59, 0]),
   midi.NoteOnEvent(tick=2, channel=2, data=[59, 110]),
   midi.NoteOnEvent(tick=46, channel=2, data=[59, 0]),
   midi.NoteOnEvent(tick=2, channel=2, data=[59, 110]),
   midi.NoteOnEvent(tick=46, channel=2, data=[59, 0]),
   midi.NoteOnEvent(tick=2, channel=2, data=[59, 110]),
   midi.NoteOnEvent(tick=46, channel=2, data=[59, 0]),
   midi.NoteOnEvent(tick=2, channel=2, data=[61, 110]),
   midi.NoteOnEvent(tick=0, channel=2, data=[68, 110]),
   midi.NoteOnEvent(tick=94, channel=2, data=[61, 0]),
   midi.NoteOnEvent(tick=0, channel=2, data=[68, 0]),
   midi.NoteOnEvent(tick=2, channel=2, data=[61, 110]),
   midi.NoteOnEvent(tick=46, channel=2, data=[61, 0]),
   midi.NoteOnEvent(tick=2, channel=2, data=[61, 110]),
   midi.NoteOnEvent(tick=46, channel=2, data=[61, 0]),
   midi.NoteOnEvent(tick=2, channel=2, data=[61, 110]),
   midi.NoteOnEvent(tick=46, channel=2, data=[61, 0]),
   midi.NoteOnEvent(tick=2, channel=2, data=[61, 110]),
   midi.NoteOnEvent(tick=46, channel=2, data=[61, 0]),
   midi.NoteOnEvent(tick=2, channel=2, data=[61, 110]),
   midi.NoteOnEvent(tick=46, channel=2, data=[61, 0]),
   midi.NoteOnEvent(tick=2, channel=2, data=[61, 110]),
   midi.NoteOnEvent(tick=46, channel=2, data=[61, 0]),
   midi.NoteOnEvent(tick=2, channel=2, data=[61, 110]),
   midi.NoteOnEvent(tick=94, channel=2, data=[61, 0]),
   midi.NoteOnEvent(tick=2, channel=2, data=[61, 110]),
   midi.NoteOnEvent(tick=46, channel=2, data=[61, 0]),
   midi.NoteOnEvent(tick=2, channel=2, data=[61, 110]),
   midi.NoteOnEvent(tick=46, channel=2, data=[61, 0]),
   midi.NoteOnEvent(tick=2, channel=2, data=[61, 110]),
   midi.NoteOnEvent(tick=46, channel=2, data=[61, 0]),
   midi.NoteOnEvent(tick=2, channel=2, data=[61, 110]),
   midi.NoteOnEvent(tick=46, channel=2, data=[61, 0]),
   midi.NoteOnEvent(tick=2, channel=2, data=[61, 110]),
   midi.NoteOnEvent(tick=46, channel=2, data=[61, 0]),
   midi.NoteOnEvent(tick=2, channel=2, data=[61, 110]),
   midi.NoteOnEvent(tick=46, channel=2, data=[61, 0]),
   midi.NoteOnEvent(tick=2, channel=2, data=[61, 110]),
   midi.NoteOnEvent(tick=0, channel=2, data=[68, 110]),
   midi.NoteOnEvent(tick=94, channel=2, data=[61, 0]),
   midi.NoteOnEvent(tick=0, channel=2, data=[68, 0]),
   midi.NoteOnEvent(tick=2, channel=2, data=[61, 110]),
   midi.NoteOnEvent(tick=46, channel=2, data=[61, 0]),
   midi.NoteOnEvent(tick=2, channel=2, data=[61, 110]),
   midi.NoteOnEvent(tick=46, channel=2, data=[61, 0]),
   midi.NoteOnEvent(tick=2, channel=2, data=[61, 110]),
   midi.NoteOnEvent(tick=46, channel=2, data=[61, 0]),
   midi.NoteOnEvent(tick=2, channel=2, data=[61, 110]),
   midi.NoteOnEvent(tick=46, channel=2, data=[61, 0]),
   midi.NoteOnEvent(tick=2, channel=2, data=[61, 110]),
   midi.NoteOnEvent(tick=46, channel=2, data=[61, 0]),
   midi.NoteOnEvent(tick=2, channel=2, data=[61, 110]),
   midi.NoteOnEvent(tick=46, channel=2, data=[61, 0]),
   midi.NoteOnEvent(tick=2, channel=2, data=[61, 110]),
   midi.NoteOnEvent(tick=94, channel=2, data=[61, 0]),
   midi.NoteOnEvent(tick=2, channel=2, data=[61, 110]),
   midi.NoteOnEvent(tick=46, channel=2, data=[61, 0]),
   midi.NoteOnEvent(tick=2, channel=2, data=[61, 110]),
   midi.NoteOnEvent(tick=46, channel=2, data=[61, 0]),
   midi.NoteOnEvent(tick=2, channel=2, data=[61, 110]),
   midi.NoteOnEvent(tick=46, channel=2, data=[61, 0]),
   midi.NoteOnEvent(tick=2, channel=2, data=[61, 110]),
   midi.NoteOnEvent(tick=46, channel=2, data=[61, 0]),
   midi.NoteOnEvent(tick=2, channel=2, data=[61, 110]),
   midi.NoteOnEvent(tick=46, channel=2, data=[61, 0]),
   midi.NoteOnEvent(tick=2, channel=2, data=[61, 110]),
   midi.NoteOnEvent(tick=46, channel=2, data=[61, 0]),
   midi.NoteOnEvent(tick=2, channel=2, data=[61, 110]),
   midi.NoteOnEvent(tick=0, channel=2, data=[68, 110]),
   midi.NoteOnEvent(tick=94, channel=2, data=[61, 0]),
   midi.NoteOnEvent(tick=0, channel=2, data=[68, 0]),
   midi.NoteOnEvent(tick=2, channel=2, data=[61, 110]),
   midi.NoteOnEvent(tick=46, channel=2, data=[61, 0]),
   midi.NoteOnEvent(tick=2, channel=2, data=[61, 110]),
   midi.NoteOnEvent(tick=46, channel=2, data=[61, 0]),
   midi.NoteOnEvent(tick=2, channel=2, data=[61, 110]),
   midi.NoteOnEvent(tick=46, channel=2, data=[61, 0]),
   midi.NoteOnEvent(tick=2, channel=2, data=[61, 110]),
   midi.NoteOnEvent(tick=46, channel=2, data=[61, 0]),
   midi.NoteOnEvent(tick=2, channel=2, data=[61, 110]),
   midi.NoteOnEvent(tick=46, channel=2, data=[61, 0]),
   midi.NoteOnEvent(tick=2, channel=2, data=[61, 110]),
   midi.NoteOnEvent(tick=46, channel=2, data=[61, 0]),
   midi.NoteOnEvent(tick=2, channel=2, data=[61, 110]),
   midi.NoteOnEvent(tick=94, channel=2, data=[61, 0]),
   midi.NoteOnEvent(tick=2, channel=2, data=[61, 110]),
   midi.NoteOnEvent(tick=46, channel=2, data=[61, 0]),
   midi.NoteOnEvent(tick=2, channel=2, data=[61, 110]),
   midi.NoteOnEvent(tick=46, channel=2, data=[61, 0]),
   midi.NoteOnEvent(tick=2, channel=2, data=[59, 110]),
   midi.NoteOnEvent(tick=0, channel=2, data=[66, 110]),
   midi.NoteOnEvent(tick=94, channel=2, data=[59, 0]),
   midi.NoteOnEvent(tick=0, channel=2, data=[66, 0]),
   midi.NoteOnEvent(tick=2, channel=2, data=[59, 110]),
   midi.NoteOnEvent(tick=46, channel=2, data=[59, 0]),
   midi.NoteOnEvent(tick=2, channel=2, data=[59, 110]),
   midi.NoteOnEvent(tick=46, channel=2, data=[59, 0]),
   midi.NoteOnEvent(tick=2, channel=2, data=[59, 110]),
   midi.NoteOnEvent(tick=46, channel=2, data=[59, 0]),
   midi.NoteOnEvent(tick=2, channel=2, data=[59, 110]),
   midi.NoteOnEvent(tick=46, channel=2, data=[59, 0]),
   midi.NoteOnEvent(tick=2, channel=2, data=[59, 110]),
   midi.NoteOnEvent(tick=46, channel=2, data=[59, 0]),
   midi.NoteOnEvent(tick=2, channel=2, data=[59, 110]),
   midi.NoteOnEvent(tick=46, channel=2, data=[59, 0]),
   midi.NoteOnEvent(tick=2, channel=2, data=[59, 110]),
   midi.NoteOnEvent(tick=94, channel=2, data=[59, 0]),
   midi.NoteOnEvent(tick=2, channel=2, data=[59, 110]),
   midi.NoteOnEvent(tick=46, channel=2, data=[59, 0]),
   midi.NoteOnEvent(tick=2, channel=2, data=[59, 110]),
   midi.NoteOnEvent(tick=46, channel=2, data=[59, 0]),
   midi.NoteOnEvent(tick=2, channel=2, data=[61, 110]),
   midi.NoteOnEvent(tick=0, channel=2, data=[68, 110]),
   midi.NoteOnEvent(tick=94, channel=2, data=[61, 0]),
   midi.NoteOnEvent(tick=0, channel=2, data=[68, 0]),
   midi.NoteOnEvent(tick=2, channel=2, data=[61, 110]),
   midi.NoteOnEvent(tick=46, channel=2, data=[61, 0]),
   midi.NoteOnEvent(tick=2, channel=2, data=[61, 110]),
   midi.NoteOnEvent(tick=46, channel=2, data=[61, 0]),
   midi.NoteOnEvent(tick=2, channel=2, data=[61, 110]),
   midi.NoteOnEvent(tick=46, channel=2, data=[61, 0]),
   midi.NoteOnEvent(tick=2, channel=2, data=[61, 110]),
   midi.NoteOnEvent(tick=46, channel=2, data=[61, 0]),
   midi.NoteOnEvent(tick=2, channel=2, data=[61, 110]),
   midi.NoteOnEvent(tick=46, channel=2, data=[61, 0]),
   midi.NoteOnEvent(tick=2, channel=2, data=[61, 110]),
   midi.NoteOnEvent(tick=46, channel=2, data=[61, 0]),
   midi.NoteOnEvent(tick=2, channel=2, data=[61, 110]),
   midi.NoteOnEvent(tick=94, channel=2, data=[61, 0]),
   midi.NoteOnEvent(tick=2, channel=2, data=[61, 110]),
   midi.NoteOnEvent(tick=46, channel=2, data=[61, 0]),
   midi.NoteOnEvent(tick=2, channel=2, data=[61, 110]),
   midi.NoteOnEvent(tick=46, channel=2, data=[61, 0]),
   midi.NoteOnEvent(tick=2, channel=2, data=[61, 110]),
   midi.NoteOnEvent(tick=46, channel=2, data=[61, 0]),
   midi.NoteOnEvent(tick=2, channel=2, data=[61, 110]),
   midi.NoteOnEvent(tick=46, channel=2, data=[61, 0]),
   midi.NoteOnEvent(tick=2, channel=2, data=[61, 110]),
   midi.NoteOnEvent(tick=46, channel=2, data=[61, 0]),
   midi.NoteOnEvent(tick=2, channel=2, data=[61, 110]),
   midi.NoteOnEvent(tick=46, channel=2, data=[61, 0]),
   midi.NoteOnEvent(tick=2, channel=2, data=[61, 110]),
   midi.NoteOnEvent(tick=0, channel=2, data=[68, 110]),
   midi.NoteOnEvent(tick=94, channel=2, data=[61, 0]),
   midi.NoteOnEvent(tick=0, channel=2, data=[68, 0]),
   midi.NoteOnEvent(tick=2, channel=2, data=[61, 110]),
   midi.NoteOnEvent(tick=46, channel=2, data=[61, 0]),
   midi.NoteOnEvent(tick=2, channel=2, data=[61, 110]),
   midi.NoteOnEvent(tick=46, channel=2, data=[61, 0]),
   midi.NoteOnEvent(tick=2, channel=2, data=[61, 110]),
   midi.NoteOnEvent(tick=46, channel=2, data=[61, 0]),
   midi.NoteOnEvent(tick=2, channel=2, data=[61, 110]),
   midi.NoteOnEvent(tick=46, channel=2, data=[61, 0]),
   midi.NoteOnEvent(tick=2, channel=2, data=[61, 110]),
   midi.NoteOnEvent(tick=46, channel=2, data=[61, 0]),
   midi.NoteOnEvent(tick=2, channel=2, data=[61, 110]),
   midi.NoteOnEvent(tick=46, channel=2, data=[61, 0]),
   midi.NoteOnEvent(tick=2, channel=2, data=[61, 110]),
   midi.NoteOnEvent(tick=94, channel=2, data=[61, 0]),
   midi.NoteOnEvent(tick=2, channel=2, data=[61, 110]),
   midi.NoteOnEvent(tick=46, channel=2, data=[61, 0]),
   midi.NoteOnEvent(tick=2, channel=2, data=[61, 110]),
   midi.NoteOnEvent(tick=46, channel=2, data=[61, 0]),
   midi.NoteOnEvent(tick=2, channel=2, data=[61, 110]),
   midi.NoteOnEvent(tick=46, channel=2, data=[61, 0]),
   midi.NoteOnEvent(tick=2, channel=2, data=[61, 110]),
   midi.NoteOnEvent(tick=46, channel=2, data=[61, 0]),
   midi.NoteOnEvent(tick=2, channel=2, data=[61, 110]),
   midi.NoteOnEvent(tick=46, channel=2, data=[61, 0]),
   midi.NoteOnEvent(tick=2, channel=2, data=[61, 110]),
   midi.NoteOnEvent(tick=46, channel=2, data=[61, 0]),
   midi.NoteOnEvent(tick=2, channel=2, data=[61, 110]),
   midi.NoteOnEvent(tick=0, channel=2, data=[68, 110]),
   midi.NoteOnEvent(tick=94, channel=2, data=[61, 0]),
   midi.NoteOnEvent(tick=0, channel=2, data=[68, 0]),
   midi.NoteOnEvent(tick=2, channel=2, data=[61, 110]),
   midi.NoteOnEvent(tick=46, channel=2, data=[61, 0]),
   midi.NoteOnEvent(tick=2, channel=2, data=[61, 110]),
   midi.NoteOnEvent(tick=46, channel=2, data=[61, 0]),
   midi.NoteOnEvent(tick=2, channel=2, data=[61, 110]),
   midi.NoteOnEvent(tick=46, channel=2, data=[61, 0]),
   midi.NoteOnEvent(tick=2, channel=2, data=[61, 110]),
   midi.NoteOnEvent(tick=46, channel=2, data=[61, 0]),
   midi.NoteOnEvent(tick=2, channel=2, data=[61, 110]),
   midi.NoteOnEvent(tick=46, channel=2, data=[61, 0]),
   midi.NoteOnEvent(tick=2, channel=2, data=[61, 110]),
   midi.NoteOnEvent(tick=46, channel=2, data=[61, 0]),
   midi.NoteOnEvent(tick=2, channel=2, data=[61, 110]),
   midi.NoteOnEvent(tick=94, channel=2, data=[61, 0]),
   midi.NoteOnEvent(tick=2, channel=2, data=[61, 110]),
   midi.NoteOnEvent(tick=46, channel=2, data=[61, 0]),
   midi.NoteOnEvent(tick=2, channel=2, data=[61, 110]),
   midi.NoteOnEvent(tick=46, channel=2, data=[61, 0]),
   midi.NoteOnEvent(tick=2, channel=2, data=[59, 110]),
   midi.NoteOnEvent(tick=0, channel=2, data=[66, 110]),
   midi.NoteOnEvent(tick=94, channel=2, data=[59, 0]),
   midi.NoteOnEvent(tick=0, channel=2, data=[66, 0]),
   midi.NoteOnEvent(tick=2, channel=2, data=[59, 110]),
   midi.NoteOnEvent(tick=46, channel=2, data=[59, 0]),
   midi.NoteOnEvent(tick=2, channel=2, data=[59, 110]),
   midi.NoteOnEvent(tick=46, channel=2, data=[59, 0]),
   midi.NoteOnEvent(tick=2, channel=2, data=[59, 110]),
   midi.NoteOnEvent(tick=46, channel=2, data=[59, 0]),
   midi.NoteOnEvent(tick=2, channel=2, data=[59, 110]),
   midi.NoteOnEvent(tick=46, channel=2, data=[59, 0]),
   midi.NoteOnEvent(tick=2, channel=2, data=[59, 110]),
   midi.NoteOnEvent(tick=46, channel=2, data=[59, 0]),
   midi.NoteOnEvent(tick=2, channel=2, data=[59, 110]),
   midi.NoteOnEvent(tick=46, channel=2, data=[59, 0]),
   midi.NoteOnEvent(tick=2, channel=2, data=[59, 110]),
   midi.NoteOnEvent(tick=94, channel=2, data=[59, 0]),
   midi.NoteOnEvent(tick=2, channel=2, data=[59, 110]),
   midi.NoteOnEvent(tick=46, channel=2, data=[59, 0]),
   midi.NoteOnEvent(tick=2, channel=2, data=[59, 110]),
   midi.NoteOnEvent(tick=46, channel=2, data=[59, 0]),
   midi.NoteOnEvent(tick=2, channel=2, data=[61, 110]),
   midi.NoteOnEvent(tick=0, channel=2, data=[68, 110]),
   midi.NoteOnEvent(tick=94, channel=2, data=[61, 0]),
   midi.NoteOnEvent(tick=0, channel=2, data=[68, 0]),
   midi.NoteOnEvent(tick=2, channel=2, data=[61, 110]),
   midi.NoteOnEvent(tick=46, channel=2, data=[61, 0]),
   midi.NoteOnEvent(tick=2, channel=2, data=[61, 110]),
   midi.NoteOnEvent(tick=46, channel=2, data=[61, 0]),
   midi.NoteOnEvent(tick=2, channel=2, data=[61, 110]),
   midi.NoteOnEvent(tick=46, channel=2, data=[61, 0]),
   midi.NoteOnEvent(tick=2, channel=2, data=[61, 110]),
   midi.NoteOnEvent(tick=46, channel=2, data=[61, 0]),
   midi.NoteOnEvent(tick=2, channel=2, data=[61, 110]),
   midi.NoteOnEvent(tick=46, channel=2, data=[61, 0]),
   midi.NoteOnEvent(tick=2, channel=2, data=[61, 110]),
   midi.NoteOnEvent(tick=46, channel=2, data=[61, 0]),
   midi.NoteOnEvent(tick=2, channel=2, data=[61, 110]),
   midi.NoteOnEvent(tick=94, channel=2, data=[61, 0]),
   midi.NoteOnEvent(tick=2, channel=2, data=[61, 110]),
   midi.NoteOnEvent(tick=46, channel=2, data=[61, 0]),
   midi.NoteOnEvent(tick=2, channel=2, data=[61, 110]),
   midi.NoteOnEvent(tick=46, channel=2, data=[61, 0]),
   midi.NoteOnEvent(tick=2, channel=2, data=[61, 110]),
   midi.NoteOnEvent(tick=46, channel=2, data=[61, 0]),
   midi.NoteOnEvent(tick=2, channel=2, data=[61, 110]),
   midi.NoteOnEvent(tick=46, channel=2, data=[61, 0]),
   midi.NoteOnEvent(tick=2, channel=2, data=[61, 110]),
   midi.NoteOnEvent(tick=46, channel=2, data=[61, 0]),
   midi.NoteOnEvent(tick=2, channel=2, data=[61, 110]),
   midi.NoteOnEvent(tick=46, channel=2, data=[61, 0]),
   midi.NoteOnEvent(tick=2, channel=2, data=[61, 110]),
   midi.NoteOnEvent(tick=0, channel=2, data=[68, 110]),
   midi.NoteOnEvent(tick=94, channel=2, data=[61, 0]),
   midi.NoteOnEvent(tick=0, channel=2, data=[68, 0]),
   midi.NoteOnEvent(tick=2, channel=2, data=[61, 110]),
   midi.NoteOnEvent(tick=46, channel=2, data=[61, 0]),
   midi.NoteOnEvent(tick=2, channel=2, data=[61, 110]),
   midi.NoteOnEvent(tick=46, channel=2, data=[61, 0]),
   midi.NoteOnEvent(tick=2, channel=2, data=[61, 110]),
   midi.NoteOnEvent(tick=46, channel=2, data=[61, 0]),
   midi.NoteOnEvent(tick=2, channel=2, data=[61, 110]),
   midi.NoteOnEvent(tick=46, channel=2, data=[61, 0]),
   midi.NoteOnEvent(tick=2, channel=2, data=[61, 110]),
   midi.NoteOnEvent(tick=46, channel=2, data=[61, 0]),
   midi.NoteOnEvent(tick=2, channel=2, data=[61, 110]),
   midi.NoteOnEvent(tick=46, channel=2, data=[61, 0]),
   midi.NoteOnEvent(tick=2, channel=2, data=[61, 110]),
   midi.NoteOnEvent(tick=94, channel=2, data=[61, 0]),
   midi.NoteOnEvent(tick=2, channel=2, data=[61, 110]),
   midi.NoteOnEvent(tick=46, channel=2, data=[61, 0]),
   midi.NoteOnEvent(tick=2, channel=2, data=[61, 110]),
   midi.NoteOnEvent(tick=46, channel=2, data=[61, 0]),
   midi.NoteOnEvent(tick=2, channel=2, data=[61, 110]),
   midi.NoteOnEvent(tick=46, channel=2, data=[61, 0]),
   midi.NoteOnEvent(tick=2, channel=2, data=[61, 110]),
   midi.NoteOnEvent(tick=46, channel=2, data=[61, 0]),
   midi.NoteOnEvent(tick=2, channel=2, data=[61, 110]),
   midi.NoteOnEvent(tick=46, channel=2, data=[61, 0]),
   midi.NoteOnEvent(tick=2, channel=2, data=[61, 110]),
   midi.NoteOnEvent(tick=46, channel=2, data=[61, 0]),
   midi.NoteOnEvent(tick=2, channel=2, data=[61, 110]),
   midi.NoteOnEvent(tick=0, channel=2, data=[68, 110]),
   midi.NoteOnEvent(tick=94, channel=2, data=[61, 0]),
   midi.NoteOnEvent(tick=0, channel=2, data=[68, 0]),
   midi.NoteOnEvent(tick=2, channel=2, data=[61, 110]),
   midi.NoteOnEvent(tick=46, channel=2, data=[61, 0]),
   midi.NoteOnEvent(tick=2, channel=2, data=[61, 110]),
   midi.NoteOnEvent(tick=46, channel=2, data=[61, 0]),
   midi.NoteOnEvent(tick=2, channel=2, data=[61, 110]),
   midi.NoteOnEvent(tick=46, channel=2, data=[61, 0]),
   midi.NoteOnEvent(tick=2, channel=2, data=[61, 110]),
   midi.NoteOnEvent(tick=46, channel=2, data=[61, 0]),
   midi.NoteOnEvent(tick=2, channel=2, data=[61, 110]),
   midi.NoteOnEvent(tick=46, channel=2, data=[61, 0]),
   midi.NoteOnEvent(tick=2, channel=2, data=[61, 110]),
   midi.NoteOnEvent(tick=46, channel=2, data=[61, 0]),
   midi.NoteOnEvent(tick=2, channel=2, data=[61, 110]),
   midi.NoteOnEvent(tick=94, channel=2, data=[61, 0]),
   midi.NoteOnEvent(tick=2, channel=2, data=[61, 110]),
   midi.NoteOnEvent(tick=46, channel=2, data=[61, 0]),
   midi.NoteOnEvent(tick=2, channel=2, data=[61, 110]),
   midi.NoteOnEvent(tick=46, channel=2, data=[61, 0]),
   midi.NoteOnEvent(tick=2, channel=2, data=[59, 110]),
   midi.NoteOnEvent(tick=0, channel=2, data=[66, 110]),
   midi.NoteOnEvent(tick=94, channel=2, data=[59, 0]),
   midi.NoteOnEvent(tick=0, channel=2, data=[66, 0]),
   midi.NoteOnEvent(tick=2, channel=2, data=[59, 110]),
   midi.NoteOnEvent(tick=46, channel=2, data=[59, 0]),
   midi.NoteOnEvent(tick=2, channel=2, data=[59, 110]),
   midi.NoteOnEvent(tick=46, channel=2, data=[59, 0]),
   midi.NoteOnEvent(tick=2, channel=2, data=[59, 110]),
   midi.NoteOnEvent(tick=46, channel=2, data=[59, 0]),
   midi.NoteOnEvent(tick=2, channel=2, data=[59, 110]),
   midi.NoteOnEvent(tick=46, channel=2, data=[59, 0]),
   midi.NoteOnEvent(tick=2, channel=2, data=[59, 110]),
   midi.NoteOnEvent(tick=46, channel=2, data=[59, 0]),
   midi.NoteOnEvent(tick=2, channel=2, data=[59, 110]),
   midi.NoteOnEvent(tick=46, channel=2, data=[59, 0]),
   midi.NoteOnEvent(tick=2, channel=2, data=[59, 110]),
   midi.NoteOnEvent(tick=94, channel=2, data=[59, 0]),
   midi.NoteOnEvent(tick=2, channel=2, data=[59, 110]),
   midi.NoteOnEvent(tick=46, channel=2, data=[59, 0]),
   midi.NoteOnEvent(tick=2, channel=2, data=[59, 110]),
   midi.NoteOnEvent(tick=46, channel=2, data=[59, 0]),
   midi.NoteOnEvent(tick=2, channel=2, data=[61, 110]),
   midi.NoteOnEvent(tick=0, channel=2, data=[68, 110]),
   midi.NoteOnEvent(tick=94, channel=2, data=[61, 0]),
   midi.NoteOnEvent(tick=0, channel=2, data=[68, 0]),
   midi.NoteOnEvent(tick=2, channel=2, data=[61, 110]),
   midi.NoteOnEvent(tick=46, channel=2, data=[61, 0]),
   midi.NoteOnEvent(tick=2, channel=2, data=[61, 110]),
   midi.NoteOnEvent(tick=46, channel=2, data=[61, 0]),
   midi.NoteOnEvent(tick=2, channel=2, data=[61, 110]),
   midi.NoteOnEvent(tick=46, channel=2, data=[61, 0]),
   midi.NoteOnEvent(tick=2, channel=2, data=[61, 110]),
   midi.NoteOnEvent(tick=46, channel=2, data=[61, 0]),
   midi.NoteOnEvent(tick=2, channel=2, data=[61, 110]),
   midi.NoteOnEvent(tick=46, channel=2, data=[61, 0]),
   midi.NoteOnEvent(tick=2, channel=2, data=[61, 110]),
   midi.NoteOnEvent(tick=46, channel=2, data=[61, 0]),
   midi.NoteOnEvent(tick=2, channel=2, data=[61, 110]),
   midi.NoteOnEvent(tick=94, channel=2, data=[61, 0]),
   midi.NoteOnEvent(tick=2, channel=2, data=[61, 110]),
   midi.NoteOnEvent(tick=46, channel=2, data=[61, 0]),
   midi.NoteOnEvent(tick=2, channel=2, data=[61, 110]),
   midi.NoteOnEvent(tick=46, channel=2, data=[61, 0]),
   midi.NoteOnEvent(tick=2, channel=2, data=[61, 110]),
   midi.NoteOnEvent(tick=46, channel=2, data=[61, 0]),
   midi.NoteOnEvent(tick=2, channel=2, data=[61, 110]),
   midi.NoteOnEvent(tick=46, channel=2, data=[61, 0]),
   midi.NoteOnEvent(tick=2, channel=2, data=[61, 110]),
   midi.NoteOnEvent(tick=46, channel=2, data=[61, 0]),
   midi.NoteOnEvent(tick=2, channel=2, data=[61, 110]),
   midi.NoteOnEvent(tick=46, channel=2, data=[61, 0]),
   midi.NoteOnEvent(tick=2, channel=2, data=[61, 110]),
   midi.NoteOnEvent(tick=0, channel=2, data=[68, 110]),
   midi.NoteOnEvent(tick=94, channel=2, data=[61, 0]),
   midi.NoteOnEvent(tick=0, channel=2, data=[68, 0]),
   midi.NoteOnEvent(tick=2, channel=2, data=[61, 110]),
   midi.NoteOnEvent(tick=46, channel=2, data=[61, 0]),
   midi.NoteOnEvent(tick=2, channel=2, data=[61, 110]),
   midi.NoteOnEvent(tick=46, channel=2, data=[61, 0]),
   midi.NoteOnEvent(tick=2, channel=2, data=[61, 110]),
   midi.NoteOnEvent(tick=46, channel=2, data=[61, 0]),
   midi.NoteOnEvent(tick=2, channel=2, data=[61, 110]),
   midi.NoteOnEvent(tick=46, channel=2, data=[61, 0]),
   midi.NoteOnEvent(tick=2, channel=2, data=[61, 110]),
   midi.NoteOnEvent(tick=46, channel=2, data=[61, 0]),
   midi.NoteOnEvent(tick=2, channel=2, data=[61, 110]),
   midi.NoteOnEvent(tick=46, channel=2, data=[61, 0]),
   midi.NoteOnEvent(tick=2, channel=2, data=[61, 110]),
   midi.NoteOnEvent(tick=94, channel=2, data=[61, 0]),
   midi.NoteOnEvent(tick=2, channel=2, data=[61, 110]),
   midi.NoteOnEvent(tick=46, channel=2, data=[61, 0]),
   midi.NoteOnEvent(tick=2, channel=2, data=[61, 110]),
   midi.NoteOnEvent(tick=46, channel=2, data=[61, 0]),
   midi.NoteOnEvent(tick=2, channel=2, data=[61, 110]),
   midi.NoteOnEvent(tick=46, channel=2, data=[61, 0]),
   midi.NoteOnEvent(tick=2, channel=2, data=[61, 110]),
   midi.NoteOnEvent(tick=46, channel=2, data=[61, 0]),
   midi.NoteOnEvent(tick=2, channel=2, data=[61, 110]),
   midi.NoteOnEvent(tick=46, channel=2, data=[61, 0]),
   midi.NoteOnEvent(tick=2, channel=2, data=[61, 110]),
   midi.NoteOnEvent(tick=46, channel=2, data=[61, 0]),
   midi.NoteOnEvent(tick=2, channel=2, data=[61, 110]),
   midi.NoteOnEvent(tick=0, channel=2, data=[68, 110]),
   midi.NoteOnEvent(tick=94, channel=2, data=[61, 0]),
   midi.NoteOnEvent(tick=0, channel=2, data=[68, 0]),
   midi.NoteOnEvent(tick=2, channel=2, data=[61, 110]),
   midi.NoteOnEvent(tick=46, channel=2, data=[61, 0]),
   midi.NoteOnEvent(tick=2, channel=2, data=[61, 110]),
   midi.NoteOnEvent(tick=46, channel=2, data=[61, 0]),
   midi.NoteOnEvent(tick=2, channel=2, data=[61, 110]),
   midi.NoteOnEvent(tick=46, channel=2, data=[61, 0]),
   midi.NoteOnEvent(tick=2, channel=2, data=[61, 110]),
   midi.NoteOnEvent(tick=46, channel=2, data=[61, 0]),
   midi.NoteOnEvent(tick=2, channel=2, data=[61, 110]),
   midi.NoteOnEvent(tick=46, channel=2, data=[61, 0]),
   midi.NoteOnEvent(tick=2, channel=2, data=[61, 110]),
   midi.NoteOnEvent(tick=46, channel=2, data=[61, 0]),
   midi.NoteOnEvent(tick=2, channel=2, data=[61, 110]),
   midi.NoteOnEvent(tick=94, channel=2, data=[61, 0]),
   midi.NoteOnEvent(tick=2, channel=2, data=[61, 110]),
   midi.NoteOnEvent(tick=46, channel=2, data=[61, 0]),
   midi.NoteOnEvent(tick=2, channel=2, data=[61, 110]),
   midi.NoteOnEvent(tick=46, channel=2, data=[61, 0]),
   midi.NoteOnEvent(tick=2, channel=2, data=[59, 110]),
   midi.NoteOnEvent(tick=0, channel=2, data=[66, 110]),
   midi.NoteOnEvent(tick=94, channel=2, data=[59, 0]),
   midi.NoteOnEvent(tick=0, channel=2, data=[66, 0]),
   midi.NoteOnEvent(tick=2, channel=2, data=[59, 110]),
   midi.NoteOnEvent(tick=46, channel=2, data=[59, 0]),
   midi.NoteOnEvent(tick=2, channel=2, data=[59, 110]),
   midi.NoteOnEvent(tick=46, channel=2, data=[59, 0]),
   midi.NoteOnEvent(tick=2, channel=2, data=[59, 110]),
   midi.NoteOnEvent(tick=46, channel=2, data=[59, 0]),
   midi.NoteOnEvent(tick=2, channel=2, data=[59, 110]),
   midi.NoteOnEvent(tick=46, channel=2, data=[59, 0]),
   midi.NoteOnEvent(tick=2, channel=2, data=[59, 110]),
   midi.NoteOnEvent(tick=46, channel=2, data=[59, 0]),
   midi.NoteOnEvent(tick=2, channel=2, data=[59, 110]),
   midi.NoteOnEvent(tick=46, channel=2, data=[59, 0]),
   midi.NoteOnEvent(tick=2, channel=2, data=[59, 110]),
   midi.NoteOnEvent(tick=94, channel=2, data=[59, 0]),
   midi.NoteOnEvent(tick=2, channel=2, data=[59, 110]),
   midi.NoteOnEvent(tick=46, channel=2, data=[59, 0]),
   midi.NoteOnEvent(tick=2, channel=2, data=[59, 110]),
   midi.NoteOnEvent(tick=46, channel=2, data=[59, 0]),
   midi.NoteOnEvent(tick=2, channel=2, data=[59, 110]),
   midi.NoteOnEvent(tick=0, channel=2, data=[66, 110]),
   midi.NoteOnEvent(tick=94, channel=2, data=[59, 0]),
   midi.NoteOnEvent(tick=0, channel=2, data=[66, 0]),
   midi.NoteOnEvent(tick=2, channel=2, data=[59, 110]),
   midi.NoteOnEvent(tick=46, channel=2, data=[59, 0]),
   midi.NoteOnEvent(tick=2, channel=2, data=[59, 110]),
   midi.NoteOnEvent(tick=46, channel=2, data=[59, 0]),
   midi.NoteOnEvent(tick=2, channel=2, data=[59, 110]),
   midi.NoteOnEvent(tick=46, channel=2, data=[59, 0]),
   midi.NoteOnEvent(tick=2, channel=2, data=[59, 110]),
   midi.NoteOnEvent(tick=46, channel=2, data=[59, 0]),
   midi.NoteOnEvent(tick=2, channel=2, data=[59, 110]),
   midi.NoteOnEvent(tick=46, channel=2, data=[59, 0]),
   midi.NoteOnEvent(tick=2, channel=2, data=[59, 110]),
   midi.NoteOnEvent(tick=46, channel=2, data=[59, 0]),
   midi.NoteOnEvent(tick=2, channel=2, data=[59, 110]),
   midi.NoteOnEvent(tick=94, channel=2, data=[59, 0]),
   midi.NoteOnEvent(tick=2, channel=2, data=[59, 110]),
   midi.NoteOnEvent(tick=46, channel=2, data=[59, 0]),
   midi.NoteOnEvent(tick=2, channel=2, data=[59, 110]),
   midi.NoteOnEvent(tick=46, channel=2, data=[59, 0]),
   midi.NoteOnEvent(tick=2, channel=2, data=[59, 110]),
   midi.NoteOnEvent(tick=46, channel=2, data=[59, 0]),
   midi.NoteOnEvent(tick=2, channel=2, data=[59, 110]),
   midi.NoteOnEvent(tick=46, channel=2, data=[59, 0]),
   midi.NoteOnEvent(tick=2, channel=2, data=[59, 110]),
   midi.NoteOnEvent(tick=46, channel=2, data=[59, 0]),
   midi.NoteOnEvent(tick=2, channel=2, data=[59, 110]),
   midi.NoteOnEvent(tick=46, channel=2, data=[59, 0]),
   midi.NoteOnEvent(tick=2, channel=2, data=[59, 110]),
   midi.NoteOnEvent(tick=0, channel=2, data=[66, 110]),
   midi.NoteOnEvent(tick=94, channel=2, data=[59, 0]),
   midi.NoteOnEvent(tick=0, channel=2, data=[66, 0]),
   midi.NoteOnEvent(tick=2, channel=2, data=[59, 110]),
   midi.NoteOnEvent(tick=46, channel=2, data=[59, 0]),
   midi.NoteOnEvent(tick=2, channel=2, data=[59, 110]),
   midi.NoteOnEvent(tick=46, channel=2, data=[59, 0]),
   midi.NoteOnEvent(tick=2, channel=2, data=[59, 110]),
   midi.NoteOnEvent(tick=46, channel=2, data=[59, 0]),
   midi.NoteOnEvent(tick=2, channel=2, data=[59, 110]),
   midi.NoteOnEvent(tick=46, channel=2, data=[59, 0]),
   midi.NoteOnEvent(tick=2, channel=2, data=[59, 110]),
   midi.NoteOnEvent(tick=46, channel=2, data=[59, 0]),
   midi.NoteOnEvent(tick=2, channel=2, data=[59, 110]),
   midi.NoteOnEvent(tick=46, channel=2, data=[59, 0]),
   midi.NoteOnEvent(tick=2, channel=2, data=[59, 110]),
   midi.NoteOnEvent(tick=94, channel=2, data=[59, 0]),
   midi.NoteOnEvent(tick=2, channel=2, data=[59, 110]),
   midi.NoteOnEvent(tick=46, channel=2, data=[59, 0]),
   midi.NoteOnEvent(tick=2, channel=2, data=[59, 110]),
   midi.NoteOnEvent(tick=46, channel=2, data=[59, 0]),
   midi.NoteOnEvent(tick=2, channel=2, data=[59, 110]),
   midi.NoteOnEvent(tick=46, channel=2, data=[59, 0]),
   midi.NoteOnEvent(tick=2, channel=2, data=[59, 110]),
   midi.NoteOnEvent(tick=46, channel=2, data=[59, 0]),
   midi.NoteOnEvent(tick=2, channel=2, data=[59, 110]),
   midi.NoteOnEvent(tick=46, channel=2, data=[59, 0]),
   midi.NoteOnEvent(tick=2, channel=2, data=[59, 110]),
   midi.NoteOnEvent(tick=46, channel=2, data=[59, 0]),
   midi.NoteOnEvent(tick=2, channel=2, data=[59, 110]),
   midi.NoteOnEvent(tick=0, channel=2, data=[66, 110]),
   midi.NoteOnEvent(tick=94, channel=2, data=[59, 0]),
   midi.NoteOnEvent(tick=0, channel=2, data=[66, 0]),
   midi.NoteOnEvent(tick=2, channel=2, data=[59, 110]),
   midi.NoteOnEvent(tick=46, channel=2, data=[59, 0]),
   midi.NoteOnEvent(tick=2, channel=2, data=[59, 110]),
   midi.NoteOnEvent(tick=46, channel=2, data=[59, 0]),
   midi.NoteOnEvent(tick=2, channel=2, data=[59, 110]),
   midi.NoteOnEvent(tick=46, channel=2, data=[59, 0]),
   midi.NoteOnEvent(tick=2, channel=2, data=[59, 110]),
   midi.NoteOnEvent(tick=46, channel=2, data=[59, 0]),
   midi.NoteOnEvent(tick=2, channel=2, data=[59, 110]),
   midi.NoteOnEvent(tick=46, channel=2, data=[59, 0]),
   midi.NoteOnEvent(tick=2, channel=2, data=[59, 110]),
   midi.NoteOnEvent(tick=46, channel=2, data=[59, 0]),
   midi.NoteOnEvent(tick=2, channel=2, data=[59, 110]),
   midi.NoteOnEvent(tick=94, channel=2, data=[59, 0]),
   midi.NoteOnEvent(tick=2, channel=2, data=[59, 110]),
   midi.NoteOnEvent(tick=46, channel=2, data=[59, 0]),
   midi.NoteOnEvent(tick=2, channel=2, data=[59, 110]),
   midi.NoteOnEvent(tick=46, channel=2, data=[59, 0]),
   midi.NoteOnEvent(tick=2, channel=2, data=[57, 110]),
   midi.NoteOnEvent(tick=0, channel=2, data=[64, 110]),
   midi.NoteOnEvent(tick=94, channel=2, data=[57, 0]),
   midi.NoteOnEvent(tick=0, channel=2, data=[64, 0]),
   midi.NoteOnEvent(tick=2, channel=2, data=[57, 110]),
   midi.NoteOnEvent(tick=46, channel=2, data=[57, 0]),
   midi.NoteOnEvent(tick=2, channel=2, data=[57, 110]),
   midi.NoteOnEvent(tick=46, channel=2, data=[57, 0]),
   midi.NoteOnEvent(tick=2, channel=2, data=[57, 110]),
   midi.NoteOnEvent(tick=46, channel=2, data=[57, 0]),
   midi.NoteOnEvent(tick=2, channel=2, data=[57, 110]),
   midi.NoteOnEvent(tick=46, channel=2, data=[57, 0]),
   midi.NoteOnEvent(tick=2, channel=2, data=[57, 110]),
   midi.NoteOnEvent(tick=46, channel=2, data=[57, 0]),
   midi.NoteOnEvent(tick=2, channel=2, data=[57, 110]),
   midi.NoteOnEvent(tick=46, channel=2, data=[57, 0]),
   midi.NoteOnEvent(tick=2, channel=2, data=[57, 110]),
   midi.NoteOnEvent(tick=94, channel=2, data=[57, 0]),
   midi.NoteOnEvent(tick=2, channel=2, data=[57, 110]),
   midi.NoteOnEvent(tick=46, channel=2, data=[57, 0]),
   midi.NoteOnEvent(tick=2, channel=2, data=[57, 110]),
   midi.NoteOnEvent(tick=46, channel=2, data=[57, 0]),
   midi.NoteOnEvent(tick=2, channel=2, data=[59, 110]),
   midi.NoteOnEvent(tick=0, channel=2, data=[66, 110]),
   midi.NoteOnEvent(tick=94, channel=2, data=[59, 0]),
   midi.NoteOnEvent(tick=0, channel=2, data=[66, 0]),
   midi.NoteOnEvent(tick=2, channel=2, data=[59, 110]),
   midi.NoteOnEvent(tick=46, channel=2, data=[59, 0]),
   midi.NoteOnEvent(tick=2, channel=2, data=[59, 110]),
   midi.NoteOnEvent(tick=46, channel=2, data=[59, 0]),
   midi.NoteOnEvent(tick=2, channel=2, data=[59, 110]),
   midi.NoteOnEvent(tick=46, channel=2, data=[59, 0]),
   midi.NoteOnEvent(tick=2, channel=2, data=[59, 110]),
   midi.NoteOnEvent(tick=46, channel=2, data=[59, 0]),
   midi.NoteOnEvent(tick=2, channel=2, data=[59, 110]),
   midi.NoteOnEvent(tick=46, channel=2, data=[59, 0]),
   midi.NoteOnEvent(tick=2, channel=2, data=[59, 110]),
   midi.NoteOnEvent(tick=46, channel=2, data=[59, 0]),
   midi.NoteOnEvent(tick=2, channel=2, data=[59, 110]),
   midi.NoteOnEvent(tick=94, channel=2, data=[59, 0]),
   midi.NoteOnEvent(tick=2, channel=2, data=[59, 110]),
   midi.NoteOnEvent(tick=46, channel=2, data=[59, 0]),
   midi.NoteOnEvent(tick=2, channel=2, data=[59, 110]),
   midi.NoteOnEvent(tick=46, channel=2, data=[59, 0]),
   midi.NoteOnEvent(tick=2, channel=2, data=[59, 110]),
   midi.NoteOnEvent(tick=46, channel=2, data=[59, 0]),
   midi.NoteOnEvent(tick=2, channel=2, data=[59, 110]),
   midi.NoteOnEvent(tick=46, channel=2, data=[59, 0]),
   midi.NoteOnEvent(tick=2, channel=2, data=[59, 110]),
   midi.NoteOnEvent(tick=46, channel=2, data=[59, 0]),
   midi.NoteOnEvent(tick=2, channel=2, data=[59, 110]),
   midi.NoteOnEvent(tick=46, channel=2, data=[59, 0]),
   midi.NoteOnEvent(tick=2, channel=2, data=[59, 110]),
   midi.NoteOnEvent(tick=0, channel=2, data=[66, 110]),
   midi.NoteOnEvent(tick=94, channel=2, data=[59, 0]),
   midi.NoteOnEvent(tick=0, channel=2, data=[66, 0]),
   midi.NoteOnEvent(tick=2, channel=2, data=[59, 110]),
   midi.NoteOnEvent(tick=46, channel=2, data=[59, 0]),
   midi.NoteOnEvent(tick=2, channel=2, data=[59, 110]),
   midi.NoteOnEvent(tick=46, channel=2, data=[59, 0]),
   midi.NoteOnEvent(tick=2, channel=2, data=[59, 110]),
   midi.NoteOnEvent(tick=46, channel=2, data=[59, 0]),
   midi.NoteOnEvent(tick=2, channel=2, data=[59, 110]),
   midi.NoteOnEvent(tick=46, channel=2, data=[59, 0]),
   midi.NoteOnEvent(tick=2, channel=2, data=[59, 110]),
   midi.NoteOnEvent(tick=46, channel=2, data=[59, 0]),
   midi.NoteOnEvent(tick=2, channel=2, data=[59, 110]),
   midi.NoteOnEvent(tick=46, channel=2, data=[59, 0]),
   midi.NoteOnEvent(tick=2, channel=2, data=[59, 110]),
   midi.NoteOnEvent(tick=94, channel=2, data=[59, 0]),
   midi.NoteOnEvent(tick=2, channel=2, data=[59, 110]),
   midi.NoteOnEvent(tick=46, channel=2, data=[59, 0]),
   midi.NoteOnEvent(tick=2, channel=2, data=[59, 110]),
   midi.NoteOnEvent(tick=46, channel=2, data=[59, 0]),
   midi.NoteOnEvent(tick=2, channel=2, data=[59, 110]),
   midi.NoteOnEvent(tick=46, channel=2, data=[59, 0]),
   midi.NoteOnEvent(tick=2, channel=2, data=[59, 110]),
   midi.NoteOnEvent(tick=46, channel=2, data=[59, 0]),
   midi.NoteOnEvent(tick=2, channel=2, data=[59, 110]),
   midi.NoteOnEvent(tick=46, channel=2, data=[59, 0]),
   midi.NoteOnEvent(tick=2, channel=2, data=[59, 110]),
   midi.NoteOnEvent(tick=46, channel=2, data=[59, 0]),
   midi.NoteOnEvent(tick=2, channel=2, data=[59, 110]),
   midi.NoteOnEvent(tick=0, channel=2, data=[66, 110]),
   midi.NoteOnEvent(tick=94, channel=2, data=[59, 0]),
   midi.NoteOnEvent(tick=0, channel=2, data=[66, 0]),
   midi.NoteOnEvent(tick=2, channel=2, data=[59, 110]),
   midi.NoteOnEvent(tick=46, channel=2, data=[59, 0]),
   midi.NoteOnEvent(tick=2, channel=2, data=[59, 110]),
   midi.NoteOnEvent(tick=46, channel=2, data=[59, 0]),
   midi.NoteOnEvent(tick=2, channel=2, data=[59, 110]),
   midi.NoteOnEvent(tick=46, channel=2, data=[59, 0]),
   midi.NoteOnEvent(tick=2, channel=2, data=[59, 110]),
   midi.NoteOnEvent(tick=46, channel=2, data=[59, 0]),
   midi.NoteOnEvent(tick=2, channel=2, data=[59, 110]),
   midi.NoteOnEvent(tick=46, channel=2, data=[59, 0]),
   midi.NoteOnEvent(tick=2, channel=2, data=[59, 110]),
   midi.NoteOnEvent(tick=46, channel=2, data=[59, 0]),
   midi.NoteOnEvent(tick=2, channel=2, data=[59, 110]),
   midi.NoteOnEvent(tick=94, channel=2, data=[59, 0]),
   midi.NoteOnEvent(tick=2, channel=2, data=[59, 110]),
   midi.NoteOnEvent(tick=46, channel=2, data=[59, 0]),
   midi.NoteOnEvent(tick=2, channel=2, data=[59, 110]),
   midi.NoteOnEvent(tick=46, channel=2, data=[59, 0]),
   midi.NoteOnEvent(tick=2, channel=2, data=[57, 110]),
   midi.NoteOnEvent(tick=0, channel=2, data=[64, 110]),
   midi.NoteOnEvent(tick=94, channel=2, data=[57, 0]),
   midi.NoteOnEvent(tick=0, channel=2, data=[64, 0]),
   midi.NoteOnEvent(tick=2, channel=2, data=[57, 110]),
   midi.NoteOnEvent(tick=46, channel=2, data=[57, 0]),
   midi.NoteOnEvent(tick=2, channel=2, data=[57, 110]),
   midi.NoteOnEvent(tick=46, channel=2, data=[57, 0]),
   midi.NoteOnEvent(tick=2, channel=2, data=[57, 110]),
   midi.NoteOnEvent(tick=46, channel=2, data=[57, 0]),
   midi.NoteOnEvent(tick=2, channel=2, data=[57, 110]),
   midi.NoteOnEvent(tick=46, channel=2, data=[57, 0]),
   midi.NoteOnEvent(tick=2, channel=2, data=[57, 110]),
   midi.NoteOnEvent(tick=46, channel=2, data=[57, 0]),
   midi.NoteOnEvent(tick=2, channel=2, data=[57, 110]),
   midi.NoteOnEvent(tick=46, channel=2, data=[57, 0]),
   midi.NoteOnEvent(tick=2, channel=2, data=[57, 110]),
   midi.NoteOnEvent(tick=94, channel=2, data=[57, 0]),
   midi.NoteOnEvent(tick=2, channel=2, data=[57, 110]),
   midi.NoteOnEvent(tick=46, channel=2, data=[57, 0]),
   midi.NoteOnEvent(tick=2, channel=2, data=[57, 110]),
   midi.NoteOnEvent(tick=46, channel=2, data=[57, 0]),
   midi.NoteOnEvent(tick=2, channel=2, data=[59, 110]),
   midi.NoteOnEvent(tick=0, channel=2, data=[66, 110]),
   midi.NoteOnEvent(tick=0, channel=2, data=[71, 110]),
   midi.NoteOnEvent(tick=126, channel=2, data=[59, 0]),
   midi.NoteOnEvent(tick=0, channel=2, data=[66, 0]),
   midi.NoteOnEvent(tick=0, channel=2, data=[71, 0]),
   midi.NoteOnEvent(tick=2, channel=2, data=[58, 110]),
   midi.NoteOnEvent(tick=0, channel=2, data=[65, 110]),
   midi.NoteOnEvent(tick=0, channel=2, data=[70, 110]),
   midi.NoteOnEvent(tick=126, channel=2, data=[58, 0]),
   midi.NoteOnEvent(tick=0, channel=2, data=[65, 0]),
   midi.NoteOnEvent(tick=0, channel=2, data=[70, 0]),
   midi.NoteOnEvent(tick=2, channel=2, data=[59, 110]),
   midi.NoteOnEvent(tick=0, channel=2, data=[66, 110]),
   midi.NoteOnEvent(tick=0, channel=2, data=[71, 110]),
   midi.NoteOnEvent(tick=126, channel=2, data=[59, 0]),
   midi.NoteOnEvent(tick=0, channel=2, data=[66, 0]),
   midi.NoteOnEvent(tick=0, channel=2, data=[71, 0]),
   midi.NoteOnEvent(tick=2, channel=2, data=[60, 110]),
   midi.NoteOnEvent(tick=0, channel=2, data=[67, 110]),
   midi.NoteOnEvent(tick=0, channel=2, data=[72, 110]),
   midi.NoteOnEvent(tick=160, channel=2, data=[60, 0]),
   midi.NoteOnEvent(tick=0, channel=2, data=[67, 0]),
   midi.NoteOnEvent(tick=0, channel=2, data=[72, 0]),
   midi.NoteOnEvent(tick=32, channel=2, data=[59, 110]),
   midi.NoteOnEvent(tick=0, channel=2, data=[66, 110]),
   midi.NoteOnEvent(tick=0, channel=2, data=[71, 110]),
   midi.NoteOnEvent(tick=160, channel=2, data=[59, 0]),
   midi.NoteOnEvent(tick=0, channel=2, data=[66, 0]),
   midi.NoteOnEvent(tick=0, channel=2, data=[71, 0]),
   midi.NoteOnEvent(tick=32, channel=2, data=[52, 110]),
   midi.NoteOnEvent(tick=0, channel=2, data=[64, 110]),
   midi.NoteOnEvent(tick=0, channel=2, data=[71, 110]),
   midi.NoteOnEvent(tick=0, channel=2, data=[76, 110]),
   midi.NoteOnEvent(tick=94, channel=2, data=[52, 0]),
   midi.NoteOnEvent(tick=0, channel=2, data=[64, 0]),
   midi.NoteOnEvent(tick=0, channel=2, data=[71, 0]),
   midi.NoteOnEvent(tick=0, channel=2, data=[76, 0]),
   midi.NoteOnEvent(tick=2, channel=2, data=[52, 110]),
   midi.NoteOnEvent(tick=46, channel=2, data=[52, 0]),
   midi.NoteOnEvent(tick=2, channel=2, data=[52, 110]),
   midi.NoteOnEvent(tick=46, channel=2, data=[52, 0]),
   midi.NoteOnEvent(tick=2, channel=2, data=[52, 110]),
   midi.NoteOnEvent(tick=94, channel=2, data=[52, 0]),
   midi.NoteOnEvent(tick=2, channel=2, data=[52, 110]),
   midi.NoteOnEvent(tick=94, channel=2, data=[52, 0]),
   midi.NoteOnEvent(tick=2, channel=2, data=[52, 110]),
   midi.NoteOnEvent(tick=94, channel=2, data=[52, 0]),
   midi.NoteOnEvent(tick=2, channel=2, data=[52, 110]),
   midi.NoteOnEvent(tick=94, channel=2, data=[52, 0]),
   midi.NoteOnEvent(tick=2, channel=2, data=[52, 110]),
   midi.NoteOnEvent(tick=94, channel=2, data=[52, 0]),
   midi.NoteOnEvent(tick=2, channel=2, data=[55, 110]),
   midi.NoteOnEvent(tick=0, channel=2, data=[62, 110]),
   midi.NoteOnEvent(tick=0, channel=2, data=[67, 110]),
   midi.NoteOnEvent(tick=574, channel=2, data=[55, 0]),
   midi.NoteOnEvent(tick=0, channel=2, data=[62, 0]),
   midi.NoteOnEvent(tick=0, channel=2, data=[67, 0]),
   midi.NoteOnEvent(tick=2, channel=2, data=[58, 110]),
   midi.NoteOnEvent(tick=0, channel=2, data=[65, 110]),
   midi.NoteOnEvent(tick=0, channel=2, data=[70, 110]),
   midi.NoteOnEvent(tick=160, channel=2, data=[58, 0]),
   midi.NoteOnEvent(tick=0, channel=2, data=[65, 0]),
   midi.NoteOnEvent(tick=0, channel=2, data=[70, 0]),
   midi.NoteOnEvent(tick=32, channel=2, data=[54, 110]),
   midi.NoteOnEvent(tick=0, channel=2, data=[61, 110]),
   midi.NoteOnEvent(tick=0, channel=2, data=[66, 110]),
   midi.NoteOnEvent(tick=574, channel=2, data=[54, 0]),
   midi.NoteOnEvent(tick=0, channel=2, data=[61, 0]),
   midi.NoteOnEvent(tick=0, channel=2, data=[66, 0]),
   midi.NoteOnEvent(tick=2, channel=2, data=[57, 110]),
   midi.NoteOnEvent(tick=0, channel=2, data=[64, 110]),
   midi.NoteOnEvent(tick=0, channel=2, data=[69, 110]),
   midi.NoteOnEvent(tick=160, channel=2, data=[57, 0]),
   midi.NoteOnEvent(tick=0, channel=2, data=[64, 0]),
   midi.NoteOnEvent(tick=0, channel=2, data=[69, 0]),
   midi.NoteOnEvent(tick=32, channel=2, data=[53, 110]),
   midi.NoteOnEvent(tick=0, channel=2, data=[60, 110]),
   midi.NoteOnEvent(tick=0, channel=2, data=[65, 110]),
   midi.NoteOnEvent(tick=574, channel=2, data=[53, 0]),
   midi.NoteOnEvent(tick=0, channel=2, data=[60, 0]),
   midi.NoteOnEvent(tick=0, channel=2, data=[65, 0]),
   midi.NoteOnEvent(tick=2, channel=2, data=[55, 110]),
   midi.NoteOnEvent(tick=0, channel=2, data=[62, 110]),
   midi.NoteOnEvent(tick=0, channel=2, data=[67, 110]),
   midi.NoteOnEvent(tick=256, channel=2, data=[55, 0]),
   midi.NoteOnEvent(tick=0, channel=2, data=[62, 0]),
   midi.NoteOnEvent(tick=0, channel=2, data=[67, 0]),
   midi.NoteOnEvent(tick=32, channel=2, data=[52, 110]),
   midi.NoteOnEvent(tick=94, channel=2, data=[52, 0]),
   midi.NoteOnEvent(tick=2, channel=2, data=[52, 110]),
   midi.NoteOnEvent(tick=46, channel=2, data=[52, 0]),
   midi.NoteOnEvent(tick=2, channel=2, data=[52, 110]),
   midi.NoteOnEvent(tick=46, channel=2, data=[52, 0]),
   midi.NoteOnEvent(tick=2, channel=2, data=[52, 110]),
   midi.NoteOnEvent(tick=94, channel=2, data=[52, 0]),
   midi.NoteOnEvent(tick=2, channel=2, data=[52, 110]),
   midi.NoteOnEvent(tick=94, channel=2, data=[52, 0]),
   midi.NoteOnEvent(tick=2, channel=2, data=[52, 110]),
   midi.NoteOnEvent(tick=94, channel=2, data=[52, 0]),
   midi.NoteOnEvent(tick=2, channel=2, data=[52, 110]),
   midi.NoteOnEvent(tick=94, channel=2, data=[52, 0]),
   midi.NoteOnEvent(tick=2, channel=2, data=[52, 110]),
   midi.NoteOnEvent(tick=94, channel=2, data=[52, 0]),
   midi.NoteOnEvent(tick=2, channel=2, data=[55, 110]),
   midi.NoteOnEvent(tick=0, channel=2, data=[62, 110]),
   midi.NoteOnEvent(tick=0, channel=2, data=[67, 110]),
   midi.NoteOnEvent(tick=574, channel=2, data=[55, 0]),
   midi.NoteOnEvent(tick=0, channel=2, data=[62, 0]),
   midi.NoteOnEvent(tick=0, channel=2, data=[67, 0]),
   midi.NoteOnEvent(tick=2, channel=2, data=[58, 110]),
   midi.NoteOnEvent(tick=0, channel=2, data=[65, 110]),
   midi.NoteOnEvent(tick=0, channel=2, data=[70, 110]),
   midi.NoteOnEvent(tick=160, channel=2, data=[58, 0]),
   midi.NoteOnEvent(tick=0, channel=2, data=[65, 0]),
   midi.NoteOnEvent(tick=0, channel=2, data=[70, 0]),
   midi.NoteOnEvent(tick=32, channel=2, data=[54, 110]),
   midi.NoteOnEvent(tick=0, channel=2, data=[61, 110]),
   midi.NoteOnEvent(tick=0, channel=2, data=[66, 110]),
   midi.NoteOnEvent(tick=574, channel=2, data=[54, 0]),
   midi.NoteOnEvent(tick=0, channel=2, data=[61, 0]),
   midi.NoteOnEvent(tick=0, channel=2, data=[66, 0]),
   midi.NoteOnEvent(tick=2, channel=2, data=[57, 110]),
   midi.NoteOnEvent(tick=0, channel=2, data=[64, 110]),
   midi.NoteOnEvent(tick=0, channel=2, data=[69, 110]),
   midi.NoteOnEvent(tick=160, channel=2, data=[57, 0]),
   midi.NoteOnEvent(tick=0, channel=2, data=[64, 0]),
   midi.NoteOnEvent(tick=0, channel=2, data=[69, 0]),
   midi.NoteOnEvent(tick=32, channel=2, data=[53, 110]),
   midi.NoteOnEvent(tick=0, channel=2, data=[60, 110]),
   midi.NoteOnEvent(tick=0, channel=2, data=[65, 110]),
   midi.NoteOnEvent(tick=574, channel=2, data=[53, 0]),
   midi.NoteOnEvent(tick=0, channel=2, data=[60, 0]),
   midi.NoteOnEvent(tick=0, channel=2, data=[65, 0]),
   midi.NoteOnEvent(tick=2, channel=2, data=[55, 110]),
   midi.NoteOnEvent(tick=0, channel=2, data=[62, 110]),
   midi.NoteOnEvent(tick=0, channel=2, data=[67, 110]),
   midi.NoteOnEvent(tick=256, channel=2, data=[55, 0]),
   midi.NoteOnEvent(tick=0, channel=2, data=[62, 0]),
   midi.NoteOnEvent(tick=0, channel=2, data=[67, 0]),
   midi.NoteOnEvent(tick=32, channel=2, data=[52, 110]),
   midi.NoteOnEvent(tick=94, channel=2, data=[52, 0]),
   midi.NoteOnEvent(tick=2, channel=2, data=[52, 110]),
   midi.NoteOnEvent(tick=46, channel=2, data=[52, 0]),
   midi.NoteOnEvent(tick=2, channel=2, data=[52, 110]),
   midi.NoteOnEvent(tick=46, channel=2, data=[52, 0]),
   midi.NoteOnEvent(tick=2, channel=2, data=[52, 110]),
   midi.NoteOnEvent(tick=94, channel=2, data=[52, 0]),
   midi.NoteOnEvent(tick=2, channel=2, data=[52, 110]),
   midi.NoteOnEvent(tick=94, channel=2, data=[52, 0]),
   midi.NoteOnEvent(tick=2, channel=2, data=[52, 110]),
   midi.NoteOnEvent(tick=94, channel=2, data=[52, 0]),
   midi.NoteOnEvent(tick=2, channel=2, data=[52, 110]),
   midi.NoteOnEvent(tick=94, channel=2, data=[52, 0]),
   midi.NoteOnEvent(tick=2, channel=2, data=[52, 110]),
   midi.NoteOnEvent(tick=94, channel=2, data=[52, 0]),
   midi.NoteOnEvent(tick=2, channel=2, data=[55, 110]),
   midi.NoteOnEvent(tick=0, channel=2, data=[62, 110]),
   midi.NoteOnEvent(tick=0, channel=2, data=[67, 110]),
   midi.NoteOnEvent(tick=574, channel=2, data=[55, 0]),
   midi.NoteOnEvent(tick=0, channel=2, data=[62, 0]),
   midi.NoteOnEvent(tick=0, channel=2, data=[67, 0]),
   midi.NoteOnEvent(tick=2, channel=2, data=[58, 110]),
   midi.NoteOnEvent(tick=0, channel=2, data=[65, 110]),
   midi.NoteOnEvent(tick=0, channel=2, data=[70, 110]),
   midi.NoteOnEvent(tick=160, channel=2, data=[58, 0]),
   midi.NoteOnEvent(tick=0, channel=2, data=[65, 0]),
   midi.NoteOnEvent(tick=0, channel=2, data=[70, 0]),
   midi.NoteOnEvent(tick=32, channel=2, data=[54, 110]),
   midi.NoteOnEvent(tick=0, channel=2, data=[61, 110]),
   midi.NoteOnEvent(tick=0, channel=2, data=[66, 110]),
   midi.NoteOnEvent(tick=574, channel=2, data=[54, 0]),
   midi.NoteOnEvent(tick=0, channel=2, data=[61, 0]),
   midi.NoteOnEvent(tick=0, channel=2, data=[66, 0]),
   midi.NoteOnEvent(tick=2, channel=2, data=[57, 110]),
   midi.NoteOnEvent(tick=0, channel=2, data=[64, 110]),
   midi.NoteOnEvent(tick=0, channel=2, data=[69, 110]),
   midi.NoteOnEvent(tick=160, channel=2, data=[57, 0]),
   midi.NoteOnEvent(tick=0, channel=2, data=[64, 0]),
   midi.NoteOnEvent(tick=0, channel=2, data=[69, 0]),
   midi.NoteOnEvent(tick=32, channel=2, data=[53, 110]),
   midi.NoteOnEvent(tick=0, channel=2, data=[60, 110]),
   midi.NoteOnEvent(tick=0, channel=2, data=[65, 110]),
   midi.NoteOnEvent(tick=574, channel=2, data=[53, 0]),
   midi.NoteOnEvent(tick=0, channel=2, data=[60, 0]),
   midi.NoteOnEvent(tick=0, channel=2, data=[65, 0]),
   midi.NoteOnEvent(tick=2, channel=2, data=[55, 110]),
   midi.NoteOnEvent(tick=0, channel=2, data=[62, 110]),
   midi.NoteOnEvent(tick=0, channel=2, data=[67, 110]),
   midi.NoteOnEvent(tick=256, channel=2, data=[55, 0]),
   midi.NoteOnEvent(tick=0, channel=2, data=[62, 0]),
   midi.NoteOnEvent(tick=0, channel=2, data=[67, 0]),
   midi.NoteOnEvent(tick=32, channel=2, data=[52, 110]),
   midi.NoteOnEvent(tick=94, channel=2, data=[52, 0]),
   midi.NoteOnEvent(tick=2, channel=2, data=[52, 110]),
   midi.NoteOnEvent(tick=46, channel=2, data=[52, 0]),
   midi.NoteOnEvent(tick=2, channel=2, data=[52, 110]),
   midi.NoteOnEvent(tick=46, channel=2, data=[52, 0]),
   midi.NoteOnEvent(tick=2, channel=2, data=[52, 110]),
   midi.NoteOnEvent(tick=94, channel=2, data=[52, 0]),
   midi.NoteOnEvent(tick=2, channel=2, data=[52, 110]),
   midi.NoteOnEvent(tick=94, channel=2, data=[52, 0]),
   midi.NoteOnEvent(tick=2, channel=2, data=[52, 110]),
   midi.NoteOnEvent(tick=94, channel=2, data=[52, 0]),
   midi.NoteOnEvent(tick=2, channel=2, data=[52, 110]),
   midi.NoteOnEvent(tick=94, channel=2, data=[52, 0]),
   midi.NoteOnEvent(tick=2, channel=2, data=[52, 110]),
   midi.NoteOnEvent(tick=94, channel=2, data=[52, 0]),
   midi.NoteOnEvent(tick=2, channel=2, data=[55, 110]),
   midi.NoteOnEvent(tick=0, channel=2, data=[62, 110]),
   midi.NoteOnEvent(tick=0, channel=2, data=[67, 110]),
   midi.NoteOnEvent(tick=574, channel=2, data=[55, 0]),
   midi.NoteOnEvent(tick=0, channel=2, data=[62, 0]),
   midi.NoteOnEvent(tick=0, channel=2, data=[67, 0]),
   midi.NoteOnEvent(tick=2, channel=2, data=[58, 110]),
   midi.NoteOnEvent(tick=0, channel=2, data=[65, 110]),
   midi.NoteOnEvent(tick=0, channel=2, data=[70, 110]),
   midi.NoteOnEvent(tick=160, channel=2, data=[58, 0]),
   midi.NoteOnEvent(tick=0, channel=2, data=[65, 0]),
   midi.NoteOnEvent(tick=0, channel=2, data=[70, 0]),
   midi.NoteOnEvent(tick=32, channel=2, data=[54, 110]),
   midi.NoteOnEvent(tick=0, channel=2, data=[61, 110]),
   midi.NoteOnEvent(tick=0, channel=2, data=[66, 110]),
   midi.NoteOnEvent(tick=574, channel=2, data=[54, 0]),
   midi.NoteOnEvent(tick=0, channel=2, data=[61, 0]),
   midi.NoteOnEvent(tick=0, channel=2, data=[66, 0]),
   midi.NoteOnEvent(tick=2, channel=2, data=[57, 110]),
   midi.NoteOnEvent(tick=0, channel=2, data=[64, 110]),
   midi.NoteOnEvent(tick=0, channel=2, data=[69, 110]),
   midi.NoteOnEvent(tick=160, channel=2, data=[57, 0]),
   midi.NoteOnEvent(tick=0, channel=2, data=[64, 0]),
   midi.NoteOnEvent(tick=0, channel=2, data=[69, 0]),
   midi.NoteOnEvent(tick=32, channel=2, data=[53, 110]),
   midi.NoteOnEvent(tick=0, channel=2, data=[60, 110]),
   midi.NoteOnEvent(tick=0, channel=2, data=[65, 110]),
   midi.NoteOnEvent(tick=574, channel=2, data=[53, 0]),
   midi.NoteOnEvent(tick=0, channel=2, data=[60, 0]),
   midi.NoteOnEvent(tick=0, channel=2, data=[65, 0]),
   midi.NoteOnEvent(tick=2, channel=2, data=[55, 110]),
   midi.NoteOnEvent(tick=0, channel=2, data=[62, 110]),
   midi.NoteOnEvent(tick=0, channel=2, data=[67, 110]),
   midi.NoteOnEvent(tick=256, channel=2, data=[55, 0]),
   midi.NoteOnEvent(tick=0, channel=2, data=[62, 0]),
   midi.NoteOnEvent(tick=0, channel=2, data=[67, 0]),
   midi.NoteOnEvent(tick=32, channel=2, data=[52, 110]),
   midi.NoteOnEvent(tick=94, channel=2, data=[52, 0]),
   midi.NoteOnEvent(tick=2, channel=2, data=[52, 110]),
   midi.NoteOnEvent(tick=46, channel=2, data=[52, 0]),
   midi.NoteOnEvent(tick=2, channel=2, data=[52, 110]),
   midi.NoteOnEvent(tick=46, channel=2, data=[52, 0]),
   midi.NoteOnEvent(tick=2, channel=2, data=[52, 110]),
   midi.NoteOnEvent(tick=94, channel=2, data=[52, 0]),
   midi.NoteOnEvent(tick=2, channel=2, data=[52, 110]),
   midi.NoteOnEvent(tick=94, channel=2, data=[52, 0]),
   midi.NoteOnEvent(tick=2, channel=2, data=[52, 110]),
   midi.NoteOnEvent(tick=94, channel=2, data=[52, 0]),
   midi.NoteOnEvent(tick=2, channel=2, data=[52, 110]),
   midi.NoteOnEvent(tick=94, channel=2, data=[52, 0]),
   midi.NoteOnEvent(tick=2, channel=2, data=[52, 110]),
   midi.NoteOnEvent(tick=94, channel=2, data=[52, 0]),
   midi.NoteOnEvent(tick=2, channel=2, data=[52, 110]),
   midi.NoteOnEvent(tick=94, channel=2, data=[52, 0]),
   midi.NoteOnEvent(tick=290, channel=2, data=[52, 110]),
   midi.NoteOnEvent(tick=94, channel=2, data=[52, 0]),
   midi.NoteOnEvent(tick=2, channel=2, data=[52, 110]),
   midi.NoteOnEvent(tick=46, channel=2, data=[52, 0]),
   midi.NoteOnEvent(tick=2, channel=2, data=[52, 110]),
   midi.NoteOnEvent(tick=46, channel=2, data=[52, 0]),
   midi.NoteOnEvent(tick=2, channel=2, data=[52, 110]),
   midi.NoteOnEvent(tick=94, channel=2, data=[52, 0]),
   midi.NoteOnEvent(tick=2, channel=2, data=[52, 110]),
   midi.NoteOnEvent(tick=94, channel=2, data=[52, 0]),
   midi.NoteOnEvent(tick=2, channel=2, data=[52, 110]),
   midi.NoteOnEvent(tick=94, channel=2, data=[52, 0]),
   midi.NoteOnEvent(tick=2, channel=2, data=[52, 110]),
   midi.NoteOnEvent(tick=94, channel=2, data=[52, 0]),
   midi.NoteOnEvent(tick=2, channel=2, data=[52, 110]),
   midi.NoteOnEvent(tick=46, channel=2, data=[52, 0]),
   midi.NoteOnEvent(tick=2, channel=2, data=[52, 110]),
   midi.NoteOnEvent(tick=46, channel=2, data=[52, 0]),
   midi.NoteOnEvent(tick=2, channel=2, data=[52, 110]),
   midi.NoteOnEvent(tick=46, channel=2, data=[52, 0]),
   midi.NoteOnEvent(tick=2, channel=2, data=[52, 110]),
   midi.NoteOnEvent(tick=46, channel=2, data=[52, 0]),
   midi.NoteOnEvent(tick=2, channel=2, data=[52, 110]),
   midi.NoteOnEvent(tick=94, channel=2, data=[52, 0]),
   midi.NoteOnEvent(tick=2, channel=2, data=[52, 110]),
   midi.NoteOnEvent(tick=46, channel=2, data=[52, 0]),
   midi.NoteOnEvent(tick=2, channel=2, data=[52, 110]),
   midi.NoteOnEvent(tick=46, channel=2, data=[52, 0]),
   midi.NoteOnEvent(tick=2, channel=2, data=[52, 110]),
   midi.NoteOnEvent(tick=94, channel=2, data=[52, 0]),
   midi.NoteOnEvent(tick=2, channel=2, data=[52, 110]),
   midi.NoteOnEvent(tick=94, channel=2, data=[52, 0]),
   midi.NoteOnEvent(tick=2, channel=2, data=[52, 110]),
   midi.NoteOnEvent(tick=94, channel=2, data=[52, 0]),
   midi.NoteOnEvent(tick=2, channel=2, data=[52, 110]),
   midi.NoteOnEvent(tick=94, channel=2, data=[52, 0]),
   midi.NoteOnEvent(tick=2, channel=2, data=[52, 110]),
   midi.NoteOnEvent(tick=46, channel=2, data=[52, 0]),
   midi.NoteOnEvent(tick=2, channel=2, data=[52, 110]),
   midi.NoteOnEvent(tick=46, channel=2, data=[52, 0]),
   midi.NoteOnEvent(tick=2, channel=2, data=[52, 110]),
   midi.NoteOnEvent(tick=46, channel=2, data=[52, 0]),
   midi.NoteOnEvent(tick=2, channel=2, data=[52, 110]),
   midi.NoteOnEvent(tick=46, channel=2, data=[52, 0]),
   midi.NoteOnEvent(tick=2, channel=2, data=[55, 110]),
   midi.NoteOnEvent(tick=94, channel=2, data=[55, 0]),
   midi.NoteOnEvent(tick=2, channel=2, data=[55, 110]),
   midi.NoteOnEvent(tick=46, channel=2, data=[55, 0]),
   midi.NoteOnEvent(tick=2, channel=2, data=[55, 110]),
   midi.NoteOnEvent(tick=46, channel=2, data=[55, 0]),
   midi.NoteOnEvent(tick=2, channel=2, data=[55, 110]),
   midi.NoteOnEvent(tick=94, channel=2, data=[55, 0]),
   midi.NoteOnEvent(tick=2, channel=2, data=[55, 110]),
   midi.NoteOnEvent(tick=94, channel=2, data=[55, 0]),
   midi.NoteOnEvent(tick=2, channel=2, data=[55, 110]),
   midi.NoteOnEvent(tick=94, channel=2, data=[55, 0]),
   midi.NoteOnEvent(tick=2, channel=2, data=[55, 110]),
   midi.NoteOnEvent(tick=94, channel=2, data=[55, 0]),
   midi.NoteOnEvent(tick=2, channel=2, data=[55, 110]),
   midi.NoteOnEvent(tick=46, channel=2, data=[55, 0]),
   midi.NoteOnEvent(tick=2, channel=2, data=[55, 110]),
   midi.NoteOnEvent(tick=46, channel=2, data=[55, 0]),
   midi.NoteOnEvent(tick=2, channel=2, data=[55, 110]),
   midi.NoteOnEvent(tick=46, channel=2, data=[55, 0]),
   midi.NoteOnEvent(tick=2, channel=2, data=[55, 110]),
   midi.NoteOnEvent(tick=46, channel=2, data=[55, 0]),
   midi.NoteOnEvent(tick=2, channel=2, data=[54, 110]),
   midi.NoteOnEvent(tick=94, channel=2, data=[54, 0]),
   midi.NoteOnEvent(tick=2, channel=2, data=[54, 110]),
   midi.NoteOnEvent(tick=46, channel=2, data=[54, 0]),
   midi.NoteOnEvent(tick=2, channel=2, data=[54, 110]),
   midi.NoteOnEvent(tick=46, channel=2, data=[54, 0]),
   midi.NoteOnEvent(tick=2, channel=2, data=[54, 110]),
   midi.NoteOnEvent(tick=94, channel=2, data=[54, 0]),
   midi.NoteOnEvent(tick=2, channel=2, data=[54, 110]),
   midi.NoteOnEvent(tick=94, channel=2, data=[54, 0]),
   midi.NoteOnEvent(tick=2, channel=2, data=[54, 110]),
   midi.NoteOnEvent(tick=94, channel=2, data=[54, 0]),
   midi.NoteOnEvent(tick=2, channel=2, data=[54, 110]),
   midi.NoteOnEvent(tick=94, channel=2, data=[54, 0]),
   midi.NoteOnEvent(tick=2, channel=2, data=[54, 110]),
   midi.NoteOnEvent(tick=46, channel=2, data=[54, 0]),
   midi.NoteOnEvent(tick=2, channel=2, data=[54, 110]),
   midi.NoteOnEvent(tick=46, channel=2, data=[54, 0]),
   midi.NoteOnEvent(tick=2, channel=2, data=[54, 110]),
   midi.NoteOnEvent(tick=46, channel=2, data=[54, 0]),
   midi.NoteOnEvent(tick=2, channel=2, data=[54, 110]),
   midi.NoteOnEvent(tick=46, channel=2, data=[54, 0]),
   midi.NoteOnEvent(tick=2, channel=2, data=[52, 110]),
   midi.NoteOnEvent(tick=94, channel=2, data=[52, 0]),
   midi.NoteOnEvent(tick=2, channel=2, data=[52, 110]),
   midi.NoteOnEvent(tick=46, channel=2, data=[52, 0]),
   midi.NoteOnEvent(tick=2, channel=2, data=[52, 110]),
   midi.NoteOnEvent(tick=46, channel=2, data=[52, 0]),
   midi.NoteOnEvent(tick=2, channel=2, data=[52, 110]),
   midi.NoteOnEvent(tick=94, channel=2, data=[52, 0]),
   midi.NoteOnEvent(tick=2, channel=2, data=[52, 110]),
   midi.NoteOnEvent(tick=94, channel=2, data=[52, 0]),
   midi.NoteOnEvent(tick=2, channel=2, data=[52, 110]),
   midi.NoteOnEvent(tick=94, channel=2, data=[52, 0]),
   midi.NoteOnEvent(tick=2, channel=2, data=[52, 110]),
   midi.NoteOnEvent(tick=94, channel=2, data=[52, 0]),
   midi.NoteOnEvent(tick=2, channel=2, data=[52, 110]),
   midi.NoteOnEvent(tick=46, channel=2, data=[52, 0]),
   midi.NoteOnEvent(tick=2, channel=2, data=[52, 110]),
   midi.NoteOnEvent(tick=46, channel=2, data=[52, 0]),
   midi.NoteOnEvent(tick=2, channel=2, data=[52, 110]),
   midi.NoteOnEvent(tick=46, channel=2, data=[52, 0]),
   midi.NoteOnEvent(tick=2, channel=2, data=[52, 110]),
   midi.NoteOnEvent(tick=46, channel=2, data=[52, 0]),
   midi.NoteOnEvent(tick=2, channel=2, data=[52, 110]),
   midi.NoteOnEvent(tick=94, channel=2, data=[52, 0]),
   midi.NoteOnEvent(tick=2, channel=2, data=[52, 110]),
   midi.NoteOnEvent(tick=46, channel=2, data=[52, 0]),
   midi.NoteOnEvent(tick=2, channel=2, data=[52, 110]),
   midi.NoteOnEvent(tick=46, channel=2, data=[52, 0]),
   midi.NoteOnEvent(tick=2, channel=2, data=[52, 110]),
   midi.NoteOnEvent(tick=94, channel=2, data=[52, 0]),
   midi.NoteOnEvent(tick=2, channel=2, data=[52, 110]),
   midi.NoteOnEvent(tick=94, channel=2, data=[52, 0]),
   midi.NoteOnEvent(tick=2, channel=2, data=[52, 110]),
   midi.NoteOnEvent(tick=94, channel=2, data=[52, 0]),
   midi.NoteOnEvent(tick=2, channel=2, data=[52, 110]),
   midi.NoteOnEvent(tick=94, channel=2, data=[52, 0]),
   midi.NoteOnEvent(tick=2, channel=2, data=[52, 110]),
   midi.NoteOnEvent(tick=46, channel=2, data=[52, 0]),
   midi.NoteOnEvent(tick=2, channel=2, data=[52, 110]),
   midi.NoteOnEvent(tick=46, channel=2, data=[52, 0]),
   midi.NoteOnEvent(tick=2, channel=2, data=[52, 110]),
   midi.NoteOnEvent(tick=46, channel=2, data=[52, 0]),
   midi.NoteOnEvent(tick=2, channel=2, data=[52, 110]),
   midi.NoteOnEvent(tick=46, channel=2, data=[52, 0]),
   midi.NoteOnEvent(tick=2, channel=2, data=[55, 110]),
   midi.NoteOnEvent(tick=94, channel=2, data=[55, 0]),
   midi.NoteOnEvent(tick=2, channel=2, data=[55, 110]),
   midi.NoteOnEvent(tick=46, channel=2, data=[55, 0]),
   midi.NoteOnEvent(tick=2, channel=2, data=[55, 110]),
   midi.NoteOnEvent(tick=46, channel=2, data=[55, 0]),
   midi.NoteOnEvent(tick=2, channel=2, data=[55, 110]),
   midi.NoteOnEvent(tick=94, channel=2, data=[55, 0]),
   midi.NoteOnEvent(tick=2, channel=2, data=[55, 110]),
   midi.NoteOnEvent(tick=94, channel=2, data=[55, 0]),
   midi.NoteOnEvent(tick=2, channel=2, data=[55, 110]),
   midi.NoteOnEvent(tick=94, channel=2, data=[55, 0]),
   midi.NoteOnEvent(tick=2, channel=2, data=[55, 110]),
   midi.NoteOnEvent(tick=94, channel=2, data=[55, 0]),
   midi.NoteOnEvent(tick=2, channel=2, data=[55, 110]),
   midi.NoteOnEvent(tick=46, channel=2, data=[55, 0]),
   midi.NoteOnEvent(tick=2, channel=2, data=[55, 110]),
   midi.NoteOnEvent(tick=46, channel=2, data=[55, 0]),
   midi.NoteOnEvent(tick=2, channel=2, data=[55, 110]),
   midi.NoteOnEvent(tick=46, channel=2, data=[55, 0]),
   midi.NoteOnEvent(tick=2, channel=2, data=[55, 110]),
   midi.NoteOnEvent(tick=46, channel=2, data=[55, 0]),
   midi.NoteOnEvent(tick=2, channel=2, data=[59, 110]),
   midi.NoteOnEvent(tick=94, channel=2, data=[59, 0]),
   midi.NoteOnEvent(tick=2, channel=2, data=[59, 110]),
   midi.NoteOnEvent(tick=46, channel=2, data=[59, 0]),
   midi.NoteOnEvent(tick=2, channel=2, data=[59, 110]),
   midi.NoteOnEvent(tick=46, channel=2, data=[59, 0]),
   midi.NoteOnEvent(tick=2, channel=2, data=[59, 110]),
   midi.NoteOnEvent(tick=94, channel=2, data=[59, 0]),
   midi.NoteOnEvent(tick=2, channel=2, data=[59, 110]),
   midi.NoteOnEvent(tick=94, channel=2, data=[59, 0]),
   midi.NoteOnEvent(tick=2, channel=2, data=[59, 110]),
   midi.NoteOnEvent(tick=94, channel=2, data=[59, 0]),
   midi.NoteOnEvent(tick=2, channel=2, data=[59, 110]),
   midi.NoteOnEvent(tick=94, channel=2, data=[59, 0]),
   midi.NoteOnEvent(tick=2, channel=2, data=[59, 110]),
   midi.NoteOnEvent(tick=46, channel=2, data=[59, 0]),
   midi.NoteOnEvent(tick=2, channel=2, data=[59, 110]),
   midi.NoteOnEvent(tick=46, channel=2, data=[59, 0]),
   midi.NoteOnEvent(tick=2, channel=2, data=[59, 110]),
   midi.NoteOnEvent(tick=46, channel=2, data=[59, 0]),
   midi.NoteOnEvent(tick=2, channel=2, data=[59, 110]),
   midi.NoteOnEvent(tick=46, channel=2, data=[59, 0]),
   midi.NoteOnEvent(tick=2, channel=2, data=[52, 110]),
   midi.NoteOnEvent(tick=94, channel=2, data=[52, 0]),
   midi.NoteOnEvent(tick=2, channel=2, data=[52, 110]),
   midi.NoteOnEvent(tick=46, channel=2, data=[52, 0]),
   midi.NoteOnEvent(tick=2, channel=2, data=[52, 110]),
   midi.NoteOnEvent(tick=46, channel=2, data=[52, 0]),
   midi.NoteOnEvent(tick=2, channel=2, data=[52, 110]),
   midi.NoteOnEvent(tick=94, channel=2, data=[52, 0]),
   midi.NoteOnEvent(tick=2, channel=2, data=[52, 110]),
   midi.NoteOnEvent(tick=94, channel=2, data=[52, 0]),
   midi.NoteOnEvent(tick=2, channel=2, data=[52, 110]),
   midi.NoteOnEvent(tick=94, channel=2, data=[52, 0]),
   midi.NoteOnEvent(tick=2, channel=2, data=[52, 110]),
   midi.NoteOnEvent(tick=94, channel=2, data=[52, 0]),
   midi.NoteOnEvent(tick=2, channel=2, data=[52, 110]),
   midi.NoteOnEvent(tick=46, channel=2, data=[52, 0]),
   midi.NoteOnEvent(tick=2, channel=2, data=[52, 110]),
   midi.NoteOnEvent(tick=46, channel=2, data=[52, 0]),
   midi.NoteOnEvent(tick=2, channel=2, data=[52, 110]),
   midi.NoteOnEvent(tick=46, channel=2, data=[52, 0]),
   midi.NoteOnEvent(tick=2, channel=2, data=[52, 110]),
   midi.NoteOnEvent(tick=46, channel=2, data=[52, 0]),
   midi.NoteOnEvent(tick=2, channel=2, data=[52, 110]),
   midi.NoteOnEvent(tick=94, channel=2, data=[52, 0]),
   midi.NoteOnEvent(tick=2, channel=2, data=[52, 110]),
   midi.NoteOnEvent(tick=46, channel=2, data=[52, 0]),
   midi.NoteOnEvent(tick=2, channel=2, data=[52, 110]),
   midi.NoteOnEvent(tick=46, channel=2, data=[52, 0]),
   midi.NoteOnEvent(tick=2, channel=2, data=[52, 110]),
   midi.NoteOnEvent(tick=94, channel=2, data=[52, 0]),
   midi.NoteOnEvent(tick=2, channel=2, data=[52, 110]),
   midi.NoteOnEvent(tick=94, channel=2, data=[52, 0]),
   midi.NoteOnEvent(tick=2, channel=2, data=[52, 110]),
   midi.NoteOnEvent(tick=94, channel=2, data=[52, 0]),
   midi.NoteOnEvent(tick=2, channel=2, data=[52, 110]),
   midi.NoteOnEvent(tick=94, channel=2, data=[52, 0]),
   midi.NoteOnEvent(tick=2, channel=2, data=[52, 110]),
   midi.NoteOnEvent(tick=46, channel=2, data=[52, 0]),
   midi.NoteOnEvent(tick=2, channel=2, data=[52, 110]),
   midi.NoteOnEvent(tick=46, channel=2, data=[52, 0]),
   midi.NoteOnEvent(tick=2, channel=2, data=[52, 110]),
   midi.NoteOnEvent(tick=46, channel=2, data=[52, 0]),
   midi.NoteOnEvent(tick=2, channel=2, data=[52, 110]),
   midi.NoteOnEvent(tick=46, channel=2, data=[52, 0]),
   midi.NoteOnEvent(tick=2, channel=2, data=[55, 110]),
   midi.NoteOnEvent(tick=94, channel=2, data=[55, 0]),
   midi.NoteOnEvent(tick=2, channel=2, data=[55, 110]),
   midi.NoteOnEvent(tick=46, channel=2, data=[55, 0]),
   midi.NoteOnEvent(tick=2, channel=2, data=[55, 110]),
   midi.NoteOnEvent(tick=46, channel=2, data=[55, 0]),
   midi.NoteOnEvent(tick=2, channel=2, data=[55, 110]),
   midi.NoteOnEvent(tick=94, channel=2, data=[55, 0]),
   midi.NoteOnEvent(tick=2, channel=2, data=[55, 110]),
   midi.NoteOnEvent(tick=94, channel=2, data=[55, 0]),
   midi.NoteOnEvent(tick=2, channel=2, data=[55, 110]),
   midi.NoteOnEvent(tick=94, channel=2, data=[55, 0]),
   midi.NoteOnEvent(tick=2, channel=2, data=[55, 110]),
   midi.NoteOnEvent(tick=94, channel=2, data=[55, 0]),
   midi.NoteOnEvent(tick=2, channel=2, data=[55, 110]),
   midi.NoteOnEvent(tick=46, channel=2, data=[55, 0]),
   midi.NoteOnEvent(tick=2, channel=2, data=[55, 110]),
   midi.NoteOnEvent(tick=46, channel=2, data=[55, 0]),
   midi.NoteOnEvent(tick=2, channel=2, data=[55, 110]),
   midi.NoteOnEvent(tick=46, channel=2, data=[55, 0]),
   midi.NoteOnEvent(tick=2, channel=2, data=[55, 110]),
   midi.NoteOnEvent(tick=46, channel=2, data=[55, 0]),
   midi.NoteOnEvent(tick=2, channel=2, data=[54, 110]),
   midi.NoteOnEvent(tick=94, channel=2, data=[54, 0]),
   midi.NoteOnEvent(tick=2, channel=2, data=[54, 110]),
   midi.NoteOnEvent(tick=46, channel=2, data=[54, 0]),
   midi.NoteOnEvent(tick=2, channel=2, data=[54, 110]),
   midi.NoteOnEvent(tick=46, channel=2, data=[54, 0]),
   midi.NoteOnEvent(tick=2, channel=2, data=[54, 110]),
   midi.NoteOnEvent(tick=94, channel=2, data=[54, 0]),
   midi.NoteOnEvent(tick=2, channel=2, data=[54, 110]),
   midi.NoteOnEvent(tick=94, channel=2, data=[54, 0]),
   midi.NoteOnEvent(tick=2, channel=2, data=[54, 110]),
   midi.NoteOnEvent(tick=94, channel=2, data=[54, 0]),
   midi.NoteOnEvent(tick=2, channel=2, data=[54, 110]),
   midi.NoteOnEvent(tick=94, channel=2, data=[54, 0]),
   midi.NoteOnEvent(tick=2, channel=2, data=[54, 110]),
   midi.NoteOnEvent(tick=46, channel=2, data=[54, 0]),
   midi.NoteOnEvent(tick=2, channel=2, data=[54, 110]),
   midi.NoteOnEvent(tick=46, channel=2, data=[54, 0]),
   midi.NoteOnEvent(tick=2, channel=2, data=[54, 110]),
   midi.NoteOnEvent(tick=46, channel=2, data=[54, 0]),
   midi.NoteOnEvent(tick=2, channel=2, data=[54, 110]),
   midi.NoteOnEvent(tick=46, channel=2, data=[54, 0]),
   midi.NoteOnEvent(tick=2, channel=2, data=[52, 110]),
   midi.NoteOnEvent(tick=94, channel=2, data=[52, 0]),
   midi.NoteOnEvent(tick=2, channel=2, data=[52, 110]),
   midi.NoteOnEvent(tick=46, channel=2, data=[52, 0]),
   midi.NoteOnEvent(tick=2, channel=2, data=[52, 110]),
   midi.NoteOnEvent(tick=46, channel=2, data=[52, 0]),
   midi.NoteOnEvent(tick=2, channel=2, data=[52, 110]),
   midi.NoteOnEvent(tick=94, channel=2, data=[52, 0]),
   midi.NoteOnEvent(tick=2, channel=2, data=[52, 110]),
   midi.NoteOnEvent(tick=94, channel=2, data=[52, 0]),
   midi.NoteOnEvent(tick=2, channel=2, data=[52, 110]),
   midi.NoteOnEvent(tick=94, channel=2, data=[52, 0]),
   midi.NoteOnEvent(tick=2, channel=2, data=[52, 110]),
   midi.NoteOnEvent(tick=94, channel=2, data=[52, 0]),
   midi.NoteOnEvent(tick=2, channel=2, data=[52, 110]),
   midi.NoteOnEvent(tick=46, channel=2, data=[52, 0]),
   midi.NoteOnEvent(tick=2, channel=2, data=[52, 110]),
   midi.NoteOnEvent(tick=46, channel=2, data=[52, 0]),
   midi.NoteOnEvent(tick=2, channel=2, data=[52, 110]),
   midi.NoteOnEvent(tick=46, channel=2, data=[52, 0]),
   midi.NoteOnEvent(tick=2, channel=2, data=[52, 110]),
   midi.NoteOnEvent(tick=46, channel=2, data=[52, 0]),
   midi.NoteOnEvent(tick=2, channel=2, data=[52, 110]),
   midi.NoteOnEvent(tick=94, channel=2, data=[52, 0]),
   midi.NoteOnEvent(tick=2, channel=2, data=[52, 110]),
   midi.NoteOnEvent(tick=46, channel=2, data=[52, 0]),
   midi.NoteOnEvent(tick=2, channel=2, data=[52, 110]),
   midi.NoteOnEvent(tick=46, channel=2, data=[52, 0]),
   midi.NoteOnEvent(tick=2, channel=2, data=[52, 110]),
   midi.NoteOnEvent(tick=94, channel=2, data=[52, 0]),
   midi.NoteOnEvent(tick=2, channel=2, data=[52, 110]),
   midi.NoteOnEvent(tick=94, channel=2, data=[52, 0]),
   midi.NoteOnEvent(tick=2, channel=2, data=[52, 110]),
   midi.NoteOnEvent(tick=94, channel=2, data=[52, 0]),
   midi.NoteOnEvent(tick=2, channel=2, data=[52, 110]),
   midi.NoteOnEvent(tick=94, channel=2, data=[52, 0]),
   midi.NoteOnEvent(tick=2, channel=2, data=[52, 110]),
   midi.NoteOnEvent(tick=46, channel=2, data=[52, 0]),
   midi.NoteOnEvent(tick=2, channel=2, data=[52, 110]),
   midi.NoteOnEvent(tick=46, channel=2, data=[52, 0]),
   midi.NoteOnEvent(tick=2, channel=2, data=[52, 110]),
   midi.NoteOnEvent(tick=46, channel=2, data=[52, 0]),
   midi.NoteOnEvent(tick=2, channel=2, data=[52, 110]),
   midi.NoteOnEvent(tick=46, channel=2, data=[52, 0]),
   midi.NoteOnEvent(tick=2, channel=2, data=[55, 110]),
   midi.NoteOnEvent(tick=94, channel=2, data=[55, 0]),
   midi.NoteOnEvent(tick=2, channel=2, data=[55, 110]),
   midi.NoteOnEvent(tick=46, channel=2, data=[55, 0]),
   midi.NoteOnEvent(tick=2, channel=2, data=[55, 110]),
   midi.NoteOnEvent(tick=46, channel=2, data=[55, 0]),
   midi.NoteOnEvent(tick=2, channel=2, data=[55, 110]),
   midi.NoteOnEvent(tick=94, channel=2, data=[55, 0]),
   midi.NoteOnEvent(tick=2, channel=2, data=[55, 110]),
   midi.NoteOnEvent(tick=94, channel=2, data=[55, 0]),
   midi.NoteOnEvent(tick=2, channel=2, data=[55, 110]),
   midi.NoteOnEvent(tick=94, channel=2, data=[55, 0]),
   midi.NoteOnEvent(tick=2, channel=2, data=[55, 110]),
   midi.NoteOnEvent(tick=94, channel=2, data=[55, 0]),
   midi.NoteOnEvent(tick=2, channel=2, data=[55, 110]),
   midi.NoteOnEvent(tick=46, channel=2, data=[55, 0]),
   midi.NoteOnEvent(tick=2, channel=2, data=[55, 110]),
   midi.NoteOnEvent(tick=46, channel=2, data=[55, 0]),
   midi.NoteOnEvent(tick=2, channel=2, data=[55, 110]),
   midi.NoteOnEvent(tick=46, channel=2, data=[55, 0]),
   midi.NoteOnEvent(tick=2, channel=2, data=[55, 110]),
   midi.NoteOnEvent(tick=46, channel=2, data=[55, 0]),
   midi.NoteOnEvent(tick=2, channel=2, data=[59, 110]),
   midi.NoteOnEvent(tick=94, channel=2, data=[59, 0]),
   midi.NoteOnEvent(tick=2, channel=2, data=[59, 110]),
   midi.NoteOnEvent(tick=46, channel=2, data=[59, 0]),
   midi.NoteOnEvent(tick=2, channel=2, data=[59, 110]),
   midi.NoteOnEvent(tick=46, channel=2, data=[59, 0]),
   midi.NoteOnEvent(tick=2, channel=2, data=[59, 110]),
   midi.NoteOnEvent(tick=94, channel=2, data=[59, 0]),
   midi.NoteOnEvent(tick=2, channel=2, data=[59, 110]),
   midi.NoteOnEvent(tick=94, channel=2, data=[59, 0]),
   midi.NoteOnEvent(tick=2, channel=2, data=[59, 110]),
   midi.NoteOnEvent(tick=94, channel=2, data=[59, 0]),
   midi.NoteOnEvent(tick=2, channel=2, data=[59, 110]),
   midi.NoteOnEvent(tick=94, channel=2, data=[59, 0]),
   midi.NoteOnEvent(tick=2, channel=2, data=[59, 110]),
   midi.NoteOnEvent(tick=46, channel=2, data=[59, 0]),
   midi.NoteOnEvent(tick=2, channel=2, data=[59, 110]),
   midi.NoteOnEvent(tick=46, channel=2, data=[59, 0]),
   midi.NoteOnEvent(tick=2, channel=2, data=[59, 110]),
   midi.NoteOnEvent(tick=46, channel=2, data=[59, 0]),
   midi.NoteOnEvent(tick=2, channel=2, data=[59, 110]),
   midi.NoteOnEvent(tick=46, channel=2, data=[59, 0]),
   midi.NoteOnEvent(tick=2, channel=2, data=[61, 110]),
   midi.NoteOnEvent(tick=0, channel=2, data=[68, 110]),
   midi.NoteOnEvent(tick=94, channel=2, data=[61, 0]),
   midi.NoteOnEvent(tick=0, channel=2, data=[68, 0]),
   midi.NoteOnEvent(tick=2, channel=2, data=[61, 110]),
   midi.NoteOnEvent(tick=46, channel=2, data=[61, 0]),
   midi.NoteOnEvent(tick=2, channel=2, data=[61, 110]),
   midi.NoteOnEvent(tick=46, channel=2, data=[61, 0]),
   midi.NoteOnEvent(tick=2, channel=2, data=[61, 110]),
   midi.NoteOnEvent(tick=46, channel=2, data=[61, 0]),
   midi.NoteOnEvent(tick=2, channel=2, data=[61, 110]),
   midi.NoteOnEvent(tick=46, channel=2, data=[61, 0]),
   midi.NoteOnEvent(tick=2, channel=2, data=[61, 110]),
   midi.NoteOnEvent(tick=46, channel=2, data=[61, 0]),
   midi.NoteOnEvent(tick=2, channel=2, data=[61, 110]),
   midi.NoteOnEvent(tick=46, channel=2, data=[61, 0]),
   midi.NoteOnEvent(tick=2, channel=2, data=[61, 110]),
   midi.NoteOnEvent(tick=94, channel=2, data=[61, 0]),
   midi.NoteOnEvent(tick=2, channel=2, data=[61, 110]),
   midi.NoteOnEvent(tick=46, channel=2, data=[61, 0]),
   midi.NoteOnEvent(tick=2, channel=2, data=[61, 110]),
   midi.NoteOnEvent(tick=46, channel=2, data=[61, 0]),
   midi.NoteOnEvent(tick=2, channel=2, data=[61, 110]),
   midi.NoteOnEvent(tick=46, channel=2, data=[61, 0]),
   midi.NoteOnEvent(tick=2, channel=2, data=[61, 110]),
   midi.NoteOnEvent(tick=46, channel=2, data=[61, 0]),
   midi.NoteOnEvent(tick=2, channel=2, data=[61, 110]),
   midi.NoteOnEvent(tick=46, channel=2, data=[61, 0]),
   midi.NoteOnEvent(tick=2, channel=2, data=[61, 110]),
   midi.NoteOnEvent(tick=46, channel=2, data=[61, 0]),
   midi.NoteOnEvent(tick=2, channel=2, data=[61, 110]),
   midi.NoteOnEvent(tick=0, channel=2, data=[68, 110]),
   midi.NoteOnEvent(tick=94, channel=2, data=[61, 0]),
   midi.NoteOnEvent(tick=0, channel=2, data=[68, 0]),
   midi.NoteOnEvent(tick=2, channel=2, data=[61, 110]),
   midi.NoteOnEvent(tick=46, channel=2, data=[61, 0]),
   midi.NoteOnEvent(tick=2, channel=2, data=[61, 110]),
   midi.NoteOnEvent(tick=46, channel=2, data=[61, 0]),
   midi.NoteOnEvent(tick=2, channel=2, data=[61, 110]),
   midi.NoteOnEvent(tick=46, channel=2, data=[61, 0]),
   midi.NoteOnEvent(tick=2, channel=2, data=[61, 110]),
   midi.NoteOnEvent(tick=46, channel=2, data=[61, 0]),
   midi.NoteOnEvent(tick=2, channel=2, data=[61, 110]),
   midi.NoteOnEvent(tick=46, channel=2, data=[61, 0]),
   midi.NoteOnEvent(tick=2, channel=2, data=[61, 110]),
   midi.NoteOnEvent(tick=46, channel=2, data=[61, 0]),
   midi.NoteOnEvent(tick=2, channel=2, data=[61, 110]),
   midi.NoteOnEvent(tick=94, channel=2, data=[61, 0]),
   midi.NoteOnEvent(tick=2, channel=2, data=[61, 110]),
   midi.NoteOnEvent(tick=46, channel=2, data=[61, 0]),
   midi.NoteOnEvent(tick=2, channel=2, data=[61, 110]),
   midi.NoteOnEvent(tick=46, channel=2, data=[61, 0]),
   midi.NoteOnEvent(tick=2, channel=2, data=[61, 110]),
   midi.NoteOnEvent(tick=46, channel=2, data=[61, 0]),
   midi.NoteOnEvent(tick=2, channel=2, data=[61, 110]),
   midi.NoteOnEvent(tick=46, channel=2, data=[61, 0]),
   midi.NoteOnEvent(tick=2, channel=2, data=[61, 110]),
   midi.NoteOnEvent(tick=46, channel=2, data=[61, 0]),
   midi.NoteOnEvent(tick=2, channel=2, data=[61, 110]),
   midi.NoteOnEvent(tick=46, channel=2, data=[61, 0]),
   midi.NoteOnEvent(tick=2, channel=2, data=[61, 110]),
   midi.NoteOnEvent(tick=0, channel=2, data=[68, 110]),
   midi.NoteOnEvent(tick=94, channel=2, data=[61, 0]),
   midi.NoteOnEvent(tick=0, channel=2, data=[68, 0]),
   midi.NoteOnEvent(tick=2, channel=2, data=[61, 110]),
   midi.NoteOnEvent(tick=46, channel=2, data=[61, 0]),
   midi.NoteOnEvent(tick=2, channel=2, data=[61, 110]),
   midi.NoteOnEvent(tick=46, channel=2, data=[61, 0]),
   midi.NoteOnEvent(tick=2, channel=2, data=[61, 110]),
   midi.NoteOnEvent(tick=46, channel=2, data=[61, 0]),
   midi.NoteOnEvent(tick=2, channel=2, data=[61, 110]),
   midi.NoteOnEvent(tick=46, channel=2, data=[61, 0]),
   midi.NoteOnEvent(tick=2, channel=2, data=[61, 110]),
   midi.NoteOnEvent(tick=46, channel=2, data=[61, 0]),
   midi.NoteOnEvent(tick=2, channel=2, data=[61, 110]),
   midi.NoteOnEvent(tick=46, channel=2, data=[61, 0]),
   midi.NoteOnEvent(tick=2, channel=2, data=[61, 110]),
   midi.NoteOnEvent(tick=94, channel=2, data=[61, 0]),
   midi.NoteOnEvent(tick=2, channel=2, data=[61, 110]),
   midi.NoteOnEvent(tick=46, channel=2, data=[61, 0]),
   midi.NoteOnEvent(tick=2, channel=2, data=[61, 110]),
   midi.NoteOnEvent(tick=46, channel=2, data=[61, 0]),
   midi.NoteOnEvent(tick=2, channel=2, data=[59, 110]),
   midi.NoteOnEvent(tick=0, channel=2, data=[66, 110]),
   midi.NoteOnEvent(tick=94, channel=2, data=[59, 0]),
   midi.NoteOnEvent(tick=0, channel=2, data=[66, 0]),
   midi.NoteOnEvent(tick=2, channel=2, data=[59, 110]),
   midi.NoteOnEvent(tick=46, channel=2, data=[59, 0]),
   midi.NoteOnEvent(tick=2, channel=2, data=[59, 110]),
   midi.NoteOnEvent(tick=46, channel=2, data=[59, 0]),
   midi.NoteOnEvent(tick=2, channel=2, data=[59, 110]),
   midi.NoteOnEvent(tick=46, channel=2, data=[59, 0]),
   midi.NoteOnEvent(tick=2, channel=2, data=[59, 110]),
   midi.NoteOnEvent(tick=46, channel=2, data=[59, 0]),
   midi.NoteOnEvent(tick=2, channel=2, data=[59, 110]),
   midi.NoteOnEvent(tick=46, channel=2, data=[59, 0]),
   midi.NoteOnEvent(tick=2, channel=2, data=[59, 110]),
   midi.NoteOnEvent(tick=46, channel=2, data=[59, 0]),
   midi.NoteOnEvent(tick=2, channel=2, data=[59, 110]),
   midi.NoteOnEvent(tick=94, channel=2, data=[59, 0]),
   midi.NoteOnEvent(tick=2, channel=2, data=[59, 110]),
   midi.NoteOnEvent(tick=46, channel=2, data=[59, 0]),
   midi.NoteOnEvent(tick=2, channel=2, data=[59, 110]),
   midi.NoteOnEvent(tick=46, channel=2, data=[59, 0]),
   midi.NoteOnEvent(tick=2, channel=2, data=[61, 110]),
   midi.NoteOnEvent(tick=0, channel=2, data=[68, 110]),
   midi.NoteOnEvent(tick=94, channel=2, data=[61, 0]),
   midi.NoteOnEvent(tick=0, channel=2, data=[68, 0]),
   midi.NoteOnEvent(tick=2, channel=2, data=[61, 110]),
   midi.NoteOnEvent(tick=46, channel=2, data=[61, 0]),
   midi.NoteOnEvent(tick=2, channel=2, data=[61, 110]),
   midi.NoteOnEvent(tick=46, channel=2, data=[61, 0]),
   midi.NoteOnEvent(tick=2, channel=2, data=[61, 110]),
   midi.NoteOnEvent(tick=46, channel=2, data=[61, 0]),
   midi.NoteOnEvent(tick=2, channel=2, data=[61, 110]),
   midi.NoteOnEvent(tick=46, channel=2, data=[61, 0]),
   midi.NoteOnEvent(tick=2, channel=2, data=[61, 110]),
   midi.NoteOnEvent(tick=46, channel=2, data=[61, 0]),
   midi.NoteOnEvent(tick=2, channel=2, data=[61, 110]),
   midi.NoteOnEvent(tick=46, channel=2, data=[61, 0]),
   midi.NoteOnEvent(tick=2, channel=2, data=[61, 110]),
   midi.NoteOnEvent(tick=94, channel=2, data=[61, 0]),
   midi.NoteOnEvent(tick=2, channel=2, data=[61, 110]),
   midi.NoteOnEvent(tick=46, channel=2, data=[61, 0]),
   midi.NoteOnEvent(tick=2, channel=2, data=[61, 110]),
   midi.NoteOnEvent(tick=46, channel=2, data=[61, 0]),
   midi.NoteOnEvent(tick=2, channel=2, data=[61, 110]),
   midi.NoteOnEvent(tick=46, channel=2, data=[61, 0]),
   midi.NoteOnEvent(tick=2, channel=2, data=[61, 110]),
   midi.NoteOnEvent(tick=46, channel=2, data=[61, 0]),
   midi.NoteOnEvent(tick=2, channel=2, data=[61, 110]),
   midi.NoteOnEvent(tick=46, channel=2, data=[61, 0]),
   midi.NoteOnEvent(tick=2, channel=2, data=[61, 110]),
   midi.NoteOnEvent(tick=46, channel=2, data=[61, 0]),
   midi.NoteOnEvent(tick=2, channel=2, data=[61, 110]),
   midi.NoteOnEvent(tick=0, channel=2, data=[68, 110]),
   midi.NoteOnEvent(tick=94, channel=2, data=[61, 0]),
   midi.NoteOnEvent(tick=0, channel=2, data=[68, 0]),
   midi.NoteOnEvent(tick=2, channel=2, data=[61, 110]),
   midi.NoteOnEvent(tick=46, channel=2, data=[61, 0]),
   midi.NoteOnEvent(tick=2, channel=2, data=[61, 110]),
   midi.NoteOnEvent(tick=46, channel=2, data=[61, 0]),
   midi.NoteOnEvent(tick=2, channel=2, data=[61, 110]),
   midi.NoteOnEvent(tick=46, channel=2, data=[61, 0]),
   midi.NoteOnEvent(tick=2, channel=2, data=[61, 110]),
   midi.NoteOnEvent(tick=46, channel=2, data=[61, 0]),
   midi.NoteOnEvent(tick=2, channel=2, data=[61, 110]),
   midi.NoteOnEvent(tick=46, channel=2, data=[61, 0]),
   midi.NoteOnEvent(tick=2, channel=2, data=[61, 110]),
   midi.NoteOnEvent(tick=46, channel=2, data=[61, 0]),
   midi.NoteOnEvent(tick=2, channel=2, data=[61, 110]),
   midi.NoteOnEvent(tick=94, channel=2, data=[61, 0]),
   midi.NoteOnEvent(tick=2, channel=2, data=[61, 110]),
   midi.NoteOnEvent(tick=46, channel=2, data=[61, 0]),
   midi.NoteOnEvent(tick=2, channel=2, data=[61, 110]),
   midi.NoteOnEvent(tick=46, channel=2, data=[61, 0]),
   midi.NoteOnEvent(tick=2, channel=2, data=[61, 110]),
   midi.NoteOnEvent(tick=46, channel=2, data=[61, 0]),
   midi.NoteOnEvent(tick=2, channel=2, data=[61, 110]),
   midi.NoteOnEvent(tick=46, channel=2, data=[61, 0]),
   midi.NoteOnEvent(tick=2, channel=2, data=[61, 110]),
   midi.NoteOnEvent(tick=46, channel=2, data=[61, 0]),
   midi.NoteOnEvent(tick=2, channel=2, data=[61, 110]),
   midi.NoteOnEvent(tick=46, channel=2, data=[61, 0]),
   midi.NoteOnEvent(tick=2, channel=2, data=[61, 110]),
   midi.NoteOnEvent(tick=0, channel=2, data=[68, 110]),
   midi.NoteOnEvent(tick=94, channel=2, data=[61, 0]),
   midi.NoteOnEvent(tick=0, channel=2, data=[68, 0]),
   midi.NoteOnEvent(tick=2, channel=2, data=[61, 110]),
   midi.NoteOnEvent(tick=46, channel=2, data=[61, 0]),
   midi.NoteOnEvent(tick=2, channel=2, data=[61, 110]),
   midi.NoteOnEvent(tick=46, channel=2, data=[61, 0]),
   midi.NoteOnEvent(tick=2, channel=2, data=[61, 110]),
   midi.NoteOnEvent(tick=46, channel=2, data=[61, 0]),
   midi.NoteOnEvent(tick=2, channel=2, data=[61, 110]),
   midi.NoteOnEvent(tick=46, channel=2, data=[61, 0]),
   midi.NoteOnEvent(tick=2, channel=2, data=[61, 110]),
   midi.NoteOnEvent(tick=46, channel=2, data=[61, 0]),
   midi.NoteOnEvent(tick=2, channel=2, data=[61, 110]),
   midi.NoteOnEvent(tick=46, channel=2, data=[61, 0]),
   midi.NoteOnEvent(tick=2, channel=2, data=[61, 110]),
   midi.NoteOnEvent(tick=94, channel=2, data=[61, 0]),
   midi.NoteOnEvent(tick=2, channel=2, data=[61, 110]),
   midi.NoteOnEvent(tick=46, channel=2, data=[61, 0]),
   midi.NoteOnEvent(tick=2, channel=2, data=[61, 110]),
   midi.NoteOnEvent(tick=46, channel=2, data=[61, 0]),
   midi.NoteOnEvent(tick=2, channel=2, data=[59, 110]),
   midi.NoteOnEvent(tick=0, channel=2, data=[66, 110]),
   midi.NoteOnEvent(tick=94, channel=2, data=[59, 0]),
   midi.NoteOnEvent(tick=0, channel=2, data=[66, 0]),
   midi.NoteOnEvent(tick=2, channel=2, data=[59, 110]),
   midi.NoteOnEvent(tick=46, channel=2, data=[59, 0]),
   midi.NoteOnEvent(tick=2, channel=2, data=[59, 110]),
   midi.NoteOnEvent(tick=46, channel=2, data=[59, 0]),
   midi.NoteOnEvent(tick=2, channel=2, data=[59, 110]),
   midi.NoteOnEvent(tick=46, channel=2, data=[59, 0]),
   midi.NoteOnEvent(tick=2, channel=2, data=[59, 110]),
   midi.NoteOnEvent(tick=46, channel=2, data=[59, 0]),
   midi.NoteOnEvent(tick=2, channel=2, data=[59, 110]),
   midi.NoteOnEvent(tick=46, channel=2, data=[59, 0]),
   midi.NoteOnEvent(tick=2, channel=2, data=[59, 110]),
   midi.NoteOnEvent(tick=46, channel=2, data=[59, 0]),
   midi.NoteOnEvent(tick=2, channel=2, data=[59, 110]),
   midi.NoteOnEvent(tick=94, channel=2, data=[59, 0]),
   midi.NoteOnEvent(tick=2, channel=2, data=[59, 110]),
   midi.NoteOnEvent(tick=46, channel=2, data=[59, 0]),
   midi.NoteOnEvent(tick=2, channel=2, data=[59, 110]),
   midi.NoteOnEvent(tick=46, channel=2, data=[59, 0]),
   midi.NoteOnEvent(tick=2, channel=2, data=[61, 110]),
   midi.NoteOnEvent(tick=0, channel=2, data=[68, 110]),
   midi.NoteOnEvent(tick=94, channel=2, data=[61, 0]),
   midi.NoteOnEvent(tick=0, channel=2, data=[68, 0]),
   midi.NoteOnEvent(tick=2, channel=2, data=[61, 110]),
   midi.NoteOnEvent(tick=46, channel=2, data=[61, 0]),
   midi.NoteOnEvent(tick=2, channel=2, data=[61, 110]),
   midi.NoteOnEvent(tick=46, channel=2, data=[61, 0]),
   midi.NoteOnEvent(tick=2, channel=2, data=[61, 110]),
   midi.NoteOnEvent(tick=46, channel=2, data=[61, 0]),
   midi.NoteOnEvent(tick=2, channel=2, data=[61, 110]),
   midi.NoteOnEvent(tick=46, channel=2, data=[61, 0]),
   midi.NoteOnEvent(tick=2, channel=2, data=[61, 110]),
   midi.NoteOnEvent(tick=46, channel=2, data=[61, 0]),
   midi.NoteOnEvent(tick=2, channel=2, data=[61, 110]),
   midi.NoteOnEvent(tick=46, channel=2, data=[61, 0]),
   midi.NoteOnEvent(tick=2, channel=2, data=[61, 110]),
   midi.NoteOnEvent(tick=94, channel=2, data=[61, 0]),
   midi.NoteOnEvent(tick=2, channel=2, data=[61, 110]),
   midi.NoteOnEvent(tick=46, channel=2, data=[61, 0]),
   midi.NoteOnEvent(tick=2, channel=2, data=[61, 110]),
   midi.NoteOnEvent(tick=46, channel=2, data=[61, 0]),
   midi.NoteOnEvent(tick=2, channel=2, data=[61, 110]),
   midi.NoteOnEvent(tick=46, channel=2, data=[61, 0]),
   midi.NoteOnEvent(tick=2, channel=2, data=[61, 110]),
   midi.NoteOnEvent(tick=46, channel=2, data=[61, 0]),
   midi.NoteOnEvent(tick=2, channel=2, data=[61, 110]),
   midi.NoteOnEvent(tick=46, channel=2, data=[61, 0]),
   midi.NoteOnEvent(tick=2, channel=2, data=[61, 110]),
   midi.NoteOnEvent(tick=46, channel=2, data=[61, 0]),
   midi.NoteOnEvent(tick=2, channel=2, data=[61, 110]),
   midi.NoteOnEvent(tick=0, channel=2, data=[68, 110]),
   midi.NoteOnEvent(tick=94, channel=2, data=[61, 0]),
   midi.NoteOnEvent(tick=0, channel=2, data=[68, 0]),
   midi.NoteOnEvent(tick=2, channel=2, data=[61, 110]),
   midi.NoteOnEvent(tick=46, channel=2, data=[61, 0]),
   midi.NoteOnEvent(tick=2, channel=2, data=[61, 110]),
   midi.NoteOnEvent(tick=46, channel=2, data=[61, 0]),
   midi.NoteOnEvent(tick=2, channel=2, data=[61, 110]),
   midi.NoteOnEvent(tick=46, channel=2, data=[61, 0]),
   midi.NoteOnEvent(tick=2, channel=2, data=[61, 110]),
   midi.NoteOnEvent(tick=46, channel=2, data=[61, 0]),
   midi.NoteOnEvent(tick=2, channel=2, data=[61, 110]),
   midi.NoteOnEvent(tick=46, channel=2, data=[61, 0]),
   midi.NoteOnEvent(tick=2, channel=2, data=[61, 110]),
   midi.NoteOnEvent(tick=46, channel=2, data=[61, 0]),
   midi.NoteOnEvent(tick=2, channel=2, data=[61, 110]),
   midi.NoteOnEvent(tick=94, channel=2, data=[61, 0]),
   midi.NoteOnEvent(tick=2, channel=2, data=[61, 110]),
   midi.NoteOnEvent(tick=46, channel=2, data=[61, 0]),
   midi.NoteOnEvent(tick=2, channel=2, data=[61, 110]),
   midi.NoteOnEvent(tick=46, channel=2, data=[61, 0]),
   midi.NoteOnEvent(tick=2, channel=2, data=[61, 110]),
   midi.NoteOnEvent(tick=46, channel=2, data=[61, 0]),
   midi.NoteOnEvent(tick=2, channel=2, data=[61, 110]),
   midi.NoteOnEvent(tick=46, channel=2, data=[61, 0]),
   midi.NoteOnEvent(tick=2, channel=2, data=[61, 110]),
   midi.NoteOnEvent(tick=46, channel=2, data=[61, 0]),
   midi.NoteOnEvent(tick=2, channel=2, data=[61, 110]),
   midi.NoteOnEvent(tick=46, channel=2, data=[61, 0]),
   midi.NoteOnEvent(tick=2, channel=2, data=[61, 110]),
   midi.NoteOnEvent(tick=0, channel=2, data=[68, 110]),
   midi.NoteOnEvent(tick=94, channel=2, data=[61, 0]),
   midi.NoteOnEvent(tick=0, channel=2, data=[68, 0]),
   midi.NoteOnEvent(tick=2, channel=2, data=[61, 110]),
   midi.NoteOnEvent(tick=46, channel=2, data=[61, 0]),
   midi.NoteOnEvent(tick=2, channel=2, data=[61, 110]),
   midi.NoteOnEvent(tick=46, channel=2, data=[61, 0]),
   midi.NoteOnEvent(tick=2, channel=2, data=[61, 110]),
   midi.NoteOnEvent(tick=46, channel=2, data=[61, 0]),
   midi.NoteOnEvent(tick=2, channel=2, data=[61, 110]),
   midi.NoteOnEvent(tick=46, channel=2, data=[61, 0]),
   midi.NoteOnEvent(tick=2, channel=2, data=[61, 110]),
   midi.NoteOnEvent(tick=46, channel=2, data=[61, 0]),
   midi.NoteOnEvent(tick=2, channel=2, data=[61, 110]),
   midi.NoteOnEvent(tick=46, channel=2, data=[61, 0]),
   midi.NoteOnEvent(tick=2, channel=2, data=[61, 110]),
   midi.NoteOnEvent(tick=94, channel=2, data=[61, 0]),
   midi.NoteOnEvent(tick=2, channel=2, data=[61, 110]),
   midi.NoteOnEvent(tick=46, channel=2, data=[61, 0]),
   midi.NoteOnEvent(tick=2, channel=2, data=[61, 110]),
   midi.NoteOnEvent(tick=46, channel=2, data=[61, 0]),
   midi.NoteOnEvent(tick=2, channel=2, data=[59, 110]),
   midi.NoteOnEvent(tick=0, channel=2, data=[66, 110]),
   midi.NoteOnEvent(tick=94, channel=2, data=[59, 0]),
   midi.NoteOnEvent(tick=0, channel=2, data=[66, 0]),
   midi.NoteOnEvent(tick=2, channel=2, data=[59, 110]),
   midi.NoteOnEvent(tick=46, channel=2, data=[59, 0]),
   midi.NoteOnEvent(tick=2, channel=2, data=[59, 110]),
   midi.NoteOnEvent(tick=46, channel=2, data=[59, 0]),
   midi.NoteOnEvent(tick=2, channel=2, data=[59, 110]),
   midi.NoteOnEvent(tick=46, channel=2, data=[59, 0]),
   midi.NoteOnEvent(tick=2, channel=2, data=[59, 110]),
   midi.NoteOnEvent(tick=46, channel=2, data=[59, 0]),
   midi.NoteOnEvent(tick=2, channel=2, data=[59, 110]),
   midi.NoteOnEvent(tick=46, channel=2, data=[59, 0]),
   midi.NoteOnEvent(tick=2, channel=2, data=[59, 110]),
   midi.NoteOnEvent(tick=46, channel=2, data=[59, 0]),
   midi.NoteOnEvent(tick=2, channel=2, data=[59, 110]),
   midi.NoteOnEvent(tick=94, channel=2, data=[59, 0]),
   midi.NoteOnEvent(tick=2, channel=2, data=[59, 110]),
   midi.NoteOnEvent(tick=46, channel=2, data=[59, 0]),
   midi.NoteOnEvent(tick=2, channel=2, data=[59, 110]),
   midi.NoteOnEvent(tick=46, channel=2, data=[59, 0]),
   midi.NoteOnEvent(tick=2, channel=2, data=[61, 110]),
   midi.NoteOnEvent(tick=0, channel=2, data=[68, 110]),
   midi.NoteOnEvent(tick=94, channel=2, data=[61, 0]),
   midi.NoteOnEvent(tick=0, channel=2, data=[68, 0]),
   midi.NoteOnEvent(tick=2, channel=2, data=[61, 110]),
   midi.NoteOnEvent(tick=46, channel=2, data=[61, 0]),
   midi.NoteOnEvent(tick=2, channel=2, data=[61, 110]),
   midi.NoteOnEvent(tick=46, channel=2, data=[61, 0]),
   midi.NoteOnEvent(tick=2, channel=2, data=[61, 110]),
   midi.NoteOnEvent(tick=46, channel=2, data=[61, 0]),
   midi.NoteOnEvent(tick=2, channel=2, data=[61, 110]),
   midi.NoteOnEvent(tick=46, channel=2, data=[61, 0]),
   midi.NoteOnEvent(tick=2, channel=2, data=[61, 110]),
   midi.NoteOnEvent(tick=46, channel=2, data=[61, 0]),
   midi.NoteOnEvent(tick=2, channel=2, data=[61, 110]),
   midi.NoteOnEvent(tick=46, channel=2, data=[61, 0]),
   midi.NoteOnEvent(tick=2, channel=2, data=[61, 110]),
   midi.NoteOnEvent(tick=94, channel=2, data=[61, 0]),
   midi.NoteOnEvent(tick=2, channel=2, data=[61, 110]),
   midi.NoteOnEvent(tick=46, channel=2, data=[61, 0]),
   midi.NoteOnEvent(tick=2, channel=2, data=[61, 110]),
   midi.NoteOnEvent(tick=46, channel=2, data=[61, 0]),
   midi.NoteOnEvent(tick=2, channel=2, data=[61, 110]),
   midi.NoteOnEvent(tick=46, channel=2, data=[61, 0]),
   midi.NoteOnEvent(tick=2, channel=2, data=[61, 110]),
   midi.NoteOnEvent(tick=46, channel=2, data=[61, 0]),
   midi.NoteOnEvent(tick=2, channel=2, data=[61, 110]),
   midi.NoteOnEvent(tick=46, channel=2, data=[61, 0]),
   midi.NoteOnEvent(tick=2, channel=2, data=[61, 110]),
   midi.NoteOnEvent(tick=46, channel=2, data=[61, 0]),
   midi.NoteOnEvent(tick=2, channel=2, data=[61, 110]),
   midi.NoteOnEvent(tick=0, channel=2, data=[68, 110]),
   midi.NoteOnEvent(tick=94, channel=2, data=[61, 0]),
   midi.NoteOnEvent(tick=0, channel=2, data=[68, 0]),
   midi.NoteOnEvent(tick=2, channel=2, data=[61, 110]),
   midi.NoteOnEvent(tick=46, channel=2, data=[61, 0]),
   midi.NoteOnEvent(tick=2, channel=2, data=[61, 110]),
   midi.NoteOnEvent(tick=46, channel=2, data=[61, 0]),
   midi.NoteOnEvent(tick=2, channel=2, data=[61, 110]),
   midi.NoteOnEvent(tick=46, channel=2, data=[61, 0]),
   midi.NoteOnEvent(tick=2, channel=2, data=[61, 110]),
   midi.NoteOnEvent(tick=46, channel=2, data=[61, 0]),
   midi.NoteOnEvent(tick=2, channel=2, data=[61, 110]),
   midi.NoteOnEvent(tick=46, channel=2, data=[61, 0]),
   midi.NoteOnEvent(tick=2, channel=2, data=[61, 110]),
   midi.NoteOnEvent(tick=46, channel=2, data=[61, 0]),
   midi.NoteOnEvent(tick=2, channel=2, data=[61, 110]),
   midi.NoteOnEvent(tick=94, channel=2, data=[61, 0]),
   midi.NoteOnEvent(tick=2, channel=2, data=[61, 110]),
   midi.NoteOnEvent(tick=46, channel=2, data=[61, 0]),
   midi.NoteOnEvent(tick=2, channel=2, data=[61, 110]),
   midi.NoteOnEvent(tick=46, channel=2, data=[61, 0]),
   midi.NoteOnEvent(tick=2, channel=2, data=[61, 110]),
   midi.NoteOnEvent(tick=46, channel=2, data=[61, 0]),
   midi.NoteOnEvent(tick=2, channel=2, data=[61, 110]),
   midi.NoteOnEvent(tick=46, channel=2, data=[61, 0]),
   midi.NoteOnEvent(tick=2, channel=2, data=[61, 110]),
   midi.NoteOnEvent(tick=46, channel=2, data=[61, 0]),
   midi.NoteOnEvent(tick=2, channel=2, data=[61, 110]),
   midi.NoteOnEvent(tick=46, channel=2, data=[61, 0]),
   midi.NoteOnEvent(tick=2, channel=2, data=[61, 110]),
   midi.NoteOnEvent(tick=0, channel=2, data=[68, 110]),
   midi.NoteOnEvent(tick=94, channel=2, data=[61, 0]),
   midi.NoteOnEvent(tick=0, channel=2, data=[68, 0]),
   midi.NoteOnEvent(tick=2, channel=2, data=[61, 110]),
   midi.NoteOnEvent(tick=46, channel=2, data=[61, 0]),
   midi.NoteOnEvent(tick=2, channel=2, data=[61, 110]),
   midi.NoteOnEvent(tick=46, channel=2, data=[61, 0]),
   midi.NoteOnEvent(tick=2, channel=2, data=[61, 110]),
   midi.NoteOnEvent(tick=46, channel=2, data=[61, 0]),
   midi.NoteOnEvent(tick=2, channel=2, data=[61, 110]),
   midi.NoteOnEvent(tick=46, channel=2, data=[61, 0]),
   midi.NoteOnEvent(tick=2, channel=2, data=[61, 110]),
   midi.NoteOnEvent(tick=46, channel=2, data=[61, 0]),
   midi.NoteOnEvent(tick=2, channel=2, data=[61, 110]),
   midi.NoteOnEvent(tick=46, channel=2, data=[61, 0]),
   midi.NoteOnEvent(tick=2, channel=2, data=[61, 110]),
   midi.NoteOnEvent(tick=94, channel=2, data=[61, 0]),
   midi.NoteOnEvent(tick=2, channel=2, data=[61, 110]),
   midi.NoteOnEvent(tick=46, channel=2, data=[61, 0]),
   midi.NoteOnEvent(tick=2, channel=2, data=[61, 110]),
   midi.NoteOnEvent(tick=46, channel=2, data=[61, 0]),
   midi.NoteOnEvent(tick=2, channel=2, data=[59, 110]),
   midi.NoteOnEvent(tick=0, channel=2, data=[66, 110]),
   midi.NoteOnEvent(tick=94, channel=2, data=[59, 0]),
   midi.NoteOnEvent(tick=0, channel=2, data=[66, 0]),
   midi.NoteOnEvent(tick=2, channel=2, data=[59, 110]),
   midi.NoteOnEvent(tick=46, channel=2, data=[59, 0]),
   midi.NoteOnEvent(tick=2, channel=2, data=[59, 110]),
   midi.NoteOnEvent(tick=46, channel=2, data=[59, 0]),
   midi.NoteOnEvent(tick=2, channel=2, data=[59, 110]),
   midi.NoteOnEvent(tick=46, channel=2, data=[59, 0]),
   midi.NoteOnEvent(tick=2, channel=2, data=[59, 110]),
   midi.NoteOnEvent(tick=46, channel=2, data=[59, 0]),
   midi.NoteOnEvent(tick=2, channel=2, data=[59, 110]),
   midi.NoteOnEvent(tick=46, channel=2, data=[59, 0]),
   midi.NoteOnEvent(tick=2, channel=2, data=[59, 110]),
   midi.NoteOnEvent(tick=46, channel=2, data=[59, 0]),
   midi.NoteOnEvent(tick=2, channel=2, data=[59, 110]),
   midi.NoteOnEvent(tick=94, channel=2, data=[59, 0]),
   midi.NoteOnEvent(tick=2, channel=2, data=[59, 110]),
   midi.NoteOnEvent(tick=46, channel=2, data=[59, 0]),
   midi.NoteOnEvent(tick=2, channel=2, data=[59, 110]),
   midi.NoteOnEvent(tick=46, channel=2, data=[59, 0]),
   midi.NoteOnEvent(tick=2, channel=2, data=[59, 110]),
   midi.NoteOnEvent(tick=0, channel=2, data=[66, 110]),
   midi.NoteOnEvent(tick=94, channel=2, data=[59, 0]),
   midi.NoteOnEvent(tick=0, channel=2, data=[66, 0]),
   midi.NoteOnEvent(tick=2, channel=2, data=[59, 110]),
   midi.NoteOnEvent(tick=46, channel=2, data=[59, 0]),
   midi.NoteOnEvent(tick=2, channel=2, data=[59, 110]),
   midi.NoteOnEvent(tick=46, channel=2, data=[59, 0]),
   midi.NoteOnEvent(tick=2, channel=2, data=[59, 110]),
   midi.NoteOnEvent(tick=46, channel=2, data=[59, 0]),
   midi.NoteOnEvent(tick=2, channel=2, data=[59, 110]),
   midi.NoteOnEvent(tick=46, channel=2, data=[59, 0]),
   midi.NoteOnEvent(tick=2, channel=2, data=[59, 110]),
   midi.NoteOnEvent(tick=46, channel=2, data=[59, 0]),
   midi.NoteOnEvent(tick=2, channel=2, data=[59, 110]),
   midi.NoteOnEvent(tick=46, channel=2, data=[59, 0]),
   midi.NoteOnEvent(tick=2, channel=2, data=[59, 110]),
   midi.NoteOnEvent(tick=94, channel=2, data=[59, 0]),
   midi.NoteOnEvent(tick=2, channel=2, data=[59, 110]),
   midi.NoteOnEvent(tick=46, channel=2, data=[59, 0]),
   midi.NoteOnEvent(tick=2, channel=2, data=[59, 110]),
   midi.NoteOnEvent(tick=46, channel=2, data=[59, 0]),
   midi.NoteOnEvent(tick=2, channel=2, data=[59, 110]),
   midi.NoteOnEvent(tick=46, channel=2, data=[59, 0]),
   midi.NoteOnEvent(tick=2, channel=2, data=[59, 110]),
   midi.NoteOnEvent(tick=46, channel=2, data=[59, 0]),
   midi.NoteOnEvent(tick=2, channel=2, data=[59, 110]),
   midi.NoteOnEvent(tick=46, channel=2, data=[59, 0]),
   midi.NoteOnEvent(tick=2, channel=2, data=[59, 110]),
   midi.NoteOnEvent(tick=46, channel=2, data=[59, 0]),
   midi.NoteOnEvent(tick=2, channel=2, data=[59, 110]),
   midi.NoteOnEvent(tick=0, channel=2, data=[66, 110]),
   midi.NoteOnEvent(tick=94, channel=2, data=[59, 0]),
   midi.NoteOnEvent(tick=0, channel=2, data=[66, 0]),
   midi.NoteOnEvent(tick=2, channel=2, data=[59, 110]),
   midi.NoteOnEvent(tick=46, channel=2, data=[59, 0]),
   midi.NoteOnEvent(tick=2, channel=2, data=[59, 110]),
   midi.NoteOnEvent(tick=46, channel=2, data=[59, 0]),
   midi.NoteOnEvent(tick=2, channel=2, data=[59, 110]),
   midi.NoteOnEvent(tick=46, channel=2, data=[59, 0]),
   midi.NoteOnEvent(tick=2, channel=2, data=[59, 110]),
   midi.NoteOnEvent(tick=46, channel=2, data=[59, 0]),
   midi.NoteOnEvent(tick=2, channel=2, data=[59, 110]),
   midi.NoteOnEvent(tick=46, channel=2, data=[59, 0]),
   midi.NoteOnEvent(tick=2, channel=2, data=[59, 110]),
   midi.NoteOnEvent(tick=46, channel=2, data=[59, 0]),
   midi.NoteOnEvent(tick=2, channel=2, data=[59, 110]),
   midi.NoteOnEvent(tick=94, channel=2, data=[59, 0]),
   midi.NoteOnEvent(tick=2, channel=2, data=[59, 110]),
   midi.NoteOnEvent(tick=46, channel=2, data=[59, 0]),
   midi.NoteOnEvent(tick=2, channel=2, data=[59, 110]),
   midi.NoteOnEvent(tick=46, channel=2, data=[59, 0]),
   midi.NoteOnEvent(tick=2, channel=2, data=[59, 110]),
   midi.NoteOnEvent(tick=46, channel=2, data=[59, 0]),
   midi.NoteOnEvent(tick=2, channel=2, data=[59, 110]),
   midi.NoteOnEvent(tick=46, channel=2, data=[59, 0]),
   midi.NoteOnEvent(tick=2, channel=2, data=[59, 110]),
   midi.NoteOnEvent(tick=46, channel=2, data=[59, 0]),
   midi.NoteOnEvent(tick=2, channel=2, data=[59, 110]),
   midi.NoteOnEvent(tick=46, channel=2, data=[59, 0]),
   midi.NoteOnEvent(tick=2, channel=2, data=[59, 110]),
   midi.NoteOnEvent(tick=0, channel=2, data=[66, 110]),
   midi.NoteOnEvent(tick=94, channel=2, data=[59, 0]),
   midi.NoteOnEvent(tick=0, channel=2, data=[66, 0]),
   midi.NoteOnEvent(tick=2, channel=2, data=[59, 110]),
   midi.NoteOnEvent(tick=46, channel=2, data=[59, 0]),
   midi.NoteOnEvent(tick=2, channel=2, data=[59, 110]),
   midi.NoteOnEvent(tick=46, channel=2, data=[59, 0]),
   midi.NoteOnEvent(tick=2, channel=2, data=[59, 110]),
   midi.NoteOnEvent(tick=46, channel=2, data=[59, 0]),
   midi.NoteOnEvent(tick=2, channel=2, data=[59, 110]),
   midi.NoteOnEvent(tick=46, channel=2, data=[59, 0]),
   midi.NoteOnEvent(tick=2, channel=2, data=[59, 110]),
   midi.NoteOnEvent(tick=46, channel=2, data=[59, 0]),
   midi.NoteOnEvent(tick=2, channel=2, data=[59, 110]),
   midi.NoteOnEvent(tick=46, channel=2, data=[59, 0]),
   midi.NoteOnEvent(tick=2, channel=2, data=[59, 110]),
   midi.NoteOnEvent(tick=94, channel=2, data=[59, 0]),
   midi.NoteOnEvent(tick=2, channel=2, data=[59, 110]),
   midi.NoteOnEvent(tick=46, channel=2, data=[59, 0]),
   midi.NoteOnEvent(tick=2, channel=2, data=[59, 110]),
   midi.NoteOnEvent(tick=46, channel=2, data=[59, 0]),
   midi.NoteOnEvent(tick=2, channel=2, data=[57, 110]),
   midi.NoteOnEvent(tick=0, channel=2, data=[64, 110]),
   midi.NoteOnEvent(tick=94, channel=2, data=[57, 0]),
   midi.NoteOnEvent(tick=0, channel=2, data=[64, 0]),
   midi.NoteOnEvent(tick=2, channel=2, data=[57, 110]),
   midi.NoteOnEvent(tick=46, channel=2, data=[57, 0]),
   midi.NoteOnEvent(tick=2, channel=2, data=[57, 110]),
   midi.NoteOnEvent(tick=46, channel=2, data=[57, 0]),
   midi.NoteOnEvent(tick=2, channel=2, data=[57, 110]),
   midi.NoteOnEvent(tick=46, channel=2, data=[57, 0]),
   midi.NoteOnEvent(tick=2, channel=2, data=[57, 110]),
   midi.NoteOnEvent(tick=46, channel=2, data=[57, 0]),
   midi.NoteOnEvent(tick=2, channel=2, data=[57, 110]),
   midi.NoteOnEvent(tick=46, channel=2, data=[57, 0]),
   midi.NoteOnEvent(tick=2, channel=2, data=[57, 110]),
   midi.NoteOnEvent(tick=46, channel=2, data=[57, 0]),
   midi.NoteOnEvent(tick=2, channel=2, data=[57, 110]),
   midi.NoteOnEvent(tick=94, channel=2, data=[57, 0]),
   midi.NoteOnEvent(tick=2, channel=2, data=[57, 110]),
   midi.NoteOnEvent(tick=46, channel=2, data=[57, 0]),
   midi.NoteOnEvent(tick=2, channel=2, data=[57, 110]),
   midi.NoteOnEvent(tick=46, channel=2, data=[57, 0]),
   midi.NoteOnEvent(tick=2, channel=2, data=[59, 110]),
   midi.NoteOnEvent(tick=0, channel=2, data=[66, 110]),
   midi.NoteOnEvent(tick=94, channel=2, data=[59, 0]),
   midi.NoteOnEvent(tick=0, channel=2, data=[66, 0]),
   midi.NoteOnEvent(tick=2, channel=2, data=[59, 110]),
   midi.NoteOnEvent(tick=46, channel=2, data=[59, 0]),
   midi.NoteOnEvent(tick=2, channel=2, data=[59, 110]),
   midi.NoteOnEvent(tick=46, channel=2, data=[59, 0]),
   midi.NoteOnEvent(tick=2, channel=2, data=[59, 110]),
   midi.NoteOnEvent(tick=46, channel=2, data=[59, 0]),
   midi.NoteOnEvent(tick=2, channel=2, data=[59, 110]),
   midi.NoteOnEvent(tick=46, channel=2, data=[59, 0]),
   midi.NoteOnEvent(tick=2, channel=2, data=[59, 110]),
   midi.NoteOnEvent(tick=46, channel=2, data=[59, 0]),
   midi.NoteOnEvent(tick=2, channel=2, data=[59, 110]),
   midi.NoteOnEvent(tick=46, channel=2, data=[59, 0]),
   midi.NoteOnEvent(tick=2, channel=2, data=[59, 110]),
   midi.NoteOnEvent(tick=94, channel=2, data=[59, 0]),
   midi.NoteOnEvent(tick=2, channel=2, data=[59, 110]),
   midi.NoteOnEvent(tick=46, channel=2, data=[59, 0]),
   midi.NoteOnEvent(tick=2, channel=2, data=[59, 110]),
   midi.NoteOnEvent(tick=46, channel=2, data=[59, 0]),
   midi.NoteOnEvent(tick=2, channel=2, data=[59, 110]),
   midi.NoteOnEvent(tick=46, channel=2, data=[59, 0]),
   midi.NoteOnEvent(tick=2, channel=2, data=[59, 110]),
   midi.NoteOnEvent(tick=46, channel=2, data=[59, 0]),
   midi.NoteOnEvent(tick=2, channel=2, data=[59, 110]),
   midi.NoteOnEvent(tick=46, channel=2, data=[59, 0]),
   midi.NoteOnEvent(tick=2, channel=2, data=[59, 110]),
   midi.NoteOnEvent(tick=46, channel=2, data=[59, 0]),
   midi.NoteOnEvent(tick=2, channel=2, data=[59, 110]),
   midi.NoteOnEvent(tick=0, channel=2, data=[66, 110]),
   midi.NoteOnEvent(tick=94, channel=2, data=[59, 0]),
   midi.NoteOnEvent(tick=0, channel=2, data=[66, 0]),
   midi.NoteOnEvent(tick=2, channel=2, data=[59, 110]),
   midi.NoteOnEvent(tick=46, channel=2, data=[59, 0]),
   midi.NoteOnEvent(tick=2, channel=2, data=[59, 110]),
   midi.NoteOnEvent(tick=46, channel=2, data=[59, 0]),
   midi.NoteOnEvent(tick=2, channel=2, data=[59, 110]),
   midi.NoteOnEvent(tick=46, channel=2, data=[59, 0]),
   midi.NoteOnEvent(tick=2, channel=2, data=[59, 110]),
   midi.NoteOnEvent(tick=46, channel=2, data=[59, 0]),
   midi.NoteOnEvent(tick=2, channel=2, data=[59, 110]),
   midi.NoteOnEvent(tick=46, channel=2, data=[59, 0]),
   midi.NoteOnEvent(tick=2, channel=2, data=[59, 110]),
   midi.NoteOnEvent(tick=46, channel=2, data=[59, 0]),
   midi.NoteOnEvent(tick=2, channel=2, data=[59, 110]),
   midi.NoteOnEvent(tick=94, channel=2, data=[59, 0]),
   midi.NoteOnEvent(tick=2, channel=2, data=[59, 110]),
   midi.NoteOnEvent(tick=46, channel=2, data=[59, 0]),
   midi.NoteOnEvent(tick=2, channel=2, data=[59, 110]),
   midi.NoteOnEvent(tick=46, channel=2, data=[59, 0]),
   midi.NoteOnEvent(tick=2, channel=2, data=[59, 110]),
   midi.NoteOnEvent(tick=46, channel=2, data=[59, 0]),
   midi.NoteOnEvent(tick=2, channel=2, data=[59, 110]),
   midi.NoteOnEvent(tick=46, channel=2, data=[59, 0]),
   midi.NoteOnEvent(tick=2, channel=2, data=[59, 110]),
   midi.NoteOnEvent(tick=46, channel=2, data=[59, 0]),
   midi.NoteOnEvent(tick=2, channel=2, data=[59, 110]),
   midi.NoteOnEvent(tick=46, channel=2, data=[59, 0]),
   midi.NoteOnEvent(tick=2, channel=2, data=[59, 110]),
   midi.NoteOnEvent(tick=0, channel=2, data=[66, 110]),
   midi.NoteOnEvent(tick=94, channel=2, data=[59, 0]),
   midi.NoteOnEvent(tick=0, channel=2, data=[66, 0]),
   midi.NoteOnEvent(tick=2, channel=2, data=[59, 110]),
   midi.NoteOnEvent(tick=46, channel=2, data=[59, 0]),
   midi.NoteOnEvent(tick=2, channel=2, data=[59, 110]),
   midi.NoteOnEvent(tick=46, channel=2, data=[59, 0]),
   midi.NoteOnEvent(tick=2, channel=2, data=[59, 110]),
   midi.NoteOnEvent(tick=46, channel=2, data=[59, 0]),
   midi.NoteOnEvent(tick=2, channel=2, data=[59, 110]),
   midi.NoteOnEvent(tick=46, channel=2, data=[59, 0]),
   midi.NoteOnEvent(tick=2, channel=2, data=[59, 110]),
   midi.NoteOnEvent(tick=46, channel=2, data=[59, 0]),
   midi.NoteOnEvent(tick=2, channel=2, data=[59, 110]),
   midi.NoteOnEvent(tick=46, channel=2, data=[59, 0]),
   midi.NoteOnEvent(tick=2, channel=2, data=[59, 110]),
   midi.NoteOnEvent(tick=94, channel=2, data=[59, 0]),
   midi.NoteOnEvent(tick=2, channel=2, data=[59, 110]),
   midi.NoteOnEvent(tick=46, channel=2, data=[59, 0]),
   midi.NoteOnEvent(tick=2, channel=2, data=[59, 110]),
   midi.NoteOnEvent(tick=46, channel=2, data=[59, 0]),
   midi.NoteOnEvent(tick=2, channel=2, data=[57, 110]),
   midi.NoteOnEvent(tick=0, channel=2, data=[64, 110]),
   midi.NoteOnEvent(tick=94, channel=2, data=[57, 0]),
   midi.NoteOnEvent(tick=0, channel=2, data=[64, 0]),
   midi.NoteOnEvent(tick=2, channel=2, data=[57, 110]),
   midi.NoteOnEvent(tick=46, channel=2, data=[57, 0]),
   midi.NoteOnEvent(tick=2, channel=2, data=[57, 110]),
   midi.NoteOnEvent(tick=46, channel=2, data=[57, 0]),
   midi.NoteOnEvent(tick=2, channel=2, data=[57, 110]),
   midi.NoteOnEvent(tick=46, channel=2, data=[57, 0]),
   midi.NoteOnEvent(tick=2, channel=2, data=[57, 110]),
   midi.NoteOnEvent(tick=46, channel=2, data=[57, 0]),
   midi.NoteOnEvent(tick=2, channel=2, data=[57, 110]),
   midi.NoteOnEvent(tick=46, channel=2, data=[57, 0]),
   midi.NoteOnEvent(tick=2, channel=2, data=[57, 110]),
   midi.NoteOnEvent(tick=46, channel=2, data=[57, 0]),
   midi.NoteOnEvent(tick=2, channel=2, data=[57, 110]),
   midi.NoteOnEvent(tick=94, channel=2, data=[57, 0]),
   midi.NoteOnEvent(tick=2, channel=2, data=[57, 110]),
   midi.NoteOnEvent(tick=46, channel=2, data=[57, 0]),
   midi.NoteOnEvent(tick=2, channel=2, data=[57, 110]),
   midi.NoteOnEvent(tick=46, channel=2, data=[57, 0]),
   midi.NoteOnEvent(tick=2, channel=2, data=[59, 110]),
   midi.NoteOnEvent(tick=0, channel=2, data=[66, 110]),
   midi.NoteOnEvent(tick=0, channel=2, data=[71, 110]),
   midi.NoteOnEvent(tick=126, channel=2, data=[59, 0]),
   midi.NoteOnEvent(tick=0, channel=2, data=[66, 0]),
   midi.NoteOnEvent(tick=0, channel=2, data=[71, 0]),
   midi.NoteOnEvent(tick=2, channel=2, data=[58, 110]),
   midi.NoteOnEvent(tick=0, channel=2, data=[65, 110]),
   midi.NoteOnEvent(tick=0, channel=2, data=[70, 110]),
   midi.NoteOnEvent(tick=126, channel=2, data=[58, 0]),
   midi.NoteOnEvent(tick=0, channel=2, data=[65, 0]),
   midi.NoteOnEvent(tick=0, channel=2, data=[70, 0]),
   midi.NoteOnEvent(tick=2, channel=2, data=[59, 110]),
   midi.NoteOnEvent(tick=0, channel=2, data=[66, 110]),
   midi.NoteOnEvent(tick=0, channel=2, data=[71, 110]),
   midi.NoteOnEvent(tick=126, channel=2, data=[59, 0]),
   midi.NoteOnEvent(tick=0, channel=2, data=[66, 0]),
   midi.NoteOnEvent(tick=0, channel=2, data=[71, 0]),
   midi.NoteOnEvent(tick=2, channel=2, data=[60, 110]),
   midi.NoteOnEvent(tick=0, channel=2, data=[67, 110]),
   midi.NoteOnEvent(tick=0, channel=2, data=[72, 110]),
   midi.NoteOnEvent(tick=160, channel=2, data=[60, 0]),
   midi.NoteOnEvent(tick=0, channel=2, data=[67, 0]),
   midi.NoteOnEvent(tick=0, channel=2, data=[72, 0]),
   midi.NoteOnEvent(tick=32, channel=2, data=[59, 110]),
   midi.NoteOnEvent(tick=0, channel=2, data=[66, 110]),
   midi.NoteOnEvent(tick=0, channel=2, data=[71, 110]),
   midi.NoteOnEvent(tick=160, channel=2, data=[59, 0]),
   midi.NoteOnEvent(tick=0, channel=2, data=[66, 0]),
   midi.NoteOnEvent(tick=0, channel=2, data=[71, 0]),
   midi.NoteOnEvent(tick=32, channel=2, data=[52, 110]),
   midi.NoteOnEvent(tick=0, channel=2, data=[64, 110]),
   midi.NoteOnEvent(tick=0, channel=2, data=[71, 110]),
   midi.NoteOnEvent(tick=0, channel=2, data=[76, 110]),
   midi.NoteOnEvent(tick=94, channel=2, data=[52, 0]),
   midi.NoteOnEvent(tick=0, channel=2, data=[64, 0]),
   midi.NoteOnEvent(tick=0, channel=2, data=[71, 0]),
   midi.NoteOnEvent(tick=0, channel=2, data=[76, 0]),
   midi.NoteOnEvent(tick=2, channel=2, data=[52, 110]),
   midi.NoteOnEvent(tick=46, channel=2, data=[52, 0]),
   midi.NoteOnEvent(tick=2, channel=2, data=[52, 110]),
   midi.NoteOnEvent(tick=46, channel=2, data=[52, 0]),
   midi.NoteOnEvent(tick=2, channel=2, data=[52, 110]),
   midi.NoteOnEvent(tick=94, channel=2, data=[52, 0]),
   midi.NoteOnEvent(tick=2, channel=2, data=[52, 110]),
   midi.NoteOnEvent(tick=94, channel=2, data=[52, 0]),
   midi.NoteOnEvent(tick=2, channel=2, data=[52, 110]),
   midi.NoteOnEvent(tick=94, channel=2, data=[52, 0]),
   midi.NoteOnEvent(tick=2, channel=2, data=[52, 110]),
   midi.NoteOnEvent(tick=94, channel=2, data=[52, 0]),
   midi.NoteOnEvent(tick=2, channel=2, data=[52, 110]),
   midi.NoteOnEvent(tick=94, channel=2, data=[52, 0]),
   midi.NoteOnEvent(tick=2, channel=2, data=[55, 110]),
   midi.NoteOnEvent(tick=0, channel=2, data=[62, 110]),
   midi.NoteOnEvent(tick=0, channel=2, data=[67, 110]),
   midi.NoteOnEvent(tick=574, channel=2, data=[55, 0]),
   midi.NoteOnEvent(tick=0, channel=2, data=[62, 0]),
   midi.NoteOnEvent(tick=0, channel=2, data=[67, 0]),
   midi.NoteOnEvent(tick=2, channel=2, data=[58, 110]),
   midi.NoteOnEvent(tick=0, channel=2, data=[65, 110]),
   midi.NoteOnEvent(tick=0, channel=2, data=[70, 110]),
   midi.NoteOnEvent(tick=160, channel=2, data=[58, 0]),
   midi.NoteOnEvent(tick=0, channel=2, data=[65, 0]),
   midi.NoteOnEvent(tick=0, channel=2, data=[70, 0]),
   midi.NoteOnEvent(tick=32, channel=2, data=[54, 110]),
   midi.NoteOnEvent(tick=0, channel=2, data=[61, 110]),
   midi.NoteOnEvent(tick=0, channel=2, data=[66, 110]),
   midi.NoteOnEvent(tick=574, channel=2, data=[54, 0]),
   midi.NoteOnEvent(tick=0, channel=2, data=[61, 0]),
   midi.NoteOnEvent(tick=0, channel=2, data=[66, 0]),
   midi.NoteOnEvent(tick=2, channel=2, data=[57, 110]),
   midi.NoteOnEvent(tick=0, channel=2, data=[64, 110]),
   midi.NoteOnEvent(tick=0, channel=2, data=[69, 110]),
   midi.NoteOnEvent(tick=160, channel=2, data=[57, 0]),
   midi.NoteOnEvent(tick=0, channel=2, data=[64, 0]),
   midi.NoteOnEvent(tick=0, channel=2, data=[69, 0]),
   midi.NoteOnEvent(tick=32, channel=2, data=[53, 110]),
   midi.NoteOnEvent(tick=0, channel=2, data=[60, 110]),
   midi.NoteOnEvent(tick=0, channel=2, data=[65, 110]),
   midi.NoteOnEvent(tick=574, channel=2, data=[53, 0]),
   midi.NoteOnEvent(tick=0, channel=2, data=[60, 0]),
   midi.NoteOnEvent(tick=0, channel=2, data=[65, 0]),
   midi.NoteOnEvent(tick=2, channel=2, data=[55, 110]),
   midi.NoteOnEvent(tick=0, channel=2, data=[62, 110]),
   midi.NoteOnEvent(tick=0, channel=2, data=[67, 110]),
   midi.NoteOnEvent(tick=256, channel=2, data=[55, 0]),
   midi.NoteOnEvent(tick=0, channel=2, data=[62, 0]),
   midi.NoteOnEvent(tick=0, channel=2, data=[67, 0]),
   midi.NoteOnEvent(tick=32, channel=2, data=[52, 110]),
   midi.NoteOnEvent(tick=94, channel=2, data=[52, 0]),
   midi.NoteOnEvent(tick=2, channel=2, data=[52, 110]),
   midi.NoteOnEvent(tick=46, channel=2, data=[52, 0]),
   midi.NoteOnEvent(tick=2, channel=2, data=[52, 110]),
   midi.NoteOnEvent(tick=46, channel=2, data=[52, 0]),
   midi.NoteOnEvent(tick=2, channel=2, data=[52, 110]),
   midi.NoteOnEvent(tick=94, channel=2, data=[52, 0]),
   midi.NoteOnEvent(tick=2, channel=2, data=[52, 110]),
   midi.NoteOnEvent(tick=94, channel=2, data=[52, 0]),
   midi.NoteOnEvent(tick=2, channel=2, data=[52, 110]),
   midi.NoteOnEvent(tick=94, channel=2, data=[52, 0]),
   midi.NoteOnEvent(tick=2, channel=2, data=[52, 110]),
   midi.NoteOnEvent(tick=94, channel=2, data=[52, 0]),
   midi.NoteOnEvent(tick=2, channel=2, data=[52, 110]),
   midi.NoteOnEvent(tick=94, channel=2, data=[52, 0]),
   midi.NoteOnEvent(tick=2, channel=2, data=[55, 110]),
   midi.NoteOnEvent(tick=0, channel=2, data=[62, 110]),
   midi.NoteOnEvent(tick=0, channel=2, data=[67, 110]),
   midi.NoteOnEvent(tick=574, channel=2, data=[55, 0]),
   midi.NoteOnEvent(tick=0, channel=2, data=[62, 0]),
   midi.NoteOnEvent(tick=0, channel=2, data=[67, 0]),
   midi.NoteOnEvent(tick=2, channel=2, data=[58, 110]),
   midi.NoteOnEvent(tick=0, channel=2, data=[65, 110]),
   midi.NoteOnEvent(tick=0, channel=2, data=[70, 110]),
   midi.NoteOnEvent(tick=160, channel=2, data=[58, 0]),
   midi.NoteOnEvent(tick=0, channel=2, data=[65, 0]),
   midi.NoteOnEvent(tick=0, channel=2, data=[70, 0]),
   midi.NoteOnEvent(tick=32, channel=2, data=[54, 110]),
   midi.NoteOnEvent(tick=0, channel=2, data=[61, 110]),
   midi.NoteOnEvent(tick=0, channel=2, data=[66, 110]),
   midi.NoteOnEvent(tick=574, channel=2, data=[54, 0]),
   midi.NoteOnEvent(tick=0, channel=2, data=[61, 0]),
   midi.NoteOnEvent(tick=0, channel=2, data=[66, 0]),
   midi.NoteOnEvent(tick=2, channel=2, data=[57, 110]),
   midi.NoteOnEvent(tick=0, channel=2, data=[64, 110]),
   midi.NoteOnEvent(tick=0, channel=2, data=[69, 110]),
   midi.NoteOnEvent(tick=160, channel=2, data=[57, 0]),
   midi.NoteOnEvent(tick=0, channel=2, data=[64, 0]),
   midi.NoteOnEvent(tick=0, channel=2, data=[69, 0]),
   midi.NoteOnEvent(tick=32, channel=2, data=[53, 110]),
   midi.NoteOnEvent(tick=0, channel=2, data=[60, 110]),
   midi.NoteOnEvent(tick=0, channel=2, data=[65, 110]),
   midi.NoteOnEvent(tick=574, channel=2, data=[53, 0]),
   midi.NoteOnEvent(tick=0, channel=2, data=[60, 0]),
   midi.NoteOnEvent(tick=0, channel=2, data=[65, 0]),
   midi.NoteOnEvent(tick=2, channel=2, data=[55, 110]),
   midi.NoteOnEvent(tick=0, channel=2, data=[62, 110]),
   midi.NoteOnEvent(tick=0, channel=2, data=[67, 110]),
   midi.NoteOnEvent(tick=256, channel=2, data=[55, 0]),
   midi.NoteOnEvent(tick=0, channel=2, data=[62, 0]),
   midi.NoteOnEvent(tick=0, channel=2, data=[67, 0]),
   midi.NoteOnEvent(tick=32, channel=2, data=[52, 110]),
   midi.NoteOnEvent(tick=94, channel=2, data=[52, 0]),
   midi.NoteOnEvent(tick=2, channel=2, data=[52, 110]),
   midi.NoteOnEvent(tick=46, channel=2, data=[52, 0]),
   midi.NoteOnEvent(tick=2, channel=2, data=[52, 110]),
   midi.NoteOnEvent(tick=46, channel=2, data=[52, 0]),
   midi.NoteOnEvent(tick=2, channel=2, data=[52, 110]),
   midi.NoteOnEvent(tick=94, channel=2, data=[52, 0]),
   midi.NoteOnEvent(tick=2, channel=2, data=[52, 110]),
   midi.NoteOnEvent(tick=94, channel=2, data=[52, 0]),
   midi.NoteOnEvent(tick=2, channel=2, data=[52, 110]),
   midi.NoteOnEvent(tick=94, channel=2, data=[52, 0]),
   midi.NoteOnEvent(tick=2, channel=2, data=[52, 110]),
   midi.NoteOnEvent(tick=94, channel=2, data=[52, 0]),
   midi.NoteOnEvent(tick=2, channel=2, data=[52, 110]),
   midi.NoteOnEvent(tick=94, channel=2, data=[52, 0]),
   midi.NoteOnEvent(tick=2, channel=2, data=[55, 110]),
   midi.NoteOnEvent(tick=0, channel=2, data=[62, 110]),
   midi.NoteOnEvent(tick=0, channel=2, data=[67, 110]),
   midi.NoteOnEvent(tick=574, channel=2, data=[55, 0]),
   midi.NoteOnEvent(tick=0, channel=2, data=[62, 0]),
   midi.NoteOnEvent(tick=0, channel=2, data=[67, 0]),
   midi.NoteOnEvent(tick=2, channel=2, data=[58, 110]),
   midi.NoteOnEvent(tick=0, channel=2, data=[65, 110]),
   midi.NoteOnEvent(tick=0, channel=2, data=[70, 110]),
   midi.NoteOnEvent(tick=160, channel=2, data=[58, 0]),
   midi.NoteOnEvent(tick=0, channel=2, data=[65, 0]),
   midi.NoteOnEvent(tick=0, channel=2, data=[70, 0]),
   midi.NoteOnEvent(tick=32, channel=2, data=[54, 110]),
   midi.NoteOnEvent(tick=0, channel=2, data=[61, 110]),
   midi.NoteOnEvent(tick=0, channel=2, data=[66, 110]),
   midi.NoteOnEvent(tick=574, channel=2, data=[54, 0]),
   midi.NoteOnEvent(tick=0, channel=2, data=[61, 0]),
   midi.NoteOnEvent(tick=0, channel=2, data=[66, 0]),
   midi.NoteOnEvent(tick=2, channel=2, data=[57, 110]),
   midi.NoteOnEvent(tick=0, channel=2, data=[64, 110]),
   midi.NoteOnEvent(tick=0, channel=2, data=[69, 110]),
   midi.NoteOnEvent(tick=160, channel=2, data=[57, 0]),
   midi.NoteOnEvent(tick=0, channel=2, data=[64, 0]),
   midi.NoteOnEvent(tick=0, channel=2, data=[69, 0]),
   midi.NoteOnEvent(tick=32, channel=2, data=[53, 110]),
   midi.NoteOnEvent(tick=0, channel=2, data=[60, 110]),
   midi.NoteOnEvent(tick=0, channel=2, data=[65, 110]),
   midi.NoteOnEvent(tick=574, channel=2, data=[53, 0]),
   midi.NoteOnEvent(tick=0, channel=2, data=[60, 0]),
   midi.NoteOnEvent(tick=0, channel=2, data=[65, 0]),
   midi.NoteOnEvent(tick=2, channel=2, data=[55, 110]),
   midi.NoteOnEvent(tick=0, channel=2, data=[62, 110]),
   midi.NoteOnEvent(tick=0, channel=2, data=[67, 110]),
   midi.NoteOnEvent(tick=256, channel=2, data=[55, 0]),
   midi.NoteOnEvent(tick=0, channel=2, data=[62, 0]),
   midi.NoteOnEvent(tick=0, channel=2, data=[67, 0]),
   midi.NoteOnEvent(tick=32, channel=2, data=[52, 110]),
   midi.NoteOnEvent(tick=94, channel=2, data=[52, 0]),
   midi.NoteOnEvent(tick=2, channel=2, data=[52, 110]),
   midi.NoteOnEvent(tick=46, channel=2, data=[52, 0]),
   midi.NoteOnEvent(tick=2, channel=2, data=[52, 110]),
   midi.NoteOnEvent(tick=46, channel=2, data=[52, 0]),
   midi.NoteOnEvent(tick=2, channel=2, data=[52, 110]),
   midi.NoteOnEvent(tick=94, channel=2, data=[52, 0]),
   midi.NoteOnEvent(tick=2, channel=2, data=[52, 110]),
   midi.NoteOnEvent(tick=94, channel=2, data=[52, 0]),
   midi.NoteOnEvent(tick=2, channel=2, data=[52, 110]),
   midi.NoteOnEvent(tick=94, channel=2, data=[52, 0]),
   midi.NoteOnEvent(tick=2, channel=2, data=[52, 110]),
   midi.NoteOnEvent(tick=94, channel=2, data=[52, 0]),
   midi.NoteOnEvent(tick=2, channel=2, data=[52, 110]),
   midi.NoteOnEvent(tick=94, channel=2, data=[52, 0]),
   midi.NoteOnEvent(tick=2, channel=2, data=[55, 110]),
   midi.NoteOnEvent(tick=0, channel=2, data=[62, 110]),
   midi.NoteOnEvent(tick=0, channel=2, data=[67, 110]),
   midi.NoteOnEvent(tick=574, channel=2, data=[55, 0]),
   midi.NoteOnEvent(tick=0, channel=2, data=[62, 0]),
   midi.NoteOnEvent(tick=0, channel=2, data=[67, 0]),
   midi.NoteOnEvent(tick=2, channel=2, data=[58, 110]),
   midi.NoteOnEvent(tick=0, channel=2, data=[65, 110]),
   midi.NoteOnEvent(tick=0, channel=2, data=[70, 110]),
   midi.NoteOnEvent(tick=160, channel=2, data=[58, 0]),
   midi.NoteOnEvent(tick=0, channel=2, data=[65, 0]),
   midi.NoteOnEvent(tick=0, channel=2, data=[70, 0]),
   midi.NoteOnEvent(tick=32, channel=2, data=[54, 110]),
   midi.NoteOnEvent(tick=0, channel=2, data=[61, 110]),
   midi.NoteOnEvent(tick=0, channel=2, data=[66, 110]),
   midi.NoteOnEvent(tick=574, channel=2, data=[54, 0]),
   midi.NoteOnEvent(tick=0, channel=2, data=[61, 0]),
   midi.NoteOnEvent(tick=0, channel=2, data=[66, 0]),
   midi.NoteOnEvent(tick=2, channel=2, data=[57, 110]),
   midi.NoteOnEvent(tick=0, channel=2, data=[64, 110]),
   midi.NoteOnEvent(tick=0, channel=2, data=[69, 110]),
   midi.NoteOnEvent(tick=160, channel=2, data=[57, 0]),
   midi.NoteOnEvent(tick=0, channel=2, data=[64, 0]),
   midi.NoteOnEvent(tick=0, channel=2, data=[69, 0]),
   midi.NoteOnEvent(tick=32, channel=2, data=[53, 110]),
   midi.NoteOnEvent(tick=0, channel=2, data=[60, 110]),
   midi.NoteOnEvent(tick=0, channel=2, data=[65, 110]),
   midi.NoteOnEvent(tick=574, channel=2, data=[53, 0]),
   midi.NoteOnEvent(tick=0, channel=2, data=[60, 0]),
   midi.NoteOnEvent(tick=0, channel=2, data=[65, 0]),
   midi.NoteOnEvent(tick=2, channel=2, data=[55, 110]),
   midi.NoteOnEvent(tick=0, channel=2, data=[62, 110]),
   midi.NoteOnEvent(tick=0, channel=2, data=[67, 110]),
   midi.NoteOnEvent(tick=256, channel=2, data=[55, 0]),
   midi.NoteOnEvent(tick=0, channel=2, data=[62, 0]),
   midi.NoteOnEvent(tick=0, channel=2, data=[67, 0]),
   midi.NoteOnEvent(tick=32, channel=2, data=[52, 110]),
   midi.NoteOnEvent(tick=94, channel=2, data=[52, 0]),
   midi.NoteOnEvent(tick=2, channel=2, data=[52, 110]),
   midi.NoteOnEvent(tick=46, channel=2, data=[52, 0]),
   midi.NoteOnEvent(tick=2, channel=2, data=[52, 110]),
   midi.NoteOnEvent(tick=46, channel=2, data=[52, 0]),
   midi.NoteOnEvent(tick=2, channel=2, data=[52, 110]),
   midi.NoteOnEvent(tick=94, channel=2, data=[52, 0]),
   midi.NoteOnEvent(tick=2, channel=2, data=[52, 110]),
   midi.NoteOnEvent(tick=94, channel=2, data=[52, 0]),
   midi.NoteOnEvent(tick=2, channel=2, data=[52, 110]),
   midi.NoteOnEvent(tick=94, channel=2, data=[52, 0]),
   midi.NoteOnEvent(tick=2, channel=2, data=[52, 110]),
   midi.NoteOnEvent(tick=94, channel=2, data=[52, 0]),
   midi.NoteOnEvent(tick=2, channel=2, data=[52, 110]),
   midi.NoteOnEvent(tick=94, channel=2, data=[52, 0]),
   midi.NoteOnEvent(tick=2, channel=2, data=[52, 110]),
   midi.NoteOnEvent(tick=94, channel=2, data=[52, 0]),
   midi.NoteOnEvent(tick=290, channel=2, data=[52, 110]),
   midi.NoteOnEvent(tick=94, channel=2, data=[52, 0]),
   midi.NoteOnEvent(tick=2, channel=2, data=[52, 110]),
   midi.NoteOnEvent(tick=46, channel=2, data=[52, 0]),
   midi.NoteOnEvent(tick=2, channel=2, data=[52, 110]),
   midi.NoteOnEvent(tick=46, channel=2, data=[52, 0]),
   midi.NoteOnEvent(tick=2, channel=2, data=[52, 110]),
   midi.NoteOnEvent(tick=94, channel=2, data=[52, 0]),
   midi.NoteOnEvent(tick=2, channel=2, data=[52, 110]),
   midi.NoteOnEvent(tick=94, channel=2, data=[52, 0]),
   midi.NoteOnEvent(tick=2, channel=2, data=[52, 110]),
   midi.NoteOnEvent(tick=94, channel=2, data=[52, 0]),
   midi.NoteOnEvent(tick=2, channel=2, data=[52, 110]),
   midi.NoteOnEvent(tick=94, channel=2, data=[52, 0]),
   midi.NoteOnEvent(tick=2, channel=2, data=[52, 110]),
   midi.NoteOnEvent(tick=94, channel=2, data=[52, 0]),
   midi.NoteOnEvent(tick=2, channel=2, data=[52, 110]),
   midi.NoteOnEvent(tick=0, channel=2, data=[59, 110]),
   midi.NoteOnEvent(tick=0, channel=2, data=[64, 110]),
   midi.NoteOnEvent(tick=160, channel=2, data=[52, 0]),
   midi.NoteOnEvent(tick=0, channel=2, data=[59, 0]),
   midi.NoteOnEvent(tick=0, channel=2, data=[64, 0]),
   midi.NoteOnEvent(tick=32, channel=2, data=[52, 110]),
   midi.NoteOnEvent(tick=94, channel=2, data=[52, 0]),
   midi.NoteOnEvent(tick=2, channel=2, data=[52, 110]),
   midi.NoteOnEvent(tick=94, channel=2, data=[52, 0]),
   midi.NoteOnEvent(tick=2, channel=2, data=[52, 110]),
   midi.NoteOnEvent(tick=0, channel=2, data=[62, 110]),
   midi.NoteOnEvent(tick=94, channel=2, data=[52, 0]),
   midi.NoteOnEvent(tick=0, channel=2, data=[62, 0]),
   midi.NoteOnEvent(tick=2, channel=2, data=[64, 110]),
   midi.NoteOnEvent(tick=94, channel=2, data=[64, 0]),
   midi.NoteOnEvent(tick=2, channel=2, data=[52, 110]),
   midi.NoteOnEvent(tick=94, channel=2, data=[52, 0]),
   midi.NoteOnEvent(tick=2, channel=2, data=[52, 110]),
   midi.NoteOnEvent(tick=94, channel=2, data=[52, 0]),
   midi.NoteOnEvent(tick=2, channel=2, data=[52, 110]),
   midi.NoteOnEvent(tick=0, channel=2, data=[62, 110]),
   midi.NoteOnEvent(tick=160, channel=2, data=[52, 0]),
   midi.NoteOnEvent(tick=0, channel=2, data=[62, 0]),
   midi.NoteOnEvent(tick=32, channel=2, data=[52, 110]),
   midi.NoteOnEvent(tick=94, channel=2, data=[52, 0]),
   midi.NoteOnEvent(tick=2, channel=2, data=[52, 110]),
   midi.NoteOnEvent(tick=94, channel=2, data=[52, 0]),
   midi.NoteOnEvent(tick=2, channel=2, data=[52, 110]),
   midi.NoteOnEvent(tick=0, channel=2, data=[61, 110]),
   midi.NoteOnEvent(tick=94, channel=2, data=[52, 0]),
   midi.NoteOnEvent(tick=0, channel=2, data=[61, 0]),
   midi.NoteOnEvent(tick=2, channel=2, data=[64, 110]),
   midi.NoteOnEvent(tick=94, channel=2, data=[64, 0]),
   midi.NoteOnEvent(tick=2, channel=2, data=[52, 110]),
   midi.NoteOnEvent(tick=94, channel=2, data=[52, 0]),
   midi.NoteOnEvent(tick=2, channel=2, data=[52, 110]),
   midi.NoteOnEvent(tick=94, channel=2, data=[52, 0]),
   midi.NoteOnEvent(tick=2, channel=2, data=[52, 110]),
   midi.NoteOnEvent(tick=0, channel=2, data=[59, 110]),
   midi.NoteOnEvent(tick=0, channel=2, data=[64, 110]),
   midi.NoteOnEvent(tick=160, channel=2, data=[52, 0]),
   midi.NoteOnEvent(tick=0, channel=2, data=[59, 0]),
   midi.NoteOnEvent(tick=0, channel=2, data=[64, 0]),
   midi.NoteOnEvent(tick=32, channel=2, data=[52, 110]),
   midi.NoteOnEvent(tick=94, channel=2, data=[52, 0]),
   midi.NoteOnEvent(tick=2, channel=2, data=[52, 110]),
   midi.NoteOnEvent(tick=94, channel=2, data=[52, 0]),
   midi.NoteOnEvent(tick=2, channel=2, data=[52, 110]),
   midi.NoteOnEvent(tick=0, channel=2, data=[62, 110]),
   midi.NoteOnEvent(tick=94, channel=2, data=[52, 0]),
   midi.NoteOnEvent(tick=0, channel=2, data=[62, 0]),
   midi.NoteOnEvent(tick=2, channel=2, data=[64, 110]),
   midi.NoteOnEvent(tick=94, channel=2, data=[64, 0]),
   midi.NoteOnEvent(tick=2, channel=2, data=[52, 110]),
   midi.NoteOnEvent(tick=94, channel=2, data=[52, 0]),
   midi.NoteOnEvent(tick=2, channel=2, data=[52, 110]),
   midi.NoteOnEvent(tick=94, channel=2, data=[52, 0]),
   midi.NoteOnEvent(tick=2, channel=2, data=[52, 110]),
   midi.NoteOnEvent(tick=0, channel=2, data=[62, 110]),
   midi.NoteOnEvent(tick=160, channel=2, data=[52, 0]),
   midi.NoteOnEvent(tick=0, channel=2, data=[62, 0]),
   midi.NoteOnEvent(tick=32, channel=2, data=[52, 110]),
   midi.NoteOnEvent(tick=94, channel=2, data=[52, 0]),
   midi.NoteOnEvent(tick=2, channel=2, data=[52, 110]),
   midi.NoteOnEvent(tick=94, channel=2, data=[52, 0]),
   midi.NoteOnEvent(tick=2, channel=2, data=[52, 110]),
   midi.NoteOnEvent(tick=0, channel=2, data=[61, 110]),
   midi.NoteOnEvent(tick=94, channel=2, data=[52, 0]),
   midi.NoteOnEvent(tick=0, channel=2, data=[61, 0]),
   midi.NoteOnEvent(tick=2, channel=2, data=[64, 110]),
   midi.NoteOnEvent(tick=94, channel=2, data=[64, 0]),
   midi.NoteOnEvent(tick=2, channel=2, data=[52, 110]),
   midi.NoteOnEvent(tick=0, channel=2, data=[59, 110]),
   midi.NoteOnEvent(tick=160, channel=2, data=[52, 0]),
   midi.NoteOnEvent(tick=0, channel=2, data=[59, 0]),
   midi.NoteOnEvent(tick=32, channel=2, data=[52, 110]),
   midi.NoteOnEvent(tick=0, channel=2, data=[59, 110]),
   midi.NoteOnEvent(tick=0, channel=2, data=[64, 110]),
   midi.NoteOnEvent(tick=160, channel=2, data=[52, 0]),
   midi.NoteOnEvent(tick=0, channel=2, data=[59, 0]),
   midi.NoteOnEvent(tick=0, channel=2, data=[64, 0]),
   midi.NoteOnEvent(tick=32, channel=2, data=[52, 110]),
   midi.NoteOnEvent(tick=94, channel=2, data=[52, 0]),
   midi.NoteOnEvent(tick=2, channel=2, data=[52, 110]),
   midi.NoteOnEvent(tick=94, channel=2, data=[52, 0]),
   midi.NoteOnEvent(tick=2, channel=2, data=[52, 110]),
   midi.NoteOnEvent(tick=0, channel=2, data=[62, 110]),
   midi.NoteOnEvent(tick=94, channel=2, data=[52, 0]),
   midi.NoteOnEvent(tick=0, channel=2, data=[62, 0]),
   midi.NoteOnEvent(tick=2, channel=2, data=[64, 110]),
   midi.NoteOnEvent(tick=94, channel=2, data=[64, 0]),
   midi.NoteOnEvent(tick=2, channel=2, data=[52, 110]),
   midi.NoteOnEvent(tick=94, channel=2, data=[52, 0]),
   midi.NoteOnEvent(tick=2, channel=2, data=[52, 110]),
   midi.NoteOnEvent(tick=94, channel=2, data=[52, 0]),
   midi.NoteOnEvent(tick=2, channel=2, data=[52, 110]),
   midi.NoteOnEvent(tick=0, channel=2, data=[62, 110]),
   midi.NoteOnEvent(tick=160, channel=2, data=[52, 0]),
   midi.NoteOnEvent(tick=0, channel=2, data=[62, 0]),
   midi.NoteOnEvent(tick=32, channel=2, data=[52, 110]),
   midi.NoteOnEvent(tick=94, channel=2, data=[52, 0]),
   midi.NoteOnEvent(tick=2, channel=2, data=[52, 110]),
   midi.NoteOnEvent(tick=94, channel=2, data=[52, 0]),
   midi.NoteOnEvent(tick=2, channel=2, data=[52, 110]),
   midi.NoteOnEvent(tick=0, channel=2, data=[61, 110]),
   midi.NoteOnEvent(tick=94, channel=2, data=[52, 0]),
   midi.NoteOnEvent(tick=0, channel=2, data=[61, 0]),
   midi.NoteOnEvent(tick=2, channel=2, data=[64, 110]),
   midi.NoteOnEvent(tick=94, channel=2, data=[64, 0]),
   midi.NoteOnEvent(tick=2, channel=2, data=[52, 110]),
   midi.NoteOnEvent(tick=94, channel=2, data=[52, 0]),
   midi.NoteOnEvent(tick=2, channel=2, data=[52, 110]),
   midi.NoteOnEvent(tick=94, channel=2, data=[52, 0]),
   midi.NoteOnEvent(tick=2, channel=2, data=[52, 110]),
   midi.NoteOnEvent(tick=0, channel=2, data=[59, 110]),
   midi.NoteOnEvent(tick=0, channel=2, data=[64, 110]),
   midi.NoteOnEvent(tick=160, channel=2, data=[52, 0]),
   midi.NoteOnEvent(tick=0, channel=2, data=[59, 0]),
   midi.NoteOnEvent(tick=0, channel=2, data=[64, 0]),
   midi.NoteOnEvent(tick=32, channel=2, data=[52, 110]),
   midi.NoteOnEvent(tick=94, channel=2, data=[52, 0]),
   midi.NoteOnEvent(tick=2, channel=2, data=[52, 110]),
   midi.NoteOnEvent(tick=94, channel=2, data=[52, 0]),
   midi.NoteOnEvent(tick=2, channel=2, data=[52, 110]),
   midi.NoteOnEvent(tick=0, channel=2, data=[62, 110]),
   midi.NoteOnEvent(tick=94, channel=2, data=[52, 0]),
   midi.NoteOnEvent(tick=0, channel=2, data=[62, 0]),
   midi.NoteOnEvent(tick=2, channel=2, data=[64, 110]),
   midi.NoteOnEvent(tick=94, channel=2, data=[64, 0]),
   midi.NoteOnEvent(tick=2, channel=2, data=[52, 110]),
   midi.NoteOnEvent(tick=94, channel=2, data=[52, 0]),
   midi.NoteOnEvent(tick=2, channel=2, data=[52, 110]),
   midi.NoteOnEvent(tick=94, channel=2, data=[52, 0]),
   midi.NoteOnEvent(tick=2, channel=2, data=[52, 110]),
   midi.NoteOnEvent(tick=0, channel=2, data=[62, 110]),
   midi.NoteOnEvent(tick=160, channel=2, data=[52, 0]),
   midi.NoteOnEvent(tick=0, channel=2, data=[62, 0]),
   midi.NoteOnEvent(tick=32, channel=2, data=[52, 110]),
   midi.NoteOnEvent(tick=94, channel=2, data=[52, 0]),
   midi.NoteOnEvent(tick=2, channel=2, data=[52, 110]),
   midi.NoteOnEvent(tick=94, channel=2, data=[52, 0]),
   midi.NoteOnEvent(tick=2, channel=2, data=[52, 110]),
   midi.NoteOnEvent(tick=0, channel=2, data=[61, 110]),
   midi.NoteOnEvent(tick=94, channel=2, data=[52, 0]),
   midi.NoteOnEvent(tick=0, channel=2, data=[61, 0]),
   midi.NoteOnEvent(tick=2, channel=2, data=[64, 110]),
   midi.NoteOnEvent(tick=94, channel=2, data=[64, 0]),
   midi.NoteOnEvent(tick=2, channel=2, data=[52, 110]),
   midi.NoteOnEvent(tick=0, channel=2, data=[59, 110]),
   midi.NoteOnEvent(tick=160, channel=2, data=[52, 0]),
   midi.NoteOnEvent(tick=0, channel=2, data=[59, 0]),
   midi.NoteOnEvent(tick=32, channel=2, data=[52, 110]),
   midi.NoteOnEvent(tick=0, channel=2, data=[59, 110]),
   midi.NoteOnEvent(tick=0, channel=2, data=[64, 110]),
   midi.NoteOnEvent(tick=160, channel=2, data=[52, 0]),
   midi.NoteOnEvent(tick=0, channel=2, data=[59, 0]),
   midi.NoteOnEvent(tick=0, channel=2, data=[64, 0]),
   midi.NoteOnEvent(tick=32, channel=2, data=[52, 110]),
   midi.NoteOnEvent(tick=94, channel=2, data=[52, 0]),
   midi.NoteOnEvent(tick=2, channel=2, data=[52, 110]),
   midi.NoteOnEvent(tick=94, channel=2, data=[52, 0]),
   midi.NoteOnEvent(tick=2, channel=2, data=[52, 110]),
   midi.NoteOnEvent(tick=0, channel=2, data=[62, 110]),
   midi.NoteOnEvent(tick=94, channel=2, data=[52, 0]),
   midi.NoteOnEvent(tick=0, channel=2, data=[62, 0]),
   midi.NoteOnEvent(tick=2, channel=2, data=[64, 110]),
   midi.NoteOnEvent(tick=94, channel=2, data=[64, 0]),
   midi.NoteOnEvent(tick=2, channel=2, data=[52, 110]),
   midi.NoteOnEvent(tick=94, channel=2, data=[52, 0]),
   midi.NoteOnEvent(tick=2, channel=2, data=[52, 110]),
   midi.NoteOnEvent(tick=94, channel=2, data=[52, 0]),
   midi.NoteOnEvent(tick=2, channel=2, data=[52, 110]),
   midi.NoteOnEvent(tick=0, channel=2, data=[62, 110]),
   midi.NoteOnEvent(tick=160, channel=2, data=[52, 0]),
   midi.NoteOnEvent(tick=0, channel=2, data=[62, 0]),
   midi.NoteOnEvent(tick=32, channel=2, data=[52, 110]),
   midi.NoteOnEvent(tick=94, channel=2, data=[52, 0]),
   midi.NoteOnEvent(tick=2, channel=2, data=[52, 110]),
   midi.NoteOnEvent(tick=94, channel=2, data=[52, 0]),
   midi.NoteOnEvent(tick=2, channel=2, data=[52, 110]),
   midi.NoteOnEvent(tick=0, channel=2, data=[61, 110]),
   midi.NoteOnEvent(tick=94, channel=2, data=[52, 0]),
   midi.NoteOnEvent(tick=0, channel=2, data=[61, 0]),
   midi.NoteOnEvent(tick=2, channel=2, data=[64, 110]),
   midi.NoteOnEvent(tick=94, channel=2, data=[64, 0]),
   midi.NoteOnEvent(tick=2, channel=2, data=[52, 110]),
   midi.NoteOnEvent(tick=94, channel=2, data=[52, 0]),
   midi.NoteOnEvent(tick=2, channel=2, data=[52, 110]),
   midi.NoteOnEvent(tick=94, channel=2, data=[52, 0]),
   midi.NoteOnEvent(tick=2, channel=2, data=[52, 110]),
   midi.NoteOnEvent(tick=0, channel=2, data=[59, 110]),
   midi.NoteOnEvent(tick=0, channel=2, data=[64, 110]),
   midi.NoteOnEvent(tick=160, channel=2, data=[52, 0]),
   midi.NoteOnEvent(tick=0, channel=2, data=[59, 0]),
   midi.NoteOnEvent(tick=0, channel=2, data=[64, 0]),
   midi.NoteOnEvent(tick=32, channel=2, data=[52, 110]),
   midi.NoteOnEvent(tick=94, channel=2, data=[52, 0]),
   midi.NoteOnEvent(tick=2, channel=2, data=[52, 110]),
   midi.NoteOnEvent(tick=94, channel=2, data=[52, 0]),
   midi.NoteOnEvent(tick=2, channel=2, data=[52, 110]),
   midi.NoteOnEvent(tick=0, channel=2, data=[62, 110]),
   midi.NoteOnEvent(tick=94, channel=2, data=[52, 0]),
   midi.NoteOnEvent(tick=0, channel=2, data=[62, 0]),
   midi.NoteOnEvent(tick=2, channel=2, data=[64, 110]),
   midi.NoteOnEvent(tick=94, channel=2, data=[64, 0]),
   midi.NoteOnEvent(tick=2, channel=2, data=[52, 110]),
   midi.NoteOnEvent(tick=94, channel=2, data=[52, 0]),
   midi.NoteOnEvent(tick=2, channel=2, data=[52, 110]),
   midi.NoteOnEvent(tick=94, channel=2, data=[52, 0]),
   midi.NoteOnEvent(tick=2, channel=2, data=[52, 110]),
   midi.NoteOnEvent(tick=0, channel=2, data=[62, 110]),
   midi.NoteOnEvent(tick=160, channel=2, data=[52, 0]),
   midi.NoteOnEvent(tick=0, channel=2, data=[62, 0]),
   midi.NoteOnEvent(tick=32, channel=2, data=[52, 110]),
   midi.NoteOnEvent(tick=94, channel=2, data=[52, 0]),
   midi.NoteOnEvent(tick=2, channel=2, data=[52, 110]),
   midi.NoteOnEvent(tick=94, channel=2, data=[52, 0]),
   midi.NoteOnEvent(tick=2, channel=2, data=[52, 110]),
   midi.NoteOnEvent(tick=0, channel=2, data=[61, 110]),
   midi.NoteOnEvent(tick=94, channel=2, data=[52, 0]),
   midi.NoteOnEvent(tick=0, channel=2, data=[61, 0]),
   midi.NoteOnEvent(tick=2, channel=2, data=[64, 110]),
   midi.NoteOnEvent(tick=94, channel=2, data=[64, 0]),
   midi.NoteOnEvent(tick=2, channel=2, data=[52, 110]),
   midi.NoteOnEvent(tick=0, channel=2, data=[59, 110]),
   midi.NoteOnEvent(tick=160, channel=2, data=[52, 0]),
   midi.NoteOnEvent(tick=0, channel=2, data=[59, 0]),
   midi.NoteOnEvent(tick=32, channel=2, data=[52, 110]),
   midi.NoteOnEvent(tick=0, channel=2, data=[59, 110]),
   midi.NoteOnEvent(tick=0, channel=2, data=[64, 110]),
   midi.NoteOnEvent(tick=160, channel=2, data=[52, 0]),
   midi.NoteOnEvent(tick=0, channel=2, data=[59, 0]),
   midi.NoteOnEvent(tick=0, channel=2, data=[64, 0]),
   midi.NoteOnEvent(tick=32, channel=2, data=[52, 110]),
   midi.NoteOnEvent(tick=94, channel=2, data=[52, 0]),
   midi.NoteOnEvent(tick=2, channel=2, data=[52, 110]),
   midi.NoteOnEvent(tick=94, channel=2, data=[52, 0]),
   midi.NoteOnEvent(tick=2, channel=2, data=[52, 110]),
   midi.NoteOnEvent(tick=0, channel=2, data=[62, 110]),
   midi.NoteOnEvent(tick=94, channel=2, data=[52, 0]),
   midi.NoteOnEvent(tick=0, channel=2, data=[62, 0]),
   midi.NoteOnEvent(tick=2, channel=2, data=[64, 110]),
   midi.NoteOnEvent(tick=94, channel=2, data=[64, 0]),
   midi.NoteOnEvent(tick=2, channel=2, data=[52, 110]),
   midi.NoteOnEvent(tick=94, channel=2, data=[52, 0]),
   midi.NoteOnEvent(tick=2, channel=2, data=[52, 110]),
   midi.NoteOnEvent(tick=94, channel=2, data=[52, 0]),
   midi.NoteOnEvent(tick=2, channel=2, data=[52, 110]),
   midi.NoteOnEvent(tick=0, channel=2, data=[62, 110]),
   midi.NoteOnEvent(tick=160, channel=2, data=[52, 0]),
   midi.NoteOnEvent(tick=0, channel=2, data=[62, 0]),
   midi.NoteOnEvent(tick=32, channel=2, data=[52, 110]),
   midi.NoteOnEvent(tick=94, channel=2, data=[52, 0]),
   midi.NoteOnEvent(tick=2, channel=2, data=[52, 110]),
   midi.NoteOnEvent(tick=94, channel=2, data=[52, 0]),
   midi.NoteOnEvent(tick=2, channel=2, data=[52, 110]),
   midi.NoteOnEvent(tick=0, channel=2, data=[61, 110]),
   midi.NoteOnEvent(tick=94, channel=2, data=[52, 0]),
   midi.NoteOnEvent(tick=0, channel=2, data=[61, 0]),
   midi.NoteOnEvent(tick=2, channel=2, data=[64, 110]),
   midi.NoteOnEvent(tick=94, channel=2, data=[64, 0]),
   midi.NoteOnEvent(tick=2, channel=2, data=[52, 110]),
   midi.NoteOnEvent(tick=94, channel=2, data=[52, 0]),
   midi.NoteOnEvent(tick=2, channel=2, data=[52, 110]),
   midi.NoteOnEvent(tick=94, channel=2, data=[52, 0]),
   midi.NoteOnEvent(tick=2, channel=2, data=[52, 110]),
   midi.NoteOnEvent(tick=0, channel=2, data=[59, 110]),
   midi.NoteOnEvent(tick=0, channel=2, data=[64, 110]),
   midi.NoteOnEvent(tick=160, channel=2, data=[52, 0]),
   midi.NoteOnEvent(tick=0, channel=2, data=[59, 0]),
   midi.NoteOnEvent(tick=0, channel=2, data=[64, 0]),
   midi.NoteOnEvent(tick=32, channel=2, data=[52, 110]),
   midi.NoteOnEvent(tick=94, channel=2, data=[52, 0]),
   midi.NoteOnEvent(tick=2, channel=2, data=[52, 110]),
   midi.NoteOnEvent(tick=94, channel=2, data=[52, 0]),
   midi.NoteOnEvent(tick=2, channel=2, data=[52, 110]),
   midi.NoteOnEvent(tick=0, channel=2, data=[62, 110]),
   midi.NoteOnEvent(tick=94, channel=2, data=[52, 0]),
   midi.NoteOnEvent(tick=0, channel=2, data=[62, 0]),
   midi.NoteOnEvent(tick=2, channel=2, data=[64, 110]),
   midi.NoteOnEvent(tick=94, channel=2, data=[64, 0]),
   midi.NoteOnEvent(tick=2, channel=2, data=[52, 110]),
   midi.NoteOnEvent(tick=94, channel=2, data=[52, 0]),
   midi.NoteOnEvent(tick=2, channel=2, data=[52, 110]),
   midi.NoteOnEvent(tick=94, channel=2, data=[52, 0]),
   midi.NoteOnEvent(tick=2, channel=2, data=[52, 110]),
   midi.NoteOnEvent(tick=0, channel=2, data=[62, 110]),
   midi.NoteOnEvent(tick=160, channel=2, data=[52, 0]),
   midi.NoteOnEvent(tick=0, channel=2, data=[62, 0]),
   midi.NoteOnEvent(tick=32, channel=2, data=[52, 110]),
   midi.NoteOnEvent(tick=94, channel=2, data=[52, 0]),
   midi.NoteOnEvent(tick=2, channel=2, data=[52, 110]),
   midi.NoteOnEvent(tick=94, channel=2, data=[52, 0]),
   midi.NoteOnEvent(tick=2, channel=2, data=[52, 110]),
   midi.NoteOnEvent(tick=0, channel=2, data=[61, 110]),
   midi.NoteOnEvent(tick=94, channel=2, data=[52, 0]),
   midi.NoteOnEvent(tick=0, channel=2, data=[61, 0]),
   midi.NoteOnEvent(tick=2, channel=2, data=[64, 110]),
   midi.NoteOnEvent(tick=94, channel=2, data=[64, 0]),
   midi.NoteOnEvent(tick=2, channel=2, data=[52, 110]),
   midi.NoteOnEvent(tick=0, channel=2, data=[59, 110]),
   midi.NoteOnEvent(tick=160, channel=2, data=[52, 0]),
   midi.NoteOnEvent(tick=0, channel=2, data=[59, 0]),
   midi.NoteOnEvent(tick=32, channel=2, data=[52, 110]),
   midi.NoteOnEvent(tick=0, channel=2, data=[59, 110]),
   midi.NoteOnEvent(tick=0, channel=2, data=[64, 110]),
   midi.NoteOnEvent(tick=160, channel=2, data=[52, 0]),
   midi.NoteOnEvent(tick=0, channel=2, data=[59, 0]),
   midi.NoteOnEvent(tick=0, channel=2, data=[64, 0]),
   midi.NoteOnEvent(tick=32, channel=2, data=[52, 110]),
   midi.NoteOnEvent(tick=94, channel=2, data=[52, 0]),
   midi.NoteOnEvent(tick=2, channel=2, data=[52, 110]),
   midi.NoteOnEvent(tick=94, channel=2, data=[52, 0]),
   midi.NoteOnEvent(tick=2, channel=2, data=[52, 110]),
   midi.NoteOnEvent(tick=0, channel=2, data=[62, 110]),
   midi.NoteOnEvent(tick=94, channel=2, data=[52, 0]),
   midi.NoteOnEvent(tick=0, channel=2, data=[62, 0]),
   midi.NoteOnEvent(tick=2, channel=2, data=[64, 110]),
   midi.NoteOnEvent(tick=94, channel=2, data=[64, 0]),
   midi.NoteOnEvent(tick=2, channel=2, data=[52, 110]),
   midi.NoteOnEvent(tick=94, channel=2, data=[52, 0]),
   midi.NoteOnEvent(tick=2, channel=2, data=[52, 110]),
   midi.NoteOnEvent(tick=94, channel=2, data=[52, 0]),
   midi.NoteOnEvent(tick=2, channel=2, data=[52, 110]),
   midi.NoteOnEvent(tick=0, channel=2, data=[62, 110]),
   midi.NoteOnEvent(tick=160, channel=2, data=[52, 0]),
   midi.NoteOnEvent(tick=0, channel=2, data=[62, 0]),
   midi.NoteOnEvent(tick=32, channel=2, data=[52, 110]),
   midi.NoteOnEvent(tick=94, channel=2, data=[52, 0]),
   midi.NoteOnEvent(tick=2, channel=2, data=[52, 110]),
   midi.NoteOnEvent(tick=94, channel=2, data=[52, 0]),
   midi.NoteOnEvent(tick=2, channel=2, data=[52, 110]),
   midi.NoteOnEvent(tick=0, channel=2, data=[61, 110]),
   midi.NoteOnEvent(tick=94, channel=2, data=[52, 0]),
   midi.NoteOnEvent(tick=0, channel=2, data=[61, 0]),
   midi.NoteOnEvent(tick=2, channel=2, data=[64, 110]),
   midi.NoteOnEvent(tick=94, channel=2, data=[64, 0]),
   midi.NoteOnEvent(tick=2, channel=2, data=[52, 110]),
   midi.NoteOnEvent(tick=94, channel=2, data=[52, 0]),
   midi.NoteOnEvent(tick=2, channel=2, data=[52, 110]),
   midi.NoteOnEvent(tick=94, channel=2, data=[52, 0]),
   midi.NoteOnEvent(tick=2, channel=2, data=[52, 110]),
   midi.NoteOnEvent(tick=0, channel=2, data=[59, 110]),
   midi.NoteOnEvent(tick=0, channel=2, data=[64, 110]),
   midi.NoteOnEvent(tick=160, channel=2, data=[52, 0]),
   midi.NoteOnEvent(tick=0, channel=2, data=[59, 0]),
   midi.NoteOnEvent(tick=0, channel=2, data=[64, 0]),
   midi.NoteOnEvent(tick=32, channel=2, data=[52, 110]),
   midi.NoteOnEvent(tick=94, channel=2, data=[52, 0]),
   midi.NoteOnEvent(tick=2, channel=2, data=[52, 110]),
   midi.NoteOnEvent(tick=94, channel=2, data=[52, 0]),
   midi.NoteOnEvent(tick=2, channel=2, data=[52, 110]),
   midi.NoteOnEvent(tick=0, channel=2, data=[62, 110]),
   midi.NoteOnEvent(tick=94, channel=2, data=[52, 0]),
   midi.NoteOnEvent(tick=0, channel=2, data=[62, 0]),
   midi.NoteOnEvent(tick=2, channel=2, data=[64, 110]),
   midi.NoteOnEvent(tick=94, channel=2, data=[64, 0]),
   midi.NoteOnEvent(tick=2, channel=2, data=[52, 110]),
   midi.NoteOnEvent(tick=94, channel=2, data=[52, 0]),
   midi.NoteOnEvent(tick=2, channel=2, data=[52, 110]),
   midi.NoteOnEvent(tick=94, channel=2, data=[52, 0]),
   midi.NoteOnEvent(tick=2, channel=2, data=[52, 110]),
   midi.NoteOnEvent(tick=0, channel=2, data=[62, 110]),
   midi.NoteOnEvent(tick=160, channel=2, data=[52, 0]),
   midi.NoteOnEvent(tick=0, channel=2, data=[62, 0]),
   midi.NoteOnEvent(tick=32, channel=2, data=[52, 110]),
   midi.NoteOnEvent(tick=94, channel=2, data=[52, 0]),
   midi.NoteOnEvent(tick=2, channel=2, data=[52, 110]),
   midi.NoteOnEvent(tick=94, channel=2, data=[52, 0]),
   midi.NoteOnEvent(tick=2, channel=2, data=[52, 110]),
   midi.NoteOnEvent(tick=0, channel=2, data=[61, 110]),
   midi.NoteOnEvent(tick=94, channel=2, data=[52, 0]),
   midi.NoteOnEvent(tick=0, channel=2, data=[61, 0]),
   midi.NoteOnEvent(tick=2, channel=2, data=[64, 110]),
   midi.NoteOnEvent(tick=94, channel=2, data=[64, 0]),
   midi.NoteOnEvent(tick=2, channel=2, data=[52, 110]),
   midi.NoteOnEvent(tick=0, channel=2, data=[59, 110]),
   midi.NoteOnEvent(tick=160, channel=2, data=[52, 0]),
   midi.NoteOnEvent(tick=0, channel=2, data=[59, 0]),
   midi.NoteOnEvent(tick=32, channel=2, data=[52, 110]),
   midi.NoteOnEvent(tick=0, channel=2, data=[59, 110]),
   midi.NoteOnEvent(tick=0, channel=2, data=[64, 110]),
   midi.NoteOnEvent(tick=160, channel=2, data=[52, 0]),
   midi.NoteOnEvent(tick=0, channel=2, data=[59, 0]),
   midi.NoteOnEvent(tick=0, channel=2, data=[64, 0]),
   midi.NoteOnEvent(tick=32, channel=2, data=[52, 110]),
   midi.NoteOnEvent(tick=94, channel=2, data=[52, 0]),
   midi.NoteOnEvent(tick=2, channel=2, data=[52, 110]),
   midi.NoteOnEvent(tick=94, channel=2, data=[52, 0]),
   midi.NoteOnEvent(tick=2, channel=2, data=[52, 110]),
   midi.NoteOnEvent(tick=0, channel=2, data=[62, 110]),
   midi.NoteOnEvent(tick=94, channel=2, data=[52, 0]),
   midi.NoteOnEvent(tick=0, channel=2, data=[62, 0]),
   midi.NoteOnEvent(tick=2, channel=2, data=[64, 110]),
   midi.NoteOnEvent(tick=94, channel=2, data=[64, 0]),
   midi.NoteOnEvent(tick=2, channel=2, data=[52, 110]),
   midi.NoteOnEvent(tick=94, channel=2, data=[52, 0]),
   midi.NoteOnEvent(tick=2, channel=2, data=[52, 110]),
   midi.NoteOnEvent(tick=94, channel=2, data=[52, 0]),
   midi.NoteOnEvent(tick=2, channel=2, data=[52, 110]),
   midi.NoteOnEvent(tick=0, channel=2, data=[62, 110]),
   midi.NoteOnEvent(tick=160, channel=2, data=[52, 0]),
   midi.NoteOnEvent(tick=0, channel=2, data=[62, 0]),
   midi.NoteOnEvent(tick=32, channel=2, data=[52, 110]),
   midi.NoteOnEvent(tick=94, channel=2, data=[52, 0]),
   midi.NoteOnEvent(tick=2, channel=2, data=[52, 110]),
   midi.NoteOnEvent(tick=94, channel=2, data=[52, 0]),
   midi.NoteOnEvent(tick=2, channel=2, data=[52, 110]),
   midi.NoteOnEvent(tick=0, channel=2, data=[61, 110]),
   midi.NoteOnEvent(tick=94, channel=2, data=[52, 0]),
   midi.NoteOnEvent(tick=0, channel=2, data=[61, 0]),
   midi.NoteOnEvent(tick=2, channel=2, data=[64, 110]),
   midi.NoteOnEvent(tick=94, channel=2, data=[64, 0]),
   midi.NoteOnEvent(tick=2, channel=2, data=[52, 110]),
   midi.NoteOnEvent(tick=94, channel=2, data=[52, 0]),
   midi.NoteOnEvent(tick=2, channel=2, data=[52, 110]),
   midi.NoteOnEvent(tick=94, channel=2, data=[52, 0]),
   midi.NoteOnEvent(tick=2, channel=2, data=[52, 110]),
   midi.NoteOnEvent(tick=0, channel=2, data=[59, 110]),
   midi.NoteOnEvent(tick=0, channel=2, data=[64, 110]),
   midi.NoteOnEvent(tick=160, channel=2, data=[52, 0]),
   midi.NoteOnEvent(tick=0, channel=2, data=[59, 0]),
   midi.NoteOnEvent(tick=0, channel=2, data=[64, 0]),
   midi.NoteOnEvent(tick=32, channel=2, data=[52, 110]),
   midi.NoteOnEvent(tick=94, channel=2, data=[52, 0]),
   midi.NoteOnEvent(tick=2, channel=2, data=[52, 110]),
   midi.NoteOnEvent(tick=94, channel=2, data=[52, 0]),
   midi.NoteOnEvent(tick=2, channel=2, data=[52, 110]),
   midi.NoteOnEvent(tick=0, channel=2, data=[62, 110]),
   midi.NoteOnEvent(tick=94, channel=2, data=[52, 0]),
   midi.NoteOnEvent(tick=0, channel=2, data=[62, 0]),
   midi.NoteOnEvent(tick=2, channel=2, data=[64, 110]),
   midi.NoteOnEvent(tick=94, channel=2, data=[64, 0]),
   midi.NoteOnEvent(tick=2, channel=2, data=[52, 110]),
   midi.NoteOnEvent(tick=94, channel=2, data=[52, 0]),
   midi.NoteOnEvent(tick=2, channel=2, data=[52, 110]),
   midi.NoteOnEvent(tick=94, channel=2, data=[52, 0]),
   midi.NoteOnEvent(tick=2, channel=2, data=[52, 110]),
   midi.NoteOnEvent(tick=0, channel=2, data=[62, 110]),
   midi.NoteOnEvent(tick=160, channel=2, data=[52, 0]),
   midi.NoteOnEvent(tick=0, channel=2, data=[62, 0]),
   midi.NoteOnEvent(tick=32, channel=2, data=[52, 110]),
   midi.NoteOnEvent(tick=94, channel=2, data=[52, 0]),
   midi.NoteOnEvent(tick=2, channel=2, data=[52, 110]),
   midi.NoteOnEvent(tick=94, channel=2, data=[52, 0]),
   midi.NoteOnEvent(tick=2, channel=2, data=[52, 110]),
   midi.NoteOnEvent(tick=0, channel=2, data=[61, 110]),
   midi.NoteOnEvent(tick=94, channel=2, data=[52, 0]),
   midi.NoteOnEvent(tick=0, channel=2, data=[61, 0]),
   midi.NoteOnEvent(tick=2, channel=2, data=[64, 110]),
   midi.NoteOnEvent(tick=94, channel=2, data=[64, 0]),
   midi.NoteOnEvent(tick=2, channel=2, data=[52, 110]),
   midi.NoteOnEvent(tick=0, channel=2, data=[59, 110]),
   midi.NoteOnEvent(tick=160, channel=2, data=[52, 0]),
   midi.NoteOnEvent(tick=0, channel=2, data=[59, 0]),
   midi.NoteOnEvent(tick=32, channel=2, data=[52, 110]),
   midi.NoteOnEvent(tick=0, channel=2, data=[59, 110]),
   midi.NoteOnEvent(tick=0, channel=2, data=[64, 110]),
   midi.NoteOnEvent(tick=160, channel=2, data=[52, 0]),
   midi.NoteOnEvent(tick=0, channel=2, data=[59, 0]),
   midi.NoteOnEvent(tick=0, channel=2, data=[64, 0]),
   midi.NoteOnEvent(tick=32, channel=2, data=[52, 110]),
   midi.NoteOnEvent(tick=94, channel=2, data=[52, 0]),
   midi.NoteOnEvent(tick=2, channel=2, data=[52, 110]),
   midi.NoteOnEvent(tick=94, channel=2, data=[52, 0]),
   midi.NoteOnEvent(tick=2, channel=2, data=[52, 110]),
   midi.NoteOnEvent(tick=0, channel=2, data=[62, 110]),
   midi.NoteOnEvent(tick=94, channel=2, data=[52, 0]),
   midi.NoteOnEvent(tick=0, channel=2, data=[62, 0]),
   midi.NoteOnEvent(tick=2, channel=2, data=[64, 110]),
   midi.NoteOnEvent(tick=94, channel=2, data=[64, 0]),
   midi.NoteOnEvent(tick=2, channel=2, data=[52, 110]),
   midi.NoteOnEvent(tick=94, channel=2, data=[52, 0]),
   midi.NoteOnEvent(tick=2, channel=2, data=[52, 110]),
   midi.NoteOnEvent(tick=94, channel=2, data=[52, 0]),
   midi.NoteOnEvent(tick=2, channel=2, data=[52, 110]),
   midi.NoteOnEvent(tick=0, channel=2, data=[62, 110]),
   midi.NoteOnEvent(tick=160, channel=2, data=[52, 0]),
   midi.NoteOnEvent(tick=0, channel=2, data=[62, 0]),
   midi.NoteOnEvent(tick=32, channel=2, data=[52, 110]),
   midi.NoteOnEvent(tick=94, channel=2, data=[52, 0]),
   midi.NoteOnEvent(tick=2, channel=2, data=[52, 110]),
   midi.NoteOnEvent(tick=94, channel=2, data=[52, 0]),
   midi.NoteOnEvent(tick=2, channel=2, data=[52, 110]),
   midi.NoteOnEvent(tick=0, channel=2, data=[61, 110]),
   midi.NoteOnEvent(tick=94, channel=2, data=[52, 0]),
   midi.NoteOnEvent(tick=0, channel=2, data=[61, 0]),
   midi.NoteOnEvent(tick=2, channel=2, data=[64, 110]),
   midi.NoteOnEvent(tick=94, channel=2, data=[64, 0]),
   midi.NoteOnEvent(tick=2, channel=2, data=[52, 110]),
   midi.NoteOnEvent(tick=94, channel=2, data=[52, 0]),
   midi.NoteOnEvent(tick=2, channel=2, data=[52, 110]),
   midi.NoteOnEvent(tick=94, channel=2, data=[52, 0]),
   midi.NoteOnEvent(tick=2, channel=2, data=[52, 110]),
   midi.NoteOnEvent(tick=0, channel=2, data=[59, 110]),
   midi.NoteOnEvent(tick=0, channel=2, data=[64, 110]),
   midi.NoteOnEvent(tick=160, channel=2, data=[52, 0]),
   midi.NoteOnEvent(tick=0, channel=2, data=[59, 0]),
   midi.NoteOnEvent(tick=0, channel=2, data=[64, 0]),
   midi.NoteOnEvent(tick=32, channel=2, data=[52, 110]),
   midi.NoteOnEvent(tick=94, channel=2, data=[52, 0]),
   midi.NoteOnEvent(tick=2, channel=2, data=[52, 110]),
   midi.NoteOnEvent(tick=94, channel=2, data=[52, 0]),
   midi.NoteOnEvent(tick=2, channel=2, data=[52, 110]),
   midi.NoteOnEvent(tick=0, channel=2, data=[62, 110]),
   midi.NoteOnEvent(tick=94, channel=2, data=[52, 0]),
   midi.NoteOnEvent(tick=0, channel=2, data=[62, 0]),
   midi.NoteOnEvent(tick=2, channel=2, data=[64, 110]),
   midi.NoteOnEvent(tick=94, channel=2, data=[64, 0]),
   midi.NoteOnEvent(tick=2, channel=2, data=[52, 110]),
   midi.NoteOnEvent(tick=94, channel=2, data=[52, 0]),
   midi.NoteOnEvent(tick=2, channel=2, data=[52, 110]),
   midi.NoteOnEvent(tick=94, channel=2, data=[52, 0]),
   midi.NoteOnEvent(tick=2, channel=2, data=[52, 110]),
   midi.NoteOnEvent(tick=0, channel=2, data=[62, 110]),
   midi.NoteOnEvent(tick=160, channel=2, data=[52, 0]),
   midi.NoteOnEvent(tick=0, channel=2, data=[62, 0]),
   midi.NoteOnEvent(tick=32, channel=2, data=[52, 110]),
   midi.NoteOnEvent(tick=94, channel=2, data=[52, 0]),
   midi.NoteOnEvent(tick=2, channel=2, data=[52, 110]),
   midi.NoteOnEvent(tick=94, channel=2, data=[52, 0]),
   midi.NoteOnEvent(tick=2, channel=2, data=[52, 110]),
   midi.NoteOnEvent(tick=0, channel=2, data=[61, 110]),
   midi.NoteOnEvent(tick=94, channel=2, data=[52, 0]),
   midi.NoteOnEvent(tick=0, channel=2, data=[61, 0]),
   midi.NoteOnEvent(tick=2, channel=2, data=[64, 110]),
   midi.NoteOnEvent(tick=94, channel=2, data=[64, 0]),
   midi.NoteOnEvent(tick=2, channel=2, data=[52, 110]),
   midi.NoteOnEvent(tick=0, channel=2, data=[59, 110]),
   midi.NoteOnEvent(tick=160, channel=2, data=[52, 0]),
   midi.NoteOnEvent(tick=0, channel=2, data=[59, 0]),
   midi.NoteOnEvent(tick=32, channel=2, data=[52, 110]),
   midi.NoteOnEvent(tick=0, channel=2, data=[59, 110]),
   midi.NoteOnEvent(tick=0, channel=2, data=[64, 110]),
   midi.NoteOnEvent(tick=160, channel=2, data=[52, 0]),
   midi.NoteOnEvent(tick=0, channel=2, data=[59, 0]),
   midi.NoteOnEvent(tick=0, channel=2, data=[64, 0]),
   midi.NoteOnEvent(tick=32, channel=2, data=[52, 110]),
   midi.NoteOnEvent(tick=94, channel=2, data=[52, 0]),
   midi.NoteOnEvent(tick=2, channel=2, data=[52, 110]),
   midi.NoteOnEvent(tick=94, channel=2, data=[52, 0]),
   midi.NoteOnEvent(tick=2, channel=2, data=[52, 110]),
   midi.NoteOnEvent(tick=0, channel=2, data=[62, 110]),
   midi.NoteOnEvent(tick=94, channel=2, data=[52, 0]),
   midi.NoteOnEvent(tick=0, channel=2, data=[62, 0]),
   midi.NoteOnEvent(tick=2, channel=2, data=[64, 110]),
   midi.NoteOnEvent(tick=94, channel=2, data=[64, 0]),
   midi.NoteOnEvent(tick=2, channel=2, data=[52, 110]),
   midi.NoteOnEvent(tick=94, channel=2, data=[52, 0]),
   midi.NoteOnEvent(tick=2, channel=2, data=[52, 110]),
   midi.NoteOnEvent(tick=94, channel=2, data=[52, 0]),
   midi.NoteOnEvent(tick=2, channel=2, data=[52, 110]),
   midi.NoteOnEvent(tick=0, channel=2, data=[62, 110]),
   midi.NoteOnEvent(tick=160, channel=2, data=[52, 0]),
   midi.NoteOnEvent(tick=0, channel=2, data=[62, 0]),
   midi.NoteOnEvent(tick=32, channel=2, data=[52, 110]),
   midi.NoteOnEvent(tick=94, channel=2, data=[52, 0]),
   midi.NoteOnEvent(tick=2, channel=2, data=[52, 110]),
   midi.NoteOnEvent(tick=94, channel=2, data=[52, 0]),
   midi.NoteOnEvent(tick=2, channel=2, data=[52, 110]),
   midi.NoteOnEvent(tick=0, channel=2, data=[61, 110]),
   midi.NoteOnEvent(tick=94, channel=2, data=[52, 0]),
   midi.NoteOnEvent(tick=0, channel=2, data=[61, 0]),
   midi.NoteOnEvent(tick=2, channel=2, data=[64, 110]),
   midi.NoteOnEvent(tick=94, channel=2, data=[64, 0]),
   midi.NoteOnEvent(tick=2, channel=2, data=[52, 110]),
   midi.NoteOnEvent(tick=94, channel=2, data=[52, 0]),
   midi.NoteOnEvent(tick=2, channel=2, data=[52, 110]),
   midi.NoteOnEvent(tick=94, channel=2, data=[52, 0]),
   midi.NoteOnEvent(tick=2, channel=2, data=[52, 110]),
   midi.NoteOnEvent(tick=0, channel=2, data=[59, 110]),
   midi.NoteOnEvent(tick=0, channel=2, data=[64, 110]),
   midi.NoteOnEvent(tick=160, channel=2, data=[52, 0]),
   midi.NoteOnEvent(tick=0, channel=2, data=[59, 0]),
   midi.NoteOnEvent(tick=0, channel=2, data=[64, 0]),
   midi.NoteOnEvent(tick=32, channel=2, data=[52, 110]),
   midi.NoteOnEvent(tick=94, channel=2, data=[52, 0]),
   midi.NoteOnEvent(tick=2, channel=2, data=[52, 110]),
   midi.NoteOnEvent(tick=94, channel=2, data=[52, 0]),
   midi.NoteOnEvent(tick=2, channel=2, data=[52, 110]),
   midi.NoteOnEvent(tick=0, channel=2, data=[62, 110]),
   midi.NoteOnEvent(tick=94, channel=2, data=[52, 0]),
   midi.NoteOnEvent(tick=0, channel=2, data=[62, 0]),
   midi.NoteOnEvent(tick=2, channel=2, data=[64, 110]),
   midi.NoteOnEvent(tick=94, channel=2, data=[64, 0]),
   midi.NoteOnEvent(tick=2, channel=2, data=[52, 110]),
   midi.NoteOnEvent(tick=94, channel=2, data=[52, 0]),
   midi.NoteOnEvent(tick=2, channel=2, data=[52, 110]),
   midi.NoteOnEvent(tick=94, channel=2, data=[52, 0]),
   midi.NoteOnEvent(tick=2, channel=2, data=[52, 110]),
   midi.NoteOnEvent(tick=0, channel=2, data=[62, 110]),
   midi.NoteOnEvent(tick=160, channel=2, data=[52, 0]),
   midi.NoteOnEvent(tick=0, channel=2, data=[62, 0]),
   midi.NoteOnEvent(tick=32, channel=2, data=[52, 110]),
   midi.NoteOnEvent(tick=94, channel=2, data=[52, 0]),
   midi.NoteOnEvent(tick=2, channel=2, data=[52, 110]),
   midi.NoteOnEvent(tick=94, channel=2, data=[52, 0]),
   midi.NoteOnEvent(tick=2, channel=2, data=[52, 110]),
   midi.NoteOnEvent(tick=0, channel=2, data=[61, 110]),
   midi.NoteOnEvent(tick=94, channel=2, data=[52, 0]),
   midi.NoteOnEvent(tick=0, channel=2, data=[61, 0]),
   midi.NoteOnEvent(tick=2, channel=2, data=[64, 110]),
   midi.NoteOnEvent(tick=94, channel=2, data=[64, 0]),
   midi.NoteOnEvent(tick=2, channel=2, data=[52, 110]),
   midi.NoteOnEvent(tick=0, channel=2, data=[59, 110]),
   midi.NoteOnEvent(tick=160, channel=2, data=[52, 0]),
   midi.NoteOnEvent(tick=0, channel=2, data=[59, 0]),
   midi.NoteOnEvent(tick=32, channel=2, data=[60, 110]),
   midi.NoteOnEvent(tick=0, channel=2, data=[67, 110]),
   midi.NoteOnEvent(tick=0, channel=2, data=[72, 110]),
   midi.NoteOnEvent(tick=1246, channel=2, data=[60, 0]),
   midi.NoteOnEvent(tick=0, channel=2, data=[67, 0]),
   midi.NoteOnEvent(tick=0, channel=2, data=[72, 0]),
   midi.NoteOnEvent(tick=2, channel=2, data=[62, 110]),
   midi.NoteOnEvent(tick=0, channel=2, data=[69, 110]),
   midi.NoteOnEvent(tick=0, channel=2, data=[74, 110]),
   midi.NoteOnEvent(tick=256, channel=2, data=[62, 0]),
   midi.NoteOnEvent(tick=0, channel=2, data=[69, 0]),
   midi.NoteOnEvent(tick=0, channel=2, data=[74, 0]),
   midi.NoteOnEvent(tick=32, channel=2, data=[60, 110]),
   midi.NoteOnEvent(tick=0, channel=2, data=[67, 110]),
   midi.NoteOnEvent(tick=0, channel=2, data=[72, 110]),
   midi.NoteOnEvent(tick=1488, channel=2, data=[60, 0]),
   midi.NoteOnEvent(tick=0, channel=2, data=[67, 0]),
   midi.NoteOnEvent(tick=0, channel=2, data=[72, 0]),
   midi.NoteOnEvent(tick=48, channel=2, data=[52, 110]),
   midi.NoteOnEvent(tick=0, channel=2, data=[59, 110]),
   midi.NoteOnEvent(tick=0, channel=2, data=[64, 110]),
   midi.NoteOnEvent(tick=160, channel=2, data=[52, 0]),
   midi.NoteOnEvent(tick=0, channel=2, data=[59, 0]),
   midi.NoteOnEvent(tick=0, channel=2, data=[64, 0]),
   midi.NoteOnEvent(tick=32, channel=2, data=[52, 110]),
   midi.NoteOnEvent(tick=94, channel=2, data=[52, 0]),
   midi.NoteOnEvent(tick=2, channel=2, data=[52, 110]),
   midi.NoteOnEvent(tick=94, channel=2, data=[52, 0]),
   midi.NoteOnEvent(tick=2, channel=2, data=[52, 110]),
   midi.NoteOnEvent(tick=0, channel=2, data=[62, 110]),
   midi.NoteOnEvent(tick=94, channel=2, data=[52, 0]),
   midi.NoteOnEvent(tick=0, channel=2, data=[62, 0]),
   midi.NoteOnEvent(tick=2, channel=2, data=[64, 110]),
   midi.NoteOnEvent(tick=94, channel=2, data=[64, 0]),
   midi.NoteOnEvent(tick=2, channel=2, data=[52, 110]),
   midi.NoteOnEvent(tick=94, channel=2, data=[52, 0]),
   midi.NoteOnEvent(tick=2, channel=2, data=[52, 110]),
   midi.NoteOnEvent(tick=94, channel=2, data=[52, 0]),
   midi.NoteOnEvent(tick=2, channel=2, data=[52, 110]),
   midi.NoteOnEvent(tick=0, channel=2, data=[62, 110]),
   midi.NoteOnEvent(tick=160, channel=2, data=[52, 0]),
   midi.NoteOnEvent(tick=0, channel=2, data=[62, 0]),
   midi.NoteOnEvent(tick=32, channel=2, data=[52, 110]),
   midi.NoteOnEvent(tick=94, channel=2, data=[52, 0]),
   midi.NoteOnEvent(tick=2, channel=2, data=[52, 110]),
   midi.NoteOnEvent(tick=94, channel=2, data=[52, 0]),
   midi.NoteOnEvent(tick=2, channel=2, data=[52, 110]),
   midi.NoteOnEvent(tick=0, channel=2, data=[61, 110]),
   midi.NoteOnEvent(tick=94, channel=2, data=[52, 0]),
   midi.NoteOnEvent(tick=0, channel=2, data=[61, 0]),
   midi.NoteOnEvent(tick=2, channel=2, data=[64, 110]),
   midi.NoteOnEvent(tick=94, channel=2, data=[64, 0]),
   midi.NoteOnEvent(tick=2, channel=2, data=[52, 110]),
   midi.NoteOnEvent(tick=94, channel=2, data=[52, 0]),
   midi.NoteOnEvent(tick=2, channel=2, data=[52, 110]),
   midi.NoteOnEvent(tick=94, channel=2, data=[52, 0]),
   midi.NoteOnEvent(tick=2, channel=2, data=[52, 110]),
   midi.NoteOnEvent(tick=0, channel=2, data=[59, 110]),
   midi.NoteOnEvent(tick=0, channel=2, data=[64, 110]),
   midi.NoteOnEvent(tick=160, channel=2, data=[52, 0]),
   midi.NoteOnEvent(tick=0, channel=2, data=[59, 0]),
   midi.NoteOnEvent(tick=0, channel=2, data=[64, 0]),
   midi.NoteOnEvent(tick=32, channel=2, data=[52, 110]),
   midi.NoteOnEvent(tick=94, channel=2, data=[52, 0]),
   midi.NoteOnEvent(tick=2, channel=2, data=[52, 110]),
   midi.NoteOnEvent(tick=94, channel=2, data=[52, 0]),
   midi.NoteOnEvent(tick=2, channel=2, data=[52, 110]),
   midi.NoteOnEvent(tick=0, channel=2, data=[62, 110]),
   midi.NoteOnEvent(tick=94, channel=2, data=[52, 0]),
   midi.NoteOnEvent(tick=0, channel=2, data=[62, 0]),
   midi.NoteOnEvent(tick=2, channel=2, data=[64, 110]),
   midi.NoteOnEvent(tick=94, channel=2, data=[64, 0]),
   midi.NoteOnEvent(tick=2, channel=2, data=[52, 110]),
   midi.NoteOnEvent(tick=94, channel=2, data=[52, 0]),
   midi.NoteOnEvent(tick=2, channel=2, data=[52, 110]),
   midi.NoteOnEvent(tick=94, channel=2, data=[52, 0]),
   midi.NoteOnEvent(tick=2, channel=2, data=[52, 110]),
   midi.NoteOnEvent(tick=0, channel=2, data=[62, 110]),
   midi.NoteOnEvent(tick=160, channel=2, data=[52, 0]),
   midi.NoteOnEvent(tick=0, channel=2, data=[62, 0]),
   midi.NoteOnEvent(tick=32, channel=2, data=[52, 110]),
   midi.NoteOnEvent(tick=94, channel=2, data=[52, 0]),
   midi.NoteOnEvent(tick=2, channel=2, data=[52, 110]),
   midi.NoteOnEvent(tick=94, channel=2, data=[52, 0]),
   midi.NoteOnEvent(tick=2, channel=2, data=[52, 110]),
   midi.NoteOnEvent(tick=0, channel=2, data=[61, 110]),
   midi.NoteOnEvent(tick=94, channel=2, data=[52, 0]),
   midi.NoteOnEvent(tick=0, channel=2, data=[61, 0]),
   midi.NoteOnEvent(tick=2, channel=2, data=[64, 110]),
   midi.NoteOnEvent(tick=94, channel=2, data=[64, 0]),
   midi.NoteOnEvent(tick=2, channel=2, data=[52, 110]),
   midi.NoteOnEvent(tick=0, channel=2, data=[59, 110]),
   midi.NoteOnEvent(tick=160, channel=2, data=[52, 0]),
   midi.NoteOnEvent(tick=0, channel=2, data=[59, 0]),
   midi.NoteOnEvent(tick=32, channel=2, data=[60, 110]),
   midi.NoteOnEvent(tick=0, channel=2, data=[67, 110]),
   midi.NoteOnEvent(tick=0, channel=2, data=[72, 110]),
   midi.NoteOnEvent(tick=1246, channel=2, data=[60, 0]),
   midi.NoteOnEvent(tick=0, channel=2, data=[67, 0]),
   midi.NoteOnEvent(tick=0, channel=2, data=[72, 0]),
   midi.NoteOnEvent(tick=2, channel=2, data=[62, 110]),
   midi.NoteOnEvent(tick=0, channel=2, data=[69, 110]),
   midi.NoteOnEvent(tick=0, channel=2, data=[74, 110]),
   midi.NoteOnEvent(tick=256, channel=2, data=[62, 0]),
   midi.NoteOnEvent(tick=0, channel=2, data=[69, 0]),
   midi.NoteOnEvent(tick=0, channel=2, data=[74, 0]),
   midi.NoteOnEvent(tick=32, channel=2, data=[60, 110]),
   midi.NoteOnEvent(tick=0, channel=2, data=[67, 110]),
   midi.NoteOnEvent(tick=0, channel=2, data=[72, 110]),
   midi.NoteOnEvent(tick=1488, channel=2, data=[60, 0]),
   midi.NoteOnEvent(tick=0, channel=2, data=[67, 0]),
   midi.NoteOnEvent(tick=0, channel=2, data=[72, 0]),
   midi.NoteOnEvent(tick=48, channel=2, data=[52, 110]),
   midi.NoteOnEvent(tick=0, channel=2, data=[59, 110]),
   midi.NoteOnEvent(tick=0, channel=2, data=[64, 110]),
   midi.NoteOnEvent(tick=160, channel=2, data=[52, 0]),
   midi.NoteOnEvent(tick=0, channel=2, data=[59, 0]),
   midi.NoteOnEvent(tick=0, channel=2, data=[64, 0]),
   midi.NoteOnEvent(tick=32, channel=2, data=[52, 110]),
   midi.NoteOnEvent(tick=94, channel=2, data=[52, 0]),
   midi.NoteOnEvent(tick=2, channel=2, data=[52, 110]),
   midi.NoteOnEvent(tick=94, channel=2, data=[52, 0]),
   midi.NoteOnEvent(tick=2, channel=2, data=[52, 110]),
   midi.NoteOnEvent(tick=0, channel=2, data=[62, 110]),
   midi.NoteOnEvent(tick=94, channel=2, data=[52, 0]),
   midi.NoteOnEvent(tick=0, channel=2, data=[62, 0]),
   midi.NoteOnEvent(tick=2, channel=2, data=[64, 110]),
   midi.NoteOnEvent(tick=94, channel=2, data=[64, 0]),
   midi.NoteOnEvent(tick=2, channel=2, data=[52, 110]),
   midi.NoteOnEvent(tick=94, channel=2, data=[52, 0]),
   midi.NoteOnEvent(tick=2, channel=2, data=[52, 110]),
   midi.NoteOnEvent(tick=94, channel=2, data=[52, 0]),
   midi.NoteOnEvent(tick=2, channel=2, data=[52, 110]),
   midi.NoteOnEvent(tick=0, channel=2, data=[62, 110]),
   midi.NoteOnEvent(tick=160, channel=2, data=[52, 0]),
   midi.NoteOnEvent(tick=0, channel=2, data=[62, 0]),
   midi.NoteOnEvent(tick=32, channel=2, data=[52, 110]),
   midi.NoteOnEvent(tick=94, channel=2, data=[52, 0]),
   midi.NoteOnEvent(tick=2, channel=2, data=[52, 110]),
   midi.NoteOnEvent(tick=94, channel=2, data=[52, 0]),
   midi.NoteOnEvent(tick=2, channel=2, data=[52, 110]),
   midi.NoteOnEvent(tick=0, channel=2, data=[61, 110]),
   midi.NoteOnEvent(tick=94, channel=2, data=[52, 0]),
   midi.NoteOnEvent(tick=0, channel=2, data=[61, 0]),
   midi.NoteOnEvent(tick=2, channel=2, data=[64, 110]),
   midi.NoteOnEvent(tick=94, channel=2, data=[64, 0]),
   midi.NoteOnEvent(tick=2, channel=2, data=[52, 110]),
   midi.NoteOnEvent(tick=94, channel=2, data=[52, 0]),
   midi.NoteOnEvent(tick=2, channel=2, data=[52, 110]),
   midi.NoteOnEvent(tick=94, channel=2, data=[52, 0]),
   midi.NoteOnEvent(tick=2, channel=2, data=[52, 110]),
   midi.NoteOnEvent(tick=0, channel=2, data=[59, 110]),
   midi.NoteOnEvent(tick=0, channel=2, data=[64, 110]),
   midi.NoteOnEvent(tick=160, channel=2, data=[52, 0]),
   midi.NoteOnEvent(tick=0, channel=2, data=[59, 0]),
   midi.NoteOnEvent(tick=0, channel=2, data=[64, 0]),
   midi.NoteOnEvent(tick=32, channel=2, data=[52, 110]),
   midi.NoteOnEvent(tick=94, channel=2, data=[52, 0]),
   midi.NoteOnEvent(tick=2, channel=2, data=[52, 110]),
   midi.NoteOnEvent(tick=94, channel=2, data=[52, 0]),
   midi.NoteOnEvent(tick=2, channel=2, data=[52, 110]),
   midi.NoteOnEvent(tick=0, channel=2, data=[62, 110]),
   midi.NoteOnEvent(tick=94, channel=2, data=[52, 0]),
   midi.NoteOnEvent(tick=0, channel=2, data=[62, 0]),
   midi.NoteOnEvent(tick=2, channel=2, data=[64, 110]),
   midi.NoteOnEvent(tick=94, channel=2, data=[64, 0]),
   midi.NoteOnEvent(tick=2, channel=2, data=[52, 110]),
   midi.NoteOnEvent(tick=94, channel=2, data=[52, 0]),
   midi.NoteOnEvent(tick=2, channel=2, data=[52, 110]),
   midi.NoteOnEvent(tick=94, channel=2, data=[52, 0]),
   midi.NoteOnEvent(tick=2, channel=2, data=[52, 110]),
   midi.NoteOnEvent(tick=0, channel=2, data=[62, 110]),
   midi.NoteOnEvent(tick=160, channel=2, data=[52, 0]),
   midi.NoteOnEvent(tick=0, channel=2, data=[62, 0]),
   midi.NoteOnEvent(tick=32, channel=2, data=[52, 110]),
   midi.NoteOnEvent(tick=94, channel=2, data=[52, 0]),
   midi.NoteOnEvent(tick=2, channel=2, data=[52, 110]),
   midi.NoteOnEvent(tick=94, channel=2, data=[52, 0]),
   midi.NoteOnEvent(tick=2, channel=2, data=[52, 110]),
   midi.NoteOnEvent(tick=0, channel=2, data=[61, 110]),
   midi.NoteOnEvent(tick=94, channel=2, data=[52, 0]),
   midi.NoteOnEvent(tick=0, channel=2, data=[61, 0]),
   midi.NoteOnEvent(tick=2, channel=2, data=[64, 110]),
   midi.NoteOnEvent(tick=94, channel=2, data=[64, 0]),
   midi.NoteOnEvent(tick=2, channel=2, data=[52, 110]),
   midi.NoteOnEvent(tick=0, channel=2, data=[59, 110]),
   midi.NoteOnEvent(tick=160, channel=2, data=[52, 0]),
   midi.NoteOnEvent(tick=0, channel=2, data=[59, 0]),
   midi.NoteOnEvent(tick=32, channel=2, data=[60, 110]),
   midi.NoteOnEvent(tick=160, channel=2, data=[60, 0]),
   midi.NoteOnEvent(tick=32, channel=2, data=[60, 110]),
   midi.NoteOnEvent(tick=94, channel=2, data=[60, 0]),
   midi.NoteOnEvent(tick=2, channel=2, data=[60, 110]),
   midi.NoteOnEvent(tick=94, channel=2, data=[60, 0]),
   midi.NoteOnEvent(tick=2, channel=2, data=[67, 110]),
   midi.NoteOnEvent(tick=94, channel=2, data=[67, 0]),
   midi.NoteOnEvent(tick=2, channel=2, data=[64, 110]),
   midi.NoteOnEvent(tick=94, channel=2, data=[64, 0]),
   midi.NoteOnEvent(tick=2, channel=2, data=[60, 110]),
   midi.NoteOnEvent(tick=94, channel=2, data=[60, 0]),
   midi.NoteOnEvent(tick=2, channel=2, data=[60, 110]),
   midi.NoteOnEvent(tick=94, channel=2, data=[60, 0]),
   midi.NoteOnEvent(tick=2, channel=2, data=[67, 110]),
   midi.NoteOnEvent(tick=94, channel=2, data=[67, 0]),
   midi.NoteOnEvent(tick=2, channel=2, data=[64, 110]),
   midi.NoteOnEvent(tick=94, channel=2, data=[64, 0]),
   midi.NoteOnEvent(tick=2, channel=2, data=[60, 110]),
   midi.NoteOnEvent(tick=94, channel=2, data=[60, 0]),
   midi.NoteOnEvent(tick=2, channel=2, data=[60, 110]),
   midi.NoteOnEvent(tick=94, channel=2, data=[60, 0]),
   midi.NoteOnEvent(tick=2, channel=2, data=[67, 110]),
   midi.NoteOnEvent(tick=94, channel=2, data=[67, 0]),
   midi.NoteOnEvent(tick=2, channel=2, data=[64, 110]),
   midi.NoteOnEvent(tick=94, channel=2, data=[64, 0]),
   midi.NoteOnEvent(tick=2, channel=2, data=[60, 110]),
   midi.NoteOnEvent(tick=94, channel=2, data=[60, 0]),
   midi.NoteOnEvent(tick=2, channel=2, data=[60, 110]),
   midi.NoteOnEvent(tick=94, channel=2, data=[60, 0]),
   midi.NoteOnEvent(tick=2, channel=2, data=[60, 110]),
   midi.NoteOnEvent(tick=0, channel=2, data=[64, 110]),
   midi.NoteOnEvent(tick=160, channel=2, data=[60, 0]),
   midi.NoteOnEvent(tick=0, channel=2, data=[64, 0]),
   midi.NoteOnEvent(tick=32, channel=2, data=[60, 110]),
   midi.NoteOnEvent(tick=94, channel=2, data=[60, 0]),
   midi.NoteOnEvent(tick=2, channel=2, data=[60, 110]),
   midi.NoteOnEvent(tick=94, channel=2, data=[60, 0]),
   midi.NoteOnEvent(tick=2, channel=2, data=[67, 110]),
   midi.NoteOnEvent(tick=94, channel=2, data=[67, 0]),
   midi.NoteOnEvent(tick=2, channel=2, data=[64, 110]),
   midi.NoteOnEvent(tick=94, channel=2, data=[64, 0]),
   midi.NoteOnEvent(tick=2, channel=2, data=[60, 110]),
   midi.NoteOnEvent(tick=94, channel=2, data=[60, 0]),
   midi.NoteOnEvent(tick=2, channel=2, data=[60, 110]),
   midi.NoteOnEvent(tick=94, channel=2, data=[60, 0]),
   midi.NoteOnEvent(tick=2, channel=2, data=[67, 110]),
   midi.NoteOnEvent(tick=94, channel=2, data=[67, 0]),
   midi.NoteOnEvent(tick=2, channel=2, data=[64, 110]),
   midi.NoteOnEvent(tick=94, channel=2, data=[64, 0]),
   midi.NoteOnEvent(tick=2, channel=2, data=[60, 110]),
   midi.NoteOnEvent(tick=94, channel=2, data=[60, 0]),
   midi.NoteOnEvent(tick=2, channel=2, data=[60, 110]),
   midi.NoteOnEvent(tick=94, channel=2, data=[60, 0]),
   midi.NoteOnEvent(tick=2, channel=2, data=[67, 110]),
   midi.NoteOnEvent(tick=94, channel=2, data=[67, 0]),
   midi.NoteOnEvent(tick=2, channel=2, data=[64, 110]),
   midi.NoteOnEvent(tick=94, channel=2, data=[64, 0]),
   midi.NoteOnEvent(tick=2, channel=2, data=[60, 110]),
   midi.NoteOnEvent(tick=94, channel=2, data=[60, 0]),
   midi.NoteOnEvent(tick=2, channel=2, data=[60, 110]),
   midi.NoteOnEvent(tick=94, channel=2, data=[60, 0]),
   midi.NoteOnEvent(tick=2, channel=2, data=[52, 110]),
   midi.NoteOnEvent(tick=0, channel=2, data=[59, 110]),
   midi.NoteOnEvent(tick=0, channel=2, data=[64, 110]),
   midi.NoteOnEvent(tick=160, channel=2, data=[52, 0]),
   midi.NoteOnEvent(tick=0, channel=2, data=[59, 0]),
   midi.NoteOnEvent(tick=0, channel=2, data=[64, 0]),
   midi.NoteOnEvent(tick=32, channel=2, data=[52, 110]),
   midi.NoteOnEvent(tick=94, channel=2, data=[52, 0]),
   midi.NoteOnEvent(tick=2, channel=2, data=[52, 110]),
   midi.NoteOnEvent(tick=94, channel=2, data=[52, 0]),
   midi.NoteOnEvent(tick=2, channel=2, data=[52, 110]),
   midi.NoteOnEvent(tick=0, channel=2, data=[62, 110]),
   midi.NoteOnEvent(tick=94, channel=2, data=[52, 0]),
   midi.NoteOnEvent(tick=0, channel=2, data=[62, 0]),
   midi.NoteOnEvent(tick=2, channel=2, data=[64, 110]),
   midi.NoteOnEvent(tick=94, channel=2, data=[64, 0]),
   midi.NoteOnEvent(tick=2, channel=2, data=[52, 110]),
   midi.NoteOnEvent(tick=94, channel=2, data=[52, 0]),
   midi.NoteOnEvent(tick=2, channel=2, data=[52, 110]),
   midi.NoteOnEvent(tick=94, channel=2, data=[52, 0]),
   midi.NoteOnEvent(tick=2, channel=2, data=[52, 110]),
   midi.NoteOnEvent(tick=0, channel=2, data=[62, 110]),
   midi.NoteOnEvent(tick=160, channel=2, data=[52, 0]),
   midi.NoteOnEvent(tick=0, channel=2, data=[62, 0]),
   midi.NoteOnEvent(tick=32, channel=2, data=[52, 110]),
   midi.NoteOnEvent(tick=94, channel=2, data=[52, 0]),
   midi.NoteOnEvent(tick=2, channel=2, data=[52, 110]),
   midi.NoteOnEvent(tick=94, channel=2, data=[52, 0]),
   midi.NoteOnEvent(tick=2, channel=2, data=[52, 110]),
   midi.NoteOnEvent(tick=0, channel=2, data=[61, 110]),
   midi.NoteOnEvent(tick=94, channel=2, data=[52, 0]),
   midi.NoteOnEvent(tick=0, channel=2, data=[61, 0]),
   midi.NoteOnEvent(tick=2, channel=2, data=[64, 110]),
   midi.NoteOnEvent(tick=94, channel=2, data=[64, 0]),
   midi.NoteOnEvent(tick=2, channel=2, data=[52, 110]),
   midi.NoteOnEvent(tick=94, channel=2, data=[52, 0]),
   midi.NoteOnEvent(tick=2, channel=2, data=[52, 110]),
   midi.NoteOnEvent(tick=94, channel=2, data=[52, 0]),
   midi.NoteOnEvent(tick=2, channel=2, data=[52, 110]),
   midi.NoteOnEvent(tick=0, channel=2, data=[59, 110]),
   midi.NoteOnEvent(tick=0, channel=2, data=[64, 110]),
   midi.NoteOnEvent(tick=160, channel=2, data=[52, 0]),
   midi.NoteOnEvent(tick=0, channel=2, data=[59, 0]),
   midi.NoteOnEvent(tick=0, channel=2, data=[64, 0]),
   midi.NoteOnEvent(tick=32, channel=2, data=[52, 110]),
   midi.NoteOnEvent(tick=94, channel=2, data=[52, 0]),
   midi.NoteOnEvent(tick=2, channel=2, data=[52, 110]),
   midi.NoteOnEvent(tick=94, channel=2, data=[52, 0]),
   midi.NoteOnEvent(tick=2, channel=2, data=[52, 110]),
   midi.NoteOnEvent(tick=0, channel=2, data=[62, 110]),
   midi.NoteOnEvent(tick=94, channel=2, data=[52, 0]),
   midi.NoteOnEvent(tick=0, channel=2, data=[62, 0]),
   midi.NoteOnEvent(tick=2, channel=2, data=[64, 110]),
   midi.NoteOnEvent(tick=94, channel=2, data=[64, 0]),
   midi.NoteOnEvent(tick=2, channel=2, data=[52, 110]),
   midi.NoteOnEvent(tick=94, channel=2, data=[52, 0]),
   midi.NoteOnEvent(tick=2, channel=2, data=[52, 110]),
   midi.NoteOnEvent(tick=94, channel=2, data=[52, 0]),
   midi.NoteOnEvent(tick=2, channel=2, data=[52, 110]),
   midi.NoteOnEvent(tick=0, channel=2, data=[62, 110]),
   midi.NoteOnEvent(tick=160, channel=2, data=[52, 0]),
   midi.NoteOnEvent(tick=0, channel=2, data=[62, 0]),
   midi.NoteOnEvent(tick=32, channel=2, data=[52, 110]),
   midi.NoteOnEvent(tick=94, channel=2, data=[52, 0]),
   midi.NoteOnEvent(tick=2, channel=2, data=[52, 110]),
   midi.NoteOnEvent(tick=94, channel=2, data=[52, 0]),
   midi.NoteOnEvent(tick=2, channel=2, data=[52, 110]),
   midi.NoteOnEvent(tick=0, channel=2, data=[61, 110]),
   midi.NoteOnEvent(tick=94, channel=2, data=[52, 0]),
   midi.NoteOnEvent(tick=0, channel=2, data=[61, 0]),
   midi.NoteOnEvent(tick=2, channel=2, data=[64, 110]),
   midi.NoteOnEvent(tick=94, channel=2, data=[64, 0]),
   midi.NoteOnEvent(tick=2, channel=2, data=[52, 110]),
   midi.NoteOnEvent(tick=0, channel=2, data=[59, 110]),
   midi.NoteOnEvent(tick=160, channel=2, data=[52, 0]),
   midi.NoteOnEvent(tick=0, channel=2, data=[59, 0]),
   midi.NoteOnEvent(tick=32, channel=2, data=[60, 110]),
   midi.NoteOnEvent(tick=160, channel=2, data=[60, 0]),
   midi.NoteOnEvent(tick=32, channel=2, data=[60, 110]),
   midi.NoteOnEvent(tick=94, channel=2, data=[60, 0]),
   midi.NoteOnEvent(tick=2, channel=2, data=[60, 110]),
   midi.NoteOnEvent(tick=94, channel=2, data=[60, 0]),
   midi.NoteOnEvent(tick=2, channel=2, data=[67, 110]),
   midi.NoteOnEvent(tick=94, channel=2, data=[67, 0]),
   midi.NoteOnEvent(tick=2, channel=2, data=[64, 110]),
   midi.NoteOnEvent(tick=94, channel=2, data=[64, 0]),
   midi.NoteOnEvent(tick=2, channel=2, data=[60, 110]),
   midi.NoteOnEvent(tick=94, channel=2, data=[60, 0]),
   midi.NoteOnEvent(tick=2, channel=2, data=[60, 110]),
   midi.NoteOnEvent(tick=94, channel=2, data=[60, 0]),
   midi.NoteOnEvent(tick=2, channel=2, data=[67, 110]),
   midi.NoteOnEvent(tick=94, channel=2, data=[67, 0]),
   midi.NoteOnEvent(tick=2, channel=2, data=[64, 110]),
   midi.NoteOnEvent(tick=94, channel=2, data=[64, 0]),
   midi.NoteOnEvent(tick=2, channel=2, data=[60, 110]),
   midi.NoteOnEvent(tick=94, channel=2, data=[60, 0]),
   midi.NoteOnEvent(tick=2, channel=2, data=[60, 110]),
   midi.NoteOnEvent(tick=94, channel=2, data=[60, 0]),
   midi.NoteOnEvent(tick=2, channel=2, data=[67, 110]),
   midi.NoteOnEvent(tick=94, channel=2, data=[67, 0]),
   midi.NoteOnEvent(tick=2, channel=2, data=[64, 110]),
   midi.NoteOnEvent(tick=94, channel=2, data=[64, 0]),
   midi.NoteOnEvent(tick=2, channel=2, data=[60, 110]),
   midi.NoteOnEvent(tick=94, channel=2, data=[60, 0]),
   midi.NoteOnEvent(tick=2, channel=2, data=[60, 110]),
   midi.NoteOnEvent(tick=94, channel=2, data=[60, 0]),
   midi.NoteOnEvent(tick=2, channel=2, data=[60, 110]),
   midi.NoteOnEvent(tick=0, channel=2, data=[64, 110]),
   midi.NoteOnEvent(tick=160, channel=2, data=[60, 0]),
   midi.NoteOnEvent(tick=0, channel=2, data=[64, 0]),
   midi.NoteOnEvent(tick=32, channel=2, data=[60, 110]),
   midi.NoteOnEvent(tick=94, channel=2, data=[60, 0]),
   midi.NoteOnEvent(tick=2, channel=2, data=[60, 110]),
   midi.NoteOnEvent(tick=94, channel=2, data=[60, 0]),
   midi.NoteOnEvent(tick=2, channel=2, data=[67, 110]),
   midi.NoteOnEvent(tick=94, channel=2, data=[67, 0]),
   midi.NoteOnEvent(tick=2, channel=2, data=[64, 110]),
   midi.NoteOnEvent(tick=94, channel=2, data=[64, 0]),
   midi.NoteOnEvent(tick=2, channel=2, data=[60, 110]),
   midi.NoteOnEvent(tick=94, channel=2, data=[60, 0]),
   midi.NoteOnEvent(tick=2, channel=2, data=[60, 110]),
   midi.NoteOnEvent(tick=94, channel=2, data=[60, 0]),
   midi.NoteOnEvent(tick=2, channel=2, data=[67, 110]),
   midi.NoteOnEvent(tick=94, channel=2, data=[67, 0]),
   midi.NoteOnEvent(tick=2, channel=2, data=[64, 110]),
   midi.NoteOnEvent(tick=94, channel=2, data=[64, 0]),
   midi.NoteOnEvent(tick=2, channel=2, data=[60, 110]),
   midi.NoteOnEvent(tick=94, channel=2, data=[60, 0]),
   midi.NoteOnEvent(tick=2, channel=2, data=[60, 110]),
   midi.NoteOnEvent(tick=94, channel=2, data=[60, 0]),
   midi.NoteOnEvent(tick=2, channel=2, data=[67, 110]),
   midi.NoteOnEvent(tick=94, channel=2, data=[67, 0]),
   midi.NoteOnEvent(tick=2, channel=2, data=[64, 110]),
   midi.NoteOnEvent(tick=94, channel=2, data=[64, 0]),
   midi.NoteOnEvent(tick=2, channel=2, data=[60, 110]),
   midi.NoteOnEvent(tick=94, channel=2, data=[60, 0]),
   midi.NoteOnEvent(tick=2, channel=2, data=[60, 110]),
   midi.NoteOnEvent(tick=94, channel=2, data=[60, 0]),
   midi.NoteOnEvent(tick=2, channel=2, data=[52, 110]),
   midi.NoteOnEvent(tick=0, channel=2, data=[59, 110]),
   midi.NoteOnEvent(tick=0, channel=2, data=[64, 110]),
   midi.NoteOnEvent(tick=160, channel=2, data=[52, 0]),
   midi.NoteOnEvent(tick=0, channel=2, data=[59, 0]),
   midi.NoteOnEvent(tick=0, channel=2, data=[64, 0]),
   midi.NoteOnEvent(tick=32, channel=2, data=[52, 110]),
   midi.NoteOnEvent(tick=94, channel=2, data=[52, 0]),
   midi.NoteOnEvent(tick=2, channel=2, data=[52, 110]),
   midi.NoteOnEvent(tick=94, channel=2, data=[52, 0]),
   midi.NoteOnEvent(tick=2, channel=2, data=[52, 110]),
   midi.NoteOnEvent(tick=0, channel=2, data=[62, 110]),
   midi.NoteOnEvent(tick=94, channel=2, data=[52, 0]),
   midi.NoteOnEvent(tick=0, channel=2, data=[62, 0]),
   midi.NoteOnEvent(tick=2, channel=2, data=[64, 110]),
   midi.NoteOnEvent(tick=94, channel=2, data=[64, 0]),
   midi.NoteOnEvent(tick=2, channel=2, data=[52, 110]),
   midi.NoteOnEvent(tick=94, channel=2, data=[52, 0]),
   midi.NoteOnEvent(tick=2, channel=2, data=[52, 110]),
   midi.NoteOnEvent(tick=94, channel=2, data=[52, 0]),
   midi.NoteOnEvent(tick=2, channel=2, data=[52, 110]),
   midi.NoteOnEvent(tick=0, channel=2, data=[62, 110]),
   midi.NoteOnEvent(tick=160, channel=2, data=[52, 0]),
   midi.NoteOnEvent(tick=0, channel=2, data=[62, 0]),
   midi.NoteOnEvent(tick=32, channel=2, data=[52, 110]),
   midi.NoteOnEvent(tick=94, channel=2, data=[52, 0]),
   midi.NoteOnEvent(tick=2, channel=2, data=[52, 110]),
   midi.NoteOnEvent(tick=94, channel=2, data=[52, 0]),
   midi.NoteOnEvent(tick=2, channel=2, data=[52, 110]),
   midi.NoteOnEvent(tick=0, channel=2, data=[61, 110]),
   midi.NoteOnEvent(tick=94, channel=2, data=[52, 0]),
   midi.NoteOnEvent(tick=0, channel=2, data=[61, 0]),
   midi.NoteOnEvent(tick=2, channel=2, data=[64, 110]),
   midi.NoteOnEvent(tick=94, channel=2, data=[64, 0]),
   midi.NoteOnEvent(tick=2, channel=2, data=[52, 110]),
   midi.NoteOnEvent(tick=94, channel=2, data=[52, 0]),
   midi.NoteOnEvent(tick=2, channel=2, data=[52, 110]),
   midi.NoteOnEvent(tick=94, channel=2, data=[52, 0]),
   midi.NoteOnEvent(tick=2, channel=2, data=[52, 110]),
   midi.NoteOnEvent(tick=0, channel=2, data=[59, 110]),
   midi.NoteOnEvent(tick=0, channel=2, data=[64, 110]),
   midi.NoteOnEvent(tick=160, channel=2, data=[52, 0]),
   midi.NoteOnEvent(tick=0, channel=2, data=[59, 0]),
   midi.NoteOnEvent(tick=0, channel=2, data=[64, 0]),
   midi.NoteOnEvent(tick=32, channel=2, data=[52, 110]),
   midi.NoteOnEvent(tick=94, channel=2, data=[52, 0]),
   midi.NoteOnEvent(tick=2, channel=2, data=[52, 110]),
   midi.NoteOnEvent(tick=94, channel=2, data=[52, 0]),
   midi.NoteOnEvent(tick=2, channel=2, data=[52, 110]),
   midi.NoteOnEvent(tick=0, channel=2, data=[62, 110]),
   midi.NoteOnEvent(tick=94, channel=2, data=[52, 0]),
   midi.NoteOnEvent(tick=0, channel=2, data=[62, 0]),
   midi.NoteOnEvent(tick=2, channel=2, data=[64, 110]),
   midi.NoteOnEvent(tick=94, channel=2, data=[64, 0]),
   midi.NoteOnEvent(tick=2, channel=2, data=[52, 110]),
   midi.NoteOnEvent(tick=94, channel=2, data=[52, 0]),
   midi.NoteOnEvent(tick=2, channel=2, data=[52, 110]),
   midi.NoteOnEvent(tick=94, channel=2, data=[52, 0]),
   midi.NoteOnEvent(tick=2, channel=2, data=[52, 110]),
   midi.NoteOnEvent(tick=0, channel=2, data=[62, 110]),
   midi.NoteOnEvent(tick=160, channel=2, data=[52, 0]),
   midi.NoteOnEvent(tick=0, channel=2, data=[62, 0]),
   midi.NoteOnEvent(tick=32, channel=2, data=[52, 110]),
   midi.NoteOnEvent(tick=94, channel=2, data=[52, 0]),
   midi.NoteOnEvent(tick=2, channel=2, data=[52, 110]),
   midi.NoteOnEvent(tick=94, channel=2, data=[52, 0]),
   midi.NoteOnEvent(tick=2, channel=2, data=[52, 110]),
   midi.NoteOnEvent(tick=0, channel=2, data=[61, 110]),
   midi.NoteOnEvent(tick=94, channel=2, data=[52, 0]),
   midi.NoteOnEvent(tick=0, channel=2, data=[61, 0]),
   midi.NoteOnEvent(tick=2, channel=2, data=[64, 110]),
   midi.NoteOnEvent(tick=94, channel=2, data=[64, 0]),
   midi.NoteOnEvent(tick=2, channel=2, data=[52, 110]),
   midi.NoteOnEvent(tick=0, channel=2, data=[59, 110]),
   midi.NoteOnEvent(tick=160, channel=2, data=[52, 0]),
   midi.NoteOnEvent(tick=0, channel=2, data=[59, 0]),
   midi.NoteOnEvent(tick=32, channel=2, data=[52, 110]),
   midi.NoteOnEvent(tick=0, channel=2, data=[59, 110]),
   midi.NoteOnEvent(tick=0, channel=2, data=[64, 110]),
   midi.NoteOnEvent(tick=160, channel=2, data=[52, 0]),
   midi.NoteOnEvent(tick=0, channel=2, data=[59, 0]),
   midi.NoteOnEvent(tick=0, channel=2, data=[64, 0]),
   midi.NoteOnEvent(tick=32, channel=2, data=[52, 110]),
   midi.NoteOnEvent(tick=94, channel=2, data=[52, 0]),
   midi.NoteOnEvent(tick=2, channel=2, data=[52, 110]),
   midi.NoteOnEvent(tick=94, channel=2, data=[52, 0]),
   midi.NoteOnEvent(tick=2, channel=2, data=[52, 110]),
   midi.NoteOnEvent(tick=0, channel=2, data=[62, 110]),
   midi.NoteOnEvent(tick=94, channel=2, data=[52, 0]),
   midi.NoteOnEvent(tick=0, channel=2, data=[62, 0]),
   midi.NoteOnEvent(tick=2, channel=2, data=[64, 110]),
   midi.NoteOnEvent(tick=94, channel=2, data=[64, 0]),
   midi.NoteOnEvent(tick=2, channel=2, data=[52, 110]),
   midi.NoteOnEvent(tick=94, channel=2, data=[52, 0]),
   midi.NoteOnEvent(tick=2, channel=2, data=[52, 110]),
   midi.NoteOnEvent(tick=94, channel=2, data=[52, 0]),
   midi.NoteOnEvent(tick=2, channel=2, data=[52, 110]),
   midi.NoteOnEvent(tick=0, channel=2, data=[62, 110]),
   midi.NoteOnEvent(tick=160, channel=2, data=[52, 0]),
   midi.NoteOnEvent(tick=0, channel=2, data=[62, 0]),
   midi.NoteOnEvent(tick=32, channel=2, data=[52, 110]),
   midi.NoteOnEvent(tick=94, channel=2, data=[52, 0]),
   midi.NoteOnEvent(tick=2, channel=2, data=[52, 110]),
   midi.NoteOnEvent(tick=94, channel=2, data=[52, 0]),
   midi.NoteOnEvent(tick=2, channel=2, data=[52, 110]),
   midi.NoteOnEvent(tick=0, channel=2, data=[61, 110]),
   midi.NoteOnEvent(tick=94, channel=2, data=[52, 0]),
   midi.NoteOnEvent(tick=0, channel=2, data=[61, 0]),
   midi.NoteOnEvent(tick=2, channel=2, data=[64, 110]),
   midi.NoteOnEvent(tick=94, channel=2, data=[64, 0]),
   midi.NoteOnEvent(tick=2, channel=2, data=[52, 110]),
   midi.NoteOnEvent(tick=94, channel=2, data=[52, 0]),
   midi.NoteOnEvent(tick=2, channel=2, data=[52, 110]),
   midi.NoteOnEvent(tick=94, channel=2, data=[52, 0]),
   midi.NoteOnEvent(tick=2, channel=2, data=[52, 110]),
   midi.NoteOnEvent(tick=0, channel=2, data=[59, 110]),
   midi.NoteOnEvent(tick=0, channel=2, data=[64, 110]),
   midi.NoteOnEvent(tick=160, channel=2, data=[52, 0]),
   midi.NoteOnEvent(tick=0, channel=2, data=[59, 0]),
   midi.NoteOnEvent(tick=0, channel=2, data=[64, 0]),
   midi.NoteOnEvent(tick=32, channel=2, data=[52, 110]),
   midi.NoteOnEvent(tick=94, channel=2, data=[52, 0]),
   midi.NoteOnEvent(tick=2, channel=2, data=[52, 110]),
   midi.NoteOnEvent(tick=94, channel=2, data=[52, 0]),
   midi.NoteOnEvent(tick=2, channel=2, data=[52, 110]),
   midi.NoteOnEvent(tick=0, channel=2, data=[62, 110]),
   midi.NoteOnEvent(tick=94, channel=2, data=[52, 0]),
   midi.NoteOnEvent(tick=0, channel=2, data=[62, 0]),
   midi.NoteOnEvent(tick=2, channel=2, data=[64, 110]),
   midi.NoteOnEvent(tick=94, channel=2, data=[64, 0]),
   midi.NoteOnEvent(tick=2, channel=2, data=[52, 110]),
   midi.NoteOnEvent(tick=94, channel=2, data=[52, 0]),
   midi.NoteOnEvent(tick=2, channel=2, data=[52, 110]),
   midi.NoteOnEvent(tick=94, channel=2, data=[52, 0]),
   midi.NoteOnEvent(tick=2, channel=2, data=[52, 110]),
   midi.NoteOnEvent(tick=0, channel=2, data=[62, 110]),
   midi.NoteOnEvent(tick=160, channel=2, data=[52, 0]),
   midi.NoteOnEvent(tick=0, channel=2, data=[62, 0]),
   midi.NoteOnEvent(tick=32, channel=2, data=[52, 110]),
   midi.NoteOnEvent(tick=94, channel=2, data=[52, 0]),
   midi.NoteOnEvent(tick=2, channel=2, data=[52, 110]),
   midi.NoteOnEvent(tick=94, channel=2, data=[52, 0]),
   midi.NoteOnEvent(tick=2, channel=2, data=[52, 110]),
   midi.NoteOnEvent(tick=0, channel=2, data=[61, 110]),
   midi.NoteOnEvent(tick=94, channel=2, data=[52, 0]),
   midi.NoteOnEvent(tick=0, channel=2, data=[61, 0]),
   midi.NoteOnEvent(tick=2, channel=2, data=[64, 110]),
   midi.NoteOnEvent(tick=94, channel=2, data=[64, 0]),
   midi.NoteOnEvent(tick=2, channel=2, data=[52, 110]),
   midi.NoteOnEvent(tick=0, channel=2, data=[59, 110]),
   midi.NoteOnEvent(tick=160, channel=2, data=[52, 0]),
   midi.NoteOnEvent(tick=0, channel=2, data=[59, 0]),
   midi.NoteOnEvent(tick=32, channel=2, data=[52, 110]),
   midi.NoteOnEvent(tick=0, channel=2, data=[59, 110]),
   midi.NoteOnEvent(tick=0, channel=2, data=[64, 110]),
   midi.NoteOnEvent(tick=160, channel=2, data=[52, 0]),
   midi.NoteOnEvent(tick=0, channel=2, data=[59, 0]),
   midi.NoteOnEvent(tick=0, channel=2, data=[64, 0]),
   midi.NoteOnEvent(tick=32, channel=2, data=[52, 110]),
   midi.NoteOnEvent(tick=94, channel=2, data=[52, 0]),
   midi.NoteOnEvent(tick=2, channel=2, data=[52, 110]),
   midi.NoteOnEvent(tick=94, channel=2, data=[52, 0]),
   midi.NoteOnEvent(tick=2, channel=2, data=[52, 110]),
   midi.NoteOnEvent(tick=0, channel=2, data=[62, 110]),
   midi.NoteOnEvent(tick=94, channel=2, data=[52, 0]),
   midi.NoteOnEvent(tick=0, channel=2, data=[62, 0]),
   midi.NoteOnEvent(tick=2, channel=2, data=[64, 110]),
   midi.NoteOnEvent(tick=94, channel=2, data=[64, 0]),
   midi.NoteOnEvent(tick=2, channel=2, data=[52, 110]),
   midi.NoteOnEvent(tick=94, channel=2, data=[52, 0]),
   midi.NoteOnEvent(tick=2, channel=2, data=[52, 110]),
   midi.NoteOnEvent(tick=94, channel=2, data=[52, 0]),
   midi.NoteOnEvent(tick=2, channel=2, data=[52, 110]),
   midi.NoteOnEvent(tick=0, channel=2, data=[62, 110]),
   midi.NoteOnEvent(tick=160, channel=2, data=[52, 0]),
   midi.NoteOnEvent(tick=0, channel=2, data=[62, 0]),
   midi.NoteOnEvent(tick=32, channel=2, data=[52, 110]),
   midi.NoteOnEvent(tick=94, channel=2, data=[52, 0]),
   midi.NoteOnEvent(tick=2, channel=2, data=[52, 110]),
   midi.NoteOnEvent(tick=94, channel=2, data=[52, 0]),
   midi.NoteOnEvent(tick=2, channel=2, data=[52, 110]),
   midi.NoteOnEvent(tick=0, channel=2, data=[61, 110]),
   midi.NoteOnEvent(tick=94, channel=2, data=[52, 0]),
   midi.NoteOnEvent(tick=0, channel=2, data=[61, 0]),
   midi.NoteOnEvent(tick=2, channel=2, data=[64, 110]),
   midi.NoteOnEvent(tick=94, channel=2, data=[64, 0]),
   midi.NoteOnEvent(tick=2, channel=2, data=[52, 110]),
   midi.NoteOnEvent(tick=94, channel=2, data=[52, 0]),
   midi.NoteOnEvent(tick=2, channel=2, data=[52, 110]),
   midi.NoteOnEvent(tick=94, channel=2, data=[52, 0]),
   midi.NoteOnEvent(tick=2, channel=2, data=[52, 110]),
   midi.NoteOnEvent(tick=0, channel=2, data=[59, 110]),
   midi.NoteOnEvent(tick=0, channel=2, data=[64, 110]),
   midi.NoteOnEvent(tick=160, channel=2, data=[52, 0]),
   midi.NoteOnEvent(tick=0, channel=2, data=[59, 0]),
   midi.NoteOnEvent(tick=0, channel=2, data=[64, 0]),
   midi.NoteOnEvent(tick=32, channel=2, data=[52, 110]),
   midi.NoteOnEvent(tick=94, channel=2, data=[52, 0]),
   midi.NoteOnEvent(tick=2, channel=2, data=[52, 110]),
   midi.NoteOnEvent(tick=94, channel=2, data=[52, 0]),
   midi.NoteOnEvent(tick=2, channel=2, data=[52, 110]),
   midi.NoteOnEvent(tick=0, channel=2, data=[62, 110]),
   midi.NoteOnEvent(tick=94, channel=2, data=[52, 0]),
   midi.NoteOnEvent(tick=0, channel=2, data=[62, 0]),
   midi.NoteOnEvent(tick=2, channel=2, data=[64, 110]),
   midi.NoteOnEvent(tick=94, channel=2, data=[64, 0]),
   midi.NoteOnEvent(tick=2, channel=2, data=[52, 110]),
   midi.NoteOnEvent(tick=94, channel=2, data=[52, 0]),
   midi.NoteOnEvent(tick=2, channel=2, data=[52, 110]),
   midi.NoteOnEvent(tick=94, channel=2, data=[52, 0]),
   midi.NoteOnEvent(tick=2, channel=2, data=[52, 110]),
   midi.NoteOnEvent(tick=0, channel=2, data=[62, 110]),
   midi.NoteOnEvent(tick=160, channel=2, data=[52, 0]),
   midi.NoteOnEvent(tick=0, channel=2, data=[62, 0]),
   midi.NoteOnEvent(tick=32, channel=2, data=[52, 110]),
   midi.NoteOnEvent(tick=94, channel=2, data=[52, 0]),
   midi.NoteOnEvent(tick=2, channel=2, data=[52, 110]),
   midi.NoteOnEvent(tick=94, channel=2, data=[52, 0]),
   midi.NoteOnEvent(tick=2, channel=2, data=[52, 110]),
   midi.NoteOnEvent(tick=0, channel=2, data=[61, 110]),
   midi.NoteOnEvent(tick=94, channel=2, data=[52, 0]),
   midi.NoteOnEvent(tick=0, channel=2, data=[61, 0]),
   midi.NoteOnEvent(tick=2, channel=2, data=[64, 110]),
   midi.NoteOnEvent(tick=94, channel=2, data=[64, 0]),
   midi.NoteOnEvent(tick=2, channel=2, data=[52, 110]),
   midi.NoteOnEvent(tick=0, channel=2, data=[59, 110]),
   midi.NoteOnEvent(tick=160, channel=2, data=[52, 0]),
   midi.NoteOnEvent(tick=0, channel=2, data=[59, 0]),
   midi.NoteOnEvent(tick=32, channel=2, data=[52, 110]),
   midi.NoteOnEvent(tick=94, channel=2, data=[52, 0]),
   midi.NoteOnEvent(tick=2, channel=2, data=[52, 110]),
   midi.NoteOnEvent(tick=46, channel=2, data=[52, 0]),
   midi.NoteOnEvent(tick=2, channel=2, data=[52, 110]),
   midi.NoteOnEvent(tick=46, channel=2, data=[52, 0]),
   midi.NoteOnEvent(tick=2, channel=2, data=[52, 110]),
   midi.NoteOnEvent(tick=94, channel=2, data=[52, 0]),
   midi.NoteOnEvent(tick=2, channel=2, data=[52, 110]),
   midi.NoteOnEvent(tick=94, channel=2, data=[52, 0]),
   midi.NoteOnEvent(tick=2, channel=2, data=[52, 110]),
   midi.NoteOnEvent(tick=94, channel=2, data=[52, 0]),
   midi.NoteOnEvent(tick=2, channel=2, data=[52, 110]),
   midi.NoteOnEvent(tick=94, channel=2, data=[52, 0]),
   midi.NoteOnEvent(tick=2, channel=2, data=[52, 110]),
   midi.NoteOnEvent(tick=94, channel=2, data=[52, 0]),
   midi.NoteOnEvent(tick=2, channel=2, data=[52, 110]),
   midi.NoteOnEvent(tick=94, channel=2, data=[52, 0]),
   midi.NoteOnEvent(tick=1442, channel=2, data=[55, 110]),
   midi.NoteOnEvent(tick=94, channel=2, data=[55, 0]),
   midi.NoteOnEvent(tick=2, channel=2, data=[55, 110]),
   midi.NoteOnEvent(tick=94, channel=2, data=[55, 0]),
   midi.NoteOnEvent(tick=2, channel=2, data=[55, 110]),
   midi.NoteOnEvent(tick=94, channel=2, data=[55, 0]),
   midi.NoteOnEvent(tick=2, channel=2, data=[55, 110]),
   midi.NoteOnEvent(tick=94, channel=2, data=[55, 0]),
   midi.NoteOnEvent(tick=2, channel=2, data=[55, 110]),
   midi.NoteOnEvent(tick=94, channel=2, data=[55, 0]),
   midi.NoteOnEvent(tick=2, channel=2, data=[55, 110]),
   midi.NoteOnEvent(tick=94, channel=2, data=[55, 0]),
   midi.NoteOnEvent(tick=2, channel=2, data=[55, 110]),
   midi.NoteOnEvent(tick=94, channel=2, data=[55, 0]),
   midi.NoteOnEvent(tick=2, channel=2, data=[55, 110]),
   midi.NoteOnEvent(tick=94, channel=2, data=[55, 0]),
   midi.NoteOnEvent(tick=2, channel=2, data=[55, 110]),
   midi.NoteOnEvent(tick=94, channel=2, data=[55, 0]),
   midi.NoteOnEvent(tick=2, channel=2, data=[55, 110]),
   midi.NoteOnEvent(tick=94, channel=2, data=[55, 0]),
   midi.NoteOnEvent(tick=2, channel=2, data=[55, 110]),
   midi.NoteOnEvent(tick=94, channel=2, data=[55, 0]),
   midi.NoteOnEvent(tick=2, channel=2, data=[55, 110]),
   midi.NoteOnEvent(tick=94, channel=2, data=[55, 0]),
   midi.NoteOnEvent(tick=2, channel=2, data=[55, 110]),
   midi.NoteOnEvent(tick=94, channel=2, data=[55, 0]),
   midi.NoteOnEvent(tick=2, channel=2, data=[55, 110]),
   midi.NoteOnEvent(tick=94, channel=2, data=[55, 0]),
   midi.NoteOnEvent(tick=2, channel=2, data=[55, 110]),
   midi.NoteOnEvent(tick=94, channel=2, data=[55, 0]),
   midi.NoteOnEvent(tick=2, channel=2, data=[55, 110]),
   midi.NoteOnEvent(tick=94, channel=2, data=[55, 0]),
   midi.NoteOnEvent(tick=2, channel=2, data=[61, 110]),
   midi.NoteOnEvent(tick=0, channel=2, data=[68, 110]),
   midi.NoteOnEvent(tick=94, channel=2, data=[61, 0]),
   midi.NoteOnEvent(tick=0, channel=2, data=[68, 0]),
   midi.NoteOnEvent(tick=2, channel=2, data=[61, 110]),
   midi.NoteOnEvent(tick=46, channel=2, data=[61, 0]),
   midi.NoteOnEvent(tick=2, channel=2, data=[61, 110]),
   midi.NoteOnEvent(tick=46, channel=2, data=[61, 0]),
   midi.NoteOnEvent(tick=2, channel=2, data=[61, 110]),
   midi.NoteOnEvent(tick=46, channel=2, data=[61, 0]),
   midi.NoteOnEvent(tick=2, channel=2, data=[61, 110]),
   midi.NoteOnEvent(tick=46, channel=2, data=[61, 0]),
   midi.NoteOnEvent(tick=2, channel=2, data=[61, 110]),
   midi.NoteOnEvent(tick=46, channel=2, data=[61, 0]),
   midi.NoteOnEvent(tick=2, channel=2, data=[61, 110]),
   midi.NoteOnEvent(tick=46, channel=2, data=[61, 0]),
   midi.NoteOnEvent(tick=2, channel=2, data=[61, 110]),
   midi.NoteOnEvent(tick=94, channel=2, data=[61, 0]),
   midi.NoteOnEvent(tick=2, channel=2, data=[61, 110]),
   midi.NoteOnEvent(tick=46, channel=2, data=[61, 0]),
   midi.NoteOnEvent(tick=2, channel=2, data=[61, 110]),
   midi.NoteOnEvent(tick=46, channel=2, data=[61, 0]),
   midi.NoteOnEvent(tick=2, channel=2, data=[61, 110]),
   midi.NoteOnEvent(tick=46, channel=2, data=[61, 0]),
   midi.NoteOnEvent(tick=2, channel=2, data=[61, 110]),
   midi.NoteOnEvent(tick=46, channel=2, data=[61, 0]),
   midi.NoteOnEvent(tick=2, channel=2, data=[61, 110]),
   midi.NoteOnEvent(tick=46, channel=2, data=[61, 0]),
   midi.NoteOnEvent(tick=2, channel=2, data=[61, 110]),
   midi.NoteOnEvent(tick=46, channel=2, data=[61, 0]),
   midi.NoteOnEvent(tick=2, channel=2, data=[61, 110]),
   midi.NoteOnEvent(tick=0, channel=2, data=[68, 110]),
   midi.NoteOnEvent(tick=94, channel=2, data=[61, 0]),
   midi.NoteOnEvent(tick=0, channel=2, data=[68, 0]),
   midi.NoteOnEvent(tick=2, channel=2, data=[61, 110]),
   midi.NoteOnEvent(tick=46, channel=2, data=[61, 0]),
   midi.NoteOnEvent(tick=2, channel=2, data=[61, 110]),
   midi.NoteOnEvent(tick=46, channel=2, data=[61, 0]),
   midi.NoteOnEvent(tick=2, channel=2, data=[61, 110]),
   midi.NoteOnEvent(tick=46, channel=2, data=[61, 0]),
   midi.NoteOnEvent(tick=2, channel=2, data=[61, 110]),
   midi.NoteOnEvent(tick=46, channel=2, data=[61, 0]),
   midi.NoteOnEvent(tick=2, channel=2, data=[61, 110]),
   midi.NoteOnEvent(tick=46, channel=2, data=[61, 0]),
   midi.NoteOnEvent(tick=2, channel=2, data=[61, 110]),
   midi.NoteOnEvent(tick=46, channel=2, data=[61, 0]),
   midi.NoteOnEvent(tick=2, channel=2, data=[61, 110]),
   midi.NoteOnEvent(tick=94, channel=2, data=[61, 0]),
   midi.NoteOnEvent(tick=2, channel=2, data=[61, 110]),
   midi.NoteOnEvent(tick=46, channel=2, data=[61, 0]),
   midi.NoteOnEvent(tick=2, channel=2, data=[61, 110]),
   midi.NoteOnEvent(tick=46, channel=2, data=[61, 0]),
   midi.NoteOnEvent(tick=2, channel=2, data=[61, 110]),
   midi.NoteOnEvent(tick=46, channel=2, data=[61, 0]),
   midi.NoteOnEvent(tick=2, channel=2, data=[61, 110]),
   midi.NoteOnEvent(tick=46, channel=2, data=[61, 0]),
   midi.NoteOnEvent(tick=2, channel=2, data=[61, 110]),
   midi.NoteOnEvent(tick=46, channel=2, data=[61, 0]),
   midi.NoteOnEvent(tick=2, channel=2, data=[61, 110]),
   midi.NoteOnEvent(tick=46, channel=2, data=[61, 0]),
   midi.NoteOnEvent(tick=2, channel=2, data=[61, 110]),
   midi.NoteOnEvent(tick=0, channel=2, data=[68, 110]),
   midi.NoteOnEvent(tick=94, channel=2, data=[61, 0]),
   midi.NoteOnEvent(tick=0, channel=2, data=[68, 0]),
   midi.NoteOnEvent(tick=2, channel=2, data=[61, 110]),
   midi.NoteOnEvent(tick=46, channel=2, data=[61, 0]),
   midi.NoteOnEvent(tick=2, channel=2, data=[61, 110]),
   midi.NoteOnEvent(tick=46, channel=2, data=[61, 0]),
   midi.NoteOnEvent(tick=2, channel=2, data=[61, 110]),
   midi.NoteOnEvent(tick=46, channel=2, data=[61, 0]),
   midi.NoteOnEvent(tick=2, channel=2, data=[61, 110]),
   midi.NoteOnEvent(tick=46, channel=2, data=[61, 0]),
   midi.NoteOnEvent(tick=2, channel=2, data=[61, 110]),
   midi.NoteOnEvent(tick=46, channel=2, data=[61, 0]),
   midi.NoteOnEvent(tick=2, channel=2, data=[61, 110]),
   midi.NoteOnEvent(tick=46, channel=2, data=[61, 0]),
   midi.NoteOnEvent(tick=2, channel=2, data=[61, 110]),
   midi.NoteOnEvent(tick=94, channel=2, data=[61, 0]),
   midi.NoteOnEvent(tick=2, channel=2, data=[61, 110]),
   midi.NoteOnEvent(tick=46, channel=2, data=[61, 0]),
   midi.NoteOnEvent(tick=2, channel=2, data=[61, 110]),
   midi.NoteOnEvent(tick=46, channel=2, data=[61, 0]),
   midi.NoteOnEvent(tick=2, channel=2, data=[61, 110]),
   midi.NoteOnEvent(tick=46, channel=2, data=[61, 0]),
   midi.NoteOnEvent(tick=2, channel=2, data=[61, 110]),
   midi.NoteOnEvent(tick=46, channel=2, data=[61, 0]),
   midi.NoteOnEvent(tick=2, channel=2, data=[61, 110]),
   midi.NoteOnEvent(tick=46, channel=2, data=[61, 0]),
   midi.NoteOnEvent(tick=2, channel=2, data=[61, 110]),
   midi.NoteOnEvent(tick=46, channel=2, data=[61, 0]),
   midi.NoteOnEvent(tick=2, channel=2, data=[61, 110]),
   midi.NoteOnEvent(tick=0, channel=2, data=[68, 110]),
   midi.NoteOnEvent(tick=94, channel=2, data=[61, 0]),
   midi.NoteOnEvent(tick=0, channel=2, data=[68, 0]),
   midi.NoteOnEvent(tick=2, channel=2, data=[61, 110]),
   midi.NoteOnEvent(tick=46, channel=2, data=[61, 0]),
   midi.NoteOnEvent(tick=2, channel=2, data=[61, 110]),
   midi.NoteOnEvent(tick=46, channel=2, data=[61, 0]),
   midi.NoteOnEvent(tick=2, channel=2, data=[61, 110]),
   midi.NoteOnEvent(tick=46, channel=2, data=[61, 0]),
   midi.NoteOnEvent(tick=2, channel=2, data=[61, 110]),
   midi.NoteOnEvent(tick=46, channel=2, data=[61, 0]),
   midi.NoteOnEvent(tick=2, channel=2, data=[61, 110]),
   midi.NoteOnEvent(tick=46, channel=2, data=[61, 0]),
   midi.NoteOnEvent(tick=2, channel=2, data=[61, 110]),
   midi.NoteOnEvent(tick=46, channel=2, data=[61, 0]),
   midi.NoteOnEvent(tick=2, channel=2, data=[61, 110]),
   midi.NoteOnEvent(tick=94, channel=2, data=[61, 0]),
   midi.NoteOnEvent(tick=2, channel=2, data=[61, 110]),
   midi.NoteOnEvent(tick=46, channel=2, data=[61, 0]),
   midi.NoteOnEvent(tick=2, channel=2, data=[61, 110]),
   midi.NoteOnEvent(tick=46, channel=2, data=[61, 0]),
   midi.NoteOnEvent(tick=2, channel=2, data=[61, 110]),
   midi.NoteOnEvent(tick=46, channel=2, data=[61, 0]),
   midi.NoteOnEvent(tick=2, channel=2, data=[61, 110]),
   midi.NoteOnEvent(tick=46, channel=2, data=[61, 0]),
   midi.NoteOnEvent(tick=2, channel=2, data=[61, 110]),
   midi.NoteOnEvent(tick=46, channel=2, data=[61, 0]),
   midi.NoteOnEvent(tick=2, channel=2, data=[61, 110]),
   midi.NoteOnEvent(tick=46, channel=2, data=[61, 0]),
   midi.NoteOnEvent(tick=2, channel=2, data=[61, 110]),
   midi.NoteOnEvent(tick=0, channel=2, data=[68, 110]),
   midi.NoteOnEvent(tick=94, channel=2, data=[61, 0]),
   midi.NoteOnEvent(tick=0, channel=2, data=[68, 0]),
   midi.NoteOnEvent(tick=2, channel=2, data=[61, 110]),
   midi.NoteOnEvent(tick=46, channel=2, data=[61, 0]),
   midi.NoteOnEvent(tick=2, channel=2, data=[61, 110]),
   midi.NoteOnEvent(tick=46, channel=2, data=[61, 0]),
   midi.NoteOnEvent(tick=2, channel=2, data=[61, 110]),
   midi.NoteOnEvent(tick=46, channel=2, data=[61, 0]),
   midi.NoteOnEvent(tick=2, channel=2, data=[61, 110]),
   midi.NoteOnEvent(tick=46, channel=2, data=[61, 0]),
   midi.NoteOnEvent(tick=2, channel=2, data=[61, 110]),
   midi.NoteOnEvent(tick=46, channel=2, data=[61, 0]),
   midi.NoteOnEvent(tick=2, channel=2, data=[61, 110]),
   midi.NoteOnEvent(tick=46, channel=2, data=[61, 0]),
   midi.NoteOnEvent(tick=2, channel=2, data=[61, 110]),
   midi.NoteOnEvent(tick=94, channel=2, data=[61, 0]),
   midi.NoteOnEvent(tick=2, channel=2, data=[61, 110]),
   midi.NoteOnEvent(tick=46, channel=2, data=[61, 0]),
   midi.NoteOnEvent(tick=2, channel=2, data=[61, 110]),
   midi.NoteOnEvent(tick=46, channel=2, data=[61, 0]),
   midi.NoteOnEvent(tick=2, channel=2, data=[61, 110]),
   midi.NoteOnEvent(tick=46, channel=2, data=[61, 0]),
   midi.NoteOnEvent(tick=2, channel=2, data=[61, 110]),
   midi.NoteOnEvent(tick=46, channel=2, data=[61, 0]),
   midi.NoteOnEvent(tick=2, channel=2, data=[61, 110]),
   midi.NoteOnEvent(tick=46, channel=2, data=[61, 0]),
   midi.NoteOnEvent(tick=2, channel=2, data=[61, 110]),
   midi.NoteOnEvent(tick=46, channel=2, data=[61, 0]),
   midi.NoteOnEvent(tick=2, channel=2, data=[61, 110]),
   midi.NoteOnEvent(tick=0, channel=2, data=[68, 110]),
   midi.NoteOnEvent(tick=94, channel=2, data=[61, 0]),
   midi.NoteOnEvent(tick=0, channel=2, data=[68, 0]),
   midi.NoteOnEvent(tick=2, channel=2, data=[61, 110]),
   midi.NoteOnEvent(tick=46, channel=2, data=[61, 0]),
   midi.NoteOnEvent(tick=2, channel=2, data=[61, 110]),
   midi.NoteOnEvent(tick=46, channel=2, data=[61, 0]),
   midi.NoteOnEvent(tick=2, channel=2, data=[61, 110]),
   midi.NoteOnEvent(tick=46, channel=2, data=[61, 0]),
   midi.NoteOnEvent(tick=2, channel=2, data=[61, 110]),
   midi.NoteOnEvent(tick=46, channel=2, data=[61, 0]),
   midi.NoteOnEvent(tick=2, channel=2, data=[61, 110]),
   midi.NoteOnEvent(tick=46, channel=2, data=[61, 0]),
   midi.NoteOnEvent(tick=2, channel=2, data=[61, 110]),
   midi.NoteOnEvent(tick=46, channel=2, data=[61, 0]),
   midi.NoteOnEvent(tick=2, channel=2, data=[61, 110]),
   midi.NoteOnEvent(tick=94, channel=2, data=[61, 0]),
   midi.NoteOnEvent(tick=2, channel=2, data=[61, 110]),
   midi.NoteOnEvent(tick=46, channel=2, data=[61, 0]),
   midi.NoteOnEvent(tick=2, channel=2, data=[61, 110]),
   midi.NoteOnEvent(tick=46, channel=2, data=[61, 0]),
   midi.NoteOnEvent(tick=2, channel=2, data=[61, 110]),
   midi.NoteOnEvent(tick=46, channel=2, data=[61, 0]),
   midi.NoteOnEvent(tick=2, channel=2, data=[61, 110]),
   midi.NoteOnEvent(tick=46, channel=2, data=[61, 0]),
   midi.NoteOnEvent(tick=2, channel=2, data=[61, 110]),
   midi.NoteOnEvent(tick=46, channel=2, data=[61, 0]),
   midi.NoteOnEvent(tick=2, channel=2, data=[61, 110]),
   midi.NoteOnEvent(tick=46, channel=2, data=[61, 0]),
   midi.SetTempoEvent(tick=2, data=[4, 147, 224]),
   midi.NoteOnEvent(tick=0, channel=2, data=[57, 110]),
   midi.SetTempoEvent(tick=51, data=[4, 159, 182]),
   midi.NoteOnEvent(tick=43, channel=2, data=[57, 0]),
   midi.NoteOnEvent(tick=2, channel=2, data=[67, 110]),
   midi.SetTempoEvent(tick=6, data=[4, 171, 202]),
   midi.SetTempoEvent(tick=51, data=[4, 184, 30]),
   midi.NoteOnEvent(tick=37, channel=2, data=[67, 0]),
   midi.NoteOnEvent(tick=2, channel=2, data=[66, 110]),
   midi.SetTempoEvent(tick=12, data=[4, 196, 180]),
   midi.SetTempoEvent(tick=52, data=[4, 209, 141]),
   midi.NoteOnEvent(tick=30, channel=2, data=[66, 0]),
   midi.NoteOnEvent(tick=2, channel=2, data=[57, 110]),
   midi.SetTempoEvent(tick=19, data=[4, 222, 172]),
   midi.SetTempoEvent(tick=51, data=[4, 236, 20]),
   midi.NoteOnEvent(tick=24, channel=2, data=[57, 0]),
   midi.NoteOnEvent(tick=2, channel=2, data=[66, 110]),
   midi.SetTempoEvent(tick=25, data=[4, 249, 198]),
   midi.SetTempoEvent(tick=51, data=[5, 7, 198]),
   midi.NoteOnEvent(tick=18, channel=2, data=[66, 0]),
   midi.NoteOnEvent(tick=2, channel=2, data=[64, 110]),
   midi.SetTempoEvent(tick=32, data=[5, 22, 21]),
   midi.SetTempoEvent(tick=51, data=[5, 36, 182]),
   midi.NoteOnEvent(tick=11, channel=2, data=[64, 0]),
   midi.NoteOnEvent(tick=2, channel=2, data=[62, 110]),
   midi.SetTempoEvent(tick=38, data=[5, 51, 173]),
   midi.SetTempoEvent(tick=51, data=[5, 66, 251]),
   midi.NoteOnEvent(tick=5, channel=2, data=[62, 0]),
   midi.NoteOnEvent(tick=2, channel=2, data=[61, 110]),
   midi.SetTempoEvent(tick=44, data=[5, 82, 165]),
   midi.NoteOnEvent(tick=50, channel=2, data=[61, 0]),
   midi.SetTempoEvent(tick=2, data=[5, 98, 173]),
   midi.NoteOnEvent(tick=0, channel=2, data=[55, 110]),
   midi.NoteOnEvent(tick=0, channel=2, data=[62, 110]),
   midi.NoteOnEvent(tick=0, channel=2, data=[67, 110]),
   midi.NoteOnEvent(tick=126, channel=2, data=[55, 0]),
   midi.NoteOnEvent(tick=0, channel=2, data=[62, 0]),
   midi.NoteOnEvent(tick=0, channel=2, data=[67, 0]),
   midi.NoteOnEvent(tick=2, channel=2, data=[54, 110]),
   midi.NoteOnEvent(tick=0, channel=2, data=[61, 110]),
   midi.NoteOnEvent(tick=0, channel=2, data=[66, 110]),
   midi.NoteOnEvent(tick=126, channel=2, data=[54, 0]),
   midi.NoteOnEvent(tick=0, channel=2, data=[61, 0]),
   midi.NoteOnEvent(tick=0, channel=2, data=[66, 0]),
   midi.NoteOnEvent(tick=2, channel=2, data=[52, 110]),
   midi.NoteOnEvent(tick=0, channel=2, data=[59, 110]),
   midi.NoteOnEvent(tick=0, channel=2, data=[64, 110]),
   midi.NoteOnEvent(tick=126, channel=2, data=[52, 0]),
   midi.NoteOnEvent(tick=0, channel=2, data=[59, 0]),
   midi.NoteOnEvent(tick=0, channel=2, data=[64, 0]),
   midi.NoteOnEvent(tick=2, channel=2, data=[62, 110]),
   midi.NoteOnEvent(tick=0, channel=2, data=[69, 110]),
   midi.NoteOnEvent(tick=0, channel=2, data=[74, 110]),
   midi.NoteOnEvent(tick=126, channel=2, data=[62, 0]),
   midi.NoteOnEvent(tick=0, channel=2, data=[69, 0]),
   midi.NoteOnEvent(tick=0, channel=2, data=[74, 0]),
   midi.NoteOnEvent(tick=2, channel=2, data=[61, 110]),
   midi.NoteOnEvent(tick=0, channel=2, data=[68, 110]),
   midi.NoteOnEvent(tick=0, channel=2, data=[73, 110]),
   midi.NoteOnEvent(tick=126, channel=2, data=[61, 0]),
   midi.NoteOnEvent(tick=0, channel=2, data=[68, 0]),
   midi.NoteOnEvent(tick=0, channel=2, data=[73, 0]),
   midi.NoteOnEvent(tick=2, channel=2, data=[59, 110]),
   midi.NoteOnEvent(tick=0, channel=2, data=[66, 110]),
   midi.NoteOnEvent(tick=0, channel=2, data=[71, 110]),
   midi.NoteOnEvent(tick=126, channel=2, data=[59, 0]),
   midi.NoteOnEvent(tick=0, channel=2, data=[66, 0]),
   midi.NoteOnEvent(tick=0, channel=2, data=[71, 0]),
   midi.NoteOnEvent(tick=2, channel=2, data=[52, 110]),
   midi.NoteOnEvent(tick=94, channel=2, data=[52, 0]),
   midi.NoteOnEvent(tick=2, channel=2, data=[52, 110]),
   midi.NoteOnEvent(tick=46, channel=2, data=[52, 0]),
   midi.NoteOnEvent(tick=2, channel=2, data=[52, 110]),
   midi.NoteOnEvent(tick=46, channel=2, data=[52, 0]),
   midi.NoteOnEvent(tick=2, channel=2, data=[52, 110]),
   midi.NoteOnEvent(tick=94, channel=2, data=[52, 0]),
   midi.NoteOnEvent(tick=2, channel=2, data=[52, 110]),
   midi.NoteOnEvent(tick=94, channel=2, data=[52, 0]),
   midi.NoteOnEvent(tick=2, channel=2, data=[52, 110]),
   midi.NoteOnEvent(tick=94, channel=2, data=[52, 0]),
   midi.NoteOnEvent(tick=2, channel=2, data=[52, 110]),
   midi.NoteOnEvent(tick=94, channel=2, data=[52, 0]),
   midi.NoteOnEvent(tick=2, channel=2, data=[52, 110]),
   midi.NoteOnEvent(tick=46, channel=2, data=[52, 0]),
   midi.NoteOnEvent(tick=2, channel=2, data=[52, 110]),
   midi.NoteOnEvent(tick=46, channel=2, data=[52, 0]),
   midi.NoteOnEvent(tick=2, channel=2, data=[52, 110]),
   midi.NoteOnEvent(tick=46, channel=2, data=[52, 0]),
   midi.NoteOnEvent(tick=2, channel=2, data=[52, 110]),
   midi.NoteOnEvent(tick=46, channel=2, data=[52, 0]),
   midi.NoteOnEvent(tick=2, channel=2, data=[52, 110]),
   midi.NoteOnEvent(tick=94, channel=2, data=[52, 0]),
   midi.NoteOnEvent(tick=2, channel=2, data=[52, 110]),
   midi.NoteOnEvent(tick=46, channel=2, data=[52, 0]),
   midi.NoteOnEvent(tick=2, channel=2, data=[52, 110]),
   midi.NoteOnEvent(tick=46, channel=2, data=[52, 0]),
   midi.NoteOnEvent(tick=2, channel=2, data=[52, 110]),
   midi.NoteOnEvent(tick=94, channel=2, data=[52, 0]),
   midi.NoteOnEvent(tick=2, channel=2, data=[52, 110]),
   midi.NoteOnEvent(tick=94, channel=2, data=[52, 0]),
   midi.NoteOnEvent(tick=2, channel=2, data=[52, 110]),
   midi.NoteOnEvent(tick=94, channel=2, data=[52, 0]),
   midi.NoteOnEvent(tick=2, channel=2, data=[52, 110]),
   midi.NoteOnEvent(tick=94, channel=2, data=[52, 0]),
   midi.NoteOnEvent(tick=2, channel=2, data=[52, 110]),
   midi.NoteOnEvent(tick=46, channel=2, data=[52, 0]),
   midi.NoteOnEvent(tick=2, channel=2, data=[52, 110]),
   midi.NoteOnEvent(tick=46, channel=2, data=[52, 0]),
   midi.NoteOnEvent(tick=2, channel=2, data=[52, 110]),
   midi.NoteOnEvent(tick=46, channel=2, data=[52, 0]),
   midi.NoteOnEvent(tick=2, channel=2, data=[52, 110]),
   midi.NoteOnEvent(tick=46, channel=2, data=[52, 0]),
   midi.NoteOnEvent(tick=2, channel=2, data=[55, 110]),
   midi.NoteOnEvent(tick=94, channel=2, data=[55, 0]),
   midi.NoteOnEvent(tick=2, channel=2, data=[55, 110]),
   midi.NoteOnEvent(tick=46, channel=2, data=[55, 0]),
   midi.NoteOnEvent(tick=2, channel=2, data=[55, 110]),
   midi.NoteOnEvent(tick=46, channel=2, data=[55, 0]),
   midi.NoteOnEvent(tick=2, channel=2, data=[55, 110]),
   midi.NoteOnEvent(tick=94, channel=2, data=[55, 0]),
   midi.NoteOnEvent(tick=2, channel=2, data=[55, 110]),
   midi.NoteOnEvent(tick=94, channel=2, data=[55, 0]),
   midi.NoteOnEvent(tick=2, channel=2, data=[55, 110]),
   midi.NoteOnEvent(tick=94, channel=2, data=[55, 0]),
   midi.NoteOnEvent(tick=2, channel=2, data=[55, 110]),
   midi.NoteOnEvent(tick=94, channel=2, data=[55, 0]),
   midi.NoteOnEvent(tick=2, channel=2, data=[55, 110]),
   midi.NoteOnEvent(tick=46, channel=2, data=[55, 0]),
   midi.NoteOnEvent(tick=2, channel=2, data=[55, 110]),
   midi.NoteOnEvent(tick=46, channel=2, data=[55, 0]),
   midi.NoteOnEvent(tick=2, channel=2, data=[55, 110]),
   midi.NoteOnEvent(tick=46, channel=2, data=[55, 0]),
   midi.NoteOnEvent(tick=2, channel=2, data=[55, 110]),
   midi.NoteOnEvent(tick=46, channel=2, data=[55, 0]),
   midi.NoteOnEvent(tick=2, channel=2, data=[54, 110]),
   midi.NoteOnEvent(tick=94, channel=2, data=[54, 0]),
   midi.NoteOnEvent(tick=2, channel=2, data=[54, 110]),
   midi.NoteOnEvent(tick=46, channel=2, data=[54, 0]),
   midi.NoteOnEvent(tick=2, channel=2, data=[54, 110]),
   midi.NoteOnEvent(tick=46, channel=2, data=[54, 0]),
   midi.NoteOnEvent(tick=2, channel=2, data=[54, 110]),
   midi.NoteOnEvent(tick=94, channel=2, data=[54, 0]),
   midi.NoteOnEvent(tick=2, channel=2, data=[54, 110]),
   midi.NoteOnEvent(tick=94, channel=2, data=[54, 0]),
   midi.NoteOnEvent(tick=2, channel=2, data=[54, 110]),
   midi.NoteOnEvent(tick=94, channel=2, data=[54, 0]),
   midi.NoteOnEvent(tick=2, channel=2, data=[54, 110]),
   midi.NoteOnEvent(tick=94, channel=2, data=[54, 0]),
   midi.NoteOnEvent(tick=2, channel=2, data=[54, 110]),
   midi.NoteOnEvent(tick=46, channel=2, data=[54, 0]),
   midi.NoteOnEvent(tick=2, channel=2, data=[54, 110]),
   midi.NoteOnEvent(tick=46, channel=2, data=[54, 0]),
   midi.NoteOnEvent(tick=2, channel=2, data=[54, 110]),
   midi.NoteOnEvent(tick=46, channel=2, data=[54, 0]),
   midi.NoteOnEvent(tick=2, channel=2, data=[54, 110]),
   midi.NoteOnEvent(tick=46, channel=2, data=[54, 0]),
   midi.NoteOnEvent(tick=2, channel=2, data=[52, 110]),
   midi.NoteOnEvent(tick=94, channel=2, data=[52, 0]),
   midi.NoteOnEvent(tick=2, channel=2, data=[52, 110]),
   midi.NoteOnEvent(tick=46, channel=2, data=[52, 0]),
   midi.NoteOnEvent(tick=2, channel=2, data=[52, 110]),
   midi.NoteOnEvent(tick=46, channel=2, data=[52, 0]),
   midi.NoteOnEvent(tick=2, channel=2, data=[52, 110]),
   midi.NoteOnEvent(tick=94, channel=2, data=[52, 0]),
   midi.NoteOnEvent(tick=2, channel=2, data=[52, 110]),
   midi.NoteOnEvent(tick=94, channel=2, data=[52, 0]),
   midi.NoteOnEvent(tick=2, channel=2, data=[52, 110]),
   midi.NoteOnEvent(tick=94, channel=2, data=[52, 0]),
   midi.NoteOnEvent(tick=2, channel=2, data=[52, 110]),
   midi.NoteOnEvent(tick=94, channel=2, data=[52, 0]),
   midi.NoteOnEvent(tick=2, channel=2, data=[52, 110]),
   midi.NoteOnEvent(tick=46, channel=2, data=[52, 0]),
   midi.NoteOnEvent(tick=2, channel=2, data=[52, 110]),
   midi.NoteOnEvent(tick=46, channel=2, data=[52, 0]),
   midi.NoteOnEvent(tick=2, channel=2, data=[52, 110]),
   midi.NoteOnEvent(tick=46, channel=2, data=[52, 0]),
   midi.NoteOnEvent(tick=2, channel=2, data=[52, 110]),
   midi.NoteOnEvent(tick=46, channel=2, data=[52, 0]),
   midi.NoteOnEvent(tick=2, channel=2, data=[52, 110]),
   midi.NoteOnEvent(tick=94, channel=2, data=[52, 0]),
   midi.NoteOnEvent(tick=2, channel=2, data=[52, 110]),
   midi.NoteOnEvent(tick=46, channel=2, data=[52, 0]),
   midi.NoteOnEvent(tick=2, channel=2, data=[52, 110]),
   midi.NoteOnEvent(tick=46, channel=2, data=[52, 0]),
   midi.NoteOnEvent(tick=2, channel=2, data=[52, 110]),
   midi.NoteOnEvent(tick=94, channel=2, data=[52, 0]),
   midi.NoteOnEvent(tick=2, channel=2, data=[52, 110]),
   midi.NoteOnEvent(tick=94, channel=2, data=[52, 0]),
   midi.NoteOnEvent(tick=2, channel=2, data=[52, 110]),
   midi.NoteOnEvent(tick=94, channel=2, data=[52, 0]),
   midi.NoteOnEvent(tick=2, channel=2, data=[52, 110]),
   midi.NoteOnEvent(tick=94, channel=2, data=[52, 0]),
   midi.NoteOnEvent(tick=2, channel=2, data=[52, 110]),
   midi.NoteOnEvent(tick=46, channel=2, data=[52, 0]),
   midi.NoteOnEvent(tick=2, channel=2, data=[52, 110]),
   midi.NoteOnEvent(tick=46, channel=2, data=[52, 0]),
   midi.NoteOnEvent(tick=2, channel=2, data=[52, 110]),
   midi.NoteOnEvent(tick=46, channel=2, data=[52, 0]),
   midi.NoteOnEvent(tick=2, channel=2, data=[52, 110]),
   midi.NoteOnEvent(tick=46, channel=2, data=[52, 0]),
   midi.NoteOnEvent(tick=2, channel=2, data=[55, 110]),
   midi.NoteOnEvent(tick=94, channel=2, data=[55, 0]),
   midi.NoteOnEvent(tick=2, channel=2, data=[55, 110]),
   midi.NoteOnEvent(tick=46, channel=2, data=[55, 0]),
   midi.NoteOnEvent(tick=2, channel=2, data=[55, 110]),
   midi.NoteOnEvent(tick=46, channel=2, data=[55, 0]),
   midi.NoteOnEvent(tick=2, channel=2, data=[55, 110]),
   midi.NoteOnEvent(tick=94, channel=2, data=[55, 0]),
   midi.NoteOnEvent(tick=2, channel=2, data=[55, 110]),
   midi.NoteOnEvent(tick=94, channel=2, data=[55, 0]),
   midi.NoteOnEvent(tick=2, channel=2, data=[55, 110]),
   midi.NoteOnEvent(tick=94, channel=2, data=[55, 0]),
   midi.NoteOnEvent(tick=2, channel=2, data=[55, 110]),
   midi.NoteOnEvent(tick=94, channel=2, data=[55, 0]),
   midi.NoteOnEvent(tick=2, channel=2, data=[55, 110]),
   midi.NoteOnEvent(tick=46, channel=2, data=[55, 0]),
   midi.NoteOnEvent(tick=2, channel=2, data=[55, 110]),
   midi.NoteOnEvent(tick=46, channel=2, data=[55, 0]),
   midi.NoteOnEvent(tick=2, channel=2, data=[55, 110]),
   midi.NoteOnEvent(tick=46, channel=2, data=[55, 0]),
   midi.NoteOnEvent(tick=2, channel=2, data=[55, 110]),
   midi.NoteOnEvent(tick=46, channel=2, data=[55, 0]),
   midi.NoteOnEvent(tick=2, channel=2, data=[59, 110]),
   midi.NoteOnEvent(tick=94, channel=2, data=[59, 0]),
   midi.NoteOnEvent(tick=2, channel=2, data=[59, 110]),
   midi.NoteOnEvent(tick=46, channel=2, data=[59, 0]),
   midi.NoteOnEvent(tick=2, channel=2, data=[59, 110]),
   midi.NoteOnEvent(tick=46, channel=2, data=[59, 0]),
   midi.NoteOnEvent(tick=2, channel=2, data=[59, 110]),
   midi.NoteOnEvent(tick=94, channel=2, data=[59, 0]),
   midi.NoteOnEvent(tick=2, channel=2, data=[59, 110]),
   midi.NoteOnEvent(tick=94, channel=2, data=[59, 0]),
   midi.NoteOnEvent(tick=2, channel=2, data=[59, 110]),
   midi.NoteOnEvent(tick=94, channel=2, data=[59, 0]),
   midi.NoteOnEvent(tick=2, channel=2, data=[59, 110]),
   midi.NoteOnEvent(tick=94, channel=2, data=[59, 0]),
   midi.NoteOnEvent(tick=2, channel=2, data=[59, 110]),
   midi.NoteOnEvent(tick=46, channel=2, data=[59, 0]),
   midi.NoteOnEvent(tick=2, channel=2, data=[59, 110]),
   midi.NoteOnEvent(tick=46, channel=2, data=[59, 0]),
   midi.NoteOnEvent(tick=2, channel=2, data=[59, 110]),
   midi.NoteOnEvent(tick=46, channel=2, data=[59, 0]),
   midi.NoteOnEvent(tick=2, channel=2, data=[59, 110]),
   midi.NoteOnEvent(tick=46, channel=2, data=[59, 0]),
   midi.NoteOnEvent(tick=2, channel=2, data=[52, 110]),
   midi.NoteOnEvent(tick=94, channel=2, data=[52, 0]),
   midi.NoteOnEvent(tick=2, channel=2, data=[52, 110]),
   midi.NoteOnEvent(tick=46, channel=2, data=[52, 0]),
   midi.NoteOnEvent(tick=2, channel=2, data=[52, 110]),
   midi.NoteOnEvent(tick=46, channel=2, data=[52, 0]),
   midi.NoteOnEvent(tick=2, channel=2, data=[52, 110]),
   midi.NoteOnEvent(tick=94, channel=2, data=[52, 0]),
   midi.NoteOnEvent(tick=2, channel=2, data=[52, 110]),
   midi.NoteOnEvent(tick=94, channel=2, data=[52, 0]),
   midi.NoteOnEvent(tick=2, channel=2, data=[52, 110]),
   midi.NoteOnEvent(tick=94, channel=2, data=[52, 0]),
   midi.NoteOnEvent(tick=2, channel=2, data=[52, 110]),
   midi.NoteOnEvent(tick=94, channel=2, data=[52, 0]),
   midi.NoteOnEvent(tick=2, channel=2, data=[52, 110]),
   midi.NoteOnEvent(tick=46, channel=2, data=[52, 0]),
   midi.NoteOnEvent(tick=2, channel=2, data=[52, 110]),
   midi.NoteOnEvent(tick=46, channel=2, data=[52, 0]),
   midi.NoteOnEvent(tick=2, channel=2, data=[52, 110]),
   midi.NoteOnEvent(tick=46, channel=2, data=[52, 0]),
   midi.NoteOnEvent(tick=2, channel=2, data=[52, 110]),
   midi.NoteOnEvent(tick=46, channel=2, data=[52, 0]),
   midi.NoteOnEvent(tick=2, channel=2, data=[52, 110]),
   midi.NoteOnEvent(tick=94, channel=2, data=[52, 0]),
   midi.NoteOnEvent(tick=2, channel=2, data=[52, 110]),
   midi.NoteOnEvent(tick=46, channel=2, data=[52, 0]),
   midi.NoteOnEvent(tick=2, channel=2, data=[52, 110]),
   midi.NoteOnEvent(tick=46, channel=2, data=[52, 0]),
   midi.NoteOnEvent(tick=2, channel=2, data=[52, 110]),
   midi.NoteOnEvent(tick=94, channel=2, data=[52, 0]),
   midi.NoteOnEvent(tick=2, channel=2, data=[52, 110]),
   midi.NoteOnEvent(tick=94, channel=2, data=[52, 0]),
   midi.NoteOnEvent(tick=2, channel=2, data=[52, 110]),
   midi.NoteOnEvent(tick=94, channel=2, data=[52, 0]),
   midi.NoteOnEvent(tick=2, channel=2, data=[52, 110]),
   midi.NoteOnEvent(tick=94, channel=2, data=[52, 0]),
   midi.NoteOnEvent(tick=2, channel=2, data=[52, 110]),
   midi.NoteOnEvent(tick=46, channel=2, data=[52, 0]),
   midi.NoteOnEvent(tick=2, channel=2, data=[52, 110]),
   midi.NoteOnEvent(tick=46, channel=2, data=[52, 0]),
   midi.NoteOnEvent(tick=2, channel=2, data=[52, 110]),
   midi.NoteOnEvent(tick=46, channel=2, data=[52, 0]),
   midi.NoteOnEvent(tick=2, channel=2, data=[52, 110]),
   midi.NoteOnEvent(tick=46, channel=2, data=[52, 0]),
   midi.NoteOnEvent(tick=2, channel=2, data=[55, 110]),
   midi.NoteOnEvent(tick=94, channel=2, data=[55, 0]),
   midi.NoteOnEvent(tick=2, channel=2, data=[55, 110]),
   midi.NoteOnEvent(tick=46, channel=2, data=[55, 0]),
   midi.NoteOnEvent(tick=2, channel=2, data=[55, 110]),
   midi.NoteOnEvent(tick=46, channel=2, data=[55, 0]),
   midi.NoteOnEvent(tick=2, channel=2, data=[55, 110]),
   midi.NoteOnEvent(tick=94, channel=2, data=[55, 0]),
   midi.NoteOnEvent(tick=2, channel=2, data=[55, 110]),
   midi.NoteOnEvent(tick=94, channel=2, data=[55, 0]),
   midi.NoteOnEvent(tick=2, channel=2, data=[55, 110]),
   midi.NoteOnEvent(tick=94, channel=2, data=[55, 0]),
   midi.NoteOnEvent(tick=2, channel=2, data=[55, 110]),
   midi.NoteOnEvent(tick=94, channel=2, data=[55, 0]),
   midi.NoteOnEvent(tick=2, channel=2, data=[55, 110]),
   midi.NoteOnEvent(tick=46, channel=2, data=[55, 0]),
   midi.NoteOnEvent(tick=2, channel=2, data=[55, 110]),
   midi.NoteOnEvent(tick=46, channel=2, data=[55, 0]),
   midi.NoteOnEvent(tick=2, channel=2, data=[55, 110]),
   midi.NoteOnEvent(tick=46, channel=2, data=[55, 0]),
   midi.NoteOnEvent(tick=2, channel=2, data=[55, 110]),
   midi.NoteOnEvent(tick=46, channel=2, data=[55, 0]),
   midi.NoteOnEvent(tick=2, channel=2, data=[54, 110]),
   midi.NoteOnEvent(tick=94, channel=2, data=[54, 0]),
   midi.NoteOnEvent(tick=2, channel=2, data=[54, 110]),
   midi.NoteOnEvent(tick=46, channel=2, data=[54, 0]),
   midi.NoteOnEvent(tick=2, channel=2, data=[54, 110]),
   midi.NoteOnEvent(tick=46, channel=2, data=[54, 0]),
   midi.NoteOnEvent(tick=2, channel=2, data=[54, 110]),
   midi.NoteOnEvent(tick=94, channel=2, data=[54, 0]),
   midi.NoteOnEvent(tick=2, channel=2, data=[54, 110]),
   midi.NoteOnEvent(tick=94, channel=2, data=[54, 0]),
   midi.NoteOnEvent(tick=2, channel=2, data=[54, 110]),
   midi.NoteOnEvent(tick=94, channel=2, data=[54, 0]),
   midi.NoteOnEvent(tick=2, channel=2, data=[54, 110]),
   midi.NoteOnEvent(tick=94, channel=2, data=[54, 0]),
   midi.NoteOnEvent(tick=2, channel=2, data=[54, 110]),
   midi.NoteOnEvent(tick=46, channel=2, data=[54, 0]),
   midi.NoteOnEvent(tick=2, channel=2, data=[54, 110]),
   midi.NoteOnEvent(tick=46, channel=2, data=[54, 0]),
   midi.NoteOnEvent(tick=2, channel=2, data=[54, 110]),
   midi.NoteOnEvent(tick=46, channel=2, data=[54, 0]),
   midi.NoteOnEvent(tick=2, channel=2, data=[54, 110]),
   midi.NoteOnEvent(tick=46, channel=2, data=[54, 0]),
   midi.NoteOnEvent(tick=2, channel=2, data=[52, 110]),
   midi.NoteOnEvent(tick=94, channel=2, data=[52, 0]),
   midi.NoteOnEvent(tick=2, channel=2, data=[52, 110]),
   midi.NoteOnEvent(tick=46, channel=2, data=[52, 0]),
   midi.NoteOnEvent(tick=2, channel=2, data=[52, 110]),
   midi.NoteOnEvent(tick=46, channel=2, data=[52, 0]),
   midi.NoteOnEvent(tick=2, channel=2, data=[52, 110]),
   midi.NoteOnEvent(tick=94, channel=2, data=[52, 0]),
   midi.NoteOnEvent(tick=2, channel=2, data=[52, 110]),
   midi.NoteOnEvent(tick=94, channel=2, data=[52, 0]),
   midi.NoteOnEvent(tick=2, channel=2, data=[52, 110]),
   midi.NoteOnEvent(tick=94, channel=2, data=[52, 0]),
   midi.NoteOnEvent(tick=2, channel=2, data=[52, 110]),
   midi.NoteOnEvent(tick=94, channel=2, data=[52, 0]),
   midi.NoteOnEvent(tick=2, channel=2, data=[52, 110]),
   midi.NoteOnEvent(tick=46, channel=2, data=[52, 0]),
   midi.NoteOnEvent(tick=2, channel=2, data=[52, 110]),
   midi.NoteOnEvent(tick=46, channel=2, data=[52, 0]),
   midi.NoteOnEvent(tick=2, channel=2, data=[52, 110]),
   midi.NoteOnEvent(tick=46, channel=2, data=[52, 0]),
   midi.NoteOnEvent(tick=2, channel=2, data=[52, 110]),
   midi.NoteOnEvent(tick=46, channel=2, data=[52, 0]),
   midi.NoteOnEvent(tick=2, channel=2, data=[52, 110]),
   midi.NoteOnEvent(tick=94, channel=2, data=[52, 0]),
   midi.NoteOnEvent(tick=2, channel=2, data=[52, 110]),
   midi.NoteOnEvent(tick=46, channel=2, data=[52, 0]),
   midi.NoteOnEvent(tick=2, channel=2, data=[52, 110]),
   midi.NoteOnEvent(tick=46, channel=2, data=[52, 0]),
   midi.NoteOnEvent(tick=2, channel=2, data=[52, 110]),
   midi.NoteOnEvent(tick=94, channel=2, data=[52, 0]),
   midi.NoteOnEvent(tick=2, channel=2, data=[52, 110]),
   midi.NoteOnEvent(tick=94, channel=2, data=[52, 0]),
   midi.NoteOnEvent(tick=2, channel=2, data=[52, 110]),
   midi.NoteOnEvent(tick=94, channel=2, data=[52, 0]),
   midi.NoteOnEvent(tick=2, channel=2, data=[52, 110]),
   midi.NoteOnEvent(tick=94, channel=2, data=[52, 0]),
   midi.NoteOnEvent(tick=2, channel=2, data=[52, 110]),
   midi.NoteOnEvent(tick=46, channel=2, data=[52, 0]),
   midi.NoteOnEvent(tick=2, channel=2, data=[52, 110]),
   midi.NoteOnEvent(tick=46, channel=2, data=[52, 0]),
   midi.NoteOnEvent(tick=2, channel=2, data=[52, 110]),
   midi.NoteOnEvent(tick=46, channel=2, data=[52, 0]),
   midi.NoteOnEvent(tick=2, channel=2, data=[52, 110]),
   midi.NoteOnEvent(tick=46, channel=2, data=[52, 0]),
   midi.NoteOnEvent(tick=2, channel=2, data=[55, 110]),
   midi.NoteOnEvent(tick=94, channel=2, data=[55, 0]),
   midi.NoteOnEvent(tick=2, channel=2, data=[55, 110]),
   midi.NoteOnEvent(tick=46, channel=2, data=[55, 0]),
   midi.NoteOnEvent(tick=2, channel=2, data=[55, 110]),
   midi.NoteOnEvent(tick=46, channel=2, data=[55, 0]),
   midi.NoteOnEvent(tick=2, channel=2, data=[55, 110]),
   midi.NoteOnEvent(tick=94, channel=2, data=[55, 0]),
   midi.NoteOnEvent(tick=2, channel=2, data=[55, 110]),
   midi.NoteOnEvent(tick=94, channel=2, data=[55, 0]),
   midi.NoteOnEvent(tick=2, channel=2, data=[55, 110]),
   midi.NoteOnEvent(tick=94, channel=2, data=[55, 0]),
   midi.NoteOnEvent(tick=2, channel=2, data=[55, 110]),
   midi.NoteOnEvent(tick=94, channel=2, data=[55, 0]),
   midi.NoteOnEvent(tick=2, channel=2, data=[55, 110]),
   midi.NoteOnEvent(tick=46, channel=2, data=[55, 0]),
   midi.NoteOnEvent(tick=2, channel=2, data=[55, 110]),
   midi.NoteOnEvent(tick=46, channel=2, data=[55, 0]),
   midi.NoteOnEvent(tick=2, channel=2, data=[55, 110]),
   midi.NoteOnEvent(tick=46, channel=2, data=[55, 0]),
   midi.NoteOnEvent(tick=2, channel=2, data=[55, 110]),
   midi.NoteOnEvent(tick=46, channel=2, data=[55, 0]),
   midi.NoteOnEvent(tick=2, channel=2, data=[59, 110]),
   midi.NoteOnEvent(tick=94, channel=2, data=[59, 0]),
   midi.NoteOnEvent(tick=2, channel=2, data=[59, 110]),
   midi.NoteOnEvent(tick=46, channel=2, data=[59, 0]),
   midi.NoteOnEvent(tick=2, channel=2, data=[59, 110]),
   midi.NoteOnEvent(tick=46, channel=2, data=[59, 0]),
   midi.NoteOnEvent(tick=2, channel=2, data=[59, 110]),
   midi.NoteOnEvent(tick=94, channel=2, data=[59, 0]),
   midi.NoteOnEvent(tick=2, channel=2, data=[59, 110]),
   midi.NoteOnEvent(tick=94, channel=2, data=[59, 0]),
   midi.NoteOnEvent(tick=2, channel=2, data=[59, 110]),
   midi.NoteOnEvent(tick=94, channel=2, data=[59, 0]),
   midi.NoteOnEvent(tick=2, channel=2, data=[59, 110]),
   midi.NoteOnEvent(tick=94, channel=2, data=[59, 0]),
   midi.NoteOnEvent(tick=2, channel=2, data=[59, 110]),
   midi.NoteOnEvent(tick=46, channel=2, data=[59, 0]),
   midi.NoteOnEvent(tick=2, channel=2, data=[59, 110]),
   midi.NoteOnEvent(tick=46, channel=2, data=[59, 0]),
   midi.NoteOnEvent(tick=2, channel=2, data=[59, 110]),
   midi.NoteOnEvent(tick=46, channel=2, data=[59, 0]),
   midi.NoteOnEvent(tick=2, channel=2, data=[59, 110]),
   midi.NoteOnEvent(tick=46, channel=2, data=[59, 0]),
   midi.NoteOnEvent(tick=2, channel=2, data=[61, 110]),
   midi.NoteOnEvent(tick=0, channel=2, data=[68, 110]),
   midi.NoteOnEvent(tick=94, channel=2, data=[61, 0]),
   midi.NoteOnEvent(tick=0, channel=2, data=[68, 0]),
   midi.NoteOnEvent(tick=2, channel=2, data=[61, 110]),
   midi.NoteOnEvent(tick=46, channel=2, data=[61, 0]),
   midi.NoteOnEvent(tick=2, channel=2, data=[61, 110]),
   midi.NoteOnEvent(tick=46, channel=2, data=[61, 0]),
   midi.NoteOnEvent(tick=2, channel=2, data=[61, 110]),
   midi.NoteOnEvent(tick=46, channel=2, data=[61, 0]),
   midi.NoteOnEvent(tick=2, channel=2, data=[61, 110]),
   midi.NoteOnEvent(tick=46, channel=2, data=[61, 0]),
   midi.NoteOnEvent(tick=2, channel=2, data=[61, 110]),
   midi.NoteOnEvent(tick=46, channel=2, data=[61, 0]),
   midi.NoteOnEvent(tick=2, channel=2, data=[61, 110]),
   midi.NoteOnEvent(tick=46, channel=2, data=[61, 0]),
   midi.NoteOnEvent(tick=2, channel=2, data=[61, 110]),
   midi.NoteOnEvent(tick=94, channel=2, data=[61, 0]),
   midi.NoteOnEvent(tick=2, channel=2, data=[61, 110]),
   midi.NoteOnEvent(tick=46, channel=2, data=[61, 0]),
   midi.NoteOnEvent(tick=2, channel=2, data=[61, 110]),
   midi.NoteOnEvent(tick=46, channel=2, data=[61, 0]),
   midi.NoteOnEvent(tick=2, channel=2, data=[61, 110]),
   midi.NoteOnEvent(tick=46, channel=2, data=[61, 0]),
   midi.NoteOnEvent(tick=2, channel=2, data=[61, 110]),
   midi.NoteOnEvent(tick=46, channel=2, data=[61, 0]),
   midi.NoteOnEvent(tick=2, channel=2, data=[61, 110]),
   midi.NoteOnEvent(tick=46, channel=2, data=[61, 0]),
   midi.NoteOnEvent(tick=2, channel=2, data=[61, 110]),
   midi.NoteOnEvent(tick=46, channel=2, data=[61, 0]),
   midi.NoteOnEvent(tick=2, channel=2, data=[61, 110]),
   midi.NoteOnEvent(tick=0, channel=2, data=[68, 110]),
   midi.NoteOnEvent(tick=94, channel=2, data=[61, 0]),
   midi.NoteOnEvent(tick=0, channel=2, data=[68, 0]),
   midi.NoteOnEvent(tick=2, channel=2, data=[61, 110]),
   midi.NoteOnEvent(tick=46, channel=2, data=[61, 0]),
   midi.NoteOnEvent(tick=2, channel=2, data=[61, 110]),
   midi.NoteOnEvent(tick=46, channel=2, data=[61, 0]),
   midi.NoteOnEvent(tick=2, channel=2, data=[61, 110]),
   midi.NoteOnEvent(tick=46, channel=2, data=[61, 0]),
   midi.NoteOnEvent(tick=2, channel=2, data=[61, 110]),
   midi.NoteOnEvent(tick=46, channel=2, data=[61, 0]),
   midi.NoteOnEvent(tick=2, channel=2, data=[61, 110]),
   midi.NoteOnEvent(tick=46, channel=2, data=[61, 0]),
   midi.NoteOnEvent(tick=2, channel=2, data=[61, 110]),
   midi.NoteOnEvent(tick=46, channel=2, data=[61, 0]),
   midi.NoteOnEvent(tick=2, channel=2, data=[61, 110]),
   midi.NoteOnEvent(tick=94, channel=2, data=[61, 0]),
   midi.NoteOnEvent(tick=2, channel=2, data=[61, 110]),
   midi.NoteOnEvent(tick=46, channel=2, data=[61, 0]),
   midi.NoteOnEvent(tick=2, channel=2, data=[61, 110]),
   midi.NoteOnEvent(tick=46, channel=2, data=[61, 0]),
   midi.NoteOnEvent(tick=2, channel=2, data=[61, 110]),
   midi.NoteOnEvent(tick=46, channel=2, data=[61, 0]),
   midi.NoteOnEvent(tick=2, channel=2, data=[61, 110]),
   midi.NoteOnEvent(tick=46, channel=2, data=[61, 0]),
   midi.NoteOnEvent(tick=2, channel=2, data=[61, 110]),
   midi.NoteOnEvent(tick=46, channel=2, data=[61, 0]),
   midi.NoteOnEvent(tick=2, channel=2, data=[61, 110]),
   midi.NoteOnEvent(tick=46, channel=2, data=[61, 0]),
   midi.NoteOnEvent(tick=2, channel=2, data=[61, 110]),
   midi.NoteOnEvent(tick=0, channel=2, data=[68, 110]),
   midi.NoteOnEvent(tick=94, channel=2, data=[61, 0]),
   midi.NoteOnEvent(tick=0, channel=2, data=[68, 0]),
   midi.NoteOnEvent(tick=2, channel=2, data=[61, 110]),
   midi.NoteOnEvent(tick=46, channel=2, data=[61, 0]),
   midi.NoteOnEvent(tick=2, channel=2, data=[61, 110]),
   midi.NoteOnEvent(tick=46, channel=2, data=[61, 0]),
   midi.NoteOnEvent(tick=2, channel=2, data=[61, 110]),
   midi.NoteOnEvent(tick=46, channel=2, data=[61, 0]),
   midi.NoteOnEvent(tick=2, channel=2, data=[61, 110]),
   midi.NoteOnEvent(tick=46, channel=2, data=[61, 0]),
   midi.NoteOnEvent(tick=2, channel=2, data=[61, 110]),
   midi.NoteOnEvent(tick=46, channel=2, data=[61, 0]),
   midi.NoteOnEvent(tick=2, channel=2, data=[61, 110]),
   midi.NoteOnEvent(tick=46, channel=2, data=[61, 0]),
   midi.NoteOnEvent(tick=2, channel=2, data=[61, 110]),
   midi.NoteOnEvent(tick=94, channel=2, data=[61, 0]),
   midi.NoteOnEvent(tick=2, channel=2, data=[61, 110]),
   midi.NoteOnEvent(tick=46, channel=2, data=[61, 0]),
   midi.NoteOnEvent(tick=2, channel=2, data=[61, 110]),
   midi.NoteOnEvent(tick=46, channel=2, data=[61, 0]),
   midi.NoteOnEvent(tick=2, channel=2, data=[59, 110]),
   midi.NoteOnEvent(tick=0, channel=2, data=[66, 110]),
   midi.NoteOnEvent(tick=94, channel=2, data=[59, 0]),
   midi.NoteOnEvent(tick=0, channel=2, data=[66, 0]),
   midi.NoteOnEvent(tick=2, channel=2, data=[59, 110]),
   midi.NoteOnEvent(tick=46, channel=2, data=[59, 0]),
   midi.NoteOnEvent(tick=2, channel=2, data=[59, 110]),
   midi.NoteOnEvent(tick=46, channel=2, data=[59, 0]),
   midi.NoteOnEvent(tick=2, channel=2, data=[59, 110]),
   midi.NoteOnEvent(tick=46, channel=2, data=[59, 0]),
   midi.NoteOnEvent(tick=2, channel=2, data=[59, 110]),
   midi.NoteOnEvent(tick=46, channel=2, data=[59, 0]),
   midi.NoteOnEvent(tick=2, channel=2, data=[59, 110]),
   midi.NoteOnEvent(tick=46, channel=2, data=[59, 0]),
   midi.NoteOnEvent(tick=2, channel=2, data=[59, 110]),
   midi.NoteOnEvent(tick=46, channel=2, data=[59, 0]),
   midi.NoteOnEvent(tick=2, channel=2, data=[59, 110]),
   midi.NoteOnEvent(tick=94, channel=2, data=[59, 0]),
   midi.NoteOnEvent(tick=2, channel=2, data=[59, 110]),
   midi.NoteOnEvent(tick=46, channel=2, data=[59, 0]),
   midi.NoteOnEvent(tick=2, channel=2, data=[59, 110]),
   midi.NoteOnEvent(tick=46, channel=2, data=[59, 0]),
   midi.NoteOnEvent(tick=2, channel=2, data=[61, 110]),
   midi.NoteOnEvent(tick=0, channel=2, data=[68, 110]),
   midi.NoteOnEvent(tick=94, channel=2, data=[61, 0]),
   midi.NoteOnEvent(tick=0, channel=2, data=[68, 0]),
   midi.NoteOnEvent(tick=2, channel=2, data=[61, 110]),
   midi.NoteOnEvent(tick=46, channel=2, data=[61, 0]),
   midi.NoteOnEvent(tick=2, channel=2, data=[61, 110]),
   midi.NoteOnEvent(tick=46, channel=2, data=[61, 0]),
   midi.NoteOnEvent(tick=2, channel=2, data=[61, 110]),
   midi.NoteOnEvent(tick=46, channel=2, data=[61, 0]),
   midi.NoteOnEvent(tick=2, channel=2, data=[61, 110]),
   midi.NoteOnEvent(tick=46, channel=2, data=[61, 0]),
   midi.NoteOnEvent(tick=2, channel=2, data=[61, 110]),
   midi.NoteOnEvent(tick=46, channel=2, data=[61, 0]),
   midi.NoteOnEvent(tick=2, channel=2, data=[61, 110]),
   midi.NoteOnEvent(tick=46, channel=2, data=[61, 0]),
   midi.NoteOnEvent(tick=2, channel=2, data=[61, 110]),
   midi.NoteOnEvent(tick=94, channel=2, data=[61, 0]),
   midi.NoteOnEvent(tick=2, channel=2, data=[61, 110]),
   midi.NoteOnEvent(tick=46, channel=2, data=[61, 0]),
   midi.NoteOnEvent(tick=2, channel=2, data=[61, 110]),
   midi.NoteOnEvent(tick=46, channel=2, data=[61, 0]),
   midi.NoteOnEvent(tick=2, channel=2, data=[61, 110]),
   midi.NoteOnEvent(tick=46, channel=2, data=[61, 0]),
   midi.NoteOnEvent(tick=2, channel=2, data=[61, 110]),
   midi.NoteOnEvent(tick=46, channel=2, data=[61, 0]),
   midi.NoteOnEvent(tick=2, channel=2, data=[61, 110]),
   midi.NoteOnEvent(tick=46, channel=2, data=[61, 0]),
   midi.NoteOnEvent(tick=2, channel=2, data=[61, 110]),
   midi.NoteOnEvent(tick=46, channel=2, data=[61, 0]),
   midi.NoteOnEvent(tick=2, channel=2, data=[61, 110]),
   midi.NoteOnEvent(tick=0, channel=2, data=[68, 110]),
   midi.NoteOnEvent(tick=94, channel=2, data=[61, 0]),
   midi.NoteOnEvent(tick=0, channel=2, data=[68, 0]),
   midi.NoteOnEvent(tick=2, channel=2, data=[61, 110]),
   midi.NoteOnEvent(tick=46, channel=2, data=[61, 0]),
   midi.NoteOnEvent(tick=2, channel=2, data=[61, 110]),
   midi.NoteOnEvent(tick=46, channel=2, data=[61, 0]),
   midi.NoteOnEvent(tick=2, channel=2, data=[61, 110]),
   midi.NoteOnEvent(tick=46, channel=2, data=[61, 0]),
   midi.NoteOnEvent(tick=2, channel=2, data=[61, 110]),
   midi.NoteOnEvent(tick=46, channel=2, data=[61, 0]),
   midi.NoteOnEvent(tick=2, channel=2, data=[61, 110]),
   midi.NoteOnEvent(tick=46, channel=2, data=[61, 0]),
   midi.NoteOnEvent(tick=2, channel=2, data=[61, 110]),
   midi.NoteOnEvent(tick=46, channel=2, data=[61, 0]),
   midi.NoteOnEvent(tick=2, channel=2, data=[61, 110]),
   midi.NoteOnEvent(tick=94, channel=2, data=[61, 0]),
   midi.NoteOnEvent(tick=2, channel=2, data=[61, 110]),
   midi.NoteOnEvent(tick=46, channel=2, data=[61, 0]),
   midi.NoteOnEvent(tick=2, channel=2, data=[61, 110]),
   midi.NoteOnEvent(tick=46, channel=2, data=[61, 0]),
   midi.NoteOnEvent(tick=2, channel=2, data=[61, 110]),
   midi.NoteOnEvent(tick=46, channel=2, data=[61, 0]),
   midi.NoteOnEvent(tick=2, channel=2, data=[61, 110]),
   midi.NoteOnEvent(tick=46, channel=2, data=[61, 0]),
   midi.NoteOnEvent(tick=2, channel=2, data=[61, 110]),
   midi.NoteOnEvent(tick=46, channel=2, data=[61, 0]),
   midi.NoteOnEvent(tick=2, channel=2, data=[61, 110]),
   midi.NoteOnEvent(tick=46, channel=2, data=[61, 0]),
   midi.NoteOnEvent(tick=2, channel=2, data=[61, 110]),
   midi.NoteOnEvent(tick=0, channel=2, data=[68, 110]),
   midi.NoteOnEvent(tick=94, channel=2, data=[61, 0]),
   midi.NoteOnEvent(tick=0, channel=2, data=[68, 0]),
   midi.NoteOnEvent(tick=2, channel=2, data=[61, 110]),
   midi.NoteOnEvent(tick=46, channel=2, data=[61, 0]),
   midi.NoteOnEvent(tick=2, channel=2, data=[61, 110]),
   midi.NoteOnEvent(tick=46, channel=2, data=[61, 0]),
   midi.NoteOnEvent(tick=2, channel=2, data=[61, 110]),
   midi.NoteOnEvent(tick=46, channel=2, data=[61, 0]),
   midi.NoteOnEvent(tick=2, channel=2, data=[61, 110]),
   midi.NoteOnEvent(tick=46, channel=2, data=[61, 0]),
   midi.NoteOnEvent(tick=2, channel=2, data=[61, 110]),
   midi.NoteOnEvent(tick=46, channel=2, data=[61, 0]),
   midi.NoteOnEvent(tick=2, channel=2, data=[61, 110]),
   midi.NoteOnEvent(tick=46, channel=2, data=[61, 0]),
   midi.NoteOnEvent(tick=2, channel=2, data=[61, 110]),
   midi.NoteOnEvent(tick=94, channel=2, data=[61, 0]),
   midi.NoteOnEvent(tick=2, channel=2, data=[61, 110]),
   midi.NoteOnEvent(tick=46, channel=2, data=[61, 0]),
   midi.NoteOnEvent(tick=2, channel=2, data=[61, 110]),
   midi.NoteOnEvent(tick=46, channel=2, data=[61, 0]),
   midi.NoteOnEvent(tick=2, channel=2, data=[59, 110]),
   midi.NoteOnEvent(tick=0, channel=2, data=[66, 110]),
   midi.NoteOnEvent(tick=94, channel=2, data=[59, 0]),
   midi.NoteOnEvent(tick=0, channel=2, data=[66, 0]),
   midi.NoteOnEvent(tick=2, channel=2, data=[59, 110]),
   midi.NoteOnEvent(tick=46, channel=2, data=[59, 0]),
   midi.NoteOnEvent(tick=2, channel=2, data=[59, 110]),
   midi.NoteOnEvent(tick=46, channel=2, data=[59, 0]),
   midi.NoteOnEvent(tick=2, channel=2, data=[59, 110]),
   midi.NoteOnEvent(tick=46, channel=2, data=[59, 0]),
   midi.NoteOnEvent(tick=2, channel=2, data=[59, 110]),
   midi.NoteOnEvent(tick=46, channel=2, data=[59, 0]),
   midi.NoteOnEvent(tick=2, channel=2, data=[59, 110]),
   midi.NoteOnEvent(tick=46, channel=2, data=[59, 0]),
   midi.NoteOnEvent(tick=2, channel=2, data=[59, 110]),
   midi.NoteOnEvent(tick=46, channel=2, data=[59, 0]),
   midi.NoteOnEvent(tick=2, channel=2, data=[59, 110]),
   midi.NoteOnEvent(tick=94, channel=2, data=[59, 0]),
   midi.NoteOnEvent(tick=2, channel=2, data=[59, 110]),
   midi.NoteOnEvent(tick=46, channel=2, data=[59, 0]),
   midi.NoteOnEvent(tick=2, channel=2, data=[59, 110]),
   midi.NoteOnEvent(tick=46, channel=2, data=[59, 0]),
   midi.NoteOnEvent(tick=2, channel=2, data=[61, 110]),
   midi.NoteOnEvent(tick=0, channel=2, data=[68, 110]),
   midi.NoteOnEvent(tick=94, channel=2, data=[61, 0]),
   midi.NoteOnEvent(tick=0, channel=2, data=[68, 0]),
   midi.NoteOnEvent(tick=2, channel=2, data=[61, 110]),
   midi.NoteOnEvent(tick=46, channel=2, data=[61, 0]),
   midi.NoteOnEvent(tick=2, channel=2, data=[61, 110]),
   midi.NoteOnEvent(tick=46, channel=2, data=[61, 0]),
   midi.NoteOnEvent(tick=2, channel=2, data=[61, 110]),
   midi.NoteOnEvent(tick=46, channel=2, data=[61, 0]),
   midi.NoteOnEvent(tick=2, channel=2, data=[61, 110]),
   midi.NoteOnEvent(tick=46, channel=2, data=[61, 0]),
   midi.NoteOnEvent(tick=2, channel=2, data=[61, 110]),
   midi.NoteOnEvent(tick=46, channel=2, data=[61, 0]),
   midi.NoteOnEvent(tick=2, channel=2, data=[61, 110]),
   midi.NoteOnEvent(tick=46, channel=2, data=[61, 0]),
   midi.NoteOnEvent(tick=2, channel=2, data=[61, 110]),
   midi.NoteOnEvent(tick=94, channel=2, data=[61, 0]),
   midi.NoteOnEvent(tick=2, channel=2, data=[61, 110]),
   midi.NoteOnEvent(tick=46, channel=2, data=[61, 0]),
   midi.NoteOnEvent(tick=2, channel=2, data=[61, 110]),
   midi.NoteOnEvent(tick=46, channel=2, data=[61, 0]),
   midi.NoteOnEvent(tick=2, channel=2, data=[61, 110]),
   midi.NoteOnEvent(tick=46, channel=2, data=[61, 0]),
   midi.NoteOnEvent(tick=2, channel=2, data=[61, 110]),
   midi.NoteOnEvent(tick=46, channel=2, data=[61, 0]),
   midi.NoteOnEvent(tick=2, channel=2, data=[61, 110]),
   midi.NoteOnEvent(tick=46, channel=2, data=[61, 0]),
   midi.NoteOnEvent(tick=2, channel=2, data=[61, 110]),
   midi.NoteOnEvent(tick=46, channel=2, data=[61, 0]),
   midi.NoteOnEvent(tick=2, channel=2, data=[61, 110]),
   midi.NoteOnEvent(tick=0, channel=2, data=[68, 110]),
   midi.NoteOnEvent(tick=94, channel=2, data=[61, 0]),
   midi.NoteOnEvent(tick=0, channel=2, data=[68, 0]),
   midi.NoteOnEvent(tick=2, channel=2, data=[61, 110]),
   midi.NoteOnEvent(tick=46, channel=2, data=[61, 0]),
   midi.NoteOnEvent(tick=2, channel=2, data=[61, 110]),
   midi.NoteOnEvent(tick=46, channel=2, data=[61, 0]),
   midi.NoteOnEvent(tick=2, channel=2, data=[61, 110]),
   midi.NoteOnEvent(tick=46, channel=2, data=[61, 0]),
   midi.NoteOnEvent(tick=2, channel=2, data=[61, 110]),
   midi.NoteOnEvent(tick=46, channel=2, data=[61, 0]),
   midi.NoteOnEvent(tick=2, channel=2, data=[61, 110]),
   midi.NoteOnEvent(tick=46, channel=2, data=[61, 0]),
   midi.NoteOnEvent(tick=2, channel=2, data=[61, 110]),
   midi.NoteOnEvent(tick=46, channel=2, data=[61, 0]),
   midi.NoteOnEvent(tick=2, channel=2, data=[61, 110]),
   midi.NoteOnEvent(tick=94, channel=2, data=[61, 0]),
   midi.NoteOnEvent(tick=2, channel=2, data=[61, 110]),
   midi.NoteOnEvent(tick=46, channel=2, data=[61, 0]),
   midi.NoteOnEvent(tick=2, channel=2, data=[61, 110]),
   midi.NoteOnEvent(tick=46, channel=2, data=[61, 0]),
   midi.NoteOnEvent(tick=2, channel=2, data=[61, 110]),
   midi.NoteOnEvent(tick=46, channel=2, data=[61, 0]),
   midi.NoteOnEvent(tick=2, channel=2, data=[61, 110]),
   midi.NoteOnEvent(tick=46, channel=2, data=[61, 0]),
   midi.NoteOnEvent(tick=2, channel=2, data=[61, 110]),
   midi.NoteOnEvent(tick=46, channel=2, data=[61, 0]),
   midi.NoteOnEvent(tick=2, channel=2, data=[61, 110]),
   midi.NoteOnEvent(tick=46, channel=2, data=[61, 0]),
   midi.NoteOnEvent(tick=2, channel=2, data=[61, 110]),
   midi.NoteOnEvent(tick=0, channel=2, data=[68, 110]),
   midi.NoteOnEvent(tick=94, channel=2, data=[61, 0]),
   midi.NoteOnEvent(tick=0, channel=2, data=[68, 0]),
   midi.NoteOnEvent(tick=2, channel=2, data=[61, 110]),
   midi.NoteOnEvent(tick=46, channel=2, data=[61, 0]),
   midi.NoteOnEvent(tick=2, channel=2, data=[61, 110]),
   midi.NoteOnEvent(tick=46, channel=2, data=[61, 0]),
   midi.NoteOnEvent(tick=2, channel=2, data=[61, 110]),
   midi.NoteOnEvent(tick=46, channel=2, data=[61, 0]),
   midi.NoteOnEvent(tick=2, channel=2, data=[61, 110]),
   midi.NoteOnEvent(tick=46, channel=2, data=[61, 0]),
   midi.NoteOnEvent(tick=2, channel=2, data=[61, 110]),
   midi.NoteOnEvent(tick=46, channel=2, data=[61, 0]),
   midi.NoteOnEvent(tick=2, channel=2, data=[61, 110]),
   midi.NoteOnEvent(tick=46, channel=2, data=[61, 0]),
   midi.NoteOnEvent(tick=2, channel=2, data=[61, 110]),
   midi.NoteOnEvent(tick=94, channel=2, data=[61, 0]),
   midi.NoteOnEvent(tick=2, channel=2, data=[61, 110]),
   midi.NoteOnEvent(tick=46, channel=2, data=[61, 0]),
   midi.NoteOnEvent(tick=2, channel=2, data=[61, 110]),
   midi.NoteOnEvent(tick=46, channel=2, data=[61, 0]),
   midi.NoteOnEvent(tick=2, channel=2, data=[59, 110]),
   midi.NoteOnEvent(tick=0, channel=2, data=[66, 110]),
   midi.NoteOnEvent(tick=94, channel=2, data=[59, 0]),
   midi.NoteOnEvent(tick=0, channel=2, data=[66, 0]),
   midi.NoteOnEvent(tick=2, channel=2, data=[59, 110]),
   midi.NoteOnEvent(tick=46, channel=2, data=[59, 0]),
   midi.NoteOnEvent(tick=2, channel=2, data=[59, 110]),
   midi.NoteOnEvent(tick=46, channel=2, data=[59, 0]),
   midi.NoteOnEvent(tick=2, channel=2, data=[59, 110]),
   midi.NoteOnEvent(tick=46, channel=2, data=[59, 0]),
   midi.NoteOnEvent(tick=2, channel=2, data=[59, 110]),
   midi.NoteOnEvent(tick=46, channel=2, data=[59, 0]),
   midi.NoteOnEvent(tick=2, channel=2, data=[59, 110]),
   midi.NoteOnEvent(tick=46, channel=2, data=[59, 0]),
   midi.NoteOnEvent(tick=2, channel=2, data=[59, 110]),
   midi.NoteOnEvent(tick=46, channel=2, data=[59, 0]),
   midi.NoteOnEvent(tick=2, channel=2, data=[59, 110]),
   midi.NoteOnEvent(tick=94, channel=2, data=[59, 0]),
   midi.NoteOnEvent(tick=2, channel=2, data=[59, 110]),
   midi.NoteOnEvent(tick=46, channel=2, data=[59, 0]),
   midi.NoteOnEvent(tick=2, channel=2, data=[59, 110]),
   midi.NoteOnEvent(tick=46, channel=2, data=[59, 0]),
   midi.NoteOnEvent(tick=2, channel=2, data=[61, 110]),
   midi.NoteOnEvent(tick=0, channel=2, data=[68, 110]),
   midi.NoteOnEvent(tick=94, channel=2, data=[61, 0]),
   midi.NoteOnEvent(tick=0, channel=2, data=[68, 0]),
   midi.NoteOnEvent(tick=2, channel=2, data=[61, 110]),
   midi.NoteOnEvent(tick=46, channel=2, data=[61, 0]),
   midi.NoteOnEvent(tick=2, channel=2, data=[61, 110]),
   midi.NoteOnEvent(tick=46, channel=2, data=[61, 0]),
   midi.NoteOnEvent(tick=2, channel=2, data=[61, 110]),
   midi.NoteOnEvent(tick=46, channel=2, data=[61, 0]),
   midi.NoteOnEvent(tick=2, channel=2, data=[61, 110]),
   midi.NoteOnEvent(tick=46, channel=2, data=[61, 0]),
   midi.NoteOnEvent(tick=2, channel=2, data=[61, 110]),
   midi.NoteOnEvent(tick=46, channel=2, data=[61, 0]),
   midi.NoteOnEvent(tick=2, channel=2, data=[61, 110]),
   midi.NoteOnEvent(tick=46, channel=2, data=[61, 0]),
   midi.NoteOnEvent(tick=2, channel=2, data=[61, 110]),
   midi.NoteOnEvent(tick=94, channel=2, data=[61, 0]),
   midi.NoteOnEvent(tick=2, channel=2, data=[61, 110]),
   midi.NoteOnEvent(tick=46, channel=2, data=[61, 0]),
   midi.NoteOnEvent(tick=2, channel=2, data=[61, 110]),
   midi.NoteOnEvent(tick=46, channel=2, data=[61, 0]),
   midi.NoteOnEvent(tick=2, channel=2, data=[61, 110]),
   midi.NoteOnEvent(tick=46, channel=2, data=[61, 0]),
   midi.NoteOnEvent(tick=2, channel=2, data=[61, 110]),
   midi.NoteOnEvent(tick=46, channel=2, data=[61, 0]),
   midi.NoteOnEvent(tick=2, channel=2, data=[61, 110]),
   midi.NoteOnEvent(tick=46, channel=2, data=[61, 0]),
   midi.NoteOnEvent(tick=2, channel=2, data=[61, 110]),
   midi.NoteOnEvent(tick=46, channel=2, data=[61, 0]),
   midi.NoteOnEvent(tick=2, channel=2, data=[61, 110]),
   midi.NoteOnEvent(tick=0, channel=2, data=[68, 110]),
   midi.NoteOnEvent(tick=94, channel=2, data=[61, 0]),
   midi.NoteOnEvent(tick=0, channel=2, data=[68, 0]),
   midi.NoteOnEvent(tick=2, channel=2, data=[61, 110]),
   midi.NoteOnEvent(tick=46, channel=2, data=[61, 0]),
   midi.NoteOnEvent(tick=2, channel=2, data=[61, 110]),
   midi.NoteOnEvent(tick=46, channel=2, data=[61, 0]),
   midi.NoteOnEvent(tick=2, channel=2, data=[61, 110]),
   midi.NoteOnEvent(tick=46, channel=2, data=[61, 0]),
   midi.NoteOnEvent(tick=2, channel=2, data=[61, 110]),
   midi.NoteOnEvent(tick=46, channel=2, data=[61, 0]),
   midi.NoteOnEvent(tick=2, channel=2, data=[61, 110]),
   midi.NoteOnEvent(tick=46, channel=2, data=[61, 0]),
   midi.NoteOnEvent(tick=2, channel=2, data=[61, 110]),
   midi.NoteOnEvent(tick=46, channel=2, data=[61, 0]),
   midi.NoteOnEvent(tick=2, channel=2, data=[61, 110]),
   midi.NoteOnEvent(tick=94, channel=2, data=[61, 0]),
   midi.NoteOnEvent(tick=2, channel=2, data=[61, 110]),
   midi.NoteOnEvent(tick=46, channel=2, data=[61, 0]),
   midi.NoteOnEvent(tick=2, channel=2, data=[61, 110]),
   midi.NoteOnEvent(tick=46, channel=2, data=[61, 0]),
   midi.NoteOnEvent(tick=2, channel=2, data=[61, 110]),
   midi.NoteOnEvent(tick=46, channel=2, data=[61, 0]),
   midi.NoteOnEvent(tick=2, channel=2, data=[61, 110]),
   midi.NoteOnEvent(tick=46, channel=2, data=[61, 0]),
   midi.NoteOnEvent(tick=2, channel=2, data=[61, 110]),
   midi.NoteOnEvent(tick=46, channel=2, data=[61, 0]),
   midi.NoteOnEvent(tick=2, channel=2, data=[61, 110]),
   midi.NoteOnEvent(tick=46, channel=2, data=[61, 0]),
   midi.NoteOnEvent(tick=2, channel=2, data=[61, 110]),
   midi.NoteOnEvent(tick=0, channel=2, data=[68, 110]),
   midi.NoteOnEvent(tick=94, channel=2, data=[61, 0]),
   midi.NoteOnEvent(tick=0, channel=2, data=[68, 0]),
   midi.NoteOnEvent(tick=2, channel=2, data=[61, 110]),
   midi.NoteOnEvent(tick=46, channel=2, data=[61, 0]),
   midi.NoteOnEvent(tick=2, channel=2, data=[61, 110]),
   midi.NoteOnEvent(tick=46, channel=2, data=[61, 0]),
   midi.NoteOnEvent(tick=2, channel=2, data=[61, 110]),
   midi.NoteOnEvent(tick=46, channel=2, data=[61, 0]),
   midi.NoteOnEvent(tick=2, channel=2, data=[61, 110]),
   midi.NoteOnEvent(tick=46, channel=2, data=[61, 0]),
   midi.NoteOnEvent(tick=2, channel=2, data=[61, 110]),
   midi.NoteOnEvent(tick=46, channel=2, data=[61, 0]),
   midi.NoteOnEvent(tick=2, channel=2, data=[61, 110]),
   midi.NoteOnEvent(tick=46, channel=2, data=[61, 0]),
   midi.NoteOnEvent(tick=2, channel=2, data=[61, 110]),
   midi.NoteOnEvent(tick=94, channel=2, data=[61, 0]),
   midi.NoteOnEvent(tick=2, channel=2, data=[61, 110]),
   midi.NoteOnEvent(tick=46, channel=2, data=[61, 0]),
   midi.NoteOnEvent(tick=2, channel=2, data=[61, 110]),
   midi.NoteOnEvent(tick=46, channel=2, data=[61, 0]),
   midi.NoteOnEvent(tick=2, channel=2, data=[59, 110]),
   midi.NoteOnEvent(tick=0, channel=2, data=[66, 110]),
   midi.NoteOnEvent(tick=94, channel=2, data=[59, 0]),
   midi.NoteOnEvent(tick=0, channel=2, data=[66, 0]),
   midi.NoteOnEvent(tick=2, channel=2, data=[59, 110]),
   midi.NoteOnEvent(tick=46, channel=2, data=[59, 0]),
   midi.NoteOnEvent(tick=2, channel=2, data=[59, 110]),
   midi.NoteOnEvent(tick=46, channel=2, data=[59, 0]),
   midi.NoteOnEvent(tick=2, channel=2, data=[59, 110]),
   midi.NoteOnEvent(tick=46, channel=2, data=[59, 0]),
   midi.NoteOnEvent(tick=2, channel=2, data=[59, 110]),
   midi.NoteOnEvent(tick=46, channel=2, data=[59, 0]),
   midi.NoteOnEvent(tick=2, channel=2, data=[59, 110]),
   midi.NoteOnEvent(tick=46, channel=2, data=[59, 0]),
   midi.NoteOnEvent(tick=2, channel=2, data=[59, 110]),
   midi.NoteOnEvent(tick=46, channel=2, data=[59, 0]),
   midi.NoteOnEvent(tick=2, channel=2, data=[59, 110]),
   midi.NoteOnEvent(tick=94, channel=2, data=[59, 0]),
   midi.NoteOnEvent(tick=2, channel=2, data=[59, 110]),
   midi.NoteOnEvent(tick=46, channel=2, data=[59, 0]),
   midi.NoteOnEvent(tick=2, channel=2, data=[59, 110]),
   midi.NoteOnEvent(tick=46, channel=2, data=[59, 0]),
   midi.NoteOnEvent(tick=2, channel=2, data=[71, 110]),
   midi.NoteOnEvent(tick=334, channel=2, data=[71, 0]),
   midi.NoteOnEvent(tick=2, channel=2, data=[72, 110]),
   midi.NoteOnEvent(tick=22, channel=2, data=[72, 0]),
   midi.NoteOnEvent(tick=2, channel=2, data=[71, 110]),
   midi.NoteOnEvent(tick=22, channel=2, data=[71, 0]),
   midi.NoteOnEvent(tick=2, channel=2, data=[69, 110]),
   midi.NoteOnEvent(tick=334, channel=2, data=[69, 0]),
   midi.NoteOnEvent(tick=2, channel=2, data=[71, 110]),
   midi.NoteOnEvent(tick=22, channel=2, data=[71, 0]),
   midi.NoteOnEvent(tick=2, channel=2, data=[72, 110]),
   midi.NoteOnEvent(tick=22, channel=2, data=[72, 0]),
   midi.NoteOnEvent(tick=2, channel=2, data=[71, 110]),
   midi.NoteOnEvent(tick=334, channel=2, data=[71, 0]),
   midi.NoteOnEvent(tick=2, channel=2, data=[72, 110]),
   midi.NoteOnEvent(tick=22, channel=2, data=[72, 0]),
   midi.NoteOnEvent(tick=2, channel=2, data=[71, 110]),
   midi.NoteOnEvent(tick=22, channel=2, data=[71, 0]),
   midi.NoteOnEvent(tick=2, channel=2, data=[69, 110]),
   midi.NoteOnEvent(tick=334, channel=2, data=[69, 0]),
   midi.NoteOnEvent(tick=2, channel=2, data=[71, 110]),
   midi.NoteOnEvent(tick=22, channel=2, data=[71, 0]),
   midi.NoteOnEvent(tick=2, channel=2, data=[72, 110]),
   midi.NoteOnEvent(tick=22, channel=2, data=[72, 0]),
   midi.NoteOnEvent(tick=2, channel=2, data=[71, 110]),
   midi.NoteOnEvent(tick=334, channel=2, data=[71, 0]),
   midi.NoteOnEvent(tick=2, channel=2, data=[72, 110]),
   midi.NoteOnEvent(tick=22, channel=2, data=[72, 0]),
   midi.NoteOnEvent(tick=2, channel=2, data=[71, 110]),
   midi.NoteOnEvent(tick=22, channel=2, data=[71, 0]),
   midi.NoteOnEvent(tick=2, channel=2, data=[69, 110]),
   midi.NoteOnEvent(tick=160, channel=2, data=[69, 0]),
   midi.PitchWheelEvent(tick=32, channel=2, data=[0, 64]),
   midi.NoteOnEvent(tick=0, channel=2, data=[71, 110]),
   midi.PitchWheelEvent(tick=1, channel=2, data=[96, 63]),
   midi.PitchWheelEvent(tick=2, channel=2, data=[64, 63]),
   midi.PitchWheelEvent(tick=1, channel=2, data=[32, 63]),
   midi.PitchWheelEvent(tick=2, channel=2, data=[0, 63]),
   midi.PitchWheelEvent(tick=1, channel=2, data=[96, 62]),
   midi.PitchWheelEvent(tick=2, channel=2, data=[64, 62]),
   midi.PitchWheelEvent(tick=1, channel=2, data=[32, 62]),
   midi.PitchWheelEvent(tick=2, channel=2, data=[0, 62]),
   midi.PitchWheelEvent(tick=1, channel=2, data=[96, 61]),
   midi.PitchWheelEvent(tick=2, channel=2, data=[64, 61]),
   midi.PitchWheelEvent(tick=1, channel=2, data=[32, 61]),
   midi.PitchWheelEvent(tick=2, channel=2, data=[0, 61]),
   midi.PitchWheelEvent(tick=1, channel=2, data=[96, 60]),
   midi.PitchWheelEvent(tick=2, channel=2, data=[64, 60]),
   midi.PitchWheelEvent(tick=1, channel=2, data=[32, 60]),
   midi.PitchWheelEvent(tick=2, channel=2, data=[0, 60]),
   midi.PitchWheelEvent(tick=1, channel=2, data=[96, 59]),
   midi.PitchWheelEvent(tick=2, channel=2, data=[64, 59]),
   midi.PitchWheelEvent(tick=1, channel=2, data=[32, 59]),
   midi.PitchWheelEvent(tick=2, channel=2, data=[0, 59]),
   midi.PitchWheelEvent(tick=1, channel=2, data=[96, 58]),
   midi.PitchWheelEvent(tick=2, channel=2, data=[64, 58]),
   midi.PitchWheelEvent(tick=1, channel=2, data=[32, 58]),
   midi.PitchWheelEvent(tick=2, channel=2, data=[0, 58]),
   midi.PitchWheelEvent(tick=1, channel=2, data=[96, 57]),
   midi.PitchWheelEvent(tick=2, channel=2, data=[64, 57]),
   midi.PitchWheelEvent(tick=1, channel=2, data=[32, 57]),
   midi.PitchWheelEvent(tick=2, channel=2, data=[0, 57]),
   midi.PitchWheelEvent(tick=1, channel=2, data=[96, 56]),
   midi.PitchWheelEvent(tick=2, channel=2, data=[64, 56]),
   midi.PitchWheelEvent(tick=1, channel=2, data=[32, 56]),
   midi.PitchWheelEvent(tick=2, channel=2, data=[0, 56]),
   midi.PitchWheelEvent(tick=1, channel=2, data=[96, 55]),
   midi.PitchWheelEvent(tick=2, channel=2, data=[64, 55]),
   midi.PitchWheelEvent(tick=1, channel=2, data=[32, 55]),
   midi.PitchWheelEvent(tick=2, channel=2, data=[0, 55]),
   midi.PitchWheelEvent(tick=1, channel=2, data=[96, 54]),
   midi.PitchWheelEvent(tick=2, channel=2, data=[64, 54]),
   midi.PitchWheelEvent(tick=1, channel=2, data=[32, 54]),
   midi.PitchWheelEvent(tick=2, channel=2, data=[0, 54]),
   midi.PitchWheelEvent(tick=1, channel=2, data=[96, 53]),
   midi.PitchWheelEvent(tick=2, channel=2, data=[64, 53]),
   midi.PitchWheelEvent(tick=1, channel=2, data=[32, 53]),
   midi.PitchWheelEvent(tick=2, channel=2, data=[0, 53]),
   midi.PitchWheelEvent(tick=1, channel=2, data=[96, 52]),
   midi.PitchWheelEvent(tick=2, channel=2, data=[64, 52]),
   midi.PitchWheelEvent(tick=1, channel=2, data=[32, 52]),
   midi.PitchWheelEvent(tick=2, channel=2, data=[0, 52]),
   midi.PitchWheelEvent(tick=1, channel=2, data=[96, 51]),
   midi.PitchWheelEvent(tick=2, channel=2, data=[64, 51]),
   midi.PitchWheelEvent(tick=1, channel=2, data=[32, 51]),
   midi.PitchWheelEvent(tick=2, channel=2, data=[0, 51]),
   midi.PitchWheelEvent(tick=1, channel=2, data=[96, 50]),
   midi.PitchWheelEvent(tick=2, channel=2, data=[64, 50]),
   midi.PitchWheelEvent(tick=1, channel=2, data=[32, 50]),
   midi.PitchWheelEvent(tick=2, channel=2, data=[0, 50]),
   midi.PitchWheelEvent(tick=1, channel=2, data=[96, 49]),
   midi.PitchWheelEvent(tick=2, channel=2, data=[64, 49]),
   midi.PitchWheelEvent(tick=1, channel=2, data=[32, 49]),
   midi.PitchWheelEvent(tick=2, channel=2, data=[0, 49]),
   midi.PitchWheelEvent(tick=1, channel=2, data=[96, 48]),
   midi.PitchWheelEvent(tick=2, channel=2, data=[64, 48]),
   midi.PitchWheelEvent(tick=1, channel=2, data=[32, 48]),
   midi.PitchWheelEvent(tick=2, channel=2, data=[0, 48]),
   midi.PitchWheelEvent(tick=1, channel=2, data=[96, 47]),
   midi.PitchWheelEvent(tick=2, channel=2, data=[64, 47]),
   midi.PitchWheelEvent(tick=1, channel=2, data=[32, 47]),
   midi.PitchWheelEvent(tick=2, channel=2, data=[0, 47]),
   midi.PitchWheelEvent(tick=1, channel=2, data=[96, 46]),
   midi.PitchWheelEvent(tick=2, channel=2, data=[64, 46]),
   midi.PitchWheelEvent(tick=1, channel=2, data=[32, 46]),
   midi.PitchWheelEvent(tick=2, channel=2, data=[0, 46]),
   midi.PitchWheelEvent(tick=1, channel=2, data=[96, 45]),
   midi.PitchWheelEvent(tick=2, channel=2, data=[64, 45]),
   midi.PitchWheelEvent(tick=1, channel=2, data=[32, 45]),
   midi.PitchWheelEvent(tick=2, channel=2, data=[0, 45]),
   midi.PitchWheelEvent(tick=1, channel=2, data=[96, 44]),
   midi.PitchWheelEvent(tick=2, channel=2, data=[64, 44]),
   midi.PitchWheelEvent(tick=1, channel=2, data=[32, 44]),
   midi.PitchWheelEvent(tick=2, channel=2, data=[0, 44]),
   midi.PitchWheelEvent(tick=1, channel=2, data=[96, 43]),
   midi.PitchWheelEvent(tick=2, channel=2, data=[64, 43]),
   midi.PitchWheelEvent(tick=1, channel=2, data=[32, 43]),
   midi.PitchWheelEvent(tick=2, channel=2, data=[0, 43]),
   midi.PitchWheelEvent(tick=1, channel=2, data=[96, 42]),
   midi.PitchWheelEvent(tick=2, channel=2, data=[64, 42]),
   midi.PitchWheelEvent(tick=1, channel=2, data=[32, 42]),
   midi.PitchWheelEvent(tick=2, channel=2, data=[0, 42]),
   midi.PitchWheelEvent(tick=1, channel=2, data=[96, 41]),
   midi.PitchWheelEvent(tick=2, channel=2, data=[64, 41]),
   midi.PitchWheelEvent(tick=1, channel=2, data=[32, 41]),
   midi.PitchWheelEvent(tick=2, channel=2, data=[0, 41]),
   midi.PitchWheelEvent(tick=1, channel=2, data=[96, 40]),
   midi.PitchWheelEvent(tick=2, channel=2, data=[64, 40]),
   midi.PitchWheelEvent(tick=1, channel=2, data=[32, 40]),
   midi.PitchWheelEvent(tick=2, channel=2, data=[0, 40]),
   midi.PitchWheelEvent(tick=1, channel=2, data=[96, 39]),
   midi.PitchWheelEvent(tick=2, channel=2, data=[64, 39]),
   midi.PitchWheelEvent(tick=1, channel=2, data=[32, 39]),
   midi.PitchWheelEvent(tick=2, channel=2, data=[0, 39]),
   midi.PitchWheelEvent(tick=1, channel=2, data=[96, 38]),
   midi.PitchWheelEvent(tick=2, channel=2, data=[64, 38]),
   midi.PitchWheelEvent(tick=1, channel=2, data=[32, 38]),
   midi.PitchWheelEvent(tick=2, channel=2, data=[0, 38]),
   midi.PitchWheelEvent(tick=1, channel=2, data=[96, 37]),
   midi.PitchWheelEvent(tick=2, channel=2, data=[64, 37]),
   midi.PitchWheelEvent(tick=1, channel=2, data=[32, 37]),
   midi.PitchWheelEvent(tick=2, channel=2, data=[0, 37]),
   midi.PitchWheelEvent(tick=1, channel=2, data=[96, 36]),
   midi.PitchWheelEvent(tick=2, channel=2, data=[64, 36]),
   midi.PitchWheelEvent(tick=1, channel=2, data=[32, 36]),
   midi.PitchWheelEvent(tick=2, channel=2, data=[0, 36]),
   midi.PitchWheelEvent(tick=1, channel=2, data=[96, 35]),
   midi.PitchWheelEvent(tick=2, channel=2, data=[64, 35]),
   midi.PitchWheelEvent(tick=1, channel=2, data=[32, 35]),
   midi.PitchWheelEvent(tick=2, channel=2, data=[0, 35]),
   midi.PitchWheelEvent(tick=1, channel=2, data=[96, 34]),
   midi.PitchWheelEvent(tick=2, channel=2, data=[64, 34]),
   midi.PitchWheelEvent(tick=1, channel=2, data=[32, 34]),
   midi.PitchWheelEvent(tick=2, channel=2, data=[0, 34]),
   midi.PitchWheelEvent(tick=1, channel=2, data=[96, 33]),
   midi.PitchWheelEvent(tick=2, channel=2, data=[64, 33]),
   midi.PitchWheelEvent(tick=1, channel=2, data=[32, 33]),
   midi.PitchWheelEvent(tick=2, channel=2, data=[0, 33]),
   midi.PitchWheelEvent(tick=1, channel=2, data=[96, 32]),
   midi.PitchWheelEvent(tick=2, channel=2, data=[64, 32]),
   midi.PitchWheelEvent(tick=1, channel=2, data=[32, 32]),
   midi.PitchWheelEvent(tick=2, channel=2, data=[0, 32]),
   midi.PitchWheelEvent(tick=1, channel=2, data=[96, 31]),
   midi.PitchWheelEvent(tick=2, channel=2, data=[64, 31]),
   midi.PitchWheelEvent(tick=1, channel=2, data=[32, 31]),
   midi.PitchWheelEvent(tick=2, channel=2, data=[0, 31]),
   midi.PitchWheelEvent(tick=1, channel=2, data=[96, 30]),
   midi.PitchWheelEvent(tick=2, channel=2, data=[64, 30]),
   midi.PitchWheelEvent(tick=1, channel=2, data=[32, 30]),
   midi.PitchWheelEvent(tick=2, channel=2, data=[0, 30]),
   midi.PitchWheelEvent(tick=1, channel=2, data=[96, 29]),
   midi.PitchWheelEvent(tick=2, channel=2, data=[64, 29]),
   midi.PitchWheelEvent(tick=1, channel=2, data=[32, 29]),
   midi.PitchWheelEvent(tick=2, channel=2, data=[0, 29]),
   midi.PitchWheelEvent(tick=1, channel=2, data=[96, 28]),
   midi.PitchWheelEvent(tick=2, channel=2, data=[64, 28]),
   midi.PitchWheelEvent(tick=1, channel=2, data=[32, 28]),
   midi.PitchWheelEvent(tick=2, channel=2, data=[0, 28]),
   midi.PitchWheelEvent(tick=1, channel=2, data=[96, 27]),
   midi.PitchWheelEvent(tick=2, channel=2, data=[64, 27]),
   midi.PitchWheelEvent(tick=1, channel=2, data=[32, 27]),
   midi.PitchWheelEvent(tick=2, channel=2, data=[0, 27]),
   midi.PitchWheelEvent(tick=1, channel=2, data=[96, 26]),
   midi.PitchWheelEvent(tick=2, channel=2, data=[64, 26]),
   midi.PitchWheelEvent(tick=1, channel=2, data=[32, 26]),
   midi.PitchWheelEvent(tick=2, channel=2, data=[0, 26]),
   midi.PitchWheelEvent(tick=1, channel=2, data=[96, 25]),
   midi.PitchWheelEvent(tick=2, channel=2, data=[64, 25]),
   midi.PitchWheelEvent(tick=1, channel=2, data=[32, 25]),
   midi.PitchWheelEvent(tick=2, channel=2, data=[0, 25]),
   midi.PitchWheelEvent(tick=1, channel=2, data=[96, 24]),
   midi.PitchWheelEvent(tick=2, channel=2, data=[64, 24]),
   midi.PitchWheelEvent(tick=1, channel=2, data=[32, 24]),
   midi.PitchWheelEvent(tick=2, channel=2, data=[0, 24]),
   midi.PitchWheelEvent(tick=1, channel=2, data=[96, 23]),
   midi.PitchWheelEvent(tick=2, channel=2, data=[64, 23]),
   midi.PitchWheelEvent(tick=1, channel=2, data=[32, 23]),
   midi.PitchWheelEvent(tick=2, channel=2, data=[0, 23]),
   midi.PitchWheelEvent(tick=1, channel=2, data=[96, 22]),
   midi.PitchWheelEvent(tick=2, channel=2, data=[64, 22]),
   midi.PitchWheelEvent(tick=1, channel=2, data=[32, 22]),
   midi.PitchWheelEvent(tick=2, channel=2, data=[0, 22]),
   midi.PitchWheelEvent(tick=1, channel=2, data=[96, 21]),
   midi.PitchWheelEvent(tick=2, channel=2, data=[64, 21]),
   midi.PitchWheelEvent(tick=1, channel=2, data=[32, 21]),
   midi.PitchWheelEvent(tick=2, channel=2, data=[0, 21]),
   midi.PitchWheelEvent(tick=1, channel=2, data=[96, 20]),
   midi.PitchWheelEvent(tick=2, channel=2, data=[64, 20]),
   midi.PitchWheelEvent(tick=1, channel=2, data=[32, 20]),
   midi.PitchWheelEvent(tick=2, channel=2, data=[0, 20]),
   midi.PitchWheelEvent(tick=1, channel=2, data=[96, 19]),
   midi.PitchWheelEvent(tick=2, channel=2, data=[64, 19]),
   midi.PitchWheelEvent(tick=1, channel=2, data=[32, 19]),
   midi.PitchWheelEvent(tick=2, channel=2, data=[0, 19]),
   midi.PitchWheelEvent(tick=1, channel=2, data=[96, 18]),
   midi.PitchWheelEvent(tick=2, channel=2, data=[64, 18]),
   midi.PitchWheelEvent(tick=1, channel=2, data=[32, 18]),
   midi.PitchWheelEvent(tick=2, channel=2, data=[0, 18]),
   midi.PitchWheelEvent(tick=1, channel=2, data=[96, 17]),
   midi.PitchWheelEvent(tick=2, channel=2, data=[64, 17]),
   midi.PitchWheelEvent(tick=1, channel=2, data=[32, 17]),
   midi.PitchWheelEvent(tick=2, channel=2, data=[0, 17]),
   midi.PitchWheelEvent(tick=1, channel=2, data=[96, 16]),
   midi.PitchWheelEvent(tick=2, channel=2, data=[64, 16]),
   midi.PitchWheelEvent(tick=1, channel=2, data=[32, 16]),
   midi.PitchWheelEvent(tick=2, channel=2, data=[0, 16]),
   midi.PitchWheelEvent(tick=1, channel=2, data=[96, 15]),
   midi.PitchWheelEvent(tick=2, channel=2, data=[64, 15]),
   midi.PitchWheelEvent(tick=1, channel=2, data=[32, 15]),
   midi.PitchWheelEvent(tick=2, channel=2, data=[0, 15]),
   midi.PitchWheelEvent(tick=1, channel=2, data=[96, 14]),
   midi.PitchWheelEvent(tick=2, channel=2, data=[64, 14]),
   midi.PitchWheelEvent(tick=1, channel=2, data=[32, 14]),
   midi.PitchWheelEvent(tick=2, channel=2, data=[0, 14]),
   midi.PitchWheelEvent(tick=1, channel=2, data=[96, 13]),
   midi.PitchWheelEvent(tick=2, channel=2, data=[64, 13]),
   midi.PitchWheelEvent(tick=1, channel=2, data=[32, 13]),
   midi.PitchWheelEvent(tick=2, channel=2, data=[0, 13]),
   midi.PitchWheelEvent(tick=1, channel=2, data=[96, 12]),
   midi.PitchWheelEvent(tick=2, channel=2, data=[64, 12]),
   midi.PitchWheelEvent(tick=1, channel=2, data=[32, 12]),
   midi.PitchWheelEvent(tick=2, channel=2, data=[0, 12]),
   midi.PitchWheelEvent(tick=1, channel=2, data=[96, 11]),
   midi.PitchWheelEvent(tick=2, channel=2, data=[64, 11]),
   midi.PitchWheelEvent(tick=1, channel=2, data=[32, 11]),
   midi.PitchWheelEvent(tick=2, channel=2, data=[0, 11]),
   midi.PitchWheelEvent(tick=1, channel=2, data=[96, 10]),
   midi.PitchWheelEvent(tick=2, channel=2, data=[64, 10]),
   midi.PitchWheelEvent(tick=1, channel=2, data=[32, 10]),
   midi.PitchWheelEvent(tick=2, channel=2, data=[0, 10]),
   midi.PitchWheelEvent(tick=1, channel=2, data=[96, 9]),
   midi.PitchWheelEvent(tick=2, channel=2, data=[64, 9]),
   midi.PitchWheelEvent(tick=1, channel=2, data=[32, 9]),
   midi.PitchWheelEvent(tick=2, channel=2, data=[0, 9]),
   midi.PitchWheelEvent(tick=1, channel=2, data=[96, 8]),
   midi.PitchWheelEvent(tick=2, channel=2, data=[64, 8]),
   midi.PitchWheelEvent(tick=1, channel=2, data=[32, 8]),
   midi.PitchWheelEvent(tick=2, channel=2, data=[0, 8]),
   midi.PitchWheelEvent(tick=1, channel=2, data=[96, 7]),
   midi.PitchWheelEvent(tick=2, channel=2, data=[64, 7]),
   midi.PitchWheelEvent(tick=1, channel=2, data=[32, 7]),
   midi.PitchWheelEvent(tick=2, channel=2, data=[0, 7]),
   midi.PitchWheelEvent(tick=1, channel=2, data=[96, 6]),
   midi.PitchWheelEvent(tick=2, channel=2, data=[64, 6]),
   midi.PitchWheelEvent(tick=1, channel=2, data=[32, 6]),
   midi.PitchWheelEvent(tick=2, channel=2, data=[0, 6]),
   midi.PitchWheelEvent(tick=1, channel=2, data=[96, 5]),
   midi.PitchWheelEvent(tick=2, channel=2, data=[64, 5]),
   midi.PitchWheelEvent(tick=1, channel=2, data=[32, 5]),
   midi.PitchWheelEvent(tick=2, channel=2, data=[0, 5]),
   midi.PitchWheelEvent(tick=1, channel=2, data=[96, 4]),
   midi.PitchWheelEvent(tick=2, channel=2, data=[64, 4]),
   midi.PitchWheelEvent(tick=1, channel=2, data=[32, 4]),
   midi.PitchWheelEvent(tick=2, channel=2, data=[0, 4]),
   midi.PitchWheelEvent(tick=1, channel=2, data=[96, 3]),
   midi.PitchWheelEvent(tick=2, channel=2, data=[64, 3]),
   midi.PitchWheelEvent(tick=1, channel=2, data=[32, 3]),
   midi.PitchWheelEvent(tick=2, channel=2, data=[0, 3]),
   midi.PitchWheelEvent(tick=1, channel=2, data=[96, 2]),
   midi.PitchWheelEvent(tick=2, channel=2, data=[64, 2]),
   midi.PitchWheelEvent(tick=1, channel=2, data=[32, 2]),
   midi.PitchWheelEvent(tick=2, channel=2, data=[0, 2]),
   midi.PitchWheelEvent(tick=1, channel=2, data=[96, 1]),
   midi.PitchWheelEvent(tick=2, channel=2, data=[64, 1]),
   midi.PitchWheelEvent(tick=1, channel=2, data=[32, 1]),
   midi.PitchWheelEvent(tick=2, channel=2, data=[0, 1]),
   midi.PitchWheelEvent(tick=1, channel=2, data=[96, 0]),
   midi.PitchWheelEvent(tick=2, channel=2, data=[64, 0]),
   midi.PitchWheelEvent(tick=1, channel=2, data=[32, 0]),
   midi.PitchWheelEvent(tick=2, channel=2, data=[0, 0]),
   midi.NoteOnEvent(tick=160, channel=2, data=[71, 0]),
   midi.PitchWheelEvent(tick=32, channel=2, data=[0, 64]),
   midi.NoteOnEvent(tick=0, channel=2, data=[71, 110]),
   midi.NoteOnEvent(tick=334, channel=2, data=[71, 0]),
   midi.NoteOnEvent(tick=2, channel=2, data=[72, 110]),
   midi.NoteOnEvent(tick=22, channel=2, data=[72, 0]),
   midi.NoteOnEvent(tick=2, channel=2, data=[71, 110]),
   midi.NoteOnEvent(tick=22, channel=2, data=[71, 0]),
   midi.NoteOnEvent(tick=2, channel=2, data=[69, 110]),
   midi.NoteOnEvent(tick=334, channel=2, data=[69, 0]),
   midi.NoteOnEvent(tick=2, channel=2, data=[71, 110]),
   midi.NoteOnEvent(tick=22, channel=2, data=[71, 0]),
   midi.NoteOnEvent(tick=2, channel=2, data=[72, 110]),
   midi.NoteOnEvent(tick=22, channel=2, data=[72, 0]),
   midi.NoteOnEvent(tick=2, channel=2, data=[71, 110]),
   midi.NoteOnEvent(tick=334, channel=2, data=[71, 0]),
   midi.NoteOnEvent(tick=2, channel=2, data=[72, 110]),
   midi.NoteOnEvent(tick=22, channel=2, data=[72, 0]),
   midi.NoteOnEvent(tick=2, channel=2, data=[71, 110]),
   midi.NoteOnEvent(tick=22, channel=2, data=[71, 0]),
   midi.NoteOnEvent(tick=2, channel=2, data=[69, 110]),
   midi.NoteOnEvent(tick=334, channel=2, data=[69, 0]),
   midi.NoteOnEvent(tick=2, channel=2, data=[71, 110]),
   midi.NoteOnEvent(tick=22, channel=2, data=[71, 0]),
   midi.NoteOnEvent(tick=2, channel=2, data=[72, 110]),
   midi.NoteOnEvent(tick=22, channel=2, data=[72, 0]),
   midi.NoteOnEvent(tick=2, channel=2, data=[71, 110]),
   midi.NoteOnEvent(tick=334, channel=2, data=[71, 0]),
   midi.NoteOnEvent(tick=2, channel=2, data=[72, 110]),
   midi.NoteOnEvent(tick=22, channel=2, data=[72, 0]),
   midi.NoteOnEvent(tick=2, channel=2, data=[71, 110]),
   midi.NoteOnEvent(tick=22, channel=2, data=[71, 0]),
   midi.NoteOnEvent(tick=2, channel=2, data=[69, 110]),
   midi.NoteOnEvent(tick=160, channel=2, data=[69, 0]),
   midi.PitchWheelEvent(tick=32, channel=2, data=[0, 64]),
   midi.NoteOnEvent(tick=0, channel=2, data=[71, 110]),
   midi.PitchWheelEvent(tick=1, channel=2, data=[96, 63]),
   midi.PitchWheelEvent(tick=2, channel=2, data=[64, 63]),
   midi.PitchWheelEvent(tick=1, channel=2, data=[32, 63]),
   midi.PitchWheelEvent(tick=2, channel=2, data=[0, 63]),
   midi.PitchWheelEvent(tick=1, channel=2, data=[96, 62]),
   midi.PitchWheelEvent(tick=2, channel=2, data=[64, 62]),
   midi.PitchWheelEvent(tick=1, channel=2, data=[32, 62]),
   midi.PitchWheelEvent(tick=2, channel=2, data=[0, 62]),
   midi.PitchWheelEvent(tick=1, channel=2, data=[96, 61]),
   midi.PitchWheelEvent(tick=2, channel=2, data=[64, 61]),
   midi.PitchWheelEvent(tick=1, channel=2, data=[32, 61]),
   midi.PitchWheelEvent(tick=2, channel=2, data=[0, 61]),
   midi.PitchWheelEvent(tick=1, channel=2, data=[96, 60]),
   midi.PitchWheelEvent(tick=2, channel=2, data=[64, 60]),
   midi.PitchWheelEvent(tick=1, channel=2, data=[32, 60]),
   midi.PitchWheelEvent(tick=2, channel=2, data=[0, 60]),
   midi.PitchWheelEvent(tick=1, channel=2, data=[96, 59]),
   midi.PitchWheelEvent(tick=2, channel=2, data=[64, 59]),
   midi.PitchWheelEvent(tick=1, channel=2, data=[32, 59]),
   midi.PitchWheelEvent(tick=2, channel=2, data=[0, 59]),
   midi.PitchWheelEvent(tick=1, channel=2, data=[96, 58]),
   midi.PitchWheelEvent(tick=2, channel=2, data=[64, 58]),
   midi.PitchWheelEvent(tick=1, channel=2, data=[32, 58]),
   midi.PitchWheelEvent(tick=2, channel=2, data=[0, 58]),
   midi.PitchWheelEvent(tick=1, channel=2, data=[96, 57]),
   midi.PitchWheelEvent(tick=2, channel=2, data=[64, 57]),
   midi.PitchWheelEvent(tick=1, channel=2, data=[32, 57]),
   midi.PitchWheelEvent(tick=2, channel=2, data=[0, 57]),
   midi.PitchWheelEvent(tick=1, channel=2, data=[96, 56]),
   midi.PitchWheelEvent(tick=2, channel=2, data=[64, 56]),
   midi.PitchWheelEvent(tick=1, channel=2, data=[32, 56]),
   midi.PitchWheelEvent(tick=2, channel=2, data=[0, 56]),
   midi.PitchWheelEvent(tick=1, channel=2, data=[96, 55]),
   midi.PitchWheelEvent(tick=2, channel=2, data=[64, 55]),
   midi.PitchWheelEvent(tick=1, channel=2, data=[32, 55]),
   midi.PitchWheelEvent(tick=2, channel=2, data=[0, 55]),
   midi.PitchWheelEvent(tick=1, channel=2, data=[96, 54]),
   midi.PitchWheelEvent(tick=2, channel=2, data=[64, 54]),
   midi.PitchWheelEvent(tick=1, channel=2, data=[32, 54]),
   midi.PitchWheelEvent(tick=2, channel=2, data=[0, 54]),
   midi.PitchWheelEvent(tick=1, channel=2, data=[96, 53]),
   midi.PitchWheelEvent(tick=2, channel=2, data=[64, 53]),
   midi.PitchWheelEvent(tick=1, channel=2, data=[32, 53]),
   midi.PitchWheelEvent(tick=2, channel=2, data=[0, 53]),
   midi.PitchWheelEvent(tick=1, channel=2, data=[96, 52]),
   midi.PitchWheelEvent(tick=2, channel=2, data=[64, 52]),
   midi.PitchWheelEvent(tick=1, channel=2, data=[32, 52]),
   midi.PitchWheelEvent(tick=2, channel=2, data=[0, 52]),
   midi.PitchWheelEvent(tick=1, channel=2, data=[96, 51]),
   midi.PitchWheelEvent(tick=2, channel=2, data=[64, 51]),
   midi.PitchWheelEvent(tick=1, channel=2, data=[32, 51]),
   midi.PitchWheelEvent(tick=2, channel=2, data=[0, 51]),
   midi.PitchWheelEvent(tick=1, channel=2, data=[96, 50]),
   midi.PitchWheelEvent(tick=2, channel=2, data=[64, 50]),
   midi.PitchWheelEvent(tick=1, channel=2, data=[32, 50]),
   midi.PitchWheelEvent(tick=2, channel=2, data=[0, 50]),
   midi.PitchWheelEvent(tick=1, channel=2, data=[96, 49]),
   midi.PitchWheelEvent(tick=2, channel=2, data=[64, 49]),
   midi.PitchWheelEvent(tick=1, channel=2, data=[32, 49]),
   midi.PitchWheelEvent(tick=2, channel=2, data=[0, 49]),
   midi.PitchWheelEvent(tick=1, channel=2, data=[96, 48]),
   midi.PitchWheelEvent(tick=2, channel=2, data=[64, 48]),
   midi.PitchWheelEvent(tick=1, channel=2, data=[32, 48]),
   midi.PitchWheelEvent(tick=2, channel=2, data=[0, 48]),
   midi.PitchWheelEvent(tick=1, channel=2, data=[96, 47]),
   midi.PitchWheelEvent(tick=2, channel=2, data=[64, 47]),
   midi.PitchWheelEvent(tick=1, channel=2, data=[32, 47]),
   midi.PitchWheelEvent(tick=2, channel=2, data=[0, 47]),
   midi.PitchWheelEvent(tick=1, channel=2, data=[96, 46]),
   midi.PitchWheelEvent(tick=2, channel=2, data=[64, 46]),
   midi.PitchWheelEvent(tick=1, channel=2, data=[32, 46]),
   midi.PitchWheelEvent(tick=2, channel=2, data=[0, 46]),
   midi.PitchWheelEvent(tick=1, channel=2, data=[96, 45]),
   midi.PitchWheelEvent(tick=2, channel=2, data=[64, 45]),
   midi.PitchWheelEvent(tick=1, channel=2, data=[32, 45]),
   midi.PitchWheelEvent(tick=2, channel=2, data=[0, 45]),
   midi.PitchWheelEvent(tick=1, channel=2, data=[96, 44]),
   midi.PitchWheelEvent(tick=2, channel=2, data=[64, 44]),
   midi.PitchWheelEvent(tick=1, channel=2, data=[32, 44]),
   midi.PitchWheelEvent(tick=2, channel=2, data=[0, 44]),
   midi.PitchWheelEvent(tick=1, channel=2, data=[96, 43]),
   midi.PitchWheelEvent(tick=2, channel=2, data=[64, 43]),
   midi.PitchWheelEvent(tick=1, channel=2, data=[32, 43]),
   midi.PitchWheelEvent(tick=2, channel=2, data=[0, 43]),
   midi.PitchWheelEvent(tick=1, channel=2, data=[96, 42]),
   midi.PitchWheelEvent(tick=2, channel=2, data=[64, 42]),
   midi.PitchWheelEvent(tick=1, channel=2, data=[32, 42]),
   midi.PitchWheelEvent(tick=2, channel=2, data=[0, 42]),
   midi.PitchWheelEvent(tick=1, channel=2, data=[96, 41]),
   midi.PitchWheelEvent(tick=2, channel=2, data=[64, 41]),
   midi.PitchWheelEvent(tick=1, channel=2, data=[32, 41]),
   midi.PitchWheelEvent(tick=2, channel=2, data=[0, 41]),
   midi.PitchWheelEvent(tick=1, channel=2, data=[96, 40]),
   midi.PitchWheelEvent(tick=2, channel=2, data=[64, 40]),
   midi.PitchWheelEvent(tick=1, channel=2, data=[32, 40]),
   midi.PitchWheelEvent(tick=2, channel=2, data=[0, 40]),
   midi.PitchWheelEvent(tick=1, channel=2, data=[96, 39]),
   midi.PitchWheelEvent(tick=2, channel=2, data=[64, 39]),
   midi.PitchWheelEvent(tick=1, channel=2, data=[32, 39]),
   midi.PitchWheelEvent(tick=2, channel=2, data=[0, 39]),
   midi.PitchWheelEvent(tick=1, channel=2, data=[96, 38]),
   midi.PitchWheelEvent(tick=2, channel=2, data=[64, 38]),
   midi.PitchWheelEvent(tick=1, channel=2, data=[32, 38]),
   midi.PitchWheelEvent(tick=2, channel=2, data=[0, 38]),
   midi.PitchWheelEvent(tick=1, channel=2, data=[96, 37]),
   midi.PitchWheelEvent(tick=2, channel=2, data=[64, 37]),
   midi.PitchWheelEvent(tick=1, channel=2, data=[32, 37]),
   midi.PitchWheelEvent(tick=2, channel=2, data=[0, 37]),
   midi.PitchWheelEvent(tick=1, channel=2, data=[96, 36]),
   midi.PitchWheelEvent(tick=2, channel=2, data=[64, 36]),
   midi.PitchWheelEvent(tick=1, channel=2, data=[32, 36]),
   midi.PitchWheelEvent(tick=2, channel=2, data=[0, 36]),
   midi.PitchWheelEvent(tick=1, channel=2, data=[96, 35]),
   midi.PitchWheelEvent(tick=2, channel=2, data=[64, 35]),
   midi.PitchWheelEvent(tick=1, channel=2, data=[32, 35]),
   midi.PitchWheelEvent(tick=2, channel=2, data=[0, 35]),
   midi.PitchWheelEvent(tick=1, channel=2, data=[96, 34]),
   midi.PitchWheelEvent(tick=2, channel=2, data=[64, 34]),
   midi.PitchWheelEvent(tick=1, channel=2, data=[32, 34]),
   midi.PitchWheelEvent(tick=2, channel=2, data=[0, 34]),
   midi.PitchWheelEvent(tick=1, channel=2, data=[96, 33]),
   midi.PitchWheelEvent(tick=2, channel=2, data=[64, 33]),
   midi.PitchWheelEvent(tick=1, channel=2, data=[32, 33]),
   midi.PitchWheelEvent(tick=2, channel=2, data=[0, 33]),
   midi.PitchWheelEvent(tick=1, channel=2, data=[96, 32]),
   midi.PitchWheelEvent(tick=2, channel=2, data=[64, 32]),
   midi.PitchWheelEvent(tick=1, channel=2, data=[32, 32]),
   midi.PitchWheelEvent(tick=2, channel=2, data=[0, 32]),
   midi.PitchWheelEvent(tick=1, channel=2, data=[96, 31]),
   midi.PitchWheelEvent(tick=2, channel=2, data=[64, 31]),
   midi.PitchWheelEvent(tick=1, channel=2, data=[32, 31]),
   midi.PitchWheelEvent(tick=2, channel=2, data=[0, 31]),
   midi.PitchWheelEvent(tick=1, channel=2, data=[96, 30]),
   midi.PitchWheelEvent(tick=2, channel=2, data=[64, 30]),
   midi.PitchWheelEvent(tick=1, channel=2, data=[32, 30]),
   midi.PitchWheelEvent(tick=2, channel=2, data=[0, 30]),
   midi.PitchWheelEvent(tick=1, channel=2, data=[96, 29]),
   midi.PitchWheelEvent(tick=2, channel=2, data=[64, 29]),
   midi.PitchWheelEvent(tick=1, channel=2, data=[32, 29]),
   midi.PitchWheelEvent(tick=2, channel=2, data=[0, 29]),
   midi.PitchWheelEvent(tick=1, channel=2, data=[96, 28]),
   midi.PitchWheelEvent(tick=2, channel=2, data=[64, 28]),
   midi.PitchWheelEvent(tick=1, channel=2, data=[32, 28]),
   midi.PitchWheelEvent(tick=2, channel=2, data=[0, 28]),
   midi.PitchWheelEvent(tick=1, channel=2, data=[96, 27]),
   midi.PitchWheelEvent(tick=2, channel=2, data=[64, 27]),
   midi.PitchWheelEvent(tick=1, channel=2, data=[32, 27]),
   midi.PitchWheelEvent(tick=2, channel=2, data=[0, 27]),
   midi.PitchWheelEvent(tick=1, channel=2, data=[96, 26]),
   midi.PitchWheelEvent(tick=2, channel=2, data=[64, 26]),
   midi.PitchWheelEvent(tick=1, channel=2, data=[32, 26]),
   midi.PitchWheelEvent(tick=2, channel=2, data=[0, 26]),
   midi.PitchWheelEvent(tick=1, channel=2, data=[96, 25]),
   midi.PitchWheelEvent(tick=2, channel=2, data=[64, 25]),
   midi.PitchWheelEvent(tick=1, channel=2, data=[32, 25]),
   midi.PitchWheelEvent(tick=2, channel=2, data=[0, 25]),
   midi.PitchWheelEvent(tick=1, channel=2, data=[96, 24]),
   midi.PitchWheelEvent(tick=2, channel=2, data=[64, 24]),
   midi.PitchWheelEvent(tick=1, channel=2, data=[32, 24]),
   midi.PitchWheelEvent(tick=2, channel=2, data=[0, 24]),
   midi.PitchWheelEvent(tick=1, channel=2, data=[96, 23]),
   midi.PitchWheelEvent(tick=2, channel=2, data=[64, 23]),
   midi.PitchWheelEvent(tick=1, channel=2, data=[32, 23]),
   midi.PitchWheelEvent(tick=2, channel=2, data=[0, 23]),
   midi.PitchWheelEvent(tick=1, channel=2, data=[96, 22]),
   midi.PitchWheelEvent(tick=2, channel=2, data=[64, 22]),
   midi.PitchWheelEvent(tick=1, channel=2, data=[32, 22]),
   midi.PitchWheelEvent(tick=2, channel=2, data=[0, 22]),
   midi.PitchWheelEvent(tick=1, channel=2, data=[96, 21]),
   midi.PitchWheelEvent(tick=2, channel=2, data=[64, 21]),
   midi.PitchWheelEvent(tick=1, channel=2, data=[32, 21]),
   midi.PitchWheelEvent(tick=2, channel=2, data=[0, 21]),
   midi.PitchWheelEvent(tick=1, channel=2, data=[96, 20]),
   midi.PitchWheelEvent(tick=2, channel=2, data=[64, 20]),
   midi.PitchWheelEvent(tick=1, channel=2, data=[32, 20]),
   midi.PitchWheelEvent(tick=2, channel=2, data=[0, 20]),
   midi.PitchWheelEvent(tick=1, channel=2, data=[96, 19]),
   midi.PitchWheelEvent(tick=2, channel=2, data=[64, 19]),
   midi.PitchWheelEvent(tick=1, channel=2, data=[32, 19]),
   midi.PitchWheelEvent(tick=2, channel=2, data=[0, 19]),
   midi.PitchWheelEvent(tick=1, channel=2, data=[96, 18]),
   midi.PitchWheelEvent(tick=2, channel=2, data=[64, 18]),
   midi.PitchWheelEvent(tick=1, channel=2, data=[32, 18]),
   midi.PitchWheelEvent(tick=2, channel=2, data=[0, 18]),
   midi.PitchWheelEvent(tick=1, channel=2, data=[96, 17]),
   midi.PitchWheelEvent(tick=2, channel=2, data=[64, 17]),
   midi.PitchWheelEvent(tick=1, channel=2, data=[32, 17]),
   midi.PitchWheelEvent(tick=2, channel=2, data=[0, 17]),
   midi.PitchWheelEvent(tick=1, channel=2, data=[96, 16]),
   midi.PitchWheelEvent(tick=2, channel=2, data=[64, 16]),
   midi.PitchWheelEvent(tick=1, channel=2, data=[32, 16]),
   midi.PitchWheelEvent(tick=2, channel=2, data=[0, 16]),
   midi.PitchWheelEvent(tick=1, channel=2, data=[96, 15]),
   midi.PitchWheelEvent(tick=2, channel=2, data=[64, 15]),
   midi.PitchWheelEvent(tick=1, channel=2, data=[32, 15]),
   midi.PitchWheelEvent(tick=2, channel=2, data=[0, 15]),
   midi.PitchWheelEvent(tick=1, channel=2, data=[96, 14]),
   midi.PitchWheelEvent(tick=2, channel=2, data=[64, 14]),
   midi.PitchWheelEvent(tick=1, channel=2, data=[32, 14]),
   midi.PitchWheelEvent(tick=2, channel=2, data=[0, 14]),
   midi.PitchWheelEvent(tick=1, channel=2, data=[96, 13]),
   midi.PitchWheelEvent(tick=2, channel=2, data=[64, 13]),
   midi.PitchWheelEvent(tick=1, channel=2, data=[32, 13]),
   midi.PitchWheelEvent(tick=2, channel=2, data=[0, 13]),
   midi.PitchWheelEvent(tick=1, channel=2, data=[96, 12]),
   midi.PitchWheelEvent(tick=2, channel=2, data=[64, 12]),
   midi.PitchWheelEvent(tick=1, channel=2, data=[32, 12]),
   midi.PitchWheelEvent(tick=2, channel=2, data=[0, 12]),
   midi.PitchWheelEvent(tick=1, channel=2, data=[96, 11]),
   midi.PitchWheelEvent(tick=2, channel=2, data=[64, 11]),
   midi.PitchWheelEvent(tick=1, channel=2, data=[32, 11]),
   midi.PitchWheelEvent(tick=2, channel=2, data=[0, 11]),
   midi.PitchWheelEvent(tick=1, channel=2, data=[96, 10]),
   midi.PitchWheelEvent(tick=2, channel=2, data=[64, 10]),
   midi.PitchWheelEvent(tick=1, channel=2, data=[32, 10]),
   midi.PitchWheelEvent(tick=2, channel=2, data=[0, 10]),
   midi.PitchWheelEvent(tick=1, channel=2, data=[96, 9]),
   midi.PitchWheelEvent(tick=2, channel=2, data=[64, 9]),
   midi.PitchWheelEvent(tick=1, channel=2, data=[32, 9]),
   midi.PitchWheelEvent(tick=2, channel=2, data=[0, 9]),
   midi.PitchWheelEvent(tick=1, channel=2, data=[96, 8]),
   midi.PitchWheelEvent(tick=2, channel=2, data=[64, 8]),
   midi.PitchWheelEvent(tick=1, channel=2, data=[32, 8]),
   midi.PitchWheelEvent(tick=2, channel=2, data=[0, 8]),
   midi.PitchWheelEvent(tick=1, channel=2, data=[96, 7]),
   midi.PitchWheelEvent(tick=2, channel=2, data=[64, 7]),
   midi.PitchWheelEvent(tick=1, channel=2, data=[32, 7]),
   midi.PitchWheelEvent(tick=2, channel=2, data=[0, 7]),
   midi.PitchWheelEvent(tick=1, channel=2, data=[96, 6]),
   midi.PitchWheelEvent(tick=2, channel=2, data=[64, 6]),
   midi.PitchWheelEvent(tick=1, channel=2, data=[32, 6]),
   midi.PitchWheelEvent(tick=2, channel=2, data=[0, 6]),
   midi.PitchWheelEvent(tick=1, channel=2, data=[96, 5]),
   midi.PitchWheelEvent(tick=2, channel=2, data=[64, 5]),
   midi.PitchWheelEvent(tick=1, channel=2, data=[32, 5]),
   midi.PitchWheelEvent(tick=2, channel=2, data=[0, 5]),
   midi.PitchWheelEvent(tick=1, channel=2, data=[96, 4]),
   midi.PitchWheelEvent(tick=2, channel=2, data=[64, 4]),
   midi.PitchWheelEvent(tick=1, channel=2, data=[32, 4]),
   midi.PitchWheelEvent(tick=2, channel=2, data=[0, 4]),
   midi.PitchWheelEvent(tick=1, channel=2, data=[96, 3]),
   midi.PitchWheelEvent(tick=2, channel=2, data=[64, 3]),
   midi.PitchWheelEvent(tick=1, channel=2, data=[32, 3]),
   midi.PitchWheelEvent(tick=2, channel=2, data=[0, 3]),
   midi.PitchWheelEvent(tick=1, channel=2, data=[96, 2]),
   midi.PitchWheelEvent(tick=2, channel=2, data=[64, 2]),
   midi.PitchWheelEvent(tick=1, channel=2, data=[32, 2]),
   midi.PitchWheelEvent(tick=2, channel=2, data=[0, 2]),
   midi.PitchWheelEvent(tick=1, channel=2, data=[96, 1]),
   midi.PitchWheelEvent(tick=2, channel=2, data=[64, 1]),
   midi.PitchWheelEvent(tick=1, channel=2, data=[32, 1]),
   midi.PitchWheelEvent(tick=2, channel=2, data=[0, 1]),
   midi.PitchWheelEvent(tick=1, channel=2, data=[96, 0]),
   midi.PitchWheelEvent(tick=2, channel=2, data=[64, 0]),
   midi.PitchWheelEvent(tick=1, channel=2, data=[32, 0]),
   midi.PitchWheelEvent(tick=2, channel=2, data=[0, 0]),
   midi.NoteOnEvent(tick=160, channel=2, data=[71, 0]),
   midi.PitchWheelEvent(tick=32, channel=2, data=[0, 64]),
   midi.NoteOnEvent(tick=0, channel=2, data=[59, 110]),
   midi.NoteOnEvent(tick=0, channel=2, data=[66, 110]),
   midi.NoteOnEvent(tick=0, channel=2, data=[71, 110]),
   midi.NoteOnEvent(tick=126, channel=2, data=[59, 0]),
   midi.NoteOnEvent(tick=0, channel=2, data=[66, 0]),
   midi.NoteOnEvent(tick=0, channel=2, data=[71, 0]),
   midi.NoteOnEvent(tick=2, channel=2, data=[58, 110]),
   midi.NoteOnEvent(tick=0, channel=2, data=[65, 110]),
   midi.NoteOnEvent(tick=0, channel=2, data=[70, 110]),
   midi.NoteOnEvent(tick=126, channel=2, data=[58, 0]),
   midi.NoteOnEvent(tick=0, channel=2, data=[65, 0]),
   midi.NoteOnEvent(tick=0, channel=2, data=[70, 0]),
   midi.NoteOnEvent(tick=2, channel=2, data=[59, 110]),
   midi.NoteOnEvent(tick=0, channel=2, data=[66, 110]),
   midi.NoteOnEvent(tick=0, channel=2, data=[71, 110]),
   midi.NoteOnEvent(tick=126, channel=2, data=[59, 0]),
   midi.NoteOnEvent(tick=0, channel=2, data=[66, 0]),
   midi.NoteOnEvent(tick=0, channel=2, data=[71, 0]),
   midi.NoteOnEvent(tick=2, channel=2, data=[60, 110]),
   midi.NoteOnEvent(tick=0, channel=2, data=[67, 110]),
   midi.NoteOnEvent(tick=0, channel=2, data=[72, 110]),
   midi.NoteOnEvent(tick=160, channel=2, data=[60, 0]),
   midi.NoteOnEvent(tick=0, channel=2, data=[67, 0]),
   midi.NoteOnEvent(tick=0, channel=2, data=[72, 0]),
   midi.NoteOnEvent(tick=32, channel=2, data=[59, 110]),
   midi.NoteOnEvent(tick=0, channel=2, data=[66, 110]),
   midi.NoteOnEvent(tick=0, channel=2, data=[71, 110]),
   midi.NoteOnEvent(tick=160, channel=2, data=[59, 0]),
   midi.NoteOnEvent(tick=0, channel=2, data=[66, 0]),
   midi.NoteOnEvent(tick=0, channel=2, data=[71, 0]),
   midi.NoteOnEvent(tick=32, channel=2, data=[52, 110]),
   midi.NoteOnEvent(tick=0, channel=2, data=[64, 110]),
   midi.NoteOnEvent(tick=0, channel=2, data=[71, 110]),
   midi.NoteOnEvent(tick=0, channel=2, data=[76, 110]),
   midi.NoteOnEvent(tick=94, channel=2, data=[52, 0]),
   midi.NoteOnEvent(tick=0, channel=2, data=[64, 0]),
   midi.NoteOnEvent(tick=0, channel=2, data=[71, 0]),
   midi.NoteOnEvent(tick=0, channel=2, data=[76, 0]),
   midi.NoteOnEvent(tick=2, channel=2, data=[52, 110]),
   midi.NoteOnEvent(tick=46, channel=2, data=[52, 0]),
   midi.NoteOnEvent(tick=2, channel=2, data=[52, 110]),
   midi.NoteOnEvent(tick=46, channel=2, data=[52, 0]),
   midi.NoteOnEvent(tick=2, channel=2, data=[52, 110]),
   midi.NoteOnEvent(tick=94, channel=2, data=[52, 0]),
   midi.NoteOnEvent(tick=2, channel=2, data=[52, 110]),
   midi.NoteOnEvent(tick=94, channel=2, data=[52, 0]),
   midi.NoteOnEvent(tick=2, channel=2, data=[52, 110]),
   midi.NoteOnEvent(tick=94, channel=2, data=[52, 0]),
   midi.NoteOnEvent(tick=2, channel=2, data=[52, 110]),
   midi.NoteOnEvent(tick=94, channel=2, data=[52, 0]),
   midi.NoteOnEvent(tick=2, channel=2, data=[52, 110]),
   midi.NoteOnEvent(tick=94, channel=2, data=[52, 0]),
   midi.NoteOnEvent(tick=2, channel=2, data=[55, 110]),
   midi.NoteOnEvent(tick=0, channel=2, data=[62, 110]),
   midi.NoteOnEvent(tick=0, channel=2, data=[67, 110]),
   midi.NoteOnEvent(tick=574, channel=2, data=[55, 0]),
   midi.NoteOnEvent(tick=0, channel=2, data=[62, 0]),
   midi.NoteOnEvent(tick=0, channel=2, data=[67, 0]),
   midi.NoteOnEvent(tick=2, channel=2, data=[58, 110]),
   midi.NoteOnEvent(tick=0, channel=2, data=[65, 110]),
   midi.NoteOnEvent(tick=0, channel=2, data=[70, 110]),
   midi.NoteOnEvent(tick=160, channel=2, data=[58, 0]),
   midi.NoteOnEvent(tick=0, channel=2, data=[65, 0]),
   midi.NoteOnEvent(tick=0, channel=2, data=[70, 0]),
   midi.NoteOnEvent(tick=32, channel=2, data=[54, 110]),
   midi.NoteOnEvent(tick=0, channel=2, data=[61, 110]),
   midi.NoteOnEvent(tick=0, channel=2, data=[66, 110]),
   midi.NoteOnEvent(tick=574, channel=2, data=[54, 0]),
   midi.NoteOnEvent(tick=0, channel=2, data=[61, 0]),
   midi.NoteOnEvent(tick=0, channel=2, data=[66, 0]),
   midi.NoteOnEvent(tick=2, channel=2, data=[57, 110]),
   midi.NoteOnEvent(tick=0, channel=2, data=[64, 110]),
   midi.NoteOnEvent(tick=0, channel=2, data=[69, 110]),
   midi.NoteOnEvent(tick=160, channel=2, data=[57, 0]),
   midi.NoteOnEvent(tick=0, channel=2, data=[64, 0]),
   midi.NoteOnEvent(tick=0, channel=2, data=[69, 0]),
   midi.NoteOnEvent(tick=32, channel=2, data=[53, 110]),
   midi.NoteOnEvent(tick=0, channel=2, data=[60, 110]),
   midi.NoteOnEvent(tick=0, channel=2, data=[65, 110]),
   midi.NoteOnEvent(tick=574, channel=2, data=[53, 0]),
   midi.NoteOnEvent(tick=0, channel=2, data=[60, 0]),
   midi.NoteOnEvent(tick=0, channel=2, data=[65, 0]),
   midi.NoteOnEvent(tick=2, channel=2, data=[55, 110]),
   midi.NoteOnEvent(tick=0, channel=2, data=[62, 110]),
   midi.NoteOnEvent(tick=0, channel=2, data=[67, 110]),
   midi.NoteOnEvent(tick=256, channel=2, data=[55, 0]),
   midi.NoteOnEvent(tick=0, channel=2, data=[62, 0]),
   midi.NoteOnEvent(tick=0, channel=2, data=[67, 0]),
   midi.NoteOnEvent(tick=32, channel=2, data=[52, 110]),
   midi.NoteOnEvent(tick=94, channel=2, data=[52, 0]),
   midi.NoteOnEvent(tick=2, channel=2, data=[52, 110]),
   midi.NoteOnEvent(tick=46, channel=2, data=[52, 0]),
   midi.NoteOnEvent(tick=2, channel=2, data=[52, 110]),
   midi.NoteOnEvent(tick=46, channel=2, data=[52, 0]),
   midi.NoteOnEvent(tick=2, channel=2, data=[52, 110]),
   midi.NoteOnEvent(tick=94, channel=2, data=[52, 0]),
   midi.NoteOnEvent(tick=2, channel=2, data=[52, 110]),
   midi.NoteOnEvent(tick=94, channel=2, data=[52, 0]),
   midi.NoteOnEvent(tick=2, channel=2, data=[52, 110]),
   midi.NoteOnEvent(tick=94, channel=2, data=[52, 0]),
   midi.NoteOnEvent(tick=2, channel=2, data=[52, 110]),
   midi.NoteOnEvent(tick=94, channel=2, data=[52, 0]),
   midi.NoteOnEvent(tick=2, channel=2, data=[52, 110]),
   midi.NoteOnEvent(tick=94, channel=2, data=[52, 0]),
   midi.NoteOnEvent(tick=2, channel=2, data=[55, 110]),
   midi.NoteOnEvent(tick=0, channel=2, data=[62, 110]),
   midi.NoteOnEvent(tick=0, channel=2, data=[67, 110]),
   midi.NoteOnEvent(tick=574, channel=2, data=[55, 0]),
   midi.NoteOnEvent(tick=0, channel=2, data=[62, 0]),
   midi.NoteOnEvent(tick=0, channel=2, data=[67, 0]),
   midi.NoteOnEvent(tick=2, channel=2, data=[58, 110]),
   midi.NoteOnEvent(tick=0, channel=2, data=[65, 110]),
   midi.NoteOnEvent(tick=0, channel=2, data=[70, 110]),
   midi.NoteOnEvent(tick=160, channel=2, data=[58, 0]),
   midi.NoteOnEvent(tick=0, channel=2, data=[65, 0]),
   midi.NoteOnEvent(tick=0, channel=2, data=[70, 0]),
   midi.NoteOnEvent(tick=32, channel=2, data=[54, 110]),
   midi.NoteOnEvent(tick=0, channel=2, data=[61, 110]),
   midi.NoteOnEvent(tick=0, channel=2, data=[66, 110]),
   midi.NoteOnEvent(tick=574, channel=2, data=[54, 0]),
   midi.NoteOnEvent(tick=0, channel=2, data=[61, 0]),
   midi.NoteOnEvent(tick=0, channel=2, data=[66, 0]),
   midi.NoteOnEvent(tick=2, channel=2, data=[57, 110]),
   midi.NoteOnEvent(tick=0, channel=2, data=[64, 110]),
   midi.NoteOnEvent(tick=0, channel=2, data=[69, 110]),
   midi.NoteOnEvent(tick=160, channel=2, data=[57, 0]),
   midi.NoteOnEvent(tick=0, channel=2, data=[64, 0]),
   midi.NoteOnEvent(tick=0, channel=2, data=[69, 0]),
   midi.NoteOnEvent(tick=32, channel=2, data=[53, 110]),
   midi.NoteOnEvent(tick=0, channel=2, data=[60, 110]),
   midi.NoteOnEvent(tick=0, channel=2, data=[65, 110]),
   midi.NoteOnEvent(tick=574, channel=2, data=[53, 0]),
   midi.NoteOnEvent(tick=0, channel=2, data=[60, 0]),
   midi.NoteOnEvent(tick=0, channel=2, data=[65, 0]),
   midi.NoteOnEvent(tick=2, channel=2, data=[55, 110]),
   midi.NoteOnEvent(tick=0, channel=2, data=[62, 110]),
   midi.NoteOnEvent(tick=0, channel=2, data=[67, 110]),
   midi.NoteOnEvent(tick=256, channel=2, data=[55, 0]),
   midi.NoteOnEvent(tick=0, channel=2, data=[62, 0]),
   midi.NoteOnEvent(tick=0, channel=2, data=[67, 0]),
   midi.NoteOnEvent(tick=32, channel=2, data=[52, 110]),
   midi.NoteOnEvent(tick=94, channel=2, data=[52, 0]),
   midi.NoteOnEvent(tick=2, channel=2, data=[52, 110]),
   midi.NoteOnEvent(tick=46, channel=2, data=[52, 0]),
   midi.NoteOnEvent(tick=2, channel=2, data=[52, 110]),
   midi.NoteOnEvent(tick=46, channel=2, data=[52, 0]),
   midi.NoteOnEvent(tick=2, channel=2, data=[52, 110]),
   midi.NoteOnEvent(tick=94, channel=2, data=[52, 0]),
   midi.NoteOnEvent(tick=2, channel=2, data=[52, 110]),
   midi.NoteOnEvent(tick=94, channel=2, data=[52, 0]),
   midi.NoteOnEvent(tick=2, channel=2, data=[52, 110]),
   midi.NoteOnEvent(tick=94, channel=2, data=[52, 0]),
   midi.NoteOnEvent(tick=2, channel=2, data=[52, 110]),
   midi.NoteOnEvent(tick=94, channel=2, data=[52, 0]),
   midi.NoteOnEvent(tick=2, channel=2, data=[52, 110]),
   midi.NoteOnEvent(tick=94, channel=2, data=[52, 0]),
   midi.NoteOnEvent(tick=2, channel=2, data=[55, 110]),
   midi.NoteOnEvent(tick=0, channel=2, data=[62, 110]),
   midi.NoteOnEvent(tick=0, channel=2, data=[67, 110]),
   midi.NoteOnEvent(tick=574, channel=2, data=[55, 0]),
   midi.NoteOnEvent(tick=0, channel=2, data=[62, 0]),
   midi.NoteOnEvent(tick=0, channel=2, data=[67, 0]),
   midi.NoteOnEvent(tick=2, channel=2, data=[58, 110]),
   midi.NoteOnEvent(tick=0, channel=2, data=[65, 110]),
   midi.NoteOnEvent(tick=0, channel=2, data=[70, 110]),
   midi.NoteOnEvent(tick=160, channel=2, data=[58, 0]),
   midi.NoteOnEvent(tick=0, channel=2, data=[65, 0]),
   midi.NoteOnEvent(tick=0, channel=2, data=[70, 0]),
   midi.NoteOnEvent(tick=32, channel=2, data=[54, 110]),
   midi.NoteOnEvent(tick=0, channel=2, data=[61, 110]),
   midi.NoteOnEvent(tick=0, channel=2, data=[66, 110]),
   midi.NoteOnEvent(tick=574, channel=2, data=[54, 0]),
   midi.NoteOnEvent(tick=0, channel=2, data=[61, 0]),
   midi.NoteOnEvent(tick=0, channel=2, data=[66, 0]),
   midi.NoteOnEvent(tick=2, channel=2, data=[57, 110]),
   midi.NoteOnEvent(tick=0, channel=2, data=[64, 110]),
   midi.NoteOnEvent(tick=0, channel=2, data=[69, 110]),
   midi.NoteOnEvent(tick=160, channel=2, data=[57, 0]),
   midi.NoteOnEvent(tick=0, channel=2, data=[64, 0]),
   midi.NoteOnEvent(tick=0, channel=2, data=[69, 0]),
   midi.NoteOnEvent(tick=32, channel=2, data=[53, 110]),
   midi.NoteOnEvent(tick=0, channel=2, data=[60, 110]),
   midi.NoteOnEvent(tick=0, channel=2, data=[65, 110]),
   midi.NoteOnEvent(tick=574, channel=2, data=[53, 0]),
   midi.NoteOnEvent(tick=0, channel=2, data=[60, 0]),
   midi.NoteOnEvent(tick=0, channel=2, data=[65, 0]),
   midi.NoteOnEvent(tick=2, channel=2, data=[55, 110]),
   midi.NoteOnEvent(tick=0, channel=2, data=[62, 110]),
   midi.NoteOnEvent(tick=0, channel=2, data=[67, 110]),
   midi.NoteOnEvent(tick=256, channel=2, data=[55, 0]),
   midi.NoteOnEvent(tick=0, channel=2, data=[62, 0]),
   midi.NoteOnEvent(tick=0, channel=2, data=[67, 0]),
   midi.NoteOnEvent(tick=32, channel=2, data=[52, 110]),
   midi.NoteOnEvent(tick=94, channel=2, data=[52, 0]),
   midi.NoteOnEvent(tick=2, channel=2, data=[52, 110]),
   midi.NoteOnEvent(tick=46, channel=2, data=[52, 0]),
   midi.NoteOnEvent(tick=2, channel=2, data=[52, 110]),
   midi.NoteOnEvent(tick=46, channel=2, data=[52, 0]),
   midi.NoteOnEvent(tick=2, channel=2, data=[52, 110]),
   midi.NoteOnEvent(tick=94, channel=2, data=[52, 0]),
   midi.NoteOnEvent(tick=2, channel=2, data=[52, 110]),
   midi.NoteOnEvent(tick=94, channel=2, data=[52, 0]),
   midi.NoteOnEvent(tick=2, channel=2, data=[52, 110]),
   midi.NoteOnEvent(tick=94, channel=2, data=[52, 0]),
   midi.NoteOnEvent(tick=2, channel=2, data=[52, 110]),
   midi.NoteOnEvent(tick=94, channel=2, data=[52, 0]),
   midi.NoteOnEvent(tick=2, channel=2, data=[52, 110]),
   midi.NoteOnEvent(tick=94, channel=2, data=[52, 0]),
   midi.NoteOnEvent(tick=2, channel=2, data=[55, 110]),
   midi.NoteOnEvent(tick=0, channel=2, data=[62, 110]),
   midi.NoteOnEvent(tick=0, channel=2, data=[67, 110]),
   midi.NoteOnEvent(tick=574, channel=2, data=[55, 0]),
   midi.NoteOnEvent(tick=0, channel=2, data=[62, 0]),
   midi.NoteOnEvent(tick=0, channel=2, data=[67, 0]),
   midi.NoteOnEvent(tick=2, channel=2, data=[58, 110]),
   midi.NoteOnEvent(tick=0, channel=2, data=[65, 110]),
   midi.NoteOnEvent(tick=0, channel=2, data=[70, 110]),
   midi.NoteOnEvent(tick=160, channel=2, data=[58, 0]),
   midi.NoteOnEvent(tick=0, channel=2, data=[65, 0]),
   midi.NoteOnEvent(tick=0, channel=2, data=[70, 0]),
   midi.NoteOnEvent(tick=32, channel=2, data=[54, 110]),
   midi.NoteOnEvent(tick=0, channel=2, data=[61, 110]),
   midi.NoteOnEvent(tick=0, channel=2, data=[66, 110]),
   midi.NoteOnEvent(tick=574, channel=2, data=[54, 0]),
   midi.NoteOnEvent(tick=0, channel=2, data=[61, 0]),
   midi.NoteOnEvent(tick=0, channel=2, data=[66, 0]),
   midi.NoteOnEvent(tick=2, channel=2, data=[57, 110]),
   midi.NoteOnEvent(tick=0, channel=2, data=[64, 110]),
   midi.NoteOnEvent(tick=0, channel=2, data=[69, 110]),
   midi.NoteOnEvent(tick=160, channel=2, data=[57, 0]),
   midi.NoteOnEvent(tick=0, channel=2, data=[64, 0]),
   midi.NoteOnEvent(tick=0, channel=2, data=[69, 0]),
   midi.NoteOnEvent(tick=32, channel=2, data=[53, 110]),
   midi.NoteOnEvent(tick=0, channel=2, data=[60, 110]),
   midi.NoteOnEvent(tick=0, channel=2, data=[65, 110]),
   midi.NoteOnEvent(tick=574, channel=2, data=[53, 0]),
   midi.NoteOnEvent(tick=0, channel=2, data=[60, 0]),
   midi.NoteOnEvent(tick=0, channel=2, data=[65, 0]),
   midi.NoteOnEvent(tick=2, channel=2, data=[55, 110]),
   midi.NoteOnEvent(tick=0, channel=2, data=[62, 110]),
   midi.NoteOnEvent(tick=0, channel=2, data=[67, 110]),
   midi.NoteOnEvent(tick=256, channel=2, data=[55, 0]),
   midi.NoteOnEvent(tick=0, channel=2, data=[62, 0]),
   midi.NoteOnEvent(tick=0, channel=2, data=[67, 0]),
   midi.NoteOnEvent(tick=32, channel=2, data=[52, 110]),
   midi.NoteOnEvent(tick=94, channel=2, data=[52, 0]),
   midi.NoteOnEvent(tick=2, channel=2, data=[52, 110]),
   midi.NoteOnEvent(tick=46, channel=2, data=[52, 0]),
   midi.NoteOnEvent(tick=2, channel=2, data=[52, 110]),
   midi.NoteOnEvent(tick=46, channel=2, data=[52, 0]),
   midi.NoteOnEvent(tick=2, channel=2, data=[52, 110]),
   midi.NoteOnEvent(tick=94, channel=2, data=[52, 0]),
   midi.NoteOnEvent(tick=2, channel=2, data=[52, 110]),
   midi.NoteOnEvent(tick=94, channel=2, data=[52, 0]),
   midi.NoteOnEvent(tick=2, channel=2, data=[52, 110]),
   midi.NoteOnEvent(tick=94, channel=2, data=[52, 0]),
   midi.NoteOnEvent(tick=2, channel=2, data=[52, 110]),
   midi.NoteOnEvent(tick=94, channel=2, data=[52, 0]),
   midi.NoteOnEvent(tick=2, channel=2, data=[52, 110]),
   midi.NoteOnEvent(tick=94, channel=2, data=[52, 0]),
   midi.NoteOnEvent(tick=2, channel=2, data=[55, 110]),
   midi.NoteOnEvent(tick=0, channel=2, data=[62, 110]),
   midi.NoteOnEvent(tick=0, channel=2, data=[67, 110]),
   midi.NoteOnEvent(tick=574, channel=2, data=[55, 0]),
   midi.NoteOnEvent(tick=0, channel=2, data=[62, 0]),
   midi.NoteOnEvent(tick=0, channel=2, data=[67, 0]),
   midi.NoteOnEvent(tick=2, channel=2, data=[58, 110]),
   midi.NoteOnEvent(tick=0, channel=2, data=[65, 110]),
   midi.NoteOnEvent(tick=0, channel=2, data=[70, 110]),
   midi.NoteOnEvent(tick=160, channel=2, data=[58, 0]),
   midi.NoteOnEvent(tick=0, channel=2, data=[65, 0]),
   midi.NoteOnEvent(tick=0, channel=2, data=[70, 0]),
   midi.NoteOnEvent(tick=32, channel=2, data=[54, 110]),
   midi.NoteOnEvent(tick=0, channel=2, data=[61, 110]),
   midi.NoteOnEvent(tick=0, channel=2, data=[66, 110]),
   midi.NoteOnEvent(tick=574, channel=2, data=[54, 0]),
   midi.NoteOnEvent(tick=0, channel=2, data=[61, 0]),
   midi.NoteOnEvent(tick=0, channel=2, data=[66, 0]),
   midi.NoteOnEvent(tick=2, channel=2, data=[57, 110]),
   midi.NoteOnEvent(tick=0, channel=2, data=[64, 110]),
   midi.NoteOnEvent(tick=0, channel=2, data=[69, 110]),
   midi.NoteOnEvent(tick=160, channel=2, data=[57, 0]),
   midi.NoteOnEvent(tick=0, channel=2, data=[64, 0]),
   midi.NoteOnEvent(tick=0, channel=2, data=[69, 0]),
   midi.NoteOnEvent(tick=32, channel=2, data=[53, 110]),
   midi.NoteOnEvent(tick=0, channel=2, data=[60, 110]),
   midi.NoteOnEvent(tick=0, channel=2, data=[65, 110]),
   midi.NoteOnEvent(tick=574, channel=2, data=[53, 0]),
   midi.NoteOnEvent(tick=0, channel=2, data=[60, 0]),
   midi.NoteOnEvent(tick=0, channel=2, data=[65, 0]),
   midi.NoteOnEvent(tick=2, channel=2, data=[55, 110]),
   midi.NoteOnEvent(tick=0, channel=2, data=[62, 110]),
   midi.NoteOnEvent(tick=0, channel=2, data=[67, 110]),
   midi.NoteOnEvent(tick=256, channel=2, data=[55, 0]),
   midi.NoteOnEvent(tick=0, channel=2, data=[62, 0]),
   midi.NoteOnEvent(tick=0, channel=2, data=[67, 0]),
   midi.NoteOnEvent(tick=32, channel=2, data=[52, 110]),
   midi.NoteOnEvent(tick=94, channel=2, data=[52, 0]),
   midi.NoteOnEvent(tick=2, channel=2, data=[52, 110]),
   midi.NoteOnEvent(tick=46, channel=2, data=[52, 0]),
   midi.NoteOnEvent(tick=2, channel=2, data=[52, 110]),
   midi.NoteOnEvent(tick=46, channel=2, data=[52, 0]),
   midi.NoteOnEvent(tick=2, channel=2, data=[52, 110]),
   midi.NoteOnEvent(tick=94, channel=2, data=[52, 0]),
   midi.NoteOnEvent(tick=2, channel=2, data=[52, 110]),
   midi.NoteOnEvent(tick=94, channel=2, data=[52, 0]),
   midi.NoteOnEvent(tick=2, channel=2, data=[52, 110]),
   midi.NoteOnEvent(tick=94, channel=2, data=[52, 0]),
   midi.NoteOnEvent(tick=2, channel=2, data=[52, 110]),
   midi.NoteOnEvent(tick=94, channel=2, data=[52, 0]),
   midi.NoteOnEvent(tick=2, channel=2, data=[52, 110]),
   midi.NoteOnEvent(tick=94, channel=2, data=[52, 0]),
   midi.NoteOnEvent(tick=2, channel=2, data=[55, 110]),
   midi.NoteOnEvent(tick=0, channel=2, data=[62, 110]),
   midi.NoteOnEvent(tick=0, channel=2, data=[67, 110]),
   midi.NoteOnEvent(tick=574, channel=2, data=[55, 0]),
   midi.NoteOnEvent(tick=0, channel=2, data=[62, 0]),
   midi.NoteOnEvent(tick=0, channel=2, data=[67, 0]),
   midi.NoteOnEvent(tick=2, channel=2, data=[58, 110]),
   midi.NoteOnEvent(tick=0, channel=2, data=[65, 110]),
   midi.NoteOnEvent(tick=0, channel=2, data=[70, 110]),
   midi.NoteOnEvent(tick=160, channel=2, data=[58, 0]),
   midi.NoteOnEvent(tick=0, channel=2, data=[65, 0]),
   midi.NoteOnEvent(tick=0, channel=2, data=[70, 0]),
   midi.NoteOnEvent(tick=32, channel=2, data=[54, 110]),
   midi.NoteOnEvent(tick=0, channel=2, data=[61, 110]),
   midi.NoteOnEvent(tick=0, channel=2, data=[66, 110]),
   midi.NoteOnEvent(tick=574, channel=2, data=[54, 0]),
   midi.NoteOnEvent(tick=0, channel=2, data=[61, 0]),
   midi.NoteOnEvent(tick=0, channel=2, data=[66, 0]),
   midi.NoteOnEvent(tick=2, channel=2, data=[57, 110]),
   midi.NoteOnEvent(tick=0, channel=2, data=[64, 110]),
   midi.NoteOnEvent(tick=0, channel=2, data=[69, 110]),
   midi.NoteOnEvent(tick=160, channel=2, data=[57, 0]),
   midi.NoteOnEvent(tick=0, channel=2, data=[64, 0]),
   midi.NoteOnEvent(tick=0, channel=2, data=[69, 0]),
   midi.NoteOnEvent(tick=32, channel=2, data=[53, 110]),
   midi.NoteOnEvent(tick=0, channel=2, data=[60, 110]),
   midi.NoteOnEvent(tick=0, channel=2, data=[65, 110]),
   midi.NoteOnEvent(tick=574, channel=2, data=[53, 0]),
   midi.NoteOnEvent(tick=0, channel=2, data=[60, 0]),
   midi.NoteOnEvent(tick=0, channel=2, data=[65, 0]),
   midi.NoteOnEvent(tick=2, channel=2, data=[55, 110]),
   midi.NoteOnEvent(tick=0, channel=2, data=[62, 110]),
   midi.NoteOnEvent(tick=0, channel=2, data=[67, 110]),
   midi.NoteOnEvent(tick=256, channel=2, data=[55, 0]),
   midi.NoteOnEvent(tick=0, channel=2, data=[62, 0]),
   midi.NoteOnEvent(tick=0, channel=2, data=[67, 0]),
   midi.NoteOnEvent(tick=32, channel=2, data=[52, 110]),
   midi.NoteOnEvent(tick=94, channel=2, data=[52, 0]),
   midi.NoteOnEvent(tick=2, channel=2, data=[52, 110]),
   midi.NoteOnEvent(tick=46, channel=2, data=[52, 0]),
   midi.NoteOnEvent(tick=2, channel=2, data=[52, 110]),
   midi.NoteOnEvent(tick=46, channel=2, data=[52, 0]),
   midi.NoteOnEvent(tick=2, channel=2, data=[52, 110]),
   midi.NoteOnEvent(tick=94, channel=2, data=[52, 0]),
   midi.NoteOnEvent(tick=2, channel=2, data=[52, 110]),
   midi.NoteOnEvent(tick=94, channel=2, data=[52, 0]),
   midi.NoteOnEvent(tick=2, channel=2, data=[52, 110]),
   midi.NoteOnEvent(tick=94, channel=2, data=[52, 0]),
   midi.NoteOnEvent(tick=2, channel=2, data=[52, 110]),
   midi.NoteOnEvent(tick=94, channel=2, data=[52, 0]),
   midi.NoteOnEvent(tick=2, channel=2, data=[52, 110]),
   midi.NoteOnEvent(tick=94, channel=2, data=[52, 0]),
   midi.NoteOnEvent(tick=2, channel=2, data=[55, 110]),
   midi.NoteOnEvent(tick=0, channel=2, data=[62, 110]),
   midi.NoteOnEvent(tick=0, channel=2, data=[67, 110]),
   midi.NoteOnEvent(tick=574, channel=2, data=[55, 0]),
   midi.NoteOnEvent(tick=0, channel=2, data=[62, 0]),
   midi.NoteOnEvent(tick=0, channel=2, data=[67, 0]),
   midi.NoteOnEvent(tick=2, channel=2, data=[58, 110]),
   midi.NoteOnEvent(tick=0, channel=2, data=[65, 110]),
   midi.NoteOnEvent(tick=0, channel=2, data=[70, 110]),
   midi.NoteOnEvent(tick=160, channel=2, data=[58, 0]),
   midi.NoteOnEvent(tick=0, channel=2, data=[65, 0]),
   midi.NoteOnEvent(tick=0, channel=2, data=[70, 0]),
   midi.NoteOnEvent(tick=32, channel=2, data=[54, 110]),
   midi.NoteOnEvent(tick=0, channel=2, data=[61, 110]),
   midi.NoteOnEvent(tick=0, channel=2, data=[66, 110]),
   midi.NoteOnEvent(tick=574, channel=2, data=[54, 0]),
   midi.NoteOnEvent(tick=0, channel=2, data=[61, 0]),
   midi.NoteOnEvent(tick=0, channel=2, data=[66, 0]),
   midi.NoteOnEvent(tick=2, channel=2, data=[57, 110]),
   midi.NoteOnEvent(tick=0, channel=2, data=[64, 110]),
   midi.NoteOnEvent(tick=0, channel=2, data=[69, 110]),
   midi.NoteOnEvent(tick=160, channel=2, data=[57, 0]),
   midi.NoteOnEvent(tick=0, channel=2, data=[64, 0]),
   midi.NoteOnEvent(tick=0, channel=2, data=[69, 0]),
   midi.NoteOnEvent(tick=32, channel=2, data=[53, 110]),
   midi.NoteOnEvent(tick=0, channel=2, data=[60, 110]),
   midi.NoteOnEvent(tick=0, channel=2, data=[65, 110]),
   midi.NoteOnEvent(tick=574, channel=2, data=[53, 0]),
   midi.NoteOnEvent(tick=0, channel=2, data=[60, 0]),
   midi.NoteOnEvent(tick=0, channel=2, data=[65, 0]),
   midi.NoteOnEvent(tick=2, channel=2, data=[55, 110]),
   midi.NoteOnEvent(tick=0, channel=2, data=[62, 110]),
   midi.NoteOnEvent(tick=0, channel=2, data=[67, 110]),
   midi.NoteOnEvent(tick=256, channel=2, data=[55, 0]),
   midi.NoteOnEvent(tick=0, channel=2, data=[62, 0]),
   midi.NoteOnEvent(tick=0, channel=2, data=[67, 0]),
   midi.NoteOnEvent(tick=32, channel=2, data=[52, 110]),
   midi.NoteOnEvent(tick=94, channel=2, data=[52, 0]),
   midi.NoteOnEvent(tick=2, channel=2, data=[52, 110]),
   midi.NoteOnEvent(tick=46, channel=2, data=[52, 0]),
   midi.NoteOnEvent(tick=2, channel=2, data=[52, 110]),
   midi.NoteOnEvent(tick=46, channel=2, data=[52, 0]),
   midi.NoteOnEvent(tick=2, channel=2, data=[52, 110]),
   midi.NoteOnEvent(tick=94, channel=2, data=[52, 0]),
   midi.NoteOnEvent(tick=2, channel=2, data=[52, 110]),
   midi.NoteOnEvent(tick=94, channel=2, data=[52, 0]),
   midi.NoteOnEvent(tick=2, channel=2, data=[52, 110]),
   midi.NoteOnEvent(tick=94, channel=2, data=[52, 0]),
   midi.NoteOnEvent(tick=2, channel=2, data=[52, 110]),
   midi.NoteOnEvent(tick=94, channel=2, data=[52, 0]),
   midi.NoteOnEvent(tick=2, channel=2, data=[52, 110]),
   midi.NoteOnEvent(tick=94, channel=2, data=[52, 0]),
   midi.NoteOnEvent(tick=2, channel=2, data=[55, 110]),
   midi.NoteOnEvent(tick=0, channel=2, data=[62, 110]),
   midi.NoteOnEvent(tick=0, channel=2, data=[67, 110]),
   midi.NoteOnEvent(tick=574, channel=2, data=[55, 0]),
   midi.NoteOnEvent(tick=0, channel=2, data=[62, 0]),
   midi.NoteOnEvent(tick=0, channel=2, data=[67, 0]),
   midi.NoteOnEvent(tick=2, channel=2, data=[58, 110]),
   midi.NoteOnEvent(tick=0, channel=2, data=[65, 110]),
   midi.NoteOnEvent(tick=0, channel=2, data=[70, 110]),
   midi.NoteOnEvent(tick=160, channel=2, data=[58, 0]),
   midi.NoteOnEvent(tick=0, channel=2, data=[65, 0]),
   midi.NoteOnEvent(tick=0, channel=2, data=[70, 0]),
   midi.NoteOnEvent(tick=32, channel=2, data=[54, 110]),
   midi.NoteOnEvent(tick=0, channel=2, data=[61, 110]),
   midi.NoteOnEvent(tick=0, channel=2, data=[66, 110]),
   midi.NoteOnEvent(tick=574, channel=2, data=[54, 0]),
   midi.NoteOnEvent(tick=0, channel=2, data=[61, 0]),
   midi.NoteOnEvent(tick=0, channel=2, data=[66, 0]),
   midi.NoteOnEvent(tick=2, channel=2, data=[57, 110]),
   midi.NoteOnEvent(tick=0, channel=2, data=[64, 110]),
   midi.NoteOnEvent(tick=0, channel=2, data=[69, 110]),
   midi.NoteOnEvent(tick=160, channel=2, data=[57, 0]),
   midi.NoteOnEvent(tick=0, channel=2, data=[64, 0]),
   midi.NoteOnEvent(tick=0, channel=2, data=[69, 0]),
   midi.NoteOnEvent(tick=32, channel=2, data=[53, 110]),
   midi.NoteOnEvent(tick=0, channel=2, data=[60, 110]),
   midi.NoteOnEvent(tick=0, channel=2, data=[65, 110]),
   midi.NoteOnEvent(tick=574, channel=2, data=[53, 0]),
   midi.NoteOnEvent(tick=0, channel=2, data=[60, 0]),
   midi.NoteOnEvent(tick=0, channel=2, data=[65, 0]),
   midi.NoteOnEvent(tick=2, channel=2, data=[55, 110]),
   midi.NoteOnEvent(tick=0, channel=2, data=[62, 110]),
   midi.NoteOnEvent(tick=0, channel=2, data=[67, 110]),
   midi.NoteOnEvent(tick=256, channel=2, data=[55, 0]),
   midi.NoteOnEvent(tick=0, channel=2, data=[62, 0]),
   midi.NoteOnEvent(tick=0, channel=2, data=[67, 0]),
   midi.NoteOnEvent(tick=32, channel=2, data=[52, 110]),
   midi.NoteOnEvent(tick=94, channel=2, data=[52, 0]),
   midi.NoteOnEvent(tick=2, channel=2, data=[52, 110]),
   midi.NoteOnEvent(tick=46, channel=2, data=[52, 0]),
   midi.NoteOnEvent(tick=2, channel=2, data=[52, 110]),
   midi.NoteOnEvent(tick=46, channel=2, data=[52, 0]),
   midi.NoteOnEvent(tick=2, channel=2, data=[52, 110]),
   midi.NoteOnEvent(tick=94, channel=2, data=[52, 0]),
   midi.NoteOnEvent(tick=2, channel=2, data=[52, 110]),
   midi.NoteOnEvent(tick=94, channel=2, data=[52, 0]),
   midi.NoteOnEvent(tick=2, channel=2, data=[52, 110]),
   midi.NoteOnEvent(tick=94, channel=2, data=[52, 0]),
   midi.NoteOnEvent(tick=2, channel=2, data=[52, 110]),
   midi.NoteOnEvent(tick=94, channel=2, data=[52, 0]),
   midi.NoteOnEvent(tick=2, channel=2, data=[52, 110]),
   midi.NoteOnEvent(tick=94, channel=2, data=[52, 0]),
   midi.NoteOnEvent(tick=2, channel=2, data=[61, 110]),
   midi.NoteOnEvent(tick=0, channel=2, data=[68, 110]),
   midi.NoteOnEvent(tick=94, channel=2, data=[61, 0]),
   midi.NoteOnEvent(tick=0, channel=2, data=[68, 0]),
   midi.NoteOnEvent(tick=2, channel=2, data=[61, 110]),
   midi.NoteOnEvent(tick=46, channel=2, data=[61, 0]),
   midi.NoteOnEvent(tick=2, channel=2, data=[61, 110]),
   midi.NoteOnEvent(tick=46, channel=2, data=[61, 0]),
   midi.NoteOnEvent(tick=2, channel=2, data=[61, 110]),
   midi.NoteOnEvent(tick=46, channel=2, data=[61, 0]),
   midi.NoteOnEvent(tick=2, channel=2, data=[61, 110]),
   midi.NoteOnEvent(tick=46, channel=2, data=[61, 0]),
   midi.NoteOnEvent(tick=2, channel=2, data=[61, 110]),
   midi.NoteOnEvent(tick=46, channel=2, data=[61, 0]),
   midi.NoteOnEvent(tick=2, channel=2, data=[61, 110]),
   midi.NoteOnEvent(tick=46, channel=2, data=[61, 0]),
   midi.NoteOnEvent(tick=2, channel=2, data=[61, 110]),
   midi.NoteOnEvent(tick=94, channel=2, data=[61, 0]),
   midi.NoteOnEvent(tick=2, channel=2, data=[61, 110]),
   midi.NoteOnEvent(tick=46, channel=2, data=[61, 0]),
   midi.NoteOnEvent(tick=2, channel=2, data=[61, 110]),
   midi.NoteOnEvent(tick=46, channel=2, data=[61, 0]),
   midi.NoteOnEvent(tick=2, channel=2, data=[61, 110]),
   midi.NoteOnEvent(tick=46, channel=2, data=[61, 0]),
   midi.NoteOnEvent(tick=2, channel=2, data=[61, 110]),
   midi.NoteOnEvent(tick=46, channel=2, data=[61, 0]),
   midi.NoteOnEvent(tick=2, channel=2, data=[61, 110]),
   midi.NoteOnEvent(tick=46, channel=2, data=[61, 0]),
   midi.NoteOnEvent(tick=2, channel=2, data=[61, 110]),
   midi.NoteOnEvent(tick=46, channel=2, data=[61, 0]),
   midi.NoteOnEvent(tick=2, channel=2, data=[61, 110]),
   midi.NoteOnEvent(tick=0, channel=2, data=[68, 110]),
   midi.NoteOnEvent(tick=94, channel=2, data=[61, 0]),
   midi.NoteOnEvent(tick=0, channel=2, data=[68, 0]),
   midi.NoteOnEvent(tick=2, channel=2, data=[61, 110]),
   midi.NoteOnEvent(tick=46, channel=2, data=[61, 0]),
   midi.NoteOnEvent(tick=2, channel=2, data=[61, 110]),
   midi.NoteOnEvent(tick=46, channel=2, data=[61, 0]),
   midi.NoteOnEvent(tick=2, channel=2, data=[61, 110]),
   midi.NoteOnEvent(tick=46, channel=2, data=[61, 0]),
   midi.NoteOnEvent(tick=2, channel=2, data=[61, 110]),
   midi.NoteOnEvent(tick=46, channel=2, data=[61, 0]),
   midi.NoteOnEvent(tick=2, channel=2, data=[61, 110]),
   midi.NoteOnEvent(tick=46, channel=2, data=[61, 0]),
   midi.NoteOnEvent(tick=2, channel=2, data=[61, 110]),
   midi.NoteOnEvent(tick=46, channel=2, data=[61, 0]),
   midi.NoteOnEvent(tick=2, channel=2, data=[61, 110]),
   midi.NoteOnEvent(tick=94, channel=2, data=[61, 0]),
   midi.NoteOnEvent(tick=2, channel=2, data=[61, 110]),
   midi.NoteOnEvent(tick=46, channel=2, data=[61, 0]),
   midi.NoteOnEvent(tick=2, channel=2, data=[61, 110]),
   midi.NoteOnEvent(tick=46, channel=2, data=[61, 0]),
   midi.NoteOnEvent(tick=2, channel=2, data=[61, 110]),
   midi.NoteOnEvent(tick=46, channel=2, data=[61, 0]),
   midi.NoteOnEvent(tick=2, channel=2, data=[61, 110]),
   midi.NoteOnEvent(tick=46, channel=2, data=[61, 0]),
   midi.NoteOnEvent(tick=2, channel=2, data=[61, 110]),
   midi.NoteOnEvent(tick=46, channel=2, data=[61, 0]),
   midi.NoteOnEvent(tick=2, channel=2, data=[61, 110]),
   midi.NoteOnEvent(tick=46, channel=2, data=[61, 0]),
   midi.NoteOnEvent(tick=2, channel=2, data=[61, 110]),
   midi.NoteOnEvent(tick=0, channel=2, data=[68, 110]),
   midi.NoteOnEvent(tick=94, channel=2, data=[61, 0]),
   midi.NoteOnEvent(tick=0, channel=2, data=[68, 0]),
   midi.NoteOnEvent(tick=2, channel=2, data=[61, 110]),
   midi.NoteOnEvent(tick=46, channel=2, data=[61, 0]),
   midi.NoteOnEvent(tick=2, channel=2, data=[61, 110]),
   midi.NoteOnEvent(tick=46, channel=2, data=[61, 0]),
   midi.NoteOnEvent(tick=2, channel=2, data=[61, 110]),
   midi.NoteOnEvent(tick=46, channel=2, data=[61, 0]),
   midi.NoteOnEvent(tick=2, channel=2, data=[61, 110]),
   midi.NoteOnEvent(tick=46, channel=2, data=[61, 0]),
   midi.NoteOnEvent(tick=2, channel=2, data=[61, 110]),
   midi.NoteOnEvent(tick=46, channel=2, data=[61, 0]),
   midi.NoteOnEvent(tick=2, channel=2, data=[61, 110]),
   midi.NoteOnEvent(tick=46, channel=2, data=[61, 0]),
   midi.NoteOnEvent(tick=2, channel=2, data=[61, 110]),
   midi.NoteOnEvent(tick=94, channel=2, data=[61, 0]),
   midi.NoteOnEvent(tick=2, channel=2, data=[61, 110]),
   midi.NoteOnEvent(tick=46, channel=2, data=[61, 0]),
   midi.NoteOnEvent(tick=2, channel=2, data=[61, 110]),
   midi.NoteOnEvent(tick=46, channel=2, data=[61, 0]),
   midi.NoteOnEvent(tick=2, channel=2, data=[61, 110]),
   midi.NoteOnEvent(tick=46, channel=2, data=[61, 0]),
   midi.NoteOnEvent(tick=2, channel=2, data=[61, 110]),
   midi.NoteOnEvent(tick=46, channel=2, data=[61, 0]),
   midi.NoteOnEvent(tick=2, channel=2, data=[61, 110]),
   midi.NoteOnEvent(tick=46, channel=2, data=[61, 0]),
   midi.NoteOnEvent(tick=2, channel=2, data=[61, 110]),
   midi.NoteOnEvent(tick=46, channel=2, data=[61, 0]),
   midi.NoteOnEvent(tick=2, channel=2, data=[57, 110]),
   midi.NoteOnEvent(tick=94, channel=2, data=[57, 0]),
   midi.NoteOnEvent(tick=2, channel=2, data=[67, 110]),
   midi.NoteOnEvent(tick=94, channel=2, data=[67, 0]),
   midi.NoteOnEvent(tick=2, channel=2, data=[66, 110]),
   midi.NoteOnEvent(tick=94, channel=2, data=[66, 0]),
   midi.NoteOnEvent(tick=2, channel=2, data=[57, 110]),
   midi.NoteOnEvent(tick=94, channel=2, data=[57, 0]),
   midi.NoteOnEvent(tick=2, channel=2, data=[66, 110]),
   midi.NoteOnEvent(tick=94, channel=2, data=[66, 0]),
   midi.NoteOnEvent(tick=2, channel=2, data=[64, 110]),
   midi.NoteOnEvent(tick=94, channel=2, data=[64, 0]),
   midi.NoteOnEvent(tick=2, channel=2, data=[62, 110]),
   midi.NoteOnEvent(tick=94, channel=2, data=[62, 0]),
   midi.NoteOnEvent(tick=2, channel=2, data=[61, 110]),
   midi.NoteOnEvent(tick=94, channel=2, data=[61, 0]),
   midi.NoteOnEvent(tick=2, channel=2, data=[61, 110]),
   midi.NoteOnEvent(tick=0, channel=2, data=[68, 110]),
   midi.NoteOnEvent(tick=94, channel=2, data=[61, 0]),
   midi.NoteOnEvent(tick=0, channel=2, data=[68, 0]),
   midi.NoteOnEvent(tick=2, channel=2, data=[61, 110]),
   midi.NoteOnEvent(tick=46, channel=2, data=[61, 0]),
   midi.NoteOnEvent(tick=2, channel=2, data=[61, 110]),
   midi.NoteOnEvent(tick=46, channel=2, data=[61, 0]),
   midi.NoteOnEvent(tick=2, channel=2, data=[61, 110]),
   midi.NoteOnEvent(tick=46, channel=2, data=[61, 0]),
   midi.NoteOnEvent(tick=2, channel=2, data=[61, 110]),
   midi.NoteOnEvent(tick=46, channel=2, data=[61, 0]),
   midi.NoteOnEvent(tick=2, channel=2, data=[61, 110]),
   midi.NoteOnEvent(tick=46, channel=2, data=[61, 0]),
   midi.NoteOnEvent(tick=2, channel=2, data=[61, 110]),
   midi.NoteOnEvent(tick=46, channel=2, data=[61, 0]),
   midi.NoteOnEvent(tick=2, channel=2, data=[61, 110]),
   midi.NoteOnEvent(tick=94, channel=2, data=[61, 0]),
   midi.NoteOnEvent(tick=2, channel=2, data=[61, 110]),
   midi.NoteOnEvent(tick=46, channel=2, data=[61, 0]),
   midi.NoteOnEvent(tick=2, channel=2, data=[61, 110]),
   midi.NoteOnEvent(tick=46, channel=2, data=[61, 0]),
   midi.NoteOnEvent(tick=2, channel=2, data=[61, 110]),
   midi.NoteOnEvent(tick=46, channel=2, data=[61, 0]),
   midi.NoteOnEvent(tick=2, channel=2, data=[61, 110]),
   midi.NoteOnEvent(tick=46, channel=2, data=[61, 0]),
   midi.NoteOnEvent(tick=2, channel=2, data=[61, 110]),
   midi.NoteOnEvent(tick=46, channel=2, data=[61, 0]),
   midi.NoteOnEvent(tick=2, channel=2, data=[61, 110]),
   midi.NoteOnEvent(tick=46, channel=2, data=[61, 0]),
   midi.NoteOnEvent(tick=2, channel=2, data=[61, 110]),
   midi.NoteOnEvent(tick=0, channel=2, data=[68, 110]),
   midi.NoteOnEvent(tick=94, channel=2, data=[61, 0]),
   midi.NoteOnEvent(tick=0, channel=2, data=[68, 0]),
   midi.NoteOnEvent(tick=2, channel=2, data=[61, 110]),
   midi.NoteOnEvent(tick=46, channel=2, data=[61, 0]),
   midi.NoteOnEvent(tick=2, channel=2, data=[61, 110]),
   midi.NoteOnEvent(tick=46, channel=2, data=[61, 0]),
   midi.NoteOnEvent(tick=2, channel=2, data=[61, 110]),
   midi.NoteOnEvent(tick=46, channel=2, data=[61, 0]),
   midi.NoteOnEvent(tick=2, channel=2, data=[61, 110]),
   midi.NoteOnEvent(tick=46, channel=2, data=[61, 0]),
   midi.NoteOnEvent(tick=2, channel=2, data=[61, 110]),
   midi.NoteOnEvent(tick=46, channel=2, data=[61, 0]),
   midi.NoteOnEvent(tick=2, channel=2, data=[61, 110]),
   midi.NoteOnEvent(tick=46, channel=2, data=[61, 0]),
   midi.NoteOnEvent(tick=2, channel=2, data=[61, 110]),
   midi.NoteOnEvent(tick=94, channel=2, data=[61, 0]),
   midi.NoteOnEvent(tick=2, channel=2, data=[61, 110]),
   midi.NoteOnEvent(tick=46, channel=2, data=[61, 0]),
   midi.NoteOnEvent(tick=2, channel=2, data=[61, 110]),
   midi.NoteOnEvent(tick=46, channel=2, data=[61, 0]),
   midi.NoteOnEvent(tick=2, channel=2, data=[61, 110]),
   midi.NoteOnEvent(tick=46, channel=2, data=[61, 0]),
   midi.NoteOnEvent(tick=2, channel=2, data=[61, 110]),
   midi.NoteOnEvent(tick=46, channel=2, data=[61, 0]),
   midi.NoteOnEvent(tick=2, channel=2, data=[61, 110]),
   midi.NoteOnEvent(tick=46, channel=2, data=[61, 0]),
   midi.NoteOnEvent(tick=2, channel=2, data=[61, 110]),
   midi.NoteOnEvent(tick=46, channel=2, data=[61, 0]),
   midi.NoteOnEvent(tick=2, channel=2, data=[61, 110]),
   midi.NoteOnEvent(tick=0, channel=2, data=[68, 110]),
   midi.NoteOnEvent(tick=94, channel=2, data=[61, 0]),
   midi.NoteOnEvent(tick=0, channel=2, data=[68, 0]),
   midi.NoteOnEvent(tick=2, channel=2, data=[61, 110]),
   midi.NoteOnEvent(tick=46, channel=2, data=[61, 0]),
   midi.NoteOnEvent(tick=2, channel=2, data=[61, 110]),
   midi.NoteOnEvent(tick=46, channel=2, data=[61, 0]),
   midi.NoteOnEvent(tick=2, channel=2, data=[61, 110]),
   midi.NoteOnEvent(tick=46, channel=2, data=[61, 0]),
   midi.NoteOnEvent(tick=2, channel=2, data=[61, 110]),
   midi.NoteOnEvent(tick=46, channel=2, data=[61, 0]),
   midi.NoteOnEvent(tick=2, channel=2, data=[61, 110]),
   midi.NoteOnEvent(tick=46, channel=2, data=[61, 0]),
   midi.NoteOnEvent(tick=2, channel=2, data=[61, 110]),
   midi.NoteOnEvent(tick=46, channel=2, data=[61, 0]),
   midi.NoteOnEvent(tick=2, channel=2, data=[61, 110]),
   midi.NoteOnEvent(tick=94, channel=2, data=[61, 0]),
   midi.NoteOnEvent(tick=2, channel=2, data=[61, 110]),
   midi.NoteOnEvent(tick=46, channel=2, data=[61, 0]),
   midi.NoteOnEvent(tick=2, channel=2, data=[61, 110]),
   midi.NoteOnEvent(tick=46, channel=2, data=[61, 0]),
   midi.NoteOnEvent(tick=2, channel=2, data=[61, 110]),
   midi.NoteOnEvent(tick=46, channel=2, data=[61, 0]),
   midi.NoteOnEvent(tick=2, channel=2, data=[61, 110]),
   midi.NoteOnEvent(tick=46, channel=2, data=[61, 0]),
   midi.NoteOnEvent(tick=2, channel=2, data=[61, 110]),
   midi.NoteOnEvent(tick=46, channel=2, data=[61, 0]),
   midi.NoteOnEvent(tick=2, channel=2, data=[61, 110]),
   midi.NoteOnEvent(tick=46, channel=2, data=[61, 0]),
   midi.NoteOnEvent(tick=2, channel=2, data=[57, 110]),
   midi.NoteOnEvent(tick=94, channel=2, data=[57, 0]),
   midi.NoteOnEvent(tick=2, channel=2, data=[67, 110]),
   midi.NoteOnEvent(tick=94, channel=2, data=[67, 0]),
   midi.NoteOnEvent(tick=2, channel=2, data=[66, 110]),
   midi.NoteOnEvent(tick=94, channel=2, data=[66, 0]),
   midi.NoteOnEvent(tick=2, channel=2, data=[57, 110]),
   midi.NoteOnEvent(tick=94, channel=2, data=[57, 0]),
   midi.NoteOnEvent(tick=2, channel=2, data=[66, 110]),
   midi.NoteOnEvent(tick=94, channel=2, data=[66, 0]),
   midi.NoteOnEvent(tick=2, channel=2, data=[64, 110]),
   midi.NoteOnEvent(tick=94, channel=2, data=[64, 0]),
   midi.NoteOnEvent(tick=2, channel=2, data=[62, 110]),
   midi.NoteOnEvent(tick=94, channel=2, data=[62, 0]),
   midi.NoteOnEvent(tick=2, channel=2, data=[61, 110]),
   midi.NoteOnEvent(tick=94, channel=2, data=[61, 0]),
   midi.NoteOnEvent(tick=2, channel=2, data=[62, 110]),
   midi.NoteOnEvent(tick=0, channel=2, data=[69, 110]),
   midi.NoteOnEvent(tick=94, channel=2, data=[62, 0]),
   midi.NoteOnEvent(tick=0, channel=2, data=[69, 0]),
   midi.NoteOnEvent(tick=2, channel=2, data=[62, 110]),
   midi.NoteOnEvent(tick=46, channel=2, data=[62, 0]),
   midi.NoteOnEvent(tick=2, channel=2, data=[62, 110]),
   midi.NoteOnEvent(tick=46, channel=2, data=[62, 0]),
   midi.NoteOnEvent(tick=2, channel=2, data=[62, 110]),
   midi.NoteOnEvent(tick=46, channel=2, data=[62, 0]),
   midi.NoteOnEvent(tick=2, channel=2, data=[62, 110]),
   midi.NoteOnEvent(tick=46, channel=2, data=[62, 0]),
   midi.NoteOnEvent(tick=2, channel=2, data=[62, 110]),
   midi.NoteOnEvent(tick=46, channel=2, data=[62, 0]),
   midi.NoteOnEvent(tick=2, channel=2, data=[62, 110]),
   midi.NoteOnEvent(tick=46, channel=2, data=[62, 0]),
   midi.NoteOnEvent(tick=2, channel=2, data=[62, 110]),
   midi.NoteOnEvent(tick=94, channel=2, data=[62, 0]),
   midi.NoteOnEvent(tick=2, channel=2, data=[62, 110]),
   midi.NoteOnEvent(tick=46, channel=2, data=[62, 0]),
   midi.NoteOnEvent(tick=2, channel=2, data=[62, 110]),
   midi.NoteOnEvent(tick=46, channel=2, data=[62, 0]),
   midi.NoteOnEvent(tick=2, channel=2, data=[62, 110]),
   midi.NoteOnEvent(tick=46, channel=2, data=[62, 0]),
   midi.NoteOnEvent(tick=2, channel=2, data=[62, 110]),
   midi.NoteOnEvent(tick=46, channel=2, data=[62, 0]),
   midi.NoteOnEvent(tick=2, channel=2, data=[62, 110]),
   midi.NoteOnEvent(tick=46, channel=2, data=[62, 0]),
   midi.NoteOnEvent(tick=2, channel=2, data=[62, 110]),
   midi.NoteOnEvent(tick=46, channel=2, data=[62, 0]),
   midi.NoteOnEvent(tick=2, channel=2, data=[62, 110]),
   midi.NoteOnEvent(tick=0, channel=2, data=[69, 110]),
   midi.NoteOnEvent(tick=94, channel=2, data=[62, 0]),
   midi.NoteOnEvent(tick=0, channel=2, data=[69, 0]),
   midi.NoteOnEvent(tick=2, channel=2, data=[62, 110]),
   midi.NoteOnEvent(tick=46, channel=2, data=[62, 0]),
   midi.NoteOnEvent(tick=2, channel=2, data=[62, 110]),
   midi.NoteOnEvent(tick=46, channel=2, data=[62, 0]),
   midi.NoteOnEvent(tick=2, channel=2, data=[62, 110]),
   midi.NoteOnEvent(tick=46, channel=2, data=[62, 0]),
   midi.NoteOnEvent(tick=2, channel=2, data=[62, 110]),
   midi.NoteOnEvent(tick=46, channel=2, data=[62, 0]),
   midi.NoteOnEvent(tick=2, channel=2, data=[62, 110]),
   midi.NoteOnEvent(tick=46, channel=2, data=[62, 0]),
   midi.NoteOnEvent(tick=2, channel=2, data=[62, 110]),
   midi.NoteOnEvent(tick=46, channel=2, data=[62, 0]),
   midi.NoteOnEvent(tick=2, channel=2, data=[62, 110]),
   midi.NoteOnEvent(tick=94, channel=2, data=[62, 0]),
   midi.NoteOnEvent(tick=2, channel=2, data=[62, 110]),
   midi.NoteOnEvent(tick=46, channel=2, data=[62, 0]),
   midi.NoteOnEvent(tick=2, channel=2, data=[62, 110]),
   midi.NoteOnEvent(tick=46, channel=2, data=[62, 0]),
   midi.NoteOnEvent(tick=2, channel=2, data=[62, 110]),
   midi.NoteOnEvent(tick=46, channel=2, data=[62, 0]),
   midi.NoteOnEvent(tick=2, channel=2, data=[62, 110]),
   midi.NoteOnEvent(tick=46, channel=2, data=[62, 0]),
   midi.NoteOnEvent(tick=2, channel=2, data=[62, 110]),
   midi.NoteOnEvent(tick=46, channel=2, data=[62, 0]),
   midi.NoteOnEvent(tick=2, channel=2, data=[62, 110]),
   midi.NoteOnEvent(tick=46, channel=2, data=[62, 0]),
   midi.NoteOnEvent(tick=2, channel=2, data=[62, 110]),
   midi.NoteOnEvent(tick=0, channel=2, data=[69, 110]),
   midi.NoteOnEvent(tick=94, channel=2, data=[62, 0]),
   midi.NoteOnEvent(tick=0, channel=2, data=[69, 0]),
   midi.NoteOnEvent(tick=2, channel=2, data=[62, 110]),
   midi.NoteOnEvent(tick=46, channel=2, data=[62, 0]),
   midi.NoteOnEvent(tick=2, channel=2, data=[62, 110]),
   midi.NoteOnEvent(tick=46, channel=2, data=[62, 0]),
   midi.NoteOnEvent(tick=2, channel=2, data=[62, 110]),
   midi.NoteOnEvent(tick=46, channel=2, data=[62, 0]),
   midi.NoteOnEvent(tick=2, channel=2, data=[62, 110]),
   midi.NoteOnEvent(tick=46, channel=2, data=[62, 0]),
   midi.NoteOnEvent(tick=2, channel=2, data=[62, 110]),
   midi.NoteOnEvent(tick=46, channel=2, data=[62, 0]),
   midi.NoteOnEvent(tick=2, channel=2, data=[62, 110]),
   midi.NoteOnEvent(tick=46, channel=2, data=[62, 0]),
   midi.NoteOnEvent(tick=2, channel=2, data=[62, 110]),
   midi.NoteOnEvent(tick=94, channel=2, data=[62, 0]),
   midi.NoteOnEvent(tick=2, channel=2, data=[62, 110]),
   midi.NoteOnEvent(tick=46, channel=2, data=[62, 0]),
   midi.NoteOnEvent(tick=2, channel=2, data=[62, 110]),
   midi.NoteOnEvent(tick=46, channel=2, data=[62, 0]),
   midi.NoteOnEvent(tick=2, channel=2, data=[62, 110]),
   midi.NoteOnEvent(tick=46, channel=2, data=[62, 0]),
   midi.NoteOnEvent(tick=2, channel=2, data=[62, 110]),
   midi.NoteOnEvent(tick=46, channel=2, data=[62, 0]),
   midi.NoteOnEvent(tick=2, channel=2, data=[62, 110]),
   midi.NoteOnEvent(tick=46, channel=2, data=[62, 0]),
   midi.NoteOnEvent(tick=2, channel=2, data=[62, 110]),
   midi.NoteOnEvent(tick=46, channel=2, data=[62, 0]),
   midi.NoteOnEvent(tick=2, channel=2, data=[57, 110]),
   midi.NoteOnEvent(tick=94, channel=2, data=[57, 0]),
   midi.NoteOnEvent(tick=2, channel=2, data=[67, 110]),
   midi.NoteOnEvent(tick=94, channel=2, data=[67, 0]),
   midi.NoteOnEvent(tick=2, channel=2, data=[66, 110]),
   midi.NoteOnEvent(tick=94, channel=2, data=[66, 0]),
   midi.NoteOnEvent(tick=2, channel=2, data=[57, 110]),
   midi.NoteOnEvent(tick=94, channel=2, data=[57, 0]),
   midi.NoteOnEvent(tick=2, channel=2, data=[66, 110]),
   midi.NoteOnEvent(tick=94, channel=2, data=[66, 0]),
   midi.NoteOnEvent(tick=2, channel=2, data=[64, 110]),
   midi.NoteOnEvent(tick=94, channel=2, data=[64, 0]),
   midi.NoteOnEvent(tick=2, channel=2, data=[62, 110]),
   midi.NoteOnEvent(tick=94, channel=2, data=[62, 0]),
   midi.NoteOnEvent(tick=2, channel=2, data=[61, 110]),
   midi.NoteOnEvent(tick=94, channel=2, data=[61, 0]),
   midi.NoteOnEvent(tick=2, channel=2, data=[61, 110]),
   midi.NoteOnEvent(tick=0, channel=2, data=[68, 110]),
   midi.NoteOnEvent(tick=94, channel=2, data=[61, 0]),
   midi.NoteOnEvent(tick=0, channel=2, data=[68, 0]),
   midi.NoteOnEvent(tick=2, channel=2, data=[61, 110]),
   midi.NoteOnEvent(tick=46, channel=2, data=[61, 0]),
   midi.NoteOnEvent(tick=2, channel=2, data=[61, 110]),
   midi.NoteOnEvent(tick=46, channel=2, data=[61, 0]),
   midi.NoteOnEvent(tick=2, channel=2, data=[61, 110]),
   midi.NoteOnEvent(tick=46, channel=2, data=[61, 0]),
   midi.NoteOnEvent(tick=2, channel=2, data=[61, 110]),
   midi.NoteOnEvent(tick=46, channel=2, data=[61, 0]),
   midi.NoteOnEvent(tick=2, channel=2, data=[61, 110]),
   midi.NoteOnEvent(tick=46, channel=2, data=[61, 0]),
   midi.NoteOnEvent(tick=2, channel=2, data=[61, 110]),
   midi.NoteOnEvent(tick=46, channel=2, data=[61, 0]),
   midi.NoteOnEvent(tick=2, channel=2, data=[61, 110]),
   midi.NoteOnEvent(tick=94, channel=2, data=[61, 0]),
   midi.NoteOnEvent(tick=2, channel=2, data=[61, 110]),
   midi.NoteOnEvent(tick=46, channel=2, data=[61, 0]),
   midi.NoteOnEvent(tick=2, channel=2, data=[61, 110]),
   midi.NoteOnEvent(tick=46, channel=2, data=[61, 0]),
   midi.NoteOnEvent(tick=2, channel=2, data=[61, 110]),
   midi.NoteOnEvent(tick=46, channel=2, data=[61, 0]),
   midi.NoteOnEvent(tick=2, channel=2, data=[61, 110]),
   midi.NoteOnEvent(tick=46, channel=2, data=[61, 0]),
   midi.NoteOnEvent(tick=2, channel=2, data=[61, 110]),
   midi.NoteOnEvent(tick=46, channel=2, data=[61, 0]),
   midi.NoteOnEvent(tick=2, channel=2, data=[61, 110]),
   midi.NoteOnEvent(tick=46, channel=2, data=[61, 0]),
   midi.NoteOnEvent(tick=2, channel=2, data=[61, 110]),
   midi.NoteOnEvent(tick=0, channel=2, data=[68, 110]),
   midi.NoteOnEvent(tick=94, channel=2, data=[61, 0]),
   midi.NoteOnEvent(tick=0, channel=2, data=[68, 0]),
   midi.NoteOnEvent(tick=2, channel=2, data=[61, 110]),
   midi.NoteOnEvent(tick=46, channel=2, data=[61, 0]),
   midi.NoteOnEvent(tick=2, channel=2, data=[61, 110]),
   midi.NoteOnEvent(tick=46, channel=2, data=[61, 0]),
   midi.NoteOnEvent(tick=2, channel=2, data=[61, 110]),
   midi.NoteOnEvent(tick=46, channel=2, data=[61, 0]),
   midi.NoteOnEvent(tick=2, channel=2, data=[61, 110]),
   midi.NoteOnEvent(tick=46, channel=2, data=[61, 0]),
   midi.NoteOnEvent(tick=2, channel=2, data=[61, 110]),
   midi.NoteOnEvent(tick=46, channel=2, data=[61, 0]),
   midi.NoteOnEvent(tick=2, channel=2, data=[61, 110]),
   midi.NoteOnEvent(tick=46, channel=2, data=[61, 0]),
   midi.NoteOnEvent(tick=2, channel=2, data=[61, 110]),
   midi.NoteOnEvent(tick=94, channel=2, data=[61, 0]),
   midi.NoteOnEvent(tick=2, channel=2, data=[61, 110]),
   midi.NoteOnEvent(tick=46, channel=2, data=[61, 0]),
   midi.NoteOnEvent(tick=2, channel=2, data=[61, 110]),
   midi.NoteOnEvent(tick=46, channel=2, data=[61, 0]),
   midi.NoteOnEvent(tick=2, channel=2, data=[61, 110]),
   midi.NoteOnEvent(tick=46, channel=2, data=[61, 0]),
   midi.NoteOnEvent(tick=2, channel=2, data=[61, 110]),
   midi.NoteOnEvent(tick=46, channel=2, data=[61, 0]),
   midi.NoteOnEvent(tick=2, channel=2, data=[61, 110]),
   midi.NoteOnEvent(tick=46, channel=2, data=[61, 0]),
   midi.NoteOnEvent(tick=2, channel=2, data=[61, 110]),
   midi.NoteOnEvent(tick=46, channel=2, data=[61, 0]),
   midi.NoteOnEvent(tick=2, channel=2, data=[61, 110]),
   midi.NoteOnEvent(tick=0, channel=2, data=[68, 110]),
   midi.NoteOnEvent(tick=94, channel=2, data=[61, 0]),
   midi.NoteOnEvent(tick=0, channel=2, data=[68, 0]),
   midi.NoteOnEvent(tick=2, channel=2, data=[61, 110]),
   midi.NoteOnEvent(tick=46, channel=2, data=[61, 0]),
   midi.NoteOnEvent(tick=2, channel=2, data=[61, 110]),
   midi.NoteOnEvent(tick=46, channel=2, data=[61, 0]),
   midi.NoteOnEvent(tick=2, channel=2, data=[61, 110]),
   midi.NoteOnEvent(tick=46, channel=2, data=[61, 0]),
   midi.NoteOnEvent(tick=2, channel=2, data=[61, 110]),
   midi.NoteOnEvent(tick=46, channel=2, data=[61, 0]),
   midi.NoteOnEvent(tick=2, channel=2, data=[61, 110]),
   midi.NoteOnEvent(tick=46, channel=2, data=[61, 0]),
   midi.NoteOnEvent(tick=2, channel=2, data=[61, 110]),
   midi.NoteOnEvent(tick=46, channel=2, data=[61, 0]),
   midi.NoteOnEvent(tick=2, channel=2, data=[61, 110]),
   midi.NoteOnEvent(tick=94, channel=2, data=[61, 0]),
   midi.NoteOnEvent(tick=2, channel=2, data=[61, 110]),
   midi.NoteOnEvent(tick=46, channel=2, data=[61, 0]),
   midi.NoteOnEvent(tick=2, channel=2, data=[61, 110]),
   midi.NoteOnEvent(tick=46, channel=2, data=[61, 0]),
   midi.NoteOnEvent(tick=2, channel=2, data=[61, 110]),
   midi.NoteOnEvent(tick=46, channel=2, data=[61, 0]),
   midi.NoteOnEvent(tick=2, channel=2, data=[61, 110]),
   midi.NoteOnEvent(tick=46, channel=2, data=[61, 0]),
   midi.NoteOnEvent(tick=2, channel=2, data=[61, 110]),
   midi.NoteOnEvent(tick=46, channel=2, data=[61, 0]),
   midi.NoteOnEvent(tick=2, channel=2, data=[61, 110]),
   midi.NoteOnEvent(tick=46, channel=2, data=[61, 0]),
   midi.NoteOnEvent(tick=2, channel=2, data=[57, 110]),
   midi.NoteOnEvent(tick=94, channel=2, data=[57, 0]),
   midi.NoteOnEvent(tick=2, channel=2, data=[67, 110]),
   midi.NoteOnEvent(tick=94, channel=2, data=[67, 0]),
   midi.NoteOnEvent(tick=2, channel=2, data=[66, 110]),
   midi.NoteOnEvent(tick=94, channel=2, data=[66, 0]),
   midi.NoteOnEvent(tick=2, channel=2, data=[57, 110]),
   midi.NoteOnEvent(tick=94, channel=2, data=[57, 0]),
   midi.NoteOnEvent(tick=2, channel=2, data=[66, 110]),
   midi.NoteOnEvent(tick=94, channel=2, data=[66, 0]),
   midi.NoteOnEvent(tick=2, channel=2, data=[64, 110]),
   midi.NoteOnEvent(tick=94, channel=2, data=[64, 0]),
   midi.NoteOnEvent(tick=2, channel=2, data=[62, 110]),
   midi.NoteOnEvent(tick=94, channel=2, data=[62, 0]),
   midi.NoteOnEvent(tick=2, channel=2, data=[61, 110]),
   midi.NoteOnEvent(tick=94, channel=2, data=[61, 0]),
   midi.NoteOnEvent(tick=2, channel=2, data=[55, 110]),
   midi.NoteOnEvent(tick=0, channel=2, data=[62, 110]),
   midi.NoteOnEvent(tick=0, channel=2, data=[67, 110]),
   midi.NoteOnEvent(tick=126, channel=2, data=[55, 0]),
   midi.NoteOnEvent(tick=0, channel=2, data=[62, 0]),
   midi.NoteOnEvent(tick=0, channel=2, data=[67, 0]),
   midi.NoteOnEvent(tick=2, channel=2, data=[54, 110]),
   midi.NoteOnEvent(tick=0, channel=2, data=[61, 110]),
   midi.NoteOnEvent(tick=0, channel=2, data=[66, 110]),
   midi.NoteOnEvent(tick=126, channel=2, data=[54, 0]),
   midi.NoteOnEvent(tick=0, channel=2, data=[61, 0]),
   midi.NoteOnEvent(tick=0, channel=2, data=[66, 0]),
   midi.NoteOnEvent(tick=2, channel=2, data=[52, 110]),
   midi.NoteOnEvent(tick=0, channel=2, data=[59, 110]),
   midi.NoteOnEvent(tick=0, channel=2, data=[64, 110]),
   midi.NoteOnEvent(tick=126, channel=2, data=[52, 0]),
   midi.NoteOnEvent(tick=0, channel=2, data=[59, 0]),
   midi.NoteOnEvent(tick=0, channel=2, data=[64, 0]),
   midi.NoteOnEvent(tick=2, channel=2, data=[62, 110]),
   midi.NoteOnEvent(tick=0, channel=2, data=[69, 110]),
   midi.NoteOnEvent(tick=0, channel=2, data=[74, 110]),
   midi.NoteOnEvent(tick=126, channel=2, data=[62, 0]),
   midi.NoteOnEvent(tick=0, channel=2, data=[69, 0]),
   midi.NoteOnEvent(tick=0, channel=2, data=[74, 0]),
   midi.NoteOnEvent(tick=2, channel=2, data=[61, 110]),
   midi.NoteOnEvent(tick=0, channel=2, data=[68, 110]),
   midi.NoteOnEvent(tick=0, channel=2, data=[73, 110]),
   midi.NoteOnEvent(tick=126, channel=2, data=[61, 0]),
   midi.NoteOnEvent(tick=0, channel=2, data=[68, 0]),
   midi.NoteOnEvent(tick=0, channel=2, data=[73, 0]),
   midi.NoteOnEvent(tick=2, channel=2, data=[59, 110]),
   midi.NoteOnEvent(tick=0, channel=2, data=[66, 110]),
   midi.NoteOnEvent(tick=0, channel=2, data=[71, 110]),
   midi.NoteOnEvent(tick=126, channel=2, data=[59, 0]),
   midi.NoteOnEvent(tick=0, channel=2, data=[66, 0]),
   midi.NoteOnEvent(tick=0, channel=2, data=[71, 0]),
   midi.NoteOnEvent(tick=2, channel=2, data=[61, 110]),
   midi.NoteOnEvent(tick=0, channel=2, data=[68, 110]),
   midi.NoteOnEvent(tick=0, channel=2, data=[73, 110]),
   midi.NoteOnEvent(tick=336, channel=2, data=[61, 0]),
   midi.NoteOnEvent(tick=0, channel=2, data=[68, 0]),
   midi.NoteOnEvent(tick=0, channel=2, data=[73, 0]),
   midi.NoteOnEvent(tick=48, channel=2, data=[61, 110]),
   midi.NoteOnEvent(tick=0, channel=2, data=[68, 110]),
   midi.NoteOnEvent(tick=0, channel=2, data=[73, 110]),
   midi.NoteOnEvent(tick=336, channel=2, data=[61, 0]),
   midi.NoteOnEvent(tick=0, channel=2, data=[68, 0]),
   midi.NoteOnEvent(tick=0, channel=2, data=[73, 0]),
   midi.NoteOnEvent(tick=48, channel=2, data=[61, 110]),
   midi.NoteOnEvent(tick=0, channel=2, data=[68, 110]),
   midi.NoteOnEvent(tick=0, channel=2, data=[73, 110]),
   midi.NoteOnEvent(tick=336, channel=2, data=[61, 0]),
   midi.NoteOnEvent(tick=0, channel=2, data=[68, 0]),
   midi.NoteOnEvent(tick=0, channel=2, data=[73, 0]),
   midi.NoteOnEvent(tick=48, channel=2, data=[61, 110]),
   midi.NoteOnEvent(tick=0, channel=2, data=[68, 110]),
   midi.NoteOnEvent(tick=0, channel=2, data=[73, 110]),
   midi.NoteOnEvent(tick=336, channel=2, data=[61, 0]),
   midi.NoteOnEvent(tick=0, channel=2, data=[68, 0]),
   midi.NoteOnEvent(tick=0, channel=2, data=[73, 0]),
   midi.NoteOnEvent(tick=48, channel=2, data=[61, 110]),
   midi.NoteOnEvent(tick=0, channel=2, data=[68, 110]),
   midi.NoteOnEvent(tick=0, channel=2, data=[73, 110]),
   midi.NoteOnEvent(tick=1488, channel=2, data=[61, 0]),
   midi.NoteOnEvent(tick=0, channel=2, data=[68, 0]),
   midi.NoteOnEvent(tick=0, channel=2, data=[73, 0]),
   midi.NoteOnEvent(tick=48, channel=2, data=[61, 110]),
   midi.NoteOnEvent(tick=0, channel=2, data=[68, 110]),
   midi.NoteOnEvent(tick=94, channel=2, data=[61, 0]),
   midi.NoteOnEvent(tick=0, channel=2, data=[68, 0]),
   midi.NoteOnEvent(tick=2, channel=2, data=[61, 110]),
   midi.NoteOnEvent(tick=46, channel=2, data=[61, 0]),
   midi.NoteOnEvent(tick=2, channel=2, data=[61, 110]),
   midi.NoteOnEvent(tick=46, channel=2, data=[61, 0]),
   midi.NoteOnEvent(tick=2, channel=2, data=[61, 110]),
   midi.NoteOnEvent(tick=46, channel=2, data=[61, 0]),
   midi.NoteOnEvent(tick=2, channel=2, data=[61, 110]),
   midi.NoteOnEvent(tick=46, channel=2, data=[61, 0]),
   midi.NoteOnEvent(tick=2, channel=2, data=[61, 110]),
   midi.NoteOnEvent(tick=46, channel=2, data=[61, 0]),
   midi.NoteOnEvent(tick=2, channel=2, data=[61, 110]),
   midi.NoteOnEvent(tick=46, channel=2, data=[61, 0]),
   midi.NoteOnEvent(tick=2, channel=2, data=[61, 110]),
   midi.NoteOnEvent(tick=94, channel=2, data=[61, 0]),
   midi.NoteOnEvent(tick=2, channel=2, data=[61, 110]),
   midi.NoteOnEvent(tick=46, channel=2, data=[61, 0]),
   midi.NoteOnEvent(tick=2, channel=2, data=[61, 110]),
   midi.NoteOnEvent(tick=46, channel=2, data=[61, 0]),
   midi.NoteOnEvent(tick=2, channel=2, data=[61, 110]),
   midi.NoteOnEvent(tick=46, channel=2, data=[61, 0]),
   midi.NoteOnEvent(tick=2, channel=2, data=[61, 110]),
   midi.NoteOnEvent(tick=46, channel=2, data=[61, 0]),
   midi.NoteOnEvent(tick=2, channel=2, data=[61, 110]),
   midi.NoteOnEvent(tick=46, channel=2, data=[61, 0]),
   midi.NoteOnEvent(tick=2, channel=2, data=[61, 110]),
   midi.NoteOnEvent(tick=46, channel=2, data=[61, 0]),
   midi.NoteOnEvent(tick=2, channel=2, data=[61, 110]),
   midi.NoteOnEvent(tick=0, channel=2, data=[68, 110]),
   midi.NoteOnEvent(tick=94, channel=2, data=[61, 0]),
   midi.NoteOnEvent(tick=0, channel=2, data=[68, 0]),
   midi.NoteOnEvent(tick=2, channel=2, data=[61, 110]),
   midi.NoteOnEvent(tick=46, channel=2, data=[61, 0]),
   midi.NoteOnEvent(tick=2, channel=2, data=[61, 110]),
   midi.NoteOnEvent(tick=46, channel=2, data=[61, 0]),
   midi.NoteOnEvent(tick=2, channel=2, data=[61, 110]),
   midi.NoteOnEvent(tick=46, channel=2, data=[61, 0]),
   midi.NoteOnEvent(tick=2, channel=2, data=[61, 110]),
   midi.NoteOnEvent(tick=46, channel=2, data=[61, 0]),
   midi.NoteOnEvent(tick=2, channel=2, data=[61, 110]),
   midi.NoteOnEvent(tick=46, channel=2, data=[61, 0]),
   midi.NoteOnEvent(tick=2, channel=2, data=[61, 110]),
   midi.NoteOnEvent(tick=46, channel=2, data=[61, 0]),
   midi.NoteOnEvent(tick=2, channel=2, data=[61, 110]),
   midi.NoteOnEvent(tick=94, channel=2, data=[61, 0]),
   midi.NoteOnEvent(tick=2, channel=2, data=[61, 110]),
   midi.NoteOnEvent(tick=46, channel=2, data=[61, 0]),
   midi.NoteOnEvent(tick=2, channel=2, data=[61, 110]),
   midi.NoteOnEvent(tick=46, channel=2, data=[61, 0]),
   midi.NoteOnEvent(tick=2, channel=2, data=[61, 110]),
   midi.NoteOnEvent(tick=46, channel=2, data=[61, 0]),
   midi.NoteOnEvent(tick=2, channel=2, data=[61, 110]),
   midi.NoteOnEvent(tick=46, channel=2, data=[61, 0]),
   midi.NoteOnEvent(tick=2, channel=2, data=[61, 110]),
   midi.NoteOnEvent(tick=46, channel=2, data=[61, 0]),
   midi.NoteOnEvent(tick=2, channel=2, data=[61, 110]),
   midi.NoteOnEvent(tick=46, channel=2, data=[61, 0]),
   midi.NoteOnEvent(tick=2, channel=2, data=[61, 110]),
   midi.NoteOnEvent(tick=0, channel=2, data=[68, 110]),
   midi.NoteOnEvent(tick=94, channel=2, data=[61, 0]),
   midi.NoteOnEvent(tick=0, channel=2, data=[68, 0]),
   midi.NoteOnEvent(tick=2, channel=2, data=[61, 110]),
   midi.NoteOnEvent(tick=46, channel=2, data=[61, 0]),
   midi.NoteOnEvent(tick=2, channel=2, data=[61, 110]),
   midi.NoteOnEvent(tick=46, channel=2, data=[61, 0]),
   midi.NoteOnEvent(tick=2, channel=2, data=[61, 110]),
   midi.NoteOnEvent(tick=46, channel=2, data=[61, 0]),
   midi.NoteOnEvent(tick=2, channel=2, data=[61, 110]),
   midi.NoteOnEvent(tick=46, channel=2, data=[61, 0]),
   midi.NoteOnEvent(tick=2, channel=2, data=[61, 110]),
   midi.NoteOnEvent(tick=46, channel=2, data=[61, 0]),
   midi.NoteOnEvent(tick=2, channel=2, data=[61, 110]),
   midi.NoteOnEvent(tick=46, channel=2, data=[61, 0]),
   midi.NoteOnEvent(tick=2, channel=2, data=[61, 110]),
   midi.NoteOnEvent(tick=94, channel=2, data=[61, 0]),
   midi.NoteOnEvent(tick=2, channel=2, data=[61, 110]),
   midi.NoteOnEvent(tick=46, channel=2, data=[61, 0]),
   midi.NoteOnEvent(tick=2, channel=2, data=[61, 110]),
   midi.NoteOnEvent(tick=46, channel=2, data=[61, 0]),
   midi.NoteOnEvent(tick=2, channel=2, data=[61, 110]),
   midi.NoteOnEvent(tick=46, channel=2, data=[61, 0]),
   midi.NoteOnEvent(tick=2, channel=2, data=[61, 110]),
   midi.NoteOnEvent(tick=46, channel=2, data=[61, 0]),
   midi.NoteOnEvent(tick=2, channel=2, data=[61, 110]),
   midi.NoteOnEvent(tick=46, channel=2, data=[61, 0]),
   midi.NoteOnEvent(tick=2, channel=2, data=[61, 110]),
   midi.NoteOnEvent(tick=46, channel=2, data=[61, 0]),
   midi.NoteOnEvent(tick=2, channel=2, data=[57, 110]),
   midi.NoteOnEvent(tick=94, channel=2, data=[57, 0]),
   midi.NoteOnEvent(tick=2, channel=2, data=[67, 110]),
   midi.NoteOnEvent(tick=94, channel=2, data=[67, 0]),
   midi.NoteOnEvent(tick=2, channel=2, data=[66, 110]),
   midi.NoteOnEvent(tick=94, channel=2, data=[66, 0]),
   midi.NoteOnEvent(tick=2, channel=2, data=[57, 110]),
   midi.NoteOnEvent(tick=94, channel=2, data=[57, 0]),
   midi.NoteOnEvent(tick=2, channel=2, data=[66, 110]),
   midi.NoteOnEvent(tick=94, channel=2, data=[66, 0]),
   midi.NoteOnEvent(tick=2, channel=2, data=[64, 110]),
   midi.NoteOnEvent(tick=94, channel=2, data=[64, 0]),
   midi.NoteOnEvent(tick=2, channel=2, data=[62, 110]),
   midi.NoteOnEvent(tick=94, channel=2, data=[62, 0]),
   midi.NoteOnEvent(tick=2, channel=2, data=[61, 110]),
   midi.NoteOnEvent(tick=94, channel=2, data=[61, 0]),
   midi.NoteOnEvent(tick=2, channel=2, data=[55, 110]),
   midi.NoteOnEvent(tick=0, channel=2, data=[62, 110]),
   midi.NoteOnEvent(tick=0, channel=2, data=[67, 110]),
   midi.NoteOnEvent(tick=126, channel=2, data=[55, 0]),
   midi.NoteOnEvent(tick=0, channel=2, data=[62, 0]),
   midi.NoteOnEvent(tick=0, channel=2, data=[67, 0]),
   midi.NoteOnEvent(tick=2, channel=2, data=[54, 110]),
   midi.NoteOnEvent(tick=0, channel=2, data=[61, 110]),
   midi.NoteOnEvent(tick=0, channel=2, data=[66, 110]),
   midi.NoteOnEvent(tick=126, channel=2, data=[54, 0]),
   midi.NoteOnEvent(tick=0, channel=2, data=[61, 0]),
   midi.NoteOnEvent(tick=0, channel=2, data=[66, 0]),
   midi.NoteOnEvent(tick=2, channel=2, data=[52, 110]),
   midi.NoteOnEvent(tick=0, channel=2, data=[59, 110]),
   midi.NoteOnEvent(tick=0, channel=2, data=[64, 110]),
   midi.NoteOnEvent(tick=126, channel=2, data=[52, 0]),
   midi.NoteOnEvent(tick=0, channel=2, data=[59, 0]),
   midi.NoteOnEvent(tick=0, channel=2, data=[64, 0]),
   midi.NoteOnEvent(tick=2, channel=2, data=[62, 110]),
   midi.NoteOnEvent(tick=0, channel=2, data=[69, 110]),
   midi.NoteOnEvent(tick=0, channel=2, data=[74, 110]),
   midi.NoteOnEvent(tick=126, channel=2, data=[62, 0]),
   midi.NoteOnEvent(tick=0, channel=2, data=[69, 0]),
   midi.NoteOnEvent(tick=0, channel=2, data=[74, 0]),
   midi.NoteOnEvent(tick=2, channel=2, data=[61, 110]),
   midi.NoteOnEvent(tick=0, channel=2, data=[68, 110]),
   midi.NoteOnEvent(tick=0, channel=2, data=[73, 110]),
   midi.NoteOnEvent(tick=126, channel=2, data=[61, 0]),
   midi.NoteOnEvent(tick=0, channel=2, data=[68, 0]),
   midi.NoteOnEvent(tick=0, channel=2, data=[73, 0]),
   midi.NoteOnEvent(tick=2, channel=2, data=[59, 110]),
   midi.NoteOnEvent(tick=0, channel=2, data=[66, 110]),
   midi.NoteOnEvent(tick=0, channel=2, data=[71, 110]),
   midi.NoteOnEvent(tick=126, channel=2, data=[59, 0]),
   midi.NoteOnEvent(tick=0, channel=2, data=[66, 0]),
   midi.NoteOnEvent(tick=0, channel=2, data=[71, 0]),
   midi.NoteOnEvent(tick=2, channel=2, data=[61, 110]),
   midi.NoteOnEvent(tick=0, channel=2, data=[68, 110]),
   midi.NoteOnEvent(tick=0, channel=2, data=[73, 110]),
   midi.NoteOnEvent(tick=720, channel=2, data=[61, 0]),
   midi.NoteOnEvent(tick=0, channel=2, data=[68, 0]),
   midi.NoteOnEvent(tick=0, channel=2, data=[73, 0]),
   midi.EndOfTrackEvent(tick=0, data=[])]),
 midi.Track(\
  [midi.PortEvent(tick=0, data=[0]),
   midi.TextMetaEvent(tick=0, text='Bass Guitar', data=[66, 97, 115, 115, 32, 71, 117, 105, 116, 97, 114]),
   midi.TrackNameEvent(tick=0, text='Bass Guitar', data=[66, 97, 115, 115, 32, 71, 117, 105, 116, 97, 114]),
   midi.InstrumentNameEvent(tick=0, text='Bass Guitar', data=[66, 97, 115, 115, 32, 71, 117, 105, 116, 97, 114]),
   midi.ProgramChangeEvent(tick=0, channel=3, data=[33]),
   midi.ControlChangeEvent(tick=0, channel=3, data=[7, 127]),
   midi.ControlChangeEvent(tick=0, channel=3, data=[10, 64]),
   midi.NoteOnEvent(tick=0, channel=3, data=[40, 110]),
   midi.NoteOnEvent(tick=94, channel=3, data=[40, 0]),
   midi.NoteOnEvent(tick=2, channel=3, data=[40, 110]),
   midi.NoteOnEvent(tick=94, channel=3, data=[40, 0]),
   midi.NoteOnEvent(tick=2, channel=3, data=[40, 110]),
   midi.NoteOnEvent(tick=94, channel=3, data=[40, 0]),
   midi.NoteOnEvent(tick=2, channel=3, data=[40, 110]),
   midi.NoteOnEvent(tick=94, channel=3, data=[40, 0]),
   midi.NoteOnEvent(tick=2, channel=3, data=[40, 110]),
   midi.NoteOnEvent(tick=94, channel=3, data=[40, 0]),
   midi.NoteOnEvent(tick=2, channel=3, data=[40, 110]),
   midi.NoteOnEvent(tick=94, channel=3, data=[40, 0]),
   midi.NoteOnEvent(tick=2, channel=3, data=[42, 110]),
   midi.NoteOnEvent(tick=160, channel=3, data=[42, 0]),
   midi.NoteOnEvent(tick=32, channel=3, data=[43, 110]),
   midi.NoteOnEvent(tick=160, channel=3, data=[43, 0]),
   midi.NoteOnEvent(tick=32, channel=3, data=[42, 110]),
   midi.NoteOnEvent(tick=160, channel=3, data=[42, 0]),
   midi.NoteOnEvent(tick=32, channel=3, data=[40, 110]),
   midi.NoteOnEvent(tick=94, channel=3, data=[40, 0]),
   midi.NoteOnEvent(tick=2, channel=3, data=[40, 110]),
   midi.NoteOnEvent(tick=94, channel=3, data=[40, 0]),
   midi.NoteOnEvent(tick=2, channel=3, data=[40, 110]),
   midi.NoteOnEvent(tick=94, channel=3, data=[40, 0]),
   midi.NoteOnEvent(tick=2, channel=3, data=[40, 110]),
   midi.NoteOnEvent(tick=94, channel=3, data=[40, 0]),
   midi.NoteOnEvent(tick=2, channel=3, data=[40, 110]),
   midi.NoteOnEvent(tick=94, channel=3, data=[40, 0]),
   midi.NoteOnEvent(tick=2, channel=3, data=[40, 110]),
   midi.NoteOnEvent(tick=94, channel=3, data=[40, 0]),
   midi.NoteOnEvent(tick=2, channel=3, data=[43, 110]),
   midi.NoteOnEvent(tick=160, channel=3, data=[43, 0]),
   midi.NoteOnEvent(tick=32, channel=3, data=[45, 110]),
   midi.NoteOnEvent(tick=160, channel=3, data=[45, 0]),
   midi.NoteOnEvent(tick=32, channel=3, data=[42, 110]),
   midi.NoteOnEvent(tick=160, channel=3, data=[42, 0]),
   midi.NoteOnEvent(tick=32, channel=3, data=[40, 110]),
   midi.NoteOnEvent(tick=94, channel=3, data=[40, 0]),
   midi.NoteOnEvent(tick=2, channel=3, data=[40, 110]),
   midi.NoteOnEvent(tick=94, channel=3, data=[40, 0]),
   midi.NoteOnEvent(tick=2, channel=3, data=[40, 110]),
   midi.NoteOnEvent(tick=94, channel=3, data=[40, 0]),
   midi.NoteOnEvent(tick=2, channel=3, data=[40, 110]),
   midi.NoteOnEvent(tick=94, channel=3, data=[40, 0]),
   midi.NoteOnEvent(tick=2, channel=3, data=[40, 110]),
   midi.NoteOnEvent(tick=94, channel=3, data=[40, 0]),
   midi.NoteOnEvent(tick=2, channel=3, data=[40, 110]),
   midi.NoteOnEvent(tick=94, channel=3, data=[40, 0]),
   midi.NoteOnEvent(tick=2, channel=3, data=[42, 110]),
   midi.NoteOnEvent(tick=160, channel=3, data=[42, 0]),
   midi.NoteOnEvent(tick=32, channel=3, data=[43, 110]),
   midi.NoteOnEvent(tick=160, channel=3, data=[43, 0]),
   midi.NoteOnEvent(tick=32, channel=3, data=[42, 110]),
   midi.NoteOnEvent(tick=160, channel=3, data=[42, 0]),
   midi.NoteOnEvent(tick=32, channel=3, data=[40, 110]),
   midi.NoteOnEvent(tick=94, channel=3, data=[40, 0]),
   midi.NoteOnEvent(tick=2, channel=3, data=[40, 110]),
   midi.NoteOnEvent(tick=94, channel=3, data=[40, 0]),
   midi.NoteOnEvent(tick=2, channel=3, data=[40, 110]),
   midi.NoteOnEvent(tick=94, channel=3, data=[40, 0]),
   midi.NoteOnEvent(tick=2, channel=3, data=[40, 110]),
   midi.NoteOnEvent(tick=94, channel=3, data=[40, 0]),
   midi.NoteOnEvent(tick=2, channel=3, data=[40, 110]),
   midi.NoteOnEvent(tick=94, channel=3, data=[40, 0]),
   midi.NoteOnEvent(tick=2, channel=3, data=[40, 110]),
   midi.NoteOnEvent(tick=94, channel=3, data=[40, 0]),
   midi.NoteOnEvent(tick=2, channel=3, data=[40, 110]),
   midi.NoteOnEvent(tick=94, channel=3, data=[40, 0]),
   midi.NoteOnEvent(tick=2, channel=3, data=[40, 110]),
   midi.NoteOnEvent(tick=94, channel=3, data=[40, 0]),
   midi.NoteOnEvent(tick=2, channel=3, data=[40, 110]),
   midi.NoteOnEvent(tick=94, channel=3, data=[40, 0]),
   midi.NoteOnEvent(tick=2, channel=3, data=[40, 110]),
   midi.NoteOnEvent(tick=256, channel=3, data=[40, 0]),
   midi.NoteOnEvent(tick=32, channel=3, data=[40, 110]),
   midi.NoteOnEvent(tick=94, channel=3, data=[40, 0]),
   midi.NoteOnEvent(tick=2, channel=3, data=[40, 110]),
   midi.NoteOnEvent(tick=94, channel=3, data=[40, 0]),
   midi.NoteOnEvent(tick=2, channel=3, data=[40, 110]),
   midi.NoteOnEvent(tick=94, channel=3, data=[40, 0]),
   midi.NoteOnEvent(tick=2, channel=3, data=[40, 110]),
   midi.NoteOnEvent(tick=94, channel=3, data=[40, 0]),
   midi.NoteOnEvent(tick=2, channel=3, data=[40, 110]),
   midi.NoteOnEvent(tick=94, channel=3, data=[40, 0]),
   midi.NoteOnEvent(tick=2, channel=3, data=[40, 110]),
   midi.NoteOnEvent(tick=94, channel=3, data=[40, 0]),
   midi.NoteOnEvent(tick=2, channel=3, data=[42, 110]),
   midi.NoteOnEvent(tick=160, channel=3, data=[42, 0]),
   midi.NoteOnEvent(tick=32, channel=3, data=[43, 110]),
   midi.NoteOnEvent(tick=160, channel=3, data=[43, 0]),
   midi.NoteOnEvent(tick=32, channel=3, data=[42, 110]),
   midi.NoteOnEvent(tick=160, channel=3, data=[42, 0]),
   midi.NoteOnEvent(tick=32, channel=3, data=[40, 110]),
   midi.NoteOnEvent(tick=94, channel=3, data=[40, 0]),
   midi.NoteOnEvent(tick=2, channel=3, data=[40, 110]),
   midi.NoteOnEvent(tick=94, channel=3, data=[40, 0]),
   midi.NoteOnEvent(tick=2, channel=3, data=[40, 110]),
   midi.NoteOnEvent(tick=94, channel=3, data=[40, 0]),
   midi.NoteOnEvent(tick=2, channel=3, data=[40, 110]),
   midi.NoteOnEvent(tick=94, channel=3, data=[40, 0]),
   midi.NoteOnEvent(tick=2, channel=3, data=[40, 110]),
   midi.NoteOnEvent(tick=94, channel=3, data=[40, 0]),
   midi.NoteOnEvent(tick=2, channel=3, data=[40, 110]),
   midi.NoteOnEvent(tick=94, channel=3, data=[40, 0]),
   midi.NoteOnEvent(tick=2, channel=3, data=[43, 110]),
   midi.NoteOnEvent(tick=160, channel=3, data=[43, 0]),
   midi.NoteOnEvent(tick=32, channel=3, data=[45, 110]),
   midi.NoteOnEvent(tick=160, channel=3, data=[45, 0]),
   midi.NoteOnEvent(tick=32, channel=3, data=[42, 110]),
   midi.NoteOnEvent(tick=160, channel=3, data=[42, 0]),
   midi.NoteOnEvent(tick=32, channel=3, data=[40, 110]),
   midi.NoteOnEvent(tick=94, channel=3, data=[40, 0]),
   midi.NoteOnEvent(tick=2, channel=3, data=[40, 110]),
   midi.NoteOnEvent(tick=94, channel=3, data=[40, 0]),
   midi.NoteOnEvent(tick=2, channel=3, data=[40, 110]),
   midi.NoteOnEvent(tick=94, channel=3, data=[40, 0]),
   midi.NoteOnEvent(tick=2, channel=3, data=[40, 110]),
   midi.NoteOnEvent(tick=94, channel=3, data=[40, 0]),
   midi.NoteOnEvent(tick=2, channel=3, data=[40, 110]),
   midi.NoteOnEvent(tick=94, channel=3, data=[40, 0]),
   midi.NoteOnEvent(tick=2, channel=3, data=[40, 110]),
   midi.NoteOnEvent(tick=94, channel=3, data=[40, 0]),
   midi.NoteOnEvent(tick=2, channel=3, data=[42, 110]),
   midi.NoteOnEvent(tick=160, channel=3, data=[42, 0]),
   midi.NoteOnEvent(tick=32, channel=3, data=[43, 110]),
   midi.NoteOnEvent(tick=160, channel=3, data=[43, 0]),
   midi.NoteOnEvent(tick=32, channel=3, data=[42, 110]),
   midi.NoteOnEvent(tick=160, channel=3, data=[42, 0]),
   midi.NoteOnEvent(tick=32, channel=3, data=[40, 110]),
   midi.NoteOnEvent(tick=94, channel=3, data=[40, 0]),
   midi.NoteOnEvent(tick=2, channel=3, data=[40, 110]),
   midi.NoteOnEvent(tick=94, channel=3, data=[40, 0]),
   midi.NoteOnEvent(tick=2, channel=3, data=[40, 110]),
   midi.NoteOnEvent(tick=94, channel=3, data=[40, 0]),
   midi.NoteOnEvent(tick=2, channel=3, data=[40, 110]),
   midi.NoteOnEvent(tick=94, channel=3, data=[40, 0]),
   midi.NoteOnEvent(tick=2, channel=3, data=[40, 110]),
   midi.NoteOnEvent(tick=94, channel=3, data=[40, 0]),
   midi.NoteOnEvent(tick=2, channel=3, data=[40, 110]),
   midi.NoteOnEvent(tick=94, channel=3, data=[40, 0]),
   midi.NoteOnEvent(tick=2, channel=3, data=[40, 110]),
   midi.NoteOnEvent(tick=94, channel=3, data=[40, 0]),
   midi.NoteOnEvent(tick=2, channel=3, data=[40, 110]),
   midi.NoteOnEvent(tick=94, channel=3, data=[40, 0]),
   midi.NoteOnEvent(tick=2, channel=3, data=[40, 110]),
   midi.NoteOnEvent(tick=94, channel=3, data=[40, 0]),
   midi.NoteOnEvent(tick=2, channel=3, data=[40, 110]),
   midi.NoteOnEvent(tick=256, channel=3, data=[40, 0]),
   midi.NoteOnEvent(tick=32, channel=3, data=[40, 110]),
   midi.NoteOnEvent(tick=94, channel=3, data=[40, 0]),
   midi.NoteOnEvent(tick=2, channel=3, data=[40, 110]),
   midi.NoteOnEvent(tick=94, channel=3, data=[40, 0]),
   midi.NoteOnEvent(tick=2, channel=3, data=[40, 110]),
   midi.NoteOnEvent(tick=94, channel=3, data=[40, 0]),
   midi.NoteOnEvent(tick=2, channel=3, data=[40, 110]),
   midi.NoteOnEvent(tick=94, channel=3, data=[40, 0]),
   midi.NoteOnEvent(tick=2, channel=3, data=[40, 110]),
   midi.NoteOnEvent(tick=94, channel=3, data=[40, 0]),
   midi.NoteOnEvent(tick=2, channel=3, data=[40, 110]),
   midi.NoteOnEvent(tick=94, channel=3, data=[40, 0]),
   midi.NoteOnEvent(tick=2, channel=3, data=[42, 110]),
   midi.NoteOnEvent(tick=160, channel=3, data=[42, 0]),
   midi.NoteOnEvent(tick=32, channel=3, data=[43, 110]),
   midi.NoteOnEvent(tick=160, channel=3, data=[43, 0]),
   midi.NoteOnEvent(tick=32, channel=3, data=[42, 110]),
   midi.NoteOnEvent(tick=160, channel=3, data=[42, 0]),
   midi.NoteOnEvent(tick=32, channel=3, data=[40, 110]),
   midi.NoteOnEvent(tick=94, channel=3, data=[40, 0]),
   midi.NoteOnEvent(tick=2, channel=3, data=[40, 110]),
   midi.NoteOnEvent(tick=94, channel=3, data=[40, 0]),
   midi.NoteOnEvent(tick=2, channel=3, data=[40, 110]),
   midi.NoteOnEvent(tick=94, channel=3, data=[40, 0]),
   midi.NoteOnEvent(tick=2, channel=3, data=[40, 110]),
   midi.NoteOnEvent(tick=94, channel=3, data=[40, 0]),
   midi.NoteOnEvent(tick=2, channel=3, data=[40, 110]),
   midi.NoteOnEvent(tick=94, channel=3, data=[40, 0]),
   midi.NoteOnEvent(tick=2, channel=3, data=[40, 110]),
   midi.NoteOnEvent(tick=94, channel=3, data=[40, 0]),
   midi.NoteOnEvent(tick=2, channel=3, data=[43, 110]),
   midi.NoteOnEvent(tick=160, channel=3, data=[43, 0]),
   midi.NoteOnEvent(tick=32, channel=3, data=[45, 110]),
   midi.NoteOnEvent(tick=160, channel=3, data=[45, 0]),
   midi.NoteOnEvent(tick=32, channel=3, data=[42, 110]),
   midi.NoteOnEvent(tick=160, channel=3, data=[42, 0]),
   midi.NoteOnEvent(tick=32, channel=3, data=[40, 110]),
   midi.NoteOnEvent(tick=94, channel=3, data=[40, 0]),
   midi.NoteOnEvent(tick=2, channel=3, data=[40, 110]),
   midi.NoteOnEvent(tick=94, channel=3, data=[40, 0]),
   midi.NoteOnEvent(tick=2, channel=3, data=[40, 110]),
   midi.NoteOnEvent(tick=94, channel=3, data=[40, 0]),
   midi.NoteOnEvent(tick=2, channel=3, data=[40, 110]),
   midi.NoteOnEvent(tick=94, channel=3, data=[40, 0]),
   midi.NoteOnEvent(tick=2, channel=3, data=[40, 110]),
   midi.NoteOnEvent(tick=94, channel=3, data=[40, 0]),
   midi.NoteOnEvent(tick=2, channel=3, data=[40, 110]),
   midi.NoteOnEvent(tick=94, channel=3, data=[40, 0]),
   midi.NoteOnEvent(tick=2, channel=3, data=[42, 110]),
   midi.NoteOnEvent(tick=160, channel=3, data=[42, 0]),
   midi.NoteOnEvent(tick=32, channel=3, data=[43, 110]),
   midi.NoteOnEvent(tick=160, channel=3, data=[43, 0]),
   midi.NoteOnEvent(tick=32, channel=3, data=[42, 110]),
   midi.NoteOnEvent(tick=160, channel=3, data=[42, 0]),
   midi.NoteOnEvent(tick=32, channel=3, data=[40, 110]),
   midi.NoteOnEvent(tick=94, channel=3, data=[40, 0]),
   midi.NoteOnEvent(tick=2, channel=3, data=[40, 110]),
   midi.NoteOnEvent(tick=94, channel=3, data=[40, 0]),
   midi.NoteOnEvent(tick=2, channel=3, data=[40, 110]),
   midi.NoteOnEvent(tick=94, channel=3, data=[40, 0]),
   midi.NoteOnEvent(tick=2, channel=3, data=[40, 110]),
   midi.NoteOnEvent(tick=94, channel=3, data=[40, 0]),
   midi.NoteOnEvent(tick=2, channel=3, data=[40, 110]),
   midi.NoteOnEvent(tick=94, channel=3, data=[40, 0]),
   midi.NoteOnEvent(tick=2, channel=3, data=[40, 110]),
   midi.NoteOnEvent(tick=94, channel=3, data=[40, 0]),
   midi.NoteOnEvent(tick=2, channel=3, data=[40, 110]),
   midi.NoteOnEvent(tick=94, channel=3, data=[40, 0]),
   midi.NoteOnEvent(tick=2, channel=3, data=[40, 110]),
   midi.NoteOnEvent(tick=94, channel=3, data=[40, 0]),
   midi.NoteOnEvent(tick=2, channel=3, data=[40, 110]),
   midi.NoteOnEvent(tick=94, channel=3, data=[40, 0]),
   midi.NoteOnEvent(tick=2, channel=3, data=[40, 110]),
   midi.NoteOnEvent(tick=256, channel=3, data=[40, 0]),
   midi.NoteOnEvent(tick=32, channel=3, data=[40, 110]),
   midi.NoteOnEvent(tick=94, channel=3, data=[40, 0]),
   midi.NoteOnEvent(tick=2, channel=3, data=[40, 110]),
   midi.NoteOnEvent(tick=94, channel=3, data=[40, 0]),
   midi.NoteOnEvent(tick=2, channel=3, data=[40, 110]),
   midi.NoteOnEvent(tick=94, channel=3, data=[40, 0]),
   midi.NoteOnEvent(tick=2, channel=3, data=[40, 110]),
   midi.NoteOnEvent(tick=94, channel=3, data=[40, 0]),
   midi.NoteOnEvent(tick=2, channel=3, data=[40, 110]),
   midi.NoteOnEvent(tick=94, channel=3, data=[40, 0]),
   midi.NoteOnEvent(tick=2, channel=3, data=[40, 110]),
   midi.NoteOnEvent(tick=94, channel=3, data=[40, 0]),
   midi.NoteOnEvent(tick=2, channel=3, data=[42, 110]),
   midi.NoteOnEvent(tick=160, channel=3, data=[42, 0]),
   midi.NoteOnEvent(tick=32, channel=3, data=[43, 110]),
   midi.NoteOnEvent(tick=160, channel=3, data=[43, 0]),
   midi.NoteOnEvent(tick=32, channel=3, data=[42, 110]),
   midi.NoteOnEvent(tick=160, channel=3, data=[42, 0]),
   midi.NoteOnEvent(tick=32, channel=3, data=[40, 110]),
   midi.NoteOnEvent(tick=94, channel=3, data=[40, 0]),
   midi.NoteOnEvent(tick=2, channel=3, data=[40, 110]),
   midi.NoteOnEvent(tick=94, channel=3, data=[40, 0]),
   midi.NoteOnEvent(tick=2, channel=3, data=[40, 110]),
   midi.NoteOnEvent(tick=94, channel=3, data=[40, 0]),
   midi.NoteOnEvent(tick=2, channel=3, data=[40, 110]),
   midi.NoteOnEvent(tick=94, channel=3, data=[40, 0]),
   midi.NoteOnEvent(tick=2, channel=3, data=[40, 110]),
   midi.NoteOnEvent(tick=94, channel=3, data=[40, 0]),
   midi.NoteOnEvent(tick=2, channel=3, data=[40, 110]),
   midi.NoteOnEvent(tick=94, channel=3, data=[40, 0]),
   midi.NoteOnEvent(tick=2, channel=3, data=[43, 110]),
   midi.NoteOnEvent(tick=160, channel=3, data=[43, 0]),
   midi.NoteOnEvent(tick=32, channel=3, data=[45, 110]),
   midi.NoteOnEvent(tick=160, channel=3, data=[45, 0]),
   midi.NoteOnEvent(tick=32, channel=3, data=[42, 110]),
   midi.NoteOnEvent(tick=160, channel=3, data=[42, 0]),
   midi.NoteOnEvent(tick=32, channel=3, data=[40, 110]),
   midi.NoteOnEvent(tick=94, channel=3, data=[40, 0]),
   midi.NoteOnEvent(tick=2, channel=3, data=[40, 110]),
   midi.NoteOnEvent(tick=94, channel=3, data=[40, 0]),
   midi.NoteOnEvent(tick=2, channel=3, data=[40, 110]),
   midi.NoteOnEvent(tick=94, channel=3, data=[40, 0]),
   midi.NoteOnEvent(tick=2, channel=3, data=[40, 110]),
   midi.NoteOnEvent(tick=94, channel=3, data=[40, 0]),
   midi.NoteOnEvent(tick=2, channel=3, data=[40, 110]),
   midi.NoteOnEvent(tick=94, channel=3, data=[40, 0]),
   midi.NoteOnEvent(tick=2, channel=3, data=[40, 110]),
   midi.NoteOnEvent(tick=94, channel=3, data=[40, 0]),
   midi.NoteOnEvent(tick=2, channel=3, data=[42, 110]),
   midi.NoteOnEvent(tick=160, channel=3, data=[42, 0]),
   midi.NoteOnEvent(tick=32, channel=3, data=[43, 110]),
   midi.NoteOnEvent(tick=160, channel=3, data=[43, 0]),
   midi.NoteOnEvent(tick=32, channel=3, data=[42, 110]),
   midi.NoteOnEvent(tick=160, channel=3, data=[42, 0]),
   midi.NoteOnEvent(tick=32, channel=3, data=[40, 110]),
   midi.NoteOnEvent(tick=94, channel=3, data=[40, 0]),
   midi.NoteOnEvent(tick=2, channel=3, data=[40, 110]),
   midi.NoteOnEvent(tick=94, channel=3, data=[40, 0]),
   midi.NoteOnEvent(tick=2, channel=3, data=[40, 110]),
   midi.NoteOnEvent(tick=94, channel=3, data=[40, 0]),
   midi.NoteOnEvent(tick=2, channel=3, data=[40, 110]),
   midi.NoteOnEvent(tick=94, channel=3, data=[40, 0]),
   midi.NoteOnEvent(tick=2, channel=3, data=[40, 110]),
   midi.NoteOnEvent(tick=94, channel=3, data=[40, 0]),
   midi.NoteOnEvent(tick=2, channel=3, data=[40, 110]),
   midi.NoteOnEvent(tick=94, channel=3, data=[40, 0]),
   midi.NoteOnEvent(tick=2, channel=3, data=[40, 110]),
   midi.NoteOnEvent(tick=94, channel=3, data=[40, 0]),
   midi.NoteOnEvent(tick=2, channel=3, data=[40, 110]),
   midi.NoteOnEvent(tick=94, channel=3, data=[40, 0]),
   midi.NoteOnEvent(tick=2, channel=3, data=[40, 110]),
   midi.NoteOnEvent(tick=94, channel=3, data=[40, 0]),
   midi.NoteOnEvent(tick=2, channel=3, data=[40, 110]),
   midi.NoteOnEvent(tick=1392, channel=3, data=[40, 0]),
   midi.NoteOnEvent(tick=6192, channel=3, data=[40, 110]),
   midi.NoteOnEvent(tick=94, channel=3, data=[40, 0]),
   midi.NoteOnEvent(tick=2, channel=3, data=[40, 110]),
   midi.NoteOnEvent(tick=46, channel=3, data=[40, 0]),
   midi.NoteOnEvent(tick=2, channel=3, data=[40, 110]),
   midi.NoteOnEvent(tick=46, channel=3, data=[40, 0]),
   midi.NoteOnEvent(tick=2, channel=3, data=[40, 110]),
   midi.NoteOnEvent(tick=94, channel=3, data=[40, 0]),
   midi.NoteOnEvent(tick=2, channel=3, data=[40, 110]),
   midi.NoteOnEvent(tick=94, channel=3, data=[40, 0]),
   midi.NoteOnEvent(tick=2, channel=3, data=[40, 110]),
   midi.NoteOnEvent(tick=94, channel=3, data=[40, 0]),
   midi.NoteOnEvent(tick=2, channel=3, data=[40, 110]),
   midi.NoteOnEvent(tick=94, channel=3, data=[40, 0]),
   midi.NoteOnEvent(tick=2, channel=3, data=[40, 110]),
   midi.NoteOnEvent(tick=46, channel=3, data=[40, 0]),
   midi.NoteOnEvent(tick=2, channel=3, data=[40, 110]),
   midi.NoteOnEvent(tick=46, channel=3, data=[40, 0]),
   midi.NoteOnEvent(tick=2, channel=3, data=[40, 110]),
   midi.NoteOnEvent(tick=46, channel=3, data=[40, 0]),
   midi.NoteOnEvent(tick=2, channel=3, data=[40, 110]),
   midi.NoteOnEvent(tick=46, channel=3, data=[40, 0]),
   midi.NoteOnEvent(tick=2, channel=3, data=[40, 110]),
   midi.NoteOnEvent(tick=94, channel=3, data=[40, 0]),
   midi.NoteOnEvent(tick=2, channel=3, data=[40, 110]),
   midi.NoteOnEvent(tick=46, channel=3, data=[40, 0]),
   midi.NoteOnEvent(tick=2, channel=3, data=[40, 110]),
   midi.NoteOnEvent(tick=46, channel=3, data=[40, 0]),
   midi.NoteOnEvent(tick=2, channel=3, data=[40, 110]),
   midi.NoteOnEvent(tick=94, channel=3, data=[40, 0]),
   midi.NoteOnEvent(tick=2, channel=3, data=[40, 110]),
   midi.NoteOnEvent(tick=94, channel=3, data=[40, 0]),
   midi.NoteOnEvent(tick=2, channel=3, data=[40, 110]),
   midi.NoteOnEvent(tick=94, channel=3, data=[40, 0]),
   midi.NoteOnEvent(tick=2, channel=3, data=[40, 110]),
   midi.NoteOnEvent(tick=94, channel=3, data=[40, 0]),
   midi.NoteOnEvent(tick=2, channel=3, data=[40, 110]),
   midi.NoteOnEvent(tick=46, channel=3, data=[40, 0]),
   midi.NoteOnEvent(tick=2, channel=3, data=[40, 110]),
   midi.NoteOnEvent(tick=46, channel=3, data=[40, 0]),
   midi.NoteOnEvent(tick=2, channel=3, data=[40, 110]),
   midi.NoteOnEvent(tick=46, channel=3, data=[40, 0]),
   midi.NoteOnEvent(tick=2, channel=3, data=[40, 110]),
   midi.NoteOnEvent(tick=46, channel=3, data=[40, 0]),
   midi.NoteOnEvent(tick=2, channel=3, data=[40, 110]),
   midi.NoteOnEvent(tick=94, channel=3, data=[40, 0]),
   midi.NoteOnEvent(tick=2, channel=3, data=[40, 110]),
   midi.NoteOnEvent(tick=46, channel=3, data=[40, 0]),
   midi.NoteOnEvent(tick=2, channel=3, data=[40, 110]),
   midi.NoteOnEvent(tick=46, channel=3, data=[40, 0]),
   midi.NoteOnEvent(tick=2, channel=3, data=[40, 110]),
   midi.NoteOnEvent(tick=94, channel=3, data=[40, 0]),
   midi.NoteOnEvent(tick=2, channel=3, data=[40, 110]),
   midi.NoteOnEvent(tick=94, channel=3, data=[40, 0]),
   midi.NoteOnEvent(tick=2, channel=3, data=[40, 110]),
   midi.NoteOnEvent(tick=94, channel=3, data=[40, 0]),
   midi.NoteOnEvent(tick=2, channel=3, data=[40, 110]),
   midi.NoteOnEvent(tick=94, channel=3, data=[40, 0]),
   midi.NoteOnEvent(tick=2, channel=3, data=[40, 110]),
   midi.NoteOnEvent(tick=46, channel=3, data=[40, 0]),
   midi.NoteOnEvent(tick=2, channel=3, data=[40, 110]),
   midi.NoteOnEvent(tick=46, channel=3, data=[40, 0]),
   midi.NoteOnEvent(tick=2, channel=3, data=[40, 110]),
   midi.NoteOnEvent(tick=46, channel=3, data=[40, 0]),
   midi.NoteOnEvent(tick=2, channel=3, data=[40, 110]),
   midi.NoteOnEvent(tick=46, channel=3, data=[40, 0]),
   midi.NoteOnEvent(tick=2, channel=3, data=[40, 110]),
   midi.NoteOnEvent(tick=94, channel=3, data=[40, 0]),
   midi.NoteOnEvent(tick=2, channel=3, data=[40, 110]),
   midi.NoteOnEvent(tick=46, channel=3, data=[40, 0]),
   midi.NoteOnEvent(tick=2, channel=3, data=[40, 110]),
   midi.NoteOnEvent(tick=46, channel=3, data=[40, 0]),
   midi.NoteOnEvent(tick=2, channel=3, data=[40, 110]),
   midi.NoteOnEvent(tick=94, channel=3, data=[40, 0]),
   midi.NoteOnEvent(tick=2, channel=3, data=[40, 110]),
   midi.NoteOnEvent(tick=94, channel=3, data=[40, 0]),
   midi.NoteOnEvent(tick=2, channel=3, data=[40, 110]),
   midi.NoteOnEvent(tick=94, channel=3, data=[40, 0]),
   midi.NoteOnEvent(tick=2, channel=3, data=[40, 110]),
   midi.NoteOnEvent(tick=94, channel=3, data=[40, 0]),
   midi.NoteOnEvent(tick=2, channel=3, data=[40, 110]),
   midi.NoteOnEvent(tick=46, channel=3, data=[40, 0]),
   midi.NoteOnEvent(tick=2, channel=3, data=[40, 110]),
   midi.NoteOnEvent(tick=46, channel=3, data=[40, 0]),
   midi.NoteOnEvent(tick=2, channel=3, data=[40, 110]),
   midi.NoteOnEvent(tick=46, channel=3, data=[40, 0]),
   midi.NoteOnEvent(tick=2, channel=3, data=[40, 110]),
   midi.NoteOnEvent(tick=46, channel=3, data=[40, 0]),
   midi.NoteOnEvent(tick=2, channel=3, data=[40, 110]),
   midi.NoteOnEvent(tick=94, channel=3, data=[40, 0]),
   midi.NoteOnEvent(tick=2, channel=3, data=[40, 110]),
   midi.NoteOnEvent(tick=46, channel=3, data=[40, 0]),
   midi.NoteOnEvent(tick=2, channel=3, data=[40, 110]),
   midi.NoteOnEvent(tick=46, channel=3, data=[40, 0]),
   midi.NoteOnEvent(tick=2, channel=3, data=[40, 110]),
   midi.NoteOnEvent(tick=94, channel=3, data=[40, 0]),
   midi.NoteOnEvent(tick=2, channel=3, data=[40, 110]),
   midi.NoteOnEvent(tick=94, channel=3, data=[40, 0]),
   midi.NoteOnEvent(tick=2, channel=3, data=[40, 110]),
   midi.NoteOnEvent(tick=94, channel=3, data=[40, 0]),
   midi.NoteOnEvent(tick=2, channel=3, data=[40, 110]),
   midi.NoteOnEvent(tick=94, channel=3, data=[40, 0]),
   midi.NoteOnEvent(tick=2, channel=3, data=[40, 110]),
   midi.NoteOnEvent(tick=46, channel=3, data=[40, 0]),
   midi.NoteOnEvent(tick=2, channel=3, data=[40, 110]),
   midi.NoteOnEvent(tick=46, channel=3, data=[40, 0]),
   midi.NoteOnEvent(tick=2, channel=3, data=[40, 110]),
   midi.NoteOnEvent(tick=46, channel=3, data=[40, 0]),
   midi.NoteOnEvent(tick=2, channel=3, data=[40, 110]),
   midi.NoteOnEvent(tick=46, channel=3, data=[40, 0]),
   midi.NoteOnEvent(tick=2, channel=3, data=[40, 110]),
   midi.NoteOnEvent(tick=94, channel=3, data=[40, 0]),
   midi.NoteOnEvent(tick=2, channel=3, data=[40, 110]),
   midi.NoteOnEvent(tick=46, channel=3, data=[40, 0]),
   midi.NoteOnEvent(tick=2, channel=3, data=[40, 110]),
   midi.NoteOnEvent(tick=46, channel=3, data=[40, 0]),
   midi.NoteOnEvent(tick=2, channel=3, data=[40, 110]),
   midi.NoteOnEvent(tick=94, channel=3, data=[40, 0]),
   midi.NoteOnEvent(tick=2, channel=3, data=[40, 110]),
   midi.NoteOnEvent(tick=94, channel=3, data=[40, 0]),
   midi.NoteOnEvent(tick=2, channel=3, data=[40, 110]),
   midi.NoteOnEvent(tick=94, channel=3, data=[40, 0]),
   midi.NoteOnEvent(tick=2, channel=3, data=[40, 110]),
   midi.NoteOnEvent(tick=94, channel=3, data=[40, 0]),
   midi.NoteOnEvent(tick=2, channel=3, data=[40, 110]),
   midi.NoteOnEvent(tick=46, channel=3, data=[40, 0]),
   midi.NoteOnEvent(tick=2, channel=3, data=[40, 110]),
   midi.NoteOnEvent(tick=46, channel=3, data=[40, 0]),
   midi.NoteOnEvent(tick=2, channel=3, data=[40, 110]),
   midi.NoteOnEvent(tick=46, channel=3, data=[40, 0]),
   midi.NoteOnEvent(tick=2, channel=3, data=[40, 110]),
   midi.NoteOnEvent(tick=46, channel=3, data=[40, 0]),
   midi.NoteOnEvent(tick=2, channel=3, data=[40, 110]),
   midi.NoteOnEvent(tick=94, channel=3, data=[40, 0]),
   midi.NoteOnEvent(tick=2, channel=3, data=[40, 110]),
   midi.NoteOnEvent(tick=46, channel=3, data=[40, 0]),
   midi.NoteOnEvent(tick=2, channel=3, data=[40, 110]),
   midi.NoteOnEvent(tick=46, channel=3, data=[40, 0]),
   midi.NoteOnEvent(tick=2, channel=3, data=[40, 110]),
   midi.NoteOnEvent(tick=94, channel=3, data=[40, 0]),
   midi.NoteOnEvent(tick=2, channel=3, data=[40, 110]),
   midi.NoteOnEvent(tick=94, channel=3, data=[40, 0]),
   midi.NoteOnEvent(tick=2, channel=3, data=[40, 110]),
   midi.NoteOnEvent(tick=94, channel=3, data=[40, 0]),
   midi.NoteOnEvent(tick=2, channel=3, data=[40, 110]),
   midi.NoteOnEvent(tick=94, channel=3, data=[40, 0]),
   midi.NoteOnEvent(tick=2, channel=3, data=[40, 110]),
   midi.NoteOnEvent(tick=46, channel=3, data=[40, 0]),
   midi.NoteOnEvent(tick=2, channel=3, data=[40, 110]),
   midi.NoteOnEvent(tick=46, channel=3, data=[40, 0]),
   midi.NoteOnEvent(tick=2, channel=3, data=[40, 110]),
   midi.NoteOnEvent(tick=46, channel=3, data=[40, 0]),
   midi.NoteOnEvent(tick=2, channel=3, data=[40, 110]),
   midi.NoteOnEvent(tick=46, channel=3, data=[40, 0]),
   midi.NoteOnEvent(tick=2, channel=3, data=[40, 110]),
   midi.NoteOnEvent(tick=94, channel=3, data=[40, 0]),
   midi.NoteOnEvent(tick=2, channel=3, data=[40, 110]),
   midi.NoteOnEvent(tick=46, channel=3, data=[40, 0]),
   midi.NoteOnEvent(tick=2, channel=3, data=[40, 110]),
   midi.NoteOnEvent(tick=46, channel=3, data=[40, 0]),
   midi.NoteOnEvent(tick=2, channel=3, data=[40, 110]),
   midi.NoteOnEvent(tick=94, channel=3, data=[40, 0]),
   midi.NoteOnEvent(tick=2, channel=3, data=[40, 110]),
   midi.NoteOnEvent(tick=94, channel=3, data=[40, 0]),
   midi.NoteOnEvent(tick=2, channel=3, data=[40, 110]),
   midi.NoteOnEvent(tick=94, channel=3, data=[40, 0]),
   midi.NoteOnEvent(tick=2, channel=3, data=[40, 110]),
   midi.NoteOnEvent(tick=94, channel=3, data=[40, 0]),
   midi.NoteOnEvent(tick=2, channel=3, data=[40, 110]),
   midi.NoteOnEvent(tick=46, channel=3, data=[40, 0]),
   midi.NoteOnEvent(tick=2, channel=3, data=[40, 110]),
   midi.NoteOnEvent(tick=46, channel=3, data=[40, 0]),
   midi.NoteOnEvent(tick=2, channel=3, data=[40, 110]),
   midi.NoteOnEvent(tick=46, channel=3, data=[40, 0]),
   midi.NoteOnEvent(tick=2, channel=3, data=[40, 110]),
   midi.NoteOnEvent(tick=46, channel=3, data=[40, 0]),
   midi.NoteOnEvent(tick=2, channel=3, data=[40, 110]),
   midi.NoteOnEvent(tick=94, channel=3, data=[40, 0]),
   midi.NoteOnEvent(tick=2, channel=3, data=[40, 110]),
   midi.NoteOnEvent(tick=46, channel=3, data=[40, 0]),
   midi.NoteOnEvent(tick=2, channel=3, data=[40, 110]),
   midi.NoteOnEvent(tick=46, channel=3, data=[40, 0]),
   midi.NoteOnEvent(tick=2, channel=3, data=[40, 110]),
   midi.NoteOnEvent(tick=94, channel=3, data=[40, 0]),
   midi.NoteOnEvent(tick=2, channel=3, data=[40, 110]),
   midi.NoteOnEvent(tick=94, channel=3, data=[40, 0]),
   midi.NoteOnEvent(tick=2, channel=3, data=[40, 110]),
   midi.NoteOnEvent(tick=94, channel=3, data=[40, 0]),
   midi.NoteOnEvent(tick=2, channel=3, data=[40, 110]),
   midi.NoteOnEvent(tick=94, channel=3, data=[40, 0]),
   midi.NoteOnEvent(tick=2, channel=3, data=[40, 110]),
   midi.NoteOnEvent(tick=46, channel=3, data=[40, 0]),
   midi.NoteOnEvent(tick=2, channel=3, data=[40, 110]),
   midi.NoteOnEvent(tick=46, channel=3, data=[40, 0]),
   midi.NoteOnEvent(tick=2, channel=3, data=[40, 110]),
   midi.NoteOnEvent(tick=46, channel=3, data=[40, 0]),
   midi.NoteOnEvent(tick=2, channel=3, data=[40, 110]),
   midi.NoteOnEvent(tick=46, channel=3, data=[40, 0]),
   midi.NoteOnEvent(tick=2, channel=3, data=[40, 110]),
   midi.NoteOnEvent(tick=94, channel=3, data=[40, 0]),
   midi.NoteOnEvent(tick=2, channel=3, data=[40, 110]),
   midi.NoteOnEvent(tick=46, channel=3, data=[40, 0]),
   midi.NoteOnEvent(tick=2, channel=3, data=[40, 110]),
   midi.NoteOnEvent(tick=46, channel=3, data=[40, 0]),
   midi.NoteOnEvent(tick=2, channel=3, data=[40, 110]),
   midi.NoteOnEvent(tick=94, channel=3, data=[40, 0]),
   midi.NoteOnEvent(tick=2, channel=3, data=[40, 110]),
   midi.NoteOnEvent(tick=94, channel=3, data=[40, 0]),
   midi.NoteOnEvent(tick=2, channel=3, data=[40, 110]),
   midi.NoteOnEvent(tick=94, channel=3, data=[40, 0]),
   midi.NoteOnEvent(tick=2, channel=3, data=[40, 110]),
   midi.NoteOnEvent(tick=94, channel=3, data=[40, 0]),
   midi.NoteOnEvent(tick=2, channel=3, data=[40, 110]),
   midi.NoteOnEvent(tick=46, channel=3, data=[40, 0]),
   midi.NoteOnEvent(tick=2, channel=3, data=[40, 110]),
   midi.NoteOnEvent(tick=46, channel=3, data=[40, 0]),
   midi.NoteOnEvent(tick=2, channel=3, data=[40, 110]),
   midi.NoteOnEvent(tick=46, channel=3, data=[40, 0]),
   midi.NoteOnEvent(tick=2, channel=3, data=[40, 110]),
   midi.NoteOnEvent(tick=46, channel=3, data=[40, 0]),
   midi.NoteOnEvent(tick=2, channel=3, data=[40, 110]),
   midi.NoteOnEvent(tick=94, channel=3, data=[40, 0]),
   midi.NoteOnEvent(tick=2, channel=3, data=[40, 110]),
   midi.NoteOnEvent(tick=46, channel=3, data=[40, 0]),
   midi.NoteOnEvent(tick=2, channel=3, data=[40, 110]),
   midi.NoteOnEvent(tick=46, channel=3, data=[40, 0]),
   midi.NoteOnEvent(tick=2, channel=3, data=[40, 110]),
   midi.NoteOnEvent(tick=94, channel=3, data=[40, 0]),
   midi.NoteOnEvent(tick=2, channel=3, data=[40, 110]),
   midi.NoteOnEvent(tick=94, channel=3, data=[40, 0]),
   midi.NoteOnEvent(tick=2, channel=3, data=[40, 110]),
   midi.NoteOnEvent(tick=94, channel=3, data=[40, 0]),
   midi.NoteOnEvent(tick=2, channel=3, data=[40, 110]),
   midi.NoteOnEvent(tick=94, channel=3, data=[40, 0]),
   midi.NoteOnEvent(tick=2, channel=3, data=[40, 110]),
   midi.NoteOnEvent(tick=46, channel=3, data=[40, 0]),
   midi.NoteOnEvent(tick=2, channel=3, data=[40, 110]),
   midi.NoteOnEvent(tick=46, channel=3, data=[40, 0]),
   midi.NoteOnEvent(tick=2, channel=3, data=[40, 110]),
   midi.NoteOnEvent(tick=46, channel=3, data=[40, 0]),
   midi.NoteOnEvent(tick=2, channel=3, data=[40, 110]),
   midi.NoteOnEvent(tick=46, channel=3, data=[40, 0]),
   midi.NoteOnEvent(tick=2, channel=3, data=[40, 110]),
   midi.NoteOnEvent(tick=94, channel=3, data=[40, 0]),
   midi.NoteOnEvent(tick=2, channel=3, data=[40, 110]),
   midi.NoteOnEvent(tick=46, channel=3, data=[40, 0]),
   midi.NoteOnEvent(tick=2, channel=3, data=[40, 110]),
   midi.NoteOnEvent(tick=46, channel=3, data=[40, 0]),
   midi.NoteOnEvent(tick=2, channel=3, data=[40, 110]),
   midi.NoteOnEvent(tick=94, channel=3, data=[40, 0]),
   midi.NoteOnEvent(tick=2, channel=3, data=[40, 110]),
   midi.NoteOnEvent(tick=94, channel=3, data=[40, 0]),
   midi.NoteOnEvent(tick=2, channel=3, data=[40, 110]),
   midi.NoteOnEvent(tick=94, channel=3, data=[40, 0]),
   midi.NoteOnEvent(tick=2, channel=3, data=[40, 110]),
   midi.NoteOnEvent(tick=94, channel=3, data=[40, 0]),
   midi.NoteOnEvent(tick=2, channel=3, data=[40, 110]),
   midi.NoteOnEvent(tick=46, channel=3, data=[40, 0]),
   midi.NoteOnEvent(tick=2, channel=3, data=[40, 110]),
   midi.NoteOnEvent(tick=46, channel=3, data=[40, 0]),
   midi.NoteOnEvent(tick=2, channel=3, data=[40, 110]),
   midi.NoteOnEvent(tick=46, channel=3, data=[40, 0]),
   midi.NoteOnEvent(tick=2, channel=3, data=[40, 110]),
   midi.NoteOnEvent(tick=46, channel=3, data=[40, 0]),
   midi.NoteOnEvent(tick=2, channel=3, data=[40, 110]),
   midi.NoteOnEvent(tick=94, channel=3, data=[40, 0]),
   midi.NoteOnEvent(tick=2, channel=3, data=[40, 110]),
   midi.NoteOnEvent(tick=46, channel=3, data=[40, 0]),
   midi.NoteOnEvent(tick=2, channel=3, data=[40, 110]),
   midi.NoteOnEvent(tick=46, channel=3, data=[40, 0]),
   midi.NoteOnEvent(tick=2, channel=3, data=[40, 110]),
   midi.NoteOnEvent(tick=94, channel=3, data=[40, 0]),
   midi.NoteOnEvent(tick=2, channel=3, data=[40, 110]),
   midi.NoteOnEvent(tick=94, channel=3, data=[40, 0]),
   midi.NoteOnEvent(tick=2, channel=3, data=[40, 110]),
   midi.NoteOnEvent(tick=94, channel=3, data=[40, 0]),
   midi.NoteOnEvent(tick=2, channel=3, data=[40, 110]),
   midi.NoteOnEvent(tick=94, channel=3, data=[40, 0]),
   midi.NoteOnEvent(tick=2, channel=3, data=[40, 110]),
   midi.NoteOnEvent(tick=46, channel=3, data=[40, 0]),
   midi.NoteOnEvent(tick=2, channel=3, data=[40, 110]),
   midi.NoteOnEvent(tick=46, channel=3, data=[40, 0]),
   midi.NoteOnEvent(tick=2, channel=3, data=[40, 110]),
   midi.NoteOnEvent(tick=46, channel=3, data=[40, 0]),
   midi.NoteOnEvent(tick=2, channel=3, data=[40, 110]),
   midi.NoteOnEvent(tick=46, channel=3, data=[40, 0]),
   midi.NoteOnEvent(tick=2, channel=3, data=[40, 110]),
   midi.NoteOnEvent(tick=94, channel=3, data=[40, 0]),
   midi.NoteOnEvent(tick=2, channel=3, data=[40, 110]),
   midi.NoteOnEvent(tick=46, channel=3, data=[40, 0]),
   midi.NoteOnEvent(tick=2, channel=3, data=[40, 110]),
   midi.NoteOnEvent(tick=46, channel=3, data=[40, 0]),
   midi.NoteOnEvent(tick=2, channel=3, data=[40, 110]),
   midi.NoteOnEvent(tick=94, channel=3, data=[40, 0]),
   midi.NoteOnEvent(tick=2, channel=3, data=[40, 110]),
   midi.NoteOnEvent(tick=94, channel=3, data=[40, 0]),
   midi.NoteOnEvent(tick=2, channel=3, data=[40, 110]),
   midi.NoteOnEvent(tick=94, channel=3, data=[40, 0]),
   midi.NoteOnEvent(tick=2, channel=3, data=[40, 110]),
   midi.NoteOnEvent(tick=94, channel=3, data=[40, 0]),
   midi.NoteOnEvent(tick=2, channel=3, data=[40, 110]),
   midi.NoteOnEvent(tick=46, channel=3, data=[40, 0]),
   midi.NoteOnEvent(tick=2, channel=3, data=[40, 110]),
   midi.NoteOnEvent(tick=46, channel=3, data=[40, 0]),
   midi.NoteOnEvent(tick=2, channel=3, data=[40, 110]),
   midi.NoteOnEvent(tick=46, channel=3, data=[40, 0]),
   midi.NoteOnEvent(tick=2, channel=3, data=[40, 110]),
   midi.NoteOnEvent(tick=46, channel=3, data=[40, 0]),
   midi.NoteOnEvent(tick=2, channel=3, data=[40, 110]),
   midi.NoteOnEvent(tick=94, channel=3, data=[40, 0]),
   midi.NoteOnEvent(tick=2, channel=3, data=[40, 110]),
   midi.NoteOnEvent(tick=46, channel=3, data=[40, 0]),
   midi.NoteOnEvent(tick=2, channel=3, data=[40, 110]),
   midi.NoteOnEvent(tick=46, channel=3, data=[40, 0]),
   midi.NoteOnEvent(tick=2, channel=3, data=[40, 110]),
   midi.NoteOnEvent(tick=94, channel=3, data=[40, 0]),
   midi.NoteOnEvent(tick=2, channel=3, data=[40, 110]),
   midi.NoteOnEvent(tick=94, channel=3, data=[40, 0]),
   midi.NoteOnEvent(tick=2, channel=3, data=[40, 110]),
   midi.NoteOnEvent(tick=94, channel=3, data=[40, 0]),
   midi.NoteOnEvent(tick=2, channel=3, data=[40, 110]),
   midi.NoteOnEvent(tick=94, channel=3, data=[40, 0]),
   midi.NoteOnEvent(tick=2, channel=3, data=[40, 110]),
   midi.NoteOnEvent(tick=46, channel=3, data=[40, 0]),
   midi.NoteOnEvent(tick=2, channel=3, data=[40, 110]),
   midi.NoteOnEvent(tick=46, channel=3, data=[40, 0]),
   midi.NoteOnEvent(tick=2, channel=3, data=[40, 110]),
   midi.NoteOnEvent(tick=46, channel=3, data=[40, 0]),
   midi.NoteOnEvent(tick=2, channel=3, data=[40, 110]),
   midi.NoteOnEvent(tick=46, channel=3, data=[40, 0]),
   midi.NoteOnEvent(tick=2, channel=3, data=[40, 110]),
   midi.NoteOnEvent(tick=94, channel=3, data=[40, 0]),
   midi.NoteOnEvent(tick=2, channel=3, data=[40, 110]),
   midi.NoteOnEvent(tick=46, channel=3, data=[40, 0]),
   midi.NoteOnEvent(tick=2, channel=3, data=[40, 110]),
   midi.NoteOnEvent(tick=46, channel=3, data=[40, 0]),
   midi.NoteOnEvent(tick=2, channel=3, data=[40, 110]),
   midi.NoteOnEvent(tick=94, channel=3, data=[40, 0]),
   midi.NoteOnEvent(tick=2, channel=3, data=[40, 110]),
   midi.NoteOnEvent(tick=94, channel=3, data=[40, 0]),
   midi.NoteOnEvent(tick=2, channel=3, data=[40, 110]),
   midi.NoteOnEvent(tick=94, channel=3, data=[40, 0]),
   midi.NoteOnEvent(tick=2, channel=3, data=[40, 110]),
   midi.NoteOnEvent(tick=94, channel=3, data=[40, 0]),
   midi.NoteOnEvent(tick=2, channel=3, data=[40, 110]),
   midi.NoteOnEvent(tick=46, channel=3, data=[40, 0]),
   midi.NoteOnEvent(tick=2, channel=3, data=[40, 110]),
   midi.NoteOnEvent(tick=46, channel=3, data=[40, 0]),
   midi.NoteOnEvent(tick=2, channel=3, data=[40, 110]),
   midi.NoteOnEvent(tick=46, channel=3, data=[40, 0]),
   midi.NoteOnEvent(tick=2, channel=3, data=[40, 110]),
   midi.NoteOnEvent(tick=46, channel=3, data=[40, 0]),
   midi.NoteOnEvent(tick=2, channel=3, data=[40, 110]),
   midi.NoteOnEvent(tick=94, channel=3, data=[40, 0]),
   midi.NoteOnEvent(tick=2, channel=3, data=[40, 110]),
   midi.NoteOnEvent(tick=46, channel=3, data=[40, 0]),
   midi.NoteOnEvent(tick=2, channel=3, data=[40, 110]),
   midi.NoteOnEvent(tick=46, channel=3, data=[40, 0]),
   midi.NoteOnEvent(tick=2, channel=3, data=[40, 110]),
   midi.NoteOnEvent(tick=94, channel=3, data=[40, 0]),
   midi.NoteOnEvent(tick=2, channel=3, data=[40, 110]),
   midi.NoteOnEvent(tick=94, channel=3, data=[40, 0]),
   midi.NoteOnEvent(tick=2, channel=3, data=[40, 110]),
   midi.NoteOnEvent(tick=94, channel=3, data=[40, 0]),
   midi.NoteOnEvent(tick=2, channel=3, data=[40, 110]),
   midi.NoteOnEvent(tick=94, channel=3, data=[40, 0]),
   midi.NoteOnEvent(tick=2, channel=3, data=[40, 110]),
   midi.NoteOnEvent(tick=46, channel=3, data=[40, 0]),
   midi.NoteOnEvent(tick=2, channel=3, data=[40, 110]),
   midi.NoteOnEvent(tick=46, channel=3, data=[40, 0]),
   midi.NoteOnEvent(tick=2, channel=3, data=[40, 110]),
   midi.NoteOnEvent(tick=46, channel=3, data=[40, 0]),
   midi.NoteOnEvent(tick=2, channel=3, data=[40, 110]),
   midi.NoteOnEvent(tick=46, channel=3, data=[40, 0]),
   midi.NoteOnEvent(tick=2, channel=3, data=[40, 110]),
   midi.NoteOnEvent(tick=94, channel=3, data=[40, 0]),
   midi.NoteOnEvent(tick=2, channel=3, data=[40, 110]),
   midi.NoteOnEvent(tick=46, channel=3, data=[40, 0]),
   midi.NoteOnEvent(tick=2, channel=3, data=[40, 110]),
   midi.NoteOnEvent(tick=46, channel=3, data=[40, 0]),
   midi.NoteOnEvent(tick=2, channel=3, data=[40, 110]),
   midi.NoteOnEvent(tick=94, channel=3, data=[40, 0]),
   midi.NoteOnEvent(tick=2, channel=3, data=[40, 110]),
   midi.NoteOnEvent(tick=94, channel=3, data=[40, 0]),
   midi.NoteOnEvent(tick=2, channel=3, data=[40, 110]),
   midi.NoteOnEvent(tick=94, channel=3, data=[40, 0]),
   midi.NoteOnEvent(tick=2, channel=3, data=[40, 110]),
   midi.NoteOnEvent(tick=94, channel=3, data=[40, 0]),
   midi.NoteOnEvent(tick=2, channel=3, data=[40, 110]),
   midi.NoteOnEvent(tick=46, channel=3, data=[40, 0]),
   midi.NoteOnEvent(tick=2, channel=3, data=[40, 110]),
   midi.NoteOnEvent(tick=46, channel=3, data=[40, 0]),
   midi.NoteOnEvent(tick=2, channel=3, data=[40, 110]),
   midi.NoteOnEvent(tick=46, channel=3, data=[40, 0]),
   midi.NoteOnEvent(tick=2, channel=3, data=[40, 110]),
   midi.NoteOnEvent(tick=46, channel=3, data=[40, 0]),
   midi.NoteOnEvent(tick=2, channel=3, data=[40, 110]),
   midi.NoteOnEvent(tick=94, channel=3, data=[40, 0]),
   midi.NoteOnEvent(tick=2, channel=3, data=[40, 110]),
   midi.NoteOnEvent(tick=46, channel=3, data=[40, 0]),
   midi.NoteOnEvent(tick=2, channel=3, data=[40, 110]),
   midi.NoteOnEvent(tick=46, channel=3, data=[40, 0]),
   midi.NoteOnEvent(tick=2, channel=3, data=[40, 110]),
   midi.NoteOnEvent(tick=94, channel=3, data=[40, 0]),
   midi.NoteOnEvent(tick=2, channel=3, data=[40, 110]),
   midi.NoteOnEvent(tick=94, channel=3, data=[40, 0]),
   midi.NoteOnEvent(tick=2, channel=3, data=[40, 110]),
   midi.NoteOnEvent(tick=94, channel=3, data=[40, 0]),
   midi.NoteOnEvent(tick=2, channel=3, data=[40, 110]),
   midi.NoteOnEvent(tick=94, channel=3, data=[40, 0]),
   midi.NoteOnEvent(tick=2, channel=3, data=[40, 110]),
   midi.NoteOnEvent(tick=46, channel=3, data=[40, 0]),
   midi.NoteOnEvent(tick=2, channel=3, data=[40, 110]),
   midi.NoteOnEvent(tick=46, channel=3, data=[40, 0]),
   midi.NoteOnEvent(tick=2, channel=3, data=[40, 110]),
   midi.NoteOnEvent(tick=46, channel=3, data=[40, 0]),
   midi.NoteOnEvent(tick=2, channel=3, data=[40, 110]),
   midi.NoteOnEvent(tick=46, channel=3, data=[40, 0]),
   midi.NoteOnEvent(tick=2, channel=3, data=[40, 110]),
   midi.NoteOnEvent(tick=94, channel=3, data=[40, 0]),
   midi.NoteOnEvent(tick=2, channel=3, data=[40, 110]),
   midi.NoteOnEvent(tick=46, channel=3, data=[40, 0]),
   midi.NoteOnEvent(tick=2, channel=3, data=[40, 110]),
   midi.NoteOnEvent(tick=46, channel=3, data=[40, 0]),
   midi.NoteOnEvent(tick=2, channel=3, data=[40, 110]),
   midi.NoteOnEvent(tick=94, channel=3, data=[40, 0]),
   midi.NoteOnEvent(tick=2, channel=3, data=[40, 110]),
   midi.NoteOnEvent(tick=94, channel=3, data=[40, 0]),
   midi.NoteOnEvent(tick=2, channel=3, data=[40, 110]),
   midi.NoteOnEvent(tick=94, channel=3, data=[40, 0]),
   midi.NoteOnEvent(tick=2, channel=3, data=[40, 110]),
   midi.NoteOnEvent(tick=94, channel=3, data=[40, 0]),
   midi.NoteOnEvent(tick=2, channel=3, data=[40, 110]),
   midi.NoteOnEvent(tick=46, channel=3, data=[40, 0]),
   midi.NoteOnEvent(tick=2, channel=3, data=[40, 110]),
   midi.NoteOnEvent(tick=46, channel=3, data=[40, 0]),
   midi.NoteOnEvent(tick=2, channel=3, data=[40, 110]),
   midi.NoteOnEvent(tick=46, channel=3, data=[40, 0]),
   midi.NoteOnEvent(tick=2, channel=3, data=[40, 110]),
   midi.NoteOnEvent(tick=46, channel=3, data=[40, 0]),
   midi.NoteOnEvent(tick=2, channel=3, data=[40, 110]),
   midi.NoteOnEvent(tick=94, channel=3, data=[40, 0]),
   midi.NoteOnEvent(tick=2, channel=3, data=[40, 110]),
   midi.NoteOnEvent(tick=46, channel=3, data=[40, 0]),
   midi.NoteOnEvent(tick=2, channel=3, data=[40, 110]),
   midi.NoteOnEvent(tick=46, channel=3, data=[40, 0]),
   midi.NoteOnEvent(tick=2, channel=3, data=[40, 110]),
   midi.NoteOnEvent(tick=94, channel=3, data=[40, 0]),
   midi.NoteOnEvent(tick=2, channel=3, data=[40, 110]),
   midi.NoteOnEvent(tick=94, channel=3, data=[40, 0]),
   midi.NoteOnEvent(tick=2, channel=3, data=[40, 110]),
   midi.NoteOnEvent(tick=94, channel=3, data=[40, 0]),
   midi.NoteOnEvent(tick=2, channel=3, data=[40, 110]),
   midi.NoteOnEvent(tick=94, channel=3, data=[40, 0]),
   midi.NoteOnEvent(tick=2, channel=3, data=[40, 110]),
   midi.NoteOnEvent(tick=46, channel=3, data=[40, 0]),
   midi.NoteOnEvent(tick=2, channel=3, data=[40, 110]),
   midi.NoteOnEvent(tick=46, channel=3, data=[40, 0]),
   midi.NoteOnEvent(tick=2, channel=3, data=[40, 110]),
   midi.NoteOnEvent(tick=46, channel=3, data=[40, 0]),
   midi.NoteOnEvent(tick=2, channel=3, data=[40, 110]),
   midi.NoteOnEvent(tick=46, channel=3, data=[40, 0]),
   midi.NoteOnEvent(tick=2, channel=3, data=[40, 110]),
   midi.NoteOnEvent(tick=94, channel=3, data=[40, 0]),
   midi.NoteOnEvent(tick=2, channel=3, data=[40, 110]),
   midi.NoteOnEvent(tick=46, channel=3, data=[40, 0]),
   midi.NoteOnEvent(tick=2, channel=3, data=[40, 110]),
   midi.NoteOnEvent(tick=46, channel=3, data=[40, 0]),
   midi.NoteOnEvent(tick=2, channel=3, data=[40, 110]),
   midi.NoteOnEvent(tick=94, channel=3, data=[40, 0]),
   midi.NoteOnEvent(tick=2, channel=3, data=[40, 110]),
   midi.NoteOnEvent(tick=94, channel=3, data=[40, 0]),
   midi.NoteOnEvent(tick=2, channel=3, data=[40, 110]),
   midi.NoteOnEvent(tick=94, channel=3, data=[40, 0]),
   midi.NoteOnEvent(tick=2, channel=3, data=[40, 110]),
   midi.NoteOnEvent(tick=94, channel=3, data=[40, 0]),
   midi.NoteOnEvent(tick=2, channel=3, data=[40, 110]),
   midi.NoteOnEvent(tick=46, channel=3, data=[40, 0]),
   midi.NoteOnEvent(tick=2, channel=3, data=[40, 110]),
   midi.NoteOnEvent(tick=46, channel=3, data=[40, 0]),
   midi.NoteOnEvent(tick=2, channel=3, data=[40, 110]),
   midi.NoteOnEvent(tick=46, channel=3, data=[40, 0]),
   midi.NoteOnEvent(tick=2, channel=3, data=[40, 110]),
   midi.NoteOnEvent(tick=46, channel=3, data=[40, 0]),
   midi.NoteOnEvent(tick=2, channel=3, data=[40, 110]),
   midi.NoteOnEvent(tick=94, channel=3, data=[40, 0]),
   midi.NoteOnEvent(tick=2, channel=3, data=[40, 110]),
   midi.NoteOnEvent(tick=46, channel=3, data=[40, 0]),
   midi.NoteOnEvent(tick=2, channel=3, data=[40, 110]),
   midi.NoteOnEvent(tick=46, channel=3, data=[40, 0]),
   midi.NoteOnEvent(tick=2, channel=3, data=[40, 110]),
   midi.NoteOnEvent(tick=94, channel=3, data=[40, 0]),
   midi.NoteOnEvent(tick=2, channel=3, data=[40, 110]),
   midi.NoteOnEvent(tick=94, channel=3, data=[40, 0]),
   midi.NoteOnEvent(tick=2, channel=3, data=[40, 110]),
   midi.NoteOnEvent(tick=94, channel=3, data=[40, 0]),
   midi.NoteOnEvent(tick=2, channel=3, data=[40, 110]),
   midi.NoteOnEvent(tick=94, channel=3, data=[40, 0]),
   midi.NoteOnEvent(tick=2, channel=3, data=[40, 110]),
   midi.NoteOnEvent(tick=46, channel=3, data=[40, 0]),
   midi.NoteOnEvent(tick=2, channel=3, data=[40, 110]),
   midi.NoteOnEvent(tick=46, channel=3, data=[40, 0]),
   midi.NoteOnEvent(tick=2, channel=3, data=[40, 110]),
   midi.NoteOnEvent(tick=46, channel=3, data=[40, 0]),
   midi.NoteOnEvent(tick=2, channel=3, data=[40, 110]),
   midi.NoteOnEvent(tick=46, channel=3, data=[40, 0]),
   midi.NoteOnEvent(tick=2, channel=3, data=[40, 110]),
   midi.NoteOnEvent(tick=94, channel=3, data=[40, 0]),
   midi.NoteOnEvent(tick=2, channel=3, data=[40, 110]),
   midi.NoteOnEvent(tick=46, channel=3, data=[40, 0]),
   midi.NoteOnEvent(tick=2, channel=3, data=[40, 110]),
   midi.NoteOnEvent(tick=46, channel=3, data=[40, 0]),
   midi.NoteOnEvent(tick=2, channel=3, data=[40, 110]),
   midi.NoteOnEvent(tick=94, channel=3, data=[40, 0]),
   midi.NoteOnEvent(tick=2, channel=3, data=[40, 110]),
   midi.NoteOnEvent(tick=94, channel=3, data=[40, 0]),
   midi.NoteOnEvent(tick=2, channel=3, data=[40, 110]),
   midi.NoteOnEvent(tick=94, channel=3, data=[40, 0]),
   midi.NoteOnEvent(tick=2, channel=3, data=[40, 110]),
   midi.NoteOnEvent(tick=94, channel=3, data=[40, 0]),
   midi.NoteOnEvent(tick=2, channel=3, data=[40, 110]),
   midi.NoteOnEvent(tick=46, channel=3, data=[40, 0]),
   midi.NoteOnEvent(tick=2, channel=3, data=[40, 110]),
   midi.NoteOnEvent(tick=46, channel=3, data=[40, 0]),
   midi.NoteOnEvent(tick=2, channel=3, data=[40, 110]),
   midi.NoteOnEvent(tick=46, channel=3, data=[40, 0]),
   midi.NoteOnEvent(tick=2, channel=3, data=[40, 110]),
   midi.NoteOnEvent(tick=46, channel=3, data=[40, 0]),
   midi.NoteOnEvent(tick=2, channel=3, data=[49, 110]),
   midi.NoteOnEvent(tick=94, channel=3, data=[49, 0]),
   midi.NoteOnEvent(tick=2, channel=3, data=[49, 110]),
   midi.NoteOnEvent(tick=46, channel=3, data=[49, 0]),
   midi.NoteOnEvent(tick=2, channel=3, data=[49, 110]),
   midi.NoteOnEvent(tick=46, channel=3, data=[49, 0]),
   midi.NoteOnEvent(tick=2, channel=3, data=[49, 110]),
   midi.NoteOnEvent(tick=46, channel=3, data=[49, 0]),
   midi.NoteOnEvent(tick=2, channel=3, data=[49, 110]),
   midi.NoteOnEvent(tick=46, channel=3, data=[49, 0]),
   midi.NoteOnEvent(tick=2, channel=3, data=[49, 110]),
   midi.NoteOnEvent(tick=46, channel=3, data=[49, 0]),
   midi.NoteOnEvent(tick=2, channel=3, data=[49, 110]),
   midi.NoteOnEvent(tick=46, channel=3, data=[49, 0]),
   midi.NoteOnEvent(tick=2, channel=3, data=[49, 110]),
   midi.NoteOnEvent(tick=94, channel=3, data=[49, 0]),
   midi.NoteOnEvent(tick=2, channel=3, data=[49, 110]),
   midi.NoteOnEvent(tick=46, channel=3, data=[49, 0]),
   midi.NoteOnEvent(tick=2, channel=3, data=[49, 110]),
   midi.NoteOnEvent(tick=46, channel=3, data=[49, 0]),
   midi.NoteOnEvent(tick=2, channel=3, data=[49, 110]),
   midi.NoteOnEvent(tick=46, channel=3, data=[49, 0]),
   midi.NoteOnEvent(tick=2, channel=3, data=[49, 110]),
   midi.NoteOnEvent(tick=46, channel=3, data=[49, 0]),
   midi.NoteOnEvent(tick=2, channel=3, data=[49, 110]),
   midi.NoteOnEvent(tick=46, channel=3, data=[49, 0]),
   midi.NoteOnEvent(tick=2, channel=3, data=[49, 110]),
   midi.NoteOnEvent(tick=46, channel=3, data=[49, 0]),
   midi.NoteOnEvent(tick=2, channel=3, data=[49, 110]),
   midi.NoteOnEvent(tick=94, channel=3, data=[49, 0]),
   midi.NoteOnEvent(tick=2, channel=3, data=[49, 110]),
   midi.NoteOnEvent(tick=46, channel=3, data=[49, 0]),
   midi.NoteOnEvent(tick=2, channel=3, data=[49, 110]),
   midi.NoteOnEvent(tick=46, channel=3, data=[49, 0]),
   midi.NoteOnEvent(tick=2, channel=3, data=[49, 110]),
   midi.NoteOnEvent(tick=46, channel=3, data=[49, 0]),
   midi.NoteOnEvent(tick=2, channel=3, data=[49, 110]),
   midi.NoteOnEvent(tick=46, channel=3, data=[49, 0]),
   midi.NoteOnEvent(tick=2, channel=3, data=[49, 110]),
   midi.NoteOnEvent(tick=46, channel=3, data=[49, 0]),
   midi.NoteOnEvent(tick=2, channel=3, data=[49, 110]),
   midi.NoteOnEvent(tick=46, channel=3, data=[49, 0]),
   midi.NoteOnEvent(tick=2, channel=3, data=[49, 110]),
   midi.NoteOnEvent(tick=94, channel=3, data=[49, 0]),
   midi.NoteOnEvent(tick=2, channel=3, data=[49, 110]),
   midi.NoteOnEvent(tick=46, channel=3, data=[49, 0]),
   midi.NoteOnEvent(tick=2, channel=3, data=[49, 110]),
   midi.NoteOnEvent(tick=46, channel=3, data=[49, 0]),
   midi.NoteOnEvent(tick=2, channel=3, data=[49, 110]),
   midi.NoteOnEvent(tick=46, channel=3, data=[49, 0]),
   midi.NoteOnEvent(tick=2, channel=3, data=[49, 110]),
   midi.NoteOnEvent(tick=46, channel=3, data=[49, 0]),
   midi.NoteOnEvent(tick=2, channel=3, data=[49, 110]),
   midi.NoteOnEvent(tick=46, channel=3, data=[49, 0]),
   midi.NoteOnEvent(tick=2, channel=3, data=[49, 110]),
   midi.NoteOnEvent(tick=46, channel=3, data=[49, 0]),
   midi.NoteOnEvent(tick=2, channel=3, data=[49, 110]),
   midi.NoteOnEvent(tick=94, channel=3, data=[49, 0]),
   midi.NoteOnEvent(tick=2, channel=3, data=[49, 110]),
   midi.NoteOnEvent(tick=46, channel=3, data=[49, 0]),
   midi.NoteOnEvent(tick=2, channel=3, data=[49, 110]),
   midi.NoteOnEvent(tick=46, channel=3, data=[49, 0]),
   midi.NoteOnEvent(tick=2, channel=3, data=[49, 110]),
   midi.NoteOnEvent(tick=46, channel=3, data=[49, 0]),
   midi.NoteOnEvent(tick=2, channel=3, data=[49, 110]),
   midi.NoteOnEvent(tick=46, channel=3, data=[49, 0]),
   midi.NoteOnEvent(tick=2, channel=3, data=[49, 110]),
   midi.NoteOnEvent(tick=46, channel=3, data=[49, 0]),
   midi.NoteOnEvent(tick=2, channel=3, data=[49, 110]),
   midi.NoteOnEvent(tick=46, channel=3, data=[49, 0]),
   midi.NoteOnEvent(tick=2, channel=3, data=[49, 110]),
   midi.NoteOnEvent(tick=94, channel=3, data=[49, 0]),
   midi.NoteOnEvent(tick=2, channel=3, data=[49, 110]),
   midi.NoteOnEvent(tick=46, channel=3, data=[49, 0]),
   midi.NoteOnEvent(tick=2, channel=3, data=[49, 110]),
   midi.NoteOnEvent(tick=46, channel=3, data=[49, 0]),
   midi.NoteOnEvent(tick=2, channel=3, data=[49, 110]),
   midi.NoteOnEvent(tick=46, channel=3, data=[49, 0]),
   midi.NoteOnEvent(tick=2, channel=3, data=[49, 110]),
   midi.NoteOnEvent(tick=46, channel=3, data=[49, 0]),
   midi.NoteOnEvent(tick=2, channel=3, data=[49, 110]),
   midi.NoteOnEvent(tick=46, channel=3, data=[49, 0]),
   midi.NoteOnEvent(tick=2, channel=3, data=[49, 110]),
   midi.NoteOnEvent(tick=46, channel=3, data=[49, 0]),
   midi.NoteOnEvent(tick=2, channel=3, data=[49, 110]),
   midi.NoteOnEvent(tick=94, channel=3, data=[49, 0]),
   midi.NoteOnEvent(tick=2, channel=3, data=[49, 110]),
   midi.NoteOnEvent(tick=46, channel=3, data=[49, 0]),
   midi.NoteOnEvent(tick=2, channel=3, data=[49, 110]),
   midi.NoteOnEvent(tick=46, channel=3, data=[49, 0]),
   midi.NoteOnEvent(tick=2, channel=3, data=[49, 110]),
   midi.NoteOnEvent(tick=46, channel=3, data=[49, 0]),
   midi.NoteOnEvent(tick=2, channel=3, data=[49, 110]),
   midi.NoteOnEvent(tick=46, channel=3, data=[49, 0]),
   midi.NoteOnEvent(tick=2, channel=3, data=[49, 110]),
   midi.NoteOnEvent(tick=46, channel=3, data=[49, 0]),
   midi.NoteOnEvent(tick=2, channel=3, data=[49, 110]),
   midi.NoteOnEvent(tick=46, channel=3, data=[49, 0]),
   midi.NoteOnEvent(tick=2, channel=3, data=[49, 110]),
   midi.NoteOnEvent(tick=94, channel=3, data=[49, 0]),
   midi.NoteOnEvent(tick=2, channel=3, data=[49, 110]),
   midi.NoteOnEvent(tick=46, channel=3, data=[49, 0]),
   midi.NoteOnEvent(tick=2, channel=3, data=[49, 110]),
   midi.NoteOnEvent(tick=46, channel=3, data=[49, 0]),
   midi.NoteOnEvent(tick=2, channel=3, data=[49, 110]),
   midi.NoteOnEvent(tick=46, channel=3, data=[49, 0]),
   midi.NoteOnEvent(tick=2, channel=3, data=[49, 110]),
   midi.NoteOnEvent(tick=46, channel=3, data=[49, 0]),
   midi.NoteOnEvent(tick=2, channel=3, data=[49, 110]),
   midi.NoteOnEvent(tick=46, channel=3, data=[49, 0]),
   midi.NoteOnEvent(tick=2, channel=3, data=[49, 110]),
   midi.NoteOnEvent(tick=46, channel=3, data=[49, 0]),
   midi.NoteOnEvent(tick=2, channel=3, data=[49, 110]),
   midi.NoteOnEvent(tick=94, channel=3, data=[49, 0]),
   midi.NoteOnEvent(tick=2, channel=3, data=[49, 110]),
   midi.NoteOnEvent(tick=46, channel=3, data=[49, 0]),
   midi.NoteOnEvent(tick=2, channel=3, data=[49, 110]),
   midi.NoteOnEvent(tick=46, channel=3, data=[49, 0]),
   midi.NoteOnEvent(tick=2, channel=3, data=[49, 110]),
   midi.NoteOnEvent(tick=46, channel=3, data=[49, 0]),
   midi.NoteOnEvent(tick=2, channel=3, data=[49, 110]),
   midi.NoteOnEvent(tick=46, channel=3, data=[49, 0]),
   midi.NoteOnEvent(tick=2, channel=3, data=[49, 110]),
   midi.NoteOnEvent(tick=46, channel=3, data=[49, 0]),
   midi.NoteOnEvent(tick=2, channel=3, data=[49, 110]),
   midi.NoteOnEvent(tick=46, channel=3, data=[49, 0]),
   midi.NoteOnEvent(tick=2, channel=3, data=[49, 110]),
   midi.NoteOnEvent(tick=94, channel=3, data=[49, 0]),
   midi.NoteOnEvent(tick=2, channel=3, data=[49, 110]),
   midi.NoteOnEvent(tick=46, channel=3, data=[49, 0]),
   midi.NoteOnEvent(tick=2, channel=3, data=[49, 110]),
   midi.NoteOnEvent(tick=46, channel=3, data=[49, 0]),
   midi.NoteOnEvent(tick=2, channel=3, data=[49, 110]),
   midi.NoteOnEvent(tick=46, channel=3, data=[49, 0]),
   midi.NoteOnEvent(tick=2, channel=3, data=[49, 110]),
   midi.NoteOnEvent(tick=46, channel=3, data=[49, 0]),
   midi.NoteOnEvent(tick=2, channel=3, data=[49, 110]),
   midi.NoteOnEvent(tick=46, channel=3, data=[49, 0]),
   midi.NoteOnEvent(tick=2, channel=3, data=[49, 110]),
   midi.NoteOnEvent(tick=46, channel=3, data=[49, 0]),
   midi.NoteOnEvent(tick=2, channel=3, data=[49, 110]),
   midi.NoteOnEvent(tick=94, channel=3, data=[49, 0]),
   midi.NoteOnEvent(tick=2, channel=3, data=[49, 110]),
   midi.NoteOnEvent(tick=46, channel=3, data=[49, 0]),
   midi.NoteOnEvent(tick=2, channel=3, data=[49, 110]),
   midi.NoteOnEvent(tick=46, channel=3, data=[49, 0]),
   midi.NoteOnEvent(tick=2, channel=3, data=[49, 110]),
   midi.NoteOnEvent(tick=46, channel=3, data=[49, 0]),
   midi.NoteOnEvent(tick=2, channel=3, data=[49, 110]),
   midi.NoteOnEvent(tick=46, channel=3, data=[49, 0]),
   midi.NoteOnEvent(tick=2, channel=3, data=[49, 110]),
   midi.NoteOnEvent(tick=46, channel=3, data=[49, 0]),
   midi.NoteOnEvent(tick=2, channel=3, data=[49, 110]),
   midi.NoteOnEvent(tick=46, channel=3, data=[49, 0]),
   midi.NoteOnEvent(tick=2, channel=3, data=[49, 110]),
   midi.NoteOnEvent(tick=94, channel=3, data=[49, 0]),
   midi.NoteOnEvent(tick=2, channel=3, data=[49, 110]),
   midi.NoteOnEvent(tick=46, channel=3, data=[49, 0]),
   midi.NoteOnEvent(tick=2, channel=3, data=[49, 110]),
   midi.NoteOnEvent(tick=46, channel=3, data=[49, 0]),
   midi.NoteOnEvent(tick=2, channel=3, data=[49, 110]),
   midi.NoteOnEvent(tick=46, channel=3, data=[49, 0]),
   midi.NoteOnEvent(tick=2, channel=3, data=[49, 110]),
   midi.NoteOnEvent(tick=46, channel=3, data=[49, 0]),
   midi.NoteOnEvent(tick=2, channel=3, data=[49, 110]),
   midi.NoteOnEvent(tick=46, channel=3, data=[49, 0]),
   midi.NoteOnEvent(tick=2, channel=3, data=[49, 110]),
   midi.NoteOnEvent(tick=46, channel=3, data=[49, 0]),
   midi.SetTempoEvent(tick=2, data=[4, 147, 224]),
   midi.NoteOnEvent(tick=0, channel=3, data=[45, 110]),
   midi.SetTempoEvent(tick=51, data=[4, 159, 182]),
   midi.NoteOnEvent(tick=43, channel=3, data=[45, 0]),
   midi.NoteOnEvent(tick=2, channel=3, data=[55, 110]),
   midi.SetTempoEvent(tick=6, data=[4, 171, 202]),
   midi.SetTempoEvent(tick=51, data=[4, 184, 30]),
   midi.NoteOnEvent(tick=37, channel=3, data=[55, 0]),
   midi.NoteOnEvent(tick=2, channel=3, data=[54, 110]),
   midi.SetTempoEvent(tick=12, data=[4, 196, 180]),
   midi.SetTempoEvent(tick=52, data=[4, 209, 141]),
   midi.NoteOnEvent(tick=30, channel=3, data=[54, 0]),
   midi.NoteOnEvent(tick=2, channel=3, data=[45, 110]),
   midi.SetTempoEvent(tick=19, data=[4, 222, 172]),
   midi.SetTempoEvent(tick=51, data=[4, 236, 20]),
   midi.NoteOnEvent(tick=24, channel=3, data=[45, 0]),
   midi.NoteOnEvent(tick=2, channel=3, data=[54, 110]),
   midi.SetTempoEvent(tick=25, data=[4, 249, 198]),
   midi.SetTempoEvent(tick=51, data=[5, 7, 198]),
   midi.NoteOnEvent(tick=18, channel=3, data=[54, 0]),
   midi.NoteOnEvent(tick=2, channel=3, data=[52, 110]),
   midi.SetTempoEvent(tick=32, data=[5, 22, 21]),
   midi.SetTempoEvent(tick=51, data=[5, 36, 182]),
   midi.NoteOnEvent(tick=11, channel=3, data=[52, 0]),
   midi.NoteOnEvent(tick=2, channel=3, data=[50, 110]),
   midi.SetTempoEvent(tick=38, data=[5, 51, 173]),
   midi.SetTempoEvent(tick=51, data=[5, 66, 251]),
   midi.NoteOnEvent(tick=5, channel=3, data=[50, 0]),
   midi.NoteOnEvent(tick=2, channel=3, data=[49, 110]),
   midi.SetTempoEvent(tick=44, data=[5, 82, 165]),
   midi.NoteOnEvent(tick=50, channel=3, data=[49, 0]),
   midi.SetTempoEvent(tick=2, data=[5, 98, 173]),
   midi.NoteOnEvent(tick=0, channel=3, data=[43, 110]),
   midi.NoteOnEvent(tick=126, channel=3, data=[43, 0]),
   midi.NoteOnEvent(tick=2, channel=3, data=[42, 110]),
   midi.NoteOnEvent(tick=126, channel=3, data=[42, 0]),
   midi.NoteOnEvent(tick=2, channel=3, data=[40, 110]),
   midi.NoteOnEvent(tick=126, channel=3, data=[40, 0]),
   midi.NoteOnEvent(tick=2, channel=3, data=[50, 110]),
   midi.NoteOnEvent(tick=126, channel=3, data=[50, 0]),
   midi.NoteOnEvent(tick=2, channel=3, data=[49, 110]),
   midi.NoteOnEvent(tick=126, channel=3, data=[49, 0]),
   midi.NoteOnEvent(tick=2, channel=3, data=[47, 110]),
   midi.NoteOnEvent(tick=126, channel=3, data=[47, 0]),
   midi.NoteOnEvent(tick=2, channel=3, data=[40, 110]),
   midi.NoteOnEvent(tick=94, channel=3, data=[40, 0]),
   midi.NoteOnEvent(tick=2, channel=3, data=[40, 110]),
   midi.NoteOnEvent(tick=46, channel=3, data=[40, 0]),
   midi.NoteOnEvent(tick=2, channel=3, data=[40, 110]),
   midi.NoteOnEvent(tick=46, channel=3, data=[40, 0]),
   midi.NoteOnEvent(tick=2, channel=3, data=[40, 110]),
   midi.NoteOnEvent(tick=94, channel=3, data=[40, 0]),
   midi.NoteOnEvent(tick=2, channel=3, data=[40, 110]),
   midi.NoteOnEvent(tick=94, channel=3, data=[40, 0]),
   midi.NoteOnEvent(tick=2, channel=3, data=[40, 110]),
   midi.NoteOnEvent(tick=94, channel=3, data=[40, 0]),
   midi.NoteOnEvent(tick=2, channel=3, data=[40, 110]),
   midi.NoteOnEvent(tick=94, channel=3, data=[40, 0]),
   midi.NoteOnEvent(tick=2, channel=3, data=[40, 110]),
   midi.NoteOnEvent(tick=46, channel=3, data=[40, 0]),
   midi.NoteOnEvent(tick=2, channel=3, data=[40, 110]),
   midi.NoteOnEvent(tick=46, channel=3, data=[40, 0]),
   midi.NoteOnEvent(tick=2, channel=3, data=[40, 110]),
   midi.NoteOnEvent(tick=46, channel=3, data=[40, 0]),
   midi.NoteOnEvent(tick=2, channel=3, data=[40, 110]),
   midi.NoteOnEvent(tick=46, channel=3, data=[40, 0]),
   midi.NoteOnEvent(tick=2, channel=3, data=[40, 110]),
   midi.NoteOnEvent(tick=94, channel=3, data=[40, 0]),
   midi.NoteOnEvent(tick=2, channel=3, data=[40, 110]),
   midi.NoteOnEvent(tick=46, channel=3, data=[40, 0]),
   midi.NoteOnEvent(tick=2, channel=3, data=[40, 110]),
   midi.NoteOnEvent(tick=46, channel=3, data=[40, 0]),
   midi.NoteOnEvent(tick=2, channel=3, data=[40, 110]),
   midi.NoteOnEvent(tick=94, channel=3, data=[40, 0]),
   midi.NoteOnEvent(tick=2, channel=3, data=[40, 110]),
   midi.NoteOnEvent(tick=94, channel=3, data=[40, 0]),
   midi.NoteOnEvent(tick=2, channel=3, data=[40, 110]),
   midi.NoteOnEvent(tick=94, channel=3, data=[40, 0]),
   midi.NoteOnEvent(tick=2, channel=3, data=[40, 110]),
   midi.NoteOnEvent(tick=94, channel=3, data=[40, 0]),
   midi.NoteOnEvent(tick=2, channel=3, data=[40, 110]),
   midi.NoteOnEvent(tick=46, channel=3, data=[40, 0]),
   midi.NoteOnEvent(tick=2, channel=3, data=[40, 110]),
   midi.NoteOnEvent(tick=46, channel=3, data=[40, 0]),
   midi.NoteOnEvent(tick=2, channel=3, data=[40, 110]),
   midi.NoteOnEvent(tick=46, channel=3, data=[40, 0]),
   midi.NoteOnEvent(tick=2, channel=3, data=[40, 110]),
   midi.NoteOnEvent(tick=46, channel=3, data=[40, 0]),
   midi.NoteOnEvent(tick=2, channel=3, data=[40, 110]),
   midi.NoteOnEvent(tick=94, channel=3, data=[40, 0]),
   midi.NoteOnEvent(tick=2, channel=3, data=[40, 110]),
   midi.NoteOnEvent(tick=46, channel=3, data=[40, 0]),
   midi.NoteOnEvent(tick=2, channel=3, data=[40, 110]),
   midi.NoteOnEvent(tick=46, channel=3, data=[40, 0]),
   midi.NoteOnEvent(tick=2, channel=3, data=[40, 110]),
   midi.NoteOnEvent(tick=94, channel=3, data=[40, 0]),
   midi.NoteOnEvent(tick=2, channel=3, data=[40, 110]),
   midi.NoteOnEvent(tick=94, channel=3, data=[40, 0]),
   midi.NoteOnEvent(tick=2, channel=3, data=[40, 110]),
   midi.NoteOnEvent(tick=94, channel=3, data=[40, 0]),
   midi.NoteOnEvent(tick=2, channel=3, data=[40, 110]),
   midi.NoteOnEvent(tick=94, channel=3, data=[40, 0]),
   midi.NoteOnEvent(tick=2, channel=3, data=[40, 110]),
   midi.NoteOnEvent(tick=46, channel=3, data=[40, 0]),
   midi.NoteOnEvent(tick=2, channel=3, data=[40, 110]),
   midi.NoteOnEvent(tick=46, channel=3, data=[40, 0]),
   midi.NoteOnEvent(tick=2, channel=3, data=[40, 110]),
   midi.NoteOnEvent(tick=46, channel=3, data=[40, 0]),
   midi.NoteOnEvent(tick=2, channel=3, data=[40, 110]),
   midi.NoteOnEvent(tick=46, channel=3, data=[40, 0]),
   midi.NoteOnEvent(tick=2, channel=3, data=[40, 110]),
   midi.NoteOnEvent(tick=94, channel=3, data=[40, 0]),
   midi.NoteOnEvent(tick=2, channel=3, data=[40, 110]),
   midi.NoteOnEvent(tick=46, channel=3, data=[40, 0]),
   midi.NoteOnEvent(tick=2, channel=3, data=[40, 110]),
   midi.NoteOnEvent(tick=46, channel=3, data=[40, 0]),
   midi.NoteOnEvent(tick=2, channel=3, data=[40, 110]),
   midi.NoteOnEvent(tick=94, channel=3, data=[40, 0]),
   midi.NoteOnEvent(tick=2, channel=3, data=[40, 110]),
   midi.NoteOnEvent(tick=94, channel=3, data=[40, 0]),
   midi.NoteOnEvent(tick=2, channel=3, data=[40, 110]),
   midi.NoteOnEvent(tick=94, channel=3, data=[40, 0]),
   midi.NoteOnEvent(tick=2, channel=3, data=[40, 110]),
   midi.NoteOnEvent(tick=94, channel=3, data=[40, 0]),
   midi.NoteOnEvent(tick=2, channel=3, data=[40, 110]),
   midi.NoteOnEvent(tick=46, channel=3, data=[40, 0]),
   midi.NoteOnEvent(tick=2, channel=3, data=[40, 110]),
   midi.NoteOnEvent(tick=46, channel=3, data=[40, 0]),
   midi.NoteOnEvent(tick=2, channel=3, data=[40, 110]),
   midi.NoteOnEvent(tick=46, channel=3, data=[40, 0]),
   midi.NoteOnEvent(tick=2, channel=3, data=[40, 110]),
   midi.NoteOnEvent(tick=46, channel=3, data=[40, 0]),
   midi.NoteOnEvent(tick=2, channel=3, data=[40, 110]),
   midi.NoteOnEvent(tick=94, channel=3, data=[40, 0]),
   midi.NoteOnEvent(tick=2, channel=3, data=[40, 110]),
   midi.NoteOnEvent(tick=46, channel=3, data=[40, 0]),
   midi.NoteOnEvent(tick=2, channel=3, data=[40, 110]),
   midi.NoteOnEvent(tick=46, channel=3, data=[40, 0]),
   midi.NoteOnEvent(tick=2, channel=3, data=[40, 110]),
   midi.NoteOnEvent(tick=94, channel=3, data=[40, 0]),
   midi.NoteOnEvent(tick=2, channel=3, data=[40, 110]),
   midi.NoteOnEvent(tick=94, channel=3, data=[40, 0]),
   midi.NoteOnEvent(tick=2, channel=3, data=[40, 110]),
   midi.NoteOnEvent(tick=94, channel=3, data=[40, 0]),
   midi.NoteOnEvent(tick=2, channel=3, data=[40, 110]),
   midi.NoteOnEvent(tick=94, channel=3, data=[40, 0]),
   midi.NoteOnEvent(tick=2, channel=3, data=[40, 110]),
   midi.NoteOnEvent(tick=46, channel=3, data=[40, 0]),
   midi.NoteOnEvent(tick=2, channel=3, data=[40, 110]),
   midi.NoteOnEvent(tick=46, channel=3, data=[40, 0]),
   midi.NoteOnEvent(tick=2, channel=3, data=[40, 110]),
   midi.NoteOnEvent(tick=46, channel=3, data=[40, 0]),
   midi.NoteOnEvent(tick=2, channel=3, data=[40, 110]),
   midi.NoteOnEvent(tick=46, channel=3, data=[40, 0]),
   midi.NoteOnEvent(tick=2, channel=3, data=[40, 110]),
   midi.NoteOnEvent(tick=94, channel=3, data=[40, 0]),
   midi.NoteOnEvent(tick=2, channel=3, data=[40, 110]),
   midi.NoteOnEvent(tick=46, channel=3, data=[40, 0]),
   midi.NoteOnEvent(tick=2, channel=3, data=[40, 110]),
   midi.NoteOnEvent(tick=46, channel=3, data=[40, 0]),
   midi.NoteOnEvent(tick=2, channel=3, data=[40, 110]),
   midi.NoteOnEvent(tick=94, channel=3, data=[40, 0]),
   midi.NoteOnEvent(tick=2, channel=3, data=[40, 110]),
   midi.NoteOnEvent(tick=94, channel=3, data=[40, 0]),
   midi.NoteOnEvent(tick=2, channel=3, data=[40, 110]),
   midi.NoteOnEvent(tick=94, channel=3, data=[40, 0]),
   midi.NoteOnEvent(tick=2, channel=3, data=[40, 110]),
   midi.NoteOnEvent(tick=94, channel=3, data=[40, 0]),
   midi.NoteOnEvent(tick=2, channel=3, data=[40, 110]),
   midi.NoteOnEvent(tick=46, channel=3, data=[40, 0]),
   midi.NoteOnEvent(tick=2, channel=3, data=[40, 110]),
   midi.NoteOnEvent(tick=46, channel=3, data=[40, 0]),
   midi.NoteOnEvent(tick=2, channel=3, data=[40, 110]),
   midi.NoteOnEvent(tick=46, channel=3, data=[40, 0]),
   midi.NoteOnEvent(tick=2, channel=3, data=[40, 110]),
   midi.NoteOnEvent(tick=46, channel=3, data=[40, 0]),
   midi.NoteOnEvent(tick=2, channel=3, data=[40, 110]),
   midi.NoteOnEvent(tick=94, channel=3, data=[40, 0]),
   midi.NoteOnEvent(tick=2, channel=3, data=[40, 110]),
   midi.NoteOnEvent(tick=46, channel=3, data=[40, 0]),
   midi.NoteOnEvent(tick=2, channel=3, data=[40, 110]),
   midi.NoteOnEvent(tick=46, channel=3, data=[40, 0]),
   midi.NoteOnEvent(tick=2, channel=3, data=[40, 110]),
   midi.NoteOnEvent(tick=94, channel=3, data=[40, 0]),
   midi.NoteOnEvent(tick=2, channel=3, data=[40, 110]),
   midi.NoteOnEvent(tick=94, channel=3, data=[40, 0]),
   midi.NoteOnEvent(tick=2, channel=3, data=[40, 110]),
   midi.NoteOnEvent(tick=94, channel=3, data=[40, 0]),
   midi.NoteOnEvent(tick=2, channel=3, data=[40, 110]),
   midi.NoteOnEvent(tick=94, channel=3, data=[40, 0]),
   midi.NoteOnEvent(tick=2, channel=3, data=[40, 110]),
   midi.NoteOnEvent(tick=46, channel=3, data=[40, 0]),
   midi.NoteOnEvent(tick=2, channel=3, data=[40, 110]),
   midi.NoteOnEvent(tick=46, channel=3, data=[40, 0]),
   midi.NoteOnEvent(tick=2, channel=3, data=[40, 110]),
   midi.NoteOnEvent(tick=46, channel=3, data=[40, 0]),
   midi.NoteOnEvent(tick=2, channel=3, data=[40, 110]),
   midi.NoteOnEvent(tick=46, channel=3, data=[40, 0]),
   midi.NoteOnEvent(tick=2, channel=3, data=[40, 110]),
   midi.NoteOnEvent(tick=94, channel=3, data=[40, 0]),
   midi.NoteOnEvent(tick=2, channel=3, data=[40, 110]),
   midi.NoteOnEvent(tick=46, channel=3, data=[40, 0]),
   midi.NoteOnEvent(tick=2, channel=3, data=[40, 110]),
   midi.NoteOnEvent(tick=46, channel=3, data=[40, 0]),
   midi.NoteOnEvent(tick=2, channel=3, data=[40, 110]),
   midi.NoteOnEvent(tick=94, channel=3, data=[40, 0]),
   midi.NoteOnEvent(tick=2, channel=3, data=[40, 110]),
   midi.NoteOnEvent(tick=94, channel=3, data=[40, 0]),
   midi.NoteOnEvent(tick=2, channel=3, data=[40, 110]),
   midi.NoteOnEvent(tick=94, channel=3, data=[40, 0]),
   midi.NoteOnEvent(tick=2, channel=3, data=[40, 110]),
   midi.NoteOnEvent(tick=94, channel=3, data=[40, 0]),
   midi.NoteOnEvent(tick=2, channel=3, data=[40, 110]),
   midi.NoteOnEvent(tick=46, channel=3, data=[40, 0]),
   midi.NoteOnEvent(tick=2, channel=3, data=[40, 110]),
   midi.NoteOnEvent(tick=46, channel=3, data=[40, 0]),
   midi.NoteOnEvent(tick=2, channel=3, data=[40, 110]),
   midi.NoteOnEvent(tick=46, channel=3, data=[40, 0]),
   midi.NoteOnEvent(tick=2, channel=3, data=[40, 110]),
   midi.NoteOnEvent(tick=46, channel=3, data=[40, 0]),
   midi.NoteOnEvent(tick=2, channel=3, data=[40, 110]),
   midi.NoteOnEvent(tick=94, channel=3, data=[40, 0]),
   midi.NoteOnEvent(tick=2, channel=3, data=[40, 110]),
   midi.NoteOnEvent(tick=46, channel=3, data=[40, 0]),
   midi.NoteOnEvent(tick=2, channel=3, data=[40, 110]),
   midi.NoteOnEvent(tick=46, channel=3, data=[40, 0]),
   midi.NoteOnEvent(tick=2, channel=3, data=[40, 110]),
   midi.NoteOnEvent(tick=94, channel=3, data=[40, 0]),
   midi.NoteOnEvent(tick=2, channel=3, data=[40, 110]),
   midi.NoteOnEvent(tick=94, channel=3, data=[40, 0]),
   midi.NoteOnEvent(tick=2, channel=3, data=[40, 110]),
   midi.NoteOnEvent(tick=94, channel=3, data=[40, 0]),
   midi.NoteOnEvent(tick=2, channel=3, data=[40, 110]),
   midi.NoteOnEvent(tick=94, channel=3, data=[40, 0]),
   midi.NoteOnEvent(tick=2, channel=3, data=[40, 110]),
   midi.NoteOnEvent(tick=46, channel=3, data=[40, 0]),
   midi.NoteOnEvent(tick=2, channel=3, data=[40, 110]),
   midi.NoteOnEvent(tick=46, channel=3, data=[40, 0]),
   midi.NoteOnEvent(tick=2, channel=3, data=[40, 110]),
   midi.NoteOnEvent(tick=46, channel=3, data=[40, 0]),
   midi.NoteOnEvent(tick=2, channel=3, data=[40, 110]),
   midi.NoteOnEvent(tick=46, channel=3, data=[40, 0]),
   midi.NoteOnEvent(tick=2, channel=3, data=[40, 110]),
   midi.NoteOnEvent(tick=94, channel=3, data=[40, 0]),
   midi.NoteOnEvent(tick=2, channel=3, data=[40, 110]),
   midi.NoteOnEvent(tick=46, channel=3, data=[40, 0]),
   midi.NoteOnEvent(tick=2, channel=3, data=[40, 110]),
   midi.NoteOnEvent(tick=46, channel=3, data=[40, 0]),
   midi.NoteOnEvent(tick=2, channel=3, data=[40, 110]),
   midi.NoteOnEvent(tick=94, channel=3, data=[40, 0]),
   midi.NoteOnEvent(tick=2, channel=3, data=[40, 110]),
   midi.NoteOnEvent(tick=94, channel=3, data=[40, 0]),
   midi.NoteOnEvent(tick=2, channel=3, data=[40, 110]),
   midi.NoteOnEvent(tick=94, channel=3, data=[40, 0]),
   midi.NoteOnEvent(tick=2, channel=3, data=[40, 110]),
   midi.NoteOnEvent(tick=94, channel=3, data=[40, 0]),
   midi.NoteOnEvent(tick=2, channel=3, data=[40, 110]),
   midi.NoteOnEvent(tick=46, channel=3, data=[40, 0]),
   midi.NoteOnEvent(tick=2, channel=3, data=[40, 110]),
   midi.NoteOnEvent(tick=46, channel=3, data=[40, 0]),
   midi.NoteOnEvent(tick=2, channel=3, data=[40, 110]),
   midi.NoteOnEvent(tick=46, channel=3, data=[40, 0]),
   midi.NoteOnEvent(tick=2, channel=3, data=[40, 110]),
   midi.NoteOnEvent(tick=46, channel=3, data=[40, 0]),
   midi.NoteOnEvent(tick=2, channel=3, data=[43, 110]),
   midi.NoteOnEvent(tick=94, channel=3, data=[43, 0]),
   midi.NoteOnEvent(tick=2, channel=3, data=[43, 110]),
   midi.NoteOnEvent(tick=46, channel=3, data=[43, 0]),
   midi.NoteOnEvent(tick=2, channel=3, data=[43, 110]),
   midi.NoteOnEvent(tick=46, channel=3, data=[43, 0]),
   midi.NoteOnEvent(tick=2, channel=3, data=[43, 110]),
   midi.NoteOnEvent(tick=94, channel=3, data=[43, 0]),
   midi.NoteOnEvent(tick=2, channel=3, data=[43, 110]),
   midi.NoteOnEvent(tick=94, channel=3, data=[43, 0]),
   midi.NoteOnEvent(tick=2, channel=3, data=[43, 110]),
   midi.NoteOnEvent(tick=94, channel=3, data=[43, 0]),
   midi.NoteOnEvent(tick=2, channel=3, data=[43, 110]),
   midi.NoteOnEvent(tick=94, channel=3, data=[43, 0]),
   midi.NoteOnEvent(tick=2, channel=3, data=[43, 110]),
   midi.NoteOnEvent(tick=46, channel=3, data=[43, 0]),
   midi.NoteOnEvent(tick=2, channel=3, data=[43, 110]),
   midi.NoteOnEvent(tick=46, channel=3, data=[43, 0]),
   midi.NoteOnEvent(tick=2, channel=3, data=[43, 110]),
   midi.NoteOnEvent(tick=46, channel=3, data=[43, 0]),
   midi.NoteOnEvent(tick=2, channel=3, data=[43, 110]),
   midi.NoteOnEvent(tick=46, channel=3, data=[43, 0]),
   midi.NoteOnEvent(tick=2, channel=3, data=[42, 110]),
   midi.NoteOnEvent(tick=94, channel=3, data=[42, 0]),
   midi.NoteOnEvent(tick=2, channel=3, data=[42, 110]),
   midi.NoteOnEvent(tick=46, channel=3, data=[42, 0]),
   midi.NoteOnEvent(tick=2, channel=3, data=[42, 110]),
   midi.NoteOnEvent(tick=46, channel=3, data=[42, 0]),
   midi.NoteOnEvent(tick=2, channel=3, data=[42, 110]),
   midi.NoteOnEvent(tick=94, channel=3, data=[42, 0]),
   midi.NoteOnEvent(tick=2, channel=3, data=[42, 110]),
   midi.NoteOnEvent(tick=94, channel=3, data=[42, 0]),
   midi.NoteOnEvent(tick=2, channel=3, data=[42, 110]),
   midi.NoteOnEvent(tick=94, channel=3, data=[42, 0]),
   midi.NoteOnEvent(tick=2, channel=3, data=[42, 110]),
   midi.NoteOnEvent(tick=94, channel=3, data=[42, 0]),
   midi.NoteOnEvent(tick=2, channel=3, data=[42, 110]),
   midi.NoteOnEvent(tick=46, channel=3, data=[42, 0]),
   midi.NoteOnEvent(tick=2, channel=3, data=[42, 110]),
   midi.NoteOnEvent(tick=46, channel=3, data=[42, 0]),
   midi.NoteOnEvent(tick=2, channel=3, data=[42, 110]),
   midi.NoteOnEvent(tick=46, channel=3, data=[42, 0]),
   midi.NoteOnEvent(tick=2, channel=3, data=[42, 110]),
   midi.NoteOnEvent(tick=46, channel=3, data=[42, 0]),
   midi.NoteOnEvent(tick=2, channel=3, data=[40, 110]),
   midi.NoteOnEvent(tick=94, channel=3, data=[40, 0]),
   midi.NoteOnEvent(tick=2, channel=3, data=[40, 110]),
   midi.NoteOnEvent(tick=46, channel=3, data=[40, 0]),
   midi.NoteOnEvent(tick=2, channel=3, data=[40, 110]),
   midi.NoteOnEvent(tick=46, channel=3, data=[40, 0]),
   midi.NoteOnEvent(tick=2, channel=3, data=[40, 110]),
   midi.NoteOnEvent(tick=94, channel=3, data=[40, 0]),
   midi.NoteOnEvent(tick=2, channel=3, data=[40, 110]),
   midi.NoteOnEvent(tick=94, channel=3, data=[40, 0]),
   midi.NoteOnEvent(tick=2, channel=3, data=[40, 110]),
   midi.NoteOnEvent(tick=94, channel=3, data=[40, 0]),
   midi.NoteOnEvent(tick=2, channel=3, data=[40, 110]),
   midi.NoteOnEvent(tick=94, channel=3, data=[40, 0]),
   midi.NoteOnEvent(tick=2, channel=3, data=[40, 110]),
   midi.NoteOnEvent(tick=46, channel=3, data=[40, 0]),
   midi.NoteOnEvent(tick=2, channel=3, data=[40, 110]),
   midi.NoteOnEvent(tick=46, channel=3, data=[40, 0]),
   midi.NoteOnEvent(tick=2, channel=3, data=[40, 110]),
   midi.NoteOnEvent(tick=46, channel=3, data=[40, 0]),
   midi.NoteOnEvent(tick=2, channel=3, data=[40, 110]),
   midi.NoteOnEvent(tick=46, channel=3, data=[40, 0]),
   midi.NoteOnEvent(tick=2, channel=3, data=[40, 110]),
   midi.NoteOnEvent(tick=94, channel=3, data=[40, 0]),
   midi.NoteOnEvent(tick=2, channel=3, data=[40, 110]),
   midi.NoteOnEvent(tick=46, channel=3, data=[40, 0]),
   midi.NoteOnEvent(tick=2, channel=3, data=[40, 110]),
   midi.NoteOnEvent(tick=46, channel=3, data=[40, 0]),
   midi.NoteOnEvent(tick=2, channel=3, data=[40, 110]),
   midi.NoteOnEvent(tick=94, channel=3, data=[40, 0]),
   midi.NoteOnEvent(tick=2, channel=3, data=[40, 110]),
   midi.NoteOnEvent(tick=94, channel=3, data=[40, 0]),
   midi.NoteOnEvent(tick=2, channel=3, data=[40, 110]),
   midi.NoteOnEvent(tick=94, channel=3, data=[40, 0]),
   midi.NoteOnEvent(tick=2, channel=3, data=[40, 110]),
   midi.NoteOnEvent(tick=94, channel=3, data=[40, 0]),
   midi.NoteOnEvent(tick=2, channel=3, data=[40, 110]),
   midi.NoteOnEvent(tick=46, channel=3, data=[40, 0]),
   midi.NoteOnEvent(tick=2, channel=3, data=[40, 110]),
   midi.NoteOnEvent(tick=46, channel=3, data=[40, 0]),
   midi.NoteOnEvent(tick=2, channel=3, data=[40, 110]),
   midi.NoteOnEvent(tick=46, channel=3, data=[40, 0]),
   midi.NoteOnEvent(tick=2, channel=3, data=[40, 110]),
   midi.NoteOnEvent(tick=46, channel=3, data=[40, 0]),
   midi.NoteOnEvent(tick=2, channel=3, data=[43, 110]),
   midi.NoteOnEvent(tick=94, channel=3, data=[43, 0]),
   midi.NoteOnEvent(tick=2, channel=3, data=[43, 110]),
   midi.NoteOnEvent(tick=46, channel=3, data=[43, 0]),
   midi.NoteOnEvent(tick=2, channel=3, data=[43, 110]),
   midi.NoteOnEvent(tick=46, channel=3, data=[43, 0]),
   midi.NoteOnEvent(tick=2, channel=3, data=[43, 110]),
   midi.NoteOnEvent(tick=94, channel=3, data=[43, 0]),
   midi.NoteOnEvent(tick=2, channel=3, data=[43, 110]),
   midi.NoteOnEvent(tick=94, channel=3, data=[43, 0]),
   midi.NoteOnEvent(tick=2, channel=3, data=[43, 110]),
   midi.NoteOnEvent(tick=94, channel=3, data=[43, 0]),
   midi.NoteOnEvent(tick=2, channel=3, data=[43, 110]),
   midi.NoteOnEvent(tick=94, channel=3, data=[43, 0]),
   midi.NoteOnEvent(tick=2, channel=3, data=[43, 110]),
   midi.NoteOnEvent(tick=46, channel=3, data=[43, 0]),
   midi.NoteOnEvent(tick=2, channel=3, data=[43, 110]),
   midi.NoteOnEvent(tick=46, channel=3, data=[43, 0]),
   midi.NoteOnEvent(tick=2, channel=3, data=[43, 110]),
   midi.NoteOnEvent(tick=46, channel=3, data=[43, 0]),
   midi.NoteOnEvent(tick=2, channel=3, data=[43, 110]),
   midi.NoteOnEvent(tick=46, channel=3, data=[43, 0]),
   midi.NoteOnEvent(tick=2, channel=3, data=[47, 110]),
   midi.NoteOnEvent(tick=94, channel=3, data=[47, 0]),
   midi.NoteOnEvent(tick=2, channel=3, data=[47, 110]),
   midi.NoteOnEvent(tick=46, channel=3, data=[47, 0]),
   midi.NoteOnEvent(tick=2, channel=3, data=[47, 110]),
   midi.NoteOnEvent(tick=46, channel=3, data=[47, 0]),
   midi.NoteOnEvent(tick=2, channel=3, data=[47, 110]),
   midi.NoteOnEvent(tick=94, channel=3, data=[47, 0]),
   midi.NoteOnEvent(tick=2, channel=3, data=[47, 110]),
   midi.NoteOnEvent(tick=94, channel=3, data=[47, 0]),
   midi.NoteOnEvent(tick=2, channel=3, data=[47, 110]),
   midi.NoteOnEvent(tick=94, channel=3, data=[47, 0]),
   midi.NoteOnEvent(tick=2, channel=3, data=[47, 110]),
   midi.NoteOnEvent(tick=94, channel=3, data=[47, 0]),
   midi.NoteOnEvent(tick=2, channel=3, data=[47, 110]),
   midi.NoteOnEvent(tick=46, channel=3, data=[47, 0]),
   midi.NoteOnEvent(tick=2, channel=3, data=[47, 110]),
   midi.NoteOnEvent(tick=46, channel=3, data=[47, 0]),
   midi.NoteOnEvent(tick=2, channel=3, data=[47, 110]),
   midi.NoteOnEvent(tick=46, channel=3, data=[47, 0]),
   midi.NoteOnEvent(tick=2, channel=3, data=[47, 110]),
   midi.NoteOnEvent(tick=46, channel=3, data=[47, 0]),
   midi.NoteOnEvent(tick=2, channel=3, data=[40, 110]),
   midi.NoteOnEvent(tick=94, channel=3, data=[40, 0]),
   midi.NoteOnEvent(tick=2, channel=3, data=[40, 110]),
   midi.NoteOnEvent(tick=46, channel=3, data=[40, 0]),
   midi.NoteOnEvent(tick=2, channel=3, data=[40, 110]),
   midi.NoteOnEvent(tick=46, channel=3, data=[40, 0]),
   midi.NoteOnEvent(tick=2, channel=3, data=[40, 110]),
   midi.NoteOnEvent(tick=94, channel=3, data=[40, 0]),
   midi.NoteOnEvent(tick=2, channel=3, data=[40, 110]),
   midi.NoteOnEvent(tick=94, channel=3, data=[40, 0]),
   midi.NoteOnEvent(tick=2, channel=3, data=[40, 110]),
   midi.NoteOnEvent(tick=94, channel=3, data=[40, 0]),
   midi.NoteOnEvent(tick=2, channel=3, data=[40, 110]),
   midi.NoteOnEvent(tick=94, channel=3, data=[40, 0]),
   midi.NoteOnEvent(tick=2, channel=3, data=[40, 110]),
   midi.NoteOnEvent(tick=46, channel=3, data=[40, 0]),
   midi.NoteOnEvent(tick=2, channel=3, data=[40, 110]),
   midi.NoteOnEvent(tick=46, channel=3, data=[40, 0]),
   midi.NoteOnEvent(tick=2, channel=3, data=[40, 110]),
   midi.NoteOnEvent(tick=46, channel=3, data=[40, 0]),
   midi.NoteOnEvent(tick=2, channel=3, data=[40, 110]),
   midi.NoteOnEvent(tick=46, channel=3, data=[40, 0]),
   midi.NoteOnEvent(tick=2, channel=3, data=[40, 110]),
   midi.NoteOnEvent(tick=94, channel=3, data=[40, 0]),
   midi.NoteOnEvent(tick=2, channel=3, data=[40, 110]),
   midi.NoteOnEvent(tick=46, channel=3, data=[40, 0]),
   midi.NoteOnEvent(tick=2, channel=3, data=[40, 110]),
   midi.NoteOnEvent(tick=46, channel=3, data=[40, 0]),
   midi.NoteOnEvent(tick=2, channel=3, data=[40, 110]),
   midi.NoteOnEvent(tick=94, channel=3, data=[40, 0]),
   midi.NoteOnEvent(tick=2, channel=3, data=[40, 110]),
   midi.NoteOnEvent(tick=94, channel=3, data=[40, 0]),
   midi.NoteOnEvent(tick=2, channel=3, data=[40, 110]),
   midi.NoteOnEvent(tick=94, channel=3, data=[40, 0]),
   midi.NoteOnEvent(tick=2, channel=3, data=[40, 110]),
   midi.NoteOnEvent(tick=94, channel=3, data=[40, 0]),
   midi.NoteOnEvent(tick=2, channel=3, data=[40, 110]),
   midi.NoteOnEvent(tick=46, channel=3, data=[40, 0]),
   midi.NoteOnEvent(tick=2, channel=3, data=[40, 110]),
   midi.NoteOnEvent(tick=46, channel=3, data=[40, 0]),
   midi.NoteOnEvent(tick=2, channel=3, data=[40, 110]),
   midi.NoteOnEvent(tick=46, channel=3, data=[40, 0]),
   midi.NoteOnEvent(tick=2, channel=3, data=[40, 110]),
   midi.NoteOnEvent(tick=46, channel=3, data=[40, 0]),
   midi.NoteOnEvent(tick=2, channel=3, data=[43, 110]),
   midi.NoteOnEvent(tick=94, channel=3, data=[43, 0]),
   midi.NoteOnEvent(tick=2, channel=3, data=[43, 110]),
   midi.NoteOnEvent(tick=46, channel=3, data=[43, 0]),
   midi.NoteOnEvent(tick=2, channel=3, data=[43, 110]),
   midi.NoteOnEvent(tick=46, channel=3, data=[43, 0]),
   midi.NoteOnEvent(tick=2, channel=3, data=[43, 110]),
   midi.NoteOnEvent(tick=94, channel=3, data=[43, 0]),
   midi.NoteOnEvent(tick=2, channel=3, data=[43, 110]),
   midi.NoteOnEvent(tick=94, channel=3, data=[43, 0]),
   midi.NoteOnEvent(tick=2, channel=3, data=[43, 110]),
   midi.NoteOnEvent(tick=94, channel=3, data=[43, 0]),
   midi.NoteOnEvent(tick=2, channel=3, data=[43, 110]),
   midi.NoteOnEvent(tick=94, channel=3, data=[43, 0]),
   midi.NoteOnEvent(tick=2, channel=3, data=[43, 110]),
   midi.NoteOnEvent(tick=46, channel=3, data=[43, 0]),
   midi.NoteOnEvent(tick=2, channel=3, data=[43, 110]),
   midi.NoteOnEvent(tick=46, channel=3, data=[43, 0]),
   midi.NoteOnEvent(tick=2, channel=3, data=[43, 110]),
   midi.NoteOnEvent(tick=46, channel=3, data=[43, 0]),
   midi.NoteOnEvent(tick=2, channel=3, data=[43, 110]),
   midi.NoteOnEvent(tick=46, channel=3, data=[43, 0]),
   midi.NoteOnEvent(tick=2, channel=3, data=[42, 110]),
   midi.NoteOnEvent(tick=94, channel=3, data=[42, 0]),
   midi.NoteOnEvent(tick=2, channel=3, data=[42, 110]),
   midi.NoteOnEvent(tick=46, channel=3, data=[42, 0]),
   midi.NoteOnEvent(tick=2, channel=3, data=[42, 110]),
   midi.NoteOnEvent(tick=46, channel=3, data=[42, 0]),
   midi.NoteOnEvent(tick=2, channel=3, data=[42, 110]),
   midi.NoteOnEvent(tick=94, channel=3, data=[42, 0]),
   midi.NoteOnEvent(tick=2, channel=3, data=[42, 110]),
   midi.NoteOnEvent(tick=94, channel=3, data=[42, 0]),
   midi.NoteOnEvent(tick=2, channel=3, data=[42, 110]),
   midi.NoteOnEvent(tick=94, channel=3, data=[42, 0]),
   midi.NoteOnEvent(tick=2, channel=3, data=[42, 110]),
   midi.NoteOnEvent(tick=94, channel=3, data=[42, 0]),
   midi.NoteOnEvent(tick=2, channel=3, data=[42, 110]),
   midi.NoteOnEvent(tick=46, channel=3, data=[42, 0]),
   midi.NoteOnEvent(tick=2, channel=3, data=[42, 110]),
   midi.NoteOnEvent(tick=46, channel=3, data=[42, 0]),
   midi.NoteOnEvent(tick=2, channel=3, data=[42, 110]),
   midi.NoteOnEvent(tick=46, channel=3, data=[42, 0]),
   midi.NoteOnEvent(tick=2, channel=3, data=[42, 110]),
   midi.NoteOnEvent(tick=46, channel=3, data=[42, 0]),
   midi.NoteOnEvent(tick=2, channel=3, data=[40, 110]),
   midi.NoteOnEvent(tick=94, channel=3, data=[40, 0]),
   midi.NoteOnEvent(tick=2, channel=3, data=[40, 110]),
   midi.NoteOnEvent(tick=46, channel=3, data=[40, 0]),
   midi.NoteOnEvent(tick=2, channel=3, data=[40, 110]),
   midi.NoteOnEvent(tick=46, channel=3, data=[40, 0]),
   midi.NoteOnEvent(tick=2, channel=3, data=[40, 110]),
   midi.NoteOnEvent(tick=94, channel=3, data=[40, 0]),
   midi.NoteOnEvent(tick=2, channel=3, data=[40, 110]),
   midi.NoteOnEvent(tick=94, channel=3, data=[40, 0]),
   midi.NoteOnEvent(tick=2, channel=3, data=[40, 110]),
   midi.NoteOnEvent(tick=94, channel=3, data=[40, 0]),
   midi.NoteOnEvent(tick=2, channel=3, data=[40, 110]),
   midi.NoteOnEvent(tick=94, channel=3, data=[40, 0]),
   midi.NoteOnEvent(tick=2, channel=3, data=[40, 110]),
   midi.NoteOnEvent(tick=46, channel=3, data=[40, 0]),
   midi.NoteOnEvent(tick=2, channel=3, data=[40, 110]),
   midi.NoteOnEvent(tick=46, channel=3, data=[40, 0]),
   midi.NoteOnEvent(tick=2, channel=3, data=[40, 110]),
   midi.NoteOnEvent(tick=46, channel=3, data=[40, 0]),
   midi.NoteOnEvent(tick=2, channel=3, data=[40, 110]),
   midi.NoteOnEvent(tick=46, channel=3, data=[40, 0]),
   midi.NoteOnEvent(tick=2, channel=3, data=[40, 110]),
   midi.NoteOnEvent(tick=94, channel=3, data=[40, 0]),
   midi.NoteOnEvent(tick=2, channel=3, data=[40, 110]),
   midi.NoteOnEvent(tick=46, channel=3, data=[40, 0]),
   midi.NoteOnEvent(tick=2, channel=3, data=[40, 110]),
   midi.NoteOnEvent(tick=46, channel=3, data=[40, 0]),
   midi.NoteOnEvent(tick=2, channel=3, data=[40, 110]),
   midi.NoteOnEvent(tick=94, channel=3, data=[40, 0]),
   midi.NoteOnEvent(tick=2, channel=3, data=[40, 110]),
   midi.NoteOnEvent(tick=94, channel=3, data=[40, 0]),
   midi.NoteOnEvent(tick=2, channel=3, data=[40, 110]),
   midi.NoteOnEvent(tick=94, channel=3, data=[40, 0]),
   midi.NoteOnEvent(tick=2, channel=3, data=[40, 110]),
   midi.NoteOnEvent(tick=94, channel=3, data=[40, 0]),
   midi.NoteOnEvent(tick=2, channel=3, data=[40, 110]),
   midi.NoteOnEvent(tick=46, channel=3, data=[40, 0]),
   midi.NoteOnEvent(tick=2, channel=3, data=[40, 110]),
   midi.NoteOnEvent(tick=46, channel=3, data=[40, 0]),
   midi.NoteOnEvent(tick=2, channel=3, data=[40, 110]),
   midi.NoteOnEvent(tick=46, channel=3, data=[40, 0]),
   midi.NoteOnEvent(tick=2, channel=3, data=[40, 110]),
   midi.NoteOnEvent(tick=46, channel=3, data=[40, 0]),
   midi.NoteOnEvent(tick=2, channel=3, data=[43, 110]),
   midi.NoteOnEvent(tick=94, channel=3, data=[43, 0]),
   midi.NoteOnEvent(tick=2, channel=3, data=[43, 110]),
   midi.NoteOnEvent(tick=46, channel=3, data=[43, 0]),
   midi.NoteOnEvent(tick=2, channel=3, data=[43, 110]),
   midi.NoteOnEvent(tick=46, channel=3, data=[43, 0]),
   midi.NoteOnEvent(tick=2, channel=3, data=[43, 110]),
   midi.NoteOnEvent(tick=94, channel=3, data=[43, 0]),
   midi.NoteOnEvent(tick=2, channel=3, data=[43, 110]),
   midi.NoteOnEvent(tick=94, channel=3, data=[43, 0]),
   midi.NoteOnEvent(tick=2, channel=3, data=[43, 110]),
   midi.NoteOnEvent(tick=94, channel=3, data=[43, 0]),
   midi.NoteOnEvent(tick=2, channel=3, data=[43, 110]),
   midi.NoteOnEvent(tick=94, channel=3, data=[43, 0]),
   midi.NoteOnEvent(tick=2, channel=3, data=[43, 110]),
   midi.NoteOnEvent(tick=46, channel=3, data=[43, 0]),
   midi.NoteOnEvent(tick=2, channel=3, data=[43, 110]),
   midi.NoteOnEvent(tick=46, channel=3, data=[43, 0]),
   midi.NoteOnEvent(tick=2, channel=3, data=[43, 110]),
   midi.NoteOnEvent(tick=46, channel=3, data=[43, 0]),
   midi.NoteOnEvent(tick=2, channel=3, data=[43, 110]),
   midi.NoteOnEvent(tick=46, channel=3, data=[43, 0]),
   midi.NoteOnEvent(tick=2, channel=3, data=[47, 110]),
   midi.NoteOnEvent(tick=94, channel=3, data=[47, 0]),
   midi.NoteOnEvent(tick=2, channel=3, data=[47, 110]),
   midi.NoteOnEvent(tick=46, channel=3, data=[47, 0]),
   midi.NoteOnEvent(tick=2, channel=3, data=[47, 110]),
   midi.NoteOnEvent(tick=46, channel=3, data=[47, 0]),
   midi.NoteOnEvent(tick=2, channel=3, data=[47, 110]),
   midi.NoteOnEvent(tick=94, channel=3, data=[47, 0]),
   midi.NoteOnEvent(tick=2, channel=3, data=[47, 110]),
   midi.NoteOnEvent(tick=94, channel=3, data=[47, 0]),
   midi.NoteOnEvent(tick=2, channel=3, data=[47, 110]),
   midi.NoteOnEvent(tick=94, channel=3, data=[47, 0]),
   midi.NoteOnEvent(tick=2, channel=3, data=[47, 110]),
   midi.NoteOnEvent(tick=94, channel=3, data=[47, 0]),
   midi.NoteOnEvent(tick=2, channel=3, data=[47, 110]),
   midi.NoteOnEvent(tick=46, channel=3, data=[47, 0]),
   midi.NoteOnEvent(tick=2, channel=3, data=[47, 110]),
   midi.NoteOnEvent(tick=46, channel=3, data=[47, 0]),
   midi.NoteOnEvent(tick=2, channel=3, data=[47, 110]),
   midi.NoteOnEvent(tick=46, channel=3, data=[47, 0]),
   midi.NoteOnEvent(tick=2, channel=3, data=[47, 110]),
   midi.NoteOnEvent(tick=46, channel=3, data=[47, 0]),
   midi.NoteOnEvent(tick=2, channel=3, data=[49, 110]),
   midi.NoteOnEvent(tick=94, channel=3, data=[49, 0]),
   midi.NoteOnEvent(tick=2, channel=3, data=[49, 110]),
   midi.NoteOnEvent(tick=46, channel=3, data=[49, 0]),
   midi.NoteOnEvent(tick=2, channel=3, data=[49, 110]),
   midi.NoteOnEvent(tick=46, channel=3, data=[49, 0]),
   midi.NoteOnEvent(tick=2, channel=3, data=[49, 110]),
   midi.NoteOnEvent(tick=46, channel=3, data=[49, 0]),
   midi.NoteOnEvent(tick=2, channel=3, data=[49, 110]),
   midi.NoteOnEvent(tick=46, channel=3, data=[49, 0]),
   midi.NoteOnEvent(tick=2, channel=3, data=[49, 110]),
   midi.NoteOnEvent(tick=46, channel=3, data=[49, 0]),
   midi.NoteOnEvent(tick=2, channel=3, data=[49, 110]),
   midi.NoteOnEvent(tick=46, channel=3, data=[49, 0]),
   midi.NoteOnEvent(tick=2, channel=3, data=[49, 110]),
   midi.NoteOnEvent(tick=94, channel=3, data=[49, 0]),
   midi.NoteOnEvent(tick=2, channel=3, data=[49, 110]),
   midi.NoteOnEvent(tick=46, channel=3, data=[49, 0]),
   midi.NoteOnEvent(tick=2, channel=3, data=[49, 110]),
   midi.NoteOnEvent(tick=46, channel=3, data=[49, 0]),
   midi.NoteOnEvent(tick=2, channel=3, data=[49, 110]),
   midi.NoteOnEvent(tick=46, channel=3, data=[49, 0]),
   midi.NoteOnEvent(tick=2, channel=3, data=[49, 110]),
   midi.NoteOnEvent(tick=46, channel=3, data=[49, 0]),
   midi.NoteOnEvent(tick=2, channel=3, data=[49, 110]),
   midi.NoteOnEvent(tick=46, channel=3, data=[49, 0]),
   midi.NoteOnEvent(tick=2, channel=3, data=[49, 110]),
   midi.NoteOnEvent(tick=46, channel=3, data=[49, 0]),
   midi.NoteOnEvent(tick=2, channel=3, data=[49, 110]),
   midi.NoteOnEvent(tick=94, channel=3, data=[49, 0]),
   midi.NoteOnEvent(tick=2, channel=3, data=[49, 110]),
   midi.NoteOnEvent(tick=46, channel=3, data=[49, 0]),
   midi.NoteOnEvent(tick=2, channel=3, data=[49, 110]),
   midi.NoteOnEvent(tick=46, channel=3, data=[49, 0]),
   midi.NoteOnEvent(tick=2, channel=3, data=[49, 110]),
   midi.NoteOnEvent(tick=46, channel=3, data=[49, 0]),
   midi.NoteOnEvent(tick=2, channel=3, data=[49, 110]),
   midi.NoteOnEvent(tick=46, channel=3, data=[49, 0]),
   midi.NoteOnEvent(tick=2, channel=3, data=[49, 110]),
   midi.NoteOnEvent(tick=46, channel=3, data=[49, 0]),
   midi.NoteOnEvent(tick=2, channel=3, data=[49, 110]),
   midi.NoteOnEvent(tick=46, channel=3, data=[49, 0]),
   midi.NoteOnEvent(tick=2, channel=3, data=[49, 110]),
   midi.NoteOnEvent(tick=94, channel=3, data=[49, 0]),
   midi.NoteOnEvent(tick=2, channel=3, data=[49, 110]),
   midi.NoteOnEvent(tick=46, channel=3, data=[49, 0]),
   midi.NoteOnEvent(tick=2, channel=3, data=[49, 110]),
   midi.NoteOnEvent(tick=46, channel=3, data=[49, 0]),
   midi.NoteOnEvent(tick=2, channel=3, data=[49, 110]),
   midi.NoteOnEvent(tick=46, channel=3, data=[49, 0]),
   midi.NoteOnEvent(tick=2, channel=3, data=[49, 110]),
   midi.NoteOnEvent(tick=46, channel=3, data=[49, 0]),
   midi.NoteOnEvent(tick=2, channel=3, data=[49, 110]),
   midi.NoteOnEvent(tick=46, channel=3, data=[49, 0]),
   midi.NoteOnEvent(tick=2, channel=3, data=[49, 110]),
   midi.NoteOnEvent(tick=46, channel=3, data=[49, 0]),
   midi.NoteOnEvent(tick=2, channel=3, data=[49, 110]),
   midi.NoteOnEvent(tick=94, channel=3, data=[49, 0]),
   midi.NoteOnEvent(tick=2, channel=3, data=[49, 110]),
   midi.NoteOnEvent(tick=46, channel=3, data=[49, 0]),
   midi.NoteOnEvent(tick=2, channel=3, data=[49, 110]),
   midi.NoteOnEvent(tick=46, channel=3, data=[49, 0]),
   midi.NoteOnEvent(tick=2, channel=3, data=[49, 110]),
   midi.NoteOnEvent(tick=46, channel=3, data=[49, 0]),
   midi.NoteOnEvent(tick=2, channel=3, data=[49, 110]),
   midi.NoteOnEvent(tick=46, channel=3, data=[49, 0]),
   midi.NoteOnEvent(tick=2, channel=3, data=[49, 110]),
   midi.NoteOnEvent(tick=46, channel=3, data=[49, 0]),
   midi.NoteOnEvent(tick=2, channel=3, data=[49, 110]),
   midi.NoteOnEvent(tick=46, channel=3, data=[49, 0]),
   midi.NoteOnEvent(tick=2, channel=3, data=[49, 110]),
   midi.NoteOnEvent(tick=94, channel=3, data=[49, 0]),
   midi.NoteOnEvent(tick=2, channel=3, data=[49, 110]),
   midi.NoteOnEvent(tick=46, channel=3, data=[49, 0]),
   midi.NoteOnEvent(tick=2, channel=3, data=[49, 110]),
   midi.NoteOnEvent(tick=46, channel=3, data=[49, 0]),
   midi.NoteOnEvent(tick=2, channel=3, data=[47, 110]),
   midi.NoteOnEvent(tick=94, channel=3, data=[47, 0]),
   midi.NoteOnEvent(tick=2, channel=3, data=[47, 110]),
   midi.NoteOnEvent(tick=46, channel=3, data=[47, 0]),
   midi.NoteOnEvent(tick=2, channel=3, data=[47, 110]),
   midi.NoteOnEvent(tick=46, channel=3, data=[47, 0]),
   midi.NoteOnEvent(tick=2, channel=3, data=[47, 110]),
   midi.NoteOnEvent(tick=46, channel=3, data=[47, 0]),
   midi.NoteOnEvent(tick=2, channel=3, data=[47, 110]),
   midi.NoteOnEvent(tick=46, channel=3, data=[47, 0]),
   midi.NoteOnEvent(tick=2, channel=3, data=[47, 110]),
   midi.NoteOnEvent(tick=46, channel=3, data=[47, 0]),
   midi.NoteOnEvent(tick=2, channel=3, data=[47, 110]),
   midi.NoteOnEvent(tick=46, channel=3, data=[47, 0]),
   midi.NoteOnEvent(tick=2, channel=3, data=[47, 110]),
   midi.NoteOnEvent(tick=94, channel=3, data=[47, 0]),
   midi.NoteOnEvent(tick=2, channel=3, data=[47, 110]),
   midi.NoteOnEvent(tick=46, channel=3, data=[47, 0]),
   midi.NoteOnEvent(tick=2, channel=3, data=[47, 110]),
   midi.NoteOnEvent(tick=46, channel=3, data=[47, 0]),
   midi.NoteOnEvent(tick=2, channel=3, data=[49, 110]),
   midi.NoteOnEvent(tick=94, channel=3, data=[49, 0]),
   midi.NoteOnEvent(tick=2, channel=3, data=[49, 110]),
   midi.NoteOnEvent(tick=46, channel=3, data=[49, 0]),
   midi.NoteOnEvent(tick=2, channel=3, data=[49, 110]),
   midi.NoteOnEvent(tick=46, channel=3, data=[49, 0]),
   midi.NoteOnEvent(tick=2, channel=3, data=[49, 110]),
   midi.NoteOnEvent(tick=46, channel=3, data=[49, 0]),
   midi.NoteOnEvent(tick=2, channel=3, data=[49, 110]),
   midi.NoteOnEvent(tick=46, channel=3, data=[49, 0]),
   midi.NoteOnEvent(tick=2, channel=3, data=[49, 110]),
   midi.NoteOnEvent(tick=46, channel=3, data=[49, 0]),
   midi.NoteOnEvent(tick=2, channel=3, data=[49, 110]),
   midi.NoteOnEvent(tick=46, channel=3, data=[49, 0]),
   midi.NoteOnEvent(tick=2, channel=3, data=[49, 110]),
   midi.NoteOnEvent(tick=94, channel=3, data=[49, 0]),
   midi.NoteOnEvent(tick=2, channel=3, data=[49, 110]),
   midi.NoteOnEvent(tick=46, channel=3, data=[49, 0]),
   midi.NoteOnEvent(tick=2, channel=3, data=[49, 110]),
   midi.NoteOnEvent(tick=46, channel=3, data=[49, 0]),
   midi.NoteOnEvent(tick=2, channel=3, data=[49, 110]),
   midi.NoteOnEvent(tick=46, channel=3, data=[49, 0]),
   midi.NoteOnEvent(tick=2, channel=3, data=[49, 110]),
   midi.NoteOnEvent(tick=46, channel=3, data=[49, 0]),
   midi.NoteOnEvent(tick=2, channel=3, data=[49, 110]),
   midi.NoteOnEvent(tick=46, channel=3, data=[49, 0]),
   midi.NoteOnEvent(tick=2, channel=3, data=[49, 110]),
   midi.NoteOnEvent(tick=46, channel=3, data=[49, 0]),
   midi.NoteOnEvent(tick=2, channel=3, data=[49, 110]),
   midi.NoteOnEvent(tick=94, channel=3, data=[49, 0]),
   midi.NoteOnEvent(tick=2, channel=3, data=[49, 110]),
   midi.NoteOnEvent(tick=46, channel=3, data=[49, 0]),
   midi.NoteOnEvent(tick=2, channel=3, data=[49, 110]),
   midi.NoteOnEvent(tick=46, channel=3, data=[49, 0]),
   midi.NoteOnEvent(tick=2, channel=3, data=[49, 110]),
   midi.NoteOnEvent(tick=46, channel=3, data=[49, 0]),
   midi.NoteOnEvent(tick=2, channel=3, data=[49, 110]),
   midi.NoteOnEvent(tick=46, channel=3, data=[49, 0]),
   midi.NoteOnEvent(tick=2, channel=3, data=[49, 110]),
   midi.NoteOnEvent(tick=46, channel=3, data=[49, 0]),
   midi.NoteOnEvent(tick=2, channel=3, data=[49, 110]),
   midi.NoteOnEvent(tick=46, channel=3, data=[49, 0]),
   midi.NoteOnEvent(tick=2, channel=3, data=[49, 110]),
   midi.NoteOnEvent(tick=94, channel=3, data=[49, 0]),
   midi.NoteOnEvent(tick=2, channel=3, data=[49, 110]),
   midi.NoteOnEvent(tick=46, channel=3, data=[49, 0]),
   midi.NoteOnEvent(tick=2, channel=3, data=[49, 110]),
   midi.NoteOnEvent(tick=46, channel=3, data=[49, 0]),
   midi.NoteOnEvent(tick=2, channel=3, data=[49, 110]),
   midi.NoteOnEvent(tick=46, channel=3, data=[49, 0]),
   midi.NoteOnEvent(tick=2, channel=3, data=[49, 110]),
   midi.NoteOnEvent(tick=46, channel=3, data=[49, 0]),
   midi.NoteOnEvent(tick=2, channel=3, data=[49, 110]),
   midi.NoteOnEvent(tick=46, channel=3, data=[49, 0]),
   midi.NoteOnEvent(tick=2, channel=3, data=[49, 110]),
   midi.NoteOnEvent(tick=46, channel=3, data=[49, 0]),
   midi.NoteOnEvent(tick=2, channel=3, data=[49, 110]),
   midi.NoteOnEvent(tick=94, channel=3, data=[49, 0]),
   midi.NoteOnEvent(tick=2, channel=3, data=[49, 110]),
   midi.NoteOnEvent(tick=46, channel=3, data=[49, 0]),
   midi.NoteOnEvent(tick=2, channel=3, data=[49, 110]),
   midi.NoteOnEvent(tick=46, channel=3, data=[49, 0]),
   midi.NoteOnEvent(tick=2, channel=3, data=[49, 110]),
   midi.NoteOnEvent(tick=46, channel=3, data=[49, 0]),
   midi.NoteOnEvent(tick=2, channel=3, data=[49, 110]),
   midi.NoteOnEvent(tick=46, channel=3, data=[49, 0]),
   midi.NoteOnEvent(tick=2, channel=3, data=[49, 110]),
   midi.NoteOnEvent(tick=46, channel=3, data=[49, 0]),
   midi.NoteOnEvent(tick=2, channel=3, data=[49, 110]),
   midi.NoteOnEvent(tick=46, channel=3, data=[49, 0]),
   midi.NoteOnEvent(tick=2, channel=3, data=[49, 110]),
   midi.NoteOnEvent(tick=94, channel=3, data=[49, 0]),
   midi.NoteOnEvent(tick=2, channel=3, data=[49, 110]),
   midi.NoteOnEvent(tick=46, channel=3, data=[49, 0]),
   midi.NoteOnEvent(tick=2, channel=3, data=[49, 110]),
   midi.NoteOnEvent(tick=46, channel=3, data=[49, 0]),
   midi.NoteOnEvent(tick=2, channel=3, data=[47, 110]),
   midi.NoteOnEvent(tick=94, channel=3, data=[47, 0]),
   midi.NoteOnEvent(tick=2, channel=3, data=[47, 110]),
   midi.NoteOnEvent(tick=46, channel=3, data=[47, 0]),
   midi.NoteOnEvent(tick=2, channel=3, data=[47, 110]),
   midi.NoteOnEvent(tick=46, channel=3, data=[47, 0]),
   midi.NoteOnEvent(tick=2, channel=3, data=[47, 110]),
   midi.NoteOnEvent(tick=46, channel=3, data=[47, 0]),
   midi.NoteOnEvent(tick=2, channel=3, data=[47, 110]),
   midi.NoteOnEvent(tick=46, channel=3, data=[47, 0]),
   midi.NoteOnEvent(tick=2, channel=3, data=[47, 110]),
   midi.NoteOnEvent(tick=46, channel=3, data=[47, 0]),
   midi.NoteOnEvent(tick=2, channel=3, data=[47, 110]),
   midi.NoteOnEvent(tick=46, channel=3, data=[47, 0]),
   midi.NoteOnEvent(tick=2, channel=3, data=[47, 110]),
   midi.NoteOnEvent(tick=94, channel=3, data=[47, 0]),
   midi.NoteOnEvent(tick=2, channel=3, data=[47, 110]),
   midi.NoteOnEvent(tick=46, channel=3, data=[47, 0]),
   midi.NoteOnEvent(tick=2, channel=3, data=[47, 110]),
   midi.NoteOnEvent(tick=46, channel=3, data=[47, 0]),
   midi.NoteOnEvent(tick=2, channel=3, data=[49, 110]),
   midi.NoteOnEvent(tick=94, channel=3, data=[49, 0]),
   midi.NoteOnEvent(tick=2, channel=3, data=[49, 110]),
   midi.NoteOnEvent(tick=46, channel=3, data=[49, 0]),
   midi.NoteOnEvent(tick=2, channel=3, data=[49, 110]),
   midi.NoteOnEvent(tick=46, channel=3, data=[49, 0]),
   midi.NoteOnEvent(tick=2, channel=3, data=[49, 110]),
   midi.NoteOnEvent(tick=46, channel=3, data=[49, 0]),
   midi.NoteOnEvent(tick=2, channel=3, data=[49, 110]),
   midi.NoteOnEvent(tick=46, channel=3, data=[49, 0]),
   midi.NoteOnEvent(tick=2, channel=3, data=[49, 110]),
   midi.NoteOnEvent(tick=46, channel=3, data=[49, 0]),
   midi.NoteOnEvent(tick=2, channel=3, data=[49, 110]),
   midi.NoteOnEvent(tick=46, channel=3, data=[49, 0]),
   midi.NoteOnEvent(tick=2, channel=3, data=[49, 110]),
   midi.NoteOnEvent(tick=94, channel=3, data=[49, 0]),
   midi.NoteOnEvent(tick=2, channel=3, data=[49, 110]),
   midi.NoteOnEvent(tick=46, channel=3, data=[49, 0]),
   midi.NoteOnEvent(tick=2, channel=3, data=[49, 110]),
   midi.NoteOnEvent(tick=46, channel=3, data=[49, 0]),
   midi.NoteOnEvent(tick=2, channel=3, data=[49, 110]),
   midi.NoteOnEvent(tick=46, channel=3, data=[49, 0]),
   midi.NoteOnEvent(tick=2, channel=3, data=[49, 110]),
   midi.NoteOnEvent(tick=46, channel=3, data=[49, 0]),
   midi.NoteOnEvent(tick=2, channel=3, data=[49, 110]),
   midi.NoteOnEvent(tick=46, channel=3, data=[49, 0]),
   midi.NoteOnEvent(tick=2, channel=3, data=[49, 110]),
   midi.NoteOnEvent(tick=46, channel=3, data=[49, 0]),
   midi.NoteOnEvent(tick=2, channel=3, data=[49, 110]),
   midi.NoteOnEvent(tick=94, channel=3, data=[49, 0]),
   midi.NoteOnEvent(tick=2, channel=3, data=[49, 110]),
   midi.NoteOnEvent(tick=46, channel=3, data=[49, 0]),
   midi.NoteOnEvent(tick=2, channel=3, data=[49, 110]),
   midi.NoteOnEvent(tick=46, channel=3, data=[49, 0]),
   midi.NoteOnEvent(tick=2, channel=3, data=[49, 110]),
   midi.NoteOnEvent(tick=46, channel=3, data=[49, 0]),
   midi.NoteOnEvent(tick=2, channel=3, data=[49, 110]),
   midi.NoteOnEvent(tick=46, channel=3, data=[49, 0]),
   midi.NoteOnEvent(tick=2, channel=3, data=[49, 110]),
   midi.NoteOnEvent(tick=46, channel=3, data=[49, 0]),
   midi.NoteOnEvent(tick=2, channel=3, data=[49, 110]),
   midi.NoteOnEvent(tick=46, channel=3, data=[49, 0]),
   midi.NoteOnEvent(tick=2, channel=3, data=[49, 110]),
   midi.NoteOnEvent(tick=94, channel=3, data=[49, 0]),
   midi.NoteOnEvent(tick=2, channel=3, data=[49, 110]),
   midi.NoteOnEvent(tick=46, channel=3, data=[49, 0]),
   midi.NoteOnEvent(tick=2, channel=3, data=[49, 110]),
   midi.NoteOnEvent(tick=46, channel=3, data=[49, 0]),
   midi.NoteOnEvent(tick=2, channel=3, data=[49, 110]),
   midi.NoteOnEvent(tick=46, channel=3, data=[49, 0]),
   midi.NoteOnEvent(tick=2, channel=3, data=[49, 110]),
   midi.NoteOnEvent(tick=46, channel=3, data=[49, 0]),
   midi.NoteOnEvent(tick=2, channel=3, data=[49, 110]),
   midi.NoteOnEvent(tick=46, channel=3, data=[49, 0]),
   midi.NoteOnEvent(tick=2, channel=3, data=[49, 110]),
   midi.NoteOnEvent(tick=46, channel=3, data=[49, 0]),
   midi.NoteOnEvent(tick=2, channel=3, data=[49, 110]),
   midi.NoteOnEvent(tick=94, channel=3, data=[49, 0]),
   midi.NoteOnEvent(tick=2, channel=3, data=[49, 110]),
   midi.NoteOnEvent(tick=46, channel=3, data=[49, 0]),
   midi.NoteOnEvent(tick=2, channel=3, data=[49, 110]),
   midi.NoteOnEvent(tick=46, channel=3, data=[49, 0]),
   midi.NoteOnEvent(tick=2, channel=3, data=[49, 110]),
   midi.NoteOnEvent(tick=46, channel=3, data=[49, 0]),
   midi.NoteOnEvent(tick=2, channel=3, data=[49, 110]),
   midi.NoteOnEvent(tick=46, channel=3, data=[49, 0]),
   midi.NoteOnEvent(tick=2, channel=3, data=[49, 110]),
   midi.NoteOnEvent(tick=46, channel=3, data=[49, 0]),
   midi.NoteOnEvent(tick=2, channel=3, data=[49, 110]),
   midi.NoteOnEvent(tick=46, channel=3, data=[49, 0]),
   midi.NoteOnEvent(tick=2, channel=3, data=[49, 110]),
   midi.NoteOnEvent(tick=94, channel=3, data=[49, 0]),
   midi.NoteOnEvent(tick=2, channel=3, data=[49, 110]),
   midi.NoteOnEvent(tick=46, channel=3, data=[49, 0]),
   midi.NoteOnEvent(tick=2, channel=3, data=[49, 110]),
   midi.NoteOnEvent(tick=46, channel=3, data=[49, 0]),
   midi.NoteOnEvent(tick=2, channel=3, data=[47, 110]),
   midi.NoteOnEvent(tick=94, channel=3, data=[47, 0]),
   midi.NoteOnEvent(tick=2, channel=3, data=[47, 110]),
   midi.NoteOnEvent(tick=46, channel=3, data=[47, 0]),
   midi.NoteOnEvent(tick=2, channel=3, data=[47, 110]),
   midi.NoteOnEvent(tick=46, channel=3, data=[47, 0]),
   midi.NoteOnEvent(tick=2, channel=3, data=[47, 110]),
   midi.NoteOnEvent(tick=46, channel=3, data=[47, 0]),
   midi.NoteOnEvent(tick=2, channel=3, data=[47, 110]),
   midi.NoteOnEvent(tick=46, channel=3, data=[47, 0]),
   midi.NoteOnEvent(tick=2, channel=3, data=[47, 110]),
   midi.NoteOnEvent(tick=46, channel=3, data=[47, 0]),
   midi.NoteOnEvent(tick=2, channel=3, data=[47, 110]),
   midi.NoteOnEvent(tick=46, channel=3, data=[47, 0]),
   midi.NoteOnEvent(tick=2, channel=3, data=[47, 110]),
   midi.NoteOnEvent(tick=94, channel=3, data=[47, 0]),
   midi.NoteOnEvent(tick=2, channel=3, data=[47, 110]),
   midi.NoteOnEvent(tick=46, channel=3, data=[47, 0]),
   midi.NoteOnEvent(tick=2, channel=3, data=[47, 110]),
   midi.NoteOnEvent(tick=46, channel=3, data=[47, 0]),
   midi.NoteOnEvent(tick=2, channel=3, data=[49, 110]),
   midi.NoteOnEvent(tick=94, channel=3, data=[49, 0]),
   midi.NoteOnEvent(tick=2, channel=3, data=[49, 110]),
   midi.NoteOnEvent(tick=46, channel=3, data=[49, 0]),
   midi.NoteOnEvent(tick=2, channel=3, data=[49, 110]),
   midi.NoteOnEvent(tick=46, channel=3, data=[49, 0]),
   midi.NoteOnEvent(tick=2, channel=3, data=[49, 110]),
   midi.NoteOnEvent(tick=46, channel=3, data=[49, 0]),
   midi.NoteOnEvent(tick=2, channel=3, data=[49, 110]),
   midi.NoteOnEvent(tick=46, channel=3, data=[49, 0]),
   midi.NoteOnEvent(tick=2, channel=3, data=[49, 110]),
   midi.NoteOnEvent(tick=46, channel=3, data=[49, 0]),
   midi.NoteOnEvent(tick=2, channel=3, data=[49, 110]),
   midi.NoteOnEvent(tick=46, channel=3, data=[49, 0]),
   midi.NoteOnEvent(tick=2, channel=3, data=[49, 110]),
   midi.NoteOnEvent(tick=94, channel=3, data=[49, 0]),
   midi.NoteOnEvent(tick=2, channel=3, data=[49, 110]),
   midi.NoteOnEvent(tick=46, channel=3, data=[49, 0]),
   midi.NoteOnEvent(tick=2, channel=3, data=[49, 110]),
   midi.NoteOnEvent(tick=46, channel=3, data=[49, 0]),
   midi.NoteOnEvent(tick=2, channel=3, data=[49, 110]),
   midi.NoteOnEvent(tick=46, channel=3, data=[49, 0]),
   midi.NoteOnEvent(tick=2, channel=3, data=[49, 110]),
   midi.NoteOnEvent(tick=46, channel=3, data=[49, 0]),
   midi.NoteOnEvent(tick=2, channel=3, data=[49, 110]),
   midi.NoteOnEvent(tick=46, channel=3, data=[49, 0]),
   midi.NoteOnEvent(tick=2, channel=3, data=[49, 110]),
   midi.NoteOnEvent(tick=46, channel=3, data=[49, 0]),
   midi.NoteOnEvent(tick=2, channel=3, data=[49, 110]),
   midi.NoteOnEvent(tick=94, channel=3, data=[49, 0]),
   midi.NoteOnEvent(tick=2, channel=3, data=[49, 110]),
   midi.NoteOnEvent(tick=46, channel=3, data=[49, 0]),
   midi.NoteOnEvent(tick=2, channel=3, data=[49, 110]),
   midi.NoteOnEvent(tick=46, channel=3, data=[49, 0]),
   midi.NoteOnEvent(tick=2, channel=3, data=[49, 110]),
   midi.NoteOnEvent(tick=46, channel=3, data=[49, 0]),
   midi.NoteOnEvent(tick=2, channel=3, data=[49, 110]),
   midi.NoteOnEvent(tick=46, channel=3, data=[49, 0]),
   midi.NoteOnEvent(tick=2, channel=3, data=[49, 110]),
   midi.NoteOnEvent(tick=46, channel=3, data=[49, 0]),
   midi.NoteOnEvent(tick=2, channel=3, data=[49, 110]),
   midi.NoteOnEvent(tick=46, channel=3, data=[49, 0]),
   midi.NoteOnEvent(tick=2, channel=3, data=[49, 110]),
   midi.NoteOnEvent(tick=94, channel=3, data=[49, 0]),
   midi.NoteOnEvent(tick=2, channel=3, data=[49, 110]),
   midi.NoteOnEvent(tick=46, channel=3, data=[49, 0]),
   midi.NoteOnEvent(tick=2, channel=3, data=[49, 110]),
   midi.NoteOnEvent(tick=46, channel=3, data=[49, 0]),
   midi.NoteOnEvent(tick=2, channel=3, data=[49, 110]),
   midi.NoteOnEvent(tick=46, channel=3, data=[49, 0]),
   midi.NoteOnEvent(tick=2, channel=3, data=[49, 110]),
   midi.NoteOnEvent(tick=46, channel=3, data=[49, 0]),
   midi.NoteOnEvent(tick=2, channel=3, data=[49, 110]),
   midi.NoteOnEvent(tick=46, channel=3, data=[49, 0]),
   midi.NoteOnEvent(tick=2, channel=3, data=[49, 110]),
   midi.NoteOnEvent(tick=46, channel=3, data=[49, 0]),
   midi.NoteOnEvent(tick=2, channel=3, data=[49, 110]),
   midi.NoteOnEvent(tick=94, channel=3, data=[49, 0]),
   midi.NoteOnEvent(tick=2, channel=3, data=[49, 110]),
   midi.NoteOnEvent(tick=46, channel=3, data=[49, 0]),
   midi.NoteOnEvent(tick=2, channel=3, data=[49, 110]),
   midi.NoteOnEvent(tick=46, channel=3, data=[49, 0]),
   midi.NoteOnEvent(tick=2, channel=3, data=[49, 110]),
   midi.NoteOnEvent(tick=46, channel=3, data=[49, 0]),
   midi.NoteOnEvent(tick=2, channel=3, data=[49, 110]),
   midi.NoteOnEvent(tick=46, channel=3, data=[49, 0]),
   midi.NoteOnEvent(tick=2, channel=3, data=[49, 110]),
   midi.NoteOnEvent(tick=46, channel=3, data=[49, 0]),
   midi.NoteOnEvent(tick=2, channel=3, data=[49, 110]),
   midi.NoteOnEvent(tick=46, channel=3, data=[49, 0]),
   midi.NoteOnEvent(tick=2, channel=3, data=[49, 110]),
   midi.NoteOnEvent(tick=94, channel=3, data=[49, 0]),
   midi.NoteOnEvent(tick=2, channel=3, data=[49, 110]),
   midi.NoteOnEvent(tick=46, channel=3, data=[49, 0]),
   midi.NoteOnEvent(tick=2, channel=3, data=[49, 110]),
   midi.NoteOnEvent(tick=46, channel=3, data=[49, 0]),
   midi.NoteOnEvent(tick=2, channel=3, data=[47, 110]),
   midi.NoteOnEvent(tick=94, channel=3, data=[47, 0]),
   midi.NoteOnEvent(tick=2, channel=3, data=[47, 110]),
   midi.NoteOnEvent(tick=46, channel=3, data=[47, 0]),
   midi.NoteOnEvent(tick=2, channel=3, data=[47, 110]),
   midi.NoteOnEvent(tick=46, channel=3, data=[47, 0]),
   midi.NoteOnEvent(tick=2, channel=3, data=[47, 110]),
   midi.NoteOnEvent(tick=46, channel=3, data=[47, 0]),
   midi.NoteOnEvent(tick=2, channel=3, data=[47, 110]),
   midi.NoteOnEvent(tick=46, channel=3, data=[47, 0]),
   midi.NoteOnEvent(tick=2, channel=3, data=[47, 110]),
   midi.NoteOnEvent(tick=46, channel=3, data=[47, 0]),
   midi.NoteOnEvent(tick=2, channel=3, data=[47, 110]),
   midi.NoteOnEvent(tick=46, channel=3, data=[47, 0]),
   midi.NoteOnEvent(tick=2, channel=3, data=[47, 110]),
   midi.NoteOnEvent(tick=94, channel=3, data=[47, 0]),
   midi.NoteOnEvent(tick=2, channel=3, data=[47, 110]),
   midi.NoteOnEvent(tick=46, channel=3, data=[47, 0]),
   midi.NoteOnEvent(tick=2, channel=3, data=[47, 110]),
   midi.NoteOnEvent(tick=46, channel=3, data=[47, 0]),
   midi.NoteOnEvent(tick=2, channel=3, data=[47, 110]),
   midi.NoteOnEvent(tick=94, channel=3, data=[47, 0]),
   midi.NoteOnEvent(tick=2, channel=3, data=[47, 110]),
   midi.NoteOnEvent(tick=46, channel=3, data=[47, 0]),
   midi.NoteOnEvent(tick=2, channel=3, data=[47, 110]),
   midi.NoteOnEvent(tick=46, channel=3, data=[47, 0]),
   midi.NoteOnEvent(tick=2, channel=3, data=[47, 110]),
   midi.NoteOnEvent(tick=46, channel=3, data=[47, 0]),
   midi.NoteOnEvent(tick=2, channel=3, data=[47, 110]),
   midi.NoteOnEvent(tick=46, channel=3, data=[47, 0]),
   midi.NoteOnEvent(tick=2, channel=3, data=[47, 110]),
   midi.NoteOnEvent(tick=46, channel=3, data=[47, 0]),
   midi.NoteOnEvent(tick=2, channel=3, data=[47, 110]),
   midi.NoteOnEvent(tick=46, channel=3, data=[47, 0]),
   midi.NoteOnEvent(tick=2, channel=3, data=[47, 110]),
   midi.NoteOnEvent(tick=94, channel=3, data=[47, 0]),
   midi.NoteOnEvent(tick=2, channel=3, data=[47, 110]),
   midi.NoteOnEvent(tick=46, channel=3, data=[47, 0]),
   midi.NoteOnEvent(tick=2, channel=3, data=[47, 110]),
   midi.NoteOnEvent(tick=46, channel=3, data=[47, 0]),
   midi.NoteOnEvent(tick=2, channel=3, data=[47, 110]),
   midi.NoteOnEvent(tick=46, channel=3, data=[47, 0]),
   midi.NoteOnEvent(tick=2, channel=3, data=[47, 110]),
   midi.NoteOnEvent(tick=46, channel=3, data=[47, 0]),
   midi.NoteOnEvent(tick=2, channel=3, data=[47, 110]),
   midi.NoteOnEvent(tick=46, channel=3, data=[47, 0]),
   midi.NoteOnEvent(tick=2, channel=3, data=[47, 110]),
   midi.NoteOnEvent(tick=46, channel=3, data=[47, 0]),
   midi.NoteOnEvent(tick=2, channel=3, data=[47, 110]),
   midi.NoteOnEvent(tick=94, channel=3, data=[47, 0]),
   midi.NoteOnEvent(tick=2, channel=3, data=[47, 110]),
   midi.NoteOnEvent(tick=46, channel=3, data=[47, 0]),
   midi.NoteOnEvent(tick=2, channel=3, data=[47, 110]),
   midi.NoteOnEvent(tick=46, channel=3, data=[47, 0]),
   midi.NoteOnEvent(tick=2, channel=3, data=[47, 110]),
   midi.NoteOnEvent(tick=46, channel=3, data=[47, 0]),
   midi.NoteOnEvent(tick=2, channel=3, data=[47, 110]),
   midi.NoteOnEvent(tick=46, channel=3, data=[47, 0]),
   midi.NoteOnEvent(tick=2, channel=3, data=[47, 110]),
   midi.NoteOnEvent(tick=46, channel=3, data=[47, 0]),
   midi.NoteOnEvent(tick=2, channel=3, data=[47, 110]),
   midi.NoteOnEvent(tick=46, channel=3, data=[47, 0]),
   midi.NoteOnEvent(tick=2, channel=3, data=[47, 110]),
   midi.NoteOnEvent(tick=94, channel=3, data=[47, 0]),
   midi.NoteOnEvent(tick=2, channel=3, data=[47, 110]),
   midi.NoteOnEvent(tick=46, channel=3, data=[47, 0]),
   midi.NoteOnEvent(tick=2, channel=3, data=[47, 110]),
   midi.NoteOnEvent(tick=46, channel=3, data=[47, 0]),
   midi.NoteOnEvent(tick=2, channel=3, data=[47, 110]),
   midi.NoteOnEvent(tick=46, channel=3, data=[47, 0]),
   midi.NoteOnEvent(tick=2, channel=3, data=[47, 110]),
   midi.NoteOnEvent(tick=46, channel=3, data=[47, 0]),
   midi.NoteOnEvent(tick=2, channel=3, data=[47, 110]),
   midi.NoteOnEvent(tick=46, channel=3, data=[47, 0]),
   midi.NoteOnEvent(tick=2, channel=3, data=[47, 110]),
   midi.NoteOnEvent(tick=46, channel=3, data=[47, 0]),
   midi.NoteOnEvent(tick=2, channel=3, data=[47, 110]),
   midi.NoteOnEvent(tick=94, channel=3, data=[47, 0]),
   midi.NoteOnEvent(tick=2, channel=3, data=[47, 110]),
   midi.NoteOnEvent(tick=46, channel=3, data=[47, 0]),
   midi.NoteOnEvent(tick=2, channel=3, data=[47, 110]),
   midi.NoteOnEvent(tick=46, channel=3, data=[47, 0]),
   midi.NoteOnEvent(tick=2, channel=3, data=[47, 110]),
   midi.NoteOnEvent(tick=46, channel=3, data=[47, 0]),
   midi.NoteOnEvent(tick=2, channel=3, data=[47, 110]),
   midi.NoteOnEvent(tick=46, channel=3, data=[47, 0]),
   midi.NoteOnEvent(tick=2, channel=3, data=[47, 110]),
   midi.NoteOnEvent(tick=46, channel=3, data=[47, 0]),
   midi.NoteOnEvent(tick=2, channel=3, data=[47, 110]),
   midi.NoteOnEvent(tick=46, channel=3, data=[47, 0]),
   midi.NoteOnEvent(tick=2, channel=3, data=[47, 110]),
   midi.NoteOnEvent(tick=94, channel=3, data=[47, 0]),
   midi.NoteOnEvent(tick=2, channel=3, data=[47, 110]),
   midi.NoteOnEvent(tick=46, channel=3, data=[47, 0]),
   midi.NoteOnEvent(tick=2, channel=3, data=[47, 110]),
   midi.NoteOnEvent(tick=46, channel=3, data=[47, 0]),
   midi.NoteOnEvent(tick=2, channel=3, data=[45, 110]),
   midi.NoteOnEvent(tick=94, channel=3, data=[45, 0]),
   midi.NoteOnEvent(tick=2, channel=3, data=[45, 110]),
   midi.NoteOnEvent(tick=46, channel=3, data=[45, 0]),
   midi.NoteOnEvent(tick=2, channel=3, data=[45, 110]),
   midi.NoteOnEvent(tick=46, channel=3, data=[45, 0]),
   midi.NoteOnEvent(tick=2, channel=3, data=[45, 110]),
   midi.NoteOnEvent(tick=46, channel=3, data=[45, 0]),
   midi.NoteOnEvent(tick=2, channel=3, data=[45, 110]),
   midi.NoteOnEvent(tick=46, channel=3, data=[45, 0]),
   midi.NoteOnEvent(tick=2, channel=3, data=[45, 110]),
   midi.NoteOnEvent(tick=46, channel=3, data=[45, 0]),
   midi.NoteOnEvent(tick=2, channel=3, data=[45, 110]),
   midi.NoteOnEvent(tick=46, channel=3, data=[45, 0]),
   midi.NoteOnEvent(tick=2, channel=3, data=[45, 110]),
   midi.NoteOnEvent(tick=94, channel=3, data=[45, 0]),
   midi.NoteOnEvent(tick=2, channel=3, data=[45, 110]),
   midi.NoteOnEvent(tick=46, channel=3, data=[45, 0]),
   midi.NoteOnEvent(tick=2, channel=3, data=[45, 110]),
   midi.NoteOnEvent(tick=46, channel=3, data=[45, 0]),
   midi.NoteOnEvent(tick=2, channel=3, data=[47, 110]),
   midi.NoteOnEvent(tick=94, channel=3, data=[47, 0]),
   midi.NoteOnEvent(tick=2, channel=3, data=[47, 110]),
   midi.NoteOnEvent(tick=46, channel=3, data=[47, 0]),
   midi.NoteOnEvent(tick=2, channel=3, data=[47, 110]),
   midi.NoteOnEvent(tick=46, channel=3, data=[47, 0]),
   midi.NoteOnEvent(tick=2, channel=3, data=[47, 110]),
   midi.NoteOnEvent(tick=46, channel=3, data=[47, 0]),
   midi.NoteOnEvent(tick=2, channel=3, data=[47, 110]),
   midi.NoteOnEvent(tick=46, channel=3, data=[47, 0]),
   midi.NoteOnEvent(tick=2, channel=3, data=[47, 110]),
   midi.NoteOnEvent(tick=46, channel=3, data=[47, 0]),
   midi.NoteOnEvent(tick=2, channel=3, data=[47, 110]),
   midi.NoteOnEvent(tick=46, channel=3, data=[47, 0]),
   midi.NoteOnEvent(tick=2, channel=3, data=[47, 110]),
   midi.NoteOnEvent(tick=94, channel=3, data=[47, 0]),
   midi.NoteOnEvent(tick=2, channel=3, data=[47, 110]),
   midi.NoteOnEvent(tick=46, channel=3, data=[47, 0]),
   midi.NoteOnEvent(tick=2, channel=3, data=[47, 110]),
   midi.NoteOnEvent(tick=46, channel=3, data=[47, 0]),
   midi.NoteOnEvent(tick=2, channel=3, data=[47, 110]),
   midi.NoteOnEvent(tick=46, channel=3, data=[47, 0]),
   midi.NoteOnEvent(tick=2, channel=3, data=[47, 110]),
   midi.NoteOnEvent(tick=46, channel=3, data=[47, 0]),
   midi.NoteOnEvent(tick=2, channel=3, data=[47, 110]),
   midi.NoteOnEvent(tick=46, channel=3, data=[47, 0]),
   midi.NoteOnEvent(tick=2, channel=3, data=[47, 110]),
   midi.NoteOnEvent(tick=46, channel=3, data=[47, 0]),
   midi.NoteOnEvent(tick=2, channel=3, data=[47, 110]),
   midi.NoteOnEvent(tick=94, channel=3, data=[47, 0]),
   midi.NoteOnEvent(tick=2, channel=3, data=[47, 110]),
   midi.NoteOnEvent(tick=46, channel=3, data=[47, 0]),
   midi.NoteOnEvent(tick=2, channel=3, data=[47, 110]),
   midi.NoteOnEvent(tick=46, channel=3, data=[47, 0]),
   midi.NoteOnEvent(tick=2, channel=3, data=[47, 110]),
   midi.NoteOnEvent(tick=46, channel=3, data=[47, 0]),
   midi.NoteOnEvent(tick=2, channel=3, data=[47, 110]),
   midi.NoteOnEvent(tick=46, channel=3, data=[47, 0]),
   midi.NoteOnEvent(tick=2, channel=3, data=[47, 110]),
   midi.NoteOnEvent(tick=46, channel=3, data=[47, 0]),
   midi.NoteOnEvent(tick=2, channel=3, data=[47, 110]),
   midi.NoteOnEvent(tick=46, channel=3, data=[47, 0]),
   midi.NoteOnEvent(tick=2, channel=3, data=[47, 110]),
   midi.NoteOnEvent(tick=94, channel=3, data=[47, 0]),
   midi.NoteOnEvent(tick=2, channel=3, data=[47, 110]),
   midi.NoteOnEvent(tick=46, channel=3, data=[47, 0]),
   midi.NoteOnEvent(tick=2, channel=3, data=[47, 110]),
   midi.NoteOnEvent(tick=46, channel=3, data=[47, 0]),
   midi.NoteOnEvent(tick=2, channel=3, data=[47, 110]),
   midi.NoteOnEvent(tick=46, channel=3, data=[47, 0]),
   midi.NoteOnEvent(tick=2, channel=3, data=[47, 110]),
   midi.NoteOnEvent(tick=46, channel=3, data=[47, 0]),
   midi.NoteOnEvent(tick=2, channel=3, data=[47, 110]),
   midi.NoteOnEvent(tick=46, channel=3, data=[47, 0]),
   midi.NoteOnEvent(tick=2, channel=3, data=[47, 110]),
   midi.NoteOnEvent(tick=46, channel=3, data=[47, 0]),
   midi.NoteOnEvent(tick=2, channel=3, data=[47, 110]),
   midi.NoteOnEvent(tick=94, channel=3, data=[47, 0]),
   midi.NoteOnEvent(tick=2, channel=3, data=[47, 110]),
   midi.NoteOnEvent(tick=46, channel=3, data=[47, 0]),
   midi.NoteOnEvent(tick=2, channel=3, data=[47, 110]),
   midi.NoteOnEvent(tick=46, channel=3, data=[47, 0]),
   midi.NoteOnEvent(tick=2, channel=3, data=[47, 110]),
   midi.NoteOnEvent(tick=46, channel=3, data=[47, 0]),
   midi.NoteOnEvent(tick=2, channel=3, data=[47, 110]),
   midi.NoteOnEvent(tick=46, channel=3, data=[47, 0]),
   midi.NoteOnEvent(tick=2, channel=3, data=[47, 110]),
   midi.NoteOnEvent(tick=46, channel=3, data=[47, 0]),
   midi.NoteOnEvent(tick=2, channel=3, data=[47, 110]),
   midi.NoteOnEvent(tick=46, channel=3, data=[47, 0]),
   midi.NoteOnEvent(tick=2, channel=3, data=[47, 110]),
   midi.NoteOnEvent(tick=94, channel=3, data=[47, 0]),
   midi.NoteOnEvent(tick=2, channel=3, data=[47, 110]),
   midi.NoteOnEvent(tick=46, channel=3, data=[47, 0]),
   midi.NoteOnEvent(tick=2, channel=3, data=[47, 110]),
   midi.NoteOnEvent(tick=46, channel=3, data=[47, 0]),
   midi.NoteOnEvent(tick=2, channel=3, data=[45, 110]),
   midi.NoteOnEvent(tick=94, channel=3, data=[45, 0]),
   midi.NoteOnEvent(tick=2, channel=3, data=[45, 110]),
   midi.NoteOnEvent(tick=46, channel=3, data=[45, 0]),
   midi.NoteOnEvent(tick=2, channel=3, data=[45, 110]),
   midi.NoteOnEvent(tick=46, channel=3, data=[45, 0]),
   midi.NoteOnEvent(tick=2, channel=3, data=[45, 110]),
   midi.NoteOnEvent(tick=46, channel=3, data=[45, 0]),
   midi.NoteOnEvent(tick=2, channel=3, data=[45, 110]),
   midi.NoteOnEvent(tick=46, channel=3, data=[45, 0]),
   midi.NoteOnEvent(tick=2, channel=3, data=[45, 110]),
   midi.NoteOnEvent(tick=46, channel=3, data=[45, 0]),
   midi.NoteOnEvent(tick=2, channel=3, data=[45, 110]),
   midi.NoteOnEvent(tick=46, channel=3, data=[45, 0]),
   midi.NoteOnEvent(tick=2, channel=3, data=[45, 110]),
   midi.NoteOnEvent(tick=94, channel=3, data=[45, 0]),
   midi.NoteOnEvent(tick=2, channel=3, data=[45, 110]),
   midi.NoteOnEvent(tick=46, channel=3, data=[45, 0]),
   midi.NoteOnEvent(tick=2, channel=3, data=[45, 110]),
   midi.NoteOnEvent(tick=46, channel=3, data=[45, 0]),
   midi.NoteOnEvent(tick=2, channel=3, data=[47, 110]),
   midi.NoteOnEvent(tick=126, channel=3, data=[47, 0]),
   midi.NoteOnEvent(tick=2, channel=3, data=[46, 110]),
   midi.NoteOnEvent(tick=126, channel=3, data=[46, 0]),
   midi.NoteOnEvent(tick=2, channel=3, data=[47, 110]),
   midi.NoteOnEvent(tick=126, channel=3, data=[47, 0]),
   midi.NoteOnEvent(tick=2, channel=3, data=[48, 110]),
   midi.NoteOnEvent(tick=160, channel=3, data=[48, 0]),
   midi.NoteOnEvent(tick=32, channel=3, data=[47, 110]),
   midi.NoteOnEvent(tick=160, channel=3, data=[47, 0]),
   midi.NoteOnEvent(tick=32, channel=3, data=[40, 110]),
   midi.NoteOnEvent(tick=94, channel=3, data=[40, 0]),
   midi.NoteOnEvent(tick=2, channel=3, data=[40, 110]),
   midi.NoteOnEvent(tick=46, channel=3, data=[40, 0]),
   midi.NoteOnEvent(tick=2, channel=3, data=[40, 110]),
   midi.NoteOnEvent(tick=46, channel=3, data=[40, 0]),
   midi.NoteOnEvent(tick=2, channel=3, data=[40, 110]),
   midi.NoteOnEvent(tick=94, channel=3, data=[40, 0]),
   midi.NoteOnEvent(tick=2, channel=3, data=[40, 110]),
   midi.NoteOnEvent(tick=94, channel=3, data=[40, 0]),
   midi.NoteOnEvent(tick=2, channel=3, data=[40, 110]),
   midi.NoteOnEvent(tick=94, channel=3, data=[40, 0]),
   midi.NoteOnEvent(tick=2, channel=3, data=[40, 110]),
   midi.NoteOnEvent(tick=94, channel=3, data=[40, 0]),
   midi.NoteOnEvent(tick=2, channel=3, data=[40, 110]),
   midi.NoteOnEvent(tick=94, channel=3, data=[40, 0]),
   midi.NoteOnEvent(tick=2, channel=3, data=[43, 110]),
   midi.NoteOnEvent(tick=574, channel=3, data=[43, 0]),
   midi.NoteOnEvent(tick=2, channel=3, data=[46, 110]),
   midi.NoteOnEvent(tick=160, channel=3, data=[46, 0]),
   midi.NoteOnEvent(tick=32, channel=3, data=[42, 110]),
   midi.NoteOnEvent(tick=574, channel=3, data=[42, 0]),
   midi.NoteOnEvent(tick=2, channel=3, data=[45, 110]),
   midi.NoteOnEvent(tick=160, channel=3, data=[45, 0]),
   midi.NoteOnEvent(tick=32, channel=3, data=[41, 110]),
   midi.NoteOnEvent(tick=574, channel=3, data=[41, 0]),
   midi.NoteOnEvent(tick=2, channel=3, data=[43, 110]),
   midi.NoteOnEvent(tick=256, channel=3, data=[43, 0]),
   midi.NoteOnEvent(tick=32, channel=3, data=[40, 110]),
   midi.NoteOnEvent(tick=94, channel=3, data=[40, 0]),
   midi.NoteOnEvent(tick=2, channel=3, data=[40, 110]),
   midi.NoteOnEvent(tick=46, channel=3, data=[40, 0]),
   midi.NoteOnEvent(tick=2, channel=3, data=[40, 110]),
   midi.NoteOnEvent(tick=46, channel=3, data=[40, 0]),
   midi.NoteOnEvent(tick=2, channel=3, data=[40, 110]),
   midi.NoteOnEvent(tick=94, channel=3, data=[40, 0]),
   midi.NoteOnEvent(tick=2, channel=3, data=[40, 110]),
   midi.NoteOnEvent(tick=94, channel=3, data=[40, 0]),
   midi.NoteOnEvent(tick=2, channel=3, data=[40, 110]),
   midi.NoteOnEvent(tick=94, channel=3, data=[40, 0]),
   midi.NoteOnEvent(tick=2, channel=3, data=[40, 110]),
   midi.NoteOnEvent(tick=94, channel=3, data=[40, 0]),
   midi.NoteOnEvent(tick=2, channel=3, data=[40, 110]),
   midi.NoteOnEvent(tick=94, channel=3, data=[40, 0]),
   midi.NoteOnEvent(tick=2, channel=3, data=[43, 110]),
   midi.NoteOnEvent(tick=574, channel=3, data=[43, 0]),
   midi.NoteOnEvent(tick=2, channel=3, data=[46, 110]),
   midi.NoteOnEvent(tick=160, channel=3, data=[46, 0]),
   midi.NoteOnEvent(tick=32, channel=3, data=[42, 110]),
   midi.NoteOnEvent(tick=574, channel=3, data=[42, 0]),
   midi.NoteOnEvent(tick=2, channel=3, data=[45, 110]),
   midi.NoteOnEvent(tick=160, channel=3, data=[45, 0]),
   midi.NoteOnEvent(tick=32, channel=3, data=[41, 110]),
   midi.NoteOnEvent(tick=574, channel=3, data=[41, 0]),
   midi.NoteOnEvent(tick=2, channel=3, data=[43, 110]),
   midi.NoteOnEvent(tick=256, channel=3, data=[43, 0]),
   midi.NoteOnEvent(tick=32, channel=3, data=[40, 110]),
   midi.NoteOnEvent(tick=94, channel=3, data=[40, 0]),
   midi.NoteOnEvent(tick=2, channel=3, data=[40, 110]),
   midi.NoteOnEvent(tick=46, channel=3, data=[40, 0]),
   midi.NoteOnEvent(tick=2, channel=3, data=[40, 110]),
   midi.NoteOnEvent(tick=46, channel=3, data=[40, 0]),
   midi.NoteOnEvent(tick=2, channel=3, data=[40, 110]),
   midi.NoteOnEvent(tick=94, channel=3, data=[40, 0]),
   midi.NoteOnEvent(tick=2, channel=3, data=[40, 110]),
   midi.NoteOnEvent(tick=94, channel=3, data=[40, 0]),
   midi.NoteOnEvent(tick=2, channel=3, data=[40, 110]),
   midi.NoteOnEvent(tick=94, channel=3, data=[40, 0]),
   midi.NoteOnEvent(tick=2, channel=3, data=[40, 110]),
   midi.NoteOnEvent(tick=94, channel=3, data=[40, 0]),
   midi.NoteOnEvent(tick=2, channel=3, data=[40, 110]),
   midi.NoteOnEvent(tick=94, channel=3, data=[40, 0]),
   midi.NoteOnEvent(tick=2, channel=3, data=[43, 110]),
   midi.NoteOnEvent(tick=574, channel=3, data=[43, 0]),
   midi.NoteOnEvent(tick=2, channel=3, data=[46, 110]),
   midi.NoteOnEvent(tick=160, channel=3, data=[46, 0]),
   midi.NoteOnEvent(tick=32, channel=3, data=[42, 110]),
   midi.NoteOnEvent(tick=574, channel=3, data=[42, 0]),
   midi.NoteOnEvent(tick=2, channel=3, data=[45, 110]),
   midi.NoteOnEvent(tick=160, channel=3, data=[45, 0]),
   midi.NoteOnEvent(tick=32, channel=3, data=[41, 110]),
   midi.NoteOnEvent(tick=574, channel=3, data=[41, 0]),
   midi.NoteOnEvent(tick=2, channel=3, data=[43, 110]),
   midi.NoteOnEvent(tick=256, channel=3, data=[43, 0]),
   midi.NoteOnEvent(tick=32, channel=3, data=[40, 110]),
   midi.NoteOnEvent(tick=94, channel=3, data=[40, 0]),
   midi.NoteOnEvent(tick=2, channel=3, data=[40, 110]),
   midi.NoteOnEvent(tick=46, channel=3, data=[40, 0]),
   midi.NoteOnEvent(tick=2, channel=3, data=[40, 110]),
   midi.NoteOnEvent(tick=46, channel=3, data=[40, 0]),
   midi.NoteOnEvent(tick=2, channel=3, data=[40, 110]),
   midi.NoteOnEvent(tick=94, channel=3, data=[40, 0]),
   midi.NoteOnEvent(tick=2, channel=3, data=[40, 110]),
   midi.NoteOnEvent(tick=94, channel=3, data=[40, 0]),
   midi.NoteOnEvent(tick=2, channel=3, data=[40, 110]),
   midi.NoteOnEvent(tick=94, channel=3, data=[40, 0]),
   midi.NoteOnEvent(tick=2, channel=3, data=[40, 110]),
   midi.NoteOnEvent(tick=94, channel=3, data=[40, 0]),
   midi.NoteOnEvent(tick=2, channel=3, data=[40, 110]),
   midi.NoteOnEvent(tick=94, channel=3, data=[40, 0]),
   midi.NoteOnEvent(tick=2, channel=3, data=[43, 110]),
   midi.NoteOnEvent(tick=574, channel=3, data=[43, 0]),
   midi.NoteOnEvent(tick=2, channel=3, data=[46, 110]),
   midi.NoteOnEvent(tick=160, channel=3, data=[46, 0]),
   midi.NoteOnEvent(tick=32, channel=3, data=[42, 110]),
   midi.NoteOnEvent(tick=574, channel=3, data=[42, 0]),
   midi.NoteOnEvent(tick=2, channel=3, data=[45, 110]),
   midi.NoteOnEvent(tick=160, channel=3, data=[45, 0]),
   midi.NoteOnEvent(tick=32, channel=3, data=[41, 110]),
   midi.NoteOnEvent(tick=574, channel=3, data=[41, 0]),
   midi.NoteOnEvent(tick=2, channel=3, data=[43, 110]),
   midi.NoteOnEvent(tick=256, channel=3, data=[43, 0]),
   midi.NoteOnEvent(tick=32, channel=3, data=[40, 110]),
   midi.NoteOnEvent(tick=94, channel=3, data=[40, 0]),
   midi.NoteOnEvent(tick=2, channel=3, data=[40, 110]),
   midi.NoteOnEvent(tick=46, channel=3, data=[40, 0]),
   midi.NoteOnEvent(tick=2, channel=3, data=[40, 110]),
   midi.NoteOnEvent(tick=46, channel=3, data=[40, 0]),
   midi.NoteOnEvent(tick=2, channel=3, data=[40, 110]),
   midi.NoteOnEvent(tick=94, channel=3, data=[40, 0]),
   midi.NoteOnEvent(tick=2, channel=3, data=[40, 110]),
   midi.NoteOnEvent(tick=94, channel=3, data=[40, 0]),
   midi.NoteOnEvent(tick=2, channel=3, data=[40, 110]),
   midi.NoteOnEvent(tick=94, channel=3, data=[40, 0]),
   midi.NoteOnEvent(tick=2, channel=3, data=[40, 110]),
   midi.NoteOnEvent(tick=94, channel=3, data=[40, 0]),
   midi.NoteOnEvent(tick=2, channel=3, data=[40, 110]),
   midi.NoteOnEvent(tick=94, channel=3, data=[40, 0]),
   midi.NoteOnEvent(tick=2, channel=3, data=[40, 110]),
   midi.NoteOnEvent(tick=94, channel=3, data=[40, 0]),
   midi.NoteOnEvent(tick=290, channel=3, data=[40, 110]),
   midi.NoteOnEvent(tick=94, channel=3, data=[40, 0]),
   midi.NoteOnEvent(tick=2, channel=3, data=[40, 110]),
   midi.NoteOnEvent(tick=46, channel=3, data=[40, 0]),
   midi.NoteOnEvent(tick=2, channel=3, data=[40, 110]),
   midi.NoteOnEvent(tick=46, channel=3, data=[40, 0]),
   midi.NoteOnEvent(tick=2, channel=3, data=[40, 110]),
   midi.NoteOnEvent(tick=94, channel=3, data=[40, 0]),
   midi.NoteOnEvent(tick=2, channel=3, data=[40, 110]),
   midi.NoteOnEvent(tick=94, channel=3, data=[40, 0]),
   midi.NoteOnEvent(tick=2, channel=3, data=[40, 110]),
   midi.NoteOnEvent(tick=94, channel=3, data=[40, 0]),
   midi.NoteOnEvent(tick=2, channel=3, data=[40, 110]),
   midi.NoteOnEvent(tick=94, channel=3, data=[40, 0]),
   midi.NoteOnEvent(tick=2, channel=3, data=[40, 110]),
   midi.NoteOnEvent(tick=46, channel=3, data=[40, 0]),
   midi.NoteOnEvent(tick=2, channel=3, data=[40, 110]),
   midi.NoteOnEvent(tick=46, channel=3, data=[40, 0]),
   midi.NoteOnEvent(tick=2, channel=3, data=[40, 110]),
   midi.NoteOnEvent(tick=46, channel=3, data=[40, 0]),
   midi.NoteOnEvent(tick=2, channel=3, data=[40, 110]),
   midi.NoteOnEvent(tick=46, channel=3, data=[40, 0]),
   midi.NoteOnEvent(tick=2, channel=3, data=[40, 110]),
   midi.NoteOnEvent(tick=94, channel=3, data=[40, 0]),
   midi.NoteOnEvent(tick=2, channel=3, data=[40, 110]),
   midi.NoteOnEvent(tick=46, channel=3, data=[40, 0]),
   midi.NoteOnEvent(tick=2, channel=3, data=[40, 110]),
   midi.NoteOnEvent(tick=46, channel=3, data=[40, 0]),
   midi.NoteOnEvent(tick=2, channel=3, data=[40, 110]),
   midi.NoteOnEvent(tick=94, channel=3, data=[40, 0]),
   midi.NoteOnEvent(tick=2, channel=3, data=[40, 110]),
   midi.NoteOnEvent(tick=94, channel=3, data=[40, 0]),
   midi.NoteOnEvent(tick=2, channel=3, data=[40, 110]),
   midi.NoteOnEvent(tick=94, channel=3, data=[40, 0]),
   midi.NoteOnEvent(tick=2, channel=3, data=[40, 110]),
   midi.NoteOnEvent(tick=94, channel=3, data=[40, 0]),
   midi.NoteOnEvent(tick=2, channel=3, data=[40, 110]),
   midi.NoteOnEvent(tick=46, channel=3, data=[40, 0]),
   midi.NoteOnEvent(tick=2, channel=3, data=[40, 110]),
   midi.NoteOnEvent(tick=46, channel=3, data=[40, 0]),
   midi.NoteOnEvent(tick=2, channel=3, data=[40, 110]),
   midi.NoteOnEvent(tick=46, channel=3, data=[40, 0]),
   midi.NoteOnEvent(tick=2, channel=3, data=[40, 110]),
   midi.NoteOnEvent(tick=46, channel=3, data=[40, 0]),
   midi.NoteOnEvent(tick=2, channel=3, data=[43, 110]),
   midi.NoteOnEvent(tick=94, channel=3, data=[43, 0]),
   midi.NoteOnEvent(tick=2, channel=3, data=[43, 110]),
   midi.NoteOnEvent(tick=46, channel=3, data=[43, 0]),
   midi.NoteOnEvent(tick=2, channel=3, data=[43, 110]),
   midi.NoteOnEvent(tick=46, channel=3, data=[43, 0]),
   midi.NoteOnEvent(tick=2, channel=3, data=[43, 110]),
   midi.NoteOnEvent(tick=94, channel=3, data=[43, 0]),
   midi.NoteOnEvent(tick=2, channel=3, data=[43, 110]),
   midi.NoteOnEvent(tick=94, channel=3, data=[43, 0]),
   midi.NoteOnEvent(tick=2, channel=3, data=[43, 110]),
   midi.NoteOnEvent(tick=94, channel=3, data=[43, 0]),
   midi.NoteOnEvent(tick=2, channel=3, data=[43, 110]),
   midi.NoteOnEvent(tick=94, channel=3, data=[43, 0]),
   midi.NoteOnEvent(tick=2, channel=3, data=[43, 110]),
   midi.NoteOnEvent(tick=46, channel=3, data=[43, 0]),
   midi.NoteOnEvent(tick=2, channel=3, data=[43, 110]),
   midi.NoteOnEvent(tick=46, channel=3, data=[43, 0]),
   midi.NoteOnEvent(tick=2, channel=3, data=[43, 110]),
   midi.NoteOnEvent(tick=46, channel=3, data=[43, 0]),
   midi.NoteOnEvent(tick=2, channel=3, data=[43, 110]),
   midi.NoteOnEvent(tick=46, channel=3, data=[43, 0]),
   midi.NoteOnEvent(tick=2, channel=3, data=[42, 110]),
   midi.NoteOnEvent(tick=94, channel=3, data=[42, 0]),
   midi.NoteOnEvent(tick=2, channel=3, data=[42, 110]),
   midi.NoteOnEvent(tick=46, channel=3, data=[42, 0]),
   midi.NoteOnEvent(tick=2, channel=3, data=[42, 110]),
   midi.NoteOnEvent(tick=46, channel=3, data=[42, 0]),
   midi.NoteOnEvent(tick=2, channel=3, data=[42, 110]),
   midi.NoteOnEvent(tick=94, channel=3, data=[42, 0]),
   midi.NoteOnEvent(tick=2, channel=3, data=[42, 110]),
   midi.NoteOnEvent(tick=94, channel=3, data=[42, 0]),
   midi.NoteOnEvent(tick=2, channel=3, data=[42, 110]),
   midi.NoteOnEvent(tick=94, channel=3, data=[42, 0]),
   midi.NoteOnEvent(tick=2, channel=3, data=[42, 110]),
   midi.NoteOnEvent(tick=94, channel=3, data=[42, 0]),
   midi.NoteOnEvent(tick=2, channel=3, data=[42, 110]),
   midi.NoteOnEvent(tick=46, channel=3, data=[42, 0]),
   midi.NoteOnEvent(tick=2, channel=3, data=[42, 110]),
   midi.NoteOnEvent(tick=46, channel=3, data=[42, 0]),
   midi.NoteOnEvent(tick=2, channel=3, data=[42, 110]),
   midi.NoteOnEvent(tick=46, channel=3, data=[42, 0]),
   midi.NoteOnEvent(tick=2, channel=3, data=[42, 110]),
   midi.NoteOnEvent(tick=46, channel=3, data=[42, 0]),
   midi.NoteOnEvent(tick=2, channel=3, data=[40, 110]),
   midi.NoteOnEvent(tick=94, channel=3, data=[40, 0]),
   midi.NoteOnEvent(tick=2, channel=3, data=[40, 110]),
   midi.NoteOnEvent(tick=46, channel=3, data=[40, 0]),
   midi.NoteOnEvent(tick=2, channel=3, data=[40, 110]),
   midi.NoteOnEvent(tick=46, channel=3, data=[40, 0]),
   midi.NoteOnEvent(tick=2, channel=3, data=[40, 110]),
   midi.NoteOnEvent(tick=94, channel=3, data=[40, 0]),
   midi.NoteOnEvent(tick=2, channel=3, data=[40, 110]),
   midi.NoteOnEvent(tick=94, channel=3, data=[40, 0]),
   midi.NoteOnEvent(tick=2, channel=3, data=[40, 110]),
   midi.NoteOnEvent(tick=94, channel=3, data=[40, 0]),
   midi.NoteOnEvent(tick=2, channel=3, data=[40, 110]),
   midi.NoteOnEvent(tick=94, channel=3, data=[40, 0]),
   midi.NoteOnEvent(tick=2, channel=3, data=[40, 110]),
   midi.NoteOnEvent(tick=46, channel=3, data=[40, 0]),
   midi.NoteOnEvent(tick=2, channel=3, data=[40, 110]),
   midi.NoteOnEvent(tick=46, channel=3, data=[40, 0]),
   midi.NoteOnEvent(tick=2, channel=3, data=[40, 110]),
   midi.NoteOnEvent(tick=46, channel=3, data=[40, 0]),
   midi.NoteOnEvent(tick=2, channel=3, data=[40, 110]),
   midi.NoteOnEvent(tick=46, channel=3, data=[40, 0]),
   midi.NoteOnEvent(tick=2, channel=3, data=[40, 110]),
   midi.NoteOnEvent(tick=94, channel=3, data=[40, 0]),
   midi.NoteOnEvent(tick=2, channel=3, data=[40, 110]),
   midi.NoteOnEvent(tick=46, channel=3, data=[40, 0]),
   midi.NoteOnEvent(tick=2, channel=3, data=[40, 110]),
   midi.NoteOnEvent(tick=46, channel=3, data=[40, 0]),
   midi.NoteOnEvent(tick=2, channel=3, data=[40, 110]),
   midi.NoteOnEvent(tick=94, channel=3, data=[40, 0]),
   midi.NoteOnEvent(tick=2, channel=3, data=[40, 110]),
   midi.NoteOnEvent(tick=94, channel=3, data=[40, 0]),
   midi.NoteOnEvent(tick=2, channel=3, data=[40, 110]),
   midi.NoteOnEvent(tick=94, channel=3, data=[40, 0]),
   midi.NoteOnEvent(tick=2, channel=3, data=[40, 110]),
   midi.NoteOnEvent(tick=94, channel=3, data=[40, 0]),
   midi.NoteOnEvent(tick=2, channel=3, data=[40, 110]),
   midi.NoteOnEvent(tick=46, channel=3, data=[40, 0]),
   midi.NoteOnEvent(tick=2, channel=3, data=[40, 110]),
   midi.NoteOnEvent(tick=46, channel=3, data=[40, 0]),
   midi.NoteOnEvent(tick=2, channel=3, data=[40, 110]),
   midi.NoteOnEvent(tick=46, channel=3, data=[40, 0]),
   midi.NoteOnEvent(tick=2, channel=3, data=[40, 110]),
   midi.NoteOnEvent(tick=46, channel=3, data=[40, 0]),
   midi.NoteOnEvent(tick=2, channel=3, data=[43, 110]),
   midi.NoteOnEvent(tick=94, channel=3, data=[43, 0]),
   midi.NoteOnEvent(tick=2, channel=3, data=[43, 110]),
   midi.NoteOnEvent(tick=46, channel=3, data=[43, 0]),
   midi.NoteOnEvent(tick=2, channel=3, data=[43, 110]),
   midi.NoteOnEvent(tick=46, channel=3, data=[43, 0]),
   midi.NoteOnEvent(tick=2, channel=3, data=[43, 110]),
   midi.NoteOnEvent(tick=94, channel=3, data=[43, 0]),
   midi.NoteOnEvent(tick=2, channel=3, data=[43, 110]),
   midi.NoteOnEvent(tick=94, channel=3, data=[43, 0]),
   midi.NoteOnEvent(tick=2, channel=3, data=[43, 110]),
   midi.NoteOnEvent(tick=94, channel=3, data=[43, 0]),
   midi.NoteOnEvent(tick=2, channel=3, data=[43, 110]),
   midi.NoteOnEvent(tick=94, channel=3, data=[43, 0]),
   midi.NoteOnEvent(tick=2, channel=3, data=[43, 110]),
   midi.NoteOnEvent(tick=46, channel=3, data=[43, 0]),
   midi.NoteOnEvent(tick=2, channel=3, data=[43, 110]),
   midi.NoteOnEvent(tick=46, channel=3, data=[43, 0]),
   midi.NoteOnEvent(tick=2, channel=3, data=[43, 110]),
   midi.NoteOnEvent(tick=46, channel=3, data=[43, 0]),
   midi.NoteOnEvent(tick=2, channel=3, data=[43, 110]),
   midi.NoteOnEvent(tick=46, channel=3, data=[43, 0]),
   midi.NoteOnEvent(tick=2, channel=3, data=[47, 110]),
   midi.NoteOnEvent(tick=94, channel=3, data=[47, 0]),
   midi.NoteOnEvent(tick=2, channel=3, data=[47, 110]),
   midi.NoteOnEvent(tick=46, channel=3, data=[47, 0]),
   midi.NoteOnEvent(tick=2, channel=3, data=[47, 110]),
   midi.NoteOnEvent(tick=46, channel=3, data=[47, 0]),
   midi.NoteOnEvent(tick=2, channel=3, data=[47, 110]),
   midi.NoteOnEvent(tick=94, channel=3, data=[47, 0]),
   midi.NoteOnEvent(tick=2, channel=3, data=[47, 110]),
   midi.NoteOnEvent(tick=94, channel=3, data=[47, 0]),
   midi.NoteOnEvent(tick=2, channel=3, data=[47, 110]),
   midi.NoteOnEvent(tick=94, channel=3, data=[47, 0]),
   midi.NoteOnEvent(tick=2, channel=3, data=[47, 110]),
   midi.NoteOnEvent(tick=94, channel=3, data=[47, 0]),
   midi.NoteOnEvent(tick=2, channel=3, data=[47, 110]),
   midi.NoteOnEvent(tick=46, channel=3, data=[47, 0]),
   midi.NoteOnEvent(tick=2, channel=3, data=[47, 110]),
   midi.NoteOnEvent(tick=46, channel=3, data=[47, 0]),
   midi.NoteOnEvent(tick=2, channel=3, data=[47, 110]),
   midi.NoteOnEvent(tick=46, channel=3, data=[47, 0]),
   midi.NoteOnEvent(tick=2, channel=3, data=[47, 110]),
   midi.NoteOnEvent(tick=46, channel=3, data=[47, 0]),
   midi.NoteOnEvent(tick=2, channel=3, data=[40, 110]),
   midi.NoteOnEvent(tick=94, channel=3, data=[40, 0]),
   midi.NoteOnEvent(tick=2, channel=3, data=[40, 110]),
   midi.NoteOnEvent(tick=46, channel=3, data=[40, 0]),
   midi.NoteOnEvent(tick=2, channel=3, data=[40, 110]),
   midi.NoteOnEvent(tick=46, channel=3, data=[40, 0]),
   midi.NoteOnEvent(tick=2, channel=3, data=[40, 110]),
   midi.NoteOnEvent(tick=94, channel=3, data=[40, 0]),
   midi.NoteOnEvent(tick=2, channel=3, data=[40, 110]),
   midi.NoteOnEvent(tick=94, channel=3, data=[40, 0]),
   midi.NoteOnEvent(tick=2, channel=3, data=[40, 110]),
   midi.NoteOnEvent(tick=94, channel=3, data=[40, 0]),
   midi.NoteOnEvent(tick=2, channel=3, data=[40, 110]),
   midi.NoteOnEvent(tick=94, channel=3, data=[40, 0]),
   midi.NoteOnEvent(tick=2, channel=3, data=[40, 110]),
   midi.NoteOnEvent(tick=46, channel=3, data=[40, 0]),
   midi.NoteOnEvent(tick=2, channel=3, data=[40, 110]),
   midi.NoteOnEvent(tick=46, channel=3, data=[40, 0]),
   midi.NoteOnEvent(tick=2, channel=3, data=[40, 110]),
   midi.NoteOnEvent(tick=46, channel=3, data=[40, 0]),
   midi.NoteOnEvent(tick=2, channel=3, data=[40, 110]),
   midi.NoteOnEvent(tick=46, channel=3, data=[40, 0]),
   midi.NoteOnEvent(tick=2, channel=3, data=[40, 110]),
   midi.NoteOnEvent(tick=94, channel=3, data=[40, 0]),
   midi.NoteOnEvent(tick=2, channel=3, data=[40, 110]),
   midi.NoteOnEvent(tick=46, channel=3, data=[40, 0]),
   midi.NoteOnEvent(tick=2, channel=3, data=[40, 110]),
   midi.NoteOnEvent(tick=46, channel=3, data=[40, 0]),
   midi.NoteOnEvent(tick=2, channel=3, data=[40, 110]),
   midi.NoteOnEvent(tick=94, channel=3, data=[40, 0]),
   midi.NoteOnEvent(tick=2, channel=3, data=[40, 110]),
   midi.NoteOnEvent(tick=94, channel=3, data=[40, 0]),
   midi.NoteOnEvent(tick=2, channel=3, data=[40, 110]),
   midi.NoteOnEvent(tick=94, channel=3, data=[40, 0]),
   midi.NoteOnEvent(tick=2, channel=3, data=[40, 110]),
   midi.NoteOnEvent(tick=94, channel=3, data=[40, 0]),
   midi.NoteOnEvent(tick=2, channel=3, data=[40, 110]),
   midi.NoteOnEvent(tick=46, channel=3, data=[40, 0]),
   midi.NoteOnEvent(tick=2, channel=3, data=[40, 110]),
   midi.NoteOnEvent(tick=46, channel=3, data=[40, 0]),
   midi.NoteOnEvent(tick=2, channel=3, data=[40, 110]),
   midi.NoteOnEvent(tick=46, channel=3, data=[40, 0]),
   midi.NoteOnEvent(tick=2, channel=3, data=[40, 110]),
   midi.NoteOnEvent(tick=46, channel=3, data=[40, 0]),
   midi.NoteOnEvent(tick=2, channel=3, data=[43, 110]),
   midi.NoteOnEvent(tick=94, channel=3, data=[43, 0]),
   midi.NoteOnEvent(tick=2, channel=3, data=[43, 110]),
   midi.NoteOnEvent(tick=46, channel=3, data=[43, 0]),
   midi.NoteOnEvent(tick=2, channel=3, data=[43, 110]),
   midi.NoteOnEvent(tick=46, channel=3, data=[43, 0]),
   midi.NoteOnEvent(tick=2, channel=3, data=[43, 110]),
   midi.NoteOnEvent(tick=94, channel=3, data=[43, 0]),
   midi.NoteOnEvent(tick=2, channel=3, data=[43, 110]),
   midi.NoteOnEvent(tick=94, channel=3, data=[43, 0]),
   midi.NoteOnEvent(tick=2, channel=3, data=[43, 110]),
   midi.NoteOnEvent(tick=94, channel=3, data=[43, 0]),
   midi.NoteOnEvent(tick=2, channel=3, data=[43, 110]),
   midi.NoteOnEvent(tick=94, channel=3, data=[43, 0]),
   midi.NoteOnEvent(tick=2, channel=3, data=[43, 110]),
   midi.NoteOnEvent(tick=46, channel=3, data=[43, 0]),
   midi.NoteOnEvent(tick=2, channel=3, data=[43, 110]),
   midi.NoteOnEvent(tick=46, channel=3, data=[43, 0]),
   midi.NoteOnEvent(tick=2, channel=3, data=[43, 110]),
   midi.NoteOnEvent(tick=46, channel=3, data=[43, 0]),
   midi.NoteOnEvent(tick=2, channel=3, data=[43, 110]),
   midi.NoteOnEvent(tick=46, channel=3, data=[43, 0]),
   midi.NoteOnEvent(tick=2, channel=3, data=[42, 110]),
   midi.NoteOnEvent(tick=94, channel=3, data=[42, 0]),
   midi.NoteOnEvent(tick=2, channel=3, data=[42, 110]),
   midi.NoteOnEvent(tick=46, channel=3, data=[42, 0]),
   midi.NoteOnEvent(tick=2, channel=3, data=[42, 110]),
   midi.NoteOnEvent(tick=46, channel=3, data=[42, 0]),
   midi.NoteOnEvent(tick=2, channel=3, data=[42, 110]),
   midi.NoteOnEvent(tick=94, channel=3, data=[42, 0]),
   midi.NoteOnEvent(tick=2, channel=3, data=[42, 110]),
   midi.NoteOnEvent(tick=94, channel=3, data=[42, 0]),
   midi.NoteOnEvent(tick=2, channel=3, data=[42, 110]),
   midi.NoteOnEvent(tick=94, channel=3, data=[42, 0]),
   midi.NoteOnEvent(tick=2, channel=3, data=[42, 110]),
   midi.NoteOnEvent(tick=94, channel=3, data=[42, 0]),
   midi.NoteOnEvent(tick=2, channel=3, data=[42, 110]),
   midi.NoteOnEvent(tick=46, channel=3, data=[42, 0]),
   midi.NoteOnEvent(tick=2, channel=3, data=[42, 110]),
   midi.NoteOnEvent(tick=46, channel=3, data=[42, 0]),
   midi.NoteOnEvent(tick=2, channel=3, data=[42, 110]),
   midi.NoteOnEvent(tick=46, channel=3, data=[42, 0]),
   midi.NoteOnEvent(tick=2, channel=3, data=[42, 110]),
   midi.NoteOnEvent(tick=46, channel=3, data=[42, 0]),
   midi.NoteOnEvent(tick=2, channel=3, data=[40, 110]),
   midi.NoteOnEvent(tick=94, channel=3, data=[40, 0]),
   midi.NoteOnEvent(tick=2, channel=3, data=[40, 110]),
   midi.NoteOnEvent(tick=46, channel=3, data=[40, 0]),
   midi.NoteOnEvent(tick=2, channel=3, data=[40, 110]),
   midi.NoteOnEvent(tick=46, channel=3, data=[40, 0]),
   midi.NoteOnEvent(tick=2, channel=3, data=[40, 110]),
   midi.NoteOnEvent(tick=94, channel=3, data=[40, 0]),
   midi.NoteOnEvent(tick=2, channel=3, data=[40, 110]),
   midi.NoteOnEvent(tick=94, channel=3, data=[40, 0]),
   midi.NoteOnEvent(tick=2, channel=3, data=[40, 110]),
   midi.NoteOnEvent(tick=94, channel=3, data=[40, 0]),
   midi.NoteOnEvent(tick=2, channel=3, data=[40, 110]),
   midi.NoteOnEvent(tick=94, channel=3, data=[40, 0]),
   midi.NoteOnEvent(tick=2, channel=3, data=[40, 110]),
   midi.NoteOnEvent(tick=46, channel=3, data=[40, 0]),
   midi.NoteOnEvent(tick=2, channel=3, data=[40, 110]),
   midi.NoteOnEvent(tick=46, channel=3, data=[40, 0]),
   midi.NoteOnEvent(tick=2, channel=3, data=[40, 110]),
   midi.NoteOnEvent(tick=46, channel=3, data=[40, 0]),
   midi.NoteOnEvent(tick=2, channel=3, data=[40, 110]),
   midi.NoteOnEvent(tick=46, channel=3, data=[40, 0]),
   midi.NoteOnEvent(tick=2, channel=3, data=[40, 110]),
   midi.NoteOnEvent(tick=94, channel=3, data=[40, 0]),
   midi.NoteOnEvent(tick=2, channel=3, data=[40, 110]),
   midi.NoteOnEvent(tick=46, channel=3, data=[40, 0]),
   midi.NoteOnEvent(tick=2, channel=3, data=[40, 110]),
   midi.NoteOnEvent(tick=46, channel=3, data=[40, 0]),
   midi.NoteOnEvent(tick=2, channel=3, data=[40, 110]),
   midi.NoteOnEvent(tick=94, channel=3, data=[40, 0]),
   midi.NoteOnEvent(tick=2, channel=3, data=[40, 110]),
   midi.NoteOnEvent(tick=94, channel=3, data=[40, 0]),
   midi.NoteOnEvent(tick=2, channel=3, data=[40, 110]),
   midi.NoteOnEvent(tick=94, channel=3, data=[40, 0]),
   midi.NoteOnEvent(tick=2, channel=3, data=[40, 110]),
   midi.NoteOnEvent(tick=94, channel=3, data=[40, 0]),
   midi.NoteOnEvent(tick=2, channel=3, data=[40, 110]),
   midi.NoteOnEvent(tick=46, channel=3, data=[40, 0]),
   midi.NoteOnEvent(tick=2, channel=3, data=[40, 110]),
   midi.NoteOnEvent(tick=46, channel=3, data=[40, 0]),
   midi.NoteOnEvent(tick=2, channel=3, data=[40, 110]),
   midi.NoteOnEvent(tick=46, channel=3, data=[40, 0]),
   midi.NoteOnEvent(tick=2, channel=3, data=[40, 110]),
   midi.NoteOnEvent(tick=46, channel=3, data=[40, 0]),
   midi.NoteOnEvent(tick=2, channel=3, data=[43, 110]),
   midi.NoteOnEvent(tick=94, channel=3, data=[43, 0]),
   midi.NoteOnEvent(tick=2, channel=3, data=[43, 110]),
   midi.NoteOnEvent(tick=46, channel=3, data=[43, 0]),
   midi.NoteOnEvent(tick=2, channel=3, data=[43, 110]),
   midi.NoteOnEvent(tick=46, channel=3, data=[43, 0]),
   midi.NoteOnEvent(tick=2, channel=3, data=[43, 110]),
   midi.NoteOnEvent(tick=94, channel=3, data=[43, 0]),
   midi.NoteOnEvent(tick=2, channel=3, data=[43, 110]),
   midi.NoteOnEvent(tick=94, channel=3, data=[43, 0]),
   midi.NoteOnEvent(tick=2, channel=3, data=[43, 110]),
   midi.NoteOnEvent(tick=94, channel=3, data=[43, 0]),
   midi.NoteOnEvent(tick=2, channel=3, data=[43, 110]),
   midi.NoteOnEvent(tick=94, channel=3, data=[43, 0]),
   midi.NoteOnEvent(tick=2, channel=3, data=[43, 110]),
   midi.NoteOnEvent(tick=46, channel=3, data=[43, 0]),
   midi.NoteOnEvent(tick=2, channel=3, data=[43, 110]),
   midi.NoteOnEvent(tick=46, channel=3, data=[43, 0]),
   midi.NoteOnEvent(tick=2, channel=3, data=[43, 110]),
   midi.NoteOnEvent(tick=46, channel=3, data=[43, 0]),
   midi.NoteOnEvent(tick=2, channel=3, data=[43, 110]),
   midi.NoteOnEvent(tick=46, channel=3, data=[43, 0]),
   midi.NoteOnEvent(tick=2, channel=3, data=[47, 110]),
   midi.NoteOnEvent(tick=94, channel=3, data=[47, 0]),
   midi.NoteOnEvent(tick=2, channel=3, data=[47, 110]),
   midi.NoteOnEvent(tick=46, channel=3, data=[47, 0]),
   midi.NoteOnEvent(tick=2, channel=3, data=[47, 110]),
   midi.NoteOnEvent(tick=46, channel=3, data=[47, 0]),
   midi.NoteOnEvent(tick=2, channel=3, data=[47, 110]),
   midi.NoteOnEvent(tick=94, channel=3, data=[47, 0]),
   midi.NoteOnEvent(tick=2, channel=3, data=[47, 110]),
   midi.NoteOnEvent(tick=94, channel=3, data=[47, 0]),
   midi.NoteOnEvent(tick=2, channel=3, data=[47, 110]),
   midi.NoteOnEvent(tick=94, channel=3, data=[47, 0]),
   midi.NoteOnEvent(tick=2, channel=3, data=[47, 110]),
   midi.NoteOnEvent(tick=94, channel=3, data=[47, 0]),
   midi.NoteOnEvent(tick=2, channel=3, data=[47, 110]),
   midi.NoteOnEvent(tick=46, channel=3, data=[47, 0]),
   midi.NoteOnEvent(tick=2, channel=3, data=[47, 110]),
   midi.NoteOnEvent(tick=46, channel=3, data=[47, 0]),
   midi.NoteOnEvent(tick=2, channel=3, data=[47, 110]),
   midi.NoteOnEvent(tick=46, channel=3, data=[47, 0]),
   midi.NoteOnEvent(tick=2, channel=3, data=[47, 110]),
   midi.NoteOnEvent(tick=46, channel=3, data=[47, 0]),
   midi.NoteOnEvent(tick=2, channel=3, data=[49, 110]),
   midi.NoteOnEvent(tick=94, channel=3, data=[49, 0]),
   midi.NoteOnEvent(tick=2, channel=3, data=[49, 110]),
   midi.NoteOnEvent(tick=46, channel=3, data=[49, 0]),
   midi.NoteOnEvent(tick=2, channel=3, data=[49, 110]),
   midi.NoteOnEvent(tick=46, channel=3, data=[49, 0]),
   midi.NoteOnEvent(tick=2, channel=3, data=[49, 110]),
   midi.NoteOnEvent(tick=46, channel=3, data=[49, 0]),
   midi.NoteOnEvent(tick=2, channel=3, data=[49, 110]),
   midi.NoteOnEvent(tick=46, channel=3, data=[49, 0]),
   midi.NoteOnEvent(tick=2, channel=3, data=[49, 110]),
   midi.NoteOnEvent(tick=46, channel=3, data=[49, 0]),
   midi.NoteOnEvent(tick=2, channel=3, data=[49, 110]),
   midi.NoteOnEvent(tick=46, channel=3, data=[49, 0]),
   midi.NoteOnEvent(tick=2, channel=3, data=[49, 110]),
   midi.NoteOnEvent(tick=94, channel=3, data=[49, 0]),
   midi.NoteOnEvent(tick=2, channel=3, data=[49, 110]),
   midi.NoteOnEvent(tick=46, channel=3, data=[49, 0]),
   midi.NoteOnEvent(tick=2, channel=3, data=[49, 110]),
   midi.NoteOnEvent(tick=46, channel=3, data=[49, 0]),
   midi.NoteOnEvent(tick=2, channel=3, data=[49, 110]),
   midi.NoteOnEvent(tick=46, channel=3, data=[49, 0]),
   midi.NoteOnEvent(tick=2, channel=3, data=[49, 110]),
   midi.NoteOnEvent(tick=46, channel=3, data=[49, 0]),
   midi.NoteOnEvent(tick=2, channel=3, data=[49, 110]),
   midi.NoteOnEvent(tick=46, channel=3, data=[49, 0]),
   midi.NoteOnEvent(tick=2, channel=3, data=[49, 110]),
   midi.NoteOnEvent(tick=46, channel=3, data=[49, 0]),
   midi.NoteOnEvent(tick=2, channel=3, data=[49, 110]),
   midi.NoteOnEvent(tick=94, channel=3, data=[49, 0]),
   midi.NoteOnEvent(tick=2, channel=3, data=[49, 110]),
   midi.NoteOnEvent(tick=46, channel=3, data=[49, 0]),
   midi.NoteOnEvent(tick=2, channel=3, data=[49, 110]),
   midi.NoteOnEvent(tick=46, channel=3, data=[49, 0]),
   midi.NoteOnEvent(tick=2, channel=3, data=[49, 110]),
   midi.NoteOnEvent(tick=46, channel=3, data=[49, 0]),
   midi.NoteOnEvent(tick=2, channel=3, data=[49, 110]),
   midi.NoteOnEvent(tick=46, channel=3, data=[49, 0]),
   midi.NoteOnEvent(tick=2, channel=3, data=[49, 110]),
   midi.NoteOnEvent(tick=46, channel=3, data=[49, 0]),
   midi.NoteOnEvent(tick=2, channel=3, data=[49, 110]),
   midi.NoteOnEvent(tick=46, channel=3, data=[49, 0]),
   midi.NoteOnEvent(tick=2, channel=3, data=[49, 110]),
   midi.NoteOnEvent(tick=94, channel=3, data=[49, 0]),
   midi.NoteOnEvent(tick=2, channel=3, data=[49, 110]),
   midi.NoteOnEvent(tick=46, channel=3, data=[49, 0]),
   midi.NoteOnEvent(tick=2, channel=3, data=[49, 110]),
   midi.NoteOnEvent(tick=46, channel=3, data=[49, 0]),
   midi.NoteOnEvent(tick=2, channel=3, data=[49, 110]),
   midi.NoteOnEvent(tick=46, channel=3, data=[49, 0]),
   midi.NoteOnEvent(tick=2, channel=3, data=[49, 110]),
   midi.NoteOnEvent(tick=46, channel=3, data=[49, 0]),
   midi.NoteOnEvent(tick=2, channel=3, data=[49, 110]),
   midi.NoteOnEvent(tick=46, channel=3, data=[49, 0]),
   midi.NoteOnEvent(tick=2, channel=3, data=[49, 110]),
   midi.NoteOnEvent(tick=46, channel=3, data=[49, 0]),
   midi.NoteOnEvent(tick=2, channel=3, data=[49, 110]),
   midi.NoteOnEvent(tick=94, channel=3, data=[49, 0]),
   midi.NoteOnEvent(tick=2, channel=3, data=[49, 110]),
   midi.NoteOnEvent(tick=46, channel=3, data=[49, 0]),
   midi.NoteOnEvent(tick=2, channel=3, data=[49, 110]),
   midi.NoteOnEvent(tick=46, channel=3, data=[49, 0]),
   midi.NoteOnEvent(tick=2, channel=3, data=[49, 110]),
   midi.NoteOnEvent(tick=46, channel=3, data=[49, 0]),
   midi.NoteOnEvent(tick=2, channel=3, data=[49, 110]),
   midi.NoteOnEvent(tick=46, channel=3, data=[49, 0]),
   midi.NoteOnEvent(tick=2, channel=3, data=[49, 110]),
   midi.NoteOnEvent(tick=46, channel=3, data=[49, 0]),
   midi.NoteOnEvent(tick=2, channel=3, data=[49, 110]),
   midi.NoteOnEvent(tick=46, channel=3, data=[49, 0]),
   midi.NoteOnEvent(tick=2, channel=3, data=[49, 110]),
   midi.NoteOnEvent(tick=94, channel=3, data=[49, 0]),
   midi.NoteOnEvent(tick=2, channel=3, data=[49, 110]),
   midi.NoteOnEvent(tick=46, channel=3, data=[49, 0]),
   midi.NoteOnEvent(tick=2, channel=3, data=[49, 110]),
   midi.NoteOnEvent(tick=46, channel=3, data=[49, 0]),
   midi.NoteOnEvent(tick=2, channel=3, data=[47, 110]),
   midi.NoteOnEvent(tick=94, channel=3, data=[47, 0]),
   midi.NoteOnEvent(tick=2, channel=3, data=[47, 110]),
   midi.NoteOnEvent(tick=46, channel=3, data=[47, 0]),
   midi.NoteOnEvent(tick=2, channel=3, data=[47, 110]),
   midi.NoteOnEvent(tick=46, channel=3, data=[47, 0]),
   midi.NoteOnEvent(tick=2, channel=3, data=[47, 110]),
   midi.NoteOnEvent(tick=46, channel=3, data=[47, 0]),
   midi.NoteOnEvent(tick=2, channel=3, data=[47, 110]),
   midi.NoteOnEvent(tick=46, channel=3, data=[47, 0]),
   midi.NoteOnEvent(tick=2, channel=3, data=[47, 110]),
   midi.NoteOnEvent(tick=46, channel=3, data=[47, 0]),
   midi.NoteOnEvent(tick=2, channel=3, data=[47, 110]),
   midi.NoteOnEvent(tick=46, channel=3, data=[47, 0]),
   midi.NoteOnEvent(tick=2, channel=3, data=[47, 110]),
   midi.NoteOnEvent(tick=94, channel=3, data=[47, 0]),
   midi.NoteOnEvent(tick=2, channel=3, data=[47, 110]),
   midi.NoteOnEvent(tick=46, channel=3, data=[47, 0]),
   midi.NoteOnEvent(tick=2, channel=3, data=[47, 110]),
   midi.NoteOnEvent(tick=46, channel=3, data=[47, 0]),
   midi.NoteOnEvent(tick=2, channel=3, data=[49, 110]),
   midi.NoteOnEvent(tick=94, channel=3, data=[49, 0]),
   midi.NoteOnEvent(tick=2, channel=3, data=[49, 110]),
   midi.NoteOnEvent(tick=46, channel=3, data=[49, 0]),
   midi.NoteOnEvent(tick=2, channel=3, data=[49, 110]),
   midi.NoteOnEvent(tick=46, channel=3, data=[49, 0]),
   midi.NoteOnEvent(tick=2, channel=3, data=[49, 110]),
   midi.NoteOnEvent(tick=46, channel=3, data=[49, 0]),
   midi.NoteOnEvent(tick=2, channel=3, data=[49, 110]),
   midi.NoteOnEvent(tick=46, channel=3, data=[49, 0]),
   midi.NoteOnEvent(tick=2, channel=3, data=[49, 110]),
   midi.NoteOnEvent(tick=46, channel=3, data=[49, 0]),
   midi.NoteOnEvent(tick=2, channel=3, data=[49, 110]),
   midi.NoteOnEvent(tick=46, channel=3, data=[49, 0]),
   midi.NoteOnEvent(tick=2, channel=3, data=[49, 110]),
   midi.NoteOnEvent(tick=94, channel=3, data=[49, 0]),
   midi.NoteOnEvent(tick=2, channel=3, data=[49, 110]),
   midi.NoteOnEvent(tick=46, channel=3, data=[49, 0]),
   midi.NoteOnEvent(tick=2, channel=3, data=[49, 110]),
   midi.NoteOnEvent(tick=46, channel=3, data=[49, 0]),
   midi.NoteOnEvent(tick=2, channel=3, data=[49, 110]),
   midi.NoteOnEvent(tick=46, channel=3, data=[49, 0]),
   midi.NoteOnEvent(tick=2, channel=3, data=[49, 110]),
   midi.NoteOnEvent(tick=46, channel=3, data=[49, 0]),
   midi.NoteOnEvent(tick=2, channel=3, data=[49, 110]),
   midi.NoteOnEvent(tick=46, channel=3, data=[49, 0]),
   midi.NoteOnEvent(tick=2, channel=3, data=[49, 110]),
   midi.NoteOnEvent(tick=46, channel=3, data=[49, 0]),
   midi.NoteOnEvent(tick=2, channel=3, data=[49, 110]),
   midi.NoteOnEvent(tick=94, channel=3, data=[49, 0]),
   midi.NoteOnEvent(tick=2, channel=3, data=[49, 110]),
   midi.NoteOnEvent(tick=46, channel=3, data=[49, 0]),
   midi.NoteOnEvent(tick=2, channel=3, data=[49, 110]),
   midi.NoteOnEvent(tick=46, channel=3, data=[49, 0]),
   midi.NoteOnEvent(tick=2, channel=3, data=[49, 110]),
   midi.NoteOnEvent(tick=46, channel=3, data=[49, 0]),
   midi.NoteOnEvent(tick=2, channel=3, data=[49, 110]),
   midi.NoteOnEvent(tick=46, channel=3, data=[49, 0]),
   midi.NoteOnEvent(tick=2, channel=3, data=[49, 110]),
   midi.NoteOnEvent(tick=46, channel=3, data=[49, 0]),
   midi.NoteOnEvent(tick=2, channel=3, data=[49, 110]),
   midi.NoteOnEvent(tick=46, channel=3, data=[49, 0]),
   midi.NoteOnEvent(tick=2, channel=3, data=[49, 110]),
   midi.NoteOnEvent(tick=94, channel=3, data=[49, 0]),
   midi.NoteOnEvent(tick=2, channel=3, data=[49, 110]),
   midi.NoteOnEvent(tick=46, channel=3, data=[49, 0]),
   midi.NoteOnEvent(tick=2, channel=3, data=[49, 110]),
   midi.NoteOnEvent(tick=46, channel=3, data=[49, 0]),
   midi.NoteOnEvent(tick=2, channel=3, data=[49, 110]),
   midi.NoteOnEvent(tick=46, channel=3, data=[49, 0]),
   midi.NoteOnEvent(tick=2, channel=3, data=[49, 110]),
   midi.NoteOnEvent(tick=46, channel=3, data=[49, 0]),
   midi.NoteOnEvent(tick=2, channel=3, data=[49, 110]),
   midi.NoteOnEvent(tick=46, channel=3, data=[49, 0]),
   midi.NoteOnEvent(tick=2, channel=3, data=[49, 110]),
   midi.NoteOnEvent(tick=46, channel=3, data=[49, 0]),
   midi.NoteOnEvent(tick=2, channel=3, data=[49, 110]),
   midi.NoteOnEvent(tick=94, channel=3, data=[49, 0]),
   midi.NoteOnEvent(tick=2, channel=3, data=[49, 110]),
   midi.NoteOnEvent(tick=46, channel=3, data=[49, 0]),
   midi.NoteOnEvent(tick=2, channel=3, data=[49, 110]),
   midi.NoteOnEvent(tick=46, channel=3, data=[49, 0]),
   midi.NoteOnEvent(tick=2, channel=3, data=[49, 110]),
   midi.NoteOnEvent(tick=46, channel=3, data=[49, 0]),
   midi.NoteOnEvent(tick=2, channel=3, data=[49, 110]),
   midi.NoteOnEvent(tick=46, channel=3, data=[49, 0]),
   midi.NoteOnEvent(tick=2, channel=3, data=[49, 110]),
   midi.NoteOnEvent(tick=46, channel=3, data=[49, 0]),
   midi.NoteOnEvent(tick=2, channel=3, data=[49, 110]),
   midi.NoteOnEvent(tick=46, channel=3, data=[49, 0]),
   midi.NoteOnEvent(tick=2, channel=3, data=[49, 110]),
   midi.NoteOnEvent(tick=94, channel=3, data=[49, 0]),
   midi.NoteOnEvent(tick=2, channel=3, data=[49, 110]),
   midi.NoteOnEvent(tick=46, channel=3, data=[49, 0]),
   midi.NoteOnEvent(tick=2, channel=3, data=[49, 110]),
   midi.NoteOnEvent(tick=46, channel=3, data=[49, 0]),
   midi.NoteOnEvent(tick=2, channel=3, data=[47, 110]),
   midi.NoteOnEvent(tick=94, channel=3, data=[47, 0]),
   midi.NoteOnEvent(tick=2, channel=3, data=[47, 110]),
   midi.NoteOnEvent(tick=46, channel=3, data=[47, 0]),
   midi.NoteOnEvent(tick=2, channel=3, data=[47, 110]),
   midi.NoteOnEvent(tick=46, channel=3, data=[47, 0]),
   midi.NoteOnEvent(tick=2, channel=3, data=[47, 110]),
   midi.NoteOnEvent(tick=46, channel=3, data=[47, 0]),
   midi.NoteOnEvent(tick=2, channel=3, data=[47, 110]),
   midi.NoteOnEvent(tick=46, channel=3, data=[47, 0]),
   midi.NoteOnEvent(tick=2, channel=3, data=[47, 110]),
   midi.NoteOnEvent(tick=46, channel=3, data=[47, 0]),
   midi.NoteOnEvent(tick=2, channel=3, data=[47, 110]),
   midi.NoteOnEvent(tick=46, channel=3, data=[47, 0]),
   midi.NoteOnEvent(tick=2, channel=3, data=[47, 110]),
   midi.NoteOnEvent(tick=94, channel=3, data=[47, 0]),
   midi.NoteOnEvent(tick=2, channel=3, data=[47, 110]),
   midi.NoteOnEvent(tick=46, channel=3, data=[47, 0]),
   midi.NoteOnEvent(tick=2, channel=3, data=[47, 110]),
   midi.NoteOnEvent(tick=46, channel=3, data=[47, 0]),
   midi.NoteOnEvent(tick=2, channel=3, data=[49, 110]),
   midi.NoteOnEvent(tick=94, channel=3, data=[49, 0]),
   midi.NoteOnEvent(tick=2, channel=3, data=[49, 110]),
   midi.NoteOnEvent(tick=46, channel=3, data=[49, 0]),
   midi.NoteOnEvent(tick=2, channel=3, data=[49, 110]),
   midi.NoteOnEvent(tick=46, channel=3, data=[49, 0]),
   midi.NoteOnEvent(tick=2, channel=3, data=[49, 110]),
   midi.NoteOnEvent(tick=46, channel=3, data=[49, 0]),
   midi.NoteOnEvent(tick=2, channel=3, data=[49, 110]),
   midi.NoteOnEvent(tick=46, channel=3, data=[49, 0]),
   midi.NoteOnEvent(tick=2, channel=3, data=[49, 110]),
   midi.NoteOnEvent(tick=46, channel=3, data=[49, 0]),
   midi.NoteOnEvent(tick=2, channel=3, data=[49, 110]),
   midi.NoteOnEvent(tick=46, channel=3, data=[49, 0]),
   midi.NoteOnEvent(tick=2, channel=3, data=[49, 110]),
   midi.NoteOnEvent(tick=94, channel=3, data=[49, 0]),
   midi.NoteOnEvent(tick=2, channel=3, data=[49, 110]),
   midi.NoteOnEvent(tick=46, channel=3, data=[49, 0]),
   midi.NoteOnEvent(tick=2, channel=3, data=[49, 110]),
   midi.NoteOnEvent(tick=46, channel=3, data=[49, 0]),
   midi.NoteOnEvent(tick=2, channel=3, data=[49, 110]),
   midi.NoteOnEvent(tick=46, channel=3, data=[49, 0]),
   midi.NoteOnEvent(tick=2, channel=3, data=[49, 110]),
   midi.NoteOnEvent(tick=46, channel=3, data=[49, 0]),
   midi.NoteOnEvent(tick=2, channel=3, data=[49, 110]),
   midi.NoteOnEvent(tick=46, channel=3, data=[49, 0]),
   midi.NoteOnEvent(tick=2, channel=3, data=[49, 110]),
   midi.NoteOnEvent(tick=46, channel=3, data=[49, 0]),
   midi.NoteOnEvent(tick=2, channel=3, data=[49, 110]),
   midi.NoteOnEvent(tick=94, channel=3, data=[49, 0]),
   midi.NoteOnEvent(tick=2, channel=3, data=[49, 110]),
   midi.NoteOnEvent(tick=46, channel=3, data=[49, 0]),
   midi.NoteOnEvent(tick=2, channel=3, data=[49, 110]),
   midi.NoteOnEvent(tick=46, channel=3, data=[49, 0]),
   midi.NoteOnEvent(tick=2, channel=3, data=[49, 110]),
   midi.NoteOnEvent(tick=46, channel=3, data=[49, 0]),
   midi.NoteOnEvent(tick=2, channel=3, data=[49, 110]),
   midi.NoteOnEvent(tick=46, channel=3, data=[49, 0]),
   midi.NoteOnEvent(tick=2, channel=3, data=[49, 110]),
   midi.NoteOnEvent(tick=46, channel=3, data=[49, 0]),
   midi.NoteOnEvent(tick=2, channel=3, data=[49, 110]),
   midi.NoteOnEvent(tick=46, channel=3, data=[49, 0]),
   midi.NoteOnEvent(tick=2, channel=3, data=[49, 110]),
   midi.NoteOnEvent(tick=94, channel=3, data=[49, 0]),
   midi.NoteOnEvent(tick=2, channel=3, data=[49, 110]),
   midi.NoteOnEvent(tick=46, channel=3, data=[49, 0]),
   midi.NoteOnEvent(tick=2, channel=3, data=[49, 110]),
   midi.NoteOnEvent(tick=46, channel=3, data=[49, 0]),
   midi.NoteOnEvent(tick=2, channel=3, data=[49, 110]),
   midi.NoteOnEvent(tick=46, channel=3, data=[49, 0]),
   midi.NoteOnEvent(tick=2, channel=3, data=[49, 110]),
   midi.NoteOnEvent(tick=46, channel=3, data=[49, 0]),
   midi.NoteOnEvent(tick=2, channel=3, data=[49, 110]),
   midi.NoteOnEvent(tick=46, channel=3, data=[49, 0]),
   midi.NoteOnEvent(tick=2, channel=3, data=[49, 110]),
   midi.NoteOnEvent(tick=46, channel=3, data=[49, 0]),
   midi.NoteOnEvent(tick=2, channel=3, data=[49, 110]),
   midi.NoteOnEvent(tick=94, channel=3, data=[49, 0]),
   midi.NoteOnEvent(tick=2, channel=3, data=[49, 110]),
   midi.NoteOnEvent(tick=46, channel=3, data=[49, 0]),
   midi.NoteOnEvent(tick=2, channel=3, data=[49, 110]),
   midi.NoteOnEvent(tick=46, channel=3, data=[49, 0]),
   midi.NoteOnEvent(tick=2, channel=3, data=[49, 110]),
   midi.NoteOnEvent(tick=46, channel=3, data=[49, 0]),
   midi.NoteOnEvent(tick=2, channel=3, data=[49, 110]),
   midi.NoteOnEvent(tick=46, channel=3, data=[49, 0]),
   midi.NoteOnEvent(tick=2, channel=3, data=[49, 110]),
   midi.NoteOnEvent(tick=46, channel=3, data=[49, 0]),
   midi.NoteOnEvent(tick=2, channel=3, data=[49, 110]),
   midi.NoteOnEvent(tick=46, channel=3, data=[49, 0]),
   midi.NoteOnEvent(tick=2, channel=3, data=[49, 110]),
   midi.NoteOnEvent(tick=94, channel=3, data=[49, 0]),
   midi.NoteOnEvent(tick=2, channel=3, data=[49, 110]),
   midi.NoteOnEvent(tick=46, channel=3, data=[49, 0]),
   midi.NoteOnEvent(tick=2, channel=3, data=[49, 110]),
   midi.NoteOnEvent(tick=46, channel=3, data=[49, 0]),
   midi.NoteOnEvent(tick=2, channel=3, data=[47, 110]),
   midi.NoteOnEvent(tick=94, channel=3, data=[47, 0]),
   midi.NoteOnEvent(tick=2, channel=3, data=[47, 110]),
   midi.NoteOnEvent(tick=46, channel=3, data=[47, 0]),
   midi.NoteOnEvent(tick=2, channel=3, data=[47, 110]),
   midi.NoteOnEvent(tick=46, channel=3, data=[47, 0]),
   midi.NoteOnEvent(tick=2, channel=3, data=[47, 110]),
   midi.NoteOnEvent(tick=46, channel=3, data=[47, 0]),
   midi.NoteOnEvent(tick=2, channel=3, data=[47, 110]),
   midi.NoteOnEvent(tick=46, channel=3, data=[47, 0]),
   midi.NoteOnEvent(tick=2, channel=3, data=[47, 110]),
   midi.NoteOnEvent(tick=46, channel=3, data=[47, 0]),
   midi.NoteOnEvent(tick=2, channel=3, data=[47, 110]),
   midi.NoteOnEvent(tick=46, channel=3, data=[47, 0]),
   midi.NoteOnEvent(tick=2, channel=3, data=[47, 110]),
   midi.NoteOnEvent(tick=94, channel=3, data=[47, 0]),
   midi.NoteOnEvent(tick=2, channel=3, data=[47, 110]),
   midi.NoteOnEvent(tick=46, channel=3, data=[47, 0]),
   midi.NoteOnEvent(tick=2, channel=3, data=[47, 110]),
   midi.NoteOnEvent(tick=46, channel=3, data=[47, 0]),
   midi.NoteOnEvent(tick=2, channel=3, data=[49, 110]),
   midi.NoteOnEvent(tick=94, channel=3, data=[49, 0]),
   midi.NoteOnEvent(tick=2, channel=3, data=[49, 110]),
   midi.NoteOnEvent(tick=46, channel=3, data=[49, 0]),
   midi.NoteOnEvent(tick=2, channel=3, data=[49, 110]),
   midi.NoteOnEvent(tick=46, channel=3, data=[49, 0]),
   midi.NoteOnEvent(tick=2, channel=3, data=[49, 110]),
   midi.NoteOnEvent(tick=46, channel=3, data=[49, 0]),
   midi.NoteOnEvent(tick=2, channel=3, data=[49, 110]),
   midi.NoteOnEvent(tick=46, channel=3, data=[49, 0]),
   midi.NoteOnEvent(tick=2, channel=3, data=[49, 110]),
   midi.NoteOnEvent(tick=46, channel=3, data=[49, 0]),
   midi.NoteOnEvent(tick=2, channel=3, data=[49, 110]),
   midi.NoteOnEvent(tick=46, channel=3, data=[49, 0]),
   midi.NoteOnEvent(tick=2, channel=3, data=[49, 110]),
   midi.NoteOnEvent(tick=94, channel=3, data=[49, 0]),
   midi.NoteOnEvent(tick=2, channel=3, data=[49, 110]),
   midi.NoteOnEvent(tick=46, channel=3, data=[49, 0]),
   midi.NoteOnEvent(tick=2, channel=3, data=[49, 110]),
   midi.NoteOnEvent(tick=46, channel=3, data=[49, 0]),
   midi.NoteOnEvent(tick=2, channel=3, data=[49, 110]),
   midi.NoteOnEvent(tick=46, channel=3, data=[49, 0]),
   midi.NoteOnEvent(tick=2, channel=3, data=[49, 110]),
   midi.NoteOnEvent(tick=46, channel=3, data=[49, 0]),
   midi.NoteOnEvent(tick=2, channel=3, data=[49, 110]),
   midi.NoteOnEvent(tick=46, channel=3, data=[49, 0]),
   midi.NoteOnEvent(tick=2, channel=3, data=[49, 110]),
   midi.NoteOnEvent(tick=46, channel=3, data=[49, 0]),
   midi.NoteOnEvent(tick=2, channel=3, data=[49, 110]),
   midi.NoteOnEvent(tick=94, channel=3, data=[49, 0]),
   midi.NoteOnEvent(tick=2, channel=3, data=[49, 110]),
   midi.NoteOnEvent(tick=46, channel=3, data=[49, 0]),
   midi.NoteOnEvent(tick=2, channel=3, data=[49, 110]),
   midi.NoteOnEvent(tick=46, channel=3, data=[49, 0]),
   midi.NoteOnEvent(tick=2, channel=3, data=[49, 110]),
   midi.NoteOnEvent(tick=46, channel=3, data=[49, 0]),
   midi.NoteOnEvent(tick=2, channel=3, data=[49, 110]),
   midi.NoteOnEvent(tick=46, channel=3, data=[49, 0]),
   midi.NoteOnEvent(tick=2, channel=3, data=[49, 110]),
   midi.NoteOnEvent(tick=46, channel=3, data=[49, 0]),
   midi.NoteOnEvent(tick=2, channel=3, data=[49, 110]),
   midi.NoteOnEvent(tick=46, channel=3, data=[49, 0]),
   midi.NoteOnEvent(tick=2, channel=3, data=[49, 110]),
   midi.NoteOnEvent(tick=94, channel=3, data=[49, 0]),
   midi.NoteOnEvent(tick=2, channel=3, data=[49, 110]),
   midi.NoteOnEvent(tick=46, channel=3, data=[49, 0]),
   midi.NoteOnEvent(tick=2, channel=3, data=[49, 110]),
   midi.NoteOnEvent(tick=46, channel=3, data=[49, 0]),
   midi.NoteOnEvent(tick=2, channel=3, data=[49, 110]),
   midi.NoteOnEvent(tick=46, channel=3, data=[49, 0]),
   midi.NoteOnEvent(tick=2, channel=3, data=[49, 110]),
   midi.NoteOnEvent(tick=46, channel=3, data=[49, 0]),
   midi.NoteOnEvent(tick=2, channel=3, data=[49, 110]),
   midi.NoteOnEvent(tick=46, channel=3, data=[49, 0]),
   midi.NoteOnEvent(tick=2, channel=3, data=[49, 110]),
   midi.NoteOnEvent(tick=46, channel=3, data=[49, 0]),
   midi.NoteOnEvent(tick=2, channel=3, data=[49, 110]),
   midi.NoteOnEvent(tick=94, channel=3, data=[49, 0]),
   midi.NoteOnEvent(tick=2, channel=3, data=[49, 110]),
   midi.NoteOnEvent(tick=46, channel=3, data=[49, 0]),
   midi.NoteOnEvent(tick=2, channel=3, data=[49, 110]),
   midi.NoteOnEvent(tick=46, channel=3, data=[49, 0]),
   midi.NoteOnEvent(tick=2, channel=3, data=[49, 110]),
   midi.NoteOnEvent(tick=46, channel=3, data=[49, 0]),
   midi.NoteOnEvent(tick=2, channel=3, data=[49, 110]),
   midi.NoteOnEvent(tick=46, channel=3, data=[49, 0]),
   midi.NoteOnEvent(tick=2, channel=3, data=[49, 110]),
   midi.NoteOnEvent(tick=46, channel=3, data=[49, 0]),
   midi.NoteOnEvent(tick=2, channel=3, data=[49, 110]),
   midi.NoteOnEvent(tick=46, channel=3, data=[49, 0]),
   midi.NoteOnEvent(tick=2, channel=3, data=[49, 110]),
   midi.NoteOnEvent(tick=94, channel=3, data=[49, 0]),
   midi.NoteOnEvent(tick=2, channel=3, data=[49, 110]),
   midi.NoteOnEvent(tick=46, channel=3, data=[49, 0]),
   midi.NoteOnEvent(tick=2, channel=3, data=[49, 110]),
   midi.NoteOnEvent(tick=46, channel=3, data=[49, 0]),
   midi.NoteOnEvent(tick=2, channel=3, data=[47, 110]),
   midi.NoteOnEvent(tick=94, channel=3, data=[47, 0]),
   midi.NoteOnEvent(tick=2, channel=3, data=[47, 110]),
   midi.NoteOnEvent(tick=46, channel=3, data=[47, 0]),
   midi.NoteOnEvent(tick=2, channel=3, data=[47, 110]),
   midi.NoteOnEvent(tick=46, channel=3, data=[47, 0]),
   midi.NoteOnEvent(tick=2, channel=3, data=[47, 110]),
   midi.NoteOnEvent(tick=46, channel=3, data=[47, 0]),
   midi.NoteOnEvent(tick=2, channel=3, data=[47, 110]),
   midi.NoteOnEvent(tick=46, channel=3, data=[47, 0]),
   midi.NoteOnEvent(tick=2, channel=3, data=[47, 110]),
   midi.NoteOnEvent(tick=46, channel=3, data=[47, 0]),
   midi.NoteOnEvent(tick=2, channel=3, data=[47, 110]),
   midi.NoteOnEvent(tick=46, channel=3, data=[47, 0]),
   midi.NoteOnEvent(tick=2, channel=3, data=[47, 110]),
   midi.NoteOnEvent(tick=94, channel=3, data=[47, 0]),
   midi.NoteOnEvent(tick=2, channel=3, data=[47, 110]),
   midi.NoteOnEvent(tick=46, channel=3, data=[47, 0]),
   midi.NoteOnEvent(tick=2, channel=3, data=[47, 110]),
   midi.NoteOnEvent(tick=46, channel=3, data=[47, 0]),
   midi.NoteOnEvent(tick=2, channel=3, data=[47, 110]),
   midi.NoteOnEvent(tick=94, channel=3, data=[47, 0]),
   midi.NoteOnEvent(tick=2, channel=3, data=[47, 110]),
   midi.NoteOnEvent(tick=46, channel=3, data=[47, 0]),
   midi.NoteOnEvent(tick=2, channel=3, data=[47, 110]),
   midi.NoteOnEvent(tick=46, channel=3, data=[47, 0]),
   midi.NoteOnEvent(tick=2, channel=3, data=[47, 110]),
   midi.NoteOnEvent(tick=46, channel=3, data=[47, 0]),
   midi.NoteOnEvent(tick=2, channel=3, data=[47, 110]),
   midi.NoteOnEvent(tick=46, channel=3, data=[47, 0]),
   midi.NoteOnEvent(tick=2, channel=3, data=[47, 110]),
   midi.NoteOnEvent(tick=46, channel=3, data=[47, 0]),
   midi.NoteOnEvent(tick=2, channel=3, data=[47, 110]),
   midi.NoteOnEvent(tick=46, channel=3, data=[47, 0]),
   midi.NoteOnEvent(tick=2, channel=3, data=[47, 110]),
   midi.NoteOnEvent(tick=94, channel=3, data=[47, 0]),
   midi.NoteOnEvent(tick=2, channel=3, data=[47, 110]),
   midi.NoteOnEvent(tick=46, channel=3, data=[47, 0]),
   midi.NoteOnEvent(tick=2, channel=3, data=[47, 110]),
   midi.NoteOnEvent(tick=46, channel=3, data=[47, 0]),
   midi.NoteOnEvent(tick=2, channel=3, data=[47, 110]),
   midi.NoteOnEvent(tick=46, channel=3, data=[47, 0]),
   midi.NoteOnEvent(tick=2, channel=3, data=[47, 110]),
   midi.NoteOnEvent(tick=46, channel=3, data=[47, 0]),
   midi.NoteOnEvent(tick=2, channel=3, data=[47, 110]),
   midi.NoteOnEvent(tick=46, channel=3, data=[47, 0]),
   midi.NoteOnEvent(tick=2, channel=3, data=[47, 110]),
   midi.NoteOnEvent(tick=46, channel=3, data=[47, 0]),
   midi.NoteOnEvent(tick=2, channel=3, data=[47, 110]),
   midi.NoteOnEvent(tick=94, channel=3, data=[47, 0]),
   midi.NoteOnEvent(tick=2, channel=3, data=[47, 110]),
   midi.NoteOnEvent(tick=46, channel=3, data=[47, 0]),
   midi.NoteOnEvent(tick=2, channel=3, data=[47, 110]),
   midi.NoteOnEvent(tick=46, channel=3, data=[47, 0]),
   midi.NoteOnEvent(tick=2, channel=3, data=[47, 110]),
   midi.NoteOnEvent(tick=46, channel=3, data=[47, 0]),
   midi.NoteOnEvent(tick=2, channel=3, data=[47, 110]),
   midi.NoteOnEvent(tick=46, channel=3, data=[47, 0]),
   midi.NoteOnEvent(tick=2, channel=3, data=[47, 110]),
   midi.NoteOnEvent(tick=46, channel=3, data=[47, 0]),
   midi.NoteOnEvent(tick=2, channel=3, data=[47, 110]),
   midi.NoteOnEvent(tick=46, channel=3, data=[47, 0]),
   midi.NoteOnEvent(tick=2, channel=3, data=[47, 110]),
   midi.NoteOnEvent(tick=94, channel=3, data=[47, 0]),
   midi.NoteOnEvent(tick=2, channel=3, data=[47, 110]),
   midi.NoteOnEvent(tick=46, channel=3, data=[47, 0]),
   midi.NoteOnEvent(tick=2, channel=3, data=[47, 110]),
   midi.NoteOnEvent(tick=46, channel=3, data=[47, 0]),
   midi.NoteOnEvent(tick=2, channel=3, data=[47, 110]),
   midi.NoteOnEvent(tick=46, channel=3, data=[47, 0]),
   midi.NoteOnEvent(tick=2, channel=3, data=[47, 110]),
   midi.NoteOnEvent(tick=46, channel=3, data=[47, 0]),
   midi.NoteOnEvent(tick=2, channel=3, data=[47, 110]),
   midi.NoteOnEvent(tick=46, channel=3, data=[47, 0]),
   midi.NoteOnEvent(tick=2, channel=3, data=[47, 110]),
   midi.NoteOnEvent(tick=46, channel=3, data=[47, 0]),
   midi.NoteOnEvent(tick=2, channel=3, data=[47, 110]),
   midi.NoteOnEvent(tick=94, channel=3, data=[47, 0]),
   midi.NoteOnEvent(tick=2, channel=3, data=[47, 110]),
   midi.NoteOnEvent(tick=46, channel=3, data=[47, 0]),
   midi.NoteOnEvent(tick=2, channel=3, data=[47, 110]),
   midi.NoteOnEvent(tick=46, channel=3, data=[47, 0]),
   midi.NoteOnEvent(tick=2, channel=3, data=[47, 110]),
   midi.NoteOnEvent(tick=46, channel=3, data=[47, 0]),
   midi.NoteOnEvent(tick=2, channel=3, data=[47, 110]),
   midi.NoteOnEvent(tick=46, channel=3, data=[47, 0]),
   midi.NoteOnEvent(tick=2, channel=3, data=[47, 110]),
   midi.NoteOnEvent(tick=46, channel=3, data=[47, 0]),
   midi.NoteOnEvent(tick=2, channel=3, data=[47, 110]),
   midi.NoteOnEvent(tick=46, channel=3, data=[47, 0]),
   midi.NoteOnEvent(tick=2, channel=3, data=[47, 110]),
   midi.NoteOnEvent(tick=94, channel=3, data=[47, 0]),
   midi.NoteOnEvent(tick=2, channel=3, data=[47, 110]),
   midi.NoteOnEvent(tick=46, channel=3, data=[47, 0]),
   midi.NoteOnEvent(tick=2, channel=3, data=[47, 110]),
   midi.NoteOnEvent(tick=46, channel=3, data=[47, 0]),
   midi.NoteOnEvent(tick=2, channel=3, data=[45, 110]),
   midi.NoteOnEvent(tick=94, channel=3, data=[45, 0]),
   midi.NoteOnEvent(tick=2, channel=3, data=[45, 110]),
   midi.NoteOnEvent(tick=46, channel=3, data=[45, 0]),
   midi.NoteOnEvent(tick=2, channel=3, data=[45, 110]),
   midi.NoteOnEvent(tick=46, channel=3, data=[45, 0]),
   midi.NoteOnEvent(tick=2, channel=3, data=[45, 110]),
   midi.NoteOnEvent(tick=46, channel=3, data=[45, 0]),
   midi.NoteOnEvent(tick=2, channel=3, data=[45, 110]),
   midi.NoteOnEvent(tick=46, channel=3, data=[45, 0]),
   midi.NoteOnEvent(tick=2, channel=3, data=[45, 110]),
   midi.NoteOnEvent(tick=46, channel=3, data=[45, 0]),
   midi.NoteOnEvent(tick=2, channel=3, data=[45, 110]),
   midi.NoteOnEvent(tick=46, channel=3, data=[45, 0]),
   midi.NoteOnEvent(tick=2, channel=3, data=[45, 110]),
   midi.NoteOnEvent(tick=94, channel=3, data=[45, 0]),
   midi.NoteOnEvent(tick=2, channel=3, data=[45, 110]),
   midi.NoteOnEvent(tick=46, channel=3, data=[45, 0]),
   midi.NoteOnEvent(tick=2, channel=3, data=[45, 110]),
   midi.NoteOnEvent(tick=46, channel=3, data=[45, 0]),
   midi.NoteOnEvent(tick=2, channel=3, data=[47, 110]),
   midi.NoteOnEvent(tick=94, channel=3, data=[47, 0]),
   midi.NoteOnEvent(tick=2, channel=3, data=[47, 110]),
   midi.NoteOnEvent(tick=46, channel=3, data=[47, 0]),
   midi.NoteOnEvent(tick=2, channel=3, data=[47, 110]),
   midi.NoteOnEvent(tick=46, channel=3, data=[47, 0]),
   midi.NoteOnEvent(tick=2, channel=3, data=[47, 110]),
   midi.NoteOnEvent(tick=46, channel=3, data=[47, 0]),
   midi.NoteOnEvent(tick=2, channel=3, data=[47, 110]),
   midi.NoteOnEvent(tick=46, channel=3, data=[47, 0]),
   midi.NoteOnEvent(tick=2, channel=3, data=[47, 110]),
   midi.NoteOnEvent(tick=46, channel=3, data=[47, 0]),
   midi.NoteOnEvent(tick=2, channel=3, data=[47, 110]),
   midi.NoteOnEvent(tick=46, channel=3, data=[47, 0]),
   midi.NoteOnEvent(tick=2, channel=3, data=[47, 110]),
   midi.NoteOnEvent(tick=94, channel=3, data=[47, 0]),
   midi.NoteOnEvent(tick=2, channel=3, data=[47, 110]),
   midi.NoteOnEvent(tick=46, channel=3, data=[47, 0]),
   midi.NoteOnEvent(tick=2, channel=3, data=[47, 110]),
   midi.NoteOnEvent(tick=46, channel=3, data=[47, 0]),
   midi.NoteOnEvent(tick=2, channel=3, data=[47, 110]),
   midi.NoteOnEvent(tick=46, channel=3, data=[47, 0]),
   midi.NoteOnEvent(tick=2, channel=3, data=[47, 110]),
   midi.NoteOnEvent(tick=46, channel=3, data=[47, 0]),
   midi.NoteOnEvent(tick=2, channel=3, data=[47, 110]),
   midi.NoteOnEvent(tick=46, channel=3, data=[47, 0]),
   midi.NoteOnEvent(tick=2, channel=3, data=[47, 110]),
   midi.NoteOnEvent(tick=46, channel=3, data=[47, 0]),
   midi.NoteOnEvent(tick=2, channel=3, data=[47, 110]),
   midi.NoteOnEvent(tick=94, channel=3, data=[47, 0]),
   midi.NoteOnEvent(tick=2, channel=3, data=[47, 110]),
   midi.NoteOnEvent(tick=46, channel=3, data=[47, 0]),
   midi.NoteOnEvent(tick=2, channel=3, data=[47, 110]),
   midi.NoteOnEvent(tick=46, channel=3, data=[47, 0]),
   midi.NoteOnEvent(tick=2, channel=3, data=[47, 110]),
   midi.NoteOnEvent(tick=46, channel=3, data=[47, 0]),
   midi.NoteOnEvent(tick=2, channel=3, data=[47, 110]),
   midi.NoteOnEvent(tick=46, channel=3, data=[47, 0]),
   midi.NoteOnEvent(tick=2, channel=3, data=[47, 110]),
   midi.NoteOnEvent(tick=46, channel=3, data=[47, 0]),
   midi.NoteOnEvent(tick=2, channel=3, data=[47, 110]),
   midi.NoteOnEvent(tick=46, channel=3, data=[47, 0]),
   midi.NoteOnEvent(tick=2, channel=3, data=[47, 110]),
   midi.NoteOnEvent(tick=94, channel=3, data=[47, 0]),
   midi.NoteOnEvent(tick=2, channel=3, data=[47, 110]),
   midi.NoteOnEvent(tick=46, channel=3, data=[47, 0]),
   midi.NoteOnEvent(tick=2, channel=3, data=[47, 110]),
   midi.NoteOnEvent(tick=46, channel=3, data=[47, 0]),
   midi.NoteOnEvent(tick=2, channel=3, data=[47, 110]),
   midi.NoteOnEvent(tick=46, channel=3, data=[47, 0]),
   midi.NoteOnEvent(tick=2, channel=3, data=[47, 110]),
   midi.NoteOnEvent(tick=46, channel=3, data=[47, 0]),
   midi.NoteOnEvent(tick=2, channel=3, data=[47, 110]),
   midi.NoteOnEvent(tick=46, channel=3, data=[47, 0]),
   midi.NoteOnEvent(tick=2, channel=3, data=[47, 110]),
   midi.NoteOnEvent(tick=46, channel=3, data=[47, 0]),
   midi.NoteOnEvent(tick=2, channel=3, data=[47, 110]),
   midi.NoteOnEvent(tick=94, channel=3, data=[47, 0]),
   midi.NoteOnEvent(tick=2, channel=3, data=[47, 110]),
   midi.NoteOnEvent(tick=46, channel=3, data=[47, 0]),
   midi.NoteOnEvent(tick=2, channel=3, data=[47, 110]),
   midi.NoteOnEvent(tick=46, channel=3, data=[47, 0]),
   midi.NoteOnEvent(tick=2, channel=3, data=[47, 110]),
   midi.NoteOnEvent(tick=46, channel=3, data=[47, 0]),
   midi.NoteOnEvent(tick=2, channel=3, data=[47, 110]),
   midi.NoteOnEvent(tick=46, channel=3, data=[47, 0]),
   midi.NoteOnEvent(tick=2, channel=3, data=[47, 110]),
   midi.NoteOnEvent(tick=46, channel=3, data=[47, 0]),
   midi.NoteOnEvent(tick=2, channel=3, data=[47, 110]),
   midi.NoteOnEvent(tick=46, channel=3, data=[47, 0]),
   midi.NoteOnEvent(tick=2, channel=3, data=[47, 110]),
   midi.NoteOnEvent(tick=94, channel=3, data=[47, 0]),
   midi.NoteOnEvent(tick=2, channel=3, data=[47, 110]),
   midi.NoteOnEvent(tick=46, channel=3, data=[47, 0]),
   midi.NoteOnEvent(tick=2, channel=3, data=[47, 110]),
   midi.NoteOnEvent(tick=46, channel=3, data=[47, 0]),
   midi.NoteOnEvent(tick=2, channel=3, data=[45, 110]),
   midi.NoteOnEvent(tick=94, channel=3, data=[45, 0]),
   midi.NoteOnEvent(tick=2, channel=3, data=[45, 110]),
   midi.NoteOnEvent(tick=46, channel=3, data=[45, 0]),
   midi.NoteOnEvent(tick=2, channel=3, data=[45, 110]),
   midi.NoteOnEvent(tick=46, channel=3, data=[45, 0]),
   midi.NoteOnEvent(tick=2, channel=3, data=[45, 110]),
   midi.NoteOnEvent(tick=46, channel=3, data=[45, 0]),
   midi.NoteOnEvent(tick=2, channel=3, data=[45, 110]),
   midi.NoteOnEvent(tick=46, channel=3, data=[45, 0]),
   midi.NoteOnEvent(tick=2, channel=3, data=[45, 110]),
   midi.NoteOnEvent(tick=46, channel=3, data=[45, 0]),
   midi.NoteOnEvent(tick=2, channel=3, data=[45, 110]),
   midi.NoteOnEvent(tick=46, channel=3, data=[45, 0]),
   midi.NoteOnEvent(tick=2, channel=3, data=[45, 110]),
   midi.NoteOnEvent(tick=94, channel=3, data=[45, 0]),
   midi.NoteOnEvent(tick=2, channel=3, data=[45, 110]),
   midi.NoteOnEvent(tick=46, channel=3, data=[45, 0]),
   midi.NoteOnEvent(tick=2, channel=3, data=[45, 110]),
   midi.NoteOnEvent(tick=46, channel=3, data=[45, 0]),
   midi.NoteOnEvent(tick=2, channel=3, data=[47, 110]),
   midi.NoteOnEvent(tick=126, channel=3, data=[47, 0]),
   midi.NoteOnEvent(tick=2, channel=3, data=[46, 110]),
   midi.NoteOnEvent(tick=126, channel=3, data=[46, 0]),
   midi.NoteOnEvent(tick=2, channel=3, data=[47, 110]),
   midi.NoteOnEvent(tick=126, channel=3, data=[47, 0]),
   midi.NoteOnEvent(tick=2, channel=3, data=[48, 110]),
   midi.NoteOnEvent(tick=160, channel=3, data=[48, 0]),
   midi.NoteOnEvent(tick=32, channel=3, data=[47, 110]),
   midi.NoteOnEvent(tick=160, channel=3, data=[47, 0]),
   midi.NoteOnEvent(tick=32, channel=3, data=[40, 110]),
   midi.NoteOnEvent(tick=94, channel=3, data=[40, 0]),
   midi.NoteOnEvent(tick=2, channel=3, data=[40, 110]),
   midi.NoteOnEvent(tick=46, channel=3, data=[40, 0]),
   midi.NoteOnEvent(tick=2, channel=3, data=[40, 110]),
   midi.NoteOnEvent(tick=46, channel=3, data=[40, 0]),
   midi.NoteOnEvent(tick=2, channel=3, data=[40, 110]),
   midi.NoteOnEvent(tick=94, channel=3, data=[40, 0]),
   midi.NoteOnEvent(tick=2, channel=3, data=[40, 110]),
   midi.NoteOnEvent(tick=94, channel=3, data=[40, 0]),
   midi.NoteOnEvent(tick=2, channel=3, data=[40, 110]),
   midi.NoteOnEvent(tick=94, channel=3, data=[40, 0]),
   midi.NoteOnEvent(tick=2, channel=3, data=[40, 110]),
   midi.NoteOnEvent(tick=94, channel=3, data=[40, 0]),
   midi.NoteOnEvent(tick=2, channel=3, data=[40, 110]),
   midi.NoteOnEvent(tick=94, channel=3, data=[40, 0]),
   midi.NoteOnEvent(tick=2, channel=3, data=[43, 110]),
   midi.NoteOnEvent(tick=574, channel=3, data=[43, 0]),
   midi.NoteOnEvent(tick=2, channel=3, data=[46, 110]),
   midi.NoteOnEvent(tick=160, channel=3, data=[46, 0]),
   midi.NoteOnEvent(tick=32, channel=3, data=[42, 110]),
   midi.NoteOnEvent(tick=574, channel=3, data=[42, 0]),
   midi.NoteOnEvent(tick=2, channel=3, data=[45, 110]),
   midi.NoteOnEvent(tick=160, channel=3, data=[45, 0]),
   midi.NoteOnEvent(tick=32, channel=3, data=[41, 110]),
   midi.NoteOnEvent(tick=574, channel=3, data=[41, 0]),
   midi.NoteOnEvent(tick=2, channel=3, data=[43, 110]),
   midi.NoteOnEvent(tick=256, channel=3, data=[43, 0]),
   midi.NoteOnEvent(tick=32, channel=3, data=[40, 110]),
   midi.NoteOnEvent(tick=94, channel=3, data=[40, 0]),
   midi.NoteOnEvent(tick=2, channel=3, data=[40, 110]),
   midi.NoteOnEvent(tick=46, channel=3, data=[40, 0]),
   midi.NoteOnEvent(tick=2, channel=3, data=[40, 110]),
   midi.NoteOnEvent(tick=46, channel=3, data=[40, 0]),
   midi.NoteOnEvent(tick=2, channel=3, data=[40, 110]),
   midi.NoteOnEvent(tick=94, channel=3, data=[40, 0]),
   midi.NoteOnEvent(tick=2, channel=3, data=[40, 110]),
   midi.NoteOnEvent(tick=94, channel=3, data=[40, 0]),
   midi.NoteOnEvent(tick=2, channel=3, data=[40, 110]),
   midi.NoteOnEvent(tick=94, channel=3, data=[40, 0]),
   midi.NoteOnEvent(tick=2, channel=3, data=[40, 110]),
   midi.NoteOnEvent(tick=94, channel=3, data=[40, 0]),
   midi.NoteOnEvent(tick=2, channel=3, data=[40, 110]),
   midi.NoteOnEvent(tick=94, channel=3, data=[40, 0]),
   midi.NoteOnEvent(tick=2, channel=3, data=[43, 110]),
   midi.NoteOnEvent(tick=574, channel=3, data=[43, 0]),
   midi.NoteOnEvent(tick=2, channel=3, data=[46, 110]),
   midi.NoteOnEvent(tick=160, channel=3, data=[46, 0]),
   midi.NoteOnEvent(tick=32, channel=3, data=[42, 110]),
   midi.NoteOnEvent(tick=574, channel=3, data=[42, 0]),
   midi.NoteOnEvent(tick=2, channel=3, data=[45, 110]),
   midi.NoteOnEvent(tick=160, channel=3, data=[45, 0]),
   midi.NoteOnEvent(tick=32, channel=3, data=[41, 110]),
   midi.NoteOnEvent(tick=574, channel=3, data=[41, 0]),
   midi.NoteOnEvent(tick=2, channel=3, data=[43, 110]),
   midi.NoteOnEvent(tick=256, channel=3, data=[43, 0]),
   midi.NoteOnEvent(tick=32, channel=3, data=[40, 110]),
   midi.NoteOnEvent(tick=94, channel=3, data=[40, 0]),
   midi.NoteOnEvent(tick=2, channel=3, data=[40, 110]),
   midi.NoteOnEvent(tick=46, channel=3, data=[40, 0]),
   midi.NoteOnEvent(tick=2, channel=3, data=[40, 110]),
   midi.NoteOnEvent(tick=46, channel=3, data=[40, 0]),
   midi.NoteOnEvent(tick=2, channel=3, data=[40, 110]),
   midi.NoteOnEvent(tick=94, channel=3, data=[40, 0]),
   midi.NoteOnEvent(tick=2, channel=3, data=[40, 110]),
   midi.NoteOnEvent(tick=94, channel=3, data=[40, 0]),
   midi.NoteOnEvent(tick=2, channel=3, data=[40, 110]),
   midi.NoteOnEvent(tick=94, channel=3, data=[40, 0]),
   midi.NoteOnEvent(tick=2, channel=3, data=[40, 110]),
   midi.NoteOnEvent(tick=94, channel=3, data=[40, 0]),
   midi.NoteOnEvent(tick=2, channel=3, data=[40, 110]),
   midi.NoteOnEvent(tick=94, channel=3, data=[40, 0]),
   midi.NoteOnEvent(tick=2, channel=3, data=[43, 110]),
   midi.NoteOnEvent(tick=574, channel=3, data=[43, 0]),
   midi.NoteOnEvent(tick=2, channel=3, data=[46, 110]),
   midi.NoteOnEvent(tick=160, channel=3, data=[46, 0]),
   midi.NoteOnEvent(tick=32, channel=3, data=[42, 110]),
   midi.NoteOnEvent(tick=574, channel=3, data=[42, 0]),
   midi.NoteOnEvent(tick=2, channel=3, data=[45, 110]),
   midi.NoteOnEvent(tick=160, channel=3, data=[45, 0]),
   midi.NoteOnEvent(tick=32, channel=3, data=[41, 110]),
   midi.NoteOnEvent(tick=574, channel=3, data=[41, 0]),
   midi.NoteOnEvent(tick=2, channel=3, data=[43, 110]),
   midi.NoteOnEvent(tick=256, channel=3, data=[43, 0]),
   midi.NoteOnEvent(tick=32, channel=3, data=[40, 110]),
   midi.NoteOnEvent(tick=94, channel=3, data=[40, 0]),
   midi.NoteOnEvent(tick=2, channel=3, data=[40, 110]),
   midi.NoteOnEvent(tick=46, channel=3, data=[40, 0]),
   midi.NoteOnEvent(tick=2, channel=3, data=[40, 110]),
   midi.NoteOnEvent(tick=46, channel=3, data=[40, 0]),
   midi.NoteOnEvent(tick=2, channel=3, data=[40, 110]),
   midi.NoteOnEvent(tick=94, channel=3, data=[40, 0]),
   midi.NoteOnEvent(tick=2, channel=3, data=[40, 110]),
   midi.NoteOnEvent(tick=94, channel=3, data=[40, 0]),
   midi.NoteOnEvent(tick=2, channel=3, data=[40, 110]),
   midi.NoteOnEvent(tick=94, channel=3, data=[40, 0]),
   midi.NoteOnEvent(tick=2, channel=3, data=[40, 110]),
   midi.NoteOnEvent(tick=94, channel=3, data=[40, 0]),
   midi.NoteOnEvent(tick=2, channel=3, data=[40, 110]),
   midi.NoteOnEvent(tick=94, channel=3, data=[40, 0]),
   midi.NoteOnEvent(tick=2, channel=3, data=[43, 110]),
   midi.NoteOnEvent(tick=574, channel=3, data=[43, 0]),
   midi.NoteOnEvent(tick=2, channel=3, data=[46, 110]),
   midi.NoteOnEvent(tick=160, channel=3, data=[46, 0]),
   midi.NoteOnEvent(tick=32, channel=3, data=[42, 110]),
   midi.NoteOnEvent(tick=574, channel=3, data=[42, 0]),
   midi.NoteOnEvent(tick=2, channel=3, data=[45, 110]),
   midi.NoteOnEvent(tick=160, channel=3, data=[45, 0]),
   midi.NoteOnEvent(tick=32, channel=3, data=[41, 110]),
   midi.NoteOnEvent(tick=574, channel=3, data=[41, 0]),
   midi.NoteOnEvent(tick=2, channel=3, data=[43, 110]),
   midi.NoteOnEvent(tick=256, channel=3, data=[43, 0]),
   midi.NoteOnEvent(tick=32, channel=3, data=[40, 110]),
   midi.NoteOnEvent(tick=94, channel=3, data=[40, 0]),
   midi.NoteOnEvent(tick=2, channel=3, data=[40, 110]),
   midi.NoteOnEvent(tick=46, channel=3, data=[40, 0]),
   midi.NoteOnEvent(tick=2, channel=3, data=[40, 110]),
   midi.NoteOnEvent(tick=46, channel=3, data=[40, 0]),
   midi.NoteOnEvent(tick=2, channel=3, data=[40, 110]),
   midi.NoteOnEvent(tick=94, channel=3, data=[40, 0]),
   midi.NoteOnEvent(tick=2, channel=3, data=[40, 110]),
   midi.NoteOnEvent(tick=94, channel=3, data=[40, 0]),
   midi.NoteOnEvent(tick=2, channel=3, data=[40, 110]),
   midi.NoteOnEvent(tick=94, channel=3, data=[40, 0]),
   midi.NoteOnEvent(tick=2, channel=3, data=[40, 110]),
   midi.NoteOnEvent(tick=94, channel=3, data=[40, 0]),
   midi.NoteOnEvent(tick=2, channel=3, data=[40, 110]),
   midi.NoteOnEvent(tick=94, channel=3, data=[40, 0]),
   midi.NoteOnEvent(tick=2, channel=3, data=[40, 110]),
   midi.NoteOnEvent(tick=94, channel=3, data=[40, 0]),
   midi.NoteOnEvent(tick=962, channel=3, data=[40, 110]),
   midi.NoteOnEvent(tick=160, channel=3, data=[40, 0]),
   midi.NoteOnEvent(tick=32, channel=3, data=[40, 110]),
   midi.NoteOnEvent(tick=94, channel=3, data=[40, 0]),
   midi.NoteOnEvent(tick=2, channel=3, data=[40, 110]),
   midi.NoteOnEvent(tick=94, channel=3, data=[40, 0]),
   midi.NoteOnEvent(tick=2, channel=3, data=[40, 110]),
   midi.NoteOnEvent(tick=94, channel=3, data=[40, 0]),
   midi.NoteOnEvent(tick=2, channel=3, data=[40, 110]),
   midi.NoteOnEvent(tick=94, channel=3, data=[40, 0]),
   midi.NoteOnEvent(tick=2, channel=3, data=[40, 110]),
   midi.NoteOnEvent(tick=94, channel=3, data=[40, 0]),
   midi.NoteOnEvent(tick=2, channel=3, data=[40, 110]),
   midi.NoteOnEvent(tick=94, channel=3, data=[40, 0]),
   midi.NoteOnEvent(tick=2, channel=3, data=[40, 110]),
   midi.NoteOnEvent(tick=160, channel=3, data=[40, 0]),
   midi.NoteOnEvent(tick=32, channel=3, data=[40, 110]),
   midi.NoteOnEvent(tick=94, channel=3, data=[40, 0]),
   midi.NoteOnEvent(tick=2, channel=3, data=[40, 110]),
   midi.NoteOnEvent(tick=94, channel=3, data=[40, 0]),
   midi.NoteOnEvent(tick=2, channel=3, data=[40, 110]),
   midi.NoteOnEvent(tick=94, channel=3, data=[40, 0]),
   midi.NoteOnEvent(tick=2, channel=3, data=[40, 110]),
   midi.NoteOnEvent(tick=94, channel=3, data=[40, 0]),
   midi.NoteOnEvent(tick=2, channel=3, data=[40, 110]),
   midi.NoteOnEvent(tick=94, channel=3, data=[40, 0]),
   midi.NoteOnEvent(tick=2, channel=3, data=[40, 110]),
   midi.NoteOnEvent(tick=94, channel=3, data=[40, 0]),
   midi.NoteOnEvent(tick=2, channel=3, data=[40, 110]),
   midi.NoteOnEvent(tick=160, channel=3, data=[40, 0]),
   midi.NoteOnEvent(tick=32, channel=3, data=[40, 110]),
   midi.NoteOnEvent(tick=94, channel=3, data=[40, 0]),
   midi.NoteOnEvent(tick=2, channel=3, data=[40, 110]),
   midi.NoteOnEvent(tick=94, channel=3, data=[40, 0]),
   midi.NoteOnEvent(tick=2, channel=3, data=[40, 110]),
   midi.NoteOnEvent(tick=94, channel=3, data=[40, 0]),
   midi.NoteOnEvent(tick=2, channel=3, data=[40, 110]),
   midi.NoteOnEvent(tick=94, channel=3, data=[40, 0]),
   midi.NoteOnEvent(tick=2, channel=3, data=[40, 110]),
   midi.NoteOnEvent(tick=94, channel=3, data=[40, 0]),
   midi.NoteOnEvent(tick=2, channel=3, data=[40, 110]),
   midi.NoteOnEvent(tick=94, channel=3, data=[40, 0]),
   midi.NoteOnEvent(tick=2, channel=3, data=[40, 110]),
   midi.NoteOnEvent(tick=160, channel=3, data=[40, 0]),
   midi.NoteOnEvent(tick=32, channel=3, data=[40, 110]),
   midi.NoteOnEvent(tick=94, channel=3, data=[40, 0]),
   midi.NoteOnEvent(tick=2, channel=3, data=[40, 110]),
   midi.NoteOnEvent(tick=94, channel=3, data=[40, 0]),
   midi.NoteOnEvent(tick=2, channel=3, data=[40, 110]),
   midi.NoteOnEvent(tick=94, channel=3, data=[40, 0]),
   midi.NoteOnEvent(tick=2, channel=3, data=[40, 110]),
   midi.NoteOnEvent(tick=94, channel=3, data=[40, 0]),
   midi.NoteOnEvent(tick=2, channel=3, data=[40, 110]),
   midi.NoteOnEvent(tick=94, channel=3, data=[40, 0]),
   midi.NoteOnEvent(tick=2, channel=3, data=[40, 110]),
   midi.NoteOnEvent(tick=94, channel=3, data=[40, 0]),
   midi.NoteOnEvent(tick=2, channel=3, data=[40, 110]),
   midi.NoteOnEvent(tick=160, channel=3, data=[40, 0]),
   midi.NoteOnEvent(tick=32, channel=3, data=[40, 110]),
   midi.NoteOnEvent(tick=94, channel=3, data=[40, 0]),
   midi.NoteOnEvent(tick=2, channel=3, data=[40, 110]),
   midi.NoteOnEvent(tick=94, channel=3, data=[40, 0]),
   midi.NoteOnEvent(tick=2, channel=3, data=[40, 110]),
   midi.NoteOnEvent(tick=94, channel=3, data=[40, 0]),
   midi.NoteOnEvent(tick=2, channel=3, data=[40, 110]),
   midi.NoteOnEvent(tick=94, channel=3, data=[40, 0]),
   midi.NoteOnEvent(tick=2, channel=3, data=[40, 110]),
   midi.NoteOnEvent(tick=94, channel=3, data=[40, 0]),
   midi.NoteOnEvent(tick=2, channel=3, data=[40, 110]),
   midi.NoteOnEvent(tick=94, channel=3, data=[40, 0]),
   midi.NoteOnEvent(tick=2, channel=3, data=[40, 110]),
   midi.NoteOnEvent(tick=160, channel=3, data=[40, 0]),
   midi.NoteOnEvent(tick=32, channel=3, data=[40, 110]),
   midi.NoteOnEvent(tick=94, channel=3, data=[40, 0]),
   midi.NoteOnEvent(tick=2, channel=3, data=[40, 110]),
   midi.NoteOnEvent(tick=94, channel=3, data=[40, 0]),
   midi.NoteOnEvent(tick=2, channel=3, data=[40, 110]),
   midi.NoteOnEvent(tick=94, channel=3, data=[40, 0]),
   midi.NoteOnEvent(tick=2, channel=3, data=[40, 110]),
   midi.NoteOnEvent(tick=94, channel=3, data=[40, 0]),
   midi.NoteOnEvent(tick=2, channel=3, data=[40, 110]),
   midi.NoteOnEvent(tick=94, channel=3, data=[40, 0]),
   midi.NoteOnEvent(tick=2, channel=3, data=[40, 110]),
   midi.NoteOnEvent(tick=94, channel=3, data=[40, 0]),
   midi.NoteOnEvent(tick=2, channel=3, data=[40, 110]),
   midi.NoteOnEvent(tick=160, channel=3, data=[40, 0]),
   midi.NoteOnEvent(tick=32, channel=3, data=[40, 110]),
   midi.NoteOnEvent(tick=94, channel=3, data=[40, 0]),
   midi.NoteOnEvent(tick=2, channel=3, data=[40, 110]),
   midi.NoteOnEvent(tick=94, channel=3, data=[40, 0]),
   midi.NoteOnEvent(tick=2, channel=3, data=[40, 110]),
   midi.NoteOnEvent(tick=94, channel=3, data=[40, 0]),
   midi.NoteOnEvent(tick=2, channel=3, data=[40, 110]),
   midi.NoteOnEvent(tick=94, channel=3, data=[40, 0]),
   midi.NoteOnEvent(tick=2, channel=3, data=[40, 110]),
   midi.NoteOnEvent(tick=94, channel=3, data=[40, 0]),
   midi.NoteOnEvent(tick=2, channel=3, data=[40, 110]),
   midi.NoteOnEvent(tick=94, channel=3, data=[40, 0]),
   midi.NoteOnEvent(tick=2, channel=3, data=[40, 110]),
   midi.NoteOnEvent(tick=160, channel=3, data=[40, 0]),
   midi.NoteOnEvent(tick=32, channel=3, data=[40, 110]),
   midi.NoteOnEvent(tick=94, channel=3, data=[40, 0]),
   midi.NoteOnEvent(tick=2, channel=3, data=[40, 110]),
   midi.NoteOnEvent(tick=94, channel=3, data=[40, 0]),
   midi.NoteOnEvent(tick=2, channel=3, data=[40, 110]),
   midi.NoteOnEvent(tick=94, channel=3, data=[40, 0]),
   midi.NoteOnEvent(tick=2, channel=3, data=[40, 110]),
   midi.NoteOnEvent(tick=94, channel=3, data=[40, 0]),
   midi.NoteOnEvent(tick=2, channel=3, data=[40, 110]),
   midi.NoteOnEvent(tick=94, channel=3, data=[40, 0]),
   midi.NoteOnEvent(tick=2, channel=3, data=[40, 110]),
   midi.NoteOnEvent(tick=94, channel=3, data=[40, 0]),
   midi.NoteOnEvent(tick=2, channel=3, data=[40, 110]),
   midi.NoteOnEvent(tick=160, channel=3, data=[40, 0]),
   midi.NoteOnEvent(tick=32, channel=3, data=[40, 110]),
   midi.NoteOnEvent(tick=94, channel=3, data=[40, 0]),
   midi.NoteOnEvent(tick=2, channel=3, data=[40, 110]),
   midi.NoteOnEvent(tick=94, channel=3, data=[40, 0]),
   midi.NoteOnEvent(tick=2, channel=3, data=[40, 110]),
   midi.NoteOnEvent(tick=94, channel=3, data=[40, 0]),
   midi.NoteOnEvent(tick=2, channel=3, data=[40, 110]),
   midi.NoteOnEvent(tick=94, channel=3, data=[40, 0]),
   midi.NoteOnEvent(tick=2, channel=3, data=[40, 110]),
   midi.NoteOnEvent(tick=94, channel=3, data=[40, 0]),
   midi.NoteOnEvent(tick=2, channel=3, data=[40, 110]),
   midi.NoteOnEvent(tick=94, channel=3, data=[40, 0]),
   midi.NoteOnEvent(tick=2, channel=3, data=[40, 110]),
   midi.NoteOnEvent(tick=160, channel=3, data=[40, 0]),
   midi.NoteOnEvent(tick=32, channel=3, data=[40, 110]),
   midi.NoteOnEvent(tick=94, channel=3, data=[40, 0]),
   midi.NoteOnEvent(tick=2, channel=3, data=[40, 110]),
   midi.NoteOnEvent(tick=94, channel=3, data=[40, 0]),
   midi.NoteOnEvent(tick=2, channel=3, data=[40, 110]),
   midi.NoteOnEvent(tick=94, channel=3, data=[40, 0]),
   midi.NoteOnEvent(tick=2, channel=3, data=[40, 110]),
   midi.NoteOnEvent(tick=94, channel=3, data=[40, 0]),
   midi.NoteOnEvent(tick=2, channel=3, data=[40, 110]),
   midi.NoteOnEvent(tick=94, channel=3, data=[40, 0]),
   midi.NoteOnEvent(tick=2, channel=3, data=[40, 110]),
   midi.NoteOnEvent(tick=94, channel=3, data=[40, 0]),
   midi.NoteOnEvent(tick=2, channel=3, data=[40, 110]),
   midi.NoteOnEvent(tick=160, channel=3, data=[40, 0]),
   midi.NoteOnEvent(tick=32, channel=3, data=[40, 110]),
   midi.NoteOnEvent(tick=94, channel=3, data=[40, 0]),
   midi.NoteOnEvent(tick=2, channel=3, data=[40, 110]),
   midi.NoteOnEvent(tick=94, channel=3, data=[40, 0]),
   midi.NoteOnEvent(tick=2, channel=3, data=[40, 110]),
   midi.NoteOnEvent(tick=94, channel=3, data=[40, 0]),
   midi.NoteOnEvent(tick=2, channel=3, data=[40, 110]),
   midi.NoteOnEvent(tick=94, channel=3, data=[40, 0]),
   midi.NoteOnEvent(tick=2, channel=3, data=[40, 110]),
   midi.NoteOnEvent(tick=94, channel=3, data=[40, 0]),
   midi.NoteOnEvent(tick=2, channel=3, data=[40, 110]),
   midi.NoteOnEvent(tick=94, channel=3, data=[40, 0]),
   midi.NoteOnEvent(tick=2, channel=3, data=[40, 110]),
   midi.NoteOnEvent(tick=160, channel=3, data=[40, 0]),
   midi.NoteOnEvent(tick=32, channel=3, data=[40, 110]),
   midi.NoteOnEvent(tick=94, channel=3, data=[40, 0]),
   midi.NoteOnEvent(tick=2, channel=3, data=[40, 110]),
   midi.NoteOnEvent(tick=94, channel=3, data=[40, 0]),
   midi.NoteOnEvent(tick=2, channel=3, data=[40, 110]),
   midi.NoteOnEvent(tick=94, channel=3, data=[40, 0]),
   midi.NoteOnEvent(tick=2, channel=3, data=[40, 110]),
   midi.NoteOnEvent(tick=94, channel=3, data=[40, 0]),
   midi.NoteOnEvent(tick=2, channel=3, data=[40, 110]),
   midi.NoteOnEvent(tick=94, channel=3, data=[40, 0]),
   midi.NoteOnEvent(tick=2, channel=3, data=[40, 110]),
   midi.NoteOnEvent(tick=94, channel=3, data=[40, 0]),
   midi.NoteOnEvent(tick=2, channel=3, data=[40, 110]),
   midi.NoteOnEvent(tick=160, channel=3, data=[40, 0]),
   midi.NoteOnEvent(tick=32, channel=3, data=[40, 110]),
   midi.NoteOnEvent(tick=94, channel=3, data=[40, 0]),
   midi.NoteOnEvent(tick=2, channel=3, data=[40, 110]),
   midi.NoteOnEvent(tick=94, channel=3, data=[40, 0]),
   midi.NoteOnEvent(tick=2, channel=3, data=[40, 110]),
   midi.NoteOnEvent(tick=94, channel=3, data=[40, 0]),
   midi.NoteOnEvent(tick=2, channel=3, data=[40, 110]),
   midi.NoteOnEvent(tick=94, channel=3, data=[40, 0]),
   midi.NoteOnEvent(tick=2, channel=3, data=[40, 110]),
   midi.NoteOnEvent(tick=94, channel=3, data=[40, 0]),
   midi.NoteOnEvent(tick=2, channel=3, data=[40, 110]),
   midi.NoteOnEvent(tick=94, channel=3, data=[40, 0]),
   midi.NoteOnEvent(tick=2, channel=3, data=[40, 110]),
   midi.NoteOnEvent(tick=160, channel=3, data=[40, 0]),
   midi.NoteOnEvent(tick=32, channel=3, data=[40, 110]),
   midi.NoteOnEvent(tick=94, channel=3, data=[40, 0]),
   midi.NoteOnEvent(tick=2, channel=3, data=[40, 110]),
   midi.NoteOnEvent(tick=94, channel=3, data=[40, 0]),
   midi.NoteOnEvent(tick=2, channel=3, data=[40, 110]),
   midi.NoteOnEvent(tick=94, channel=3, data=[40, 0]),
   midi.NoteOnEvent(tick=2, channel=3, data=[40, 110]),
   midi.NoteOnEvent(tick=94, channel=3, data=[40, 0]),
   midi.NoteOnEvent(tick=2, channel=3, data=[40, 110]),
   midi.NoteOnEvent(tick=94, channel=3, data=[40, 0]),
   midi.NoteOnEvent(tick=2, channel=3, data=[40, 110]),
   midi.NoteOnEvent(tick=94, channel=3, data=[40, 0]),
   midi.NoteOnEvent(tick=2, channel=3, data=[40, 110]),
   midi.NoteOnEvent(tick=160, channel=3, data=[40, 0]),
   midi.NoteOnEvent(tick=32, channel=3, data=[40, 110]),
   midi.NoteOnEvent(tick=94, channel=3, data=[40, 0]),
   midi.NoteOnEvent(tick=2, channel=3, data=[40, 110]),
   midi.NoteOnEvent(tick=94, channel=3, data=[40, 0]),
   midi.NoteOnEvent(tick=2, channel=3, data=[40, 110]),
   midi.NoteOnEvent(tick=94, channel=3, data=[40, 0]),
   midi.NoteOnEvent(tick=2, channel=3, data=[40, 110]),
   midi.NoteOnEvent(tick=94, channel=3, data=[40, 0]),
   midi.NoteOnEvent(tick=2, channel=3, data=[40, 110]),
   midi.NoteOnEvent(tick=94, channel=3, data=[40, 0]),
   midi.NoteOnEvent(tick=2, channel=3, data=[40, 110]),
   midi.NoteOnEvent(tick=94, channel=3, data=[40, 0]),
   midi.NoteOnEvent(tick=2, channel=3, data=[40, 110]),
   midi.NoteOnEvent(tick=160, channel=3, data=[40, 0]),
   midi.NoteOnEvent(tick=32, channel=3, data=[40, 110]),
   midi.NoteOnEvent(tick=94, channel=3, data=[40, 0]),
   midi.NoteOnEvent(tick=2, channel=3, data=[40, 110]),
   midi.NoteOnEvent(tick=94, channel=3, data=[40, 0]),
   midi.NoteOnEvent(tick=2, channel=3, data=[40, 110]),
   midi.NoteOnEvent(tick=94, channel=3, data=[40, 0]),
   midi.NoteOnEvent(tick=2, channel=3, data=[40, 110]),
   midi.NoteOnEvent(tick=94, channel=3, data=[40, 0]),
   midi.NoteOnEvent(tick=2, channel=3, data=[40, 110]),
   midi.NoteOnEvent(tick=94, channel=3, data=[40, 0]),
   midi.NoteOnEvent(tick=2, channel=3, data=[40, 110]),
   midi.NoteOnEvent(tick=94, channel=3, data=[40, 0]),
   midi.NoteOnEvent(tick=2, channel=3, data=[40, 110]),
   midi.NoteOnEvent(tick=160, channel=3, data=[40, 0]),
   midi.NoteOnEvent(tick=32, channel=3, data=[40, 110]),
   midi.NoteOnEvent(tick=94, channel=3, data=[40, 0]),
   midi.NoteOnEvent(tick=2, channel=3, data=[40, 110]),
   midi.NoteOnEvent(tick=94, channel=3, data=[40, 0]),
   midi.NoteOnEvent(tick=2, channel=3, data=[40, 110]),
   midi.NoteOnEvent(tick=94, channel=3, data=[40, 0]),
   midi.NoteOnEvent(tick=2, channel=3, data=[40, 110]),
   midi.NoteOnEvent(tick=94, channel=3, data=[40, 0]),
   midi.NoteOnEvent(tick=2, channel=3, data=[40, 110]),
   midi.NoteOnEvent(tick=94, channel=3, data=[40, 0]),
   midi.NoteOnEvent(tick=2, channel=3, data=[40, 110]),
   midi.NoteOnEvent(tick=94, channel=3, data=[40, 0]),
   midi.NoteOnEvent(tick=2, channel=3, data=[40, 110]),
   midi.NoteOnEvent(tick=160, channel=3, data=[40, 0]),
   midi.NoteOnEvent(tick=32, channel=3, data=[40, 110]),
   midi.NoteOnEvent(tick=94, channel=3, data=[40, 0]),
   midi.NoteOnEvent(tick=2, channel=3, data=[40, 110]),
   midi.NoteOnEvent(tick=94, channel=3, data=[40, 0]),
   midi.NoteOnEvent(tick=2, channel=3, data=[40, 110]),
   midi.NoteOnEvent(tick=94, channel=3, data=[40, 0]),
   midi.NoteOnEvent(tick=2, channel=3, data=[40, 110]),
   midi.NoteOnEvent(tick=94, channel=3, data=[40, 0]),
   midi.NoteOnEvent(tick=2, channel=3, data=[40, 110]),
   midi.NoteOnEvent(tick=94, channel=3, data=[40, 0]),
   midi.NoteOnEvent(tick=2, channel=3, data=[40, 110]),
   midi.NoteOnEvent(tick=94, channel=3, data=[40, 0]),
   midi.NoteOnEvent(tick=2, channel=3, data=[40, 110]),
   midi.NoteOnEvent(tick=160, channel=3, data=[40, 0]),
   midi.NoteOnEvent(tick=32, channel=3, data=[40, 110]),
   midi.NoteOnEvent(tick=94, channel=3, data=[40, 0]),
   midi.NoteOnEvent(tick=2, channel=3, data=[40, 110]),
   midi.NoteOnEvent(tick=94, channel=3, data=[40, 0]),
   midi.NoteOnEvent(tick=2, channel=3, data=[40, 110]),
   midi.NoteOnEvent(tick=94, channel=3, data=[40, 0]),
   midi.NoteOnEvent(tick=2, channel=3, data=[40, 110]),
   midi.NoteOnEvent(tick=94, channel=3, data=[40, 0]),
   midi.NoteOnEvent(tick=2, channel=3, data=[40, 110]),
   midi.NoteOnEvent(tick=94, channel=3, data=[40, 0]),
   midi.NoteOnEvent(tick=2, channel=3, data=[40, 110]),
   midi.NoteOnEvent(tick=94, channel=3, data=[40, 0]),
   midi.NoteOnEvent(tick=2, channel=3, data=[40, 110]),
   midi.NoteOnEvent(tick=160, channel=3, data=[40, 0]),
   midi.NoteOnEvent(tick=32, channel=3, data=[40, 110]),
   midi.NoteOnEvent(tick=94, channel=3, data=[40, 0]),
   midi.NoteOnEvent(tick=2, channel=3, data=[40, 110]),
   midi.NoteOnEvent(tick=94, channel=3, data=[40, 0]),
   midi.NoteOnEvent(tick=2, channel=3, data=[40, 110]),
   midi.NoteOnEvent(tick=94, channel=3, data=[40, 0]),
   midi.NoteOnEvent(tick=2, channel=3, data=[40, 110]),
   midi.NoteOnEvent(tick=94, channel=3, data=[40, 0]),
   midi.NoteOnEvent(tick=2, channel=3, data=[40, 110]),
   midi.NoteOnEvent(tick=94, channel=3, data=[40, 0]),
   midi.NoteOnEvent(tick=2, channel=3, data=[40, 110]),
   midi.NoteOnEvent(tick=94, channel=3, data=[40, 0]),
   midi.NoteOnEvent(tick=2, channel=3, data=[40, 110]),
   midi.NoteOnEvent(tick=160, channel=3, data=[40, 0]),
   midi.NoteOnEvent(tick=32, channel=3, data=[40, 110]),
   midi.NoteOnEvent(tick=94, channel=3, data=[40, 0]),
   midi.NoteOnEvent(tick=2, channel=3, data=[40, 110]),
   midi.NoteOnEvent(tick=94, channel=3, data=[40, 0]),
   midi.NoteOnEvent(tick=2, channel=3, data=[40, 110]),
   midi.NoteOnEvent(tick=94, channel=3, data=[40, 0]),
   midi.NoteOnEvent(tick=2, channel=3, data=[40, 110]),
   midi.NoteOnEvent(tick=94, channel=3, data=[40, 0]),
   midi.NoteOnEvent(tick=2, channel=3, data=[40, 110]),
   midi.NoteOnEvent(tick=94, channel=3, data=[40, 0]),
   midi.NoteOnEvent(tick=2, channel=3, data=[40, 110]),
   midi.NoteOnEvent(tick=94, channel=3, data=[40, 0]),
   midi.NoteOnEvent(tick=2, channel=3, data=[40, 110]),
   midi.NoteOnEvent(tick=160, channel=3, data=[40, 0]),
   midi.NoteOnEvent(tick=32, channel=3, data=[40, 110]),
   midi.NoteOnEvent(tick=94, channel=3, data=[40, 0]),
   midi.NoteOnEvent(tick=2, channel=3, data=[40, 110]),
   midi.NoteOnEvent(tick=94, channel=3, data=[40, 0]),
   midi.NoteOnEvent(tick=2, channel=3, data=[40, 110]),
   midi.NoteOnEvent(tick=94, channel=3, data=[40, 0]),
   midi.NoteOnEvent(tick=2, channel=3, data=[40, 110]),
   midi.NoteOnEvent(tick=94, channel=3, data=[40, 0]),
   midi.NoteOnEvent(tick=2, channel=3, data=[40, 110]),
   midi.NoteOnEvent(tick=94, channel=3, data=[40, 0]),
   midi.NoteOnEvent(tick=2, channel=3, data=[40, 110]),
   midi.NoteOnEvent(tick=94, channel=3, data=[40, 0]),
   midi.NoteOnEvent(tick=2, channel=3, data=[40, 110]),
   midi.NoteOnEvent(tick=160, channel=3, data=[40, 0]),
   midi.NoteOnEvent(tick=32, channel=3, data=[40, 110]),
   midi.NoteOnEvent(tick=94, channel=3, data=[40, 0]),
   midi.NoteOnEvent(tick=2, channel=3, data=[40, 110]),
   midi.NoteOnEvent(tick=94, channel=3, data=[40, 0]),
   midi.NoteOnEvent(tick=2, channel=3, data=[40, 110]),
   midi.NoteOnEvent(tick=94, channel=3, data=[40, 0]),
   midi.NoteOnEvent(tick=2, channel=3, data=[40, 110]),
   midi.NoteOnEvent(tick=94, channel=3, data=[40, 0]),
   midi.NoteOnEvent(tick=2, channel=3, data=[40, 110]),
   midi.NoteOnEvent(tick=94, channel=3, data=[40, 0]),
   midi.NoteOnEvent(tick=2, channel=3, data=[40, 110]),
   midi.NoteOnEvent(tick=94, channel=3, data=[40, 0]),
   midi.NoteOnEvent(tick=2, channel=3, data=[40, 110]),
   midi.NoteOnEvent(tick=160, channel=3, data=[40, 0]),
   midi.NoteOnEvent(tick=32, channel=3, data=[40, 110]),
   midi.NoteOnEvent(tick=94, channel=3, data=[40, 0]),
   midi.NoteOnEvent(tick=2, channel=3, data=[40, 110]),
   midi.NoteOnEvent(tick=94, channel=3, data=[40, 0]),
   midi.NoteOnEvent(tick=2, channel=3, data=[40, 110]),
   midi.NoteOnEvent(tick=94, channel=3, data=[40, 0]),
   midi.NoteOnEvent(tick=2, channel=3, data=[40, 110]),
   midi.NoteOnEvent(tick=94, channel=3, data=[40, 0]),
   midi.NoteOnEvent(tick=2, channel=3, data=[40, 110]),
   midi.NoteOnEvent(tick=94, channel=3, data=[40, 0]),
   midi.NoteOnEvent(tick=2, channel=3, data=[40, 110]),
   midi.NoteOnEvent(tick=94, channel=3, data=[40, 0]),
   midi.NoteOnEvent(tick=2, channel=3, data=[40, 110]),
   midi.NoteOnEvent(tick=160, channel=3, data=[40, 0]),
   midi.NoteOnEvent(tick=32, channel=3, data=[40, 110]),
   midi.NoteOnEvent(tick=94, channel=3, data=[40, 0]),
   midi.NoteOnEvent(tick=2, channel=3, data=[40, 110]),
   midi.NoteOnEvent(tick=94, channel=3, data=[40, 0]),
   midi.NoteOnEvent(tick=2, channel=3, data=[40, 110]),
   midi.NoteOnEvent(tick=94, channel=3, data=[40, 0]),
   midi.NoteOnEvent(tick=2, channel=3, data=[40, 110]),
   midi.NoteOnEvent(tick=94, channel=3, data=[40, 0]),
   midi.NoteOnEvent(tick=2, channel=3, data=[40, 110]),
   midi.NoteOnEvent(tick=94, channel=3, data=[40, 0]),
   midi.NoteOnEvent(tick=2, channel=3, data=[40, 110]),
   midi.NoteOnEvent(tick=94, channel=3, data=[40, 0]),
   midi.NoteOnEvent(tick=2, channel=3, data=[40, 110]),
   midi.NoteOnEvent(tick=160, channel=3, data=[40, 0]),
   midi.NoteOnEvent(tick=32, channel=3, data=[40, 110]),
   midi.NoteOnEvent(tick=94, channel=3, data=[40, 0]),
   midi.NoteOnEvent(tick=2, channel=3, data=[40, 110]),
   midi.NoteOnEvent(tick=94, channel=3, data=[40, 0]),
   midi.NoteOnEvent(tick=2, channel=3, data=[40, 110]),
   midi.NoteOnEvent(tick=94, channel=3, data=[40, 0]),
   midi.NoteOnEvent(tick=2, channel=3, data=[40, 110]),
   midi.NoteOnEvent(tick=94, channel=3, data=[40, 0]),
   midi.NoteOnEvent(tick=2, channel=3, data=[40, 110]),
   midi.NoteOnEvent(tick=94, channel=3, data=[40, 0]),
   midi.NoteOnEvent(tick=2, channel=3, data=[40, 110]),
   midi.NoteOnEvent(tick=94, channel=3, data=[40, 0]),
   midi.NoteOnEvent(tick=2, channel=3, data=[40, 110]),
   midi.NoteOnEvent(tick=160, channel=3, data=[40, 0]),
   midi.NoteOnEvent(tick=32, channel=3, data=[40, 110]),
   midi.NoteOnEvent(tick=94, channel=3, data=[40, 0]),
   midi.NoteOnEvent(tick=2, channel=3, data=[40, 110]),
   midi.NoteOnEvent(tick=94, channel=3, data=[40, 0]),
   midi.NoteOnEvent(tick=2, channel=3, data=[40, 110]),
   midi.NoteOnEvent(tick=94, channel=3, data=[40, 0]),
   midi.NoteOnEvent(tick=2, channel=3, data=[40, 110]),
   midi.NoteOnEvent(tick=94, channel=3, data=[40, 0]),
   midi.NoteOnEvent(tick=2, channel=3, data=[40, 110]),
   midi.NoteOnEvent(tick=94, channel=3, data=[40, 0]),
   midi.NoteOnEvent(tick=2, channel=3, data=[40, 110]),
   midi.NoteOnEvent(tick=94, channel=3, data=[40, 0]),
   midi.NoteOnEvent(tick=2, channel=3, data=[40, 110]),
   midi.NoteOnEvent(tick=160, channel=3, data=[40, 0]),
   midi.NoteOnEvent(tick=32, channel=3, data=[40, 110]),
   midi.NoteOnEvent(tick=94, channel=3, data=[40, 0]),
   midi.NoteOnEvent(tick=2, channel=3, data=[40, 110]),
   midi.NoteOnEvent(tick=94, channel=3, data=[40, 0]),
   midi.NoteOnEvent(tick=2, channel=3, data=[40, 110]),
   midi.NoteOnEvent(tick=94, channel=3, data=[40, 0]),
   midi.NoteOnEvent(tick=2, channel=3, data=[40, 110]),
   midi.NoteOnEvent(tick=94, channel=3, data=[40, 0]),
   midi.NoteOnEvent(tick=2, channel=3, data=[40, 110]),
   midi.NoteOnEvent(tick=94, channel=3, data=[40, 0]),
   midi.NoteOnEvent(tick=2, channel=3, data=[40, 110]),
   midi.NoteOnEvent(tick=94, channel=3, data=[40, 0]),
   midi.NoteOnEvent(tick=2, channel=3, data=[40, 110]),
   midi.NoteOnEvent(tick=160, channel=3, data=[40, 0]),
   midi.NoteOnEvent(tick=32, channel=3, data=[40, 110]),
   midi.NoteOnEvent(tick=94, channel=3, data=[40, 0]),
   midi.NoteOnEvent(tick=2, channel=3, data=[40, 110]),
   midi.NoteOnEvent(tick=94, channel=3, data=[40, 0]),
   midi.NoteOnEvent(tick=2, channel=3, data=[40, 110]),
   midi.NoteOnEvent(tick=94, channel=3, data=[40, 0]),
   midi.NoteOnEvent(tick=2, channel=3, data=[40, 110]),
   midi.NoteOnEvent(tick=94, channel=3, data=[40, 0]),
   midi.NoteOnEvent(tick=2, channel=3, data=[40, 110]),
   midi.NoteOnEvent(tick=94, channel=3, data=[40, 0]),
   midi.NoteOnEvent(tick=2, channel=3, data=[40, 110]),
   midi.NoteOnEvent(tick=94, channel=3, data=[40, 0]),
   midi.NoteOnEvent(tick=2, channel=3, data=[40, 110]),
   midi.NoteOnEvent(tick=160, channel=3, data=[40, 0]),
   midi.NoteOnEvent(tick=32, channel=3, data=[40, 110]),
   midi.NoteOnEvent(tick=94, channel=3, data=[40, 0]),
   midi.NoteOnEvent(tick=2, channel=3, data=[40, 110]),
   midi.NoteOnEvent(tick=94, channel=3, data=[40, 0]),
   midi.NoteOnEvent(tick=2, channel=3, data=[40, 110]),
   midi.NoteOnEvent(tick=94, channel=3, data=[40, 0]),
   midi.NoteOnEvent(tick=2, channel=3, data=[40, 110]),
   midi.NoteOnEvent(tick=94, channel=3, data=[40, 0]),
   midi.NoteOnEvent(tick=2, channel=3, data=[40, 110]),
   midi.NoteOnEvent(tick=94, channel=3, data=[40, 0]),
   midi.NoteOnEvent(tick=2, channel=3, data=[40, 110]),
   midi.NoteOnEvent(tick=94, channel=3, data=[40, 0]),
   midi.NoteOnEvent(tick=2, channel=3, data=[40, 110]),
   midi.NoteOnEvent(tick=160, channel=3, data=[40, 0]),
   midi.NoteOnEvent(tick=32, channel=3, data=[40, 110]),
   midi.NoteOnEvent(tick=94, channel=3, data=[40, 0]),
   midi.NoteOnEvent(tick=2, channel=3, data=[40, 110]),
   midi.NoteOnEvent(tick=94, channel=3, data=[40, 0]),
   midi.NoteOnEvent(tick=2, channel=3, data=[40, 110]),
   midi.NoteOnEvent(tick=94, channel=3, data=[40, 0]),
   midi.NoteOnEvent(tick=2, channel=3, data=[40, 110]),
   midi.NoteOnEvent(tick=94, channel=3, data=[40, 0]),
   midi.NoteOnEvent(tick=2, channel=3, data=[40, 110]),
   midi.NoteOnEvent(tick=94, channel=3, data=[40, 0]),
   midi.NoteOnEvent(tick=2, channel=3, data=[40, 110]),
   midi.NoteOnEvent(tick=94, channel=3, data=[40, 0]),
   midi.NoteOnEvent(tick=2, channel=3, data=[40, 110]),
   midi.NoteOnEvent(tick=160, channel=3, data=[40, 0]),
   midi.NoteOnEvent(tick=32, channel=3, data=[40, 110]),
   midi.NoteOnEvent(tick=94, channel=3, data=[40, 0]),
   midi.NoteOnEvent(tick=2, channel=3, data=[40, 110]),
   midi.NoteOnEvent(tick=94, channel=3, data=[40, 0]),
   midi.NoteOnEvent(tick=2, channel=3, data=[40, 110]),
   midi.NoteOnEvent(tick=94, channel=3, data=[40, 0]),
   midi.NoteOnEvent(tick=2, channel=3, data=[40, 110]),
   midi.NoteOnEvent(tick=94, channel=3, data=[40, 0]),
   midi.NoteOnEvent(tick=2, channel=3, data=[40, 110]),
   midi.NoteOnEvent(tick=94, channel=3, data=[40, 0]),
   midi.NoteOnEvent(tick=2, channel=3, data=[40, 110]),
   midi.NoteOnEvent(tick=94, channel=3, data=[40, 0]),
   midi.NoteOnEvent(tick=2, channel=3, data=[48, 110]),
   midi.NoteOnEvent(tick=160, channel=3, data=[48, 0]),
   midi.NoteOnEvent(tick=32, channel=3, data=[48, 110]),
   midi.NoteOnEvent(tick=94, channel=3, data=[48, 0]),
   midi.NoteOnEvent(tick=2, channel=3, data=[48, 110]),
   midi.NoteOnEvent(tick=94, channel=3, data=[48, 0]),
   midi.NoteOnEvent(tick=2, channel=3, data=[48, 110]),
   midi.NoteOnEvent(tick=160, channel=3, data=[48, 0]),
   midi.NoteOnEvent(tick=32, channel=3, data=[48, 110]),
   midi.NoteOnEvent(tick=94, channel=3, data=[48, 0]),
   midi.NoteOnEvent(tick=2, channel=3, data=[48, 110]),
   midi.NoteOnEvent(tick=94, channel=3, data=[48, 0]),
   midi.NoteOnEvent(tick=2, channel=3, data=[48, 110]),
   midi.NoteOnEvent(tick=160, channel=3, data=[48, 0]),
   midi.NoteOnEvent(tick=32, channel=3, data=[48, 110]),
   midi.NoteOnEvent(tick=94, channel=3, data=[48, 0]),
   midi.NoteOnEvent(tick=2, channel=3, data=[48, 110]),
   midi.NoteOnEvent(tick=94, channel=3, data=[48, 0]),
   midi.NoteOnEvent(tick=2, channel=3, data=[48, 110]),
   midi.NoteOnEvent(tick=94, channel=3, data=[48, 0]),
   midi.NoteOnEvent(tick=2, channel=3, data=[50, 110]),
   midi.NoteOnEvent(tick=256, channel=3, data=[50, 0]),
   midi.NoteOnEvent(tick=32, channel=3, data=[48, 110]),
   midi.NoteOnEvent(tick=160, channel=3, data=[48, 0]),
   midi.NoteOnEvent(tick=32, channel=3, data=[48, 110]),
   midi.NoteOnEvent(tick=94, channel=3, data=[48, 0]),
   midi.NoteOnEvent(tick=2, channel=3, data=[48, 110]),
   midi.NoteOnEvent(tick=94, channel=3, data=[48, 0]),
   midi.NoteOnEvent(tick=2, channel=3, data=[48, 110]),
   midi.NoteOnEvent(tick=160, channel=3, data=[48, 0]),
   midi.NoteOnEvent(tick=32, channel=3, data=[48, 110]),
   midi.NoteOnEvent(tick=94, channel=3, data=[48, 0]),
   midi.NoteOnEvent(tick=2, channel=3, data=[48, 110]),
   midi.NoteOnEvent(tick=94, channel=3, data=[48, 0]),
   midi.NoteOnEvent(tick=2, channel=3, data=[48, 110]),
   midi.NoteOnEvent(tick=160, channel=3, data=[48, 0]),
   midi.NoteOnEvent(tick=32, channel=3, data=[48, 110]),
   midi.NoteOnEvent(tick=94, channel=3, data=[48, 0]),
   midi.NoteOnEvent(tick=2, channel=3, data=[48, 110]),
   midi.NoteOnEvent(tick=94, channel=3, data=[48, 0]),
   midi.NoteOnEvent(tick=2, channel=3, data=[48, 110]),
   midi.NoteOnEvent(tick=160, channel=3, data=[48, 0]),
   midi.NoteOnEvent(tick=32, channel=3, data=[48, 110]),
   midi.NoteOnEvent(tick=94, channel=3, data=[48, 0]),
   midi.NoteOnEvent(tick=2, channel=3, data=[48, 110]),
   midi.NoteOnEvent(tick=94, channel=3, data=[48, 0]),
   midi.NoteOnEvent(tick=2, channel=3, data=[40, 110]),
   midi.NoteOnEvent(tick=160, channel=3, data=[40, 0]),
   midi.NoteOnEvent(tick=32, channel=3, data=[40, 110]),
   midi.NoteOnEvent(tick=94, channel=3, data=[40, 0]),
   midi.NoteOnEvent(tick=2, channel=3, data=[40, 110]),
   midi.NoteOnEvent(tick=94, channel=3, data=[40, 0]),
   midi.NoteOnEvent(tick=2, channel=3, data=[40, 110]),
   midi.NoteOnEvent(tick=94, channel=3, data=[40, 0]),
   midi.NoteOnEvent(tick=2, channel=3, data=[40, 110]),
   midi.NoteOnEvent(tick=94, channel=3, data=[40, 0]),
   midi.NoteOnEvent(tick=2, channel=3, data=[40, 110]),
   midi.NoteOnEvent(tick=94, channel=3, data=[40, 0]),
   midi.NoteOnEvent(tick=2, channel=3, data=[40, 110]),
   midi.NoteOnEvent(tick=94, channel=3, data=[40, 0]),
   midi.NoteOnEvent(tick=2, channel=3, data=[40, 110]),
   midi.NoteOnEvent(tick=160, channel=3, data=[40, 0]),
   midi.NoteOnEvent(tick=32, channel=3, data=[40, 110]),
   midi.NoteOnEvent(tick=94, channel=3, data=[40, 0]),
   midi.NoteOnEvent(tick=2, channel=3, data=[40, 110]),
   midi.NoteOnEvent(tick=94, channel=3, data=[40, 0]),
   midi.NoteOnEvent(tick=2, channel=3, data=[40, 110]),
   midi.NoteOnEvent(tick=94, channel=3, data=[40, 0]),
   midi.NoteOnEvent(tick=2, channel=3, data=[40, 110]),
   midi.NoteOnEvent(tick=94, channel=3, data=[40, 0]),
   midi.NoteOnEvent(tick=2, channel=3, data=[40, 110]),
   midi.NoteOnEvent(tick=94, channel=3, data=[40, 0]),
   midi.NoteOnEvent(tick=2, channel=3, data=[40, 110]),
   midi.NoteOnEvent(tick=94, channel=3, data=[40, 0]),
   midi.NoteOnEvent(tick=2, channel=3, data=[40, 110]),
   midi.NoteOnEvent(tick=160, channel=3, data=[40, 0]),
   midi.NoteOnEvent(tick=32, channel=3, data=[40, 110]),
   midi.NoteOnEvent(tick=94, channel=3, data=[40, 0]),
   midi.NoteOnEvent(tick=2, channel=3, data=[40, 110]),
   midi.NoteOnEvent(tick=94, channel=3, data=[40, 0]),
   midi.NoteOnEvent(tick=2, channel=3, data=[40, 110]),
   midi.NoteOnEvent(tick=94, channel=3, data=[40, 0]),
   midi.NoteOnEvent(tick=2, channel=3, data=[40, 110]),
   midi.NoteOnEvent(tick=94, channel=3, data=[40, 0]),
   midi.NoteOnEvent(tick=2, channel=3, data=[40, 110]),
   midi.NoteOnEvent(tick=94, channel=3, data=[40, 0]),
   midi.NoteOnEvent(tick=2, channel=3, data=[40, 110]),
   midi.NoteOnEvent(tick=94, channel=3, data=[40, 0]),
   midi.NoteOnEvent(tick=2, channel=3, data=[40, 110]),
   midi.NoteOnEvent(tick=160, channel=3, data=[40, 0]),
   midi.NoteOnEvent(tick=32, channel=3, data=[40, 110]),
   midi.NoteOnEvent(tick=94, channel=3, data=[40, 0]),
   midi.NoteOnEvent(tick=2, channel=3, data=[40, 110]),
   midi.NoteOnEvent(tick=94, channel=3, data=[40, 0]),
   midi.NoteOnEvent(tick=2, channel=3, data=[40, 110]),
   midi.NoteOnEvent(tick=94, channel=3, data=[40, 0]),
   midi.NoteOnEvent(tick=2, channel=3, data=[40, 110]),
   midi.NoteOnEvent(tick=94, channel=3, data=[40, 0]),
   midi.NoteOnEvent(tick=2, channel=3, data=[40, 110]),
   midi.NoteOnEvent(tick=94, channel=3, data=[40, 0]),
   midi.NoteOnEvent(tick=2, channel=3, data=[40, 110]),
   midi.NoteOnEvent(tick=94, channel=3, data=[40, 0]),
   midi.NoteOnEvent(tick=2, channel=3, data=[48, 110]),
   midi.NoteOnEvent(tick=160, channel=3, data=[48, 0]),
   midi.NoteOnEvent(tick=32, channel=3, data=[48, 110]),
   midi.NoteOnEvent(tick=94, channel=3, data=[48, 0]),
   midi.NoteOnEvent(tick=2, channel=3, data=[48, 110]),
   midi.NoteOnEvent(tick=94, channel=3, data=[48, 0]),
   midi.NoteOnEvent(tick=2, channel=3, data=[48, 110]),
   midi.NoteOnEvent(tick=160, channel=3, data=[48, 0]),
   midi.NoteOnEvent(tick=32, channel=3, data=[48, 110]),
   midi.NoteOnEvent(tick=94, channel=3, data=[48, 0]),
   midi.NoteOnEvent(tick=2, channel=3, data=[48, 110]),
   midi.NoteOnEvent(tick=94, channel=3, data=[48, 0]),
   midi.NoteOnEvent(tick=2, channel=3, data=[48, 110]),
   midi.NoteOnEvent(tick=160, channel=3, data=[48, 0]),
   midi.NoteOnEvent(tick=32, channel=3, data=[48, 110]),
   midi.NoteOnEvent(tick=94, channel=3, data=[48, 0]),
   midi.NoteOnEvent(tick=2, channel=3, data=[48, 110]),
   midi.NoteOnEvent(tick=94, channel=3, data=[48, 0]),
   midi.NoteOnEvent(tick=2, channel=3, data=[48, 110]),
   midi.NoteOnEvent(tick=94, channel=3, data=[48, 0]),
   midi.NoteOnEvent(tick=2, channel=3, data=[50, 110]),
   midi.NoteOnEvent(tick=256, channel=3, data=[50, 0]),
   midi.NoteOnEvent(tick=32, channel=3, data=[48, 110]),
   midi.NoteOnEvent(tick=160, channel=3, data=[48, 0]),
   midi.NoteOnEvent(tick=32, channel=3, data=[48, 110]),
   midi.NoteOnEvent(tick=94, channel=3, data=[48, 0]),
   midi.NoteOnEvent(tick=2, channel=3, data=[48, 110]),
   midi.NoteOnEvent(tick=94, channel=3, data=[48, 0]),
   midi.NoteOnEvent(tick=2, channel=3, data=[48, 110]),
   midi.NoteOnEvent(tick=160, channel=3, data=[48, 0]),
   midi.NoteOnEvent(tick=32, channel=3, data=[48, 110]),
   midi.NoteOnEvent(tick=94, channel=3, data=[48, 0]),
   midi.NoteOnEvent(tick=2, channel=3, data=[48, 110]),
   midi.NoteOnEvent(tick=94, channel=3, data=[48, 0]),
   midi.NoteOnEvent(tick=2, channel=3, data=[48, 110]),
   midi.NoteOnEvent(tick=160, channel=3, data=[48, 0]),
   midi.NoteOnEvent(tick=32, channel=3, data=[48, 110]),
   midi.NoteOnEvent(tick=94, channel=3, data=[48, 0]),
   midi.NoteOnEvent(tick=2, channel=3, data=[48, 110]),
   midi.NoteOnEvent(tick=94, channel=3, data=[48, 0]),
   midi.NoteOnEvent(tick=2, channel=3, data=[48, 110]),
   midi.NoteOnEvent(tick=160, channel=3, data=[48, 0]),
   midi.NoteOnEvent(tick=32, channel=3, data=[48, 110]),
   midi.NoteOnEvent(tick=94, channel=3, data=[48, 0]),
   midi.NoteOnEvent(tick=2, channel=3, data=[48, 110]),
   midi.NoteOnEvent(tick=94, channel=3, data=[48, 0]),
   midi.NoteOnEvent(tick=2, channel=3, data=[40, 110]),
   midi.NoteOnEvent(tick=160, channel=3, data=[40, 0]),
   midi.NoteOnEvent(tick=32, channel=3, data=[40, 110]),
   midi.NoteOnEvent(tick=94, channel=3, data=[40, 0]),
   midi.NoteOnEvent(tick=2, channel=3, data=[40, 110]),
   midi.NoteOnEvent(tick=94, channel=3, data=[40, 0]),
   midi.NoteOnEvent(tick=2, channel=3, data=[40, 110]),
   midi.NoteOnEvent(tick=94, channel=3, data=[40, 0]),
   midi.NoteOnEvent(tick=2, channel=3, data=[40, 110]),
   midi.NoteOnEvent(tick=94, channel=3, data=[40, 0]),
   midi.NoteOnEvent(tick=2, channel=3, data=[40, 110]),
   midi.NoteOnEvent(tick=94, channel=3, data=[40, 0]),
   midi.NoteOnEvent(tick=2, channel=3, data=[40, 110]),
   midi.NoteOnEvent(tick=94, channel=3, data=[40, 0]),
   midi.NoteOnEvent(tick=2, channel=3, data=[40, 110]),
   midi.NoteOnEvent(tick=160, channel=3, data=[40, 0]),
   midi.NoteOnEvent(tick=32, channel=3, data=[40, 110]),
   midi.NoteOnEvent(tick=94, channel=3, data=[40, 0]),
   midi.NoteOnEvent(tick=2, channel=3, data=[40, 110]),
   midi.NoteOnEvent(tick=94, channel=3, data=[40, 0]),
   midi.NoteOnEvent(tick=2, channel=3, data=[40, 110]),
   midi.NoteOnEvent(tick=94, channel=3, data=[40, 0]),
   midi.NoteOnEvent(tick=2, channel=3, data=[40, 110]),
   midi.NoteOnEvent(tick=94, channel=3, data=[40, 0]),
   midi.NoteOnEvent(tick=2, channel=3, data=[40, 110]),
   midi.NoteOnEvent(tick=94, channel=3, data=[40, 0]),
   midi.NoteOnEvent(tick=2, channel=3, data=[40, 110]),
   midi.NoteOnEvent(tick=94, channel=3, data=[40, 0]),
   midi.NoteOnEvent(tick=2, channel=3, data=[40, 110]),
   midi.NoteOnEvent(tick=160, channel=3, data=[40, 0]),
   midi.NoteOnEvent(tick=32, channel=3, data=[40, 110]),
   midi.NoteOnEvent(tick=94, channel=3, data=[40, 0]),
   midi.NoteOnEvent(tick=2, channel=3, data=[40, 110]),
   midi.NoteOnEvent(tick=94, channel=3, data=[40, 0]),
   midi.NoteOnEvent(tick=2, channel=3, data=[40, 110]),
   midi.NoteOnEvent(tick=94, channel=3, data=[40, 0]),
   midi.NoteOnEvent(tick=2, channel=3, data=[40, 110]),
   midi.NoteOnEvent(tick=94, channel=3, data=[40, 0]),
   midi.NoteOnEvent(tick=2, channel=3, data=[40, 110]),
   midi.NoteOnEvent(tick=94, channel=3, data=[40, 0]),
   midi.NoteOnEvent(tick=2, channel=3, data=[40, 110]),
   midi.NoteOnEvent(tick=94, channel=3, data=[40, 0]),
   midi.NoteOnEvent(tick=2, channel=3, data=[40, 110]),
   midi.NoteOnEvent(tick=160, channel=3, data=[40, 0]),
   midi.NoteOnEvent(tick=32, channel=3, data=[40, 110]),
   midi.NoteOnEvent(tick=94, channel=3, data=[40, 0]),
   midi.NoteOnEvent(tick=2, channel=3, data=[40, 110]),
   midi.NoteOnEvent(tick=94, channel=3, data=[40, 0]),
   midi.NoteOnEvent(tick=2, channel=3, data=[40, 110]),
   midi.NoteOnEvent(tick=94, channel=3, data=[40, 0]),
   midi.NoteOnEvent(tick=2, channel=3, data=[40, 110]),
   midi.NoteOnEvent(tick=94, channel=3, data=[40, 0]),
   midi.NoteOnEvent(tick=2, channel=3, data=[40, 110]),
   midi.NoteOnEvent(tick=94, channel=3, data=[40, 0]),
   midi.NoteOnEvent(tick=2, channel=3, data=[40, 110]),
   midi.NoteOnEvent(tick=94, channel=3, data=[40, 0]),
   midi.NoteOnEvent(tick=2, channel=3, data=[48, 110]),
   midi.NoteOnEvent(tick=160, channel=3, data=[48, 0]),
   midi.NoteOnEvent(tick=32, channel=3, data=[48, 110]),
   midi.NoteOnEvent(tick=94, channel=3, data=[48, 0]),
   midi.NoteOnEvent(tick=2, channel=3, data=[48, 110]),
   midi.NoteOnEvent(tick=94, channel=3, data=[48, 0]),
   midi.NoteOnEvent(tick=2, channel=3, data=[48, 110]),
   midi.NoteOnEvent(tick=94, channel=3, data=[48, 0]),
   midi.NoteOnEvent(tick=2, channel=3, data=[48, 110]),
   midi.NoteOnEvent(tick=94, channel=3, data=[48, 0]),
   midi.NoteOnEvent(tick=2, channel=3, data=[48, 110]),
   midi.NoteOnEvent(tick=94, channel=3, data=[48, 0]),
   midi.NoteOnEvent(tick=2, channel=3, data=[48, 110]),
   midi.NoteOnEvent(tick=94, channel=3, data=[48, 0]),
   midi.NoteOnEvent(tick=2, channel=3, data=[48, 110]),
   midi.NoteOnEvent(tick=94, channel=3, data=[48, 0]),
   midi.NoteOnEvent(tick=2, channel=3, data=[48, 110]),
   midi.NoteOnEvent(tick=94, channel=3, data=[48, 0]),
   midi.NoteOnEvent(tick=2, channel=3, data=[48, 110]),
   midi.NoteOnEvent(tick=94, channel=3, data=[48, 0]),
   midi.NoteOnEvent(tick=2, channel=3, data=[48, 110]),
   midi.NoteOnEvent(tick=94, channel=3, data=[48, 0]),
   midi.NoteOnEvent(tick=2, channel=3, data=[48, 110]),
   midi.NoteOnEvent(tick=94, channel=3, data=[48, 0]),
   midi.NoteOnEvent(tick=2, channel=3, data=[48, 110]),
   midi.NoteOnEvent(tick=94, channel=3, data=[48, 0]),
   midi.NoteOnEvent(tick=2, channel=3, data=[48, 110]),
   midi.NoteOnEvent(tick=94, channel=3, data=[48, 0]),
   midi.NoteOnEvent(tick=2, channel=3, data=[48, 110]),
   midi.NoteOnEvent(tick=94, channel=3, data=[48, 0]),
   midi.NoteOnEvent(tick=2, channel=3, data=[48, 110]),
   midi.NoteOnEvent(tick=160, channel=3, data=[48, 0]),
   midi.NoteOnEvent(tick=32, channel=3, data=[48, 110]),
   midi.NoteOnEvent(tick=94, channel=3, data=[48, 0]),
   midi.NoteOnEvent(tick=2, channel=3, data=[48, 110]),
   midi.NoteOnEvent(tick=94, channel=3, data=[48, 0]),
   midi.NoteOnEvent(tick=2, channel=3, data=[48, 110]),
   midi.NoteOnEvent(tick=94, channel=3, data=[48, 0]),
   midi.NoteOnEvent(tick=2, channel=3, data=[48, 110]),
   midi.NoteOnEvent(tick=94, channel=3, data=[48, 0]),
   midi.NoteOnEvent(tick=2, channel=3, data=[48, 110]),
   midi.NoteOnEvent(tick=94, channel=3, data=[48, 0]),
   midi.NoteOnEvent(tick=2, channel=3, data=[48, 110]),
   midi.NoteOnEvent(tick=94, channel=3, data=[48, 0]),
   midi.NoteOnEvent(tick=2, channel=3, data=[48, 110]),
   midi.NoteOnEvent(tick=94, channel=3, data=[48, 0]),
   midi.NoteOnEvent(tick=2, channel=3, data=[48, 110]),
   midi.NoteOnEvent(tick=94, channel=3, data=[48, 0]),
   midi.NoteOnEvent(tick=2, channel=3, data=[48, 110]),
   midi.NoteOnEvent(tick=94, channel=3, data=[48, 0]),
   midi.NoteOnEvent(tick=2, channel=3, data=[48, 110]),
   midi.NoteOnEvent(tick=94, channel=3, data=[48, 0]),
   midi.NoteOnEvent(tick=2, channel=3, data=[48, 110]),
   midi.NoteOnEvent(tick=94, channel=3, data=[48, 0]),
   midi.NoteOnEvent(tick=2, channel=3, data=[48, 110]),
   midi.NoteOnEvent(tick=94, channel=3, data=[48, 0]),
   midi.NoteOnEvent(tick=2, channel=3, data=[48, 110]),
   midi.NoteOnEvent(tick=94, channel=3, data=[48, 0]),
   midi.NoteOnEvent(tick=2, channel=3, data=[48, 110]),
   midi.NoteOnEvent(tick=94, channel=3, data=[48, 0]),
   midi.NoteOnEvent(tick=2, channel=3, data=[40, 110]),
   midi.NoteOnEvent(tick=160, channel=3, data=[40, 0]),
   midi.NoteOnEvent(tick=32, channel=3, data=[40, 110]),
   midi.NoteOnEvent(tick=94, channel=3, data=[40, 0]),
   midi.NoteOnEvent(tick=2, channel=3, data=[40, 110]),
   midi.NoteOnEvent(tick=94, channel=3, data=[40, 0]),
   midi.NoteOnEvent(tick=2, channel=3, data=[40, 110]),
   midi.NoteOnEvent(tick=94, channel=3, data=[40, 0]),
   midi.NoteOnEvent(tick=2, channel=3, data=[40, 110]),
   midi.NoteOnEvent(tick=94, channel=3, data=[40, 0]),
   midi.NoteOnEvent(tick=2, channel=3, data=[40, 110]),
   midi.NoteOnEvent(tick=94, channel=3, data=[40, 0]),
   midi.NoteOnEvent(tick=2, channel=3, data=[40, 110]),
   midi.NoteOnEvent(tick=94, channel=3, data=[40, 0]),
   midi.NoteOnEvent(tick=2, channel=3, data=[40, 110]),
   midi.NoteOnEvent(tick=160, channel=3, data=[40, 0]),
   midi.NoteOnEvent(tick=32, channel=3, data=[40, 110]),
   midi.NoteOnEvent(tick=94, channel=3, data=[40, 0]),
   midi.NoteOnEvent(tick=2, channel=3, data=[40, 110]),
   midi.NoteOnEvent(tick=94, channel=3, data=[40, 0]),
   midi.NoteOnEvent(tick=2, channel=3, data=[40, 110]),
   midi.NoteOnEvent(tick=94, channel=3, data=[40, 0]),
   midi.NoteOnEvent(tick=2, channel=3, data=[40, 110]),
   midi.NoteOnEvent(tick=94, channel=3, data=[40, 0]),
   midi.NoteOnEvent(tick=2, channel=3, data=[40, 110]),
   midi.NoteOnEvent(tick=94, channel=3, data=[40, 0]),
   midi.NoteOnEvent(tick=2, channel=3, data=[40, 110]),
   midi.NoteOnEvent(tick=94, channel=3, data=[40, 0]),
   midi.NoteOnEvent(tick=2, channel=3, data=[40, 110]),
   midi.NoteOnEvent(tick=160, channel=3, data=[40, 0]),
   midi.NoteOnEvent(tick=32, channel=3, data=[40, 110]),
   midi.NoteOnEvent(tick=94, channel=3, data=[40, 0]),
   midi.NoteOnEvent(tick=2, channel=3, data=[40, 110]),
   midi.NoteOnEvent(tick=94, channel=3, data=[40, 0]),
   midi.NoteOnEvent(tick=2, channel=3, data=[40, 110]),
   midi.NoteOnEvent(tick=94, channel=3, data=[40, 0]),
   midi.NoteOnEvent(tick=2, channel=3, data=[40, 110]),
   midi.NoteOnEvent(tick=94, channel=3, data=[40, 0]),
   midi.NoteOnEvent(tick=2, channel=3, data=[40, 110]),
   midi.NoteOnEvent(tick=94, channel=3, data=[40, 0]),
   midi.NoteOnEvent(tick=2, channel=3, data=[40, 110]),
   midi.NoteOnEvent(tick=94, channel=3, data=[40, 0]),
   midi.NoteOnEvent(tick=2, channel=3, data=[40, 110]),
   midi.NoteOnEvent(tick=160, channel=3, data=[40, 0]),
   midi.NoteOnEvent(tick=32, channel=3, data=[40, 110]),
   midi.NoteOnEvent(tick=94, channel=3, data=[40, 0]),
   midi.NoteOnEvent(tick=2, channel=3, data=[40, 110]),
   midi.NoteOnEvent(tick=94, channel=3, data=[40, 0]),
   midi.NoteOnEvent(tick=2, channel=3, data=[40, 110]),
   midi.NoteOnEvent(tick=94, channel=3, data=[40, 0]),
   midi.NoteOnEvent(tick=2, channel=3, data=[40, 110]),
   midi.NoteOnEvent(tick=94, channel=3, data=[40, 0]),
   midi.NoteOnEvent(tick=2, channel=3, data=[40, 110]),
   midi.NoteOnEvent(tick=94, channel=3, data=[40, 0]),
   midi.NoteOnEvent(tick=2, channel=3, data=[40, 110]),
   midi.NoteOnEvent(tick=94, channel=3, data=[40, 0]),
   midi.NoteOnEvent(tick=2, channel=3, data=[48, 110]),
   midi.NoteOnEvent(tick=160, channel=3, data=[48, 0]),
   midi.NoteOnEvent(tick=32, channel=3, data=[48, 110]),
   midi.NoteOnEvent(tick=94, channel=3, data=[48, 0]),
   midi.NoteOnEvent(tick=2, channel=3, data=[48, 110]),
   midi.NoteOnEvent(tick=94, channel=3, data=[48, 0]),
   midi.NoteOnEvent(tick=2, channel=3, data=[48, 110]),
   midi.NoteOnEvent(tick=94, channel=3, data=[48, 0]),
   midi.NoteOnEvent(tick=2, channel=3, data=[48, 110]),
   midi.NoteOnEvent(tick=94, channel=3, data=[48, 0]),
   midi.NoteOnEvent(tick=2, channel=3, data=[48, 110]),
   midi.NoteOnEvent(tick=94, channel=3, data=[48, 0]),
   midi.NoteOnEvent(tick=2, channel=3, data=[48, 110]),
   midi.NoteOnEvent(tick=94, channel=3, data=[48, 0]),
   midi.NoteOnEvent(tick=2, channel=3, data=[48, 110]),
   midi.NoteOnEvent(tick=94, channel=3, data=[48, 0]),
   midi.NoteOnEvent(tick=2, channel=3, data=[48, 110]),
   midi.NoteOnEvent(tick=94, channel=3, data=[48, 0]),
   midi.NoteOnEvent(tick=2, channel=3, data=[48, 110]),
   midi.NoteOnEvent(tick=94, channel=3, data=[48, 0]),
   midi.NoteOnEvent(tick=2, channel=3, data=[48, 110]),
   midi.NoteOnEvent(tick=94, channel=3, data=[48, 0]),
   midi.NoteOnEvent(tick=2, channel=3, data=[48, 110]),
   midi.NoteOnEvent(tick=94, channel=3, data=[48, 0]),
   midi.NoteOnEvent(tick=2, channel=3, data=[48, 110]),
   midi.NoteOnEvent(tick=94, channel=3, data=[48, 0]),
   midi.NoteOnEvent(tick=2, channel=3, data=[48, 110]),
   midi.NoteOnEvent(tick=94, channel=3, data=[48, 0]),
   midi.NoteOnEvent(tick=2, channel=3, data=[48, 110]),
   midi.NoteOnEvent(tick=94, channel=3, data=[48, 0]),
   midi.NoteOnEvent(tick=2, channel=3, data=[48, 110]),
   midi.NoteOnEvent(tick=160, channel=3, data=[48, 0]),
   midi.NoteOnEvent(tick=32, channel=3, data=[48, 110]),
   midi.NoteOnEvent(tick=94, channel=3, data=[48, 0]),
   midi.NoteOnEvent(tick=2, channel=3, data=[48, 110]),
   midi.NoteOnEvent(tick=94, channel=3, data=[48, 0]),
   midi.NoteOnEvent(tick=2, channel=3, data=[48, 110]),
   midi.NoteOnEvent(tick=94, channel=3, data=[48, 0]),
   midi.NoteOnEvent(tick=2, channel=3, data=[48, 110]),
   midi.NoteOnEvent(tick=94, channel=3, data=[48, 0]),
   midi.NoteOnEvent(tick=2, channel=3, data=[48, 110]),
   midi.NoteOnEvent(tick=94, channel=3, data=[48, 0]),
   midi.NoteOnEvent(tick=2, channel=3, data=[48, 110]),
   midi.NoteOnEvent(tick=94, channel=3, data=[48, 0]),
   midi.NoteOnEvent(tick=2, channel=3, data=[48, 110]),
   midi.NoteOnEvent(tick=94, channel=3, data=[48, 0]),
   midi.NoteOnEvent(tick=2, channel=3, data=[48, 110]),
   midi.NoteOnEvent(tick=94, channel=3, data=[48, 0]),
   midi.NoteOnEvent(tick=2, channel=3, data=[48, 110]),
   midi.NoteOnEvent(tick=94, channel=3, data=[48, 0]),
   midi.NoteOnEvent(tick=2, channel=3, data=[48, 110]),
   midi.NoteOnEvent(tick=94, channel=3, data=[48, 0]),
   midi.NoteOnEvent(tick=2, channel=3, data=[48, 110]),
   midi.NoteOnEvent(tick=94, channel=3, data=[48, 0]),
   midi.NoteOnEvent(tick=2, channel=3, data=[48, 110]),
   midi.NoteOnEvent(tick=94, channel=3, data=[48, 0]),
   midi.NoteOnEvent(tick=2, channel=3, data=[48, 110]),
   midi.NoteOnEvent(tick=94, channel=3, data=[48, 0]),
   midi.NoteOnEvent(tick=2, channel=3, data=[48, 110]),
   midi.NoteOnEvent(tick=94, channel=3, data=[48, 0]),
   midi.NoteOnEvent(tick=2, channel=3, data=[40, 110]),
   midi.NoteOnEvent(tick=160, channel=3, data=[40, 0]),
   midi.NoteOnEvent(tick=32, channel=3, data=[40, 110]),
   midi.NoteOnEvent(tick=94, channel=3, data=[40, 0]),
   midi.NoteOnEvent(tick=2, channel=3, data=[40, 110]),
   midi.NoteOnEvent(tick=94, channel=3, data=[40, 0]),
   midi.NoteOnEvent(tick=2, channel=3, data=[40, 110]),
   midi.NoteOnEvent(tick=94, channel=3, data=[40, 0]),
   midi.NoteOnEvent(tick=2, channel=3, data=[40, 110]),
   midi.NoteOnEvent(tick=94, channel=3, data=[40, 0]),
   midi.NoteOnEvent(tick=2, channel=3, data=[40, 110]),
   midi.NoteOnEvent(tick=94, channel=3, data=[40, 0]),
   midi.NoteOnEvent(tick=2, channel=3, data=[40, 110]),
   midi.NoteOnEvent(tick=94, channel=3, data=[40, 0]),
   midi.NoteOnEvent(tick=2, channel=3, data=[40, 110]),
   midi.NoteOnEvent(tick=160, channel=3, data=[40, 0]),
   midi.NoteOnEvent(tick=32, channel=3, data=[40, 110]),
   midi.NoteOnEvent(tick=94, channel=3, data=[40, 0]),
   midi.NoteOnEvent(tick=2, channel=3, data=[40, 110]),
   midi.NoteOnEvent(tick=94, channel=3, data=[40, 0]),
   midi.NoteOnEvent(tick=2, channel=3, data=[40, 110]),
   midi.NoteOnEvent(tick=94, channel=3, data=[40, 0]),
   midi.NoteOnEvent(tick=2, channel=3, data=[40, 110]),
   midi.NoteOnEvent(tick=94, channel=3, data=[40, 0]),
   midi.NoteOnEvent(tick=2, channel=3, data=[40, 110]),
   midi.NoteOnEvent(tick=94, channel=3, data=[40, 0]),
   midi.NoteOnEvent(tick=2, channel=3, data=[40, 110]),
   midi.NoteOnEvent(tick=94, channel=3, data=[40, 0]),
   midi.NoteOnEvent(tick=2, channel=3, data=[40, 110]),
   midi.NoteOnEvent(tick=160, channel=3, data=[40, 0]),
   midi.NoteOnEvent(tick=32, channel=3, data=[40, 110]),
   midi.NoteOnEvent(tick=94, channel=3, data=[40, 0]),
   midi.NoteOnEvent(tick=2, channel=3, data=[40, 110]),
   midi.NoteOnEvent(tick=94, channel=3, data=[40, 0]),
   midi.NoteOnEvent(tick=2, channel=3, data=[40, 110]),
   midi.NoteOnEvent(tick=94, channel=3, data=[40, 0]),
   midi.NoteOnEvent(tick=2, channel=3, data=[40, 110]),
   midi.NoteOnEvent(tick=94, channel=3, data=[40, 0]),
   midi.NoteOnEvent(tick=2, channel=3, data=[40, 110]),
   midi.NoteOnEvent(tick=94, channel=3, data=[40, 0]),
   midi.NoteOnEvent(tick=2, channel=3, data=[40, 110]),
   midi.NoteOnEvent(tick=94, channel=3, data=[40, 0]),
   midi.NoteOnEvent(tick=2, channel=3, data=[40, 110]),
   midi.NoteOnEvent(tick=160, channel=3, data=[40, 0]),
   midi.NoteOnEvent(tick=32, channel=3, data=[40, 110]),
   midi.NoteOnEvent(tick=94, channel=3, data=[40, 0]),
   midi.NoteOnEvent(tick=2, channel=3, data=[40, 110]),
   midi.NoteOnEvent(tick=94, channel=3, data=[40, 0]),
   midi.NoteOnEvent(tick=2, channel=3, data=[40, 110]),
   midi.NoteOnEvent(tick=94, channel=3, data=[40, 0]),
   midi.NoteOnEvent(tick=2, channel=3, data=[40, 110]),
   midi.NoteOnEvent(tick=94, channel=3, data=[40, 0]),
   midi.NoteOnEvent(tick=2, channel=3, data=[40, 110]),
   midi.NoteOnEvent(tick=94, channel=3, data=[40, 0]),
   midi.NoteOnEvent(tick=2, channel=3, data=[40, 110]),
   midi.NoteOnEvent(tick=94, channel=3, data=[40, 0]),
   midi.NoteOnEvent(tick=2, channel=3, data=[40, 110]),
   midi.NoteOnEvent(tick=160, channel=3, data=[40, 0]),
   midi.NoteOnEvent(tick=32, channel=3, data=[40, 110]),
   midi.NoteOnEvent(tick=94, channel=3, data=[40, 0]),
   midi.NoteOnEvent(tick=2, channel=3, data=[40, 110]),
   midi.NoteOnEvent(tick=94, channel=3, data=[40, 0]),
   midi.NoteOnEvent(tick=2, channel=3, data=[40, 110]),
   midi.NoteOnEvent(tick=94, channel=3, data=[40, 0]),
   midi.NoteOnEvent(tick=2, channel=3, data=[40, 110]),
   midi.NoteOnEvent(tick=94, channel=3, data=[40, 0]),
   midi.NoteOnEvent(tick=2, channel=3, data=[40, 110]),
   midi.NoteOnEvent(tick=94, channel=3, data=[40, 0]),
   midi.NoteOnEvent(tick=2, channel=3, data=[40, 110]),
   midi.NoteOnEvent(tick=94, channel=3, data=[40, 0]),
   midi.NoteOnEvent(tick=2, channel=3, data=[40, 110]),
   midi.NoteOnEvent(tick=160, channel=3, data=[40, 0]),
   midi.NoteOnEvent(tick=32, channel=3, data=[40, 110]),
   midi.NoteOnEvent(tick=94, channel=3, data=[40, 0]),
   midi.NoteOnEvent(tick=2, channel=3, data=[40, 110]),
   midi.NoteOnEvent(tick=94, channel=3, data=[40, 0]),
   midi.NoteOnEvent(tick=2, channel=3, data=[40, 110]),
   midi.NoteOnEvent(tick=94, channel=3, data=[40, 0]),
   midi.NoteOnEvent(tick=2, channel=3, data=[40, 110]),
   midi.NoteOnEvent(tick=94, channel=3, data=[40, 0]),
   midi.NoteOnEvent(tick=2, channel=3, data=[40, 110]),
   midi.NoteOnEvent(tick=94, channel=3, data=[40, 0]),
   midi.NoteOnEvent(tick=2, channel=3, data=[40, 110]),
   midi.NoteOnEvent(tick=94, channel=3, data=[40, 0]),
   midi.NoteOnEvent(tick=2, channel=3, data=[40, 110]),
   midi.NoteOnEvent(tick=160, channel=3, data=[40, 0]),
   midi.NoteOnEvent(tick=32, channel=3, data=[40, 110]),
   midi.NoteOnEvent(tick=94, channel=3, data=[40, 0]),
   midi.NoteOnEvent(tick=2, channel=3, data=[40, 110]),
   midi.NoteOnEvent(tick=94, channel=3, data=[40, 0]),
   midi.NoteOnEvent(tick=2, channel=3, data=[40, 110]),
   midi.NoteOnEvent(tick=94, channel=3, data=[40, 0]),
   midi.NoteOnEvent(tick=2, channel=3, data=[40, 110]),
   midi.NoteOnEvent(tick=94, channel=3, data=[40, 0]),
   midi.NoteOnEvent(tick=2, channel=3, data=[40, 110]),
   midi.NoteOnEvent(tick=94, channel=3, data=[40, 0]),
   midi.NoteOnEvent(tick=2, channel=3, data=[40, 110]),
   midi.NoteOnEvent(tick=94, channel=3, data=[40, 0]),
   midi.NoteOnEvent(tick=2, channel=3, data=[40, 110]),
   midi.NoteOnEvent(tick=160, channel=3, data=[40, 0]),
   midi.NoteOnEvent(tick=32, channel=3, data=[40, 110]),
   midi.NoteOnEvent(tick=94, channel=3, data=[40, 0]),
   midi.NoteOnEvent(tick=2, channel=3, data=[40, 110]),
   midi.NoteOnEvent(tick=94, channel=3, data=[40, 0]),
   midi.NoteOnEvent(tick=2, channel=3, data=[40, 110]),
   midi.NoteOnEvent(tick=94, channel=3, data=[40, 0]),
   midi.NoteOnEvent(tick=2, channel=3, data=[40, 110]),
   midi.NoteOnEvent(tick=94, channel=3, data=[40, 0]),
   midi.NoteOnEvent(tick=2, channel=3, data=[40, 110]),
   midi.NoteOnEvent(tick=94, channel=3, data=[40, 0]),
   midi.NoteOnEvent(tick=2, channel=3, data=[40, 110]),
   midi.NoteOnEvent(tick=94, channel=3, data=[40, 0]),
   midi.NoteOnEvent(tick=2, channel=3, data=[40, 110]),
   midi.NoteOnEvent(tick=160, channel=3, data=[40, 0]),
   midi.NoteOnEvent(tick=32, channel=3, data=[40, 110]),
   midi.NoteOnEvent(tick=94, channel=3, data=[40, 0]),
   midi.NoteOnEvent(tick=2, channel=3, data=[40, 110]),
   midi.NoteOnEvent(tick=94, channel=3, data=[40, 0]),
   midi.NoteOnEvent(tick=2, channel=3, data=[40, 110]),
   midi.NoteOnEvent(tick=94, channel=3, data=[40, 0]),
   midi.NoteOnEvent(tick=2, channel=3, data=[40, 110]),
   midi.NoteOnEvent(tick=94, channel=3, data=[40, 0]),
   midi.NoteOnEvent(tick=2, channel=3, data=[40, 110]),
   midi.NoteOnEvent(tick=94, channel=3, data=[40, 0]),
   midi.NoteOnEvent(tick=2, channel=3, data=[40, 110]),
   midi.NoteOnEvent(tick=94, channel=3, data=[40, 0]),
   midi.NoteOnEvent(tick=2, channel=3, data=[40, 110]),
   midi.NoteOnEvent(tick=160, channel=3, data=[40, 0]),
   midi.NoteOnEvent(tick=32, channel=3, data=[40, 110]),
   midi.NoteOnEvent(tick=94, channel=3, data=[40, 0]),
   midi.NoteOnEvent(tick=2, channel=3, data=[40, 110]),
   midi.NoteOnEvent(tick=94, channel=3, data=[40, 0]),
   midi.NoteOnEvent(tick=2, channel=3, data=[40, 110]),
   midi.NoteOnEvent(tick=94, channel=3, data=[40, 0]),
   midi.NoteOnEvent(tick=2, channel=3, data=[40, 110]),
   midi.NoteOnEvent(tick=94, channel=3, data=[40, 0]),
   midi.NoteOnEvent(tick=2, channel=3, data=[40, 110]),
   midi.NoteOnEvent(tick=94, channel=3, data=[40, 0]),
   midi.NoteOnEvent(tick=2, channel=3, data=[40, 110]),
   midi.NoteOnEvent(tick=94, channel=3, data=[40, 0]),
   midi.NoteOnEvent(tick=2, channel=3, data=[40, 110]),
   midi.NoteOnEvent(tick=160, channel=3, data=[40, 0]),
   midi.NoteOnEvent(tick=32, channel=3, data=[40, 110]),
   midi.NoteOnEvent(tick=94, channel=3, data=[40, 0]),
   midi.NoteOnEvent(tick=2, channel=3, data=[40, 110]),
   midi.NoteOnEvent(tick=94, channel=3, data=[40, 0]),
   midi.NoteOnEvent(tick=2, channel=3, data=[40, 110]),
   midi.NoteOnEvent(tick=94, channel=3, data=[40, 0]),
   midi.NoteOnEvent(tick=2, channel=3, data=[40, 110]),
   midi.NoteOnEvent(tick=94, channel=3, data=[40, 0]),
   midi.NoteOnEvent(tick=2, channel=3, data=[40, 110]),
   midi.NoteOnEvent(tick=94, channel=3, data=[40, 0]),
   midi.NoteOnEvent(tick=2, channel=3, data=[40, 110]),
   midi.NoteOnEvent(tick=94, channel=3, data=[40, 0]),
   midi.NoteOnEvent(tick=2, channel=3, data=[40, 110]),
   midi.NoteOnEvent(tick=160, channel=3, data=[40, 0]),
   midi.NoteOnEvent(tick=32, channel=3, data=[40, 110]),
   midi.NoteOnEvent(tick=94, channel=3, data=[40, 0]),
   midi.NoteOnEvent(tick=2, channel=3, data=[40, 110]),
   midi.NoteOnEvent(tick=94, channel=3, data=[40, 0]),
   midi.NoteOnEvent(tick=2, channel=3, data=[40, 110]),
   midi.NoteOnEvent(tick=94, channel=3, data=[40, 0]),
   midi.NoteOnEvent(tick=2, channel=3, data=[40, 110]),
   midi.NoteOnEvent(tick=94, channel=3, data=[40, 0]),
   midi.NoteOnEvent(tick=2, channel=3, data=[40, 110]),
   midi.NoteOnEvent(tick=94, channel=3, data=[40, 0]),
   midi.NoteOnEvent(tick=2, channel=3, data=[40, 110]),
   midi.NoteOnEvent(tick=94, channel=3, data=[40, 0]),
   midi.NoteOnEvent(tick=2, channel=3, data=[40, 110]),
   midi.NoteOnEvent(tick=94, channel=3, data=[40, 0]),
   midi.NoteOnEvent(tick=2, channel=3, data=[40, 110]),
   midi.NoteOnEvent(tick=46, channel=3, data=[40, 0]),
   midi.NoteOnEvent(tick=2, channel=3, data=[40, 110]),
   midi.NoteOnEvent(tick=46, channel=3, data=[40, 0]),
   midi.NoteOnEvent(tick=2, channel=3, data=[40, 110]),
   midi.NoteOnEvent(tick=94, channel=3, data=[40, 0]),
   midi.NoteOnEvent(tick=2, channel=3, data=[40, 110]),
   midi.NoteOnEvent(tick=94, channel=3, data=[40, 0]),
   midi.NoteOnEvent(tick=2, channel=3, data=[40, 110]),
   midi.NoteOnEvent(tick=94, channel=3, data=[40, 0]),
   midi.NoteOnEvent(tick=2, channel=3, data=[40, 110]),
   midi.NoteOnEvent(tick=94, channel=3, data=[40, 0]),
   midi.NoteOnEvent(tick=2, channel=3, data=[40, 110]),
   midi.NoteOnEvent(tick=94, channel=3, data=[40, 0]),
   midi.NoteOnEvent(tick=2, channel=3, data=[40, 110]),
   midi.NoteOnEvent(tick=94, channel=3, data=[40, 0]),
   midi.NoteOnEvent(tick=1442, channel=3, data=[43, 110]),
   midi.NoteOnEvent(tick=94, channel=3, data=[43, 0]),
   midi.NoteOnEvent(tick=2, channel=3, data=[43, 110]),
   midi.NoteOnEvent(tick=94, channel=3, data=[43, 0]),
   midi.NoteOnEvent(tick=2, channel=3, data=[43, 110]),
   midi.NoteOnEvent(tick=94, channel=3, data=[43, 0]),
   midi.NoteOnEvent(tick=2, channel=3, data=[43, 110]),
   midi.NoteOnEvent(tick=94, channel=3, data=[43, 0]),
   midi.NoteOnEvent(tick=2, channel=3, data=[43, 110]),
   midi.NoteOnEvent(tick=94, channel=3, data=[43, 0]),
   midi.NoteOnEvent(tick=2, channel=3, data=[43, 110]),
   midi.NoteOnEvent(tick=94, channel=3, data=[43, 0]),
   midi.NoteOnEvent(tick=2, channel=3, data=[43, 110]),
   midi.NoteOnEvent(tick=94, channel=3, data=[43, 0]),
   midi.NoteOnEvent(tick=2, channel=3, data=[43, 110]),
   midi.NoteOnEvent(tick=94, channel=3, data=[43, 0]),
   midi.NoteOnEvent(tick=2, channel=3, data=[43, 110]),
   midi.NoteOnEvent(tick=94, channel=3, data=[43, 0]),
   midi.NoteOnEvent(tick=2, channel=3, data=[43, 110]),
   midi.NoteOnEvent(tick=94, channel=3, data=[43, 0]),
   midi.NoteOnEvent(tick=2, channel=3, data=[43, 110]),
   midi.NoteOnEvent(tick=94, channel=3, data=[43, 0]),
   midi.NoteOnEvent(tick=2, channel=3, data=[43, 110]),
   midi.NoteOnEvent(tick=94, channel=3, data=[43, 0]),
   midi.NoteOnEvent(tick=2, channel=3, data=[43, 110]),
   midi.NoteOnEvent(tick=94, channel=3, data=[43, 0]),
   midi.NoteOnEvent(tick=2, channel=3, data=[43, 110]),
   midi.NoteOnEvent(tick=94, channel=3, data=[43, 0]),
   midi.NoteOnEvent(tick=2, channel=3, data=[43, 110]),
   midi.NoteOnEvent(tick=94, channel=3, data=[43, 0]),
   midi.NoteOnEvent(tick=2, channel=3, data=[43, 110]),
   midi.NoteOnEvent(tick=94, channel=3, data=[43, 0]),
   midi.NoteOnEvent(tick=2, channel=3, data=[49, 110]),
   midi.NoteOnEvent(tick=94, channel=3, data=[49, 0]),
   midi.NoteOnEvent(tick=2, channel=3, data=[49, 110]),
   midi.NoteOnEvent(tick=46, channel=3, data=[49, 0]),
   midi.NoteOnEvent(tick=2, channel=3, data=[49, 110]),
   midi.NoteOnEvent(tick=46, channel=3, data=[49, 0]),
   midi.NoteOnEvent(tick=2, channel=3, data=[49, 110]),
   midi.NoteOnEvent(tick=46, channel=3, data=[49, 0]),
   midi.NoteOnEvent(tick=2, channel=3, data=[49, 110]),
   midi.NoteOnEvent(tick=46, channel=3, data=[49, 0]),
   midi.NoteOnEvent(tick=2, channel=3, data=[49, 110]),
   midi.NoteOnEvent(tick=46, channel=3, data=[49, 0]),
   midi.NoteOnEvent(tick=2, channel=3, data=[49, 110]),
   midi.NoteOnEvent(tick=46, channel=3, data=[49, 0]),
   midi.NoteOnEvent(tick=2, channel=3, data=[49, 110]),
   midi.NoteOnEvent(tick=94, channel=3, data=[49, 0]),
   midi.NoteOnEvent(tick=2, channel=3, data=[49, 110]),
   midi.NoteOnEvent(tick=46, channel=3, data=[49, 0]),
   midi.NoteOnEvent(tick=2, channel=3, data=[49, 110]),
   midi.NoteOnEvent(tick=46, channel=3, data=[49, 0]),
   midi.NoteOnEvent(tick=2, channel=3, data=[49, 110]),
   midi.NoteOnEvent(tick=46, channel=3, data=[49, 0]),
   midi.NoteOnEvent(tick=2, channel=3, data=[49, 110]),
   midi.NoteOnEvent(tick=46, channel=3, data=[49, 0]),
   midi.NoteOnEvent(tick=2, channel=3, data=[49, 110]),
   midi.NoteOnEvent(tick=46, channel=3, data=[49, 0]),
   midi.NoteOnEvent(tick=2, channel=3, data=[49, 110]),
   midi.NoteOnEvent(tick=46, channel=3, data=[49, 0]),
   midi.NoteOnEvent(tick=2, channel=3, data=[49, 110]),
   midi.NoteOnEvent(tick=94, channel=3, data=[49, 0]),
   midi.NoteOnEvent(tick=2, channel=3, data=[49, 110]),
   midi.NoteOnEvent(tick=46, channel=3, data=[49, 0]),
   midi.NoteOnEvent(tick=2, channel=3, data=[49, 110]),
   midi.NoteOnEvent(tick=46, channel=3, data=[49, 0]),
   midi.NoteOnEvent(tick=2, channel=3, data=[49, 110]),
   midi.NoteOnEvent(tick=46, channel=3, data=[49, 0]),
   midi.NoteOnEvent(tick=2, channel=3, data=[49, 110]),
   midi.NoteOnEvent(tick=46, channel=3, data=[49, 0]),
   midi.NoteOnEvent(tick=2, channel=3, data=[49, 110]),
   midi.NoteOnEvent(tick=46, channel=3, data=[49, 0]),
   midi.NoteOnEvent(tick=2, channel=3, data=[49, 110]),
   midi.NoteOnEvent(tick=46, channel=3, data=[49, 0]),
   midi.NoteOnEvent(tick=2, channel=3, data=[49, 110]),
   midi.NoteOnEvent(tick=94, channel=3, data=[49, 0]),
   midi.NoteOnEvent(tick=2, channel=3, data=[49, 110]),
   midi.NoteOnEvent(tick=46, channel=3, data=[49, 0]),
   midi.NoteOnEvent(tick=2, channel=3, data=[49, 110]),
   midi.NoteOnEvent(tick=46, channel=3, data=[49, 0]),
   midi.NoteOnEvent(tick=2, channel=3, data=[49, 110]),
   midi.NoteOnEvent(tick=46, channel=3, data=[49, 0]),
   midi.NoteOnEvent(tick=2, channel=3, data=[49, 110]),
   midi.NoteOnEvent(tick=46, channel=3, data=[49, 0]),
   midi.NoteOnEvent(tick=2, channel=3, data=[49, 110]),
   midi.NoteOnEvent(tick=46, channel=3, data=[49, 0]),
   midi.NoteOnEvent(tick=2, channel=3, data=[49, 110]),
   midi.NoteOnEvent(tick=46, channel=3, data=[49, 0]),
   midi.NoteOnEvent(tick=2, channel=3, data=[49, 110]),
   midi.NoteOnEvent(tick=94, channel=3, data=[49, 0]),
   midi.NoteOnEvent(tick=2, channel=3, data=[49, 110]),
   midi.NoteOnEvent(tick=46, channel=3, data=[49, 0]),
   midi.NoteOnEvent(tick=2, channel=3, data=[49, 110]),
   midi.NoteOnEvent(tick=46, channel=3, data=[49, 0]),
   midi.NoteOnEvent(tick=2, channel=3, data=[49, 110]),
   midi.NoteOnEvent(tick=46, channel=3, data=[49, 0]),
   midi.NoteOnEvent(tick=2, channel=3, data=[49, 110]),
   midi.NoteOnEvent(tick=46, channel=3, data=[49, 0]),
   midi.NoteOnEvent(tick=2, channel=3, data=[49, 110]),
   midi.NoteOnEvent(tick=46, channel=3, data=[49, 0]),
   midi.NoteOnEvent(tick=2, channel=3, data=[49, 110]),
   midi.NoteOnEvent(tick=46, channel=3, data=[49, 0]),
   midi.NoteOnEvent(tick=2, channel=3, data=[49, 110]),
   midi.NoteOnEvent(tick=94, channel=3, data=[49, 0]),
   midi.NoteOnEvent(tick=2, channel=3, data=[49, 110]),
   midi.NoteOnEvent(tick=46, channel=3, data=[49, 0]),
   midi.NoteOnEvent(tick=2, channel=3, data=[49, 110]),
   midi.NoteOnEvent(tick=46, channel=3, data=[49, 0]),
   midi.NoteOnEvent(tick=2, channel=3, data=[49, 110]),
   midi.NoteOnEvent(tick=46, channel=3, data=[49, 0]),
   midi.NoteOnEvent(tick=2, channel=3, data=[49, 110]),
   midi.NoteOnEvent(tick=46, channel=3, data=[49, 0]),
   midi.NoteOnEvent(tick=2, channel=3, data=[49, 110]),
   midi.NoteOnEvent(tick=46, channel=3, data=[49, 0]),
   midi.NoteOnEvent(tick=2, channel=3, data=[49, 110]),
   midi.NoteOnEvent(tick=46, channel=3, data=[49, 0]),
   midi.NoteOnEvent(tick=2, channel=3, data=[49, 110]),
   midi.NoteOnEvent(tick=94, channel=3, data=[49, 0]),
   midi.NoteOnEvent(tick=2, channel=3, data=[49, 110]),
   midi.NoteOnEvent(tick=46, channel=3, data=[49, 0]),
   midi.NoteOnEvent(tick=2, channel=3, data=[49, 110]),
   midi.NoteOnEvent(tick=46, channel=3, data=[49, 0]),
   midi.NoteOnEvent(tick=2, channel=3, data=[49, 110]),
   midi.NoteOnEvent(tick=46, channel=3, data=[49, 0]),
   midi.NoteOnEvent(tick=2, channel=3, data=[49, 110]),
   midi.NoteOnEvent(tick=46, channel=3, data=[49, 0]),
   midi.NoteOnEvent(tick=2, channel=3, data=[49, 110]),
   midi.NoteOnEvent(tick=46, channel=3, data=[49, 0]),
   midi.NoteOnEvent(tick=2, channel=3, data=[49, 110]),
   midi.NoteOnEvent(tick=46, channel=3, data=[49, 0]),
   midi.NoteOnEvent(tick=2, channel=3, data=[49, 110]),
   midi.NoteOnEvent(tick=94, channel=3, data=[49, 0]),
   midi.NoteOnEvent(tick=2, channel=3, data=[49, 110]),
   midi.NoteOnEvent(tick=46, channel=3, data=[49, 0]),
   midi.NoteOnEvent(tick=2, channel=3, data=[49, 110]),
   midi.NoteOnEvent(tick=46, channel=3, data=[49, 0]),
   midi.NoteOnEvent(tick=2, channel=3, data=[49, 110]),
   midi.NoteOnEvent(tick=46, channel=3, data=[49, 0]),
   midi.NoteOnEvent(tick=2, channel=3, data=[49, 110]),
   midi.NoteOnEvent(tick=46, channel=3, data=[49, 0]),
   midi.NoteOnEvent(tick=2, channel=3, data=[49, 110]),
   midi.NoteOnEvent(tick=46, channel=3, data=[49, 0]),
   midi.NoteOnEvent(tick=2, channel=3, data=[49, 110]),
   midi.NoteOnEvent(tick=46, channel=3, data=[49, 0]),
   midi.NoteOnEvent(tick=2, channel=3, data=[49, 110]),
   midi.NoteOnEvent(tick=94, channel=3, data=[49, 0]),
   midi.NoteOnEvent(tick=2, channel=3, data=[49, 110]),
   midi.NoteOnEvent(tick=46, channel=3, data=[49, 0]),
   midi.NoteOnEvent(tick=2, channel=3, data=[49, 110]),
   midi.NoteOnEvent(tick=46, channel=3, data=[49, 0]),
   midi.NoteOnEvent(tick=2, channel=3, data=[49, 110]),
   midi.NoteOnEvent(tick=46, channel=3, data=[49, 0]),
   midi.NoteOnEvent(tick=2, channel=3, data=[49, 110]),
   midi.NoteOnEvent(tick=46, channel=3, data=[49, 0]),
   midi.NoteOnEvent(tick=2, channel=3, data=[49, 110]),
   midi.NoteOnEvent(tick=46, channel=3, data=[49, 0]),
   midi.NoteOnEvent(tick=2, channel=3, data=[49, 110]),
   midi.NoteOnEvent(tick=46, channel=3, data=[49, 0]),
   midi.NoteOnEvent(tick=2, channel=3, data=[49, 110]),
   midi.NoteOnEvent(tick=94, channel=3, data=[49, 0]),
   midi.NoteOnEvent(tick=2, channel=3, data=[49, 110]),
   midi.NoteOnEvent(tick=46, channel=3, data=[49, 0]),
   midi.NoteOnEvent(tick=2, channel=3, data=[49, 110]),
   midi.NoteOnEvent(tick=46, channel=3, data=[49, 0]),
   midi.NoteOnEvent(tick=2, channel=3, data=[49, 110]),
   midi.NoteOnEvent(tick=46, channel=3, data=[49, 0]),
   midi.NoteOnEvent(tick=2, channel=3, data=[49, 110]),
   midi.NoteOnEvent(tick=46, channel=3, data=[49, 0]),
   midi.NoteOnEvent(tick=2, channel=3, data=[49, 110]),
   midi.NoteOnEvent(tick=46, channel=3, data=[49, 0]),
   midi.NoteOnEvent(tick=2, channel=3, data=[49, 110]),
   midi.NoteOnEvent(tick=46, channel=3, data=[49, 0]),
   midi.NoteOnEvent(tick=2, channel=3, data=[49, 110]),
   midi.NoteOnEvent(tick=94, channel=3, data=[49, 0]),
   midi.NoteOnEvent(tick=2, channel=3, data=[49, 110]),
   midi.NoteOnEvent(tick=46, channel=3, data=[49, 0]),
   midi.NoteOnEvent(tick=2, channel=3, data=[49, 110]),
   midi.NoteOnEvent(tick=46, channel=3, data=[49, 0]),
   midi.NoteOnEvent(tick=2, channel=3, data=[49, 110]),
   midi.NoteOnEvent(tick=46, channel=3, data=[49, 0]),
   midi.NoteOnEvent(tick=2, channel=3, data=[49, 110]),
   midi.NoteOnEvent(tick=46, channel=3, data=[49, 0]),
   midi.NoteOnEvent(tick=2, channel=3, data=[49, 110]),
   midi.NoteOnEvent(tick=46, channel=3, data=[49, 0]),
   midi.NoteOnEvent(tick=2, channel=3, data=[49, 110]),
   midi.NoteOnEvent(tick=46, channel=3, data=[49, 0]),
   midi.NoteOnEvent(tick=2, channel=3, data=[49, 110]),
   midi.NoteOnEvent(tick=94, channel=3, data=[49, 0]),
   midi.NoteOnEvent(tick=2, channel=3, data=[49, 110]),
   midi.NoteOnEvent(tick=46, channel=3, data=[49, 0]),
   midi.NoteOnEvent(tick=2, channel=3, data=[49, 110]),
   midi.NoteOnEvent(tick=46, channel=3, data=[49, 0]),
   midi.NoteOnEvent(tick=2, channel=3, data=[49, 110]),
   midi.NoteOnEvent(tick=46, channel=3, data=[49, 0]),
   midi.NoteOnEvent(tick=2, channel=3, data=[49, 110]),
   midi.NoteOnEvent(tick=46, channel=3, data=[49, 0]),
   midi.NoteOnEvent(tick=2, channel=3, data=[49, 110]),
   midi.NoteOnEvent(tick=46, channel=3, data=[49, 0]),
   midi.NoteOnEvent(tick=2, channel=3, data=[49, 110]),
   midi.NoteOnEvent(tick=46, channel=3, data=[49, 0]),
   midi.SetTempoEvent(tick=2, data=[4, 147, 224]),
   midi.NoteOnEvent(tick=0, channel=3, data=[45, 110]),
   midi.SetTempoEvent(tick=51, data=[4, 159, 182]),
   midi.NoteOnEvent(tick=43, channel=3, data=[45, 0]),
   midi.NoteOnEvent(tick=2, channel=3, data=[55, 110]),
   midi.SetTempoEvent(tick=6, data=[4, 171, 202]),
   midi.SetTempoEvent(tick=51, data=[4, 184, 30]),
   midi.NoteOnEvent(tick=37, channel=3, data=[55, 0]),
   midi.NoteOnEvent(tick=2, channel=3, data=[54, 110]),
   midi.SetTempoEvent(tick=12, data=[4, 196, 180]),
   midi.SetTempoEvent(tick=52, data=[4, 209, 141]),
   midi.NoteOnEvent(tick=30, channel=3, data=[54, 0]),
   midi.NoteOnEvent(tick=2, channel=3, data=[45, 110]),
   midi.SetTempoEvent(tick=19, data=[4, 222, 172]),
   midi.SetTempoEvent(tick=51, data=[4, 236, 20]),
   midi.NoteOnEvent(tick=24, channel=3, data=[45, 0]),
   midi.NoteOnEvent(tick=2, channel=3, data=[54, 110]),
   midi.SetTempoEvent(tick=25, data=[4, 249, 198]),
   midi.SetTempoEvent(tick=51, data=[5, 7, 198]),
   midi.NoteOnEvent(tick=18, channel=3, data=[54, 0]),
   midi.NoteOnEvent(tick=2, channel=3, data=[52, 110]),
   midi.SetTempoEvent(tick=32, data=[5, 22, 21]),
   midi.SetTempoEvent(tick=51, data=[5, 36, 182]),
   midi.NoteOnEvent(tick=11, channel=3, data=[52, 0]),
   midi.NoteOnEvent(tick=2, channel=3, data=[50, 110]),
   midi.SetTempoEvent(tick=38, data=[5, 51, 173]),
   midi.SetTempoEvent(tick=51, data=[5, 66, 251]),
   midi.NoteOnEvent(tick=5, channel=3, data=[50, 0]),
   midi.NoteOnEvent(tick=2, channel=3, data=[49, 110]),
   midi.SetTempoEvent(tick=44, data=[5, 82, 165]),
   midi.NoteOnEvent(tick=50, channel=3, data=[49, 0]),
   midi.SetTempoEvent(tick=2, data=[5, 98, 173]),
   midi.NoteOnEvent(tick=0, channel=3, data=[43, 110]),
   midi.NoteOnEvent(tick=126, channel=3, data=[43, 0]),
   midi.NoteOnEvent(tick=2, channel=3, data=[42, 110]),
   midi.NoteOnEvent(tick=126, channel=3, data=[42, 0]),
   midi.NoteOnEvent(tick=2, channel=3, data=[40, 110]),
   midi.NoteOnEvent(tick=126, channel=3, data=[40, 0]),
   midi.NoteOnEvent(tick=2, channel=3, data=[50, 110]),
   midi.NoteOnEvent(tick=126, channel=3, data=[50, 0]),
   midi.NoteOnEvent(tick=2, channel=3, data=[49, 110]),
   midi.NoteOnEvent(tick=126, channel=3, data=[49, 0]),
   midi.NoteOnEvent(tick=2, channel=3, data=[47, 110]),
   midi.NoteOnEvent(tick=126, channel=3, data=[47, 0]),
   midi.NoteOnEvent(tick=2, channel=3, data=[40, 110]),
   midi.NoteOnEvent(tick=94, channel=3, data=[40, 0]),
   midi.NoteOnEvent(tick=2, channel=3, data=[40, 110]),
   midi.NoteOnEvent(tick=46, channel=3, data=[40, 0]),
   midi.NoteOnEvent(tick=2, channel=3, data=[40, 110]),
   midi.NoteOnEvent(tick=46, channel=3, data=[40, 0]),
   midi.NoteOnEvent(tick=2, channel=3, data=[40, 110]),
   midi.NoteOnEvent(tick=94, channel=3, data=[40, 0]),
   midi.NoteOnEvent(tick=2, channel=3, data=[40, 110]),
   midi.NoteOnEvent(tick=94, channel=3, data=[40, 0]),
   midi.NoteOnEvent(tick=2, channel=3, data=[40, 110]),
   midi.NoteOnEvent(tick=94, channel=3, data=[40, 0]),
   midi.NoteOnEvent(tick=2, channel=3, data=[40, 110]),
   midi.NoteOnEvent(tick=94, channel=3, data=[40, 0]),
   midi.NoteOnEvent(tick=2, channel=3, data=[40, 110]),
   midi.NoteOnEvent(tick=46, channel=3, data=[40, 0]),
   midi.NoteOnEvent(tick=2, channel=3, data=[40, 110]),
   midi.NoteOnEvent(tick=46, channel=3, data=[40, 0]),
   midi.NoteOnEvent(tick=2, channel=3, data=[40, 110]),
   midi.NoteOnEvent(tick=46, channel=3, data=[40, 0]),
   midi.NoteOnEvent(tick=2, channel=3, data=[40, 110]),
   midi.NoteOnEvent(tick=46, channel=3, data=[40, 0]),
   midi.NoteOnEvent(tick=2, channel=3, data=[40, 110]),
   midi.NoteOnEvent(tick=94, channel=3, data=[40, 0]),
   midi.NoteOnEvent(tick=2, channel=3, data=[40, 110]),
   midi.NoteOnEvent(tick=46, channel=3, data=[40, 0]),
   midi.NoteOnEvent(tick=2, channel=3, data=[40, 110]),
   midi.NoteOnEvent(tick=46, channel=3, data=[40, 0]),
   midi.NoteOnEvent(tick=2, channel=3, data=[40, 110]),
   midi.NoteOnEvent(tick=94, channel=3, data=[40, 0]),
   midi.NoteOnEvent(tick=2, channel=3, data=[40, 110]),
   midi.NoteOnEvent(tick=94, channel=3, data=[40, 0]),
   midi.NoteOnEvent(tick=2, channel=3, data=[40, 110]),
   midi.NoteOnEvent(tick=94, channel=3, data=[40, 0]),
   midi.NoteOnEvent(tick=2, channel=3, data=[40, 110]),
   midi.NoteOnEvent(tick=94, channel=3, data=[40, 0]),
   midi.NoteOnEvent(tick=2, channel=3, data=[40, 110]),
   midi.NoteOnEvent(tick=46, channel=3, data=[40, 0]),
   midi.NoteOnEvent(tick=2, channel=3, data=[40, 110]),
   midi.NoteOnEvent(tick=46, channel=3, data=[40, 0]),
   midi.NoteOnEvent(tick=2, channel=3, data=[40, 110]),
   midi.NoteOnEvent(tick=46, channel=3, data=[40, 0]),
   midi.NoteOnEvent(tick=2, channel=3, data=[40, 110]),
   midi.NoteOnEvent(tick=46, channel=3, data=[40, 0]),
   midi.NoteOnEvent(tick=2, channel=3, data=[43, 110]),
   midi.NoteOnEvent(tick=94, channel=3, data=[43, 0]),
   midi.NoteOnEvent(tick=2, channel=3, data=[43, 110]),
   midi.NoteOnEvent(tick=46, channel=3, data=[43, 0]),
   midi.NoteOnEvent(tick=2, channel=3, data=[43, 110]),
   midi.NoteOnEvent(tick=46, channel=3, data=[43, 0]),
   midi.NoteOnEvent(tick=2, channel=3, data=[43, 110]),
   midi.NoteOnEvent(tick=94, channel=3, data=[43, 0]),
   midi.NoteOnEvent(tick=2, channel=3, data=[43, 110]),
   midi.NoteOnEvent(tick=94, channel=3, data=[43, 0]),
   midi.NoteOnEvent(tick=2, channel=3, data=[43, 110]),
   midi.NoteOnEvent(tick=94, channel=3, data=[43, 0]),
   midi.NoteOnEvent(tick=2, channel=3, data=[43, 110]),
   midi.NoteOnEvent(tick=94, channel=3, data=[43, 0]),
   midi.NoteOnEvent(tick=2, channel=3, data=[43, 110]),
   midi.NoteOnEvent(tick=46, channel=3, data=[43, 0]),
   midi.NoteOnEvent(tick=2, channel=3, data=[43, 110]),
   midi.NoteOnEvent(tick=46, channel=3, data=[43, 0]),
   midi.NoteOnEvent(tick=2, channel=3, data=[43, 110]),
   midi.NoteOnEvent(tick=46, channel=3, data=[43, 0]),
   midi.NoteOnEvent(tick=2, channel=3, data=[43, 110]),
   midi.NoteOnEvent(tick=46, channel=3, data=[43, 0]),
   midi.NoteOnEvent(tick=2, channel=3, data=[42, 110]),
   midi.NoteOnEvent(tick=94, channel=3, data=[42, 0]),
   midi.NoteOnEvent(tick=2, channel=3, data=[42, 110]),
   midi.NoteOnEvent(tick=46, channel=3, data=[42, 0]),
   midi.NoteOnEvent(tick=2, channel=3, data=[42, 110]),
   midi.NoteOnEvent(tick=46, channel=3, data=[42, 0]),
   midi.NoteOnEvent(tick=2, channel=3, data=[42, 110]),
   midi.NoteOnEvent(tick=94, channel=3, data=[42, 0]),
   midi.NoteOnEvent(tick=2, channel=3, data=[42, 110]),
   midi.NoteOnEvent(tick=94, channel=3, data=[42, 0]),
   midi.NoteOnEvent(tick=2, channel=3, data=[42, 110]),
   midi.NoteOnEvent(tick=94, channel=3, data=[42, 0]),
   midi.NoteOnEvent(tick=2, channel=3, data=[42, 110]),
   midi.NoteOnEvent(tick=94, channel=3, data=[42, 0]),
   midi.NoteOnEvent(tick=2, channel=3, data=[42, 110]),
   midi.NoteOnEvent(tick=46, channel=3, data=[42, 0]),
   midi.NoteOnEvent(tick=2, channel=3, data=[42, 110]),
   midi.NoteOnEvent(tick=46, channel=3, data=[42, 0]),
   midi.NoteOnEvent(tick=2, channel=3, data=[42, 110]),
   midi.NoteOnEvent(tick=46, channel=3, data=[42, 0]),
   midi.NoteOnEvent(tick=2, channel=3, data=[42, 110]),
   midi.NoteOnEvent(tick=46, channel=3, data=[42, 0]),
   midi.NoteOnEvent(tick=2, channel=3, data=[40, 110]),
   midi.NoteOnEvent(tick=94, channel=3, data=[40, 0]),
   midi.NoteOnEvent(tick=2, channel=3, data=[40, 110]),
   midi.NoteOnEvent(tick=46, channel=3, data=[40, 0]),
   midi.NoteOnEvent(tick=2, channel=3, data=[40, 110]),
   midi.NoteOnEvent(tick=46, channel=3, data=[40, 0]),
   midi.NoteOnEvent(tick=2, channel=3, data=[40, 110]),
   midi.NoteOnEvent(tick=94, channel=3, data=[40, 0]),
   midi.NoteOnEvent(tick=2, channel=3, data=[40, 110]),
   midi.NoteOnEvent(tick=94, channel=3, data=[40, 0]),
   midi.NoteOnEvent(tick=2, channel=3, data=[40, 110]),
   midi.NoteOnEvent(tick=94, channel=3, data=[40, 0]),
   midi.NoteOnEvent(tick=2, channel=3, data=[40, 110]),
   midi.NoteOnEvent(tick=94, channel=3, data=[40, 0]),
   midi.NoteOnEvent(tick=2, channel=3, data=[40, 110]),
   midi.NoteOnEvent(tick=46, channel=3, data=[40, 0]),
   midi.NoteOnEvent(tick=2, channel=3, data=[40, 110]),
   midi.NoteOnEvent(tick=46, channel=3, data=[40, 0]),
   midi.NoteOnEvent(tick=2, channel=3, data=[40, 110]),
   midi.NoteOnEvent(tick=46, channel=3, data=[40, 0]),
   midi.NoteOnEvent(tick=2, channel=3, data=[40, 110]),
   midi.NoteOnEvent(tick=46, channel=3, data=[40, 0]),
   midi.NoteOnEvent(tick=2, channel=3, data=[40, 110]),
   midi.NoteOnEvent(tick=94, channel=3, data=[40, 0]),
   midi.NoteOnEvent(tick=2, channel=3, data=[40, 110]),
   midi.NoteOnEvent(tick=46, channel=3, data=[40, 0]),
   midi.NoteOnEvent(tick=2, channel=3, data=[40, 110]),
   midi.NoteOnEvent(tick=46, channel=3, data=[40, 0]),
   midi.NoteOnEvent(tick=2, channel=3, data=[40, 110]),
   midi.NoteOnEvent(tick=94, channel=3, data=[40, 0]),
   midi.NoteOnEvent(tick=2, channel=3, data=[40, 110]),
   midi.NoteOnEvent(tick=94, channel=3, data=[40, 0]),
   midi.NoteOnEvent(tick=2, channel=3, data=[40, 110]),
   midi.NoteOnEvent(tick=94, channel=3, data=[40, 0]),
   midi.NoteOnEvent(tick=2, channel=3, data=[40, 110]),
   midi.NoteOnEvent(tick=94, channel=3, data=[40, 0]),
   midi.NoteOnEvent(tick=2, channel=3, data=[40, 110]),
   midi.NoteOnEvent(tick=46, channel=3, data=[40, 0]),
   midi.NoteOnEvent(tick=2, channel=3, data=[40, 110]),
   midi.NoteOnEvent(tick=46, channel=3, data=[40, 0]),
   midi.NoteOnEvent(tick=2, channel=3, data=[40, 110]),
   midi.NoteOnEvent(tick=46, channel=3, data=[40, 0]),
   midi.NoteOnEvent(tick=2, channel=3, data=[40, 110]),
   midi.NoteOnEvent(tick=46, channel=3, data=[40, 0]),
   midi.NoteOnEvent(tick=2, channel=3, data=[43, 110]),
   midi.NoteOnEvent(tick=94, channel=3, data=[43, 0]),
   midi.NoteOnEvent(tick=2, channel=3, data=[43, 110]),
   midi.NoteOnEvent(tick=46, channel=3, data=[43, 0]),
   midi.NoteOnEvent(tick=2, channel=3, data=[43, 110]),
   midi.NoteOnEvent(tick=46, channel=3, data=[43, 0]),
   midi.NoteOnEvent(tick=2, channel=3, data=[43, 110]),
   midi.NoteOnEvent(tick=94, channel=3, data=[43, 0]),
   midi.NoteOnEvent(tick=2, channel=3, data=[43, 110]),
   midi.NoteOnEvent(tick=94, channel=3, data=[43, 0]),
   midi.NoteOnEvent(tick=2, channel=3, data=[43, 110]),
   midi.NoteOnEvent(tick=94, channel=3, data=[43, 0]),
   midi.NoteOnEvent(tick=2, channel=3, data=[43, 110]),
   midi.NoteOnEvent(tick=94, channel=3, data=[43, 0]),
   midi.NoteOnEvent(tick=2, channel=3, data=[43, 110]),
   midi.NoteOnEvent(tick=46, channel=3, data=[43, 0]),
   midi.NoteOnEvent(tick=2, channel=3, data=[43, 110]),
   midi.NoteOnEvent(tick=46, channel=3, data=[43, 0]),
   midi.NoteOnEvent(tick=2, channel=3, data=[43, 110]),
   midi.NoteOnEvent(tick=46, channel=3, data=[43, 0]),
   midi.NoteOnEvent(tick=2, channel=3, data=[43, 110]),
   midi.NoteOnEvent(tick=46, channel=3, data=[43, 0]),
   midi.NoteOnEvent(tick=2, channel=3, data=[47, 110]),
   midi.NoteOnEvent(tick=94, channel=3, data=[47, 0]),
   midi.NoteOnEvent(tick=2, channel=3, data=[47, 110]),
   midi.NoteOnEvent(tick=46, channel=3, data=[47, 0]),
   midi.NoteOnEvent(tick=2, channel=3, data=[47, 110]),
   midi.NoteOnEvent(tick=46, channel=3, data=[47, 0]),
   midi.NoteOnEvent(tick=2, channel=3, data=[47, 110]),
   midi.NoteOnEvent(tick=94, channel=3, data=[47, 0]),
   midi.NoteOnEvent(tick=2, channel=3, data=[47, 110]),
   midi.NoteOnEvent(tick=94, channel=3, data=[47, 0]),
   midi.NoteOnEvent(tick=2, channel=3, data=[47, 110]),
   midi.NoteOnEvent(tick=94, channel=3, data=[47, 0]),
   midi.NoteOnEvent(tick=2, channel=3, data=[47, 110]),
   midi.NoteOnEvent(tick=94, channel=3, data=[47, 0]),
   midi.NoteOnEvent(tick=2, channel=3, data=[47, 110]),
   midi.NoteOnEvent(tick=46, channel=3, data=[47, 0]),
   midi.NoteOnEvent(tick=2, channel=3, data=[47, 110]),
   midi.NoteOnEvent(tick=46, channel=3, data=[47, 0]),
   midi.NoteOnEvent(tick=2, channel=3, data=[47, 110]),
   midi.NoteOnEvent(tick=46, channel=3, data=[47, 0]),
   midi.NoteOnEvent(tick=2, channel=3, data=[47, 110]),
   midi.NoteOnEvent(tick=46, channel=3, data=[47, 0]),
   midi.NoteOnEvent(tick=2, channel=3, data=[40, 110]),
   midi.NoteOnEvent(tick=94, channel=3, data=[40, 0]),
   midi.NoteOnEvent(tick=2, channel=3, data=[40, 110]),
   midi.NoteOnEvent(tick=46, channel=3, data=[40, 0]),
   midi.NoteOnEvent(tick=2, channel=3, data=[40, 110]),
   midi.NoteOnEvent(tick=46, channel=3, data=[40, 0]),
   midi.NoteOnEvent(tick=2, channel=3, data=[40, 110]),
   midi.NoteOnEvent(tick=94, channel=3, data=[40, 0]),
   midi.NoteOnEvent(tick=2, channel=3, data=[40, 110]),
   midi.NoteOnEvent(tick=94, channel=3, data=[40, 0]),
   midi.NoteOnEvent(tick=2, channel=3, data=[40, 110]),
   midi.NoteOnEvent(tick=94, channel=3, data=[40, 0]),
   midi.NoteOnEvent(tick=2, channel=3, data=[40, 110]),
   midi.NoteOnEvent(tick=94, channel=3, data=[40, 0]),
   midi.NoteOnEvent(tick=2, channel=3, data=[40, 110]),
   midi.NoteOnEvent(tick=46, channel=3, data=[40, 0]),
   midi.NoteOnEvent(tick=2, channel=3, data=[40, 110]),
   midi.NoteOnEvent(tick=46, channel=3, data=[40, 0]),
   midi.NoteOnEvent(tick=2, channel=3, data=[40, 110]),
   midi.NoteOnEvent(tick=46, channel=3, data=[40, 0]),
   midi.NoteOnEvent(tick=2, channel=3, data=[40, 110]),
   midi.NoteOnEvent(tick=46, channel=3, data=[40, 0]),
   midi.NoteOnEvent(tick=2, channel=3, data=[40, 110]),
   midi.NoteOnEvent(tick=94, channel=3, data=[40, 0]),
   midi.NoteOnEvent(tick=2, channel=3, data=[40, 110]),
   midi.NoteOnEvent(tick=46, channel=3, data=[40, 0]),
   midi.NoteOnEvent(tick=2, channel=3, data=[40, 110]),
   midi.NoteOnEvent(tick=46, channel=3, data=[40, 0]),
   midi.NoteOnEvent(tick=2, channel=3, data=[40, 110]),
   midi.NoteOnEvent(tick=94, channel=3, data=[40, 0]),
   midi.NoteOnEvent(tick=2, channel=3, data=[40, 110]),
   midi.NoteOnEvent(tick=94, channel=3, data=[40, 0]),
   midi.NoteOnEvent(tick=2, channel=3, data=[40, 110]),
   midi.NoteOnEvent(tick=94, channel=3, data=[40, 0]),
   midi.NoteOnEvent(tick=2, channel=3, data=[40, 110]),
   midi.NoteOnEvent(tick=94, channel=3, data=[40, 0]),
   midi.NoteOnEvent(tick=2, channel=3, data=[40, 110]),
   midi.NoteOnEvent(tick=46, channel=3, data=[40, 0]),
   midi.NoteOnEvent(tick=2, channel=3, data=[40, 110]),
   midi.NoteOnEvent(tick=46, channel=3, data=[40, 0]),
   midi.NoteOnEvent(tick=2, channel=3, data=[40, 110]),
   midi.NoteOnEvent(tick=46, channel=3, data=[40, 0]),
   midi.NoteOnEvent(tick=2, channel=3, data=[40, 110]),
   midi.NoteOnEvent(tick=46, channel=3, data=[40, 0]),
   midi.NoteOnEvent(tick=2, channel=3, data=[43, 110]),
   midi.NoteOnEvent(tick=94, channel=3, data=[43, 0]),
   midi.NoteOnEvent(tick=2, channel=3, data=[43, 110]),
   midi.NoteOnEvent(tick=46, channel=3, data=[43, 0]),
   midi.NoteOnEvent(tick=2, channel=3, data=[43, 110]),
   midi.NoteOnEvent(tick=46, channel=3, data=[43, 0]),
   midi.NoteOnEvent(tick=2, channel=3, data=[43, 110]),
   midi.NoteOnEvent(tick=94, channel=3, data=[43, 0]),
   midi.NoteOnEvent(tick=2, channel=3, data=[43, 110]),
   midi.NoteOnEvent(tick=94, channel=3, data=[43, 0]),
   midi.NoteOnEvent(tick=2, channel=3, data=[43, 110]),
   midi.NoteOnEvent(tick=94, channel=3, data=[43, 0]),
   midi.NoteOnEvent(tick=2, channel=3, data=[43, 110]),
   midi.NoteOnEvent(tick=94, channel=3, data=[43, 0]),
   midi.NoteOnEvent(tick=2, channel=3, data=[43, 110]),
   midi.NoteOnEvent(tick=46, channel=3, data=[43, 0]),
   midi.NoteOnEvent(tick=2, channel=3, data=[43, 110]),
   midi.NoteOnEvent(tick=46, channel=3, data=[43, 0]),
   midi.NoteOnEvent(tick=2, channel=3, data=[43, 110]),
   midi.NoteOnEvent(tick=46, channel=3, data=[43, 0]),
   midi.NoteOnEvent(tick=2, channel=3, data=[43, 110]),
   midi.NoteOnEvent(tick=46, channel=3, data=[43, 0]),
   midi.NoteOnEvent(tick=2, channel=3, data=[42, 110]),
   midi.NoteOnEvent(tick=94, channel=3, data=[42, 0]),
   midi.NoteOnEvent(tick=2, channel=3, data=[42, 110]),
   midi.NoteOnEvent(tick=46, channel=3, data=[42, 0]),
   midi.NoteOnEvent(tick=2, channel=3, data=[42, 110]),
   midi.NoteOnEvent(tick=46, channel=3, data=[42, 0]),
   midi.NoteOnEvent(tick=2, channel=3, data=[42, 110]),
   midi.NoteOnEvent(tick=94, channel=3, data=[42, 0]),
   midi.NoteOnEvent(tick=2, channel=3, data=[42, 110]),
   midi.NoteOnEvent(tick=94, channel=3, data=[42, 0]),
   midi.NoteOnEvent(tick=2, channel=3, data=[42, 110]),
   midi.NoteOnEvent(tick=94, channel=3, data=[42, 0]),
   midi.NoteOnEvent(tick=2, channel=3, data=[42, 110]),
   midi.NoteOnEvent(tick=94, channel=3, data=[42, 0]),
   midi.NoteOnEvent(tick=2, channel=3, data=[42, 110]),
   midi.NoteOnEvent(tick=46, channel=3, data=[42, 0]),
   midi.NoteOnEvent(tick=2, channel=3, data=[42, 110]),
   midi.NoteOnEvent(tick=46, channel=3, data=[42, 0]),
   midi.NoteOnEvent(tick=2, channel=3, data=[42, 110]),
   midi.NoteOnEvent(tick=46, channel=3, data=[42, 0]),
   midi.NoteOnEvent(tick=2, channel=3, data=[42, 110]),
   midi.NoteOnEvent(tick=46, channel=3, data=[42, 0]),
   midi.NoteOnEvent(tick=2, channel=3, data=[40, 110]),
   midi.NoteOnEvent(tick=94, channel=3, data=[40, 0]),
   midi.NoteOnEvent(tick=2, channel=3, data=[40, 110]),
   midi.NoteOnEvent(tick=46, channel=3, data=[40, 0]),
   midi.NoteOnEvent(tick=2, channel=3, data=[40, 110]),
   midi.NoteOnEvent(tick=46, channel=3, data=[40, 0]),
   midi.NoteOnEvent(tick=2, channel=3, data=[40, 110]),
   midi.NoteOnEvent(tick=94, channel=3, data=[40, 0]),
   midi.NoteOnEvent(tick=2, channel=3, data=[40, 110]),
   midi.NoteOnEvent(tick=94, channel=3, data=[40, 0]),
   midi.NoteOnEvent(tick=2, channel=3, data=[40, 110]),
   midi.NoteOnEvent(tick=94, channel=3, data=[40, 0]),
   midi.NoteOnEvent(tick=2, channel=3, data=[40, 110]),
   midi.NoteOnEvent(tick=94, channel=3, data=[40, 0]),
   midi.NoteOnEvent(tick=2, channel=3, data=[40, 110]),
   midi.NoteOnEvent(tick=46, channel=3, data=[40, 0]),
   midi.NoteOnEvent(tick=2, channel=3, data=[40, 110]),
   midi.NoteOnEvent(tick=46, channel=3, data=[40, 0]),
   midi.NoteOnEvent(tick=2, channel=3, data=[40, 110]),
   midi.NoteOnEvent(tick=46, channel=3, data=[40, 0]),
   midi.NoteOnEvent(tick=2, channel=3, data=[40, 110]),
   midi.NoteOnEvent(tick=46, channel=3, data=[40, 0]),
   midi.NoteOnEvent(tick=2, channel=3, data=[40, 110]),
   midi.NoteOnEvent(tick=94, channel=3, data=[40, 0]),
   midi.NoteOnEvent(tick=2, channel=3, data=[40, 110]),
   midi.NoteOnEvent(tick=46, channel=3, data=[40, 0]),
   midi.NoteOnEvent(tick=2, channel=3, data=[40, 110]),
   midi.NoteOnEvent(tick=46, channel=3, data=[40, 0]),
   midi.NoteOnEvent(tick=2, channel=3, data=[40, 110]),
   midi.NoteOnEvent(tick=94, channel=3, data=[40, 0]),
   midi.NoteOnEvent(tick=2, channel=3, data=[40, 110]),
   midi.NoteOnEvent(tick=94, channel=3, data=[40, 0]),
   midi.NoteOnEvent(tick=2, channel=3, data=[40, 110]),
   midi.NoteOnEvent(tick=94, channel=3, data=[40, 0]),
   midi.NoteOnEvent(tick=2, channel=3, data=[40, 110]),
   midi.NoteOnEvent(tick=94, channel=3, data=[40, 0]),
   midi.NoteOnEvent(tick=2, channel=3, data=[40, 110]),
   midi.NoteOnEvent(tick=46, channel=3, data=[40, 0]),
   midi.NoteOnEvent(tick=2, channel=3, data=[40, 110]),
   midi.NoteOnEvent(tick=46, channel=3, data=[40, 0]),
   midi.NoteOnEvent(tick=2, channel=3, data=[40, 110]),
   midi.NoteOnEvent(tick=46, channel=3, data=[40, 0]),
   midi.NoteOnEvent(tick=2, channel=3, data=[40, 110]),
   midi.NoteOnEvent(tick=46, channel=3, data=[40, 0]),
   midi.NoteOnEvent(tick=2, channel=3, data=[43, 110]),
   midi.NoteOnEvent(tick=94, channel=3, data=[43, 0]),
   midi.NoteOnEvent(tick=2, channel=3, data=[43, 110]),
   midi.NoteOnEvent(tick=46, channel=3, data=[43, 0]),
   midi.NoteOnEvent(tick=2, channel=3, data=[43, 110]),
   midi.NoteOnEvent(tick=46, channel=3, data=[43, 0]),
   midi.NoteOnEvent(tick=2, channel=3, data=[43, 110]),
   midi.NoteOnEvent(tick=94, channel=3, data=[43, 0]),
   midi.NoteOnEvent(tick=2, channel=3, data=[43, 110]),
   midi.NoteOnEvent(tick=94, channel=3, data=[43, 0]),
   midi.NoteOnEvent(tick=2, channel=3, data=[43, 110]),
   midi.NoteOnEvent(tick=94, channel=3, data=[43, 0]),
   midi.NoteOnEvent(tick=2, channel=3, data=[43, 110]),
   midi.NoteOnEvent(tick=94, channel=3, data=[43, 0]),
   midi.NoteOnEvent(tick=2, channel=3, data=[43, 110]),
   midi.NoteOnEvent(tick=46, channel=3, data=[43, 0]),
   midi.NoteOnEvent(tick=2, channel=3, data=[43, 110]),
   midi.NoteOnEvent(tick=46, channel=3, data=[43, 0]),
   midi.NoteOnEvent(tick=2, channel=3, data=[43, 110]),
   midi.NoteOnEvent(tick=46, channel=3, data=[43, 0]),
   midi.NoteOnEvent(tick=2, channel=3, data=[43, 110]),
   midi.NoteOnEvent(tick=46, channel=3, data=[43, 0]),
   midi.NoteOnEvent(tick=2, channel=3, data=[47, 110]),
   midi.NoteOnEvent(tick=94, channel=3, data=[47, 0]),
   midi.NoteOnEvent(tick=2, channel=3, data=[47, 110]),
   midi.NoteOnEvent(tick=46, channel=3, data=[47, 0]),
   midi.NoteOnEvent(tick=2, channel=3, data=[47, 110]),
   midi.NoteOnEvent(tick=46, channel=3, data=[47, 0]),
   midi.NoteOnEvent(tick=2, channel=3, data=[47, 110]),
   midi.NoteOnEvent(tick=94, channel=3, data=[47, 0]),
   midi.NoteOnEvent(tick=2, channel=3, data=[47, 110]),
   midi.NoteOnEvent(tick=94, channel=3, data=[47, 0]),
   midi.NoteOnEvent(tick=2, channel=3, data=[47, 110]),
   midi.NoteOnEvent(tick=94, channel=3, data=[47, 0]),
   midi.NoteOnEvent(tick=2, channel=3, data=[47, 110]),
   midi.NoteOnEvent(tick=94, channel=3, data=[47, 0]),
   midi.NoteOnEvent(tick=2, channel=3, data=[47, 110]),
   midi.NoteOnEvent(tick=46, channel=3, data=[47, 0]),
   midi.NoteOnEvent(tick=2, channel=3, data=[47, 110]),
   midi.NoteOnEvent(tick=46, channel=3, data=[47, 0]),
   midi.NoteOnEvent(tick=2, channel=3, data=[47, 110]),
   midi.NoteOnEvent(tick=46, channel=3, data=[47, 0]),
   midi.NoteOnEvent(tick=2, channel=3, data=[47, 110]),
   midi.NoteOnEvent(tick=46, channel=3, data=[47, 0]),
   midi.NoteOnEvent(tick=2, channel=3, data=[49, 110]),
   midi.NoteOnEvent(tick=94, channel=3, data=[49, 0]),
   midi.NoteOnEvent(tick=2, channel=3, data=[49, 110]),
   midi.NoteOnEvent(tick=46, channel=3, data=[49, 0]),
   midi.NoteOnEvent(tick=2, channel=3, data=[49, 110]),
   midi.NoteOnEvent(tick=46, channel=3, data=[49, 0]),
   midi.NoteOnEvent(tick=2, channel=3, data=[49, 110]),
   midi.NoteOnEvent(tick=46, channel=3, data=[49, 0]),
   midi.NoteOnEvent(tick=2, channel=3, data=[49, 110]),
   midi.NoteOnEvent(tick=46, channel=3, data=[49, 0]),
   midi.NoteOnEvent(tick=2, channel=3, data=[49, 110]),
   midi.NoteOnEvent(tick=46, channel=3, data=[49, 0]),
   midi.NoteOnEvent(tick=2, channel=3, data=[49, 110]),
   midi.NoteOnEvent(tick=46, channel=3, data=[49, 0]),
   midi.NoteOnEvent(tick=2, channel=3, data=[49, 110]),
   midi.NoteOnEvent(tick=94, channel=3, data=[49, 0]),
   midi.NoteOnEvent(tick=2, channel=3, data=[49, 110]),
   midi.NoteOnEvent(tick=46, channel=3, data=[49, 0]),
   midi.NoteOnEvent(tick=2, channel=3, data=[49, 110]),
   midi.NoteOnEvent(tick=46, channel=3, data=[49, 0]),
   midi.NoteOnEvent(tick=2, channel=3, data=[49, 110]),
   midi.NoteOnEvent(tick=46, channel=3, data=[49, 0]),
   midi.NoteOnEvent(tick=2, channel=3, data=[49, 110]),
   midi.NoteOnEvent(tick=46, channel=3, data=[49, 0]),
   midi.NoteOnEvent(tick=2, channel=3, data=[49, 110]),
   midi.NoteOnEvent(tick=46, channel=3, data=[49, 0]),
   midi.NoteOnEvent(tick=2, channel=3, data=[49, 110]),
   midi.NoteOnEvent(tick=46, channel=3, data=[49, 0]),
   midi.NoteOnEvent(tick=2, channel=3, data=[49, 110]),
   midi.NoteOnEvent(tick=94, channel=3, data=[49, 0]),
   midi.NoteOnEvent(tick=2, channel=3, data=[49, 110]),
   midi.NoteOnEvent(tick=46, channel=3, data=[49, 0]),
   midi.NoteOnEvent(tick=2, channel=3, data=[49, 110]),
   midi.NoteOnEvent(tick=46, channel=3, data=[49, 0]),
   midi.NoteOnEvent(tick=2, channel=3, data=[49, 110]),
   midi.NoteOnEvent(tick=46, channel=3, data=[49, 0]),
   midi.NoteOnEvent(tick=2, channel=3, data=[49, 110]),
   midi.NoteOnEvent(tick=46, channel=3, data=[49, 0]),
   midi.NoteOnEvent(tick=2, channel=3, data=[49, 110]),
   midi.NoteOnEvent(tick=46, channel=3, data=[49, 0]),
   midi.NoteOnEvent(tick=2, channel=3, data=[49, 110]),
   midi.NoteOnEvent(tick=46, channel=3, data=[49, 0]),
   midi.NoteOnEvent(tick=2, channel=3, data=[49, 110]),
   midi.NoteOnEvent(tick=94, channel=3, data=[49, 0]),
   midi.NoteOnEvent(tick=2, channel=3, data=[49, 110]),
   midi.NoteOnEvent(tick=46, channel=3, data=[49, 0]),
   midi.NoteOnEvent(tick=2, channel=3, data=[49, 110]),
   midi.NoteOnEvent(tick=46, channel=3, data=[49, 0]),
   midi.NoteOnEvent(tick=2, channel=3, data=[49, 110]),
   midi.NoteOnEvent(tick=46, channel=3, data=[49, 0]),
   midi.NoteOnEvent(tick=2, channel=3, data=[49, 110]),
   midi.NoteOnEvent(tick=46, channel=3, data=[49, 0]),
   midi.NoteOnEvent(tick=2, channel=3, data=[49, 110]),
   midi.NoteOnEvent(tick=46, channel=3, data=[49, 0]),
   midi.NoteOnEvent(tick=2, channel=3, data=[49, 110]),
   midi.NoteOnEvent(tick=46, channel=3, data=[49, 0]),
   midi.NoteOnEvent(tick=2, channel=3, data=[49, 110]),
   midi.NoteOnEvent(tick=94, channel=3, data=[49, 0]),
   midi.NoteOnEvent(tick=2, channel=3, data=[49, 110]),
   midi.NoteOnEvent(tick=46, channel=3, data=[49, 0]),
   midi.NoteOnEvent(tick=2, channel=3, data=[49, 110]),
   midi.NoteOnEvent(tick=46, channel=3, data=[49, 0]),
   midi.NoteOnEvent(tick=2, channel=3, data=[49, 110]),
   midi.NoteOnEvent(tick=46, channel=3, data=[49, 0]),
   midi.NoteOnEvent(tick=2, channel=3, data=[49, 110]),
   midi.NoteOnEvent(tick=46, channel=3, data=[49, 0]),
   midi.NoteOnEvent(tick=2, channel=3, data=[49, 110]),
   midi.NoteOnEvent(tick=46, channel=3, data=[49, 0]),
   midi.NoteOnEvent(tick=2, channel=3, data=[49, 110]),
   midi.NoteOnEvent(tick=46, channel=3, data=[49, 0]),
   midi.NoteOnEvent(tick=2, channel=3, data=[49, 110]),
   midi.NoteOnEvent(tick=94, channel=3, data=[49, 0]),
   midi.NoteOnEvent(tick=2, channel=3, data=[49, 110]),
   midi.NoteOnEvent(tick=46, channel=3, data=[49, 0]),
   midi.NoteOnEvent(tick=2, channel=3, data=[49, 110]),
   midi.NoteOnEvent(tick=46, channel=3, data=[49, 0]),
   midi.NoteOnEvent(tick=2, channel=3, data=[47, 110]),
   midi.NoteOnEvent(tick=94, channel=3, data=[47, 0]),
   midi.NoteOnEvent(tick=2, channel=3, data=[47, 110]),
   midi.NoteOnEvent(tick=46, channel=3, data=[47, 0]),
   midi.NoteOnEvent(tick=2, channel=3, data=[47, 110]),
   midi.NoteOnEvent(tick=46, channel=3, data=[47, 0]),
   midi.NoteOnEvent(tick=2, channel=3, data=[47, 110]),
   midi.NoteOnEvent(tick=46, channel=3, data=[47, 0]),
   midi.NoteOnEvent(tick=2, channel=3, data=[47, 110]),
   midi.NoteOnEvent(tick=46, channel=3, data=[47, 0]),
   midi.NoteOnEvent(tick=2, channel=3, data=[47, 110]),
   midi.NoteOnEvent(tick=46, channel=3, data=[47, 0]),
   midi.NoteOnEvent(tick=2, channel=3, data=[47, 110]),
   midi.NoteOnEvent(tick=46, channel=3, data=[47, 0]),
   midi.NoteOnEvent(tick=2, channel=3, data=[47, 110]),
   midi.NoteOnEvent(tick=94, channel=3, data=[47, 0]),
   midi.NoteOnEvent(tick=2, channel=3, data=[47, 110]),
   midi.NoteOnEvent(tick=46, channel=3, data=[47, 0]),
   midi.NoteOnEvent(tick=2, channel=3, data=[47, 110]),
   midi.NoteOnEvent(tick=46, channel=3, data=[47, 0]),
   midi.NoteOnEvent(tick=2, channel=3, data=[49, 110]),
   midi.NoteOnEvent(tick=94, channel=3, data=[49, 0]),
   midi.NoteOnEvent(tick=2, channel=3, data=[49, 110]),
   midi.NoteOnEvent(tick=46, channel=3, data=[49, 0]),
   midi.NoteOnEvent(tick=2, channel=3, data=[49, 110]),
   midi.NoteOnEvent(tick=46, channel=3, data=[49, 0]),
   midi.NoteOnEvent(tick=2, channel=3, data=[49, 110]),
   midi.NoteOnEvent(tick=46, channel=3, data=[49, 0]),
   midi.NoteOnEvent(tick=2, channel=3, data=[49, 110]),
   midi.NoteOnEvent(tick=46, channel=3, data=[49, 0]),
   midi.NoteOnEvent(tick=2, channel=3, data=[49, 110]),
   midi.NoteOnEvent(tick=46, channel=3, data=[49, 0]),
   midi.NoteOnEvent(tick=2, channel=3, data=[49, 110]),
   midi.NoteOnEvent(tick=46, channel=3, data=[49, 0]),
   midi.NoteOnEvent(tick=2, channel=3, data=[49, 110]),
   midi.NoteOnEvent(tick=94, channel=3, data=[49, 0]),
   midi.NoteOnEvent(tick=2, channel=3, data=[49, 110]),
   midi.NoteOnEvent(tick=46, channel=3, data=[49, 0]),
   midi.NoteOnEvent(tick=2, channel=3, data=[49, 110]),
   midi.NoteOnEvent(tick=46, channel=3, data=[49, 0]),
   midi.NoteOnEvent(tick=2, channel=3, data=[49, 110]),
   midi.NoteOnEvent(tick=46, channel=3, data=[49, 0]),
   midi.NoteOnEvent(tick=2, channel=3, data=[49, 110]),
   midi.NoteOnEvent(tick=46, channel=3, data=[49, 0]),
   midi.NoteOnEvent(tick=2, channel=3, data=[49, 110]),
   midi.NoteOnEvent(tick=46, channel=3, data=[49, 0]),
   midi.NoteOnEvent(tick=2, channel=3, data=[49, 110]),
   midi.NoteOnEvent(tick=46, channel=3, data=[49, 0]),
   midi.NoteOnEvent(tick=2, channel=3, data=[49, 110]),
   midi.NoteOnEvent(tick=94, channel=3, data=[49, 0]),
   midi.NoteOnEvent(tick=2, channel=3, data=[49, 110]),
   midi.NoteOnEvent(tick=46, channel=3, data=[49, 0]),
   midi.NoteOnEvent(tick=2, channel=3, data=[49, 110]),
   midi.NoteOnEvent(tick=46, channel=3, data=[49, 0]),
   midi.NoteOnEvent(tick=2, channel=3, data=[49, 110]),
   midi.NoteOnEvent(tick=46, channel=3, data=[49, 0]),
   midi.NoteOnEvent(tick=2, channel=3, data=[49, 110]),
   midi.NoteOnEvent(tick=46, channel=3, data=[49, 0]),
   midi.NoteOnEvent(tick=2, channel=3, data=[49, 110]),
   midi.NoteOnEvent(tick=46, channel=3, data=[49, 0]),
   midi.NoteOnEvent(tick=2, channel=3, data=[49, 110]),
   midi.NoteOnEvent(tick=46, channel=3, data=[49, 0]),
   midi.NoteOnEvent(tick=2, channel=3, data=[49, 110]),
   midi.NoteOnEvent(tick=94, channel=3, data=[49, 0]),
   midi.NoteOnEvent(tick=2, channel=3, data=[49, 110]),
   midi.NoteOnEvent(tick=46, channel=3, data=[49, 0]),
   midi.NoteOnEvent(tick=2, channel=3, data=[49, 110]),
   midi.NoteOnEvent(tick=46, channel=3, data=[49, 0]),
   midi.NoteOnEvent(tick=2, channel=3, data=[49, 110]),
   midi.NoteOnEvent(tick=46, channel=3, data=[49, 0]),
   midi.NoteOnEvent(tick=2, channel=3, data=[49, 110]),
   midi.NoteOnEvent(tick=46, channel=3, data=[49, 0]),
   midi.NoteOnEvent(tick=2, channel=3, data=[49, 110]),
   midi.NoteOnEvent(tick=46, channel=3, data=[49, 0]),
   midi.NoteOnEvent(tick=2, channel=3, data=[49, 110]),
   midi.NoteOnEvent(tick=46, channel=3, data=[49, 0]),
   midi.NoteOnEvent(tick=2, channel=3, data=[49, 110]),
   midi.NoteOnEvent(tick=94, channel=3, data=[49, 0]),
   midi.NoteOnEvent(tick=2, channel=3, data=[49, 110]),
   midi.NoteOnEvent(tick=46, channel=3, data=[49, 0]),
   midi.NoteOnEvent(tick=2, channel=3, data=[49, 110]),
   midi.NoteOnEvent(tick=46, channel=3, data=[49, 0]),
   midi.NoteOnEvent(tick=2, channel=3, data=[49, 110]),
   midi.NoteOnEvent(tick=46, channel=3, data=[49, 0]),
   midi.NoteOnEvent(tick=2, channel=3, data=[49, 110]),
   midi.NoteOnEvent(tick=46, channel=3, data=[49, 0]),
   midi.NoteOnEvent(tick=2, channel=3, data=[49, 110]),
   midi.NoteOnEvent(tick=46, channel=3, data=[49, 0]),
   midi.NoteOnEvent(tick=2, channel=3, data=[49, 110]),
   midi.NoteOnEvent(tick=46, channel=3, data=[49, 0]),
   midi.NoteOnEvent(tick=2, channel=3, data=[49, 110]),
   midi.NoteOnEvent(tick=94, channel=3, data=[49, 0]),
   midi.NoteOnEvent(tick=2, channel=3, data=[49, 110]),
   midi.NoteOnEvent(tick=46, channel=3, data=[49, 0]),
   midi.NoteOnEvent(tick=2, channel=3, data=[49, 110]),
   midi.NoteOnEvent(tick=46, channel=3, data=[49, 0]),
   midi.NoteOnEvent(tick=2, channel=3, data=[47, 110]),
   midi.NoteOnEvent(tick=94, channel=3, data=[47, 0]),
   midi.NoteOnEvent(tick=2, channel=3, data=[47, 110]),
   midi.NoteOnEvent(tick=46, channel=3, data=[47, 0]),
   midi.NoteOnEvent(tick=2, channel=3, data=[47, 110]),
   midi.NoteOnEvent(tick=46, channel=3, data=[47, 0]),
   midi.NoteOnEvent(tick=2, channel=3, data=[47, 110]),
   midi.NoteOnEvent(tick=46, channel=3, data=[47, 0]),
   midi.NoteOnEvent(tick=2, channel=3, data=[47, 110]),
   midi.NoteOnEvent(tick=46, channel=3, data=[47, 0]),
   midi.NoteOnEvent(tick=2, channel=3, data=[47, 110]),
   midi.NoteOnEvent(tick=46, channel=3, data=[47, 0]),
   midi.NoteOnEvent(tick=2, channel=3, data=[47, 110]),
   midi.NoteOnEvent(tick=46, channel=3, data=[47, 0]),
   midi.NoteOnEvent(tick=2, channel=3, data=[47, 110]),
   midi.NoteOnEvent(tick=94, channel=3, data=[47, 0]),
   midi.NoteOnEvent(tick=2, channel=3, data=[47, 110]),
   midi.NoteOnEvent(tick=46, channel=3, data=[47, 0]),
   midi.NoteOnEvent(tick=2, channel=3, data=[47, 110]),
   midi.NoteOnEvent(tick=46, channel=3, data=[47, 0]),
   midi.NoteOnEvent(tick=2, channel=3, data=[49, 110]),
   midi.NoteOnEvent(tick=94, channel=3, data=[49, 0]),
   midi.NoteOnEvent(tick=2, channel=3, data=[49, 110]),
   midi.NoteOnEvent(tick=46, channel=3, data=[49, 0]),
   midi.NoteOnEvent(tick=2, channel=3, data=[49, 110]),
   midi.NoteOnEvent(tick=46, channel=3, data=[49, 0]),
   midi.NoteOnEvent(tick=2, channel=3, data=[49, 110]),
   midi.NoteOnEvent(tick=46, channel=3, data=[49, 0]),
   midi.NoteOnEvent(tick=2, channel=3, data=[49, 110]),
   midi.NoteOnEvent(tick=46, channel=3, data=[49, 0]),
   midi.NoteOnEvent(tick=2, channel=3, data=[49, 110]),
   midi.NoteOnEvent(tick=46, channel=3, data=[49, 0]),
   midi.NoteOnEvent(tick=2, channel=3, data=[49, 110]),
   midi.NoteOnEvent(tick=46, channel=3, data=[49, 0]),
   midi.NoteOnEvent(tick=2, channel=3, data=[49, 110]),
   midi.NoteOnEvent(tick=94, channel=3, data=[49, 0]),
   midi.NoteOnEvent(tick=2, channel=3, data=[49, 110]),
   midi.NoteOnEvent(tick=46, channel=3, data=[49, 0]),
   midi.NoteOnEvent(tick=2, channel=3, data=[49, 110]),
   midi.NoteOnEvent(tick=46, channel=3, data=[49, 0]),
   midi.NoteOnEvent(tick=2, channel=3, data=[49, 110]),
   midi.NoteOnEvent(tick=46, channel=3, data=[49, 0]),
   midi.NoteOnEvent(tick=2, channel=3, data=[49, 110]),
   midi.NoteOnEvent(tick=46, channel=3, data=[49, 0]),
   midi.NoteOnEvent(tick=2, channel=3, data=[49, 110]),
   midi.NoteOnEvent(tick=46, channel=3, data=[49, 0]),
   midi.NoteOnEvent(tick=2, channel=3, data=[49, 110]),
   midi.NoteOnEvent(tick=46, channel=3, data=[49, 0]),
   midi.NoteOnEvent(tick=2, channel=3, data=[49, 110]),
   midi.NoteOnEvent(tick=94, channel=3, data=[49, 0]),
   midi.NoteOnEvent(tick=2, channel=3, data=[49, 110]),
   midi.NoteOnEvent(tick=46, channel=3, data=[49, 0]),
   midi.NoteOnEvent(tick=2, channel=3, data=[49, 110]),
   midi.NoteOnEvent(tick=46, channel=3, data=[49, 0]),
   midi.NoteOnEvent(tick=2, channel=3, data=[49, 110]),
   midi.NoteOnEvent(tick=46, channel=3, data=[49, 0]),
   midi.NoteOnEvent(tick=2, channel=3, data=[49, 110]),
   midi.NoteOnEvent(tick=46, channel=3, data=[49, 0]),
   midi.NoteOnEvent(tick=2, channel=3, data=[49, 110]),
   midi.NoteOnEvent(tick=46, channel=3, data=[49, 0]),
   midi.NoteOnEvent(tick=2, channel=3, data=[49, 110]),
   midi.NoteOnEvent(tick=46, channel=3, data=[49, 0]),
   midi.NoteOnEvent(tick=2, channel=3, data=[49, 110]),
   midi.NoteOnEvent(tick=94, channel=3, data=[49, 0]),
   midi.NoteOnEvent(tick=2, channel=3, data=[49, 110]),
   midi.NoteOnEvent(tick=46, channel=3, data=[49, 0]),
   midi.NoteOnEvent(tick=2, channel=3, data=[49, 110]),
   midi.NoteOnEvent(tick=46, channel=3, data=[49, 0]),
   midi.NoteOnEvent(tick=2, channel=3, data=[49, 110]),
   midi.NoteOnEvent(tick=46, channel=3, data=[49, 0]),
   midi.NoteOnEvent(tick=2, channel=3, data=[49, 110]),
   midi.NoteOnEvent(tick=46, channel=3, data=[49, 0]),
   midi.NoteOnEvent(tick=2, channel=3, data=[49, 110]),
   midi.NoteOnEvent(tick=46, channel=3, data=[49, 0]),
   midi.NoteOnEvent(tick=2, channel=3, data=[49, 110]),
   midi.NoteOnEvent(tick=46, channel=3, data=[49, 0]),
   midi.NoteOnEvent(tick=2, channel=3, data=[49, 110]),
   midi.NoteOnEvent(tick=94, channel=3, data=[49, 0]),
   midi.NoteOnEvent(tick=2, channel=3, data=[49, 110]),
   midi.NoteOnEvent(tick=46, channel=3, data=[49, 0]),
   midi.NoteOnEvent(tick=2, channel=3, data=[49, 110]),
   midi.NoteOnEvent(tick=46, channel=3, data=[49, 0]),
   midi.NoteOnEvent(tick=2, channel=3, data=[49, 110]),
   midi.NoteOnEvent(tick=46, channel=3, data=[49, 0]),
   midi.NoteOnEvent(tick=2, channel=3, data=[49, 110]),
   midi.NoteOnEvent(tick=46, channel=3, data=[49, 0]),
   midi.NoteOnEvent(tick=2, channel=3, data=[49, 110]),
   midi.NoteOnEvent(tick=46, channel=3, data=[49, 0]),
   midi.NoteOnEvent(tick=2, channel=3, data=[49, 110]),
   midi.NoteOnEvent(tick=46, channel=3, data=[49, 0]),
   midi.NoteOnEvent(tick=2, channel=3, data=[49, 110]),
   midi.NoteOnEvent(tick=94, channel=3, data=[49, 0]),
   midi.NoteOnEvent(tick=2, channel=3, data=[49, 110]),
   midi.NoteOnEvent(tick=46, channel=3, data=[49, 0]),
   midi.NoteOnEvent(tick=2, channel=3, data=[49, 110]),
   midi.NoteOnEvent(tick=46, channel=3, data=[49, 0]),
   midi.NoteOnEvent(tick=2, channel=3, data=[47, 110]),
   midi.NoteOnEvent(tick=94, channel=3, data=[47, 0]),
   midi.NoteOnEvent(tick=2, channel=3, data=[47, 110]),
   midi.NoteOnEvent(tick=46, channel=3, data=[47, 0]),
   midi.NoteOnEvent(tick=2, channel=3, data=[47, 110]),
   midi.NoteOnEvent(tick=46, channel=3, data=[47, 0]),
   midi.NoteOnEvent(tick=2, channel=3, data=[47, 110]),
   midi.NoteOnEvent(tick=46, channel=3, data=[47, 0]),
   midi.NoteOnEvent(tick=2, channel=3, data=[47, 110]),
   midi.NoteOnEvent(tick=46, channel=3, data=[47, 0]),
   midi.NoteOnEvent(tick=2, channel=3, data=[47, 110]),
   midi.NoteOnEvent(tick=46, channel=3, data=[47, 0]),
   midi.NoteOnEvent(tick=2, channel=3, data=[47, 110]),
   midi.NoteOnEvent(tick=46, channel=3, data=[47, 0]),
   midi.NoteOnEvent(tick=2, channel=3, data=[47, 110]),
   midi.NoteOnEvent(tick=94, channel=3, data=[47, 0]),
   midi.NoteOnEvent(tick=2, channel=3, data=[47, 110]),
   midi.NoteOnEvent(tick=46, channel=3, data=[47, 0]),
   midi.NoteOnEvent(tick=2, channel=3, data=[47, 110]),
   midi.NoteOnEvent(tick=46, channel=3, data=[47, 0]),
   midi.NoteOnEvent(tick=2, channel=3, data=[49, 110]),
   midi.NoteOnEvent(tick=94, channel=3, data=[49, 0]),
   midi.NoteOnEvent(tick=2, channel=3, data=[49, 110]),
   midi.NoteOnEvent(tick=46, channel=3, data=[49, 0]),
   midi.NoteOnEvent(tick=2, channel=3, data=[49, 110]),
   midi.NoteOnEvent(tick=46, channel=3, data=[49, 0]),
   midi.NoteOnEvent(tick=2, channel=3, data=[49, 110]),
   midi.NoteOnEvent(tick=46, channel=3, data=[49, 0]),
   midi.NoteOnEvent(tick=2, channel=3, data=[49, 110]),
   midi.NoteOnEvent(tick=46, channel=3, data=[49, 0]),
   midi.NoteOnEvent(tick=2, channel=3, data=[49, 110]),
   midi.NoteOnEvent(tick=46, channel=3, data=[49, 0]),
   midi.NoteOnEvent(tick=2, channel=3, data=[49, 110]),
   midi.NoteOnEvent(tick=46, channel=3, data=[49, 0]),
   midi.NoteOnEvent(tick=2, channel=3, data=[49, 110]),
   midi.NoteOnEvent(tick=94, channel=3, data=[49, 0]),
   midi.NoteOnEvent(tick=2, channel=3, data=[49, 110]),
   midi.NoteOnEvent(tick=46, channel=3, data=[49, 0]),
   midi.NoteOnEvent(tick=2, channel=3, data=[49, 110]),
   midi.NoteOnEvent(tick=46, channel=3, data=[49, 0]),
   midi.NoteOnEvent(tick=2, channel=3, data=[49, 110]),
   midi.NoteOnEvent(tick=46, channel=3, data=[49, 0]),
   midi.NoteOnEvent(tick=2, channel=3, data=[49, 110]),
   midi.NoteOnEvent(tick=46, channel=3, data=[49, 0]),
   midi.NoteOnEvent(tick=2, channel=3, data=[49, 110]),
   midi.NoteOnEvent(tick=46, channel=3, data=[49, 0]),
   midi.NoteOnEvent(tick=2, channel=3, data=[49, 110]),
   midi.NoteOnEvent(tick=46, channel=3, data=[49, 0]),
   midi.NoteOnEvent(tick=2, channel=3, data=[49, 110]),
   midi.NoteOnEvent(tick=94, channel=3, data=[49, 0]),
   midi.NoteOnEvent(tick=2, channel=3, data=[49, 110]),
   midi.NoteOnEvent(tick=46, channel=3, data=[49, 0]),
   midi.NoteOnEvent(tick=2, channel=3, data=[49, 110]),
   midi.NoteOnEvent(tick=46, channel=3, data=[49, 0]),
   midi.NoteOnEvent(tick=2, channel=3, data=[49, 110]),
   midi.NoteOnEvent(tick=46, channel=3, data=[49, 0]),
   midi.NoteOnEvent(tick=2, channel=3, data=[49, 110]),
   midi.NoteOnEvent(tick=46, channel=3, data=[49, 0]),
   midi.NoteOnEvent(tick=2, channel=3, data=[49, 110]),
   midi.NoteOnEvent(tick=46, channel=3, data=[49, 0]),
   midi.NoteOnEvent(tick=2, channel=3, data=[49, 110]),
   midi.NoteOnEvent(tick=46, channel=3, data=[49, 0]),
   midi.NoteOnEvent(tick=2, channel=3, data=[49, 110]),
   midi.NoteOnEvent(tick=94, channel=3, data=[49, 0]),
   midi.NoteOnEvent(tick=2, channel=3, data=[49, 110]),
   midi.NoteOnEvent(tick=46, channel=3, data=[49, 0]),
   midi.NoteOnEvent(tick=2, channel=3, data=[49, 110]),
   midi.NoteOnEvent(tick=46, channel=3, data=[49, 0]),
   midi.NoteOnEvent(tick=2, channel=3, data=[49, 110]),
   midi.NoteOnEvent(tick=46, channel=3, data=[49, 0]),
   midi.NoteOnEvent(tick=2, channel=3, data=[49, 110]),
   midi.NoteOnEvent(tick=46, channel=3, data=[49, 0]),
   midi.NoteOnEvent(tick=2, channel=3, data=[49, 110]),
   midi.NoteOnEvent(tick=46, channel=3, data=[49, 0]),
   midi.NoteOnEvent(tick=2, channel=3, data=[49, 110]),
   midi.NoteOnEvent(tick=46, channel=3, data=[49, 0]),
   midi.NoteOnEvent(tick=2, channel=3, data=[49, 110]),
   midi.NoteOnEvent(tick=94, channel=3, data=[49, 0]),
   midi.NoteOnEvent(tick=2, channel=3, data=[49, 110]),
   midi.NoteOnEvent(tick=46, channel=3, data=[49, 0]),
   midi.NoteOnEvent(tick=2, channel=3, data=[49, 110]),
   midi.NoteOnEvent(tick=46, channel=3, data=[49, 0]),
   midi.NoteOnEvent(tick=2, channel=3, data=[49, 110]),
   midi.NoteOnEvent(tick=46, channel=3, data=[49, 0]),
   midi.NoteOnEvent(tick=2, channel=3, data=[49, 110]),
   midi.NoteOnEvent(tick=46, channel=3, data=[49, 0]),
   midi.NoteOnEvent(tick=2, channel=3, data=[49, 110]),
   midi.NoteOnEvent(tick=46, channel=3, data=[49, 0]),
   midi.NoteOnEvent(tick=2, channel=3, data=[49, 110]),
   midi.NoteOnEvent(tick=46, channel=3, data=[49, 0]),
   midi.NoteOnEvent(tick=2, channel=3, data=[49, 110]),
   midi.NoteOnEvent(tick=94, channel=3, data=[49, 0]),
   midi.NoteOnEvent(tick=2, channel=3, data=[49, 110]),
   midi.NoteOnEvent(tick=46, channel=3, data=[49, 0]),
   midi.NoteOnEvent(tick=2, channel=3, data=[49, 110]),
   midi.NoteOnEvent(tick=46, channel=3, data=[49, 0]),
   midi.NoteOnEvent(tick=2, channel=3, data=[47, 110]),
   midi.NoteOnEvent(tick=94, channel=3, data=[47, 0]),
   midi.NoteOnEvent(tick=2, channel=3, data=[47, 110]),
   midi.NoteOnEvent(tick=46, channel=3, data=[47, 0]),
   midi.NoteOnEvent(tick=2, channel=3, data=[47, 110]),
   midi.NoteOnEvent(tick=46, channel=3, data=[47, 0]),
   midi.NoteOnEvent(tick=2, channel=3, data=[47, 110]),
   midi.NoteOnEvent(tick=46, channel=3, data=[47, 0]),
   midi.NoteOnEvent(tick=2, channel=3, data=[47, 110]),
   midi.NoteOnEvent(tick=46, channel=3, data=[47, 0]),
   midi.NoteOnEvent(tick=2, channel=3, data=[47, 110]),
   midi.NoteOnEvent(tick=46, channel=3, data=[47, 0]),
   midi.NoteOnEvent(tick=2, channel=3, data=[47, 110]),
   midi.NoteOnEvent(tick=46, channel=3, data=[47, 0]),
   midi.NoteOnEvent(tick=2, channel=3, data=[47, 110]),
   midi.NoteOnEvent(tick=94, channel=3, data=[47, 0]),
   midi.NoteOnEvent(tick=2, channel=3, data=[47, 110]),
   midi.NoteOnEvent(tick=46, channel=3, data=[47, 0]),
   midi.NoteOnEvent(tick=2, channel=3, data=[47, 110]),
   midi.NoteOnEvent(tick=46, channel=3, data=[47, 0]),
   midi.NoteOnEvent(tick=2, channel=3, data=[47, 110]),
   midi.NoteOnEvent(tick=94, channel=3, data=[47, 0]),
   midi.NoteOnEvent(tick=2, channel=3, data=[47, 110]),
   midi.NoteOnEvent(tick=46, channel=3, data=[47, 0]),
   midi.NoteOnEvent(tick=2, channel=3, data=[47, 110]),
   midi.NoteOnEvent(tick=46, channel=3, data=[47, 0]),
   midi.NoteOnEvent(tick=2, channel=3, data=[47, 110]),
   midi.NoteOnEvent(tick=46, channel=3, data=[47, 0]),
   midi.NoteOnEvent(tick=2, channel=3, data=[47, 110]),
   midi.NoteOnEvent(tick=46, channel=3, data=[47, 0]),
   midi.NoteOnEvent(tick=2, channel=3, data=[47, 110]),
   midi.NoteOnEvent(tick=46, channel=3, data=[47, 0]),
   midi.NoteOnEvent(tick=2, channel=3, data=[47, 110]),
   midi.NoteOnEvent(tick=46, channel=3, data=[47, 0]),
   midi.NoteOnEvent(tick=2, channel=3, data=[47, 110]),
   midi.NoteOnEvent(tick=94, channel=3, data=[47, 0]),
   midi.NoteOnEvent(tick=2, channel=3, data=[47, 110]),
   midi.NoteOnEvent(tick=46, channel=3, data=[47, 0]),
   midi.NoteOnEvent(tick=2, channel=3, data=[47, 110]),
   midi.NoteOnEvent(tick=46, channel=3, data=[47, 0]),
   midi.NoteOnEvent(tick=2, channel=3, data=[47, 110]),
   midi.NoteOnEvent(tick=46, channel=3, data=[47, 0]),
   midi.NoteOnEvent(tick=2, channel=3, data=[47, 110]),
   midi.NoteOnEvent(tick=46, channel=3, data=[47, 0]),
   midi.NoteOnEvent(tick=2, channel=3, data=[47, 110]),
   midi.NoteOnEvent(tick=46, channel=3, data=[47, 0]),
   midi.NoteOnEvent(tick=2, channel=3, data=[47, 110]),
   midi.NoteOnEvent(tick=46, channel=3, data=[47, 0]),
   midi.NoteOnEvent(tick=2, channel=3, data=[47, 110]),
   midi.NoteOnEvent(tick=94, channel=3, data=[47, 0]),
   midi.NoteOnEvent(tick=2, channel=3, data=[47, 110]),
   midi.NoteOnEvent(tick=46, channel=3, data=[47, 0]),
   midi.NoteOnEvent(tick=2, channel=3, data=[47, 110]),
   midi.NoteOnEvent(tick=46, channel=3, data=[47, 0]),
   midi.NoteOnEvent(tick=2, channel=3, data=[47, 110]),
   midi.NoteOnEvent(tick=46, channel=3, data=[47, 0]),
   midi.NoteOnEvent(tick=2, channel=3, data=[47, 110]),
   midi.NoteOnEvent(tick=46, channel=3, data=[47, 0]),
   midi.NoteOnEvent(tick=2, channel=3, data=[47, 110]),
   midi.NoteOnEvent(tick=46, channel=3, data=[47, 0]),
   midi.NoteOnEvent(tick=2, channel=3, data=[47, 110]),
   midi.NoteOnEvent(tick=46, channel=3, data=[47, 0]),
   midi.NoteOnEvent(tick=2, channel=3, data=[47, 110]),
   midi.NoteOnEvent(tick=94, channel=3, data=[47, 0]),
   midi.NoteOnEvent(tick=2, channel=3, data=[47, 110]),
   midi.NoteOnEvent(tick=46, channel=3, data=[47, 0]),
   midi.NoteOnEvent(tick=2, channel=3, data=[47, 110]),
   midi.NoteOnEvent(tick=46, channel=3, data=[47, 0]),
   midi.NoteOnEvent(tick=2, channel=3, data=[47, 110]),
   midi.NoteOnEvent(tick=46, channel=3, data=[47, 0]),
   midi.NoteOnEvent(tick=2, channel=3, data=[47, 110]),
   midi.NoteOnEvent(tick=46, channel=3, data=[47, 0]),
   midi.NoteOnEvent(tick=2, channel=3, data=[47, 110]),
   midi.NoteOnEvent(tick=46, channel=3, data=[47, 0]),
   midi.NoteOnEvent(tick=2, channel=3, data=[47, 110]),
   midi.NoteOnEvent(tick=46, channel=3, data=[47, 0]),
   midi.NoteOnEvent(tick=2, channel=3, data=[47, 110]),
   midi.NoteOnEvent(tick=94, channel=3, data=[47, 0]),
   midi.NoteOnEvent(tick=2, channel=3, data=[47, 110]),
   midi.NoteOnEvent(tick=46, channel=3, data=[47, 0]),
   midi.NoteOnEvent(tick=2, channel=3, data=[47, 110]),
   midi.NoteOnEvent(tick=46, channel=3, data=[47, 0]),
   midi.NoteOnEvent(tick=2, channel=3, data=[47, 110]),
   midi.NoteOnEvent(tick=46, channel=3, data=[47, 0]),
   midi.NoteOnEvent(tick=2, channel=3, data=[47, 110]),
   midi.NoteOnEvent(tick=46, channel=3, data=[47, 0]),
   midi.NoteOnEvent(tick=2, channel=3, data=[47, 110]),
   midi.NoteOnEvent(tick=46, channel=3, data=[47, 0]),
   midi.NoteOnEvent(tick=2, channel=3, data=[47, 110]),
   midi.NoteOnEvent(tick=46, channel=3, data=[47, 0]),
   midi.NoteOnEvent(tick=2, channel=3, data=[47, 110]),
   midi.NoteOnEvent(tick=94, channel=3, data=[47, 0]),
   midi.NoteOnEvent(tick=2, channel=3, data=[47, 110]),
   midi.NoteOnEvent(tick=46, channel=3, data=[47, 0]),
   midi.NoteOnEvent(tick=2, channel=3, data=[47, 110]),
   midi.NoteOnEvent(tick=46, channel=3, data=[47, 0]),
   midi.NoteOnEvent(tick=2, channel=3, data=[45, 110]),
   midi.NoteOnEvent(tick=94, channel=3, data=[45, 0]),
   midi.NoteOnEvent(tick=2, channel=3, data=[45, 110]),
   midi.NoteOnEvent(tick=46, channel=3, data=[45, 0]),
   midi.NoteOnEvent(tick=2, channel=3, data=[45, 110]),
   midi.NoteOnEvent(tick=46, channel=3, data=[45, 0]),
   midi.NoteOnEvent(tick=2, channel=3, data=[45, 110]),
   midi.NoteOnEvent(tick=46, channel=3, data=[45, 0]),
   midi.NoteOnEvent(tick=2, channel=3, data=[45, 110]),
   midi.NoteOnEvent(tick=46, channel=3, data=[45, 0]),
   midi.NoteOnEvent(tick=2, channel=3, data=[45, 110]),
   midi.NoteOnEvent(tick=46, channel=3, data=[45, 0]),
   midi.NoteOnEvent(tick=2, channel=3, data=[45, 110]),
   midi.NoteOnEvent(tick=46, channel=3, data=[45, 0]),
   midi.NoteOnEvent(tick=2, channel=3, data=[45, 110]),
   midi.NoteOnEvent(tick=94, channel=3, data=[45, 0]),
   midi.NoteOnEvent(tick=2, channel=3, data=[45, 110]),
   midi.NoteOnEvent(tick=46, channel=3, data=[45, 0]),
   midi.NoteOnEvent(tick=2, channel=3, data=[45, 110]),
   midi.NoteOnEvent(tick=46, channel=3, data=[45, 0]),
   midi.NoteOnEvent(tick=2, channel=3, data=[47, 110]),
   midi.NoteOnEvent(tick=94, channel=3, data=[47, 0]),
   midi.NoteOnEvent(tick=2, channel=3, data=[47, 110]),
   midi.NoteOnEvent(tick=46, channel=3, data=[47, 0]),
   midi.NoteOnEvent(tick=2, channel=3, data=[47, 110]),
   midi.NoteOnEvent(tick=46, channel=3, data=[47, 0]),
   midi.NoteOnEvent(tick=2, channel=3, data=[47, 110]),
   midi.NoteOnEvent(tick=46, channel=3, data=[47, 0]),
   midi.NoteOnEvent(tick=2, channel=3, data=[47, 110]),
   midi.NoteOnEvent(tick=46, channel=3, data=[47, 0]),
   midi.NoteOnEvent(tick=2, channel=3, data=[47, 110]),
   midi.NoteOnEvent(tick=46, channel=3, data=[47, 0]),
   midi.NoteOnEvent(tick=2, channel=3, data=[47, 110]),
   midi.NoteOnEvent(tick=46, channel=3, data=[47, 0]),
   midi.NoteOnEvent(tick=2, channel=3, data=[47, 110]),
   midi.NoteOnEvent(tick=94, channel=3, data=[47, 0]),
   midi.NoteOnEvent(tick=2, channel=3, data=[47, 110]),
   midi.NoteOnEvent(tick=46, channel=3, data=[47, 0]),
   midi.NoteOnEvent(tick=2, channel=3, data=[47, 110]),
   midi.NoteOnEvent(tick=46, channel=3, data=[47, 0]),
   midi.NoteOnEvent(tick=2, channel=3, data=[47, 110]),
   midi.NoteOnEvent(tick=46, channel=3, data=[47, 0]),
   midi.NoteOnEvent(tick=2, channel=3, data=[47, 110]),
   midi.NoteOnEvent(tick=46, channel=3, data=[47, 0]),
   midi.NoteOnEvent(tick=2, channel=3, data=[47, 110]),
   midi.NoteOnEvent(tick=46, channel=3, data=[47, 0]),
   midi.NoteOnEvent(tick=2, channel=3, data=[47, 110]),
   midi.NoteOnEvent(tick=46, channel=3, data=[47, 0]),
   midi.NoteOnEvent(tick=2, channel=3, data=[47, 110]),
   midi.NoteOnEvent(tick=94, channel=3, data=[47, 0]),
   midi.NoteOnEvent(tick=2, channel=3, data=[47, 110]),
   midi.NoteOnEvent(tick=46, channel=3, data=[47, 0]),
   midi.NoteOnEvent(tick=2, channel=3, data=[47, 110]),
   midi.NoteOnEvent(tick=46, channel=3, data=[47, 0]),
   midi.NoteOnEvent(tick=2, channel=3, data=[47, 110]),
   midi.NoteOnEvent(tick=46, channel=3, data=[47, 0]),
   midi.NoteOnEvent(tick=2, channel=3, data=[47, 110]),
   midi.NoteOnEvent(tick=46, channel=3, data=[47, 0]),
   midi.NoteOnEvent(tick=2, channel=3, data=[47, 110]),
   midi.NoteOnEvent(tick=46, channel=3, data=[47, 0]),
   midi.NoteOnEvent(tick=2, channel=3, data=[47, 110]),
   midi.NoteOnEvent(tick=46, channel=3, data=[47, 0]),
   midi.NoteOnEvent(tick=2, channel=3, data=[47, 110]),
   midi.NoteOnEvent(tick=94, channel=3, data=[47, 0]),
   midi.NoteOnEvent(tick=2, channel=3, data=[47, 110]),
   midi.NoteOnEvent(tick=46, channel=3, data=[47, 0]),
   midi.NoteOnEvent(tick=2, channel=3, data=[47, 110]),
   midi.NoteOnEvent(tick=46, channel=3, data=[47, 0]),
   midi.NoteOnEvent(tick=2, channel=3, data=[47, 110]),
   midi.NoteOnEvent(tick=46, channel=3, data=[47, 0]),
   midi.NoteOnEvent(tick=2, channel=3, data=[47, 110]),
   midi.NoteOnEvent(tick=46, channel=3, data=[47, 0]),
   midi.NoteOnEvent(tick=2, channel=3, data=[47, 110]),
   midi.NoteOnEvent(tick=46, channel=3, data=[47, 0]),
   midi.NoteOnEvent(tick=2, channel=3, data=[47, 110]),
   midi.NoteOnEvent(tick=46, channel=3, data=[47, 0]),
   midi.NoteOnEvent(tick=2, channel=3, data=[47, 110]),
   midi.NoteOnEvent(tick=94, channel=3, data=[47, 0]),
   midi.NoteOnEvent(tick=2, channel=3, data=[47, 110]),
   midi.NoteOnEvent(tick=46, channel=3, data=[47, 0]),
   midi.NoteOnEvent(tick=2, channel=3, data=[47, 110]),
   midi.NoteOnEvent(tick=46, channel=3, data=[47, 0]),
   midi.NoteOnEvent(tick=2, channel=3, data=[47, 110]),
   midi.NoteOnEvent(tick=46, channel=3, data=[47, 0]),
   midi.NoteOnEvent(tick=2, channel=3, data=[47, 110]),
   midi.NoteOnEvent(tick=46, channel=3, data=[47, 0]),
   midi.NoteOnEvent(tick=2, channel=3, data=[47, 110]),
   midi.NoteOnEvent(tick=46, channel=3, data=[47, 0]),
   midi.NoteOnEvent(tick=2, channel=3, data=[47, 110]),
   midi.NoteOnEvent(tick=46, channel=3, data=[47, 0]),
   midi.NoteOnEvent(tick=2, channel=3, data=[47, 110]),
   midi.NoteOnEvent(tick=94, channel=3, data=[47, 0]),
   midi.NoteOnEvent(tick=2, channel=3, data=[47, 110]),
   midi.NoteOnEvent(tick=46, channel=3, data=[47, 0]),
   midi.NoteOnEvent(tick=2, channel=3, data=[47, 110]),
   midi.NoteOnEvent(tick=46, channel=3, data=[47, 0]),
   midi.NoteOnEvent(tick=2, channel=3, data=[45, 110]),
   midi.NoteOnEvent(tick=94, channel=3, data=[45, 0]),
   midi.NoteOnEvent(tick=2, channel=3, data=[45, 110]),
   midi.NoteOnEvent(tick=46, channel=3, data=[45, 0]),
   midi.NoteOnEvent(tick=2, channel=3, data=[45, 110]),
   midi.NoteOnEvent(tick=46, channel=3, data=[45, 0]),
   midi.NoteOnEvent(tick=2, channel=3, data=[45, 110]),
   midi.NoteOnEvent(tick=46, channel=3, data=[45, 0]),
   midi.NoteOnEvent(tick=2, channel=3, data=[45, 110]),
   midi.NoteOnEvent(tick=46, channel=3, data=[45, 0]),
   midi.NoteOnEvent(tick=2, channel=3, data=[45, 110]),
   midi.NoteOnEvent(tick=46, channel=3, data=[45, 0]),
   midi.NoteOnEvent(tick=2, channel=3, data=[45, 110]),
   midi.NoteOnEvent(tick=46, channel=3, data=[45, 0]),
   midi.NoteOnEvent(tick=2, channel=3, data=[45, 110]),
   midi.NoteOnEvent(tick=94, channel=3, data=[45, 0]),
   midi.NoteOnEvent(tick=2, channel=3, data=[45, 110]),
   midi.NoteOnEvent(tick=46, channel=3, data=[45, 0]),
   midi.NoteOnEvent(tick=2, channel=3, data=[45, 110]),
   midi.NoteOnEvent(tick=46, channel=3, data=[45, 0]),
   midi.NoteOnEvent(tick=2, channel=3, data=[47, 110]),
   midi.NoteOnEvent(tick=126, channel=3, data=[47, 0]),
   midi.NoteOnEvent(tick=2, channel=3, data=[46, 110]),
   midi.NoteOnEvent(tick=126, channel=3, data=[46, 0]),
   midi.NoteOnEvent(tick=2, channel=3, data=[47, 110]),
   midi.NoteOnEvent(tick=126, channel=3, data=[47, 0]),
   midi.NoteOnEvent(tick=2, channel=3, data=[48, 110]),
   midi.NoteOnEvent(tick=160, channel=3, data=[48, 0]),
   midi.NoteOnEvent(tick=32, channel=3, data=[47, 110]),
   midi.NoteOnEvent(tick=160, channel=3, data=[47, 0]),
   midi.NoteOnEvent(tick=32, channel=3, data=[40, 110]),
   midi.NoteOnEvent(tick=94, channel=3, data=[40, 0]),
   midi.NoteOnEvent(tick=2, channel=3, data=[40, 110]),
   midi.NoteOnEvent(tick=46, channel=3, data=[40, 0]),
   midi.NoteOnEvent(tick=2, channel=3, data=[40, 110]),
   midi.NoteOnEvent(tick=46, channel=3, data=[40, 0]),
   midi.NoteOnEvent(tick=2, channel=3, data=[40, 110]),
   midi.NoteOnEvent(tick=94, channel=3, data=[40, 0]),
   midi.NoteOnEvent(tick=2, channel=3, data=[40, 110]),
   midi.NoteOnEvent(tick=94, channel=3, data=[40, 0]),
   midi.NoteOnEvent(tick=2, channel=3, data=[40, 110]),
   midi.NoteOnEvent(tick=94, channel=3, data=[40, 0]),
   midi.NoteOnEvent(tick=2, channel=3, data=[40, 110]),
   midi.NoteOnEvent(tick=94, channel=3, data=[40, 0]),
   midi.NoteOnEvent(tick=2, channel=3, data=[40, 110]),
   midi.NoteOnEvent(tick=94, channel=3, data=[40, 0]),
   midi.NoteOnEvent(tick=2, channel=3, data=[43, 110]),
   midi.NoteOnEvent(tick=574, channel=3, data=[43, 0]),
   midi.NoteOnEvent(tick=2, channel=3, data=[46, 110]),
   midi.NoteOnEvent(tick=160, channel=3, data=[46, 0]),
   midi.NoteOnEvent(tick=32, channel=3, data=[42, 110]),
   midi.NoteOnEvent(tick=574, channel=3, data=[42, 0]),
   midi.NoteOnEvent(tick=2, channel=3, data=[45, 110]),
   midi.NoteOnEvent(tick=160, channel=3, data=[45, 0]),
   midi.NoteOnEvent(tick=32, channel=3, data=[41, 110]),
   midi.NoteOnEvent(tick=574, channel=3, data=[41, 0]),
   midi.NoteOnEvent(tick=2, channel=3, data=[43, 110]),
   midi.NoteOnEvent(tick=256, channel=3, data=[43, 0]),
   midi.NoteOnEvent(tick=32, channel=3, data=[40, 110]),
   midi.NoteOnEvent(tick=94, channel=3, data=[40, 0]),
   midi.NoteOnEvent(tick=2, channel=3, data=[40, 110]),
   midi.NoteOnEvent(tick=46, channel=3, data=[40, 0]),
   midi.NoteOnEvent(tick=2, channel=3, data=[40, 110]),
   midi.NoteOnEvent(tick=46, channel=3, data=[40, 0]),
   midi.NoteOnEvent(tick=2, channel=3, data=[40, 110]),
   midi.NoteOnEvent(tick=94, channel=3, data=[40, 0]),
   midi.NoteOnEvent(tick=2, channel=3, data=[40, 110]),
   midi.NoteOnEvent(tick=94, channel=3, data=[40, 0]),
   midi.NoteOnEvent(tick=2, channel=3, data=[40, 110]),
   midi.NoteOnEvent(tick=94, channel=3, data=[40, 0]),
   midi.NoteOnEvent(tick=2, channel=3, data=[40, 110]),
   midi.NoteOnEvent(tick=94, channel=3, data=[40, 0]),
   midi.NoteOnEvent(tick=2, channel=3, data=[40, 110]),
   midi.NoteOnEvent(tick=94, channel=3, data=[40, 0]),
   midi.NoteOnEvent(tick=2, channel=3, data=[43, 110]),
   midi.NoteOnEvent(tick=574, channel=3, data=[43, 0]),
   midi.NoteOnEvent(tick=2, channel=3, data=[46, 110]),
   midi.NoteOnEvent(tick=160, channel=3, data=[46, 0]),
   midi.NoteOnEvent(tick=32, channel=3, data=[42, 110]),
   midi.NoteOnEvent(tick=574, channel=3, data=[42, 0]),
   midi.NoteOnEvent(tick=2, channel=3, data=[45, 110]),
   midi.NoteOnEvent(tick=160, channel=3, data=[45, 0]),
   midi.NoteOnEvent(tick=32, channel=3, data=[41, 110]),
   midi.NoteOnEvent(tick=574, channel=3, data=[41, 0]),
   midi.NoteOnEvent(tick=2, channel=3, data=[43, 110]),
   midi.NoteOnEvent(tick=256, channel=3, data=[43, 0]),
   midi.NoteOnEvent(tick=32, channel=3, data=[40, 110]),
   midi.NoteOnEvent(tick=94, channel=3, data=[40, 0]),
   midi.NoteOnEvent(tick=2, channel=3, data=[40, 110]),
   midi.NoteOnEvent(tick=46, channel=3, data=[40, 0]),
   midi.NoteOnEvent(tick=2, channel=3, data=[40, 110]),
   midi.NoteOnEvent(tick=46, channel=3, data=[40, 0]),
   midi.NoteOnEvent(tick=2, channel=3, data=[40, 110]),
   midi.NoteOnEvent(tick=94, channel=3, data=[40, 0]),
   midi.NoteOnEvent(tick=2, channel=3, data=[40, 110]),
   midi.NoteOnEvent(tick=94, channel=3, data=[40, 0]),
   midi.NoteOnEvent(tick=2, channel=3, data=[40, 110]),
   midi.NoteOnEvent(tick=94, channel=3, data=[40, 0]),
   midi.NoteOnEvent(tick=2, channel=3, data=[40, 110]),
   midi.NoteOnEvent(tick=94, channel=3, data=[40, 0]),
   midi.NoteOnEvent(tick=2, channel=3, data=[40, 110]),
   midi.NoteOnEvent(tick=94, channel=3, data=[40, 0]),
   midi.NoteOnEvent(tick=2, channel=3, data=[43, 110]),
   midi.NoteOnEvent(tick=574, channel=3, data=[43, 0]),
   midi.NoteOnEvent(tick=2, channel=3, data=[46, 110]),
   midi.NoteOnEvent(tick=160, channel=3, data=[46, 0]),
   midi.NoteOnEvent(tick=32, channel=3, data=[42, 110]),
   midi.NoteOnEvent(tick=574, channel=3, data=[42, 0]),
   midi.NoteOnEvent(tick=2, channel=3, data=[45, 110]),
   midi.NoteOnEvent(tick=160, channel=3, data=[45, 0]),
   midi.NoteOnEvent(tick=32, channel=3, data=[41, 110]),
   midi.NoteOnEvent(tick=574, channel=3, data=[41, 0]),
   midi.NoteOnEvent(tick=2, channel=3, data=[43, 110]),
   midi.NoteOnEvent(tick=256, channel=3, data=[43, 0]),
   midi.NoteOnEvent(tick=32, channel=3, data=[40, 110]),
   midi.NoteOnEvent(tick=94, channel=3, data=[40, 0]),
   midi.NoteOnEvent(tick=2, channel=3, data=[40, 110]),
   midi.NoteOnEvent(tick=46, channel=3, data=[40, 0]),
   midi.NoteOnEvent(tick=2, channel=3, data=[40, 110]),
   midi.NoteOnEvent(tick=46, channel=3, data=[40, 0]),
   midi.NoteOnEvent(tick=2, channel=3, data=[40, 110]),
   midi.NoteOnEvent(tick=94, channel=3, data=[40, 0]),
   midi.NoteOnEvent(tick=2, channel=3, data=[40, 110]),
   midi.NoteOnEvent(tick=94, channel=3, data=[40, 0]),
   midi.NoteOnEvent(tick=2, channel=3, data=[40, 110]),
   midi.NoteOnEvent(tick=94, channel=3, data=[40, 0]),
   midi.NoteOnEvent(tick=2, channel=3, data=[40, 110]),
   midi.NoteOnEvent(tick=94, channel=3, data=[40, 0]),
   midi.NoteOnEvent(tick=2, channel=3, data=[40, 110]),
   midi.NoteOnEvent(tick=94, channel=3, data=[40, 0]),
   midi.NoteOnEvent(tick=2, channel=3, data=[43, 110]),
   midi.NoteOnEvent(tick=574, channel=3, data=[43, 0]),
   midi.NoteOnEvent(tick=2, channel=3, data=[46, 110]),
   midi.NoteOnEvent(tick=160, channel=3, data=[46, 0]),
   midi.NoteOnEvent(tick=32, channel=3, data=[42, 110]),
   midi.NoteOnEvent(tick=574, channel=3, data=[42, 0]),
   midi.NoteOnEvent(tick=2, channel=3, data=[45, 110]),
   midi.NoteOnEvent(tick=160, channel=3, data=[45, 0]),
   midi.NoteOnEvent(tick=32, channel=3, data=[41, 110]),
   midi.NoteOnEvent(tick=574, channel=3, data=[41, 0]),
   midi.NoteOnEvent(tick=2, channel=3, data=[43, 110]),
   midi.NoteOnEvent(tick=256, channel=3, data=[43, 0]),
   midi.NoteOnEvent(tick=32, channel=3, data=[40, 110]),
   midi.NoteOnEvent(tick=94, channel=3, data=[40, 0]),
   midi.NoteOnEvent(tick=2, channel=3, data=[40, 110]),
   midi.NoteOnEvent(tick=46, channel=3, data=[40, 0]),
   midi.NoteOnEvent(tick=2, channel=3, data=[40, 110]),
   midi.NoteOnEvent(tick=46, channel=3, data=[40, 0]),
   midi.NoteOnEvent(tick=2, channel=3, data=[40, 110]),
   midi.NoteOnEvent(tick=94, channel=3, data=[40, 0]),
   midi.NoteOnEvent(tick=2, channel=3, data=[40, 110]),
   midi.NoteOnEvent(tick=94, channel=3, data=[40, 0]),
   midi.NoteOnEvent(tick=2, channel=3, data=[40, 110]),
   midi.NoteOnEvent(tick=94, channel=3, data=[40, 0]),
   midi.NoteOnEvent(tick=2, channel=3, data=[40, 110]),
   midi.NoteOnEvent(tick=94, channel=3, data=[40, 0]),
   midi.NoteOnEvent(tick=2, channel=3, data=[40, 110]),
   midi.NoteOnEvent(tick=94, channel=3, data=[40, 0]),
   midi.NoteOnEvent(tick=2, channel=3, data=[43, 110]),
   midi.NoteOnEvent(tick=574, channel=3, data=[43, 0]),
   midi.NoteOnEvent(tick=2, channel=3, data=[46, 110]),
   midi.NoteOnEvent(tick=160, channel=3, data=[46, 0]),
   midi.NoteOnEvent(tick=32, channel=3, data=[42, 110]),
   midi.NoteOnEvent(tick=574, channel=3, data=[42, 0]),
   midi.NoteOnEvent(tick=2, channel=3, data=[45, 110]),
   midi.NoteOnEvent(tick=160, channel=3, data=[45, 0]),
   midi.NoteOnEvent(tick=32, channel=3, data=[41, 110]),
   midi.NoteOnEvent(tick=574, channel=3, data=[41, 0]),
   midi.NoteOnEvent(tick=2, channel=3, data=[43, 110]),
   midi.NoteOnEvent(tick=256, channel=3, data=[43, 0]),
   midi.NoteOnEvent(tick=32, channel=3, data=[40, 110]),
   midi.NoteOnEvent(tick=94, channel=3, data=[40, 0]),
   midi.NoteOnEvent(tick=2, channel=3, data=[40, 110]),
   midi.NoteOnEvent(tick=46, channel=3, data=[40, 0]),
   midi.NoteOnEvent(tick=2, channel=3, data=[40, 110]),
   midi.NoteOnEvent(tick=46, channel=3, data=[40, 0]),
   midi.NoteOnEvent(tick=2, channel=3, data=[40, 110]),
   midi.NoteOnEvent(tick=94, channel=3, data=[40, 0]),
   midi.NoteOnEvent(tick=2, channel=3, data=[40, 110]),
   midi.NoteOnEvent(tick=94, channel=3, data=[40, 0]),
   midi.NoteOnEvent(tick=2, channel=3, data=[40, 110]),
   midi.NoteOnEvent(tick=94, channel=3, data=[40, 0]),
   midi.NoteOnEvent(tick=2, channel=3, data=[40, 110]),
   midi.NoteOnEvent(tick=94, channel=3, data=[40, 0]),
   midi.NoteOnEvent(tick=2, channel=3, data=[40, 110]),
   midi.NoteOnEvent(tick=94, channel=3, data=[40, 0]),
   midi.NoteOnEvent(tick=2, channel=3, data=[43, 110]),
   midi.NoteOnEvent(tick=574, channel=3, data=[43, 0]),
   midi.NoteOnEvent(tick=2, channel=3, data=[46, 110]),
   midi.NoteOnEvent(tick=160, channel=3, data=[46, 0]),
   midi.NoteOnEvent(tick=32, channel=3, data=[42, 110]),
   midi.NoteOnEvent(tick=574, channel=3, data=[42, 0]),
   midi.NoteOnEvent(tick=2, channel=3, data=[45, 110]),
   midi.NoteOnEvent(tick=160, channel=3, data=[45, 0]),
   midi.NoteOnEvent(tick=32, channel=3, data=[41, 110]),
   midi.NoteOnEvent(tick=574, channel=3, data=[41, 0]),
   midi.NoteOnEvent(tick=2, channel=3, data=[43, 110]),
   midi.NoteOnEvent(tick=256, channel=3, data=[43, 0]),
   midi.NoteOnEvent(tick=32, channel=3, data=[40, 110]),
   midi.NoteOnEvent(tick=94, channel=3, data=[40, 0]),
   midi.NoteOnEvent(tick=2, channel=3, data=[40, 110]),
   midi.NoteOnEvent(tick=46, channel=3, data=[40, 0]),
   midi.NoteOnEvent(tick=2, channel=3, data=[40, 110]),
   midi.NoteOnEvent(tick=46, channel=3, data=[40, 0]),
   midi.NoteOnEvent(tick=2, channel=3, data=[40, 110]),
   midi.NoteOnEvent(tick=94, channel=3, data=[40, 0]),
   midi.NoteOnEvent(tick=2, channel=3, data=[40, 110]),
   midi.NoteOnEvent(tick=94, channel=3, data=[40, 0]),
   midi.NoteOnEvent(tick=2, channel=3, data=[40, 110]),
   midi.NoteOnEvent(tick=94, channel=3, data=[40, 0]),
   midi.NoteOnEvent(tick=2, channel=3, data=[40, 110]),
   midi.NoteOnEvent(tick=94, channel=3, data=[40, 0]),
   midi.NoteOnEvent(tick=2, channel=3, data=[40, 110]),
   midi.NoteOnEvent(tick=94, channel=3, data=[40, 0]),
   midi.NoteOnEvent(tick=2, channel=3, data=[43, 110]),
   midi.NoteOnEvent(tick=574, channel=3, data=[43, 0]),
   midi.NoteOnEvent(tick=2, channel=3, data=[46, 110]),
   midi.NoteOnEvent(tick=160, channel=3, data=[46, 0]),
   midi.NoteOnEvent(tick=32, channel=3, data=[42, 110]),
   midi.NoteOnEvent(tick=574, channel=3, data=[42, 0]),
   midi.NoteOnEvent(tick=2, channel=3, data=[45, 110]),
   midi.NoteOnEvent(tick=160, channel=3, data=[45, 0]),
   midi.NoteOnEvent(tick=32, channel=3, data=[41, 110]),
   midi.NoteOnEvent(tick=574, channel=3, data=[41, 0]),
   midi.NoteOnEvent(tick=2, channel=3, data=[43, 110]),
   midi.NoteOnEvent(tick=256, channel=3, data=[43, 0]),
   midi.NoteOnEvent(tick=32, channel=3, data=[40, 110]),
   midi.NoteOnEvent(tick=94, channel=3, data=[40, 0]),
   midi.NoteOnEvent(tick=2, channel=3, data=[40, 110]),
   midi.NoteOnEvent(tick=46, channel=3, data=[40, 0]),
   midi.NoteOnEvent(tick=2, channel=3, data=[40, 110]),
   midi.NoteOnEvent(tick=46, channel=3, data=[40, 0]),
   midi.NoteOnEvent(tick=2, channel=3, data=[40, 110]),
   midi.NoteOnEvent(tick=94, channel=3, data=[40, 0]),
   midi.NoteOnEvent(tick=2, channel=3, data=[40, 110]),
   midi.NoteOnEvent(tick=94, channel=3, data=[40, 0]),
   midi.NoteOnEvent(tick=2, channel=3, data=[40, 110]),
   midi.NoteOnEvent(tick=94, channel=3, data=[40, 0]),
   midi.NoteOnEvent(tick=2, channel=3, data=[40, 110]),
   midi.NoteOnEvent(tick=94, channel=3, data=[40, 0]),
   midi.NoteOnEvent(tick=2, channel=3, data=[40, 110]),
   midi.NoteOnEvent(tick=94, channel=3, data=[40, 0]),
   midi.NoteOnEvent(tick=2, channel=3, data=[43, 110]),
   midi.NoteOnEvent(tick=574, channel=3, data=[43, 0]),
   midi.NoteOnEvent(tick=2, channel=3, data=[46, 110]),
   midi.NoteOnEvent(tick=160, channel=3, data=[46, 0]),
   midi.NoteOnEvent(tick=32, channel=3, data=[42, 110]),
   midi.NoteOnEvent(tick=574, channel=3, data=[42, 0]),
   midi.NoteOnEvent(tick=2, channel=3, data=[45, 110]),
   midi.NoteOnEvent(tick=160, channel=3, data=[45, 0]),
   midi.NoteOnEvent(tick=32, channel=3, data=[41, 110]),
   midi.NoteOnEvent(tick=574, channel=3, data=[41, 0]),
   midi.NoteOnEvent(tick=2, channel=3, data=[43, 110]),
   midi.NoteOnEvent(tick=256, channel=3, data=[43, 0]),
   midi.NoteOnEvent(tick=32, channel=3, data=[40, 110]),
   midi.NoteOnEvent(tick=94, channel=3, data=[40, 0]),
   midi.NoteOnEvent(tick=2, channel=3, data=[40, 110]),
   midi.NoteOnEvent(tick=46, channel=3, data=[40, 0]),
   midi.NoteOnEvent(tick=2, channel=3, data=[40, 110]),
   midi.NoteOnEvent(tick=46, channel=3, data=[40, 0]),
   midi.NoteOnEvent(tick=2, channel=3, data=[40, 110]),
   midi.NoteOnEvent(tick=94, channel=3, data=[40, 0]),
   midi.NoteOnEvent(tick=2, channel=3, data=[40, 110]),
   midi.NoteOnEvent(tick=94, channel=3, data=[40, 0]),
   midi.NoteOnEvent(tick=2, channel=3, data=[40, 110]),
   midi.NoteOnEvent(tick=94, channel=3, data=[40, 0]),
   midi.NoteOnEvent(tick=2, channel=3, data=[40, 110]),
   midi.NoteOnEvent(tick=94, channel=3, data=[40, 0]),
   midi.NoteOnEvent(tick=2, channel=3, data=[40, 110]),
   midi.NoteOnEvent(tick=94, channel=3, data=[40, 0]),
   midi.NoteOnEvent(tick=2, channel=3, data=[49, 110]),
   midi.NoteOnEvent(tick=94, channel=3, data=[49, 0]),
   midi.NoteOnEvent(tick=2, channel=3, data=[49, 110]),
   midi.NoteOnEvent(tick=46, channel=3, data=[49, 0]),
   midi.NoteOnEvent(tick=2, channel=3, data=[49, 110]),
   midi.NoteOnEvent(tick=46, channel=3, data=[49, 0]),
   midi.NoteOnEvent(tick=2, channel=3, data=[49, 110]),
   midi.NoteOnEvent(tick=46, channel=3, data=[49, 0]),
   midi.NoteOnEvent(tick=2, channel=3, data=[49, 110]),
   midi.NoteOnEvent(tick=46, channel=3, data=[49, 0]),
   midi.NoteOnEvent(tick=2, channel=3, data=[49, 110]),
   midi.NoteOnEvent(tick=46, channel=3, data=[49, 0]),
   midi.NoteOnEvent(tick=2, channel=3, data=[49, 110]),
   midi.NoteOnEvent(tick=46, channel=3, data=[49, 0]),
   midi.NoteOnEvent(tick=2, channel=3, data=[49, 110]),
   midi.NoteOnEvent(tick=94, channel=3, data=[49, 0]),
   midi.NoteOnEvent(tick=2, channel=3, data=[49, 110]),
   midi.NoteOnEvent(tick=46, channel=3, data=[49, 0]),
   midi.NoteOnEvent(tick=2, channel=3, data=[49, 110]),
   midi.NoteOnEvent(tick=46, channel=3, data=[49, 0]),
   midi.NoteOnEvent(tick=2, channel=3, data=[49, 110]),
   midi.NoteOnEvent(tick=46, channel=3, data=[49, 0]),
   midi.NoteOnEvent(tick=2, channel=3, data=[49, 110]),
   midi.NoteOnEvent(tick=46, channel=3, data=[49, 0]),
   midi.NoteOnEvent(tick=2, channel=3, data=[49, 110]),
   midi.NoteOnEvent(tick=46, channel=3, data=[49, 0]),
   midi.NoteOnEvent(tick=2, channel=3, data=[49, 110]),
   midi.NoteOnEvent(tick=46, channel=3, data=[49, 0]),
   midi.NoteOnEvent(tick=2, channel=3, data=[49, 110]),
   midi.NoteOnEvent(tick=94, channel=3, data=[49, 0]),
   midi.NoteOnEvent(tick=2, channel=3, data=[49, 110]),
   midi.NoteOnEvent(tick=46, channel=3, data=[49, 0]),
   midi.NoteOnEvent(tick=2, channel=3, data=[49, 110]),
   midi.NoteOnEvent(tick=46, channel=3, data=[49, 0]),
   midi.NoteOnEvent(tick=2, channel=3, data=[49, 110]),
   midi.NoteOnEvent(tick=46, channel=3, data=[49, 0]),
   midi.NoteOnEvent(tick=2, channel=3, data=[49, 110]),
   midi.NoteOnEvent(tick=46, channel=3, data=[49, 0]),
   midi.NoteOnEvent(tick=2, channel=3, data=[49, 110]),
   midi.NoteOnEvent(tick=46, channel=3, data=[49, 0]),
   midi.NoteOnEvent(tick=2, channel=3, data=[49, 110]),
   midi.NoteOnEvent(tick=46, channel=3, data=[49, 0]),
   midi.NoteOnEvent(tick=2, channel=3, data=[49, 110]),
   midi.NoteOnEvent(tick=94, channel=3, data=[49, 0]),
   midi.NoteOnEvent(tick=2, channel=3, data=[49, 110]),
   midi.NoteOnEvent(tick=46, channel=3, data=[49, 0]),
   midi.NoteOnEvent(tick=2, channel=3, data=[49, 110]),
   midi.NoteOnEvent(tick=46, channel=3, data=[49, 0]),
   midi.NoteOnEvent(tick=2, channel=3, data=[49, 110]),
   midi.NoteOnEvent(tick=46, channel=3, data=[49, 0]),
   midi.NoteOnEvent(tick=2, channel=3, data=[49, 110]),
   midi.NoteOnEvent(tick=46, channel=3, data=[49, 0]),
   midi.NoteOnEvent(tick=2, channel=3, data=[49, 110]),
   midi.NoteOnEvent(tick=46, channel=3, data=[49, 0]),
   midi.NoteOnEvent(tick=2, channel=3, data=[49, 110]),
   midi.NoteOnEvent(tick=46, channel=3, data=[49, 0]),
   midi.NoteOnEvent(tick=2, channel=3, data=[49, 110]),
   midi.NoteOnEvent(tick=94, channel=3, data=[49, 0]),
   midi.NoteOnEvent(tick=2, channel=3, data=[49, 110]),
   midi.NoteOnEvent(tick=46, channel=3, data=[49, 0]),
   midi.NoteOnEvent(tick=2, channel=3, data=[49, 110]),
   midi.NoteOnEvent(tick=46, channel=3, data=[49, 0]),
   midi.NoteOnEvent(tick=2, channel=3, data=[49, 110]),
   midi.NoteOnEvent(tick=46, channel=3, data=[49, 0]),
   midi.NoteOnEvent(tick=2, channel=3, data=[49, 110]),
   midi.NoteOnEvent(tick=46, channel=3, data=[49, 0]),
   midi.NoteOnEvent(tick=2, channel=3, data=[49, 110]),
   midi.NoteOnEvent(tick=46, channel=3, data=[49, 0]),
   midi.NoteOnEvent(tick=2, channel=3, data=[49, 110]),
   midi.NoteOnEvent(tick=46, channel=3, data=[49, 0]),
   midi.NoteOnEvent(tick=2, channel=3, data=[49, 110]),
   midi.NoteOnEvent(tick=94, channel=3, data=[49, 0]),
   midi.NoteOnEvent(tick=2, channel=3, data=[49, 110]),
   midi.NoteOnEvent(tick=46, channel=3, data=[49, 0]),
   midi.NoteOnEvent(tick=2, channel=3, data=[49, 110]),
   midi.NoteOnEvent(tick=46, channel=3, data=[49, 0]),
   midi.NoteOnEvent(tick=2, channel=3, data=[49, 110]),
   midi.NoteOnEvent(tick=46, channel=3, data=[49, 0]),
   midi.NoteOnEvent(tick=2, channel=3, data=[49, 110]),
   midi.NoteOnEvent(tick=46, channel=3, data=[49, 0]),
   midi.NoteOnEvent(tick=2, channel=3, data=[49, 110]),
   midi.NoteOnEvent(tick=46, channel=3, data=[49, 0]),
   midi.NoteOnEvent(tick=2, channel=3, data=[49, 110]),
   midi.NoteOnEvent(tick=46, channel=3, data=[49, 0]),
   midi.NoteOnEvent(tick=2, channel=3, data=[45, 110]),
   midi.NoteOnEvent(tick=94, channel=3, data=[45, 0]),
   midi.NoteOnEvent(tick=2, channel=3, data=[55, 110]),
   midi.NoteOnEvent(tick=94, channel=3, data=[55, 0]),
   midi.NoteOnEvent(tick=2, channel=3, data=[54, 110]),
   midi.NoteOnEvent(tick=94, channel=3, data=[54, 0]),
   midi.NoteOnEvent(tick=2, channel=3, data=[45, 110]),
   midi.NoteOnEvent(tick=94, channel=3, data=[45, 0]),
   midi.NoteOnEvent(tick=2, channel=3, data=[54, 110]),
   midi.NoteOnEvent(tick=94, channel=3, data=[54, 0]),
   midi.NoteOnEvent(tick=2, channel=3, data=[52, 110]),
   midi.NoteOnEvent(tick=94, channel=3, data=[52, 0]),
   midi.NoteOnEvent(tick=2, channel=3, data=[50, 110]),
   midi.NoteOnEvent(tick=94, channel=3, data=[50, 0]),
   midi.NoteOnEvent(tick=2, channel=3, data=[49, 110]),
   midi.NoteOnEvent(tick=94, channel=3, data=[49, 0]),
   midi.NoteOnEvent(tick=2, channel=3, data=[49, 110]),
   midi.NoteOnEvent(tick=94, channel=3, data=[49, 0]),
   midi.NoteOnEvent(tick=2, channel=3, data=[49, 110]),
   midi.NoteOnEvent(tick=46, channel=3, data=[49, 0]),
   midi.NoteOnEvent(tick=2, channel=3, data=[49, 110]),
   midi.NoteOnEvent(tick=46, channel=3, data=[49, 0]),
   midi.NoteOnEvent(tick=2, channel=3, data=[49, 110]),
   midi.NoteOnEvent(tick=46, channel=3, data=[49, 0]),
   midi.NoteOnEvent(tick=2, channel=3, data=[49, 110]),
   midi.NoteOnEvent(tick=46, channel=3, data=[49, 0]),
   midi.NoteOnEvent(tick=2, channel=3, data=[49, 110]),
   midi.NoteOnEvent(tick=46, channel=3, data=[49, 0]),
   midi.NoteOnEvent(tick=2, channel=3, data=[49, 110]),
   midi.NoteOnEvent(tick=46, channel=3, data=[49, 0]),
   midi.NoteOnEvent(tick=2, channel=3, data=[49, 110]),
   midi.NoteOnEvent(tick=94, channel=3, data=[49, 0]),
   midi.NoteOnEvent(tick=2, channel=3, data=[49, 110]),
   midi.NoteOnEvent(tick=46, channel=3, data=[49, 0]),
   midi.NoteOnEvent(tick=2, channel=3, data=[49, 110]),
   midi.NoteOnEvent(tick=46, channel=3, data=[49, 0]),
   midi.NoteOnEvent(tick=2, channel=3, data=[49, 110]),
   midi.NoteOnEvent(tick=46, channel=3, data=[49, 0]),
   midi.NoteOnEvent(tick=2, channel=3, data=[49, 110]),
   midi.NoteOnEvent(tick=46, channel=3, data=[49, 0]),
   midi.NoteOnEvent(tick=2, channel=3, data=[49, 110]),
   midi.NoteOnEvent(tick=46, channel=3, data=[49, 0]),
   midi.NoteOnEvent(tick=2, channel=3, data=[49, 110]),
   midi.NoteOnEvent(tick=46, channel=3, data=[49, 0]),
   midi.NoteOnEvent(tick=2, channel=3, data=[49, 110]),
   midi.NoteOnEvent(tick=94, channel=3, data=[49, 0]),
   midi.NoteOnEvent(tick=2, channel=3, data=[49, 110]),
   midi.NoteOnEvent(tick=46, channel=3, data=[49, 0]),
   midi.NoteOnEvent(tick=2, channel=3, data=[49, 110]),
   midi.NoteOnEvent(tick=46, channel=3, data=[49, 0]),
   midi.NoteOnEvent(tick=2, channel=3, data=[49, 110]),
   midi.NoteOnEvent(tick=46, channel=3, data=[49, 0]),
   midi.NoteOnEvent(tick=2, channel=3, data=[49, 110]),
   midi.NoteOnEvent(tick=46, channel=3, data=[49, 0]),
   midi.NoteOnEvent(tick=2, channel=3, data=[49, 110]),
   midi.NoteOnEvent(tick=46, channel=3, data=[49, 0]),
   midi.NoteOnEvent(tick=2, channel=3, data=[49, 110]),
   midi.NoteOnEvent(tick=46, channel=3, data=[49, 0]),
   midi.NoteOnEvent(tick=2, channel=3, data=[49, 110]),
   midi.NoteOnEvent(tick=94, channel=3, data=[49, 0]),
   midi.NoteOnEvent(tick=2, channel=3, data=[49, 110]),
   midi.NoteOnEvent(tick=46, channel=3, data=[49, 0]),
   midi.NoteOnEvent(tick=2, channel=3, data=[49, 110]),
   midi.NoteOnEvent(tick=46, channel=3, data=[49, 0]),
   midi.NoteOnEvent(tick=2, channel=3, data=[49, 110]),
   midi.NoteOnEvent(tick=46, channel=3, data=[49, 0]),
   midi.NoteOnEvent(tick=2, channel=3, data=[49, 110]),
   midi.NoteOnEvent(tick=46, channel=3, data=[49, 0]),
   midi.NoteOnEvent(tick=2, channel=3, data=[49, 110]),
   midi.NoteOnEvent(tick=46, channel=3, data=[49, 0]),
   midi.NoteOnEvent(tick=2, channel=3, data=[49, 110]),
   midi.NoteOnEvent(tick=46, channel=3, data=[49, 0]),
   midi.NoteOnEvent(tick=2, channel=3, data=[49, 110]),
   midi.NoteOnEvent(tick=94, channel=3, data=[49, 0]),
   midi.NoteOnEvent(tick=2, channel=3, data=[49, 110]),
   midi.NoteOnEvent(tick=46, channel=3, data=[49, 0]),
   midi.NoteOnEvent(tick=2, channel=3, data=[49, 110]),
   midi.NoteOnEvent(tick=46, channel=3, data=[49, 0]),
   midi.NoteOnEvent(tick=2, channel=3, data=[49, 110]),
   midi.NoteOnEvent(tick=46, channel=3, data=[49, 0]),
   midi.NoteOnEvent(tick=2, channel=3, data=[49, 110]),
   midi.NoteOnEvent(tick=46, channel=3, data=[49, 0]),
   midi.NoteOnEvent(tick=2, channel=3, data=[49, 110]),
   midi.NoteOnEvent(tick=46, channel=3, data=[49, 0]),
   midi.NoteOnEvent(tick=2, channel=3, data=[49, 110]),
   midi.NoteOnEvent(tick=46, channel=3, data=[49, 0]),
   midi.NoteOnEvent(tick=2, channel=3, data=[49, 110]),
   midi.NoteOnEvent(tick=94, channel=3, data=[49, 0]),
   midi.NoteOnEvent(tick=2, channel=3, data=[49, 110]),
   midi.NoteOnEvent(tick=46, channel=3, data=[49, 0]),
   midi.NoteOnEvent(tick=2, channel=3, data=[49, 110]),
   midi.NoteOnEvent(tick=46, channel=3, data=[49, 0]),
   midi.NoteOnEvent(tick=2, channel=3, data=[49, 110]),
   midi.NoteOnEvent(tick=46, channel=3, data=[49, 0]),
   midi.NoteOnEvent(tick=2, channel=3, data=[49, 110]),
   midi.NoteOnEvent(tick=46, channel=3, data=[49, 0]),
   midi.NoteOnEvent(tick=2, channel=3, data=[49, 110]),
   midi.NoteOnEvent(tick=46, channel=3, data=[49, 0]),
   midi.NoteOnEvent(tick=2, channel=3, data=[49, 110]),
   midi.NoteOnEvent(tick=46, channel=3, data=[49, 0]),
   midi.NoteOnEvent(tick=2, channel=3, data=[45, 110]),
   midi.NoteOnEvent(tick=94, channel=3, data=[45, 0]),
   midi.NoteOnEvent(tick=2, channel=3, data=[55, 110]),
   midi.NoteOnEvent(tick=94, channel=3, data=[55, 0]),
   midi.NoteOnEvent(tick=2, channel=3, data=[54, 110]),
   midi.NoteOnEvent(tick=94, channel=3, data=[54, 0]),
   midi.NoteOnEvent(tick=2, channel=3, data=[45, 110]),
   midi.NoteOnEvent(tick=94, channel=3, data=[45, 0]),
   midi.NoteOnEvent(tick=2, channel=3, data=[54, 110]),
   midi.NoteOnEvent(tick=94, channel=3, data=[54, 0]),
   midi.NoteOnEvent(tick=2, channel=3, data=[52, 110]),
   midi.NoteOnEvent(tick=94, channel=3, data=[52, 0]),
   midi.NoteOnEvent(tick=2, channel=3, data=[50, 110]),
   midi.NoteOnEvent(tick=94, channel=3, data=[50, 0]),
   midi.NoteOnEvent(tick=2, channel=3, data=[49, 110]),
   midi.NoteOnEvent(tick=94, channel=3, data=[49, 0]),
   midi.NoteOnEvent(tick=2, channel=3, data=[50, 110]),
   midi.NoteOnEvent(tick=94, channel=3, data=[50, 0]),
   midi.NoteOnEvent(tick=2, channel=3, data=[50, 110]),
   midi.NoteOnEvent(tick=46, channel=3, data=[50, 0]),
   midi.NoteOnEvent(tick=2, channel=3, data=[50, 110]),
   midi.NoteOnEvent(tick=46, channel=3, data=[50, 0]),
   midi.NoteOnEvent(tick=2, channel=3, data=[50, 110]),
   midi.NoteOnEvent(tick=46, channel=3, data=[50, 0]),
   midi.NoteOnEvent(tick=2, channel=3, data=[50, 110]),
   midi.NoteOnEvent(tick=46, channel=3, data=[50, 0]),
   midi.NoteOnEvent(tick=2, channel=3, data=[50, 110]),
   midi.NoteOnEvent(tick=46, channel=3, data=[50, 0]),
   midi.NoteOnEvent(tick=2, channel=3, data=[50, 110]),
   midi.NoteOnEvent(tick=46, channel=3, data=[50, 0]),
   midi.NoteOnEvent(tick=2, channel=3, data=[50, 110]),
   midi.NoteOnEvent(tick=94, channel=3, data=[50, 0]),
   midi.NoteOnEvent(tick=2, channel=3, data=[50, 110]),
   midi.NoteOnEvent(tick=46, channel=3, data=[50, 0]),
   midi.NoteOnEvent(tick=2, channel=3, data=[50, 110]),
   midi.NoteOnEvent(tick=46, channel=3, data=[50, 0]),
   midi.NoteOnEvent(tick=2, channel=3, data=[50, 110]),
   midi.NoteOnEvent(tick=46, channel=3, data=[50, 0]),
   midi.NoteOnEvent(tick=2, channel=3, data=[50, 110]),
   midi.NoteOnEvent(tick=46, channel=3, data=[50, 0]),
   midi.NoteOnEvent(tick=2, channel=3, data=[50, 110]),
   midi.NoteOnEvent(tick=46, channel=3, data=[50, 0]),
   midi.NoteOnEvent(tick=2, channel=3, data=[50, 110]),
   midi.NoteOnEvent(tick=46, channel=3, data=[50, 0]),
   midi.NoteOnEvent(tick=2, channel=3, data=[50, 110]),
   midi.NoteOnEvent(tick=94, channel=3, data=[50, 0]),
   midi.NoteOnEvent(tick=2, channel=3, data=[50, 110]),
   midi.NoteOnEvent(tick=46, channel=3, data=[50, 0]),
   midi.NoteOnEvent(tick=2, channel=3, data=[50, 110]),
   midi.NoteOnEvent(tick=46, channel=3, data=[50, 0]),
   midi.NoteOnEvent(tick=2, channel=3, data=[50, 110]),
   midi.NoteOnEvent(tick=46, channel=3, data=[50, 0]),
   midi.NoteOnEvent(tick=2, channel=3, data=[50, 110]),
   midi.NoteOnEvent(tick=46, channel=3, data=[50, 0]),
   midi.NoteOnEvent(tick=2, channel=3, data=[50, 110]),
   midi.NoteOnEvent(tick=46, channel=3, data=[50, 0]),
   midi.NoteOnEvent(tick=2, channel=3, data=[50, 110]),
   midi.NoteOnEvent(tick=46, channel=3, data=[50, 0]),
   midi.NoteOnEvent(tick=2, channel=3, data=[50, 110]),
   midi.NoteOnEvent(tick=94, channel=3, data=[50, 0]),
   midi.NoteOnEvent(tick=2, channel=3, data=[50, 110]),
   midi.NoteOnEvent(tick=46, channel=3, data=[50, 0]),
   midi.NoteOnEvent(tick=2, channel=3, data=[50, 110]),
   midi.NoteOnEvent(tick=46, channel=3, data=[50, 0]),
   midi.NoteOnEvent(tick=2, channel=3, data=[50, 110]),
   midi.NoteOnEvent(tick=46, channel=3, data=[50, 0]),
   midi.NoteOnEvent(tick=2, channel=3, data=[50, 110]),
   midi.NoteOnEvent(tick=46, channel=3, data=[50, 0]),
   midi.NoteOnEvent(tick=2, channel=3, data=[50, 110]),
   midi.NoteOnEvent(tick=46, channel=3, data=[50, 0]),
   midi.NoteOnEvent(tick=2, channel=3, data=[50, 110]),
   midi.NoteOnEvent(tick=46, channel=3, data=[50, 0]),
   midi.NoteOnEvent(tick=2, channel=3, data=[50, 110]),
   midi.NoteOnEvent(tick=94, channel=3, data=[50, 0]),
   midi.NoteOnEvent(tick=2, channel=3, data=[50, 110]),
   midi.NoteOnEvent(tick=46, channel=3, data=[50, 0]),
   midi.NoteOnEvent(tick=2, channel=3, data=[50, 110]),
   midi.NoteOnEvent(tick=46, channel=3, data=[50, 0]),
   midi.NoteOnEvent(tick=2, channel=3, data=[50, 110]),
   midi.NoteOnEvent(tick=46, channel=3, data=[50, 0]),
   midi.NoteOnEvent(tick=2, channel=3, data=[50, 110]),
   midi.NoteOnEvent(tick=46, channel=3, data=[50, 0]),
   midi.NoteOnEvent(tick=2, channel=3, data=[50, 110]),
   midi.NoteOnEvent(tick=46, channel=3, data=[50, 0]),
   midi.NoteOnEvent(tick=2, channel=3, data=[50, 110]),
   midi.NoteOnEvent(tick=46, channel=3, data=[50, 0]),
   midi.NoteOnEvent(tick=2, channel=3, data=[50, 110]),
   midi.NoteOnEvent(tick=94, channel=3, data=[50, 0]),
   midi.NoteOnEvent(tick=2, channel=3, data=[50, 110]),
   midi.NoteOnEvent(tick=46, channel=3, data=[50, 0]),
   midi.NoteOnEvent(tick=2, channel=3, data=[50, 110]),
   midi.NoteOnEvent(tick=46, channel=3, data=[50, 0]),
   midi.NoteOnEvent(tick=2, channel=3, data=[50, 110]),
   midi.NoteOnEvent(tick=46, channel=3, data=[50, 0]),
   midi.NoteOnEvent(tick=2, channel=3, data=[50, 110]),
   midi.NoteOnEvent(tick=46, channel=3, data=[50, 0]),
   midi.NoteOnEvent(tick=2, channel=3, data=[50, 110]),
   midi.NoteOnEvent(tick=46, channel=3, data=[50, 0]),
   midi.NoteOnEvent(tick=2, channel=3, data=[50, 110]),
   midi.NoteOnEvent(tick=46, channel=3, data=[50, 0]),
   midi.NoteOnEvent(tick=2, channel=3, data=[45, 110]),
   midi.NoteOnEvent(tick=94, channel=3, data=[45, 0]),
   midi.NoteOnEvent(tick=2, channel=3, data=[55, 110]),
   midi.NoteOnEvent(tick=94, channel=3, data=[55, 0]),
   midi.NoteOnEvent(tick=2, channel=3, data=[54, 110]),
   midi.NoteOnEvent(tick=94, channel=3, data=[54, 0]),
   midi.NoteOnEvent(tick=2, channel=3, data=[45, 110]),
   midi.NoteOnEvent(tick=94, channel=3, data=[45, 0]),
   midi.NoteOnEvent(tick=2, channel=3, data=[54, 110]),
   midi.NoteOnEvent(tick=94, channel=3, data=[54, 0]),
   midi.NoteOnEvent(tick=2, channel=3, data=[52, 110]),
   midi.NoteOnEvent(tick=94, channel=3, data=[52, 0]),
   midi.NoteOnEvent(tick=2, channel=3, data=[50, 110]),
   midi.NoteOnEvent(tick=94, channel=3, data=[50, 0]),
   midi.NoteOnEvent(tick=2, channel=3, data=[49, 110]),
   midi.NoteOnEvent(tick=94, channel=3, data=[49, 0]),
   midi.NoteOnEvent(tick=2, channel=3, data=[49, 110]),
   midi.NoteOnEvent(tick=94, channel=3, data=[49, 0]),
   midi.NoteOnEvent(tick=2, channel=3, data=[49, 110]),
   midi.NoteOnEvent(tick=46, channel=3, data=[49, 0]),
   midi.NoteOnEvent(tick=2, channel=3, data=[49, 110]),
   midi.NoteOnEvent(tick=46, channel=3, data=[49, 0]),
   midi.NoteOnEvent(tick=2, channel=3, data=[49, 110]),
   midi.NoteOnEvent(tick=46, channel=3, data=[49, 0]),
   midi.NoteOnEvent(tick=2, channel=3, data=[49, 110]),
   midi.NoteOnEvent(tick=46, channel=3, data=[49, 0]),
   midi.NoteOnEvent(tick=2, channel=3, data=[49, 110]),
   midi.NoteOnEvent(tick=46, channel=3, data=[49, 0]),
   midi.NoteOnEvent(tick=2, channel=3, data=[49, 110]),
   midi.NoteOnEvent(tick=46, channel=3, data=[49, 0]),
   midi.NoteOnEvent(tick=2, channel=3, data=[49, 110]),
   midi.NoteOnEvent(tick=94, channel=3, data=[49, 0]),
   midi.NoteOnEvent(tick=2, channel=3, data=[49, 110]),
   midi.NoteOnEvent(tick=46, channel=3, data=[49, 0]),
   midi.NoteOnEvent(tick=2, channel=3, data=[49, 110]),
   midi.NoteOnEvent(tick=46, channel=3, data=[49, 0]),
   midi.NoteOnEvent(tick=2, channel=3, data=[49, 110]),
   midi.NoteOnEvent(tick=46, channel=3, data=[49, 0]),
   midi.NoteOnEvent(tick=2, channel=3, data=[49, 110]),
   midi.NoteOnEvent(tick=46, channel=3, data=[49, 0]),
   midi.NoteOnEvent(tick=2, channel=3, data=[49, 110]),
   midi.NoteOnEvent(tick=46, channel=3, data=[49, 0]),
   midi.NoteOnEvent(tick=2, channel=3, data=[49, 110]),
   midi.NoteOnEvent(tick=46, channel=3, data=[49, 0]),
   midi.NoteOnEvent(tick=2, channel=3, data=[49, 110]),
   midi.NoteOnEvent(tick=94, channel=3, data=[49, 0]),
   midi.NoteOnEvent(tick=2, channel=3, data=[49, 110]),
   midi.NoteOnEvent(tick=46, channel=3, data=[49, 0]),
   midi.NoteOnEvent(tick=2, channel=3, data=[49, 110]),
   midi.NoteOnEvent(tick=46, channel=3, data=[49, 0]),
   midi.NoteOnEvent(tick=2, channel=3, data=[49, 110]),
   midi.NoteOnEvent(tick=46, channel=3, data=[49, 0]),
   midi.NoteOnEvent(tick=2, channel=3, data=[49, 110]),
   midi.NoteOnEvent(tick=46, channel=3, data=[49, 0]),
   midi.NoteOnEvent(tick=2, channel=3, data=[49, 110]),
   midi.NoteOnEvent(tick=46, channel=3, data=[49, 0]),
   midi.NoteOnEvent(tick=2, channel=3, data=[49, 110]),
   midi.NoteOnEvent(tick=46, channel=3, data=[49, 0]),
   midi.NoteOnEvent(tick=2, channel=3, data=[49, 110]),
   midi.NoteOnEvent(tick=94, channel=3, data=[49, 0]),
   midi.NoteOnEvent(tick=2, channel=3, data=[49, 110]),
   midi.NoteOnEvent(tick=46, channel=3, data=[49, 0]),
   midi.NoteOnEvent(tick=2, channel=3, data=[49, 110]),
   midi.NoteOnEvent(tick=46, channel=3, data=[49, 0]),
   midi.NoteOnEvent(tick=2, channel=3, data=[49, 110]),
   midi.NoteOnEvent(tick=46, channel=3, data=[49, 0]),
   midi.NoteOnEvent(tick=2, channel=3, data=[49, 110]),
   midi.NoteOnEvent(tick=46, channel=3, data=[49, 0]),
   midi.NoteOnEvent(tick=2, channel=3, data=[49, 110]),
   midi.NoteOnEvent(tick=46, channel=3, data=[49, 0]),
   midi.NoteOnEvent(tick=2, channel=3, data=[49, 110]),
   midi.NoteOnEvent(tick=46, channel=3, data=[49, 0]),
   midi.NoteOnEvent(tick=2, channel=3, data=[49, 110]),
   midi.NoteOnEvent(tick=94, channel=3, data=[49, 0]),
   midi.NoteOnEvent(tick=2, channel=3, data=[49, 110]),
   midi.NoteOnEvent(tick=46, channel=3, data=[49, 0]),
   midi.NoteOnEvent(tick=2, channel=3, data=[49, 110]),
   midi.NoteOnEvent(tick=46, channel=3, data=[49, 0]),
   midi.NoteOnEvent(tick=2, channel=3, data=[49, 110]),
   midi.NoteOnEvent(tick=46, channel=3, data=[49, 0]),
   midi.NoteOnEvent(tick=2, channel=3, data=[49, 110]),
   midi.NoteOnEvent(tick=46, channel=3, data=[49, 0]),
   midi.NoteOnEvent(tick=2, channel=3, data=[49, 110]),
   midi.NoteOnEvent(tick=46, channel=3, data=[49, 0]),
   midi.NoteOnEvent(tick=2, channel=3, data=[49, 110]),
   midi.NoteOnEvent(tick=46, channel=3, data=[49, 0]),
   midi.NoteOnEvent(tick=2, channel=3, data=[49, 110]),
   midi.NoteOnEvent(tick=94, channel=3, data=[49, 0]),
   midi.NoteOnEvent(tick=2, channel=3, data=[49, 110]),
   midi.NoteOnEvent(tick=46, channel=3, data=[49, 0]),
   midi.NoteOnEvent(tick=2, channel=3, data=[49, 110]),
   midi.NoteOnEvent(tick=46, channel=3, data=[49, 0]),
   midi.NoteOnEvent(tick=2, channel=3, data=[49, 110]),
   midi.NoteOnEvent(tick=46, channel=3, data=[49, 0]),
   midi.NoteOnEvent(tick=2, channel=3, data=[49, 110]),
   midi.NoteOnEvent(tick=46, channel=3, data=[49, 0]),
   midi.NoteOnEvent(tick=2, channel=3, data=[49, 110]),
   midi.NoteOnEvent(tick=46, channel=3, data=[49, 0]),
   midi.NoteOnEvent(tick=2, channel=3, data=[49, 110]),
   midi.NoteOnEvent(tick=46, channel=3, data=[49, 0]),
   midi.NoteOnEvent(tick=2, channel=3, data=[45, 110]),
   midi.NoteOnEvent(tick=94, channel=3, data=[45, 0]),
   midi.NoteOnEvent(tick=2, channel=3, data=[55, 110]),
   midi.NoteOnEvent(tick=94, channel=3, data=[55, 0]),
   midi.NoteOnEvent(tick=2, channel=3, data=[54, 110]),
   midi.NoteOnEvent(tick=94, channel=3, data=[54, 0]),
   midi.NoteOnEvent(tick=2, channel=3, data=[45, 110]),
   midi.NoteOnEvent(tick=94, channel=3, data=[45, 0]),
   midi.NoteOnEvent(tick=2, channel=3, data=[54, 110]),
   midi.NoteOnEvent(tick=94, channel=3, data=[54, 0]),
   midi.NoteOnEvent(tick=2, channel=3, data=[52, 110]),
   midi.NoteOnEvent(tick=94, channel=3, data=[52, 0]),
   midi.NoteOnEvent(tick=2, channel=3, data=[50, 110]),
   midi.NoteOnEvent(tick=94, channel=3, data=[50, 0]),
   midi.NoteOnEvent(tick=2, channel=3, data=[49, 110]),
   midi.NoteOnEvent(tick=94, channel=3, data=[49, 0]),
   midi.NoteOnEvent(tick=2, channel=3, data=[43, 110]),
   midi.NoteOnEvent(tick=126, channel=3, data=[43, 0]),
   midi.NoteOnEvent(tick=2, channel=3, data=[42, 110]),
   midi.NoteOnEvent(tick=126, channel=3, data=[42, 0]),
   midi.NoteOnEvent(tick=2, channel=3, data=[40, 110]),
   midi.NoteOnEvent(tick=126, channel=3, data=[40, 0]),
   midi.NoteOnEvent(tick=2, channel=3, data=[50, 110]),
   midi.NoteOnEvent(tick=126, channel=3, data=[50, 0]),
   midi.NoteOnEvent(tick=2, channel=3, data=[49, 110]),
   midi.NoteOnEvent(tick=126, channel=3, data=[49, 0]),
   midi.NoteOnEvent(tick=2, channel=3, data=[47, 110]),
   midi.NoteOnEvent(tick=126, channel=3, data=[47, 0]),
   midi.NoteOnEvent(tick=2, channel=3, data=[49, 110]),
   midi.NoteOnEvent(tick=336, channel=3, data=[49, 0]),
   midi.NoteOnEvent(tick=48, channel=3, data=[44, 110]),
   midi.NoteOnEvent(tick=336, channel=3, data=[44, 0]),
   midi.NoteOnEvent(tick=48, channel=3, data=[49, 110]),
   midi.NoteOnEvent(tick=336, channel=3, data=[49, 0]),
   midi.NoteOnEvent(tick=48, channel=3, data=[44, 110]),
   midi.NoteOnEvent(tick=336, channel=3, data=[44, 0]),
   midi.NoteOnEvent(tick=48, channel=3, data=[49, 110]),
   midi.NoteOnEvent(tick=1488, channel=3, data=[49, 0]),
   midi.NoteOnEvent(tick=48, channel=3, data=[49, 110]),
   midi.NoteOnEvent(tick=94, channel=3, data=[49, 0]),
   midi.NoteOnEvent(tick=2, channel=3, data=[49, 110]),
   midi.NoteOnEvent(tick=46, channel=3, data=[49, 0]),
   midi.NoteOnEvent(tick=2, channel=3, data=[49, 110]),
   midi.NoteOnEvent(tick=46, channel=3, data=[49, 0]),
   midi.NoteOnEvent(tick=2, channel=3, data=[49, 110]),
   midi.NoteOnEvent(tick=46, channel=3, data=[49, 0]),
   midi.NoteOnEvent(tick=2, channel=3, data=[49, 110]),
   midi.NoteOnEvent(tick=46, channel=3, data=[49, 0]),
   midi.NoteOnEvent(tick=2, channel=3, data=[49, 110]),
   midi.NoteOnEvent(tick=46, channel=3, data=[49, 0]),
   midi.NoteOnEvent(tick=2, channel=3, data=[49, 110]),
   midi.NoteOnEvent(tick=46, channel=3, data=[49, 0]),
   midi.NoteOnEvent(tick=2, channel=3, data=[49, 110]),
   midi.NoteOnEvent(tick=94, channel=3, data=[49, 0]),
   midi.NoteOnEvent(tick=2, channel=3, data=[49, 110]),
   midi.NoteOnEvent(tick=46, channel=3, data=[49, 0]),
   midi.NoteOnEvent(tick=2, channel=3, data=[49, 110]),
   midi.NoteOnEvent(tick=46, channel=3, data=[49, 0]),
   midi.NoteOnEvent(tick=2, channel=3, data=[49, 110]),
   midi.NoteOnEvent(tick=46, channel=3, data=[49, 0]),
   midi.NoteOnEvent(tick=2, channel=3, data=[49, 110]),
   midi.NoteOnEvent(tick=46, channel=3, data=[49, 0]),
   midi.NoteOnEvent(tick=2, channel=3, data=[49, 110]),
   midi.NoteOnEvent(tick=46, channel=3, data=[49, 0]),
   midi.NoteOnEvent(tick=2, channel=3, data=[49, 110]),
   midi.NoteOnEvent(tick=46, channel=3, data=[49, 0]),
   midi.NoteOnEvent(tick=2, channel=3, data=[49, 110]),
   midi.NoteOnEvent(tick=94, channel=3, data=[49, 0]),
   midi.NoteOnEvent(tick=2, channel=3, data=[49, 110]),
   midi.NoteOnEvent(tick=46, channel=3, data=[49, 0]),
   midi.NoteOnEvent(tick=2, channel=3, data=[49, 110]),
   midi.NoteOnEvent(tick=46, channel=3, data=[49, 0]),
   midi.NoteOnEvent(tick=2, channel=3, data=[49, 110]),
   midi.NoteOnEvent(tick=46, channel=3, data=[49, 0]),
   midi.NoteOnEvent(tick=2, channel=3, data=[49, 110]),
   midi.NoteOnEvent(tick=46, channel=3, data=[49, 0]),
   midi.NoteOnEvent(tick=2, channel=3, data=[49, 110]),
   midi.NoteOnEvent(tick=46, channel=3, data=[49, 0]),
   midi.NoteOnEvent(tick=2, channel=3, data=[49, 110]),
   midi.NoteOnEvent(tick=46, channel=3, data=[49, 0]),
   midi.NoteOnEvent(tick=2, channel=3, data=[49, 110]),
   midi.NoteOnEvent(tick=94, channel=3, data=[49, 0]),
   midi.NoteOnEvent(tick=2, channel=3, data=[49, 110]),
   midi.NoteOnEvent(tick=46, channel=3, data=[49, 0]),
   midi.NoteOnEvent(tick=2, channel=3, data=[49, 110]),
   midi.NoteOnEvent(tick=46, channel=3, data=[49, 0]),
   midi.NoteOnEvent(tick=2, channel=3, data=[49, 110]),
   midi.NoteOnEvent(tick=46, channel=3, data=[49, 0]),
   midi.NoteOnEvent(tick=2, channel=3, data=[49, 110]),
   midi.NoteOnEvent(tick=46, channel=3, data=[49, 0]),
   midi.NoteOnEvent(tick=2, channel=3, data=[49, 110]),
   midi.NoteOnEvent(tick=46, channel=3, data=[49, 0]),
   midi.NoteOnEvent(tick=2, channel=3, data=[49, 110]),
   midi.NoteOnEvent(tick=46, channel=3, data=[49, 0]),
   midi.NoteOnEvent(tick=2, channel=3, data=[49, 110]),
   midi.NoteOnEvent(tick=94, channel=3, data=[49, 0]),
   midi.NoteOnEvent(tick=2, channel=3, data=[49, 110]),
   midi.NoteOnEvent(tick=46, channel=3, data=[49, 0]),
   midi.NoteOnEvent(tick=2, channel=3, data=[49, 110]),
   midi.NoteOnEvent(tick=46, channel=3, data=[49, 0]),
   midi.NoteOnEvent(tick=2, channel=3, data=[49, 110]),
   midi.NoteOnEvent(tick=46, channel=3, data=[49, 0]),
   midi.NoteOnEvent(tick=2, channel=3, data=[49, 110]),
   midi.NoteOnEvent(tick=46, channel=3, data=[49, 0]),
   midi.NoteOnEvent(tick=2, channel=3, data=[49, 110]),
   midi.NoteOnEvent(tick=46, channel=3, data=[49, 0]),
   midi.NoteOnEvent(tick=2, channel=3, data=[49, 110]),
   midi.NoteOnEvent(tick=46, channel=3, data=[49, 0]),
   midi.NoteOnEvent(tick=2, channel=3, data=[49, 110]),
   midi.NoteOnEvent(tick=94, channel=3, data=[49, 0]),
   midi.NoteOnEvent(tick=2, channel=3, data=[49, 110]),
   midi.NoteOnEvent(tick=46, channel=3, data=[49, 0]),
   midi.NoteOnEvent(tick=2, channel=3, data=[49, 110]),
   midi.NoteOnEvent(tick=46, channel=3, data=[49, 0]),
   midi.NoteOnEvent(tick=2, channel=3, data=[49, 110]),
   midi.NoteOnEvent(tick=46, channel=3, data=[49, 0]),
   midi.NoteOnEvent(tick=2, channel=3, data=[49, 110]),
   midi.NoteOnEvent(tick=46, channel=3, data=[49, 0]),
   midi.NoteOnEvent(tick=2, channel=3, data=[49, 110]),
   midi.NoteOnEvent(tick=46, channel=3, data=[49, 0]),
   midi.NoteOnEvent(tick=2, channel=3, data=[49, 110]),
   midi.NoteOnEvent(tick=46, channel=3, data=[49, 0]),
   midi.NoteOnEvent(tick=2, channel=3, data=[45, 110]),
   midi.NoteOnEvent(tick=94, channel=3, data=[45, 0]),
   midi.NoteOnEvent(tick=2, channel=3, data=[55, 110]),
   midi.NoteOnEvent(tick=94, channel=3, data=[55, 0]),
   midi.NoteOnEvent(tick=2, channel=3, data=[54, 110]),
   midi.NoteOnEvent(tick=94, channel=3, data=[54, 0]),
   midi.NoteOnEvent(tick=2, channel=3, data=[45, 110]),
   midi.NoteOnEvent(tick=94, channel=3, data=[45, 0]),
   midi.NoteOnEvent(tick=2, channel=3, data=[54, 110]),
   midi.NoteOnEvent(tick=94, channel=3, data=[54, 0]),
   midi.NoteOnEvent(tick=2, channel=3, data=[52, 110]),
   midi.NoteOnEvent(tick=94, channel=3, data=[52, 0]),
   midi.NoteOnEvent(tick=2, channel=3, data=[50, 110]),
   midi.NoteOnEvent(tick=94, channel=3, data=[50, 0]),
   midi.NoteOnEvent(tick=2, channel=3, data=[49, 110]),
   midi.NoteOnEvent(tick=94, channel=3, data=[49, 0]),
   midi.NoteOnEvent(tick=2, channel=3, data=[43, 110]),
   midi.NoteOnEvent(tick=126, channel=3, data=[43, 0]),
   midi.NoteOnEvent(tick=2, channel=3, data=[42, 110]),
   midi.NoteOnEvent(tick=126, channel=3, data=[42, 0]),
   midi.NoteOnEvent(tick=2, channel=3, data=[40, 110]),
   midi.NoteOnEvent(tick=126, channel=3, data=[40, 0]),
   midi.NoteOnEvent(tick=2, channel=3, data=[50, 110]),
   midi.NoteOnEvent(tick=126, channel=3, data=[50, 0]),
   midi.NoteOnEvent(tick=2, channel=3, data=[49, 110]),
   midi.NoteOnEvent(tick=126, channel=3, data=[49, 0]),
   midi.NoteOnEvent(tick=2, channel=3, data=[47, 110]),
   midi.NoteOnEvent(tick=126, channel=3, data=[47, 0]),
   midi.NoteOnEvent(tick=2, channel=3, data=[49, 110]),
   midi.NoteOnEvent(tick=720, channel=3, data=[49, 0]),
   midi.EndOfTrackEvent(tick=0, data=[])]),
 midi.Track(\
  [midi.PortEvent(tick=0, data=[0]),
   midi.TextMetaEvent(tick=0, text='Drums', data=[68, 114, 117, 109, 115]),
   midi.TrackNameEvent(tick=0, text='Drums', data=[68, 114, 117, 109, 115]),
   midi.InstrumentNameEvent(tick=0, text='Drums', data=[68, 114, 117, 109, 115]),
   midi.ControlChangeEvent(tick=0, channel=9, data=[7, 127]),
   midi.ControlChangeEvent(tick=0, channel=9, data=[10, 64]),
   midi.NoteOnEvent(tick=0, channel=9, data=[36, 110]),
   midi.NoteOnEvent(tick=94, channel=9, data=[36, 0]),
   midi.NoteOnEvent(tick=2, channel=9, data=[36, 110]),
   midi.NoteOnEvent(tick=94, channel=9, data=[36, 0]),
   midi.NoteOnEvent(tick=2, channel=9, data=[36, 110]),
   midi.NoteOnEvent(tick=94, channel=9, data=[36, 0]),
   midi.NoteOnEvent(tick=2, channel=9, data=[36, 110]),
   midi.NoteOnEvent(tick=94, channel=9, data=[36, 0]),
   midi.NoteOnEvent(tick=2, channel=9, data=[36, 110]),
   midi.NoteOnEvent(tick=94, channel=9, data=[36, 0]),
   midi.NoteOnEvent(tick=2, channel=9, data=[36, 110]),
   midi.NoteOnEvent(tick=94, channel=9, data=[36, 0]),
   midi.NoteOnEvent(tick=2, channel=9, data=[36, 110]),
   midi.NoteOnEvent(tick=0, channel=9, data=[38, 110]),
   midi.NoteOnEvent(tick=0, channel=9, data=[42, 110]),
   midi.NoteOnEvent(tick=0, channel=9, data=[49, 110]),
   midi.NoteOnEvent(tick=160, channel=9, data=[36, 0]),
   midi.NoteOnEvent(tick=0, channel=9, data=[38, 0]),
   midi.NoteOnEvent(tick=0, channel=9, data=[42, 0]),
   midi.NoteOnEvent(tick=0, channel=9, data=[49, 0]),
   midi.NoteOnEvent(tick=32, channel=9, data=[36, 110]),
   midi.NoteOnEvent(tick=0, channel=9, data=[38, 110]),
   midi.NoteOnEvent(tick=0, channel=9, data=[42, 110]),
   midi.NoteOnEvent(tick=0, channel=9, data=[49, 110]),
   midi.NoteOnEvent(tick=160, channel=9, data=[36, 0]),
   midi.NoteOnEvent(tick=0, channel=9, data=[38, 0]),
   midi.NoteOnEvent(tick=0, channel=9, data=[42, 0]),
   midi.NoteOnEvent(tick=0, channel=9, data=[49, 0]),
   midi.NoteOnEvent(tick=32, channel=9, data=[36, 110]),
   midi.NoteOnEvent(tick=0, channel=9, data=[38, 110]),
   midi.NoteOnEvent(tick=0, channel=9, data=[42, 110]),
   midi.NoteOnEvent(tick=0, channel=9, data=[49, 110]),
   midi.NoteOnEvent(tick=160, channel=9, data=[36, 0]),
   midi.NoteOnEvent(tick=0, channel=9, data=[38, 0]),
   midi.NoteOnEvent(tick=0, channel=9, data=[42, 0]),
   midi.NoteOnEvent(tick=0, channel=9, data=[49, 0]),
   midi.NoteOnEvent(tick=32, channel=9, data=[36, 110]),
   midi.NoteOnEvent(tick=94, channel=9, data=[36, 0]),
   midi.NoteOnEvent(tick=2, channel=9, data=[36, 110]),
   midi.NoteOnEvent(tick=94, channel=9, data=[36, 0]),
   midi.NoteOnEvent(tick=2, channel=9, data=[36, 110]),
   midi.NoteOnEvent(tick=94, channel=9, data=[36, 0]),
   midi.NoteOnEvent(tick=2, channel=9, data=[36, 110]),
   midi.NoteOnEvent(tick=94, channel=9, data=[36, 0]),
   midi.NoteOnEvent(tick=2, channel=9, data=[36, 110]),
   midi.NoteOnEvent(tick=94, channel=9, data=[36, 0]),
   midi.NoteOnEvent(tick=2, channel=9, data=[36, 110]),
   midi.NoteOnEvent(tick=94, channel=9, data=[36, 0]),
   midi.NoteOnEvent(tick=2, channel=9, data=[36, 110]),
   midi.NoteOnEvent(tick=0, channel=9, data=[38, 110]),
   midi.NoteOnEvent(tick=0, channel=9, data=[42, 110]),
   midi.NoteOnEvent(tick=0, channel=9, data=[49, 110]),
   midi.NoteOnEvent(tick=160, channel=9, data=[36, 0]),
   midi.NoteOnEvent(tick=0, channel=9, data=[38, 0]),
   midi.NoteOnEvent(tick=0, channel=9, data=[42, 0]),
   midi.NoteOnEvent(tick=0, channel=9, data=[49, 0]),
   midi.NoteOnEvent(tick=32, channel=9, data=[36, 110]),
   midi.NoteOnEvent(tick=0, channel=9, data=[38, 110]),
   midi.NoteOnEvent(tick=0, channel=9, data=[42, 110]),
   midi.NoteOnEvent(tick=0, channel=9, data=[49, 110]),
   midi.NoteOnEvent(tick=160, channel=9, data=[36, 0]),
   midi.NoteOnEvent(tick=0, channel=9, data=[38, 0]),
   midi.NoteOnEvent(tick=0, channel=9, data=[42, 0]),
   midi.NoteOnEvent(tick=0, channel=9, data=[49, 0]),
   midi.NoteOnEvent(tick=32, channel=9, data=[36, 110]),
   midi.NoteOnEvent(tick=0, channel=9, data=[38, 110]),
   midi.NoteOnEvent(tick=0, channel=9, data=[42, 110]),
   midi.NoteOnEvent(tick=0, channel=9, data=[49, 110]),
   midi.NoteOnEvent(tick=160, channel=9, data=[36, 0]),
   midi.NoteOnEvent(tick=0, channel=9, data=[38, 0]),
   midi.NoteOnEvent(tick=0, channel=9, data=[42, 0]),
   midi.NoteOnEvent(tick=0, channel=9, data=[49, 0]),
   midi.NoteOnEvent(tick=32, channel=9, data=[36, 110]),
   midi.NoteOnEvent(tick=94, channel=9, data=[36, 0]),
   midi.NoteOnEvent(tick=2, channel=9, data=[36, 110]),
   midi.NoteOnEvent(tick=94, channel=9, data=[36, 0]),
   midi.NoteOnEvent(tick=2, channel=9, data=[36, 110]),
   midi.NoteOnEvent(tick=94, channel=9, data=[36, 0]),
   midi.NoteOnEvent(tick=2, channel=9, data=[36, 110]),
   midi.NoteOnEvent(tick=94, channel=9, data=[36, 0]),
   midi.NoteOnEvent(tick=2, channel=9, data=[36, 110]),
   midi.NoteOnEvent(tick=94, channel=9, data=[36, 0]),
   midi.NoteOnEvent(tick=2, channel=9, data=[36, 110]),
   midi.NoteOnEvent(tick=94, channel=9, data=[36, 0]),
   midi.NoteOnEvent(tick=2, channel=9, data=[36, 110]),
   midi.NoteOnEvent(tick=0, channel=9, data=[38, 110]),
   midi.NoteOnEvent(tick=0, channel=9, data=[42, 110]),
   midi.NoteOnEvent(tick=0, channel=9, data=[49, 110]),
   midi.NoteOnEvent(tick=160, channel=9, data=[36, 0]),
   midi.NoteOnEvent(tick=0, channel=9, data=[38, 0]),
   midi.NoteOnEvent(tick=0, channel=9, data=[42, 0]),
   midi.NoteOnEvent(tick=0, channel=9, data=[49, 0]),
   midi.NoteOnEvent(tick=32, channel=9, data=[36, 110]),
   midi.NoteOnEvent(tick=0, channel=9, data=[38, 110]),
   midi.NoteOnEvent(tick=0, channel=9, data=[42, 110]),
   midi.NoteOnEvent(tick=0, channel=9, data=[49, 110]),
   midi.NoteOnEvent(tick=160, channel=9, data=[36, 0]),
   midi.NoteOnEvent(tick=0, channel=9, data=[38, 0]),
   midi.NoteOnEvent(tick=0, channel=9, data=[42, 0]),
   midi.NoteOnEvent(tick=0, channel=9, data=[49, 0]),
   midi.NoteOnEvent(tick=32, channel=9, data=[36, 110]),
   midi.NoteOnEvent(tick=0, channel=9, data=[38, 110]),
   midi.NoteOnEvent(tick=0, channel=9, data=[42, 110]),
   midi.NoteOnEvent(tick=0, channel=9, data=[49, 110]),
   midi.NoteOnEvent(tick=160, channel=9, data=[36, 0]),
   midi.NoteOnEvent(tick=0, channel=9, data=[38, 0]),
   midi.NoteOnEvent(tick=0, channel=9, data=[42, 0]),
   midi.NoteOnEvent(tick=0, channel=9, data=[49, 0]),
   midi.NoteOnEvent(tick=32, channel=9, data=[36, 110]),
   midi.NoteOnEvent(tick=94, channel=9, data=[36, 0]),
   midi.NoteOnEvent(tick=2, channel=9, data=[36, 110]),
   midi.NoteOnEvent(tick=94, channel=9, data=[36, 0]),
   midi.NoteOnEvent(tick=2, channel=9, data=[36, 110]),
   midi.NoteOnEvent(tick=94, channel=9, data=[36, 0]),
   midi.NoteOnEvent(tick=2, channel=9, data=[36, 110]),
   midi.NoteOnEvent(tick=94, channel=9, data=[36, 0]),
   midi.NoteOnEvent(tick=2, channel=9, data=[36, 110]),
   midi.NoteOnEvent(tick=94, channel=9, data=[36, 0]),
   midi.NoteOnEvent(tick=2, channel=9, data=[36, 110]),
   midi.NoteOnEvent(tick=94, channel=9, data=[36, 0]),
   midi.NoteOnEvent(tick=2, channel=9, data=[36, 110]),
   midi.NoteOnEvent(tick=94, channel=9, data=[36, 0]),
   midi.NoteOnEvent(tick=2, channel=9, data=[36, 110]),
   midi.NoteOnEvent(tick=94, channel=9, data=[36, 0]),
   midi.NoteOnEvent(tick=2, channel=9, data=[36, 110]),
   midi.NoteOnEvent(tick=94, channel=9, data=[36, 0]),
   midi.NoteOnEvent(tick=2, channel=9, data=[36, 110]),
   midi.NoteOnEvent(tick=0, channel=9, data=[38, 110]),
   midi.NoteOnEvent(tick=0, channel=9, data=[42, 110]),
   midi.NoteOnEvent(tick=0, channel=9, data=[49, 110]),
   midi.NoteOnEvent(tick=256, channel=9, data=[36, 0]),
   midi.NoteOnEvent(tick=0, channel=9, data=[38, 0]),
   midi.NoteOnEvent(tick=0, channel=9, data=[42, 0]),
   midi.NoteOnEvent(tick=0, channel=9, data=[49, 0]),
   midi.NoteOnEvent(tick=32, channel=9, data=[36, 110]),
   midi.NoteOnEvent(tick=94, channel=9, data=[36, 0]),
   midi.NoteOnEvent(tick=2, channel=9, data=[36, 110]),
   midi.NoteOnEvent(tick=94, channel=9, data=[36, 0]),
   midi.NoteOnEvent(tick=2, channel=9, data=[36, 110]),
   midi.NoteOnEvent(tick=94, channel=9, data=[36, 0]),
   midi.NoteOnEvent(tick=2, channel=9, data=[36, 110]),
   midi.NoteOnEvent(tick=94, channel=9, data=[36, 0]),
   midi.NoteOnEvent(tick=2, channel=9, data=[36, 110]),
   midi.NoteOnEvent(tick=94, channel=9, data=[36, 0]),
   midi.NoteOnEvent(tick=2, channel=9, data=[36, 110]),
   midi.NoteOnEvent(tick=94, channel=9, data=[36, 0]),
   midi.NoteOnEvent(tick=2, channel=9, data=[36, 110]),
   midi.NoteOnEvent(tick=0, channel=9, data=[38, 110]),
   midi.NoteOnEvent(tick=0, channel=9, data=[42, 110]),
   midi.NoteOnEvent(tick=0, channel=9, data=[49, 110]),
   midi.NoteOnEvent(tick=160, channel=9, data=[36, 0]),
   midi.NoteOnEvent(tick=0, channel=9, data=[38, 0]),
   midi.NoteOnEvent(tick=0, channel=9, data=[42, 0]),
   midi.NoteOnEvent(tick=0, channel=9, data=[49, 0]),
   midi.NoteOnEvent(tick=32, channel=9, data=[36, 110]),
   midi.NoteOnEvent(tick=0, channel=9, data=[38, 110]),
   midi.NoteOnEvent(tick=0, channel=9, data=[42, 110]),
   midi.NoteOnEvent(tick=0, channel=9, data=[49, 110]),
   midi.NoteOnEvent(tick=160, channel=9, data=[36, 0]),
   midi.NoteOnEvent(tick=0, channel=9, data=[38, 0]),
   midi.NoteOnEvent(tick=0, channel=9, data=[42, 0]),
   midi.NoteOnEvent(tick=0, channel=9, data=[49, 0]),
   midi.NoteOnEvent(tick=32, channel=9, data=[36, 110]),
   midi.NoteOnEvent(tick=0, channel=9, data=[38, 110]),
   midi.NoteOnEvent(tick=0, channel=9, data=[42, 110]),
   midi.NoteOnEvent(tick=0, channel=9, data=[49, 110]),
   midi.NoteOnEvent(tick=160, channel=9, data=[36, 0]),
   midi.NoteOnEvent(tick=0, channel=9, data=[38, 0]),
   midi.NoteOnEvent(tick=0, channel=9, data=[42, 0]),
   midi.NoteOnEvent(tick=0, channel=9, data=[49, 0]),
   midi.NoteOnEvent(tick=32, channel=9, data=[36, 110]),
   midi.NoteOnEvent(tick=94, channel=9, data=[36, 0]),
   midi.NoteOnEvent(tick=2, channel=9, data=[36, 110]),
   midi.NoteOnEvent(tick=94, channel=9, data=[36, 0]),
   midi.NoteOnEvent(tick=2, channel=9, data=[36, 110]),
   midi.NoteOnEvent(tick=94, channel=9, data=[36, 0]),
   midi.NoteOnEvent(tick=2, channel=9, data=[36, 110]),
   midi.NoteOnEvent(tick=94, channel=9, data=[36, 0]),
   midi.NoteOnEvent(tick=2, channel=9, data=[36, 110]),
   midi.NoteOnEvent(tick=94, channel=9, data=[36, 0]),
   midi.NoteOnEvent(tick=2, channel=9, data=[36, 110]),
   midi.NoteOnEvent(tick=94, channel=9, data=[36, 0]),
   midi.NoteOnEvent(tick=2, channel=9, data=[36, 110]),
   midi.NoteOnEvent(tick=0, channel=9, data=[38, 110]),
   midi.NoteOnEvent(tick=0, channel=9, data=[42, 110]),
   midi.NoteOnEvent(tick=0, channel=9, data=[49, 110]),
   midi.NoteOnEvent(tick=160, channel=9, data=[36, 0]),
   midi.NoteOnEvent(tick=0, channel=9, data=[38, 0]),
   midi.NoteOnEvent(tick=0, channel=9, data=[42, 0]),
   midi.NoteOnEvent(tick=0, channel=9, data=[49, 0]),
   midi.NoteOnEvent(tick=32, channel=9, data=[36, 110]),
   midi.NoteOnEvent(tick=0, channel=9, data=[38, 110]),
   midi.NoteOnEvent(tick=0, channel=9, data=[42, 110]),
   midi.NoteOnEvent(tick=0, channel=9, data=[49, 110]),
   midi.NoteOnEvent(tick=160, channel=9, data=[36, 0]),
   midi.NoteOnEvent(tick=0, channel=9, data=[38, 0]),
   midi.NoteOnEvent(tick=0, channel=9, data=[42, 0]),
   midi.NoteOnEvent(tick=0, channel=9, data=[49, 0]),
   midi.NoteOnEvent(tick=32, channel=9, data=[36, 110]),
   midi.NoteOnEvent(tick=0, channel=9, data=[38, 110]),
   midi.NoteOnEvent(tick=0, channel=9, data=[42, 110]),
   midi.NoteOnEvent(tick=0, channel=9, data=[49, 110]),
   midi.NoteOnEvent(tick=160, channel=9, data=[36, 0]),
   midi.NoteOnEvent(tick=0, channel=9, data=[38, 0]),
   midi.NoteOnEvent(tick=0, channel=9, data=[42, 0]),
   midi.NoteOnEvent(tick=0, channel=9, data=[49, 0]),
   midi.NoteOnEvent(tick=32, channel=9, data=[36, 110]),
   midi.NoteOnEvent(tick=94, channel=9, data=[36, 0]),
   midi.NoteOnEvent(tick=2, channel=9, data=[36, 110]),
   midi.NoteOnEvent(tick=94, channel=9, data=[36, 0]),
   midi.NoteOnEvent(tick=2, channel=9, data=[36, 110]),
   midi.NoteOnEvent(tick=94, channel=9, data=[36, 0]),
   midi.NoteOnEvent(tick=2, channel=9, data=[36, 110]),
   midi.NoteOnEvent(tick=94, channel=9, data=[36, 0]),
   midi.NoteOnEvent(tick=2, channel=9, data=[36, 110]),
   midi.NoteOnEvent(tick=94, channel=9, data=[36, 0]),
   midi.NoteOnEvent(tick=2, channel=9, data=[36, 110]),
   midi.NoteOnEvent(tick=94, channel=9, data=[36, 0]),
   midi.NoteOnEvent(tick=2, channel=9, data=[36, 110]),
   midi.NoteOnEvent(tick=0, channel=9, data=[38, 110]),
   midi.NoteOnEvent(tick=0, channel=9, data=[42, 110]),
   midi.NoteOnEvent(tick=0, channel=9, data=[49, 110]),
   midi.NoteOnEvent(tick=160, channel=9, data=[36, 0]),
   midi.NoteOnEvent(tick=0, channel=9, data=[38, 0]),
   midi.NoteOnEvent(tick=0, channel=9, data=[42, 0]),
   midi.NoteOnEvent(tick=0, channel=9, data=[49, 0]),
   midi.NoteOnEvent(tick=32, channel=9, data=[36, 110]),
   midi.NoteOnEvent(tick=0, channel=9, data=[38, 110]),
   midi.NoteOnEvent(tick=0, channel=9, data=[42, 110]),
   midi.NoteOnEvent(tick=0, channel=9, data=[49, 110]),
   midi.NoteOnEvent(tick=160, channel=9, data=[36, 0]),
   midi.NoteOnEvent(tick=0, channel=9, data=[38, 0]),
   midi.NoteOnEvent(tick=0, channel=9, data=[42, 0]),
   midi.NoteOnEvent(tick=0, channel=9, data=[49, 0]),
   midi.NoteOnEvent(tick=32, channel=9, data=[36, 110]),
   midi.NoteOnEvent(tick=0, channel=9, data=[38, 110]),
   midi.NoteOnEvent(tick=0, channel=9, data=[42, 110]),
   midi.NoteOnEvent(tick=0, channel=9, data=[49, 110]),
   midi.NoteOnEvent(tick=160, channel=9, data=[36, 0]),
   midi.NoteOnEvent(tick=0, channel=9, data=[38, 0]),
   midi.NoteOnEvent(tick=0, channel=9, data=[42, 0]),
   midi.NoteOnEvent(tick=0, channel=9, data=[49, 0]),
   midi.NoteOnEvent(tick=32, channel=9, data=[36, 110]),
   midi.NoteOnEvent(tick=94, channel=9, data=[36, 0]),
   midi.NoteOnEvent(tick=2, channel=9, data=[36, 110]),
   midi.NoteOnEvent(tick=94, channel=9, data=[36, 0]),
   midi.NoteOnEvent(tick=2, channel=9, data=[36, 110]),
   midi.NoteOnEvent(tick=94, channel=9, data=[36, 0]),
   midi.NoteOnEvent(tick=2, channel=9, data=[36, 110]),
   midi.NoteOnEvent(tick=94, channel=9, data=[36, 0]),
   midi.NoteOnEvent(tick=2, channel=9, data=[36, 110]),
   midi.NoteOnEvent(tick=94, channel=9, data=[36, 0]),
   midi.NoteOnEvent(tick=2, channel=9, data=[36, 110]),
   midi.NoteOnEvent(tick=94, channel=9, data=[36, 0]),
   midi.NoteOnEvent(tick=2, channel=9, data=[36, 110]),
   midi.NoteOnEvent(tick=94, channel=9, data=[36, 0]),
   midi.NoteOnEvent(tick=2, channel=9, data=[36, 110]),
   midi.NoteOnEvent(tick=94, channel=9, data=[36, 0]),
   midi.NoteOnEvent(tick=2, channel=9, data=[36, 110]),
   midi.NoteOnEvent(tick=94, channel=9, data=[36, 0]),
   midi.NoteOnEvent(tick=2, channel=9, data=[36, 110]),
   midi.NoteOnEvent(tick=0, channel=9, data=[38, 110]),
   midi.NoteOnEvent(tick=0, channel=9, data=[42, 110]),
   midi.NoteOnEvent(tick=0, channel=9, data=[49, 110]),
   midi.NoteOnEvent(tick=256, channel=9, data=[36, 0]),
   midi.NoteOnEvent(tick=0, channel=9, data=[38, 0]),
   midi.NoteOnEvent(tick=0, channel=9, data=[42, 0]),
   midi.NoteOnEvent(tick=0, channel=9, data=[49, 0]),
   midi.NoteOnEvent(tick=32, channel=9, data=[36, 110]),
   midi.NoteOnEvent(tick=94, channel=9, data=[36, 0]),
   midi.NoteOnEvent(tick=2, channel=9, data=[36, 110]),
   midi.NoteOnEvent(tick=94, channel=9, data=[36, 0]),
   midi.NoteOnEvent(tick=2, channel=9, data=[36, 110]),
   midi.NoteOnEvent(tick=94, channel=9, data=[36, 0]),
   midi.NoteOnEvent(tick=2, channel=9, data=[36, 110]),
   midi.NoteOnEvent(tick=94, channel=9, data=[36, 0]),
   midi.NoteOnEvent(tick=2, channel=9, data=[36, 110]),
   midi.NoteOnEvent(tick=94, channel=9, data=[36, 0]),
   midi.NoteOnEvent(tick=2, channel=9, data=[36, 110]),
   midi.NoteOnEvent(tick=94, channel=9, data=[36, 0]),
   midi.NoteOnEvent(tick=2, channel=9, data=[36, 110]),
   midi.NoteOnEvent(tick=0, channel=9, data=[38, 110]),
   midi.NoteOnEvent(tick=0, channel=9, data=[42, 110]),
   midi.NoteOnEvent(tick=0, channel=9, data=[49, 110]),
   midi.NoteOnEvent(tick=160, channel=9, data=[36, 0]),
   midi.NoteOnEvent(tick=0, channel=9, data=[38, 0]),
   midi.NoteOnEvent(tick=0, channel=9, data=[42, 0]),
   midi.NoteOnEvent(tick=0, channel=9, data=[49, 0]),
   midi.NoteOnEvent(tick=32, channel=9, data=[36, 110]),
   midi.NoteOnEvent(tick=0, channel=9, data=[38, 110]),
   midi.NoteOnEvent(tick=0, channel=9, data=[42, 110]),
   midi.NoteOnEvent(tick=0, channel=9, data=[49, 110]),
   midi.NoteOnEvent(tick=160, channel=9, data=[36, 0]),
   midi.NoteOnEvent(tick=0, channel=9, data=[38, 0]),
   midi.NoteOnEvent(tick=0, channel=9, data=[42, 0]),
   midi.NoteOnEvent(tick=0, channel=9, data=[49, 0]),
   midi.NoteOnEvent(tick=32, channel=9, data=[36, 110]),
   midi.NoteOnEvent(tick=0, channel=9, data=[38, 110]),
   midi.NoteOnEvent(tick=0, channel=9, data=[42, 110]),
   midi.NoteOnEvent(tick=0, channel=9, data=[49, 110]),
   midi.NoteOnEvent(tick=160, channel=9, data=[36, 0]),
   midi.NoteOnEvent(tick=0, channel=9, data=[38, 0]),
   midi.NoteOnEvent(tick=0, channel=9, data=[42, 0]),
   midi.NoteOnEvent(tick=0, channel=9, data=[49, 0]),
   midi.NoteOnEvent(tick=32, channel=9, data=[36, 110]),
   midi.NoteOnEvent(tick=94, channel=9, data=[36, 0]),
   midi.NoteOnEvent(tick=2, channel=9, data=[36, 110]),
   midi.NoteOnEvent(tick=94, channel=9, data=[36, 0]),
   midi.NoteOnEvent(tick=2, channel=9, data=[36, 110]),
   midi.NoteOnEvent(tick=94, channel=9, data=[36, 0]),
   midi.NoteOnEvent(tick=2, channel=9, data=[36, 110]),
   midi.NoteOnEvent(tick=94, channel=9, data=[36, 0]),
   midi.NoteOnEvent(tick=2, channel=9, data=[36, 110]),
   midi.NoteOnEvent(tick=94, channel=9, data=[36, 0]),
   midi.NoteOnEvent(tick=2, channel=9, data=[36, 110]),
   midi.NoteOnEvent(tick=94, channel=9, data=[36, 0]),
   midi.NoteOnEvent(tick=2, channel=9, data=[36, 110]),
   midi.NoteOnEvent(tick=0, channel=9, data=[38, 110]),
   midi.NoteOnEvent(tick=0, channel=9, data=[42, 110]),
   midi.NoteOnEvent(tick=0, channel=9, data=[49, 110]),
   midi.NoteOnEvent(tick=160, channel=9, data=[36, 0]),
   midi.NoteOnEvent(tick=0, channel=9, data=[38, 0]),
   midi.NoteOnEvent(tick=0, channel=9, data=[42, 0]),
   midi.NoteOnEvent(tick=0, channel=9, data=[49, 0]),
   midi.NoteOnEvent(tick=32, channel=9, data=[36, 110]),
   midi.NoteOnEvent(tick=0, channel=9, data=[38, 110]),
   midi.NoteOnEvent(tick=0, channel=9, data=[42, 110]),
   midi.NoteOnEvent(tick=0, channel=9, data=[49, 110]),
   midi.NoteOnEvent(tick=160, channel=9, data=[36, 0]),
   midi.NoteOnEvent(tick=0, channel=9, data=[38, 0]),
   midi.NoteOnEvent(tick=0, channel=9, data=[42, 0]),
   midi.NoteOnEvent(tick=0, channel=9, data=[49, 0]),
   midi.NoteOnEvent(tick=32, channel=9, data=[36, 110]),
   midi.NoteOnEvent(tick=0, channel=9, data=[38, 110]),
   midi.NoteOnEvent(tick=0, channel=9, data=[42, 110]),
   midi.NoteOnEvent(tick=0, channel=9, data=[49, 110]),
   midi.NoteOnEvent(tick=160, channel=9, data=[36, 0]),
   midi.NoteOnEvent(tick=0, channel=9, data=[38, 0]),
   midi.NoteOnEvent(tick=0, channel=9, data=[42, 0]),
   midi.NoteOnEvent(tick=0, channel=9, data=[49, 0]),
   midi.NoteOnEvent(tick=32, channel=9, data=[36, 110]),
   midi.NoteOnEvent(tick=94, channel=9, data=[36, 0]),
   midi.NoteOnEvent(tick=2, channel=9, data=[36, 110]),
   midi.NoteOnEvent(tick=94, channel=9, data=[36, 0]),
   midi.NoteOnEvent(tick=2, channel=9, data=[36, 110]),
   midi.NoteOnEvent(tick=94, channel=9, data=[36, 0]),
   midi.NoteOnEvent(tick=2, channel=9, data=[36, 110]),
   midi.NoteOnEvent(tick=94, channel=9, data=[36, 0]),
   midi.NoteOnEvent(tick=2, channel=9, data=[36, 110]),
   midi.NoteOnEvent(tick=94, channel=9, data=[36, 0]),
   midi.NoteOnEvent(tick=2, channel=9, data=[36, 110]),
   midi.NoteOnEvent(tick=94, channel=9, data=[36, 0]),
   midi.NoteOnEvent(tick=2, channel=9, data=[36, 110]),
   midi.NoteOnEvent(tick=0, channel=9, data=[38, 110]),
   midi.NoteOnEvent(tick=0, channel=9, data=[42, 110]),
   midi.NoteOnEvent(tick=0, channel=9, data=[49, 110]),
   midi.NoteOnEvent(tick=160, channel=9, data=[36, 0]),
   midi.NoteOnEvent(tick=0, channel=9, data=[38, 0]),
   midi.NoteOnEvent(tick=0, channel=9, data=[42, 0]),
   midi.NoteOnEvent(tick=0, channel=9, data=[49, 0]),
   midi.NoteOnEvent(tick=32, channel=9, data=[36, 110]),
   midi.NoteOnEvent(tick=0, channel=9, data=[38, 110]),
   midi.NoteOnEvent(tick=0, channel=9, data=[42, 110]),
   midi.NoteOnEvent(tick=0, channel=9, data=[49, 110]),
   midi.NoteOnEvent(tick=160, channel=9, data=[36, 0]),
   midi.NoteOnEvent(tick=0, channel=9, data=[38, 0]),
   midi.NoteOnEvent(tick=0, channel=9, data=[42, 0]),
   midi.NoteOnEvent(tick=0, channel=9, data=[49, 0]),
   midi.NoteOnEvent(tick=32, channel=9, data=[36, 110]),
   midi.NoteOnEvent(tick=0, channel=9, data=[38, 110]),
   midi.NoteOnEvent(tick=0, channel=9, data=[42, 110]),
   midi.NoteOnEvent(tick=0, channel=9, data=[49, 110]),
   midi.NoteOnEvent(tick=160, channel=9, data=[36, 0]),
   midi.NoteOnEvent(tick=0, channel=9, data=[38, 0]),
   midi.NoteOnEvent(tick=0, channel=9, data=[42, 0]),
   midi.NoteOnEvent(tick=0, channel=9, data=[49, 0]),
   midi.NoteOnEvent(tick=32, channel=9, data=[36, 110]),
   midi.NoteOnEvent(tick=94, channel=9, data=[36, 0]),
   midi.NoteOnEvent(tick=2, channel=9, data=[36, 110]),
   midi.NoteOnEvent(tick=94, channel=9, data=[36, 0]),
   midi.NoteOnEvent(tick=2, channel=9, data=[36, 110]),
   midi.NoteOnEvent(tick=94, channel=9, data=[36, 0]),
   midi.NoteOnEvent(tick=2, channel=9, data=[36, 110]),
   midi.NoteOnEvent(tick=94, channel=9, data=[36, 0]),
   midi.NoteOnEvent(tick=2, channel=9, data=[36, 110]),
   midi.NoteOnEvent(tick=94, channel=9, data=[36, 0]),
   midi.NoteOnEvent(tick=2, channel=9, data=[36, 110]),
   midi.NoteOnEvent(tick=94, channel=9, data=[36, 0]),
   midi.NoteOnEvent(tick=2, channel=9, data=[36, 110]),
   midi.NoteOnEvent(tick=94, channel=9, data=[36, 0]),
   midi.NoteOnEvent(tick=2, channel=9, data=[36, 110]),
   midi.NoteOnEvent(tick=94, channel=9, data=[36, 0]),
   midi.NoteOnEvent(tick=2, channel=9, data=[36, 110]),
   midi.NoteOnEvent(tick=94, channel=9, data=[36, 0]),
   midi.NoteOnEvent(tick=2, channel=9, data=[36, 110]),
   midi.NoteOnEvent(tick=0, channel=9, data=[38, 110]),
   midi.NoteOnEvent(tick=0, channel=9, data=[42, 110]),
   midi.NoteOnEvent(tick=0, channel=9, data=[49, 110]),
   midi.NoteOnEvent(tick=256, channel=9, data=[36, 0]),
   midi.NoteOnEvent(tick=0, channel=9, data=[38, 0]),
   midi.NoteOnEvent(tick=0, channel=9, data=[42, 0]),
   midi.NoteOnEvent(tick=0, channel=9, data=[49, 0]),
   midi.NoteOnEvent(tick=32, channel=9, data=[36, 110]),
   midi.NoteOnEvent(tick=94, channel=9, data=[36, 0]),
   midi.NoteOnEvent(tick=2, channel=9, data=[36, 110]),
   midi.NoteOnEvent(tick=94, channel=9, data=[36, 0]),
   midi.NoteOnEvent(tick=2, channel=9, data=[36, 110]),
   midi.NoteOnEvent(tick=94, channel=9, data=[36, 0]),
   midi.NoteOnEvent(tick=2, channel=9, data=[36, 110]),
   midi.NoteOnEvent(tick=94, channel=9, data=[36, 0]),
   midi.NoteOnEvent(tick=2, channel=9, data=[36, 110]),
   midi.NoteOnEvent(tick=94, channel=9, data=[36, 0]),
   midi.NoteOnEvent(tick=2, channel=9, data=[36, 110]),
   midi.NoteOnEvent(tick=94, channel=9, data=[36, 0]),
   midi.NoteOnEvent(tick=2, channel=9, data=[36, 110]),
   midi.NoteOnEvent(tick=0, channel=9, data=[38, 110]),
   midi.NoteOnEvent(tick=0, channel=9, data=[42, 110]),
   midi.NoteOnEvent(tick=0, channel=9, data=[49, 110]),
   midi.NoteOnEvent(tick=160, channel=9, data=[36, 0]),
   midi.NoteOnEvent(tick=0, channel=9, data=[38, 0]),
   midi.NoteOnEvent(tick=0, channel=9, data=[42, 0]),
   midi.NoteOnEvent(tick=0, channel=9, data=[49, 0]),
   midi.NoteOnEvent(tick=32, channel=9, data=[36, 110]),
   midi.NoteOnEvent(tick=0, channel=9, data=[38, 110]),
   midi.NoteOnEvent(tick=0, channel=9, data=[42, 110]),
   midi.NoteOnEvent(tick=0, channel=9, data=[49, 110]),
   midi.NoteOnEvent(tick=160, channel=9, data=[36, 0]),
   midi.NoteOnEvent(tick=0, channel=9, data=[38, 0]),
   midi.NoteOnEvent(tick=0, channel=9, data=[42, 0]),
   midi.NoteOnEvent(tick=0, channel=9, data=[49, 0]),
   midi.NoteOnEvent(tick=32, channel=9, data=[36, 110]),
   midi.NoteOnEvent(tick=0, channel=9, data=[38, 110]),
   midi.NoteOnEvent(tick=0, channel=9, data=[42, 110]),
   midi.NoteOnEvent(tick=0, channel=9, data=[49, 110]),
   midi.NoteOnEvent(tick=160, channel=9, data=[36, 0]),
   midi.NoteOnEvent(tick=0, channel=9, data=[38, 0]),
   midi.NoteOnEvent(tick=0, channel=9, data=[42, 0]),
   midi.NoteOnEvent(tick=0, channel=9, data=[49, 0]),
   midi.NoteOnEvent(tick=32, channel=9, data=[36, 110]),
   midi.NoteOnEvent(tick=94, channel=9, data=[36, 0]),
   midi.NoteOnEvent(tick=2, channel=9, data=[36, 110]),
   midi.NoteOnEvent(tick=94, channel=9, data=[36, 0]),
   midi.NoteOnEvent(tick=2, channel=9, data=[36, 110]),
   midi.NoteOnEvent(tick=94, channel=9, data=[36, 0]),
   midi.NoteOnEvent(tick=2, channel=9, data=[36, 110]),
   midi.NoteOnEvent(tick=94, channel=9, data=[36, 0]),
   midi.NoteOnEvent(tick=2, channel=9, data=[36, 110]),
   midi.NoteOnEvent(tick=94, channel=9, data=[36, 0]),
   midi.NoteOnEvent(tick=2, channel=9, data=[36, 110]),
   midi.NoteOnEvent(tick=94, channel=9, data=[36, 0]),
   midi.NoteOnEvent(tick=2, channel=9, data=[36, 110]),
   midi.NoteOnEvent(tick=0, channel=9, data=[38, 110]),
   midi.NoteOnEvent(tick=0, channel=9, data=[42, 110]),
   midi.NoteOnEvent(tick=0, channel=9, data=[49, 110]),
   midi.NoteOnEvent(tick=160, channel=9, data=[36, 0]),
   midi.NoteOnEvent(tick=0, channel=9, data=[38, 0]),
   midi.NoteOnEvent(tick=0, channel=9, data=[42, 0]),
   midi.NoteOnEvent(tick=0, channel=9, data=[49, 0]),
   midi.NoteOnEvent(tick=32, channel=9, data=[36, 110]),
   midi.NoteOnEvent(tick=0, channel=9, data=[38, 110]),
   midi.NoteOnEvent(tick=0, channel=9, data=[42, 110]),
   midi.NoteOnEvent(tick=0, channel=9, data=[49, 110]),
   midi.NoteOnEvent(tick=160, channel=9, data=[36, 0]),
   midi.NoteOnEvent(tick=0, channel=9, data=[38, 0]),
   midi.NoteOnEvent(tick=0, channel=9, data=[42, 0]),
   midi.NoteOnEvent(tick=0, channel=9, data=[49, 0]),
   midi.NoteOnEvent(tick=32, channel=9, data=[36, 110]),
   midi.NoteOnEvent(tick=0, channel=9, data=[38, 110]),
   midi.NoteOnEvent(tick=0, channel=9, data=[42, 110]),
   midi.NoteOnEvent(tick=0, channel=9, data=[49, 110]),
   midi.NoteOnEvent(tick=160, channel=9, data=[36, 0]),
   midi.NoteOnEvent(tick=0, channel=9, data=[38, 0]),
   midi.NoteOnEvent(tick=0, channel=9, data=[42, 0]),
   midi.NoteOnEvent(tick=0, channel=9, data=[49, 0]),
   midi.NoteOnEvent(tick=32, channel=9, data=[36, 110]),
   midi.NoteOnEvent(tick=94, channel=9, data=[36, 0]),
   midi.NoteOnEvent(tick=2, channel=9, data=[36, 110]),
   midi.NoteOnEvent(tick=94, channel=9, data=[36, 0]),
   midi.NoteOnEvent(tick=2, channel=9, data=[36, 110]),
   midi.NoteOnEvent(tick=94, channel=9, data=[36, 0]),
   midi.NoteOnEvent(tick=2, channel=9, data=[36, 110]),
   midi.NoteOnEvent(tick=94, channel=9, data=[36, 0]),
   midi.NoteOnEvent(tick=2, channel=9, data=[36, 110]),
   midi.NoteOnEvent(tick=94, channel=9, data=[36, 0]),
   midi.NoteOnEvent(tick=2, channel=9, data=[36, 110]),
   midi.NoteOnEvent(tick=94, channel=9, data=[36, 0]),
   midi.NoteOnEvent(tick=2, channel=9, data=[36, 110]),
   midi.NoteOnEvent(tick=0, channel=9, data=[38, 110]),
   midi.NoteOnEvent(tick=0, channel=9, data=[42, 110]),
   midi.NoteOnEvent(tick=0, channel=9, data=[49, 110]),
   midi.NoteOnEvent(tick=160, channel=9, data=[36, 0]),
   midi.NoteOnEvent(tick=0, channel=9, data=[38, 0]),
   midi.NoteOnEvent(tick=0, channel=9, data=[42, 0]),
   midi.NoteOnEvent(tick=0, channel=9, data=[49, 0]),
   midi.NoteOnEvent(tick=32, channel=9, data=[36, 110]),
   midi.NoteOnEvent(tick=0, channel=9, data=[38, 110]),
   midi.NoteOnEvent(tick=0, channel=9, data=[42, 110]),
   midi.NoteOnEvent(tick=0, channel=9, data=[49, 110]),
   midi.NoteOnEvent(tick=160, channel=9, data=[36, 0]),
   midi.NoteOnEvent(tick=0, channel=9, data=[38, 0]),
   midi.NoteOnEvent(tick=0, channel=9, data=[42, 0]),
   midi.NoteOnEvent(tick=0, channel=9, data=[49, 0]),
   midi.NoteOnEvent(tick=32, channel=9, data=[36, 110]),
   midi.NoteOnEvent(tick=0, channel=9, data=[38, 110]),
   midi.NoteOnEvent(tick=0, channel=9, data=[42, 110]),
   midi.NoteOnEvent(tick=0, channel=9, data=[49, 110]),
   midi.NoteOnEvent(tick=160, channel=9, data=[36, 0]),
   midi.NoteOnEvent(tick=0, channel=9, data=[38, 0]),
   midi.NoteOnEvent(tick=0, channel=9, data=[42, 0]),
   midi.NoteOnEvent(tick=0, channel=9, data=[49, 0]),
   midi.NoteOnEvent(tick=32, channel=9, data=[36, 110]),
   midi.NoteOnEvent(tick=94, channel=9, data=[36, 0]),
   midi.NoteOnEvent(tick=2, channel=9, data=[36, 110]),
   midi.NoteOnEvent(tick=94, channel=9, data=[36, 0]),
   midi.NoteOnEvent(tick=2, channel=9, data=[36, 110]),
   midi.NoteOnEvent(tick=94, channel=9, data=[36, 0]),
   midi.NoteOnEvent(tick=2, channel=9, data=[36, 110]),
   midi.NoteOnEvent(tick=94, channel=9, data=[36, 0]),
   midi.NoteOnEvent(tick=2, channel=9, data=[36, 110]),
   midi.NoteOnEvent(tick=94, channel=9, data=[36, 0]),
   midi.NoteOnEvent(tick=2, channel=9, data=[36, 110]),
   midi.NoteOnEvent(tick=94, channel=9, data=[36, 0]),
   midi.NoteOnEvent(tick=2, channel=9, data=[36, 110]),
   midi.NoteOnEvent(tick=94, channel=9, data=[36, 0]),
   midi.NoteOnEvent(tick=2, channel=9, data=[36, 110]),
   midi.NoteOnEvent(tick=94, channel=9, data=[36, 0]),
   midi.NoteOnEvent(tick=2, channel=9, data=[36, 110]),
   midi.NoteOnEvent(tick=94, channel=9, data=[36, 0]),
   midi.NoteOnEvent(tick=2, channel=9, data=[36, 110]),
   midi.NoteOnEvent(tick=0, channel=9, data=[38, 110]),
   midi.NoteOnEvent(tick=0, channel=9, data=[42, 110]),
   midi.NoteOnEvent(tick=0, channel=9, data=[49, 110]),
   midi.NoteOnEvent(tick=256, channel=9, data=[36, 0]),
   midi.NoteOnEvent(tick=0, channel=9, data=[38, 0]),
   midi.NoteOnEvent(tick=0, channel=9, data=[42, 0]),
   midi.NoteOnEvent(tick=0, channel=9, data=[49, 0]),
   midi.NoteOnEvent(tick=1184, channel=9, data=[36, 110]),
   midi.NoteOnEvent(tick=0, channel=9, data=[38, 110]),
   midi.NoteOnEvent(tick=0, channel=9, data=[42, 110]),
   midi.NoteOnEvent(tick=0, channel=9, data=[49, 110]),
   midi.NoteOnEvent(tick=160, channel=9, data=[36, 0]),
   midi.NoteOnEvent(tick=0, channel=9, data=[38, 0]),
   midi.NoteOnEvent(tick=0, channel=9, data=[42, 0]),
   midi.NoteOnEvent(tick=0, channel=9, data=[49, 0]),
   midi.NoteOnEvent(tick=2528, channel=9, data=[36, 110]),
   midi.NoteOnEvent(tick=0, channel=9, data=[38, 110]),
   midi.NoteOnEvent(tick=160, channel=9, data=[36, 0]),
   midi.NoteOnEvent(tick=0, channel=9, data=[38, 0]),
   midi.NoteOnEvent(tick=32, channel=9, data=[36, 110]),
   midi.NoteOnEvent(tick=0, channel=9, data=[38, 110]),
   midi.NoteOnEvent(tick=160, channel=9, data=[36, 0]),
   midi.NoteOnEvent(tick=0, channel=9, data=[38, 0]),
   midi.NoteOnEvent(tick=32, channel=9, data=[36, 110]),
   midi.NoteOnEvent(tick=0, channel=9, data=[38, 110]),
   midi.NoteOnEvent(tick=160, channel=9, data=[36, 0]),
   midi.NoteOnEvent(tick=0, channel=9, data=[38, 0]),
   midi.NoteOnEvent(tick=224, channel=9, data=[36, 110]),
   midi.NoteOnEvent(tick=0, channel=9, data=[38, 110]),
   midi.NoteOnEvent(tick=160, channel=9, data=[36, 0]),
   midi.NoteOnEvent(tick=0, channel=9, data=[38, 0]),
   midi.NoteOnEvent(tick=608, channel=9, data=[36, 110]),
   midi.NoteOnEvent(tick=0, channel=9, data=[38, 110]),
   midi.NoteOnEvent(tick=160, channel=9, data=[36, 0]),
   midi.NoteOnEvent(tick=0, channel=9, data=[38, 0]),
   midi.NoteOnEvent(tick=608, channel=9, data=[36, 110]),
   midi.NoteOnEvent(tick=0, channel=9, data=[38, 110]),
   midi.NoteOnEvent(tick=160, channel=9, data=[36, 0]),
   midi.NoteOnEvent(tick=0, channel=9, data=[38, 0]),
   midi.NoteOnEvent(tick=608, channel=9, data=[36, 110]),
   midi.NoteOnEvent(tick=0, channel=9, data=[38, 110]),
   midi.NoteOnEvent(tick=160, channel=9, data=[36, 0]),
   midi.NoteOnEvent(tick=0, channel=9, data=[38, 0]),
   midi.NoteOnEvent(tick=224, channel=9, data=[36, 110]),
   midi.NoteOnEvent(tick=256, channel=9, data=[36, 0]),
   midi.NoteOnEvent(tick=32, channel=9, data=[36, 110]),
   midi.NoteOnEvent(tick=94, channel=9, data=[36, 0]),
   midi.NoteOnEvent(tick=2, channel=9, data=[38, 110]),
   midi.NoteOnEvent(tick=0, channel=9, data=[49, 110]),
   midi.NoteOnEvent(tick=336, channel=9, data=[38, 0]),
   midi.NoteOnEvent(tick=0, channel=9, data=[49, 0]),
   midi.NoteOnEvent(tick=48, channel=9, data=[36, 110]),
   midi.NoteOnEvent(tick=160, channel=9, data=[36, 0]),
   midi.NoteOnEvent(tick=32, channel=9, data=[36, 110]),
   midi.NoteOnEvent(tick=94, channel=9, data=[36, 0]),
   midi.NoteOnEvent(tick=2, channel=9, data=[36, 110]),
   midi.NoteOnEvent(tick=94, channel=9, data=[36, 0]),
   midi.NoteOnEvent(tick=2, channel=9, data=[38, 110]),
   midi.NoteOnEvent(tick=0, channel=9, data=[49, 110]),
   midi.NoteOnEvent(tick=336, channel=9, data=[38, 0]),
   midi.NoteOnEvent(tick=0, channel=9, data=[49, 0]),
   midi.NoteOnEvent(tick=48, channel=9, data=[36, 110]),
   midi.NoteOnEvent(tick=256, channel=9, data=[36, 0]),
   midi.NoteOnEvent(tick=32, channel=9, data=[36, 110]),
   midi.NoteOnEvent(tick=94, channel=9, data=[36, 0]),
   midi.NoteOnEvent(tick=2, channel=9, data=[38, 110]),
   midi.NoteOnEvent(tick=0, channel=9, data=[49, 110]),
   midi.NoteOnEvent(tick=336, channel=9, data=[38, 0]),
   midi.NoteOnEvent(tick=0, channel=9, data=[49, 0]),
   midi.NoteOnEvent(tick=48, channel=9, data=[36, 110]),
   midi.NoteOnEvent(tick=160, channel=9, data=[36, 0]),
   midi.NoteOnEvent(tick=32, channel=9, data=[36, 110]),
   midi.NoteOnEvent(tick=94, channel=9, data=[36, 0]),
   midi.NoteOnEvent(tick=2, channel=9, data=[36, 110]),
   midi.NoteOnEvent(tick=94, channel=9, data=[36, 0]),
   midi.NoteOnEvent(tick=2, channel=9, data=[38, 110]),
   midi.NoteOnEvent(tick=0, channel=9, data=[49, 110]),
   midi.NoteOnEvent(tick=336, channel=9, data=[38, 0]),
   midi.NoteOnEvent(tick=0, channel=9, data=[49, 0]),
   midi.NoteOnEvent(tick=48, channel=9, data=[36, 110]),
   midi.NoteOnEvent(tick=256, channel=9, data=[36, 0]),
   midi.NoteOnEvent(tick=32, channel=9, data=[36, 110]),
   midi.NoteOnEvent(tick=94, channel=9, data=[36, 0]),
   midi.NoteOnEvent(tick=2, channel=9, data=[38, 110]),
   midi.NoteOnEvent(tick=0, channel=9, data=[49, 110]),
   midi.NoteOnEvent(tick=336, channel=9, data=[38, 0]),
   midi.NoteOnEvent(tick=0, channel=9, data=[49, 0]),
   midi.NoteOnEvent(tick=48, channel=9, data=[36, 110]),
   midi.NoteOnEvent(tick=160, channel=9, data=[36, 0]),
   midi.NoteOnEvent(tick=32, channel=9, data=[36, 110]),
   midi.NoteOnEvent(tick=94, channel=9, data=[36, 0]),
   midi.NoteOnEvent(tick=2, channel=9, data=[36, 110]),
   midi.NoteOnEvent(tick=94, channel=9, data=[36, 0]),
   midi.NoteOnEvent(tick=2, channel=9, data=[38, 110]),
   midi.NoteOnEvent(tick=0, channel=9, data=[49, 110]),
   midi.NoteOnEvent(tick=336, channel=9, data=[38, 0]),
   midi.NoteOnEvent(tick=0, channel=9, data=[49, 0]),
   midi.NoteOnEvent(tick=48, channel=9, data=[36, 110]),
   midi.NoteOnEvent(tick=256, channel=9, data=[36, 0]),
   midi.NoteOnEvent(tick=32, channel=9, data=[36, 110]),
   midi.NoteOnEvent(tick=94, channel=9, data=[36, 0]),
   midi.NoteOnEvent(tick=2, channel=9, data=[38, 110]),
   midi.NoteOnEvent(tick=0, channel=9, data=[49, 110]),
   midi.NoteOnEvent(tick=336, channel=9, data=[38, 0]),
   midi.NoteOnEvent(tick=0, channel=9, data=[49, 0]),
   midi.NoteOnEvent(tick=48, channel=9, data=[36, 110]),
   midi.NoteOnEvent(tick=0, channel=9, data=[38, 110]),
   midi.NoteOnEvent(tick=94, channel=9, data=[38, 0]),
   midi.NoteOnEvent(tick=2, channel=9, data=[38, 110]),
   midi.NoteOnEvent(tick=46, channel=9, data=[38, 0]),
   midi.NoteOnEvent(tick=2, channel=9, data=[38, 110]),
   midi.NoteOnEvent(tick=16, channel=9, data=[36, 0]),
   midi.NoteOnEvent(tick=30, channel=9, data=[38, 0]),
   midi.NoteOnEvent(tick=2, channel=9, data=[38, 110]),
   midi.NoteOnEvent(tick=94, channel=9, data=[38, 0]),
   midi.NoteOnEvent(tick=2, channel=9, data=[38, 110]),
   midi.NoteOnEvent(tick=94, channel=9, data=[38, 0]),
   midi.NoteOnEvent(tick=2, channel=9, data=[38, 110]),
   midi.NoteOnEvent(tick=94, channel=9, data=[38, 0]),
   midi.NoteOnEvent(tick=2, channel=9, data=[36, 110]),
   midi.NoteOnEvent(tick=94, channel=9, data=[36, 0]),
   midi.NoteOnEvent(tick=2, channel=9, data=[36, 110]),
   midi.NoteOnEvent(tick=94, channel=9, data=[36, 0]),
   midi.NoteOnEvent(tick=2, channel=9, data=[36, 110]),
   midi.NoteOnEvent(tick=94, channel=9, data=[36, 0]),
   midi.NoteOnEvent(tick=2, channel=9, data=[36, 110]),
   midi.NoteOnEvent(tick=0, channel=9, data=[49, 110]),
   midi.NoteOnEvent(tick=256, channel=9, data=[36, 0]),
   midi.NoteOnEvent(tick=0, channel=9, data=[49, 0]),
   midi.NoteOnEvent(tick=32, channel=9, data=[36, 110]),
   midi.NoteOnEvent(tick=94, channel=9, data=[36, 0]),
   midi.NoteOnEvent(tick=2, channel=9, data=[38, 110]),
   midi.NoteOnEvent(tick=0, channel=9, data=[49, 110]),
   midi.NoteOnEvent(tick=336, channel=9, data=[38, 0]),
   midi.NoteOnEvent(tick=0, channel=9, data=[49, 0]),
   midi.NoteOnEvent(tick=48, channel=9, data=[36, 110]),
   midi.NoteOnEvent(tick=160, channel=9, data=[36, 0]),
   midi.NoteOnEvent(tick=32, channel=9, data=[36, 110]),
   midi.NoteOnEvent(tick=94, channel=9, data=[36, 0]),
   midi.NoteOnEvent(tick=2, channel=9, data=[36, 110]),
   midi.NoteOnEvent(tick=94, channel=9, data=[36, 0]),
   midi.NoteOnEvent(tick=2, channel=9, data=[38, 110]),
   midi.NoteOnEvent(tick=0, channel=9, data=[49, 110]),
   midi.NoteOnEvent(tick=336, channel=9, data=[38, 0]),
   midi.NoteOnEvent(tick=0, channel=9, data=[49, 0]),
   midi.NoteOnEvent(tick=48, channel=9, data=[36, 110]),
   midi.NoteOnEvent(tick=0, channel=9, data=[49, 110]),
   midi.NoteOnEvent(tick=256, channel=9, data=[36, 0]),
   midi.NoteOnEvent(tick=0, channel=9, data=[49, 0]),
   midi.NoteOnEvent(tick=32, channel=9, data=[36, 110]),
   midi.NoteOnEvent(tick=94, channel=9, data=[36, 0]),
   midi.NoteOnEvent(tick=2, channel=9, data=[38, 110]),
   midi.NoteOnEvent(tick=0, channel=9, data=[49, 110]),
   midi.NoteOnEvent(tick=336, channel=9, data=[38, 0]),
   midi.NoteOnEvent(tick=0, channel=9, data=[49, 0]),
   midi.NoteOnEvent(tick=48, channel=9, data=[36, 110]),
   midi.NoteOnEvent(tick=160, channel=9, data=[36, 0]),
   midi.NoteOnEvent(tick=32, channel=9, data=[36, 110]),
   midi.NoteOnEvent(tick=94, channel=9, data=[36, 0]),
   midi.NoteOnEvent(tick=2, channel=9, data=[36, 110]),
   midi.NoteOnEvent(tick=94, channel=9, data=[36, 0]),
   midi.NoteOnEvent(tick=2, channel=9, data=[38, 110]),
   midi.NoteOnEvent(tick=0, channel=9, data=[49, 110]),
   midi.NoteOnEvent(tick=336, channel=9, data=[38, 0]),
   midi.NoteOnEvent(tick=0, channel=9, data=[49, 0]),
   midi.NoteOnEvent(tick=48, channel=9, data=[36, 110]),
   midi.NoteOnEvent(tick=0, channel=9, data=[49, 110]),
   midi.NoteOnEvent(tick=256, channel=9, data=[36, 0]),
   midi.NoteOnEvent(tick=0, channel=9, data=[49, 0]),
   midi.NoteOnEvent(tick=32, channel=9, data=[36, 110]),
   midi.NoteOnEvent(tick=94, channel=9, data=[36, 0]),
   midi.NoteOnEvent(tick=2, channel=9, data=[38, 110]),
   midi.NoteOnEvent(tick=0, channel=9, data=[49, 110]),
   midi.NoteOnEvent(tick=336, channel=9, data=[38, 0]),
   midi.NoteOnEvent(tick=0, channel=9, data=[49, 0]),
   midi.NoteOnEvent(tick=48, channel=9, data=[36, 110]),
   midi.NoteOnEvent(tick=160, channel=9, data=[36, 0]),
   midi.NoteOnEvent(tick=32, channel=9, data=[36, 110]),
   midi.NoteOnEvent(tick=94, channel=9, data=[36, 0]),
   midi.NoteOnEvent(tick=2, channel=9, data=[36, 110]),
   midi.NoteOnEvent(tick=94, channel=9, data=[36, 0]),
   midi.NoteOnEvent(tick=2, channel=9, data=[38, 110]),
   midi.NoteOnEvent(tick=0, channel=9, data=[49, 110]),
   midi.NoteOnEvent(tick=336, channel=9, data=[38, 0]),
   midi.NoteOnEvent(tick=0, channel=9, data=[49, 0]),
   midi.NoteOnEvent(tick=48, channel=9, data=[36, 110]),
   midi.NoteOnEvent(tick=0, channel=9, data=[49, 110]),
   midi.NoteOnEvent(tick=256, channel=9, data=[36, 0]),
   midi.NoteOnEvent(tick=0, channel=9, data=[49, 0]),
   midi.NoteOnEvent(tick=32, channel=9, data=[36, 110]),
   midi.NoteOnEvent(tick=94, channel=9, data=[36, 0]),
   midi.NoteOnEvent(tick=2, channel=9, data=[38, 110]),
   midi.NoteOnEvent(tick=0, channel=9, data=[49, 110]),
   midi.NoteOnEvent(tick=336, channel=9, data=[38, 0]),
   midi.NoteOnEvent(tick=0, channel=9, data=[49, 0]),
   midi.NoteOnEvent(tick=48, channel=9, data=[36, 110]),
   midi.NoteOnEvent(tick=160, channel=9, data=[36, 0]),
   midi.NoteOnEvent(tick=32, channel=9, data=[36, 110]),
   midi.NoteOnEvent(tick=94, channel=9, data=[36, 0]),
   midi.NoteOnEvent(tick=2, channel=9, data=[36, 110]),
   midi.NoteOnEvent(tick=94, channel=9, data=[36, 0]),
   midi.NoteOnEvent(tick=2, channel=9, data=[38, 110]),
   midi.NoteOnEvent(tick=94, channel=9, data=[38, 0]),
   midi.NoteOnEvent(tick=2, channel=9, data=[38, 110]),
   midi.NoteOnEvent(tick=46, channel=9, data=[38, 0]),
   midi.NoteOnEvent(tick=2, channel=9, data=[38, 110]),
   midi.NoteOnEvent(tick=46, channel=9, data=[38, 0]),
   midi.NoteOnEvent(tick=2, channel=9, data=[38, 110]),
   midi.NoteOnEvent(tick=94, channel=9, data=[38, 0]),
   midi.NoteOnEvent(tick=2, channel=9, data=[38, 110]),
   midi.NoteOnEvent(tick=94, channel=9, data=[38, 0]),
   midi.NoteOnEvent(tick=2, channel=9, data=[36, 110]),
   midi.NoteOnEvent(tick=0, channel=9, data=[49, 110]),
   midi.NoteOnEvent(tick=256, channel=9, data=[36, 0]),
   midi.NoteOnEvent(tick=0, channel=9, data=[49, 0]),
   midi.NoteOnEvent(tick=32, channel=9, data=[36, 110]),
   midi.NoteOnEvent(tick=94, channel=9, data=[36, 0]),
   midi.NoteOnEvent(tick=2, channel=9, data=[38, 110]),
   midi.NoteOnEvent(tick=0, channel=9, data=[49, 110]),
   midi.NoteOnEvent(tick=336, channel=9, data=[38, 0]),
   midi.NoteOnEvent(tick=0, channel=9, data=[49, 0]),
   midi.NoteOnEvent(tick=48, channel=9, data=[36, 110]),
   midi.NoteOnEvent(tick=160, channel=9, data=[36, 0]),
   midi.NoteOnEvent(tick=32, channel=9, data=[36, 110]),
   midi.NoteOnEvent(tick=94, channel=9, data=[36, 0]),
   midi.NoteOnEvent(tick=2, channel=9, data=[36, 110]),
   midi.NoteOnEvent(tick=94, channel=9, data=[36, 0]),
   midi.NoteOnEvent(tick=2, channel=9, data=[38, 110]),
   midi.NoteOnEvent(tick=0, channel=9, data=[49, 110]),
   midi.NoteOnEvent(tick=336, channel=9, data=[38, 0]),
   midi.NoteOnEvent(tick=0, channel=9, data=[49, 0]),
   midi.NoteOnEvent(tick=48, channel=9, data=[36, 110]),
   midi.NoteOnEvent(tick=0, channel=9, data=[49, 110]),
   midi.NoteOnEvent(tick=256, channel=9, data=[36, 0]),
   midi.NoteOnEvent(tick=0, channel=9, data=[49, 0]),
   midi.NoteOnEvent(tick=32, channel=9, data=[36, 110]),
   midi.NoteOnEvent(tick=94, channel=9, data=[36, 0]),
   midi.NoteOnEvent(tick=2, channel=9, data=[38, 110]),
   midi.NoteOnEvent(tick=0, channel=9, data=[49, 110]),
   midi.NoteOnEvent(tick=336, channel=9, data=[38, 0]),
   midi.NoteOnEvent(tick=0, channel=9, data=[49, 0]),
   midi.NoteOnEvent(tick=48, channel=9, data=[36, 110]),
   midi.NoteOnEvent(tick=160, channel=9, data=[36, 0]),
   midi.NoteOnEvent(tick=32, channel=9, data=[36, 110]),
   midi.NoteOnEvent(tick=94, channel=9, data=[36, 0]),
   midi.NoteOnEvent(tick=2, channel=9, data=[36, 110]),
   midi.NoteOnEvent(tick=94, channel=9, data=[36, 0]),
   midi.NoteOnEvent(tick=2, channel=9, data=[38, 110]),
   midi.NoteOnEvent(tick=0, channel=9, data=[49, 110]),
   midi.NoteOnEvent(tick=336, channel=9, data=[38, 0]),
   midi.NoteOnEvent(tick=0, channel=9, data=[49, 0]),
   midi.NoteOnEvent(tick=48, channel=9, data=[36, 110]),
   midi.NoteOnEvent(tick=0, channel=9, data=[49, 110]),
   midi.NoteOnEvent(tick=256, channel=9, data=[36, 0]),
   midi.NoteOnEvent(tick=0, channel=9, data=[49, 0]),
   midi.NoteOnEvent(tick=32, channel=9, data=[36, 110]),
   midi.NoteOnEvent(tick=94, channel=9, data=[36, 0]),
   midi.NoteOnEvent(tick=2, channel=9, data=[38, 110]),
   midi.NoteOnEvent(tick=0, channel=9, data=[49, 110]),
   midi.NoteOnEvent(tick=336, channel=9, data=[38, 0]),
   midi.NoteOnEvent(tick=0, channel=9, data=[49, 0]),
   midi.NoteOnEvent(tick=48, channel=9, data=[36, 110]),
   midi.NoteOnEvent(tick=160, channel=9, data=[36, 0]),
   midi.NoteOnEvent(tick=32, channel=9, data=[36, 110]),
   midi.NoteOnEvent(tick=94, channel=9, data=[36, 0]),
   midi.NoteOnEvent(tick=2, channel=9, data=[36, 110]),
   midi.NoteOnEvent(tick=94, channel=9, data=[36, 0]),
   midi.NoteOnEvent(tick=2, channel=9, data=[38, 110]),
   midi.NoteOnEvent(tick=0, channel=9, data=[49, 110]),
   midi.NoteOnEvent(tick=336, channel=9, data=[38, 0]),
   midi.NoteOnEvent(tick=0, channel=9, data=[49, 0]),
   midi.NoteOnEvent(tick=48, channel=9, data=[36, 110]),
   midi.NoteOnEvent(tick=0, channel=9, data=[49, 110]),
   midi.NoteOnEvent(tick=256, channel=9, data=[36, 0]),
   midi.NoteOnEvent(tick=0, channel=9, data=[49, 0]),
   midi.NoteOnEvent(tick=32, channel=9, data=[36, 110]),
   midi.NoteOnEvent(tick=94, channel=9, data=[36, 0]),
   midi.NoteOnEvent(tick=2, channel=9, data=[38, 110]),
   midi.NoteOnEvent(tick=0, channel=9, data=[49, 110]),
   midi.NoteOnEvent(tick=336, channel=9, data=[38, 0]),
   midi.NoteOnEvent(tick=0, channel=9, data=[49, 0]),
   midi.NoteOnEvent(tick=48, channel=9, data=[36, 110]),
   midi.NoteOnEvent(tick=160, channel=9, data=[36, 0]),
   midi.NoteOnEvent(tick=32, channel=9, data=[36, 110]),
   midi.NoteOnEvent(tick=94, channel=9, data=[36, 0]),
   midi.NoteOnEvent(tick=2, channel=9, data=[36, 110]),
   midi.NoteOnEvent(tick=94, channel=9, data=[36, 0]),
   midi.NoteOnEvent(tick=2, channel=9, data=[38, 110]),
   midi.NoteOnEvent(tick=94, channel=9, data=[38, 0]),
   midi.NoteOnEvent(tick=2, channel=9, data=[38, 110]),
   midi.NoteOnEvent(tick=46, channel=9, data=[38, 0]),
   midi.NoteOnEvent(tick=2, channel=9, data=[38, 110]),
   midi.NoteOnEvent(tick=46, channel=9, data=[38, 0]),
   midi.NoteOnEvent(tick=2, channel=9, data=[38, 110]),
   midi.NoteOnEvent(tick=94, channel=9, data=[38, 0]),
   midi.NoteOnEvent(tick=2, channel=9, data=[38, 110]),
   midi.NoteOnEvent(tick=94, channel=9, data=[38, 0]),
   midi.NoteOnEvent(tick=2, channel=9, data=[36, 110]),
   midi.NoteOnEvent(tick=0, channel=9, data=[42, 110]),
   midi.NoteOnEvent(tick=0, channel=9, data=[49, 110]),
   midi.NoteOnEvent(tick=94, channel=9, data=[36, 0]),
   midi.NoteOnEvent(tick=0, channel=9, data=[42, 0]),
   midi.NoteOnEvent(tick=0, channel=9, data=[49, 0]),
   midi.NoteOnEvent(tick=2, channel=9, data=[38, 110]),
   midi.NoteOnEvent(tick=0, channel=9, data=[42, 110]),
   midi.NoteOnEvent(tick=94, channel=9, data=[38, 0]),
   midi.NoteOnEvent(tick=0, channel=9, data=[42, 0]),
   midi.NoteOnEvent(tick=2, channel=9, data=[36, 110]),
   midi.NoteOnEvent(tick=0, channel=9, data=[42, 110]),
   midi.NoteOnEvent(tick=94, channel=9, data=[36, 0]),
   midi.NoteOnEvent(tick=0, channel=9, data=[42, 0]),
   midi.NoteOnEvent(tick=2, channel=9, data=[38, 110]),
   midi.NoteOnEvent(tick=0, channel=9, data=[42, 110]),
   midi.NoteOnEvent(tick=94, channel=9, data=[38, 0]),
   midi.NoteOnEvent(tick=0, channel=9, data=[42, 0]),
   midi.NoteOnEvent(tick=2, channel=9, data=[36, 110]),
   midi.NoteOnEvent(tick=0, channel=9, data=[42, 110]),
   midi.NoteOnEvent(tick=94, channel=9, data=[36, 0]),
   midi.NoteOnEvent(tick=0, channel=9, data=[42, 0]),
   midi.NoteOnEvent(tick=2, channel=9, data=[38, 110]),
   midi.NoteOnEvent(tick=0, channel=9, data=[42, 110]),
   midi.NoteOnEvent(tick=94, channel=9, data=[38, 0]),
   midi.NoteOnEvent(tick=0, channel=9, data=[42, 0]),
   midi.NoteOnEvent(tick=2, channel=9, data=[36, 110]),
   midi.NoteOnEvent(tick=0, channel=9, data=[42, 110]),
   midi.NoteOnEvent(tick=94, channel=9, data=[36, 0]),
   midi.NoteOnEvent(tick=0, channel=9, data=[42, 0]),
   midi.NoteOnEvent(tick=2, channel=9, data=[38, 110]),
   midi.NoteOnEvent(tick=0, channel=9, data=[42, 110]),
   midi.NoteOnEvent(tick=94, channel=9, data=[38, 0]),
   midi.NoteOnEvent(tick=0, channel=9, data=[42, 0]),
   midi.NoteOnEvent(tick=2, channel=9, data=[36, 110]),
   midi.NoteOnEvent(tick=0, channel=9, data=[42, 110]),
   midi.NoteOnEvent(tick=0, channel=9, data=[49, 110]),
   midi.NoteOnEvent(tick=94, channel=9, data=[36, 0]),
   midi.NoteOnEvent(tick=0, channel=9, data=[42, 0]),
   midi.NoteOnEvent(tick=0, channel=9, data=[49, 0]),
   midi.NoteOnEvent(tick=2, channel=9, data=[38, 110]),
   midi.NoteOnEvent(tick=0, channel=9, data=[42, 110]),
   midi.NoteOnEvent(tick=94, channel=9, data=[38, 0]),
   midi.NoteOnEvent(tick=0, channel=9, data=[42, 0]),
   midi.NoteOnEvent(tick=2, channel=9, data=[36, 110]),
   midi.NoteOnEvent(tick=0, channel=9, data=[42, 110]),
   midi.NoteOnEvent(tick=94, channel=9, data=[36, 0]),
   midi.NoteOnEvent(tick=0, channel=9, data=[42, 0]),
   midi.NoteOnEvent(tick=2, channel=9, data=[38, 110]),
   midi.NoteOnEvent(tick=0, channel=9, data=[42, 110]),
   midi.NoteOnEvent(tick=94, channel=9, data=[38, 0]),
   midi.NoteOnEvent(tick=0, channel=9, data=[42, 0]),
   midi.NoteOnEvent(tick=2, channel=9, data=[36, 110]),
   midi.NoteOnEvent(tick=0, channel=9, data=[42, 110]),
   midi.NoteOnEvent(tick=94, channel=9, data=[36, 0]),
   midi.NoteOnEvent(tick=0, channel=9, data=[42, 0]),
   midi.NoteOnEvent(tick=2, channel=9, data=[38, 110]),
   midi.NoteOnEvent(tick=0, channel=9, data=[42, 110]),
   midi.NoteOnEvent(tick=94, channel=9, data=[38, 0]),
   midi.NoteOnEvent(tick=0, channel=9, data=[42, 0]),
   midi.NoteOnEvent(tick=2, channel=9, data=[36, 110]),
   midi.NoteOnEvent(tick=0, channel=9, data=[42, 110]),
   midi.NoteOnEvent(tick=94, channel=9, data=[36, 0]),
   midi.NoteOnEvent(tick=0, channel=9, data=[42, 0]),
   midi.NoteOnEvent(tick=2, channel=9, data=[38, 110]),
   midi.NoteOnEvent(tick=0, channel=9, data=[42, 110]),
   midi.NoteOnEvent(tick=94, channel=9, data=[38, 0]),
   midi.NoteOnEvent(tick=0, channel=9, data=[42, 0]),
   midi.NoteOnEvent(tick=2, channel=9, data=[36, 110]),
   midi.NoteOnEvent(tick=0, channel=9, data=[42, 110]),
   midi.NoteOnEvent(tick=0, channel=9, data=[49, 110]),
   midi.NoteOnEvent(tick=94, channel=9, data=[36, 0]),
   midi.NoteOnEvent(tick=0, channel=9, data=[42, 0]),
   midi.NoteOnEvent(tick=0, channel=9, data=[49, 0]),
   midi.NoteOnEvent(tick=2, channel=9, data=[38, 110]),
   midi.NoteOnEvent(tick=0, channel=9, data=[42, 110]),
   midi.NoteOnEvent(tick=94, channel=9, data=[38, 0]),
   midi.NoteOnEvent(tick=0, channel=9, data=[42, 0]),
   midi.NoteOnEvent(tick=2, channel=9, data=[36, 110]),
   midi.NoteOnEvent(tick=0, channel=9, data=[42, 110]),
   midi.NoteOnEvent(tick=94, channel=9, data=[36, 0]),
   midi.NoteOnEvent(tick=0, channel=9, data=[42, 0]),
   midi.NoteOnEvent(tick=2, channel=9, data=[38, 110]),
   midi.NoteOnEvent(tick=0, channel=9, data=[42, 110]),
   midi.NoteOnEvent(tick=94, channel=9, data=[38, 0]),
   midi.NoteOnEvent(tick=0, channel=9, data=[42, 0]),
   midi.NoteOnEvent(tick=2, channel=9, data=[36, 110]),
   midi.NoteOnEvent(tick=0, channel=9, data=[42, 110]),
   midi.NoteOnEvent(tick=94, channel=9, data=[36, 0]),
   midi.NoteOnEvent(tick=0, channel=9, data=[42, 0]),
   midi.NoteOnEvent(tick=2, channel=9, data=[38, 110]),
   midi.NoteOnEvent(tick=0, channel=9, data=[42, 110]),
   midi.NoteOnEvent(tick=94, channel=9, data=[38, 0]),
   midi.NoteOnEvent(tick=0, channel=9, data=[42, 0]),
   midi.NoteOnEvent(tick=2, channel=9, data=[36, 110]),
   midi.NoteOnEvent(tick=0, channel=9, data=[42, 110]),
   midi.NoteOnEvent(tick=94, channel=9, data=[36, 0]),
   midi.NoteOnEvent(tick=0, channel=9, data=[42, 0]),
   midi.NoteOnEvent(tick=2, channel=9, data=[38, 110]),
   midi.NoteOnEvent(tick=0, channel=9, data=[42, 110]),
   midi.NoteOnEvent(tick=94, channel=9, data=[38, 0]),
   midi.NoteOnEvent(tick=0, channel=9, data=[42, 0]),
   midi.NoteOnEvent(tick=2, channel=9, data=[36, 110]),
   midi.NoteOnEvent(tick=0, channel=9, data=[42, 110]),
   midi.NoteOnEvent(tick=0, channel=9, data=[49, 110]),
   midi.NoteOnEvent(tick=94, channel=9, data=[36, 0]),
   midi.NoteOnEvent(tick=0, channel=9, data=[42, 0]),
   midi.NoteOnEvent(tick=0, channel=9, data=[49, 0]),
   midi.NoteOnEvent(tick=2, channel=9, data=[38, 110]),
   midi.NoteOnEvent(tick=0, channel=9, data=[42, 110]),
   midi.NoteOnEvent(tick=94, channel=9, data=[38, 0]),
   midi.NoteOnEvent(tick=0, channel=9, data=[42, 0]),
   midi.NoteOnEvent(tick=2, channel=9, data=[36, 110]),
   midi.NoteOnEvent(tick=0, channel=9, data=[42, 110]),
   midi.NoteOnEvent(tick=94, channel=9, data=[36, 0]),
   midi.NoteOnEvent(tick=0, channel=9, data=[42, 0]),
   midi.NoteOnEvent(tick=2, channel=9, data=[38, 110]),
   midi.NoteOnEvent(tick=0, channel=9, data=[42, 110]),
   midi.NoteOnEvent(tick=94, channel=9, data=[38, 0]),
   midi.NoteOnEvent(tick=0, channel=9, data=[42, 0]),
   midi.NoteOnEvent(tick=2, channel=9, data=[36, 110]),
   midi.NoteOnEvent(tick=0, channel=9, data=[42, 110]),
   midi.NoteOnEvent(tick=94, channel=9, data=[36, 0]),
   midi.NoteOnEvent(tick=0, channel=9, data=[42, 0]),
   midi.NoteOnEvent(tick=2, channel=9, data=[38, 110]),
   midi.NoteOnEvent(tick=0, channel=9, data=[42, 110]),
   midi.NoteOnEvent(tick=94, channel=9, data=[38, 0]),
   midi.NoteOnEvent(tick=0, channel=9, data=[42, 0]),
   midi.NoteOnEvent(tick=2, channel=9, data=[36, 110]),
   midi.NoteOnEvent(tick=0, channel=9, data=[42, 110]),
   midi.NoteOnEvent(tick=94, channel=9, data=[36, 0]),
   midi.NoteOnEvent(tick=0, channel=9, data=[42, 0]),
   midi.NoteOnEvent(tick=2, channel=9, data=[38, 110]),
   midi.NoteOnEvent(tick=0, channel=9, data=[42, 110]),
   midi.NoteOnEvent(tick=94, channel=9, data=[38, 0]),
   midi.NoteOnEvent(tick=0, channel=9, data=[42, 0]),
   midi.NoteOnEvent(tick=2, channel=9, data=[36, 110]),
   midi.NoteOnEvent(tick=0, channel=9, data=[42, 110]),
   midi.NoteOnEvent(tick=0, channel=9, data=[49, 110]),
   midi.NoteOnEvent(tick=94, channel=9, data=[36, 0]),
   midi.NoteOnEvent(tick=0, channel=9, data=[42, 0]),
   midi.NoteOnEvent(tick=0, channel=9, data=[49, 0]),
   midi.NoteOnEvent(tick=2, channel=9, data=[38, 110]),
   midi.NoteOnEvent(tick=0, channel=9, data=[42, 110]),
   midi.NoteOnEvent(tick=94, channel=9, data=[38, 0]),
   midi.NoteOnEvent(tick=0, channel=9, data=[42, 0]),
   midi.NoteOnEvent(tick=2, channel=9, data=[36, 110]),
   midi.NoteOnEvent(tick=0, channel=9, data=[42, 110]),
   midi.NoteOnEvent(tick=94, channel=9, data=[36, 0]),
   midi.NoteOnEvent(tick=0, channel=9, data=[42, 0]),
   midi.NoteOnEvent(tick=2, channel=9, data=[38, 110]),
   midi.NoteOnEvent(tick=0, channel=9, data=[42, 110]),
   midi.NoteOnEvent(tick=94, channel=9, data=[38, 0]),
   midi.NoteOnEvent(tick=0, channel=9, data=[42, 0]),
   midi.NoteOnEvent(tick=2, channel=9, data=[36, 110]),
   midi.NoteOnEvent(tick=0, channel=9, data=[42, 110]),
   midi.NoteOnEvent(tick=94, channel=9, data=[36, 0]),
   midi.NoteOnEvent(tick=0, channel=9, data=[42, 0]),
   midi.NoteOnEvent(tick=2, channel=9, data=[38, 110]),
   midi.NoteOnEvent(tick=0, channel=9, data=[42, 110]),
   midi.NoteOnEvent(tick=94, channel=9, data=[38, 0]),
   midi.NoteOnEvent(tick=0, channel=9, data=[42, 0]),
   midi.NoteOnEvent(tick=2, channel=9, data=[36, 110]),
   midi.NoteOnEvent(tick=0, channel=9, data=[42, 110]),
   midi.NoteOnEvent(tick=94, channel=9, data=[36, 0]),
   midi.NoteOnEvent(tick=0, channel=9, data=[42, 0]),
   midi.NoteOnEvent(tick=2, channel=9, data=[38, 110]),
   midi.NoteOnEvent(tick=0, channel=9, data=[42, 110]),
   midi.NoteOnEvent(tick=94, channel=9, data=[38, 0]),
   midi.NoteOnEvent(tick=0, channel=9, data=[42, 0]),
   midi.NoteOnEvent(tick=2, channel=9, data=[36, 110]),
   midi.NoteOnEvent(tick=0, channel=9, data=[42, 110]),
   midi.NoteOnEvent(tick=0, channel=9, data=[49, 110]),
   midi.NoteOnEvent(tick=94, channel=9, data=[36, 0]),
   midi.NoteOnEvent(tick=0, channel=9, data=[42, 0]),
   midi.NoteOnEvent(tick=0, channel=9, data=[49, 0]),
   midi.NoteOnEvent(tick=2, channel=9, data=[38, 110]),
   midi.NoteOnEvent(tick=0, channel=9, data=[42, 110]),
   midi.NoteOnEvent(tick=94, channel=9, data=[38, 0]),
   midi.NoteOnEvent(tick=0, channel=9, data=[42, 0]),
   midi.NoteOnEvent(tick=2, channel=9, data=[36, 110]),
   midi.NoteOnEvent(tick=0, channel=9, data=[42, 110]),
   midi.NoteOnEvent(tick=94, channel=9, data=[36, 0]),
   midi.NoteOnEvent(tick=0, channel=9, data=[42, 0]),
   midi.NoteOnEvent(tick=2, channel=9, data=[38, 110]),
   midi.NoteOnEvent(tick=0, channel=9, data=[42, 110]),
   midi.NoteOnEvent(tick=94, channel=9, data=[38, 0]),
   midi.NoteOnEvent(tick=0, channel=9, data=[42, 0]),
   midi.NoteOnEvent(tick=2, channel=9, data=[36, 110]),
   midi.NoteOnEvent(tick=0, channel=9, data=[42, 110]),
   midi.NoteOnEvent(tick=94, channel=9, data=[36, 0]),
   midi.NoteOnEvent(tick=0, channel=9, data=[42, 0]),
   midi.NoteOnEvent(tick=2, channel=9, data=[38, 110]),
   midi.NoteOnEvent(tick=0, channel=9, data=[42, 110]),
   midi.NoteOnEvent(tick=94, channel=9, data=[38, 0]),
   midi.NoteOnEvent(tick=0, channel=9, data=[42, 0]),
   midi.NoteOnEvent(tick=2, channel=9, data=[36, 110]),
   midi.NoteOnEvent(tick=0, channel=9, data=[42, 110]),
   midi.NoteOnEvent(tick=94, channel=9, data=[36, 0]),
   midi.NoteOnEvent(tick=0, channel=9, data=[42, 0]),
   midi.NoteOnEvent(tick=2, channel=9, data=[38, 110]),
   midi.NoteOnEvent(tick=0, channel=9, data=[42, 110]),
   midi.NoteOnEvent(tick=94, channel=9, data=[38, 0]),
   midi.NoteOnEvent(tick=0, channel=9, data=[42, 0]),
   midi.SetTempoEvent(tick=2, data=[4, 147, 224]),
   midi.NoteOnEvent(tick=0, channel=9, data=[36, 110]),
   midi.NoteOnEvent(tick=0, channel=9, data=[38, 110]),
   midi.NoteOnEvent(tick=0, channel=9, data=[42, 110]),
   midi.NoteOnEvent(tick=0, channel=9, data=[49, 110]),
   midi.SetTempoEvent(tick=51, data=[4, 159, 182]),
   midi.SetTempoEvent(tick=51, data=[4, 171, 202]),
   midi.SetTempoEvent(tick=51, data=[4, 184, 30]),
   midi.SetTempoEvent(tick=51, data=[4, 196, 180]),
   midi.SetTempoEvent(tick=52, data=[4, 209, 141]),
   midi.SetTempoEvent(tick=51, data=[4, 222, 172]),
   midi.SetTempoEvent(tick=51, data=[4, 236, 20]),
   midi.SetTempoEvent(tick=51, data=[4, 249, 198]),
   midi.SetTempoEvent(tick=51, data=[5, 7, 198]),
   midi.SetTempoEvent(tick=52, data=[5, 22, 21]),
   midi.SetTempoEvent(tick=51, data=[5, 36, 182]),
   midi.SetTempoEvent(tick=51, data=[5, 51, 173]),
   midi.SetTempoEvent(tick=51, data=[5, 66, 251]),
   midi.SetTempoEvent(tick=51, data=[5, 82, 165]),
   midi.NoteOnEvent(tick=4, channel=9, data=[36, 0]),
   midi.NoteOnEvent(tick=0, channel=9, data=[38, 0]),
   midi.NoteOnEvent(tick=0, channel=9, data=[42, 0]),
   midi.NoteOnEvent(tick=0, channel=9, data=[49, 0]),
   midi.SetTempoEvent(tick=48, data=[5, 98, 173]),
   midi.NoteOnEvent(tick=0, channel=9, data=[36, 110]),
   midi.NoteOnEvent(tick=0, channel=9, data=[38, 110]),
   midi.NoteOnEvent(tick=0, channel=9, data=[42, 110]),
   midi.NoteOnEvent(tick=0, channel=9, data=[49, 110]),
   midi.NoteOnEvent(tick=720, channel=9, data=[36, 0]),
   midi.NoteOnEvent(tick=0, channel=9, data=[38, 0]),
   midi.NoteOnEvent(tick=0, channel=9, data=[42, 0]),
   midi.NoteOnEvent(tick=0, channel=9, data=[49, 0]),
   midi.NoteOnEvent(tick=48, channel=9, data=[36, 110]),
   midi.NoteOnEvent(tick=0, channel=9, data=[42, 110]),
   midi.NoteOnEvent(tick=0, channel=9, data=[49, 110]),
   midi.NoteOnEvent(tick=94, channel=9, data=[36, 0]),
   midi.NoteOnEvent(tick=0, channel=9, data=[42, 0]),
   midi.NoteOnEvent(tick=0, channel=9, data=[49, 0]),
   midi.NoteOnEvent(tick=2, channel=9, data=[42, 110]),
   midi.NoteOnEvent(tick=94, channel=9, data=[42, 0]),
   midi.NoteOnEvent(tick=2, channel=9, data=[38, 110]),
   midi.NoteOnEvent(tick=0, channel=9, data=[42, 110]),
   midi.NoteOnEvent(tick=94, channel=9, data=[38, 0]),
   midi.NoteOnEvent(tick=0, channel=9, data=[42, 0]),
   midi.NoteOnEvent(tick=2, channel=9, data=[42, 110]),
   midi.NoteOnEvent(tick=94, channel=9, data=[42, 0]),
   midi.NoteOnEvent(tick=2, channel=9, data=[36, 110]),
   midi.NoteOnEvent(tick=0, channel=9, data=[42, 110]),
   midi.NoteOnEvent(tick=94, channel=9, data=[36, 0]),
   midi.NoteOnEvent(tick=0, channel=9, data=[42, 0]),
   midi.NoteOnEvent(tick=2, channel=9, data=[36, 110]),
   midi.NoteOnEvent(tick=0, channel=9, data=[42, 110]),
   midi.NoteOnEvent(tick=94, channel=9, data=[36, 0]),
   midi.NoteOnEvent(tick=0, channel=9, data=[42, 0]),
   midi.NoteOnEvent(tick=2, channel=9, data=[38, 110]),
   midi.NoteOnEvent(tick=0, channel=9, data=[42, 110]),
   midi.NoteOnEvent(tick=94, channel=9, data=[38, 0]),
   midi.NoteOnEvent(tick=0, channel=9, data=[42, 0]),
   midi.NoteOnEvent(tick=2, channel=9, data=[42, 110]),
   midi.NoteOnEvent(tick=94, channel=9, data=[42, 0]),
   midi.NoteOnEvent(tick=2, channel=9, data=[36, 110]),
   midi.NoteOnEvent(tick=0, channel=9, data=[42, 110]),
   midi.NoteOnEvent(tick=94, channel=9, data=[36, 0]),
   midi.NoteOnEvent(tick=0, channel=9, data=[42, 0]),
   midi.NoteOnEvent(tick=2, channel=9, data=[42, 110]),
   midi.NoteOnEvent(tick=94, channel=9, data=[42, 0]),
   midi.NoteOnEvent(tick=2, channel=9, data=[38, 110]),
   midi.NoteOnEvent(tick=0, channel=9, data=[42, 110]),
   midi.NoteOnEvent(tick=94, channel=9, data=[38, 0]),
   midi.NoteOnEvent(tick=0, channel=9, data=[42, 0]),
   midi.NoteOnEvent(tick=2, channel=9, data=[42, 110]),
   midi.NoteOnEvent(tick=94, channel=9, data=[42, 0]),
   midi.NoteOnEvent(tick=2, channel=9, data=[36, 110]),
   midi.NoteOnEvent(tick=0, channel=9, data=[42, 110]),
   midi.NoteOnEvent(tick=94, channel=9, data=[36, 0]),
   midi.NoteOnEvent(tick=0, channel=9, data=[42, 0]),
   midi.NoteOnEvent(tick=2, channel=9, data=[36, 110]),
   midi.NoteOnEvent(tick=0, channel=9, data=[42, 110]),
   midi.NoteOnEvent(tick=94, channel=9, data=[36, 0]),
   midi.NoteOnEvent(tick=0, channel=9, data=[42, 0]),
   midi.NoteOnEvent(tick=2, channel=9, data=[38, 110]),
   midi.NoteOnEvent(tick=0, channel=9, data=[42, 110]),
   midi.NoteOnEvent(tick=94, channel=9, data=[38, 0]),
   midi.NoteOnEvent(tick=0, channel=9, data=[42, 0]),
   midi.NoteOnEvent(tick=2, channel=9, data=[42, 110]),
   midi.NoteOnEvent(tick=94, channel=9, data=[42, 0]),
   midi.NoteOnEvent(tick=2, channel=9, data=[36, 110]),
   midi.NoteOnEvent(tick=0, channel=9, data=[42, 110]),
   midi.NoteOnEvent(tick=0, channel=9, data=[49, 110]),
   midi.NoteOnEvent(tick=94, channel=9, data=[36, 0]),
   midi.NoteOnEvent(tick=0, channel=9, data=[42, 0]),
   midi.NoteOnEvent(tick=0, channel=9, data=[49, 0]),
   midi.NoteOnEvent(tick=2, channel=9, data=[42, 110]),
   midi.NoteOnEvent(tick=94, channel=9, data=[42, 0]),
   midi.NoteOnEvent(tick=2, channel=9, data=[38, 110]),
   midi.NoteOnEvent(tick=0, channel=9, data=[42, 110]),
   midi.NoteOnEvent(tick=94, channel=9, data=[38, 0]),
   midi.NoteOnEvent(tick=0, channel=9, data=[42, 0]),
   midi.NoteOnEvent(tick=2, channel=9, data=[42, 110]),
   midi.NoteOnEvent(tick=94, channel=9, data=[42, 0]),
   midi.NoteOnEvent(tick=2, channel=9, data=[36, 110]),
   midi.NoteOnEvent(tick=0, channel=9, data=[42, 110]),
   midi.NoteOnEvent(tick=94, channel=9, data=[36, 0]),
   midi.NoteOnEvent(tick=0, channel=9, data=[42, 0]),
   midi.NoteOnEvent(tick=2, channel=9, data=[36, 110]),
   midi.NoteOnEvent(tick=0, channel=9, data=[42, 110]),
   midi.NoteOnEvent(tick=94, channel=9, data=[36, 0]),
   midi.NoteOnEvent(tick=0, channel=9, data=[42, 0]),
   midi.NoteOnEvent(tick=2, channel=9, data=[38, 110]),
   midi.NoteOnEvent(tick=0, channel=9, data=[42, 110]),
   midi.NoteOnEvent(tick=94, channel=9, data=[38, 0]),
   midi.NoteOnEvent(tick=0, channel=9, data=[42, 0]),
   midi.NoteOnEvent(tick=2, channel=9, data=[42, 110]),
   midi.NoteOnEvent(tick=94, channel=9, data=[42, 0]),
   midi.NoteOnEvent(tick=2, channel=9, data=[36, 110]),
   midi.NoteOnEvent(tick=0, channel=9, data=[42, 110]),
   midi.NoteOnEvent(tick=94, channel=9, data=[36, 0]),
   midi.NoteOnEvent(tick=0, channel=9, data=[42, 0]),
   midi.NoteOnEvent(tick=2, channel=9, data=[42, 110]),
   midi.NoteOnEvent(tick=94, channel=9, data=[42, 0]),
   midi.NoteOnEvent(tick=2, channel=9, data=[38, 110]),
   midi.NoteOnEvent(tick=0, channel=9, data=[42, 110]),
   midi.NoteOnEvent(tick=94, channel=9, data=[38, 0]),
   midi.NoteOnEvent(tick=0, channel=9, data=[42, 0]),
   midi.NoteOnEvent(tick=2, channel=9, data=[42, 110]),
   midi.NoteOnEvent(tick=94, channel=9, data=[42, 0]),
   midi.NoteOnEvent(tick=2, channel=9, data=[36, 110]),
   midi.NoteOnEvent(tick=0, channel=9, data=[42, 110]),
   midi.NoteOnEvent(tick=94, channel=9, data=[36, 0]),
   midi.NoteOnEvent(tick=0, channel=9, data=[42, 0]),
   midi.NoteOnEvent(tick=2, channel=9, data=[36, 110]),
   midi.NoteOnEvent(tick=0, channel=9, data=[42, 110]),
   midi.NoteOnEvent(tick=94, channel=9, data=[36, 0]),
   midi.NoteOnEvent(tick=0, channel=9, data=[42, 0]),
   midi.NoteOnEvent(tick=2, channel=9, data=[38, 110]),
   midi.NoteOnEvent(tick=0, channel=9, data=[42, 110]),
   midi.NoteOnEvent(tick=94, channel=9, data=[38, 0]),
   midi.NoteOnEvent(tick=0, channel=9, data=[42, 0]),
   midi.NoteOnEvent(tick=2, channel=9, data=[42, 110]),
   midi.NoteOnEvent(tick=94, channel=9, data=[42, 0]),
   midi.NoteOnEvent(tick=2, channel=9, data=[36, 110]),
   midi.NoteOnEvent(tick=0, channel=9, data=[42, 110]),
   midi.NoteOnEvent(tick=0, channel=9, data=[49, 110]),
   midi.NoteOnEvent(tick=94, channel=9, data=[36, 0]),
   midi.NoteOnEvent(tick=0, channel=9, data=[42, 0]),
   midi.NoteOnEvent(tick=0, channel=9, data=[49, 0]),
   midi.NoteOnEvent(tick=2, channel=9, data=[42, 110]),
   midi.NoteOnEvent(tick=94, channel=9, data=[42, 0]),
   midi.NoteOnEvent(tick=2, channel=9, data=[38, 110]),
   midi.NoteOnEvent(tick=0, channel=9, data=[42, 110]),
   midi.NoteOnEvent(tick=94, channel=9, data=[38, 0]),
   midi.NoteOnEvent(tick=0, channel=9, data=[42, 0]),
   midi.NoteOnEvent(tick=2, channel=9, data=[42, 110]),
   midi.NoteOnEvent(tick=94, channel=9, data=[42, 0]),
   midi.NoteOnEvent(tick=2, channel=9, data=[36, 110]),
   midi.NoteOnEvent(tick=0, channel=9, data=[42, 110]),
   midi.NoteOnEvent(tick=94, channel=9, data=[36, 0]),
   midi.NoteOnEvent(tick=0, channel=9, data=[42, 0]),
   midi.NoteOnEvent(tick=2, channel=9, data=[36, 110]),
   midi.NoteOnEvent(tick=0, channel=9, data=[42, 110]),
   midi.NoteOnEvent(tick=94, channel=9, data=[36, 0]),
   midi.NoteOnEvent(tick=0, channel=9, data=[42, 0]),
   midi.NoteOnEvent(tick=2, channel=9, data=[38, 110]),
   midi.NoteOnEvent(tick=0, channel=9, data=[42, 110]),
   midi.NoteOnEvent(tick=94, channel=9, data=[38, 0]),
   midi.NoteOnEvent(tick=0, channel=9, data=[42, 0]),
   midi.NoteOnEvent(tick=2, channel=9, data=[42, 110]),
   midi.NoteOnEvent(tick=94, channel=9, data=[42, 0]),
   midi.NoteOnEvent(tick=2, channel=9, data=[36, 110]),
   midi.NoteOnEvent(tick=0, channel=9, data=[42, 110]),
   midi.NoteOnEvent(tick=94, channel=9, data=[36, 0]),
   midi.NoteOnEvent(tick=0, channel=9, data=[42, 0]),
   midi.NoteOnEvent(tick=2, channel=9, data=[42, 110]),
   midi.NoteOnEvent(tick=94, channel=9, data=[42, 0]),
   midi.NoteOnEvent(tick=2, channel=9, data=[38, 110]),
   midi.NoteOnEvent(tick=0, channel=9, data=[42, 110]),
   midi.NoteOnEvent(tick=94, channel=9, data=[38, 0]),
   midi.NoteOnEvent(tick=0, channel=9, data=[42, 0]),
   midi.NoteOnEvent(tick=2, channel=9, data=[42, 110]),
   midi.NoteOnEvent(tick=94, channel=9, data=[42, 0]),
   midi.NoteOnEvent(tick=2, channel=9, data=[36, 110]),
   midi.NoteOnEvent(tick=0, channel=9, data=[42, 110]),
   midi.NoteOnEvent(tick=94, channel=9, data=[36, 0]),
   midi.NoteOnEvent(tick=0, channel=9, data=[42, 0]),
   midi.NoteOnEvent(tick=2, channel=9, data=[36, 110]),
   midi.NoteOnEvent(tick=0, channel=9, data=[42, 110]),
   midi.NoteOnEvent(tick=94, channel=9, data=[36, 0]),
   midi.NoteOnEvent(tick=0, channel=9, data=[42, 0]),
   midi.NoteOnEvent(tick=2, channel=9, data=[38, 110]),
   midi.NoteOnEvent(tick=0, channel=9, data=[42, 110]),
   midi.NoteOnEvent(tick=94, channel=9, data=[38, 0]),
   midi.NoteOnEvent(tick=0, channel=9, data=[42, 0]),
   midi.NoteOnEvent(tick=2, channel=9, data=[42, 110]),
   midi.NoteOnEvent(tick=94, channel=9, data=[42, 0]),
   midi.NoteOnEvent(tick=2, channel=9, data=[36, 110]),
   midi.NoteOnEvent(tick=0, channel=9, data=[42, 110]),
   midi.NoteOnEvent(tick=0, channel=9, data=[49, 110]),
   midi.NoteOnEvent(tick=94, channel=9, data=[36, 0]),
   midi.NoteOnEvent(tick=0, channel=9, data=[42, 0]),
   midi.NoteOnEvent(tick=0, channel=9, data=[49, 0]),
   midi.NoteOnEvent(tick=2, channel=9, data=[42, 110]),
   midi.NoteOnEvent(tick=94, channel=9, data=[42, 0]),
   midi.NoteOnEvent(tick=2, channel=9, data=[38, 110]),
   midi.NoteOnEvent(tick=0, channel=9, data=[42, 110]),
   midi.NoteOnEvent(tick=94, channel=9, data=[38, 0]),
   midi.NoteOnEvent(tick=0, channel=9, data=[42, 0]),
   midi.NoteOnEvent(tick=2, channel=9, data=[42, 110]),
   midi.NoteOnEvent(tick=94, channel=9, data=[42, 0]),
   midi.NoteOnEvent(tick=2, channel=9, data=[36, 110]),
   midi.NoteOnEvent(tick=0, channel=9, data=[42, 110]),
   midi.NoteOnEvent(tick=94, channel=9, data=[36, 0]),
   midi.NoteOnEvent(tick=0, channel=9, data=[42, 0]),
   midi.NoteOnEvent(tick=2, channel=9, data=[36, 110]),
   midi.NoteOnEvent(tick=0, channel=9, data=[42, 110]),
   midi.NoteOnEvent(tick=94, channel=9, data=[36, 0]),
   midi.NoteOnEvent(tick=0, channel=9, data=[42, 0]),
   midi.NoteOnEvent(tick=2, channel=9, data=[38, 110]),
   midi.NoteOnEvent(tick=0, channel=9, data=[42, 110]),
   midi.NoteOnEvent(tick=94, channel=9, data=[38, 0]),
   midi.NoteOnEvent(tick=0, channel=9, data=[42, 0]),
   midi.NoteOnEvent(tick=2, channel=9, data=[42, 110]),
   midi.NoteOnEvent(tick=94, channel=9, data=[42, 0]),
   midi.NoteOnEvent(tick=2, channel=9, data=[36, 110]),
   midi.NoteOnEvent(tick=0, channel=9, data=[42, 110]),
   midi.NoteOnEvent(tick=94, channel=9, data=[36, 0]),
   midi.NoteOnEvent(tick=0, channel=9, data=[42, 0]),
   midi.NoteOnEvent(tick=2, channel=9, data=[42, 110]),
   midi.NoteOnEvent(tick=94, channel=9, data=[42, 0]),
   midi.NoteOnEvent(tick=2, channel=9, data=[38, 110]),
   midi.NoteOnEvent(tick=0, channel=9, data=[42, 110]),
   midi.NoteOnEvent(tick=94, channel=9, data=[38, 0]),
   midi.NoteOnEvent(tick=0, channel=9, data=[42, 0]),
   midi.NoteOnEvent(tick=2, channel=9, data=[42, 110]),
   midi.NoteOnEvent(tick=94, channel=9, data=[42, 0]),
   midi.NoteOnEvent(tick=2, channel=9, data=[36, 110]),
   midi.NoteOnEvent(tick=0, channel=9, data=[42, 110]),
   midi.NoteOnEvent(tick=94, channel=9, data=[36, 0]),
   midi.NoteOnEvent(tick=0, channel=9, data=[42, 0]),
   midi.NoteOnEvent(tick=2, channel=9, data=[36, 110]),
   midi.NoteOnEvent(tick=0, channel=9, data=[42, 110]),
   midi.NoteOnEvent(tick=94, channel=9, data=[36, 0]),
   midi.NoteOnEvent(tick=0, channel=9, data=[42, 0]),
   midi.NoteOnEvent(tick=2, channel=9, data=[38, 110]),
   midi.NoteOnEvent(tick=0, channel=9, data=[42, 110]),
   midi.NoteOnEvent(tick=94, channel=9, data=[38, 0]),
   midi.NoteOnEvent(tick=0, channel=9, data=[42, 0]),
   midi.NoteOnEvent(tick=2, channel=9, data=[42, 110]),
   midi.NoteOnEvent(tick=94, channel=9, data=[42, 0]),
   midi.NoteOnEvent(tick=2, channel=9, data=[36, 110]),
   midi.NoteOnEvent(tick=0, channel=9, data=[42, 110]),
   midi.NoteOnEvent(tick=0, channel=9, data=[49, 110]),
   midi.NoteOnEvent(tick=94, channel=9, data=[36, 0]),
   midi.NoteOnEvent(tick=0, channel=9, data=[42, 0]),
   midi.NoteOnEvent(tick=0, channel=9, data=[49, 0]),
   midi.NoteOnEvent(tick=2, channel=9, data=[42, 110]),
   midi.NoteOnEvent(tick=94, channel=9, data=[42, 0]),
   midi.NoteOnEvent(tick=2, channel=9, data=[38, 110]),
   midi.NoteOnEvent(tick=0, channel=9, data=[42, 110]),
   midi.NoteOnEvent(tick=94, channel=9, data=[38, 0]),
   midi.NoteOnEvent(tick=0, channel=9, data=[42, 0]),
   midi.NoteOnEvent(tick=2, channel=9, data=[42, 110]),
   midi.NoteOnEvent(tick=94, channel=9, data=[42, 0]),
   midi.NoteOnEvent(tick=2, channel=9, data=[36, 110]),
   midi.NoteOnEvent(tick=0, channel=9, data=[42, 110]),
   midi.NoteOnEvent(tick=94, channel=9, data=[36, 0]),
   midi.NoteOnEvent(tick=0, channel=9, data=[42, 0]),
   midi.NoteOnEvent(tick=2, channel=9, data=[36, 110]),
   midi.NoteOnEvent(tick=0, channel=9, data=[42, 110]),
   midi.NoteOnEvent(tick=94, channel=9, data=[36, 0]),
   midi.NoteOnEvent(tick=0, channel=9, data=[42, 0]),
   midi.NoteOnEvent(tick=2, channel=9, data=[38, 110]),
   midi.NoteOnEvent(tick=0, channel=9, data=[42, 110]),
   midi.NoteOnEvent(tick=94, channel=9, data=[38, 0]),
   midi.NoteOnEvent(tick=0, channel=9, data=[42, 0]),
   midi.NoteOnEvent(tick=2, channel=9, data=[42, 110]),
   midi.NoteOnEvent(tick=94, channel=9, data=[42, 0]),
   midi.NoteOnEvent(tick=2, channel=9, data=[36, 110]),
   midi.NoteOnEvent(tick=0, channel=9, data=[42, 110]),
   midi.NoteOnEvent(tick=94, channel=9, data=[36, 0]),
   midi.NoteOnEvent(tick=0, channel=9, data=[42, 0]),
   midi.NoteOnEvent(tick=2, channel=9, data=[42, 110]),
   midi.NoteOnEvent(tick=94, channel=9, data=[42, 0]),
   midi.NoteOnEvent(tick=2, channel=9, data=[38, 110]),
   midi.NoteOnEvent(tick=0, channel=9, data=[42, 110]),
   midi.NoteOnEvent(tick=94, channel=9, data=[38, 0]),
   midi.NoteOnEvent(tick=0, channel=9, data=[42, 0]),
   midi.NoteOnEvent(tick=2, channel=9, data=[42, 110]),
   midi.NoteOnEvent(tick=94, channel=9, data=[42, 0]),
   midi.NoteOnEvent(tick=2, channel=9, data=[36, 110]),
   midi.NoteOnEvent(tick=0, channel=9, data=[42, 110]),
   midi.NoteOnEvent(tick=94, channel=9, data=[36, 0]),
   midi.NoteOnEvent(tick=0, channel=9, data=[42, 0]),
   midi.NoteOnEvent(tick=2, channel=9, data=[36, 110]),
   midi.NoteOnEvent(tick=0, channel=9, data=[42, 110]),
   midi.NoteOnEvent(tick=94, channel=9, data=[36, 0]),
   midi.NoteOnEvent(tick=0, channel=9, data=[42, 0]),
   midi.NoteOnEvent(tick=2, channel=9, data=[38, 110]),
   midi.NoteOnEvent(tick=0, channel=9, data=[42, 110]),
   midi.NoteOnEvent(tick=94, channel=9, data=[38, 0]),
   midi.NoteOnEvent(tick=0, channel=9, data=[42, 0]),
   midi.NoteOnEvent(tick=2, channel=9, data=[42, 110]),
   midi.NoteOnEvent(tick=94, channel=9, data=[42, 0]),
   midi.NoteOnEvent(tick=2, channel=9, data=[36, 110]),
   midi.NoteOnEvent(tick=0, channel=9, data=[42, 110]),
   midi.NoteOnEvent(tick=0, channel=9, data=[49, 110]),
   midi.NoteOnEvent(tick=94, channel=9, data=[36, 0]),
   midi.NoteOnEvent(tick=0, channel=9, data=[42, 0]),
   midi.NoteOnEvent(tick=0, channel=9, data=[49, 0]),
   midi.NoteOnEvent(tick=2, channel=9, data=[42, 110]),
   midi.NoteOnEvent(tick=94, channel=9, data=[42, 0]),
   midi.NoteOnEvent(tick=2, channel=9, data=[38, 110]),
   midi.NoteOnEvent(tick=0, channel=9, data=[42, 110]),
   midi.NoteOnEvent(tick=94, channel=9, data=[38, 0]),
   midi.NoteOnEvent(tick=0, channel=9, data=[42, 0]),
   midi.NoteOnEvent(tick=2, channel=9, data=[42, 110]),
   midi.NoteOnEvent(tick=94, channel=9, data=[42, 0]),
   midi.NoteOnEvent(tick=2, channel=9, data=[36, 110]),
   midi.NoteOnEvent(tick=0, channel=9, data=[42, 110]),
   midi.NoteOnEvent(tick=94, channel=9, data=[36, 0]),
   midi.NoteOnEvent(tick=0, channel=9, data=[42, 0]),
   midi.NoteOnEvent(tick=2, channel=9, data=[36, 110]),
   midi.NoteOnEvent(tick=0, channel=9, data=[42, 110]),
   midi.NoteOnEvent(tick=94, channel=9, data=[36, 0]),
   midi.NoteOnEvent(tick=0, channel=9, data=[42, 0]),
   midi.NoteOnEvent(tick=2, channel=9, data=[38, 110]),
   midi.NoteOnEvent(tick=0, channel=9, data=[42, 110]),
   midi.NoteOnEvent(tick=94, channel=9, data=[38, 0]),
   midi.NoteOnEvent(tick=0, channel=9, data=[42, 0]),
   midi.NoteOnEvent(tick=2, channel=9, data=[42, 110]),
   midi.NoteOnEvent(tick=94, channel=9, data=[42, 0]),
   midi.NoteOnEvent(tick=2, channel=9, data=[36, 110]),
   midi.NoteOnEvent(tick=0, channel=9, data=[42, 110]),
   midi.NoteOnEvent(tick=94, channel=9, data=[36, 0]),
   midi.NoteOnEvent(tick=0, channel=9, data=[42, 0]),
   midi.NoteOnEvent(tick=2, channel=9, data=[42, 110]),
   midi.NoteOnEvent(tick=94, channel=9, data=[42, 0]),
   midi.NoteOnEvent(tick=2, channel=9, data=[38, 110]),
   midi.NoteOnEvent(tick=0, channel=9, data=[42, 110]),
   midi.NoteOnEvent(tick=94, channel=9, data=[38, 0]),
   midi.NoteOnEvent(tick=0, channel=9, data=[42, 0]),
   midi.NoteOnEvent(tick=2, channel=9, data=[42, 110]),
   midi.NoteOnEvent(tick=94, channel=9, data=[42, 0]),
   midi.NoteOnEvent(tick=2, channel=9, data=[36, 110]),
   midi.NoteOnEvent(tick=0, channel=9, data=[42, 110]),
   midi.NoteOnEvent(tick=94, channel=9, data=[36, 0]),
   midi.NoteOnEvent(tick=0, channel=9, data=[42, 0]),
   midi.NoteOnEvent(tick=2, channel=9, data=[36, 110]),
   midi.NoteOnEvent(tick=0, channel=9, data=[42, 110]),
   midi.NoteOnEvent(tick=94, channel=9, data=[36, 0]),
   midi.NoteOnEvent(tick=0, channel=9, data=[42, 0]),
   midi.NoteOnEvent(tick=2, channel=9, data=[38, 110]),
   midi.NoteOnEvent(tick=0, channel=9, data=[42, 110]),
   midi.NoteOnEvent(tick=94, channel=9, data=[38, 0]),
   midi.NoteOnEvent(tick=0, channel=9, data=[42, 0]),
   midi.NoteOnEvent(tick=2, channel=9, data=[42, 110]),
   midi.NoteOnEvent(tick=94, channel=9, data=[42, 0]),
   midi.NoteOnEvent(tick=2, channel=9, data=[36, 110]),
   midi.NoteOnEvent(tick=0, channel=9, data=[42, 110]),
   midi.NoteOnEvent(tick=0, channel=9, data=[49, 110]),
   midi.NoteOnEvent(tick=94, channel=9, data=[36, 0]),
   midi.NoteOnEvent(tick=0, channel=9, data=[42, 0]),
   midi.NoteOnEvent(tick=0, channel=9, data=[49, 0]),
   midi.NoteOnEvent(tick=2, channel=9, data=[42, 110]),
   midi.NoteOnEvent(tick=94, channel=9, data=[42, 0]),
   midi.NoteOnEvent(tick=2, channel=9, data=[38, 110]),
   midi.NoteOnEvent(tick=0, channel=9, data=[42, 110]),
   midi.NoteOnEvent(tick=94, channel=9, data=[38, 0]),
   midi.NoteOnEvent(tick=0, channel=9, data=[42, 0]),
   midi.NoteOnEvent(tick=2, channel=9, data=[42, 110]),
   midi.NoteOnEvent(tick=94, channel=9, data=[42, 0]),
   midi.NoteOnEvent(tick=2, channel=9, data=[36, 110]),
   midi.NoteOnEvent(tick=0, channel=9, data=[42, 110]),
   midi.NoteOnEvent(tick=94, channel=9, data=[36, 0]),
   midi.NoteOnEvent(tick=0, channel=9, data=[42, 0]),
   midi.NoteOnEvent(tick=2, channel=9, data=[36, 110]),
   midi.NoteOnEvent(tick=0, channel=9, data=[42, 110]),
   midi.NoteOnEvent(tick=94, channel=9, data=[36, 0]),
   midi.NoteOnEvent(tick=0, channel=9, data=[42, 0]),
   midi.NoteOnEvent(tick=2, channel=9, data=[38, 110]),
   midi.NoteOnEvent(tick=0, channel=9, data=[42, 110]),
   midi.NoteOnEvent(tick=94, channel=9, data=[38, 0]),
   midi.NoteOnEvent(tick=0, channel=9, data=[42, 0]),
   midi.NoteOnEvent(tick=2, channel=9, data=[42, 110]),
   midi.NoteOnEvent(tick=94, channel=9, data=[42, 0]),
   midi.NoteOnEvent(tick=2, channel=9, data=[36, 110]),
   midi.NoteOnEvent(tick=0, channel=9, data=[42, 110]),
   midi.NoteOnEvent(tick=94, channel=9, data=[36, 0]),
   midi.NoteOnEvent(tick=0, channel=9, data=[42, 0]),
   midi.NoteOnEvent(tick=2, channel=9, data=[42, 110]),
   midi.NoteOnEvent(tick=94, channel=9, data=[42, 0]),
   midi.NoteOnEvent(tick=2, channel=9, data=[38, 110]),
   midi.NoteOnEvent(tick=0, channel=9, data=[42, 110]),
   midi.NoteOnEvent(tick=94, channel=9, data=[38, 0]),
   midi.NoteOnEvent(tick=0, channel=9, data=[42, 0]),
   midi.NoteOnEvent(tick=2, channel=9, data=[42, 110]),
   midi.NoteOnEvent(tick=94, channel=9, data=[42, 0]),
   midi.NoteOnEvent(tick=2, channel=9, data=[36, 110]),
   midi.NoteOnEvent(tick=0, channel=9, data=[42, 110]),
   midi.NoteOnEvent(tick=94, channel=9, data=[36, 0]),
   midi.NoteOnEvent(tick=0, channel=9, data=[42, 0]),
   midi.NoteOnEvent(tick=2, channel=9, data=[36, 110]),
   midi.NoteOnEvent(tick=0, channel=9, data=[42, 110]),
   midi.NoteOnEvent(tick=94, channel=9, data=[36, 0]),
   midi.NoteOnEvent(tick=0, channel=9, data=[42, 0]),
   midi.NoteOnEvent(tick=2, channel=9, data=[38, 110]),
   midi.NoteOnEvent(tick=0, channel=9, data=[42, 110]),
   midi.NoteOnEvent(tick=94, channel=9, data=[38, 0]),
   midi.NoteOnEvent(tick=0, channel=9, data=[42, 0]),
   midi.NoteOnEvent(tick=2, channel=9, data=[42, 110]),
   midi.NoteOnEvent(tick=94, channel=9, data=[42, 0]),
   midi.NoteOnEvent(tick=2, channel=9, data=[36, 110]),
   midi.NoteOnEvent(tick=0, channel=9, data=[42, 110]),
   midi.NoteOnEvent(tick=0, channel=9, data=[49, 110]),
   midi.NoteOnEvent(tick=94, channel=9, data=[36, 0]),
   midi.NoteOnEvent(tick=0, channel=9, data=[42, 0]),
   midi.NoteOnEvent(tick=0, channel=9, data=[49, 0]),
   midi.NoteOnEvent(tick=2, channel=9, data=[42, 110]),
   midi.NoteOnEvent(tick=94, channel=9, data=[42, 0]),
   midi.NoteOnEvent(tick=2, channel=9, data=[38, 110]),
   midi.NoteOnEvent(tick=0, channel=9, data=[42, 110]),
   midi.NoteOnEvent(tick=94, channel=9, data=[38, 0]),
   midi.NoteOnEvent(tick=0, channel=9, data=[42, 0]),
   midi.NoteOnEvent(tick=2, channel=9, data=[42, 110]),
   midi.NoteOnEvent(tick=94, channel=9, data=[42, 0]),
   midi.NoteOnEvent(tick=2, channel=9, data=[36, 110]),
   midi.NoteOnEvent(tick=0, channel=9, data=[42, 110]),
   midi.NoteOnEvent(tick=94, channel=9, data=[36, 0]),
   midi.NoteOnEvent(tick=0, channel=9, data=[42, 0]),
   midi.NoteOnEvent(tick=2, channel=9, data=[36, 110]),
   midi.NoteOnEvent(tick=0, channel=9, data=[42, 110]),
   midi.NoteOnEvent(tick=94, channel=9, data=[36, 0]),
   midi.NoteOnEvent(tick=0, channel=9, data=[42, 0]),
   midi.NoteOnEvent(tick=2, channel=9, data=[38, 110]),
   midi.NoteOnEvent(tick=0, channel=9, data=[42, 110]),
   midi.NoteOnEvent(tick=94, channel=9, data=[38, 0]),
   midi.NoteOnEvent(tick=0, channel=9, data=[42, 0]),
   midi.NoteOnEvent(tick=2, channel=9, data=[42, 110]),
   midi.NoteOnEvent(tick=94, channel=9, data=[42, 0]),
   midi.NoteOnEvent(tick=2, channel=9, data=[36, 110]),
   midi.NoteOnEvent(tick=0, channel=9, data=[42, 110]),
   midi.NoteOnEvent(tick=94, channel=9, data=[36, 0]),
   midi.NoteOnEvent(tick=0, channel=9, data=[42, 0]),
   midi.NoteOnEvent(tick=2, channel=9, data=[42, 110]),
   midi.NoteOnEvent(tick=94, channel=9, data=[42, 0]),
   midi.NoteOnEvent(tick=2, channel=9, data=[38, 110]),
   midi.NoteOnEvent(tick=0, channel=9, data=[42, 110]),
   midi.NoteOnEvent(tick=94, channel=9, data=[38, 0]),
   midi.NoteOnEvent(tick=0, channel=9, data=[42, 0]),
   midi.NoteOnEvent(tick=2, channel=9, data=[42, 110]),
   midi.NoteOnEvent(tick=94, channel=9, data=[42, 0]),
   midi.NoteOnEvent(tick=2, channel=9, data=[36, 110]),
   midi.NoteOnEvent(tick=0, channel=9, data=[42, 110]),
   midi.NoteOnEvent(tick=94, channel=9, data=[36, 0]),
   midi.NoteOnEvent(tick=0, channel=9, data=[42, 0]),
   midi.NoteOnEvent(tick=2, channel=9, data=[36, 110]),
   midi.NoteOnEvent(tick=0, channel=9, data=[42, 110]),
   midi.NoteOnEvent(tick=94, channel=9, data=[36, 0]),
   midi.NoteOnEvent(tick=0, channel=9, data=[42, 0]),
   midi.NoteOnEvent(tick=2, channel=9, data=[38, 110]),
   midi.NoteOnEvent(tick=0, channel=9, data=[42, 110]),
   midi.NoteOnEvent(tick=94, channel=9, data=[38, 0]),
   midi.NoteOnEvent(tick=0, channel=9, data=[42, 0]),
   midi.NoteOnEvent(tick=2, channel=9, data=[42, 110]),
   midi.NoteOnEvent(tick=94, channel=9, data=[42, 0]),
   midi.NoteOnEvent(tick=2, channel=9, data=[36, 110]),
   midi.NoteOnEvent(tick=0, channel=9, data=[42, 110]),
   midi.NoteOnEvent(tick=0, channel=9, data=[49, 110]),
   midi.NoteOnEvent(tick=94, channel=9, data=[36, 0]),
   midi.NoteOnEvent(tick=0, channel=9, data=[42, 0]),
   midi.NoteOnEvent(tick=0, channel=9, data=[49, 0]),
   midi.NoteOnEvent(tick=2, channel=9, data=[42, 110]),
   midi.NoteOnEvent(tick=94, channel=9, data=[42, 0]),
   midi.NoteOnEvent(tick=2, channel=9, data=[38, 110]),
   midi.NoteOnEvent(tick=0, channel=9, data=[42, 110]),
   midi.NoteOnEvent(tick=94, channel=9, data=[38, 0]),
   midi.NoteOnEvent(tick=0, channel=9, data=[42, 0]),
   midi.NoteOnEvent(tick=2, channel=9, data=[42, 110]),
   midi.NoteOnEvent(tick=94, channel=9, data=[42, 0]),
   midi.NoteOnEvent(tick=2, channel=9, data=[36, 110]),
   midi.NoteOnEvent(tick=0, channel=9, data=[42, 110]),
   midi.NoteOnEvent(tick=94, channel=9, data=[36, 0]),
   midi.NoteOnEvent(tick=0, channel=9, data=[42, 0]),
   midi.NoteOnEvent(tick=2, channel=9, data=[36, 110]),
   midi.NoteOnEvent(tick=0, channel=9, data=[42, 110]),
   midi.NoteOnEvent(tick=94, channel=9, data=[36, 0]),
   midi.NoteOnEvent(tick=0, channel=9, data=[42, 0]),
   midi.NoteOnEvent(tick=2, channel=9, data=[38, 110]),
   midi.NoteOnEvent(tick=0, channel=9, data=[42, 110]),
   midi.NoteOnEvent(tick=94, channel=9, data=[38, 0]),
   midi.NoteOnEvent(tick=0, channel=9, data=[42, 0]),
   midi.NoteOnEvent(tick=2, channel=9, data=[42, 110]),
   midi.NoteOnEvent(tick=94, channel=9, data=[42, 0]),
   midi.NoteOnEvent(tick=2, channel=9, data=[36, 110]),
   midi.NoteOnEvent(tick=0, channel=9, data=[42, 110]),
   midi.NoteOnEvent(tick=94, channel=9, data=[36, 0]),
   midi.NoteOnEvent(tick=0, channel=9, data=[42, 0]),
   midi.NoteOnEvent(tick=2, channel=9, data=[42, 110]),
   midi.NoteOnEvent(tick=94, channel=9, data=[42, 0]),
   midi.NoteOnEvent(tick=2, channel=9, data=[38, 110]),
   midi.NoteOnEvent(tick=0, channel=9, data=[42, 110]),
   midi.NoteOnEvent(tick=94, channel=9, data=[38, 0]),
   midi.NoteOnEvent(tick=0, channel=9, data=[42, 0]),
   midi.NoteOnEvent(tick=2, channel=9, data=[42, 110]),
   midi.NoteOnEvent(tick=94, channel=9, data=[42, 0]),
   midi.NoteOnEvent(tick=2, channel=9, data=[36, 110]),
   midi.NoteOnEvent(tick=0, channel=9, data=[42, 110]),
   midi.NoteOnEvent(tick=94, channel=9, data=[36, 0]),
   midi.NoteOnEvent(tick=0, channel=9, data=[42, 0]),
   midi.NoteOnEvent(tick=2, channel=9, data=[36, 110]),
   midi.NoteOnEvent(tick=0, channel=9, data=[42, 110]),
   midi.NoteOnEvent(tick=94, channel=9, data=[36, 0]),
   midi.NoteOnEvent(tick=0, channel=9, data=[42, 0]),
   midi.NoteOnEvent(tick=2, channel=9, data=[38, 110]),
   midi.NoteOnEvent(tick=0, channel=9, data=[42, 110]),
   midi.NoteOnEvent(tick=94, channel=9, data=[38, 0]),
   midi.NoteOnEvent(tick=0, channel=9, data=[42, 0]),
   midi.NoteOnEvent(tick=2, channel=9, data=[42, 110]),
   midi.NoteOnEvent(tick=94, channel=9, data=[42, 0]),
   midi.NoteOnEvent(tick=2, channel=9, data=[36, 110]),
   midi.NoteOnEvent(tick=0, channel=9, data=[42, 110]),
   midi.NoteOnEvent(tick=0, channel=9, data=[49, 110]),
   midi.NoteOnEvent(tick=94, channel=9, data=[36, 0]),
   midi.NoteOnEvent(tick=0, channel=9, data=[42, 0]),
   midi.NoteOnEvent(tick=0, channel=9, data=[49, 0]),
   midi.NoteOnEvent(tick=2, channel=9, data=[42, 110]),
   midi.NoteOnEvent(tick=94, channel=9, data=[42, 0]),
   midi.NoteOnEvent(tick=2, channel=9, data=[38, 110]),
   midi.NoteOnEvent(tick=0, channel=9, data=[42, 110]),
   midi.NoteOnEvent(tick=94, channel=9, data=[38, 0]),
   midi.NoteOnEvent(tick=0, channel=9, data=[42, 0]),
   midi.NoteOnEvent(tick=2, channel=9, data=[42, 110]),
   midi.NoteOnEvent(tick=94, channel=9, data=[42, 0]),
   midi.NoteOnEvent(tick=2, channel=9, data=[36, 110]),
   midi.NoteOnEvent(tick=0, channel=9, data=[42, 110]),
   midi.NoteOnEvent(tick=94, channel=9, data=[36, 0]),
   midi.NoteOnEvent(tick=0, channel=9, data=[42, 0]),
   midi.NoteOnEvent(tick=2, channel=9, data=[36, 110]),
   midi.NoteOnEvent(tick=0, channel=9, data=[42, 110]),
   midi.NoteOnEvent(tick=94, channel=9, data=[36, 0]),
   midi.NoteOnEvent(tick=0, channel=9, data=[42, 0]),
   midi.NoteOnEvent(tick=2, channel=9, data=[38, 110]),
   midi.NoteOnEvent(tick=0, channel=9, data=[42, 110]),
   midi.NoteOnEvent(tick=94, channel=9, data=[38, 0]),
   midi.NoteOnEvent(tick=0, channel=9, data=[42, 0]),
   midi.NoteOnEvent(tick=2, channel=9, data=[42, 110]),
   midi.NoteOnEvent(tick=94, channel=9, data=[42, 0]),
   midi.NoteOnEvent(tick=2, channel=9, data=[36, 110]),
   midi.NoteOnEvent(tick=0, channel=9, data=[42, 110]),
   midi.NoteOnEvent(tick=94, channel=9, data=[36, 0]),
   midi.NoteOnEvent(tick=0, channel=9, data=[42, 0]),
   midi.NoteOnEvent(tick=2, channel=9, data=[42, 110]),
   midi.NoteOnEvent(tick=94, channel=9, data=[42, 0]),
   midi.NoteOnEvent(tick=2, channel=9, data=[38, 110]),
   midi.NoteOnEvent(tick=0, channel=9, data=[42, 110]),
   midi.NoteOnEvent(tick=94, channel=9, data=[38, 0]),
   midi.NoteOnEvent(tick=0, channel=9, data=[42, 0]),
   midi.NoteOnEvent(tick=2, channel=9, data=[42, 110]),
   midi.NoteOnEvent(tick=94, channel=9, data=[42, 0]),
   midi.NoteOnEvent(tick=2, channel=9, data=[36, 110]),
   midi.NoteOnEvent(tick=0, channel=9, data=[42, 110]),
   midi.NoteOnEvent(tick=94, channel=9, data=[36, 0]),
   midi.NoteOnEvent(tick=0, channel=9, data=[42, 0]),
   midi.NoteOnEvent(tick=2, channel=9, data=[36, 110]),
   midi.NoteOnEvent(tick=0, channel=9, data=[42, 110]),
   midi.NoteOnEvent(tick=94, channel=9, data=[36, 0]),
   midi.NoteOnEvent(tick=0, channel=9, data=[42, 0]),
   midi.NoteOnEvent(tick=2, channel=9, data=[38, 110]),
   midi.NoteOnEvent(tick=0, channel=9, data=[42, 110]),
   midi.NoteOnEvent(tick=94, channel=9, data=[38, 0]),
   midi.NoteOnEvent(tick=0, channel=9, data=[42, 0]),
   midi.NoteOnEvent(tick=2, channel=9, data=[42, 110]),
   midi.NoteOnEvent(tick=94, channel=9, data=[42, 0]),
   midi.NoteOnEvent(tick=2, channel=9, data=[36, 110]),
   midi.NoteOnEvent(tick=0, channel=9, data=[42, 110]),
   midi.NoteOnEvent(tick=0, channel=9, data=[49, 110]),
   midi.NoteOnEvent(tick=94, channel=9, data=[36, 0]),
   midi.NoteOnEvent(tick=0, channel=9, data=[42, 0]),
   midi.NoteOnEvent(tick=0, channel=9, data=[49, 0]),
   midi.NoteOnEvent(tick=2, channel=9, data=[42, 110]),
   midi.NoteOnEvent(tick=94, channel=9, data=[42, 0]),
   midi.NoteOnEvent(tick=2, channel=9, data=[38, 110]),
   midi.NoteOnEvent(tick=0, channel=9, data=[42, 110]),
   midi.NoteOnEvent(tick=94, channel=9, data=[38, 0]),
   midi.NoteOnEvent(tick=0, channel=9, data=[42, 0]),
   midi.NoteOnEvent(tick=2, channel=9, data=[42, 110]),
   midi.NoteOnEvent(tick=94, channel=9, data=[42, 0]),
   midi.NoteOnEvent(tick=2, channel=9, data=[36, 110]),
   midi.NoteOnEvent(tick=0, channel=9, data=[42, 110]),
   midi.NoteOnEvent(tick=94, channel=9, data=[36, 0]),
   midi.NoteOnEvent(tick=0, channel=9, data=[42, 0]),
   midi.NoteOnEvent(tick=2, channel=9, data=[36, 110]),
   midi.NoteOnEvent(tick=0, channel=9, data=[42, 110]),
   midi.NoteOnEvent(tick=94, channel=9, data=[36, 0]),
   midi.NoteOnEvent(tick=0, channel=9, data=[42, 0]),
   midi.NoteOnEvent(tick=2, channel=9, data=[38, 110]),
   midi.NoteOnEvent(tick=0, channel=9, data=[42, 110]),
   midi.NoteOnEvent(tick=94, channel=9, data=[38, 0]),
   midi.NoteOnEvent(tick=0, channel=9, data=[42, 0]),
   midi.NoteOnEvent(tick=2, channel=9, data=[42, 110]),
   midi.NoteOnEvent(tick=94, channel=9, data=[42, 0]),
   midi.NoteOnEvent(tick=2, channel=9, data=[36, 110]),
   midi.NoteOnEvent(tick=0, channel=9, data=[42, 110]),
   midi.NoteOnEvent(tick=94, channel=9, data=[36, 0]),
   midi.NoteOnEvent(tick=0, channel=9, data=[42, 0]),
   midi.NoteOnEvent(tick=2, channel=9, data=[42, 110]),
   midi.NoteOnEvent(tick=94, channel=9, data=[42, 0]),
   midi.NoteOnEvent(tick=2, channel=9, data=[38, 110]),
   midi.NoteOnEvent(tick=0, channel=9, data=[42, 110]),
   midi.NoteOnEvent(tick=94, channel=9, data=[38, 0]),
   midi.NoteOnEvent(tick=0, channel=9, data=[42, 0]),
   midi.NoteOnEvent(tick=2, channel=9, data=[42, 110]),
   midi.NoteOnEvent(tick=94, channel=9, data=[42, 0]),
   midi.NoteOnEvent(tick=2, channel=9, data=[36, 110]),
   midi.NoteOnEvent(tick=0, channel=9, data=[42, 110]),
   midi.NoteOnEvent(tick=94, channel=9, data=[36, 0]),
   midi.NoteOnEvent(tick=0, channel=9, data=[42, 0]),
   midi.NoteOnEvent(tick=2, channel=9, data=[36, 110]),
   midi.NoteOnEvent(tick=0, channel=9, data=[42, 110]),
   midi.NoteOnEvent(tick=94, channel=9, data=[36, 0]),
   midi.NoteOnEvent(tick=0, channel=9, data=[42, 0]),
   midi.NoteOnEvent(tick=2, channel=9, data=[38, 110]),
   midi.NoteOnEvent(tick=0, channel=9, data=[42, 110]),
   midi.NoteOnEvent(tick=94, channel=9, data=[38, 0]),
   midi.NoteOnEvent(tick=0, channel=9, data=[42, 0]),
   midi.NoteOnEvent(tick=2, channel=9, data=[42, 110]),
   midi.NoteOnEvent(tick=94, channel=9, data=[42, 0]),
   midi.NoteOnEvent(tick=2, channel=9, data=[36, 110]),
   midi.NoteOnEvent(tick=0, channel=9, data=[42, 110]),
   midi.NoteOnEvent(tick=0, channel=9, data=[49, 110]),
   midi.NoteOnEvent(tick=94, channel=9, data=[36, 0]),
   midi.NoteOnEvent(tick=0, channel=9, data=[42, 0]),
   midi.NoteOnEvent(tick=0, channel=9, data=[49, 0]),
   midi.NoteOnEvent(tick=2, channel=9, data=[42, 110]),
   midi.NoteOnEvent(tick=94, channel=9, data=[42, 0]),
   midi.NoteOnEvent(tick=2, channel=9, data=[38, 110]),
   midi.NoteOnEvent(tick=0, channel=9, data=[42, 110]),
   midi.NoteOnEvent(tick=94, channel=9, data=[38, 0]),
   midi.NoteOnEvent(tick=0, channel=9, data=[42, 0]),
   midi.NoteOnEvent(tick=2, channel=9, data=[42, 110]),
   midi.NoteOnEvent(tick=94, channel=9, data=[42, 0]),
   midi.NoteOnEvent(tick=2, channel=9, data=[36, 110]),
   midi.NoteOnEvent(tick=0, channel=9, data=[42, 110]),
   midi.NoteOnEvent(tick=94, channel=9, data=[36, 0]),
   midi.NoteOnEvent(tick=0, channel=9, data=[42, 0]),
   midi.NoteOnEvent(tick=2, channel=9, data=[36, 110]),
   midi.NoteOnEvent(tick=0, channel=9, data=[42, 110]),
   midi.NoteOnEvent(tick=94, channel=9, data=[36, 0]),
   midi.NoteOnEvent(tick=0, channel=9, data=[42, 0]),
   midi.NoteOnEvent(tick=2, channel=9, data=[38, 110]),
   midi.NoteOnEvent(tick=0, channel=9, data=[42, 110]),
   midi.NoteOnEvent(tick=94, channel=9, data=[38, 0]),
   midi.NoteOnEvent(tick=0, channel=9, data=[42, 0]),
   midi.NoteOnEvent(tick=2, channel=9, data=[42, 110]),
   midi.NoteOnEvent(tick=94, channel=9, data=[42, 0]),
   midi.NoteOnEvent(tick=2, channel=9, data=[36, 110]),
   midi.NoteOnEvent(tick=0, channel=9, data=[42, 110]),
   midi.NoteOnEvent(tick=94, channel=9, data=[36, 0]),
   midi.NoteOnEvent(tick=0, channel=9, data=[42, 0]),
   midi.NoteOnEvent(tick=2, channel=9, data=[42, 110]),
   midi.NoteOnEvent(tick=94, channel=9, data=[42, 0]),
   midi.NoteOnEvent(tick=2, channel=9, data=[38, 110]),
   midi.NoteOnEvent(tick=0, channel=9, data=[42, 110]),
   midi.NoteOnEvent(tick=94, channel=9, data=[38, 0]),
   midi.NoteOnEvent(tick=0, channel=9, data=[42, 0]),
   midi.NoteOnEvent(tick=2, channel=9, data=[42, 110]),
   midi.NoteOnEvent(tick=94, channel=9, data=[42, 0]),
   midi.NoteOnEvent(tick=2, channel=9, data=[36, 110]),
   midi.NoteOnEvent(tick=0, channel=9, data=[42, 110]),
   midi.NoteOnEvent(tick=94, channel=9, data=[36, 0]),
   midi.NoteOnEvent(tick=0, channel=9, data=[42, 0]),
   midi.NoteOnEvent(tick=2, channel=9, data=[36, 110]),
   midi.NoteOnEvent(tick=0, channel=9, data=[42, 110]),
   midi.NoteOnEvent(tick=94, channel=9, data=[36, 0]),
   midi.NoteOnEvent(tick=0, channel=9, data=[42, 0]),
   midi.NoteOnEvent(tick=2, channel=9, data=[38, 110]),
   midi.NoteOnEvent(tick=0, channel=9, data=[42, 110]),
   midi.NoteOnEvent(tick=94, channel=9, data=[38, 0]),
   midi.NoteOnEvent(tick=0, channel=9, data=[42, 0]),
   midi.NoteOnEvent(tick=2, channel=9, data=[42, 110]),
   midi.NoteOnEvent(tick=94, channel=9, data=[42, 0]),
   midi.NoteOnEvent(tick=2, channel=9, data=[36, 110]),
   midi.NoteOnEvent(tick=0, channel=9, data=[42, 110]),
   midi.NoteOnEvent(tick=0, channel=9, data=[49, 110]),
   midi.NoteOnEvent(tick=94, channel=9, data=[36, 0]),
   midi.NoteOnEvent(tick=0, channel=9, data=[42, 0]),
   midi.NoteOnEvent(tick=0, channel=9, data=[49, 0]),
   midi.NoteOnEvent(tick=2, channel=9, data=[38, 110]),
   midi.NoteOnEvent(tick=0, channel=9, data=[42, 110]),
   midi.NoteOnEvent(tick=94, channel=9, data=[38, 0]),
   midi.NoteOnEvent(tick=0, channel=9, data=[42, 0]),
   midi.NoteOnEvent(tick=2, channel=9, data=[36, 110]),
   midi.NoteOnEvent(tick=0, channel=9, data=[42, 110]),
   midi.NoteOnEvent(tick=94, channel=9, data=[36, 0]),
   midi.NoteOnEvent(tick=0, channel=9, data=[42, 0]),
   midi.NoteOnEvent(tick=2, channel=9, data=[38, 110]),
   midi.NoteOnEvent(tick=0, channel=9, data=[42, 110]),
   midi.NoteOnEvent(tick=94, channel=9, data=[38, 0]),
   midi.NoteOnEvent(tick=0, channel=9, data=[42, 0]),
   midi.NoteOnEvent(tick=2, channel=9, data=[36, 110]),
   midi.NoteOnEvent(tick=0, channel=9, data=[42, 110]),
   midi.NoteOnEvent(tick=94, channel=9, data=[36, 0]),
   midi.NoteOnEvent(tick=0, channel=9, data=[42, 0]),
   midi.NoteOnEvent(tick=2, channel=9, data=[38, 110]),
   midi.NoteOnEvent(tick=0, channel=9, data=[42, 110]),
   midi.NoteOnEvent(tick=94, channel=9, data=[38, 0]),
   midi.NoteOnEvent(tick=0, channel=9, data=[42, 0]),
   midi.NoteOnEvent(tick=2, channel=9, data=[36, 110]),
   midi.NoteOnEvent(tick=0, channel=9, data=[42, 110]),
   midi.NoteOnEvent(tick=94, channel=9, data=[36, 0]),
   midi.NoteOnEvent(tick=0, channel=9, data=[42, 0]),
   midi.NoteOnEvent(tick=2, channel=9, data=[38, 110]),
   midi.NoteOnEvent(tick=0, channel=9, data=[42, 110]),
   midi.NoteOnEvent(tick=94, channel=9, data=[38, 0]),
   midi.NoteOnEvent(tick=0, channel=9, data=[42, 0]),
   midi.NoteOnEvent(tick=2, channel=9, data=[36, 110]),
   midi.NoteOnEvent(tick=0, channel=9, data=[42, 110]),
   midi.NoteOnEvent(tick=0, channel=9, data=[49, 110]),
   midi.NoteOnEvent(tick=94, channel=9, data=[36, 0]),
   midi.NoteOnEvent(tick=0, channel=9, data=[42, 0]),
   midi.NoteOnEvent(tick=0, channel=9, data=[49, 0]),
   midi.NoteOnEvent(tick=2, channel=9, data=[38, 110]),
   midi.NoteOnEvent(tick=0, channel=9, data=[42, 110]),
   midi.NoteOnEvent(tick=94, channel=9, data=[38, 0]),
   midi.NoteOnEvent(tick=0, channel=9, data=[42, 0]),
   midi.NoteOnEvent(tick=2, channel=9, data=[36, 110]),
   midi.NoteOnEvent(tick=0, channel=9, data=[42, 110]),
   midi.NoteOnEvent(tick=94, channel=9, data=[36, 0]),
   midi.NoteOnEvent(tick=0, channel=9, data=[42, 0]),
   midi.NoteOnEvent(tick=2, channel=9, data=[38, 110]),
   midi.NoteOnEvent(tick=0, channel=9, data=[42, 110]),
   midi.NoteOnEvent(tick=94, channel=9, data=[38, 0]),
   midi.NoteOnEvent(tick=0, channel=9, data=[42, 0]),
   midi.NoteOnEvent(tick=2, channel=9, data=[36, 110]),
   midi.NoteOnEvent(tick=0, channel=9, data=[42, 110]),
   midi.NoteOnEvent(tick=94, channel=9, data=[36, 0]),
   midi.NoteOnEvent(tick=0, channel=9, data=[42, 0]),
   midi.NoteOnEvent(tick=2, channel=9, data=[38, 110]),
   midi.NoteOnEvent(tick=0, channel=9, data=[42, 110]),
   midi.NoteOnEvent(tick=94, channel=9, data=[38, 0]),
   midi.NoteOnEvent(tick=0, channel=9, data=[42, 0]),
   midi.NoteOnEvent(tick=2, channel=9, data=[36, 110]),
   midi.NoteOnEvent(tick=0, channel=9, data=[42, 110]),
   midi.NoteOnEvent(tick=94, channel=9, data=[36, 0]),
   midi.NoteOnEvent(tick=0, channel=9, data=[42, 0]),
   midi.NoteOnEvent(tick=2, channel=9, data=[38, 110]),
   midi.NoteOnEvent(tick=0, channel=9, data=[42, 110]),
   midi.NoteOnEvent(tick=94, channel=9, data=[38, 0]),
   midi.NoteOnEvent(tick=0, channel=9, data=[42, 0]),
   midi.NoteOnEvent(tick=2, channel=9, data=[36, 110]),
   midi.NoteOnEvent(tick=0, channel=9, data=[42, 110]),
   midi.NoteOnEvent(tick=0, channel=9, data=[49, 110]),
   midi.NoteOnEvent(tick=94, channel=9, data=[36, 0]),
   midi.NoteOnEvent(tick=0, channel=9, data=[42, 0]),
   midi.NoteOnEvent(tick=0, channel=9, data=[49, 0]),
   midi.NoteOnEvent(tick=2, channel=9, data=[38, 110]),
   midi.NoteOnEvent(tick=0, channel=9, data=[42, 110]),
   midi.NoteOnEvent(tick=94, channel=9, data=[38, 0]),
   midi.NoteOnEvent(tick=0, channel=9, data=[42, 0]),
   midi.NoteOnEvent(tick=2, channel=9, data=[36, 110]),
   midi.NoteOnEvent(tick=0, channel=9, data=[42, 110]),
   midi.NoteOnEvent(tick=94, channel=9, data=[36, 0]),
   midi.NoteOnEvent(tick=0, channel=9, data=[42, 0]),
   midi.NoteOnEvent(tick=2, channel=9, data=[38, 110]),
   midi.NoteOnEvent(tick=0, channel=9, data=[42, 110]),
   midi.NoteOnEvent(tick=94, channel=9, data=[38, 0]),
   midi.NoteOnEvent(tick=0, channel=9, data=[42, 0]),
   midi.NoteOnEvent(tick=2, channel=9, data=[36, 110]),
   midi.NoteOnEvent(tick=0, channel=9, data=[42, 110]),
   midi.NoteOnEvent(tick=94, channel=9, data=[36, 0]),
   midi.NoteOnEvent(tick=0, channel=9, data=[42, 0]),
   midi.NoteOnEvent(tick=2, channel=9, data=[38, 110]),
   midi.NoteOnEvent(tick=0, channel=9, data=[42, 110]),
   midi.NoteOnEvent(tick=94, channel=9, data=[38, 0]),
   midi.NoteOnEvent(tick=0, channel=9, data=[42, 0]),
   midi.NoteOnEvent(tick=2, channel=9, data=[36, 110]),
   midi.NoteOnEvent(tick=0, channel=9, data=[42, 110]),
   midi.NoteOnEvent(tick=0, channel=9, data=[49, 110]),
   midi.NoteOnEvent(tick=94, channel=9, data=[36, 0]),
   midi.NoteOnEvent(tick=0, channel=9, data=[42, 0]),
   midi.NoteOnEvent(tick=0, channel=9, data=[49, 0]),
   midi.NoteOnEvent(tick=2, channel=9, data=[38, 110]),
   midi.NoteOnEvent(tick=0, channel=9, data=[42, 110]),
   midi.NoteOnEvent(tick=94, channel=9, data=[38, 0]),
   midi.NoteOnEvent(tick=0, channel=9, data=[42, 0]),
   midi.NoteOnEvent(tick=2, channel=9, data=[36, 110]),
   midi.NoteOnEvent(tick=0, channel=9, data=[42, 110]),
   midi.NoteOnEvent(tick=94, channel=9, data=[36, 0]),
   midi.NoteOnEvent(tick=0, channel=9, data=[42, 0]),
   midi.NoteOnEvent(tick=2, channel=9, data=[38, 110]),
   midi.NoteOnEvent(tick=0, channel=9, data=[42, 110]),
   midi.NoteOnEvent(tick=94, channel=9, data=[38, 0]),
   midi.NoteOnEvent(tick=0, channel=9, data=[42, 0]),
   midi.NoteOnEvent(tick=2, channel=9, data=[36, 110]),
   midi.NoteOnEvent(tick=0, channel=9, data=[42, 110]),
   midi.NoteOnEvent(tick=94, channel=9, data=[36, 0]),
   midi.NoteOnEvent(tick=0, channel=9, data=[42, 0]),
   midi.NoteOnEvent(tick=2, channel=9, data=[38, 110]),
   midi.NoteOnEvent(tick=0, channel=9, data=[42, 110]),
   midi.NoteOnEvent(tick=94, channel=9, data=[38, 0]),
   midi.NoteOnEvent(tick=0, channel=9, data=[42, 0]),
   midi.NoteOnEvent(tick=2, channel=9, data=[36, 110]),
   midi.NoteOnEvent(tick=0, channel=9, data=[42, 110]),
   midi.NoteOnEvent(tick=0, channel=9, data=[49, 110]),
   midi.NoteOnEvent(tick=94, channel=9, data=[36, 0]),
   midi.NoteOnEvent(tick=0, channel=9, data=[42, 0]),
   midi.NoteOnEvent(tick=0, channel=9, data=[49, 0]),
   midi.NoteOnEvent(tick=2, channel=9, data=[38, 110]),
   midi.NoteOnEvent(tick=0, channel=9, data=[42, 110]),
   midi.NoteOnEvent(tick=94, channel=9, data=[38, 0]),
   midi.NoteOnEvent(tick=0, channel=9, data=[42, 0]),
   midi.NoteOnEvent(tick=2, channel=9, data=[36, 110]),
   midi.NoteOnEvent(tick=0, channel=9, data=[42, 110]),
   midi.NoteOnEvent(tick=94, channel=9, data=[36, 0]),
   midi.NoteOnEvent(tick=0, channel=9, data=[42, 0]),
   midi.NoteOnEvent(tick=2, channel=9, data=[38, 110]),
   midi.NoteOnEvent(tick=0, channel=9, data=[42, 110]),
   midi.NoteOnEvent(tick=94, channel=9, data=[38, 0]),
   midi.NoteOnEvent(tick=0, channel=9, data=[42, 0]),
   midi.NoteOnEvent(tick=2, channel=9, data=[36, 110]),
   midi.NoteOnEvent(tick=0, channel=9, data=[42, 110]),
   midi.NoteOnEvent(tick=94, channel=9, data=[36, 0]),
   midi.NoteOnEvent(tick=0, channel=9, data=[42, 0]),
   midi.NoteOnEvent(tick=2, channel=9, data=[38, 110]),
   midi.NoteOnEvent(tick=0, channel=9, data=[42, 110]),
   midi.NoteOnEvent(tick=94, channel=9, data=[38, 0]),
   midi.NoteOnEvent(tick=0, channel=9, data=[42, 0]),
   midi.NoteOnEvent(tick=2, channel=9, data=[36, 110]),
   midi.NoteOnEvent(tick=0, channel=9, data=[42, 110]),
   midi.NoteOnEvent(tick=94, channel=9, data=[36, 0]),
   midi.NoteOnEvent(tick=0, channel=9, data=[42, 0]),
   midi.NoteOnEvent(tick=2, channel=9, data=[38, 110]),
   midi.NoteOnEvent(tick=0, channel=9, data=[42, 110]),
   midi.NoteOnEvent(tick=94, channel=9, data=[38, 0]),
   midi.NoteOnEvent(tick=0, channel=9, data=[42, 0]),
   midi.NoteOnEvent(tick=2, channel=9, data=[36, 110]),
   midi.NoteOnEvent(tick=0, channel=9, data=[42, 110]),
   midi.NoteOnEvent(tick=0, channel=9, data=[49, 110]),
   midi.NoteOnEvent(tick=94, channel=9, data=[36, 0]),
   midi.NoteOnEvent(tick=0, channel=9, data=[42, 0]),
   midi.NoteOnEvent(tick=0, channel=9, data=[49, 0]),
   midi.NoteOnEvent(tick=2, channel=9, data=[38, 110]),
   midi.NoteOnEvent(tick=0, channel=9, data=[42, 110]),
   midi.NoteOnEvent(tick=94, channel=9, data=[38, 0]),
   midi.NoteOnEvent(tick=0, channel=9, data=[42, 0]),
   midi.NoteOnEvent(tick=2, channel=9, data=[36, 110]),
   midi.NoteOnEvent(tick=0, channel=9, data=[42, 110]),
   midi.NoteOnEvent(tick=94, channel=9, data=[36, 0]),
   midi.NoteOnEvent(tick=0, channel=9, data=[42, 0]),
   midi.NoteOnEvent(tick=2, channel=9, data=[38, 110]),
   midi.NoteOnEvent(tick=0, channel=9, data=[42, 110]),
   midi.NoteOnEvent(tick=94, channel=9, data=[38, 0]),
   midi.NoteOnEvent(tick=0, channel=9, data=[42, 0]),
   midi.NoteOnEvent(tick=2, channel=9, data=[36, 110]),
   midi.NoteOnEvent(tick=0, channel=9, data=[42, 110]),
   midi.NoteOnEvent(tick=94, channel=9, data=[36, 0]),
   midi.NoteOnEvent(tick=0, channel=9, data=[42, 0]),
   midi.NoteOnEvent(tick=2, channel=9, data=[38, 110]),
   midi.NoteOnEvent(tick=0, channel=9, data=[42, 110]),
   midi.NoteOnEvent(tick=94, channel=9, data=[38, 0]),
   midi.NoteOnEvent(tick=0, channel=9, data=[42, 0]),
   midi.NoteOnEvent(tick=2, channel=9, data=[36, 110]),
   midi.NoteOnEvent(tick=0, channel=9, data=[42, 110]),
   midi.NoteOnEvent(tick=94, channel=9, data=[36, 0]),
   midi.NoteOnEvent(tick=0, channel=9, data=[42, 0]),
   midi.NoteOnEvent(tick=2, channel=9, data=[38, 110]),
   midi.NoteOnEvent(tick=0, channel=9, data=[42, 110]),
   midi.NoteOnEvent(tick=94, channel=9, data=[38, 0]),
   midi.NoteOnEvent(tick=0, channel=9, data=[42, 0]),
   midi.NoteOnEvent(tick=2, channel=9, data=[36, 110]),
   midi.NoteOnEvent(tick=0, channel=9, data=[42, 110]),
   midi.NoteOnEvent(tick=0, channel=9, data=[49, 110]),
   midi.NoteOnEvent(tick=94, channel=9, data=[36, 0]),
   midi.NoteOnEvent(tick=0, channel=9, data=[42, 0]),
   midi.NoteOnEvent(tick=0, channel=9, data=[49, 0]),
   midi.NoteOnEvent(tick=2, channel=9, data=[38, 110]),
   midi.NoteOnEvent(tick=0, channel=9, data=[42, 110]),
   midi.NoteOnEvent(tick=94, channel=9, data=[38, 0]),
   midi.NoteOnEvent(tick=0, channel=9, data=[42, 0]),
   midi.NoteOnEvent(tick=2, channel=9, data=[36, 110]),
   midi.NoteOnEvent(tick=0, channel=9, data=[42, 110]),
   midi.NoteOnEvent(tick=94, channel=9, data=[36, 0]),
   midi.NoteOnEvent(tick=0, channel=9, data=[42, 0]),
   midi.NoteOnEvent(tick=2, channel=9, data=[38, 110]),
   midi.NoteOnEvent(tick=0, channel=9, data=[42, 110]),
   midi.NoteOnEvent(tick=94, channel=9, data=[38, 0]),
   midi.NoteOnEvent(tick=0, channel=9, data=[42, 0]),
   midi.NoteOnEvent(tick=2, channel=9, data=[36, 110]),
   midi.NoteOnEvent(tick=0, channel=9, data=[42, 110]),
   midi.NoteOnEvent(tick=94, channel=9, data=[36, 0]),
   midi.NoteOnEvent(tick=0, channel=9, data=[42, 0]),
   midi.NoteOnEvent(tick=2, channel=9, data=[38, 110]),
   midi.NoteOnEvent(tick=0, channel=9, data=[42, 110]),
   midi.NoteOnEvent(tick=94, channel=9, data=[38, 0]),
   midi.NoteOnEvent(tick=0, channel=9, data=[42, 0]),
   midi.NoteOnEvent(tick=2, channel=9, data=[36, 110]),
   midi.NoteOnEvent(tick=0, channel=9, data=[42, 110]),
   midi.NoteOnEvent(tick=0, channel=9, data=[49, 110]),
   midi.NoteOnEvent(tick=94, channel=9, data=[36, 0]),
   midi.NoteOnEvent(tick=0, channel=9, data=[42, 0]),
   midi.NoteOnEvent(tick=0, channel=9, data=[49, 0]),
   midi.NoteOnEvent(tick=2, channel=9, data=[38, 110]),
   midi.NoteOnEvent(tick=0, channel=9, data=[42, 110]),
   midi.NoteOnEvent(tick=94, channel=9, data=[38, 0]),
   midi.NoteOnEvent(tick=0, channel=9, data=[42, 0]),
   midi.NoteOnEvent(tick=2, channel=9, data=[36, 110]),
   midi.NoteOnEvent(tick=0, channel=9, data=[42, 110]),
   midi.NoteOnEvent(tick=94, channel=9, data=[36, 0]),
   midi.NoteOnEvent(tick=0, channel=9, data=[42, 0]),
   midi.NoteOnEvent(tick=2, channel=9, data=[38, 110]),
   midi.NoteOnEvent(tick=0, channel=9, data=[42, 110]),
   midi.NoteOnEvent(tick=94, channel=9, data=[38, 0]),
   midi.NoteOnEvent(tick=0, channel=9, data=[42, 0]),
   midi.NoteOnEvent(tick=2, channel=9, data=[36, 110]),
   midi.NoteOnEvent(tick=0, channel=9, data=[42, 110]),
   midi.NoteOnEvent(tick=94, channel=9, data=[36, 0]),
   midi.NoteOnEvent(tick=0, channel=9, data=[42, 0]),
   midi.NoteOnEvent(tick=2, channel=9, data=[38, 110]),
   midi.NoteOnEvent(tick=0, channel=9, data=[42, 110]),
   midi.NoteOnEvent(tick=94, channel=9, data=[38, 0]),
   midi.NoteOnEvent(tick=0, channel=9, data=[42, 0]),
   midi.NoteOnEvent(tick=2, channel=9, data=[36, 110]),
   midi.NoteOnEvent(tick=0, channel=9, data=[42, 110]),
   midi.NoteOnEvent(tick=0, channel=9, data=[49, 110]),
   midi.NoteOnEvent(tick=94, channel=9, data=[36, 0]),
   midi.NoteOnEvent(tick=0, channel=9, data=[42, 0]),
   midi.NoteOnEvent(tick=0, channel=9, data=[49, 0]),
   midi.NoteOnEvent(tick=2, channel=9, data=[38, 110]),
   midi.NoteOnEvent(tick=0, channel=9, data=[42, 110]),
   midi.NoteOnEvent(tick=94, channel=9, data=[38, 0]),
   midi.NoteOnEvent(tick=0, channel=9, data=[42, 0]),
   midi.NoteOnEvent(tick=2, channel=9, data=[36, 110]),
   midi.NoteOnEvent(tick=0, channel=9, data=[42, 110]),
   midi.NoteOnEvent(tick=94, channel=9, data=[36, 0]),
   midi.NoteOnEvent(tick=0, channel=9, data=[42, 0]),
   midi.NoteOnEvent(tick=2, channel=9, data=[38, 110]),
   midi.NoteOnEvent(tick=0, channel=9, data=[42, 110]),
   midi.NoteOnEvent(tick=94, channel=9, data=[38, 0]),
   midi.NoteOnEvent(tick=0, channel=9, data=[42, 0]),
   midi.NoteOnEvent(tick=2, channel=9, data=[36, 110]),
   midi.NoteOnEvent(tick=0, channel=9, data=[42, 110]),
   midi.NoteOnEvent(tick=94, channel=9, data=[36, 0]),
   midi.NoteOnEvent(tick=0, channel=9, data=[42, 0]),
   midi.NoteOnEvent(tick=2, channel=9, data=[38, 110]),
   midi.NoteOnEvent(tick=0, channel=9, data=[42, 110]),
   midi.NoteOnEvent(tick=94, channel=9, data=[38, 0]),
   midi.NoteOnEvent(tick=0, channel=9, data=[42, 0]),
   midi.NoteOnEvent(tick=2, channel=9, data=[36, 110]),
   midi.NoteOnEvent(tick=0, channel=9, data=[42, 110]),
   midi.NoteOnEvent(tick=94, channel=9, data=[36, 0]),
   midi.NoteOnEvent(tick=0, channel=9, data=[42, 0]),
   midi.NoteOnEvent(tick=2, channel=9, data=[38, 110]),
   midi.NoteOnEvent(tick=0, channel=9, data=[42, 110]),
   midi.NoteOnEvent(tick=94, channel=9, data=[38, 0]),
   midi.NoteOnEvent(tick=0, channel=9, data=[42, 0]),
   midi.NoteOnEvent(tick=2, channel=9, data=[36, 110]),
   midi.NoteOnEvent(tick=0, channel=9, data=[42, 110]),
   midi.NoteOnEvent(tick=0, channel=9, data=[49, 110]),
   midi.NoteOnEvent(tick=94, channel=9, data=[36, 0]),
   midi.NoteOnEvent(tick=0, channel=9, data=[42, 0]),
   midi.NoteOnEvent(tick=0, channel=9, data=[49, 0]),
   midi.NoteOnEvent(tick=2, channel=9, data=[38, 110]),
   midi.NoteOnEvent(tick=0, channel=9, data=[42, 110]),
   midi.NoteOnEvent(tick=94, channel=9, data=[38, 0]),
   midi.NoteOnEvent(tick=0, channel=9, data=[42, 0]),
   midi.NoteOnEvent(tick=2, channel=9, data=[36, 110]),
   midi.NoteOnEvent(tick=0, channel=9, data=[42, 110]),
   midi.NoteOnEvent(tick=94, channel=9, data=[36, 0]),
   midi.NoteOnEvent(tick=0, channel=9, data=[42, 0]),
   midi.NoteOnEvent(tick=2, channel=9, data=[38, 110]),
   midi.NoteOnEvent(tick=0, channel=9, data=[42, 110]),
   midi.NoteOnEvent(tick=94, channel=9, data=[38, 0]),
   midi.NoteOnEvent(tick=0, channel=9, data=[42, 0]),
   midi.NoteOnEvent(tick=2, channel=9, data=[36, 110]),
   midi.NoteOnEvent(tick=0, channel=9, data=[42, 110]),
   midi.NoteOnEvent(tick=94, channel=9, data=[36, 0]),
   midi.NoteOnEvent(tick=0, channel=9, data=[42, 0]),
   midi.NoteOnEvent(tick=2, channel=9, data=[38, 110]),
   midi.NoteOnEvent(tick=0, channel=9, data=[42, 110]),
   midi.NoteOnEvent(tick=94, channel=9, data=[38, 0]),
   midi.NoteOnEvent(tick=0, channel=9, data=[42, 0]),
   midi.NoteOnEvent(tick=2, channel=9, data=[36, 110]),
   midi.NoteOnEvent(tick=0, channel=9, data=[42, 110]),
   midi.NoteOnEvent(tick=94, channel=9, data=[36, 0]),
   midi.NoteOnEvent(tick=0, channel=9, data=[42, 0]),
   midi.NoteOnEvent(tick=2, channel=9, data=[38, 110]),
   midi.NoteOnEvent(tick=0, channel=9, data=[42, 110]),
   midi.NoteOnEvent(tick=94, channel=9, data=[38, 0]),
   midi.NoteOnEvent(tick=0, channel=9, data=[42, 0]),
   midi.NoteOnEvent(tick=2, channel=9, data=[36, 110]),
   midi.NoteOnEvent(tick=0, channel=9, data=[42, 110]),
   midi.NoteOnEvent(tick=0, channel=9, data=[49, 110]),
   midi.NoteOnEvent(tick=94, channel=9, data=[36, 0]),
   midi.NoteOnEvent(tick=0, channel=9, data=[42, 0]),
   midi.NoteOnEvent(tick=0, channel=9, data=[49, 0]),
   midi.NoteOnEvent(tick=2, channel=9, data=[38, 110]),
   midi.NoteOnEvent(tick=0, channel=9, data=[42, 110]),
   midi.NoteOnEvent(tick=94, channel=9, data=[38, 0]),
   midi.NoteOnEvent(tick=0, channel=9, data=[42, 0]),
   midi.NoteOnEvent(tick=2, channel=9, data=[36, 110]),
   midi.NoteOnEvent(tick=0, channel=9, data=[42, 110]),
   midi.NoteOnEvent(tick=94, channel=9, data=[36, 0]),
   midi.NoteOnEvent(tick=0, channel=9, data=[42, 0]),
   midi.NoteOnEvent(tick=2, channel=9, data=[38, 110]),
   midi.NoteOnEvent(tick=0, channel=9, data=[42, 110]),
   midi.NoteOnEvent(tick=94, channel=9, data=[38, 0]),
   midi.NoteOnEvent(tick=0, channel=9, data=[42, 0]),
   midi.NoteOnEvent(tick=2, channel=9, data=[36, 110]),
   midi.NoteOnEvent(tick=0, channel=9, data=[42, 110]),
   midi.NoteOnEvent(tick=94, channel=9, data=[36, 0]),
   midi.NoteOnEvent(tick=0, channel=9, data=[42, 0]),
   midi.NoteOnEvent(tick=2, channel=9, data=[38, 110]),
   midi.NoteOnEvent(tick=0, channel=9, data=[42, 110]),
   midi.NoteOnEvent(tick=94, channel=9, data=[38, 0]),
   midi.NoteOnEvent(tick=0, channel=9, data=[42, 0]),
   midi.NoteOnEvent(tick=2, channel=9, data=[36, 110]),
   midi.NoteOnEvent(tick=0, channel=9, data=[42, 110]),
   midi.NoteOnEvent(tick=0, channel=9, data=[49, 110]),
   midi.NoteOnEvent(tick=94, channel=9, data=[36, 0]),
   midi.NoteOnEvent(tick=0, channel=9, data=[42, 0]),
   midi.NoteOnEvent(tick=0, channel=9, data=[49, 0]),
   midi.NoteOnEvent(tick=2, channel=9, data=[38, 110]),
   midi.NoteOnEvent(tick=0, channel=9, data=[42, 110]),
   midi.NoteOnEvent(tick=94, channel=9, data=[38, 0]),
   midi.NoteOnEvent(tick=0, channel=9, data=[42, 0]),
   midi.NoteOnEvent(tick=2, channel=9, data=[36, 110]),
   midi.NoteOnEvent(tick=0, channel=9, data=[42, 110]),
   midi.NoteOnEvent(tick=94, channel=9, data=[36, 0]),
   midi.NoteOnEvent(tick=0, channel=9, data=[42, 0]),
   midi.NoteOnEvent(tick=2, channel=9, data=[38, 110]),
   midi.NoteOnEvent(tick=0, channel=9, data=[42, 110]),
   midi.NoteOnEvent(tick=94, channel=9, data=[38, 0]),
   midi.NoteOnEvent(tick=0, channel=9, data=[42, 0]),
   midi.NoteOnEvent(tick=2, channel=9, data=[36, 110]),
   midi.NoteOnEvent(tick=0, channel=9, data=[42, 110]),
   midi.NoteOnEvent(tick=94, channel=9, data=[36, 0]),
   midi.NoteOnEvent(tick=0, channel=9, data=[42, 0]),
   midi.NoteOnEvent(tick=2, channel=9, data=[38, 110]),
   midi.NoteOnEvent(tick=0, channel=9, data=[42, 110]),
   midi.NoteOnEvent(tick=94, channel=9, data=[38, 0]),
   midi.NoteOnEvent(tick=0, channel=9, data=[42, 0]),
   midi.NoteOnEvent(tick=2, channel=9, data=[36, 110]),
   midi.NoteOnEvent(tick=0, channel=9, data=[42, 110]),
   midi.NoteOnEvent(tick=0, channel=9, data=[49, 110]),
   midi.NoteOnEvent(tick=94, channel=9, data=[36, 0]),
   midi.NoteOnEvent(tick=0, channel=9, data=[42, 0]),
   midi.NoteOnEvent(tick=0, channel=9, data=[49, 0]),
   midi.NoteOnEvent(tick=2, channel=9, data=[38, 110]),
   midi.NoteOnEvent(tick=0, channel=9, data=[42, 110]),
   midi.NoteOnEvent(tick=94, channel=9, data=[38, 0]),
   midi.NoteOnEvent(tick=0, channel=9, data=[42, 0]),
   midi.NoteOnEvent(tick=2, channel=9, data=[36, 110]),
   midi.NoteOnEvent(tick=0, channel=9, data=[42, 110]),
   midi.NoteOnEvent(tick=94, channel=9, data=[36, 0]),
   midi.NoteOnEvent(tick=0, channel=9, data=[42, 0]),
   midi.NoteOnEvent(tick=2, channel=9, data=[38, 110]),
   midi.NoteOnEvent(tick=0, channel=9, data=[42, 110]),
   midi.NoteOnEvent(tick=94, channel=9, data=[38, 0]),
   midi.NoteOnEvent(tick=0, channel=9, data=[42, 0]),
   midi.NoteOnEvent(tick=2, channel=9, data=[36, 110]),
   midi.NoteOnEvent(tick=0, channel=9, data=[42, 110]),
   midi.NoteOnEvent(tick=94, channel=9, data=[36, 0]),
   midi.NoteOnEvent(tick=0, channel=9, data=[42, 0]),
   midi.NoteOnEvent(tick=2, channel=9, data=[38, 110]),
   midi.NoteOnEvent(tick=0, channel=9, data=[42, 110]),
   midi.NoteOnEvent(tick=94, channel=9, data=[38, 0]),
   midi.NoteOnEvent(tick=0, channel=9, data=[42, 0]),
   midi.NoteOnEvent(tick=2, channel=9, data=[36, 110]),
   midi.NoteOnEvent(tick=0, channel=9, data=[42, 110]),
   midi.NoteOnEvent(tick=94, channel=9, data=[36, 0]),
   midi.NoteOnEvent(tick=0, channel=9, data=[42, 0]),
   midi.NoteOnEvent(tick=2, channel=9, data=[38, 110]),
   midi.NoteOnEvent(tick=0, channel=9, data=[42, 110]),
   midi.NoteOnEvent(tick=94, channel=9, data=[38, 0]),
   midi.NoteOnEvent(tick=0, channel=9, data=[42, 0]),
   midi.NoteOnEvent(tick=2, channel=9, data=[36, 110]),
   midi.NoteOnEvent(tick=0, channel=9, data=[42, 110]),
   midi.NoteOnEvent(tick=0, channel=9, data=[49, 110]),
   midi.NoteOnEvent(tick=94, channel=9, data=[36, 0]),
   midi.NoteOnEvent(tick=0, channel=9, data=[42, 0]),
   midi.NoteOnEvent(tick=0, channel=9, data=[49, 0]),
   midi.NoteOnEvent(tick=2, channel=9, data=[38, 110]),
   midi.NoteOnEvent(tick=0, channel=9, data=[42, 110]),
   midi.NoteOnEvent(tick=94, channel=9, data=[38, 0]),
   midi.NoteOnEvent(tick=0, channel=9, data=[42, 0]),
   midi.NoteOnEvent(tick=2, channel=9, data=[36, 110]),
   midi.NoteOnEvent(tick=0, channel=9, data=[42, 110]),
   midi.NoteOnEvent(tick=94, channel=9, data=[36, 0]),
   midi.NoteOnEvent(tick=0, channel=9, data=[42, 0]),
   midi.NoteOnEvent(tick=2, channel=9, data=[38, 110]),
   midi.NoteOnEvent(tick=0, channel=9, data=[42, 110]),
   midi.NoteOnEvent(tick=94, channel=9, data=[38, 0]),
   midi.NoteOnEvent(tick=0, channel=9, data=[42, 0]),
   midi.NoteOnEvent(tick=2, channel=9, data=[36, 110]),
   midi.NoteOnEvent(tick=0, channel=9, data=[42, 110]),
   midi.NoteOnEvent(tick=94, channel=9, data=[36, 0]),
   midi.NoteOnEvent(tick=0, channel=9, data=[42, 0]),
   midi.NoteOnEvent(tick=2, channel=9, data=[38, 110]),
   midi.NoteOnEvent(tick=0, channel=9, data=[42, 110]),
   midi.NoteOnEvent(tick=94, channel=9, data=[38, 0]),
   midi.NoteOnEvent(tick=0, channel=9, data=[42, 0]),
   midi.NoteOnEvent(tick=2, channel=9, data=[36, 110]),
   midi.NoteOnEvent(tick=0, channel=9, data=[42, 110]),
   midi.NoteOnEvent(tick=94, channel=9, data=[36, 0]),
   midi.NoteOnEvent(tick=0, channel=9, data=[42, 0]),
   midi.NoteOnEvent(tick=2, channel=9, data=[38, 110]),
   midi.NoteOnEvent(tick=0, channel=9, data=[42, 110]),
   midi.NoteOnEvent(tick=94, channel=9, data=[38, 0]),
   midi.NoteOnEvent(tick=0, channel=9, data=[42, 0]),
   midi.NoteOnEvent(tick=2, channel=9, data=[36, 110]),
   midi.NoteOnEvent(tick=0, channel=9, data=[42, 110]),
   midi.NoteOnEvent(tick=0, channel=9, data=[49, 110]),
   midi.NoteOnEvent(tick=94, channel=9, data=[36, 0]),
   midi.NoteOnEvent(tick=0, channel=9, data=[42, 0]),
   midi.NoteOnEvent(tick=0, channel=9, data=[49, 0]),
   midi.NoteOnEvent(tick=2, channel=9, data=[38, 110]),
   midi.NoteOnEvent(tick=0, channel=9, data=[42, 110]),
   midi.NoteOnEvent(tick=94, channel=9, data=[38, 0]),
   midi.NoteOnEvent(tick=0, channel=9, data=[42, 0]),
   midi.NoteOnEvent(tick=2, channel=9, data=[36, 110]),
   midi.NoteOnEvent(tick=0, channel=9, data=[42, 110]),
   midi.NoteOnEvent(tick=94, channel=9, data=[36, 0]),
   midi.NoteOnEvent(tick=0, channel=9, data=[42, 0]),
   midi.NoteOnEvent(tick=2, channel=9, data=[38, 110]),
   midi.NoteOnEvent(tick=0, channel=9, data=[42, 110]),
   midi.NoteOnEvent(tick=94, channel=9, data=[38, 0]),
   midi.NoteOnEvent(tick=0, channel=9, data=[42, 0]),
   midi.NoteOnEvent(tick=2, channel=9, data=[36, 110]),
   midi.NoteOnEvent(tick=0, channel=9, data=[42, 110]),
   midi.NoteOnEvent(tick=94, channel=9, data=[36, 0]),
   midi.NoteOnEvent(tick=0, channel=9, data=[42, 0]),
   midi.NoteOnEvent(tick=2, channel=9, data=[38, 110]),
   midi.NoteOnEvent(tick=0, channel=9, data=[42, 110]),
   midi.NoteOnEvent(tick=94, channel=9, data=[38, 0]),
   midi.NoteOnEvent(tick=0, channel=9, data=[42, 0]),
   midi.NoteOnEvent(tick=2, channel=9, data=[36, 110]),
   midi.NoteOnEvent(tick=0, channel=9, data=[42, 110]),
   midi.NoteOnEvent(tick=0, channel=9, data=[49, 110]),
   midi.NoteOnEvent(tick=94, channel=9, data=[36, 0]),
   midi.NoteOnEvent(tick=0, channel=9, data=[42, 0]),
   midi.NoteOnEvent(tick=0, channel=9, data=[49, 0]),
   midi.NoteOnEvent(tick=2, channel=9, data=[38, 110]),
   midi.NoteOnEvent(tick=0, channel=9, data=[42, 110]),
   midi.NoteOnEvent(tick=94, channel=9, data=[38, 0]),
   midi.NoteOnEvent(tick=0, channel=9, data=[42, 0]),
   midi.NoteOnEvent(tick=2, channel=9, data=[36, 110]),
   midi.NoteOnEvent(tick=0, channel=9, data=[42, 110]),
   midi.NoteOnEvent(tick=94, channel=9, data=[36, 0]),
   midi.NoteOnEvent(tick=0, channel=9, data=[42, 0]),
   midi.NoteOnEvent(tick=2, channel=9, data=[38, 110]),
   midi.NoteOnEvent(tick=0, channel=9, data=[42, 110]),
   midi.NoteOnEvent(tick=94, channel=9, data=[38, 0]),
   midi.NoteOnEvent(tick=0, channel=9, data=[42, 0]),
   midi.NoteOnEvent(tick=2, channel=9, data=[36, 110]),
   midi.NoteOnEvent(tick=0, channel=9, data=[42, 110]),
   midi.NoteOnEvent(tick=94, channel=9, data=[36, 0]),
   midi.NoteOnEvent(tick=0, channel=9, data=[42, 0]),
   midi.NoteOnEvent(tick=2, channel=9, data=[38, 110]),
   midi.NoteOnEvent(tick=0, channel=9, data=[42, 110]),
   midi.NoteOnEvent(tick=94, channel=9, data=[38, 0]),
   midi.NoteOnEvent(tick=0, channel=9, data=[42, 0]),
   midi.NoteOnEvent(tick=2, channel=9, data=[36, 110]),
   midi.NoteOnEvent(tick=0, channel=9, data=[42, 110]),
   midi.NoteOnEvent(tick=0, channel=9, data=[49, 110]),
   midi.NoteOnEvent(tick=94, channel=9, data=[36, 0]),
   midi.NoteOnEvent(tick=0, channel=9, data=[42, 0]),
   midi.NoteOnEvent(tick=0, channel=9, data=[49, 0]),
   midi.NoteOnEvent(tick=2, channel=9, data=[38, 110]),
   midi.NoteOnEvent(tick=0, channel=9, data=[42, 110]),
   midi.NoteOnEvent(tick=94, channel=9, data=[38, 0]),
   midi.NoteOnEvent(tick=0, channel=9, data=[42, 0]),
   midi.NoteOnEvent(tick=2, channel=9, data=[36, 110]),
   midi.NoteOnEvent(tick=0, channel=9, data=[42, 110]),
   midi.NoteOnEvent(tick=94, channel=9, data=[36, 0]),
   midi.NoteOnEvent(tick=0, channel=9, data=[42, 0]),
   midi.NoteOnEvent(tick=2, channel=9, data=[38, 110]),
   midi.NoteOnEvent(tick=0, channel=9, data=[42, 110]),
   midi.NoteOnEvent(tick=94, channel=9, data=[38, 0]),
   midi.NoteOnEvent(tick=0, channel=9, data=[42, 0]),
   midi.NoteOnEvent(tick=2, channel=9, data=[36, 110]),
   midi.NoteOnEvent(tick=0, channel=9, data=[42, 110]),
   midi.NoteOnEvent(tick=94, channel=9, data=[36, 0]),
   midi.NoteOnEvent(tick=0, channel=9, data=[42, 0]),
   midi.NoteOnEvent(tick=2, channel=9, data=[38, 110]),
   midi.NoteOnEvent(tick=0, channel=9, data=[42, 110]),
   midi.NoteOnEvent(tick=94, channel=9, data=[38, 0]),
   midi.NoteOnEvent(tick=0, channel=9, data=[42, 0]),
   midi.NoteOnEvent(tick=2, channel=9, data=[36, 110]),
   midi.NoteOnEvent(tick=0, channel=9, data=[42, 110]),
   midi.NoteOnEvent(tick=94, channel=9, data=[36, 0]),
   midi.NoteOnEvent(tick=0, channel=9, data=[42, 0]),
   midi.NoteOnEvent(tick=2, channel=9, data=[38, 110]),
   midi.NoteOnEvent(tick=0, channel=9, data=[42, 110]),
   midi.NoteOnEvent(tick=94, channel=9, data=[38, 0]),
   midi.NoteOnEvent(tick=0, channel=9, data=[42, 0]),
   midi.NoteOnEvent(tick=2, channel=9, data=[36, 110]),
   midi.NoteOnEvent(tick=0, channel=9, data=[42, 110]),
   midi.NoteOnEvent(tick=0, channel=9, data=[49, 110]),
   midi.NoteOnEvent(tick=94, channel=9, data=[36, 0]),
   midi.NoteOnEvent(tick=0, channel=9, data=[42, 0]),
   midi.NoteOnEvent(tick=0, channel=9, data=[49, 0]),
   midi.NoteOnEvent(tick=2, channel=9, data=[38, 110]),
   midi.NoteOnEvent(tick=0, channel=9, data=[42, 110]),
   midi.NoteOnEvent(tick=94, channel=9, data=[38, 0]),
   midi.NoteOnEvent(tick=0, channel=9, data=[42, 0]),
   midi.NoteOnEvent(tick=2, channel=9, data=[36, 110]),
   midi.NoteOnEvent(tick=0, channel=9, data=[42, 110]),
   midi.NoteOnEvent(tick=94, channel=9, data=[36, 0]),
   midi.NoteOnEvent(tick=0, channel=9, data=[42, 0]),
   midi.NoteOnEvent(tick=2, channel=9, data=[38, 110]),
   midi.NoteOnEvent(tick=0, channel=9, data=[42, 110]),
   midi.NoteOnEvent(tick=94, channel=9, data=[38, 0]),
   midi.NoteOnEvent(tick=0, channel=9, data=[42, 0]),
   midi.NoteOnEvent(tick=2, channel=9, data=[36, 110]),
   midi.NoteOnEvent(tick=0, channel=9, data=[42, 110]),
   midi.NoteOnEvent(tick=94, channel=9, data=[36, 0]),
   midi.NoteOnEvent(tick=0, channel=9, data=[42, 0]),
   midi.NoteOnEvent(tick=2, channel=9, data=[38, 110]),
   midi.NoteOnEvent(tick=0, channel=9, data=[42, 110]),
   midi.NoteOnEvent(tick=94, channel=9, data=[38, 0]),
   midi.NoteOnEvent(tick=0, channel=9, data=[42, 0]),
   midi.NoteOnEvent(tick=2, channel=9, data=[36, 110]),
   midi.NoteOnEvent(tick=0, channel=9, data=[42, 110]),
   midi.NoteOnEvent(tick=94, channel=9, data=[36, 0]),
   midi.NoteOnEvent(tick=0, channel=9, data=[42, 0]),
   midi.NoteOnEvent(tick=2, channel=9, data=[38, 110]),
   midi.NoteOnEvent(tick=0, channel=9, data=[42, 110]),
   midi.NoteOnEvent(tick=94, channel=9, data=[38, 0]),
   midi.NoteOnEvent(tick=0, channel=9, data=[42, 0]),
   midi.NoteOnEvent(tick=2, channel=9, data=[36, 110]),
   midi.NoteOnEvent(tick=0, channel=9, data=[42, 110]),
   midi.NoteOnEvent(tick=0, channel=9, data=[49, 110]),
   midi.NoteOnEvent(tick=94, channel=9, data=[36, 0]),
   midi.NoteOnEvent(tick=0, channel=9, data=[42, 0]),
   midi.NoteOnEvent(tick=0, channel=9, data=[49, 0]),
   midi.NoteOnEvent(tick=2, channel=9, data=[38, 110]),
   midi.NoteOnEvent(tick=0, channel=9, data=[42, 110]),
   midi.NoteOnEvent(tick=94, channel=9, data=[38, 0]),
   midi.NoteOnEvent(tick=0, channel=9, data=[42, 0]),
   midi.NoteOnEvent(tick=2, channel=9, data=[36, 110]),
   midi.NoteOnEvent(tick=0, channel=9, data=[42, 110]),
   midi.NoteOnEvent(tick=94, channel=9, data=[36, 0]),
   midi.NoteOnEvent(tick=0, channel=9, data=[42, 0]),
   midi.NoteOnEvent(tick=2, channel=9, data=[38, 110]),
   midi.NoteOnEvent(tick=0, channel=9, data=[42, 110]),
   midi.NoteOnEvent(tick=94, channel=9, data=[38, 0]),
   midi.NoteOnEvent(tick=0, channel=9, data=[42, 0]),
   midi.NoteOnEvent(tick=2, channel=9, data=[36, 110]),
   midi.NoteOnEvent(tick=0, channel=9, data=[42, 110]),
   midi.NoteOnEvent(tick=94, channel=9, data=[36, 0]),
   midi.NoteOnEvent(tick=0, channel=9, data=[42, 0]),
   midi.NoteOnEvent(tick=2, channel=9, data=[38, 110]),
   midi.NoteOnEvent(tick=0, channel=9, data=[42, 110]),
   midi.NoteOnEvent(tick=94, channel=9, data=[38, 0]),
   midi.NoteOnEvent(tick=0, channel=9, data=[42, 0]),
   midi.NoteOnEvent(tick=2, channel=9, data=[36, 110]),
   midi.NoteOnEvent(tick=0, channel=9, data=[42, 110]),
   midi.NoteOnEvent(tick=0, channel=9, data=[49, 110]),
   midi.NoteOnEvent(tick=94, channel=9, data=[36, 0]),
   midi.NoteOnEvent(tick=0, channel=9, data=[42, 0]),
   midi.NoteOnEvent(tick=0, channel=9, data=[49, 0]),
   midi.NoteOnEvent(tick=2, channel=9, data=[38, 110]),
   midi.NoteOnEvent(tick=0, channel=9, data=[42, 110]),
   midi.NoteOnEvent(tick=94, channel=9, data=[38, 0]),
   midi.NoteOnEvent(tick=0, channel=9, data=[42, 0]),
   midi.NoteOnEvent(tick=2, channel=9, data=[36, 110]),
   midi.NoteOnEvent(tick=0, channel=9, data=[42, 110]),
   midi.NoteOnEvent(tick=94, channel=9, data=[36, 0]),
   midi.NoteOnEvent(tick=0, channel=9, data=[42, 0]),
   midi.NoteOnEvent(tick=2, channel=9, data=[38, 110]),
   midi.NoteOnEvent(tick=0, channel=9, data=[42, 110]),
   midi.NoteOnEvent(tick=94, channel=9, data=[38, 0]),
   midi.NoteOnEvent(tick=0, channel=9, data=[42, 0]),
   midi.NoteOnEvent(tick=2, channel=9, data=[36, 110]),
   midi.NoteOnEvent(tick=0, channel=9, data=[42, 110]),
   midi.NoteOnEvent(tick=94, channel=9, data=[36, 0]),
   midi.NoteOnEvent(tick=0, channel=9, data=[42, 0]),
   midi.NoteOnEvent(tick=2, channel=9, data=[38, 110]),
   midi.NoteOnEvent(tick=0, channel=9, data=[42, 110]),
   midi.NoteOnEvent(tick=94, channel=9, data=[38, 0]),
   midi.NoteOnEvent(tick=0, channel=9, data=[42, 0]),
   midi.NoteOnEvent(tick=2, channel=9, data=[36, 110]),
   midi.NoteOnEvent(tick=0, channel=9, data=[42, 110]),
   midi.NoteOnEvent(tick=0, channel=9, data=[49, 110]),
   midi.NoteOnEvent(tick=94, channel=9, data=[36, 0]),
   midi.NoteOnEvent(tick=0, channel=9, data=[42, 0]),
   midi.NoteOnEvent(tick=0, channel=9, data=[49, 0]),
   midi.NoteOnEvent(tick=2, channel=9, data=[38, 110]),
   midi.NoteOnEvent(tick=0, channel=9, data=[42, 110]),
   midi.NoteOnEvent(tick=94, channel=9, data=[38, 0]),
   midi.NoteOnEvent(tick=0, channel=9, data=[42, 0]),
   midi.NoteOnEvent(tick=2, channel=9, data=[36, 110]),
   midi.NoteOnEvent(tick=0, channel=9, data=[42, 110]),
   midi.NoteOnEvent(tick=94, channel=9, data=[36, 0]),
   midi.NoteOnEvent(tick=0, channel=9, data=[42, 0]),
   midi.NoteOnEvent(tick=2, channel=9, data=[38, 110]),
   midi.NoteOnEvent(tick=0, channel=9, data=[42, 110]),
   midi.NoteOnEvent(tick=94, channel=9, data=[38, 0]),
   midi.NoteOnEvent(tick=0, channel=9, data=[42, 0]),
   midi.NoteOnEvent(tick=2, channel=9, data=[36, 110]),
   midi.NoteOnEvent(tick=0, channel=9, data=[42, 110]),
   midi.NoteOnEvent(tick=94, channel=9, data=[36, 0]),
   midi.NoteOnEvent(tick=0, channel=9, data=[42, 0]),
   midi.NoteOnEvent(tick=2, channel=9, data=[38, 110]),
   midi.NoteOnEvent(tick=0, channel=9, data=[42, 110]),
   midi.NoteOnEvent(tick=94, channel=9, data=[38, 0]),
   midi.NoteOnEvent(tick=0, channel=9, data=[42, 0]),
   midi.NoteOnEvent(tick=2, channel=9, data=[36, 110]),
   midi.NoteOnEvent(tick=0, channel=9, data=[42, 110]),
   midi.NoteOnEvent(tick=94, channel=9, data=[36, 0]),
   midi.NoteOnEvent(tick=0, channel=9, data=[42, 0]),
   midi.NoteOnEvent(tick=2, channel=9, data=[38, 110]),
   midi.NoteOnEvent(tick=0, channel=9, data=[42, 110]),
   midi.NoteOnEvent(tick=94, channel=9, data=[38, 0]),
   midi.NoteOnEvent(tick=0, channel=9, data=[42, 0]),
   midi.NoteOnEvent(tick=2, channel=9, data=[36, 110]),
   midi.NoteOnEvent(tick=0, channel=9, data=[42, 110]),
   midi.NoteOnEvent(tick=0, channel=9, data=[49, 110]),
   midi.NoteOnEvent(tick=94, channel=9, data=[36, 0]),
   midi.NoteOnEvent(tick=0, channel=9, data=[42, 0]),
   midi.NoteOnEvent(tick=0, channel=9, data=[49, 0]),
   midi.NoteOnEvent(tick=2, channel=9, data=[38, 110]),
   midi.NoteOnEvent(tick=0, channel=9, data=[42, 110]),
   midi.NoteOnEvent(tick=94, channel=9, data=[38, 0]),
   midi.NoteOnEvent(tick=0, channel=9, data=[42, 0]),
   midi.NoteOnEvent(tick=2, channel=9, data=[36, 110]),
   midi.NoteOnEvent(tick=0, channel=9, data=[42, 110]),
   midi.NoteOnEvent(tick=94, channel=9, data=[36, 0]),
   midi.NoteOnEvent(tick=0, channel=9, data=[42, 0]),
   midi.NoteOnEvent(tick=2, channel=9, data=[38, 110]),
   midi.NoteOnEvent(tick=0, channel=9, data=[42, 110]),
   midi.NoteOnEvent(tick=94, channel=9, data=[38, 0]),
   midi.NoteOnEvent(tick=0, channel=9, data=[42, 0]),
   midi.NoteOnEvent(tick=2, channel=9, data=[36, 110]),
   midi.NoteOnEvent(tick=0, channel=9, data=[42, 110]),
   midi.NoteOnEvent(tick=94, channel=9, data=[36, 0]),
   midi.NoteOnEvent(tick=0, channel=9, data=[42, 0]),
   midi.NoteOnEvent(tick=2, channel=9, data=[38, 110]),
   midi.NoteOnEvent(tick=0, channel=9, data=[42, 110]),
   midi.NoteOnEvent(tick=94, channel=9, data=[38, 0]),
   midi.NoteOnEvent(tick=0, channel=9, data=[42, 0]),
   midi.NoteOnEvent(tick=2, channel=9, data=[36, 110]),
   midi.NoteOnEvent(tick=0, channel=9, data=[42, 110]),
   midi.NoteOnEvent(tick=94, channel=9, data=[36, 0]),
   midi.NoteOnEvent(tick=0, channel=9, data=[42, 0]),
   midi.NoteOnEvent(tick=2, channel=9, data=[38, 110]),
   midi.NoteOnEvent(tick=0, channel=9, data=[42, 110]),
   midi.NoteOnEvent(tick=94, channel=9, data=[38, 0]),
   midi.NoteOnEvent(tick=0, channel=9, data=[42, 0]),
   midi.NoteOnEvent(tick=2, channel=9, data=[36, 110]),
   midi.NoteOnEvent(tick=0, channel=9, data=[42, 110]),
   midi.NoteOnEvent(tick=0, channel=9, data=[49, 110]),
   midi.NoteOnEvent(tick=94, channel=9, data=[36, 0]),
   midi.NoteOnEvent(tick=0, channel=9, data=[42, 0]),
   midi.NoteOnEvent(tick=0, channel=9, data=[49, 0]),
   midi.NoteOnEvent(tick=2, channel=9, data=[38, 110]),
   midi.NoteOnEvent(tick=0, channel=9, data=[42, 110]),
   midi.NoteOnEvent(tick=94, channel=9, data=[38, 0]),
   midi.NoteOnEvent(tick=0, channel=9, data=[42, 0]),
   midi.NoteOnEvent(tick=2, channel=9, data=[36, 110]),
   midi.NoteOnEvent(tick=0, channel=9, data=[42, 110]),
   midi.NoteOnEvent(tick=94, channel=9, data=[36, 0]),
   midi.NoteOnEvent(tick=0, channel=9, data=[42, 0]),
   midi.NoteOnEvent(tick=2, channel=9, data=[38, 110]),
   midi.NoteOnEvent(tick=0, channel=9, data=[42, 110]),
   midi.NoteOnEvent(tick=94, channel=9, data=[38, 0]),
   midi.NoteOnEvent(tick=0, channel=9, data=[42, 0]),
   midi.NoteOnEvent(tick=2, channel=9, data=[36, 110]),
   midi.NoteOnEvent(tick=0, channel=9, data=[42, 110]),
   midi.NoteOnEvent(tick=94, channel=9, data=[36, 0]),
   midi.NoteOnEvent(tick=0, channel=9, data=[42, 0]),
   midi.NoteOnEvent(tick=2, channel=9, data=[38, 110]),
   midi.NoteOnEvent(tick=0, channel=9, data=[42, 110]),
   midi.NoteOnEvent(tick=94, channel=9, data=[38, 0]),
   midi.NoteOnEvent(tick=0, channel=9, data=[42, 0]),
   midi.NoteOnEvent(tick=2, channel=9, data=[36, 110]),
   midi.NoteOnEvent(tick=0, channel=9, data=[42, 110]),
   midi.NoteOnEvent(tick=0, channel=9, data=[49, 110]),
   midi.NoteOnEvent(tick=94, channel=9, data=[36, 0]),
   midi.NoteOnEvent(tick=0, channel=9, data=[42, 0]),
   midi.NoteOnEvent(tick=0, channel=9, data=[49, 0]),
   midi.NoteOnEvent(tick=2, channel=9, data=[38, 110]),
   midi.NoteOnEvent(tick=0, channel=9, data=[42, 110]),
   midi.NoteOnEvent(tick=94, channel=9, data=[38, 0]),
   midi.NoteOnEvent(tick=0, channel=9, data=[42, 0]),
   midi.NoteOnEvent(tick=2, channel=9, data=[36, 110]),
   midi.NoteOnEvent(tick=0, channel=9, data=[42, 110]),
   midi.NoteOnEvent(tick=94, channel=9, data=[36, 0]),
   midi.NoteOnEvent(tick=0, channel=9, data=[42, 0]),
   midi.NoteOnEvent(tick=2, channel=9, data=[38, 110]),
   midi.NoteOnEvent(tick=0, channel=9, data=[42, 110]),
   midi.NoteOnEvent(tick=94, channel=9, data=[38, 0]),
   midi.NoteOnEvent(tick=0, channel=9, data=[42, 0]),
   midi.NoteOnEvent(tick=2, channel=9, data=[36, 110]),
   midi.NoteOnEvent(tick=0, channel=9, data=[42, 110]),
   midi.NoteOnEvent(tick=94, channel=9, data=[36, 0]),
   midi.NoteOnEvent(tick=0, channel=9, data=[42, 0]),
   midi.NoteOnEvent(tick=2, channel=9, data=[38, 110]),
   midi.NoteOnEvent(tick=0, channel=9, data=[42, 110]),
   midi.NoteOnEvent(tick=94, channel=9, data=[38, 0]),
   midi.NoteOnEvent(tick=0, channel=9, data=[42, 0]),
   midi.NoteOnEvent(tick=2, channel=9, data=[36, 110]),
   midi.NoteOnEvent(tick=0, channel=9, data=[38, 110]),
   midi.NoteOnEvent(tick=0, channel=9, data=[42, 110]),
   midi.NoteOnEvent(tick=0, channel=9, data=[49, 110]),
   midi.NoteOnEvent(tick=126, channel=9, data=[36, 0]),
   midi.NoteOnEvent(tick=0, channel=9, data=[38, 0]),
   midi.NoteOnEvent(tick=0, channel=9, data=[42, 0]),
   midi.NoteOnEvent(tick=0, channel=9, data=[49, 0]),
   midi.NoteOnEvent(tick=2, channel=9, data=[36, 110]),
   midi.NoteOnEvent(tick=0, channel=9, data=[38, 110]),
   midi.NoteOnEvent(tick=0, channel=9, data=[42, 110]),
   midi.NoteOnEvent(tick=0, channel=9, data=[49, 110]),
   midi.NoteOnEvent(tick=126, channel=9, data=[36, 0]),
   midi.NoteOnEvent(tick=0, channel=9, data=[38, 0]),
   midi.NoteOnEvent(tick=0, channel=9, data=[42, 0]),
   midi.NoteOnEvent(tick=0, channel=9, data=[49, 0]),
   midi.NoteOnEvent(tick=2, channel=9, data=[36, 110]),
   midi.NoteOnEvent(tick=0, channel=9, data=[38, 110]),
   midi.NoteOnEvent(tick=0, channel=9, data=[42, 110]),
   midi.NoteOnEvent(tick=0, channel=9, data=[49, 110]),
   midi.NoteOnEvent(tick=126, channel=9, data=[36, 0]),
   midi.NoteOnEvent(tick=0, channel=9, data=[38, 0]),
   midi.NoteOnEvent(tick=0, channel=9, data=[42, 0]),
   midi.NoteOnEvent(tick=0, channel=9, data=[49, 0]),
   midi.NoteOnEvent(tick=2, channel=9, data=[36, 110]),
   midi.NoteOnEvent(tick=0, channel=9, data=[38, 110]),
   midi.NoteOnEvent(tick=0, channel=9, data=[42, 110]),
   midi.NoteOnEvent(tick=0, channel=9, data=[49, 110]),
   midi.NoteOnEvent(tick=160, channel=9, data=[36, 0]),
   midi.NoteOnEvent(tick=0, channel=9, data=[38, 0]),
   midi.NoteOnEvent(tick=0, channel=9, data=[42, 0]),
   midi.NoteOnEvent(tick=0, channel=9, data=[49, 0]),
   midi.NoteOnEvent(tick=32, channel=9, data=[36, 110]),
   midi.NoteOnEvent(tick=0, channel=9, data=[38, 110]),
   midi.NoteOnEvent(tick=0, channel=9, data=[42, 110]),
   midi.NoteOnEvent(tick=0, channel=9, data=[49, 110]),
   midi.NoteOnEvent(tick=160, channel=9, data=[36, 0]),
   midi.NoteOnEvent(tick=0, channel=9, data=[38, 0]),
   midi.NoteOnEvent(tick=0, channel=9, data=[42, 0]),
   midi.NoteOnEvent(tick=0, channel=9, data=[49, 0]),
   midi.NoteOnEvent(tick=32, channel=9, data=[36, 110]),
   midi.NoteOnEvent(tick=0, channel=9, data=[38, 110]),
   midi.NoteOnEvent(tick=94, channel=9, data=[36, 0]),
   midi.NoteOnEvent(tick=0, channel=9, data=[38, 0]),
   midi.NoteOnEvent(tick=2, channel=9, data=[38, 110]),
   midi.NoteOnEvent(tick=46, channel=9, data=[38, 0]),
   midi.NoteOnEvent(tick=2, channel=9, data=[38, 110]),
   midi.NoteOnEvent(tick=46, channel=9, data=[38, 0]),
   midi.NoteOnEvent(tick=2, channel=9, data=[36, 110]),
   midi.NoteOnEvent(tick=0, channel=9, data=[38, 110]),
   midi.NoteOnEvent(tick=94, channel=9, data=[36, 0]),
   midi.NoteOnEvent(tick=0, channel=9, data=[38, 0]),
   midi.NoteOnEvent(tick=2, channel=9, data=[38, 110]),
   midi.NoteOnEvent(tick=94, channel=9, data=[38, 0]),
   midi.NoteOnEvent(tick=2, channel=9, data=[36, 110]),
   midi.NoteOnEvent(tick=0, channel=9, data=[38, 110]),
   midi.NoteOnEvent(tick=94, channel=9, data=[36, 0]),
   midi.NoteOnEvent(tick=0, channel=9, data=[38, 0]),
   midi.NoteOnEvent(tick=2, channel=9, data=[38, 110]),
   midi.NoteOnEvent(tick=94, channel=9, data=[38, 0]),
   midi.NoteOnEvent(tick=2, channel=9, data=[36, 110]),
   midi.NoteOnEvent(tick=0, channel=9, data=[38, 110]),
   midi.NoteOnEvent(tick=94, channel=9, data=[36, 0]),
   midi.NoteOnEvent(tick=0, channel=9, data=[38, 0]),
   midi.NoteOnEvent(tick=2, channel=9, data=[36, 110]),
   midi.NoteOnEvent(tick=0, channel=9, data=[38, 110]),
   midi.NoteOnEvent(tick=0, channel=9, data=[49, 110]),
   midi.NoteOnEvent(tick=94, channel=9, data=[36, 0]),
   midi.NoteOnEvent(tick=0, channel=9, data=[38, 0]),
   midi.NoteOnEvent(tick=0, channel=9, data=[49, 0]),
   midi.NoteOnEvent(tick=2, channel=9, data=[42, 110]),
   midi.NoteOnEvent(tick=94, channel=9, data=[42, 0]),
   midi.NoteOnEvent(tick=2, channel=9, data=[36, 110]),
   midi.NoteOnEvent(tick=0, channel=9, data=[42, 110]),
   midi.NoteOnEvent(tick=94, channel=9, data=[36, 0]),
   midi.NoteOnEvent(tick=0, channel=9, data=[42, 0]),
   midi.NoteOnEvent(tick=2, channel=9, data=[38, 110]),
   midi.NoteOnEvent(tick=0, channel=9, data=[42, 110]),
   midi.NoteOnEvent(tick=94, channel=9, data=[38, 0]),
   midi.NoteOnEvent(tick=0, channel=9, data=[42, 0]),
   midi.NoteOnEvent(tick=2, channel=9, data=[42, 110]),
   midi.NoteOnEvent(tick=94, channel=9, data=[42, 0]),
   midi.NoteOnEvent(tick=2, channel=9, data=[36, 110]),
   midi.NoteOnEvent(tick=0, channel=9, data=[42, 110]),
   midi.NoteOnEvent(tick=94, channel=9, data=[36, 0]),
   midi.NoteOnEvent(tick=0, channel=9, data=[42, 0]),
   midi.NoteOnEvent(tick=2, channel=9, data=[42, 110]),
   midi.NoteOnEvent(tick=94, channel=9, data=[42, 0]),
   midi.NoteOnEvent(tick=2, channel=9, data=[38, 110]),
   midi.NoteOnEvent(tick=0, channel=9, data=[42, 110]),
   midi.NoteOnEvent(tick=94, channel=9, data=[38, 0]),
   midi.NoteOnEvent(tick=0, channel=9, data=[42, 0]),
   midi.NoteOnEvent(tick=2, channel=9, data=[42, 110]),
   midi.NoteOnEvent(tick=94, channel=9, data=[42, 0]),
   midi.NoteOnEvent(tick=2, channel=9, data=[42, 110]),
   midi.NoteOnEvent(tick=94, channel=9, data=[42, 0]),
   midi.NoteOnEvent(tick=2, channel=9, data=[36, 110]),
   midi.NoteOnEvent(tick=0, channel=9, data=[42, 110]),
   midi.NoteOnEvent(tick=94, channel=9, data=[36, 0]),
   midi.NoteOnEvent(tick=0, channel=9, data=[42, 0]),
   midi.NoteOnEvent(tick=2, channel=9, data=[38, 110]),
   midi.NoteOnEvent(tick=0, channel=9, data=[42, 110]),
   midi.NoteOnEvent(tick=94, channel=9, data=[38, 0]),
   midi.NoteOnEvent(tick=0, channel=9, data=[42, 0]),
   midi.NoteOnEvent(tick=2, channel=9, data=[42, 110]),
   midi.NoteOnEvent(tick=94, channel=9, data=[42, 0]),
   midi.NoteOnEvent(tick=2, channel=9, data=[36, 110]),
   midi.NoteOnEvent(tick=0, channel=9, data=[42, 110]),
   midi.NoteOnEvent(tick=94, channel=9, data=[36, 0]),
   midi.NoteOnEvent(tick=0, channel=9, data=[42, 0]),
   midi.NoteOnEvent(tick=2, channel=9, data=[42, 110]),
   midi.NoteOnEvent(tick=94, channel=9, data=[42, 0]),
   midi.NoteOnEvent(tick=2, channel=9, data=[38, 110]),
   midi.NoteOnEvent(tick=0, channel=9, data=[42, 110]),
   midi.NoteOnEvent(tick=94, channel=9, data=[38, 0]),
   midi.NoteOnEvent(tick=0, channel=9, data=[42, 0]),
   midi.NoteOnEvent(tick=2, channel=9, data=[42, 110]),
   midi.NoteOnEvent(tick=94, channel=9, data=[42, 0]),
   midi.NoteOnEvent(tick=2, channel=9, data=[42, 110]),
   midi.NoteOnEvent(tick=94, channel=9, data=[42, 0]),
   midi.NoteOnEvent(tick=2, channel=9, data=[36, 110]),
   midi.NoteOnEvent(tick=0, channel=9, data=[42, 110]),
   midi.NoteOnEvent(tick=94, channel=9, data=[36, 0]),
   midi.NoteOnEvent(tick=0, channel=9, data=[42, 0]),
   midi.NoteOnEvent(tick=2, channel=9, data=[38, 110]),
   midi.NoteOnEvent(tick=0, channel=9, data=[42, 110]),
   midi.NoteOnEvent(tick=94, channel=9, data=[38, 0]),
   midi.NoteOnEvent(tick=0, channel=9, data=[42, 0]),
   midi.NoteOnEvent(tick=2, channel=9, data=[42, 110]),
   midi.NoteOnEvent(tick=94, channel=9, data=[42, 0]),
   midi.NoteOnEvent(tick=2, channel=9, data=[36, 110]),
   midi.NoteOnEvent(tick=0, channel=9, data=[42, 110]),
   midi.NoteOnEvent(tick=94, channel=9, data=[36, 0]),
   midi.NoteOnEvent(tick=0, channel=9, data=[42, 0]),
   midi.NoteOnEvent(tick=2, channel=9, data=[42, 110]),
   midi.NoteOnEvent(tick=94, channel=9, data=[42, 0]),
   midi.NoteOnEvent(tick=2, channel=9, data=[38, 110]),
   midi.NoteOnEvent(tick=0, channel=9, data=[42, 110]),
   midi.NoteOnEvent(tick=94, channel=9, data=[38, 0]),
   midi.NoteOnEvent(tick=0, channel=9, data=[42, 0]),
   midi.NoteOnEvent(tick=2, channel=9, data=[42, 110]),
   midi.NoteOnEvent(tick=94, channel=9, data=[42, 0]),
   midi.NoteOnEvent(tick=2, channel=9, data=[36, 110]),
   midi.NoteOnEvent(tick=0, channel=9, data=[38, 110]),
   midi.NoteOnEvent(tick=94, channel=9, data=[36, 0]),
   midi.NoteOnEvent(tick=0, channel=9, data=[38, 0]),
   midi.NoteOnEvent(tick=2, channel=9, data=[38, 110]),
   midi.NoteOnEvent(tick=46, channel=9, data=[38, 0]),
   midi.NoteOnEvent(tick=2, channel=9, data=[38, 110]),
   midi.NoteOnEvent(tick=46, channel=9, data=[38, 0]),
   midi.NoteOnEvent(tick=2, channel=9, data=[36, 110]),
   midi.NoteOnEvent(tick=0, channel=9, data=[38, 110]),
   midi.NoteOnEvent(tick=94, channel=9, data=[36, 0]),
   midi.NoteOnEvent(tick=0, channel=9, data=[38, 0]),
   midi.NoteOnEvent(tick=2, channel=9, data=[38, 110]),
   midi.NoteOnEvent(tick=94, channel=9, data=[38, 0]),
   midi.NoteOnEvent(tick=2, channel=9, data=[36, 110]),
   midi.NoteOnEvent(tick=0, channel=9, data=[38, 110]),
   midi.NoteOnEvent(tick=94, channel=9, data=[36, 0]),
   midi.NoteOnEvent(tick=0, channel=9, data=[38, 0]),
   midi.NoteOnEvent(tick=2, channel=9, data=[38, 110]),
   midi.NoteOnEvent(tick=94, channel=9, data=[38, 0]),
   midi.NoteOnEvent(tick=2, channel=9, data=[36, 110]),
   midi.NoteOnEvent(tick=0, channel=9, data=[38, 110]),
   midi.NoteOnEvent(tick=94, channel=9, data=[36, 0]),
   midi.NoteOnEvent(tick=0, channel=9, data=[38, 0]),
   midi.NoteOnEvent(tick=2, channel=9, data=[36, 110]),
   midi.NoteOnEvent(tick=0, channel=9, data=[38, 110]),
   midi.NoteOnEvent(tick=0, channel=9, data=[49, 110]),
   midi.NoteOnEvent(tick=94, channel=9, data=[36, 0]),
   midi.NoteOnEvent(tick=0, channel=9, data=[38, 0]),
   midi.NoteOnEvent(tick=0, channel=9, data=[49, 0]),
   midi.NoteOnEvent(tick=2, channel=9, data=[42, 110]),
   midi.NoteOnEvent(tick=94, channel=9, data=[42, 0]),
   midi.NoteOnEvent(tick=2, channel=9, data=[36, 110]),
   midi.NoteOnEvent(tick=0, channel=9, data=[42, 110]),
   midi.NoteOnEvent(tick=94, channel=9, data=[36, 0]),
   midi.NoteOnEvent(tick=0, channel=9, data=[42, 0]),
   midi.NoteOnEvent(tick=2, channel=9, data=[38, 110]),
   midi.NoteOnEvent(tick=0, channel=9, data=[42, 110]),
   midi.NoteOnEvent(tick=94, channel=9, data=[38, 0]),
   midi.NoteOnEvent(tick=0, channel=9, data=[42, 0]),
   midi.NoteOnEvent(tick=2, channel=9, data=[42, 110]),
   midi.NoteOnEvent(tick=94, channel=9, data=[42, 0]),
   midi.NoteOnEvent(tick=2, channel=9, data=[36, 110]),
   midi.NoteOnEvent(tick=0, channel=9, data=[42, 110]),
   midi.NoteOnEvent(tick=94, channel=9, data=[36, 0]),
   midi.NoteOnEvent(tick=0, channel=9, data=[42, 0]),
   midi.NoteOnEvent(tick=2, channel=9, data=[42, 110]),
   midi.NoteOnEvent(tick=94, channel=9, data=[42, 0]),
   midi.NoteOnEvent(tick=2, channel=9, data=[38, 110]),
   midi.NoteOnEvent(tick=0, channel=9, data=[42, 110]),
   midi.NoteOnEvent(tick=94, channel=9, data=[38, 0]),
   midi.NoteOnEvent(tick=0, channel=9, data=[42, 0]),
   midi.NoteOnEvent(tick=2, channel=9, data=[42, 110]),
   midi.NoteOnEvent(tick=94, channel=9, data=[42, 0]),
   midi.NoteOnEvent(tick=2, channel=9, data=[42, 110]),
   midi.NoteOnEvent(tick=94, channel=9, data=[42, 0]),
   midi.NoteOnEvent(tick=2, channel=9, data=[36, 110]),
   midi.NoteOnEvent(tick=0, channel=9, data=[42, 110]),
   midi.NoteOnEvent(tick=94, channel=9, data=[36, 0]),
   midi.NoteOnEvent(tick=0, channel=9, data=[42, 0]),
   midi.NoteOnEvent(tick=2, channel=9, data=[38, 110]),
   midi.NoteOnEvent(tick=0, channel=9, data=[42, 110]),
   midi.NoteOnEvent(tick=94, channel=9, data=[38, 0]),
   midi.NoteOnEvent(tick=0, channel=9, data=[42, 0]),
   midi.NoteOnEvent(tick=2, channel=9, data=[42, 110]),
   midi.NoteOnEvent(tick=94, channel=9, data=[42, 0]),
   midi.NoteOnEvent(tick=2, channel=9, data=[36, 110]),
   midi.NoteOnEvent(tick=0, channel=9, data=[42, 110]),
   midi.NoteOnEvent(tick=94, channel=9, data=[36, 0]),
   midi.NoteOnEvent(tick=0, channel=9, data=[42, 0]),
   midi.NoteOnEvent(tick=2, channel=9, data=[42, 110]),
   midi.NoteOnEvent(tick=94, channel=9, data=[42, 0]),
   midi.NoteOnEvent(tick=2, channel=9, data=[38, 110]),
   midi.NoteOnEvent(tick=0, channel=9, data=[42, 110]),
   midi.NoteOnEvent(tick=94, channel=9, data=[38, 0]),
   midi.NoteOnEvent(tick=0, channel=9, data=[42, 0]),
   midi.NoteOnEvent(tick=2, channel=9, data=[42, 110]),
   midi.NoteOnEvent(tick=94, channel=9, data=[42, 0]),
   midi.NoteOnEvent(tick=2, channel=9, data=[42, 110]),
   midi.NoteOnEvent(tick=94, channel=9, data=[42, 0]),
   midi.NoteOnEvent(tick=2, channel=9, data=[36, 110]),
   midi.NoteOnEvent(tick=0, channel=9, data=[42, 110]),
   midi.NoteOnEvent(tick=94, channel=9, data=[36, 0]),
   midi.NoteOnEvent(tick=0, channel=9, data=[42, 0]),
   midi.NoteOnEvent(tick=2, channel=9, data=[38, 110]),
   midi.NoteOnEvent(tick=0, channel=9, data=[42, 110]),
   midi.NoteOnEvent(tick=94, channel=9, data=[38, 0]),
   midi.NoteOnEvent(tick=0, channel=9, data=[42, 0]),
   midi.NoteOnEvent(tick=2, channel=9, data=[42, 110]),
   midi.NoteOnEvent(tick=94, channel=9, data=[42, 0]),
   midi.NoteOnEvent(tick=2, channel=9, data=[36, 110]),
   midi.NoteOnEvent(tick=0, channel=9, data=[42, 110]),
   midi.NoteOnEvent(tick=94, channel=9, data=[36, 0]),
   midi.NoteOnEvent(tick=0, channel=9, data=[42, 0]),
   midi.NoteOnEvent(tick=2, channel=9, data=[42, 110]),
   midi.NoteOnEvent(tick=94, channel=9, data=[42, 0]),
   midi.NoteOnEvent(tick=2, channel=9, data=[38, 110]),
   midi.NoteOnEvent(tick=0, channel=9, data=[42, 110]),
   midi.NoteOnEvent(tick=94, channel=9, data=[38, 0]),
   midi.NoteOnEvent(tick=0, channel=9, data=[42, 0]),
   midi.NoteOnEvent(tick=2, channel=9, data=[42, 110]),
   midi.NoteOnEvent(tick=94, channel=9, data=[42, 0]),
   midi.NoteOnEvent(tick=2, channel=9, data=[36, 110]),
   midi.NoteOnEvent(tick=0, channel=9, data=[38, 110]),
   midi.NoteOnEvent(tick=94, channel=9, data=[36, 0]),
   midi.NoteOnEvent(tick=0, channel=9, data=[38, 0]),
   midi.NoteOnEvent(tick=2, channel=9, data=[38, 110]),
   midi.NoteOnEvent(tick=46, channel=9, data=[38, 0]),
   midi.NoteOnEvent(tick=2, channel=9, data=[38, 110]),
   midi.NoteOnEvent(tick=46, channel=9, data=[38, 0]),
   midi.NoteOnEvent(tick=2, channel=9, data=[36, 110]),
   midi.NoteOnEvent(tick=0, channel=9, data=[38, 110]),
   midi.NoteOnEvent(tick=94, channel=9, data=[36, 0]),
   midi.NoteOnEvent(tick=0, channel=9, data=[38, 0]),
   midi.NoteOnEvent(tick=2, channel=9, data=[38, 110]),
   midi.NoteOnEvent(tick=94, channel=9, data=[38, 0]),
   midi.NoteOnEvent(tick=2, channel=9, data=[36, 110]),
   midi.NoteOnEvent(tick=0, channel=9, data=[38, 110]),
   midi.NoteOnEvent(tick=94, channel=9, data=[36, 0]),
   midi.NoteOnEvent(tick=0, channel=9, data=[38, 0]),
   midi.NoteOnEvent(tick=2, channel=9, data=[38, 110]),
   midi.NoteOnEvent(tick=94, channel=9, data=[38, 0]),
   midi.NoteOnEvent(tick=2, channel=9, data=[36, 110]),
   midi.NoteOnEvent(tick=0, channel=9, data=[38, 110]),
   midi.NoteOnEvent(tick=94, channel=9, data=[36, 0]),
   midi.NoteOnEvent(tick=0, channel=9, data=[38, 0]),
   midi.NoteOnEvent(tick=2, channel=9, data=[36, 110]),
   midi.NoteOnEvent(tick=0, channel=9, data=[38, 110]),
   midi.NoteOnEvent(tick=0, channel=9, data=[49, 110]),
   midi.NoteOnEvent(tick=94, channel=9, data=[36, 0]),
   midi.NoteOnEvent(tick=0, channel=9, data=[38, 0]),
   midi.NoteOnEvent(tick=0, channel=9, data=[49, 0]),
   midi.NoteOnEvent(tick=2, channel=9, data=[42, 110]),
   midi.NoteOnEvent(tick=94, channel=9, data=[42, 0]),
   midi.NoteOnEvent(tick=2, channel=9, data=[36, 110]),
   midi.NoteOnEvent(tick=0, channel=9, data=[42, 110]),
   midi.NoteOnEvent(tick=94, channel=9, data=[36, 0]),
   midi.NoteOnEvent(tick=0, channel=9, data=[42, 0]),
   midi.NoteOnEvent(tick=2, channel=9, data=[38, 110]),
   midi.NoteOnEvent(tick=0, channel=9, data=[42, 110]),
   midi.NoteOnEvent(tick=94, channel=9, data=[38, 0]),
   midi.NoteOnEvent(tick=0, channel=9, data=[42, 0]),
   midi.NoteOnEvent(tick=2, channel=9, data=[42, 110]),
   midi.NoteOnEvent(tick=94, channel=9, data=[42, 0]),
   midi.NoteOnEvent(tick=2, channel=9, data=[36, 110]),
   midi.NoteOnEvent(tick=0, channel=9, data=[42, 110]),
   midi.NoteOnEvent(tick=94, channel=9, data=[36, 0]),
   midi.NoteOnEvent(tick=0, channel=9, data=[42, 0]),
   midi.NoteOnEvent(tick=2, channel=9, data=[42, 110]),
   midi.NoteOnEvent(tick=94, channel=9, data=[42, 0]),
   midi.NoteOnEvent(tick=2, channel=9, data=[38, 110]),
   midi.NoteOnEvent(tick=0, channel=9, data=[42, 110]),
   midi.NoteOnEvent(tick=94, channel=9, data=[38, 0]),
   midi.NoteOnEvent(tick=0, channel=9, data=[42, 0]),
   midi.NoteOnEvent(tick=2, channel=9, data=[42, 110]),
   midi.NoteOnEvent(tick=94, channel=9, data=[42, 0]),
   midi.NoteOnEvent(tick=2, channel=9, data=[42, 110]),
   midi.NoteOnEvent(tick=94, channel=9, data=[42, 0]),
   midi.NoteOnEvent(tick=2, channel=9, data=[36, 110]),
   midi.NoteOnEvent(tick=0, channel=9, data=[42, 110]),
   midi.NoteOnEvent(tick=94, channel=9, data=[36, 0]),
   midi.NoteOnEvent(tick=0, channel=9, data=[42, 0]),
   midi.NoteOnEvent(tick=2, channel=9, data=[38, 110]),
   midi.NoteOnEvent(tick=0, channel=9, data=[42, 110]),
   midi.NoteOnEvent(tick=94, channel=9, data=[38, 0]),
   midi.NoteOnEvent(tick=0, channel=9, data=[42, 0]),
   midi.NoteOnEvent(tick=2, channel=9, data=[42, 110]),
   midi.NoteOnEvent(tick=94, channel=9, data=[42, 0]),
   midi.NoteOnEvent(tick=2, channel=9, data=[36, 110]),
   midi.NoteOnEvent(tick=0, channel=9, data=[42, 110]),
   midi.NoteOnEvent(tick=94, channel=9, data=[36, 0]),
   midi.NoteOnEvent(tick=0, channel=9, data=[42, 0]),
   midi.NoteOnEvent(tick=2, channel=9, data=[42, 110]),
   midi.NoteOnEvent(tick=94, channel=9, data=[42, 0]),
   midi.NoteOnEvent(tick=2, channel=9, data=[38, 110]),
   midi.NoteOnEvent(tick=0, channel=9, data=[42, 110]),
   midi.NoteOnEvent(tick=94, channel=9, data=[38, 0]),
   midi.NoteOnEvent(tick=0, channel=9, data=[42, 0]),
   midi.NoteOnEvent(tick=2, channel=9, data=[42, 110]),
   midi.NoteOnEvent(tick=94, channel=9, data=[42, 0]),
   midi.NoteOnEvent(tick=2, channel=9, data=[42, 110]),
   midi.NoteOnEvent(tick=94, channel=9, data=[42, 0]),
   midi.NoteOnEvent(tick=2, channel=9, data=[36, 110]),
   midi.NoteOnEvent(tick=0, channel=9, data=[42, 110]),
   midi.NoteOnEvent(tick=94, channel=9, data=[36, 0]),
   midi.NoteOnEvent(tick=0, channel=9, data=[42, 0]),
   midi.NoteOnEvent(tick=2, channel=9, data=[38, 110]),
   midi.NoteOnEvent(tick=0, channel=9, data=[42, 110]),
   midi.NoteOnEvent(tick=94, channel=9, data=[38, 0]),
   midi.NoteOnEvent(tick=0, channel=9, data=[42, 0]),
   midi.NoteOnEvent(tick=2, channel=9, data=[42, 110]),
   midi.NoteOnEvent(tick=94, channel=9, data=[42, 0]),
   midi.NoteOnEvent(tick=2, channel=9, data=[36, 110]),
   midi.NoteOnEvent(tick=0, channel=9, data=[42, 110]),
   midi.NoteOnEvent(tick=94, channel=9, data=[36, 0]),
   midi.NoteOnEvent(tick=0, channel=9, data=[42, 0]),
   midi.NoteOnEvent(tick=2, channel=9, data=[42, 110]),
   midi.NoteOnEvent(tick=94, channel=9, data=[42, 0]),
   midi.NoteOnEvent(tick=2, channel=9, data=[38, 110]),
   midi.NoteOnEvent(tick=0, channel=9, data=[42, 110]),
   midi.NoteOnEvent(tick=94, channel=9, data=[38, 0]),
   midi.NoteOnEvent(tick=0, channel=9, data=[42, 0]),
   midi.NoteOnEvent(tick=2, channel=9, data=[42, 110]),
   midi.NoteOnEvent(tick=94, channel=9, data=[42, 0]),
   midi.NoteOnEvent(tick=2, channel=9, data=[36, 110]),
   midi.NoteOnEvent(tick=0, channel=9, data=[38, 110]),
   midi.NoteOnEvent(tick=94, channel=9, data=[36, 0]),
   midi.NoteOnEvent(tick=0, channel=9, data=[38, 0]),
   midi.NoteOnEvent(tick=2, channel=9, data=[38, 110]),
   midi.NoteOnEvent(tick=46, channel=9, data=[38, 0]),
   midi.NoteOnEvent(tick=2, channel=9, data=[38, 110]),
   midi.NoteOnEvent(tick=46, channel=9, data=[38, 0]),
   midi.NoteOnEvent(tick=2, channel=9, data=[36, 110]),
   midi.NoteOnEvent(tick=0, channel=9, data=[38, 110]),
   midi.NoteOnEvent(tick=94, channel=9, data=[36, 0]),
   midi.NoteOnEvent(tick=0, channel=9, data=[38, 0]),
   midi.NoteOnEvent(tick=2, channel=9, data=[38, 110]),
   midi.NoteOnEvent(tick=94, channel=9, data=[38, 0]),
   midi.NoteOnEvent(tick=2, channel=9, data=[36, 110]),
   midi.NoteOnEvent(tick=0, channel=9, data=[38, 110]),
   midi.NoteOnEvent(tick=94, channel=9, data=[36, 0]),
   midi.NoteOnEvent(tick=0, channel=9, data=[38, 0]),
   midi.NoteOnEvent(tick=2, channel=9, data=[38, 110]),
   midi.NoteOnEvent(tick=94, channel=9, data=[38, 0]),
   midi.NoteOnEvent(tick=2, channel=9, data=[36, 110]),
   midi.NoteOnEvent(tick=0, channel=9, data=[38, 110]),
   midi.NoteOnEvent(tick=94, channel=9, data=[36, 0]),
   midi.NoteOnEvent(tick=0, channel=9, data=[38, 0]),
   midi.NoteOnEvent(tick=2, channel=9, data=[36, 110]),
   midi.NoteOnEvent(tick=0, channel=9, data=[38, 110]),
   midi.NoteOnEvent(tick=0, channel=9, data=[49, 110]),
   midi.NoteOnEvent(tick=94, channel=9, data=[36, 0]),
   midi.NoteOnEvent(tick=0, channel=9, data=[38, 0]),
   midi.NoteOnEvent(tick=0, channel=9, data=[49, 0]),
   midi.NoteOnEvent(tick=2, channel=9, data=[42, 110]),
   midi.NoteOnEvent(tick=94, channel=9, data=[42, 0]),
   midi.NoteOnEvent(tick=2, channel=9, data=[36, 110]),
   midi.NoteOnEvent(tick=0, channel=9, data=[42, 110]),
   midi.NoteOnEvent(tick=94, channel=9, data=[36, 0]),
   midi.NoteOnEvent(tick=0, channel=9, data=[42, 0]),
   midi.NoteOnEvent(tick=2, channel=9, data=[38, 110]),
   midi.NoteOnEvent(tick=0, channel=9, data=[42, 110]),
   midi.NoteOnEvent(tick=94, channel=9, data=[38, 0]),
   midi.NoteOnEvent(tick=0, channel=9, data=[42, 0]),
   midi.NoteOnEvent(tick=2, channel=9, data=[42, 110]),
   midi.NoteOnEvent(tick=94, channel=9, data=[42, 0]),
   midi.NoteOnEvent(tick=2, channel=9, data=[36, 110]),
   midi.NoteOnEvent(tick=0, channel=9, data=[42, 110]),
   midi.NoteOnEvent(tick=94, channel=9, data=[36, 0]),
   midi.NoteOnEvent(tick=0, channel=9, data=[42, 0]),
   midi.NoteOnEvent(tick=2, channel=9, data=[42, 110]),
   midi.NoteOnEvent(tick=94, channel=9, data=[42, 0]),
   midi.NoteOnEvent(tick=2, channel=9, data=[38, 110]),
   midi.NoteOnEvent(tick=0, channel=9, data=[42, 110]),
   midi.NoteOnEvent(tick=94, channel=9, data=[38, 0]),
   midi.NoteOnEvent(tick=0, channel=9, data=[42, 0]),
   midi.NoteOnEvent(tick=2, channel=9, data=[42, 110]),
   midi.NoteOnEvent(tick=94, channel=9, data=[42, 0]),
   midi.NoteOnEvent(tick=2, channel=9, data=[42, 110]),
   midi.NoteOnEvent(tick=94, channel=9, data=[42, 0]),
   midi.NoteOnEvent(tick=2, channel=9, data=[36, 110]),
   midi.NoteOnEvent(tick=0, channel=9, data=[42, 110]),
   midi.NoteOnEvent(tick=94, channel=9, data=[36, 0]),
   midi.NoteOnEvent(tick=0, channel=9, data=[42, 0]),
   midi.NoteOnEvent(tick=2, channel=9, data=[38, 110]),
   midi.NoteOnEvent(tick=0, channel=9, data=[42, 110]),
   midi.NoteOnEvent(tick=94, channel=9, data=[38, 0]),
   midi.NoteOnEvent(tick=0, channel=9, data=[42, 0]),
   midi.NoteOnEvent(tick=2, channel=9, data=[42, 110]),
   midi.NoteOnEvent(tick=94, channel=9, data=[42, 0]),
   midi.NoteOnEvent(tick=2, channel=9, data=[36, 110]),
   midi.NoteOnEvent(tick=0, channel=9, data=[42, 110]),
   midi.NoteOnEvent(tick=94, channel=9, data=[36, 0]),
   midi.NoteOnEvent(tick=0, channel=9, data=[42, 0]),
   midi.NoteOnEvent(tick=2, channel=9, data=[42, 110]),
   midi.NoteOnEvent(tick=94, channel=9, data=[42, 0]),
   midi.NoteOnEvent(tick=2, channel=9, data=[38, 110]),
   midi.NoteOnEvent(tick=0, channel=9, data=[42, 110]),
   midi.NoteOnEvent(tick=94, channel=9, data=[38, 0]),
   midi.NoteOnEvent(tick=0, channel=9, data=[42, 0]),
   midi.NoteOnEvent(tick=2, channel=9, data=[42, 110]),
   midi.NoteOnEvent(tick=94, channel=9, data=[42, 0]),
   midi.NoteOnEvent(tick=2, channel=9, data=[42, 110]),
   midi.NoteOnEvent(tick=94, channel=9, data=[42, 0]),
   midi.NoteOnEvent(tick=2, channel=9, data=[36, 110]),
   midi.NoteOnEvent(tick=0, channel=9, data=[42, 110]),
   midi.NoteOnEvent(tick=94, channel=9, data=[36, 0]),
   midi.NoteOnEvent(tick=0, channel=9, data=[42, 0]),
   midi.NoteOnEvent(tick=2, channel=9, data=[38, 110]),
   midi.NoteOnEvent(tick=0, channel=9, data=[42, 110]),
   midi.NoteOnEvent(tick=94, channel=9, data=[38, 0]),
   midi.NoteOnEvent(tick=0, channel=9, data=[42, 0]),
   midi.NoteOnEvent(tick=2, channel=9, data=[42, 110]),
   midi.NoteOnEvent(tick=94, channel=9, data=[42, 0]),
   midi.NoteOnEvent(tick=2, channel=9, data=[36, 110]),
   midi.NoteOnEvent(tick=0, channel=9, data=[42, 110]),
   midi.NoteOnEvent(tick=94, channel=9, data=[36, 0]),
   midi.NoteOnEvent(tick=0, channel=9, data=[42, 0]),
   midi.NoteOnEvent(tick=2, channel=9, data=[42, 110]),
   midi.NoteOnEvent(tick=94, channel=9, data=[42, 0]),
   midi.NoteOnEvent(tick=2, channel=9, data=[38, 110]),
   midi.NoteOnEvent(tick=0, channel=9, data=[42, 110]),
   midi.NoteOnEvent(tick=94, channel=9, data=[38, 0]),
   midi.NoteOnEvent(tick=0, channel=9, data=[42, 0]),
   midi.NoteOnEvent(tick=2, channel=9, data=[42, 110]),
   midi.NoteOnEvent(tick=94, channel=9, data=[42, 0]),
   midi.NoteOnEvent(tick=2, channel=9, data=[36, 110]),
   midi.NoteOnEvent(tick=0, channel=9, data=[38, 110]),
   midi.NoteOnEvent(tick=94, channel=9, data=[36, 0]),
   midi.NoteOnEvent(tick=0, channel=9, data=[38, 0]),
   midi.NoteOnEvent(tick=2, channel=9, data=[38, 110]),
   midi.NoteOnEvent(tick=46, channel=9, data=[38, 0]),
   midi.NoteOnEvent(tick=2, channel=9, data=[38, 110]),
   midi.NoteOnEvent(tick=46, channel=9, data=[38, 0]),
   midi.NoteOnEvent(tick=2, channel=9, data=[36, 110]),
   midi.NoteOnEvent(tick=0, channel=9, data=[38, 110]),
   midi.NoteOnEvent(tick=94, channel=9, data=[36, 0]),
   midi.NoteOnEvent(tick=0, channel=9, data=[38, 0]),
   midi.NoteOnEvent(tick=2, channel=9, data=[38, 110]),
   midi.NoteOnEvent(tick=94, channel=9, data=[38, 0]),
   midi.NoteOnEvent(tick=2, channel=9, data=[36, 110]),
   midi.NoteOnEvent(tick=0, channel=9, data=[38, 110]),
   midi.NoteOnEvent(tick=94, channel=9, data=[36, 0]),
   midi.NoteOnEvent(tick=0, channel=9, data=[38, 0]),
   midi.NoteOnEvent(tick=2, channel=9, data=[38, 110]),
   midi.NoteOnEvent(tick=94, channel=9, data=[38, 0]),
   midi.NoteOnEvent(tick=2, channel=9, data=[36, 110]),
   midi.NoteOnEvent(tick=0, channel=9, data=[38, 110]),
   midi.NoteOnEvent(tick=94, channel=9, data=[36, 0]),
   midi.NoteOnEvent(tick=0, channel=9, data=[38, 0]),
   midi.NoteOnEvent(tick=2, channel=9, data=[36, 110]),
   midi.NoteOnEvent(tick=0, channel=9, data=[38, 110]),
   midi.NoteOnEvent(tick=0, channel=9, data=[42, 110]),
   midi.NoteOnEvent(tick=0, channel=9, data=[49, 110]),
   midi.NoteOnEvent(tick=94, channel=9, data=[36, 0]),
   midi.NoteOnEvent(tick=0, channel=9, data=[38, 0]),
   midi.NoteOnEvent(tick=0, channel=9, data=[42, 0]),
   midi.NoteOnEvent(tick=0, channel=9, data=[49, 0]),
   midi.NoteOnEvent(tick=290, channel=9, data=[36, 110]),
   midi.NoteOnEvent(tick=0, channel=9, data=[42, 110]),
   midi.NoteOnEvent(tick=0, channel=9, data=[49, 110]),
   midi.NoteOnEvent(tick=94, channel=9, data=[36, 0]),
   midi.NoteOnEvent(tick=0, channel=9, data=[42, 0]),
   midi.NoteOnEvent(tick=0, channel=9, data=[49, 0]),
   midi.NoteOnEvent(tick=2, channel=9, data=[42, 110]),
   midi.NoteOnEvent(tick=94, channel=9, data=[42, 0]),
   midi.NoteOnEvent(tick=2, channel=9, data=[38, 110]),
   midi.NoteOnEvent(tick=0, channel=9, data=[42, 110]),
   midi.NoteOnEvent(tick=94, channel=9, data=[38, 0]),
   midi.NoteOnEvent(tick=0, channel=9, data=[42, 0]),
   midi.NoteOnEvent(tick=2, channel=9, data=[42, 110]),
   midi.NoteOnEvent(tick=94, channel=9, data=[42, 0]),
   midi.NoteOnEvent(tick=2, channel=9, data=[36, 110]),
   midi.NoteOnEvent(tick=0, channel=9, data=[42, 110]),
   midi.NoteOnEvent(tick=94, channel=9, data=[36, 0]),
   midi.NoteOnEvent(tick=0, channel=9, data=[42, 0]),
   midi.NoteOnEvent(tick=2, channel=9, data=[36, 110]),
   midi.NoteOnEvent(tick=0, channel=9, data=[42, 110]),
   midi.NoteOnEvent(tick=94, channel=9, data=[36, 0]),
   midi.NoteOnEvent(tick=0, channel=9, data=[42, 0]),
   midi.NoteOnEvent(tick=2, channel=9, data=[38, 110]),
   midi.NoteOnEvent(tick=0, channel=9, data=[42, 110]),
   midi.NoteOnEvent(tick=94, channel=9, data=[38, 0]),
   midi.NoteOnEvent(tick=0, channel=9, data=[42, 0]),
   midi.NoteOnEvent(tick=2, channel=9, data=[42, 110]),
   midi.NoteOnEvent(tick=94, channel=9, data=[42, 0]),
   midi.NoteOnEvent(tick=2, channel=9, data=[36, 110]),
   midi.NoteOnEvent(tick=0, channel=9, data=[42, 110]),
   midi.NoteOnEvent(tick=94, channel=9, data=[36, 0]),
   midi.NoteOnEvent(tick=0, channel=9, data=[42, 0]),
   midi.NoteOnEvent(tick=2, channel=9, data=[42, 110]),
   midi.NoteOnEvent(tick=94, channel=9, data=[42, 0]),
   midi.NoteOnEvent(tick=2, channel=9, data=[38, 110]),
   midi.NoteOnEvent(tick=0, channel=9, data=[42, 110]),
   midi.NoteOnEvent(tick=94, channel=9, data=[38, 0]),
   midi.NoteOnEvent(tick=0, channel=9, data=[42, 0]),
   midi.NoteOnEvent(tick=2, channel=9, data=[42, 110]),
   midi.NoteOnEvent(tick=94, channel=9, data=[42, 0]),
   midi.NoteOnEvent(tick=2, channel=9, data=[36, 110]),
   midi.NoteOnEvent(tick=0, channel=9, data=[42, 110]),
   midi.NoteOnEvent(tick=94, channel=9, data=[36, 0]),
   midi.NoteOnEvent(tick=0, channel=9, data=[42, 0]),
   midi.NoteOnEvent(tick=2, channel=9, data=[36, 110]),
   midi.NoteOnEvent(tick=0, channel=9, data=[42, 110]),
   midi.NoteOnEvent(tick=94, channel=9, data=[36, 0]),
   midi.NoteOnEvent(tick=0, channel=9, data=[42, 0]),
   midi.NoteOnEvent(tick=2, channel=9, data=[38, 110]),
   midi.NoteOnEvent(tick=0, channel=9, data=[42, 110]),
   midi.NoteOnEvent(tick=94, channel=9, data=[38, 0]),
   midi.NoteOnEvent(tick=0, channel=9, data=[42, 0]),
   midi.NoteOnEvent(tick=2, channel=9, data=[42, 110]),
   midi.NoteOnEvent(tick=94, channel=9, data=[42, 0]),
   midi.NoteOnEvent(tick=2, channel=9, data=[36, 110]),
   midi.NoteOnEvent(tick=0, channel=9, data=[42, 110]),
   midi.NoteOnEvent(tick=0, channel=9, data=[49, 110]),
   midi.NoteOnEvent(tick=94, channel=9, data=[36, 0]),
   midi.NoteOnEvent(tick=0, channel=9, data=[42, 0]),
   midi.NoteOnEvent(tick=0, channel=9, data=[49, 0]),
   midi.NoteOnEvent(tick=2, channel=9, data=[42, 110]),
   midi.NoteOnEvent(tick=94, channel=9, data=[42, 0]),
   midi.NoteOnEvent(tick=2, channel=9, data=[38, 110]),
   midi.NoteOnEvent(tick=0, channel=9, data=[42, 110]),
   midi.NoteOnEvent(tick=94, channel=9, data=[38, 0]),
   midi.NoteOnEvent(tick=0, channel=9, data=[42, 0]),
   midi.NoteOnEvent(tick=2, channel=9, data=[42, 110]),
   midi.NoteOnEvent(tick=94, channel=9, data=[42, 0]),
   midi.NoteOnEvent(tick=2, channel=9, data=[36, 110]),
   midi.NoteOnEvent(tick=0, channel=9, data=[42, 110]),
   midi.NoteOnEvent(tick=94, channel=9, data=[36, 0]),
   midi.NoteOnEvent(tick=0, channel=9, data=[42, 0]),
   midi.NoteOnEvent(tick=2, channel=9, data=[36, 110]),
   midi.NoteOnEvent(tick=0, channel=9, data=[42, 110]),
   midi.NoteOnEvent(tick=94, channel=9, data=[36, 0]),
   midi.NoteOnEvent(tick=0, channel=9, data=[42, 0]),
   midi.NoteOnEvent(tick=2, channel=9, data=[38, 110]),
   midi.NoteOnEvent(tick=0, channel=9, data=[42, 110]),
   midi.NoteOnEvent(tick=94, channel=9, data=[38, 0]),
   midi.NoteOnEvent(tick=0, channel=9, data=[42, 0]),
   midi.NoteOnEvent(tick=2, channel=9, data=[42, 110]),
   midi.NoteOnEvent(tick=94, channel=9, data=[42, 0]),
   midi.NoteOnEvent(tick=2, channel=9, data=[36, 110]),
   midi.NoteOnEvent(tick=0, channel=9, data=[42, 110]),
   midi.NoteOnEvent(tick=94, channel=9, data=[36, 0]),
   midi.NoteOnEvent(tick=0, channel=9, data=[42, 0]),
   midi.NoteOnEvent(tick=2, channel=9, data=[42, 110]),
   midi.NoteOnEvent(tick=94, channel=9, data=[42, 0]),
   midi.NoteOnEvent(tick=2, channel=9, data=[38, 110]),
   midi.NoteOnEvent(tick=0, channel=9, data=[42, 110]),
   midi.NoteOnEvent(tick=94, channel=9, data=[38, 0]),
   midi.NoteOnEvent(tick=0, channel=9, data=[42, 0]),
   midi.NoteOnEvent(tick=2, channel=9, data=[42, 110]),
   midi.NoteOnEvent(tick=94, channel=9, data=[42, 0]),
   midi.NoteOnEvent(tick=2, channel=9, data=[36, 110]),
   midi.NoteOnEvent(tick=0, channel=9, data=[42, 110]),
   midi.NoteOnEvent(tick=94, channel=9, data=[36, 0]),
   midi.NoteOnEvent(tick=0, channel=9, data=[42, 0]),
   midi.NoteOnEvent(tick=2, channel=9, data=[36, 110]),
   midi.NoteOnEvent(tick=0, channel=9, data=[42, 110]),
   midi.NoteOnEvent(tick=94, channel=9, data=[36, 0]),
   midi.NoteOnEvent(tick=0, channel=9, data=[42, 0]),
   midi.NoteOnEvent(tick=2, channel=9, data=[38, 110]),
   midi.NoteOnEvent(tick=0, channel=9, data=[42, 110]),
   midi.NoteOnEvent(tick=94, channel=9, data=[38, 0]),
   midi.NoteOnEvent(tick=0, channel=9, data=[42, 0]),
   midi.NoteOnEvent(tick=2, channel=9, data=[42, 110]),
   midi.NoteOnEvent(tick=94, channel=9, data=[42, 0]),
   midi.NoteOnEvent(tick=2, channel=9, data=[36, 110]),
   midi.NoteOnEvent(tick=0, channel=9, data=[42, 110]),
   midi.NoteOnEvent(tick=0, channel=9, data=[49, 110]),
   midi.NoteOnEvent(tick=94, channel=9, data=[36, 0]),
   midi.NoteOnEvent(tick=0, channel=9, data=[42, 0]),
   midi.NoteOnEvent(tick=0, channel=9, data=[49, 0]),
   midi.NoteOnEvent(tick=2, channel=9, data=[42, 110]),
   midi.NoteOnEvent(tick=94, channel=9, data=[42, 0]),
   midi.NoteOnEvent(tick=2, channel=9, data=[38, 110]),
   midi.NoteOnEvent(tick=0, channel=9, data=[42, 110]),
   midi.NoteOnEvent(tick=94, channel=9, data=[38, 0]),
   midi.NoteOnEvent(tick=0, channel=9, data=[42, 0]),
   midi.NoteOnEvent(tick=2, channel=9, data=[42, 110]),
   midi.NoteOnEvent(tick=94, channel=9, data=[42, 0]),
   midi.NoteOnEvent(tick=2, channel=9, data=[36, 110]),
   midi.NoteOnEvent(tick=0, channel=9, data=[42, 110]),
   midi.NoteOnEvent(tick=94, channel=9, data=[36, 0]),
   midi.NoteOnEvent(tick=0, channel=9, data=[42, 0]),
   midi.NoteOnEvent(tick=2, channel=9, data=[36, 110]),
   midi.NoteOnEvent(tick=0, channel=9, data=[42, 110]),
   midi.NoteOnEvent(tick=94, channel=9, data=[36, 0]),
   midi.NoteOnEvent(tick=0, channel=9, data=[42, 0]),
   midi.NoteOnEvent(tick=2, channel=9, data=[38, 110]),
   midi.NoteOnEvent(tick=0, channel=9, data=[42, 110]),
   midi.NoteOnEvent(tick=94, channel=9, data=[38, 0]),
   midi.NoteOnEvent(tick=0, channel=9, data=[42, 0]),
   midi.NoteOnEvent(tick=2, channel=9, data=[42, 110]),
   midi.NoteOnEvent(tick=94, channel=9, data=[42, 0]),
   midi.NoteOnEvent(tick=2, channel=9, data=[36, 110]),
   midi.NoteOnEvent(tick=0, channel=9, data=[42, 110]),
   midi.NoteOnEvent(tick=94, channel=9, data=[36, 0]),
   midi.NoteOnEvent(tick=0, channel=9, data=[42, 0]),
   midi.NoteOnEvent(tick=2, channel=9, data=[42, 110]),
   midi.NoteOnEvent(tick=94, channel=9, data=[42, 0]),
   midi.NoteOnEvent(tick=2, channel=9, data=[38, 110]),
   midi.NoteOnEvent(tick=0, channel=9, data=[42, 110]),
   midi.NoteOnEvent(tick=94, channel=9, data=[38, 0]),
   midi.NoteOnEvent(tick=0, channel=9, data=[42, 0]),
   midi.NoteOnEvent(tick=2, channel=9, data=[42, 110]),
   midi.NoteOnEvent(tick=94, channel=9, data=[42, 0]),
   midi.NoteOnEvent(tick=2, channel=9, data=[36, 110]),
   midi.NoteOnEvent(tick=0, channel=9, data=[42, 110]),
   midi.NoteOnEvent(tick=94, channel=9, data=[36, 0]),
   midi.NoteOnEvent(tick=0, channel=9, data=[42, 0]),
   midi.NoteOnEvent(tick=2, channel=9, data=[36, 110]),
   midi.NoteOnEvent(tick=0, channel=9, data=[42, 110]),
   midi.NoteOnEvent(tick=94, channel=9, data=[36, 0]),
   midi.NoteOnEvent(tick=0, channel=9, data=[42, 0]),
   midi.NoteOnEvent(tick=2, channel=9, data=[38, 110]),
   midi.NoteOnEvent(tick=0, channel=9, data=[42, 110]),
   midi.NoteOnEvent(tick=94, channel=9, data=[38, 0]),
   midi.NoteOnEvent(tick=0, channel=9, data=[42, 0]),
   midi.NoteOnEvent(tick=2, channel=9, data=[42, 110]),
   midi.NoteOnEvent(tick=94, channel=9, data=[42, 0]),
   midi.NoteOnEvent(tick=2, channel=9, data=[36, 110]),
   midi.NoteOnEvent(tick=0, channel=9, data=[42, 110]),
   midi.NoteOnEvent(tick=0, channel=9, data=[49, 110]),
   midi.NoteOnEvent(tick=94, channel=9, data=[36, 0]),
   midi.NoteOnEvent(tick=0, channel=9, data=[42, 0]),
   midi.NoteOnEvent(tick=0, channel=9, data=[49, 0]),
   midi.NoteOnEvent(tick=2, channel=9, data=[42, 110]),
   midi.NoteOnEvent(tick=94, channel=9, data=[42, 0]),
   midi.NoteOnEvent(tick=2, channel=9, data=[38, 110]),
   midi.NoteOnEvent(tick=0, channel=9, data=[42, 110]),
   midi.NoteOnEvent(tick=94, channel=9, data=[38, 0]),
   midi.NoteOnEvent(tick=0, channel=9, data=[42, 0]),
   midi.NoteOnEvent(tick=2, channel=9, data=[42, 110]),
   midi.NoteOnEvent(tick=94, channel=9, data=[42, 0]),
   midi.NoteOnEvent(tick=2, channel=9, data=[36, 110]),
   midi.NoteOnEvent(tick=0, channel=9, data=[42, 110]),
   midi.NoteOnEvent(tick=94, channel=9, data=[36, 0]),
   midi.NoteOnEvent(tick=0, channel=9, data=[42, 0]),
   midi.NoteOnEvent(tick=2, channel=9, data=[36, 110]),
   midi.NoteOnEvent(tick=0, channel=9, data=[42, 110]),
   midi.NoteOnEvent(tick=94, channel=9, data=[36, 0]),
   midi.NoteOnEvent(tick=0, channel=9, data=[42, 0]),
   midi.NoteOnEvent(tick=2, channel=9, data=[38, 110]),
   midi.NoteOnEvent(tick=0, channel=9, data=[42, 110]),
   midi.NoteOnEvent(tick=94, channel=9, data=[38, 0]),
   midi.NoteOnEvent(tick=0, channel=9, data=[42, 0]),
   midi.NoteOnEvent(tick=2, channel=9, data=[42, 110]),
   midi.NoteOnEvent(tick=94, channel=9, data=[42, 0]),
   midi.NoteOnEvent(tick=2, channel=9, data=[36, 110]),
   midi.NoteOnEvent(tick=0, channel=9, data=[42, 110]),
   midi.NoteOnEvent(tick=94, channel=9, data=[36, 0]),
   midi.NoteOnEvent(tick=0, channel=9, data=[42, 0]),
   midi.NoteOnEvent(tick=2, channel=9, data=[42, 110]),
   midi.NoteOnEvent(tick=94, channel=9, data=[42, 0]),
   midi.NoteOnEvent(tick=2, channel=9, data=[38, 110]),
   midi.NoteOnEvent(tick=0, channel=9, data=[42, 110]),
   midi.NoteOnEvent(tick=94, channel=9, data=[38, 0]),
   midi.NoteOnEvent(tick=0, channel=9, data=[42, 0]),
   midi.NoteOnEvent(tick=2, channel=9, data=[42, 110]),
   midi.NoteOnEvent(tick=94, channel=9, data=[42, 0]),
   midi.NoteOnEvent(tick=2, channel=9, data=[36, 110]),
   midi.NoteOnEvent(tick=0, channel=9, data=[42, 110]),
   midi.NoteOnEvent(tick=94, channel=9, data=[36, 0]),
   midi.NoteOnEvent(tick=0, channel=9, data=[42, 0]),
   midi.NoteOnEvent(tick=2, channel=9, data=[36, 110]),
   midi.NoteOnEvent(tick=0, channel=9, data=[42, 110]),
   midi.NoteOnEvent(tick=94, channel=9, data=[36, 0]),
   midi.NoteOnEvent(tick=0, channel=9, data=[42, 0]),
   midi.NoteOnEvent(tick=2, channel=9, data=[38, 110]),
   midi.NoteOnEvent(tick=0, channel=9, data=[42, 110]),
   midi.NoteOnEvent(tick=94, channel=9, data=[38, 0]),
   midi.NoteOnEvent(tick=0, channel=9, data=[42, 0]),
   midi.NoteOnEvent(tick=2, channel=9, data=[42, 110]),
   midi.NoteOnEvent(tick=94, channel=9, data=[42, 0]),
   midi.NoteOnEvent(tick=2, channel=9, data=[36, 110]),
   midi.NoteOnEvent(tick=0, channel=9, data=[42, 110]),
   midi.NoteOnEvent(tick=0, channel=9, data=[49, 110]),
   midi.NoteOnEvent(tick=94, channel=9, data=[36, 0]),
   midi.NoteOnEvent(tick=0, channel=9, data=[42, 0]),
   midi.NoteOnEvent(tick=0, channel=9, data=[49, 0]),
   midi.NoteOnEvent(tick=2, channel=9, data=[42, 110]),
   midi.NoteOnEvent(tick=94, channel=9, data=[42, 0]),
   midi.NoteOnEvent(tick=2, channel=9, data=[38, 110]),
   midi.NoteOnEvent(tick=0, channel=9, data=[42, 110]),
   midi.NoteOnEvent(tick=94, channel=9, data=[38, 0]),
   midi.NoteOnEvent(tick=0, channel=9, data=[42, 0]),
   midi.NoteOnEvent(tick=2, channel=9, data=[42, 110]),
   midi.NoteOnEvent(tick=94, channel=9, data=[42, 0]),
   midi.NoteOnEvent(tick=2, channel=9, data=[36, 110]),
   midi.NoteOnEvent(tick=0, channel=9, data=[42, 110]),
   midi.NoteOnEvent(tick=94, channel=9, data=[36, 0]),
   midi.NoteOnEvent(tick=0, channel=9, data=[42, 0]),
   midi.NoteOnEvent(tick=2, channel=9, data=[36, 110]),
   midi.NoteOnEvent(tick=0, channel=9, data=[42, 110]),
   midi.NoteOnEvent(tick=94, channel=9, data=[36, 0]),
   midi.NoteOnEvent(tick=0, channel=9, data=[42, 0]),
   midi.NoteOnEvent(tick=2, channel=9, data=[38, 110]),
   midi.NoteOnEvent(tick=0, channel=9, data=[42, 110]),
   midi.NoteOnEvent(tick=94, channel=9, data=[38, 0]),
   midi.NoteOnEvent(tick=0, channel=9, data=[42, 0]),
   midi.NoteOnEvent(tick=2, channel=9, data=[42, 110]),
   midi.NoteOnEvent(tick=94, channel=9, data=[42, 0]),
   midi.NoteOnEvent(tick=2, channel=9, data=[36, 110]),
   midi.NoteOnEvent(tick=0, channel=9, data=[42, 110]),
   midi.NoteOnEvent(tick=94, channel=9, data=[36, 0]),
   midi.NoteOnEvent(tick=0, channel=9, data=[42, 0]),
   midi.NoteOnEvent(tick=2, channel=9, data=[42, 110]),
   midi.NoteOnEvent(tick=94, channel=9, data=[42, 0]),
   midi.NoteOnEvent(tick=2, channel=9, data=[38, 110]),
   midi.NoteOnEvent(tick=0, channel=9, data=[42, 110]),
   midi.NoteOnEvent(tick=94, channel=9, data=[38, 0]),
   midi.NoteOnEvent(tick=0, channel=9, data=[42, 0]),
   midi.NoteOnEvent(tick=2, channel=9, data=[42, 110]),
   midi.NoteOnEvent(tick=94, channel=9, data=[42, 0]),
   midi.NoteOnEvent(tick=2, channel=9, data=[36, 110]),
   midi.NoteOnEvent(tick=0, channel=9, data=[42, 110]),
   midi.NoteOnEvent(tick=94, channel=9, data=[36, 0]),
   midi.NoteOnEvent(tick=0, channel=9, data=[42, 0]),
   midi.NoteOnEvent(tick=2, channel=9, data=[36, 110]),
   midi.NoteOnEvent(tick=0, channel=9, data=[42, 110]),
   midi.NoteOnEvent(tick=94, channel=9, data=[36, 0]),
   midi.NoteOnEvent(tick=0, channel=9, data=[42, 0]),
   midi.NoteOnEvent(tick=2, channel=9, data=[38, 110]),
   midi.NoteOnEvent(tick=0, channel=9, data=[42, 110]),
   midi.NoteOnEvent(tick=94, channel=9, data=[38, 0]),
   midi.NoteOnEvent(tick=0, channel=9, data=[42, 0]),
   midi.NoteOnEvent(tick=2, channel=9, data=[42, 110]),
   midi.NoteOnEvent(tick=94, channel=9, data=[42, 0]),
   midi.NoteOnEvent(tick=2, channel=9, data=[36, 110]),
   midi.NoteOnEvent(tick=0, channel=9, data=[42, 110]),
   midi.NoteOnEvent(tick=0, channel=9, data=[49, 110]),
   midi.NoteOnEvent(tick=94, channel=9, data=[36, 0]),
   midi.NoteOnEvent(tick=0, channel=9, data=[42, 0]),
   midi.NoteOnEvent(tick=0, channel=9, data=[49, 0]),
   midi.NoteOnEvent(tick=2, channel=9, data=[42, 110]),
   midi.NoteOnEvent(tick=94, channel=9, data=[42, 0]),
   midi.NoteOnEvent(tick=2, channel=9, data=[38, 110]),
   midi.NoteOnEvent(tick=0, channel=9, data=[42, 110]),
   midi.NoteOnEvent(tick=94, channel=9, data=[38, 0]),
   midi.NoteOnEvent(tick=0, channel=9, data=[42, 0]),
   midi.NoteOnEvent(tick=2, channel=9, data=[42, 110]),
   midi.NoteOnEvent(tick=94, channel=9, data=[42, 0]),
   midi.NoteOnEvent(tick=2, channel=9, data=[36, 110]),
   midi.NoteOnEvent(tick=0, channel=9, data=[42, 110]),
   midi.NoteOnEvent(tick=94, channel=9, data=[36, 0]),
   midi.NoteOnEvent(tick=0, channel=9, data=[42, 0]),
   midi.NoteOnEvent(tick=2, channel=9, data=[36, 110]),
   midi.NoteOnEvent(tick=0, channel=9, data=[42, 110]),
   midi.NoteOnEvent(tick=94, channel=9, data=[36, 0]),
   midi.NoteOnEvent(tick=0, channel=9, data=[42, 0]),
   midi.NoteOnEvent(tick=2, channel=9, data=[38, 110]),
   midi.NoteOnEvent(tick=0, channel=9, data=[42, 110]),
   midi.NoteOnEvent(tick=94, channel=9, data=[38, 0]),
   midi.NoteOnEvent(tick=0, channel=9, data=[42, 0]),
   midi.NoteOnEvent(tick=2, channel=9, data=[42, 110]),
   midi.NoteOnEvent(tick=94, channel=9, data=[42, 0]),
   midi.NoteOnEvent(tick=2, channel=9, data=[36, 110]),
   midi.NoteOnEvent(tick=0, channel=9, data=[42, 110]),
   midi.NoteOnEvent(tick=94, channel=9, data=[36, 0]),
   midi.NoteOnEvent(tick=0, channel=9, data=[42, 0]),
   midi.NoteOnEvent(tick=2, channel=9, data=[42, 110]),
   midi.NoteOnEvent(tick=94, channel=9, data=[42, 0]),
   midi.NoteOnEvent(tick=2, channel=9, data=[38, 110]),
   midi.NoteOnEvent(tick=0, channel=9, data=[42, 110]),
   midi.NoteOnEvent(tick=94, channel=9, data=[38, 0]),
   midi.NoteOnEvent(tick=0, channel=9, data=[42, 0]),
   midi.NoteOnEvent(tick=2, channel=9, data=[42, 110]),
   midi.NoteOnEvent(tick=94, channel=9, data=[42, 0]),
   midi.NoteOnEvent(tick=2, channel=9, data=[36, 110]),
   midi.NoteOnEvent(tick=0, channel=9, data=[42, 110]),
   midi.NoteOnEvent(tick=94, channel=9, data=[36, 0]),
   midi.NoteOnEvent(tick=0, channel=9, data=[42, 0]),
   midi.NoteOnEvent(tick=2, channel=9, data=[36, 110]),
   midi.NoteOnEvent(tick=0, channel=9, data=[42, 110]),
   midi.NoteOnEvent(tick=94, channel=9, data=[36, 0]),
   midi.NoteOnEvent(tick=0, channel=9, data=[42, 0]),
   midi.NoteOnEvent(tick=2, channel=9, data=[38, 110]),
   midi.NoteOnEvent(tick=0, channel=9, data=[42, 110]),
   midi.NoteOnEvent(tick=94, channel=9, data=[38, 0]),
   midi.NoteOnEvent(tick=0, channel=9, data=[42, 0]),
   midi.NoteOnEvent(tick=2, channel=9, data=[42, 110]),
   midi.NoteOnEvent(tick=94, channel=9, data=[42, 0]),
   midi.NoteOnEvent(tick=2, channel=9, data=[36, 110]),
   midi.NoteOnEvent(tick=0, channel=9, data=[42, 110]),
   midi.NoteOnEvent(tick=0, channel=9, data=[49, 110]),
   midi.NoteOnEvent(tick=94, channel=9, data=[36, 0]),
   midi.NoteOnEvent(tick=0, channel=9, data=[42, 0]),
   midi.NoteOnEvent(tick=0, channel=9, data=[49, 0]),
   midi.NoteOnEvent(tick=2, channel=9, data=[42, 110]),
   midi.NoteOnEvent(tick=94, channel=9, data=[42, 0]),
   midi.NoteOnEvent(tick=2, channel=9, data=[38, 110]),
   midi.NoteOnEvent(tick=0, channel=9, data=[42, 110]),
   midi.NoteOnEvent(tick=94, channel=9, data=[38, 0]),
   midi.NoteOnEvent(tick=0, channel=9, data=[42, 0]),
   midi.NoteOnEvent(tick=2, channel=9, data=[42, 110]),
   midi.NoteOnEvent(tick=94, channel=9, data=[42, 0]),
   midi.NoteOnEvent(tick=2, channel=9, data=[36, 110]),
   midi.NoteOnEvent(tick=0, channel=9, data=[42, 110]),
   midi.NoteOnEvent(tick=94, channel=9, data=[36, 0]),
   midi.NoteOnEvent(tick=0, channel=9, data=[42, 0]),
   midi.NoteOnEvent(tick=2, channel=9, data=[36, 110]),
   midi.NoteOnEvent(tick=0, channel=9, data=[42, 110]),
   midi.NoteOnEvent(tick=94, channel=9, data=[36, 0]),
   midi.NoteOnEvent(tick=0, channel=9, data=[42, 0]),
   midi.NoteOnEvent(tick=2, channel=9, data=[38, 110]),
   midi.NoteOnEvent(tick=0, channel=9, data=[42, 110]),
   midi.NoteOnEvent(tick=94, channel=9, data=[38, 0]),
   midi.NoteOnEvent(tick=0, channel=9, data=[42, 0]),
   midi.NoteOnEvent(tick=2, channel=9, data=[42, 110]),
   midi.NoteOnEvent(tick=94, channel=9, data=[42, 0]),
   midi.NoteOnEvent(tick=2, channel=9, data=[36, 110]),
   midi.NoteOnEvent(tick=0, channel=9, data=[42, 110]),
   midi.NoteOnEvent(tick=94, channel=9, data=[36, 0]),
   midi.NoteOnEvent(tick=0, channel=9, data=[42, 0]),
   midi.NoteOnEvent(tick=2, channel=9, data=[42, 110]),
   midi.NoteOnEvent(tick=94, channel=9, data=[42, 0]),
   midi.NoteOnEvent(tick=2, channel=9, data=[38, 110]),
   midi.NoteOnEvent(tick=0, channel=9, data=[42, 110]),
   midi.NoteOnEvent(tick=94, channel=9, data=[38, 0]),
   midi.NoteOnEvent(tick=0, channel=9, data=[42, 0]),
   midi.NoteOnEvent(tick=2, channel=9, data=[42, 110]),
   midi.NoteOnEvent(tick=94, channel=9, data=[42, 0]),
   midi.NoteOnEvent(tick=2, channel=9, data=[36, 110]),
   midi.NoteOnEvent(tick=0, channel=9, data=[42, 110]),
   midi.NoteOnEvent(tick=94, channel=9, data=[36, 0]),
   midi.NoteOnEvent(tick=0, channel=9, data=[42, 0]),
   midi.NoteOnEvent(tick=2, channel=9, data=[36, 110]),
   midi.NoteOnEvent(tick=0, channel=9, data=[42, 110]),
   midi.NoteOnEvent(tick=94, channel=9, data=[36, 0]),
   midi.NoteOnEvent(tick=0, channel=9, data=[42, 0]),
   midi.NoteOnEvent(tick=2, channel=9, data=[38, 110]),
   midi.NoteOnEvent(tick=0, channel=9, data=[42, 110]),
   midi.NoteOnEvent(tick=94, channel=9, data=[38, 0]),
   midi.NoteOnEvent(tick=0, channel=9, data=[42, 0]),
   midi.NoteOnEvent(tick=2, channel=9, data=[42, 110]),
   midi.NoteOnEvent(tick=94, channel=9, data=[42, 0]),
   midi.NoteOnEvent(tick=2, channel=9, data=[36, 110]),
   midi.NoteOnEvent(tick=0, channel=9, data=[42, 110]),
   midi.NoteOnEvent(tick=0, channel=9, data=[49, 110]),
   midi.NoteOnEvent(tick=94, channel=9, data=[36, 0]),
   midi.NoteOnEvent(tick=0, channel=9, data=[42, 0]),
   midi.NoteOnEvent(tick=0, channel=9, data=[49, 0]),
   midi.NoteOnEvent(tick=2, channel=9, data=[42, 110]),
   midi.NoteOnEvent(tick=94, channel=9, data=[42, 0]),
   midi.NoteOnEvent(tick=2, channel=9, data=[38, 110]),
   midi.NoteOnEvent(tick=0, channel=9, data=[42, 110]),
   midi.NoteOnEvent(tick=94, channel=9, data=[38, 0]),
   midi.NoteOnEvent(tick=0, channel=9, data=[42, 0]),
   midi.NoteOnEvent(tick=2, channel=9, data=[42, 110]),
   midi.NoteOnEvent(tick=94, channel=9, data=[42, 0]),
   midi.NoteOnEvent(tick=2, channel=9, data=[36, 110]),
   midi.NoteOnEvent(tick=0, channel=9, data=[42, 110]),
   midi.NoteOnEvent(tick=94, channel=9, data=[36, 0]),
   midi.NoteOnEvent(tick=0, channel=9, data=[42, 0]),
   midi.NoteOnEvent(tick=2, channel=9, data=[36, 110]),
   midi.NoteOnEvent(tick=0, channel=9, data=[42, 110]),
   midi.NoteOnEvent(tick=94, channel=9, data=[36, 0]),
   midi.NoteOnEvent(tick=0, channel=9, data=[42, 0]),
   midi.NoteOnEvent(tick=2, channel=9, data=[38, 110]),
   midi.NoteOnEvent(tick=0, channel=9, data=[42, 110]),
   midi.NoteOnEvent(tick=94, channel=9, data=[38, 0]),
   midi.NoteOnEvent(tick=0, channel=9, data=[42, 0]),
   midi.NoteOnEvent(tick=2, channel=9, data=[42, 110]),
   midi.NoteOnEvent(tick=94, channel=9, data=[42, 0]),
   midi.NoteOnEvent(tick=2, channel=9, data=[36, 110]),
   midi.NoteOnEvent(tick=0, channel=9, data=[42, 110]),
   midi.NoteOnEvent(tick=94, channel=9, data=[36, 0]),
   midi.NoteOnEvent(tick=0, channel=9, data=[42, 0]),
   midi.NoteOnEvent(tick=2, channel=9, data=[42, 110]),
   midi.NoteOnEvent(tick=94, channel=9, data=[42, 0]),
   midi.NoteOnEvent(tick=2, channel=9, data=[38, 110]),
   midi.NoteOnEvent(tick=0, channel=9, data=[42, 110]),
   midi.NoteOnEvent(tick=94, channel=9, data=[38, 0]),
   midi.NoteOnEvent(tick=0, channel=9, data=[42, 0]),
   midi.NoteOnEvent(tick=2, channel=9, data=[42, 110]),
   midi.NoteOnEvent(tick=94, channel=9, data=[42, 0]),
   midi.NoteOnEvent(tick=2, channel=9, data=[36, 110]),
   midi.NoteOnEvent(tick=0, channel=9, data=[42, 110]),
   midi.NoteOnEvent(tick=94, channel=9, data=[36, 0]),
   midi.NoteOnEvent(tick=0, channel=9, data=[42, 0]),
   midi.NoteOnEvent(tick=2, channel=9, data=[36, 110]),
   midi.NoteOnEvent(tick=0, channel=9, data=[42, 110]),
   midi.NoteOnEvent(tick=94, channel=9, data=[36, 0]),
   midi.NoteOnEvent(tick=0, channel=9, data=[42, 0]),
   midi.NoteOnEvent(tick=2, channel=9, data=[38, 110]),
   midi.NoteOnEvent(tick=0, channel=9, data=[42, 110]),
   midi.NoteOnEvent(tick=94, channel=9, data=[38, 0]),
   midi.NoteOnEvent(tick=0, channel=9, data=[42, 0]),
   midi.NoteOnEvent(tick=2, channel=9, data=[42, 110]),
   midi.NoteOnEvent(tick=94, channel=9, data=[42, 0]),
   midi.NoteOnEvent(tick=2, channel=9, data=[36, 110]),
   midi.NoteOnEvent(tick=0, channel=9, data=[42, 110]),
   midi.NoteOnEvent(tick=0, channel=9, data=[49, 110]),
   midi.NoteOnEvent(tick=94, channel=9, data=[36, 0]),
   midi.NoteOnEvent(tick=0, channel=9, data=[42, 0]),
   midi.NoteOnEvent(tick=0, channel=9, data=[49, 0]),
   midi.NoteOnEvent(tick=2, channel=9, data=[38, 110]),
   midi.NoteOnEvent(tick=0, channel=9, data=[42, 110]),
   midi.NoteOnEvent(tick=94, channel=9, data=[38, 0]),
   midi.NoteOnEvent(tick=0, channel=9, data=[42, 0]),
   midi.NoteOnEvent(tick=2, channel=9, data=[36, 110]),
   midi.NoteOnEvent(tick=0, channel=9, data=[42, 110]),
   midi.NoteOnEvent(tick=94, channel=9, data=[36, 0]),
   midi.NoteOnEvent(tick=0, channel=9, data=[42, 0]),
   midi.NoteOnEvent(tick=2, channel=9, data=[38, 110]),
   midi.NoteOnEvent(tick=0, channel=9, data=[42, 110]),
   midi.NoteOnEvent(tick=94, channel=9, data=[38, 0]),
   midi.NoteOnEvent(tick=0, channel=9, data=[42, 0]),
   midi.NoteOnEvent(tick=2, channel=9, data=[36, 110]),
   midi.NoteOnEvent(tick=0, channel=9, data=[42, 110]),
   midi.NoteOnEvent(tick=94, channel=9, data=[36, 0]),
   midi.NoteOnEvent(tick=0, channel=9, data=[42, 0]),
   midi.NoteOnEvent(tick=2, channel=9, data=[38, 110]),
   midi.NoteOnEvent(tick=0, channel=9, data=[42, 110]),
   midi.NoteOnEvent(tick=94, channel=9, data=[38, 0]),
   midi.NoteOnEvent(tick=0, channel=9, data=[42, 0]),
   midi.NoteOnEvent(tick=2, channel=9, data=[36, 110]),
   midi.NoteOnEvent(tick=0, channel=9, data=[42, 110]),
   midi.NoteOnEvent(tick=94, channel=9, data=[36, 0]),
   midi.NoteOnEvent(tick=0, channel=9, data=[42, 0]),
   midi.NoteOnEvent(tick=2, channel=9, data=[38, 110]),
   midi.NoteOnEvent(tick=0, channel=9, data=[42, 110]),
   midi.NoteOnEvent(tick=94, channel=9, data=[38, 0]),
   midi.NoteOnEvent(tick=0, channel=9, data=[42, 0]),
   midi.NoteOnEvent(tick=2, channel=9, data=[36, 110]),
   midi.NoteOnEvent(tick=0, channel=9, data=[42, 110]),
   midi.NoteOnEvent(tick=0, channel=9, data=[49, 110]),
   midi.NoteOnEvent(tick=94, channel=9, data=[36, 0]),
   midi.NoteOnEvent(tick=0, channel=9, data=[42, 0]),
   midi.NoteOnEvent(tick=0, channel=9, data=[49, 0]),
   midi.NoteOnEvent(tick=2, channel=9, data=[38, 110]),
   midi.NoteOnEvent(tick=0, channel=9, data=[42, 110]),
   midi.NoteOnEvent(tick=94, channel=9, data=[38, 0]),
   midi.NoteOnEvent(tick=0, channel=9, data=[42, 0]),
   midi.NoteOnEvent(tick=2, channel=9, data=[36, 110]),
   midi.NoteOnEvent(tick=0, channel=9, data=[42, 110]),
   midi.NoteOnEvent(tick=94, channel=9, data=[36, 0]),
   midi.NoteOnEvent(tick=0, channel=9, data=[42, 0]),
   midi.NoteOnEvent(tick=2, channel=9, data=[38, 110]),
   midi.NoteOnEvent(tick=0, channel=9, data=[42, 110]),
   midi.NoteOnEvent(tick=94, channel=9, data=[38, 0]),
   midi.NoteOnEvent(tick=0, channel=9, data=[42, 0]),
   midi.NoteOnEvent(tick=2, channel=9, data=[36, 110]),
   midi.NoteOnEvent(tick=0, channel=9, data=[42, 110]),
   midi.NoteOnEvent(tick=94, channel=9, data=[36, 0]),
   midi.NoteOnEvent(tick=0, channel=9, data=[42, 0]),
   midi.NoteOnEvent(tick=2, channel=9, data=[38, 110]),
   midi.NoteOnEvent(tick=0, channel=9, data=[42, 110]),
   midi.NoteOnEvent(tick=94, channel=9, data=[38, 0]),
   midi.NoteOnEvent(tick=0, channel=9, data=[42, 0]),
   midi.NoteOnEvent(tick=2, channel=9, data=[36, 110]),
   midi.NoteOnEvent(tick=0, channel=9, data=[42, 110]),
   midi.NoteOnEvent(tick=94, channel=9, data=[36, 0]),
   midi.NoteOnEvent(tick=0, channel=9, data=[42, 0]),
   midi.NoteOnEvent(tick=2, channel=9, data=[38, 110]),
   midi.NoteOnEvent(tick=0, channel=9, data=[42, 110]),
   midi.NoteOnEvent(tick=94, channel=9, data=[38, 0]),
   midi.NoteOnEvent(tick=0, channel=9, data=[42, 0]),
   midi.NoteOnEvent(tick=2, channel=9, data=[36, 110]),
   midi.NoteOnEvent(tick=0, channel=9, data=[42, 110]),
   midi.NoteOnEvent(tick=0, channel=9, data=[49, 110]),
   midi.NoteOnEvent(tick=94, channel=9, data=[36, 0]),
   midi.NoteOnEvent(tick=0, channel=9, data=[42, 0]),
   midi.NoteOnEvent(tick=0, channel=9, data=[49, 0]),
   midi.NoteOnEvent(tick=2, channel=9, data=[38, 110]),
   midi.NoteOnEvent(tick=0, channel=9, data=[42, 110]),
   midi.NoteOnEvent(tick=94, channel=9, data=[38, 0]),
   midi.NoteOnEvent(tick=0, channel=9, data=[42, 0]),
   midi.NoteOnEvent(tick=2, channel=9, data=[36, 110]),
   midi.NoteOnEvent(tick=0, channel=9, data=[42, 110]),
   midi.NoteOnEvent(tick=94, channel=9, data=[36, 0]),
   midi.NoteOnEvent(tick=0, channel=9, data=[42, 0]),
   midi.NoteOnEvent(tick=2, channel=9, data=[38, 110]),
   midi.NoteOnEvent(tick=0, channel=9, data=[42, 110]),
   midi.NoteOnEvent(tick=94, channel=9, data=[38, 0]),
   midi.NoteOnEvent(tick=0, channel=9, data=[42, 0]),
   midi.NoteOnEvent(tick=2, channel=9, data=[36, 110]),
   midi.NoteOnEvent(tick=0, channel=9, data=[42, 110]),
   midi.NoteOnEvent(tick=94, channel=9, data=[36, 0]),
   midi.NoteOnEvent(tick=0, channel=9, data=[42, 0]),
   midi.NoteOnEvent(tick=2, channel=9, data=[38, 110]),
   midi.NoteOnEvent(tick=0, channel=9, data=[42, 110]),
   midi.NoteOnEvent(tick=94, channel=9, data=[38, 0]),
   midi.NoteOnEvent(tick=0, channel=9, data=[42, 0]),
   midi.NoteOnEvent(tick=2, channel=9, data=[36, 110]),
   midi.NoteOnEvent(tick=0, channel=9, data=[42, 110]),
   midi.NoteOnEvent(tick=0, channel=9, data=[49, 110]),
   midi.NoteOnEvent(tick=94, channel=9, data=[36, 0]),
   midi.NoteOnEvent(tick=0, channel=9, data=[42, 0]),
   midi.NoteOnEvent(tick=0, channel=9, data=[49, 0]),
   midi.NoteOnEvent(tick=2, channel=9, data=[38, 110]),
   midi.NoteOnEvent(tick=0, channel=9, data=[42, 110]),
   midi.NoteOnEvent(tick=94, channel=9, data=[38, 0]),
   midi.NoteOnEvent(tick=0, channel=9, data=[42, 0]),
   midi.NoteOnEvent(tick=2, channel=9, data=[36, 110]),
   midi.NoteOnEvent(tick=0, channel=9, data=[42, 110]),
   midi.NoteOnEvent(tick=94, channel=9, data=[36, 0]),
   midi.NoteOnEvent(tick=0, channel=9, data=[42, 0]),
   midi.NoteOnEvent(tick=2, channel=9, data=[38, 110]),
   midi.NoteOnEvent(tick=0, channel=9, data=[42, 110]),
   midi.NoteOnEvent(tick=94, channel=9, data=[38, 0]),
   midi.NoteOnEvent(tick=0, channel=9, data=[42, 0]),
   midi.NoteOnEvent(tick=2, channel=9, data=[36, 110]),
   midi.NoteOnEvent(tick=0, channel=9, data=[42, 110]),
   midi.NoteOnEvent(tick=94, channel=9, data=[36, 0]),
   midi.NoteOnEvent(tick=0, channel=9, data=[42, 0]),
   midi.NoteOnEvent(tick=2, channel=9, data=[38, 110]),
   midi.NoteOnEvent(tick=0, channel=9, data=[42, 110]),
   midi.NoteOnEvent(tick=94, channel=9, data=[38, 0]),
   midi.NoteOnEvent(tick=0, channel=9, data=[42, 0]),
   midi.NoteOnEvent(tick=2, channel=9, data=[36, 110]),
   midi.NoteOnEvent(tick=0, channel=9, data=[42, 110]),
   midi.NoteOnEvent(tick=0, channel=9, data=[49, 110]),
   midi.NoteOnEvent(tick=94, channel=9, data=[36, 0]),
   midi.NoteOnEvent(tick=0, channel=9, data=[42, 0]),
   midi.NoteOnEvent(tick=0, channel=9, data=[49, 0]),
   midi.NoteOnEvent(tick=2, channel=9, data=[38, 110]),
   midi.NoteOnEvent(tick=0, channel=9, data=[42, 110]),
   midi.NoteOnEvent(tick=94, channel=9, data=[38, 0]),
   midi.NoteOnEvent(tick=0, channel=9, data=[42, 0]),
   midi.NoteOnEvent(tick=2, channel=9, data=[36, 110]),
   midi.NoteOnEvent(tick=0, channel=9, data=[42, 110]),
   midi.NoteOnEvent(tick=94, channel=9, data=[36, 0]),
   midi.NoteOnEvent(tick=0, channel=9, data=[42, 0]),
   midi.NoteOnEvent(tick=2, channel=9, data=[38, 110]),
   midi.NoteOnEvent(tick=0, channel=9, data=[42, 110]),
   midi.NoteOnEvent(tick=94, channel=9, data=[38, 0]),
   midi.NoteOnEvent(tick=0, channel=9, data=[42, 0]),
   midi.NoteOnEvent(tick=2, channel=9, data=[36, 110]),
   midi.NoteOnEvent(tick=0, channel=9, data=[42, 110]),
   midi.NoteOnEvent(tick=94, channel=9, data=[36, 0]),
   midi.NoteOnEvent(tick=0, channel=9, data=[42, 0]),
   midi.NoteOnEvent(tick=2, channel=9, data=[38, 110]),
   midi.NoteOnEvent(tick=0, channel=9, data=[42, 110]),
   midi.NoteOnEvent(tick=94, channel=9, data=[38, 0]),
   midi.NoteOnEvent(tick=0, channel=9, data=[42, 0]),
   midi.NoteOnEvent(tick=2, channel=9, data=[36, 110]),
   midi.NoteOnEvent(tick=0, channel=9, data=[42, 110]),
   midi.NoteOnEvent(tick=94, channel=9, data=[36, 0]),
   midi.NoteOnEvent(tick=0, channel=9, data=[42, 0]),
   midi.NoteOnEvent(tick=2, channel=9, data=[38, 110]),
   midi.NoteOnEvent(tick=0, channel=9, data=[42, 110]),
   midi.NoteOnEvent(tick=94, channel=9, data=[38, 0]),
   midi.NoteOnEvent(tick=0, channel=9, data=[42, 0]),
   midi.NoteOnEvent(tick=2, channel=9, data=[36, 110]),
   midi.NoteOnEvent(tick=0, channel=9, data=[42, 110]),
   midi.NoteOnEvent(tick=0, channel=9, data=[49, 110]),
   midi.NoteOnEvent(tick=94, channel=9, data=[36, 0]),
   midi.NoteOnEvent(tick=0, channel=9, data=[42, 0]),
   midi.NoteOnEvent(tick=0, channel=9, data=[49, 0]),
   midi.NoteOnEvent(tick=2, channel=9, data=[38, 110]),
   midi.NoteOnEvent(tick=0, channel=9, data=[42, 110]),
   midi.NoteOnEvent(tick=94, channel=9, data=[38, 0]),
   midi.NoteOnEvent(tick=0, channel=9, data=[42, 0]),
   midi.NoteOnEvent(tick=2, channel=9, data=[36, 110]),
   midi.NoteOnEvent(tick=0, channel=9, data=[42, 110]),
   midi.NoteOnEvent(tick=94, channel=9, data=[36, 0]),
   midi.NoteOnEvent(tick=0, channel=9, data=[42, 0]),
   midi.NoteOnEvent(tick=2, channel=9, data=[38, 110]),
   midi.NoteOnEvent(tick=0, channel=9, data=[42, 110]),
   midi.NoteOnEvent(tick=94, channel=9, data=[38, 0]),
   midi.NoteOnEvent(tick=0, channel=9, data=[42, 0]),
   midi.NoteOnEvent(tick=2, channel=9, data=[36, 110]),
   midi.NoteOnEvent(tick=0, channel=9, data=[42, 110]),
   midi.NoteOnEvent(tick=94, channel=9, data=[36, 0]),
   midi.NoteOnEvent(tick=0, channel=9, data=[42, 0]),
   midi.NoteOnEvent(tick=2, channel=9, data=[38, 110]),
   midi.NoteOnEvent(tick=0, channel=9, data=[42, 110]),
   midi.NoteOnEvent(tick=94, channel=9, data=[38, 0]),
   midi.NoteOnEvent(tick=0, channel=9, data=[42, 0]),
   midi.NoteOnEvent(tick=2, channel=9, data=[36, 110]),
   midi.NoteOnEvent(tick=0, channel=9, data=[42, 110]),
   midi.NoteOnEvent(tick=94, channel=9, data=[36, 0]),
   midi.NoteOnEvent(tick=0, channel=9, data=[42, 0]),
   midi.NoteOnEvent(tick=2, channel=9, data=[38, 110]),
   midi.NoteOnEvent(tick=0, channel=9, data=[42, 110]),
   midi.NoteOnEvent(tick=94, channel=9, data=[38, 0]),
   midi.NoteOnEvent(tick=0, channel=9, data=[42, 0]),
   midi.NoteOnEvent(tick=2, channel=9, data=[36, 110]),
   midi.NoteOnEvent(tick=0, channel=9, data=[42, 110]),
   midi.NoteOnEvent(tick=0, channel=9, data=[49, 110]),
   midi.NoteOnEvent(tick=94, channel=9, data=[36, 0]),
   midi.NoteOnEvent(tick=0, channel=9, data=[42, 0]),
   midi.NoteOnEvent(tick=0, channel=9, data=[49, 0]),
   midi.NoteOnEvent(tick=2, channel=9, data=[38, 110]),
   midi.NoteOnEvent(tick=0, channel=9, data=[42, 110]),
   midi.NoteOnEvent(tick=94, channel=9, data=[38, 0]),
   midi.NoteOnEvent(tick=0, channel=9, data=[42, 0]),
   midi.NoteOnEvent(tick=2, channel=9, data=[36, 110]),
   midi.NoteOnEvent(tick=0, channel=9, data=[42, 110]),
   midi.NoteOnEvent(tick=94, channel=9, data=[36, 0]),
   midi.NoteOnEvent(tick=0, channel=9, data=[42, 0]),
   midi.NoteOnEvent(tick=2, channel=9, data=[38, 110]),
   midi.NoteOnEvent(tick=0, channel=9, data=[42, 110]),
   midi.NoteOnEvent(tick=94, channel=9, data=[38, 0]),
   midi.NoteOnEvent(tick=0, channel=9, data=[42, 0]),
   midi.NoteOnEvent(tick=2, channel=9, data=[36, 110]),
   midi.NoteOnEvent(tick=0, channel=9, data=[42, 110]),
   midi.NoteOnEvent(tick=94, channel=9, data=[36, 0]),
   midi.NoteOnEvent(tick=0, channel=9, data=[42, 0]),
   midi.NoteOnEvent(tick=2, channel=9, data=[38, 110]),
   midi.NoteOnEvent(tick=0, channel=9, data=[42, 110]),
   midi.NoteOnEvent(tick=94, channel=9, data=[38, 0]),
   midi.NoteOnEvent(tick=0, channel=9, data=[42, 0]),
   midi.NoteOnEvent(tick=2, channel=9, data=[36, 110]),
   midi.NoteOnEvent(tick=0, channel=9, data=[42, 110]),
   midi.NoteOnEvent(tick=0, channel=9, data=[49, 110]),
   midi.NoteOnEvent(tick=94, channel=9, data=[36, 0]),
   midi.NoteOnEvent(tick=0, channel=9, data=[42, 0]),
   midi.NoteOnEvent(tick=0, channel=9, data=[49, 0]),
   midi.NoteOnEvent(tick=2, channel=9, data=[38, 110]),
   midi.NoteOnEvent(tick=0, channel=9, data=[42, 110]),
   midi.NoteOnEvent(tick=94, channel=9, data=[38, 0]),
   midi.NoteOnEvent(tick=0, channel=9, data=[42, 0]),
   midi.NoteOnEvent(tick=2, channel=9, data=[36, 110]),
   midi.NoteOnEvent(tick=0, channel=9, data=[42, 110]),
   midi.NoteOnEvent(tick=94, channel=9, data=[36, 0]),
   midi.NoteOnEvent(tick=0, channel=9, data=[42, 0]),
   midi.NoteOnEvent(tick=2, channel=9, data=[38, 110]),
   midi.NoteOnEvent(tick=0, channel=9, data=[42, 110]),
   midi.NoteOnEvent(tick=94, channel=9, data=[38, 0]),
   midi.NoteOnEvent(tick=0, channel=9, data=[42, 0]),
   midi.NoteOnEvent(tick=2, channel=9, data=[36, 110]),
   midi.NoteOnEvent(tick=0, channel=9, data=[42, 110]),
   midi.NoteOnEvent(tick=94, channel=9, data=[36, 0]),
   midi.NoteOnEvent(tick=0, channel=9, data=[42, 0]),
   midi.NoteOnEvent(tick=2, channel=9, data=[38, 110]),
   midi.NoteOnEvent(tick=0, channel=9, data=[42, 110]),
   midi.NoteOnEvent(tick=94, channel=9, data=[38, 0]),
   midi.NoteOnEvent(tick=0, channel=9, data=[42, 0]),
   midi.NoteOnEvent(tick=2, channel=9, data=[36, 110]),
   midi.NoteOnEvent(tick=0, channel=9, data=[42, 110]),
   midi.NoteOnEvent(tick=0, channel=9, data=[49, 110]),
   midi.NoteOnEvent(tick=94, channel=9, data=[36, 0]),
   midi.NoteOnEvent(tick=0, channel=9, data=[42, 0]),
   midi.NoteOnEvent(tick=0, channel=9, data=[49, 0]),
   midi.NoteOnEvent(tick=2, channel=9, data=[38, 110]),
   midi.NoteOnEvent(tick=0, channel=9, data=[42, 110]),
   midi.NoteOnEvent(tick=94, channel=9, data=[38, 0]),
   midi.NoteOnEvent(tick=0, channel=9, data=[42, 0]),
   midi.NoteOnEvent(tick=2, channel=9, data=[36, 110]),
   midi.NoteOnEvent(tick=0, channel=9, data=[42, 110]),
   midi.NoteOnEvent(tick=94, channel=9, data=[36, 0]),
   midi.NoteOnEvent(tick=0, channel=9, data=[42, 0]),
   midi.NoteOnEvent(tick=2, channel=9, data=[38, 110]),
   midi.NoteOnEvent(tick=0, channel=9, data=[42, 110]),
   midi.NoteOnEvent(tick=94, channel=9, data=[38, 0]),
   midi.NoteOnEvent(tick=0, channel=9, data=[42, 0]),
   midi.NoteOnEvent(tick=2, channel=9, data=[36, 110]),
   midi.NoteOnEvent(tick=0, channel=9, data=[42, 110]),
   midi.NoteOnEvent(tick=94, channel=9, data=[36, 0]),
   midi.NoteOnEvent(tick=0, channel=9, data=[42, 0]),
   midi.NoteOnEvent(tick=2, channel=9, data=[38, 110]),
   midi.NoteOnEvent(tick=0, channel=9, data=[42, 110]),
   midi.NoteOnEvent(tick=94, channel=9, data=[38, 0]),
   midi.NoteOnEvent(tick=0, channel=9, data=[42, 0]),
   midi.NoteOnEvent(tick=2, channel=9, data=[36, 110]),
   midi.NoteOnEvent(tick=0, channel=9, data=[42, 110]),
   midi.NoteOnEvent(tick=94, channel=9, data=[36, 0]),
   midi.NoteOnEvent(tick=0, channel=9, data=[42, 0]),
   midi.NoteOnEvent(tick=2, channel=9, data=[38, 110]),
   midi.NoteOnEvent(tick=0, channel=9, data=[42, 110]),
   midi.NoteOnEvent(tick=94, channel=9, data=[38, 0]),
   midi.NoteOnEvent(tick=0, channel=9, data=[42, 0]),
   midi.NoteOnEvent(tick=2, channel=9, data=[36, 110]),
   midi.NoteOnEvent(tick=0, channel=9, data=[42, 110]),
   midi.NoteOnEvent(tick=0, channel=9, data=[49, 110]),
   midi.NoteOnEvent(tick=94, channel=9, data=[36, 0]),
   midi.NoteOnEvent(tick=0, channel=9, data=[42, 0]),
   midi.NoteOnEvent(tick=0, channel=9, data=[49, 0]),
   midi.NoteOnEvent(tick=2, channel=9, data=[38, 110]),
   midi.NoteOnEvent(tick=0, channel=9, data=[42, 110]),
   midi.NoteOnEvent(tick=94, channel=9, data=[38, 0]),
   midi.NoteOnEvent(tick=0, channel=9, data=[42, 0]),
   midi.NoteOnEvent(tick=2, channel=9, data=[36, 110]),
   midi.NoteOnEvent(tick=0, channel=9, data=[42, 110]),
   midi.NoteOnEvent(tick=94, channel=9, data=[36, 0]),
   midi.NoteOnEvent(tick=0, channel=9, data=[42, 0]),
   midi.NoteOnEvent(tick=2, channel=9, data=[38, 110]),
   midi.NoteOnEvent(tick=0, channel=9, data=[42, 110]),
   midi.NoteOnEvent(tick=94, channel=9, data=[38, 0]),
   midi.NoteOnEvent(tick=0, channel=9, data=[42, 0]),
   midi.NoteOnEvent(tick=2, channel=9, data=[36, 110]),
   midi.NoteOnEvent(tick=0, channel=9, data=[42, 110]),
   midi.NoteOnEvent(tick=94, channel=9, data=[36, 0]),
   midi.NoteOnEvent(tick=0, channel=9, data=[42, 0]),
   midi.NoteOnEvent(tick=2, channel=9, data=[38, 110]),
   midi.NoteOnEvent(tick=0, channel=9, data=[42, 110]),
   midi.NoteOnEvent(tick=94, channel=9, data=[38, 0]),
   midi.NoteOnEvent(tick=0, channel=9, data=[42, 0]),
   midi.NoteOnEvent(tick=2, channel=9, data=[36, 110]),
   midi.NoteOnEvent(tick=0, channel=9, data=[42, 110]),
   midi.NoteOnEvent(tick=94, channel=9, data=[36, 0]),
   midi.NoteOnEvent(tick=0, channel=9, data=[42, 0]),
   midi.NoteOnEvent(tick=2, channel=9, data=[38, 110]),
   midi.NoteOnEvent(tick=0, channel=9, data=[42, 110]),
   midi.NoteOnEvent(tick=94, channel=9, data=[38, 0]),
   midi.NoteOnEvent(tick=0, channel=9, data=[42, 0]),
   midi.NoteOnEvent(tick=2, channel=9, data=[36, 110]),
   midi.NoteOnEvent(tick=0, channel=9, data=[42, 110]),
   midi.NoteOnEvent(tick=0, channel=9, data=[49, 110]),
   midi.NoteOnEvent(tick=94, channel=9, data=[36, 0]),
   midi.NoteOnEvent(tick=0, channel=9, data=[42, 0]),
   midi.NoteOnEvent(tick=0, channel=9, data=[49, 0]),
   midi.NoteOnEvent(tick=2, channel=9, data=[38, 110]),
   midi.NoteOnEvent(tick=0, channel=9, data=[42, 110]),
   midi.NoteOnEvent(tick=94, channel=9, data=[38, 0]),
   midi.NoteOnEvent(tick=0, channel=9, data=[42, 0]),
   midi.NoteOnEvent(tick=2, channel=9, data=[36, 110]),
   midi.NoteOnEvent(tick=0, channel=9, data=[42, 110]),
   midi.NoteOnEvent(tick=94, channel=9, data=[36, 0]),
   midi.NoteOnEvent(tick=0, channel=9, data=[42, 0]),
   midi.NoteOnEvent(tick=2, channel=9, data=[38, 110]),
   midi.NoteOnEvent(tick=0, channel=9, data=[42, 110]),
   midi.NoteOnEvent(tick=94, channel=9, data=[38, 0]),
   midi.NoteOnEvent(tick=0, channel=9, data=[42, 0]),
   midi.NoteOnEvent(tick=2, channel=9, data=[36, 110]),
   midi.NoteOnEvent(tick=0, channel=9, data=[42, 110]),
   midi.NoteOnEvent(tick=94, channel=9, data=[36, 0]),
   midi.NoteOnEvent(tick=0, channel=9, data=[42, 0]),
   midi.NoteOnEvent(tick=2, channel=9, data=[38, 110]),
   midi.NoteOnEvent(tick=0, channel=9, data=[42, 110]),
   midi.NoteOnEvent(tick=94, channel=9, data=[38, 0]),
   midi.NoteOnEvent(tick=0, channel=9, data=[42, 0]),
   midi.NoteOnEvent(tick=2, channel=9, data=[36, 110]),
   midi.NoteOnEvent(tick=0, channel=9, data=[42, 110]),
   midi.NoteOnEvent(tick=0, channel=9, data=[49, 110]),
   midi.NoteOnEvent(tick=94, channel=9, data=[36, 0]),
   midi.NoteOnEvent(tick=0, channel=9, data=[42, 0]),
   midi.NoteOnEvent(tick=0, channel=9, data=[49, 0]),
   midi.NoteOnEvent(tick=2, channel=9, data=[38, 110]),
   midi.NoteOnEvent(tick=0, channel=9, data=[42, 110]),
   midi.NoteOnEvent(tick=94, channel=9, data=[38, 0]),
   midi.NoteOnEvent(tick=0, channel=9, data=[42, 0]),
   midi.NoteOnEvent(tick=2, channel=9, data=[36, 110]),
   midi.NoteOnEvent(tick=0, channel=9, data=[42, 110]),
   midi.NoteOnEvent(tick=94, channel=9, data=[36, 0]),
   midi.NoteOnEvent(tick=0, channel=9, data=[42, 0]),
   midi.NoteOnEvent(tick=2, channel=9, data=[38, 110]),
   midi.NoteOnEvent(tick=0, channel=9, data=[42, 110]),
   midi.NoteOnEvent(tick=94, channel=9, data=[38, 0]),
   midi.NoteOnEvent(tick=0, channel=9, data=[42, 0]),
   midi.NoteOnEvent(tick=2, channel=9, data=[36, 110]),
   midi.NoteOnEvent(tick=0, channel=9, data=[42, 110]),
   midi.NoteOnEvent(tick=94, channel=9, data=[36, 0]),
   midi.NoteOnEvent(tick=0, channel=9, data=[42, 0]),
   midi.NoteOnEvent(tick=2, channel=9, data=[38, 110]),
   midi.NoteOnEvent(tick=0, channel=9, data=[42, 110]),
   midi.NoteOnEvent(tick=94, channel=9, data=[38, 0]),
   midi.NoteOnEvent(tick=0, channel=9, data=[42, 0]),
   midi.NoteOnEvent(tick=2, channel=9, data=[36, 110]),
   midi.NoteOnEvent(tick=0, channel=9, data=[42, 110]),
   midi.NoteOnEvent(tick=0, channel=9, data=[49, 110]),
   midi.NoteOnEvent(tick=94, channel=9, data=[36, 0]),
   midi.NoteOnEvent(tick=0, channel=9, data=[42, 0]),
   midi.NoteOnEvent(tick=0, channel=9, data=[49, 0]),
   midi.NoteOnEvent(tick=2, channel=9, data=[38, 110]),
   midi.NoteOnEvent(tick=0, channel=9, data=[42, 110]),
   midi.NoteOnEvent(tick=94, channel=9, data=[38, 0]),
   midi.NoteOnEvent(tick=0, channel=9, data=[42, 0]),
   midi.NoteOnEvent(tick=2, channel=9, data=[36, 110]),
   midi.NoteOnEvent(tick=0, channel=9, data=[42, 110]),
   midi.NoteOnEvent(tick=94, channel=9, data=[36, 0]),
   midi.NoteOnEvent(tick=0, channel=9, data=[42, 0]),
   midi.NoteOnEvent(tick=2, channel=9, data=[38, 110]),
   midi.NoteOnEvent(tick=0, channel=9, data=[42, 110]),
   midi.NoteOnEvent(tick=94, channel=9, data=[38, 0]),
   midi.NoteOnEvent(tick=0, channel=9, data=[42, 0]),
   midi.NoteOnEvent(tick=2, channel=9, data=[36, 110]),
   midi.NoteOnEvent(tick=0, channel=9, data=[42, 110]),
   midi.NoteOnEvent(tick=94, channel=9, data=[36, 0]),
   midi.NoteOnEvent(tick=0, channel=9, data=[42, 0]),
   midi.NoteOnEvent(tick=2, channel=9, data=[38, 110]),
   midi.NoteOnEvent(tick=0, channel=9, data=[42, 110]),
   midi.NoteOnEvent(tick=94, channel=9, data=[38, 0]),
   midi.NoteOnEvent(tick=0, channel=9, data=[42, 0]),
   midi.NoteOnEvent(tick=2, channel=9, data=[36, 110]),
   midi.NoteOnEvent(tick=0, channel=9, data=[42, 110]),
   midi.NoteOnEvent(tick=94, channel=9, data=[36, 0]),
   midi.NoteOnEvent(tick=0, channel=9, data=[42, 0]),
   midi.NoteOnEvent(tick=2, channel=9, data=[38, 110]),
   midi.NoteOnEvent(tick=0, channel=9, data=[42, 110]),
   midi.NoteOnEvent(tick=94, channel=9, data=[38, 0]),
   midi.NoteOnEvent(tick=0, channel=9, data=[42, 0]),
   midi.NoteOnEvent(tick=2, channel=9, data=[36, 110]),
   midi.NoteOnEvent(tick=0, channel=9, data=[42, 110]),
   midi.NoteOnEvent(tick=0, channel=9, data=[49, 110]),
   midi.NoteOnEvent(tick=94, channel=9, data=[36, 0]),
   midi.NoteOnEvent(tick=0, channel=9, data=[42, 0]),
   midi.NoteOnEvent(tick=0, channel=9, data=[49, 0]),
   midi.NoteOnEvent(tick=2, channel=9, data=[38, 110]),
   midi.NoteOnEvent(tick=0, channel=9, data=[42, 110]),
   midi.NoteOnEvent(tick=94, channel=9, data=[38, 0]),
   midi.NoteOnEvent(tick=0, channel=9, data=[42, 0]),
   midi.NoteOnEvent(tick=2, channel=9, data=[36, 110]),
   midi.NoteOnEvent(tick=0, channel=9, data=[42, 110]),
   midi.NoteOnEvent(tick=94, channel=9, data=[36, 0]),
   midi.NoteOnEvent(tick=0, channel=9, data=[42, 0]),
   midi.NoteOnEvent(tick=2, channel=9, data=[38, 110]),
   midi.NoteOnEvent(tick=0, channel=9, data=[42, 110]),
   midi.NoteOnEvent(tick=94, channel=9, data=[38, 0]),
   midi.NoteOnEvent(tick=0, channel=9, data=[42, 0]),
   midi.NoteOnEvent(tick=2, channel=9, data=[36, 110]),
   midi.NoteOnEvent(tick=0, channel=9, data=[42, 110]),
   midi.NoteOnEvent(tick=94, channel=9, data=[36, 0]),
   midi.NoteOnEvent(tick=0, channel=9, data=[42, 0]),
   midi.NoteOnEvent(tick=2, channel=9, data=[38, 110]),
   midi.NoteOnEvent(tick=0, channel=9, data=[42, 110]),
   midi.NoteOnEvent(tick=94, channel=9, data=[38, 0]),
   midi.NoteOnEvent(tick=0, channel=9, data=[42, 0]),
   midi.NoteOnEvent(tick=2, channel=9, data=[36, 110]),
   midi.NoteOnEvent(tick=0, channel=9, data=[42, 110]),
   midi.NoteOnEvent(tick=94, channel=9, data=[36, 0]),
   midi.NoteOnEvent(tick=0, channel=9, data=[42, 0]),
   midi.NoteOnEvent(tick=2, channel=9, data=[38, 110]),
   midi.NoteOnEvent(tick=0, channel=9, data=[42, 110]),
   midi.NoteOnEvent(tick=94, channel=9, data=[38, 0]),
   midi.NoteOnEvent(tick=0, channel=9, data=[42, 0]),
   midi.NoteOnEvent(tick=2, channel=9, data=[36, 110]),
   midi.NoteOnEvent(tick=0, channel=9, data=[42, 110]),
   midi.NoteOnEvent(tick=0, channel=9, data=[49, 110]),
   midi.NoteOnEvent(tick=94, channel=9, data=[36, 0]),
   midi.NoteOnEvent(tick=0, channel=9, data=[42, 0]),
   midi.NoteOnEvent(tick=0, channel=9, data=[49, 0]),
   midi.NoteOnEvent(tick=2, channel=9, data=[38, 110]),
   midi.NoteOnEvent(tick=0, channel=9, data=[42, 110]),
   midi.NoteOnEvent(tick=94, channel=9, data=[38, 0]),
   midi.NoteOnEvent(tick=0, channel=9, data=[42, 0]),
   midi.NoteOnEvent(tick=2, channel=9, data=[36, 110]),
   midi.NoteOnEvent(tick=0, channel=9, data=[42, 110]),
   midi.NoteOnEvent(tick=94, channel=9, data=[36, 0]),
   midi.NoteOnEvent(tick=0, channel=9, data=[42, 0]),
   midi.NoteOnEvent(tick=2, channel=9, data=[38, 110]),
   midi.NoteOnEvent(tick=0, channel=9, data=[42, 110]),
   midi.NoteOnEvent(tick=94, channel=9, data=[38, 0]),
   midi.NoteOnEvent(tick=0, channel=9, data=[42, 0]),
   midi.NoteOnEvent(tick=2, channel=9, data=[36, 110]),
   midi.NoteOnEvent(tick=0, channel=9, data=[42, 110]),
   midi.NoteOnEvent(tick=94, channel=9, data=[36, 0]),
   midi.NoteOnEvent(tick=0, channel=9, data=[42, 0]),
   midi.NoteOnEvent(tick=2, channel=9, data=[38, 110]),
   midi.NoteOnEvent(tick=0, channel=9, data=[42, 110]),
   midi.NoteOnEvent(tick=94, channel=9, data=[38, 0]),
   midi.NoteOnEvent(tick=0, channel=9, data=[42, 0]),
   midi.NoteOnEvent(tick=2, channel=9, data=[36, 110]),
   midi.NoteOnEvent(tick=0, channel=9, data=[42, 110]),
   midi.NoteOnEvent(tick=0, channel=9, data=[49, 110]),
   midi.NoteOnEvent(tick=94, channel=9, data=[36, 0]),
   midi.NoteOnEvent(tick=0, channel=9, data=[42, 0]),
   midi.NoteOnEvent(tick=0, channel=9, data=[49, 0]),
   midi.NoteOnEvent(tick=2, channel=9, data=[38, 110]),
   midi.NoteOnEvent(tick=0, channel=9, data=[42, 110]),
   midi.NoteOnEvent(tick=94, channel=9, data=[38, 0]),
   midi.NoteOnEvent(tick=0, channel=9, data=[42, 0]),
   midi.NoteOnEvent(tick=2, channel=9, data=[36, 110]),
   midi.NoteOnEvent(tick=0, channel=9, data=[42, 110]),
   midi.NoteOnEvent(tick=94, channel=9, data=[36, 0]),
   midi.NoteOnEvent(tick=0, channel=9, data=[42, 0]),
   midi.NoteOnEvent(tick=2, channel=9, data=[38, 110]),
   midi.NoteOnEvent(tick=0, channel=9, data=[42, 110]),
   midi.NoteOnEvent(tick=94, channel=9, data=[38, 0]),
   midi.NoteOnEvent(tick=0, channel=9, data=[42, 0]),
   midi.NoteOnEvent(tick=2, channel=9, data=[36, 110]),
   midi.NoteOnEvent(tick=0, channel=9, data=[42, 110]),
   midi.NoteOnEvent(tick=94, channel=9, data=[36, 0]),
   midi.NoteOnEvent(tick=0, channel=9, data=[42, 0]),
   midi.NoteOnEvent(tick=2, channel=9, data=[38, 110]),
   midi.NoteOnEvent(tick=0, channel=9, data=[42, 110]),
   midi.NoteOnEvent(tick=94, channel=9, data=[38, 0]),
   midi.NoteOnEvent(tick=0, channel=9, data=[42, 0]),
   midi.NoteOnEvent(tick=2, channel=9, data=[36, 110]),
   midi.NoteOnEvent(tick=0, channel=9, data=[42, 110]),
   midi.NoteOnEvent(tick=0, channel=9, data=[49, 110]),
   midi.NoteOnEvent(tick=94, channel=9, data=[36, 0]),
   midi.NoteOnEvent(tick=0, channel=9, data=[42, 0]),
   midi.NoteOnEvent(tick=0, channel=9, data=[49, 0]),
   midi.NoteOnEvent(tick=2, channel=9, data=[38, 110]),
   midi.NoteOnEvent(tick=0, channel=9, data=[42, 110]),
   midi.NoteOnEvent(tick=94, channel=9, data=[38, 0]),
   midi.NoteOnEvent(tick=0, channel=9, data=[42, 0]),
   midi.NoteOnEvent(tick=2, channel=9, data=[36, 110]),
   midi.NoteOnEvent(tick=0, channel=9, data=[42, 110]),
   midi.NoteOnEvent(tick=94, channel=9, data=[36, 0]),
   midi.NoteOnEvent(tick=0, channel=9, data=[42, 0]),
   midi.NoteOnEvent(tick=2, channel=9, data=[38, 110]),
   midi.NoteOnEvent(tick=0, channel=9, data=[42, 110]),
   midi.NoteOnEvent(tick=94, channel=9, data=[38, 0]),
   midi.NoteOnEvent(tick=0, channel=9, data=[42, 0]),
   midi.NoteOnEvent(tick=2, channel=9, data=[36, 110]),
   midi.NoteOnEvent(tick=0, channel=9, data=[42, 110]),
   midi.NoteOnEvent(tick=94, channel=9, data=[36, 0]),
   midi.NoteOnEvent(tick=0, channel=9, data=[42, 0]),
   midi.NoteOnEvent(tick=2, channel=9, data=[38, 110]),
   midi.NoteOnEvent(tick=0, channel=9, data=[42, 110]),
   midi.NoteOnEvent(tick=94, channel=9, data=[38, 0]),
   midi.NoteOnEvent(tick=0, channel=9, data=[42, 0]),
   midi.NoteOnEvent(tick=2, channel=9, data=[36, 110]),
   midi.NoteOnEvent(tick=0, channel=9, data=[42, 110]),
   midi.NoteOnEvent(tick=94, channel=9, data=[36, 0]),
   midi.NoteOnEvent(tick=0, channel=9, data=[42, 0]),
   midi.NoteOnEvent(tick=2, channel=9, data=[38, 110]),
   midi.NoteOnEvent(tick=0, channel=9, data=[42, 110]),
   midi.NoteOnEvent(tick=94, channel=9, data=[38, 0]),
   midi.NoteOnEvent(tick=0, channel=9, data=[42, 0]),
   midi.NoteOnEvent(tick=2, channel=9, data=[36, 110]),
   midi.NoteOnEvent(tick=0, channel=9, data=[42, 110]),
   midi.NoteOnEvent(tick=0, channel=9, data=[49, 110]),
   midi.NoteOnEvent(tick=94, channel=9, data=[36, 0]),
   midi.NoteOnEvent(tick=0, channel=9, data=[42, 0]),
   midi.NoteOnEvent(tick=0, channel=9, data=[49, 0]),
   midi.NoteOnEvent(tick=2, channel=9, data=[38, 110]),
   midi.NoteOnEvent(tick=0, channel=9, data=[42, 110]),
   midi.NoteOnEvent(tick=94, channel=9, data=[38, 0]),
   midi.NoteOnEvent(tick=0, channel=9, data=[42, 0]),
   midi.NoteOnEvent(tick=2, channel=9, data=[36, 110]),
   midi.NoteOnEvent(tick=0, channel=9, data=[42, 110]),
   midi.NoteOnEvent(tick=94, channel=9, data=[36, 0]),
   midi.NoteOnEvent(tick=0, channel=9, data=[42, 0]),
   midi.NoteOnEvent(tick=2, channel=9, data=[38, 110]),
   midi.NoteOnEvent(tick=0, channel=9, data=[42, 110]),
   midi.NoteOnEvent(tick=94, channel=9, data=[38, 0]),
   midi.NoteOnEvent(tick=0, channel=9, data=[42, 0]),
   midi.NoteOnEvent(tick=2, channel=9, data=[36, 110]),
   midi.NoteOnEvent(tick=0, channel=9, data=[42, 110]),
   midi.NoteOnEvent(tick=94, channel=9, data=[36, 0]),
   midi.NoteOnEvent(tick=0, channel=9, data=[42, 0]),
   midi.NoteOnEvent(tick=2, channel=9, data=[38, 110]),
   midi.NoteOnEvent(tick=0, channel=9, data=[42, 110]),
   midi.NoteOnEvent(tick=94, channel=9, data=[38, 0]),
   midi.NoteOnEvent(tick=0, channel=9, data=[42, 0]),
   midi.NoteOnEvent(tick=2, channel=9, data=[36, 110]),
   midi.NoteOnEvent(tick=0, channel=9, data=[42, 110]),
   midi.NoteOnEvent(tick=94, channel=9, data=[36, 0]),
   midi.NoteOnEvent(tick=0, channel=9, data=[42, 0]),
   midi.NoteOnEvent(tick=2, channel=9, data=[38, 110]),
   midi.NoteOnEvent(tick=0, channel=9, data=[42, 110]),
   midi.NoteOnEvent(tick=94, channel=9, data=[38, 0]),
   midi.NoteOnEvent(tick=0, channel=9, data=[42, 0]),
   midi.NoteOnEvent(tick=2, channel=9, data=[36, 110]),
   midi.NoteOnEvent(tick=0, channel=9, data=[42, 110]),
   midi.NoteOnEvent(tick=0, channel=9, data=[49, 110]),
   midi.NoteOnEvent(tick=94, channel=9, data=[36, 0]),
   midi.NoteOnEvent(tick=0, channel=9, data=[42, 0]),
   midi.NoteOnEvent(tick=0, channel=9, data=[49, 0]),
   midi.NoteOnEvent(tick=2, channel=9, data=[38, 110]),
   midi.NoteOnEvent(tick=0, channel=9, data=[42, 110]),
   midi.NoteOnEvent(tick=94, channel=9, data=[38, 0]),
   midi.NoteOnEvent(tick=0, channel=9, data=[42, 0]),
   midi.NoteOnEvent(tick=2, channel=9, data=[36, 110]),
   midi.NoteOnEvent(tick=0, channel=9, data=[42, 110]),
   midi.NoteOnEvent(tick=94, channel=9, data=[36, 0]),
   midi.NoteOnEvent(tick=0, channel=9, data=[42, 0]),
   midi.NoteOnEvent(tick=2, channel=9, data=[38, 110]),
   midi.NoteOnEvent(tick=0, channel=9, data=[42, 110]),
   midi.NoteOnEvent(tick=94, channel=9, data=[38, 0]),
   midi.NoteOnEvent(tick=0, channel=9, data=[42, 0]),
   midi.NoteOnEvent(tick=2, channel=9, data=[36, 110]),
   midi.NoteOnEvent(tick=0, channel=9, data=[42, 110]),
   midi.NoteOnEvent(tick=94, channel=9, data=[36, 0]),
   midi.NoteOnEvent(tick=0, channel=9, data=[42, 0]),
   midi.NoteOnEvent(tick=2, channel=9, data=[38, 110]),
   midi.NoteOnEvent(tick=0, channel=9, data=[42, 110]),
   midi.NoteOnEvent(tick=94, channel=9, data=[38, 0]),
   midi.NoteOnEvent(tick=0, channel=9, data=[42, 0]),
   midi.NoteOnEvent(tick=2, channel=9, data=[36, 110]),
   midi.NoteOnEvent(tick=0, channel=9, data=[42, 110]),
   midi.NoteOnEvent(tick=0, channel=9, data=[49, 110]),
   midi.NoteOnEvent(tick=94, channel=9, data=[36, 0]),
   midi.NoteOnEvent(tick=0, channel=9, data=[42, 0]),
   midi.NoteOnEvent(tick=0, channel=9, data=[49, 0]),
   midi.NoteOnEvent(tick=2, channel=9, data=[38, 110]),
   midi.NoteOnEvent(tick=0, channel=9, data=[42, 110]),
   midi.NoteOnEvent(tick=94, channel=9, data=[38, 0]),
   midi.NoteOnEvent(tick=0, channel=9, data=[42, 0]),
   midi.NoteOnEvent(tick=2, channel=9, data=[36, 110]),
   midi.NoteOnEvent(tick=0, channel=9, data=[42, 110]),
   midi.NoteOnEvent(tick=94, channel=9, data=[36, 0]),
   midi.NoteOnEvent(tick=0, channel=9, data=[42, 0]),
   midi.NoteOnEvent(tick=2, channel=9, data=[38, 110]),
   midi.NoteOnEvent(tick=0, channel=9, data=[42, 110]),
   midi.NoteOnEvent(tick=94, channel=9, data=[38, 0]),
   midi.NoteOnEvent(tick=0, channel=9, data=[42, 0]),
   midi.NoteOnEvent(tick=2, channel=9, data=[36, 110]),
   midi.NoteOnEvent(tick=0, channel=9, data=[42, 110]),
   midi.NoteOnEvent(tick=94, channel=9, data=[36, 0]),
   midi.NoteOnEvent(tick=0, channel=9, data=[42, 0]),
   midi.NoteOnEvent(tick=2, channel=9, data=[38, 110]),
   midi.NoteOnEvent(tick=0, channel=9, data=[42, 110]),
   midi.NoteOnEvent(tick=94, channel=9, data=[38, 0]),
   midi.NoteOnEvent(tick=0, channel=9, data=[42, 0]),
   midi.NoteOnEvent(tick=2, channel=9, data=[36, 110]),
   midi.NoteOnEvent(tick=0, channel=9, data=[42, 110]),
   midi.NoteOnEvent(tick=0, channel=9, data=[49, 110]),
   midi.NoteOnEvent(tick=94, channel=9, data=[36, 0]),
   midi.NoteOnEvent(tick=0, channel=9, data=[42, 0]),
   midi.NoteOnEvent(tick=0, channel=9, data=[49, 0]),
   midi.NoteOnEvent(tick=2, channel=9, data=[38, 110]),
   midi.NoteOnEvent(tick=0, channel=9, data=[42, 110]),
   midi.NoteOnEvent(tick=94, channel=9, data=[38, 0]),
   midi.NoteOnEvent(tick=0, channel=9, data=[42, 0]),
   midi.NoteOnEvent(tick=2, channel=9, data=[36, 110]),
   midi.NoteOnEvent(tick=0, channel=9, data=[42, 110]),
   midi.NoteOnEvent(tick=94, channel=9, data=[36, 0]),
   midi.NoteOnEvent(tick=0, channel=9, data=[42, 0]),
   midi.NoteOnEvent(tick=2, channel=9, data=[38, 110]),
   midi.NoteOnEvent(tick=0, channel=9, data=[42, 110]),
   midi.NoteOnEvent(tick=94, channel=9, data=[38, 0]),
   midi.NoteOnEvent(tick=0, channel=9, data=[42, 0]),
   midi.NoteOnEvent(tick=2, channel=9, data=[36, 110]),
   midi.NoteOnEvent(tick=0, channel=9, data=[42, 110]),
   midi.NoteOnEvent(tick=94, channel=9, data=[36, 0]),
   midi.NoteOnEvent(tick=0, channel=9, data=[42, 0]),
   midi.NoteOnEvent(tick=2, channel=9, data=[38, 110]),
   midi.NoteOnEvent(tick=0, channel=9, data=[42, 110]),
   midi.NoteOnEvent(tick=94, channel=9, data=[38, 0]),
   midi.NoteOnEvent(tick=0, channel=9, data=[42, 0]),
   midi.NoteOnEvent(tick=2, channel=9, data=[36, 110]),
   midi.NoteOnEvent(tick=0, channel=9, data=[42, 110]),
   midi.NoteOnEvent(tick=94, channel=9, data=[36, 0]),
   midi.NoteOnEvent(tick=0, channel=9, data=[42, 0]),
   midi.NoteOnEvent(tick=2, channel=9, data=[38, 110]),
   midi.NoteOnEvent(tick=0, channel=9, data=[42, 110]),
   midi.NoteOnEvent(tick=94, channel=9, data=[38, 0]),
   midi.NoteOnEvent(tick=0, channel=9, data=[42, 0]),
   midi.NoteOnEvent(tick=2, channel=9, data=[36, 110]),
   midi.NoteOnEvent(tick=0, channel=9, data=[42, 110]),
   midi.NoteOnEvent(tick=0, channel=9, data=[49, 110]),
   midi.NoteOnEvent(tick=94, channel=9, data=[36, 0]),
   midi.NoteOnEvent(tick=0, channel=9, data=[42, 0]),
   midi.NoteOnEvent(tick=0, channel=9, data=[49, 0]),
   midi.NoteOnEvent(tick=2, channel=9, data=[38, 110]),
   midi.NoteOnEvent(tick=0, channel=9, data=[42, 110]),
   midi.NoteOnEvent(tick=94, channel=9, data=[38, 0]),
   midi.NoteOnEvent(tick=0, channel=9, data=[42, 0]),
   midi.NoteOnEvent(tick=2, channel=9, data=[36, 110]),
   midi.NoteOnEvent(tick=0, channel=9, data=[42, 110]),
   midi.NoteOnEvent(tick=94, channel=9, data=[36, 0]),
   midi.NoteOnEvent(tick=0, channel=9, data=[42, 0]),
   midi.NoteOnEvent(tick=2, channel=9, data=[38, 110]),
   midi.NoteOnEvent(tick=0, channel=9, data=[42, 110]),
   midi.NoteOnEvent(tick=94, channel=9, data=[38, 0]),
   midi.NoteOnEvent(tick=0, channel=9, data=[42, 0]),
   midi.NoteOnEvent(tick=2, channel=9, data=[36, 110]),
   midi.NoteOnEvent(tick=0, channel=9, data=[42, 110]),
   midi.NoteOnEvent(tick=94, channel=9, data=[36, 0]),
   midi.NoteOnEvent(tick=0, channel=9, data=[42, 0]),
   midi.NoteOnEvent(tick=2, channel=9, data=[38, 110]),
   midi.NoteOnEvent(tick=0, channel=9, data=[42, 110]),
   midi.NoteOnEvent(tick=94, channel=9, data=[38, 0]),
   midi.NoteOnEvent(tick=0, channel=9, data=[42, 0]),
   midi.NoteOnEvent(tick=2, channel=9, data=[36, 110]),
   midi.NoteOnEvent(tick=0, channel=9, data=[42, 110]),
   midi.NoteOnEvent(tick=94, channel=9, data=[36, 0]),
   midi.NoteOnEvent(tick=0, channel=9, data=[42, 0]),
   midi.NoteOnEvent(tick=2, channel=9, data=[38, 110]),
   midi.NoteOnEvent(tick=0, channel=9, data=[42, 110]),
   midi.NoteOnEvent(tick=94, channel=9, data=[38, 0]),
   midi.NoteOnEvent(tick=0, channel=9, data=[42, 0]),
   midi.NoteOnEvent(tick=2, channel=9, data=[36, 110]),
   midi.NoteOnEvent(tick=0, channel=9, data=[42, 110]),
   midi.NoteOnEvent(tick=0, channel=9, data=[49, 110]),
   midi.NoteOnEvent(tick=94, channel=9, data=[36, 0]),
   midi.NoteOnEvent(tick=0, channel=9, data=[42, 0]),
   midi.NoteOnEvent(tick=0, channel=9, data=[49, 0]),
   midi.NoteOnEvent(tick=2, channel=9, data=[38, 110]),
   midi.NoteOnEvent(tick=0, channel=9, data=[42, 110]),
   midi.NoteOnEvent(tick=94, channel=9, data=[38, 0]),
   midi.NoteOnEvent(tick=0, channel=9, data=[42, 0]),
   midi.NoteOnEvent(tick=2, channel=9, data=[36, 110]),
   midi.NoteOnEvent(tick=0, channel=9, data=[42, 110]),
   midi.NoteOnEvent(tick=94, channel=9, data=[36, 0]),
   midi.NoteOnEvent(tick=0, channel=9, data=[42, 0]),
   midi.NoteOnEvent(tick=2, channel=9, data=[38, 110]),
   midi.NoteOnEvent(tick=0, channel=9, data=[42, 110]),
   midi.NoteOnEvent(tick=94, channel=9, data=[38, 0]),
   midi.NoteOnEvent(tick=0, channel=9, data=[42, 0]),
   midi.NoteOnEvent(tick=2, channel=9, data=[36, 110]),
   midi.NoteOnEvent(tick=0, channel=9, data=[42, 110]),
   midi.NoteOnEvent(tick=94, channel=9, data=[36, 0]),
   midi.NoteOnEvent(tick=0, channel=9, data=[42, 0]),
   midi.NoteOnEvent(tick=2, channel=9, data=[38, 110]),
   midi.NoteOnEvent(tick=0, channel=9, data=[42, 110]),
   midi.NoteOnEvent(tick=94, channel=9, data=[38, 0]),
   midi.NoteOnEvent(tick=0, channel=9, data=[42, 0]),
   midi.NoteOnEvent(tick=2, channel=9, data=[36, 110]),
   midi.NoteOnEvent(tick=0, channel=9, data=[42, 110]),
   midi.NoteOnEvent(tick=0, channel=9, data=[49, 110]),
   midi.NoteOnEvent(tick=94, channel=9, data=[36, 0]),
   midi.NoteOnEvent(tick=0, channel=9, data=[42, 0]),
   midi.NoteOnEvent(tick=0, channel=9, data=[49, 0]),
   midi.NoteOnEvent(tick=2, channel=9, data=[38, 110]),
   midi.NoteOnEvent(tick=0, channel=9, data=[42, 110]),
   midi.NoteOnEvent(tick=94, channel=9, data=[38, 0]),
   midi.NoteOnEvent(tick=0, channel=9, data=[42, 0]),
   midi.NoteOnEvent(tick=2, channel=9, data=[36, 110]),
   midi.NoteOnEvent(tick=0, channel=9, data=[42, 110]),
   midi.NoteOnEvent(tick=94, channel=9, data=[36, 0]),
   midi.NoteOnEvent(tick=0, channel=9, data=[42, 0]),
   midi.NoteOnEvent(tick=2, channel=9, data=[38, 110]),
   midi.NoteOnEvent(tick=0, channel=9, data=[42, 110]),
   midi.NoteOnEvent(tick=94, channel=9, data=[38, 0]),
   midi.NoteOnEvent(tick=0, channel=9, data=[42, 0]),
   midi.NoteOnEvent(tick=2, channel=9, data=[36, 110]),
   midi.NoteOnEvent(tick=0, channel=9, data=[42, 110]),
   midi.NoteOnEvent(tick=94, channel=9, data=[36, 0]),
   midi.NoteOnEvent(tick=0, channel=9, data=[42, 0]),
   midi.NoteOnEvent(tick=2, channel=9, data=[38, 110]),
   midi.NoteOnEvent(tick=0, channel=9, data=[42, 110]),
   midi.NoteOnEvent(tick=94, channel=9, data=[38, 0]),
   midi.NoteOnEvent(tick=0, channel=9, data=[42, 0]),
   midi.NoteOnEvent(tick=2, channel=9, data=[36, 110]),
   midi.NoteOnEvent(tick=0, channel=9, data=[38, 110]),
   midi.NoteOnEvent(tick=0, channel=9, data=[42, 110]),
   midi.NoteOnEvent(tick=0, channel=9, data=[49, 110]),
   midi.NoteOnEvent(tick=126, channel=9, data=[36, 0]),
   midi.NoteOnEvent(tick=0, channel=9, data=[38, 0]),
   midi.NoteOnEvent(tick=0, channel=9, data=[42, 0]),
   midi.NoteOnEvent(tick=0, channel=9, data=[49, 0]),
   midi.NoteOnEvent(tick=2, channel=9, data=[36, 110]),
   midi.NoteOnEvent(tick=0, channel=9, data=[38, 110]),
   midi.NoteOnEvent(tick=0, channel=9, data=[42, 110]),
   midi.NoteOnEvent(tick=0, channel=9, data=[49, 110]),
   midi.NoteOnEvent(tick=126, channel=9, data=[36, 0]),
   midi.NoteOnEvent(tick=0, channel=9, data=[38, 0]),
   midi.NoteOnEvent(tick=0, channel=9, data=[42, 0]),
   midi.NoteOnEvent(tick=0, channel=9, data=[49, 0]),
   midi.NoteOnEvent(tick=2, channel=9, data=[36, 110]),
   midi.NoteOnEvent(tick=0, channel=9, data=[38, 110]),
   midi.NoteOnEvent(tick=0, channel=9, data=[42, 110]),
   midi.NoteOnEvent(tick=0, channel=9, data=[49, 110]),
   midi.NoteOnEvent(tick=126, channel=9, data=[36, 0]),
   midi.NoteOnEvent(tick=0, channel=9, data=[38, 0]),
   midi.NoteOnEvent(tick=0, channel=9, data=[42, 0]),
   midi.NoteOnEvent(tick=0, channel=9, data=[49, 0]),
   midi.NoteOnEvent(tick=2, channel=9, data=[36, 110]),
   midi.NoteOnEvent(tick=0, channel=9, data=[38, 110]),
   midi.NoteOnEvent(tick=0, channel=9, data=[42, 110]),
   midi.NoteOnEvent(tick=0, channel=9, data=[49, 110]),
   midi.NoteOnEvent(tick=160, channel=9, data=[36, 0]),
   midi.NoteOnEvent(tick=0, channel=9, data=[38, 0]),
   midi.NoteOnEvent(tick=0, channel=9, data=[42, 0]),
   midi.NoteOnEvent(tick=0, channel=9, data=[49, 0]),
   midi.NoteOnEvent(tick=32, channel=9, data=[36, 110]),
   midi.NoteOnEvent(tick=0, channel=9, data=[38, 110]),
   midi.NoteOnEvent(tick=0, channel=9, data=[42, 110]),
   midi.NoteOnEvent(tick=0, channel=9, data=[49, 110]),
   midi.NoteOnEvent(tick=160, channel=9, data=[36, 0]),
   midi.NoteOnEvent(tick=0, channel=9, data=[38, 0]),
   midi.NoteOnEvent(tick=0, channel=9, data=[42, 0]),
   midi.NoteOnEvent(tick=0, channel=9, data=[49, 0]),
   midi.NoteOnEvent(tick=32, channel=9, data=[36, 110]),
   midi.NoteOnEvent(tick=0, channel=9, data=[38, 110]),
   midi.NoteOnEvent(tick=94, channel=9, data=[36, 0]),
   midi.NoteOnEvent(tick=0, channel=9, data=[38, 0]),
   midi.NoteOnEvent(tick=2, channel=9, data=[38, 110]),
   midi.NoteOnEvent(tick=46, channel=9, data=[38, 0]),
   midi.NoteOnEvent(tick=2, channel=9, data=[38, 110]),
   midi.NoteOnEvent(tick=46, channel=9, data=[38, 0]),
   midi.NoteOnEvent(tick=2, channel=9, data=[36, 110]),
   midi.NoteOnEvent(tick=0, channel=9, data=[38, 110]),
   midi.NoteOnEvent(tick=94, channel=9, data=[36, 0]),
   midi.NoteOnEvent(tick=0, channel=9, data=[38, 0]),
   midi.NoteOnEvent(tick=2, channel=9, data=[38, 110]),
   midi.NoteOnEvent(tick=94, channel=9, data=[38, 0]),
   midi.NoteOnEvent(tick=2, channel=9, data=[36, 110]),
   midi.NoteOnEvent(tick=0, channel=9, data=[38, 110]),
   midi.NoteOnEvent(tick=94, channel=9, data=[36, 0]),
   midi.NoteOnEvent(tick=0, channel=9, data=[38, 0]),
   midi.NoteOnEvent(tick=2, channel=9, data=[38, 110]),
   midi.NoteOnEvent(tick=94, channel=9, data=[38, 0]),
   midi.NoteOnEvent(tick=2, channel=9, data=[36, 110]),
   midi.NoteOnEvent(tick=0, channel=9, data=[38, 110]),
   midi.NoteOnEvent(tick=94, channel=9, data=[36, 0]),
   midi.NoteOnEvent(tick=0, channel=9, data=[38, 0]),
   midi.NoteOnEvent(tick=2, channel=9, data=[36, 110]),
   midi.NoteOnEvent(tick=0, channel=9, data=[38, 110]),
   midi.NoteOnEvent(tick=0, channel=9, data=[49, 110]),
   midi.NoteOnEvent(tick=94, channel=9, data=[36, 0]),
   midi.NoteOnEvent(tick=0, channel=9, data=[38, 0]),
   midi.NoteOnEvent(tick=0, channel=9, data=[49, 0]),
   midi.NoteOnEvent(tick=2, channel=9, data=[42, 110]),
   midi.NoteOnEvent(tick=94, channel=9, data=[42, 0]),
   midi.NoteOnEvent(tick=2, channel=9, data=[36, 110]),
   midi.NoteOnEvent(tick=0, channel=9, data=[42, 110]),
   midi.NoteOnEvent(tick=94, channel=9, data=[36, 0]),
   midi.NoteOnEvent(tick=0, channel=9, data=[42, 0]),
   midi.NoteOnEvent(tick=2, channel=9, data=[38, 110]),
   midi.NoteOnEvent(tick=0, channel=9, data=[42, 110]),
   midi.NoteOnEvent(tick=94, channel=9, data=[38, 0]),
   midi.NoteOnEvent(tick=0, channel=9, data=[42, 0]),
   midi.NoteOnEvent(tick=2, channel=9, data=[42, 110]),
   midi.NoteOnEvent(tick=94, channel=9, data=[42, 0]),
   midi.NoteOnEvent(tick=2, channel=9, data=[36, 110]),
   midi.NoteOnEvent(tick=0, channel=9, data=[42, 110]),
   midi.NoteOnEvent(tick=94, channel=9, data=[36, 0]),
   midi.NoteOnEvent(tick=0, channel=9, data=[42, 0]),
   midi.NoteOnEvent(tick=2, channel=9, data=[42, 110]),
   midi.NoteOnEvent(tick=94, channel=9, data=[42, 0]),
   midi.NoteOnEvent(tick=2, channel=9, data=[38, 110]),
   midi.NoteOnEvent(tick=0, channel=9, data=[42, 110]),
   midi.NoteOnEvent(tick=94, channel=9, data=[38, 0]),
   midi.NoteOnEvent(tick=0, channel=9, data=[42, 0]),
   midi.NoteOnEvent(tick=2, channel=9, data=[42, 110]),
   midi.NoteOnEvent(tick=94, channel=9, data=[42, 0]),
   midi.NoteOnEvent(tick=2, channel=9, data=[42, 110]),
   midi.NoteOnEvent(tick=94, channel=9, data=[42, 0]),
   midi.NoteOnEvent(tick=2, channel=9, data=[36, 110]),
   midi.NoteOnEvent(tick=0, channel=9, data=[42, 110]),
   midi.NoteOnEvent(tick=94, channel=9, data=[36, 0]),
   midi.NoteOnEvent(tick=0, channel=9, data=[42, 0]),
   midi.NoteOnEvent(tick=2, channel=9, data=[38, 110]),
   midi.NoteOnEvent(tick=0, channel=9, data=[42, 110]),
   midi.NoteOnEvent(tick=94, channel=9, data=[38, 0]),
   midi.NoteOnEvent(tick=0, channel=9, data=[42, 0]),
   midi.NoteOnEvent(tick=2, channel=9, data=[42, 110]),
   midi.NoteOnEvent(tick=94, channel=9, data=[42, 0]),
   midi.NoteOnEvent(tick=2, channel=9, data=[36, 110]),
   midi.NoteOnEvent(tick=0, channel=9, data=[42, 110]),
   midi.NoteOnEvent(tick=94, channel=9, data=[36, 0]),
   midi.NoteOnEvent(tick=0, channel=9, data=[42, 0]),
   midi.NoteOnEvent(tick=2, channel=9, data=[42, 110]),
   midi.NoteOnEvent(tick=94, channel=9, data=[42, 0]),
   midi.NoteOnEvent(tick=2, channel=9, data=[38, 110]),
   midi.NoteOnEvent(tick=0, channel=9, data=[42, 110]),
   midi.NoteOnEvent(tick=94, channel=9, data=[38, 0]),
   midi.NoteOnEvent(tick=0, channel=9, data=[42, 0]),
   midi.NoteOnEvent(tick=2, channel=9, data=[42, 110]),
   midi.NoteOnEvent(tick=94, channel=9, data=[42, 0]),
   midi.NoteOnEvent(tick=2, channel=9, data=[42, 110]),
   midi.NoteOnEvent(tick=94, channel=9, data=[42, 0]),
   midi.NoteOnEvent(tick=2, channel=9, data=[36, 110]),
   midi.NoteOnEvent(tick=0, channel=9, data=[42, 110]),
   midi.NoteOnEvent(tick=94, channel=9, data=[36, 0]),
   midi.NoteOnEvent(tick=0, channel=9, data=[42, 0]),
   midi.NoteOnEvent(tick=2, channel=9, data=[38, 110]),
   midi.NoteOnEvent(tick=0, channel=9, data=[42, 110]),
   midi.NoteOnEvent(tick=94, channel=9, data=[38, 0]),
   midi.NoteOnEvent(tick=0, channel=9, data=[42, 0]),
   midi.NoteOnEvent(tick=2, channel=9, data=[42, 110]),
   midi.NoteOnEvent(tick=94, channel=9, data=[42, 0]),
   midi.NoteOnEvent(tick=2, channel=9, data=[36, 110]),
   midi.NoteOnEvent(tick=0, channel=9, data=[42, 110]),
   midi.NoteOnEvent(tick=94, channel=9, data=[36, 0]),
   midi.NoteOnEvent(tick=0, channel=9, data=[42, 0]),
   midi.NoteOnEvent(tick=2, channel=9, data=[42, 110]),
   midi.NoteOnEvent(tick=94, channel=9, data=[42, 0]),
   midi.NoteOnEvent(tick=2, channel=9, data=[38, 110]),
   midi.NoteOnEvent(tick=0, channel=9, data=[42, 110]),
   midi.NoteOnEvent(tick=94, channel=9, data=[38, 0]),
   midi.NoteOnEvent(tick=0, channel=9, data=[42, 0]),
   midi.NoteOnEvent(tick=2, channel=9, data=[42, 110]),
   midi.NoteOnEvent(tick=94, channel=9, data=[42, 0]),
   midi.NoteOnEvent(tick=2, channel=9, data=[36, 110]),
   midi.NoteOnEvent(tick=0, channel=9, data=[38, 110]),
   midi.NoteOnEvent(tick=94, channel=9, data=[36, 0]),
   midi.NoteOnEvent(tick=0, channel=9, data=[38, 0]),
   midi.NoteOnEvent(tick=2, channel=9, data=[38, 110]),
   midi.NoteOnEvent(tick=46, channel=9, data=[38, 0]),
   midi.NoteOnEvent(tick=2, channel=9, data=[38, 110]),
   midi.NoteOnEvent(tick=46, channel=9, data=[38, 0]),
   midi.NoteOnEvent(tick=2, channel=9, data=[36, 110]),
   midi.NoteOnEvent(tick=0, channel=9, data=[38, 110]),
   midi.NoteOnEvent(tick=94, channel=9, data=[36, 0]),
   midi.NoteOnEvent(tick=0, channel=9, data=[38, 0]),
   midi.NoteOnEvent(tick=2, channel=9, data=[38, 110]),
   midi.NoteOnEvent(tick=94, channel=9, data=[38, 0]),
   midi.NoteOnEvent(tick=2, channel=9, data=[36, 110]),
   midi.NoteOnEvent(tick=0, channel=9, data=[38, 110]),
   midi.NoteOnEvent(tick=94, channel=9, data=[36, 0]),
   midi.NoteOnEvent(tick=0, channel=9, data=[38, 0]),
   midi.NoteOnEvent(tick=2, channel=9, data=[38, 110]),
   midi.NoteOnEvent(tick=94, channel=9, data=[38, 0]),
   midi.NoteOnEvent(tick=2, channel=9, data=[36, 110]),
   midi.NoteOnEvent(tick=0, channel=9, data=[38, 110]),
   midi.NoteOnEvent(tick=94, channel=9, data=[36, 0]),
   midi.NoteOnEvent(tick=0, channel=9, data=[38, 0]),
   midi.NoteOnEvent(tick=2, channel=9, data=[36, 110]),
   midi.NoteOnEvent(tick=0, channel=9, data=[38, 110]),
   midi.NoteOnEvent(tick=0, channel=9, data=[49, 110]),
   midi.NoteOnEvent(tick=94, channel=9, data=[36, 0]),
   midi.NoteOnEvent(tick=0, channel=9, data=[38, 0]),
   midi.NoteOnEvent(tick=0, channel=9, data=[49, 0]),
   midi.NoteOnEvent(tick=2, channel=9, data=[42, 110]),
   midi.NoteOnEvent(tick=94, channel=9, data=[42, 0]),
   midi.NoteOnEvent(tick=2, channel=9, data=[36, 110]),
   midi.NoteOnEvent(tick=0, channel=9, data=[42, 110]),
   midi.NoteOnEvent(tick=94, channel=9, data=[36, 0]),
   midi.NoteOnEvent(tick=0, channel=9, data=[42, 0]),
   midi.NoteOnEvent(tick=2, channel=9, data=[38, 110]),
   midi.NoteOnEvent(tick=0, channel=9, data=[42, 110]),
   midi.NoteOnEvent(tick=94, channel=9, data=[38, 0]),
   midi.NoteOnEvent(tick=0, channel=9, data=[42, 0]),
   midi.NoteOnEvent(tick=2, channel=9, data=[42, 110]),
   midi.NoteOnEvent(tick=94, channel=9, data=[42, 0]),
   midi.NoteOnEvent(tick=2, channel=9, data=[36, 110]),
   midi.NoteOnEvent(tick=0, channel=9, data=[42, 110]),
   midi.NoteOnEvent(tick=94, channel=9, data=[36, 0]),
   midi.NoteOnEvent(tick=0, channel=9, data=[42, 0]),
   midi.NoteOnEvent(tick=2, channel=9, data=[42, 110]),
   midi.NoteOnEvent(tick=94, channel=9, data=[42, 0]),
   midi.NoteOnEvent(tick=2, channel=9, data=[38, 110]),
   midi.NoteOnEvent(tick=0, channel=9, data=[42, 110]),
   midi.NoteOnEvent(tick=94, channel=9, data=[38, 0]),
   midi.NoteOnEvent(tick=0, channel=9, data=[42, 0]),
   midi.NoteOnEvent(tick=2, channel=9, data=[42, 110]),
   midi.NoteOnEvent(tick=94, channel=9, data=[42, 0]),
   midi.NoteOnEvent(tick=2, channel=9, data=[42, 110]),
   midi.NoteOnEvent(tick=94, channel=9, data=[42, 0]),
   midi.NoteOnEvent(tick=2, channel=9, data=[36, 110]),
   midi.NoteOnEvent(tick=0, channel=9, data=[42, 110]),
   midi.NoteOnEvent(tick=94, channel=9, data=[36, 0]),
   midi.NoteOnEvent(tick=0, channel=9, data=[42, 0]),
   midi.NoteOnEvent(tick=2, channel=9, data=[38, 110]),
   midi.NoteOnEvent(tick=0, channel=9, data=[42, 110]),
   midi.NoteOnEvent(tick=94, channel=9, data=[38, 0]),
   midi.NoteOnEvent(tick=0, channel=9, data=[42, 0]),
   midi.NoteOnEvent(tick=2, channel=9, data=[42, 110]),
   midi.NoteOnEvent(tick=94, channel=9, data=[42, 0]),
   midi.NoteOnEvent(tick=2, channel=9, data=[36, 110]),
   midi.NoteOnEvent(tick=0, channel=9, data=[42, 110]),
   midi.NoteOnEvent(tick=94, channel=9, data=[36, 0]),
   midi.NoteOnEvent(tick=0, channel=9, data=[42, 0]),
   midi.NoteOnEvent(tick=2, channel=9, data=[42, 110]),
   midi.NoteOnEvent(tick=94, channel=9, data=[42, 0]),
   midi.NoteOnEvent(tick=2, channel=9, data=[38, 110]),
   midi.NoteOnEvent(tick=0, channel=9, data=[42, 110]),
   midi.NoteOnEvent(tick=94, channel=9, data=[38, 0]),
   midi.NoteOnEvent(tick=0, channel=9, data=[42, 0]),
   midi.NoteOnEvent(tick=2, channel=9, data=[42, 110]),
   midi.NoteOnEvent(tick=94, channel=9, data=[42, 0]),
   midi.NoteOnEvent(tick=2, channel=9, data=[42, 110]),
   midi.NoteOnEvent(tick=94, channel=9, data=[42, 0]),
   midi.NoteOnEvent(tick=2, channel=9, data=[36, 110]),
   midi.NoteOnEvent(tick=0, channel=9, data=[42, 110]),
   midi.NoteOnEvent(tick=94, channel=9, data=[36, 0]),
   midi.NoteOnEvent(tick=0, channel=9, data=[42, 0]),
   midi.NoteOnEvent(tick=2, channel=9, data=[38, 110]),
   midi.NoteOnEvent(tick=0, channel=9, data=[42, 110]),
   midi.NoteOnEvent(tick=94, channel=9, data=[38, 0]),
   midi.NoteOnEvent(tick=0, channel=9, data=[42, 0]),
   midi.NoteOnEvent(tick=2, channel=9, data=[42, 110]),
   midi.NoteOnEvent(tick=94, channel=9, data=[42, 0]),
   midi.NoteOnEvent(tick=2, channel=9, data=[36, 110]),
   midi.NoteOnEvent(tick=0, channel=9, data=[42, 110]),
   midi.NoteOnEvent(tick=94, channel=9, data=[36, 0]),
   midi.NoteOnEvent(tick=0, channel=9, data=[42, 0]),
   midi.NoteOnEvent(tick=2, channel=9, data=[42, 110]),
   midi.NoteOnEvent(tick=94, channel=9, data=[42, 0]),
   midi.NoteOnEvent(tick=2, channel=9, data=[38, 110]),
   midi.NoteOnEvent(tick=0, channel=9, data=[42, 110]),
   midi.NoteOnEvent(tick=94, channel=9, data=[38, 0]),
   midi.NoteOnEvent(tick=0, channel=9, data=[42, 0]),
   midi.NoteOnEvent(tick=2, channel=9, data=[42, 110]),
   midi.NoteOnEvent(tick=94, channel=9, data=[42, 0]),
   midi.NoteOnEvent(tick=2, channel=9, data=[36, 110]),
   midi.NoteOnEvent(tick=0, channel=9, data=[38, 110]),
   midi.NoteOnEvent(tick=94, channel=9, data=[36, 0]),
   midi.NoteOnEvent(tick=0, channel=9, data=[38, 0]),
   midi.NoteOnEvent(tick=2, channel=9, data=[38, 110]),
   midi.NoteOnEvent(tick=46, channel=9, data=[38, 0]),
   midi.NoteOnEvent(tick=2, channel=9, data=[38, 110]),
   midi.NoteOnEvent(tick=46, channel=9, data=[38, 0]),
   midi.NoteOnEvent(tick=2, channel=9, data=[36, 110]),
   midi.NoteOnEvent(tick=0, channel=9, data=[38, 110]),
   midi.NoteOnEvent(tick=94, channel=9, data=[36, 0]),
   midi.NoteOnEvent(tick=0, channel=9, data=[38, 0]),
   midi.NoteOnEvent(tick=2, channel=9, data=[38, 110]),
   midi.NoteOnEvent(tick=94, channel=9, data=[38, 0]),
   midi.NoteOnEvent(tick=2, channel=9, data=[36, 110]),
   midi.NoteOnEvent(tick=0, channel=9, data=[38, 110]),
   midi.NoteOnEvent(tick=94, channel=9, data=[36, 0]),
   midi.NoteOnEvent(tick=0, channel=9, data=[38, 0]),
   midi.NoteOnEvent(tick=2, channel=9, data=[38, 110]),
   midi.NoteOnEvent(tick=94, channel=9, data=[38, 0]),
   midi.NoteOnEvent(tick=2, channel=9, data=[36, 110]),
   midi.NoteOnEvent(tick=0, channel=9, data=[38, 110]),
   midi.NoteOnEvent(tick=94, channel=9, data=[36, 0]),
   midi.NoteOnEvent(tick=0, channel=9, data=[38, 0]),
   midi.NoteOnEvent(tick=2, channel=9, data=[36, 110]),
   midi.NoteOnEvent(tick=0, channel=9, data=[38, 110]),
   midi.NoteOnEvent(tick=0, channel=9, data=[49, 110]),
   midi.NoteOnEvent(tick=94, channel=9, data=[36, 0]),
   midi.NoteOnEvent(tick=0, channel=9, data=[38, 0]),
   midi.NoteOnEvent(tick=0, channel=9, data=[49, 0]),
   midi.NoteOnEvent(tick=2, channel=9, data=[42, 110]),
   midi.NoteOnEvent(tick=94, channel=9, data=[42, 0]),
   midi.NoteOnEvent(tick=2, channel=9, data=[36, 110]),
   midi.NoteOnEvent(tick=0, channel=9, data=[42, 110]),
   midi.NoteOnEvent(tick=94, channel=9, data=[36, 0]),
   midi.NoteOnEvent(tick=0, channel=9, data=[42, 0]),
   midi.NoteOnEvent(tick=2, channel=9, data=[38, 110]),
   midi.NoteOnEvent(tick=0, channel=9, data=[42, 110]),
   midi.NoteOnEvent(tick=94, channel=9, data=[38, 0]),
   midi.NoteOnEvent(tick=0, channel=9, data=[42, 0]),
   midi.NoteOnEvent(tick=2, channel=9, data=[42, 110]),
   midi.NoteOnEvent(tick=94, channel=9, data=[42, 0]),
   midi.NoteOnEvent(tick=2, channel=9, data=[36, 110]),
   midi.NoteOnEvent(tick=0, channel=9, data=[42, 110]),
   midi.NoteOnEvent(tick=94, channel=9, data=[36, 0]),
   midi.NoteOnEvent(tick=0, channel=9, data=[42, 0]),
   midi.NoteOnEvent(tick=2, channel=9, data=[42, 110]),
   midi.NoteOnEvent(tick=94, channel=9, data=[42, 0]),
   midi.NoteOnEvent(tick=2, channel=9, data=[38, 110]),
   midi.NoteOnEvent(tick=0, channel=9, data=[42, 110]),
   midi.NoteOnEvent(tick=94, channel=9, data=[38, 0]),
   midi.NoteOnEvent(tick=0, channel=9, data=[42, 0]),
   midi.NoteOnEvent(tick=2, channel=9, data=[42, 110]),
   midi.NoteOnEvent(tick=94, channel=9, data=[42, 0]),
   midi.NoteOnEvent(tick=2, channel=9, data=[42, 110]),
   midi.NoteOnEvent(tick=94, channel=9, data=[42, 0]),
   midi.NoteOnEvent(tick=2, channel=9, data=[36, 110]),
   midi.NoteOnEvent(tick=0, channel=9, data=[42, 110]),
   midi.NoteOnEvent(tick=94, channel=9, data=[36, 0]),
   midi.NoteOnEvent(tick=0, channel=9, data=[42, 0]),
   midi.NoteOnEvent(tick=2, channel=9, data=[38, 110]),
   midi.NoteOnEvent(tick=0, channel=9, data=[42, 110]),
   midi.NoteOnEvent(tick=94, channel=9, data=[38, 0]),
   midi.NoteOnEvent(tick=0, channel=9, data=[42, 0]),
   midi.NoteOnEvent(tick=2, channel=9, data=[42, 110]),
   midi.NoteOnEvent(tick=94, channel=9, data=[42, 0]),
   midi.NoteOnEvent(tick=2, channel=9, data=[36, 110]),
   midi.NoteOnEvent(tick=0, channel=9, data=[42, 110]),
   midi.NoteOnEvent(tick=94, channel=9, data=[36, 0]),
   midi.NoteOnEvent(tick=0, channel=9, data=[42, 0]),
   midi.NoteOnEvent(tick=2, channel=9, data=[42, 110]),
   midi.NoteOnEvent(tick=94, channel=9, data=[42, 0]),
   midi.NoteOnEvent(tick=2, channel=9, data=[38, 110]),
   midi.NoteOnEvent(tick=0, channel=9, data=[42, 110]),
   midi.NoteOnEvent(tick=94, channel=9, data=[38, 0]),
   midi.NoteOnEvent(tick=0, channel=9, data=[42, 0]),
   midi.NoteOnEvent(tick=2, channel=9, data=[42, 110]),
   midi.NoteOnEvent(tick=94, channel=9, data=[42, 0]),
   midi.NoteOnEvent(tick=2, channel=9, data=[42, 110]),
   midi.NoteOnEvent(tick=94, channel=9, data=[42, 0]),
   midi.NoteOnEvent(tick=2, channel=9, data=[36, 110]),
   midi.NoteOnEvent(tick=0, channel=9, data=[42, 110]),
   midi.NoteOnEvent(tick=94, channel=9, data=[36, 0]),
   midi.NoteOnEvent(tick=0, channel=9, data=[42, 0]),
   midi.NoteOnEvent(tick=2, channel=9, data=[38, 110]),
   midi.NoteOnEvent(tick=0, channel=9, data=[42, 110]),
   midi.NoteOnEvent(tick=94, channel=9, data=[38, 0]),
   midi.NoteOnEvent(tick=0, channel=9, data=[42, 0]),
   midi.NoteOnEvent(tick=2, channel=9, data=[42, 110]),
   midi.NoteOnEvent(tick=94, channel=9, data=[42, 0]),
   midi.NoteOnEvent(tick=2, channel=9, data=[36, 110]),
   midi.NoteOnEvent(tick=0, channel=9, data=[42, 110]),
   midi.NoteOnEvent(tick=94, channel=9, data=[36, 0]),
   midi.NoteOnEvent(tick=0, channel=9, data=[42, 0]),
   midi.NoteOnEvent(tick=2, channel=9, data=[42, 110]),
   midi.NoteOnEvent(tick=94, channel=9, data=[42, 0]),
   midi.NoteOnEvent(tick=2, channel=9, data=[38, 110]),
   midi.NoteOnEvent(tick=0, channel=9, data=[42, 110]),
   midi.NoteOnEvent(tick=94, channel=9, data=[38, 0]),
   midi.NoteOnEvent(tick=0, channel=9, data=[42, 0]),
   midi.NoteOnEvent(tick=2, channel=9, data=[42, 110]),
   midi.NoteOnEvent(tick=94, channel=9, data=[42, 0]),
   midi.NoteOnEvent(tick=2, channel=9, data=[36, 110]),
   midi.NoteOnEvent(tick=0, channel=9, data=[38, 110]),
   midi.NoteOnEvent(tick=94, channel=9, data=[36, 0]),
   midi.NoteOnEvent(tick=0, channel=9, data=[38, 0]),
   midi.NoteOnEvent(tick=2, channel=9, data=[38, 110]),
   midi.NoteOnEvent(tick=46, channel=9, data=[38, 0]),
   midi.NoteOnEvent(tick=2, channel=9, data=[38, 110]),
   midi.NoteOnEvent(tick=46, channel=9, data=[38, 0]),
   midi.NoteOnEvent(tick=2, channel=9, data=[36, 110]),
   midi.NoteOnEvent(tick=0, channel=9, data=[38, 110]),
   midi.NoteOnEvent(tick=94, channel=9, data=[36, 0]),
   midi.NoteOnEvent(tick=0, channel=9, data=[38, 0]),
   midi.NoteOnEvent(tick=2, channel=9, data=[38, 110]),
   midi.NoteOnEvent(tick=94, channel=9, data=[38, 0]),
   midi.NoteOnEvent(tick=2, channel=9, data=[36, 110]),
   midi.NoteOnEvent(tick=0, channel=9, data=[38, 110]),
   midi.NoteOnEvent(tick=94, channel=9, data=[36, 0]),
   midi.NoteOnEvent(tick=0, channel=9, data=[38, 0]),
   midi.NoteOnEvent(tick=2, channel=9, data=[38, 110]),
   midi.NoteOnEvent(tick=94, channel=9, data=[38, 0]),
   midi.NoteOnEvent(tick=2, channel=9, data=[36, 110]),
   midi.NoteOnEvent(tick=0, channel=9, data=[38, 110]),
   midi.NoteOnEvent(tick=94, channel=9, data=[36, 0]),
   midi.NoteOnEvent(tick=0, channel=9, data=[38, 0]),
   midi.NoteOnEvent(tick=2, channel=9, data=[36, 110]),
   midi.NoteOnEvent(tick=0, channel=9, data=[38, 110]),
   midi.NoteOnEvent(tick=0, channel=9, data=[49, 110]),
   midi.NoteOnEvent(tick=94, channel=9, data=[36, 0]),
   midi.NoteOnEvent(tick=0, channel=9, data=[38, 0]),
   midi.NoteOnEvent(tick=0, channel=9, data=[49, 0]),
   midi.NoteOnEvent(tick=2, channel=9, data=[42, 110]),
   midi.NoteOnEvent(tick=94, channel=9, data=[42, 0]),
   midi.NoteOnEvent(tick=2, channel=9, data=[36, 110]),
   midi.NoteOnEvent(tick=0, channel=9, data=[42, 110]),
   midi.NoteOnEvent(tick=94, channel=9, data=[36, 0]),
   midi.NoteOnEvent(tick=0, channel=9, data=[42, 0]),
   midi.NoteOnEvent(tick=2, channel=9, data=[38, 110]),
   midi.NoteOnEvent(tick=0, channel=9, data=[42, 110]),
   midi.NoteOnEvent(tick=94, channel=9, data=[38, 0]),
   midi.NoteOnEvent(tick=0, channel=9, data=[42, 0]),
   midi.NoteOnEvent(tick=2, channel=9, data=[42, 110]),
   midi.NoteOnEvent(tick=94, channel=9, data=[42, 0]),
   midi.NoteOnEvent(tick=2, channel=9, data=[36, 110]),
   midi.NoteOnEvent(tick=0, channel=9, data=[42, 110]),
   midi.NoteOnEvent(tick=94, channel=9, data=[36, 0]),
   midi.NoteOnEvent(tick=0, channel=9, data=[42, 0]),
   midi.NoteOnEvent(tick=2, channel=9, data=[42, 110]),
   midi.NoteOnEvent(tick=94, channel=9, data=[42, 0]),
   midi.NoteOnEvent(tick=2, channel=9, data=[38, 110]),
   midi.NoteOnEvent(tick=0, channel=9, data=[42, 110]),
   midi.NoteOnEvent(tick=94, channel=9, data=[38, 0]),
   midi.NoteOnEvent(tick=0, channel=9, data=[42, 0]),
   midi.NoteOnEvent(tick=2, channel=9, data=[42, 110]),
   midi.NoteOnEvent(tick=94, channel=9, data=[42, 0]),
   midi.NoteOnEvent(tick=2, channel=9, data=[42, 110]),
   midi.NoteOnEvent(tick=94, channel=9, data=[42, 0]),
   midi.NoteOnEvent(tick=2, channel=9, data=[36, 110]),
   midi.NoteOnEvent(tick=0, channel=9, data=[42, 110]),
   midi.NoteOnEvent(tick=94, channel=9, data=[36, 0]),
   midi.NoteOnEvent(tick=0, channel=9, data=[42, 0]),
   midi.NoteOnEvent(tick=2, channel=9, data=[38, 110]),
   midi.NoteOnEvent(tick=0, channel=9, data=[42, 110]),
   midi.NoteOnEvent(tick=94, channel=9, data=[38, 0]),
   midi.NoteOnEvent(tick=0, channel=9, data=[42, 0]),
   midi.NoteOnEvent(tick=2, channel=9, data=[42, 110]),
   midi.NoteOnEvent(tick=94, channel=9, data=[42, 0]),
   midi.NoteOnEvent(tick=2, channel=9, data=[36, 110]),
   midi.NoteOnEvent(tick=0, channel=9, data=[42, 110]),
   midi.NoteOnEvent(tick=94, channel=9, data=[36, 0]),
   midi.NoteOnEvent(tick=0, channel=9, data=[42, 0]),
   midi.NoteOnEvent(tick=2, channel=9, data=[42, 110]),
   midi.NoteOnEvent(tick=94, channel=9, data=[42, 0]),
   midi.NoteOnEvent(tick=2, channel=9, data=[38, 110]),
   midi.NoteOnEvent(tick=0, channel=9, data=[42, 110]),
   midi.NoteOnEvent(tick=94, channel=9, data=[38, 0]),
   midi.NoteOnEvent(tick=0, channel=9, data=[42, 0]),
   midi.NoteOnEvent(tick=2, channel=9, data=[42, 110]),
   midi.NoteOnEvent(tick=94, channel=9, data=[42, 0]),
   midi.NoteOnEvent(tick=2, channel=9, data=[42, 110]),
   midi.NoteOnEvent(tick=94, channel=9, data=[42, 0]),
   midi.NoteOnEvent(tick=2, channel=9, data=[36, 110]),
   midi.NoteOnEvent(tick=0, channel=9, data=[42, 110]),
   midi.NoteOnEvent(tick=94, channel=9, data=[36, 0]),
   midi.NoteOnEvent(tick=0, channel=9, data=[42, 0]),
   midi.NoteOnEvent(tick=2, channel=9, data=[38, 110]),
   midi.NoteOnEvent(tick=0, channel=9, data=[42, 110]),
   midi.NoteOnEvent(tick=94, channel=9, data=[38, 0]),
   midi.NoteOnEvent(tick=0, channel=9, data=[42, 0]),
   midi.NoteOnEvent(tick=2, channel=9, data=[42, 110]),
   midi.NoteOnEvent(tick=94, channel=9, data=[42, 0]),
   midi.NoteOnEvent(tick=2, channel=9, data=[36, 110]),
   midi.NoteOnEvent(tick=0, channel=9, data=[42, 110]),
   midi.NoteOnEvent(tick=94, channel=9, data=[36, 0]),
   midi.NoteOnEvent(tick=0, channel=9, data=[42, 0]),
   midi.NoteOnEvent(tick=2, channel=9, data=[42, 110]),
   midi.NoteOnEvent(tick=94, channel=9, data=[42, 0]),
   midi.NoteOnEvent(tick=2, channel=9, data=[38, 110]),
   midi.NoteOnEvent(tick=0, channel=9, data=[42, 110]),
   midi.NoteOnEvent(tick=94, channel=9, data=[38, 0]),
   midi.NoteOnEvent(tick=0, channel=9, data=[42, 0]),
   midi.NoteOnEvent(tick=2, channel=9, data=[42, 110]),
   midi.NoteOnEvent(tick=94, channel=9, data=[42, 0]),
   midi.NoteOnEvent(tick=2, channel=9, data=[36, 110]),
   midi.NoteOnEvent(tick=0, channel=9, data=[38, 110]),
   midi.NoteOnEvent(tick=94, channel=9, data=[36, 0]),
   midi.NoteOnEvent(tick=0, channel=9, data=[38, 0]),
   midi.NoteOnEvent(tick=2, channel=9, data=[38, 110]),
   midi.NoteOnEvent(tick=46, channel=9, data=[38, 0]),
   midi.NoteOnEvent(tick=2, channel=9, data=[38, 110]),
   midi.NoteOnEvent(tick=46, channel=9, data=[38, 0]),
   midi.NoteOnEvent(tick=2, channel=9, data=[36, 110]),
   midi.NoteOnEvent(tick=0, channel=9, data=[38, 110]),
   midi.NoteOnEvent(tick=94, channel=9, data=[36, 0]),
   midi.NoteOnEvent(tick=0, channel=9, data=[38, 0]),
   midi.NoteOnEvent(tick=2, channel=9, data=[38, 110]),
   midi.NoteOnEvent(tick=94, channel=9, data=[38, 0]),
   midi.NoteOnEvent(tick=2, channel=9, data=[36, 110]),
   midi.NoteOnEvent(tick=0, channel=9, data=[38, 110]),
   midi.NoteOnEvent(tick=94, channel=9, data=[36, 0]),
   midi.NoteOnEvent(tick=0, channel=9, data=[38, 0]),
   midi.NoteOnEvent(tick=2, channel=9, data=[38, 110]),
   midi.NoteOnEvent(tick=94, channel=9, data=[38, 0]),
   midi.NoteOnEvent(tick=2, channel=9, data=[36, 110]),
   midi.NoteOnEvent(tick=0, channel=9, data=[38, 110]),
   midi.NoteOnEvent(tick=94, channel=9, data=[36, 0]),
   midi.NoteOnEvent(tick=0, channel=9, data=[38, 0]),
   midi.NoteOnEvent(tick=2, channel=9, data=[36, 110]),
   midi.NoteOnEvent(tick=0, channel=9, data=[38, 110]),
   midi.NoteOnEvent(tick=0, channel=9, data=[42, 110]),
   midi.NoteOnEvent(tick=0, channel=9, data=[49, 110]),
   midi.NoteOnEvent(tick=94, channel=9, data=[36, 0]),
   midi.NoteOnEvent(tick=0, channel=9, data=[38, 0]),
   midi.NoteOnEvent(tick=0, channel=9, data=[42, 0]),
   midi.NoteOnEvent(tick=0, channel=9, data=[49, 0]),
   midi.NoteOnEvent(tick=962, channel=9, data=[36, 110]),
   midi.NoteOnEvent(tick=0, channel=9, data=[42, 110]),
   midi.NoteOnEvent(tick=0, channel=9, data=[49, 110]),
   midi.NoteOnEvent(tick=160, channel=9, data=[36, 0]),
   midi.NoteOnEvent(tick=0, channel=9, data=[42, 0]),
   midi.NoteOnEvent(tick=0, channel=9, data=[49, 0]),
   midi.NoteOnEvent(tick=32, channel=9, data=[42, 110]),
   midi.NoteOnEvent(tick=160, channel=9, data=[42, 0]),
   midi.NoteOnEvent(tick=32, channel=9, data=[38, 110]),
   midi.NoteOnEvent(tick=0, channel=9, data=[42, 110]),
   midi.NoteOnEvent(tick=160, channel=9, data=[38, 0]),
   midi.NoteOnEvent(tick=0, channel=9, data=[42, 0]),
   midi.NoteOnEvent(tick=32, channel=9, data=[42, 110]),
   midi.NoteOnEvent(tick=160, channel=9, data=[42, 0]),
   midi.NoteOnEvent(tick=32, channel=9, data=[36, 110]),
   midi.NoteOnEvent(tick=0, channel=9, data=[42, 110]),
   midi.NoteOnEvent(tick=160, channel=9, data=[36, 0]),
   midi.NoteOnEvent(tick=0, channel=9, data=[42, 0]),
   midi.NoteOnEvent(tick=32, channel=9, data=[42, 110]),
   midi.NoteOnEvent(tick=160, channel=9, data=[42, 0]),
   midi.NoteOnEvent(tick=32, channel=9, data=[38, 110]),
   midi.NoteOnEvent(tick=0, channel=9, data=[42, 110]),
   midi.NoteOnEvent(tick=160, channel=9, data=[38, 0]),
   midi.NoteOnEvent(tick=0, channel=9, data=[42, 0]),
   midi.NoteOnEvent(tick=32, channel=9, data=[38, 110]),
   midi.NoteOnEvent(tick=0, channel=9, data=[42, 110]),
   midi.NoteOnEvent(tick=94, channel=9, data=[38, 0]),
   midi.NoteOnEvent(tick=0, channel=9, data=[42, 0]),
   midi.NoteOnEvent(tick=2, channel=9, data=[38, 110]),
   midi.NoteOnEvent(tick=94, channel=9, data=[38, 0]),
   midi.NoteOnEvent(tick=2, channel=9, data=[36, 110]),
   midi.NoteOnEvent(tick=0, channel=9, data=[42, 110]),
   midi.NoteOnEvent(tick=0, channel=9, data=[49, 110]),
   midi.NoteOnEvent(tick=160, channel=9, data=[36, 0]),
   midi.NoteOnEvent(tick=0, channel=9, data=[42, 0]),
   midi.NoteOnEvent(tick=0, channel=9, data=[49, 0]),
   midi.NoteOnEvent(tick=32, channel=9, data=[42, 110]),
   midi.NoteOnEvent(tick=160, channel=9, data=[42, 0]),
   midi.NoteOnEvent(tick=32, channel=9, data=[38, 110]),
   midi.NoteOnEvent(tick=0, channel=9, data=[42, 110]),
   midi.NoteOnEvent(tick=160, channel=9, data=[38, 0]),
   midi.NoteOnEvent(tick=0, channel=9, data=[42, 0]),
   midi.NoteOnEvent(tick=32, channel=9, data=[42, 110]),
   midi.NoteOnEvent(tick=160, channel=9, data=[42, 0]),
   midi.NoteOnEvent(tick=32, channel=9, data=[36, 110]),
   midi.NoteOnEvent(tick=0, channel=9, data=[42, 110]),
   midi.NoteOnEvent(tick=160, channel=9, data=[36, 0]),
   midi.NoteOnEvent(tick=0, channel=9, data=[42, 0]),
   midi.NoteOnEvent(tick=32, channel=9, data=[42, 110]),
   midi.NoteOnEvent(tick=160, channel=9, data=[42, 0]),
   midi.NoteOnEvent(tick=32, channel=9, data=[38, 110]),
   midi.NoteOnEvent(tick=0, channel=9, data=[42, 110]),
   midi.NoteOnEvent(tick=160, channel=9, data=[38, 0]),
   midi.NoteOnEvent(tick=0, channel=9, data=[42, 0]),
   midi.NoteOnEvent(tick=32, channel=9, data=[38, 110]),
   midi.NoteOnEvent(tick=0, channel=9, data=[42, 110]),
   midi.NoteOnEvent(tick=94, channel=9, data=[38, 0]),
   midi.NoteOnEvent(tick=0, channel=9, data=[42, 0]),
   midi.NoteOnEvent(tick=2, channel=9, data=[38, 110]),
   midi.NoteOnEvent(tick=94, channel=9, data=[38, 0]),
   midi.NoteOnEvent(tick=2, channel=9, data=[36, 110]),
   midi.NoteOnEvent(tick=0, channel=9, data=[42, 110]),
   midi.NoteOnEvent(tick=0, channel=9, data=[49, 110]),
   midi.NoteOnEvent(tick=160, channel=9, data=[36, 0]),
   midi.NoteOnEvent(tick=0, channel=9, data=[42, 0]),
   midi.NoteOnEvent(tick=0, channel=9, data=[49, 0]),
   midi.NoteOnEvent(tick=32, channel=9, data=[42, 110]),
   midi.NoteOnEvent(tick=160, channel=9, data=[42, 0]),
   midi.NoteOnEvent(tick=32, channel=9, data=[38, 110]),
   midi.NoteOnEvent(tick=0, channel=9, data=[42, 110]),
   midi.NoteOnEvent(tick=160, channel=9, data=[38, 0]),
   midi.NoteOnEvent(tick=0, channel=9, data=[42, 0]),
   midi.NoteOnEvent(tick=32, channel=9, data=[42, 110]),
   midi.NoteOnEvent(tick=160, channel=9, data=[42, 0]),
   midi.NoteOnEvent(tick=32, channel=9, data=[36, 110]),
   midi.NoteOnEvent(tick=0, channel=9, data=[42, 110]),
   midi.NoteOnEvent(tick=160, channel=9, data=[36, 0]),
   midi.NoteOnEvent(tick=0, channel=9, data=[42, 0]),
   midi.NoteOnEvent(tick=32, channel=9, data=[42, 110]),
   midi.NoteOnEvent(tick=160, channel=9, data=[42, 0]),
   midi.NoteOnEvent(tick=32, channel=9, data=[38, 110]),
   midi.NoteOnEvent(tick=0, channel=9, data=[42, 110]),
   midi.NoteOnEvent(tick=160, channel=9, data=[38, 0]),
   midi.NoteOnEvent(tick=0, channel=9, data=[42, 0]),
   midi.NoteOnEvent(tick=32, channel=9, data=[38, 110]),
   midi.NoteOnEvent(tick=0, channel=9, data=[42, 110]),
   midi.NoteOnEvent(tick=94, channel=9, data=[38, 0]),
   midi.NoteOnEvent(tick=0, channel=9, data=[42, 0]),
   midi.NoteOnEvent(tick=2, channel=9, data=[38, 110]),
   midi.NoteOnEvent(tick=94, channel=9, data=[38, 0]),
   midi.NoteOnEvent(tick=2, channel=9, data=[36, 110]),
   midi.NoteOnEvent(tick=0, channel=9, data=[42, 110]),
   midi.NoteOnEvent(tick=0, channel=9, data=[49, 110]),
   midi.NoteOnEvent(tick=160, channel=9, data=[36, 0]),
   midi.NoteOnEvent(tick=0, channel=9, data=[42, 0]),
   midi.NoteOnEvent(tick=0, channel=9, data=[49, 0]),
   midi.NoteOnEvent(tick=32, channel=9, data=[42, 110]),
   midi.NoteOnEvent(tick=160, channel=9, data=[42, 0]),
   midi.NoteOnEvent(tick=32, channel=9, data=[38, 110]),
   midi.NoteOnEvent(tick=0, channel=9, data=[42, 110]),
   midi.NoteOnEvent(tick=160, channel=9, data=[38, 0]),
   midi.NoteOnEvent(tick=0, channel=9, data=[42, 0]),
   midi.NoteOnEvent(tick=32, channel=9, data=[42, 110]),
   midi.NoteOnEvent(tick=160, channel=9, data=[42, 0]),
   midi.NoteOnEvent(tick=32, channel=9, data=[36, 110]),
   midi.NoteOnEvent(tick=0, channel=9, data=[42, 110]),
   midi.NoteOnEvent(tick=160, channel=9, data=[36, 0]),
   midi.NoteOnEvent(tick=0, channel=9, data=[42, 0]),
   midi.NoteOnEvent(tick=32, channel=9, data=[42, 110]),
   midi.NoteOnEvent(tick=160, channel=9, data=[42, 0]),
   midi.NoteOnEvent(tick=32, channel=9, data=[38, 110]),
   midi.NoteOnEvent(tick=0, channel=9, data=[42, 110]),
   midi.NoteOnEvent(tick=160, channel=9, data=[38, 0]),
   midi.NoteOnEvent(tick=0, channel=9, data=[42, 0]),
   midi.NoteOnEvent(tick=32, channel=9, data=[38, 110]),
   midi.NoteOnEvent(tick=0, channel=9, data=[42, 110]),
   midi.NoteOnEvent(tick=94, channel=9, data=[38, 0]),
   midi.NoteOnEvent(tick=0, channel=9, data=[42, 0]),
   midi.NoteOnEvent(tick=2, channel=9, data=[38, 110]),
   midi.NoteOnEvent(tick=94, channel=9, data=[38, 0]),
   midi.NoteOnEvent(tick=2, channel=9, data=[36, 110]),
   midi.NoteOnEvent(tick=0, channel=9, data=[42, 110]),
   midi.NoteOnEvent(tick=0, channel=9, data=[49, 110]),
   midi.NoteOnEvent(tick=160, channel=9, data=[36, 0]),
   midi.NoteOnEvent(tick=0, channel=9, data=[42, 0]),
   midi.NoteOnEvent(tick=0, channel=9, data=[49, 0]),
   midi.NoteOnEvent(tick=32, channel=9, data=[42, 110]),
   midi.NoteOnEvent(tick=160, channel=9, data=[42, 0]),
   midi.NoteOnEvent(tick=32, channel=9, data=[38, 110]),
   midi.NoteOnEvent(tick=0, channel=9, data=[42, 110]),
   midi.NoteOnEvent(tick=160, channel=9, data=[38, 0]),
   midi.NoteOnEvent(tick=0, channel=9, data=[42, 0]),
   midi.NoteOnEvent(tick=32, channel=9, data=[42, 110]),
   midi.NoteOnEvent(tick=160, channel=9, data=[42, 0]),
   midi.NoteOnEvent(tick=32, channel=9, data=[36, 110]),
   midi.NoteOnEvent(tick=0, channel=9, data=[42, 110]),
   midi.NoteOnEvent(tick=160, channel=9, data=[36, 0]),
   midi.NoteOnEvent(tick=0, channel=9, data=[42, 0]),
   midi.NoteOnEvent(tick=32, channel=9, data=[42, 110]),
   midi.NoteOnEvent(tick=160, channel=9, data=[42, 0]),
   midi.NoteOnEvent(tick=32, channel=9, data=[38, 110]),
   midi.NoteOnEvent(tick=0, channel=9, data=[42, 110]),
   midi.NoteOnEvent(tick=160, channel=9, data=[38, 0]),
   midi.NoteOnEvent(tick=0, channel=9, data=[42, 0]),
   midi.NoteOnEvent(tick=32, channel=9, data=[38, 110]),
   midi.NoteOnEvent(tick=0, channel=9, data=[42, 110]),
   midi.NoteOnEvent(tick=94, channel=9, data=[38, 0]),
   midi.NoteOnEvent(tick=0, channel=9, data=[42, 0]),
   midi.NoteOnEvent(tick=2, channel=9, data=[38, 110]),
   midi.NoteOnEvent(tick=94, channel=9, data=[38, 0]),
   midi.NoteOnEvent(tick=2, channel=9, data=[36, 110]),
   midi.NoteOnEvent(tick=0, channel=9, data=[42, 110]),
   midi.NoteOnEvent(tick=0, channel=9, data=[49, 110]),
   midi.NoteOnEvent(tick=160, channel=9, data=[36, 0]),
   midi.NoteOnEvent(tick=0, channel=9, data=[42, 0]),
   midi.NoteOnEvent(tick=0, channel=9, data=[49, 0]),
   midi.NoteOnEvent(tick=32, channel=9, data=[42, 110]),
   midi.NoteOnEvent(tick=160, channel=9, data=[42, 0]),
   midi.NoteOnEvent(tick=32, channel=9, data=[38, 110]),
   midi.NoteOnEvent(tick=0, channel=9, data=[42, 110]),
   midi.NoteOnEvent(tick=160, channel=9, data=[38, 0]),
   midi.NoteOnEvent(tick=0, channel=9, data=[42, 0]),
   midi.NoteOnEvent(tick=32, channel=9, data=[42, 110]),
   midi.NoteOnEvent(tick=160, channel=9, data=[42, 0]),
   midi.NoteOnEvent(tick=32, channel=9, data=[36, 110]),
   midi.NoteOnEvent(tick=0, channel=9, data=[42, 110]),
   midi.NoteOnEvent(tick=160, channel=9, data=[36, 0]),
   midi.NoteOnEvent(tick=0, channel=9, data=[42, 0]),
   midi.NoteOnEvent(tick=32, channel=9, data=[42, 110]),
   midi.NoteOnEvent(tick=160, channel=9, data=[42, 0]),
   midi.NoteOnEvent(tick=32, channel=9, data=[38, 110]),
   midi.NoteOnEvent(tick=0, channel=9, data=[42, 110]),
   midi.NoteOnEvent(tick=160, channel=9, data=[38, 0]),
   midi.NoteOnEvent(tick=0, channel=9, data=[42, 0]),
   midi.NoteOnEvent(tick=32, channel=9, data=[38, 110]),
   midi.NoteOnEvent(tick=0, channel=9, data=[42, 110]),
   midi.NoteOnEvent(tick=94, channel=9, data=[38, 0]),
   midi.NoteOnEvent(tick=0, channel=9, data=[42, 0]),
   midi.NoteOnEvent(tick=2, channel=9, data=[38, 110]),
   midi.NoteOnEvent(tick=94, channel=9, data=[38, 0]),
   midi.NoteOnEvent(tick=2, channel=9, data=[36, 110]),
   midi.NoteOnEvent(tick=0, channel=9, data=[42, 110]),
   midi.NoteOnEvent(tick=0, channel=9, data=[49, 110]),
   midi.NoteOnEvent(tick=160, channel=9, data=[36, 0]),
   midi.NoteOnEvent(tick=0, channel=9, data=[42, 0]),
   midi.NoteOnEvent(tick=0, channel=9, data=[49, 0]),
   midi.NoteOnEvent(tick=32, channel=9, data=[42, 110]),
   midi.NoteOnEvent(tick=160, channel=9, data=[42, 0]),
   midi.NoteOnEvent(tick=32, channel=9, data=[38, 110]),
   midi.NoteOnEvent(tick=0, channel=9, data=[42, 110]),
   midi.NoteOnEvent(tick=160, channel=9, data=[38, 0]),
   midi.NoteOnEvent(tick=0, channel=9, data=[42, 0]),
   midi.NoteOnEvent(tick=32, channel=9, data=[42, 110]),
   midi.NoteOnEvent(tick=160, channel=9, data=[42, 0]),
   midi.NoteOnEvent(tick=32, channel=9, data=[36, 110]),
   midi.NoteOnEvent(tick=0, channel=9, data=[42, 110]),
   midi.NoteOnEvent(tick=160, channel=9, data=[36, 0]),
   midi.NoteOnEvent(tick=0, channel=9, data=[42, 0]),
   midi.NoteOnEvent(tick=32, channel=9, data=[42, 110]),
   midi.NoteOnEvent(tick=160, channel=9, data=[42, 0]),
   midi.NoteOnEvent(tick=32, channel=9, data=[38, 110]),
   midi.NoteOnEvent(tick=0, channel=9, data=[42, 110]),
   midi.NoteOnEvent(tick=160, channel=9, data=[38, 0]),
   midi.NoteOnEvent(tick=0, channel=9, data=[42, 0]),
   midi.NoteOnEvent(tick=32, channel=9, data=[38, 110]),
   midi.NoteOnEvent(tick=0, channel=9, data=[42, 110]),
   midi.NoteOnEvent(tick=94, channel=9, data=[38, 0]),
   midi.NoteOnEvent(tick=0, channel=9, data=[42, 0]),
   midi.NoteOnEvent(tick=2, channel=9, data=[38, 110]),
   midi.NoteOnEvent(tick=94, channel=9, data=[38, 0]),
   midi.NoteOnEvent(tick=2, channel=9, data=[36, 110]),
   midi.NoteOnEvent(tick=0, channel=9, data=[42, 110]),
   midi.NoteOnEvent(tick=0, channel=9, data=[49, 110]),
   midi.NoteOnEvent(tick=160, channel=9, data=[36, 0]),
   midi.NoteOnEvent(tick=0, channel=9, data=[42, 0]),
   midi.NoteOnEvent(tick=0, channel=9, data=[49, 0]),
   midi.NoteOnEvent(tick=32, channel=9, data=[42, 110]),
   midi.NoteOnEvent(tick=160, channel=9, data=[42, 0]),
   midi.NoteOnEvent(tick=32, channel=9, data=[38, 110]),
   midi.NoteOnEvent(tick=0, channel=9, data=[42, 110]),
   midi.NoteOnEvent(tick=160, channel=9, data=[38, 0]),
   midi.NoteOnEvent(tick=0, channel=9, data=[42, 0]),
   midi.NoteOnEvent(tick=32, channel=9, data=[42, 110]),
   midi.NoteOnEvent(tick=160, channel=9, data=[42, 0]),
   midi.NoteOnEvent(tick=32, channel=9, data=[36, 110]),
   midi.NoteOnEvent(tick=0, channel=9, data=[42, 110]),
   midi.NoteOnEvent(tick=160, channel=9, data=[36, 0]),
   midi.NoteOnEvent(tick=0, channel=9, data=[42, 0]),
   midi.NoteOnEvent(tick=32, channel=9, data=[42, 110]),
   midi.NoteOnEvent(tick=160, channel=9, data=[42, 0]),
   midi.NoteOnEvent(tick=32, channel=9, data=[38, 110]),
   midi.NoteOnEvent(tick=0, channel=9, data=[42, 110]),
   midi.NoteOnEvent(tick=94, channel=9, data=[38, 0]),
   midi.NoteOnEvent(tick=0, channel=9, data=[42, 0]),
   midi.NoteOnEvent(tick=2, channel=9, data=[38, 110]),
   midi.NoteOnEvent(tick=46, channel=9, data=[38, 0]),
   midi.NoteOnEvent(tick=2, channel=9, data=[38, 110]),
   midi.NoteOnEvent(tick=46, channel=9, data=[38, 0]),
   midi.NoteOnEvent(tick=2, channel=9, data=[38, 110]),
   midi.NoteOnEvent(tick=0, channel=9, data=[42, 110]),
   midi.NoteOnEvent(tick=94, channel=9, data=[38, 0]),
   midi.NoteOnEvent(tick=0, channel=9, data=[42, 0]),
   midi.NoteOnEvent(tick=2, channel=9, data=[38, 110]),
   midi.NoteOnEvent(tick=94, channel=9, data=[38, 0]),
   midi.NoteOnEvent(tick=2, channel=9, data=[36, 110]),
   midi.NoteOnEvent(tick=0, channel=9, data=[42, 110]),
   midi.NoteOnEvent(tick=0, channel=9, data=[49, 110]),
   midi.NoteOnEvent(tick=94, channel=9, data=[36, 0]),
   midi.NoteOnEvent(tick=0, channel=9, data=[42, 0]),
   midi.NoteOnEvent(tick=0, channel=9, data=[49, 0]),
   midi.NoteOnEvent(tick=2, channel=9, data=[42, 110]),
   midi.NoteOnEvent(tick=94, channel=9, data=[42, 0]),
   midi.NoteOnEvent(tick=2, channel=9, data=[38, 110]),
   midi.NoteOnEvent(tick=0, channel=9, data=[42, 110]),
   midi.NoteOnEvent(tick=94, channel=9, data=[38, 0]),
   midi.NoteOnEvent(tick=0, channel=9, data=[42, 0]),
   midi.NoteOnEvent(tick=2, channel=9, data=[42, 110]),
   midi.NoteOnEvent(tick=94, channel=9, data=[42, 0]),
   midi.NoteOnEvent(tick=2, channel=9, data=[36, 110]),
   midi.NoteOnEvent(tick=0, channel=9, data=[42, 110]),
   midi.NoteOnEvent(tick=94, channel=9, data=[36, 0]),
   midi.NoteOnEvent(tick=0, channel=9, data=[42, 0]),
   midi.NoteOnEvent(tick=2, channel=9, data=[42, 110]),
   midi.NoteOnEvent(tick=94, channel=9, data=[42, 0]),
   midi.NoteOnEvent(tick=2, channel=9, data=[38, 110]),
   midi.NoteOnEvent(tick=0, channel=9, data=[42, 110]),
   midi.NoteOnEvent(tick=94, channel=9, data=[38, 0]),
   midi.NoteOnEvent(tick=0, channel=9, data=[42, 0]),
   midi.NoteOnEvent(tick=2, channel=9, data=[42, 110]),
   midi.NoteOnEvent(tick=94, channel=9, data=[42, 0]),
   midi.NoteOnEvent(tick=2, channel=9, data=[36, 110]),
   midi.NoteOnEvent(tick=0, channel=9, data=[42, 110]),
   midi.NoteOnEvent(tick=94, channel=9, data=[36, 0]),
   midi.NoteOnEvent(tick=0, channel=9, data=[42, 0]),
   midi.NoteOnEvent(tick=2, channel=9, data=[42, 110]),
   midi.NoteOnEvent(tick=94, channel=9, data=[42, 0]),
   midi.NoteOnEvent(tick=2, channel=9, data=[38, 110]),
   midi.NoteOnEvent(tick=0, channel=9, data=[42, 110]),
   midi.NoteOnEvent(tick=94, channel=9, data=[38, 0]),
   midi.NoteOnEvent(tick=0, channel=9, data=[42, 0]),
   midi.NoteOnEvent(tick=2, channel=9, data=[42, 110]),
   midi.NoteOnEvent(tick=94, channel=9, data=[42, 0]),
   midi.NoteOnEvent(tick=2, channel=9, data=[36, 110]),
   midi.NoteOnEvent(tick=0, channel=9, data=[42, 110]),
   midi.NoteOnEvent(tick=94, channel=9, data=[36, 0]),
   midi.NoteOnEvent(tick=0, channel=9, data=[42, 0]),
   midi.NoteOnEvent(tick=2, channel=9, data=[42, 110]),
   midi.NoteOnEvent(tick=94, channel=9, data=[42, 0]),
   midi.NoteOnEvent(tick=2, channel=9, data=[38, 110]),
   midi.NoteOnEvent(tick=0, channel=9, data=[42, 110]),
   midi.NoteOnEvent(tick=94, channel=9, data=[38, 0]),
   midi.NoteOnEvent(tick=0, channel=9, data=[42, 0]),
   midi.NoteOnEvent(tick=2, channel=9, data=[42, 110]),
   midi.NoteOnEvent(tick=94, channel=9, data=[42, 0]),
   midi.NoteOnEvent(tick=2, channel=9, data=[36, 110]),
   midi.NoteOnEvent(tick=0, channel=9, data=[42, 110]),
   midi.NoteOnEvent(tick=94, channel=9, data=[36, 0]),
   midi.NoteOnEvent(tick=0, channel=9, data=[42, 0]),
   midi.NoteOnEvent(tick=2, channel=9, data=[42, 110]),
   midi.NoteOnEvent(tick=94, channel=9, data=[42, 0]),
   midi.NoteOnEvent(tick=2, channel=9, data=[38, 110]),
   midi.NoteOnEvent(tick=0, channel=9, data=[42, 110]),
   midi.NoteOnEvent(tick=94, channel=9, data=[38, 0]),
   midi.NoteOnEvent(tick=0, channel=9, data=[42, 0]),
   midi.NoteOnEvent(tick=2, channel=9, data=[42, 110]),
   midi.NoteOnEvent(tick=94, channel=9, data=[42, 0]),
   midi.NoteOnEvent(tick=2, channel=9, data=[36, 110]),
   midi.NoteOnEvent(tick=0, channel=9, data=[42, 110]),
   midi.NoteOnEvent(tick=94, channel=9, data=[36, 0]),
   midi.NoteOnEvent(tick=0, channel=9, data=[42, 0]),
   midi.NoteOnEvent(tick=2, channel=9, data=[42, 110]),
   midi.NoteOnEvent(tick=94, channel=9, data=[42, 0]),
   midi.NoteOnEvent(tick=2, channel=9, data=[38, 110]),
   midi.NoteOnEvent(tick=0, channel=9, data=[42, 110]),
   midi.NoteOnEvent(tick=94, channel=9, data=[38, 0]),
   midi.NoteOnEvent(tick=0, channel=9, data=[42, 0]),
   midi.NoteOnEvent(tick=2, channel=9, data=[42, 110]),
   midi.NoteOnEvent(tick=94, channel=9, data=[42, 0]),
   midi.NoteOnEvent(tick=2, channel=9, data=[36, 110]),
   midi.NoteOnEvent(tick=0, channel=9, data=[42, 110]),
   midi.NoteOnEvent(tick=94, channel=9, data=[36, 0]),
   midi.NoteOnEvent(tick=0, channel=9, data=[42, 0]),
   midi.NoteOnEvent(tick=2, channel=9, data=[42, 110]),
   midi.NoteOnEvent(tick=94, channel=9, data=[42, 0]),
   midi.NoteOnEvent(tick=2, channel=9, data=[38, 110]),
   midi.NoteOnEvent(tick=0, channel=9, data=[42, 110]),
   midi.NoteOnEvent(tick=94, channel=9, data=[38, 0]),
   midi.NoteOnEvent(tick=0, channel=9, data=[42, 0]),
   midi.NoteOnEvent(tick=2, channel=9, data=[42, 110]),
   midi.NoteOnEvent(tick=94, channel=9, data=[42, 0]),
   midi.NoteOnEvent(tick=2, channel=9, data=[36, 110]),
   midi.NoteOnEvent(tick=0, channel=9, data=[42, 110]),
   midi.NoteOnEvent(tick=94, channel=9, data=[36, 0]),
   midi.NoteOnEvent(tick=0, channel=9, data=[42, 0]),
   midi.NoteOnEvent(tick=2, channel=9, data=[42, 110]),
   midi.NoteOnEvent(tick=94, channel=9, data=[42, 0]),
   midi.NoteOnEvent(tick=2, channel=9, data=[38, 110]),
   midi.NoteOnEvent(tick=0, channel=9, data=[42, 110]),
   midi.NoteOnEvent(tick=94, channel=9, data=[38, 0]),
   midi.NoteOnEvent(tick=0, channel=9, data=[42, 0]),
   midi.NoteOnEvent(tick=2, channel=9, data=[42, 110]),
   midi.NoteOnEvent(tick=94, channel=9, data=[42, 0]),
   midi.NoteOnEvent(tick=2, channel=9, data=[36, 110]),
   midi.NoteOnEvent(tick=0, channel=9, data=[42, 110]),
   midi.NoteOnEvent(tick=94, channel=9, data=[36, 0]),
   midi.NoteOnEvent(tick=0, channel=9, data=[42, 0]),
   midi.NoteOnEvent(tick=2, channel=9, data=[42, 110]),
   midi.NoteOnEvent(tick=94, channel=9, data=[42, 0]),
   midi.NoteOnEvent(tick=2, channel=9, data=[38, 110]),
   midi.NoteOnEvent(tick=0, channel=9, data=[42, 110]),
   midi.NoteOnEvent(tick=94, channel=9, data=[38, 0]),
   midi.NoteOnEvent(tick=0, channel=9, data=[42, 0]),
   midi.NoteOnEvent(tick=2, channel=9, data=[42, 110]),
   midi.NoteOnEvent(tick=94, channel=9, data=[42, 0]),
   midi.NoteOnEvent(tick=2, channel=9, data=[36, 110]),
   midi.NoteOnEvent(tick=0, channel=9, data=[42, 110]),
   midi.NoteOnEvent(tick=94, channel=9, data=[36, 0]),
   midi.NoteOnEvent(tick=0, channel=9, data=[42, 0]),
   midi.NoteOnEvent(tick=2, channel=9, data=[42, 110]),
   midi.NoteOnEvent(tick=94, channel=9, data=[42, 0]),
   midi.NoteOnEvent(tick=2, channel=9, data=[38, 110]),
   midi.NoteOnEvent(tick=0, channel=9, data=[42, 110]),
   midi.NoteOnEvent(tick=94, channel=9, data=[38, 0]),
   midi.NoteOnEvent(tick=0, channel=9, data=[42, 0]),
   midi.NoteOnEvent(tick=2, channel=9, data=[42, 110]),
   midi.NoteOnEvent(tick=94, channel=9, data=[42, 0]),
   midi.NoteOnEvent(tick=2, channel=9, data=[36, 110]),
   midi.NoteOnEvent(tick=0, channel=9, data=[42, 110]),
   midi.NoteOnEvent(tick=94, channel=9, data=[36, 0]),
   midi.NoteOnEvent(tick=0, channel=9, data=[42, 0]),
   midi.NoteOnEvent(tick=2, channel=9, data=[42, 110]),
   midi.NoteOnEvent(tick=94, channel=9, data=[42, 0]),
   midi.NoteOnEvent(tick=2, channel=9, data=[38, 110]),
   midi.NoteOnEvent(tick=0, channel=9, data=[42, 110]),
   midi.NoteOnEvent(tick=94, channel=9, data=[38, 0]),
   midi.NoteOnEvent(tick=0, channel=9, data=[42, 0]),
   midi.NoteOnEvent(tick=2, channel=9, data=[42, 110]),
   midi.NoteOnEvent(tick=94, channel=9, data=[42, 0]),
   midi.NoteOnEvent(tick=2, channel=9, data=[36, 110]),
   midi.NoteOnEvent(tick=0, channel=9, data=[42, 110]),
   midi.NoteOnEvent(tick=94, channel=9, data=[36, 0]),
   midi.NoteOnEvent(tick=0, channel=9, data=[42, 0]),
   midi.NoteOnEvent(tick=2, channel=9, data=[42, 110]),
   midi.NoteOnEvent(tick=94, channel=9, data=[42, 0]),
   midi.NoteOnEvent(tick=2, channel=9, data=[38, 110]),
   midi.NoteOnEvent(tick=0, channel=9, data=[42, 110]),
   midi.NoteOnEvent(tick=94, channel=9, data=[38, 0]),
   midi.NoteOnEvent(tick=0, channel=9, data=[42, 0]),
   midi.NoteOnEvent(tick=2, channel=9, data=[42, 110]),
   midi.NoteOnEvent(tick=94, channel=9, data=[42, 0]),
   midi.NoteOnEvent(tick=2, channel=9, data=[36, 110]),
   midi.NoteOnEvent(tick=0, channel=9, data=[42, 110]),
   midi.NoteOnEvent(tick=94, channel=9, data=[36, 0]),
   midi.NoteOnEvent(tick=0, channel=9, data=[42, 0]),
   midi.NoteOnEvent(tick=2, channel=9, data=[42, 110]),
   midi.NoteOnEvent(tick=94, channel=9, data=[42, 0]),
   midi.NoteOnEvent(tick=2, channel=9, data=[38, 110]),
   midi.NoteOnEvent(tick=0, channel=9, data=[42, 110]),
   midi.NoteOnEvent(tick=94, channel=9, data=[38, 0]),
   midi.NoteOnEvent(tick=0, channel=9, data=[42, 0]),
   midi.NoteOnEvent(tick=2, channel=9, data=[42, 110]),
   midi.NoteOnEvent(tick=94, channel=9, data=[42, 0]),
   midi.NoteOnEvent(tick=2, channel=9, data=[36, 110]),
   midi.NoteOnEvent(tick=0, channel=9, data=[42, 110]),
   midi.NoteOnEvent(tick=94, channel=9, data=[36, 0]),
   midi.NoteOnEvent(tick=0, channel=9, data=[42, 0]),
   midi.NoteOnEvent(tick=2, channel=9, data=[42, 110]),
   midi.NoteOnEvent(tick=94, channel=9, data=[42, 0]),
   midi.NoteOnEvent(tick=2, channel=9, data=[38, 110]),
   midi.NoteOnEvent(tick=0, channel=9, data=[42, 110]),
   midi.NoteOnEvent(tick=94, channel=9, data=[38, 0]),
   midi.NoteOnEvent(tick=0, channel=9, data=[42, 0]),
   midi.NoteOnEvent(tick=2, channel=9, data=[42, 110]),
   midi.NoteOnEvent(tick=94, channel=9, data=[42, 0]),
   midi.NoteOnEvent(tick=2, channel=9, data=[36, 110]),
   midi.NoteOnEvent(tick=0, channel=9, data=[42, 110]),
   midi.NoteOnEvent(tick=94, channel=9, data=[36, 0]),
   midi.NoteOnEvent(tick=0, channel=9, data=[42, 0]),
   midi.NoteOnEvent(tick=2, channel=9, data=[42, 110]),
   midi.NoteOnEvent(tick=94, channel=9, data=[42, 0]),
   midi.NoteOnEvent(tick=2, channel=9, data=[38, 110]),
   midi.NoteOnEvent(tick=0, channel=9, data=[42, 110]),
   midi.NoteOnEvent(tick=94, channel=9, data=[38, 0]),
   midi.NoteOnEvent(tick=0, channel=9, data=[42, 0]),
   midi.NoteOnEvent(tick=2, channel=9, data=[42, 110]),
   midi.NoteOnEvent(tick=94, channel=9, data=[42, 0]),
   midi.NoteOnEvent(tick=2, channel=9, data=[36, 110]),
   midi.NoteOnEvent(tick=0, channel=9, data=[42, 110]),
   midi.NoteOnEvent(tick=94, channel=9, data=[36, 0]),
   midi.NoteOnEvent(tick=0, channel=9, data=[42, 0]),
   midi.NoteOnEvent(tick=2, channel=9, data=[42, 110]),
   midi.NoteOnEvent(tick=94, channel=9, data=[42, 0]),
   midi.NoteOnEvent(tick=2, channel=9, data=[38, 110]),
   midi.NoteOnEvent(tick=0, channel=9, data=[42, 110]),
   midi.NoteOnEvent(tick=94, channel=9, data=[38, 0]),
   midi.NoteOnEvent(tick=0, channel=9, data=[42, 0]),
   midi.NoteOnEvent(tick=2, channel=9, data=[42, 110]),
   midi.NoteOnEvent(tick=94, channel=9, data=[42, 0]),
   midi.NoteOnEvent(tick=2, channel=9, data=[36, 110]),
   midi.NoteOnEvent(tick=0, channel=9, data=[42, 110]),
   midi.NoteOnEvent(tick=94, channel=9, data=[36, 0]),
   midi.NoteOnEvent(tick=0, channel=9, data=[42, 0]),
   midi.NoteOnEvent(tick=2, channel=9, data=[42, 110]),
   midi.NoteOnEvent(tick=94, channel=9, data=[42, 0]),
   midi.NoteOnEvent(tick=2, channel=9, data=[38, 110]),
   midi.NoteOnEvent(tick=0, channel=9, data=[42, 110]),
   midi.NoteOnEvent(tick=94, channel=9, data=[38, 0]),
   midi.NoteOnEvent(tick=0, channel=9, data=[42, 0]),
   midi.NoteOnEvent(tick=2, channel=9, data=[42, 110]),
   midi.NoteOnEvent(tick=94, channel=9, data=[42, 0]),
   midi.NoteOnEvent(tick=2, channel=9, data=[36, 110]),
   midi.NoteOnEvent(tick=0, channel=9, data=[42, 110]),
   midi.NoteOnEvent(tick=94, channel=9, data=[36, 0]),
   midi.NoteOnEvent(tick=0, channel=9, data=[42, 0]),
   midi.NoteOnEvent(tick=2, channel=9, data=[42, 110]),
   midi.NoteOnEvent(tick=94, channel=9, data=[42, 0]),
   midi.NoteOnEvent(tick=2, channel=9, data=[38, 110]),
   midi.NoteOnEvent(tick=0, channel=9, data=[42, 110]),
   midi.NoteOnEvent(tick=94, channel=9, data=[38, 0]),
   midi.NoteOnEvent(tick=0, channel=9, data=[42, 0]),
   midi.NoteOnEvent(tick=2, channel=9, data=[42, 110]),
   midi.NoteOnEvent(tick=94, channel=9, data=[42, 0]),
   midi.NoteOnEvent(tick=2, channel=9, data=[36, 110]),
   midi.NoteOnEvent(tick=0, channel=9, data=[42, 110]),
   midi.NoteOnEvent(tick=94, channel=9, data=[36, 0]),
   midi.NoteOnEvent(tick=0, channel=9, data=[42, 0]),
   midi.NoteOnEvent(tick=2, channel=9, data=[42, 110]),
   midi.NoteOnEvent(tick=94, channel=9, data=[42, 0]),
   midi.NoteOnEvent(tick=2, channel=9, data=[38, 110]),
   midi.NoteOnEvent(tick=0, channel=9, data=[42, 110]),
   midi.NoteOnEvent(tick=94, channel=9, data=[38, 0]),
   midi.NoteOnEvent(tick=0, channel=9, data=[42, 0]),
   midi.NoteOnEvent(tick=2, channel=9, data=[42, 110]),
   midi.NoteOnEvent(tick=94, channel=9, data=[42, 0]),
   midi.NoteOnEvent(tick=2, channel=9, data=[36, 110]),
   midi.NoteOnEvent(tick=0, channel=9, data=[42, 110]),
   midi.NoteOnEvent(tick=94, channel=9, data=[36, 0]),
   midi.NoteOnEvent(tick=0, channel=9, data=[42, 0]),
   midi.NoteOnEvent(tick=2, channel=9, data=[42, 110]),
   midi.NoteOnEvent(tick=94, channel=9, data=[42, 0]),
   midi.NoteOnEvent(tick=2, channel=9, data=[38, 110]),
   midi.NoteOnEvent(tick=0, channel=9, data=[42, 110]),
   midi.NoteOnEvent(tick=94, channel=9, data=[38, 0]),
   midi.NoteOnEvent(tick=0, channel=9, data=[42, 0]),
   midi.NoteOnEvent(tick=2, channel=9, data=[42, 110]),
   midi.NoteOnEvent(tick=94, channel=9, data=[42, 0]),
   midi.NoteOnEvent(tick=2, channel=9, data=[36, 110]),
   midi.NoteOnEvent(tick=0, channel=9, data=[42, 110]),
   midi.NoteOnEvent(tick=94, channel=9, data=[36, 0]),
   midi.NoteOnEvent(tick=0, channel=9, data=[42, 0]),
   midi.NoteOnEvent(tick=2, channel=9, data=[42, 110]),
   midi.NoteOnEvent(tick=94, channel=9, data=[42, 0]),
   midi.NoteOnEvent(tick=2, channel=9, data=[38, 110]),
   midi.NoteOnEvent(tick=0, channel=9, data=[42, 110]),
   midi.NoteOnEvent(tick=94, channel=9, data=[38, 0]),
   midi.NoteOnEvent(tick=0, channel=9, data=[42, 0]),
   midi.NoteOnEvent(tick=2, channel=9, data=[42, 110]),
   midi.NoteOnEvent(tick=94, channel=9, data=[42, 0]),
   midi.NoteOnEvent(tick=2, channel=9, data=[36, 110]),
   midi.NoteOnEvent(tick=0, channel=9, data=[42, 110]),
   midi.NoteOnEvent(tick=94, channel=9, data=[36, 0]),
   midi.NoteOnEvent(tick=0, channel=9, data=[42, 0]),
   midi.NoteOnEvent(tick=2, channel=9, data=[42, 110]),
   midi.NoteOnEvent(tick=94, channel=9, data=[42, 0]),
   midi.NoteOnEvent(tick=2, channel=9, data=[38, 110]),
   midi.NoteOnEvent(tick=0, channel=9, data=[42, 110]),
   midi.NoteOnEvent(tick=94, channel=9, data=[38, 0]),
   midi.NoteOnEvent(tick=0, channel=9, data=[42, 0]),
   midi.NoteOnEvent(tick=2, channel=9, data=[42, 110]),
   midi.NoteOnEvent(tick=94, channel=9, data=[42, 0]),
   midi.NoteOnEvent(tick=2, channel=9, data=[36, 110]),
   midi.NoteOnEvent(tick=0, channel=9, data=[42, 110]),
   midi.NoteOnEvent(tick=94, channel=9, data=[36, 0]),
   midi.NoteOnEvent(tick=0, channel=9, data=[42, 0]),
   midi.NoteOnEvent(tick=2, channel=9, data=[42, 110]),
   midi.NoteOnEvent(tick=94, channel=9, data=[42, 0]),
   midi.NoteOnEvent(tick=2, channel=9, data=[38, 110]),
   midi.NoteOnEvent(tick=0, channel=9, data=[42, 110]),
   midi.NoteOnEvent(tick=94, channel=9, data=[38, 0]),
   midi.NoteOnEvent(tick=0, channel=9, data=[42, 0]),
   midi.NoteOnEvent(tick=2, channel=9, data=[42, 110]),
   midi.NoteOnEvent(tick=94, channel=9, data=[42, 0]),
   midi.NoteOnEvent(tick=2, channel=9, data=[36, 110]),
   midi.NoteOnEvent(tick=0, channel=9, data=[42, 110]),
   midi.NoteOnEvent(tick=94, channel=9, data=[36, 0]),
   midi.NoteOnEvent(tick=0, channel=9, data=[42, 0]),
   midi.NoteOnEvent(tick=2, channel=9, data=[42, 110]),
   midi.NoteOnEvent(tick=94, channel=9, data=[42, 0]),
   midi.NoteOnEvent(tick=2, channel=9, data=[38, 110]),
   midi.NoteOnEvent(tick=0, channel=9, data=[42, 110]),
   midi.NoteOnEvent(tick=94, channel=9, data=[38, 0]),
   midi.NoteOnEvent(tick=0, channel=9, data=[42, 0]),
   midi.NoteOnEvent(tick=2, channel=9, data=[42, 110]),
   midi.NoteOnEvent(tick=94, channel=9, data=[42, 0]),
   midi.NoteOnEvent(tick=2, channel=9, data=[36, 110]),
   midi.NoteOnEvent(tick=0, channel=9, data=[42, 110]),
   midi.NoteOnEvent(tick=94, channel=9, data=[36, 0]),
   midi.NoteOnEvent(tick=0, channel=9, data=[42, 0]),
   midi.NoteOnEvent(tick=2, channel=9, data=[42, 110]),
   midi.NoteOnEvent(tick=94, channel=9, data=[42, 0]),
   midi.NoteOnEvent(tick=2, channel=9, data=[38, 110]),
   midi.NoteOnEvent(tick=0, channel=9, data=[42, 110]),
   midi.NoteOnEvent(tick=94, channel=9, data=[38, 0]),
   midi.NoteOnEvent(tick=0, channel=9, data=[42, 0]),
   midi.NoteOnEvent(tick=2, channel=9, data=[42, 110]),
   midi.NoteOnEvent(tick=94, channel=9, data=[42, 0]),
   midi.NoteOnEvent(tick=2, channel=9, data=[36, 110]),
   midi.NoteOnEvent(tick=0, channel=9, data=[42, 110]),
   midi.NoteOnEvent(tick=94, channel=9, data=[36, 0]),
   midi.NoteOnEvent(tick=0, channel=9, data=[42, 0]),
   midi.NoteOnEvent(tick=2, channel=9, data=[42, 110]),
   midi.NoteOnEvent(tick=94, channel=9, data=[42, 0]),
   midi.NoteOnEvent(tick=2, channel=9, data=[38, 110]),
   midi.NoteOnEvent(tick=0, channel=9, data=[42, 110]),
   midi.NoteOnEvent(tick=94, channel=9, data=[38, 0]),
   midi.NoteOnEvent(tick=0, channel=9, data=[42, 0]),
   midi.NoteOnEvent(tick=2, channel=9, data=[42, 110]),
   midi.NoteOnEvent(tick=94, channel=9, data=[42, 0]),
   midi.NoteOnEvent(tick=2, channel=9, data=[36, 110]),
   midi.NoteOnEvent(tick=0, channel=9, data=[42, 110]),
   midi.NoteOnEvent(tick=94, channel=9, data=[36, 0]),
   midi.NoteOnEvent(tick=0, channel=9, data=[42, 0]),
   midi.NoteOnEvent(tick=2, channel=9, data=[42, 110]),
   midi.NoteOnEvent(tick=94, channel=9, data=[42, 0]),
   midi.NoteOnEvent(tick=2, channel=9, data=[38, 110]),
   midi.NoteOnEvent(tick=0, channel=9, data=[42, 110]),
   midi.NoteOnEvent(tick=94, channel=9, data=[38, 0]),
   midi.NoteOnEvent(tick=0, channel=9, data=[42, 0]),
   midi.NoteOnEvent(tick=2, channel=9, data=[42, 110]),
   midi.NoteOnEvent(tick=94, channel=9, data=[42, 0]),
   midi.NoteOnEvent(tick=2, channel=9, data=[36, 110]),
   midi.NoteOnEvent(tick=0, channel=9, data=[42, 110]),
   midi.NoteOnEvent(tick=94, channel=9, data=[36, 0]),
   midi.NoteOnEvent(tick=0, channel=9, data=[42, 0]),
   midi.NoteOnEvent(tick=2, channel=9, data=[42, 110]),
   midi.NoteOnEvent(tick=94, channel=9, data=[42, 0]),
   midi.NoteOnEvent(tick=2, channel=9, data=[38, 110]),
   midi.NoteOnEvent(tick=0, channel=9, data=[42, 110]),
   midi.NoteOnEvent(tick=94, channel=9, data=[38, 0]),
   midi.NoteOnEvent(tick=0, channel=9, data=[42, 0]),
   midi.NoteOnEvent(tick=2, channel=9, data=[42, 110]),
   midi.NoteOnEvent(tick=94, channel=9, data=[42, 0]),
   midi.NoteOnEvent(tick=2, channel=9, data=[36, 110]),
   midi.NoteOnEvent(tick=0, channel=9, data=[42, 110]),
   midi.NoteOnEvent(tick=94, channel=9, data=[36, 0]),
   midi.NoteOnEvent(tick=0, channel=9, data=[42, 0]),
   midi.NoteOnEvent(tick=2, channel=9, data=[42, 110]),
   midi.NoteOnEvent(tick=94, channel=9, data=[42, 0]),
   midi.NoteOnEvent(tick=2, channel=9, data=[38, 110]),
   midi.NoteOnEvent(tick=0, channel=9, data=[42, 110]),
   midi.NoteOnEvent(tick=94, channel=9, data=[38, 0]),
   midi.NoteOnEvent(tick=0, channel=9, data=[42, 0]),
   midi.NoteOnEvent(tick=2, channel=9, data=[42, 110]),
   midi.NoteOnEvent(tick=94, channel=9, data=[42, 0]),
   midi.NoteOnEvent(tick=2, channel=9, data=[36, 110]),
   midi.NoteOnEvent(tick=0, channel=9, data=[42, 110]),
   midi.NoteOnEvent(tick=94, channel=9, data=[36, 0]),
   midi.NoteOnEvent(tick=0, channel=9, data=[42, 0]),
   midi.NoteOnEvent(tick=2, channel=9, data=[42, 110]),
   midi.NoteOnEvent(tick=94, channel=9, data=[42, 0]),
   midi.NoteOnEvent(tick=2, channel=9, data=[38, 110]),
   midi.NoteOnEvent(tick=0, channel=9, data=[42, 110]),
   midi.NoteOnEvent(tick=94, channel=9, data=[38, 0]),
   midi.NoteOnEvent(tick=0, channel=9, data=[42, 0]),
   midi.NoteOnEvent(tick=2, channel=9, data=[42, 110]),
   midi.NoteOnEvent(tick=94, channel=9, data=[42, 0]),
   midi.NoteOnEvent(tick=2, channel=9, data=[36, 110]),
   midi.NoteOnEvent(tick=0, channel=9, data=[42, 110]),
   midi.NoteOnEvent(tick=94, channel=9, data=[36, 0]),
   midi.NoteOnEvent(tick=0, channel=9, data=[42, 0]),
   midi.NoteOnEvent(tick=2, channel=9, data=[42, 110]),
   midi.NoteOnEvent(tick=94, channel=9, data=[42, 0]),
   midi.NoteOnEvent(tick=2, channel=9, data=[38, 110]),
   midi.NoteOnEvent(tick=0, channel=9, data=[42, 110]),
   midi.NoteOnEvent(tick=94, channel=9, data=[38, 0]),
   midi.NoteOnEvent(tick=0, channel=9, data=[42, 0]),
   midi.NoteOnEvent(tick=2, channel=9, data=[42, 110]),
   midi.NoteOnEvent(tick=94, channel=9, data=[42, 0]),
   midi.NoteOnEvent(tick=2, channel=9, data=[36, 110]),
   midi.NoteOnEvent(tick=0, channel=9, data=[42, 110]),
   midi.NoteOnEvent(tick=94, channel=9, data=[36, 0]),
   midi.NoteOnEvent(tick=0, channel=9, data=[42, 0]),
   midi.NoteOnEvent(tick=2, channel=9, data=[42, 110]),
   midi.NoteOnEvent(tick=94, channel=9, data=[42, 0]),
   midi.NoteOnEvent(tick=2, channel=9, data=[38, 110]),
   midi.NoteOnEvent(tick=0, channel=9, data=[42, 110]),
   midi.NoteOnEvent(tick=94, channel=9, data=[38, 0]),
   midi.NoteOnEvent(tick=0, channel=9, data=[42, 0]),
   midi.NoteOnEvent(tick=2, channel=9, data=[42, 110]),
   midi.NoteOnEvent(tick=94, channel=9, data=[42, 0]),
   midi.NoteOnEvent(tick=2, channel=9, data=[36, 110]),
   midi.NoteOnEvent(tick=0, channel=9, data=[42, 110]),
   midi.NoteOnEvent(tick=0, channel=9, data=[49, 110]),
   midi.NoteOnEvent(tick=160, channel=9, data=[36, 0]),
   midi.NoteOnEvent(tick=0, channel=9, data=[42, 0]),
   midi.NoteOnEvent(tick=0, channel=9, data=[49, 0]),
   midi.NoteOnEvent(tick=32, channel=9, data=[42, 110]),
   midi.NoteOnEvent(tick=160, channel=9, data=[42, 0]),
   midi.NoteOnEvent(tick=32, channel=9, data=[38, 110]),
   midi.NoteOnEvent(tick=0, channel=9, data=[42, 110]),
   midi.NoteOnEvent(tick=160, channel=9, data=[38, 0]),
   midi.NoteOnEvent(tick=0, channel=9, data=[42, 0]),
   midi.NoteOnEvent(tick=32, channel=9, data=[42, 110]),
   midi.NoteOnEvent(tick=160, channel=9, data=[42, 0]),
   midi.NoteOnEvent(tick=32, channel=9, data=[36, 110]),
   midi.NoteOnEvent(tick=0, channel=9, data=[42, 110]),
   midi.NoteOnEvent(tick=160, channel=9, data=[36, 0]),
   midi.NoteOnEvent(tick=0, channel=9, data=[42, 0]),
   midi.NoteOnEvent(tick=32, channel=9, data=[42, 110]),
   midi.NoteOnEvent(tick=160, channel=9, data=[42, 0]),
   midi.NoteOnEvent(tick=32, channel=9, data=[36, 110]),
   midi.NoteOnEvent(tick=0, channel=9, data=[42, 110]),
   midi.NoteOnEvent(tick=94, channel=9, data=[36, 0]),
   midi.NoteOnEvent(tick=0, channel=9, data=[42, 0]),
   midi.NoteOnEvent(tick=2, channel=9, data=[38, 110]),
   midi.NoteOnEvent(tick=0, channel=9, data=[42, 110]),
   midi.NoteOnEvent(tick=0, channel=9, data=[48, 110]),
   midi.NoteOnEvent(tick=256, channel=9, data=[38, 0]),
   midi.NoteOnEvent(tick=0, channel=9, data=[42, 0]),
   midi.NoteOnEvent(tick=0, channel=9, data=[48, 0]),
   midi.NoteOnEvent(tick=32, channel=9, data=[36, 110]),
   midi.NoteOnEvent(tick=0, channel=9, data=[42, 110]),
   midi.NoteOnEvent(tick=0, channel=9, data=[49, 110]),
   midi.NoteOnEvent(tick=160, channel=9, data=[36, 0]),
   midi.NoteOnEvent(tick=0, channel=9, data=[42, 0]),
   midi.NoteOnEvent(tick=0, channel=9, data=[49, 0]),
   midi.NoteOnEvent(tick=32, channel=9, data=[42, 110]),
   midi.NoteOnEvent(tick=160, channel=9, data=[42, 0]),
   midi.NoteOnEvent(tick=32, channel=9, data=[38, 110]),
   midi.NoteOnEvent(tick=0, channel=9, data=[42, 110]),
   midi.NoteOnEvent(tick=160, channel=9, data=[38, 0]),
   midi.NoteOnEvent(tick=0, channel=9, data=[42, 0]),
   midi.NoteOnEvent(tick=32, channel=9, data=[42, 110]),
   midi.NoteOnEvent(tick=160, channel=9, data=[42, 0]),
   midi.NoteOnEvent(tick=32, channel=9, data=[36, 110]),
   midi.NoteOnEvent(tick=0, channel=9, data=[42, 110]),
   midi.NoteOnEvent(tick=160, channel=9, data=[36, 0]),
   midi.NoteOnEvent(tick=0, channel=9, data=[42, 0]),
   midi.NoteOnEvent(tick=32, channel=9, data=[42, 110]),
   midi.NoteOnEvent(tick=160, channel=9, data=[42, 0]),
   midi.NoteOnEvent(tick=32, channel=9, data=[38, 110]),
   midi.NoteOnEvent(tick=0, channel=9, data=[42, 110]),
   midi.NoteOnEvent(tick=160, channel=9, data=[38, 0]),
   midi.NoteOnEvent(tick=0, channel=9, data=[42, 0]),
   midi.NoteOnEvent(tick=32, channel=9, data=[42, 110]),
   midi.NoteOnEvent(tick=160, channel=9, data=[42, 0]),
   midi.NoteOnEvent(tick=32, channel=9, data=[36, 110]),
   midi.NoteOnEvent(tick=0, channel=9, data=[42, 110]),
   midi.NoteOnEvent(tick=94, channel=9, data=[36, 0]),
   midi.NoteOnEvent(tick=0, channel=9, data=[42, 0]),
   midi.NoteOnEvent(tick=2, channel=9, data=[42, 110]),
   midi.NoteOnEvent(tick=94, channel=9, data=[42, 0]),
   midi.NoteOnEvent(tick=2, channel=9, data=[38, 110]),
   midi.NoteOnEvent(tick=0, channel=9, data=[42, 110]),
   midi.NoteOnEvent(tick=94, channel=9, data=[38, 0]),
   midi.NoteOnEvent(tick=0, channel=9, data=[42, 0]),
   midi.NoteOnEvent(tick=2, channel=9, data=[42, 110]),
   midi.NoteOnEvent(tick=94, channel=9, data=[42, 0]),
   midi.NoteOnEvent(tick=2, channel=9, data=[36, 110]),
   midi.NoteOnEvent(tick=0, channel=9, data=[42, 110]),
   midi.NoteOnEvent(tick=94, channel=9, data=[36, 0]),
   midi.NoteOnEvent(tick=0, channel=9, data=[42, 0]),
   midi.NoteOnEvent(tick=2, channel=9, data=[42, 110]),
   midi.NoteOnEvent(tick=94, channel=9, data=[42, 0]),
   midi.NoteOnEvent(tick=2, channel=9, data=[38, 110]),
   midi.NoteOnEvent(tick=0, channel=9, data=[42, 110]),
   midi.NoteOnEvent(tick=94, channel=9, data=[38, 0]),
   midi.NoteOnEvent(tick=0, channel=9, data=[42, 0]),
   midi.NoteOnEvent(tick=2, channel=9, data=[42, 110]),
   midi.NoteOnEvent(tick=94, channel=9, data=[42, 0]),
   midi.NoteOnEvent(tick=2, channel=9, data=[36, 110]),
   midi.NoteOnEvent(tick=0, channel=9, data=[42, 110]),
   midi.NoteOnEvent(tick=94, channel=9, data=[36, 0]),
   midi.NoteOnEvent(tick=0, channel=9, data=[42, 0]),
   midi.NoteOnEvent(tick=2, channel=9, data=[42, 110]),
   midi.NoteOnEvent(tick=94, channel=9, data=[42, 0]),
   midi.NoteOnEvent(tick=2, channel=9, data=[38, 110]),
   midi.NoteOnEvent(tick=0, channel=9, data=[42, 110]),
   midi.NoteOnEvent(tick=94, channel=9, data=[38, 0]),
   midi.NoteOnEvent(tick=0, channel=9, data=[42, 0]),
   midi.NoteOnEvent(tick=2, channel=9, data=[42, 110]),
   midi.NoteOnEvent(tick=94, channel=9, data=[42, 0]),
   midi.NoteOnEvent(tick=2, channel=9, data=[36, 110]),
   midi.NoteOnEvent(tick=0, channel=9, data=[42, 110]),
   midi.NoteOnEvent(tick=94, channel=9, data=[36, 0]),
   midi.NoteOnEvent(tick=0, channel=9, data=[42, 0]),
   midi.NoteOnEvent(tick=2, channel=9, data=[42, 110]),
   midi.NoteOnEvent(tick=94, channel=9, data=[42, 0]),
   midi.NoteOnEvent(tick=2, channel=9, data=[38, 110]),
   midi.NoteOnEvent(tick=0, channel=9, data=[42, 110]),
   midi.NoteOnEvent(tick=94, channel=9, data=[38, 0]),
   midi.NoteOnEvent(tick=0, channel=9, data=[42, 0]),
   midi.NoteOnEvent(tick=2, channel=9, data=[42, 110]),
   midi.NoteOnEvent(tick=94, channel=9, data=[42, 0]),
   midi.NoteOnEvent(tick=2, channel=9, data=[36, 110]),
   midi.NoteOnEvent(tick=0, channel=9, data=[42, 110]),
   midi.NoteOnEvent(tick=94, channel=9, data=[36, 0]),
   midi.NoteOnEvent(tick=0, channel=9, data=[42, 0]),
   midi.NoteOnEvent(tick=2, channel=9, data=[42, 110]),
   midi.NoteOnEvent(tick=94, channel=9, data=[42, 0]),
   midi.NoteOnEvent(tick=2, channel=9, data=[38, 110]),
   midi.NoteOnEvent(tick=0, channel=9, data=[42, 110]),
   midi.NoteOnEvent(tick=94, channel=9, data=[38, 0]),
   midi.NoteOnEvent(tick=0, channel=9, data=[42, 0]),
   midi.NoteOnEvent(tick=2, channel=9, data=[42, 110]),
   midi.NoteOnEvent(tick=94, channel=9, data=[42, 0]),
   midi.NoteOnEvent(tick=2, channel=9, data=[36, 110]),
   midi.NoteOnEvent(tick=0, channel=9, data=[42, 110]),
   midi.NoteOnEvent(tick=94, channel=9, data=[36, 0]),
   midi.NoteOnEvent(tick=0, channel=9, data=[42, 0]),
   midi.NoteOnEvent(tick=2, channel=9, data=[42, 110]),
   midi.NoteOnEvent(tick=94, channel=9, data=[42, 0]),
   midi.NoteOnEvent(tick=2, channel=9, data=[38, 110]),
   midi.NoteOnEvent(tick=0, channel=9, data=[42, 110]),
   midi.NoteOnEvent(tick=94, channel=9, data=[38, 0]),
   midi.NoteOnEvent(tick=0, channel=9, data=[42, 0]),
   midi.NoteOnEvent(tick=2, channel=9, data=[42, 110]),
   midi.NoteOnEvent(tick=94, channel=9, data=[42, 0]),
   midi.NoteOnEvent(tick=2, channel=9, data=[36, 110]),
   midi.NoteOnEvent(tick=0, channel=9, data=[42, 110]),
   midi.NoteOnEvent(tick=94, channel=9, data=[36, 0]),
   midi.NoteOnEvent(tick=0, channel=9, data=[42, 0]),
   midi.NoteOnEvent(tick=2, channel=9, data=[42, 110]),
   midi.NoteOnEvent(tick=94, channel=9, data=[42, 0]),
   midi.NoteOnEvent(tick=2, channel=9, data=[38, 110]),
   midi.NoteOnEvent(tick=0, channel=9, data=[42, 110]),
   midi.NoteOnEvent(tick=94, channel=9, data=[38, 0]),
   midi.NoteOnEvent(tick=0, channel=9, data=[42, 0]),
   midi.NoteOnEvent(tick=2, channel=9, data=[42, 110]),
   midi.NoteOnEvent(tick=94, channel=9, data=[42, 0]),
   midi.NoteOnEvent(tick=2, channel=9, data=[36, 110]),
   midi.NoteOnEvent(tick=0, channel=9, data=[42, 110]),
   midi.NoteOnEvent(tick=94, channel=9, data=[36, 0]),
   midi.NoteOnEvent(tick=0, channel=9, data=[42, 0]),
   midi.NoteOnEvent(tick=2, channel=9, data=[42, 110]),
   midi.NoteOnEvent(tick=94, channel=9, data=[42, 0]),
   midi.NoteOnEvent(tick=2, channel=9, data=[38, 110]),
   midi.NoteOnEvent(tick=0, channel=9, data=[42, 110]),
   midi.NoteOnEvent(tick=94, channel=9, data=[38, 0]),
   midi.NoteOnEvent(tick=0, channel=9, data=[42, 0]),
   midi.NoteOnEvent(tick=2, channel=9, data=[42, 110]),
   midi.NoteOnEvent(tick=94, channel=9, data=[42, 0]),
   midi.NoteOnEvent(tick=2, channel=9, data=[36, 110]),
   midi.NoteOnEvent(tick=0, channel=9, data=[42, 110]),
   midi.NoteOnEvent(tick=0, channel=9, data=[49, 110]),
   midi.NoteOnEvent(tick=160, channel=9, data=[36, 0]),
   midi.NoteOnEvent(tick=0, channel=9, data=[42, 0]),
   midi.NoteOnEvent(tick=0, channel=9, data=[49, 0]),
   midi.NoteOnEvent(tick=32, channel=9, data=[42, 110]),
   midi.NoteOnEvent(tick=160, channel=9, data=[42, 0]),
   midi.NoteOnEvent(tick=32, channel=9, data=[38, 110]),
   midi.NoteOnEvent(tick=0, channel=9, data=[42, 110]),
   midi.NoteOnEvent(tick=160, channel=9, data=[38, 0]),
   midi.NoteOnEvent(tick=0, channel=9, data=[42, 0]),
   midi.NoteOnEvent(tick=32, channel=9, data=[42, 110]),
   midi.NoteOnEvent(tick=160, channel=9, data=[42, 0]),
   midi.NoteOnEvent(tick=32, channel=9, data=[36, 110]),
   midi.NoteOnEvent(tick=0, channel=9, data=[42, 110]),
   midi.NoteOnEvent(tick=160, channel=9, data=[36, 0]),
   midi.NoteOnEvent(tick=0, channel=9, data=[42, 0]),
   midi.NoteOnEvent(tick=32, channel=9, data=[42, 110]),
   midi.NoteOnEvent(tick=160, channel=9, data=[42, 0]),
   midi.NoteOnEvent(tick=32, channel=9, data=[36, 110]),
   midi.NoteOnEvent(tick=0, channel=9, data=[42, 110]),
   midi.NoteOnEvent(tick=94, channel=9, data=[36, 0]),
   midi.NoteOnEvent(tick=0, channel=9, data=[42, 0]),
   midi.NoteOnEvent(tick=2, channel=9, data=[38, 110]),
   midi.NoteOnEvent(tick=0, channel=9, data=[42, 110]),
   midi.NoteOnEvent(tick=0, channel=9, data=[48, 110]),
   midi.NoteOnEvent(tick=256, channel=9, data=[38, 0]),
   midi.NoteOnEvent(tick=0, channel=9, data=[42, 0]),
   midi.NoteOnEvent(tick=0, channel=9, data=[48, 0]),
   midi.NoteOnEvent(tick=32, channel=9, data=[36, 110]),
   midi.NoteOnEvent(tick=0, channel=9, data=[42, 110]),
   midi.NoteOnEvent(tick=0, channel=9, data=[49, 110]),
   midi.NoteOnEvent(tick=160, channel=9, data=[36, 0]),
   midi.NoteOnEvent(tick=0, channel=9, data=[42, 0]),
   midi.NoteOnEvent(tick=0, channel=9, data=[49, 0]),
   midi.NoteOnEvent(tick=32, channel=9, data=[42, 110]),
   midi.NoteOnEvent(tick=160, channel=9, data=[42, 0]),
   midi.NoteOnEvent(tick=32, channel=9, data=[38, 110]),
   midi.NoteOnEvent(tick=0, channel=9, data=[42, 110]),
   midi.NoteOnEvent(tick=160, channel=9, data=[38, 0]),
   midi.NoteOnEvent(tick=0, channel=9, data=[42, 0]),
   midi.NoteOnEvent(tick=32, channel=9, data=[42, 110]),
   midi.NoteOnEvent(tick=160, channel=9, data=[42, 0]),
   midi.NoteOnEvent(tick=32, channel=9, data=[36, 110]),
   midi.NoteOnEvent(tick=0, channel=9, data=[42, 110]),
   midi.NoteOnEvent(tick=160, channel=9, data=[36, 0]),
   midi.NoteOnEvent(tick=0, channel=9, data=[42, 0]),
   midi.NoteOnEvent(tick=32, channel=9, data=[42, 110]),
   midi.NoteOnEvent(tick=160, channel=9, data=[42, 0]),
   midi.NoteOnEvent(tick=32, channel=9, data=[38, 110]),
   midi.NoteOnEvent(tick=0, channel=9, data=[42, 110]),
   midi.NoteOnEvent(tick=160, channel=9, data=[38, 0]),
   midi.NoteOnEvent(tick=0, channel=9, data=[42, 0]),
   midi.NoteOnEvent(tick=32, channel=9, data=[42, 110]),
   midi.NoteOnEvent(tick=160, channel=9, data=[42, 0]),
   midi.NoteOnEvent(tick=32, channel=9, data=[36, 110]),
   midi.NoteOnEvent(tick=0, channel=9, data=[42, 110]),
   midi.NoteOnEvent(tick=94, channel=9, data=[36, 0]),
   midi.NoteOnEvent(tick=0, channel=9, data=[42, 0]),
   midi.NoteOnEvent(tick=2, channel=9, data=[42, 110]),
   midi.NoteOnEvent(tick=94, channel=9, data=[42, 0]),
   midi.NoteOnEvent(tick=2, channel=9, data=[38, 110]),
   midi.NoteOnEvent(tick=0, channel=9, data=[42, 110]),
   midi.NoteOnEvent(tick=94, channel=9, data=[38, 0]),
   midi.NoteOnEvent(tick=0, channel=9, data=[42, 0]),
   midi.NoteOnEvent(tick=2, channel=9, data=[42, 110]),
   midi.NoteOnEvent(tick=94, channel=9, data=[42, 0]),
   midi.NoteOnEvent(tick=2, channel=9, data=[36, 110]),
   midi.NoteOnEvent(tick=0, channel=9, data=[42, 110]),
   midi.NoteOnEvent(tick=94, channel=9, data=[36, 0]),
   midi.NoteOnEvent(tick=0, channel=9, data=[42, 0]),
   midi.NoteOnEvent(tick=2, channel=9, data=[42, 110]),
   midi.NoteOnEvent(tick=94, channel=9, data=[42, 0]),
   midi.NoteOnEvent(tick=2, channel=9, data=[38, 110]),
   midi.NoteOnEvent(tick=0, channel=9, data=[42, 110]),
   midi.NoteOnEvent(tick=94, channel=9, data=[38, 0]),
   midi.NoteOnEvent(tick=0, channel=9, data=[42, 0]),
   midi.NoteOnEvent(tick=2, channel=9, data=[42, 110]),
   midi.NoteOnEvent(tick=94, channel=9, data=[42, 0]),
   midi.NoteOnEvent(tick=2, channel=9, data=[36, 110]),
   midi.NoteOnEvent(tick=0, channel=9, data=[42, 110]),
   midi.NoteOnEvent(tick=94, channel=9, data=[36, 0]),
   midi.NoteOnEvent(tick=0, channel=9, data=[42, 0]),
   midi.NoteOnEvent(tick=2, channel=9, data=[42, 110]),
   midi.NoteOnEvent(tick=94, channel=9, data=[42, 0]),
   midi.NoteOnEvent(tick=2, channel=9, data=[38, 110]),
   midi.NoteOnEvent(tick=0, channel=9, data=[42, 110]),
   midi.NoteOnEvent(tick=94, channel=9, data=[38, 0]),
   midi.NoteOnEvent(tick=0, channel=9, data=[42, 0]),
   midi.NoteOnEvent(tick=2, channel=9, data=[42, 110]),
   midi.NoteOnEvent(tick=94, channel=9, data=[42, 0]),
   midi.NoteOnEvent(tick=2, channel=9, data=[36, 110]),
   midi.NoteOnEvent(tick=0, channel=9, data=[42, 110]),
   midi.NoteOnEvent(tick=94, channel=9, data=[36, 0]),
   midi.NoteOnEvent(tick=0, channel=9, data=[42, 0]),
   midi.NoteOnEvent(tick=2, channel=9, data=[42, 110]),
   midi.NoteOnEvent(tick=94, channel=9, data=[42, 0]),
   midi.NoteOnEvent(tick=2, channel=9, data=[38, 110]),
   midi.NoteOnEvent(tick=0, channel=9, data=[42, 110]),
   midi.NoteOnEvent(tick=94, channel=9, data=[38, 0]),
   midi.NoteOnEvent(tick=0, channel=9, data=[42, 0]),
   midi.NoteOnEvent(tick=2, channel=9, data=[42, 110]),
   midi.NoteOnEvent(tick=94, channel=9, data=[42, 0]),
   midi.NoteOnEvent(tick=2, channel=9, data=[36, 110]),
   midi.NoteOnEvent(tick=0, channel=9, data=[42, 110]),
   midi.NoteOnEvent(tick=94, channel=9, data=[36, 0]),
   midi.NoteOnEvent(tick=0, channel=9, data=[42, 0]),
   midi.NoteOnEvent(tick=2, channel=9, data=[42, 110]),
   midi.NoteOnEvent(tick=94, channel=9, data=[42, 0]),
   midi.NoteOnEvent(tick=2, channel=9, data=[38, 110]),
   midi.NoteOnEvent(tick=0, channel=9, data=[42, 110]),
   midi.NoteOnEvent(tick=94, channel=9, data=[38, 0]),
   midi.NoteOnEvent(tick=0, channel=9, data=[42, 0]),
   midi.NoteOnEvent(tick=2, channel=9, data=[42, 110]),
   midi.NoteOnEvent(tick=94, channel=9, data=[42, 0]),
   midi.NoteOnEvent(tick=2, channel=9, data=[36, 110]),
   midi.NoteOnEvent(tick=0, channel=9, data=[42, 110]),
   midi.NoteOnEvent(tick=94, channel=9, data=[36, 0]),
   midi.NoteOnEvent(tick=0, channel=9, data=[42, 0]),
   midi.NoteOnEvent(tick=2, channel=9, data=[42, 110]),
   midi.NoteOnEvent(tick=94, channel=9, data=[42, 0]),
   midi.NoteOnEvent(tick=2, channel=9, data=[38, 110]),
   midi.NoteOnEvent(tick=0, channel=9, data=[42, 110]),
   midi.NoteOnEvent(tick=94, channel=9, data=[38, 0]),
   midi.NoteOnEvent(tick=0, channel=9, data=[42, 0]),
   midi.NoteOnEvent(tick=2, channel=9, data=[42, 110]),
   midi.NoteOnEvent(tick=94, channel=9, data=[42, 0]),
   midi.NoteOnEvent(tick=2, channel=9, data=[36, 110]),
   midi.NoteOnEvent(tick=0, channel=9, data=[42, 110]),
   midi.NoteOnEvent(tick=94, channel=9, data=[36, 0]),
   midi.NoteOnEvent(tick=0, channel=9, data=[42, 0]),
   midi.NoteOnEvent(tick=2, channel=9, data=[42, 110]),
   midi.NoteOnEvent(tick=94, channel=9, data=[42, 0]),
   midi.NoteOnEvent(tick=2, channel=9, data=[38, 110]),
   midi.NoteOnEvent(tick=0, channel=9, data=[42, 110]),
   midi.NoteOnEvent(tick=94, channel=9, data=[38, 0]),
   midi.NoteOnEvent(tick=0, channel=9, data=[42, 0]),
   midi.NoteOnEvent(tick=2, channel=9, data=[42, 110]),
   midi.NoteOnEvent(tick=94, channel=9, data=[42, 0]),
   midi.NoteOnEvent(tick=2, channel=9, data=[36, 110]),
   midi.NoteOnEvent(tick=0, channel=9, data=[42, 110]),
   midi.NoteOnEvent(tick=94, channel=9, data=[36, 0]),
   midi.NoteOnEvent(tick=0, channel=9, data=[42, 0]),
   midi.NoteOnEvent(tick=2, channel=9, data=[42, 110]),
   midi.NoteOnEvent(tick=94, channel=9, data=[42, 0]),
   midi.NoteOnEvent(tick=2, channel=9, data=[38, 110]),
   midi.NoteOnEvent(tick=0, channel=9, data=[42, 110]),
   midi.NoteOnEvent(tick=94, channel=9, data=[38, 0]),
   midi.NoteOnEvent(tick=0, channel=9, data=[42, 0]),
   midi.NoteOnEvent(tick=2, channel=9, data=[42, 110]),
   midi.NoteOnEvent(tick=94, channel=9, data=[42, 0]),
   midi.NoteOnEvent(tick=2, channel=9, data=[36, 110]),
   midi.NoteOnEvent(tick=0, channel=9, data=[42, 110]),
   midi.NoteOnEvent(tick=0, channel=9, data=[49, 110]),
   midi.NoteOnEvent(tick=160, channel=9, data=[36, 0]),
   midi.NoteOnEvent(tick=0, channel=9, data=[42, 0]),
   midi.NoteOnEvent(tick=0, channel=9, data=[49, 0]),
   midi.NoteOnEvent(tick=32, channel=9, data=[42, 110]),
   midi.NoteOnEvent(tick=94, channel=9, data=[42, 0]),
   midi.NoteOnEvent(tick=2, channel=9, data=[36, 110]),
   midi.NoteOnEvent(tick=94, channel=9, data=[36, 0]),
   midi.NoteOnEvent(tick=2, channel=9, data=[38, 110]),
   midi.NoteOnEvent(tick=0, channel=9, data=[42, 110]),
   midi.NoteOnEvent(tick=94, channel=9, data=[38, 0]),
   midi.NoteOnEvent(tick=0, channel=9, data=[42, 0]),
   midi.NoteOnEvent(tick=2, channel=9, data=[36, 110]),
   midi.NoteOnEvent(tick=94, channel=9, data=[36, 0]),
   midi.NoteOnEvent(tick=2, channel=9, data=[42, 110]),
   midi.NoteOnEvent(tick=94, channel=9, data=[42, 0]),
   midi.NoteOnEvent(tick=2, channel=9, data=[36, 110]),
   midi.NoteOnEvent(tick=94, channel=9, data=[36, 0]),
   midi.NoteOnEvent(tick=2, channel=9, data=[38, 110]),
   midi.NoteOnEvent(tick=0, channel=9, data=[42, 110]),
   midi.NoteOnEvent(tick=94, channel=9, data=[38, 0]),
   midi.NoteOnEvent(tick=0, channel=9, data=[42, 0]),
   midi.NoteOnEvent(tick=2, channel=9, data=[36, 110]),
   midi.NoteOnEvent(tick=94, channel=9, data=[36, 0]),
   midi.NoteOnEvent(tick=2, channel=9, data=[42, 110]),
   midi.NoteOnEvent(tick=94, channel=9, data=[42, 0]),
   midi.NoteOnEvent(tick=2, channel=9, data=[36, 110]),
   midi.NoteOnEvent(tick=94, channel=9, data=[36, 0]),
   midi.NoteOnEvent(tick=2, channel=9, data=[38, 110]),
   midi.NoteOnEvent(tick=0, channel=9, data=[42, 110]),
   midi.NoteOnEvent(tick=94, channel=9, data=[38, 0]),
   midi.NoteOnEvent(tick=0, channel=9, data=[42, 0]),
   midi.NoteOnEvent(tick=2, channel=9, data=[36, 110]),
   midi.NoteOnEvent(tick=94, channel=9, data=[36, 0]),
   midi.NoteOnEvent(tick=2, channel=9, data=[42, 110]),
   midi.NoteOnEvent(tick=94, channel=9, data=[42, 0]),
   midi.NoteOnEvent(tick=2, channel=9, data=[36, 110]),
   midi.NoteOnEvent(tick=94, channel=9, data=[36, 0]),
   midi.NoteOnEvent(tick=2, channel=9, data=[36, 110]),
   midi.NoteOnEvent(tick=0, channel=9, data=[42, 110]),
   midi.NoteOnEvent(tick=0, channel=9, data=[49, 110]),
   midi.NoteOnEvent(tick=160, channel=9, data=[36, 0]),
   midi.NoteOnEvent(tick=0, channel=9, data=[42, 0]),
   midi.NoteOnEvent(tick=0, channel=9, data=[49, 0]),
   midi.NoteOnEvent(tick=32, channel=9, data=[42, 110]),
   midi.NoteOnEvent(tick=94, channel=9, data=[42, 0]),
   midi.NoteOnEvent(tick=2, channel=9, data=[36, 110]),
   midi.NoteOnEvent(tick=94, channel=9, data=[36, 0]),
   midi.NoteOnEvent(tick=2, channel=9, data=[38, 110]),
   midi.NoteOnEvent(tick=0, channel=9, data=[42, 110]),
   midi.NoteOnEvent(tick=94, channel=9, data=[38, 0]),
   midi.NoteOnEvent(tick=0, channel=9, data=[42, 0]),
   midi.NoteOnEvent(tick=2, channel=9, data=[36, 110]),
   midi.NoteOnEvent(tick=94, channel=9, data=[36, 0]),
   midi.NoteOnEvent(tick=2, channel=9, data=[42, 110]),
   midi.NoteOnEvent(tick=94, channel=9, data=[42, 0]),
   midi.NoteOnEvent(tick=2, channel=9, data=[36, 110]),
   midi.NoteOnEvent(tick=94, channel=9, data=[36, 0]),
   midi.NoteOnEvent(tick=2, channel=9, data=[38, 110]),
   midi.NoteOnEvent(tick=0, channel=9, data=[42, 110]),
   midi.NoteOnEvent(tick=94, channel=9, data=[38, 0]),
   midi.NoteOnEvent(tick=0, channel=9, data=[42, 0]),
   midi.NoteOnEvent(tick=2, channel=9, data=[36, 110]),
   midi.NoteOnEvent(tick=94, channel=9, data=[36, 0]),
   midi.NoteOnEvent(tick=2, channel=9, data=[42, 110]),
   midi.NoteOnEvent(tick=94, channel=9, data=[42, 0]),
   midi.NoteOnEvent(tick=2, channel=9, data=[36, 110]),
   midi.NoteOnEvent(tick=94, channel=9, data=[36, 0]),
   midi.NoteOnEvent(tick=2, channel=9, data=[38, 110]),
   midi.NoteOnEvent(tick=0, channel=9, data=[42, 110]),
   midi.NoteOnEvent(tick=94, channel=9, data=[38, 0]),
   midi.NoteOnEvent(tick=0, channel=9, data=[42, 0]),
   midi.NoteOnEvent(tick=2, channel=9, data=[36, 110]),
   midi.NoteOnEvent(tick=94, channel=9, data=[36, 0]),
   midi.NoteOnEvent(tick=2, channel=9, data=[42, 110]),
   midi.NoteOnEvent(tick=94, channel=9, data=[42, 0]),
   midi.NoteOnEvent(tick=2, channel=9, data=[36, 110]),
   midi.NoteOnEvent(tick=94, channel=9, data=[36, 0]),
   midi.NoteOnEvent(tick=2, channel=9, data=[36, 110]),
   midi.NoteOnEvent(tick=0, channel=9, data=[42, 110]),
   midi.NoteOnEvent(tick=94, channel=9, data=[36, 0]),
   midi.NoteOnEvent(tick=0, channel=9, data=[42, 0]),
   midi.NoteOnEvent(tick=2, channel=9, data=[42, 110]),
   midi.NoteOnEvent(tick=94, channel=9, data=[42, 0]),
   midi.NoteOnEvent(tick=2, channel=9, data=[38, 110]),
   midi.NoteOnEvent(tick=0, channel=9, data=[42, 110]),
   midi.NoteOnEvent(tick=94, channel=9, data=[38, 0]),
   midi.NoteOnEvent(tick=0, channel=9, data=[42, 0]),
   midi.NoteOnEvent(tick=2, channel=9, data=[42, 110]),
   midi.NoteOnEvent(tick=94, channel=9, data=[42, 0]),
   midi.NoteOnEvent(tick=2, channel=9, data=[36, 110]),
   midi.NoteOnEvent(tick=0, channel=9, data=[42, 110]),
   midi.NoteOnEvent(tick=94, channel=9, data=[36, 0]),
   midi.NoteOnEvent(tick=0, channel=9, data=[42, 0]),
   midi.NoteOnEvent(tick=2, channel=9, data=[42, 110]),
   midi.NoteOnEvent(tick=94, channel=9, data=[42, 0]),
   midi.NoteOnEvent(tick=2, channel=9, data=[38, 110]),
   midi.NoteOnEvent(tick=0, channel=9, data=[42, 110]),
   midi.NoteOnEvent(tick=94, channel=9, data=[38, 0]),
   midi.NoteOnEvent(tick=0, channel=9, data=[42, 0]),
   midi.NoteOnEvent(tick=2, channel=9, data=[42, 110]),
   midi.NoteOnEvent(tick=94, channel=9, data=[42, 0]),
   midi.NoteOnEvent(tick=2, channel=9, data=[36, 110]),
   midi.NoteOnEvent(tick=0, channel=9, data=[42, 110]),
   midi.NoteOnEvent(tick=94, channel=9, data=[36, 0]),
   midi.NoteOnEvent(tick=0, channel=9, data=[42, 0]),
   midi.NoteOnEvent(tick=2, channel=9, data=[42, 110]),
   midi.NoteOnEvent(tick=94, channel=9, data=[42, 0]),
   midi.NoteOnEvent(tick=2, channel=9, data=[38, 110]),
   midi.NoteOnEvent(tick=0, channel=9, data=[42, 110]),
   midi.NoteOnEvent(tick=94, channel=9, data=[38, 0]),
   midi.NoteOnEvent(tick=0, channel=9, data=[42, 0]),
   midi.NoteOnEvent(tick=2, channel=9, data=[42, 110]),
   midi.NoteOnEvent(tick=94, channel=9, data=[42, 0]),
   midi.NoteOnEvent(tick=2, channel=9, data=[36, 110]),
   midi.NoteOnEvent(tick=0, channel=9, data=[42, 110]),
   midi.NoteOnEvent(tick=94, channel=9, data=[36, 0]),
   midi.NoteOnEvent(tick=0, channel=9, data=[42, 0]),
   midi.NoteOnEvent(tick=2, channel=9, data=[42, 110]),
   midi.NoteOnEvent(tick=94, channel=9, data=[42, 0]),
   midi.NoteOnEvent(tick=2, channel=9, data=[38, 110]),
   midi.NoteOnEvent(tick=0, channel=9, data=[42, 110]),
   midi.NoteOnEvent(tick=94, channel=9, data=[38, 0]),
   midi.NoteOnEvent(tick=0, channel=9, data=[42, 0]),
   midi.NoteOnEvent(tick=2, channel=9, data=[42, 110]),
   midi.NoteOnEvent(tick=94, channel=9, data=[42, 0]),
   midi.NoteOnEvent(tick=2, channel=9, data=[36, 110]),
   midi.NoteOnEvent(tick=0, channel=9, data=[42, 110]),
   midi.NoteOnEvent(tick=94, channel=9, data=[36, 0]),
   midi.NoteOnEvent(tick=0, channel=9, data=[42, 0]),
   midi.NoteOnEvent(tick=2, channel=9, data=[42, 110]),
   midi.NoteOnEvent(tick=94, channel=9, data=[42, 0]),
   midi.NoteOnEvent(tick=2, channel=9, data=[38, 110]),
   midi.NoteOnEvent(tick=0, channel=9, data=[42, 110]),
   midi.NoteOnEvent(tick=94, channel=9, data=[38, 0]),
   midi.NoteOnEvent(tick=0, channel=9, data=[42, 0]),
   midi.NoteOnEvent(tick=2, channel=9, data=[42, 110]),
   midi.NoteOnEvent(tick=94, channel=9, data=[42, 0]),
   midi.NoteOnEvent(tick=2, channel=9, data=[36, 110]),
   midi.NoteOnEvent(tick=0, channel=9, data=[42, 110]),
   midi.NoteOnEvent(tick=94, channel=9, data=[36, 0]),
   midi.NoteOnEvent(tick=0, channel=9, data=[42, 0]),
   midi.NoteOnEvent(tick=2, channel=9, data=[42, 110]),
   midi.NoteOnEvent(tick=94, channel=9, data=[42, 0]),
   midi.NoteOnEvent(tick=2, channel=9, data=[38, 110]),
   midi.NoteOnEvent(tick=0, channel=9, data=[42, 110]),
   midi.NoteOnEvent(tick=94, channel=9, data=[38, 0]),
   midi.NoteOnEvent(tick=0, channel=9, data=[42, 0]),
   midi.NoteOnEvent(tick=2, channel=9, data=[42, 110]),
   midi.NoteOnEvent(tick=94, channel=9, data=[42, 0]),
   midi.NoteOnEvent(tick=2, channel=9, data=[36, 110]),
   midi.NoteOnEvent(tick=0, channel=9, data=[42, 110]),
   midi.NoteOnEvent(tick=94, channel=9, data=[36, 0]),
   midi.NoteOnEvent(tick=0, channel=9, data=[42, 0]),
   midi.NoteOnEvent(tick=2, channel=9, data=[42, 110]),
   midi.NoteOnEvent(tick=94, channel=9, data=[42, 0]),
   midi.NoteOnEvent(tick=2, channel=9, data=[38, 110]),
   midi.NoteOnEvent(tick=0, channel=9, data=[42, 110]),
   midi.NoteOnEvent(tick=94, channel=9, data=[38, 0]),
   midi.NoteOnEvent(tick=0, channel=9, data=[42, 0]),
   midi.NoteOnEvent(tick=2, channel=9, data=[42, 110]),
   midi.NoteOnEvent(tick=94, channel=9, data=[42, 0]),
   midi.NoteOnEvent(tick=2, channel=9, data=[36, 110]),
   midi.NoteOnEvent(tick=0, channel=9, data=[42, 110]),
   midi.NoteOnEvent(tick=94, channel=9, data=[36, 0]),
   midi.NoteOnEvent(tick=0, channel=9, data=[42, 0]),
   midi.NoteOnEvent(tick=2, channel=9, data=[42, 110]),
   midi.NoteOnEvent(tick=94, channel=9, data=[42, 0]),
   midi.NoteOnEvent(tick=2, channel=9, data=[38, 110]),
   midi.NoteOnEvent(tick=0, channel=9, data=[42, 110]),
   midi.NoteOnEvent(tick=94, channel=9, data=[38, 0]),
   midi.NoteOnEvent(tick=0, channel=9, data=[42, 0]),
   midi.NoteOnEvent(tick=2, channel=9, data=[42, 110]),
   midi.NoteOnEvent(tick=94, channel=9, data=[42, 0]),
   midi.NoteOnEvent(tick=2, channel=9, data=[36, 110]),
   midi.NoteOnEvent(tick=0, channel=9, data=[42, 110]),
   midi.NoteOnEvent(tick=0, channel=9, data=[49, 110]),
   midi.NoteOnEvent(tick=160, channel=9, data=[36, 0]),
   midi.NoteOnEvent(tick=0, channel=9, data=[42, 0]),
   midi.NoteOnEvent(tick=0, channel=9, data=[49, 0]),
   midi.NoteOnEvent(tick=32, channel=9, data=[42, 110]),
   midi.NoteOnEvent(tick=94, channel=9, data=[42, 0]),
   midi.NoteOnEvent(tick=2, channel=9, data=[36, 110]),
   midi.NoteOnEvent(tick=94, channel=9, data=[36, 0]),
   midi.NoteOnEvent(tick=2, channel=9, data=[38, 110]),
   midi.NoteOnEvent(tick=0, channel=9, data=[42, 110]),
   midi.NoteOnEvent(tick=94, channel=9, data=[38, 0]),
   midi.NoteOnEvent(tick=0, channel=9, data=[42, 0]),
   midi.NoteOnEvent(tick=2, channel=9, data=[36, 110]),
   midi.NoteOnEvent(tick=94, channel=9, data=[36, 0]),
   midi.NoteOnEvent(tick=2, channel=9, data=[42, 110]),
   midi.NoteOnEvent(tick=94, channel=9, data=[42, 0]),
   midi.NoteOnEvent(tick=2, channel=9, data=[36, 110]),
   midi.NoteOnEvent(tick=94, channel=9, data=[36, 0]),
   midi.NoteOnEvent(tick=2, channel=9, data=[38, 110]),
   midi.NoteOnEvent(tick=0, channel=9, data=[42, 110]),
   midi.NoteOnEvent(tick=94, channel=9, data=[38, 0]),
   midi.NoteOnEvent(tick=0, channel=9, data=[42, 0]),
   midi.NoteOnEvent(tick=2, channel=9, data=[36, 110]),
   midi.NoteOnEvent(tick=94, channel=9, data=[36, 0]),
   midi.NoteOnEvent(tick=2, channel=9, data=[42, 110]),
   midi.NoteOnEvent(tick=94, channel=9, data=[42, 0]),
   midi.NoteOnEvent(tick=2, channel=9, data=[36, 110]),
   midi.NoteOnEvent(tick=94, channel=9, data=[36, 0]),
   midi.NoteOnEvent(tick=2, channel=9, data=[38, 110]),
   midi.NoteOnEvent(tick=0, channel=9, data=[42, 110]),
   midi.NoteOnEvent(tick=94, channel=9, data=[38, 0]),
   midi.NoteOnEvent(tick=0, channel=9, data=[42, 0]),
   midi.NoteOnEvent(tick=2, channel=9, data=[36, 110]),
   midi.NoteOnEvent(tick=94, channel=9, data=[36, 0]),
   midi.NoteOnEvent(tick=2, channel=9, data=[42, 110]),
   midi.NoteOnEvent(tick=94, channel=9, data=[42, 0]),
   midi.NoteOnEvent(tick=2, channel=9, data=[36, 110]),
   midi.NoteOnEvent(tick=94, channel=9, data=[36, 0]),
   midi.NoteOnEvent(tick=2, channel=9, data=[36, 110]),
   midi.NoteOnEvent(tick=0, channel=9, data=[42, 110]),
   midi.NoteOnEvent(tick=0, channel=9, data=[49, 110]),
   midi.NoteOnEvent(tick=160, channel=9, data=[36, 0]),
   midi.NoteOnEvent(tick=0, channel=9, data=[42, 0]),
   midi.NoteOnEvent(tick=0, channel=9, data=[49, 0]),
   midi.NoteOnEvent(tick=32, channel=9, data=[42, 110]),
   midi.NoteOnEvent(tick=94, channel=9, data=[42, 0]),
   midi.NoteOnEvent(tick=2, channel=9, data=[36, 110]),
   midi.NoteOnEvent(tick=94, channel=9, data=[36, 0]),
   midi.NoteOnEvent(tick=2, channel=9, data=[38, 110]),
   midi.NoteOnEvent(tick=0, channel=9, data=[42, 110]),
   midi.NoteOnEvent(tick=94, channel=9, data=[38, 0]),
   midi.NoteOnEvent(tick=0, channel=9, data=[42, 0]),
   midi.NoteOnEvent(tick=2, channel=9, data=[36, 110]),
   midi.NoteOnEvent(tick=94, channel=9, data=[36, 0]),
   midi.NoteOnEvent(tick=2, channel=9, data=[42, 110]),
   midi.NoteOnEvent(tick=94, channel=9, data=[42, 0]),
   midi.NoteOnEvent(tick=2, channel=9, data=[36, 110]),
   midi.NoteOnEvent(tick=94, channel=9, data=[36, 0]),
   midi.NoteOnEvent(tick=2, channel=9, data=[38, 110]),
   midi.NoteOnEvent(tick=0, channel=9, data=[42, 110]),
   midi.NoteOnEvent(tick=94, channel=9, data=[38, 0]),
   midi.NoteOnEvent(tick=0, channel=9, data=[42, 0]),
   midi.NoteOnEvent(tick=2, channel=9, data=[36, 110]),
   midi.NoteOnEvent(tick=94, channel=9, data=[36, 0]),
   midi.NoteOnEvent(tick=2, channel=9, data=[42, 110]),
   midi.NoteOnEvent(tick=94, channel=9, data=[42, 0]),
   midi.NoteOnEvent(tick=2, channel=9, data=[36, 110]),
   midi.NoteOnEvent(tick=94, channel=9, data=[36, 0]),
   midi.NoteOnEvent(tick=2, channel=9, data=[38, 110]),
   midi.NoteOnEvent(tick=0, channel=9, data=[42, 110]),
   midi.NoteOnEvent(tick=94, channel=9, data=[38, 0]),
   midi.NoteOnEvent(tick=0, channel=9, data=[42, 0]),
   midi.NoteOnEvent(tick=2, channel=9, data=[36, 110]),
   midi.NoteOnEvent(tick=94, channel=9, data=[36, 0]),
   midi.NoteOnEvent(tick=2, channel=9, data=[42, 110]),
   midi.NoteOnEvent(tick=94, channel=9, data=[42, 0]),
   midi.NoteOnEvent(tick=2, channel=9, data=[36, 110]),
   midi.NoteOnEvent(tick=94, channel=9, data=[36, 0]),
   midi.NoteOnEvent(tick=2, channel=9, data=[36, 110]),
   midi.NoteOnEvent(tick=0, channel=9, data=[42, 110]),
   midi.NoteOnEvent(tick=94, channel=9, data=[36, 0]),
   midi.NoteOnEvent(tick=0, channel=9, data=[42, 0]),
   midi.NoteOnEvent(tick=2, channel=9, data=[42, 110]),
   midi.NoteOnEvent(tick=94, channel=9, data=[42, 0]),
   midi.NoteOnEvent(tick=2, channel=9, data=[38, 110]),
   midi.NoteOnEvent(tick=0, channel=9, data=[42, 110]),
   midi.NoteOnEvent(tick=94, channel=9, data=[38, 0]),
   midi.NoteOnEvent(tick=0, channel=9, data=[42, 0]),
   midi.NoteOnEvent(tick=2, channel=9, data=[42, 110]),
   midi.NoteOnEvent(tick=94, channel=9, data=[42, 0]),
   midi.NoteOnEvent(tick=2, channel=9, data=[36, 110]),
   midi.NoteOnEvent(tick=0, channel=9, data=[42, 110]),
   midi.NoteOnEvent(tick=94, channel=9, data=[36, 0]),
   midi.NoteOnEvent(tick=0, channel=9, data=[42, 0]),
   midi.NoteOnEvent(tick=2, channel=9, data=[42, 110]),
   midi.NoteOnEvent(tick=94, channel=9, data=[42, 0]),
   midi.NoteOnEvent(tick=2, channel=9, data=[38, 110]),
   midi.NoteOnEvent(tick=0, channel=9, data=[42, 110]),
   midi.NoteOnEvent(tick=94, channel=9, data=[38, 0]),
   midi.NoteOnEvent(tick=0, channel=9, data=[42, 0]),
   midi.NoteOnEvent(tick=2, channel=9, data=[42, 110]),
   midi.NoteOnEvent(tick=94, channel=9, data=[42, 0]),
   midi.NoteOnEvent(tick=2, channel=9, data=[36, 110]),
   midi.NoteOnEvent(tick=0, channel=9, data=[42, 110]),
   midi.NoteOnEvent(tick=94, channel=9, data=[36, 0]),
   midi.NoteOnEvent(tick=0, channel=9, data=[42, 0]),
   midi.NoteOnEvent(tick=2, channel=9, data=[42, 110]),
   midi.NoteOnEvent(tick=94, channel=9, data=[42, 0]),
   midi.NoteOnEvent(tick=2, channel=9, data=[38, 110]),
   midi.NoteOnEvent(tick=0, channel=9, data=[42, 110]),
   midi.NoteOnEvent(tick=94, channel=9, data=[38, 0]),
   midi.NoteOnEvent(tick=0, channel=9, data=[42, 0]),
   midi.NoteOnEvent(tick=2, channel=9, data=[42, 110]),
   midi.NoteOnEvent(tick=94, channel=9, data=[42, 0]),
   midi.NoteOnEvent(tick=2, channel=9, data=[36, 110]),
   midi.NoteOnEvent(tick=0, channel=9, data=[42, 110]),
   midi.NoteOnEvent(tick=94, channel=9, data=[36, 0]),
   midi.NoteOnEvent(tick=0, channel=9, data=[42, 0]),
   midi.NoteOnEvent(tick=2, channel=9, data=[42, 110]),
   midi.NoteOnEvent(tick=94, channel=9, data=[42, 0]),
   midi.NoteOnEvent(tick=2, channel=9, data=[38, 110]),
   midi.NoteOnEvent(tick=0, channel=9, data=[42, 110]),
   midi.NoteOnEvent(tick=94, channel=9, data=[38, 0]),
   midi.NoteOnEvent(tick=0, channel=9, data=[42, 0]),
   midi.NoteOnEvent(tick=2, channel=9, data=[42, 110]),
   midi.NoteOnEvent(tick=94, channel=9, data=[42, 0]),
   midi.NoteOnEvent(tick=2, channel=9, data=[36, 110]),
   midi.NoteOnEvent(tick=0, channel=9, data=[42, 110]),
   midi.NoteOnEvent(tick=94, channel=9, data=[36, 0]),
   midi.NoteOnEvent(tick=0, channel=9, data=[42, 0]),
   midi.NoteOnEvent(tick=2, channel=9, data=[42, 110]),
   midi.NoteOnEvent(tick=94, channel=9, data=[42, 0]),
   midi.NoteOnEvent(tick=2, channel=9, data=[38, 110]),
   midi.NoteOnEvent(tick=0, channel=9, data=[42, 110]),
   midi.NoteOnEvent(tick=94, channel=9, data=[38, 0]),
   midi.NoteOnEvent(tick=0, channel=9, data=[42, 0]),
   midi.NoteOnEvent(tick=2, channel=9, data=[42, 110]),
   midi.NoteOnEvent(tick=94, channel=9, data=[42, 0]),
   midi.NoteOnEvent(tick=2, channel=9, data=[36, 110]),
   midi.NoteOnEvent(tick=0, channel=9, data=[42, 110]),
   midi.NoteOnEvent(tick=94, channel=9, data=[36, 0]),
   midi.NoteOnEvent(tick=0, channel=9, data=[42, 0]),
   midi.NoteOnEvent(tick=2, channel=9, data=[42, 110]),
   midi.NoteOnEvent(tick=94, channel=9, data=[42, 0]),
   midi.NoteOnEvent(tick=2, channel=9, data=[38, 110]),
   midi.NoteOnEvent(tick=0, channel=9, data=[42, 110]),
   midi.NoteOnEvent(tick=94, channel=9, data=[38, 0]),
   midi.NoteOnEvent(tick=0, channel=9, data=[42, 0]),
   midi.NoteOnEvent(tick=2, channel=9, data=[42, 110]),
   midi.NoteOnEvent(tick=94, channel=9, data=[42, 0]),
   midi.NoteOnEvent(tick=2, channel=9, data=[36, 110]),
   midi.NoteOnEvent(tick=0, channel=9, data=[42, 110]),
   midi.NoteOnEvent(tick=94, channel=9, data=[36, 0]),
   midi.NoteOnEvent(tick=0, channel=9, data=[42, 0]),
   midi.NoteOnEvent(tick=2, channel=9, data=[42, 110]),
   midi.NoteOnEvent(tick=94, channel=9, data=[42, 0]),
   midi.NoteOnEvent(tick=2, channel=9, data=[38, 110]),
   midi.NoteOnEvent(tick=0, channel=9, data=[42, 110]),
   midi.NoteOnEvent(tick=94, channel=9, data=[38, 0]),
   midi.NoteOnEvent(tick=0, channel=9, data=[42, 0]),
   midi.NoteOnEvent(tick=2, channel=9, data=[42, 110]),
   midi.NoteOnEvent(tick=94, channel=9, data=[42, 0]),
   midi.NoteOnEvent(tick=2, channel=9, data=[36, 110]),
   midi.NoteOnEvent(tick=0, channel=9, data=[42, 110]),
   midi.NoteOnEvent(tick=94, channel=9, data=[36, 0]),
   midi.NoteOnEvent(tick=0, channel=9, data=[42, 0]),
   midi.NoteOnEvent(tick=2, channel=9, data=[42, 110]),
   midi.NoteOnEvent(tick=94, channel=9, data=[42, 0]),
   midi.NoteOnEvent(tick=2, channel=9, data=[38, 110]),
   midi.NoteOnEvent(tick=0, channel=9, data=[42, 110]),
   midi.NoteOnEvent(tick=94, channel=9, data=[38, 0]),
   midi.NoteOnEvent(tick=0, channel=9, data=[42, 0]),
   midi.NoteOnEvent(tick=2, channel=9, data=[42, 110]),
   midi.NoteOnEvent(tick=94, channel=9, data=[42, 0]),
   midi.NoteOnEvent(tick=2, channel=9, data=[36, 110]),
   midi.NoteOnEvent(tick=0, channel=9, data=[42, 110]),
   midi.NoteOnEvent(tick=0, channel=9, data=[49, 110]),
   midi.NoteOnEvent(tick=160, channel=9, data=[36, 0]),
   midi.NoteOnEvent(tick=0, channel=9, data=[42, 0]),
   midi.NoteOnEvent(tick=0, channel=9, data=[49, 0]),
   midi.NoteOnEvent(tick=32, channel=9, data=[42, 110]),
   midi.NoteOnEvent(tick=160, channel=9, data=[42, 0]),
   midi.NoteOnEvent(tick=32, channel=9, data=[38, 110]),
   midi.NoteOnEvent(tick=0, channel=9, data=[42, 110]),
   midi.NoteOnEvent(tick=160, channel=9, data=[38, 0]),
   midi.NoteOnEvent(tick=0, channel=9, data=[42, 0]),
   midi.NoteOnEvent(tick=32, channel=9, data=[42, 110]),
   midi.NoteOnEvent(tick=160, channel=9, data=[42, 0]),
   midi.NoteOnEvent(tick=32, channel=9, data=[36, 110]),
   midi.NoteOnEvent(tick=0, channel=9, data=[42, 110]),
   midi.NoteOnEvent(tick=160, channel=9, data=[36, 0]),
   midi.NoteOnEvent(tick=0, channel=9, data=[42, 0]),
   midi.NoteOnEvent(tick=32, channel=9, data=[42, 110]),
   midi.NoteOnEvent(tick=160, channel=9, data=[42, 0]),
   midi.NoteOnEvent(tick=32, channel=9, data=[38, 110]),
   midi.NoteOnEvent(tick=0, channel=9, data=[42, 110]),
   midi.NoteOnEvent(tick=160, channel=9, data=[38, 0]),
   midi.NoteOnEvent(tick=0, channel=9, data=[42, 0]),
   midi.NoteOnEvent(tick=32, channel=9, data=[38, 110]),
   midi.NoteOnEvent(tick=0, channel=9, data=[42, 110]),
   midi.NoteOnEvent(tick=94, channel=9, data=[38, 0]),
   midi.NoteOnEvent(tick=0, channel=9, data=[42, 0]),
   midi.NoteOnEvent(tick=2, channel=9, data=[38, 110]),
   midi.NoteOnEvent(tick=94, channel=9, data=[38, 0]),
   midi.NoteOnEvent(tick=2, channel=9, data=[36, 110]),
   midi.NoteOnEvent(tick=0, channel=9, data=[42, 110]),
   midi.NoteOnEvent(tick=0, channel=9, data=[49, 110]),
   midi.NoteOnEvent(tick=160, channel=9, data=[36, 0]),
   midi.NoteOnEvent(tick=0, channel=9, data=[42, 0]),
   midi.NoteOnEvent(tick=0, channel=9, data=[49, 0]),
   midi.NoteOnEvent(tick=32, channel=9, data=[42, 110]),
   midi.NoteOnEvent(tick=160, channel=9, data=[42, 0]),
   midi.NoteOnEvent(tick=32, channel=9, data=[38, 110]),
   midi.NoteOnEvent(tick=0, channel=9, data=[42, 110]),
   midi.NoteOnEvent(tick=160, channel=9, data=[38, 0]),
   midi.NoteOnEvent(tick=0, channel=9, data=[42, 0]),
   midi.NoteOnEvent(tick=32, channel=9, data=[42, 110]),
   midi.NoteOnEvent(tick=160, channel=9, data=[42, 0]),
   midi.NoteOnEvent(tick=32, channel=9, data=[36, 110]),
   midi.NoteOnEvent(tick=0, channel=9, data=[42, 110]),
   midi.NoteOnEvent(tick=160, channel=9, data=[36, 0]),
   midi.NoteOnEvent(tick=0, channel=9, data=[42, 0]),
   midi.NoteOnEvent(tick=32, channel=9, data=[42, 110]),
   midi.NoteOnEvent(tick=160, channel=9, data=[42, 0]),
   midi.NoteOnEvent(tick=32, channel=9, data=[38, 110]),
   midi.NoteOnEvent(tick=0, channel=9, data=[42, 110]),
   midi.NoteOnEvent(tick=160, channel=9, data=[38, 0]),
   midi.NoteOnEvent(tick=0, channel=9, data=[42, 0]),
   midi.NoteOnEvent(tick=32, channel=9, data=[38, 110]),
   midi.NoteOnEvent(tick=0, channel=9, data=[42, 110]),
   midi.NoteOnEvent(tick=94, channel=9, data=[38, 0]),
   midi.NoteOnEvent(tick=0, channel=9, data=[42, 0]),
   midi.NoteOnEvent(tick=2, channel=9, data=[38, 110]),
   midi.NoteOnEvent(tick=94, channel=9, data=[38, 0]),
   midi.NoteOnEvent(tick=2, channel=9, data=[36, 110]),
   midi.NoteOnEvent(tick=0, channel=9, data=[42, 110]),
   midi.NoteOnEvent(tick=0, channel=9, data=[49, 110]),
   midi.NoteOnEvent(tick=160, channel=9, data=[36, 0]),
   midi.NoteOnEvent(tick=0, channel=9, data=[42, 0]),
   midi.NoteOnEvent(tick=0, channel=9, data=[49, 0]),
   midi.NoteOnEvent(tick=32, channel=9, data=[42, 110]),
   midi.NoteOnEvent(tick=160, channel=9, data=[42, 0]),
   midi.NoteOnEvent(tick=32, channel=9, data=[38, 110]),
   midi.NoteOnEvent(tick=0, channel=9, data=[42, 110]),
   midi.NoteOnEvent(tick=160, channel=9, data=[38, 0]),
   midi.NoteOnEvent(tick=0, channel=9, data=[42, 0]),
   midi.NoteOnEvent(tick=32, channel=9, data=[42, 110]),
   midi.NoteOnEvent(tick=160, channel=9, data=[42, 0]),
   midi.NoteOnEvent(tick=32, channel=9, data=[36, 110]),
   midi.NoteOnEvent(tick=0, channel=9, data=[42, 110]),
   midi.NoteOnEvent(tick=160, channel=9, data=[36, 0]),
   midi.NoteOnEvent(tick=0, channel=9, data=[42, 0]),
   midi.NoteOnEvent(tick=32, channel=9, data=[42, 110]),
   midi.NoteOnEvent(tick=160, channel=9, data=[42, 0]),
   midi.NoteOnEvent(tick=32, channel=9, data=[38, 110]),
   midi.NoteOnEvent(tick=0, channel=9, data=[42, 110]),
   midi.NoteOnEvent(tick=160, channel=9, data=[38, 0]),
   midi.NoteOnEvent(tick=0, channel=9, data=[42, 0]),
   midi.NoteOnEvent(tick=32, channel=9, data=[38, 110]),
   midi.NoteOnEvent(tick=0, channel=9, data=[42, 110]),
   midi.NoteOnEvent(tick=94, channel=9, data=[38, 0]),
   midi.NoteOnEvent(tick=0, channel=9, data=[42, 0]),
   midi.NoteOnEvent(tick=2, channel=9, data=[38, 110]),
   midi.NoteOnEvent(tick=94, channel=9, data=[38, 0]),
   midi.NoteOnEvent(tick=2, channel=9, data=[36, 110]),
   midi.NoteOnEvent(tick=0, channel=9, data=[42, 110]),
   midi.NoteOnEvent(tick=0, channel=9, data=[49, 110]),
   midi.NoteOnEvent(tick=160, channel=9, data=[36, 0]),
   midi.NoteOnEvent(tick=0, channel=9, data=[42, 0]),
   midi.NoteOnEvent(tick=0, channel=9, data=[49, 0]),
   midi.NoteOnEvent(tick=32, channel=9, data=[42, 110]),
   midi.NoteOnEvent(tick=160, channel=9, data=[42, 0]),
   midi.NoteOnEvent(tick=32, channel=9, data=[38, 110]),
   midi.NoteOnEvent(tick=0, channel=9, data=[42, 110]),
   midi.NoteOnEvent(tick=160, channel=9, data=[38, 0]),
   midi.NoteOnEvent(tick=0, channel=9, data=[42, 0]),
   midi.NoteOnEvent(tick=32, channel=9, data=[42, 110]),
   midi.NoteOnEvent(tick=160, channel=9, data=[42, 0]),
   midi.NoteOnEvent(tick=32, channel=9, data=[36, 110]),
   midi.NoteOnEvent(tick=0, channel=9, data=[42, 110]),
   midi.NoteOnEvent(tick=160, channel=9, data=[36, 0]),
   midi.NoteOnEvent(tick=0, channel=9, data=[42, 0]),
   midi.NoteOnEvent(tick=32, channel=9, data=[42, 110]),
   midi.NoteOnEvent(tick=160, channel=9, data=[42, 0]),
   midi.NoteOnEvent(tick=32, channel=9, data=[38, 110]),
   midi.NoteOnEvent(tick=0, channel=9, data=[42, 110]),
   midi.NoteOnEvent(tick=160, channel=9, data=[38, 0]),
   midi.NoteOnEvent(tick=0, channel=9, data=[42, 0]),
   midi.NoteOnEvent(tick=32, channel=9, data=[38, 110]),
   midi.NoteOnEvent(tick=0, channel=9, data=[42, 110]),
   midi.NoteOnEvent(tick=94, channel=9, data=[38, 0]),
   midi.NoteOnEvent(tick=0, channel=9, data=[42, 0]),
   midi.NoteOnEvent(tick=2, channel=9, data=[38, 110]),
   midi.NoteOnEvent(tick=94, channel=9, data=[38, 0]),
   midi.NoteOnEvent(tick=2, channel=9, data=[36, 110]),
   midi.NoteOnEvent(tick=0, channel=9, data=[38, 110]),
   midi.NoteOnEvent(tick=94, channel=9, data=[36, 0]),
   midi.NoteOnEvent(tick=0, channel=9, data=[38, 0]),
   midi.NoteOnEvent(tick=2, channel=9, data=[38, 110]),
   midi.NoteOnEvent(tick=46, channel=9, data=[38, 0]),
   midi.NoteOnEvent(tick=2, channel=9, data=[38, 110]),
   midi.NoteOnEvent(tick=46, channel=9, data=[38, 0]),
   midi.NoteOnEvent(tick=2, channel=9, data=[36, 110]),
   midi.NoteOnEvent(tick=0, channel=9, data=[38, 110]),
   midi.NoteOnEvent(tick=94, channel=9, data=[36, 0]),
   midi.NoteOnEvent(tick=0, channel=9, data=[38, 0]),
   midi.NoteOnEvent(tick=2, channel=9, data=[38, 110]),
   midi.NoteOnEvent(tick=94, channel=9, data=[38, 0]),
   midi.NoteOnEvent(tick=2, channel=9, data=[36, 110]),
   midi.NoteOnEvent(tick=0, channel=9, data=[38, 110]),
   midi.NoteOnEvent(tick=94, channel=9, data=[36, 0]),
   midi.NoteOnEvent(tick=0, channel=9, data=[38, 0]),
   midi.NoteOnEvent(tick=2, channel=9, data=[38, 110]),
   midi.NoteOnEvent(tick=94, channel=9, data=[38, 0]),
   midi.NoteOnEvent(tick=2, channel=9, data=[36, 110]),
   midi.NoteOnEvent(tick=0, channel=9, data=[38, 110]),
   midi.NoteOnEvent(tick=94, channel=9, data=[36, 0]),
   midi.NoteOnEvent(tick=0, channel=9, data=[38, 0]),
   midi.NoteOnEvent(tick=2, channel=9, data=[36, 110]),
   midi.NoteOnEvent(tick=0, channel=9, data=[38, 110]),
   midi.NoteOnEvent(tick=94, channel=9, data=[36, 0]),
   midi.NoteOnEvent(tick=0, channel=9, data=[38, 0]),
   midi.ControlChangeEvent(tick=2210, channel=9, data=[7, 0]),
   midi.NoteOnEvent(tick=0, channel=9, data=[36, 110]),
   midi.NoteOnEvent(tick=0, channel=9, data=[38, 110]),
   midi.ControlChangeEvent(tick=6, channel=9, data=[7, 1]),
   midi.ControlChangeEvent(tick=6, channel=9, data=[7, 2]),
   midi.ControlChangeEvent(tick=6, channel=9, data=[7, 3]),
   midi.ControlChangeEvent(tick=6, channel=9, data=[7, 4]),
   midi.ControlChangeEvent(tick=6, channel=9, data=[7, 5]),
   midi.ControlChangeEvent(tick=6, channel=9, data=[7, 6]),
   midi.ControlChangeEvent(tick=6, channel=9, data=[7, 7]),
   midi.ControlChangeEvent(tick=6, channel=9, data=[7, 8]),
   midi.ControlChangeEvent(tick=6, channel=9, data=[7, 9]),
   midi.ControlChangeEvent(tick=6, channel=9, data=[7, 10]),
   midi.ControlChangeEvent(tick=6, channel=9, data=[7, 11]),
   midi.ControlChangeEvent(tick=6, channel=9, data=[7, 12]),
   midi.ControlChangeEvent(tick=6, channel=9, data=[7, 13]),
   midi.ControlChangeEvent(tick=6, channel=9, data=[7, 14]),
   midi.ControlChangeEvent(tick=6, channel=9, data=[7, 15]),
   midi.NoteOnEvent(tick=4, channel=9, data=[36, 0]),
   midi.NoteOnEvent(tick=0, channel=9, data=[38, 0]),
   midi.ControlChangeEvent(tick=2, channel=9, data=[7, 16]),
   midi.NoteOnEvent(tick=0, channel=9, data=[36, 110]),
   midi.NoteOnEvent(tick=0, channel=9, data=[38, 110]),
   midi.ControlChangeEvent(tick=6, channel=9, data=[7, 17]),
   midi.ControlChangeEvent(tick=6, channel=9, data=[7, 18]),
   midi.ControlChangeEvent(tick=6, channel=9, data=[7, 19]),
   midi.ControlChangeEvent(tick=6, channel=9, data=[7, 20]),
   midi.ControlChangeEvent(tick=6, channel=9, data=[7, 21]),
   midi.ControlChangeEvent(tick=7, channel=9, data=[7, 22]),
   midi.ControlChangeEvent(tick=6, channel=9, data=[7, 23]),
   midi.ControlChangeEvent(tick=6, channel=9, data=[7, 24]),
   midi.ControlChangeEvent(tick=6, channel=9, data=[7, 25]),
   midi.ControlChangeEvent(tick=6, channel=9, data=[7, 26]),
   midi.ControlChangeEvent(tick=6, channel=9, data=[7, 27]),
   midi.ControlChangeEvent(tick=6, channel=9, data=[7, 28]),
   midi.ControlChangeEvent(tick=6, channel=9, data=[7, 29]),
   midi.ControlChangeEvent(tick=6, channel=9, data=[7, 30]),
   midi.ControlChangeEvent(tick=6, channel=9, data=[7, 31]),
   midi.NoteOnEvent(tick=3, channel=9, data=[36, 0]),
   midi.NoteOnEvent(tick=0, channel=9, data=[38, 0]),
   midi.NoteOnEvent(tick=2, channel=9, data=[36, 110]),
   midi.NoteOnEvent(tick=0, channel=9, data=[38, 110]),
   midi.ControlChangeEvent(tick=1, channel=9, data=[7, 32]),
   midi.ControlChangeEvent(tick=6, channel=9, data=[7, 33]),
   midi.ControlChangeEvent(tick=6, channel=9, data=[7, 34]),
   midi.ControlChangeEvent(tick=6, channel=9, data=[7, 35]),
   midi.ControlChangeEvent(tick=6, channel=9, data=[7, 36]),
   midi.ControlChangeEvent(tick=6, channel=9, data=[7, 37]),
   midi.ControlChangeEvent(tick=6, channel=9, data=[7, 38]),
   midi.ControlChangeEvent(tick=6, channel=9, data=[7, 39]),
   midi.ControlChangeEvent(tick=6, channel=9, data=[7, 40]),
   midi.ControlChangeEvent(tick=6, channel=9, data=[7, 41]),
   midi.ControlChangeEvent(tick=6, channel=9, data=[7, 42]),
   midi.ControlChangeEvent(tick=7, channel=9, data=[7, 43]),
   midi.ControlChangeEvent(tick=6, channel=9, data=[7, 44]),
   midi.ControlChangeEvent(tick=6, channel=9, data=[7, 45]),
   midi.ControlChangeEvent(tick=6, channel=9, data=[7, 46]),
   midi.ControlChangeEvent(tick=6, channel=9, data=[7, 47]),
   midi.NoteOnEvent(tick=2, channel=9, data=[36, 0]),
   midi.NoteOnEvent(tick=0, channel=9, data=[38, 0]),
   midi.NoteOnEvent(tick=2, channel=9, data=[36, 110]),
   midi.NoteOnEvent(tick=0, channel=9, data=[38, 110]),
   midi.ControlChangeEvent(tick=2, channel=9, data=[7, 48]),
   midi.ControlChangeEvent(tick=6, channel=9, data=[7, 49]),
   midi.ControlChangeEvent(tick=6, channel=9, data=[7, 50]),
   midi.ControlChangeEvent(tick=6, channel=9, data=[7, 51]),
   midi.ControlChangeEvent(tick=6, channel=9, data=[7, 52]),
   midi.ControlChangeEvent(tick=6, channel=9, data=[7, 53]),
   midi.ControlChangeEvent(tick=6, channel=9, data=[7, 54]),
   midi.ControlChangeEvent(tick=6, channel=9, data=[7, 55]),
   midi.ControlChangeEvent(tick=6, channel=9, data=[7, 56]),
   midi.ControlChangeEvent(tick=6, channel=9, data=[7, 57]),
   midi.ControlChangeEvent(tick=6, channel=9, data=[7, 58]),
   midi.ControlChangeEvent(tick=6, channel=9, data=[7, 59]),
   midi.ControlChangeEvent(tick=6, channel=9, data=[7, 60]),
   midi.ControlChangeEvent(tick=6, channel=9, data=[7, 61]),
   midi.ControlChangeEvent(tick=6, channel=9, data=[7, 62]),
   midi.ControlChangeEvent(tick=6, channel=9, data=[7, 63]),
   midi.NoteOnEvent(tick=2, channel=9, data=[36, 0]),
   midi.NoteOnEvent(tick=0, channel=9, data=[38, 0]),
   midi.NoteOnEvent(tick=2, channel=9, data=[36, 110]),
   midi.NoteOnEvent(tick=0, channel=9, data=[38, 110]),
   midi.ControlChangeEvent(tick=3, channel=9, data=[7, 64]),
   midi.ControlChangeEvent(tick=6, channel=9, data=[7, 65]),
   midi.ControlChangeEvent(tick=6, channel=9, data=[7, 66]),
   midi.ControlChangeEvent(tick=6, channel=9, data=[7, 67]),
   midi.ControlChangeEvent(tick=6, channel=9, data=[7, 68]),
   midi.ControlChangeEvent(tick=6, channel=9, data=[7, 69]),
   midi.ControlChangeEvent(tick=6, channel=9, data=[7, 70]),
   midi.ControlChangeEvent(tick=6, channel=9, data=[7, 71]),
   midi.ControlChangeEvent(tick=6, channel=9, data=[7, 72]),
   midi.ControlChangeEvent(tick=6, channel=9, data=[7, 73]),
   midi.ControlChangeEvent(tick=6, channel=9, data=[7, 74]),
   midi.ControlChangeEvent(tick=6, channel=9, data=[7, 75]),
   midi.ControlChangeEvent(tick=6, channel=9, data=[7, 76]),
   midi.ControlChangeEvent(tick=6, channel=9, data=[7, 77]),
   midi.ControlChangeEvent(tick=6, channel=9, data=[7, 78]),
   midi.ControlChangeEvent(tick=6, channel=9, data=[7, 79]),
   midi.NoteOnEvent(tick=1, channel=9, data=[36, 0]),
   midi.NoteOnEvent(tick=0, channel=9, data=[38, 0]),
   midi.NoteOnEvent(tick=2, channel=9, data=[36, 110]),
   midi.NoteOnEvent(tick=0, channel=9, data=[38, 110]),
   midi.ControlChangeEvent(tick=3, channel=9, data=[7, 80]),
   midi.ControlChangeEvent(tick=6, channel=9, data=[7, 81]),
   midi.ControlChangeEvent(tick=6, channel=9, data=[7, 82]),
   midi.ControlChangeEvent(tick=6, channel=9, data=[7, 83]),
   midi.ControlChangeEvent(tick=6, channel=9, data=[7, 84]),
   midi.ControlChangeEvent(tick=7, channel=9, data=[7, 85]),
   midi.ControlChangeEvent(tick=6, channel=9, data=[7, 86]),
   midi.ControlChangeEvent(tick=6, channel=9, data=[7, 87]),
   midi.ControlChangeEvent(tick=6, channel=9, data=[7, 88]),
   midi.ControlChangeEvent(tick=6, channel=9, data=[7, 89]),
   midi.ControlChangeEvent(tick=6, channel=9, data=[7, 90]),
   midi.ControlChangeEvent(tick=6, channel=9, data=[7, 91]),
   midi.ControlChangeEvent(tick=6, channel=9, data=[7, 92]),
   midi.ControlChangeEvent(tick=6, channel=9, data=[7, 93]),
   midi.ControlChangeEvent(tick=6, channel=9, data=[7, 94]),
   midi.ControlChangeEvent(tick=6, channel=9, data=[7, 95]),
   midi.NoteOnEvent(tick=0, channel=9, data=[36, 0]),
   midi.NoteOnEvent(tick=0, channel=9, data=[38, 0]),
   midi.NoteOnEvent(tick=2, channel=9, data=[36, 110]),
   midi.NoteOnEvent(tick=0, channel=9, data=[38, 110]),
   midi.ControlChangeEvent(tick=4, channel=9, data=[7, 96]),
   midi.ControlChangeEvent(tick=6, channel=9, data=[7, 97]),
   midi.ControlChangeEvent(tick=6, channel=9, data=[7, 98]),
   midi.ControlChangeEvent(tick=6, channel=9, data=[7, 99]),
   midi.ControlChangeEvent(tick=6, channel=9, data=[7, 100]),
   midi.ControlChangeEvent(tick=6, channel=9, data=[7, 101]),
   midi.ControlChangeEvent(tick=6, channel=9, data=[7, 102]),
   midi.ControlChangeEvent(tick=6, channel=9, data=[7, 103]),
   midi.ControlChangeEvent(tick=6, channel=9, data=[7, 104]),
   midi.ControlChangeEvent(tick=6, channel=9, data=[7, 105]),
   midi.ControlChangeEvent(tick=7, channel=9, data=[7, 106]),
   midi.ControlChangeEvent(tick=6, channel=9, data=[7, 107]),
   midi.ControlChangeEvent(tick=6, channel=9, data=[7, 108]),
   midi.ControlChangeEvent(tick=6, channel=9, data=[7, 109]),
   midi.ControlChangeEvent(tick=6, channel=9, data=[7, 110]),
   midi.NoteOnEvent(tick=5, channel=9, data=[36, 0]),
   midi.NoteOnEvent(tick=0, channel=9, data=[38, 0]),
   midi.ControlChangeEvent(tick=1, channel=9, data=[7, 111]),
   midi.NoteOnEvent(tick=1, channel=9, data=[36, 110]),
   midi.NoteOnEvent(tick=0, channel=9, data=[38, 110]),
   midi.ControlChangeEvent(tick=5, channel=9, data=[7, 112]),
   midi.ControlChangeEvent(tick=6, channel=9, data=[7, 113]),
   midi.ControlChangeEvent(tick=6, channel=9, data=[7, 114]),
   midi.ControlChangeEvent(tick=6, channel=9, data=[7, 115]),
   midi.ControlChangeEvent(tick=6, channel=9, data=[7, 116]),
   midi.ControlChangeEvent(tick=6, channel=9, data=[7, 117]),
   midi.ControlChangeEvent(tick=6, channel=9, data=[7, 118]),
   midi.ControlChangeEvent(tick=6, channel=9, data=[7, 119]),
   midi.ControlChangeEvent(tick=6, channel=9, data=[7, 120]),
   midi.ControlChangeEvent(tick=6, channel=9, data=[7, 121]),
   midi.ControlChangeEvent(tick=6, channel=9, data=[7, 122]),
   midi.ControlChangeEvent(tick=6, channel=9, data=[7, 123]),
   midi.ControlChangeEvent(tick=6, channel=9, data=[7, 124]),
   midi.ControlChangeEvent(tick=6, channel=9, data=[7, 125]),
   midi.ControlChangeEvent(tick=6, channel=9, data=[7, 126]),
   midi.NoteOnEvent(tick=5, channel=9, data=[36, 0]),
   midi.NoteOnEvent(tick=0, channel=9, data=[38, 0]),
   midi.ControlChangeEvent(tick=2, channel=9, data=[7, 127]),
   midi.NoteOnEvent(tick=0, channel=9, data=[36, 110]),
   midi.NoteOnEvent(tick=0, channel=9, data=[42, 110]),
   midi.NoteOnEvent(tick=0, channel=9, data=[49, 110]),
   midi.NoteOnEvent(tick=94, channel=9, data=[36, 0]),
   midi.NoteOnEvent(tick=0, channel=9, data=[42, 0]),
   midi.NoteOnEvent(tick=0, channel=9, data=[49, 0]),
   midi.NoteOnEvent(tick=2, channel=9, data=[38, 110]),
   midi.NoteOnEvent(tick=0, channel=9, data=[42, 110]),
   midi.NoteOnEvent(tick=94, channel=9, data=[38, 0]),
   midi.NoteOnEvent(tick=0, channel=9, data=[42, 0]),
   midi.NoteOnEvent(tick=2, channel=9, data=[36, 110]),
   midi.NoteOnEvent(tick=0, channel=9, data=[42, 110]),
   midi.NoteOnEvent(tick=94, channel=9, data=[36, 0]),
   midi.NoteOnEvent(tick=0, channel=9, data=[42, 0]),
   midi.NoteOnEvent(tick=2, channel=9, data=[38, 110]),
   midi.NoteOnEvent(tick=0, channel=9, data=[42, 110]),
   midi.NoteOnEvent(tick=94, channel=9, data=[38, 0]),
   midi.NoteOnEvent(tick=0, channel=9, data=[42, 0]),
   midi.NoteOnEvent(tick=2, channel=9, data=[36, 110]),
   midi.NoteOnEvent(tick=0, channel=9, data=[42, 110]),
   midi.NoteOnEvent(tick=94, channel=9, data=[36, 0]),
   midi.NoteOnEvent(tick=0, channel=9, data=[42, 0]),
   midi.NoteOnEvent(tick=2, channel=9, data=[38, 110]),
   midi.NoteOnEvent(tick=0, channel=9, data=[42, 110]),
   midi.NoteOnEvent(tick=94, channel=9, data=[38, 0]),
   midi.NoteOnEvent(tick=0, channel=9, data=[42, 0]),
   midi.NoteOnEvent(tick=2, channel=9, data=[36, 110]),
   midi.NoteOnEvent(tick=0, channel=9, data=[42, 110]),
   midi.NoteOnEvent(tick=94, channel=9, data=[36, 0]),
   midi.NoteOnEvent(tick=0, channel=9, data=[42, 0]),
   midi.NoteOnEvent(tick=2, channel=9, data=[38, 110]),
   midi.NoteOnEvent(tick=0, channel=9, data=[42, 110]),
   midi.NoteOnEvent(tick=94, channel=9, data=[38, 0]),
   midi.NoteOnEvent(tick=0, channel=9, data=[42, 0]),
   midi.NoteOnEvent(tick=2, channel=9, data=[36, 110]),
   midi.NoteOnEvent(tick=0, channel=9, data=[42, 110]),
   midi.NoteOnEvent(tick=0, channel=9, data=[49, 110]),
   midi.NoteOnEvent(tick=94, channel=9, data=[36, 0]),
   midi.NoteOnEvent(tick=0, channel=9, data=[42, 0]),
   midi.NoteOnEvent(tick=0, channel=9, data=[49, 0]),
   midi.NoteOnEvent(tick=2, channel=9, data=[38, 110]),
   midi.NoteOnEvent(tick=0, channel=9, data=[42, 110]),
   midi.NoteOnEvent(tick=94, channel=9, data=[38, 0]),
   midi.NoteOnEvent(tick=0, channel=9, data=[42, 0]),
   midi.NoteOnEvent(tick=2, channel=9, data=[36, 110]),
   midi.NoteOnEvent(tick=0, channel=9, data=[42, 110]),
   midi.NoteOnEvent(tick=94, channel=9, data=[36, 0]),
   midi.NoteOnEvent(tick=0, channel=9, data=[42, 0]),
   midi.NoteOnEvent(tick=2, channel=9, data=[38, 110]),
   midi.NoteOnEvent(tick=0, channel=9, data=[42, 110]),
   midi.NoteOnEvent(tick=94, channel=9, data=[38, 0]),
   midi.NoteOnEvent(tick=0, channel=9, data=[42, 0]),
   midi.NoteOnEvent(tick=2, channel=9, data=[36, 110]),
   midi.NoteOnEvent(tick=0, channel=9, data=[42, 110]),
   midi.NoteOnEvent(tick=94, channel=9, data=[36, 0]),
   midi.NoteOnEvent(tick=0, channel=9, data=[42, 0]),
   midi.NoteOnEvent(tick=2, channel=9, data=[38, 110]),
   midi.NoteOnEvent(tick=0, channel=9, data=[42, 110]),
   midi.NoteOnEvent(tick=94, channel=9, data=[38, 0]),
   midi.NoteOnEvent(tick=0, channel=9, data=[42, 0]),
   midi.NoteOnEvent(tick=2, channel=9, data=[36, 110]),
   midi.NoteOnEvent(tick=0, channel=9, data=[42, 110]),
   midi.NoteOnEvent(tick=94, channel=9, data=[36, 0]),
   midi.NoteOnEvent(tick=0, channel=9, data=[42, 0]),
   midi.NoteOnEvent(tick=2, channel=9, data=[38, 110]),
   midi.NoteOnEvent(tick=0, channel=9, data=[42, 110]),
   midi.NoteOnEvent(tick=94, channel=9, data=[38, 0]),
   midi.NoteOnEvent(tick=0, channel=9, data=[42, 0]),
   midi.NoteOnEvent(tick=2, channel=9, data=[36, 110]),
   midi.NoteOnEvent(tick=0, channel=9, data=[42, 110]),
   midi.NoteOnEvent(tick=0, channel=9, data=[49, 110]),
   midi.NoteOnEvent(tick=94, channel=9, data=[36, 0]),
   midi.NoteOnEvent(tick=0, channel=9, data=[42, 0]),
   midi.NoteOnEvent(tick=0, channel=9, data=[49, 0]),
   midi.NoteOnEvent(tick=2, channel=9, data=[38, 110]),
   midi.NoteOnEvent(tick=0, channel=9, data=[42, 110]),
   midi.NoteOnEvent(tick=94, channel=9, data=[38, 0]),
   midi.NoteOnEvent(tick=0, channel=9, data=[42, 0]),
   midi.NoteOnEvent(tick=2, channel=9, data=[36, 110]),
   midi.NoteOnEvent(tick=0, channel=9, data=[42, 110]),
   midi.NoteOnEvent(tick=94, channel=9, data=[36, 0]),
   midi.NoteOnEvent(tick=0, channel=9, data=[42, 0]),
   midi.NoteOnEvent(tick=2, channel=9, data=[38, 110]),
   midi.NoteOnEvent(tick=0, channel=9, data=[42, 110]),
   midi.NoteOnEvent(tick=94, channel=9, data=[38, 0]),
   midi.NoteOnEvent(tick=0, channel=9, data=[42, 0]),
   midi.NoteOnEvent(tick=2, channel=9, data=[36, 110]),
   midi.NoteOnEvent(tick=0, channel=9, data=[42, 110]),
   midi.NoteOnEvent(tick=94, channel=9, data=[36, 0]),
   midi.NoteOnEvent(tick=0, channel=9, data=[42, 0]),
   midi.NoteOnEvent(tick=2, channel=9, data=[38, 110]),
   midi.NoteOnEvent(tick=0, channel=9, data=[42, 110]),
   midi.NoteOnEvent(tick=94, channel=9, data=[38, 0]),
   midi.NoteOnEvent(tick=0, channel=9, data=[42, 0]),
   midi.NoteOnEvent(tick=2, channel=9, data=[36, 110]),
   midi.NoteOnEvent(tick=0, channel=9, data=[42, 110]),
   midi.NoteOnEvent(tick=94, channel=9, data=[36, 0]),
   midi.NoteOnEvent(tick=0, channel=9, data=[42, 0]),
   midi.NoteOnEvent(tick=2, channel=9, data=[38, 110]),
   midi.NoteOnEvent(tick=0, channel=9, data=[42, 110]),
   midi.NoteOnEvent(tick=94, channel=9, data=[38, 0]),
   midi.NoteOnEvent(tick=0, channel=9, data=[42, 0]),
   midi.NoteOnEvent(tick=2, channel=9, data=[36, 110]),
   midi.NoteOnEvent(tick=0, channel=9, data=[42, 110]),
   midi.NoteOnEvent(tick=0, channel=9, data=[49, 110]),
   midi.NoteOnEvent(tick=94, channel=9, data=[36, 0]),
   midi.NoteOnEvent(tick=0, channel=9, data=[42, 0]),
   midi.NoteOnEvent(tick=0, channel=9, data=[49, 0]),
   midi.NoteOnEvent(tick=2, channel=9, data=[38, 110]),
   midi.NoteOnEvent(tick=0, channel=9, data=[42, 110]),
   midi.NoteOnEvent(tick=94, channel=9, data=[38, 0]),
   midi.NoteOnEvent(tick=0, channel=9, data=[42, 0]),
   midi.NoteOnEvent(tick=2, channel=9, data=[36, 110]),
   midi.NoteOnEvent(tick=0, channel=9, data=[42, 110]),
   midi.NoteOnEvent(tick=94, channel=9, data=[36, 0]),
   midi.NoteOnEvent(tick=0, channel=9, data=[42, 0]),
   midi.NoteOnEvent(tick=2, channel=9, data=[38, 110]),
   midi.NoteOnEvent(tick=0, channel=9, data=[42, 110]),
   midi.NoteOnEvent(tick=94, channel=9, data=[38, 0]),
   midi.NoteOnEvent(tick=0, channel=9, data=[42, 0]),
   midi.NoteOnEvent(tick=2, channel=9, data=[36, 110]),
   midi.NoteOnEvent(tick=0, channel=9, data=[42, 110]),
   midi.NoteOnEvent(tick=94, channel=9, data=[36, 0]),
   midi.NoteOnEvent(tick=0, channel=9, data=[42, 0]),
   midi.NoteOnEvent(tick=2, channel=9, data=[38, 110]),
   midi.NoteOnEvent(tick=0, channel=9, data=[42, 110]),
   midi.NoteOnEvent(tick=94, channel=9, data=[38, 0]),
   midi.NoteOnEvent(tick=0, channel=9, data=[42, 0]),
   midi.NoteOnEvent(tick=2, channel=9, data=[36, 110]),
   midi.NoteOnEvent(tick=0, channel=9, data=[42, 110]),
   midi.NoteOnEvent(tick=94, channel=9, data=[36, 0]),
   midi.NoteOnEvent(tick=0, channel=9, data=[42, 0]),
   midi.NoteOnEvent(tick=2, channel=9, data=[38, 110]),
   midi.NoteOnEvent(tick=0, channel=9, data=[42, 110]),
   midi.NoteOnEvent(tick=94, channel=9, data=[38, 0]),
   midi.NoteOnEvent(tick=0, channel=9, data=[42, 0]),
   midi.NoteOnEvent(tick=2, channel=9, data=[36, 110]),
   midi.NoteOnEvent(tick=0, channel=9, data=[42, 110]),
   midi.NoteOnEvent(tick=0, channel=9, data=[49, 110]),
   midi.NoteOnEvent(tick=94, channel=9, data=[36, 0]),
   midi.NoteOnEvent(tick=0, channel=9, data=[42, 0]),
   midi.NoteOnEvent(tick=0, channel=9, data=[49, 0]),
   midi.NoteOnEvent(tick=2, channel=9, data=[38, 110]),
   midi.NoteOnEvent(tick=0, channel=9, data=[42, 110]),
   midi.NoteOnEvent(tick=94, channel=9, data=[38, 0]),
   midi.NoteOnEvent(tick=0, channel=9, data=[42, 0]),
   midi.NoteOnEvent(tick=2, channel=9, data=[36, 110]),
   midi.NoteOnEvent(tick=0, channel=9, data=[42, 110]),
   midi.NoteOnEvent(tick=94, channel=9, data=[36, 0]),
   midi.NoteOnEvent(tick=0, channel=9, data=[42, 0]),
   midi.NoteOnEvent(tick=2, channel=9, data=[38, 110]),
   midi.NoteOnEvent(tick=0, channel=9, data=[42, 110]),
   midi.NoteOnEvent(tick=94, channel=9, data=[38, 0]),
   midi.NoteOnEvent(tick=0, channel=9, data=[42, 0]),
   midi.NoteOnEvent(tick=2, channel=9, data=[36, 110]),
   midi.NoteOnEvent(tick=0, channel=9, data=[42, 110]),
   midi.NoteOnEvent(tick=94, channel=9, data=[36, 0]),
   midi.NoteOnEvent(tick=0, channel=9, data=[42, 0]),
   midi.NoteOnEvent(tick=2, channel=9, data=[38, 110]),
   midi.NoteOnEvent(tick=0, channel=9, data=[42, 110]),
   midi.NoteOnEvent(tick=94, channel=9, data=[38, 0]),
   midi.NoteOnEvent(tick=0, channel=9, data=[42, 0]),
   midi.NoteOnEvent(tick=2, channel=9, data=[36, 110]),
   midi.NoteOnEvent(tick=0, channel=9, data=[42, 110]),
   midi.NoteOnEvent(tick=94, channel=9, data=[36, 0]),
   midi.NoteOnEvent(tick=0, channel=9, data=[42, 0]),
   midi.NoteOnEvent(tick=2, channel=9, data=[38, 110]),
   midi.NoteOnEvent(tick=0, channel=9, data=[42, 110]),
   midi.NoteOnEvent(tick=94, channel=9, data=[38, 0]),
   midi.NoteOnEvent(tick=0, channel=9, data=[42, 0]),
   midi.NoteOnEvent(tick=2, channel=9, data=[36, 110]),
   midi.NoteOnEvent(tick=0, channel=9, data=[42, 110]),
   midi.NoteOnEvent(tick=0, channel=9, data=[49, 110]),
   midi.NoteOnEvent(tick=94, channel=9, data=[36, 0]),
   midi.NoteOnEvent(tick=0, channel=9, data=[42, 0]),
   midi.NoteOnEvent(tick=0, channel=9, data=[49, 0]),
   midi.NoteOnEvent(tick=2, channel=9, data=[38, 110]),
   midi.NoteOnEvent(tick=0, channel=9, data=[42, 110]),
   midi.NoteOnEvent(tick=94, channel=9, data=[38, 0]),
   midi.NoteOnEvent(tick=0, channel=9, data=[42, 0]),
   midi.NoteOnEvent(tick=2, channel=9, data=[36, 110]),
   midi.NoteOnEvent(tick=0, channel=9, data=[42, 110]),
   midi.NoteOnEvent(tick=94, channel=9, data=[36, 0]),
   midi.NoteOnEvent(tick=0, channel=9, data=[42, 0]),
   midi.NoteOnEvent(tick=2, channel=9, data=[38, 110]),
   midi.NoteOnEvent(tick=0, channel=9, data=[42, 110]),
   midi.NoteOnEvent(tick=94, channel=9, data=[38, 0]),
   midi.NoteOnEvent(tick=0, channel=9, data=[42, 0]),
   midi.NoteOnEvent(tick=2, channel=9, data=[36, 110]),
   midi.NoteOnEvent(tick=0, channel=9, data=[42, 110]),
   midi.NoteOnEvent(tick=94, channel=9, data=[36, 0]),
   midi.NoteOnEvent(tick=0, channel=9, data=[42, 0]),
   midi.NoteOnEvent(tick=2, channel=9, data=[38, 110]),
   midi.NoteOnEvent(tick=0, channel=9, data=[42, 110]),
   midi.NoteOnEvent(tick=94, channel=9, data=[38, 0]),
   midi.NoteOnEvent(tick=0, channel=9, data=[42, 0]),
   midi.NoteOnEvent(tick=2, channel=9, data=[36, 110]),
   midi.NoteOnEvent(tick=0, channel=9, data=[42, 110]),
   midi.NoteOnEvent(tick=94, channel=9, data=[36, 0]),
   midi.NoteOnEvent(tick=0, channel=9, data=[42, 0]),
   midi.NoteOnEvent(tick=2, channel=9, data=[38, 110]),
   midi.NoteOnEvent(tick=0, channel=9, data=[42, 110]),
   midi.NoteOnEvent(tick=94, channel=9, data=[38, 0]),
   midi.NoteOnEvent(tick=0, channel=9, data=[42, 0]),
   midi.SetTempoEvent(tick=2, data=[4, 147, 224]),
   midi.NoteOnEvent(tick=0, channel=9, data=[36, 110]),
   midi.NoteOnEvent(tick=0, channel=9, data=[38, 110]),
   midi.NoteOnEvent(tick=0, channel=9, data=[42, 110]),
   midi.NoteOnEvent(tick=0, channel=9, data=[49, 110]),
   midi.SetTempoEvent(tick=51, data=[4, 159, 182]),
   midi.SetTempoEvent(tick=51, data=[4, 171, 202]),
   midi.SetTempoEvent(tick=51, data=[4, 184, 30]),
   midi.SetTempoEvent(tick=51, data=[4, 196, 180]),
   midi.SetTempoEvent(tick=52, data=[4, 209, 141]),
   midi.SetTempoEvent(tick=51, data=[4, 222, 172]),
   midi.SetTempoEvent(tick=51, data=[4, 236, 20]),
   midi.SetTempoEvent(tick=51, data=[4, 249, 198]),
   midi.SetTempoEvent(tick=51, data=[5, 7, 198]),
   midi.SetTempoEvent(tick=52, data=[5, 22, 21]),
   midi.SetTempoEvent(tick=51, data=[5, 36, 182]),
   midi.SetTempoEvent(tick=51, data=[5, 51, 173]),
   midi.SetTempoEvent(tick=51, data=[5, 66, 251]),
   midi.SetTempoEvent(tick=51, data=[5, 82, 165]),
   midi.NoteOnEvent(tick=4, channel=9, data=[36, 0]),
   midi.NoteOnEvent(tick=0, channel=9, data=[38, 0]),
   midi.NoteOnEvent(tick=0, channel=9, data=[42, 0]),
   midi.NoteOnEvent(tick=0, channel=9, data=[49, 0]),
   midi.SetTempoEvent(tick=48, data=[5, 98, 173]),
   midi.NoteOnEvent(tick=0, channel=9, data=[36, 110]),
   midi.NoteOnEvent(tick=0, channel=9, data=[38, 110]),
   midi.NoteOnEvent(tick=0, channel=9, data=[42, 110]),
   midi.NoteOnEvent(tick=0, channel=9, data=[49, 110]),
   midi.NoteOnEvent(tick=720, channel=9, data=[36, 0]),
   midi.NoteOnEvent(tick=0, channel=9, data=[38, 0]),
   midi.NoteOnEvent(tick=0, channel=9, data=[42, 0]),
   midi.NoteOnEvent(tick=0, channel=9, data=[49, 0]),
   midi.NoteOnEvent(tick=48, channel=9, data=[36, 110]),
   midi.NoteOnEvent(tick=0, channel=9, data=[42, 110]),
   midi.NoteOnEvent(tick=0, channel=9, data=[49, 110]),
   midi.NoteOnEvent(tick=94, channel=9, data=[36, 0]),
   midi.NoteOnEvent(tick=0, channel=9, data=[42, 0]),
   midi.NoteOnEvent(tick=0, channel=9, data=[49, 0]),
   midi.NoteOnEvent(tick=2, channel=9, data=[42, 110]),
   midi.NoteOnEvent(tick=94, channel=9, data=[42, 0]),
   midi.NoteOnEvent(tick=2, channel=9, data=[38, 110]),
   midi.NoteOnEvent(tick=0, channel=9, data=[42, 110]),
   midi.NoteOnEvent(tick=94, channel=9, data=[38, 0]),
   midi.NoteOnEvent(tick=0, channel=9, data=[42, 0]),
   midi.NoteOnEvent(tick=2, channel=9, data=[42, 110]),
   midi.NoteOnEvent(tick=94, channel=9, data=[42, 0]),
   midi.NoteOnEvent(tick=2, channel=9, data=[36, 110]),
   midi.NoteOnEvent(tick=0, channel=9, data=[42, 110]),
   midi.NoteOnEvent(tick=94, channel=9, data=[36, 0]),
   midi.NoteOnEvent(tick=0, channel=9, data=[42, 0]),
   midi.NoteOnEvent(tick=2, channel=9, data=[36, 110]),
   midi.NoteOnEvent(tick=0, channel=9, data=[42, 110]),
   midi.NoteOnEvent(tick=94, channel=9, data=[36, 0]),
   midi.NoteOnEvent(tick=0, channel=9, data=[42, 0]),
   midi.NoteOnEvent(tick=2, channel=9, data=[38, 110]),
   midi.NoteOnEvent(tick=0, channel=9, data=[42, 110]),
   midi.NoteOnEvent(tick=94, channel=9, data=[38, 0]),
   midi.NoteOnEvent(tick=0, channel=9, data=[42, 0]),
   midi.NoteOnEvent(tick=2, channel=9, data=[42, 110]),
   midi.NoteOnEvent(tick=94, channel=9, data=[42, 0]),
   midi.NoteOnEvent(tick=2, channel=9, data=[36, 110]),
   midi.NoteOnEvent(tick=0, channel=9, data=[42, 110]),
   midi.NoteOnEvent(tick=94, channel=9, data=[36, 0]),
   midi.NoteOnEvent(tick=0, channel=9, data=[42, 0]),
   midi.NoteOnEvent(tick=2, channel=9, data=[42, 110]),
   midi.NoteOnEvent(tick=94, channel=9, data=[42, 0]),
   midi.NoteOnEvent(tick=2, channel=9, data=[38, 110]),
   midi.NoteOnEvent(tick=0, channel=9, data=[42, 110]),
   midi.NoteOnEvent(tick=94, channel=9, data=[38, 0]),
   midi.NoteOnEvent(tick=0, channel=9, data=[42, 0]),
   midi.NoteOnEvent(tick=2, channel=9, data=[42, 110]),
   midi.NoteOnEvent(tick=94, channel=9, data=[42, 0]),
   midi.NoteOnEvent(tick=2, channel=9, data=[36, 110]),
   midi.NoteOnEvent(tick=0, channel=9, data=[42, 110]),
   midi.NoteOnEvent(tick=94, channel=9, data=[36, 0]),
   midi.NoteOnEvent(tick=0, channel=9, data=[42, 0]),
   midi.NoteOnEvent(tick=2, channel=9, data=[36, 110]),
   midi.NoteOnEvent(tick=0, channel=9, data=[42, 110]),
   midi.NoteOnEvent(tick=94, channel=9, data=[36, 0]),
   midi.NoteOnEvent(tick=0, channel=9, data=[42, 0]),
   midi.NoteOnEvent(tick=2, channel=9, data=[38, 110]),
   midi.NoteOnEvent(tick=0, channel=9, data=[42, 110]),
   midi.NoteOnEvent(tick=94, channel=9, data=[38, 0]),
   midi.NoteOnEvent(tick=0, channel=9, data=[42, 0]),
   midi.NoteOnEvent(tick=2, channel=9, data=[42, 110]),
   midi.NoteOnEvent(tick=94, channel=9, data=[42, 0]),
   midi.NoteOnEvent(tick=2, channel=9, data=[36, 110]),
   midi.NoteOnEvent(tick=0, channel=9, data=[42, 110]),
   midi.NoteOnEvent(tick=0, channel=9, data=[49, 110]),
   midi.NoteOnEvent(tick=94, channel=9, data=[36, 0]),
   midi.NoteOnEvent(tick=0, channel=9, data=[42, 0]),
   midi.NoteOnEvent(tick=0, channel=9, data=[49, 0]),
   midi.NoteOnEvent(tick=2, channel=9, data=[42, 110]),
   midi.NoteOnEvent(tick=94, channel=9, data=[42, 0]),
   midi.NoteOnEvent(tick=2, channel=9, data=[38, 110]),
   midi.NoteOnEvent(tick=0, channel=9, data=[42, 110]),
   midi.NoteOnEvent(tick=94, channel=9, data=[38, 0]),
   midi.NoteOnEvent(tick=0, channel=9, data=[42, 0]),
   midi.NoteOnEvent(tick=2, channel=9, data=[42, 110]),
   midi.NoteOnEvent(tick=94, channel=9, data=[42, 0]),
   midi.NoteOnEvent(tick=2, channel=9, data=[36, 110]),
   midi.NoteOnEvent(tick=0, channel=9, data=[42, 110]),
   midi.NoteOnEvent(tick=94, channel=9, data=[36, 0]),
   midi.NoteOnEvent(tick=0, channel=9, data=[42, 0]),
   midi.NoteOnEvent(tick=2, channel=9, data=[36, 110]),
   midi.NoteOnEvent(tick=0, channel=9, data=[42, 110]),
   midi.NoteOnEvent(tick=94, channel=9, data=[36, 0]),
   midi.NoteOnEvent(tick=0, channel=9, data=[42, 0]),
   midi.NoteOnEvent(tick=2, channel=9, data=[38, 110]),
   midi.NoteOnEvent(tick=0, channel=9, data=[42, 110]),
   midi.NoteOnEvent(tick=94, channel=9, data=[38, 0]),
   midi.NoteOnEvent(tick=0, channel=9, data=[42, 0]),
   midi.NoteOnEvent(tick=2, channel=9, data=[42, 110]),
   midi.NoteOnEvent(tick=94, channel=9, data=[42, 0]),
   midi.NoteOnEvent(tick=2, channel=9, data=[36, 110]),
   midi.NoteOnEvent(tick=0, channel=9, data=[42, 110]),
   midi.NoteOnEvent(tick=94, channel=9, data=[36, 0]),
   midi.NoteOnEvent(tick=0, channel=9, data=[42, 0]),
   midi.NoteOnEvent(tick=2, channel=9, data=[42, 110]),
   midi.NoteOnEvent(tick=94, channel=9, data=[42, 0]),
   midi.NoteOnEvent(tick=2, channel=9, data=[38, 110]),
   midi.NoteOnEvent(tick=0, channel=9, data=[42, 110]),
   midi.NoteOnEvent(tick=94, channel=9, data=[38, 0]),
   midi.NoteOnEvent(tick=0, channel=9, data=[42, 0]),
   midi.NoteOnEvent(tick=2, channel=9, data=[42, 110]),
   midi.NoteOnEvent(tick=94, channel=9, data=[42, 0]),
   midi.NoteOnEvent(tick=2, channel=9, data=[36, 110]),
   midi.NoteOnEvent(tick=0, channel=9, data=[42, 110]),
   midi.NoteOnEvent(tick=94, channel=9, data=[36, 0]),
   midi.NoteOnEvent(tick=0, channel=9, data=[42, 0]),
   midi.NoteOnEvent(tick=2, channel=9, data=[36, 110]),
   midi.NoteOnEvent(tick=0, channel=9, data=[42, 110]),
   midi.NoteOnEvent(tick=94, channel=9, data=[36, 0]),
   midi.NoteOnEvent(tick=0, channel=9, data=[42, 0]),
   midi.NoteOnEvent(tick=2, channel=9, data=[38, 110]),
   midi.NoteOnEvent(tick=0, channel=9, data=[42, 110]),
   midi.NoteOnEvent(tick=94, channel=9, data=[38, 0]),
   midi.NoteOnEvent(tick=0, channel=9, data=[42, 0]),
   midi.NoteOnEvent(tick=2, channel=9, data=[42, 110]),
   midi.NoteOnEvent(tick=94, channel=9, data=[42, 0]),
   midi.NoteOnEvent(tick=2, channel=9, data=[36, 110]),
   midi.NoteOnEvent(tick=0, channel=9, data=[42, 110]),
   midi.NoteOnEvent(tick=0, channel=9, data=[49, 110]),
   midi.NoteOnEvent(tick=94, channel=9, data=[36, 0]),
   midi.NoteOnEvent(tick=0, channel=9, data=[42, 0]),
   midi.NoteOnEvent(tick=0, channel=9, data=[49, 0]),
   midi.NoteOnEvent(tick=2, channel=9, data=[42, 110]),
   midi.NoteOnEvent(tick=94, channel=9, data=[42, 0]),
   midi.NoteOnEvent(tick=2, channel=9, data=[38, 110]),
   midi.NoteOnEvent(tick=0, channel=9, data=[42, 110]),
   midi.NoteOnEvent(tick=94, channel=9, data=[38, 0]),
   midi.NoteOnEvent(tick=0, channel=9, data=[42, 0]),
   midi.NoteOnEvent(tick=2, channel=9, data=[42, 110]),
   midi.NoteOnEvent(tick=94, channel=9, data=[42, 0]),
   midi.NoteOnEvent(tick=2, channel=9, data=[36, 110]),
   midi.NoteOnEvent(tick=0, channel=9, data=[42, 110]),
   midi.NoteOnEvent(tick=94, channel=9, data=[36, 0]),
   midi.NoteOnEvent(tick=0, channel=9, data=[42, 0]),
   midi.NoteOnEvent(tick=2, channel=9, data=[36, 110]),
   midi.NoteOnEvent(tick=0, channel=9, data=[42, 110]),
   midi.NoteOnEvent(tick=94, channel=9, data=[36, 0]),
   midi.NoteOnEvent(tick=0, channel=9, data=[42, 0]),
   midi.NoteOnEvent(tick=2, channel=9, data=[38, 110]),
   midi.NoteOnEvent(tick=0, channel=9, data=[42, 110]),
   midi.NoteOnEvent(tick=94, channel=9, data=[38, 0]),
   midi.NoteOnEvent(tick=0, channel=9, data=[42, 0]),
   midi.NoteOnEvent(tick=2, channel=9, data=[42, 110]),
   midi.NoteOnEvent(tick=94, channel=9, data=[42, 0]),
   midi.NoteOnEvent(tick=2, channel=9, data=[36, 110]),
   midi.NoteOnEvent(tick=0, channel=9, data=[42, 110]),
   midi.NoteOnEvent(tick=94, channel=9, data=[36, 0]),
   midi.NoteOnEvent(tick=0, channel=9, data=[42, 0]),
   midi.NoteOnEvent(tick=2, channel=9, data=[42, 110]),
   midi.NoteOnEvent(tick=94, channel=9, data=[42, 0]),
   midi.NoteOnEvent(tick=2, channel=9, data=[38, 110]),
   midi.NoteOnEvent(tick=0, channel=9, data=[42, 110]),
   midi.NoteOnEvent(tick=94, channel=9, data=[38, 0]),
   midi.NoteOnEvent(tick=0, channel=9, data=[42, 0]),
   midi.NoteOnEvent(tick=2, channel=9, data=[42, 110]),
   midi.NoteOnEvent(tick=94, channel=9, data=[42, 0]),
   midi.NoteOnEvent(tick=2, channel=9, data=[36, 110]),
   midi.NoteOnEvent(tick=0, channel=9, data=[42, 110]),
   midi.NoteOnEvent(tick=94, channel=9, data=[36, 0]),
   midi.NoteOnEvent(tick=0, channel=9, data=[42, 0]),
   midi.NoteOnEvent(tick=2, channel=9, data=[36, 110]),
   midi.NoteOnEvent(tick=0, channel=9, data=[42, 110]),
   midi.NoteOnEvent(tick=94, channel=9, data=[36, 0]),
   midi.NoteOnEvent(tick=0, channel=9, data=[42, 0]),
   midi.NoteOnEvent(tick=2, channel=9, data=[38, 110]),
   midi.NoteOnEvent(tick=0, channel=9, data=[42, 110]),
   midi.NoteOnEvent(tick=94, channel=9, data=[38, 0]),
   midi.NoteOnEvent(tick=0, channel=9, data=[42, 0]),
   midi.NoteOnEvent(tick=2, channel=9, data=[42, 110]),
   midi.NoteOnEvent(tick=94, channel=9, data=[42, 0]),
   midi.NoteOnEvent(tick=2, channel=9, data=[36, 110]),
   midi.NoteOnEvent(tick=0, channel=9, data=[42, 110]),
   midi.NoteOnEvent(tick=0, channel=9, data=[49, 110]),
   midi.NoteOnEvent(tick=94, channel=9, data=[36, 0]),
   midi.NoteOnEvent(tick=0, channel=9, data=[42, 0]),
   midi.NoteOnEvent(tick=0, channel=9, data=[49, 0]),
   midi.NoteOnEvent(tick=2, channel=9, data=[42, 110]),
   midi.NoteOnEvent(tick=94, channel=9, data=[42, 0]),
   midi.NoteOnEvent(tick=2, channel=9, data=[38, 110]),
   midi.NoteOnEvent(tick=0, channel=9, data=[42, 110]),
   midi.NoteOnEvent(tick=94, channel=9, data=[38, 0]),
   midi.NoteOnEvent(tick=0, channel=9, data=[42, 0]),
   midi.NoteOnEvent(tick=2, channel=9, data=[42, 110]),
   midi.NoteOnEvent(tick=94, channel=9, data=[42, 0]),
   midi.NoteOnEvent(tick=2, channel=9, data=[36, 110]),
   midi.NoteOnEvent(tick=0, channel=9, data=[42, 110]),
   midi.NoteOnEvent(tick=94, channel=9, data=[36, 0]),
   midi.NoteOnEvent(tick=0, channel=9, data=[42, 0]),
   midi.NoteOnEvent(tick=2, channel=9, data=[36, 110]),
   midi.NoteOnEvent(tick=0, channel=9, data=[42, 110]),
   midi.NoteOnEvent(tick=94, channel=9, data=[36, 0]),
   midi.NoteOnEvent(tick=0, channel=9, data=[42, 0]),
   midi.NoteOnEvent(tick=2, channel=9, data=[38, 110]),
   midi.NoteOnEvent(tick=0, channel=9, data=[42, 110]),
   midi.NoteOnEvent(tick=94, channel=9, data=[38, 0]),
   midi.NoteOnEvent(tick=0, channel=9, data=[42, 0]),
   midi.NoteOnEvent(tick=2, channel=9, data=[42, 110]),
   midi.NoteOnEvent(tick=94, channel=9, data=[42, 0]),
   midi.NoteOnEvent(tick=2, channel=9, data=[36, 110]),
   midi.NoteOnEvent(tick=0, channel=9, data=[42, 110]),
   midi.NoteOnEvent(tick=94, channel=9, data=[36, 0]),
   midi.NoteOnEvent(tick=0, channel=9, data=[42, 0]),
   midi.NoteOnEvent(tick=2, channel=9, data=[42, 110]),
   midi.NoteOnEvent(tick=94, channel=9, data=[42, 0]),
   midi.NoteOnEvent(tick=2, channel=9, data=[38, 110]),
   midi.NoteOnEvent(tick=0, channel=9, data=[42, 110]),
   midi.NoteOnEvent(tick=94, channel=9, data=[38, 0]),
   midi.NoteOnEvent(tick=0, channel=9, data=[42, 0]),
   midi.NoteOnEvent(tick=2, channel=9, data=[42, 110]),
   midi.NoteOnEvent(tick=94, channel=9, data=[42, 0]),
   midi.NoteOnEvent(tick=2, channel=9, data=[36, 110]),
   midi.NoteOnEvent(tick=0, channel=9, data=[42, 110]),
   midi.NoteOnEvent(tick=94, channel=9, data=[36, 0]),
   midi.NoteOnEvent(tick=0, channel=9, data=[42, 0]),
   midi.NoteOnEvent(tick=2, channel=9, data=[36, 110]),
   midi.NoteOnEvent(tick=0, channel=9, data=[42, 110]),
   midi.NoteOnEvent(tick=94, channel=9, data=[36, 0]),
   midi.NoteOnEvent(tick=0, channel=9, data=[42, 0]),
   midi.NoteOnEvent(tick=2, channel=9, data=[38, 110]),
   midi.NoteOnEvent(tick=0, channel=9, data=[42, 110]),
   midi.NoteOnEvent(tick=94, channel=9, data=[38, 0]),
   midi.NoteOnEvent(tick=0, channel=9, data=[42, 0]),
   midi.NoteOnEvent(tick=2, channel=9, data=[42, 110]),
   midi.NoteOnEvent(tick=94, channel=9, data=[42, 0]),
   midi.NoteOnEvent(tick=2, channel=9, data=[36, 110]),
   midi.NoteOnEvent(tick=0, channel=9, data=[42, 110]),
   midi.NoteOnEvent(tick=0, channel=9, data=[49, 110]),
   midi.NoteOnEvent(tick=94, channel=9, data=[36, 0]),
   midi.NoteOnEvent(tick=0, channel=9, data=[42, 0]),
   midi.NoteOnEvent(tick=0, channel=9, data=[49, 0]),
   midi.NoteOnEvent(tick=2, channel=9, data=[42, 110]),
   midi.NoteOnEvent(tick=94, channel=9, data=[42, 0]),
   midi.NoteOnEvent(tick=2, channel=9, data=[38, 110]),
   midi.NoteOnEvent(tick=0, channel=9, data=[42, 110]),
   midi.NoteOnEvent(tick=94, channel=9, data=[38, 0]),
   midi.NoteOnEvent(tick=0, channel=9, data=[42, 0]),
   midi.NoteOnEvent(tick=2, channel=9, data=[42, 110]),
   midi.NoteOnEvent(tick=94, channel=9, data=[42, 0]),
   midi.NoteOnEvent(tick=2, channel=9, data=[36, 110]),
   midi.NoteOnEvent(tick=0, channel=9, data=[42, 110]),
   midi.NoteOnEvent(tick=94, channel=9, data=[36, 0]),
   midi.NoteOnEvent(tick=0, channel=9, data=[42, 0]),
   midi.NoteOnEvent(tick=2, channel=9, data=[36, 110]),
   midi.NoteOnEvent(tick=0, channel=9, data=[42, 110]),
   midi.NoteOnEvent(tick=94, channel=9, data=[36, 0]),
   midi.NoteOnEvent(tick=0, channel=9, data=[42, 0]),
   midi.NoteOnEvent(tick=2, channel=9, data=[38, 110]),
   midi.NoteOnEvent(tick=0, channel=9, data=[42, 110]),
   midi.NoteOnEvent(tick=94, channel=9, data=[38, 0]),
   midi.NoteOnEvent(tick=0, channel=9, data=[42, 0]),
   midi.NoteOnEvent(tick=2, channel=9, data=[42, 110]),
   midi.NoteOnEvent(tick=94, channel=9, data=[42, 0]),
   midi.NoteOnEvent(tick=2, channel=9, data=[36, 110]),
   midi.NoteOnEvent(tick=0, channel=9, data=[42, 110]),
   midi.NoteOnEvent(tick=94, channel=9, data=[36, 0]),
   midi.NoteOnEvent(tick=0, channel=9, data=[42, 0]),
   midi.NoteOnEvent(tick=2, channel=9, data=[42, 110]),
   midi.NoteOnEvent(tick=94, channel=9, data=[42, 0]),
   midi.NoteOnEvent(tick=2, channel=9, data=[38, 110]),
   midi.NoteOnEvent(tick=0, channel=9, data=[42, 110]),
   midi.NoteOnEvent(tick=94, channel=9, data=[38, 0]),
   midi.NoteOnEvent(tick=0, channel=9, data=[42, 0]),
   midi.NoteOnEvent(tick=2, channel=9, data=[42, 110]),
   midi.NoteOnEvent(tick=94, channel=9, data=[42, 0]),
   midi.NoteOnEvent(tick=2, channel=9, data=[36, 110]),
   midi.NoteOnEvent(tick=0, channel=9, data=[42, 110]),
   midi.NoteOnEvent(tick=94, channel=9, data=[36, 0]),
   midi.NoteOnEvent(tick=0, channel=9, data=[42, 0]),
   midi.NoteOnEvent(tick=2, channel=9, data=[36, 110]),
   midi.NoteOnEvent(tick=0, channel=9, data=[42, 110]),
   midi.NoteOnEvent(tick=94, channel=9, data=[36, 0]),
   midi.NoteOnEvent(tick=0, channel=9, data=[42, 0]),
   midi.NoteOnEvent(tick=2, channel=9, data=[38, 110]),
   midi.NoteOnEvent(tick=0, channel=9, data=[42, 110]),
   midi.NoteOnEvent(tick=94, channel=9, data=[38, 0]),
   midi.NoteOnEvent(tick=0, channel=9, data=[42, 0]),
   midi.NoteOnEvent(tick=2, channel=9, data=[42, 110]),
   midi.NoteOnEvent(tick=94, channel=9, data=[42, 0]),
   midi.NoteOnEvent(tick=2, channel=9, data=[36, 110]),
   midi.NoteOnEvent(tick=0, channel=9, data=[42, 110]),
   midi.NoteOnEvent(tick=0, channel=9, data=[49, 110]),
   midi.NoteOnEvent(tick=94, channel=9, data=[36, 0]),
   midi.NoteOnEvent(tick=0, channel=9, data=[42, 0]),
   midi.NoteOnEvent(tick=0, channel=9, data=[49, 0]),
   midi.NoteOnEvent(tick=2, channel=9, data=[42, 110]),
   midi.NoteOnEvent(tick=94, channel=9, data=[42, 0]),
   midi.NoteOnEvent(tick=2, channel=9, data=[38, 110]),
   midi.NoteOnEvent(tick=0, channel=9, data=[42, 110]),
   midi.NoteOnEvent(tick=94, channel=9, data=[38, 0]),
   midi.NoteOnEvent(tick=0, channel=9, data=[42, 0]),
   midi.NoteOnEvent(tick=2, channel=9, data=[42, 110]),
   midi.NoteOnEvent(tick=94, channel=9, data=[42, 0]),
   midi.NoteOnEvent(tick=2, channel=9, data=[36, 110]),
   midi.NoteOnEvent(tick=0, channel=9, data=[42, 110]),
   midi.NoteOnEvent(tick=94, channel=9, data=[36, 0]),
   midi.NoteOnEvent(tick=0, channel=9, data=[42, 0]),
   midi.NoteOnEvent(tick=2, channel=9, data=[36, 110]),
   midi.NoteOnEvent(tick=0, channel=9, data=[42, 110]),
   midi.NoteOnEvent(tick=94, channel=9, data=[36, 0]),
   midi.NoteOnEvent(tick=0, channel=9, data=[42, 0]),
   midi.NoteOnEvent(tick=2, channel=9, data=[38, 110]),
   midi.NoteOnEvent(tick=0, channel=9, data=[42, 110]),
   midi.NoteOnEvent(tick=94, channel=9, data=[38, 0]),
   midi.NoteOnEvent(tick=0, channel=9, data=[42, 0]),
   midi.NoteOnEvent(tick=2, channel=9, data=[42, 110]),
   midi.NoteOnEvent(tick=94, channel=9, data=[42, 0]),
   midi.NoteOnEvent(tick=2, channel=9, data=[36, 110]),
   midi.NoteOnEvent(tick=0, channel=9, data=[42, 110]),
   midi.NoteOnEvent(tick=94, channel=9, data=[36, 0]),
   midi.NoteOnEvent(tick=0, channel=9, data=[42, 0]),
   midi.NoteOnEvent(tick=2, channel=9, data=[42, 110]),
   midi.NoteOnEvent(tick=94, channel=9, data=[42, 0]),
   midi.NoteOnEvent(tick=2, channel=9, data=[38, 110]),
   midi.NoteOnEvent(tick=0, channel=9, data=[42, 110]),
   midi.NoteOnEvent(tick=94, channel=9, data=[38, 0]),
   midi.NoteOnEvent(tick=0, channel=9, data=[42, 0]),
   midi.NoteOnEvent(tick=2, channel=9, data=[42, 110]),
   midi.NoteOnEvent(tick=94, channel=9, data=[42, 0]),
   midi.NoteOnEvent(tick=2, channel=9, data=[36, 110]),
   midi.NoteOnEvent(tick=0, channel=9, data=[42, 110]),
   midi.NoteOnEvent(tick=94, channel=9, data=[36, 0]),
   midi.NoteOnEvent(tick=0, channel=9, data=[42, 0]),
   midi.NoteOnEvent(tick=2, channel=9, data=[36, 110]),
   midi.NoteOnEvent(tick=0, channel=9, data=[42, 110]),
   midi.NoteOnEvent(tick=94, channel=9, data=[36, 0]),
   midi.NoteOnEvent(tick=0, channel=9, data=[42, 0]),
   midi.NoteOnEvent(tick=2, channel=9, data=[38, 110]),
   midi.NoteOnEvent(tick=0, channel=9, data=[42, 110]),
   midi.NoteOnEvent(tick=94, channel=9, data=[38, 0]),
   midi.NoteOnEvent(tick=0, channel=9, data=[42, 0]),
   midi.NoteOnEvent(tick=2, channel=9, data=[42, 110]),
   midi.NoteOnEvent(tick=94, channel=9, data=[42, 0]),
   midi.NoteOnEvent(tick=2, channel=9, data=[36, 110]),
   midi.NoteOnEvent(tick=0, channel=9, data=[42, 110]),
   midi.NoteOnEvent(tick=0, channel=9, data=[49, 110]),
   midi.NoteOnEvent(tick=94, channel=9, data=[36, 0]),
   midi.NoteOnEvent(tick=0, channel=9, data=[42, 0]),
   midi.NoteOnEvent(tick=0, channel=9, data=[49, 0]),
   midi.NoteOnEvent(tick=2, channel=9, data=[42, 110]),
   midi.NoteOnEvent(tick=94, channel=9, data=[42, 0]),
   midi.NoteOnEvent(tick=2, channel=9, data=[38, 110]),
   midi.NoteOnEvent(tick=0, channel=9, data=[42, 110]),
   midi.NoteOnEvent(tick=94, channel=9, data=[38, 0]),
   midi.NoteOnEvent(tick=0, channel=9, data=[42, 0]),
   midi.NoteOnEvent(tick=2, channel=9, data=[42, 110]),
   midi.NoteOnEvent(tick=94, channel=9, data=[42, 0]),
   midi.NoteOnEvent(tick=2, channel=9, data=[36, 110]),
   midi.NoteOnEvent(tick=0, channel=9, data=[42, 110]),
   midi.NoteOnEvent(tick=94, channel=9, data=[36, 0]),
   midi.NoteOnEvent(tick=0, channel=9, data=[42, 0]),
   midi.NoteOnEvent(tick=2, channel=9, data=[36, 110]),
   midi.NoteOnEvent(tick=0, channel=9, data=[42, 110]),
   midi.NoteOnEvent(tick=94, channel=9, data=[36, 0]),
   midi.NoteOnEvent(tick=0, channel=9, data=[42, 0]),
   midi.NoteOnEvent(tick=2, channel=9, data=[38, 110]),
   midi.NoteOnEvent(tick=0, channel=9, data=[42, 110]),
   midi.NoteOnEvent(tick=94, channel=9, data=[38, 0]),
   midi.NoteOnEvent(tick=0, channel=9, data=[42, 0]),
   midi.NoteOnEvent(tick=2, channel=9, data=[42, 110]),
   midi.NoteOnEvent(tick=94, channel=9, data=[42, 0]),
   midi.NoteOnEvent(tick=2, channel=9, data=[36, 110]),
   midi.NoteOnEvent(tick=0, channel=9, data=[42, 110]),
   midi.NoteOnEvent(tick=94, channel=9, data=[36, 0]),
   midi.NoteOnEvent(tick=0, channel=9, data=[42, 0]),
   midi.NoteOnEvent(tick=2, channel=9, data=[42, 110]),
   midi.NoteOnEvent(tick=94, channel=9, data=[42, 0]),
   midi.NoteOnEvent(tick=2, channel=9, data=[38, 110]),
   midi.NoteOnEvent(tick=0, channel=9, data=[42, 110]),
   midi.NoteOnEvent(tick=94, channel=9, data=[38, 0]),
   midi.NoteOnEvent(tick=0, channel=9, data=[42, 0]),
   midi.NoteOnEvent(tick=2, channel=9, data=[42, 110]),
   midi.NoteOnEvent(tick=94, channel=9, data=[42, 0]),
   midi.NoteOnEvent(tick=2, channel=9, data=[36, 110]),
   midi.NoteOnEvent(tick=0, channel=9, data=[42, 110]),
   midi.NoteOnEvent(tick=94, channel=9, data=[36, 0]),
   midi.NoteOnEvent(tick=0, channel=9, data=[42, 0]),
   midi.NoteOnEvent(tick=2, channel=9, data=[36, 110]),
   midi.NoteOnEvent(tick=0, channel=9, data=[42, 110]),
   midi.NoteOnEvent(tick=94, channel=9, data=[36, 0]),
   midi.NoteOnEvent(tick=0, channel=9, data=[42, 0]),
   midi.NoteOnEvent(tick=2, channel=9, data=[38, 110]),
   midi.NoteOnEvent(tick=0, channel=9, data=[42, 110]),
   midi.NoteOnEvent(tick=94, channel=9, data=[38, 0]),
   midi.NoteOnEvent(tick=0, channel=9, data=[42, 0]),
   midi.NoteOnEvent(tick=2, channel=9, data=[42, 110]),
   midi.NoteOnEvent(tick=94, channel=9, data=[42, 0]),
   midi.NoteOnEvent(tick=2, channel=9, data=[36, 110]),
   midi.NoteOnEvent(tick=0, channel=9, data=[42, 110]),
   midi.NoteOnEvent(tick=0, channel=9, data=[49, 110]),
   midi.NoteOnEvent(tick=94, channel=9, data=[36, 0]),
   midi.NoteOnEvent(tick=0, channel=9, data=[42, 0]),
   midi.NoteOnEvent(tick=0, channel=9, data=[49, 0]),
   midi.NoteOnEvent(tick=2, channel=9, data=[42, 110]),
   midi.NoteOnEvent(tick=94, channel=9, data=[42, 0]),
   midi.NoteOnEvent(tick=2, channel=9, data=[38, 110]),
   midi.NoteOnEvent(tick=0, channel=9, data=[42, 110]),
   midi.NoteOnEvent(tick=94, channel=9, data=[38, 0]),
   midi.NoteOnEvent(tick=0, channel=9, data=[42, 0]),
   midi.NoteOnEvent(tick=2, channel=9, data=[42, 110]),
   midi.NoteOnEvent(tick=94, channel=9, data=[42, 0]),
   midi.NoteOnEvent(tick=2, channel=9, data=[36, 110]),
   midi.NoteOnEvent(tick=0, channel=9, data=[42, 110]),
   midi.NoteOnEvent(tick=94, channel=9, data=[36, 0]),
   midi.NoteOnEvent(tick=0, channel=9, data=[42, 0]),
   midi.NoteOnEvent(tick=2, channel=9, data=[36, 110]),
   midi.NoteOnEvent(tick=0, channel=9, data=[42, 110]),
   midi.NoteOnEvent(tick=94, channel=9, data=[36, 0]),
   midi.NoteOnEvent(tick=0, channel=9, data=[42, 0]),
   midi.NoteOnEvent(tick=2, channel=9, data=[38, 110]),
   midi.NoteOnEvent(tick=0, channel=9, data=[42, 110]),
   midi.NoteOnEvent(tick=94, channel=9, data=[38, 0]),
   midi.NoteOnEvent(tick=0, channel=9, data=[42, 0]),
   midi.NoteOnEvent(tick=2, channel=9, data=[42, 110]),
   midi.NoteOnEvent(tick=94, channel=9, data=[42, 0]),
   midi.NoteOnEvent(tick=2, channel=9, data=[36, 110]),
   midi.NoteOnEvent(tick=0, channel=9, data=[42, 110]),
   midi.NoteOnEvent(tick=94, channel=9, data=[36, 0]),
   midi.NoteOnEvent(tick=0, channel=9, data=[42, 0]),
   midi.NoteOnEvent(tick=2, channel=9, data=[42, 110]),
   midi.NoteOnEvent(tick=94, channel=9, data=[42, 0]),
   midi.NoteOnEvent(tick=2, channel=9, data=[38, 110]),
   midi.NoteOnEvent(tick=0, channel=9, data=[42, 110]),
   midi.NoteOnEvent(tick=94, channel=9, data=[38, 0]),
   midi.NoteOnEvent(tick=0, channel=9, data=[42, 0]),
   midi.NoteOnEvent(tick=2, channel=9, data=[42, 110]),
   midi.NoteOnEvent(tick=94, channel=9, data=[42, 0]),
   midi.NoteOnEvent(tick=2, channel=9, data=[36, 110]),
   midi.NoteOnEvent(tick=0, channel=9, data=[42, 110]),
   midi.NoteOnEvent(tick=94, channel=9, data=[36, 0]),
   midi.NoteOnEvent(tick=0, channel=9, data=[42, 0]),
   midi.NoteOnEvent(tick=2, channel=9, data=[36, 110]),
   midi.NoteOnEvent(tick=0, channel=9, data=[42, 110]),
   midi.NoteOnEvent(tick=94, channel=9, data=[36, 0]),
   midi.NoteOnEvent(tick=0, channel=9, data=[42, 0]),
   midi.NoteOnEvent(tick=2, channel=9, data=[38, 110]),
   midi.NoteOnEvent(tick=0, channel=9, data=[42, 110]),
   midi.NoteOnEvent(tick=94, channel=9, data=[38, 0]),
   midi.NoteOnEvent(tick=0, channel=9, data=[42, 0]),
   midi.NoteOnEvent(tick=2, channel=9, data=[42, 110]),
   midi.NoteOnEvent(tick=94, channel=9, data=[42, 0]),
   midi.NoteOnEvent(tick=2, channel=9, data=[36, 110]),
   midi.NoteOnEvent(tick=0, channel=9, data=[42, 110]),
   midi.NoteOnEvent(tick=0, channel=9, data=[49, 110]),
   midi.NoteOnEvent(tick=94, channel=9, data=[36, 0]),
   midi.NoteOnEvent(tick=0, channel=9, data=[42, 0]),
   midi.NoteOnEvent(tick=0, channel=9, data=[49, 0]),
   midi.NoteOnEvent(tick=2, channel=9, data=[38, 110]),
   midi.NoteOnEvent(tick=0, channel=9, data=[42, 110]),
   midi.NoteOnEvent(tick=94, channel=9, data=[38, 0]),
   midi.NoteOnEvent(tick=0, channel=9, data=[42, 0]),
   midi.NoteOnEvent(tick=2, channel=9, data=[36, 110]),
   midi.NoteOnEvent(tick=0, channel=9, data=[42, 110]),
   midi.NoteOnEvent(tick=94, channel=9, data=[36, 0]),
   midi.NoteOnEvent(tick=0, channel=9, data=[42, 0]),
   midi.NoteOnEvent(tick=2, channel=9, data=[38, 110]),
   midi.NoteOnEvent(tick=0, channel=9, data=[42, 110]),
   midi.NoteOnEvent(tick=94, channel=9, data=[38, 0]),
   midi.NoteOnEvent(tick=0, channel=9, data=[42, 0]),
   midi.NoteOnEvent(tick=2, channel=9, data=[36, 110]),
   midi.NoteOnEvent(tick=0, channel=9, data=[42, 110]),
   midi.NoteOnEvent(tick=94, channel=9, data=[36, 0]),
   midi.NoteOnEvent(tick=0, channel=9, data=[42, 0]),
   midi.NoteOnEvent(tick=2, channel=9, data=[38, 110]),
   midi.NoteOnEvent(tick=0, channel=9, data=[42, 110]),
   midi.NoteOnEvent(tick=94, channel=9, data=[38, 0]),
   midi.NoteOnEvent(tick=0, channel=9, data=[42, 0]),
   midi.NoteOnEvent(tick=2, channel=9, data=[36, 110]),
   midi.NoteOnEvent(tick=0, channel=9, data=[42, 110]),
   midi.NoteOnEvent(tick=94, channel=9, data=[36, 0]),
   midi.NoteOnEvent(tick=0, channel=9, data=[42, 0]),
   midi.NoteOnEvent(tick=2, channel=9, data=[38, 110]),
   midi.NoteOnEvent(tick=0, channel=9, data=[42, 110]),
   midi.NoteOnEvent(tick=94, channel=9, data=[38, 0]),
   midi.NoteOnEvent(tick=0, channel=9, data=[42, 0]),
   midi.NoteOnEvent(tick=2, channel=9, data=[36, 110]),
   midi.NoteOnEvent(tick=0, channel=9, data=[42, 110]),
   midi.NoteOnEvent(tick=0, channel=9, data=[49, 110]),
   midi.NoteOnEvent(tick=94, channel=9, data=[36, 0]),
   midi.NoteOnEvent(tick=0, channel=9, data=[42, 0]),
   midi.NoteOnEvent(tick=0, channel=9, data=[49, 0]),
   midi.NoteOnEvent(tick=2, channel=9, data=[38, 110]),
   midi.NoteOnEvent(tick=0, channel=9, data=[42, 110]),
   midi.NoteOnEvent(tick=94, channel=9, data=[38, 0]),
   midi.NoteOnEvent(tick=0, channel=9, data=[42, 0]),
   midi.NoteOnEvent(tick=2, channel=9, data=[36, 110]),
   midi.NoteOnEvent(tick=0, channel=9, data=[42, 110]),
   midi.NoteOnEvent(tick=94, channel=9, data=[36, 0]),
   midi.NoteOnEvent(tick=0, channel=9, data=[42, 0]),
   midi.NoteOnEvent(tick=2, channel=9, data=[38, 110]),
   midi.NoteOnEvent(tick=0, channel=9, data=[42, 110]),
   midi.NoteOnEvent(tick=94, channel=9, data=[38, 0]),
   midi.NoteOnEvent(tick=0, channel=9, data=[42, 0]),
   midi.NoteOnEvent(tick=2, channel=9, data=[36, 110]),
   midi.NoteOnEvent(tick=0, channel=9, data=[42, 110]),
   midi.NoteOnEvent(tick=94, channel=9, data=[36, 0]),
   midi.NoteOnEvent(tick=0, channel=9, data=[42, 0]),
   midi.NoteOnEvent(tick=2, channel=9, data=[38, 110]),
   midi.NoteOnEvent(tick=0, channel=9, data=[42, 110]),
   midi.NoteOnEvent(tick=94, channel=9, data=[38, 0]),
   midi.NoteOnEvent(tick=0, channel=9, data=[42, 0]),
   midi.NoteOnEvent(tick=2, channel=9, data=[36, 110]),
   midi.NoteOnEvent(tick=0, channel=9, data=[42, 110]),
   midi.NoteOnEvent(tick=94, channel=9, data=[36, 0]),
   midi.NoteOnEvent(tick=0, channel=9, data=[42, 0]),
   midi.NoteOnEvent(tick=2, channel=9, data=[38, 110]),
   midi.NoteOnEvent(tick=0, channel=9, data=[42, 110]),
   midi.NoteOnEvent(tick=94, channel=9, data=[38, 0]),
   midi.NoteOnEvent(tick=0, channel=9, data=[42, 0]),
   midi.NoteOnEvent(tick=2, channel=9, data=[36, 110]),
   midi.NoteOnEvent(tick=0, channel=9, data=[42, 110]),
   midi.NoteOnEvent(tick=0, channel=9, data=[49, 110]),
   midi.NoteOnEvent(tick=94, channel=9, data=[36, 0]),
   midi.NoteOnEvent(tick=0, channel=9, data=[42, 0]),
   midi.NoteOnEvent(tick=0, channel=9, data=[49, 0]),
   midi.NoteOnEvent(tick=2, channel=9, data=[38, 110]),
   midi.NoteOnEvent(tick=0, channel=9, data=[42, 110]),
   midi.NoteOnEvent(tick=94, channel=9, data=[38, 0]),
   midi.NoteOnEvent(tick=0, channel=9, data=[42, 0]),
   midi.NoteOnEvent(tick=2, channel=9, data=[36, 110]),
   midi.NoteOnEvent(tick=0, channel=9, data=[42, 110]),
   midi.NoteOnEvent(tick=94, channel=9, data=[36, 0]),
   midi.NoteOnEvent(tick=0, channel=9, data=[42, 0]),
   midi.NoteOnEvent(tick=2, channel=9, data=[38, 110]),
   midi.NoteOnEvent(tick=0, channel=9, data=[42, 110]),
   midi.NoteOnEvent(tick=94, channel=9, data=[38, 0]),
   midi.NoteOnEvent(tick=0, channel=9, data=[42, 0]),
   midi.NoteOnEvent(tick=2, channel=9, data=[36, 110]),
   midi.NoteOnEvent(tick=0, channel=9, data=[42, 110]),
   midi.NoteOnEvent(tick=94, channel=9, data=[36, 0]),
   midi.NoteOnEvent(tick=0, channel=9, data=[42, 0]),
   midi.NoteOnEvent(tick=2, channel=9, data=[38, 110]),
   midi.NoteOnEvent(tick=0, channel=9, data=[42, 110]),
   midi.NoteOnEvent(tick=94, channel=9, data=[38, 0]),
   midi.NoteOnEvent(tick=0, channel=9, data=[42, 0]),
   midi.NoteOnEvent(tick=2, channel=9, data=[36, 110]),
   midi.NoteOnEvent(tick=0, channel=9, data=[42, 110]),
   midi.NoteOnEvent(tick=0, channel=9, data=[49, 110]),
   midi.NoteOnEvent(tick=94, channel=9, data=[36, 0]),
   midi.NoteOnEvent(tick=0, channel=9, data=[42, 0]),
   midi.NoteOnEvent(tick=0, channel=9, data=[49, 0]),
   midi.NoteOnEvent(tick=2, channel=9, data=[38, 110]),
   midi.NoteOnEvent(tick=0, channel=9, data=[42, 110]),
   midi.NoteOnEvent(tick=94, channel=9, data=[38, 0]),
   midi.NoteOnEvent(tick=0, channel=9, data=[42, 0]),
   midi.NoteOnEvent(tick=2, channel=9, data=[36, 110]),
   midi.NoteOnEvent(tick=0, channel=9, data=[42, 110]),
   midi.NoteOnEvent(tick=94, channel=9, data=[36, 0]),
   midi.NoteOnEvent(tick=0, channel=9, data=[42, 0]),
   midi.NoteOnEvent(tick=2, channel=9, data=[38, 110]),
   midi.NoteOnEvent(tick=0, channel=9, data=[42, 110]),
   midi.NoteOnEvent(tick=94, channel=9, data=[38, 0]),
   midi.NoteOnEvent(tick=0, channel=9, data=[42, 0]),
   midi.NoteOnEvent(tick=2, channel=9, data=[36, 110]),
   midi.NoteOnEvent(tick=0, channel=9, data=[42, 110]),
   midi.NoteOnEvent(tick=94, channel=9, data=[36, 0]),
   midi.NoteOnEvent(tick=0, channel=9, data=[42, 0]),
   midi.NoteOnEvent(tick=2, channel=9, data=[38, 110]),
   midi.NoteOnEvent(tick=0, channel=9, data=[42, 110]),
   midi.NoteOnEvent(tick=94, channel=9, data=[38, 0]),
   midi.NoteOnEvent(tick=0, channel=9, data=[42, 0]),
   midi.NoteOnEvent(tick=2, channel=9, data=[36, 110]),
   midi.NoteOnEvent(tick=0, channel=9, data=[42, 110]),
   midi.NoteOnEvent(tick=0, channel=9, data=[49, 110]),
   midi.NoteOnEvent(tick=94, channel=9, data=[36, 0]),
   midi.NoteOnEvent(tick=0, channel=9, data=[42, 0]),
   midi.NoteOnEvent(tick=0, channel=9, data=[49, 0]),
   midi.NoteOnEvent(tick=2, channel=9, data=[38, 110]),
   midi.NoteOnEvent(tick=0, channel=9, data=[42, 110]),
   midi.NoteOnEvent(tick=94, channel=9, data=[38, 0]),
   midi.NoteOnEvent(tick=0, channel=9, data=[42, 0]),
   midi.NoteOnEvent(tick=2, channel=9, data=[36, 110]),
   midi.NoteOnEvent(tick=0, channel=9, data=[42, 110]),
   midi.NoteOnEvent(tick=94, channel=9, data=[36, 0]),
   midi.NoteOnEvent(tick=0, channel=9, data=[42, 0]),
   midi.NoteOnEvent(tick=2, channel=9, data=[38, 110]),
   midi.NoteOnEvent(tick=0, channel=9, data=[42, 110]),
   midi.NoteOnEvent(tick=94, channel=9, data=[38, 0]),
   midi.NoteOnEvent(tick=0, channel=9, data=[42, 0]),
   midi.NoteOnEvent(tick=2, channel=9, data=[36, 110]),
   midi.NoteOnEvent(tick=0, channel=9, data=[42, 110]),
   midi.NoteOnEvent(tick=94, channel=9, data=[36, 0]),
   midi.NoteOnEvent(tick=0, channel=9, data=[42, 0]),
   midi.NoteOnEvent(tick=2, channel=9, data=[38, 110]),
   midi.NoteOnEvent(tick=0, channel=9, data=[42, 110]),
   midi.NoteOnEvent(tick=94, channel=9, data=[38, 0]),
   midi.NoteOnEvent(tick=0, channel=9, data=[42, 0]),
   midi.NoteOnEvent(tick=2, channel=9, data=[36, 110]),
   midi.NoteOnEvent(tick=0, channel=9, data=[42, 110]),
   midi.NoteOnEvent(tick=94, channel=9, data=[36, 0]),
   midi.NoteOnEvent(tick=0, channel=9, data=[42, 0]),
   midi.NoteOnEvent(tick=2, channel=9, data=[38, 110]),
   midi.NoteOnEvent(tick=0, channel=9, data=[42, 110]),
   midi.NoteOnEvent(tick=94, channel=9, data=[38, 0]),
   midi.NoteOnEvent(tick=0, channel=9, data=[42, 0]),
   midi.NoteOnEvent(tick=2, channel=9, data=[36, 110]),
   midi.NoteOnEvent(tick=0, channel=9, data=[42, 110]),
   midi.NoteOnEvent(tick=0, channel=9, data=[49, 110]),
   midi.NoteOnEvent(tick=94, channel=9, data=[36, 0]),
   midi.NoteOnEvent(tick=0, channel=9, data=[42, 0]),
   midi.NoteOnEvent(tick=0, channel=9, data=[49, 0]),
   midi.NoteOnEvent(tick=2, channel=9, data=[38, 110]),
   midi.NoteOnEvent(tick=0, channel=9, data=[42, 110]),
   midi.NoteOnEvent(tick=94, channel=9, data=[38, 0]),
   midi.NoteOnEvent(tick=0, channel=9, data=[42, 0]),
   midi.NoteOnEvent(tick=2, channel=9, data=[36, 110]),
   midi.NoteOnEvent(tick=0, channel=9, data=[42, 110]),
   midi.NoteOnEvent(tick=94, channel=9, data=[36, 0]),
   midi.NoteOnEvent(tick=0, channel=9, data=[42, 0]),
   midi.NoteOnEvent(tick=2, channel=9, data=[38, 110]),
   midi.NoteOnEvent(tick=0, channel=9, data=[42, 110]),
   midi.NoteOnEvent(tick=94, channel=9, data=[38, 0]),
   midi.NoteOnEvent(tick=0, channel=9, data=[42, 0]),
   midi.NoteOnEvent(tick=2, channel=9, data=[36, 110]),
   midi.NoteOnEvent(tick=0, channel=9, data=[42, 110]),
   midi.NoteOnEvent(tick=94, channel=9, data=[36, 0]),
   midi.NoteOnEvent(tick=0, channel=9, data=[42, 0]),
   midi.NoteOnEvent(tick=2, channel=9, data=[38, 110]),
   midi.NoteOnEvent(tick=0, channel=9, data=[42, 110]),
   midi.NoteOnEvent(tick=94, channel=9, data=[38, 0]),
   midi.NoteOnEvent(tick=0, channel=9, data=[42, 0]),
   midi.NoteOnEvent(tick=2, channel=9, data=[36, 110]),
   midi.NoteOnEvent(tick=0, channel=9, data=[42, 110]),
   midi.NoteOnEvent(tick=94, channel=9, data=[36, 0]),
   midi.NoteOnEvent(tick=0, channel=9, data=[42, 0]),
   midi.NoteOnEvent(tick=2, channel=9, data=[38, 110]),
   midi.NoteOnEvent(tick=0, channel=9, data=[42, 110]),
   midi.NoteOnEvent(tick=94, channel=9, data=[38, 0]),
   midi.NoteOnEvent(tick=0, channel=9, data=[42, 0]),
   midi.NoteOnEvent(tick=2, channel=9, data=[36, 110]),
   midi.NoteOnEvent(tick=0, channel=9, data=[42, 110]),
   midi.NoteOnEvent(tick=0, channel=9, data=[49, 110]),
   midi.NoteOnEvent(tick=94, channel=9, data=[36, 0]),
   midi.NoteOnEvent(tick=0, channel=9, data=[42, 0]),
   midi.NoteOnEvent(tick=0, channel=9, data=[49, 0]),
   midi.NoteOnEvent(tick=2, channel=9, data=[38, 110]),
   midi.NoteOnEvent(tick=0, channel=9, data=[42, 110]),
   midi.NoteOnEvent(tick=94, channel=9, data=[38, 0]),
   midi.NoteOnEvent(tick=0, channel=9, data=[42, 0]),
   midi.NoteOnEvent(tick=2, channel=9, data=[36, 110]),
   midi.NoteOnEvent(tick=0, channel=9, data=[42, 110]),
   midi.NoteOnEvent(tick=94, channel=9, data=[36, 0]),
   midi.NoteOnEvent(tick=0, channel=9, data=[42, 0]),
   midi.NoteOnEvent(tick=2, channel=9, data=[38, 110]),
   midi.NoteOnEvent(tick=0, channel=9, data=[42, 110]),
   midi.NoteOnEvent(tick=94, channel=9, data=[38, 0]),
   midi.NoteOnEvent(tick=0, channel=9, data=[42, 0]),
   midi.NoteOnEvent(tick=2, channel=9, data=[36, 110]),
   midi.NoteOnEvent(tick=0, channel=9, data=[42, 110]),
   midi.NoteOnEvent(tick=94, channel=9, data=[36, 0]),
   midi.NoteOnEvent(tick=0, channel=9, data=[42, 0]),
   midi.NoteOnEvent(tick=2, channel=9, data=[38, 110]),
   midi.NoteOnEvent(tick=0, channel=9, data=[42, 110]),
   midi.NoteOnEvent(tick=94, channel=9, data=[38, 0]),
   midi.NoteOnEvent(tick=0, channel=9, data=[42, 0]),
   midi.NoteOnEvent(tick=2, channel=9, data=[36, 110]),
   midi.NoteOnEvent(tick=0, channel=9, data=[42, 110]),
   midi.NoteOnEvent(tick=0, channel=9, data=[49, 110]),
   midi.NoteOnEvent(tick=94, channel=9, data=[36, 0]),
   midi.NoteOnEvent(tick=0, channel=9, data=[42, 0]),
   midi.NoteOnEvent(tick=0, channel=9, data=[49, 0]),
   midi.NoteOnEvent(tick=2, channel=9, data=[38, 110]),
   midi.NoteOnEvent(tick=0, channel=9, data=[42, 110]),
   midi.NoteOnEvent(tick=94, channel=9, data=[38, 0]),
   midi.NoteOnEvent(tick=0, channel=9, data=[42, 0]),
   midi.NoteOnEvent(tick=2, channel=9, data=[36, 110]),
   midi.NoteOnEvent(tick=0, channel=9, data=[42, 110]),
   midi.NoteOnEvent(tick=94, channel=9, data=[36, 0]),
   midi.NoteOnEvent(tick=0, channel=9, data=[42, 0]),
   midi.NoteOnEvent(tick=2, channel=9, data=[38, 110]),
   midi.NoteOnEvent(tick=0, channel=9, data=[42, 110]),
   midi.NoteOnEvent(tick=94, channel=9, data=[38, 0]),
   midi.NoteOnEvent(tick=0, channel=9, data=[42, 0]),
   midi.NoteOnEvent(tick=2, channel=9, data=[36, 110]),
   midi.NoteOnEvent(tick=0, channel=9, data=[42, 110]),
   midi.NoteOnEvent(tick=94, channel=9, data=[36, 0]),
   midi.NoteOnEvent(tick=0, channel=9, data=[42, 0]),
   midi.NoteOnEvent(tick=2, channel=9, data=[38, 110]),
   midi.NoteOnEvent(tick=0, channel=9, data=[42, 110]),
   midi.NoteOnEvent(tick=94, channel=9, data=[38, 0]),
   midi.NoteOnEvent(tick=0, channel=9, data=[42, 0]),
   midi.NoteOnEvent(tick=2, channel=9, data=[36, 110]),
   midi.NoteOnEvent(tick=0, channel=9, data=[42, 110]),
   midi.NoteOnEvent(tick=0, channel=9, data=[49, 110]),
   midi.NoteOnEvent(tick=94, channel=9, data=[36, 0]),
   midi.NoteOnEvent(tick=0, channel=9, data=[42, 0]),
   midi.NoteOnEvent(tick=0, channel=9, data=[49, 0]),
   midi.NoteOnEvent(tick=2, channel=9, data=[38, 110]),
   midi.NoteOnEvent(tick=0, channel=9, data=[42, 110]),
   midi.NoteOnEvent(tick=94, channel=9, data=[38, 0]),
   midi.NoteOnEvent(tick=0, channel=9, data=[42, 0]),
   midi.NoteOnEvent(tick=2, channel=9, data=[36, 110]),
   midi.NoteOnEvent(tick=0, channel=9, data=[42, 110]),
   midi.NoteOnEvent(tick=94, channel=9, data=[36, 0]),
   midi.NoteOnEvent(tick=0, channel=9, data=[42, 0]),
   midi.NoteOnEvent(tick=2, channel=9, data=[38, 110]),
   midi.NoteOnEvent(tick=0, channel=9, data=[42, 110]),
   midi.NoteOnEvent(tick=94, channel=9, data=[38, 0]),
   midi.NoteOnEvent(tick=0, channel=9, data=[42, 0]),
   midi.NoteOnEvent(tick=2, channel=9, data=[36, 110]),
   midi.NoteOnEvent(tick=0, channel=9, data=[42, 110]),
   midi.NoteOnEvent(tick=94, channel=9, data=[36, 0]),
   midi.NoteOnEvent(tick=0, channel=9, data=[42, 0]),
   midi.NoteOnEvent(tick=2, channel=9, data=[38, 110]),
   midi.NoteOnEvent(tick=0, channel=9, data=[42, 110]),
   midi.NoteOnEvent(tick=94, channel=9, data=[38, 0]),
   midi.NoteOnEvent(tick=0, channel=9, data=[42, 0]),
   midi.NoteOnEvent(tick=2, channel=9, data=[36, 110]),
   midi.NoteOnEvent(tick=0, channel=9, data=[42, 110]),
   midi.NoteOnEvent(tick=94, channel=9, data=[36, 0]),
   midi.NoteOnEvent(tick=0, channel=9, data=[42, 0]),
   midi.NoteOnEvent(tick=2, channel=9, data=[38, 110]),
   midi.NoteOnEvent(tick=0, channel=9, data=[42, 110]),
   midi.NoteOnEvent(tick=94, channel=9, data=[38, 0]),
   midi.NoteOnEvent(tick=0, channel=9, data=[42, 0]),
   midi.NoteOnEvent(tick=2, channel=9, data=[36, 110]),
   midi.NoteOnEvent(tick=0, channel=9, data=[42, 110]),
   midi.NoteOnEvent(tick=0, channel=9, data=[49, 110]),
   midi.NoteOnEvent(tick=94, channel=9, data=[36, 0]),
   midi.NoteOnEvent(tick=0, channel=9, data=[42, 0]),
   midi.NoteOnEvent(tick=0, channel=9, data=[49, 0]),
   midi.NoteOnEvent(tick=2, channel=9, data=[38, 110]),
   midi.NoteOnEvent(tick=0, channel=9, data=[42, 110]),
   midi.NoteOnEvent(tick=94, channel=9, data=[38, 0]),
   midi.NoteOnEvent(tick=0, channel=9, data=[42, 0]),
   midi.NoteOnEvent(tick=2, channel=9, data=[36, 110]),
   midi.NoteOnEvent(tick=0, channel=9, data=[42, 110]),
   midi.NoteOnEvent(tick=94, channel=9, data=[36, 0]),
   midi.NoteOnEvent(tick=0, channel=9, data=[42, 0]),
   midi.NoteOnEvent(tick=2, channel=9, data=[38, 110]),
   midi.NoteOnEvent(tick=0, channel=9, data=[42, 110]),
   midi.NoteOnEvent(tick=94, channel=9, data=[38, 0]),
   midi.NoteOnEvent(tick=0, channel=9, data=[42, 0]),
   midi.NoteOnEvent(tick=2, channel=9, data=[36, 110]),
   midi.NoteOnEvent(tick=0, channel=9, data=[42, 110]),
   midi.NoteOnEvent(tick=94, channel=9, data=[36, 0]),
   midi.NoteOnEvent(tick=0, channel=9, data=[42, 0]),
   midi.NoteOnEvent(tick=2, channel=9, data=[38, 110]),
   midi.NoteOnEvent(tick=0, channel=9, data=[42, 110]),
   midi.NoteOnEvent(tick=94, channel=9, data=[38, 0]),
   midi.NoteOnEvent(tick=0, channel=9, data=[42, 0]),
   midi.NoteOnEvent(tick=2, channel=9, data=[36, 110]),
   midi.NoteOnEvent(tick=0, channel=9, data=[42, 110]),
   midi.NoteOnEvent(tick=94, channel=9, data=[36, 0]),
   midi.NoteOnEvent(tick=0, channel=9, data=[42, 0]),
   midi.NoteOnEvent(tick=2, channel=9, data=[38, 110]),
   midi.NoteOnEvent(tick=0, channel=9, data=[42, 110]),
   midi.NoteOnEvent(tick=94, channel=9, data=[38, 0]),
   midi.NoteOnEvent(tick=0, channel=9, data=[42, 0]),
   midi.NoteOnEvent(tick=2, channel=9, data=[36, 110]),
   midi.NoteOnEvent(tick=0, channel=9, data=[42, 110]),
   midi.NoteOnEvent(tick=0, channel=9, data=[49, 110]),
   midi.NoteOnEvent(tick=94, channel=9, data=[36, 0]),
   midi.NoteOnEvent(tick=0, channel=9, data=[42, 0]),
   midi.NoteOnEvent(tick=0, channel=9, data=[49, 0]),
   midi.NoteOnEvent(tick=2, channel=9, data=[38, 110]),
   midi.NoteOnEvent(tick=0, channel=9, data=[42, 110]),
   midi.NoteOnEvent(tick=94, channel=9, data=[38, 0]),
   midi.NoteOnEvent(tick=0, channel=9, data=[42, 0]),
   midi.NoteOnEvent(tick=2, channel=9, data=[36, 110]),
   midi.NoteOnEvent(tick=0, channel=9, data=[42, 110]),
   midi.NoteOnEvent(tick=94, channel=9, data=[36, 0]),
   midi.NoteOnEvent(tick=0, channel=9, data=[42, 0]),
   midi.NoteOnEvent(tick=2, channel=9, data=[38, 110]),
   midi.NoteOnEvent(tick=0, channel=9, data=[42, 110]),
   midi.NoteOnEvent(tick=94, channel=9, data=[38, 0]),
   midi.NoteOnEvent(tick=0, channel=9, data=[42, 0]),
   midi.NoteOnEvent(tick=2, channel=9, data=[36, 110]),
   midi.NoteOnEvent(tick=0, channel=9, data=[42, 110]),
   midi.NoteOnEvent(tick=94, channel=9, data=[36, 0]),
   midi.NoteOnEvent(tick=0, channel=9, data=[42, 0]),
   midi.NoteOnEvent(tick=2, channel=9, data=[38, 110]),
   midi.NoteOnEvent(tick=0, channel=9, data=[42, 110]),
   midi.NoteOnEvent(tick=94, channel=9, data=[38, 0]),
   midi.NoteOnEvent(tick=0, channel=9, data=[42, 0]),
   midi.NoteOnEvent(tick=2, channel=9, data=[36, 110]),
   midi.NoteOnEvent(tick=0, channel=9, data=[42, 110]),
   midi.NoteOnEvent(tick=0, channel=9, data=[49, 110]),
   midi.NoteOnEvent(tick=94, channel=9, data=[36, 0]),
   midi.NoteOnEvent(tick=0, channel=9, data=[42, 0]),
   midi.NoteOnEvent(tick=0, channel=9, data=[49, 0]),
   midi.NoteOnEvent(tick=2, channel=9, data=[38, 110]),
   midi.NoteOnEvent(tick=0, channel=9, data=[42, 110]),
   midi.NoteOnEvent(tick=94, channel=9, data=[38, 0]),
   midi.NoteOnEvent(tick=0, channel=9, data=[42, 0]),
   midi.NoteOnEvent(tick=2, channel=9, data=[36, 110]),
   midi.NoteOnEvent(tick=0, channel=9, data=[42, 110]),
   midi.NoteOnEvent(tick=94, channel=9, data=[36, 0]),
   midi.NoteOnEvent(tick=0, channel=9, data=[42, 0]),
   midi.NoteOnEvent(tick=2, channel=9, data=[38, 110]),
   midi.NoteOnEvent(tick=0, channel=9, data=[42, 110]),
   midi.NoteOnEvent(tick=94, channel=9, data=[38, 0]),
   midi.NoteOnEvent(tick=0, channel=9, data=[42, 0]),
   midi.NoteOnEvent(tick=2, channel=9, data=[36, 110]),
   midi.NoteOnEvent(tick=0, channel=9, data=[42, 110]),
   midi.NoteOnEvent(tick=94, channel=9, data=[36, 0]),
   midi.NoteOnEvent(tick=0, channel=9, data=[42, 0]),
   midi.NoteOnEvent(tick=2, channel=9, data=[38, 110]),
   midi.NoteOnEvent(tick=0, channel=9, data=[42, 110]),
   midi.NoteOnEvent(tick=94, channel=9, data=[38, 0]),
   midi.NoteOnEvent(tick=0, channel=9, data=[42, 0]),
   midi.NoteOnEvent(tick=2, channel=9, data=[36, 110]),
   midi.NoteOnEvent(tick=0, channel=9, data=[42, 110]),
   midi.NoteOnEvent(tick=0, channel=9, data=[49, 110]),
   midi.NoteOnEvent(tick=94, channel=9, data=[36, 0]),
   midi.NoteOnEvent(tick=0, channel=9, data=[42, 0]),
   midi.NoteOnEvent(tick=0, channel=9, data=[49, 0]),
   midi.NoteOnEvent(tick=2, channel=9, data=[38, 110]),
   midi.NoteOnEvent(tick=0, channel=9, data=[42, 110]),
   midi.NoteOnEvent(tick=94, channel=9, data=[38, 0]),
   midi.NoteOnEvent(tick=0, channel=9, data=[42, 0]),
   midi.NoteOnEvent(tick=2, channel=9, data=[36, 110]),
   midi.NoteOnEvent(tick=0, channel=9, data=[42, 110]),
   midi.NoteOnEvent(tick=94, channel=9, data=[36, 0]),
   midi.NoteOnEvent(tick=0, channel=9, data=[42, 0]),
   midi.NoteOnEvent(tick=2, channel=9, data=[38, 110]),
   midi.NoteOnEvent(tick=0, channel=9, data=[42, 110]),
   midi.NoteOnEvent(tick=94, channel=9, data=[38, 0]),
   midi.NoteOnEvent(tick=0, channel=9, data=[42, 0]),
   midi.NoteOnEvent(tick=2, channel=9, data=[36, 110]),
   midi.NoteOnEvent(tick=0, channel=9, data=[42, 110]),
   midi.NoteOnEvent(tick=94, channel=9, data=[36, 0]),
   midi.NoteOnEvent(tick=0, channel=9, data=[42, 0]),
   midi.NoteOnEvent(tick=2, channel=9, data=[38, 110]),
   midi.NoteOnEvent(tick=0, channel=9, data=[42, 110]),
   midi.NoteOnEvent(tick=94, channel=9, data=[38, 0]),
   midi.NoteOnEvent(tick=0, channel=9, data=[42, 0]),
   midi.NoteOnEvent(tick=2, channel=9, data=[36, 110]),
   midi.NoteOnEvent(tick=0, channel=9, data=[42, 110]),
   midi.NoteOnEvent(tick=94, channel=9, data=[36, 0]),
   midi.NoteOnEvent(tick=0, channel=9, data=[42, 0]),
   midi.NoteOnEvent(tick=2, channel=9, data=[38, 110]),
   midi.NoteOnEvent(tick=0, channel=9, data=[42, 110]),
   midi.NoteOnEvent(tick=94, channel=9, data=[38, 0]),
   midi.NoteOnEvent(tick=0, channel=9, data=[42, 0]),
   midi.NoteOnEvent(tick=2, channel=9, data=[36, 110]),
   midi.NoteOnEvent(tick=0, channel=9, data=[42, 110]),
   midi.NoteOnEvent(tick=0, channel=9, data=[49, 110]),
   midi.NoteOnEvent(tick=94, channel=9, data=[36, 0]),
   midi.NoteOnEvent(tick=0, channel=9, data=[42, 0]),
   midi.NoteOnEvent(tick=0, channel=9, data=[49, 0]),
   midi.NoteOnEvent(tick=2, channel=9, data=[38, 110]),
   midi.NoteOnEvent(tick=0, channel=9, data=[42, 110]),
   midi.NoteOnEvent(tick=94, channel=9, data=[38, 0]),
   midi.NoteOnEvent(tick=0, channel=9, data=[42, 0]),
   midi.NoteOnEvent(tick=2, channel=9, data=[36, 110]),
   midi.NoteOnEvent(tick=0, channel=9, data=[42, 110]),
   midi.NoteOnEvent(tick=94, channel=9, data=[36, 0]),
   midi.NoteOnEvent(tick=0, channel=9, data=[42, 0]),
   midi.NoteOnEvent(tick=2, channel=9, data=[38, 110]),
   midi.NoteOnEvent(tick=0, channel=9, data=[42, 110]),
   midi.NoteOnEvent(tick=94, channel=9, data=[38, 0]),
   midi.NoteOnEvent(tick=0, channel=9, data=[42, 0]),
   midi.NoteOnEvent(tick=2, channel=9, data=[36, 110]),
   midi.NoteOnEvent(tick=0, channel=9, data=[42, 110]),
   midi.NoteOnEvent(tick=94, channel=9, data=[36, 0]),
   midi.NoteOnEvent(tick=0, channel=9, data=[42, 0]),
   midi.NoteOnEvent(tick=2, channel=9, data=[38, 110]),
   midi.NoteOnEvent(tick=0, channel=9, data=[42, 110]),
   midi.NoteOnEvent(tick=94, channel=9, data=[38, 0]),
   midi.NoteOnEvent(tick=0, channel=9, data=[42, 0]),
   midi.NoteOnEvent(tick=2, channel=9, data=[36, 110]),
   midi.NoteOnEvent(tick=0, channel=9, data=[42, 110]),
   midi.NoteOnEvent(tick=94, channel=9, data=[36, 0]),
   midi.NoteOnEvent(tick=0, channel=9, data=[42, 0]),
   midi.NoteOnEvent(tick=2, channel=9, data=[38, 110]),
   midi.NoteOnEvent(tick=0, channel=9, data=[42, 110]),
   midi.NoteOnEvent(tick=94, channel=9, data=[38, 0]),
   midi.NoteOnEvent(tick=0, channel=9, data=[42, 0]),
   midi.NoteOnEvent(tick=2, channel=9, data=[36, 110]),
   midi.NoteOnEvent(tick=0, channel=9, data=[42, 110]),
   midi.NoteOnEvent(tick=0, channel=9, data=[49, 110]),
   midi.NoteOnEvent(tick=94, channel=9, data=[36, 0]),
   midi.NoteOnEvent(tick=0, channel=9, data=[42, 0]),
   midi.NoteOnEvent(tick=0, channel=9, data=[49, 0]),
   midi.NoteOnEvent(tick=2, channel=9, data=[38, 110]),
   midi.NoteOnEvent(tick=0, channel=9, data=[42, 110]),
   midi.NoteOnEvent(tick=94, channel=9, data=[38, 0]),
   midi.NoteOnEvent(tick=0, channel=9, data=[42, 0]),
   midi.NoteOnEvent(tick=2, channel=9, data=[36, 110]),
   midi.NoteOnEvent(tick=0, channel=9, data=[42, 110]),
   midi.NoteOnEvent(tick=94, channel=9, data=[36, 0]),
   midi.NoteOnEvent(tick=0, channel=9, data=[42, 0]),
   midi.NoteOnEvent(tick=2, channel=9, data=[38, 110]),
   midi.NoteOnEvent(tick=0, channel=9, data=[42, 110]),
   midi.NoteOnEvent(tick=94, channel=9, data=[38, 0]),
   midi.NoteOnEvent(tick=0, channel=9, data=[42, 0]),
   midi.NoteOnEvent(tick=2, channel=9, data=[36, 110]),
   midi.NoteOnEvent(tick=0, channel=9, data=[42, 110]),
   midi.NoteOnEvent(tick=94, channel=9, data=[36, 0]),
   midi.NoteOnEvent(tick=0, channel=9, data=[42, 0]),
   midi.NoteOnEvent(tick=2, channel=9, data=[38, 110]),
   midi.NoteOnEvent(tick=0, channel=9, data=[42, 110]),
   midi.NoteOnEvent(tick=94, channel=9, data=[38, 0]),
   midi.NoteOnEvent(tick=0, channel=9, data=[42, 0]),
   midi.NoteOnEvent(tick=2, channel=9, data=[36, 110]),
   midi.NoteOnEvent(tick=0, channel=9, data=[42, 110]),
   midi.NoteOnEvent(tick=0, channel=9, data=[49, 110]),
   midi.NoteOnEvent(tick=94, channel=9, data=[36, 0]),
   midi.NoteOnEvent(tick=0, channel=9, data=[42, 0]),
   midi.NoteOnEvent(tick=0, channel=9, data=[49, 0]),
   midi.NoteOnEvent(tick=2, channel=9, data=[38, 110]),
   midi.NoteOnEvent(tick=0, channel=9, data=[42, 110]),
   midi.NoteOnEvent(tick=94, channel=9, data=[38, 0]),
   midi.NoteOnEvent(tick=0, channel=9, data=[42, 0]),
   midi.NoteOnEvent(tick=2, channel=9, data=[36, 110]),
   midi.NoteOnEvent(tick=0, channel=9, data=[42, 110]),
   midi.NoteOnEvent(tick=94, channel=9, data=[36, 0]),
   midi.NoteOnEvent(tick=0, channel=9, data=[42, 0]),
   midi.NoteOnEvent(tick=2, channel=9, data=[38, 110]),
   midi.NoteOnEvent(tick=0, channel=9, data=[42, 110]),
   midi.NoteOnEvent(tick=94, channel=9, data=[38, 0]),
   midi.NoteOnEvent(tick=0, channel=9, data=[42, 0]),
   midi.NoteOnEvent(tick=2, channel=9, data=[36, 110]),
   midi.NoteOnEvent(tick=0, channel=9, data=[42, 110]),
   midi.NoteOnEvent(tick=94, channel=9, data=[36, 0]),
   midi.NoteOnEvent(tick=0, channel=9, data=[42, 0]),
   midi.NoteOnEvent(tick=2, channel=9, data=[38, 110]),
   midi.NoteOnEvent(tick=0, channel=9, data=[42, 110]),
   midi.NoteOnEvent(tick=94, channel=9, data=[38, 0]),
   midi.NoteOnEvent(tick=0, channel=9, data=[42, 0]),
   midi.NoteOnEvent(tick=2, channel=9, data=[36, 110]),
   midi.NoteOnEvent(tick=0, channel=9, data=[42, 110]),
   midi.NoteOnEvent(tick=0, channel=9, data=[49, 110]),
   midi.NoteOnEvent(tick=94, channel=9, data=[36, 0]),
   midi.NoteOnEvent(tick=0, channel=9, data=[42, 0]),
   midi.NoteOnEvent(tick=0, channel=9, data=[49, 0]),
   midi.NoteOnEvent(tick=2, channel=9, data=[38, 110]),
   midi.NoteOnEvent(tick=0, channel=9, data=[42, 110]),
   midi.NoteOnEvent(tick=94, channel=9, data=[38, 0]),
   midi.NoteOnEvent(tick=0, channel=9, data=[42, 0]),
   midi.NoteOnEvent(tick=2, channel=9, data=[36, 110]),
   midi.NoteOnEvent(tick=0, channel=9, data=[42, 110]),
   midi.NoteOnEvent(tick=94, channel=9, data=[36, 0]),
   midi.NoteOnEvent(tick=0, channel=9, data=[42, 0]),
   midi.NoteOnEvent(tick=2, channel=9, data=[38, 110]),
   midi.NoteOnEvent(tick=0, channel=9, data=[42, 110]),
   midi.NoteOnEvent(tick=94, channel=9, data=[38, 0]),
   midi.NoteOnEvent(tick=0, channel=9, data=[42, 0]),
   midi.NoteOnEvent(tick=2, channel=9, data=[36, 110]),
   midi.NoteOnEvent(tick=0, channel=9, data=[42, 110]),
   midi.NoteOnEvent(tick=94, channel=9, data=[36, 0]),
   midi.NoteOnEvent(tick=0, channel=9, data=[42, 0]),
   midi.NoteOnEvent(tick=2, channel=9, data=[38, 110]),
   midi.NoteOnEvent(tick=0, channel=9, data=[42, 110]),
   midi.NoteOnEvent(tick=94, channel=9, data=[38, 0]),
   midi.NoteOnEvent(tick=0, channel=9, data=[42, 0]),
   midi.NoteOnEvent(tick=2, channel=9, data=[36, 110]),
   midi.NoteOnEvent(tick=0, channel=9, data=[42, 110]),
   midi.NoteOnEvent(tick=94, channel=9, data=[36, 0]),
   midi.NoteOnEvent(tick=0, channel=9, data=[42, 0]),
   midi.NoteOnEvent(tick=2, channel=9, data=[38, 110]),
   midi.NoteOnEvent(tick=0, channel=9, data=[42, 110]),
   midi.NoteOnEvent(tick=94, channel=9, data=[38, 0]),
   midi.NoteOnEvent(tick=0, channel=9, data=[42, 0]),
   midi.NoteOnEvent(tick=2, channel=9, data=[36, 110]),
   midi.NoteOnEvent(tick=0, channel=9, data=[42, 110]),
   midi.NoteOnEvent(tick=0, channel=9, data=[49, 110]),
   midi.NoteOnEvent(tick=94, channel=9, data=[36, 0]),
   midi.NoteOnEvent(tick=0, channel=9, data=[42, 0]),
   midi.NoteOnEvent(tick=0, channel=9, data=[49, 0]),
   midi.NoteOnEvent(tick=2, channel=9, data=[38, 110]),
   midi.NoteOnEvent(tick=0, channel=9, data=[42, 110]),
   midi.NoteOnEvent(tick=94, channel=9, data=[38, 0]),
   midi.NoteOnEvent(tick=0, channel=9, data=[42, 0]),
   midi.NoteOnEvent(tick=2, channel=9, data=[36, 110]),
   midi.NoteOnEvent(tick=0, channel=9, data=[42, 110]),
   midi.NoteOnEvent(tick=94, channel=9, data=[36, 0]),
   midi.NoteOnEvent(tick=0, channel=9, data=[42, 0]),
   midi.NoteOnEvent(tick=2, channel=9, data=[38, 110]),
   midi.NoteOnEvent(tick=0, channel=9, data=[42, 110]),
   midi.NoteOnEvent(tick=94, channel=9, data=[38, 0]),
   midi.NoteOnEvent(tick=0, channel=9, data=[42, 0]),
   midi.NoteOnEvent(tick=2, channel=9, data=[36, 110]),
   midi.NoteOnEvent(tick=0, channel=9, data=[42, 110]),
   midi.NoteOnEvent(tick=94, channel=9, data=[36, 0]),
   midi.NoteOnEvent(tick=0, channel=9, data=[42, 0]),
   midi.NoteOnEvent(tick=2, channel=9, data=[38, 110]),
   midi.NoteOnEvent(tick=0, channel=9, data=[42, 110]),
   midi.NoteOnEvent(tick=94, channel=9, data=[38, 0]),
   midi.NoteOnEvent(tick=0, channel=9, data=[42, 0]),
   midi.NoteOnEvent(tick=2, channel=9, data=[36, 110]),
   midi.NoteOnEvent(tick=0, channel=9, data=[42, 110]),
   midi.NoteOnEvent(tick=94, channel=9, data=[36, 0]),
   midi.NoteOnEvent(tick=0, channel=9, data=[42, 0]),
   midi.NoteOnEvent(tick=2, channel=9, data=[38, 110]),
   midi.NoteOnEvent(tick=0, channel=9, data=[42, 110]),
   midi.NoteOnEvent(tick=94, channel=9, data=[38, 0]),
   midi.NoteOnEvent(tick=0, channel=9, data=[42, 0]),
   midi.NoteOnEvent(tick=2, channel=9, data=[36, 110]),
   midi.NoteOnEvent(tick=0, channel=9, data=[42, 110]),
   midi.NoteOnEvent(tick=0, channel=9, data=[49, 110]),
   midi.NoteOnEvent(tick=94, channel=9, data=[36, 0]),
   midi.NoteOnEvent(tick=0, channel=9, data=[42, 0]),
   midi.NoteOnEvent(tick=0, channel=9, data=[49, 0]),
   midi.NoteOnEvent(tick=2, channel=9, data=[38, 110]),
   midi.NoteOnEvent(tick=0, channel=9, data=[42, 110]),
   midi.NoteOnEvent(tick=94, channel=9, data=[38, 0]),
   midi.NoteOnEvent(tick=0, channel=9, data=[42, 0]),
   midi.NoteOnEvent(tick=2, channel=9, data=[36, 110]),
   midi.NoteOnEvent(tick=0, channel=9, data=[42, 110]),
   midi.NoteOnEvent(tick=94, channel=9, data=[36, 0]),
   midi.NoteOnEvent(tick=0, channel=9, data=[42, 0]),
   midi.NoteOnEvent(tick=2, channel=9, data=[38, 110]),
   midi.NoteOnEvent(tick=0, channel=9, data=[42, 110]),
   midi.NoteOnEvent(tick=94, channel=9, data=[38, 0]),
   midi.NoteOnEvent(tick=0, channel=9, data=[42, 0]),
   midi.NoteOnEvent(tick=2, channel=9, data=[36, 110]),
   midi.NoteOnEvent(tick=0, channel=9, data=[42, 110]),
   midi.NoteOnEvent(tick=94, channel=9, data=[36, 0]),
   midi.NoteOnEvent(tick=0, channel=9, data=[42, 0]),
   midi.NoteOnEvent(tick=2, channel=9, data=[38, 110]),
   midi.NoteOnEvent(tick=0, channel=9, data=[42, 110]),
   midi.NoteOnEvent(tick=94, channel=9, data=[38, 0]),
   midi.NoteOnEvent(tick=0, channel=9, data=[42, 0]),
   midi.NoteOnEvent(tick=2, channel=9, data=[36, 110]),
   midi.NoteOnEvent(tick=0, channel=9, data=[42, 110]),
   midi.NoteOnEvent(tick=0, channel=9, data=[49, 110]),
   midi.NoteOnEvent(tick=94, channel=9, data=[36, 0]),
   midi.NoteOnEvent(tick=0, channel=9, data=[42, 0]),
   midi.NoteOnEvent(tick=0, channel=9, data=[49, 0]),
   midi.NoteOnEvent(tick=2, channel=9, data=[38, 110]),
   midi.NoteOnEvent(tick=0, channel=9, data=[42, 110]),
   midi.NoteOnEvent(tick=94, channel=9, data=[38, 0]),
   midi.NoteOnEvent(tick=0, channel=9, data=[42, 0]),
   midi.NoteOnEvent(tick=2, channel=9, data=[36, 110]),
   midi.NoteOnEvent(tick=0, channel=9, data=[42, 110]),
   midi.NoteOnEvent(tick=94, channel=9, data=[36, 0]),
   midi.NoteOnEvent(tick=0, channel=9, data=[42, 0]),
   midi.NoteOnEvent(tick=2, channel=9, data=[38, 110]),
   midi.NoteOnEvent(tick=0, channel=9, data=[42, 110]),
   midi.NoteOnEvent(tick=94, channel=9, data=[38, 0]),
   midi.NoteOnEvent(tick=0, channel=9, data=[42, 0]),
   midi.NoteOnEvent(tick=2, channel=9, data=[36, 110]),
   midi.NoteOnEvent(tick=0, channel=9, data=[42, 110]),
   midi.NoteOnEvent(tick=94, channel=9, data=[36, 0]),
   midi.NoteOnEvent(tick=0, channel=9, data=[42, 0]),
   midi.NoteOnEvent(tick=2, channel=9, data=[38, 110]),
   midi.NoteOnEvent(tick=0, channel=9, data=[42, 110]),
   midi.NoteOnEvent(tick=94, channel=9, data=[38, 0]),
   midi.NoteOnEvent(tick=0, channel=9, data=[42, 0]),
   midi.NoteOnEvent(tick=2, channel=9, data=[36, 110]),
   midi.NoteOnEvent(tick=0, channel=9, data=[42, 110]),
   midi.NoteOnEvent(tick=0, channel=9, data=[49, 110]),
   midi.NoteOnEvent(tick=94, channel=9, data=[36, 0]),
   midi.NoteOnEvent(tick=0, channel=9, data=[42, 0]),
   midi.NoteOnEvent(tick=0, channel=9, data=[49, 0]),
   midi.NoteOnEvent(tick=2, channel=9, data=[38, 110]),
   midi.NoteOnEvent(tick=0, channel=9, data=[42, 110]),
   midi.NoteOnEvent(tick=94, channel=9, data=[38, 0]),
   midi.NoteOnEvent(tick=0, channel=9, data=[42, 0]),
   midi.NoteOnEvent(tick=2, channel=9, data=[36, 110]),
   midi.NoteOnEvent(tick=0, channel=9, data=[42, 110]),
   midi.NoteOnEvent(tick=94, channel=9, data=[36, 0]),
   midi.NoteOnEvent(tick=0, channel=9, data=[42, 0]),
   midi.NoteOnEvent(tick=2, channel=9, data=[38, 110]),
   midi.NoteOnEvent(tick=0, channel=9, data=[42, 110]),
   midi.NoteOnEvent(tick=94, channel=9, data=[38, 0]),
   midi.NoteOnEvent(tick=0, channel=9, data=[42, 0]),
   midi.NoteOnEvent(tick=2, channel=9, data=[36, 110]),
   midi.NoteOnEvent(tick=0, channel=9, data=[42, 110]),
   midi.NoteOnEvent(tick=94, channel=9, data=[36, 0]),
   midi.NoteOnEvent(tick=0, channel=9, data=[42, 0]),
   midi.NoteOnEvent(tick=2, channel=9, data=[38, 110]),
   midi.NoteOnEvent(tick=0, channel=9, data=[42, 110]),
   midi.NoteOnEvent(tick=94, channel=9, data=[38, 0]),
   midi.NoteOnEvent(tick=0, channel=9, data=[42, 0]),
   midi.NoteOnEvent(tick=2, channel=9, data=[36, 110]),
   midi.NoteOnEvent(tick=0, channel=9, data=[42, 110]),
   midi.NoteOnEvent(tick=94, channel=9, data=[36, 0]),
   midi.NoteOnEvent(tick=0, channel=9, data=[42, 0]),
   midi.NoteOnEvent(tick=2, channel=9, data=[38, 110]),
   midi.NoteOnEvent(tick=0, channel=9, data=[42, 110]),
   midi.NoteOnEvent(tick=94, channel=9, data=[38, 0]),
   midi.NoteOnEvent(tick=0, channel=9, data=[42, 0]),
   midi.NoteOnEvent(tick=2, channel=9, data=[36, 110]),
   midi.NoteOnEvent(tick=0, channel=9, data=[42, 110]),
   midi.NoteOnEvent(tick=0, channel=9, data=[49, 110]),
   midi.NoteOnEvent(tick=94, channel=9, data=[36, 0]),
   midi.NoteOnEvent(tick=0, channel=9, data=[42, 0]),
   midi.NoteOnEvent(tick=0, channel=9, data=[49, 0]),
   midi.NoteOnEvent(tick=2, channel=9, data=[38, 110]),
   midi.NoteOnEvent(tick=0, channel=9, data=[42, 110]),
   midi.NoteOnEvent(tick=94, channel=9, data=[38, 0]),
   midi.NoteOnEvent(tick=0, channel=9, data=[42, 0]),
   midi.NoteOnEvent(tick=2, channel=9, data=[36, 110]),
   midi.NoteOnEvent(tick=0, channel=9, data=[42, 110]),
   midi.NoteOnEvent(tick=94, channel=9, data=[36, 0]),
   midi.NoteOnEvent(tick=0, channel=9, data=[42, 0]),
   midi.NoteOnEvent(tick=2, channel=9, data=[38, 110]),
   midi.NoteOnEvent(tick=0, channel=9, data=[42, 110]),
   midi.NoteOnEvent(tick=94, channel=9, data=[38, 0]),
   midi.NoteOnEvent(tick=0, channel=9, data=[42, 0]),
   midi.NoteOnEvent(tick=2, channel=9, data=[36, 110]),
   midi.NoteOnEvent(tick=0, channel=9, data=[42, 110]),
   midi.NoteOnEvent(tick=94, channel=9, data=[36, 0]),
   midi.NoteOnEvent(tick=0, channel=9, data=[42, 0]),
   midi.NoteOnEvent(tick=2, channel=9, data=[38, 110]),
   midi.NoteOnEvent(tick=0, channel=9, data=[42, 110]),
   midi.NoteOnEvent(tick=94, channel=9, data=[38, 0]),
   midi.NoteOnEvent(tick=0, channel=9, data=[42, 0]),
   midi.NoteOnEvent(tick=2, channel=9, data=[36, 110]),
   midi.NoteOnEvent(tick=0, channel=9, data=[42, 110]),
   midi.NoteOnEvent(tick=94, channel=9, data=[36, 0]),
   midi.NoteOnEvent(tick=0, channel=9, data=[42, 0]),
   midi.NoteOnEvent(tick=2, channel=9, data=[38, 110]),
   midi.NoteOnEvent(tick=0, channel=9, data=[42, 110]),
   midi.NoteOnEvent(tick=94, channel=9, data=[38, 0]),
   midi.NoteOnEvent(tick=0, channel=9, data=[42, 0]),
   midi.NoteOnEvent(tick=2, channel=9, data=[36, 110]),
   midi.NoteOnEvent(tick=0, channel=9, data=[42, 110]),
   midi.NoteOnEvent(tick=0, channel=9, data=[49, 110]),
   midi.NoteOnEvent(tick=94, channel=9, data=[36, 0]),
   midi.NoteOnEvent(tick=0, channel=9, data=[42, 0]),
   midi.NoteOnEvent(tick=0, channel=9, data=[49, 0]),
   midi.NoteOnEvent(tick=2, channel=9, data=[38, 110]),
   midi.NoteOnEvent(tick=0, channel=9, data=[42, 110]),
   midi.NoteOnEvent(tick=94, channel=9, data=[38, 0]),
   midi.NoteOnEvent(tick=0, channel=9, data=[42, 0]),
   midi.NoteOnEvent(tick=2, channel=9, data=[36, 110]),
   midi.NoteOnEvent(tick=0, channel=9, data=[42, 110]),
   midi.NoteOnEvent(tick=94, channel=9, data=[36, 0]),
   midi.NoteOnEvent(tick=0, channel=9, data=[42, 0]),
   midi.NoteOnEvent(tick=2, channel=9, data=[38, 110]),
   midi.NoteOnEvent(tick=0, channel=9, data=[42, 110]),
   midi.NoteOnEvent(tick=94, channel=9, data=[38, 0]),
   midi.NoteOnEvent(tick=0, channel=9, data=[42, 0]),
   midi.NoteOnEvent(tick=2, channel=9, data=[36, 110]),
   midi.NoteOnEvent(tick=0, channel=9, data=[42, 110]),
   midi.NoteOnEvent(tick=94, channel=9, data=[36, 0]),
   midi.NoteOnEvent(tick=0, channel=9, data=[42, 0]),
   midi.NoteOnEvent(tick=2, channel=9, data=[38, 110]),
   midi.NoteOnEvent(tick=0, channel=9, data=[42, 110]),
   midi.NoteOnEvent(tick=94, channel=9, data=[38, 0]),
   midi.NoteOnEvent(tick=0, channel=9, data=[42, 0]),
   midi.NoteOnEvent(tick=2, channel=9, data=[36, 110]),
   midi.NoteOnEvent(tick=0, channel=9, data=[42, 110]),
   midi.NoteOnEvent(tick=0, channel=9, data=[49, 110]),
   midi.NoteOnEvent(tick=94, channel=9, data=[36, 0]),
   midi.NoteOnEvent(tick=0, channel=9, data=[42, 0]),
   midi.NoteOnEvent(tick=0, channel=9, data=[49, 0]),
   midi.NoteOnEvent(tick=2, channel=9, data=[38, 110]),
   midi.NoteOnEvent(tick=0, channel=9, data=[42, 110]),
   midi.NoteOnEvent(tick=94, channel=9, data=[38, 0]),
   midi.NoteOnEvent(tick=0, channel=9, data=[42, 0]),
   midi.NoteOnEvent(tick=2, channel=9, data=[36, 110]),
   midi.NoteOnEvent(tick=0, channel=9, data=[42, 110]),
   midi.NoteOnEvent(tick=94, channel=9, data=[36, 0]),
   midi.NoteOnEvent(tick=0, channel=9, data=[42, 0]),
   midi.NoteOnEvent(tick=2, channel=9, data=[38, 110]),
   midi.NoteOnEvent(tick=0, channel=9, data=[42, 110]),
   midi.NoteOnEvent(tick=94, channel=9, data=[38, 0]),
   midi.NoteOnEvent(tick=0, channel=9, data=[42, 0]),
   midi.NoteOnEvent(tick=2, channel=9, data=[36, 110]),
   midi.NoteOnEvent(tick=0, channel=9, data=[42, 110]),
   midi.NoteOnEvent(tick=94, channel=9, data=[36, 0]),
   midi.NoteOnEvent(tick=0, channel=9, data=[42, 0]),
   midi.NoteOnEvent(tick=2, channel=9, data=[38, 110]),
   midi.NoteOnEvent(tick=0, channel=9, data=[42, 110]),
   midi.NoteOnEvent(tick=94, channel=9, data=[38, 0]),
   midi.NoteOnEvent(tick=0, channel=9, data=[42, 0]),
   midi.NoteOnEvent(tick=2, channel=9, data=[36, 110]),
   midi.NoteOnEvent(tick=0, channel=9, data=[38, 110]),
   midi.NoteOnEvent(tick=0, channel=9, data=[42, 110]),
   midi.NoteOnEvent(tick=0, channel=9, data=[49, 110]),
   midi.NoteOnEvent(tick=126, channel=9, data=[36, 0]),
   midi.NoteOnEvent(tick=0, channel=9, data=[38, 0]),
   midi.NoteOnEvent(tick=0, channel=9, data=[42, 0]),
   midi.NoteOnEvent(tick=0, channel=9, data=[49, 0]),
   midi.NoteOnEvent(tick=2, channel=9, data=[36, 110]),
   midi.NoteOnEvent(tick=0, channel=9, data=[38, 110]),
   midi.NoteOnEvent(tick=0, channel=9, data=[42, 110]),
   midi.NoteOnEvent(tick=0, channel=9, data=[49, 110]),
   midi.NoteOnEvent(tick=126, channel=9, data=[36, 0]),
   midi.NoteOnEvent(tick=0, channel=9, data=[38, 0]),
   midi.NoteOnEvent(tick=0, channel=9, data=[42, 0]),
   midi.NoteOnEvent(tick=0, channel=9, data=[49, 0]),
   midi.NoteOnEvent(tick=2, channel=9, data=[36, 110]),
   midi.NoteOnEvent(tick=0, channel=9, data=[38, 110]),
   midi.NoteOnEvent(tick=0, channel=9, data=[42, 110]),
   midi.NoteOnEvent(tick=0, channel=9, data=[49, 110]),
   midi.NoteOnEvent(tick=126, channel=9, data=[36, 0]),
   midi.NoteOnEvent(tick=0, channel=9, data=[38, 0]),
   midi.NoteOnEvent(tick=0, channel=9, data=[42, 0]),
   midi.NoteOnEvent(tick=0, channel=9, data=[49, 0]),
   midi.NoteOnEvent(tick=2, channel=9, data=[36, 110]),
   midi.NoteOnEvent(tick=0, channel=9, data=[38, 110]),
   midi.NoteOnEvent(tick=0, channel=9, data=[42, 110]),
   midi.NoteOnEvent(tick=0, channel=9, data=[49, 110]),
   midi.NoteOnEvent(tick=160, channel=9, data=[36, 0]),
   midi.NoteOnEvent(tick=0, channel=9, data=[38, 0]),
   midi.NoteOnEvent(tick=0, channel=9, data=[42, 0]),
   midi.NoteOnEvent(tick=0, channel=9, data=[49, 0]),
   midi.NoteOnEvent(tick=32, channel=9, data=[36, 110]),
   midi.NoteOnEvent(tick=0, channel=9, data=[38, 110]),
   midi.NoteOnEvent(tick=0, channel=9, data=[42, 110]),
   midi.NoteOnEvent(tick=0, channel=9, data=[49, 110]),
   midi.NoteOnEvent(tick=160, channel=9, data=[36, 0]),
   midi.NoteOnEvent(tick=0, channel=9, data=[38, 0]),
   midi.NoteOnEvent(tick=0, channel=9, data=[42, 0]),
   midi.NoteOnEvent(tick=0, channel=9, data=[49, 0]),
   midi.NoteOnEvent(tick=32, channel=9, data=[36, 110]),
   midi.NoteOnEvent(tick=0, channel=9, data=[38, 110]),
   midi.NoteOnEvent(tick=94, channel=9, data=[36, 0]),
   midi.NoteOnEvent(tick=0, channel=9, data=[38, 0]),
   midi.NoteOnEvent(tick=2, channel=9, data=[38, 110]),
   midi.NoteOnEvent(tick=46, channel=9, data=[38, 0]),
   midi.NoteOnEvent(tick=2, channel=9, data=[38, 110]),
   midi.NoteOnEvent(tick=46, channel=9, data=[38, 0]),
   midi.NoteOnEvent(tick=2, channel=9, data=[36, 110]),
   midi.NoteOnEvent(tick=0, channel=9, data=[38, 110]),
   midi.NoteOnEvent(tick=94, channel=9, data=[36, 0]),
   midi.NoteOnEvent(tick=0, channel=9, data=[38, 0]),
   midi.NoteOnEvent(tick=2, channel=9, data=[38, 110]),
   midi.NoteOnEvent(tick=94, channel=9, data=[38, 0]),
   midi.NoteOnEvent(tick=2, channel=9, data=[36, 110]),
   midi.NoteOnEvent(tick=0, channel=9, data=[38, 110]),
   midi.NoteOnEvent(tick=94, channel=9, data=[36, 0]),
   midi.NoteOnEvent(tick=0, channel=9, data=[38, 0]),
   midi.NoteOnEvent(tick=2, channel=9, data=[38, 110]),
   midi.NoteOnEvent(tick=94, channel=9, data=[38, 0]),
   midi.NoteOnEvent(tick=2, channel=9, data=[36, 110]),
   midi.NoteOnEvent(tick=0, channel=9, data=[38, 110]),
   midi.NoteOnEvent(tick=94, channel=9, data=[36, 0]),
   midi.NoteOnEvent(tick=0, channel=9, data=[38, 0]),
   midi.NoteOnEvent(tick=2, channel=9, data=[36, 110]),
   midi.NoteOnEvent(tick=0, channel=9, data=[38, 110]),
   midi.NoteOnEvent(tick=0, channel=9, data=[49, 110]),
   midi.NoteOnEvent(tick=94, channel=9, data=[36, 0]),
   midi.NoteOnEvent(tick=0, channel=9, data=[38, 0]),
   midi.NoteOnEvent(tick=0, channel=9, data=[49, 0]),
   midi.NoteOnEvent(tick=2, channel=9, data=[42, 110]),
   midi.NoteOnEvent(tick=94, channel=9, data=[42, 0]),
   midi.NoteOnEvent(tick=2, channel=9, data=[36, 110]),
   midi.NoteOnEvent(tick=0, channel=9, data=[42, 110]),
   midi.NoteOnEvent(tick=94, channel=9, data=[36, 0]),
   midi.NoteOnEvent(tick=0, channel=9, data=[42, 0]),
   midi.NoteOnEvent(tick=2, channel=9, data=[38, 110]),
   midi.NoteOnEvent(tick=0, channel=9, data=[42, 110]),
   midi.NoteOnEvent(tick=94, channel=9, data=[38, 0]),
   midi.NoteOnEvent(tick=0, channel=9, data=[42, 0]),
   midi.NoteOnEvent(tick=2, channel=9, data=[42, 110]),
   midi.NoteOnEvent(tick=94, channel=9, data=[42, 0]),
   midi.NoteOnEvent(tick=2, channel=9, data=[36, 110]),
   midi.NoteOnEvent(tick=0, channel=9, data=[42, 110]),
   midi.NoteOnEvent(tick=94, channel=9, data=[36, 0]),
   midi.NoteOnEvent(tick=0, channel=9, data=[42, 0]),
   midi.NoteOnEvent(tick=2, channel=9, data=[42, 110]),
   midi.NoteOnEvent(tick=94, channel=9, data=[42, 0]),
   midi.NoteOnEvent(tick=2, channel=9, data=[38, 110]),
   midi.NoteOnEvent(tick=0, channel=9, data=[42, 110]),
   midi.NoteOnEvent(tick=94, channel=9, data=[38, 0]),
   midi.NoteOnEvent(tick=0, channel=9, data=[42, 0]),
   midi.NoteOnEvent(tick=2, channel=9, data=[42, 110]),
   midi.NoteOnEvent(tick=94, channel=9, data=[42, 0]),
   midi.NoteOnEvent(tick=2, channel=9, data=[42, 110]),
   midi.NoteOnEvent(tick=94, channel=9, data=[42, 0]),
   midi.NoteOnEvent(tick=2, channel=9, data=[36, 110]),
   midi.NoteOnEvent(tick=0, channel=9, data=[42, 110]),
   midi.NoteOnEvent(tick=94, channel=9, data=[36, 0]),
   midi.NoteOnEvent(tick=0, channel=9, data=[42, 0]),
   midi.NoteOnEvent(tick=2, channel=9, data=[38, 110]),
   midi.NoteOnEvent(tick=0, channel=9, data=[42, 110]),
   midi.NoteOnEvent(tick=94, channel=9, data=[38, 0]),
   midi.NoteOnEvent(tick=0, channel=9, data=[42, 0]),
   midi.NoteOnEvent(tick=2, channel=9, data=[42, 110]),
   midi.NoteOnEvent(tick=94, channel=9, data=[42, 0]),
   midi.NoteOnEvent(tick=2, channel=9, data=[36, 110]),
   midi.NoteOnEvent(tick=0, channel=9, data=[42, 110]),
   midi.NoteOnEvent(tick=94, channel=9, data=[36, 0]),
   midi.NoteOnEvent(tick=0, channel=9, data=[42, 0]),
   midi.NoteOnEvent(tick=2, channel=9, data=[42, 110]),
   midi.NoteOnEvent(tick=94, channel=9, data=[42, 0]),
   midi.NoteOnEvent(tick=2, channel=9, data=[38, 110]),
   midi.NoteOnEvent(tick=0, channel=9, data=[42, 110]),
   midi.NoteOnEvent(tick=94, channel=9, data=[38, 0]),
   midi.NoteOnEvent(tick=0, channel=9, data=[42, 0]),
   midi.NoteOnEvent(tick=2, channel=9, data=[42, 110]),
   midi.NoteOnEvent(tick=94, channel=9, data=[42, 0]),
   midi.NoteOnEvent(tick=2, channel=9, data=[42, 110]),
   midi.NoteOnEvent(tick=94, channel=9, data=[42, 0]),
   midi.NoteOnEvent(tick=2, channel=9, data=[36, 110]),
   midi.NoteOnEvent(tick=0, channel=9, data=[42, 110]),
   midi.NoteOnEvent(tick=94, channel=9, data=[36, 0]),
   midi.NoteOnEvent(tick=0, channel=9, data=[42, 0]),
   midi.NoteOnEvent(tick=2, channel=9, data=[38, 110]),
   midi.NoteOnEvent(tick=0, channel=9, data=[42, 110]),
   midi.NoteOnEvent(tick=94, channel=9, data=[38, 0]),
   midi.NoteOnEvent(tick=0, channel=9, data=[42, 0]),
   midi.NoteOnEvent(tick=2, channel=9, data=[42, 110]),
   midi.NoteOnEvent(tick=94, channel=9, data=[42, 0]),
   midi.NoteOnEvent(tick=2, channel=9, data=[36, 110]),
   midi.NoteOnEvent(tick=0, channel=9, data=[42, 110]),
   midi.NoteOnEvent(tick=94, channel=9, data=[36, 0]),
   midi.NoteOnEvent(tick=0, channel=9, data=[42, 0]),
   midi.NoteOnEvent(tick=2, channel=9, data=[42, 110]),
   midi.NoteOnEvent(tick=94, channel=9, data=[42, 0]),
   midi.NoteOnEvent(tick=2, channel=9, data=[38, 110]),
   midi.NoteOnEvent(tick=0, channel=9, data=[42, 110]),
   midi.NoteOnEvent(tick=94, channel=9, data=[38, 0]),
   midi.NoteOnEvent(tick=0, channel=9, data=[42, 0]),
   midi.NoteOnEvent(tick=2, channel=9, data=[42, 110]),
   midi.NoteOnEvent(tick=94, channel=9, data=[42, 0]),
   midi.NoteOnEvent(tick=2, channel=9, data=[36, 110]),
   midi.NoteOnEvent(tick=0, channel=9, data=[38, 110]),
   midi.NoteOnEvent(tick=94, channel=9, data=[36, 0]),
   midi.NoteOnEvent(tick=0, channel=9, data=[38, 0]),
   midi.NoteOnEvent(tick=2, channel=9, data=[38, 110]),
   midi.NoteOnEvent(tick=46, channel=9, data=[38, 0]),
   midi.NoteOnEvent(tick=2, channel=9, data=[38, 110]),
   midi.NoteOnEvent(tick=46, channel=9, data=[38, 0]),
   midi.NoteOnEvent(tick=2, channel=9, data=[36, 110]),
   midi.NoteOnEvent(tick=0, channel=9, data=[38, 110]),
   midi.NoteOnEvent(tick=94, channel=9, data=[36, 0]),
   midi.NoteOnEvent(tick=0, channel=9, data=[38, 0]),
   midi.NoteOnEvent(tick=2, channel=9, data=[38, 110]),
   midi.NoteOnEvent(tick=94, channel=9, data=[38, 0]),
   midi.NoteOnEvent(tick=2, channel=9, data=[36, 110]),
   midi.NoteOnEvent(tick=0, channel=9, data=[38, 110]),
   midi.NoteOnEvent(tick=94, channel=9, data=[36, 0]),
   midi.NoteOnEvent(tick=0, channel=9, data=[38, 0]),
   midi.NoteOnEvent(tick=2, channel=9, data=[38, 110]),
   midi.NoteOnEvent(tick=94, channel=9, data=[38, 0]),
   midi.NoteOnEvent(tick=2, channel=9, data=[36, 110]),
   midi.NoteOnEvent(tick=0, channel=9, data=[38, 110]),
   midi.NoteOnEvent(tick=94, channel=9, data=[36, 0]),
   midi.NoteOnEvent(tick=0, channel=9, data=[38, 0]),
   midi.NoteOnEvent(tick=2, channel=9, data=[36, 110]),
   midi.NoteOnEvent(tick=0, channel=9, data=[38, 110]),
   midi.NoteOnEvent(tick=0, channel=9, data=[49, 110]),
   midi.NoteOnEvent(tick=94, channel=9, data=[36, 0]),
   midi.NoteOnEvent(tick=0, channel=9, data=[38, 0]),
   midi.NoteOnEvent(tick=0, channel=9, data=[49, 0]),
   midi.NoteOnEvent(tick=2, channel=9, data=[42, 110]),
   midi.NoteOnEvent(tick=94, channel=9, data=[42, 0]),
   midi.NoteOnEvent(tick=2, channel=9, data=[36, 110]),
   midi.NoteOnEvent(tick=0, channel=9, data=[42, 110]),
   midi.NoteOnEvent(tick=94, channel=9, data=[36, 0]),
   midi.NoteOnEvent(tick=0, channel=9, data=[42, 0]),
   midi.NoteOnEvent(tick=2, channel=9, data=[38, 110]),
   midi.NoteOnEvent(tick=0, channel=9, data=[42, 110]),
   midi.NoteOnEvent(tick=94, channel=9, data=[38, 0]),
   midi.NoteOnEvent(tick=0, channel=9, data=[42, 0]),
   midi.NoteOnEvent(tick=2, channel=9, data=[42, 110]),
   midi.NoteOnEvent(tick=94, channel=9, data=[42, 0]),
   midi.NoteOnEvent(tick=2, channel=9, data=[36, 110]),
   midi.NoteOnEvent(tick=0, channel=9, data=[42, 110]),
   midi.NoteOnEvent(tick=94, channel=9, data=[36, 0]),
   midi.NoteOnEvent(tick=0, channel=9, data=[42, 0]),
   midi.NoteOnEvent(tick=2, channel=9, data=[42, 110]),
   midi.NoteOnEvent(tick=94, channel=9, data=[42, 0]),
   midi.NoteOnEvent(tick=2, channel=9, data=[38, 110]),
   midi.NoteOnEvent(tick=0, channel=9, data=[42, 110]),
   midi.NoteOnEvent(tick=94, channel=9, data=[38, 0]),
   midi.NoteOnEvent(tick=0, channel=9, data=[42, 0]),
   midi.NoteOnEvent(tick=2, channel=9, data=[42, 110]),
   midi.NoteOnEvent(tick=94, channel=9, data=[42, 0]),
   midi.NoteOnEvent(tick=2, channel=9, data=[42, 110]),
   midi.NoteOnEvent(tick=94, channel=9, data=[42, 0]),
   midi.NoteOnEvent(tick=2, channel=9, data=[36, 110]),
   midi.NoteOnEvent(tick=0, channel=9, data=[42, 110]),
   midi.NoteOnEvent(tick=94, channel=9, data=[36, 0]),
   midi.NoteOnEvent(tick=0, channel=9, data=[42, 0]),
   midi.NoteOnEvent(tick=2, channel=9, data=[38, 110]),
   midi.NoteOnEvent(tick=0, channel=9, data=[42, 110]),
   midi.NoteOnEvent(tick=94, channel=9, data=[38, 0]),
   midi.NoteOnEvent(tick=0, channel=9, data=[42, 0]),
   midi.NoteOnEvent(tick=2, channel=9, data=[42, 110]),
   midi.NoteOnEvent(tick=94, channel=9, data=[42, 0]),
   midi.NoteOnEvent(tick=2, channel=9, data=[36, 110]),
   midi.NoteOnEvent(tick=0, channel=9, data=[42, 110]),
   midi.NoteOnEvent(tick=94, channel=9, data=[36, 0]),
   midi.NoteOnEvent(tick=0, channel=9, data=[42, 0]),
   midi.NoteOnEvent(tick=2, channel=9, data=[42, 110]),
   midi.NoteOnEvent(tick=94, channel=9, data=[42, 0]),
   midi.NoteOnEvent(tick=2, channel=9, data=[38, 110]),
   midi.NoteOnEvent(tick=0, channel=9, data=[42, 110]),
   midi.NoteOnEvent(tick=94, channel=9, data=[38, 0]),
   midi.NoteOnEvent(tick=0, channel=9, data=[42, 0]),
   midi.NoteOnEvent(tick=2, channel=9, data=[42, 110]),
   midi.NoteOnEvent(tick=94, channel=9, data=[42, 0]),
   midi.NoteOnEvent(tick=2, channel=9, data=[42, 110]),
   midi.NoteOnEvent(tick=94, channel=9, data=[42, 0]),
   midi.NoteOnEvent(tick=2, channel=9, data=[36, 110]),
   midi.NoteOnEvent(tick=0, channel=9, data=[42, 110]),
   midi.NoteOnEvent(tick=94, channel=9, data=[36, 0]),
   midi.NoteOnEvent(tick=0, channel=9, data=[42, 0]),
   midi.NoteOnEvent(tick=2, channel=9, data=[38, 110]),
   midi.NoteOnEvent(tick=0, channel=9, data=[42, 110]),
   midi.NoteOnEvent(tick=94, channel=9, data=[38, 0]),
   midi.NoteOnEvent(tick=0, channel=9, data=[42, 0]),
   midi.NoteOnEvent(tick=2, channel=9, data=[42, 110]),
   midi.NoteOnEvent(tick=94, channel=9, data=[42, 0]),
   midi.NoteOnEvent(tick=2, channel=9, data=[36, 110]),
   midi.NoteOnEvent(tick=0, channel=9, data=[42, 110]),
   midi.NoteOnEvent(tick=94, channel=9, data=[36, 0]),
   midi.NoteOnEvent(tick=0, channel=9, data=[42, 0]),
   midi.NoteOnEvent(tick=2, channel=9, data=[42, 110]),
   midi.NoteOnEvent(tick=94, channel=9, data=[42, 0]),
   midi.NoteOnEvent(tick=2, channel=9, data=[38, 110]),
   midi.NoteOnEvent(tick=0, channel=9, data=[42, 110]),
   midi.NoteOnEvent(tick=94, channel=9, data=[38, 0]),
   midi.NoteOnEvent(tick=0, channel=9, data=[42, 0]),
   midi.NoteOnEvent(tick=2, channel=9, data=[42, 110]),
   midi.NoteOnEvent(tick=94, channel=9, data=[42, 0]),
   midi.NoteOnEvent(tick=2, channel=9, data=[36, 110]),
   midi.NoteOnEvent(tick=0, channel=9, data=[38, 110]),
   midi.NoteOnEvent(tick=94, channel=9, data=[36, 0]),
   midi.NoteOnEvent(tick=0, channel=9, data=[38, 0]),
   midi.NoteOnEvent(tick=2, channel=9, data=[38, 110]),
   midi.NoteOnEvent(tick=46, channel=9, data=[38, 0]),
   midi.NoteOnEvent(tick=2, channel=9, data=[38, 110]),
   midi.NoteOnEvent(tick=46, channel=9, data=[38, 0]),
   midi.NoteOnEvent(tick=2, channel=9, data=[36, 110]),
   midi.NoteOnEvent(tick=0, channel=9, data=[38, 110]),
   midi.NoteOnEvent(tick=94, channel=9, data=[36, 0]),
   midi.NoteOnEvent(tick=0, channel=9, data=[38, 0]),
   midi.NoteOnEvent(tick=2, channel=9, data=[38, 110]),
   midi.NoteOnEvent(tick=94, channel=9, data=[38, 0]),
   midi.NoteOnEvent(tick=2, channel=9, data=[36, 110]),
   midi.NoteOnEvent(tick=0, channel=9, data=[38, 110]),
   midi.NoteOnEvent(tick=94, channel=9, data=[36, 0]),
   midi.NoteOnEvent(tick=0, channel=9, data=[38, 0]),
   midi.NoteOnEvent(tick=2, channel=9, data=[38, 110]),
   midi.NoteOnEvent(tick=94, channel=9, data=[38, 0]),
   midi.NoteOnEvent(tick=2, channel=9, data=[36, 110]),
   midi.NoteOnEvent(tick=0, channel=9, data=[38, 110]),
   midi.NoteOnEvent(tick=94, channel=9, data=[36, 0]),
   midi.NoteOnEvent(tick=0, channel=9, data=[38, 0]),
   midi.NoteOnEvent(tick=2, channel=9, data=[36, 110]),
   midi.NoteOnEvent(tick=0, channel=9, data=[38, 110]),
   midi.NoteOnEvent(tick=0, channel=9, data=[49, 110]),
   midi.NoteOnEvent(tick=94, channel=9, data=[36, 0]),
   midi.NoteOnEvent(tick=0, channel=9, data=[38, 0]),
   midi.NoteOnEvent(tick=0, channel=9, data=[49, 0]),
   midi.NoteOnEvent(tick=2, channel=9, data=[42, 110]),
   midi.NoteOnEvent(tick=94, channel=9, data=[42, 0]),
   midi.NoteOnEvent(tick=2, channel=9, data=[36, 110]),
   midi.NoteOnEvent(tick=0, channel=9, data=[42, 110]),
   midi.NoteOnEvent(tick=94, channel=9, data=[36, 0]),
   midi.NoteOnEvent(tick=0, channel=9, data=[42, 0]),
   midi.NoteOnEvent(tick=2, channel=9, data=[38, 110]),
   midi.NoteOnEvent(tick=0, channel=9, data=[42, 110]),
   midi.NoteOnEvent(tick=94, channel=9, data=[38, 0]),
   midi.NoteOnEvent(tick=0, channel=9, data=[42, 0]),
   midi.NoteOnEvent(tick=2, channel=9, data=[42, 110]),
   midi.NoteOnEvent(tick=94, channel=9, data=[42, 0]),
   midi.NoteOnEvent(tick=2, channel=9, data=[36, 110]),
   midi.NoteOnEvent(tick=0, channel=9, data=[42, 110]),
   midi.NoteOnEvent(tick=94, channel=9, data=[36, 0]),
   midi.NoteOnEvent(tick=0, channel=9, data=[42, 0]),
   midi.NoteOnEvent(tick=2, channel=9, data=[42, 110]),
   midi.NoteOnEvent(tick=94, channel=9, data=[42, 0]),
   midi.NoteOnEvent(tick=2, channel=9, data=[38, 110]),
   midi.NoteOnEvent(tick=0, channel=9, data=[42, 110]),
   midi.NoteOnEvent(tick=94, channel=9, data=[38, 0]),
   midi.NoteOnEvent(tick=0, channel=9, data=[42, 0]),
   midi.NoteOnEvent(tick=2, channel=9, data=[42, 110]),
   midi.NoteOnEvent(tick=94, channel=9, data=[42, 0]),
   midi.NoteOnEvent(tick=2, channel=9, data=[42, 110]),
   midi.NoteOnEvent(tick=94, channel=9, data=[42, 0]),
   midi.NoteOnEvent(tick=2, channel=9, data=[36, 110]),
   midi.NoteOnEvent(tick=0, channel=9, data=[42, 110]),
   midi.NoteOnEvent(tick=94, channel=9, data=[36, 0]),
   midi.NoteOnEvent(tick=0, channel=9, data=[42, 0]),
   midi.NoteOnEvent(tick=2, channel=9, data=[38, 110]),
   midi.NoteOnEvent(tick=0, channel=9, data=[42, 110]),
   midi.NoteOnEvent(tick=94, channel=9, data=[38, 0]),
   midi.NoteOnEvent(tick=0, channel=9, data=[42, 0]),
   midi.NoteOnEvent(tick=2, channel=9, data=[42, 110]),
   midi.NoteOnEvent(tick=94, channel=9, data=[42, 0]),
   midi.NoteOnEvent(tick=2, channel=9, data=[36, 110]),
   midi.NoteOnEvent(tick=0, channel=9, data=[42, 110]),
   midi.NoteOnEvent(tick=94, channel=9, data=[36, 0]),
   midi.NoteOnEvent(tick=0, channel=9, data=[42, 0]),
   midi.NoteOnEvent(tick=2, channel=9, data=[42, 110]),
   midi.NoteOnEvent(tick=94, channel=9, data=[42, 0]),
   midi.NoteOnEvent(tick=2, channel=9, data=[38, 110]),
   midi.NoteOnEvent(tick=0, channel=9, data=[42, 110]),
   midi.NoteOnEvent(tick=94, channel=9, data=[38, 0]),
   midi.NoteOnEvent(tick=0, channel=9, data=[42, 0]),
   midi.NoteOnEvent(tick=2, channel=9, data=[42, 110]),
   midi.NoteOnEvent(tick=94, channel=9, data=[42, 0]),
   midi.NoteOnEvent(tick=2, channel=9, data=[42, 110]),
   midi.NoteOnEvent(tick=94, channel=9, data=[42, 0]),
   midi.NoteOnEvent(tick=2, channel=9, data=[36, 110]),
   midi.NoteOnEvent(tick=0, channel=9, data=[42, 110]),
   midi.NoteOnEvent(tick=94, channel=9, data=[36, 0]),
   midi.NoteOnEvent(tick=0, channel=9, data=[42, 0]),
   midi.NoteOnEvent(tick=2, channel=9, data=[38, 110]),
   midi.NoteOnEvent(tick=0, channel=9, data=[42, 110]),
   midi.NoteOnEvent(tick=94, channel=9, data=[38, 0]),
   midi.NoteOnEvent(tick=0, channel=9, data=[42, 0]),
   midi.NoteOnEvent(tick=2, channel=9, data=[42, 110]),
   midi.NoteOnEvent(tick=94, channel=9, data=[42, 0]),
   midi.NoteOnEvent(tick=2, channel=9, data=[36, 110]),
   midi.NoteOnEvent(tick=0, channel=9, data=[42, 110]),
   midi.NoteOnEvent(tick=94, channel=9, data=[36, 0]),
   midi.NoteOnEvent(tick=0, channel=9, data=[42, 0]),
   midi.NoteOnEvent(tick=2, channel=9, data=[42, 110]),
   midi.NoteOnEvent(tick=94, channel=9, data=[42, 0]),
   midi.NoteOnEvent(tick=2, channel=9, data=[38, 110]),
   midi.NoteOnEvent(tick=0, channel=9, data=[42, 110]),
   midi.NoteOnEvent(tick=94, channel=9, data=[38, 0]),
   midi.NoteOnEvent(tick=0, channel=9, data=[42, 0]),
   midi.NoteOnEvent(tick=2, channel=9, data=[42, 110]),
   midi.NoteOnEvent(tick=94, channel=9, data=[42, 0]),
   midi.NoteOnEvent(tick=2, channel=9, data=[36, 110]),
   midi.NoteOnEvent(tick=0, channel=9, data=[38, 110]),
   midi.NoteOnEvent(tick=94, channel=9, data=[36, 0]),
   midi.NoteOnEvent(tick=0, channel=9, data=[38, 0]),
   midi.NoteOnEvent(tick=2, channel=9, data=[38, 110]),
   midi.NoteOnEvent(tick=46, channel=9, data=[38, 0]),
   midi.NoteOnEvent(tick=2, channel=9, data=[38, 110]),
   midi.NoteOnEvent(tick=46, channel=9, data=[38, 0]),
   midi.NoteOnEvent(tick=2, channel=9, data=[36, 110]),
   midi.NoteOnEvent(tick=0, channel=9, data=[38, 110]),
   midi.NoteOnEvent(tick=94, channel=9, data=[36, 0]),
   midi.NoteOnEvent(tick=0, channel=9, data=[38, 0]),
   midi.NoteOnEvent(tick=2, channel=9, data=[38, 110]),
   midi.NoteOnEvent(tick=94, channel=9, data=[38, 0]),
   midi.NoteOnEvent(tick=2, channel=9, data=[36, 110]),
   midi.NoteOnEvent(tick=0, channel=9, data=[38, 110]),
   midi.NoteOnEvent(tick=94, channel=9, data=[36, 0]),
   midi.NoteOnEvent(tick=0, channel=9, data=[38, 0]),
   midi.NoteOnEvent(tick=2, channel=9, data=[38, 110]),
   midi.NoteOnEvent(tick=94, channel=9, data=[38, 0]),
   midi.NoteOnEvent(tick=2, channel=9, data=[36, 110]),
   midi.NoteOnEvent(tick=0, channel=9, data=[38, 110]),
   midi.NoteOnEvent(tick=94, channel=9, data=[36, 0]),
   midi.NoteOnEvent(tick=0, channel=9, data=[38, 0]),
   midi.NoteOnEvent(tick=2, channel=9, data=[36, 110]),
   midi.NoteOnEvent(tick=0, channel=9, data=[38, 110]),
   midi.NoteOnEvent(tick=0, channel=9, data=[49, 110]),
   midi.NoteOnEvent(tick=94, channel=9, data=[36, 0]),
   midi.NoteOnEvent(tick=0, channel=9, data=[38, 0]),
   midi.NoteOnEvent(tick=0, channel=9, data=[49, 0]),
   midi.NoteOnEvent(tick=2, channel=9, data=[42, 110]),
   midi.NoteOnEvent(tick=94, channel=9, data=[42, 0]),
   midi.NoteOnEvent(tick=2, channel=9, data=[36, 110]),
   midi.NoteOnEvent(tick=0, channel=9, data=[42, 110]),
   midi.NoteOnEvent(tick=94, channel=9, data=[36, 0]),
   midi.NoteOnEvent(tick=0, channel=9, data=[42, 0]),
   midi.NoteOnEvent(tick=2, channel=9, data=[38, 110]),
   midi.NoteOnEvent(tick=0, channel=9, data=[42, 110]),
   midi.NoteOnEvent(tick=94, channel=9, data=[38, 0]),
   midi.NoteOnEvent(tick=0, channel=9, data=[42, 0]),
   midi.NoteOnEvent(tick=2, channel=9, data=[42, 110]),
   midi.NoteOnEvent(tick=94, channel=9, data=[42, 0]),
   midi.NoteOnEvent(tick=2, channel=9, data=[36, 110]),
   midi.NoteOnEvent(tick=0, channel=9, data=[42, 110]),
   midi.NoteOnEvent(tick=94, channel=9, data=[36, 0]),
   midi.NoteOnEvent(tick=0, channel=9, data=[42, 0]),
   midi.NoteOnEvent(tick=2, channel=9, data=[42, 110]),
   midi.NoteOnEvent(tick=94, channel=9, data=[42, 0]),
   midi.NoteOnEvent(tick=2, channel=9, data=[38, 110]),
   midi.NoteOnEvent(tick=0, channel=9, data=[42, 110]),
   midi.NoteOnEvent(tick=94, channel=9, data=[38, 0]),
   midi.NoteOnEvent(tick=0, channel=9, data=[42, 0]),
   midi.NoteOnEvent(tick=2, channel=9, data=[42, 110]),
   midi.NoteOnEvent(tick=94, channel=9, data=[42, 0]),
   midi.NoteOnEvent(tick=2, channel=9, data=[42, 110]),
   midi.NoteOnEvent(tick=94, channel=9, data=[42, 0]),
   midi.NoteOnEvent(tick=2, channel=9, data=[36, 110]),
   midi.NoteOnEvent(tick=0, channel=9, data=[42, 110]),
   midi.NoteOnEvent(tick=94, channel=9, data=[36, 0]),
   midi.NoteOnEvent(tick=0, channel=9, data=[42, 0]),
   midi.NoteOnEvent(tick=2, channel=9, data=[38, 110]),
   midi.NoteOnEvent(tick=0, channel=9, data=[42, 110]),
   midi.NoteOnEvent(tick=94, channel=9, data=[38, 0]),
   midi.NoteOnEvent(tick=0, channel=9, data=[42, 0]),
   midi.NoteOnEvent(tick=2, channel=9, data=[42, 110]),
   midi.NoteOnEvent(tick=94, channel=9, data=[42, 0]),
   midi.NoteOnEvent(tick=2, channel=9, data=[36, 110]),
   midi.NoteOnEvent(tick=0, channel=9, data=[42, 110]),
   midi.NoteOnEvent(tick=94, channel=9, data=[36, 0]),
   midi.NoteOnEvent(tick=0, channel=9, data=[42, 0]),
   midi.NoteOnEvent(tick=2, channel=9, data=[42, 110]),
   midi.NoteOnEvent(tick=94, channel=9, data=[42, 0]),
   midi.NoteOnEvent(tick=2, channel=9, data=[38, 110]),
   midi.NoteOnEvent(tick=0, channel=9, data=[42, 110]),
   midi.NoteOnEvent(tick=94, channel=9, data=[38, 0]),
   midi.NoteOnEvent(tick=0, channel=9, data=[42, 0]),
   midi.NoteOnEvent(tick=2, channel=9, data=[42, 110]),
   midi.NoteOnEvent(tick=94, channel=9, data=[42, 0]),
   midi.NoteOnEvent(tick=2, channel=9, data=[42, 110]),
   midi.NoteOnEvent(tick=94, channel=9, data=[42, 0]),
   midi.NoteOnEvent(tick=2, channel=9, data=[36, 110]),
   midi.NoteOnEvent(tick=0, channel=9, data=[42, 110]),
   midi.NoteOnEvent(tick=94, channel=9, data=[36, 0]),
   midi.NoteOnEvent(tick=0, channel=9, data=[42, 0]),
   midi.NoteOnEvent(tick=2, channel=9, data=[38, 110]),
   midi.NoteOnEvent(tick=0, channel=9, data=[42, 110]),
   midi.NoteOnEvent(tick=94, channel=9, data=[38, 0]),
   midi.NoteOnEvent(tick=0, channel=9, data=[42, 0]),
   midi.NoteOnEvent(tick=2, channel=9, data=[42, 110]),
   midi.NoteOnEvent(tick=94, channel=9, data=[42, 0]),
   midi.NoteOnEvent(tick=2, channel=9, data=[36, 110]),
   midi.NoteOnEvent(tick=0, channel=9, data=[42, 110]),
   midi.NoteOnEvent(tick=94, channel=9, data=[36, 0]),
   midi.NoteOnEvent(tick=0, channel=9, data=[42, 0]),
   midi.NoteOnEvent(tick=2, channel=9, data=[42, 110]),
   midi.NoteOnEvent(tick=94, channel=9, data=[42, 0]),
   midi.NoteOnEvent(tick=2, channel=9, data=[38, 110]),
   midi.NoteOnEvent(tick=0, channel=9, data=[42, 110]),
   midi.NoteOnEvent(tick=94, channel=9, data=[38, 0]),
   midi.NoteOnEvent(tick=0, channel=9, data=[42, 0]),
   midi.NoteOnEvent(tick=2, channel=9, data=[42, 110]),
   midi.NoteOnEvent(tick=94, channel=9, data=[42, 0]),
   midi.NoteOnEvent(tick=2, channel=9, data=[36, 110]),
   midi.NoteOnEvent(tick=0, channel=9, data=[38, 110]),
   midi.NoteOnEvent(tick=94, channel=9, data=[36, 0]),
   midi.NoteOnEvent(tick=0, channel=9, data=[38, 0]),
   midi.NoteOnEvent(tick=2, channel=9, data=[38, 110]),
   midi.NoteOnEvent(tick=46, channel=9, data=[38, 0]),
   midi.NoteOnEvent(tick=2, channel=9, data=[38, 110]),
   midi.NoteOnEvent(tick=46, channel=9, data=[38, 0]),
   midi.NoteOnEvent(tick=2, channel=9, data=[36, 110]),
   midi.NoteOnEvent(tick=0, channel=9, data=[38, 110]),
   midi.NoteOnEvent(tick=94, channel=9, data=[36, 0]),
   midi.NoteOnEvent(tick=0, channel=9, data=[38, 0]),
   midi.NoteOnEvent(tick=2, channel=9, data=[38, 110]),
   midi.NoteOnEvent(tick=94, channel=9, data=[38, 0]),
   midi.NoteOnEvent(tick=2, channel=9, data=[36, 110]),
   midi.NoteOnEvent(tick=0, channel=9, data=[38, 110]),
   midi.NoteOnEvent(tick=94, channel=9, data=[36, 0]),
   midi.NoteOnEvent(tick=0, channel=9, data=[38, 0]),
   midi.NoteOnEvent(tick=2, channel=9, data=[38, 110]),
   midi.NoteOnEvent(tick=94, channel=9, data=[38, 0]),
   midi.NoteOnEvent(tick=2, channel=9, data=[36, 110]),
   midi.NoteOnEvent(tick=0, channel=9, data=[38, 110]),
   midi.NoteOnEvent(tick=94, channel=9, data=[36, 0]),
   midi.NoteOnEvent(tick=0, channel=9, data=[38, 0]),
   midi.NoteOnEvent(tick=2, channel=9, data=[36, 110]),
   midi.NoteOnEvent(tick=0, channel=9, data=[38, 110]),
   midi.NoteOnEvent(tick=0, channel=9, data=[49, 110]),
   midi.NoteOnEvent(tick=94, channel=9, data=[36, 0]),
   midi.NoteOnEvent(tick=0, channel=9, data=[38, 0]),
   midi.NoteOnEvent(tick=0, channel=9, data=[49, 0]),
   midi.NoteOnEvent(tick=2, channel=9, data=[42, 110]),
   midi.NoteOnEvent(tick=94, channel=9, data=[42, 0]),
   midi.NoteOnEvent(tick=2, channel=9, data=[36, 110]),
   midi.NoteOnEvent(tick=0, channel=9, data=[42, 110]),
   midi.NoteOnEvent(tick=94, channel=9, data=[36, 0]),
   midi.NoteOnEvent(tick=0, channel=9, data=[42, 0]),
   midi.NoteOnEvent(tick=2, channel=9, data=[38, 110]),
   midi.NoteOnEvent(tick=0, channel=9, data=[42, 110]),
   midi.NoteOnEvent(tick=94, channel=9, data=[38, 0]),
   midi.NoteOnEvent(tick=0, channel=9, data=[42, 0]),
   midi.NoteOnEvent(tick=2, channel=9, data=[42, 110]),
   midi.NoteOnEvent(tick=94, channel=9, data=[42, 0]),
   midi.NoteOnEvent(tick=2, channel=9, data=[36, 110]),
   midi.NoteOnEvent(tick=0, channel=9, data=[42, 110]),
   midi.NoteOnEvent(tick=94, channel=9, data=[36, 0]),
   midi.NoteOnEvent(tick=0, channel=9, data=[42, 0]),
   midi.NoteOnEvent(tick=2, channel=9, data=[42, 110]),
   midi.NoteOnEvent(tick=94, channel=9, data=[42, 0]),
   midi.NoteOnEvent(tick=2, channel=9, data=[38, 110]),
   midi.NoteOnEvent(tick=0, channel=9, data=[42, 110]),
   midi.NoteOnEvent(tick=94, channel=9, data=[38, 0]),
   midi.NoteOnEvent(tick=0, channel=9, data=[42, 0]),
   midi.NoteOnEvent(tick=2, channel=9, data=[42, 110]),
   midi.NoteOnEvent(tick=94, channel=9, data=[42, 0]),
   midi.NoteOnEvent(tick=2, channel=9, data=[42, 110]),
   midi.NoteOnEvent(tick=94, channel=9, data=[42, 0]),
   midi.NoteOnEvent(tick=2, channel=9, data=[36, 110]),
   midi.NoteOnEvent(tick=0, channel=9, data=[42, 110]),
   midi.NoteOnEvent(tick=94, channel=9, data=[36, 0]),
   midi.NoteOnEvent(tick=0, channel=9, data=[42, 0]),
   midi.NoteOnEvent(tick=2, channel=9, data=[38, 110]),
   midi.NoteOnEvent(tick=0, channel=9, data=[42, 110]),
   midi.NoteOnEvent(tick=94, channel=9, data=[38, 0]),
   midi.NoteOnEvent(tick=0, channel=9, data=[42, 0]),
   midi.NoteOnEvent(tick=2, channel=9, data=[42, 110]),
   midi.NoteOnEvent(tick=94, channel=9, data=[42, 0]),
   midi.NoteOnEvent(tick=2, channel=9, data=[36, 110]),
   midi.NoteOnEvent(tick=0, channel=9, data=[42, 110]),
   midi.NoteOnEvent(tick=94, channel=9, data=[36, 0]),
   midi.NoteOnEvent(tick=0, channel=9, data=[42, 0]),
   midi.NoteOnEvent(tick=2, channel=9, data=[42, 110]),
   midi.NoteOnEvent(tick=94, channel=9, data=[42, 0]),
   midi.NoteOnEvent(tick=2, channel=9, data=[38, 110]),
   midi.NoteOnEvent(tick=0, channel=9, data=[42, 110]),
   midi.NoteOnEvent(tick=94, channel=9, data=[38, 0]),
   midi.NoteOnEvent(tick=0, channel=9, data=[42, 0]),
   midi.NoteOnEvent(tick=2, channel=9, data=[42, 110]),
   midi.NoteOnEvent(tick=94, channel=9, data=[42, 0]),
   midi.NoteOnEvent(tick=2, channel=9, data=[42, 110]),
   midi.NoteOnEvent(tick=94, channel=9, data=[42, 0]),
   midi.NoteOnEvent(tick=2, channel=9, data=[36, 110]),
   midi.NoteOnEvent(tick=0, channel=9, data=[42, 110]),
   midi.NoteOnEvent(tick=94, channel=9, data=[36, 0]),
   midi.NoteOnEvent(tick=0, channel=9, data=[42, 0]),
   midi.NoteOnEvent(tick=2, channel=9, data=[38, 110]),
   midi.NoteOnEvent(tick=0, channel=9, data=[42, 110]),
   midi.NoteOnEvent(tick=94, channel=9, data=[38, 0]),
   midi.NoteOnEvent(tick=0, channel=9, data=[42, 0]),
   midi.NoteOnEvent(tick=2, channel=9, data=[42, 110]),
   midi.NoteOnEvent(tick=94, channel=9, data=[42, 0]),
   midi.NoteOnEvent(tick=2, channel=9, data=[36, 110]),
   midi.NoteOnEvent(tick=0, channel=9, data=[42, 110]),
   midi.NoteOnEvent(tick=94, channel=9, data=[36, 0]),
   midi.NoteOnEvent(tick=0, channel=9, data=[42, 0]),
   midi.NoteOnEvent(tick=2, channel=9, data=[42, 110]),
   midi.NoteOnEvent(tick=94, channel=9, data=[42, 0]),
   midi.NoteOnEvent(tick=2, channel=9, data=[38, 110]),
   midi.NoteOnEvent(tick=0, channel=9, data=[42, 110]),
   midi.NoteOnEvent(tick=94, channel=9, data=[38, 0]),
   midi.NoteOnEvent(tick=0, channel=9, data=[42, 0]),
   midi.NoteOnEvent(tick=2, channel=9, data=[42, 110]),
   midi.NoteOnEvent(tick=94, channel=9, data=[42, 0]),
   midi.NoteOnEvent(tick=2, channel=9, data=[36, 110]),
   midi.NoteOnEvent(tick=0, channel=9, data=[38, 110]),
   midi.NoteOnEvent(tick=94, channel=9, data=[36, 0]),
   midi.NoteOnEvent(tick=0, channel=9, data=[38, 0]),
   midi.NoteOnEvent(tick=2, channel=9, data=[38, 110]),
   midi.NoteOnEvent(tick=46, channel=9, data=[38, 0]),
   midi.NoteOnEvent(tick=2, channel=9, data=[38, 110]),
   midi.NoteOnEvent(tick=46, channel=9, data=[38, 0]),
   midi.NoteOnEvent(tick=2, channel=9, data=[36, 110]),
   midi.NoteOnEvent(tick=0, channel=9, data=[38, 110]),
   midi.NoteOnEvent(tick=94, channel=9, data=[36, 0]),
   midi.NoteOnEvent(tick=0, channel=9, data=[38, 0]),
   midi.NoteOnEvent(tick=2, channel=9, data=[38, 110]),
   midi.NoteOnEvent(tick=94, channel=9, data=[38, 0]),
   midi.NoteOnEvent(tick=2, channel=9, data=[36, 110]),
   midi.NoteOnEvent(tick=0, channel=9, data=[38, 110]),
   midi.NoteOnEvent(tick=94, channel=9, data=[36, 0]),
   midi.NoteOnEvent(tick=0, channel=9, data=[38, 0]),
   midi.NoteOnEvent(tick=2, channel=9, data=[38, 110]),
   midi.NoteOnEvent(tick=94, channel=9, data=[38, 0]),
   midi.NoteOnEvent(tick=2, channel=9, data=[36, 110]),
   midi.NoteOnEvent(tick=0, channel=9, data=[38, 110]),
   midi.NoteOnEvent(tick=94, channel=9, data=[36, 0]),
   midi.NoteOnEvent(tick=0, channel=9, data=[38, 0]),
   midi.NoteOnEvent(tick=2, channel=9, data=[36, 110]),
   midi.NoteOnEvent(tick=0, channel=9, data=[38, 110]),
   midi.NoteOnEvent(tick=0, channel=9, data=[49, 110]),
   midi.NoteOnEvent(tick=94, channel=9, data=[36, 0]),
   midi.NoteOnEvent(tick=0, channel=9, data=[38, 0]),
   midi.NoteOnEvent(tick=0, channel=9, data=[49, 0]),
   midi.NoteOnEvent(tick=2, channel=9, data=[42, 110]),
   midi.NoteOnEvent(tick=94, channel=9, data=[42, 0]),
   midi.NoteOnEvent(tick=2, channel=9, data=[36, 110]),
   midi.NoteOnEvent(tick=0, channel=9, data=[42, 110]),
   midi.NoteOnEvent(tick=94, channel=9, data=[36, 0]),
   midi.NoteOnEvent(tick=0, channel=9, data=[42, 0]),
   midi.NoteOnEvent(tick=2, channel=9, data=[38, 110]),
   midi.NoteOnEvent(tick=0, channel=9, data=[42, 110]),
   midi.NoteOnEvent(tick=94, channel=9, data=[38, 0]),
   midi.NoteOnEvent(tick=0, channel=9, data=[42, 0]),
   midi.NoteOnEvent(tick=2, channel=9, data=[42, 110]),
   midi.NoteOnEvent(tick=94, channel=9, data=[42, 0]),
   midi.NoteOnEvent(tick=2, channel=9, data=[36, 110]),
   midi.NoteOnEvent(tick=0, channel=9, data=[42, 110]),
   midi.NoteOnEvent(tick=94, channel=9, data=[36, 0]),
   midi.NoteOnEvent(tick=0, channel=9, data=[42, 0]),
   midi.NoteOnEvent(tick=2, channel=9, data=[42, 110]),
   midi.NoteOnEvent(tick=94, channel=9, data=[42, 0]),
   midi.NoteOnEvent(tick=2, channel=9, data=[38, 110]),
   midi.NoteOnEvent(tick=0, channel=9, data=[42, 110]),
   midi.NoteOnEvent(tick=94, channel=9, data=[38, 0]),
   midi.NoteOnEvent(tick=0, channel=9, data=[42, 0]),
   midi.NoteOnEvent(tick=2, channel=9, data=[42, 110]),
   midi.NoteOnEvent(tick=94, channel=9, data=[42, 0]),
   midi.NoteOnEvent(tick=2, channel=9, data=[42, 110]),
   midi.NoteOnEvent(tick=94, channel=9, data=[42, 0]),
   midi.NoteOnEvent(tick=2, channel=9, data=[36, 110]),
   midi.NoteOnEvent(tick=0, channel=9, data=[42, 110]),
   midi.NoteOnEvent(tick=94, channel=9, data=[36, 0]),
   midi.NoteOnEvent(tick=0, channel=9, data=[42, 0]),
   midi.NoteOnEvent(tick=2, channel=9, data=[38, 110]),
   midi.NoteOnEvent(tick=0, channel=9, data=[42, 110]),
   midi.NoteOnEvent(tick=94, channel=9, data=[38, 0]),
   midi.NoteOnEvent(tick=0, channel=9, data=[42, 0]),
   midi.NoteOnEvent(tick=2, channel=9, data=[42, 110]),
   midi.NoteOnEvent(tick=94, channel=9, data=[42, 0]),
   midi.NoteOnEvent(tick=2, channel=9, data=[36, 110]),
   midi.NoteOnEvent(tick=0, channel=9, data=[42, 110]),
   midi.NoteOnEvent(tick=94, channel=9, data=[36, 0]),
   midi.NoteOnEvent(tick=0, channel=9, data=[42, 0]),
   midi.NoteOnEvent(tick=2, channel=9, data=[42, 110]),
   midi.NoteOnEvent(tick=94, channel=9, data=[42, 0]),
   midi.NoteOnEvent(tick=2, channel=9, data=[38, 110]),
   midi.NoteOnEvent(tick=0, channel=9, data=[42, 110]),
   midi.NoteOnEvent(tick=94, channel=9, data=[38, 0]),
   midi.NoteOnEvent(tick=0, channel=9, data=[42, 0]),
   midi.NoteOnEvent(tick=2, channel=9, data=[42, 110]),
   midi.NoteOnEvent(tick=94, channel=9, data=[42, 0]),
   midi.NoteOnEvent(tick=2, channel=9, data=[42, 110]),
   midi.NoteOnEvent(tick=94, channel=9, data=[42, 0]),
   midi.NoteOnEvent(tick=2, channel=9, data=[36, 110]),
   midi.NoteOnEvent(tick=0, channel=9, data=[42, 110]),
   midi.NoteOnEvent(tick=94, channel=9, data=[36, 0]),
   midi.NoteOnEvent(tick=0, channel=9, data=[42, 0]),
   midi.NoteOnEvent(tick=2, channel=9, data=[38, 110]),
   midi.NoteOnEvent(tick=0, channel=9, data=[42, 110]),
   midi.NoteOnEvent(tick=94, channel=9, data=[38, 0]),
   midi.NoteOnEvent(tick=0, channel=9, data=[42, 0]),
   midi.NoteOnEvent(tick=2, channel=9, data=[42, 110]),
   midi.NoteOnEvent(tick=94, channel=9, data=[42, 0]),
   midi.NoteOnEvent(tick=2, channel=9, data=[36, 110]),
   midi.NoteOnEvent(tick=0, channel=9, data=[42, 110]),
   midi.NoteOnEvent(tick=94, channel=9, data=[36, 0]),
   midi.NoteOnEvent(tick=0, channel=9, data=[42, 0]),
   midi.NoteOnEvent(tick=2, channel=9, data=[42, 110]),
   midi.NoteOnEvent(tick=94, channel=9, data=[42, 0]),
   midi.NoteOnEvent(tick=2, channel=9, data=[38, 110]),
   midi.NoteOnEvent(tick=0, channel=9, data=[42, 110]),
   midi.NoteOnEvent(tick=94, channel=9, data=[38, 0]),
   midi.NoteOnEvent(tick=0, channel=9, data=[42, 0]),
   midi.NoteOnEvent(tick=2, channel=9, data=[42, 110]),
   midi.NoteOnEvent(tick=94, channel=9, data=[42, 0]),
   midi.NoteOnEvent(tick=2, channel=9, data=[36, 110]),
   midi.NoteOnEvent(tick=0, channel=9, data=[38, 110]),
   midi.NoteOnEvent(tick=94, channel=9, data=[36, 0]),
   midi.NoteOnEvent(tick=0, channel=9, data=[38, 0]),
   midi.NoteOnEvent(tick=2, channel=9, data=[38, 110]),
   midi.NoteOnEvent(tick=46, channel=9, data=[38, 0]),
   midi.NoteOnEvent(tick=2, channel=9, data=[38, 110]),
   midi.NoteOnEvent(tick=46, channel=9, data=[38, 0]),
   midi.NoteOnEvent(tick=2, channel=9, data=[36, 110]),
   midi.NoteOnEvent(tick=0, channel=9, data=[38, 110]),
   midi.NoteOnEvent(tick=94, channel=9, data=[36, 0]),
   midi.NoteOnEvent(tick=0, channel=9, data=[38, 0]),
   midi.NoteOnEvent(tick=2, channel=9, data=[38, 110]),
   midi.NoteOnEvent(tick=94, channel=9, data=[38, 0]),
   midi.NoteOnEvent(tick=2, channel=9, data=[36, 110]),
   midi.NoteOnEvent(tick=0, channel=9, data=[38, 110]),
   midi.NoteOnEvent(tick=94, channel=9, data=[36, 0]),
   midi.NoteOnEvent(tick=0, channel=9, data=[38, 0]),
   midi.NoteOnEvent(tick=2, channel=9, data=[38, 110]),
   midi.NoteOnEvent(tick=94, channel=9, data=[38, 0]),
   midi.NoteOnEvent(tick=2, channel=9, data=[36, 110]),
   midi.NoteOnEvent(tick=0, channel=9, data=[38, 110]),
   midi.NoteOnEvent(tick=94, channel=9, data=[36, 0]),
   midi.NoteOnEvent(tick=0, channel=9, data=[38, 0]),
   midi.NoteOnEvent(tick=2, channel=9, data=[36, 110]),
   midi.NoteOnEvent(tick=0, channel=9, data=[38, 110]),
   midi.NoteOnEvent(tick=0, channel=9, data=[49, 110]),
   midi.NoteOnEvent(tick=94, channel=9, data=[36, 0]),
   midi.NoteOnEvent(tick=0, channel=9, data=[38, 0]),
   midi.NoteOnEvent(tick=0, channel=9, data=[49, 0]),
   midi.NoteOnEvent(tick=2, channel=9, data=[42, 110]),
   midi.NoteOnEvent(tick=94, channel=9, data=[42, 0]),
   midi.NoteOnEvent(tick=2, channel=9, data=[36, 110]),
   midi.NoteOnEvent(tick=0, channel=9, data=[42, 110]),
   midi.NoteOnEvent(tick=94, channel=9, data=[36, 0]),
   midi.NoteOnEvent(tick=0, channel=9, data=[42, 0]),
   midi.NoteOnEvent(tick=2, channel=9, data=[38, 110]),
   midi.NoteOnEvent(tick=0, channel=9, data=[42, 110]),
   midi.NoteOnEvent(tick=94, channel=9, data=[38, 0]),
   midi.NoteOnEvent(tick=0, channel=9, data=[42, 0]),
   midi.NoteOnEvent(tick=2, channel=9, data=[42, 110]),
   midi.NoteOnEvent(tick=94, channel=9, data=[42, 0]),
   midi.NoteOnEvent(tick=2, channel=9, data=[36, 110]),
   midi.NoteOnEvent(tick=0, channel=9, data=[42, 110]),
   midi.NoteOnEvent(tick=94, channel=9, data=[36, 0]),
   midi.NoteOnEvent(tick=0, channel=9, data=[42, 0]),
   midi.NoteOnEvent(tick=2, channel=9, data=[42, 110]),
   midi.NoteOnEvent(tick=94, channel=9, data=[42, 0]),
   midi.NoteOnEvent(tick=2, channel=9, data=[38, 110]),
   midi.NoteOnEvent(tick=0, channel=9, data=[42, 110]),
   midi.NoteOnEvent(tick=94, channel=9, data=[38, 0]),
   midi.NoteOnEvent(tick=0, channel=9, data=[42, 0]),
   midi.NoteOnEvent(tick=2, channel=9, data=[42, 110]),
   midi.NoteOnEvent(tick=94, channel=9, data=[42, 0]),
   midi.NoteOnEvent(tick=2, channel=9, data=[42, 110]),
   midi.NoteOnEvent(tick=94, channel=9, data=[42, 0]),
   midi.NoteOnEvent(tick=2, channel=9, data=[36, 110]),
   midi.NoteOnEvent(tick=0, channel=9, data=[42, 110]),
   midi.NoteOnEvent(tick=94, channel=9, data=[36, 0]),
   midi.NoteOnEvent(tick=0, channel=9, data=[42, 0]),
   midi.NoteOnEvent(tick=2, channel=9, data=[38, 110]),
   midi.NoteOnEvent(tick=0, channel=9, data=[42, 110]),
   midi.NoteOnEvent(tick=94, channel=9, data=[38, 0]),
   midi.NoteOnEvent(tick=0, channel=9, data=[42, 0]),
   midi.NoteOnEvent(tick=2, channel=9, data=[42, 110]),
   midi.NoteOnEvent(tick=94, channel=9, data=[42, 0]),
   midi.NoteOnEvent(tick=2, channel=9, data=[36, 110]),
   midi.NoteOnEvent(tick=0, channel=9, data=[42, 110]),
   midi.NoteOnEvent(tick=94, channel=9, data=[36, 0]),
   midi.NoteOnEvent(tick=0, channel=9, data=[42, 0]),
   midi.NoteOnEvent(tick=2, channel=9, data=[42, 110]),
   midi.NoteOnEvent(tick=94, channel=9, data=[42, 0]),
   midi.NoteOnEvent(tick=2, channel=9, data=[38, 110]),
   midi.NoteOnEvent(tick=0, channel=9, data=[42, 110]),
   midi.NoteOnEvent(tick=94, channel=9, data=[38, 0]),
   midi.NoteOnEvent(tick=0, channel=9, data=[42, 0]),
   midi.NoteOnEvent(tick=2, channel=9, data=[42, 110]),
   midi.NoteOnEvent(tick=94, channel=9, data=[42, 0]),
   midi.NoteOnEvent(tick=2, channel=9, data=[42, 110]),
   midi.NoteOnEvent(tick=94, channel=9, data=[42, 0]),
   midi.NoteOnEvent(tick=2, channel=9, data=[36, 110]),
   midi.NoteOnEvent(tick=0, channel=9, data=[42, 110]),
   midi.NoteOnEvent(tick=94, channel=9, data=[36, 0]),
   midi.NoteOnEvent(tick=0, channel=9, data=[42, 0]),
   midi.NoteOnEvent(tick=2, channel=9, data=[38, 110]),
   midi.NoteOnEvent(tick=0, channel=9, data=[42, 110]),
   midi.NoteOnEvent(tick=94, channel=9, data=[38, 0]),
   midi.NoteOnEvent(tick=0, channel=9, data=[42, 0]),
   midi.NoteOnEvent(tick=2, channel=9, data=[42, 110]),
   midi.NoteOnEvent(tick=94, channel=9, data=[42, 0]),
   midi.NoteOnEvent(tick=2, channel=9, data=[36, 110]),
   midi.NoteOnEvent(tick=0, channel=9, data=[42, 110]),
   midi.NoteOnEvent(tick=94, channel=9, data=[36, 0]),
   midi.NoteOnEvent(tick=0, channel=9, data=[42, 0]),
   midi.NoteOnEvent(tick=2, channel=9, data=[42, 110]),
   midi.NoteOnEvent(tick=94, channel=9, data=[42, 0]),
   midi.NoteOnEvent(tick=2, channel=9, data=[38, 110]),
   midi.NoteOnEvent(tick=0, channel=9, data=[42, 110]),
   midi.NoteOnEvent(tick=94, channel=9, data=[38, 0]),
   midi.NoteOnEvent(tick=0, channel=9, data=[42, 0]),
   midi.NoteOnEvent(tick=2, channel=9, data=[42, 110]),
   midi.NoteOnEvent(tick=94, channel=9, data=[42, 0]),
   midi.NoteOnEvent(tick=2, channel=9, data=[36, 110]),
   midi.NoteOnEvent(tick=0, channel=9, data=[38, 110]),
   midi.NoteOnEvent(tick=94, channel=9, data=[36, 0]),
   midi.NoteOnEvent(tick=0, channel=9, data=[38, 0]),
   midi.NoteOnEvent(tick=2, channel=9, data=[38, 110]),
   midi.NoteOnEvent(tick=46, channel=9, data=[38, 0]),
   midi.NoteOnEvent(tick=2, channel=9, data=[38, 110]),
   midi.NoteOnEvent(tick=46, channel=9, data=[38, 0]),
   midi.NoteOnEvent(tick=2, channel=9, data=[36, 110]),
   midi.NoteOnEvent(tick=0, channel=9, data=[38, 110]),
   midi.NoteOnEvent(tick=94, channel=9, data=[36, 0]),
   midi.NoteOnEvent(tick=0, channel=9, data=[38, 0]),
   midi.NoteOnEvent(tick=2, channel=9, data=[38, 110]),
   midi.NoteOnEvent(tick=94, channel=9, data=[38, 0]),
   midi.NoteOnEvent(tick=2, channel=9, data=[36, 110]),
   midi.NoteOnEvent(tick=0, channel=9, data=[38, 110]),
   midi.NoteOnEvent(tick=94, channel=9, data=[36, 0]),
   midi.NoteOnEvent(tick=0, channel=9, data=[38, 0]),
   midi.NoteOnEvent(tick=2, channel=9, data=[38, 110]),
   midi.NoteOnEvent(tick=94, channel=9, data=[38, 0]),
   midi.NoteOnEvent(tick=2, channel=9, data=[36, 110]),
   midi.NoteOnEvent(tick=0, channel=9, data=[38, 110]),
   midi.NoteOnEvent(tick=94, channel=9, data=[36, 0]),
   midi.NoteOnEvent(tick=0, channel=9, data=[38, 0]),
   midi.NoteOnEvent(tick=2, channel=9, data=[36, 110]),
   midi.NoteOnEvent(tick=0, channel=9, data=[38, 110]),
   midi.NoteOnEvent(tick=0, channel=9, data=[49, 110]),
   midi.NoteOnEvent(tick=94, channel=9, data=[36, 0]),
   midi.NoteOnEvent(tick=0, channel=9, data=[38, 0]),
   midi.NoteOnEvent(tick=0, channel=9, data=[49, 0]),
   midi.NoteOnEvent(tick=2, channel=9, data=[42, 110]),
   midi.NoteOnEvent(tick=94, channel=9, data=[42, 0]),
   midi.NoteOnEvent(tick=2, channel=9, data=[36, 110]),
   midi.NoteOnEvent(tick=0, channel=9, data=[42, 110]),
   midi.NoteOnEvent(tick=94, channel=9, data=[36, 0]),
   midi.NoteOnEvent(tick=0, channel=9, data=[42, 0]),
   midi.NoteOnEvent(tick=2, channel=9, data=[38, 110]),
   midi.NoteOnEvent(tick=0, channel=9, data=[42, 110]),
   midi.NoteOnEvent(tick=94, channel=9, data=[38, 0]),
   midi.NoteOnEvent(tick=0, channel=9, data=[42, 0]),
   midi.NoteOnEvent(tick=2, channel=9, data=[42, 110]),
   midi.NoteOnEvent(tick=94, channel=9, data=[42, 0]),
   midi.NoteOnEvent(tick=2, channel=9, data=[36, 110]),
   midi.NoteOnEvent(tick=0, channel=9, data=[42, 110]),
   midi.NoteOnEvent(tick=94, channel=9, data=[36, 0]),
   midi.NoteOnEvent(tick=0, channel=9, data=[42, 0]),
   midi.NoteOnEvent(tick=2, channel=9, data=[42, 110]),
   midi.NoteOnEvent(tick=94, channel=9, data=[42, 0]),
   midi.NoteOnEvent(tick=2, channel=9, data=[38, 110]),
   midi.NoteOnEvent(tick=0, channel=9, data=[42, 110]),
   midi.NoteOnEvent(tick=94, channel=9, data=[38, 0]),
   midi.NoteOnEvent(tick=0, channel=9, data=[42, 0]),
   midi.NoteOnEvent(tick=2, channel=9, data=[42, 110]),
   midi.NoteOnEvent(tick=94, channel=9, data=[42, 0]),
   midi.NoteOnEvent(tick=2, channel=9, data=[42, 110]),
   midi.NoteOnEvent(tick=94, channel=9, data=[42, 0]),
   midi.NoteOnEvent(tick=2, channel=9, data=[36, 110]),
   midi.NoteOnEvent(tick=0, channel=9, data=[42, 110]),
   midi.NoteOnEvent(tick=94, channel=9, data=[36, 0]),
   midi.NoteOnEvent(tick=0, channel=9, data=[42, 0]),
   midi.NoteOnEvent(tick=2, channel=9, data=[38, 110]),
   midi.NoteOnEvent(tick=0, channel=9, data=[42, 110]),
   midi.NoteOnEvent(tick=94, channel=9, data=[38, 0]),
   midi.NoteOnEvent(tick=0, channel=9, data=[42, 0]),
   midi.NoteOnEvent(tick=2, channel=9, data=[42, 110]),
   midi.NoteOnEvent(tick=94, channel=9, data=[42, 0]),
   midi.NoteOnEvent(tick=2, channel=9, data=[36, 110]),
   midi.NoteOnEvent(tick=0, channel=9, data=[42, 110]),
   midi.NoteOnEvent(tick=94, channel=9, data=[36, 0]),
   midi.NoteOnEvent(tick=0, channel=9, data=[42, 0]),
   midi.NoteOnEvent(tick=2, channel=9, data=[42, 110]),
   midi.NoteOnEvent(tick=94, channel=9, data=[42, 0]),
   midi.NoteOnEvent(tick=2, channel=9, data=[38, 110]),
   midi.NoteOnEvent(tick=0, channel=9, data=[42, 110]),
   midi.NoteOnEvent(tick=94, channel=9, data=[38, 0]),
   midi.NoteOnEvent(tick=0, channel=9, data=[42, 0]),
   midi.NoteOnEvent(tick=2, channel=9, data=[42, 110]),
   midi.NoteOnEvent(tick=94, channel=9, data=[42, 0]),
   midi.NoteOnEvent(tick=2, channel=9, data=[42, 110]),
   midi.NoteOnEvent(tick=94, channel=9, data=[42, 0]),
   midi.NoteOnEvent(tick=2, channel=9, data=[36, 110]),
   midi.NoteOnEvent(tick=0, channel=9, data=[42, 110]),
   midi.NoteOnEvent(tick=94, channel=9, data=[36, 0]),
   midi.NoteOnEvent(tick=0, channel=9, data=[42, 0]),
   midi.NoteOnEvent(tick=2, channel=9, data=[38, 110]),
   midi.NoteOnEvent(tick=0, channel=9, data=[42, 110]),
   midi.NoteOnEvent(tick=94, channel=9, data=[38, 0]),
   midi.NoteOnEvent(tick=0, channel=9, data=[42, 0]),
   midi.NoteOnEvent(tick=2, channel=9, data=[42, 110]),
   midi.NoteOnEvent(tick=94, channel=9, data=[42, 0]),
   midi.NoteOnEvent(tick=2, channel=9, data=[36, 110]),
   midi.NoteOnEvent(tick=0, channel=9, data=[42, 110]),
   midi.NoteOnEvent(tick=94, channel=9, data=[36, 0]),
   midi.NoteOnEvent(tick=0, channel=9, data=[42, 0]),
   midi.NoteOnEvent(tick=2, channel=9, data=[42, 110]),
   midi.NoteOnEvent(tick=94, channel=9, data=[42, 0]),
   midi.NoteOnEvent(tick=2, channel=9, data=[38, 110]),
   midi.NoteOnEvent(tick=0, channel=9, data=[42, 110]),
   midi.NoteOnEvent(tick=94, channel=9, data=[38, 0]),
   midi.NoteOnEvent(tick=0, channel=9, data=[42, 0]),
   midi.NoteOnEvent(tick=2, channel=9, data=[42, 110]),
   midi.NoteOnEvent(tick=94, channel=9, data=[42, 0]),
   midi.NoteOnEvent(tick=2, channel=9, data=[36, 110]),
   midi.NoteOnEvent(tick=0, channel=9, data=[38, 110]),
   midi.NoteOnEvent(tick=94, channel=9, data=[36, 0]),
   midi.NoteOnEvent(tick=0, channel=9, data=[38, 0]),
   midi.NoteOnEvent(tick=2, channel=9, data=[38, 110]),
   midi.NoteOnEvent(tick=46, channel=9, data=[38, 0]),
   midi.NoteOnEvent(tick=2, channel=9, data=[38, 110]),
   midi.NoteOnEvent(tick=46, channel=9, data=[38, 0]),
   midi.NoteOnEvent(tick=2, channel=9, data=[36, 110]),
   midi.NoteOnEvent(tick=0, channel=9, data=[38, 110]),
   midi.NoteOnEvent(tick=94, channel=9, data=[36, 0]),
   midi.NoteOnEvent(tick=0, channel=9, data=[38, 0]),
   midi.NoteOnEvent(tick=2, channel=9, data=[38, 110]),
   midi.NoteOnEvent(tick=94, channel=9, data=[38, 0]),
   midi.NoteOnEvent(tick=2, channel=9, data=[36, 110]),
   midi.NoteOnEvent(tick=0, channel=9, data=[38, 110]),
   midi.NoteOnEvent(tick=94, channel=9, data=[36, 0]),
   midi.NoteOnEvent(tick=0, channel=9, data=[38, 0]),
   midi.NoteOnEvent(tick=2, channel=9, data=[38, 110]),
   midi.NoteOnEvent(tick=94, channel=9, data=[38, 0]),
   midi.NoteOnEvent(tick=2, channel=9, data=[36, 110]),
   midi.NoteOnEvent(tick=0, channel=9, data=[38, 110]),
   midi.NoteOnEvent(tick=94, channel=9, data=[36, 0]),
   midi.NoteOnEvent(tick=0, channel=9, data=[38, 0]),
   midi.NoteOnEvent(tick=2, channel=9, data=[36, 110]),
   midi.NoteOnEvent(tick=0, channel=9, data=[42, 110]),
   midi.NoteOnEvent(tick=0, channel=9, data=[49, 110]),
   midi.NoteOnEvent(tick=94, channel=9, data=[36, 0]),
   midi.NoteOnEvent(tick=0, channel=9, data=[42, 0]),
   midi.NoteOnEvent(tick=0, channel=9, data=[49, 0]),
   midi.NoteOnEvent(tick=2, channel=9, data=[38, 110]),
   midi.NoteOnEvent(tick=0, channel=9, data=[42, 110]),
   midi.NoteOnEvent(tick=94, channel=9, data=[38, 0]),
   midi.NoteOnEvent(tick=0, channel=9, data=[42, 0]),
   midi.NoteOnEvent(tick=2, channel=9, data=[36, 110]),
   midi.NoteOnEvent(tick=0, channel=9, data=[42, 110]),
   midi.NoteOnEvent(tick=94, channel=9, data=[36, 0]),
   midi.NoteOnEvent(tick=0, channel=9, data=[42, 0]),
   midi.NoteOnEvent(tick=2, channel=9, data=[38, 110]),
   midi.NoteOnEvent(tick=0, channel=9, data=[42, 110]),
   midi.NoteOnEvent(tick=94, channel=9, data=[38, 0]),
   midi.NoteOnEvent(tick=0, channel=9, data=[42, 0]),
   midi.NoteOnEvent(tick=2, channel=9, data=[36, 110]),
   midi.NoteOnEvent(tick=0, channel=9, data=[42, 110]),
   midi.NoteOnEvent(tick=94, channel=9, data=[36, 0]),
   midi.NoteOnEvent(tick=0, channel=9, data=[42, 0]),
   midi.NoteOnEvent(tick=2, channel=9, data=[38, 110]),
   midi.NoteOnEvent(tick=0, channel=9, data=[42, 110]),
   midi.NoteOnEvent(tick=94, channel=9, data=[38, 0]),
   midi.NoteOnEvent(tick=0, channel=9, data=[42, 0]),
   midi.NoteOnEvent(tick=2, channel=9, data=[36, 110]),
   midi.NoteOnEvent(tick=0, channel=9, data=[42, 110]),
   midi.NoteOnEvent(tick=94, channel=9, data=[36, 0]),
   midi.NoteOnEvent(tick=0, channel=9, data=[42, 0]),
   midi.NoteOnEvent(tick=2, channel=9, data=[38, 110]),
   midi.NoteOnEvent(tick=0, channel=9, data=[42, 110]),
   midi.NoteOnEvent(tick=94, channel=9, data=[38, 0]),
   midi.NoteOnEvent(tick=0, channel=9, data=[42, 0]),
   midi.NoteOnEvent(tick=2, channel=9, data=[36, 110]),
   midi.NoteOnEvent(tick=0, channel=9, data=[42, 110]),
   midi.NoteOnEvent(tick=0, channel=9, data=[49, 110]),
   midi.NoteOnEvent(tick=94, channel=9, data=[36, 0]),
   midi.NoteOnEvent(tick=0, channel=9, data=[42, 0]),
   midi.NoteOnEvent(tick=0, channel=9, data=[49, 0]),
   midi.NoteOnEvent(tick=2, channel=9, data=[38, 110]),
   midi.NoteOnEvent(tick=0, channel=9, data=[42, 110]),
   midi.NoteOnEvent(tick=94, channel=9, data=[38, 0]),
   midi.NoteOnEvent(tick=0, channel=9, data=[42, 0]),
   midi.NoteOnEvent(tick=2, channel=9, data=[36, 110]),
   midi.NoteOnEvent(tick=0, channel=9, data=[42, 110]),
   midi.NoteOnEvent(tick=94, channel=9, data=[36, 0]),
   midi.NoteOnEvent(tick=0, channel=9, data=[42, 0]),
   midi.NoteOnEvent(tick=2, channel=9, data=[38, 110]),
   midi.NoteOnEvent(tick=0, channel=9, data=[42, 110]),
   midi.NoteOnEvent(tick=94, channel=9, data=[38, 0]),
   midi.NoteOnEvent(tick=0, channel=9, data=[42, 0]),
   midi.NoteOnEvent(tick=2, channel=9, data=[36, 110]),
   midi.NoteOnEvent(tick=0, channel=9, data=[42, 110]),
   midi.NoteOnEvent(tick=94, channel=9, data=[36, 0]),
   midi.NoteOnEvent(tick=0, channel=9, data=[42, 0]),
   midi.NoteOnEvent(tick=2, channel=9, data=[38, 110]),
   midi.NoteOnEvent(tick=0, channel=9, data=[42, 110]),
   midi.NoteOnEvent(tick=94, channel=9, data=[38, 0]),
   midi.NoteOnEvent(tick=0, channel=9, data=[42, 0]),
   midi.NoteOnEvent(tick=2, channel=9, data=[36, 110]),
   midi.NoteOnEvent(tick=0, channel=9, data=[42, 110]),
   midi.NoteOnEvent(tick=94, channel=9, data=[36, 0]),
   midi.NoteOnEvent(tick=0, channel=9, data=[42, 0]),
   midi.NoteOnEvent(tick=2, channel=9, data=[38, 110]),
   midi.NoteOnEvent(tick=0, channel=9, data=[42, 110]),
   midi.NoteOnEvent(tick=94, channel=9, data=[38, 0]),
   midi.NoteOnEvent(tick=0, channel=9, data=[42, 0]),
   midi.NoteOnEvent(tick=2, channel=9, data=[36, 110]),
   midi.NoteOnEvent(tick=0, channel=9, data=[42, 110]),
   midi.NoteOnEvent(tick=0, channel=9, data=[49, 110]),
   midi.NoteOnEvent(tick=94, channel=9, data=[36, 0]),
   midi.NoteOnEvent(tick=0, channel=9, data=[42, 0]),
   midi.NoteOnEvent(tick=0, channel=9, data=[49, 0]),
   midi.NoteOnEvent(tick=2, channel=9, data=[38, 110]),
   midi.NoteOnEvent(tick=0, channel=9, data=[42, 110]),
   midi.NoteOnEvent(tick=94, channel=9, data=[38, 0]),
   midi.NoteOnEvent(tick=0, channel=9, data=[42, 0]),
   midi.NoteOnEvent(tick=2, channel=9, data=[36, 110]),
   midi.NoteOnEvent(tick=0, channel=9, data=[42, 110]),
   midi.NoteOnEvent(tick=94, channel=9, data=[36, 0]),
   midi.NoteOnEvent(tick=0, channel=9, data=[42, 0]),
   midi.NoteOnEvent(tick=2, channel=9, data=[38, 110]),
   midi.NoteOnEvent(tick=0, channel=9, data=[42, 110]),
   midi.NoteOnEvent(tick=94, channel=9, data=[38, 0]),
   midi.NoteOnEvent(tick=0, channel=9, data=[42, 0]),
   midi.NoteOnEvent(tick=2, channel=9, data=[36, 110]),
   midi.NoteOnEvent(tick=0, channel=9, data=[42, 110]),
   midi.NoteOnEvent(tick=94, channel=9, data=[36, 0]),
   midi.NoteOnEvent(tick=0, channel=9, data=[42, 0]),
   midi.NoteOnEvent(tick=2, channel=9, data=[38, 110]),
   midi.NoteOnEvent(tick=0, channel=9, data=[42, 110]),
   midi.NoteOnEvent(tick=94, channel=9, data=[38, 0]),
   midi.NoteOnEvent(tick=0, channel=9, data=[42, 0]),
   midi.NoteOnEvent(tick=2, channel=9, data=[36, 110]),
   midi.NoteOnEvent(tick=0, channel=9, data=[42, 110]),
   midi.NoteOnEvent(tick=94, channel=9, data=[36, 0]),
   midi.NoteOnEvent(tick=0, channel=9, data=[42, 0]),
   midi.NoteOnEvent(tick=2, channel=9, data=[38, 110]),
   midi.NoteOnEvent(tick=0, channel=9, data=[42, 110]),
   midi.NoteOnEvent(tick=94, channel=9, data=[38, 0]),
   midi.NoteOnEvent(tick=0, channel=9, data=[42, 0]),
   midi.NoteOnEvent(tick=2, channel=9, data=[36, 110]),
   midi.NoteOnEvent(tick=94, channel=9, data=[36, 0]),
   midi.NoteOnEvent(tick=2, channel=9, data=[49, 110]),
   midi.NoteOnEvent(tick=94, channel=9, data=[49, 0]),
   midi.NoteOnEvent(tick=2, channel=9, data=[38, 110]),
   midi.NoteOnEvent(tick=94, channel=9, data=[38, 0]),
   midi.NoteOnEvent(tick=2, channel=9, data=[36, 110]),
   midi.NoteOnEvent(tick=94, channel=9, data=[36, 0]),
   midi.NoteOnEvent(tick=2, channel=9, data=[49, 110]),
   midi.NoteOnEvent(tick=94, channel=9, data=[49, 0]),
   midi.NoteOnEvent(tick=2, channel=9, data=[36, 110]),
   midi.NoteOnEvent(tick=94, channel=9, data=[36, 0]),
   midi.NoteOnEvent(tick=2, channel=9, data=[38, 110]),
   midi.NoteOnEvent(tick=94, channel=9, data=[38, 0]),
   midi.NoteOnEvent(tick=2, channel=9, data=[36, 110]),
   midi.NoteOnEvent(tick=94, channel=9, data=[36, 0]),
   midi.NoteOnEvent(tick=2, channel=9, data=[36, 110]),
   midi.NoteOnEvent(tick=0, channel=9, data=[42, 110]),
   midi.NoteOnEvent(tick=0, channel=9, data=[49, 110]),
   midi.NoteOnEvent(tick=94, channel=9, data=[36, 0]),
   midi.NoteOnEvent(tick=0, channel=9, data=[42, 0]),
   midi.NoteOnEvent(tick=0, channel=9, data=[49, 0]),
   midi.NoteOnEvent(tick=2, channel=9, data=[38, 110]),
   midi.NoteOnEvent(tick=0, channel=9, data=[42, 110]),
   midi.NoteOnEvent(tick=94, channel=9, data=[38, 0]),
   midi.NoteOnEvent(tick=0, channel=9, data=[42, 0]),
   midi.NoteOnEvent(tick=2, channel=9, data=[36, 110]),
   midi.NoteOnEvent(tick=0, channel=9, data=[42, 110]),
   midi.NoteOnEvent(tick=94, channel=9, data=[36, 0]),
   midi.NoteOnEvent(tick=0, channel=9, data=[42, 0]),
   midi.NoteOnEvent(tick=2, channel=9, data=[38, 110]),
   midi.NoteOnEvent(tick=0, channel=9, data=[42, 110]),
   midi.NoteOnEvent(tick=94, channel=9, data=[38, 0]),
   midi.NoteOnEvent(tick=0, channel=9, data=[42, 0]),
   midi.NoteOnEvent(tick=2, channel=9, data=[36, 110]),
   midi.NoteOnEvent(tick=0, channel=9, data=[42, 110]),
   midi.NoteOnEvent(tick=94, channel=9, data=[36, 0]),
   midi.NoteOnEvent(tick=0, channel=9, data=[42, 0]),
   midi.NoteOnEvent(tick=2, channel=9, data=[38, 110]),
   midi.NoteOnEvent(tick=0, channel=9, data=[42, 110]),
   midi.NoteOnEvent(tick=94, channel=9, data=[38, 0]),
   midi.NoteOnEvent(tick=0, channel=9, data=[42, 0]),
   midi.NoteOnEvent(tick=2, channel=9, data=[36, 110]),
   midi.NoteOnEvent(tick=0, channel=9, data=[42, 110]),
   midi.NoteOnEvent(tick=94, channel=9, data=[36, 0]),
   midi.NoteOnEvent(tick=0, channel=9, data=[42, 0]),
   midi.NoteOnEvent(tick=2, channel=9, data=[38, 110]),
   midi.NoteOnEvent(tick=0, channel=9, data=[42, 110]),
   midi.NoteOnEvent(tick=94, channel=9, data=[38, 0]),
   midi.NoteOnEvent(tick=0, channel=9, data=[42, 0]),
   midi.NoteOnEvent(tick=2, channel=9, data=[36, 110]),
   midi.NoteOnEvent(tick=0, channel=9, data=[42, 110]),
   midi.NoteOnEvent(tick=0, channel=9, data=[49, 110]),
   midi.NoteOnEvent(tick=94, channel=9, data=[36, 0]),
   midi.NoteOnEvent(tick=0, channel=9, data=[42, 0]),
   midi.NoteOnEvent(tick=0, channel=9, data=[49, 0]),
   midi.NoteOnEvent(tick=2, channel=9, data=[38, 110]),
   midi.NoteOnEvent(tick=0, channel=9, data=[42, 110]),
   midi.NoteOnEvent(tick=94, channel=9, data=[38, 0]),
   midi.NoteOnEvent(tick=0, channel=9, data=[42, 0]),
   midi.NoteOnEvent(tick=2, channel=9, data=[36, 110]),
   midi.NoteOnEvent(tick=0, channel=9, data=[42, 110]),
   midi.NoteOnEvent(tick=94, channel=9, data=[36, 0]),
   midi.NoteOnEvent(tick=0, channel=9, data=[42, 0]),
   midi.NoteOnEvent(tick=2, channel=9, data=[38, 110]),
   midi.NoteOnEvent(tick=0, channel=9, data=[42, 110]),
   midi.NoteOnEvent(tick=94, channel=9, data=[38, 0]),
   midi.NoteOnEvent(tick=0, channel=9, data=[42, 0]),
   midi.NoteOnEvent(tick=2, channel=9, data=[36, 110]),
   midi.NoteOnEvent(tick=0, channel=9, data=[42, 110]),
   midi.NoteOnEvent(tick=94, channel=9, data=[36, 0]),
   midi.NoteOnEvent(tick=0, channel=9, data=[42, 0]),
   midi.NoteOnEvent(tick=2, channel=9, data=[38, 110]),
   midi.NoteOnEvent(tick=0, channel=9, data=[42, 110]),
   midi.NoteOnEvent(tick=94, channel=9, data=[38, 0]),
   midi.NoteOnEvent(tick=0, channel=9, data=[42, 0]),
   midi.NoteOnEvent(tick=2, channel=9, data=[36, 110]),
   midi.NoteOnEvent(tick=0, channel=9, data=[42, 110]),
   midi.NoteOnEvent(tick=94, channel=9, data=[36, 0]),
   midi.NoteOnEvent(tick=0, channel=9, data=[42, 0]),
   midi.NoteOnEvent(tick=2, channel=9, data=[38, 110]),
   midi.NoteOnEvent(tick=0, channel=9, data=[42, 110]),
   midi.NoteOnEvent(tick=94, channel=9, data=[38, 0]),
   midi.NoteOnEvent(tick=0, channel=9, data=[42, 0]),
   midi.NoteOnEvent(tick=2, channel=9, data=[36, 110]),
   midi.NoteOnEvent(tick=0, channel=9, data=[42, 110]),
   midi.NoteOnEvent(tick=0, channel=9, data=[49, 110]),
   midi.NoteOnEvent(tick=94, channel=9, data=[36, 0]),
   midi.NoteOnEvent(tick=0, channel=9, data=[42, 0]),
   midi.NoteOnEvent(tick=0, channel=9, data=[49, 0]),
   midi.NoteOnEvent(tick=2, channel=9, data=[38, 110]),
   midi.NoteOnEvent(tick=0, channel=9, data=[42, 110]),
   midi.NoteOnEvent(tick=94, channel=9, data=[38, 0]),
   midi.NoteOnEvent(tick=0, channel=9, data=[42, 0]),
   midi.NoteOnEvent(tick=2, channel=9, data=[36, 110]),
   midi.NoteOnEvent(tick=0, channel=9, data=[42, 110]),
   midi.NoteOnEvent(tick=94, channel=9, data=[36, 0]),
   midi.NoteOnEvent(tick=0, channel=9, data=[42, 0]),
   midi.NoteOnEvent(tick=2, channel=9, data=[38, 110]),
   midi.NoteOnEvent(tick=0, channel=9, data=[42, 110]),
   midi.NoteOnEvent(tick=94, channel=9, data=[38, 0]),
   midi.NoteOnEvent(tick=0, channel=9, data=[42, 0]),
   midi.NoteOnEvent(tick=2, channel=9, data=[36, 110]),
   midi.NoteOnEvent(tick=0, channel=9, data=[42, 110]),
   midi.NoteOnEvent(tick=94, channel=9, data=[36, 0]),
   midi.NoteOnEvent(tick=0, channel=9, data=[42, 0]),
   midi.NoteOnEvent(tick=2, channel=9, data=[38, 110]),
   midi.NoteOnEvent(tick=0, channel=9, data=[42, 110]),
   midi.NoteOnEvent(tick=94, channel=9, data=[38, 0]),
   midi.NoteOnEvent(tick=0, channel=9, data=[42, 0]),
   midi.NoteOnEvent(tick=2, channel=9, data=[36, 110]),
   midi.NoteOnEvent(tick=0, channel=9, data=[42, 110]),
   midi.NoteOnEvent(tick=94, channel=9, data=[36, 0]),
   midi.NoteOnEvent(tick=0, channel=9, data=[42, 0]),
   midi.NoteOnEvent(tick=2, channel=9, data=[38, 110]),
   midi.NoteOnEvent(tick=0, channel=9, data=[42, 110]),
   midi.NoteOnEvent(tick=94, channel=9, data=[38, 0]),
   midi.NoteOnEvent(tick=0, channel=9, data=[42, 0]),
   midi.NoteOnEvent(tick=2, channel=9, data=[36, 110]),
   midi.NoteOnEvent(tick=94, channel=9, data=[36, 0]),
   midi.NoteOnEvent(tick=2, channel=9, data=[49, 110]),
   midi.NoteOnEvent(tick=94, channel=9, data=[49, 0]),
   midi.NoteOnEvent(tick=2, channel=9, data=[38, 110]),
   midi.NoteOnEvent(tick=94, channel=9, data=[38, 0]),
   midi.NoteOnEvent(tick=2, channel=9, data=[36, 110]),
   midi.NoteOnEvent(tick=94, channel=9, data=[36, 0]),
   midi.NoteOnEvent(tick=2, channel=9, data=[49, 110]),
   midi.NoteOnEvent(tick=94, channel=9, data=[49, 0]),
   midi.NoteOnEvent(tick=2, channel=9, data=[36, 110]),
   midi.NoteOnEvent(tick=94, channel=9, data=[36, 0]),
   midi.NoteOnEvent(tick=2, channel=9, data=[38, 110]),
   midi.NoteOnEvent(tick=94, channel=9, data=[38, 0]),
   midi.NoteOnEvent(tick=2, channel=9, data=[36, 110]),
   midi.NoteOnEvent(tick=94, channel=9, data=[36, 0]),
   midi.NoteOnEvent(tick=2, channel=9, data=[36, 110]),
   midi.NoteOnEvent(tick=0, channel=9, data=[42, 110]),
   midi.NoteOnEvent(tick=0, channel=9, data=[49, 110]),
   midi.NoteOnEvent(tick=94, channel=9, data=[36, 0]),
   midi.NoteOnEvent(tick=0, channel=9, data=[42, 0]),
   midi.NoteOnEvent(tick=0, channel=9, data=[49, 0]),
   midi.NoteOnEvent(tick=2, channel=9, data=[38, 110]),
   midi.NoteOnEvent(tick=0, channel=9, data=[42, 110]),
   midi.NoteOnEvent(tick=94, channel=9, data=[38, 0]),
   midi.NoteOnEvent(tick=0, channel=9, data=[42, 0]),
   midi.NoteOnEvent(tick=2, channel=9, data=[36, 110]),
   midi.NoteOnEvent(tick=0, channel=9, data=[42, 110]),
   midi.NoteOnEvent(tick=94, channel=9, data=[36, 0]),
   midi.NoteOnEvent(tick=0, channel=9, data=[42, 0]),
   midi.NoteOnEvent(tick=2, channel=9, data=[38, 110]),
   midi.NoteOnEvent(tick=0, channel=9, data=[42, 110]),
   midi.NoteOnEvent(tick=94, channel=9, data=[38, 0]),
   midi.NoteOnEvent(tick=0, channel=9, data=[42, 0]),
   midi.NoteOnEvent(tick=2, channel=9, data=[36, 110]),
   midi.NoteOnEvent(tick=0, channel=9, data=[42, 110]),
   midi.NoteOnEvent(tick=94, channel=9, data=[36, 0]),
   midi.NoteOnEvent(tick=0, channel=9, data=[42, 0]),
   midi.NoteOnEvent(tick=2, channel=9, data=[38, 110]),
   midi.NoteOnEvent(tick=0, channel=9, data=[42, 110]),
   midi.NoteOnEvent(tick=94, channel=9, data=[38, 0]),
   midi.NoteOnEvent(tick=0, channel=9, data=[42, 0]),
   midi.NoteOnEvent(tick=2, channel=9, data=[36, 110]),
   midi.NoteOnEvent(tick=0, channel=9, data=[42, 110]),
   midi.NoteOnEvent(tick=94, channel=9, data=[36, 0]),
   midi.NoteOnEvent(tick=0, channel=9, data=[42, 0]),
   midi.NoteOnEvent(tick=2, channel=9, data=[38, 110]),
   midi.NoteOnEvent(tick=0, channel=9, data=[42, 110]),
   midi.NoteOnEvent(tick=94, channel=9, data=[38, 0]),
   midi.NoteOnEvent(tick=0, channel=9, data=[42, 0]),
   midi.NoteOnEvent(tick=2, channel=9, data=[36, 110]),
   midi.NoteOnEvent(tick=0, channel=9, data=[42, 110]),
   midi.NoteOnEvent(tick=0, channel=9, data=[49, 110]),
   midi.NoteOnEvent(tick=94, channel=9, data=[36, 0]),
   midi.NoteOnEvent(tick=0, channel=9, data=[42, 0]),
   midi.NoteOnEvent(tick=0, channel=9, data=[49, 0]),
   midi.NoteOnEvent(tick=2, channel=9, data=[38, 110]),
   midi.NoteOnEvent(tick=0, channel=9, data=[42, 110]),
   midi.NoteOnEvent(tick=94, channel=9, data=[38, 0]),
   midi.NoteOnEvent(tick=0, channel=9, data=[42, 0]),
   midi.NoteOnEvent(tick=2, channel=9, data=[36, 110]),
   midi.NoteOnEvent(tick=0, channel=9, data=[42, 110]),
   midi.NoteOnEvent(tick=94, channel=9, data=[36, 0]),
   midi.NoteOnEvent(tick=0, channel=9, data=[42, 0]),
   midi.NoteOnEvent(tick=2, channel=9, data=[38, 110]),
   midi.NoteOnEvent(tick=0, channel=9, data=[42, 110]),
   midi.NoteOnEvent(tick=94, channel=9, data=[38, 0]),
   midi.NoteOnEvent(tick=0, channel=9, data=[42, 0]),
   midi.NoteOnEvent(tick=2, channel=9, data=[36, 110]),
   midi.NoteOnEvent(tick=0, channel=9, data=[42, 110]),
   midi.NoteOnEvent(tick=94, channel=9, data=[36, 0]),
   midi.NoteOnEvent(tick=0, channel=9, data=[42, 0]),
   midi.NoteOnEvent(tick=2, channel=9, data=[38, 110]),
   midi.NoteOnEvent(tick=0, channel=9, data=[42, 110]),
   midi.NoteOnEvent(tick=94, channel=9, data=[38, 0]),
   midi.NoteOnEvent(tick=0, channel=9, data=[42, 0]),
   midi.NoteOnEvent(tick=2, channel=9, data=[36, 110]),
   midi.NoteOnEvent(tick=0, channel=9, data=[42, 110]),
   midi.NoteOnEvent(tick=94, channel=9, data=[36, 0]),
   midi.NoteOnEvent(tick=0, channel=9, data=[42, 0]),
   midi.NoteOnEvent(tick=2, channel=9, data=[38, 110]),
   midi.NoteOnEvent(tick=0, channel=9, data=[42, 110]),
   midi.NoteOnEvent(tick=94, channel=9, data=[38, 0]),
   midi.NoteOnEvent(tick=0, channel=9, data=[42, 0]),
   midi.NoteOnEvent(tick=2, channel=9, data=[36, 110]),
   midi.NoteOnEvent(tick=0, channel=9, data=[42, 110]),
   midi.NoteOnEvent(tick=0, channel=9, data=[49, 110]),
   midi.NoteOnEvent(tick=94, channel=9, data=[36, 0]),
   midi.NoteOnEvent(tick=0, channel=9, data=[42, 0]),
   midi.NoteOnEvent(tick=0, channel=9, data=[49, 0]),
   midi.NoteOnEvent(tick=2, channel=9, data=[38, 110]),
   midi.NoteOnEvent(tick=0, channel=9, data=[42, 110]),
   midi.NoteOnEvent(tick=94, channel=9, data=[38, 0]),
   midi.NoteOnEvent(tick=0, channel=9, data=[42, 0]),
   midi.NoteOnEvent(tick=2, channel=9, data=[36, 110]),
   midi.NoteOnEvent(tick=0, channel=9, data=[42, 110]),
   midi.NoteOnEvent(tick=94, channel=9, data=[36, 0]),
   midi.NoteOnEvent(tick=0, channel=9, data=[42, 0]),
   midi.NoteOnEvent(tick=2, channel=9, data=[38, 110]),
   midi.NoteOnEvent(tick=0, channel=9, data=[42, 110]),
   midi.NoteOnEvent(tick=94, channel=9, data=[38, 0]),
   midi.NoteOnEvent(tick=0, channel=9, data=[42, 0]),
   midi.NoteOnEvent(tick=2, channel=9, data=[36, 110]),
   midi.NoteOnEvent(tick=0, channel=9, data=[42, 110]),
   midi.NoteOnEvent(tick=94, channel=9, data=[36, 0]),
   midi.NoteOnEvent(tick=0, channel=9, data=[42, 0]),
   midi.NoteOnEvent(tick=2, channel=9, data=[38, 110]),
   midi.NoteOnEvent(tick=0, channel=9, data=[42, 110]),
   midi.NoteOnEvent(tick=94, channel=9, data=[38, 0]),
   midi.NoteOnEvent(tick=0, channel=9, data=[42, 0]),
   midi.NoteOnEvent(tick=2, channel=9, data=[36, 110]),
   midi.NoteOnEvent(tick=0, channel=9, data=[42, 110]),
   midi.NoteOnEvent(tick=94, channel=9, data=[36, 0]),
   midi.NoteOnEvent(tick=0, channel=9, data=[42, 0]),
   midi.NoteOnEvent(tick=2, channel=9, data=[38, 110]),
   midi.NoteOnEvent(tick=0, channel=9, data=[42, 110]),
   midi.NoteOnEvent(tick=94, channel=9, data=[38, 0]),
   midi.NoteOnEvent(tick=0, channel=9, data=[42, 0]),
   midi.NoteOnEvent(tick=2, channel=9, data=[36, 110]),
   midi.NoteOnEvent(tick=94, channel=9, data=[36, 0]),
   midi.NoteOnEvent(tick=2, channel=9, data=[49, 110]),
   midi.NoteOnEvent(tick=94, channel=9, data=[49, 0]),
   midi.NoteOnEvent(tick=2, channel=9, data=[38, 110]),
   midi.NoteOnEvent(tick=94, channel=9, data=[38, 0]),
   midi.NoteOnEvent(tick=2, channel=9, data=[36, 110]),
   midi.NoteOnEvent(tick=94, channel=9, data=[36, 0]),
   midi.NoteOnEvent(tick=2, channel=9, data=[49, 110]),
   midi.NoteOnEvent(tick=94, channel=9, data=[49, 0]),
   midi.NoteOnEvent(tick=2, channel=9, data=[36, 110]),
   midi.NoteOnEvent(tick=94, channel=9, data=[36, 0]),
   midi.NoteOnEvent(tick=2, channel=9, data=[38, 110]),
   midi.NoteOnEvent(tick=94, channel=9, data=[38, 0]),
   midi.NoteOnEvent(tick=2, channel=9, data=[36, 110]),
   midi.NoteOnEvent(tick=94, channel=9, data=[36, 0]),
   midi.NoteOnEvent(tick=2, channel=9, data=[36, 110]),
   midi.NoteOnEvent(tick=0, channel=9, data=[42, 110]),
   midi.NoteOnEvent(tick=0, channel=9, data=[49, 110]),
   midi.NoteOnEvent(tick=94, channel=9, data=[36, 0]),
   midi.NoteOnEvent(tick=0, channel=9, data=[42, 0]),
   midi.NoteOnEvent(tick=0, channel=9, data=[49, 0]),
   midi.NoteOnEvent(tick=2, channel=9, data=[38, 110]),
   midi.NoteOnEvent(tick=0, channel=9, data=[42, 110]),
   midi.NoteOnEvent(tick=94, channel=9, data=[38, 0]),
   midi.NoteOnEvent(tick=0, channel=9, data=[42, 0]),
   midi.NoteOnEvent(tick=2, channel=9, data=[36, 110]),
   midi.NoteOnEvent(tick=0, channel=9, data=[42, 110]),
   midi.NoteOnEvent(tick=94, channel=9, data=[36, 0]),
   midi.NoteOnEvent(tick=0, channel=9, data=[42, 0]),
   midi.NoteOnEvent(tick=2, channel=9, data=[38, 110]),
   midi.NoteOnEvent(tick=0, channel=9, data=[42, 110]),
   midi.NoteOnEvent(tick=94, channel=9, data=[38, 0]),
   midi.NoteOnEvent(tick=0, channel=9, data=[42, 0]),
   midi.NoteOnEvent(tick=2, channel=9, data=[36, 110]),
   midi.NoteOnEvent(tick=0, channel=9, data=[42, 110]),
   midi.NoteOnEvent(tick=94, channel=9, data=[36, 0]),
   midi.NoteOnEvent(tick=0, channel=9, data=[42, 0]),
   midi.NoteOnEvent(tick=2, channel=9, data=[38, 110]),
   midi.NoteOnEvent(tick=0, channel=9, data=[42, 110]),
   midi.NoteOnEvent(tick=94, channel=9, data=[38, 0]),
   midi.NoteOnEvent(tick=0, channel=9, data=[42, 0]),
   midi.NoteOnEvent(tick=2, channel=9, data=[36, 110]),
   midi.NoteOnEvent(tick=0, channel=9, data=[42, 110]),
   midi.NoteOnEvent(tick=94, channel=9, data=[36, 0]),
   midi.NoteOnEvent(tick=0, channel=9, data=[42, 0]),
   midi.NoteOnEvent(tick=2, channel=9, data=[38, 110]),
   midi.NoteOnEvent(tick=0, channel=9, data=[42, 110]),
   midi.NoteOnEvent(tick=94, channel=9, data=[38, 0]),
   midi.NoteOnEvent(tick=0, channel=9, data=[42, 0]),
   midi.NoteOnEvent(tick=2, channel=9, data=[36, 110]),
   midi.NoteOnEvent(tick=0, channel=9, data=[42, 110]),
   midi.NoteOnEvent(tick=0, channel=9, data=[49, 110]),
   midi.NoteOnEvent(tick=94, channel=9, data=[36, 0]),
   midi.NoteOnEvent(tick=0, channel=9, data=[42, 0]),
   midi.NoteOnEvent(tick=0, channel=9, data=[49, 0]),
   midi.NoteOnEvent(tick=2, channel=9, data=[38, 110]),
   midi.NoteOnEvent(tick=0, channel=9, data=[42, 110]),
   midi.NoteOnEvent(tick=94, channel=9, data=[38, 0]),
   midi.NoteOnEvent(tick=0, channel=9, data=[42, 0]),
   midi.NoteOnEvent(tick=2, channel=9, data=[36, 110]),
   midi.NoteOnEvent(tick=0, channel=9, data=[42, 110]),
   midi.NoteOnEvent(tick=94, channel=9, data=[36, 0]),
   midi.NoteOnEvent(tick=0, channel=9, data=[42, 0]),
   midi.NoteOnEvent(tick=2, channel=9, data=[38, 110]),
   midi.NoteOnEvent(tick=0, channel=9, data=[42, 110]),
   midi.NoteOnEvent(tick=94, channel=9, data=[38, 0]),
   midi.NoteOnEvent(tick=0, channel=9, data=[42, 0]),
   midi.NoteOnEvent(tick=2, channel=9, data=[36, 110]),
   midi.NoteOnEvent(tick=0, channel=9, data=[42, 110]),
   midi.NoteOnEvent(tick=94, channel=9, data=[36, 0]),
   midi.NoteOnEvent(tick=0, channel=9, data=[42, 0]),
   midi.NoteOnEvent(tick=2, channel=9, data=[38, 110]),
   midi.NoteOnEvent(tick=0, channel=9, data=[42, 110]),
   midi.NoteOnEvent(tick=94, channel=9, data=[38, 0]),
   midi.NoteOnEvent(tick=0, channel=9, data=[42, 0]),
   midi.NoteOnEvent(tick=2, channel=9, data=[36, 110]),
   midi.NoteOnEvent(tick=0, channel=9, data=[42, 110]),
   midi.NoteOnEvent(tick=94, channel=9, data=[36, 0]),
   midi.NoteOnEvent(tick=0, channel=9, data=[42, 0]),
   midi.NoteOnEvent(tick=2, channel=9, data=[38, 110]),
   midi.NoteOnEvent(tick=0, channel=9, data=[42, 110]),
   midi.NoteOnEvent(tick=94, channel=9, data=[38, 0]),
   midi.NoteOnEvent(tick=0, channel=9, data=[42, 0]),
   midi.NoteOnEvent(tick=2, channel=9, data=[36, 110]),
   midi.NoteOnEvent(tick=0, channel=9, data=[42, 110]),
   midi.NoteOnEvent(tick=0, channel=9, data=[49, 110]),
   midi.NoteOnEvent(tick=94, channel=9, data=[36, 0]),
   midi.NoteOnEvent(tick=0, channel=9, data=[42, 0]),
   midi.NoteOnEvent(tick=0, channel=9, data=[49, 0]),
   midi.NoteOnEvent(tick=2, channel=9, data=[38, 110]),
   midi.NoteOnEvent(tick=0, channel=9, data=[42, 110]),
   midi.NoteOnEvent(tick=94, channel=9, data=[38, 0]),
   midi.NoteOnEvent(tick=0, channel=9, data=[42, 0]),
   midi.NoteOnEvent(tick=2, channel=9, data=[36, 110]),
   midi.NoteOnEvent(tick=0, channel=9, data=[42, 110]),
   midi.NoteOnEvent(tick=94, channel=9, data=[36, 0]),
   midi.NoteOnEvent(tick=0, channel=9, data=[42, 0]),
   midi.NoteOnEvent(tick=2, channel=9, data=[38, 110]),
   midi.NoteOnEvent(tick=0, channel=9, data=[42, 110]),
   midi.NoteOnEvent(tick=94, channel=9, data=[38, 0]),
   midi.NoteOnEvent(tick=0, channel=9, data=[42, 0]),
   midi.NoteOnEvent(tick=2, channel=9, data=[36, 110]),
   midi.NoteOnEvent(tick=0, channel=9, data=[42, 110]),
   midi.NoteOnEvent(tick=94, channel=9, data=[36, 0]),
   midi.NoteOnEvent(tick=0, channel=9, data=[42, 0]),
   midi.NoteOnEvent(tick=2, channel=9, data=[38, 110]),
   midi.NoteOnEvent(tick=0, channel=9, data=[42, 110]),
   midi.NoteOnEvent(tick=94, channel=9, data=[38, 0]),
   midi.NoteOnEvent(tick=0, channel=9, data=[42, 0]),
   midi.NoteOnEvent(tick=2, channel=9, data=[36, 110]),
   midi.NoteOnEvent(tick=0, channel=9, data=[42, 110]),
   midi.NoteOnEvent(tick=94, channel=9, data=[36, 0]),
   midi.NoteOnEvent(tick=0, channel=9, data=[42, 0]),
   midi.NoteOnEvent(tick=2, channel=9, data=[38, 110]),
   midi.NoteOnEvent(tick=0, channel=9, data=[42, 110]),
   midi.NoteOnEvent(tick=94, channel=9, data=[38, 0]),
   midi.NoteOnEvent(tick=0, channel=9, data=[42, 0]),
   midi.NoteOnEvent(tick=2, channel=9, data=[36, 110]),
   midi.NoteOnEvent(tick=94, channel=9, data=[36, 0]),
   midi.NoteOnEvent(tick=2, channel=9, data=[49, 110]),
   midi.NoteOnEvent(tick=94, channel=9, data=[49, 0]),
   midi.NoteOnEvent(tick=2, channel=9, data=[38, 110]),
   midi.NoteOnEvent(tick=94, channel=9, data=[38, 0]),
   midi.NoteOnEvent(tick=2, channel=9, data=[36, 110]),
   midi.NoteOnEvent(tick=94, channel=9, data=[36, 0]),
   midi.NoteOnEvent(tick=2, channel=9, data=[49, 110]),
   midi.NoteOnEvent(tick=94, channel=9, data=[49, 0]),
   midi.NoteOnEvent(tick=2, channel=9, data=[36, 110]),
   midi.NoteOnEvent(tick=94, channel=9, data=[36, 0]),
   midi.NoteOnEvent(tick=2, channel=9, data=[38, 110]),
   midi.NoteOnEvent(tick=94, channel=9, data=[38, 0]),
   midi.NoteOnEvent(tick=2, channel=9, data=[36, 110]),
   midi.NoteOnEvent(tick=94, channel=9, data=[36, 0]),
   midi.NoteOnEvent(tick=2, channel=9, data=[36, 110]),
   midi.NoteOnEvent(tick=0, channel=9, data=[38, 110]),
   midi.NoteOnEvent(tick=0, channel=9, data=[42, 110]),
   midi.NoteOnEvent(tick=0, channel=9, data=[49, 110]),
   midi.NoteOnEvent(tick=720, channel=9, data=[36, 0]),
   midi.NoteOnEvent(tick=0, channel=9, data=[38, 0]),
   midi.NoteOnEvent(tick=0, channel=9, data=[42, 0]),
   midi.NoteOnEvent(tick=0, channel=9, data=[49, 0]),
   midi.NoteOnEvent(tick=48, channel=9, data=[36, 110]),
   midi.NoteOnEvent(tick=0, channel=9, data=[38, 110]),
   midi.NoteOnEvent(tick=0, channel=9, data=[42, 110]),
   midi.NoteOnEvent(tick=0, channel=9, data=[49, 110]),
   midi.NoteOnEvent(tick=336, channel=9, data=[36, 0]),
   midi.NoteOnEvent(tick=0, channel=9, data=[38, 0]),
   midi.NoteOnEvent(tick=0, channel=9, data=[42, 0]),
   midi.NoteOnEvent(tick=0, channel=9, data=[49, 0]),
   midi.NoteOnEvent(tick=48, channel=9, data=[37, 110]),
   midi.NoteOnEvent(tick=0, channel=9, data=[38, 110]),
   midi.NoteOnEvent(tick=0, channel=9, data=[42, 110]),
   midi.NoteOnEvent(tick=0, channel=9, data=[49, 110]),
   midi.NoteOnEvent(tick=336, channel=9, data=[37, 0]),
   midi.NoteOnEvent(tick=0, channel=9, data=[38, 0]),
   midi.NoteOnEvent(tick=0, channel=9, data=[42, 0]),
   midi.NoteOnEvent(tick=0, channel=9, data=[49, 0]),
   midi.NoteOnEvent(tick=48, channel=9, data=[36, 110]),
   midi.NoteOnEvent(tick=0, channel=9, data=[38, 110]),
   midi.NoteOnEvent(tick=0, channel=9, data=[42, 110]),
   midi.NoteOnEvent(tick=0, channel=9, data=[49, 110]),
   midi.NoteOnEvent(tick=336, channel=9, data=[36, 0]),
   midi.NoteOnEvent(tick=0, channel=9, data=[38, 0]),
   midi.NoteOnEvent(tick=0, channel=9, data=[42, 0]),
   midi.NoteOnEvent(tick=0, channel=9, data=[49, 0]),
   midi.NoteOnEvent(tick=48, channel=9, data=[37, 110]),
   midi.NoteOnEvent(tick=0, channel=9, data=[38, 110]),
   midi.NoteOnEvent(tick=0, channel=9, data=[42, 110]),
   midi.NoteOnEvent(tick=0, channel=9, data=[49, 110]),
   midi.NoteOnEvent(tick=336, channel=9, data=[37, 0]),
   midi.NoteOnEvent(tick=0, channel=9, data=[38, 0]),
   midi.NoteOnEvent(tick=0, channel=9, data=[42, 0]),
   midi.NoteOnEvent(tick=0, channel=9, data=[49, 0]),
   midi.NoteOnEvent(tick=48, channel=9, data=[36, 110]),
   midi.NoteOnEvent(tick=0, channel=9, data=[38, 110]),
   midi.NoteOnEvent(tick=0, channel=9, data=[42, 110]),
   midi.NoteOnEvent(tick=0, channel=9, data=[49, 110]),
   midi.NoteOnEvent(tick=720, channel=9, data=[36, 0]),
   midi.NoteOnEvent(tick=0, channel=9, data=[38, 0]),
   midi.NoteOnEvent(tick=0, channel=9, data=[42, 0]),
   midi.NoteOnEvent(tick=0, channel=9, data=[49, 0]),
   midi.NoteOnEvent(tick=816, channel=9, data=[36, 110]),
   midi.NoteOnEvent(tick=0, channel=9, data=[42, 110]),
   midi.NoteOnEvent(tick=0, channel=9, data=[49, 110]),
   midi.NoteOnEvent(tick=94, channel=9, data=[36, 0]),
   midi.NoteOnEvent(tick=0, channel=9, data=[42, 0]),
   midi.NoteOnEvent(tick=0, channel=9, data=[49, 0]),
   midi.NoteOnEvent(tick=2, channel=9, data=[38, 110]),
   midi.NoteOnEvent(tick=0, channel=9, data=[42, 110]),
   midi.NoteOnEvent(tick=94, channel=9, data=[38, 0]),
   midi.NoteOnEvent(tick=0, channel=9, data=[42, 0]),
   midi.NoteOnEvent(tick=2, channel=9, data=[36, 110]),
   midi.NoteOnEvent(tick=0, channel=9, data=[42, 110]),
   midi.NoteOnEvent(tick=94, channel=9, data=[36, 0]),
   midi.NoteOnEvent(tick=0, channel=9, data=[42, 0]),
   midi.NoteOnEvent(tick=2, channel=9, data=[38, 110]),
   midi.NoteOnEvent(tick=0, channel=9, data=[42, 110]),
   midi.NoteOnEvent(tick=94, channel=9, data=[38, 0]),
   midi.NoteOnEvent(tick=0, channel=9, data=[42, 0]),
   midi.NoteOnEvent(tick=2, channel=9, data=[36, 110]),
   midi.NoteOnEvent(tick=0, channel=9, data=[42, 110]),
   midi.NoteOnEvent(tick=94, channel=9, data=[36, 0]),
   midi.NoteOnEvent(tick=0, channel=9, data=[42, 0]),
   midi.NoteOnEvent(tick=2, channel=9, data=[38, 110]),
   midi.NoteOnEvent(tick=0, channel=9, data=[42, 110]),
   midi.NoteOnEvent(tick=94, channel=9, data=[38, 0]),
   midi.NoteOnEvent(tick=0, channel=9, data=[42, 0]),
   midi.NoteOnEvent(tick=2, channel=9, data=[36, 110]),
   midi.NoteOnEvent(tick=0, channel=9, data=[42, 110]),
   midi.NoteOnEvent(tick=94, channel=9, data=[36, 0]),
   midi.NoteOnEvent(tick=0, channel=9, data=[42, 0]),
   midi.NoteOnEvent(tick=2, channel=9, data=[38, 110]),
   midi.NoteOnEvent(tick=0, channel=9, data=[42, 110]),
   midi.NoteOnEvent(tick=94, channel=9, data=[38, 0]),
   midi.NoteOnEvent(tick=0, channel=9, data=[42, 0]),
   midi.NoteOnEvent(tick=2, channel=9, data=[36, 110]),
   midi.NoteOnEvent(tick=0, channel=9, data=[42, 110]),
   midi.NoteOnEvent(tick=0, channel=9, data=[49, 110]),
   midi.NoteOnEvent(tick=94, channel=9, data=[36, 0]),
   midi.NoteOnEvent(tick=0, channel=9, data=[42, 0]),
   midi.NoteOnEvent(tick=0, channel=9, data=[49, 0]),
   midi.NoteOnEvent(tick=2, channel=9, data=[38, 110]),
   midi.NoteOnEvent(tick=0, channel=9, data=[42, 110]),
   midi.NoteOnEvent(tick=94, channel=9, data=[38, 0]),
   midi.NoteOnEvent(tick=0, channel=9, data=[42, 0]),
   midi.NoteOnEvent(tick=2, channel=9, data=[36, 110]),
   midi.NoteOnEvent(tick=0, channel=9, data=[42, 110]),
   midi.NoteOnEvent(tick=94, channel=9, data=[36, 0]),
   midi.NoteOnEvent(tick=0, channel=9, data=[42, 0]),
   midi.NoteOnEvent(tick=2, channel=9, data=[38, 110]),
   midi.NoteOnEvent(tick=0, channel=9, data=[42, 110]),
   midi.NoteOnEvent(tick=94, channel=9, data=[38, 0]),
   midi.NoteOnEvent(tick=0, channel=9, data=[42, 0]),
   midi.NoteOnEvent(tick=2, channel=9, data=[36, 110]),
   midi.NoteOnEvent(tick=0, channel=9, data=[42, 110]),
   midi.NoteOnEvent(tick=94, channel=9, data=[36, 0]),
   midi.NoteOnEvent(tick=0, channel=9, data=[42, 0]),
   midi.NoteOnEvent(tick=2, channel=9, data=[38, 110]),
   midi.NoteOnEvent(tick=0, channel=9, data=[42, 110]),
   midi.NoteOnEvent(tick=94, channel=9, data=[38, 0]),
   midi.NoteOnEvent(tick=0, channel=9, data=[42, 0]),
   midi.NoteOnEvent(tick=2, channel=9, data=[36, 110]),
   midi.NoteOnEvent(tick=0, channel=9, data=[42, 110]),
   midi.NoteOnEvent(tick=94, channel=9, data=[36, 0]),
   midi.NoteOnEvent(tick=0, channel=9, data=[42, 0]),
   midi.NoteOnEvent(tick=2, channel=9, data=[38, 110]),
   midi.NoteOnEvent(tick=0, channel=9, data=[42, 110]),
   midi.NoteOnEvent(tick=94, channel=9, data=[38, 0]),
   midi.NoteOnEvent(tick=0, channel=9, data=[42, 0]),
   midi.NoteOnEvent(tick=2, channel=9, data=[36, 110]),
   midi.NoteOnEvent(tick=0, channel=9, data=[42, 110]),
   midi.NoteOnEvent(tick=0, channel=9, data=[49, 110]),
   midi.NoteOnEvent(tick=94, channel=9, data=[36, 0]),
   midi.NoteOnEvent(tick=0, channel=9, data=[42, 0]),
   midi.NoteOnEvent(tick=0, channel=9, data=[49, 0]),
   midi.NoteOnEvent(tick=2, channel=9, data=[38, 110]),
   midi.NoteOnEvent(tick=0, channel=9, data=[42, 110]),
   midi.NoteOnEvent(tick=94, channel=9, data=[38, 0]),
   midi.NoteOnEvent(tick=0, channel=9, data=[42, 0]),
   midi.NoteOnEvent(tick=2, channel=9, data=[36, 110]),
   midi.NoteOnEvent(tick=0, channel=9, data=[42, 110]),
   midi.NoteOnEvent(tick=94, channel=9, data=[36, 0]),
   midi.NoteOnEvent(tick=0, channel=9, data=[42, 0]),
   midi.NoteOnEvent(tick=2, channel=9, data=[38, 110]),
   midi.NoteOnEvent(tick=0, channel=9, data=[42, 110]),
   midi.NoteOnEvent(tick=94, channel=9, data=[38, 0]),
   midi.NoteOnEvent(tick=0, channel=9, data=[42, 0]),
   midi.NoteOnEvent(tick=2, channel=9, data=[36, 110]),
   midi.NoteOnEvent(tick=0, channel=9, data=[42, 110]),
   midi.NoteOnEvent(tick=94, channel=9, data=[36, 0]),
   midi.NoteOnEvent(tick=0, channel=9, data=[42, 0]),
   midi.NoteOnEvent(tick=2, channel=9, data=[38, 110]),
   midi.NoteOnEvent(tick=0, channel=9, data=[42, 110]),
   midi.NoteOnEvent(tick=94, channel=9, data=[38, 0]),
   midi.NoteOnEvent(tick=0, channel=9, data=[42, 0]),
   midi.NoteOnEvent(tick=2, channel=9, data=[36, 110]),
   midi.NoteOnEvent(tick=0, channel=9, data=[42, 110]),
   midi.NoteOnEvent(tick=94, channel=9, data=[36, 0]),
   midi.NoteOnEvent(tick=0, channel=9, data=[42, 0]),
   midi.NoteOnEvent(tick=2, channel=9, data=[38, 110]),
   midi.NoteOnEvent(tick=0, channel=9, data=[42, 110]),
   midi.NoteOnEvent(tick=94, channel=9, data=[38, 0]),
   midi.NoteOnEvent(tick=0, channel=9, data=[42, 0]),
   midi.NoteOnEvent(tick=2, channel=9, data=[36, 110]),
   midi.NoteOnEvent(tick=0, channel=9, data=[38, 110]),
   midi.NoteOnEvent(tick=0, channel=9, data=[42, 110]),
   midi.NoteOnEvent(tick=0, channel=9, data=[49, 110]),
   midi.NoteOnEvent(tick=720, channel=9, data=[36, 0]),
   midi.NoteOnEvent(tick=0, channel=9, data=[38, 0]),
   midi.NoteOnEvent(tick=0, channel=9, data=[42, 0]),
   midi.NoteOnEvent(tick=0, channel=9, data=[49, 0]),
   midi.NoteOnEvent(tick=48, channel=9, data=[36, 110]),
   midi.NoteOnEvent(tick=0, channel=9, data=[38, 110]),
   midi.NoteOnEvent(tick=0, channel=9, data=[42, 110]),
   midi.NoteOnEvent(tick=0, channel=9, data=[49, 110]),
   midi.NoteOnEvent(tick=720, channel=9, data=[36, 0]),
   midi.NoteOnEvent(tick=0, channel=9, data=[38, 0]),
   midi.NoteOnEvent(tick=0, channel=9, data=[42, 0]),
   midi.NoteOnEvent(tick=0, channel=9, data=[49, 0]),
   midi.NoteOnEvent(tick=48, channel=9, data=[36, 110]),
   midi.NoteOnEvent(tick=0, channel=9, data=[38, 110]),
   midi.NoteOnEvent(tick=0, channel=9, data=[42, 110]),
   midi.NoteOnEvent(tick=0, channel=9, data=[49, 110]),
   midi.NoteOnEvent(tick=720, channel=9, data=[36, 0]),
   midi.NoteOnEvent(tick=0, channel=9, data=[38, 0]),
   midi.NoteOnEvent(tick=0, channel=9, data=[42, 0]),
   midi.NoteOnEvent(tick=0, channel=9, data=[49, 0]),
   midi.EndOfTrackEvent(tick=0, data=[])])])