midi.Pattern(format=1, resolution=120, tracks=\
[midi.Track(\
  [midi.KeySignatureEvent(tick=0, data=[1, 0]),
   midi.SmpteOffsetEvent(tick=0, data=[96, 0, 0, 0, 0]),
   midi.SetTempoEvent(tick=0, data=[7, 39, 14]),
   midi.TimeSignatureEvent(tick=0, data=[4, 2, 24, 8]),
   midi.SetTempoEvent(tick=60480, data=[11, 77, 132]),
   midi.TimeSignatureEvent(tick=0, data=[6, 3, 24, 8]),
   midi.TimeSignatureEvent(tick=27360, data=[2, 3, 24, 8]),
   midi.SetTempoEvent(tick=120, data=[7, 39, 14]),
   midi.TimeSignatureEvent(tick=0, data=[4, 2, 24, 8]),
   midi.TimeSignatureEvent(tick=960, data=[3, 2, 24, 8]),
   midi.TimeSignatureEvent(tick=360, data=[4, 2, 24, 8]),
   midi.EndOfTrackEvent(tick=0, data=[])]),
 midi.Track(\
  [midi.PortEvent(tick=0, data=[0]),
   midi.TrackNameEvent(tick=0, text='Guitar 1', data=[71, 117, 105, 116, 97, 114, 32, 49]),
   midi.ControlChangeEvent(tick=0, channel=0, data=[7, 30]),
   midi.ProgramChangeEvent(tick=0, channel=0, data=[30]),
   midi.NoteOnEvent(tick=0, channel=0, data=[40, 127]),
   midi.NoteOnEvent(tick=0, channel=0, data=[52, 127]),
   midi.ControlChangeEvent(tick=195, channel=0, data=[7, 31]),
   midi.ControlChangeEvent(tick=195, channel=0, data=[7, 32]),
   midi.ControlChangeEvent(tick=194, channel=0, data=[7, 33]),
   midi.ControlChangeEvent(tick=195, channel=0, data=[7, 34]),
   midi.NoteOnEvent(tick=181, channel=0, data=[40, 0]),
   midi.NoteOnEvent(tick=0, channel=0, data=[52, 0]),
   midi.NoteOnEvent(tick=0, channel=0, data=[50, 127]),
   midi.NoteOnEvent(tick=0, channel=0, data=[59, 127]),
   midi.ControlChangeEvent(tick=14, channel=0, data=[7, 35]),
   midi.ControlChangeEvent(tick=195, channel=0, data=[7, 36]),
   midi.ControlChangeEvent(tick=194, channel=0, data=[7, 37]),
   midi.NoteOnEvent(tick=77, channel=0, data=[50, 0]),
   midi.NoteOnEvent(tick=0, channel=0, data=[59, 0]),
   midi.NoteOnEvent(tick=0, channel=0, data=[51, 127]),
   midi.NoteOnEvent(tick=0, channel=0, data=[54, 127]),
   midi.ControlChangeEvent(tick=118, channel=0, data=[7, 38]),
   midi.ControlChangeEvent(tick=195, channel=0, data=[7, 39]),
   midi.NoteOnEvent(tick=167, channel=0, data=[51, 0]),
   midi.NoteOnEvent(tick=0, channel=0, data=[54, 0]),
   midi.NoteOnEvent(tick=0, channel=0, data=[40, 127]),
   midi.NoteOnEvent(tick=0, channel=0, data=[52, 127]),
   midi.ControlChangeEvent(tick=28, channel=0, data=[7, 40]),
   midi.ControlChangeEvent(tick=195, channel=0, data=[7, 41]),
   midi.ControlChangeEvent(tick=194, channel=0, data=[7, 42]),
   midi.ControlChangeEvent(tick=195, channel=0, data=[7, 43]),
   midi.ControlChangeEvent(tick=195, channel=0, data=[7, 44]),
   midi.NoteOnEvent(tick=153, channel=0, data=[40, 0]),
   midi.NoteOnEvent(tick=0, channel=0, data=[52, 0]),
   midi.NoteOnEvent(tick=0, channel=0, data=[50, 127]),
   midi.NoteOnEvent(tick=0, channel=0, data=[59, 127]),
   midi.ControlChangeEvent(tick=42, channel=0, data=[7, 45]),
   midi.ControlChangeEvent(tick=195, channel=0, data=[7, 46]),
   midi.ControlChangeEvent(tick=194, channel=0, data=[7, 47]),
   midi.NoteOnEvent(tick=49, channel=0, data=[50, 0]),
   midi.NoteOnEvent(tick=0, channel=0, data=[59, 0]),
   midi.NoteOnEvent(tick=0, channel=0, data=[51, 127]),
   midi.NoteOnEvent(tick=0, channel=0, data=[54, 127]),
   midi.ControlChangeEvent(tick=146, channel=0, data=[7, 48]),
   midi.ControlChangeEvent(tick=195, channel=0, data=[7, 49]),
   midi.NoteOnEvent(tick=139, channel=0, data=[51, 0]),
   midi.NoteOnEvent(tick=0, channel=0, data=[54, 0]),
   midi.NoteOnEvent(tick=0, channel=0, data=[40, 127]),
   midi.NoteOnEvent(tick=0, channel=0, data=[52, 127]),
   midi.ControlChangeEvent(tick=56, channel=0, data=[7, 50]),
   midi.ControlChangeEvent(tick=194, channel=0, data=[7, 51]),
   midi.ControlChangeEvent(tick=195, channel=0, data=[7, 52]),
   midi.ControlChangeEvent(tick=195, channel=0, data=[7, 53]),
   midi.ControlChangeEvent(tick=195, channel=0, data=[7, 54]),
   midi.NoteOnEvent(tick=125, channel=0, data=[40, 0]),
   midi.NoteOnEvent(tick=0, channel=0, data=[52, 0]),
   midi.NoteOnEvent(tick=0, channel=0, data=[50, 127]),
   midi.NoteOnEvent(tick=0, channel=0, data=[59, 127]),
   midi.ControlChangeEvent(tick=70, channel=0, data=[7, 55]),
   midi.ControlChangeEvent(tick=194, channel=0, data=[7, 56]),
   midi.ControlChangeEvent(tick=195, channel=0, data=[7, 57]),
   midi.NoteOnEvent(tick=21, channel=0, data=[50, 0]),
   midi.NoteOnEvent(tick=0, channel=0, data=[59, 0]),
   midi.NoteOnEvent(tick=0, channel=0, data=[51, 127]),
   midi.NoteOnEvent(tick=0, channel=0, data=[54, 127]),
   midi.ControlChangeEvent(tick=174, channel=0, data=[7, 58]),
   midi.ControlChangeEvent(tick=195, channel=0, data=[7, 59]),
   midi.NoteOnEvent(tick=111, channel=0, data=[51, 0]),
   midi.NoteOnEvent(tick=0, channel=0, data=[54, 0]),
   midi.NoteOnEvent(tick=0, channel=0, data=[40, 127]),
   midi.NoteOnEvent(tick=0, channel=0, data=[52, 127]),
   midi.ControlChangeEvent(tick=83, channel=0, data=[7, 60]),
   midi.ControlChangeEvent(tick=195, channel=0, data=[7, 61]),
   midi.ControlChangeEvent(tick=195, channel=0, data=[7, 62]),
   midi.ControlChangeEvent(tick=195, channel=0, data=[7, 63]),
   midi.ControlChangeEvent(tick=195, channel=0, data=[7, 64]),
   midi.NoteOnEvent(tick=97, channel=0, data=[40, 0]),
   midi.NoteOnEvent(tick=0, channel=0, data=[52, 0]),
   midi.NoteOnEvent(tick=0, channel=0, data=[50, 127]),
   midi.NoteOnEvent(tick=0, channel=0, data=[59, 127]),
   midi.ControlChangeEvent(tick=97, channel=0, data=[7, 65]),
   midi.ControlChangeEvent(tick=195, channel=0, data=[7, 66]),
   midi.NoteOnEvent(tick=188, channel=0, data=[50, 0]),
   midi.NoteOnEvent(tick=0, channel=0, data=[59, 0]),
   midi.NoteOnEvent(tick=0, channel=0, data=[51, 127]),
   midi.NoteOnEvent(tick=0, channel=0, data=[54, 127]),
   midi.ControlChangeEvent(tick=7, channel=0, data=[7, 67]),
   midi.ControlChangeEvent(tick=195, channel=0, data=[7, 68]),
   midi.ControlChangeEvent(tick=195, channel=0, data=[7, 69]),
   midi.NoteOnEvent(tick=83, channel=0, data=[51, 0]),
   midi.NoteOnEvent(tick=0, channel=0, data=[54, 0]),
   midi.NoteOnEvent(tick=0, channel=0, data=[40, 127]),
   midi.NoteOnEvent(tick=0, channel=0, data=[52, 127]),
   midi.ControlChangeEvent(tick=111, channel=0, data=[7, 70]),
   midi.ControlChangeEvent(tick=195, channel=0, data=[7, 71]),
   midi.ControlChangeEvent(tick=195, channel=0, data=[7, 72]),
   midi.ControlChangeEvent(tick=195, channel=0, data=[7, 73]),
   midi.ControlChangeEvent(tick=194, channel=0, data=[7, 74]),
   midi.NoteOnEvent(tick=70, channel=0, data=[40, 0]),
   midi.NoteOnEvent(tick=0, channel=0, data=[52, 0]),
   midi.NoteOnEvent(tick=0, channel=0, data=[50, 127]),
   midi.NoteOnEvent(tick=0, channel=0, data=[59, 127]),
   midi.ControlChangeEvent(tick=125, channel=0, data=[7, 75]),
   midi.ControlChangeEvent(tick=195, channel=0, data=[7, 76]),
   midi.NoteOnEvent(tick=160, channel=0, data=[50, 0]),
   midi.NoteOnEvent(tick=0, channel=0, data=[59, 0]),
   midi.NoteOnEvent(tick=0, channel=0, data=[51, 127]),
   midi.NoteOnEvent(tick=0, channel=0, data=[54, 127]),
   midi.ControlChangeEvent(tick=35, channel=0, data=[7, 77]),
   midi.ControlChangeEvent(tick=195, channel=0, data=[7, 78]),
   midi.ControlChangeEvent(tick=194, channel=0, data=[7, 79]),
   midi.NoteOnEvent(tick=56, channel=0, data=[51, 0]),
   midi.NoteOnEvent(tick=0, channel=0, data=[54, 0]),
   midi.NoteOnEvent(tick=0, channel=0, data=[40, 127]),
   midi.NoteOnEvent(tick=0, channel=0, data=[52, 127]),
   midi.ControlChangeEvent(tick=139, channel=0, data=[7, 80]),
   midi.ControlChangeEvent(tick=195, channel=0, data=[7, 81]),
   midi.ControlChangeEvent(tick=195, channel=0, data=[7, 82]),
   midi.ControlChangeEvent(tick=194, channel=0, data=[7, 83]),
   midi.ControlChangeEvent(tick=195, channel=0, data=[7, 84]),
   midi.NoteOnEvent(tick=42, channel=0, data=[40, 0]),
   midi.NoteOnEvent(tick=0, channel=0, data=[52, 0]),
   midi.NoteOnEvent(tick=0, channel=0, data=[50, 127]),
   midi.NoteOnEvent(tick=0, channel=0, data=[59, 127]),
   midi.ControlChangeEvent(tick=153, channel=0, data=[7, 85]),
   midi.ControlChangeEvent(tick=195, channel=0, data=[7, 86]),
   midi.NoteOnEvent(tick=132, channel=0, data=[50, 0]),
   midi.NoteOnEvent(tick=0, channel=0, data=[59, 0]),
   midi.NoteOnEvent(tick=0, channel=0, data=[51, 127]),
   midi.NoteOnEvent(tick=0, channel=0, data=[54, 127]),
   midi.ControlChangeEvent(tick=63, channel=0, data=[7, 87]),
   midi.ControlChangeEvent(tick=194, channel=0, data=[7, 88]),
   midi.ControlChangeEvent(tick=195, channel=0, data=[7, 89]),
   midi.NoteOnEvent(tick=28, channel=0, data=[51, 0]),
   midi.NoteOnEvent(tick=0, channel=0, data=[54, 0]),
   midi.NoteOnEvent(tick=0, channel=0, data=[40, 127]),
   midi.NoteOnEvent(tick=0, channel=0, data=[52, 127]),
   midi.ControlChangeEvent(tick=167, channel=0, data=[7, 90]),
   midi.ControlChangeEvent(tick=195, channel=0, data=[7, 91]),
   midi.ControlChangeEvent(tick=195, channel=0, data=[7, 92]),
   midi.ControlChangeEvent(tick=194, channel=0, data=[7, 93]),
   midi.ControlChangeEvent(tick=195, channel=0, data=[7, 94]),
   midi.NoteOnEvent(tick=14, channel=0, data=[40, 0]),
   midi.NoteOnEvent(tick=0, channel=0, data=[52, 0]),
   midi.NoteOnEvent(tick=0, channel=0, data=[50, 127]),
   midi.NoteOnEvent(tick=0, channel=0, data=[59, 127]),
   midi.ControlChangeEvent(tick=181, channel=0, data=[7, 95]),
   midi.ControlChangeEvent(tick=195, channel=0, data=[7, 96]),
   midi.NoteOnEvent(tick=104, channel=0, data=[50, 0]),
   midi.NoteOnEvent(tick=0, channel=0, data=[59, 0]),
   midi.NoteOnEvent(tick=0, channel=0, data=[51, 127]),
   midi.NoteOnEvent(tick=0, channel=0, data=[54, 127]),
   midi.ControlChangeEvent(tick=90, channel=0, data=[7, 97]),
   midi.ControlChangeEvent(tick=195, channel=0, data=[7, 98]),
   midi.NoteOnEvent(tick=195, channel=0, data=[51, 0]),
   midi.NoteOnEvent(tick=0, channel=0, data=[54, 0]),
   midi.ControlChangeEvent(tick=0, channel=0, data=[7, 99]),
   midi.NoteOnEvent(tick=0, channel=0, data=[40, 127]),
   midi.NoteOnEvent(tick=0, channel=0, data=[52, 127]),
   midi.NoteOnEvent(tick=960, channel=0, data=[40, 0]),
   midi.NoteOnEvent(tick=0, channel=0, data=[52, 0]),
   midi.NoteOnEvent(tick=0, channel=0, data=[50, 127]),
   midi.NoteOnEvent(tick=0, channel=0, data=[59, 127]),
   midi.NoteOnEvent(tick=480, channel=0, data=[50, 0]),
   midi.NoteOnEvent(tick=0, channel=0, data=[59, 0]),
   midi.NoteOnEvent(tick=0, channel=0, data=[51, 127]),
   midi.NoteOnEvent(tick=0, channel=0, data=[54, 127]),
   midi.NoteOnEvent(tick=480, channel=0, data=[51, 0]),
   midi.NoteOnEvent(tick=0, channel=0, data=[54, 0]),
   midi.NoteOnEvent(tick=11520, channel=0, data=[52, 127]),
   midi.NoteOnEvent(tick=30, channel=0, data=[52, 0]),
   midi.NoteOnEvent(tick=0, channel=0, data=[52, 127]),
   midi.NoteOnEvent(tick=30, channel=0, data=[52, 0]),
   midi.NoteOnEvent(tick=0, channel=0, data=[52, 127]),
   midi.NoteOnEvent(tick=30, channel=0, data=[52, 0]),
   midi.NoteOnEvent(tick=0, channel=0, data=[52, 127]),
   midi.NoteOnEvent(tick=30, channel=0, data=[52, 0]),
   midi.NoteOnEvent(tick=0, channel=0, data=[57, 127]),
   midi.NoteOnEvent(tick=60, channel=0, data=[57, 0]),
   midi.NoteOnEvent(tick=0, channel=0, data=[52, 127]),
   midi.NoteOnEvent(tick=30, channel=0, data=[52, 0]),
   midi.NoteOnEvent(tick=0, channel=0, data=[52, 127]),
   midi.NoteOnEvent(tick=30, channel=0, data=[52, 0]),
   midi.NoteOnEvent(tick=0, channel=0, data=[52, 127]),
   midi.NoteOnEvent(tick=30, channel=0, data=[52, 0]),
   midi.NoteOnEvent(tick=0, channel=0, data=[52, 127]),
   midi.NoteOnEvent(tick=30, channel=0, data=[52, 0]),
   midi.NoteOnEvent(tick=0, channel=0, data=[59, 127]),
   midi.NoteOnEvent(tick=60, channel=0, data=[59, 0]),
   midi.NoteOnEvent(tick=0, channel=0, data=[52, 127]),
   midi.NoteOnEvent(tick=30, channel=0, data=[52, 0]),
   midi.NoteOnEvent(tick=0, channel=0, data=[52, 127]),
   midi.NoteOnEvent(tick=30, channel=0, data=[52, 0]),
   midi.NoteOnEvent(tick=0, channel=0, data=[52, 127]),
   midi.NoteOnEvent(tick=30, channel=0, data=[52, 0]),
   midi.NoteOnEvent(tick=0, channel=0, data=[52, 127]),
   midi.NoteOnEvent(tick=30, channel=0, data=[52, 0]),
   midi.NoteOnEvent(tick=0, channel=0, data=[60, 127]),
   midi.NoteOnEvent(tick=60, channel=0, data=[60, 0]),
   midi.NoteOnEvent(tick=0, channel=0, data=[52, 127]),
   midi.NoteOnEvent(tick=30, channel=0, data=[52, 0]),
   midi.NoteOnEvent(tick=0, channel=0, data=[52, 127]),
   midi.NoteOnEvent(tick=30, channel=0, data=[52, 0]),
   midi.NoteOnEvent(tick=0, channel=0, data=[52, 127]),
   midi.NoteOnEvent(tick=30, channel=0, data=[52, 0]),
   midi.NoteOnEvent(tick=0, channel=0, data=[52, 127]),
   midi.NoteOnEvent(tick=30, channel=0, data=[52, 0]),
   midi.NoteOnEvent(tick=0, channel=0, data=[52, 127]),
   midi.NoteOnEvent(tick=60, channel=0, data=[52, 0]),
   midi.NoteOnEvent(tick=0, channel=0, data=[52, 127]),
   midi.NoteOnEvent(tick=30, channel=0, data=[52, 0]),
   midi.NoteOnEvent(tick=0, channel=0, data=[52, 127]),
   midi.NoteOnEvent(tick=30, channel=0, data=[52, 0]),
   midi.NoteOnEvent(tick=0, channel=0, data=[53, 127]),
   midi.NoteOnEvent(tick=60, channel=0, data=[53, 0]),
   midi.NoteOnEvent(tick=0, channel=0, data=[53, 127]),
   midi.NoteOnEvent(tick=30, channel=0, data=[53, 0]),
   midi.NoteOnEvent(tick=0, channel=0, data=[53, 127]),
   midi.NoteOnEvent(tick=90, channel=0, data=[53, 0]),
   midi.NoteOnEvent(tick=0, channel=0, data=[52, 127]),
   midi.NoteOnEvent(tick=30, channel=0, data=[52, 0]),
   midi.NoteOnEvent(tick=0, channel=0, data=[52, 127]),
   midi.NoteOnEvent(tick=30, channel=0, data=[52, 0]),
   midi.NoteOnEvent(tick=0, channel=0, data=[52, 127]),
   midi.NoteOnEvent(tick=30, channel=0, data=[52, 0]),
   midi.NoteOnEvent(tick=0, channel=0, data=[52, 127]),
   midi.NoteOnEvent(tick=30, channel=0, data=[52, 0]),
   midi.NoteOnEvent(tick=0, channel=0, data=[60, 127]),
   midi.NoteOnEvent(tick=60, channel=0, data=[60, 0]),
   midi.NoteOnEvent(tick=0, channel=0, data=[52, 127]),
   midi.NoteOnEvent(tick=30, channel=0, data=[52, 0]),
   midi.NoteOnEvent(tick=0, channel=0, data=[52, 127]),
   midi.NoteOnEvent(tick=30, channel=0, data=[52, 0]),
   midi.NoteOnEvent(tick=0, channel=0, data=[52, 127]),
   midi.NoteOnEvent(tick=30, channel=0, data=[52, 0]),
   midi.NoteOnEvent(tick=0, channel=0, data=[52, 127]),
   midi.NoteOnEvent(tick=30, channel=0, data=[52, 0]),
   midi.NoteOnEvent(tick=0, channel=0, data=[59, 127]),
   midi.NoteOnEvent(tick=60, channel=0, data=[59, 0]),
   midi.NoteOnEvent(tick=0, channel=0, data=[52, 127]),
   midi.NoteOnEvent(tick=30, channel=0, data=[52, 0]),
   midi.NoteOnEvent(tick=0, channel=0, data=[52, 127]),
   midi.NoteOnEvent(tick=30, channel=0, data=[52, 0]),
   midi.NoteOnEvent(tick=0, channel=0, data=[52, 127]),
   midi.NoteOnEvent(tick=30, channel=0, data=[52, 0]),
   midi.NoteOnEvent(tick=0, channel=0, data=[52, 127]),
   midi.NoteOnEvent(tick=30, channel=0, data=[52, 0]),
   midi.NoteOnEvent(tick=0, channel=0, data=[57, 127]),
   midi.NoteOnEvent(tick=60, channel=0, data=[57, 0]),
   midi.NoteOnEvent(tick=0, channel=0, data=[52, 127]),
   midi.NoteOnEvent(tick=30, channel=0, data=[52, 0]),
   midi.NoteOnEvent(tick=0, channel=0, data=[52, 127]),
   midi.NoteOnEvent(tick=30, channel=0, data=[52, 0]),
   midi.NoteOnEvent(tick=0, channel=0, data=[52, 127]),
   midi.NoteOnEvent(tick=30, channel=0, data=[52, 0]),
   midi.NoteOnEvent(tick=0, channel=0, data=[52, 127]),
   midi.NoteOnEvent(tick=30, channel=0, data=[52, 0]),
   midi.NoteOnEvent(tick=0, channel=0, data=[52, 127]),
   midi.NoteOnEvent(tick=60, channel=0, data=[52, 0]),
   midi.NoteOnEvent(tick=0, channel=0, data=[52, 127]),
   midi.NoteOnEvent(tick=30, channel=0, data=[52, 0]),
   midi.NoteOnEvent(tick=0, channel=0, data=[52, 127]),
   midi.NoteOnEvent(tick=30, channel=0, data=[52, 0]),
   midi.NoteOnEvent(tick=0, channel=0, data=[53, 127]),
   midi.NoteOnEvent(tick=60, channel=0, data=[53, 0]),
   midi.NoteOnEvent(tick=0, channel=0, data=[53, 127]),
   midi.NoteOnEvent(tick=30, channel=0, data=[53, 0]),
   midi.NoteOnEvent(tick=0, channel=0, data=[53, 127]),
   midi.NoteOnEvent(tick=30, channel=0, data=[53, 0]),
   midi.NoteOnEvent(tick=0, channel=0, data=[52, 127]),
   midi.NoteOnEvent(tick=60, channel=0, data=[52, 0]),
   midi.NoteOnEvent(tick=0, channel=0, data=[52, 127]),
   midi.NoteOnEvent(tick=30, channel=0, data=[52, 0]),
   midi.NoteOnEvent(tick=0, channel=0, data=[52, 127]),
   midi.NoteOnEvent(tick=30, channel=0, data=[52, 0]),
   midi.NoteOnEvent(tick=0, channel=0, data=[52, 127]),
   midi.NoteOnEvent(tick=30, channel=0, data=[52, 0]),
   midi.NoteOnEvent(tick=0, channel=0, data=[52, 127]),
   midi.NoteOnEvent(tick=30, channel=0, data=[52, 0]),
   midi.NoteOnEvent(tick=0, channel=0, data=[57, 127]),
   midi.NoteOnEvent(tick=60, channel=0, data=[57, 0]),
   midi.NoteOnEvent(tick=0, channel=0, data=[52, 127]),
   midi.NoteOnEvent(tick=30, channel=0, data=[52, 0]),
   midi.NoteOnEvent(tick=0, channel=0, data=[52, 127]),
   midi.NoteOnEvent(tick=30, channel=0, data=[52, 0]),
   midi.NoteOnEvent(tick=0, channel=0, data=[52, 127]),
   midi.NoteOnEvent(tick=30, channel=0, data=[52, 0]),
   midi.NoteOnEvent(tick=0, channel=0, data=[52, 127]),
   midi.NoteOnEvent(tick=30, channel=0, data=[52, 0]),
   midi.NoteOnEvent(tick=0, channel=0, data=[59, 127]),
   midi.NoteOnEvent(tick=60, channel=0, data=[59, 0]),
   midi.NoteOnEvent(tick=0, channel=0, data=[52, 127]),
   midi.NoteOnEvent(tick=30, channel=0, data=[52, 0]),
   midi.NoteOnEvent(tick=0, channel=0, data=[52, 127]),
   midi.NoteOnEvent(tick=30, channel=0, data=[52, 0]),
   midi.NoteOnEvent(tick=0, channel=0, data=[52, 127]),
   midi.NoteOnEvent(tick=30, channel=0, data=[52, 0]),
   midi.NoteOnEvent(tick=0, channel=0, data=[52, 127]),
   midi.NoteOnEvent(tick=30, channel=0, data=[52, 0]),
   midi.NoteOnEvent(tick=0, channel=0, data=[60, 127]),
   midi.NoteOnEvent(tick=60, channel=0, data=[60, 0]),
   midi.NoteOnEvent(tick=0, channel=0, data=[52, 127]),
   midi.NoteOnEvent(tick=30, channel=0, data=[52, 0]),
   midi.NoteOnEvent(tick=0, channel=0, data=[52, 127]),
   midi.NoteOnEvent(tick=30, channel=0, data=[52, 0]),
   midi.NoteOnEvent(tick=0, channel=0, data=[52, 127]),
   midi.NoteOnEvent(tick=30, channel=0, data=[52, 0]),
   midi.NoteOnEvent(tick=0, channel=0, data=[52, 127]),
   midi.NoteOnEvent(tick=30, channel=0, data=[52, 0]),
   midi.NoteOnEvent(tick=0, channel=0, data=[52, 127]),
   midi.NoteOnEvent(tick=60, channel=0, data=[52, 0]),
   midi.NoteOnEvent(tick=0, channel=0, data=[52, 127]),
   midi.NoteOnEvent(tick=30, channel=0, data=[52, 0]),
   midi.NoteOnEvent(tick=0, channel=0, data=[52, 127]),
   midi.NoteOnEvent(tick=30, channel=0, data=[52, 0]),
   midi.NoteOnEvent(tick=0, channel=0, data=[53, 127]),
   midi.NoteOnEvent(tick=60, channel=0, data=[53, 0]),
   midi.NoteOnEvent(tick=0, channel=0, data=[53, 127]),
   midi.NoteOnEvent(tick=30, channel=0, data=[53, 0]),
   midi.NoteOnEvent(tick=0, channel=0, data=[53, 127]),
   midi.NoteOnEvent(tick=90, channel=0, data=[53, 0]),
   midi.NoteOnEvent(tick=0, channel=0, data=[52, 127]),
   midi.NoteOnEvent(tick=30, channel=0, data=[52, 0]),
   midi.NoteOnEvent(tick=0, channel=0, data=[52, 127]),
   midi.NoteOnEvent(tick=30, channel=0, data=[52, 0]),
   midi.NoteOnEvent(tick=0, channel=0, data=[52, 127]),
   midi.NoteOnEvent(tick=30, channel=0, data=[52, 0]),
   midi.NoteOnEvent(tick=0, channel=0, data=[52, 127]),
   midi.NoteOnEvent(tick=30, channel=0, data=[52, 0]),
   midi.NoteOnEvent(tick=0, channel=0, data=[60, 127]),
   midi.NoteOnEvent(tick=60, channel=0, data=[60, 0]),
   midi.NoteOnEvent(tick=0, channel=0, data=[52, 127]),
   midi.NoteOnEvent(tick=30, channel=0, data=[52, 0]),
   midi.NoteOnEvent(tick=0, channel=0, data=[52, 127]),
   midi.NoteOnEvent(tick=30, channel=0, data=[52, 0]),
   midi.NoteOnEvent(tick=0, channel=0, data=[52, 127]),
   midi.NoteOnEvent(tick=30, channel=0, data=[52, 0]),
   midi.NoteOnEvent(tick=0, channel=0, data=[52, 127]),
   midi.NoteOnEvent(tick=30, channel=0, data=[52, 0]),
   midi.NoteOnEvent(tick=0, channel=0, data=[59, 127]),
   midi.NoteOnEvent(tick=60, channel=0, data=[59, 0]),
   midi.NoteOnEvent(tick=0, channel=0, data=[52, 127]),
   midi.NoteOnEvent(tick=30, channel=0, data=[52, 0]),
   midi.NoteOnEvent(tick=0, channel=0, data=[52, 127]),
   midi.NoteOnEvent(tick=30, channel=0, data=[52, 0]),
   midi.NoteOnEvent(tick=0, channel=0, data=[52, 127]),
   midi.NoteOnEvent(tick=30, channel=0, data=[52, 0]),
   midi.NoteOnEvent(tick=0, channel=0, data=[52, 127]),
   midi.NoteOnEvent(tick=30, channel=0, data=[52, 0]),
   midi.NoteOnEvent(tick=0, channel=0, data=[57, 127]),
   midi.NoteOnEvent(tick=60, channel=0, data=[57, 0]),
   midi.NoteOnEvent(tick=0, channel=0, data=[52, 127]),
   midi.NoteOnEvent(tick=30, channel=0, data=[52, 0]),
   midi.NoteOnEvent(tick=0, channel=0, data=[52, 127]),
   midi.NoteOnEvent(tick=30, channel=0, data=[52, 0]),
   midi.NoteOnEvent(tick=0, channel=0, data=[52, 127]),
   midi.NoteOnEvent(tick=30, channel=0, data=[52, 0]),
   midi.NoteOnEvent(tick=0, channel=0, data=[52, 127]),
   midi.NoteOnEvent(tick=30, channel=0, data=[52, 0]),
   midi.NoteOnEvent(tick=0, channel=0, data=[52, 127]),
   midi.NoteOnEvent(tick=60, channel=0, data=[52, 0]),
   midi.NoteOnEvent(tick=0, channel=0, data=[52, 127]),
   midi.NoteOnEvent(tick=30, channel=0, data=[52, 0]),
   midi.NoteOnEvent(tick=0, channel=0, data=[52, 127]),
   midi.NoteOnEvent(tick=30, channel=0, data=[52, 0]),
   midi.NoteOnEvent(tick=0, channel=0, data=[53, 127]),
   midi.NoteOnEvent(tick=60, channel=0, data=[53, 0]),
   midi.NoteOnEvent(tick=0, channel=0, data=[53, 127]),
   midi.NoteOnEvent(tick=30, channel=0, data=[53, 0]),
   midi.NoteOnEvent(tick=0, channel=0, data=[53, 127]),
   midi.NoteOnEvent(tick=30, channel=0, data=[53, 0]),
   midi.NoteOnEvent(tick=0, channel=0, data=[52, 127]),
   midi.NoteOnEvent(tick=60, channel=0, data=[52, 0]),
   midi.NoteOnEvent(tick=0, channel=0, data=[52, 127]),
   midi.NoteOnEvent(tick=30, channel=0, data=[52, 0]),
   midi.NoteOnEvent(tick=0, channel=0, data=[52, 127]),
   midi.NoteOnEvent(tick=30, channel=0, data=[52, 0]),
   midi.NoteOnEvent(tick=0, channel=0, data=[52, 127]),
   midi.NoteOnEvent(tick=30, channel=0, data=[52, 0]),
   midi.NoteOnEvent(tick=0, channel=0, data=[52, 127]),
   midi.NoteOnEvent(tick=30, channel=0, data=[52, 0]),
   midi.NoteOnEvent(tick=0, channel=0, data=[57, 127]),
   midi.NoteOnEvent(tick=60, channel=0, data=[57, 0]),
   midi.NoteOnEvent(tick=0, channel=0, data=[52, 127]),
   midi.NoteOnEvent(tick=30, channel=0, data=[52, 0]),
   midi.NoteOnEvent(tick=0, channel=0, data=[52, 127]),
   midi.NoteOnEvent(tick=30, channel=0, data=[52, 0]),
   midi.NoteOnEvent(tick=0, channel=0, data=[52, 127]),
   midi.NoteOnEvent(tick=30, channel=0, data=[52, 0]),
   midi.NoteOnEvent(tick=0, channel=0, data=[52, 127]),
   midi.NoteOnEvent(tick=30, channel=0, data=[52, 0]),
   midi.NoteOnEvent(tick=0, channel=0, data=[59, 127]),
   midi.NoteOnEvent(tick=60, channel=0, data=[59, 0]),
   midi.NoteOnEvent(tick=0, channel=0, data=[52, 127]),
   midi.NoteOnEvent(tick=30, channel=0, data=[52, 0]),
   midi.NoteOnEvent(tick=0, channel=0, data=[52, 127]),
   midi.NoteOnEvent(tick=30, channel=0, data=[52, 0]),
   midi.NoteOnEvent(tick=0, channel=0, data=[52, 127]),
   midi.NoteOnEvent(tick=30, channel=0, data=[52, 0]),
   midi.NoteOnEvent(tick=0, channel=0, data=[52, 127]),
   midi.NoteOnEvent(tick=30, channel=0, data=[52, 0]),
   midi.NoteOnEvent(tick=0, channel=0, data=[60, 127]),
   midi.NoteOnEvent(tick=60, channel=0, data=[60, 0]),
   midi.NoteOnEvent(tick=0, channel=0, data=[52, 127]),
   midi.NoteOnEvent(tick=30, channel=0, data=[52, 0]),
   midi.NoteOnEvent(tick=0, channel=0, data=[52, 127]),
   midi.NoteOnEvent(tick=30, channel=0, data=[52, 0]),
   midi.NoteOnEvent(tick=0, channel=0, data=[52, 127]),
   midi.NoteOnEvent(tick=30, channel=0, data=[52, 0]),
   midi.NoteOnEvent(tick=0, channel=0, data=[52, 127]),
   midi.NoteOnEvent(tick=30, channel=0, data=[52, 0]),
   midi.NoteOnEvent(tick=0, channel=0, data=[52, 127]),
   midi.NoteOnEvent(tick=60, channel=0, data=[52, 0]),
   midi.NoteOnEvent(tick=0, channel=0, data=[52, 127]),
   midi.NoteOnEvent(tick=30, channel=0, data=[52, 0]),
   midi.NoteOnEvent(tick=0, channel=0, data=[52, 127]),
   midi.NoteOnEvent(tick=30, channel=0, data=[52, 0]),
   midi.NoteOnEvent(tick=0, channel=0, data=[53, 127]),
   midi.NoteOnEvent(tick=60, channel=0, data=[53, 0]),
   midi.NoteOnEvent(tick=0, channel=0, data=[53, 127]),
   midi.NoteOnEvent(tick=30, channel=0, data=[53, 0]),
   midi.NoteOnEvent(tick=0, channel=0, data=[53, 127]),
   midi.NoteOnEvent(tick=90, channel=0, data=[53, 0]),
   midi.NoteOnEvent(tick=0, channel=0, data=[52, 127]),
   midi.NoteOnEvent(tick=30, channel=0, data=[52, 0]),
   midi.NoteOnEvent(tick=0, channel=0, data=[52, 127]),
   midi.NoteOnEvent(tick=30, channel=0, data=[52, 0]),
   midi.NoteOnEvent(tick=0, channel=0, data=[52, 127]),
   midi.NoteOnEvent(tick=30, channel=0, data=[52, 0]),
   midi.NoteOnEvent(tick=0, channel=0, data=[52, 127]),
   midi.NoteOnEvent(tick=30, channel=0, data=[52, 0]),
   midi.NoteOnEvent(tick=0, channel=0, data=[60, 127]),
   midi.NoteOnEvent(tick=60, channel=0, data=[60, 0]),
   midi.NoteOnEvent(tick=0, channel=0, data=[52, 127]),
   midi.NoteOnEvent(tick=30, channel=0, data=[52, 0]),
   midi.NoteOnEvent(tick=0, channel=0, data=[52, 127]),
   midi.NoteOnEvent(tick=30, channel=0, data=[52, 0]),
   midi.NoteOnEvent(tick=0, channel=0, data=[52, 127]),
   midi.NoteOnEvent(tick=30, channel=0, data=[52, 0]),
   midi.NoteOnEvent(tick=0, channel=0, data=[52, 127]),
   midi.NoteOnEvent(tick=30, channel=0, data=[52, 0]),
   midi.NoteOnEvent(tick=0, channel=0, data=[59, 127]),
   midi.NoteOnEvent(tick=60, channel=0, data=[59, 0]),
   midi.NoteOnEvent(tick=0, channel=0, data=[52, 127]),
   midi.NoteOnEvent(tick=30, channel=0, data=[52, 0]),
   midi.NoteOnEvent(tick=0, channel=0, data=[52, 127]),
   midi.NoteOnEvent(tick=30, channel=0, data=[52, 0]),
   midi.NoteOnEvent(tick=0, channel=0, data=[52, 127]),
   midi.NoteOnEvent(tick=30, channel=0, data=[52, 0]),
   midi.NoteOnEvent(tick=0, channel=0, data=[52, 127]),
   midi.NoteOnEvent(tick=30, channel=0, data=[52, 0]),
   midi.NoteOnEvent(tick=0, channel=0, data=[57, 127]),
   midi.NoteOnEvent(tick=60, channel=0, data=[57, 0]),
   midi.NoteOnEvent(tick=0, channel=0, data=[52, 127]),
   midi.NoteOnEvent(tick=30, channel=0, data=[52, 0]),
   midi.NoteOnEvent(tick=0, channel=0, data=[52, 127]),
   midi.NoteOnEvent(tick=30, channel=0, data=[52, 0]),
   midi.NoteOnEvent(tick=0, channel=0, data=[52, 127]),
   midi.NoteOnEvent(tick=30, channel=0, data=[52, 0]),
   midi.NoteOnEvent(tick=0, channel=0, data=[52, 127]),
   midi.NoteOnEvent(tick=30, channel=0, data=[52, 0]),
   midi.NoteOnEvent(tick=0, channel=0, data=[52, 127]),
   midi.NoteOnEvent(tick=60, channel=0, data=[52, 0]),
   midi.NoteOnEvent(tick=0, channel=0, data=[52, 127]),
   midi.NoteOnEvent(tick=30, channel=0, data=[52, 0]),
   midi.NoteOnEvent(tick=0, channel=0, data=[52, 127]),
   midi.NoteOnEvent(tick=30, channel=0, data=[52, 0]),
   midi.NoteOnEvent(tick=0, channel=0, data=[53, 127]),
   midi.NoteOnEvent(tick=60, channel=0, data=[53, 0]),
   midi.NoteOnEvent(tick=0, channel=0, data=[53, 127]),
   midi.NoteOnEvent(tick=30, channel=0, data=[53, 0]),
   midi.NoteOnEvent(tick=0, channel=0, data=[53, 127]),
   midi.NoteOnEvent(tick=30, channel=0, data=[53, 0]),
   midi.NoteOnEvent(tick=0, channel=0, data=[52, 127]),
   midi.NoteOnEvent(tick=60, channel=0, data=[52, 0]),
   midi.NoteOnEvent(tick=0, channel=0, data=[52, 127]),
   midi.NoteOnEvent(tick=30, channel=0, data=[52, 0]),
   midi.NoteOnEvent(tick=0, channel=0, data=[52, 127]),
   midi.NoteOnEvent(tick=30, channel=0, data=[52, 0]),
   midi.NoteOnEvent(tick=0, channel=0, data=[52, 127]),
   midi.NoteOnEvent(tick=30, channel=0, data=[52, 0]),
   midi.NoteOnEvent(tick=0, channel=0, data=[52, 127]),
   midi.NoteOnEvent(tick=30, channel=0, data=[52, 0]),
   midi.NoteOnEvent(tick=0, channel=0, data=[57, 127]),
   midi.NoteOnEvent(tick=60, channel=0, data=[57, 0]),
   midi.NoteOnEvent(tick=0, channel=0, data=[52, 127]),
   midi.NoteOnEvent(tick=30, channel=0, data=[52, 0]),
   midi.NoteOnEvent(tick=0, channel=0, data=[52, 127]),
   midi.NoteOnEvent(tick=30, channel=0, data=[52, 0]),
   midi.NoteOnEvent(tick=0, channel=0, data=[52, 127]),
   midi.NoteOnEvent(tick=30, channel=0, data=[52, 0]),
   midi.NoteOnEvent(tick=0, channel=0, data=[52, 127]),
   midi.NoteOnEvent(tick=30, channel=0, data=[52, 0]),
   midi.NoteOnEvent(tick=0, channel=0, data=[59, 127]),
   midi.NoteOnEvent(tick=60, channel=0, data=[59, 0]),
   midi.NoteOnEvent(tick=0, channel=0, data=[52, 127]),
   midi.NoteOnEvent(tick=30, channel=0, data=[52, 0]),
   midi.NoteOnEvent(tick=0, channel=0, data=[52, 127]),
   midi.NoteOnEvent(tick=30, channel=0, data=[52, 0]),
   midi.NoteOnEvent(tick=0, channel=0, data=[52, 127]),
   midi.NoteOnEvent(tick=30, channel=0, data=[52, 0]),
   midi.NoteOnEvent(tick=0, channel=0, data=[52, 127]),
   midi.NoteOnEvent(tick=30, channel=0, data=[52, 0]),
   midi.NoteOnEvent(tick=0, channel=0, data=[60, 127]),
   midi.NoteOnEvent(tick=60, channel=0, data=[60, 0]),
   midi.NoteOnEvent(tick=0, channel=0, data=[52, 127]),
   midi.NoteOnEvent(tick=30, channel=0, data=[52, 0]),
   midi.NoteOnEvent(tick=0, channel=0, data=[52, 127]),
   midi.NoteOnEvent(tick=30, channel=0, data=[52, 0]),
   midi.NoteOnEvent(tick=0, channel=0, data=[52, 127]),
   midi.NoteOnEvent(tick=30, channel=0, data=[52, 0]),
   midi.NoteOnEvent(tick=0, channel=0, data=[52, 127]),
   midi.NoteOnEvent(tick=30, channel=0, data=[52, 0]),
   midi.NoteOnEvent(tick=0, channel=0, data=[52, 127]),
   midi.NoteOnEvent(tick=60, channel=0, data=[52, 0]),
   midi.NoteOnEvent(tick=0, channel=0, data=[52, 127]),
   midi.NoteOnEvent(tick=30, channel=0, data=[52, 0]),
   midi.NoteOnEvent(tick=0, channel=0, data=[52, 127]),
   midi.NoteOnEvent(tick=30, channel=0, data=[52, 0]),
   midi.NoteOnEvent(tick=0, channel=0, data=[53, 127]),
   midi.NoteOnEvent(tick=60, channel=0, data=[53, 0]),
   midi.NoteOnEvent(tick=0, channel=0, data=[53, 127]),
   midi.NoteOnEvent(tick=30, channel=0, data=[53, 0]),
   midi.NoteOnEvent(tick=0, channel=0, data=[53, 127]),
   midi.NoteOnEvent(tick=90, channel=0, data=[53, 0]),
   midi.NoteOnEvent(tick=0, channel=0, data=[52, 127]),
   midi.NoteOnEvent(tick=30, channel=0, data=[52, 0]),
   midi.NoteOnEvent(tick=0, channel=0, data=[52, 127]),
   midi.NoteOnEvent(tick=30, channel=0, data=[52, 0]),
   midi.NoteOnEvent(tick=0, channel=0, data=[52, 127]),
   midi.NoteOnEvent(tick=30, channel=0, data=[52, 0]),
   midi.NoteOnEvent(tick=0, channel=0, data=[52, 127]),
   midi.NoteOnEvent(tick=30, channel=0, data=[52, 0]),
   midi.NoteOnEvent(tick=0, channel=0, data=[60, 127]),
   midi.NoteOnEvent(tick=60, channel=0, data=[60, 0]),
   midi.NoteOnEvent(tick=0, channel=0, data=[52, 127]),
   midi.NoteOnEvent(tick=30, channel=0, data=[52, 0]),
   midi.NoteOnEvent(tick=0, channel=0, data=[52, 127]),
   midi.NoteOnEvent(tick=30, channel=0, data=[52, 0]),
   midi.NoteOnEvent(tick=0, channel=0, data=[52, 127]),
   midi.NoteOnEvent(tick=30, channel=0, data=[52, 0]),
   midi.NoteOnEvent(tick=0, channel=0, data=[52, 127]),
   midi.NoteOnEvent(tick=30, channel=0, data=[52, 0]),
   midi.NoteOnEvent(tick=0, channel=0, data=[59, 127]),
   midi.NoteOnEvent(tick=60, channel=0, data=[59, 0]),
   midi.NoteOnEvent(tick=0, channel=0, data=[52, 127]),
   midi.NoteOnEvent(tick=30, channel=0, data=[52, 0]),
   midi.NoteOnEvent(tick=0, channel=0, data=[52, 127]),
   midi.NoteOnEvent(tick=30, channel=0, data=[52, 0]),
   midi.NoteOnEvent(tick=0, channel=0, data=[52, 127]),
   midi.NoteOnEvent(tick=30, channel=0, data=[52, 0]),
   midi.NoteOnEvent(tick=0, channel=0, data=[52, 127]),
   midi.NoteOnEvent(tick=30, channel=0, data=[52, 0]),
   midi.NoteOnEvent(tick=0, channel=0, data=[57, 127]),
   midi.NoteOnEvent(tick=60, channel=0, data=[57, 0]),
   midi.NoteOnEvent(tick=0, channel=0, data=[52, 127]),
   midi.NoteOnEvent(tick=30, channel=0, data=[52, 0]),
   midi.NoteOnEvent(tick=0, channel=0, data=[52, 127]),
   midi.NoteOnEvent(tick=30, channel=0, data=[52, 0]),
   midi.NoteOnEvent(tick=0, channel=0, data=[52, 127]),
   midi.NoteOnEvent(tick=30, channel=0, data=[52, 0]),
   midi.NoteOnEvent(tick=0, channel=0, data=[52, 127]),
   midi.NoteOnEvent(tick=30, channel=0, data=[52, 0]),
   midi.NoteOnEvent(tick=0, channel=0, data=[52, 127]),
   midi.NoteOnEvent(tick=60, channel=0, data=[52, 0]),
   midi.NoteOnEvent(tick=0, channel=0, data=[52, 127]),
   midi.NoteOnEvent(tick=30, channel=0, data=[52, 0]),
   midi.NoteOnEvent(tick=0, channel=0, data=[52, 127]),
   midi.NoteOnEvent(tick=30, channel=0, data=[52, 0]),
   midi.NoteOnEvent(tick=0, channel=0, data=[53, 127]),
   midi.NoteOnEvent(tick=60, channel=0, data=[53, 0]),
   midi.NoteOnEvent(tick=0, channel=0, data=[53, 127]),
   midi.NoteOnEvent(tick=30, channel=0, data=[53, 0]),
   midi.NoteOnEvent(tick=0, channel=0, data=[53, 127]),
   midi.NoteOnEvent(tick=30, channel=0, data=[53, 0]),
   midi.NoteOnEvent(tick=0, channel=0, data=[52, 127]),
   midi.NoteOnEvent(tick=60, channel=0, data=[52, 0]),
   midi.NoteOnEvent(tick=0, channel=0, data=[52, 127]),
   midi.NoteOnEvent(tick=120, channel=0, data=[52, 0]),
   midi.NoteOnEvent(tick=0, channel=0, data=[45, 127]),
   midi.NoteOnEvent(tick=0, channel=0, data=[52, 127]),
   midi.NoteOnEvent(tick=0, channel=0, data=[57, 127]),
   midi.NoteOnEvent(tick=60, channel=0, data=[45, 0]),
   midi.NoteOnEvent(tick=0, channel=0, data=[52, 0]),
   midi.NoteOnEvent(tick=0, channel=0, data=[57, 0]),
   midi.NoteOnEvent(tick=0, channel=0, data=[40, 127]),
   midi.NoteOnEvent(tick=30, channel=0, data=[40, 0]),
   midi.NoteOnEvent(tick=0, channel=0, data=[40, 127]),
   midi.NoteOnEvent(tick=30, channel=0, data=[40, 0]),
   midi.NoteOnEvent(tick=0, channel=0, data=[40, 127]),
   midi.NoteOnEvent(tick=30, channel=0, data=[40, 0]),
   midi.NoteOnEvent(tick=0, channel=0, data=[40, 127]),
   midi.NoteOnEvent(tick=30, channel=0, data=[40, 0]),
   midi.NoteOnEvent(tick=0, channel=0, data=[59, 127]),
   midi.NoteOnEvent(tick=0, channel=0, data=[52, 127]),
   midi.NoteOnEvent(tick=0, channel=0, data=[47, 127]),
   midi.NoteOnEvent(tick=60, channel=0, data=[59, 0]),
   midi.NoteOnEvent(tick=0, channel=0, data=[52, 0]),
   midi.NoteOnEvent(tick=0, channel=0, data=[47, 0]),
   midi.NoteOnEvent(tick=0, channel=0, data=[40, 127]),
   midi.NoteOnEvent(tick=30, channel=0, data=[40, 0]),
   midi.NoteOnEvent(tick=0, channel=0, data=[40, 127]),
   midi.NoteOnEvent(tick=30, channel=0, data=[40, 0]),
   midi.NoteOnEvent(tick=0, channel=0, data=[40, 127]),
   midi.NoteOnEvent(tick=30, channel=0, data=[40, 0]),
   midi.NoteOnEvent(tick=0, channel=0, data=[40, 127]),
   midi.NoteOnEvent(tick=30, channel=0, data=[40, 0]),
   midi.NoteOnEvent(tick=0, channel=0, data=[48, 127]),
   midi.NoteOnEvent(tick=0, channel=0, data=[55, 127]),
   midi.NoteOnEvent(tick=0, channel=0, data=[60, 127]),
   midi.NoteOnEvent(tick=60, channel=0, data=[48, 0]),
   midi.NoteOnEvent(tick=0, channel=0, data=[55, 0]),
   midi.NoteOnEvent(tick=0, channel=0, data=[60, 0]),
   midi.NoteOnEvent(tick=0, channel=0, data=[40, 127]),
   midi.NoteOnEvent(tick=30, channel=0, data=[40, 0]),
   midi.NoteOnEvent(tick=0, channel=0, data=[40, 127]),
   midi.NoteOnEvent(tick=30, channel=0, data=[40, 0]),
   midi.NoteOnEvent(tick=0, channel=0, data=[40, 127]),
   midi.NoteOnEvent(tick=30, channel=0, data=[40, 0]),
   midi.NoteOnEvent(tick=0, channel=0, data=[40, 127]),
   midi.NoteOnEvent(tick=30, channel=0, data=[40, 0]),
   midi.NoteOnEvent(tick=0, channel=0, data=[40, 127]),
   midi.NoteOnEvent(tick=60, channel=0, data=[40, 0]),
   midi.NoteOnEvent(tick=0, channel=0, data=[40, 127]),
   midi.NoteOnEvent(tick=30, channel=0, data=[40, 0]),
   midi.NoteOnEvent(tick=0, channel=0, data=[40, 127]),
   midi.NoteOnEvent(tick=30, channel=0, data=[40, 0]),
   midi.NoteOnEvent(tick=0, channel=0, data=[41, 127]),
   midi.NoteOnEvent(tick=60, channel=0, data=[41, 0]),
   midi.NoteOnEvent(tick=0, channel=0, data=[41, 127]),
   midi.NoteOnEvent(tick=30, channel=0, data=[41, 0]),
   midi.NoteOnEvent(tick=0, channel=0, data=[41, 127]),
   midi.NoteOnEvent(tick=30, channel=0, data=[41, 0]),
   midi.NoteOnEvent(tick=0, channel=0, data=[40, 127]),
   midi.NoteOnEvent(tick=60, channel=0, data=[40, 0]),
   midi.NoteOnEvent(tick=0, channel=0, data=[40, 127]),
   midi.NoteOnEvent(tick=60, channel=0, data=[40, 0]),
   midi.NoteOnEvent(tick=0, channel=0, data=[40, 127]),
   midi.NoteOnEvent(tick=30, channel=0, data=[40, 0]),
   midi.NoteOnEvent(tick=0, channel=0, data=[40, 127]),
   midi.NoteOnEvent(tick=30, channel=0, data=[40, 0]),
   midi.NoteOnEvent(tick=0, channel=0, data=[48, 127]),
   midi.NoteOnEvent(tick=0, channel=0, data=[55, 127]),
   midi.NoteOnEvent(tick=0, channel=0, data=[60, 127]),
   midi.NoteOnEvent(tick=60, channel=0, data=[48, 0]),
   midi.NoteOnEvent(tick=0, channel=0, data=[55, 0]),
   midi.NoteOnEvent(tick=0, channel=0, data=[60, 0]),
   midi.NoteOnEvent(tick=0, channel=0, data=[40, 127]),
   midi.NoteOnEvent(tick=30, channel=0, data=[40, 0]),
   midi.NoteOnEvent(tick=0, channel=0, data=[40, 127]),
   midi.NoteOnEvent(tick=30, channel=0, data=[40, 0]),
   midi.NoteOnEvent(tick=0, channel=0, data=[40, 127]),
   midi.NoteOnEvent(tick=30, channel=0, data=[40, 0]),
   midi.NoteOnEvent(tick=0, channel=0, data=[40, 127]),
   midi.NoteOnEvent(tick=30, channel=0, data=[40, 0]),
   midi.NoteOnEvent(tick=0, channel=0, data=[59, 127]),
   midi.NoteOnEvent(tick=0, channel=0, data=[52, 127]),
   midi.NoteOnEvent(tick=0, channel=0, data=[47, 127]),
   midi.NoteOnEvent(tick=60, channel=0, data=[59, 0]),
   midi.NoteOnEvent(tick=0, channel=0, data=[52, 0]),
   midi.NoteOnEvent(tick=0, channel=0, data=[47, 0]),
   midi.NoteOnEvent(tick=0, channel=0, data=[40, 127]),
   midi.NoteOnEvent(tick=30, channel=0, data=[40, 0]),
   midi.NoteOnEvent(tick=0, channel=0, data=[40, 127]),
   midi.NoteOnEvent(tick=30, channel=0, data=[40, 0]),
   midi.NoteOnEvent(tick=0, channel=0, data=[40, 127]),
   midi.NoteOnEvent(tick=30, channel=0, data=[40, 0]),
   midi.NoteOnEvent(tick=0, channel=0, data=[40, 127]),
   midi.NoteOnEvent(tick=30, channel=0, data=[40, 0]),
   midi.NoteOnEvent(tick=0, channel=0, data=[57, 127]),
   midi.NoteOnEvent(tick=0, channel=0, data=[52, 127]),
   midi.NoteOnEvent(tick=0, channel=0, data=[45, 127]),
   midi.NoteOnEvent(tick=60, channel=0, data=[57, 0]),
   midi.NoteOnEvent(tick=0, channel=0, data=[52, 0]),
   midi.NoteOnEvent(tick=0, channel=0, data=[45, 0]),
   midi.NoteOnEvent(tick=0, channel=0, data=[40, 127]),
   midi.NoteOnEvent(tick=30, channel=0, data=[40, 0]),
   midi.NoteOnEvent(tick=0, channel=0, data=[40, 127]),
   midi.NoteOnEvent(tick=30, channel=0, data=[40, 0]),
   midi.NoteOnEvent(tick=0, channel=0, data=[40, 127]),
   midi.NoteOnEvent(tick=30, channel=0, data=[40, 0]),
   midi.NoteOnEvent(tick=0, channel=0, data=[40, 127]),
   midi.NoteOnEvent(tick=30, channel=0, data=[40, 0]),
   midi.NoteOnEvent(tick=0, channel=0, data=[40, 127]),
   midi.NoteOnEvent(tick=60, channel=0, data=[40, 0]),
   midi.NoteOnEvent(tick=0, channel=0, data=[40, 127]),
   midi.NoteOnEvent(tick=30, channel=0, data=[40, 0]),
   midi.NoteOnEvent(tick=0, channel=0, data=[40, 127]),
   midi.NoteOnEvent(tick=30, channel=0, data=[40, 0]),
   midi.NoteOnEvent(tick=0, channel=0, data=[41, 127]),
   midi.NoteOnEvent(tick=60, channel=0, data=[41, 0]),
   midi.NoteOnEvent(tick=0, channel=0, data=[41, 127]),
   midi.NoteOnEvent(tick=30, channel=0, data=[41, 0]),
   midi.NoteOnEvent(tick=0, channel=0, data=[41, 127]),
   midi.NoteOnEvent(tick=30, channel=0, data=[41, 0]),
   midi.NoteOnEvent(tick=0, channel=0, data=[40, 127]),
   midi.NoteOnEvent(tick=60, channel=0, data=[40, 0]),
   midi.NoteOnEvent(tick=0, channel=0, data=[40, 127]),
   midi.NoteOnEvent(tick=60, channel=0, data=[40, 0]),
   midi.NoteOnEvent(tick=0, channel=0, data=[40, 127]),
   midi.NoteOnEvent(tick=30, channel=0, data=[40, 0]),
   midi.NoteOnEvent(tick=0, channel=0, data=[40, 127]),
   midi.NoteOnEvent(tick=30, channel=0, data=[40, 0]),
   midi.NoteOnEvent(tick=0, channel=0, data=[57, 127]),
   midi.NoteOnEvent(tick=0, channel=0, data=[52, 127]),
   midi.NoteOnEvent(tick=0, channel=0, data=[45, 127]),
   midi.NoteOnEvent(tick=60, channel=0, data=[57, 0]),
   midi.NoteOnEvent(tick=0, channel=0, data=[52, 0]),
   midi.NoteOnEvent(tick=0, channel=0, data=[45, 0]),
   midi.NoteOnEvent(tick=0, channel=0, data=[40, 127]),
   midi.NoteOnEvent(tick=30, channel=0, data=[40, 0]),
   midi.NoteOnEvent(tick=0, channel=0, data=[40, 127]),
   midi.NoteOnEvent(tick=30, channel=0, data=[40, 0]),
   midi.NoteOnEvent(tick=0, channel=0, data=[40, 127]),
   midi.NoteOnEvent(tick=30, channel=0, data=[40, 0]),
   midi.NoteOnEvent(tick=0, channel=0, data=[40, 127]),
   midi.NoteOnEvent(tick=30, channel=0, data=[40, 0]),
   midi.NoteOnEvent(tick=0, channel=0, data=[59, 127]),
   midi.NoteOnEvent(tick=0, channel=0, data=[52, 127]),
   midi.NoteOnEvent(tick=0, channel=0, data=[47, 127]),
   midi.NoteOnEvent(tick=60, channel=0, data=[59, 0]),
   midi.NoteOnEvent(tick=0, channel=0, data=[52, 0]),
   midi.NoteOnEvent(tick=0, channel=0, data=[47, 0]),
   midi.NoteOnEvent(tick=0, channel=0, data=[40, 127]),
   midi.NoteOnEvent(tick=30, channel=0, data=[40, 0]),
   midi.NoteOnEvent(tick=0, channel=0, data=[40, 127]),
   midi.NoteOnEvent(tick=30, channel=0, data=[40, 0]),
   midi.NoteOnEvent(tick=0, channel=0, data=[40, 127]),
   midi.NoteOnEvent(tick=30, channel=0, data=[40, 0]),
   midi.NoteOnEvent(tick=0, channel=0, data=[40, 127]),
   midi.NoteOnEvent(tick=30, channel=0, data=[40, 0]),
   midi.NoteOnEvent(tick=0, channel=0, data=[60, 127]),
   midi.NoteOnEvent(tick=0, channel=0, data=[55, 127]),
   midi.NoteOnEvent(tick=0, channel=0, data=[48, 127]),
   midi.NoteOnEvent(tick=60, channel=0, data=[60, 0]),
   midi.NoteOnEvent(tick=0, channel=0, data=[55, 0]),
   midi.NoteOnEvent(tick=0, channel=0, data=[48, 0]),
   midi.NoteOnEvent(tick=0, channel=0, data=[40, 127]),
   midi.NoteOnEvent(tick=30, channel=0, data=[40, 0]),
   midi.NoteOnEvent(tick=0, channel=0, data=[40, 127]),
   midi.NoteOnEvent(tick=30, channel=0, data=[40, 0]),
   midi.NoteOnEvent(tick=0, channel=0, data=[40, 127]),
   midi.NoteOnEvent(tick=30, channel=0, data=[40, 0]),
   midi.NoteOnEvent(tick=0, channel=0, data=[40, 127]),
   midi.NoteOnEvent(tick=30, channel=0, data=[40, 0]),
   midi.NoteOnEvent(tick=0, channel=0, data=[40, 127]),
   midi.NoteOnEvent(tick=60, channel=0, data=[40, 0]),
   midi.NoteOnEvent(tick=0, channel=0, data=[40, 127]),
   midi.NoteOnEvent(tick=30, channel=0, data=[40, 0]),
   midi.NoteOnEvent(tick=0, channel=0, data=[40, 127]),
   midi.NoteOnEvent(tick=30, channel=0, data=[40, 0]),
   midi.NoteOnEvent(tick=0, channel=0, data=[41, 127]),
   midi.NoteOnEvent(tick=60, channel=0, data=[41, 0]),
   midi.NoteOnEvent(tick=0, channel=0, data=[41, 127]),
   midi.NoteOnEvent(tick=30, channel=0, data=[41, 0]),
   midi.NoteOnEvent(tick=0, channel=0, data=[41, 127]),
   midi.NoteOnEvent(tick=30, channel=0, data=[41, 0]),
   midi.NoteOnEvent(tick=0, channel=0, data=[40, 127]),
   midi.NoteOnEvent(tick=60, channel=0, data=[40, 0]),
   midi.NoteOnEvent(tick=0, channel=0, data=[40, 127]),
   midi.NoteOnEvent(tick=60, channel=0, data=[40, 0]),
   midi.NoteOnEvent(tick=0, channel=0, data=[40, 127]),
   midi.NoteOnEvent(tick=30, channel=0, data=[40, 0]),
   midi.NoteOnEvent(tick=0, channel=0, data=[40, 127]),
   midi.NoteOnEvent(tick=30, channel=0, data=[40, 0]),
   midi.NoteOnEvent(tick=0, channel=0, data=[60, 127]),
   midi.NoteOnEvent(tick=0, channel=0, data=[55, 127]),
   midi.NoteOnEvent(tick=0, channel=0, data=[48, 127]),
   midi.NoteOnEvent(tick=60, channel=0, data=[60, 0]),
   midi.NoteOnEvent(tick=0, channel=0, data=[55, 0]),
   midi.NoteOnEvent(tick=0, channel=0, data=[48, 0]),
   midi.NoteOnEvent(tick=0, channel=0, data=[40, 127]),
   midi.NoteOnEvent(tick=30, channel=0, data=[40, 0]),
   midi.NoteOnEvent(tick=0, channel=0, data=[40, 127]),
   midi.NoteOnEvent(tick=30, channel=0, data=[40, 0]),
   midi.NoteOnEvent(tick=0, channel=0, data=[40, 127]),
   midi.NoteOnEvent(tick=30, channel=0, data=[40, 0]),
   midi.NoteOnEvent(tick=0, channel=0, data=[40, 127]),
   midi.NoteOnEvent(tick=30, channel=0, data=[40, 0]),
   midi.NoteOnEvent(tick=0, channel=0, data=[59, 127]),
   midi.NoteOnEvent(tick=0, channel=0, data=[52, 127]),
   midi.NoteOnEvent(tick=0, channel=0, data=[47, 127]),
   midi.NoteOnEvent(tick=60, channel=0, data=[59, 0]),
   midi.NoteOnEvent(tick=0, channel=0, data=[52, 0]),
   midi.NoteOnEvent(tick=0, channel=0, data=[47, 0]),
   midi.NoteOnEvent(tick=0, channel=0, data=[40, 127]),
   midi.NoteOnEvent(tick=30, channel=0, data=[40, 0]),
   midi.NoteOnEvent(tick=0, channel=0, data=[40, 127]),
   midi.NoteOnEvent(tick=30, channel=0, data=[40, 0]),
   midi.NoteOnEvent(tick=0, channel=0, data=[40, 127]),
   midi.NoteOnEvent(tick=30, channel=0, data=[40, 0]),
   midi.NoteOnEvent(tick=0, channel=0, data=[40, 127]),
   midi.NoteOnEvent(tick=30, channel=0, data=[40, 0]),
   midi.NoteOnEvent(tick=0, channel=0, data=[57, 127]),
   midi.NoteOnEvent(tick=0, channel=0, data=[52, 127]),
   midi.NoteOnEvent(tick=0, channel=0, data=[45, 127]),
   midi.NoteOnEvent(tick=60, channel=0, data=[57, 0]),
   midi.NoteOnEvent(tick=0, channel=0, data=[52, 0]),
   midi.NoteOnEvent(tick=0, channel=0, data=[45, 0]),
   midi.NoteOnEvent(tick=0, channel=0, data=[40, 127]),
   midi.NoteOnEvent(tick=30, channel=0, data=[40, 0]),
   midi.NoteOnEvent(tick=0, channel=0, data=[40, 127]),
   midi.NoteOnEvent(tick=30, channel=0, data=[40, 0]),
   midi.NoteOnEvent(tick=0, channel=0, data=[40, 127]),
   midi.NoteOnEvent(tick=30, channel=0, data=[40, 0]),
   midi.NoteOnEvent(tick=0, channel=0, data=[40, 127]),
   midi.NoteOnEvent(tick=30, channel=0, data=[40, 0]),
   midi.NoteOnEvent(tick=0, channel=0, data=[40, 127]),
   midi.NoteOnEvent(tick=60, channel=0, data=[40, 0]),
   midi.NoteOnEvent(tick=0, channel=0, data=[40, 127]),
   midi.NoteOnEvent(tick=30, channel=0, data=[40, 0]),
   midi.NoteOnEvent(tick=0, channel=0, data=[40, 127]),
   midi.NoteOnEvent(tick=30, channel=0, data=[40, 0]),
   midi.NoteOnEvent(tick=0, channel=0, data=[41, 127]),
   midi.NoteOnEvent(tick=60, channel=0, data=[41, 0]),
   midi.NoteOnEvent(tick=0, channel=0, data=[41, 127]),
   midi.NoteOnEvent(tick=30, channel=0, data=[41, 0]),
   midi.NoteOnEvent(tick=0, channel=0, data=[41, 127]),
   midi.NoteOnEvent(tick=30, channel=0, data=[41, 0]),
   midi.NoteOnEvent(tick=0, channel=0, data=[40, 127]),
   midi.NoteOnEvent(tick=60, channel=0, data=[40, 0]),
   midi.NoteOnEvent(tick=0, channel=0, data=[40, 127]),
   midi.NoteOnEvent(tick=60, channel=0, data=[40, 0]),
   midi.NoteOnEvent(tick=0, channel=0, data=[40, 127]),
   midi.NoteOnEvent(tick=30, channel=0, data=[40, 0]),
   midi.NoteOnEvent(tick=0, channel=0, data=[40, 127]),
   midi.NoteOnEvent(tick=30, channel=0, data=[40, 0]),
   midi.NoteOnEvent(tick=0, channel=0, data=[57, 127]),
   midi.NoteOnEvent(tick=0, channel=0, data=[52, 127]),
   midi.NoteOnEvent(tick=0, channel=0, data=[45, 127]),
   midi.NoteOnEvent(tick=60, channel=0, data=[57, 0]),
   midi.NoteOnEvent(tick=0, channel=0, data=[52, 0]),
   midi.NoteOnEvent(tick=0, channel=0, data=[45, 0]),
   midi.NoteOnEvent(tick=0, channel=0, data=[40, 127]),
   midi.NoteOnEvent(tick=30, channel=0, data=[40, 0]),
   midi.NoteOnEvent(tick=0, channel=0, data=[40, 127]),
   midi.NoteOnEvent(tick=30, channel=0, data=[40, 0]),
   midi.NoteOnEvent(tick=0, channel=0, data=[40, 127]),
   midi.NoteOnEvent(tick=30, channel=0, data=[40, 0]),
   midi.NoteOnEvent(tick=0, channel=0, data=[40, 127]),
   midi.NoteOnEvent(tick=30, channel=0, data=[40, 0]),
   midi.NoteOnEvent(tick=0, channel=0, data=[59, 127]),
   midi.NoteOnEvent(tick=0, channel=0, data=[52, 127]),
   midi.NoteOnEvent(tick=0, channel=0, data=[47, 127]),
   midi.NoteOnEvent(tick=60, channel=0, data=[59, 0]),
   midi.NoteOnEvent(tick=0, channel=0, data=[52, 0]),
   midi.NoteOnEvent(tick=0, channel=0, data=[47, 0]),
   midi.NoteOnEvent(tick=0, channel=0, data=[40, 127]),
   midi.NoteOnEvent(tick=30, channel=0, data=[40, 0]),
   midi.NoteOnEvent(tick=0, channel=0, data=[40, 127]),
   midi.NoteOnEvent(tick=30, channel=0, data=[40, 0]),
   midi.NoteOnEvent(tick=0, channel=0, data=[40, 127]),
   midi.NoteOnEvent(tick=30, channel=0, data=[40, 0]),
   midi.NoteOnEvent(tick=0, channel=0, data=[40, 127]),
   midi.NoteOnEvent(tick=30, channel=0, data=[40, 0]),
   midi.NoteOnEvent(tick=0, channel=0, data=[60, 127]),
   midi.NoteOnEvent(tick=0, channel=0, data=[55, 127]),
   midi.NoteOnEvent(tick=0, channel=0, data=[48, 127]),
   midi.NoteOnEvent(tick=60, channel=0, data=[60, 0]),
   midi.NoteOnEvent(tick=0, channel=0, data=[55, 0]),
   midi.NoteOnEvent(tick=0, channel=0, data=[48, 0]),
   midi.NoteOnEvent(tick=0, channel=0, data=[40, 127]),
   midi.NoteOnEvent(tick=30, channel=0, data=[40, 0]),
   midi.NoteOnEvent(tick=0, channel=0, data=[40, 127]),
   midi.NoteOnEvent(tick=30, channel=0, data=[40, 0]),
   midi.NoteOnEvent(tick=0, channel=0, data=[40, 127]),
   midi.NoteOnEvent(tick=30, channel=0, data=[40, 0]),
   midi.NoteOnEvent(tick=0, channel=0, data=[40, 127]),
   midi.NoteOnEvent(tick=30, channel=0, data=[40, 0]),
   midi.NoteOnEvent(tick=0, channel=0, data=[40, 127]),
   midi.NoteOnEvent(tick=60, channel=0, data=[40, 0]),
   midi.NoteOnEvent(tick=0, channel=0, data=[40, 127]),
   midi.NoteOnEvent(tick=30, channel=0, data=[40, 0]),
   midi.NoteOnEvent(tick=0, channel=0, data=[40, 127]),
   midi.NoteOnEvent(tick=30, channel=0, data=[40, 0]),
   midi.NoteOnEvent(tick=0, channel=0, data=[41, 127]),
   midi.NoteOnEvent(tick=60, channel=0, data=[41, 0]),
   midi.NoteOnEvent(tick=0, channel=0, data=[41, 127]),
   midi.NoteOnEvent(tick=30, channel=0, data=[41, 0]),
   midi.NoteOnEvent(tick=0, channel=0, data=[41, 127]),
   midi.NoteOnEvent(tick=30, channel=0, data=[41, 0]),
   midi.NoteOnEvent(tick=0, channel=0, data=[40, 127]),
   midi.NoteOnEvent(tick=60, channel=0, data=[40, 0]),
   midi.NoteOnEvent(tick=0, channel=0, data=[40, 127]),
   midi.NoteOnEvent(tick=60, channel=0, data=[40, 0]),
   midi.NoteOnEvent(tick=0, channel=0, data=[40, 127]),
   midi.NoteOnEvent(tick=30, channel=0, data=[40, 0]),
   midi.NoteOnEvent(tick=0, channel=0, data=[40, 127]),
   midi.NoteOnEvent(tick=30, channel=0, data=[40, 0]),
   midi.NoteOnEvent(tick=0, channel=0, data=[60, 127]),
   midi.NoteOnEvent(tick=0, channel=0, data=[55, 127]),
   midi.NoteOnEvent(tick=0, channel=0, data=[48, 127]),
   midi.NoteOnEvent(tick=60, channel=0, data=[60, 0]),
   midi.NoteOnEvent(tick=0, channel=0, data=[55, 0]),
   midi.NoteOnEvent(tick=0, channel=0, data=[48, 0]),
   midi.NoteOnEvent(tick=0, channel=0, data=[40, 127]),
   midi.NoteOnEvent(tick=30, channel=0, data=[40, 0]),
   midi.NoteOnEvent(tick=0, channel=0, data=[40, 127]),
   midi.NoteOnEvent(tick=30, channel=0, data=[40, 0]),
   midi.NoteOnEvent(tick=0, channel=0, data=[40, 127]),
   midi.NoteOnEvent(tick=30, channel=0, data=[40, 0]),
   midi.NoteOnEvent(tick=0, channel=0, data=[40, 127]),
   midi.NoteOnEvent(tick=30, channel=0, data=[40, 0]),
   midi.NoteOnEvent(tick=0, channel=0, data=[59, 127]),
   midi.NoteOnEvent(tick=0, channel=0, data=[52, 127]),
   midi.NoteOnEvent(tick=0, channel=0, data=[47, 127]),
   midi.NoteOnEvent(tick=60, channel=0, data=[59, 0]),
   midi.NoteOnEvent(tick=0, channel=0, data=[52, 0]),
   midi.NoteOnEvent(tick=0, channel=0, data=[47, 0]),
   midi.NoteOnEvent(tick=0, channel=0, data=[40, 127]),
   midi.NoteOnEvent(tick=30, channel=0, data=[40, 0]),
   midi.NoteOnEvent(tick=0, channel=0, data=[40, 127]),
   midi.NoteOnEvent(tick=30, channel=0, data=[40, 0]),
   midi.NoteOnEvent(tick=0, channel=0, data=[40, 127]),
   midi.NoteOnEvent(tick=30, channel=0, data=[40, 0]),
   midi.NoteOnEvent(tick=0, channel=0, data=[40, 127]),
   midi.NoteOnEvent(tick=30, channel=0, data=[40, 0]),
   midi.NoteOnEvent(tick=0, channel=0, data=[57, 127]),
   midi.NoteOnEvent(tick=0, channel=0, data=[52, 127]),
   midi.NoteOnEvent(tick=0, channel=0, data=[45, 127]),
   midi.NoteOnEvent(tick=60, channel=0, data=[57, 0]),
   midi.NoteOnEvent(tick=0, channel=0, data=[52, 0]),
   midi.NoteOnEvent(tick=0, channel=0, data=[45, 0]),
   midi.NoteOnEvent(tick=0, channel=0, data=[40, 127]),
   midi.NoteOnEvent(tick=30, channel=0, data=[40, 0]),
   midi.NoteOnEvent(tick=0, channel=0, data=[40, 127]),
   midi.NoteOnEvent(tick=30, channel=0, data=[40, 0]),
   midi.NoteOnEvent(tick=0, channel=0, data=[40, 127]),
   midi.NoteOnEvent(tick=30, channel=0, data=[40, 0]),
   midi.NoteOnEvent(tick=0, channel=0, data=[40, 127]),
   midi.NoteOnEvent(tick=30, channel=0, data=[40, 0]),
   midi.NoteOnEvent(tick=0, channel=0, data=[40, 127]),
   midi.NoteOnEvent(tick=60, channel=0, data=[40, 0]),
   midi.NoteOnEvent(tick=0, channel=0, data=[40, 127]),
   midi.NoteOnEvent(tick=30, channel=0, data=[40, 0]),
   midi.NoteOnEvent(tick=0, channel=0, data=[40, 127]),
   midi.NoteOnEvent(tick=30, channel=0, data=[40, 0]),
   midi.NoteOnEvent(tick=0, channel=0, data=[41, 127]),
   midi.NoteOnEvent(tick=60, channel=0, data=[41, 0]),
   midi.NoteOnEvent(tick=0, channel=0, data=[41, 127]),
   midi.NoteOnEvent(tick=30, channel=0, data=[41, 0]),
   midi.NoteOnEvent(tick=0, channel=0, data=[41, 127]),
   midi.NoteOnEvent(tick=30, channel=0, data=[41, 0]),
   midi.NoteOnEvent(tick=0, channel=0, data=[40, 127]),
   midi.NoteOnEvent(tick=60, channel=0, data=[40, 0]),
   midi.NoteOnEvent(tick=0, channel=0, data=[40, 127]),
   midi.NoteOnEvent(tick=60, channel=0, data=[40, 0]),
   midi.NoteOnEvent(tick=0, channel=0, data=[40, 127]),
   midi.NoteOnEvent(tick=30, channel=0, data=[40, 0]),
   midi.NoteOnEvent(tick=0, channel=0, data=[40, 127]),
   midi.NoteOnEvent(tick=30, channel=0, data=[40, 0]),
   midi.NoteOnEvent(tick=0, channel=0, data=[57, 127]),
   midi.NoteOnEvent(tick=0, channel=0, data=[52, 127]),
   midi.NoteOnEvent(tick=0, channel=0, data=[45, 127]),
   midi.NoteOnEvent(tick=60, channel=0, data=[57, 0]),
   midi.NoteOnEvent(tick=0, channel=0, data=[52, 0]),
   midi.NoteOnEvent(tick=0, channel=0, data=[45, 0]),
   midi.NoteOnEvent(tick=0, channel=0, data=[40, 127]),
   midi.NoteOnEvent(tick=30, channel=0, data=[40, 0]),
   midi.NoteOnEvent(tick=0, channel=0, data=[40, 127]),
   midi.NoteOnEvent(tick=30, channel=0, data=[40, 0]),
   midi.NoteOnEvent(tick=0, channel=0, data=[40, 127]),
   midi.NoteOnEvent(tick=30, channel=0, data=[40, 0]),
   midi.NoteOnEvent(tick=0, channel=0, data=[40, 127]),
   midi.NoteOnEvent(tick=30, channel=0, data=[40, 0]),
   midi.NoteOnEvent(tick=0, channel=0, data=[59, 127]),
   midi.NoteOnEvent(tick=0, channel=0, data=[52, 127]),
   midi.NoteOnEvent(tick=0, channel=0, data=[47, 127]),
   midi.NoteOnEvent(tick=60, channel=0, data=[59, 0]),
   midi.NoteOnEvent(tick=0, channel=0, data=[52, 0]),
   midi.NoteOnEvent(tick=0, channel=0, data=[47, 0]),
   midi.NoteOnEvent(tick=0, channel=0, data=[40, 127]),
   midi.NoteOnEvent(tick=30, channel=0, data=[40, 0]),
   midi.NoteOnEvent(tick=0, channel=0, data=[40, 127]),
   midi.NoteOnEvent(tick=30, channel=0, data=[40, 0]),
   midi.NoteOnEvent(tick=0, channel=0, data=[40, 127]),
   midi.NoteOnEvent(tick=30, channel=0, data=[40, 0]),
   midi.NoteOnEvent(tick=0, channel=0, data=[40, 127]),
   midi.NoteOnEvent(tick=30, channel=0, data=[40, 0]),
   midi.NoteOnEvent(tick=0, channel=0, data=[60, 127]),
   midi.NoteOnEvent(tick=0, channel=0, data=[55, 127]),
   midi.NoteOnEvent(tick=0, channel=0, data=[48, 127]),
   midi.NoteOnEvent(tick=60, channel=0, data=[60, 0]),
   midi.NoteOnEvent(tick=0, channel=0, data=[55, 0]),
   midi.NoteOnEvent(tick=0, channel=0, data=[48, 0]),
   midi.NoteOnEvent(tick=0, channel=0, data=[40, 127]),
   midi.NoteOnEvent(tick=30, channel=0, data=[40, 0]),
   midi.NoteOnEvent(tick=0, channel=0, data=[40, 127]),
   midi.NoteOnEvent(tick=30, channel=0, data=[40, 0]),
   midi.NoteOnEvent(tick=0, channel=0, data=[40, 127]),
   midi.NoteOnEvent(tick=30, channel=0, data=[40, 0]),
   midi.NoteOnEvent(tick=0, channel=0, data=[40, 127]),
   midi.NoteOnEvent(tick=30, channel=0, data=[40, 0]),
   midi.NoteOnEvent(tick=0, channel=0, data=[40, 127]),
   midi.NoteOnEvent(tick=60, channel=0, data=[40, 0]),
   midi.NoteOnEvent(tick=0, channel=0, data=[40, 127]),
   midi.NoteOnEvent(tick=30, channel=0, data=[40, 0]),
   midi.NoteOnEvent(tick=0, channel=0, data=[40, 127]),
   midi.NoteOnEvent(tick=30, channel=0, data=[40, 0]),
   midi.NoteOnEvent(tick=0, channel=0, data=[41, 127]),
   midi.NoteOnEvent(tick=60, channel=0, data=[41, 0]),
   midi.NoteOnEvent(tick=0, channel=0, data=[41, 127]),
   midi.NoteOnEvent(tick=30, channel=0, data=[41, 0]),
   midi.NoteOnEvent(tick=0, channel=0, data=[41, 127]),
   midi.NoteOnEvent(tick=30, channel=0, data=[41, 0]),
   midi.NoteOnEvent(tick=0, channel=0, data=[40, 127]),
   midi.NoteOnEvent(tick=60, channel=0, data=[40, 0]),
   midi.NoteOnEvent(tick=0, channel=0, data=[40, 127]),
   midi.NoteOnEvent(tick=60, channel=0, data=[40, 0]),
   midi.NoteOnEvent(tick=0, channel=0, data=[40, 127]),
   midi.NoteOnEvent(tick=30, channel=0, data=[40, 0]),
   midi.NoteOnEvent(tick=0, channel=0, data=[40, 127]),
   midi.NoteOnEvent(tick=30, channel=0, data=[40, 0]),
   midi.NoteOnEvent(tick=0, channel=0, data=[60, 127]),
   midi.NoteOnEvent(tick=0, channel=0, data=[55, 127]),
   midi.NoteOnEvent(tick=0, channel=0, data=[48, 127]),
   midi.NoteOnEvent(tick=60, channel=0, data=[60, 0]),
   midi.NoteOnEvent(tick=0, channel=0, data=[55, 0]),
   midi.NoteOnEvent(tick=0, channel=0, data=[48, 0]),
   midi.NoteOnEvent(tick=0, channel=0, data=[40, 127]),
   midi.NoteOnEvent(tick=30, channel=0, data=[40, 0]),
   midi.NoteOnEvent(tick=0, channel=0, data=[40, 127]),
   midi.NoteOnEvent(tick=30, channel=0, data=[40, 0]),
   midi.NoteOnEvent(tick=0, channel=0, data=[40, 127]),
   midi.NoteOnEvent(tick=30, channel=0, data=[40, 0]),
   midi.NoteOnEvent(tick=0, channel=0, data=[40, 127]),
   midi.NoteOnEvent(tick=30, channel=0, data=[40, 0]),
   midi.NoteOnEvent(tick=0, channel=0, data=[59, 127]),
   midi.NoteOnEvent(tick=0, channel=0, data=[52, 127]),
   midi.NoteOnEvent(tick=0, channel=0, data=[47, 127]),
   midi.NoteOnEvent(tick=60, channel=0, data=[59, 0]),
   midi.NoteOnEvent(tick=0, channel=0, data=[52, 0]),
   midi.NoteOnEvent(tick=0, channel=0, data=[47, 0]),
   midi.NoteOnEvent(tick=0, channel=0, data=[40, 127]),
   midi.NoteOnEvent(tick=30, channel=0, data=[40, 0]),
   midi.NoteOnEvent(tick=0, channel=0, data=[40, 127]),
   midi.NoteOnEvent(tick=30, channel=0, data=[40, 0]),
   midi.NoteOnEvent(tick=0, channel=0, data=[40, 127]),
   midi.NoteOnEvent(tick=30, channel=0, data=[40, 0]),
   midi.NoteOnEvent(tick=0, channel=0, data=[40, 127]),
   midi.NoteOnEvent(tick=30, channel=0, data=[40, 0]),
   midi.NoteOnEvent(tick=0, channel=0, data=[57, 127]),
   midi.NoteOnEvent(tick=0, channel=0, data=[52, 127]),
   midi.NoteOnEvent(tick=0, channel=0, data=[45, 127]),
   midi.NoteOnEvent(tick=60, channel=0, data=[57, 0]),
   midi.NoteOnEvent(tick=0, channel=0, data=[52, 0]),
   midi.NoteOnEvent(tick=0, channel=0, data=[45, 0]),
   midi.NoteOnEvent(tick=0, channel=0, data=[40, 127]),
   midi.NoteOnEvent(tick=30, channel=0, data=[40, 0]),
   midi.NoteOnEvent(tick=0, channel=0, data=[40, 127]),
   midi.NoteOnEvent(tick=30, channel=0, data=[40, 0]),
   midi.NoteOnEvent(tick=0, channel=0, data=[40, 127]),
   midi.NoteOnEvent(tick=30, channel=0, data=[40, 0]),
   midi.NoteOnEvent(tick=0, channel=0, data=[40, 127]),
   midi.NoteOnEvent(tick=30, channel=0, data=[40, 0]),
   midi.NoteOnEvent(tick=0, channel=0, data=[40, 127]),
   midi.NoteOnEvent(tick=60, channel=0, data=[40, 0]),
   midi.NoteOnEvent(tick=0, channel=0, data=[40, 127]),
   midi.NoteOnEvent(tick=30, channel=0, data=[40, 0]),
   midi.NoteOnEvent(tick=0, channel=0, data=[40, 127]),
   midi.NoteOnEvent(tick=30, channel=0, data=[40, 0]),
   midi.NoteOnEvent(tick=0, channel=0, data=[41, 127]),
   midi.NoteOnEvent(tick=60, channel=0, data=[41, 0]),
   midi.NoteOnEvent(tick=0, channel=0, data=[41, 127]),
   midi.NoteOnEvent(tick=30, channel=0, data=[41, 0]),
   midi.NoteOnEvent(tick=0, channel=0, data=[41, 127]),
   midi.NoteOnEvent(tick=30, channel=0, data=[41, 0]),
   midi.NoteOnEvent(tick=0, channel=0, data=[40, 127]),
   midi.NoteOnEvent(tick=60, channel=0, data=[40, 0]),
   midi.NoteOnEvent(tick=3960, channel=0, data=[54, 127]),
   midi.NoteOnEvent(tick=20, channel=0, data=[54, 0]),
   midi.NoteOnEvent(tick=0, channel=0, data=[55, 127]),
   midi.NoteOnEvent(tick=20, channel=0, data=[55, 0]),
   midi.NoteOnEvent(tick=0, channel=0, data=[54, 127]),
   midi.NoteOnEvent(tick=20, channel=0, data=[54, 0]),
   midi.NoteOnEvent(tick=0, channel=0, data=[52, 127]),
   midi.NoteOnEvent(tick=60, channel=0, data=[52, 0]),
   midi.NoteOnEvent(tick=0, channel=0, data=[54, 127]),
   midi.NoteOnEvent(tick=60, channel=0, data=[54, 0]),
   midi.NoteOnEvent(tick=0, channel=0, data=[54, 127]),
   midi.NoteOnEvent(tick=20, channel=0, data=[54, 0]),
   midi.NoteOnEvent(tick=0, channel=0, data=[55, 127]),
   midi.NoteOnEvent(tick=20, channel=0, data=[55, 0]),
   midi.NoteOnEvent(tick=0, channel=0, data=[54, 127]),
   midi.NoteOnEvent(tick=20, channel=0, data=[54, 0]),
   midi.NoteOnEvent(tick=0, channel=0, data=[52, 127]),
   midi.ControlChangeEvent(tick=120, channel=0, data=[1, 0]),
   midi.ControlChangeEvent(tick=1, channel=0, data=[1, 6]),
   midi.ControlChangeEvent(tick=1, channel=0, data=[1, 13]),
   midi.ControlChangeEvent(tick=1, channel=0, data=[1, 19]),
   midi.ControlChangeEvent(tick=1, channel=0, data=[1, 26]),
   midi.ControlChangeEvent(tick=1, channel=0, data=[1, 32]),
   midi.ControlChangeEvent(tick=1, channel=0, data=[1, 38]),
   midi.ControlChangeEvent(tick=1, channel=0, data=[1, 45]),
   midi.ControlChangeEvent(tick=1, channel=0, data=[1, 51]),
   midi.ControlChangeEvent(tick=1, channel=0, data=[1, 58]),
   midi.ControlChangeEvent(tick=1, channel=0, data=[1, 64]),
   midi.NoteOnEvent(tick=110, channel=0, data=[52, 0]),
   midi.ControlChangeEvent(tick=0, channel=0, data=[1, 0]),
   midi.NoteOnEvent(tick=0, channel=0, data=[54, 127]),
   midi.NoteOnEvent(tick=20, channel=0, data=[54, 0]),
   midi.NoteOnEvent(tick=0, channel=0, data=[55, 127]),
   midi.NoteOnEvent(tick=20, channel=0, data=[55, 0]),
   midi.NoteOnEvent(tick=0, channel=0, data=[54, 127]),
   midi.NoteOnEvent(tick=20, channel=0, data=[54, 0]),
   midi.NoteOnEvent(tick=0, channel=0, data=[52, 127]),
   midi.NoteOnEvent(tick=60, channel=0, data=[52, 0]),
   midi.NoteOnEvent(tick=0, channel=0, data=[54, 127]),
   midi.NoteOnEvent(tick=60, channel=0, data=[54, 0]),
   midi.NoteOnEvent(tick=0, channel=0, data=[54, 127]),
   midi.NoteOnEvent(tick=20, channel=0, data=[54, 0]),
   midi.NoteOnEvent(tick=0, channel=0, data=[55, 127]),
   midi.NoteOnEvent(tick=20, channel=0, data=[55, 0]),
   midi.NoteOnEvent(tick=0, channel=0, data=[54, 127]),
   midi.NoteOnEvent(tick=20, channel=0, data=[54, 0]),
   midi.NoteOnEvent(tick=0, channel=0, data=[52, 127]),
   midi.NoteOnEvent(tick=180, channel=0, data=[52, 0]),
   midi.NoteOnEvent(tick=120, channel=0, data=[55, 127]),
   midi.NoteOnEvent(tick=60, channel=0, data=[55, 0]),
   midi.NoteOnEvent(tick=0, channel=0, data=[55, 127]),
   midi.NoteOnEvent(tick=60, channel=0, data=[55, 0]),
   midi.NoteOnEvent(tick=0, channel=0, data=[54, 127]),
   midi.NoteOnEvent(tick=60, channel=0, data=[54, 0]),
   midi.ControlChangeEvent(tick=0, channel=0, data=[1, 0]),
   midi.NoteOnEvent(tick=0, channel=0, data=[50, 127]),
   midi.ControlChangeEvent(tick=1, channel=0, data=[1, 6]),
   midi.ControlChangeEvent(tick=1, channel=0, data=[1, 13]),
   midi.ControlChangeEvent(tick=1, channel=0, data=[1, 19]),
   midi.ControlChangeEvent(tick=1, channel=0, data=[1, 26]),
   midi.ControlChangeEvent(tick=1, channel=0, data=[1, 32]),
   midi.ControlChangeEvent(tick=1, channel=0, data=[1, 38]),
   midi.ControlChangeEvent(tick=1, channel=0, data=[1, 45]),
   midi.ControlChangeEvent(tick=1, channel=0, data=[1, 51]),
   midi.ControlChangeEvent(tick=1, channel=0, data=[1, 58]),
   midi.ControlChangeEvent(tick=1, channel=0, data=[1, 64]),
   midi.NoteOnEvent(tick=110, channel=0, data=[50, 0]),
   midi.ControlChangeEvent(tick=0, channel=0, data=[1, 0]),
   midi.NoteOnEvent(tick=180, channel=0, data=[55, 127]),
   midi.NoteOnEvent(tick=60, channel=0, data=[55, 0]),
   midi.NoteOnEvent(tick=0, channel=0, data=[55, 127]),
   midi.NoteOnEvent(tick=60, channel=0, data=[55, 0]),
   midi.NoteOnEvent(tick=0, channel=0, data=[54, 127]),
   midi.NoteOnEvent(tick=60, channel=0, data=[54, 0]),
   midi.ControlChangeEvent(tick=0, channel=0, data=[1, 0]),
   midi.NoteOnEvent(tick=0, channel=0, data=[54, 127]),
   midi.ControlChangeEvent(tick=1, channel=0, data=[1, 6]),
   midi.ControlChangeEvent(tick=1, channel=0, data=[1, 13]),
   midi.ControlChangeEvent(tick=1, channel=0, data=[1, 19]),
   midi.ControlChangeEvent(tick=1, channel=0, data=[1, 26]),
   midi.ControlChangeEvent(tick=1, channel=0, data=[1, 32]),
   midi.ControlChangeEvent(tick=1, channel=0, data=[1, 38]),
   midi.ControlChangeEvent(tick=1, channel=0, data=[1, 45]),
   midi.ControlChangeEvent(tick=1, channel=0, data=[1, 51]),
   midi.ControlChangeEvent(tick=1, channel=0, data=[1, 58]),
   midi.ControlChangeEvent(tick=1, channel=0, data=[1, 64]),
   midi.NoteOnEvent(tick=230, channel=0, data=[54, 0]),
   midi.ControlChangeEvent(tick=0, channel=0, data=[1, 0]),
   midi.NoteOnEvent(tick=0, channel=0, data=[54, 127]),
   midi.NoteOnEvent(tick=20, channel=0, data=[54, 0]),
   midi.NoteOnEvent(tick=0, channel=0, data=[55, 127]),
   midi.NoteOnEvent(tick=20, channel=0, data=[55, 0]),
   midi.NoteOnEvent(tick=0, channel=0, data=[54, 127]),
   midi.NoteOnEvent(tick=20, channel=0, data=[54, 0]),
   midi.NoteOnEvent(tick=0, channel=0, data=[52, 127]),
   midi.NoteOnEvent(tick=60, channel=0, data=[52, 0]),
   midi.NoteOnEvent(tick=0, channel=0, data=[54, 127]),
   midi.NoteOnEvent(tick=60, channel=0, data=[54, 0]),
   midi.NoteOnEvent(tick=0, channel=0, data=[54, 127]),
   midi.NoteOnEvent(tick=20, channel=0, data=[54, 0]),
   midi.NoteOnEvent(tick=0, channel=0, data=[55, 127]),
   midi.NoteOnEvent(tick=20, channel=0, data=[55, 0]),
   midi.NoteOnEvent(tick=0, channel=0, data=[54, 127]),
   midi.NoteOnEvent(tick=20, channel=0, data=[54, 0]),
   midi.NoteOnEvent(tick=0, channel=0, data=[52, 127]),
   midi.NoteOnEvent(tick=240, channel=0, data=[52, 0]),
   midi.NoteOnEvent(tick=0, channel=0, data=[54, 127]),
   midi.NoteOnEvent(tick=20, channel=0, data=[54, 0]),
   midi.NoteOnEvent(tick=0, channel=0, data=[55, 127]),
   midi.NoteOnEvent(tick=20, channel=0, data=[55, 0]),
   midi.NoteOnEvent(tick=0, channel=0, data=[54, 127]),
   midi.NoteOnEvent(tick=20, channel=0, data=[54, 0]),
   midi.NoteOnEvent(tick=0, channel=0, data=[52, 127]),
   midi.NoteOnEvent(tick=60, channel=0, data=[52, 0]),
   midi.NoteOnEvent(tick=0, channel=0, data=[54, 127]),
   midi.NoteOnEvent(tick=60, channel=0, data=[54, 0]),
   midi.NoteOnEvent(tick=0, channel=0, data=[54, 127]),
   midi.NoteOnEvent(tick=20, channel=0, data=[54, 0]),
   midi.NoteOnEvent(tick=0, channel=0, data=[55, 127]),
   midi.NoteOnEvent(tick=20, channel=0, data=[55, 0]),
   midi.NoteOnEvent(tick=0, channel=0, data=[54, 127]),
   midi.NoteOnEvent(tick=20, channel=0, data=[54, 0]),
   midi.NoteOnEvent(tick=0, channel=0, data=[52, 127]),
   midi.NoteOnEvent(tick=120, channel=0, data=[52, 0]),
   midi.NoteOnEvent(tick=180, channel=0, data=[55, 127]),
   midi.NoteOnEvent(tick=60, channel=0, data=[55, 0]),
   midi.NoteOnEvent(tick=0, channel=0, data=[55, 127]),
   midi.NoteOnEvent(tick=60, channel=0, data=[55, 0]),
   midi.NoteOnEvent(tick=0, channel=0, data=[54, 127]),
   midi.NoteOnEvent(tick=60, channel=0, data=[54, 0]),
   midi.NoteOnEvent(tick=0, channel=0, data=[50, 127]),
   midi.NoteOnEvent(tick=120, channel=0, data=[50, 0]),
   midi.NoteOnEvent(tick=180, channel=0, data=[55, 127]),
   midi.NoteOnEvent(tick=60, channel=0, data=[55, 0]),
   midi.NoteOnEvent(tick=0, channel=0, data=[55, 127]),
   midi.NoteOnEvent(tick=60, channel=0, data=[55, 0]),
   midi.NoteOnEvent(tick=0, channel=0, data=[54, 127]),
   midi.NoteOnEvent(tick=60, channel=0, data=[54, 0]),
   midi.NoteOnEvent(tick=0, channel=0, data=[54, 127]),
   midi.NoteOnEvent(tick=120, channel=0, data=[54, 0]),
   midi.NoteOnEvent(tick=0, channel=0, data=[54, 127]),
   midi.NoteOnEvent(tick=30, channel=0, data=[54, 0]),
   midi.NoteOnEvent(tick=0, channel=0, data=[52, 127]),
   midi.NoteOnEvent(tick=450, channel=0, data=[52, 0]),
   midi.PitchWheelEvent(tick=12960, channel=0, data=[0, 64]),
   midi.NoteOnEvent(tick=0, channel=0, data=[64, 127]),
   midi.PitchWheelEvent(tick=1, channel=0, data=[68, 64]),
   midi.PitchWheelEvent(tick=1, channel=0, data=[9, 65]),
   midi.PitchWheelEvent(tick=1, channel=0, data=[77, 65]),
   midi.PitchWheelEvent(tick=1, channel=0, data=[17, 66]),
   midi.PitchWheelEvent(tick=1, channel=0, data=[85, 66]),
   midi.PitchWheelEvent(tick=1, channel=0, data=[26, 67]),
   midi.PitchWheelEvent(tick=1, channel=0, data=[94, 67]),
   midi.PitchWheelEvent(tick=1, channel=0, data=[34, 68]),
   midi.PitchWheelEvent(tick=1, channel=0, data=[102, 68]),
   midi.PitchWheelEvent(tick=1, channel=0, data=[43, 69]),
   midi.PitchWheelEvent(tick=1, channel=0, data=[111, 69]),
   midi.PitchWheelEvent(tick=1, channel=0, data=[51, 70]),
   midi.PitchWheelEvent(tick=1, channel=0, data=[119, 70]),
   midi.PitchWheelEvent(tick=1, channel=0, data=[60, 71]),
   midi.PitchWheelEvent(tick=1, channel=0, data=[0, 72]),
   midi.PitchWheelEvent(tick=1, channel=0, data=[68, 72]),
   midi.PitchWheelEvent(tick=1, channel=0, data=[8, 73]),
   midi.PitchWheelEvent(tick=1, channel=0, data=[77, 73]),
   midi.PitchWheelEvent(tick=1, channel=0, data=[17, 74]),
   midi.PitchWheelEvent(tick=1, channel=0, data=[85, 74]),
   midi.PitchWheelEvent(tick=1, channel=0, data=[25, 75]),
   midi.PitchWheelEvent(tick=1, channel=0, data=[94, 75]),
   midi.PitchWheelEvent(tick=1, channel=0, data=[34, 76]),
   midi.PitchWheelEvent(tick=1, channel=0, data=[102, 76]),
   midi.PitchWheelEvent(tick=1, channel=0, data=[42, 77]),
   midi.PitchWheelEvent(tick=1, channel=0, data=[111, 77]),
   midi.PitchWheelEvent(tick=1, channel=0, data=[51, 78]),
   midi.PitchWheelEvent(tick=1, channel=0, data=[119, 78]),
   midi.PitchWheelEvent(tick=1, channel=0, data=[59, 79]),
   midi.PitchWheelEvent(tick=1, channel=0, data=[0, 80]),
   midi.PitchWheelEvent(tick=1, channel=0, data=[68, 80]),
   midi.PitchWheelEvent(tick=1, channel=0, data=[8, 81]),
   midi.PitchWheelEvent(tick=1, channel=0, data=[77, 81]),
   midi.PitchWheelEvent(tick=1, channel=0, data=[17, 82]),
   midi.PitchWheelEvent(tick=1, channel=0, data=[85, 82]),
   midi.PitchWheelEvent(tick=1, channel=0, data=[25, 83]),
   midi.PitchWheelEvent(tick=1, channel=0, data=[94, 83]),
   midi.PitchWheelEvent(tick=1, channel=0, data=[34, 84]),
   midi.PitchWheelEvent(tick=1, channel=0, data=[102, 84]),
   midi.PitchWheelEvent(tick=1, channel=0, data=[42, 85]),
   midi.PitchWheelEvent(tick=1, channel=0, data=[111, 85]),
   midi.PitchWheelEvent(tick=1, channel=0, data=[51, 86]),
   midi.PitchWheelEvent(tick=1, channel=0, data=[119, 86]),
   midi.PitchWheelEvent(tick=1, channel=0, data=[59, 87]),
   midi.PitchWheelEvent(tick=1, channel=0, data=[0, 88]),
   midi.PitchWheelEvent(tick=1, channel=0, data=[68, 88]),
   midi.PitchWheelEvent(tick=1, channel=0, data=[8, 89]),
   midi.PitchWheelEvent(tick=1, channel=0, data=[76, 89]),
   midi.PitchWheelEvent(tick=1, channel=0, data=[17, 90]),
   midi.PitchWheelEvent(tick=1, channel=0, data=[85, 90]),
   midi.PitchWheelEvent(tick=1, channel=0, data=[25, 91]),
   midi.PitchWheelEvent(tick=1, channel=0, data=[93, 91]),
   midi.PitchWheelEvent(tick=1, channel=0, data=[34, 92]),
   midi.PitchWheelEvent(tick=1, channel=0, data=[102, 92]),
   midi.PitchWheelEvent(tick=1, channel=0, data=[42, 93]),
   midi.PitchWheelEvent(tick=1, channel=0, data=[110, 93]),
   midi.PitchWheelEvent(tick=1, channel=0, data=[51, 94]),
   midi.PitchWheelEvent(tick=1, channel=0, data=[119, 94]),
   midi.PitchWheelEvent(tick=1, channel=0, data=[59, 95]),
   midi.PitchWheelEvent(tick=1, channel=0, data=[0, 96]),
   midi.PitchWheelEvent(tick=1, channel=0, data=[68, 96]),
   midi.PitchWheelEvent(tick=1, channel=0, data=[8, 97]),
   midi.PitchWheelEvent(tick=1, channel=0, data=[76, 97]),
   midi.PitchWheelEvent(tick=1, channel=0, data=[17, 98]),
   midi.PitchWheelEvent(tick=1, channel=0, data=[85, 98]),
   midi.PitchWheelEvent(tick=1, channel=0, data=[25, 99]),
   midi.PitchWheelEvent(tick=1, channel=0, data=[93, 99]),
   midi.PitchWheelEvent(tick=1, channel=0, data=[34, 100]),
   midi.PitchWheelEvent(tick=1, channel=0, data=[102, 100]),
   midi.PitchWheelEvent(tick=1, channel=0, data=[42, 101]),
   midi.PitchWheelEvent(tick=1, channel=0, data=[110, 101]),
   midi.PitchWheelEvent(tick=1, channel=0, data=[51, 102]),
   midi.PitchWheelEvent(tick=1, channel=0, data=[119, 102]),
   midi.PitchWheelEvent(tick=1, channel=0, data=[59, 103]),
   midi.PitchWheelEvent(tick=1, channel=0, data=[127, 103]),
   midi.PitchWheelEvent(tick=1, channel=0, data=[68, 104]),
   midi.PitchWheelEvent(tick=1, channel=0, data=[8, 105]),
   midi.PitchWheelEvent(tick=1, channel=0, data=[76, 105]),
   midi.PitchWheelEvent(tick=1, channel=0, data=[16, 106]),
   midi.PitchWheelEvent(tick=1, channel=0, data=[85, 106]),
   midi.PitchWheelEvent(tick=1, channel=0, data=[25, 107]),
   midi.PitchWheelEvent(tick=1, channel=0, data=[93, 107]),
   midi.PitchWheelEvent(tick=1, channel=0, data=[33, 108]),
   midi.PitchWheelEvent(tick=1, channel=0, data=[102, 108]),
   midi.PitchWheelEvent(tick=1, channel=0, data=[42, 109]),
   midi.PitchWheelEvent(tick=1, channel=0, data=[110, 109]),
   midi.PitchWheelEvent(tick=1, channel=0, data=[50, 110]),
   midi.PitchWheelEvent(tick=1, channel=0, data=[119, 110]),
   midi.PitchWheelEvent(tick=1, channel=0, data=[59, 111]),
   midi.PitchWheelEvent(tick=1, channel=0, data=[127, 111]),
   midi.PitchWheelEvent(tick=1, channel=0, data=[68, 112]),
   midi.PitchWheelEvent(tick=1, channel=0, data=[8, 113]),
   midi.PitchWheelEvent(tick=1, channel=0, data=[76, 113]),
   midi.PitchWheelEvent(tick=1, channel=0, data=[16, 114]),
   midi.PitchWheelEvent(tick=1, channel=0, data=[85, 114]),
   midi.PitchWheelEvent(tick=1, channel=0, data=[25, 115]),
   midi.PitchWheelEvent(tick=1, channel=0, data=[93, 115]),
   midi.PitchWheelEvent(tick=1, channel=0, data=[33, 116]),
   midi.PitchWheelEvent(tick=1, channel=0, data=[102, 116]),
   midi.PitchWheelEvent(tick=1, channel=0, data=[42, 117]),
   midi.PitchWheelEvent(tick=1, channel=0, data=[110, 117]),
   midi.PitchWheelEvent(tick=1, channel=0, data=[50, 118]),
   midi.PitchWheelEvent(tick=1, channel=0, data=[119, 118]),
   midi.PitchWheelEvent(tick=1, channel=0, data=[59, 119]),
   midi.PitchWheelEvent(tick=1, channel=0, data=[127, 119]),
   midi.PitchWheelEvent(tick=1, channel=0, data=[67, 120]),
   midi.PitchWheelEvent(tick=1, channel=0, data=[8, 121]),
   midi.PitchWheelEvent(tick=1, channel=0, data=[76, 121]),
   midi.PitchWheelEvent(tick=1, channel=0, data=[16, 122]),
   midi.PitchWheelEvent(tick=1, channel=0, data=[84, 122]),
   midi.PitchWheelEvent(tick=1, channel=0, data=[25, 123]),
   midi.PitchWheelEvent(tick=1, channel=0, data=[93, 123]),
   midi.PitchWheelEvent(tick=1, channel=0, data=[33, 124]),
   midi.PitchWheelEvent(tick=1, channel=0, data=[101, 124]),
   midi.PitchWheelEvent(tick=1, channel=0, data=[42, 125]),
   midi.PitchWheelEvent(tick=1, channel=0, data=[110, 125]),
   midi.PitchWheelEvent(tick=1, channel=0, data=[50, 126]),
   midi.PitchWheelEvent(tick=1, channel=0, data=[118, 126]),
   midi.PitchWheelEvent(tick=1, channel=0, data=[59, 127]),
   midi.PitchWheelEvent(tick=1, channel=0, data=[127, 127]),
   midi.NoteOnEvent(tick=420, channel=0, data=[64, 0]),
   midi.PitchWheelEvent(tick=0, channel=0, data=[0, 64]),
   midi.NoteOnEvent(tick=0, channel=0, data=[64, 127]),
   midi.PitchWheelEvent(tick=1, channel=0, data=[17, 66]),
   midi.PitchWheelEvent(tick=1, channel=0, data=[34, 68]),
   midi.PitchWheelEvent(tick=1, channel=0, data=[51, 70]),
   midi.PitchWheelEvent(tick=1, channel=0, data=[68, 72]),
   midi.PitchWheelEvent(tick=1, channel=0, data=[85, 74]),
   midi.PitchWheelEvent(tick=1, channel=0, data=[102, 76]),
   midi.PitchWheelEvent(tick=1, channel=0, data=[119, 78]),
   midi.PitchWheelEvent(tick=1, channel=0, data=[8, 81]),
   midi.PitchWheelEvent(tick=1, channel=0, data=[25, 83]),
   midi.PitchWheelEvent(tick=1, channel=0, data=[42, 85]),
   midi.PitchWheelEvent(tick=1, channel=0, data=[59, 87]),
   midi.PitchWheelEvent(tick=1, channel=0, data=[76, 89]),
   midi.PitchWheelEvent(tick=1, channel=0, data=[93, 91]),
   midi.PitchWheelEvent(tick=1, channel=0, data=[110, 93]),
   midi.PitchWheelEvent(tick=1, channel=0, data=[0, 96]),
   midi.PitchWheelEvent(tick=1, channel=0, data=[17, 98]),
   midi.PitchWheelEvent(tick=1, channel=0, data=[34, 100]),
   midi.PitchWheelEvent(tick=1, channel=0, data=[51, 102]),
   midi.PitchWheelEvent(tick=1, channel=0, data=[68, 104]),
   midi.PitchWheelEvent(tick=1, channel=0, data=[85, 106]),
   midi.PitchWheelEvent(tick=1, channel=0, data=[102, 108]),
   midi.PitchWheelEvent(tick=1, channel=0, data=[119, 110]),
   midi.PitchWheelEvent(tick=1, channel=0, data=[8, 113]),
   midi.PitchWheelEvent(tick=1, channel=0, data=[25, 115]),
   midi.PitchWheelEvent(tick=1, channel=0, data=[42, 117]),
   midi.PitchWheelEvent(tick=1, channel=0, data=[59, 119]),
   midi.PitchWheelEvent(tick=1, channel=0, data=[76, 121]),
   midi.PitchWheelEvent(tick=1, channel=0, data=[93, 123]),
   midi.PitchWheelEvent(tick=1, channel=0, data=[110, 125]),
   midi.PitchWheelEvent(tick=1, channel=0, data=[127, 127]),
   midi.PitchWheelEvent(tick=0, channel=0, data=[127, 127]),
   midi.PitchWheelEvent(tick=1, channel=0, data=[110, 125]),
   midi.PitchWheelEvent(tick=1, channel=0, data=[93, 123]),
   midi.PitchWheelEvent(tick=1, channel=0, data=[76, 121]),
   midi.PitchWheelEvent(tick=1, channel=0, data=[59, 119]),
   midi.PitchWheelEvent(tick=1, channel=0, data=[42, 117]),
   midi.PitchWheelEvent(tick=1, channel=0, data=[25, 115]),
   midi.PitchWheelEvent(tick=1, channel=0, data=[8, 113]),
   midi.PitchWheelEvent(tick=1, channel=0, data=[119, 110]),
   midi.PitchWheelEvent(tick=1, channel=0, data=[102, 108]),
   midi.PitchWheelEvent(tick=1, channel=0, data=[85, 106]),
   midi.PitchWheelEvent(tick=1, channel=0, data=[68, 104]),
   midi.PitchWheelEvent(tick=1, channel=0, data=[51, 102]),
   midi.PitchWheelEvent(tick=1, channel=0, data=[34, 100]),
   midi.PitchWheelEvent(tick=1, channel=0, data=[17, 98]),
   midi.PitchWheelEvent(tick=1, channel=0, data=[127, 95]),
   midi.PitchWheelEvent(tick=1, channel=0, data=[110, 93]),
   midi.PitchWheelEvent(tick=1, channel=0, data=[93, 91]),
   midi.PitchWheelEvent(tick=1, channel=0, data=[76, 89]),
   midi.PitchWheelEvent(tick=1, channel=0, data=[59, 87]),
   midi.PitchWheelEvent(tick=1, channel=0, data=[42, 85]),
   midi.PitchWheelEvent(tick=1, channel=0, data=[25, 83]),
   midi.PitchWheelEvent(tick=1, channel=0, data=[8, 81]),
   midi.PitchWheelEvent(tick=1, channel=0, data=[119, 78]),
   midi.PitchWheelEvent(tick=1, channel=0, data=[102, 76]),
   midi.PitchWheelEvent(tick=1, channel=0, data=[85, 74]),
   midi.PitchWheelEvent(tick=1, channel=0, data=[68, 72]),
   midi.PitchWheelEvent(tick=1, channel=0, data=[51, 70]),
   midi.PitchWheelEvent(tick=1, channel=0, data=[34, 68]),
   midi.PitchWheelEvent(tick=1, channel=0, data=[17, 66]),
   midi.PitchWheelEvent(tick=1, channel=0, data=[0, 64]),
   midi.NoteOnEvent(tick=60, channel=0, data=[64, 0]),
   midi.NoteOnEvent(tick=0, channel=0, data=[61, 127]),
   midi.NoteOnEvent(tick=30, channel=0, data=[61, 0]),
   midi.NoteOnEvent(tick=0, channel=0, data=[64, 127]),
   midi.NoteOnEvent(tick=30, channel=0, data=[64, 0]),
   midi.NoteOnEvent(tick=0, channel=0, data=[61, 127]),
   midi.NoteOnEvent(tick=660, channel=0, data=[61, 0]),
   midi.PitchWheelEvent(tick=60, channel=0, data=[0, 64]),
   midi.NoteOnEvent(tick=0, channel=0, data=[64, 127]),
   midi.PitchWheelEvent(tick=1, channel=0, data=[68, 64]),
   midi.PitchWheelEvent(tick=1, channel=0, data=[9, 65]),
   midi.PitchWheelEvent(tick=1, channel=0, data=[77, 65]),
   midi.PitchWheelEvent(tick=1, channel=0, data=[17, 66]),
   midi.PitchWheelEvent(tick=1, channel=0, data=[85, 66]),
   midi.PitchWheelEvent(tick=1, channel=0, data=[26, 67]),
   midi.PitchWheelEvent(tick=1, channel=0, data=[94, 67]),
   midi.PitchWheelEvent(tick=1, channel=0, data=[34, 68]),
   midi.PitchWheelEvent(tick=1, channel=0, data=[102, 68]),
   midi.PitchWheelEvent(tick=1, channel=0, data=[43, 69]),
   midi.PitchWheelEvent(tick=1, channel=0, data=[111, 69]),
   midi.PitchWheelEvent(tick=1, channel=0, data=[51, 70]),
   midi.PitchWheelEvent(tick=1, channel=0, data=[119, 70]),
   midi.PitchWheelEvent(tick=1, channel=0, data=[60, 71]),
   midi.PitchWheelEvent(tick=1, channel=0, data=[0, 72]),
   midi.PitchWheelEvent(tick=1, channel=0, data=[68, 72]),
   midi.PitchWheelEvent(tick=1, channel=0, data=[8, 73]),
   midi.PitchWheelEvent(tick=1, channel=0, data=[77, 73]),
   midi.PitchWheelEvent(tick=1, channel=0, data=[17, 74]),
   midi.PitchWheelEvent(tick=1, channel=0, data=[85, 74]),
   midi.PitchWheelEvent(tick=1, channel=0, data=[25, 75]),
   midi.PitchWheelEvent(tick=1, channel=0, data=[94, 75]),
   midi.PitchWheelEvent(tick=1, channel=0, data=[34, 76]),
   midi.PitchWheelEvent(tick=1, channel=0, data=[102, 76]),
   midi.PitchWheelEvent(tick=1, channel=0, data=[42, 77]),
   midi.PitchWheelEvent(tick=1, channel=0, data=[111, 77]),
   midi.PitchWheelEvent(tick=1, channel=0, data=[51, 78]),
   midi.PitchWheelEvent(tick=1, channel=0, data=[119, 78]),
   midi.PitchWheelEvent(tick=1, channel=0, data=[59, 79]),
   midi.PitchWheelEvent(tick=1, channel=0, data=[0, 80]),
   midi.PitchWheelEvent(tick=1, channel=0, data=[68, 80]),
   midi.PitchWheelEvent(tick=1, channel=0, data=[8, 81]),
   midi.PitchWheelEvent(tick=1, channel=0, data=[77, 81]),
   midi.PitchWheelEvent(tick=1, channel=0, data=[17, 82]),
   midi.PitchWheelEvent(tick=1, channel=0, data=[85, 82]),
   midi.PitchWheelEvent(tick=1, channel=0, data=[25, 83]),
   midi.PitchWheelEvent(tick=1, channel=0, data=[94, 83]),
   midi.PitchWheelEvent(tick=1, channel=0, data=[34, 84]),
   midi.PitchWheelEvent(tick=1, channel=0, data=[102, 84]),
   midi.PitchWheelEvent(tick=1, channel=0, data=[42, 85]),
   midi.PitchWheelEvent(tick=1, channel=0, data=[111, 85]),
   midi.PitchWheelEvent(tick=1, channel=0, data=[51, 86]),
   midi.PitchWheelEvent(tick=1, channel=0, data=[119, 86]),
   midi.PitchWheelEvent(tick=1, channel=0, data=[59, 87]),
   midi.PitchWheelEvent(tick=1, channel=0, data=[0, 88]),
   midi.PitchWheelEvent(tick=1, channel=0, data=[68, 88]),
   midi.PitchWheelEvent(tick=1, channel=0, data=[8, 89]),
   midi.PitchWheelEvent(tick=1, channel=0, data=[76, 89]),
   midi.PitchWheelEvent(tick=1, channel=0, data=[17, 90]),
   midi.PitchWheelEvent(tick=1, channel=0, data=[85, 90]),
   midi.PitchWheelEvent(tick=1, channel=0, data=[25, 91]),
   midi.PitchWheelEvent(tick=1, channel=0, data=[93, 91]),
   midi.PitchWheelEvent(tick=1, channel=0, data=[34, 92]),
   midi.PitchWheelEvent(tick=1, channel=0, data=[102, 92]),
   midi.PitchWheelEvent(tick=1, channel=0, data=[42, 93]),
   midi.PitchWheelEvent(tick=1, channel=0, data=[110, 93]),
   midi.PitchWheelEvent(tick=1, channel=0, data=[51, 94]),
   midi.PitchWheelEvent(tick=1, channel=0, data=[119, 94]),
   midi.PitchWheelEvent(tick=1, channel=0, data=[59, 95]),
   midi.PitchWheelEvent(tick=1, channel=0, data=[0, 96]),
   midi.PitchWheelEvent(tick=1, channel=0, data=[68, 96]),
   midi.PitchWheelEvent(tick=1, channel=0, data=[8, 97]),
   midi.PitchWheelEvent(tick=1, channel=0, data=[76, 97]),
   midi.PitchWheelEvent(tick=1, channel=0, data=[17, 98]),
   midi.PitchWheelEvent(tick=1, channel=0, data=[85, 98]),
   midi.PitchWheelEvent(tick=1, channel=0, data=[25, 99]),
   midi.PitchWheelEvent(tick=1, channel=0, data=[93, 99]),
   midi.PitchWheelEvent(tick=1, channel=0, data=[34, 100]),
   midi.PitchWheelEvent(tick=1, channel=0, data=[102, 100]),
   midi.PitchWheelEvent(tick=1, channel=0, data=[42, 101]),
   midi.PitchWheelEvent(tick=1, channel=0, data=[110, 101]),
   midi.PitchWheelEvent(tick=1, channel=0, data=[51, 102]),
   midi.PitchWheelEvent(tick=1, channel=0, data=[119, 102]),
   midi.PitchWheelEvent(tick=1, channel=0, data=[59, 103]),
   midi.PitchWheelEvent(tick=1, channel=0, data=[127, 103]),
   midi.PitchWheelEvent(tick=1, channel=0, data=[68, 104]),
   midi.PitchWheelEvent(tick=1, channel=0, data=[8, 105]),
   midi.PitchWheelEvent(tick=1, channel=0, data=[76, 105]),
   midi.PitchWheelEvent(tick=1, channel=0, data=[16, 106]),
   midi.PitchWheelEvent(tick=1, channel=0, data=[85, 106]),
   midi.PitchWheelEvent(tick=1, channel=0, data=[25, 107]),
   midi.PitchWheelEvent(tick=1, channel=0, data=[93, 107]),
   midi.PitchWheelEvent(tick=1, channel=0, data=[33, 108]),
   midi.PitchWheelEvent(tick=1, channel=0, data=[102, 108]),
   midi.PitchWheelEvent(tick=1, channel=0, data=[42, 109]),
   midi.PitchWheelEvent(tick=1, channel=0, data=[110, 109]),
   midi.PitchWheelEvent(tick=1, channel=0, data=[50, 110]),
   midi.PitchWheelEvent(tick=1, channel=0, data=[119, 110]),
   midi.PitchWheelEvent(tick=1, channel=0, data=[59, 111]),
   midi.PitchWheelEvent(tick=1, channel=0, data=[127, 111]),
   midi.PitchWheelEvent(tick=1, channel=0, data=[68, 112]),
   midi.PitchWheelEvent(tick=1, channel=0, data=[8, 113]),
   midi.PitchWheelEvent(tick=1, channel=0, data=[76, 113]),
   midi.PitchWheelEvent(tick=1, channel=0, data=[16, 114]),
   midi.PitchWheelEvent(tick=1, channel=0, data=[85, 114]),
   midi.PitchWheelEvent(tick=1, channel=0, data=[25, 115]),
   midi.PitchWheelEvent(tick=1, channel=0, data=[93, 115]),
   midi.PitchWheelEvent(tick=1, channel=0, data=[33, 116]),
   midi.PitchWheelEvent(tick=1, channel=0, data=[102, 116]),
   midi.PitchWheelEvent(tick=1, channel=0, data=[42, 117]),
   midi.PitchWheelEvent(tick=1, channel=0, data=[110, 117]),
   midi.PitchWheelEvent(tick=1, channel=0, data=[50, 118]),
   midi.PitchWheelEvent(tick=1, channel=0, data=[119, 118]),
   midi.PitchWheelEvent(tick=1, channel=0, data=[59, 119]),
   midi.PitchWheelEvent(tick=1, channel=0, data=[127, 119]),
   midi.PitchWheelEvent(tick=1, channel=0, data=[67, 120]),
   midi.PitchWheelEvent(tick=1, channel=0, data=[8, 121]),
   midi.PitchWheelEvent(tick=1, channel=0, data=[76, 121]),
   midi.PitchWheelEvent(tick=1, channel=0, data=[16, 122]),
   midi.PitchWheelEvent(tick=1, channel=0, data=[84, 122]),
   midi.PitchWheelEvent(tick=1, channel=0, data=[25, 123]),
   midi.PitchWheelEvent(tick=1, channel=0, data=[93, 123]),
   midi.PitchWheelEvent(tick=1, channel=0, data=[33, 124]),
   midi.PitchWheelEvent(tick=1, channel=0, data=[101, 124]),
   midi.PitchWheelEvent(tick=1, channel=0, data=[42, 125]),
   midi.PitchWheelEvent(tick=1, channel=0, data=[110, 125]),
   midi.PitchWheelEvent(tick=1, channel=0, data=[50, 126]),
   midi.PitchWheelEvent(tick=1, channel=0, data=[118, 126]),
   midi.PitchWheelEvent(tick=1, channel=0, data=[59, 127]),
   midi.PitchWheelEvent(tick=1, channel=0, data=[127, 127]),
   midi.NoteOnEvent(tick=420, channel=0, data=[64, 0]),
   midi.PitchWheelEvent(tick=0, channel=0, data=[0, 64]),
   midi.NoteOnEvent(tick=0, channel=0, data=[64, 127]),
   midi.PitchWheelEvent(tick=1, channel=0, data=[17, 66]),
   midi.PitchWheelEvent(tick=1, channel=0, data=[34, 68]),
   midi.PitchWheelEvent(tick=1, channel=0, data=[51, 70]),
   midi.PitchWheelEvent(tick=1, channel=0, data=[68, 72]),
   midi.PitchWheelEvent(tick=1, channel=0, data=[85, 74]),
   midi.PitchWheelEvent(tick=1, channel=0, data=[102, 76]),
   midi.PitchWheelEvent(tick=1, channel=0, data=[119, 78]),
   midi.PitchWheelEvent(tick=1, channel=0, data=[8, 81]),
   midi.PitchWheelEvent(tick=1, channel=0, data=[25, 83]),
   midi.PitchWheelEvent(tick=1, channel=0, data=[42, 85]),
   midi.PitchWheelEvent(tick=1, channel=0, data=[59, 87]),
   midi.PitchWheelEvent(tick=1, channel=0, data=[76, 89]),
   midi.PitchWheelEvent(tick=1, channel=0, data=[93, 91]),
   midi.PitchWheelEvent(tick=1, channel=0, data=[110, 93]),
   midi.PitchWheelEvent(tick=1, channel=0, data=[0, 96]),
   midi.PitchWheelEvent(tick=1, channel=0, data=[17, 98]),
   midi.PitchWheelEvent(tick=1, channel=0, data=[34, 100]),
   midi.PitchWheelEvent(tick=1, channel=0, data=[51, 102]),
   midi.PitchWheelEvent(tick=1, channel=0, data=[68, 104]),
   midi.PitchWheelEvent(tick=1, channel=0, data=[85, 106]),
   midi.PitchWheelEvent(tick=1, channel=0, data=[102, 108]),
   midi.PitchWheelEvent(tick=1, channel=0, data=[119, 110]),
   midi.PitchWheelEvent(tick=1, channel=0, data=[8, 113]),
   midi.PitchWheelEvent(tick=1, channel=0, data=[25, 115]),
   midi.PitchWheelEvent(tick=1, channel=0, data=[42, 117]),
   midi.PitchWheelEvent(tick=1, channel=0, data=[59, 119]),
   midi.PitchWheelEvent(tick=1, channel=0, data=[76, 121]),
   midi.PitchWheelEvent(tick=1, channel=0, data=[93, 123]),
   midi.PitchWheelEvent(tick=1, channel=0, data=[110, 125]),
   midi.PitchWheelEvent(tick=1, channel=0, data=[127, 127]),
   midi.PitchWheelEvent(tick=0, channel=0, data=[127, 127]),
   midi.PitchWheelEvent(tick=1, channel=0, data=[110, 125]),
   midi.PitchWheelEvent(tick=1, channel=0, data=[93, 123]),
   midi.PitchWheelEvent(tick=1, channel=0, data=[76, 121]),
   midi.PitchWheelEvent(tick=1, channel=0, data=[59, 119]),
   midi.PitchWheelEvent(tick=1, channel=0, data=[42, 117]),
   midi.PitchWheelEvent(tick=1, channel=0, data=[25, 115]),
   midi.PitchWheelEvent(tick=1, channel=0, data=[8, 113]),
   midi.PitchWheelEvent(tick=1, channel=0, data=[119, 110]),
   midi.PitchWheelEvent(tick=1, channel=0, data=[102, 108]),
   midi.PitchWheelEvent(tick=1, channel=0, data=[85, 106]),
   midi.PitchWheelEvent(tick=1, channel=0, data=[68, 104]),
   midi.PitchWheelEvent(tick=1, channel=0, data=[51, 102]),
   midi.PitchWheelEvent(tick=1, channel=0, data=[34, 100]),
   midi.PitchWheelEvent(tick=1, channel=0, data=[17, 98]),
   midi.PitchWheelEvent(tick=1, channel=0, data=[127, 95]),
   midi.PitchWheelEvent(tick=1, channel=0, data=[110, 93]),
   midi.PitchWheelEvent(tick=1, channel=0, data=[93, 91]),
   midi.PitchWheelEvent(tick=1, channel=0, data=[76, 89]),
   midi.PitchWheelEvent(tick=1, channel=0, data=[59, 87]),
   midi.PitchWheelEvent(tick=1, channel=0, data=[42, 85]),
   midi.PitchWheelEvent(tick=1, channel=0, data=[25, 83]),
   midi.PitchWheelEvent(tick=1, channel=0, data=[8, 81]),
   midi.PitchWheelEvent(tick=1, channel=0, data=[119, 78]),
   midi.PitchWheelEvent(tick=1, channel=0, data=[102, 76]),
   midi.PitchWheelEvent(tick=1, channel=0, data=[85, 74]),
   midi.PitchWheelEvent(tick=1, channel=0, data=[68, 72]),
   midi.PitchWheelEvent(tick=1, channel=0, data=[51, 70]),
   midi.PitchWheelEvent(tick=1, channel=0, data=[34, 68]),
   midi.PitchWheelEvent(tick=1, channel=0, data=[17, 66]),
   midi.PitchWheelEvent(tick=1, channel=0, data=[0, 64]),
   midi.NoteOnEvent(tick=60, channel=0, data=[64, 0]),
   midi.NoteOnEvent(tick=0, channel=0, data=[61, 127]),
   midi.NoteOnEvent(tick=30, channel=0, data=[61, 0]),
   midi.NoteOnEvent(tick=0, channel=0, data=[64, 127]),
   midi.NoteOnEvent(tick=30, channel=0, data=[64, 0]),
   midi.NoteOnEvent(tick=0, channel=0, data=[61, 127]),
   midi.NoteOnEvent(tick=660, channel=0, data=[61, 0]),
   midi.PitchWheelEvent(tick=60, channel=0, data=[0, 64]),
   midi.NoteOnEvent(tick=0, channel=0, data=[64, 127]),
   midi.PitchWheelEvent(tick=1, channel=0, data=[68, 64]),
   midi.PitchWheelEvent(tick=1, channel=0, data=[9, 65]),
   midi.PitchWheelEvent(tick=1, channel=0, data=[77, 65]),
   midi.PitchWheelEvent(tick=1, channel=0, data=[17, 66]),
   midi.PitchWheelEvent(tick=1, channel=0, data=[85, 66]),
   midi.PitchWheelEvent(tick=1, channel=0, data=[26, 67]),
   midi.PitchWheelEvent(tick=1, channel=0, data=[94, 67]),
   midi.PitchWheelEvent(tick=1, channel=0, data=[34, 68]),
   midi.PitchWheelEvent(tick=1, channel=0, data=[102, 68]),
   midi.PitchWheelEvent(tick=1, channel=0, data=[43, 69]),
   midi.PitchWheelEvent(tick=1, channel=0, data=[111, 69]),
   midi.PitchWheelEvent(tick=1, channel=0, data=[51, 70]),
   midi.PitchWheelEvent(tick=1, channel=0, data=[119, 70]),
   midi.PitchWheelEvent(tick=1, channel=0, data=[60, 71]),
   midi.PitchWheelEvent(tick=1, channel=0, data=[0, 72]),
   midi.PitchWheelEvent(tick=1, channel=0, data=[68, 72]),
   midi.PitchWheelEvent(tick=1, channel=0, data=[8, 73]),
   midi.PitchWheelEvent(tick=1, channel=0, data=[77, 73]),
   midi.PitchWheelEvent(tick=1, channel=0, data=[17, 74]),
   midi.PitchWheelEvent(tick=1, channel=0, data=[85, 74]),
   midi.PitchWheelEvent(tick=1, channel=0, data=[25, 75]),
   midi.PitchWheelEvent(tick=1, channel=0, data=[94, 75]),
   midi.PitchWheelEvent(tick=1, channel=0, data=[34, 76]),
   midi.PitchWheelEvent(tick=1, channel=0, data=[102, 76]),
   midi.PitchWheelEvent(tick=1, channel=0, data=[42, 77]),
   midi.PitchWheelEvent(tick=1, channel=0, data=[111, 77]),
   midi.PitchWheelEvent(tick=1, channel=0, data=[51, 78]),
   midi.PitchWheelEvent(tick=1, channel=0, data=[119, 78]),
   midi.PitchWheelEvent(tick=1, channel=0, data=[59, 79]),
   midi.PitchWheelEvent(tick=1, channel=0, data=[0, 80]),
   midi.PitchWheelEvent(tick=1, channel=0, data=[68, 80]),
   midi.PitchWheelEvent(tick=1, channel=0, data=[8, 81]),
   midi.PitchWheelEvent(tick=1, channel=0, data=[77, 81]),
   midi.PitchWheelEvent(tick=1, channel=0, data=[17, 82]),
   midi.PitchWheelEvent(tick=1, channel=0, data=[85, 82]),
   midi.PitchWheelEvent(tick=1, channel=0, data=[25, 83]),
   midi.PitchWheelEvent(tick=1, channel=0, data=[94, 83]),
   midi.PitchWheelEvent(tick=1, channel=0, data=[34, 84]),
   midi.PitchWheelEvent(tick=1, channel=0, data=[102, 84]),
   midi.PitchWheelEvent(tick=1, channel=0, data=[42, 85]),
   midi.PitchWheelEvent(tick=1, channel=0, data=[111, 85]),
   midi.PitchWheelEvent(tick=1, channel=0, data=[51, 86]),
   midi.PitchWheelEvent(tick=1, channel=0, data=[119, 86]),
   midi.PitchWheelEvent(tick=1, channel=0, data=[59, 87]),
   midi.PitchWheelEvent(tick=1, channel=0, data=[0, 88]),
   midi.PitchWheelEvent(tick=1, channel=0, data=[68, 88]),
   midi.PitchWheelEvent(tick=1, channel=0, data=[8, 89]),
   midi.PitchWheelEvent(tick=1, channel=0, data=[76, 89]),
   midi.PitchWheelEvent(tick=1, channel=0, data=[17, 90]),
   midi.PitchWheelEvent(tick=1, channel=0, data=[85, 90]),
   midi.PitchWheelEvent(tick=1, channel=0, data=[25, 91]),
   midi.PitchWheelEvent(tick=1, channel=0, data=[93, 91]),
   midi.PitchWheelEvent(tick=1, channel=0, data=[34, 92]),
   midi.PitchWheelEvent(tick=1, channel=0, data=[102, 92]),
   midi.PitchWheelEvent(tick=1, channel=0, data=[42, 93]),
   midi.PitchWheelEvent(tick=1, channel=0, data=[110, 93]),
   midi.PitchWheelEvent(tick=1, channel=0, data=[51, 94]),
   midi.PitchWheelEvent(tick=1, channel=0, data=[119, 94]),
   midi.PitchWheelEvent(tick=1, channel=0, data=[59, 95]),
   midi.PitchWheelEvent(tick=1, channel=0, data=[0, 96]),
   midi.PitchWheelEvent(tick=1, channel=0, data=[68, 96]),
   midi.PitchWheelEvent(tick=1, channel=0, data=[8, 97]),
   midi.PitchWheelEvent(tick=1, channel=0, data=[76, 97]),
   midi.PitchWheelEvent(tick=1, channel=0, data=[17, 98]),
   midi.PitchWheelEvent(tick=1, channel=0, data=[85, 98]),
   midi.PitchWheelEvent(tick=1, channel=0, data=[25, 99]),
   midi.PitchWheelEvent(tick=1, channel=0, data=[93, 99]),
   midi.PitchWheelEvent(tick=1, channel=0, data=[34, 100]),
   midi.PitchWheelEvent(tick=1, channel=0, data=[102, 100]),
   midi.PitchWheelEvent(tick=1, channel=0, data=[42, 101]),
   midi.PitchWheelEvent(tick=1, channel=0, data=[110, 101]),
   midi.PitchWheelEvent(tick=1, channel=0, data=[51, 102]),
   midi.PitchWheelEvent(tick=1, channel=0, data=[119, 102]),
   midi.PitchWheelEvent(tick=1, channel=0, data=[59, 103]),
   midi.PitchWheelEvent(tick=1, channel=0, data=[127, 103]),
   midi.PitchWheelEvent(tick=1, channel=0, data=[68, 104]),
   midi.PitchWheelEvent(tick=1, channel=0, data=[8, 105]),
   midi.PitchWheelEvent(tick=1, channel=0, data=[76, 105]),
   midi.PitchWheelEvent(tick=1, channel=0, data=[16, 106]),
   midi.PitchWheelEvent(tick=1, channel=0, data=[85, 106]),
   midi.PitchWheelEvent(tick=1, channel=0, data=[25, 107]),
   midi.PitchWheelEvent(tick=1, channel=0, data=[93, 107]),
   midi.PitchWheelEvent(tick=1, channel=0, data=[33, 108]),
   midi.PitchWheelEvent(tick=1, channel=0, data=[102, 108]),
   midi.PitchWheelEvent(tick=1, channel=0, data=[42, 109]),
   midi.PitchWheelEvent(tick=1, channel=0, data=[110, 109]),
   midi.PitchWheelEvent(tick=1, channel=0, data=[50, 110]),
   midi.PitchWheelEvent(tick=1, channel=0, data=[119, 110]),
   midi.PitchWheelEvent(tick=1, channel=0, data=[59, 111]),
   midi.PitchWheelEvent(tick=1, channel=0, data=[127, 111]),
   midi.PitchWheelEvent(tick=1, channel=0, data=[68, 112]),
   midi.PitchWheelEvent(tick=1, channel=0, data=[8, 113]),
   midi.PitchWheelEvent(tick=1, channel=0, data=[76, 113]),
   midi.PitchWheelEvent(tick=1, channel=0, data=[16, 114]),
   midi.PitchWheelEvent(tick=1, channel=0, data=[85, 114]),
   midi.PitchWheelEvent(tick=1, channel=0, data=[25, 115]),
   midi.PitchWheelEvent(tick=1, channel=0, data=[93, 115]),
   midi.PitchWheelEvent(tick=1, channel=0, data=[33, 116]),
   midi.PitchWheelEvent(tick=1, channel=0, data=[102, 116]),
   midi.PitchWheelEvent(tick=1, channel=0, data=[42, 117]),
   midi.PitchWheelEvent(tick=1, channel=0, data=[110, 117]),
   midi.PitchWheelEvent(tick=1, channel=0, data=[50, 118]),
   midi.PitchWheelEvent(tick=1, channel=0, data=[119, 118]),
   midi.PitchWheelEvent(tick=1, channel=0, data=[59, 119]),
   midi.PitchWheelEvent(tick=1, channel=0, data=[127, 119]),
   midi.PitchWheelEvent(tick=1, channel=0, data=[67, 120]),
   midi.PitchWheelEvent(tick=1, channel=0, data=[8, 121]),
   midi.PitchWheelEvent(tick=1, channel=0, data=[76, 121]),
   midi.PitchWheelEvent(tick=1, channel=0, data=[16, 122]),
   midi.PitchWheelEvent(tick=1, channel=0, data=[84, 122]),
   midi.PitchWheelEvent(tick=1, channel=0, data=[25, 123]),
   midi.PitchWheelEvent(tick=1, channel=0, data=[93, 123]),
   midi.PitchWheelEvent(tick=1, channel=0, data=[33, 124]),
   midi.PitchWheelEvent(tick=1, channel=0, data=[101, 124]),
   midi.PitchWheelEvent(tick=1, channel=0, data=[42, 125]),
   midi.PitchWheelEvent(tick=1, channel=0, data=[110, 125]),
   midi.PitchWheelEvent(tick=1, channel=0, data=[50, 126]),
   midi.PitchWheelEvent(tick=1, channel=0, data=[118, 126]),
   midi.PitchWheelEvent(tick=1, channel=0, data=[59, 127]),
   midi.PitchWheelEvent(tick=1, channel=0, data=[127, 127]),
   midi.NoteOnEvent(tick=420, channel=0, data=[64, 0]),
   midi.PitchWheelEvent(tick=0, channel=0, data=[0, 64]),
   midi.NoteOnEvent(tick=0, channel=0, data=[64, 127]),
   midi.PitchWheelEvent(tick=1, channel=0, data=[17, 66]),
   midi.PitchWheelEvent(tick=1, channel=0, data=[34, 68]),
   midi.PitchWheelEvent(tick=1, channel=0, data=[51, 70]),
   midi.PitchWheelEvent(tick=1, channel=0, data=[68, 72]),
   midi.PitchWheelEvent(tick=1, channel=0, data=[85, 74]),
   midi.PitchWheelEvent(tick=1, channel=0, data=[102, 76]),
   midi.PitchWheelEvent(tick=1, channel=0, data=[119, 78]),
   midi.PitchWheelEvent(tick=1, channel=0, data=[8, 81]),
   midi.PitchWheelEvent(tick=1, channel=0, data=[25, 83]),
   midi.PitchWheelEvent(tick=1, channel=0, data=[42, 85]),
   midi.PitchWheelEvent(tick=1, channel=0, data=[59, 87]),
   midi.PitchWheelEvent(tick=1, channel=0, data=[76, 89]),
   midi.PitchWheelEvent(tick=1, channel=0, data=[93, 91]),
   midi.PitchWheelEvent(tick=1, channel=0, data=[110, 93]),
   midi.PitchWheelEvent(tick=1, channel=0, data=[0, 96]),
   midi.PitchWheelEvent(tick=1, channel=0, data=[17, 98]),
   midi.PitchWheelEvent(tick=1, channel=0, data=[34, 100]),
   midi.PitchWheelEvent(tick=1, channel=0, data=[51, 102]),
   midi.PitchWheelEvent(tick=1, channel=0, data=[68, 104]),
   midi.PitchWheelEvent(tick=1, channel=0, data=[85, 106]),
   midi.PitchWheelEvent(tick=1, channel=0, data=[102, 108]),
   midi.PitchWheelEvent(tick=1, channel=0, data=[119, 110]),
   midi.PitchWheelEvent(tick=1, channel=0, data=[8, 113]),
   midi.PitchWheelEvent(tick=1, channel=0, data=[25, 115]),
   midi.PitchWheelEvent(tick=1, channel=0, data=[42, 117]),
   midi.PitchWheelEvent(tick=1, channel=0, data=[59, 119]),
   midi.PitchWheelEvent(tick=1, channel=0, data=[76, 121]),
   midi.PitchWheelEvent(tick=1, channel=0, data=[93, 123]),
   midi.PitchWheelEvent(tick=1, channel=0, data=[110, 125]),
   midi.PitchWheelEvent(tick=1, channel=0, data=[127, 127]),
   midi.PitchWheelEvent(tick=0, channel=0, data=[127, 127]),
   midi.PitchWheelEvent(tick=1, channel=0, data=[110, 125]),
   midi.PitchWheelEvent(tick=1, channel=0, data=[93, 123]),
   midi.PitchWheelEvent(tick=1, channel=0, data=[76, 121]),
   midi.PitchWheelEvent(tick=1, channel=0, data=[59, 119]),
   midi.PitchWheelEvent(tick=1, channel=0, data=[42, 117]),
   midi.PitchWheelEvent(tick=1, channel=0, data=[25, 115]),
   midi.PitchWheelEvent(tick=1, channel=0, data=[8, 113]),
   midi.PitchWheelEvent(tick=1, channel=0, data=[119, 110]),
   midi.PitchWheelEvent(tick=1, channel=0, data=[102, 108]),
   midi.PitchWheelEvent(tick=1, channel=0, data=[85, 106]),
   midi.PitchWheelEvent(tick=1, channel=0, data=[68, 104]),
   midi.PitchWheelEvent(tick=1, channel=0, data=[51, 102]),
   midi.PitchWheelEvent(tick=1, channel=0, data=[34, 100]),
   midi.PitchWheelEvent(tick=1, channel=0, data=[17, 98]),
   midi.PitchWheelEvent(tick=1, channel=0, data=[127, 95]),
   midi.PitchWheelEvent(tick=1, channel=0, data=[110, 93]),
   midi.PitchWheelEvent(tick=1, channel=0, data=[93, 91]),
   midi.PitchWheelEvent(tick=1, channel=0, data=[76, 89]),
   midi.PitchWheelEvent(tick=1, channel=0, data=[59, 87]),
   midi.PitchWheelEvent(tick=1, channel=0, data=[42, 85]),
   midi.PitchWheelEvent(tick=1, channel=0, data=[25, 83]),
   midi.PitchWheelEvent(tick=1, channel=0, data=[8, 81]),
   midi.PitchWheelEvent(tick=1, channel=0, data=[119, 78]),
   midi.PitchWheelEvent(tick=1, channel=0, data=[102, 76]),
   midi.PitchWheelEvent(tick=1, channel=0, data=[85, 74]),
   midi.PitchWheelEvent(tick=1, channel=0, data=[68, 72]),
   midi.PitchWheelEvent(tick=1, channel=0, data=[51, 70]),
   midi.PitchWheelEvent(tick=1, channel=0, data=[34, 68]),
   midi.PitchWheelEvent(tick=1, channel=0, data=[17, 66]),
   midi.PitchWheelEvent(tick=1, channel=0, data=[0, 64]),
   midi.NoteOnEvent(tick=60, channel=0, data=[64, 0]),
   midi.NoteOnEvent(tick=0, channel=0, data=[61, 127]),
   midi.NoteOnEvent(tick=30, channel=0, data=[61, 0]),
   midi.NoteOnEvent(tick=0, channel=0, data=[64, 127]),
   midi.NoteOnEvent(tick=30, channel=0, data=[64, 0]),
   midi.NoteOnEvent(tick=0, channel=0, data=[61, 127]),
   midi.NoteOnEvent(tick=60, channel=0, data=[61, 0]),
   midi.NoteOnEvent(tick=0, channel=0, data=[57, 127]),
   midi.NoteOnEvent(tick=60, channel=0, data=[57, 0]),
   midi.NoteOnEvent(tick=0, channel=0, data=[57, 127]),
   midi.NoteOnEvent(tick=60, channel=0, data=[57, 0]),
   midi.NoteOnEvent(tick=0, channel=0, data=[57, 127]),
   midi.NoteOnEvent(tick=480, channel=0, data=[57, 0]),
   midi.PitchWheelEvent(tick=60, channel=0, data=[0, 64]),
   midi.NoteOnEvent(tick=0, channel=0, data=[64, 127]),
   midi.PitchWheelEvent(tick=1, channel=0, data=[68, 64]),
   midi.PitchWheelEvent(tick=1, channel=0, data=[9, 65]),
   midi.PitchWheelEvent(tick=1, channel=0, data=[77, 65]),
   midi.PitchWheelEvent(tick=1, channel=0, data=[17, 66]),
   midi.PitchWheelEvent(tick=1, channel=0, data=[85, 66]),
   midi.PitchWheelEvent(tick=1, channel=0, data=[26, 67]),
   midi.PitchWheelEvent(tick=1, channel=0, data=[94, 67]),
   midi.PitchWheelEvent(tick=1, channel=0, data=[34, 68]),
   midi.PitchWheelEvent(tick=1, channel=0, data=[102, 68]),
   midi.PitchWheelEvent(tick=1, channel=0, data=[43, 69]),
   midi.PitchWheelEvent(tick=1, channel=0, data=[111, 69]),
   midi.PitchWheelEvent(tick=1, channel=0, data=[51, 70]),
   midi.PitchWheelEvent(tick=1, channel=0, data=[119, 70]),
   midi.PitchWheelEvent(tick=1, channel=0, data=[60, 71]),
   midi.PitchWheelEvent(tick=1, channel=0, data=[0, 72]),
   midi.PitchWheelEvent(tick=1, channel=0, data=[68, 72]),
   midi.PitchWheelEvent(tick=1, channel=0, data=[8, 73]),
   midi.PitchWheelEvent(tick=1, channel=0, data=[77, 73]),
   midi.PitchWheelEvent(tick=1, channel=0, data=[17, 74]),
   midi.PitchWheelEvent(tick=1, channel=0, data=[85, 74]),
   midi.PitchWheelEvent(tick=1, channel=0, data=[25, 75]),
   midi.PitchWheelEvent(tick=1, channel=0, data=[94, 75]),
   midi.PitchWheelEvent(tick=1, channel=0, data=[34, 76]),
   midi.PitchWheelEvent(tick=1, channel=0, data=[102, 76]),
   midi.PitchWheelEvent(tick=1, channel=0, data=[42, 77]),
   midi.PitchWheelEvent(tick=1, channel=0, data=[111, 77]),
   midi.PitchWheelEvent(tick=1, channel=0, data=[51, 78]),
   midi.PitchWheelEvent(tick=1, channel=0, data=[119, 78]),
   midi.PitchWheelEvent(tick=1, channel=0, data=[59, 79]),
   midi.PitchWheelEvent(tick=1, channel=0, data=[0, 80]),
   midi.PitchWheelEvent(tick=1, channel=0, data=[68, 80]),
   midi.PitchWheelEvent(tick=1, channel=0, data=[8, 81]),
   midi.PitchWheelEvent(tick=1, channel=0, data=[77, 81]),
   midi.PitchWheelEvent(tick=1, channel=0, data=[17, 82]),
   midi.PitchWheelEvent(tick=1, channel=0, data=[85, 82]),
   midi.PitchWheelEvent(tick=1, channel=0, data=[25, 83]),
   midi.PitchWheelEvent(tick=1, channel=0, data=[94, 83]),
   midi.PitchWheelEvent(tick=1, channel=0, data=[34, 84]),
   midi.PitchWheelEvent(tick=1, channel=0, data=[102, 84]),
   midi.PitchWheelEvent(tick=1, channel=0, data=[42, 85]),
   midi.PitchWheelEvent(tick=1, channel=0, data=[111, 85]),
   midi.PitchWheelEvent(tick=1, channel=0, data=[51, 86]),
   midi.PitchWheelEvent(tick=1, channel=0, data=[119, 86]),
   midi.PitchWheelEvent(tick=1, channel=0, data=[59, 87]),
   midi.PitchWheelEvent(tick=1, channel=0, data=[0, 88]),
   midi.PitchWheelEvent(tick=1, channel=0, data=[68, 88]),
   midi.PitchWheelEvent(tick=1, channel=0, data=[8, 89]),
   midi.PitchWheelEvent(tick=1, channel=0, data=[76, 89]),
   midi.PitchWheelEvent(tick=1, channel=0, data=[17, 90]),
   midi.PitchWheelEvent(tick=1, channel=0, data=[85, 90]),
   midi.PitchWheelEvent(tick=1, channel=0, data=[25, 91]),
   midi.PitchWheelEvent(tick=1, channel=0, data=[93, 91]),
   midi.PitchWheelEvent(tick=1, channel=0, data=[34, 92]),
   midi.PitchWheelEvent(tick=1, channel=0, data=[102, 92]),
   midi.PitchWheelEvent(tick=1, channel=0, data=[42, 93]),
   midi.PitchWheelEvent(tick=1, channel=0, data=[110, 93]),
   midi.PitchWheelEvent(tick=1, channel=0, data=[51, 94]),
   midi.PitchWheelEvent(tick=1, channel=0, data=[119, 94]),
   midi.PitchWheelEvent(tick=1, channel=0, data=[59, 95]),
   midi.PitchWheelEvent(tick=1, channel=0, data=[0, 96]),
   midi.PitchWheelEvent(tick=1, channel=0, data=[68, 96]),
   midi.PitchWheelEvent(tick=1, channel=0, data=[8, 97]),
   midi.PitchWheelEvent(tick=1, channel=0, data=[76, 97]),
   midi.PitchWheelEvent(tick=1, channel=0, data=[17, 98]),
   midi.PitchWheelEvent(tick=1, channel=0, data=[85, 98]),
   midi.PitchWheelEvent(tick=1, channel=0, data=[25, 99]),
   midi.PitchWheelEvent(tick=1, channel=0, data=[93, 99]),
   midi.PitchWheelEvent(tick=1, channel=0, data=[34, 100]),
   midi.PitchWheelEvent(tick=1, channel=0, data=[102, 100]),
   midi.PitchWheelEvent(tick=1, channel=0, data=[42, 101]),
   midi.PitchWheelEvent(tick=1, channel=0, data=[110, 101]),
   midi.PitchWheelEvent(tick=1, channel=0, data=[51, 102]),
   midi.PitchWheelEvent(tick=1, channel=0, data=[119, 102]),
   midi.PitchWheelEvent(tick=1, channel=0, data=[59, 103]),
   midi.PitchWheelEvent(tick=1, channel=0, data=[127, 103]),
   midi.PitchWheelEvent(tick=1, channel=0, data=[68, 104]),
   midi.PitchWheelEvent(tick=1, channel=0, data=[8, 105]),
   midi.PitchWheelEvent(tick=1, channel=0, data=[76, 105]),
   midi.PitchWheelEvent(tick=1, channel=0, data=[16, 106]),
   midi.PitchWheelEvent(tick=1, channel=0, data=[85, 106]),
   midi.PitchWheelEvent(tick=1, channel=0, data=[25, 107]),
   midi.PitchWheelEvent(tick=1, channel=0, data=[93, 107]),
   midi.PitchWheelEvent(tick=1, channel=0, data=[33, 108]),
   midi.PitchWheelEvent(tick=1, channel=0, data=[102, 108]),
   midi.PitchWheelEvent(tick=1, channel=0, data=[42, 109]),
   midi.PitchWheelEvent(tick=1, channel=0, data=[110, 109]),
   midi.PitchWheelEvent(tick=1, channel=0, data=[50, 110]),
   midi.PitchWheelEvent(tick=1, channel=0, data=[119, 110]),
   midi.PitchWheelEvent(tick=1, channel=0, data=[59, 111]),
   midi.PitchWheelEvent(tick=1, channel=0, data=[127, 111]),
   midi.PitchWheelEvent(tick=1, channel=0, data=[68, 112]),
   midi.PitchWheelEvent(tick=1, channel=0, data=[8, 113]),
   midi.PitchWheelEvent(tick=1, channel=0, data=[76, 113]),
   midi.PitchWheelEvent(tick=1, channel=0, data=[16, 114]),
   midi.PitchWheelEvent(tick=1, channel=0, data=[85, 114]),
   midi.PitchWheelEvent(tick=1, channel=0, data=[25, 115]),
   midi.PitchWheelEvent(tick=1, channel=0, data=[93, 115]),
   midi.PitchWheelEvent(tick=1, channel=0, data=[33, 116]),
   midi.PitchWheelEvent(tick=1, channel=0, data=[102, 116]),
   midi.PitchWheelEvent(tick=1, channel=0, data=[42, 117]),
   midi.PitchWheelEvent(tick=1, channel=0, data=[110, 117]),
   midi.PitchWheelEvent(tick=1, channel=0, data=[50, 118]),
   midi.PitchWheelEvent(tick=1, channel=0, data=[119, 118]),
   midi.PitchWheelEvent(tick=1, channel=0, data=[59, 119]),
   midi.PitchWheelEvent(tick=1, channel=0, data=[127, 119]),
   midi.PitchWheelEvent(tick=1, channel=0, data=[67, 120]),
   midi.PitchWheelEvent(tick=1, channel=0, data=[8, 121]),
   midi.PitchWheelEvent(tick=1, channel=0, data=[76, 121]),
   midi.PitchWheelEvent(tick=1, channel=0, data=[16, 122]),
   midi.PitchWheelEvent(tick=1, channel=0, data=[84, 122]),
   midi.PitchWheelEvent(tick=1, channel=0, data=[25, 123]),
   midi.PitchWheelEvent(tick=1, channel=0, data=[93, 123]),
   midi.PitchWheelEvent(tick=1, channel=0, data=[33, 124]),
   midi.PitchWheelEvent(tick=1, channel=0, data=[101, 124]),
   midi.PitchWheelEvent(tick=1, channel=0, data=[42, 125]),
   midi.PitchWheelEvent(tick=1, channel=0, data=[110, 125]),
   midi.PitchWheelEvent(tick=1, channel=0, data=[50, 126]),
   midi.PitchWheelEvent(tick=1, channel=0, data=[118, 126]),
   midi.PitchWheelEvent(tick=1, channel=0, data=[59, 127]),
   midi.PitchWheelEvent(tick=1, channel=0, data=[127, 127]),
   midi.NoteOnEvent(tick=420, channel=0, data=[64, 0]),
   midi.PitchWheelEvent(tick=0, channel=0, data=[0, 64]),
   midi.NoteOnEvent(tick=0, channel=0, data=[64, 127]),
   midi.PitchWheelEvent(tick=1, channel=0, data=[17, 66]),
   midi.PitchWheelEvent(tick=1, channel=0, data=[34, 68]),
   midi.PitchWheelEvent(tick=1, channel=0, data=[51, 70]),
   midi.PitchWheelEvent(tick=1, channel=0, data=[68, 72]),
   midi.PitchWheelEvent(tick=1, channel=0, data=[85, 74]),
   midi.PitchWheelEvent(tick=1, channel=0, data=[102, 76]),
   midi.PitchWheelEvent(tick=1, channel=0, data=[119, 78]),
   midi.PitchWheelEvent(tick=1, channel=0, data=[8, 81]),
   midi.PitchWheelEvent(tick=1, channel=0, data=[25, 83]),
   midi.PitchWheelEvent(tick=1, channel=0, data=[42, 85]),
   midi.PitchWheelEvent(tick=1, channel=0, data=[59, 87]),
   midi.PitchWheelEvent(tick=1, channel=0, data=[76, 89]),
   midi.PitchWheelEvent(tick=1, channel=0, data=[93, 91]),
   midi.PitchWheelEvent(tick=1, channel=0, data=[110, 93]),
   midi.PitchWheelEvent(tick=1, channel=0, data=[0, 96]),
   midi.PitchWheelEvent(tick=1, channel=0, data=[17, 98]),
   midi.PitchWheelEvent(tick=1, channel=0, data=[34, 100]),
   midi.PitchWheelEvent(tick=1, channel=0, data=[51, 102]),
   midi.PitchWheelEvent(tick=1, channel=0, data=[68, 104]),
   midi.PitchWheelEvent(tick=1, channel=0, data=[85, 106]),
   midi.PitchWheelEvent(tick=1, channel=0, data=[102, 108]),
   midi.PitchWheelEvent(tick=1, channel=0, data=[119, 110]),
   midi.PitchWheelEvent(tick=1, channel=0, data=[8, 113]),
   midi.PitchWheelEvent(tick=1, channel=0, data=[25, 115]),
   midi.PitchWheelEvent(tick=1, channel=0, data=[42, 117]),
   midi.PitchWheelEvent(tick=1, channel=0, data=[59, 119]),
   midi.PitchWheelEvent(tick=1, channel=0, data=[76, 121]),
   midi.PitchWheelEvent(tick=1, channel=0, data=[93, 123]),
   midi.PitchWheelEvent(tick=1, channel=0, data=[110, 125]),
   midi.PitchWheelEvent(tick=1, channel=0, data=[127, 127]),
   midi.PitchWheelEvent(tick=0, channel=0, data=[127, 127]),
   midi.PitchWheelEvent(tick=1, channel=0, data=[110, 125]),
   midi.PitchWheelEvent(tick=1, channel=0, data=[93, 123]),
   midi.PitchWheelEvent(tick=1, channel=0, data=[76, 121]),
   midi.PitchWheelEvent(tick=1, channel=0, data=[59, 119]),
   midi.PitchWheelEvent(tick=1, channel=0, data=[42, 117]),
   midi.PitchWheelEvent(tick=1, channel=0, data=[25, 115]),
   midi.PitchWheelEvent(tick=1, channel=0, data=[8, 113]),
   midi.PitchWheelEvent(tick=1, channel=0, data=[119, 110]),
   midi.PitchWheelEvent(tick=1, channel=0, data=[102, 108]),
   midi.PitchWheelEvent(tick=1, channel=0, data=[85, 106]),
   midi.PitchWheelEvent(tick=1, channel=0, data=[68, 104]),
   midi.PitchWheelEvent(tick=1, channel=0, data=[51, 102]),
   midi.PitchWheelEvent(tick=1, channel=0, data=[34, 100]),
   midi.PitchWheelEvent(tick=1, channel=0, data=[17, 98]),
   midi.PitchWheelEvent(tick=1, channel=0, data=[127, 95]),
   midi.PitchWheelEvent(tick=1, channel=0, data=[110, 93]),
   midi.PitchWheelEvent(tick=1, channel=0, data=[93, 91]),
   midi.PitchWheelEvent(tick=1, channel=0, data=[76, 89]),
   midi.PitchWheelEvent(tick=1, channel=0, data=[59, 87]),
   midi.PitchWheelEvent(tick=1, channel=0, data=[42, 85]),
   midi.PitchWheelEvent(tick=1, channel=0, data=[25, 83]),
   midi.PitchWheelEvent(tick=1, channel=0, data=[8, 81]),
   midi.PitchWheelEvent(tick=1, channel=0, data=[119, 78]),
   midi.PitchWheelEvent(tick=1, channel=0, data=[102, 76]),
   midi.PitchWheelEvent(tick=1, channel=0, data=[85, 74]),
   midi.PitchWheelEvent(tick=1, channel=0, data=[68, 72]),
   midi.PitchWheelEvent(tick=1, channel=0, data=[51, 70]),
   midi.PitchWheelEvent(tick=1, channel=0, data=[34, 68]),
   midi.PitchWheelEvent(tick=1, channel=0, data=[17, 66]),
   midi.PitchWheelEvent(tick=1, channel=0, data=[0, 64]),
   midi.NoteOnEvent(tick=60, channel=0, data=[64, 0]),
   midi.NoteOnEvent(tick=0, channel=0, data=[61, 127]),
   midi.NoteOnEvent(tick=30, channel=0, data=[61, 0]),
   midi.NoteOnEvent(tick=0, channel=0, data=[64, 127]),
   midi.NoteOnEvent(tick=30, channel=0, data=[64, 0]),
   midi.NoteOnEvent(tick=0, channel=0, data=[61, 127]),
   midi.NoteOnEvent(tick=60, channel=0, data=[61, 0]),
   midi.NoteOnEvent(tick=0, channel=0, data=[57, 127]),
   midi.NoteOnEvent(tick=60, channel=0, data=[57, 0]),
   midi.NoteOnEvent(tick=0, channel=0, data=[57, 127]),
   midi.NoteOnEvent(tick=60, channel=0, data=[57, 0]),
   midi.NoteOnEvent(tick=0, channel=0, data=[57, 127]),
   midi.NoteOnEvent(tick=60, channel=0, data=[57, 0]),
   midi.NoteOnEvent(tick=0, channel=0, data=[56, 127]),
   midi.NoteOnEvent(tick=60, channel=0, data=[56, 0]),
   midi.NoteOnEvent(tick=0, channel=0, data=[56, 127]),
   midi.NoteOnEvent(tick=60, channel=0, data=[56, 0]),
   midi.NoteOnEvent(tick=0, channel=0, data=[57, 127]),
   midi.NoteOnEvent(tick=60, channel=0, data=[57, 0]),
   midi.NoteOnEvent(tick=0, channel=0, data=[56, 127]),
   midi.NoteOnEvent(tick=60, channel=0, data=[56, 0]),
   midi.NoteOnEvent(tick=0, channel=0, data=[56, 127]),
   midi.NoteOnEvent(tick=30, channel=0, data=[56, 0]),
   midi.NoteOnEvent(tick=0, channel=0, data=[57, 127]),
   midi.NoteOnEvent(tick=30, channel=0, data=[57, 0]),
   midi.NoteOnEvent(tick=0, channel=0, data=[59, 127]),
   midi.NoteOnEvent(tick=180, channel=0, data=[59, 0]),
   midi.NoteOnEvent(tick=0, channel=0, data=[54, 127]),
   midi.NoteOnEvent(tick=420, channel=0, data=[54, 0]),
   midi.NoteOnEvent(tick=0, channel=0, data=[52, 127]),
   midi.NoteOnEvent(tick=30, channel=0, data=[52, 0]),
   midi.NoteOnEvent(tick=0, channel=0, data=[54, 127]),
   midi.NoteOnEvent(tick=30, channel=0, data=[54, 0]),
   midi.NoteOnEvent(tick=0, channel=0, data=[57, 127]),
   midi.NoteOnEvent(tick=30, channel=0, data=[57, 0]),
   midi.NoteOnEvent(tick=0, channel=0, data=[59, 127]),
   midi.NoteOnEvent(tick=30, channel=0, data=[59, 0]),
   midi.NoteOnEvent(tick=0, channel=0, data=[61, 127]),
   midi.NoteOnEvent(tick=60, channel=0, data=[61, 0]),
   midi.NoteOnEvent(tick=0, channel=0, data=[59, 127]),
   midi.NoteOnEvent(tick=60, channel=0, data=[59, 0]),
   midi.NoteOnEvent(tick=0, channel=0, data=[57, 127]),
   midi.NoteOnEvent(tick=30, channel=0, data=[57, 0]),
   midi.NoteOnEvent(tick=0, channel=0, data=[59, 127]),
   midi.NoteOnEvent(tick=30, channel=0, data=[59, 0]),
   midi.NoteOnEvent(tick=0, channel=0, data=[61, 127]),
   midi.NoteOnEvent(tick=60, channel=0, data=[61, 0]),
   midi.NoteOnEvent(tick=0, channel=0, data=[54, 127]),
   midi.NoteOnEvent(tick=60, channel=0, data=[54, 0]),
   midi.NoteOnEvent(tick=0, channel=0, data=[57, 127]),
   midi.NoteOnEvent(tick=60, channel=0, data=[57, 0]),
   midi.NoteOnEvent(tick=0, channel=0, data=[57, 127]),
   midi.NoteOnEvent(tick=480, channel=0, data=[57, 0]),
   midi.PitchWheelEvent(tick=0, channel=0, data=[0, 64]),
   midi.NoteOnEvent(tick=0, channel=0, data=[64, 127]),
   midi.PitchWheelEvent(tick=1, channel=0, data=[34, 68]),
   midi.PitchWheelEvent(tick=1, channel=0, data=[68, 72]),
   midi.PitchWheelEvent(tick=1, channel=0, data=[102, 76]),
   midi.PitchWheelEvent(tick=1, channel=0, data=[8, 81]),
   midi.PitchWheelEvent(tick=1, channel=0, data=[42, 85]),
   midi.PitchWheelEvent(tick=1, channel=0, data=[76, 89]),
   midi.PitchWheelEvent(tick=1, channel=0, data=[110, 93]),
   midi.PitchWheelEvent(tick=1, channel=0, data=[17, 98]),
   midi.PitchWheelEvent(tick=1, channel=0, data=[51, 102]),
   midi.PitchWheelEvent(tick=1, channel=0, data=[85, 106]),
   midi.PitchWheelEvent(tick=1, channel=0, data=[119, 110]),
   midi.PitchWheelEvent(tick=1, channel=0, data=[25, 115]),
   midi.PitchWheelEvent(tick=1, channel=0, data=[59, 119]),
   midi.PitchWheelEvent(tick=1, channel=0, data=[93, 123]),
   midi.PitchWheelEvent(tick=1, channel=0, data=[127, 127]),
   midi.PitchWheelEvent(tick=0, channel=0, data=[127, 127]),
   midi.PitchWheelEvent(tick=1, channel=0, data=[93, 123]),
   midi.PitchWheelEvent(tick=1, channel=0, data=[59, 119]),
   midi.PitchWheelEvent(tick=1, channel=0, data=[25, 115]),
   midi.PitchWheelEvent(tick=1, channel=0, data=[119, 110]),
   midi.PitchWheelEvent(tick=1, channel=0, data=[85, 106]),
   midi.PitchWheelEvent(tick=1, channel=0, data=[51, 102]),
   midi.PitchWheelEvent(tick=1, channel=0, data=[17, 98]),
   midi.PitchWheelEvent(tick=1, channel=0, data=[110, 93]),
   midi.PitchWheelEvent(tick=1, channel=0, data=[76, 89]),
   midi.PitchWheelEvent(tick=1, channel=0, data=[42, 85]),
   midi.PitchWheelEvent(tick=1, channel=0, data=[8, 81]),
   midi.PitchWheelEvent(tick=1, channel=0, data=[102, 76]),
   midi.PitchWheelEvent(tick=1, channel=0, data=[68, 72]),
   midi.PitchWheelEvent(tick=1, channel=0, data=[34, 68]),
   midi.PitchWheelEvent(tick=1, channel=0, data=[0, 64]),
   midi.PitchWheelEvent(tick=0, channel=0, data=[0, 64]),
   midi.PitchWheelEvent(tick=1, channel=0, data=[17, 66]),
   midi.PitchWheelEvent(tick=1, channel=0, data=[34, 68]),
   midi.PitchWheelEvent(tick=1, channel=0, data=[51, 70]),
   midi.PitchWheelEvent(tick=1, channel=0, data=[68, 72]),
   midi.PitchWheelEvent(tick=1, channel=0, data=[85, 74]),
   midi.PitchWheelEvent(tick=1, channel=0, data=[102, 76]),
   midi.PitchWheelEvent(tick=1, channel=0, data=[119, 78]),
   midi.PitchWheelEvent(tick=1, channel=0, data=[8, 81]),
   midi.PitchWheelEvent(tick=1, channel=0, data=[25, 83]),
   midi.PitchWheelEvent(tick=1, channel=0, data=[42, 85]),
   midi.PitchWheelEvent(tick=1, channel=0, data=[59, 87]),
   midi.PitchWheelEvent(tick=1, channel=0, data=[76, 89]),
   midi.PitchWheelEvent(tick=1, channel=0, data=[93, 91]),
   midi.PitchWheelEvent(tick=1, channel=0, data=[110, 93]),
   midi.PitchWheelEvent(tick=1, channel=0, data=[0, 96]),
   midi.PitchWheelEvent(tick=1, channel=0, data=[17, 98]),
   midi.PitchWheelEvent(tick=1, channel=0, data=[34, 100]),
   midi.PitchWheelEvent(tick=1, channel=0, data=[51, 102]),
   midi.PitchWheelEvent(tick=1, channel=0, data=[68, 104]),
   midi.PitchWheelEvent(tick=1, channel=0, data=[85, 106]),
   midi.PitchWheelEvent(tick=1, channel=0, data=[102, 108]),
   midi.PitchWheelEvent(tick=1, channel=0, data=[119, 110]),
   midi.PitchWheelEvent(tick=1, channel=0, data=[8, 113]),
   midi.PitchWheelEvent(tick=1, channel=0, data=[25, 115]),
   midi.PitchWheelEvent(tick=1, channel=0, data=[42, 117]),
   midi.PitchWheelEvent(tick=1, channel=0, data=[59, 119]),
   midi.PitchWheelEvent(tick=1, channel=0, data=[76, 121]),
   midi.PitchWheelEvent(tick=1, channel=0, data=[93, 123]),
   midi.PitchWheelEvent(tick=1, channel=0, data=[110, 125]),
   midi.PitchWheelEvent(tick=1, channel=0, data=[127, 127]),
   midi.NoteOnEvent(tick=480, channel=0, data=[64, 0]),
   midi.PitchWheelEvent(tick=0, channel=0, data=[0, 64]),
   midi.NoteOnEvent(tick=0, channel=0, data=[64, 127]),
   midi.PitchWheelEvent(tick=1, channel=0, data=[34, 68]),
   midi.PitchWheelEvent(tick=1, channel=0, data=[68, 72]),
   midi.PitchWheelEvent(tick=1, channel=0, data=[102, 76]),
   midi.PitchWheelEvent(tick=1, channel=0, data=[8, 81]),
   midi.PitchWheelEvent(tick=1, channel=0, data=[42, 85]),
   midi.PitchWheelEvent(tick=1, channel=0, data=[76, 89]),
   midi.PitchWheelEvent(tick=1, channel=0, data=[110, 93]),
   midi.PitchWheelEvent(tick=1, channel=0, data=[17, 98]),
   midi.PitchWheelEvent(tick=1, channel=0, data=[51, 102]),
   midi.PitchWheelEvent(tick=1, channel=0, data=[85, 106]),
   midi.PitchWheelEvent(tick=1, channel=0, data=[119, 110]),
   midi.PitchWheelEvent(tick=1, channel=0, data=[25, 115]),
   midi.PitchWheelEvent(tick=1, channel=0, data=[59, 119]),
   midi.PitchWheelEvent(tick=1, channel=0, data=[93, 123]),
   midi.PitchWheelEvent(tick=1, channel=0, data=[127, 127]),
   midi.PitchWheelEvent(tick=0, channel=0, data=[127, 127]),
   midi.PitchWheelEvent(tick=1, channel=0, data=[93, 123]),
   midi.PitchWheelEvent(tick=1, channel=0, data=[59, 119]),
   midi.PitchWheelEvent(tick=1, channel=0, data=[25, 115]),
   midi.PitchWheelEvent(tick=1, channel=0, data=[119, 110]),
   midi.PitchWheelEvent(tick=1, channel=0, data=[85, 106]),
   midi.PitchWheelEvent(tick=1, channel=0, data=[51, 102]),
   midi.PitchWheelEvent(tick=1, channel=0, data=[17, 98]),
   midi.PitchWheelEvent(tick=1, channel=0, data=[110, 93]),
   midi.PitchWheelEvent(tick=1, channel=0, data=[76, 89]),
   midi.PitchWheelEvent(tick=1, channel=0, data=[42, 85]),
   midi.PitchWheelEvent(tick=1, channel=0, data=[8, 81]),
   midi.PitchWheelEvent(tick=1, channel=0, data=[102, 76]),
   midi.PitchWheelEvent(tick=1, channel=0, data=[68, 72]),
   midi.PitchWheelEvent(tick=1, channel=0, data=[34, 68]),
   midi.PitchWheelEvent(tick=1, channel=0, data=[0, 64]),
   midi.PitchWheelEvent(tick=0, channel=0, data=[0, 64]),
   midi.PitchWheelEvent(tick=1, channel=0, data=[17, 66]),
   midi.PitchWheelEvent(tick=1, channel=0, data=[34, 68]),
   midi.PitchWheelEvent(tick=1, channel=0, data=[51, 70]),
   midi.PitchWheelEvent(tick=1, channel=0, data=[68, 72]),
   midi.PitchWheelEvent(tick=1, channel=0, data=[85, 74]),
   midi.PitchWheelEvent(tick=1, channel=0, data=[102, 76]),
   midi.PitchWheelEvent(tick=1, channel=0, data=[119, 78]),
   midi.PitchWheelEvent(tick=1, channel=0, data=[8, 81]),
   midi.PitchWheelEvent(tick=1, channel=0, data=[25, 83]),
   midi.PitchWheelEvent(tick=1, channel=0, data=[42, 85]),
   midi.PitchWheelEvent(tick=1, channel=0, data=[59, 87]),
   midi.PitchWheelEvent(tick=1, channel=0, data=[76, 89]),
   midi.PitchWheelEvent(tick=1, channel=0, data=[93, 91]),
   midi.PitchWheelEvent(tick=1, channel=0, data=[110, 93]),
   midi.PitchWheelEvent(tick=1, channel=0, data=[0, 96]),
   midi.PitchWheelEvent(tick=1, channel=0, data=[17, 98]),
   midi.PitchWheelEvent(tick=1, channel=0, data=[34, 100]),
   midi.PitchWheelEvent(tick=1, channel=0, data=[51, 102]),
   midi.PitchWheelEvent(tick=1, channel=0, data=[68, 104]),
   midi.PitchWheelEvent(tick=1, channel=0, data=[85, 106]),
   midi.PitchWheelEvent(tick=1, channel=0, data=[102, 108]),
   midi.PitchWheelEvent(tick=1, channel=0, data=[119, 110]),
   midi.PitchWheelEvent(tick=1, channel=0, data=[8, 113]),
   midi.PitchWheelEvent(tick=1, channel=0, data=[25, 115]),
   midi.PitchWheelEvent(tick=1, channel=0, data=[42, 117]),
   midi.PitchWheelEvent(tick=1, channel=0, data=[59, 119]),
   midi.PitchWheelEvent(tick=1, channel=0, data=[76, 121]),
   midi.PitchWheelEvent(tick=1, channel=0, data=[93, 123]),
   midi.PitchWheelEvent(tick=1, channel=0, data=[110, 125]),
   midi.PitchWheelEvent(tick=1, channel=0, data=[127, 127]),
   midi.PitchWheelEvent(tick=0, channel=0, data=[127, 127]),
   midi.PitchWheelEvent(tick=1, channel=0, data=[118, 126]),
   midi.PitchWheelEvent(tick=1, channel=0, data=[110, 125]),
   midi.PitchWheelEvent(tick=1, channel=0, data=[101, 124]),
   midi.PitchWheelEvent(tick=1, channel=0, data=[93, 123]),
   midi.PitchWheelEvent(tick=1, channel=0, data=[84, 122]),
   midi.PitchWheelEvent(tick=1, channel=0, data=[76, 121]),
   midi.PitchWheelEvent(tick=1, channel=0, data=[67, 120]),
   midi.PitchWheelEvent(tick=1, channel=0, data=[59, 119]),
   midi.PitchWheelEvent(tick=1, channel=0, data=[50, 118]),
   midi.PitchWheelEvent(tick=1, channel=0, data=[42, 117]),
   midi.PitchWheelEvent(tick=1, channel=0, data=[33, 116]),
   midi.PitchWheelEvent(tick=1, channel=0, data=[25, 115]),
   midi.PitchWheelEvent(tick=1, channel=0, data=[16, 114]),
   midi.PitchWheelEvent(tick=1, channel=0, data=[8, 113]),
   midi.PitchWheelEvent(tick=1, channel=0, data=[127, 111]),
   midi.PitchWheelEvent(tick=1, channel=0, data=[119, 110]),
   midi.PitchWheelEvent(tick=1, channel=0, data=[110, 109]),
   midi.PitchWheelEvent(tick=1, channel=0, data=[102, 108]),
   midi.PitchWheelEvent(tick=1, channel=0, data=[93, 107]),
   midi.PitchWheelEvent(tick=1, channel=0, data=[85, 106]),
   midi.PitchWheelEvent(tick=1, channel=0, data=[76, 105]),
   midi.PitchWheelEvent(tick=1, channel=0, data=[68, 104]),
   midi.PitchWheelEvent(tick=1, channel=0, data=[59, 103]),
   midi.PitchWheelEvent(tick=1, channel=0, data=[51, 102]),
   midi.PitchWheelEvent(tick=1, channel=0, data=[42, 101]),
   midi.PitchWheelEvent(tick=1, channel=0, data=[34, 100]),
   midi.PitchWheelEvent(tick=1, channel=0, data=[25, 99]),
   midi.PitchWheelEvent(tick=1, channel=0, data=[17, 98]),
   midi.PitchWheelEvent(tick=1, channel=0, data=[8, 97]),
   midi.PitchWheelEvent(tick=1, channel=0, data=[127, 95]),
   midi.PitchWheelEvent(tick=1, channel=0, data=[119, 94]),
   midi.PitchWheelEvent(tick=1, channel=0, data=[110, 93]),
   midi.PitchWheelEvent(tick=1, channel=0, data=[102, 92]),
   midi.PitchWheelEvent(tick=1, channel=0, data=[93, 91]),
   midi.PitchWheelEvent(tick=1, channel=0, data=[85, 90]),
   midi.PitchWheelEvent(tick=1, channel=0, data=[76, 89]),
   midi.PitchWheelEvent(tick=1, channel=0, data=[68, 88]),
   midi.PitchWheelEvent(tick=1, channel=0, data=[59, 87]),
   midi.PitchWheelEvent(tick=1, channel=0, data=[51, 86]),
   midi.PitchWheelEvent(tick=1, channel=0, data=[42, 85]),
   midi.PitchWheelEvent(tick=1, channel=0, data=[34, 84]),
   midi.PitchWheelEvent(tick=1, channel=0, data=[25, 83]),
   midi.PitchWheelEvent(tick=1, channel=0, data=[17, 82]),
   midi.PitchWheelEvent(tick=1, channel=0, data=[8, 81]),
   midi.PitchWheelEvent(tick=1, channel=0, data=[0, 80]),
   midi.PitchWheelEvent(tick=1, channel=0, data=[119, 78]),
   midi.PitchWheelEvent(tick=1, channel=0, data=[111, 77]),
   midi.PitchWheelEvent(tick=1, channel=0, data=[102, 76]),
   midi.PitchWheelEvent(tick=1, channel=0, data=[94, 75]),
   midi.PitchWheelEvent(tick=1, channel=0, data=[85, 74]),
   midi.PitchWheelEvent(tick=1, channel=0, data=[77, 73]),
   midi.PitchWheelEvent(tick=1, channel=0, data=[68, 72]),
   midi.PitchWheelEvent(tick=1, channel=0, data=[60, 71]),
   midi.PitchWheelEvent(tick=1, channel=0, data=[51, 70]),
   midi.PitchWheelEvent(tick=1, channel=0, data=[43, 69]),
   midi.PitchWheelEvent(tick=1, channel=0, data=[34, 68]),
   midi.PitchWheelEvent(tick=1, channel=0, data=[26, 67]),
   midi.PitchWheelEvent(tick=1, channel=0, data=[17, 66]),
   midi.PitchWheelEvent(tick=1, channel=0, data=[9, 65]),
   midi.PitchWheelEvent(tick=1, channel=0, data=[0, 64]),
   midi.NoteOnEvent(tick=60, channel=0, data=[64, 0]),
   midi.NoteOnEvent(tick=0, channel=0, data=[61, 127]),
   midi.NoteOnEvent(tick=30, channel=0, data=[61, 0]),
   midi.NoteOnEvent(tick=0, channel=0, data=[64, 127]),
   midi.NoteOnEvent(tick=30, channel=0, data=[64, 0]),
   midi.NoteOnEvent(tick=0, channel=0, data=[61, 127]),
   midi.NoteOnEvent(tick=60, channel=0, data=[61, 0]),
   midi.NoteOnEvent(tick=0, channel=0, data=[57, 127]),
   midi.NoteOnEvent(tick=60, channel=0, data=[57, 0]),
   midi.NoteOnEvent(tick=0, channel=0, data=[57, 127]),
   midi.NoteOnEvent(tick=60, channel=0, data=[57, 0]),
   midi.NoteOnEvent(tick=0, channel=0, data=[57, 127]),
   midi.NoteOnEvent(tick=60, channel=0, data=[57, 0]),
   midi.NoteOnEvent(tick=0, channel=0, data=[56, 127]),
   midi.NoteOnEvent(tick=60, channel=0, data=[56, 0]),
   midi.NoteOnEvent(tick=0, channel=0, data=[56, 127]),
   midi.NoteOnEvent(tick=60, channel=0, data=[56, 0]),
   midi.NoteOnEvent(tick=0, channel=0, data=[57, 127]),
   midi.NoteOnEvent(tick=60, channel=0, data=[57, 0]),
   midi.NoteOnEvent(tick=0, channel=0, data=[56, 127]),
   midi.NoteOnEvent(tick=60, channel=0, data=[56, 0]),
   midi.NoteOnEvent(tick=0, channel=0, data=[56, 127]),
   midi.NoteOnEvent(tick=30, channel=0, data=[56, 0]),
   midi.NoteOnEvent(tick=0, channel=0, data=[57, 127]),
   midi.NoteOnEvent(tick=30, channel=0, data=[57, 0]),
   midi.NoteOnEvent(tick=0, channel=0, data=[59, 127]),
   midi.NoteOnEvent(tick=90, channel=0, data=[59, 0]),
   midi.NoteOnEvent(tick=0, channel=0, data=[64, 127]),
   midi.NoteOnEvent(tick=30, channel=0, data=[64, 0]),
   midi.NoteOnEvent(tick=0, channel=0, data=[64, 127]),
   midi.NoteOnEvent(tick=30, channel=0, data=[64, 0]),
   midi.NoteOnEvent(tick=0, channel=0, data=[64, 127]),
   midi.NoteOnEvent(tick=30, channel=0, data=[64, 0]),
   midi.NoteOnEvent(tick=0, channel=0, data=[64, 127]),
   midi.NoteOnEvent(tick=60, channel=0, data=[64, 0]),
   midi.NoteOnEvent(tick=0, channel=0, data=[64, 127]),
   midi.NoteOnEvent(tick=30, channel=0, data=[64, 0]),
   midi.NoteOnEvent(tick=0, channel=0, data=[64, 127]),
   midi.NoteOnEvent(tick=30, channel=0, data=[64, 0]),
   midi.NoteOnEvent(tick=0, channel=0, data=[64, 127]),
   midi.NoteOnEvent(tick=60, channel=0, data=[64, 0]),
   midi.NoteOnEvent(tick=0, channel=0, data=[64, 127]),
   midi.NoteOnEvent(tick=60, channel=0, data=[64, 0]),
   midi.NoteOnEvent(tick=0, channel=0, data=[61, 127]),
   midi.NoteOnEvent(tick=60, channel=0, data=[61, 0]),
   midi.NoteOnEvent(tick=0, channel=0, data=[61, 127]),
   midi.NoteOnEvent(tick=60, channel=0, data=[61, 0]),
   midi.NoteOnEvent(tick=0, channel=0, data=[62, 127]),
   midi.NoteOnEvent(tick=60, channel=0, data=[62, 0]),
   midi.NoteOnEvent(tick=0, channel=0, data=[62, 127]),
   midi.NoteOnEvent(tick=60, channel=0, data=[62, 0]),
   midi.NoteOnEvent(tick=0, channel=0, data=[62, 127]),
   midi.NoteOnEvent(tick=60, channel=0, data=[62, 0]),
   midi.NoteOnEvent(tick=0, channel=0, data=[59, 127]),
   midi.NoteOnEvent(tick=30, channel=0, data=[59, 0]),
   midi.NoteOnEvent(tick=0, channel=0, data=[57, 127]),
   midi.NoteOnEvent(tick=30, channel=0, data=[57, 0]),
   midi.NoteOnEvent(tick=0, channel=0, data=[56, 127]),
   midi.NoteOnEvent(tick=60, channel=0, data=[56, 0]),
   midi.NoteOnEvent(tick=0, channel=0, data=[57, 127]),
   midi.NoteOnEvent(tick=30, channel=0, data=[57, 0]),
   midi.NoteOnEvent(tick=0, channel=0, data=[61, 127]),
   midi.NoteOnEvent(tick=30, channel=0, data=[61, 0]),
   midi.NoteOnEvent(tick=0, channel=0, data=[61, 127]),
   midi.NoteOnEvent(tick=570, channel=0, data=[61, 0]),
   midi.NoteOnEvent(tick=0, channel=0, data=[64, 127]),
   midi.NoteOnEvent(tick=30, channel=0, data=[64, 0]),
   midi.NoteOnEvent(tick=0, channel=0, data=[64, 127]),
   midi.NoteOnEvent(tick=30, channel=0, data=[64, 0]),
   midi.NoteOnEvent(tick=0, channel=0, data=[64, 127]),
   midi.NoteOnEvent(tick=30, channel=0, data=[64, 0]),
   midi.NoteOnEvent(tick=0, channel=0, data=[64, 127]),
   midi.NoteOnEvent(tick=30, channel=0, data=[64, 0]),
   midi.NoteOnEvent(tick=0, channel=0, data=[64, 127]),
   midi.NoteOnEvent(tick=30, channel=0, data=[64, 0]),
   midi.NoteOnEvent(tick=0, channel=0, data=[64, 127]),
   midi.NoteOnEvent(tick=60, channel=0, data=[64, 0]),
   midi.NoteOnEvent(tick=0, channel=0, data=[64, 127]),
   midi.NoteOnEvent(tick=30, channel=0, data=[64, 0]),
   midi.NoteOnEvent(tick=0, channel=0, data=[64, 127]),
   midi.NoteOnEvent(tick=30, channel=0, data=[64, 0]),
   midi.NoteOnEvent(tick=0, channel=0, data=[64, 127]),
   midi.NoteOnEvent(tick=60, channel=0, data=[64, 0]),
   midi.NoteOnEvent(tick=0, channel=0, data=[64, 127]),
   midi.NoteOnEvent(tick=60, channel=0, data=[64, 0]),
   midi.NoteOnEvent(tick=0, channel=0, data=[61, 127]),
   midi.NoteOnEvent(tick=60, channel=0, data=[61, 0]),
   midi.NoteOnEvent(tick=0, channel=0, data=[61, 127]),
   midi.NoteOnEvent(tick=60, channel=0, data=[61, 0]),
   midi.NoteOnEvent(tick=0, channel=0, data=[62, 127]),
   midi.NoteOnEvent(tick=60, channel=0, data=[62, 0]),
   midi.NoteOnEvent(tick=0, channel=0, data=[62, 127]),
   midi.NoteOnEvent(tick=60, channel=0, data=[62, 0]),
   midi.NoteOnEvent(tick=0, channel=0, data=[62, 127]),
   midi.NoteOnEvent(tick=60, channel=0, data=[62, 0]),
   midi.NoteOnEvent(tick=0, channel=0, data=[59, 127]),
   midi.NoteOnEvent(tick=30, channel=0, data=[59, 0]),
   midi.NoteOnEvent(tick=0, channel=0, data=[57, 127]),
   midi.NoteOnEvent(tick=30, channel=0, data=[57, 0]),
   midi.NoteOnEvent(tick=0, channel=0, data=[56, 127]),
   midi.NoteOnEvent(tick=60, channel=0, data=[56, 0]),
   midi.NoteOnEvent(tick=0, channel=0, data=[57, 127]),
   midi.NoteOnEvent(tick=30, channel=0, data=[57, 0]),
   midi.NoteOnEvent(tick=0, channel=0, data=[61, 127]),
   midi.NoteOnEvent(tick=30, channel=0, data=[61, 0]),
   midi.NoteOnEvent(tick=0, channel=0, data=[61, 127]),
   midi.NoteOnEvent(tick=540, channel=0, data=[61, 0]),
   midi.PitchWheelEvent(tick=0, channel=0, data=[0, 64]),
   midi.NoteOnEvent(tick=0, channel=0, data=[59, 127]),
   midi.PitchWheelEvent(tick=1, channel=0, data=[51, 70]),
   midi.PitchWheelEvent(tick=1, channel=0, data=[102, 76]),
   midi.PitchWheelEvent(tick=1, channel=0, data=[25, 83]),
   midi.PitchWheelEvent(tick=1, channel=0, data=[76, 89]),
   midi.PitchWheelEvent(tick=1, channel=0, data=[0, 96]),
   midi.PitchWheelEvent(tick=1, channel=0, data=[51, 102]),
   midi.PitchWheelEvent(tick=1, channel=0, data=[102, 108]),
   midi.PitchWheelEvent(tick=1, channel=0, data=[25, 115]),
   midi.PitchWheelEvent(tick=1, channel=0, data=[76, 121]),
   midi.PitchWheelEvent(tick=1, channel=0, data=[127, 127]),
   midi.PitchWheelEvent(tick=100, channel=0, data=[127, 127]),
   midi.PitchWheelEvent(tick=1, channel=0, data=[76, 121]),
   midi.PitchWheelEvent(tick=1, channel=0, data=[25, 115]),
   midi.PitchWheelEvent(tick=1, channel=0, data=[102, 108]),
   midi.PitchWheelEvent(tick=1, channel=0, data=[51, 102]),
   midi.PitchWheelEvent(tick=1, channel=0, data=[127, 95]),
   midi.PitchWheelEvent(tick=1, channel=0, data=[76, 89]),
   midi.PitchWheelEvent(tick=1, channel=0, data=[25, 83]),
   midi.PitchWheelEvent(tick=1, channel=0, data=[102, 76]),
   midi.PitchWheelEvent(tick=1, channel=0, data=[51, 70]),
   midi.PitchWheelEvent(tick=1, channel=0, data=[0, 64]),
   midi.NoteOnEvent(tick=30, channel=0, data=[59, 0]),
   midi.NoteOnEvent(tick=0, channel=0, data=[57, 127]),
   midi.NoteOnEvent(tick=30, channel=0, data=[57, 0]),
   midi.NoteOnEvent(tick=0, channel=0, data=[57, 127]),
   midi.NoteOnEvent(tick=0, channel=0, data=[61, 127]),
   midi.NoteOnEvent(tick=630, channel=0, data=[57, 0]),
   midi.NoteOnEvent(tick=0, channel=0, data=[61, 0]),
   midi.NoteOnEvent(tick=0, channel=0, data=[52, 127]),
   midi.NoteOnEvent(tick=30, channel=0, data=[52, 0]),
   midi.NoteOnEvent(tick=0, channel=0, data=[52, 127]),
   midi.NoteOnEvent(tick=30, channel=0, data=[52, 0]),
   midi.NoteOnEvent(tick=0, channel=0, data=[57, 127]),
   midi.NoteOnEvent(tick=30, channel=0, data=[57, 0]),
   midi.NoteOnEvent(tick=0, channel=0, data=[54, 127]),
   midi.NoteOnEvent(tick=540, channel=0, data=[54, 0]),
   midi.NoteOnEvent(tick=0, channel=0, data=[54, 127]),
   midi.NoteOnEvent(tick=180, channel=0, data=[54, 0]),
   midi.NoteOnEvent(tick=0, channel=0, data=[54, 127]),
   midi.NoteOnEvent(tick=60, channel=0, data=[54, 0]),
   midi.NoteOnEvent(tick=0, channel=0, data=[54, 127]),
   midi.NoteOnEvent(tick=30, channel=0, data=[54, 0]),
   midi.NoteOnEvent(tick=0, channel=0, data=[57, 127]),
   midi.NoteOnEvent(tick=30, channel=0, data=[57, 0]),
   midi.NoteOnEvent(tick=0, channel=0, data=[61, 127]),
   midi.NoteOnEvent(tick=30, channel=0, data=[61, 0]),
   midi.NoteOnEvent(tick=0, channel=0, data=[57, 127]),
   midi.NoteOnEvent(tick=30, channel=0, data=[57, 0]),
   midi.NoteOnEvent(tick=0, channel=0, data=[61, 127]),
   midi.NoteOnEvent(tick=60, channel=0, data=[61, 0]),
   midi.NoteOnEvent(tick=0, channel=0, data=[57, 127]),
   midi.NoteOnEvent(tick=30, channel=0, data=[57, 0]),
   midi.NoteOnEvent(tick=0, channel=0, data=[61, 127]),
   midi.NoteOnEvent(tick=30, channel=0, data=[61, 0]),
   midi.NoteOnEvent(tick=0, channel=0, data=[64, 127]),
   midi.NoteOnEvent(tick=30, channel=0, data=[64, 0]),
   midi.NoteOnEvent(tick=0, channel=0, data=[61, 127]),
   midi.NoteOnEvent(tick=30, channel=0, data=[61, 0]),
   midi.NoteOnEvent(tick=0, channel=0, data=[62, 127]),
   midi.NoteOnEvent(tick=60, channel=0, data=[62, 0]),
   midi.NoteOnEvent(tick=0, channel=0, data=[62, 127]),
   midi.NoteOnEvent(tick=30, channel=0, data=[62, 0]),
   midi.NoteOnEvent(tick=0, channel=0, data=[59, 127]),
   midi.NoteOnEvent(tick=30, channel=0, data=[59, 0]),
   midi.NoteOnEvent(tick=0, channel=0, data=[56, 127]),
   midi.NoteOnEvent(tick=60, channel=0, data=[56, 0]),
   midi.NoteOnEvent(tick=0, channel=0, data=[52, 127]),
   midi.NoteOnEvent(tick=60, channel=0, data=[52, 0]),
   midi.NoteOnEvent(tick=0, channel=0, data=[52, 127]),
   midi.NoteOnEvent(tick=30, channel=0, data=[52, 0]),
   midi.NoteOnEvent(tick=0, channel=0, data=[56, 127]),
   midi.NoteOnEvent(tick=30, channel=0, data=[56, 0]),
   midi.NoteOnEvent(tick=0, channel=0, data=[59, 127]),
   midi.NoteOnEvent(tick=30, channel=0, data=[59, 0]),
   midi.NoteOnEvent(tick=0, channel=0, data=[56, 127]),
   midi.NoteOnEvent(tick=30, channel=0, data=[56, 0]),
   midi.NoteOnEvent(tick=0, channel=0, data=[57, 127]),
   midi.NoteOnEvent(tick=60, channel=0, data=[57, 0]),
   midi.NoteOnEvent(tick=0, channel=0, data=[54, 127]),
   midi.NoteOnEvent(tick=30, channel=0, data=[54, 0]),
   midi.NoteOnEvent(tick=0, channel=0, data=[57, 127]),
   midi.NoteOnEvent(tick=30, channel=0, data=[57, 0]),
   midi.NoteOnEvent(tick=0, channel=0, data=[61, 127]),
   midi.NoteOnEvent(tick=30, channel=0, data=[61, 0]),
   midi.NoteOnEvent(tick=0, channel=0, data=[57, 127]),
   midi.NoteOnEvent(tick=30, channel=0, data=[57, 0]),
   midi.NoteOnEvent(tick=0, channel=0, data=[61, 127]),
   midi.NoteOnEvent(tick=60, channel=0, data=[61, 0]),
   midi.NoteOnEvent(tick=0, channel=0, data=[57, 127]),
   midi.NoteOnEvent(tick=30, channel=0, data=[57, 0]),
   midi.NoteOnEvent(tick=0, channel=0, data=[61, 127]),
   midi.NoteOnEvent(tick=30, channel=0, data=[61, 0]),
   midi.NoteOnEvent(tick=0, channel=0, data=[64, 127]),
   midi.NoteOnEvent(tick=30, channel=0, data=[64, 0]),
   midi.NoteOnEvent(tick=0, channel=0, data=[61, 127]),
   midi.NoteOnEvent(tick=30, channel=0, data=[61, 0]),
   midi.NoteOnEvent(tick=0, channel=0, data=[62, 127]),
   midi.NoteOnEvent(tick=60, channel=0, data=[62, 0]),
   midi.NoteOnEvent(tick=0, channel=0, data=[62, 127]),
   midi.NoteOnEvent(tick=30, channel=0, data=[62, 0]),
   midi.NoteOnEvent(tick=0, channel=0, data=[59, 127]),
   midi.NoteOnEvent(tick=30, channel=0, data=[59, 0]),
   midi.NoteOnEvent(tick=0, channel=0, data=[56, 127]),
   midi.NoteOnEvent(tick=60, channel=0, data=[56, 0]),
   midi.NoteOnEvent(tick=0, channel=0, data=[52, 127]),
   midi.NoteOnEvent(tick=60, channel=0, data=[52, 0]),
   midi.NoteOnEvent(tick=0, channel=0, data=[52, 127]),
   midi.NoteOnEvent(tick=30, channel=0, data=[52, 0]),
   midi.NoteOnEvent(tick=0, channel=0, data=[56, 127]),
   midi.NoteOnEvent(tick=30, channel=0, data=[56, 0]),
   midi.NoteOnEvent(tick=0, channel=0, data=[59, 127]),
   midi.NoteOnEvent(tick=30, channel=0, data=[59, 0]),
   midi.NoteOnEvent(tick=0, channel=0, data=[56, 127]),
   midi.NoteOnEvent(tick=30, channel=0, data=[56, 0]),
   midi.NoteOnEvent(tick=0, channel=0, data=[61, 127]),
   midi.NoteOnEvent(tick=60, channel=0, data=[61, 0]),
   midi.NoteOnEvent(tick=0, channel=0, data=[57, 127]),
   midi.NoteOnEvent(tick=30, channel=0, data=[57, 0]),
   midi.NoteOnEvent(tick=0, channel=0, data=[61, 127]),
   midi.NoteOnEvent(tick=30, channel=0, data=[61, 0]),
   midi.NoteOnEvent(tick=0, channel=0, data=[64, 127]),
   midi.NoteOnEvent(tick=30, channel=0, data=[64, 0]),
   midi.NoteOnEvent(tick=0, channel=0, data=[61, 127]),
   midi.NoteOnEvent(tick=30, channel=0, data=[61, 0]),
   midi.NoteOnEvent(tick=0, channel=0, data=[64, 127]),
   midi.NoteOnEvent(tick=60, channel=0, data=[64, 0]),
   midi.NoteOnEvent(tick=0, channel=0, data=[61, 127]),
   midi.NoteOnEvent(tick=30, channel=0, data=[61, 0]),
   midi.NoteOnEvent(tick=0, channel=0, data=[64, 127]),
   midi.NoteOnEvent(tick=30, channel=0, data=[64, 0]),
   midi.NoteOnEvent(tick=0, channel=0, data=[69, 127]),
   midi.NoteOnEvent(tick=30, channel=0, data=[69, 0]),
   midi.NoteOnEvent(tick=0, channel=0, data=[64, 127]),
   midi.NoteOnEvent(tick=30, channel=0, data=[64, 0]),
   midi.NoteOnEvent(tick=0, channel=0, data=[66, 127]),
   midi.NoteOnEvent(tick=60, channel=0, data=[66, 0]),
   midi.NoteOnEvent(tick=0, channel=0, data=[66, 127]),
   midi.NoteOnEvent(tick=30, channel=0, data=[66, 0]),
   midi.NoteOnEvent(tick=0, channel=0, data=[62, 127]),
   midi.NoteOnEvent(tick=30, channel=0, data=[62, 0]),
   midi.NoteOnEvent(tick=0, channel=0, data=[59, 127]),
   midi.NoteOnEvent(tick=60, channel=0, data=[59, 0]),
   midi.NoteOnEvent(tick=0, channel=0, data=[56, 127]),
   midi.NoteOnEvent(tick=60, channel=0, data=[56, 0]),
   midi.NoteOnEvent(tick=0, channel=0, data=[56, 127]),
   midi.NoteOnEvent(tick=30, channel=0, data=[56, 0]),
   midi.NoteOnEvent(tick=0, channel=0, data=[59, 127]),
   midi.NoteOnEvent(tick=30, channel=0, data=[59, 0]),
   midi.NoteOnEvent(tick=0, channel=0, data=[62, 127]),
   midi.NoteOnEvent(tick=30, channel=0, data=[62, 0]),
   midi.NoteOnEvent(tick=0, channel=0, data=[59, 127]),
   midi.NoteOnEvent(tick=30, channel=0, data=[59, 0]),
   midi.NoteOnEvent(tick=0, channel=0, data=[61, 127]),
   midi.NoteOnEvent(tick=60, channel=0, data=[61, 0]),
   midi.NoteOnEvent(tick=0, channel=0, data=[57, 127]),
   midi.NoteOnEvent(tick=30, channel=0, data=[57, 0]),
   midi.NoteOnEvent(tick=0, channel=0, data=[61, 127]),
   midi.NoteOnEvent(tick=30, channel=0, data=[61, 0]),
   midi.NoteOnEvent(tick=0, channel=0, data=[64, 127]),
   midi.NoteOnEvent(tick=30, channel=0, data=[64, 0]),
   midi.NoteOnEvent(tick=0, channel=0, data=[61, 127]),
   midi.NoteOnEvent(tick=30, channel=0, data=[61, 0]),
   midi.NoteOnEvent(tick=0, channel=0, data=[64, 127]),
   midi.NoteOnEvent(tick=60, channel=0, data=[64, 0]),
   midi.NoteOnEvent(tick=0, channel=0, data=[61, 127]),
   midi.NoteOnEvent(tick=30, channel=0, data=[61, 0]),
   midi.NoteOnEvent(tick=0, channel=0, data=[64, 127]),
   midi.NoteOnEvent(tick=30, channel=0, data=[64, 0]),
   midi.NoteOnEvent(tick=0, channel=0, data=[69, 127]),
   midi.NoteOnEvent(tick=30, channel=0, data=[69, 0]),
   midi.NoteOnEvent(tick=0, channel=0, data=[64, 127]),
   midi.NoteOnEvent(tick=30, channel=0, data=[64, 0]),
   midi.NoteOnEvent(tick=0, channel=0, data=[66, 127]),
   midi.NoteOnEvent(tick=30, channel=0, data=[66, 0]),
   midi.NoteOnEvent(tick=0, channel=0, data=[66, 127]),
   midi.NoteOnEvent(tick=15, channel=0, data=[66, 0]),
   midi.NoteOnEvent(tick=0, channel=0, data=[66, 127]),
   midi.NoteOnEvent(tick=15, channel=0, data=[66, 0]),
   midi.NoteOnEvent(tick=0, channel=0, data=[66, 127]),
   midi.NoteOnEvent(tick=30, channel=0, data=[66, 0]),
   midi.NoteOnEvent(tick=0, channel=0, data=[62, 127]),
   midi.NoteOnEvent(tick=30, channel=0, data=[62, 0]),
   midi.NoteOnEvent(tick=0, channel=0, data=[59, 127]),
   midi.NoteOnEvent(tick=30, channel=0, data=[59, 0]),
   midi.NoteOnEvent(tick=0, channel=0, data=[62, 127]),
   midi.NoteOnEvent(tick=30, channel=0, data=[62, 0]),
   midi.NoteOnEvent(tick=0, channel=0, data=[56, 127]),
   midi.NoteOnEvent(tick=60, channel=0, data=[56, 0]),
   midi.NoteOnEvent(tick=0, channel=0, data=[56, 127]),
   midi.NoteOnEvent(tick=30, channel=0, data=[56, 0]),
   midi.NoteOnEvent(tick=0, channel=0, data=[59, 127]),
   midi.NoteOnEvent(tick=30, channel=0, data=[59, 0]),
   midi.NoteOnEvent(tick=0, channel=0, data=[62, 127]),
   midi.NoteOnEvent(tick=30, channel=0, data=[62, 0]),
   midi.NoteOnEvent(tick=0, channel=0, data=[59, 127]),
   midi.NoteOnEvent(tick=30, channel=0, data=[59, 0]),
   midi.NoteOnEvent(tick=0, channel=0, data=[61, 127]),
   midi.NoteOnEvent(tick=120, channel=0, data=[61, 0]),
   midi.NoteOnEvent(tick=0, channel=0, data=[64, 127]),
   midi.NoteOnEvent(tick=30, channel=0, data=[64, 0]),
   midi.NoteOnEvent(tick=0, channel=0, data=[69, 127]),
   midi.NoteOnEvent(tick=30, channel=0, data=[69, 0]),
   midi.NoteOnEvent(tick=0, channel=0, data=[64, 127]),
   midi.NoteOnEvent(tick=120, channel=0, data=[64, 0]),
   midi.NoteOnEvent(tick=0, channel=0, data=[64, 127]),
   midi.NoteOnEvent(tick=30, channel=0, data=[64, 0]),
   midi.NoteOnEvent(tick=0, channel=0, data=[69, 127]),
   midi.NoteOnEvent(tick=30, channel=0, data=[69, 0]),
   midi.NoteOnEvent(tick=0, channel=0, data=[66, 127]),
   midi.NoteOnEvent(tick=120, channel=0, data=[66, 0]),
   midi.NoteOnEvent(tick=0, channel=0, data=[66, 127]),
   midi.NoteOnEvent(tick=30, channel=0, data=[66, 0]),
   midi.NoteOnEvent(tick=0, channel=0, data=[69, 127]),
   midi.NoteOnEvent(tick=30, channel=0, data=[69, 0]),
   midi.NoteOnEvent(tick=0, channel=0, data=[64, 127]),
   midi.NoteOnEvent(tick=120, channel=0, data=[64, 0]),
   midi.NoteOnEvent(tick=0, channel=0, data=[64, 127]),
   midi.NoteOnEvent(tick=30, channel=0, data=[64, 0]),
   midi.NoteOnEvent(tick=0, channel=0, data=[64, 127]),
   midi.NoteOnEvent(tick=30, channel=0, data=[64, 0]),
   midi.NoteOnEvent(tick=0, channel=0, data=[61, 127]),
   midi.NoteOnEvent(tick=120, channel=0, data=[61, 0]),
   midi.NoteOnEvent(tick=0, channel=0, data=[64, 127]),
   midi.NoteOnEvent(tick=30, channel=0, data=[64, 0]),
   midi.NoteOnEvent(tick=0, channel=0, data=[69, 127]),
   midi.NoteOnEvent(tick=30, channel=0, data=[69, 0]),
   midi.NoteOnEvent(tick=0, channel=0, data=[64, 127]),
   midi.NoteOnEvent(tick=120, channel=0, data=[64, 0]),
   midi.NoteOnEvent(tick=0, channel=0, data=[64, 127]),
   midi.NoteOnEvent(tick=30, channel=0, data=[64, 0]),
   midi.NoteOnEvent(tick=0, channel=0, data=[69, 127]),
   midi.NoteOnEvent(tick=30, channel=0, data=[69, 0]),
   midi.NoteOnEvent(tick=0, channel=0, data=[66, 127]),
   midi.NoteOnEvent(tick=120, channel=0, data=[66, 0]),
   midi.NoteOnEvent(tick=0, channel=0, data=[66, 127]),
   midi.NoteOnEvent(tick=30, channel=0, data=[66, 0]),
   midi.NoteOnEvent(tick=0, channel=0, data=[69, 127]),
   midi.NoteOnEvent(tick=30, channel=0, data=[69, 0]),
   midi.NoteOnEvent(tick=0, channel=0, data=[64, 127]),
   midi.NoteOnEvent(tick=120, channel=0, data=[64, 0]),
   midi.NoteOnEvent(tick=0, channel=0, data=[64, 127]),
   midi.NoteOnEvent(tick=30, channel=0, data=[64, 0]),
   midi.NoteOnEvent(tick=0, channel=0, data=[64, 127]),
   midi.NoteOnEvent(tick=30, channel=0, data=[64, 0]),
   midi.NoteOnEvent(tick=0, channel=0, data=[61, 127]),
   midi.NoteOnEvent(tick=120, channel=0, data=[61, 0]),
   midi.NoteOnEvent(tick=0, channel=0, data=[64, 127]),
   midi.NoteOnEvent(tick=30, channel=0, data=[64, 0]),
   midi.NoteOnEvent(tick=0, channel=0, data=[69, 127]),
   midi.NoteOnEvent(tick=30, channel=0, data=[69, 0]),
   midi.NoteOnEvent(tick=0, channel=0, data=[64, 127]),
   midi.NoteOnEvent(tick=120, channel=0, data=[64, 0]),
   midi.NoteOnEvent(tick=0, channel=0, data=[64, 127]),
   midi.NoteOnEvent(tick=30, channel=0, data=[64, 0]),
   midi.NoteOnEvent(tick=0, channel=0, data=[69, 127]),
   midi.NoteOnEvent(tick=30, channel=0, data=[69, 0]),
   midi.NoteOnEvent(tick=0, channel=0, data=[66, 127]),
   midi.NoteOnEvent(tick=120, channel=0, data=[66, 0]),
   midi.NoteOnEvent(tick=0, channel=0, data=[66, 127]),
   midi.NoteOnEvent(tick=30, channel=0, data=[66, 0]),
   midi.NoteOnEvent(tick=0, channel=0, data=[69, 127]),
   midi.NoteOnEvent(tick=30, channel=0, data=[69, 0]),
   midi.NoteOnEvent(tick=0, channel=0, data=[64, 127]),
   midi.NoteOnEvent(tick=120, channel=0, data=[64, 0]),
   midi.NoteOnEvent(tick=0, channel=0, data=[64, 127]),
   midi.NoteOnEvent(tick=30, channel=0, data=[64, 0]),
   midi.NoteOnEvent(tick=0, channel=0, data=[64, 127]),
   midi.NoteOnEvent(tick=30, channel=0, data=[64, 0]),
   midi.NoteOnEvent(tick=0, channel=0, data=[61, 127]),
   midi.NoteOnEvent(tick=120, channel=0, data=[61, 0]),
   midi.NoteOnEvent(tick=0, channel=0, data=[64, 127]),
   midi.NoteOnEvent(tick=30, channel=0, data=[64, 0]),
   midi.NoteOnEvent(tick=0, channel=0, data=[69, 127]),
   midi.NoteOnEvent(tick=30, channel=0, data=[69, 0]),
   midi.NoteOnEvent(tick=0, channel=0, data=[64, 127]),
   midi.NoteOnEvent(tick=120, channel=0, data=[64, 0]),
   midi.NoteOnEvent(tick=0, channel=0, data=[64, 127]),
   midi.NoteOnEvent(tick=30, channel=0, data=[64, 0]),
   midi.NoteOnEvent(tick=0, channel=0, data=[69, 127]),
   midi.NoteOnEvent(tick=30, channel=0, data=[69, 0]),
   midi.NoteOnEvent(tick=0, channel=0, data=[66, 127]),
   midi.NoteOnEvent(tick=120, channel=0, data=[66, 0]),
   midi.NoteOnEvent(tick=0, channel=0, data=[66, 127]),
   midi.NoteOnEvent(tick=30, channel=0, data=[66, 0]),
   midi.NoteOnEvent(tick=0, channel=0, data=[69, 127]),
   midi.NoteOnEvent(tick=30, channel=0, data=[69, 0]),
   midi.NoteOnEvent(tick=0, channel=0, data=[64, 127]),
   midi.NoteOnEvent(tick=120, channel=0, data=[64, 0]),
   midi.NoteOnEvent(tick=0, channel=0, data=[64, 127]),
   midi.NoteOnEvent(tick=30, channel=0, data=[64, 0]),
   midi.NoteOnEvent(tick=0, channel=0, data=[64, 127]),
   midi.NoteOnEvent(tick=30, channel=0, data=[64, 0]),
   midi.NoteOnEvent(tick=0, channel=0, data=[57, 127]),
   midi.NoteOnEvent(tick=30, channel=0, data=[57, 0]),
   midi.NoteOnEvent(tick=0, channel=0, data=[56, 127]),
   midi.NoteOnEvent(tick=30, channel=0, data=[56, 0]),
   midi.NoteOnEvent(tick=0, channel=0, data=[57, 127]),
   midi.NoteOnEvent(tick=30, channel=0, data=[57, 0]),
   midi.NoteOnEvent(tick=0, channel=0, data=[59, 127]),
   midi.NoteOnEvent(tick=30, channel=0, data=[59, 0]),
   midi.NoteOnEvent(tick=0, channel=0, data=[61, 127]),
   midi.NoteOnEvent(tick=30, channel=0, data=[61, 0]),
   midi.NoteOnEvent(tick=0, channel=0, data=[56, 127]),
   midi.NoteOnEvent(tick=30, channel=0, data=[56, 0]),
   midi.NoteOnEvent(tick=0, channel=0, data=[57, 127]),
   midi.NoteOnEvent(tick=30, channel=0, data=[57, 0]),
   midi.NoteOnEvent(tick=0, channel=0, data=[59, 127]),
   midi.NoteOnEvent(tick=30, channel=0, data=[59, 0]),
   midi.NoteOnEvent(tick=0, channel=0, data=[61, 127]),
   midi.NoteOnEvent(tick=30, channel=0, data=[61, 0]),
   midi.NoteOnEvent(tick=0, channel=0, data=[62, 127]),
   midi.NoteOnEvent(tick=30, channel=0, data=[62, 0]),
   midi.NoteOnEvent(tick=0, channel=0, data=[64, 127]),
   midi.NoteOnEvent(tick=30, channel=0, data=[64, 0]),
   midi.NoteOnEvent(tick=0, channel=0, data=[61, 127]),
   midi.NoteOnEvent(tick=30, channel=0, data=[61, 0]),
   midi.NoteOnEvent(tick=0, channel=0, data=[62, 127]),
   midi.NoteOnEvent(tick=30, channel=0, data=[62, 0]),
   midi.NoteOnEvent(tick=0, channel=0, data=[64, 127]),
   midi.NoteOnEvent(tick=30, channel=0, data=[64, 0]),
   midi.NoteOnEvent(tick=0, channel=0, data=[66, 127]),
   midi.NoteOnEvent(tick=30, channel=0, data=[66, 0]),
   midi.NoteOnEvent(tick=0, channel=0, data=[68, 127]),
   midi.NoteOnEvent(tick=30, channel=0, data=[68, 0]),
   midi.NoteOnEvent(tick=0, channel=0, data=[69, 127]),
   midi.NoteOnEvent(tick=30, channel=0, data=[69, 0]),
   midi.NoteOnEvent(tick=0, channel=0, data=[71, 127]),
   midi.NoteOnEvent(tick=30, channel=0, data=[71, 0]),
   midi.NoteOnEvent(tick=0, channel=0, data=[73, 127]),
   midi.NoteOnEvent(tick=30, channel=0, data=[73, 0]),
   midi.NoteOnEvent(tick=0, channel=0, data=[74, 127]),
   midi.NoteOnEvent(tick=30, channel=0, data=[74, 0]),
   midi.NoteOnEvent(tick=0, channel=0, data=[76, 127]),
   midi.NoteOnEvent(tick=30, channel=0, data=[76, 0]),
   midi.NoteOnEvent(tick=0, channel=0, data=[78, 127]),
   midi.NoteOnEvent(tick=30, channel=0, data=[78, 0]),
   midi.NoteOnEvent(tick=0, channel=0, data=[79, 127]),
   midi.NoteOnEvent(tick=30, channel=0, data=[79, 0]),
   midi.NoteOnEvent(tick=0, channel=0, data=[81, 127]),
   midi.NoteOnEvent(tick=30, channel=0, data=[81, 0]),
   midi.NoteOnEvent(tick=0, channel=0, data=[81, 127]),
   midi.NoteOnEvent(tick=120, channel=0, data=[81, 0]),
   midi.NoteOnEvent(tick=0, channel=0, data=[81, 127]),
   midi.NoteOnEvent(tick=60, channel=0, data=[81, 0]),
   midi.NoteOnEvent(tick=0, channel=0, data=[81, 127]),
   midi.NoteOnEvent(tick=60, channel=0, data=[81, 0]),
   midi.NoteOnEvent(tick=0, channel=0, data=[78, 127]),
   midi.NoteOnEvent(tick=30, channel=0, data=[78, 0]),
   midi.NoteOnEvent(tick=0, channel=0, data=[81, 127]),
   midi.NoteOnEvent(tick=15, channel=0, data=[81, 0]),
   midi.NoteOnEvent(tick=0, channel=0, data=[78, 127]),
   midi.NoteOnEvent(tick=11, channel=0, data=[78, 75]),
   midi.NoteOnEvent(tick=2, channel=0, data=[78, 0]),
   midi.NoteOnEvent(tick=0, channel=0, data=[81, 75]),
   midi.NoteOnEvent(tick=2, channel=0, data=[78, 0]),
   midi.NoteOnEvent(tick=0, channel=0, data=[81, 0]),
   midi.NoteOnEvent(tick=0, channel=0, data=[78, 127]),
   midi.NoteOnEvent(tick=30, channel=0, data=[78, 0]),
   midi.NoteOnEvent(tick=0, channel=0, data=[76, 127]),
   midi.NoteOnEvent(tick=30, channel=0, data=[76, 0]),
   midi.NoteOnEvent(tick=0, channel=0, data=[73, 127]),
   midi.NoteOnEvent(tick=30, channel=0, data=[73, 0]),
   midi.NoteOnEvent(tick=0, channel=0, data=[71, 127]),
   midi.NoteOnEvent(tick=30, channel=0, data=[71, 0]),
   midi.NoteOnEvent(tick=0, channel=0, data=[69, 127]),
   midi.NoteOnEvent(tick=30, channel=0, data=[69, 0]),
   midi.NoteOnEvent(tick=0, channel=0, data=[66, 127]),
   midi.NoteOnEvent(tick=30, channel=0, data=[66, 0]),
   midi.NoteOnEvent(tick=0, channel=0, data=[69, 127]),
   midi.NoteOnEvent(tick=30, channel=0, data=[69, 0]),
   midi.NoteOnEvent(tick=0, channel=0, data=[71, 127]),
   midi.NoteOnEvent(tick=30, channel=0, data=[71, 0]),
   midi.PitchWheelEvent(tick=0, channel=0, data=[0, 64]),
   midi.NoteOnEvent(tick=0, channel=0, data=[71, 127]),
   midi.PitchWheelEvent(tick=1, channel=0, data=[51, 70]),
   midi.PitchWheelEvent(tick=1, channel=0, data=[102, 76]),
   midi.PitchWheelEvent(tick=1, channel=0, data=[25, 83]),
   midi.PitchWheelEvent(tick=1, channel=0, data=[76, 89]),
   midi.PitchWheelEvent(tick=1, channel=0, data=[0, 96]),
   midi.PitchWheelEvent(tick=1, channel=0, data=[51, 102]),
   midi.PitchWheelEvent(tick=1, channel=0, data=[102, 108]),
   midi.PitchWheelEvent(tick=1, channel=0, data=[25, 115]),
   midi.PitchWheelEvent(tick=1, channel=0, data=[76, 121]),
   midi.PitchWheelEvent(tick=1, channel=0, data=[127, 127]),
   midi.NoteOnEvent(tick=20, channel=0, data=[71, 0]),
   midi.PitchWheelEvent(tick=0, channel=0, data=[0, 64]),
   midi.NoteOnEvent(tick=0, channel=0, data=[76, 127]),
   midi.NoteOnEvent(tick=30, channel=0, data=[76, 0]),
   midi.ControlChangeEvent(tick=0, channel=0, data=[1, 0]),
   midi.PitchWheelEvent(tick=0, channel=0, data=[0, 64]),
   midi.NoteOnEvent(tick=0, channel=0, data=[71, 127]),
   midi.ControlChangeEvent(tick=1, channel=0, data=[1, 6]),
   midi.PitchWheelEvent(tick=0, channel=0, data=[51, 70]),
   midi.ControlChangeEvent(tick=1, channel=0, data=[1, 13]),
   midi.PitchWheelEvent(tick=0, channel=0, data=[102, 76]),
   midi.ControlChangeEvent(tick=1, channel=0, data=[1, 19]),
   midi.PitchWheelEvent(tick=0, channel=0, data=[25, 83]),
   midi.ControlChangeEvent(tick=1, channel=0, data=[1, 26]),
   midi.PitchWheelEvent(tick=0, channel=0, data=[76, 89]),
   midi.ControlChangeEvent(tick=1, channel=0, data=[1, 32]),
   midi.PitchWheelEvent(tick=0, channel=0, data=[0, 96]),
   midi.ControlChangeEvent(tick=1, channel=0, data=[1, 38]),
   midi.PitchWheelEvent(tick=0, channel=0, data=[51, 102]),
   midi.ControlChangeEvent(tick=1, channel=0, data=[1, 45]),
   midi.PitchWheelEvent(tick=0, channel=0, data=[102, 108]),
   midi.ControlChangeEvent(tick=1, channel=0, data=[1, 51]),
   midi.PitchWheelEvent(tick=0, channel=0, data=[25, 115]),
   midi.ControlChangeEvent(tick=1, channel=0, data=[1, 58]),
   midi.PitchWheelEvent(tick=0, channel=0, data=[76, 121]),
   midi.ControlChangeEvent(tick=1, channel=0, data=[1, 64]),
   midi.PitchWheelEvent(tick=0, channel=0, data=[127, 127]),
   midi.NoteOnEvent(tick=50, channel=0, data=[71, 0]),
   midi.ControlChangeEvent(tick=0, channel=0, data=[1, 0]),
   midi.PitchWheelEvent(tick=0, channel=0, data=[0, 64]),
   midi.NoteOnEvent(tick=60, channel=0, data=[66, 127]),
   midi.NoteOnEvent(tick=60, channel=0, data=[66, 0]),
   midi.NoteOnEvent(tick=0, channel=0, data=[66, 127]),
   midi.NoteOnEvent(tick=30, channel=0, data=[66, 0]),
   midi.NoteOnEvent(tick=0, channel=0, data=[68, 127]),
   midi.NoteOnEvent(tick=30, channel=0, data=[68, 0]),
   midi.NoteOnEvent(tick=0, channel=0, data=[69, 127]),
   midi.NoteOnEvent(tick=55, channel=0, data=[69, 75]),
   midi.NoteOnEvent(tick=5, channel=0, data=[69, 0]),
   midi.NoteOnEvent(tick=0, channel=0, data=[69, 0]),
   midi.NoteOnEvent(tick=0, channel=0, data=[71, 127]),
   midi.NoteOnEvent(tick=60, channel=0, data=[71, 0]),
   midi.NoteOnEvent(tick=0, channel=0, data=[69, 127]),
   midi.NoteOnEvent(tick=60, channel=0, data=[69, 0]),
   midi.NoteOnEvent(tick=0, channel=0, data=[68, 127]),
   midi.NoteOnEvent(tick=60, channel=0, data=[68, 0]),
   midi.NoteOnEvent(tick=0, channel=0, data=[61, 127]),
   midi.NoteOnEvent(tick=10, channel=0, data=[61, 0]),
   midi.NoteOnEvent(tick=0, channel=0, data=[62, 127]),
   midi.NoteOnEvent(tick=10, channel=0, data=[62, 0]),
   midi.NoteOnEvent(tick=0, channel=0, data=[64, 127]),
   midi.NoteOnEvent(tick=10, channel=0, data=[64, 0]),
   midi.NoteOnEvent(tick=0, channel=0, data=[66, 127]),
   midi.NoteOnEvent(tick=30, channel=0, data=[66, 0]),
   midi.NoteOnEvent(tick=0, channel=0, data=[68, 127]),
   midi.NoteOnEvent(tick=10, channel=0, data=[68, 0]),
   midi.NoteOnEvent(tick=0, channel=0, data=[69, 127]),
   midi.NoteOnEvent(tick=10, channel=0, data=[69, 0]),
   midi.NoteOnEvent(tick=0, channel=0, data=[71, 127]),
   midi.NoteOnEvent(tick=40, channel=0, data=[71, 0]),
   midi.NoteOnEvent(tick=0, channel=0, data=[73, 127]),
   midi.NoteOnEvent(tick=60, channel=0, data=[73, 0]),
   midi.NoteOnEvent(tick=0, channel=0, data=[71, 127]),
   midi.NoteOnEvent(tick=60, channel=0, data=[71, 0]),
   midi.NoteOnEvent(tick=0, channel=0, data=[71, 127]),
   midi.NoteOnEvent(tick=30, channel=0, data=[71, 0]),
   midi.NoteOnEvent(tick=0, channel=0, data=[69, 127]),
   midi.NoteOnEvent(tick=30, channel=0, data=[69, 0]),
   midi.NoteOnEvent(tick=0, channel=0, data=[68, 127]),
   midi.NoteOnEvent(tick=30, channel=0, data=[68, 0]),
   midi.NoteOnEvent(tick=0, channel=0, data=[69, 127]),
   midi.NoteOnEvent(tick=30, channel=0, data=[69, 0]),
   midi.NoteOnEvent(tick=0, channel=0, data=[68, 127]),
   midi.NoteOnEvent(tick=30, channel=0, data=[68, 0]),
   midi.NoteOnEvent(tick=0, channel=0, data=[64, 127]),
   midi.NoteOnEvent(tick=30, channel=0, data=[64, 0]),
   midi.NoteOnEvent(tick=0, channel=0, data=[59, 127]),
   midi.NoteOnEvent(tick=60, channel=0, data=[59, 0]),
   midi.NoteOnEvent(tick=0, channel=0, data=[57, 127]),
   midi.NoteOnEvent(tick=30, channel=0, data=[57, 0]),
   midi.NoteOnEvent(tick=0, channel=0, data=[59, 127]),
   midi.NoteOnEvent(tick=30, channel=0, data=[59, 0]),
   midi.PitchWheelEvent(tick=0, channel=0, data=[0, 64]),
   midi.PitchWheelEvent(tick=0, channel=0, data=[0, 64]),
   midi.NoteOnEvent(tick=0, channel=0, data=[59, 127]),
   midi.PitchWheelEvent(tick=1, channel=0, data=[51, 70]),
   midi.PitchWheelEvent(tick=0, channel=0, data=[26, 67]),
   midi.PitchWheelEvent(tick=1, channel=0, data=[102, 76]),
   midi.PitchWheelEvent(tick=0, channel=0, data=[51, 70]),
   midi.PitchWheelEvent(tick=1, channel=0, data=[25, 83]),
   midi.PitchWheelEvent(tick=0, channel=0, data=[77, 73]),
   midi.PitchWheelEvent(tick=1, channel=0, data=[76, 89]),
   midi.PitchWheelEvent(tick=0, channel=0, data=[102, 76]),
   midi.PitchWheelEvent(tick=1, channel=0, data=[0, 96]),
   midi.PitchWheelEvent(tick=0, channel=0, data=[0, 80]),
   midi.PitchWheelEvent(tick=1, channel=0, data=[51, 102]),
   midi.PitchWheelEvent(tick=0, channel=0, data=[25, 83]),
   midi.PitchWheelEvent(tick=1, channel=0, data=[102, 108]),
   midi.PitchWheelEvent(tick=0, channel=0, data=[51, 86]),
   midi.PitchWheelEvent(tick=1, channel=0, data=[25, 115]),
   midi.PitchWheelEvent(tick=0, channel=0, data=[76, 89]),
   midi.PitchWheelEvent(tick=1, channel=0, data=[76, 121]),
   midi.PitchWheelEvent(tick=0, channel=0, data=[102, 92]),
   midi.PitchWheelEvent(tick=1, channel=0, data=[127, 127]),
   midi.PitchWheelEvent(tick=0, channel=0, data=[127, 127]),
   midi.PitchWheelEvent(tick=0, channel=0, data=[0, 96]),
   midi.PitchWheelEvent(tick=1, channel=0, data=[76, 121]),
   midi.PitchWheelEvent(tick=0, channel=0, data=[25, 99]),
   midi.PitchWheelEvent(tick=1, channel=0, data=[25, 115]),
   midi.PitchWheelEvent(tick=0, channel=0, data=[51, 102]),
   midi.PitchWheelEvent(tick=1, channel=0, data=[102, 108]),
   midi.PitchWheelEvent(tick=0, channel=0, data=[76, 105]),
   midi.PitchWheelEvent(tick=1, channel=0, data=[51, 102]),
   midi.PitchWheelEvent(tick=0, channel=0, data=[102, 108]),
   midi.PitchWheelEvent(tick=1, channel=0, data=[127, 95]),
   midi.PitchWheelEvent(tick=0, channel=0, data=[127, 111]),
   midi.PitchWheelEvent(tick=1, channel=0, data=[76, 89]),
   midi.PitchWheelEvent(tick=0, channel=0, data=[25, 115]),
   midi.PitchWheelEvent(tick=1, channel=0, data=[25, 83]),
   midi.PitchWheelEvent(tick=0, channel=0, data=[50, 118]),
   midi.PitchWheelEvent(tick=1, channel=0, data=[102, 76]),
   midi.PitchWheelEvent(tick=0, channel=0, data=[76, 121]),
   midi.PitchWheelEvent(tick=1, channel=0, data=[51, 70]),
   midi.PitchWheelEvent(tick=0, channel=0, data=[101, 124]),
   midi.PitchWheelEvent(tick=1, channel=0, data=[0, 64]),
   midi.PitchWheelEvent(tick=0, channel=0, data=[127, 127]),
   midi.NoteOnEvent(tick=20, channel=0, data=[59, 0]),
   midi.NoteOnEvent(tick=0, channel=0, data=[57, 127]),
   midi.NoteOnEvent(tick=20, channel=0, data=[57, 0]),
   midi.NoteOnEvent(tick=0, channel=0, data=[54, 127]),
   midi.NoteOnEvent(tick=60, channel=0, data=[54, 0]),
   midi.NoteOnEvent(tick=0, channel=0, data=[54, 127]),
   midi.NoteOnEvent(tick=30, channel=0, data=[54, 0]),
   midi.NoteOnEvent(tick=0, channel=0, data=[57, 127]),
   midi.NoteOnEvent(tick=30, channel=0, data=[57, 0]),
   midi.NoteOnEvent(tick=0, channel=0, data=[59, 127]),
   midi.NoteOnEvent(tick=30, channel=0, data=[59, 0]),
   midi.NoteOnEvent(tick=0, channel=0, data=[57, 127]),
   midi.NoteOnEvent(tick=30, channel=0, data=[57, 0]),
   midi.NoteOnEvent(tick=0, channel=0, data=[59, 127]),
   midi.NoteOnEvent(tick=30, channel=0, data=[59, 0]),
   midi.NoteOnEvent(tick=0, channel=0, data=[57, 127]),
   midi.NoteOnEvent(tick=30, channel=0, data=[57, 0]),
   midi.PitchWheelEvent(tick=0, channel=0, data=[0, 64]),
   midi.NoteOnEvent(tick=0, channel=0, data=[59, 127]),
   midi.PitchWheelEvent(tick=1, channel=0, data=[34, 68]),
   midi.PitchWheelEvent(tick=1, channel=0, data=[68, 72]),
   midi.PitchWheelEvent(tick=1, channel=0, data=[102, 76]),
   midi.PitchWheelEvent(tick=1, channel=0, data=[8, 81]),
   midi.PitchWheelEvent(tick=1, channel=0, data=[42, 85]),
   midi.PitchWheelEvent(tick=1, channel=0, data=[76, 89]),
   midi.PitchWheelEvent(tick=1, channel=0, data=[110, 93]),
   midi.PitchWheelEvent(tick=1, channel=0, data=[17, 98]),
   midi.PitchWheelEvent(tick=1, channel=0, data=[51, 102]),
   midi.PitchWheelEvent(tick=1, channel=0, data=[85, 106]),
   midi.PitchWheelEvent(tick=1, channel=0, data=[119, 110]),
   midi.PitchWheelEvent(tick=1, channel=0, data=[25, 115]),
   midi.PitchWheelEvent(tick=1, channel=0, data=[59, 119]),
   midi.PitchWheelEvent(tick=1, channel=0, data=[93, 123]),
   midi.PitchWheelEvent(tick=1, channel=0, data=[127, 127]),
   midi.PitchWheelEvent(tick=0, channel=0, data=[127, 127]),
   midi.PitchWheelEvent(tick=1, channel=0, data=[93, 123]),
   midi.PitchWheelEvent(tick=1, channel=0, data=[59, 119]),
   midi.PitchWheelEvent(tick=1, channel=0, data=[25, 115]),
   midi.PitchWheelEvent(tick=1, channel=0, data=[119, 110]),
   midi.PitchWheelEvent(tick=1, channel=0, data=[85, 106]),
   midi.PitchWheelEvent(tick=1, channel=0, data=[51, 102]),
   midi.PitchWheelEvent(tick=1, channel=0, data=[17, 98]),
   midi.PitchWheelEvent(tick=1, channel=0, data=[110, 93]),
   midi.PitchWheelEvent(tick=1, channel=0, data=[76, 89]),
   midi.PitchWheelEvent(tick=1, channel=0, data=[42, 85]),
   midi.PitchWheelEvent(tick=1, channel=0, data=[8, 81]),
   midi.PitchWheelEvent(tick=1, channel=0, data=[102, 76]),
   midi.PitchWheelEvent(tick=1, channel=0, data=[68, 72]),
   midi.PitchWheelEvent(tick=1, channel=0, data=[34, 68]),
   midi.PitchWheelEvent(tick=1, channel=0, data=[0, 64]),
   midi.NoteOnEvent(tick=15, channel=0, data=[59, 0]),
   midi.NoteOnEvent(tick=0, channel=0, data=[57, 127]),
   midi.NoteOnEvent(tick=15, channel=0, data=[57, 0]),
   midi.NoteOnEvent(tick=0, channel=0, data=[54, 127]),
   midi.NoteOnEvent(tick=60, channel=0, data=[54, 0]),
   midi.NoteOnEvent(tick=0, channel=0, data=[54, 127]),
   midi.NoteOnEvent(tick=120, channel=0, data=[54, 0]),
   midi.NoteOnEvent(tick=1440, channel=0, data=[62, 127]),
   midi.NoteOnEvent(tick=30, channel=0, data=[62, 0]),
   midi.NoteOnEvent(tick=0, channel=0, data=[59, 127]),
   midi.NoteOnEvent(tick=30, channel=0, data=[59, 0]),
   midi.NoteOnEvent(tick=0, channel=0, data=[55, 127]),
   midi.NoteOnEvent(tick=30, channel=0, data=[55, 0]),
   midi.NoteOnEvent(tick=0, channel=0, data=[62, 127]),
   midi.NoteOnEvent(tick=30, channel=0, data=[62, 0]),
   midi.NoteOnEvent(tick=0, channel=0, data=[59, 127]),
   midi.NoteOnEvent(tick=30, channel=0, data=[59, 0]),
   midi.NoteOnEvent(tick=0, channel=0, data=[55, 127]),
   midi.NoteOnEvent(tick=30, channel=0, data=[55, 0]),
   midi.NoteOnEvent(tick=0, channel=0, data=[59, 127]),
   midi.NoteOnEvent(tick=30, channel=0, data=[59, 0]),
   midi.NoteOnEvent(tick=0, channel=0, data=[55, 127]),
   midi.NoteOnEvent(tick=30, channel=0, data=[55, 0]),
   midi.NoteOnEvent(tick=0, channel=0, data=[52, 127]),
   midi.NoteOnEvent(tick=30, channel=0, data=[52, 0]),
   midi.NoteOnEvent(tick=0, channel=0, data=[59, 127]),
   midi.NoteOnEvent(tick=30, channel=0, data=[59, 0]),
   midi.NoteOnEvent(tick=0, channel=0, data=[55, 127]),
   midi.NoteOnEvent(tick=30, channel=0, data=[55, 0]),
   midi.NoteOnEvent(tick=0, channel=0, data=[52, 127]),
   midi.NoteOnEvent(tick=30, channel=0, data=[52, 0]),
   midi.NoteOnEvent(tick=0, channel=0, data=[60, 127]),
   midi.NoteOnEvent(tick=30, channel=0, data=[60, 0]),
   midi.NoteOnEvent(tick=0, channel=0, data=[57, 127]),
   midi.NoteOnEvent(tick=30, channel=0, data=[57, 0]),
   midi.NoteOnEvent(tick=0, channel=0, data=[54, 127]),
   midi.NoteOnEvent(tick=30, channel=0, data=[54, 0]),
   midi.NoteOnEvent(tick=0, channel=0, data=[60, 127]),
   midi.NoteOnEvent(tick=30, channel=0, data=[60, 0]),
   midi.NoteOnEvent(tick=0, channel=0, data=[57, 127]),
   midi.NoteOnEvent(tick=30, channel=0, data=[57, 0]),
   midi.NoteOnEvent(tick=0, channel=0, data=[54, 127]),
   midi.NoteOnEvent(tick=30, channel=0, data=[54, 0]),
   midi.NoteOnEvent(tick=0, channel=0, data=[57, 127]),
   midi.NoteOnEvent(tick=30, channel=0, data=[57, 0]),
   midi.NoteOnEvent(tick=0, channel=0, data=[54, 127]),
   midi.NoteOnEvent(tick=30, channel=0, data=[54, 0]),
   midi.NoteOnEvent(tick=0, channel=0, data=[50, 127]),
   midi.NoteOnEvent(tick=30, channel=0, data=[50, 0]),
   midi.NoteOnEvent(tick=0, channel=0, data=[54, 127]),
   midi.NoteOnEvent(tick=30, channel=0, data=[54, 0]),
   midi.NoteOnEvent(tick=0, channel=0, data=[57, 127]),
   midi.NoteOnEvent(tick=30, channel=0, data=[57, 0]),
   midi.NoteOnEvent(tick=0, channel=0, data=[54, 127]),
   midi.NoteOnEvent(tick=30, channel=0, data=[54, 0]),
   midi.PitchWheelEvent(tick=0, channel=0, data=[0, 64]),
   midi.NoteOnEvent(tick=0, channel=0, data=[66, 127]),
   midi.PitchWheelEvent(tick=1, channel=0, data=[26, 67]),
   midi.PitchWheelEvent(tick=1, channel=0, data=[51, 70]),
   midi.PitchWheelEvent(tick=1, channel=0, data=[77, 73]),
   midi.PitchWheelEvent(tick=1, channel=0, data=[102, 76]),
   midi.PitchWheelEvent(tick=1, channel=0, data=[0, 80]),
   midi.PitchWheelEvent(tick=1, channel=0, data=[26, 83]),
   midi.PitchWheelEvent(tick=1, channel=0, data=[51, 86]),
   midi.PitchWheelEvent(tick=1, channel=0, data=[77, 89]),
   midi.PitchWheelEvent(tick=1, channel=0, data=[102, 92]),
   midi.PitchWheelEvent(tick=1, channel=0, data=[0, 96]),
   midi.NoteOnEvent(tick=50, channel=0, data=[66, 0]),
   midi.PitchWheelEvent(tick=0, channel=0, data=[0, 64]),
   midi.NoteOnEvent(tick=0, channel=0, data=[66, 127]),
   midi.NoteOnEvent(tick=30, channel=0, data=[66, 0]),
   midi.NoteOnEvent(tick=0, channel=0, data=[64, 127]),
   midi.NoteOnEvent(tick=30, channel=0, data=[64, 0]),
   midi.PitchWheelEvent(tick=0, channel=0, data=[0, 64]),
   midi.NoteOnEvent(tick=0, channel=0, data=[66, 127]),
   midi.PitchWheelEvent(tick=1, channel=0, data=[17, 66]),
   midi.PitchWheelEvent(tick=1, channel=0, data=[34, 68]),
   midi.PitchWheelEvent(tick=1, channel=0, data=[51, 70]),
   midi.PitchWheelEvent(tick=1, channel=0, data=[68, 72]),
   midi.PitchWheelEvent(tick=1, channel=0, data=[85, 74]),
   midi.PitchWheelEvent(tick=1, channel=0, data=[102, 76]),
   midi.PitchWheelEvent(tick=1, channel=0, data=[119, 78]),
   midi.PitchWheelEvent(tick=1, channel=0, data=[9, 81]),
   midi.PitchWheelEvent(tick=1, channel=0, data=[26, 83]),
   midi.PitchWheelEvent(tick=1, channel=0, data=[43, 85]),
   midi.PitchWheelEvent(tick=1, channel=0, data=[60, 87]),
   midi.PitchWheelEvent(tick=1, channel=0, data=[77, 89]),
   midi.PitchWheelEvent(tick=1, channel=0, data=[94, 91]),
   midi.PitchWheelEvent(tick=1, channel=0, data=[111, 93]),
   midi.PitchWheelEvent(tick=1, channel=0, data=[0, 96]),
   midi.PitchWheelEvent(tick=0, channel=0, data=[0, 96]),
   midi.PitchWheelEvent(tick=1, channel=0, data=[111, 93]),
   midi.PitchWheelEvent(tick=1, channel=0, data=[94, 91]),
   midi.PitchWheelEvent(tick=1, channel=0, data=[77, 89]),
   midi.PitchWheelEvent(tick=1, channel=0, data=[60, 87]),
   midi.PitchWheelEvent(tick=1, channel=0, data=[43, 85]),
   midi.PitchWheelEvent(tick=1, channel=0, data=[26, 83]),
   midi.PitchWheelEvent(tick=1, channel=0, data=[9, 81]),
   midi.PitchWheelEvent(tick=1, channel=0, data=[119, 78]),
   midi.PitchWheelEvent(tick=1, channel=0, data=[102, 76]),
   midi.PitchWheelEvent(tick=1, channel=0, data=[85, 74]),
   midi.PitchWheelEvent(tick=1, channel=0, data=[68, 72]),
   midi.PitchWheelEvent(tick=1, channel=0, data=[51, 70]),
   midi.PitchWheelEvent(tick=1, channel=0, data=[34, 68]),
   midi.PitchWheelEvent(tick=1, channel=0, data=[17, 66]),
   midi.PitchWheelEvent(tick=1, channel=0, data=[0, 64]),
   midi.NoteOnEvent(tick=30, channel=0, data=[66, 0]),
   midi.NoteOnEvent(tick=0, channel=0, data=[64, 127]),
   midi.NoteOnEvent(tick=30, channel=0, data=[64, 0]),
   midi.NoteOnEvent(tick=0, channel=0, data=[66, 127]),
   midi.NoteOnEvent(tick=30, channel=0, data=[66, 0]),
   midi.NoteOnEvent(tick=0, channel=0, data=[66, 127]),
   midi.NoteOnEvent(tick=15, channel=0, data=[66, 0]),
   midi.NoteOnEvent(tick=0, channel=0, data=[64, 127]),
   midi.NoteOnEvent(tick=15, channel=0, data=[64, 0]),
   midi.NoteOnEvent(tick=0, channel=0, data=[62, 127]),
   midi.NoteOnEvent(tick=30, channel=0, data=[62, 0]),
   midi.NoteOnEvent(tick=0, channel=0, data=[64, 127]),
   midi.NoteOnEvent(tick=30, channel=0, data=[64, 0]),
   midi.NoteOnEvent(tick=0, channel=0, data=[62, 127]),
   midi.NoteOnEvent(tick=30, channel=0, data=[62, 0]),
   midi.NoteOnEvent(tick=0, channel=0, data=[64, 127]),
   midi.NoteOnEvent(tick=30, channel=0, data=[64, 0]),
   midi.NoteOnEvent(tick=0, channel=0, data=[62, 127]),
   midi.NoteOnEvent(tick=10, channel=0, data=[64, 127]),
   midi.NoteOnEvent(tick=10, channel=0, data=[64, 0]),
   midi.NoteOnEvent(tick=0, channel=0, data=[62, 127]),
   midi.NoteOnEvent(tick=10, channel=0, data=[62, 0]),
   midi.NoteOnEvent(tick=0, channel=0, data=[62, 0]),
   midi.NoteOnEvent(tick=0, channel=0, data=[60, 127]),
   midi.NoteOnEvent(tick=30, channel=0, data=[60, 0]),
   midi.NoteOnEvent(tick=0, channel=0, data=[62, 127]),
   midi.NoteOnEvent(tick=30, channel=0, data=[62, 0]),
   midi.NoteOnEvent(tick=0, channel=0, data=[60, 127]),
   midi.NoteOnEvent(tick=30, channel=0, data=[60, 0]),
   midi.NoteOnEvent(tick=0, channel=0, data=[59, 127]),
   midi.NoteOnEvent(tick=30, channel=0, data=[59, 0]),
   midi.NoteOnEvent(tick=0, channel=0, data=[60, 127]),
   midi.NoteOnEvent(tick=30, channel=0, data=[60, 0]),
   midi.NoteOnEvent(tick=0, channel=0, data=[59, 127]),
   midi.NoteOnEvent(tick=30, channel=0, data=[59, 0]),
   midi.NoteOnEvent(tick=0, channel=0, data=[57, 127]),
   midi.NoteOnEvent(tick=30, channel=0, data=[57, 0]),
   midi.NoteOnEvent(tick=0, channel=0, data=[59, 127]),
   midi.NoteOnEvent(tick=30, channel=0, data=[59, 0]),
   midi.NoteOnEvent(tick=0, channel=0, data=[60, 127]),
   midi.NoteOnEvent(tick=30, channel=0, data=[60, 0]),
   midi.NoteOnEvent(tick=0, channel=0, data=[59, 127]),
   midi.NoteOnEvent(tick=30, channel=0, data=[59, 0]),
   midi.NoteOnEvent(tick=0, channel=0, data=[55, 127]),
   midi.NoteOnEvent(tick=30, channel=0, data=[55, 0]),
   midi.NoteOnEvent(tick=0, channel=0, data=[55, 127]),
   midi.NoteOnEvent(tick=30, channel=0, data=[55, 0]),
   midi.NoteOnEvent(tick=60, channel=0, data=[45, 127]),
   midi.NoteOnEvent(tick=0, channel=0, data=[52, 127]),
   midi.NoteOnEvent(tick=0, channel=0, data=[57, 127]),
   midi.NoteOnEvent(tick=180, channel=0, data=[45, 0]),
   midi.NoteOnEvent(tick=0, channel=0, data=[52, 0]),
   midi.NoteOnEvent(tick=0, channel=0, data=[57, 0]),
   midi.NoteOnEvent(tick=0, channel=0, data=[40, 127]),
   midi.NoteOnEvent(tick=0, channel=0, data=[47, 127]),
   midi.NoteOnEvent(tick=0, channel=0, data=[52, 127]),
   midi.NoteOnEvent(tick=180, channel=0, data=[40, 0]),
   midi.NoteOnEvent(tick=0, channel=0, data=[47, 0]),
   midi.NoteOnEvent(tick=0, channel=0, data=[52, 0]),
   midi.NoteOnEvent(tick=0, channel=0, data=[60, 127]),
   midi.NoteOnEvent(tick=0, channel=0, data=[55, 127]),
   midi.NoteOnEvent(tick=0, channel=0, data=[48, 127]),
   midi.NoteOnEvent(tick=480, channel=0, data=[60, 0]),
   midi.NoteOnEvent(tick=0, channel=0, data=[55, 0]),
   midi.NoteOnEvent(tick=0, channel=0, data=[48, 0]),
   midi.NoteOnEvent(tick=0, channel=0, data=[40, 127]),
   midi.NoteOnEvent(tick=60, channel=0, data=[40, 0]),
   midi.NoteOnEvent(tick=0, channel=0, data=[40, 127]),
   midi.NoteOnEvent(tick=60, channel=0, data=[40, 0]),
   midi.NoteOnEvent(tick=0, channel=0, data=[48, 127]),
   midi.NoteOnEvent(tick=0, channel=0, data=[55, 127]),
   midi.NoteOnEvent(tick=0, channel=0, data=[60, 127]),
   midi.NoteOnEvent(tick=180, channel=0, data=[48, 0]),
   midi.NoteOnEvent(tick=0, channel=0, data=[55, 0]),
   midi.NoteOnEvent(tick=0, channel=0, data=[60, 0]),
   midi.NoteOnEvent(tick=0, channel=0, data=[40, 127]),
   midi.NoteOnEvent(tick=0, channel=0, data=[47, 127]),
   midi.NoteOnEvent(tick=0, channel=0, data=[52, 127]),
   midi.NoteOnEvent(tick=180, channel=0, data=[40, 0]),
   midi.NoteOnEvent(tick=0, channel=0, data=[47, 0]),
   midi.NoteOnEvent(tick=0, channel=0, data=[52, 0]),
   midi.NoteOnEvent(tick=0, channel=0, data=[57, 127]),
   midi.NoteOnEvent(tick=0, channel=0, data=[52, 127]),
   midi.NoteOnEvent(tick=0, channel=0, data=[45, 127]),
   midi.NoteOnEvent(tick=480, channel=0, data=[57, 0]),
   midi.NoteOnEvent(tick=0, channel=0, data=[52, 0]),
   midi.NoteOnEvent(tick=0, channel=0, data=[45, 0]),
   midi.PitchWheelEvent(tick=0, channel=0, data=[0, 64]),
   midi.NoteOnEvent(tick=0, channel=0, data=[69, 127]),
   midi.PitchWheelEvent(tick=1, channel=0, data=[51, 70]),
   midi.PitchWheelEvent(tick=1, channel=0, data=[102, 76]),
   midi.PitchWheelEvent(tick=1, channel=0, data=[25, 83]),
   midi.PitchWheelEvent(tick=1, channel=0, data=[76, 89]),
   midi.PitchWheelEvent(tick=1, channel=0, data=[0, 96]),
   midi.PitchWheelEvent(tick=1, channel=0, data=[51, 102]),
   midi.PitchWheelEvent(tick=1, channel=0, data=[102, 108]),
   midi.PitchWheelEvent(tick=1, channel=0, data=[25, 115]),
   midi.PitchWheelEvent(tick=1, channel=0, data=[76, 121]),
   midi.PitchWheelEvent(tick=1, channel=0, data=[127, 127]),
   midi.NoteOnEvent(tick=110, channel=0, data=[69, 0]),
   midi.PitchWheelEvent(tick=0, channel=0, data=[0, 64]),
   midi.NoteOnEvent(tick=0, channel=0, data=[69, 127]),
   midi.PitchWheelEvent(tick=1, channel=0, data=[51, 70]),
   midi.PitchWheelEvent(tick=1, channel=0, data=[102, 76]),
   midi.PitchWheelEvent(tick=1, channel=0, data=[25, 83]),
   midi.PitchWheelEvent(tick=1, channel=0, data=[76, 89]),
   midi.PitchWheelEvent(tick=1, channel=0, data=[0, 96]),
   midi.PitchWheelEvent(tick=1, channel=0, data=[51, 102]),
   midi.PitchWheelEvent(tick=1, channel=0, data=[102, 108]),
   midi.PitchWheelEvent(tick=1, channel=0, data=[25, 115]),
   midi.PitchWheelEvent(tick=1, channel=0, data=[76, 121]),
   midi.PitchWheelEvent(tick=1, channel=0, data=[127, 127]),
   midi.NoteOnEvent(tick=110, channel=0, data=[69, 0]),
   midi.PitchWheelEvent(tick=0, channel=0, data=[0, 64]),
   midi.NoteOnEvent(tick=0, channel=0, data=[69, 127]),
   midi.PitchWheelEvent(tick=1, channel=0, data=[51, 70]),
   midi.PitchWheelEvent(tick=1, channel=0, data=[102, 76]),
   midi.PitchWheelEvent(tick=1, channel=0, data=[25, 83]),
   midi.PitchWheelEvent(tick=1, channel=0, data=[76, 89]),
   midi.PitchWheelEvent(tick=1, channel=0, data=[0, 96]),
   midi.PitchWheelEvent(tick=1, channel=0, data=[51, 102]),
   midi.PitchWheelEvent(tick=1, channel=0, data=[102, 108]),
   midi.PitchWheelEvent(tick=1, channel=0, data=[25, 115]),
   midi.PitchWheelEvent(tick=1, channel=0, data=[76, 121]),
   midi.PitchWheelEvent(tick=1, channel=0, data=[127, 127]),
   midi.NoteOnEvent(tick=110, channel=0, data=[69, 0]),
   midi.PitchWheelEvent(tick=0, channel=0, data=[0, 64]),
   midi.NoteOnEvent(tick=0, channel=0, data=[69, 127]),
   midi.PitchWheelEvent(tick=1, channel=0, data=[51, 70]),
   midi.PitchWheelEvent(tick=1, channel=0, data=[102, 76]),
   midi.PitchWheelEvent(tick=1, channel=0, data=[25, 83]),
   midi.PitchWheelEvent(tick=1, channel=0, data=[76, 89]),
   midi.PitchWheelEvent(tick=1, channel=0, data=[0, 96]),
   midi.PitchWheelEvent(tick=1, channel=0, data=[51, 102]),
   midi.PitchWheelEvent(tick=1, channel=0, data=[102, 108]),
   midi.PitchWheelEvent(tick=1, channel=0, data=[25, 115]),
   midi.PitchWheelEvent(tick=1, channel=0, data=[76, 121]),
   midi.PitchWheelEvent(tick=1, channel=0, data=[127, 127]),
   midi.NoteOnEvent(tick=50, channel=0, data=[69, 0]),
   midi.PitchWheelEvent(tick=0, channel=0, data=[0, 64]),
   midi.NoteOnEvent(tick=0, channel=0, data=[69, 127]),
   midi.PitchWheelEvent(tick=1, channel=0, data=[51, 70]),
   midi.PitchWheelEvent(tick=1, channel=0, data=[102, 76]),
   midi.PitchWheelEvent(tick=1, channel=0, data=[25, 83]),
   midi.PitchWheelEvent(tick=1, channel=0, data=[76, 89]),
   midi.PitchWheelEvent(tick=1, channel=0, data=[0, 96]),
   midi.PitchWheelEvent(tick=1, channel=0, data=[51, 102]),
   midi.PitchWheelEvent(tick=1, channel=0, data=[102, 108]),
   midi.PitchWheelEvent(tick=1, channel=0, data=[25, 115]),
   midi.PitchWheelEvent(tick=1, channel=0, data=[76, 121]),
   midi.PitchWheelEvent(tick=1, channel=0, data=[127, 127]),
   midi.NoteOnEvent(tick=110, channel=0, data=[69, 0]),
   midi.PitchWheelEvent(tick=0, channel=0, data=[0, 64]),
   midi.NoteOnEvent(tick=0, channel=0, data=[69, 127]),
   midi.PitchWheelEvent(tick=1, channel=0, data=[51, 70]),
   midi.PitchWheelEvent(tick=1, channel=0, data=[102, 76]),
   midi.PitchWheelEvent(tick=1, channel=0, data=[25, 83]),
   midi.PitchWheelEvent(tick=1, channel=0, data=[76, 89]),
   midi.PitchWheelEvent(tick=1, channel=0, data=[0, 96]),
   midi.PitchWheelEvent(tick=1, channel=0, data=[51, 102]),
   midi.PitchWheelEvent(tick=1, channel=0, data=[102, 108]),
   midi.PitchWheelEvent(tick=1, channel=0, data=[25, 115]),
   midi.PitchWheelEvent(tick=1, channel=0, data=[76, 121]),
   midi.PitchWheelEvent(tick=1, channel=0, data=[127, 127]),
   midi.NoteOnEvent(tick=50, channel=0, data=[69, 0]),
   midi.PitchWheelEvent(tick=0, channel=0, data=[0, 64]),
   midi.NoteOnEvent(tick=0, channel=0, data=[69, 127]),
   midi.PitchWheelEvent(tick=1, channel=0, data=[51, 70]),
   midi.PitchWheelEvent(tick=1, channel=0, data=[102, 76]),
   midi.PitchWheelEvent(tick=1, channel=0, data=[25, 83]),
   midi.PitchWheelEvent(tick=1, channel=0, data=[76, 89]),
   midi.PitchWheelEvent(tick=1, channel=0, data=[0, 96]),
   midi.PitchWheelEvent(tick=1, channel=0, data=[51, 102]),
   midi.PitchWheelEvent(tick=1, channel=0, data=[102, 108]),
   midi.PitchWheelEvent(tick=1, channel=0, data=[25, 115]),
   midi.PitchWheelEvent(tick=1, channel=0, data=[76, 121]),
   midi.PitchWheelEvent(tick=1, channel=0, data=[127, 127]),
   midi.NoteOnEvent(tick=50, channel=0, data=[69, 0]),
   midi.PitchWheelEvent(tick=0, channel=0, data=[0, 64]),
   midi.NoteOnEvent(tick=0, channel=0, data=[69, 127]),
   midi.PitchWheelEvent(tick=1, channel=0, data=[51, 70]),
   midi.PitchWheelEvent(tick=1, channel=0, data=[102, 76]),
   midi.PitchWheelEvent(tick=1, channel=0, data=[25, 83]),
   midi.PitchWheelEvent(tick=1, channel=0, data=[76, 89]),
   midi.PitchWheelEvent(tick=1, channel=0, data=[0, 96]),
   midi.PitchWheelEvent(tick=1, channel=0, data=[51, 102]),
   midi.PitchWheelEvent(tick=1, channel=0, data=[102, 108]),
   midi.PitchWheelEvent(tick=1, channel=0, data=[25, 115]),
   midi.PitchWheelEvent(tick=1, channel=0, data=[76, 121]),
   midi.PitchWheelEvent(tick=1, channel=0, data=[127, 127]),
   midi.NoteOnEvent(tick=50, channel=0, data=[69, 0]),
   midi.PitchWheelEvent(tick=0, channel=0, data=[0, 64]),
   midi.NoteOnEvent(tick=0, channel=0, data=[69, 127]),
   midi.PitchWheelEvent(tick=1, channel=0, data=[51, 70]),
   midi.PitchWheelEvent(tick=1, channel=0, data=[102, 76]),
   midi.PitchWheelEvent(tick=1, channel=0, data=[25, 83]),
   midi.PitchWheelEvent(tick=1, channel=0, data=[76, 89]),
   midi.PitchWheelEvent(tick=1, channel=0, data=[0, 96]),
   midi.PitchWheelEvent(tick=1, channel=0, data=[51, 102]),
   midi.PitchWheelEvent(tick=1, channel=0, data=[102, 108]),
   midi.PitchWheelEvent(tick=1, channel=0, data=[25, 115]),
   midi.PitchWheelEvent(tick=1, channel=0, data=[76, 121]),
   midi.PitchWheelEvent(tick=1, channel=0, data=[127, 127]),
   midi.NoteOnEvent(tick=50, channel=0, data=[69, 0]),
   midi.ControlChangeEvent(tick=0, channel=0, data=[1, 0]),
   midi.PitchWheelEvent(tick=0, channel=0, data=[0, 64]),
   midi.NoteOnEvent(tick=0, channel=0, data=[69, 127]),
   midi.ControlChangeEvent(tick=1, channel=0, data=[1, 6]),
   midi.PitchWheelEvent(tick=0, channel=0, data=[51, 70]),
   midi.ControlChangeEvent(tick=1, channel=0, data=[1, 13]),
   midi.PitchWheelEvent(tick=0, channel=0, data=[102, 76]),
   midi.ControlChangeEvent(tick=1, channel=0, data=[1, 19]),
   midi.PitchWheelEvent(tick=0, channel=0, data=[25, 83]),
   midi.ControlChangeEvent(tick=1, channel=0, data=[1, 26]),
   midi.PitchWheelEvent(tick=0, channel=0, data=[76, 89]),
   midi.ControlChangeEvent(tick=1, channel=0, data=[1, 32]),
   midi.PitchWheelEvent(tick=0, channel=0, data=[0, 96]),
   midi.ControlChangeEvent(tick=1, channel=0, data=[1, 38]),
   midi.PitchWheelEvent(tick=0, channel=0, data=[51, 102]),
   midi.ControlChangeEvent(tick=1, channel=0, data=[1, 45]),
   midi.PitchWheelEvent(tick=0, channel=0, data=[102, 108]),
   midi.ControlChangeEvent(tick=1, channel=0, data=[1, 51]),
   midi.PitchWheelEvent(tick=0, channel=0, data=[25, 115]),
   midi.ControlChangeEvent(tick=1, channel=0, data=[1, 58]),
   midi.PitchWheelEvent(tick=0, channel=0, data=[76, 121]),
   midi.ControlChangeEvent(tick=1, channel=0, data=[1, 64]),
   midi.PitchWheelEvent(tick=0, channel=0, data=[127, 127]),
   midi.NoteOnEvent(tick=110, channel=0, data=[69, 0]),
   midi.PitchWheelEvent(tick=0, channel=0, data=[0, 64]),
   midi.ControlChangeEvent(tick=0, channel=0, data=[1, 0]),
   midi.NoteOnEvent(tick=0, channel=0, data=[69, 127]),
   midi.NoteOnEvent(tick=30, channel=0, data=[69, 0]),
   midi.NoteOnEvent(tick=0, channel=0, data=[62, 127]),
   midi.NoteOnEvent(tick=30, channel=0, data=[62, 0]),
   midi.PitchWheelEvent(tick=0, channel=0, data=[0, 64]),
   midi.NoteOnEvent(tick=0, channel=0, data=[64, 127]),
   midi.PitchWheelEvent(tick=1, channel=0, data=[51, 70]),
   midi.PitchWheelEvent(tick=1, channel=0, data=[102, 76]),
   midi.PitchWheelEvent(tick=1, channel=0, data=[25, 83]),
   midi.PitchWheelEvent(tick=1, channel=0, data=[76, 89]),
   midi.PitchWheelEvent(tick=1, channel=0, data=[0, 96]),
   midi.PitchWheelEvent(tick=1, channel=0, data=[51, 102]),
   midi.PitchWheelEvent(tick=1, channel=0, data=[102, 108]),
   midi.PitchWheelEvent(tick=1, channel=0, data=[25, 115]),
   midi.PitchWheelEvent(tick=1, channel=0, data=[76, 121]),
   midi.PitchWheelEvent(tick=1, channel=0, data=[127, 127]),
   midi.NoteOnEvent(tick=20, channel=0, data=[64, 0]),
   midi.PitchWheelEvent(tick=0, channel=0, data=[0, 64]),
   midi.NoteOnEvent(tick=0, channel=0, data=[66, 127]),
   midi.NoteOnEvent(tick=30, channel=0, data=[66, 0]),
   midi.NoteOnEvent(tick=0, channel=0, data=[69, 127]),
   midi.NoteOnEvent(tick=30, channel=0, data=[69, 0]),
   midi.NoteOnEvent(tick=0, channel=0, data=[66, 127]),
   midi.NoteOnEvent(tick=30, channel=0, data=[66, 0]),
   midi.PitchWheelEvent(tick=0, channel=0, data=[0, 64]),
   midi.NoteOnEvent(tick=0, channel=0, data=[69, 127]),
   midi.PitchWheelEvent(tick=1, channel=0, data=[51, 70]),
   midi.PitchWheelEvent(tick=1, channel=0, data=[102, 76]),
   midi.PitchWheelEvent(tick=1, channel=0, data=[25, 83]),
   midi.PitchWheelEvent(tick=1, channel=0, data=[76, 89]),
   midi.PitchWheelEvent(tick=1, channel=0, data=[0, 96]),
   midi.PitchWheelEvent(tick=1, channel=0, data=[51, 102]),
   midi.PitchWheelEvent(tick=1, channel=0, data=[102, 108]),
   midi.PitchWheelEvent(tick=1, channel=0, data=[25, 115]),
   midi.PitchWheelEvent(tick=1, channel=0, data=[76, 121]),
   midi.PitchWheelEvent(tick=1, channel=0, data=[127, 127]),
   midi.NoteOnEvent(tick=20, channel=0, data=[69, 0]),
   midi.NoteOnEvent(tick=0, channel=0, data=[69, 127]),
   midi.NoteOnEvent(tick=30, channel=0, data=[69, 0]),
   midi.PitchWheelEvent(tick=0, channel=0, data=[0, 64]),
   midi.NoteOnEvent(tick=0, channel=0, data=[69, 127]),
   midi.NoteOnEvent(tick=30, channel=0, data=[69, 0]),
   midi.NoteOnEvent(tick=0, channel=0, data=[66, 127]),
   midi.NoteOnEvent(tick=30, channel=0, data=[66, 0]),
   midi.PitchWheelEvent(tick=0, channel=0, data=[0, 64]),
   midi.NoteOnEvent(tick=0, channel=0, data=[64, 127]),
   midi.PitchWheelEvent(tick=1, channel=0, data=[51, 70]),
   midi.PitchWheelEvent(tick=1, channel=0, data=[102, 76]),
   midi.PitchWheelEvent(tick=1, channel=0, data=[25, 83]),
   midi.PitchWheelEvent(tick=1, channel=0, data=[76, 89]),
   midi.PitchWheelEvent(tick=1, channel=0, data=[0, 96]),
   midi.PitchWheelEvent(tick=1, channel=0, data=[51, 102]),
   midi.PitchWheelEvent(tick=1, channel=0, data=[102, 108]),
   midi.PitchWheelEvent(tick=1, channel=0, data=[25, 115]),
   midi.PitchWheelEvent(tick=1, channel=0, data=[76, 121]),
   midi.PitchWheelEvent(tick=1, channel=0, data=[127, 127]),
   midi.NoteOnEvent(tick=20, channel=0, data=[64, 0]),
   midi.PitchWheelEvent(tick=0, channel=0, data=[0, 64]),
   midi.NoteOnEvent(tick=0, channel=0, data=[66, 127]),
   midi.NoteOnEvent(tick=30, channel=0, data=[66, 0]),
   midi.NoteOnEvent(tick=0, channel=0, data=[69, 127]),
   midi.NoteOnEvent(tick=30, channel=0, data=[69, 0]),
   midi.NoteOnEvent(tick=0, channel=0, data=[66, 127]),
   midi.NoteOnEvent(tick=30, channel=0, data=[66, 0]),
   midi.PitchWheelEvent(tick=0, channel=0, data=[0, 64]),
   midi.NoteOnEvent(tick=0, channel=0, data=[69, 127]),
   midi.PitchWheelEvent(tick=1, channel=0, data=[51, 70]),
   midi.PitchWheelEvent(tick=1, channel=0, data=[102, 76]),
   midi.PitchWheelEvent(tick=1, channel=0, data=[25, 83]),
   midi.PitchWheelEvent(tick=1, channel=0, data=[76, 89]),
   midi.PitchWheelEvent(tick=1, channel=0, data=[0, 96]),
   midi.PitchWheelEvent(tick=1, channel=0, data=[51, 102]),
   midi.PitchWheelEvent(tick=1, channel=0, data=[102, 108]),
   midi.PitchWheelEvent(tick=1, channel=0, data=[25, 115]),
   midi.PitchWheelEvent(tick=1, channel=0, data=[76, 121]),
   midi.PitchWheelEvent(tick=1, channel=0, data=[127, 127]),
   midi.NoteOnEvent(tick=50, channel=0, data=[69, 0]),
   midi.PitchWheelEvent(tick=0, channel=0, data=[0, 64]),
   midi.NoteOnEvent(tick=0, channel=0, data=[69, 127]),
   midi.NoteOnEvent(tick=30, channel=0, data=[69, 0]),
   midi.NoteOnEvent(tick=0, channel=0, data=[66, 127]),
   midi.NoteOnEvent(tick=30, channel=0, data=[66, 0]),
   midi.NoteOnEvent(tick=0, channel=0, data=[74, 127]),
   midi.NoteOnEvent(tick=30, channel=0, data=[74, 0]),
   midi.NoteOnEvent(tick=0, channel=0, data=[71, 127]),
   midi.NoteOnEvent(tick=30, channel=0, data=[71, 0]),
   midi.NoteOnEvent(tick=0, channel=0, data=[66, 127]),
   midi.NoteOnEvent(tick=30, channel=0, data=[66, 0]),
   midi.NoteOnEvent(tick=0, channel=0, data=[74, 127]),
   midi.NoteOnEvent(tick=30, channel=0, data=[74, 0]),
   midi.NoteOnEvent(tick=0, channel=0, data=[71, 127]),
   midi.NoteOnEvent(tick=30, channel=0, data=[71, 0]),
   midi.NoteOnEvent(tick=0, channel=0, data=[66, 127]),
   midi.NoteOnEvent(tick=30, channel=0, data=[66, 0]),
   midi.NoteOnEvent(tick=0, channel=0, data=[74, 127]),
   midi.NoteOnEvent(tick=20, channel=0, data=[74, 0]),
   midi.NoteOnEvent(tick=0, channel=0, data=[71, 127]),
   midi.NoteOnEvent(tick=20, channel=0, data=[71, 0]),
   midi.NoteOnEvent(tick=0, channel=0, data=[66, 127]),
   midi.NoteOnEvent(tick=20, channel=0, data=[66, 0]),
   midi.NoteOnEvent(tick=0, channel=0, data=[74, 127]),
   midi.NoteOnEvent(tick=30, channel=0, data=[74, 0]),
   midi.NoteOnEvent(tick=0, channel=0, data=[71, 127]),
   midi.NoteOnEvent(tick=30, channel=0, data=[71, 0]),
   midi.NoteOnEvent(tick=0, channel=0, data=[66, 127]),
   midi.NoteOnEvent(tick=30, channel=0, data=[66, 0]),
   midi.NoteOnEvent(tick=0, channel=0, data=[74, 127]),
   midi.NoteOnEvent(tick=30, channel=0, data=[74, 0]),
   midi.NoteOnEvent(tick=0, channel=0, data=[71, 127]),
   midi.NoteOnEvent(tick=30, channel=0, data=[71, 0]),
   midi.NoteOnEvent(tick=0, channel=0, data=[66, 127]),
   midi.NoteOnEvent(tick=30, channel=0, data=[66, 0]),
   midi.NoteOnEvent(tick=0, channel=0, data=[74, 127]),
   midi.NoteOnEvent(tick=30, channel=0, data=[74, 0]),
   midi.NoteOnEvent(tick=0, channel=0, data=[71, 127]),
   midi.NoteOnEvent(tick=30, channel=0, data=[71, 0]),
   midi.PitchWheelEvent(tick=0, channel=0, data=[0, 64]),
   midi.NoteOnEvent(tick=0, channel=0, data=[74, 127]),
   midi.PitchWheelEvent(tick=1, channel=0, data=[51, 70]),
   midi.PitchWheelEvent(tick=1, channel=0, data=[102, 76]),
   midi.PitchWheelEvent(tick=1, channel=0, data=[25, 83]),
   midi.PitchWheelEvent(tick=1, channel=0, data=[76, 89]),
   midi.PitchWheelEvent(tick=1, channel=0, data=[0, 96]),
   midi.PitchWheelEvent(tick=1, channel=0, data=[51, 102]),
   midi.PitchWheelEvent(tick=1, channel=0, data=[102, 108]),
   midi.PitchWheelEvent(tick=1, channel=0, data=[25, 115]),
   midi.PitchWheelEvent(tick=1, channel=0, data=[76, 121]),
   midi.PitchWheelEvent(tick=1, channel=0, data=[127, 127]),
   midi.NoteOnEvent(tick=110, channel=0, data=[74, 0]),
   midi.PitchWheelEvent(tick=0, channel=0, data=[0, 64]),
   midi.NoteOnEvent(tick=0, channel=0, data=[74, 127]),
   midi.PitchWheelEvent(tick=1, channel=0, data=[51, 70]),
   midi.PitchWheelEvent(tick=1, channel=0, data=[102, 76]),
   midi.PitchWheelEvent(tick=1, channel=0, data=[25, 83]),
   midi.PitchWheelEvent(tick=1, channel=0, data=[76, 89]),
   midi.PitchWheelEvent(tick=1, channel=0, data=[0, 96]),
   midi.PitchWheelEvent(tick=1, channel=0, data=[51, 102]),
   midi.PitchWheelEvent(tick=1, channel=0, data=[102, 108]),
   midi.PitchWheelEvent(tick=1, channel=0, data=[25, 115]),
   midi.PitchWheelEvent(tick=1, channel=0, data=[76, 121]),
   midi.PitchWheelEvent(tick=1, channel=0, data=[127, 127]),
   midi.NoteOnEvent(tick=50, channel=0, data=[74, 0]),
   midi.ControlChangeEvent(tick=0, channel=0, data=[1, 0]),
   midi.PitchWheelEvent(tick=0, channel=0, data=[0, 64]),
   midi.NoteOnEvent(tick=0, channel=0, data=[74, 127]),
   midi.ControlChangeEvent(tick=1, channel=0, data=[1, 6]),
   midi.ControlChangeEvent(tick=1, channel=0, data=[1, 13]),
   midi.ControlChangeEvent(tick=1, channel=0, data=[1, 19]),
   midi.ControlChangeEvent(tick=1, channel=0, data=[1, 26]),
   midi.ControlChangeEvent(tick=1, channel=0, data=[1, 32]),
   midi.ControlChangeEvent(tick=1, channel=0, data=[1, 38]),
   midi.ControlChangeEvent(tick=1, channel=0, data=[1, 45]),
   midi.ControlChangeEvent(tick=1, channel=0, data=[1, 51]),
   midi.ControlChangeEvent(tick=1, channel=0, data=[1, 58]),
   midi.ControlChangeEvent(tick=1, channel=0, data=[1, 64]),
   midi.NoteOnEvent(tick=110, channel=0, data=[74, 0]),
   midi.ControlChangeEvent(tick=0, channel=0, data=[1, 0]),
   midi.NoteOnEvent(tick=0, channel=0, data=[71, 127]),
   midi.NoteOnEvent(tick=0, channel=0, data=[66, 127]),
   midi.NoteOnEvent(tick=60, channel=0, data=[71, 0]),
   midi.NoteOnEvent(tick=0, channel=0, data=[66, 0]),
   midi.NoteOnEvent(tick=0, channel=0, data=[74, 127]),
   midi.NoteOnEvent(tick=60, channel=0, data=[74, 0]),
   midi.PitchWheelEvent(tick=0, channel=0, data=[0, 64]),
   midi.NoteOnEvent(tick=0, channel=0, data=[74, 127]),
   midi.PitchWheelEvent(tick=1, channel=0, data=[51, 70]),
   midi.PitchWheelEvent(tick=1, channel=0, data=[102, 76]),
   midi.PitchWheelEvent(tick=1, channel=0, data=[25, 83]),
   midi.PitchWheelEvent(tick=1, channel=0, data=[76, 89]),
   midi.PitchWheelEvent(tick=1, channel=0, data=[0, 96]),
   midi.PitchWheelEvent(tick=1, channel=0, data=[51, 102]),
   midi.PitchWheelEvent(tick=1, channel=0, data=[102, 108]),
   midi.PitchWheelEvent(tick=1, channel=0, data=[25, 115]),
   midi.PitchWheelEvent(tick=1, channel=0, data=[76, 121]),
   midi.PitchWheelEvent(tick=1, channel=0, data=[127, 127]),
   midi.NoteOnEvent(tick=170, channel=0, data=[74, 0]),
   midi.PitchWheelEvent(tick=0, channel=0, data=[0, 64]),
   midi.NoteOnEvent(tick=0, channel=0, data=[74, 127]),
   midi.PitchWheelEvent(tick=1, channel=0, data=[51, 70]),
   midi.PitchWheelEvent(tick=1, channel=0, data=[102, 76]),
   midi.PitchWheelEvent(tick=1, channel=0, data=[25, 83]),
   midi.PitchWheelEvent(tick=1, channel=0, data=[76, 89]),
   midi.PitchWheelEvent(tick=1, channel=0, data=[0, 96]),
   midi.PitchWheelEvent(tick=1, channel=0, data=[51, 102]),
   midi.PitchWheelEvent(tick=1, channel=0, data=[102, 108]),
   midi.PitchWheelEvent(tick=1, channel=0, data=[25, 115]),
   midi.PitchWheelEvent(tick=1, channel=0, data=[76, 121]),
   midi.PitchWheelEvent(tick=1, channel=0, data=[127, 127]),
   midi.NoteOnEvent(tick=50, channel=0, data=[74, 0]),
   midi.ControlChangeEvent(tick=0, channel=0, data=[1, 0]),
   midi.PitchWheelEvent(tick=0, channel=0, data=[0, 64]),
   midi.NoteOnEvent(tick=0, channel=0, data=[74, 127]),
   midi.ControlChangeEvent(tick=1, channel=0, data=[1, 6]),
   midi.ControlChangeEvent(tick=1, channel=0, data=[1, 13]),
   midi.ControlChangeEvent(tick=1, channel=0, data=[1, 19]),
   midi.ControlChangeEvent(tick=1, channel=0, data=[1, 26]),
   midi.ControlChangeEvent(tick=1, channel=0, data=[1, 32]),
   midi.ControlChangeEvent(tick=1, channel=0, data=[1, 38]),
   midi.ControlChangeEvent(tick=1, channel=0, data=[1, 45]),
   midi.ControlChangeEvent(tick=1, channel=0, data=[1, 51]),
   midi.ControlChangeEvent(tick=1, channel=0, data=[1, 58]),
   midi.ControlChangeEvent(tick=1, channel=0, data=[1, 64]),
   midi.NoteOnEvent(tick=230, channel=0, data=[74, 0]),
   midi.ControlChangeEvent(tick=0, channel=0, data=[1, 0]),
   midi.NoteOnEvent(tick=0, channel=0, data=[74, 127]),
   midi.NoteOnEvent(tick=30, channel=0, data=[74, 0]),
   midi.NoteOnEvent(tick=0, channel=0, data=[71, 127]),
   midi.NoteOnEvent(tick=30, channel=0, data=[71, 0]),
   midi.NoteOnEvent(tick=0, channel=0, data=[74, 127]),
   midi.NoteOnEvent(tick=30, channel=0, data=[74, 0]),
   midi.NoteOnEvent(tick=0, channel=0, data=[71, 127]),
   midi.NoteOnEvent(tick=30, channel=0, data=[71, 0]),
   midi.NoteOnEvent(tick=0, channel=0, data=[69, 127]),
   midi.NoteOnEvent(tick=30, channel=0, data=[69, 0]),
   midi.NoteOnEvent(tick=0, channel=0, data=[66, 127]),
   midi.NoteOnEvent(tick=30, channel=0, data=[66, 0]),
   midi.NoteOnEvent(tick=0, channel=0, data=[69, 127]),
   midi.NoteOnEvent(tick=30, channel=0, data=[69, 0]),
   midi.NoteOnEvent(tick=0, channel=0, data=[66, 127]),
   midi.NoteOnEvent(tick=30, channel=0, data=[66, 0]),
   midi.NoteOnEvent(tick=0, channel=0, data=[64, 127]),
   midi.NoteOnEvent(tick=30, channel=0, data=[64, 0]),
   midi.NoteOnEvent(tick=0, channel=0, data=[62, 127]),
   midi.NoteOnEvent(tick=30, channel=0, data=[62, 0]),
   midi.NoteOnEvent(tick=0, channel=0, data=[64, 127]),
   midi.NoteOnEvent(tick=30, channel=0, data=[64, 0]),
   midi.NoteOnEvent(tick=0, channel=0, data=[62, 127]),
   midi.NoteOnEvent(tick=30, channel=0, data=[62, 0]),
   midi.NoteOnEvent(tick=0, channel=0, data=[59, 127]),
   midi.NoteOnEvent(tick=30, channel=0, data=[59, 0]),
   midi.NoteOnEvent(tick=0, channel=0, data=[57, 127]),
   midi.NoteOnEvent(tick=30, channel=0, data=[57, 0]),
   midi.NoteOnEvent(tick=0, channel=0, data=[59, 127]),
   midi.NoteOnEvent(tick=30, channel=0, data=[59, 0]),
   midi.NoteOnEvent(tick=0, channel=0, data=[57, 127]),
   midi.NoteOnEvent(tick=30, channel=0, data=[57, 0]),
   midi.NoteOnEvent(tick=0, channel=0, data=[54, 127]),
   midi.NoteOnEvent(tick=30, channel=0, data=[54, 0]),
   midi.NoteOnEvent(tick=0, channel=0, data=[53, 127]),
   midi.NoteOnEvent(tick=30, channel=0, data=[53, 0]),
   midi.NoteOnEvent(tick=0, channel=0, data=[52, 127]),
   midi.NoteOnEvent(tick=30, channel=0, data=[52, 0]),
   midi.NoteOnEvent(tick=0, channel=0, data=[50, 127]),
   midi.NoteOnEvent(tick=30, channel=0, data=[50, 0]),
   midi.NoteOnEvent(tick=0, channel=0, data=[52, 127]),
   midi.NoteOnEvent(tick=30, channel=0, data=[52, 0]),
   midi.NoteOnEvent(tick=0, channel=0, data=[50, 127]),
   midi.NoteOnEvent(tick=30, channel=0, data=[50, 0]),
   midi.NoteOnEvent(tick=0, channel=0, data=[47, 127]),
   midi.NoteOnEvent(tick=60, channel=0, data=[47, 0]),
   midi.NoteOnEvent(tick=0, channel=0, data=[52, 127]),
   midi.NoteOnEvent(tick=30, channel=0, data=[52, 0]),
   midi.NoteOnEvent(tick=0, channel=0, data=[50, 127]),
   midi.NoteOnEvent(tick=30, channel=0, data=[50, 0]),
   midi.NoteOnEvent(tick=0, channel=0, data=[52, 127]),
   midi.NoteOnEvent(tick=30, channel=0, data=[52, 0]),
   midi.NoteOnEvent(tick=0, channel=0, data=[50, 127]),
   midi.NoteOnEvent(tick=30, channel=0, data=[50, 0]),
   midi.NoteOnEvent(tick=0, channel=0, data=[47, 127]),
   midi.NoteOnEvent(tick=30, channel=0, data=[47, 0]),
   midi.NoteOnEvent(tick=0, channel=0, data=[50, 127]),
   midi.NoteOnEvent(tick=90, channel=0, data=[50, 0]),
   midi.NoteOnEvent(tick=60, channel=0, data=[45, 127]),
   midi.NoteOnEvent(tick=30, channel=0, data=[45, 0]),
   midi.NoteOnEvent(tick=0, channel=0, data=[47, 127]),
   midi.NoteOnEvent(tick=30, channel=0, data=[47, 0]),
   midi.NoteOnEvent(tick=0, channel=0, data=[50, 127]),
   midi.NoteOnEvent(tick=30, channel=0, data=[50, 0]),
   midi.NoteOnEvent(tick=0, channel=0, data=[52, 127]),
   midi.NoteOnEvent(tick=30, channel=0, data=[52, 0]),
   midi.NoteOnEvent(tick=0, channel=0, data=[54, 127]),
   midi.NoteOnEvent(tick=60, channel=0, data=[54, 0]),
   midi.NoteOnEvent(tick=0, channel=0, data=[57, 127]),
   midi.NoteOnEvent(tick=30, channel=0, data=[57, 0]),
   midi.NoteOnEvent(tick=0, channel=0, data=[59, 127]),
   midi.NoteOnEvent(tick=30, channel=0, data=[59, 0]),
   midi.NoteOnEvent(tick=0, channel=0, data=[62, 127]),
   midi.NoteOnEvent(tick=60, channel=0, data=[62, 0]),
   midi.NoteOnEvent(tick=0, channel=0, data=[59, 127]),
   midi.NoteOnEvent(tick=120, channel=0, data=[59, 0]),
   midi.NoteOnEvent(tick=0, channel=0, data=[71, 127]),
   midi.NoteOnEvent(tick=30, channel=0, data=[71, 0]),
   midi.NoteOnEvent(tick=0, channel=0, data=[78, 127]),
   midi.NoteOnEvent(tick=30, channel=0, data=[78, 0]),
   midi.PitchWheelEvent(tick=0, channel=0, data=[0, 64]),
   midi.NoteOnEvent(tick=0, channel=0, data=[76, 127]),
   midi.PitchWheelEvent(tick=1, channel=0, data=[51, 70]),
   midi.PitchWheelEvent(tick=1, channel=0, data=[102, 76]),
   midi.PitchWheelEvent(tick=1, channel=0, data=[25, 83]),
   midi.PitchWheelEvent(tick=1, channel=0, data=[76, 89]),
   midi.PitchWheelEvent(tick=1, channel=0, data=[0, 96]),
   midi.PitchWheelEvent(tick=1, channel=0, data=[51, 102]),
   midi.PitchWheelEvent(tick=1, channel=0, data=[102, 108]),
   midi.PitchWheelEvent(tick=1, channel=0, data=[25, 115]),
   midi.PitchWheelEvent(tick=1, channel=0, data=[76, 121]),
   midi.PitchWheelEvent(tick=1, channel=0, data=[127, 127]),
   midi.NoteOnEvent(tick=20, channel=0, data=[76, 0]),
   midi.PitchWheelEvent(tick=0, channel=0, data=[0, 64]),
   midi.NoteOnEvent(tick=0, channel=0, data=[78, 127]),
   midi.NoteOnEvent(tick=30, channel=0, data=[78, 0]),
   midi.NoteOnEvent(tick=0, channel=0, data=[81, 127]),
   midi.NoteOnEvent(tick=30, channel=0, data=[81, 0]),
   midi.ControlChangeEvent(tick=0, channel=0, data=[1, 0]),
   midi.PitchWheelEvent(tick=0, channel=0, data=[0, 64]),
   midi.NoteOnEvent(tick=0, channel=0, data=[81, 127]),
   midi.ControlChangeEvent(tick=1, channel=0, data=[1, 6]),
   midi.PitchWheelEvent(tick=0, channel=0, data=[51, 70]),
   midi.ControlChangeEvent(tick=1, channel=0, data=[1, 13]),
   midi.PitchWheelEvent(tick=0, channel=0, data=[102, 76]),
   midi.ControlChangeEvent(tick=1, channel=0, data=[1, 19]),
   midi.PitchWheelEvent(tick=0, channel=0, data=[25, 83]),
   midi.ControlChangeEvent(tick=1, channel=0, data=[1, 26]),
   midi.PitchWheelEvent(tick=0, channel=0, data=[76, 89]),
   midi.ControlChangeEvent(tick=1, channel=0, data=[1, 32]),
   midi.PitchWheelEvent(tick=0, channel=0, data=[0, 96]),
   midi.ControlChangeEvent(tick=1, channel=0, data=[1, 38]),
   midi.PitchWheelEvent(tick=0, channel=0, data=[51, 102]),
   midi.ControlChangeEvent(tick=1, channel=0, data=[1, 45]),
   midi.PitchWheelEvent(tick=0, channel=0, data=[102, 108]),
   midi.ControlChangeEvent(tick=1, channel=0, data=[1, 51]),
   midi.PitchWheelEvent(tick=0, channel=0, data=[25, 115]),
   midi.ControlChangeEvent(tick=1, channel=0, data=[1, 58]),
   midi.PitchWheelEvent(tick=0, channel=0, data=[76, 121]),
   midi.ControlChangeEvent(tick=1, channel=0, data=[1, 64]),
   midi.PitchWheelEvent(tick=0, channel=0, data=[127, 127]),
   midi.NoteOnEvent(tick=80, channel=0, data=[81, 0]),
   midi.PitchWheelEvent(tick=0, channel=0, data=[0, 64]),
   midi.ControlChangeEvent(tick=0, channel=0, data=[1, 0]),
   midi.NoteOnEvent(tick=0, channel=0, data=[81, 127]),
   midi.NoteOnEvent(tick=30, channel=0, data=[81, 0]),
   midi.NoteOnEvent(tick=0, channel=0, data=[78, 127]),
   midi.NoteOnEvent(tick=30, channel=0, data=[78, 0]),
   midi.PitchWheelEvent(tick=0, channel=0, data=[0, 64]),
   midi.NoteOnEvent(tick=0, channel=0, data=[86, 127]),
   midi.PitchWheelEvent(tick=1, channel=0, data=[51, 70]),
   midi.PitchWheelEvent(tick=1, channel=0, data=[102, 76]),
   midi.PitchWheelEvent(tick=1, channel=0, data=[25, 83]),
   midi.PitchWheelEvent(tick=1, channel=0, data=[76, 89]),
   midi.PitchWheelEvent(tick=1, channel=0, data=[0, 96]),
   midi.PitchWheelEvent(tick=1, channel=0, data=[51, 102]),
   midi.PitchWheelEvent(tick=1, channel=0, data=[102, 108]),
   midi.PitchWheelEvent(tick=1, channel=0, data=[25, 115]),
   midi.PitchWheelEvent(tick=1, channel=0, data=[76, 121]),
   midi.PitchWheelEvent(tick=1, channel=0, data=[127, 127]),
   midi.NoteOnEvent(tick=50, channel=0, data=[86, 0]),
   midi.PitchWheelEvent(tick=0, channel=0, data=[0, 64]),
   midi.NoteOnEvent(tick=0, channel=0, data=[86, 127]),
   midi.NoteOnEvent(tick=30, channel=0, data=[86, 0]),
   midi.NoteOnEvent(tick=0, channel=0, data=[83, 127]),
   midi.NoteOnEvent(tick=30, channel=0, data=[83, 0]),
   midi.PitchWheelEvent(tick=0, channel=0, data=[0, 64]),
   midi.NoteOnEvent(tick=0, channel=0, data=[81, 127]),
   midi.PitchWheelEvent(tick=1, channel=0, data=[51, 70]),
   midi.PitchWheelEvent(tick=1, channel=0, data=[102, 76]),
   midi.PitchWheelEvent(tick=1, channel=0, data=[25, 83]),
   midi.PitchWheelEvent(tick=1, channel=0, data=[76, 89]),
   midi.PitchWheelEvent(tick=1, channel=0, data=[0, 96]),
   midi.PitchWheelEvent(tick=1, channel=0, data=[51, 102]),
   midi.PitchWheelEvent(tick=1, channel=0, data=[102, 108]),
   midi.PitchWheelEvent(tick=1, channel=0, data=[25, 115]),
   midi.PitchWheelEvent(tick=1, channel=0, data=[76, 121]),
   midi.PitchWheelEvent(tick=1, channel=0, data=[127, 127]),
   midi.PitchWheelEvent(tick=19, channel=0, data=[0, 64]),
   midi.NoteOnEvent(tick=1, channel=0, data=[81, 0]),
   midi.NoteOnEvent(tick=0, channel=0, data=[83, 127]),
   midi.NoteOnEvent(tick=30, channel=0, data=[83, 0]),
   midi.NoteOnEvent(tick=0, channel=0, data=[86, 127]),
   midi.NoteOnEvent(tick=30, channel=0, data=[86, 0]),
   midi.NoteOnEvent(tick=0, channel=0, data=[83, 127]),
   midi.NoteOnEvent(tick=30, channel=0, data=[83, 0]),
   midi.PitchWheelEvent(tick=0, channel=0, data=[0, 64]),
   midi.NoteOnEvent(tick=0, channel=0, data=[81, 127]),
   midi.PitchWheelEvent(tick=1, channel=0, data=[51, 70]),
   midi.PitchWheelEvent(tick=1, channel=0, data=[102, 76]),
   midi.PitchWheelEvent(tick=1, channel=0, data=[25, 83]),
   midi.PitchWheelEvent(tick=1, channel=0, data=[76, 89]),
   midi.PitchWheelEvent(tick=1, channel=0, data=[0, 96]),
   midi.PitchWheelEvent(tick=1, channel=0, data=[51, 102]),
   midi.PitchWheelEvent(tick=1, channel=0, data=[102, 108]),
   midi.PitchWheelEvent(tick=1, channel=0, data=[25, 115]),
   midi.PitchWheelEvent(tick=1, channel=0, data=[76, 121]),
   midi.PitchWheelEvent(tick=1, channel=0, data=[127, 127]),
   midi.PitchWheelEvent(tick=19, channel=0, data=[0, 64]),
   midi.NoteOnEvent(tick=1, channel=0, data=[81, 0]),
   midi.NoteOnEvent(tick=0, channel=0, data=[83, 127]),
   midi.NoteOnEvent(tick=30, channel=0, data=[83, 0]),
   midi.PitchWheelEvent(tick=0, channel=0, data=[0, 64]),
   midi.NoteOnEvent(tick=0, channel=0, data=[81, 127]),
   midi.PitchWheelEvent(tick=1, channel=0, data=[51, 70]),
   midi.PitchWheelEvent(tick=1, channel=0, data=[102, 76]),
   midi.PitchWheelEvent(tick=1, channel=0, data=[25, 83]),
   midi.PitchWheelEvent(tick=1, channel=0, data=[76, 89]),
   midi.PitchWheelEvent(tick=1, channel=0, data=[0, 96]),
   midi.PitchWheelEvent(tick=1, channel=0, data=[51, 102]),
   midi.PitchWheelEvent(tick=1, channel=0, data=[102, 108]),
   midi.PitchWheelEvent(tick=1, channel=0, data=[25, 115]),
   midi.PitchWheelEvent(tick=1, channel=0, data=[76, 121]),
   midi.PitchWheelEvent(tick=1, channel=0, data=[127, 127]),
   midi.PitchWheelEvent(tick=19, channel=0, data=[0, 64]),
   midi.NoteOnEvent(tick=1, channel=0, data=[81, 0]),
   midi.NoteOnEvent(tick=0, channel=0, data=[83, 127]),
   midi.NoteOnEvent(tick=30, channel=0, data=[83, 0]),
   midi.PitchWheelEvent(tick=0, channel=0, data=[0, 64]),
   midi.NoteOnEvent(tick=0, channel=0, data=[81, 127]),
   midi.PitchWheelEvent(tick=1, channel=0, data=[51, 70]),
   midi.PitchWheelEvent(tick=1, channel=0, data=[102, 76]),
   midi.PitchWheelEvent(tick=1, channel=0, data=[25, 83]),
   midi.PitchWheelEvent(tick=1, channel=0, data=[76, 89]),
   midi.PitchWheelEvent(tick=1, channel=0, data=[0, 96]),
   midi.PitchWheelEvent(tick=1, channel=0, data=[51, 102]),
   midi.PitchWheelEvent(tick=1, channel=0, data=[102, 108]),
   midi.PitchWheelEvent(tick=1, channel=0, data=[25, 115]),
   midi.PitchWheelEvent(tick=1, channel=0, data=[76, 121]),
   midi.PitchWheelEvent(tick=1, channel=0, data=[127, 127]),
   midi.PitchWheelEvent(tick=19, channel=0, data=[0, 64]),
   midi.NoteOnEvent(tick=1, channel=0, data=[81, 0]),
   midi.NoteOnEvent(tick=0, channel=0, data=[83, 127]),
   midi.NoteOnEvent(tick=30, channel=0, data=[83, 0]),
   midi.PitchWheelEvent(tick=0, channel=0, data=[0, 64]),
   midi.NoteOnEvent(tick=0, channel=0, data=[81, 127]),
   midi.PitchWheelEvent(tick=1, channel=0, data=[51, 70]),
   midi.PitchWheelEvent(tick=1, channel=0, data=[102, 76]),
   midi.PitchWheelEvent(tick=1, channel=0, data=[25, 83]),
   midi.PitchWheelEvent(tick=1, channel=0, data=[76, 89]),
   midi.PitchWheelEvent(tick=1, channel=0, data=[0, 96]),
   midi.PitchWheelEvent(tick=1, channel=0, data=[51, 102]),
   midi.PitchWheelEvent(tick=1, channel=0, data=[102, 108]),
   midi.PitchWheelEvent(tick=1, channel=0, data=[25, 115]),
   midi.PitchWheelEvent(tick=1, channel=0, data=[76, 121]),
   midi.PitchWheelEvent(tick=1, channel=0, data=[127, 127]),
   midi.PitchWheelEvent(tick=19, channel=0, data=[0, 64]),
   midi.NoteOnEvent(tick=1, channel=0, data=[81, 0]),
   midi.NoteOnEvent(tick=0, channel=0, data=[83, 127]),
   midi.NoteOnEvent(tick=30, channel=0, data=[83, 0]),
   midi.PitchWheelEvent(tick=0, channel=0, data=[0, 64]),
   midi.NoteOnEvent(tick=0, channel=0, data=[81, 127]),
   midi.PitchWheelEvent(tick=1, channel=0, data=[51, 70]),
   midi.PitchWheelEvent(tick=1, channel=0, data=[102, 76]),
   midi.PitchWheelEvent(tick=1, channel=0, data=[25, 83]),
   midi.PitchWheelEvent(tick=1, channel=0, data=[76, 89]),
   midi.PitchWheelEvent(tick=1, channel=0, data=[0, 96]),
   midi.PitchWheelEvent(tick=1, channel=0, data=[51, 102]),
   midi.PitchWheelEvent(tick=1, channel=0, data=[102, 108]),
   midi.PitchWheelEvent(tick=1, channel=0, data=[25, 115]),
   midi.PitchWheelEvent(tick=1, channel=0, data=[76, 121]),
   midi.PitchWheelEvent(tick=1, channel=0, data=[127, 127]),
   midi.PitchWheelEvent(tick=19, channel=0, data=[0, 64]),
   midi.NoteOnEvent(tick=1, channel=0, data=[81, 0]),
   midi.NoteOnEvent(tick=0, channel=0, data=[83, 127]),
   midi.NoteOnEvent(tick=30, channel=0, data=[83, 0]),
   midi.PitchWheelEvent(tick=0, channel=0, data=[0, 64]),
   midi.NoteOnEvent(tick=0, channel=0, data=[81, 127]),
   midi.PitchWheelEvent(tick=1, channel=0, data=[51, 70]),
   midi.PitchWheelEvent(tick=1, channel=0, data=[102, 76]),
   midi.PitchWheelEvent(tick=1, channel=0, data=[25, 83]),
   midi.PitchWheelEvent(tick=1, channel=0, data=[76, 89]),
   midi.PitchWheelEvent(tick=1, channel=0, data=[0, 96]),
   midi.PitchWheelEvent(tick=1, channel=0, data=[51, 102]),
   midi.PitchWheelEvent(tick=1, channel=0, data=[102, 108]),
   midi.PitchWheelEvent(tick=1, channel=0, data=[25, 115]),
   midi.PitchWheelEvent(tick=1, channel=0, data=[76, 121]),
   midi.PitchWheelEvent(tick=1, channel=0, data=[127, 127]),
   midi.PitchWheelEvent(tick=19, channel=0, data=[0, 64]),
   midi.NoteOnEvent(tick=1, channel=0, data=[81, 0]),
   midi.NoteOnEvent(tick=0, channel=0, data=[83, 127]),
   midi.NoteOnEvent(tick=30, channel=0, data=[83, 0]),
   midi.PitchWheelEvent(tick=0, channel=0, data=[0, 64]),
   midi.NoteOnEvent(tick=0, channel=0, data=[81, 127]),
   midi.PitchWheelEvent(tick=1, channel=0, data=[51, 70]),
   midi.PitchWheelEvent(tick=1, channel=0, data=[102, 76]),
   midi.PitchWheelEvent(tick=1, channel=0, data=[25, 83]),
   midi.PitchWheelEvent(tick=1, channel=0, data=[76, 89]),
   midi.PitchWheelEvent(tick=1, channel=0, data=[0, 96]),
   midi.PitchWheelEvent(tick=1, channel=0, data=[51, 102]),
   midi.PitchWheelEvent(tick=1, channel=0, data=[102, 108]),
   midi.PitchWheelEvent(tick=1, channel=0, data=[25, 115]),
   midi.PitchWheelEvent(tick=1, channel=0, data=[76, 121]),
   midi.PitchWheelEvent(tick=1, channel=0, data=[127, 127]),
   midi.PitchWheelEvent(tick=19, channel=0, data=[0, 64]),
   midi.NoteOnEvent(tick=1, channel=0, data=[81, 0]),
   midi.NoteOnEvent(tick=0, channel=0, data=[83, 127]),
   midi.NoteOnEvent(tick=30, channel=0, data=[83, 0]),
   midi.NoteOnEvent(tick=0, channel=0, data=[81, 127]),
   midi.NoteOnEvent(tick=30, channel=0, data=[81, 0]),
   midi.NoteOnEvent(tick=0, channel=0, data=[81, 127]),
   midi.NoteOnEvent(tick=30, channel=0, data=[81, 0]),
   midi.PitchWheelEvent(tick=0, channel=0, data=[0, 64]),
   midi.NoteOnEvent(tick=0, channel=0, data=[76, 127]),
   midi.PitchWheelEvent(tick=1, channel=0, data=[51, 70]),
   midi.PitchWheelEvent(tick=1, channel=0, data=[102, 76]),
   midi.PitchWheelEvent(tick=1, channel=0, data=[25, 83]),
   midi.PitchWheelEvent(tick=1, channel=0, data=[76, 89]),
   midi.PitchWheelEvent(tick=1, channel=0, data=[0, 96]),
   midi.PitchWheelEvent(tick=1, channel=0, data=[51, 102]),
   midi.PitchWheelEvent(tick=1, channel=0, data=[102, 108]),
   midi.PitchWheelEvent(tick=1, channel=0, data=[25, 115]),
   midi.PitchWheelEvent(tick=1, channel=0, data=[76, 121]),
   midi.PitchWheelEvent(tick=1, channel=0, data=[127, 127]),
   midi.NoteOnEvent(tick=20, channel=0, data=[76, 0]),
   midi.PitchWheelEvent(tick=0, channel=0, data=[0, 64]),
   midi.NoteOnEvent(tick=0, channel=0, data=[78, 127]),
   midi.NoteOnEvent(tick=30, channel=0, data=[78, 0]),
   midi.NoteOnEvent(tick=0, channel=0, data=[81, 127]),
   midi.NoteOnEvent(tick=30, channel=0, data=[81, 0]),
   midi.NoteOnEvent(tick=0, channel=0, data=[78, 127]),
   midi.NoteOnEvent(tick=15, channel=0, data=[78, 0]),
   midi.NoteOnEvent(tick=0, channel=0, data=[76, 127]),
   midi.NoteOnEvent(tick=15, channel=0, data=[76, 0]),
   midi.NoteOnEvent(tick=0, channel=0, data=[78, 127]),
   midi.NoteOnEvent(tick=24, channel=0, data=[78, 0]),
   midi.NoteOnEvent(tick=0, channel=0, data=[81, 127]),
   midi.NoteOnEvent(tick=24, channel=0, data=[81, 0]),
   midi.NoteOnEvent(tick=0, channel=0, data=[78, 127]),
   midi.NoteOnEvent(tick=24, channel=0, data=[78, 0]),
   midi.NoteOnEvent(tick=0, channel=0, data=[76, 127]),
   midi.NoteOnEvent(tick=24, channel=0, data=[76, 0]),
   midi.NoteOnEvent(tick=0, channel=0, data=[78, 127]),
   midi.NoteOnEvent(tick=24, channel=0, data=[78, 0]),
   midi.NoteOnEvent(tick=0, channel=0, data=[81, 127]),
   midi.NoteOnEvent(tick=24, channel=0, data=[81, 0]),
   midi.NoteOnEvent(tick=0, channel=0, data=[78, 127]),
   midi.NoteOnEvent(tick=24, channel=0, data=[78, 0]),
   midi.NoteOnEvent(tick=0, channel=0, data=[76, 127]),
   midi.NoteOnEvent(tick=24, channel=0, data=[76, 0]),
   midi.NoteOnEvent(tick=0, channel=0, data=[78, 127]),
   midi.NoteOnEvent(tick=24, channel=0, data=[78, 0]),
   midi.NoteOnEvent(tick=0, channel=0, data=[81, 127]),
   midi.NoteOnEvent(tick=24, channel=0, data=[81, 0]),
   midi.ControlChangeEvent(tick=0, channel=0, data=[1, 0]),
   midi.PitchWheelEvent(tick=0, channel=0, data=[0, 64]),
   midi.NoteOnEvent(tick=0, channel=0, data=[81, 127]),
   midi.ControlChangeEvent(tick=1, channel=0, data=[1, 6]),
   midi.PitchWheelEvent(tick=0, channel=0, data=[51, 70]),
   midi.ControlChangeEvent(tick=1, channel=0, data=[1, 13]),
   midi.PitchWheelEvent(tick=0, channel=0, data=[102, 76]),
   midi.ControlChangeEvent(tick=1, channel=0, data=[1, 19]),
   midi.PitchWheelEvent(tick=0, channel=0, data=[25, 83]),
   midi.ControlChangeEvent(tick=1, channel=0, data=[1, 26]),
   midi.PitchWheelEvent(tick=0, channel=0, data=[76, 89]),
   midi.ControlChangeEvent(tick=1, channel=0, data=[1, 32]),
   midi.PitchWheelEvent(tick=0, channel=0, data=[0, 96]),
   midi.ControlChangeEvent(tick=1, channel=0, data=[1, 38]),
   midi.PitchWheelEvent(tick=0, channel=0, data=[51, 102]),
   midi.ControlChangeEvent(tick=1, channel=0, data=[1, 45]),
   midi.PitchWheelEvent(tick=0, channel=0, data=[102, 108]),
   midi.ControlChangeEvent(tick=1, channel=0, data=[1, 51]),
   midi.PitchWheelEvent(tick=0, channel=0, data=[25, 115]),
   midi.ControlChangeEvent(tick=1, channel=0, data=[1, 58]),
   midi.PitchWheelEvent(tick=0, channel=0, data=[76, 121]),
   midi.ControlChangeEvent(tick=1, channel=0, data=[1, 64]),
   midi.PitchWheelEvent(tick=0, channel=0, data=[127, 127]),
   midi.NoteOnEvent(tick=110, channel=0, data=[81, 0]),
   midi.PitchWheelEvent(tick=0, channel=0, data=[0, 64]),
   midi.ControlChangeEvent(tick=0, channel=0, data=[1, 0]),
   midi.NoteOnEvent(tick=60, channel=0, data=[86, 127]),
   midi.NoteOnEvent(tick=60, channel=0, data=[86, 0]),
   midi.NoteOnEvent(tick=0, channel=0, data=[86, 127]),
   midi.NoteOnEvent(tick=60, channel=0, data=[86, 0]),
   midi.NoteOnEvent(tick=60, channel=0, data=[86, 127]),
   midi.NoteOnEvent(tick=60, channel=0, data=[86, 0]),
   midi.NoteOnEvent(tick=0, channel=0, data=[86, 127]),
   midi.NoteOnEvent(tick=60, channel=0, data=[86, 0]),
   midi.NoteOnEvent(tick=60, channel=0, data=[86, 127]),
   midi.NoteOnEvent(tick=60, channel=0, data=[86, 0]),
   midi.NoteOnEvent(tick=60, channel=0, data=[86, 127]),
   midi.NoteOnEvent(tick=60, channel=0, data=[86, 0]),
   midi.NoteOnEvent(tick=0, channel=0, data=[86, 127]),
   midi.NoteOnEvent(tick=60, channel=0, data=[86, 0]),
   midi.NoteOnEvent(tick=60, channel=0, data=[86, 127]),
   midi.NoteOnEvent(tick=60, channel=0, data=[86, 0]),
   midi.NoteOnEvent(tick=0, channel=0, data=[86, 127]),
   midi.NoteOnEvent(tick=60, channel=0, data=[86, 0]),
   midi.NoteOnEvent(tick=60, channel=0, data=[62, 127]),
   midi.NoteOnEvent(tick=30, channel=0, data=[62, 0]),
   midi.NoteOnEvent(tick=0, channel=0, data=[61, 127]),
   midi.NoteOnEvent(tick=30, channel=0, data=[61, 0]),
   midi.NoteOnEvent(tick=960, channel=0, data=[40, 127]),
   midi.NoteOnEvent(tick=60, channel=0, data=[40, 0]),
   midi.NoteOnEvent(tick=0, channel=0, data=[40, 127]),
   midi.NoteOnEvent(tick=30, channel=0, data=[40, 0]),
   midi.NoteOnEvent(tick=0, channel=0, data=[40, 127]),
   midi.NoteOnEvent(tick=30, channel=0, data=[40, 0]),
   midi.NoteOnEvent(tick=0, channel=0, data=[57, 127]),
   midi.NoteOnEvent(tick=0, channel=0, data=[52, 127]),
   midi.NoteOnEvent(tick=0, channel=0, data=[45, 127]),
   midi.NoteOnEvent(tick=60, channel=0, data=[57, 0]),
   midi.NoteOnEvent(tick=0, channel=0, data=[52, 0]),
   midi.NoteOnEvent(tick=0, channel=0, data=[45, 0]),
   midi.NoteOnEvent(tick=0, channel=0, data=[40, 127]),
   midi.NoteOnEvent(tick=30, channel=0, data=[40, 0]),
   midi.NoteOnEvent(tick=0, channel=0, data=[40, 127]),
   midi.NoteOnEvent(tick=30, channel=0, data=[40, 0]),
   midi.NoteOnEvent(tick=0, channel=0, data=[40, 127]),
   midi.NoteOnEvent(tick=30, channel=0, data=[40, 0]),
   midi.NoteOnEvent(tick=0, channel=0, data=[40, 127]),
   midi.NoteOnEvent(tick=30, channel=0, data=[40, 0]),
   midi.NoteOnEvent(tick=0, channel=0, data=[59, 127]),
   midi.NoteOnEvent(tick=0, channel=0, data=[52, 127]),
   midi.NoteOnEvent(tick=0, channel=0, data=[47, 127]),
   midi.NoteOnEvent(tick=60, channel=0, data=[59, 0]),
   midi.NoteOnEvent(tick=0, channel=0, data=[52, 0]),
   midi.NoteOnEvent(tick=0, channel=0, data=[47, 0]),
   midi.NoteOnEvent(tick=0, channel=0, data=[40, 127]),
   midi.NoteOnEvent(tick=30, channel=0, data=[40, 0]),
   midi.NoteOnEvent(tick=0, channel=0, data=[40, 127]),
   midi.NoteOnEvent(tick=30, channel=0, data=[40, 0]),
   midi.NoteOnEvent(tick=0, channel=0, data=[40, 127]),
   midi.NoteOnEvent(tick=30, channel=0, data=[40, 0]),
   midi.NoteOnEvent(tick=0, channel=0, data=[40, 127]),
   midi.NoteOnEvent(tick=30, channel=0, data=[40, 0]),
   midi.NoteOnEvent(tick=0, channel=0, data=[60, 127]),
   midi.NoteOnEvent(tick=0, channel=0, data=[55, 127]),
   midi.NoteOnEvent(tick=0, channel=0, data=[48, 127]),
   midi.NoteOnEvent(tick=60, channel=0, data=[60, 0]),
   midi.NoteOnEvent(tick=0, channel=0, data=[55, 0]),
   midi.NoteOnEvent(tick=0, channel=0, data=[48, 0]),
   midi.NoteOnEvent(tick=0, channel=0, data=[40, 127]),
   midi.NoteOnEvent(tick=30, channel=0, data=[40, 0]),
   midi.NoteOnEvent(tick=0, channel=0, data=[40, 127]),
   midi.NoteOnEvent(tick=30, channel=0, data=[40, 0]),
   midi.NoteOnEvent(tick=0, channel=0, data=[40, 127]),
   midi.NoteOnEvent(tick=30, channel=0, data=[40, 0]),
   midi.NoteOnEvent(tick=0, channel=0, data=[40, 127]),
   midi.NoteOnEvent(tick=30, channel=0, data=[40, 0]),
   midi.NoteOnEvent(tick=0, channel=0, data=[40, 127]),
   midi.NoteOnEvent(tick=60, channel=0, data=[40, 0]),
   midi.NoteOnEvent(tick=0, channel=0, data=[40, 127]),
   midi.NoteOnEvent(tick=30, channel=0, data=[40, 0]),
   midi.NoteOnEvent(tick=0, channel=0, data=[40, 127]),
   midi.NoteOnEvent(tick=30, channel=0, data=[40, 0]),
   midi.NoteOnEvent(tick=0, channel=0, data=[41, 127]),
   midi.NoteOnEvent(tick=60, channel=0, data=[41, 0]),
   midi.NoteOnEvent(tick=0, channel=0, data=[41, 127]),
   midi.NoteOnEvent(tick=30, channel=0, data=[41, 0]),
   midi.NoteOnEvent(tick=0, channel=0, data=[41, 127]),
   midi.NoteOnEvent(tick=30, channel=0, data=[41, 0]),
   midi.NoteOnEvent(tick=0, channel=0, data=[40, 127]),
   midi.NoteOnEvent(tick=60, channel=0, data=[40, 0]),
   midi.NoteOnEvent(tick=0, channel=0, data=[40, 127]),
   midi.NoteOnEvent(tick=60, channel=0, data=[40, 0]),
   midi.NoteOnEvent(tick=0, channel=0, data=[40, 127]),
   midi.NoteOnEvent(tick=30, channel=0, data=[40, 0]),
   midi.NoteOnEvent(tick=0, channel=0, data=[40, 127]),
   midi.NoteOnEvent(tick=30, channel=0, data=[40, 0]),
   midi.NoteOnEvent(tick=0, channel=0, data=[60, 127]),
   midi.NoteOnEvent(tick=0, channel=0, data=[55, 127]),
   midi.NoteOnEvent(tick=0, channel=0, data=[48, 127]),
   midi.NoteOnEvent(tick=60, channel=0, data=[60, 0]),
   midi.NoteOnEvent(tick=0, channel=0, data=[55, 0]),
   midi.NoteOnEvent(tick=0, channel=0, data=[48, 0]),
   midi.NoteOnEvent(tick=0, channel=0, data=[40, 127]),
   midi.NoteOnEvent(tick=30, channel=0, data=[40, 0]),
   midi.NoteOnEvent(tick=0, channel=0, data=[40, 127]),
   midi.NoteOnEvent(tick=30, channel=0, data=[40, 0]),
   midi.NoteOnEvent(tick=0, channel=0, data=[40, 127]),
   midi.NoteOnEvent(tick=30, channel=0, data=[40, 0]),
   midi.NoteOnEvent(tick=0, channel=0, data=[40, 127]),
   midi.NoteOnEvent(tick=30, channel=0, data=[40, 0]),
   midi.NoteOnEvent(tick=0, channel=0, data=[59, 127]),
   midi.NoteOnEvent(tick=0, channel=0, data=[52, 127]),
   midi.NoteOnEvent(tick=0, channel=0, data=[47, 127]),
   midi.NoteOnEvent(tick=60, channel=0, data=[59, 0]),
   midi.NoteOnEvent(tick=0, channel=0, data=[52, 0]),
   midi.NoteOnEvent(tick=0, channel=0, data=[47, 0]),
   midi.NoteOnEvent(tick=0, channel=0, data=[40, 127]),
   midi.NoteOnEvent(tick=30, channel=0, data=[40, 0]),
   midi.NoteOnEvent(tick=0, channel=0, data=[40, 127]),
   midi.NoteOnEvent(tick=30, channel=0, data=[40, 0]),
   midi.NoteOnEvent(tick=0, channel=0, data=[40, 127]),
   midi.NoteOnEvent(tick=30, channel=0, data=[40, 0]),
   midi.NoteOnEvent(tick=0, channel=0, data=[40, 127]),
   midi.NoteOnEvent(tick=30, channel=0, data=[40, 0]),
   midi.NoteOnEvent(tick=0, channel=0, data=[57, 127]),
   midi.NoteOnEvent(tick=0, channel=0, data=[52, 127]),
   midi.NoteOnEvent(tick=0, channel=0, data=[45, 127]),
   midi.NoteOnEvent(tick=60, channel=0, data=[57, 0]),
   midi.NoteOnEvent(tick=0, channel=0, data=[52, 0]),
   midi.NoteOnEvent(tick=0, channel=0, data=[45, 0]),
   midi.NoteOnEvent(tick=0, channel=0, data=[40, 127]),
   midi.NoteOnEvent(tick=30, channel=0, data=[40, 0]),
   midi.NoteOnEvent(tick=0, channel=0, data=[40, 127]),
   midi.NoteOnEvent(tick=30, channel=0, data=[40, 0]),
   midi.NoteOnEvent(tick=0, channel=0, data=[40, 127]),
   midi.NoteOnEvent(tick=30, channel=0, data=[40, 0]),
   midi.NoteOnEvent(tick=0, channel=0, data=[40, 127]),
   midi.NoteOnEvent(tick=30, channel=0, data=[40, 0]),
   midi.NoteOnEvent(tick=0, channel=0, data=[40, 127]),
   midi.NoteOnEvent(tick=60, channel=0, data=[40, 0]),
   midi.NoteOnEvent(tick=0, channel=0, data=[40, 127]),
   midi.NoteOnEvent(tick=30, channel=0, data=[40, 0]),
   midi.NoteOnEvent(tick=0, channel=0, data=[40, 127]),
   midi.NoteOnEvent(tick=30, channel=0, data=[40, 0]),
   midi.NoteOnEvent(tick=0, channel=0, data=[41, 127]),
   midi.NoteOnEvent(tick=60, channel=0, data=[41, 0]),
   midi.NoteOnEvent(tick=0, channel=0, data=[41, 127]),
   midi.NoteOnEvent(tick=30, channel=0, data=[41, 0]),
   midi.NoteOnEvent(tick=0, channel=0, data=[41, 127]),
   midi.NoteOnEvent(tick=30, channel=0, data=[41, 0]),
   midi.NoteOnEvent(tick=0, channel=0, data=[40, 127]),
   midi.NoteOnEvent(tick=60, channel=0, data=[40, 0]),
   midi.NoteOnEvent(tick=0, channel=0, data=[40, 127]),
   midi.NoteOnEvent(tick=60, channel=0, data=[40, 0]),
   midi.NoteOnEvent(tick=0, channel=0, data=[40, 127]),
   midi.NoteOnEvent(tick=30, channel=0, data=[40, 0]),
   midi.NoteOnEvent(tick=0, channel=0, data=[40, 127]),
   midi.NoteOnEvent(tick=30, channel=0, data=[40, 0]),
   midi.NoteOnEvent(tick=0, channel=0, data=[57, 127]),
   midi.NoteOnEvent(tick=0, channel=0, data=[52, 127]),
   midi.NoteOnEvent(tick=0, channel=0, data=[45, 127]),
   midi.NoteOnEvent(tick=60, channel=0, data=[57, 0]),
   midi.NoteOnEvent(tick=0, channel=0, data=[52, 0]),
   midi.NoteOnEvent(tick=0, channel=0, data=[45, 0]),
   midi.NoteOnEvent(tick=0, channel=0, data=[40, 127]),
   midi.NoteOnEvent(tick=30, channel=0, data=[40, 0]),
   midi.NoteOnEvent(tick=0, channel=0, data=[40, 127]),
   midi.NoteOnEvent(tick=30, channel=0, data=[40, 0]),
   midi.NoteOnEvent(tick=0, channel=0, data=[40, 127]),
   midi.NoteOnEvent(tick=30, channel=0, data=[40, 0]),
   midi.NoteOnEvent(tick=0, channel=0, data=[40, 127]),
   midi.NoteOnEvent(tick=30, channel=0, data=[40, 0]),
   midi.NoteOnEvent(tick=0, channel=0, data=[59, 127]),
   midi.NoteOnEvent(tick=0, channel=0, data=[52, 127]),
   midi.NoteOnEvent(tick=0, channel=0, data=[47, 127]),
   midi.NoteOnEvent(tick=60, channel=0, data=[59, 0]),
   midi.NoteOnEvent(tick=0, channel=0, data=[52, 0]),
   midi.NoteOnEvent(tick=0, channel=0, data=[47, 0]),
   midi.NoteOnEvent(tick=0, channel=0, data=[40, 127]),
   midi.NoteOnEvent(tick=30, channel=0, data=[40, 0]),
   midi.NoteOnEvent(tick=0, channel=0, data=[40, 127]),
   midi.NoteOnEvent(tick=30, channel=0, data=[40, 0]),
   midi.NoteOnEvent(tick=0, channel=0, data=[40, 127]),
   midi.NoteOnEvent(tick=30, channel=0, data=[40, 0]),
   midi.NoteOnEvent(tick=0, channel=0, data=[40, 127]),
   midi.NoteOnEvent(tick=30, channel=0, data=[40, 0]),
   midi.NoteOnEvent(tick=0, channel=0, data=[60, 127]),
   midi.NoteOnEvent(tick=0, channel=0, data=[55, 127]),
   midi.NoteOnEvent(tick=0, channel=0, data=[48, 127]),
   midi.NoteOnEvent(tick=60, channel=0, data=[60, 0]),
   midi.NoteOnEvent(tick=0, channel=0, data=[55, 0]),
   midi.NoteOnEvent(tick=0, channel=0, data=[48, 0]),
   midi.NoteOnEvent(tick=0, channel=0, data=[40, 127]),
   midi.NoteOnEvent(tick=30, channel=0, data=[40, 0]),
   midi.NoteOnEvent(tick=0, channel=0, data=[40, 127]),
   midi.NoteOnEvent(tick=30, channel=0, data=[40, 0]),
   midi.NoteOnEvent(tick=0, channel=0, data=[40, 127]),
   midi.NoteOnEvent(tick=30, channel=0, data=[40, 0]),
   midi.NoteOnEvent(tick=0, channel=0, data=[40, 127]),
   midi.NoteOnEvent(tick=30, channel=0, data=[40, 0]),
   midi.NoteOnEvent(tick=0, channel=0, data=[40, 127]),
   midi.NoteOnEvent(tick=60, channel=0, data=[40, 0]),
   midi.NoteOnEvent(tick=0, channel=0, data=[40, 127]),
   midi.NoteOnEvent(tick=30, channel=0, data=[40, 0]),
   midi.NoteOnEvent(tick=0, channel=0, data=[40, 127]),
   midi.NoteOnEvent(tick=30, channel=0, data=[40, 0]),
   midi.NoteOnEvent(tick=0, channel=0, data=[41, 127]),
   midi.NoteOnEvent(tick=60, channel=0, data=[41, 0]),
   midi.NoteOnEvent(tick=0, channel=0, data=[41, 127]),
   midi.NoteOnEvent(tick=30, channel=0, data=[41, 0]),
   midi.NoteOnEvent(tick=0, channel=0, data=[41, 127]),
   midi.NoteOnEvent(tick=30, channel=0, data=[41, 0]),
   midi.NoteOnEvent(tick=0, channel=0, data=[40, 127]),
   midi.NoteOnEvent(tick=60, channel=0, data=[40, 0]),
   midi.NoteOnEvent(tick=0, channel=0, data=[40, 127]),
   midi.NoteOnEvent(tick=60, channel=0, data=[40, 0]),
   midi.NoteOnEvent(tick=0, channel=0, data=[40, 127]),
   midi.NoteOnEvent(tick=30, channel=0, data=[40, 0]),
   midi.NoteOnEvent(tick=0, channel=0, data=[40, 127]),
   midi.NoteOnEvent(tick=30, channel=0, data=[40, 0]),
   midi.NoteOnEvent(tick=0, channel=0, data=[60, 127]),
   midi.NoteOnEvent(tick=0, channel=0, data=[55, 127]),
   midi.NoteOnEvent(tick=0, channel=0, data=[48, 127]),
   midi.NoteOnEvent(tick=60, channel=0, data=[60, 0]),
   midi.NoteOnEvent(tick=0, channel=0, data=[55, 0]),
   midi.NoteOnEvent(tick=0, channel=0, data=[48, 0]),
   midi.NoteOnEvent(tick=0, channel=0, data=[40, 127]),
   midi.NoteOnEvent(tick=30, channel=0, data=[40, 0]),
   midi.NoteOnEvent(tick=0, channel=0, data=[40, 127]),
   midi.NoteOnEvent(tick=30, channel=0, data=[40, 0]),
   midi.NoteOnEvent(tick=0, channel=0, data=[40, 127]),
   midi.NoteOnEvent(tick=30, channel=0, data=[40, 0]),
   midi.NoteOnEvent(tick=0, channel=0, data=[40, 127]),
   midi.NoteOnEvent(tick=30, channel=0, data=[40, 0]),
   midi.NoteOnEvent(tick=0, channel=0, data=[59, 127]),
   midi.NoteOnEvent(tick=0, channel=0, data=[52, 127]),
   midi.NoteOnEvent(tick=0, channel=0, data=[47, 127]),
   midi.NoteOnEvent(tick=60, channel=0, data=[59, 0]),
   midi.NoteOnEvent(tick=0, channel=0, data=[52, 0]),
   midi.NoteOnEvent(tick=0, channel=0, data=[47, 0]),
   midi.NoteOnEvent(tick=0, channel=0, data=[40, 127]),
   midi.NoteOnEvent(tick=30, channel=0, data=[40, 0]),
   midi.NoteOnEvent(tick=0, channel=0, data=[40, 127]),
   midi.NoteOnEvent(tick=30, channel=0, data=[40, 0]),
   midi.NoteOnEvent(tick=0, channel=0, data=[40, 127]),
   midi.NoteOnEvent(tick=30, channel=0, data=[40, 0]),
   midi.NoteOnEvent(tick=0, channel=0, data=[40, 127]),
   midi.NoteOnEvent(tick=30, channel=0, data=[40, 0]),
   midi.NoteOnEvent(tick=0, channel=0, data=[57, 127]),
   midi.NoteOnEvent(tick=0, channel=0, data=[52, 127]),
   midi.NoteOnEvent(tick=0, channel=0, data=[45, 127]),
   midi.NoteOnEvent(tick=60, channel=0, data=[57, 0]),
   midi.NoteOnEvent(tick=0, channel=0, data=[52, 0]),
   midi.NoteOnEvent(tick=0, channel=0, data=[45, 0]),
   midi.NoteOnEvent(tick=0, channel=0, data=[40, 127]),
   midi.NoteOnEvent(tick=30, channel=0, data=[40, 0]),
   midi.NoteOnEvent(tick=0, channel=0, data=[40, 127]),
   midi.NoteOnEvent(tick=30, channel=0, data=[40, 0]),
   midi.NoteOnEvent(tick=0, channel=0, data=[40, 127]),
   midi.NoteOnEvent(tick=30, channel=0, data=[40, 0]),
   midi.NoteOnEvent(tick=0, channel=0, data=[40, 127]),
   midi.NoteOnEvent(tick=30, channel=0, data=[40, 0]),
   midi.NoteOnEvent(tick=0, channel=0, data=[40, 127]),
   midi.NoteOnEvent(tick=60, channel=0, data=[40, 0]),
   midi.NoteOnEvent(tick=0, channel=0, data=[40, 127]),
   midi.NoteOnEvent(tick=30, channel=0, data=[40, 0]),
   midi.NoteOnEvent(tick=0, channel=0, data=[40, 127]),
   midi.NoteOnEvent(tick=30, channel=0, data=[40, 0]),
   midi.NoteOnEvent(tick=0, channel=0, data=[41, 127]),
   midi.NoteOnEvent(tick=60, channel=0, data=[41, 0]),
   midi.NoteOnEvent(tick=0, channel=0, data=[41, 127]),
   midi.NoteOnEvent(tick=30, channel=0, data=[41, 0]),
   midi.NoteOnEvent(tick=0, channel=0, data=[41, 127]),
   midi.NoteOnEvent(tick=30, channel=0, data=[41, 0]),
   midi.NoteOnEvent(tick=0, channel=0, data=[40, 127]),
   midi.NoteOnEvent(tick=60, channel=0, data=[40, 0]),
   midi.NoteOnEvent(tick=0, channel=0, data=[40, 127]),
   midi.NoteOnEvent(tick=60, channel=0, data=[40, 0]),
   midi.NoteOnEvent(tick=0, channel=0, data=[40, 127]),
   midi.NoteOnEvent(tick=30, channel=0, data=[40, 0]),
   midi.NoteOnEvent(tick=0, channel=0, data=[40, 127]),
   midi.NoteOnEvent(tick=30, channel=0, data=[40, 0]),
   midi.NoteOnEvent(tick=0, channel=0, data=[57, 127]),
   midi.NoteOnEvent(tick=0, channel=0, data=[52, 127]),
   midi.NoteOnEvent(tick=0, channel=0, data=[45, 127]),
   midi.NoteOnEvent(tick=60, channel=0, data=[57, 0]),
   midi.NoteOnEvent(tick=0, channel=0, data=[52, 0]),
   midi.NoteOnEvent(tick=0, channel=0, data=[45, 0]),
   midi.NoteOnEvent(tick=0, channel=0, data=[40, 127]),
   midi.NoteOnEvent(tick=30, channel=0, data=[40, 0]),
   midi.NoteOnEvent(tick=0, channel=0, data=[40, 127]),
   midi.NoteOnEvent(tick=30, channel=0, data=[40, 0]),
   midi.NoteOnEvent(tick=0, channel=0, data=[40, 127]),
   midi.NoteOnEvent(tick=30, channel=0, data=[40, 0]),
   midi.NoteOnEvent(tick=0, channel=0, data=[40, 127]),
   midi.NoteOnEvent(tick=30, channel=0, data=[40, 0]),
   midi.NoteOnEvent(tick=0, channel=0, data=[59, 127]),
   midi.NoteOnEvent(tick=0, channel=0, data=[52, 127]),
   midi.NoteOnEvent(tick=0, channel=0, data=[47, 127]),
   midi.NoteOnEvent(tick=60, channel=0, data=[59, 0]),
   midi.NoteOnEvent(tick=0, channel=0, data=[52, 0]),
   midi.NoteOnEvent(tick=0, channel=0, data=[47, 0]),
   midi.NoteOnEvent(tick=0, channel=0, data=[40, 127]),
   midi.NoteOnEvent(tick=30, channel=0, data=[40, 0]),
   midi.NoteOnEvent(tick=0, channel=0, data=[40, 127]),
   midi.NoteOnEvent(tick=30, channel=0, data=[40, 0]),
   midi.NoteOnEvent(tick=0, channel=0, data=[40, 127]),
   midi.NoteOnEvent(tick=30, channel=0, data=[40, 0]),
   midi.NoteOnEvent(tick=0, channel=0, data=[40, 127]),
   midi.NoteOnEvent(tick=30, channel=0, data=[40, 0]),
   midi.NoteOnEvent(tick=0, channel=0, data=[60, 127]),
   midi.NoteOnEvent(tick=0, channel=0, data=[55, 127]),
   midi.NoteOnEvent(tick=0, channel=0, data=[48, 127]),
   midi.NoteOnEvent(tick=60, channel=0, data=[60, 0]),
   midi.NoteOnEvent(tick=0, channel=0, data=[55, 0]),
   midi.NoteOnEvent(tick=0, channel=0, data=[48, 0]),
   midi.NoteOnEvent(tick=0, channel=0, data=[40, 127]),
   midi.NoteOnEvent(tick=30, channel=0, data=[40, 0]),
   midi.NoteOnEvent(tick=0, channel=0, data=[40, 127]),
   midi.NoteOnEvent(tick=30, channel=0, data=[40, 0]),
   midi.NoteOnEvent(tick=0, channel=0, data=[40, 127]),
   midi.NoteOnEvent(tick=30, channel=0, data=[40, 0]),
   midi.NoteOnEvent(tick=0, channel=0, data=[40, 127]),
   midi.NoteOnEvent(tick=30, channel=0, data=[40, 0]),
   midi.NoteOnEvent(tick=0, channel=0, data=[40, 127]),
   midi.NoteOnEvent(tick=60, channel=0, data=[40, 0]),
   midi.NoteOnEvent(tick=0, channel=0, data=[40, 127]),
   midi.NoteOnEvent(tick=30, channel=0, data=[40, 0]),
   midi.NoteOnEvent(tick=0, channel=0, data=[40, 127]),
   midi.NoteOnEvent(tick=30, channel=0, data=[40, 0]),
   midi.NoteOnEvent(tick=0, channel=0, data=[41, 127]),
   midi.NoteOnEvent(tick=60, channel=0, data=[41, 0]),
   midi.NoteOnEvent(tick=0, channel=0, data=[41, 127]),
   midi.NoteOnEvent(tick=30, channel=0, data=[41, 0]),
   midi.NoteOnEvent(tick=0, channel=0, data=[41, 127]),
   midi.NoteOnEvent(tick=30, channel=0, data=[41, 0]),
   midi.NoteOnEvent(tick=0, channel=0, data=[40, 127]),
   midi.NoteOnEvent(tick=60, channel=0, data=[40, 0]),
   midi.ControlChangeEvent(tick=0, channel=0, data=[7, 99]),
   midi.NoteOnEvent(tick=0, channel=0, data=[40, 127]),
   midi.ControlChangeEvent(tick=58, channel=0, data=[7, 98]),
   midi.NoteOnEvent(tick=2, channel=0, data=[40, 0]),
   midi.NoteOnEvent(tick=0, channel=0, data=[40, 127]),
   midi.NoteOnEvent(tick=30, channel=0, data=[40, 0]),
   midi.NoteOnEvent(tick=0, channel=0, data=[40, 127]),
   midi.ControlChangeEvent(tick=26, channel=0, data=[7, 97]),
   midi.NoteOnEvent(tick=4, channel=0, data=[40, 0]),
   midi.NoteOnEvent(tick=0, channel=0, data=[60, 127]),
   midi.NoteOnEvent(tick=0, channel=0, data=[55, 127]),
   midi.NoteOnEvent(tick=0, channel=0, data=[48, 127]),
   midi.ControlChangeEvent(tick=55, channel=0, data=[7, 96]),
   midi.NoteOnEvent(tick=5, channel=0, data=[60, 0]),
   midi.NoteOnEvent(tick=0, channel=0, data=[55, 0]),
   midi.NoteOnEvent(tick=0, channel=0, data=[48, 0]),
   midi.NoteOnEvent(tick=0, channel=0, data=[40, 127]),
   midi.NoteOnEvent(tick=30, channel=0, data=[40, 0]),
   midi.NoteOnEvent(tick=0, channel=0, data=[40, 127]),
   midi.ControlChangeEvent(tick=23, channel=0, data=[7, 95]),
   midi.NoteOnEvent(tick=7, channel=0, data=[40, 0]),
   midi.NoteOnEvent(tick=0, channel=0, data=[40, 127]),
   midi.NoteOnEvent(tick=30, channel=0, data=[40, 0]),
   midi.NoteOnEvent(tick=0, channel=0, data=[40, 127]),
   midi.ControlChangeEvent(tick=21, channel=0, data=[7, 94]),
   midi.NoteOnEvent(tick=9, channel=0, data=[40, 0]),
   midi.NoteOnEvent(tick=0, channel=0, data=[59, 127]),
   midi.NoteOnEvent(tick=0, channel=0, data=[52, 127]),
   midi.NoteOnEvent(tick=0, channel=0, data=[47, 127]),
   midi.ControlChangeEvent(tick=49, channel=0, data=[7, 93]),
   midi.NoteOnEvent(tick=11, channel=0, data=[59, 0]),
   midi.NoteOnEvent(tick=0, channel=0, data=[52, 0]),
   midi.NoteOnEvent(tick=0, channel=0, data=[47, 0]),
   midi.NoteOnEvent(tick=0, channel=0, data=[40, 127]),
   midi.NoteOnEvent(tick=30, channel=0, data=[40, 0]),
   midi.NoteOnEvent(tick=0, channel=0, data=[40, 127]),
   midi.ControlChangeEvent(tick=17, channel=0, data=[7, 92]),
   midi.NoteOnEvent(tick=13, channel=0, data=[40, 0]),
   midi.NoteOnEvent(tick=0, channel=0, data=[40, 127]),
   midi.NoteOnEvent(tick=30, channel=0, data=[40, 0]),
   midi.NoteOnEvent(tick=0, channel=0, data=[40, 127]),
   midi.ControlChangeEvent(tick=15, channel=0, data=[7, 91]),
   midi.NoteOnEvent(tick=15, channel=0, data=[40, 0]),
   midi.NoteOnEvent(tick=0, channel=0, data=[57, 127]),
   midi.NoteOnEvent(tick=0, channel=0, data=[52, 127]),
   midi.NoteOnEvent(tick=0, channel=0, data=[45, 127]),
   midi.ControlChangeEvent(tick=44, channel=0, data=[7, 90]),
   midi.NoteOnEvent(tick=16, channel=0, data=[57, 0]),
   midi.NoteOnEvent(tick=0, channel=0, data=[52, 0]),
   midi.NoteOnEvent(tick=0, channel=0, data=[45, 0]),
   midi.NoteOnEvent(tick=0, channel=0, data=[40, 127]),
   midi.NoteOnEvent(tick=30, channel=0, data=[40, 0]),
   midi.NoteOnEvent(tick=0, channel=0, data=[40, 127]),
   midi.ControlChangeEvent(tick=12, channel=0, data=[7, 89]),
   midi.NoteOnEvent(tick=18, channel=0, data=[40, 0]),
   midi.NoteOnEvent(tick=0, channel=0, data=[40, 127]),
   midi.NoteOnEvent(tick=30, channel=0, data=[40, 0]),
   midi.NoteOnEvent(tick=0, channel=0, data=[40, 127]),
   midi.ControlChangeEvent(tick=10, channel=0, data=[7, 88]),
   midi.NoteOnEvent(tick=20, channel=0, data=[40, 0]),
   midi.NoteOnEvent(tick=0, channel=0, data=[40, 127]),
   midi.ControlChangeEvent(tick=38, channel=0, data=[7, 87]),
   midi.NoteOnEvent(tick=22, channel=0, data=[40, 0]),
   midi.NoteOnEvent(tick=0, channel=0, data=[40, 127]),
   midi.NoteOnEvent(tick=30, channel=0, data=[40, 0]),
   midi.NoteOnEvent(tick=0, channel=0, data=[40, 127]),
   midi.ControlChangeEvent(tick=6, channel=0, data=[7, 86]),
   midi.NoteOnEvent(tick=24, channel=0, data=[40, 0]),
   midi.NoteOnEvent(tick=0, channel=0, data=[41, 127]),
   midi.ControlChangeEvent(tick=34, channel=0, data=[7, 85]),
   midi.NoteOnEvent(tick=26, channel=0, data=[41, 0]),
   midi.NoteOnEvent(tick=0, channel=0, data=[41, 127]),
   midi.NoteOnEvent(tick=30, channel=0, data=[41, 0]),
   midi.NoteOnEvent(tick=0, channel=0, data=[41, 127]),
   midi.ControlChangeEvent(tick=3, channel=0, data=[7, 84]),
   midi.NoteOnEvent(tick=27, channel=0, data=[41, 0]),
   midi.NoteOnEvent(tick=0, channel=0, data=[40, 127]),
   midi.ControlChangeEvent(tick=31, channel=0, data=[7, 83]),
   midi.NoteOnEvent(tick=29, channel=0, data=[40, 0]),
   midi.NoteOnEvent(tick=0, channel=0, data=[40, 127]),
   midi.ControlChangeEvent(tick=29, channel=0, data=[7, 82]),
   midi.NoteOnEvent(tick=31, channel=0, data=[40, 0]),
   midi.NoteOnEvent(tick=0, channel=0, data=[40, 127]),
   midi.ControlChangeEvent(tick=27, channel=0, data=[7, 81]),
   midi.NoteOnEvent(tick=3, channel=0, data=[40, 0]),
   midi.NoteOnEvent(tick=0, channel=0, data=[40, 127]),
   midi.NoteOnEvent(tick=30, channel=0, data=[40, 0]),
   midi.NoteOnEvent(tick=0, channel=0, data=[57, 127]),
   midi.NoteOnEvent(tick=0, channel=0, data=[52, 127]),
   midi.NoteOnEvent(tick=0, channel=0, data=[45, 127]),
   midi.ControlChangeEvent(tick=25, channel=0, data=[7, 80]),
   midi.NoteOnEvent(tick=35, channel=0, data=[57, 0]),
   midi.NoteOnEvent(tick=0, channel=0, data=[52, 0]),
   midi.NoteOnEvent(tick=0, channel=0, data=[45, 0]),
   midi.NoteOnEvent(tick=0, channel=0, data=[40, 127]),
   midi.ControlChangeEvent(tick=23, channel=0, data=[7, 79]),
   midi.NoteOnEvent(tick=7, channel=0, data=[40, 0]),
   midi.NoteOnEvent(tick=0, channel=0, data=[40, 127]),
   midi.NoteOnEvent(tick=30, channel=0, data=[40, 0]),
   midi.NoteOnEvent(tick=0, channel=0, data=[40, 127]),
   midi.ControlChangeEvent(tick=22, channel=0, data=[7, 78]),
   midi.NoteOnEvent(tick=8, channel=0, data=[40, 0]),
   midi.NoteOnEvent(tick=0, channel=0, data=[40, 127]),
   midi.NoteOnEvent(tick=30, channel=0, data=[40, 0]),
   midi.NoteOnEvent(tick=0, channel=0, data=[59, 127]),
   midi.NoteOnEvent(tick=0, channel=0, data=[52, 127]),
   midi.NoteOnEvent(tick=0, channel=0, data=[47, 127]),
   midi.ControlChangeEvent(tick=20, channel=0, data=[7, 77]),
   midi.NoteOnEvent(tick=40, channel=0, data=[59, 0]),
   midi.NoteOnEvent(tick=0, channel=0, data=[52, 0]),
   midi.NoteOnEvent(tick=0, channel=0, data=[47, 0]),
   midi.NoteOnEvent(tick=0, channel=0, data=[40, 127]),
   midi.ControlChangeEvent(tick=18, channel=0, data=[7, 76]),
   midi.NoteOnEvent(tick=12, channel=0, data=[40, 0]),
   midi.NoteOnEvent(tick=0, channel=0, data=[40, 127]),
   midi.NoteOnEvent(tick=30, channel=0, data=[40, 0]),
   midi.NoteOnEvent(tick=0, channel=0, data=[40, 127]),
   midi.ControlChangeEvent(tick=16, channel=0, data=[7, 75]),
   midi.NoteOnEvent(tick=14, channel=0, data=[40, 0]),
   midi.NoteOnEvent(tick=0, channel=0, data=[40, 127]),
   midi.NoteOnEvent(tick=30, channel=0, data=[40, 0]),
   midi.NoteOnEvent(tick=0, channel=0, data=[60, 127]),
   midi.NoteOnEvent(tick=0, channel=0, data=[55, 127]),
   midi.NoteOnEvent(tick=0, channel=0, data=[48, 127]),
   midi.ControlChangeEvent(tick=14, channel=0, data=[7, 74]),
   midi.NoteOnEvent(tick=46, channel=0, data=[60, 0]),
   midi.NoteOnEvent(tick=0, channel=0, data=[55, 0]),
   midi.NoteOnEvent(tick=0, channel=0, data=[48, 0]),
   midi.NoteOnEvent(tick=0, channel=0, data=[40, 127]),
   midi.ControlChangeEvent(tick=12, channel=0, data=[7, 73]),
   midi.NoteOnEvent(tick=18, channel=0, data=[40, 0]),
   midi.NoteOnEvent(tick=0, channel=0, data=[40, 127]),
   midi.NoteOnEvent(tick=30, channel=0, data=[40, 0]),
   midi.NoteOnEvent(tick=0, channel=0, data=[40, 127]),
   midi.ControlChangeEvent(tick=11, channel=0, data=[7, 72]),
   midi.NoteOnEvent(tick=19, channel=0, data=[40, 0]),
   midi.NoteOnEvent(tick=0, channel=0, data=[40, 127]),
   midi.NoteOnEvent(tick=30, channel=0, data=[40, 0]),
   midi.NoteOnEvent(tick=0, channel=0, data=[40, 127]),
   midi.ControlChangeEvent(tick=9, channel=0, data=[7, 71]),
   midi.NoteOnEvent(tick=51, channel=0, data=[40, 0]),
   midi.NoteOnEvent(tick=0, channel=0, data=[40, 127]),
   midi.ControlChangeEvent(tick=7, channel=0, data=[7, 70]),
   midi.NoteOnEvent(tick=23, channel=0, data=[40, 0]),
   midi.NoteOnEvent(tick=0, channel=0, data=[40, 127]),
   midi.NoteOnEvent(tick=30, channel=0, data=[40, 0]),
   midi.NoteOnEvent(tick=0, channel=0, data=[41, 127]),
   midi.ControlChangeEvent(tick=5, channel=0, data=[7, 69]),
   midi.NoteOnEvent(tick=55, channel=0, data=[41, 0]),
   midi.NoteOnEvent(tick=0, channel=0, data=[41, 127]),
   midi.ControlChangeEvent(tick=3, channel=0, data=[7, 68]),
   midi.NoteOnEvent(tick=27, channel=0, data=[41, 0]),
   midi.NoteOnEvent(tick=0, channel=0, data=[41, 127]),
   midi.NoteOnEvent(tick=30, channel=0, data=[41, 0]),
   midi.NoteOnEvent(tick=0, channel=0, data=[40, 127]),
   midi.ControlChangeEvent(tick=1, channel=0, data=[7, 67]),
   midi.NoteOnEvent(tick=59, channel=0, data=[40, 0]),
   midi.ControlChangeEvent(tick=0, channel=0, data=[7, 66]),
   midi.NoteOnEvent(tick=0, channel=0, data=[40, 127]),
   midi.ControlChangeEvent(tick=58, channel=0, data=[7, 65]),
   midi.NoteOnEvent(tick=2, channel=0, data=[40, 0]),
   midi.NoteOnEvent(tick=0, channel=0, data=[40, 127]),
   midi.NoteOnEvent(tick=30, channel=0, data=[40, 0]),
   midi.NoteOnEvent(tick=0, channel=0, data=[40, 127]),
   midi.ControlChangeEvent(tick=26, channel=0, data=[7, 64]),
   midi.NoteOnEvent(tick=4, channel=0, data=[40, 0]),
   midi.NoteOnEvent(tick=0, channel=0, data=[60, 127]),
   midi.NoteOnEvent(tick=0, channel=0, data=[55, 127]),
   midi.NoteOnEvent(tick=0, channel=0, data=[48, 127]),
   midi.ControlChangeEvent(tick=54, channel=0, data=[7, 63]),
   midi.NoteOnEvent(tick=6, channel=0, data=[60, 0]),
   midi.NoteOnEvent(tick=0, channel=0, data=[55, 0]),
   midi.NoteOnEvent(tick=0, channel=0, data=[48, 0]),
   midi.NoteOnEvent(tick=0, channel=0, data=[40, 127]),
   midi.NoteOnEvent(tick=30, channel=0, data=[40, 0]),
   midi.NoteOnEvent(tick=0, channel=0, data=[40, 127]),
   midi.ControlChangeEvent(tick=22, channel=0, data=[7, 62]),
   midi.NoteOnEvent(tick=8, channel=0, data=[40, 0]),
   midi.NoteOnEvent(tick=0, channel=0, data=[40, 127]),
   midi.NoteOnEvent(tick=30, channel=0, data=[40, 0]),
   midi.NoteOnEvent(tick=0, channel=0, data=[40, 127]),
   midi.ControlChangeEvent(tick=21, channel=0, data=[7, 61]),
   midi.NoteOnEvent(tick=9, channel=0, data=[40, 0]),
   midi.NoteOnEvent(tick=0, channel=0, data=[59, 127]),
   midi.NoteOnEvent(tick=0, channel=0, data=[52, 127]),
   midi.NoteOnEvent(tick=0, channel=0, data=[47, 127]),
   midi.ControlChangeEvent(tick=49, channel=0, data=[7, 60]),
   midi.NoteOnEvent(tick=11, channel=0, data=[59, 0]),
   midi.NoteOnEvent(tick=0, channel=0, data=[52, 0]),
   midi.NoteOnEvent(tick=0, channel=0, data=[47, 0]),
   midi.NoteOnEvent(tick=0, channel=0, data=[40, 127]),
   midi.NoteOnEvent(tick=30, channel=0, data=[40, 0]),
   midi.NoteOnEvent(tick=0, channel=0, data=[40, 127]),
   midi.ControlChangeEvent(tick=17, channel=0, data=[7, 59]),
   midi.NoteOnEvent(tick=13, channel=0, data=[40, 0]),
   midi.NoteOnEvent(tick=0, channel=0, data=[40, 127]),
   midi.NoteOnEvent(tick=30, channel=0, data=[40, 0]),
   midi.NoteOnEvent(tick=0, channel=0, data=[40, 127]),
   midi.ControlChangeEvent(tick=15, channel=0, data=[7, 58]),
   midi.NoteOnEvent(tick=15, channel=0, data=[40, 0]),
   midi.NoteOnEvent(tick=0, channel=0, data=[57, 127]),
   midi.NoteOnEvent(tick=0, channel=0, data=[52, 127]),
   midi.NoteOnEvent(tick=0, channel=0, data=[45, 127]),
   midi.ControlChangeEvent(tick=43, channel=0, data=[7, 57]),
   midi.NoteOnEvent(tick=17, channel=0, data=[57, 0]),
   midi.NoteOnEvent(tick=0, channel=0, data=[52, 0]),
   midi.NoteOnEvent(tick=0, channel=0, data=[45, 0]),
   midi.NoteOnEvent(tick=0, channel=0, data=[40, 127]),
   midi.NoteOnEvent(tick=30, channel=0, data=[40, 0]),
   midi.NoteOnEvent(tick=0, channel=0, data=[40, 127]),
   midi.ControlChangeEvent(tick=11, channel=0, data=[7, 56]),
   midi.NoteOnEvent(tick=19, channel=0, data=[40, 0]),
   midi.NoteOnEvent(tick=0, channel=0, data=[40, 127]),
   midi.NoteOnEvent(tick=30, channel=0, data=[40, 0]),
   midi.NoteOnEvent(tick=0, channel=0, data=[40, 127]),
   midi.ControlChangeEvent(tick=10, channel=0, data=[7, 55]),
   midi.NoteOnEvent(tick=20, channel=0, data=[40, 0]),
   midi.NoteOnEvent(tick=0, channel=0, data=[40, 127]),
   midi.ControlChangeEvent(tick=38, channel=0, data=[7, 54]),
   midi.NoteOnEvent(tick=22, channel=0, data=[40, 0]),
   midi.NoteOnEvent(tick=0, channel=0, data=[40, 127]),
   midi.NoteOnEvent(tick=30, channel=0, data=[40, 0]),
   midi.NoteOnEvent(tick=0, channel=0, data=[40, 127]),
   midi.ControlChangeEvent(tick=6, channel=0, data=[7, 53]),
   midi.NoteOnEvent(tick=24, channel=0, data=[40, 0]),
   midi.NoteOnEvent(tick=0, channel=0, data=[41, 127]),
   midi.ControlChangeEvent(tick=34, channel=0, data=[7, 52]),
   midi.NoteOnEvent(tick=26, channel=0, data=[41, 0]),
   midi.NoteOnEvent(tick=0, channel=0, data=[41, 127]),
   midi.NoteOnEvent(tick=30, channel=0, data=[41, 0]),
   midi.NoteOnEvent(tick=0, channel=0, data=[41, 127]),
   midi.ControlChangeEvent(tick=2, channel=0, data=[7, 51]),
   midi.NoteOnEvent(tick=28, channel=0, data=[41, 0]),
   midi.NoteOnEvent(tick=0, channel=0, data=[40, 127]),
   midi.ControlChangeEvent(tick=30, channel=0, data=[7, 50]),
   midi.NoteOnEvent(tick=30, channel=0, data=[40, 0]),
   midi.NoteOnEvent(tick=0, channel=0, data=[40, 127]),
   midi.ControlChangeEvent(tick=29, channel=0, data=[7, 49]),
   midi.NoteOnEvent(tick=31, channel=0, data=[40, 0]),
   midi.NoteOnEvent(tick=0, channel=0, data=[40, 127]),
   midi.ControlChangeEvent(tick=27, channel=0, data=[7, 48]),
   midi.NoteOnEvent(tick=3, channel=0, data=[40, 0]),
   midi.NoteOnEvent(tick=0, channel=0, data=[40, 127]),
   midi.NoteOnEvent(tick=30, channel=0, data=[40, 0]),
   midi.NoteOnEvent(tick=0, channel=0, data=[57, 127]),
   midi.NoteOnEvent(tick=0, channel=0, data=[52, 127]),
   midi.NoteOnEvent(tick=0, channel=0, data=[45, 127]),
   midi.ControlChangeEvent(tick=25, channel=0, data=[7, 47]),
   midi.NoteOnEvent(tick=35, channel=0, data=[57, 0]),
   midi.NoteOnEvent(tick=0, channel=0, data=[52, 0]),
   midi.NoteOnEvent(tick=0, channel=0, data=[45, 0]),
   midi.NoteOnEvent(tick=0, channel=0, data=[40, 127]),
   midi.ControlChangeEvent(tick=23, channel=0, data=[7, 46]),
   midi.NoteOnEvent(tick=7, channel=0, data=[40, 0]),
   midi.NoteOnEvent(tick=0, channel=0, data=[40, 127]),
   midi.NoteOnEvent(tick=30, channel=0, data=[40, 0]),
   midi.NoteOnEvent(tick=0, channel=0, data=[40, 127]),
   midi.ControlChangeEvent(tick=21, channel=0, data=[7, 45]),
   midi.NoteOnEvent(tick=9, channel=0, data=[40, 0]),
   midi.NoteOnEvent(tick=0, channel=0, data=[40, 127]),
   midi.NoteOnEvent(tick=30, channel=0, data=[40, 0]),
   midi.NoteOnEvent(tick=0, channel=0, data=[59, 127]),
   midi.NoteOnEvent(tick=0, channel=0, data=[52, 127]),
   midi.NoteOnEvent(tick=0, channel=0, data=[47, 127]),
   midi.ControlChangeEvent(tick=19, channel=0, data=[7, 44]),
   midi.NoteOnEvent(tick=41, channel=0, data=[59, 0]),
   midi.NoteOnEvent(tick=0, channel=0, data=[52, 0]),
   midi.NoteOnEvent(tick=0, channel=0, data=[47, 0]),
   midi.NoteOnEvent(tick=0, channel=0, data=[40, 127]),
   midi.ControlChangeEvent(tick=18, channel=0, data=[7, 43]),
   midi.NoteOnEvent(tick=12, channel=0, data=[40, 0]),
   midi.NoteOnEvent(tick=0, channel=0, data=[40, 127]),
   midi.NoteOnEvent(tick=30, channel=0, data=[40, 0]),
   midi.NoteOnEvent(tick=0, channel=0, data=[40, 127]),
   midi.ControlChangeEvent(tick=16, channel=0, data=[7, 42]),
   midi.NoteOnEvent(tick=14, channel=0, data=[40, 0]),
   midi.NoteOnEvent(tick=0, channel=0, data=[40, 127]),
   midi.NoteOnEvent(tick=30, channel=0, data=[40, 0]),
   midi.NoteOnEvent(tick=0, channel=0, data=[60, 127]),
   midi.NoteOnEvent(tick=0, channel=0, data=[55, 127]),
   midi.NoteOnEvent(tick=0, channel=0, data=[48, 127]),
   midi.ControlChangeEvent(tick=14, channel=0, data=[7, 41]),
   midi.NoteOnEvent(tick=46, channel=0, data=[60, 0]),
   midi.NoteOnEvent(tick=0, channel=0, data=[55, 0]),
   midi.NoteOnEvent(tick=0, channel=0, data=[48, 0]),
   midi.NoteOnEvent(tick=0, channel=0, data=[40, 127]),
   midi.ControlChangeEvent(tick=12, channel=0, data=[7, 40]),
   midi.NoteOnEvent(tick=18, channel=0, data=[40, 0]),
   midi.NoteOnEvent(tick=0, channel=0, data=[40, 127]),
   midi.NoteOnEvent(tick=30, channel=0, data=[40, 0]),
   midi.NoteOnEvent(tick=0, channel=0, data=[40, 127]),
   midi.ControlChangeEvent(tick=10, channel=0, data=[7, 39]),
   midi.NoteOnEvent(tick=20, channel=0, data=[40, 0]),
   midi.NoteOnEvent(tick=0, channel=0, data=[40, 127]),
   midi.NoteOnEvent(tick=30, channel=0, data=[40, 0]),
   midi.NoteOnEvent(tick=0, channel=0, data=[40, 127]),
   midi.ControlChangeEvent(tick=8, channel=0, data=[7, 38]),
   midi.NoteOnEvent(tick=52, channel=0, data=[40, 0]),
   midi.NoteOnEvent(tick=0, channel=0, data=[40, 127]),
   midi.ControlChangeEvent(tick=7, channel=0, data=[7, 37]),
   midi.NoteOnEvent(tick=23, channel=0, data=[40, 0]),
   midi.NoteOnEvent(tick=0, channel=0, data=[40, 127]),
   midi.NoteOnEvent(tick=30, channel=0, data=[40, 0]),
   midi.NoteOnEvent(tick=0, channel=0, data=[41, 127]),
   midi.ControlChangeEvent(tick=5, channel=0, data=[7, 36]),
   midi.NoteOnEvent(tick=55, channel=0, data=[41, 0]),
   midi.NoteOnEvent(tick=0, channel=0, data=[41, 127]),
   midi.ControlChangeEvent(tick=3, channel=0, data=[7, 35]),
   midi.NoteOnEvent(tick=27, channel=0, data=[41, 0]),
   midi.NoteOnEvent(tick=0, channel=0, data=[41, 127]),
   midi.NoteOnEvent(tick=30, channel=0, data=[41, 0]),
   midi.NoteOnEvent(tick=0, channel=0, data=[40, 127]),
   midi.ControlChangeEvent(tick=1, channel=0, data=[7, 34]),
   midi.ControlChangeEvent(tick=58, channel=0, data=[7, 33]),
   midi.NoteOnEvent(tick=1, channel=0, data=[40, 0]),
   midi.NoteOnEvent(tick=0, channel=0, data=[40, 127]),
   midi.ControlChangeEvent(tick=58, channel=0, data=[7, 32]),
   midi.NoteOnEvent(tick=2, channel=0, data=[40, 0]),
   midi.NoteOnEvent(tick=0, channel=0, data=[40, 127]),
   midi.NoteOnEvent(tick=30, channel=0, data=[40, 0]),
   midi.NoteOnEvent(tick=0, channel=0, data=[40, 127]),
   midi.ControlChangeEvent(tick=26, channel=0, data=[7, 31]),
   midi.NoteOnEvent(tick=4, channel=0, data=[40, 0]),
   midi.NoteOnEvent(tick=0, channel=0, data=[60, 127]),
   midi.NoteOnEvent(tick=0, channel=0, data=[55, 127]),
   midi.NoteOnEvent(tick=0, channel=0, data=[48, 127]),
   midi.ControlChangeEvent(tick=54, channel=0, data=[7, 30]),
   midi.NoteOnEvent(tick=6, channel=0, data=[60, 0]),
   midi.NoteOnEvent(tick=0, channel=0, data=[55, 0]),
   midi.NoteOnEvent(tick=0, channel=0, data=[48, 0]),
   midi.NoteOnEvent(tick=0, channel=0, data=[40, 127]),
   midi.NoteOnEvent(tick=30, channel=0, data=[40, 0]),
   midi.NoteOnEvent(tick=0, channel=0, data=[40, 127]),
   midi.ControlChangeEvent(tick=22, channel=0, data=[7, 29]),
   midi.NoteOnEvent(tick=8, channel=0, data=[40, 0]),
   midi.NoteOnEvent(tick=0, channel=0, data=[40, 127]),
   midi.NoteOnEvent(tick=30, channel=0, data=[40, 0]),
   midi.NoteOnEvent(tick=0, channel=0, data=[40, 127]),
   midi.ControlChangeEvent(tick=20, channel=0, data=[7, 28]),
   midi.NoteOnEvent(tick=10, channel=0, data=[40, 0]),
   midi.NoteOnEvent(tick=0, channel=0, data=[59, 127]),
   midi.NoteOnEvent(tick=0, channel=0, data=[52, 127]),
   midi.NoteOnEvent(tick=0, channel=0, data=[47, 127]),
   midi.ControlChangeEvent(tick=48, channel=0, data=[7, 27]),
   midi.NoteOnEvent(tick=12, channel=0, data=[59, 0]),
   midi.NoteOnEvent(tick=0, channel=0, data=[52, 0]),
   midi.NoteOnEvent(tick=0, channel=0, data=[47, 0]),
   midi.NoteOnEvent(tick=0, channel=0, data=[40, 127]),
   midi.NoteOnEvent(tick=30, channel=0, data=[40, 0]),
   midi.NoteOnEvent(tick=0, channel=0, data=[40, 127]),
   midi.ControlChangeEvent(tick=17, channel=0, data=[7, 26]),
   midi.NoteOnEvent(tick=13, channel=0, data=[40, 0]),
   midi.NoteOnEvent(tick=0, channel=0, data=[40, 127]),
   midi.NoteOnEvent(tick=30, channel=0, data=[40, 0]),
   midi.NoteOnEvent(tick=0, channel=0, data=[40, 127]),
   midi.ControlChangeEvent(tick=15, channel=0, data=[7, 25]),
   midi.NoteOnEvent(tick=15, channel=0, data=[40, 0]),
   midi.NoteOnEvent(tick=0, channel=0, data=[57, 127]),
   midi.NoteOnEvent(tick=0, channel=0, data=[52, 127]),
   midi.NoteOnEvent(tick=0, channel=0, data=[45, 127]),
   midi.ControlChangeEvent(tick=43, channel=0, data=[7, 24]),
   midi.NoteOnEvent(tick=17, channel=0, data=[57, 0]),
   midi.NoteOnEvent(tick=0, channel=0, data=[52, 0]),
   midi.NoteOnEvent(tick=0, channel=0, data=[45, 0]),
   midi.NoteOnEvent(tick=0, channel=0, data=[40, 127]),
   midi.NoteOnEvent(tick=30, channel=0, data=[40, 0]),
   midi.NoteOnEvent(tick=0, channel=0, data=[40, 127]),
   midi.ControlChangeEvent(tick=11, channel=0, data=[7, 23]),
   midi.NoteOnEvent(tick=19, channel=0, data=[40, 0]),
   midi.NoteOnEvent(tick=0, channel=0, data=[40, 127]),
   midi.NoteOnEvent(tick=30, channel=0, data=[40, 0]),
   midi.NoteOnEvent(tick=0, channel=0, data=[40, 127]),
   midi.ControlChangeEvent(tick=9, channel=0, data=[7, 22]),
   midi.NoteOnEvent(tick=21, channel=0, data=[40, 0]),
   midi.NoteOnEvent(tick=0, channel=0, data=[40, 127]),
   midi.ControlChangeEvent(tick=37, channel=0, data=[7, 21]),
   midi.NoteOnEvent(tick=23, channel=0, data=[40, 0]),
   midi.NoteOnEvent(tick=0, channel=0, data=[40, 127]),
   midi.NoteOnEvent(tick=30, channel=0, data=[40, 0]),
   midi.NoteOnEvent(tick=0, channel=0, data=[40, 127]),
   midi.ControlChangeEvent(tick=6, channel=0, data=[7, 20]),
   midi.NoteOnEvent(tick=24, channel=0, data=[40, 0]),
   midi.NoteOnEvent(tick=0, channel=0, data=[41, 127]),
   midi.ControlChangeEvent(tick=34, channel=0, data=[7, 19]),
   midi.NoteOnEvent(tick=26, channel=0, data=[41, 0]),
   midi.NoteOnEvent(tick=0, channel=0, data=[41, 127]),
   midi.NoteOnEvent(tick=30, channel=0, data=[41, 0]),
   midi.NoteOnEvent(tick=0, channel=0, data=[41, 127]),
   midi.ControlChangeEvent(tick=2, channel=0, data=[7, 18]),
   midi.NoteOnEvent(tick=28, channel=0, data=[41, 0]),
   midi.NoteOnEvent(tick=0, channel=0, data=[40, 127]),
   midi.ControlChangeEvent(tick=30, channel=0, data=[7, 17]),
   midi.NoteOnEvent(tick=30, channel=0, data=[40, 0]),
   midi.NoteOnEvent(tick=0, channel=0, data=[40, 127]),
   midi.ControlChangeEvent(tick=28, channel=0, data=[7, 16]),
   midi.NoteOnEvent(tick=32, channel=0, data=[40, 0]),
   midi.NoteOnEvent(tick=0, channel=0, data=[40, 127]),
   midi.ControlChangeEvent(tick=26, channel=0, data=[7, 15]),
   midi.NoteOnEvent(tick=4, channel=0, data=[40, 0]),
   midi.NoteOnEvent(tick=0, channel=0, data=[40, 127]),
   midi.NoteOnEvent(tick=30, channel=0, data=[40, 0]),
   midi.NoteOnEvent(tick=0, channel=0, data=[57, 127]),
   midi.NoteOnEvent(tick=0, channel=0, data=[52, 127]),
   midi.NoteOnEvent(tick=0, channel=0, data=[45, 127]),
   midi.ControlChangeEvent(tick=25, channel=0, data=[7, 14]),
   midi.NoteOnEvent(tick=35, channel=0, data=[57, 0]),
   midi.NoteOnEvent(tick=0, channel=0, data=[52, 0]),
   midi.NoteOnEvent(tick=0, channel=0, data=[45, 0]),
   midi.NoteOnEvent(tick=0, channel=0, data=[40, 127]),
   midi.ControlChangeEvent(tick=23, channel=0, data=[7, 13]),
   midi.NoteOnEvent(tick=7, channel=0, data=[40, 0]),
   midi.NoteOnEvent(tick=0, channel=0, data=[40, 127]),
   midi.NoteOnEvent(tick=30, channel=0, data=[40, 0]),
   midi.NoteOnEvent(tick=0, channel=0, data=[40, 127]),
   midi.ControlChangeEvent(tick=21, channel=0, data=[7, 12]),
   midi.NoteOnEvent(tick=9, channel=0, data=[40, 0]),
   midi.NoteOnEvent(tick=0, channel=0, data=[40, 127]),
   midi.NoteOnEvent(tick=30, channel=0, data=[40, 0]),
   midi.NoteOnEvent(tick=0, channel=0, data=[59, 127]),
   midi.NoteOnEvent(tick=0, channel=0, data=[52, 127]),
   midi.NoteOnEvent(tick=0, channel=0, data=[47, 127]),
   midi.ControlChangeEvent(tick=19, channel=0, data=[7, 11]),
   midi.NoteOnEvent(tick=41, channel=0, data=[59, 0]),
   midi.NoteOnEvent(tick=0, channel=0, data=[52, 0]),
   midi.NoteOnEvent(tick=0, channel=0, data=[47, 0]),
   midi.NoteOnEvent(tick=0, channel=0, data=[40, 127]),
   midi.ControlChangeEvent(tick=17, channel=0, data=[7, 10]),
   midi.NoteOnEvent(tick=13, channel=0, data=[40, 0]),
   midi.NoteOnEvent(tick=0, channel=0, data=[40, 127]),
   midi.NoteOnEvent(tick=30, channel=0, data=[40, 0]),
   midi.NoteOnEvent(tick=0, channel=0, data=[40, 127]),
   midi.ControlChangeEvent(tick=15, channel=0, data=[7, 9]),
   midi.NoteOnEvent(tick=15, channel=0, data=[40, 0]),
   midi.NoteOnEvent(tick=0, channel=0, data=[40, 127]),
   midi.NoteOnEvent(tick=30, channel=0, data=[40, 0]),
   midi.NoteOnEvent(tick=0, channel=0, data=[60, 127]),
   midi.NoteOnEvent(tick=0, channel=0, data=[55, 127]),
   midi.NoteOnEvent(tick=0, channel=0, data=[48, 127]),
   midi.ControlChangeEvent(tick=14, channel=0, data=[7, 8]),
   midi.NoteOnEvent(tick=46, channel=0, data=[60, 0]),
   midi.NoteOnEvent(tick=0, channel=0, data=[55, 0]),
   midi.NoteOnEvent(tick=0, channel=0, data=[48, 0]),
   midi.NoteOnEvent(tick=0, channel=0, data=[40, 127]),
   midi.ControlChangeEvent(tick=12, channel=0, data=[7, 7]),
   midi.NoteOnEvent(tick=18, channel=0, data=[40, 0]),
   midi.NoteOnEvent(tick=0, channel=0, data=[40, 127]),
   midi.NoteOnEvent(tick=30, channel=0, data=[40, 0]),
   midi.NoteOnEvent(tick=0, channel=0, data=[40, 127]),
   midi.ControlChangeEvent(tick=10, channel=0, data=[7, 6]),
   midi.NoteOnEvent(tick=20, channel=0, data=[40, 0]),
   midi.NoteOnEvent(tick=0, channel=0, data=[40, 127]),
   midi.NoteOnEvent(tick=30, channel=0, data=[40, 0]),
   midi.NoteOnEvent(tick=0, channel=0, data=[40, 127]),
   midi.ControlChangeEvent(tick=8, channel=0, data=[7, 5]),
   midi.NoteOnEvent(tick=52, channel=0, data=[40, 0]),
   midi.NoteOnEvent(tick=0, channel=0, data=[40, 127]),
   midi.ControlChangeEvent(tick=6, channel=0, data=[7, 4]),
   midi.NoteOnEvent(tick=24, channel=0, data=[40, 0]),
   midi.NoteOnEvent(tick=0, channel=0, data=[40, 127]),
   midi.NoteOnEvent(tick=30, channel=0, data=[40, 0]),
   midi.NoteOnEvent(tick=0, channel=0, data=[41, 127]),
   midi.ControlChangeEvent(tick=4, channel=0, data=[7, 3]),
   midi.NoteOnEvent(tick=56, channel=0, data=[41, 0]),
   midi.NoteOnEvent(tick=0, channel=0, data=[41, 127]),
   midi.ControlChangeEvent(tick=3, channel=0, data=[7, 2]),
   midi.NoteOnEvent(tick=27, channel=0, data=[41, 0]),
   midi.NoteOnEvent(tick=0, channel=0, data=[41, 127]),
   midi.NoteOnEvent(tick=30, channel=0, data=[41, 0]),
   midi.NoteOnEvent(tick=0, channel=0, data=[40, 127]),
   midi.ControlChangeEvent(tick=1, channel=0, data=[7, 1]),
   midi.ControlChangeEvent(tick=58, channel=0, data=[7, 0]),
   midi.NoteOnEvent(tick=1, channel=0, data=[40, 0]),
   midi.EndOfTrackEvent(tick=0, data=[])]),
 midi.Track(\
  [midi.PortEvent(tick=0, data=[0]),
   midi.TrackNameEvent(tick=0, text='Guitar 2', data=[71, 117, 105, 116, 97, 114, 32, 50]),
   midi.ControlChangeEvent(tick=0, channel=1, data=[7, 30]),
   midi.ProgramChangeEvent(tick=0, channel=1, data=[27]),
   midi.ProgramChangeEvent(tick=0, channel=1, data=[27]),
   midi.ControlChangeEvent(tick=195, channel=1, data=[7, 31]),
   midi.ControlChangeEvent(tick=195, channel=1, data=[7, 32]),
   midi.ControlChangeEvent(tick=194, channel=1, data=[7, 33]),
   midi.ControlChangeEvent(tick=195, channel=1, data=[7, 34]),
   midi.ControlChangeEvent(tick=195, channel=1, data=[7, 35]),
   midi.ControlChangeEvent(tick=195, channel=1, data=[7, 36]),
   midi.ControlChangeEvent(tick=194, channel=1, data=[7, 37]),
   midi.ControlChangeEvent(tick=195, channel=1, data=[7, 38]),
   midi.ControlChangeEvent(tick=195, channel=1, data=[7, 39]),
   midi.ControlChangeEvent(tick=195, channel=1, data=[7, 40]),
   midi.ControlChangeEvent(tick=195, channel=1, data=[7, 41]),
   midi.ControlChangeEvent(tick=194, channel=1, data=[7, 42]),
   midi.ControlChangeEvent(tick=195, channel=1, data=[7, 43]),
   midi.ControlChangeEvent(tick=195, channel=1, data=[7, 44]),
   midi.ControlChangeEvent(tick=195, channel=1, data=[7, 45]),
   midi.ControlChangeEvent(tick=195, channel=1, data=[7, 46]),
   midi.ControlChangeEvent(tick=194, channel=1, data=[7, 47]),
   midi.ControlChangeEvent(tick=195, channel=1, data=[7, 48]),
   midi.ControlChangeEvent(tick=195, channel=1, data=[7, 49]),
   midi.ControlChangeEvent(tick=195, channel=1, data=[7, 50]),
   midi.ControlChangeEvent(tick=194, channel=1, data=[7, 51]),
   midi.ControlChangeEvent(tick=195, channel=1, data=[7, 52]),
   midi.ControlChangeEvent(tick=195, channel=1, data=[7, 53]),
   midi.ControlChangeEvent(tick=195, channel=1, data=[7, 54]),
   midi.ControlChangeEvent(tick=195, channel=1, data=[7, 55]),
   midi.ControlChangeEvent(tick=194, channel=1, data=[7, 56]),
   midi.ControlChangeEvent(tick=195, channel=1, data=[7, 57]),
   midi.ControlChangeEvent(tick=195, channel=1, data=[7, 58]),
   midi.ControlChangeEvent(tick=195, channel=1, data=[7, 59]),
   midi.ControlChangeEvent(tick=194, channel=1, data=[7, 60]),
   midi.ControlChangeEvent(tick=195, channel=1, data=[7, 61]),
   midi.ControlChangeEvent(tick=195, channel=1, data=[7, 62]),
   midi.ControlChangeEvent(tick=195, channel=1, data=[7, 63]),
   midi.ControlChangeEvent(tick=195, channel=1, data=[7, 64]),
   midi.ControlChangeEvent(tick=194, channel=1, data=[7, 65]),
   midi.ControlChangeEvent(tick=195, channel=1, data=[7, 66]),
   midi.ControlChangeEvent(tick=195, channel=1, data=[7, 67]),
   midi.ControlChangeEvent(tick=195, channel=1, data=[7, 68]),
   midi.ControlChangeEvent(tick=195, channel=1, data=[7, 69]),
   midi.ControlChangeEvent(tick=194, channel=1, data=[7, 70]),
   midi.ControlChangeEvent(tick=195, channel=1, data=[7, 71]),
   midi.ControlChangeEvent(tick=195, channel=1, data=[7, 72]),
   midi.ControlChangeEvent(tick=195, channel=1, data=[7, 73]),
   midi.ControlChangeEvent(tick=194, channel=1, data=[7, 74]),
   midi.ControlChangeEvent(tick=195, channel=1, data=[7, 75]),
   midi.ControlChangeEvent(tick=195, channel=1, data=[7, 76]),
   midi.ControlChangeEvent(tick=195, channel=1, data=[7, 77]),
   midi.ControlChangeEvent(tick=195, channel=1, data=[7, 78]),
   midi.ControlChangeEvent(tick=194, channel=1, data=[7, 79]),
   midi.ControlChangeEvent(tick=195, channel=1, data=[7, 80]),
   midi.ControlChangeEvent(tick=195, channel=1, data=[7, 81]),
   midi.ControlChangeEvent(tick=195, channel=1, data=[7, 82]),
   midi.ControlChangeEvent(tick=194, channel=1, data=[7, 83]),
   midi.ControlChangeEvent(tick=195, channel=1, data=[7, 84]),
   midi.ControlChangeEvent(tick=195, channel=1, data=[7, 85]),
   midi.ControlChangeEvent(tick=195, channel=1, data=[7, 86]),
   midi.ControlChangeEvent(tick=195, channel=1, data=[7, 87]),
   midi.ControlChangeEvent(tick=194, channel=1, data=[7, 88]),
   midi.ControlChangeEvent(tick=195, channel=1, data=[7, 89]),
   midi.ControlChangeEvent(tick=195, channel=1, data=[7, 90]),
   midi.ControlChangeEvent(tick=195, channel=1, data=[7, 91]),
   midi.ControlChangeEvent(tick=195, channel=1, data=[7, 92]),
   midi.ControlChangeEvent(tick=194, channel=1, data=[7, 93]),
   midi.ControlChangeEvent(tick=195, channel=1, data=[7, 94]),
   midi.ControlChangeEvent(tick=195, channel=1, data=[7, 95]),
   midi.ControlChangeEvent(tick=195, channel=1, data=[7, 96]),
   midi.ControlChangeEvent(tick=194, channel=1, data=[7, 97]),
   midi.ControlChangeEvent(tick=195, channel=1, data=[7, 98]),
   midi.ControlChangeEvent(tick=195, channel=1, data=[7, 99]),
   midi.NoteOnEvent(tick=1920, channel=1, data=[52, 127]),
   midi.NoteOnEvent(tick=0, channel=1, data=[55, 127]),
   midi.NoteOnEvent(tick=60, channel=1, data=[52, 0]),
   midi.NoteOnEvent(tick=0, channel=1, data=[55, 0]),
   midi.NoteOnEvent(tick=0, channel=1, data=[40, 127]),
   midi.NoteOnEvent(tick=60, channel=1, data=[40, 0]),
   midi.NoteOnEvent(tick=0, channel=1, data=[40, 127]),
   midi.NoteOnEvent(tick=60, channel=1, data=[40, 0]),
   midi.NoteOnEvent(tick=0, channel=1, data=[52, 127]),
   midi.NoteOnEvent(tick=0, channel=1, data=[55, 127]),
   midi.NoteOnEvent(tick=60, channel=1, data=[52, 0]),
   midi.NoteOnEvent(tick=0, channel=1, data=[55, 0]),
   midi.NoteOnEvent(tick=0, channel=1, data=[40, 127]),
   midi.NoteOnEvent(tick=60, channel=1, data=[40, 0]),
   midi.NoteOnEvent(tick=0, channel=1, data=[40, 127]),
   midi.NoteOnEvent(tick=60, channel=1, data=[40, 0]),
   midi.NoteOnEvent(tick=0, channel=1, data=[55, 127]),
   midi.NoteOnEvent(tick=0, channel=1, data=[52, 127]),
   midi.NoteOnEvent(tick=60, channel=1, data=[55, 0]),
   midi.NoteOnEvent(tick=0, channel=1, data=[52, 0]),
   midi.NoteOnEvent(tick=0, channel=1, data=[40, 127]),
   midi.NoteOnEvent(tick=60, channel=1, data=[40, 0]),
   midi.NoteOnEvent(tick=0, channel=1, data=[54, 127]),
   midi.NoteOnEvent(tick=0, channel=1, data=[52, 127]),
   midi.NoteOnEvent(tick=60, channel=1, data=[54, 0]),
   midi.NoteOnEvent(tick=0, channel=1, data=[52, 0]),
   midi.NoteOnEvent(tick=0, channel=1, data=[40, 127]),
   midi.NoteOnEvent(tick=60, channel=1, data=[40, 0]),
   midi.NoteOnEvent(tick=0, channel=1, data=[40, 127]),
   midi.NoteOnEvent(tick=60, channel=1, data=[40, 0]),
   midi.NoteOnEvent(tick=0, channel=1, data=[55, 127]),
   midi.NoteOnEvent(tick=0, channel=1, data=[52, 127]),
   midi.NoteOnEvent(tick=60, channel=1, data=[55, 0]),
   midi.NoteOnEvent(tick=0, channel=1, data=[52, 0]),
   midi.NoteOnEvent(tick=0, channel=1, data=[40, 127]),
   midi.NoteOnEvent(tick=60, channel=1, data=[40, 0]),
   midi.NoteOnEvent(tick=0, channel=1, data=[40, 127]),
   midi.NoteOnEvent(tick=60, channel=1, data=[40, 0]),
   midi.NoteOnEvent(tick=0, channel=1, data=[55, 127]),
   midi.NoteOnEvent(tick=0, channel=1, data=[52, 127]),
   midi.NoteOnEvent(tick=60, channel=1, data=[55, 0]),
   midi.NoteOnEvent(tick=0, channel=1, data=[52, 0]),
   midi.NoteOnEvent(tick=0, channel=1, data=[40, 127]),
   midi.NoteOnEvent(tick=60, channel=1, data=[40, 0]),
   midi.NoteOnEvent(tick=0, channel=1, data=[54, 127]),
   midi.NoteOnEvent(tick=0, channel=1, data=[50, 127]),
   midi.NoteOnEvent(tick=60, channel=1, data=[54, 0]),
   midi.NoteOnEvent(tick=0, channel=1, data=[50, 0]),
   midi.NoteOnEvent(tick=0, channel=1, data=[47, 127]),
   midi.NoteOnEvent(tick=60, channel=1, data=[47, 0]),
   midi.NoteOnEvent(tick=0, channel=1, data=[47, 127]),
   midi.NoteOnEvent(tick=60, channel=1, data=[47, 0]),
   midi.NoteOnEvent(tick=0, channel=1, data=[54, 127]),
   midi.NoteOnEvent(tick=0, channel=1, data=[50, 127]),
   midi.NoteOnEvent(tick=60, channel=1, data=[54, 0]),
   midi.NoteOnEvent(tick=0, channel=1, data=[50, 0]),
   midi.NoteOnEvent(tick=0, channel=1, data=[47, 127]),
   midi.NoteOnEvent(tick=60, channel=1, data=[47, 0]),
   midi.NoteOnEvent(tick=0, channel=1, data=[47, 127]),
   midi.NoteOnEvent(tick=60, channel=1, data=[47, 0]),
   midi.NoteOnEvent(tick=0, channel=1, data=[54, 127]),
   midi.NoteOnEvent(tick=0, channel=1, data=[50, 127]),
   midi.NoteOnEvent(tick=60, channel=1, data=[54, 0]),
   midi.NoteOnEvent(tick=0, channel=1, data=[50, 0]),
   midi.NoteOnEvent(tick=0, channel=1, data=[50, 127]),
   midi.NoteOnEvent(tick=0, channel=1, data=[54, 127]),
   midi.NoteOnEvent(tick=60, channel=1, data=[50, 0]),
   midi.NoteOnEvent(tick=0, channel=1, data=[54, 0]),
   midi.NoteOnEvent(tick=0, channel=1, data=[54, 127]),
   midi.NoteOnEvent(tick=0, channel=1, data=[51, 127]),
   midi.NoteOnEvent(tick=60, channel=1, data=[54, 0]),
   midi.NoteOnEvent(tick=0, channel=1, data=[51, 0]),
   midi.NoteOnEvent(tick=0, channel=1, data=[47, 127]),
   midi.NoteOnEvent(tick=60, channel=1, data=[47, 0]),
   midi.NoteOnEvent(tick=0, channel=1, data=[47, 127]),
   midi.NoteOnEvent(tick=60, channel=1, data=[47, 0]),
   midi.NoteOnEvent(tick=0, channel=1, data=[54, 127]),
   midi.NoteOnEvent(tick=0, channel=1, data=[51, 127]),
   midi.NoteOnEvent(tick=60, channel=1, data=[54, 0]),
   midi.NoteOnEvent(tick=0, channel=1, data=[51, 0]),
   midi.NoteOnEvent(tick=0, channel=1, data=[47, 127]),
   midi.NoteOnEvent(tick=60, channel=1, data=[47, 0]),
   midi.NoteOnEvent(tick=0, channel=1, data=[47, 127]),
   midi.NoteOnEvent(tick=60, channel=1, data=[47, 0]),
   midi.NoteOnEvent(tick=0, channel=1, data=[54, 127]),
   midi.NoteOnEvent(tick=0, channel=1, data=[51, 127]),
   midi.NoteOnEvent(tick=60, channel=1, data=[54, 0]),
   midi.NoteOnEvent(tick=0, channel=1, data=[51, 0]),
   midi.NoteOnEvent(tick=0, channel=1, data=[51, 127]),
   midi.NoteOnEvent(tick=0, channel=1, data=[54, 127]),
   midi.NoteOnEvent(tick=60, channel=1, data=[51, 0]),
   midi.NoteOnEvent(tick=0, channel=1, data=[54, 0]),
   midi.NoteOnEvent(tick=0, channel=1, data=[52, 127]),
   midi.NoteOnEvent(tick=0, channel=1, data=[55, 127]),
   midi.NoteOnEvent(tick=60, channel=1, data=[52, 0]),
   midi.NoteOnEvent(tick=0, channel=1, data=[55, 0]),
   midi.NoteOnEvent(tick=0, channel=1, data=[40, 127]),
   midi.NoteOnEvent(tick=60, channel=1, data=[40, 0]),
   midi.NoteOnEvent(tick=0, channel=1, data=[40, 127]),
   midi.NoteOnEvent(tick=60, channel=1, data=[40, 0]),
   midi.NoteOnEvent(tick=0, channel=1, data=[52, 127]),
   midi.NoteOnEvent(tick=0, channel=1, data=[55, 127]),
   midi.NoteOnEvent(tick=60, channel=1, data=[52, 0]),
   midi.NoteOnEvent(tick=0, channel=1, data=[55, 0]),
   midi.NoteOnEvent(tick=0, channel=1, data=[40, 127]),
   midi.NoteOnEvent(tick=60, channel=1, data=[40, 0]),
   midi.NoteOnEvent(tick=0, channel=1, data=[40, 127]),
   midi.NoteOnEvent(tick=60, channel=1, data=[40, 0]),
   midi.NoteOnEvent(tick=0, channel=1, data=[55, 127]),
   midi.NoteOnEvent(tick=0, channel=1, data=[52, 127]),
   midi.NoteOnEvent(tick=60, channel=1, data=[55, 0]),
   midi.NoteOnEvent(tick=0, channel=1, data=[52, 0]),
   midi.NoteOnEvent(tick=0, channel=1, data=[40, 127]),
   midi.NoteOnEvent(tick=60, channel=1, data=[40, 0]),
   midi.NoteOnEvent(tick=0, channel=1, data=[54, 127]),
   midi.NoteOnEvent(tick=0, channel=1, data=[52, 127]),
   midi.NoteOnEvent(tick=60, channel=1, data=[54, 0]),
   midi.NoteOnEvent(tick=0, channel=1, data=[52, 0]),
   midi.NoteOnEvent(tick=0, channel=1, data=[40, 127]),
   midi.NoteOnEvent(tick=60, channel=1, data=[40, 0]),
   midi.NoteOnEvent(tick=0, channel=1, data=[40, 127]),
   midi.NoteOnEvent(tick=60, channel=1, data=[40, 0]),
   midi.NoteOnEvent(tick=0, channel=1, data=[55, 127]),
   midi.NoteOnEvent(tick=0, channel=1, data=[52, 127]),
   midi.NoteOnEvent(tick=60, channel=1, data=[55, 0]),
   midi.NoteOnEvent(tick=0, channel=1, data=[52, 0]),
   midi.NoteOnEvent(tick=0, channel=1, data=[40, 127]),
   midi.NoteOnEvent(tick=60, channel=1, data=[40, 0]),
   midi.NoteOnEvent(tick=0, channel=1, data=[40, 127]),
   midi.NoteOnEvent(tick=60, channel=1, data=[40, 0]),
   midi.NoteOnEvent(tick=0, channel=1, data=[55, 127]),
   midi.NoteOnEvent(tick=0, channel=1, data=[52, 127]),
   midi.NoteOnEvent(tick=60, channel=1, data=[55, 0]),
   midi.NoteOnEvent(tick=0, channel=1, data=[52, 0]),
   midi.NoteOnEvent(tick=0, channel=1, data=[40, 127]),
   midi.NoteOnEvent(tick=60, channel=1, data=[40, 0]),
   midi.NoteOnEvent(tick=0, channel=1, data=[54, 127]),
   midi.NoteOnEvent(tick=0, channel=1, data=[50, 127]),
   midi.NoteOnEvent(tick=60, channel=1, data=[54, 0]),
   midi.NoteOnEvent(tick=0, channel=1, data=[50, 0]),
   midi.NoteOnEvent(tick=0, channel=1, data=[47, 127]),
   midi.NoteOnEvent(tick=60, channel=1, data=[47, 0]),
   midi.NoteOnEvent(tick=0, channel=1, data=[47, 127]),
   midi.NoteOnEvent(tick=60, channel=1, data=[47, 0]),
   midi.NoteOnEvent(tick=0, channel=1, data=[54, 127]),
   midi.NoteOnEvent(tick=0, channel=1, data=[50, 127]),
   midi.NoteOnEvent(tick=60, channel=1, data=[54, 0]),
   midi.NoteOnEvent(tick=0, channel=1, data=[50, 0]),
   midi.NoteOnEvent(tick=0, channel=1, data=[47, 127]),
   midi.NoteOnEvent(tick=60, channel=1, data=[47, 0]),
   midi.NoteOnEvent(tick=0, channel=1, data=[47, 127]),
   midi.NoteOnEvent(tick=60, channel=1, data=[47, 0]),
   midi.NoteOnEvent(tick=0, channel=1, data=[54, 127]),
   midi.NoteOnEvent(tick=0, channel=1, data=[50, 127]),
   midi.NoteOnEvent(tick=60, channel=1, data=[54, 0]),
   midi.NoteOnEvent(tick=0, channel=1, data=[50, 0]),
   midi.NoteOnEvent(tick=0, channel=1, data=[50, 127]),
   midi.NoteOnEvent(tick=0, channel=1, data=[54, 127]),
   midi.NoteOnEvent(tick=60, channel=1, data=[50, 0]),
   midi.NoteOnEvent(tick=0, channel=1, data=[54, 0]),
   midi.NoteOnEvent(tick=0, channel=1, data=[54, 127]),
   midi.NoteOnEvent(tick=0, channel=1, data=[51, 127]),
   midi.NoteOnEvent(tick=60, channel=1, data=[54, 0]),
   midi.NoteOnEvent(tick=0, channel=1, data=[51, 0]),
   midi.NoteOnEvent(tick=0, channel=1, data=[47, 127]),
   midi.NoteOnEvent(tick=60, channel=1, data=[47, 0]),
   midi.NoteOnEvent(tick=0, channel=1, data=[47, 127]),
   midi.NoteOnEvent(tick=60, channel=1, data=[47, 0]),
   midi.NoteOnEvent(tick=0, channel=1, data=[54, 127]),
   midi.NoteOnEvent(tick=0, channel=1, data=[51, 127]),
   midi.NoteOnEvent(tick=60, channel=1, data=[54, 0]),
   midi.NoteOnEvent(tick=0, channel=1, data=[51, 0]),
   midi.NoteOnEvent(tick=0, channel=1, data=[47, 127]),
   midi.NoteOnEvent(tick=60, channel=1, data=[47, 0]),
   midi.NoteOnEvent(tick=0, channel=1, data=[47, 127]),
   midi.NoteOnEvent(tick=60, channel=1, data=[47, 0]),
   midi.NoteOnEvent(tick=0, channel=1, data=[54, 127]),
   midi.NoteOnEvent(tick=0, channel=1, data=[51, 127]),
   midi.NoteOnEvent(tick=60, channel=1, data=[54, 0]),
   midi.NoteOnEvent(tick=0, channel=1, data=[51, 0]),
   midi.NoteOnEvent(tick=0, channel=1, data=[51, 127]),
   midi.NoteOnEvent(tick=0, channel=1, data=[54, 127]),
   midi.NoteOnEvent(tick=60, channel=1, data=[51, 0]),
   midi.NoteOnEvent(tick=0, channel=1, data=[54, 0]),
   midi.NoteOnEvent(tick=0, channel=1, data=[52, 127]),
   midi.NoteOnEvent(tick=0, channel=1, data=[55, 127]),
   midi.NoteOnEvent(tick=60, channel=1, data=[52, 0]),
   midi.NoteOnEvent(tick=0, channel=1, data=[55, 0]),
   midi.NoteOnEvent(tick=0, channel=1, data=[40, 127]),
   midi.NoteOnEvent(tick=60, channel=1, data=[40, 0]),
   midi.NoteOnEvent(tick=0, channel=1, data=[40, 127]),
   midi.NoteOnEvent(tick=60, channel=1, data=[40, 0]),
   midi.NoteOnEvent(tick=0, channel=1, data=[52, 127]),
   midi.NoteOnEvent(tick=0, channel=1, data=[55, 127]),
   midi.NoteOnEvent(tick=60, channel=1, data=[52, 0]),
   midi.NoteOnEvent(tick=0, channel=1, data=[55, 0]),
   midi.NoteOnEvent(tick=0, channel=1, data=[40, 127]),
   midi.NoteOnEvent(tick=60, channel=1, data=[40, 0]),
   midi.NoteOnEvent(tick=0, channel=1, data=[40, 127]),
   midi.NoteOnEvent(tick=60, channel=1, data=[40, 0]),
   midi.NoteOnEvent(tick=0, channel=1, data=[55, 127]),
   midi.NoteOnEvent(tick=0, channel=1, data=[52, 127]),
   midi.NoteOnEvent(tick=60, channel=1, data=[55, 0]),
   midi.NoteOnEvent(tick=0, channel=1, data=[52, 0]),
   midi.NoteOnEvent(tick=0, channel=1, data=[40, 127]),
   midi.NoteOnEvent(tick=60, channel=1, data=[40, 0]),
   midi.NoteOnEvent(tick=0, channel=1, data=[54, 127]),
   midi.NoteOnEvent(tick=0, channel=1, data=[52, 127]),
   midi.NoteOnEvent(tick=60, channel=1, data=[54, 0]),
   midi.NoteOnEvent(tick=0, channel=1, data=[52, 0]),
   midi.NoteOnEvent(tick=0, channel=1, data=[40, 127]),
   midi.NoteOnEvent(tick=60, channel=1, data=[40, 0]),
   midi.NoteOnEvent(tick=0, channel=1, data=[40, 127]),
   midi.NoteOnEvent(tick=60, channel=1, data=[40, 0]),
   midi.NoteOnEvent(tick=0, channel=1, data=[55, 127]),
   midi.NoteOnEvent(tick=0, channel=1, data=[52, 127]),
   midi.NoteOnEvent(tick=60, channel=1, data=[55, 0]),
   midi.NoteOnEvent(tick=0, channel=1, data=[52, 0]),
   midi.NoteOnEvent(tick=0, channel=1, data=[40, 127]),
   midi.NoteOnEvent(tick=60, channel=1, data=[40, 0]),
   midi.NoteOnEvent(tick=0, channel=1, data=[40, 127]),
   midi.NoteOnEvent(tick=60, channel=1, data=[40, 0]),
   midi.NoteOnEvent(tick=0, channel=1, data=[55, 127]),
   midi.NoteOnEvent(tick=0, channel=1, data=[52, 127]),
   midi.NoteOnEvent(tick=60, channel=1, data=[55, 0]),
   midi.NoteOnEvent(tick=0, channel=1, data=[52, 0]),
   midi.NoteOnEvent(tick=0, channel=1, data=[40, 127]),
   midi.NoteOnEvent(tick=60, channel=1, data=[40, 0]),
   midi.NoteOnEvent(tick=0, channel=1, data=[54, 127]),
   midi.NoteOnEvent(tick=0, channel=1, data=[50, 127]),
   midi.NoteOnEvent(tick=60, channel=1, data=[54, 0]),
   midi.NoteOnEvent(tick=0, channel=1, data=[50, 0]),
   midi.NoteOnEvent(tick=0, channel=1, data=[47, 127]),
   midi.NoteOnEvent(tick=60, channel=1, data=[47, 0]),
   midi.NoteOnEvent(tick=0, channel=1, data=[47, 127]),
   midi.NoteOnEvent(tick=60, channel=1, data=[47, 0]),
   midi.NoteOnEvent(tick=0, channel=1, data=[54, 127]),
   midi.NoteOnEvent(tick=0, channel=1, data=[50, 127]),
   midi.NoteOnEvent(tick=60, channel=1, data=[54, 0]),
   midi.NoteOnEvent(tick=0, channel=1, data=[50, 0]),
   midi.NoteOnEvent(tick=0, channel=1, data=[47, 127]),
   midi.NoteOnEvent(tick=60, channel=1, data=[47, 0]),
   midi.NoteOnEvent(tick=0, channel=1, data=[47, 127]),
   midi.NoteOnEvent(tick=60, channel=1, data=[47, 0]),
   midi.NoteOnEvent(tick=0, channel=1, data=[54, 127]),
   midi.NoteOnEvent(tick=0, channel=1, data=[50, 127]),
   midi.NoteOnEvent(tick=60, channel=1, data=[54, 0]),
   midi.NoteOnEvent(tick=0, channel=1, data=[50, 0]),
   midi.NoteOnEvent(tick=0, channel=1, data=[50, 127]),
   midi.NoteOnEvent(tick=0, channel=1, data=[54, 127]),
   midi.NoteOnEvent(tick=60, channel=1, data=[50, 0]),
   midi.NoteOnEvent(tick=0, channel=1, data=[54, 0]),
   midi.NoteOnEvent(tick=0, channel=1, data=[54, 127]),
   midi.NoteOnEvent(tick=0, channel=1, data=[51, 127]),
   midi.NoteOnEvent(tick=60, channel=1, data=[54, 0]),
   midi.NoteOnEvent(tick=0, channel=1, data=[51, 0]),
   midi.NoteOnEvent(tick=0, channel=1, data=[47, 127]),
   midi.NoteOnEvent(tick=60, channel=1, data=[47, 0]),
   midi.NoteOnEvent(tick=0, channel=1, data=[47, 127]),
   midi.NoteOnEvent(tick=60, channel=1, data=[47, 0]),
   midi.NoteOnEvent(tick=0, channel=1, data=[54, 127]),
   midi.NoteOnEvent(tick=0, channel=1, data=[51, 127]),
   midi.NoteOnEvent(tick=60, channel=1, data=[54, 0]),
   midi.NoteOnEvent(tick=0, channel=1, data=[51, 0]),
   midi.NoteOnEvent(tick=0, channel=1, data=[47, 127]),
   midi.NoteOnEvent(tick=60, channel=1, data=[47, 0]),
   midi.NoteOnEvent(tick=0, channel=1, data=[47, 127]),
   midi.NoteOnEvent(tick=60, channel=1, data=[47, 0]),
   midi.NoteOnEvent(tick=0, channel=1, data=[54, 127]),
   midi.NoteOnEvent(tick=0, channel=1, data=[51, 127]),
   midi.NoteOnEvent(tick=60, channel=1, data=[54, 0]),
   midi.NoteOnEvent(tick=0, channel=1, data=[51, 0]),
   midi.NoteOnEvent(tick=0, channel=1, data=[51, 127]),
   midi.NoteOnEvent(tick=0, channel=1, data=[54, 127]),
   midi.NoteOnEvent(tick=60, channel=1, data=[51, 0]),
   midi.NoteOnEvent(tick=0, channel=1, data=[54, 0]),
   midi.NoteOnEvent(tick=0, channel=1, data=[52, 127]),
   midi.NoteOnEvent(tick=0, channel=1, data=[55, 127]),
   midi.NoteOnEvent(tick=60, channel=1, data=[52, 0]),
   midi.NoteOnEvent(tick=0, channel=1, data=[55, 0]),
   midi.NoteOnEvent(tick=0, channel=1, data=[40, 127]),
   midi.NoteOnEvent(tick=60, channel=1, data=[40, 0]),
   midi.NoteOnEvent(tick=0, channel=1, data=[40, 127]),
   midi.NoteOnEvent(tick=60, channel=1, data=[40, 0]),
   midi.NoteOnEvent(tick=0, channel=1, data=[52, 127]),
   midi.NoteOnEvent(tick=0, channel=1, data=[55, 127]),
   midi.NoteOnEvent(tick=60, channel=1, data=[52, 0]),
   midi.NoteOnEvent(tick=0, channel=1, data=[55, 0]),
   midi.NoteOnEvent(tick=0, channel=1, data=[40, 127]),
   midi.NoteOnEvent(tick=60, channel=1, data=[40, 0]),
   midi.NoteOnEvent(tick=0, channel=1, data=[40, 127]),
   midi.NoteOnEvent(tick=60, channel=1, data=[40, 0]),
   midi.NoteOnEvent(tick=0, channel=1, data=[55, 127]),
   midi.NoteOnEvent(tick=0, channel=1, data=[52, 127]),
   midi.NoteOnEvent(tick=60, channel=1, data=[55, 0]),
   midi.NoteOnEvent(tick=0, channel=1, data=[52, 0]),
   midi.NoteOnEvent(tick=0, channel=1, data=[40, 127]),
   midi.NoteOnEvent(tick=60, channel=1, data=[40, 0]),
   midi.NoteOnEvent(tick=0, channel=1, data=[54, 127]),
   midi.NoteOnEvent(tick=0, channel=1, data=[52, 127]),
   midi.NoteOnEvent(tick=60, channel=1, data=[54, 0]),
   midi.NoteOnEvent(tick=0, channel=1, data=[52, 0]),
   midi.NoteOnEvent(tick=0, channel=1, data=[40, 127]),
   midi.NoteOnEvent(tick=60, channel=1, data=[40, 0]),
   midi.NoteOnEvent(tick=0, channel=1, data=[40, 127]),
   midi.NoteOnEvent(tick=60, channel=1, data=[40, 0]),
   midi.NoteOnEvent(tick=0, channel=1, data=[55, 127]),
   midi.NoteOnEvent(tick=0, channel=1, data=[52, 127]),
   midi.NoteOnEvent(tick=60, channel=1, data=[55, 0]),
   midi.NoteOnEvent(tick=0, channel=1, data=[52, 0]),
   midi.NoteOnEvent(tick=0, channel=1, data=[40, 127]),
   midi.NoteOnEvent(tick=60, channel=1, data=[40, 0]),
   midi.NoteOnEvent(tick=0, channel=1, data=[40, 127]),
   midi.NoteOnEvent(tick=60, channel=1, data=[40, 0]),
   midi.NoteOnEvent(tick=0, channel=1, data=[55, 127]),
   midi.NoteOnEvent(tick=0, channel=1, data=[52, 127]),
   midi.NoteOnEvent(tick=60, channel=1, data=[55, 0]),
   midi.NoteOnEvent(tick=0, channel=1, data=[52, 0]),
   midi.NoteOnEvent(tick=0, channel=1, data=[40, 127]),
   midi.NoteOnEvent(tick=60, channel=1, data=[40, 0]),
   midi.NoteOnEvent(tick=0, channel=1, data=[54, 127]),
   midi.NoteOnEvent(tick=0, channel=1, data=[50, 127]),
   midi.NoteOnEvent(tick=60, channel=1, data=[54, 0]),
   midi.NoteOnEvent(tick=0, channel=1, data=[50, 0]),
   midi.NoteOnEvent(tick=0, channel=1, data=[47, 127]),
   midi.NoteOnEvent(tick=60, channel=1, data=[47, 0]),
   midi.NoteOnEvent(tick=0, channel=1, data=[47, 127]),
   midi.NoteOnEvent(tick=60, channel=1, data=[47, 0]),
   midi.NoteOnEvent(tick=0, channel=1, data=[54, 127]),
   midi.NoteOnEvent(tick=0, channel=1, data=[50, 127]),
   midi.NoteOnEvent(tick=60, channel=1, data=[54, 0]),
   midi.NoteOnEvent(tick=0, channel=1, data=[50, 0]),
   midi.NoteOnEvent(tick=0, channel=1, data=[47, 127]),
   midi.NoteOnEvent(tick=60, channel=1, data=[47, 0]),
   midi.NoteOnEvent(tick=0, channel=1, data=[47, 127]),
   midi.NoteOnEvent(tick=60, channel=1, data=[47, 0]),
   midi.NoteOnEvent(tick=0, channel=1, data=[54, 127]),
   midi.NoteOnEvent(tick=0, channel=1, data=[50, 127]),
   midi.NoteOnEvent(tick=60, channel=1, data=[54, 0]),
   midi.NoteOnEvent(tick=0, channel=1, data=[50, 0]),
   midi.NoteOnEvent(tick=0, channel=1, data=[50, 127]),
   midi.NoteOnEvent(tick=0, channel=1, data=[54, 127]),
   midi.NoteOnEvent(tick=60, channel=1, data=[50, 0]),
   midi.NoteOnEvent(tick=0, channel=1, data=[54, 0]),
   midi.NoteOnEvent(tick=0, channel=1, data=[54, 127]),
   midi.NoteOnEvent(tick=0, channel=1, data=[51, 127]),
   midi.NoteOnEvent(tick=60, channel=1, data=[54, 0]),
   midi.NoteOnEvent(tick=0, channel=1, data=[51, 0]),
   midi.NoteOnEvent(tick=0, channel=1, data=[47, 127]),
   midi.NoteOnEvent(tick=60, channel=1, data=[47, 0]),
   midi.NoteOnEvent(tick=0, channel=1, data=[47, 127]),
   midi.NoteOnEvent(tick=60, channel=1, data=[47, 0]),
   midi.NoteOnEvent(tick=0, channel=1, data=[54, 127]),
   midi.NoteOnEvent(tick=0, channel=1, data=[51, 127]),
   midi.NoteOnEvent(tick=60, channel=1, data=[54, 0]),
   midi.NoteOnEvent(tick=0, channel=1, data=[51, 0]),
   midi.NoteOnEvent(tick=0, channel=1, data=[47, 127]),
   midi.NoteOnEvent(tick=60, channel=1, data=[47, 0]),
   midi.NoteOnEvent(tick=0, channel=1, data=[47, 127]),
   midi.NoteOnEvent(tick=60, channel=1, data=[47, 0]),
   midi.NoteOnEvent(tick=0, channel=1, data=[54, 127]),
   midi.NoteOnEvent(tick=0, channel=1, data=[51, 127]),
   midi.NoteOnEvent(tick=60, channel=1, data=[54, 0]),
   midi.NoteOnEvent(tick=0, channel=1, data=[51, 0]),
   midi.NoteOnEvent(tick=0, channel=1, data=[51, 127]),
   midi.NoteOnEvent(tick=0, channel=1, data=[54, 127]),
   midi.NoteOnEvent(tick=60, channel=1, data=[51, 0]),
   midi.NoteOnEvent(tick=0, channel=1, data=[54, 0]),
   midi.NoteOnEvent(tick=0, channel=1, data=[52, 127]),
   midi.NoteOnEvent(tick=0, channel=1, data=[55, 127]),
   midi.NoteOnEvent(tick=60, channel=1, data=[52, 0]),
   midi.NoteOnEvent(tick=0, channel=1, data=[55, 0]),
   midi.NoteOnEvent(tick=0, channel=1, data=[40, 127]),
   midi.NoteOnEvent(tick=60, channel=1, data=[40, 0]),
   midi.NoteOnEvent(tick=0, channel=1, data=[40, 127]),
   midi.NoteOnEvent(tick=60, channel=1, data=[40, 0]),
   midi.NoteOnEvent(tick=0, channel=1, data=[52, 127]),
   midi.NoteOnEvent(tick=0, channel=1, data=[55, 127]),
   midi.NoteOnEvent(tick=60, channel=1, data=[52, 0]),
   midi.NoteOnEvent(tick=0, channel=1, data=[55, 0]),
   midi.NoteOnEvent(tick=0, channel=1, data=[40, 127]),
   midi.NoteOnEvent(tick=60, channel=1, data=[40, 0]),
   midi.NoteOnEvent(tick=0, channel=1, data=[40, 127]),
   midi.NoteOnEvent(tick=60, channel=1, data=[40, 0]),
   midi.NoteOnEvent(tick=0, channel=1, data=[55, 127]),
   midi.NoteOnEvent(tick=0, channel=1, data=[52, 127]),
   midi.NoteOnEvent(tick=60, channel=1, data=[55, 0]),
   midi.NoteOnEvent(tick=0, channel=1, data=[52, 0]),
   midi.NoteOnEvent(tick=0, channel=1, data=[40, 127]),
   midi.NoteOnEvent(tick=60, channel=1, data=[40, 0]),
   midi.NoteOnEvent(tick=0, channel=1, data=[54, 127]),
   midi.NoteOnEvent(tick=0, channel=1, data=[52, 127]),
   midi.NoteOnEvent(tick=60, channel=1, data=[54, 0]),
   midi.NoteOnEvent(tick=0, channel=1, data=[52, 0]),
   midi.NoteOnEvent(tick=0, channel=1, data=[40, 127]),
   midi.NoteOnEvent(tick=60, channel=1, data=[40, 0]),
   midi.NoteOnEvent(tick=0, channel=1, data=[40, 127]),
   midi.NoteOnEvent(tick=60, channel=1, data=[40, 0]),
   midi.NoteOnEvent(tick=0, channel=1, data=[55, 127]),
   midi.NoteOnEvent(tick=0, channel=1, data=[52, 127]),
   midi.NoteOnEvent(tick=60, channel=1, data=[55, 0]),
   midi.NoteOnEvent(tick=0, channel=1, data=[52, 0]),
   midi.NoteOnEvent(tick=0, channel=1, data=[40, 127]),
   midi.NoteOnEvent(tick=60, channel=1, data=[40, 0]),
   midi.NoteOnEvent(tick=0, channel=1, data=[40, 127]),
   midi.NoteOnEvent(tick=60, channel=1, data=[40, 0]),
   midi.NoteOnEvent(tick=0, channel=1, data=[55, 127]),
   midi.NoteOnEvent(tick=0, channel=1, data=[52, 127]),
   midi.NoteOnEvent(tick=60, channel=1, data=[55, 0]),
   midi.NoteOnEvent(tick=0, channel=1, data=[52, 0]),
   midi.NoteOnEvent(tick=0, channel=1, data=[40, 127]),
   midi.NoteOnEvent(tick=60, channel=1, data=[40, 0]),
   midi.NoteOnEvent(tick=0, channel=1, data=[54, 127]),
   midi.NoteOnEvent(tick=0, channel=1, data=[50, 127]),
   midi.NoteOnEvent(tick=60, channel=1, data=[54, 0]),
   midi.NoteOnEvent(tick=0, channel=1, data=[50, 0]),
   midi.NoteOnEvent(tick=0, channel=1, data=[47, 127]),
   midi.NoteOnEvent(tick=60, channel=1, data=[47, 0]),
   midi.NoteOnEvent(tick=0, channel=1, data=[47, 127]),
   midi.NoteOnEvent(tick=60, channel=1, data=[47, 0]),
   midi.NoteOnEvent(tick=0, channel=1, data=[54, 127]),
   midi.NoteOnEvent(tick=0, channel=1, data=[50, 127]),
   midi.NoteOnEvent(tick=60, channel=1, data=[54, 0]),
   midi.NoteOnEvent(tick=0, channel=1, data=[50, 0]),
   midi.NoteOnEvent(tick=0, channel=1, data=[47, 127]),
   midi.NoteOnEvent(tick=60, channel=1, data=[47, 0]),
   midi.NoteOnEvent(tick=0, channel=1, data=[47, 127]),
   midi.NoteOnEvent(tick=60, channel=1, data=[47, 0]),
   midi.NoteOnEvent(tick=0, channel=1, data=[54, 127]),
   midi.NoteOnEvent(tick=0, channel=1, data=[50, 127]),
   midi.NoteOnEvent(tick=60, channel=1, data=[54, 0]),
   midi.NoteOnEvent(tick=0, channel=1, data=[50, 0]),
   midi.NoteOnEvent(tick=0, channel=1, data=[50, 127]),
   midi.NoteOnEvent(tick=0, channel=1, data=[54, 127]),
   midi.NoteOnEvent(tick=60, channel=1, data=[50, 0]),
   midi.NoteOnEvent(tick=0, channel=1, data=[54, 0]),
   midi.NoteOnEvent(tick=0, channel=1, data=[54, 127]),
   midi.NoteOnEvent(tick=0, channel=1, data=[51, 127]),
   midi.NoteOnEvent(tick=60, channel=1, data=[54, 0]),
   midi.NoteOnEvent(tick=0, channel=1, data=[51, 0]),
   midi.NoteOnEvent(tick=0, channel=1, data=[47, 127]),
   midi.NoteOnEvent(tick=60, channel=1, data=[47, 0]),
   midi.NoteOnEvent(tick=0, channel=1, data=[47, 127]),
   midi.NoteOnEvent(tick=60, channel=1, data=[47, 0]),
   midi.NoteOnEvent(tick=0, channel=1, data=[54, 127]),
   midi.NoteOnEvent(tick=0, channel=1, data=[51, 127]),
   midi.NoteOnEvent(tick=60, channel=1, data=[54, 0]),
   midi.NoteOnEvent(tick=0, channel=1, data=[51, 0]),
   midi.NoteOnEvent(tick=0, channel=1, data=[47, 127]),
   midi.NoteOnEvent(tick=60, channel=1, data=[47, 0]),
   midi.NoteOnEvent(tick=0, channel=1, data=[47, 127]),
   midi.NoteOnEvent(tick=60, channel=1, data=[47, 0]),
   midi.NoteOnEvent(tick=0, channel=1, data=[54, 127]),
   midi.NoteOnEvent(tick=0, channel=1, data=[51, 127]),
   midi.NoteOnEvent(tick=60, channel=1, data=[54, 0]),
   midi.NoteOnEvent(tick=0, channel=1, data=[51, 0]),
   midi.NoteOnEvent(tick=0, channel=1, data=[51, 127]),
   midi.NoteOnEvent(tick=0, channel=1, data=[54, 127]),
   midi.NoteOnEvent(tick=60, channel=1, data=[51, 0]),
   midi.NoteOnEvent(tick=0, channel=1, data=[54, 0]),
   midi.NoteOnEvent(tick=0, channel=1, data=[52, 127]),
   midi.NoteOnEvent(tick=0, channel=1, data=[55, 127]),
   midi.NoteOnEvent(tick=60, channel=1, data=[52, 0]),
   midi.NoteOnEvent(tick=0, channel=1, data=[55, 0]),
   midi.NoteOnEvent(tick=0, channel=1, data=[40, 127]),
   midi.NoteOnEvent(tick=60, channel=1, data=[40, 0]),
   midi.NoteOnEvent(tick=0, channel=1, data=[40, 127]),
   midi.NoteOnEvent(tick=60, channel=1, data=[40, 0]),
   midi.NoteOnEvent(tick=0, channel=1, data=[52, 127]),
   midi.NoteOnEvent(tick=0, channel=1, data=[55, 127]),
   midi.NoteOnEvent(tick=60, channel=1, data=[52, 0]),
   midi.NoteOnEvent(tick=0, channel=1, data=[55, 0]),
   midi.NoteOnEvent(tick=0, channel=1, data=[40, 127]),
   midi.NoteOnEvent(tick=60, channel=1, data=[40, 0]),
   midi.NoteOnEvent(tick=0, channel=1, data=[40, 127]),
   midi.NoteOnEvent(tick=60, channel=1, data=[40, 0]),
   midi.NoteOnEvent(tick=0, channel=1, data=[55, 127]),
   midi.NoteOnEvent(tick=0, channel=1, data=[52, 127]),
   midi.NoteOnEvent(tick=60, channel=1, data=[55, 0]),
   midi.NoteOnEvent(tick=0, channel=1, data=[52, 0]),
   midi.NoteOnEvent(tick=0, channel=1, data=[40, 127]),
   midi.NoteOnEvent(tick=60, channel=1, data=[40, 0]),
   midi.NoteOnEvent(tick=0, channel=1, data=[54, 127]),
   midi.NoteOnEvent(tick=0, channel=1, data=[52, 127]),
   midi.NoteOnEvent(tick=60, channel=1, data=[54, 0]),
   midi.NoteOnEvent(tick=0, channel=1, data=[52, 0]),
   midi.NoteOnEvent(tick=0, channel=1, data=[40, 127]),
   midi.NoteOnEvent(tick=60, channel=1, data=[40, 0]),
   midi.NoteOnEvent(tick=0, channel=1, data=[40, 127]),
   midi.NoteOnEvent(tick=60, channel=1, data=[40, 0]),
   midi.NoteOnEvent(tick=0, channel=1, data=[55, 127]),
   midi.NoteOnEvent(tick=0, channel=1, data=[52, 127]),
   midi.NoteOnEvent(tick=60, channel=1, data=[55, 0]),
   midi.NoteOnEvent(tick=0, channel=1, data=[52, 0]),
   midi.NoteOnEvent(tick=0, channel=1, data=[40, 127]),
   midi.NoteOnEvent(tick=60, channel=1, data=[40, 0]),
   midi.NoteOnEvent(tick=0, channel=1, data=[40, 127]),
   midi.NoteOnEvent(tick=60, channel=1, data=[40, 0]),
   midi.NoteOnEvent(tick=0, channel=1, data=[55, 127]),
   midi.NoteOnEvent(tick=0, channel=1, data=[52, 127]),
   midi.NoteOnEvent(tick=60, channel=1, data=[55, 0]),
   midi.NoteOnEvent(tick=0, channel=1, data=[52, 0]),
   midi.NoteOnEvent(tick=0, channel=1, data=[40, 127]),
   midi.NoteOnEvent(tick=60, channel=1, data=[40, 0]),
   midi.NoteOnEvent(tick=0, channel=1, data=[54, 127]),
   midi.NoteOnEvent(tick=0, channel=1, data=[50, 127]),
   midi.NoteOnEvent(tick=60, channel=1, data=[54, 0]),
   midi.NoteOnEvent(tick=0, channel=1, data=[50, 0]),
   midi.NoteOnEvent(tick=0, channel=1, data=[47, 127]),
   midi.NoteOnEvent(tick=60, channel=1, data=[47, 0]),
   midi.NoteOnEvent(tick=0, channel=1, data=[47, 127]),
   midi.NoteOnEvent(tick=60, channel=1, data=[47, 0]),
   midi.NoteOnEvent(tick=0, channel=1, data=[54, 127]),
   midi.NoteOnEvent(tick=0, channel=1, data=[50, 127]),
   midi.NoteOnEvent(tick=60, channel=1, data=[54, 0]),
   midi.NoteOnEvent(tick=0, channel=1, data=[50, 0]),
   midi.NoteOnEvent(tick=0, channel=1, data=[47, 127]),
   midi.NoteOnEvent(tick=60, channel=1, data=[47, 0]),
   midi.NoteOnEvent(tick=0, channel=1, data=[47, 127]),
   midi.NoteOnEvent(tick=60, channel=1, data=[47, 0]),
   midi.NoteOnEvent(tick=0, channel=1, data=[54, 127]),
   midi.NoteOnEvent(tick=0, channel=1, data=[50, 127]),
   midi.NoteOnEvent(tick=60, channel=1, data=[54, 0]),
   midi.NoteOnEvent(tick=0, channel=1, data=[50, 0]),
   midi.NoteOnEvent(tick=0, channel=1, data=[50, 127]),
   midi.NoteOnEvent(tick=0, channel=1, data=[54, 127]),
   midi.NoteOnEvent(tick=60, channel=1, data=[50, 0]),
   midi.NoteOnEvent(tick=0, channel=1, data=[54, 0]),
   midi.NoteOnEvent(tick=0, channel=1, data=[54, 127]),
   midi.NoteOnEvent(tick=0, channel=1, data=[51, 127]),
   midi.NoteOnEvent(tick=60, channel=1, data=[54, 0]),
   midi.NoteOnEvent(tick=0, channel=1, data=[51, 0]),
   midi.NoteOnEvent(tick=0, channel=1, data=[47, 127]),
   midi.NoteOnEvent(tick=60, channel=1, data=[47, 0]),
   midi.NoteOnEvent(tick=0, channel=1, data=[47, 127]),
   midi.NoteOnEvent(tick=60, channel=1, data=[47, 0]),
   midi.NoteOnEvent(tick=0, channel=1, data=[54, 127]),
   midi.NoteOnEvent(tick=0, channel=1, data=[51, 127]),
   midi.NoteOnEvent(tick=60, channel=1, data=[54, 0]),
   midi.NoteOnEvent(tick=0, channel=1, data=[51, 0]),
   midi.NoteOnEvent(tick=0, channel=1, data=[47, 127]),
   midi.NoteOnEvent(tick=60, channel=1, data=[47, 0]),
   midi.NoteOnEvent(tick=0, channel=1, data=[47, 127]),
   midi.NoteOnEvent(tick=60, channel=1, data=[47, 0]),
   midi.NoteOnEvent(tick=0, channel=1, data=[54, 127]),
   midi.NoteOnEvent(tick=0, channel=1, data=[51, 127]),
   midi.NoteOnEvent(tick=60, channel=1, data=[54, 0]),
   midi.NoteOnEvent(tick=0, channel=1, data=[51, 0]),
   midi.NoteOnEvent(tick=0, channel=1, data=[51, 127]),
   midi.NoteOnEvent(tick=0, channel=1, data=[54, 127]),
   midi.NoteOnEvent(tick=60, channel=1, data=[51, 0]),
   midi.NoteOnEvent(tick=0, channel=1, data=[54, 0]),
   midi.NoteOnEvent(tick=0, channel=1, data=[40, 127]),
   midi.NoteOnEvent(tick=30, channel=1, data=[40, 0]),
   midi.NoteOnEvent(tick=0, channel=1, data=[40, 127]),
   midi.NoteOnEvent(tick=30, channel=1, data=[40, 0]),
   midi.NoteOnEvent(tick=0, channel=1, data=[40, 127]),
   midi.NoteOnEvent(tick=30, channel=1, data=[40, 0]),
   midi.NoteOnEvent(tick=0, channel=1, data=[40, 127]),
   midi.NoteOnEvent(tick=30, channel=1, data=[40, 0]),
   midi.NoteOnEvent(tick=0, channel=1, data=[57, 127]),
   midi.NoteOnEvent(tick=0, channel=1, data=[52, 127]),
   midi.NoteOnEvent(tick=0, channel=1, data=[45, 127]),
   midi.NoteOnEvent(tick=180, channel=1, data=[57, 0]),
   midi.NoteOnEvent(tick=0, channel=1, data=[52, 0]),
   midi.NoteOnEvent(tick=0, channel=1, data=[45, 0]),
   midi.NoteOnEvent(tick=0, channel=1, data=[52, 127]),
   midi.NoteOnEvent(tick=0, channel=1, data=[47, 127]),
   midi.NoteOnEvent(tick=0, channel=1, data=[40, 127]),
   midi.NoteOnEvent(tick=180, channel=1, data=[52, 0]),
   midi.NoteOnEvent(tick=0, channel=1, data=[47, 0]),
   midi.NoteOnEvent(tick=0, channel=1, data=[40, 0]),
   midi.NoteOnEvent(tick=0, channel=1, data=[60, 127]),
   midi.NoteOnEvent(tick=0, channel=1, data=[55, 127]),
   midi.NoteOnEvent(tick=0, channel=1, data=[48, 127]),
   midi.NoteOnEvent(tick=480, channel=1, data=[60, 0]),
   midi.NoteOnEvent(tick=0, channel=1, data=[55, 0]),
   midi.NoteOnEvent(tick=0, channel=1, data=[48, 0]),
   midi.NoteOnEvent(tick=0, channel=1, data=[40, 127]),
   midi.NoteOnEvent(tick=30, channel=1, data=[40, 0]),
   midi.NoteOnEvent(tick=0, channel=1, data=[40, 127]),
   midi.NoteOnEvent(tick=30, channel=1, data=[40, 0]),
   midi.NoteOnEvent(tick=0, channel=1, data=[40, 127]),
   midi.NoteOnEvent(tick=30, channel=1, data=[40, 0]),
   midi.NoteOnEvent(tick=0, channel=1, data=[40, 127]),
   midi.NoteOnEvent(tick=30, channel=1, data=[40, 0]),
   midi.NoteOnEvent(tick=0, channel=1, data=[60, 127]),
   midi.NoteOnEvent(tick=0, channel=1, data=[55, 127]),
   midi.NoteOnEvent(tick=0, channel=1, data=[48, 127]),
   midi.NoteOnEvent(tick=180, channel=1, data=[60, 0]),
   midi.NoteOnEvent(tick=0, channel=1, data=[55, 0]),
   midi.NoteOnEvent(tick=0, channel=1, data=[48, 0]),
   midi.NoteOnEvent(tick=0, channel=1, data=[40, 127]),
   midi.NoteOnEvent(tick=0, channel=1, data=[47, 127]),
   midi.NoteOnEvent(tick=0, channel=1, data=[52, 127]),
   midi.NoteOnEvent(tick=180, channel=1, data=[40, 0]),
   midi.NoteOnEvent(tick=0, channel=1, data=[47, 0]),
   midi.NoteOnEvent(tick=0, channel=1, data=[52, 0]),
   midi.NoteOnEvent(tick=0, channel=1, data=[45, 127]),
   midi.NoteOnEvent(tick=0, channel=1, data=[52, 127]),
   midi.NoteOnEvent(tick=0, channel=1, data=[57, 127]),
   midi.NoteOnEvent(tick=480, channel=1, data=[45, 0]),
   midi.NoteOnEvent(tick=0, channel=1, data=[52, 0]),
   midi.NoteOnEvent(tick=0, channel=1, data=[57, 0]),
   midi.NoteOnEvent(tick=0, channel=1, data=[40, 127]),
   midi.NoteOnEvent(tick=30, channel=1, data=[40, 0]),
   midi.NoteOnEvent(tick=0, channel=1, data=[40, 127]),
   midi.NoteOnEvent(tick=30, channel=1, data=[40, 0]),
   midi.NoteOnEvent(tick=0, channel=1, data=[40, 127]),
   midi.NoteOnEvent(tick=30, channel=1, data=[40, 0]),
   midi.NoteOnEvent(tick=0, channel=1, data=[40, 127]),
   midi.NoteOnEvent(tick=30, channel=1, data=[40, 0]),
   midi.NoteOnEvent(tick=0, channel=1, data=[57, 127]),
   midi.NoteOnEvent(tick=0, channel=1, data=[52, 127]),
   midi.NoteOnEvent(tick=0, channel=1, data=[45, 127]),
   midi.NoteOnEvent(tick=180, channel=1, data=[57, 0]),
   midi.NoteOnEvent(tick=0, channel=1, data=[52, 0]),
   midi.NoteOnEvent(tick=0, channel=1, data=[45, 0]),
   midi.NoteOnEvent(tick=0, channel=1, data=[52, 127]),
   midi.NoteOnEvent(tick=0, channel=1, data=[47, 127]),
   midi.NoteOnEvent(tick=0, channel=1, data=[40, 127]),
   midi.NoteOnEvent(tick=180, channel=1, data=[52, 0]),
   midi.NoteOnEvent(tick=0, channel=1, data=[47, 0]),
   midi.NoteOnEvent(tick=0, channel=1, data=[40, 0]),
   midi.NoteOnEvent(tick=0, channel=1, data=[60, 127]),
   midi.NoteOnEvent(tick=0, channel=1, data=[55, 127]),
   midi.NoteOnEvent(tick=0, channel=1, data=[48, 127]),
   midi.NoteOnEvent(tick=480, channel=1, data=[60, 0]),
   midi.NoteOnEvent(tick=0, channel=1, data=[55, 0]),
   midi.NoteOnEvent(tick=0, channel=1, data=[48, 0]),
   midi.NoteOnEvent(tick=0, channel=1, data=[40, 127]),
   midi.NoteOnEvent(tick=30, channel=1, data=[40, 0]),
   midi.NoteOnEvent(tick=0, channel=1, data=[40, 127]),
   midi.NoteOnEvent(tick=30, channel=1, data=[40, 0]),
   midi.NoteOnEvent(tick=0, channel=1, data=[40, 127]),
   midi.NoteOnEvent(tick=30, channel=1, data=[40, 0]),
   midi.NoteOnEvent(tick=0, channel=1, data=[40, 127]),
   midi.NoteOnEvent(tick=30, channel=1, data=[40, 0]),
   midi.NoteOnEvent(tick=0, channel=1, data=[60, 127]),
   midi.NoteOnEvent(tick=0, channel=1, data=[55, 127]),
   midi.NoteOnEvent(tick=0, channel=1, data=[48, 127]),
   midi.NoteOnEvent(tick=180, channel=1, data=[60, 0]),
   midi.NoteOnEvent(tick=0, channel=1, data=[55, 0]),
   midi.NoteOnEvent(tick=0, channel=1, data=[48, 0]),
   midi.NoteOnEvent(tick=0, channel=1, data=[40, 127]),
   midi.NoteOnEvent(tick=0, channel=1, data=[47, 127]),
   midi.NoteOnEvent(tick=0, channel=1, data=[52, 127]),
   midi.NoteOnEvent(tick=180, channel=1, data=[40, 0]),
   midi.NoteOnEvent(tick=0, channel=1, data=[47, 0]),
   midi.NoteOnEvent(tick=0, channel=1, data=[52, 0]),
   midi.NoteOnEvent(tick=0, channel=1, data=[45, 127]),
   midi.NoteOnEvent(tick=0, channel=1, data=[52, 127]),
   midi.NoteOnEvent(tick=0, channel=1, data=[57, 127]),
   midi.NoteOnEvent(tick=480, channel=1, data=[45, 0]),
   midi.NoteOnEvent(tick=0, channel=1, data=[52, 0]),
   midi.NoteOnEvent(tick=0, channel=1, data=[57, 0]),
   midi.NoteOnEvent(tick=0, channel=1, data=[40, 127]),
   midi.NoteOnEvent(tick=30, channel=1, data=[40, 0]),
   midi.NoteOnEvent(tick=0, channel=1, data=[40, 127]),
   midi.NoteOnEvent(tick=30, channel=1, data=[40, 0]),
   midi.NoteOnEvent(tick=0, channel=1, data=[40, 127]),
   midi.NoteOnEvent(tick=30, channel=1, data=[40, 0]),
   midi.NoteOnEvent(tick=0, channel=1, data=[40, 127]),
   midi.NoteOnEvent(tick=30, channel=1, data=[40, 0]),
   midi.NoteOnEvent(tick=0, channel=1, data=[57, 127]),
   midi.NoteOnEvent(tick=0, channel=1, data=[52, 127]),
   midi.NoteOnEvent(tick=0, channel=1, data=[45, 127]),
   midi.NoteOnEvent(tick=180, channel=1, data=[57, 0]),
   midi.NoteOnEvent(tick=0, channel=1, data=[52, 0]),
   midi.NoteOnEvent(tick=0, channel=1, data=[45, 0]),
   midi.NoteOnEvent(tick=0, channel=1, data=[52, 127]),
   midi.NoteOnEvent(tick=0, channel=1, data=[47, 127]),
   midi.NoteOnEvent(tick=0, channel=1, data=[40, 127]),
   midi.NoteOnEvent(tick=180, channel=1, data=[52, 0]),
   midi.NoteOnEvent(tick=0, channel=1, data=[47, 0]),
   midi.NoteOnEvent(tick=0, channel=1, data=[40, 0]),
   midi.NoteOnEvent(tick=0, channel=1, data=[60, 127]),
   midi.NoteOnEvent(tick=0, channel=1, data=[55, 127]),
   midi.NoteOnEvent(tick=0, channel=1, data=[48, 127]),
   midi.NoteOnEvent(tick=480, channel=1, data=[60, 0]),
   midi.NoteOnEvent(tick=0, channel=1, data=[55, 0]),
   midi.NoteOnEvent(tick=0, channel=1, data=[48, 0]),
   midi.NoteOnEvent(tick=0, channel=1, data=[40, 127]),
   midi.NoteOnEvent(tick=30, channel=1, data=[40, 0]),
   midi.NoteOnEvent(tick=0, channel=1, data=[40, 127]),
   midi.NoteOnEvent(tick=30, channel=1, data=[40, 0]),
   midi.NoteOnEvent(tick=0, channel=1, data=[40, 127]),
   midi.NoteOnEvent(tick=30, channel=1, data=[40, 0]),
   midi.NoteOnEvent(tick=0, channel=1, data=[40, 127]),
   midi.NoteOnEvent(tick=30, channel=1, data=[40, 0]),
   midi.NoteOnEvent(tick=0, channel=1, data=[60, 127]),
   midi.NoteOnEvent(tick=0, channel=1, data=[55, 127]),
   midi.NoteOnEvent(tick=0, channel=1, data=[48, 127]),
   midi.NoteOnEvent(tick=180, channel=1, data=[60, 0]),
   midi.NoteOnEvent(tick=0, channel=1, data=[55, 0]),
   midi.NoteOnEvent(tick=0, channel=1, data=[48, 0]),
   midi.NoteOnEvent(tick=0, channel=1, data=[40, 127]),
   midi.NoteOnEvent(tick=0, channel=1, data=[47, 127]),
   midi.NoteOnEvent(tick=0, channel=1, data=[52, 127]),
   midi.NoteOnEvent(tick=180, channel=1, data=[40, 0]),
   midi.NoteOnEvent(tick=0, channel=1, data=[47, 0]),
   midi.NoteOnEvent(tick=0, channel=1, data=[52, 0]),
   midi.NoteOnEvent(tick=0, channel=1, data=[45, 127]),
   midi.NoteOnEvent(tick=0, channel=1, data=[52, 127]),
   midi.NoteOnEvent(tick=0, channel=1, data=[57, 127]),
   midi.NoteOnEvent(tick=480, channel=1, data=[45, 0]),
   midi.NoteOnEvent(tick=0, channel=1, data=[52, 0]),
   midi.NoteOnEvent(tick=0, channel=1, data=[57, 0]),
   midi.NoteOnEvent(tick=0, channel=1, data=[40, 127]),
   midi.NoteOnEvent(tick=30, channel=1, data=[40, 0]),
   midi.NoteOnEvent(tick=0, channel=1, data=[40, 127]),
   midi.NoteOnEvent(tick=30, channel=1, data=[40, 0]),
   midi.NoteOnEvent(tick=0, channel=1, data=[40, 127]),
   midi.NoteOnEvent(tick=30, channel=1, data=[40, 0]),
   midi.NoteOnEvent(tick=0, channel=1, data=[40, 127]),
   midi.NoteOnEvent(tick=30, channel=1, data=[40, 0]),
   midi.NoteOnEvent(tick=0, channel=1, data=[57, 127]),
   midi.NoteOnEvent(tick=0, channel=1, data=[52, 127]),
   midi.NoteOnEvent(tick=0, channel=1, data=[45, 127]),
   midi.NoteOnEvent(tick=180, channel=1, data=[57, 0]),
   midi.NoteOnEvent(tick=0, channel=1, data=[52, 0]),
   midi.NoteOnEvent(tick=0, channel=1, data=[45, 0]),
   midi.NoteOnEvent(tick=0, channel=1, data=[52, 127]),
   midi.NoteOnEvent(tick=0, channel=1, data=[47, 127]),
   midi.NoteOnEvent(tick=0, channel=1, data=[40, 127]),
   midi.NoteOnEvent(tick=180, channel=1, data=[52, 0]),
   midi.NoteOnEvent(tick=0, channel=1, data=[47, 0]),
   midi.NoteOnEvent(tick=0, channel=1, data=[40, 0]),
   midi.NoteOnEvent(tick=0, channel=1, data=[60, 127]),
   midi.NoteOnEvent(tick=0, channel=1, data=[55, 127]),
   midi.NoteOnEvent(tick=0, channel=1, data=[48, 127]),
   midi.NoteOnEvent(tick=480, channel=1, data=[60, 0]),
   midi.NoteOnEvent(tick=0, channel=1, data=[55, 0]),
   midi.NoteOnEvent(tick=0, channel=1, data=[48, 0]),
   midi.NoteOnEvent(tick=0, channel=1, data=[40, 127]),
   midi.NoteOnEvent(tick=30, channel=1, data=[40, 0]),
   midi.NoteOnEvent(tick=0, channel=1, data=[40, 127]),
   midi.NoteOnEvent(tick=30, channel=1, data=[40, 0]),
   midi.NoteOnEvent(tick=0, channel=1, data=[40, 127]),
   midi.NoteOnEvent(tick=30, channel=1, data=[40, 0]),
   midi.NoteOnEvent(tick=0, channel=1, data=[40, 127]),
   midi.NoteOnEvent(tick=30, channel=1, data=[40, 0]),
   midi.NoteOnEvent(tick=0, channel=1, data=[60, 127]),
   midi.NoteOnEvent(tick=0, channel=1, data=[55, 127]),
   midi.NoteOnEvent(tick=0, channel=1, data=[48, 127]),
   midi.NoteOnEvent(tick=180, channel=1, data=[60, 0]),
   midi.NoteOnEvent(tick=0, channel=1, data=[55, 0]),
   midi.NoteOnEvent(tick=0, channel=1, data=[48, 0]),
   midi.NoteOnEvent(tick=0, channel=1, data=[40, 127]),
   midi.NoteOnEvent(tick=0, channel=1, data=[47, 127]),
   midi.NoteOnEvent(tick=0, channel=1, data=[52, 127]),
   midi.NoteOnEvent(tick=180, channel=1, data=[40, 0]),
   midi.NoteOnEvent(tick=0, channel=1, data=[47, 0]),
   midi.NoteOnEvent(tick=0, channel=1, data=[52, 0]),
   midi.NoteOnEvent(tick=0, channel=1, data=[45, 127]),
   midi.NoteOnEvent(tick=0, channel=1, data=[52, 127]),
   midi.NoteOnEvent(tick=0, channel=1, data=[57, 127]),
   midi.NoteOnEvent(tick=180, channel=1, data=[45, 0]),
   midi.NoteOnEvent(tick=0, channel=1, data=[52, 0]),
   midi.NoteOnEvent(tick=0, channel=1, data=[57, 0]),
   midi.NoteOnEvent(tick=60, channel=1, data=[40, 127]),
   midi.NoteOnEvent(tick=30, channel=1, data=[40, 0]),
   midi.NoteOnEvent(tick=0, channel=1, data=[40, 127]),
   midi.NoteOnEvent(tick=30, channel=1, data=[40, 0]),
   midi.NoteOnEvent(tick=0, channel=1, data=[41, 127]),
   midi.NoteOnEvent(tick=30, channel=1, data=[41, 0]),
   midi.NoteOnEvent(tick=0, channel=1, data=[40, 127]),
   midi.NoteOnEvent(tick=30, channel=1, data=[40, 0]),
   midi.NoteOnEvent(tick=0, channel=1, data=[41, 127]),
   midi.NoteOnEvent(tick=30, channel=1, data=[41, 0]),
   midi.NoteOnEvent(tick=0, channel=1, data=[41, 127]),
   midi.NoteOnEvent(tick=30, channel=1, data=[41, 0]),
   midi.NoteOnEvent(tick=0, channel=1, data=[40, 127]),
   midi.NoteOnEvent(tick=60, channel=1, data=[40, 0]),
   midi.NoteOnEvent(tick=0, channel=1, data=[40, 127]),
   midi.NoteOnEvent(tick=60, channel=1, data=[40, 0]),
   midi.NoteOnEvent(tick=0, channel=1, data=[40, 127]),
   midi.NoteOnEvent(tick=30, channel=1, data=[40, 0]),
   midi.NoteOnEvent(tick=0, channel=1, data=[40, 127]),
   midi.NoteOnEvent(tick=30, channel=1, data=[40, 0]),
   midi.NoteOnEvent(tick=0, channel=1, data=[45, 127]),
   midi.NoteOnEvent(tick=0, channel=1, data=[52, 127]),
   midi.NoteOnEvent(tick=0, channel=1, data=[57, 127]),
   midi.NoteOnEvent(tick=60, channel=1, data=[45, 0]),
   midi.NoteOnEvent(tick=0, channel=1, data=[52, 0]),
   midi.NoteOnEvent(tick=0, channel=1, data=[57, 0]),
   midi.NoteOnEvent(tick=0, channel=1, data=[40, 127]),
   midi.NoteOnEvent(tick=30, channel=1, data=[40, 0]),
   midi.NoteOnEvent(tick=0, channel=1, data=[40, 127]),
   midi.NoteOnEvent(tick=30, channel=1, data=[40, 0]),
   midi.NoteOnEvent(tick=0, channel=1, data=[40, 127]),
   midi.NoteOnEvent(tick=30, channel=1, data=[40, 0]),
   midi.NoteOnEvent(tick=0, channel=1, data=[40, 127]),
   midi.NoteOnEvent(tick=30, channel=1, data=[40, 0]),
   midi.NoteOnEvent(tick=0, channel=1, data=[59, 127]),
   midi.NoteOnEvent(tick=0, channel=1, data=[52, 127]),
   midi.NoteOnEvent(tick=0, channel=1, data=[47, 127]),
   midi.NoteOnEvent(tick=60, channel=1, data=[59, 0]),
   midi.NoteOnEvent(tick=0, channel=1, data=[52, 0]),
   midi.NoteOnEvent(tick=0, channel=1, data=[47, 0]),
   midi.NoteOnEvent(tick=0, channel=1, data=[40, 127]),
   midi.NoteOnEvent(tick=30, channel=1, data=[40, 0]),
   midi.NoteOnEvent(tick=0, channel=1, data=[40, 127]),
   midi.NoteOnEvent(tick=30, channel=1, data=[40, 0]),
   midi.NoteOnEvent(tick=0, channel=1, data=[40, 127]),
   midi.NoteOnEvent(tick=30, channel=1, data=[40, 0]),
   midi.NoteOnEvent(tick=0, channel=1, data=[40, 127]),
   midi.NoteOnEvent(tick=30, channel=1, data=[40, 0]),
   midi.NoteOnEvent(tick=0, channel=1, data=[48, 127]),
   midi.NoteOnEvent(tick=0, channel=1, data=[55, 127]),
   midi.NoteOnEvent(tick=0, channel=1, data=[60, 127]),
   midi.NoteOnEvent(tick=60, channel=1, data=[48, 0]),
   midi.NoteOnEvent(tick=0, channel=1, data=[55, 0]),
   midi.NoteOnEvent(tick=0, channel=1, data=[60, 0]),
   midi.NoteOnEvent(tick=0, channel=1, data=[40, 127]),
   midi.NoteOnEvent(tick=30, channel=1, data=[40, 0]),
   midi.NoteOnEvent(tick=0, channel=1, data=[40, 127]),
   midi.NoteOnEvent(tick=30, channel=1, data=[40, 0]),
   midi.NoteOnEvent(tick=0, channel=1, data=[40, 127]),
   midi.NoteOnEvent(tick=30, channel=1, data=[40, 0]),
   midi.NoteOnEvent(tick=0, channel=1, data=[40, 127]),
   midi.NoteOnEvent(tick=30, channel=1, data=[40, 0]),
   midi.NoteOnEvent(tick=0, channel=1, data=[40, 127]),
   midi.NoteOnEvent(tick=60, channel=1, data=[40, 0]),
   midi.NoteOnEvent(tick=0, channel=1, data=[40, 127]),
   midi.NoteOnEvent(tick=30, channel=1, data=[40, 0]),
   midi.NoteOnEvent(tick=0, channel=1, data=[40, 127]),
   midi.NoteOnEvent(tick=30, channel=1, data=[40, 0]),
   midi.NoteOnEvent(tick=0, channel=1, data=[41, 127]),
   midi.NoteOnEvent(tick=60, channel=1, data=[41, 0]),
   midi.NoteOnEvent(tick=0, channel=1, data=[41, 127]),
   midi.NoteOnEvent(tick=30, channel=1, data=[41, 0]),
   midi.NoteOnEvent(tick=0, channel=1, data=[41, 127]),
   midi.NoteOnEvent(tick=30, channel=1, data=[41, 0]),
   midi.NoteOnEvent(tick=0, channel=1, data=[40, 127]),
   midi.NoteOnEvent(tick=60, channel=1, data=[40, 0]),
   midi.NoteOnEvent(tick=0, channel=1, data=[40, 127]),
   midi.NoteOnEvent(tick=60, channel=1, data=[40, 0]),
   midi.NoteOnEvent(tick=0, channel=1, data=[40, 127]),
   midi.NoteOnEvent(tick=30, channel=1, data=[40, 0]),
   midi.NoteOnEvent(tick=0, channel=1, data=[40, 127]),
   midi.NoteOnEvent(tick=30, channel=1, data=[40, 0]),
   midi.NoteOnEvent(tick=0, channel=1, data=[48, 127]),
   midi.NoteOnEvent(tick=0, channel=1, data=[55, 127]),
   midi.NoteOnEvent(tick=0, channel=1, data=[60, 127]),
   midi.NoteOnEvent(tick=60, channel=1, data=[48, 0]),
   midi.NoteOnEvent(tick=0, channel=1, data=[55, 0]),
   midi.NoteOnEvent(tick=0, channel=1, data=[60, 0]),
   midi.NoteOnEvent(tick=0, channel=1, data=[40, 127]),
   midi.NoteOnEvent(tick=30, channel=1, data=[40, 0]),
   midi.NoteOnEvent(tick=0, channel=1, data=[40, 127]),
   midi.NoteOnEvent(tick=30, channel=1, data=[40, 0]),
   midi.NoteOnEvent(tick=0, channel=1, data=[40, 127]),
   midi.NoteOnEvent(tick=30, channel=1, data=[40, 0]),
   midi.NoteOnEvent(tick=0, channel=1, data=[40, 127]),
   midi.NoteOnEvent(tick=30, channel=1, data=[40, 0]),
   midi.NoteOnEvent(tick=0, channel=1, data=[59, 127]),
   midi.NoteOnEvent(tick=0, channel=1, data=[52, 127]),
   midi.NoteOnEvent(tick=0, channel=1, data=[47, 127]),
   midi.NoteOnEvent(tick=60, channel=1, data=[59, 0]),
   midi.NoteOnEvent(tick=0, channel=1, data=[52, 0]),
   midi.NoteOnEvent(tick=0, channel=1, data=[47, 0]),
   midi.NoteOnEvent(tick=0, channel=1, data=[40, 127]),
   midi.NoteOnEvent(tick=30, channel=1, data=[40, 0]),
   midi.NoteOnEvent(tick=0, channel=1, data=[40, 127]),
   midi.NoteOnEvent(tick=30, channel=1, data=[40, 0]),
   midi.NoteOnEvent(tick=0, channel=1, data=[40, 127]),
   midi.NoteOnEvent(tick=30, channel=1, data=[40, 0]),
   midi.NoteOnEvent(tick=0, channel=1, data=[40, 127]),
   midi.NoteOnEvent(tick=30, channel=1, data=[40, 0]),
   midi.NoteOnEvent(tick=0, channel=1, data=[57, 127]),
   midi.NoteOnEvent(tick=0, channel=1, data=[52, 127]),
   midi.NoteOnEvent(tick=0, channel=1, data=[45, 127]),
   midi.NoteOnEvent(tick=60, channel=1, data=[57, 0]),
   midi.NoteOnEvent(tick=0, channel=1, data=[52, 0]),
   midi.NoteOnEvent(tick=0, channel=1, data=[45, 0]),
   midi.NoteOnEvent(tick=0, channel=1, data=[40, 127]),
   midi.NoteOnEvent(tick=30, channel=1, data=[40, 0]),
   midi.NoteOnEvent(tick=0, channel=1, data=[40, 127]),
   midi.NoteOnEvent(tick=30, channel=1, data=[40, 0]),
   midi.NoteOnEvent(tick=0, channel=1, data=[40, 127]),
   midi.NoteOnEvent(tick=30, channel=1, data=[40, 0]),
   midi.NoteOnEvent(tick=0, channel=1, data=[40, 127]),
   midi.NoteOnEvent(tick=30, channel=1, data=[40, 0]),
   midi.NoteOnEvent(tick=0, channel=1, data=[40, 127]),
   midi.NoteOnEvent(tick=60, channel=1, data=[40, 0]),
   midi.NoteOnEvent(tick=0, channel=1, data=[40, 127]),
   midi.NoteOnEvent(tick=30, channel=1, data=[40, 0]),
   midi.NoteOnEvent(tick=0, channel=1, data=[40, 127]),
   midi.NoteOnEvent(tick=30, channel=1, data=[40, 0]),
   midi.NoteOnEvent(tick=0, channel=1, data=[41, 127]),
   midi.NoteOnEvent(tick=60, channel=1, data=[41, 0]),
   midi.NoteOnEvent(tick=0, channel=1, data=[41, 127]),
   midi.NoteOnEvent(tick=30, channel=1, data=[41, 0]),
   midi.NoteOnEvent(tick=0, channel=1, data=[41, 127]),
   midi.NoteOnEvent(tick=30, channel=1, data=[41, 0]),
   midi.NoteOnEvent(tick=0, channel=1, data=[40, 127]),
   midi.NoteOnEvent(tick=60, channel=1, data=[40, 0]),
   midi.NoteOnEvent(tick=0, channel=1, data=[40, 127]),
   midi.NoteOnEvent(tick=60, channel=1, data=[40, 0]),
   midi.NoteOnEvent(tick=0, channel=1, data=[40, 127]),
   midi.NoteOnEvent(tick=30, channel=1, data=[40, 0]),
   midi.NoteOnEvent(tick=0, channel=1, data=[40, 127]),
   midi.NoteOnEvent(tick=30, channel=1, data=[40, 0]),
   midi.NoteOnEvent(tick=0, channel=1, data=[57, 127]),
   midi.NoteOnEvent(tick=0, channel=1, data=[52, 127]),
   midi.NoteOnEvent(tick=0, channel=1, data=[45, 127]),
   midi.NoteOnEvent(tick=60, channel=1, data=[57, 0]),
   midi.NoteOnEvent(tick=0, channel=1, data=[52, 0]),
   midi.NoteOnEvent(tick=0, channel=1, data=[45, 0]),
   midi.NoteOnEvent(tick=0, channel=1, data=[40, 127]),
   midi.NoteOnEvent(tick=30, channel=1, data=[40, 0]),
   midi.NoteOnEvent(tick=0, channel=1, data=[40, 127]),
   midi.NoteOnEvent(tick=30, channel=1, data=[40, 0]),
   midi.NoteOnEvent(tick=0, channel=1, data=[40, 127]),
   midi.NoteOnEvent(tick=30, channel=1, data=[40, 0]),
   midi.NoteOnEvent(tick=0, channel=1, data=[40, 127]),
   midi.NoteOnEvent(tick=30, channel=1, data=[40, 0]),
   midi.NoteOnEvent(tick=0, channel=1, data=[59, 127]),
   midi.NoteOnEvent(tick=0, channel=1, data=[52, 127]),
   midi.NoteOnEvent(tick=0, channel=1, data=[47, 127]),
   midi.NoteOnEvent(tick=60, channel=1, data=[59, 0]),
   midi.NoteOnEvent(tick=0, channel=1, data=[52, 0]),
   midi.NoteOnEvent(tick=0, channel=1, data=[47, 0]),
   midi.NoteOnEvent(tick=0, channel=1, data=[40, 127]),
   midi.NoteOnEvent(tick=30, channel=1, data=[40, 0]),
   midi.NoteOnEvent(tick=0, channel=1, data=[40, 127]),
   midi.NoteOnEvent(tick=30, channel=1, data=[40, 0]),
   midi.NoteOnEvent(tick=0, channel=1, data=[40, 127]),
   midi.NoteOnEvent(tick=30, channel=1, data=[40, 0]),
   midi.NoteOnEvent(tick=0, channel=1, data=[40, 127]),
   midi.NoteOnEvent(tick=30, channel=1, data=[40, 0]),
   midi.NoteOnEvent(tick=0, channel=1, data=[60, 127]),
   midi.NoteOnEvent(tick=0, channel=1, data=[55, 127]),
   midi.NoteOnEvent(tick=0, channel=1, data=[48, 127]),
   midi.NoteOnEvent(tick=60, channel=1, data=[60, 0]),
   midi.NoteOnEvent(tick=0, channel=1, data=[55, 0]),
   midi.NoteOnEvent(tick=0, channel=1, data=[48, 0]),
   midi.NoteOnEvent(tick=0, channel=1, data=[40, 127]),
   midi.NoteOnEvent(tick=30, channel=1, data=[40, 0]),
   midi.NoteOnEvent(tick=0, channel=1, data=[40, 127]),
   midi.NoteOnEvent(tick=30, channel=1, data=[40, 0]),
   midi.NoteOnEvent(tick=0, channel=1, data=[40, 127]),
   midi.NoteOnEvent(tick=30, channel=1, data=[40, 0]),
   midi.NoteOnEvent(tick=0, channel=1, data=[40, 127]),
   midi.NoteOnEvent(tick=30, channel=1, data=[40, 0]),
   midi.NoteOnEvent(tick=0, channel=1, data=[40, 127]),
   midi.NoteOnEvent(tick=60, channel=1, data=[40, 0]),
   midi.NoteOnEvent(tick=0, channel=1, data=[40, 127]),
   midi.NoteOnEvent(tick=30, channel=1, data=[40, 0]),
   midi.NoteOnEvent(tick=0, channel=1, data=[40, 127]),
   midi.NoteOnEvent(tick=30, channel=1, data=[40, 0]),
   midi.NoteOnEvent(tick=0, channel=1, data=[41, 127]),
   midi.NoteOnEvent(tick=60, channel=1, data=[41, 0]),
   midi.NoteOnEvent(tick=0, channel=1, data=[41, 127]),
   midi.NoteOnEvent(tick=30, channel=1, data=[41, 0]),
   midi.NoteOnEvent(tick=0, channel=1, data=[41, 127]),
   midi.NoteOnEvent(tick=30, channel=1, data=[41, 0]),
   midi.NoteOnEvent(tick=0, channel=1, data=[40, 127]),
   midi.NoteOnEvent(tick=60, channel=1, data=[40, 0]),
   midi.NoteOnEvent(tick=0, channel=1, data=[40, 127]),
   midi.NoteOnEvent(tick=60, channel=1, data=[40, 0]),
   midi.NoteOnEvent(tick=0, channel=1, data=[40, 127]),
   midi.NoteOnEvent(tick=30, channel=1, data=[40, 0]),
   midi.NoteOnEvent(tick=0, channel=1, data=[40, 127]),
   midi.NoteOnEvent(tick=30, channel=1, data=[40, 0]),
   midi.NoteOnEvent(tick=0, channel=1, data=[60, 127]),
   midi.NoteOnEvent(tick=0, channel=1, data=[55, 127]),
   midi.NoteOnEvent(tick=0, channel=1, data=[48, 127]),
   midi.NoteOnEvent(tick=60, channel=1, data=[60, 0]),
   midi.NoteOnEvent(tick=0, channel=1, data=[55, 0]),
   midi.NoteOnEvent(tick=0, channel=1, data=[48, 0]),
   midi.NoteOnEvent(tick=0, channel=1, data=[40, 127]),
   midi.NoteOnEvent(tick=30, channel=1, data=[40, 0]),
   midi.NoteOnEvent(tick=0, channel=1, data=[40, 127]),
   midi.NoteOnEvent(tick=30, channel=1, data=[40, 0]),
   midi.NoteOnEvent(tick=0, channel=1, data=[40, 127]),
   midi.NoteOnEvent(tick=30, channel=1, data=[40, 0]),
   midi.NoteOnEvent(tick=0, channel=1, data=[40, 127]),
   midi.NoteOnEvent(tick=30, channel=1, data=[40, 0]),
   midi.NoteOnEvent(tick=0, channel=1, data=[59, 127]),
   midi.NoteOnEvent(tick=0, channel=1, data=[52, 127]),
   midi.NoteOnEvent(tick=0, channel=1, data=[47, 127]),
   midi.NoteOnEvent(tick=60, channel=1, data=[59, 0]),
   midi.NoteOnEvent(tick=0, channel=1, data=[52, 0]),
   midi.NoteOnEvent(tick=0, channel=1, data=[47, 0]),
   midi.NoteOnEvent(tick=0, channel=1, data=[40, 127]),
   midi.NoteOnEvent(tick=30, channel=1, data=[40, 0]),
   midi.NoteOnEvent(tick=0, channel=1, data=[40, 127]),
   midi.NoteOnEvent(tick=30, channel=1, data=[40, 0]),
   midi.NoteOnEvent(tick=0, channel=1, data=[40, 127]),
   midi.NoteOnEvent(tick=30, channel=1, data=[40, 0]),
   midi.NoteOnEvent(tick=0, channel=1, data=[40, 127]),
   midi.NoteOnEvent(tick=30, channel=1, data=[40, 0]),
   midi.NoteOnEvent(tick=0, channel=1, data=[57, 127]),
   midi.NoteOnEvent(tick=0, channel=1, data=[52, 127]),
   midi.NoteOnEvent(tick=0, channel=1, data=[45, 127]),
   midi.NoteOnEvent(tick=60, channel=1, data=[57, 0]),
   midi.NoteOnEvent(tick=0, channel=1, data=[52, 0]),
   midi.NoteOnEvent(tick=0, channel=1, data=[45, 0]),
   midi.NoteOnEvent(tick=0, channel=1, data=[40, 127]),
   midi.NoteOnEvent(tick=30, channel=1, data=[40, 0]),
   midi.NoteOnEvent(tick=0, channel=1, data=[40, 127]),
   midi.NoteOnEvent(tick=30, channel=1, data=[40, 0]),
   midi.NoteOnEvent(tick=0, channel=1, data=[40, 127]),
   midi.NoteOnEvent(tick=30, channel=1, data=[40, 0]),
   midi.NoteOnEvent(tick=0, channel=1, data=[40, 127]),
   midi.NoteOnEvent(tick=30, channel=1, data=[40, 0]),
   midi.NoteOnEvent(tick=0, channel=1, data=[40, 127]),
   midi.NoteOnEvent(tick=60, channel=1, data=[40, 0]),
   midi.NoteOnEvent(tick=0, channel=1, data=[40, 127]),
   midi.NoteOnEvent(tick=30, channel=1, data=[40, 0]),
   midi.NoteOnEvent(tick=0, channel=1, data=[40, 127]),
   midi.NoteOnEvent(tick=30, channel=1, data=[40, 0]),
   midi.NoteOnEvent(tick=0, channel=1, data=[41, 127]),
   midi.NoteOnEvent(tick=60, channel=1, data=[41, 0]),
   midi.NoteOnEvent(tick=0, channel=1, data=[41, 127]),
   midi.NoteOnEvent(tick=30, channel=1, data=[41, 0]),
   midi.NoteOnEvent(tick=0, channel=1, data=[41, 127]),
   midi.NoteOnEvent(tick=30, channel=1, data=[41, 0]),
   midi.NoteOnEvent(tick=0, channel=1, data=[40, 127]),
   midi.NoteOnEvent(tick=60, channel=1, data=[40, 0]),
   midi.NoteOnEvent(tick=0, channel=1, data=[40, 127]),
   midi.NoteOnEvent(tick=60, channel=1, data=[40, 0]),
   midi.NoteOnEvent(tick=0, channel=1, data=[40, 127]),
   midi.NoteOnEvent(tick=30, channel=1, data=[40, 0]),
   midi.NoteOnEvent(tick=0, channel=1, data=[40, 127]),
   midi.NoteOnEvent(tick=30, channel=1, data=[40, 0]),
   midi.NoteOnEvent(tick=0, channel=1, data=[57, 127]),
   midi.NoteOnEvent(tick=0, channel=1, data=[52, 127]),
   midi.NoteOnEvent(tick=0, channel=1, data=[45, 127]),
   midi.NoteOnEvent(tick=60, channel=1, data=[57, 0]),
   midi.NoteOnEvent(tick=0, channel=1, data=[52, 0]),
   midi.NoteOnEvent(tick=0, channel=1, data=[45, 0]),
   midi.NoteOnEvent(tick=0, channel=1, data=[40, 127]),
   midi.NoteOnEvent(tick=30, channel=1, data=[40, 0]),
   midi.NoteOnEvent(tick=0, channel=1, data=[40, 127]),
   midi.NoteOnEvent(tick=30, channel=1, data=[40, 0]),
   midi.NoteOnEvent(tick=0, channel=1, data=[40, 127]),
   midi.NoteOnEvent(tick=30, channel=1, data=[40, 0]),
   midi.NoteOnEvent(tick=0, channel=1, data=[40, 127]),
   midi.NoteOnEvent(tick=30, channel=1, data=[40, 0]),
   midi.NoteOnEvent(tick=0, channel=1, data=[59, 127]),
   midi.NoteOnEvent(tick=0, channel=1, data=[52, 127]),
   midi.NoteOnEvent(tick=0, channel=1, data=[47, 127]),
   midi.NoteOnEvent(tick=60, channel=1, data=[59, 0]),
   midi.NoteOnEvent(tick=0, channel=1, data=[52, 0]),
   midi.NoteOnEvent(tick=0, channel=1, data=[47, 0]),
   midi.NoteOnEvent(tick=0, channel=1, data=[40, 127]),
   midi.NoteOnEvent(tick=30, channel=1, data=[40, 0]),
   midi.NoteOnEvent(tick=0, channel=1, data=[40, 127]),
   midi.NoteOnEvent(tick=30, channel=1, data=[40, 0]),
   midi.NoteOnEvent(tick=0, channel=1, data=[40, 127]),
   midi.NoteOnEvent(tick=30, channel=1, data=[40, 0]),
   midi.NoteOnEvent(tick=0, channel=1, data=[40, 127]),
   midi.NoteOnEvent(tick=30, channel=1, data=[40, 0]),
   midi.NoteOnEvent(tick=0, channel=1, data=[60, 127]),
   midi.NoteOnEvent(tick=0, channel=1, data=[55, 127]),
   midi.NoteOnEvent(tick=0, channel=1, data=[48, 127]),
   midi.NoteOnEvent(tick=60, channel=1, data=[60, 0]),
   midi.NoteOnEvent(tick=0, channel=1, data=[55, 0]),
   midi.NoteOnEvent(tick=0, channel=1, data=[48, 0]),
   midi.NoteOnEvent(tick=0, channel=1, data=[40, 127]),
   midi.NoteOnEvent(tick=30, channel=1, data=[40, 0]),
   midi.NoteOnEvent(tick=0, channel=1, data=[40, 127]),
   midi.NoteOnEvent(tick=30, channel=1, data=[40, 0]),
   midi.NoteOnEvent(tick=0, channel=1, data=[40, 127]),
   midi.NoteOnEvent(tick=30, channel=1, data=[40, 0]),
   midi.NoteOnEvent(tick=0, channel=1, data=[40, 127]),
   midi.NoteOnEvent(tick=30, channel=1, data=[40, 0]),
   midi.NoteOnEvent(tick=0, channel=1, data=[40, 127]),
   midi.NoteOnEvent(tick=60, channel=1, data=[40, 0]),
   midi.NoteOnEvent(tick=0, channel=1, data=[40, 127]),
   midi.NoteOnEvent(tick=30, channel=1, data=[40, 0]),
   midi.NoteOnEvent(tick=0, channel=1, data=[40, 127]),
   midi.NoteOnEvent(tick=30, channel=1, data=[40, 0]),
   midi.NoteOnEvent(tick=0, channel=1, data=[41, 127]),
   midi.NoteOnEvent(tick=60, channel=1, data=[41, 0]),
   midi.NoteOnEvent(tick=0, channel=1, data=[41, 127]),
   midi.NoteOnEvent(tick=30, channel=1, data=[41, 0]),
   midi.NoteOnEvent(tick=0, channel=1, data=[41, 127]),
   midi.NoteOnEvent(tick=30, channel=1, data=[41, 0]),
   midi.NoteOnEvent(tick=0, channel=1, data=[40, 127]),
   midi.NoteOnEvent(tick=60, channel=1, data=[40, 0]),
   midi.NoteOnEvent(tick=0, channel=1, data=[40, 127]),
   midi.NoteOnEvent(tick=60, channel=1, data=[40, 0]),
   midi.NoteOnEvent(tick=0, channel=1, data=[40, 127]),
   midi.NoteOnEvent(tick=30, channel=1, data=[40, 0]),
   midi.NoteOnEvent(tick=0, channel=1, data=[40, 127]),
   midi.NoteOnEvent(tick=30, channel=1, data=[40, 0]),
   midi.NoteOnEvent(tick=0, channel=1, data=[60, 127]),
   midi.NoteOnEvent(tick=0, channel=1, data=[55, 127]),
   midi.NoteOnEvent(tick=0, channel=1, data=[48, 127]),
   midi.NoteOnEvent(tick=60, channel=1, data=[60, 0]),
   midi.NoteOnEvent(tick=0, channel=1, data=[55, 0]),
   midi.NoteOnEvent(tick=0, channel=1, data=[48, 0]),
   midi.NoteOnEvent(tick=0, channel=1, data=[40, 127]),
   midi.NoteOnEvent(tick=30, channel=1, data=[40, 0]),
   midi.NoteOnEvent(tick=0, channel=1, data=[40, 127]),
   midi.NoteOnEvent(tick=30, channel=1, data=[40, 0]),
   midi.NoteOnEvent(tick=0, channel=1, data=[40, 127]),
   midi.NoteOnEvent(tick=30, channel=1, data=[40, 0]),
   midi.NoteOnEvent(tick=0, channel=1, data=[40, 127]),
   midi.NoteOnEvent(tick=30, channel=1, data=[40, 0]),
   midi.NoteOnEvent(tick=0, channel=1, data=[59, 127]),
   midi.NoteOnEvent(tick=0, channel=1, data=[52, 127]),
   midi.NoteOnEvent(tick=0, channel=1, data=[47, 127]),
   midi.NoteOnEvent(tick=60, channel=1, data=[59, 0]),
   midi.NoteOnEvent(tick=0, channel=1, data=[52, 0]),
   midi.NoteOnEvent(tick=0, channel=1, data=[47, 0]),
   midi.NoteOnEvent(tick=0, channel=1, data=[40, 127]),
   midi.NoteOnEvent(tick=30, channel=1, data=[40, 0]),
   midi.NoteOnEvent(tick=0, channel=1, data=[40, 127]),
   midi.NoteOnEvent(tick=30, channel=1, data=[40, 0]),
   midi.NoteOnEvent(tick=0, channel=1, data=[40, 127]),
   midi.NoteOnEvent(tick=30, channel=1, data=[40, 0]),
   midi.NoteOnEvent(tick=0, channel=1, data=[40, 127]),
   midi.NoteOnEvent(tick=30, channel=1, data=[40, 0]),
   midi.NoteOnEvent(tick=0, channel=1, data=[57, 127]),
   midi.NoteOnEvent(tick=0, channel=1, data=[52, 127]),
   midi.NoteOnEvent(tick=0, channel=1, data=[45, 127]),
   midi.NoteOnEvent(tick=60, channel=1, data=[57, 0]),
   midi.NoteOnEvent(tick=0, channel=1, data=[52, 0]),
   midi.NoteOnEvent(tick=0, channel=1, data=[45, 0]),
   midi.NoteOnEvent(tick=0, channel=1, data=[40, 127]),
   midi.NoteOnEvent(tick=30, channel=1, data=[40, 0]),
   midi.NoteOnEvent(tick=0, channel=1, data=[40, 127]),
   midi.NoteOnEvent(tick=30, channel=1, data=[40, 0]),
   midi.NoteOnEvent(tick=0, channel=1, data=[40, 127]),
   midi.NoteOnEvent(tick=30, channel=1, data=[40, 0]),
   midi.NoteOnEvent(tick=0, channel=1, data=[40, 127]),
   midi.NoteOnEvent(tick=30, channel=1, data=[40, 0]),
   midi.NoteOnEvent(tick=0, channel=1, data=[40, 127]),
   midi.NoteOnEvent(tick=60, channel=1, data=[40, 0]),
   midi.NoteOnEvent(tick=0, channel=1, data=[40, 127]),
   midi.NoteOnEvent(tick=30, channel=1, data=[40, 0]),
   midi.NoteOnEvent(tick=0, channel=1, data=[40, 127]),
   midi.NoteOnEvent(tick=30, channel=1, data=[40, 0]),
   midi.NoteOnEvent(tick=0, channel=1, data=[41, 127]),
   midi.NoteOnEvent(tick=60, channel=1, data=[41, 0]),
   midi.NoteOnEvent(tick=0, channel=1, data=[41, 127]),
   midi.NoteOnEvent(tick=30, channel=1, data=[41, 0]),
   midi.NoteOnEvent(tick=0, channel=1, data=[41, 127]),
   midi.NoteOnEvent(tick=30, channel=1, data=[41, 0]),
   midi.NoteOnEvent(tick=0, channel=1, data=[40, 127]),
   midi.NoteOnEvent(tick=60, channel=1, data=[40, 0]),
   midi.NoteOnEvent(tick=0, channel=1, data=[40, 127]),
   midi.NoteOnEvent(tick=60, channel=1, data=[40, 0]),
   midi.NoteOnEvent(tick=0, channel=1, data=[40, 127]),
   midi.NoteOnEvent(tick=30, channel=1, data=[40, 0]),
   midi.NoteOnEvent(tick=0, channel=1, data=[40, 127]),
   midi.NoteOnEvent(tick=30, channel=1, data=[40, 0]),
   midi.NoteOnEvent(tick=0, channel=1, data=[57, 127]),
   midi.NoteOnEvent(tick=0, channel=1, data=[52, 127]),
   midi.NoteOnEvent(tick=0, channel=1, data=[45, 127]),
   midi.NoteOnEvent(tick=60, channel=1, data=[57, 0]),
   midi.NoteOnEvent(tick=0, channel=1, data=[52, 0]),
   midi.NoteOnEvent(tick=0, channel=1, data=[45, 0]),
   midi.NoteOnEvent(tick=0, channel=1, data=[40, 127]),
   midi.NoteOnEvent(tick=30, channel=1, data=[40, 0]),
   midi.NoteOnEvent(tick=0, channel=1, data=[40, 127]),
   midi.NoteOnEvent(tick=30, channel=1, data=[40, 0]),
   midi.NoteOnEvent(tick=0, channel=1, data=[40, 127]),
   midi.NoteOnEvent(tick=30, channel=1, data=[40, 0]),
   midi.NoteOnEvent(tick=0, channel=1, data=[40, 127]),
   midi.NoteOnEvent(tick=30, channel=1, data=[40, 0]),
   midi.NoteOnEvent(tick=0, channel=1, data=[59, 127]),
   midi.NoteOnEvent(tick=0, channel=1, data=[52, 127]),
   midi.NoteOnEvent(tick=0, channel=1, data=[47, 127]),
   midi.NoteOnEvent(tick=60, channel=1, data=[59, 0]),
   midi.NoteOnEvent(tick=0, channel=1, data=[52, 0]),
   midi.NoteOnEvent(tick=0, channel=1, data=[47, 0]),
   midi.NoteOnEvent(tick=0, channel=1, data=[40, 127]),
   midi.NoteOnEvent(tick=30, channel=1, data=[40, 0]),
   midi.NoteOnEvent(tick=0, channel=1, data=[40, 127]),
   midi.NoteOnEvent(tick=30, channel=1, data=[40, 0]),
   midi.NoteOnEvent(tick=0, channel=1, data=[40, 127]),
   midi.NoteOnEvent(tick=30, channel=1, data=[40, 0]),
   midi.NoteOnEvent(tick=0, channel=1, data=[40, 127]),
   midi.NoteOnEvent(tick=30, channel=1, data=[40, 0]),
   midi.NoteOnEvent(tick=0, channel=1, data=[60, 127]),
   midi.NoteOnEvent(tick=0, channel=1, data=[55, 127]),
   midi.NoteOnEvent(tick=0, channel=1, data=[48, 127]),
   midi.NoteOnEvent(tick=60, channel=1, data=[60, 0]),
   midi.NoteOnEvent(tick=0, channel=1, data=[55, 0]),
   midi.NoteOnEvent(tick=0, channel=1, data=[48, 0]),
   midi.NoteOnEvent(tick=0, channel=1, data=[40, 127]),
   midi.NoteOnEvent(tick=30, channel=1, data=[40, 0]),
   midi.NoteOnEvent(tick=0, channel=1, data=[40, 127]),
   midi.NoteOnEvent(tick=30, channel=1, data=[40, 0]),
   midi.NoteOnEvent(tick=0, channel=1, data=[40, 127]),
   midi.NoteOnEvent(tick=30, channel=1, data=[40, 0]),
   midi.NoteOnEvent(tick=0, channel=1, data=[40, 127]),
   midi.NoteOnEvent(tick=30, channel=1, data=[40, 0]),
   midi.NoteOnEvent(tick=0, channel=1, data=[40, 127]),
   midi.NoteOnEvent(tick=60, channel=1, data=[40, 0]),
   midi.NoteOnEvent(tick=0, channel=1, data=[40, 127]),
   midi.NoteOnEvent(tick=30, channel=1, data=[40, 0]),
   midi.NoteOnEvent(tick=0, channel=1, data=[40, 127]),
   midi.NoteOnEvent(tick=30, channel=1, data=[40, 0]),
   midi.NoteOnEvent(tick=0, channel=1, data=[41, 127]),
   midi.NoteOnEvent(tick=60, channel=1, data=[41, 0]),
   midi.NoteOnEvent(tick=0, channel=1, data=[41, 127]),
   midi.NoteOnEvent(tick=30, channel=1, data=[41, 0]),
   midi.NoteOnEvent(tick=0, channel=1, data=[41, 127]),
   midi.NoteOnEvent(tick=30, channel=1, data=[41, 0]),
   midi.NoteOnEvent(tick=0, channel=1, data=[40, 127]),
   midi.NoteOnEvent(tick=60, channel=1, data=[40, 0]),
   midi.NoteOnEvent(tick=0, channel=1, data=[40, 127]),
   midi.NoteOnEvent(tick=60, channel=1, data=[40, 0]),
   midi.NoteOnEvent(tick=0, channel=1, data=[40, 127]),
   midi.NoteOnEvent(tick=30, channel=1, data=[40, 0]),
   midi.NoteOnEvent(tick=0, channel=1, data=[40, 127]),
   midi.NoteOnEvent(tick=30, channel=1, data=[40, 0]),
   midi.NoteOnEvent(tick=0, channel=1, data=[60, 127]),
   midi.NoteOnEvent(tick=0, channel=1, data=[55, 127]),
   midi.NoteOnEvent(tick=0, channel=1, data=[48, 127]),
   midi.NoteOnEvent(tick=60, channel=1, data=[60, 0]),
   midi.NoteOnEvent(tick=0, channel=1, data=[55, 0]),
   midi.NoteOnEvent(tick=0, channel=1, data=[48, 0]),
   midi.NoteOnEvent(tick=0, channel=1, data=[40, 127]),
   midi.NoteOnEvent(tick=30, channel=1, data=[40, 0]),
   midi.NoteOnEvent(tick=0, channel=1, data=[40, 127]),
   midi.NoteOnEvent(tick=30, channel=1, data=[40, 0]),
   midi.NoteOnEvent(tick=0, channel=1, data=[40, 127]),
   midi.NoteOnEvent(tick=30, channel=1, data=[40, 0]),
   midi.NoteOnEvent(tick=0, channel=1, data=[40, 127]),
   midi.NoteOnEvent(tick=30, channel=1, data=[40, 0]),
   midi.NoteOnEvent(tick=0, channel=1, data=[59, 127]),
   midi.NoteOnEvent(tick=0, channel=1, data=[52, 127]),
   midi.NoteOnEvent(tick=0, channel=1, data=[47, 127]),
   midi.NoteOnEvent(tick=60, channel=1, data=[59, 0]),
   midi.NoteOnEvent(tick=0, channel=1, data=[52, 0]),
   midi.NoteOnEvent(tick=0, channel=1, data=[47, 0]),
   midi.NoteOnEvent(tick=0, channel=1, data=[40, 127]),
   midi.NoteOnEvent(tick=30, channel=1, data=[40, 0]),
   midi.NoteOnEvent(tick=0, channel=1, data=[40, 127]),
   midi.NoteOnEvent(tick=30, channel=1, data=[40, 0]),
   midi.NoteOnEvent(tick=0, channel=1, data=[40, 127]),
   midi.NoteOnEvent(tick=30, channel=1, data=[40, 0]),
   midi.NoteOnEvent(tick=0, channel=1, data=[40, 127]),
   midi.NoteOnEvent(tick=30, channel=1, data=[40, 0]),
   midi.NoteOnEvent(tick=0, channel=1, data=[57, 127]),
   midi.NoteOnEvent(tick=0, channel=1, data=[52, 127]),
   midi.NoteOnEvent(tick=0, channel=1, data=[45, 127]),
   midi.NoteOnEvent(tick=60, channel=1, data=[57, 0]),
   midi.NoteOnEvent(tick=0, channel=1, data=[52, 0]),
   midi.NoteOnEvent(tick=0, channel=1, data=[45, 0]),
   midi.NoteOnEvent(tick=0, channel=1, data=[40, 127]),
   midi.NoteOnEvent(tick=30, channel=1, data=[40, 0]),
   midi.NoteOnEvent(tick=0, channel=1, data=[40, 127]),
   midi.NoteOnEvent(tick=30, channel=1, data=[40, 0]),
   midi.NoteOnEvent(tick=0, channel=1, data=[40, 127]),
   midi.NoteOnEvent(tick=30, channel=1, data=[40, 0]),
   midi.NoteOnEvent(tick=0, channel=1, data=[40, 127]),
   midi.NoteOnEvent(tick=30, channel=1, data=[40, 0]),
   midi.NoteOnEvent(tick=0, channel=1, data=[40, 127]),
   midi.NoteOnEvent(tick=60, channel=1, data=[40, 0]),
   midi.NoteOnEvent(tick=0, channel=1, data=[40, 127]),
   midi.NoteOnEvent(tick=30, channel=1, data=[40, 0]),
   midi.NoteOnEvent(tick=0, channel=1, data=[40, 127]),
   midi.NoteOnEvent(tick=30, channel=1, data=[40, 0]),
   midi.NoteOnEvent(tick=0, channel=1, data=[41, 127]),
   midi.NoteOnEvent(tick=60, channel=1, data=[41, 0]),
   midi.NoteOnEvent(tick=0, channel=1, data=[41, 127]),
   midi.NoteOnEvent(tick=30, channel=1, data=[41, 0]),
   midi.NoteOnEvent(tick=0, channel=1, data=[41, 127]),
   midi.NoteOnEvent(tick=30, channel=1, data=[41, 0]),
   midi.NoteOnEvent(tick=0, channel=1, data=[40, 127]),
   midi.NoteOnEvent(tick=60, channel=1, data=[40, 0]),
   midi.NoteOnEvent(tick=0, channel=1, data=[52, 127]),
   midi.NoteOnEvent(tick=0, channel=1, data=[55, 127]),
   midi.NoteOnEvent(tick=60, channel=1, data=[52, 0]),
   midi.NoteOnEvent(tick=0, channel=1, data=[55, 0]),
   midi.NoteOnEvent(tick=0, channel=1, data=[40, 127]),
   midi.NoteOnEvent(tick=60, channel=1, data=[40, 0]),
   midi.NoteOnEvent(tick=0, channel=1, data=[40, 127]),
   midi.NoteOnEvent(tick=60, channel=1, data=[40, 0]),
   midi.NoteOnEvent(tick=0, channel=1, data=[55, 127]),
   midi.NoteOnEvent(tick=0, channel=1, data=[52, 127]),
   midi.NoteOnEvent(tick=60, channel=1, data=[55, 0]),
   midi.NoteOnEvent(tick=0, channel=1, data=[52, 0]),
   midi.NoteOnEvent(tick=0, channel=1, data=[40, 127]),
   midi.NoteOnEvent(tick=60, channel=1, data=[40, 0]),
   midi.NoteOnEvent(tick=0, channel=1, data=[40, 127]),
   midi.NoteOnEvent(tick=60, channel=1, data=[40, 0]),
   midi.NoteOnEvent(tick=0, channel=1, data=[55, 127]),
   midi.NoteOnEvent(tick=0, channel=1, data=[52, 127]),
   midi.NoteOnEvent(tick=60, channel=1, data=[55, 0]),
   midi.NoteOnEvent(tick=0, channel=1, data=[52, 0]),
   midi.NoteOnEvent(tick=0, channel=1, data=[40, 127]),
   midi.NoteOnEvent(tick=60, channel=1, data=[40, 0]),
   midi.NoteOnEvent(tick=0, channel=1, data=[54, 127]),
   midi.NoteOnEvent(tick=0, channel=1, data=[52, 127]),
   midi.NoteOnEvent(tick=60, channel=1, data=[54, 0]),
   midi.NoteOnEvent(tick=0, channel=1, data=[52, 0]),
   midi.NoteOnEvent(tick=0, channel=1, data=[40, 127]),
   midi.NoteOnEvent(tick=60, channel=1, data=[40, 0]),
   midi.NoteOnEvent(tick=0, channel=1, data=[40, 127]),
   midi.NoteOnEvent(tick=60, channel=1, data=[40, 0]),
   midi.NoteOnEvent(tick=0, channel=1, data=[55, 127]),
   midi.NoteOnEvent(tick=0, channel=1, data=[52, 127]),
   midi.NoteOnEvent(tick=60, channel=1, data=[55, 0]),
   midi.NoteOnEvent(tick=0, channel=1, data=[52, 0]),
   midi.NoteOnEvent(tick=0, channel=1, data=[40, 127]),
   midi.NoteOnEvent(tick=60, channel=1, data=[40, 0]),
   midi.NoteOnEvent(tick=0, channel=1, data=[40, 127]),
   midi.NoteOnEvent(tick=60, channel=1, data=[40, 0]),
   midi.NoteOnEvent(tick=0, channel=1, data=[55, 127]),
   midi.NoteOnEvent(tick=0, channel=1, data=[52, 127]),
   midi.NoteOnEvent(tick=60, channel=1, data=[55, 0]),
   midi.NoteOnEvent(tick=0, channel=1, data=[52, 0]),
   midi.NoteOnEvent(tick=0, channel=1, data=[40, 127]),
   midi.NoteOnEvent(tick=60, channel=1, data=[40, 0]),
   midi.NoteOnEvent(tick=0, channel=1, data=[50, 127]),
   midi.NoteOnEvent(tick=0, channel=1, data=[54, 127]),
   midi.NoteOnEvent(tick=60, channel=1, data=[50, 0]),
   midi.NoteOnEvent(tick=0, channel=1, data=[54, 0]),
   midi.NoteOnEvent(tick=0, channel=1, data=[47, 127]),
   midi.NoteOnEvent(tick=60, channel=1, data=[47, 0]),
   midi.NoteOnEvent(tick=0, channel=1, data=[47, 127]),
   midi.NoteOnEvent(tick=60, channel=1, data=[47, 0]),
   midi.NoteOnEvent(tick=0, channel=1, data=[54, 127]),
   midi.NoteOnEvent(tick=0, channel=1, data=[50, 127]),
   midi.NoteOnEvent(tick=60, channel=1, data=[54, 0]),
   midi.NoteOnEvent(tick=0, channel=1, data=[50, 0]),
   midi.NoteOnEvent(tick=0, channel=1, data=[47, 127]),
   midi.NoteOnEvent(tick=60, channel=1, data=[47, 0]),
   midi.NoteOnEvent(tick=0, channel=1, data=[47, 127]),
   midi.NoteOnEvent(tick=60, channel=1, data=[47, 0]),
   midi.NoteOnEvent(tick=0, channel=1, data=[54, 127]),
   midi.NoteOnEvent(tick=0, channel=1, data=[50, 127]),
   midi.NoteOnEvent(tick=60, channel=1, data=[54, 0]),
   midi.NoteOnEvent(tick=0, channel=1, data=[50, 0]),
   midi.NoteOnEvent(tick=0, channel=1, data=[50, 127]),
   midi.NoteOnEvent(tick=0, channel=1, data=[54, 127]),
   midi.NoteOnEvent(tick=60, channel=1, data=[50, 0]),
   midi.NoteOnEvent(tick=0, channel=1, data=[54, 0]),
   midi.NoteOnEvent(tick=0, channel=1, data=[54, 127]),
   midi.NoteOnEvent(tick=0, channel=1, data=[51, 127]),
   midi.NoteOnEvent(tick=60, channel=1, data=[54, 0]),
   midi.NoteOnEvent(tick=0, channel=1, data=[51, 0]),
   midi.NoteOnEvent(tick=0, channel=1, data=[47, 127]),
   midi.NoteOnEvent(tick=60, channel=1, data=[47, 0]),
   midi.NoteOnEvent(tick=0, channel=1, data=[47, 127]),
   midi.NoteOnEvent(tick=60, channel=1, data=[47, 0]),
   midi.NoteOnEvent(tick=0, channel=1, data=[54, 127]),
   midi.NoteOnEvent(tick=0, channel=1, data=[51, 127]),
   midi.NoteOnEvent(tick=60, channel=1, data=[54, 0]),
   midi.NoteOnEvent(tick=0, channel=1, data=[51, 0]),
   midi.NoteOnEvent(tick=0, channel=1, data=[47, 127]),
   midi.NoteOnEvent(tick=60, channel=1, data=[47, 0]),
   midi.NoteOnEvent(tick=0, channel=1, data=[47, 127]),
   midi.NoteOnEvent(tick=60, channel=1, data=[47, 0]),
   midi.NoteOnEvent(tick=0, channel=1, data=[54, 127]),
   midi.NoteOnEvent(tick=0, channel=1, data=[51, 127]),
   midi.NoteOnEvent(tick=60, channel=1, data=[54, 0]),
   midi.NoteOnEvent(tick=0, channel=1, data=[51, 0]),
   midi.NoteOnEvent(tick=0, channel=1, data=[51, 127]),
   midi.NoteOnEvent(tick=0, channel=1, data=[54, 127]),
   midi.NoteOnEvent(tick=60, channel=1, data=[51, 0]),
   midi.NoteOnEvent(tick=0, channel=1, data=[54, 0]),
   midi.NoteOnEvent(tick=0, channel=1, data=[52, 127]),
   midi.NoteOnEvent(tick=0, channel=1, data=[55, 127]),
   midi.NoteOnEvent(tick=60, channel=1, data=[52, 0]),
   midi.NoteOnEvent(tick=0, channel=1, data=[55, 0]),
   midi.NoteOnEvent(tick=0, channel=1, data=[40, 127]),
   midi.NoteOnEvent(tick=60, channel=1, data=[40, 0]),
   midi.NoteOnEvent(tick=0, channel=1, data=[40, 127]),
   midi.NoteOnEvent(tick=60, channel=1, data=[40, 0]),
   midi.NoteOnEvent(tick=0, channel=1, data=[55, 127]),
   midi.NoteOnEvent(tick=0, channel=1, data=[52, 127]),
   midi.NoteOnEvent(tick=60, channel=1, data=[55, 0]),
   midi.NoteOnEvent(tick=0, channel=1, data=[52, 0]),
   midi.NoteOnEvent(tick=0, channel=1, data=[40, 127]),
   midi.NoteOnEvent(tick=60, channel=1, data=[40, 0]),
   midi.NoteOnEvent(tick=0, channel=1, data=[40, 127]),
   midi.NoteOnEvent(tick=60, channel=1, data=[40, 0]),
   midi.NoteOnEvent(tick=0, channel=1, data=[55, 127]),
   midi.NoteOnEvent(tick=0, channel=1, data=[52, 127]),
   midi.NoteOnEvent(tick=60, channel=1, data=[55, 0]),
   midi.NoteOnEvent(tick=0, channel=1, data=[52, 0]),
   midi.NoteOnEvent(tick=0, channel=1, data=[40, 127]),
   midi.NoteOnEvent(tick=60, channel=1, data=[40, 0]),
   midi.NoteOnEvent(tick=0, channel=1, data=[54, 127]),
   midi.NoteOnEvent(tick=0, channel=1, data=[52, 127]),
   midi.NoteOnEvent(tick=60, channel=1, data=[54, 0]),
   midi.NoteOnEvent(tick=0, channel=1, data=[52, 0]),
   midi.NoteOnEvent(tick=0, channel=1, data=[40, 127]),
   midi.NoteOnEvent(tick=60, channel=1, data=[40, 0]),
   midi.NoteOnEvent(tick=0, channel=1, data=[40, 127]),
   midi.NoteOnEvent(tick=60, channel=1, data=[40, 0]),
   midi.NoteOnEvent(tick=0, channel=1, data=[55, 127]),
   midi.NoteOnEvent(tick=0, channel=1, data=[52, 127]),
   midi.NoteOnEvent(tick=60, channel=1, data=[55, 0]),
   midi.NoteOnEvent(tick=0, channel=1, data=[52, 0]),
   midi.NoteOnEvent(tick=0, channel=1, data=[40, 127]),
   midi.NoteOnEvent(tick=60, channel=1, data=[40, 0]),
   midi.NoteOnEvent(tick=0, channel=1, data=[40, 127]),
   midi.NoteOnEvent(tick=60, channel=1, data=[40, 0]),
   midi.NoteOnEvent(tick=0, channel=1, data=[55, 127]),
   midi.NoteOnEvent(tick=0, channel=1, data=[52, 127]),
   midi.NoteOnEvent(tick=60, channel=1, data=[55, 0]),
   midi.NoteOnEvent(tick=0, channel=1, data=[52, 0]),
   midi.NoteOnEvent(tick=0, channel=1, data=[40, 127]),
   midi.NoteOnEvent(tick=60, channel=1, data=[40, 0]),
   midi.NoteOnEvent(tick=0, channel=1, data=[50, 127]),
   midi.NoteOnEvent(tick=0, channel=1, data=[54, 127]),
   midi.NoteOnEvent(tick=60, channel=1, data=[50, 0]),
   midi.NoteOnEvent(tick=0, channel=1, data=[54, 0]),
   midi.NoteOnEvent(tick=0, channel=1, data=[47, 127]),
   midi.NoteOnEvent(tick=60, channel=1, data=[47, 0]),
   midi.NoteOnEvent(tick=0, channel=1, data=[47, 127]),
   midi.NoteOnEvent(tick=60, channel=1, data=[47, 0]),
   midi.NoteOnEvent(tick=0, channel=1, data=[54, 127]),
   midi.NoteOnEvent(tick=0, channel=1, data=[50, 127]),
   midi.NoteOnEvent(tick=60, channel=1, data=[54, 0]),
   midi.NoteOnEvent(tick=0, channel=1, data=[50, 0]),
   midi.NoteOnEvent(tick=0, channel=1, data=[47, 127]),
   midi.NoteOnEvent(tick=60, channel=1, data=[47, 0]),
   midi.NoteOnEvent(tick=0, channel=1, data=[47, 127]),
   midi.NoteOnEvent(tick=60, channel=1, data=[47, 0]),
   midi.NoteOnEvent(tick=0, channel=1, data=[54, 127]),
   midi.NoteOnEvent(tick=0, channel=1, data=[50, 127]),
   midi.NoteOnEvent(tick=60, channel=1, data=[54, 0]),
   midi.NoteOnEvent(tick=0, channel=1, data=[50, 0]),
   midi.NoteOnEvent(tick=0, channel=1, data=[50, 127]),
   midi.NoteOnEvent(tick=0, channel=1, data=[54, 127]),
   midi.NoteOnEvent(tick=60, channel=1, data=[50, 0]),
   midi.NoteOnEvent(tick=0, channel=1, data=[54, 0]),
   midi.NoteOnEvent(tick=0, channel=1, data=[54, 127]),
   midi.NoteOnEvent(tick=0, channel=1, data=[51, 127]),
   midi.NoteOnEvent(tick=60, channel=1, data=[54, 0]),
   midi.NoteOnEvent(tick=0, channel=1, data=[51, 0]),
   midi.NoteOnEvent(tick=0, channel=1, data=[47, 127]),
   midi.NoteOnEvent(tick=60, channel=1, data=[47, 0]),
   midi.NoteOnEvent(tick=0, channel=1, data=[47, 127]),
   midi.NoteOnEvent(tick=60, channel=1, data=[47, 0]),
   midi.NoteOnEvent(tick=0, channel=1, data=[54, 127]),
   midi.NoteOnEvent(tick=0, channel=1, data=[51, 127]),
   midi.NoteOnEvent(tick=60, channel=1, data=[54, 0]),
   midi.NoteOnEvent(tick=0, channel=1, data=[51, 0]),
   midi.NoteOnEvent(tick=0, channel=1, data=[47, 127]),
   midi.NoteOnEvent(tick=60, channel=1, data=[47, 0]),
   midi.NoteOnEvent(tick=0, channel=1, data=[47, 127]),
   midi.NoteOnEvent(tick=60, channel=1, data=[47, 0]),
   midi.NoteOnEvent(tick=0, channel=1, data=[54, 127]),
   midi.NoteOnEvent(tick=0, channel=1, data=[51, 127]),
   midi.NoteOnEvent(tick=60, channel=1, data=[54, 0]),
   midi.NoteOnEvent(tick=0, channel=1, data=[51, 0]),
   midi.NoteOnEvent(tick=0, channel=1, data=[51, 127]),
   midi.NoteOnEvent(tick=0, channel=1, data=[54, 127]),
   midi.NoteOnEvent(tick=60, channel=1, data=[51, 0]),
   midi.NoteOnEvent(tick=0, channel=1, data=[54, 0]),
   midi.NoteOnEvent(tick=0, channel=1, data=[52, 127]),
   midi.NoteOnEvent(tick=0, channel=1, data=[55, 127]),
   midi.NoteOnEvent(tick=60, channel=1, data=[52, 0]),
   midi.NoteOnEvent(tick=0, channel=1, data=[55, 0]),
   midi.NoteOnEvent(tick=0, channel=1, data=[40, 127]),
   midi.NoteOnEvent(tick=60, channel=1, data=[40, 0]),
   midi.NoteOnEvent(tick=0, channel=1, data=[40, 127]),
   midi.NoteOnEvent(tick=60, channel=1, data=[40, 0]),
   midi.NoteOnEvent(tick=0, channel=1, data=[55, 127]),
   midi.NoteOnEvent(tick=0, channel=1, data=[52, 127]),
   midi.NoteOnEvent(tick=60, channel=1, data=[55, 0]),
   midi.NoteOnEvent(tick=0, channel=1, data=[52, 0]),
   midi.NoteOnEvent(tick=0, channel=1, data=[40, 127]),
   midi.NoteOnEvent(tick=60, channel=1, data=[40, 0]),
   midi.NoteOnEvent(tick=0, channel=1, data=[40, 127]),
   midi.NoteOnEvent(tick=60, channel=1, data=[40, 0]),
   midi.NoteOnEvent(tick=0, channel=1, data=[55, 127]),
   midi.NoteOnEvent(tick=0, channel=1, data=[52, 127]),
   midi.NoteOnEvent(tick=60, channel=1, data=[55, 0]),
   midi.NoteOnEvent(tick=0, channel=1, data=[52, 0]),
   midi.NoteOnEvent(tick=0, channel=1, data=[40, 127]),
   midi.NoteOnEvent(tick=60, channel=1, data=[40, 0]),
   midi.NoteOnEvent(tick=0, channel=1, data=[54, 127]),
   midi.NoteOnEvent(tick=0, channel=1, data=[52, 127]),
   midi.NoteOnEvent(tick=60, channel=1, data=[54, 0]),
   midi.NoteOnEvent(tick=0, channel=1, data=[52, 0]),
   midi.NoteOnEvent(tick=0, channel=1, data=[40, 127]),
   midi.NoteOnEvent(tick=60, channel=1, data=[40, 0]),
   midi.NoteOnEvent(tick=0, channel=1, data=[40, 127]),
   midi.NoteOnEvent(tick=60, channel=1, data=[40, 0]),
   midi.NoteOnEvent(tick=0, channel=1, data=[55, 127]),
   midi.NoteOnEvent(tick=0, channel=1, data=[52, 127]),
   midi.NoteOnEvent(tick=60, channel=1, data=[55, 0]),
   midi.NoteOnEvent(tick=0, channel=1, data=[52, 0]),
   midi.NoteOnEvent(tick=0, channel=1, data=[40, 127]),
   midi.NoteOnEvent(tick=60, channel=1, data=[40, 0]),
   midi.NoteOnEvent(tick=0, channel=1, data=[40, 127]),
   midi.NoteOnEvent(tick=60, channel=1, data=[40, 0]),
   midi.NoteOnEvent(tick=0, channel=1, data=[55, 127]),
   midi.NoteOnEvent(tick=0, channel=1, data=[52, 127]),
   midi.NoteOnEvent(tick=60, channel=1, data=[55, 0]),
   midi.NoteOnEvent(tick=0, channel=1, data=[52, 0]),
   midi.NoteOnEvent(tick=0, channel=1, data=[40, 127]),
   midi.NoteOnEvent(tick=60, channel=1, data=[40, 0]),
   midi.NoteOnEvent(tick=0, channel=1, data=[50, 127]),
   midi.NoteOnEvent(tick=0, channel=1, data=[54, 127]),
   midi.NoteOnEvent(tick=60, channel=1, data=[50, 0]),
   midi.NoteOnEvent(tick=0, channel=1, data=[54, 0]),
   midi.NoteOnEvent(tick=0, channel=1, data=[47, 127]),
   midi.NoteOnEvent(tick=60, channel=1, data=[47, 0]),
   midi.NoteOnEvent(tick=0, channel=1, data=[47, 127]),
   midi.NoteOnEvent(tick=60, channel=1, data=[47, 0]),
   midi.NoteOnEvent(tick=0, channel=1, data=[54, 127]),
   midi.NoteOnEvent(tick=0, channel=1, data=[50, 127]),
   midi.NoteOnEvent(tick=60, channel=1, data=[54, 0]),
   midi.NoteOnEvent(tick=0, channel=1, data=[50, 0]),
   midi.NoteOnEvent(tick=0, channel=1, data=[47, 127]),
   midi.NoteOnEvent(tick=60, channel=1, data=[47, 0]),
   midi.NoteOnEvent(tick=0, channel=1, data=[47, 127]),
   midi.NoteOnEvent(tick=60, channel=1, data=[47, 0]),
   midi.NoteOnEvent(tick=0, channel=1, data=[54, 127]),
   midi.NoteOnEvent(tick=0, channel=1, data=[50, 127]),
   midi.NoteOnEvent(tick=60, channel=1, data=[54, 0]),
   midi.NoteOnEvent(tick=0, channel=1, data=[50, 0]),
   midi.NoteOnEvent(tick=0, channel=1, data=[50, 127]),
   midi.NoteOnEvent(tick=0, channel=1, data=[54, 127]),
   midi.NoteOnEvent(tick=60, channel=1, data=[50, 0]),
   midi.NoteOnEvent(tick=0, channel=1, data=[54, 0]),
   midi.NoteOnEvent(tick=0, channel=1, data=[54, 127]),
   midi.NoteOnEvent(tick=0, channel=1, data=[51, 127]),
   midi.NoteOnEvent(tick=60, channel=1, data=[54, 0]),
   midi.NoteOnEvent(tick=0, channel=1, data=[51, 0]),
   midi.NoteOnEvent(tick=0, channel=1, data=[47, 127]),
   midi.NoteOnEvent(tick=60, channel=1, data=[47, 0]),
   midi.NoteOnEvent(tick=0, channel=1, data=[47, 127]),
   midi.NoteOnEvent(tick=60, channel=1, data=[47, 0]),
   midi.NoteOnEvent(tick=0, channel=1, data=[54, 127]),
   midi.NoteOnEvent(tick=0, channel=1, data=[51, 127]),
   midi.NoteOnEvent(tick=60, channel=1, data=[54, 0]),
   midi.NoteOnEvent(tick=0, channel=1, data=[51, 0]),
   midi.NoteOnEvent(tick=0, channel=1, data=[47, 127]),
   midi.NoteOnEvent(tick=60, channel=1, data=[47, 0]),
   midi.NoteOnEvent(tick=0, channel=1, data=[47, 127]),
   midi.NoteOnEvent(tick=60, channel=1, data=[47, 0]),
   midi.NoteOnEvent(tick=0, channel=1, data=[54, 127]),
   midi.NoteOnEvent(tick=0, channel=1, data=[51, 127]),
   midi.NoteOnEvent(tick=60, channel=1, data=[54, 0]),
   midi.NoteOnEvent(tick=0, channel=1, data=[51, 0]),
   midi.NoteOnEvent(tick=0, channel=1, data=[51, 127]),
   midi.NoteOnEvent(tick=0, channel=1, data=[54, 127]),
   midi.NoteOnEvent(tick=60, channel=1, data=[51, 0]),
   midi.NoteOnEvent(tick=0, channel=1, data=[54, 0]),
   midi.NoteOnEvent(tick=0, channel=1, data=[52, 127]),
   midi.NoteOnEvent(tick=0, channel=1, data=[55, 127]),
   midi.NoteOnEvent(tick=60, channel=1, data=[52, 0]),
   midi.NoteOnEvent(tick=0, channel=1, data=[55, 0]),
   midi.NoteOnEvent(tick=0, channel=1, data=[40, 127]),
   midi.NoteOnEvent(tick=60, channel=1, data=[40, 0]),
   midi.NoteOnEvent(tick=0, channel=1, data=[40, 127]),
   midi.NoteOnEvent(tick=60, channel=1, data=[40, 0]),
   midi.NoteOnEvent(tick=0, channel=1, data=[55, 127]),
   midi.NoteOnEvent(tick=0, channel=1, data=[52, 127]),
   midi.NoteOnEvent(tick=60, channel=1, data=[55, 0]),
   midi.NoteOnEvent(tick=0, channel=1, data=[52, 0]),
   midi.NoteOnEvent(tick=0, channel=1, data=[40, 127]),
   midi.NoteOnEvent(tick=60, channel=1, data=[40, 0]),
   midi.NoteOnEvent(tick=0, channel=1, data=[40, 127]),
   midi.NoteOnEvent(tick=60, channel=1, data=[40, 0]),
   midi.NoteOnEvent(tick=0, channel=1, data=[55, 127]),
   midi.NoteOnEvent(tick=0, channel=1, data=[52, 127]),
   midi.NoteOnEvent(tick=60, channel=1, data=[55, 0]),
   midi.NoteOnEvent(tick=0, channel=1, data=[52, 0]),
   midi.NoteOnEvent(tick=0, channel=1, data=[40, 127]),
   midi.NoteOnEvent(tick=60, channel=1, data=[40, 0]),
   midi.NoteOnEvent(tick=0, channel=1, data=[54, 127]),
   midi.NoteOnEvent(tick=0, channel=1, data=[52, 127]),
   midi.NoteOnEvent(tick=60, channel=1, data=[54, 0]),
   midi.NoteOnEvent(tick=0, channel=1, data=[52, 0]),
   midi.NoteOnEvent(tick=0, channel=1, data=[40, 127]),
   midi.NoteOnEvent(tick=60, channel=1, data=[40, 0]),
   midi.NoteOnEvent(tick=0, channel=1, data=[40, 127]),
   midi.NoteOnEvent(tick=60, channel=1, data=[40, 0]),
   midi.NoteOnEvent(tick=0, channel=1, data=[55, 127]),
   midi.NoteOnEvent(tick=0, channel=1, data=[52, 127]),
   midi.NoteOnEvent(tick=60, channel=1, data=[55, 0]),
   midi.NoteOnEvent(tick=0, channel=1, data=[52, 0]),
   midi.NoteOnEvent(tick=0, channel=1, data=[40, 127]),
   midi.NoteOnEvent(tick=60, channel=1, data=[40, 0]),
   midi.NoteOnEvent(tick=0, channel=1, data=[40, 127]),
   midi.NoteOnEvent(tick=60, channel=1, data=[40, 0]),
   midi.NoteOnEvent(tick=0, channel=1, data=[55, 127]),
   midi.NoteOnEvent(tick=0, channel=1, data=[52, 127]),
   midi.NoteOnEvent(tick=60, channel=1, data=[55, 0]),
   midi.NoteOnEvent(tick=0, channel=1, data=[52, 0]),
   midi.NoteOnEvent(tick=0, channel=1, data=[40, 127]),
   midi.NoteOnEvent(tick=60, channel=1, data=[40, 0]),
   midi.NoteOnEvent(tick=0, channel=1, data=[50, 127]),
   midi.NoteOnEvent(tick=0, channel=1, data=[54, 127]),
   midi.NoteOnEvent(tick=60, channel=1, data=[50, 0]),
   midi.NoteOnEvent(tick=0, channel=1, data=[54, 0]),
   midi.NoteOnEvent(tick=0, channel=1, data=[47, 127]),
   midi.NoteOnEvent(tick=60, channel=1, data=[47, 0]),
   midi.NoteOnEvent(tick=0, channel=1, data=[47, 127]),
   midi.NoteOnEvent(tick=60, channel=1, data=[47, 0]),
   midi.NoteOnEvent(tick=0, channel=1, data=[54, 127]),
   midi.NoteOnEvent(tick=0, channel=1, data=[50, 127]),
   midi.NoteOnEvent(tick=60, channel=1, data=[54, 0]),
   midi.NoteOnEvent(tick=0, channel=1, data=[50, 0]),
   midi.NoteOnEvent(tick=0, channel=1, data=[47, 127]),
   midi.NoteOnEvent(tick=60, channel=1, data=[47, 0]),
   midi.NoteOnEvent(tick=0, channel=1, data=[47, 127]),
   midi.NoteOnEvent(tick=60, channel=1, data=[47, 0]),
   midi.NoteOnEvent(tick=0, channel=1, data=[54, 127]),
   midi.NoteOnEvent(tick=0, channel=1, data=[50, 127]),
   midi.NoteOnEvent(tick=60, channel=1, data=[54, 0]),
   midi.NoteOnEvent(tick=0, channel=1, data=[50, 0]),
   midi.NoteOnEvent(tick=0, channel=1, data=[50, 127]),
   midi.NoteOnEvent(tick=0, channel=1, data=[54, 127]),
   midi.NoteOnEvent(tick=60, channel=1, data=[50, 0]),
   midi.NoteOnEvent(tick=0, channel=1, data=[54, 0]),
   midi.NoteOnEvent(tick=0, channel=1, data=[54, 127]),
   midi.NoteOnEvent(tick=0, channel=1, data=[51, 127]),
   midi.NoteOnEvent(tick=60, channel=1, data=[54, 0]),
   midi.NoteOnEvent(tick=0, channel=1, data=[51, 0]),
   midi.NoteOnEvent(tick=0, channel=1, data=[47, 127]),
   midi.NoteOnEvent(tick=60, channel=1, data=[47, 0]),
   midi.NoteOnEvent(tick=0, channel=1, data=[47, 127]),
   midi.NoteOnEvent(tick=60, channel=1, data=[47, 0]),
   midi.NoteOnEvent(tick=0, channel=1, data=[54, 127]),
   midi.NoteOnEvent(tick=0, channel=1, data=[51, 127]),
   midi.NoteOnEvent(tick=60, channel=1, data=[54, 0]),
   midi.NoteOnEvent(tick=0, channel=1, data=[51, 0]),
   midi.NoteOnEvent(tick=0, channel=1, data=[47, 127]),
   midi.NoteOnEvent(tick=60, channel=1, data=[47, 0]),
   midi.NoteOnEvent(tick=0, channel=1, data=[47, 127]),
   midi.NoteOnEvent(tick=60, channel=1, data=[47, 0]),
   midi.NoteOnEvent(tick=0, channel=1, data=[54, 127]),
   midi.NoteOnEvent(tick=0, channel=1, data=[51, 127]),
   midi.NoteOnEvent(tick=60, channel=1, data=[54, 0]),
   midi.NoteOnEvent(tick=0, channel=1, data=[51, 0]),
   midi.NoteOnEvent(tick=0, channel=1, data=[51, 127]),
   midi.NoteOnEvent(tick=0, channel=1, data=[54, 127]),
   midi.NoteOnEvent(tick=60, channel=1, data=[51, 0]),
   midi.NoteOnEvent(tick=0, channel=1, data=[54, 0]),
   midi.NoteOnEvent(tick=0, channel=1, data=[52, 127]),
   midi.NoteOnEvent(tick=0, channel=1, data=[55, 127]),
   midi.NoteOnEvent(tick=60, channel=1, data=[52, 0]),
   midi.NoteOnEvent(tick=0, channel=1, data=[55, 0]),
   midi.NoteOnEvent(tick=0, channel=1, data=[40, 127]),
   midi.NoteOnEvent(tick=60, channel=1, data=[40, 0]),
   midi.NoteOnEvent(tick=0, channel=1, data=[40, 127]),
   midi.NoteOnEvent(tick=60, channel=1, data=[40, 0]),
   midi.NoteOnEvent(tick=0, channel=1, data=[55, 127]),
   midi.NoteOnEvent(tick=0, channel=1, data=[52, 127]),
   midi.NoteOnEvent(tick=60, channel=1, data=[55, 0]),
   midi.NoteOnEvent(tick=0, channel=1, data=[52, 0]),
   midi.NoteOnEvent(tick=0, channel=1, data=[40, 127]),
   midi.NoteOnEvent(tick=60, channel=1, data=[40, 0]),
   midi.NoteOnEvent(tick=0, channel=1, data=[40, 127]),
   midi.NoteOnEvent(tick=60, channel=1, data=[40, 0]),
   midi.NoteOnEvent(tick=0, channel=1, data=[55, 127]),
   midi.NoteOnEvent(tick=0, channel=1, data=[52, 127]),
   midi.NoteOnEvent(tick=60, channel=1, data=[55, 0]),
   midi.NoteOnEvent(tick=0, channel=1, data=[52, 0]),
   midi.NoteOnEvent(tick=0, channel=1, data=[40, 127]),
   midi.NoteOnEvent(tick=60, channel=1, data=[40, 0]),
   midi.NoteOnEvent(tick=0, channel=1, data=[54, 127]),
   midi.NoteOnEvent(tick=0, channel=1, data=[52, 127]),
   midi.NoteOnEvent(tick=60, channel=1, data=[54, 0]),
   midi.NoteOnEvent(tick=0, channel=1, data=[52, 0]),
   midi.NoteOnEvent(tick=0, channel=1, data=[40, 127]),
   midi.NoteOnEvent(tick=60, channel=1, data=[40, 0]),
   midi.NoteOnEvent(tick=0, channel=1, data=[40, 127]),
   midi.NoteOnEvent(tick=60, channel=1, data=[40, 0]),
   midi.NoteOnEvent(tick=0, channel=1, data=[55, 127]),
   midi.NoteOnEvent(tick=0, channel=1, data=[52, 127]),
   midi.NoteOnEvent(tick=60, channel=1, data=[55, 0]),
   midi.NoteOnEvent(tick=0, channel=1, data=[52, 0]),
   midi.NoteOnEvent(tick=0, channel=1, data=[40, 127]),
   midi.NoteOnEvent(tick=60, channel=1, data=[40, 0]),
   midi.NoteOnEvent(tick=0, channel=1, data=[40, 127]),
   midi.NoteOnEvent(tick=60, channel=1, data=[40, 0]),
   midi.NoteOnEvent(tick=0, channel=1, data=[55, 127]),
   midi.NoteOnEvent(tick=0, channel=1, data=[52, 127]),
   midi.NoteOnEvent(tick=60, channel=1, data=[55, 0]),
   midi.NoteOnEvent(tick=0, channel=1, data=[52, 0]),
   midi.NoteOnEvent(tick=0, channel=1, data=[40, 127]),
   midi.NoteOnEvent(tick=60, channel=1, data=[40, 0]),
   midi.NoteOnEvent(tick=0, channel=1, data=[50, 127]),
   midi.NoteOnEvent(tick=0, channel=1, data=[54, 127]),
   midi.NoteOnEvent(tick=60, channel=1, data=[50, 0]),
   midi.NoteOnEvent(tick=0, channel=1, data=[54, 0]),
   midi.NoteOnEvent(tick=0, channel=1, data=[47, 127]),
   midi.NoteOnEvent(tick=60, channel=1, data=[47, 0]),
   midi.NoteOnEvent(tick=0, channel=1, data=[47, 127]),
   midi.NoteOnEvent(tick=60, channel=1, data=[47, 0]),
   midi.NoteOnEvent(tick=0, channel=1, data=[54, 127]),
   midi.NoteOnEvent(tick=0, channel=1, data=[50, 127]),
   midi.NoteOnEvent(tick=60, channel=1, data=[54, 0]),
   midi.NoteOnEvent(tick=0, channel=1, data=[50, 0]),
   midi.NoteOnEvent(tick=0, channel=1, data=[47, 127]),
   midi.NoteOnEvent(tick=60, channel=1, data=[47, 0]),
   midi.NoteOnEvent(tick=0, channel=1, data=[47, 127]),
   midi.NoteOnEvent(tick=60, channel=1, data=[47, 0]),
   midi.NoteOnEvent(tick=0, channel=1, data=[54, 127]),
   midi.NoteOnEvent(tick=0, channel=1, data=[50, 127]),
   midi.NoteOnEvent(tick=60, channel=1, data=[54, 0]),
   midi.NoteOnEvent(tick=0, channel=1, data=[50, 0]),
   midi.NoteOnEvent(tick=0, channel=1, data=[50, 127]),
   midi.NoteOnEvent(tick=0, channel=1, data=[54, 127]),
   midi.NoteOnEvent(tick=60, channel=1, data=[50, 0]),
   midi.NoteOnEvent(tick=0, channel=1, data=[54, 0]),
   midi.NoteOnEvent(tick=0, channel=1, data=[54, 127]),
   midi.NoteOnEvent(tick=0, channel=1, data=[51, 127]),
   midi.NoteOnEvent(tick=60, channel=1, data=[54, 0]),
   midi.NoteOnEvent(tick=0, channel=1, data=[51, 0]),
   midi.NoteOnEvent(tick=0, channel=1, data=[47, 127]),
   midi.NoteOnEvent(tick=60, channel=1, data=[47, 0]),
   midi.NoteOnEvent(tick=0, channel=1, data=[47, 127]),
   midi.NoteOnEvent(tick=60, channel=1, data=[47, 0]),
   midi.NoteOnEvent(tick=0, channel=1, data=[54, 127]),
   midi.NoteOnEvent(tick=0, channel=1, data=[51, 127]),
   midi.NoteOnEvent(tick=60, channel=1, data=[54, 0]),
   midi.NoteOnEvent(tick=0, channel=1, data=[51, 0]),
   midi.NoteOnEvent(tick=0, channel=1, data=[47, 127]),
   midi.NoteOnEvent(tick=60, channel=1, data=[47, 0]),
   midi.NoteOnEvent(tick=0, channel=1, data=[47, 127]),
   midi.NoteOnEvent(tick=60, channel=1, data=[47, 0]),
   midi.NoteOnEvent(tick=0, channel=1, data=[54, 127]),
   midi.NoteOnEvent(tick=0, channel=1, data=[51, 127]),
   midi.NoteOnEvent(tick=60, channel=1, data=[54, 0]),
   midi.NoteOnEvent(tick=0, channel=1, data=[51, 0]),
   midi.NoteOnEvent(tick=0, channel=1, data=[51, 127]),
   midi.NoteOnEvent(tick=0, channel=1, data=[54, 127]),
   midi.NoteOnEvent(tick=60, channel=1, data=[51, 0]),
   midi.NoteOnEvent(tick=0, channel=1, data=[54, 0]),
   midi.NoteOnEvent(tick=0, channel=1, data=[52, 127]),
   midi.NoteOnEvent(tick=0, channel=1, data=[55, 127]),
   midi.NoteOnEvent(tick=60, channel=1, data=[52, 0]),
   midi.NoteOnEvent(tick=0, channel=1, data=[55, 0]),
   midi.NoteOnEvent(tick=0, channel=1, data=[40, 127]),
   midi.NoteOnEvent(tick=60, channel=1, data=[40, 0]),
   midi.NoteOnEvent(tick=0, channel=1, data=[40, 127]),
   midi.NoteOnEvent(tick=60, channel=1, data=[40, 0]),
   midi.NoteOnEvent(tick=0, channel=1, data=[55, 127]),
   midi.NoteOnEvent(tick=0, channel=1, data=[52, 127]),
   midi.NoteOnEvent(tick=60, channel=1, data=[55, 0]),
   midi.NoteOnEvent(tick=0, channel=1, data=[52, 0]),
   midi.NoteOnEvent(tick=0, channel=1, data=[40, 127]),
   midi.NoteOnEvent(tick=60, channel=1, data=[40, 0]),
   midi.NoteOnEvent(tick=0, channel=1, data=[40, 127]),
   midi.NoteOnEvent(tick=60, channel=1, data=[40, 0]),
   midi.NoteOnEvent(tick=0, channel=1, data=[55, 127]),
   midi.NoteOnEvent(tick=0, channel=1, data=[52, 127]),
   midi.NoteOnEvent(tick=60, channel=1, data=[55, 0]),
   midi.NoteOnEvent(tick=0, channel=1, data=[52, 0]),
   midi.NoteOnEvent(tick=0, channel=1, data=[40, 127]),
   midi.NoteOnEvent(tick=60, channel=1, data=[40, 0]),
   midi.NoteOnEvent(tick=0, channel=1, data=[54, 127]),
   midi.NoteOnEvent(tick=0, channel=1, data=[52, 127]),
   midi.NoteOnEvent(tick=60, channel=1, data=[54, 0]),
   midi.NoteOnEvent(tick=0, channel=1, data=[52, 0]),
   midi.NoteOnEvent(tick=0, channel=1, data=[40, 127]),
   midi.NoteOnEvent(tick=60, channel=1, data=[40, 0]),
   midi.NoteOnEvent(tick=0, channel=1, data=[40, 127]),
   midi.NoteOnEvent(tick=60, channel=1, data=[40, 0]),
   midi.NoteOnEvent(tick=0, channel=1, data=[55, 127]),
   midi.NoteOnEvent(tick=0, channel=1, data=[52, 127]),
   midi.NoteOnEvent(tick=60, channel=1, data=[55, 0]),
   midi.NoteOnEvent(tick=0, channel=1, data=[52, 0]),
   midi.NoteOnEvent(tick=0, channel=1, data=[40, 127]),
   midi.NoteOnEvent(tick=60, channel=1, data=[40, 0]),
   midi.NoteOnEvent(tick=0, channel=1, data=[40, 127]),
   midi.NoteOnEvent(tick=60, channel=1, data=[40, 0]),
   midi.NoteOnEvent(tick=0, channel=1, data=[55, 127]),
   midi.NoteOnEvent(tick=0, channel=1, data=[52, 127]),
   midi.NoteOnEvent(tick=60, channel=1, data=[55, 0]),
   midi.NoteOnEvent(tick=0, channel=1, data=[52, 0]),
   midi.NoteOnEvent(tick=0, channel=1, data=[40, 127]),
   midi.NoteOnEvent(tick=60, channel=1, data=[40, 0]),
   midi.NoteOnEvent(tick=0, channel=1, data=[50, 127]),
   midi.NoteOnEvent(tick=0, channel=1, data=[54, 127]),
   midi.NoteOnEvent(tick=60, channel=1, data=[50, 0]),
   midi.NoteOnEvent(tick=0, channel=1, data=[54, 0]),
   midi.NoteOnEvent(tick=0, channel=1, data=[47, 127]),
   midi.NoteOnEvent(tick=60, channel=1, data=[47, 0]),
   midi.NoteOnEvent(tick=0, channel=1, data=[47, 127]),
   midi.NoteOnEvent(tick=60, channel=1, data=[47, 0]),
   midi.NoteOnEvent(tick=0, channel=1, data=[54, 127]),
   midi.NoteOnEvent(tick=0, channel=1, data=[50, 127]),
   midi.NoteOnEvent(tick=60, channel=1, data=[54, 0]),
   midi.NoteOnEvent(tick=0, channel=1, data=[50, 0]),
   midi.NoteOnEvent(tick=0, channel=1, data=[47, 127]),
   midi.NoteOnEvent(tick=60, channel=1, data=[47, 0]),
   midi.NoteOnEvent(tick=0, channel=1, data=[47, 127]),
   midi.NoteOnEvent(tick=60, channel=1, data=[47, 0]),
   midi.NoteOnEvent(tick=0, channel=1, data=[54, 127]),
   midi.NoteOnEvent(tick=0, channel=1, data=[50, 127]),
   midi.NoteOnEvent(tick=60, channel=1, data=[54, 0]),
   midi.NoteOnEvent(tick=0, channel=1, data=[50, 0]),
   midi.NoteOnEvent(tick=0, channel=1, data=[50, 127]),
   midi.NoteOnEvent(tick=0, channel=1, data=[54, 127]),
   midi.NoteOnEvent(tick=60, channel=1, data=[50, 0]),
   midi.NoteOnEvent(tick=0, channel=1, data=[54, 0]),
   midi.NoteOnEvent(tick=0, channel=1, data=[54, 127]),
   midi.NoteOnEvent(tick=0, channel=1, data=[51, 127]),
   midi.NoteOnEvent(tick=60, channel=1, data=[54, 0]),
   midi.NoteOnEvent(tick=0, channel=1, data=[51, 0]),
   midi.NoteOnEvent(tick=0, channel=1, data=[47, 127]),
   midi.NoteOnEvent(tick=60, channel=1, data=[47, 0]),
   midi.NoteOnEvent(tick=0, channel=1, data=[47, 127]),
   midi.NoteOnEvent(tick=60, channel=1, data=[47, 0]),
   midi.NoteOnEvent(tick=0, channel=1, data=[54, 127]),
   midi.NoteOnEvent(tick=0, channel=1, data=[51, 127]),
   midi.NoteOnEvent(tick=60, channel=1, data=[54, 0]),
   midi.NoteOnEvent(tick=0, channel=1, data=[51, 0]),
   midi.NoteOnEvent(tick=0, channel=1, data=[47, 127]),
   midi.NoteOnEvent(tick=60, channel=1, data=[47, 0]),
   midi.NoteOnEvent(tick=0, channel=1, data=[47, 127]),
   midi.NoteOnEvent(tick=60, channel=1, data=[47, 0]),
   midi.NoteOnEvent(tick=0, channel=1, data=[54, 127]),
   midi.NoteOnEvent(tick=0, channel=1, data=[51, 127]),
   midi.NoteOnEvent(tick=60, channel=1, data=[54, 0]),
   midi.NoteOnEvent(tick=0, channel=1, data=[51, 0]),
   midi.NoteOnEvent(tick=0, channel=1, data=[51, 127]),
   midi.NoteOnEvent(tick=0, channel=1, data=[54, 127]),
   midi.NoteOnEvent(tick=60, channel=1, data=[51, 0]),
   midi.NoteOnEvent(tick=0, channel=1, data=[54, 0]),
   midi.NoteOnEvent(tick=0, channel=1, data=[59, 127]),
   midi.NoteOnEvent(tick=0, channel=1, data=[54, 127]),
   midi.NoteOnEvent(tick=0, channel=1, data=[47, 127]),
   midi.NoteOnEvent(tick=60, channel=1, data=[59, 0]),
   midi.NoteOnEvent(tick=0, channel=1, data=[54, 0]),
   midi.NoteOnEvent(tick=0, channel=1, data=[47, 0]),
   midi.NoteOnEvent(tick=0, channel=1, data=[47, 127]),
   midi.NoteOnEvent(tick=0, channel=1, data=[54, 127]),
   midi.NoteOnEvent(tick=0, channel=1, data=[59, 127]),
   midi.NoteOnEvent(tick=60, channel=1, data=[47, 0]),
   midi.NoteOnEvent(tick=0, channel=1, data=[54, 0]),
   midi.NoteOnEvent(tick=0, channel=1, data=[59, 0]),
   midi.NoteOnEvent(tick=0, channel=1, data=[47, 127]),
   midi.NoteOnEvent(tick=0, channel=1, data=[54, 127]),
   midi.NoteOnEvent(tick=0, channel=1, data=[59, 127]),
   midi.NoteOnEvent(tick=60, channel=1, data=[47, 0]),
   midi.NoteOnEvent(tick=0, channel=1, data=[54, 0]),
   midi.NoteOnEvent(tick=0, channel=1, data=[59, 0]),
   midi.NoteOnEvent(tick=0, channel=1, data=[47, 127]),
   midi.NoteOnEvent(tick=60, channel=1, data=[47, 0]),
   midi.NoteOnEvent(tick=0, channel=1, data=[47, 127]),
   midi.NoteOnEvent(tick=60, channel=1, data=[47, 0]),
   midi.NoteOnEvent(tick=0, channel=1, data=[47, 127]),
   midi.NoteOnEvent(tick=60, channel=1, data=[47, 0]),
   midi.NoteOnEvent(tick=0, channel=1, data=[56, 127]),
   midi.NoteOnEvent(tick=0, channel=1, data=[52, 127]),
   midi.NoteOnEvent(tick=0, channel=1, data=[47, 127]),
   midi.NoteOnEvent(tick=60, channel=1, data=[56, 0]),
   midi.NoteOnEvent(tick=0, channel=1, data=[52, 0]),
   midi.NoteOnEvent(tick=0, channel=1, data=[47, 0]),
   midi.NoteOnEvent(tick=0, channel=1, data=[45, 127]),
   midi.NoteOnEvent(tick=60, channel=1, data=[45, 0]),
   midi.NoteOnEvent(tick=0, channel=1, data=[59, 127]),
   midi.NoteOnEvent(tick=0, channel=1, data=[54, 127]),
   midi.NoteOnEvent(tick=0, channel=1, data=[47, 127]),
   midi.NoteOnEvent(tick=60, channel=1, data=[59, 0]),
   midi.NoteOnEvent(tick=0, channel=1, data=[54, 0]),
   midi.NoteOnEvent(tick=0, channel=1, data=[47, 0]),
   midi.NoteOnEvent(tick=0, channel=1, data=[47, 127]),
   midi.NoteOnEvent(tick=0, channel=1, data=[54, 127]),
   midi.NoteOnEvent(tick=0, channel=1, data=[59, 127]),
   midi.NoteOnEvent(tick=60, channel=1, data=[47, 0]),
   midi.NoteOnEvent(tick=0, channel=1, data=[54, 0]),
   midi.NoteOnEvent(tick=0, channel=1, data=[59, 0]),
   midi.NoteOnEvent(tick=0, channel=1, data=[47, 127]),
   midi.NoteOnEvent(tick=0, channel=1, data=[54, 127]),
   midi.NoteOnEvent(tick=0, channel=1, data=[59, 127]),
   midi.NoteOnEvent(tick=60, channel=1, data=[47, 0]),
   midi.NoteOnEvent(tick=0, channel=1, data=[54, 0]),
   midi.NoteOnEvent(tick=0, channel=1, data=[59, 0]),
   midi.NoteOnEvent(tick=0, channel=1, data=[47, 127]),
   midi.NoteOnEvent(tick=60, channel=1, data=[47, 0]),
   midi.NoteOnEvent(tick=0, channel=1, data=[47, 127]),
   midi.NoteOnEvent(tick=60, channel=1, data=[47, 0]),
   midi.NoteOnEvent(tick=0, channel=1, data=[47, 127]),
   midi.NoteOnEvent(tick=60, channel=1, data=[47, 0]),
   midi.NoteOnEvent(tick=0, channel=1, data=[56, 127]),
   midi.NoteOnEvent(tick=0, channel=1, data=[52, 127]),
   midi.NoteOnEvent(tick=0, channel=1, data=[47, 127]),
   midi.NoteOnEvent(tick=60, channel=1, data=[56, 0]),
   midi.NoteOnEvent(tick=0, channel=1, data=[52, 0]),
   midi.NoteOnEvent(tick=0, channel=1, data=[47, 0]),
   midi.NoteOnEvent(tick=0, channel=1, data=[45, 127]),
   midi.NoteOnEvent(tick=60, channel=1, data=[45, 0]),
   midi.NoteOnEvent(tick=0, channel=1, data=[45, 127]),
   midi.NoteOnEvent(tick=0, channel=1, data=[54, 127]),
   midi.NoteOnEvent(tick=60, channel=1, data=[45, 0]),
   midi.NoteOnEvent(tick=0, channel=1, data=[54, 0]),
   midi.NoteOnEvent(tick=0, channel=1, data=[45, 127]),
   midi.NoteOnEvent(tick=0, channel=1, data=[54, 127]),
   midi.NoteOnEvent(tick=60, channel=1, data=[45, 0]),
   midi.NoteOnEvent(tick=0, channel=1, data=[54, 0]),
   midi.NoteOnEvent(tick=0, channel=1, data=[45, 127]),
   midi.NoteOnEvent(tick=0, channel=1, data=[54, 127]),
   midi.NoteOnEvent(tick=60, channel=1, data=[45, 0]),
   midi.NoteOnEvent(tick=0, channel=1, data=[54, 0]),
   midi.NoteOnEvent(tick=0, channel=1, data=[45, 127]),
   midi.NoteOnEvent(tick=60, channel=1, data=[45, 0]),
   midi.NoteOnEvent(tick=0, channel=1, data=[45, 127]),
   midi.NoteOnEvent(tick=60, channel=1, data=[45, 0]),
   midi.NoteOnEvent(tick=0, channel=1, data=[45, 127]),
   midi.NoteOnEvent(tick=60, channel=1, data=[45, 0]),
   midi.NoteOnEvent(tick=0, channel=1, data=[54, 127]),
   midi.NoteOnEvent(tick=0, channel=1, data=[45, 127]),
   midi.NoteOnEvent(tick=60, channel=1, data=[54, 0]),
   midi.NoteOnEvent(tick=0, channel=1, data=[45, 0]),
   midi.NoteOnEvent(tick=0, channel=1, data=[40, 127]),
   midi.NoteOnEvent(tick=60, channel=1, data=[40, 0]),
   midi.NoteOnEvent(tick=0, channel=1, data=[42, 127]),
   midi.NoteOnEvent(tick=0, channel=1, data=[49, 127]),
   midi.NoteOnEvent(tick=60, channel=1, data=[42, 0]),
   midi.NoteOnEvent(tick=0, channel=1, data=[49, 0]),
   midi.NoteOnEvent(tick=0, channel=1, data=[42, 127]),
   midi.NoteOnEvent(tick=0, channel=1, data=[49, 127]),
   midi.NoteOnEvent(tick=60, channel=1, data=[42, 0]),
   midi.NoteOnEvent(tick=0, channel=1, data=[49, 0]),
   midi.NoteOnEvent(tick=0, channel=1, data=[42, 127]),
   midi.NoteOnEvent(tick=0, channel=1, data=[49, 127]),
   midi.NoteOnEvent(tick=60, channel=1, data=[42, 0]),
   midi.NoteOnEvent(tick=0, channel=1, data=[49, 0]),
   midi.NoteOnEvent(tick=0, channel=1, data=[42, 127]),
   midi.NoteOnEvent(tick=60, channel=1, data=[42, 0]),
   midi.NoteOnEvent(tick=0, channel=1, data=[42, 127]),
   midi.NoteOnEvent(tick=60, channel=1, data=[42, 0]),
   midi.NoteOnEvent(tick=0, channel=1, data=[42, 127]),
   midi.NoteOnEvent(tick=60, channel=1, data=[42, 0]),
   midi.NoteOnEvent(tick=0, channel=1, data=[52, 127]),
   midi.NoteOnEvent(tick=0, channel=1, data=[45, 127]),
   midi.NoteOnEvent(tick=60, channel=1, data=[52, 0]),
   midi.NoteOnEvent(tick=0, channel=1, data=[45, 0]),
   midi.NoteOnEvent(tick=0, channel=1, data=[45, 127]),
   midi.NoteOnEvent(tick=60, channel=1, data=[45, 0]),
   midi.NoteOnEvent(tick=0, channel=1, data=[59, 127]),
   midi.NoteOnEvent(tick=0, channel=1, data=[54, 127]),
   midi.NoteOnEvent(tick=0, channel=1, data=[47, 127]),
   midi.NoteOnEvent(tick=60, channel=1, data=[59, 0]),
   midi.NoteOnEvent(tick=0, channel=1, data=[54, 0]),
   midi.NoteOnEvent(tick=0, channel=1, data=[47, 0]),
   midi.NoteOnEvent(tick=0, channel=1, data=[59, 127]),
   midi.NoteOnEvent(tick=0, channel=1, data=[54, 127]),
   midi.NoteOnEvent(tick=0, channel=1, data=[47, 127]),
   midi.NoteOnEvent(tick=60, channel=1, data=[59, 0]),
   midi.NoteOnEvent(tick=0, channel=1, data=[54, 0]),
   midi.NoteOnEvent(tick=0, channel=1, data=[47, 0]),
   midi.NoteOnEvent(tick=0, channel=1, data=[59, 127]),
   midi.NoteOnEvent(tick=0, channel=1, data=[54, 127]),
   midi.NoteOnEvent(tick=0, channel=1, data=[47, 127]),
   midi.NoteOnEvent(tick=60, channel=1, data=[59, 0]),
   midi.NoteOnEvent(tick=0, channel=1, data=[54, 0]),
   midi.NoteOnEvent(tick=0, channel=1, data=[47, 0]),
   midi.NoteOnEvent(tick=0, channel=1, data=[47, 127]),
   midi.NoteOnEvent(tick=60, channel=1, data=[47, 0]),
   midi.NoteOnEvent(tick=0, channel=1, data=[47, 127]),
   midi.NoteOnEvent(tick=60, channel=1, data=[47, 0]),
   midi.NoteOnEvent(tick=0, channel=1, data=[47, 127]),
   midi.NoteOnEvent(tick=60, channel=1, data=[47, 0]),
   midi.NoteOnEvent(tick=0, channel=1, data=[56, 127]),
   midi.NoteOnEvent(tick=0, channel=1, data=[52, 127]),
   midi.NoteOnEvent(tick=0, channel=1, data=[47, 127]),
   midi.NoteOnEvent(tick=60, channel=1, data=[56, 0]),
   midi.NoteOnEvent(tick=0, channel=1, data=[52, 0]),
   midi.NoteOnEvent(tick=0, channel=1, data=[47, 0]),
   midi.NoteOnEvent(tick=0, channel=1, data=[45, 127]),
   midi.NoteOnEvent(tick=60, channel=1, data=[45, 0]),
   midi.NoteOnEvent(tick=0, channel=1, data=[45, 127]),
   midi.NoteOnEvent(tick=0, channel=1, data=[54, 127]),
   midi.NoteOnEvent(tick=60, channel=1, data=[45, 0]),
   midi.NoteOnEvent(tick=0, channel=1, data=[54, 0]),
   midi.NoteOnEvent(tick=0, channel=1, data=[45, 127]),
   midi.NoteOnEvent(tick=0, channel=1, data=[54, 127]),
   midi.NoteOnEvent(tick=60, channel=1, data=[45, 0]),
   midi.NoteOnEvent(tick=0, channel=1, data=[54, 0]),
   midi.NoteOnEvent(tick=0, channel=1, data=[45, 127]),
   midi.NoteOnEvent(tick=0, channel=1, data=[54, 127]),
   midi.NoteOnEvent(tick=60, channel=1, data=[45, 0]),
   midi.NoteOnEvent(tick=0, channel=1, data=[54, 0]),
   midi.NoteOnEvent(tick=0, channel=1, data=[45, 127]),
   midi.NoteOnEvent(tick=60, channel=1, data=[45, 0]),
   midi.NoteOnEvent(tick=0, channel=1, data=[45, 127]),
   midi.NoteOnEvent(tick=60, channel=1, data=[45, 0]),
   midi.NoteOnEvent(tick=0, channel=1, data=[45, 127]),
   midi.NoteOnEvent(tick=60, channel=1, data=[45, 0]),
   midi.NoteOnEvent(tick=0, channel=1, data=[54, 127]),
   midi.NoteOnEvent(tick=0, channel=1, data=[45, 127]),
   midi.NoteOnEvent(tick=60, channel=1, data=[54, 0]),
   midi.NoteOnEvent(tick=0, channel=1, data=[45, 0]),
   midi.NoteOnEvent(tick=0, channel=1, data=[40, 127]),
   midi.NoteOnEvent(tick=60, channel=1, data=[40, 0]),
   midi.NoteOnEvent(tick=0, channel=1, data=[42, 127]),
   midi.NoteOnEvent(tick=0, channel=1, data=[49, 127]),
   midi.NoteOnEvent(tick=60, channel=1, data=[42, 0]),
   midi.NoteOnEvent(tick=0, channel=1, data=[49, 0]),
   midi.NoteOnEvent(tick=0, channel=1, data=[42, 127]),
   midi.NoteOnEvent(tick=0, channel=1, data=[49, 127]),
   midi.NoteOnEvent(tick=60, channel=1, data=[42, 0]),
   midi.NoteOnEvent(tick=0, channel=1, data=[49, 0]),
   midi.NoteOnEvent(tick=0, channel=1, data=[42, 127]),
   midi.NoteOnEvent(tick=0, channel=1, data=[49, 127]),
   midi.NoteOnEvent(tick=60, channel=1, data=[42, 0]),
   midi.NoteOnEvent(tick=0, channel=1, data=[49, 0]),
   midi.NoteOnEvent(tick=0, channel=1, data=[42, 127]),
   midi.NoteOnEvent(tick=60, channel=1, data=[42, 0]),
   midi.NoteOnEvent(tick=0, channel=1, data=[42, 127]),
   midi.NoteOnEvent(tick=60, channel=1, data=[42, 0]),
   midi.NoteOnEvent(tick=0, channel=1, data=[42, 127]),
   midi.NoteOnEvent(tick=60, channel=1, data=[42, 0]),
   midi.NoteOnEvent(tick=0, channel=1, data=[40, 127]),
   midi.NoteOnEvent(tick=0, channel=1, data=[47, 127]),
   midi.NoteOnEvent(tick=60, channel=1, data=[40, 0]),
   midi.NoteOnEvent(tick=0, channel=1, data=[47, 0]),
   midi.NoteOnEvent(tick=0, channel=1, data=[40, 127]),
   midi.NoteOnEvent(tick=0, channel=1, data=[47, 127]),
   midi.NoteOnEvent(tick=60, channel=1, data=[40, 0]),
   midi.NoteOnEvent(tick=0, channel=1, data=[47, 0]),
   midi.NoteOnEvent(tick=0, channel=1, data=[40, 127]),
   midi.NoteOnEvent(tick=0, channel=1, data=[47, 127]),
   midi.NoteOnEvent(tick=0, channel=1, data=[52, 127]),
   midi.NoteOnEvent(tick=180, channel=1, data=[40, 0]),
   midi.NoteOnEvent(tick=0, channel=1, data=[47, 0]),
   midi.NoteOnEvent(tick=0, channel=1, data=[52, 0]),
   midi.NoteOnEvent(tick=0, channel=1, data=[40, 127]),
   midi.NoteOnEvent(tick=60, channel=1, data=[40, 0]),
   midi.NoteOnEvent(tick=0, channel=1, data=[53, 127]),
   midi.NoteOnEvent(tick=0, channel=1, data=[47, 127]),
   midi.NoteOnEvent(tick=0, channel=1, data=[40, 127]),
   midi.NoteOnEvent(tick=60, channel=1, data=[53, 0]),
   midi.NoteOnEvent(tick=0, channel=1, data=[47, 0]),
   midi.NoteOnEvent(tick=0, channel=1, data=[40, 0]),
   midi.NoteOnEvent(tick=0, channel=1, data=[40, 127]),
   midi.NoteOnEvent(tick=0, channel=1, data=[47, 127]),
   midi.NoteOnEvent(tick=0, channel=1, data=[53, 127]),
   midi.NoteOnEvent(tick=60, channel=1, data=[40, 0]),
   midi.NoteOnEvent(tick=0, channel=1, data=[47, 0]),
   midi.NoteOnEvent(tick=0, channel=1, data=[53, 0]),
   midi.NoteOnEvent(tick=0, channel=1, data=[52, 127]),
   midi.NoteOnEvent(tick=0, channel=1, data=[47, 127]),
   midi.NoteOnEvent(tick=0, channel=1, data=[40, 127]),
   midi.NoteOnEvent(tick=600, channel=1, data=[52, 0]),
   midi.NoteOnEvent(tick=0, channel=1, data=[47, 0]),
   midi.NoteOnEvent(tick=0, channel=1, data=[40, 0]),
   midi.NoteOnEvent(tick=0, channel=1, data=[47, 127]),
   midi.NoteOnEvent(tick=0, channel=1, data=[54, 127]),
   midi.NoteOnEvent(tick=0, channel=1, data=[59, 127]),
   midi.NoteOnEvent(tick=180, channel=1, data=[47, 0]),
   midi.NoteOnEvent(tick=0, channel=1, data=[54, 0]),
   midi.NoteOnEvent(tick=0, channel=1, data=[59, 0]),
   midi.NoteOnEvent(tick=0, channel=1, data=[47, 127]),
   midi.NoteOnEvent(tick=0, channel=1, data=[54, 127]),
   midi.NoteOnEvent(tick=60, channel=1, data=[47, 0]),
   midi.NoteOnEvent(tick=0, channel=1, data=[54, 0]),
   midi.NoteOnEvent(tick=0, channel=1, data=[54, 127]),
   midi.NoteOnEvent(tick=0, channel=1, data=[47, 127]),
   midi.NoteOnEvent(tick=60, channel=1, data=[54, 0]),
   midi.NoteOnEvent(tick=0, channel=1, data=[47, 0]),
   midi.NoteOnEvent(tick=0, channel=1, data=[54, 127]),
   midi.NoteOnEvent(tick=0, channel=1, data=[47, 127]),
   midi.NoteOnEvent(tick=60, channel=1, data=[54, 0]),
   midi.NoteOnEvent(tick=0, channel=1, data=[47, 0]),
   midi.NoteOnEvent(tick=0, channel=1, data=[47, 127]),
   midi.NoteOnEvent(tick=0, channel=1, data=[52, 127]),
   midi.NoteOnEvent(tick=60, channel=1, data=[47, 0]),
   midi.NoteOnEvent(tick=0, channel=1, data=[52, 0]),
   midi.NoteOnEvent(tick=60, channel=1, data=[45, 127]),
   midi.NoteOnEvent(tick=0, channel=1, data=[54, 127]),
   midi.NoteOnEvent(tick=180, channel=1, data=[45, 0]),
   midi.NoteOnEvent(tick=0, channel=1, data=[54, 0]),
   midi.NoteOnEvent(tick=0, channel=1, data=[53, 127]),
   midi.NoteOnEvent(tick=0, channel=1, data=[45, 127]),
   midi.NoteOnEvent(tick=60, channel=1, data=[53, 0]),
   midi.NoteOnEvent(tick=0, channel=1, data=[45, 0]),
   midi.NoteOnEvent(tick=0, channel=1, data=[53, 127]),
   midi.NoteOnEvent(tick=0, channel=1, data=[45, 127]),
   midi.NoteOnEvent(tick=80, channel=1, data=[53, 0]),
   midi.NoteOnEvent(tick=0, channel=1, data=[45, 0]),
   midi.NoteOnEvent(tick=0, channel=1, data=[45, 127]),
   midi.NoteOnEvent(tick=0, channel=1, data=[52, 127]),
   midi.NoteOnEvent(tick=80, channel=1, data=[45, 0]),
   midi.NoteOnEvent(tick=0, channel=1, data=[52, 0]),
   midi.NoteOnEvent(tick=0, channel=1, data=[45, 127]),
   midi.NoteOnEvent(tick=0, channel=1, data=[52, 127]),
   midi.NoteOnEvent(tick=80, channel=1, data=[45, 0]),
   midi.NoteOnEvent(tick=0, channel=1, data=[52, 0]),
   midi.NoteOnEvent(tick=0, channel=1, data=[42, 127]),
   midi.NoteOnEvent(tick=0, channel=1, data=[49, 127]),
   midi.NoteOnEvent(tick=0, channel=1, data=[54, 127]),
   midi.NoteOnEvent(tick=180, channel=1, data=[42, 0]),
   midi.NoteOnEvent(tick=0, channel=1, data=[49, 0]),
   midi.NoteOnEvent(tick=0, channel=1, data=[54, 0]),
   midi.NoteOnEvent(tick=0, channel=1, data=[42, 127]),
   midi.NoteOnEvent(tick=0, channel=1, data=[49, 127]),
   midi.NoteOnEvent(tick=0, channel=1, data=[53, 127]),
   midi.NoteOnEvent(tick=60, channel=1, data=[42, 0]),
   midi.NoteOnEvent(tick=0, channel=1, data=[49, 0]),
   midi.NoteOnEvent(tick=0, channel=1, data=[53, 0]),
   midi.NoteOnEvent(tick=0, channel=1, data=[42, 127]),
   midi.NoteOnEvent(tick=0, channel=1, data=[53, 127]),
   midi.NoteOnEvent(tick=0, channel=1, data=[49, 127]),
   midi.NoteOnEvent(tick=80, channel=1, data=[42, 0]),
   midi.NoteOnEvent(tick=0, channel=1, data=[53, 0]),
   midi.NoteOnEvent(tick=0, channel=1, data=[49, 0]),
   midi.NoteOnEvent(tick=0, channel=1, data=[52, 127]),
   midi.NoteOnEvent(tick=0, channel=1, data=[49, 127]),
   midi.NoteOnEvent(tick=0, channel=1, data=[42, 127]),
   midi.NoteOnEvent(tick=80, channel=1, data=[52, 0]),
   midi.NoteOnEvent(tick=0, channel=1, data=[49, 0]),
   midi.NoteOnEvent(tick=0, channel=1, data=[42, 0]),
   midi.NoteOnEvent(tick=0, channel=1, data=[52, 127]),
   midi.NoteOnEvent(tick=0, channel=1, data=[49, 127]),
   midi.NoteOnEvent(tick=0, channel=1, data=[42, 127]),
   midi.NoteOnEvent(tick=80, channel=1, data=[52, 0]),
   midi.NoteOnEvent(tick=0, channel=1, data=[49, 0]),
   midi.NoteOnEvent(tick=0, channel=1, data=[42, 0]),
   midi.NoteOnEvent(tick=0, channel=1, data=[40, 127]),
   midi.NoteOnEvent(tick=0, channel=1, data=[47, 127]),
   midi.NoteOnEvent(tick=0, channel=1, data=[52, 127]),
   midi.NoteOnEvent(tick=960, channel=1, data=[40, 0]),
   midi.NoteOnEvent(tick=0, channel=1, data=[47, 0]),
   midi.NoteOnEvent(tick=0, channel=1, data=[52, 0]),
   midi.NoteOnEvent(tick=2880, channel=1, data=[59, 127]),
   midi.PitchWheelEvent(tick=0, channel=1, data=[0, 64]),
   midi.PitchWheelEvent(tick=1, channel=1, data=[68, 64]),
   midi.PitchWheelEvent(tick=1, channel=1, data=[9, 65]),
   midi.PitchWheelEvent(tick=1, channel=1, data=[77, 65]),
   midi.PitchWheelEvent(tick=1, channel=1, data=[17, 66]),
   midi.PitchWheelEvent(tick=1, channel=1, data=[85, 66]),
   midi.PitchWheelEvent(tick=1, channel=1, data=[26, 67]),
   midi.PitchWheelEvent(tick=1, channel=1, data=[94, 67]),
   midi.PitchWheelEvent(tick=1, channel=1, data=[34, 68]),
   midi.PitchWheelEvent(tick=1, channel=1, data=[102, 68]),
   midi.PitchWheelEvent(tick=1, channel=1, data=[43, 69]),
   midi.PitchWheelEvent(tick=1, channel=1, data=[111, 69]),
   midi.PitchWheelEvent(tick=1, channel=1, data=[51, 70]),
   midi.PitchWheelEvent(tick=1, channel=1, data=[119, 70]),
   midi.PitchWheelEvent(tick=1, channel=1, data=[60, 71]),
   midi.PitchWheelEvent(tick=1, channel=1, data=[0, 72]),
   midi.PitchWheelEvent(tick=1, channel=1, data=[68, 72]),
   midi.PitchWheelEvent(tick=1, channel=1, data=[8, 73]),
   midi.PitchWheelEvent(tick=1, channel=1, data=[77, 73]),
   midi.PitchWheelEvent(tick=1, channel=1, data=[17, 74]),
   midi.PitchWheelEvent(tick=1, channel=1, data=[85, 74]),
   midi.PitchWheelEvent(tick=1, channel=1, data=[25, 75]),
   midi.PitchWheelEvent(tick=1, channel=1, data=[94, 75]),
   midi.PitchWheelEvent(tick=1, channel=1, data=[34, 76]),
   midi.PitchWheelEvent(tick=1, channel=1, data=[102, 76]),
   midi.PitchWheelEvent(tick=1, channel=1, data=[42, 77]),
   midi.PitchWheelEvent(tick=1, channel=1, data=[111, 77]),
   midi.PitchWheelEvent(tick=1, channel=1, data=[51, 78]),
   midi.PitchWheelEvent(tick=1, channel=1, data=[119, 78]),
   midi.PitchWheelEvent(tick=1, channel=1, data=[59, 79]),
   midi.PitchWheelEvent(tick=1, channel=1, data=[0, 80]),
   midi.PitchWheelEvent(tick=1, channel=1, data=[68, 80]),
   midi.PitchWheelEvent(tick=1, channel=1, data=[8, 81]),
   midi.PitchWheelEvent(tick=1, channel=1, data=[77, 81]),
   midi.PitchWheelEvent(tick=1, channel=1, data=[17, 82]),
   midi.PitchWheelEvent(tick=1, channel=1, data=[85, 82]),
   midi.PitchWheelEvent(tick=1, channel=1, data=[25, 83]),
   midi.PitchWheelEvent(tick=1, channel=1, data=[94, 83]),
   midi.PitchWheelEvent(tick=1, channel=1, data=[34, 84]),
   midi.PitchWheelEvent(tick=1, channel=1, data=[102, 84]),
   midi.PitchWheelEvent(tick=1, channel=1, data=[42, 85]),
   midi.PitchWheelEvent(tick=1, channel=1, data=[111, 85]),
   midi.PitchWheelEvent(tick=1, channel=1, data=[51, 86]),
   midi.PitchWheelEvent(tick=1, channel=1, data=[119, 86]),
   midi.PitchWheelEvent(tick=1, channel=1, data=[59, 87]),
   midi.PitchWheelEvent(tick=1, channel=1, data=[0, 88]),
   midi.PitchWheelEvent(tick=1, channel=1, data=[68, 88]),
   midi.PitchWheelEvent(tick=1, channel=1, data=[8, 89]),
   midi.PitchWheelEvent(tick=1, channel=1, data=[76, 89]),
   midi.PitchWheelEvent(tick=1, channel=1, data=[17, 90]),
   midi.PitchWheelEvent(tick=1, channel=1, data=[85, 90]),
   midi.PitchWheelEvent(tick=1, channel=1, data=[25, 91]),
   midi.PitchWheelEvent(tick=1, channel=1, data=[93, 91]),
   midi.PitchWheelEvent(tick=1, channel=1, data=[34, 92]),
   midi.PitchWheelEvent(tick=1, channel=1, data=[102, 92]),
   midi.PitchWheelEvent(tick=1, channel=1, data=[42, 93]),
   midi.PitchWheelEvent(tick=1, channel=1, data=[110, 93]),
   midi.PitchWheelEvent(tick=1, channel=1, data=[51, 94]),
   midi.PitchWheelEvent(tick=1, channel=1, data=[119, 94]),
   midi.PitchWheelEvent(tick=1, channel=1, data=[59, 95]),
   midi.PitchWheelEvent(tick=1, channel=1, data=[0, 96]),
   midi.PitchWheelEvent(tick=1, channel=1, data=[68, 96]),
   midi.PitchWheelEvent(tick=1, channel=1, data=[8, 97]),
   midi.PitchWheelEvent(tick=1, channel=1, data=[76, 97]),
   midi.PitchWheelEvent(tick=1, channel=1, data=[17, 98]),
   midi.PitchWheelEvent(tick=1, channel=1, data=[85, 98]),
   midi.PitchWheelEvent(tick=1, channel=1, data=[25, 99]),
   midi.PitchWheelEvent(tick=1, channel=1, data=[93, 99]),
   midi.PitchWheelEvent(tick=1, channel=1, data=[34, 100]),
   midi.PitchWheelEvent(tick=1, channel=1, data=[102, 100]),
   midi.PitchWheelEvent(tick=1, channel=1, data=[42, 101]),
   midi.PitchWheelEvent(tick=1, channel=1, data=[110, 101]),
   midi.PitchWheelEvent(tick=1, channel=1, data=[51, 102]),
   midi.PitchWheelEvent(tick=1, channel=1, data=[119, 102]),
   midi.PitchWheelEvent(tick=1, channel=1, data=[59, 103]),
   midi.PitchWheelEvent(tick=1, channel=1, data=[127, 103]),
   midi.PitchWheelEvent(tick=1, channel=1, data=[68, 104]),
   midi.PitchWheelEvent(tick=1, channel=1, data=[8, 105]),
   midi.PitchWheelEvent(tick=1, channel=1, data=[76, 105]),
   midi.PitchWheelEvent(tick=1, channel=1, data=[16, 106]),
   midi.PitchWheelEvent(tick=1, channel=1, data=[85, 106]),
   midi.PitchWheelEvent(tick=1, channel=1, data=[25, 107]),
   midi.PitchWheelEvent(tick=1, channel=1, data=[93, 107]),
   midi.PitchWheelEvent(tick=1, channel=1, data=[33, 108]),
   midi.PitchWheelEvent(tick=1, channel=1, data=[102, 108]),
   midi.PitchWheelEvent(tick=1, channel=1, data=[42, 109]),
   midi.PitchWheelEvent(tick=1, channel=1, data=[110, 109]),
   midi.PitchWheelEvent(tick=1, channel=1, data=[50, 110]),
   midi.PitchWheelEvent(tick=1, channel=1, data=[119, 110]),
   midi.PitchWheelEvent(tick=1, channel=1, data=[59, 111]),
   midi.PitchWheelEvent(tick=1, channel=1, data=[127, 111]),
   midi.PitchWheelEvent(tick=1, channel=1, data=[68, 112]),
   midi.PitchWheelEvent(tick=1, channel=1, data=[8, 113]),
   midi.PitchWheelEvent(tick=1, channel=1, data=[76, 113]),
   midi.PitchWheelEvent(tick=1, channel=1, data=[16, 114]),
   midi.PitchWheelEvent(tick=1, channel=1, data=[85, 114]),
   midi.PitchWheelEvent(tick=1, channel=1, data=[25, 115]),
   midi.PitchWheelEvent(tick=1, channel=1, data=[93, 115]),
   midi.PitchWheelEvent(tick=1, channel=1, data=[33, 116]),
   midi.PitchWheelEvent(tick=1, channel=1, data=[102, 116]),
   midi.PitchWheelEvent(tick=1, channel=1, data=[42, 117]),
   midi.PitchWheelEvent(tick=1, channel=1, data=[110, 117]),
   midi.PitchWheelEvent(tick=1, channel=1, data=[50, 118]),
   midi.PitchWheelEvent(tick=1, channel=1, data=[119, 118]),
   midi.PitchWheelEvent(tick=1, channel=1, data=[59, 119]),
   midi.PitchWheelEvent(tick=1, channel=1, data=[127, 119]),
   midi.PitchWheelEvent(tick=1, channel=1, data=[67, 120]),
   midi.PitchWheelEvent(tick=1, channel=1, data=[8, 121]),
   midi.PitchWheelEvent(tick=1, channel=1, data=[76, 121]),
   midi.PitchWheelEvent(tick=1, channel=1, data=[16, 122]),
   midi.PitchWheelEvent(tick=1, channel=1, data=[84, 122]),
   midi.PitchWheelEvent(tick=1, channel=1, data=[25, 123]),
   midi.PitchWheelEvent(tick=1, channel=1, data=[93, 123]),
   midi.PitchWheelEvent(tick=1, channel=1, data=[33, 124]),
   midi.PitchWheelEvent(tick=1, channel=1, data=[101, 124]),
   midi.PitchWheelEvent(tick=1, channel=1, data=[42, 125]),
   midi.PitchWheelEvent(tick=1, channel=1, data=[110, 125]),
   midi.PitchWheelEvent(tick=1, channel=1, data=[50, 126]),
   midi.PitchWheelEvent(tick=1, channel=1, data=[118, 126]),
   midi.PitchWheelEvent(tick=1, channel=1, data=[59, 127]),
   midi.PitchWheelEvent(tick=1, channel=1, data=[127, 127]),
   midi.NoteOnEvent(tick=420, channel=1, data=[59, 0]),
   midi.PitchWheelEvent(tick=0, channel=1, data=[0, 64]),
   midi.NoteOnEvent(tick=0, channel=1, data=[59, 127]),
   midi.PitchWheelEvent(tick=1, channel=1, data=[17, 66]),
   midi.PitchWheelEvent(tick=1, channel=1, data=[34, 68]),
   midi.PitchWheelEvent(tick=1, channel=1, data=[51, 70]),
   midi.PitchWheelEvent(tick=1, channel=1, data=[68, 72]),
   midi.PitchWheelEvent(tick=1, channel=1, data=[85, 74]),
   midi.PitchWheelEvent(tick=1, channel=1, data=[102, 76]),
   midi.PitchWheelEvent(tick=1, channel=1, data=[119, 78]),
   midi.PitchWheelEvent(tick=1, channel=1, data=[8, 81]),
   midi.PitchWheelEvent(tick=1, channel=1, data=[25, 83]),
   midi.PitchWheelEvent(tick=1, channel=1, data=[42, 85]),
   midi.PitchWheelEvent(tick=1, channel=1, data=[59, 87]),
   midi.PitchWheelEvent(tick=1, channel=1, data=[76, 89]),
   midi.PitchWheelEvent(tick=1, channel=1, data=[93, 91]),
   midi.PitchWheelEvent(tick=1, channel=1, data=[110, 93]),
   midi.PitchWheelEvent(tick=1, channel=1, data=[0, 96]),
   midi.PitchWheelEvent(tick=1, channel=1, data=[17, 98]),
   midi.PitchWheelEvent(tick=1, channel=1, data=[34, 100]),
   midi.PitchWheelEvent(tick=1, channel=1, data=[51, 102]),
   midi.PitchWheelEvent(tick=1, channel=1, data=[68, 104]),
   midi.PitchWheelEvent(tick=1, channel=1, data=[85, 106]),
   midi.PitchWheelEvent(tick=1, channel=1, data=[102, 108]),
   midi.PitchWheelEvent(tick=1, channel=1, data=[119, 110]),
   midi.PitchWheelEvent(tick=1, channel=1, data=[8, 113]),
   midi.PitchWheelEvent(tick=1, channel=1, data=[25, 115]),
   midi.PitchWheelEvent(tick=1, channel=1, data=[42, 117]),
   midi.PitchWheelEvent(tick=1, channel=1, data=[59, 119]),
   midi.PitchWheelEvent(tick=1, channel=1, data=[76, 121]),
   midi.PitchWheelEvent(tick=1, channel=1, data=[93, 123]),
   midi.PitchWheelEvent(tick=1, channel=1, data=[110, 125]),
   midi.PitchWheelEvent(tick=1, channel=1, data=[0, 96]),
   midi.PitchWheelEvent(tick=0, channel=1, data=[127, 127]),
   midi.PitchWheelEvent(tick=1, channel=1, data=[119, 94]),
   midi.PitchWheelEvent(tick=1, channel=1, data=[111, 93]),
   midi.PitchWheelEvent(tick=1, channel=1, data=[102, 92]),
   midi.PitchWheelEvent(tick=1, channel=1, data=[94, 91]),
   midi.PitchWheelEvent(tick=1, channel=1, data=[85, 90]),
   midi.PitchWheelEvent(tick=1, channel=1, data=[77, 89]),
   midi.PitchWheelEvent(tick=1, channel=1, data=[68, 88]),
   midi.PitchWheelEvent(tick=1, channel=1, data=[60, 87]),
   midi.PitchWheelEvent(tick=1, channel=1, data=[51, 86]),
   midi.PitchWheelEvent(tick=1, channel=1, data=[43, 85]),
   midi.PitchWheelEvent(tick=1, channel=1, data=[34, 84]),
   midi.PitchWheelEvent(tick=1, channel=1, data=[26, 83]),
   midi.PitchWheelEvent(tick=1, channel=1, data=[17, 82]),
   midi.PitchWheelEvent(tick=1, channel=1, data=[9, 81]),
   midi.PitchWheelEvent(tick=1, channel=1, data=[0, 80]),
   midi.PitchWheelEvent(tick=1, channel=1, data=[119, 78]),
   midi.PitchWheelEvent(tick=1, channel=1, data=[111, 77]),
   midi.PitchWheelEvent(tick=1, channel=1, data=[102, 76]),
   midi.PitchWheelEvent(tick=1, channel=1, data=[94, 75]),
   midi.PitchWheelEvent(tick=1, channel=1, data=[85, 74]),
   midi.PitchWheelEvent(tick=1, channel=1, data=[77, 73]),
   midi.PitchWheelEvent(tick=1, channel=1, data=[68, 72]),
   midi.PitchWheelEvent(tick=1, channel=1, data=[60, 71]),
   midi.PitchWheelEvent(tick=1, channel=1, data=[51, 70]),
   midi.PitchWheelEvent(tick=1, channel=1, data=[43, 69]),
   midi.PitchWheelEvent(tick=1, channel=1, data=[34, 68]),
   midi.PitchWheelEvent(tick=1, channel=1, data=[26, 67]),
   midi.PitchWheelEvent(tick=1, channel=1, data=[17, 66]),
   midi.PitchWheelEvent(tick=1, channel=1, data=[9, 65]),
   midi.PitchWheelEvent(tick=1, channel=1, data=[0, 64]),
   midi.NoteOnEvent(tick=60, channel=1, data=[59, 0]),
   midi.NoteOnEvent(tick=0, channel=1, data=[57, 127]),
   midi.NoteOnEvent(tick=30, channel=1, data=[57, 0]),
   midi.NoteOnEvent(tick=0, channel=1, data=[59, 127]),
   midi.NoteOnEvent(tick=30, channel=1, data=[59, 0]),
   midi.NoteOnEvent(tick=0, channel=1, data=[57, 127]),
   midi.NoteOnEvent(tick=660, channel=1, data=[57, 0]),
   midi.NoteOnEvent(tick=60, channel=1, data=[59, 127]),
   midi.PitchWheelEvent(tick=0, channel=1, data=[0, 64]),
   midi.PitchWheelEvent(tick=1, channel=1, data=[68, 64]),
   midi.PitchWheelEvent(tick=1, channel=1, data=[9, 65]),
   midi.PitchWheelEvent(tick=1, channel=1, data=[77, 65]),
   midi.PitchWheelEvent(tick=1, channel=1, data=[17, 66]),
   midi.PitchWheelEvent(tick=1, channel=1, data=[85, 66]),
   midi.PitchWheelEvent(tick=1, channel=1, data=[26, 67]),
   midi.PitchWheelEvent(tick=1, channel=1, data=[94, 67]),
   midi.PitchWheelEvent(tick=1, channel=1, data=[34, 68]),
   midi.PitchWheelEvent(tick=1, channel=1, data=[102, 68]),
   midi.PitchWheelEvent(tick=1, channel=1, data=[43, 69]),
   midi.PitchWheelEvent(tick=1, channel=1, data=[111, 69]),
   midi.PitchWheelEvent(tick=1, channel=1, data=[51, 70]),
   midi.PitchWheelEvent(tick=1, channel=1, data=[119, 70]),
   midi.PitchWheelEvent(tick=1, channel=1, data=[60, 71]),
   midi.PitchWheelEvent(tick=1, channel=1, data=[0, 72]),
   midi.PitchWheelEvent(tick=1, channel=1, data=[68, 72]),
   midi.PitchWheelEvent(tick=1, channel=1, data=[8, 73]),
   midi.PitchWheelEvent(tick=1, channel=1, data=[77, 73]),
   midi.PitchWheelEvent(tick=1, channel=1, data=[17, 74]),
   midi.PitchWheelEvent(tick=1, channel=1, data=[85, 74]),
   midi.PitchWheelEvent(tick=1, channel=1, data=[25, 75]),
   midi.PitchWheelEvent(tick=1, channel=1, data=[94, 75]),
   midi.PitchWheelEvent(tick=1, channel=1, data=[34, 76]),
   midi.PitchWheelEvent(tick=1, channel=1, data=[102, 76]),
   midi.PitchWheelEvent(tick=1, channel=1, data=[42, 77]),
   midi.PitchWheelEvent(tick=1, channel=1, data=[111, 77]),
   midi.PitchWheelEvent(tick=1, channel=1, data=[51, 78]),
   midi.PitchWheelEvent(tick=1, channel=1, data=[119, 78]),
   midi.PitchWheelEvent(tick=1, channel=1, data=[59, 79]),
   midi.PitchWheelEvent(tick=1, channel=1, data=[0, 80]),
   midi.PitchWheelEvent(tick=1, channel=1, data=[68, 80]),
   midi.PitchWheelEvent(tick=1, channel=1, data=[8, 81]),
   midi.PitchWheelEvent(tick=1, channel=1, data=[77, 81]),
   midi.PitchWheelEvent(tick=1, channel=1, data=[17, 82]),
   midi.PitchWheelEvent(tick=1, channel=1, data=[85, 82]),
   midi.PitchWheelEvent(tick=1, channel=1, data=[25, 83]),
   midi.PitchWheelEvent(tick=1, channel=1, data=[94, 83]),
   midi.PitchWheelEvent(tick=1, channel=1, data=[34, 84]),
   midi.PitchWheelEvent(tick=1, channel=1, data=[102, 84]),
   midi.PitchWheelEvent(tick=1, channel=1, data=[42, 85]),
   midi.PitchWheelEvent(tick=1, channel=1, data=[111, 85]),
   midi.PitchWheelEvent(tick=1, channel=1, data=[51, 86]),
   midi.PitchWheelEvent(tick=1, channel=1, data=[119, 86]),
   midi.PitchWheelEvent(tick=1, channel=1, data=[59, 87]),
   midi.PitchWheelEvent(tick=1, channel=1, data=[0, 88]),
   midi.PitchWheelEvent(tick=1, channel=1, data=[68, 88]),
   midi.PitchWheelEvent(tick=1, channel=1, data=[8, 89]),
   midi.PitchWheelEvent(tick=1, channel=1, data=[76, 89]),
   midi.PitchWheelEvent(tick=1, channel=1, data=[17, 90]),
   midi.PitchWheelEvent(tick=1, channel=1, data=[85, 90]),
   midi.PitchWheelEvent(tick=1, channel=1, data=[25, 91]),
   midi.PitchWheelEvent(tick=1, channel=1, data=[93, 91]),
   midi.PitchWheelEvent(tick=1, channel=1, data=[34, 92]),
   midi.PitchWheelEvent(tick=1, channel=1, data=[102, 92]),
   midi.PitchWheelEvent(tick=1, channel=1, data=[42, 93]),
   midi.PitchWheelEvent(tick=1, channel=1, data=[110, 93]),
   midi.PitchWheelEvent(tick=1, channel=1, data=[51, 94]),
   midi.PitchWheelEvent(tick=1, channel=1, data=[119, 94]),
   midi.PitchWheelEvent(tick=1, channel=1, data=[59, 95]),
   midi.PitchWheelEvent(tick=1, channel=1, data=[0, 96]),
   midi.PitchWheelEvent(tick=1, channel=1, data=[68, 96]),
   midi.PitchWheelEvent(tick=1, channel=1, data=[8, 97]),
   midi.PitchWheelEvent(tick=1, channel=1, data=[76, 97]),
   midi.PitchWheelEvent(tick=1, channel=1, data=[17, 98]),
   midi.PitchWheelEvent(tick=1, channel=1, data=[85, 98]),
   midi.PitchWheelEvent(tick=1, channel=1, data=[25, 99]),
   midi.PitchWheelEvent(tick=1, channel=1, data=[93, 99]),
   midi.PitchWheelEvent(tick=1, channel=1, data=[34, 100]),
   midi.PitchWheelEvent(tick=1, channel=1, data=[102, 100]),
   midi.PitchWheelEvent(tick=1, channel=1, data=[42, 101]),
   midi.PitchWheelEvent(tick=1, channel=1, data=[110, 101]),
   midi.PitchWheelEvent(tick=1, channel=1, data=[51, 102]),
   midi.PitchWheelEvent(tick=1, channel=1, data=[119, 102]),
   midi.PitchWheelEvent(tick=1, channel=1, data=[59, 103]),
   midi.PitchWheelEvent(tick=1, channel=1, data=[127, 103]),
   midi.PitchWheelEvent(tick=1, channel=1, data=[68, 104]),
   midi.PitchWheelEvent(tick=1, channel=1, data=[8, 105]),
   midi.PitchWheelEvent(tick=1, channel=1, data=[76, 105]),
   midi.PitchWheelEvent(tick=1, channel=1, data=[16, 106]),
   midi.PitchWheelEvent(tick=1, channel=1, data=[85, 106]),
   midi.PitchWheelEvent(tick=1, channel=1, data=[25, 107]),
   midi.PitchWheelEvent(tick=1, channel=1, data=[93, 107]),
   midi.PitchWheelEvent(tick=1, channel=1, data=[33, 108]),
   midi.PitchWheelEvent(tick=1, channel=1, data=[102, 108]),
   midi.PitchWheelEvent(tick=1, channel=1, data=[42, 109]),
   midi.PitchWheelEvent(tick=1, channel=1, data=[110, 109]),
   midi.PitchWheelEvent(tick=1, channel=1, data=[50, 110]),
   midi.PitchWheelEvent(tick=1, channel=1, data=[119, 110]),
   midi.PitchWheelEvent(tick=1, channel=1, data=[59, 111]),
   midi.PitchWheelEvent(tick=1, channel=1, data=[127, 111]),
   midi.PitchWheelEvent(tick=1, channel=1, data=[68, 112]),
   midi.PitchWheelEvent(tick=1, channel=1, data=[8, 113]),
   midi.PitchWheelEvent(tick=1, channel=1, data=[76, 113]),
   midi.PitchWheelEvent(tick=1, channel=1, data=[16, 114]),
   midi.PitchWheelEvent(tick=1, channel=1, data=[85, 114]),
   midi.PitchWheelEvent(tick=1, channel=1, data=[25, 115]),
   midi.PitchWheelEvent(tick=1, channel=1, data=[93, 115]),
   midi.PitchWheelEvent(tick=1, channel=1, data=[33, 116]),
   midi.PitchWheelEvent(tick=1, channel=1, data=[102, 116]),
   midi.PitchWheelEvent(tick=1, channel=1, data=[42, 117]),
   midi.PitchWheelEvent(tick=1, channel=1, data=[110, 117]),
   midi.PitchWheelEvent(tick=1, channel=1, data=[50, 118]),
   midi.PitchWheelEvent(tick=1, channel=1, data=[119, 118]),
   midi.PitchWheelEvent(tick=1, channel=1, data=[59, 119]),
   midi.PitchWheelEvent(tick=1, channel=1, data=[127, 119]),
   midi.PitchWheelEvent(tick=1, channel=1, data=[67, 120]),
   midi.PitchWheelEvent(tick=1, channel=1, data=[8, 121]),
   midi.PitchWheelEvent(tick=1, channel=1, data=[76, 121]),
   midi.PitchWheelEvent(tick=1, channel=1, data=[16, 122]),
   midi.PitchWheelEvent(tick=1, channel=1, data=[84, 122]),
   midi.PitchWheelEvent(tick=1, channel=1, data=[25, 123]),
   midi.PitchWheelEvent(tick=1, channel=1, data=[93, 123]),
   midi.PitchWheelEvent(tick=1, channel=1, data=[33, 124]),
   midi.PitchWheelEvent(tick=1, channel=1, data=[101, 124]),
   midi.PitchWheelEvent(tick=1, channel=1, data=[42, 125]),
   midi.PitchWheelEvent(tick=1, channel=1, data=[110, 125]),
   midi.PitchWheelEvent(tick=1, channel=1, data=[50, 126]),
   midi.PitchWheelEvent(tick=1, channel=1, data=[118, 126]),
   midi.PitchWheelEvent(tick=1, channel=1, data=[59, 127]),
   midi.PitchWheelEvent(tick=1, channel=1, data=[127, 127]),
   midi.NoteOnEvent(tick=420, channel=1, data=[59, 0]),
   midi.PitchWheelEvent(tick=0, channel=1, data=[0, 64]),
   midi.NoteOnEvent(tick=0, channel=1, data=[59, 127]),
   midi.PitchWheelEvent(tick=1, channel=1, data=[17, 66]),
   midi.PitchWheelEvent(tick=1, channel=1, data=[34, 68]),
   midi.PitchWheelEvent(tick=1, channel=1, data=[51, 70]),
   midi.PitchWheelEvent(tick=1, channel=1, data=[68, 72]),
   midi.PitchWheelEvent(tick=1, channel=1, data=[85, 74]),
   midi.PitchWheelEvent(tick=1, channel=1, data=[102, 76]),
   midi.PitchWheelEvent(tick=1, channel=1, data=[119, 78]),
   midi.PitchWheelEvent(tick=1, channel=1, data=[8, 81]),
   midi.PitchWheelEvent(tick=1, channel=1, data=[25, 83]),
   midi.PitchWheelEvent(tick=1, channel=1, data=[42, 85]),
   midi.PitchWheelEvent(tick=1, channel=1, data=[59, 87]),
   midi.PitchWheelEvent(tick=1, channel=1, data=[76, 89]),
   midi.PitchWheelEvent(tick=1, channel=1, data=[93, 91]),
   midi.PitchWheelEvent(tick=1, channel=1, data=[110, 93]),
   midi.PitchWheelEvent(tick=1, channel=1, data=[0, 96]),
   midi.PitchWheelEvent(tick=1, channel=1, data=[17, 98]),
   midi.PitchWheelEvent(tick=1, channel=1, data=[34, 100]),
   midi.PitchWheelEvent(tick=1, channel=1, data=[51, 102]),
   midi.PitchWheelEvent(tick=1, channel=1, data=[68, 104]),
   midi.PitchWheelEvent(tick=1, channel=1, data=[85, 106]),
   midi.PitchWheelEvent(tick=1, channel=1, data=[102, 108]),
   midi.PitchWheelEvent(tick=1, channel=1, data=[119, 110]),
   midi.PitchWheelEvent(tick=1, channel=1, data=[8, 113]),
   midi.PitchWheelEvent(tick=1, channel=1, data=[25, 115]),
   midi.PitchWheelEvent(tick=1, channel=1, data=[42, 117]),
   midi.PitchWheelEvent(tick=1, channel=1, data=[59, 119]),
   midi.PitchWheelEvent(tick=1, channel=1, data=[76, 121]),
   midi.PitchWheelEvent(tick=1, channel=1, data=[93, 123]),
   midi.PitchWheelEvent(tick=1, channel=1, data=[110, 125]),
   midi.PitchWheelEvent(tick=1, channel=1, data=[0, 96]),
   midi.PitchWheelEvent(tick=0, channel=1, data=[127, 127]),
   midi.PitchWheelEvent(tick=1, channel=1, data=[119, 94]),
   midi.PitchWheelEvent(tick=1, channel=1, data=[111, 93]),
   midi.PitchWheelEvent(tick=1, channel=1, data=[102, 92]),
   midi.PitchWheelEvent(tick=1, channel=1, data=[94, 91]),
   midi.PitchWheelEvent(tick=1, channel=1, data=[85, 90]),
   midi.PitchWheelEvent(tick=1, channel=1, data=[77, 89]),
   midi.PitchWheelEvent(tick=1, channel=1, data=[68, 88]),
   midi.PitchWheelEvent(tick=1, channel=1, data=[60, 87]),
   midi.PitchWheelEvent(tick=1, channel=1, data=[51, 86]),
   midi.PitchWheelEvent(tick=1, channel=1, data=[43, 85]),
   midi.PitchWheelEvent(tick=1, channel=1, data=[34, 84]),
   midi.PitchWheelEvent(tick=1, channel=1, data=[26, 83]),
   midi.PitchWheelEvent(tick=1, channel=1, data=[17, 82]),
   midi.PitchWheelEvent(tick=1, channel=1, data=[9, 81]),
   midi.PitchWheelEvent(tick=1, channel=1, data=[0, 80]),
   midi.PitchWheelEvent(tick=1, channel=1, data=[119, 78]),
   midi.PitchWheelEvent(tick=1, channel=1, data=[111, 77]),
   midi.PitchWheelEvent(tick=1, channel=1, data=[102, 76]),
   midi.PitchWheelEvent(tick=1, channel=1, data=[94, 75]),
   midi.PitchWheelEvent(tick=1, channel=1, data=[85, 74]),
   midi.PitchWheelEvent(tick=1, channel=1, data=[77, 73]),
   midi.PitchWheelEvent(tick=1, channel=1, data=[68, 72]),
   midi.PitchWheelEvent(tick=1, channel=1, data=[60, 71]),
   midi.PitchWheelEvent(tick=1, channel=1, data=[51, 70]),
   midi.PitchWheelEvent(tick=1, channel=1, data=[43, 69]),
   midi.PitchWheelEvent(tick=1, channel=1, data=[34, 68]),
   midi.PitchWheelEvent(tick=1, channel=1, data=[26, 67]),
   midi.PitchWheelEvent(tick=1, channel=1, data=[17, 66]),
   midi.PitchWheelEvent(tick=1, channel=1, data=[9, 65]),
   midi.PitchWheelEvent(tick=1, channel=1, data=[0, 64]),
   midi.NoteOnEvent(tick=60, channel=1, data=[59, 0]),
   midi.NoteOnEvent(tick=0, channel=1, data=[57, 127]),
   midi.NoteOnEvent(tick=30, channel=1, data=[57, 0]),
   midi.NoteOnEvent(tick=0, channel=1, data=[59, 127]),
   midi.NoteOnEvent(tick=30, channel=1, data=[59, 0]),
   midi.NoteOnEvent(tick=0, channel=1, data=[57, 127]),
   midi.NoteOnEvent(tick=660, channel=1, data=[57, 0]),
   midi.NoteOnEvent(tick=60, channel=1, data=[59, 127]),
   midi.PitchWheelEvent(tick=0, channel=1, data=[0, 64]),
   midi.PitchWheelEvent(tick=1, channel=1, data=[68, 64]),
   midi.PitchWheelEvent(tick=1, channel=1, data=[9, 65]),
   midi.PitchWheelEvent(tick=1, channel=1, data=[77, 65]),
   midi.PitchWheelEvent(tick=1, channel=1, data=[17, 66]),
   midi.PitchWheelEvent(tick=1, channel=1, data=[85, 66]),
   midi.PitchWheelEvent(tick=1, channel=1, data=[26, 67]),
   midi.PitchWheelEvent(tick=1, channel=1, data=[94, 67]),
   midi.PitchWheelEvent(tick=1, channel=1, data=[34, 68]),
   midi.PitchWheelEvent(tick=1, channel=1, data=[102, 68]),
   midi.PitchWheelEvent(tick=1, channel=1, data=[43, 69]),
   midi.PitchWheelEvent(tick=1, channel=1, data=[111, 69]),
   midi.PitchWheelEvent(tick=1, channel=1, data=[51, 70]),
   midi.PitchWheelEvent(tick=1, channel=1, data=[119, 70]),
   midi.PitchWheelEvent(tick=1, channel=1, data=[60, 71]),
   midi.PitchWheelEvent(tick=1, channel=1, data=[0, 72]),
   midi.PitchWheelEvent(tick=1, channel=1, data=[68, 72]),
   midi.PitchWheelEvent(tick=1, channel=1, data=[8, 73]),
   midi.PitchWheelEvent(tick=1, channel=1, data=[77, 73]),
   midi.PitchWheelEvent(tick=1, channel=1, data=[17, 74]),
   midi.PitchWheelEvent(tick=1, channel=1, data=[85, 74]),
   midi.PitchWheelEvent(tick=1, channel=1, data=[25, 75]),
   midi.PitchWheelEvent(tick=1, channel=1, data=[94, 75]),
   midi.PitchWheelEvent(tick=1, channel=1, data=[34, 76]),
   midi.PitchWheelEvent(tick=1, channel=1, data=[102, 76]),
   midi.PitchWheelEvent(tick=1, channel=1, data=[42, 77]),
   midi.PitchWheelEvent(tick=1, channel=1, data=[111, 77]),
   midi.PitchWheelEvent(tick=1, channel=1, data=[51, 78]),
   midi.PitchWheelEvent(tick=1, channel=1, data=[119, 78]),
   midi.PitchWheelEvent(tick=1, channel=1, data=[59, 79]),
   midi.PitchWheelEvent(tick=1, channel=1, data=[0, 80]),
   midi.PitchWheelEvent(tick=1, channel=1, data=[68, 80]),
   midi.PitchWheelEvent(tick=1, channel=1, data=[8, 81]),
   midi.PitchWheelEvent(tick=1, channel=1, data=[77, 81]),
   midi.PitchWheelEvent(tick=1, channel=1, data=[17, 82]),
   midi.PitchWheelEvent(tick=1, channel=1, data=[85, 82]),
   midi.PitchWheelEvent(tick=1, channel=1, data=[25, 83]),
   midi.PitchWheelEvent(tick=1, channel=1, data=[94, 83]),
   midi.PitchWheelEvent(tick=1, channel=1, data=[34, 84]),
   midi.PitchWheelEvent(tick=1, channel=1, data=[102, 84]),
   midi.PitchWheelEvent(tick=1, channel=1, data=[42, 85]),
   midi.PitchWheelEvent(tick=1, channel=1, data=[111, 85]),
   midi.PitchWheelEvent(tick=1, channel=1, data=[51, 86]),
   midi.PitchWheelEvent(tick=1, channel=1, data=[119, 86]),
   midi.PitchWheelEvent(tick=1, channel=1, data=[59, 87]),
   midi.PitchWheelEvent(tick=1, channel=1, data=[0, 88]),
   midi.PitchWheelEvent(tick=1, channel=1, data=[68, 88]),
   midi.PitchWheelEvent(tick=1, channel=1, data=[8, 89]),
   midi.PitchWheelEvent(tick=1, channel=1, data=[76, 89]),
   midi.PitchWheelEvent(tick=1, channel=1, data=[17, 90]),
   midi.PitchWheelEvent(tick=1, channel=1, data=[85, 90]),
   midi.PitchWheelEvent(tick=1, channel=1, data=[25, 91]),
   midi.PitchWheelEvent(tick=1, channel=1, data=[93, 91]),
   midi.PitchWheelEvent(tick=1, channel=1, data=[34, 92]),
   midi.PitchWheelEvent(tick=1, channel=1, data=[102, 92]),
   midi.PitchWheelEvent(tick=1, channel=1, data=[42, 93]),
   midi.PitchWheelEvent(tick=1, channel=1, data=[110, 93]),
   midi.PitchWheelEvent(tick=1, channel=1, data=[51, 94]),
   midi.PitchWheelEvent(tick=1, channel=1, data=[119, 94]),
   midi.PitchWheelEvent(tick=1, channel=1, data=[59, 95]),
   midi.PitchWheelEvent(tick=1, channel=1, data=[0, 96]),
   midi.PitchWheelEvent(tick=1, channel=1, data=[68, 96]),
   midi.PitchWheelEvent(tick=1, channel=1, data=[8, 97]),
   midi.PitchWheelEvent(tick=1, channel=1, data=[76, 97]),
   midi.PitchWheelEvent(tick=1, channel=1, data=[17, 98]),
   midi.PitchWheelEvent(tick=1, channel=1, data=[85, 98]),
   midi.PitchWheelEvent(tick=1, channel=1, data=[25, 99]),
   midi.PitchWheelEvent(tick=1, channel=1, data=[93, 99]),
   midi.PitchWheelEvent(tick=1, channel=1, data=[34, 100]),
   midi.PitchWheelEvent(tick=1, channel=1, data=[102, 100]),
   midi.PitchWheelEvent(tick=1, channel=1, data=[42, 101]),
   midi.PitchWheelEvent(tick=1, channel=1, data=[110, 101]),
   midi.PitchWheelEvent(tick=1, channel=1, data=[51, 102]),
   midi.PitchWheelEvent(tick=1, channel=1, data=[119, 102]),
   midi.PitchWheelEvent(tick=1, channel=1, data=[59, 103]),
   midi.PitchWheelEvent(tick=1, channel=1, data=[127, 103]),
   midi.PitchWheelEvent(tick=1, channel=1, data=[68, 104]),
   midi.PitchWheelEvent(tick=1, channel=1, data=[8, 105]),
   midi.PitchWheelEvent(tick=1, channel=1, data=[76, 105]),
   midi.PitchWheelEvent(tick=1, channel=1, data=[16, 106]),
   midi.PitchWheelEvent(tick=1, channel=1, data=[85, 106]),
   midi.PitchWheelEvent(tick=1, channel=1, data=[25, 107]),
   midi.PitchWheelEvent(tick=1, channel=1, data=[93, 107]),
   midi.PitchWheelEvent(tick=1, channel=1, data=[33, 108]),
   midi.PitchWheelEvent(tick=1, channel=1, data=[102, 108]),
   midi.PitchWheelEvent(tick=1, channel=1, data=[42, 109]),
   midi.PitchWheelEvent(tick=1, channel=1, data=[110, 109]),
   midi.PitchWheelEvent(tick=1, channel=1, data=[50, 110]),
   midi.PitchWheelEvent(tick=1, channel=1, data=[119, 110]),
   midi.PitchWheelEvent(tick=1, channel=1, data=[59, 111]),
   midi.PitchWheelEvent(tick=1, channel=1, data=[127, 111]),
   midi.PitchWheelEvent(tick=1, channel=1, data=[68, 112]),
   midi.PitchWheelEvent(tick=1, channel=1, data=[8, 113]),
   midi.PitchWheelEvent(tick=1, channel=1, data=[76, 113]),
   midi.PitchWheelEvent(tick=1, channel=1, data=[16, 114]),
   midi.PitchWheelEvent(tick=1, channel=1, data=[85, 114]),
   midi.PitchWheelEvent(tick=1, channel=1, data=[25, 115]),
   midi.PitchWheelEvent(tick=1, channel=1, data=[93, 115]),
   midi.PitchWheelEvent(tick=1, channel=1, data=[33, 116]),
   midi.PitchWheelEvent(tick=1, channel=1, data=[102, 116]),
   midi.PitchWheelEvent(tick=1, channel=1, data=[42, 117]),
   midi.PitchWheelEvent(tick=1, channel=1, data=[110, 117]),
   midi.PitchWheelEvent(tick=1, channel=1, data=[50, 118]),
   midi.PitchWheelEvent(tick=1, channel=1, data=[119, 118]),
   midi.PitchWheelEvent(tick=1, channel=1, data=[59, 119]),
   midi.PitchWheelEvent(tick=1, channel=1, data=[127, 119]),
   midi.PitchWheelEvent(tick=1, channel=1, data=[67, 120]),
   midi.PitchWheelEvent(tick=1, channel=1, data=[8, 121]),
   midi.PitchWheelEvent(tick=1, channel=1, data=[76, 121]),
   midi.PitchWheelEvent(tick=1, channel=1, data=[16, 122]),
   midi.PitchWheelEvent(tick=1, channel=1, data=[84, 122]),
   midi.PitchWheelEvent(tick=1, channel=1, data=[25, 123]),
   midi.PitchWheelEvent(tick=1, channel=1, data=[93, 123]),
   midi.PitchWheelEvent(tick=1, channel=1, data=[33, 124]),
   midi.PitchWheelEvent(tick=1, channel=1, data=[101, 124]),
   midi.PitchWheelEvent(tick=1, channel=1, data=[42, 125]),
   midi.PitchWheelEvent(tick=1, channel=1, data=[110, 125]),
   midi.PitchWheelEvent(tick=1, channel=1, data=[50, 126]),
   midi.PitchWheelEvent(tick=1, channel=1, data=[118, 126]),
   midi.PitchWheelEvent(tick=1, channel=1, data=[59, 127]),
   midi.PitchWheelEvent(tick=1, channel=1, data=[127, 127]),
   midi.NoteOnEvent(tick=420, channel=1, data=[59, 0]),
   midi.PitchWheelEvent(tick=0, channel=1, data=[0, 64]),
   midi.NoteOnEvent(tick=0, channel=1, data=[59, 127]),
   midi.PitchWheelEvent(tick=1, channel=1, data=[17, 66]),
   midi.PitchWheelEvent(tick=1, channel=1, data=[34, 68]),
   midi.PitchWheelEvent(tick=1, channel=1, data=[51, 70]),
   midi.PitchWheelEvent(tick=1, channel=1, data=[68, 72]),
   midi.PitchWheelEvent(tick=1, channel=1, data=[85, 74]),
   midi.PitchWheelEvent(tick=1, channel=1, data=[102, 76]),
   midi.PitchWheelEvent(tick=1, channel=1, data=[119, 78]),
   midi.PitchWheelEvent(tick=1, channel=1, data=[8, 81]),
   midi.PitchWheelEvent(tick=1, channel=1, data=[25, 83]),
   midi.PitchWheelEvent(tick=1, channel=1, data=[42, 85]),
   midi.PitchWheelEvent(tick=1, channel=1, data=[59, 87]),
   midi.PitchWheelEvent(tick=1, channel=1, data=[76, 89]),
   midi.PitchWheelEvent(tick=1, channel=1, data=[93, 91]),
   midi.PitchWheelEvent(tick=1, channel=1, data=[110, 93]),
   midi.PitchWheelEvent(tick=1, channel=1, data=[0, 96]),
   midi.PitchWheelEvent(tick=1, channel=1, data=[17, 98]),
   midi.PitchWheelEvent(tick=1, channel=1, data=[34, 100]),
   midi.PitchWheelEvent(tick=1, channel=1, data=[51, 102]),
   midi.PitchWheelEvent(tick=1, channel=1, data=[68, 104]),
   midi.PitchWheelEvent(tick=1, channel=1, data=[85, 106]),
   midi.PitchWheelEvent(tick=1, channel=1, data=[102, 108]),
   midi.PitchWheelEvent(tick=1, channel=1, data=[119, 110]),
   midi.PitchWheelEvent(tick=1, channel=1, data=[8, 113]),
   midi.PitchWheelEvent(tick=1, channel=1, data=[25, 115]),
   midi.PitchWheelEvent(tick=1, channel=1, data=[42, 117]),
   midi.PitchWheelEvent(tick=1, channel=1, data=[59, 119]),
   midi.PitchWheelEvent(tick=1, channel=1, data=[76, 121]),
   midi.PitchWheelEvent(tick=1, channel=1, data=[93, 123]),
   midi.PitchWheelEvent(tick=1, channel=1, data=[110, 125]),
   midi.PitchWheelEvent(tick=1, channel=1, data=[0, 96]),
   midi.PitchWheelEvent(tick=0, channel=1, data=[127, 127]),
   midi.PitchWheelEvent(tick=1, channel=1, data=[119, 94]),
   midi.PitchWheelEvent(tick=1, channel=1, data=[111, 93]),
   midi.PitchWheelEvent(tick=1, channel=1, data=[102, 92]),
   midi.PitchWheelEvent(tick=1, channel=1, data=[94, 91]),
   midi.PitchWheelEvent(tick=1, channel=1, data=[85, 90]),
   midi.PitchWheelEvent(tick=1, channel=1, data=[77, 89]),
   midi.PitchWheelEvent(tick=1, channel=1, data=[68, 88]),
   midi.PitchWheelEvent(tick=1, channel=1, data=[60, 87]),
   midi.PitchWheelEvent(tick=1, channel=1, data=[51, 86]),
   midi.PitchWheelEvent(tick=1, channel=1, data=[43, 85]),
   midi.PitchWheelEvent(tick=1, channel=1, data=[34, 84]),
   midi.PitchWheelEvent(tick=1, channel=1, data=[26, 83]),
   midi.PitchWheelEvent(tick=1, channel=1, data=[17, 82]),
   midi.PitchWheelEvent(tick=1, channel=1, data=[9, 81]),
   midi.PitchWheelEvent(tick=1, channel=1, data=[0, 80]),
   midi.PitchWheelEvent(tick=1, channel=1, data=[119, 78]),
   midi.PitchWheelEvent(tick=1, channel=1, data=[111, 77]),
   midi.PitchWheelEvent(tick=1, channel=1, data=[102, 76]),
   midi.PitchWheelEvent(tick=1, channel=1, data=[94, 75]),
   midi.PitchWheelEvent(tick=1, channel=1, data=[85, 74]),
   midi.PitchWheelEvent(tick=1, channel=1, data=[77, 73]),
   midi.PitchWheelEvent(tick=1, channel=1, data=[68, 72]),
   midi.PitchWheelEvent(tick=1, channel=1, data=[60, 71]),
   midi.PitchWheelEvent(tick=1, channel=1, data=[51, 70]),
   midi.PitchWheelEvent(tick=1, channel=1, data=[43, 69]),
   midi.PitchWheelEvent(tick=1, channel=1, data=[34, 68]),
   midi.PitchWheelEvent(tick=1, channel=1, data=[26, 67]),
   midi.PitchWheelEvent(tick=1, channel=1, data=[17, 66]),
   midi.PitchWheelEvent(tick=1, channel=1, data=[9, 65]),
   midi.PitchWheelEvent(tick=1, channel=1, data=[0, 64]),
   midi.NoteOnEvent(tick=60, channel=1, data=[59, 0]),
   midi.NoteOnEvent(tick=0, channel=1, data=[57, 127]),
   midi.NoteOnEvent(tick=30, channel=1, data=[57, 0]),
   midi.NoteOnEvent(tick=0, channel=1, data=[59, 127]),
   midi.NoteOnEvent(tick=30, channel=1, data=[59, 0]),
   midi.NoteOnEvent(tick=0, channel=1, data=[57, 127]),
   midi.NoteOnEvent(tick=60, channel=1, data=[57, 0]),
   midi.NoteOnEvent(tick=0, channel=1, data=[54, 127]),
   midi.NoteOnEvent(tick=60, channel=1, data=[54, 0]),
   midi.NoteOnEvent(tick=0, channel=1, data=[54, 127]),
   midi.NoteOnEvent(tick=60, channel=1, data=[54, 0]),
   midi.NoteOnEvent(tick=0, channel=1, data=[54, 127]),
   midi.NoteOnEvent(tick=480, channel=1, data=[54, 0]),
   midi.NoteOnEvent(tick=60, channel=1, data=[59, 127]),
   midi.PitchWheelEvent(tick=0, channel=1, data=[0, 64]),
   midi.PitchWheelEvent(tick=1, channel=1, data=[68, 64]),
   midi.PitchWheelEvent(tick=1, channel=1, data=[9, 65]),
   midi.PitchWheelEvent(tick=1, channel=1, data=[77, 65]),
   midi.PitchWheelEvent(tick=1, channel=1, data=[17, 66]),
   midi.PitchWheelEvent(tick=1, channel=1, data=[85, 66]),
   midi.PitchWheelEvent(tick=1, channel=1, data=[26, 67]),
   midi.PitchWheelEvent(tick=1, channel=1, data=[94, 67]),
   midi.PitchWheelEvent(tick=1, channel=1, data=[34, 68]),
   midi.PitchWheelEvent(tick=1, channel=1, data=[102, 68]),
   midi.PitchWheelEvent(tick=1, channel=1, data=[43, 69]),
   midi.PitchWheelEvent(tick=1, channel=1, data=[111, 69]),
   midi.PitchWheelEvent(tick=1, channel=1, data=[51, 70]),
   midi.PitchWheelEvent(tick=1, channel=1, data=[119, 70]),
   midi.PitchWheelEvent(tick=1, channel=1, data=[60, 71]),
   midi.PitchWheelEvent(tick=1, channel=1, data=[0, 72]),
   midi.PitchWheelEvent(tick=1, channel=1, data=[68, 72]),
   midi.PitchWheelEvent(tick=1, channel=1, data=[8, 73]),
   midi.PitchWheelEvent(tick=1, channel=1, data=[77, 73]),
   midi.PitchWheelEvent(tick=1, channel=1, data=[17, 74]),
   midi.PitchWheelEvent(tick=1, channel=1, data=[85, 74]),
   midi.PitchWheelEvent(tick=1, channel=1, data=[25, 75]),
   midi.PitchWheelEvent(tick=1, channel=1, data=[94, 75]),
   midi.PitchWheelEvent(tick=1, channel=1, data=[34, 76]),
   midi.PitchWheelEvent(tick=1, channel=1, data=[102, 76]),
   midi.PitchWheelEvent(tick=1, channel=1, data=[42, 77]),
   midi.PitchWheelEvent(tick=1, channel=1, data=[111, 77]),
   midi.PitchWheelEvent(tick=1, channel=1, data=[51, 78]),
   midi.PitchWheelEvent(tick=1, channel=1, data=[119, 78]),
   midi.PitchWheelEvent(tick=1, channel=1, data=[59, 79]),
   midi.PitchWheelEvent(tick=1, channel=1, data=[0, 80]),
   midi.PitchWheelEvent(tick=1, channel=1, data=[68, 80]),
   midi.PitchWheelEvent(tick=1, channel=1, data=[8, 81]),
   midi.PitchWheelEvent(tick=1, channel=1, data=[77, 81]),
   midi.PitchWheelEvent(tick=1, channel=1, data=[17, 82]),
   midi.PitchWheelEvent(tick=1, channel=1, data=[85, 82]),
   midi.PitchWheelEvent(tick=1, channel=1, data=[25, 83]),
   midi.PitchWheelEvent(tick=1, channel=1, data=[94, 83]),
   midi.PitchWheelEvent(tick=1, channel=1, data=[34, 84]),
   midi.PitchWheelEvent(tick=1, channel=1, data=[102, 84]),
   midi.PitchWheelEvent(tick=1, channel=1, data=[42, 85]),
   midi.PitchWheelEvent(tick=1, channel=1, data=[111, 85]),
   midi.PitchWheelEvent(tick=1, channel=1, data=[51, 86]),
   midi.PitchWheelEvent(tick=1, channel=1, data=[119, 86]),
   midi.PitchWheelEvent(tick=1, channel=1, data=[59, 87]),
   midi.PitchWheelEvent(tick=1, channel=1, data=[0, 88]),
   midi.PitchWheelEvent(tick=1, channel=1, data=[68, 88]),
   midi.PitchWheelEvent(tick=1, channel=1, data=[8, 89]),
   midi.PitchWheelEvent(tick=1, channel=1, data=[76, 89]),
   midi.PitchWheelEvent(tick=1, channel=1, data=[17, 90]),
   midi.PitchWheelEvent(tick=1, channel=1, data=[85, 90]),
   midi.PitchWheelEvent(tick=1, channel=1, data=[25, 91]),
   midi.PitchWheelEvent(tick=1, channel=1, data=[93, 91]),
   midi.PitchWheelEvent(tick=1, channel=1, data=[34, 92]),
   midi.PitchWheelEvent(tick=1, channel=1, data=[102, 92]),
   midi.PitchWheelEvent(tick=1, channel=1, data=[42, 93]),
   midi.PitchWheelEvent(tick=1, channel=1, data=[110, 93]),
   midi.PitchWheelEvent(tick=1, channel=1, data=[51, 94]),
   midi.PitchWheelEvent(tick=1, channel=1, data=[119, 94]),
   midi.PitchWheelEvent(tick=1, channel=1, data=[59, 95]),
   midi.PitchWheelEvent(tick=1, channel=1, data=[0, 96]),
   midi.PitchWheelEvent(tick=1, channel=1, data=[68, 96]),
   midi.PitchWheelEvent(tick=1, channel=1, data=[8, 97]),
   midi.PitchWheelEvent(tick=1, channel=1, data=[76, 97]),
   midi.PitchWheelEvent(tick=1, channel=1, data=[17, 98]),
   midi.PitchWheelEvent(tick=1, channel=1, data=[85, 98]),
   midi.PitchWheelEvent(tick=1, channel=1, data=[25, 99]),
   midi.PitchWheelEvent(tick=1, channel=1, data=[93, 99]),
   midi.PitchWheelEvent(tick=1, channel=1, data=[34, 100]),
   midi.PitchWheelEvent(tick=1, channel=1, data=[102, 100]),
   midi.PitchWheelEvent(tick=1, channel=1, data=[42, 101]),
   midi.PitchWheelEvent(tick=1, channel=1, data=[110, 101]),
   midi.PitchWheelEvent(tick=1, channel=1, data=[51, 102]),
   midi.PitchWheelEvent(tick=1, channel=1, data=[119, 102]),
   midi.PitchWheelEvent(tick=1, channel=1, data=[59, 103]),
   midi.PitchWheelEvent(tick=1, channel=1, data=[127, 103]),
   midi.PitchWheelEvent(tick=1, channel=1, data=[68, 104]),
   midi.PitchWheelEvent(tick=1, channel=1, data=[8, 105]),
   midi.PitchWheelEvent(tick=1, channel=1, data=[76, 105]),
   midi.PitchWheelEvent(tick=1, channel=1, data=[16, 106]),
   midi.PitchWheelEvent(tick=1, channel=1, data=[85, 106]),
   midi.PitchWheelEvent(tick=1, channel=1, data=[25, 107]),
   midi.PitchWheelEvent(tick=1, channel=1, data=[93, 107]),
   midi.PitchWheelEvent(tick=1, channel=1, data=[33, 108]),
   midi.PitchWheelEvent(tick=1, channel=1, data=[102, 108]),
   midi.PitchWheelEvent(tick=1, channel=1, data=[42, 109]),
   midi.PitchWheelEvent(tick=1, channel=1, data=[110, 109]),
   midi.PitchWheelEvent(tick=1, channel=1, data=[50, 110]),
   midi.PitchWheelEvent(tick=1, channel=1, data=[119, 110]),
   midi.PitchWheelEvent(tick=1, channel=1, data=[59, 111]),
   midi.PitchWheelEvent(tick=1, channel=1, data=[127, 111]),
   midi.PitchWheelEvent(tick=1, channel=1, data=[68, 112]),
   midi.PitchWheelEvent(tick=1, channel=1, data=[8, 113]),
   midi.PitchWheelEvent(tick=1, channel=1, data=[76, 113]),
   midi.PitchWheelEvent(tick=1, channel=1, data=[16, 114]),
   midi.PitchWheelEvent(tick=1, channel=1, data=[85, 114]),
   midi.PitchWheelEvent(tick=1, channel=1, data=[25, 115]),
   midi.PitchWheelEvent(tick=1, channel=1, data=[93, 115]),
   midi.PitchWheelEvent(tick=1, channel=1, data=[33, 116]),
   midi.PitchWheelEvent(tick=1, channel=1, data=[102, 116]),
   midi.PitchWheelEvent(tick=1, channel=1, data=[42, 117]),
   midi.PitchWheelEvent(tick=1, channel=1, data=[110, 117]),
   midi.PitchWheelEvent(tick=1, channel=1, data=[50, 118]),
   midi.PitchWheelEvent(tick=1, channel=1, data=[119, 118]),
   midi.PitchWheelEvent(tick=1, channel=1, data=[59, 119]),
   midi.PitchWheelEvent(tick=1, channel=1, data=[127, 119]),
   midi.PitchWheelEvent(tick=1, channel=1, data=[67, 120]),
   midi.PitchWheelEvent(tick=1, channel=1, data=[8, 121]),
   midi.PitchWheelEvent(tick=1, channel=1, data=[76, 121]),
   midi.PitchWheelEvent(tick=1, channel=1, data=[16, 122]),
   midi.PitchWheelEvent(tick=1, channel=1, data=[84, 122]),
   midi.PitchWheelEvent(tick=1, channel=1, data=[25, 123]),
   midi.PitchWheelEvent(tick=1, channel=1, data=[93, 123]),
   midi.PitchWheelEvent(tick=1, channel=1, data=[33, 124]),
   midi.PitchWheelEvent(tick=1, channel=1, data=[101, 124]),
   midi.PitchWheelEvent(tick=1, channel=1, data=[42, 125]),
   midi.PitchWheelEvent(tick=1, channel=1, data=[110, 125]),
   midi.PitchWheelEvent(tick=1, channel=1, data=[50, 126]),
   midi.PitchWheelEvent(tick=1, channel=1, data=[118, 126]),
   midi.PitchWheelEvent(tick=1, channel=1, data=[59, 127]),
   midi.PitchWheelEvent(tick=1, channel=1, data=[127, 127]),
   midi.NoteOnEvent(tick=420, channel=1, data=[59, 0]),
   midi.PitchWheelEvent(tick=0, channel=1, data=[0, 64]),
   midi.NoteOnEvent(tick=0, channel=1, data=[59, 127]),
   midi.PitchWheelEvent(tick=1, channel=1, data=[17, 66]),
   midi.PitchWheelEvent(tick=1, channel=1, data=[34, 68]),
   midi.PitchWheelEvent(tick=1, channel=1, data=[51, 70]),
   midi.PitchWheelEvent(tick=1, channel=1, data=[68, 72]),
   midi.PitchWheelEvent(tick=1, channel=1, data=[85, 74]),
   midi.PitchWheelEvent(tick=1, channel=1, data=[102, 76]),
   midi.PitchWheelEvent(tick=1, channel=1, data=[119, 78]),
   midi.PitchWheelEvent(tick=1, channel=1, data=[8, 81]),
   midi.PitchWheelEvent(tick=1, channel=1, data=[25, 83]),
   midi.PitchWheelEvent(tick=1, channel=1, data=[42, 85]),
   midi.PitchWheelEvent(tick=1, channel=1, data=[59, 87]),
   midi.PitchWheelEvent(tick=1, channel=1, data=[76, 89]),
   midi.PitchWheelEvent(tick=1, channel=1, data=[93, 91]),
   midi.PitchWheelEvent(tick=1, channel=1, data=[110, 93]),
   midi.PitchWheelEvent(tick=1, channel=1, data=[0, 96]),
   midi.PitchWheelEvent(tick=1, channel=1, data=[17, 98]),
   midi.PitchWheelEvent(tick=1, channel=1, data=[34, 100]),
   midi.PitchWheelEvent(tick=1, channel=1, data=[51, 102]),
   midi.PitchWheelEvent(tick=1, channel=1, data=[68, 104]),
   midi.PitchWheelEvent(tick=1, channel=1, data=[85, 106]),
   midi.PitchWheelEvent(tick=1, channel=1, data=[102, 108]),
   midi.PitchWheelEvent(tick=1, channel=1, data=[119, 110]),
   midi.PitchWheelEvent(tick=1, channel=1, data=[8, 113]),
   midi.PitchWheelEvent(tick=1, channel=1, data=[25, 115]),
   midi.PitchWheelEvent(tick=1, channel=1, data=[42, 117]),
   midi.PitchWheelEvent(tick=1, channel=1, data=[59, 119]),
   midi.PitchWheelEvent(tick=1, channel=1, data=[76, 121]),
   midi.PitchWheelEvent(tick=1, channel=1, data=[93, 123]),
   midi.PitchWheelEvent(tick=1, channel=1, data=[110, 125]),
   midi.PitchWheelEvent(tick=1, channel=1, data=[0, 96]),
   midi.PitchWheelEvent(tick=0, channel=1, data=[127, 127]),
   midi.PitchWheelEvent(tick=1, channel=1, data=[119, 94]),
   midi.PitchWheelEvent(tick=1, channel=1, data=[111, 93]),
   midi.PitchWheelEvent(tick=1, channel=1, data=[102, 92]),
   midi.PitchWheelEvent(tick=1, channel=1, data=[94, 91]),
   midi.PitchWheelEvent(tick=1, channel=1, data=[85, 90]),
   midi.PitchWheelEvent(tick=1, channel=1, data=[77, 89]),
   midi.PitchWheelEvent(tick=1, channel=1, data=[68, 88]),
   midi.PitchWheelEvent(tick=1, channel=1, data=[60, 87]),
   midi.PitchWheelEvent(tick=1, channel=1, data=[51, 86]),
   midi.PitchWheelEvent(tick=1, channel=1, data=[43, 85]),
   midi.PitchWheelEvent(tick=1, channel=1, data=[34, 84]),
   midi.PitchWheelEvent(tick=1, channel=1, data=[26, 83]),
   midi.PitchWheelEvent(tick=1, channel=1, data=[17, 82]),
   midi.PitchWheelEvent(tick=1, channel=1, data=[9, 81]),
   midi.PitchWheelEvent(tick=1, channel=1, data=[0, 80]),
   midi.PitchWheelEvent(tick=1, channel=1, data=[119, 78]),
   midi.PitchWheelEvent(tick=1, channel=1, data=[111, 77]),
   midi.PitchWheelEvent(tick=1, channel=1, data=[102, 76]),
   midi.PitchWheelEvent(tick=1, channel=1, data=[94, 75]),
   midi.PitchWheelEvent(tick=1, channel=1, data=[85, 74]),
   midi.PitchWheelEvent(tick=1, channel=1, data=[77, 73]),
   midi.PitchWheelEvent(tick=1, channel=1, data=[68, 72]),
   midi.PitchWheelEvent(tick=1, channel=1, data=[60, 71]),
   midi.PitchWheelEvent(tick=1, channel=1, data=[51, 70]),
   midi.PitchWheelEvent(tick=1, channel=1, data=[43, 69]),
   midi.PitchWheelEvent(tick=1, channel=1, data=[34, 68]),
   midi.PitchWheelEvent(tick=1, channel=1, data=[26, 67]),
   midi.PitchWheelEvent(tick=1, channel=1, data=[17, 66]),
   midi.PitchWheelEvent(tick=1, channel=1, data=[9, 65]),
   midi.PitchWheelEvent(tick=1, channel=1, data=[0, 64]),
   midi.NoteOnEvent(tick=60, channel=1, data=[59, 0]),
   midi.NoteOnEvent(tick=0, channel=1, data=[57, 127]),
   midi.NoteOnEvent(tick=30, channel=1, data=[57, 0]),
   midi.NoteOnEvent(tick=0, channel=1, data=[59, 127]),
   midi.NoteOnEvent(tick=30, channel=1, data=[59, 0]),
   midi.NoteOnEvent(tick=0, channel=1, data=[57, 127]),
   midi.NoteOnEvent(tick=60, channel=1, data=[57, 0]),
   midi.NoteOnEvent(tick=0, channel=1, data=[54, 127]),
   midi.NoteOnEvent(tick=60, channel=1, data=[54, 0]),
   midi.NoteOnEvent(tick=0, channel=1, data=[54, 127]),
   midi.NoteOnEvent(tick=60, channel=1, data=[54, 0]),
   midi.NoteOnEvent(tick=0, channel=1, data=[54, 127]),
   midi.NoteOnEvent(tick=60, channel=1, data=[54, 0]),
   midi.NoteOnEvent(tick=0, channel=1, data=[52, 127]),
   midi.NoteOnEvent(tick=60, channel=1, data=[52, 0]),
   midi.NoteOnEvent(tick=0, channel=1, data=[52, 127]),
   midi.NoteOnEvent(tick=60, channel=1, data=[52, 0]),
   midi.NoteOnEvent(tick=0, channel=1, data=[54, 127]),
   midi.NoteOnEvent(tick=60, channel=1, data=[54, 0]),
   midi.NoteOnEvent(tick=0, channel=1, data=[52, 127]),
   midi.NoteOnEvent(tick=60, channel=1, data=[52, 0]),
   midi.NoteOnEvent(tick=0, channel=1, data=[52, 127]),
   midi.NoteOnEvent(tick=30, channel=1, data=[52, 0]),
   midi.NoteOnEvent(tick=0, channel=1, data=[54, 127]),
   midi.NoteOnEvent(tick=30, channel=1, data=[54, 0]),
   midi.NoteOnEvent(tick=0, channel=1, data=[56, 127]),
   midi.NoteOnEvent(tick=180, channel=1, data=[56, 0]),
   midi.NoteOnEvent(tick=900, channel=1, data=[54, 127]),
   midi.NoteOnEvent(tick=480, channel=1, data=[54, 0]),
   midi.NoteOnEvent(tick=0, channel=1, data=[59, 127]),
   midi.PitchWheelEvent(tick=0, channel=1, data=[0, 64]),
   midi.PitchWheelEvent(tick=1, channel=1, data=[34, 68]),
   midi.PitchWheelEvent(tick=1, channel=1, data=[68, 72]),
   midi.PitchWheelEvent(tick=1, channel=1, data=[102, 76]),
   midi.PitchWheelEvent(tick=1, channel=1, data=[8, 81]),
   midi.PitchWheelEvent(tick=1, channel=1, data=[42, 85]),
   midi.PitchWheelEvent(tick=1, channel=1, data=[76, 89]),
   midi.PitchWheelEvent(tick=1, channel=1, data=[110, 93]),
   midi.PitchWheelEvent(tick=1, channel=1, data=[17, 98]),
   midi.PitchWheelEvent(tick=1, channel=1, data=[51, 102]),
   midi.PitchWheelEvent(tick=1, channel=1, data=[85, 106]),
   midi.PitchWheelEvent(tick=1, channel=1, data=[119, 110]),
   midi.PitchWheelEvent(tick=1, channel=1, data=[25, 115]),
   midi.PitchWheelEvent(tick=1, channel=1, data=[59, 119]),
   midi.PitchWheelEvent(tick=1, channel=1, data=[93, 123]),
   midi.PitchWheelEvent(tick=1, channel=1, data=[127, 127]),
   midi.PitchWheelEvent(tick=0, channel=1, data=[127, 127]),
   midi.PitchWheelEvent(tick=1, channel=1, data=[93, 123]),
   midi.PitchWheelEvent(tick=1, channel=1, data=[59, 119]),
   midi.PitchWheelEvent(tick=1, channel=1, data=[25, 115]),
   midi.PitchWheelEvent(tick=1, channel=1, data=[119, 110]),
   midi.PitchWheelEvent(tick=1, channel=1, data=[85, 106]),
   midi.PitchWheelEvent(tick=1, channel=1, data=[51, 102]),
   midi.PitchWheelEvent(tick=1, channel=1, data=[17, 98]),
   midi.PitchWheelEvent(tick=1, channel=1, data=[110, 93]),
   midi.PitchWheelEvent(tick=1, channel=1, data=[76, 89]),
   midi.PitchWheelEvent(tick=1, channel=1, data=[42, 85]),
   midi.PitchWheelEvent(tick=1, channel=1, data=[8, 81]),
   midi.PitchWheelEvent(tick=1, channel=1, data=[102, 76]),
   midi.PitchWheelEvent(tick=1, channel=1, data=[68, 72]),
   midi.PitchWheelEvent(tick=1, channel=1, data=[34, 68]),
   midi.PitchWheelEvent(tick=1, channel=1, data=[0, 64]),
   midi.PitchWheelEvent(tick=0, channel=1, data=[0, 64]),
   midi.PitchWheelEvent(tick=1, channel=1, data=[17, 66]),
   midi.PitchWheelEvent(tick=1, channel=1, data=[34, 68]),
   midi.PitchWheelEvent(tick=1, channel=1, data=[51, 70]),
   midi.PitchWheelEvent(tick=1, channel=1, data=[68, 72]),
   midi.PitchWheelEvent(tick=1, channel=1, data=[85, 74]),
   midi.PitchWheelEvent(tick=1, channel=1, data=[102, 76]),
   midi.PitchWheelEvent(tick=1, channel=1, data=[119, 78]),
   midi.PitchWheelEvent(tick=1, channel=1, data=[8, 81]),
   midi.PitchWheelEvent(tick=1, channel=1, data=[25, 83]),
   midi.PitchWheelEvent(tick=1, channel=1, data=[42, 85]),
   midi.PitchWheelEvent(tick=1, channel=1, data=[59, 87]),
   midi.PitchWheelEvent(tick=1, channel=1, data=[76, 89]),
   midi.PitchWheelEvent(tick=1, channel=1, data=[93, 91]),
   midi.PitchWheelEvent(tick=1, channel=1, data=[110, 93]),
   midi.PitchWheelEvent(tick=1, channel=1, data=[0, 96]),
   midi.PitchWheelEvent(tick=1, channel=1, data=[17, 98]),
   midi.PitchWheelEvent(tick=1, channel=1, data=[34, 100]),
   midi.PitchWheelEvent(tick=1, channel=1, data=[51, 102]),
   midi.PitchWheelEvent(tick=1, channel=1, data=[68, 104]),
   midi.PitchWheelEvent(tick=1, channel=1, data=[85, 106]),
   midi.PitchWheelEvent(tick=1, channel=1, data=[102, 108]),
   midi.PitchWheelEvent(tick=1, channel=1, data=[119, 110]),
   midi.PitchWheelEvent(tick=1, channel=1, data=[8, 113]),
   midi.PitchWheelEvent(tick=1, channel=1, data=[25, 115]),
   midi.PitchWheelEvent(tick=1, channel=1, data=[42, 117]),
   midi.PitchWheelEvent(tick=1, channel=1, data=[59, 119]),
   midi.PitchWheelEvent(tick=1, channel=1, data=[76, 121]),
   midi.PitchWheelEvent(tick=1, channel=1, data=[93, 123]),
   midi.PitchWheelEvent(tick=1, channel=1, data=[110, 125]),
   midi.PitchWheelEvent(tick=1, channel=1, data=[127, 127]),
   midi.NoteOnEvent(tick=480, channel=1, data=[59, 0]),
   midi.NoteOnEvent(tick=0, channel=1, data=[59, 127]),
   midi.PitchWheelEvent(tick=0, channel=1, data=[0, 64]),
   midi.PitchWheelEvent(tick=1, channel=1, data=[34, 68]),
   midi.PitchWheelEvent(tick=1, channel=1, data=[68, 72]),
   midi.PitchWheelEvent(tick=1, channel=1, data=[102, 76]),
   midi.PitchWheelEvent(tick=1, channel=1, data=[8, 81]),
   midi.PitchWheelEvent(tick=1, channel=1, data=[42, 85]),
   midi.PitchWheelEvent(tick=1, channel=1, data=[76, 89]),
   midi.PitchWheelEvent(tick=1, channel=1, data=[110, 93]),
   midi.PitchWheelEvent(tick=1, channel=1, data=[17, 98]),
   midi.PitchWheelEvent(tick=1, channel=1, data=[51, 102]),
   midi.PitchWheelEvent(tick=1, channel=1, data=[85, 106]),
   midi.PitchWheelEvent(tick=1, channel=1, data=[119, 110]),
   midi.PitchWheelEvent(tick=1, channel=1, data=[25, 115]),
   midi.PitchWheelEvent(tick=1, channel=1, data=[59, 119]),
   midi.PitchWheelEvent(tick=1, channel=1, data=[93, 123]),
   midi.PitchWheelEvent(tick=1, channel=1, data=[127, 127]),
   midi.PitchWheelEvent(tick=0, channel=1, data=[127, 127]),
   midi.PitchWheelEvent(tick=1, channel=1, data=[93, 123]),
   midi.PitchWheelEvent(tick=1, channel=1, data=[59, 119]),
   midi.PitchWheelEvent(tick=1, channel=1, data=[25, 115]),
   midi.PitchWheelEvent(tick=1, channel=1, data=[119, 110]),
   midi.PitchWheelEvent(tick=1, channel=1, data=[85, 106]),
   midi.PitchWheelEvent(tick=1, channel=1, data=[51, 102]),
   midi.PitchWheelEvent(tick=1, channel=1, data=[17, 98]),
   midi.PitchWheelEvent(tick=1, channel=1, data=[110, 93]),
   midi.PitchWheelEvent(tick=1, channel=1, data=[76, 89]),
   midi.PitchWheelEvent(tick=1, channel=1, data=[42, 85]),
   midi.PitchWheelEvent(tick=1, channel=1, data=[8, 81]),
   midi.PitchWheelEvent(tick=1, channel=1, data=[102, 76]),
   midi.PitchWheelEvent(tick=1, channel=1, data=[68, 72]),
   midi.PitchWheelEvent(tick=1, channel=1, data=[34, 68]),
   midi.PitchWheelEvent(tick=1, channel=1, data=[0, 64]),
   midi.PitchWheelEvent(tick=0, channel=1, data=[0, 64]),
   midi.PitchWheelEvent(tick=1, channel=1, data=[17, 66]),
   midi.PitchWheelEvent(tick=1, channel=1, data=[34, 68]),
   midi.PitchWheelEvent(tick=1, channel=1, data=[51, 70]),
   midi.PitchWheelEvent(tick=1, channel=1, data=[68, 72]),
   midi.PitchWheelEvent(tick=1, channel=1, data=[85, 74]),
   midi.PitchWheelEvent(tick=1, channel=1, data=[102, 76]),
   midi.PitchWheelEvent(tick=1, channel=1, data=[119, 78]),
   midi.PitchWheelEvent(tick=1, channel=1, data=[8, 81]),
   midi.PitchWheelEvent(tick=1, channel=1, data=[25, 83]),
   midi.PitchWheelEvent(tick=1, channel=1, data=[42, 85]),
   midi.PitchWheelEvent(tick=1, channel=1, data=[59, 87]),
   midi.PitchWheelEvent(tick=1, channel=1, data=[76, 89]),
   midi.PitchWheelEvent(tick=1, channel=1, data=[93, 91]),
   midi.PitchWheelEvent(tick=1, channel=1, data=[110, 93]),
   midi.PitchWheelEvent(tick=1, channel=1, data=[0, 96]),
   midi.PitchWheelEvent(tick=1, channel=1, data=[17, 98]),
   midi.PitchWheelEvent(tick=1, channel=1, data=[34, 100]),
   midi.PitchWheelEvent(tick=1, channel=1, data=[51, 102]),
   midi.PitchWheelEvent(tick=1, channel=1, data=[68, 104]),
   midi.PitchWheelEvent(tick=1, channel=1, data=[85, 106]),
   midi.PitchWheelEvent(tick=1, channel=1, data=[102, 108]),
   midi.PitchWheelEvent(tick=1, channel=1, data=[119, 110]),
   midi.PitchWheelEvent(tick=1, channel=1, data=[8, 113]),
   midi.PitchWheelEvent(tick=1, channel=1, data=[25, 115]),
   midi.PitchWheelEvent(tick=1, channel=1, data=[42, 117]),
   midi.PitchWheelEvent(tick=1, channel=1, data=[59, 119]),
   midi.PitchWheelEvent(tick=1, channel=1, data=[76, 121]),
   midi.PitchWheelEvent(tick=1, channel=1, data=[93, 123]),
   midi.PitchWheelEvent(tick=1, channel=1, data=[110, 125]),
   midi.PitchWheelEvent(tick=1, channel=1, data=[127, 127]),
   midi.PitchWheelEvent(tick=0, channel=1, data=[127, 127]),
   midi.PitchWheelEvent(tick=1, channel=1, data=[118, 126]),
   midi.PitchWheelEvent(tick=1, channel=1, data=[110, 125]),
   midi.PitchWheelEvent(tick=1, channel=1, data=[101, 124]),
   midi.PitchWheelEvent(tick=1, channel=1, data=[93, 123]),
   midi.PitchWheelEvent(tick=1, channel=1, data=[84, 122]),
   midi.PitchWheelEvent(tick=1, channel=1, data=[76, 121]),
   midi.PitchWheelEvent(tick=1, channel=1, data=[67, 120]),
   midi.PitchWheelEvent(tick=1, channel=1, data=[59, 119]),
   midi.PitchWheelEvent(tick=1, channel=1, data=[50, 118]),
   midi.PitchWheelEvent(tick=1, channel=1, data=[42, 117]),
   midi.PitchWheelEvent(tick=1, channel=1, data=[33, 116]),
   midi.PitchWheelEvent(tick=1, channel=1, data=[25, 115]),
   midi.PitchWheelEvent(tick=1, channel=1, data=[16, 114]),
   midi.PitchWheelEvent(tick=1, channel=1, data=[8, 113]),
   midi.PitchWheelEvent(tick=1, channel=1, data=[127, 111]),
   midi.PitchWheelEvent(tick=1, channel=1, data=[119, 110]),
   midi.PitchWheelEvent(tick=1, channel=1, data=[110, 109]),
   midi.PitchWheelEvent(tick=1, channel=1, data=[102, 108]),
   midi.PitchWheelEvent(tick=1, channel=1, data=[93, 107]),
   midi.PitchWheelEvent(tick=1, channel=1, data=[85, 106]),
   midi.PitchWheelEvent(tick=1, channel=1, data=[76, 105]),
   midi.PitchWheelEvent(tick=1, channel=1, data=[68, 104]),
   midi.PitchWheelEvent(tick=1, channel=1, data=[59, 103]),
   midi.PitchWheelEvent(tick=1, channel=1, data=[51, 102]),
   midi.PitchWheelEvent(tick=1, channel=1, data=[42, 101]),
   midi.PitchWheelEvent(tick=1, channel=1, data=[34, 100]),
   midi.PitchWheelEvent(tick=1, channel=1, data=[25, 99]),
   midi.PitchWheelEvent(tick=1, channel=1, data=[17, 98]),
   midi.PitchWheelEvent(tick=1, channel=1, data=[8, 97]),
   midi.PitchWheelEvent(tick=1, channel=1, data=[127, 95]),
   midi.PitchWheelEvent(tick=1, channel=1, data=[119, 94]),
   midi.PitchWheelEvent(tick=1, channel=1, data=[110, 93]),
   midi.PitchWheelEvent(tick=1, channel=1, data=[102, 92]),
   midi.PitchWheelEvent(tick=1, channel=1, data=[93, 91]),
   midi.PitchWheelEvent(tick=1, channel=1, data=[85, 90]),
   midi.PitchWheelEvent(tick=1, channel=1, data=[76, 89]),
   midi.PitchWheelEvent(tick=1, channel=1, data=[68, 88]),
   midi.PitchWheelEvent(tick=1, channel=1, data=[59, 87]),
   midi.PitchWheelEvent(tick=1, channel=1, data=[51, 86]),
   midi.PitchWheelEvent(tick=1, channel=1, data=[42, 85]),
   midi.PitchWheelEvent(tick=1, channel=1, data=[34, 84]),
   midi.PitchWheelEvent(tick=1, channel=1, data=[25, 83]),
   midi.PitchWheelEvent(tick=1, channel=1, data=[17, 82]),
   midi.PitchWheelEvent(tick=1, channel=1, data=[8, 81]),
   midi.PitchWheelEvent(tick=1, channel=1, data=[0, 80]),
   midi.PitchWheelEvent(tick=1, channel=1, data=[119, 78]),
   midi.PitchWheelEvent(tick=1, channel=1, data=[111, 77]),
   midi.PitchWheelEvent(tick=1, channel=1, data=[102, 76]),
   midi.PitchWheelEvent(tick=1, channel=1, data=[94, 75]),
   midi.PitchWheelEvent(tick=1, channel=1, data=[85, 74]),
   midi.PitchWheelEvent(tick=1, channel=1, data=[77, 73]),
   midi.PitchWheelEvent(tick=1, channel=1, data=[68, 72]),
   midi.PitchWheelEvent(tick=1, channel=1, data=[60, 71]),
   midi.PitchWheelEvent(tick=1, channel=1, data=[51, 70]),
   midi.PitchWheelEvent(tick=1, channel=1, data=[43, 69]),
   midi.PitchWheelEvent(tick=1, channel=1, data=[34, 68]),
   midi.PitchWheelEvent(tick=1, channel=1, data=[26, 67]),
   midi.PitchWheelEvent(tick=1, channel=1, data=[17, 66]),
   midi.PitchWheelEvent(tick=1, channel=1, data=[9, 65]),
   midi.PitchWheelEvent(tick=1, channel=1, data=[0, 64]),
   midi.NoteOnEvent(tick=60, channel=1, data=[59, 0]),
   midi.NoteOnEvent(tick=0, channel=1, data=[57, 127]),
   midi.NoteOnEvent(tick=30, channel=1, data=[57, 0]),
   midi.NoteOnEvent(tick=0, channel=1, data=[59, 127]),
   midi.NoteOnEvent(tick=30, channel=1, data=[59, 0]),
   midi.NoteOnEvent(tick=0, channel=1, data=[57, 127]),
   midi.NoteOnEvent(tick=60, channel=1, data=[57, 0]),
   midi.NoteOnEvent(tick=0, channel=1, data=[54, 127]),
   midi.NoteOnEvent(tick=60, channel=1, data=[54, 0]),
   midi.NoteOnEvent(tick=0, channel=1, data=[54, 127]),
   midi.NoteOnEvent(tick=60, channel=1, data=[54, 0]),
   midi.NoteOnEvent(tick=0, channel=1, data=[54, 127]),
   midi.NoteOnEvent(tick=60, channel=1, data=[54, 0]),
   midi.NoteOnEvent(tick=0, channel=1, data=[52, 127]),
   midi.NoteOnEvent(tick=60, channel=1, data=[52, 0]),
   midi.NoteOnEvent(tick=0, channel=1, data=[52, 127]),
   midi.NoteOnEvent(tick=60, channel=1, data=[52, 0]),
   midi.NoteOnEvent(tick=0, channel=1, data=[54, 127]),
   midi.NoteOnEvent(tick=60, channel=1, data=[54, 0]),
   midi.NoteOnEvent(tick=0, channel=1, data=[52, 127]),
   midi.NoteOnEvent(tick=60, channel=1, data=[52, 0]),
   midi.NoteOnEvent(tick=0, channel=1, data=[52, 127]),
   midi.NoteOnEvent(tick=30, channel=1, data=[52, 0]),
   midi.NoteOnEvent(tick=0, channel=1, data=[54, 127]),
   midi.NoteOnEvent(tick=30, channel=1, data=[54, 0]),
   midi.NoteOnEvent(tick=0, channel=1, data=[56, 127]),
   midi.NoteOnEvent(tick=90, channel=1, data=[56, 0]),
   midi.NoteOnEvent(tick=0, channel=1, data=[64, 127]),
   midi.NoteOnEvent(tick=30, channel=1, data=[64, 0]),
   midi.NoteOnEvent(tick=0, channel=1, data=[64, 127]),
   midi.NoteOnEvent(tick=30, channel=1, data=[64, 0]),
   midi.NoteOnEvent(tick=0, channel=1, data=[64, 127]),
   midi.NoteOnEvent(tick=30, channel=1, data=[64, 0]),
   midi.NoteOnEvent(tick=720, channel=1, data=[57, 127]),
   midi.NoteOnEvent(tick=570, channel=1, data=[57, 0]),
   midi.NoteOnEvent(tick=0, channel=1, data=[61, 127]),
   midi.NoteOnEvent(tick=30, channel=1, data=[61, 0]),
   midi.NoteOnEvent(tick=0, channel=1, data=[61, 127]),
   midi.NoteOnEvent(tick=30, channel=1, data=[61, 0]),
   midi.NoteOnEvent(tick=0, channel=1, data=[61, 127]),
   midi.NoteOnEvent(tick=30, channel=1, data=[61, 0]),
   midi.NoteOnEvent(tick=0, channel=1, data=[61, 127]),
   midi.NoteOnEvent(tick=30, channel=1, data=[61, 0]),
   midi.NoteOnEvent(tick=0, channel=1, data=[61, 127]),
   midi.NoteOnEvent(tick=30, channel=1, data=[61, 0]),
   midi.NoteOnEvent(tick=0, channel=1, data=[61, 127]),
   midi.NoteOnEvent(tick=60, channel=1, data=[61, 0]),
   midi.NoteOnEvent(tick=0, channel=1, data=[61, 127]),
   midi.NoteOnEvent(tick=30, channel=1, data=[61, 0]),
   midi.NoteOnEvent(tick=0, channel=1, data=[61, 127]),
   midi.NoteOnEvent(tick=30, channel=1, data=[61, 0]),
   midi.NoteOnEvent(tick=0, channel=1, data=[61, 127]),
   midi.NoteOnEvent(tick=60, channel=1, data=[61, 0]),
   midi.NoteOnEvent(tick=0, channel=1, data=[61, 127]),
   midi.NoteOnEvent(tick=60, channel=1, data=[61, 0]),
   midi.NoteOnEvent(tick=0, channel=1, data=[57, 127]),
   midi.NoteOnEvent(tick=60, channel=1, data=[57, 0]),
   midi.NoteOnEvent(tick=0, channel=1, data=[57, 127]),
   midi.NoteOnEvent(tick=60, channel=1, data=[57, 0]),
   midi.NoteOnEvent(tick=0, channel=1, data=[59, 127]),
   midi.NoteOnEvent(tick=60, channel=1, data=[59, 0]),
   midi.NoteOnEvent(tick=0, channel=1, data=[59, 127]),
   midi.NoteOnEvent(tick=60, channel=1, data=[59, 0]),
   midi.NoteOnEvent(tick=0, channel=1, data=[59, 127]),
   midi.NoteOnEvent(tick=60, channel=1, data=[59, 0]),
   midi.NoteOnEvent(tick=0, channel=1, data=[56, 127]),
   midi.NoteOnEvent(tick=30, channel=1, data=[56, 0]),
   midi.NoteOnEvent(tick=0, channel=1, data=[54, 127]),
   midi.NoteOnEvent(tick=30, channel=1, data=[54, 0]),
   midi.NoteOnEvent(tick=0, channel=1, data=[52, 127]),
   midi.NoteOnEvent(tick=60, channel=1, data=[52, 0]),
   midi.NoteOnEvent(tick=0, channel=1, data=[54, 127]),
   midi.NoteOnEvent(tick=30, channel=1, data=[54, 0]),
   midi.NoteOnEvent(tick=0, channel=1, data=[57, 127]),
   midi.NoteOnEvent(tick=30, channel=1, data=[57, 0]),
   midi.NoteOnEvent(tick=0, channel=1, data=[57, 127]),
   midi.NoteOnEvent(tick=540, channel=1, data=[57, 0]),
   midi.PitchWheelEvent(tick=0, channel=1, data=[0, 64]),
   midi.NoteOnEvent(tick=0, channel=1, data=[59, 127]),
   midi.PitchWheelEvent(tick=1, channel=1, data=[51, 70]),
   midi.PitchWheelEvent(tick=1, channel=1, data=[102, 76]),
   midi.PitchWheelEvent(tick=1, channel=1, data=[25, 83]),
   midi.PitchWheelEvent(tick=1, channel=1, data=[76, 89]),
   midi.PitchWheelEvent(tick=1, channel=1, data=[0, 96]),
   midi.PitchWheelEvent(tick=1, channel=1, data=[51, 102]),
   midi.PitchWheelEvent(tick=1, channel=1, data=[102, 108]),
   midi.PitchWheelEvent(tick=1, channel=1, data=[25, 115]),
   midi.PitchWheelEvent(tick=1, channel=1, data=[76, 121]),
   midi.PitchWheelEvent(tick=1, channel=1, data=[127, 127]),
   midi.PitchWheelEvent(tick=100, channel=1, data=[127, 127]),
   midi.PitchWheelEvent(tick=1, channel=1, data=[76, 121]),
   midi.PitchWheelEvent(tick=1, channel=1, data=[25, 115]),
   midi.PitchWheelEvent(tick=1, channel=1, data=[102, 108]),
   midi.PitchWheelEvent(tick=1, channel=1, data=[51, 102]),
   midi.PitchWheelEvent(tick=1, channel=1, data=[127, 95]),
   midi.PitchWheelEvent(tick=1, channel=1, data=[76, 89]),
   midi.PitchWheelEvent(tick=1, channel=1, data=[25, 83]),
   midi.PitchWheelEvent(tick=1, channel=1, data=[102, 76]),
   midi.PitchWheelEvent(tick=1, channel=1, data=[51, 70]),
   midi.PitchWheelEvent(tick=1, channel=1, data=[0, 64]),
   midi.NoteOnEvent(tick=30, channel=1, data=[59, 0]),
   midi.NoteOnEvent(tick=0, channel=1, data=[57, 127]),
   midi.NoteOnEvent(tick=30, channel=1, data=[57, 0]),
   midi.NoteOnEvent(tick=0, channel=1, data=[54, 127]),
   midi.NoteOnEvent(tick=630, channel=1, data=[54, 0]),
   midi.NoteOnEvent(tick=0, channel=1, data=[52, 127]),
   midi.NoteOnEvent(tick=30, channel=1, data=[52, 0]),
   midi.NoteOnEvent(tick=0, channel=1, data=[52, 127]),
   midi.NoteOnEvent(tick=30, channel=1, data=[52, 0]),
   midi.NoteOnEvent(tick=0, channel=1, data=[57, 127]),
   midi.NoteOnEvent(tick=30, channel=1, data=[57, 0]),
   midi.NoteOnEvent(tick=0, channel=1, data=[54, 127]),
   midi.NoteOnEvent(tick=540, channel=1, data=[54, 0]),
   midi.NoteOnEvent(tick=0, channel=1, data=[54, 127]),
   midi.NoteOnEvent(tick=180, channel=1, data=[54, 0]),
   midi.NoteOnEvent(tick=1440, channel=1, data=[57, 127]),
   midi.NoteOnEvent(tick=60, channel=1, data=[57, 0]),
   midi.NoteOnEvent(tick=0, channel=1, data=[54, 127]),
   midi.NoteOnEvent(tick=30, channel=1, data=[54, 0]),
   midi.NoteOnEvent(tick=0, channel=1, data=[57, 127]),
   midi.NoteOnEvent(tick=30, channel=1, data=[57, 0]),
   midi.NoteOnEvent(tick=0, channel=1, data=[61, 127]),
   midi.NoteOnEvent(tick=30, channel=1, data=[61, 0]),
   midi.NoteOnEvent(tick=0, channel=1, data=[57, 127]),
   midi.NoteOnEvent(tick=30, channel=1, data=[57, 0]),
   midi.NoteOnEvent(tick=0, channel=1, data=[61, 127]),
   midi.NoteOnEvent(tick=60, channel=1, data=[61, 0]),
   midi.NoteOnEvent(tick=0, channel=1, data=[57, 127]),
   midi.NoteOnEvent(tick=30, channel=1, data=[57, 0]),
   midi.NoteOnEvent(tick=0, channel=1, data=[61, 127]),
   midi.NoteOnEvent(tick=30, channel=1, data=[61, 0]),
   midi.NoteOnEvent(tick=0, channel=1, data=[64, 127]),
   midi.NoteOnEvent(tick=30, channel=1, data=[64, 0]),
   midi.NoteOnEvent(tick=0, channel=1, data=[61, 127]),
   midi.NoteOnEvent(tick=30, channel=1, data=[61, 0]),
   midi.NoteOnEvent(tick=0, channel=1, data=[62, 127]),
   midi.NoteOnEvent(tick=60, channel=1, data=[62, 0]),
   midi.NoteOnEvent(tick=0, channel=1, data=[62, 127]),
   midi.NoteOnEvent(tick=30, channel=1, data=[62, 0]),
   midi.NoteOnEvent(tick=0, channel=1, data=[59, 127]),
   midi.NoteOnEvent(tick=30, channel=1, data=[59, 0]),
   midi.NoteOnEvent(tick=0, channel=1, data=[56, 127]),
   midi.NoteOnEvent(tick=60, channel=1, data=[56, 0]),
   midi.NoteOnEvent(tick=0, channel=1, data=[52, 127]),
   midi.NoteOnEvent(tick=60, channel=1, data=[52, 0]),
   midi.NoteOnEvent(tick=0, channel=1, data=[52, 127]),
   midi.NoteOnEvent(tick=30, channel=1, data=[52, 0]),
   midi.NoteOnEvent(tick=0, channel=1, data=[56, 127]),
   midi.NoteOnEvent(tick=30, channel=1, data=[56, 0]),
   midi.NoteOnEvent(tick=0, channel=1, data=[59, 127]),
   midi.NoteOnEvent(tick=30, channel=1, data=[59, 0]),
   midi.NoteOnEvent(tick=0, channel=1, data=[56, 127]),
   midi.NoteOnEvent(tick=30, channel=1, data=[56, 0]),
   midi.NoteOnEvent(tick=0, channel=1, data=[57, 127]),
   midi.NoteOnEvent(tick=60, channel=1, data=[57, 0]),
   midi.NoteOnEvent(tick=0, channel=1, data=[54, 127]),
   midi.NoteOnEvent(tick=30, channel=1, data=[54, 0]),
   midi.NoteOnEvent(tick=0, channel=1, data=[57, 127]),
   midi.NoteOnEvent(tick=30, channel=1, data=[57, 0]),
   midi.NoteOnEvent(tick=0, channel=1, data=[61, 127]),
   midi.NoteOnEvent(tick=30, channel=1, data=[61, 0]),
   midi.NoteOnEvent(tick=0, channel=1, data=[57, 127]),
   midi.NoteOnEvent(tick=30, channel=1, data=[57, 0]),
   midi.NoteOnEvent(tick=0, channel=1, data=[61, 127]),
   midi.NoteOnEvent(tick=60, channel=1, data=[61, 0]),
   midi.NoteOnEvent(tick=0, channel=1, data=[57, 127]),
   midi.NoteOnEvent(tick=30, channel=1, data=[57, 0]),
   midi.NoteOnEvent(tick=0, channel=1, data=[61, 127]),
   midi.NoteOnEvent(tick=30, channel=1, data=[61, 0]),
   midi.NoteOnEvent(tick=0, channel=1, data=[64, 127]),
   midi.NoteOnEvent(tick=30, channel=1, data=[64, 0]),
   midi.NoteOnEvent(tick=0, channel=1, data=[61, 127]),
   midi.NoteOnEvent(tick=30, channel=1, data=[61, 0]),
   midi.NoteOnEvent(tick=0, channel=1, data=[62, 127]),
   midi.NoteOnEvent(tick=30, channel=1, data=[62, 0]),
   midi.NoteOnEvent(tick=0, channel=1, data=[62, 127]),
   midi.NoteOnEvent(tick=15, channel=1, data=[62, 0]),
   midi.NoteOnEvent(tick=0, channel=1, data=[62, 127]),
   midi.NoteOnEvent(tick=15, channel=1, data=[62, 0]),
   midi.NoteOnEvent(tick=0, channel=1, data=[62, 127]),
   midi.NoteOnEvent(tick=30, channel=1, data=[62, 0]),
   midi.NoteOnEvent(tick=0, channel=1, data=[59, 127]),
   midi.NoteOnEvent(tick=30, channel=1, data=[59, 0]),
   midi.NoteOnEvent(tick=0, channel=1, data=[56, 127]),
   midi.NoteOnEvent(tick=30, channel=1, data=[56, 0]),
   midi.NoteOnEvent(tick=0, channel=1, data=[59, 127]),
   midi.NoteOnEvent(tick=30, channel=1, data=[59, 0]),
   midi.NoteOnEvent(tick=0, channel=1, data=[52, 127]),
   midi.NoteOnEvent(tick=60, channel=1, data=[52, 0]),
   midi.NoteOnEvent(tick=0, channel=1, data=[52, 127]),
   midi.NoteOnEvent(tick=30, channel=1, data=[52, 0]),
   midi.NoteOnEvent(tick=0, channel=1, data=[56, 127]),
   midi.NoteOnEvent(tick=30, channel=1, data=[56, 0]),
   midi.NoteOnEvent(tick=0, channel=1, data=[59, 127]),
   midi.NoteOnEvent(tick=30, channel=1, data=[59, 0]),
   midi.NoteOnEvent(tick=0, channel=1, data=[56, 127]),
   midi.NoteOnEvent(tick=30, channel=1, data=[56, 0]),
   midi.NoteOnEvent(tick=0, channel=1, data=[57, 127]),
   midi.NoteOnEvent(tick=120, channel=1, data=[57, 0]),
   midi.NoteOnEvent(tick=0, channel=1, data=[61, 127]),
   midi.NoteOnEvent(tick=30, channel=1, data=[61, 0]),
   midi.NoteOnEvent(tick=0, channel=1, data=[64, 127]),
   midi.NoteOnEvent(tick=30, channel=1, data=[64, 0]),
   midi.NoteOnEvent(tick=0, channel=1, data=[61, 127]),
   midi.NoteOnEvent(tick=120, channel=1, data=[61, 0]),
   midi.NoteOnEvent(tick=0, channel=1, data=[64, 127]),
   midi.NoteOnEvent(tick=30, channel=1, data=[64, 0]),
   midi.NoteOnEvent(tick=0, channel=1, data=[64, 127]),
   midi.NoteOnEvent(tick=30, channel=1, data=[64, 0]),
   midi.NoteOnEvent(tick=0, channel=1, data=[62, 127]),
   midi.NoteOnEvent(tick=120, channel=1, data=[62, 0]),
   midi.NoteOnEvent(tick=0, channel=1, data=[62, 127]),
   midi.NoteOnEvent(tick=30, channel=1, data=[62, 0]),
   midi.NoteOnEvent(tick=0, channel=1, data=[64, 127]),
   midi.NoteOnEvent(tick=30, channel=1, data=[64, 0]),
   midi.NoteOnEvent(tick=0, channel=1, data=[56, 127]),
   midi.NoteOnEvent(tick=120, channel=1, data=[56, 0]),
   midi.NoteOnEvent(tick=0, channel=1, data=[57, 127]),
   midi.NoteOnEvent(tick=30, channel=1, data=[57, 0]),
   midi.NoteOnEvent(tick=0, channel=1, data=[61, 127]),
   midi.NoteOnEvent(tick=30, channel=1, data=[61, 0]),
   midi.NoteOnEvent(tick=0, channel=1, data=[57, 127]),
   midi.NoteOnEvent(tick=120, channel=1, data=[57, 0]),
   midi.NoteOnEvent(tick=0, channel=1, data=[61, 127]),
   midi.NoteOnEvent(tick=30, channel=1, data=[61, 0]),
   midi.NoteOnEvent(tick=0, channel=1, data=[64, 127]),
   midi.NoteOnEvent(tick=30, channel=1, data=[64, 0]),
   midi.NoteOnEvent(tick=0, channel=1, data=[61, 127]),
   midi.NoteOnEvent(tick=120, channel=1, data=[61, 0]),
   midi.NoteOnEvent(tick=0, channel=1, data=[64, 127]),
   midi.NoteOnEvent(tick=30, channel=1, data=[64, 0]),
   midi.NoteOnEvent(tick=0, channel=1, data=[64, 127]),
   midi.NoteOnEvent(tick=30, channel=1, data=[64, 0]),
   midi.NoteOnEvent(tick=0, channel=1, data=[62, 127]),
   midi.NoteOnEvent(tick=120, channel=1, data=[62, 0]),
   midi.NoteOnEvent(tick=0, channel=1, data=[62, 127]),
   midi.NoteOnEvent(tick=30, channel=1, data=[62, 0]),
   midi.NoteOnEvent(tick=0, channel=1, data=[64, 127]),
   midi.NoteOnEvent(tick=30, channel=1, data=[64, 0]),
   midi.NoteOnEvent(tick=0, channel=1, data=[56, 127]),
   midi.NoteOnEvent(tick=120, channel=1, data=[56, 0]),
   midi.NoteOnEvent(tick=0, channel=1, data=[57, 127]),
   midi.NoteOnEvent(tick=30, channel=1, data=[57, 0]),
   midi.NoteOnEvent(tick=0, channel=1, data=[61, 127]),
   midi.NoteOnEvent(tick=30, channel=1, data=[61, 0]),
   midi.NoteOnEvent(tick=0, channel=1, data=[57, 127]),
   midi.NoteOnEvent(tick=120, channel=1, data=[57, 0]),
   midi.NoteOnEvent(tick=0, channel=1, data=[61, 127]),
   midi.NoteOnEvent(tick=30, channel=1, data=[61, 0]),
   midi.NoteOnEvent(tick=0, channel=1, data=[64, 127]),
   midi.NoteOnEvent(tick=30, channel=1, data=[64, 0]),
   midi.NoteOnEvent(tick=0, channel=1, data=[61, 127]),
   midi.NoteOnEvent(tick=120, channel=1, data=[61, 0]),
   midi.NoteOnEvent(tick=0, channel=1, data=[64, 127]),
   midi.NoteOnEvent(tick=30, channel=1, data=[64, 0]),
   midi.NoteOnEvent(tick=0, channel=1, data=[64, 127]),
   midi.NoteOnEvent(tick=30, channel=1, data=[64, 0]),
   midi.NoteOnEvent(tick=0, channel=1, data=[62, 127]),
   midi.NoteOnEvent(tick=120, channel=1, data=[62, 0]),
   midi.NoteOnEvent(tick=0, channel=1, data=[62, 127]),
   midi.NoteOnEvent(tick=30, channel=1, data=[62, 0]),
   midi.NoteOnEvent(tick=0, channel=1, data=[64, 127]),
   midi.NoteOnEvent(tick=30, channel=1, data=[64, 0]),
   midi.NoteOnEvent(tick=0, channel=1, data=[56, 127]),
   midi.NoteOnEvent(tick=120, channel=1, data=[56, 0]),
   midi.NoteOnEvent(tick=0, channel=1, data=[57, 127]),
   midi.NoteOnEvent(tick=30, channel=1, data=[57, 0]),
   midi.NoteOnEvent(tick=0, channel=1, data=[61, 127]),
   midi.NoteOnEvent(tick=30, channel=1, data=[61, 0]),
   midi.NoteOnEvent(tick=0, channel=1, data=[57, 127]),
   midi.NoteOnEvent(tick=120, channel=1, data=[57, 0]),
   midi.NoteOnEvent(tick=0, channel=1, data=[61, 127]),
   midi.NoteOnEvent(tick=30, channel=1, data=[61, 0]),
   midi.NoteOnEvent(tick=0, channel=1, data=[64, 127]),
   midi.NoteOnEvent(tick=30, channel=1, data=[64, 0]),
   midi.NoteOnEvent(tick=0, channel=1, data=[61, 127]),
   midi.NoteOnEvent(tick=120, channel=1, data=[61, 0]),
   midi.NoteOnEvent(tick=0, channel=1, data=[64, 127]),
   midi.NoteOnEvent(tick=30, channel=1, data=[64, 0]),
   midi.NoteOnEvent(tick=0, channel=1, data=[64, 127]),
   midi.NoteOnEvent(tick=30, channel=1, data=[64, 0]),
   midi.NoteOnEvent(tick=0, channel=1, data=[62, 127]),
   midi.NoteOnEvent(tick=120, channel=1, data=[62, 0]),
   midi.NoteOnEvent(tick=0, channel=1, data=[62, 127]),
   midi.NoteOnEvent(tick=30, channel=1, data=[62, 0]),
   midi.NoteOnEvent(tick=0, channel=1, data=[64, 127]),
   midi.NoteOnEvent(tick=30, channel=1, data=[64, 0]),
   midi.NoteOnEvent(tick=0, channel=1, data=[56, 127]),
   midi.NoteOnEvent(tick=120, channel=1, data=[56, 0]),
   midi.NoteOnEvent(tick=0, channel=1, data=[57, 127]),
   midi.NoteOnEvent(tick=30, channel=1, data=[57, 0]),
   midi.NoteOnEvent(tick=0, channel=1, data=[61, 127]),
   midi.NoteOnEvent(tick=30, channel=1, data=[61, 0]),
   midi.NoteOnEvent(tick=0, channel=1, data=[61, 127]),
   midi.NoteOnEvent(tick=0, channel=1, data=[54, 127]),
   midi.NoteOnEvent(tick=180, channel=1, data=[61, 0]),
   midi.NoteOnEvent(tick=0, channel=1, data=[54, 0]),
   midi.NoteOnEvent(tick=0, channel=1, data=[64, 127]),
   midi.NoteOnEvent(tick=0, channel=1, data=[57, 127]),
   midi.NoteOnEvent(tick=120, channel=1, data=[64, 0]),
   midi.NoteOnEvent(tick=0, channel=1, data=[57, 0]),
   midi.NoteOnEvent(tick=0, channel=1, data=[57, 127]),
   midi.NoteOnEvent(tick=0, channel=1, data=[64, 127]),
   midi.NoteOnEvent(tick=60, channel=1, data=[57, 0]),
   midi.NoteOnEvent(tick=0, channel=1, data=[64, 0]),
   midi.NoteOnEvent(tick=0, channel=1, data=[59, 127]),
   midi.NoteOnEvent(tick=0, channel=1, data=[52, 127]),
   midi.NoteOnEvent(tick=120, channel=1, data=[59, 0]),
   midi.NoteOnEvent(tick=0, channel=1, data=[52, 0]),
   midi.NoteOnEvent(tick=0, channel=1, data=[52, 127]),
   midi.NoteOnEvent(tick=0, channel=1, data=[59, 127]),
   midi.NoteOnEvent(tick=60, channel=1, data=[52, 0]),
   midi.NoteOnEvent(tick=0, channel=1, data=[59, 0]),
   midi.NoteOnEvent(tick=0, channel=1, data=[56, 127]),
   midi.NoteOnEvent(tick=0, channel=1, data=[49, 127]),
   midi.NoteOnEvent(tick=120, channel=1, data=[56, 0]),
   midi.NoteOnEvent(tick=0, channel=1, data=[49, 0]),
   midi.NoteOnEvent(tick=0, channel=1, data=[49, 127]),
   midi.NoteOnEvent(tick=0, channel=1, data=[56, 127]),
   midi.NoteOnEvent(tick=60, channel=1, data=[49, 0]),
   midi.NoteOnEvent(tick=0, channel=1, data=[56, 0]),
   midi.NoteOnEvent(tick=0, channel=1, data=[54, 127]),
   midi.NoteOnEvent(tick=0, channel=1, data=[61, 127]),
   midi.NoteOnEvent(tick=120, channel=1, data=[54, 0]),
   midi.NoteOnEvent(tick=0, channel=1, data=[61, 0]),
   midi.NoteOnEvent(tick=0, channel=1, data=[54, 127]),
   midi.NoteOnEvent(tick=0, channel=1, data=[61, 127]),
   midi.NoteOnEvent(tick=60, channel=1, data=[54, 0]),
   midi.NoteOnEvent(tick=0, channel=1, data=[61, 0]),
   midi.NoteOnEvent(tick=0, channel=1, data=[57, 127]),
   midi.NoteOnEvent(tick=0, channel=1, data=[64, 127]),
   midi.NoteOnEvent(tick=120, channel=1, data=[57, 0]),
   midi.NoteOnEvent(tick=0, channel=1, data=[64, 0]),
   midi.NoteOnEvent(tick=0, channel=1, data=[64, 127]),
   midi.NoteOnEvent(tick=0, channel=1, data=[57, 127]),
   midi.NoteOnEvent(tick=60, channel=1, data=[64, 0]),
   midi.NoteOnEvent(tick=0, channel=1, data=[57, 0]),
   midi.NoteOnEvent(tick=0, channel=1, data=[52, 127]),
   midi.NoteOnEvent(tick=0, channel=1, data=[59, 127]),
   midi.NoteOnEvent(tick=120, channel=1, data=[52, 0]),
   midi.NoteOnEvent(tick=0, channel=1, data=[59, 0]),
   midi.NoteOnEvent(tick=0, channel=1, data=[59, 127]),
   midi.NoteOnEvent(tick=0, channel=1, data=[52, 127]),
   midi.NoteOnEvent(tick=60, channel=1, data=[59, 0]),
   midi.NoteOnEvent(tick=0, channel=1, data=[52, 0]),
   midi.NoteOnEvent(tick=0, channel=1, data=[49, 127]),
   midi.NoteOnEvent(tick=0, channel=1, data=[56, 127]),
   midi.NoteOnEvent(tick=180, channel=1, data=[49, 0]),
   midi.NoteOnEvent(tick=0, channel=1, data=[56, 0]),
   midi.NoteOnEvent(tick=0, channel=1, data=[54, 127]),
   midi.NoteOnEvent(tick=0, channel=1, data=[61, 127]),
   midi.NoteOnEvent(tick=180, channel=1, data=[54, 0]),
   midi.NoteOnEvent(tick=0, channel=1, data=[61, 0]),
   midi.NoteOnEvent(tick=0, channel=1, data=[64, 127]),
   midi.NoteOnEvent(tick=0, channel=1, data=[57, 127]),
   midi.NoteOnEvent(tick=180, channel=1, data=[64, 0]),
   midi.NoteOnEvent(tick=0, channel=1, data=[57, 0]),
   midi.NoteOnEvent(tick=0, channel=1, data=[52, 127]),
   midi.NoteOnEvent(tick=0, channel=1, data=[59, 127]),
   midi.NoteOnEvent(tick=180, channel=1, data=[52, 0]),
   midi.NoteOnEvent(tick=0, channel=1, data=[59, 0]),
   midi.NoteOnEvent(tick=0, channel=1, data=[49, 127]),
   midi.NoteOnEvent(tick=0, channel=1, data=[56, 127]),
   midi.NoteOnEvent(tick=180, channel=1, data=[49, 0]),
   midi.NoteOnEvent(tick=0, channel=1, data=[56, 0]),
   midi.NoteOnEvent(tick=0, channel=1, data=[54, 127]),
   midi.NoteOnEvent(tick=0, channel=1, data=[61, 127]),
   midi.NoteOnEvent(tick=180, channel=1, data=[54, 0]),
   midi.NoteOnEvent(tick=0, channel=1, data=[61, 0]),
   midi.NoteOnEvent(tick=0, channel=1, data=[64, 127]),
   midi.NoteOnEvent(tick=0, channel=1, data=[57, 127]),
   midi.NoteOnEvent(tick=120, channel=1, data=[64, 0]),
   midi.NoteOnEvent(tick=0, channel=1, data=[57, 0]),
   midi.NoteOnEvent(tick=0, channel=1, data=[57, 127]),
   midi.NoteOnEvent(tick=0, channel=1, data=[64, 127]),
   midi.NoteOnEvent(tick=60, channel=1, data=[57, 0]),
   midi.NoteOnEvent(tick=0, channel=1, data=[64, 0]),
   midi.NoteOnEvent(tick=0, channel=1, data=[52, 127]),
   midi.NoteOnEvent(tick=0, channel=1, data=[59, 127]),
   midi.NoteOnEvent(tick=120, channel=1, data=[52, 0]),
   midi.NoteOnEvent(tick=0, channel=1, data=[59, 0]),
   midi.NoteOnEvent(tick=0, channel=1, data=[59, 127]),
   midi.NoteOnEvent(tick=0, channel=1, data=[52, 127]),
   midi.NoteOnEvent(tick=60, channel=1, data=[59, 0]),
   midi.NoteOnEvent(tick=0, channel=1, data=[52, 0]),
   midi.NoteOnEvent(tick=0, channel=1, data=[49, 127]),
   midi.NoteOnEvent(tick=0, channel=1, data=[56, 127]),
   midi.NoteOnEvent(tick=180, channel=1, data=[49, 0]),
   midi.NoteOnEvent(tick=0, channel=1, data=[56, 0]),
   midi.NoteOnEvent(tick=0, channel=1, data=[59, 127]),
   midi.NoteOnEvent(tick=0, channel=1, data=[52, 127]),
   midi.NoteOnEvent(tick=180, channel=1, data=[59, 0]),
   midi.NoteOnEvent(tick=0, channel=1, data=[52, 0]),
   midi.NoteOnEvent(tick=0, channel=1, data=[62, 127]),
   midi.NoteOnEvent(tick=0, channel=1, data=[55, 127]),
   midi.NoteOnEvent(tick=180, channel=1, data=[62, 0]),
   midi.NoteOnEvent(tick=0, channel=1, data=[55, 0]),
   midi.NoteOnEvent(tick=0, channel=1, data=[57, 127]),
   midi.NoteOnEvent(tick=0, channel=1, data=[50, 127]),
   midi.NoteOnEvent(tick=180, channel=1, data=[57, 0]),
   midi.NoteOnEvent(tick=0, channel=1, data=[50, 0]),
   midi.NoteOnEvent(tick=0, channel=1, data=[54, 127]),
   midi.NoteOnEvent(tick=0, channel=1, data=[47, 127]),
   midi.NoteOnEvent(tick=180, channel=1, data=[54, 0]),
   midi.NoteOnEvent(tick=0, channel=1, data=[47, 0]),
   midi.NoteOnEvent(tick=0, channel=1, data=[59, 127]),
   midi.NoteOnEvent(tick=0, channel=1, data=[52, 127]),
   midi.NoteOnEvent(tick=180, channel=1, data=[59, 0]),
   midi.NoteOnEvent(tick=0, channel=1, data=[52, 0]),
   midi.NoteOnEvent(tick=0, channel=1, data=[62, 127]),
   midi.NoteOnEvent(tick=0, channel=1, data=[55, 127]),
   midi.NoteOnEvent(tick=180, channel=1, data=[62, 0]),
   midi.NoteOnEvent(tick=0, channel=1, data=[55, 0]),
   midi.NoteOnEvent(tick=0, channel=1, data=[57, 127]),
   midi.NoteOnEvent(tick=0, channel=1, data=[50, 127]),
   midi.NoteOnEvent(tick=180, channel=1, data=[57, 0]),
   midi.NoteOnEvent(tick=0, channel=1, data=[50, 0]),
   midi.NoteOnEvent(tick=0, channel=1, data=[54, 127]),
   midi.NoteOnEvent(tick=0, channel=1, data=[47, 127]),
   midi.NoteOnEvent(tick=180, channel=1, data=[54, 0]),
   midi.NoteOnEvent(tick=0, channel=1, data=[47, 0]),
   midi.NoteOnEvent(tick=0, channel=1, data=[59, 127]),
   midi.NoteOnEvent(tick=0, channel=1, data=[52, 127]),
   midi.NoteOnEvent(tick=180, channel=1, data=[59, 0]),
   midi.NoteOnEvent(tick=0, channel=1, data=[52, 0]),
   midi.NoteOnEvent(tick=0, channel=1, data=[62, 127]),
   midi.NoteOnEvent(tick=0, channel=1, data=[55, 127]),
   midi.NoteOnEvent(tick=180, channel=1, data=[62, 0]),
   midi.NoteOnEvent(tick=0, channel=1, data=[55, 0]),
   midi.NoteOnEvent(tick=0, channel=1, data=[57, 127]),
   midi.NoteOnEvent(tick=0, channel=1, data=[50, 127]),
   midi.NoteOnEvent(tick=180, channel=1, data=[57, 0]),
   midi.NoteOnEvent(tick=0, channel=1, data=[50, 0]),
   midi.NoteOnEvent(tick=0, channel=1, data=[54, 127]),
   midi.NoteOnEvent(tick=0, channel=1, data=[47, 127]),
   midi.NoteOnEvent(tick=180, channel=1, data=[54, 0]),
   midi.NoteOnEvent(tick=0, channel=1, data=[47, 0]),
   midi.NoteOnEvent(tick=0, channel=1, data=[59, 127]),
   midi.NoteOnEvent(tick=0, channel=1, data=[52, 127]),
   midi.NoteOnEvent(tick=180, channel=1, data=[59, 0]),
   midi.NoteOnEvent(tick=0, channel=1, data=[52, 0]),
   midi.NoteOnEvent(tick=0, channel=1, data=[62, 127]),
   midi.NoteOnEvent(tick=0, channel=1, data=[55, 127]),
   midi.NoteOnEvent(tick=180, channel=1, data=[62, 0]),
   midi.NoteOnEvent(tick=0, channel=1, data=[55, 0]),
   midi.NoteOnEvent(tick=0, channel=1, data=[57, 127]),
   midi.NoteOnEvent(tick=0, channel=1, data=[50, 127]),
   midi.NoteOnEvent(tick=180, channel=1, data=[57, 0]),
   midi.NoteOnEvent(tick=0, channel=1, data=[50, 0]),
   midi.NoteOnEvent(tick=0, channel=1, data=[54, 127]),
   midi.NoteOnEvent(tick=0, channel=1, data=[47, 127]),
   midi.NoteOnEvent(tick=180, channel=1, data=[54, 0]),
   midi.NoteOnEvent(tick=0, channel=1, data=[47, 0]),
   midi.NoteOnEvent(tick=0, channel=1, data=[52, 127]),
   midi.NoteOnEvent(tick=0, channel=1, data=[59, 127]),
   midi.NoteOnEvent(tick=30, channel=1, data=[52, 0]),
   midi.NoteOnEvent(tick=0, channel=1, data=[59, 0]),
   midi.NoteOnEvent(tick=0, channel=1, data=[59, 127]),
   midi.NoteOnEvent(tick=0, channel=1, data=[52, 127]),
   midi.NoteOnEvent(tick=30, channel=1, data=[59, 0]),
   midi.NoteOnEvent(tick=0, channel=1, data=[52, 0]),
   midi.NoteOnEvent(tick=60, channel=1, data=[45, 127]),
   midi.NoteOnEvent(tick=0, channel=1, data=[52, 127]),
   midi.NoteOnEvent(tick=0, channel=1, data=[57, 127]),
   midi.NoteOnEvent(tick=180, channel=1, data=[45, 0]),
   midi.NoteOnEvent(tick=0, channel=1, data=[52, 0]),
   midi.NoteOnEvent(tick=0, channel=1, data=[57, 0]),
   midi.NoteOnEvent(tick=0, channel=1, data=[40, 127]),
   midi.NoteOnEvent(tick=0, channel=1, data=[47, 127]),
   midi.NoteOnEvent(tick=0, channel=1, data=[52, 127]),
   midi.NoteOnEvent(tick=180, channel=1, data=[40, 0]),
   midi.NoteOnEvent(tick=0, channel=1, data=[47, 0]),
   midi.NoteOnEvent(tick=0, channel=1, data=[52, 0]),
   midi.NoteOnEvent(tick=0, channel=1, data=[60, 127]),
   midi.NoteOnEvent(tick=0, channel=1, data=[55, 127]),
   midi.NoteOnEvent(tick=0, channel=1, data=[48, 127]),
   midi.NoteOnEvent(tick=480, channel=1, data=[60, 0]),
   midi.NoteOnEvent(tick=0, channel=1, data=[55, 0]),
   midi.NoteOnEvent(tick=0, channel=1, data=[48, 0]),
   midi.NoteOnEvent(tick=0, channel=1, data=[40, 127]),
   midi.NoteOnEvent(tick=60, channel=1, data=[40, 0]),
   midi.NoteOnEvent(tick=0, channel=1, data=[40, 127]),
   midi.NoteOnEvent(tick=60, channel=1, data=[40, 0]),
   midi.NoteOnEvent(tick=0, channel=1, data=[48, 127]),
   midi.NoteOnEvent(tick=0, channel=1, data=[55, 127]),
   midi.NoteOnEvent(tick=0, channel=1, data=[60, 127]),
   midi.NoteOnEvent(tick=180, channel=1, data=[48, 0]),
   midi.NoteOnEvent(tick=0, channel=1, data=[55, 0]),
   midi.NoteOnEvent(tick=0, channel=1, data=[60, 0]),
   midi.NoteOnEvent(tick=0, channel=1, data=[40, 127]),
   midi.NoteOnEvent(tick=0, channel=1, data=[47, 127]),
   midi.NoteOnEvent(tick=0, channel=1, data=[52, 127]),
   midi.NoteOnEvent(tick=180, channel=1, data=[40, 0]),
   midi.NoteOnEvent(tick=0, channel=1, data=[47, 0]),
   midi.NoteOnEvent(tick=0, channel=1, data=[52, 0]),
   midi.NoteOnEvent(tick=0, channel=1, data=[57, 127]),
   midi.NoteOnEvent(tick=0, channel=1, data=[52, 127]),
   midi.NoteOnEvent(tick=0, channel=1, data=[45, 127]),
   midi.NoteOnEvent(tick=480, channel=1, data=[57, 0]),
   midi.NoteOnEvent(tick=0, channel=1, data=[52, 0]),
   midi.NoteOnEvent(tick=0, channel=1, data=[45, 0]),
   midi.NoteOnEvent(tick=0, channel=1, data=[47, 127]),
   midi.NoteOnEvent(tick=0, channel=1, data=[54, 127]),
   midi.NoteOnEvent(tick=0, channel=1, data=[59, 127]),
   midi.NoteOnEvent(tick=60, channel=1, data=[47, 0]),
   midi.NoteOnEvent(tick=0, channel=1, data=[54, 0]),
   midi.NoteOnEvent(tick=0, channel=1, data=[59, 0]),
   midi.NoteOnEvent(tick=0, channel=1, data=[54, 127]),
   midi.NoteOnEvent(tick=0, channel=1, data=[59, 127]),
   midi.NoteOnEvent(tick=0, channel=1, data=[47, 127]),
   midi.NoteOnEvent(tick=60, channel=1, data=[54, 0]),
   midi.NoteOnEvent(tick=0, channel=1, data=[59, 0]),
   midi.NoteOnEvent(tick=0, channel=1, data=[47, 0]),
   midi.NoteOnEvent(tick=0, channel=1, data=[54, 127]),
   midi.NoteOnEvent(tick=0, channel=1, data=[59, 127]),
   midi.NoteOnEvent(tick=0, channel=1, data=[47, 127]),
   midi.NoteOnEvent(tick=60, channel=1, data=[54, 0]),
   midi.NoteOnEvent(tick=0, channel=1, data=[59, 0]),
   midi.NoteOnEvent(tick=0, channel=1, data=[47, 0]),
   midi.NoteOnEvent(tick=0, channel=1, data=[47, 127]),
   midi.NoteOnEvent(tick=60, channel=1, data=[47, 0]),
   midi.NoteOnEvent(tick=0, channel=1, data=[47, 127]),
   midi.NoteOnEvent(tick=60, channel=1, data=[47, 0]),
   midi.NoteOnEvent(tick=0, channel=1, data=[47, 127]),
   midi.NoteOnEvent(tick=60, channel=1, data=[47, 0]),
   midi.NoteOnEvent(tick=0, channel=1, data=[52, 127]),
   midi.NoteOnEvent(tick=0, channel=1, data=[45, 127]),
   midi.NoteOnEvent(tick=60, channel=1, data=[52, 0]),
   midi.NoteOnEvent(tick=0, channel=1, data=[45, 0]),
   midi.NoteOnEvent(tick=60, channel=1, data=[47, 127]),
   midi.NoteOnEvent(tick=0, channel=1, data=[54, 127]),
   midi.NoteOnEvent(tick=0, channel=1, data=[59, 127]),
   midi.NoteOnEvent(tick=60, channel=1, data=[47, 0]),
   midi.NoteOnEvent(tick=0, channel=1, data=[54, 0]),
   midi.NoteOnEvent(tick=0, channel=1, data=[59, 0]),
   midi.NoteOnEvent(tick=0, channel=1, data=[54, 127]),
   midi.NoteOnEvent(tick=0, channel=1, data=[59, 127]),
   midi.NoteOnEvent(tick=0, channel=1, data=[47, 127]),
   midi.NoteOnEvent(tick=60, channel=1, data=[54, 0]),
   midi.NoteOnEvent(tick=0, channel=1, data=[59, 0]),
   midi.NoteOnEvent(tick=0, channel=1, data=[47, 0]),
   midi.NoteOnEvent(tick=0, channel=1, data=[54, 127]),
   midi.NoteOnEvent(tick=0, channel=1, data=[59, 127]),
   midi.NoteOnEvent(tick=0, channel=1, data=[47, 127]),
   midi.NoteOnEvent(tick=60, channel=1, data=[54, 0]),
   midi.NoteOnEvent(tick=0, channel=1, data=[59, 0]),
   midi.NoteOnEvent(tick=0, channel=1, data=[47, 0]),
   midi.NoteOnEvent(tick=0, channel=1, data=[47, 127]),
   midi.NoteOnEvent(tick=60, channel=1, data=[47, 0]),
   midi.NoteOnEvent(tick=0, channel=1, data=[47, 127]),
   midi.NoteOnEvent(tick=60, channel=1, data=[47, 0]),
   midi.NoteOnEvent(tick=0, channel=1, data=[47, 127]),
   midi.NoteOnEvent(tick=60, channel=1, data=[47, 0]),
   midi.NoteOnEvent(tick=0, channel=1, data=[59, 127]),
   midi.NoteOnEvent(tick=0, channel=1, data=[54, 127]),
   midi.NoteOnEvent(tick=0, channel=1, data=[47, 127]),
   midi.NoteOnEvent(tick=60, channel=1, data=[59, 0]),
   midi.NoteOnEvent(tick=0, channel=1, data=[54, 0]),
   midi.NoteOnEvent(tick=0, channel=1, data=[47, 0]),
   midi.NoteOnEvent(tick=60, channel=1, data=[45, 127]),
   midi.NoteOnEvent(tick=0, channel=1, data=[54, 127]),
   midi.NoteOnEvent(tick=60, channel=1, data=[45, 0]),
   midi.NoteOnEvent(tick=0, channel=1, data=[54, 0]),
   midi.NoteOnEvent(tick=0, channel=1, data=[45, 127]),
   midi.NoteOnEvent(tick=0, channel=1, data=[54, 127]),
   midi.NoteOnEvent(tick=60, channel=1, data=[45, 0]),
   midi.NoteOnEvent(tick=0, channel=1, data=[54, 0]),
   midi.NoteOnEvent(tick=0, channel=1, data=[45, 127]),
   midi.NoteOnEvent(tick=0, channel=1, data=[54, 127]),
   midi.NoteOnEvent(tick=60, channel=1, data=[45, 0]),
   midi.NoteOnEvent(tick=0, channel=1, data=[54, 0]),
   midi.NoteOnEvent(tick=0, channel=1, data=[45, 127]),
   midi.NoteOnEvent(tick=60, channel=1, data=[45, 0]),
   midi.NoteOnEvent(tick=0, channel=1, data=[45, 127]),
   midi.NoteOnEvent(tick=60, channel=1, data=[45, 0]),
   midi.NoteOnEvent(tick=0, channel=1, data=[45, 127]),
   midi.NoteOnEvent(tick=60, channel=1, data=[45, 0]),
   midi.NoteOnEvent(tick=0, channel=1, data=[54, 127]),
   midi.NoteOnEvent(tick=0, channel=1, data=[45, 127]),
   midi.NoteOnEvent(tick=60, channel=1, data=[54, 0]),
   midi.NoteOnEvent(tick=0, channel=1, data=[45, 0]),
   midi.NoteOnEvent(tick=60, channel=1, data=[42, 127]),
   midi.NoteOnEvent(tick=0, channel=1, data=[49, 127]),
   midi.NoteOnEvent(tick=0, channel=1, data=[54, 127]),
   midi.NoteOnEvent(tick=60, channel=1, data=[42, 0]),
   midi.NoteOnEvent(tick=0, channel=1, data=[49, 0]),
   midi.NoteOnEvent(tick=0, channel=1, data=[54, 0]),
   midi.NoteOnEvent(tick=0, channel=1, data=[42, 127]),
   midi.NoteOnEvent(tick=0, channel=1, data=[49, 127]),
   midi.NoteOnEvent(tick=0, channel=1, data=[54, 127]),
   midi.NoteOnEvent(tick=60, channel=1, data=[42, 0]),
   midi.NoteOnEvent(tick=0, channel=1, data=[49, 0]),
   midi.NoteOnEvent(tick=0, channel=1, data=[54, 0]),
   midi.NoteOnEvent(tick=0, channel=1, data=[42, 127]),
   midi.NoteOnEvent(tick=0, channel=1, data=[49, 127]),
   midi.NoteOnEvent(tick=0, channel=1, data=[54, 127]),
   midi.NoteOnEvent(tick=60, channel=1, data=[42, 0]),
   midi.NoteOnEvent(tick=0, channel=1, data=[49, 0]),
   midi.NoteOnEvent(tick=0, channel=1, data=[54, 0]),
   midi.NoteOnEvent(tick=0, channel=1, data=[42, 127]),
   midi.NoteOnEvent(tick=60, channel=1, data=[42, 0]),
   midi.NoteOnEvent(tick=0, channel=1, data=[42, 127]),
   midi.NoteOnEvent(tick=60, channel=1, data=[42, 0]),
   midi.NoteOnEvent(tick=0, channel=1, data=[42, 127]),
   midi.NoteOnEvent(tick=60, channel=1, data=[42, 0]),
   midi.NoteOnEvent(tick=0, channel=1, data=[45, 127]),
   midi.NoteOnEvent(tick=0, channel=1, data=[52, 127]),
   midi.NoteOnEvent(tick=60, channel=1, data=[45, 0]),
   midi.NoteOnEvent(tick=0, channel=1, data=[52, 0]),
   midi.NoteOnEvent(tick=60, channel=1, data=[47, 127]),
   midi.NoteOnEvent(tick=0, channel=1, data=[54, 127]),
   midi.NoteOnEvent(tick=0, channel=1, data=[59, 127]),
   midi.NoteOnEvent(tick=60, channel=1, data=[47, 0]),
   midi.NoteOnEvent(tick=0, channel=1, data=[54, 0]),
   midi.NoteOnEvent(tick=0, channel=1, data=[59, 0]),
   midi.NoteOnEvent(tick=0, channel=1, data=[54, 127]),
   midi.NoteOnEvent(tick=0, channel=1, data=[59, 127]),
   midi.NoteOnEvent(tick=0, channel=1, data=[47, 127]),
   midi.NoteOnEvent(tick=60, channel=1, data=[54, 0]),
   midi.NoteOnEvent(tick=0, channel=1, data=[59, 0]),
   midi.NoteOnEvent(tick=0, channel=1, data=[47, 0]),
   midi.NoteOnEvent(tick=0, channel=1, data=[54, 127]),
   midi.NoteOnEvent(tick=0, channel=1, data=[59, 127]),
   midi.NoteOnEvent(tick=0, channel=1, data=[47, 127]),
   midi.NoteOnEvent(tick=60, channel=1, data=[54, 0]),
   midi.NoteOnEvent(tick=0, channel=1, data=[59, 0]),
   midi.NoteOnEvent(tick=0, channel=1, data=[47, 0]),
   midi.NoteOnEvent(tick=0, channel=1, data=[47, 127]),
   midi.NoteOnEvent(tick=60, channel=1, data=[47, 0]),
   midi.NoteOnEvent(tick=0, channel=1, data=[47, 127]),
   midi.NoteOnEvent(tick=60, channel=1, data=[47, 0]),
   midi.NoteOnEvent(tick=0, channel=1, data=[47, 127]),
   midi.NoteOnEvent(tick=60, channel=1, data=[47, 0]),
   midi.NoteOnEvent(tick=0, channel=1, data=[52, 127]),
   midi.NoteOnEvent(tick=0, channel=1, data=[45, 127]),
   midi.NoteOnEvent(tick=60, channel=1, data=[52, 0]),
   midi.NoteOnEvent(tick=0, channel=1, data=[45, 0]),
   midi.NoteOnEvent(tick=60, channel=1, data=[45, 127]),
   midi.NoteOnEvent(tick=0, channel=1, data=[54, 127]),
   midi.NoteOnEvent(tick=60, channel=1, data=[45, 0]),
   midi.NoteOnEvent(tick=0, channel=1, data=[54, 0]),
   midi.NoteOnEvent(tick=0, channel=1, data=[45, 127]),
   midi.NoteOnEvent(tick=0, channel=1, data=[54, 127]),
   midi.NoteOnEvent(tick=60, channel=1, data=[45, 0]),
   midi.NoteOnEvent(tick=0, channel=1, data=[54, 0]),
   midi.NoteOnEvent(tick=0, channel=1, data=[45, 127]),
   midi.NoteOnEvent(tick=0, channel=1, data=[54, 127]),
   midi.NoteOnEvent(tick=60, channel=1, data=[45, 0]),
   midi.NoteOnEvent(tick=0, channel=1, data=[54, 0]),
   midi.NoteOnEvent(tick=0, channel=1, data=[45, 127]),
   midi.NoteOnEvent(tick=60, channel=1, data=[45, 0]),
   midi.NoteOnEvent(tick=0, channel=1, data=[45, 127]),
   midi.NoteOnEvent(tick=60, channel=1, data=[45, 0]),
   midi.NoteOnEvent(tick=0, channel=1, data=[45, 127]),
   midi.NoteOnEvent(tick=60, channel=1, data=[45, 0]),
   midi.NoteOnEvent(tick=0, channel=1, data=[54, 127]),
   midi.NoteOnEvent(tick=0, channel=1, data=[45, 127]),
   midi.NoteOnEvent(tick=60, channel=1, data=[54, 0]),
   midi.NoteOnEvent(tick=0, channel=1, data=[45, 0]),
   midi.NoteOnEvent(tick=60, channel=1, data=[42, 127]),
   midi.NoteOnEvent(tick=0, channel=1, data=[49, 127]),
   midi.NoteOnEvent(tick=0, channel=1, data=[54, 127]),
   midi.NoteOnEvent(tick=60, channel=1, data=[42, 0]),
   midi.NoteOnEvent(tick=0, channel=1, data=[49, 0]),
   midi.NoteOnEvent(tick=0, channel=1, data=[54, 0]),
   midi.NoteOnEvent(tick=0, channel=1, data=[42, 127]),
   midi.NoteOnEvent(tick=0, channel=1, data=[49, 127]),
   midi.NoteOnEvent(tick=0, channel=1, data=[54, 127]),
   midi.NoteOnEvent(tick=60, channel=1, data=[42, 0]),
   midi.NoteOnEvent(tick=0, channel=1, data=[49, 0]),
   midi.NoteOnEvent(tick=0, channel=1, data=[54, 0]),
   midi.NoteOnEvent(tick=0, channel=1, data=[42, 127]),
   midi.NoteOnEvent(tick=0, channel=1, data=[49, 127]),
   midi.NoteOnEvent(tick=0, channel=1, data=[54, 127]),
   midi.NoteOnEvent(tick=60, channel=1, data=[42, 0]),
   midi.NoteOnEvent(tick=0, channel=1, data=[49, 0]),
   midi.NoteOnEvent(tick=0, channel=1, data=[54, 0]),
   midi.NoteOnEvent(tick=0, channel=1, data=[42, 127]),
   midi.NoteOnEvent(tick=60, channel=1, data=[42, 0]),
   midi.NoteOnEvent(tick=0, channel=1, data=[42, 127]),
   midi.NoteOnEvent(tick=60, channel=1, data=[42, 0]),
   midi.NoteOnEvent(tick=0, channel=1, data=[42, 127]),
   midi.NoteOnEvent(tick=60, channel=1, data=[42, 0]),
   midi.NoteOnEvent(tick=0, channel=1, data=[45, 127]),
   midi.NoteOnEvent(tick=0, channel=1, data=[52, 127]),
   midi.NoteOnEvent(tick=60, channel=1, data=[45, 0]),
   midi.NoteOnEvent(tick=0, channel=1, data=[52, 0]),
   midi.NoteOnEvent(tick=60, channel=1, data=[40, 127]),
   midi.NoteOnEvent(tick=0, channel=1, data=[47, 127]),
   midi.NoteOnEvent(tick=0, channel=1, data=[52, 127]),
   midi.NoteOnEvent(tick=60, channel=1, data=[40, 0]),
   midi.NoteOnEvent(tick=0, channel=1, data=[47, 0]),
   midi.NoteOnEvent(tick=0, channel=1, data=[52, 0]),
   midi.NoteOnEvent(tick=0, channel=1, data=[40, 127]),
   midi.NoteOnEvent(tick=0, channel=1, data=[47, 127]),
   midi.NoteOnEvent(tick=0, channel=1, data=[52, 127]),
   midi.NoteOnEvent(tick=60, channel=1, data=[40, 0]),
   midi.NoteOnEvent(tick=0, channel=1, data=[47, 0]),
   midi.NoteOnEvent(tick=0, channel=1, data=[52, 0]),
   midi.NoteOnEvent(tick=0, channel=1, data=[40, 127]),
   midi.NoteOnEvent(tick=60, channel=1, data=[40, 0]),
   midi.NoteOnEvent(tick=0, channel=1, data=[40, 127]),
   midi.NoteOnEvent(tick=60, channel=1, data=[40, 0]),
   midi.NoteOnEvent(tick=0, channel=1, data=[40, 127]),
   midi.NoteOnEvent(tick=60, channel=1, data=[40, 0]),
   midi.NoteOnEvent(tick=0, channel=1, data=[40, 127]),
   midi.NoteOnEvent(tick=60, channel=1, data=[40, 0]),
   midi.NoteOnEvent(tick=0, channel=1, data=[40, 127]),
   midi.NoteOnEvent(tick=0, channel=1, data=[47, 127]),
   midi.NoteOnEvent(tick=0, channel=1, data=[52, 127]),
   midi.NoteOnEvent(tick=60, channel=1, data=[40, 0]),
   midi.NoteOnEvent(tick=0, channel=1, data=[47, 0]),
   midi.NoteOnEvent(tick=0, channel=1, data=[52, 0]),
   midi.NoteOnEvent(tick=60, channel=1, data=[47, 127]),
   midi.NoteOnEvent(tick=0, channel=1, data=[54, 127]),
   midi.NoteOnEvent(tick=0, channel=1, data=[59, 127]),
   midi.NoteOnEvent(tick=60, channel=1, data=[47, 0]),
   midi.NoteOnEvent(tick=0, channel=1, data=[54, 0]),
   midi.NoteOnEvent(tick=0, channel=1, data=[59, 0]),
   midi.NoteOnEvent(tick=0, channel=1, data=[54, 127]),
   midi.NoteOnEvent(tick=0, channel=1, data=[59, 127]),
   midi.NoteOnEvent(tick=0, channel=1, data=[47, 127]),
   midi.NoteOnEvent(tick=60, channel=1, data=[54, 0]),
   midi.NoteOnEvent(tick=0, channel=1, data=[59, 0]),
   midi.NoteOnEvent(tick=0, channel=1, data=[47, 0]),
   midi.NoteOnEvent(tick=0, channel=1, data=[54, 127]),
   midi.NoteOnEvent(tick=0, channel=1, data=[59, 127]),
   midi.NoteOnEvent(tick=0, channel=1, data=[47, 127]),
   midi.NoteOnEvent(tick=60, channel=1, data=[54, 0]),
   midi.NoteOnEvent(tick=0, channel=1, data=[59, 0]),
   midi.NoteOnEvent(tick=0, channel=1, data=[47, 0]),
   midi.NoteOnEvent(tick=0, channel=1, data=[47, 127]),
   midi.NoteOnEvent(tick=60, channel=1, data=[47, 0]),
   midi.NoteOnEvent(tick=0, channel=1, data=[47, 127]),
   midi.NoteOnEvent(tick=60, channel=1, data=[47, 0]),
   midi.NoteOnEvent(tick=0, channel=1, data=[47, 127]),
   midi.NoteOnEvent(tick=60, channel=1, data=[47, 0]),
   midi.NoteOnEvent(tick=0, channel=1, data=[52, 127]),
   midi.NoteOnEvent(tick=0, channel=1, data=[45, 127]),
   midi.NoteOnEvent(tick=60, channel=1, data=[52, 0]),
   midi.NoteOnEvent(tick=0, channel=1, data=[45, 0]),
   midi.NoteOnEvent(tick=60, channel=1, data=[47, 127]),
   midi.NoteOnEvent(tick=0, channel=1, data=[54, 127]),
   midi.NoteOnEvent(tick=0, channel=1, data=[59, 127]),
   midi.NoteOnEvent(tick=60, channel=1, data=[47, 0]),
   midi.NoteOnEvent(tick=0, channel=1, data=[54, 0]),
   midi.NoteOnEvent(tick=0, channel=1, data=[59, 0]),
   midi.NoteOnEvent(tick=0, channel=1, data=[54, 127]),
   midi.NoteOnEvent(tick=0, channel=1, data=[59, 127]),
   midi.NoteOnEvent(tick=0, channel=1, data=[47, 127]),
   midi.NoteOnEvent(tick=60, channel=1, data=[54, 0]),
   midi.NoteOnEvent(tick=0, channel=1, data=[59, 0]),
   midi.NoteOnEvent(tick=0, channel=1, data=[47, 0]),
   midi.NoteOnEvent(tick=0, channel=1, data=[54, 127]),
   midi.NoteOnEvent(tick=0, channel=1, data=[59, 127]),
   midi.NoteOnEvent(tick=0, channel=1, data=[47, 127]),
   midi.NoteOnEvent(tick=60, channel=1, data=[54, 0]),
   midi.NoteOnEvent(tick=0, channel=1, data=[59, 0]),
   midi.NoteOnEvent(tick=0, channel=1, data=[47, 0]),
   midi.NoteOnEvent(tick=0, channel=1, data=[47, 127]),
   midi.NoteOnEvent(tick=60, channel=1, data=[47, 0]),
   midi.NoteOnEvent(tick=0, channel=1, data=[47, 127]),
   midi.NoteOnEvent(tick=60, channel=1, data=[47, 0]),
   midi.NoteOnEvent(tick=0, channel=1, data=[47, 127]),
   midi.NoteOnEvent(tick=60, channel=1, data=[47, 0]),
   midi.NoteOnEvent(tick=0, channel=1, data=[59, 127]),
   midi.NoteOnEvent(tick=0, channel=1, data=[54, 127]),
   midi.NoteOnEvent(tick=0, channel=1, data=[47, 127]),
   midi.NoteOnEvent(tick=60, channel=1, data=[59, 0]),
   midi.NoteOnEvent(tick=0, channel=1, data=[54, 0]),
   midi.NoteOnEvent(tick=0, channel=1, data=[47, 0]),
   midi.NoteOnEvent(tick=60, channel=1, data=[45, 127]),
   midi.NoteOnEvent(tick=0, channel=1, data=[54, 127]),
   midi.NoteOnEvent(tick=60, channel=1, data=[45, 0]),
   midi.NoteOnEvent(tick=0, channel=1, data=[54, 0]),
   midi.NoteOnEvent(tick=0, channel=1, data=[45, 127]),
   midi.NoteOnEvent(tick=0, channel=1, data=[54, 127]),
   midi.NoteOnEvent(tick=60, channel=1, data=[45, 0]),
   midi.NoteOnEvent(tick=0, channel=1, data=[54, 0]),
   midi.NoteOnEvent(tick=0, channel=1, data=[45, 127]),
   midi.NoteOnEvent(tick=0, channel=1, data=[54, 127]),
   midi.NoteOnEvent(tick=60, channel=1, data=[45, 0]),
   midi.NoteOnEvent(tick=0, channel=1, data=[54, 0]),
   midi.NoteOnEvent(tick=0, channel=1, data=[45, 127]),
   midi.NoteOnEvent(tick=60, channel=1, data=[45, 0]),
   midi.NoteOnEvent(tick=0, channel=1, data=[45, 127]),
   midi.NoteOnEvent(tick=60, channel=1, data=[45, 0]),
   midi.NoteOnEvent(tick=0, channel=1, data=[45, 127]),
   midi.NoteOnEvent(tick=60, channel=1, data=[45, 0]),
   midi.NoteOnEvent(tick=0, channel=1, data=[54, 127]),
   midi.NoteOnEvent(tick=0, channel=1, data=[45, 127]),
   midi.NoteOnEvent(tick=60, channel=1, data=[54, 0]),
   midi.NoteOnEvent(tick=0, channel=1, data=[45, 0]),
   midi.NoteOnEvent(tick=60, channel=1, data=[42, 127]),
   midi.NoteOnEvent(tick=0, channel=1, data=[49, 127]),
   midi.NoteOnEvent(tick=0, channel=1, data=[54, 127]),
   midi.NoteOnEvent(tick=60, channel=1, data=[42, 0]),
   midi.NoteOnEvent(tick=0, channel=1, data=[49, 0]),
   midi.NoteOnEvent(tick=0, channel=1, data=[54, 0]),
   midi.NoteOnEvent(tick=0, channel=1, data=[42, 127]),
   midi.NoteOnEvent(tick=0, channel=1, data=[49, 127]),
   midi.NoteOnEvent(tick=0, channel=1, data=[54, 127]),
   midi.NoteOnEvent(tick=60, channel=1, data=[42, 0]),
   midi.NoteOnEvent(tick=0, channel=1, data=[49, 0]),
   midi.NoteOnEvent(tick=0, channel=1, data=[54, 0]),
   midi.NoteOnEvent(tick=0, channel=1, data=[42, 127]),
   midi.NoteOnEvent(tick=0, channel=1, data=[49, 127]),
   midi.NoteOnEvent(tick=0, channel=1, data=[54, 127]),
   midi.NoteOnEvent(tick=60, channel=1, data=[42, 0]),
   midi.NoteOnEvent(tick=0, channel=1, data=[49, 0]),
   midi.NoteOnEvent(tick=0, channel=1, data=[54, 0]),
   midi.NoteOnEvent(tick=0, channel=1, data=[42, 127]),
   midi.NoteOnEvent(tick=60, channel=1, data=[42, 0]),
   midi.NoteOnEvent(tick=0, channel=1, data=[42, 127]),
   midi.NoteOnEvent(tick=60, channel=1, data=[42, 0]),
   midi.NoteOnEvent(tick=0, channel=1, data=[42, 127]),
   midi.NoteOnEvent(tick=60, channel=1, data=[42, 0]),
   midi.NoteOnEvent(tick=0, channel=1, data=[45, 127]),
   midi.NoteOnEvent(tick=0, channel=1, data=[52, 127]),
   midi.NoteOnEvent(tick=60, channel=1, data=[45, 0]),
   midi.NoteOnEvent(tick=0, channel=1, data=[52, 0]),
   midi.NoteOnEvent(tick=60, channel=1, data=[47, 127]),
   midi.NoteOnEvent(tick=0, channel=1, data=[54, 127]),
   midi.NoteOnEvent(tick=0, channel=1, data=[59, 127]),
   midi.NoteOnEvent(tick=60, channel=1, data=[47, 0]),
   midi.NoteOnEvent(tick=0, channel=1, data=[54, 0]),
   midi.NoteOnEvent(tick=0, channel=1, data=[59, 0]),
   midi.NoteOnEvent(tick=0, channel=1, data=[54, 127]),
   midi.NoteOnEvent(tick=0, channel=1, data=[59, 127]),
   midi.NoteOnEvent(tick=0, channel=1, data=[47, 127]),
   midi.NoteOnEvent(tick=60, channel=1, data=[54, 0]),
   midi.NoteOnEvent(tick=0, channel=1, data=[59, 0]),
   midi.NoteOnEvent(tick=0, channel=1, data=[47, 0]),
   midi.NoteOnEvent(tick=0, channel=1, data=[54, 127]),
   midi.NoteOnEvent(tick=0, channel=1, data=[59, 127]),
   midi.NoteOnEvent(tick=0, channel=1, data=[47, 127]),
   midi.NoteOnEvent(tick=60, channel=1, data=[54, 0]),
   midi.NoteOnEvent(tick=0, channel=1, data=[59, 0]),
   midi.NoteOnEvent(tick=0, channel=1, data=[47, 0]),
   midi.NoteOnEvent(tick=0, channel=1, data=[47, 127]),
   midi.NoteOnEvent(tick=60, channel=1, data=[47, 0]),
   midi.NoteOnEvent(tick=0, channel=1, data=[47, 127]),
   midi.NoteOnEvent(tick=60, channel=1, data=[47, 0]),
   midi.NoteOnEvent(tick=0, channel=1, data=[47, 127]),
   midi.NoteOnEvent(tick=60, channel=1, data=[47, 0]),
   midi.NoteOnEvent(tick=0, channel=1, data=[52, 127]),
   midi.NoteOnEvent(tick=0, channel=1, data=[45, 127]),
   midi.NoteOnEvent(tick=60, channel=1, data=[52, 0]),
   midi.NoteOnEvent(tick=0, channel=1, data=[45, 0]),
   midi.NoteOnEvent(tick=60, channel=1, data=[45, 127]),
   midi.NoteOnEvent(tick=0, channel=1, data=[54, 127]),
   midi.NoteOnEvent(tick=60, channel=1, data=[45, 0]),
   midi.NoteOnEvent(tick=0, channel=1, data=[54, 0]),
   midi.NoteOnEvent(tick=0, channel=1, data=[45, 127]),
   midi.NoteOnEvent(tick=0, channel=1, data=[54, 127]),
   midi.NoteOnEvent(tick=60, channel=1, data=[45, 0]),
   midi.NoteOnEvent(tick=0, channel=1, data=[54, 0]),
   midi.NoteOnEvent(tick=0, channel=1, data=[45, 127]),
   midi.NoteOnEvent(tick=0, channel=1, data=[54, 127]),
   midi.NoteOnEvent(tick=60, channel=1, data=[45, 0]),
   midi.NoteOnEvent(tick=0, channel=1, data=[54, 0]),
   midi.NoteOnEvent(tick=0, channel=1, data=[45, 127]),
   midi.NoteOnEvent(tick=60, channel=1, data=[45, 0]),
   midi.NoteOnEvent(tick=0, channel=1, data=[45, 127]),
   midi.NoteOnEvent(tick=60, channel=1, data=[45, 0]),
   midi.NoteOnEvent(tick=0, channel=1, data=[45, 127]),
   midi.NoteOnEvent(tick=60, channel=1, data=[45, 0]),
   midi.NoteOnEvent(tick=0, channel=1, data=[54, 127]),
   midi.NoteOnEvent(tick=0, channel=1, data=[45, 127]),
   midi.NoteOnEvent(tick=60, channel=1, data=[54, 0]),
   midi.NoteOnEvent(tick=0, channel=1, data=[45, 0]),
   midi.NoteOnEvent(tick=60, channel=1, data=[42, 127]),
   midi.NoteOnEvent(tick=0, channel=1, data=[49, 127]),
   midi.NoteOnEvent(tick=0, channel=1, data=[54, 127]),
   midi.NoteOnEvent(tick=60, channel=1, data=[42, 0]),
   midi.NoteOnEvent(tick=0, channel=1, data=[49, 0]),
   midi.NoteOnEvent(tick=0, channel=1, data=[54, 0]),
   midi.NoteOnEvent(tick=0, channel=1, data=[42, 127]),
   midi.NoteOnEvent(tick=0, channel=1, data=[49, 127]),
   midi.NoteOnEvent(tick=0, channel=1, data=[54, 127]),
   midi.NoteOnEvent(tick=60, channel=1, data=[42, 0]),
   midi.NoteOnEvent(tick=0, channel=1, data=[49, 0]),
   midi.NoteOnEvent(tick=0, channel=1, data=[54, 0]),
   midi.NoteOnEvent(tick=0, channel=1, data=[42, 127]),
   midi.NoteOnEvent(tick=0, channel=1, data=[49, 127]),
   midi.NoteOnEvent(tick=0, channel=1, data=[54, 127]),
   midi.NoteOnEvent(tick=60, channel=1, data=[42, 0]),
   midi.NoteOnEvent(tick=0, channel=1, data=[49, 0]),
   midi.NoteOnEvent(tick=0, channel=1, data=[54, 0]),
   midi.NoteOnEvent(tick=0, channel=1, data=[42, 127]),
   midi.NoteOnEvent(tick=60, channel=1, data=[42, 0]),
   midi.NoteOnEvent(tick=0, channel=1, data=[42, 127]),
   midi.NoteOnEvent(tick=60, channel=1, data=[42, 0]),
   midi.NoteOnEvent(tick=0, channel=1, data=[42, 127]),
   midi.NoteOnEvent(tick=60, channel=1, data=[42, 0]),
   midi.NoteOnEvent(tick=0, channel=1, data=[45, 127]),
   midi.NoteOnEvent(tick=0, channel=1, data=[52, 127]),
   midi.NoteOnEvent(tick=60, channel=1, data=[45, 0]),
   midi.NoteOnEvent(tick=0, channel=1, data=[52, 0]),
   midi.NoteOnEvent(tick=60, channel=1, data=[40, 127]),
   midi.NoteOnEvent(tick=0, channel=1, data=[47, 127]),
   midi.NoteOnEvent(tick=0, channel=1, data=[52, 127]),
   midi.NoteOnEvent(tick=60, channel=1, data=[40, 0]),
   midi.NoteOnEvent(tick=0, channel=1, data=[47, 0]),
   midi.NoteOnEvent(tick=0, channel=1, data=[52, 0]),
   midi.NoteOnEvent(tick=0, channel=1, data=[40, 127]),
   midi.NoteOnEvent(tick=0, channel=1, data=[47, 127]),
   midi.NoteOnEvent(tick=0, channel=1, data=[52, 127]),
   midi.NoteOnEvent(tick=60, channel=1, data=[40, 0]),
   midi.NoteOnEvent(tick=0, channel=1, data=[47, 0]),
   midi.NoteOnEvent(tick=0, channel=1, data=[52, 0]),
   midi.NoteOnEvent(tick=0, channel=1, data=[40, 127]),
   midi.NoteOnEvent(tick=60, channel=1, data=[40, 0]),
   midi.NoteOnEvent(tick=0, channel=1, data=[40, 127]),
   midi.NoteOnEvent(tick=60, channel=1, data=[40, 0]),
   midi.NoteOnEvent(tick=0, channel=1, data=[40, 127]),
   midi.NoteOnEvent(tick=60, channel=1, data=[40, 0]),
   midi.NoteOnEvent(tick=0, channel=1, data=[40, 127]),
   midi.NoteOnEvent(tick=60, channel=1, data=[40, 0]),
   midi.NoteOnEvent(tick=0, channel=1, data=[40, 127]),
   midi.NoteOnEvent(tick=0, channel=1, data=[47, 127]),
   midi.NoteOnEvent(tick=0, channel=1, data=[52, 127]),
   midi.NoteOnEvent(tick=60, channel=1, data=[40, 0]),
   midi.NoteOnEvent(tick=0, channel=1, data=[47, 0]),
   midi.NoteOnEvent(tick=0, channel=1, data=[52, 0]),
   midi.NoteOnEvent(tick=60, channel=1, data=[40, 127]),
   midi.NoteOnEvent(tick=60, channel=1, data=[40, 0]),
   midi.NoteOnEvent(tick=0, channel=1, data=[40, 127]),
   midi.NoteOnEvent(tick=30, channel=1, data=[40, 0]),
   midi.NoteOnEvent(tick=0, channel=1, data=[40, 127]),
   midi.NoteOnEvent(tick=30, channel=1, data=[40, 0]),
   midi.NoteOnEvent(tick=0, channel=1, data=[57, 127]),
   midi.NoteOnEvent(tick=0, channel=1, data=[52, 127]),
   midi.NoteOnEvent(tick=0, channel=1, data=[45, 127]),
   midi.NoteOnEvent(tick=60, channel=1, data=[57, 0]),
   midi.NoteOnEvent(tick=0, channel=1, data=[52, 0]),
   midi.NoteOnEvent(tick=0, channel=1, data=[45, 0]),
   midi.NoteOnEvent(tick=0, channel=1, data=[40, 127]),
   midi.NoteOnEvent(tick=30, channel=1, data=[40, 0]),
   midi.NoteOnEvent(tick=0, channel=1, data=[40, 127]),
   midi.NoteOnEvent(tick=30, channel=1, data=[40, 0]),
   midi.NoteOnEvent(tick=0, channel=1, data=[40, 127]),
   midi.NoteOnEvent(tick=30, channel=1, data=[40, 0]),
   midi.NoteOnEvent(tick=0, channel=1, data=[40, 127]),
   midi.NoteOnEvent(tick=30, channel=1, data=[40, 0]),
   midi.NoteOnEvent(tick=0, channel=1, data=[59, 127]),
   midi.NoteOnEvent(tick=0, channel=1, data=[52, 127]),
   midi.NoteOnEvent(tick=0, channel=1, data=[47, 127]),
   midi.NoteOnEvent(tick=60, channel=1, data=[59, 0]),
   midi.NoteOnEvent(tick=0, channel=1, data=[52, 0]),
   midi.NoteOnEvent(tick=0, channel=1, data=[47, 0]),
   midi.NoteOnEvent(tick=0, channel=1, data=[40, 127]),
   midi.NoteOnEvent(tick=30, channel=1, data=[40, 0]),
   midi.NoteOnEvent(tick=0, channel=1, data=[40, 127]),
   midi.NoteOnEvent(tick=30, channel=1, data=[40, 0]),
   midi.NoteOnEvent(tick=0, channel=1, data=[40, 127]),
   midi.NoteOnEvent(tick=30, channel=1, data=[40, 0]),
   midi.NoteOnEvent(tick=0, channel=1, data=[40, 127]),
   midi.NoteOnEvent(tick=30, channel=1, data=[40, 0]),
   midi.NoteOnEvent(tick=0, channel=1, data=[60, 127]),
   midi.NoteOnEvent(tick=0, channel=1, data=[55, 127]),
   midi.NoteOnEvent(tick=0, channel=1, data=[48, 127]),
   midi.NoteOnEvent(tick=60, channel=1, data=[60, 0]),
   midi.NoteOnEvent(tick=0, channel=1, data=[55, 0]),
   midi.NoteOnEvent(tick=0, channel=1, data=[48, 0]),
   midi.NoteOnEvent(tick=0, channel=1, data=[40, 127]),
   midi.NoteOnEvent(tick=30, channel=1, data=[40, 0]),
   midi.NoteOnEvent(tick=0, channel=1, data=[40, 127]),
   midi.NoteOnEvent(tick=30, channel=1, data=[40, 0]),
   midi.NoteOnEvent(tick=0, channel=1, data=[40, 127]),
   midi.NoteOnEvent(tick=30, channel=1, data=[40, 0]),
   midi.NoteOnEvent(tick=0, channel=1, data=[40, 127]),
   midi.NoteOnEvent(tick=30, channel=1, data=[40, 0]),
   midi.NoteOnEvent(tick=0, channel=1, data=[40, 127]),
   midi.NoteOnEvent(tick=60, channel=1, data=[40, 0]),
   midi.NoteOnEvent(tick=0, channel=1, data=[40, 127]),
   midi.NoteOnEvent(tick=30, channel=1, data=[40, 0]),
   midi.NoteOnEvent(tick=0, channel=1, data=[40, 127]),
   midi.NoteOnEvent(tick=30, channel=1, data=[40, 0]),
   midi.NoteOnEvent(tick=0, channel=1, data=[41, 127]),
   midi.NoteOnEvent(tick=60, channel=1, data=[41, 0]),
   midi.NoteOnEvent(tick=0, channel=1, data=[41, 127]),
   midi.NoteOnEvent(tick=30, channel=1, data=[41, 0]),
   midi.NoteOnEvent(tick=0, channel=1, data=[41, 127]),
   midi.NoteOnEvent(tick=30, channel=1, data=[41, 0]),
   midi.NoteOnEvent(tick=0, channel=1, data=[40, 127]),
   midi.NoteOnEvent(tick=60, channel=1, data=[40, 0]),
   midi.NoteOnEvent(tick=0, channel=1, data=[40, 127]),
   midi.NoteOnEvent(tick=60, channel=1, data=[40, 0]),
   midi.NoteOnEvent(tick=0, channel=1, data=[40, 127]),
   midi.NoteOnEvent(tick=30, channel=1, data=[40, 0]),
   midi.NoteOnEvent(tick=0, channel=1, data=[40, 127]),
   midi.NoteOnEvent(tick=30, channel=1, data=[40, 0]),
   midi.NoteOnEvent(tick=0, channel=1, data=[60, 127]),
   midi.NoteOnEvent(tick=0, channel=1, data=[55, 127]),
   midi.NoteOnEvent(tick=0, channel=1, data=[48, 127]),
   midi.NoteOnEvent(tick=60, channel=1, data=[60, 0]),
   midi.NoteOnEvent(tick=0, channel=1, data=[55, 0]),
   midi.NoteOnEvent(tick=0, channel=1, data=[48, 0]),
   midi.NoteOnEvent(tick=0, channel=1, data=[40, 127]),
   midi.NoteOnEvent(tick=30, channel=1, data=[40, 0]),
   midi.NoteOnEvent(tick=0, channel=1, data=[40, 127]),
   midi.NoteOnEvent(tick=30, channel=1, data=[40, 0]),
   midi.NoteOnEvent(tick=0, channel=1, data=[40, 127]),
   midi.NoteOnEvent(tick=30, channel=1, data=[40, 0]),
   midi.NoteOnEvent(tick=0, channel=1, data=[40, 127]),
   midi.NoteOnEvent(tick=30, channel=1, data=[40, 0]),
   midi.NoteOnEvent(tick=0, channel=1, data=[59, 127]),
   midi.NoteOnEvent(tick=0, channel=1, data=[52, 127]),
   midi.NoteOnEvent(tick=0, channel=1, data=[47, 127]),
   midi.NoteOnEvent(tick=60, channel=1, data=[59, 0]),
   midi.NoteOnEvent(tick=0, channel=1, data=[52, 0]),
   midi.NoteOnEvent(tick=0, channel=1, data=[47, 0]),
   midi.NoteOnEvent(tick=0, channel=1, data=[40, 127]),
   midi.NoteOnEvent(tick=30, channel=1, data=[40, 0]),
   midi.NoteOnEvent(tick=0, channel=1, data=[40, 127]),
   midi.NoteOnEvent(tick=30, channel=1, data=[40, 0]),
   midi.NoteOnEvent(tick=0, channel=1, data=[40, 127]),
   midi.NoteOnEvent(tick=30, channel=1, data=[40, 0]),
   midi.NoteOnEvent(tick=0, channel=1, data=[40, 127]),
   midi.NoteOnEvent(tick=30, channel=1, data=[40, 0]),
   midi.NoteOnEvent(tick=0, channel=1, data=[57, 127]),
   midi.NoteOnEvent(tick=0, channel=1, data=[52, 127]),
   midi.NoteOnEvent(tick=0, channel=1, data=[45, 127]),
   midi.NoteOnEvent(tick=60, channel=1, data=[57, 0]),
   midi.NoteOnEvent(tick=0, channel=1, data=[52, 0]),
   midi.NoteOnEvent(tick=0, channel=1, data=[45, 0]),
   midi.NoteOnEvent(tick=0, channel=1, data=[40, 127]),
   midi.NoteOnEvent(tick=30, channel=1, data=[40, 0]),
   midi.NoteOnEvent(tick=0, channel=1, data=[40, 127]),
   midi.NoteOnEvent(tick=30, channel=1, data=[40, 0]),
   midi.NoteOnEvent(tick=0, channel=1, data=[40, 127]),
   midi.NoteOnEvent(tick=30, channel=1, data=[40, 0]),
   midi.NoteOnEvent(tick=0, channel=1, data=[40, 127]),
   midi.NoteOnEvent(tick=30, channel=1, data=[40, 0]),
   midi.NoteOnEvent(tick=0, channel=1, data=[40, 127]),
   midi.NoteOnEvent(tick=60, channel=1, data=[40, 0]),
   midi.NoteOnEvent(tick=0, channel=1, data=[40, 127]),
   midi.NoteOnEvent(tick=30, channel=1, data=[40, 0]),
   midi.NoteOnEvent(tick=0, channel=1, data=[40, 127]),
   midi.NoteOnEvent(tick=30, channel=1, data=[40, 0]),
   midi.NoteOnEvent(tick=0, channel=1, data=[41, 127]),
   midi.NoteOnEvent(tick=60, channel=1, data=[41, 0]),
   midi.NoteOnEvent(tick=0, channel=1, data=[41, 127]),
   midi.NoteOnEvent(tick=30, channel=1, data=[41, 0]),
   midi.NoteOnEvent(tick=0, channel=1, data=[41, 127]),
   midi.NoteOnEvent(tick=30, channel=1, data=[41, 0]),
   midi.NoteOnEvent(tick=0, channel=1, data=[40, 127]),
   midi.NoteOnEvent(tick=60, channel=1, data=[40, 0]),
   midi.NoteOnEvent(tick=0, channel=1, data=[40, 127]),
   midi.NoteOnEvent(tick=60, channel=1, data=[40, 0]),
   midi.NoteOnEvent(tick=0, channel=1, data=[40, 127]),
   midi.NoteOnEvent(tick=30, channel=1, data=[40, 0]),
   midi.NoteOnEvent(tick=0, channel=1, data=[40, 127]),
   midi.NoteOnEvent(tick=30, channel=1, data=[40, 0]),
   midi.NoteOnEvent(tick=0, channel=1, data=[57, 127]),
   midi.NoteOnEvent(tick=0, channel=1, data=[52, 127]),
   midi.NoteOnEvent(tick=0, channel=1, data=[45, 127]),
   midi.NoteOnEvent(tick=60, channel=1, data=[57, 0]),
   midi.NoteOnEvent(tick=0, channel=1, data=[52, 0]),
   midi.NoteOnEvent(tick=0, channel=1, data=[45, 0]),
   midi.NoteOnEvent(tick=0, channel=1, data=[40, 127]),
   midi.NoteOnEvent(tick=30, channel=1, data=[40, 0]),
   midi.NoteOnEvent(tick=0, channel=1, data=[40, 127]),
   midi.NoteOnEvent(tick=30, channel=1, data=[40, 0]),
   midi.NoteOnEvent(tick=0, channel=1, data=[40, 127]),
   midi.NoteOnEvent(tick=30, channel=1, data=[40, 0]),
   midi.NoteOnEvent(tick=0, channel=1, data=[40, 127]),
   midi.NoteOnEvent(tick=30, channel=1, data=[40, 0]),
   midi.NoteOnEvent(tick=0, channel=1, data=[59, 127]),
   midi.NoteOnEvent(tick=0, channel=1, data=[52, 127]),
   midi.NoteOnEvent(tick=0, channel=1, data=[47, 127]),
   midi.NoteOnEvent(tick=60, channel=1, data=[59, 0]),
   midi.NoteOnEvent(tick=0, channel=1, data=[52, 0]),
   midi.NoteOnEvent(tick=0, channel=1, data=[47, 0]),
   midi.NoteOnEvent(tick=0, channel=1, data=[40, 127]),
   midi.NoteOnEvent(tick=30, channel=1, data=[40, 0]),
   midi.NoteOnEvent(tick=0, channel=1, data=[40, 127]),
   midi.NoteOnEvent(tick=30, channel=1, data=[40, 0]),
   midi.NoteOnEvent(tick=0, channel=1, data=[40, 127]),
   midi.NoteOnEvent(tick=30, channel=1, data=[40, 0]),
   midi.NoteOnEvent(tick=0, channel=1, data=[40, 127]),
   midi.NoteOnEvent(tick=30, channel=1, data=[40, 0]),
   midi.NoteOnEvent(tick=0, channel=1, data=[60, 127]),
   midi.NoteOnEvent(tick=0, channel=1, data=[55, 127]),
   midi.NoteOnEvent(tick=0, channel=1, data=[48, 127]),
   midi.NoteOnEvent(tick=60, channel=1, data=[60, 0]),
   midi.NoteOnEvent(tick=0, channel=1, data=[55, 0]),
   midi.NoteOnEvent(tick=0, channel=1, data=[48, 0]),
   midi.NoteOnEvent(tick=0, channel=1, data=[40, 127]),
   midi.NoteOnEvent(tick=30, channel=1, data=[40, 0]),
   midi.NoteOnEvent(tick=0, channel=1, data=[40, 127]),
   midi.NoteOnEvent(tick=30, channel=1, data=[40, 0]),
   midi.NoteOnEvent(tick=0, channel=1, data=[40, 127]),
   midi.NoteOnEvent(tick=30, channel=1, data=[40, 0]),
   midi.NoteOnEvent(tick=0, channel=1, data=[40, 127]),
   midi.NoteOnEvent(tick=30, channel=1, data=[40, 0]),
   midi.NoteOnEvent(tick=0, channel=1, data=[40, 127]),
   midi.NoteOnEvent(tick=60, channel=1, data=[40, 0]),
   midi.NoteOnEvent(tick=0, channel=1, data=[40, 127]),
   midi.NoteOnEvent(tick=30, channel=1, data=[40, 0]),
   midi.NoteOnEvent(tick=0, channel=1, data=[40, 127]),
   midi.NoteOnEvent(tick=30, channel=1, data=[40, 0]),
   midi.NoteOnEvent(tick=0, channel=1, data=[41, 127]),
   midi.NoteOnEvent(tick=60, channel=1, data=[41, 0]),
   midi.NoteOnEvent(tick=0, channel=1, data=[41, 127]),
   midi.NoteOnEvent(tick=30, channel=1, data=[41, 0]),
   midi.NoteOnEvent(tick=0, channel=1, data=[41, 127]),
   midi.NoteOnEvent(tick=30, channel=1, data=[41, 0]),
   midi.NoteOnEvent(tick=0, channel=1, data=[40, 127]),
   midi.NoteOnEvent(tick=60, channel=1, data=[40, 0]),
   midi.NoteOnEvent(tick=0, channel=1, data=[40, 127]),
   midi.NoteOnEvent(tick=60, channel=1, data=[40, 0]),
   midi.NoteOnEvent(tick=0, channel=1, data=[40, 127]),
   midi.NoteOnEvent(tick=30, channel=1, data=[40, 0]),
   midi.NoteOnEvent(tick=0, channel=1, data=[40, 127]),
   midi.NoteOnEvent(tick=30, channel=1, data=[40, 0]),
   midi.NoteOnEvent(tick=0, channel=1, data=[60, 127]),
   midi.NoteOnEvent(tick=0, channel=1, data=[55, 127]),
   midi.NoteOnEvent(tick=0, channel=1, data=[48, 127]),
   midi.NoteOnEvent(tick=60, channel=1, data=[60, 0]),
   midi.NoteOnEvent(tick=0, channel=1, data=[55, 0]),
   midi.NoteOnEvent(tick=0, channel=1, data=[48, 0]),
   midi.NoteOnEvent(tick=0, channel=1, data=[40, 127]),
   midi.NoteOnEvent(tick=30, channel=1, data=[40, 0]),
   midi.NoteOnEvent(tick=0, channel=1, data=[40, 127]),
   midi.NoteOnEvent(tick=30, channel=1, data=[40, 0]),
   midi.NoteOnEvent(tick=0, channel=1, data=[40, 127]),
   midi.NoteOnEvent(tick=30, channel=1, data=[40, 0]),
   midi.NoteOnEvent(tick=0, channel=1, data=[40, 127]),
   midi.NoteOnEvent(tick=30, channel=1, data=[40, 0]),
   midi.NoteOnEvent(tick=0, channel=1, data=[59, 127]),
   midi.NoteOnEvent(tick=0, channel=1, data=[52, 127]),
   midi.NoteOnEvent(tick=0, channel=1, data=[47, 127]),
   midi.NoteOnEvent(tick=60, channel=1, data=[59, 0]),
   midi.NoteOnEvent(tick=0, channel=1, data=[52, 0]),
   midi.NoteOnEvent(tick=0, channel=1, data=[47, 0]),
   midi.NoteOnEvent(tick=0, channel=1, data=[40, 127]),
   midi.NoteOnEvent(tick=30, channel=1, data=[40, 0]),
   midi.NoteOnEvent(tick=0, channel=1, data=[40, 127]),
   midi.NoteOnEvent(tick=30, channel=1, data=[40, 0]),
   midi.NoteOnEvent(tick=0, channel=1, data=[40, 127]),
   midi.NoteOnEvent(tick=30, channel=1, data=[40, 0]),
   midi.NoteOnEvent(tick=0, channel=1, data=[40, 127]),
   midi.NoteOnEvent(tick=30, channel=1, data=[40, 0]),
   midi.NoteOnEvent(tick=0, channel=1, data=[57, 127]),
   midi.NoteOnEvent(tick=0, channel=1, data=[52, 127]),
   midi.NoteOnEvent(tick=0, channel=1, data=[45, 127]),
   midi.NoteOnEvent(tick=60, channel=1, data=[57, 0]),
   midi.NoteOnEvent(tick=0, channel=1, data=[52, 0]),
   midi.NoteOnEvent(tick=0, channel=1, data=[45, 0]),
   midi.NoteOnEvent(tick=0, channel=1, data=[40, 127]),
   midi.NoteOnEvent(tick=30, channel=1, data=[40, 0]),
   midi.NoteOnEvent(tick=0, channel=1, data=[40, 127]),
   midi.NoteOnEvent(tick=30, channel=1, data=[40, 0]),
   midi.NoteOnEvent(tick=0, channel=1, data=[40, 127]),
   midi.NoteOnEvent(tick=30, channel=1, data=[40, 0]),
   midi.NoteOnEvent(tick=0, channel=1, data=[40, 127]),
   midi.NoteOnEvent(tick=30, channel=1, data=[40, 0]),
   midi.NoteOnEvent(tick=0, channel=1, data=[40, 127]),
   midi.NoteOnEvent(tick=60, channel=1, data=[40, 0]),
   midi.NoteOnEvent(tick=0, channel=1, data=[40, 127]),
   midi.NoteOnEvent(tick=30, channel=1, data=[40, 0]),
   midi.NoteOnEvent(tick=0, channel=1, data=[40, 127]),
   midi.NoteOnEvent(tick=30, channel=1, data=[40, 0]),
   midi.NoteOnEvent(tick=0, channel=1, data=[41, 127]),
   midi.NoteOnEvent(tick=60, channel=1, data=[41, 0]),
   midi.NoteOnEvent(tick=0, channel=1, data=[41, 127]),
   midi.NoteOnEvent(tick=30, channel=1, data=[41, 0]),
   midi.NoteOnEvent(tick=0, channel=1, data=[41, 127]),
   midi.NoteOnEvent(tick=30, channel=1, data=[41, 0]),
   midi.NoteOnEvent(tick=0, channel=1, data=[40, 127]),
   midi.NoteOnEvent(tick=60, channel=1, data=[40, 0]),
   midi.NoteOnEvent(tick=0, channel=1, data=[40, 127]),
   midi.NoteOnEvent(tick=60, channel=1, data=[40, 0]),
   midi.NoteOnEvent(tick=0, channel=1, data=[40, 127]),
   midi.NoteOnEvent(tick=30, channel=1, data=[40, 0]),
   midi.NoteOnEvent(tick=0, channel=1, data=[40, 127]),
   midi.NoteOnEvent(tick=30, channel=1, data=[40, 0]),
   midi.NoteOnEvent(tick=0, channel=1, data=[57, 127]),
   midi.NoteOnEvent(tick=0, channel=1, data=[52, 127]),
   midi.NoteOnEvent(tick=0, channel=1, data=[45, 127]),
   midi.NoteOnEvent(tick=60, channel=1, data=[57, 0]),
   midi.NoteOnEvent(tick=0, channel=1, data=[52, 0]),
   midi.NoteOnEvent(tick=0, channel=1, data=[45, 0]),
   midi.NoteOnEvent(tick=0, channel=1, data=[40, 127]),
   midi.NoteOnEvent(tick=30, channel=1, data=[40, 0]),
   midi.NoteOnEvent(tick=0, channel=1, data=[40, 127]),
   midi.NoteOnEvent(tick=30, channel=1, data=[40, 0]),
   midi.NoteOnEvent(tick=0, channel=1, data=[40, 127]),
   midi.NoteOnEvent(tick=30, channel=1, data=[40, 0]),
   midi.NoteOnEvent(tick=0, channel=1, data=[40, 127]),
   midi.NoteOnEvent(tick=30, channel=1, data=[40, 0]),
   midi.NoteOnEvent(tick=0, channel=1, data=[59, 127]),
   midi.NoteOnEvent(tick=0, channel=1, data=[52, 127]),
   midi.NoteOnEvent(tick=0, channel=1, data=[47, 127]),
   midi.NoteOnEvent(tick=60, channel=1, data=[59, 0]),
   midi.NoteOnEvent(tick=0, channel=1, data=[52, 0]),
   midi.NoteOnEvent(tick=0, channel=1, data=[47, 0]),
   midi.NoteOnEvent(tick=0, channel=1, data=[40, 127]),
   midi.NoteOnEvent(tick=30, channel=1, data=[40, 0]),
   midi.NoteOnEvent(tick=0, channel=1, data=[40, 127]),
   midi.NoteOnEvent(tick=30, channel=1, data=[40, 0]),
   midi.NoteOnEvent(tick=0, channel=1, data=[40, 127]),
   midi.NoteOnEvent(tick=30, channel=1, data=[40, 0]),
   midi.NoteOnEvent(tick=0, channel=1, data=[40, 127]),
   midi.NoteOnEvent(tick=30, channel=1, data=[40, 0]),
   midi.NoteOnEvent(tick=0, channel=1, data=[60, 127]),
   midi.NoteOnEvent(tick=0, channel=1, data=[55, 127]),
   midi.NoteOnEvent(tick=0, channel=1, data=[48, 127]),
   midi.NoteOnEvent(tick=60, channel=1, data=[60, 0]),
   midi.NoteOnEvent(tick=0, channel=1, data=[55, 0]),
   midi.NoteOnEvent(tick=0, channel=1, data=[48, 0]),
   midi.NoteOnEvent(tick=0, channel=1, data=[40, 127]),
   midi.NoteOnEvent(tick=30, channel=1, data=[40, 0]),
   midi.NoteOnEvent(tick=0, channel=1, data=[40, 127]),
   midi.NoteOnEvent(tick=30, channel=1, data=[40, 0]),
   midi.NoteOnEvent(tick=0, channel=1, data=[40, 127]),
   midi.NoteOnEvent(tick=30, channel=1, data=[40, 0]),
   midi.NoteOnEvent(tick=0, channel=1, data=[40, 127]),
   midi.NoteOnEvent(tick=30, channel=1, data=[40, 0]),
   midi.NoteOnEvent(tick=0, channel=1, data=[40, 127]),
   midi.NoteOnEvent(tick=60, channel=1, data=[40, 0]),
   midi.NoteOnEvent(tick=0, channel=1, data=[40, 127]),
   midi.NoteOnEvent(tick=30, channel=1, data=[40, 0]),
   midi.NoteOnEvent(tick=0, channel=1, data=[40, 127]),
   midi.NoteOnEvent(tick=30, channel=1, data=[40, 0]),
   midi.NoteOnEvent(tick=0, channel=1, data=[41, 127]),
   midi.NoteOnEvent(tick=60, channel=1, data=[41, 0]),
   midi.NoteOnEvent(tick=0, channel=1, data=[41, 127]),
   midi.NoteOnEvent(tick=30, channel=1, data=[41, 0]),
   midi.NoteOnEvent(tick=0, channel=1, data=[41, 127]),
   midi.NoteOnEvent(tick=30, channel=1, data=[41, 0]),
   midi.NoteOnEvent(tick=0, channel=1, data=[40, 127]),
   midi.NoteOnEvent(tick=60, channel=1, data=[40, 0]),
   midi.ControlChangeEvent(tick=0, channel=1, data=[7, 99]),
   midi.NoteOnEvent(tick=0, channel=1, data=[40, 127]),
   midi.ControlChangeEvent(tick=58, channel=1, data=[7, 98]),
   midi.NoteOnEvent(tick=2, channel=1, data=[40, 0]),
   midi.NoteOnEvent(tick=0, channel=1, data=[40, 127]),
   midi.NoteOnEvent(tick=30, channel=1, data=[40, 0]),
   midi.NoteOnEvent(tick=0, channel=1, data=[40, 127]),
   midi.ControlChangeEvent(tick=26, channel=1, data=[7, 97]),
   midi.NoteOnEvent(tick=4, channel=1, data=[40, 0]),
   midi.NoteOnEvent(tick=0, channel=1, data=[60, 127]),
   midi.NoteOnEvent(tick=0, channel=1, data=[55, 127]),
   midi.NoteOnEvent(tick=0, channel=1, data=[48, 127]),
   midi.ControlChangeEvent(tick=55, channel=1, data=[7, 96]),
   midi.NoteOnEvent(tick=5, channel=1, data=[60, 0]),
   midi.NoteOnEvent(tick=0, channel=1, data=[55, 0]),
   midi.NoteOnEvent(tick=0, channel=1, data=[48, 0]),
   midi.NoteOnEvent(tick=0, channel=1, data=[40, 127]),
   midi.NoteOnEvent(tick=30, channel=1, data=[40, 0]),
   midi.NoteOnEvent(tick=0, channel=1, data=[40, 127]),
   midi.ControlChangeEvent(tick=23, channel=1, data=[7, 95]),
   midi.NoteOnEvent(tick=7, channel=1, data=[40, 0]),
   midi.NoteOnEvent(tick=0, channel=1, data=[40, 127]),
   midi.NoteOnEvent(tick=30, channel=1, data=[40, 0]),
   midi.NoteOnEvent(tick=0, channel=1, data=[40, 127]),
   midi.ControlChangeEvent(tick=21, channel=1, data=[7, 94]),
   midi.NoteOnEvent(tick=9, channel=1, data=[40, 0]),
   midi.NoteOnEvent(tick=0, channel=1, data=[59, 127]),
   midi.NoteOnEvent(tick=0, channel=1, data=[52, 127]),
   midi.NoteOnEvent(tick=0, channel=1, data=[47, 127]),
   midi.ControlChangeEvent(tick=49, channel=1, data=[7, 93]),
   midi.NoteOnEvent(tick=11, channel=1, data=[59, 0]),
   midi.NoteOnEvent(tick=0, channel=1, data=[52, 0]),
   midi.NoteOnEvent(tick=0, channel=1, data=[47, 0]),
   midi.NoteOnEvent(tick=0, channel=1, data=[40, 127]),
   midi.NoteOnEvent(tick=30, channel=1, data=[40, 0]),
   midi.NoteOnEvent(tick=0, channel=1, data=[40, 127]),
   midi.ControlChangeEvent(tick=17, channel=1, data=[7, 92]),
   midi.NoteOnEvent(tick=13, channel=1, data=[40, 0]),
   midi.NoteOnEvent(tick=0, channel=1, data=[40, 127]),
   midi.NoteOnEvent(tick=30, channel=1, data=[40, 0]),
   midi.NoteOnEvent(tick=0, channel=1, data=[40, 127]),
   midi.ControlChangeEvent(tick=15, channel=1, data=[7, 91]),
   midi.NoteOnEvent(tick=15, channel=1, data=[40, 0]),
   midi.NoteOnEvent(tick=0, channel=1, data=[57, 127]),
   midi.NoteOnEvent(tick=0, channel=1, data=[52, 127]),
   midi.NoteOnEvent(tick=0, channel=1, data=[45, 127]),
   midi.ControlChangeEvent(tick=44, channel=1, data=[7, 90]),
   midi.NoteOnEvent(tick=16, channel=1, data=[57, 0]),
   midi.NoteOnEvent(tick=0, channel=1, data=[52, 0]),
   midi.NoteOnEvent(tick=0, channel=1, data=[45, 0]),
   midi.NoteOnEvent(tick=0, channel=1, data=[40, 127]),
   midi.NoteOnEvent(tick=30, channel=1, data=[40, 0]),
   midi.NoteOnEvent(tick=0, channel=1, data=[40, 127]),
   midi.ControlChangeEvent(tick=12, channel=1, data=[7, 89]),
   midi.NoteOnEvent(tick=18, channel=1, data=[40, 0]),
   midi.NoteOnEvent(tick=0, channel=1, data=[40, 127]),
   midi.NoteOnEvent(tick=30, channel=1, data=[40, 0]),
   midi.NoteOnEvent(tick=0, channel=1, data=[40, 127]),
   midi.ControlChangeEvent(tick=10, channel=1, data=[7, 88]),
   midi.NoteOnEvent(tick=20, channel=1, data=[40, 0]),
   midi.NoteOnEvent(tick=0, channel=1, data=[40, 127]),
   midi.ControlChangeEvent(tick=38, channel=1, data=[7, 87]),
   midi.NoteOnEvent(tick=22, channel=1, data=[40, 0]),
   midi.NoteOnEvent(tick=0, channel=1, data=[40, 127]),
   midi.NoteOnEvent(tick=30, channel=1, data=[40, 0]),
   midi.NoteOnEvent(tick=0, channel=1, data=[40, 127]),
   midi.ControlChangeEvent(tick=6, channel=1, data=[7, 86]),
   midi.NoteOnEvent(tick=24, channel=1, data=[40, 0]),
   midi.NoteOnEvent(tick=0, channel=1, data=[41, 127]),
   midi.ControlChangeEvent(tick=34, channel=1, data=[7, 85]),
   midi.NoteOnEvent(tick=26, channel=1, data=[41, 0]),
   midi.NoteOnEvent(tick=0, channel=1, data=[41, 127]),
   midi.NoteOnEvent(tick=30, channel=1, data=[41, 0]),
   midi.NoteOnEvent(tick=0, channel=1, data=[41, 127]),
   midi.ControlChangeEvent(tick=3, channel=1, data=[7, 84]),
   midi.NoteOnEvent(tick=27, channel=1, data=[41, 0]),
   midi.NoteOnEvent(tick=0, channel=1, data=[40, 127]),
   midi.ControlChangeEvent(tick=31, channel=1, data=[7, 83]),
   midi.NoteOnEvent(tick=29, channel=1, data=[40, 0]),
   midi.NoteOnEvent(tick=0, channel=1, data=[40, 127]),
   midi.ControlChangeEvent(tick=29, channel=1, data=[7, 82]),
   midi.NoteOnEvent(tick=31, channel=1, data=[40, 0]),
   midi.NoteOnEvent(tick=0, channel=1, data=[40, 127]),
   midi.ControlChangeEvent(tick=27, channel=1, data=[7, 81]),
   midi.NoteOnEvent(tick=3, channel=1, data=[40, 0]),
   midi.NoteOnEvent(tick=0, channel=1, data=[40, 127]),
   midi.NoteOnEvent(tick=30, channel=1, data=[40, 0]),
   midi.NoteOnEvent(tick=0, channel=1, data=[57, 127]),
   midi.NoteOnEvent(tick=0, channel=1, data=[52, 127]),
   midi.NoteOnEvent(tick=0, channel=1, data=[45, 127]),
   midi.ControlChangeEvent(tick=25, channel=1, data=[7, 80]),
   midi.NoteOnEvent(tick=35, channel=1, data=[57, 0]),
   midi.NoteOnEvent(tick=0, channel=1, data=[52, 0]),
   midi.NoteOnEvent(tick=0, channel=1, data=[45, 0]),
   midi.NoteOnEvent(tick=0, channel=1, data=[40, 127]),
   midi.ControlChangeEvent(tick=23, channel=1, data=[7, 79]),
   midi.NoteOnEvent(tick=7, channel=1, data=[40, 0]),
   midi.NoteOnEvent(tick=0, channel=1, data=[40, 127]),
   midi.NoteOnEvent(tick=30, channel=1, data=[40, 0]),
   midi.NoteOnEvent(tick=0, channel=1, data=[40, 127]),
   midi.ControlChangeEvent(tick=22, channel=1, data=[7, 78]),
   midi.NoteOnEvent(tick=8, channel=1, data=[40, 0]),
   midi.NoteOnEvent(tick=0, channel=1, data=[40, 127]),
   midi.NoteOnEvent(tick=30, channel=1, data=[40, 0]),
   midi.NoteOnEvent(tick=0, channel=1, data=[59, 127]),
   midi.NoteOnEvent(tick=0, channel=1, data=[52, 127]),
   midi.NoteOnEvent(tick=0, channel=1, data=[47, 127]),
   midi.ControlChangeEvent(tick=20, channel=1, data=[7, 77]),
   midi.NoteOnEvent(tick=40, channel=1, data=[59, 0]),
   midi.NoteOnEvent(tick=0, channel=1, data=[52, 0]),
   midi.NoteOnEvent(tick=0, channel=1, data=[47, 0]),
   midi.NoteOnEvent(tick=0, channel=1, data=[40, 127]),
   midi.ControlChangeEvent(tick=18, channel=1, data=[7, 76]),
   midi.NoteOnEvent(tick=12, channel=1, data=[40, 0]),
   midi.NoteOnEvent(tick=0, channel=1, data=[40, 127]),
   midi.NoteOnEvent(tick=30, channel=1, data=[40, 0]),
   midi.NoteOnEvent(tick=0, channel=1, data=[40, 127]),
   midi.ControlChangeEvent(tick=16, channel=1, data=[7, 75]),
   midi.NoteOnEvent(tick=14, channel=1, data=[40, 0]),
   midi.NoteOnEvent(tick=0, channel=1, data=[40, 127]),
   midi.NoteOnEvent(tick=30, channel=1, data=[40, 0]),
   midi.NoteOnEvent(tick=0, channel=1, data=[60, 127]),
   midi.NoteOnEvent(tick=0, channel=1, data=[55, 127]),
   midi.NoteOnEvent(tick=0, channel=1, data=[48, 127]),
   midi.ControlChangeEvent(tick=14, channel=1, data=[7, 74]),
   midi.NoteOnEvent(tick=46, channel=1, data=[60, 0]),
   midi.NoteOnEvent(tick=0, channel=1, data=[55, 0]),
   midi.NoteOnEvent(tick=0, channel=1, data=[48, 0]),
   midi.NoteOnEvent(tick=0, channel=1, data=[40, 127]),
   midi.ControlChangeEvent(tick=12, channel=1, data=[7, 73]),
   midi.NoteOnEvent(tick=18, channel=1, data=[40, 0]),
   midi.NoteOnEvent(tick=0, channel=1, data=[40, 127]),
   midi.NoteOnEvent(tick=30, channel=1, data=[40, 0]),
   midi.NoteOnEvent(tick=0, channel=1, data=[40, 127]),
   midi.ControlChangeEvent(tick=11, channel=1, data=[7, 72]),
   midi.NoteOnEvent(tick=19, channel=1, data=[40, 0]),
   midi.NoteOnEvent(tick=0, channel=1, data=[40, 127]),
   midi.NoteOnEvent(tick=30, channel=1, data=[40, 0]),
   midi.NoteOnEvent(tick=0, channel=1, data=[40, 127]),
   midi.ControlChangeEvent(tick=9, channel=1, data=[7, 71]),
   midi.NoteOnEvent(tick=51, channel=1, data=[40, 0]),
   midi.NoteOnEvent(tick=0, channel=1, data=[40, 127]),
   midi.ControlChangeEvent(tick=7, channel=1, data=[7, 70]),
   midi.NoteOnEvent(tick=23, channel=1, data=[40, 0]),
   midi.NoteOnEvent(tick=0, channel=1, data=[40, 127]),
   midi.NoteOnEvent(tick=30, channel=1, data=[40, 0]),
   midi.NoteOnEvent(tick=0, channel=1, data=[41, 127]),
   midi.ControlChangeEvent(tick=5, channel=1, data=[7, 69]),
   midi.NoteOnEvent(tick=55, channel=1, data=[41, 0]),
   midi.NoteOnEvent(tick=0, channel=1, data=[41, 127]),
   midi.ControlChangeEvent(tick=3, channel=1, data=[7, 68]),
   midi.NoteOnEvent(tick=27, channel=1, data=[41, 0]),
   midi.NoteOnEvent(tick=0, channel=1, data=[41, 127]),
   midi.NoteOnEvent(tick=30, channel=1, data=[41, 0]),
   midi.NoteOnEvent(tick=0, channel=1, data=[40, 127]),
   midi.ControlChangeEvent(tick=1, channel=1, data=[7, 67]),
   midi.NoteOnEvent(tick=59, channel=1, data=[40, 0]),
   midi.ControlChangeEvent(tick=0, channel=1, data=[7, 66]),
   midi.NoteOnEvent(tick=0, channel=1, data=[40, 127]),
   midi.ControlChangeEvent(tick=58, channel=1, data=[7, 65]),
   midi.NoteOnEvent(tick=2, channel=1, data=[40, 0]),
   midi.NoteOnEvent(tick=0, channel=1, data=[40, 127]),
   midi.NoteOnEvent(tick=30, channel=1, data=[40, 0]),
   midi.NoteOnEvent(tick=0, channel=1, data=[40, 127]),
   midi.ControlChangeEvent(tick=26, channel=1, data=[7, 64]),
   midi.NoteOnEvent(tick=4, channel=1, data=[40, 0]),
   midi.NoteOnEvent(tick=0, channel=1, data=[60, 127]),
   midi.NoteOnEvent(tick=0, channel=1, data=[55, 127]),
   midi.NoteOnEvent(tick=0, channel=1, data=[48, 127]),
   midi.ControlChangeEvent(tick=54, channel=1, data=[7, 63]),
   midi.NoteOnEvent(tick=6, channel=1, data=[60, 0]),
   midi.NoteOnEvent(tick=0, channel=1, data=[55, 0]),
   midi.NoteOnEvent(tick=0, channel=1, data=[48, 0]),
   midi.NoteOnEvent(tick=0, channel=1, data=[40, 127]),
   midi.NoteOnEvent(tick=30, channel=1, data=[40, 0]),
   midi.NoteOnEvent(tick=0, channel=1, data=[40, 127]),
   midi.ControlChangeEvent(tick=22, channel=1, data=[7, 62]),
   midi.NoteOnEvent(tick=8, channel=1, data=[40, 0]),
   midi.NoteOnEvent(tick=0, channel=1, data=[40, 127]),
   midi.NoteOnEvent(tick=30, channel=1, data=[40, 0]),
   midi.NoteOnEvent(tick=0, channel=1, data=[40, 127]),
   midi.ControlChangeEvent(tick=21, channel=1, data=[7, 61]),
   midi.NoteOnEvent(tick=9, channel=1, data=[40, 0]),
   midi.NoteOnEvent(tick=0, channel=1, data=[59, 127]),
   midi.NoteOnEvent(tick=0, channel=1, data=[52, 127]),
   midi.NoteOnEvent(tick=0, channel=1, data=[47, 127]),
   midi.ControlChangeEvent(tick=49, channel=1, data=[7, 60]),
   midi.NoteOnEvent(tick=11, channel=1, data=[59, 0]),
   midi.NoteOnEvent(tick=0, channel=1, data=[52, 0]),
   midi.NoteOnEvent(tick=0, channel=1, data=[47, 0]),
   midi.NoteOnEvent(tick=0, channel=1, data=[40, 127]),
   midi.NoteOnEvent(tick=30, channel=1, data=[40, 0]),
   midi.NoteOnEvent(tick=0, channel=1, data=[40, 127]),
   midi.ControlChangeEvent(tick=17, channel=1, data=[7, 59]),
   midi.NoteOnEvent(tick=13, channel=1, data=[40, 0]),
   midi.NoteOnEvent(tick=0, channel=1, data=[40, 127]),
   midi.NoteOnEvent(tick=30, channel=1, data=[40, 0]),
   midi.NoteOnEvent(tick=0, channel=1, data=[40, 127]),
   midi.ControlChangeEvent(tick=15, channel=1, data=[7, 58]),
   midi.NoteOnEvent(tick=15, channel=1, data=[40, 0]),
   midi.NoteOnEvent(tick=0, channel=1, data=[57, 127]),
   midi.NoteOnEvent(tick=0, channel=1, data=[52, 127]),
   midi.NoteOnEvent(tick=0, channel=1, data=[45, 127]),
   midi.ControlChangeEvent(tick=43, channel=1, data=[7, 57]),
   midi.NoteOnEvent(tick=17, channel=1, data=[57, 0]),
   midi.NoteOnEvent(tick=0, channel=1, data=[52, 0]),
   midi.NoteOnEvent(tick=0, channel=1, data=[45, 0]),
   midi.NoteOnEvent(tick=0, channel=1, data=[40, 127]),
   midi.NoteOnEvent(tick=30, channel=1, data=[40, 0]),
   midi.NoteOnEvent(tick=0, channel=1, data=[40, 127]),
   midi.ControlChangeEvent(tick=11, channel=1, data=[7, 56]),
   midi.NoteOnEvent(tick=19, channel=1, data=[40, 0]),
   midi.NoteOnEvent(tick=0, channel=1, data=[40, 127]),
   midi.NoteOnEvent(tick=30, channel=1, data=[40, 0]),
   midi.NoteOnEvent(tick=0, channel=1, data=[40, 127]),
   midi.ControlChangeEvent(tick=10, channel=1, data=[7, 55]),
   midi.NoteOnEvent(tick=20, channel=1, data=[40, 0]),
   midi.NoteOnEvent(tick=0, channel=1, data=[40, 127]),
   midi.ControlChangeEvent(tick=38, channel=1, data=[7, 54]),
   midi.NoteOnEvent(tick=22, channel=1, data=[40, 0]),
   midi.NoteOnEvent(tick=0, channel=1, data=[40, 127]),
   midi.NoteOnEvent(tick=30, channel=1, data=[40, 0]),
   midi.NoteOnEvent(tick=0, channel=1, data=[40, 127]),
   midi.ControlChangeEvent(tick=6, channel=1, data=[7, 53]),
   midi.NoteOnEvent(tick=24, channel=1, data=[40, 0]),
   midi.NoteOnEvent(tick=0, channel=1, data=[41, 127]),
   midi.ControlChangeEvent(tick=34, channel=1, data=[7, 52]),
   midi.NoteOnEvent(tick=26, channel=1, data=[41, 0]),
   midi.NoteOnEvent(tick=0, channel=1, data=[41, 127]),
   midi.NoteOnEvent(tick=30, channel=1, data=[41, 0]),
   midi.NoteOnEvent(tick=0, channel=1, data=[41, 127]),
   midi.ControlChangeEvent(tick=2, channel=1, data=[7, 51]),
   midi.NoteOnEvent(tick=28, channel=1, data=[41, 0]),
   midi.NoteOnEvent(tick=0, channel=1, data=[40, 127]),
   midi.ControlChangeEvent(tick=30, channel=1, data=[7, 50]),
   midi.NoteOnEvent(tick=30, channel=1, data=[40, 0]),
   midi.NoteOnEvent(tick=0, channel=1, data=[40, 127]),
   midi.ControlChangeEvent(tick=29, channel=1, data=[7, 49]),
   midi.NoteOnEvent(tick=31, channel=1, data=[40, 0]),
   midi.NoteOnEvent(tick=0, channel=1, data=[40, 127]),
   midi.ControlChangeEvent(tick=27, channel=1, data=[7, 48]),
   midi.NoteOnEvent(tick=3, channel=1, data=[40, 0]),
   midi.NoteOnEvent(tick=0, channel=1, data=[40, 127]),
   midi.NoteOnEvent(tick=30, channel=1, data=[40, 0]),
   midi.NoteOnEvent(tick=0, channel=1, data=[57, 127]),
   midi.NoteOnEvent(tick=0, channel=1, data=[52, 127]),
   midi.NoteOnEvent(tick=0, channel=1, data=[45, 127]),
   midi.ControlChangeEvent(tick=25, channel=1, data=[7, 47]),
   midi.NoteOnEvent(tick=35, channel=1, data=[57, 0]),
   midi.NoteOnEvent(tick=0, channel=1, data=[52, 0]),
   midi.NoteOnEvent(tick=0, channel=1, data=[45, 0]),
   midi.NoteOnEvent(tick=0, channel=1, data=[40, 127]),
   midi.ControlChangeEvent(tick=23, channel=1, data=[7, 46]),
   midi.NoteOnEvent(tick=7, channel=1, data=[40, 0]),
   midi.NoteOnEvent(tick=0, channel=1, data=[40, 127]),
   midi.NoteOnEvent(tick=30, channel=1, data=[40, 0]),
   midi.NoteOnEvent(tick=0, channel=1, data=[40, 127]),
   midi.ControlChangeEvent(tick=21, channel=1, data=[7, 45]),
   midi.NoteOnEvent(tick=9, channel=1, data=[40, 0]),
   midi.NoteOnEvent(tick=0, channel=1, data=[40, 127]),
   midi.NoteOnEvent(tick=30, channel=1, data=[40, 0]),
   midi.NoteOnEvent(tick=0, channel=1, data=[59, 127]),
   midi.NoteOnEvent(tick=0, channel=1, data=[52, 127]),
   midi.NoteOnEvent(tick=0, channel=1, data=[47, 127]),
   midi.ControlChangeEvent(tick=19, channel=1, data=[7, 44]),
   midi.NoteOnEvent(tick=41, channel=1, data=[59, 0]),
   midi.NoteOnEvent(tick=0, channel=1, data=[52, 0]),
   midi.NoteOnEvent(tick=0, channel=1, data=[47, 0]),
   midi.NoteOnEvent(tick=0, channel=1, data=[40, 127]),
   midi.ControlChangeEvent(tick=18, channel=1, data=[7, 43]),
   midi.NoteOnEvent(tick=12, channel=1, data=[40, 0]),
   midi.NoteOnEvent(tick=0, channel=1, data=[40, 127]),
   midi.NoteOnEvent(tick=30, channel=1, data=[40, 0]),
   midi.NoteOnEvent(tick=0, channel=1, data=[40, 127]),
   midi.ControlChangeEvent(tick=16, channel=1, data=[7, 42]),
   midi.NoteOnEvent(tick=14, channel=1, data=[40, 0]),
   midi.NoteOnEvent(tick=0, channel=1, data=[40, 127]),
   midi.NoteOnEvent(tick=30, channel=1, data=[40, 0]),
   midi.NoteOnEvent(tick=0, channel=1, data=[60, 127]),
   midi.NoteOnEvent(tick=0, channel=1, data=[55, 127]),
   midi.NoteOnEvent(tick=0, channel=1, data=[48, 127]),
   midi.ControlChangeEvent(tick=14, channel=1, data=[7, 41]),
   midi.NoteOnEvent(tick=46, channel=1, data=[60, 0]),
   midi.NoteOnEvent(tick=0, channel=1, data=[55, 0]),
   midi.NoteOnEvent(tick=0, channel=1, data=[48, 0]),
   midi.NoteOnEvent(tick=0, channel=1, data=[40, 127]),
   midi.ControlChangeEvent(tick=12, channel=1, data=[7, 40]),
   midi.NoteOnEvent(tick=18, channel=1, data=[40, 0]),
   midi.NoteOnEvent(tick=0, channel=1, data=[40, 127]),
   midi.NoteOnEvent(tick=30, channel=1, data=[40, 0]),
   midi.NoteOnEvent(tick=0, channel=1, data=[40, 127]),
   midi.ControlChangeEvent(tick=10, channel=1, data=[7, 39]),
   midi.NoteOnEvent(tick=20, channel=1, data=[40, 0]),
   midi.NoteOnEvent(tick=0, channel=1, data=[40, 127]),
   midi.NoteOnEvent(tick=30, channel=1, data=[40, 0]),
   midi.NoteOnEvent(tick=0, channel=1, data=[40, 127]),
   midi.ControlChangeEvent(tick=8, channel=1, data=[7, 38]),
   midi.NoteOnEvent(tick=52, channel=1, data=[40, 0]),
   midi.NoteOnEvent(tick=0, channel=1, data=[40, 127]),
   midi.ControlChangeEvent(tick=7, channel=1, data=[7, 37]),
   midi.NoteOnEvent(tick=23, channel=1, data=[40, 0]),
   midi.NoteOnEvent(tick=0, channel=1, data=[40, 127]),
   midi.NoteOnEvent(tick=30, channel=1, data=[40, 0]),
   midi.NoteOnEvent(tick=0, channel=1, data=[41, 127]),
   midi.ControlChangeEvent(tick=5, channel=1, data=[7, 36]),
   midi.NoteOnEvent(tick=55, channel=1, data=[41, 0]),
   midi.NoteOnEvent(tick=0, channel=1, data=[41, 127]),
   midi.ControlChangeEvent(tick=3, channel=1, data=[7, 35]),
   midi.NoteOnEvent(tick=27, channel=1, data=[41, 0]),
   midi.NoteOnEvent(tick=0, channel=1, data=[41, 127]),
   midi.NoteOnEvent(tick=30, channel=1, data=[41, 0]),
   midi.NoteOnEvent(tick=0, channel=1, data=[40, 127]),
   midi.ControlChangeEvent(tick=1, channel=1, data=[7, 34]),
   midi.ControlChangeEvent(tick=58, channel=1, data=[7, 33]),
   midi.NoteOnEvent(tick=1, channel=1, data=[40, 0]),
   midi.NoteOnEvent(tick=0, channel=1, data=[40, 127]),
   midi.ControlChangeEvent(tick=58, channel=1, data=[7, 32]),
   midi.NoteOnEvent(tick=2, channel=1, data=[40, 0]),
   midi.NoteOnEvent(tick=0, channel=1, data=[40, 127]),
   midi.NoteOnEvent(tick=30, channel=1, data=[40, 0]),
   midi.NoteOnEvent(tick=0, channel=1, data=[40, 127]),
   midi.ControlChangeEvent(tick=26, channel=1, data=[7, 31]),
   midi.NoteOnEvent(tick=4, channel=1, data=[40, 0]),
   midi.NoteOnEvent(tick=0, channel=1, data=[60, 127]),
   midi.NoteOnEvent(tick=0, channel=1, data=[55, 127]),
   midi.NoteOnEvent(tick=0, channel=1, data=[48, 127]),
   midi.ControlChangeEvent(tick=54, channel=1, data=[7, 30]),
   midi.NoteOnEvent(tick=6, channel=1, data=[60, 0]),
   midi.NoteOnEvent(tick=0, channel=1, data=[55, 0]),
   midi.NoteOnEvent(tick=0, channel=1, data=[48, 0]),
   midi.NoteOnEvent(tick=0, channel=1, data=[40, 127]),
   midi.NoteOnEvent(tick=30, channel=1, data=[40, 0]),
   midi.NoteOnEvent(tick=0, channel=1, data=[40, 127]),
   midi.ControlChangeEvent(tick=22, channel=1, data=[7, 29]),
   midi.NoteOnEvent(tick=8, channel=1, data=[40, 0]),
   midi.NoteOnEvent(tick=0, channel=1, data=[40, 127]),
   midi.NoteOnEvent(tick=30, channel=1, data=[40, 0]),
   midi.NoteOnEvent(tick=0, channel=1, data=[40, 127]),
   midi.ControlChangeEvent(tick=20, channel=1, data=[7, 28]),
   midi.NoteOnEvent(tick=10, channel=1, data=[40, 0]),
   midi.NoteOnEvent(tick=0, channel=1, data=[59, 127]),
   midi.NoteOnEvent(tick=0, channel=1, data=[52, 127]),
   midi.NoteOnEvent(tick=0, channel=1, data=[47, 127]),
   midi.ControlChangeEvent(tick=48, channel=1, data=[7, 27]),
   midi.NoteOnEvent(tick=12, channel=1, data=[59, 0]),
   midi.NoteOnEvent(tick=0, channel=1, data=[52, 0]),
   midi.NoteOnEvent(tick=0, channel=1, data=[47, 0]),
   midi.NoteOnEvent(tick=0, channel=1, data=[40, 127]),
   midi.NoteOnEvent(tick=30, channel=1, data=[40, 0]),
   midi.NoteOnEvent(tick=0, channel=1, data=[40, 127]),
   midi.ControlChangeEvent(tick=17, channel=1, data=[7, 26]),
   midi.NoteOnEvent(tick=13, channel=1, data=[40, 0]),
   midi.NoteOnEvent(tick=0, channel=1, data=[40, 127]),
   midi.NoteOnEvent(tick=30, channel=1, data=[40, 0]),
   midi.NoteOnEvent(tick=0, channel=1, data=[40, 127]),
   midi.ControlChangeEvent(tick=15, channel=1, data=[7, 25]),
   midi.NoteOnEvent(tick=15, channel=1, data=[40, 0]),
   midi.NoteOnEvent(tick=0, channel=1, data=[57, 127]),
   midi.NoteOnEvent(tick=0, channel=1, data=[52, 127]),
   midi.NoteOnEvent(tick=0, channel=1, data=[45, 127]),
   midi.ControlChangeEvent(tick=43, channel=1, data=[7, 24]),
   midi.NoteOnEvent(tick=17, channel=1, data=[57, 0]),
   midi.NoteOnEvent(tick=0, channel=1, data=[52, 0]),
   midi.NoteOnEvent(tick=0, channel=1, data=[45, 0]),
   midi.NoteOnEvent(tick=0, channel=1, data=[40, 127]),
   midi.NoteOnEvent(tick=30, channel=1, data=[40, 0]),
   midi.NoteOnEvent(tick=0, channel=1, data=[40, 127]),
   midi.ControlChangeEvent(tick=11, channel=1, data=[7, 23]),
   midi.NoteOnEvent(tick=19, channel=1, data=[40, 0]),
   midi.NoteOnEvent(tick=0, channel=1, data=[40, 127]),
   midi.NoteOnEvent(tick=30, channel=1, data=[40, 0]),
   midi.NoteOnEvent(tick=0, channel=1, data=[40, 127]),
   midi.ControlChangeEvent(tick=9, channel=1, data=[7, 22]),
   midi.NoteOnEvent(tick=21, channel=1, data=[40, 0]),
   midi.NoteOnEvent(tick=0, channel=1, data=[40, 127]),
   midi.ControlChangeEvent(tick=37, channel=1, data=[7, 21]),
   midi.NoteOnEvent(tick=23, channel=1, data=[40, 0]),
   midi.NoteOnEvent(tick=0, channel=1, data=[40, 127]),
   midi.NoteOnEvent(tick=30, channel=1, data=[40, 0]),
   midi.NoteOnEvent(tick=0, channel=1, data=[40, 127]),
   midi.ControlChangeEvent(tick=6, channel=1, data=[7, 20]),
   midi.NoteOnEvent(tick=24, channel=1, data=[40, 0]),
   midi.NoteOnEvent(tick=0, channel=1, data=[41, 127]),
   midi.ControlChangeEvent(tick=34, channel=1, data=[7, 19]),
   midi.NoteOnEvent(tick=26, channel=1, data=[41, 0]),
   midi.NoteOnEvent(tick=0, channel=1, data=[41, 127]),
   midi.NoteOnEvent(tick=30, channel=1, data=[41, 0]),
   midi.NoteOnEvent(tick=0, channel=1, data=[41, 127]),
   midi.ControlChangeEvent(tick=2, channel=1, data=[7, 18]),
   midi.NoteOnEvent(tick=28, channel=1, data=[41, 0]),
   midi.NoteOnEvent(tick=0, channel=1, data=[40, 127]),
   midi.ControlChangeEvent(tick=30, channel=1, data=[7, 17]),
   midi.NoteOnEvent(tick=30, channel=1, data=[40, 0]),
   midi.NoteOnEvent(tick=0, channel=1, data=[40, 127]),
   midi.ControlChangeEvent(tick=28, channel=1, data=[7, 16]),
   midi.NoteOnEvent(tick=32, channel=1, data=[40, 0]),
   midi.NoteOnEvent(tick=0, channel=1, data=[40, 127]),
   midi.ControlChangeEvent(tick=26, channel=1, data=[7, 15]),
   midi.NoteOnEvent(tick=4, channel=1, data=[40, 0]),
   midi.NoteOnEvent(tick=0, channel=1, data=[40, 127]),
   midi.NoteOnEvent(tick=30, channel=1, data=[40, 0]),
   midi.NoteOnEvent(tick=0, channel=1, data=[57, 127]),
   midi.NoteOnEvent(tick=0, channel=1, data=[52, 127]),
   midi.NoteOnEvent(tick=0, channel=1, data=[45, 127]),
   midi.ControlChangeEvent(tick=25, channel=1, data=[7, 14]),
   midi.NoteOnEvent(tick=35, channel=1, data=[57, 0]),
   midi.NoteOnEvent(tick=0, channel=1, data=[52, 0]),
   midi.NoteOnEvent(tick=0, channel=1, data=[45, 0]),
   midi.NoteOnEvent(tick=0, channel=1, data=[40, 127]),
   midi.ControlChangeEvent(tick=23, channel=1, data=[7, 13]),
   midi.NoteOnEvent(tick=7, channel=1, data=[40, 0]),
   midi.NoteOnEvent(tick=0, channel=1, data=[40, 127]),
   midi.NoteOnEvent(tick=30, channel=1, data=[40, 0]),
   midi.NoteOnEvent(tick=0, channel=1, data=[40, 127]),
   midi.ControlChangeEvent(tick=21, channel=1, data=[7, 12]),
   midi.NoteOnEvent(tick=9, channel=1, data=[40, 0]),
   midi.NoteOnEvent(tick=0, channel=1, data=[40, 127]),
   midi.NoteOnEvent(tick=30, channel=1, data=[40, 0]),
   midi.NoteOnEvent(tick=0, channel=1, data=[59, 127]),
   midi.NoteOnEvent(tick=0, channel=1, data=[52, 127]),
   midi.NoteOnEvent(tick=0, channel=1, data=[47, 127]),
   midi.ControlChangeEvent(tick=19, channel=1, data=[7, 11]),
   midi.NoteOnEvent(tick=41, channel=1, data=[59, 0]),
   midi.NoteOnEvent(tick=0, channel=1, data=[52, 0]),
   midi.NoteOnEvent(tick=0, channel=1, data=[47, 0]),
   midi.NoteOnEvent(tick=0, channel=1, data=[40, 127]),
   midi.ControlChangeEvent(tick=17, channel=1, data=[7, 10]),
   midi.NoteOnEvent(tick=13, channel=1, data=[40, 0]),
   midi.NoteOnEvent(tick=0, channel=1, data=[40, 127]),
   midi.NoteOnEvent(tick=30, channel=1, data=[40, 0]),
   midi.NoteOnEvent(tick=0, channel=1, data=[40, 127]),
   midi.ControlChangeEvent(tick=15, channel=1, data=[7, 9]),
   midi.NoteOnEvent(tick=15, channel=1, data=[40, 0]),
   midi.NoteOnEvent(tick=0, channel=1, data=[40, 127]),
   midi.NoteOnEvent(tick=30, channel=1, data=[40, 0]),
   midi.NoteOnEvent(tick=0, channel=1, data=[60, 127]),
   midi.NoteOnEvent(tick=0, channel=1, data=[55, 127]),
   midi.NoteOnEvent(tick=0, channel=1, data=[48, 127]),
   midi.ControlChangeEvent(tick=14, channel=1, data=[7, 8]),
   midi.NoteOnEvent(tick=46, channel=1, data=[60, 0]),
   midi.NoteOnEvent(tick=0, channel=1, data=[55, 0]),
   midi.NoteOnEvent(tick=0, channel=1, data=[48, 0]),
   midi.NoteOnEvent(tick=0, channel=1, data=[40, 127]),
   midi.ControlChangeEvent(tick=12, channel=1, data=[7, 7]),
   midi.NoteOnEvent(tick=18, channel=1, data=[40, 0]),
   midi.NoteOnEvent(tick=0, channel=1, data=[40, 127]),
   midi.NoteOnEvent(tick=30, channel=1, data=[40, 0]),
   midi.NoteOnEvent(tick=0, channel=1, data=[40, 127]),
   midi.ControlChangeEvent(tick=10, channel=1, data=[7, 6]),
   midi.NoteOnEvent(tick=20, channel=1, data=[40, 0]),
   midi.NoteOnEvent(tick=0, channel=1, data=[40, 127]),
   midi.NoteOnEvent(tick=30, channel=1, data=[40, 0]),
   midi.NoteOnEvent(tick=0, channel=1, data=[40, 127]),
   midi.ControlChangeEvent(tick=8, channel=1, data=[7, 5]),
   midi.NoteOnEvent(tick=52, channel=1, data=[40, 0]),
   midi.NoteOnEvent(tick=0, channel=1, data=[40, 127]),
   midi.ControlChangeEvent(tick=6, channel=1, data=[7, 4]),
   midi.NoteOnEvent(tick=24, channel=1, data=[40, 0]),
   midi.NoteOnEvent(tick=0, channel=1, data=[40, 127]),
   midi.NoteOnEvent(tick=30, channel=1, data=[40, 0]),
   midi.NoteOnEvent(tick=0, channel=1, data=[41, 127]),
   midi.ControlChangeEvent(tick=4, channel=1, data=[7, 3]),
   midi.NoteOnEvent(tick=56, channel=1, data=[41, 0]),
   midi.NoteOnEvent(tick=0, channel=1, data=[41, 127]),
   midi.ControlChangeEvent(tick=3, channel=1, data=[7, 2]),
   midi.NoteOnEvent(tick=27, channel=1, data=[41, 0]),
   midi.NoteOnEvent(tick=0, channel=1, data=[41, 127]),
   midi.NoteOnEvent(tick=30, channel=1, data=[41, 0]),
   midi.NoteOnEvent(tick=0, channel=1, data=[40, 127]),
   midi.ControlChangeEvent(tick=1, channel=1, data=[7, 1]),
   midi.ControlChangeEvent(tick=58, channel=1, data=[7, 0]),
   midi.NoteOnEvent(tick=1, channel=1, data=[40, 0]),
   midi.EndOfTrackEvent(tick=0, data=[])]),
 midi.Track(\
  [midi.PortEvent(tick=0, data=[0]),
   midi.TrackNameEvent(tick=0, text='Guitar 3', data=[71, 117, 105, 116, 97, 114, 32, 51]),
   midi.ProgramChangeEvent(tick=0, channel=8, data=[29]),
   midi.ControlChangeEvent(tick=0, channel=8, data=[7, 99]),
   midi.ControlChangeEvent(tick=0, channel=2, data=[7, 30]),
   midi.ProgramChangeEvent(tick=0, channel=2, data=[29]),
   midi.ControlChangeEvent(tick=195, channel=2, data=[7, 31]),
   midi.ControlChangeEvent(tick=195, channel=2, data=[7, 32]),
   midi.ControlChangeEvent(tick=194, channel=2, data=[7, 33]),
   midi.ControlChangeEvent(tick=195, channel=2, data=[7, 34]),
   midi.ControlChangeEvent(tick=195, channel=2, data=[7, 35]),
   midi.ControlChangeEvent(tick=195, channel=2, data=[7, 36]),
   midi.ControlChangeEvent(tick=194, channel=2, data=[7, 37]),
   midi.ControlChangeEvent(tick=195, channel=2, data=[7, 38]),
   midi.ControlChangeEvent(tick=195, channel=2, data=[7, 39]),
   midi.ControlChangeEvent(tick=195, channel=2, data=[7, 40]),
   midi.ControlChangeEvent(tick=195, channel=2, data=[7, 41]),
   midi.ControlChangeEvent(tick=194, channel=2, data=[7, 42]),
   midi.ControlChangeEvent(tick=195, channel=2, data=[7, 43]),
   midi.ControlChangeEvent(tick=195, channel=2, data=[7, 44]),
   midi.ControlChangeEvent(tick=195, channel=2, data=[7, 45]),
   midi.ControlChangeEvent(tick=195, channel=2, data=[7, 46]),
   midi.ControlChangeEvent(tick=194, channel=2, data=[7, 47]),
   midi.ControlChangeEvent(tick=195, channel=2, data=[7, 48]),
   midi.ControlChangeEvent(tick=195, channel=2, data=[7, 49]),
   midi.ControlChangeEvent(tick=195, channel=2, data=[7, 50]),
   midi.ControlChangeEvent(tick=194, channel=2, data=[7, 51]),
   midi.ControlChangeEvent(tick=195, channel=2, data=[7, 52]),
   midi.ControlChangeEvent(tick=195, channel=2, data=[7, 53]),
   midi.ControlChangeEvent(tick=195, channel=2, data=[7, 54]),
   midi.ControlChangeEvent(tick=195, channel=2, data=[7, 55]),
   midi.ControlChangeEvent(tick=194, channel=2, data=[7, 56]),
   midi.ControlChangeEvent(tick=195, channel=2, data=[7, 57]),
   midi.ControlChangeEvent(tick=195, channel=2, data=[7, 58]),
   midi.ControlChangeEvent(tick=195, channel=2, data=[7, 59]),
   midi.ControlChangeEvent(tick=194, channel=2, data=[7, 60]),
   midi.ControlChangeEvent(tick=195, channel=2, data=[7, 61]),
   midi.ControlChangeEvent(tick=195, channel=2, data=[7, 62]),
   midi.ControlChangeEvent(tick=195, channel=2, data=[7, 63]),
   midi.ControlChangeEvent(tick=195, channel=2, data=[7, 64]),
   midi.ControlChangeEvent(tick=194, channel=2, data=[7, 65]),
   midi.ControlChangeEvent(tick=195, channel=2, data=[7, 66]),
   midi.ControlChangeEvent(tick=195, channel=2, data=[7, 67]),
   midi.ControlChangeEvent(tick=195, channel=2, data=[7, 68]),
   midi.ControlChangeEvent(tick=195, channel=2, data=[7, 69]),
   midi.ControlChangeEvent(tick=194, channel=2, data=[7, 70]),
   midi.ControlChangeEvent(tick=195, channel=2, data=[7, 71]),
   midi.ControlChangeEvent(tick=195, channel=2, data=[7, 72]),
   midi.ControlChangeEvent(tick=195, channel=2, data=[7, 73]),
   midi.ControlChangeEvent(tick=194, channel=2, data=[7, 74]),
   midi.ControlChangeEvent(tick=195, channel=2, data=[7, 75]),
   midi.ControlChangeEvent(tick=195, channel=2, data=[7, 76]),
   midi.ControlChangeEvent(tick=195, channel=2, data=[7, 77]),
   midi.ControlChangeEvent(tick=195, channel=2, data=[7, 78]),
   midi.ControlChangeEvent(tick=194, channel=2, data=[7, 79]),
   midi.ControlChangeEvent(tick=195, channel=2, data=[7, 80]),
   midi.ControlChangeEvent(tick=195, channel=2, data=[7, 81]),
   midi.ControlChangeEvent(tick=195, channel=2, data=[7, 82]),
   midi.ControlChangeEvent(tick=194, channel=2, data=[7, 83]),
   midi.ControlChangeEvent(tick=195, channel=2, data=[7, 84]),
   midi.ControlChangeEvent(tick=195, channel=2, data=[7, 85]),
   midi.ControlChangeEvent(tick=195, channel=2, data=[7, 86]),
   midi.ControlChangeEvent(tick=195, channel=2, data=[7, 87]),
   midi.ControlChangeEvent(tick=194, channel=2, data=[7, 88]),
   midi.ControlChangeEvent(tick=195, channel=2, data=[7, 89]),
   midi.ControlChangeEvent(tick=195, channel=2, data=[7, 90]),
   midi.ControlChangeEvent(tick=195, channel=2, data=[7, 91]),
   midi.ControlChangeEvent(tick=195, channel=2, data=[7, 92]),
   midi.ControlChangeEvent(tick=194, channel=2, data=[7, 93]),
   midi.ControlChangeEvent(tick=195, channel=2, data=[7, 94]),
   midi.ControlChangeEvent(tick=195, channel=2, data=[7, 95]),
   midi.ControlChangeEvent(tick=195, channel=2, data=[7, 96]),
   midi.ControlChangeEvent(tick=194, channel=2, data=[7, 97]),
   midi.ControlChangeEvent(tick=195, channel=2, data=[7, 98]),
   midi.ControlChangeEvent(tick=195, channel=2, data=[7, 99]),
   midi.NoteOnEvent(tick=36480, channel=2, data=[54, 127]),
   midi.NoteOnEvent(tick=60, channel=2, data=[54, 0]),
   midi.NoteOnEvent(tick=0, channel=2, data=[55, 127]),
   midi.NoteOnEvent(tick=60, channel=2, data=[55, 0]),
   midi.NoteOnEvent(tick=0, channel=2, data=[55, 127]),
   midi.NoteOnEvent(tick=60, channel=2, data=[55, 0]),
   midi.NoteOnEvent(tick=0, channel=2, data=[57, 127]),
   midi.NoteOnEvent(tick=60, channel=2, data=[57, 0]),
   midi.NoteOnEvent(tick=0, channel=2, data=[57, 127]),
   midi.NoteOnEvent(tick=60, channel=2, data=[57, 0]),
   midi.NoteOnEvent(tick=0, channel=2, data=[59, 127]),
   midi.NoteOnEvent(tick=60, channel=2, data=[59, 0]),
   midi.NoteOnEvent(tick=0, channel=2, data=[59, 127]),
   midi.NoteOnEvent(tick=60, channel=2, data=[59, 0]),
   midi.NoteOnEvent(tick=0, channel=2, data=[62, 127]),
   midi.NoteOnEvent(tick=60, channel=2, data=[62, 0]),
   midi.NoteOnEvent(tick=0, channel=2, data=[62, 127]),
   midi.NoteOnEvent(tick=60, channel=2, data=[62, 0]),
   midi.NoteOnEvent(tick=0, channel=2, data=[64, 127]),
   midi.NoteOnEvent(tick=60, channel=2, data=[64, 0]),
   midi.NoteOnEvent(tick=0, channel=2, data=[64, 127]),
   midi.NoteOnEvent(tick=60, channel=2, data=[64, 0]),
   midi.NoteOnEvent(tick=0, channel=2, data=[64, 127]),
   midi.NoteOnEvent(tick=120, channel=2, data=[64, 0]),
   midi.NoteOnEvent(tick=0, channel=2, data=[64, 127]),
   midi.NoteOnEvent(tick=60, channel=2, data=[64, 0]),
   midi.NoteOnEvent(tick=0, channel=2, data=[67, 127]),
   midi.NoteOnEvent(tick=60, channel=2, data=[67, 0]),
   midi.PitchWheelEvent(tick=0, channel=2, data=[0, 64]),
   midi.NoteOnEvent(tick=0, channel=2, data=[69, 127]),
   midi.PitchWheelEvent(tick=1, channel=2, data=[9, 65]),
   midi.PitchWheelEvent(tick=1, channel=2, data=[17, 66]),
   midi.PitchWheelEvent(tick=1, channel=2, data=[26, 67]),
   midi.PitchWheelEvent(tick=1, channel=2, data=[34, 68]),
   midi.PitchWheelEvent(tick=1, channel=2, data=[43, 69]),
   midi.PitchWheelEvent(tick=1, channel=2, data=[51, 70]),
   midi.PitchWheelEvent(tick=1, channel=2, data=[60, 71]),
   midi.PitchWheelEvent(tick=1, channel=2, data=[68, 72]),
   midi.PitchWheelEvent(tick=1, channel=2, data=[77, 73]),
   midi.PitchWheelEvent(tick=1, channel=2, data=[85, 74]),
   midi.PitchWheelEvent(tick=1, channel=2, data=[94, 75]),
   midi.PitchWheelEvent(tick=1, channel=2, data=[102, 76]),
   midi.PitchWheelEvent(tick=1, channel=2, data=[111, 77]),
   midi.PitchWheelEvent(tick=1, channel=2, data=[119, 78]),
   midi.PitchWheelEvent(tick=1, channel=2, data=[0, 80]),
   midi.PitchWheelEvent(tick=1, channel=2, data=[8, 81]),
   midi.PitchWheelEvent(tick=1, channel=2, data=[17, 82]),
   midi.PitchWheelEvent(tick=1, channel=2, data=[25, 83]),
   midi.PitchWheelEvent(tick=1, channel=2, data=[34, 84]),
   midi.PitchWheelEvent(tick=1, channel=2, data=[42, 85]),
   midi.PitchWheelEvent(tick=1, channel=2, data=[51, 86]),
   midi.PitchWheelEvent(tick=1, channel=2, data=[59, 87]),
   midi.PitchWheelEvent(tick=1, channel=2, data=[68, 88]),
   midi.PitchWheelEvent(tick=1, channel=2, data=[76, 89]),
   midi.PitchWheelEvent(tick=1, channel=2, data=[85, 90]),
   midi.PitchWheelEvent(tick=1, channel=2, data=[93, 91]),
   midi.PitchWheelEvent(tick=1, channel=2, data=[102, 92]),
   midi.PitchWheelEvent(tick=1, channel=2, data=[110, 93]),
   midi.PitchWheelEvent(tick=1, channel=2, data=[119, 94]),
   midi.PitchWheelEvent(tick=1, channel=2, data=[0, 96]),
   midi.PitchWheelEvent(tick=1, channel=2, data=[8, 97]),
   midi.PitchWheelEvent(tick=1, channel=2, data=[17, 98]),
   midi.PitchWheelEvent(tick=1, channel=2, data=[25, 99]),
   midi.PitchWheelEvent(tick=1, channel=2, data=[34, 100]),
   midi.PitchWheelEvent(tick=1, channel=2, data=[42, 101]),
   midi.PitchWheelEvent(tick=1, channel=2, data=[51, 102]),
   midi.PitchWheelEvent(tick=1, channel=2, data=[59, 103]),
   midi.PitchWheelEvent(tick=1, channel=2, data=[68, 104]),
   midi.PitchWheelEvent(tick=1, channel=2, data=[76, 105]),
   midi.PitchWheelEvent(tick=1, channel=2, data=[85, 106]),
   midi.PitchWheelEvent(tick=1, channel=2, data=[93, 107]),
   midi.PitchWheelEvent(tick=1, channel=2, data=[102, 108]),
   midi.PitchWheelEvent(tick=1, channel=2, data=[110, 109]),
   midi.PitchWheelEvent(tick=1, channel=2, data=[119, 110]),
   midi.PitchWheelEvent(tick=1, channel=2, data=[127, 111]),
   midi.PitchWheelEvent(tick=1, channel=2, data=[8, 113]),
   midi.PitchWheelEvent(tick=1, channel=2, data=[16, 114]),
   midi.PitchWheelEvent(tick=1, channel=2, data=[25, 115]),
   midi.PitchWheelEvent(tick=1, channel=2, data=[33, 116]),
   midi.PitchWheelEvent(tick=1, channel=2, data=[42, 117]),
   midi.PitchWheelEvent(tick=1, channel=2, data=[50, 118]),
   midi.PitchWheelEvent(tick=1, channel=2, data=[59, 119]),
   midi.PitchWheelEvent(tick=1, channel=2, data=[67, 120]),
   midi.PitchWheelEvent(tick=1, channel=2, data=[76, 121]),
   midi.PitchWheelEvent(tick=1, channel=2, data=[84, 122]),
   midi.PitchWheelEvent(tick=1, channel=2, data=[93, 123]),
   midi.PitchWheelEvent(tick=1, channel=2, data=[101, 124]),
   midi.PitchWheelEvent(tick=1, channel=2, data=[110, 125]),
   midi.PitchWheelEvent(tick=1, channel=2, data=[118, 126]),
   midi.PitchWheelEvent(tick=1, channel=2, data=[127, 127]),
   midi.NoteOnEvent(tick=120, channel=2, data=[69, 0]),
   midi.NoteOnEvent(tick=0, channel=2, data=[69, 127]),
   midi.ControlChangeEvent(tick=0, channel=2, data=[1, 0]),
   midi.NoteOnEvent(tick=60, channel=2, data=[69, 0]),
   midi.NoteOnEvent(tick=0, channel=2, data=[69, 127]),
   midi.NoteOnEvent(tick=60, channel=2, data=[69, 0]),
   midi.NoteOnEvent(tick=0, channel=2, data=[67, 127]),
   midi.NoteOnEvent(tick=60, channel=2, data=[67, 0]),
   midi.NoteOnEvent(tick=0, channel=2, data=[67, 127]),
   midi.NoteOnEvent(tick=60, channel=2, data=[67, 0]),
   midi.NoteOnEvent(tick=0, channel=2, data=[66, 127]),
   midi.NoteOnEvent(tick=55, channel=2, data=[66, 75]),
   midi.NoteOnEvent(tick=5, channel=2, data=[66, 0]),
   midi.NoteOnEvent(tick=0, channel=2, data=[66, 0]),
   midi.NoteOnEvent(tick=0, channel=2, data=[67, 127]),
   midi.NoteOnEvent(tick=120, channel=2, data=[67, 0]),
   midi.NoteOnEvent(tick=0, channel=2, data=[66, 127]),
   midi.NoteOnEvent(tick=60, channel=2, data=[66, 0]),
   midi.NoteOnEvent(tick=0, channel=2, data=[62, 127]),
   midi.NoteOnEvent(tick=240, channel=2, data=[62, 0]),
   midi.NoteOnEvent(tick=0, channel=2, data=[67, 127]),
   midi.NoteOnEvent(tick=60, channel=2, data=[67, 0]),
   midi.NoteOnEvent(tick=0, channel=2, data=[74, 127]),
   midi.NoteOnEvent(tick=60, channel=2, data=[74, 0]),
   midi.PitchWheelEvent(tick=0, channel=2, data=[0, 64]),
   midi.NoteOnEvent(tick=0, channel=8, data=[74, 127]),
   midi.NoteOnEvent(tick=0, channel=2, data=[69, 127]),
   midi.PitchWheelEvent(tick=1, channel=2, data=[51, 70]),
   midi.PitchWheelEvent(tick=1, channel=2, data=[102, 76]),
   midi.PitchWheelEvent(tick=1, channel=2, data=[25, 83]),
   midi.PitchWheelEvent(tick=1, channel=2, data=[76, 89]),
   midi.PitchWheelEvent(tick=1, channel=2, data=[0, 96]),
   midi.PitchWheelEvent(tick=1, channel=2, data=[51, 102]),
   midi.PitchWheelEvent(tick=1, channel=2, data=[102, 108]),
   midi.PitchWheelEvent(tick=1, channel=2, data=[25, 115]),
   midi.PitchWheelEvent(tick=1, channel=2, data=[76, 121]),
   midi.PitchWheelEvent(tick=1, channel=2, data=[127, 127]),
   midi.NoteOnEvent(tick=110, channel=8, data=[74, 0]),
   midi.NoteOnEvent(tick=0, channel=2, data=[69, 0]),
   midi.PitchWheelEvent(tick=0, channel=2, data=[0, 64]),
   midi.NoteOnEvent(tick=0, channel=2, data=[69, 127]),
   midi.PitchWheelEvent(tick=1, channel=2, data=[51, 70]),
   midi.PitchWheelEvent(tick=1, channel=2, data=[102, 76]),
   midi.PitchWheelEvent(tick=1, channel=2, data=[25, 83]),
   midi.PitchWheelEvent(tick=1, channel=2, data=[76, 89]),
   midi.PitchWheelEvent(tick=1, channel=2, data=[0, 96]),
   midi.PitchWheelEvent(tick=1, channel=2, data=[51, 102]),
   midi.PitchWheelEvent(tick=1, channel=2, data=[102, 108]),
   midi.PitchWheelEvent(tick=1, channel=2, data=[25, 115]),
   midi.PitchWheelEvent(tick=1, channel=2, data=[76, 121]),
   midi.PitchWheelEvent(tick=1, channel=2, data=[127, 127]),
   midi.NoteOnEvent(tick=50, channel=2, data=[69, 0]),
   midi.ControlChangeEvent(tick=0, channel=2, data=[1, 0]),
   midi.PitchWheelEvent(tick=0, channel=2, data=[0, 64]),
   midi.NoteOnEvent(tick=0, channel=2, data=[69, 127]),
   midi.ControlChangeEvent(tick=1, channel=2, data=[1, 6]),
   midi.ControlChangeEvent(tick=1, channel=2, data=[1, 13]),
   midi.ControlChangeEvent(tick=1, channel=2, data=[1, 19]),
   midi.ControlChangeEvent(tick=1, channel=2, data=[1, 26]),
   midi.ControlChangeEvent(tick=1, channel=2, data=[1, 32]),
   midi.ControlChangeEvent(tick=1, channel=2, data=[1, 38]),
   midi.ControlChangeEvent(tick=1, channel=2, data=[1, 45]),
   midi.ControlChangeEvent(tick=1, channel=2, data=[1, 51]),
   midi.ControlChangeEvent(tick=1, channel=2, data=[1, 58]),
   midi.ControlChangeEvent(tick=1, channel=2, data=[1, 64]),
   midi.NoteOnEvent(tick=170, channel=2, data=[69, 0]),
   midi.ControlChangeEvent(tick=0, channel=2, data=[1, 0]),
   midi.NoteOnEvent(tick=0, channel=2, data=[69, 127]),
   midi.NoteOnEvent(tick=60, channel=2, data=[69, 0]),
   midi.NoteOnEvent(tick=0, channel=2, data=[71, 127]),
   midi.NoteOnEvent(tick=60, channel=2, data=[71, 0]),
   midi.PitchWheelEvent(tick=0, channel=2, data=[0, 64]),
   midi.NoteOnEvent(tick=0, channel=2, data=[74, 127]),
   midi.PitchWheelEvent(tick=1, channel=2, data=[51, 70]),
   midi.PitchWheelEvent(tick=1, channel=2, data=[102, 76]),
   midi.PitchWheelEvent(tick=1, channel=2, data=[25, 83]),
   midi.PitchWheelEvent(tick=1, channel=2, data=[76, 89]),
   midi.PitchWheelEvent(tick=1, channel=2, data=[0, 96]),
   midi.PitchWheelEvent(tick=1, channel=2, data=[51, 102]),
   midi.PitchWheelEvent(tick=1, channel=2, data=[102, 108]),
   midi.PitchWheelEvent(tick=1, channel=2, data=[25, 115]),
   midi.PitchWheelEvent(tick=1, channel=2, data=[76, 121]),
   midi.PitchWheelEvent(tick=1, channel=2, data=[127, 127]),
   midi.NoteOnEvent(tick=50, channel=2, data=[74, 0]),
   midi.NoteOnEvent(tick=0, channel=2, data=[74, 127]),
   midi.NoteOnEvent(tick=30, channel=2, data=[74, 0]),
   midi.NoteOnEvent(tick=0, channel=2, data=[74, 127]),
   midi.NoteOnEvent(tick=30, channel=2, data=[74, 0]),
   midi.PitchWheelEvent(tick=0, channel=2, data=[0, 64]),
   midi.NoteOnEvent(tick=0, channel=2, data=[74, 127]),
   midi.PitchWheelEvent(tick=1, channel=2, data=[51, 70]),
   midi.PitchWheelEvent(tick=1, channel=2, data=[102, 76]),
   midi.PitchWheelEvent(tick=1, channel=2, data=[25, 83]),
   midi.PitchWheelEvent(tick=1, channel=2, data=[76, 89]),
   midi.PitchWheelEvent(tick=1, channel=2, data=[0, 96]),
   midi.PitchWheelEvent(tick=1, channel=2, data=[51, 102]),
   midi.PitchWheelEvent(tick=1, channel=2, data=[102, 108]),
   midi.PitchWheelEvent(tick=1, channel=2, data=[25, 115]),
   midi.PitchWheelEvent(tick=1, channel=2, data=[76, 121]),
   midi.PitchWheelEvent(tick=1, channel=2, data=[127, 127]),
   midi.NoteOnEvent(tick=50, channel=2, data=[74, 0]),
   midi.NoteOnEvent(tick=0, channel=2, data=[74, 127]),
   midi.NoteOnEvent(tick=30, channel=2, data=[74, 0]),
   midi.NoteOnEvent(tick=0, channel=2, data=[74, 127]),
   midi.NoteOnEvent(tick=30, channel=2, data=[74, 0]),
   midi.ControlChangeEvent(tick=0, channel=2, data=[1, 0]),
   midi.PitchWheelEvent(tick=0, channel=2, data=[0, 64]),
   midi.NoteOnEvent(tick=0, channel=2, data=[74, 127]),
   midi.ControlChangeEvent(tick=1, channel=2, data=[1, 6]),
   midi.PitchWheelEvent(tick=0, channel=2, data=[51, 70]),
   midi.ControlChangeEvent(tick=1, channel=2, data=[1, 13]),
   midi.PitchWheelEvent(tick=0, channel=2, data=[102, 76]),
   midi.ControlChangeEvent(tick=1, channel=2, data=[1, 19]),
   midi.PitchWheelEvent(tick=0, channel=2, data=[25, 83]),
   midi.ControlChangeEvent(tick=1, channel=2, data=[1, 26]),
   midi.PitchWheelEvent(tick=0, channel=2, data=[76, 89]),
   midi.ControlChangeEvent(tick=1, channel=2, data=[1, 32]),
   midi.PitchWheelEvent(tick=0, channel=2, data=[0, 96]),
   midi.ControlChangeEvent(tick=1, channel=2, data=[1, 38]),
   midi.PitchWheelEvent(tick=0, channel=2, data=[51, 102]),
   midi.ControlChangeEvent(tick=1, channel=2, data=[1, 45]),
   midi.PitchWheelEvent(tick=0, channel=2, data=[102, 108]),
   midi.ControlChangeEvent(tick=1, channel=2, data=[1, 51]),
   midi.PitchWheelEvent(tick=0, channel=2, data=[25, 115]),
   midi.ControlChangeEvent(tick=1, channel=2, data=[1, 58]),
   midi.PitchWheelEvent(tick=0, channel=2, data=[76, 121]),
   midi.ControlChangeEvent(tick=1, channel=2, data=[1, 64]),
   midi.PitchWheelEvent(tick=0, channel=2, data=[127, 127]),
   midi.NoteOnEvent(tick=110, channel=2, data=[74, 0]),
   midi.PitchWheelEvent(tick=0, channel=2, data=[0, 64]),
   midi.ControlChangeEvent(tick=0, channel=2, data=[1, 0]),
   midi.NoteOnEvent(tick=0, channel=2, data=[74, 127]),
   midi.NoteOnEvent(tick=60, channel=2, data=[74, 0]),
   midi.NoteOnEvent(tick=0, channel=2, data=[76, 127]),
   midi.NoteOnEvent(tick=60, channel=2, data=[76, 0]),
   midi.NoteOnEvent(tick=0, channel=2, data=[79, 127]),
   midi.NoteOnEvent(tick=30, channel=2, data=[79, 0]),
   midi.NoteOnEvent(tick=0, channel=2, data=[78, 127]),
   midi.NoteOnEvent(tick=30, channel=2, data=[78, 0]),
   midi.NoteOnEvent(tick=0, channel=2, data=[76, 127]),
   midi.NoteOnEvent(tick=30, channel=2, data=[76, 0]),
   midi.NoteOnEvent(tick=0, channel=2, data=[79, 127]),
   midi.NoteOnEvent(tick=30, channel=2, data=[79, 0]),
   midi.NoteOnEvent(tick=0, channel=2, data=[78, 127]),
   midi.NoteOnEvent(tick=30, channel=2, data=[78, 0]),
   midi.NoteOnEvent(tick=0, channel=2, data=[76, 127]),
   midi.NoteOnEvent(tick=30, channel=2, data=[76, 0]),
   midi.NoteOnEvent(tick=0, channel=2, data=[79, 127]),
   midi.NoteOnEvent(tick=20, channel=2, data=[79, 0]),
   midi.NoteOnEvent(tick=0, channel=2, data=[78, 127]),
   midi.NoteOnEvent(tick=20, channel=2, data=[78, 0]),
   midi.NoteOnEvent(tick=0, channel=2, data=[76, 127]),
   midi.NoteOnEvent(tick=20, channel=2, data=[76, 0]),
   midi.NoteOnEvent(tick=0, channel=2, data=[79, 127]),
   midi.NoteOnEvent(tick=30, channel=2, data=[79, 0]),
   midi.NoteOnEvent(tick=0, channel=2, data=[78, 127]),
   midi.NoteOnEvent(tick=30, channel=2, data=[78, 0]),
   midi.NoteOnEvent(tick=0, channel=2, data=[76, 127]),
   midi.NoteOnEvent(tick=30, channel=2, data=[76, 0]),
   midi.NoteOnEvent(tick=0, channel=2, data=[79, 127]),
   midi.NoteOnEvent(tick=15, channel=2, data=[79, 0]),
   midi.NoteOnEvent(tick=0, channel=2, data=[78, 127]),
   midi.NoteOnEvent(tick=15, channel=2, data=[78, 0]),
   midi.NoteOnEvent(tick=0, channel=2, data=[76, 127]),
   midi.NoteOnEvent(tick=30, channel=2, data=[76, 0]),
   midi.NoteOnEvent(tick=0, channel=2, data=[79, 127]),
   midi.NoteOnEvent(tick=30, channel=2, data=[79, 0]),
   midi.NoteOnEvent(tick=0, channel=2, data=[76, 127]),
   midi.NoteOnEvent(tick=60, channel=2, data=[76, 0]),
   midi.PitchWheelEvent(tick=0, channel=2, data=[0, 64]),
   midi.NoteOnEvent(tick=0, channel=2, data=[81, 127]),
   midi.PitchWheelEvent(tick=1, channel=2, data=[51, 70]),
   midi.PitchWheelEvent(tick=1, channel=2, data=[102, 76]),
   midi.PitchWheelEvent(tick=1, channel=2, data=[25, 83]),
   midi.PitchWheelEvent(tick=1, channel=2, data=[76, 89]),
   midi.PitchWheelEvent(tick=1, channel=2, data=[0, 96]),
   midi.PitchWheelEvent(tick=1, channel=2, data=[51, 102]),
   midi.PitchWheelEvent(tick=1, channel=2, data=[102, 108]),
   midi.PitchWheelEvent(tick=1, channel=2, data=[25, 115]),
   midi.PitchWheelEvent(tick=1, channel=2, data=[76, 121]),
   midi.PitchWheelEvent(tick=1, channel=2, data=[127, 127]),
   midi.NoteOnEvent(tick=110, channel=2, data=[81, 0]),
   midi.PitchWheelEvent(tick=0, channel=2, data=[0, 64]),
   midi.NoteOnEvent(tick=0, channel=2, data=[81, 127]),
   midi.PitchWheelEvent(tick=1, channel=2, data=[51, 70]),
   midi.PitchWheelEvent(tick=1, channel=2, data=[102, 76]),
   midi.PitchWheelEvent(tick=1, channel=2, data=[25, 83]),
   midi.PitchWheelEvent(tick=1, channel=2, data=[76, 89]),
   midi.PitchWheelEvent(tick=1, channel=2, data=[0, 96]),
   midi.PitchWheelEvent(tick=1, channel=2, data=[51, 102]),
   midi.PitchWheelEvent(tick=1, channel=2, data=[102, 108]),
   midi.PitchWheelEvent(tick=1, channel=2, data=[25, 115]),
   midi.PitchWheelEvent(tick=1, channel=2, data=[76, 121]),
   midi.PitchWheelEvent(tick=1, channel=2, data=[127, 127]),
   midi.NoteOnEvent(tick=110, channel=2, data=[81, 0]),
   midi.PitchWheelEvent(tick=0, channel=2, data=[0, 64]),
   midi.NoteOnEvent(tick=0, channel=2, data=[81, 127]),
   midi.PitchWheelEvent(tick=1, channel=2, data=[51, 70]),
   midi.PitchWheelEvent(tick=1, channel=2, data=[102, 76]),
   midi.PitchWheelEvent(tick=1, channel=2, data=[25, 83]),
   midi.PitchWheelEvent(tick=1, channel=2, data=[76, 89]),
   midi.PitchWheelEvent(tick=1, channel=2, data=[0, 96]),
   midi.PitchWheelEvent(tick=1, channel=2, data=[51, 102]),
   midi.PitchWheelEvent(tick=1, channel=2, data=[102, 108]),
   midi.PitchWheelEvent(tick=1, channel=2, data=[25, 115]),
   midi.PitchWheelEvent(tick=1, channel=2, data=[76, 121]),
   midi.PitchWheelEvent(tick=1, channel=2, data=[127, 127]),
   midi.NoteOnEvent(tick=50, channel=2, data=[81, 0]),
   midi.ControlChangeEvent(tick=0, channel=2, data=[1, 0]),
   midi.NoteOnEvent(tick=0, channel=2, data=[81, 127]),
   midi.ControlChangeEvent(tick=1, channel=2, data=[1, 6]),
   midi.ControlChangeEvent(tick=1, channel=2, data=[1, 13]),
   midi.ControlChangeEvent(tick=1, channel=2, data=[1, 19]),
   midi.ControlChangeEvent(tick=1, channel=2, data=[1, 26]),
   midi.ControlChangeEvent(tick=1, channel=2, data=[1, 32]),
   midi.ControlChangeEvent(tick=1, channel=2, data=[1, 38]),
   midi.ControlChangeEvent(tick=1, channel=2, data=[1, 45]),
   midi.ControlChangeEvent(tick=1, channel=2, data=[1, 51]),
   midi.ControlChangeEvent(tick=1, channel=2, data=[1, 58]),
   midi.ControlChangeEvent(tick=1, channel=2, data=[1, 64]),
   midi.NoteOnEvent(tick=50, channel=2, data=[81, 0]),
   midi.ControlChangeEvent(tick=60, channel=2, data=[1, 0]),
   midi.PitchWheelEvent(tick=0, channel=2, data=[0, 64]),
   midi.NoteOnEvent(tick=0, channel=2, data=[76, 127]),
   midi.PitchWheelEvent(tick=1, channel=2, data=[51, 70]),
   midi.PitchWheelEvent(tick=1, channel=2, data=[102, 76]),
   midi.PitchWheelEvent(tick=1, channel=2, data=[25, 83]),
   midi.PitchWheelEvent(tick=1, channel=2, data=[76, 89]),
   midi.PitchWheelEvent(tick=1, channel=2, data=[0, 96]),
   midi.PitchWheelEvent(tick=1, channel=2, data=[51, 102]),
   midi.PitchWheelEvent(tick=1, channel=2, data=[102, 108]),
   midi.PitchWheelEvent(tick=1, channel=2, data=[25, 115]),
   midi.PitchWheelEvent(tick=1, channel=2, data=[76, 121]),
   midi.PitchWheelEvent(tick=1, channel=2, data=[127, 127]),
   midi.NoteOnEvent(tick=170, channel=2, data=[76, 0]),
   midi.PitchWheelEvent(tick=0, channel=2, data=[0, 64]),
   midi.NoteOnEvent(tick=0, channel=2, data=[76, 127]),
   midi.PitchWheelEvent(tick=1, channel=2, data=[51, 70]),
   midi.PitchWheelEvent(tick=1, channel=2, data=[102, 76]),
   midi.PitchWheelEvent(tick=1, channel=2, data=[25, 83]),
   midi.PitchWheelEvent(tick=1, channel=2, data=[76, 89]),
   midi.PitchWheelEvent(tick=1, channel=2, data=[0, 96]),
   midi.PitchWheelEvent(tick=1, channel=2, data=[51, 102]),
   midi.PitchWheelEvent(tick=1, channel=2, data=[102, 108]),
   midi.PitchWheelEvent(tick=1, channel=2, data=[25, 115]),
   midi.PitchWheelEvent(tick=1, channel=2, data=[76, 121]),
   midi.PitchWheelEvent(tick=1, channel=2, data=[127, 127]),
   midi.NoteOnEvent(tick=110, channel=2, data=[76, 0]),
   midi.PitchWheelEvent(tick=0, channel=2, data=[0, 64]),
   midi.NoteOnEvent(tick=0, channel=2, data=[76, 127]),
   midi.NoteOnEvent(tick=30, channel=2, data=[76, 0]),
   midi.NoteOnEvent(tick=0, channel=2, data=[74, 127]),
   midi.NoteOnEvent(tick=30, channel=2, data=[74, 0]),
   midi.NoteOnEvent(tick=0, channel=2, data=[71, 127]),
   midi.NoteOnEvent(tick=60, channel=2, data=[71, 0]),
   midi.NoteOnEvent(tick=0, channel=2, data=[74, 127]),
   midi.NoteOnEvent(tick=60, channel=2, data=[74, 0]),
   midi.PitchWheelEvent(tick=0, channel=2, data=[0, 64]),
   midi.NoteOnEvent(tick=0, channel=2, data=[76, 127]),
   midi.PitchWheelEvent(tick=1, channel=2, data=[51, 70]),
   midi.PitchWheelEvent(tick=1, channel=2, data=[102, 76]),
   midi.PitchWheelEvent(tick=1, channel=2, data=[25, 83]),
   midi.PitchWheelEvent(tick=1, channel=2, data=[76, 89]),
   midi.PitchWheelEvent(tick=1, channel=2, data=[0, 96]),
   midi.PitchWheelEvent(tick=1, channel=2, data=[51, 102]),
   midi.PitchWheelEvent(tick=1, channel=2, data=[102, 108]),
   midi.PitchWheelEvent(tick=1, channel=2, data=[25, 115]),
   midi.PitchWheelEvent(tick=1, channel=2, data=[76, 121]),
   midi.PitchWheelEvent(tick=1, channel=2, data=[127, 127]),
   midi.NoteOnEvent(tick=110, channel=2, data=[76, 0]),
   midi.PitchWheelEvent(tick=0, channel=2, data=[0, 64]),
   midi.NoteOnEvent(tick=0, channel=2, data=[76, 127]),
   midi.NoteOnEvent(tick=60, channel=2, data=[76, 0]),
   midi.NoteOnEvent(tick=0, channel=2, data=[76, 127]),
   midi.NoteOnEvent(tick=30, channel=2, data=[76, 0]),
   midi.NoteOnEvent(tick=0, channel=2, data=[74, 127]),
   midi.NoteOnEvent(tick=30, channel=2, data=[74, 0]),
   midi.NoteOnEvent(tick=0, channel=2, data=[71, 127]),
   midi.NoteOnEvent(tick=60, channel=2, data=[71, 0]),
   midi.NoteOnEvent(tick=0, channel=2, data=[74, 127]),
   midi.NoteOnEvent(tick=60, channel=2, data=[74, 0]),
   midi.ControlChangeEvent(tick=0, channel=2, data=[1, 0]),
   midi.NoteOnEvent(tick=0, channel=2, data=[71, 127]),
   midi.ControlChangeEvent(tick=1, channel=2, data=[1, 6]),
   midi.ControlChangeEvent(tick=1, channel=2, data=[1, 13]),
   midi.ControlChangeEvent(tick=1, channel=2, data=[1, 19]),
   midi.ControlChangeEvent(tick=1, channel=2, data=[1, 26]),
   midi.ControlChangeEvent(tick=1, channel=2, data=[1, 32]),
   midi.ControlChangeEvent(tick=1, channel=2, data=[1, 38]),
   midi.ControlChangeEvent(tick=1, channel=2, data=[1, 45]),
   midi.ControlChangeEvent(tick=1, channel=2, data=[1, 51]),
   midi.ControlChangeEvent(tick=1, channel=2, data=[1, 58]),
   midi.ControlChangeEvent(tick=1, channel=2, data=[1, 64]),
   midi.ControlChangeEvent(tick=169, channel=2, data=[1, 0]),
   midi.NoteOnEvent(tick=1, channel=2, data=[71, 0]),
   midi.NoteOnEvent(tick=0, channel=2, data=[71, 127]),
   midi.NoteOnEvent(tick=30, channel=2, data=[71, 0]),
   midi.NoteOnEvent(tick=0, channel=2, data=[74, 127]),
   midi.NoteOnEvent(tick=30, channel=2, data=[74, 0]),
   midi.NoteOnEvent(tick=0, channel=2, data=[78, 127]),
   midi.NoteOnEvent(tick=30, channel=2, data=[78, 0]),
   midi.NoteOnEvent(tick=0, channel=2, data=[71, 127]),
   midi.NoteOnEvent(tick=30, channel=2, data=[71, 0]),
   midi.NoteOnEvent(tick=0, channel=2, data=[74, 127]),
   midi.NoteOnEvent(tick=30, channel=2, data=[74, 0]),
   midi.NoteOnEvent(tick=0, channel=2, data=[78, 127]),
   midi.NoteOnEvent(tick=30, channel=2, data=[78, 0]),
   midi.NoteOnEvent(tick=0, channel=2, data=[71, 127]),
   midi.NoteOnEvent(tick=30, channel=2, data=[71, 0]),
   midi.NoteOnEvent(tick=0, channel=2, data=[74, 127]),
   midi.NoteOnEvent(tick=30, channel=2, data=[74, 0]),
   midi.NoteOnEvent(tick=0, channel=2, data=[78, 127]),
   midi.NoteOnEvent(tick=30, channel=2, data=[78, 0]),
   midi.NoteOnEvent(tick=0, channel=2, data=[71, 127]),
   midi.NoteOnEvent(tick=30, channel=2, data=[71, 0]),
   midi.NoteOnEvent(tick=0, channel=2, data=[74, 127]),
   midi.NoteOnEvent(tick=30, channel=2, data=[74, 0]),
   midi.NoteOnEvent(tick=0, channel=2, data=[78, 127]),
   midi.NoteOnEvent(tick=30, channel=2, data=[78, 0]),
   midi.NoteOnEvent(tick=0, channel=2, data=[71, 127]),
   midi.NoteOnEvent(tick=30, channel=2, data=[71, 0]),
   midi.NoteOnEvent(tick=0, channel=2, data=[74, 127]),
   midi.NoteOnEvent(tick=30, channel=2, data=[74, 0]),
   midi.NoteOnEvent(tick=0, channel=2, data=[78, 127]),
   midi.NoteOnEvent(tick=60, channel=2, data=[78, 0]),
   midi.PitchWheelEvent(tick=0, channel=2, data=[0, 64]),
   midi.NoteOnEvent(tick=0, channel=2, data=[81, 127]),
   midi.PitchWheelEvent(tick=1, channel=2, data=[51, 70]),
   midi.PitchWheelEvent(tick=1, channel=2, data=[102, 76]),
   midi.PitchWheelEvent(tick=1, channel=2, data=[25, 83]),
   midi.PitchWheelEvent(tick=1, channel=2, data=[76, 89]),
   midi.PitchWheelEvent(tick=1, channel=2, data=[0, 96]),
   midi.PitchWheelEvent(tick=1, channel=2, data=[51, 102]),
   midi.PitchWheelEvent(tick=1, channel=2, data=[102, 108]),
   midi.PitchWheelEvent(tick=1, channel=2, data=[25, 115]),
   midi.PitchWheelEvent(tick=1, channel=2, data=[76, 121]),
   midi.PitchWheelEvent(tick=1, channel=2, data=[127, 127]),
   midi.NoteOnEvent(tick=110, channel=2, data=[81, 0]),
   midi.PitchWheelEvent(tick=0, channel=2, data=[0, 64]),
   midi.NoteOnEvent(tick=0, channel=2, data=[81, 127]),
   midi.PitchWheelEvent(tick=1, channel=2, data=[51, 70]),
   midi.PitchWheelEvent(tick=1, channel=2, data=[102, 76]),
   midi.PitchWheelEvent(tick=1, channel=2, data=[25, 83]),
   midi.PitchWheelEvent(tick=1, channel=2, data=[76, 89]),
   midi.PitchWheelEvent(tick=1, channel=2, data=[0, 96]),
   midi.PitchWheelEvent(tick=1, channel=2, data=[51, 102]),
   midi.PitchWheelEvent(tick=1, channel=2, data=[102, 108]),
   midi.PitchWheelEvent(tick=1, channel=2, data=[25, 115]),
   midi.PitchWheelEvent(tick=1, channel=2, data=[76, 121]),
   midi.PitchWheelEvent(tick=1, channel=2, data=[127, 127]),
   midi.NoteOnEvent(tick=50, channel=2, data=[81, 0]),
   midi.ControlChangeEvent(tick=0, channel=2, data=[1, 0]),
   midi.NoteOnEvent(tick=0, channel=2, data=[81, 127]),
   midi.ControlChangeEvent(tick=1, channel=2, data=[1, 6]),
   midi.ControlChangeEvent(tick=1, channel=2, data=[1, 13]),
   midi.ControlChangeEvent(tick=1, channel=2, data=[1, 19]),
   midi.ControlChangeEvent(tick=1, channel=2, data=[1, 26]),
   midi.ControlChangeEvent(tick=1, channel=2, data=[1, 32]),
   midi.ControlChangeEvent(tick=1, channel=2, data=[1, 38]),
   midi.ControlChangeEvent(tick=1, channel=2, data=[1, 45]),
   midi.ControlChangeEvent(tick=1, channel=2, data=[1, 51]),
   midi.ControlChangeEvent(tick=1, channel=2, data=[1, 58]),
   midi.ControlChangeEvent(tick=1, channel=2, data=[1, 64]),
   midi.NoteOnEvent(tick=170, channel=2, data=[81, 0]),
   midi.ControlChangeEvent(tick=0, channel=2, data=[1, 0]),
   midi.NoteOnEvent(tick=0, channel=2, data=[78, 127]),
   midi.NoteOnEvent(tick=60, channel=2, data=[78, 0]),
   midi.NoteOnEvent(tick=0, channel=2, data=[79, 127]),
   midi.NoteOnEvent(tick=60, channel=2, data=[79, 0]),
   midi.NoteOnEvent(tick=0, channel=2, data=[81, 127]),
   midi.NoteOnEvent(tick=60, channel=2, data=[81, 0]),
   midi.NoteOnEvent(tick=0, channel=2, data=[79, 127]),
   midi.NoteOnEvent(tick=60, channel=2, data=[79, 0]),
   midi.NoteOnEvent(tick=0, channel=2, data=[78, 127]),
   midi.NoteOnEvent(tick=60, channel=2, data=[78, 0]),
   midi.NoteOnEvent(tick=0, channel=2, data=[79, 127]),
   midi.NoteOnEvent(tick=60, channel=2, data=[79, 0]),
   midi.NoteOnEvent(tick=0, channel=2, data=[78, 127]),
   midi.NoteOnEvent(tick=30, channel=2, data=[78, 0]),
   midi.NoteOnEvent(tick=0, channel=2, data=[79, 127]),
   midi.NoteOnEvent(tick=30, channel=2, data=[79, 0]),
   midi.NoteOnEvent(tick=0, channel=2, data=[76, 127]),
   midi.NoteOnEvent(tick=30, channel=2, data=[76, 0]),
   midi.NoteOnEvent(tick=0, channel=2, data=[78, 127]),
   midi.NoteOnEvent(tick=30, channel=2, data=[78, 0]),
   midi.NoteOnEvent(tick=0, channel=2, data=[74, 127]),
   midi.NoteOnEvent(tick=30, channel=2, data=[74, 0]),
   midi.NoteOnEvent(tick=0, channel=2, data=[76, 127]),
   midi.NoteOnEvent(tick=30, channel=2, data=[76, 0]),
   midi.NoteOnEvent(tick=0, channel=2, data=[72, 127]),
   midi.NoteOnEvent(tick=30, channel=2, data=[72, 0]),
   midi.NoteOnEvent(tick=0, channel=2, data=[74, 127]),
   midi.NoteOnEvent(tick=30, channel=2, data=[74, 0]),
   midi.NoteOnEvent(tick=0, channel=2, data=[71, 127]),
   midi.NoteOnEvent(tick=30, channel=2, data=[71, 0]),
   midi.NoteOnEvent(tick=0, channel=2, data=[72, 127]),
   midi.NoteOnEvent(tick=30, channel=2, data=[72, 0]),
   midi.NoteOnEvent(tick=0, channel=2, data=[69, 127]),
   midi.NoteOnEvent(tick=30, channel=2, data=[69, 0]),
   midi.NoteOnEvent(tick=0, channel=2, data=[71, 127]),
   midi.NoteOnEvent(tick=30, channel=2, data=[71, 0]),
   midi.NoteOnEvent(tick=0, channel=2, data=[67, 127]),
   midi.NoteOnEvent(tick=30, channel=2, data=[67, 0]),
   midi.NoteOnEvent(tick=0, channel=2, data=[69, 127]),
   midi.NoteOnEvent(tick=30, channel=2, data=[69, 0]),
   midi.NoteOnEvent(tick=0, channel=2, data=[66, 127]),
   midi.NoteOnEvent(tick=30, channel=2, data=[66, 0]),
   midi.NoteOnEvent(tick=0, channel=2, data=[67, 127]),
   midi.NoteOnEvent(tick=30, channel=2, data=[67, 0]),
   midi.NoteOnEvent(tick=0, channel=2, data=[66, 127]),
   midi.NoteOnEvent(tick=120, channel=2, data=[66, 0]),
   midi.NoteOnEvent(tick=0, channel=2, data=[67, 127]),
   midi.NoteOnEvent(tick=30, channel=2, data=[67, 0]),
   midi.NoteOnEvent(tick=0, channel=2, data=[66, 127]),
   midi.NoteOnEvent(tick=30, channel=2, data=[66, 0]),
   midi.NoteOnEvent(tick=0, channel=2, data=[64, 127]),
   midi.NoteOnEvent(tick=60, channel=2, data=[64, 0]),
   midi.NoteOnEvent(tick=0, channel=2, data=[62, 127]),
   midi.NoteOnEvent(tick=60, channel=2, data=[62, 0]),
   midi.NoteOnEvent(tick=0, channel=2, data=[59, 127]),
   midi.NoteOnEvent(tick=60, channel=2, data=[59, 0]),
   midi.NoteOnEvent(tick=0, channel=2, data=[62, 127]),
   midi.NoteOnEvent(tick=60, channel=2, data=[62, 0]),
   midi.PitchWheelEvent(tick=0, channel=2, data=[0, 64]),
   midi.NoteOnEvent(tick=0, channel=2, data=[64, 127]),
   midi.PitchWheelEvent(tick=1, channel=2, data=[51, 70]),
   midi.PitchWheelEvent(tick=1, channel=2, data=[102, 76]),
   midi.PitchWheelEvent(tick=1, channel=2, data=[25, 83]),
   midi.PitchWheelEvent(tick=1, channel=2, data=[76, 89]),
   midi.PitchWheelEvent(tick=1, channel=2, data=[0, 96]),
   midi.PitchWheelEvent(tick=1, channel=2, data=[51, 102]),
   midi.PitchWheelEvent(tick=1, channel=2, data=[102, 108]),
   midi.PitchWheelEvent(tick=1, channel=2, data=[25, 115]),
   midi.PitchWheelEvent(tick=1, channel=2, data=[76, 121]),
   midi.PitchWheelEvent(tick=1, channel=2, data=[127, 127]),
   midi.NoteOnEvent(tick=110, channel=2, data=[64, 0]),
   midi.NoteOnEvent(tick=0, channel=2, data=[64, 127]),
   midi.NoteOnEvent(tick=60, channel=2, data=[64, 0]),
   midi.PitchWheelEvent(tick=0, channel=2, data=[0, 64]),
   midi.NoteOnEvent(tick=0, channel=2, data=[64, 127]),
   midi.NoteOnEvent(tick=30, channel=2, data=[64, 0]),
   midi.NoteOnEvent(tick=0, channel=2, data=[62, 127]),
   midi.NoteOnEvent(tick=30, channel=2, data=[62, 0]),
   midi.NoteOnEvent(tick=0, channel=2, data=[59, 127]),
   midi.NoteOnEvent(tick=60, channel=2, data=[59, 0]),
   midi.NoteOnEvent(tick=0, channel=2, data=[62, 127]),
   midi.NoteOnEvent(tick=30, channel=2, data=[62, 0]),
   midi.NoteOnEvent(tick=0, channel=2, data=[64, 127]),
   midi.NoteOnEvent(tick=150, channel=2, data=[64, 0]),
   midi.NoteOnEvent(tick=0, channel=2, data=[62, 127]),
   midi.NoteOnEvent(tick=120, channel=2, data=[62, 0]),
   midi.NoteOnEvent(tick=0, channel=2, data=[61, 127]),
   midi.NoteOnEvent(tick=120, channel=2, data=[61, 0]),
   midi.NoteOnEvent(tick=0, channel=2, data=[62, 127]),
   midi.NoteOnEvent(tick=60, channel=2, data=[62, 0]),
   midi.NoteOnEvent(tick=0, channel=2, data=[59, 127]),
   midi.NoteOnEvent(tick=24, channel=2, data=[59, 0]),
   midi.NoteOnEvent(tick=0, channel=2, data=[61, 127]),
   midi.NoteOnEvent(tick=24, channel=2, data=[61, 0]),
   midi.NoteOnEvent(tick=0, channel=2, data=[59, 127]),
   midi.NoteOnEvent(tick=24, channel=2, data=[59, 0]),
   midi.NoteOnEvent(tick=0, channel=2, data=[61, 127]),
   midi.NoteOnEvent(tick=24, channel=2, data=[61, 0]),
   midi.NoteOnEvent(tick=0, channel=2, data=[59, 127]),
   midi.NoteOnEvent(tick=24, channel=2, data=[59, 0]),
   midi.NoteOnEvent(tick=0, channel=2, data=[61, 127]),
   midi.NoteOnEvent(tick=24, channel=2, data=[61, 0]),
   midi.NoteOnEvent(tick=0, channel=2, data=[59, 127]),
   midi.NoteOnEvent(tick=24, channel=2, data=[59, 0]),
   midi.NoteOnEvent(tick=0, channel=2, data=[61, 127]),
   midi.NoteOnEvent(tick=24, channel=2, data=[61, 0]),
   midi.NoteOnEvent(tick=0, channel=2, data=[59, 127]),
   midi.NoteOnEvent(tick=24, channel=2, data=[59, 0]),
   midi.NoteOnEvent(tick=0, channel=2, data=[61, 127]),
   midi.NoteOnEvent(tick=24, channel=2, data=[61, 0]),
   midi.NoteOnEvent(tick=0, channel=2, data=[59, 127]),
   midi.NoteOnEvent(tick=720, channel=2, data=[59, 0]),
   midi.PitchWheelEvent(tick=4800, channel=2, data=[0, 64]),
   midi.NoteOnEvent(tick=0, channel=2, data=[56, 127]),
   midi.PitchWheelEvent(tick=1, channel=2, data=[34, 64]),
   midi.PitchWheelEvent(tick=1, channel=2, data=[68, 64]),
   midi.PitchWheelEvent(tick=1, channel=2, data=[102, 64]),
   midi.PitchWheelEvent(tick=1, channel=2, data=[9, 65]),
   midi.PitchWheelEvent(tick=1, channel=2, data=[43, 65]),
   midi.PitchWheelEvent(tick=1, channel=2, data=[77, 65]),
   midi.PitchWheelEvent(tick=1, channel=2, data=[111, 65]),
   midi.PitchWheelEvent(tick=1, channel=2, data=[17, 66]),
   midi.PitchWheelEvent(tick=1, channel=2, data=[51, 66]),
   midi.PitchWheelEvent(tick=1, channel=2, data=[85, 66]),
   midi.PitchWheelEvent(tick=1, channel=2, data=[119, 66]),
   midi.PitchWheelEvent(tick=1, channel=2, data=[26, 67]),
   midi.PitchWheelEvent(tick=1, channel=2, data=[60, 67]),
   midi.PitchWheelEvent(tick=1, channel=2, data=[94, 67]),
   midi.PitchWheelEvent(tick=1, channel=2, data=[0, 68]),
   midi.PitchWheelEvent(tick=1, channel=2, data=[34, 68]),
   midi.PitchWheelEvent(tick=1, channel=2, data=[68, 68]),
   midi.PitchWheelEvent(tick=1, channel=2, data=[102, 68]),
   midi.PitchWheelEvent(tick=1, channel=2, data=[9, 69]),
   midi.PitchWheelEvent(tick=1, channel=2, data=[43, 69]),
   midi.PitchWheelEvent(tick=1, channel=2, data=[77, 69]),
   midi.PitchWheelEvent(tick=1, channel=2, data=[111, 69]),
   midi.PitchWheelEvent(tick=1, channel=2, data=[17, 70]),
   midi.PitchWheelEvent(tick=1, channel=2, data=[51, 70]),
   midi.PitchWheelEvent(tick=1, channel=2, data=[85, 70]),
   midi.PitchWheelEvent(tick=1, channel=2, data=[119, 70]),
   midi.PitchWheelEvent(tick=1, channel=2, data=[26, 71]),
   midi.PitchWheelEvent(tick=1, channel=2, data=[60, 71]),
   midi.PitchWheelEvent(tick=1, channel=2, data=[94, 71]),
   midi.PitchWheelEvent(tick=1, channel=2, data=[0, 72]),
   midi.PitchWheelEvent(tick=1, channel=2, data=[34, 72]),
   midi.PitchWheelEvent(tick=1, channel=2, data=[68, 72]),
   midi.PitchWheelEvent(tick=1, channel=2, data=[102, 72]),
   midi.PitchWheelEvent(tick=1, channel=2, data=[9, 73]),
   midi.PitchWheelEvent(tick=1, channel=2, data=[43, 73]),
   midi.PitchWheelEvent(tick=1, channel=2, data=[77, 73]),
   midi.PitchWheelEvent(tick=1, channel=2, data=[111, 73]),
   midi.PitchWheelEvent(tick=1, channel=2, data=[17, 74]),
   midi.PitchWheelEvent(tick=1, channel=2, data=[51, 74]),
   midi.PitchWheelEvent(tick=1, channel=2, data=[85, 74]),
   midi.PitchWheelEvent(tick=1, channel=2, data=[119, 74]),
   midi.PitchWheelEvent(tick=1, channel=2, data=[26, 75]),
   midi.PitchWheelEvent(tick=1, channel=2, data=[60, 75]),
   midi.PitchWheelEvent(tick=1, channel=2, data=[94, 75]),
   midi.PitchWheelEvent(tick=1, channel=2, data=[0, 76]),
   midi.PitchWheelEvent(tick=1, channel=2, data=[34, 76]),
   midi.PitchWheelEvent(tick=1, channel=2, data=[68, 76]),
   midi.PitchWheelEvent(tick=1, channel=2, data=[102, 76]),
   midi.PitchWheelEvent(tick=1, channel=2, data=[9, 77]),
   midi.PitchWheelEvent(tick=1, channel=2, data=[43, 77]),
   midi.PitchWheelEvent(tick=1, channel=2, data=[77, 77]),
   midi.PitchWheelEvent(tick=1, channel=2, data=[111, 77]),
   midi.PitchWheelEvent(tick=1, channel=2, data=[17, 78]),
   midi.PitchWheelEvent(tick=1, channel=2, data=[51, 78]),
   midi.PitchWheelEvent(tick=1, channel=2, data=[85, 78]),
   midi.PitchWheelEvent(tick=1, channel=2, data=[119, 78]),
   midi.PitchWheelEvent(tick=1, channel=2, data=[26, 79]),
   midi.PitchWheelEvent(tick=1, channel=2, data=[60, 79]),
   midi.PitchWheelEvent(tick=1, channel=2, data=[94, 79]),
   midi.PitchWheelEvent(tick=1, channel=2, data=[0, 80]),
   midi.PitchWheelEvent(tick=1, channel=2, data=[34, 80]),
   midi.PitchWheelEvent(tick=1, channel=2, data=[68, 80]),
   midi.PitchWheelEvent(tick=1, channel=2, data=[102, 80]),
   midi.PitchWheelEvent(tick=1, channel=2, data=[9, 81]),
   midi.PitchWheelEvent(tick=1, channel=2, data=[43, 81]),
   midi.PitchWheelEvent(tick=1, channel=2, data=[77, 81]),
   midi.PitchWheelEvent(tick=1, channel=2, data=[111, 81]),
   midi.PitchWheelEvent(tick=1, channel=2, data=[17, 82]),
   midi.PitchWheelEvent(tick=1, channel=2, data=[51, 82]),
   midi.PitchWheelEvent(tick=1, channel=2, data=[85, 82]),
   midi.PitchWheelEvent(tick=1, channel=2, data=[119, 82]),
   midi.PitchWheelEvent(tick=1, channel=2, data=[26, 83]),
   midi.PitchWheelEvent(tick=1, channel=2, data=[60, 83]),
   midi.PitchWheelEvent(tick=1, channel=2, data=[94, 83]),
   midi.PitchWheelEvent(tick=1, channel=2, data=[0, 84]),
   midi.PitchWheelEvent(tick=1, channel=2, data=[34, 84]),
   midi.PitchWheelEvent(tick=1, channel=2, data=[68, 84]),
   midi.PitchWheelEvent(tick=1, channel=2, data=[102, 84]),
   midi.PitchWheelEvent(tick=1, channel=2, data=[9, 85]),
   midi.PitchWheelEvent(tick=1, channel=2, data=[43, 85]),
   midi.PitchWheelEvent(tick=1, channel=2, data=[77, 85]),
   midi.PitchWheelEvent(tick=1, channel=2, data=[111, 85]),
   midi.PitchWheelEvent(tick=1, channel=2, data=[17, 86]),
   midi.PitchWheelEvent(tick=1, channel=2, data=[51, 86]),
   midi.PitchWheelEvent(tick=1, channel=2, data=[85, 86]),
   midi.PitchWheelEvent(tick=1, channel=2, data=[119, 86]),
   midi.PitchWheelEvent(tick=1, channel=2, data=[26, 87]),
   midi.PitchWheelEvent(tick=1, channel=2, data=[60, 87]),
   midi.PitchWheelEvent(tick=1, channel=2, data=[94, 87]),
   midi.PitchWheelEvent(tick=1, channel=2, data=[0, 88]),
   midi.PitchWheelEvent(tick=1, channel=2, data=[34, 88]),
   midi.PitchWheelEvent(tick=1, channel=2, data=[68, 88]),
   midi.PitchWheelEvent(tick=1, channel=2, data=[102, 88]),
   midi.PitchWheelEvent(tick=1, channel=2, data=[9, 89]),
   midi.PitchWheelEvent(tick=1, channel=2, data=[43, 89]),
   midi.PitchWheelEvent(tick=1, channel=2, data=[77, 89]),
   midi.PitchWheelEvent(tick=1, channel=2, data=[111, 89]),
   midi.PitchWheelEvent(tick=1, channel=2, data=[17, 90]),
   midi.PitchWheelEvent(tick=1, channel=2, data=[51, 90]),
   midi.PitchWheelEvent(tick=1, channel=2, data=[85, 90]),
   midi.PitchWheelEvent(tick=1, channel=2, data=[119, 90]),
   midi.PitchWheelEvent(tick=1, channel=2, data=[26, 91]),
   midi.PitchWheelEvent(tick=1, channel=2, data=[60, 91]),
   midi.PitchWheelEvent(tick=1, channel=2, data=[94, 91]),
   midi.PitchWheelEvent(tick=1, channel=2, data=[0, 92]),
   midi.PitchWheelEvent(tick=1, channel=2, data=[34, 92]),
   midi.PitchWheelEvent(tick=1, channel=2, data=[68, 92]),
   midi.PitchWheelEvent(tick=1, channel=2, data=[102, 92]),
   midi.PitchWheelEvent(tick=1, channel=2, data=[9, 93]),
   midi.PitchWheelEvent(tick=1, channel=2, data=[43, 93]),
   midi.PitchWheelEvent(tick=1, channel=2, data=[77, 93]),
   midi.PitchWheelEvent(tick=1, channel=2, data=[111, 93]),
   midi.PitchWheelEvent(tick=1, channel=2, data=[17, 94]),
   midi.PitchWheelEvent(tick=1, channel=2, data=[51, 94]),
   midi.PitchWheelEvent(tick=1, channel=2, data=[85, 94]),
   midi.PitchWheelEvent(tick=1, channel=2, data=[119, 94]),
   midi.PitchWheelEvent(tick=1, channel=2, data=[26, 95]),
   midi.PitchWheelEvent(tick=1, channel=2, data=[60, 95]),
   midi.PitchWheelEvent(tick=1, channel=2, data=[94, 95]),
   midi.PitchWheelEvent(tick=1, channel=2, data=[0, 96]),
   midi.NoteOnEvent(tick=420, channel=2, data=[56, 0]),
   midi.PitchWheelEvent(tick=0, channel=2, data=[0, 64]),
   midi.NoteOnEvent(tick=0, channel=2, data=[56, 127]),
   midi.PitchWheelEvent(tick=1, channel=2, data=[9, 65]),
   midi.PitchWheelEvent(tick=1, channel=2, data=[17, 66]),
   midi.PitchWheelEvent(tick=1, channel=2, data=[26, 67]),
   midi.PitchWheelEvent(tick=1, channel=2, data=[34, 68]),
   midi.PitchWheelEvent(tick=1, channel=2, data=[43, 69]),
   midi.PitchWheelEvent(tick=1, channel=2, data=[51, 70]),
   midi.PitchWheelEvent(tick=1, channel=2, data=[60, 71]),
   midi.PitchWheelEvent(tick=1, channel=2, data=[68, 72]),
   midi.PitchWheelEvent(tick=1, channel=2, data=[77, 73]),
   midi.PitchWheelEvent(tick=1, channel=2, data=[85, 74]),
   midi.PitchWheelEvent(tick=1, channel=2, data=[94, 75]),
   midi.PitchWheelEvent(tick=1, channel=2, data=[102, 76]),
   midi.PitchWheelEvent(tick=1, channel=2, data=[111, 77]),
   midi.PitchWheelEvent(tick=1, channel=2, data=[119, 78]),
   midi.PitchWheelEvent(tick=1, channel=2, data=[0, 80]),
   midi.PitchWheelEvent(tick=1, channel=2, data=[9, 81]),
   midi.PitchWheelEvent(tick=1, channel=2, data=[17, 82]),
   midi.PitchWheelEvent(tick=1, channel=2, data=[26, 83]),
   midi.PitchWheelEvent(tick=1, channel=2, data=[34, 84]),
   midi.PitchWheelEvent(tick=1, channel=2, data=[43, 85]),
   midi.PitchWheelEvent(tick=1, channel=2, data=[51, 86]),
   midi.PitchWheelEvent(tick=1, channel=2, data=[60, 87]),
   midi.PitchWheelEvent(tick=1, channel=2, data=[68, 88]),
   midi.PitchWheelEvent(tick=1, channel=2, data=[77, 89]),
   midi.PitchWheelEvent(tick=1, channel=2, data=[85, 90]),
   midi.PitchWheelEvent(tick=1, channel=2, data=[94, 91]),
   midi.PitchWheelEvent(tick=1, channel=2, data=[102, 92]),
   midi.PitchWheelEvent(tick=1, channel=2, data=[111, 93]),
   midi.PitchWheelEvent(tick=1, channel=2, data=[119, 94]),
   midi.PitchWheelEvent(tick=1, channel=2, data=[0, 96]),
   midi.PitchWheelEvent(tick=0, channel=2, data=[0, 96]),
   midi.PitchWheelEvent(tick=1, channel=2, data=[119, 94]),
   midi.PitchWheelEvent(tick=1, channel=2, data=[111, 93]),
   midi.PitchWheelEvent(tick=1, channel=2, data=[102, 92]),
   midi.PitchWheelEvent(tick=1, channel=2, data=[94, 91]),
   midi.PitchWheelEvent(tick=1, channel=2, data=[85, 90]),
   midi.PitchWheelEvent(tick=1, channel=2, data=[77, 89]),
   midi.PitchWheelEvent(tick=1, channel=2, data=[68, 88]),
   midi.PitchWheelEvent(tick=1, channel=2, data=[60, 87]),
   midi.PitchWheelEvent(tick=1, channel=2, data=[51, 86]),
   midi.PitchWheelEvent(tick=1, channel=2, data=[43, 85]),
   midi.PitchWheelEvent(tick=1, channel=2, data=[34, 84]),
   midi.PitchWheelEvent(tick=1, channel=2, data=[26, 83]),
   midi.PitchWheelEvent(tick=1, channel=2, data=[17, 82]),
   midi.PitchWheelEvent(tick=1, channel=2, data=[9, 81]),
   midi.PitchWheelEvent(tick=1, channel=2, data=[0, 80]),
   midi.PitchWheelEvent(tick=1, channel=2, data=[119, 78]),
   midi.PitchWheelEvent(tick=1, channel=2, data=[111, 77]),
   midi.PitchWheelEvent(tick=1, channel=2, data=[102, 76]),
   midi.PitchWheelEvent(tick=1, channel=2, data=[94, 75]),
   midi.PitchWheelEvent(tick=1, channel=2, data=[85, 74]),
   midi.PitchWheelEvent(tick=1, channel=2, data=[77, 73]),
   midi.PitchWheelEvent(tick=1, channel=2, data=[68, 72]),
   midi.PitchWheelEvent(tick=1, channel=2, data=[60, 71]),
   midi.PitchWheelEvent(tick=1, channel=2, data=[51, 70]),
   midi.PitchWheelEvent(tick=1, channel=2, data=[43, 69]),
   midi.PitchWheelEvent(tick=1, channel=2, data=[34, 68]),
   midi.PitchWheelEvent(tick=1, channel=2, data=[26, 67]),
   midi.PitchWheelEvent(tick=1, channel=2, data=[17, 66]),
   midi.PitchWheelEvent(tick=1, channel=2, data=[9, 65]),
   midi.PitchWheelEvent(tick=1, channel=2, data=[0, 64]),
   midi.NoteOnEvent(tick=60, channel=2, data=[56, 0]),
   midi.NoteOnEvent(tick=0, channel=2, data=[54, 127]),
   midi.NoteOnEvent(tick=30, channel=2, data=[54, 0]),
   midi.NoteOnEvent(tick=0, channel=2, data=[56, 127]),
   midi.NoteOnEvent(tick=30, channel=2, data=[56, 0]),
   midi.NoteOnEvent(tick=0, channel=2, data=[54, 127]),
   midi.NoteOnEvent(tick=660, channel=2, data=[54, 0]),
   midi.PitchWheelEvent(tick=60, channel=2, data=[0, 64]),
   midi.NoteOnEvent(tick=0, channel=2, data=[56, 127]),
   midi.PitchWheelEvent(tick=1, channel=2, data=[34, 64]),
   midi.PitchWheelEvent(tick=1, channel=2, data=[68, 64]),
   midi.PitchWheelEvent(tick=1, channel=2, data=[102, 64]),
   midi.PitchWheelEvent(tick=1, channel=2, data=[9, 65]),
   midi.PitchWheelEvent(tick=1, channel=2, data=[43, 65]),
   midi.PitchWheelEvent(tick=1, channel=2, data=[77, 65]),
   midi.PitchWheelEvent(tick=1, channel=2, data=[111, 65]),
   midi.PitchWheelEvent(tick=1, channel=2, data=[17, 66]),
   midi.PitchWheelEvent(tick=1, channel=2, data=[51, 66]),
   midi.PitchWheelEvent(tick=1, channel=2, data=[85, 66]),
   midi.PitchWheelEvent(tick=1, channel=2, data=[119, 66]),
   midi.PitchWheelEvent(tick=1, channel=2, data=[26, 67]),
   midi.PitchWheelEvent(tick=1, channel=2, data=[60, 67]),
   midi.PitchWheelEvent(tick=1, channel=2, data=[94, 67]),
   midi.PitchWheelEvent(tick=1, channel=2, data=[0, 68]),
   midi.PitchWheelEvent(tick=1, channel=2, data=[34, 68]),
   midi.PitchWheelEvent(tick=1, channel=2, data=[68, 68]),
   midi.PitchWheelEvent(tick=1, channel=2, data=[102, 68]),
   midi.PitchWheelEvent(tick=1, channel=2, data=[9, 69]),
   midi.PitchWheelEvent(tick=1, channel=2, data=[43, 69]),
   midi.PitchWheelEvent(tick=1, channel=2, data=[77, 69]),
   midi.PitchWheelEvent(tick=1, channel=2, data=[111, 69]),
   midi.PitchWheelEvent(tick=1, channel=2, data=[17, 70]),
   midi.PitchWheelEvent(tick=1, channel=2, data=[51, 70]),
   midi.PitchWheelEvent(tick=1, channel=2, data=[85, 70]),
   midi.PitchWheelEvent(tick=1, channel=2, data=[119, 70]),
   midi.PitchWheelEvent(tick=1, channel=2, data=[26, 71]),
   midi.PitchWheelEvent(tick=1, channel=2, data=[60, 71]),
   midi.PitchWheelEvent(tick=1, channel=2, data=[94, 71]),
   midi.PitchWheelEvent(tick=1, channel=2, data=[0, 72]),
   midi.PitchWheelEvent(tick=1, channel=2, data=[34, 72]),
   midi.PitchWheelEvent(tick=1, channel=2, data=[68, 72]),
   midi.PitchWheelEvent(tick=1, channel=2, data=[102, 72]),
   midi.PitchWheelEvent(tick=1, channel=2, data=[9, 73]),
   midi.PitchWheelEvent(tick=1, channel=2, data=[43, 73]),
   midi.PitchWheelEvent(tick=1, channel=2, data=[77, 73]),
   midi.PitchWheelEvent(tick=1, channel=2, data=[111, 73]),
   midi.PitchWheelEvent(tick=1, channel=2, data=[17, 74]),
   midi.PitchWheelEvent(tick=1, channel=2, data=[51, 74]),
   midi.PitchWheelEvent(tick=1, channel=2, data=[85, 74]),
   midi.PitchWheelEvent(tick=1, channel=2, data=[119, 74]),
   midi.PitchWheelEvent(tick=1, channel=2, data=[26, 75]),
   midi.PitchWheelEvent(tick=1, channel=2, data=[60, 75]),
   midi.PitchWheelEvent(tick=1, channel=2, data=[94, 75]),
   midi.PitchWheelEvent(tick=1, channel=2, data=[0, 76]),
   midi.PitchWheelEvent(tick=1, channel=2, data=[34, 76]),
   midi.PitchWheelEvent(tick=1, channel=2, data=[68, 76]),
   midi.PitchWheelEvent(tick=1, channel=2, data=[102, 76]),
   midi.PitchWheelEvent(tick=1, channel=2, data=[9, 77]),
   midi.PitchWheelEvent(tick=1, channel=2, data=[43, 77]),
   midi.PitchWheelEvent(tick=1, channel=2, data=[77, 77]),
   midi.PitchWheelEvent(tick=1, channel=2, data=[111, 77]),
   midi.PitchWheelEvent(tick=1, channel=2, data=[17, 78]),
   midi.PitchWheelEvent(tick=1, channel=2, data=[51, 78]),
   midi.PitchWheelEvent(tick=1, channel=2, data=[85, 78]),
   midi.PitchWheelEvent(tick=1, channel=2, data=[119, 78]),
   midi.PitchWheelEvent(tick=1, channel=2, data=[26, 79]),
   midi.PitchWheelEvent(tick=1, channel=2, data=[60, 79]),
   midi.PitchWheelEvent(tick=1, channel=2, data=[94, 79]),
   midi.PitchWheelEvent(tick=1, channel=2, data=[0, 80]),
   midi.PitchWheelEvent(tick=1, channel=2, data=[34, 80]),
   midi.PitchWheelEvent(tick=1, channel=2, data=[68, 80]),
   midi.PitchWheelEvent(tick=1, channel=2, data=[102, 80]),
   midi.PitchWheelEvent(tick=1, channel=2, data=[9, 81]),
   midi.PitchWheelEvent(tick=1, channel=2, data=[43, 81]),
   midi.PitchWheelEvent(tick=1, channel=2, data=[77, 81]),
   midi.PitchWheelEvent(tick=1, channel=2, data=[111, 81]),
   midi.PitchWheelEvent(tick=1, channel=2, data=[17, 82]),
   midi.PitchWheelEvent(tick=1, channel=2, data=[51, 82]),
   midi.PitchWheelEvent(tick=1, channel=2, data=[85, 82]),
   midi.PitchWheelEvent(tick=1, channel=2, data=[119, 82]),
   midi.PitchWheelEvent(tick=1, channel=2, data=[26, 83]),
   midi.PitchWheelEvent(tick=1, channel=2, data=[60, 83]),
   midi.PitchWheelEvent(tick=1, channel=2, data=[94, 83]),
   midi.PitchWheelEvent(tick=1, channel=2, data=[0, 84]),
   midi.PitchWheelEvent(tick=1, channel=2, data=[34, 84]),
   midi.PitchWheelEvent(tick=1, channel=2, data=[68, 84]),
   midi.PitchWheelEvent(tick=1, channel=2, data=[102, 84]),
   midi.PitchWheelEvent(tick=1, channel=2, data=[9, 85]),
   midi.PitchWheelEvent(tick=1, channel=2, data=[43, 85]),
   midi.PitchWheelEvent(tick=1, channel=2, data=[77, 85]),
   midi.PitchWheelEvent(tick=1, channel=2, data=[111, 85]),
   midi.PitchWheelEvent(tick=1, channel=2, data=[17, 86]),
   midi.PitchWheelEvent(tick=1, channel=2, data=[51, 86]),
   midi.PitchWheelEvent(tick=1, channel=2, data=[85, 86]),
   midi.PitchWheelEvent(tick=1, channel=2, data=[119, 86]),
   midi.PitchWheelEvent(tick=1, channel=2, data=[26, 87]),
   midi.PitchWheelEvent(tick=1, channel=2, data=[60, 87]),
   midi.PitchWheelEvent(tick=1, channel=2, data=[94, 87]),
   midi.PitchWheelEvent(tick=1, channel=2, data=[0, 88]),
   midi.PitchWheelEvent(tick=1, channel=2, data=[34, 88]),
   midi.PitchWheelEvent(tick=1, channel=2, data=[68, 88]),
   midi.PitchWheelEvent(tick=1, channel=2, data=[102, 88]),
   midi.PitchWheelEvent(tick=1, channel=2, data=[9, 89]),
   midi.PitchWheelEvent(tick=1, channel=2, data=[43, 89]),
   midi.PitchWheelEvent(tick=1, channel=2, data=[77, 89]),
   midi.PitchWheelEvent(tick=1, channel=2, data=[111, 89]),
   midi.PitchWheelEvent(tick=1, channel=2, data=[17, 90]),
   midi.PitchWheelEvent(tick=1, channel=2, data=[51, 90]),
   midi.PitchWheelEvent(tick=1, channel=2, data=[85, 90]),
   midi.PitchWheelEvent(tick=1, channel=2, data=[119, 90]),
   midi.PitchWheelEvent(tick=1, channel=2, data=[26, 91]),
   midi.PitchWheelEvent(tick=1, channel=2, data=[60, 91]),
   midi.PitchWheelEvent(tick=1, channel=2, data=[94, 91]),
   midi.PitchWheelEvent(tick=1, channel=2, data=[0, 92]),
   midi.PitchWheelEvent(tick=1, channel=2, data=[34, 92]),
   midi.PitchWheelEvent(tick=1, channel=2, data=[68, 92]),
   midi.PitchWheelEvent(tick=1, channel=2, data=[102, 92]),
   midi.PitchWheelEvent(tick=1, channel=2, data=[9, 93]),
   midi.PitchWheelEvent(tick=1, channel=2, data=[43, 93]),
   midi.PitchWheelEvent(tick=1, channel=2, data=[77, 93]),
   midi.PitchWheelEvent(tick=1, channel=2, data=[111, 93]),
   midi.PitchWheelEvent(tick=1, channel=2, data=[17, 94]),
   midi.PitchWheelEvent(tick=1, channel=2, data=[51, 94]),
   midi.PitchWheelEvent(tick=1, channel=2, data=[85, 94]),
   midi.PitchWheelEvent(tick=1, channel=2, data=[119, 94]),
   midi.PitchWheelEvent(tick=1, channel=2, data=[26, 95]),
   midi.PitchWheelEvent(tick=1, channel=2, data=[60, 95]),
   midi.PitchWheelEvent(tick=1, channel=2, data=[94, 95]),
   midi.PitchWheelEvent(tick=1, channel=2, data=[0, 96]),
   midi.NoteOnEvent(tick=420, channel=2, data=[56, 0]),
   midi.PitchWheelEvent(tick=0, channel=2, data=[0, 64]),
   midi.NoteOnEvent(tick=0, channel=2, data=[56, 127]),
   midi.PitchWheelEvent(tick=1, channel=2, data=[9, 65]),
   midi.PitchWheelEvent(tick=1, channel=2, data=[17, 66]),
   midi.PitchWheelEvent(tick=1, channel=2, data=[26, 67]),
   midi.PitchWheelEvent(tick=1, channel=2, data=[34, 68]),
   midi.PitchWheelEvent(tick=1, channel=2, data=[43, 69]),
   midi.PitchWheelEvent(tick=1, channel=2, data=[51, 70]),
   midi.PitchWheelEvent(tick=1, channel=2, data=[60, 71]),
   midi.PitchWheelEvent(tick=1, channel=2, data=[68, 72]),
   midi.PitchWheelEvent(tick=1, channel=2, data=[77, 73]),
   midi.PitchWheelEvent(tick=1, channel=2, data=[85, 74]),
   midi.PitchWheelEvent(tick=1, channel=2, data=[94, 75]),
   midi.PitchWheelEvent(tick=1, channel=2, data=[102, 76]),
   midi.PitchWheelEvent(tick=1, channel=2, data=[111, 77]),
   midi.PitchWheelEvent(tick=1, channel=2, data=[119, 78]),
   midi.PitchWheelEvent(tick=1, channel=2, data=[0, 80]),
   midi.PitchWheelEvent(tick=1, channel=2, data=[9, 81]),
   midi.PitchWheelEvent(tick=1, channel=2, data=[17, 82]),
   midi.PitchWheelEvent(tick=1, channel=2, data=[26, 83]),
   midi.PitchWheelEvent(tick=1, channel=2, data=[34, 84]),
   midi.PitchWheelEvent(tick=1, channel=2, data=[43, 85]),
   midi.PitchWheelEvent(tick=1, channel=2, data=[51, 86]),
   midi.PitchWheelEvent(tick=1, channel=2, data=[60, 87]),
   midi.PitchWheelEvent(tick=1, channel=2, data=[68, 88]),
   midi.PitchWheelEvent(tick=1, channel=2, data=[77, 89]),
   midi.PitchWheelEvent(tick=1, channel=2, data=[85, 90]),
   midi.PitchWheelEvent(tick=1, channel=2, data=[94, 91]),
   midi.PitchWheelEvent(tick=1, channel=2, data=[102, 92]),
   midi.PitchWheelEvent(tick=1, channel=2, data=[111, 93]),
   midi.PitchWheelEvent(tick=1, channel=2, data=[119, 94]),
   midi.PitchWheelEvent(tick=1, channel=2, data=[0, 96]),
   midi.PitchWheelEvent(tick=0, channel=2, data=[0, 96]),
   midi.PitchWheelEvent(tick=1, channel=2, data=[119, 94]),
   midi.PitchWheelEvent(tick=1, channel=2, data=[111, 93]),
   midi.PitchWheelEvent(tick=1, channel=2, data=[102, 92]),
   midi.PitchWheelEvent(tick=1, channel=2, data=[94, 91]),
   midi.PitchWheelEvent(tick=1, channel=2, data=[85, 90]),
   midi.PitchWheelEvent(tick=1, channel=2, data=[77, 89]),
   midi.PitchWheelEvent(tick=1, channel=2, data=[68, 88]),
   midi.PitchWheelEvent(tick=1, channel=2, data=[60, 87]),
   midi.PitchWheelEvent(tick=1, channel=2, data=[51, 86]),
   midi.PitchWheelEvent(tick=1, channel=2, data=[43, 85]),
   midi.PitchWheelEvent(tick=1, channel=2, data=[34, 84]),
   midi.PitchWheelEvent(tick=1, channel=2, data=[26, 83]),
   midi.PitchWheelEvent(tick=1, channel=2, data=[17, 82]),
   midi.PitchWheelEvent(tick=1, channel=2, data=[9, 81]),
   midi.PitchWheelEvent(tick=1, channel=2, data=[0, 80]),
   midi.PitchWheelEvent(tick=1, channel=2, data=[119, 78]),
   midi.PitchWheelEvent(tick=1, channel=2, data=[111, 77]),
   midi.PitchWheelEvent(tick=1, channel=2, data=[102, 76]),
   midi.PitchWheelEvent(tick=1, channel=2, data=[94, 75]),
   midi.PitchWheelEvent(tick=1, channel=2, data=[85, 74]),
   midi.PitchWheelEvent(tick=1, channel=2, data=[77, 73]),
   midi.PitchWheelEvent(tick=1, channel=2, data=[68, 72]),
   midi.PitchWheelEvent(tick=1, channel=2, data=[60, 71]),
   midi.PitchWheelEvent(tick=1, channel=2, data=[51, 70]),
   midi.PitchWheelEvent(tick=1, channel=2, data=[43, 69]),
   midi.PitchWheelEvent(tick=1, channel=2, data=[34, 68]),
   midi.PitchWheelEvent(tick=1, channel=2, data=[26, 67]),
   midi.PitchWheelEvent(tick=1, channel=2, data=[17, 66]),
   midi.PitchWheelEvent(tick=1, channel=2, data=[9, 65]),
   midi.PitchWheelEvent(tick=1, channel=2, data=[0, 64]),
   midi.NoteOnEvent(tick=60, channel=2, data=[56, 0]),
   midi.NoteOnEvent(tick=0, channel=2, data=[54, 127]),
   midi.NoteOnEvent(tick=30, channel=2, data=[54, 0]),
   midi.NoteOnEvent(tick=0, channel=2, data=[56, 127]),
   midi.NoteOnEvent(tick=30, channel=2, data=[56, 0]),
   midi.NoteOnEvent(tick=0, channel=2, data=[54, 127]),
   midi.NoteOnEvent(tick=660, channel=2, data=[54, 0]),
   midi.PitchWheelEvent(tick=60, channel=2, data=[0, 64]),
   midi.NoteOnEvent(tick=0, channel=2, data=[56, 127]),
   midi.PitchWheelEvent(tick=1, channel=2, data=[34, 64]),
   midi.PitchWheelEvent(tick=1, channel=2, data=[68, 64]),
   midi.PitchWheelEvent(tick=1, channel=2, data=[102, 64]),
   midi.PitchWheelEvent(tick=1, channel=2, data=[9, 65]),
   midi.PitchWheelEvent(tick=1, channel=2, data=[43, 65]),
   midi.PitchWheelEvent(tick=1, channel=2, data=[77, 65]),
   midi.PitchWheelEvent(tick=1, channel=2, data=[111, 65]),
   midi.PitchWheelEvent(tick=1, channel=2, data=[17, 66]),
   midi.PitchWheelEvent(tick=1, channel=2, data=[51, 66]),
   midi.PitchWheelEvent(tick=1, channel=2, data=[85, 66]),
   midi.PitchWheelEvent(tick=1, channel=2, data=[119, 66]),
   midi.PitchWheelEvent(tick=1, channel=2, data=[26, 67]),
   midi.PitchWheelEvent(tick=1, channel=2, data=[60, 67]),
   midi.PitchWheelEvent(tick=1, channel=2, data=[94, 67]),
   midi.PitchWheelEvent(tick=1, channel=2, data=[0, 68]),
   midi.PitchWheelEvent(tick=1, channel=2, data=[34, 68]),
   midi.PitchWheelEvent(tick=1, channel=2, data=[68, 68]),
   midi.PitchWheelEvent(tick=1, channel=2, data=[102, 68]),
   midi.PitchWheelEvent(tick=1, channel=2, data=[9, 69]),
   midi.PitchWheelEvent(tick=1, channel=2, data=[43, 69]),
   midi.PitchWheelEvent(tick=1, channel=2, data=[77, 69]),
   midi.PitchWheelEvent(tick=1, channel=2, data=[111, 69]),
   midi.PitchWheelEvent(tick=1, channel=2, data=[17, 70]),
   midi.PitchWheelEvent(tick=1, channel=2, data=[51, 70]),
   midi.PitchWheelEvent(tick=1, channel=2, data=[85, 70]),
   midi.PitchWheelEvent(tick=1, channel=2, data=[119, 70]),
   midi.PitchWheelEvent(tick=1, channel=2, data=[26, 71]),
   midi.PitchWheelEvent(tick=1, channel=2, data=[60, 71]),
   midi.PitchWheelEvent(tick=1, channel=2, data=[94, 71]),
   midi.PitchWheelEvent(tick=1, channel=2, data=[0, 72]),
   midi.PitchWheelEvent(tick=1, channel=2, data=[34, 72]),
   midi.PitchWheelEvent(tick=1, channel=2, data=[68, 72]),
   midi.PitchWheelEvent(tick=1, channel=2, data=[102, 72]),
   midi.PitchWheelEvent(tick=1, channel=2, data=[9, 73]),
   midi.PitchWheelEvent(tick=1, channel=2, data=[43, 73]),
   midi.PitchWheelEvent(tick=1, channel=2, data=[77, 73]),
   midi.PitchWheelEvent(tick=1, channel=2, data=[111, 73]),
   midi.PitchWheelEvent(tick=1, channel=2, data=[17, 74]),
   midi.PitchWheelEvent(tick=1, channel=2, data=[51, 74]),
   midi.PitchWheelEvent(tick=1, channel=2, data=[85, 74]),
   midi.PitchWheelEvent(tick=1, channel=2, data=[119, 74]),
   midi.PitchWheelEvent(tick=1, channel=2, data=[26, 75]),
   midi.PitchWheelEvent(tick=1, channel=2, data=[60, 75]),
   midi.PitchWheelEvent(tick=1, channel=2, data=[94, 75]),
   midi.PitchWheelEvent(tick=1, channel=2, data=[0, 76]),
   midi.PitchWheelEvent(tick=1, channel=2, data=[34, 76]),
   midi.PitchWheelEvent(tick=1, channel=2, data=[68, 76]),
   midi.PitchWheelEvent(tick=1, channel=2, data=[102, 76]),
   midi.PitchWheelEvent(tick=1, channel=2, data=[9, 77]),
   midi.PitchWheelEvent(tick=1, channel=2, data=[43, 77]),
   midi.PitchWheelEvent(tick=1, channel=2, data=[77, 77]),
   midi.PitchWheelEvent(tick=1, channel=2, data=[111, 77]),
   midi.PitchWheelEvent(tick=1, channel=2, data=[17, 78]),
   midi.PitchWheelEvent(tick=1, channel=2, data=[51, 78]),
   midi.PitchWheelEvent(tick=1, channel=2, data=[85, 78]),
   midi.PitchWheelEvent(tick=1, channel=2, data=[119, 78]),
   midi.PitchWheelEvent(tick=1, channel=2, data=[26, 79]),
   midi.PitchWheelEvent(tick=1, channel=2, data=[60, 79]),
   midi.PitchWheelEvent(tick=1, channel=2, data=[94, 79]),
   midi.PitchWheelEvent(tick=1, channel=2, data=[0, 80]),
   midi.PitchWheelEvent(tick=1, channel=2, data=[34, 80]),
   midi.PitchWheelEvent(tick=1, channel=2, data=[68, 80]),
   midi.PitchWheelEvent(tick=1, channel=2, data=[102, 80]),
   midi.PitchWheelEvent(tick=1, channel=2, data=[9, 81]),
   midi.PitchWheelEvent(tick=1, channel=2, data=[43, 81]),
   midi.PitchWheelEvent(tick=1, channel=2, data=[77, 81]),
   midi.PitchWheelEvent(tick=1, channel=2, data=[111, 81]),
   midi.PitchWheelEvent(tick=1, channel=2, data=[17, 82]),
   midi.PitchWheelEvent(tick=1, channel=2, data=[51, 82]),
   midi.PitchWheelEvent(tick=1, channel=2, data=[85, 82]),
   midi.PitchWheelEvent(tick=1, channel=2, data=[119, 82]),
   midi.PitchWheelEvent(tick=1, channel=2, data=[26, 83]),
   midi.PitchWheelEvent(tick=1, channel=2, data=[60, 83]),
   midi.PitchWheelEvent(tick=1, channel=2, data=[94, 83]),
   midi.PitchWheelEvent(tick=1, channel=2, data=[0, 84]),
   midi.PitchWheelEvent(tick=1, channel=2, data=[34, 84]),
   midi.PitchWheelEvent(tick=1, channel=2, data=[68, 84]),
   midi.PitchWheelEvent(tick=1, channel=2, data=[102, 84]),
   midi.PitchWheelEvent(tick=1, channel=2, data=[9, 85]),
   midi.PitchWheelEvent(tick=1, channel=2, data=[43, 85]),
   midi.PitchWheelEvent(tick=1, channel=2, data=[77, 85]),
   midi.PitchWheelEvent(tick=1, channel=2, data=[111, 85]),
   midi.PitchWheelEvent(tick=1, channel=2, data=[17, 86]),
   midi.PitchWheelEvent(tick=1, channel=2, data=[51, 86]),
   midi.PitchWheelEvent(tick=1, channel=2, data=[85, 86]),
   midi.PitchWheelEvent(tick=1, channel=2, data=[119, 86]),
   midi.PitchWheelEvent(tick=1, channel=2, data=[26, 87]),
   midi.PitchWheelEvent(tick=1, channel=2, data=[60, 87]),
   midi.PitchWheelEvent(tick=1, channel=2, data=[94, 87]),
   midi.PitchWheelEvent(tick=1, channel=2, data=[0, 88]),
   midi.PitchWheelEvent(tick=1, channel=2, data=[34, 88]),
   midi.PitchWheelEvent(tick=1, channel=2, data=[68, 88]),
   midi.PitchWheelEvent(tick=1, channel=2, data=[102, 88]),
   midi.PitchWheelEvent(tick=1, channel=2, data=[9, 89]),
   midi.PitchWheelEvent(tick=1, channel=2, data=[43, 89]),
   midi.PitchWheelEvent(tick=1, channel=2, data=[77, 89]),
   midi.PitchWheelEvent(tick=1, channel=2, data=[111, 89]),
   midi.PitchWheelEvent(tick=1, channel=2, data=[17, 90]),
   midi.PitchWheelEvent(tick=1, channel=2, data=[51, 90]),
   midi.PitchWheelEvent(tick=1, channel=2, data=[85, 90]),
   midi.PitchWheelEvent(tick=1, channel=2, data=[119, 90]),
   midi.PitchWheelEvent(tick=1, channel=2, data=[26, 91]),
   midi.PitchWheelEvent(tick=1, channel=2, data=[60, 91]),
   midi.PitchWheelEvent(tick=1, channel=2, data=[94, 91]),
   midi.PitchWheelEvent(tick=1, channel=2, data=[0, 92]),
   midi.PitchWheelEvent(tick=1, channel=2, data=[34, 92]),
   midi.PitchWheelEvent(tick=1, channel=2, data=[68, 92]),
   midi.PitchWheelEvent(tick=1, channel=2, data=[102, 92]),
   midi.PitchWheelEvent(tick=1, channel=2, data=[9, 93]),
   midi.PitchWheelEvent(tick=1, channel=2, data=[43, 93]),
   midi.PitchWheelEvent(tick=1, channel=2, data=[77, 93]),
   midi.PitchWheelEvent(tick=1, channel=2, data=[111, 93]),
   midi.PitchWheelEvent(tick=1, channel=2, data=[17, 94]),
   midi.PitchWheelEvent(tick=1, channel=2, data=[51, 94]),
   midi.PitchWheelEvent(tick=1, channel=2, data=[85, 94]),
   midi.PitchWheelEvent(tick=1, channel=2, data=[119, 94]),
   midi.PitchWheelEvent(tick=1, channel=2, data=[26, 95]),
   midi.PitchWheelEvent(tick=1, channel=2, data=[60, 95]),
   midi.PitchWheelEvent(tick=1, channel=2, data=[94, 95]),
   midi.PitchWheelEvent(tick=1, channel=2, data=[0, 96]),
   midi.NoteOnEvent(tick=420, channel=2, data=[56, 0]),
   midi.PitchWheelEvent(tick=0, channel=2, data=[0, 64]),
   midi.NoteOnEvent(tick=0, channel=2, data=[56, 127]),
   midi.PitchWheelEvent(tick=1, channel=2, data=[9, 65]),
   midi.PitchWheelEvent(tick=1, channel=2, data=[17, 66]),
   midi.PitchWheelEvent(tick=1, channel=2, data=[26, 67]),
   midi.PitchWheelEvent(tick=1, channel=2, data=[34, 68]),
   midi.PitchWheelEvent(tick=1, channel=2, data=[43, 69]),
   midi.PitchWheelEvent(tick=1, channel=2, data=[51, 70]),
   midi.PitchWheelEvent(tick=1, channel=2, data=[60, 71]),
   midi.PitchWheelEvent(tick=1, channel=2, data=[68, 72]),
   midi.PitchWheelEvent(tick=1, channel=2, data=[77, 73]),
   midi.PitchWheelEvent(tick=1, channel=2, data=[85, 74]),
   midi.PitchWheelEvent(tick=1, channel=2, data=[94, 75]),
   midi.PitchWheelEvent(tick=1, channel=2, data=[102, 76]),
   midi.PitchWheelEvent(tick=1, channel=2, data=[111, 77]),
   midi.PitchWheelEvent(tick=1, channel=2, data=[119, 78]),
   midi.PitchWheelEvent(tick=1, channel=2, data=[0, 80]),
   midi.PitchWheelEvent(tick=1, channel=2, data=[9, 81]),
   midi.PitchWheelEvent(tick=1, channel=2, data=[17, 82]),
   midi.PitchWheelEvent(tick=1, channel=2, data=[26, 83]),
   midi.PitchWheelEvent(tick=1, channel=2, data=[34, 84]),
   midi.PitchWheelEvent(tick=1, channel=2, data=[43, 85]),
   midi.PitchWheelEvent(tick=1, channel=2, data=[51, 86]),
   midi.PitchWheelEvent(tick=1, channel=2, data=[60, 87]),
   midi.PitchWheelEvent(tick=1, channel=2, data=[68, 88]),
   midi.PitchWheelEvent(tick=1, channel=2, data=[77, 89]),
   midi.PitchWheelEvent(tick=1, channel=2, data=[85, 90]),
   midi.PitchWheelEvent(tick=1, channel=2, data=[94, 91]),
   midi.PitchWheelEvent(tick=1, channel=2, data=[102, 92]),
   midi.PitchWheelEvent(tick=1, channel=2, data=[111, 93]),
   midi.PitchWheelEvent(tick=1, channel=2, data=[119, 94]),
   midi.PitchWheelEvent(tick=1, channel=2, data=[0, 96]),
   midi.PitchWheelEvent(tick=0, channel=2, data=[0, 96]),
   midi.PitchWheelEvent(tick=1, channel=2, data=[119, 94]),
   midi.PitchWheelEvent(tick=1, channel=2, data=[111, 93]),
   midi.PitchWheelEvent(tick=1, channel=2, data=[102, 92]),
   midi.PitchWheelEvent(tick=1, channel=2, data=[94, 91]),
   midi.PitchWheelEvent(tick=1, channel=2, data=[85, 90]),
   midi.PitchWheelEvent(tick=1, channel=2, data=[77, 89]),
   midi.PitchWheelEvent(tick=1, channel=2, data=[68, 88]),
   midi.PitchWheelEvent(tick=1, channel=2, data=[60, 87]),
   midi.PitchWheelEvent(tick=1, channel=2, data=[51, 86]),
   midi.PitchWheelEvent(tick=1, channel=2, data=[43, 85]),
   midi.PitchWheelEvent(tick=1, channel=2, data=[34, 84]),
   midi.PitchWheelEvent(tick=1, channel=2, data=[26, 83]),
   midi.PitchWheelEvent(tick=1, channel=2, data=[17, 82]),
   midi.PitchWheelEvent(tick=1, channel=2, data=[9, 81]),
   midi.PitchWheelEvent(tick=1, channel=2, data=[0, 80]),
   midi.PitchWheelEvent(tick=1, channel=2, data=[119, 78]),
   midi.PitchWheelEvent(tick=1, channel=2, data=[111, 77]),
   midi.PitchWheelEvent(tick=1, channel=2, data=[102, 76]),
   midi.PitchWheelEvent(tick=1, channel=2, data=[94, 75]),
   midi.PitchWheelEvent(tick=1, channel=2, data=[85, 74]),
   midi.PitchWheelEvent(tick=1, channel=2, data=[77, 73]),
   midi.PitchWheelEvent(tick=1, channel=2, data=[68, 72]),
   midi.PitchWheelEvent(tick=1, channel=2, data=[60, 71]),
   midi.PitchWheelEvent(tick=1, channel=2, data=[51, 70]),
   midi.PitchWheelEvent(tick=1, channel=2, data=[43, 69]),
   midi.PitchWheelEvent(tick=1, channel=2, data=[34, 68]),
   midi.PitchWheelEvent(tick=1, channel=2, data=[26, 67]),
   midi.PitchWheelEvent(tick=1, channel=2, data=[17, 66]),
   midi.PitchWheelEvent(tick=1, channel=2, data=[9, 65]),
   midi.PitchWheelEvent(tick=1, channel=2, data=[0, 64]),
   midi.NoteOnEvent(tick=60, channel=2, data=[56, 0]),
   midi.NoteOnEvent(tick=0, channel=2, data=[54, 127]),
   midi.NoteOnEvent(tick=30, channel=2, data=[54, 0]),
   midi.NoteOnEvent(tick=0, channel=2, data=[56, 127]),
   midi.NoteOnEvent(tick=30, channel=2, data=[56, 0]),
   midi.NoteOnEvent(tick=0, channel=2, data=[54, 127]),
   midi.NoteOnEvent(tick=60, channel=2, data=[54, 0]),
   midi.NoteOnEvent(tick=0, channel=2, data=[49, 127]),
   midi.NoteOnEvent(tick=60, channel=2, data=[49, 0]),
   midi.NoteOnEvent(tick=0, channel=2, data=[49, 127]),
   midi.NoteOnEvent(tick=60, channel=2, data=[49, 0]),
   midi.NoteOnEvent(tick=0, channel=2, data=[49, 127]),
   midi.NoteOnEvent(tick=480, channel=2, data=[49, 0]),
   midi.PitchWheelEvent(tick=60, channel=2, data=[0, 64]),
   midi.NoteOnEvent(tick=0, channel=2, data=[56, 127]),
   midi.PitchWheelEvent(tick=1, channel=2, data=[34, 64]),
   midi.PitchWheelEvent(tick=1, channel=2, data=[68, 64]),
   midi.PitchWheelEvent(tick=1, channel=2, data=[102, 64]),
   midi.PitchWheelEvent(tick=1, channel=2, data=[9, 65]),
   midi.PitchWheelEvent(tick=1, channel=2, data=[43, 65]),
   midi.PitchWheelEvent(tick=1, channel=2, data=[77, 65]),
   midi.PitchWheelEvent(tick=1, channel=2, data=[111, 65]),
   midi.PitchWheelEvent(tick=1, channel=2, data=[17, 66]),
   midi.PitchWheelEvent(tick=1, channel=2, data=[51, 66]),
   midi.PitchWheelEvent(tick=1, channel=2, data=[85, 66]),
   midi.PitchWheelEvent(tick=1, channel=2, data=[119, 66]),
   midi.PitchWheelEvent(tick=1, channel=2, data=[26, 67]),
   midi.PitchWheelEvent(tick=1, channel=2, data=[60, 67]),
   midi.PitchWheelEvent(tick=1, channel=2, data=[94, 67]),
   midi.PitchWheelEvent(tick=1, channel=2, data=[0, 68]),
   midi.PitchWheelEvent(tick=1, channel=2, data=[34, 68]),
   midi.PitchWheelEvent(tick=1, channel=2, data=[68, 68]),
   midi.PitchWheelEvent(tick=1, channel=2, data=[102, 68]),
   midi.PitchWheelEvent(tick=1, channel=2, data=[9, 69]),
   midi.PitchWheelEvent(tick=1, channel=2, data=[43, 69]),
   midi.PitchWheelEvent(tick=1, channel=2, data=[77, 69]),
   midi.PitchWheelEvent(tick=1, channel=2, data=[111, 69]),
   midi.PitchWheelEvent(tick=1, channel=2, data=[17, 70]),
   midi.PitchWheelEvent(tick=1, channel=2, data=[51, 70]),
   midi.PitchWheelEvent(tick=1, channel=2, data=[85, 70]),
   midi.PitchWheelEvent(tick=1, channel=2, data=[119, 70]),
   midi.PitchWheelEvent(tick=1, channel=2, data=[26, 71]),
   midi.PitchWheelEvent(tick=1, channel=2, data=[60, 71]),
   midi.PitchWheelEvent(tick=1, channel=2, data=[94, 71]),
   midi.PitchWheelEvent(tick=1, channel=2, data=[0, 72]),
   midi.PitchWheelEvent(tick=1, channel=2, data=[34, 72]),
   midi.PitchWheelEvent(tick=1, channel=2, data=[68, 72]),
   midi.PitchWheelEvent(tick=1, channel=2, data=[102, 72]),
   midi.PitchWheelEvent(tick=1, channel=2, data=[9, 73]),
   midi.PitchWheelEvent(tick=1, channel=2, data=[43, 73]),
   midi.PitchWheelEvent(tick=1, channel=2, data=[77, 73]),
   midi.PitchWheelEvent(tick=1, channel=2, data=[111, 73]),
   midi.PitchWheelEvent(tick=1, channel=2, data=[17, 74]),
   midi.PitchWheelEvent(tick=1, channel=2, data=[51, 74]),
   midi.PitchWheelEvent(tick=1, channel=2, data=[85, 74]),
   midi.PitchWheelEvent(tick=1, channel=2, data=[119, 74]),
   midi.PitchWheelEvent(tick=1, channel=2, data=[26, 75]),
   midi.PitchWheelEvent(tick=1, channel=2, data=[60, 75]),
   midi.PitchWheelEvent(tick=1, channel=2, data=[94, 75]),
   midi.PitchWheelEvent(tick=1, channel=2, data=[0, 76]),
   midi.PitchWheelEvent(tick=1, channel=2, data=[34, 76]),
   midi.PitchWheelEvent(tick=1, channel=2, data=[68, 76]),
   midi.PitchWheelEvent(tick=1, channel=2, data=[102, 76]),
   midi.PitchWheelEvent(tick=1, channel=2, data=[9, 77]),
   midi.PitchWheelEvent(tick=1, channel=2, data=[43, 77]),
   midi.PitchWheelEvent(tick=1, channel=2, data=[77, 77]),
   midi.PitchWheelEvent(tick=1, channel=2, data=[111, 77]),
   midi.PitchWheelEvent(tick=1, channel=2, data=[17, 78]),
   midi.PitchWheelEvent(tick=1, channel=2, data=[51, 78]),
   midi.PitchWheelEvent(tick=1, channel=2, data=[85, 78]),
   midi.PitchWheelEvent(tick=1, channel=2, data=[119, 78]),
   midi.PitchWheelEvent(tick=1, channel=2, data=[26, 79]),
   midi.PitchWheelEvent(tick=1, channel=2, data=[60, 79]),
   midi.PitchWheelEvent(tick=1, channel=2, data=[94, 79]),
   midi.PitchWheelEvent(tick=1, channel=2, data=[0, 80]),
   midi.PitchWheelEvent(tick=1, channel=2, data=[34, 80]),
   midi.PitchWheelEvent(tick=1, channel=2, data=[68, 80]),
   midi.PitchWheelEvent(tick=1, channel=2, data=[102, 80]),
   midi.PitchWheelEvent(tick=1, channel=2, data=[9, 81]),
   midi.PitchWheelEvent(tick=1, channel=2, data=[43, 81]),
   midi.PitchWheelEvent(tick=1, channel=2, data=[77, 81]),
   midi.PitchWheelEvent(tick=1, channel=2, data=[111, 81]),
   midi.PitchWheelEvent(tick=1, channel=2, data=[17, 82]),
   midi.PitchWheelEvent(tick=1, channel=2, data=[51, 82]),
   midi.PitchWheelEvent(tick=1, channel=2, data=[85, 82]),
   midi.PitchWheelEvent(tick=1, channel=2, data=[119, 82]),
   midi.PitchWheelEvent(tick=1, channel=2, data=[26, 83]),
   midi.PitchWheelEvent(tick=1, channel=2, data=[60, 83]),
   midi.PitchWheelEvent(tick=1, channel=2, data=[94, 83]),
   midi.PitchWheelEvent(tick=1, channel=2, data=[0, 84]),
   midi.PitchWheelEvent(tick=1, channel=2, data=[34, 84]),
   midi.PitchWheelEvent(tick=1, channel=2, data=[68, 84]),
   midi.PitchWheelEvent(tick=1, channel=2, data=[102, 84]),
   midi.PitchWheelEvent(tick=1, channel=2, data=[9, 85]),
   midi.PitchWheelEvent(tick=1, channel=2, data=[43, 85]),
   midi.PitchWheelEvent(tick=1, channel=2, data=[77, 85]),
   midi.PitchWheelEvent(tick=1, channel=2, data=[111, 85]),
   midi.PitchWheelEvent(tick=1, channel=2, data=[17, 86]),
   midi.PitchWheelEvent(tick=1, channel=2, data=[51, 86]),
   midi.PitchWheelEvent(tick=1, channel=2, data=[85, 86]),
   midi.PitchWheelEvent(tick=1, channel=2, data=[119, 86]),
   midi.PitchWheelEvent(tick=1, channel=2, data=[26, 87]),
   midi.PitchWheelEvent(tick=1, channel=2, data=[60, 87]),
   midi.PitchWheelEvent(tick=1, channel=2, data=[94, 87]),
   midi.PitchWheelEvent(tick=1, channel=2, data=[0, 88]),
   midi.PitchWheelEvent(tick=1, channel=2, data=[34, 88]),
   midi.PitchWheelEvent(tick=1, channel=2, data=[68, 88]),
   midi.PitchWheelEvent(tick=1, channel=2, data=[102, 88]),
   midi.PitchWheelEvent(tick=1, channel=2, data=[9, 89]),
   midi.PitchWheelEvent(tick=1, channel=2, data=[43, 89]),
   midi.PitchWheelEvent(tick=1, channel=2, data=[77, 89]),
   midi.PitchWheelEvent(tick=1, channel=2, data=[111, 89]),
   midi.PitchWheelEvent(tick=1, channel=2, data=[17, 90]),
   midi.PitchWheelEvent(tick=1, channel=2, data=[51, 90]),
   midi.PitchWheelEvent(tick=1, channel=2, data=[85, 90]),
   midi.PitchWheelEvent(tick=1, channel=2, data=[119, 90]),
   midi.PitchWheelEvent(tick=1, channel=2, data=[26, 91]),
   midi.PitchWheelEvent(tick=1, channel=2, data=[60, 91]),
   midi.PitchWheelEvent(tick=1, channel=2, data=[94, 91]),
   midi.PitchWheelEvent(tick=1, channel=2, data=[0, 92]),
   midi.PitchWheelEvent(tick=1, channel=2, data=[34, 92]),
   midi.PitchWheelEvent(tick=1, channel=2, data=[68, 92]),
   midi.PitchWheelEvent(tick=1, channel=2, data=[102, 92]),
   midi.PitchWheelEvent(tick=1, channel=2, data=[9, 93]),
   midi.PitchWheelEvent(tick=1, channel=2, data=[43, 93]),
   midi.PitchWheelEvent(tick=1, channel=2, data=[77, 93]),
   midi.PitchWheelEvent(tick=1, channel=2, data=[111, 93]),
   midi.PitchWheelEvent(tick=1, channel=2, data=[17, 94]),
   midi.PitchWheelEvent(tick=1, channel=2, data=[51, 94]),
   midi.PitchWheelEvent(tick=1, channel=2, data=[85, 94]),
   midi.PitchWheelEvent(tick=1, channel=2, data=[119, 94]),
   midi.PitchWheelEvent(tick=1, channel=2, data=[26, 95]),
   midi.PitchWheelEvent(tick=1, channel=2, data=[60, 95]),
   midi.PitchWheelEvent(tick=1, channel=2, data=[94, 95]),
   midi.PitchWheelEvent(tick=1, channel=2, data=[0, 96]),
   midi.NoteOnEvent(tick=420, channel=2, data=[56, 0]),
   midi.PitchWheelEvent(tick=0, channel=2, data=[0, 64]),
   midi.NoteOnEvent(tick=0, channel=2, data=[56, 127]),
   midi.PitchWheelEvent(tick=1, channel=2, data=[9, 65]),
   midi.PitchWheelEvent(tick=1, channel=2, data=[17, 66]),
   midi.PitchWheelEvent(tick=1, channel=2, data=[26, 67]),
   midi.PitchWheelEvent(tick=1, channel=2, data=[34, 68]),
   midi.PitchWheelEvent(tick=1, channel=2, data=[43, 69]),
   midi.PitchWheelEvent(tick=1, channel=2, data=[51, 70]),
   midi.PitchWheelEvent(tick=1, channel=2, data=[60, 71]),
   midi.PitchWheelEvent(tick=1, channel=2, data=[68, 72]),
   midi.PitchWheelEvent(tick=1, channel=2, data=[77, 73]),
   midi.PitchWheelEvent(tick=1, channel=2, data=[85, 74]),
   midi.PitchWheelEvent(tick=1, channel=2, data=[94, 75]),
   midi.PitchWheelEvent(tick=1, channel=2, data=[102, 76]),
   midi.PitchWheelEvent(tick=1, channel=2, data=[111, 77]),
   midi.PitchWheelEvent(tick=1, channel=2, data=[119, 78]),
   midi.PitchWheelEvent(tick=1, channel=2, data=[0, 80]),
   midi.PitchWheelEvent(tick=1, channel=2, data=[9, 81]),
   midi.PitchWheelEvent(tick=1, channel=2, data=[17, 82]),
   midi.PitchWheelEvent(tick=1, channel=2, data=[26, 83]),
   midi.PitchWheelEvent(tick=1, channel=2, data=[34, 84]),
   midi.PitchWheelEvent(tick=1, channel=2, data=[43, 85]),
   midi.PitchWheelEvent(tick=1, channel=2, data=[51, 86]),
   midi.PitchWheelEvent(tick=1, channel=2, data=[60, 87]),
   midi.PitchWheelEvent(tick=1, channel=2, data=[68, 88]),
   midi.PitchWheelEvent(tick=1, channel=2, data=[77, 89]),
   midi.PitchWheelEvent(tick=1, channel=2, data=[85, 90]),
   midi.PitchWheelEvent(tick=1, channel=2, data=[94, 91]),
   midi.PitchWheelEvent(tick=1, channel=2, data=[102, 92]),
   midi.PitchWheelEvent(tick=1, channel=2, data=[111, 93]),
   midi.PitchWheelEvent(tick=1, channel=2, data=[119, 94]),
   midi.PitchWheelEvent(tick=1, channel=2, data=[0, 96]),
   midi.PitchWheelEvent(tick=0, channel=2, data=[0, 96]),
   midi.PitchWheelEvent(tick=1, channel=2, data=[119, 94]),
   midi.PitchWheelEvent(tick=1, channel=2, data=[111, 93]),
   midi.PitchWheelEvent(tick=1, channel=2, data=[102, 92]),
   midi.PitchWheelEvent(tick=1, channel=2, data=[94, 91]),
   midi.PitchWheelEvent(tick=1, channel=2, data=[85, 90]),
   midi.PitchWheelEvent(tick=1, channel=2, data=[77, 89]),
   midi.PitchWheelEvent(tick=1, channel=2, data=[68, 88]),
   midi.PitchWheelEvent(tick=1, channel=2, data=[60, 87]),
   midi.PitchWheelEvent(tick=1, channel=2, data=[51, 86]),
   midi.PitchWheelEvent(tick=1, channel=2, data=[43, 85]),
   midi.PitchWheelEvent(tick=1, channel=2, data=[34, 84]),
   midi.PitchWheelEvent(tick=1, channel=2, data=[26, 83]),
   midi.PitchWheelEvent(tick=1, channel=2, data=[17, 82]),
   midi.PitchWheelEvent(tick=1, channel=2, data=[9, 81]),
   midi.PitchWheelEvent(tick=1, channel=2, data=[0, 80]),
   midi.PitchWheelEvent(tick=1, channel=2, data=[119, 78]),
   midi.PitchWheelEvent(tick=1, channel=2, data=[111, 77]),
   midi.PitchWheelEvent(tick=1, channel=2, data=[102, 76]),
   midi.PitchWheelEvent(tick=1, channel=2, data=[94, 75]),
   midi.PitchWheelEvent(tick=1, channel=2, data=[85, 74]),
   midi.PitchWheelEvent(tick=1, channel=2, data=[77, 73]),
   midi.PitchWheelEvent(tick=1, channel=2, data=[68, 72]),
   midi.PitchWheelEvent(tick=1, channel=2, data=[60, 71]),
   midi.PitchWheelEvent(tick=1, channel=2, data=[51, 70]),
   midi.PitchWheelEvent(tick=1, channel=2, data=[43, 69]),
   midi.PitchWheelEvent(tick=1, channel=2, data=[34, 68]),
   midi.PitchWheelEvent(tick=1, channel=2, data=[26, 67]),
   midi.PitchWheelEvent(tick=1, channel=2, data=[17, 66]),
   midi.PitchWheelEvent(tick=1, channel=2, data=[9, 65]),
   midi.PitchWheelEvent(tick=1, channel=2, data=[0, 64]),
   midi.NoteOnEvent(tick=60, channel=2, data=[56, 0]),
   midi.NoteOnEvent(tick=0, channel=2, data=[54, 127]),
   midi.NoteOnEvent(tick=30, channel=2, data=[54, 0]),
   midi.NoteOnEvent(tick=0, channel=2, data=[56, 127]),
   midi.NoteOnEvent(tick=30, channel=2, data=[56, 0]),
   midi.NoteOnEvent(tick=0, channel=2, data=[54, 127]),
   midi.NoteOnEvent(tick=60, channel=2, data=[54, 0]),
   midi.NoteOnEvent(tick=0, channel=2, data=[49, 127]),
   midi.NoteOnEvent(tick=60, channel=2, data=[49, 0]),
   midi.NoteOnEvent(tick=0, channel=2, data=[49, 127]),
   midi.NoteOnEvent(tick=60, channel=2, data=[49, 0]),
   midi.NoteOnEvent(tick=0, channel=2, data=[49, 127]),
   midi.NoteOnEvent(tick=60, channel=2, data=[49, 0]),
   midi.NoteOnEvent(tick=0, channel=2, data=[47, 127]),
   midi.NoteOnEvent(tick=60, channel=2, data=[47, 0]),
   midi.NoteOnEvent(tick=0, channel=2, data=[47, 127]),
   midi.NoteOnEvent(tick=60, channel=2, data=[47, 0]),
   midi.NoteOnEvent(tick=0, channel=2, data=[49, 127]),
   midi.NoteOnEvent(tick=60, channel=2, data=[49, 0]),
   midi.NoteOnEvent(tick=0, channel=2, data=[47, 127]),
   midi.NoteOnEvent(tick=60, channel=2, data=[47, 0]),
   midi.NoteOnEvent(tick=0, channel=2, data=[47, 127]),
   midi.NoteOnEvent(tick=30, channel=2, data=[47, 0]),
   midi.NoteOnEvent(tick=0, channel=2, data=[49, 127]),
   midi.NoteOnEvent(tick=30, channel=2, data=[49, 0]),
   midi.NoteOnEvent(tick=0, channel=2, data=[52, 127]),
   midi.NoteOnEvent(tick=180, channel=2, data=[52, 0]),
   midi.PitchWheelEvent(tick=1380, channel=2, data=[0, 64]),
   midi.NoteOnEvent(tick=0, channel=2, data=[56, 127]),
   midi.PitchWheelEvent(tick=1, channel=2, data=[17, 66]),
   midi.PitchWheelEvent(tick=1, channel=2, data=[34, 68]),
   midi.PitchWheelEvent(tick=1, channel=2, data=[51, 70]),
   midi.PitchWheelEvent(tick=1, channel=2, data=[68, 72]),
   midi.PitchWheelEvent(tick=1, channel=2, data=[85, 74]),
   midi.PitchWheelEvent(tick=1, channel=2, data=[102, 76]),
   midi.PitchWheelEvent(tick=1, channel=2, data=[119, 78]),
   midi.PitchWheelEvent(tick=1, channel=2, data=[9, 81]),
   midi.PitchWheelEvent(tick=1, channel=2, data=[26, 83]),
   midi.PitchWheelEvent(tick=1, channel=2, data=[43, 85]),
   midi.PitchWheelEvent(tick=1, channel=2, data=[60, 87]),
   midi.PitchWheelEvent(tick=1, channel=2, data=[77, 89]),
   midi.PitchWheelEvent(tick=1, channel=2, data=[94, 91]),
   midi.PitchWheelEvent(tick=1, channel=2, data=[111, 93]),
   midi.PitchWheelEvent(tick=1, channel=2, data=[0, 96]),
   midi.PitchWheelEvent(tick=0, channel=2, data=[0, 96]),
   midi.PitchWheelEvent(tick=1, channel=2, data=[111, 93]),
   midi.PitchWheelEvent(tick=1, channel=2, data=[94, 91]),
   midi.PitchWheelEvent(tick=1, channel=2, data=[77, 89]),
   midi.PitchWheelEvent(tick=1, channel=2, data=[60, 87]),
   midi.PitchWheelEvent(tick=1, channel=2, data=[43, 85]),
   midi.PitchWheelEvent(tick=1, channel=2, data=[26, 83]),
   midi.PitchWheelEvent(tick=1, channel=2, data=[9, 81]),
   midi.PitchWheelEvent(tick=1, channel=2, data=[119, 78]),
   midi.PitchWheelEvent(tick=1, channel=2, data=[102, 76]),
   midi.PitchWheelEvent(tick=1, channel=2, data=[85, 74]),
   midi.PitchWheelEvent(tick=1, channel=2, data=[68, 72]),
   midi.PitchWheelEvent(tick=1, channel=2, data=[51, 70]),
   midi.PitchWheelEvent(tick=1, channel=2, data=[34, 68]),
   midi.PitchWheelEvent(tick=1, channel=2, data=[17, 66]),
   midi.PitchWheelEvent(tick=1, channel=2, data=[0, 64]),
   midi.PitchWheelEvent(tick=0, channel=2, data=[0, 64]),
   midi.PitchWheelEvent(tick=1, channel=2, data=[9, 65]),
   midi.PitchWheelEvent(tick=1, channel=2, data=[17, 66]),
   midi.PitchWheelEvent(tick=1, channel=2, data=[26, 67]),
   midi.PitchWheelEvent(tick=1, channel=2, data=[34, 68]),
   midi.PitchWheelEvent(tick=1, channel=2, data=[43, 69]),
   midi.PitchWheelEvent(tick=1, channel=2, data=[51, 70]),
   midi.PitchWheelEvent(tick=1, channel=2, data=[60, 71]),
   midi.PitchWheelEvent(tick=1, channel=2, data=[68, 72]),
   midi.PitchWheelEvent(tick=1, channel=2, data=[77, 73]),
   midi.PitchWheelEvent(tick=1, channel=2, data=[85, 74]),
   midi.PitchWheelEvent(tick=1, channel=2, data=[94, 75]),
   midi.PitchWheelEvent(tick=1, channel=2, data=[102, 76]),
   midi.PitchWheelEvent(tick=1, channel=2, data=[111, 77]),
   midi.PitchWheelEvent(tick=1, channel=2, data=[119, 78]),
   midi.PitchWheelEvent(tick=1, channel=2, data=[0, 80]),
   midi.PitchWheelEvent(tick=1, channel=2, data=[9, 81]),
   midi.PitchWheelEvent(tick=1, channel=2, data=[17, 82]),
   midi.PitchWheelEvent(tick=1, channel=2, data=[26, 83]),
   midi.PitchWheelEvent(tick=1, channel=2, data=[34, 84]),
   midi.PitchWheelEvent(tick=1, channel=2, data=[43, 85]),
   midi.PitchWheelEvent(tick=1, channel=2, data=[51, 86]),
   midi.PitchWheelEvent(tick=1, channel=2, data=[60, 87]),
   midi.PitchWheelEvent(tick=1, channel=2, data=[68, 88]),
   midi.PitchWheelEvent(tick=1, channel=2, data=[77, 89]),
   midi.PitchWheelEvent(tick=1, channel=2, data=[85, 90]),
   midi.PitchWheelEvent(tick=1, channel=2, data=[94, 91]),
   midi.PitchWheelEvent(tick=1, channel=2, data=[102, 92]),
   midi.PitchWheelEvent(tick=1, channel=2, data=[111, 93]),
   midi.PitchWheelEvent(tick=1, channel=2, data=[119, 94]),
   midi.PitchWheelEvent(tick=1, channel=2, data=[0, 96]),
   midi.NoteOnEvent(tick=480, channel=2, data=[56, 0]),
   midi.PitchWheelEvent(tick=0, channel=2, data=[0, 64]),
   midi.NoteOnEvent(tick=0, channel=2, data=[56, 127]),
   midi.PitchWheelEvent(tick=1, channel=2, data=[17, 66]),
   midi.PitchWheelEvent(tick=1, channel=2, data=[34, 68]),
   midi.PitchWheelEvent(tick=1, channel=2, data=[51, 70]),
   midi.PitchWheelEvent(tick=1, channel=2, data=[68, 72]),
   midi.PitchWheelEvent(tick=1, channel=2, data=[85, 74]),
   midi.PitchWheelEvent(tick=1, channel=2, data=[102, 76]),
   midi.PitchWheelEvent(tick=1, channel=2, data=[119, 78]),
   midi.PitchWheelEvent(tick=1, channel=2, data=[9, 81]),
   midi.PitchWheelEvent(tick=1, channel=2, data=[26, 83]),
   midi.PitchWheelEvent(tick=1, channel=2, data=[43, 85]),
   midi.PitchWheelEvent(tick=1, channel=2, data=[60, 87]),
   midi.PitchWheelEvent(tick=1, channel=2, data=[77, 89]),
   midi.PitchWheelEvent(tick=1, channel=2, data=[94, 91]),
   midi.PitchWheelEvent(tick=1, channel=2, data=[111, 93]),
   midi.PitchWheelEvent(tick=1, channel=2, data=[0, 96]),
   midi.PitchWheelEvent(tick=0, channel=2, data=[0, 96]),
   midi.PitchWheelEvent(tick=1, channel=2, data=[111, 93]),
   midi.PitchWheelEvent(tick=1, channel=2, data=[94, 91]),
   midi.PitchWheelEvent(tick=1, channel=2, data=[77, 89]),
   midi.PitchWheelEvent(tick=1, channel=2, data=[60, 87]),
   midi.PitchWheelEvent(tick=1, channel=2, data=[43, 85]),
   midi.PitchWheelEvent(tick=1, channel=2, data=[26, 83]),
   midi.PitchWheelEvent(tick=1, channel=2, data=[9, 81]),
   midi.PitchWheelEvent(tick=1, channel=2, data=[119, 78]),
   midi.PitchWheelEvent(tick=1, channel=2, data=[102, 76]),
   midi.PitchWheelEvent(tick=1, channel=2, data=[85, 74]),
   midi.PitchWheelEvent(tick=1, channel=2, data=[68, 72]),
   midi.PitchWheelEvent(tick=1, channel=2, data=[51, 70]),
   midi.PitchWheelEvent(tick=1, channel=2, data=[34, 68]),
   midi.PitchWheelEvent(tick=1, channel=2, data=[17, 66]),
   midi.PitchWheelEvent(tick=1, channel=2, data=[0, 64]),
   midi.PitchWheelEvent(tick=0, channel=2, data=[0, 64]),
   midi.PitchWheelEvent(tick=1, channel=2, data=[9, 65]),
   midi.PitchWheelEvent(tick=1, channel=2, data=[17, 66]),
   midi.PitchWheelEvent(tick=1, channel=2, data=[26, 67]),
   midi.PitchWheelEvent(tick=1, channel=2, data=[34, 68]),
   midi.PitchWheelEvent(tick=1, channel=2, data=[43, 69]),
   midi.PitchWheelEvent(tick=1, channel=2, data=[51, 70]),
   midi.PitchWheelEvent(tick=1, channel=2, data=[60, 71]),
   midi.PitchWheelEvent(tick=1, channel=2, data=[68, 72]),
   midi.PitchWheelEvent(tick=1, channel=2, data=[77, 73]),
   midi.PitchWheelEvent(tick=1, channel=2, data=[85, 74]),
   midi.PitchWheelEvent(tick=1, channel=2, data=[94, 75]),
   midi.PitchWheelEvent(tick=1, channel=2, data=[102, 76]),
   midi.PitchWheelEvent(tick=1, channel=2, data=[111, 77]),
   midi.PitchWheelEvent(tick=1, channel=2, data=[119, 78]),
   midi.PitchWheelEvent(tick=1, channel=2, data=[0, 80]),
   midi.PitchWheelEvent(tick=1, channel=2, data=[9, 81]),
   midi.PitchWheelEvent(tick=1, channel=2, data=[17, 82]),
   midi.PitchWheelEvent(tick=1, channel=2, data=[26, 83]),
   midi.PitchWheelEvent(tick=1, channel=2, data=[34, 84]),
   midi.PitchWheelEvent(tick=1, channel=2, data=[43, 85]),
   midi.PitchWheelEvent(tick=1, channel=2, data=[51, 86]),
   midi.PitchWheelEvent(tick=1, channel=2, data=[60, 87]),
   midi.PitchWheelEvent(tick=1, channel=2, data=[68, 88]),
   midi.PitchWheelEvent(tick=1, channel=2, data=[77, 89]),
   midi.PitchWheelEvent(tick=1, channel=2, data=[85, 90]),
   midi.PitchWheelEvent(tick=1, channel=2, data=[94, 91]),
   midi.PitchWheelEvent(tick=1, channel=2, data=[102, 92]),
   midi.PitchWheelEvent(tick=1, channel=2, data=[111, 93]),
   midi.PitchWheelEvent(tick=1, channel=2, data=[119, 94]),
   midi.PitchWheelEvent(tick=1, channel=2, data=[0, 96]),
   midi.PitchWheelEvent(tick=0, channel=2, data=[0, 96]),
   midi.PitchWheelEvent(tick=1, channel=2, data=[60, 95]),
   midi.PitchWheelEvent(tick=1, channel=2, data=[119, 94]),
   midi.PitchWheelEvent(tick=1, channel=2, data=[51, 94]),
   midi.PitchWheelEvent(tick=1, channel=2, data=[111, 93]),
   midi.PitchWheelEvent(tick=1, channel=2, data=[43, 93]),
   midi.PitchWheelEvent(tick=1, channel=2, data=[102, 92]),
   midi.PitchWheelEvent(tick=1, channel=2, data=[34, 92]),
   midi.PitchWheelEvent(tick=1, channel=2, data=[94, 91]),
   midi.PitchWheelEvent(tick=1, channel=2, data=[26, 91]),
   midi.PitchWheelEvent(tick=1, channel=2, data=[85, 90]),
   midi.PitchWheelEvent(tick=1, channel=2, data=[17, 90]),
   midi.PitchWheelEvent(tick=1, channel=2, data=[77, 89]),
   midi.PitchWheelEvent(tick=1, channel=2, data=[9, 89]),
   midi.PitchWheelEvent(tick=1, channel=2, data=[68, 88]),
   midi.PitchWheelEvent(tick=1, channel=2, data=[0, 88]),
   midi.PitchWheelEvent(tick=1, channel=2, data=[60, 87]),
   midi.PitchWheelEvent(tick=1, channel=2, data=[119, 86]),
   midi.PitchWheelEvent(tick=1, channel=2, data=[51, 86]),
   midi.PitchWheelEvent(tick=1, channel=2, data=[111, 85]),
   midi.PitchWheelEvent(tick=1, channel=2, data=[43, 85]),
   midi.PitchWheelEvent(tick=1, channel=2, data=[102, 84]),
   midi.PitchWheelEvent(tick=1, channel=2, data=[34, 84]),
   midi.PitchWheelEvent(tick=1, channel=2, data=[94, 83]),
   midi.PitchWheelEvent(tick=1, channel=2, data=[26, 83]),
   midi.PitchWheelEvent(tick=1, channel=2, data=[85, 82]),
   midi.PitchWheelEvent(tick=1, channel=2, data=[17, 82]),
   midi.PitchWheelEvent(tick=1, channel=2, data=[77, 81]),
   midi.PitchWheelEvent(tick=1, channel=2, data=[9, 81]),
   midi.PitchWheelEvent(tick=1, channel=2, data=[68, 80]),
   midi.PitchWheelEvent(tick=1, channel=2, data=[0, 80]),
   midi.PitchWheelEvent(tick=1, channel=2, data=[60, 79]),
   midi.PitchWheelEvent(tick=1, channel=2, data=[119, 78]),
   midi.PitchWheelEvent(tick=1, channel=2, data=[51, 78]),
   midi.PitchWheelEvent(tick=1, channel=2, data=[111, 77]),
   midi.PitchWheelEvent(tick=1, channel=2, data=[43, 77]),
   midi.PitchWheelEvent(tick=1, channel=2, data=[102, 76]),
   midi.PitchWheelEvent(tick=1, channel=2, data=[34, 76]),
   midi.PitchWheelEvent(tick=1, channel=2, data=[94, 75]),
   midi.PitchWheelEvent(tick=1, channel=2, data=[26, 75]),
   midi.PitchWheelEvent(tick=1, channel=2, data=[85, 74]),
   midi.PitchWheelEvent(tick=1, channel=2, data=[17, 74]),
   midi.PitchWheelEvent(tick=1, channel=2, data=[77, 73]),
   midi.PitchWheelEvent(tick=1, channel=2, data=[9, 73]),
   midi.PitchWheelEvent(tick=1, channel=2, data=[68, 72]),
   midi.PitchWheelEvent(tick=1, channel=2, data=[0, 72]),
   midi.PitchWheelEvent(tick=1, channel=2, data=[60, 71]),
   midi.PitchWheelEvent(tick=1, channel=2, data=[119, 70]),
   midi.PitchWheelEvent(tick=1, channel=2, data=[51, 70]),
   midi.PitchWheelEvent(tick=1, channel=2, data=[111, 69]),
   midi.PitchWheelEvent(tick=1, channel=2, data=[43, 69]),
   midi.PitchWheelEvent(tick=1, channel=2, data=[102, 68]),
   midi.PitchWheelEvent(tick=1, channel=2, data=[34, 68]),
   midi.PitchWheelEvent(tick=1, channel=2, data=[94, 67]),
   midi.PitchWheelEvent(tick=1, channel=2, data=[26, 67]),
   midi.PitchWheelEvent(tick=1, channel=2, data=[85, 66]),
   midi.PitchWheelEvent(tick=1, channel=2, data=[17, 66]),
   midi.PitchWheelEvent(tick=1, channel=2, data=[77, 65]),
   midi.PitchWheelEvent(tick=1, channel=2, data=[9, 65]),
   midi.PitchWheelEvent(tick=1, channel=2, data=[68, 64]),
   midi.PitchWheelEvent(tick=1, channel=2, data=[0, 64]),
   midi.NoteOnEvent(tick=60, channel=2, data=[56, 0]),
   midi.NoteOnEvent(tick=0, channel=2, data=[54, 127]),
   midi.NoteOnEvent(tick=30, channel=2, data=[54, 0]),
   midi.NoteOnEvent(tick=0, channel=2, data=[56, 127]),
   midi.NoteOnEvent(tick=30, channel=2, data=[56, 0]),
   midi.NoteOnEvent(tick=0, channel=2, data=[54, 127]),
   midi.NoteOnEvent(tick=60, channel=2, data=[54, 0]),
   midi.NoteOnEvent(tick=0, channel=2, data=[49, 127]),
   midi.NoteOnEvent(tick=60, channel=2, data=[49, 0]),
   midi.NoteOnEvent(tick=0, channel=2, data=[49, 127]),
   midi.NoteOnEvent(tick=60, channel=2, data=[49, 0]),
   midi.NoteOnEvent(tick=0, channel=2, data=[49, 127]),
   midi.NoteOnEvent(tick=60, channel=2, data=[49, 0]),
   midi.NoteOnEvent(tick=0, channel=2, data=[45, 127]),
   midi.NoteOnEvent(tick=60, channel=2, data=[45, 0]),
   midi.NoteOnEvent(tick=0, channel=2, data=[45, 127]),
   midi.NoteOnEvent(tick=60, channel=2, data=[45, 0]),
   midi.NoteOnEvent(tick=0, channel=2, data=[45, 127]),
   midi.NoteOnEvent(tick=60, channel=2, data=[45, 0]),
   midi.NoteOnEvent(tick=0, channel=2, data=[44, 127]),
   midi.NoteOnEvent(tick=60, channel=2, data=[44, 0]),
   midi.NoteOnEvent(tick=0, channel=2, data=[44, 127]),
   midi.NoteOnEvent(tick=30, channel=2, data=[44, 0]),
   midi.NoteOnEvent(tick=0, channel=2, data=[45, 127]),
   midi.NoteOnEvent(tick=30, channel=2, data=[45, 0]),
   midi.NoteOnEvent(tick=0, channel=2, data=[44, 127]),
   midi.NoteOnEvent(tick=180, channel=2, data=[44, 0]),
   midi.NoteOnEvent(tick=720, channel=2, data=[54, 127]),
   midi.NoteOnEvent(tick=570, channel=2, data=[54, 0]),
   midi.NoteOnEvent(tick=0, channel=2, data=[54, 127]),
   midi.NoteOnEvent(tick=30, channel=2, data=[54, 0]),
   midi.NoteOnEvent(tick=0, channel=2, data=[54, 127]),
   midi.NoteOnEvent(tick=30, channel=2, data=[54, 0]),
   midi.NoteOnEvent(tick=0, channel=2, data=[54, 127]),
   midi.NoteOnEvent(tick=30, channel=2, data=[54, 0]),
   midi.NoteOnEvent(tick=0, channel=2, data=[54, 127]),
   midi.NoteOnEvent(tick=30, channel=2, data=[54, 0]),
   midi.NoteOnEvent(tick=0, channel=2, data=[54, 127]),
   midi.NoteOnEvent(tick=30, channel=2, data=[54, 0]),
   midi.NoteOnEvent(tick=0, channel=2, data=[54, 127]),
   midi.NoteOnEvent(tick=60, channel=2, data=[54, 0]),
   midi.NoteOnEvent(tick=0, channel=2, data=[54, 127]),
   midi.NoteOnEvent(tick=30, channel=2, data=[54, 0]),
   midi.NoteOnEvent(tick=0, channel=2, data=[54, 127]),
   midi.NoteOnEvent(tick=30, channel=2, data=[54, 0]),
   midi.NoteOnEvent(tick=0, channel=2, data=[54, 127]),
   midi.NoteOnEvent(tick=60, channel=2, data=[54, 0]),
   midi.NoteOnEvent(tick=0, channel=2, data=[54, 127]),
   midi.NoteOnEvent(tick=60, channel=2, data=[54, 0]),
   midi.NoteOnEvent(tick=0, channel=2, data=[49, 127]),
   midi.NoteOnEvent(tick=60, channel=2, data=[49, 0]),
   midi.NoteOnEvent(tick=0, channel=2, data=[49, 127]),
   midi.NoteOnEvent(tick=60, channel=2, data=[49, 0]),
   midi.NoteOnEvent(tick=0, channel=2, data=[50, 127]),
   midi.NoteOnEvent(tick=60, channel=2, data=[50, 0]),
   midi.NoteOnEvent(tick=0, channel=2, data=[50, 127]),
   midi.NoteOnEvent(tick=60, channel=2, data=[50, 0]),
   midi.NoteOnEvent(tick=0, channel=2, data=[50, 127]),
   midi.NoteOnEvent(tick=60, channel=2, data=[50, 0]),
   midi.NoteOnEvent(tick=0, channel=2, data=[47, 127]),
   midi.NoteOnEvent(tick=30, channel=2, data=[47, 0]),
   midi.NoteOnEvent(tick=0, channel=2, data=[45, 127]),
   midi.NoteOnEvent(tick=30, channel=2, data=[45, 0]),
   midi.NoteOnEvent(tick=0, channel=2, data=[44, 127]),
   midi.NoteOnEvent(tick=60, channel=2, data=[44, 0]),
   midi.NoteOnEvent(tick=0, channel=2, data=[45, 127]),
   midi.NoteOnEvent(tick=30, channel=2, data=[45, 0]),
   midi.NoteOnEvent(tick=0, channel=2, data=[49, 127]),
   midi.NoteOnEvent(tick=30, channel=2, data=[49, 0]),
   midi.NoteOnEvent(tick=0, channel=2, data=[54, 127]),
   midi.NoteOnEvent(tick=540, channel=2, data=[54, 0]),
   midi.PitchWheelEvent(tick=10260, channel=2, data=[127, 127]),
   midi.NoteOnEvent(tick=0, channel=2, data=[57, 127]),
   midi.NoteOnEvent(tick=0, channel=2, data=[64, 127]),
   midi.PitchWheelEvent(tick=1, channel=2, data=[59, 127]),
   midi.PitchWheelEvent(tick=1, channel=2, data=[118, 126]),
   midi.PitchWheelEvent(tick=1, channel=2, data=[50, 126]),
   midi.PitchWheelEvent(tick=1, channel=2, data=[110, 125]),
   midi.PitchWheelEvent(tick=1, channel=2, data=[42, 125]),
   midi.PitchWheelEvent(tick=1, channel=2, data=[101, 124]),
   midi.PitchWheelEvent(tick=1, channel=2, data=[33, 124]),
   midi.PitchWheelEvent(tick=1, channel=2, data=[93, 123]),
   midi.PitchWheelEvent(tick=1, channel=2, data=[25, 123]),
   midi.PitchWheelEvent(tick=1, channel=2, data=[84, 122]),
   midi.PitchWheelEvent(tick=1, channel=2, data=[16, 122]),
   midi.PitchWheelEvent(tick=1, channel=2, data=[76, 121]),
   midi.PitchWheelEvent(tick=1, channel=2, data=[8, 121]),
   midi.PitchWheelEvent(tick=1, channel=2, data=[67, 120]),
   midi.PitchWheelEvent(tick=1, channel=2, data=[127, 119]),
   midi.PitchWheelEvent(tick=1, channel=2, data=[59, 119]),
   midi.PitchWheelEvent(tick=1, channel=2, data=[119, 118]),
   midi.PitchWheelEvent(tick=1, channel=2, data=[50, 118]),
   midi.PitchWheelEvent(tick=1, channel=2, data=[110, 117]),
   midi.PitchWheelEvent(tick=1, channel=2, data=[42, 117]),
   midi.PitchWheelEvent(tick=1, channel=2, data=[102, 116]),
   midi.PitchWheelEvent(tick=1, channel=2, data=[33, 116]),
   midi.PitchWheelEvent(tick=1, channel=2, data=[93, 115]),
   midi.PitchWheelEvent(tick=1, channel=2, data=[25, 115]),
   midi.PitchWheelEvent(tick=1, channel=2, data=[85, 114]),
   midi.PitchWheelEvent(tick=1, channel=2, data=[16, 114]),
   midi.PitchWheelEvent(tick=1, channel=2, data=[76, 113]),
   midi.PitchWheelEvent(tick=1, channel=2, data=[8, 113]),
   midi.PitchWheelEvent(tick=1, channel=2, data=[68, 112]),
   midi.PitchWheelEvent(tick=1, channel=2, data=[127, 111]),
   midi.PitchWheelEvent(tick=1, channel=2, data=[59, 111]),
   midi.PitchWheelEvent(tick=1, channel=2, data=[119, 110]),
   midi.PitchWheelEvent(tick=1, channel=2, data=[50, 110]),
   midi.PitchWheelEvent(tick=1, channel=2, data=[110, 109]),
   midi.PitchWheelEvent(tick=1, channel=2, data=[42, 109]),
   midi.PitchWheelEvent(tick=1, channel=2, data=[102, 108]),
   midi.PitchWheelEvent(tick=1, channel=2, data=[33, 108]),
   midi.PitchWheelEvent(tick=1, channel=2, data=[93, 107]),
   midi.PitchWheelEvent(tick=1, channel=2, data=[25, 107]),
   midi.PitchWheelEvent(tick=1, channel=2, data=[85, 106]),
   midi.PitchWheelEvent(tick=1, channel=2, data=[16, 106]),
   midi.PitchWheelEvent(tick=1, channel=2, data=[76, 105]),
   midi.PitchWheelEvent(tick=1, channel=2, data=[8, 105]),
   midi.PitchWheelEvent(tick=1, channel=2, data=[68, 104]),
   midi.PitchWheelEvent(tick=1, channel=2, data=[127, 103]),
   midi.PitchWheelEvent(tick=1, channel=2, data=[59, 103]),
   midi.PitchWheelEvent(tick=1, channel=2, data=[119, 102]),
   midi.PitchWheelEvent(tick=1, channel=2, data=[51, 102]),
   midi.PitchWheelEvent(tick=1, channel=2, data=[110, 101]),
   midi.PitchWheelEvent(tick=1, channel=2, data=[42, 101]),
   midi.PitchWheelEvent(tick=1, channel=2, data=[102, 100]),
   midi.PitchWheelEvent(tick=1, channel=2, data=[34, 100]),
   midi.PitchWheelEvent(tick=1, channel=2, data=[93, 99]),
   midi.PitchWheelEvent(tick=1, channel=2, data=[25, 99]),
   midi.PitchWheelEvent(tick=1, channel=2, data=[85, 98]),
   midi.PitchWheelEvent(tick=1, channel=2, data=[17, 98]),
   midi.PitchWheelEvent(tick=1, channel=2, data=[76, 97]),
   midi.PitchWheelEvent(tick=1, channel=2, data=[8, 97]),
   midi.PitchWheelEvent(tick=1, channel=2, data=[68, 96]),
   midi.PitchWheelEvent(tick=1, channel=2, data=[127, 95]),
   midi.PitchWheelEvent(tick=1, channel=2, data=[59, 95]),
   midi.PitchWheelEvent(tick=1, channel=2, data=[119, 94]),
   midi.PitchWheelEvent(tick=1, channel=2, data=[51, 94]),
   midi.PitchWheelEvent(tick=1, channel=2, data=[110, 93]),
   midi.PitchWheelEvent(tick=1, channel=2, data=[42, 93]),
   midi.PitchWheelEvent(tick=1, channel=2, data=[102, 92]),
   midi.PitchWheelEvent(tick=1, channel=2, data=[34, 92]),
   midi.PitchWheelEvent(tick=1, channel=2, data=[93, 91]),
   midi.PitchWheelEvent(tick=1, channel=2, data=[25, 91]),
   midi.PitchWheelEvent(tick=1, channel=2, data=[85, 90]),
   midi.PitchWheelEvent(tick=1, channel=2, data=[17, 90]),
   midi.PitchWheelEvent(tick=1, channel=2, data=[76, 89]),
   midi.PitchWheelEvent(tick=1, channel=2, data=[8, 89]),
   midi.PitchWheelEvent(tick=1, channel=2, data=[68, 88]),
   midi.PitchWheelEvent(tick=1, channel=2, data=[0, 88]),
   midi.PitchWheelEvent(tick=1, channel=2, data=[59, 87]),
   midi.PitchWheelEvent(tick=1, channel=2, data=[119, 86]),
   midi.PitchWheelEvent(tick=1, channel=2, data=[51, 86]),
   midi.PitchWheelEvent(tick=1, channel=2, data=[111, 85]),
   midi.PitchWheelEvent(tick=1, channel=2, data=[42, 85]),
   midi.PitchWheelEvent(tick=1, channel=2, data=[102, 84]),
   midi.PitchWheelEvent(tick=1, channel=2, data=[34, 84]),
   midi.PitchWheelEvent(tick=1, channel=2, data=[94, 83]),
   midi.PitchWheelEvent(tick=1, channel=2, data=[25, 83]),
   midi.PitchWheelEvent(tick=1, channel=2, data=[85, 82]),
   midi.PitchWheelEvent(tick=1, channel=2, data=[17, 82]),
   midi.PitchWheelEvent(tick=1, channel=2, data=[77, 81]),
   midi.PitchWheelEvent(tick=1, channel=2, data=[8, 81]),
   midi.PitchWheelEvent(tick=1, channel=2, data=[68, 80]),
   midi.PitchWheelEvent(tick=1, channel=2, data=[0, 80]),
   midi.PitchWheelEvent(tick=1, channel=2, data=[59, 79]),
   midi.PitchWheelEvent(tick=1, channel=2, data=[119, 78]),
   midi.PitchWheelEvent(tick=1, channel=2, data=[51, 78]),
   midi.PitchWheelEvent(tick=1, channel=2, data=[111, 77]),
   midi.PitchWheelEvent(tick=1, channel=2, data=[42, 77]),
   midi.PitchWheelEvent(tick=1, channel=2, data=[102, 76]),
   midi.PitchWheelEvent(tick=1, channel=2, data=[34, 76]),
   midi.PitchWheelEvent(tick=1, channel=2, data=[94, 75]),
   midi.PitchWheelEvent(tick=1, channel=2, data=[25, 75]),
   midi.PitchWheelEvent(tick=1, channel=2, data=[85, 74]),
   midi.PitchWheelEvent(tick=1, channel=2, data=[17, 74]),
   midi.PitchWheelEvent(tick=1, channel=2, data=[77, 73]),
   midi.PitchWheelEvent(tick=1, channel=2, data=[8, 73]),
   midi.PitchWheelEvent(tick=1, channel=2, data=[68, 72]),
   midi.PitchWheelEvent(tick=1, channel=2, data=[0, 72]),
   midi.PitchWheelEvent(tick=1, channel=2, data=[60, 71]),
   midi.PitchWheelEvent(tick=1, channel=2, data=[119, 70]),
   midi.PitchWheelEvent(tick=1, channel=2, data=[51, 70]),
   midi.PitchWheelEvent(tick=1, channel=2, data=[111, 69]),
   midi.PitchWheelEvent(tick=1, channel=2, data=[43, 69]),
   midi.PitchWheelEvent(tick=1, channel=2, data=[102, 68]),
   midi.PitchWheelEvent(tick=1, channel=2, data=[34, 68]),
   midi.PitchWheelEvent(tick=1, channel=2, data=[94, 67]),
   midi.PitchWheelEvent(tick=1, channel=2, data=[26, 67]),
   midi.PitchWheelEvent(tick=1, channel=2, data=[85, 66]),
   midi.PitchWheelEvent(tick=1, channel=2, data=[17, 66]),
   midi.PitchWheelEvent(tick=1, channel=2, data=[77, 65]),
   midi.PitchWheelEvent(tick=1, channel=2, data=[9, 65]),
   midi.PitchWheelEvent(tick=1, channel=2, data=[68, 64]),
   midi.PitchWheelEvent(tick=1, channel=2, data=[0, 64]),
   midi.NoteOnEvent(tick=60, channel=2, data=[57, 0]),
   midi.NoteOnEvent(tick=0, channel=2, data=[64, 0]),
   midi.NoteOnEvent(tick=0, channel=2, data=[55, 127]),
   midi.NoteOnEvent(tick=0, channel=2, data=[64, 127]),
   midi.NoteOnEvent(tick=180, channel=2, data=[55, 0]),
   midi.NoteOnEvent(tick=30, channel=2, data=[64, 0]),
   midi.NoteOnEvent(tick=0, channel=2, data=[57, 127]),
   midi.NoteOnEvent(tick=30, channel=2, data=[57, 0]),
   midi.NoteOnEvent(tick=0, channel=2, data=[57, 127]),
   midi.NoteOnEvent(tick=30, channel=2, data=[57, 0]),
   midi.NoteOnEvent(tick=0, channel=2, data=[64, 127]),
   midi.NoteOnEvent(tick=30, channel=2, data=[64, 0]),
   midi.NoteOnEvent(tick=0, channel=2, data=[55, 127]),
   midi.NoteOnEvent(tick=30, channel=2, data=[55, 0]),
   midi.NoteOnEvent(tick=0, channel=2, data=[64, 127]),
   midi.NoteOnEvent(tick=30, channel=2, data=[64, 0]),
   midi.NoteOnEvent(tick=0, channel=2, data=[54, 127]),
   midi.NoteOnEvent(tick=30, channel=2, data=[54, 0]),
   midi.NoteOnEvent(tick=0, channel=2, data=[55, 127]),
   midi.NoteOnEvent(tick=30, channel=2, data=[55, 0]),
   midi.NoteOnEvent(tick=0, channel=2, data=[57, 127]),
   midi.NoteOnEvent(tick=30, channel=2, data=[57, 0]),
   midi.NoteOnEvent(tick=0, channel=2, data=[59, 127]),
   midi.NoteOnEvent(tick=30, channel=2, data=[59, 0]),
   midi.NoteOnEvent(tick=0, channel=2, data=[60, 127]),
   midi.NoteOnEvent(tick=15, channel=2, data=[60, 0]),
   midi.NoteOnEvent(tick=0, channel=2, data=[59, 127]),
   midi.NoteOnEvent(tick=15, channel=2, data=[59, 0]),
   midi.NoteOnEvent(tick=0, channel=2, data=[57, 127]),
   midi.NoteOnEvent(tick=15, channel=2, data=[57, 0]),
   midi.NoteOnEvent(tick=0, channel=2, data=[59, 127]),
   midi.NoteOnEvent(tick=15, channel=2, data=[59, 0]),
   midi.NoteOnEvent(tick=0, channel=2, data=[60, 127]),
   midi.NoteOnEvent(tick=15, channel=2, data=[60, 0]),
   midi.NoteOnEvent(tick=0, channel=2, data=[59, 127]),
   midi.NoteOnEvent(tick=15, channel=2, data=[59, 0]),
   midi.NoteOnEvent(tick=0, channel=2, data=[57, 127]),
   midi.NoteOnEvent(tick=15, channel=2, data=[57, 0]),
   midi.NoteOnEvent(tick=0, channel=2, data=[59, 127]),
   midi.NoteOnEvent(tick=15, channel=2, data=[59, 0]),
   midi.NoteOnEvent(tick=0, channel=2, data=[60, 127]),
   midi.NoteOnEvent(tick=15, channel=2, data=[60, 0]),
   midi.NoteOnEvent(tick=0, channel=2, data=[59, 127]),
   midi.NoteOnEvent(tick=15, channel=2, data=[59, 0]),
   midi.NoteOnEvent(tick=0, channel=2, data=[57, 127]),
   midi.NoteOnEvent(tick=15, channel=2, data=[57, 0]),
   midi.NoteOnEvent(tick=0, channel=2, data=[59, 127]),
   midi.NoteOnEvent(tick=15, channel=2, data=[59, 0]),
   midi.NoteOnEvent(tick=0, channel=2, data=[60, 127]),
   midi.NoteOnEvent(tick=15, channel=2, data=[60, 0]),
   midi.NoteOnEvent(tick=0, channel=2, data=[59, 127]),
   midi.NoteOnEvent(tick=15, channel=2, data=[59, 0]),
   midi.NoteOnEvent(tick=0, channel=2, data=[57, 127]),
   midi.NoteOnEvent(tick=15, channel=2, data=[57, 0]),
   midi.NoteOnEvent(tick=0, channel=2, data=[59, 127]),
   midi.NoteOnEvent(tick=15, channel=2, data=[59, 0]),
   midi.NoteOnEvent(tick=0, channel=2, data=[55, 127]),
   midi.NoteOnEvent(tick=210, channel=2, data=[55, 0]),
   midi.NoteOnEvent(tick=0, channel=2, data=[59, 127]),
   midi.NoteOnEvent(tick=15, channel=2, data=[59, 0]),
   midi.NoteOnEvent(tick=0, channel=2, data=[60, 127]),
   midi.NoteOnEvent(tick=15, channel=2, data=[60, 0]),
   midi.NoteOnEvent(tick=0, channel=2, data=[62, 127]),
   midi.NoteOnEvent(tick=30, channel=2, data=[62, 0]),
   midi.NoteOnEvent(tick=0, channel=2, data=[60, 127]),
   midi.NoteOnEvent(tick=30, channel=2, data=[60, 0]),
   midi.NoteOnEvent(tick=0, channel=2, data=[59, 127]),
   midi.NoteOnEvent(tick=30, channel=2, data=[59, 0]),
   midi.NoteOnEvent(tick=0, channel=2, data=[60, 127]),
   midi.NoteOnEvent(tick=30, channel=2, data=[60, 0]),
   midi.NoteOnEvent(tick=0, channel=2, data=[60, 127]),
   midi.NoteOnEvent(tick=15, channel=2, data=[60, 0]),
   midi.NoteOnEvent(tick=0, channel=2, data=[59, 127]),
   midi.NoteOnEvent(tick=15, channel=2, data=[59, 0]),
   midi.NoteOnEvent(tick=0, channel=2, data=[57, 127]),
   midi.NoteOnEvent(tick=30, channel=2, data=[57, 0]),
   midi.NoteOnEvent(tick=0, channel=2, data=[59, 127]),
   midi.NoteOnEvent(tick=30, channel=2, data=[59, 0]),
   midi.NoteOnEvent(tick=0, channel=2, data=[60, 127]),
   midi.NoteOnEvent(tick=30, channel=2, data=[60, 0]),
   midi.NoteOnEvent(tick=0, channel=2, data=[59, 127]),
   midi.NoteOnEvent(tick=30, channel=2, data=[59, 0]),
   midi.NoteOnEvent(tick=0, channel=2, data=[60, 127]),
   midi.NoteOnEvent(tick=30, channel=2, data=[60, 0]),
   midi.NoteOnEvent(tick=0, channel=2, data=[59, 127]),
   midi.NoteOnEvent(tick=30, channel=2, data=[59, 0]),
   midi.NoteOnEvent(tick=0, channel=2, data=[55, 127]),
   midi.NoteOnEvent(tick=30, channel=2, data=[55, 0]),
   midi.NoteOnEvent(tick=0, channel=2, data=[52, 127]),
   midi.NoteOnEvent(tick=30, channel=2, data=[52, 0]),
   midi.NoteOnEvent(tick=0, channel=2, data=[59, 127]),
   midi.NoteOnEvent(tick=30, channel=2, data=[59, 0]),
   midi.NoteOnEvent(tick=0, channel=2, data=[55, 127]),
   midi.NoteOnEvent(tick=30, channel=2, data=[55, 0]),
   midi.NoteOnEvent(tick=0, channel=2, data=[52, 127]),
   midi.NoteOnEvent(tick=30, channel=2, data=[52, 0]),
   midi.NoteOnEvent(tick=0, channel=2, data=[55, 127]),
   midi.NoteOnEvent(tick=30, channel=2, data=[55, 0]),
   midi.NoteOnEvent(tick=0, channel=2, data=[52, 127]),
   midi.NoteOnEvent(tick=30, channel=2, data=[52, 0]),
   midi.NoteOnEvent(tick=0, channel=2, data=[48, 127]),
   midi.NoteOnEvent(tick=30, channel=2, data=[48, 0]),
   midi.NoteOnEvent(tick=0, channel=2, data=[55, 127]),
   midi.NoteOnEvent(tick=30, channel=2, data=[55, 0]),
   midi.NoteOnEvent(tick=0, channel=2, data=[52, 127]),
   midi.NoteOnEvent(tick=30, channel=2, data=[52, 0]),
   midi.NoteOnEvent(tick=0, channel=2, data=[48, 127]),
   midi.NoteOnEvent(tick=30, channel=2, data=[48, 0]),
   midi.NoteOnEvent(tick=0, channel=2, data=[57, 127]),
   midi.NoteOnEvent(tick=30, channel=2, data=[57, 0]),
   midi.NoteOnEvent(tick=0, channel=2, data=[54, 127]),
   midi.NoteOnEvent(tick=30, channel=2, data=[54, 0]),
   midi.NoteOnEvent(tick=0, channel=2, data=[50, 127]),
   midi.NoteOnEvent(tick=30, channel=2, data=[50, 0]),
   midi.NoteOnEvent(tick=0, channel=2, data=[57, 127]),
   midi.NoteOnEvent(tick=30, channel=2, data=[57, 0]),
   midi.NoteOnEvent(tick=0, channel=2, data=[54, 127]),
   midi.NoteOnEvent(tick=30, channel=2, data=[54, 0]),
   midi.NoteOnEvent(tick=0, channel=2, data=[50, 127]),
   midi.NoteOnEvent(tick=30, channel=2, data=[50, 0]),
   midi.NoteOnEvent(tick=0, channel=2, data=[54, 127]),
   midi.NoteOnEvent(tick=30, channel=2, data=[54, 0]),
   midi.NoteOnEvent(tick=0, channel=2, data=[50, 127]),
   midi.NoteOnEvent(tick=30, channel=2, data=[50, 0]),
   midi.NoteOnEvent(tick=0, channel=2, data=[47, 127]),
   midi.NoteOnEvent(tick=30, channel=2, data=[47, 0]),
   midi.NoteOnEvent(tick=0, channel=2, data=[50, 127]),
   midi.NoteOnEvent(tick=30, channel=2, data=[50, 0]),
   midi.NoteOnEvent(tick=0, channel=2, data=[54, 127]),
   midi.NoteOnEvent(tick=30, channel=2, data=[54, 0]),
   midi.NoteOnEvent(tick=0, channel=2, data=[50, 127]),
   midi.NoteOnEvent(tick=30, channel=2, data=[50, 0]),
   midi.PitchWheelEvent(tick=0, channel=2, data=[0, 64]),
   midi.NoteOnEvent(tick=0, channel=2, data=[57, 127]),
   midi.PitchWheelEvent(tick=1, channel=2, data=[51, 70]),
   midi.PitchWheelEvent(tick=1, channel=2, data=[102, 76]),
   midi.PitchWheelEvent(tick=1, channel=2, data=[25, 83]),
   midi.PitchWheelEvent(tick=1, channel=2, data=[76, 89]),
   midi.PitchWheelEvent(tick=1, channel=2, data=[0, 96]),
   midi.PitchWheelEvent(tick=1, channel=2, data=[51, 102]),
   midi.PitchWheelEvent(tick=1, channel=2, data=[102, 108]),
   midi.PitchWheelEvent(tick=1, channel=2, data=[25, 115]),
   midi.PitchWheelEvent(tick=1, channel=2, data=[76, 121]),
   midi.PitchWheelEvent(tick=1, channel=2, data=[127, 127]),
   midi.NoteOnEvent(tick=50, channel=2, data=[57, 0]),
   midi.PitchWheelEvent(tick=0, channel=2, data=[0, 64]),
   midi.NoteOnEvent(tick=0, channel=2, data=[57, 127]),
   midi.NoteOnEvent(tick=30, channel=2, data=[57, 0]),
   midi.NoteOnEvent(tick=0, channel=2, data=[55, 127]),
   midi.NoteOnEvent(tick=30, channel=2, data=[55, 0]),
   midi.PitchWheelEvent(tick=0, channel=2, data=[0, 64]),
   midi.NoteOnEvent(tick=0, channel=2, data=[57, 127]),
   midi.PitchWheelEvent(tick=1, channel=2, data=[34, 68]),
   midi.PitchWheelEvent(tick=1, channel=2, data=[68, 72]),
   midi.PitchWheelEvent(tick=1, channel=2, data=[102, 76]),
   midi.PitchWheelEvent(tick=1, channel=2, data=[8, 81]),
   midi.PitchWheelEvent(tick=1, channel=2, data=[42, 85]),
   midi.PitchWheelEvent(tick=1, channel=2, data=[76, 89]),
   midi.PitchWheelEvent(tick=1, channel=2, data=[110, 93]),
   midi.PitchWheelEvent(tick=1, channel=2, data=[17, 98]),
   midi.PitchWheelEvent(tick=1, channel=2, data=[51, 102]),
   midi.PitchWheelEvent(tick=1, channel=2, data=[85, 106]),
   midi.PitchWheelEvent(tick=1, channel=2, data=[119, 110]),
   midi.PitchWheelEvent(tick=1, channel=2, data=[25, 115]),
   midi.PitchWheelEvent(tick=1, channel=2, data=[59, 119]),
   midi.PitchWheelEvent(tick=1, channel=2, data=[93, 123]),
   midi.PitchWheelEvent(tick=1, channel=2, data=[127, 127]),
   midi.PitchWheelEvent(tick=0, channel=2, data=[127, 127]),
   midi.PitchWheelEvent(tick=1, channel=2, data=[93, 123]),
   midi.PitchWheelEvent(tick=1, channel=2, data=[59, 119]),
   midi.PitchWheelEvent(tick=1, channel=2, data=[25, 115]),
   midi.PitchWheelEvent(tick=1, channel=2, data=[119, 110]),
   midi.PitchWheelEvent(tick=1, channel=2, data=[85, 106]),
   midi.PitchWheelEvent(tick=1, channel=2, data=[51, 102]),
   midi.PitchWheelEvent(tick=1, channel=2, data=[17, 98]),
   midi.PitchWheelEvent(tick=1, channel=2, data=[110, 93]),
   midi.PitchWheelEvent(tick=1, channel=2, data=[76, 89]),
   midi.PitchWheelEvent(tick=1, channel=2, data=[42, 85]),
   midi.PitchWheelEvent(tick=1, channel=2, data=[8, 81]),
   midi.PitchWheelEvent(tick=1, channel=2, data=[102, 76]),
   midi.PitchWheelEvent(tick=1, channel=2, data=[68, 72]),
   midi.PitchWheelEvent(tick=1, channel=2, data=[34, 68]),
   midi.PitchWheelEvent(tick=1, channel=2, data=[0, 64]),
   midi.NoteOnEvent(tick=30, channel=2, data=[57, 0]),
   midi.NoteOnEvent(tick=0, channel=2, data=[55, 127]),
   midi.NoteOnEvent(tick=30, channel=2, data=[55, 0]),
   midi.NoteOnEvent(tick=0, channel=2, data=[57, 127]),
   midi.NoteOnEvent(tick=30, channel=2, data=[57, 0]),
   midi.NoteOnEvent(tick=0, channel=2, data=[57, 127]),
   midi.NoteOnEvent(tick=15, channel=2, data=[57, 0]),
   midi.NoteOnEvent(tick=0, channel=2, data=[55, 127]),
   midi.NoteOnEvent(tick=15, channel=2, data=[55, 0]),
   midi.NoteOnEvent(tick=0, channel=2, data=[54, 127]),
   midi.NoteOnEvent(tick=30, channel=2, data=[54, 0]),
   midi.NoteOnEvent(tick=0, channel=2, data=[55, 127]),
   midi.NoteOnEvent(tick=30, channel=2, data=[55, 0]),
   midi.NoteOnEvent(tick=0, channel=2, data=[54, 127]),
   midi.NoteOnEvent(tick=30, channel=2, data=[54, 0]),
   midi.NoteOnEvent(tick=0, channel=2, data=[55, 127]),
   midi.NoteOnEvent(tick=30, channel=2, data=[55, 0]),
   midi.NoteOnEvent(tick=0, channel=2, data=[54, 127]),
   midi.NoteOnEvent(tick=10, channel=2, data=[54, 0]),
   midi.NoteOnEvent(tick=0, channel=2, data=[55, 127]),
   midi.NoteOnEvent(tick=10, channel=2, data=[55, 0]),
   midi.NoteOnEvent(tick=0, channel=2, data=[54, 127]),
   midi.NoteOnEvent(tick=10, channel=2, data=[54, 0]),
   midi.NoteOnEvent(tick=0, channel=2, data=[52, 127]),
   midi.NoteOnEvent(tick=30, channel=2, data=[52, 0]),
   midi.NoteOnEvent(tick=0, channel=2, data=[54, 127]),
   midi.NoteOnEvent(tick=30, channel=2, data=[54, 0]),
   midi.NoteOnEvent(tick=0, channel=2, data=[52, 127]),
   midi.NoteOnEvent(tick=30, channel=2, data=[52, 0]),
   midi.NoteOnEvent(tick=0, channel=2, data=[50, 127]),
   midi.NoteOnEvent(tick=30, channel=2, data=[50, 0]),
   midi.NoteOnEvent(tick=0, channel=2, data=[52, 127]),
   midi.NoteOnEvent(tick=30, channel=2, data=[52, 0]),
   midi.NoteOnEvent(tick=0, channel=2, data=[50, 127]),
   midi.NoteOnEvent(tick=30, channel=2, data=[50, 0]),
   midi.NoteOnEvent(tick=0, channel=2, data=[48, 127]),
   midi.NoteOnEvent(tick=30, channel=2, data=[48, 0]),
   midi.NoteOnEvent(tick=0, channel=2, data=[50, 127]),
   midi.NoteOnEvent(tick=30, channel=2, data=[50, 0]),
   midi.NoteOnEvent(tick=0, channel=2, data=[43, 127]),
   midi.NoteOnEvent(tick=30, channel=2, data=[43, 0]),
   midi.NoteOnEvent(tick=0, channel=2, data=[42, 127]),
   midi.NoteOnEvent(tick=30, channel=2, data=[42, 0]),
   midi.NoteOnEvent(tick=0, channel=2, data=[40, 127]),
   midi.NoteOnEvent(tick=30, channel=2, data=[40, 0]),
   midi.NoteOnEvent(tick=0, channel=2, data=[40, 127]),
   midi.NoteOnEvent(tick=30, channel=2, data=[40, 0]),
   midi.NoteOnEvent(tick=7800, channel=2, data=[57, 127]),
   midi.NoteOnEvent(tick=30, channel=2, data=[57, 0]),
   midi.NoteOnEvent(tick=0, channel=2, data=[59, 127]),
   midi.NoteOnEvent(tick=30, channel=2, data=[59, 0]),
   midi.NoteOnEvent(tick=120, channel=2, data=[57, 127]),
   midi.NoteOnEvent(tick=30, channel=2, data=[57, 0]),
   midi.NoteOnEvent(tick=0, channel=2, data=[59, 127]),
   midi.NoteOnEvent(tick=30, channel=2, data=[59, 0]),
   midi.NoteOnEvent(tick=60, channel=2, data=[57, 127]),
   midi.NoteOnEvent(tick=30, channel=2, data=[57, 0]),
   midi.NoteOnEvent(tick=0, channel=2, data=[59, 127]),
   midi.NoteOnEvent(tick=30, channel=2, data=[59, 0]),
   midi.NoteOnEvent(tick=120, channel=2, data=[57, 127]),
   midi.NoteOnEvent(tick=30, channel=2, data=[57, 0]),
   midi.NoteOnEvent(tick=0, channel=2, data=[59, 127]),
   midi.NoteOnEvent(tick=30, channel=2, data=[59, 0]),
   midi.NoteOnEvent(tick=120, channel=2, data=[57, 127]),
   midi.NoteOnEvent(tick=30, channel=2, data=[57, 0]),
   midi.NoteOnEvent(tick=0, channel=2, data=[59, 127]),
   midi.NoteOnEvent(tick=30, channel=2, data=[59, 0]),
   midi.NoteOnEvent(tick=60, channel=2, data=[62, 127]),
   midi.NoteOnEvent(tick=30, channel=2, data=[62, 0]),
   midi.NoteOnEvent(tick=0, channel=2, data=[61, 127]),
   midi.NoteOnEvent(tick=30, channel=2, data=[61, 0]),
   midi.NoteOnEvent(tick=0, channel=2, data=[59, 127]),
   midi.NoteOnEvent(tick=30, channel=2, data=[59, 0]),
   midi.NoteOnEvent(tick=0, channel=2, data=[62, 127]),
   midi.NoteOnEvent(tick=30, channel=2, data=[62, 0]),
   midi.NoteOnEvent(tick=0, channel=2, data=[61, 127]),
   midi.NoteOnEvent(tick=30, channel=2, data=[61, 0]),
   midi.NoteOnEvent(tick=0, channel=2, data=[59, 127]),
   midi.NoteOnEvent(tick=30, channel=2, data=[59, 0]),
   midi.NoteOnEvent(tick=0, channel=2, data=[62, 127]),
   midi.NoteOnEvent(tick=20, channel=2, data=[62, 0]),
   midi.NoteOnEvent(tick=0, channel=2, data=[61, 127]),
   midi.NoteOnEvent(tick=20, channel=2, data=[61, 0]),
   midi.NoteOnEvent(tick=0, channel=2, data=[59, 127]),
   midi.NoteOnEvent(tick=20, channel=2, data=[59, 0]),
   midi.NoteOnEvent(tick=0, channel=2, data=[62, 127]),
   midi.NoteOnEvent(tick=30, channel=2, data=[62, 0]),
   midi.NoteOnEvent(tick=0, channel=2, data=[61, 127]),
   midi.NoteOnEvent(tick=30, channel=2, data=[61, 0]),
   midi.NoteOnEvent(tick=0, channel=2, data=[59, 127]),
   midi.NoteOnEvent(tick=30, channel=2, data=[59, 0]),
   midi.NoteOnEvent(tick=0, channel=2, data=[62, 127]),
   midi.NoteOnEvent(tick=30, channel=2, data=[62, 0]),
   midi.NoteOnEvent(tick=0, channel=2, data=[61, 127]),
   midi.NoteOnEvent(tick=30, channel=2, data=[61, 0]),
   midi.NoteOnEvent(tick=0, channel=2, data=[59, 127]),
   midi.NoteOnEvent(tick=30, channel=2, data=[59, 0]),
   midi.NoteOnEvent(tick=0, channel=2, data=[62, 127]),
   midi.NoteOnEvent(tick=30, channel=2, data=[62, 0]),
   midi.NoteOnEvent(tick=0, channel=2, data=[61, 127]),
   midi.NoteOnEvent(tick=30, channel=2, data=[61, 0]),
   midi.NoteOnEvent(tick=0, channel=2, data=[59, 127]),
   midi.NoteOnEvent(tick=30, channel=2, data=[59, 0]),
   midi.NoteOnEvent(tick=0, channel=2, data=[57, 127]),
   midi.NoteOnEvent(tick=30, channel=2, data=[57, 0]),
   midi.NoteOnEvent(tick=0, channel=2, data=[55, 127]),
   midi.NoteOnEvent(tick=30, channel=2, data=[55, 0]),
   midi.NoteOnEvent(tick=0, channel=2, data=[59, 127]),
   midi.NoteOnEvent(tick=30, channel=2, data=[59, 0]),
   midi.NoteOnEvent(tick=0, channel=2, data=[57, 127]),
   midi.NoteOnEvent(tick=30, channel=2, data=[57, 0]),
   midi.NoteOnEvent(tick=0, channel=2, data=[55, 127]),
   midi.NoteOnEvent(tick=30, channel=2, data=[55, 0]),
   midi.NoteOnEvent(tick=0, channel=2, data=[59, 127]),
   midi.NoteOnEvent(tick=30, channel=2, data=[59, 0]),
   midi.NoteOnEvent(tick=0, channel=2, data=[57, 127]),
   midi.NoteOnEvent(tick=30, channel=2, data=[57, 0]),
   midi.NoteOnEvent(tick=0, channel=2, data=[57, 127]),
   midi.NoteOnEvent(tick=60, channel=2, data=[57, 0]),
   midi.NoteOnEvent(tick=0, channel=2, data=[52, 127]),
   midi.NoteOnEvent(tick=60, channel=2, data=[52, 0]),
   midi.ControlChangeEvent(tick=0, channel=2, data=[1, 0]),
   midi.NoteOnEvent(tick=0, channel=2, data=[52, 127]),
   midi.ControlChangeEvent(tick=1, channel=2, data=[1, 6]),
   midi.ControlChangeEvent(tick=1, channel=2, data=[1, 13]),
   midi.ControlChangeEvent(tick=1, channel=2, data=[1, 19]),
   midi.ControlChangeEvent(tick=1, channel=2, data=[1, 26]),
   midi.ControlChangeEvent(tick=1, channel=2, data=[1, 32]),
   midi.ControlChangeEvent(tick=1, channel=2, data=[1, 38]),
   midi.ControlChangeEvent(tick=1, channel=2, data=[1, 45]),
   midi.ControlChangeEvent(tick=1, channel=2, data=[1, 51]),
   midi.ControlChangeEvent(tick=1, channel=2, data=[1, 58]),
   midi.ControlChangeEvent(tick=1, channel=2, data=[1, 64]),
   midi.NoteOnEvent(tick=350, channel=2, data=[52, 0]),
   midi.ControlChangeEvent(tick=0, channel=2, data=[1, 0]),
   midi.ControlChangeEvent(tick=4560, channel=2, data=[7, 99]),
   midi.ControlChangeEvent(tick=58, channel=2, data=[7, 98]),
   midi.ControlChangeEvent(tick=58, channel=2, data=[7, 97]),
   midi.ControlChangeEvent(tick=59, channel=2, data=[7, 96]),
   midi.ControlChangeEvent(tick=58, channel=2, data=[7, 95]),
   midi.ControlChangeEvent(tick=58, channel=2, data=[7, 94]),
   midi.ControlChangeEvent(tick=58, channel=2, data=[7, 93]),
   midi.ControlChangeEvent(tick=58, channel=2, data=[7, 92]),
   midi.ControlChangeEvent(tick=58, channel=2, data=[7, 91]),
   midi.ControlChangeEvent(tick=59, channel=2, data=[7, 90]),
   midi.ControlChangeEvent(tick=58, channel=2, data=[7, 89]),
   midi.ControlChangeEvent(tick=58, channel=2, data=[7, 88]),
   midi.ControlChangeEvent(tick=58, channel=2, data=[7, 87]),
   midi.ControlChangeEvent(tick=58, channel=2, data=[7, 86]),
   midi.ControlChangeEvent(tick=58, channel=2, data=[7, 85]),
   midi.ControlChangeEvent(tick=59, channel=2, data=[7, 84]),
   midi.ControlChangeEvent(tick=58, channel=2, data=[7, 83]),
   midi.ControlChangeEvent(tick=58, channel=2, data=[7, 82]),
   midi.ControlChangeEvent(tick=58, channel=2, data=[7, 81]),
   midi.ControlChangeEvent(tick=58, channel=2, data=[7, 80]),
   midi.ControlChangeEvent(tick=58, channel=2, data=[7, 79]),
   midi.ControlChangeEvent(tick=59, channel=2, data=[7, 78]),
   midi.ControlChangeEvent(tick=58, channel=2, data=[7, 77]),
   midi.ControlChangeEvent(tick=58, channel=2, data=[7, 76]),
   midi.ControlChangeEvent(tick=58, channel=2, data=[7, 75]),
   midi.ControlChangeEvent(tick=58, channel=2, data=[7, 74]),
   midi.ControlChangeEvent(tick=58, channel=2, data=[7, 73]),
   midi.ControlChangeEvent(tick=59, channel=2, data=[7, 72]),
   midi.ControlChangeEvent(tick=58, channel=2, data=[7, 71]),
   midi.ControlChangeEvent(tick=58, channel=2, data=[7, 70]),
   midi.ControlChangeEvent(tick=58, channel=2, data=[7, 69]),
   midi.ControlChangeEvent(tick=58, channel=2, data=[7, 68]),
   midi.ControlChangeEvent(tick=58, channel=2, data=[7, 67]),
   midi.ControlChangeEvent(tick=59, channel=2, data=[7, 66]),
   midi.ControlChangeEvent(tick=58, channel=2, data=[7, 65]),
   midi.ControlChangeEvent(tick=58, channel=2, data=[7, 64]),
   midi.ControlChangeEvent(tick=58, channel=2, data=[7, 63]),
   midi.ControlChangeEvent(tick=58, channel=2, data=[7, 62]),
   midi.ControlChangeEvent(tick=59, channel=2, data=[7, 61]),
   midi.ControlChangeEvent(tick=58, channel=2, data=[7, 60]),
   midi.ControlChangeEvent(tick=58, channel=2, data=[7, 59]),
   midi.ControlChangeEvent(tick=58, channel=2, data=[7, 58]),
   midi.ControlChangeEvent(tick=58, channel=2, data=[7, 57]),
   midi.ControlChangeEvent(tick=58, channel=2, data=[7, 56]),
   midi.ControlChangeEvent(tick=59, channel=2, data=[7, 55]),
   midi.ControlChangeEvent(tick=58, channel=2, data=[7, 54]),
   midi.ControlChangeEvent(tick=58, channel=2, data=[7, 53]),
   midi.ControlChangeEvent(tick=58, channel=2, data=[7, 52]),
   midi.ControlChangeEvent(tick=58, channel=2, data=[7, 51]),
   midi.ControlChangeEvent(tick=58, channel=2, data=[7, 50]),
   midi.ControlChangeEvent(tick=59, channel=2, data=[7, 49]),
   midi.ControlChangeEvent(tick=58, channel=2, data=[7, 48]),
   midi.ControlChangeEvent(tick=58, channel=2, data=[7, 47]),
   midi.ControlChangeEvent(tick=58, channel=2, data=[7, 46]),
   midi.ControlChangeEvent(tick=58, channel=2, data=[7, 45]),
   midi.ControlChangeEvent(tick=58, channel=2, data=[7, 44]),
   midi.ControlChangeEvent(tick=59, channel=2, data=[7, 43]),
   midi.ControlChangeEvent(tick=58, channel=2, data=[7, 42]),
   midi.ControlChangeEvent(tick=58, channel=2, data=[7, 41]),
   midi.ControlChangeEvent(tick=58, channel=2, data=[7, 40]),
   midi.ControlChangeEvent(tick=58, channel=2, data=[7, 39]),
   midi.ControlChangeEvent(tick=58, channel=2, data=[7, 38]),
   midi.ControlChangeEvent(tick=59, channel=2, data=[7, 37]),
   midi.ControlChangeEvent(tick=58, channel=2, data=[7, 36]),
   midi.ControlChangeEvent(tick=58, channel=2, data=[7, 35]),
   midi.ControlChangeEvent(tick=58, channel=2, data=[7, 34]),
   midi.ControlChangeEvent(tick=58, channel=2, data=[7, 33]),
   midi.ControlChangeEvent(tick=59, channel=2, data=[7, 32]),
   midi.ControlChangeEvent(tick=58, channel=2, data=[7, 31]),
   midi.ControlChangeEvent(tick=58, channel=2, data=[7, 30]),
   midi.ControlChangeEvent(tick=58, channel=2, data=[7, 29]),
   midi.ControlChangeEvent(tick=58, channel=2, data=[7, 28]),
   midi.ControlChangeEvent(tick=58, channel=2, data=[7, 27]),
   midi.ControlChangeEvent(tick=59, channel=2, data=[7, 26]),
   midi.ControlChangeEvent(tick=58, channel=2, data=[7, 25]),
   midi.ControlChangeEvent(tick=58, channel=2, data=[7, 24]),
   midi.ControlChangeEvent(tick=58, channel=2, data=[7, 23]),
   midi.ControlChangeEvent(tick=58, channel=2, data=[7, 22]),
   midi.ControlChangeEvent(tick=58, channel=2, data=[7, 21]),
   midi.ControlChangeEvent(tick=59, channel=2, data=[7, 20]),
   midi.ControlChangeEvent(tick=58, channel=2, data=[7, 19]),
   midi.ControlChangeEvent(tick=58, channel=2, data=[7, 18]),
   midi.ControlChangeEvent(tick=58, channel=2, data=[7, 17]),
   midi.ControlChangeEvent(tick=58, channel=2, data=[7, 16]),
   midi.ControlChangeEvent(tick=58, channel=2, data=[7, 15]),
   midi.ControlChangeEvent(tick=59, channel=2, data=[7, 14]),
   midi.ControlChangeEvent(tick=58, channel=2, data=[7, 13]),
   midi.ControlChangeEvent(tick=58, channel=2, data=[7, 12]),
   midi.ControlChangeEvent(tick=58, channel=2, data=[7, 11]),
   midi.ControlChangeEvent(tick=58, channel=2, data=[7, 10]),
   midi.ControlChangeEvent(tick=58, channel=2, data=[7, 9]),
   midi.ControlChangeEvent(tick=59, channel=2, data=[7, 8]),
   midi.ControlChangeEvent(tick=58, channel=2, data=[7, 7]),
   midi.ControlChangeEvent(tick=58, channel=2, data=[7, 6]),
   midi.ControlChangeEvent(tick=58, channel=2, data=[7, 5]),
   midi.ControlChangeEvent(tick=58, channel=2, data=[7, 4]),
   midi.ControlChangeEvent(tick=58, channel=2, data=[7, 3]),
   midi.ControlChangeEvent(tick=59, channel=2, data=[7, 2]),
   midi.ControlChangeEvent(tick=58, channel=2, data=[7, 1]),
   midi.ControlChangeEvent(tick=58, channel=2, data=[7, 0]),
   midi.EndOfTrackEvent(tick=0, data=[])]),
 midi.Track(\
  [midi.PortEvent(tick=0, data=[0]),
   midi.TrackNameEvent(tick=0, text='Bass', data=[66, 97, 115, 115]),
   midi.ControlChangeEvent(tick=0, channel=3, data=[7, 30]),
   midi.ProgramChangeEvent(tick=0, channel=3, data=[33]),
   midi.ControlChangeEvent(tick=195, channel=3, data=[7, 31]),
   midi.ControlChangeEvent(tick=195, channel=3, data=[7, 32]),
   midi.ControlChangeEvent(tick=194, channel=3, data=[7, 33]),
   midi.ControlChangeEvent(tick=195, channel=3, data=[7, 34]),
   midi.ControlChangeEvent(tick=195, channel=3, data=[7, 35]),
   midi.ControlChangeEvent(tick=195, channel=3, data=[7, 36]),
   midi.ControlChangeEvent(tick=194, channel=3, data=[7, 37]),
   midi.ControlChangeEvent(tick=195, channel=3, data=[7, 38]),
   midi.ControlChangeEvent(tick=195, channel=3, data=[7, 39]),
   midi.ControlChangeEvent(tick=195, channel=3, data=[7, 40]),
   midi.ControlChangeEvent(tick=195, channel=3, data=[7, 41]),
   midi.ControlChangeEvent(tick=194, channel=3, data=[7, 42]),
   midi.ControlChangeEvent(tick=195, channel=3, data=[7, 43]),
   midi.ControlChangeEvent(tick=195, channel=3, data=[7, 44]),
   midi.ControlChangeEvent(tick=195, channel=3, data=[7, 45]),
   midi.ControlChangeEvent(tick=195, channel=3, data=[7, 46]),
   midi.ControlChangeEvent(tick=194, channel=3, data=[7, 47]),
   midi.ControlChangeEvent(tick=195, channel=3, data=[7, 48]),
   midi.ControlChangeEvent(tick=195, channel=3, data=[7, 49]),
   midi.NoteOnEvent(tick=139, channel=3, data=[40, 127]),
   midi.ControlChangeEvent(tick=56, channel=3, data=[7, 50]),
   midi.ControlChangeEvent(tick=194, channel=3, data=[7, 51]),
   midi.ControlChangeEvent(tick=195, channel=3, data=[7, 52]),
   midi.ControlChangeEvent(tick=195, channel=3, data=[7, 53]),
   midi.ControlChangeEvent(tick=195, channel=3, data=[7, 54]),
   midi.NoteOnEvent(tick=125, channel=3, data=[40, 0]),
   midi.NoteOnEvent(tick=0, channel=3, data=[47, 127]),
   midi.ControlChangeEvent(tick=70, channel=3, data=[7, 55]),
   midi.ControlChangeEvent(tick=194, channel=3, data=[7, 56]),
   midi.ControlChangeEvent(tick=195, channel=3, data=[7, 57]),
   midi.NoteOnEvent(tick=21, channel=3, data=[47, 0]),
   midi.NoteOnEvent(tick=0, channel=3, data=[42, 127]),
   midi.ControlChangeEvent(tick=174, channel=3, data=[7, 58]),
   midi.ControlChangeEvent(tick=195, channel=3, data=[7, 59]),
   midi.NoteOnEvent(tick=111, channel=3, data=[42, 0]),
   midi.NoteOnEvent(tick=0, channel=3, data=[40, 127]),
   midi.ControlChangeEvent(tick=83, channel=3, data=[7, 60]),
   midi.ControlChangeEvent(tick=195, channel=3, data=[7, 61]),
   midi.ControlChangeEvent(tick=195, channel=3, data=[7, 62]),
   midi.ControlChangeEvent(tick=195, channel=3, data=[7, 63]),
   midi.ControlChangeEvent(tick=195, channel=3, data=[7, 64]),
   midi.NoteOnEvent(tick=97, channel=3, data=[40, 0]),
   midi.NoteOnEvent(tick=0, channel=3, data=[47, 127]),
   midi.ControlChangeEvent(tick=97, channel=3, data=[7, 65]),
   midi.ControlChangeEvent(tick=195, channel=3, data=[7, 66]),
   midi.NoteOnEvent(tick=188, channel=3, data=[47, 0]),
   midi.NoteOnEvent(tick=0, channel=3, data=[42, 127]),
   midi.ControlChangeEvent(tick=7, channel=3, data=[7, 67]),
   midi.ControlChangeEvent(tick=195, channel=3, data=[7, 68]),
   midi.ControlChangeEvent(tick=195, channel=3, data=[7, 69]),
   midi.NoteOnEvent(tick=83, channel=3, data=[42, 0]),
   midi.NoteOnEvent(tick=0, channel=3, data=[40, 127]),
   midi.ControlChangeEvent(tick=111, channel=3, data=[7, 70]),
   midi.ControlChangeEvent(tick=195, channel=3, data=[7, 71]),
   midi.ControlChangeEvent(tick=195, channel=3, data=[7, 72]),
   midi.ControlChangeEvent(tick=195, channel=3, data=[7, 73]),
   midi.ControlChangeEvent(tick=194, channel=3, data=[7, 74]),
   midi.NoteOnEvent(tick=70, channel=3, data=[40, 0]),
   midi.NoteOnEvent(tick=0, channel=3, data=[47, 127]),
   midi.ControlChangeEvent(tick=125, channel=3, data=[7, 75]),
   midi.ControlChangeEvent(tick=195, channel=3, data=[7, 76]),
   midi.NoteOnEvent(tick=160, channel=3, data=[47, 0]),
   midi.NoteOnEvent(tick=0, channel=3, data=[42, 127]),
   midi.ControlChangeEvent(tick=35, channel=3, data=[7, 77]),
   midi.ControlChangeEvent(tick=195, channel=3, data=[7, 78]),
   midi.ControlChangeEvent(tick=194, channel=3, data=[7, 79]),
   midi.NoteOnEvent(tick=56, channel=3, data=[42, 0]),
   midi.NoteOnEvent(tick=0, channel=3, data=[40, 127]),
   midi.ControlChangeEvent(tick=139, channel=3, data=[7, 80]),
   midi.ControlChangeEvent(tick=195, channel=3, data=[7, 81]),
   midi.ControlChangeEvent(tick=195, channel=3, data=[7, 82]),
   midi.ControlChangeEvent(tick=194, channel=3, data=[7, 83]),
   midi.ControlChangeEvent(tick=195, channel=3, data=[7, 84]),
   midi.NoteOnEvent(tick=42, channel=3, data=[40, 0]),
   midi.NoteOnEvent(tick=0, channel=3, data=[47, 127]),
   midi.ControlChangeEvent(tick=153, channel=3, data=[7, 85]),
   midi.ControlChangeEvent(tick=195, channel=3, data=[7, 86]),
   midi.NoteOnEvent(tick=132, channel=3, data=[47, 0]),
   midi.NoteOnEvent(tick=0, channel=3, data=[42, 127]),
   midi.ControlChangeEvent(tick=63, channel=3, data=[7, 87]),
   midi.ControlChangeEvent(tick=194, channel=3, data=[7, 88]),
   midi.ControlChangeEvent(tick=195, channel=3, data=[7, 89]),
   midi.NoteOnEvent(tick=28, channel=3, data=[42, 0]),
   midi.NoteOnEvent(tick=0, channel=3, data=[40, 127]),
   midi.ControlChangeEvent(tick=167, channel=3, data=[7, 90]),
   midi.ControlChangeEvent(tick=195, channel=3, data=[7, 91]),
   midi.ControlChangeEvent(tick=195, channel=3, data=[7, 92]),
   midi.ControlChangeEvent(tick=194, channel=3, data=[7, 93]),
   midi.ControlChangeEvent(tick=195, channel=3, data=[7, 94]),
   midi.NoteOnEvent(tick=14, channel=3, data=[40, 0]),
   midi.NoteOnEvent(tick=0, channel=3, data=[47, 127]),
   midi.ControlChangeEvent(tick=181, channel=3, data=[7, 95]),
   midi.ControlChangeEvent(tick=195, channel=3, data=[7, 96]),
   midi.NoteOnEvent(tick=104, channel=3, data=[47, 0]),
   midi.NoteOnEvent(tick=0, channel=3, data=[42, 127]),
   midi.ControlChangeEvent(tick=90, channel=3, data=[7, 97]),
   midi.ControlChangeEvent(tick=195, channel=3, data=[7, 98]),
   midi.NoteOnEvent(tick=195, channel=3, data=[42, 0]),
   midi.ControlChangeEvent(tick=0, channel=3, data=[7, 99]),
   midi.NoteOnEvent(tick=0, channel=3, data=[40, 127]),
   midi.NoteOnEvent(tick=960, channel=3, data=[40, 0]),
   midi.NoteOnEvent(tick=0, channel=3, data=[47, 127]),
   midi.NoteOnEvent(tick=480, channel=3, data=[47, 0]),
   midi.NoteOnEvent(tick=0, channel=3, data=[42, 127]),
   midi.NoteOnEvent(tick=480, channel=3, data=[42, 0]),
   midi.NoteOnEvent(tick=0, channel=3, data=[40, 127]),
   midi.NoteOnEvent(tick=60, channel=3, data=[40, 0]),
   midi.NoteOnEvent(tick=0, channel=3, data=[28, 127]),
   midi.NoteOnEvent(tick=60, channel=3, data=[28, 0]),
   midi.NoteOnEvent(tick=0, channel=3, data=[28, 127]),
   midi.NoteOnEvent(tick=60, channel=3, data=[28, 0]),
   midi.NoteOnEvent(tick=0, channel=3, data=[40, 127]),
   midi.NoteOnEvent(tick=60, channel=3, data=[40, 0]),
   midi.NoteOnEvent(tick=0, channel=3, data=[28, 127]),
   midi.NoteOnEvent(tick=60, channel=3, data=[28, 0]),
   midi.NoteOnEvent(tick=0, channel=3, data=[28, 127]),
   midi.NoteOnEvent(tick=60, channel=3, data=[28, 0]),
   midi.NoteOnEvent(tick=0, channel=3, data=[40, 127]),
   midi.NoteOnEvent(tick=60, channel=3, data=[40, 0]),
   midi.NoteOnEvent(tick=0, channel=3, data=[28, 127]),
   midi.NoteOnEvent(tick=60, channel=3, data=[28, 0]),
   midi.NoteOnEvent(tick=0, channel=3, data=[40, 127]),
   midi.NoteOnEvent(tick=60, channel=3, data=[40, 0]),
   midi.NoteOnEvent(tick=0, channel=3, data=[28, 127]),
   midi.NoteOnEvent(tick=60, channel=3, data=[28, 0]),
   midi.NoteOnEvent(tick=0, channel=3, data=[28, 127]),
   midi.NoteOnEvent(tick=60, channel=3, data=[28, 0]),
   midi.NoteOnEvent(tick=0, channel=3, data=[40, 127]),
   midi.NoteOnEvent(tick=60, channel=3, data=[40, 0]),
   midi.NoteOnEvent(tick=0, channel=3, data=[28, 127]),
   midi.NoteOnEvent(tick=60, channel=3, data=[28, 0]),
   midi.NoteOnEvent(tick=0, channel=3, data=[28, 127]),
   midi.NoteOnEvent(tick=60, channel=3, data=[28, 0]),
   midi.NoteOnEvent(tick=0, channel=3, data=[40, 127]),
   midi.NoteOnEvent(tick=60, channel=3, data=[40, 0]),
   midi.NoteOnEvent(tick=0, channel=3, data=[28, 127]),
   midi.NoteOnEvent(tick=60, channel=3, data=[28, 0]),
   midi.NoteOnEvent(tick=0, channel=3, data=[38, 127]),
   midi.NoteOnEvent(tick=60, channel=3, data=[38, 0]),
   midi.NoteOnEvent(tick=0, channel=3, data=[35, 127]),
   midi.NoteOnEvent(tick=60, channel=3, data=[35, 0]),
   midi.NoteOnEvent(tick=0, channel=3, data=[35, 127]),
   midi.NoteOnEvent(tick=60, channel=3, data=[35, 0]),
   midi.NoteOnEvent(tick=0, channel=3, data=[38, 127]),
   midi.NoteOnEvent(tick=60, channel=3, data=[38, 0]),
   midi.NoteOnEvent(tick=0, channel=3, data=[35, 127]),
   midi.NoteOnEvent(tick=60, channel=3, data=[35, 0]),
   midi.NoteOnEvent(tick=0, channel=3, data=[35, 127]),
   midi.NoteOnEvent(tick=60, channel=3, data=[35, 0]),
   midi.NoteOnEvent(tick=0, channel=3, data=[38, 127]),
   midi.NoteOnEvent(tick=60, channel=3, data=[38, 0]),
   midi.NoteOnEvent(tick=0, channel=3, data=[38, 127]),
   midi.NoteOnEvent(tick=60, channel=3, data=[38, 0]),
   midi.NoteOnEvent(tick=0, channel=3, data=[39, 127]),
   midi.NoteOnEvent(tick=60, channel=3, data=[39, 0]),
   midi.NoteOnEvent(tick=0, channel=3, data=[35, 127]),
   midi.NoteOnEvent(tick=60, channel=3, data=[35, 0]),
   midi.NoteOnEvent(tick=0, channel=3, data=[35, 127]),
   midi.NoteOnEvent(tick=60, channel=3, data=[35, 0]),
   midi.NoteOnEvent(tick=0, channel=3, data=[39, 127]),
   midi.NoteOnEvent(tick=60, channel=3, data=[39, 0]),
   midi.NoteOnEvent(tick=0, channel=3, data=[35, 127]),
   midi.NoteOnEvent(tick=60, channel=3, data=[35, 0]),
   midi.NoteOnEvent(tick=0, channel=3, data=[35, 127]),
   midi.NoteOnEvent(tick=60, channel=3, data=[35, 0]),
   midi.NoteOnEvent(tick=0, channel=3, data=[39, 127]),
   midi.NoteOnEvent(tick=60, channel=3, data=[39, 0]),
   midi.NoteOnEvent(tick=0, channel=3, data=[39, 127]),
   midi.NoteOnEvent(tick=60, channel=3, data=[39, 0]),
   midi.NoteOnEvent(tick=0, channel=3, data=[40, 127]),
   midi.NoteOnEvent(tick=60, channel=3, data=[40, 0]),
   midi.NoteOnEvent(tick=0, channel=3, data=[28, 127]),
   midi.NoteOnEvent(tick=60, channel=3, data=[28, 0]),
   midi.NoteOnEvent(tick=0, channel=3, data=[28, 127]),
   midi.NoteOnEvent(tick=60, channel=3, data=[28, 0]),
   midi.NoteOnEvent(tick=0, channel=3, data=[40, 127]),
   midi.NoteOnEvent(tick=60, channel=3, data=[40, 0]),
   midi.NoteOnEvent(tick=0, channel=3, data=[28, 127]),
   midi.NoteOnEvent(tick=60, channel=3, data=[28, 0]),
   midi.NoteOnEvent(tick=0, channel=3, data=[28, 127]),
   midi.NoteOnEvent(tick=60, channel=3, data=[28, 0]),
   midi.NoteOnEvent(tick=0, channel=3, data=[40, 127]),
   midi.NoteOnEvent(tick=60, channel=3, data=[40, 0]),
   midi.NoteOnEvent(tick=0, channel=3, data=[28, 127]),
   midi.NoteOnEvent(tick=60, channel=3, data=[28, 0]),
   midi.NoteOnEvent(tick=0, channel=3, data=[40, 127]),
   midi.NoteOnEvent(tick=60, channel=3, data=[40, 0]),
   midi.NoteOnEvent(tick=0, channel=3, data=[28, 127]),
   midi.NoteOnEvent(tick=60, channel=3, data=[28, 0]),
   midi.NoteOnEvent(tick=0, channel=3, data=[28, 127]),
   midi.NoteOnEvent(tick=60, channel=3, data=[28, 0]),
   midi.NoteOnEvent(tick=0, channel=3, data=[40, 127]),
   midi.NoteOnEvent(tick=60, channel=3, data=[40, 0]),
   midi.NoteOnEvent(tick=0, channel=3, data=[28, 127]),
   midi.NoteOnEvent(tick=60, channel=3, data=[28, 0]),
   midi.NoteOnEvent(tick=0, channel=3, data=[28, 127]),
   midi.NoteOnEvent(tick=60, channel=3, data=[28, 0]),
   midi.NoteOnEvent(tick=0, channel=3, data=[40, 127]),
   midi.NoteOnEvent(tick=60, channel=3, data=[40, 0]),
   midi.NoteOnEvent(tick=0, channel=3, data=[28, 127]),
   midi.NoteOnEvent(tick=60, channel=3, data=[28, 0]),
   midi.NoteOnEvent(tick=0, channel=3, data=[38, 127]),
   midi.NoteOnEvent(tick=60, channel=3, data=[38, 0]),
   midi.NoteOnEvent(tick=0, channel=3, data=[35, 127]),
   midi.NoteOnEvent(tick=60, channel=3, data=[35, 0]),
   midi.NoteOnEvent(tick=0, channel=3, data=[35, 127]),
   midi.NoteOnEvent(tick=60, channel=3, data=[35, 0]),
   midi.NoteOnEvent(tick=0, channel=3, data=[38, 127]),
   midi.NoteOnEvent(tick=60, channel=3, data=[38, 0]),
   midi.NoteOnEvent(tick=0, channel=3, data=[35, 127]),
   midi.NoteOnEvent(tick=60, channel=3, data=[35, 0]),
   midi.NoteOnEvent(tick=0, channel=3, data=[35, 127]),
   midi.NoteOnEvent(tick=60, channel=3, data=[35, 0]),
   midi.NoteOnEvent(tick=0, channel=3, data=[38, 127]),
   midi.NoteOnEvent(tick=60, channel=3, data=[38, 0]),
   midi.NoteOnEvent(tick=0, channel=3, data=[38, 127]),
   midi.NoteOnEvent(tick=60, channel=3, data=[38, 0]),
   midi.NoteOnEvent(tick=0, channel=3, data=[39, 127]),
   midi.NoteOnEvent(tick=60, channel=3, data=[39, 0]),
   midi.NoteOnEvent(tick=0, channel=3, data=[35, 127]),
   midi.NoteOnEvent(tick=60, channel=3, data=[35, 0]),
   midi.NoteOnEvent(tick=0, channel=3, data=[35, 127]),
   midi.NoteOnEvent(tick=60, channel=3, data=[35, 0]),
   midi.NoteOnEvent(tick=0, channel=3, data=[39, 127]),
   midi.NoteOnEvent(tick=60, channel=3, data=[39, 0]),
   midi.NoteOnEvent(tick=0, channel=3, data=[35, 127]),
   midi.NoteOnEvent(tick=60, channel=3, data=[35, 0]),
   midi.NoteOnEvent(tick=0, channel=3, data=[35, 127]),
   midi.NoteOnEvent(tick=60, channel=3, data=[35, 0]),
   midi.NoteOnEvent(tick=0, channel=3, data=[39, 127]),
   midi.NoteOnEvent(tick=60, channel=3, data=[39, 0]),
   midi.NoteOnEvent(tick=0, channel=3, data=[39, 127]),
   midi.NoteOnEvent(tick=60, channel=3, data=[39, 0]),
   midi.NoteOnEvent(tick=0, channel=3, data=[40, 127]),
   midi.NoteOnEvent(tick=60, channel=3, data=[40, 0]),
   midi.NoteOnEvent(tick=0, channel=3, data=[28, 127]),
   midi.NoteOnEvent(tick=60, channel=3, data=[28, 0]),
   midi.NoteOnEvent(tick=0, channel=3, data=[28, 127]),
   midi.NoteOnEvent(tick=60, channel=3, data=[28, 0]),
   midi.NoteOnEvent(tick=0, channel=3, data=[40, 127]),
   midi.NoteOnEvent(tick=60, channel=3, data=[40, 0]),
   midi.NoteOnEvent(tick=0, channel=3, data=[28, 127]),
   midi.NoteOnEvent(tick=60, channel=3, data=[28, 0]),
   midi.NoteOnEvent(tick=0, channel=3, data=[28, 127]),
   midi.NoteOnEvent(tick=60, channel=3, data=[28, 0]),
   midi.NoteOnEvent(tick=0, channel=3, data=[40, 127]),
   midi.NoteOnEvent(tick=60, channel=3, data=[40, 0]),
   midi.NoteOnEvent(tick=0, channel=3, data=[28, 127]),
   midi.NoteOnEvent(tick=60, channel=3, data=[28, 0]),
   midi.NoteOnEvent(tick=0, channel=3, data=[40, 127]),
   midi.NoteOnEvent(tick=60, channel=3, data=[40, 0]),
   midi.NoteOnEvent(tick=0, channel=3, data=[28, 127]),
   midi.NoteOnEvent(tick=60, channel=3, data=[28, 0]),
   midi.NoteOnEvent(tick=0, channel=3, data=[28, 127]),
   midi.NoteOnEvent(tick=60, channel=3, data=[28, 0]),
   midi.NoteOnEvent(tick=0, channel=3, data=[40, 127]),
   midi.NoteOnEvent(tick=60, channel=3, data=[40, 0]),
   midi.NoteOnEvent(tick=0, channel=3, data=[28, 127]),
   midi.NoteOnEvent(tick=60, channel=3, data=[28, 0]),
   midi.NoteOnEvent(tick=0, channel=3, data=[28, 127]),
   midi.NoteOnEvent(tick=60, channel=3, data=[28, 0]),
   midi.NoteOnEvent(tick=0, channel=3, data=[40, 127]),
   midi.NoteOnEvent(tick=60, channel=3, data=[40, 0]),
   midi.NoteOnEvent(tick=0, channel=3, data=[28, 127]),
   midi.NoteOnEvent(tick=60, channel=3, data=[28, 0]),
   midi.NoteOnEvent(tick=0, channel=3, data=[38, 127]),
   midi.NoteOnEvent(tick=60, channel=3, data=[38, 0]),
   midi.NoteOnEvent(tick=0, channel=3, data=[35, 127]),
   midi.NoteOnEvent(tick=60, channel=3, data=[35, 0]),
   midi.NoteOnEvent(tick=0, channel=3, data=[35, 127]),
   midi.NoteOnEvent(tick=60, channel=3, data=[35, 0]),
   midi.NoteOnEvent(tick=0, channel=3, data=[38, 127]),
   midi.NoteOnEvent(tick=60, channel=3, data=[38, 0]),
   midi.NoteOnEvent(tick=0, channel=3, data=[35, 127]),
   midi.NoteOnEvent(tick=60, channel=3, data=[35, 0]),
   midi.NoteOnEvent(tick=0, channel=3, data=[35, 127]),
   midi.NoteOnEvent(tick=60, channel=3, data=[35, 0]),
   midi.NoteOnEvent(tick=0, channel=3, data=[38, 127]),
   midi.NoteOnEvent(tick=60, channel=3, data=[38, 0]),
   midi.NoteOnEvent(tick=0, channel=3, data=[38, 127]),
   midi.NoteOnEvent(tick=60, channel=3, data=[38, 0]),
   midi.NoteOnEvent(tick=0, channel=3, data=[39, 127]),
   midi.NoteOnEvent(tick=60, channel=3, data=[39, 0]),
   midi.NoteOnEvent(tick=0, channel=3, data=[35, 127]),
   midi.NoteOnEvent(tick=60, channel=3, data=[35, 0]),
   midi.NoteOnEvent(tick=0, channel=3, data=[35, 127]),
   midi.NoteOnEvent(tick=60, channel=3, data=[35, 0]),
   midi.NoteOnEvent(tick=0, channel=3, data=[39, 127]),
   midi.NoteOnEvent(tick=60, channel=3, data=[39, 0]),
   midi.NoteOnEvent(tick=0, channel=3, data=[35, 127]),
   midi.NoteOnEvent(tick=60, channel=3, data=[35, 0]),
   midi.NoteOnEvent(tick=0, channel=3, data=[35, 127]),
   midi.NoteOnEvent(tick=60, channel=3, data=[35, 0]),
   midi.NoteOnEvent(tick=0, channel=3, data=[39, 127]),
   midi.NoteOnEvent(tick=60, channel=3, data=[39, 0]),
   midi.NoteOnEvent(tick=0, channel=3, data=[39, 127]),
   midi.NoteOnEvent(tick=60, channel=3, data=[39, 0]),
   midi.NoteOnEvent(tick=0, channel=3, data=[40, 127]),
   midi.NoteOnEvent(tick=60, channel=3, data=[40, 0]),
   midi.NoteOnEvent(tick=0, channel=3, data=[28, 127]),
   midi.NoteOnEvent(tick=60, channel=3, data=[28, 0]),
   midi.NoteOnEvent(tick=0, channel=3, data=[28, 127]),
   midi.NoteOnEvent(tick=60, channel=3, data=[28, 0]),
   midi.NoteOnEvent(tick=0, channel=3, data=[40, 127]),
   midi.NoteOnEvent(tick=60, channel=3, data=[40, 0]),
   midi.NoteOnEvent(tick=0, channel=3, data=[28, 127]),
   midi.NoteOnEvent(tick=60, channel=3, data=[28, 0]),
   midi.NoteOnEvent(tick=0, channel=3, data=[28, 127]),
   midi.NoteOnEvent(tick=60, channel=3, data=[28, 0]),
   midi.NoteOnEvent(tick=0, channel=3, data=[40, 127]),
   midi.NoteOnEvent(tick=60, channel=3, data=[40, 0]),
   midi.NoteOnEvent(tick=0, channel=3, data=[28, 127]),
   midi.NoteOnEvent(tick=60, channel=3, data=[28, 0]),
   midi.NoteOnEvent(tick=0, channel=3, data=[40, 127]),
   midi.NoteOnEvent(tick=60, channel=3, data=[40, 0]),
   midi.NoteOnEvent(tick=0, channel=3, data=[28, 127]),
   midi.NoteOnEvent(tick=60, channel=3, data=[28, 0]),
   midi.NoteOnEvent(tick=0, channel=3, data=[28, 127]),
   midi.NoteOnEvent(tick=60, channel=3, data=[28, 0]),
   midi.NoteOnEvent(tick=0, channel=3, data=[40, 127]),
   midi.NoteOnEvent(tick=60, channel=3, data=[40, 0]),
   midi.NoteOnEvent(tick=0, channel=3, data=[28, 127]),
   midi.NoteOnEvent(tick=60, channel=3, data=[28, 0]),
   midi.NoteOnEvent(tick=0, channel=3, data=[28, 127]),
   midi.NoteOnEvent(tick=60, channel=3, data=[28, 0]),
   midi.NoteOnEvent(tick=0, channel=3, data=[40, 127]),
   midi.NoteOnEvent(tick=60, channel=3, data=[40, 0]),
   midi.NoteOnEvent(tick=0, channel=3, data=[28, 127]),
   midi.NoteOnEvent(tick=60, channel=3, data=[28, 0]),
   midi.NoteOnEvent(tick=0, channel=3, data=[38, 127]),
   midi.NoteOnEvent(tick=60, channel=3, data=[38, 0]),
   midi.NoteOnEvent(tick=0, channel=3, data=[35, 127]),
   midi.NoteOnEvent(tick=60, channel=3, data=[35, 0]),
   midi.NoteOnEvent(tick=0, channel=3, data=[35, 127]),
   midi.NoteOnEvent(tick=60, channel=3, data=[35, 0]),
   midi.NoteOnEvent(tick=0, channel=3, data=[38, 127]),
   midi.NoteOnEvent(tick=60, channel=3, data=[38, 0]),
   midi.NoteOnEvent(tick=0, channel=3, data=[35, 127]),
   midi.NoteOnEvent(tick=60, channel=3, data=[35, 0]),
   midi.NoteOnEvent(tick=0, channel=3, data=[35, 127]),
   midi.NoteOnEvent(tick=60, channel=3, data=[35, 0]),
   midi.NoteOnEvent(tick=0, channel=3, data=[38, 127]),
   midi.NoteOnEvent(tick=60, channel=3, data=[38, 0]),
   midi.NoteOnEvent(tick=0, channel=3, data=[38, 127]),
   midi.NoteOnEvent(tick=60, channel=3, data=[38, 0]),
   midi.NoteOnEvent(tick=0, channel=3, data=[39, 127]),
   midi.NoteOnEvent(tick=60, channel=3, data=[39, 0]),
   midi.NoteOnEvent(tick=0, channel=3, data=[35, 127]),
   midi.NoteOnEvent(tick=60, channel=3, data=[35, 0]),
   midi.NoteOnEvent(tick=0, channel=3, data=[35, 127]),
   midi.NoteOnEvent(tick=60, channel=3, data=[35, 0]),
   midi.NoteOnEvent(tick=0, channel=3, data=[39, 127]),
   midi.NoteOnEvent(tick=60, channel=3, data=[39, 0]),
   midi.NoteOnEvent(tick=0, channel=3, data=[35, 127]),
   midi.NoteOnEvent(tick=60, channel=3, data=[35, 0]),
   midi.NoteOnEvent(tick=0, channel=3, data=[35, 127]),
   midi.NoteOnEvent(tick=60, channel=3, data=[35, 0]),
   midi.NoteOnEvent(tick=0, channel=3, data=[39, 127]),
   midi.NoteOnEvent(tick=60, channel=3, data=[39, 0]),
   midi.NoteOnEvent(tick=0, channel=3, data=[39, 127]),
   midi.NoteOnEvent(tick=60, channel=3, data=[39, 0]),
   midi.NoteOnEvent(tick=0, channel=3, data=[40, 127]),
   midi.NoteOnEvent(tick=60, channel=3, data=[40, 0]),
   midi.NoteOnEvent(tick=0, channel=3, data=[28, 127]),
   midi.NoteOnEvent(tick=60, channel=3, data=[28, 0]),
   midi.NoteOnEvent(tick=0, channel=3, data=[28, 127]),
   midi.NoteOnEvent(tick=60, channel=3, data=[28, 0]),
   midi.NoteOnEvent(tick=0, channel=3, data=[40, 127]),
   midi.NoteOnEvent(tick=60, channel=3, data=[40, 0]),
   midi.NoteOnEvent(tick=0, channel=3, data=[28, 127]),
   midi.NoteOnEvent(tick=60, channel=3, data=[28, 0]),
   midi.NoteOnEvent(tick=0, channel=3, data=[28, 127]),
   midi.NoteOnEvent(tick=60, channel=3, data=[28, 0]),
   midi.NoteOnEvent(tick=0, channel=3, data=[40, 127]),
   midi.NoteOnEvent(tick=60, channel=3, data=[40, 0]),
   midi.NoteOnEvent(tick=0, channel=3, data=[28, 127]),
   midi.NoteOnEvent(tick=60, channel=3, data=[28, 0]),
   midi.NoteOnEvent(tick=0, channel=3, data=[40, 127]),
   midi.NoteOnEvent(tick=60, channel=3, data=[40, 0]),
   midi.NoteOnEvent(tick=0, channel=3, data=[28, 127]),
   midi.NoteOnEvent(tick=60, channel=3, data=[28, 0]),
   midi.NoteOnEvent(tick=0, channel=3, data=[28, 127]),
   midi.NoteOnEvent(tick=60, channel=3, data=[28, 0]),
   midi.NoteOnEvent(tick=0, channel=3, data=[40, 127]),
   midi.NoteOnEvent(tick=60, channel=3, data=[40, 0]),
   midi.NoteOnEvent(tick=0, channel=3, data=[28, 127]),
   midi.NoteOnEvent(tick=60, channel=3, data=[28, 0]),
   midi.NoteOnEvent(tick=0, channel=3, data=[28, 127]),
   midi.NoteOnEvent(tick=60, channel=3, data=[28, 0]),
   midi.NoteOnEvent(tick=0, channel=3, data=[40, 127]),
   midi.NoteOnEvent(tick=60, channel=3, data=[40, 0]),
   midi.NoteOnEvent(tick=0, channel=3, data=[28, 127]),
   midi.NoteOnEvent(tick=60, channel=3, data=[28, 0]),
   midi.NoteOnEvent(tick=0, channel=3, data=[38, 127]),
   midi.NoteOnEvent(tick=60, channel=3, data=[38, 0]),
   midi.NoteOnEvent(tick=0, channel=3, data=[35, 127]),
   midi.NoteOnEvent(tick=60, channel=3, data=[35, 0]),
   midi.NoteOnEvent(tick=0, channel=3, data=[35, 127]),
   midi.NoteOnEvent(tick=60, channel=3, data=[35, 0]),
   midi.NoteOnEvent(tick=0, channel=3, data=[38, 127]),
   midi.NoteOnEvent(tick=60, channel=3, data=[38, 0]),
   midi.NoteOnEvent(tick=0, channel=3, data=[35, 127]),
   midi.NoteOnEvent(tick=60, channel=3, data=[35, 0]),
   midi.NoteOnEvent(tick=0, channel=3, data=[35, 127]),
   midi.NoteOnEvent(tick=60, channel=3, data=[35, 0]),
   midi.NoteOnEvent(tick=0, channel=3, data=[38, 127]),
   midi.NoteOnEvent(tick=60, channel=3, data=[38, 0]),
   midi.NoteOnEvent(tick=0, channel=3, data=[38, 127]),
   midi.NoteOnEvent(tick=60, channel=3, data=[38, 0]),
   midi.NoteOnEvent(tick=0, channel=3, data=[39, 127]),
   midi.NoteOnEvent(tick=60, channel=3, data=[39, 0]),
   midi.NoteOnEvent(tick=0, channel=3, data=[35, 127]),
   midi.NoteOnEvent(tick=60, channel=3, data=[35, 0]),
   midi.NoteOnEvent(tick=0, channel=3, data=[35, 127]),
   midi.NoteOnEvent(tick=60, channel=3, data=[35, 0]),
   midi.NoteOnEvent(tick=0, channel=3, data=[39, 127]),
   midi.NoteOnEvent(tick=60, channel=3, data=[39, 0]),
   midi.NoteOnEvent(tick=0, channel=3, data=[35, 127]),
   midi.NoteOnEvent(tick=60, channel=3, data=[35, 0]),
   midi.NoteOnEvent(tick=0, channel=3, data=[35, 127]),
   midi.NoteOnEvent(tick=60, channel=3, data=[35, 0]),
   midi.NoteOnEvent(tick=0, channel=3, data=[39, 127]),
   midi.NoteOnEvent(tick=60, channel=3, data=[39, 0]),
   midi.NoteOnEvent(tick=0, channel=3, data=[39, 127]),
   midi.NoteOnEvent(tick=60, channel=3, data=[39, 0]),
   midi.NoteOnEvent(tick=0, channel=3, data=[40, 127]),
   midi.NoteOnEvent(tick=60, channel=3, data=[40, 0]),
   midi.NoteOnEvent(tick=0, channel=3, data=[28, 127]),
   midi.NoteOnEvent(tick=60, channel=3, data=[28, 0]),
   midi.NoteOnEvent(tick=0, channel=3, data=[28, 127]),
   midi.NoteOnEvent(tick=60, channel=3, data=[28, 0]),
   midi.NoteOnEvent(tick=0, channel=3, data=[40, 127]),
   midi.NoteOnEvent(tick=60, channel=3, data=[40, 0]),
   midi.NoteOnEvent(tick=0, channel=3, data=[28, 127]),
   midi.NoteOnEvent(tick=60, channel=3, data=[28, 0]),
   midi.NoteOnEvent(tick=0, channel=3, data=[28, 127]),
   midi.NoteOnEvent(tick=60, channel=3, data=[28, 0]),
   midi.NoteOnEvent(tick=0, channel=3, data=[40, 127]),
   midi.NoteOnEvent(tick=60, channel=3, data=[40, 0]),
   midi.NoteOnEvent(tick=0, channel=3, data=[28, 127]),
   midi.NoteOnEvent(tick=60, channel=3, data=[28, 0]),
   midi.NoteOnEvent(tick=0, channel=3, data=[40, 127]),
   midi.NoteOnEvent(tick=60, channel=3, data=[40, 0]),
   midi.NoteOnEvent(tick=0, channel=3, data=[28, 127]),
   midi.NoteOnEvent(tick=60, channel=3, data=[28, 0]),
   midi.NoteOnEvent(tick=0, channel=3, data=[28, 127]),
   midi.NoteOnEvent(tick=60, channel=3, data=[28, 0]),
   midi.NoteOnEvent(tick=0, channel=3, data=[40, 127]),
   midi.NoteOnEvent(tick=60, channel=3, data=[40, 0]),
   midi.NoteOnEvent(tick=0, channel=3, data=[28, 127]),
   midi.NoteOnEvent(tick=60, channel=3, data=[28, 0]),
   midi.NoteOnEvent(tick=0, channel=3, data=[28, 127]),
   midi.NoteOnEvent(tick=60, channel=3, data=[28, 0]),
   midi.NoteOnEvent(tick=0, channel=3, data=[40, 127]),
   midi.NoteOnEvent(tick=60, channel=3, data=[40, 0]),
   midi.NoteOnEvent(tick=0, channel=3, data=[28, 127]),
   midi.NoteOnEvent(tick=60, channel=3, data=[28, 0]),
   midi.NoteOnEvent(tick=0, channel=3, data=[38, 127]),
   midi.NoteOnEvent(tick=60, channel=3, data=[38, 0]),
   midi.NoteOnEvent(tick=0, channel=3, data=[35, 127]),
   midi.NoteOnEvent(tick=60, channel=3, data=[35, 0]),
   midi.NoteOnEvent(tick=0, channel=3, data=[35, 127]),
   midi.NoteOnEvent(tick=60, channel=3, data=[35, 0]),
   midi.NoteOnEvent(tick=0, channel=3, data=[38, 127]),
   midi.NoteOnEvent(tick=60, channel=3, data=[38, 0]),
   midi.NoteOnEvent(tick=0, channel=3, data=[35, 127]),
   midi.NoteOnEvent(tick=60, channel=3, data=[35, 0]),
   midi.NoteOnEvent(tick=0, channel=3, data=[35, 127]),
   midi.NoteOnEvent(tick=60, channel=3, data=[35, 0]),
   midi.NoteOnEvent(tick=0, channel=3, data=[38, 127]),
   midi.NoteOnEvent(tick=60, channel=3, data=[38, 0]),
   midi.NoteOnEvent(tick=0, channel=3, data=[38, 127]),
   midi.NoteOnEvent(tick=60, channel=3, data=[38, 0]),
   midi.NoteOnEvent(tick=0, channel=3, data=[39, 127]),
   midi.NoteOnEvent(tick=60, channel=3, data=[39, 0]),
   midi.NoteOnEvent(tick=0, channel=3, data=[35, 127]),
   midi.NoteOnEvent(tick=60, channel=3, data=[35, 0]),
   midi.NoteOnEvent(tick=0, channel=3, data=[35, 127]),
   midi.NoteOnEvent(tick=60, channel=3, data=[35, 0]),
   midi.NoteOnEvent(tick=0, channel=3, data=[39, 127]),
   midi.NoteOnEvent(tick=60, channel=3, data=[39, 0]),
   midi.NoteOnEvent(tick=0, channel=3, data=[35, 127]),
   midi.NoteOnEvent(tick=60, channel=3, data=[35, 0]),
   midi.NoteOnEvent(tick=0, channel=3, data=[35, 127]),
   midi.NoteOnEvent(tick=60, channel=3, data=[35, 0]),
   midi.NoteOnEvent(tick=0, channel=3, data=[39, 127]),
   midi.NoteOnEvent(tick=60, channel=3, data=[39, 0]),
   midi.NoteOnEvent(tick=0, channel=3, data=[39, 127]),
   midi.NoteOnEvent(tick=60, channel=3, data=[39, 0]),
   midi.NoteOnEvent(tick=120, channel=3, data=[33, 127]),
   midi.NoteOnEvent(tick=180, channel=3, data=[33, 0]),
   midi.NoteOnEvent(tick=0, channel=3, data=[28, 127]),
   midi.NoteOnEvent(tick=180, channel=3, data=[28, 0]),
   midi.NoteOnEvent(tick=0, channel=3, data=[36, 127]),
   midi.NoteOnEvent(tick=480, channel=3, data=[36, 0]),
   midi.NoteOnEvent(tick=120, channel=3, data=[36, 127]),
   midi.NoteOnEvent(tick=180, channel=3, data=[36, 0]),
   midi.NoteOnEvent(tick=0, channel=3, data=[28, 127]),
   midi.NoteOnEvent(tick=180, channel=3, data=[28, 0]),
   midi.NoteOnEvent(tick=0, channel=3, data=[33, 127]),
   midi.NoteOnEvent(tick=480, channel=3, data=[33, 0]),
   midi.NoteOnEvent(tick=120, channel=3, data=[33, 127]),
   midi.NoteOnEvent(tick=180, channel=3, data=[33, 0]),
   midi.NoteOnEvent(tick=0, channel=3, data=[28, 127]),
   midi.NoteOnEvent(tick=180, channel=3, data=[28, 0]),
   midi.NoteOnEvent(tick=0, channel=3, data=[36, 127]),
   midi.NoteOnEvent(tick=480, channel=3, data=[36, 0]),
   midi.NoteOnEvent(tick=120, channel=3, data=[36, 127]),
   midi.NoteOnEvent(tick=180, channel=3, data=[36, 0]),
   midi.NoteOnEvent(tick=0, channel=3, data=[28, 127]),
   midi.NoteOnEvent(tick=180, channel=3, data=[28, 0]),
   midi.NoteOnEvent(tick=0, channel=3, data=[33, 127]),
   midi.NoteOnEvent(tick=480, channel=3, data=[33, 0]),
   midi.NoteOnEvent(tick=120, channel=3, data=[33, 127]),
   midi.NoteOnEvent(tick=180, channel=3, data=[33, 0]),
   midi.NoteOnEvent(tick=0, channel=3, data=[28, 127]),
   midi.NoteOnEvent(tick=180, channel=3, data=[28, 0]),
   midi.NoteOnEvent(tick=0, channel=3, data=[36, 127]),
   midi.NoteOnEvent(tick=480, channel=3, data=[36, 0]),
   midi.NoteOnEvent(tick=120, channel=3, data=[36, 127]),
   midi.NoteOnEvent(tick=180, channel=3, data=[36, 0]),
   midi.NoteOnEvent(tick=0, channel=3, data=[28, 127]),
   midi.NoteOnEvent(tick=180, channel=3, data=[28, 0]),
   midi.NoteOnEvent(tick=0, channel=3, data=[33, 127]),
   midi.NoteOnEvent(tick=480, channel=3, data=[33, 0]),
   midi.NoteOnEvent(tick=120, channel=3, data=[33, 127]),
   midi.NoteOnEvent(tick=180, channel=3, data=[33, 0]),
   midi.NoteOnEvent(tick=0, channel=3, data=[28, 127]),
   midi.NoteOnEvent(tick=180, channel=3, data=[28, 0]),
   midi.NoteOnEvent(tick=0, channel=3, data=[36, 127]),
   midi.NoteOnEvent(tick=480, channel=3, data=[36, 0]),
   midi.NoteOnEvent(tick=120, channel=3, data=[36, 127]),
   midi.NoteOnEvent(tick=180, channel=3, data=[36, 0]),
   midi.NoteOnEvent(tick=0, channel=3, data=[28, 127]),
   midi.NoteOnEvent(tick=180, channel=3, data=[28, 0]),
   midi.NoteOnEvent(tick=0, channel=3, data=[33, 127]),
   midi.NoteOnEvent(tick=180, channel=3, data=[33, 0]),
   midi.NoteOnEvent(tick=0, channel=3, data=[28, 127]),
   midi.NoteOnEvent(tick=60, channel=3, data=[28, 0]),
   midi.NoteOnEvent(tick=0, channel=3, data=[28, 127]),
   midi.NoteOnEvent(tick=30, channel=3, data=[28, 0]),
   midi.NoteOnEvent(tick=0, channel=3, data=[28, 127]),
   midi.NoteOnEvent(tick=30, channel=3, data=[28, 0]),
   midi.NoteOnEvent(tick=0, channel=3, data=[29, 127]),
   midi.NoteOnEvent(tick=60, channel=3, data=[29, 0]),
   midi.NoteOnEvent(tick=0, channel=3, data=[29, 127]),
   midi.NoteOnEvent(tick=30, channel=3, data=[29, 0]),
   midi.NoteOnEvent(tick=0, channel=3, data=[29, 127]),
   midi.NoteOnEvent(tick=30, channel=3, data=[29, 0]),
   midi.NoteOnEvent(tick=0, channel=3, data=[28, 127]),
   midi.NoteOnEvent(tick=60, channel=3, data=[28, 0]),
   midi.NoteOnEvent(tick=0, channel=3, data=[28, 127]),
   midi.NoteOnEvent(tick=60, channel=3, data=[28, 0]),
   midi.NoteOnEvent(tick=0, channel=3, data=[28, 127]),
   midi.NoteOnEvent(tick=30, channel=3, data=[28, 0]),
   midi.NoteOnEvent(tick=0, channel=3, data=[28, 127]),
   midi.NoteOnEvent(tick=30, channel=3, data=[28, 0]),
   midi.NoteOnEvent(tick=0, channel=3, data=[33, 127]),
   midi.NoteOnEvent(tick=60, channel=3, data=[33, 0]),
   midi.NoteOnEvent(tick=0, channel=3, data=[28, 127]),
   midi.NoteOnEvent(tick=30, channel=3, data=[28, 0]),
   midi.NoteOnEvent(tick=0, channel=3, data=[28, 127]),
   midi.NoteOnEvent(tick=30, channel=3, data=[28, 0]),
   midi.NoteOnEvent(tick=0, channel=3, data=[28, 127]),
   midi.NoteOnEvent(tick=30, channel=3, data=[28, 0]),
   midi.NoteOnEvent(tick=0, channel=3, data=[28, 127]),
   midi.NoteOnEvent(tick=30, channel=3, data=[28, 0]),
   midi.NoteOnEvent(tick=0, channel=3, data=[35, 127]),
   midi.NoteOnEvent(tick=60, channel=3, data=[35, 0]),
   midi.NoteOnEvent(tick=0, channel=3, data=[28, 127]),
   midi.NoteOnEvent(tick=30, channel=3, data=[28, 0]),
   midi.NoteOnEvent(tick=0, channel=3, data=[28, 127]),
   midi.NoteOnEvent(tick=30, channel=3, data=[28, 0]),
   midi.NoteOnEvent(tick=0, channel=3, data=[28, 127]),
   midi.NoteOnEvent(tick=30, channel=3, data=[28, 0]),
   midi.NoteOnEvent(tick=0, channel=3, data=[28, 127]),
   midi.NoteOnEvent(tick=30, channel=3, data=[28, 0]),
   midi.NoteOnEvent(tick=0, channel=3, data=[36, 127]),
   midi.NoteOnEvent(tick=60, channel=3, data=[36, 0]),
   midi.NoteOnEvent(tick=0, channel=3, data=[28, 127]),
   midi.NoteOnEvent(tick=30, channel=3, data=[28, 0]),
   midi.NoteOnEvent(tick=0, channel=3, data=[28, 127]),
   midi.NoteOnEvent(tick=30, channel=3, data=[28, 0]),
   midi.NoteOnEvent(tick=0, channel=3, data=[28, 127]),
   midi.NoteOnEvent(tick=30, channel=3, data=[28, 0]),
   midi.NoteOnEvent(tick=0, channel=3, data=[28, 127]),
   midi.NoteOnEvent(tick=30, channel=3, data=[28, 0]),
   midi.NoteOnEvent(tick=0, channel=3, data=[28, 127]),
   midi.NoteOnEvent(tick=60, channel=3, data=[28, 0]),
   midi.NoteOnEvent(tick=0, channel=3, data=[28, 127]),
   midi.NoteOnEvent(tick=30, channel=3, data=[28, 0]),
   midi.NoteOnEvent(tick=0, channel=3, data=[28, 127]),
   midi.NoteOnEvent(tick=30, channel=3, data=[28, 0]),
   midi.NoteOnEvent(tick=0, channel=3, data=[29, 127]),
   midi.NoteOnEvent(tick=60, channel=3, data=[29, 0]),
   midi.NoteOnEvent(tick=0, channel=3, data=[29, 127]),
   midi.NoteOnEvent(tick=30, channel=3, data=[29, 0]),
   midi.NoteOnEvent(tick=0, channel=3, data=[29, 127]),
   midi.NoteOnEvent(tick=30, channel=3, data=[29, 0]),
   midi.NoteOnEvent(tick=0, channel=3, data=[28, 127]),
   midi.NoteOnEvent(tick=60, channel=3, data=[28, 0]),
   midi.NoteOnEvent(tick=0, channel=3, data=[28, 127]),
   midi.NoteOnEvent(tick=60, channel=3, data=[28, 0]),
   midi.NoteOnEvent(tick=0, channel=3, data=[28, 127]),
   midi.NoteOnEvent(tick=30, channel=3, data=[28, 0]),
   midi.NoteOnEvent(tick=0, channel=3, data=[28, 127]),
   midi.NoteOnEvent(tick=30, channel=3, data=[28, 0]),
   midi.NoteOnEvent(tick=0, channel=3, data=[33, 127]),
   midi.NoteOnEvent(tick=60, channel=3, data=[33, 0]),
   midi.NoteOnEvent(tick=0, channel=3, data=[28, 127]),
   midi.NoteOnEvent(tick=30, channel=3, data=[28, 0]),
   midi.NoteOnEvent(tick=0, channel=3, data=[28, 127]),
   midi.NoteOnEvent(tick=30, channel=3, data=[28, 0]),
   midi.NoteOnEvent(tick=0, channel=3, data=[28, 127]),
   midi.NoteOnEvent(tick=30, channel=3, data=[28, 0]),
   midi.NoteOnEvent(tick=0, channel=3, data=[28, 127]),
   midi.NoteOnEvent(tick=30, channel=3, data=[28, 0]),
   midi.NoteOnEvent(tick=0, channel=3, data=[35, 127]),
   midi.NoteOnEvent(tick=60, channel=3, data=[35, 0]),
   midi.NoteOnEvent(tick=0, channel=3, data=[28, 127]),
   midi.NoteOnEvent(tick=30, channel=3, data=[28, 0]),
   midi.NoteOnEvent(tick=0, channel=3, data=[28, 127]),
   midi.NoteOnEvent(tick=30, channel=3, data=[28, 0]),
   midi.NoteOnEvent(tick=0, channel=3, data=[28, 127]),
   midi.NoteOnEvent(tick=30, channel=3, data=[28, 0]),
   midi.NoteOnEvent(tick=0, channel=3, data=[28, 127]),
   midi.NoteOnEvent(tick=30, channel=3, data=[28, 0]),
   midi.NoteOnEvent(tick=0, channel=3, data=[33, 127]),
   midi.NoteOnEvent(tick=60, channel=3, data=[33, 0]),
   midi.NoteOnEvent(tick=0, channel=3, data=[28, 127]),
   midi.NoteOnEvent(tick=30, channel=3, data=[28, 0]),
   midi.NoteOnEvent(tick=0, channel=3, data=[28, 127]),
   midi.NoteOnEvent(tick=30, channel=3, data=[28, 0]),
   midi.NoteOnEvent(tick=0, channel=3, data=[28, 127]),
   midi.NoteOnEvent(tick=30, channel=3, data=[28, 0]),
   midi.NoteOnEvent(tick=0, channel=3, data=[28, 127]),
   midi.NoteOnEvent(tick=30, channel=3, data=[28, 0]),
   midi.NoteOnEvent(tick=0, channel=3, data=[28, 127]),
   midi.NoteOnEvent(tick=60, channel=3, data=[28, 0]),
   midi.NoteOnEvent(tick=0, channel=3, data=[28, 127]),
   midi.NoteOnEvent(tick=30, channel=3, data=[28, 0]),
   midi.NoteOnEvent(tick=0, channel=3, data=[28, 127]),
   midi.NoteOnEvent(tick=30, channel=3, data=[28, 0]),
   midi.NoteOnEvent(tick=0, channel=3, data=[29, 127]),
   midi.NoteOnEvent(tick=60, channel=3, data=[29, 0]),
   midi.NoteOnEvent(tick=0, channel=3, data=[29, 127]),
   midi.NoteOnEvent(tick=30, channel=3, data=[29, 0]),
   midi.NoteOnEvent(tick=0, channel=3, data=[29, 127]),
   midi.NoteOnEvent(tick=30, channel=3, data=[29, 0]),
   midi.NoteOnEvent(tick=0, channel=3, data=[28, 127]),
   midi.NoteOnEvent(tick=60, channel=3, data=[28, 0]),
   midi.NoteOnEvent(tick=0, channel=3, data=[28, 127]),
   midi.NoteOnEvent(tick=60, channel=3, data=[28, 0]),
   midi.NoteOnEvent(tick=0, channel=3, data=[28, 127]),
   midi.NoteOnEvent(tick=30, channel=3, data=[28, 0]),
   midi.NoteOnEvent(tick=0, channel=3, data=[28, 127]),
   midi.NoteOnEvent(tick=30, channel=3, data=[28, 0]),
   midi.NoteOnEvent(tick=0, channel=3, data=[33, 127]),
   midi.NoteOnEvent(tick=60, channel=3, data=[33, 0]),
   midi.NoteOnEvent(tick=0, channel=3, data=[28, 127]),
   midi.NoteOnEvent(tick=30, channel=3, data=[28, 0]),
   midi.NoteOnEvent(tick=0, channel=3, data=[28, 127]),
   midi.NoteOnEvent(tick=30, channel=3, data=[28, 0]),
   midi.NoteOnEvent(tick=0, channel=3, data=[28, 127]),
   midi.NoteOnEvent(tick=30, channel=3, data=[28, 0]),
   midi.NoteOnEvent(tick=0, channel=3, data=[28, 127]),
   midi.NoteOnEvent(tick=30, channel=3, data=[28, 0]),
   midi.NoteOnEvent(tick=0, channel=3, data=[35, 127]),
   midi.NoteOnEvent(tick=60, channel=3, data=[35, 0]),
   midi.NoteOnEvent(tick=0, channel=3, data=[28, 127]),
   midi.NoteOnEvent(tick=30, channel=3, data=[28, 0]),
   midi.NoteOnEvent(tick=0, channel=3, data=[28, 127]),
   midi.NoteOnEvent(tick=30, channel=3, data=[28, 0]),
   midi.NoteOnEvent(tick=0, channel=3, data=[28, 127]),
   midi.NoteOnEvent(tick=30, channel=3, data=[28, 0]),
   midi.NoteOnEvent(tick=0, channel=3, data=[28, 127]),
   midi.NoteOnEvent(tick=30, channel=3, data=[28, 0]),
   midi.NoteOnEvent(tick=0, channel=3, data=[36, 127]),
   midi.NoteOnEvent(tick=60, channel=3, data=[36, 0]),
   midi.NoteOnEvent(tick=0, channel=3, data=[28, 127]),
   midi.NoteOnEvent(tick=30, channel=3, data=[28, 0]),
   midi.NoteOnEvent(tick=0, channel=3, data=[28, 127]),
   midi.NoteOnEvent(tick=30, channel=3, data=[28, 0]),
   midi.NoteOnEvent(tick=0, channel=3, data=[28, 127]),
   midi.NoteOnEvent(tick=30, channel=3, data=[28, 0]),
   midi.NoteOnEvent(tick=0, channel=3, data=[28, 127]),
   midi.NoteOnEvent(tick=30, channel=3, data=[28, 0]),
   midi.NoteOnEvent(tick=0, channel=3, data=[28, 127]),
   midi.NoteOnEvent(tick=60, channel=3, data=[28, 0]),
   midi.NoteOnEvent(tick=0, channel=3, data=[28, 127]),
   midi.NoteOnEvent(tick=30, channel=3, data=[28, 0]),
   midi.NoteOnEvent(tick=0, channel=3, data=[28, 127]),
   midi.NoteOnEvent(tick=30, channel=3, data=[28, 0]),
   midi.NoteOnEvent(tick=0, channel=3, data=[29, 127]),
   midi.NoteOnEvent(tick=60, channel=3, data=[29, 0]),
   midi.NoteOnEvent(tick=0, channel=3, data=[29, 127]),
   midi.NoteOnEvent(tick=30, channel=3, data=[29, 0]),
   midi.NoteOnEvent(tick=0, channel=3, data=[29, 127]),
   midi.NoteOnEvent(tick=30, channel=3, data=[29, 0]),
   midi.NoteOnEvent(tick=0, channel=3, data=[28, 127]),
   midi.NoteOnEvent(tick=60, channel=3, data=[28, 0]),
   midi.NoteOnEvent(tick=0, channel=3, data=[28, 127]),
   midi.NoteOnEvent(tick=60, channel=3, data=[28, 0]),
   midi.NoteOnEvent(tick=0, channel=3, data=[28, 127]),
   midi.NoteOnEvent(tick=30, channel=3, data=[28, 0]),
   midi.NoteOnEvent(tick=0, channel=3, data=[28, 127]),
   midi.NoteOnEvent(tick=30, channel=3, data=[28, 0]),
   midi.NoteOnEvent(tick=0, channel=3, data=[33, 127]),
   midi.NoteOnEvent(tick=60, channel=3, data=[33, 0]),
   midi.NoteOnEvent(tick=0, channel=3, data=[28, 127]),
   midi.NoteOnEvent(tick=30, channel=3, data=[28, 0]),
   midi.NoteOnEvent(tick=0, channel=3, data=[28, 127]),
   midi.NoteOnEvent(tick=30, channel=3, data=[28, 0]),
   midi.NoteOnEvent(tick=0, channel=3, data=[28, 127]),
   midi.NoteOnEvent(tick=30, channel=3, data=[28, 0]),
   midi.NoteOnEvent(tick=0, channel=3, data=[28, 127]),
   midi.NoteOnEvent(tick=30, channel=3, data=[28, 0]),
   midi.NoteOnEvent(tick=0, channel=3, data=[35, 127]),
   midi.NoteOnEvent(tick=60, channel=3, data=[35, 0]),
   midi.NoteOnEvent(tick=0, channel=3, data=[28, 127]),
   midi.NoteOnEvent(tick=30, channel=3, data=[28, 0]),
   midi.NoteOnEvent(tick=0, channel=3, data=[28, 127]),
   midi.NoteOnEvent(tick=30, channel=3, data=[28, 0]),
   midi.NoteOnEvent(tick=0, channel=3, data=[28, 127]),
   midi.NoteOnEvent(tick=30, channel=3, data=[28, 0]),
   midi.NoteOnEvent(tick=0, channel=3, data=[28, 127]),
   midi.NoteOnEvent(tick=30, channel=3, data=[28, 0]),
   midi.NoteOnEvent(tick=0, channel=3, data=[33, 127]),
   midi.NoteOnEvent(tick=60, channel=3, data=[33, 0]),
   midi.NoteOnEvent(tick=0, channel=3, data=[28, 127]),
   midi.NoteOnEvent(tick=30, channel=3, data=[28, 0]),
   midi.NoteOnEvent(tick=0, channel=3, data=[28, 127]),
   midi.NoteOnEvent(tick=30, channel=3, data=[28, 0]),
   midi.NoteOnEvent(tick=0, channel=3, data=[28, 127]),
   midi.NoteOnEvent(tick=30, channel=3, data=[28, 0]),
   midi.NoteOnEvent(tick=0, channel=3, data=[28, 127]),
   midi.NoteOnEvent(tick=30, channel=3, data=[28, 0]),
   midi.NoteOnEvent(tick=0, channel=3, data=[28, 127]),
   midi.NoteOnEvent(tick=60, channel=3, data=[28, 0]),
   midi.NoteOnEvent(tick=0, channel=3, data=[28, 127]),
   midi.NoteOnEvent(tick=30, channel=3, data=[28, 0]),
   midi.NoteOnEvent(tick=0, channel=3, data=[28, 127]),
   midi.NoteOnEvent(tick=30, channel=3, data=[28, 0]),
   midi.NoteOnEvent(tick=0, channel=3, data=[29, 127]),
   midi.NoteOnEvent(tick=60, channel=3, data=[29, 0]),
   midi.NoteOnEvent(tick=0, channel=3, data=[29, 127]),
   midi.NoteOnEvent(tick=30, channel=3, data=[29, 0]),
   midi.NoteOnEvent(tick=0, channel=3, data=[29, 127]),
   midi.NoteOnEvent(tick=30, channel=3, data=[29, 0]),
   midi.NoteOnEvent(tick=0, channel=3, data=[28, 127]),
   midi.NoteOnEvent(tick=60, channel=3, data=[28, 0]),
   midi.NoteOnEvent(tick=0, channel=3, data=[28, 127]),
   midi.NoteOnEvent(tick=60, channel=3, data=[28, 0]),
   midi.NoteOnEvent(tick=0, channel=3, data=[28, 127]),
   midi.NoteOnEvent(tick=30, channel=3, data=[28, 0]),
   midi.NoteOnEvent(tick=0, channel=3, data=[28, 127]),
   midi.NoteOnEvent(tick=30, channel=3, data=[28, 0]),
   midi.NoteOnEvent(tick=0, channel=3, data=[33, 127]),
   midi.NoteOnEvent(tick=60, channel=3, data=[33, 0]),
   midi.NoteOnEvent(tick=0, channel=3, data=[28, 127]),
   midi.NoteOnEvent(tick=30, channel=3, data=[28, 0]),
   midi.NoteOnEvent(tick=0, channel=3, data=[28, 127]),
   midi.NoteOnEvent(tick=30, channel=3, data=[28, 0]),
   midi.NoteOnEvent(tick=0, channel=3, data=[28, 127]),
   midi.NoteOnEvent(tick=30, channel=3, data=[28, 0]),
   midi.NoteOnEvent(tick=0, channel=3, data=[28, 127]),
   midi.NoteOnEvent(tick=30, channel=3, data=[28, 0]),
   midi.NoteOnEvent(tick=0, channel=3, data=[35, 127]),
   midi.NoteOnEvent(tick=60, channel=3, data=[35, 0]),
   midi.NoteOnEvent(tick=0, channel=3, data=[28, 127]),
   midi.NoteOnEvent(tick=30, channel=3, data=[28, 0]),
   midi.NoteOnEvent(tick=0, channel=3, data=[28, 127]),
   midi.NoteOnEvent(tick=30, channel=3, data=[28, 0]),
   midi.NoteOnEvent(tick=0, channel=3, data=[28, 127]),
   midi.NoteOnEvent(tick=30, channel=3, data=[28, 0]),
   midi.NoteOnEvent(tick=0, channel=3, data=[28, 127]),
   midi.NoteOnEvent(tick=30, channel=3, data=[28, 0]),
   midi.NoteOnEvent(tick=0, channel=3, data=[36, 127]),
   midi.NoteOnEvent(tick=60, channel=3, data=[36, 0]),
   midi.NoteOnEvent(tick=0, channel=3, data=[28, 127]),
   midi.NoteOnEvent(tick=30, channel=3, data=[28, 0]),
   midi.NoteOnEvent(tick=0, channel=3, data=[28, 127]),
   midi.NoteOnEvent(tick=30, channel=3, data=[28, 0]),
   midi.NoteOnEvent(tick=0, channel=3, data=[28, 127]),
   midi.NoteOnEvent(tick=30, channel=3, data=[28, 0]),
   midi.NoteOnEvent(tick=0, channel=3, data=[28, 127]),
   midi.NoteOnEvent(tick=30, channel=3, data=[28, 0]),
   midi.NoteOnEvent(tick=0, channel=3, data=[28, 127]),
   midi.NoteOnEvent(tick=60, channel=3, data=[28, 0]),
   midi.NoteOnEvent(tick=0, channel=3, data=[28, 127]),
   midi.NoteOnEvent(tick=30, channel=3, data=[28, 0]),
   midi.NoteOnEvent(tick=0, channel=3, data=[28, 127]),
   midi.NoteOnEvent(tick=30, channel=3, data=[28, 0]),
   midi.NoteOnEvent(tick=0, channel=3, data=[29, 127]),
   midi.NoteOnEvent(tick=60, channel=3, data=[29, 0]),
   midi.NoteOnEvent(tick=0, channel=3, data=[29, 127]),
   midi.NoteOnEvent(tick=30, channel=3, data=[29, 0]),
   midi.NoteOnEvent(tick=0, channel=3, data=[29, 127]),
   midi.NoteOnEvent(tick=30, channel=3, data=[29, 0]),
   midi.NoteOnEvent(tick=0, channel=3, data=[28, 127]),
   midi.NoteOnEvent(tick=60, channel=3, data=[28, 0]),
   midi.NoteOnEvent(tick=0, channel=3, data=[28, 127]),
   midi.NoteOnEvent(tick=60, channel=3, data=[28, 0]),
   midi.NoteOnEvent(tick=0, channel=3, data=[28, 127]),
   midi.NoteOnEvent(tick=30, channel=3, data=[28, 0]),
   midi.NoteOnEvent(tick=0, channel=3, data=[28, 127]),
   midi.NoteOnEvent(tick=30, channel=3, data=[28, 0]),
   midi.NoteOnEvent(tick=0, channel=3, data=[33, 127]),
   midi.NoteOnEvent(tick=60, channel=3, data=[33, 0]),
   midi.NoteOnEvent(tick=0, channel=3, data=[28, 127]),
   midi.NoteOnEvent(tick=30, channel=3, data=[28, 0]),
   midi.NoteOnEvent(tick=0, channel=3, data=[28, 127]),
   midi.NoteOnEvent(tick=30, channel=3, data=[28, 0]),
   midi.NoteOnEvent(tick=0, channel=3, data=[28, 127]),
   midi.NoteOnEvent(tick=30, channel=3, data=[28, 0]),
   midi.NoteOnEvent(tick=0, channel=3, data=[28, 127]),
   midi.NoteOnEvent(tick=30, channel=3, data=[28, 0]),
   midi.NoteOnEvent(tick=0, channel=3, data=[35, 127]),
   midi.NoteOnEvent(tick=60, channel=3, data=[35, 0]),
   midi.NoteOnEvent(tick=0, channel=3, data=[28, 127]),
   midi.NoteOnEvent(tick=30, channel=3, data=[28, 0]),
   midi.NoteOnEvent(tick=0, channel=3, data=[28, 127]),
   midi.NoteOnEvent(tick=30, channel=3, data=[28, 0]),
   midi.NoteOnEvent(tick=0, channel=3, data=[28, 127]),
   midi.NoteOnEvent(tick=30, channel=3, data=[28, 0]),
   midi.NoteOnEvent(tick=0, channel=3, data=[28, 127]),
   midi.NoteOnEvent(tick=30, channel=3, data=[28, 0]),
   midi.NoteOnEvent(tick=0, channel=3, data=[33, 127]),
   midi.NoteOnEvent(tick=60, channel=3, data=[33, 0]),
   midi.NoteOnEvent(tick=0, channel=3, data=[28, 127]),
   midi.NoteOnEvent(tick=30, channel=3, data=[28, 0]),
   midi.NoteOnEvent(tick=0, channel=3, data=[28, 127]),
   midi.NoteOnEvent(tick=30, channel=3, data=[28, 0]),
   midi.NoteOnEvent(tick=0, channel=3, data=[28, 127]),
   midi.NoteOnEvent(tick=30, channel=3, data=[28, 0]),
   midi.NoteOnEvent(tick=0, channel=3, data=[28, 127]),
   midi.NoteOnEvent(tick=30, channel=3, data=[28, 0]),
   midi.NoteOnEvent(tick=0, channel=3, data=[28, 127]),
   midi.NoteOnEvent(tick=60, channel=3, data=[28, 0]),
   midi.NoteOnEvent(tick=0, channel=3, data=[28, 127]),
   midi.NoteOnEvent(tick=30, channel=3, data=[28, 0]),
   midi.NoteOnEvent(tick=0, channel=3, data=[28, 127]),
   midi.NoteOnEvent(tick=30, channel=3, data=[28, 0]),
   midi.NoteOnEvent(tick=0, channel=3, data=[29, 127]),
   midi.NoteOnEvent(tick=60, channel=3, data=[29, 0]),
   midi.NoteOnEvent(tick=0, channel=3, data=[29, 127]),
   midi.NoteOnEvent(tick=30, channel=3, data=[29, 0]),
   midi.NoteOnEvent(tick=0, channel=3, data=[29, 127]),
   midi.NoteOnEvent(tick=30, channel=3, data=[29, 0]),
   midi.NoteOnEvent(tick=0, channel=3, data=[28, 127]),
   midi.NoteOnEvent(tick=60, channel=3, data=[28, 0]),
   midi.NoteOnEvent(tick=0, channel=3, data=[28, 127]),
   midi.NoteOnEvent(tick=60, channel=3, data=[28, 0]),
   midi.NoteOnEvent(tick=0, channel=3, data=[28, 127]),
   midi.NoteOnEvent(tick=30, channel=3, data=[28, 0]),
   midi.NoteOnEvent(tick=0, channel=3, data=[28, 127]),
   midi.NoteOnEvent(tick=30, channel=3, data=[28, 0]),
   midi.NoteOnEvent(tick=0, channel=3, data=[33, 127]),
   midi.NoteOnEvent(tick=60, channel=3, data=[33, 0]),
   midi.NoteOnEvent(tick=0, channel=3, data=[28, 127]),
   midi.NoteOnEvent(tick=30, channel=3, data=[28, 0]),
   midi.NoteOnEvent(tick=0, channel=3, data=[28, 127]),
   midi.NoteOnEvent(tick=30, channel=3, data=[28, 0]),
   midi.NoteOnEvent(tick=0, channel=3, data=[28, 127]),
   midi.NoteOnEvent(tick=30, channel=3, data=[28, 0]),
   midi.NoteOnEvent(tick=0, channel=3, data=[28, 127]),
   midi.NoteOnEvent(tick=30, channel=3, data=[28, 0]),
   midi.NoteOnEvent(tick=0, channel=3, data=[35, 127]),
   midi.NoteOnEvent(tick=60, channel=3, data=[35, 0]),
   midi.NoteOnEvent(tick=0, channel=3, data=[28, 127]),
   midi.NoteOnEvent(tick=30, channel=3, data=[28, 0]),
   midi.NoteOnEvent(tick=0, channel=3, data=[28, 127]),
   midi.NoteOnEvent(tick=30, channel=3, data=[28, 0]),
   midi.NoteOnEvent(tick=0, channel=3, data=[28, 127]),
   midi.NoteOnEvent(tick=30, channel=3, data=[28, 0]),
   midi.NoteOnEvent(tick=0, channel=3, data=[28, 127]),
   midi.NoteOnEvent(tick=30, channel=3, data=[28, 0]),
   midi.NoteOnEvent(tick=0, channel=3, data=[36, 127]),
   midi.NoteOnEvent(tick=60, channel=3, data=[36, 0]),
   midi.NoteOnEvent(tick=0, channel=3, data=[28, 127]),
   midi.NoteOnEvent(tick=30, channel=3, data=[28, 0]),
   midi.NoteOnEvent(tick=0, channel=3, data=[28, 127]),
   midi.NoteOnEvent(tick=30, channel=3, data=[28, 0]),
   midi.NoteOnEvent(tick=0, channel=3, data=[28, 127]),
   midi.NoteOnEvent(tick=30, channel=3, data=[28, 0]),
   midi.NoteOnEvent(tick=0, channel=3, data=[28, 127]),
   midi.NoteOnEvent(tick=30, channel=3, data=[28, 0]),
   midi.NoteOnEvent(tick=0, channel=3, data=[28, 127]),
   midi.NoteOnEvent(tick=60, channel=3, data=[28, 0]),
   midi.NoteOnEvent(tick=0, channel=3, data=[28, 127]),
   midi.NoteOnEvent(tick=30, channel=3, data=[28, 0]),
   midi.NoteOnEvent(tick=0, channel=3, data=[28, 127]),
   midi.NoteOnEvent(tick=30, channel=3, data=[28, 0]),
   midi.NoteOnEvent(tick=0, channel=3, data=[29, 127]),
   midi.NoteOnEvent(tick=60, channel=3, data=[29, 0]),
   midi.NoteOnEvent(tick=0, channel=3, data=[29, 127]),
   midi.NoteOnEvent(tick=30, channel=3, data=[29, 0]),
   midi.NoteOnEvent(tick=0, channel=3, data=[29, 127]),
   midi.NoteOnEvent(tick=30, channel=3, data=[29, 0]),
   midi.NoteOnEvent(tick=0, channel=3, data=[28, 127]),
   midi.NoteOnEvent(tick=60, channel=3, data=[28, 0]),
   midi.NoteOnEvent(tick=0, channel=3, data=[28, 127]),
   midi.NoteOnEvent(tick=60, channel=3, data=[28, 0]),
   midi.NoteOnEvent(tick=0, channel=3, data=[28, 127]),
   midi.NoteOnEvent(tick=30, channel=3, data=[28, 0]),
   midi.NoteOnEvent(tick=0, channel=3, data=[28, 127]),
   midi.NoteOnEvent(tick=30, channel=3, data=[28, 0]),
   midi.NoteOnEvent(tick=0, channel=3, data=[33, 127]),
   midi.NoteOnEvent(tick=60, channel=3, data=[33, 0]),
   midi.NoteOnEvent(tick=0, channel=3, data=[28, 127]),
   midi.NoteOnEvent(tick=30, channel=3, data=[28, 0]),
   midi.NoteOnEvent(tick=0, channel=3, data=[28, 127]),
   midi.NoteOnEvent(tick=30, channel=3, data=[28, 0]),
   midi.NoteOnEvent(tick=0, channel=3, data=[28, 127]),
   midi.NoteOnEvent(tick=30, channel=3, data=[28, 0]),
   midi.NoteOnEvent(tick=0, channel=3, data=[28, 127]),
   midi.NoteOnEvent(tick=30, channel=3, data=[28, 0]),
   midi.NoteOnEvent(tick=0, channel=3, data=[35, 127]),
   midi.NoteOnEvent(tick=60, channel=3, data=[35, 0]),
   midi.NoteOnEvent(tick=0, channel=3, data=[28, 127]),
   midi.NoteOnEvent(tick=30, channel=3, data=[28, 0]),
   midi.NoteOnEvent(tick=0, channel=3, data=[28, 127]),
   midi.NoteOnEvent(tick=30, channel=3, data=[28, 0]),
   midi.NoteOnEvent(tick=0, channel=3, data=[28, 127]),
   midi.NoteOnEvent(tick=30, channel=3, data=[28, 0]),
   midi.NoteOnEvent(tick=0, channel=3, data=[28, 127]),
   midi.NoteOnEvent(tick=30, channel=3, data=[28, 0]),
   midi.NoteOnEvent(tick=0, channel=3, data=[33, 127]),
   midi.NoteOnEvent(tick=60, channel=3, data=[33, 0]),
   midi.NoteOnEvent(tick=0, channel=3, data=[28, 127]),
   midi.NoteOnEvent(tick=30, channel=3, data=[28, 0]),
   midi.NoteOnEvent(tick=0, channel=3, data=[28, 127]),
   midi.NoteOnEvent(tick=30, channel=3, data=[28, 0]),
   midi.NoteOnEvent(tick=0, channel=3, data=[28, 127]),
   midi.NoteOnEvent(tick=30, channel=3, data=[28, 0]),
   midi.NoteOnEvent(tick=0, channel=3, data=[28, 127]),
   midi.NoteOnEvent(tick=30, channel=3, data=[28, 0]),
   midi.NoteOnEvent(tick=0, channel=3, data=[28, 127]),
   midi.NoteOnEvent(tick=60, channel=3, data=[28, 0]),
   midi.NoteOnEvent(tick=0, channel=3, data=[28, 127]),
   midi.NoteOnEvent(tick=30, channel=3, data=[28, 0]),
   midi.NoteOnEvent(tick=0, channel=3, data=[28, 127]),
   midi.NoteOnEvent(tick=30, channel=3, data=[28, 0]),
   midi.NoteOnEvent(tick=0, channel=3, data=[29, 127]),
   midi.NoteOnEvent(tick=60, channel=3, data=[29, 0]),
   midi.NoteOnEvent(tick=0, channel=3, data=[29, 127]),
   midi.NoteOnEvent(tick=30, channel=3, data=[29, 0]),
   midi.NoteOnEvent(tick=0, channel=3, data=[29, 127]),
   midi.NoteOnEvent(tick=30, channel=3, data=[29, 0]),
   midi.NoteOnEvent(tick=0, channel=3, data=[28, 127]),
   midi.NoteOnEvent(tick=60, channel=3, data=[28, 0]),
   midi.NoteOnEvent(tick=0, channel=3, data=[40, 127]),
   midi.NoteOnEvent(tick=60, channel=3, data=[40, 0]),
   midi.NoteOnEvent(tick=0, channel=3, data=[28, 127]),
   midi.NoteOnEvent(tick=60, channel=3, data=[28, 0]),
   midi.NoteOnEvent(tick=0, channel=3, data=[28, 127]),
   midi.NoteOnEvent(tick=60, channel=3, data=[28, 0]),
   midi.NoteOnEvent(tick=0, channel=3, data=[40, 127]),
   midi.NoteOnEvent(tick=60, channel=3, data=[40, 0]),
   midi.NoteOnEvent(tick=0, channel=3, data=[28, 127]),
   midi.NoteOnEvent(tick=60, channel=3, data=[28, 0]),
   midi.NoteOnEvent(tick=0, channel=3, data=[28, 127]),
   midi.NoteOnEvent(tick=60, channel=3, data=[28, 0]),
   midi.NoteOnEvent(tick=0, channel=3, data=[40, 127]),
   midi.NoteOnEvent(tick=60, channel=3, data=[40, 0]),
   midi.NoteOnEvent(tick=0, channel=3, data=[28, 127]),
   midi.NoteOnEvent(tick=60, channel=3, data=[28, 0]),
   midi.NoteOnEvent(tick=0, channel=3, data=[40, 127]),
   midi.NoteOnEvent(tick=60, channel=3, data=[40, 0]),
   midi.NoteOnEvent(tick=0, channel=3, data=[28, 127]),
   midi.NoteOnEvent(tick=60, channel=3, data=[28, 0]),
   midi.NoteOnEvent(tick=0, channel=3, data=[28, 127]),
   midi.NoteOnEvent(tick=60, channel=3, data=[28, 0]),
   midi.NoteOnEvent(tick=0, channel=3, data=[40, 127]),
   midi.NoteOnEvent(tick=60, channel=3, data=[40, 0]),
   midi.NoteOnEvent(tick=0, channel=3, data=[28, 127]),
   midi.NoteOnEvent(tick=60, channel=3, data=[28, 0]),
   midi.NoteOnEvent(tick=0, channel=3, data=[28, 127]),
   midi.NoteOnEvent(tick=60, channel=3, data=[28, 0]),
   midi.NoteOnEvent(tick=0, channel=3, data=[40, 127]),
   midi.NoteOnEvent(tick=60, channel=3, data=[40, 0]),
   midi.NoteOnEvent(tick=0, channel=3, data=[28, 127]),
   midi.NoteOnEvent(tick=60, channel=3, data=[28, 0]),
   midi.NoteOnEvent(tick=0, channel=3, data=[38, 127]),
   midi.NoteOnEvent(tick=60, channel=3, data=[38, 0]),
   midi.NoteOnEvent(tick=0, channel=3, data=[35, 127]),
   midi.NoteOnEvent(tick=60, channel=3, data=[35, 0]),
   midi.NoteOnEvent(tick=0, channel=3, data=[35, 127]),
   midi.NoteOnEvent(tick=60, channel=3, data=[35, 0]),
   midi.NoteOnEvent(tick=0, channel=3, data=[38, 127]),
   midi.NoteOnEvent(tick=60, channel=3, data=[38, 0]),
   midi.NoteOnEvent(tick=0, channel=3, data=[35, 127]),
   midi.NoteOnEvent(tick=60, channel=3, data=[35, 0]),
   midi.NoteOnEvent(tick=0, channel=3, data=[35, 127]),
   midi.NoteOnEvent(tick=60, channel=3, data=[35, 0]),
   midi.NoteOnEvent(tick=0, channel=3, data=[38, 127]),
   midi.NoteOnEvent(tick=60, channel=3, data=[38, 0]),
   midi.NoteOnEvent(tick=0, channel=3, data=[38, 127]),
   midi.NoteOnEvent(tick=60, channel=3, data=[38, 0]),
   midi.NoteOnEvent(tick=0, channel=3, data=[39, 127]),
   midi.NoteOnEvent(tick=60, channel=3, data=[39, 0]),
   midi.NoteOnEvent(tick=0, channel=3, data=[35, 127]),
   midi.NoteOnEvent(tick=60, channel=3, data=[35, 0]),
   midi.NoteOnEvent(tick=0, channel=3, data=[35, 127]),
   midi.NoteOnEvent(tick=60, channel=3, data=[35, 0]),
   midi.NoteOnEvent(tick=0, channel=3, data=[39, 127]),
   midi.NoteOnEvent(tick=60, channel=3, data=[39, 0]),
   midi.NoteOnEvent(tick=0, channel=3, data=[35, 127]),
   midi.NoteOnEvent(tick=60, channel=3, data=[35, 0]),
   midi.NoteOnEvent(tick=0, channel=3, data=[35, 127]),
   midi.NoteOnEvent(tick=60, channel=3, data=[35, 0]),
   midi.NoteOnEvent(tick=0, channel=3, data=[39, 127]),
   midi.NoteOnEvent(tick=60, channel=3, data=[39, 0]),
   midi.NoteOnEvent(tick=0, channel=3, data=[39, 127]),
   midi.NoteOnEvent(tick=60, channel=3, data=[39, 0]),
   midi.NoteOnEvent(tick=0, channel=3, data=[40, 127]),
   midi.NoteOnEvent(tick=60, channel=3, data=[40, 0]),
   midi.NoteOnEvent(tick=0, channel=3, data=[28, 127]),
   midi.NoteOnEvent(tick=60, channel=3, data=[28, 0]),
   midi.NoteOnEvent(tick=0, channel=3, data=[28, 127]),
   midi.NoteOnEvent(tick=60, channel=3, data=[28, 0]),
   midi.NoteOnEvent(tick=0, channel=3, data=[40, 127]),
   midi.NoteOnEvent(tick=60, channel=3, data=[40, 0]),
   midi.NoteOnEvent(tick=0, channel=3, data=[28, 127]),
   midi.NoteOnEvent(tick=60, channel=3, data=[28, 0]),
   midi.NoteOnEvent(tick=0, channel=3, data=[28, 127]),
   midi.NoteOnEvent(tick=60, channel=3, data=[28, 0]),
   midi.NoteOnEvent(tick=0, channel=3, data=[40, 127]),
   midi.NoteOnEvent(tick=60, channel=3, data=[40, 0]),
   midi.NoteOnEvent(tick=0, channel=3, data=[28, 127]),
   midi.NoteOnEvent(tick=60, channel=3, data=[28, 0]),
   midi.NoteOnEvent(tick=0, channel=3, data=[40, 127]),
   midi.NoteOnEvent(tick=60, channel=3, data=[40, 0]),
   midi.NoteOnEvent(tick=0, channel=3, data=[28, 127]),
   midi.NoteOnEvent(tick=60, channel=3, data=[28, 0]),
   midi.NoteOnEvent(tick=0, channel=3, data=[28, 127]),
   midi.NoteOnEvent(tick=60, channel=3, data=[28, 0]),
   midi.NoteOnEvent(tick=0, channel=3, data=[40, 127]),
   midi.NoteOnEvent(tick=60, channel=3, data=[40, 0]),
   midi.NoteOnEvent(tick=0, channel=3, data=[28, 127]),
   midi.NoteOnEvent(tick=60, channel=3, data=[28, 0]),
   midi.NoteOnEvent(tick=0, channel=3, data=[28, 127]),
   midi.NoteOnEvent(tick=60, channel=3, data=[28, 0]),
   midi.NoteOnEvent(tick=0, channel=3, data=[40, 127]),
   midi.NoteOnEvent(tick=60, channel=3, data=[40, 0]),
   midi.NoteOnEvent(tick=0, channel=3, data=[28, 127]),
   midi.NoteOnEvent(tick=60, channel=3, data=[28, 0]),
   midi.NoteOnEvent(tick=0, channel=3, data=[38, 127]),
   midi.NoteOnEvent(tick=60, channel=3, data=[38, 0]),
   midi.NoteOnEvent(tick=0, channel=3, data=[35, 127]),
   midi.NoteOnEvent(tick=60, channel=3, data=[35, 0]),
   midi.NoteOnEvent(tick=0, channel=3, data=[35, 127]),
   midi.NoteOnEvent(tick=60, channel=3, data=[35, 0]),
   midi.NoteOnEvent(tick=0, channel=3, data=[38, 127]),
   midi.NoteOnEvent(tick=60, channel=3, data=[38, 0]),
   midi.NoteOnEvent(tick=0, channel=3, data=[35, 127]),
   midi.NoteOnEvent(tick=60, channel=3, data=[35, 0]),
   midi.NoteOnEvent(tick=0, channel=3, data=[35, 127]),
   midi.NoteOnEvent(tick=60, channel=3, data=[35, 0]),
   midi.NoteOnEvent(tick=0, channel=3, data=[38, 127]),
   midi.NoteOnEvent(tick=60, channel=3, data=[38, 0]),
   midi.NoteOnEvent(tick=0, channel=3, data=[38, 127]),
   midi.NoteOnEvent(tick=60, channel=3, data=[38, 0]),
   midi.NoteOnEvent(tick=0, channel=3, data=[39, 127]),
   midi.NoteOnEvent(tick=60, channel=3, data=[39, 0]),
   midi.NoteOnEvent(tick=0, channel=3, data=[35, 127]),
   midi.NoteOnEvent(tick=60, channel=3, data=[35, 0]),
   midi.NoteOnEvent(tick=0, channel=3, data=[35, 127]),
   midi.NoteOnEvent(tick=60, channel=3, data=[35, 0]),
   midi.NoteOnEvent(tick=0, channel=3, data=[39, 127]),
   midi.NoteOnEvent(tick=60, channel=3, data=[39, 0]),
   midi.NoteOnEvent(tick=0, channel=3, data=[35, 127]),
   midi.NoteOnEvent(tick=60, channel=3, data=[35, 0]),
   midi.NoteOnEvent(tick=0, channel=3, data=[35, 127]),
   midi.NoteOnEvent(tick=60, channel=3, data=[35, 0]),
   midi.NoteOnEvent(tick=0, channel=3, data=[39, 127]),
   midi.NoteOnEvent(tick=60, channel=3, data=[39, 0]),
   midi.NoteOnEvent(tick=0, channel=3, data=[39, 127]),
   midi.NoteOnEvent(tick=60, channel=3, data=[39, 0]),
   midi.NoteOnEvent(tick=0, channel=3, data=[40, 127]),
   midi.NoteOnEvent(tick=60, channel=3, data=[40, 0]),
   midi.NoteOnEvent(tick=0, channel=3, data=[28, 127]),
   midi.NoteOnEvent(tick=60, channel=3, data=[28, 0]),
   midi.NoteOnEvent(tick=0, channel=3, data=[28, 127]),
   midi.NoteOnEvent(tick=60, channel=3, data=[28, 0]),
   midi.NoteOnEvent(tick=0, channel=3, data=[40, 127]),
   midi.NoteOnEvent(tick=60, channel=3, data=[40, 0]),
   midi.NoteOnEvent(tick=0, channel=3, data=[28, 127]),
   midi.NoteOnEvent(tick=60, channel=3, data=[28, 0]),
   midi.NoteOnEvent(tick=0, channel=3, data=[28, 127]),
   midi.NoteOnEvent(tick=60, channel=3, data=[28, 0]),
   midi.NoteOnEvent(tick=0, channel=3, data=[40, 127]),
   midi.NoteOnEvent(tick=60, channel=3, data=[40, 0]),
   midi.NoteOnEvent(tick=0, channel=3, data=[28, 127]),
   midi.NoteOnEvent(tick=60, channel=3, data=[28, 0]),
   midi.NoteOnEvent(tick=0, channel=3, data=[40, 127]),
   midi.NoteOnEvent(tick=60, channel=3, data=[40, 0]),
   midi.NoteOnEvent(tick=0, channel=3, data=[28, 127]),
   midi.NoteOnEvent(tick=60, channel=3, data=[28, 0]),
   midi.NoteOnEvent(tick=0, channel=3, data=[28, 127]),
   midi.NoteOnEvent(tick=60, channel=3, data=[28, 0]),
   midi.NoteOnEvent(tick=0, channel=3, data=[40, 127]),
   midi.NoteOnEvent(tick=60, channel=3, data=[40, 0]),
   midi.NoteOnEvent(tick=0, channel=3, data=[28, 127]),
   midi.NoteOnEvent(tick=60, channel=3, data=[28, 0]),
   midi.NoteOnEvent(tick=0, channel=3, data=[28, 127]),
   midi.NoteOnEvent(tick=60, channel=3, data=[28, 0]),
   midi.NoteOnEvent(tick=0, channel=3, data=[40, 127]),
   midi.NoteOnEvent(tick=60, channel=3, data=[40, 0]),
   midi.NoteOnEvent(tick=0, channel=3, data=[28, 127]),
   midi.NoteOnEvent(tick=60, channel=3, data=[28, 0]),
   midi.NoteOnEvent(tick=0, channel=3, data=[38, 127]),
   midi.NoteOnEvent(tick=60, channel=3, data=[38, 0]),
   midi.NoteOnEvent(tick=0, channel=3, data=[35, 127]),
   midi.NoteOnEvent(tick=60, channel=3, data=[35, 0]),
   midi.NoteOnEvent(tick=0, channel=3, data=[35, 127]),
   midi.NoteOnEvent(tick=60, channel=3, data=[35, 0]),
   midi.NoteOnEvent(tick=0, channel=3, data=[38, 127]),
   midi.NoteOnEvent(tick=60, channel=3, data=[38, 0]),
   midi.NoteOnEvent(tick=0, channel=3, data=[35, 127]),
   midi.NoteOnEvent(tick=60, channel=3, data=[35, 0]),
   midi.NoteOnEvent(tick=0, channel=3, data=[35, 127]),
   midi.NoteOnEvent(tick=60, channel=3, data=[35, 0]),
   midi.NoteOnEvent(tick=0, channel=3, data=[38, 127]),
   midi.NoteOnEvent(tick=60, channel=3, data=[38, 0]),
   midi.NoteOnEvent(tick=0, channel=3, data=[38, 127]),
   midi.NoteOnEvent(tick=60, channel=3, data=[38, 0]),
   midi.NoteOnEvent(tick=0, channel=3, data=[39, 127]),
   midi.NoteOnEvent(tick=60, channel=3, data=[39, 0]),
   midi.NoteOnEvent(tick=0, channel=3, data=[35, 127]),
   midi.NoteOnEvent(tick=60, channel=3, data=[35, 0]),
   midi.NoteOnEvent(tick=0, channel=3, data=[35, 127]),
   midi.NoteOnEvent(tick=60, channel=3, data=[35, 0]),
   midi.NoteOnEvent(tick=0, channel=3, data=[39, 127]),
   midi.NoteOnEvent(tick=60, channel=3, data=[39, 0]),
   midi.NoteOnEvent(tick=0, channel=3, data=[35, 127]),
   midi.NoteOnEvent(tick=60, channel=3, data=[35, 0]),
   midi.NoteOnEvent(tick=0, channel=3, data=[35, 127]),
   midi.NoteOnEvent(tick=60, channel=3, data=[35, 0]),
   midi.NoteOnEvent(tick=0, channel=3, data=[39, 127]),
   midi.NoteOnEvent(tick=60, channel=3, data=[39, 0]),
   midi.NoteOnEvent(tick=0, channel=3, data=[39, 127]),
   midi.NoteOnEvent(tick=60, channel=3, data=[39, 0]),
   midi.NoteOnEvent(tick=0, channel=3, data=[40, 127]),
   midi.NoteOnEvent(tick=60, channel=3, data=[40, 0]),
   midi.NoteOnEvent(tick=0, channel=3, data=[28, 127]),
   midi.NoteOnEvent(tick=60, channel=3, data=[28, 0]),
   midi.NoteOnEvent(tick=0, channel=3, data=[28, 127]),
   midi.NoteOnEvent(tick=60, channel=3, data=[28, 0]),
   midi.NoteOnEvent(tick=0, channel=3, data=[40, 127]),
   midi.NoteOnEvent(tick=60, channel=3, data=[40, 0]),
   midi.NoteOnEvent(tick=0, channel=3, data=[28, 127]),
   midi.NoteOnEvent(tick=60, channel=3, data=[28, 0]),
   midi.NoteOnEvent(tick=0, channel=3, data=[28, 127]),
   midi.NoteOnEvent(tick=60, channel=3, data=[28, 0]),
   midi.NoteOnEvent(tick=0, channel=3, data=[40, 127]),
   midi.NoteOnEvent(tick=60, channel=3, data=[40, 0]),
   midi.NoteOnEvent(tick=0, channel=3, data=[28, 127]),
   midi.NoteOnEvent(tick=60, channel=3, data=[28, 0]),
   midi.NoteOnEvent(tick=0, channel=3, data=[40, 127]),
   midi.NoteOnEvent(tick=60, channel=3, data=[40, 0]),
   midi.NoteOnEvent(tick=0, channel=3, data=[28, 127]),
   midi.NoteOnEvent(tick=60, channel=3, data=[28, 0]),
   midi.NoteOnEvent(tick=0, channel=3, data=[28, 127]),
   midi.NoteOnEvent(tick=60, channel=3, data=[28, 0]),
   midi.NoteOnEvent(tick=0, channel=3, data=[40, 127]),
   midi.NoteOnEvent(tick=60, channel=3, data=[40, 0]),
   midi.NoteOnEvent(tick=0, channel=3, data=[28, 127]),
   midi.NoteOnEvent(tick=60, channel=3, data=[28, 0]),
   midi.NoteOnEvent(tick=0, channel=3, data=[28, 127]),
   midi.NoteOnEvent(tick=60, channel=3, data=[28, 0]),
   midi.NoteOnEvent(tick=0, channel=3, data=[40, 127]),
   midi.NoteOnEvent(tick=60, channel=3, data=[40, 0]),
   midi.NoteOnEvent(tick=0, channel=3, data=[28, 127]),
   midi.NoteOnEvent(tick=60, channel=3, data=[28, 0]),
   midi.NoteOnEvent(tick=0, channel=3, data=[38, 127]),
   midi.NoteOnEvent(tick=60, channel=3, data=[38, 0]),
   midi.NoteOnEvent(tick=0, channel=3, data=[35, 127]),
   midi.NoteOnEvent(tick=60, channel=3, data=[35, 0]),
   midi.NoteOnEvent(tick=0, channel=3, data=[35, 127]),
   midi.NoteOnEvent(tick=60, channel=3, data=[35, 0]),
   midi.NoteOnEvent(tick=0, channel=3, data=[38, 127]),
   midi.NoteOnEvent(tick=60, channel=3, data=[38, 0]),
   midi.NoteOnEvent(tick=0, channel=3, data=[35, 127]),
   midi.NoteOnEvent(tick=60, channel=3, data=[35, 0]),
   midi.NoteOnEvent(tick=0, channel=3, data=[35, 127]),
   midi.NoteOnEvent(tick=60, channel=3, data=[35, 0]),
   midi.NoteOnEvent(tick=0, channel=3, data=[38, 127]),
   midi.NoteOnEvent(tick=60, channel=3, data=[38, 0]),
   midi.NoteOnEvent(tick=0, channel=3, data=[38, 127]),
   midi.NoteOnEvent(tick=60, channel=3, data=[38, 0]),
   midi.NoteOnEvent(tick=0, channel=3, data=[39, 127]),
   midi.NoteOnEvent(tick=60, channel=3, data=[39, 0]),
   midi.NoteOnEvent(tick=0, channel=3, data=[35, 127]),
   midi.NoteOnEvent(tick=60, channel=3, data=[35, 0]),
   midi.NoteOnEvent(tick=0, channel=3, data=[35, 127]),
   midi.NoteOnEvent(tick=60, channel=3, data=[35, 0]),
   midi.NoteOnEvent(tick=0, channel=3, data=[39, 127]),
   midi.NoteOnEvent(tick=60, channel=3, data=[39, 0]),
   midi.NoteOnEvent(tick=0, channel=3, data=[35, 127]),
   midi.NoteOnEvent(tick=60, channel=3, data=[35, 0]),
   midi.NoteOnEvent(tick=0, channel=3, data=[35, 127]),
   midi.NoteOnEvent(tick=60, channel=3, data=[35, 0]),
   midi.NoteOnEvent(tick=0, channel=3, data=[39, 127]),
   midi.NoteOnEvent(tick=60, channel=3, data=[39, 0]),
   midi.NoteOnEvent(tick=0, channel=3, data=[39, 127]),
   midi.NoteOnEvent(tick=60, channel=3, data=[39, 0]),
   midi.NoteOnEvent(tick=0, channel=3, data=[40, 127]),
   midi.NoteOnEvent(tick=60, channel=3, data=[40, 0]),
   midi.NoteOnEvent(tick=0, channel=3, data=[28, 127]),
   midi.NoteOnEvent(tick=60, channel=3, data=[28, 0]),
   midi.NoteOnEvent(tick=0, channel=3, data=[28, 127]),
   midi.NoteOnEvent(tick=60, channel=3, data=[28, 0]),
   midi.NoteOnEvent(tick=0, channel=3, data=[40, 127]),
   midi.NoteOnEvent(tick=60, channel=3, data=[40, 0]),
   midi.NoteOnEvent(tick=0, channel=3, data=[28, 127]),
   midi.NoteOnEvent(tick=60, channel=3, data=[28, 0]),
   midi.NoteOnEvent(tick=0, channel=3, data=[28, 127]),
   midi.NoteOnEvent(tick=60, channel=3, data=[28, 0]),
   midi.NoteOnEvent(tick=0, channel=3, data=[40, 127]),
   midi.NoteOnEvent(tick=60, channel=3, data=[40, 0]),
   midi.NoteOnEvent(tick=0, channel=3, data=[28, 127]),
   midi.NoteOnEvent(tick=60, channel=3, data=[28, 0]),
   midi.NoteOnEvent(tick=0, channel=3, data=[40, 127]),
   midi.NoteOnEvent(tick=60, channel=3, data=[40, 0]),
   midi.NoteOnEvent(tick=0, channel=3, data=[28, 127]),
   midi.NoteOnEvent(tick=60, channel=3, data=[28, 0]),
   midi.NoteOnEvent(tick=0, channel=3, data=[28, 127]),
   midi.NoteOnEvent(tick=60, channel=3, data=[28, 0]),
   midi.NoteOnEvent(tick=0, channel=3, data=[40, 127]),
   midi.NoteOnEvent(tick=60, channel=3, data=[40, 0]),
   midi.NoteOnEvent(tick=0, channel=3, data=[28, 127]),
   midi.NoteOnEvent(tick=60, channel=3, data=[28, 0]),
   midi.NoteOnEvent(tick=0, channel=3, data=[28, 127]),
   midi.NoteOnEvent(tick=60, channel=3, data=[28, 0]),
   midi.NoteOnEvent(tick=0, channel=3, data=[40, 127]),
   midi.NoteOnEvent(tick=60, channel=3, data=[40, 0]),
   midi.NoteOnEvent(tick=0, channel=3, data=[28, 127]),
   midi.NoteOnEvent(tick=60, channel=3, data=[28, 0]),
   midi.NoteOnEvent(tick=0, channel=3, data=[38, 127]),
   midi.NoteOnEvent(tick=60, channel=3, data=[38, 0]),
   midi.NoteOnEvent(tick=0, channel=3, data=[35, 127]),
   midi.NoteOnEvent(tick=60, channel=3, data=[35, 0]),
   midi.NoteOnEvent(tick=0, channel=3, data=[35, 127]),
   midi.NoteOnEvent(tick=60, channel=3, data=[35, 0]),
   midi.NoteOnEvent(tick=0, channel=3, data=[38, 127]),
   midi.NoteOnEvent(tick=60, channel=3, data=[38, 0]),
   midi.NoteOnEvent(tick=0, channel=3, data=[35, 127]),
   midi.NoteOnEvent(tick=60, channel=3, data=[35, 0]),
   midi.NoteOnEvent(tick=0, channel=3, data=[35, 127]),
   midi.NoteOnEvent(tick=60, channel=3, data=[35, 0]),
   midi.NoteOnEvent(tick=0, channel=3, data=[38, 127]),
   midi.NoteOnEvent(tick=60, channel=3, data=[38, 0]),
   midi.NoteOnEvent(tick=0, channel=3, data=[38, 127]),
   midi.NoteOnEvent(tick=60, channel=3, data=[38, 0]),
   midi.NoteOnEvent(tick=0, channel=3, data=[39, 127]),
   midi.NoteOnEvent(tick=60, channel=3, data=[39, 0]),
   midi.NoteOnEvent(tick=0, channel=3, data=[35, 127]),
   midi.NoteOnEvent(tick=60, channel=3, data=[35, 0]),
   midi.NoteOnEvent(tick=0, channel=3, data=[35, 127]),
   midi.NoteOnEvent(tick=60, channel=3, data=[35, 0]),
   midi.NoteOnEvent(tick=0, channel=3, data=[39, 127]),
   midi.NoteOnEvent(tick=60, channel=3, data=[39, 0]),
   midi.NoteOnEvent(tick=0, channel=3, data=[35, 127]),
   midi.NoteOnEvent(tick=60, channel=3, data=[35, 0]),
   midi.NoteOnEvent(tick=0, channel=3, data=[35, 127]),
   midi.NoteOnEvent(tick=60, channel=3, data=[35, 0]),
   midi.NoteOnEvent(tick=0, channel=3, data=[39, 127]),
   midi.NoteOnEvent(tick=60, channel=3, data=[39, 0]),
   midi.NoteOnEvent(tick=0, channel=3, data=[39, 127]),
   midi.NoteOnEvent(tick=60, channel=3, data=[39, 0]),
   midi.NoteOnEvent(tick=0, channel=3, data=[40, 127]),
   midi.NoteOnEvent(tick=60, channel=3, data=[40, 0]),
   midi.NoteOnEvent(tick=0, channel=3, data=[28, 127]),
   midi.NoteOnEvent(tick=60, channel=3, data=[28, 0]),
   midi.NoteOnEvent(tick=0, channel=3, data=[28, 127]),
   midi.NoteOnEvent(tick=60, channel=3, data=[28, 0]),
   midi.NoteOnEvent(tick=0, channel=3, data=[40, 127]),
   midi.NoteOnEvent(tick=60, channel=3, data=[40, 0]),
   midi.NoteOnEvent(tick=0, channel=3, data=[28, 127]),
   midi.NoteOnEvent(tick=60, channel=3, data=[28, 0]),
   midi.NoteOnEvent(tick=0, channel=3, data=[28, 127]),
   midi.NoteOnEvent(tick=60, channel=3, data=[28, 0]),
   midi.NoteOnEvent(tick=0, channel=3, data=[40, 127]),
   midi.NoteOnEvent(tick=60, channel=3, data=[40, 0]),
   midi.NoteOnEvent(tick=0, channel=3, data=[28, 127]),
   midi.NoteOnEvent(tick=60, channel=3, data=[28, 0]),
   midi.NoteOnEvent(tick=0, channel=3, data=[40, 127]),
   midi.NoteOnEvent(tick=60, channel=3, data=[40, 0]),
   midi.NoteOnEvent(tick=0, channel=3, data=[28, 127]),
   midi.NoteOnEvent(tick=60, channel=3, data=[28, 0]),
   midi.NoteOnEvent(tick=0, channel=3, data=[28, 127]),
   midi.NoteOnEvent(tick=60, channel=3, data=[28, 0]),
   midi.NoteOnEvent(tick=0, channel=3, data=[40, 127]),
   midi.NoteOnEvent(tick=60, channel=3, data=[40, 0]),
   midi.NoteOnEvent(tick=0, channel=3, data=[28, 127]),
   midi.NoteOnEvent(tick=60, channel=3, data=[28, 0]),
   midi.NoteOnEvent(tick=0, channel=3, data=[28, 127]),
   midi.NoteOnEvent(tick=60, channel=3, data=[28, 0]),
   midi.NoteOnEvent(tick=0, channel=3, data=[40, 127]),
   midi.NoteOnEvent(tick=60, channel=3, data=[40, 0]),
   midi.NoteOnEvent(tick=0, channel=3, data=[28, 127]),
   midi.NoteOnEvent(tick=60, channel=3, data=[28, 0]),
   midi.NoteOnEvent(tick=0, channel=3, data=[38, 127]),
   midi.NoteOnEvent(tick=60, channel=3, data=[38, 0]),
   midi.NoteOnEvent(tick=0, channel=3, data=[35, 127]),
   midi.NoteOnEvent(tick=60, channel=3, data=[35, 0]),
   midi.NoteOnEvent(tick=0, channel=3, data=[35, 127]),
   midi.NoteOnEvent(tick=60, channel=3, data=[35, 0]),
   midi.NoteOnEvent(tick=0, channel=3, data=[38, 127]),
   midi.NoteOnEvent(tick=60, channel=3, data=[38, 0]),
   midi.NoteOnEvent(tick=0, channel=3, data=[35, 127]),
   midi.NoteOnEvent(tick=60, channel=3, data=[35, 0]),
   midi.NoteOnEvent(tick=0, channel=3, data=[35, 127]),
   midi.NoteOnEvent(tick=60, channel=3, data=[35, 0]),
   midi.NoteOnEvent(tick=0, channel=3, data=[38, 127]),
   midi.NoteOnEvent(tick=60, channel=3, data=[38, 0]),
   midi.NoteOnEvent(tick=0, channel=3, data=[38, 127]),
   midi.NoteOnEvent(tick=60, channel=3, data=[38, 0]),
   midi.NoteOnEvent(tick=0, channel=3, data=[39, 127]),
   midi.NoteOnEvent(tick=60, channel=3, data=[39, 0]),
   midi.NoteOnEvent(tick=0, channel=3, data=[35, 127]),
   midi.NoteOnEvent(tick=60, channel=3, data=[35, 0]),
   midi.NoteOnEvent(tick=0, channel=3, data=[35, 127]),
   midi.NoteOnEvent(tick=60, channel=3, data=[35, 0]),
   midi.NoteOnEvent(tick=0, channel=3, data=[39, 127]),
   midi.NoteOnEvent(tick=60, channel=3, data=[39, 0]),
   midi.NoteOnEvent(tick=0, channel=3, data=[35, 127]),
   midi.NoteOnEvent(tick=60, channel=3, data=[35, 0]),
   midi.NoteOnEvent(tick=0, channel=3, data=[35, 127]),
   midi.NoteOnEvent(tick=60, channel=3, data=[35, 0]),
   midi.NoteOnEvent(tick=0, channel=3, data=[39, 127]),
   midi.NoteOnEvent(tick=60, channel=3, data=[39, 0]),
   midi.NoteOnEvent(tick=0, channel=3, data=[39, 127]),
   midi.NoteOnEvent(tick=60, channel=3, data=[39, 0]),
   midi.NoteOnEvent(tick=0, channel=3, data=[35, 127]),
   midi.NoteOnEvent(tick=60, channel=3, data=[35, 0]),
   midi.NoteOnEvent(tick=0, channel=3, data=[35, 127]),
   midi.NoteOnEvent(tick=60, channel=3, data=[35, 0]),
   midi.NoteOnEvent(tick=0, channel=3, data=[35, 127]),
   midi.NoteOnEvent(tick=60, channel=3, data=[35, 0]),
   midi.NoteOnEvent(tick=0, channel=3, data=[35, 127]),
   midi.NoteOnEvent(tick=60, channel=3, data=[35, 0]),
   midi.NoteOnEvent(tick=0, channel=3, data=[35, 127]),
   midi.NoteOnEvent(tick=60, channel=3, data=[35, 0]),
   midi.NoteOnEvent(tick=0, channel=3, data=[35, 127]),
   midi.NoteOnEvent(tick=60, channel=3, data=[35, 0]),
   midi.NoteOnEvent(tick=0, channel=3, data=[35, 127]),
   midi.NoteOnEvent(tick=60, channel=3, data=[35, 0]),
   midi.NoteOnEvent(tick=0, channel=3, data=[33, 127]),
   midi.NoteOnEvent(tick=60, channel=3, data=[33, 0]),
   midi.NoteOnEvent(tick=0, channel=3, data=[35, 127]),
   midi.NoteOnEvent(tick=60, channel=3, data=[35, 0]),
   midi.NoteOnEvent(tick=0, channel=3, data=[35, 127]),
   midi.NoteOnEvent(tick=60, channel=3, data=[35, 0]),
   midi.NoteOnEvent(tick=0, channel=3, data=[35, 127]),
   midi.NoteOnEvent(tick=60, channel=3, data=[35, 0]),
   midi.NoteOnEvent(tick=0, channel=3, data=[35, 127]),
   midi.NoteOnEvent(tick=60, channel=3, data=[35, 0]),
   midi.NoteOnEvent(tick=0, channel=3, data=[35, 127]),
   midi.NoteOnEvent(tick=60, channel=3, data=[35, 0]),
   midi.NoteOnEvent(tick=0, channel=3, data=[35, 127]),
   midi.NoteOnEvent(tick=60, channel=3, data=[35, 0]),
   midi.NoteOnEvent(tick=0, channel=3, data=[35, 127]),
   midi.NoteOnEvent(tick=60, channel=3, data=[35, 0]),
   midi.NoteOnEvent(tick=0, channel=3, data=[33, 127]),
   midi.NoteOnEvent(tick=60, channel=3, data=[33, 0]),
   midi.NoteOnEvent(tick=0, channel=3, data=[33, 127]),
   midi.NoteOnEvent(tick=60, channel=3, data=[33, 0]),
   midi.NoteOnEvent(tick=0, channel=3, data=[33, 127]),
   midi.NoteOnEvent(tick=60, channel=3, data=[33, 0]),
   midi.NoteOnEvent(tick=0, channel=3, data=[33, 127]),
   midi.NoteOnEvent(tick=60, channel=3, data=[33, 0]),
   midi.NoteOnEvent(tick=0, channel=3, data=[33, 127]),
   midi.NoteOnEvent(tick=60, channel=3, data=[33, 0]),
   midi.NoteOnEvent(tick=0, channel=3, data=[33, 127]),
   midi.NoteOnEvent(tick=60, channel=3, data=[33, 0]),
   midi.NoteOnEvent(tick=0, channel=3, data=[33, 127]),
   midi.NoteOnEvent(tick=60, channel=3, data=[33, 0]),
   midi.NoteOnEvent(tick=0, channel=3, data=[33, 127]),
   midi.NoteOnEvent(tick=60, channel=3, data=[33, 0]),
   midi.NoteOnEvent(tick=0, channel=3, data=[28, 127]),
   midi.NoteOnEvent(tick=60, channel=3, data=[28, 0]),
   midi.NoteOnEvent(tick=0, channel=3, data=[30, 127]),
   midi.NoteOnEvent(tick=60, channel=3, data=[30, 0]),
   midi.NoteOnEvent(tick=0, channel=3, data=[30, 127]),
   midi.NoteOnEvent(tick=60, channel=3, data=[30, 0]),
   midi.NoteOnEvent(tick=0, channel=3, data=[30, 127]),
   midi.NoteOnEvent(tick=60, channel=3, data=[30, 0]),
   midi.NoteOnEvent(tick=0, channel=3, data=[30, 127]),
   midi.NoteOnEvent(tick=60, channel=3, data=[30, 0]),
   midi.NoteOnEvent(tick=0, channel=3, data=[30, 127]),
   midi.NoteOnEvent(tick=60, channel=3, data=[30, 0]),
   midi.NoteOnEvent(tick=0, channel=3, data=[30, 127]),
   midi.NoteOnEvent(tick=60, channel=3, data=[30, 0]),
   midi.NoteOnEvent(tick=0, channel=3, data=[33, 127]),
   midi.NoteOnEvent(tick=60, channel=3, data=[33, 0]),
   midi.NoteOnEvent(tick=0, channel=3, data=[33, 127]),
   midi.NoteOnEvent(tick=60, channel=3, data=[33, 0]),
   midi.NoteOnEvent(tick=0, channel=3, data=[35, 127]),
   midi.NoteOnEvent(tick=60, channel=3, data=[35, 0]),
   midi.NoteOnEvent(tick=0, channel=3, data=[35, 127]),
   midi.NoteOnEvent(tick=60, channel=3, data=[35, 0]),
   midi.NoteOnEvent(tick=0, channel=3, data=[35, 127]),
   midi.NoteOnEvent(tick=60, channel=3, data=[35, 0]),
   midi.NoteOnEvent(tick=0, channel=3, data=[35, 127]),
   midi.NoteOnEvent(tick=60, channel=3, data=[35, 0]),
   midi.NoteOnEvent(tick=0, channel=3, data=[35, 127]),
   midi.NoteOnEvent(tick=60, channel=3, data=[35, 0]),
   midi.NoteOnEvent(tick=0, channel=3, data=[35, 127]),
   midi.NoteOnEvent(tick=60, channel=3, data=[35, 0]),
   midi.NoteOnEvent(tick=0, channel=3, data=[35, 127]),
   midi.NoteOnEvent(tick=60, channel=3, data=[35, 0]),
   midi.NoteOnEvent(tick=0, channel=3, data=[33, 127]),
   midi.NoteOnEvent(tick=60, channel=3, data=[33, 0]),
   midi.NoteOnEvent(tick=0, channel=3, data=[33, 127]),
   midi.NoteOnEvent(tick=60, channel=3, data=[33, 0]),
   midi.NoteOnEvent(tick=0, channel=3, data=[33, 127]),
   midi.NoteOnEvent(tick=60, channel=3, data=[33, 0]),
   midi.NoteOnEvent(tick=0, channel=3, data=[33, 127]),
   midi.NoteOnEvent(tick=60, channel=3, data=[33, 0]),
   midi.NoteOnEvent(tick=0, channel=3, data=[33, 127]),
   midi.NoteOnEvent(tick=60, channel=3, data=[33, 0]),
   midi.NoteOnEvent(tick=0, channel=3, data=[33, 127]),
   midi.NoteOnEvent(tick=60, channel=3, data=[33, 0]),
   midi.NoteOnEvent(tick=0, channel=3, data=[33, 127]),
   midi.NoteOnEvent(tick=60, channel=3, data=[33, 0]),
   midi.NoteOnEvent(tick=0, channel=3, data=[33, 127]),
   midi.NoteOnEvent(tick=60, channel=3, data=[33, 0]),
   midi.NoteOnEvent(tick=0, channel=3, data=[28, 127]),
   midi.NoteOnEvent(tick=60, channel=3, data=[28, 0]),
   midi.NoteOnEvent(tick=0, channel=3, data=[30, 127]),
   midi.NoteOnEvent(tick=60, channel=3, data=[30, 0]),
   midi.NoteOnEvent(tick=0, channel=3, data=[30, 127]),
   midi.NoteOnEvent(tick=60, channel=3, data=[30, 0]),
   midi.NoteOnEvent(tick=0, channel=3, data=[30, 127]),
   midi.NoteOnEvent(tick=60, channel=3, data=[30, 0]),
   midi.NoteOnEvent(tick=0, channel=3, data=[30, 127]),
   midi.NoteOnEvent(tick=60, channel=3, data=[30, 0]),
   midi.NoteOnEvent(tick=0, channel=3, data=[30, 127]),
   midi.NoteOnEvent(tick=60, channel=3, data=[30, 0]),
   midi.NoteOnEvent(tick=0, channel=3, data=[30, 127]),
   midi.NoteOnEvent(tick=60, channel=3, data=[30, 0]),
   midi.NoteOnEvent(tick=0, channel=3, data=[28, 127]),
   midi.NoteOnEvent(tick=60, channel=3, data=[28, 0]),
   midi.NoteOnEvent(tick=0, channel=3, data=[28, 127]),
   midi.NoteOnEvent(tick=60, channel=3, data=[28, 0]),
   midi.NoteOnEvent(tick=0, channel=3, data=[28, 127]),
   midi.NoteOnEvent(tick=180, channel=3, data=[28, 0]),
   midi.NoteOnEvent(tick=0, channel=3, data=[28, 127]),
   midi.NoteOnEvent(tick=60, channel=3, data=[28, 0]),
   midi.NoteOnEvent(tick=0, channel=3, data=[28, 127]),
   midi.NoteOnEvent(tick=60, channel=3, data=[28, 0]),
   midi.NoteOnEvent(tick=0, channel=3, data=[28, 127]),
   midi.NoteOnEvent(tick=60, channel=3, data=[28, 0]),
   midi.NoteOnEvent(tick=0, channel=3, data=[28, 127]),
   midi.NoteOnEvent(tick=600, channel=3, data=[28, 0]),
   midi.NoteOnEvent(tick=0, channel=3, data=[35, 127]),
   midi.NoteOnEvent(tick=180, channel=3, data=[35, 0]),
   midi.NoteOnEvent(tick=0, channel=3, data=[35, 127]),
   midi.NoteOnEvent(tick=60, channel=3, data=[35, 0]),
   midi.NoteOnEvent(tick=0, channel=3, data=[35, 127]),
   midi.NoteOnEvent(tick=60, channel=3, data=[35, 0]),
   midi.NoteOnEvent(tick=0, channel=3, data=[35, 127]),
   midi.NoteOnEvent(tick=60, channel=3, data=[35, 0]),
   midi.NoteOnEvent(tick=0, channel=3, data=[35, 127]),
   midi.NoteOnEvent(tick=60, channel=3, data=[35, 0]),
   midi.NoteOnEvent(tick=60, channel=3, data=[33, 127]),
   midi.NoteOnEvent(tick=180, channel=3, data=[33, 0]),
   midi.NoteOnEvent(tick=0, channel=3, data=[33, 127]),
   midi.NoteOnEvent(tick=60, channel=3, data=[33, 0]),
   midi.NoteOnEvent(tick=0, channel=3, data=[33, 127]),
   midi.NoteOnEvent(tick=80, channel=3, data=[33, 0]),
   midi.NoteOnEvent(tick=0, channel=3, data=[33, 127]),
   midi.NoteOnEvent(tick=80, channel=3, data=[33, 0]),
   midi.NoteOnEvent(tick=0, channel=3, data=[33, 127]),
   midi.NoteOnEvent(tick=80, channel=3, data=[33, 0]),
   midi.NoteOnEvent(tick=0, channel=3, data=[30, 127]),
   midi.NoteOnEvent(tick=180, channel=3, data=[30, 0]),
   midi.NoteOnEvent(tick=0, channel=3, data=[30, 127]),
   midi.NoteOnEvent(tick=60, channel=3, data=[30, 0]),
   midi.NoteOnEvent(tick=0, channel=3, data=[30, 127]),
   midi.NoteOnEvent(tick=80, channel=3, data=[30, 0]),
   midi.NoteOnEvent(tick=0, channel=3, data=[30, 127]),
   midi.NoteOnEvent(tick=80, channel=3, data=[30, 0]),
   midi.NoteOnEvent(tick=0, channel=3, data=[30, 127]),
   midi.NoteOnEvent(tick=80, channel=3, data=[30, 0]),
   midi.NoteOnEvent(tick=0, channel=3, data=[28, 127]),
   midi.NoteOnEvent(tick=720, channel=3, data=[28, 0]),
   midi.NoteOnEvent(tick=240, channel=3, data=[42, 127]),
   midi.NoteOnEvent(tick=90, channel=3, data=[42, 0]),
   midi.NoteOnEvent(tick=0, channel=3, data=[49, 127]),
   midi.NoteOnEvent(tick=30, channel=3, data=[49, 0]),
   midi.NoteOnEvent(tick=0, channel=3, data=[54, 127]),
   midi.NoteOnEvent(tick=60, channel=3, data=[54, 0]),
   midi.NoteOnEvent(tick=0, channel=3, data=[45, 127]),
   midi.NoteOnEvent(tick=60, channel=3, data=[45, 0]),
   midi.NoteOnEvent(tick=0, channel=3, data=[52, 127]),
   midi.NoteOnEvent(tick=60, channel=3, data=[52, 0]),
   midi.NoteOnEvent(tick=0, channel=3, data=[45, 127]),
   midi.NoteOnEvent(tick=60, channel=3, data=[45, 0]),
   midi.NoteOnEvent(tick=0, channel=3, data=[47, 127]),
   midi.NoteOnEvent(tick=60, channel=3, data=[47, 0]),
   midi.NoteOnEvent(tick=0, channel=3, data=[52, 127]),
   midi.NoteOnEvent(tick=60, channel=3, data=[52, 0]),
   midi.NoteOnEvent(tick=0, channel=3, data=[47, 127]),
   midi.NoteOnEvent(tick=60, channel=3, data=[47, 0]),
   midi.NoteOnEvent(tick=0, channel=3, data=[40, 127]),
   midi.NoteOnEvent(tick=60, channel=3, data=[40, 0]),
   midi.NoteOnEvent(tick=0, channel=3, data=[49, 127]),
   midi.NoteOnEvent(tick=60, channel=3, data=[49, 0]),
   midi.NoteOnEvent(tick=0, channel=3, data=[40, 127]),
   midi.NoteOnEvent(tick=60, channel=3, data=[40, 0]),
   midi.NoteOnEvent(tick=0, channel=3, data=[42, 127]),
   midi.NoteOnEvent(tick=90, channel=3, data=[42, 0]),
   midi.NoteOnEvent(tick=0, channel=3, data=[49, 127]),
   midi.NoteOnEvent(tick=30, channel=3, data=[49, 0]),
   midi.NoteOnEvent(tick=0, channel=3, data=[54, 127]),
   midi.NoteOnEvent(tick=60, channel=3, data=[54, 0]),
   midi.NoteOnEvent(tick=0, channel=3, data=[45, 127]),
   midi.NoteOnEvent(tick=60, channel=3, data=[45, 0]),
   midi.NoteOnEvent(tick=0, channel=3, data=[52, 127]),
   midi.NoteOnEvent(tick=60, channel=3, data=[52, 0]),
   midi.NoteOnEvent(tick=0, channel=3, data=[45, 127]),
   midi.NoteOnEvent(tick=60, channel=3, data=[45, 0]),
   midi.NoteOnEvent(tick=0, channel=3, data=[47, 127]),
   midi.NoteOnEvent(tick=60, channel=3, data=[47, 0]),
   midi.NoteOnEvent(tick=0, channel=3, data=[52, 127]),
   midi.NoteOnEvent(tick=60, channel=3, data=[52, 0]),
   midi.NoteOnEvent(tick=0, channel=3, data=[47, 127]),
   midi.NoteOnEvent(tick=60, channel=3, data=[47, 0]),
   midi.NoteOnEvent(tick=0, channel=3, data=[40, 127]),
   midi.NoteOnEvent(tick=180, channel=3, data=[40, 0]),
   midi.NoteOnEvent(tick=0, channel=3, data=[42, 127]),
   midi.NoteOnEvent(tick=90, channel=3, data=[42, 0]),
   midi.NoteOnEvent(tick=0, channel=3, data=[49, 127]),
   midi.NoteOnEvent(tick=30, channel=3, data=[49, 0]),
   midi.NoteOnEvent(tick=0, channel=3, data=[54, 127]),
   midi.NoteOnEvent(tick=60, channel=3, data=[54, 0]),
   midi.NoteOnEvent(tick=0, channel=3, data=[45, 127]),
   midi.NoteOnEvent(tick=60, channel=3, data=[45, 0]),
   midi.NoteOnEvent(tick=0, channel=3, data=[52, 127]),
   midi.NoteOnEvent(tick=60, channel=3, data=[52, 0]),
   midi.NoteOnEvent(tick=0, channel=3, data=[45, 127]),
   midi.NoteOnEvent(tick=60, channel=3, data=[45, 0]),
   midi.NoteOnEvent(tick=0, channel=3, data=[47, 127]),
   midi.NoteOnEvent(tick=60, channel=3, data=[47, 0]),
   midi.NoteOnEvent(tick=0, channel=3, data=[52, 127]),
   midi.NoteOnEvent(tick=60, channel=3, data=[52, 0]),
   midi.NoteOnEvent(tick=0, channel=3, data=[47, 127]),
   midi.NoteOnEvent(tick=60, channel=3, data=[47, 0]),
   midi.NoteOnEvent(tick=0, channel=3, data=[40, 127]),
   midi.NoteOnEvent(tick=60, channel=3, data=[40, 0]),
   midi.NoteOnEvent(tick=0, channel=3, data=[52, 127]),
   midi.NoteOnEvent(tick=60, channel=3, data=[52, 0]),
   midi.NoteOnEvent(tick=0, channel=3, data=[40, 127]),
   midi.NoteOnEvent(tick=60, channel=3, data=[40, 0]),
   midi.NoteOnEvent(tick=0, channel=3, data=[42, 127]),
   midi.NoteOnEvent(tick=90, channel=3, data=[42, 0]),
   midi.NoteOnEvent(tick=0, channel=3, data=[49, 127]),
   midi.NoteOnEvent(tick=30, channel=3, data=[49, 0]),
   midi.NoteOnEvent(tick=0, channel=3, data=[54, 127]),
   midi.NoteOnEvent(tick=60, channel=3, data=[54, 0]),
   midi.NoteOnEvent(tick=0, channel=3, data=[45, 127]),
   midi.NoteOnEvent(tick=60, channel=3, data=[45, 0]),
   midi.NoteOnEvent(tick=0, channel=3, data=[52, 127]),
   midi.NoteOnEvent(tick=60, channel=3, data=[52, 0]),
   midi.NoteOnEvent(tick=0, channel=3, data=[45, 127]),
   midi.NoteOnEvent(tick=60, channel=3, data=[45, 0]),
   midi.NoteOnEvent(tick=0, channel=3, data=[47, 127]),
   midi.NoteOnEvent(tick=60, channel=3, data=[47, 0]),
   midi.NoteOnEvent(tick=0, channel=3, data=[52, 127]),
   midi.NoteOnEvent(tick=60, channel=3, data=[52, 0]),
   midi.NoteOnEvent(tick=0, channel=3, data=[47, 127]),
   midi.NoteOnEvent(tick=60, channel=3, data=[47, 0]),
   midi.NoteOnEvent(tick=0, channel=3, data=[52, 127]),
   midi.NoteOnEvent(tick=30, channel=3, data=[52, 0]),
   midi.NoteOnEvent(tick=0, channel=3, data=[52, 127]),
   midi.NoteOnEvent(tick=25, channel=3, data=[50, 75]),
   midi.NoteOnEvent(tick=5, channel=3, data=[52, 0]),
   midi.NoteOnEvent(tick=0, channel=3, data=[50, 0]),
   midi.NoteOnEvent(tick=0, channel=3, data=[52, 127]),
   midi.NoteOnEvent(tick=30, channel=3, data=[52, 0]),
   midi.NoteOnEvent(tick=0, channel=3, data=[52, 127]),
   midi.NoteOnEvent(tick=30, channel=3, data=[52, 0]),
   midi.NoteOnEvent(tick=0, channel=3, data=[49, 127]),
   midi.NoteOnEvent(tick=30, channel=3, data=[49, 0]),
   midi.NoteOnEvent(tick=0, channel=3, data=[47, 127]),
   midi.NoteOnEvent(tick=30, channel=3, data=[47, 0]),
   midi.NoteOnEvent(tick=0, channel=3, data=[42, 127]),
   midi.NoteOnEvent(tick=90, channel=3, data=[42, 0]),
   midi.NoteOnEvent(tick=0, channel=3, data=[49, 127]),
   midi.NoteOnEvent(tick=30, channel=3, data=[49, 0]),
   midi.NoteOnEvent(tick=0, channel=3, data=[50, 127]),
   midi.NoteOnEvent(tick=60, channel=3, data=[50, 0]),
   midi.NoteOnEvent(tick=0, channel=3, data=[45, 127]),
   midi.NoteOnEvent(tick=60, channel=3, data=[45, 0]),
   midi.NoteOnEvent(tick=0, channel=3, data=[52, 127]),
   midi.NoteOnEvent(tick=60, channel=3, data=[52, 0]),
   midi.NoteOnEvent(tick=0, channel=3, data=[45, 127]),
   midi.NoteOnEvent(tick=60, channel=3, data=[45, 0]),
   midi.NoteOnEvent(tick=0, channel=3, data=[47, 127]),
   midi.NoteOnEvent(tick=60, channel=3, data=[47, 0]),
   midi.NoteOnEvent(tick=0, channel=3, data=[52, 127]),
   midi.NoteOnEvent(tick=60, channel=3, data=[52, 0]),
   midi.NoteOnEvent(tick=0, channel=3, data=[47, 127]),
   midi.NoteOnEvent(tick=60, channel=3, data=[47, 0]),
   midi.NoteOnEvent(tick=0, channel=3, data=[40, 127]),
   midi.NoteOnEvent(tick=60, channel=3, data=[40, 0]),
   midi.NoteOnEvent(tick=0, channel=3, data=[52, 127]),
   midi.NoteOnEvent(tick=60, channel=3, data=[52, 0]),
   midi.NoteOnEvent(tick=0, channel=3, data=[40, 127]),
   midi.NoteOnEvent(tick=60, channel=3, data=[40, 0]),
   midi.NoteOnEvent(tick=0, channel=3, data=[42, 127]),
   midi.NoteOnEvent(tick=90, channel=3, data=[42, 0]),
   midi.NoteOnEvent(tick=0, channel=3, data=[49, 127]),
   midi.NoteOnEvent(tick=30, channel=3, data=[49, 0]),
   midi.NoteOnEvent(tick=0, channel=3, data=[54, 127]),
   midi.NoteOnEvent(tick=60, channel=3, data=[54, 0]),
   midi.NoteOnEvent(tick=0, channel=3, data=[45, 127]),
   midi.NoteOnEvent(tick=60, channel=3, data=[45, 0]),
   midi.NoteOnEvent(tick=0, channel=3, data=[52, 127]),
   midi.NoteOnEvent(tick=60, channel=3, data=[52, 0]),
   midi.NoteOnEvent(tick=0, channel=3, data=[45, 127]),
   midi.NoteOnEvent(tick=60, channel=3, data=[45, 0]),
   midi.NoteOnEvent(tick=0, channel=3, data=[47, 127]),
   midi.NoteOnEvent(tick=60, channel=3, data=[47, 0]),
   midi.NoteOnEvent(tick=0, channel=3, data=[52, 127]),
   midi.NoteOnEvent(tick=60, channel=3, data=[52, 0]),
   midi.NoteOnEvent(tick=0, channel=3, data=[47, 127]),
   midi.NoteOnEvent(tick=60, channel=3, data=[47, 0]),
   midi.NoteOnEvent(tick=0, channel=3, data=[40, 127]),
   midi.NoteOnEvent(tick=180, channel=3, data=[40, 0]),
   midi.NoteOnEvent(tick=0, channel=3, data=[42, 127]),
   midi.NoteOnEvent(tick=90, channel=3, data=[42, 0]),
   midi.NoteOnEvent(tick=0, channel=3, data=[49, 127]),
   midi.NoteOnEvent(tick=30, channel=3, data=[49, 0]),
   midi.NoteOnEvent(tick=0, channel=3, data=[54, 127]),
   midi.NoteOnEvent(tick=60, channel=3, data=[54, 0]),
   midi.NoteOnEvent(tick=0, channel=3, data=[45, 127]),
   midi.NoteOnEvent(tick=60, channel=3, data=[45, 0]),
   midi.NoteOnEvent(tick=0, channel=3, data=[52, 127]),
   midi.NoteOnEvent(tick=60, channel=3, data=[52, 0]),
   midi.NoteOnEvent(tick=0, channel=3, data=[45, 127]),
   midi.NoteOnEvent(tick=60, channel=3, data=[45, 0]),
   midi.NoteOnEvent(tick=0, channel=3, data=[47, 127]),
   midi.NoteOnEvent(tick=60, channel=3, data=[47, 0]),
   midi.NoteOnEvent(tick=0, channel=3, data=[52, 127]),
   midi.NoteOnEvent(tick=60, channel=3, data=[52, 0]),
   midi.NoteOnEvent(tick=0, channel=3, data=[47, 127]),
   midi.NoteOnEvent(tick=60, channel=3, data=[47, 0]),
   midi.NoteOnEvent(tick=0, channel=3, data=[40, 127]),
   midi.NoteOnEvent(tick=60, channel=3, data=[40, 0]),
   midi.NoteOnEvent(tick=0, channel=3, data=[52, 127]),
   midi.NoteOnEvent(tick=60, channel=3, data=[52, 0]),
   midi.NoteOnEvent(tick=0, channel=3, data=[40, 127]),
   midi.NoteOnEvent(tick=60, channel=3, data=[40, 0]),
   midi.NoteOnEvent(tick=0, channel=3, data=[42, 127]),
   midi.NoteOnEvent(tick=90, channel=3, data=[42, 0]),
   midi.NoteOnEvent(tick=0, channel=3, data=[49, 127]),
   midi.NoteOnEvent(tick=30, channel=3, data=[49, 0]),
   midi.NoteOnEvent(tick=0, channel=3, data=[54, 127]),
   midi.NoteOnEvent(tick=60, channel=3, data=[54, 0]),
   midi.NoteOnEvent(tick=0, channel=3, data=[45, 127]),
   midi.NoteOnEvent(tick=60, channel=3, data=[45, 0]),
   midi.NoteOnEvent(tick=0, channel=3, data=[52, 127]),
   midi.NoteOnEvent(tick=60, channel=3, data=[52, 0]),
   midi.NoteOnEvent(tick=0, channel=3, data=[45, 127]),
   midi.NoteOnEvent(tick=55, channel=3, data=[50, 75]),
   midi.NoteOnEvent(tick=5, channel=3, data=[45, 0]),
   midi.NoteOnEvent(tick=0, channel=3, data=[50, 0]),
   midi.NoteOnEvent(tick=0, channel=3, data=[52, 127]),
   midi.NoteOnEvent(tick=30, channel=3, data=[52, 0]),
   midi.NoteOnEvent(tick=0, channel=3, data=[52, 127]),
   midi.NoteOnEvent(tick=30, channel=3, data=[52, 0]),
   midi.NoteOnEvent(tick=0, channel=3, data=[52, 127]),
   midi.NoteOnEvent(tick=30, channel=3, data=[52, 0]),
   midi.NoteOnEvent(tick=0, channel=3, data=[52, 127]),
   midi.NoteOnEvent(tick=30, channel=3, data=[52, 0]),
   midi.NoteOnEvent(tick=0, channel=3, data=[52, 127]),
   midi.NoteOnEvent(tick=30, channel=3, data=[52, 0]),
   midi.NoteOnEvent(tick=0, channel=3, data=[52, 127]),
   midi.NoteOnEvent(tick=30, channel=3, data=[52, 0]),
   midi.NoteOnEvent(tick=0, channel=3, data=[52, 127]),
   midi.NoteOnEvent(tick=30, channel=3, data=[52, 0]),
   midi.NoteOnEvent(tick=0, channel=3, data=[49, 127]),
   midi.NoteOnEvent(tick=30, channel=3, data=[49, 0]),
   midi.NoteOnEvent(tick=0, channel=3, data=[47, 127]),
   midi.NoteOnEvent(tick=30, channel=3, data=[47, 0]),
   midi.NoteOnEvent(tick=0, channel=3, data=[45, 127]),
   midi.NoteOnEvent(tick=30, channel=3, data=[45, 0]),
   midi.NoteOnEvent(tick=0, channel=3, data=[42, 127]),
   midi.NoteOnEvent(tick=30, channel=3, data=[42, 0]),
   midi.NoteOnEvent(tick=0, channel=3, data=[40, 127]),
   midi.NoteOnEvent(tick=30, channel=3, data=[40, 0]),
   midi.NoteOnEvent(tick=0, channel=3, data=[42, 127]),
   midi.NoteOnEvent(tick=90, channel=3, data=[42, 0]),
   midi.NoteOnEvent(tick=0, channel=3, data=[49, 127]),
   midi.NoteOnEvent(tick=30, channel=3, data=[49, 0]),
   midi.NoteOnEvent(tick=0, channel=3, data=[54, 127]),
   midi.NoteOnEvent(tick=60, channel=3, data=[54, 0]),
   midi.NoteOnEvent(tick=0, channel=3, data=[45, 127]),
   midi.NoteOnEvent(tick=60, channel=3, data=[45, 0]),
   midi.NoteOnEvent(tick=0, channel=3, data=[52, 127]),
   midi.NoteOnEvent(tick=60, channel=3, data=[52, 0]),
   midi.NoteOnEvent(tick=0, channel=3, data=[45, 127]),
   midi.NoteOnEvent(tick=60, channel=3, data=[45, 0]),
   midi.NoteOnEvent(tick=0, channel=3, data=[47, 127]),
   midi.NoteOnEvent(tick=60, channel=3, data=[47, 0]),
   midi.NoteOnEvent(tick=0, channel=3, data=[52, 127]),
   midi.NoteOnEvent(tick=60, channel=3, data=[52, 0]),
   midi.NoteOnEvent(tick=0, channel=3, data=[47, 127]),
   midi.NoteOnEvent(tick=60, channel=3, data=[47, 0]),
   midi.NoteOnEvent(tick=0, channel=3, data=[40, 127]),
   midi.NoteOnEvent(tick=60, channel=3, data=[40, 0]),
   midi.NoteOnEvent(tick=0, channel=3, data=[52, 127]),
   midi.NoteOnEvent(tick=60, channel=3, data=[52, 0]),
   midi.NoteOnEvent(tick=0, channel=3, data=[40, 127]),
   midi.NoteOnEvent(tick=60, channel=3, data=[40, 0]),
   midi.NoteOnEvent(tick=0, channel=3, data=[38, 127]),
   midi.NoteOnEvent(tick=90, channel=3, data=[38, 0]),
   midi.NoteOnEvent(tick=0, channel=3, data=[49, 127]),
   midi.NoteOnEvent(tick=30, channel=3, data=[49, 0]),
   midi.NoteOnEvent(tick=0, channel=3, data=[54, 127]),
   midi.NoteOnEvent(tick=60, channel=3, data=[54, 0]),
   midi.NoteOnEvent(tick=0, channel=3, data=[45, 127]),
   midi.NoteOnEvent(tick=60, channel=3, data=[45, 0]),
   midi.NoteOnEvent(tick=0, channel=3, data=[52, 127]),
   midi.NoteOnEvent(tick=60, channel=3, data=[52, 0]),
   midi.NoteOnEvent(tick=0, channel=3, data=[45, 127]),
   midi.NoteOnEvent(tick=60, channel=3, data=[45, 0]),
   midi.NoteOnEvent(tick=0, channel=3, data=[47, 127]),
   midi.NoteOnEvent(tick=60, channel=3, data=[47, 0]),
   midi.NoteOnEvent(tick=0, channel=3, data=[52, 127]),
   midi.NoteOnEvent(tick=60, channel=3, data=[52, 0]),
   midi.NoteOnEvent(tick=0, channel=3, data=[47, 127]),
   midi.NoteOnEvent(tick=60, channel=3, data=[47, 0]),
   midi.NoteOnEvent(tick=0, channel=3, data=[49, 127]),
   midi.NoteOnEvent(tick=30, channel=3, data=[49, 0]),
   midi.NoteOnEvent(tick=0, channel=3, data=[52, 127]),
   midi.NoteOnEvent(tick=30, channel=3, data=[52, 0]),
   midi.NoteOnEvent(tick=0, channel=3, data=[49, 127]),
   midi.NoteOnEvent(tick=30, channel=3, data=[49, 0]),
   midi.NoteOnEvent(tick=0, channel=3, data=[47, 127]),
   midi.NoteOnEvent(tick=30, channel=3, data=[47, 0]),
   midi.NoteOnEvent(tick=0, channel=3, data=[45, 127]),
   midi.NoteOnEvent(tick=30, channel=3, data=[45, 0]),
   midi.NoteOnEvent(tick=0, channel=3, data=[44, 127]),
   midi.NoteOnEvent(tick=30, channel=3, data=[44, 0]),
   midi.NoteOnEvent(tick=0, channel=3, data=[42, 127]),
   midi.NoteOnEvent(tick=90, channel=3, data=[42, 0]),
   midi.NoteOnEvent(tick=0, channel=3, data=[49, 127]),
   midi.NoteOnEvent(tick=30, channel=3, data=[49, 0]),
   midi.NoteOnEvent(tick=0, channel=3, data=[54, 127]),
   midi.NoteOnEvent(tick=60, channel=3, data=[54, 0]),
   midi.NoteOnEvent(tick=0, channel=3, data=[45, 127]),
   midi.NoteOnEvent(tick=60, channel=3, data=[45, 0]),
   midi.NoteOnEvent(tick=0, channel=3, data=[52, 127]),
   midi.NoteOnEvent(tick=60, channel=3, data=[52, 0]),
   midi.NoteOnEvent(tick=0, channel=3, data=[45, 127]),
   midi.NoteOnEvent(tick=60, channel=3, data=[45, 0]),
   midi.NoteOnEvent(tick=0, channel=3, data=[47, 127]),
   midi.NoteOnEvent(tick=60, channel=3, data=[47, 0]),
   midi.NoteOnEvent(tick=0, channel=3, data=[52, 127]),
   midi.NoteOnEvent(tick=60, channel=3, data=[52, 0]),
   midi.NoteOnEvent(tick=0, channel=3, data=[47, 127]),
   midi.NoteOnEvent(tick=60, channel=3, data=[47, 0]),
   midi.NoteOnEvent(tick=0, channel=3, data=[40, 127]),
   midi.NoteOnEvent(tick=90, channel=3, data=[40, 0]),
   midi.NoteOnEvent(tick=0, channel=3, data=[47, 127]),
   midi.NoteOnEvent(tick=30, channel=3, data=[47, 0]),
   midi.NoteOnEvent(tick=0, channel=3, data=[40, 127]),
   midi.NoteOnEvent(tick=30, channel=3, data=[40, 0]),
   midi.NoteOnEvent(tick=0, channel=3, data=[45, 127]),
   midi.NoteOnEvent(tick=30, channel=3, data=[45, 0]),
   midi.NoteOnEvent(tick=0, channel=3, data=[42, 127]),
   midi.NoteOnEvent(tick=90, channel=3, data=[42, 0]),
   midi.NoteOnEvent(tick=0, channel=3, data=[49, 127]),
   midi.NoteOnEvent(tick=30, channel=3, data=[49, 0]),
   midi.NoteOnEvent(tick=0, channel=3, data=[54, 127]),
   midi.NoteOnEvent(tick=60, channel=3, data=[54, 0]),
   midi.NoteOnEvent(tick=0, channel=3, data=[45, 127]),
   midi.NoteOnEvent(tick=60, channel=3, data=[45, 0]),
   midi.NoteOnEvent(tick=0, channel=3, data=[52, 127]),
   midi.NoteOnEvent(tick=60, channel=3, data=[52, 0]),
   midi.NoteOnEvent(tick=0, channel=3, data=[52, 127]),
   midi.NoteOnEvent(tick=60, channel=3, data=[52, 0]),
   midi.NoteOnEvent(tick=0, channel=3, data=[47, 127]),
   midi.NoteOnEvent(tick=60, channel=3, data=[47, 0]),
   midi.NoteOnEvent(tick=0, channel=3, data=[52, 127]),
   midi.NoteOnEvent(tick=60, channel=3, data=[52, 0]),
   midi.NoteOnEvent(tick=0, channel=3, data=[52, 127]),
   midi.NoteOnEvent(tick=60, channel=3, data=[52, 0]),
   midi.NoteOnEvent(tick=0, channel=3, data=[52, 127]),
   midi.NoteOnEvent(tick=30, channel=3, data=[52, 0]),
   midi.NoteOnEvent(tick=0, channel=3, data=[50, 127]),
   midi.NoteOnEvent(tick=30, channel=3, data=[50, 0]),
   midi.NoteOnEvent(tick=0, channel=3, data=[49, 127]),
   midi.NoteOnEvent(tick=30, channel=3, data=[49, 0]),
   midi.NoteOnEvent(tick=0, channel=3, data=[47, 127]),
   midi.NoteOnEvent(tick=30, channel=3, data=[47, 0]),
   midi.NoteOnEvent(tick=0, channel=3, data=[45, 127]),
   midi.NoteOnEvent(tick=30, channel=3, data=[45, 0]),
   midi.NoteOnEvent(tick=0, channel=3, data=[44, 127]),
   midi.NoteOnEvent(tick=30, channel=3, data=[44, 0]),
   midi.NoteOnEvent(tick=0, channel=3, data=[42, 127]),
   midi.NoteOnEvent(tick=90, channel=3, data=[42, 0]),
   midi.NoteOnEvent(tick=0, channel=3, data=[49, 127]),
   midi.NoteOnEvent(tick=30, channel=3, data=[49, 0]),
   midi.NoteOnEvent(tick=0, channel=3, data=[54, 127]),
   midi.NoteOnEvent(tick=60, channel=3, data=[54, 0]),
   midi.NoteOnEvent(tick=0, channel=3, data=[45, 127]),
   midi.NoteOnEvent(tick=60, channel=3, data=[45, 0]),
   midi.NoteOnEvent(tick=0, channel=3, data=[52, 127]),
   midi.NoteOnEvent(tick=60, channel=3, data=[52, 0]),
   midi.NoteOnEvent(tick=0, channel=3, data=[45, 127]),
   midi.NoteOnEvent(tick=60, channel=3, data=[45, 0]),
   midi.NoteOnEvent(tick=0, channel=3, data=[47, 127]),
   midi.NoteOnEvent(tick=60, channel=3, data=[47, 0]),
   midi.NoteOnEvent(tick=0, channel=3, data=[52, 127]),
   midi.NoteOnEvent(tick=60, channel=3, data=[52, 0]),
   midi.NoteOnEvent(tick=0, channel=3, data=[47, 127]),
   midi.NoteOnEvent(tick=60, channel=3, data=[47, 0]),
   midi.NoteOnEvent(tick=0, channel=3, data=[40, 127]),
   midi.NoteOnEvent(tick=60, channel=3, data=[40, 0]),
   midi.NoteOnEvent(tick=0, channel=3, data=[52, 127]),
   midi.NoteOnEvent(tick=60, channel=3, data=[52, 0]),
   midi.NoteOnEvent(tick=0, channel=3, data=[40, 127]),
   midi.NoteOnEvent(tick=60, channel=3, data=[40, 0]),
   midi.NoteOnEvent(tick=0, channel=3, data=[38, 127]),
   midi.NoteOnEvent(tick=90, channel=3, data=[38, 0]),
   midi.NoteOnEvent(tick=0, channel=3, data=[49, 127]),
   midi.NoteOnEvent(tick=30, channel=3, data=[49, 0]),
   midi.NoteOnEvent(tick=0, channel=3, data=[54, 127]),
   midi.NoteOnEvent(tick=60, channel=3, data=[54, 0]),
   midi.NoteOnEvent(tick=0, channel=3, data=[45, 127]),
   midi.NoteOnEvent(tick=60, channel=3, data=[45, 0]),
   midi.NoteOnEvent(tick=0, channel=3, data=[52, 127]),
   midi.NoteOnEvent(tick=60, channel=3, data=[52, 0]),
   midi.NoteOnEvent(tick=0, channel=3, data=[45, 127]),
   midi.NoteOnEvent(tick=60, channel=3, data=[45, 0]),
   midi.NoteOnEvent(tick=0, channel=3, data=[47, 127]),
   midi.NoteOnEvent(tick=60, channel=3, data=[47, 0]),
   midi.NoteOnEvent(tick=0, channel=3, data=[52, 127]),
   midi.NoteOnEvent(tick=60, channel=3, data=[52, 0]),
   midi.NoteOnEvent(tick=0, channel=3, data=[47, 127]),
   midi.NoteOnEvent(tick=60, channel=3, data=[47, 0]),
   midi.NoteOnEvent(tick=0, channel=3, data=[47, 127]),
   midi.NoteOnEvent(tick=30, channel=3, data=[47, 0]),
   midi.NoteOnEvent(tick=0, channel=3, data=[45, 127]),
   midi.NoteOnEvent(tick=30, channel=3, data=[45, 0]),
   midi.NoteOnEvent(tick=0, channel=3, data=[42, 127]),
   midi.NoteOnEvent(tick=30, channel=3, data=[42, 0]),
   midi.NoteOnEvent(tick=0, channel=3, data=[40, 127]),
   midi.NoteOnEvent(tick=30, channel=3, data=[40, 0]),
   midi.NoteOnEvent(tick=0, channel=3, data=[37, 127]),
   midi.NoteOnEvent(tick=30, channel=3, data=[37, 0]),
   midi.NoteOnEvent(tick=0, channel=3, data=[40, 127]),
   midi.NoteOnEvent(tick=30, channel=3, data=[40, 0]),
   midi.NoteOnEvent(tick=0, channel=3, data=[42, 127]),
   midi.NoteOnEvent(tick=90, channel=3, data=[42, 0]),
   midi.NoteOnEvent(tick=0, channel=3, data=[49, 127]),
   midi.NoteOnEvent(tick=30, channel=3, data=[49, 0]),
   midi.NoteOnEvent(tick=0, channel=3, data=[54, 127]),
   midi.NoteOnEvent(tick=60, channel=3, data=[54, 0]),
   midi.NoteOnEvent(tick=0, channel=3, data=[45, 127]),
   midi.NoteOnEvent(tick=60, channel=3, data=[45, 0]),
   midi.NoteOnEvent(tick=0, channel=3, data=[52, 127]),
   midi.NoteOnEvent(tick=60, channel=3, data=[52, 0]),
   midi.NoteOnEvent(tick=0, channel=3, data=[45, 127]),
   midi.NoteOnEvent(tick=60, channel=3, data=[45, 0]),
   midi.NoteOnEvent(tick=0, channel=3, data=[47, 127]),
   midi.NoteOnEvent(tick=60, channel=3, data=[47, 0]),
   midi.NoteOnEvent(tick=0, channel=3, data=[52, 127]),
   midi.NoteOnEvent(tick=60, channel=3, data=[52, 0]),
   midi.NoteOnEvent(tick=0, channel=3, data=[47, 127]),
   midi.NoteOnEvent(tick=60, channel=3, data=[47, 0]),
   midi.NoteOnEvent(tick=0, channel=3, data=[40, 127]),
   midi.NoteOnEvent(tick=90, channel=3, data=[40, 0]),
   midi.NoteOnEvent(tick=0, channel=3, data=[47, 127]),
   midi.NoteOnEvent(tick=30, channel=3, data=[47, 0]),
   midi.NoteOnEvent(tick=0, channel=3, data=[45, 127]),
   midi.NoteOnEvent(tick=30, channel=3, data=[45, 0]),
   midi.NoteOnEvent(tick=0, channel=3, data=[44, 127]),
   midi.NoteOnEvent(tick=30, channel=3, data=[44, 0]),
   midi.NoteOnEvent(tick=0, channel=3, data=[42, 127]),
   midi.NoteOnEvent(tick=90, channel=3, data=[42, 0]),
   midi.NoteOnEvent(tick=0, channel=3, data=[49, 127]),
   midi.NoteOnEvent(tick=30, channel=3, data=[49, 0]),
   midi.NoteOnEvent(tick=0, channel=3, data=[54, 127]),
   midi.NoteOnEvent(tick=60, channel=3, data=[54, 0]),
   midi.NoteOnEvent(tick=0, channel=3, data=[45, 127]),
   midi.NoteOnEvent(tick=60, channel=3, data=[45, 0]),
   midi.NoteOnEvent(tick=0, channel=3, data=[52, 127]),
   midi.NoteOnEvent(tick=60, channel=3, data=[52, 0]),
   midi.NoteOnEvent(tick=0, channel=3, data=[45, 127]),
   midi.NoteOnEvent(tick=60, channel=3, data=[45, 0]),
   midi.NoteOnEvent(tick=0, channel=3, data=[47, 127]),
   midi.NoteOnEvent(tick=60, channel=3, data=[47, 0]),
   midi.NoteOnEvent(tick=0, channel=3, data=[47, 127]),
   midi.NoteOnEvent(tick=60, channel=3, data=[47, 0]),
   midi.NoteOnEvent(tick=0, channel=3, data=[47, 127]),
   midi.NoteOnEvent(tick=60, channel=3, data=[47, 0]),
   midi.NoteOnEvent(tick=0, channel=3, data=[40, 127]),
   midi.NoteOnEvent(tick=30, channel=3, data=[40, 0]),
   midi.NoteOnEvent(tick=0, channel=3, data=[40, 127]),
   midi.NoteOnEvent(tick=30, channel=3, data=[40, 0]),
   midi.NoteOnEvent(tick=0, channel=3, data=[40, 127]),
   midi.NoteOnEvent(tick=30, channel=3, data=[40, 0]),
   midi.NoteOnEvent(tick=0, channel=3, data=[40, 127]),
   midi.NoteOnEvent(tick=30, channel=3, data=[40, 0]),
   midi.NoteOnEvent(tick=0, channel=3, data=[40, 127]),
   midi.NoteOnEvent(tick=30, channel=3, data=[40, 0]),
   midi.NoteOnEvent(tick=0, channel=3, data=[40, 127]),
   midi.NoteOnEvent(tick=30, channel=3, data=[40, 0]),
   midi.NoteOnEvent(tick=0, channel=3, data=[42, 127]),
   midi.NoteOnEvent(tick=90, channel=3, data=[42, 0]),
   midi.NoteOnEvent(tick=0, channel=3, data=[49, 127]),
   midi.NoteOnEvent(tick=30, channel=3, data=[49, 0]),
   midi.NoteOnEvent(tick=0, channel=3, data=[54, 127]),
   midi.NoteOnEvent(tick=60, channel=3, data=[54, 0]),
   midi.NoteOnEvent(tick=0, channel=3, data=[45, 127]),
   midi.NoteOnEvent(tick=60, channel=3, data=[45, 0]),
   midi.NoteOnEvent(tick=0, channel=3, data=[52, 127]),
   midi.NoteOnEvent(tick=60, channel=3, data=[52, 0]),
   midi.NoteOnEvent(tick=0, channel=3, data=[45, 127]),
   midi.NoteOnEvent(tick=60, channel=3, data=[45, 0]),
   midi.NoteOnEvent(tick=0, channel=3, data=[47, 127]),
   midi.NoteOnEvent(tick=60, channel=3, data=[47, 0]),
   midi.NoteOnEvent(tick=0, channel=3, data=[52, 127]),
   midi.NoteOnEvent(tick=60, channel=3, data=[52, 0]),
   midi.NoteOnEvent(tick=0, channel=3, data=[47, 127]),
   midi.NoteOnEvent(tick=60, channel=3, data=[47, 0]),
   midi.NoteOnEvent(tick=0, channel=3, data=[40, 127]),
   midi.NoteOnEvent(tick=60, channel=3, data=[40, 0]),
   midi.NoteOnEvent(tick=0, channel=3, data=[52, 127]),
   midi.NoteOnEvent(tick=60, channel=3, data=[52, 0]),
   midi.NoteOnEvent(tick=0, channel=3, data=[40, 127]),
   midi.NoteOnEvent(tick=60, channel=3, data=[40, 0]),
   midi.NoteOnEvent(tick=0, channel=3, data=[38, 127]),
   midi.NoteOnEvent(tick=90, channel=3, data=[38, 0]),
   midi.NoteOnEvent(tick=0, channel=3, data=[49, 127]),
   midi.NoteOnEvent(tick=30, channel=3, data=[49, 0]),
   midi.NoteOnEvent(tick=0, channel=3, data=[54, 127]),
   midi.NoteOnEvent(tick=60, channel=3, data=[54, 0]),
   midi.NoteOnEvent(tick=0, channel=3, data=[45, 127]),
   midi.NoteOnEvent(tick=60, channel=3, data=[45, 0]),
   midi.NoteOnEvent(tick=0, channel=3, data=[52, 127]),
   midi.NoteOnEvent(tick=60, channel=3, data=[52, 0]),
   midi.NoteOnEvent(tick=0, channel=3, data=[45, 127]),
   midi.NoteOnEvent(tick=60, channel=3, data=[45, 0]),
   midi.NoteOnEvent(tick=0, channel=3, data=[47, 127]),
   midi.NoteOnEvent(tick=60, channel=3, data=[47, 0]),
   midi.NoteOnEvent(tick=0, channel=3, data=[52, 127]),
   midi.NoteOnEvent(tick=60, channel=3, data=[52, 0]),
   midi.NoteOnEvent(tick=0, channel=3, data=[47, 127]),
   midi.NoteOnEvent(tick=60, channel=3, data=[47, 0]),
   midi.NoteOnEvent(tick=0, channel=3, data=[52, 127]),
   midi.NoteOnEvent(tick=30, channel=3, data=[52, 0]),
   midi.NoteOnEvent(tick=0, channel=3, data=[52, 127]),
   midi.NoteOnEvent(tick=30, channel=3, data=[52, 0]),
   midi.NoteOnEvent(tick=0, channel=3, data=[52, 127]),
   midi.NoteOnEvent(tick=30, channel=3, data=[52, 0]),
   midi.NoteOnEvent(tick=0, channel=3, data=[52, 127]),
   midi.NoteOnEvent(tick=30, channel=3, data=[52, 0]),
   midi.NoteOnEvent(tick=0, channel=3, data=[49, 127]),
   midi.NoteOnEvent(tick=30, channel=3, data=[49, 0]),
   midi.NoteOnEvent(tick=0, channel=3, data=[47, 127]),
   midi.NoteOnEvent(tick=30, channel=3, data=[47, 0]),
   midi.NoteOnEvent(tick=0, channel=3, data=[42, 127]),
   midi.NoteOnEvent(tick=90, channel=3, data=[42, 0]),
   midi.NoteOnEvent(tick=0, channel=3, data=[49, 127]),
   midi.NoteOnEvent(tick=30, channel=3, data=[49, 0]),
   midi.NoteOnEvent(tick=0, channel=3, data=[54, 127]),
   midi.NoteOnEvent(tick=60, channel=3, data=[54, 0]),
   midi.NoteOnEvent(tick=0, channel=3, data=[45, 127]),
   midi.NoteOnEvent(tick=60, channel=3, data=[45, 0]),
   midi.NoteOnEvent(tick=0, channel=3, data=[52, 127]),
   midi.NoteOnEvent(tick=60, channel=3, data=[52, 0]),
   midi.NoteOnEvent(tick=0, channel=3, data=[45, 127]),
   midi.NoteOnEvent(tick=60, channel=3, data=[45, 0]),
   midi.NoteOnEvent(tick=0, channel=3, data=[47, 127]),
   midi.NoteOnEvent(tick=60, channel=3, data=[47, 0]),
   midi.NoteOnEvent(tick=0, channel=3, data=[52, 127]),
   midi.NoteOnEvent(tick=60, channel=3, data=[52, 0]),
   midi.NoteOnEvent(tick=0, channel=3, data=[47, 127]),
   midi.NoteOnEvent(tick=60, channel=3, data=[47, 0]),
   midi.NoteOnEvent(tick=0, channel=3, data=[40, 127]),
   midi.NoteOnEvent(tick=90, channel=3, data=[40, 0]),
   midi.NoteOnEvent(tick=0, channel=3, data=[47, 127]),
   midi.NoteOnEvent(tick=30, channel=3, data=[47, 0]),
   midi.NoteOnEvent(tick=0, channel=3, data=[45, 127]),
   midi.NoteOnEvent(tick=30, channel=3, data=[45, 0]),
   midi.NoteOnEvent(tick=0, channel=3, data=[44, 127]),
   midi.NoteOnEvent(tick=30, channel=3, data=[44, 0]),
   midi.NoteOnEvent(tick=0, channel=3, data=[42, 127]),
   midi.NoteOnEvent(tick=90, channel=3, data=[42, 0]),
   midi.NoteOnEvent(tick=0, channel=3, data=[49, 127]),
   midi.NoteOnEvent(tick=30, channel=3, data=[49, 0]),
   midi.NoteOnEvent(tick=0, channel=3, data=[54, 127]),
   midi.NoteOnEvent(tick=60, channel=3, data=[54, 0]),
   midi.NoteOnEvent(tick=0, channel=3, data=[45, 127]),
   midi.NoteOnEvent(tick=60, channel=3, data=[45, 0]),
   midi.NoteOnEvent(tick=0, channel=3, data=[52, 127]),
   midi.NoteOnEvent(tick=60, channel=3, data=[52, 0]),
   midi.NoteOnEvent(tick=0, channel=3, data=[45, 127]),
   midi.NoteOnEvent(tick=55, channel=3, data=[50, 75]),
   midi.NoteOnEvent(tick=5, channel=3, data=[45, 0]),
   midi.NoteOnEvent(tick=0, channel=3, data=[50, 0]),
   midi.NoteOnEvent(tick=0, channel=3, data=[52, 127]),
   midi.NoteOnEvent(tick=30, channel=3, data=[52, 0]),
   midi.NoteOnEvent(tick=0, channel=3, data=[52, 127]),
   midi.NoteOnEvent(tick=30, channel=3, data=[52, 0]),
   midi.NoteOnEvent(tick=0, channel=3, data=[52, 127]),
   midi.NoteOnEvent(tick=25, channel=3, data=[50, 75]),
   midi.NoteOnEvent(tick=5, channel=3, data=[52, 0]),
   midi.NoteOnEvent(tick=0, channel=3, data=[50, 0]),
   midi.NoteOnEvent(tick=0, channel=3, data=[52, 127]),
   midi.NoteOnEvent(tick=30, channel=3, data=[52, 0]),
   midi.NoteOnEvent(tick=0, channel=3, data=[52, 127]),
   midi.NoteOnEvent(tick=30, channel=3, data=[52, 0]),
   midi.NoteOnEvent(tick=0, channel=3, data=[52, 127]),
   midi.NoteOnEvent(tick=30, channel=3, data=[52, 0]),
   midi.NoteOnEvent(tick=0, channel=3, data=[52, 127]),
   midi.NoteOnEvent(tick=30, channel=3, data=[52, 0]),
   midi.NoteOnEvent(tick=0, channel=3, data=[49, 127]),
   midi.NoteOnEvent(tick=30, channel=3, data=[49, 0]),
   midi.NoteOnEvent(tick=0, channel=3, data=[47, 127]),
   midi.NoteOnEvent(tick=30, channel=3, data=[47, 0]),
   midi.NoteOnEvent(tick=0, channel=3, data=[45, 127]),
   midi.NoteOnEvent(tick=30, channel=3, data=[45, 0]),
   midi.NoteOnEvent(tick=0, channel=3, data=[42, 127]),
   midi.NoteOnEvent(tick=30, channel=3, data=[42, 0]),
   midi.NoteOnEvent(tick=0, channel=3, data=[40, 127]),
   midi.NoteOnEvent(tick=30, channel=3, data=[40, 0]),
   midi.NoteOnEvent(tick=0, channel=3, data=[42, 127]),
   midi.NoteOnEvent(tick=90, channel=3, data=[42, 0]),
   midi.NoteOnEvent(tick=0, channel=3, data=[49, 127]),
   midi.NoteOnEvent(tick=30, channel=3, data=[49, 0]),
   midi.NoteOnEvent(tick=0, channel=3, data=[54, 127]),
   midi.NoteOnEvent(tick=60, channel=3, data=[54, 0]),
   midi.NoteOnEvent(tick=0, channel=3, data=[45, 127]),
   midi.NoteOnEvent(tick=60, channel=3, data=[45, 0]),
   midi.NoteOnEvent(tick=0, channel=3, data=[52, 127]),
   midi.NoteOnEvent(tick=60, channel=3, data=[52, 0]),
   midi.NoteOnEvent(tick=0, channel=3, data=[45, 127]),
   midi.NoteOnEvent(tick=60, channel=3, data=[45, 0]),
   midi.NoteOnEvent(tick=0, channel=3, data=[47, 127]),
   midi.NoteOnEvent(tick=60, channel=3, data=[47, 0]),
   midi.NoteOnEvent(tick=0, channel=3, data=[52, 127]),
   midi.NoteOnEvent(tick=60, channel=3, data=[52, 0]),
   midi.NoteOnEvent(tick=0, channel=3, data=[47, 127]),
   midi.NoteOnEvent(tick=60, channel=3, data=[47, 0]),
   midi.NoteOnEvent(tick=0, channel=3, data=[40, 127]),
   midi.NoteOnEvent(tick=90, channel=3, data=[40, 0]),
   midi.NoteOnEvent(tick=0, channel=3, data=[42, 127]),
   midi.NoteOnEvent(tick=30, channel=3, data=[42, 0]),
   midi.NoteOnEvent(tick=0, channel=3, data=[44, 127]),
   midi.NoteOnEvent(tick=30, channel=3, data=[44, 0]),
   midi.NoteOnEvent(tick=0, channel=3, data=[45, 127]),
   midi.NoteOnEvent(tick=30, channel=3, data=[45, 0]),
   midi.NoteOnEvent(tick=0, channel=3, data=[42, 127]),
   midi.NoteOnEvent(tick=90, channel=3, data=[42, 0]),
   midi.NoteOnEvent(tick=0, channel=3, data=[49, 127]),
   midi.NoteOnEvent(tick=30, channel=3, data=[49, 0]),
   midi.NoteOnEvent(tick=0, channel=3, data=[54, 127]),
   midi.NoteOnEvent(tick=60, channel=3, data=[54, 0]),
   midi.NoteOnEvent(tick=0, channel=3, data=[45, 127]),
   midi.NoteOnEvent(tick=60, channel=3, data=[45, 0]),
   midi.NoteOnEvent(tick=0, channel=3, data=[52, 127]),
   midi.NoteOnEvent(tick=60, channel=3, data=[52, 0]),
   midi.NoteOnEvent(tick=0, channel=3, data=[45, 127]),
   midi.NoteOnEvent(tick=60, channel=3, data=[45, 0]),
   midi.NoteOnEvent(tick=0, channel=3, data=[54, 127]),
   midi.NoteOnEvent(tick=30, channel=3, data=[54, 0]),
   midi.NoteOnEvent(tick=0, channel=3, data=[54, 127]),
   midi.NoteOnEvent(tick=30, channel=3, data=[54, 0]),
   midi.NoteOnEvent(tick=0, channel=3, data=[54, 127]),
   midi.NoteOnEvent(tick=30, channel=3, data=[54, 0]),
   midi.NoteOnEvent(tick=0, channel=3, data=[54, 127]),
   midi.NoteOnEvent(tick=30, channel=3, data=[54, 0]),
   midi.NoteOnEvent(tick=0, channel=3, data=[54, 127]),
   midi.NoteOnEvent(tick=30, channel=3, data=[54, 0]),
   midi.NoteOnEvent(tick=0, channel=3, data=[54, 127]),
   midi.NoteOnEvent(tick=30, channel=3, data=[54, 0]),
   midi.NoteOnEvent(tick=0, channel=3, data=[54, 127]),
   midi.NoteOnEvent(tick=30, channel=3, data=[54, 0]),
   midi.NoteOnEvent(tick=0, channel=3, data=[52, 127]),
   midi.NoteOnEvent(tick=30, channel=3, data=[52, 0]),
   midi.NoteOnEvent(tick=0, channel=3, data=[49, 127]),
   midi.NoteOnEvent(tick=30, channel=3, data=[49, 0]),
   midi.NoteOnEvent(tick=0, channel=3, data=[47, 127]),
   midi.NoteOnEvent(tick=30, channel=3, data=[47, 0]),
   midi.NoteOnEvent(tick=0, channel=3, data=[45, 127]),
   midi.NoteOnEvent(tick=30, channel=3, data=[45, 0]),
   midi.NoteOnEvent(tick=0, channel=3, data=[40, 127]),
   midi.NoteOnEvent(tick=30, channel=3, data=[40, 0]),
   midi.NoteOnEvent(tick=0, channel=3, data=[42, 127]),
   midi.NoteOnEvent(tick=60, channel=3, data=[42, 0]),
   midi.NoteOnEvent(tick=0, channel=3, data=[42, 127]),
   midi.NoteOnEvent(tick=30, channel=3, data=[42, 0]),
   midi.NoteOnEvent(tick=0, channel=3, data=[49, 127]),
   midi.NoteOnEvent(tick=30, channel=3, data=[49, 0]),
   midi.NoteOnEvent(tick=0, channel=3, data=[54, 127]),
   midi.NoteOnEvent(tick=60, channel=3, data=[54, 0]),
   midi.NoteOnEvent(tick=0, channel=3, data=[45, 127]),
   midi.NoteOnEvent(tick=60, channel=3, data=[45, 0]),
   midi.NoteOnEvent(tick=0, channel=3, data=[52, 127]),
   midi.NoteOnEvent(tick=30, channel=3, data=[52, 0]),
   midi.NoteOnEvent(tick=0, channel=3, data=[45, 127]),
   midi.NoteOnEvent(tick=30, channel=3, data=[45, 0]),
   midi.NoteOnEvent(tick=0, channel=3, data=[44, 127]),
   midi.NoteOnEvent(tick=30, channel=3, data=[44, 0]),
   midi.NoteOnEvent(tick=0, channel=3, data=[45, 127]),
   midi.NoteOnEvent(tick=30, channel=3, data=[45, 0]),
   midi.NoteOnEvent(tick=0, channel=3, data=[47, 127]),
   midi.NoteOnEvent(tick=60, channel=3, data=[47, 0]),
   midi.NoteOnEvent(tick=0, channel=3, data=[52, 127]),
   midi.NoteOnEvent(tick=30, channel=3, data=[52, 0]),
   midi.NoteOnEvent(tick=0, channel=3, data=[47, 127]),
   midi.NoteOnEvent(tick=30, channel=3, data=[47, 0]),
   midi.NoteOnEvent(tick=0, channel=3, data=[44, 127]),
   midi.NoteOnEvent(tick=30, channel=3, data=[44, 0]),
   midi.NoteOnEvent(tick=0, channel=3, data=[42, 127]),
   midi.NoteOnEvent(tick=30, channel=3, data=[42, 0]),
   midi.NoteOnEvent(tick=0, channel=3, data=[40, 127]),
   midi.NoteOnEvent(tick=60, channel=3, data=[40, 0]),
   midi.NoteOnEvent(tick=0, channel=3, data=[45, 127]),
   midi.NoteOnEvent(tick=30, channel=3, data=[45, 0]),
   midi.NoteOnEvent(tick=0, channel=3, data=[44, 127]),
   midi.NoteOnEvent(tick=30, channel=3, data=[44, 0]),
   midi.NoteOnEvent(tick=0, channel=3, data=[40, 127]),
   midi.NoteOnEvent(tick=60, channel=3, data=[40, 0]),
   midi.NoteOnEvent(tick=0, channel=3, data=[42, 127]),
   midi.NoteOnEvent(tick=60, channel=3, data=[42, 0]),
   midi.NoteOnEvent(tick=0, channel=3, data=[42, 127]),
   midi.NoteOnEvent(tick=30, channel=3, data=[42, 0]),
   midi.NoteOnEvent(tick=0, channel=3, data=[49, 127]),
   midi.NoteOnEvent(tick=30, channel=3, data=[49, 0]),
   midi.NoteOnEvent(tick=0, channel=3, data=[54, 127]),
   midi.NoteOnEvent(tick=60, channel=3, data=[54, 0]),
   midi.NoteOnEvent(tick=0, channel=3, data=[45, 127]),
   midi.NoteOnEvent(tick=60, channel=3, data=[45, 0]),
   midi.NoteOnEvent(tick=0, channel=3, data=[52, 127]),
   midi.NoteOnEvent(tick=30, channel=3, data=[52, 0]),
   midi.NoteOnEvent(tick=0, channel=3, data=[45, 127]),
   midi.NoteOnEvent(tick=30, channel=3, data=[45, 0]),
   midi.NoteOnEvent(tick=0, channel=3, data=[44, 127]),
   midi.NoteOnEvent(tick=30, channel=3, data=[44, 0]),
   midi.NoteOnEvent(tick=0, channel=3, data=[45, 127]),
   midi.NoteOnEvent(tick=30, channel=3, data=[45, 0]),
   midi.NoteOnEvent(tick=0, channel=3, data=[47, 127]),
   midi.NoteOnEvent(tick=60, channel=3, data=[47, 0]),
   midi.NoteOnEvent(tick=0, channel=3, data=[52, 127]),
   midi.NoteOnEvent(tick=30, channel=3, data=[52, 0]),
   midi.NoteOnEvent(tick=0, channel=3, data=[47, 127]),
   midi.NoteOnEvent(tick=30, channel=3, data=[47, 0]),
   midi.NoteOnEvent(tick=0, channel=3, data=[44, 127]),
   midi.NoteOnEvent(tick=30, channel=3, data=[44, 0]),
   midi.NoteOnEvent(tick=0, channel=3, data=[42, 127]),
   midi.NoteOnEvent(tick=30, channel=3, data=[42, 0]),
   midi.NoteOnEvent(tick=0, channel=3, data=[40, 127]),
   midi.NoteOnEvent(tick=60, channel=3, data=[40, 0]),
   midi.NoteOnEvent(tick=0, channel=3, data=[45, 127]),
   midi.NoteOnEvent(tick=30, channel=3, data=[45, 0]),
   midi.NoteOnEvent(tick=0, channel=3, data=[44, 127]),
   midi.NoteOnEvent(tick=30, channel=3, data=[44, 0]),
   midi.NoteOnEvent(tick=0, channel=3, data=[40, 127]),
   midi.NoteOnEvent(tick=60, channel=3, data=[40, 0]),
   midi.NoteOnEvent(tick=0, channel=3, data=[42, 127]),
   midi.NoteOnEvent(tick=60, channel=3, data=[42, 0]),
   midi.NoteOnEvent(tick=0, channel=3, data=[42, 127]),
   midi.NoteOnEvent(tick=30, channel=3, data=[42, 0]),
   midi.NoteOnEvent(tick=0, channel=3, data=[49, 127]),
   midi.NoteOnEvent(tick=30, channel=3, data=[49, 0]),
   midi.NoteOnEvent(tick=0, channel=3, data=[54, 127]),
   midi.NoteOnEvent(tick=60, channel=3, data=[54, 0]),
   midi.NoteOnEvent(tick=0, channel=3, data=[45, 127]),
   midi.NoteOnEvent(tick=60, channel=3, data=[45, 0]),
   midi.NoteOnEvent(tick=0, channel=3, data=[52, 127]),
   midi.NoteOnEvent(tick=30, channel=3, data=[52, 0]),
   midi.NoteOnEvent(tick=0, channel=3, data=[45, 127]),
   midi.NoteOnEvent(tick=30, channel=3, data=[45, 0]),
   midi.NoteOnEvent(tick=0, channel=3, data=[44, 127]),
   midi.NoteOnEvent(tick=30, channel=3, data=[44, 0]),
   midi.NoteOnEvent(tick=0, channel=3, data=[45, 127]),
   midi.NoteOnEvent(tick=30, channel=3, data=[45, 0]),
   midi.NoteOnEvent(tick=0, channel=3, data=[47, 127]),
   midi.NoteOnEvent(tick=60, channel=3, data=[47, 0]),
   midi.NoteOnEvent(tick=0, channel=3, data=[52, 127]),
   midi.NoteOnEvent(tick=30, channel=3, data=[52, 0]),
   midi.NoteOnEvent(tick=0, channel=3, data=[47, 127]),
   midi.NoteOnEvent(tick=30, channel=3, data=[47, 0]),
   midi.NoteOnEvent(tick=0, channel=3, data=[44, 127]),
   midi.NoteOnEvent(tick=30, channel=3, data=[44, 0]),
   midi.NoteOnEvent(tick=0, channel=3, data=[42, 127]),
   midi.NoteOnEvent(tick=30, channel=3, data=[42, 0]),
   midi.NoteOnEvent(tick=0, channel=3, data=[40, 127]),
   midi.NoteOnEvent(tick=60, channel=3, data=[40, 0]),
   midi.NoteOnEvent(tick=0, channel=3, data=[45, 127]),
   midi.NoteOnEvent(tick=30, channel=3, data=[45, 0]),
   midi.NoteOnEvent(tick=0, channel=3, data=[44, 127]),
   midi.NoteOnEvent(tick=30, channel=3, data=[44, 0]),
   midi.NoteOnEvent(tick=0, channel=3, data=[40, 127]),
   midi.NoteOnEvent(tick=60, channel=3, data=[40, 0]),
   midi.NoteOnEvent(tick=0, channel=3, data=[42, 127]),
   midi.NoteOnEvent(tick=60, channel=3, data=[42, 0]),
   midi.NoteOnEvent(tick=0, channel=3, data=[42, 127]),
   midi.NoteOnEvent(tick=30, channel=3, data=[42, 0]),
   midi.NoteOnEvent(tick=0, channel=3, data=[49, 127]),
   midi.NoteOnEvent(tick=30, channel=3, data=[49, 0]),
   midi.NoteOnEvent(tick=0, channel=3, data=[54, 127]),
   midi.NoteOnEvent(tick=60, channel=3, data=[54, 0]),
   midi.NoteOnEvent(tick=0, channel=3, data=[45, 127]),
   midi.NoteOnEvent(tick=60, channel=3, data=[45, 0]),
   midi.NoteOnEvent(tick=0, channel=3, data=[52, 127]),
   midi.NoteOnEvent(tick=30, channel=3, data=[52, 0]),
   midi.NoteOnEvent(tick=0, channel=3, data=[45, 127]),
   midi.NoteOnEvent(tick=30, channel=3, data=[45, 0]),
   midi.NoteOnEvent(tick=0, channel=3, data=[44, 127]),
   midi.NoteOnEvent(tick=30, channel=3, data=[44, 0]),
   midi.NoteOnEvent(tick=0, channel=3, data=[45, 127]),
   midi.NoteOnEvent(tick=30, channel=3, data=[45, 0]),
   midi.NoteOnEvent(tick=0, channel=3, data=[47, 127]),
   midi.NoteOnEvent(tick=60, channel=3, data=[47, 0]),
   midi.NoteOnEvent(tick=0, channel=3, data=[52, 127]),
   midi.NoteOnEvent(tick=30, channel=3, data=[52, 0]),
   midi.NoteOnEvent(tick=0, channel=3, data=[47, 127]),
   midi.NoteOnEvent(tick=30, channel=3, data=[47, 0]),
   midi.NoteOnEvent(tick=0, channel=3, data=[44, 127]),
   midi.NoteOnEvent(tick=30, channel=3, data=[44, 0]),
   midi.NoteOnEvent(tick=0, channel=3, data=[42, 127]),
   midi.NoteOnEvent(tick=30, channel=3, data=[42, 0]),
   midi.NoteOnEvent(tick=0, channel=3, data=[40, 127]),
   midi.NoteOnEvent(tick=60, channel=3, data=[40, 0]),
   midi.NoteOnEvent(tick=0, channel=3, data=[45, 127]),
   midi.NoteOnEvent(tick=30, channel=3, data=[45, 0]),
   midi.NoteOnEvent(tick=0, channel=3, data=[44, 127]),
   midi.NoteOnEvent(tick=30, channel=3, data=[44, 0]),
   midi.NoteOnEvent(tick=0, channel=3, data=[40, 127]),
   midi.NoteOnEvent(tick=60, channel=3, data=[40, 0]),
   midi.NoteOnEvent(tick=0, channel=3, data=[42, 127]),
   midi.NoteOnEvent(tick=60, channel=3, data=[42, 0]),
   midi.NoteOnEvent(tick=0, channel=3, data=[42, 127]),
   midi.NoteOnEvent(tick=30, channel=3, data=[42, 0]),
   midi.NoteOnEvent(tick=0, channel=3, data=[45, 127]),
   midi.NoteOnEvent(tick=30, channel=3, data=[45, 0]),
   midi.NoteOnEvent(tick=0, channel=3, data=[49, 127]),
   midi.NoteOnEvent(tick=30, channel=3, data=[49, 0]),
   midi.NoteOnEvent(tick=0, channel=3, data=[45, 127]),
   midi.NoteOnEvent(tick=30, channel=3, data=[45, 0]),
   midi.NoteOnEvent(tick=0, channel=3, data=[49, 127]),
   midi.NoteOnEvent(tick=60, channel=3, data=[49, 0]),
   midi.NoteOnEvent(tick=0, channel=3, data=[45, 127]),
   midi.NoteOnEvent(tick=30, channel=3, data=[45, 0]),
   midi.NoteOnEvent(tick=0, channel=3, data=[49, 127]),
   midi.NoteOnEvent(tick=30, channel=3, data=[49, 0]),
   midi.NoteOnEvent(tick=0, channel=3, data=[52, 127]),
   midi.NoteOnEvent(tick=30, channel=3, data=[52, 0]),
   midi.NoteOnEvent(tick=0, channel=3, data=[49, 127]),
   midi.NoteOnEvent(tick=30, channel=3, data=[49, 0]),
   midi.NoteOnEvent(tick=0, channel=3, data=[50, 127]),
   midi.NoteOnEvent(tick=60, channel=3, data=[50, 0]),
   midi.NoteOnEvent(tick=0, channel=3, data=[50, 127]),
   midi.NoteOnEvent(tick=30, channel=3, data=[50, 0]),
   midi.NoteOnEvent(tick=0, channel=3, data=[47, 127]),
   midi.NoteOnEvent(tick=30, channel=3, data=[47, 0]),
   midi.NoteOnEvent(tick=0, channel=3, data=[44, 127]),
   midi.NoteOnEvent(tick=60, channel=3, data=[44, 0]),
   midi.NoteOnEvent(tick=0, channel=3, data=[40, 127]),
   midi.NoteOnEvent(tick=60, channel=3, data=[40, 0]),
   midi.NoteOnEvent(tick=0, channel=3, data=[40, 127]),
   midi.NoteOnEvent(tick=30, channel=3, data=[40, 0]),
   midi.NoteOnEvent(tick=0, channel=3, data=[44, 127]),
   midi.NoteOnEvent(tick=30, channel=3, data=[44, 0]),
   midi.NoteOnEvent(tick=0, channel=3, data=[47, 127]),
   midi.NoteOnEvent(tick=30, channel=3, data=[47, 0]),
   midi.NoteOnEvent(tick=0, channel=3, data=[44, 127]),
   midi.NoteOnEvent(tick=30, channel=3, data=[44, 0]),
   midi.NoteOnEvent(tick=0, channel=3, data=[45, 127]),
   midi.NoteOnEvent(tick=60, channel=3, data=[45, 0]),
   midi.NoteOnEvent(tick=0, channel=3, data=[42, 127]),
   midi.NoteOnEvent(tick=30, channel=3, data=[42, 0]),
   midi.NoteOnEvent(tick=0, channel=3, data=[45, 127]),
   midi.NoteOnEvent(tick=30, channel=3, data=[45, 0]),
   midi.NoteOnEvent(tick=0, channel=3, data=[49, 127]),
   midi.NoteOnEvent(tick=30, channel=3, data=[49, 0]),
   midi.NoteOnEvent(tick=0, channel=3, data=[45, 127]),
   midi.NoteOnEvent(tick=30, channel=3, data=[45, 0]),
   midi.NoteOnEvent(tick=0, channel=3, data=[49, 127]),
   midi.NoteOnEvent(tick=60, channel=3, data=[49, 0]),
   midi.NoteOnEvent(tick=0, channel=3, data=[45, 127]),
   midi.NoteOnEvent(tick=30, channel=3, data=[45, 0]),
   midi.NoteOnEvent(tick=0, channel=3, data=[49, 127]),
   midi.NoteOnEvent(tick=30, channel=3, data=[49, 0]),
   midi.NoteOnEvent(tick=0, channel=3, data=[52, 127]),
   midi.NoteOnEvent(tick=30, channel=3, data=[52, 0]),
   midi.NoteOnEvent(tick=0, channel=3, data=[49, 127]),
   midi.NoteOnEvent(tick=30, channel=3, data=[49, 0]),
   midi.NoteOnEvent(tick=0, channel=3, data=[50, 127]),
   midi.NoteOnEvent(tick=60, channel=3, data=[50, 0]),
   midi.NoteOnEvent(tick=0, channel=3, data=[50, 127]),
   midi.NoteOnEvent(tick=30, channel=3, data=[50, 0]),
   midi.NoteOnEvent(tick=0, channel=3, data=[47, 127]),
   midi.NoteOnEvent(tick=30, channel=3, data=[47, 0]),
   midi.NoteOnEvent(tick=0, channel=3, data=[44, 127]),
   midi.NoteOnEvent(tick=60, channel=3, data=[44, 0]),
   midi.NoteOnEvent(tick=0, channel=3, data=[40, 127]),
   midi.NoteOnEvent(tick=60, channel=3, data=[40, 0]),
   midi.NoteOnEvent(tick=0, channel=3, data=[40, 127]),
   midi.NoteOnEvent(tick=30, channel=3, data=[40, 0]),
   midi.NoteOnEvent(tick=0, channel=3, data=[44, 127]),
   midi.NoteOnEvent(tick=30, channel=3, data=[44, 0]),
   midi.NoteOnEvent(tick=0, channel=3, data=[47, 127]),
   midi.NoteOnEvent(tick=30, channel=3, data=[47, 0]),
   midi.NoteOnEvent(tick=0, channel=3, data=[44, 127]),
   midi.NoteOnEvent(tick=30, channel=3, data=[44, 0]),
   midi.NoteOnEvent(tick=0, channel=3, data=[45, 127]),
   midi.NoteOnEvent(tick=30, channel=3, data=[45, 0]),
   midi.NoteOnEvent(tick=0, channel=3, data=[45, 127]),
   midi.NoteOnEvent(tick=15, channel=3, data=[45, 0]),
   midi.NoteOnEvent(tick=0, channel=3, data=[45, 127]),
   midi.NoteOnEvent(tick=15, channel=3, data=[45, 0]),
   midi.NoteOnEvent(tick=0, channel=3, data=[45, 127]),
   midi.NoteOnEvent(tick=30, channel=3, data=[45, 0]),
   midi.NoteOnEvent(tick=0, channel=3, data=[42, 127]),
   midi.NoteOnEvent(tick=30, channel=3, data=[42, 0]),
   midi.NoteOnEvent(tick=0, channel=3, data=[45, 127]),
   midi.NoteOnEvent(tick=30, channel=3, data=[45, 0]),
   midi.NoteOnEvent(tick=0, channel=3, data=[49, 127]),
   midi.NoteOnEvent(tick=30, channel=3, data=[49, 0]),
   midi.NoteOnEvent(tick=0, channel=3, data=[49, 127]),
   midi.NoteOnEvent(tick=30, channel=3, data=[49, 0]),
   midi.NoteOnEvent(tick=0, channel=3, data=[49, 127]),
   midi.NoteOnEvent(tick=15, channel=3, data=[49, 0]),
   midi.NoteOnEvent(tick=0, channel=3, data=[49, 127]),
   midi.NoteOnEvent(tick=15, channel=3, data=[49, 0]),
   midi.NoteOnEvent(tick=0, channel=3, data=[49, 127]),
   midi.NoteOnEvent(tick=30, channel=3, data=[49, 0]),
   midi.NoteOnEvent(tick=0, channel=3, data=[45, 127]),
   midi.NoteOnEvent(tick=30, channel=3, data=[45, 0]),
   midi.NoteOnEvent(tick=0, channel=3, data=[49, 127]),
   midi.NoteOnEvent(tick=30, channel=3, data=[49, 0]),
   midi.NoteOnEvent(tick=0, channel=3, data=[52, 127]),
   midi.NoteOnEvent(tick=30, channel=3, data=[52, 0]),
   midi.NoteOnEvent(tick=0, channel=3, data=[50, 127]),
   midi.NoteOnEvent(tick=30, channel=3, data=[50, 0]),
   midi.NoteOnEvent(tick=0, channel=3, data=[50, 127]),
   midi.NoteOnEvent(tick=15, channel=3, data=[50, 0]),
   midi.NoteOnEvent(tick=0, channel=3, data=[50, 127]),
   midi.NoteOnEvent(tick=15, channel=3, data=[50, 0]),
   midi.NoteOnEvent(tick=0, channel=3, data=[50, 127]),
   midi.NoteOnEvent(tick=30, channel=3, data=[50, 0]),
   midi.NoteOnEvent(tick=0, channel=3, data=[47, 127]),
   midi.NoteOnEvent(tick=30, channel=3, data=[47, 0]),
   midi.NoteOnEvent(tick=0, channel=3, data=[44, 127]),
   midi.NoteOnEvent(tick=30, channel=3, data=[44, 0]),
   midi.NoteOnEvent(tick=0, channel=3, data=[47, 127]),
   midi.NoteOnEvent(tick=30, channel=3, data=[47, 0]),
   midi.NoteOnEvent(tick=0, channel=3, data=[40, 127]),
   midi.NoteOnEvent(tick=30, channel=3, data=[40, 0]),
   midi.NoteOnEvent(tick=0, channel=3, data=[40, 127]),
   midi.NoteOnEvent(tick=30, channel=3, data=[40, 0]),
   midi.NoteOnEvent(tick=0, channel=3, data=[40, 127]),
   midi.NoteOnEvent(tick=30, channel=3, data=[40, 0]),
   midi.NoteOnEvent(tick=0, channel=3, data=[44, 127]),
   midi.NoteOnEvent(tick=30, channel=3, data=[44, 0]),
   midi.NoteOnEvent(tick=0, channel=3, data=[47, 127]),
   midi.NoteOnEvent(tick=30, channel=3, data=[47, 0]),
   midi.NoteOnEvent(tick=0, channel=3, data=[44, 127]),
   midi.NoteOnEvent(tick=30, channel=3, data=[44, 0]),
   midi.NoteOnEvent(tick=0, channel=3, data=[45, 127]),
   midi.NoteOnEvent(tick=30, channel=3, data=[45, 0]),
   midi.NoteOnEvent(tick=0, channel=3, data=[45, 127]),
   midi.NoteOnEvent(tick=15, channel=3, data=[45, 0]),
   midi.NoteOnEvent(tick=0, channel=3, data=[45, 127]),
   midi.NoteOnEvent(tick=15, channel=3, data=[45, 0]),
   midi.NoteOnEvent(tick=0, channel=3, data=[45, 127]),
   midi.NoteOnEvent(tick=30, channel=3, data=[45, 0]),
   midi.NoteOnEvent(tick=0, channel=3, data=[42, 127]),
   midi.NoteOnEvent(tick=30, channel=3, data=[42, 0]),
   midi.NoteOnEvent(tick=0, channel=3, data=[45, 127]),
   midi.NoteOnEvent(tick=30, channel=3, data=[45, 0]),
   midi.NoteOnEvent(tick=0, channel=3, data=[49, 127]),
   midi.NoteOnEvent(tick=30, channel=3, data=[49, 0]),
   midi.NoteOnEvent(tick=0, channel=3, data=[49, 127]),
   midi.NoteOnEvent(tick=30, channel=3, data=[49, 0]),
   midi.NoteOnEvent(tick=0, channel=3, data=[49, 127]),
   midi.NoteOnEvent(tick=15, channel=3, data=[49, 0]),
   midi.NoteOnEvent(tick=0, channel=3, data=[49, 127]),
   midi.NoteOnEvent(tick=15, channel=3, data=[49, 0]),
   midi.NoteOnEvent(tick=0, channel=3, data=[49, 127]),
   midi.NoteOnEvent(tick=30, channel=3, data=[49, 0]),
   midi.NoteOnEvent(tick=0, channel=3, data=[45, 127]),
   midi.NoteOnEvent(tick=30, channel=3, data=[45, 0]),
   midi.NoteOnEvent(tick=0, channel=3, data=[49, 127]),
   midi.NoteOnEvent(tick=30, channel=3, data=[49, 0]),
   midi.NoteOnEvent(tick=0, channel=3, data=[52, 127]),
   midi.NoteOnEvent(tick=30, channel=3, data=[52, 0]),
   midi.NoteOnEvent(tick=0, channel=3, data=[50, 127]),
   midi.NoteOnEvent(tick=30, channel=3, data=[50, 0]),
   midi.NoteOnEvent(tick=0, channel=3, data=[50, 127]),
   midi.NoteOnEvent(tick=15, channel=3, data=[50, 0]),
   midi.NoteOnEvent(tick=0, channel=3, data=[50, 127]),
   midi.NoteOnEvent(tick=15, channel=3, data=[50, 0]),
   midi.NoteOnEvent(tick=0, channel=3, data=[50, 127]),
   midi.NoteOnEvent(tick=30, channel=3, data=[50, 0]),
   midi.NoteOnEvent(tick=0, channel=3, data=[47, 127]),
   midi.NoteOnEvent(tick=30, channel=3, data=[47, 0]),
   midi.NoteOnEvent(tick=0, channel=3, data=[44, 127]),
   midi.NoteOnEvent(tick=30, channel=3, data=[44, 0]),
   midi.NoteOnEvent(tick=0, channel=3, data=[47, 127]),
   midi.NoteOnEvent(tick=30, channel=3, data=[47, 0]),
   midi.NoteOnEvent(tick=0, channel=3, data=[40, 127]),
   midi.NoteOnEvent(tick=30, channel=3, data=[40, 0]),
   midi.NoteOnEvent(tick=0, channel=3, data=[40, 127]),
   midi.NoteOnEvent(tick=30, channel=3, data=[40, 0]),
   midi.NoteOnEvent(tick=0, channel=3, data=[40, 127]),
   midi.NoteOnEvent(tick=30, channel=3, data=[40, 0]),
   midi.NoteOnEvent(tick=0, channel=3, data=[44, 127]),
   midi.NoteOnEvent(tick=30, channel=3, data=[44, 0]),
   midi.NoteOnEvent(tick=0, channel=3, data=[47, 127]),
   midi.NoteOnEvent(tick=30, channel=3, data=[47, 0]),
   midi.NoteOnEvent(tick=0, channel=3, data=[44, 127]),
   midi.NoteOnEvent(tick=30, channel=3, data=[44, 0]),
   midi.NoteOnEvent(tick=0, channel=3, data=[30, 127]),
   midi.NoteOnEvent(tick=120, channel=3, data=[30, 0]),
   midi.NoteOnEvent(tick=0, channel=3, data=[32, 127]),
   midi.NoteOnEvent(tick=60, channel=3, data=[32, 0]),
   midi.NoteOnEvent(tick=0, channel=3, data=[33, 127]),
   midi.NoteOnEvent(tick=120, channel=3, data=[33, 0]),
   midi.NoteOnEvent(tick=0, channel=3, data=[33, 127]),
   midi.NoteOnEvent(tick=60, channel=3, data=[33, 0]),
   midi.NoteOnEvent(tick=0, channel=3, data=[28, 127]),
   midi.NoteOnEvent(tick=120, channel=3, data=[28, 0]),
   midi.NoteOnEvent(tick=0, channel=3, data=[28, 127]),
   midi.NoteOnEvent(tick=60, channel=3, data=[28, 0]),
   midi.NoteOnEvent(tick=0, channel=3, data=[37, 127]),
   midi.NoteOnEvent(tick=120, channel=3, data=[37, 0]),
   midi.NoteOnEvent(tick=0, channel=3, data=[37, 127]),
   midi.NoteOnEvent(tick=60, channel=3, data=[37, 0]),
   midi.NoteOnEvent(tick=0, channel=3, data=[30, 127]),
   midi.NoteOnEvent(tick=120, channel=3, data=[30, 0]),
   midi.NoteOnEvent(tick=0, channel=3, data=[32, 127]),
   midi.NoteOnEvent(tick=60, channel=3, data=[32, 0]),
   midi.NoteOnEvent(tick=0, channel=3, data=[33, 127]),
   midi.NoteOnEvent(tick=120, channel=3, data=[33, 0]),
   midi.NoteOnEvent(tick=0, channel=3, data=[33, 127]),
   midi.NoteOnEvent(tick=60, channel=3, data=[33, 0]),
   midi.NoteOnEvent(tick=0, channel=3, data=[28, 127]),
   midi.NoteOnEvent(tick=120, channel=3, data=[28, 0]),
   midi.NoteOnEvent(tick=0, channel=3, data=[28, 127]),
   midi.NoteOnEvent(tick=60, channel=3, data=[28, 0]),
   midi.NoteOnEvent(tick=0, channel=3, data=[37, 127]),
   midi.NoteOnEvent(tick=120, channel=3, data=[37, 0]),
   midi.NoteOnEvent(tick=0, channel=3, data=[37, 127]),
   midi.NoteOnEvent(tick=60, channel=3, data=[37, 0]),
   midi.NoteOnEvent(tick=0, channel=3, data=[30, 127]),
   midi.NoteOnEvent(tick=120, channel=3, data=[30, 0]),
   midi.NoteOnEvent(tick=0, channel=3, data=[32, 127]),
   midi.NoteOnEvent(tick=60, channel=3, data=[32, 0]),
   midi.NoteOnEvent(tick=0, channel=3, data=[33, 127]),
   midi.NoteOnEvent(tick=120, channel=3, data=[33, 0]),
   midi.NoteOnEvent(tick=0, channel=3, data=[33, 127]),
   midi.NoteOnEvent(tick=60, channel=3, data=[33, 0]),
   midi.NoteOnEvent(tick=0, channel=3, data=[28, 127]),
   midi.NoteOnEvent(tick=120, channel=3, data=[28, 0]),
   midi.NoteOnEvent(tick=0, channel=3, data=[28, 127]),
   midi.NoteOnEvent(tick=60, channel=3, data=[28, 0]),
   midi.NoteOnEvent(tick=0, channel=3, data=[37, 127]),
   midi.NoteOnEvent(tick=120, channel=3, data=[37, 0]),
   midi.NoteOnEvent(tick=0, channel=3, data=[37, 127]),
   midi.NoteOnEvent(tick=60, channel=3, data=[37, 0]),
   midi.NoteOnEvent(tick=0, channel=3, data=[30, 127]),
   midi.NoteOnEvent(tick=120, channel=3, data=[30, 0]),
   midi.NoteOnEvent(tick=0, channel=3, data=[32, 127]),
   midi.NoteOnEvent(tick=60, channel=3, data=[32, 0]),
   midi.NoteOnEvent(tick=0, channel=3, data=[33, 127]),
   midi.NoteOnEvent(tick=120, channel=3, data=[33, 0]),
   midi.NoteOnEvent(tick=0, channel=3, data=[33, 127]),
   midi.NoteOnEvent(tick=60, channel=3, data=[33, 0]),
   midi.NoteOnEvent(tick=0, channel=3, data=[28, 127]),
   midi.NoteOnEvent(tick=120, channel=3, data=[28, 0]),
   midi.NoteOnEvent(tick=0, channel=3, data=[28, 127]),
   midi.NoteOnEvent(tick=60, channel=3, data=[28, 0]),
   midi.NoteOnEvent(tick=0, channel=3, data=[37, 127]),
   midi.NoteOnEvent(tick=120, channel=3, data=[37, 0]),
   midi.NoteOnEvent(tick=0, channel=3, data=[37, 127]),
   midi.NoteOnEvent(tick=60, channel=3, data=[37, 0]),
   midi.NoteOnEvent(tick=0, channel=3, data=[28, 127]),
   midi.NoteOnEvent(tick=60, channel=3, data=[28, 0]),
   midi.NoteOnEvent(tick=0, channel=3, data=[28, 127]),
   midi.NoteOnEvent(tick=30, channel=3, data=[28, 0]),
   midi.NoteOnEvent(tick=0, channel=3, data=[28, 127]),
   midi.NoteOnEvent(tick=30, channel=3, data=[28, 0]),
   midi.NoteOnEvent(tick=0, channel=3, data=[28, 127]),
   midi.NoteOnEvent(tick=30, channel=3, data=[28, 0]),
   midi.NoteOnEvent(tick=0, channel=3, data=[28, 127]),
   midi.NoteOnEvent(tick=30, channel=3, data=[28, 0]),
   midi.NoteOnEvent(tick=0, channel=3, data=[32, 127]),
   midi.NoteOnEvent(tick=60, channel=3, data=[32, 0]),
   midi.NoteOnEvent(tick=0, channel=3, data=[32, 127]),
   midi.NoteOnEvent(tick=30, channel=3, data=[32, 0]),
   midi.NoteOnEvent(tick=0, channel=3, data=[32, 127]),
   midi.NoteOnEvent(tick=30, channel=3, data=[32, 0]),
   midi.NoteOnEvent(tick=0, channel=3, data=[32, 127]),
   midi.NoteOnEvent(tick=30, channel=3, data=[32, 0]),
   midi.NoteOnEvent(tick=0, channel=3, data=[32, 127]),
   midi.NoteOnEvent(tick=30, channel=3, data=[32, 0]),
   midi.NoteOnEvent(tick=0, channel=3, data=[38, 127]),
   midi.NoteOnEvent(tick=60, channel=3, data=[38, 0]),
   midi.NoteOnEvent(tick=0, channel=3, data=[38, 127]),
   midi.NoteOnEvent(tick=30, channel=3, data=[38, 0]),
   midi.NoteOnEvent(tick=0, channel=3, data=[38, 127]),
   midi.NoteOnEvent(tick=30, channel=3, data=[38, 0]),
   midi.NoteOnEvent(tick=0, channel=3, data=[38, 127]),
   midi.NoteOnEvent(tick=30, channel=3, data=[38, 0]),
   midi.NoteOnEvent(tick=0, channel=3, data=[38, 127]),
   midi.NoteOnEvent(tick=30, channel=3, data=[38, 0]),
   midi.NoteOnEvent(tick=0, channel=3, data=[35, 127]),
   midi.NoteOnEvent(tick=60, channel=3, data=[35, 0]),
   midi.NoteOnEvent(tick=0, channel=3, data=[35, 127]),
   midi.NoteOnEvent(tick=30, channel=3, data=[35, 0]),
   midi.NoteOnEvent(tick=0, channel=3, data=[35, 127]),
   midi.NoteOnEvent(tick=30, channel=3, data=[35, 0]),
   midi.NoteOnEvent(tick=0, channel=3, data=[35, 127]),
   midi.NoteOnEvent(tick=30, channel=3, data=[35, 0]),
   midi.NoteOnEvent(tick=0, channel=3, data=[35, 127]),
   midi.NoteOnEvent(tick=30, channel=3, data=[35, 0]),
   midi.NoteOnEvent(tick=0, channel=3, data=[28, 127]),
   midi.NoteOnEvent(tick=60, channel=3, data=[28, 0]),
   midi.NoteOnEvent(tick=0, channel=3, data=[28, 127]),
   midi.NoteOnEvent(tick=30, channel=3, data=[28, 0]),
   midi.NoteOnEvent(tick=0, channel=3, data=[28, 127]),
   midi.NoteOnEvent(tick=30, channel=3, data=[28, 0]),
   midi.NoteOnEvent(tick=0, channel=3, data=[28, 127]),
   midi.NoteOnEvent(tick=30, channel=3, data=[28, 0]),
   midi.NoteOnEvent(tick=0, channel=3, data=[28, 127]),
   midi.NoteOnEvent(tick=30, channel=3, data=[28, 0]),
   midi.NoteOnEvent(tick=0, channel=3, data=[32, 127]),
   midi.NoteOnEvent(tick=60, channel=3, data=[32, 0]),
   midi.NoteOnEvent(tick=0, channel=3, data=[32, 127]),
   midi.NoteOnEvent(tick=30, channel=3, data=[32, 0]),
   midi.NoteOnEvent(tick=0, channel=3, data=[32, 127]),
   midi.NoteOnEvent(tick=30, channel=3, data=[32, 0]),
   midi.NoteOnEvent(tick=0, channel=3, data=[32, 127]),
   midi.NoteOnEvent(tick=30, channel=3, data=[32, 0]),
   midi.NoteOnEvent(tick=0, channel=3, data=[32, 127]),
   midi.NoteOnEvent(tick=30, channel=3, data=[32, 0]),
   midi.NoteOnEvent(tick=0, channel=3, data=[38, 127]),
   midi.NoteOnEvent(tick=60, channel=3, data=[38, 0]),
   midi.NoteOnEvent(tick=0, channel=3, data=[38, 127]),
   midi.NoteOnEvent(tick=30, channel=3, data=[38, 0]),
   midi.NoteOnEvent(tick=0, channel=3, data=[38, 127]),
   midi.NoteOnEvent(tick=30, channel=3, data=[38, 0]),
   midi.NoteOnEvent(tick=0, channel=3, data=[38, 127]),
   midi.NoteOnEvent(tick=30, channel=3, data=[38, 0]),
   midi.NoteOnEvent(tick=0, channel=3, data=[38, 127]),
   midi.NoteOnEvent(tick=30, channel=3, data=[38, 0]),
   midi.NoteOnEvent(tick=0, channel=3, data=[35, 127]),
   midi.NoteOnEvent(tick=60, channel=3, data=[35, 0]),
   midi.NoteOnEvent(tick=0, channel=3, data=[35, 127]),
   midi.NoteOnEvent(tick=30, channel=3, data=[35, 0]),
   midi.NoteOnEvent(tick=0, channel=3, data=[35, 127]),
   midi.NoteOnEvent(tick=30, channel=3, data=[35, 0]),
   midi.NoteOnEvent(tick=0, channel=3, data=[35, 127]),
   midi.NoteOnEvent(tick=30, channel=3, data=[35, 0]),
   midi.NoteOnEvent(tick=0, channel=3, data=[35, 127]),
   midi.NoteOnEvent(tick=30, channel=3, data=[35, 0]),
   midi.NoteOnEvent(tick=0, channel=3, data=[28, 127]),
   midi.NoteOnEvent(tick=60, channel=3, data=[28, 0]),
   midi.NoteOnEvent(tick=0, channel=3, data=[28, 127]),
   midi.NoteOnEvent(tick=30, channel=3, data=[28, 0]),
   midi.NoteOnEvent(tick=0, channel=3, data=[28, 127]),
   midi.NoteOnEvent(tick=30, channel=3, data=[28, 0]),
   midi.NoteOnEvent(tick=0, channel=3, data=[28, 127]),
   midi.NoteOnEvent(tick=30, channel=3, data=[28, 0]),
   midi.NoteOnEvent(tick=0, channel=3, data=[28, 127]),
   midi.NoteOnEvent(tick=30, channel=3, data=[28, 0]),
   midi.NoteOnEvent(tick=0, channel=3, data=[32, 127]),
   midi.NoteOnEvent(tick=60, channel=3, data=[32, 0]),
   midi.NoteOnEvent(tick=0, channel=3, data=[32, 127]),
   midi.NoteOnEvent(tick=30, channel=3, data=[32, 0]),
   midi.NoteOnEvent(tick=0, channel=3, data=[32, 127]),
   midi.NoteOnEvent(tick=30, channel=3, data=[32, 0]),
   midi.NoteOnEvent(tick=0, channel=3, data=[32, 127]),
   midi.NoteOnEvent(tick=30, channel=3, data=[32, 0]),
   midi.NoteOnEvent(tick=0, channel=3, data=[32, 127]),
   midi.NoteOnEvent(tick=30, channel=3, data=[32, 0]),
   midi.NoteOnEvent(tick=0, channel=3, data=[38, 127]),
   midi.NoteOnEvent(tick=60, channel=3, data=[38, 0]),
   midi.NoteOnEvent(tick=0, channel=3, data=[38, 127]),
   midi.NoteOnEvent(tick=30, channel=3, data=[38, 0]),
   midi.NoteOnEvent(tick=0, channel=3, data=[38, 127]),
   midi.NoteOnEvent(tick=30, channel=3, data=[38, 0]),
   midi.NoteOnEvent(tick=0, channel=3, data=[38, 127]),
   midi.NoteOnEvent(tick=30, channel=3, data=[38, 0]),
   midi.NoteOnEvent(tick=0, channel=3, data=[38, 127]),
   midi.NoteOnEvent(tick=30, channel=3, data=[38, 0]),
   midi.NoteOnEvent(tick=0, channel=3, data=[35, 127]),
   midi.NoteOnEvent(tick=60, channel=3, data=[35, 0]),
   midi.NoteOnEvent(tick=0, channel=3, data=[35, 127]),
   midi.NoteOnEvent(tick=30, channel=3, data=[35, 0]),
   midi.NoteOnEvent(tick=0, channel=3, data=[35, 127]),
   midi.NoteOnEvent(tick=30, channel=3, data=[35, 0]),
   midi.NoteOnEvent(tick=0, channel=3, data=[35, 127]),
   midi.NoteOnEvent(tick=30, channel=3, data=[35, 0]),
   midi.NoteOnEvent(tick=0, channel=3, data=[35, 127]),
   midi.NoteOnEvent(tick=30, channel=3, data=[35, 0]),
   midi.NoteOnEvent(tick=0, channel=3, data=[28, 127]),
   midi.NoteOnEvent(tick=60, channel=3, data=[28, 0]),
   midi.NoteOnEvent(tick=0, channel=3, data=[28, 127]),
   midi.NoteOnEvent(tick=30, channel=3, data=[28, 0]),
   midi.NoteOnEvent(tick=0, channel=3, data=[28, 127]),
   midi.NoteOnEvent(tick=30, channel=3, data=[28, 0]),
   midi.NoteOnEvent(tick=0, channel=3, data=[28, 127]),
   midi.NoteOnEvent(tick=30, channel=3, data=[28, 0]),
   midi.NoteOnEvent(tick=0, channel=3, data=[28, 127]),
   midi.NoteOnEvent(tick=30, channel=3, data=[28, 0]),
   midi.NoteOnEvent(tick=0, channel=3, data=[32, 127]),
   midi.NoteOnEvent(tick=60, channel=3, data=[32, 0]),
   midi.NoteOnEvent(tick=0, channel=3, data=[32, 127]),
   midi.NoteOnEvent(tick=30, channel=3, data=[32, 0]),
   midi.NoteOnEvent(tick=0, channel=3, data=[32, 127]),
   midi.NoteOnEvent(tick=30, channel=3, data=[32, 0]),
   midi.NoteOnEvent(tick=0, channel=3, data=[32, 127]),
   midi.NoteOnEvent(tick=30, channel=3, data=[32, 0]),
   midi.NoteOnEvent(tick=0, channel=3, data=[32, 127]),
   midi.NoteOnEvent(tick=30, channel=3, data=[32, 0]),
   midi.NoteOnEvent(tick=0, channel=3, data=[38, 127]),
   midi.NoteOnEvent(tick=60, channel=3, data=[38, 0]),
   midi.NoteOnEvent(tick=0, channel=3, data=[38, 127]),
   midi.NoteOnEvent(tick=30, channel=3, data=[38, 0]),
   midi.NoteOnEvent(tick=0, channel=3, data=[38, 127]),
   midi.NoteOnEvent(tick=30, channel=3, data=[38, 0]),
   midi.NoteOnEvent(tick=0, channel=3, data=[38, 127]),
   midi.NoteOnEvent(tick=30, channel=3, data=[38, 0]),
   midi.NoteOnEvent(tick=0, channel=3, data=[38, 127]),
   midi.NoteOnEvent(tick=30, channel=3, data=[38, 0]),
   midi.NoteOnEvent(tick=0, channel=3, data=[35, 127]),
   midi.NoteOnEvent(tick=60, channel=3, data=[35, 0]),
   midi.NoteOnEvent(tick=0, channel=3, data=[35, 127]),
   midi.NoteOnEvent(tick=30, channel=3, data=[35, 0]),
   midi.NoteOnEvent(tick=0, channel=3, data=[35, 127]),
   midi.NoteOnEvent(tick=30, channel=3, data=[35, 0]),
   midi.NoteOnEvent(tick=0, channel=3, data=[35, 127]),
   midi.NoteOnEvent(tick=30, channel=3, data=[35, 0]),
   midi.NoteOnEvent(tick=0, channel=3, data=[35, 127]),
   midi.NoteOnEvent(tick=30, channel=3, data=[35, 0]),
   midi.NoteOnEvent(tick=0, channel=3, data=[28, 127]),
   midi.NoteOnEvent(tick=30, channel=3, data=[28, 0]),
   midi.NoteOnEvent(tick=0, channel=3, data=[28, 127]),
   midi.NoteOnEvent(tick=30, channel=3, data=[28, 0]),
   midi.NoteOnEvent(tick=60, channel=3, data=[54, 127]),
   midi.NoteOnEvent(tick=180, channel=3, data=[54, 0]),
   midi.NoteOnEvent(tick=0, channel=3, data=[48, 127]),
   midi.NoteOnEvent(tick=180, channel=3, data=[48, 0]),
   midi.NoteOnEvent(tick=0, channel=3, data=[57, 127]),
   midi.NoteOnEvent(tick=480, channel=3, data=[57, 0]),
   midi.NoteOnEvent(tick=120, channel=3, data=[57, 127]),
   midi.NoteOnEvent(tick=180, channel=3, data=[57, 0]),
   midi.NoteOnEvent(tick=0, channel=3, data=[48, 127]),
   midi.NoteOnEvent(tick=180, channel=3, data=[48, 0]),
   midi.NoteOnEvent(tick=0, channel=3, data=[54, 127]),
   midi.NoteOnEvent(tick=480, channel=3, data=[54, 0]),
   midi.NoteOnEvent(tick=0, channel=3, data=[35, 127]),
   midi.NoteOnEvent(tick=60, channel=3, data=[35, 0]),
   midi.NoteOnEvent(tick=0, channel=3, data=[35, 127]),
   midi.NoteOnEvent(tick=60, channel=3, data=[35, 0]),
   midi.NoteOnEvent(tick=0, channel=3, data=[35, 127]),
   midi.NoteOnEvent(tick=60, channel=3, data=[35, 0]),
   midi.NoteOnEvent(tick=0, channel=3, data=[35, 127]),
   midi.NoteOnEvent(tick=60, channel=3, data=[35, 0]),
   midi.NoteOnEvent(tick=0, channel=3, data=[35, 127]),
   midi.NoteOnEvent(tick=60, channel=3, data=[35, 0]),
   midi.NoteOnEvent(tick=0, channel=3, data=[35, 127]),
   midi.NoteOnEvent(tick=60, channel=3, data=[35, 0]),
   midi.NoteOnEvent(tick=0, channel=3, data=[33, 127]),
   midi.NoteOnEvent(tick=60, channel=3, data=[33, 0]),
   midi.NoteOnEvent(tick=60, channel=3, data=[35, 127]),
   midi.NoteOnEvent(tick=60, channel=3, data=[35, 0]),
   midi.NoteOnEvent(tick=0, channel=3, data=[35, 127]),
   midi.NoteOnEvent(tick=60, channel=3, data=[35, 0]),
   midi.NoteOnEvent(tick=0, channel=3, data=[35, 127]),
   midi.NoteOnEvent(tick=60, channel=3, data=[35, 0]),
   midi.NoteOnEvent(tick=0, channel=3, data=[35, 127]),
   midi.NoteOnEvent(tick=60, channel=3, data=[35, 0]),
   midi.NoteOnEvent(tick=0, channel=3, data=[35, 127]),
   midi.NoteOnEvent(tick=60, channel=3, data=[35, 0]),
   midi.NoteOnEvent(tick=0, channel=3, data=[35, 127]),
   midi.NoteOnEvent(tick=60, channel=3, data=[35, 0]),
   midi.NoteOnEvent(tick=0, channel=3, data=[38, 127]),
   midi.NoteOnEvent(tick=60, channel=3, data=[38, 0]),
   midi.NoteOnEvent(tick=0, channel=3, data=[35, 127]),
   midi.NoteOnEvent(tick=60, channel=3, data=[35, 0]),
   midi.NoteOnEvent(tick=0, channel=3, data=[33, 127]),
   midi.NoteOnEvent(tick=60, channel=3, data=[33, 0]),
   midi.NoteOnEvent(tick=0, channel=3, data=[33, 127]),
   midi.NoteOnEvent(tick=60, channel=3, data=[33, 0]),
   midi.NoteOnEvent(tick=0, channel=3, data=[33, 127]),
   midi.NoteOnEvent(tick=60, channel=3, data=[33, 0]),
   midi.NoteOnEvent(tick=0, channel=3, data=[33, 127]),
   midi.NoteOnEvent(tick=60, channel=3, data=[33, 0]),
   midi.NoteOnEvent(tick=0, channel=3, data=[33, 127]),
   midi.NoteOnEvent(tick=60, channel=3, data=[33, 0]),
   midi.NoteOnEvent(tick=0, channel=3, data=[33, 127]),
   midi.NoteOnEvent(tick=60, channel=3, data=[33, 0]),
   midi.NoteOnEvent(tick=0, channel=3, data=[35, 127]),
   midi.NoteOnEvent(tick=60, channel=3, data=[35, 0]),
   midi.NoteOnEvent(tick=0, channel=3, data=[33, 127]),
   midi.NoteOnEvent(tick=60, channel=3, data=[33, 0]),
   midi.NoteOnEvent(tick=0, channel=3, data=[30, 127]),
   midi.NoteOnEvent(tick=60, channel=3, data=[30, 0]),
   midi.NoteOnEvent(tick=0, channel=3, data=[30, 127]),
   midi.NoteOnEvent(tick=60, channel=3, data=[30, 0]),
   midi.NoteOnEvent(tick=0, channel=3, data=[30, 127]),
   midi.NoteOnEvent(tick=60, channel=3, data=[30, 0]),
   midi.NoteOnEvent(tick=0, channel=3, data=[30, 127]),
   midi.NoteOnEvent(tick=60, channel=3, data=[30, 0]),
   midi.NoteOnEvent(tick=0, channel=3, data=[30, 127]),
   midi.NoteOnEvent(tick=60, channel=3, data=[30, 0]),
   midi.NoteOnEvent(tick=0, channel=3, data=[30, 127]),
   midi.NoteOnEvent(tick=60, channel=3, data=[30, 0]),
   midi.NoteOnEvent(tick=0, channel=3, data=[33, 127]),
   midi.NoteOnEvent(tick=60, channel=3, data=[33, 0]),
   midi.NoteOnEvent(tick=60, channel=3, data=[35, 127]),
   midi.NoteOnEvent(tick=60, channel=3, data=[35, 0]),
   midi.NoteOnEvent(tick=0, channel=3, data=[35, 127]),
   midi.NoteOnEvent(tick=60, channel=3, data=[35, 0]),
   midi.NoteOnEvent(tick=0, channel=3, data=[35, 127]),
   midi.NoteOnEvent(tick=60, channel=3, data=[35, 0]),
   midi.NoteOnEvent(tick=0, channel=3, data=[35, 127]),
   midi.NoteOnEvent(tick=60, channel=3, data=[35, 0]),
   midi.NoteOnEvent(tick=0, channel=3, data=[35, 127]),
   midi.NoteOnEvent(tick=60, channel=3, data=[35, 0]),
   midi.NoteOnEvent(tick=0, channel=3, data=[35, 127]),
   midi.NoteOnEvent(tick=60, channel=3, data=[35, 0]),
   midi.NoteOnEvent(tick=0, channel=3, data=[33, 127]),
   midi.NoteOnEvent(tick=60, channel=3, data=[33, 0]),
   midi.NoteOnEvent(tick=60, channel=3, data=[33, 127]),
   midi.NoteOnEvent(tick=60, channel=3, data=[33, 0]),
   midi.NoteOnEvent(tick=0, channel=3, data=[33, 127]),
   midi.NoteOnEvent(tick=60, channel=3, data=[33, 0]),
   midi.NoteOnEvent(tick=0, channel=3, data=[33, 127]),
   midi.NoteOnEvent(tick=60, channel=3, data=[33, 0]),
   midi.NoteOnEvent(tick=0, channel=3, data=[33, 127]),
   midi.NoteOnEvent(tick=60, channel=3, data=[33, 0]),
   midi.NoteOnEvent(tick=0, channel=3, data=[33, 127]),
   midi.NoteOnEvent(tick=60, channel=3, data=[33, 0]),
   midi.NoteOnEvent(tick=0, channel=3, data=[33, 127]),
   midi.NoteOnEvent(tick=60, channel=3, data=[33, 0]),
   midi.NoteOnEvent(tick=0, channel=3, data=[33, 127]),
   midi.NoteOnEvent(tick=60, channel=3, data=[33, 0]),
   midi.NoteOnEvent(tick=60, channel=3, data=[30, 127]),
   midi.NoteOnEvent(tick=60, channel=3, data=[30, 0]),
   midi.NoteOnEvent(tick=0, channel=3, data=[30, 127]),
   midi.NoteOnEvent(tick=60, channel=3, data=[30, 0]),
   midi.NoteOnEvent(tick=0, channel=3, data=[30, 127]),
   midi.NoteOnEvent(tick=60, channel=3, data=[30, 0]),
   midi.NoteOnEvent(tick=0, channel=3, data=[30, 127]),
   midi.NoteOnEvent(tick=60, channel=3, data=[30, 0]),
   midi.NoteOnEvent(tick=0, channel=3, data=[30, 127]),
   midi.NoteOnEvent(tick=60, channel=3, data=[30, 0]),
   midi.NoteOnEvent(tick=0, channel=3, data=[30, 127]),
   midi.NoteOnEvent(tick=60, channel=3, data=[30, 0]),
   midi.NoteOnEvent(tick=0, channel=3, data=[33, 127]),
   midi.NoteOnEvent(tick=60, channel=3, data=[33, 0]),
   midi.NoteOnEvent(tick=60, channel=3, data=[28, 127]),
   midi.NoteOnEvent(tick=60, channel=3, data=[28, 0]),
   midi.NoteOnEvent(tick=0, channel=3, data=[28, 127]),
   midi.NoteOnEvent(tick=60, channel=3, data=[28, 0]),
   midi.NoteOnEvent(tick=0, channel=3, data=[28, 127]),
   midi.NoteOnEvent(tick=60, channel=3, data=[28, 0]),
   midi.NoteOnEvent(tick=0, channel=3, data=[28, 127]),
   midi.NoteOnEvent(tick=60, channel=3, data=[28, 0]),
   midi.NoteOnEvent(tick=0, channel=3, data=[28, 127]),
   midi.NoteOnEvent(tick=60, channel=3, data=[28, 0]),
   midi.NoteOnEvent(tick=0, channel=3, data=[28, 127]),
   midi.NoteOnEvent(tick=60, channel=3, data=[28, 0]),
   midi.NoteOnEvent(tick=0, channel=3, data=[28, 127]),
   midi.NoteOnEvent(tick=60, channel=3, data=[28, 0]),
   midi.NoteOnEvent(tick=60, channel=3, data=[35, 127]),
   midi.NoteOnEvent(tick=60, channel=3, data=[35, 0]),
   midi.NoteOnEvent(tick=0, channel=3, data=[35, 127]),
   midi.NoteOnEvent(tick=60, channel=3, data=[35, 0]),
   midi.NoteOnEvent(tick=0, channel=3, data=[35, 127]),
   midi.NoteOnEvent(tick=60, channel=3, data=[35, 0]),
   midi.NoteOnEvent(tick=0, channel=3, data=[35, 127]),
   midi.NoteOnEvent(tick=60, channel=3, data=[35, 0]),
   midi.NoteOnEvent(tick=0, channel=3, data=[35, 127]),
   midi.NoteOnEvent(tick=60, channel=3, data=[35, 0]),
   midi.NoteOnEvent(tick=0, channel=3, data=[35, 127]),
   midi.NoteOnEvent(tick=60, channel=3, data=[35, 0]),
   midi.NoteOnEvent(tick=0, channel=3, data=[33, 127]),
   midi.NoteOnEvent(tick=60, channel=3, data=[33, 0]),
   midi.NoteOnEvent(tick=60, channel=3, data=[35, 127]),
   midi.NoteOnEvent(tick=60, channel=3, data=[35, 0]),
   midi.NoteOnEvent(tick=0, channel=3, data=[35, 127]),
   midi.NoteOnEvent(tick=60, channel=3, data=[35, 0]),
   midi.NoteOnEvent(tick=0, channel=3, data=[35, 127]),
   midi.NoteOnEvent(tick=60, channel=3, data=[35, 0]),
   midi.NoteOnEvent(tick=0, channel=3, data=[35, 127]),
   midi.NoteOnEvent(tick=60, channel=3, data=[35, 0]),
   midi.NoteOnEvent(tick=0, channel=3, data=[35, 127]),
   midi.NoteOnEvent(tick=60, channel=3, data=[35, 0]),
   midi.NoteOnEvent(tick=0, channel=3, data=[35, 127]),
   midi.NoteOnEvent(tick=60, channel=3, data=[35, 0]),
   midi.NoteOnEvent(tick=0, channel=3, data=[38, 127]),
   midi.NoteOnEvent(tick=60, channel=3, data=[38, 0]),
   midi.NoteOnEvent(tick=0, channel=3, data=[35, 127]),
   midi.NoteOnEvent(tick=60, channel=3, data=[35, 0]),
   midi.NoteOnEvent(tick=0, channel=3, data=[33, 127]),
   midi.NoteOnEvent(tick=60, channel=3, data=[33, 0]),
   midi.NoteOnEvent(tick=0, channel=3, data=[33, 127]),
   midi.NoteOnEvent(tick=60, channel=3, data=[33, 0]),
   midi.NoteOnEvent(tick=0, channel=3, data=[33, 127]),
   midi.NoteOnEvent(tick=60, channel=3, data=[33, 0]),
   midi.NoteOnEvent(tick=0, channel=3, data=[33, 127]),
   midi.NoteOnEvent(tick=60, channel=3, data=[33, 0]),
   midi.NoteOnEvent(tick=0, channel=3, data=[33, 127]),
   midi.NoteOnEvent(tick=60, channel=3, data=[33, 0]),
   midi.NoteOnEvent(tick=0, channel=3, data=[33, 127]),
   midi.NoteOnEvent(tick=60, channel=3, data=[33, 0]),
   midi.NoteOnEvent(tick=0, channel=3, data=[35, 127]),
   midi.NoteOnEvent(tick=60, channel=3, data=[35, 0]),
   midi.NoteOnEvent(tick=0, channel=3, data=[33, 127]),
   midi.NoteOnEvent(tick=60, channel=3, data=[33, 0]),
   midi.NoteOnEvent(tick=0, channel=3, data=[30, 127]),
   midi.NoteOnEvent(tick=60, channel=3, data=[30, 0]),
   midi.NoteOnEvent(tick=0, channel=3, data=[30, 127]),
   midi.NoteOnEvent(tick=60, channel=3, data=[30, 0]),
   midi.NoteOnEvent(tick=0, channel=3, data=[30, 127]),
   midi.NoteOnEvent(tick=60, channel=3, data=[30, 0]),
   midi.NoteOnEvent(tick=0, channel=3, data=[30, 127]),
   midi.NoteOnEvent(tick=60, channel=3, data=[30, 0]),
   midi.NoteOnEvent(tick=0, channel=3, data=[30, 127]),
   midi.NoteOnEvent(tick=60, channel=3, data=[30, 0]),
   midi.NoteOnEvent(tick=0, channel=3, data=[30, 127]),
   midi.NoteOnEvent(tick=60, channel=3, data=[30, 0]),
   midi.NoteOnEvent(tick=0, channel=3, data=[33, 127]),
   midi.NoteOnEvent(tick=60, channel=3, data=[33, 0]),
   midi.NoteOnEvent(tick=60, channel=3, data=[35, 127]),
   midi.NoteOnEvent(tick=60, channel=3, data=[35, 0]),
   midi.NoteOnEvent(tick=0, channel=3, data=[35, 127]),
   midi.NoteOnEvent(tick=60, channel=3, data=[35, 0]),
   midi.NoteOnEvent(tick=0, channel=3, data=[35, 127]),
   midi.NoteOnEvent(tick=60, channel=3, data=[35, 0]),
   midi.NoteOnEvent(tick=0, channel=3, data=[35, 127]),
   midi.NoteOnEvent(tick=60, channel=3, data=[35, 0]),
   midi.NoteOnEvent(tick=0, channel=3, data=[35, 127]),
   midi.NoteOnEvent(tick=60, channel=3, data=[35, 0]),
   midi.NoteOnEvent(tick=0, channel=3, data=[35, 127]),
   midi.NoteOnEvent(tick=60, channel=3, data=[35, 0]),
   midi.NoteOnEvent(tick=0, channel=3, data=[33, 127]),
   midi.NoteOnEvent(tick=60, channel=3, data=[33, 0]),
   midi.NoteOnEvent(tick=60, channel=3, data=[33, 127]),
   midi.NoteOnEvent(tick=60, channel=3, data=[33, 0]),
   midi.NoteOnEvent(tick=0, channel=3, data=[33, 127]),
   midi.NoteOnEvent(tick=60, channel=3, data=[33, 0]),
   midi.NoteOnEvent(tick=0, channel=3, data=[33, 127]),
   midi.NoteOnEvent(tick=60, channel=3, data=[33, 0]),
   midi.NoteOnEvent(tick=0, channel=3, data=[33, 127]),
   midi.NoteOnEvent(tick=60, channel=3, data=[33, 0]),
   midi.NoteOnEvent(tick=0, channel=3, data=[33, 127]),
   midi.NoteOnEvent(tick=60, channel=3, data=[33, 0]),
   midi.NoteOnEvent(tick=0, channel=3, data=[33, 127]),
   midi.NoteOnEvent(tick=60, channel=3, data=[33, 0]),
   midi.NoteOnEvent(tick=0, channel=3, data=[33, 127]),
   midi.NoteOnEvent(tick=60, channel=3, data=[33, 0]),
   midi.NoteOnEvent(tick=60, channel=3, data=[30, 127]),
   midi.NoteOnEvent(tick=60, channel=3, data=[30, 0]),
   midi.NoteOnEvent(tick=0, channel=3, data=[30, 127]),
   midi.NoteOnEvent(tick=60, channel=3, data=[30, 0]),
   midi.NoteOnEvent(tick=0, channel=3, data=[30, 127]),
   midi.NoteOnEvent(tick=60, channel=3, data=[30, 0]),
   midi.NoteOnEvent(tick=0, channel=3, data=[30, 127]),
   midi.NoteOnEvent(tick=60, channel=3, data=[30, 0]),
   midi.NoteOnEvent(tick=0, channel=3, data=[30, 127]),
   midi.NoteOnEvent(tick=60, channel=3, data=[30, 0]),
   midi.NoteOnEvent(tick=0, channel=3, data=[30, 127]),
   midi.NoteOnEvent(tick=60, channel=3, data=[30, 0]),
   midi.NoteOnEvent(tick=0, channel=3, data=[33, 127]),
   midi.NoteOnEvent(tick=60, channel=3, data=[33, 0]),
   midi.NoteOnEvent(tick=60, channel=3, data=[28, 127]),
   midi.NoteOnEvent(tick=60, channel=3, data=[28, 0]),
   midi.NoteOnEvent(tick=0, channel=3, data=[28, 127]),
   midi.NoteOnEvent(tick=60, channel=3, data=[28, 0]),
   midi.NoteOnEvent(tick=0, channel=3, data=[28, 127]),
   midi.NoteOnEvent(tick=60, channel=3, data=[28, 0]),
   midi.NoteOnEvent(tick=0, channel=3, data=[28, 127]),
   midi.NoteOnEvent(tick=60, channel=3, data=[28, 0]),
   midi.NoteOnEvent(tick=0, channel=3, data=[28, 127]),
   midi.NoteOnEvent(tick=60, channel=3, data=[28, 0]),
   midi.NoteOnEvent(tick=0, channel=3, data=[28, 127]),
   midi.NoteOnEvent(tick=60, channel=3, data=[28, 0]),
   midi.NoteOnEvent(tick=0, channel=3, data=[28, 127]),
   midi.NoteOnEvent(tick=60, channel=3, data=[28, 0]),
   midi.NoteOnEvent(tick=60, channel=3, data=[28, 127]),
   midi.NoteOnEvent(tick=60, channel=3, data=[28, 0]),
   midi.NoteOnEvent(tick=0, channel=3, data=[28, 127]),
   midi.NoteOnEvent(tick=30, channel=3, data=[28, 0]),
   midi.NoteOnEvent(tick=0, channel=3, data=[28, 127]),
   midi.NoteOnEvent(tick=30, channel=3, data=[28, 0]),
   midi.NoteOnEvent(tick=0, channel=3, data=[33, 127]),
   midi.NoteOnEvent(tick=60, channel=3, data=[33, 0]),
   midi.NoteOnEvent(tick=0, channel=3, data=[28, 127]),
   midi.NoteOnEvent(tick=30, channel=3, data=[28, 0]),
   midi.NoteOnEvent(tick=0, channel=3, data=[28, 127]),
   midi.NoteOnEvent(tick=30, channel=3, data=[28, 0]),
   midi.NoteOnEvent(tick=0, channel=3, data=[28, 127]),
   midi.NoteOnEvent(tick=30, channel=3, data=[28, 0]),
   midi.NoteOnEvent(tick=0, channel=3, data=[28, 127]),
   midi.NoteOnEvent(tick=30, channel=3, data=[28, 0]),
   midi.NoteOnEvent(tick=0, channel=3, data=[35, 127]),
   midi.NoteOnEvent(tick=60, channel=3, data=[35, 0]),
   midi.NoteOnEvent(tick=0, channel=3, data=[28, 127]),
   midi.NoteOnEvent(tick=30, channel=3, data=[28, 0]),
   midi.NoteOnEvent(tick=0, channel=3, data=[28, 127]),
   midi.NoteOnEvent(tick=30, channel=3, data=[28, 0]),
   midi.NoteOnEvent(tick=0, channel=3, data=[28, 127]),
   midi.NoteOnEvent(tick=30, channel=3, data=[28, 0]),
   midi.NoteOnEvent(tick=0, channel=3, data=[28, 127]),
   midi.NoteOnEvent(tick=30, channel=3, data=[28, 0]),
   midi.NoteOnEvent(tick=0, channel=3, data=[36, 127]),
   midi.NoteOnEvent(tick=60, channel=3, data=[36, 0]),
   midi.NoteOnEvent(tick=0, channel=3, data=[28, 127]),
   midi.NoteOnEvent(tick=30, channel=3, data=[28, 0]),
   midi.NoteOnEvent(tick=0, channel=3, data=[28, 127]),
   midi.NoteOnEvent(tick=30, channel=3, data=[28, 0]),
   midi.NoteOnEvent(tick=0, channel=3, data=[28, 127]),
   midi.NoteOnEvent(tick=30, channel=3, data=[28, 0]),
   midi.NoteOnEvent(tick=0, channel=3, data=[28, 127]),
   midi.NoteOnEvent(tick=30, channel=3, data=[28, 0]),
   midi.NoteOnEvent(tick=0, channel=3, data=[28, 127]),
   midi.NoteOnEvent(tick=60, channel=3, data=[28, 0]),
   midi.NoteOnEvent(tick=0, channel=3, data=[28, 127]),
   midi.NoteOnEvent(tick=30, channel=3, data=[28, 0]),
   midi.NoteOnEvent(tick=0, channel=3, data=[28, 127]),
   midi.NoteOnEvent(tick=30, channel=3, data=[28, 0]),
   midi.NoteOnEvent(tick=0, channel=3, data=[29, 127]),
   midi.NoteOnEvent(tick=60, channel=3, data=[29, 0]),
   midi.NoteOnEvent(tick=0, channel=3, data=[29, 127]),
   midi.NoteOnEvent(tick=30, channel=3, data=[29, 0]),
   midi.NoteOnEvent(tick=0, channel=3, data=[29, 127]),
   midi.NoteOnEvent(tick=30, channel=3, data=[29, 0]),
   midi.NoteOnEvent(tick=0, channel=3, data=[28, 127]),
   midi.NoteOnEvent(tick=60, channel=3, data=[28, 0]),
   midi.NoteOnEvent(tick=0, channel=3, data=[28, 127]),
   midi.NoteOnEvent(tick=60, channel=3, data=[28, 0]),
   midi.NoteOnEvent(tick=0, channel=3, data=[28, 127]),
   midi.NoteOnEvent(tick=30, channel=3, data=[28, 0]),
   midi.NoteOnEvent(tick=0, channel=3, data=[28, 127]),
   midi.NoteOnEvent(tick=30, channel=3, data=[28, 0]),
   midi.NoteOnEvent(tick=0, channel=3, data=[36, 127]),
   midi.NoteOnEvent(tick=60, channel=3, data=[36, 0]),
   midi.NoteOnEvent(tick=0, channel=3, data=[28, 127]),
   midi.NoteOnEvent(tick=30, channel=3, data=[28, 0]),
   midi.NoteOnEvent(tick=0, channel=3, data=[28, 127]),
   midi.NoteOnEvent(tick=30, channel=3, data=[28, 0]),
   midi.NoteOnEvent(tick=0, channel=3, data=[28, 127]),
   midi.NoteOnEvent(tick=30, channel=3, data=[28, 0]),
   midi.NoteOnEvent(tick=0, channel=3, data=[28, 127]),
   midi.NoteOnEvent(tick=30, channel=3, data=[28, 0]),
   midi.NoteOnEvent(tick=0, channel=3, data=[35, 127]),
   midi.NoteOnEvent(tick=60, channel=3, data=[35, 0]),
   midi.NoteOnEvent(tick=0, channel=3, data=[28, 127]),
   midi.NoteOnEvent(tick=30, channel=3, data=[28, 0]),
   midi.NoteOnEvent(tick=0, channel=3, data=[28, 127]),
   midi.NoteOnEvent(tick=30, channel=3, data=[28, 0]),
   midi.NoteOnEvent(tick=0, channel=3, data=[28, 127]),
   midi.NoteOnEvent(tick=30, channel=3, data=[28, 0]),
   midi.NoteOnEvent(tick=0, channel=3, data=[28, 127]),
   midi.NoteOnEvent(tick=30, channel=3, data=[28, 0]),
   midi.NoteOnEvent(tick=0, channel=3, data=[33, 127]),
   midi.NoteOnEvent(tick=60, channel=3, data=[33, 0]),
   midi.NoteOnEvent(tick=0, channel=3, data=[28, 127]),
   midi.NoteOnEvent(tick=30, channel=3, data=[28, 0]),
   midi.NoteOnEvent(tick=0, channel=3, data=[28, 127]),
   midi.NoteOnEvent(tick=30, channel=3, data=[28, 0]),
   midi.NoteOnEvent(tick=0, channel=3, data=[28, 127]),
   midi.NoteOnEvent(tick=30, channel=3, data=[28, 0]),
   midi.NoteOnEvent(tick=0, channel=3, data=[28, 127]),
   midi.NoteOnEvent(tick=30, channel=3, data=[28, 0]),
   midi.NoteOnEvent(tick=0, channel=3, data=[28, 127]),
   midi.NoteOnEvent(tick=60, channel=3, data=[28, 0]),
   midi.NoteOnEvent(tick=0, channel=3, data=[28, 127]),
   midi.NoteOnEvent(tick=30, channel=3, data=[28, 0]),
   midi.NoteOnEvent(tick=0, channel=3, data=[28, 127]),
   midi.NoteOnEvent(tick=30, channel=3, data=[28, 0]),
   midi.NoteOnEvent(tick=0, channel=3, data=[29, 127]),
   midi.NoteOnEvent(tick=60, channel=3, data=[29, 0]),
   midi.NoteOnEvent(tick=0, channel=3, data=[29, 127]),
   midi.NoteOnEvent(tick=30, channel=3, data=[29, 0]),
   midi.NoteOnEvent(tick=0, channel=3, data=[29, 127]),
   midi.NoteOnEvent(tick=30, channel=3, data=[29, 0]),
   midi.NoteOnEvent(tick=0, channel=3, data=[28, 127]),
   midi.NoteOnEvent(tick=60, channel=3, data=[28, 0]),
   midi.NoteOnEvent(tick=0, channel=3, data=[28, 127]),
   midi.NoteOnEvent(tick=60, channel=3, data=[28, 0]),
   midi.NoteOnEvent(tick=0, channel=3, data=[28, 127]),
   midi.NoteOnEvent(tick=30, channel=3, data=[28, 0]),
   midi.NoteOnEvent(tick=0, channel=3, data=[28, 127]),
   midi.NoteOnEvent(tick=30, channel=3, data=[28, 0]),
   midi.NoteOnEvent(tick=0, channel=3, data=[33, 127]),
   midi.NoteOnEvent(tick=60, channel=3, data=[33, 0]),
   midi.NoteOnEvent(tick=0, channel=3, data=[28, 127]),
   midi.NoteOnEvent(tick=30, channel=3, data=[28, 0]),
   midi.NoteOnEvent(tick=0, channel=3, data=[28, 127]),
   midi.NoteOnEvent(tick=30, channel=3, data=[28, 0]),
   midi.NoteOnEvent(tick=0, channel=3, data=[28, 127]),
   midi.NoteOnEvent(tick=30, channel=3, data=[28, 0]),
   midi.NoteOnEvent(tick=0, channel=3, data=[28, 127]),
   midi.NoteOnEvent(tick=30, channel=3, data=[28, 0]),
   midi.NoteOnEvent(tick=0, channel=3, data=[35, 127]),
   midi.NoteOnEvent(tick=60, channel=3, data=[35, 0]),
   midi.NoteOnEvent(tick=0, channel=3, data=[28, 127]),
   midi.NoteOnEvent(tick=30, channel=3, data=[28, 0]),
   midi.NoteOnEvent(tick=0, channel=3, data=[28, 127]),
   midi.NoteOnEvent(tick=30, channel=3, data=[28, 0]),
   midi.NoteOnEvent(tick=0, channel=3, data=[28, 127]),
   midi.NoteOnEvent(tick=30, channel=3, data=[28, 0]),
   midi.NoteOnEvent(tick=0, channel=3, data=[28, 127]),
   midi.NoteOnEvent(tick=30, channel=3, data=[28, 0]),
   midi.NoteOnEvent(tick=0, channel=3, data=[36, 127]),
   midi.NoteOnEvent(tick=60, channel=3, data=[36, 0]),
   midi.NoteOnEvent(tick=0, channel=3, data=[28, 127]),
   midi.NoteOnEvent(tick=30, channel=3, data=[28, 0]),
   midi.NoteOnEvent(tick=0, channel=3, data=[28, 127]),
   midi.NoteOnEvent(tick=30, channel=3, data=[28, 0]),
   midi.NoteOnEvent(tick=0, channel=3, data=[28, 127]),
   midi.NoteOnEvent(tick=30, channel=3, data=[28, 0]),
   midi.NoteOnEvent(tick=0, channel=3, data=[28, 127]),
   midi.NoteOnEvent(tick=30, channel=3, data=[28, 0]),
   midi.NoteOnEvent(tick=0, channel=3, data=[28, 127]),
   midi.NoteOnEvent(tick=60, channel=3, data=[28, 0]),
   midi.NoteOnEvent(tick=0, channel=3, data=[28, 127]),
   midi.NoteOnEvent(tick=30, channel=3, data=[28, 0]),
   midi.NoteOnEvent(tick=0, channel=3, data=[28, 127]),
   midi.NoteOnEvent(tick=30, channel=3, data=[28, 0]),
   midi.NoteOnEvent(tick=0, channel=3, data=[29, 127]),
   midi.NoteOnEvent(tick=60, channel=3, data=[29, 0]),
   midi.NoteOnEvent(tick=0, channel=3, data=[29, 127]),
   midi.NoteOnEvent(tick=30, channel=3, data=[29, 0]),
   midi.NoteOnEvent(tick=0, channel=3, data=[29, 127]),
   midi.NoteOnEvent(tick=30, channel=3, data=[29, 0]),
   midi.NoteOnEvent(tick=0, channel=3, data=[28, 127]),
   midi.NoteOnEvent(tick=60, channel=3, data=[28, 0]),
   midi.NoteOnEvent(tick=0, channel=3, data=[28, 127]),
   midi.NoteOnEvent(tick=60, channel=3, data=[28, 0]),
   midi.NoteOnEvent(tick=0, channel=3, data=[28, 127]),
   midi.NoteOnEvent(tick=30, channel=3, data=[28, 0]),
   midi.NoteOnEvent(tick=0, channel=3, data=[28, 127]),
   midi.NoteOnEvent(tick=30, channel=3, data=[28, 0]),
   midi.NoteOnEvent(tick=0, channel=3, data=[36, 127]),
   midi.NoteOnEvent(tick=60, channel=3, data=[36, 0]),
   midi.NoteOnEvent(tick=0, channel=3, data=[28, 127]),
   midi.NoteOnEvent(tick=30, channel=3, data=[28, 0]),
   midi.NoteOnEvent(tick=0, channel=3, data=[28, 127]),
   midi.NoteOnEvent(tick=30, channel=3, data=[28, 0]),
   midi.NoteOnEvent(tick=0, channel=3, data=[28, 127]),
   midi.NoteOnEvent(tick=30, channel=3, data=[28, 0]),
   midi.NoteOnEvent(tick=0, channel=3, data=[28, 127]),
   midi.NoteOnEvent(tick=30, channel=3, data=[28, 0]),
   midi.NoteOnEvent(tick=0, channel=3, data=[35, 127]),
   midi.NoteOnEvent(tick=60, channel=3, data=[35, 0]),
   midi.NoteOnEvent(tick=0, channel=3, data=[28, 127]),
   midi.NoteOnEvent(tick=30, channel=3, data=[28, 0]),
   midi.NoteOnEvent(tick=0, channel=3, data=[28, 127]),
   midi.NoteOnEvent(tick=30, channel=3, data=[28, 0]),
   midi.NoteOnEvent(tick=0, channel=3, data=[28, 127]),
   midi.NoteOnEvent(tick=30, channel=3, data=[28, 0]),
   midi.NoteOnEvent(tick=0, channel=3, data=[28, 127]),
   midi.NoteOnEvent(tick=30, channel=3, data=[28, 0]),
   midi.NoteOnEvent(tick=0, channel=3, data=[33, 127]),
   midi.NoteOnEvent(tick=60, channel=3, data=[33, 0]),
   midi.NoteOnEvent(tick=0, channel=3, data=[28, 127]),
   midi.NoteOnEvent(tick=30, channel=3, data=[28, 0]),
   midi.NoteOnEvent(tick=0, channel=3, data=[28, 127]),
   midi.NoteOnEvent(tick=30, channel=3, data=[28, 0]),
   midi.NoteOnEvent(tick=0, channel=3, data=[28, 127]),
   midi.NoteOnEvent(tick=30, channel=3, data=[28, 0]),
   midi.NoteOnEvent(tick=0, channel=3, data=[28, 127]),
   midi.NoteOnEvent(tick=30, channel=3, data=[28, 0]),
   midi.NoteOnEvent(tick=0, channel=3, data=[28, 127]),
   midi.NoteOnEvent(tick=60, channel=3, data=[28, 0]),
   midi.NoteOnEvent(tick=0, channel=3, data=[28, 127]),
   midi.NoteOnEvent(tick=30, channel=3, data=[28, 0]),
   midi.NoteOnEvent(tick=0, channel=3, data=[28, 127]),
   midi.NoteOnEvent(tick=30, channel=3, data=[28, 0]),
   midi.NoteOnEvent(tick=0, channel=3, data=[29, 127]),
   midi.NoteOnEvent(tick=60, channel=3, data=[29, 0]),
   midi.NoteOnEvent(tick=0, channel=3, data=[29, 127]),
   midi.NoteOnEvent(tick=30, channel=3, data=[29, 0]),
   midi.NoteOnEvent(tick=0, channel=3, data=[29, 127]),
   midi.NoteOnEvent(tick=30, channel=3, data=[29, 0]),
   midi.NoteOnEvent(tick=0, channel=3, data=[28, 127]),
   midi.NoteOnEvent(tick=60, channel=3, data=[28, 0]),
   midi.NoteOnEvent(tick=0, channel=3, data=[28, 127]),
   midi.NoteOnEvent(tick=60, channel=3, data=[28, 0]),
   midi.NoteOnEvent(tick=0, channel=3, data=[28, 127]),
   midi.NoteOnEvent(tick=30, channel=3, data=[28, 0]),
   midi.NoteOnEvent(tick=0, channel=3, data=[28, 127]),
   midi.NoteOnEvent(tick=30, channel=3, data=[28, 0]),
   midi.NoteOnEvent(tick=0, channel=3, data=[33, 127]),
   midi.NoteOnEvent(tick=60, channel=3, data=[33, 0]),
   midi.NoteOnEvent(tick=0, channel=3, data=[28, 127]),
   midi.NoteOnEvent(tick=30, channel=3, data=[28, 0]),
   midi.NoteOnEvent(tick=0, channel=3, data=[28, 127]),
   midi.NoteOnEvent(tick=30, channel=3, data=[28, 0]),
   midi.NoteOnEvent(tick=0, channel=3, data=[28, 127]),
   midi.NoteOnEvent(tick=30, channel=3, data=[28, 0]),
   midi.NoteOnEvent(tick=0, channel=3, data=[28, 127]),
   midi.NoteOnEvent(tick=30, channel=3, data=[28, 0]),
   midi.NoteOnEvent(tick=0, channel=3, data=[35, 127]),
   midi.NoteOnEvent(tick=60, channel=3, data=[35, 0]),
   midi.NoteOnEvent(tick=0, channel=3, data=[28, 127]),
   midi.NoteOnEvent(tick=30, channel=3, data=[28, 0]),
   midi.NoteOnEvent(tick=0, channel=3, data=[28, 127]),
   midi.NoteOnEvent(tick=30, channel=3, data=[28, 0]),
   midi.NoteOnEvent(tick=0, channel=3, data=[28, 127]),
   midi.NoteOnEvent(tick=30, channel=3, data=[28, 0]),
   midi.NoteOnEvent(tick=0, channel=3, data=[28, 127]),
   midi.NoteOnEvent(tick=30, channel=3, data=[28, 0]),
   midi.NoteOnEvent(tick=0, channel=3, data=[36, 127]),
   midi.NoteOnEvent(tick=60, channel=3, data=[36, 0]),
   midi.NoteOnEvent(tick=0, channel=3, data=[28, 127]),
   midi.NoteOnEvent(tick=30, channel=3, data=[28, 0]),
   midi.NoteOnEvent(tick=0, channel=3, data=[28, 127]),
   midi.NoteOnEvent(tick=30, channel=3, data=[28, 0]),
   midi.NoteOnEvent(tick=0, channel=3, data=[28, 127]),
   midi.NoteOnEvent(tick=30, channel=3, data=[28, 0]),
   midi.NoteOnEvent(tick=0, channel=3, data=[28, 127]),
   midi.NoteOnEvent(tick=30, channel=3, data=[28, 0]),
   midi.NoteOnEvent(tick=0, channel=3, data=[28, 127]),
   midi.NoteOnEvent(tick=60, channel=3, data=[28, 0]),
   midi.NoteOnEvent(tick=0, channel=3, data=[28, 127]),
   midi.NoteOnEvent(tick=30, channel=3, data=[28, 0]),
   midi.NoteOnEvent(tick=0, channel=3, data=[28, 127]),
   midi.NoteOnEvent(tick=30, channel=3, data=[28, 0]),
   midi.NoteOnEvent(tick=0, channel=3, data=[29, 127]),
   midi.NoteOnEvent(tick=60, channel=3, data=[29, 0]),
   midi.NoteOnEvent(tick=0, channel=3, data=[29, 127]),
   midi.NoteOnEvent(tick=30, channel=3, data=[29, 0]),
   midi.NoteOnEvent(tick=0, channel=3, data=[29, 127]),
   midi.NoteOnEvent(tick=30, channel=3, data=[29, 0]),
   midi.NoteOnEvent(tick=0, channel=3, data=[28, 127]),
   midi.NoteOnEvent(tick=60, channel=3, data=[28, 0]),
   midi.ControlChangeEvent(tick=0, channel=3, data=[7, 99]),
   midi.NoteOnEvent(tick=0, channel=3, data=[28, 127]),
   midi.ControlChangeEvent(tick=58, channel=3, data=[7, 98]),
   midi.NoteOnEvent(tick=2, channel=3, data=[28, 0]),
   midi.NoteOnEvent(tick=0, channel=3, data=[28, 127]),
   midi.NoteOnEvent(tick=30, channel=3, data=[28, 0]),
   midi.NoteOnEvent(tick=0, channel=3, data=[28, 127]),
   midi.ControlChangeEvent(tick=26, channel=3, data=[7, 97]),
   midi.NoteOnEvent(tick=4, channel=3, data=[28, 0]),
   midi.NoteOnEvent(tick=0, channel=3, data=[36, 127]),
   midi.ControlChangeEvent(tick=55, channel=3, data=[7, 96]),
   midi.NoteOnEvent(tick=5, channel=3, data=[36, 0]),
   midi.NoteOnEvent(tick=0, channel=3, data=[28, 127]),
   midi.NoteOnEvent(tick=30, channel=3, data=[28, 0]),
   midi.NoteOnEvent(tick=0, channel=3, data=[28, 127]),
   midi.ControlChangeEvent(tick=23, channel=3, data=[7, 95]),
   midi.NoteOnEvent(tick=7, channel=3, data=[28, 0]),
   midi.NoteOnEvent(tick=0, channel=3, data=[28, 127]),
   midi.NoteOnEvent(tick=30, channel=3, data=[28, 0]),
   midi.NoteOnEvent(tick=0, channel=3, data=[28, 127]),
   midi.ControlChangeEvent(tick=21, channel=3, data=[7, 94]),
   midi.NoteOnEvent(tick=9, channel=3, data=[28, 0]),
   midi.NoteOnEvent(tick=0, channel=3, data=[35, 127]),
   midi.ControlChangeEvent(tick=49, channel=3, data=[7, 93]),
   midi.NoteOnEvent(tick=11, channel=3, data=[35, 0]),
   midi.NoteOnEvent(tick=0, channel=3, data=[28, 127]),
   midi.NoteOnEvent(tick=30, channel=3, data=[28, 0]),
   midi.NoteOnEvent(tick=0, channel=3, data=[28, 127]),
   midi.ControlChangeEvent(tick=17, channel=3, data=[7, 92]),
   midi.NoteOnEvent(tick=13, channel=3, data=[28, 0]),
   midi.NoteOnEvent(tick=0, channel=3, data=[28, 127]),
   midi.NoteOnEvent(tick=30, channel=3, data=[28, 0]),
   midi.NoteOnEvent(tick=0, channel=3, data=[28, 127]),
   midi.ControlChangeEvent(tick=15, channel=3, data=[7, 91]),
   midi.NoteOnEvent(tick=15, channel=3, data=[28, 0]),
   midi.NoteOnEvent(tick=0, channel=3, data=[33, 127]),
   midi.ControlChangeEvent(tick=44, channel=3, data=[7, 90]),
   midi.NoteOnEvent(tick=16, channel=3, data=[33, 0]),
   midi.NoteOnEvent(tick=0, channel=3, data=[28, 127]),
   midi.NoteOnEvent(tick=30, channel=3, data=[28, 0]),
   midi.NoteOnEvent(tick=0, channel=3, data=[28, 127]),
   midi.ControlChangeEvent(tick=12, channel=3, data=[7, 89]),
   midi.NoteOnEvent(tick=18, channel=3, data=[28, 0]),
   midi.NoteOnEvent(tick=0, channel=3, data=[28, 127]),
   midi.NoteOnEvent(tick=30, channel=3, data=[28, 0]),
   midi.NoteOnEvent(tick=0, channel=3, data=[28, 127]),
   midi.ControlChangeEvent(tick=10, channel=3, data=[7, 88]),
   midi.NoteOnEvent(tick=20, channel=3, data=[28, 0]),
   midi.NoteOnEvent(tick=0, channel=3, data=[28, 127]),
   midi.ControlChangeEvent(tick=38, channel=3, data=[7, 87]),
   midi.NoteOnEvent(tick=22, channel=3, data=[28, 0]),
   midi.NoteOnEvent(tick=0, channel=3, data=[28, 127]),
   midi.NoteOnEvent(tick=30, channel=3, data=[28, 0]),
   midi.NoteOnEvent(tick=0, channel=3, data=[28, 127]),
   midi.ControlChangeEvent(tick=6, channel=3, data=[7, 86]),
   midi.NoteOnEvent(tick=24, channel=3, data=[28, 0]),
   midi.NoteOnEvent(tick=0, channel=3, data=[29, 127]),
   midi.ControlChangeEvent(tick=34, channel=3, data=[7, 85]),
   midi.NoteOnEvent(tick=26, channel=3, data=[29, 0]),
   midi.NoteOnEvent(tick=0, channel=3, data=[29, 127]),
   midi.NoteOnEvent(tick=30, channel=3, data=[29, 0]),
   midi.NoteOnEvent(tick=0, channel=3, data=[29, 127]),
   midi.ControlChangeEvent(tick=3, channel=3, data=[7, 84]),
   midi.NoteOnEvent(tick=27, channel=3, data=[29, 0]),
   midi.NoteOnEvent(tick=0, channel=3, data=[28, 127]),
   midi.ControlChangeEvent(tick=31, channel=3, data=[7, 83]),
   midi.NoteOnEvent(tick=29, channel=3, data=[28, 0]),
   midi.NoteOnEvent(tick=0, channel=3, data=[28, 127]),
   midi.ControlChangeEvent(tick=29, channel=3, data=[7, 82]),
   midi.NoteOnEvent(tick=31, channel=3, data=[28, 0]),
   midi.NoteOnEvent(tick=0, channel=3, data=[28, 127]),
   midi.ControlChangeEvent(tick=27, channel=3, data=[7, 81]),
   midi.NoteOnEvent(tick=3, channel=3, data=[28, 0]),
   midi.NoteOnEvent(tick=0, channel=3, data=[28, 127]),
   midi.NoteOnEvent(tick=30, channel=3, data=[28, 0]),
   midi.NoteOnEvent(tick=0, channel=3, data=[33, 127]),
   midi.ControlChangeEvent(tick=25, channel=3, data=[7, 80]),
   midi.NoteOnEvent(tick=35, channel=3, data=[33, 0]),
   midi.NoteOnEvent(tick=0, channel=3, data=[28, 127]),
   midi.ControlChangeEvent(tick=23, channel=3, data=[7, 79]),
   midi.NoteOnEvent(tick=7, channel=3, data=[28, 0]),
   midi.NoteOnEvent(tick=0, channel=3, data=[28, 127]),
   midi.NoteOnEvent(tick=30, channel=3, data=[28, 0]),
   midi.NoteOnEvent(tick=0, channel=3, data=[28, 127]),
   midi.ControlChangeEvent(tick=22, channel=3, data=[7, 78]),
   midi.NoteOnEvent(tick=8, channel=3, data=[28, 0]),
   midi.NoteOnEvent(tick=0, channel=3, data=[28, 127]),
   midi.NoteOnEvent(tick=30, channel=3, data=[28, 0]),
   midi.NoteOnEvent(tick=0, channel=3, data=[35, 127]),
   midi.ControlChangeEvent(tick=20, channel=3, data=[7, 77]),
   midi.NoteOnEvent(tick=40, channel=3, data=[35, 0]),
   midi.NoteOnEvent(tick=0, channel=3, data=[28, 127]),
   midi.ControlChangeEvent(tick=18, channel=3, data=[7, 76]),
   midi.NoteOnEvent(tick=12, channel=3, data=[28, 0]),
   midi.NoteOnEvent(tick=0, channel=3, data=[28, 127]),
   midi.NoteOnEvent(tick=30, channel=3, data=[28, 0]),
   midi.NoteOnEvent(tick=0, channel=3, data=[28, 127]),
   midi.ControlChangeEvent(tick=16, channel=3, data=[7, 75]),
   midi.NoteOnEvent(tick=14, channel=3, data=[28, 0]),
   midi.NoteOnEvent(tick=0, channel=3, data=[28, 127]),
   midi.NoteOnEvent(tick=30, channel=3, data=[28, 0]),
   midi.NoteOnEvent(tick=0, channel=3, data=[36, 127]),
   midi.ControlChangeEvent(tick=14, channel=3, data=[7, 74]),
   midi.NoteOnEvent(tick=46, channel=3, data=[36, 0]),
   midi.NoteOnEvent(tick=0, channel=3, data=[28, 127]),
   midi.ControlChangeEvent(tick=12, channel=3, data=[7, 73]),
   midi.NoteOnEvent(tick=18, channel=3, data=[28, 0]),
   midi.NoteOnEvent(tick=0, channel=3, data=[28, 127]),
   midi.NoteOnEvent(tick=30, channel=3, data=[28, 0]),
   midi.NoteOnEvent(tick=0, channel=3, data=[28, 127]),
   midi.ControlChangeEvent(tick=11, channel=3, data=[7, 72]),
   midi.NoteOnEvent(tick=19, channel=3, data=[28, 0]),
   midi.NoteOnEvent(tick=0, channel=3, data=[28, 127]),
   midi.NoteOnEvent(tick=30, channel=3, data=[28, 0]),
   midi.NoteOnEvent(tick=0, channel=3, data=[28, 127]),
   midi.ControlChangeEvent(tick=9, channel=3, data=[7, 71]),
   midi.NoteOnEvent(tick=51, channel=3, data=[28, 0]),
   midi.NoteOnEvent(tick=0, channel=3, data=[28, 127]),
   midi.ControlChangeEvent(tick=7, channel=3, data=[7, 70]),
   midi.NoteOnEvent(tick=23, channel=3, data=[28, 0]),
   midi.NoteOnEvent(tick=0, channel=3, data=[28, 127]),
   midi.NoteOnEvent(tick=30, channel=3, data=[28, 0]),
   midi.NoteOnEvent(tick=0, channel=3, data=[29, 127]),
   midi.ControlChangeEvent(tick=5, channel=3, data=[7, 69]),
   midi.NoteOnEvent(tick=55, channel=3, data=[29, 0]),
   midi.NoteOnEvent(tick=0, channel=3, data=[29, 127]),
   midi.ControlChangeEvent(tick=3, channel=3, data=[7, 68]),
   midi.NoteOnEvent(tick=27, channel=3, data=[29, 0]),
   midi.NoteOnEvent(tick=0, channel=3, data=[29, 127]),
   midi.NoteOnEvent(tick=30, channel=3, data=[29, 0]),
   midi.NoteOnEvent(tick=0, channel=3, data=[28, 127]),
   midi.ControlChangeEvent(tick=1, channel=3, data=[7, 67]),
   midi.NoteOnEvent(tick=59, channel=3, data=[28, 0]),
   midi.ControlChangeEvent(tick=0, channel=3, data=[7, 66]),
   midi.NoteOnEvent(tick=0, channel=3, data=[28, 127]),
   midi.ControlChangeEvent(tick=58, channel=3, data=[7, 65]),
   midi.NoteOnEvent(tick=2, channel=3, data=[28, 0]),
   midi.NoteOnEvent(tick=0, channel=3, data=[28, 127]),
   midi.NoteOnEvent(tick=30, channel=3, data=[28, 0]),
   midi.NoteOnEvent(tick=0, channel=3, data=[28, 127]),
   midi.ControlChangeEvent(tick=26, channel=3, data=[7, 64]),
   midi.NoteOnEvent(tick=4, channel=3, data=[28, 0]),
   midi.NoteOnEvent(tick=0, channel=3, data=[36, 127]),
   midi.ControlChangeEvent(tick=54, channel=3, data=[7, 63]),
   midi.NoteOnEvent(tick=6, channel=3, data=[36, 0]),
   midi.NoteOnEvent(tick=0, channel=3, data=[28, 127]),
   midi.NoteOnEvent(tick=30, channel=3, data=[28, 0]),
   midi.NoteOnEvent(tick=0, channel=3, data=[28, 127]),
   midi.ControlChangeEvent(tick=22, channel=3, data=[7, 62]),
   midi.NoteOnEvent(tick=8, channel=3, data=[28, 0]),
   midi.NoteOnEvent(tick=0, channel=3, data=[28, 127]),
   midi.NoteOnEvent(tick=30, channel=3, data=[28, 0]),
   midi.NoteOnEvent(tick=0, channel=3, data=[28, 127]),
   midi.ControlChangeEvent(tick=21, channel=3, data=[7, 61]),
   midi.NoteOnEvent(tick=9, channel=3, data=[28, 0]),
   midi.NoteOnEvent(tick=0, channel=3, data=[35, 127]),
   midi.ControlChangeEvent(tick=49, channel=3, data=[7, 60]),
   midi.NoteOnEvent(tick=11, channel=3, data=[35, 0]),
   midi.NoteOnEvent(tick=0, channel=3, data=[28, 127]),
   midi.NoteOnEvent(tick=30, channel=3, data=[28, 0]),
   midi.NoteOnEvent(tick=0, channel=3, data=[28, 127]),
   midi.ControlChangeEvent(tick=17, channel=3, data=[7, 59]),
   midi.NoteOnEvent(tick=13, channel=3, data=[28, 0]),
   midi.NoteOnEvent(tick=0, channel=3, data=[28, 127]),
   midi.NoteOnEvent(tick=30, channel=3, data=[28, 0]),
   midi.NoteOnEvent(tick=0, channel=3, data=[28, 127]),
   midi.ControlChangeEvent(tick=15, channel=3, data=[7, 58]),
   midi.NoteOnEvent(tick=15, channel=3, data=[28, 0]),
   midi.NoteOnEvent(tick=0, channel=3, data=[33, 127]),
   midi.ControlChangeEvent(tick=43, channel=3, data=[7, 57]),
   midi.NoteOnEvent(tick=17, channel=3, data=[33, 0]),
   midi.NoteOnEvent(tick=0, channel=3, data=[28, 127]),
   midi.NoteOnEvent(tick=30, channel=3, data=[28, 0]),
   midi.NoteOnEvent(tick=0, channel=3, data=[28, 127]),
   midi.ControlChangeEvent(tick=11, channel=3, data=[7, 56]),
   midi.NoteOnEvent(tick=19, channel=3, data=[28, 0]),
   midi.NoteOnEvent(tick=0, channel=3, data=[28, 127]),
   midi.NoteOnEvent(tick=30, channel=3, data=[28, 0]),
   midi.NoteOnEvent(tick=0, channel=3, data=[28, 127]),
   midi.ControlChangeEvent(tick=10, channel=3, data=[7, 55]),
   midi.NoteOnEvent(tick=20, channel=3, data=[28, 0]),
   midi.NoteOnEvent(tick=0, channel=3, data=[28, 127]),
   midi.ControlChangeEvent(tick=38, channel=3, data=[7, 54]),
   midi.NoteOnEvent(tick=22, channel=3, data=[28, 0]),
   midi.NoteOnEvent(tick=0, channel=3, data=[28, 127]),
   midi.NoteOnEvent(tick=30, channel=3, data=[28, 0]),
   midi.NoteOnEvent(tick=0, channel=3, data=[28, 127]),
   midi.ControlChangeEvent(tick=6, channel=3, data=[7, 53]),
   midi.NoteOnEvent(tick=24, channel=3, data=[28, 0]),
   midi.NoteOnEvent(tick=0, channel=3, data=[29, 127]),
   midi.ControlChangeEvent(tick=34, channel=3, data=[7, 52]),
   midi.NoteOnEvent(tick=26, channel=3, data=[29, 0]),
   midi.NoteOnEvent(tick=0, channel=3, data=[29, 127]),
   midi.NoteOnEvent(tick=30, channel=3, data=[29, 0]),
   midi.NoteOnEvent(tick=0, channel=3, data=[29, 127]),
   midi.ControlChangeEvent(tick=2, channel=3, data=[7, 51]),
   midi.NoteOnEvent(tick=28, channel=3, data=[29, 0]),
   midi.NoteOnEvent(tick=0, channel=3, data=[28, 127]),
   midi.ControlChangeEvent(tick=30, channel=3, data=[7, 50]),
   midi.NoteOnEvent(tick=30, channel=3, data=[28, 0]),
   midi.NoteOnEvent(tick=0, channel=3, data=[28, 127]),
   midi.ControlChangeEvent(tick=29, channel=3, data=[7, 49]),
   midi.NoteOnEvent(tick=31, channel=3, data=[28, 0]),
   midi.NoteOnEvent(tick=0, channel=3, data=[28, 127]),
   midi.ControlChangeEvent(tick=27, channel=3, data=[7, 48]),
   midi.NoteOnEvent(tick=3, channel=3, data=[28, 0]),
   midi.NoteOnEvent(tick=0, channel=3, data=[28, 127]),
   midi.NoteOnEvent(tick=30, channel=3, data=[28, 0]),
   midi.NoteOnEvent(tick=0, channel=3, data=[33, 127]),
   midi.ControlChangeEvent(tick=25, channel=3, data=[7, 47]),
   midi.NoteOnEvent(tick=35, channel=3, data=[33, 0]),
   midi.NoteOnEvent(tick=0, channel=3, data=[28, 127]),
   midi.ControlChangeEvent(tick=23, channel=3, data=[7, 46]),
   midi.NoteOnEvent(tick=7, channel=3, data=[28, 0]),
   midi.NoteOnEvent(tick=0, channel=3, data=[28, 127]),
   midi.NoteOnEvent(tick=30, channel=3, data=[28, 0]),
   midi.NoteOnEvent(tick=0, channel=3, data=[28, 127]),
   midi.ControlChangeEvent(tick=21, channel=3, data=[7, 45]),
   midi.NoteOnEvent(tick=9, channel=3, data=[28, 0]),
   midi.NoteOnEvent(tick=0, channel=3, data=[28, 127]),
   midi.NoteOnEvent(tick=30, channel=3, data=[28, 0]),
   midi.NoteOnEvent(tick=0, channel=3, data=[35, 127]),
   midi.ControlChangeEvent(tick=19, channel=3, data=[7, 44]),
   midi.NoteOnEvent(tick=41, channel=3, data=[35, 0]),
   midi.NoteOnEvent(tick=0, channel=3, data=[28, 127]),
   midi.ControlChangeEvent(tick=18, channel=3, data=[7, 43]),
   midi.NoteOnEvent(tick=12, channel=3, data=[28, 0]),
   midi.NoteOnEvent(tick=0, channel=3, data=[28, 127]),
   midi.NoteOnEvent(tick=30, channel=3, data=[28, 0]),
   midi.NoteOnEvent(tick=0, channel=3, data=[28, 127]),
   midi.ControlChangeEvent(tick=16, channel=3, data=[7, 42]),
   midi.NoteOnEvent(tick=14, channel=3, data=[28, 0]),
   midi.NoteOnEvent(tick=0, channel=3, data=[28, 127]),
   midi.NoteOnEvent(tick=30, channel=3, data=[28, 0]),
   midi.NoteOnEvent(tick=0, channel=3, data=[36, 127]),
   midi.ControlChangeEvent(tick=14, channel=3, data=[7, 41]),
   midi.NoteOnEvent(tick=46, channel=3, data=[36, 0]),
   midi.NoteOnEvent(tick=0, channel=3, data=[28, 127]),
   midi.ControlChangeEvent(tick=12, channel=3, data=[7, 40]),
   midi.NoteOnEvent(tick=18, channel=3, data=[28, 0]),
   midi.NoteOnEvent(tick=0, channel=3, data=[28, 127]),
   midi.NoteOnEvent(tick=30, channel=3, data=[28, 0]),
   midi.NoteOnEvent(tick=0, channel=3, data=[28, 127]),
   midi.ControlChangeEvent(tick=10, channel=3, data=[7, 39]),
   midi.NoteOnEvent(tick=20, channel=3, data=[28, 0]),
   midi.NoteOnEvent(tick=0, channel=3, data=[28, 127]),
   midi.NoteOnEvent(tick=30, channel=3, data=[28, 0]),
   midi.NoteOnEvent(tick=0, channel=3, data=[28, 127]),
   midi.ControlChangeEvent(tick=8, channel=3, data=[7, 38]),
   midi.NoteOnEvent(tick=52, channel=3, data=[28, 0]),
   midi.NoteOnEvent(tick=0, channel=3, data=[28, 127]),
   midi.ControlChangeEvent(tick=7, channel=3, data=[7, 37]),
   midi.NoteOnEvent(tick=23, channel=3, data=[28, 0]),
   midi.NoteOnEvent(tick=0, channel=3, data=[28, 127]),
   midi.NoteOnEvent(tick=30, channel=3, data=[28, 0]),
   midi.NoteOnEvent(tick=0, channel=3, data=[29, 127]),
   midi.ControlChangeEvent(tick=5, channel=3, data=[7, 36]),
   midi.NoteOnEvent(tick=55, channel=3, data=[29, 0]),
   midi.NoteOnEvent(tick=0, channel=3, data=[29, 127]),
   midi.ControlChangeEvent(tick=3, channel=3, data=[7, 35]),
   midi.NoteOnEvent(tick=27, channel=3, data=[29, 0]),
   midi.NoteOnEvent(tick=0, channel=3, data=[29, 127]),
   midi.NoteOnEvent(tick=30, channel=3, data=[29, 0]),
   midi.NoteOnEvent(tick=0, channel=3, data=[28, 127]),
   midi.ControlChangeEvent(tick=1, channel=3, data=[7, 34]),
   midi.ControlChangeEvent(tick=58, channel=3, data=[7, 33]),
   midi.NoteOnEvent(tick=1, channel=3, data=[28, 0]),
   midi.NoteOnEvent(tick=0, channel=3, data=[28, 127]),
   midi.ControlChangeEvent(tick=58, channel=3, data=[7, 32]),
   midi.NoteOnEvent(tick=2, channel=3, data=[28, 0]),
   midi.NoteOnEvent(tick=0, channel=3, data=[28, 127]),
   midi.NoteOnEvent(tick=30, channel=3, data=[28, 0]),
   midi.NoteOnEvent(tick=0, channel=3, data=[28, 127]),
   midi.ControlChangeEvent(tick=26, channel=3, data=[7, 31]),
   midi.NoteOnEvent(tick=4, channel=3, data=[28, 0]),
   midi.NoteOnEvent(tick=0, channel=3, data=[36, 127]),
   midi.ControlChangeEvent(tick=54, channel=3, data=[7, 30]),
   midi.NoteOnEvent(tick=6, channel=3, data=[36, 0]),
   midi.NoteOnEvent(tick=0, channel=3, data=[28, 127]),
   midi.NoteOnEvent(tick=30, channel=3, data=[28, 0]),
   midi.NoteOnEvent(tick=0, channel=3, data=[28, 127]),
   midi.ControlChangeEvent(tick=22, channel=3, data=[7, 29]),
   midi.NoteOnEvent(tick=8, channel=3, data=[28, 0]),
   midi.NoteOnEvent(tick=0, channel=3, data=[28, 127]),
   midi.NoteOnEvent(tick=30, channel=3, data=[28, 0]),
   midi.NoteOnEvent(tick=0, channel=3, data=[28, 127]),
   midi.ControlChangeEvent(tick=20, channel=3, data=[7, 28]),
   midi.NoteOnEvent(tick=10, channel=3, data=[28, 0]),
   midi.NoteOnEvent(tick=0, channel=3, data=[35, 127]),
   midi.ControlChangeEvent(tick=48, channel=3, data=[7, 27]),
   midi.NoteOnEvent(tick=12, channel=3, data=[35, 0]),
   midi.NoteOnEvent(tick=0, channel=3, data=[28, 127]),
   midi.NoteOnEvent(tick=30, channel=3, data=[28, 0]),
   midi.NoteOnEvent(tick=0, channel=3, data=[28, 127]),
   midi.ControlChangeEvent(tick=17, channel=3, data=[7, 26]),
   midi.NoteOnEvent(tick=13, channel=3, data=[28, 0]),
   midi.NoteOnEvent(tick=0, channel=3, data=[28, 127]),
   midi.NoteOnEvent(tick=30, channel=3, data=[28, 0]),
   midi.NoteOnEvent(tick=0, channel=3, data=[28, 127]),
   midi.ControlChangeEvent(tick=15, channel=3, data=[7, 25]),
   midi.NoteOnEvent(tick=15, channel=3, data=[28, 0]),
   midi.NoteOnEvent(tick=0, channel=3, data=[33, 127]),
   midi.ControlChangeEvent(tick=43, channel=3, data=[7, 24]),
   midi.NoteOnEvent(tick=17, channel=3, data=[33, 0]),
   midi.NoteOnEvent(tick=0, channel=3, data=[28, 127]),
   midi.NoteOnEvent(tick=30, channel=3, data=[28, 0]),
   midi.NoteOnEvent(tick=0, channel=3, data=[28, 127]),
   midi.ControlChangeEvent(tick=11, channel=3, data=[7, 23]),
   midi.NoteOnEvent(tick=19, channel=3, data=[28, 0]),
   midi.NoteOnEvent(tick=0, channel=3, data=[28, 127]),
   midi.NoteOnEvent(tick=30, channel=3, data=[28, 0]),
   midi.NoteOnEvent(tick=0, channel=3, data=[28, 127]),
   midi.ControlChangeEvent(tick=9, channel=3, data=[7, 22]),
   midi.NoteOnEvent(tick=21, channel=3, data=[28, 0]),
   midi.NoteOnEvent(tick=0, channel=3, data=[28, 127]),
   midi.ControlChangeEvent(tick=37, channel=3, data=[7, 21]),
   midi.NoteOnEvent(tick=23, channel=3, data=[28, 0]),
   midi.NoteOnEvent(tick=0, channel=3, data=[28, 127]),
   midi.NoteOnEvent(tick=30, channel=3, data=[28, 0]),
   midi.NoteOnEvent(tick=0, channel=3, data=[28, 127]),
   midi.ControlChangeEvent(tick=6, channel=3, data=[7, 20]),
   midi.NoteOnEvent(tick=24, channel=3, data=[28, 0]),
   midi.NoteOnEvent(tick=0, channel=3, data=[29, 127]),
   midi.ControlChangeEvent(tick=34, channel=3, data=[7, 19]),
   midi.NoteOnEvent(tick=26, channel=3, data=[29, 0]),
   midi.NoteOnEvent(tick=0, channel=3, data=[29, 127]),
   midi.NoteOnEvent(tick=30, channel=3, data=[29, 0]),
   midi.NoteOnEvent(tick=0, channel=3, data=[29, 127]),
   midi.ControlChangeEvent(tick=2, channel=3, data=[7, 18]),
   midi.NoteOnEvent(tick=28, channel=3, data=[29, 0]),
   midi.NoteOnEvent(tick=0, channel=3, data=[28, 127]),
   midi.ControlChangeEvent(tick=30, channel=3, data=[7, 17]),
   midi.NoteOnEvent(tick=30, channel=3, data=[28, 0]),
   midi.NoteOnEvent(tick=0, channel=3, data=[28, 127]),
   midi.ControlChangeEvent(tick=28, channel=3, data=[7, 16]),
   midi.NoteOnEvent(tick=32, channel=3, data=[28, 0]),
   midi.NoteOnEvent(tick=0, channel=3, data=[28, 127]),
   midi.ControlChangeEvent(tick=26, channel=3, data=[7, 15]),
   midi.NoteOnEvent(tick=4, channel=3, data=[28, 0]),
   midi.NoteOnEvent(tick=0, channel=3, data=[28, 127]),
   midi.NoteOnEvent(tick=30, channel=3, data=[28, 0]),
   midi.NoteOnEvent(tick=0, channel=3, data=[33, 127]),
   midi.ControlChangeEvent(tick=25, channel=3, data=[7, 14]),
   midi.NoteOnEvent(tick=35, channel=3, data=[33, 0]),
   midi.NoteOnEvent(tick=0, channel=3, data=[28, 127]),
   midi.ControlChangeEvent(tick=23, channel=3, data=[7, 13]),
   midi.NoteOnEvent(tick=7, channel=3, data=[28, 0]),
   midi.NoteOnEvent(tick=0, channel=3, data=[28, 127]),
   midi.NoteOnEvent(tick=30, channel=3, data=[28, 0]),
   midi.NoteOnEvent(tick=0, channel=3, data=[28, 127]),
   midi.ControlChangeEvent(tick=21, channel=3, data=[7, 12]),
   midi.NoteOnEvent(tick=9, channel=3, data=[28, 0]),
   midi.NoteOnEvent(tick=0, channel=3, data=[28, 127]),
   midi.NoteOnEvent(tick=30, channel=3, data=[28, 0]),
   midi.NoteOnEvent(tick=0, channel=3, data=[35, 127]),
   midi.ControlChangeEvent(tick=19, channel=3, data=[7, 11]),
   midi.NoteOnEvent(tick=41, channel=3, data=[35, 0]),
   midi.NoteOnEvent(tick=0, channel=3, data=[28, 127]),
   midi.ControlChangeEvent(tick=17, channel=3, data=[7, 10]),
   midi.NoteOnEvent(tick=13, channel=3, data=[28, 0]),
   midi.NoteOnEvent(tick=0, channel=3, data=[28, 127]),
   midi.NoteOnEvent(tick=30, channel=3, data=[28, 0]),
   midi.NoteOnEvent(tick=0, channel=3, data=[28, 127]),
   midi.ControlChangeEvent(tick=15, channel=3, data=[7, 9]),
   midi.NoteOnEvent(tick=15, channel=3, data=[28, 0]),
   midi.NoteOnEvent(tick=0, channel=3, data=[28, 127]),
   midi.NoteOnEvent(tick=30, channel=3, data=[28, 0]),
   midi.NoteOnEvent(tick=0, channel=3, data=[36, 127]),
   midi.ControlChangeEvent(tick=14, channel=3, data=[7, 8]),
   midi.NoteOnEvent(tick=46, channel=3, data=[36, 0]),
   midi.NoteOnEvent(tick=0, channel=3, data=[28, 127]),
   midi.ControlChangeEvent(tick=12, channel=3, data=[7, 7]),
   midi.NoteOnEvent(tick=18, channel=3, data=[28, 0]),
   midi.NoteOnEvent(tick=0, channel=3, data=[28, 127]),
   midi.NoteOnEvent(tick=30, channel=3, data=[28, 0]),
   midi.NoteOnEvent(tick=0, channel=3, data=[28, 127]),
   midi.ControlChangeEvent(tick=10, channel=3, data=[7, 6]),
   midi.NoteOnEvent(tick=20, channel=3, data=[28, 0]),
   midi.NoteOnEvent(tick=0, channel=3, data=[28, 127]),
   midi.NoteOnEvent(tick=30, channel=3, data=[28, 0]),
   midi.NoteOnEvent(tick=0, channel=3, data=[28, 127]),
   midi.ControlChangeEvent(tick=8, channel=3, data=[7, 5]),
   midi.NoteOnEvent(tick=52, channel=3, data=[28, 0]),
   midi.NoteOnEvent(tick=0, channel=3, data=[28, 127]),
   midi.ControlChangeEvent(tick=6, channel=3, data=[7, 4]),
   midi.NoteOnEvent(tick=24, channel=3, data=[28, 0]),
   midi.NoteOnEvent(tick=0, channel=3, data=[28, 127]),
   midi.NoteOnEvent(tick=30, channel=3, data=[28, 0]),
   midi.NoteOnEvent(tick=0, channel=3, data=[29, 127]),
   midi.ControlChangeEvent(tick=4, channel=3, data=[7, 3]),
   midi.NoteOnEvent(tick=56, channel=3, data=[29, 0]),
   midi.NoteOnEvent(tick=0, channel=3, data=[29, 127]),
   midi.ControlChangeEvent(tick=3, channel=3, data=[7, 2]),
   midi.NoteOnEvent(tick=27, channel=3, data=[29, 0]),
   midi.NoteOnEvent(tick=0, channel=3, data=[29, 127]),
   midi.NoteOnEvent(tick=30, channel=3, data=[29, 0]),
   midi.NoteOnEvent(tick=0, channel=3, data=[28, 127]),
   midi.ControlChangeEvent(tick=1, channel=3, data=[7, 1]),
   midi.ControlChangeEvent(tick=58, channel=3, data=[7, 0]),
   midi.NoteOnEvent(tick=1, channel=3, data=[28, 0]),
   midi.EndOfTrackEvent(tick=0, data=[])]),
 midi.Track(\
  [midi.PortEvent(tick=0, data=[0]),
   midi.TrackNameEvent(tick=0, text='Drums', data=[68, 114, 117, 109, 115]),
   midi.ControlChangeEvent(tick=0, channel=9, data=[7, 30]),
   midi.ControlChangeEvent(tick=195, channel=9, data=[7, 31]),
   midi.ControlChangeEvent(tick=195, channel=9, data=[7, 32]),
   midi.ControlChangeEvent(tick=194, channel=9, data=[7, 33]),
   midi.ControlChangeEvent(tick=195, channel=9, data=[7, 34]),
   midi.ControlChangeEvent(tick=195, channel=9, data=[7, 35]),
   midi.ControlChangeEvent(tick=195, channel=9, data=[7, 36]),
   midi.ControlChangeEvent(tick=194, channel=9, data=[7, 37]),
   midi.ControlChangeEvent(tick=195, channel=9, data=[7, 38]),
   midi.ControlChangeEvent(tick=195, channel=9, data=[7, 39]),
   midi.ControlChangeEvent(tick=195, channel=9, data=[7, 40]),
   midi.ControlChangeEvent(tick=195, channel=9, data=[7, 41]),
   midi.ControlChangeEvent(tick=194, channel=9, data=[7, 42]),
   midi.ControlChangeEvent(tick=195, channel=9, data=[7, 43]),
   midi.ControlChangeEvent(tick=195, channel=9, data=[7, 44]),
   midi.ControlChangeEvent(tick=195, channel=9, data=[7, 45]),
   midi.ControlChangeEvent(tick=195, channel=9, data=[7, 46]),
   midi.ControlChangeEvent(tick=194, channel=9, data=[7, 47]),
   midi.ControlChangeEvent(tick=195, channel=9, data=[7, 48]),
   midi.ControlChangeEvent(tick=195, channel=9, data=[7, 49]),
   midi.ControlChangeEvent(tick=195, channel=9, data=[7, 50]),
   midi.ControlChangeEvent(tick=194, channel=9, data=[7, 51]),
   midi.ControlChangeEvent(tick=195, channel=9, data=[7, 52]),
   midi.ControlChangeEvent(tick=195, channel=9, data=[7, 53]),
   midi.ControlChangeEvent(tick=195, channel=9, data=[7, 54]),
   midi.ControlChangeEvent(tick=195, channel=9, data=[7, 55]),
   midi.ControlChangeEvent(tick=194, channel=9, data=[7, 56]),
   midi.ControlChangeEvent(tick=195, channel=9, data=[7, 57]),
   midi.ControlChangeEvent(tick=195, channel=9, data=[7, 58]),
   midi.ControlChangeEvent(tick=195, channel=9, data=[7, 59]),
   midi.ControlChangeEvent(tick=194, channel=9, data=[7, 60]),
   midi.ControlChangeEvent(tick=195, channel=9, data=[7, 61]),
   midi.ControlChangeEvent(tick=195, channel=9, data=[7, 62]),
   midi.ControlChangeEvent(tick=195, channel=9, data=[7, 63]),
   midi.ControlChangeEvent(tick=195, channel=9, data=[7, 64]),
   midi.ControlChangeEvent(tick=194, channel=9, data=[7, 65]),
   midi.ControlChangeEvent(tick=195, channel=9, data=[7, 66]),
   midi.ControlChangeEvent(tick=195, channel=9, data=[7, 67]),
   midi.ControlChangeEvent(tick=195, channel=9, data=[7, 68]),
   midi.ControlChangeEvent(tick=195, channel=9, data=[7, 69]),
   midi.NoteOnEvent(tick=83, channel=9, data=[36, 127]),
   midi.NoteOnEvent(tick=0, channel=9, data=[42, 127]),
   midi.NoteOnEvent(tick=60, channel=9, data=[42, 0]),
   midi.NoteOnEvent(tick=0, channel=9, data=[42, 127]),
   midi.ControlChangeEvent(tick=51, channel=9, data=[7, 70]),
   midi.NoteOnEvent(tick=9, channel=9, data=[36, 0]),
   midi.NoteOnEvent(tick=0, channel=9, data=[42, 0]),
   midi.NoteOnEvent(tick=0, channel=9, data=[38, 127]),
   midi.NoteOnEvent(tick=0, channel=9, data=[42, 127]),
   midi.NoteOnEvent(tick=60, channel=9, data=[38, 0]),
   midi.NoteOnEvent(tick=0, channel=9, data=[42, 0]),
   midi.NoteOnEvent(tick=0, channel=9, data=[42, 127]),
   midi.NoteOnEvent(tick=60, channel=9, data=[42, 0]),
   midi.NoteOnEvent(tick=0, channel=9, data=[36, 127]),
   midi.NoteOnEvent(tick=0, channel=9, data=[42, 127]),
   midi.NoteOnEvent(tick=60, channel=9, data=[42, 0]),
   midi.NoteOnEvent(tick=0, channel=9, data=[42, 127]),
   midi.ControlChangeEvent(tick=6, channel=9, data=[7, 71]),
   midi.NoteOnEvent(tick=54, channel=9, data=[36, 0]),
   midi.NoteOnEvent(tick=0, channel=9, data=[42, 0]),
   midi.NoteOnEvent(tick=0, channel=9, data=[38, 127]),
   midi.NoteOnEvent(tick=0, channel=9, data=[42, 127]),
   midi.NoteOnEvent(tick=60, channel=9, data=[38, 0]),
   midi.NoteOnEvent(tick=0, channel=9, data=[42, 0]),
   midi.NoteOnEvent(tick=0, channel=9, data=[42, 127]),
   midi.NoteOnEvent(tick=60, channel=9, data=[42, 0]),
   midi.NoteOnEvent(tick=0, channel=9, data=[36, 127]),
   midi.NoteOnEvent(tick=0, channel=9, data=[42, 127]),
   midi.ControlChangeEvent(tick=21, channel=9, data=[7, 72]),
   midi.NoteOnEvent(tick=39, channel=9, data=[42, 0]),
   midi.NoteOnEvent(tick=0, channel=9, data=[42, 127]),
   midi.NoteOnEvent(tick=60, channel=9, data=[36, 0]),
   midi.NoteOnEvent(tick=0, channel=9, data=[42, 0]),
   midi.NoteOnEvent(tick=0, channel=9, data=[38, 127]),
   midi.NoteOnEvent(tick=0, channel=9, data=[42, 127]),
   midi.NoteOnEvent(tick=60, channel=9, data=[38, 0]),
   midi.NoteOnEvent(tick=0, channel=9, data=[42, 0]),
   midi.NoteOnEvent(tick=0, channel=9, data=[42, 127]),
   midi.ControlChangeEvent(tick=36, channel=9, data=[7, 73]),
   midi.NoteOnEvent(tick=24, channel=9, data=[42, 0]),
   midi.NoteOnEvent(tick=0, channel=9, data=[36, 127]),
   midi.NoteOnEvent(tick=0, channel=9, data=[42, 127]),
   midi.NoteOnEvent(tick=60, channel=9, data=[42, 0]),
   midi.NoteOnEvent(tick=0, channel=9, data=[42, 127]),
   midi.NoteOnEvent(tick=60, channel=9, data=[36, 0]),
   midi.NoteOnEvent(tick=0, channel=9, data=[42, 0]),
   midi.NoteOnEvent(tick=0, channel=9, data=[38, 127]),
   midi.NoteOnEvent(tick=0, channel=9, data=[42, 127]),
   midi.ControlChangeEvent(tick=50, channel=9, data=[7, 74]),
   midi.NoteOnEvent(tick=10, channel=9, data=[38, 0]),
   midi.NoteOnEvent(tick=0, channel=9, data=[42, 0]),
   midi.NoteOnEvent(tick=0, channel=9, data=[36, 127]),
   midi.NoteOnEvent(tick=0, channel=9, data=[42, 127]),
   midi.NoteOnEvent(tick=60, channel=9, data=[36, 0]),
   midi.NoteOnEvent(tick=0, channel=9, data=[42, 0]),
   midi.NoteOnEvent(tick=0, channel=9, data=[36, 127]),
   midi.NoteOnEvent(tick=0, channel=9, data=[42, 127]),
   midi.NoteOnEvent(tick=60, channel=9, data=[42, 0]),
   midi.NoteOnEvent(tick=0, channel=9, data=[42, 127]),
   midi.NoteOnEvent(tick=60, channel=9, data=[36, 0]),
   midi.NoteOnEvent(tick=0, channel=9, data=[42, 0]),
   midi.NoteOnEvent(tick=0, channel=9, data=[38, 127]),
   midi.NoteOnEvent(tick=0, channel=9, data=[42, 127]),
   midi.ControlChangeEvent(tick=5, channel=9, data=[7, 75]),
   midi.NoteOnEvent(tick=55, channel=9, data=[38, 0]),
   midi.NoteOnEvent(tick=0, channel=9, data=[42, 0]),
   midi.NoteOnEvent(tick=0, channel=9, data=[42, 127]),
   midi.NoteOnEvent(tick=60, channel=9, data=[42, 0]),
   midi.NoteOnEvent(tick=0, channel=9, data=[36, 127]),
   midi.NoteOnEvent(tick=0, channel=9, data=[42, 127]),
   midi.NoteOnEvent(tick=60, channel=9, data=[42, 0]),
   midi.NoteOnEvent(tick=0, channel=9, data=[42, 127]),
   midi.ControlChangeEvent(tick=20, channel=9, data=[7, 76]),
   midi.NoteOnEvent(tick=40, channel=9, data=[36, 0]),
   midi.NoteOnEvent(tick=0, channel=9, data=[42, 0]),
   midi.NoteOnEvent(tick=0, channel=9, data=[38, 127]),
   midi.NoteOnEvent(tick=0, channel=9, data=[42, 127]),
   midi.NoteOnEvent(tick=60, channel=9, data=[38, 0]),
   midi.NoteOnEvent(tick=0, channel=9, data=[42, 0]),
   midi.NoteOnEvent(tick=0, channel=9, data=[42, 127]),
   midi.NoteOnEvent(tick=60, channel=9, data=[42, 0]),
   midi.NoteOnEvent(tick=0, channel=9, data=[36, 127]),
   midi.NoteOnEvent(tick=0, channel=9, data=[42, 127]),
   midi.ControlChangeEvent(tick=35, channel=9, data=[7, 77]),
   midi.NoteOnEvent(tick=25, channel=9, data=[42, 0]),
   midi.NoteOnEvent(tick=0, channel=9, data=[42, 127]),
   midi.NoteOnEvent(tick=60, channel=9, data=[36, 0]),
   midi.NoteOnEvent(tick=0, channel=9, data=[42, 0]),
   midi.NoteOnEvent(tick=0, channel=9, data=[38, 127]),
   midi.NoteOnEvent(tick=0, channel=9, data=[42, 127]),
   midi.NoteOnEvent(tick=60, channel=9, data=[38, 0]),
   midi.NoteOnEvent(tick=0, channel=9, data=[42, 0]),
   midi.NoteOnEvent(tick=0, channel=9, data=[42, 127]),
   midi.ControlChangeEvent(tick=50, channel=9, data=[7, 78]),
   midi.NoteOnEvent(tick=10, channel=9, data=[42, 0]),
   midi.NoteOnEvent(tick=0, channel=9, data=[36, 127]),
   midi.NoteOnEvent(tick=0, channel=9, data=[42, 127]),
   midi.NoteOnEvent(tick=60, channel=9, data=[42, 0]),
   midi.NoteOnEvent(tick=0, channel=9, data=[42, 127]),
   midi.NoteOnEvent(tick=60, channel=9, data=[36, 0]),
   midi.NoteOnEvent(tick=0, channel=9, data=[42, 0]),
   midi.NoteOnEvent(tick=0, channel=9, data=[38, 127]),
   midi.NoteOnEvent(tick=0, channel=9, data=[42, 127]),
   midi.NoteOnEvent(tick=60, channel=9, data=[38, 0]),
   midi.NoteOnEvent(tick=0, channel=9, data=[42, 0]),
   midi.NoteOnEvent(tick=0, channel=9, data=[36, 127]),
   midi.NoteOnEvent(tick=0, channel=9, data=[42, 127]),
   midi.ControlChangeEvent(tick=4, channel=9, data=[7, 79]),
   midi.NoteOnEvent(tick=56, channel=9, data=[36, 0]),
   midi.NoteOnEvent(tick=0, channel=9, data=[42, 0]),
   midi.NoteOnEvent(tick=0, channel=9, data=[36, 127]),
   midi.NoteOnEvent(tick=0, channel=9, data=[42, 127]),
   midi.NoteOnEvent(tick=60, channel=9, data=[42, 0]),
   midi.NoteOnEvent(tick=0, channel=9, data=[42, 127]),
   midi.NoteOnEvent(tick=60, channel=9, data=[36, 0]),
   midi.NoteOnEvent(tick=0, channel=9, data=[42, 0]),
   midi.NoteOnEvent(tick=0, channel=9, data=[38, 127]),
   midi.NoteOnEvent(tick=0, channel=9, data=[42, 127]),
   midi.ControlChangeEvent(tick=19, channel=9, data=[7, 80]),
   midi.NoteOnEvent(tick=41, channel=9, data=[38, 0]),
   midi.NoteOnEvent(tick=0, channel=9, data=[42, 0]),
   midi.NoteOnEvent(tick=0, channel=9, data=[42, 127]),
   midi.NoteOnEvent(tick=60, channel=9, data=[42, 0]),
   midi.NoteOnEvent(tick=0, channel=9, data=[36, 127]),
   midi.NoteOnEvent(tick=0, channel=9, data=[42, 127]),
   midi.NoteOnEvent(tick=60, channel=9, data=[42, 0]),
   midi.NoteOnEvent(tick=0, channel=9, data=[42, 127]),
   midi.ControlChangeEvent(tick=34, channel=9, data=[7, 81]),
   midi.NoteOnEvent(tick=26, channel=9, data=[36, 0]),
   midi.NoteOnEvent(tick=0, channel=9, data=[42, 0]),
   midi.NoteOnEvent(tick=0, channel=9, data=[38, 127]),
   midi.NoteOnEvent(tick=0, channel=9, data=[42, 127]),
   midi.NoteOnEvent(tick=60, channel=9, data=[38, 0]),
   midi.NoteOnEvent(tick=0, channel=9, data=[42, 0]),
   midi.NoteOnEvent(tick=0, channel=9, data=[42, 127]),
   midi.NoteOnEvent(tick=60, channel=9, data=[42, 0]),
   midi.NoteOnEvent(tick=0, channel=9, data=[36, 127]),
   midi.NoteOnEvent(tick=0, channel=9, data=[42, 127]),
   midi.ControlChangeEvent(tick=49, channel=9, data=[7, 82]),
   midi.NoteOnEvent(tick=11, channel=9, data=[42, 0]),
   midi.NoteOnEvent(tick=0, channel=9, data=[42, 127]),
   midi.NoteOnEvent(tick=60, channel=9, data=[36, 0]),
   midi.NoteOnEvent(tick=0, channel=9, data=[42, 0]),
   midi.NoteOnEvent(tick=0, channel=9, data=[38, 127]),
   midi.NoteOnEvent(tick=0, channel=9, data=[42, 127]),
   midi.NoteOnEvent(tick=60, channel=9, data=[38, 0]),
   midi.NoteOnEvent(tick=0, channel=9, data=[42, 0]),
   midi.NoteOnEvent(tick=0, channel=9, data=[42, 127]),
   midi.NoteOnEvent(tick=60, channel=9, data=[42, 0]),
   midi.NoteOnEvent(tick=0, channel=9, data=[36, 127]),
   midi.NoteOnEvent(tick=0, channel=9, data=[42, 127]),
   midi.ControlChangeEvent(tick=3, channel=9, data=[7, 83]),
   midi.NoteOnEvent(tick=57, channel=9, data=[42, 0]),
   midi.NoteOnEvent(tick=0, channel=9, data=[42, 127]),
   midi.NoteOnEvent(tick=60, channel=9, data=[36, 0]),
   midi.NoteOnEvent(tick=0, channel=9, data=[42, 0]),
   midi.NoteOnEvent(tick=0, channel=9, data=[38, 127]),
   midi.NoteOnEvent(tick=0, channel=9, data=[42, 127]),
   midi.NoteOnEvent(tick=60, channel=9, data=[38, 0]),
   midi.NoteOnEvent(tick=0, channel=9, data=[42, 0]),
   midi.NoteOnEvent(tick=0, channel=9, data=[36, 127]),
   midi.NoteOnEvent(tick=0, channel=9, data=[42, 127]),
   midi.ControlChangeEvent(tick=18, channel=9, data=[7, 84]),
   midi.NoteOnEvent(tick=42, channel=9, data=[36, 0]),
   midi.NoteOnEvent(tick=0, channel=9, data=[42, 0]),
   midi.NoteOnEvent(tick=0, channel=9, data=[36, 127]),
   midi.NoteOnEvent(tick=0, channel=9, data=[42, 127]),
   midi.NoteOnEvent(tick=60, channel=9, data=[42, 0]),
   midi.NoteOnEvent(tick=0, channel=9, data=[42, 127]),
   midi.NoteOnEvent(tick=60, channel=9, data=[36, 0]),
   midi.NoteOnEvent(tick=0, channel=9, data=[42, 0]),
   midi.NoteOnEvent(tick=0, channel=9, data=[38, 127]),
   midi.NoteOnEvent(tick=0, channel=9, data=[42, 127]),
   midi.ControlChangeEvent(tick=33, channel=9, data=[7, 85]),
   midi.NoteOnEvent(tick=27, channel=9, data=[38, 0]),
   midi.NoteOnEvent(tick=0, channel=9, data=[42, 0]),
   midi.NoteOnEvent(tick=0, channel=9, data=[42, 127]),
   midi.NoteOnEvent(tick=60, channel=9, data=[42, 0]),
   midi.NoteOnEvent(tick=0, channel=9, data=[36, 127]),
   midi.NoteOnEvent(tick=0, channel=9, data=[42, 127]),
   midi.NoteOnEvent(tick=60, channel=9, data=[42, 0]),
   midi.NoteOnEvent(tick=0, channel=9, data=[42, 127]),
   midi.ControlChangeEvent(tick=48, channel=9, data=[7, 86]),
   midi.NoteOnEvent(tick=12, channel=9, data=[36, 0]),
   midi.NoteOnEvent(tick=0, channel=9, data=[42, 0]),
   midi.NoteOnEvent(tick=0, channel=9, data=[38, 127]),
   midi.NoteOnEvent(tick=0, channel=9, data=[42, 127]),
   midi.NoteOnEvent(tick=60, channel=9, data=[38, 0]),
   midi.NoteOnEvent(tick=0, channel=9, data=[42, 0]),
   midi.NoteOnEvent(tick=0, channel=9, data=[42, 127]),
   midi.NoteOnEvent(tick=60, channel=9, data=[42, 0]),
   midi.NoteOnEvent(tick=0, channel=9, data=[36, 127]),
   midi.NoteOnEvent(tick=0, channel=9, data=[42, 127]),
   midi.NoteOnEvent(tick=60, channel=9, data=[42, 0]),
   midi.NoteOnEvent(tick=0, channel=9, data=[42, 127]),
   midi.ControlChangeEvent(tick=3, channel=9, data=[7, 87]),
   midi.NoteOnEvent(tick=57, channel=9, data=[36, 0]),
   midi.NoteOnEvent(tick=0, channel=9, data=[42, 0]),
   midi.NoteOnEvent(tick=0, channel=9, data=[38, 127]),
   midi.NoteOnEvent(tick=0, channel=9, data=[42, 127]),
   midi.NoteOnEvent(tick=60, channel=9, data=[38, 0]),
   midi.NoteOnEvent(tick=0, channel=9, data=[42, 0]),
   midi.NoteOnEvent(tick=0, channel=9, data=[42, 127]),
   midi.NoteOnEvent(tick=60, channel=9, data=[42, 0]),
   midi.NoteOnEvent(tick=0, channel=9, data=[36, 127]),
   midi.NoteOnEvent(tick=0, channel=9, data=[42, 127]),
   midi.ControlChangeEvent(tick=17, channel=9, data=[7, 88]),
   midi.NoteOnEvent(tick=43, channel=9, data=[42, 0]),
   midi.NoteOnEvent(tick=0, channel=9, data=[42, 127]),
   midi.NoteOnEvent(tick=60, channel=9, data=[36, 0]),
   midi.NoteOnEvent(tick=0, channel=9, data=[42, 0]),
   midi.NoteOnEvent(tick=0, channel=9, data=[38, 127]),
   midi.NoteOnEvent(tick=0, channel=9, data=[42, 127]),
   midi.NoteOnEvent(tick=60, channel=9, data=[38, 0]),
   midi.NoteOnEvent(tick=0, channel=9, data=[42, 0]),
   midi.NoteOnEvent(tick=0, channel=9, data=[36, 127]),
   midi.NoteOnEvent(tick=0, channel=9, data=[42, 127]),
   midi.ControlChangeEvent(tick=32, channel=9, data=[7, 89]),
   midi.NoteOnEvent(tick=28, channel=9, data=[36, 0]),
   midi.NoteOnEvent(tick=0, channel=9, data=[42, 0]),
   midi.NoteOnEvent(tick=0, channel=9, data=[36, 127]),
   midi.NoteOnEvent(tick=0, channel=9, data=[42, 127]),
   midi.NoteOnEvent(tick=60, channel=9, data=[42, 0]),
   midi.NoteOnEvent(tick=0, channel=9, data=[42, 127]),
   midi.NoteOnEvent(tick=60, channel=9, data=[36, 0]),
   midi.NoteOnEvent(tick=0, channel=9, data=[42, 0]),
   midi.NoteOnEvent(tick=0, channel=9, data=[38, 127]),
   midi.NoteOnEvent(tick=0, channel=9, data=[42, 127]),
   midi.ControlChangeEvent(tick=47, channel=9, data=[7, 90]),
   midi.NoteOnEvent(tick=13, channel=9, data=[38, 0]),
   midi.NoteOnEvent(tick=0, channel=9, data=[42, 0]),
   midi.NoteOnEvent(tick=0, channel=9, data=[42, 127]),
   midi.NoteOnEvent(tick=60, channel=9, data=[42, 0]),
   midi.NoteOnEvent(tick=0, channel=9, data=[36, 127]),
   midi.NoteOnEvent(tick=0, channel=9, data=[42, 127]),
   midi.NoteOnEvent(tick=60, channel=9, data=[42, 0]),
   midi.NoteOnEvent(tick=0, channel=9, data=[42, 127]),
   midi.NoteOnEvent(tick=60, channel=9, data=[36, 0]),
   midi.NoteOnEvent(tick=0, channel=9, data=[42, 0]),
   midi.NoteOnEvent(tick=0, channel=9, data=[38, 127]),
   midi.NoteOnEvent(tick=0, channel=9, data=[42, 127]),
   midi.ControlChangeEvent(tick=2, channel=9, data=[7, 91]),
   midi.NoteOnEvent(tick=58, channel=9, data=[38, 0]),
   midi.NoteOnEvent(tick=0, channel=9, data=[42, 0]),
   midi.NoteOnEvent(tick=0, channel=9, data=[42, 127]),
   midi.NoteOnEvent(tick=60, channel=9, data=[42, 0]),
   midi.NoteOnEvent(tick=0, channel=9, data=[36, 127]),
   midi.NoteOnEvent(tick=0, channel=9, data=[42, 127]),
   midi.NoteOnEvent(tick=60, channel=9, data=[42, 0]),
   midi.NoteOnEvent(tick=0, channel=9, data=[42, 127]),
   midi.ControlChangeEvent(tick=17, channel=9, data=[7, 92]),
   midi.NoteOnEvent(tick=43, channel=9, data=[36, 0]),
   midi.NoteOnEvent(tick=0, channel=9, data=[42, 0]),
   midi.NoteOnEvent(tick=0, channel=9, data=[38, 127]),
   midi.NoteOnEvent(tick=0, channel=9, data=[42, 127]),
   midi.NoteOnEvent(tick=60, channel=9, data=[38, 0]),
   midi.NoteOnEvent(tick=0, channel=9, data=[42, 0]),
   midi.NoteOnEvent(tick=0, channel=9, data=[42, 127]),
   midi.NoteOnEvent(tick=60, channel=9, data=[42, 0]),
   midi.NoteOnEvent(tick=0, channel=9, data=[36, 127]),
   midi.NoteOnEvent(tick=0, channel=9, data=[42, 127]),
   midi.ControlChangeEvent(tick=31, channel=9, data=[7, 93]),
   midi.NoteOnEvent(tick=29, channel=9, data=[42, 0]),
   midi.NoteOnEvent(tick=0, channel=9, data=[42, 127]),
   midi.NoteOnEvent(tick=60, channel=9, data=[36, 0]),
   midi.NoteOnEvent(tick=0, channel=9, data=[42, 0]),
   midi.NoteOnEvent(tick=0, channel=9, data=[38, 127]),
   midi.NoteOnEvent(tick=0, channel=9, data=[42, 127]),
   midi.NoteOnEvent(tick=60, channel=9, data=[38, 0]),
   midi.NoteOnEvent(tick=0, channel=9, data=[42, 0]),
   midi.NoteOnEvent(tick=0, channel=9, data=[36, 127]),
   midi.NoteOnEvent(tick=0, channel=9, data=[42, 127]),
   midi.ControlChangeEvent(tick=46, channel=9, data=[7, 94]),
   midi.NoteOnEvent(tick=14, channel=9, data=[36, 0]),
   midi.NoteOnEvent(tick=0, channel=9, data=[42, 0]),
   midi.NoteOnEvent(tick=0, channel=9, data=[36, 127]),
   midi.NoteOnEvent(tick=0, channel=9, data=[42, 127]),
   midi.NoteOnEvent(tick=60, channel=9, data=[42, 0]),
   midi.NoteOnEvent(tick=0, channel=9, data=[42, 127]),
   midi.NoteOnEvent(tick=60, channel=9, data=[36, 0]),
   midi.NoteOnEvent(tick=0, channel=9, data=[42, 0]),
   midi.NoteOnEvent(tick=0, channel=9, data=[38, 127]),
   midi.NoteOnEvent(tick=0, channel=9, data=[42, 127]),
   midi.NoteOnEvent(tick=60, channel=9, data=[38, 0]),
   midi.NoteOnEvent(tick=0, channel=9, data=[42, 0]),
   midi.NoteOnEvent(tick=0, channel=9, data=[42, 127]),
   midi.ControlChangeEvent(tick=1, channel=9, data=[7, 95]),
   midi.NoteOnEvent(tick=59, channel=9, data=[42, 0]),
   midi.NoteOnEvent(tick=0, channel=9, data=[36, 127]),
   midi.NoteOnEvent(tick=0, channel=9, data=[42, 127]),
   midi.NoteOnEvent(tick=60, channel=9, data=[42, 0]),
   midi.NoteOnEvent(tick=0, channel=9, data=[42, 127]),
   midi.NoteOnEvent(tick=60, channel=9, data=[36, 0]),
   midi.NoteOnEvent(tick=0, channel=9, data=[42, 0]),
   midi.NoteOnEvent(tick=0, channel=9, data=[38, 127]),
   midi.NoteOnEvent(tick=0, channel=9, data=[42, 127]),
   midi.ControlChangeEvent(tick=16, channel=9, data=[7, 96]),
   midi.NoteOnEvent(tick=44, channel=9, data=[38, 0]),
   midi.NoteOnEvent(tick=0, channel=9, data=[42, 0]),
   midi.NoteOnEvent(tick=0, channel=9, data=[42, 127]),
   midi.NoteOnEvent(tick=60, channel=9, data=[42, 0]),
   midi.NoteOnEvent(tick=0, channel=9, data=[36, 127]),
   midi.NoteOnEvent(tick=0, channel=9, data=[42, 127]),
   midi.NoteOnEvent(tick=60, channel=9, data=[42, 0]),
   midi.NoteOnEvent(tick=0, channel=9, data=[42, 127]),
   midi.ControlChangeEvent(tick=30, channel=9, data=[7, 97]),
   midi.NoteOnEvent(tick=30, channel=9, data=[36, 0]),
   midi.NoteOnEvent(tick=0, channel=9, data=[42, 0]),
   midi.NoteOnEvent(tick=0, channel=9, data=[38, 127]),
   midi.NoteOnEvent(tick=0, channel=9, data=[42, 127]),
   midi.NoteOnEvent(tick=60, channel=9, data=[38, 0]),
   midi.NoteOnEvent(tick=0, channel=9, data=[42, 0]),
   midi.NoteOnEvent(tick=0, channel=9, data=[42, 127]),
   midi.NoteOnEvent(tick=60, channel=9, data=[42, 0]),
   midi.NoteOnEvent(tick=0, channel=9, data=[36, 127]),
   midi.NoteOnEvent(tick=0, channel=9, data=[42, 127]),
   midi.ControlChangeEvent(tick=45, channel=9, data=[7, 98]),
   midi.NoteOnEvent(tick=15, channel=9, data=[42, 0]),
   midi.NoteOnEvent(tick=0, channel=9, data=[42, 127]),
   midi.NoteOnEvent(tick=60, channel=9, data=[36, 0]),
   midi.NoteOnEvent(tick=0, channel=9, data=[42, 0]),
   midi.NoteOnEvent(tick=0, channel=9, data=[38, 127]),
   midi.NoteOnEvent(tick=0, channel=9, data=[42, 127]),
   midi.NoteOnEvent(tick=60, channel=9, data=[38, 0]),
   midi.NoteOnEvent(tick=0, channel=9, data=[42, 0]),
   midi.NoteOnEvent(tick=0, channel=9, data=[36, 127]),
   midi.NoteOnEvent(tick=0, channel=9, data=[42, 127]),
   midi.NoteOnEvent(tick=60, channel=9, data=[36, 0]),
   midi.NoteOnEvent(tick=0, channel=9, data=[42, 0]),
   midi.ControlChangeEvent(tick=0, channel=9, data=[7, 99]),
   midi.NoteOnEvent(tick=0, channel=9, data=[36, 127]),
   midi.NoteOnEvent(tick=0, channel=9, data=[42, 127]),
   midi.NoteOnEvent(tick=60, channel=9, data=[42, 0]),
   midi.NoteOnEvent(tick=0, channel=9, data=[42, 127]),
   midi.NoteOnEvent(tick=60, channel=9, data=[36, 0]),
   midi.NoteOnEvent(tick=0, channel=9, data=[42, 0]),
   midi.NoteOnEvent(tick=0, channel=9, data=[38, 127]),
   midi.NoteOnEvent(tick=0, channel=9, data=[42, 127]),
   midi.NoteOnEvent(tick=60, channel=9, data=[38, 0]),
   midi.NoteOnEvent(tick=0, channel=9, data=[42, 0]),
   midi.NoteOnEvent(tick=0, channel=9, data=[42, 127]),
   midi.NoteOnEvent(tick=60, channel=9, data=[42, 0]),
   midi.NoteOnEvent(tick=0, channel=9, data=[36, 127]),
   midi.NoteOnEvent(tick=0, channel=9, data=[42, 127]),
   midi.NoteOnEvent(tick=60, channel=9, data=[42, 0]),
   midi.NoteOnEvent(tick=0, channel=9, data=[42, 127]),
   midi.NoteOnEvent(tick=60, channel=9, data=[36, 0]),
   midi.NoteOnEvent(tick=0, channel=9, data=[42, 0]),
   midi.NoteOnEvent(tick=0, channel=9, data=[38, 127]),
   midi.NoteOnEvent(tick=0, channel=9, data=[42, 127]),
   midi.NoteOnEvent(tick=60, channel=9, data=[38, 0]),
   midi.NoteOnEvent(tick=0, channel=9, data=[42, 0]),
   midi.NoteOnEvent(tick=0, channel=9, data=[42, 127]),
   midi.NoteOnEvent(tick=60, channel=9, data=[42, 0]),
   midi.NoteOnEvent(tick=0, channel=9, data=[36, 127]),
   midi.NoteOnEvent(tick=0, channel=9, data=[42, 127]),
   midi.NoteOnEvent(tick=60, channel=9, data=[42, 0]),
   midi.NoteOnEvent(tick=0, channel=9, data=[42, 127]),
   midi.NoteOnEvent(tick=60, channel=9, data=[36, 0]),
   midi.NoteOnEvent(tick=0, channel=9, data=[42, 0]),
   midi.NoteOnEvent(tick=0, channel=9, data=[38, 127]),
   midi.NoteOnEvent(tick=0, channel=9, data=[42, 127]),
   midi.NoteOnEvent(tick=60, channel=9, data=[38, 0]),
   midi.NoteOnEvent(tick=0, channel=9, data=[42, 0]),
   midi.NoteOnEvent(tick=0, channel=9, data=[42, 127]),
   midi.NoteOnEvent(tick=60, channel=9, data=[42, 0]),
   midi.NoteOnEvent(tick=0, channel=9, data=[36, 127]),
   midi.NoteOnEvent(tick=0, channel=9, data=[42, 127]),
   midi.NoteOnEvent(tick=60, channel=9, data=[42, 0]),
   midi.NoteOnEvent(tick=0, channel=9, data=[42, 127]),
   midi.NoteOnEvent(tick=60, channel=9, data=[36, 0]),
   midi.NoteOnEvent(tick=0, channel=9, data=[42, 0]),
   midi.NoteOnEvent(tick=0, channel=9, data=[38, 127]),
   midi.NoteOnEvent(tick=0, channel=9, data=[42, 127]),
   midi.NoteOnEvent(tick=60, channel=9, data=[38, 0]),
   midi.NoteOnEvent(tick=0, channel=9, data=[42, 0]),
   midi.NoteOnEvent(tick=0, channel=9, data=[36, 127]),
   midi.NoteOnEvent(tick=0, channel=9, data=[42, 127]),
   midi.NoteOnEvent(tick=60, channel=9, data=[36, 0]),
   midi.NoteOnEvent(tick=0, channel=9, data=[42, 0]),
   midi.NoteOnEvent(tick=0, channel=9, data=[36, 127]),
   midi.NoteOnEvent(tick=0, channel=9, data=[42, 127]),
   midi.NoteOnEvent(tick=60, channel=9, data=[42, 0]),
   midi.NoteOnEvent(tick=0, channel=9, data=[42, 127]),
   midi.NoteOnEvent(tick=60, channel=9, data=[36, 0]),
   midi.NoteOnEvent(tick=0, channel=9, data=[42, 0]),
   midi.NoteOnEvent(tick=0, channel=9, data=[38, 127]),
   midi.NoteOnEvent(tick=0, channel=9, data=[42, 127]),
   midi.NoteOnEvent(tick=60, channel=9, data=[38, 0]),
   midi.NoteOnEvent(tick=0, channel=9, data=[42, 0]),
   midi.NoteOnEvent(tick=0, channel=9, data=[42, 127]),
   midi.NoteOnEvent(tick=60, channel=9, data=[42, 0]),
   midi.NoteOnEvent(tick=0, channel=9, data=[36, 127]),
   midi.NoteOnEvent(tick=0, channel=9, data=[42, 127]),
   midi.NoteOnEvent(tick=60, channel=9, data=[42, 0]),
   midi.NoteOnEvent(tick=0, channel=9, data=[42, 127]),
   midi.NoteOnEvent(tick=60, channel=9, data=[36, 0]),
   midi.NoteOnEvent(tick=0, channel=9, data=[42, 0]),
   midi.NoteOnEvent(tick=0, channel=9, data=[38, 127]),
   midi.NoteOnEvent(tick=0, channel=9, data=[42, 127]),
   midi.NoteOnEvent(tick=60, channel=9, data=[38, 0]),
   midi.NoteOnEvent(tick=0, channel=9, data=[42, 0]),
   midi.NoteOnEvent(tick=0, channel=9, data=[42, 127]),
   midi.NoteOnEvent(tick=60, channel=9, data=[42, 0]),
   midi.NoteOnEvent(tick=0, channel=9, data=[38, 127]),
   midi.NoteOnEvent(tick=0, channel=9, data=[57, 127]),
   midi.NoteOnEvent(tick=60, channel=9, data=[36, 127]),
   midi.NoteOnEvent(tick=60, channel=9, data=[38, 0]),
   midi.NoteOnEvent(tick=0, channel=9, data=[57, 0]),
   midi.NoteOnEvent(tick=0, channel=9, data=[36, 0]),
   midi.NoteOnEvent(tick=0, channel=9, data=[36, 127]),
   midi.NoteOnEvent(tick=60, channel=9, data=[36, 0]),
   midi.NoteOnEvent(tick=0, channel=9, data=[36, 127]),
   midi.NoteOnEvent(tick=55, channel=9, data=[38, 75]),
   midi.NoteOnEvent(tick=5, channel=9, data=[36, 0]),
   midi.NoteOnEvent(tick=0, channel=9, data=[38, 0]),
   midi.NoteOnEvent(tick=0, channel=9, data=[38, 127]),
   midi.NoteOnEvent(tick=60, channel=9, data=[36, 127]),
   midi.NoteOnEvent(tick=55, channel=9, data=[38, 75]),
   midi.NoteOnEvent(tick=5, channel=9, data=[38, 0]),
   midi.NoteOnEvent(tick=0, channel=9, data=[36, 0]),
   midi.NoteOnEvent(tick=0, channel=9, data=[38, 0]),
   midi.NoteOnEvent(tick=0, channel=9, data=[38, 127]),
   midi.NoteOnEvent(tick=60, channel=9, data=[36, 127]),
   midi.NoteOnEvent(tick=60, channel=9, data=[38, 0]),
   midi.NoteOnEvent(tick=0, channel=9, data=[36, 0]),
   midi.NoteOnEvent(tick=0, channel=9, data=[57, 127]),
   midi.NoteOnEvent(tick=0, channel=9, data=[36, 127]),
   midi.NoteOnEvent(tick=60, channel=9, data=[57, 0]),
   midi.NoteOnEvent(tick=0, channel=9, data=[42, 127]),
   midi.NoteOnEvent(tick=60, channel=9, data=[36, 0]),
   midi.NoteOnEvent(tick=0, channel=9, data=[42, 0]),
   midi.NoteOnEvent(tick=0, channel=9, data=[38, 127]),
   midi.NoteOnEvent(tick=0, channel=9, data=[42, 127]),
   midi.NoteOnEvent(tick=60, channel=9, data=[38, 0]),
   midi.NoteOnEvent(tick=0, channel=9, data=[42, 0]),
   midi.NoteOnEvent(tick=0, channel=9, data=[42, 127]),
   midi.NoteOnEvent(tick=60, channel=9, data=[42, 0]),
   midi.NoteOnEvent(tick=0, channel=9, data=[36, 127]),
   midi.NoteOnEvent(tick=0, channel=9, data=[42, 127]),
   midi.NoteOnEvent(tick=60, channel=9, data=[42, 0]),
   midi.NoteOnEvent(tick=0, channel=9, data=[42, 127]),
   midi.NoteOnEvent(tick=60, channel=9, data=[36, 0]),
   midi.NoteOnEvent(tick=0, channel=9, data=[42, 0]),
   midi.NoteOnEvent(tick=0, channel=9, data=[38, 127]),
   midi.NoteOnEvent(tick=0, channel=9, data=[42, 127]),
   midi.NoteOnEvent(tick=60, channel=9, data=[38, 0]),
   midi.NoteOnEvent(tick=0, channel=9, data=[42, 0]),
   midi.NoteOnEvent(tick=0, channel=9, data=[42, 127]),
   midi.NoteOnEvent(tick=60, channel=9, data=[42, 0]),
   midi.NoteOnEvent(tick=0, channel=9, data=[36, 127]),
   midi.NoteOnEvent(tick=0, channel=9, data=[42, 127]),
   midi.NoteOnEvent(tick=60, channel=9, data=[42, 0]),
   midi.NoteOnEvent(tick=0, channel=9, data=[42, 127]),
   midi.NoteOnEvent(tick=60, channel=9, data=[36, 0]),
   midi.NoteOnEvent(tick=0, channel=9, data=[42, 0]),
   midi.NoteOnEvent(tick=0, channel=9, data=[38, 127]),
   midi.NoteOnEvent(tick=0, channel=9, data=[42, 127]),
   midi.NoteOnEvent(tick=60, channel=9, data=[38, 0]),
   midi.NoteOnEvent(tick=0, channel=9, data=[42, 0]),
   midi.NoteOnEvent(tick=0, channel=9, data=[42, 127]),
   midi.NoteOnEvent(tick=60, channel=9, data=[42, 0]),
   midi.NoteOnEvent(tick=0, channel=9, data=[36, 127]),
   midi.NoteOnEvent(tick=0, channel=9, data=[42, 127]),
   midi.NoteOnEvent(tick=60, channel=9, data=[42, 0]),
   midi.NoteOnEvent(tick=0, channel=9, data=[42, 127]),
   midi.NoteOnEvent(tick=60, channel=9, data=[36, 0]),
   midi.NoteOnEvent(tick=0, channel=9, data=[42, 0]),
   midi.NoteOnEvent(tick=0, channel=9, data=[38, 127]),
   midi.NoteOnEvent(tick=0, channel=9, data=[42, 127]),
   midi.NoteOnEvent(tick=60, channel=9, data=[38, 0]),
   midi.NoteOnEvent(tick=0, channel=9, data=[42, 0]),
   midi.NoteOnEvent(tick=0, channel=9, data=[57, 127]),
   midi.NoteOnEvent(tick=0, channel=9, data=[36, 127]),
   midi.NoteOnEvent(tick=60, channel=9, data=[57, 0]),
   midi.NoteOnEvent(tick=0, channel=9, data=[36, 0]),
   midi.NoteOnEvent(tick=0, channel=9, data=[57, 127]),
   midi.NoteOnEvent(tick=0, channel=9, data=[36, 127]),
   midi.NoteOnEvent(tick=60, channel=9, data=[57, 0]),
   midi.NoteOnEvent(tick=0, channel=9, data=[42, 127]),
   midi.NoteOnEvent(tick=60, channel=9, data=[36, 0]),
   midi.NoteOnEvent(tick=0, channel=9, data=[42, 0]),
   midi.NoteOnEvent(tick=0, channel=9, data=[38, 127]),
   midi.NoteOnEvent(tick=0, channel=9, data=[42, 127]),
   midi.NoteOnEvent(tick=60, channel=9, data=[38, 0]),
   midi.NoteOnEvent(tick=0, channel=9, data=[42, 0]),
   midi.NoteOnEvent(tick=0, channel=9, data=[42, 127]),
   midi.NoteOnEvent(tick=60, channel=9, data=[42, 0]),
   midi.NoteOnEvent(tick=0, channel=9, data=[36, 127]),
   midi.NoteOnEvent(tick=0, channel=9, data=[42, 127]),
   midi.NoteOnEvent(tick=60, channel=9, data=[42, 0]),
   midi.NoteOnEvent(tick=0, channel=9, data=[42, 127]),
   midi.NoteOnEvent(tick=60, channel=9, data=[36, 0]),
   midi.NoteOnEvent(tick=0, channel=9, data=[42, 0]),
   midi.NoteOnEvent(tick=0, channel=9, data=[38, 127]),
   midi.NoteOnEvent(tick=0, channel=9, data=[42, 127]),
   midi.NoteOnEvent(tick=60, channel=9, data=[38, 0]),
   midi.NoteOnEvent(tick=0, channel=9, data=[42, 0]),
   midi.NoteOnEvent(tick=0, channel=9, data=[42, 127]),
   midi.NoteOnEvent(tick=60, channel=9, data=[42, 0]),
   midi.NoteOnEvent(tick=0, channel=9, data=[36, 127]),
   midi.NoteOnEvent(tick=0, channel=9, data=[42, 127]),
   midi.NoteOnEvent(tick=60, channel=9, data=[42, 0]),
   midi.NoteOnEvent(tick=0, channel=9, data=[42, 127]),
   midi.NoteOnEvent(tick=60, channel=9, data=[36, 0]),
   midi.NoteOnEvent(tick=0, channel=9, data=[42, 0]),
   midi.NoteOnEvent(tick=0, channel=9, data=[38, 127]),
   midi.NoteOnEvent(tick=0, channel=9, data=[42, 127]),
   midi.NoteOnEvent(tick=60, channel=9, data=[38, 0]),
   midi.NoteOnEvent(tick=0, channel=9, data=[42, 0]),
   midi.NoteOnEvent(tick=0, channel=9, data=[42, 127]),
   midi.NoteOnEvent(tick=60, channel=9, data=[42, 0]),
   midi.NoteOnEvent(tick=0, channel=9, data=[36, 127]),
   midi.NoteOnEvent(tick=0, channel=9, data=[42, 127]),
   midi.NoteOnEvent(tick=60, channel=9, data=[42, 0]),
   midi.NoteOnEvent(tick=0, channel=9, data=[42, 127]),
   midi.NoteOnEvent(tick=60, channel=9, data=[36, 0]),
   midi.NoteOnEvent(tick=0, channel=9, data=[42, 0]),
   midi.NoteOnEvent(tick=0, channel=9, data=[36, 127]),
   midi.NoteOnEvent(tick=0, channel=9, data=[42, 127]),
   midi.NoteOnEvent(tick=60, channel=9, data=[42, 0]),
   midi.NoteOnEvent(tick=0, channel=9, data=[57, 127]),
   midi.NoteOnEvent(tick=0, channel=9, data=[38, 127]),
   midi.NoteOnEvent(tick=60, channel=9, data=[36, 0]),
   midi.NoteOnEvent(tick=0, channel=9, data=[57, 0]),
   midi.NoteOnEvent(tick=0, channel=9, data=[38, 0]),
   midi.NoteOnEvent(tick=0, channel=9, data=[36, 127]),
   midi.NoteOnEvent(tick=0, channel=9, data=[42, 127]),
   midi.NoteOnEvent(tick=60, channel=9, data=[42, 0]),
   midi.NoteOnEvent(tick=0, channel=9, data=[42, 127]),
   midi.NoteOnEvent(tick=60, channel=9, data=[36, 0]),
   midi.NoteOnEvent(tick=0, channel=9, data=[42, 0]),
   midi.NoteOnEvent(tick=0, channel=9, data=[38, 127]),
   midi.NoteOnEvent(tick=0, channel=9, data=[42, 127]),
   midi.NoteOnEvent(tick=60, channel=9, data=[38, 0]),
   midi.NoteOnEvent(tick=0, channel=9, data=[42, 0]),
   midi.NoteOnEvent(tick=0, channel=9, data=[42, 127]),
   midi.NoteOnEvent(tick=60, channel=9, data=[42, 0]),
   midi.NoteOnEvent(tick=0, channel=9, data=[36, 127]),
   midi.NoteOnEvent(tick=0, channel=9, data=[42, 127]),
   midi.NoteOnEvent(tick=60, channel=9, data=[42, 0]),
   midi.NoteOnEvent(tick=0, channel=9, data=[42, 127]),
   midi.NoteOnEvent(tick=60, channel=9, data=[36, 0]),
   midi.NoteOnEvent(tick=0, channel=9, data=[42, 0]),
   midi.NoteOnEvent(tick=0, channel=9, data=[38, 127]),
   midi.NoteOnEvent(tick=0, channel=9, data=[42, 127]),
   midi.NoteOnEvent(tick=60, channel=9, data=[38, 0]),
   midi.NoteOnEvent(tick=0, channel=9, data=[42, 0]),
   midi.NoteOnEvent(tick=0, channel=9, data=[42, 127]),
   midi.NoteOnEvent(tick=60, channel=9, data=[42, 0]),
   midi.NoteOnEvent(tick=0, channel=9, data=[42, 127]),
   midi.NoteOnEvent(tick=0, channel=9, data=[36, 127]),
   midi.NoteOnEvent(tick=60, channel=9, data=[42, 0]),
   midi.NoteOnEvent(tick=0, channel=9, data=[42, 127]),
   midi.NoteOnEvent(tick=60, channel=9, data=[36, 0]),
   midi.NoteOnEvent(tick=0, channel=9, data=[42, 0]),
   midi.NoteOnEvent(tick=0, channel=9, data=[38, 127]),
   midi.NoteOnEvent(tick=0, channel=9, data=[42, 127]),
   midi.NoteOnEvent(tick=60, channel=9, data=[38, 0]),
   midi.NoteOnEvent(tick=0, channel=9, data=[42, 0]),
   midi.NoteOnEvent(tick=0, channel=9, data=[42, 127]),
   midi.NoteOnEvent(tick=60, channel=9, data=[42, 0]),
   midi.NoteOnEvent(tick=0, channel=9, data=[42, 127]),
   midi.NoteOnEvent(tick=0, channel=9, data=[36, 127]),
   midi.NoteOnEvent(tick=60, channel=9, data=[42, 0]),
   midi.NoteOnEvent(tick=0, channel=9, data=[42, 127]),
   midi.NoteOnEvent(tick=60, channel=9, data=[36, 0]),
   midi.NoteOnEvent(tick=0, channel=9, data=[42, 0]),
   midi.NoteOnEvent(tick=0, channel=9, data=[38, 127]),
   midi.NoteOnEvent(tick=0, channel=9, data=[42, 127]),
   midi.NoteOnEvent(tick=60, channel=9, data=[38, 0]),
   midi.NoteOnEvent(tick=0, channel=9, data=[42, 0]),
   midi.NoteOnEvent(tick=0, channel=9, data=[38, 127]),
   midi.NoteOnEvent(tick=30, channel=9, data=[38, 0]),
   midi.NoteOnEvent(tick=0, channel=9, data=[38, 127]),
   midi.NoteOnEvent(tick=30, channel=9, data=[38, 0]),
   midi.NoteOnEvent(tick=0, channel=9, data=[36, 127]),
   midi.NoteOnEvent(tick=0, channel=9, data=[42, 127]),
   midi.NoteOnEvent(tick=60, channel=9, data=[42, 0]),
   midi.NoteOnEvent(tick=0, channel=9, data=[42, 127]),
   midi.NoteOnEvent(tick=60, channel=9, data=[36, 0]),
   midi.NoteOnEvent(tick=0, channel=9, data=[42, 0]),
   midi.NoteOnEvent(tick=0, channel=9, data=[38, 127]),
   midi.NoteOnEvent(tick=0, channel=9, data=[42, 127]),
   midi.NoteOnEvent(tick=60, channel=9, data=[38, 0]),
   midi.NoteOnEvent(tick=0, channel=9, data=[42, 0]),
   midi.NoteOnEvent(tick=0, channel=9, data=[42, 127]),
   midi.NoteOnEvent(tick=60, channel=9, data=[42, 0]),
   midi.NoteOnEvent(tick=0, channel=9, data=[36, 127]),
   midi.NoteOnEvent(tick=0, channel=9, data=[42, 127]),
   midi.NoteOnEvent(tick=60, channel=9, data=[42, 0]),
   midi.NoteOnEvent(tick=0, channel=9, data=[42, 127]),
   midi.NoteOnEvent(tick=60, channel=9, data=[36, 0]),
   midi.NoteOnEvent(tick=0, channel=9, data=[42, 0]),
   midi.NoteOnEvent(tick=0, channel=9, data=[38, 127]),
   midi.NoteOnEvent(tick=0, channel=9, data=[42, 127]),
   midi.NoteOnEvent(tick=60, channel=9, data=[38, 0]),
   midi.NoteOnEvent(tick=0, channel=9, data=[42, 0]),
   midi.NoteOnEvent(tick=0, channel=9, data=[42, 127]),
   midi.NoteOnEvent(tick=55, channel=9, data=[38, 75]),
   midi.NoteOnEvent(tick=5, channel=9, data=[42, 0]),
   midi.NoteOnEvent(tick=0, channel=9, data=[38, 0]),
   midi.NoteOnEvent(tick=0, channel=9, data=[38, 127]),
   midi.NoteOnEvent(tick=60, channel=9, data=[38, 0]),
   midi.NoteOnEvent(tick=0, channel=9, data=[36, 127]),
   midi.NoteOnEvent(tick=0, channel=9, data=[57, 127]),
   midi.NoteOnEvent(tick=60, channel=9, data=[36, 0]),
   midi.NoteOnEvent(tick=0, channel=9, data=[57, 0]),
   midi.NoteOnEvent(tick=0, channel=9, data=[36, 127]),
   midi.NoteOnEvent(tick=0, channel=9, data=[57, 127]),
   midi.NoteOnEvent(tick=60, channel=9, data=[36, 0]),
   midi.NoteOnEvent(tick=0, channel=9, data=[57, 0]),
   midi.NoteOnEvent(tick=0, channel=9, data=[36, 127]),
   midi.NoteOnEvent(tick=0, channel=9, data=[57, 127]),
   midi.NoteOnEvent(tick=55, channel=9, data=[38, 75]),
   midi.NoteOnEvent(tick=5, channel=9, data=[36, 0]),
   midi.NoteOnEvent(tick=0, channel=9, data=[57, 0]),
   midi.NoteOnEvent(tick=0, channel=9, data=[38, 127]),
   midi.NoteOnEvent(tick=50, channel=9, data=[38, 0]),
   midi.NoteOnEvent(tick=10, channel=9, data=[38, 0]),
   midi.NoteOnEvent(tick=0, channel=9, data=[36, 127]),
   midi.NoteOnEvent(tick=0, channel=9, data=[57, 127]),
   midi.NoteOnEvent(tick=60, channel=9, data=[36, 0]),
   midi.NoteOnEvent(tick=0, channel=9, data=[57, 0]),
   midi.NoteOnEvent(tick=0, channel=9, data=[36, 127]),
   midi.NoteOnEvent(tick=0, channel=9, data=[57, 127]),
   midi.NoteOnEvent(tick=60, channel=9, data=[36, 0]),
   midi.NoteOnEvent(tick=0, channel=9, data=[57, 0]),
   midi.NoteOnEvent(tick=0, channel=9, data=[36, 127]),
   midi.NoteOnEvent(tick=0, channel=9, data=[57, 127]),
   midi.NoteOnEvent(tick=60, channel=9, data=[36, 0]),
   midi.NoteOnEvent(tick=0, channel=9, data=[57, 0]),
   midi.NoteOnEvent(tick=0, channel=9, data=[36, 127]),
   midi.NoteOnEvent(tick=0, channel=9, data=[57, 127]),
   midi.NoteOnEvent(tick=60, channel=9, data=[57, 0]),
   midi.NoteOnEvent(tick=0, channel=9, data=[42, 127]),
   midi.NoteOnEvent(tick=60, channel=9, data=[36, 0]),
   midi.NoteOnEvent(tick=0, channel=9, data=[42, 0]),
   midi.NoteOnEvent(tick=0, channel=9, data=[42, 127]),
   midi.NoteOnEvent(tick=0, channel=9, data=[38, 127]),
   midi.NoteOnEvent(tick=60, channel=9, data=[42, 0]),
   midi.NoteOnEvent(tick=0, channel=9, data=[38, 0]),
   midi.NoteOnEvent(tick=0, channel=9, data=[42, 127]),
   midi.NoteOnEvent(tick=60, channel=9, data=[42, 0]),
   midi.NoteOnEvent(tick=0, channel=9, data=[36, 127]),
   midi.NoteOnEvent(tick=0, channel=9, data=[42, 127]),
   midi.NoteOnEvent(tick=60, channel=9, data=[42, 0]),
   midi.NoteOnEvent(tick=0, channel=9, data=[42, 127]),
   midi.NoteOnEvent(tick=60, channel=9, data=[36, 0]),
   midi.NoteOnEvent(tick=0, channel=9, data=[42, 0]),
   midi.NoteOnEvent(tick=0, channel=9, data=[38, 127]),
   midi.NoteOnEvent(tick=0, channel=9, data=[42, 127]),
   midi.NoteOnEvent(tick=60, channel=9, data=[38, 0]),
   midi.NoteOnEvent(tick=0, channel=9, data=[42, 0]),
   midi.NoteOnEvent(tick=0, channel=9, data=[42, 127]),
   midi.NoteOnEvent(tick=60, channel=9, data=[42, 0]),
   midi.NoteOnEvent(tick=0, channel=9, data=[36, 127]),
   midi.NoteOnEvent(tick=0, channel=9, data=[42, 127]),
   midi.NoteOnEvent(tick=60, channel=9, data=[42, 0]),
   midi.NoteOnEvent(tick=0, channel=9, data=[42, 127]),
   midi.NoteOnEvent(tick=60, channel=9, data=[36, 0]),
   midi.NoteOnEvent(tick=0, channel=9, data=[42, 0]),
   midi.NoteOnEvent(tick=0, channel=9, data=[38, 127]),
   midi.NoteOnEvent(tick=0, channel=9, data=[42, 127]),
   midi.NoteOnEvent(tick=60, channel=9, data=[38, 0]),
   midi.NoteOnEvent(tick=0, channel=9, data=[42, 0]),
   midi.NoteOnEvent(tick=0, channel=9, data=[42, 127]),
   midi.NoteOnEvent(tick=60, channel=9, data=[42, 0]),
   midi.NoteOnEvent(tick=0, channel=9, data=[36, 127]),
   midi.NoteOnEvent(tick=0, channel=9, data=[42, 127]),
   midi.NoteOnEvent(tick=60, channel=9, data=[42, 0]),
   midi.NoteOnEvent(tick=0, channel=9, data=[42, 127]),
   midi.NoteOnEvent(tick=60, channel=9, data=[36, 0]),
   midi.NoteOnEvent(tick=0, channel=9, data=[42, 0]),
   midi.NoteOnEvent(tick=0, channel=9, data=[38, 127]),
   midi.NoteOnEvent(tick=0, channel=9, data=[42, 127]),
   midi.NoteOnEvent(tick=60, channel=9, data=[38, 0]),
   midi.NoteOnEvent(tick=0, channel=9, data=[42, 0]),
   midi.NoteOnEvent(tick=0, channel=9, data=[36, 127]),
   midi.NoteOnEvent(tick=0, channel=9, data=[57, 127]),
   midi.NoteOnEvent(tick=60, channel=9, data=[36, 0]),
   midi.NoteOnEvent(tick=0, channel=9, data=[57, 0]),
   midi.NoteOnEvent(tick=0, channel=9, data=[36, 127]),
   midi.NoteOnEvent(tick=0, channel=9, data=[57, 127]),
   midi.NoteOnEvent(tick=60, channel=9, data=[57, 0]),
   midi.NoteOnEvent(tick=0, channel=9, data=[42, 127]),
   midi.NoteOnEvent(tick=60, channel=9, data=[36, 0]),
   midi.NoteOnEvent(tick=0, channel=9, data=[42, 0]),
   midi.NoteOnEvent(tick=0, channel=9, data=[38, 127]),
   midi.NoteOnEvent(tick=0, channel=9, data=[42, 127]),
   midi.NoteOnEvent(tick=60, channel=9, data=[38, 0]),
   midi.NoteOnEvent(tick=0, channel=9, data=[42, 0]),
   midi.NoteOnEvent(tick=0, channel=9, data=[42, 127]),
   midi.NoteOnEvent(tick=60, channel=9, data=[42, 0]),
   midi.NoteOnEvent(tick=0, channel=9, data=[36, 127]),
   midi.NoteOnEvent(tick=0, channel=9, data=[42, 127]),
   midi.NoteOnEvent(tick=60, channel=9, data=[42, 0]),
   midi.NoteOnEvent(tick=0, channel=9, data=[42, 127]),
   midi.NoteOnEvent(tick=60, channel=9, data=[36, 0]),
   midi.NoteOnEvent(tick=0, channel=9, data=[42, 0]),
   midi.NoteOnEvent(tick=0, channel=9, data=[38, 127]),
   midi.NoteOnEvent(tick=0, channel=9, data=[42, 127]),
   midi.NoteOnEvent(tick=60, channel=9, data=[38, 0]),
   midi.NoteOnEvent(tick=0, channel=9, data=[42, 0]),
   midi.NoteOnEvent(tick=0, channel=9, data=[42, 127]),
   midi.NoteOnEvent(tick=60, channel=9, data=[42, 0]),
   midi.NoteOnEvent(tick=0, channel=9, data=[36, 127]),
   midi.NoteOnEvent(tick=0, channel=9, data=[42, 127]),
   midi.NoteOnEvent(tick=60, channel=9, data=[42, 0]),
   midi.NoteOnEvent(tick=0, channel=9, data=[42, 127]),
   midi.NoteOnEvent(tick=60, channel=9, data=[36, 0]),
   midi.NoteOnEvent(tick=0, channel=9, data=[42, 0]),
   midi.NoteOnEvent(tick=0, channel=9, data=[38, 127]),
   midi.NoteOnEvent(tick=0, channel=9, data=[42, 127]),
   midi.NoteOnEvent(tick=60, channel=9, data=[38, 0]),
   midi.NoteOnEvent(tick=0, channel=9, data=[42, 0]),
   midi.NoteOnEvent(tick=0, channel=9, data=[42, 127]),
   midi.NoteOnEvent(tick=60, channel=9, data=[42, 0]),
   midi.NoteOnEvent(tick=0, channel=9, data=[36, 127]),
   midi.NoteOnEvent(tick=0, channel=9, data=[42, 127]),
   midi.NoteOnEvent(tick=60, channel=9, data=[36, 0]),
   midi.NoteOnEvent(tick=0, channel=9, data=[42, 0]),
   midi.NoteOnEvent(tick=0, channel=9, data=[36, 127]),
   midi.NoteOnEvent(tick=0, channel=9, data=[42, 127]),
   midi.NoteOnEvent(tick=20, channel=9, data=[36, 0]),
   midi.NoteOnEvent(tick=0, channel=9, data=[35, 127]),
   midi.NoteOnEvent(tick=20, channel=9, data=[35, 0]),
   midi.NoteOnEvent(tick=0, channel=9, data=[36, 127]),
   midi.NoteOnEvent(tick=20, channel=9, data=[42, 0]),
   midi.NoteOnEvent(tick=0, channel=9, data=[36, 0]),
   midi.NoteOnEvent(tick=0, channel=9, data=[38, 127]),
   midi.NoteOnEvent(tick=0, channel=9, data=[42, 127]),
   midi.NoteOnEvent(tick=60, channel=9, data=[38, 0]),
   midi.NoteOnEvent(tick=0, channel=9, data=[42, 0]),
   midi.NoteOnEvent(tick=0, channel=9, data=[36, 127]),
   midi.NoteOnEvent(tick=0, channel=9, data=[57, 127]),
   midi.NoteOnEvent(tick=60, channel=9, data=[36, 0]),
   midi.NoteOnEvent(tick=0, channel=9, data=[57, 0]),
   midi.NoteOnEvent(tick=0, channel=9, data=[57, 127]),
   midi.NoteOnEvent(tick=0, channel=9, data=[36, 127]),
   midi.NoteOnEvent(tick=60, channel=9, data=[57, 0]),
   midi.NoteOnEvent(tick=0, channel=9, data=[42, 127]),
   midi.NoteOnEvent(tick=60, channel=9, data=[36, 0]),
   midi.NoteOnEvent(tick=0, channel=9, data=[42, 0]),
   midi.NoteOnEvent(tick=0, channel=9, data=[38, 127]),
   midi.NoteOnEvent(tick=0, channel=9, data=[42, 127]),
   midi.NoteOnEvent(tick=60, channel=9, data=[38, 0]),
   midi.NoteOnEvent(tick=0, channel=9, data=[42, 0]),
   midi.NoteOnEvent(tick=0, channel=9, data=[42, 127]),
   midi.NoteOnEvent(tick=60, channel=9, data=[42, 0]),
   midi.NoteOnEvent(tick=0, channel=9, data=[36, 127]),
   midi.NoteOnEvent(tick=0, channel=9, data=[42, 127]),
   midi.NoteOnEvent(tick=60, channel=9, data=[42, 0]),
   midi.NoteOnEvent(tick=0, channel=9, data=[42, 127]),
   midi.NoteOnEvent(tick=60, channel=9, data=[36, 0]),
   midi.NoteOnEvent(tick=0, channel=9, data=[42, 0]),
   midi.NoteOnEvent(tick=0, channel=9, data=[38, 127]),
   midi.NoteOnEvent(tick=0, channel=9, data=[42, 127]),
   midi.NoteOnEvent(tick=60, channel=9, data=[38, 0]),
   midi.NoteOnEvent(tick=0, channel=9, data=[42, 0]),
   midi.NoteOnEvent(tick=0, channel=9, data=[42, 127]),
   midi.NoteOnEvent(tick=60, channel=9, data=[42, 0]),
   midi.NoteOnEvent(tick=0, channel=9, data=[36, 127]),
   midi.NoteOnEvent(tick=0, channel=9, data=[42, 127]),
   midi.NoteOnEvent(tick=60, channel=9, data=[42, 0]),
   midi.NoteOnEvent(tick=0, channel=9, data=[42, 127]),
   midi.NoteOnEvent(tick=60, channel=9, data=[36, 0]),
   midi.NoteOnEvent(tick=0, channel=9, data=[42, 0]),
   midi.NoteOnEvent(tick=0, channel=9, data=[38, 127]),
   midi.NoteOnEvent(tick=0, channel=9, data=[42, 127]),
   midi.NoteOnEvent(tick=60, channel=9, data=[38, 0]),
   midi.NoteOnEvent(tick=0, channel=9, data=[42, 0]),
   midi.NoteOnEvent(tick=0, channel=9, data=[42, 127]),
   midi.NoteOnEvent(tick=60, channel=9, data=[42, 0]),
   midi.NoteOnEvent(tick=0, channel=9, data=[36, 127]),
   midi.NoteOnEvent(tick=0, channel=9, data=[42, 127]),
   midi.NoteOnEvent(tick=60, channel=9, data=[42, 0]),
   midi.NoteOnEvent(tick=0, channel=9, data=[42, 127]),
   midi.NoteOnEvent(tick=60, channel=9, data=[36, 0]),
   midi.NoteOnEvent(tick=0, channel=9, data=[42, 0]),
   midi.NoteOnEvent(tick=0, channel=9, data=[38, 127]),
   midi.NoteOnEvent(tick=0, channel=9, data=[42, 127]),
   midi.NoteOnEvent(tick=60, channel=9, data=[38, 0]),
   midi.NoteOnEvent(tick=0, channel=9, data=[42, 0]),
   midi.NoteOnEvent(tick=0, channel=9, data=[36, 127]),
   midi.NoteOnEvent(tick=0, channel=9, data=[42, 127]),
   midi.NoteOnEvent(tick=60, channel=9, data=[36, 0]),
   midi.NoteOnEvent(tick=0, channel=9, data=[42, 0]),
   midi.NoteOnEvent(tick=0, channel=9, data=[36, 127]),
   midi.NoteOnEvent(tick=0, channel=9, data=[42, 127]),
   midi.NoteOnEvent(tick=60, channel=9, data=[42, 0]),
   midi.NoteOnEvent(tick=0, channel=9, data=[42, 127]),
   midi.NoteOnEvent(tick=60, channel=9, data=[36, 0]),
   midi.NoteOnEvent(tick=0, channel=9, data=[42, 0]),
   midi.NoteOnEvent(tick=0, channel=9, data=[57, 127]),
   midi.NoteOnEvent(tick=0, channel=9, data=[38, 127]),
   midi.NoteOnEvent(tick=60, channel=9, data=[57, 0]),
   midi.NoteOnEvent(tick=0, channel=9, data=[38, 0]),
   midi.NoteOnEvent(tick=0, channel=9, data=[42, 127]),
   midi.NoteOnEvent(tick=60, channel=9, data=[42, 0]),
   midi.NoteOnEvent(tick=0, channel=9, data=[36, 127]),
   midi.NoteOnEvent(tick=0, channel=9, data=[42, 127]),
   midi.NoteOnEvent(tick=60, channel=9, data=[42, 0]),
   midi.NoteOnEvent(tick=0, channel=9, data=[42, 127]),
   midi.NoteOnEvent(tick=60, channel=9, data=[36, 0]),
   midi.NoteOnEvent(tick=0, channel=9, data=[42, 0]),
   midi.NoteOnEvent(tick=0, channel=9, data=[38, 127]),
   midi.NoteOnEvent(tick=0, channel=9, data=[42, 127]),
   midi.NoteOnEvent(tick=60, channel=9, data=[38, 0]),
   midi.NoteOnEvent(tick=0, channel=9, data=[42, 0]),
   midi.NoteOnEvent(tick=0, channel=9, data=[42, 127]),
   midi.NoteOnEvent(tick=60, channel=9, data=[42, 0]),
   midi.NoteOnEvent(tick=0, channel=9, data=[36, 127]),
   midi.NoteOnEvent(tick=0, channel=9, data=[42, 127]),
   midi.NoteOnEvent(tick=60, channel=9, data=[42, 0]),
   midi.NoteOnEvent(tick=0, channel=9, data=[57, 127]),
   midi.NoteOnEvent(tick=0, channel=9, data=[38, 127]),
   midi.NoteOnEvent(tick=60, channel=9, data=[36, 0]),
   midi.NoteOnEvent(tick=0, channel=9, data=[57, 0]),
   midi.NoteOnEvent(tick=0, channel=9, data=[38, 0]),
   midi.NoteOnEvent(tick=0, channel=9, data=[36, 127]),
   midi.NoteOnEvent(tick=0, channel=9, data=[42, 127]),
   midi.NoteOnEvent(tick=60, channel=9, data=[42, 0]),
   midi.NoteOnEvent(tick=0, channel=9, data=[38, 127]),
   midi.NoteOnEvent(tick=0, channel=9, data=[57, 127]),
   midi.NoteOnEvent(tick=60, channel=9, data=[36, 0]),
   midi.NoteOnEvent(tick=0, channel=9, data=[38, 0]),
   midi.NoteOnEvent(tick=0, channel=9, data=[57, 0]),
   midi.NoteOnEvent(tick=0, channel=9, data=[36, 127]),
   midi.NoteOnEvent(tick=0, channel=9, data=[42, 127]),
   midi.NoteOnEvent(tick=60, channel=9, data=[42, 0]),
   midi.NoteOnEvent(tick=0, channel=9, data=[57, 127]),
   midi.NoteOnEvent(tick=0, channel=9, data=[38, 127]),
   midi.NoteOnEvent(tick=60, channel=9, data=[36, 0]),
   midi.NoteOnEvent(tick=0, channel=9, data=[57, 0]),
   midi.NoteOnEvent(tick=0, channel=9, data=[38, 0]),
   midi.NoteOnEvent(tick=0, channel=9, data=[36, 127]),
   midi.NoteOnEvent(tick=0, channel=9, data=[42, 127]),
   midi.NoteOnEvent(tick=60, channel=9, data=[42, 0]),
   midi.NoteOnEvent(tick=0, channel=9, data=[57, 127]),
   midi.NoteOnEvent(tick=0, channel=9, data=[38, 127]),
   midi.NoteOnEvent(tick=60, channel=9, data=[36, 0]),
   midi.NoteOnEvent(tick=0, channel=9, data=[57, 0]),
   midi.NoteOnEvent(tick=0, channel=9, data=[38, 0]),
   midi.NoteOnEvent(tick=0, channel=9, data=[57, 127]),
   midi.NoteOnEvent(tick=0, channel=9, data=[36, 127]),
   midi.NoteOnEvent(tick=60, channel=9, data=[57, 0]),
   midi.NoteOnEvent(tick=0, channel=9, data=[42, 127]),
   midi.NoteOnEvent(tick=60, channel=9, data=[36, 0]),
   midi.NoteOnEvent(tick=0, channel=9, data=[42, 0]),
   midi.NoteOnEvent(tick=0, channel=9, data=[38, 127]),
   midi.NoteOnEvent(tick=0, channel=9, data=[42, 127]),
   midi.NoteOnEvent(tick=60, channel=9, data=[38, 0]),
   midi.NoteOnEvent(tick=0, channel=9, data=[42, 0]),
   midi.NoteOnEvent(tick=0, channel=9, data=[42, 127]),
   midi.NoteOnEvent(tick=60, channel=9, data=[42, 0]),
   midi.NoteOnEvent(tick=0, channel=9, data=[36, 127]),
   midi.NoteOnEvent(tick=0, channel=9, data=[42, 127]),
   midi.NoteOnEvent(tick=60, channel=9, data=[42, 0]),
   midi.NoteOnEvent(tick=0, channel=9, data=[42, 127]),
   midi.NoteOnEvent(tick=60, channel=9, data=[36, 0]),
   midi.NoteOnEvent(tick=0, channel=9, data=[42, 0]),
   midi.NoteOnEvent(tick=0, channel=9, data=[38, 127]),
   midi.NoteOnEvent(tick=0, channel=9, data=[42, 127]),
   midi.NoteOnEvent(tick=60, channel=9, data=[38, 0]),
   midi.NoteOnEvent(tick=0, channel=9, data=[42, 0]),
   midi.NoteOnEvent(tick=0, channel=9, data=[42, 127]),
   midi.NoteOnEvent(tick=60, channel=9, data=[42, 0]),
   midi.NoteOnEvent(tick=0, channel=9, data=[36, 127]),
   midi.NoteOnEvent(tick=0, channel=9, data=[42, 127]),
   midi.NoteOnEvent(tick=60, channel=9, data=[42, 0]),
   midi.NoteOnEvent(tick=0, channel=9, data=[42, 127]),
   midi.NoteOnEvent(tick=60, channel=9, data=[36, 0]),
   midi.NoteOnEvent(tick=0, channel=9, data=[42, 0]),
   midi.NoteOnEvent(tick=0, channel=9, data=[38, 127]),
   midi.NoteOnEvent(tick=0, channel=9, data=[42, 127]),
   midi.NoteOnEvent(tick=60, channel=9, data=[38, 0]),
   midi.NoteOnEvent(tick=0, channel=9, data=[42, 0]),
   midi.NoteOnEvent(tick=0, channel=9, data=[42, 127]),
   midi.NoteOnEvent(tick=60, channel=9, data=[42, 0]),
   midi.NoteOnEvent(tick=0, channel=9, data=[36, 127]),
   midi.NoteOnEvent(tick=0, channel=9, data=[42, 127]),
   midi.NoteOnEvent(tick=60, channel=9, data=[42, 0]),
   midi.NoteOnEvent(tick=0, channel=9, data=[42, 127]),
   midi.NoteOnEvent(tick=60, channel=9, data=[36, 0]),
   midi.NoteOnEvent(tick=0, channel=9, data=[42, 0]),
   midi.NoteOnEvent(tick=0, channel=9, data=[38, 127]),
   midi.NoteOnEvent(tick=0, channel=9, data=[42, 127]),
   midi.NoteOnEvent(tick=60, channel=9, data=[38, 0]),
   midi.NoteOnEvent(tick=0, channel=9, data=[42, 0]),
   midi.NoteOnEvent(tick=0, channel=9, data=[36, 127]),
   midi.NoteOnEvent(tick=0, channel=9, data=[42, 127]),
   midi.NoteOnEvent(tick=60, channel=9, data=[36, 0]),
   midi.NoteOnEvent(tick=0, channel=9, data=[42, 0]),
   midi.NoteOnEvent(tick=0, channel=9, data=[36, 127]),
   midi.NoteOnEvent(tick=0, channel=9, data=[42, 127]),
   midi.NoteOnEvent(tick=60, channel=9, data=[42, 0]),
   midi.NoteOnEvent(tick=0, channel=9, data=[42, 127]),
   midi.NoteOnEvent(tick=60, channel=9, data=[36, 0]),
   midi.NoteOnEvent(tick=0, channel=9, data=[42, 0]),
   midi.NoteOnEvent(tick=0, channel=9, data=[57, 127]),
   midi.NoteOnEvent(tick=0, channel=9, data=[38, 127]),
   midi.NoteOnEvent(tick=60, channel=9, data=[57, 0]),
   midi.NoteOnEvent(tick=0, channel=9, data=[38, 0]),
   midi.NoteOnEvent(tick=0, channel=9, data=[42, 127]),
   midi.NoteOnEvent(tick=60, channel=9, data=[42, 0]),
   midi.NoteOnEvent(tick=0, channel=9, data=[36, 127]),
   midi.NoteOnEvent(tick=0, channel=9, data=[42, 127]),
   midi.NoteOnEvent(tick=60, channel=9, data=[42, 0]),
   midi.NoteOnEvent(tick=0, channel=9, data=[42, 127]),
   midi.NoteOnEvent(tick=60, channel=9, data=[36, 0]),
   midi.NoteOnEvent(tick=0, channel=9, data=[42, 0]),
   midi.NoteOnEvent(tick=0, channel=9, data=[38, 127]),
   midi.NoteOnEvent(tick=0, channel=9, data=[42, 127]),
   midi.NoteOnEvent(tick=60, channel=9, data=[38, 0]),
   midi.NoteOnEvent(tick=0, channel=9, data=[42, 0]),
   midi.NoteOnEvent(tick=0, channel=9, data=[38, 127]),
   midi.NoteOnEvent(tick=0, channel=9, data=[42, 127]),
   midi.NoteOnEvent(tick=60, channel=9, data=[38, 0]),
   midi.NoteOnEvent(tick=0, channel=9, data=[42, 0]),
   midi.NoteOnEvent(tick=0, channel=9, data=[36, 127]),
   midi.NoteOnEvent(tick=0, channel=9, data=[42, 127]),
   midi.NoteOnEvent(tick=60, channel=9, data=[42, 0]),
   midi.NoteOnEvent(tick=0, channel=9, data=[38, 127]),
   midi.NoteOnEvent(tick=0, channel=9, data=[42, 127]),
   midi.NoteOnEvent(tick=60, channel=9, data=[36, 0]),
   midi.NoteOnEvent(tick=0, channel=9, data=[38, 0]),
   midi.NoteOnEvent(tick=0, channel=9, data=[42, 0]),
   midi.NoteOnEvent(tick=0, channel=9, data=[38, 127]),
   midi.NoteOnEvent(tick=0, channel=9, data=[42, 127]),
   midi.NoteOnEvent(tick=60, channel=9, data=[38, 0]),
   midi.NoteOnEvent(tick=0, channel=9, data=[42, 0]),
   midi.NoteOnEvent(tick=0, channel=9, data=[36, 127]),
   midi.NoteOnEvent(tick=0, channel=9, data=[42, 127]),
   midi.NoteOnEvent(tick=60, channel=9, data=[36, 0]),
   midi.NoteOnEvent(tick=0, channel=9, data=[42, 0]),
   midi.NoteOnEvent(tick=0, channel=9, data=[57, 127]),
   midi.NoteOnEvent(tick=0, channel=9, data=[38, 127]),
   midi.NoteOnEvent(tick=60, channel=9, data=[57, 0]),
   midi.NoteOnEvent(tick=0, channel=9, data=[38, 0]),
   midi.NoteOnEvent(tick=0, channel=9, data=[36, 127]),
   midi.NoteOnEvent(tick=0, channel=9, data=[42, 127]),
   midi.NoteOnEvent(tick=60, channel=9, data=[36, 0]),
   midi.NoteOnEvent(tick=0, channel=9, data=[42, 0]),
   midi.NoteOnEvent(tick=0, channel=9, data=[57, 127]),
   midi.NoteOnEvent(tick=0, channel=9, data=[38, 127]),
   midi.NoteOnEvent(tick=60, channel=9, data=[36, 127]),
   midi.NoteOnEvent(tick=60, channel=9, data=[57, 0]),
   midi.NoteOnEvent(tick=0, channel=9, data=[38, 0]),
   midi.NoteOnEvent(tick=0, channel=9, data=[36, 0]),
   midi.NoteOnEvent(tick=0, channel=9, data=[57, 127]),
   midi.NoteOnEvent(tick=0, channel=9, data=[36, 127]),
   midi.NoteOnEvent(tick=60, channel=9, data=[57, 0]),
   midi.NoteOnEvent(tick=0, channel=9, data=[42, 127]),
   midi.NoteOnEvent(tick=60, channel=9, data=[36, 0]),
   midi.NoteOnEvent(tick=0, channel=9, data=[42, 0]),
   midi.NoteOnEvent(tick=0, channel=9, data=[38, 127]),
   midi.NoteOnEvent(tick=0, channel=9, data=[42, 127]),
   midi.NoteOnEvent(tick=60, channel=9, data=[38, 0]),
   midi.NoteOnEvent(tick=0, channel=9, data=[42, 0]),
   midi.NoteOnEvent(tick=0, channel=9, data=[42, 127]),
   midi.NoteOnEvent(tick=60, channel=9, data=[42, 0]),
   midi.NoteOnEvent(tick=0, channel=9, data=[36, 127]),
   midi.NoteOnEvent(tick=0, channel=9, data=[42, 127]),
   midi.NoteOnEvent(tick=60, channel=9, data=[42, 0]),
   midi.NoteOnEvent(tick=0, channel=9, data=[42, 127]),
   midi.NoteOnEvent(tick=60, channel=9, data=[36, 0]),
   midi.NoteOnEvent(tick=0, channel=9, data=[42, 0]),
   midi.NoteOnEvent(tick=0, channel=9, data=[57, 127]),
   midi.NoteOnEvent(tick=0, channel=9, data=[38, 127]),
   midi.NoteOnEvent(tick=60, channel=9, data=[57, 0]),
   midi.NoteOnEvent(tick=0, channel=9, data=[38, 0]),
   midi.NoteOnEvent(tick=0, channel=9, data=[42, 127]),
   midi.NoteOnEvent(tick=60, channel=9, data=[42, 0]),
   midi.NoteOnEvent(tick=0, channel=9, data=[36, 127]),
   midi.NoteOnEvent(tick=0, channel=9, data=[42, 127]),
   midi.NoteOnEvent(tick=60, channel=9, data=[42, 0]),
   midi.NoteOnEvent(tick=0, channel=9, data=[42, 127]),
   midi.NoteOnEvent(tick=60, channel=9, data=[36, 0]),
   midi.NoteOnEvent(tick=0, channel=9, data=[42, 0]),
   midi.NoteOnEvent(tick=0, channel=9, data=[57, 127]),
   midi.NoteOnEvent(tick=0, channel=9, data=[38, 127]),
   midi.NoteOnEvent(tick=60, channel=9, data=[57, 0]),
   midi.NoteOnEvent(tick=0, channel=9, data=[38, 0]),
   midi.NoteOnEvent(tick=0, channel=9, data=[42, 127]),
   midi.NoteOnEvent(tick=60, channel=9, data=[42, 0]),
   midi.NoteOnEvent(tick=0, channel=9, data=[36, 127]),
   midi.NoteOnEvent(tick=0, channel=9, data=[42, 127]),
   midi.NoteOnEvent(tick=60, channel=9, data=[42, 0]),
   midi.NoteOnEvent(tick=0, channel=9, data=[42, 127]),
   midi.NoteOnEvent(tick=60, channel=9, data=[36, 0]),
   midi.NoteOnEvent(tick=0, channel=9, data=[42, 0]),
   midi.NoteOnEvent(tick=0, channel=9, data=[38, 127]),
   midi.NoteOnEvent(tick=0, channel=9, data=[42, 127]),
   midi.NoteOnEvent(tick=60, channel=9, data=[38, 0]),
   midi.NoteOnEvent(tick=0, channel=9, data=[42, 0]),
   midi.NoteOnEvent(tick=0, channel=9, data=[57, 127]),
   midi.NoteOnEvent(tick=0, channel=9, data=[36, 127]),
   midi.NoteOnEvent(tick=60, channel=9, data=[57, 0]),
   midi.NoteOnEvent(tick=0, channel=9, data=[36, 0]),
   midi.NoteOnEvent(tick=0, channel=9, data=[57, 127]),
   midi.NoteOnEvent(tick=0, channel=9, data=[36, 127]),
   midi.NoteOnEvent(tick=60, channel=9, data=[57, 0]),
   midi.NoteOnEvent(tick=0, channel=9, data=[42, 127]),
   midi.NoteOnEvent(tick=60, channel=9, data=[36, 0]),
   midi.NoteOnEvent(tick=0, channel=9, data=[42, 0]),
   midi.NoteOnEvent(tick=0, channel=9, data=[57, 127]),
   midi.NoteOnEvent(tick=0, channel=9, data=[38, 127]),
   midi.NoteOnEvent(tick=60, channel=9, data=[57, 0]),
   midi.NoteOnEvent(tick=0, channel=9, data=[38, 0]),
   midi.NoteOnEvent(tick=0, channel=9, data=[42, 127]),
   midi.NoteOnEvent(tick=60, channel=9, data=[42, 0]),
   midi.NoteOnEvent(tick=0, channel=9, data=[36, 127]),
   midi.NoteOnEvent(tick=0, channel=9, data=[42, 127]),
   midi.NoteOnEvent(tick=60, channel=9, data=[42, 0]),
   midi.NoteOnEvent(tick=0, channel=9, data=[42, 127]),
   midi.NoteOnEvent(tick=60, channel=9, data=[36, 0]),
   midi.NoteOnEvent(tick=0, channel=9, data=[42, 0]),
   midi.NoteOnEvent(tick=0, channel=9, data=[57, 127]),
   midi.NoteOnEvent(tick=0, channel=9, data=[38, 127]),
   midi.NoteOnEvent(tick=60, channel=9, data=[57, 0]),
   midi.NoteOnEvent(tick=0, channel=9, data=[38, 0]),
   midi.NoteOnEvent(tick=0, channel=9, data=[42, 127]),
   midi.NoteOnEvent(tick=60, channel=9, data=[42, 0]),
   midi.NoteOnEvent(tick=0, channel=9, data=[42, 127]),
   midi.NoteOnEvent(tick=0, channel=9, data=[36, 127]),
   midi.NoteOnEvent(tick=60, channel=9, data=[42, 0]),
   midi.NoteOnEvent(tick=0, channel=9, data=[42, 127]),
   midi.NoteOnEvent(tick=60, channel=9, data=[36, 0]),
   midi.NoteOnEvent(tick=0, channel=9, data=[42, 0]),
   midi.NoteOnEvent(tick=0, channel=9, data=[57, 127]),
   midi.NoteOnEvent(tick=0, channel=9, data=[38, 127]),
   midi.NoteOnEvent(tick=60, channel=9, data=[57, 0]),
   midi.NoteOnEvent(tick=0, channel=9, data=[38, 0]),
   midi.NoteOnEvent(tick=0, channel=9, data=[42, 127]),
   midi.NoteOnEvent(tick=60, channel=9, data=[42, 0]),
   midi.NoteOnEvent(tick=0, channel=9, data=[42, 127]),
   midi.NoteOnEvent(tick=0, channel=9, data=[36, 127]),
   midi.NoteOnEvent(tick=60, channel=9, data=[42, 0]),
   midi.NoteOnEvent(tick=0, channel=9, data=[42, 127]),
   midi.NoteOnEvent(tick=60, channel=9, data=[36, 0]),
   midi.NoteOnEvent(tick=0, channel=9, data=[42, 0]),
   midi.NoteOnEvent(tick=0, channel=9, data=[38, 127]),
   midi.NoteOnEvent(tick=0, channel=9, data=[42, 127]),
   midi.NoteOnEvent(tick=60, channel=9, data=[38, 0]),
   midi.NoteOnEvent(tick=0, channel=9, data=[42, 0]),
   midi.NoteOnEvent(tick=0, channel=9, data=[42, 127]),
   midi.NoteOnEvent(tick=60, channel=9, data=[42, 0]),
   midi.NoteOnEvent(tick=0, channel=9, data=[36, 127]),
   midi.NoteOnEvent(tick=0, channel=9, data=[42, 127]),
   midi.NoteOnEvent(tick=60, channel=9, data=[36, 0]),
   midi.NoteOnEvent(tick=0, channel=9, data=[42, 0]),
   midi.NoteOnEvent(tick=0, channel=9, data=[36, 127]),
   midi.NoteOnEvent(tick=0, channel=9, data=[42, 127]),
   midi.NoteOnEvent(tick=60, channel=9, data=[36, 0]),
   midi.NoteOnEvent(tick=0, channel=9, data=[42, 0]),
   midi.NoteOnEvent(tick=0, channel=9, data=[36, 127]),
   midi.NoteOnEvent(tick=0, channel=9, data=[57, 127]),
   midi.NoteOnEvent(tick=120, channel=9, data=[36, 0]),
   midi.NoteOnEvent(tick=0, channel=9, data=[57, 0]),
   midi.NoteOnEvent(tick=60, channel=9, data=[36, 127]),
   midi.NoteOnEvent(tick=0, channel=9, data=[57, 127]),
   midi.NoteOnEvent(tick=60, channel=9, data=[36, 0]),
   midi.NoteOnEvent(tick=0, channel=9, data=[57, 0]),
   midi.NoteOnEvent(tick=120, channel=9, data=[57, 127]),
   midi.NoteOnEvent(tick=0, channel=9, data=[36, 127]),
   midi.NoteOnEvent(tick=120, channel=9, data=[57, 0]),
   midi.NoteOnEvent(tick=0, channel=9, data=[36, 0]),
   midi.NoteOnEvent(tick=480, channel=9, data=[36, 127]),
   midi.NoteOnEvent(tick=0, channel=9, data=[57, 127]),
   midi.NoteOnEvent(tick=120, channel=9, data=[36, 0]),
   midi.NoteOnEvent(tick=0, channel=9, data=[57, 0]),
   midi.NoteOnEvent(tick=60, channel=9, data=[36, 127]),
   midi.NoteOnEvent(tick=0, channel=9, data=[57, 127]),
   midi.NoteOnEvent(tick=60, channel=9, data=[36, 0]),
   midi.NoteOnEvent(tick=0, channel=9, data=[57, 0]),
   midi.NoteOnEvent(tick=120, channel=9, data=[57, 127]),
   midi.NoteOnEvent(tick=0, channel=9, data=[36, 127]),
   midi.NoteOnEvent(tick=120, channel=9, data=[57, 0]),
   midi.NoteOnEvent(tick=0, channel=9, data=[36, 0]),
   midi.NoteOnEvent(tick=480, channel=9, data=[36, 127]),
   midi.NoteOnEvent(tick=0, channel=9, data=[57, 127]),
   midi.NoteOnEvent(tick=120, channel=9, data=[36, 0]),
   midi.NoteOnEvent(tick=0, channel=9, data=[57, 0]),
   midi.NoteOnEvent(tick=60, channel=9, data=[36, 127]),
   midi.NoteOnEvent(tick=0, channel=9, data=[57, 127]),
   midi.NoteOnEvent(tick=60, channel=9, data=[36, 0]),
   midi.NoteOnEvent(tick=0, channel=9, data=[57, 0]),
   midi.NoteOnEvent(tick=120, channel=9, data=[36, 127]),
   midi.NoteOnEvent(tick=0, channel=9, data=[57, 127]),
   midi.NoteOnEvent(tick=120, channel=9, data=[36, 0]),
   midi.NoteOnEvent(tick=0, channel=9, data=[57, 0]),
   midi.NoteOnEvent(tick=360, channel=9, data=[36, 127]),
   midi.NoteOnEvent(tick=0, channel=9, data=[57, 127]),
   midi.NoteOnEvent(tick=120, channel=9, data=[36, 0]),
   midi.NoteOnEvent(tick=0, channel=9, data=[57, 0]),
   midi.NoteOnEvent(tick=180, channel=9, data=[36, 127]),
   midi.NoteOnEvent(tick=0, channel=9, data=[57, 127]),
   midi.NoteOnEvent(tick=60, channel=9, data=[36, 0]),
   midi.NoteOnEvent(tick=0, channel=9, data=[57, 0]),
   midi.NoteOnEvent(tick=120, channel=9, data=[57, 127]),
   midi.NoteOnEvent(tick=0, channel=9, data=[36, 127]),
   midi.NoteOnEvent(tick=120, channel=9, data=[57, 0]),
   midi.NoteOnEvent(tick=0, channel=9, data=[36, 0]),
   midi.NoteOnEvent(tick=60, channel=9, data=[42, 127]),
   midi.NoteOnEvent(tick=0, channel=9, data=[36, 127]),
   midi.NoteOnEvent(tick=60, channel=9, data=[42, 0]),
   midi.NoteOnEvent(tick=0, channel=9, data=[36, 0]),
   midi.NoteOnEvent(tick=0, channel=9, data=[42, 127]),
   midi.NoteOnEvent(tick=0, channel=9, data=[36, 127]),
   midi.NoteOnEvent(tick=60, channel=9, data=[42, 0]),
   midi.NoteOnEvent(tick=0, channel=9, data=[42, 127]),
   midi.NoteOnEvent(tick=60, channel=9, data=[36, 0]),
   midi.NoteOnEvent(tick=0, channel=9, data=[42, 0]),
   midi.NoteOnEvent(tick=0, channel=9, data=[42, 127]),
   midi.NoteOnEvent(tick=0, channel=9, data=[36, 127]),
   midi.NoteOnEvent(tick=60, channel=9, data=[42, 0]),
   midi.NoteOnEvent(tick=0, channel=9, data=[42, 127]),
   midi.NoteOnEvent(tick=60, channel=9, data=[36, 0]),
   midi.NoteOnEvent(tick=0, channel=9, data=[42, 0]),
   midi.NoteOnEvent(tick=0, channel=9, data=[42, 127]),
   midi.NoteOnEvent(tick=0, channel=9, data=[36, 127]),
   midi.NoteOnEvent(tick=60, channel=9, data=[42, 0]),
   midi.NoteOnEvent(tick=0, channel=9, data=[36, 0]),
   midi.NoteOnEvent(tick=0, channel=9, data=[42, 127]),
   midi.NoteOnEvent(tick=0, channel=9, data=[36, 127]),
   midi.NoteOnEvent(tick=60, channel=9, data=[42, 0]),
   midi.NoteOnEvent(tick=0, channel=9, data=[36, 0]),
   midi.NoteOnEvent(tick=0, channel=9, data=[36, 127]),
   midi.NoteOnEvent(tick=0, channel=9, data=[57, 127]),
   midi.NoteOnEvent(tick=60, channel=9, data=[57, 0]),
   midi.NoteOnEvent(tick=0, channel=9, data=[42, 127]),
   midi.NoteOnEvent(tick=60, channel=9, data=[36, 0]),
   midi.NoteOnEvent(tick=0, channel=9, data=[42, 0]),
   midi.NoteOnEvent(tick=0, channel=9, data=[42, 127]),
   midi.NoteOnEvent(tick=60, channel=9, data=[42, 0]),
   midi.NoteOnEvent(tick=0, channel=9, data=[57, 127]),
   midi.NoteOnEvent(tick=0, channel=9, data=[36, 127]),
   midi.NoteOnEvent(tick=60, channel=9, data=[57, 0]),
   midi.NoteOnEvent(tick=0, channel=9, data=[36, 0]),
   midi.NoteOnEvent(tick=0, channel=9, data=[42, 127]),
   midi.NoteOnEvent(tick=60, channel=9, data=[42, 0]),
   midi.NoteOnEvent(tick=0, channel=9, data=[42, 127]),
   midi.NoteOnEvent(tick=60, channel=9, data=[42, 0]),
   midi.NoteOnEvent(tick=0, channel=9, data=[57, 127]),
   midi.NoteOnEvent(tick=0, channel=9, data=[36, 127]),
   midi.NoteOnEvent(tick=60, channel=9, data=[57, 0]),
   midi.NoteOnEvent(tick=0, channel=9, data=[42, 127]),
   midi.NoteOnEvent(tick=60, channel=9, data=[36, 0]),
   midi.NoteOnEvent(tick=0, channel=9, data=[42, 0]),
   midi.NoteOnEvent(tick=0, channel=9, data=[42, 127]),
   midi.NoteOnEvent(tick=60, channel=9, data=[42, 0]),
   midi.NoteOnEvent(tick=0, channel=9, data=[42, 127]),
   midi.NoteOnEvent(tick=0, channel=9, data=[36, 127]),
   midi.NoteOnEvent(tick=60, channel=9, data=[42, 0]),
   midi.NoteOnEvent(tick=0, channel=9, data=[36, 0]),
   midi.NoteOnEvent(tick=0, channel=9, data=[42, 127]),
   midi.NoteOnEvent(tick=0, channel=9, data=[36, 127]),
   midi.NoteOnEvent(tick=60, channel=9, data=[42, 0]),
   midi.NoteOnEvent(tick=0, channel=9, data=[42, 127]),
   midi.NoteOnEvent(tick=60, channel=9, data=[36, 0]),
   midi.NoteOnEvent(tick=0, channel=9, data=[42, 0]),
   midi.NoteOnEvent(tick=0, channel=9, data=[42, 127]),
   midi.NoteOnEvent(tick=0, channel=9, data=[36, 127]),
   midi.NoteOnEvent(tick=60, channel=9, data=[42, 0]),
   midi.NoteOnEvent(tick=0, channel=9, data=[42, 127]),
   midi.NoteOnEvent(tick=60, channel=9, data=[36, 0]),
   midi.NoteOnEvent(tick=0, channel=9, data=[42, 0]),
   midi.NoteOnEvent(tick=0, channel=9, data=[42, 127]),
   midi.NoteOnEvent(tick=0, channel=9, data=[36, 127]),
   midi.NoteOnEvent(tick=60, channel=9, data=[42, 0]),
   midi.NoteOnEvent(tick=0, channel=9, data=[36, 0]),
   midi.NoteOnEvent(tick=0, channel=9, data=[42, 127]),
   midi.NoteOnEvent(tick=0, channel=9, data=[36, 127]),
   midi.NoteOnEvent(tick=60, channel=9, data=[42, 0]),
   midi.NoteOnEvent(tick=0, channel=9, data=[36, 0]),
   midi.NoteOnEvent(tick=0, channel=9, data=[57, 127]),
   midi.NoteOnEvent(tick=0, channel=9, data=[38, 127]),
   midi.NoteOnEvent(tick=60, channel=9, data=[57, 0]),
   midi.NoteOnEvent(tick=0, channel=9, data=[38, 0]),
   midi.NoteOnEvent(tick=0, channel=9, data=[42, 127]),
   midi.NoteOnEvent(tick=60, channel=9, data=[42, 0]),
   midi.NoteOnEvent(tick=0, channel=9, data=[42, 127]),
   midi.NoteOnEvent(tick=60, channel=9, data=[42, 0]),
   midi.NoteOnEvent(tick=0, channel=9, data=[57, 127]),
   midi.NoteOnEvent(tick=0, channel=9, data=[38, 127]),
   midi.NoteOnEvent(tick=60, channel=9, data=[57, 0]),
   midi.NoteOnEvent(tick=0, channel=9, data=[38, 0]),
   midi.NoteOnEvent(tick=0, channel=9, data=[42, 127]),
   midi.NoteOnEvent(tick=60, channel=9, data=[42, 0]),
   midi.NoteOnEvent(tick=0, channel=9, data=[42, 127]),
   midi.NoteOnEvent(tick=60, channel=9, data=[42, 0]),
   midi.NoteOnEvent(tick=0, channel=9, data=[57, 127]),
   midi.NoteOnEvent(tick=0, channel=9, data=[38, 127]),
   midi.NoteOnEvent(tick=60, channel=9, data=[57, 0]),
   midi.NoteOnEvent(tick=0, channel=9, data=[38, 0]),
   midi.NoteOnEvent(tick=0, channel=9, data=[42, 127]),
   midi.NoteOnEvent(tick=60, channel=9, data=[42, 0]),
   midi.NoteOnEvent(tick=0, channel=9, data=[42, 127]),
   midi.NoteOnEvent(tick=60, channel=9, data=[42, 0]),
   midi.NoteOnEvent(tick=0, channel=9, data=[36, 127]),
   midi.NoteOnEvent(tick=0, channel=9, data=[42, 127]),
   midi.NoteOnEvent(tick=60, channel=9, data=[36, 0]),
   midi.NoteOnEvent(tick=0, channel=9, data=[42, 0]),
   midi.NoteOnEvent(tick=0, channel=9, data=[42, 127]),
   midi.NoteOnEvent(tick=0, channel=9, data=[36, 127]),
   midi.NoteOnEvent(tick=60, channel=9, data=[42, 0]),
   midi.NoteOnEvent(tick=0, channel=9, data=[42, 127]),
   midi.NoteOnEvent(tick=60, channel=9, data=[36, 0]),
   midi.NoteOnEvent(tick=0, channel=9, data=[42, 0]),
   midi.NoteOnEvent(tick=0, channel=9, data=[42, 127]),
   midi.NoteOnEvent(tick=0, channel=9, data=[36, 127]),
   midi.NoteOnEvent(tick=60, channel=9, data=[42, 0]),
   midi.NoteOnEvent(tick=0, channel=9, data=[42, 127]),
   midi.NoteOnEvent(tick=60, channel=9, data=[36, 0]),
   midi.NoteOnEvent(tick=0, channel=9, data=[42, 0]),
   midi.NoteOnEvent(tick=0, channel=9, data=[42, 127]),
   midi.NoteOnEvent(tick=0, channel=9, data=[36, 127]),
   midi.NoteOnEvent(tick=60, channel=9, data=[42, 0]),
   midi.NoteOnEvent(tick=0, channel=9, data=[36, 0]),
   midi.NoteOnEvent(tick=0, channel=9, data=[42, 127]),
   midi.NoteOnEvent(tick=0, channel=9, data=[36, 127]),
   midi.NoteOnEvent(tick=60, channel=9, data=[42, 0]),
   midi.NoteOnEvent(tick=0, channel=9, data=[36, 0]),
   midi.NoteOnEvent(tick=0, channel=9, data=[36, 127]),
   midi.NoteOnEvent(tick=0, channel=9, data=[57, 127]),
   midi.NoteOnEvent(tick=60, channel=9, data=[57, 0]),
   midi.NoteOnEvent(tick=0, channel=9, data=[42, 127]),
   midi.NoteOnEvent(tick=60, channel=9, data=[36, 0]),
   midi.NoteOnEvent(tick=0, channel=9, data=[42, 0]),
   midi.NoteOnEvent(tick=0, channel=9, data=[42, 127]),
   midi.NoteOnEvent(tick=60, channel=9, data=[42, 0]),
   midi.NoteOnEvent(tick=0, channel=9, data=[57, 127]),
   midi.NoteOnEvent(tick=0, channel=9, data=[36, 127]),
   midi.NoteOnEvent(tick=60, channel=9, data=[57, 0]),
   midi.NoteOnEvent(tick=0, channel=9, data=[36, 0]),
   midi.NoteOnEvent(tick=0, channel=9, data=[42, 127]),
   midi.NoteOnEvent(tick=60, channel=9, data=[42, 0]),
   midi.NoteOnEvent(tick=0, channel=9, data=[42, 127]),
   midi.NoteOnEvent(tick=60, channel=9, data=[42, 0]),
   midi.NoteOnEvent(tick=0, channel=9, data=[57, 127]),
   midi.NoteOnEvent(tick=0, channel=9, data=[36, 127]),
   midi.NoteOnEvent(tick=60, channel=9, data=[57, 0]),
   midi.NoteOnEvent(tick=0, channel=9, data=[42, 127]),
   midi.NoteOnEvent(tick=60, channel=9, data=[36, 0]),
   midi.NoteOnEvent(tick=0, channel=9, data=[42, 0]),
   midi.NoteOnEvent(tick=0, channel=9, data=[42, 127]),
   midi.NoteOnEvent(tick=60, channel=9, data=[42, 0]),
   midi.NoteOnEvent(tick=0, channel=9, data=[42, 127]),
   midi.NoteOnEvent(tick=0, channel=9, data=[36, 127]),
   midi.NoteOnEvent(tick=60, channel=9, data=[42, 0]),
   midi.NoteOnEvent(tick=0, channel=9, data=[36, 0]),
   midi.NoteOnEvent(tick=0, channel=9, data=[42, 127]),
   midi.NoteOnEvent(tick=0, channel=9, data=[36, 127]),
   midi.NoteOnEvent(tick=60, channel=9, data=[42, 0]),
   midi.NoteOnEvent(tick=0, channel=9, data=[42, 127]),
   midi.NoteOnEvent(tick=60, channel=9, data=[36, 0]),
   midi.NoteOnEvent(tick=0, channel=9, data=[42, 0]),
   midi.NoteOnEvent(tick=0, channel=9, data=[42, 127]),
   midi.NoteOnEvent(tick=0, channel=9, data=[36, 127]),
   midi.NoteOnEvent(tick=60, channel=9, data=[42, 0]),
   midi.NoteOnEvent(tick=0, channel=9, data=[42, 127]),
   midi.NoteOnEvent(tick=60, channel=9, data=[36, 0]),
   midi.NoteOnEvent(tick=0, channel=9, data=[42, 0]),
   midi.NoteOnEvent(tick=0, channel=9, data=[42, 127]),
   midi.NoteOnEvent(tick=0, channel=9, data=[36, 127]),
   midi.NoteOnEvent(tick=60, channel=9, data=[42, 0]),
   midi.NoteOnEvent(tick=0, channel=9, data=[36, 0]),
   midi.NoteOnEvent(tick=0, channel=9, data=[42, 127]),
   midi.NoteOnEvent(tick=0, channel=9, data=[36, 127]),
   midi.NoteOnEvent(tick=60, channel=9, data=[42, 0]),
   midi.NoteOnEvent(tick=0, channel=9, data=[36, 0]),
   midi.NoteOnEvent(tick=0, channel=9, data=[57, 127]),
   midi.NoteOnEvent(tick=0, channel=9, data=[38, 127]),
   midi.NoteOnEvent(tick=60, channel=9, data=[57, 0]),
   midi.NoteOnEvent(tick=0, channel=9, data=[38, 0]),
   midi.NoteOnEvent(tick=0, channel=9, data=[42, 127]),
   midi.NoteOnEvent(tick=60, channel=9, data=[42, 0]),
   midi.NoteOnEvent(tick=0, channel=9, data=[42, 127]),
   midi.NoteOnEvent(tick=60, channel=9, data=[42, 0]),
   midi.NoteOnEvent(tick=0, channel=9, data=[57, 127]),
   midi.NoteOnEvent(tick=0, channel=9, data=[38, 127]),
   midi.NoteOnEvent(tick=60, channel=9, data=[57, 0]),
   midi.NoteOnEvent(tick=0, channel=9, data=[38, 0]),
   midi.NoteOnEvent(tick=0, channel=9, data=[42, 127]),
   midi.NoteOnEvent(tick=60, channel=9, data=[42, 0]),
   midi.NoteOnEvent(tick=0, channel=9, data=[42, 127]),
   midi.NoteOnEvent(tick=60, channel=9, data=[42, 0]),
   midi.NoteOnEvent(tick=0, channel=9, data=[57, 127]),
   midi.NoteOnEvent(tick=0, channel=9, data=[38, 127]),
   midi.NoteOnEvent(tick=60, channel=9, data=[57, 0]),
   midi.NoteOnEvent(tick=0, channel=9, data=[38, 0]),
   midi.NoteOnEvent(tick=0, channel=9, data=[42, 127]),
   midi.NoteOnEvent(tick=60, channel=9, data=[42, 0]),
   midi.NoteOnEvent(tick=0, channel=9, data=[42, 127]),
   midi.NoteOnEvent(tick=60, channel=9, data=[42, 0]),
   midi.NoteOnEvent(tick=0, channel=9, data=[36, 127]),
   midi.NoteOnEvent(tick=0, channel=9, data=[42, 127]),
   midi.NoteOnEvent(tick=60, channel=9, data=[36, 0]),
   midi.NoteOnEvent(tick=0, channel=9, data=[42, 0]),
   midi.NoteOnEvent(tick=0, channel=9, data=[42, 127]),
   midi.NoteOnEvent(tick=60, channel=9, data=[42, 0]),
   midi.NoteOnEvent(tick=0, channel=9, data=[38, 127]),
   midi.NoteOnEvent(tick=0, channel=9, data=[42, 127]),
   midi.NoteOnEvent(tick=60, channel=9, data=[38, 0]),
   midi.NoteOnEvent(tick=0, channel=9, data=[42, 0]),
   midi.NoteOnEvent(tick=0, channel=9, data=[42, 127]),
   midi.NoteOnEvent(tick=60, channel=9, data=[42, 0]),
   midi.NoteOnEvent(tick=0, channel=9, data=[57, 127]),
   midi.NoteOnEvent(tick=0, channel=9, data=[36, 127]),
   midi.NoteOnEvent(tick=60, channel=9, data=[57, 0]),
   midi.NoteOnEvent(tick=0, channel=9, data=[36, 0]),
   midi.NoteOnEvent(tick=0, channel=9, data=[57, 127]),
   midi.NoteOnEvent(tick=0, channel=9, data=[36, 127]),
   midi.NoteOnEvent(tick=60, channel=9, data=[57, 0]),
   midi.NoteOnEvent(tick=0, channel=9, data=[42, 127]),
   midi.NoteOnEvent(tick=60, channel=9, data=[36, 0]),
   midi.NoteOnEvent(tick=0, channel=9, data=[42, 0]),
   midi.NoteOnEvent(tick=0, channel=9, data=[38, 127]),
   midi.NoteOnEvent(tick=0, channel=9, data=[42, 127]),
   midi.NoteOnEvent(tick=60, channel=9, data=[38, 0]),
   midi.NoteOnEvent(tick=0, channel=9, data=[42, 0]),
   midi.NoteOnEvent(tick=0, channel=9, data=[42, 127]),
   midi.NoteOnEvent(tick=60, channel=9, data=[42, 0]),
   midi.NoteOnEvent(tick=0, channel=9, data=[42, 127]),
   midi.NoteOnEvent(tick=0, channel=9, data=[36, 127]),
   midi.NoteOnEvent(tick=60, channel=9, data=[42, 0]),
   midi.NoteOnEvent(tick=0, channel=9, data=[42, 127]),
   midi.NoteOnEvent(tick=60, channel=9, data=[36, 0]),
   midi.NoteOnEvent(tick=0, channel=9, data=[42, 0]),
   midi.NoteOnEvent(tick=0, channel=9, data=[38, 127]),
   midi.NoteOnEvent(tick=0, channel=9, data=[42, 127]),
   midi.NoteOnEvent(tick=60, channel=9, data=[38, 0]),
   midi.NoteOnEvent(tick=0, channel=9, data=[42, 0]),
   midi.NoteOnEvent(tick=0, channel=9, data=[42, 127]),
   midi.NoteOnEvent(tick=60, channel=9, data=[42, 0]),
   midi.NoteOnEvent(tick=0, channel=9, data=[42, 127]),
   midi.NoteOnEvent(tick=0, channel=9, data=[36, 127]),
   midi.NoteOnEvent(tick=60, channel=9, data=[42, 0]),
   midi.NoteOnEvent(tick=0, channel=9, data=[42, 127]),
   midi.NoteOnEvent(tick=60, channel=9, data=[36, 0]),
   midi.NoteOnEvent(tick=0, channel=9, data=[42, 0]),
   midi.NoteOnEvent(tick=0, channel=9, data=[38, 127]),
   midi.NoteOnEvent(tick=0, channel=9, data=[42, 127]),
   midi.NoteOnEvent(tick=60, channel=9, data=[38, 0]),
   midi.NoteOnEvent(tick=0, channel=9, data=[42, 0]),
   midi.NoteOnEvent(tick=0, channel=9, data=[42, 127]),
   midi.NoteOnEvent(tick=60, channel=9, data=[42, 0]),
   midi.NoteOnEvent(tick=0, channel=9, data=[42, 127]),
   midi.NoteOnEvent(tick=0, channel=9, data=[36, 127]),
   midi.NoteOnEvent(tick=60, channel=9, data=[42, 0]),
   midi.NoteOnEvent(tick=0, channel=9, data=[42, 127]),
   midi.NoteOnEvent(tick=60, channel=9, data=[36, 0]),
   midi.NoteOnEvent(tick=0, channel=9, data=[42, 0]),
   midi.NoteOnEvent(tick=0, channel=9, data=[38, 127]),
   midi.NoteOnEvent(tick=0, channel=9, data=[42, 127]),
   midi.NoteOnEvent(tick=60, channel=9, data=[38, 0]),
   midi.NoteOnEvent(tick=0, channel=9, data=[42, 0]),
   midi.NoteOnEvent(tick=0, channel=9, data=[42, 127]),
   midi.NoteOnEvent(tick=0, channel=9, data=[36, 127]),
   midi.NoteOnEvent(tick=60, channel=9, data=[42, 0]),
   midi.NoteOnEvent(tick=0, channel=9, data=[36, 0]),
   midi.NoteOnEvent(tick=0, channel=9, data=[42, 127]),
   midi.NoteOnEvent(tick=0, channel=9, data=[36, 127]),
   midi.NoteOnEvent(tick=60, channel=9, data=[42, 0]),
   midi.NoteOnEvent(tick=0, channel=9, data=[42, 127]),
   midi.NoteOnEvent(tick=60, channel=9, data=[36, 0]),
   midi.NoteOnEvent(tick=0, channel=9, data=[42, 0]),
   midi.NoteOnEvent(tick=0, channel=9, data=[57, 127]),
   midi.NoteOnEvent(tick=0, channel=9, data=[38, 127]),
   midi.NoteOnEvent(tick=60, channel=9, data=[57, 0]),
   midi.NoteOnEvent(tick=0, channel=9, data=[38, 0]),
   midi.NoteOnEvent(tick=0, channel=9, data=[42, 127]),
   midi.NoteOnEvent(tick=60, channel=9, data=[42, 0]),
   midi.NoteOnEvent(tick=0, channel=9, data=[42, 127]),
   midi.NoteOnEvent(tick=60, channel=9, data=[42, 0]),
   midi.NoteOnEvent(tick=0, channel=9, data=[57, 127]),
   midi.NoteOnEvent(tick=0, channel=9, data=[38, 127]),
   midi.NoteOnEvent(tick=60, channel=9, data=[57, 0]),
   midi.NoteOnEvent(tick=0, channel=9, data=[38, 0]),
   midi.NoteOnEvent(tick=0, channel=9, data=[42, 127]),
   midi.NoteOnEvent(tick=60, channel=9, data=[42, 0]),
   midi.NoteOnEvent(tick=0, channel=9, data=[42, 127]),
   midi.NoteOnEvent(tick=60, channel=9, data=[42, 0]),
   midi.NoteOnEvent(tick=0, channel=9, data=[57, 127]),
   midi.NoteOnEvent(tick=0, channel=9, data=[38, 127]),
   midi.NoteOnEvent(tick=60, channel=9, data=[57, 0]),
   midi.NoteOnEvent(tick=0, channel=9, data=[38, 0]),
   midi.NoteOnEvent(tick=0, channel=9, data=[42, 127]),
   midi.NoteOnEvent(tick=60, channel=9, data=[42, 0]),
   midi.NoteOnEvent(tick=0, channel=9, data=[42, 127]),
   midi.NoteOnEvent(tick=60, channel=9, data=[42, 0]),
   midi.NoteOnEvent(tick=0, channel=9, data=[42, 127]),
   midi.NoteOnEvent(tick=0, channel=9, data=[36, 127]),
   midi.NoteOnEvent(tick=60, channel=9, data=[42, 0]),
   midi.NoteOnEvent(tick=0, channel=9, data=[36, 0]),
   midi.NoteOnEvent(tick=0, channel=9, data=[42, 127]),
   midi.NoteOnEvent(tick=60, channel=9, data=[42, 0]),
   midi.NoteOnEvent(tick=0, channel=9, data=[38, 127]),
   midi.NoteOnEvent(tick=0, channel=9, data=[42, 127]),
   midi.NoteOnEvent(tick=60, channel=9, data=[38, 0]),
   midi.NoteOnEvent(tick=0, channel=9, data=[42, 0]),
   midi.NoteOnEvent(tick=0, channel=9, data=[42, 127]),
   midi.NoteOnEvent(tick=60, channel=9, data=[42, 0]),
   midi.NoteOnEvent(tick=0, channel=9, data=[42, 127]),
   midi.NoteOnEvent(tick=0, channel=9, data=[36, 127]),
   midi.NoteOnEvent(tick=60, channel=9, data=[42, 0]),
   midi.NoteOnEvent(tick=0, channel=9, data=[36, 0]),
   midi.NoteOnEvent(tick=0, channel=9, data=[42, 127]),
   midi.NoteOnEvent(tick=0, channel=9, data=[36, 127]),
   midi.NoteOnEvent(tick=60, channel=9, data=[42, 0]),
   midi.NoteOnEvent(tick=0, channel=9, data=[42, 127]),
   midi.NoteOnEvent(tick=60, channel=9, data=[36, 0]),
   midi.NoteOnEvent(tick=0, channel=9, data=[42, 0]),
   midi.NoteOnEvent(tick=0, channel=9, data=[38, 127]),
   midi.NoteOnEvent(tick=0, channel=9, data=[42, 127]),
   midi.NoteOnEvent(tick=60, channel=9, data=[38, 0]),
   midi.NoteOnEvent(tick=0, channel=9, data=[42, 0]),
   midi.NoteOnEvent(tick=0, channel=9, data=[42, 127]),
   midi.NoteOnEvent(tick=60, channel=9, data=[42, 0]),
   midi.NoteOnEvent(tick=0, channel=9, data=[42, 127]),
   midi.NoteOnEvent(tick=0, channel=9, data=[36, 127]),
   midi.NoteOnEvent(tick=60, channel=9, data=[42, 0]),
   midi.NoteOnEvent(tick=0, channel=9, data=[42, 127]),
   midi.NoteOnEvent(tick=60, channel=9, data=[36, 0]),
   midi.NoteOnEvent(tick=0, channel=9, data=[42, 0]),
   midi.NoteOnEvent(tick=0, channel=9, data=[38, 127]),
   midi.NoteOnEvent(tick=0, channel=9, data=[42, 127]),
   midi.NoteOnEvent(tick=60, channel=9, data=[38, 0]),
   midi.NoteOnEvent(tick=0, channel=9, data=[42, 0]),
   midi.NoteOnEvent(tick=0, channel=9, data=[42, 127]),
   midi.NoteOnEvent(tick=60, channel=9, data=[42, 0]),
   midi.NoteOnEvent(tick=0, channel=9, data=[42, 127]),
   midi.NoteOnEvent(tick=0, channel=9, data=[36, 127]),
   midi.NoteOnEvent(tick=60, channel=9, data=[42, 0]),
   midi.NoteOnEvent(tick=0, channel=9, data=[42, 127]),
   midi.NoteOnEvent(tick=60, channel=9, data=[36, 0]),
   midi.NoteOnEvent(tick=0, channel=9, data=[42, 0]),
   midi.NoteOnEvent(tick=0, channel=9, data=[38, 127]),
   midi.NoteOnEvent(tick=0, channel=9, data=[42, 127]),
   midi.NoteOnEvent(tick=60, channel=9, data=[38, 0]),
   midi.NoteOnEvent(tick=0, channel=9, data=[42, 0]),
   midi.NoteOnEvent(tick=0, channel=9, data=[42, 127]),
   midi.NoteOnEvent(tick=60, channel=9, data=[42, 0]),
   midi.NoteOnEvent(tick=0, channel=9, data=[42, 127]),
   midi.NoteOnEvent(tick=0, channel=9, data=[36, 127]),
   midi.NoteOnEvent(tick=60, channel=9, data=[42, 0]),
   midi.NoteOnEvent(tick=0, channel=9, data=[42, 127]),
   midi.NoteOnEvent(tick=60, channel=9, data=[36, 0]),
   midi.NoteOnEvent(tick=0, channel=9, data=[42, 0]),
   midi.NoteOnEvent(tick=0, channel=9, data=[38, 127]),
   midi.NoteOnEvent(tick=0, channel=9, data=[42, 127]),
   midi.NoteOnEvent(tick=60, channel=9, data=[38, 0]),
   midi.NoteOnEvent(tick=0, channel=9, data=[42, 0]),
   midi.NoteOnEvent(tick=0, channel=9, data=[42, 127]),
   midi.NoteOnEvent(tick=60, channel=9, data=[42, 0]),
   midi.NoteOnEvent(tick=0, channel=9, data=[42, 127]),
   midi.NoteOnEvent(tick=0, channel=9, data=[36, 127]),
   midi.NoteOnEvent(tick=60, channel=9, data=[42, 0]),
   midi.NoteOnEvent(tick=0, channel=9, data=[36, 0]),
   midi.NoteOnEvent(tick=0, channel=9, data=[42, 127]),
   midi.NoteOnEvent(tick=0, channel=9, data=[36, 127]),
   midi.NoteOnEvent(tick=60, channel=9, data=[42, 0]),
   midi.NoteOnEvent(tick=0, channel=9, data=[36, 0]),
   midi.NoteOnEvent(tick=0, channel=9, data=[57, 127]),
   midi.NoteOnEvent(tick=0, channel=9, data=[38, 127]),
   midi.NoteOnEvent(tick=60, channel=9, data=[57, 0]),
   midi.NoteOnEvent(tick=0, channel=9, data=[38, 0]),
   midi.NoteOnEvent(tick=0, channel=9, data=[42, 127]),
   midi.NoteOnEvent(tick=60, channel=9, data=[42, 0]),
   midi.NoteOnEvent(tick=0, channel=9, data=[42, 127]),
   midi.NoteOnEvent(tick=60, channel=9, data=[42, 0]),
   midi.NoteOnEvent(tick=0, channel=9, data=[57, 127]),
   midi.NoteOnEvent(tick=0, channel=9, data=[38, 127]),
   midi.NoteOnEvent(tick=60, channel=9, data=[57, 0]),
   midi.NoteOnEvent(tick=0, channel=9, data=[38, 0]),
   midi.NoteOnEvent(tick=0, channel=9, data=[42, 127]),
   midi.NoteOnEvent(tick=60, channel=9, data=[42, 0]),
   midi.NoteOnEvent(tick=0, channel=9, data=[42, 127]),
   midi.NoteOnEvent(tick=60, channel=9, data=[42, 0]),
   midi.NoteOnEvent(tick=0, channel=9, data=[57, 127]),
   midi.NoteOnEvent(tick=0, channel=9, data=[38, 127]),
   midi.NoteOnEvent(tick=60, channel=9, data=[57, 0]),
   midi.NoteOnEvent(tick=0, channel=9, data=[38, 0]),
   midi.NoteOnEvent(tick=0, channel=9, data=[42, 127]),
   midi.NoteOnEvent(tick=60, channel=9, data=[42, 0]),
   midi.NoteOnEvent(tick=0, channel=9, data=[42, 127]),
   midi.NoteOnEvent(tick=60, channel=9, data=[42, 0]),
   midi.NoteOnEvent(tick=0, channel=9, data=[36, 127]),
   midi.NoteOnEvent(tick=0, channel=9, data=[42, 127]),
   midi.NoteOnEvent(tick=60, channel=9, data=[36, 0]),
   midi.NoteOnEvent(tick=0, channel=9, data=[42, 0]),
   midi.NoteOnEvent(tick=0, channel=9, data=[42, 127]),
   midi.NoteOnEvent(tick=60, channel=9, data=[42, 0]),
   midi.NoteOnEvent(tick=0, channel=9, data=[38, 127]),
   midi.NoteOnEvent(tick=0, channel=9, data=[42, 127]),
   midi.NoteOnEvent(tick=60, channel=9, data=[38, 0]),
   midi.NoteOnEvent(tick=0, channel=9, data=[42, 0]),
   midi.NoteOnEvent(tick=0, channel=9, data=[42, 127]),
   midi.NoteOnEvent(tick=60, channel=9, data=[42, 0]),
   midi.NoteOnEvent(tick=0, channel=9, data=[42, 127]),
   midi.NoteOnEvent(tick=0, channel=9, data=[36, 127]),
   midi.NoteOnEvent(tick=60, channel=9, data=[42, 0]),
   midi.NoteOnEvent(tick=0, channel=9, data=[36, 0]),
   midi.NoteOnEvent(tick=0, channel=9, data=[42, 127]),
   midi.NoteOnEvent(tick=0, channel=9, data=[36, 127]),
   midi.NoteOnEvent(tick=60, channel=9, data=[42, 0]),
   midi.NoteOnEvent(tick=0, channel=9, data=[42, 127]),
   midi.NoteOnEvent(tick=60, channel=9, data=[36, 0]),
   midi.NoteOnEvent(tick=0, channel=9, data=[42, 0]),
   midi.NoteOnEvent(tick=0, channel=9, data=[38, 127]),
   midi.NoteOnEvent(tick=0, channel=9, data=[42, 127]),
   midi.NoteOnEvent(tick=60, channel=9, data=[38, 0]),
   midi.NoteOnEvent(tick=0, channel=9, data=[42, 0]),
   midi.NoteOnEvent(tick=0, channel=9, data=[42, 127]),
   midi.NoteOnEvent(tick=60, channel=9, data=[42, 0]),
   midi.NoteOnEvent(tick=0, channel=9, data=[42, 127]),
   midi.NoteOnEvent(tick=0, channel=9, data=[36, 127]),
   midi.NoteOnEvent(tick=60, channel=9, data=[42, 0]),
   midi.NoteOnEvent(tick=0, channel=9, data=[42, 127]),
   midi.NoteOnEvent(tick=60, channel=9, data=[36, 0]),
   midi.NoteOnEvent(tick=0, channel=9, data=[42, 0]),
   midi.NoteOnEvent(tick=0, channel=9, data=[38, 127]),
   midi.NoteOnEvent(tick=0, channel=9, data=[42, 127]),
   midi.NoteOnEvent(tick=60, channel=9, data=[38, 0]),
   midi.NoteOnEvent(tick=0, channel=9, data=[42, 0]),
   midi.NoteOnEvent(tick=0, channel=9, data=[42, 127]),
   midi.NoteOnEvent(tick=60, channel=9, data=[42, 0]),
   midi.NoteOnEvent(tick=0, channel=9, data=[42, 127]),
   midi.NoteOnEvent(tick=0, channel=9, data=[36, 127]),
   midi.NoteOnEvent(tick=60, channel=9, data=[42, 0]),
   midi.NoteOnEvent(tick=0, channel=9, data=[42, 127]),
   midi.NoteOnEvent(tick=60, channel=9, data=[36, 0]),
   midi.NoteOnEvent(tick=0, channel=9, data=[42, 0]),
   midi.NoteOnEvent(tick=0, channel=9, data=[38, 127]),
   midi.NoteOnEvent(tick=0, channel=9, data=[42, 127]),
   midi.NoteOnEvent(tick=60, channel=9, data=[38, 0]),
   midi.NoteOnEvent(tick=0, channel=9, data=[42, 0]),
   midi.NoteOnEvent(tick=0, channel=9, data=[42, 127]),
   midi.NoteOnEvent(tick=60, channel=9, data=[42, 0]),
   midi.NoteOnEvent(tick=0, channel=9, data=[42, 127]),
   midi.NoteOnEvent(tick=0, channel=9, data=[36, 127]),
   midi.NoteOnEvent(tick=60, channel=9, data=[42, 0]),
   midi.NoteOnEvent(tick=0, channel=9, data=[42, 127]),
   midi.NoteOnEvent(tick=60, channel=9, data=[36, 0]),
   midi.NoteOnEvent(tick=0, channel=9, data=[42, 0]),
   midi.NoteOnEvent(tick=0, channel=9, data=[38, 127]),
   midi.NoteOnEvent(tick=0, channel=9, data=[42, 127]),
   midi.NoteOnEvent(tick=60, channel=9, data=[38, 0]),
   midi.NoteOnEvent(tick=0, channel=9, data=[42, 0]),
   midi.NoteOnEvent(tick=0, channel=9, data=[42, 127]),
   midi.NoteOnEvent(tick=60, channel=9, data=[42, 0]),
   midi.NoteOnEvent(tick=0, channel=9, data=[42, 127]),
   midi.NoteOnEvent(tick=0, channel=9, data=[36, 127]),
   midi.NoteOnEvent(tick=60, channel=9, data=[42, 0]),
   midi.NoteOnEvent(tick=0, channel=9, data=[36, 0]),
   midi.NoteOnEvent(tick=0, channel=9, data=[42, 127]),
   midi.NoteOnEvent(tick=0, channel=9, data=[36, 127]),
   midi.NoteOnEvent(tick=60, channel=9, data=[42, 0]),
   midi.NoteOnEvent(tick=0, channel=9, data=[36, 0]),
   midi.NoteOnEvent(tick=0, channel=9, data=[57, 127]),
   midi.NoteOnEvent(tick=0, channel=9, data=[38, 127]),
   midi.NoteOnEvent(tick=60, channel=9, data=[57, 0]),
   midi.NoteOnEvent(tick=0, channel=9, data=[38, 0]),
   midi.NoteOnEvent(tick=0, channel=9, data=[42, 127]),
   midi.NoteOnEvent(tick=60, channel=9, data=[42, 0]),
   midi.NoteOnEvent(tick=0, channel=9, data=[42, 127]),
   midi.NoteOnEvent(tick=60, channel=9, data=[42, 0]),
   midi.NoteOnEvent(tick=0, channel=9, data=[57, 127]),
   midi.NoteOnEvent(tick=0, channel=9, data=[38, 127]),
   midi.NoteOnEvent(tick=60, channel=9, data=[57, 0]),
   midi.NoteOnEvent(tick=0, channel=9, data=[38, 0]),
   midi.NoteOnEvent(tick=0, channel=9, data=[42, 127]),
   midi.NoteOnEvent(tick=60, channel=9, data=[42, 0]),
   midi.NoteOnEvent(tick=0, channel=9, data=[42, 127]),
   midi.NoteOnEvent(tick=60, channel=9, data=[42, 0]),
   midi.NoteOnEvent(tick=0, channel=9, data=[57, 127]),
   midi.NoteOnEvent(tick=0, channel=9, data=[38, 127]),
   midi.NoteOnEvent(tick=60, channel=9, data=[57, 0]),
   midi.NoteOnEvent(tick=0, channel=9, data=[38, 0]),
   midi.NoteOnEvent(tick=0, channel=9, data=[42, 127]),
   midi.NoteOnEvent(tick=60, channel=9, data=[42, 0]),
   midi.NoteOnEvent(tick=0, channel=9, data=[42, 127]),
   midi.NoteOnEvent(tick=60, channel=9, data=[42, 0]),
   midi.NoteOnEvent(tick=0, channel=9, data=[36, 127]),
   midi.NoteOnEvent(tick=0, channel=9, data=[42, 127]),
   midi.NoteOnEvent(tick=60, channel=9, data=[36, 0]),
   midi.NoteOnEvent(tick=0, channel=9, data=[42, 0]),
   midi.NoteOnEvent(tick=0, channel=9, data=[42, 127]),
   midi.NoteOnEvent(tick=60, channel=9, data=[42, 0]),
   midi.NoteOnEvent(tick=0, channel=9, data=[38, 127]),
   midi.NoteOnEvent(tick=0, channel=9, data=[42, 127]),
   midi.NoteOnEvent(tick=60, channel=9, data=[38, 0]),
   midi.NoteOnEvent(tick=0, channel=9, data=[42, 0]),
   midi.NoteOnEvent(tick=0, channel=9, data=[42, 127]),
   midi.NoteOnEvent(tick=60, channel=9, data=[42, 0]),
   midi.NoteOnEvent(tick=0, channel=9, data=[42, 127]),
   midi.NoteOnEvent(tick=0, channel=9, data=[36, 127]),
   midi.NoteOnEvent(tick=60, channel=9, data=[42, 0]),
   midi.NoteOnEvent(tick=0, channel=9, data=[36, 0]),
   midi.NoteOnEvent(tick=0, channel=9, data=[42, 127]),
   midi.NoteOnEvent(tick=0, channel=9, data=[36, 127]),
   midi.NoteOnEvent(tick=60, channel=9, data=[42, 0]),
   midi.NoteOnEvent(tick=0, channel=9, data=[42, 127]),
   midi.NoteOnEvent(tick=60, channel=9, data=[36, 0]),
   midi.NoteOnEvent(tick=0, channel=9, data=[42, 0]),
   midi.NoteOnEvent(tick=0, channel=9, data=[38, 127]),
   midi.NoteOnEvent(tick=0, channel=9, data=[42, 127]),
   midi.NoteOnEvent(tick=60, channel=9, data=[38, 0]),
   midi.NoteOnEvent(tick=0, channel=9, data=[42, 0]),
   midi.NoteOnEvent(tick=0, channel=9, data=[42, 127]),
   midi.NoteOnEvent(tick=60, channel=9, data=[42, 0]),
   midi.NoteOnEvent(tick=0, channel=9, data=[42, 127]),
   midi.NoteOnEvent(tick=0, channel=9, data=[36, 127]),
   midi.NoteOnEvent(tick=60, channel=9, data=[42, 0]),
   midi.NoteOnEvent(tick=0, channel=9, data=[42, 127]),
   midi.NoteOnEvent(tick=60, channel=9, data=[36, 0]),
   midi.NoteOnEvent(tick=0, channel=9, data=[42, 0]),
   midi.NoteOnEvent(tick=0, channel=9, data=[38, 127]),
   midi.NoteOnEvent(tick=0, channel=9, data=[42, 127]),
   midi.NoteOnEvent(tick=60, channel=9, data=[38, 0]),
   midi.NoteOnEvent(tick=0, channel=9, data=[42, 0]),
   midi.NoteOnEvent(tick=0, channel=9, data=[42, 127]),
   midi.NoteOnEvent(tick=60, channel=9, data=[42, 0]),
   midi.NoteOnEvent(tick=0, channel=9, data=[42, 127]),
   midi.NoteOnEvent(tick=0, channel=9, data=[36, 127]),
   midi.NoteOnEvent(tick=60, channel=9, data=[42, 0]),
   midi.NoteOnEvent(tick=0, channel=9, data=[42, 127]),
   midi.NoteOnEvent(tick=60, channel=9, data=[36, 0]),
   midi.NoteOnEvent(tick=0, channel=9, data=[42, 0]),
   midi.NoteOnEvent(tick=0, channel=9, data=[38, 127]),
   midi.NoteOnEvent(tick=0, channel=9, data=[42, 127]),
   midi.NoteOnEvent(tick=60, channel=9, data=[38, 0]),
   midi.NoteOnEvent(tick=0, channel=9, data=[42, 0]),
   midi.NoteOnEvent(tick=0, channel=9, data=[42, 127]),
   midi.NoteOnEvent(tick=60, channel=9, data=[42, 0]),
   midi.NoteOnEvent(tick=0, channel=9, data=[42, 127]),
   midi.NoteOnEvent(tick=0, channel=9, data=[36, 127]),
   midi.NoteOnEvent(tick=60, channel=9, data=[42, 0]),
   midi.NoteOnEvent(tick=0, channel=9, data=[42, 127]),
   midi.NoteOnEvent(tick=60, channel=9, data=[36, 0]),
   midi.NoteOnEvent(tick=0, channel=9, data=[42, 0]),
   midi.NoteOnEvent(tick=0, channel=9, data=[38, 127]),
   midi.NoteOnEvent(tick=0, channel=9, data=[42, 127]),
   midi.NoteOnEvent(tick=60, channel=9, data=[38, 0]),
   midi.NoteOnEvent(tick=0, channel=9, data=[42, 0]),
   midi.NoteOnEvent(tick=0, channel=9, data=[42, 127]),
   midi.NoteOnEvent(tick=60, channel=9, data=[42, 0]),
   midi.NoteOnEvent(tick=0, channel=9, data=[42, 127]),
   midi.NoteOnEvent(tick=0, channel=9, data=[36, 127]),
   midi.NoteOnEvent(tick=60, channel=9, data=[42, 0]),
   midi.NoteOnEvent(tick=0, channel=9, data=[36, 0]),
   midi.NoteOnEvent(tick=0, channel=9, data=[42, 127]),
   midi.NoteOnEvent(tick=0, channel=9, data=[36, 127]),
   midi.NoteOnEvent(tick=60, channel=9, data=[42, 0]),
   midi.NoteOnEvent(tick=0, channel=9, data=[36, 0]),
   midi.NoteOnEvent(tick=0, channel=9, data=[57, 127]),
   midi.NoteOnEvent(tick=0, channel=9, data=[38, 127]),
   midi.NoteOnEvent(tick=60, channel=9, data=[57, 0]),
   midi.NoteOnEvent(tick=0, channel=9, data=[38, 0]),
   midi.NoteOnEvent(tick=0, channel=9, data=[42, 127]),
   midi.NoteOnEvent(tick=60, channel=9, data=[42, 0]),
   midi.NoteOnEvent(tick=0, channel=9, data=[42, 127]),
   midi.NoteOnEvent(tick=60, channel=9, data=[42, 0]),
   midi.NoteOnEvent(tick=0, channel=9, data=[57, 127]),
   midi.NoteOnEvent(tick=0, channel=9, data=[38, 127]),
   midi.NoteOnEvent(tick=60, channel=9, data=[57, 0]),
   midi.NoteOnEvent(tick=0, channel=9, data=[38, 0]),
   midi.NoteOnEvent(tick=0, channel=9, data=[42, 127]),
   midi.NoteOnEvent(tick=60, channel=9, data=[42, 0]),
   midi.NoteOnEvent(tick=0, channel=9, data=[42, 127]),
   midi.NoteOnEvent(tick=60, channel=9, data=[42, 0]),
   midi.NoteOnEvent(tick=0, channel=9, data=[57, 127]),
   midi.NoteOnEvent(tick=0, channel=9, data=[38, 127]),
   midi.NoteOnEvent(tick=60, channel=9, data=[57, 0]),
   midi.NoteOnEvent(tick=0, channel=9, data=[38, 0]),
   midi.NoteOnEvent(tick=0, channel=9, data=[42, 127]),
   midi.NoteOnEvent(tick=60, channel=9, data=[42, 0]),
   midi.NoteOnEvent(tick=0, channel=9, data=[42, 127]),
   midi.NoteOnEvent(tick=60, channel=9, data=[42, 0]),
   midi.NoteOnEvent(tick=0, channel=9, data=[36, 127]),
   midi.NoteOnEvent(tick=0, channel=9, data=[42, 127]),
   midi.NoteOnEvent(tick=60, channel=9, data=[36, 0]),
   midi.NoteOnEvent(tick=0, channel=9, data=[42, 0]),
   midi.NoteOnEvent(tick=0, channel=9, data=[42, 127]),
   midi.NoteOnEvent(tick=60, channel=9, data=[42, 0]),
   midi.NoteOnEvent(tick=0, channel=9, data=[38, 127]),
   midi.NoteOnEvent(tick=0, channel=9, data=[42, 127]),
   midi.NoteOnEvent(tick=60, channel=9, data=[38, 0]),
   midi.NoteOnEvent(tick=0, channel=9, data=[42, 0]),
   midi.NoteOnEvent(tick=0, channel=9, data=[42, 127]),
   midi.NoteOnEvent(tick=60, channel=9, data=[42, 0]),
   midi.NoteOnEvent(tick=0, channel=9, data=[57, 127]),
   midi.NoteOnEvent(tick=0, channel=9, data=[36, 127]),
   midi.NoteOnEvent(tick=60, channel=9, data=[57, 0]),
   midi.NoteOnEvent(tick=0, channel=9, data=[36, 0]),
   midi.NoteOnEvent(tick=0, channel=9, data=[57, 127]),
   midi.NoteOnEvent(tick=0, channel=9, data=[36, 127]),
   midi.NoteOnEvent(tick=60, channel=9, data=[57, 0]),
   midi.NoteOnEvent(tick=0, channel=9, data=[42, 127]),
   midi.NoteOnEvent(tick=60, channel=9, data=[36, 0]),
   midi.NoteOnEvent(tick=0, channel=9, data=[42, 0]),
   midi.NoteOnEvent(tick=0, channel=9, data=[38, 127]),
   midi.NoteOnEvent(tick=0, channel=9, data=[42, 127]),
   midi.NoteOnEvent(tick=60, channel=9, data=[38, 0]),
   midi.NoteOnEvent(tick=0, channel=9, data=[42, 0]),
   midi.NoteOnEvent(tick=0, channel=9, data=[42, 127]),
   midi.NoteOnEvent(tick=60, channel=9, data=[42, 0]),
   midi.NoteOnEvent(tick=0, channel=9, data=[42, 127]),
   midi.NoteOnEvent(tick=0, channel=9, data=[36, 127]),
   midi.NoteOnEvent(tick=60, channel=9, data=[42, 0]),
   midi.NoteOnEvent(tick=0, channel=9, data=[42, 127]),
   midi.NoteOnEvent(tick=60, channel=9, data=[36, 0]),
   midi.NoteOnEvent(tick=0, channel=9, data=[42, 0]),
   midi.NoteOnEvent(tick=0, channel=9, data=[38, 127]),
   midi.NoteOnEvent(tick=0, channel=9, data=[42, 127]),
   midi.NoteOnEvent(tick=60, channel=9, data=[38, 0]),
   midi.NoteOnEvent(tick=0, channel=9, data=[42, 0]),
   midi.NoteOnEvent(tick=0, channel=9, data=[42, 127]),
   midi.NoteOnEvent(tick=60, channel=9, data=[42, 0]),
   midi.NoteOnEvent(tick=0, channel=9, data=[42, 127]),
   midi.NoteOnEvent(tick=0, channel=9, data=[36, 127]),
   midi.NoteOnEvent(tick=60, channel=9, data=[42, 0]),
   midi.NoteOnEvent(tick=0, channel=9, data=[42, 127]),
   midi.NoteOnEvent(tick=60, channel=9, data=[36, 0]),
   midi.NoteOnEvent(tick=0, channel=9, data=[42, 0]),
   midi.NoteOnEvent(tick=0, channel=9, data=[38, 127]),
   midi.NoteOnEvent(tick=0, channel=9, data=[42, 127]),
   midi.NoteOnEvent(tick=60, channel=9, data=[38, 0]),
   midi.NoteOnEvent(tick=0, channel=9, data=[42, 0]),
   midi.NoteOnEvent(tick=0, channel=9, data=[42, 127]),
   midi.NoteOnEvent(tick=60, channel=9, data=[42, 0]),
   midi.NoteOnEvent(tick=0, channel=9, data=[42, 127]),
   midi.NoteOnEvent(tick=0, channel=9, data=[36, 127]),
   midi.NoteOnEvent(tick=60, channel=9, data=[42, 0]),
   midi.NoteOnEvent(tick=0, channel=9, data=[42, 127]),
   midi.NoteOnEvent(tick=60, channel=9, data=[36, 0]),
   midi.NoteOnEvent(tick=0, channel=9, data=[42, 0]),
   midi.NoteOnEvent(tick=0, channel=9, data=[38, 127]),
   midi.NoteOnEvent(tick=0, channel=9, data=[42, 127]),
   midi.NoteOnEvent(tick=60, channel=9, data=[38, 0]),
   midi.NoteOnEvent(tick=0, channel=9, data=[42, 0]),
   midi.NoteOnEvent(tick=0, channel=9, data=[42, 127]),
   midi.NoteOnEvent(tick=0, channel=9, data=[36, 127]),
   midi.NoteOnEvent(tick=60, channel=9, data=[42, 0]),
   midi.NoteOnEvent(tick=0, channel=9, data=[36, 0]),
   midi.NoteOnEvent(tick=0, channel=9, data=[36, 127]),
   midi.NoteOnEvent(tick=0, channel=9, data=[42, 127]),
   midi.NoteOnEvent(tick=60, channel=9, data=[42, 0]),
   midi.NoteOnEvent(tick=0, channel=9, data=[42, 127]),
   midi.NoteOnEvent(tick=60, channel=9, data=[36, 0]),
   midi.NoteOnEvent(tick=0, channel=9, data=[42, 0]),
   midi.NoteOnEvent(tick=0, channel=9, data=[57, 127]),
   midi.NoteOnEvent(tick=0, channel=9, data=[38, 127]),
   midi.NoteOnEvent(tick=60, channel=9, data=[57, 0]),
   midi.NoteOnEvent(tick=0, channel=9, data=[38, 0]),
   midi.NoteOnEvent(tick=0, channel=9, data=[42, 127]),
   midi.NoteOnEvent(tick=60, channel=9, data=[42, 0]),
   midi.NoteOnEvent(tick=0, channel=9, data=[36, 127]),
   midi.NoteOnEvent(tick=0, channel=9, data=[42, 127]),
   midi.NoteOnEvent(tick=60, channel=9, data=[36, 0]),
   midi.NoteOnEvent(tick=0, channel=9, data=[42, 0]),
   midi.NoteOnEvent(tick=0, channel=9, data=[36, 127]),
   midi.NoteOnEvent(tick=0, channel=9, data=[42, 127]),
   midi.NoteOnEvent(tick=20, channel=9, data=[36, 0]),
   midi.NoteOnEvent(tick=0, channel=9, data=[35, 127]),
   midi.NoteOnEvent(tick=20, channel=9, data=[35, 0]),
   midi.NoteOnEvent(tick=0, channel=9, data=[36, 127]),
   midi.NoteOnEvent(tick=20, channel=9, data=[42, 0]),
   midi.NoteOnEvent(tick=0, channel=9, data=[36, 0]),
   midi.NoteOnEvent(tick=0, channel=9, data=[38, 127]),
   midi.NoteOnEvent(tick=0, channel=9, data=[42, 127]),
   midi.NoteOnEvent(tick=60, channel=9, data=[38, 0]),
   midi.NoteOnEvent(tick=0, channel=9, data=[42, 0]),
   midi.NoteOnEvent(tick=0, channel=9, data=[38, 127]),
   midi.NoteOnEvent(tick=0, channel=9, data=[42, 127]),
   midi.NoteOnEvent(tick=60, channel=9, data=[38, 0]),
   midi.NoteOnEvent(tick=0, channel=9, data=[42, 0]),
   midi.NoteOnEvent(tick=0, channel=9, data=[42, 127]),
   midi.NoteOnEvent(tick=60, channel=9, data=[42, 0]),
   midi.NoteOnEvent(tick=0, channel=9, data=[36, 127]),
   midi.NoteOnEvent(tick=0, channel=9, data=[42, 127]),
   midi.NoteOnEvent(tick=60, channel=9, data=[36, 0]),
   midi.NoteOnEvent(tick=0, channel=9, data=[42, 0]),
   midi.NoteOnEvent(tick=0, channel=9, data=[38, 127]),
   midi.NoteOnEvent(tick=0, channel=9, data=[42, 127]),
   midi.NoteOnEvent(tick=60, channel=9, data=[38, 0]),
   midi.NoteOnEvent(tick=0, channel=9, data=[42, 0]),
   midi.NoteOnEvent(tick=0, channel=9, data=[42, 127]),
   midi.NoteOnEvent(tick=0, channel=9, data=[38, 127]),
   midi.NoteOnEvent(tick=60, channel=9, data=[42, 0]),
   midi.NoteOnEvent(tick=0, channel=9, data=[38, 0]),
   midi.NoteOnEvent(tick=0, channel=9, data=[36, 127]),
   midi.NoteOnEvent(tick=0, channel=9, data=[42, 127]),
   midi.NoteOnEvent(tick=60, channel=9, data=[42, 0]),
   midi.NoteOnEvent(tick=0, channel=9, data=[57, 127]),
   midi.NoteOnEvent(tick=0, channel=9, data=[38, 127]),
   midi.NoteOnEvent(tick=60, channel=9, data=[36, 0]),
   midi.NoteOnEvent(tick=0, channel=9, data=[57, 0]),
   midi.NoteOnEvent(tick=0, channel=9, data=[38, 0]),
   midi.NoteOnEvent(tick=0, channel=9, data=[38, 127]),
   midi.NoteOnEvent(tick=0, channel=9, data=[57, 127]),
   midi.NoteOnEvent(tick=60, channel=9, data=[36, 127]),
   midi.NoteOnEvent(tick=60, channel=9, data=[38, 0]),
   midi.NoteOnEvent(tick=0, channel=9, data=[57, 0]),
   midi.NoteOnEvent(tick=0, channel=9, data=[36, 0]),
   midi.NoteOnEvent(tick=0, channel=9, data=[57, 127]),
   midi.NoteOnEvent(tick=0, channel=9, data=[36, 127]),
   midi.NoteOnEvent(tick=60, channel=9, data=[57, 0]),
   midi.NoteOnEvent(tick=0, channel=9, data=[42, 127]),
   midi.NoteOnEvent(tick=60, channel=9, data=[36, 0]),
   midi.NoteOnEvent(tick=0, channel=9, data=[42, 0]),
   midi.NoteOnEvent(tick=0, channel=9, data=[38, 127]),
   midi.NoteOnEvent(tick=0, channel=9, data=[42, 127]),
   midi.NoteOnEvent(tick=60, channel=9, data=[38, 0]),
   midi.NoteOnEvent(tick=0, channel=9, data=[42, 0]),
   midi.NoteOnEvent(tick=0, channel=9, data=[42, 127]),
   midi.NoteOnEvent(tick=60, channel=9, data=[42, 0]),
   midi.NoteOnEvent(tick=0, channel=9, data=[42, 127]),
   midi.NoteOnEvent(tick=0, channel=9, data=[36, 127]),
   midi.NoteOnEvent(tick=60, channel=9, data=[42, 0]),
   midi.NoteOnEvent(tick=0, channel=9, data=[42, 127]),
   midi.NoteOnEvent(tick=60, channel=9, data=[36, 0]),
   midi.NoteOnEvent(tick=0, channel=9, data=[42, 0]),
   midi.NoteOnEvent(tick=0, channel=9, data=[38, 127]),
   midi.NoteOnEvent(tick=0, channel=9, data=[42, 127]),
   midi.NoteOnEvent(tick=60, channel=9, data=[38, 0]),
   midi.NoteOnEvent(tick=0, channel=9, data=[42, 0]),
   midi.NoteOnEvent(tick=0, channel=9, data=[42, 127]),
   midi.NoteOnEvent(tick=60, channel=9, data=[42, 0]),
   midi.NoteOnEvent(tick=0, channel=9, data=[42, 127]),
   midi.NoteOnEvent(tick=0, channel=9, data=[36, 127]),
   midi.NoteOnEvent(tick=60, channel=9, data=[42, 0]),
   midi.NoteOnEvent(tick=0, channel=9, data=[42, 127]),
   midi.NoteOnEvent(tick=60, channel=9, data=[36, 0]),
   midi.NoteOnEvent(tick=0, channel=9, data=[42, 0]),
   midi.NoteOnEvent(tick=0, channel=9, data=[38, 127]),
   midi.NoteOnEvent(tick=0, channel=9, data=[42, 127]),
   midi.NoteOnEvent(tick=60, channel=9, data=[38, 0]),
   midi.NoteOnEvent(tick=0, channel=9, data=[42, 0]),
   midi.NoteOnEvent(tick=0, channel=9, data=[42, 127]),
   midi.NoteOnEvent(tick=60, channel=9, data=[42, 0]),
   midi.NoteOnEvent(tick=0, channel=9, data=[42, 127]),
   midi.NoteOnEvent(tick=0, channel=9, data=[36, 127]),
   midi.NoteOnEvent(tick=60, channel=9, data=[42, 0]),
   midi.NoteOnEvent(tick=0, channel=9, data=[42, 127]),
   midi.NoteOnEvent(tick=60, channel=9, data=[36, 0]),
   midi.NoteOnEvent(tick=0, channel=9, data=[42, 0]),
   midi.NoteOnEvent(tick=0, channel=9, data=[38, 127]),
   midi.NoteOnEvent(tick=0, channel=9, data=[42, 127]),
   midi.NoteOnEvent(tick=60, channel=9, data=[38, 0]),
   midi.NoteOnEvent(tick=0, channel=9, data=[42, 0]),
   midi.NoteOnEvent(tick=0, channel=9, data=[57, 127]),
   midi.NoteOnEvent(tick=0, channel=9, data=[36, 127]),
   midi.NoteOnEvent(tick=60, channel=9, data=[57, 0]),
   midi.NoteOnEvent(tick=0, channel=9, data=[36, 0]),
   midi.NoteOnEvent(tick=0, channel=9, data=[57, 127]),
   midi.NoteOnEvent(tick=0, channel=9, data=[36, 127]),
   midi.NoteOnEvent(tick=60, channel=9, data=[57, 0]),
   midi.NoteOnEvent(tick=0, channel=9, data=[42, 127]),
   midi.NoteOnEvent(tick=60, channel=9, data=[36, 0]),
   midi.NoteOnEvent(tick=0, channel=9, data=[42, 0]),
   midi.NoteOnEvent(tick=0, channel=9, data=[57, 127]),
   midi.NoteOnEvent(tick=0, channel=9, data=[38, 127]),
   midi.NoteOnEvent(tick=60, channel=9, data=[57, 0]),
   midi.NoteOnEvent(tick=0, channel=9, data=[38, 0]),
   midi.NoteOnEvent(tick=0, channel=9, data=[57, 127]),
   midi.NoteOnEvent(tick=0, channel=9, data=[38, 127]),
   midi.NoteOnEvent(tick=60, channel=9, data=[57, 0]),
   midi.NoteOnEvent(tick=0, channel=9, data=[38, 0]),
   midi.NoteOnEvent(tick=0, channel=9, data=[42, 127]),
   midi.NoteOnEvent(tick=0, channel=9, data=[36, 127]),
   midi.NoteOnEvent(tick=60, channel=9, data=[42, 0]),
   midi.NoteOnEvent(tick=0, channel=9, data=[38, 127]),
   midi.NoteOnEvent(tick=0, channel=9, data=[42, 127]),
   midi.NoteOnEvent(tick=60, channel=9, data=[36, 0]),
   midi.NoteOnEvent(tick=0, channel=9, data=[38, 0]),
   midi.NoteOnEvent(tick=0, channel=9, data=[42, 0]),
   midi.NoteOnEvent(tick=0, channel=9, data=[45, 127]),
   midi.NoteOnEvent(tick=60, channel=9, data=[45, 0]),
   midi.NoteOnEvent(tick=0, channel=9, data=[45, 127]),
   midi.NoteOnEvent(tick=60, channel=9, data=[45, 0]),
   midi.NoteOnEvent(tick=0, channel=9, data=[47, 127]),
   midi.NoteOnEvent(tick=60, channel=9, data=[47, 0]),
   midi.NoteOnEvent(tick=0, channel=9, data=[47, 127]),
   midi.NoteOnEvent(tick=60, channel=9, data=[47, 0]),
   midi.NoteOnEvent(tick=0, channel=9, data=[48, 127]),
   midi.NoteOnEvent(tick=60, channel=9, data=[48, 0]),
   midi.NoteOnEvent(tick=0, channel=9, data=[48, 127]),
   midi.NoteOnEvent(tick=60, channel=9, data=[48, 0]),
   midi.NoteOnEvent(tick=0, channel=9, data=[50, 127]),
   midi.NoteOnEvent(tick=60, channel=9, data=[50, 0]),
   midi.NoteOnEvent(tick=0, channel=9, data=[38, 127]),
   midi.NoteOnEvent(tick=60, channel=9, data=[38, 0]),
   midi.NoteOnEvent(tick=0, channel=9, data=[57, 127]),
   midi.NoteOnEvent(tick=0, channel=9, data=[36, 127]),
   midi.NoteOnEvent(tick=60, channel=9, data=[57, 0]),
   midi.NoteOnEvent(tick=0, channel=9, data=[36, 0]),
   midi.NoteOnEvent(tick=0, channel=9, data=[57, 127]),
   midi.NoteOnEvent(tick=0, channel=9, data=[36, 127]),
   midi.NoteOnEvent(tick=60, channel=9, data=[57, 0]),
   midi.NoteOnEvent(tick=0, channel=9, data=[36, 0]),
   midi.NoteOnEvent(tick=0, channel=9, data=[57, 127]),
   midi.NoteOnEvent(tick=0, channel=9, data=[36, 127]),
   midi.NoteOnEvent(tick=60, channel=9, data=[57, 0]),
   midi.NoteOnEvent(tick=0, channel=9, data=[42, 127]),
   midi.NoteOnEvent(tick=60, channel=9, data=[36, 0]),
   midi.NoteOnEvent(tick=0, channel=9, data=[42, 0]),
   midi.NoteOnEvent(tick=0, channel=9, data=[38, 127]),
   midi.NoteOnEvent(tick=0, channel=9, data=[42, 127]),
   midi.NoteOnEvent(tick=60, channel=9, data=[38, 0]),
   midi.NoteOnEvent(tick=0, channel=9, data=[42, 0]),
   midi.NoteOnEvent(tick=0, channel=9, data=[42, 127]),
   midi.NoteOnEvent(tick=60, channel=9, data=[42, 0]),
   midi.NoteOnEvent(tick=0, channel=9, data=[42, 127]),
   midi.NoteOnEvent(tick=0, channel=9, data=[36, 127]),
   midi.NoteOnEvent(tick=60, channel=9, data=[42, 0]),
   midi.NoteOnEvent(tick=0, channel=9, data=[42, 127]),
   midi.NoteOnEvent(tick=60, channel=9, data=[36, 0]),
   midi.NoteOnEvent(tick=0, channel=9, data=[42, 0]),
   midi.NoteOnEvent(tick=0, channel=9, data=[38, 127]),
   midi.NoteOnEvent(tick=0, channel=9, data=[42, 127]),
   midi.NoteOnEvent(tick=60, channel=9, data=[38, 0]),
   midi.NoteOnEvent(tick=0, channel=9, data=[42, 0]),
   midi.NoteOnEvent(tick=0, channel=9, data=[42, 127]),
   midi.NoteOnEvent(tick=60, channel=9, data=[42, 0]),
   midi.NoteOnEvent(tick=0, channel=9, data=[42, 127]),
   midi.NoteOnEvent(tick=0, channel=9, data=[36, 127]),
   midi.NoteOnEvent(tick=60, channel=9, data=[42, 0]),
   midi.NoteOnEvent(tick=0, channel=9, data=[42, 127]),
   midi.NoteOnEvent(tick=60, channel=9, data=[36, 0]),
   midi.NoteOnEvent(tick=0, channel=9, data=[42, 0]),
   midi.NoteOnEvent(tick=0, channel=9, data=[38, 127]),
   midi.NoteOnEvent(tick=0, channel=9, data=[42, 127]),
   midi.NoteOnEvent(tick=60, channel=9, data=[38, 0]),
   midi.NoteOnEvent(tick=0, channel=9, data=[42, 0]),
   midi.NoteOnEvent(tick=0, channel=9, data=[42, 127]),
   midi.NoteOnEvent(tick=60, channel=9, data=[42, 0]),
   midi.NoteOnEvent(tick=0, channel=9, data=[42, 127]),
   midi.NoteOnEvent(tick=0, channel=9, data=[36, 127]),
   midi.NoteOnEvent(tick=60, channel=9, data=[42, 0]),
   midi.NoteOnEvent(tick=0, channel=9, data=[42, 127]),
   midi.NoteOnEvent(tick=60, channel=9, data=[36, 0]),
   midi.NoteOnEvent(tick=0, channel=9, data=[42, 0]),
   midi.NoteOnEvent(tick=0, channel=9, data=[38, 127]),
   midi.NoteOnEvent(tick=0, channel=9, data=[42, 127]),
   midi.NoteOnEvent(tick=60, channel=9, data=[38, 0]),
   midi.NoteOnEvent(tick=0, channel=9, data=[42, 0]),
   midi.NoteOnEvent(tick=0, channel=9, data=[42, 127]),
   midi.NoteOnEvent(tick=0, channel=9, data=[36, 127]),
   midi.NoteOnEvent(tick=60, channel=9, data=[42, 0]),
   midi.NoteOnEvent(tick=0, channel=9, data=[36, 0]),
   midi.NoteOnEvent(tick=0, channel=9, data=[42, 127]),
   midi.NoteOnEvent(tick=0, channel=9, data=[36, 127]),
   midi.NoteOnEvent(tick=60, channel=9, data=[42, 0]),
   midi.NoteOnEvent(tick=0, channel=9, data=[42, 127]),
   midi.NoteOnEvent(tick=60, channel=9, data=[36, 0]),
   midi.NoteOnEvent(tick=0, channel=9, data=[42, 0]),
   midi.NoteOnEvent(tick=0, channel=9, data=[38, 127]),
   midi.NoteOnEvent(tick=0, channel=9, data=[42, 127]),
   midi.NoteOnEvent(tick=60, channel=9, data=[38, 0]),
   midi.NoteOnEvent(tick=0, channel=9, data=[42, 0]),
   midi.NoteOnEvent(tick=0, channel=9, data=[42, 127]),
   midi.NoteOnEvent(tick=60, channel=9, data=[42, 0]),
   midi.NoteOnEvent(tick=0, channel=9, data=[42, 127]),
   midi.NoteOnEvent(tick=0, channel=9, data=[36, 127]),
   midi.NoteOnEvent(tick=60, channel=9, data=[42, 0]),
   midi.NoteOnEvent(tick=0, channel=9, data=[42, 127]),
   midi.NoteOnEvent(tick=60, channel=9, data=[36, 0]),
   midi.NoteOnEvent(tick=0, channel=9, data=[42, 0]),
   midi.NoteOnEvent(tick=0, channel=9, data=[38, 127]),
   midi.NoteOnEvent(tick=0, channel=9, data=[42, 127]),
   midi.NoteOnEvent(tick=60, channel=9, data=[38, 0]),
   midi.NoteOnEvent(tick=0, channel=9, data=[42, 0]),
   midi.NoteOnEvent(tick=0, channel=9, data=[42, 127]),
   midi.NoteOnEvent(tick=60, channel=9, data=[42, 0]),
   midi.NoteOnEvent(tick=0, channel=9, data=[36, 127]),
   midi.NoteOnEvent(tick=0, channel=9, data=[42, 127]),
   midi.NoteOnEvent(tick=60, channel=9, data=[36, 0]),
   midi.NoteOnEvent(tick=0, channel=9, data=[42, 0]),
   midi.NoteOnEvent(tick=0, channel=9, data=[36, 127]),
   midi.NoteOnEvent(tick=0, channel=9, data=[42, 127]),
   midi.NoteOnEvent(tick=20, channel=9, data=[36, 0]),
   midi.NoteOnEvent(tick=0, channel=9, data=[35, 127]),
   midi.NoteOnEvent(tick=20, channel=9, data=[35, 0]),
   midi.NoteOnEvent(tick=0, channel=9, data=[36, 127]),
   midi.NoteOnEvent(tick=20, channel=9, data=[42, 0]),
   midi.NoteOnEvent(tick=0, channel=9, data=[36, 0]),
   midi.NoteOnEvent(tick=0, channel=9, data=[38, 127]),
   midi.NoteOnEvent(tick=0, channel=9, data=[42, 127]),
   midi.NoteOnEvent(tick=60, channel=9, data=[38, 0]),
   midi.NoteOnEvent(tick=0, channel=9, data=[42, 0]),
   midi.NoteOnEvent(tick=0, channel=9, data=[38, 127]),
   midi.NoteOnEvent(tick=0, channel=9, data=[42, 127]),
   midi.NoteOnEvent(tick=60, channel=9, data=[38, 0]),
   midi.NoteOnEvent(tick=0, channel=9, data=[42, 0]),
   midi.NoteOnEvent(tick=0, channel=9, data=[36, 127]),
   midi.NoteOnEvent(tick=0, channel=9, data=[42, 127]),
   midi.NoteOnEvent(tick=60, channel=9, data=[42, 0]),
   midi.NoteOnEvent(tick=0, channel=9, data=[57, 127]),
   midi.NoteOnEvent(tick=0, channel=9, data=[38, 127]),
   midi.NoteOnEvent(tick=60, channel=9, data=[36, 0]),
   midi.NoteOnEvent(tick=0, channel=9, data=[57, 0]),
   midi.NoteOnEvent(tick=0, channel=9, data=[38, 0]),
   midi.NoteOnEvent(tick=0, channel=9, data=[38, 127]),
   midi.NoteOnEvent(tick=0, channel=9, data=[57, 127]),
   midi.NoteOnEvent(tick=60, channel=9, data=[36, 127]),
   midi.NoteOnEvent(tick=60, channel=9, data=[38, 0]),
   midi.NoteOnEvent(tick=0, channel=9, data=[57, 0]),
   midi.NoteOnEvent(tick=0, channel=9, data=[36, 0]),
   midi.NoteOnEvent(tick=0, channel=9, data=[57, 127]),
   midi.NoteOnEvent(tick=0, channel=9, data=[36, 127]),
   midi.NoteOnEvent(tick=60, channel=9, data=[57, 0]),
   midi.NoteOnEvent(tick=0, channel=9, data=[42, 127]),
   midi.NoteOnEvent(tick=60, channel=9, data=[36, 0]),
   midi.NoteOnEvent(tick=0, channel=9, data=[42, 0]),
   midi.NoteOnEvent(tick=0, channel=9, data=[38, 127]),
   midi.NoteOnEvent(tick=0, channel=9, data=[42, 127]),
   midi.NoteOnEvent(tick=60, channel=9, data=[38, 0]),
   midi.NoteOnEvent(tick=0, channel=9, data=[42, 0]),
   midi.NoteOnEvent(tick=0, channel=9, data=[42, 127]),
   midi.NoteOnEvent(tick=60, channel=9, data=[42, 0]),
   midi.NoteOnEvent(tick=0, channel=9, data=[42, 127]),
   midi.NoteOnEvent(tick=0, channel=9, data=[36, 127]),
   midi.NoteOnEvent(tick=60, channel=9, data=[42, 0]),
   midi.NoteOnEvent(tick=0, channel=9, data=[42, 127]),
   midi.NoteOnEvent(tick=60, channel=9, data=[36, 0]),
   midi.NoteOnEvent(tick=0, channel=9, data=[42, 0]),
   midi.NoteOnEvent(tick=0, channel=9, data=[38, 127]),
   midi.NoteOnEvent(tick=0, channel=9, data=[42, 127]),
   midi.NoteOnEvent(tick=60, channel=9, data=[38, 0]),
   midi.NoteOnEvent(tick=0, channel=9, data=[42, 0]),
   midi.NoteOnEvent(tick=0, channel=9, data=[42, 127]),
   midi.NoteOnEvent(tick=60, channel=9, data=[42, 0]),
   midi.NoteOnEvent(tick=0, channel=9, data=[42, 127]),
   midi.NoteOnEvent(tick=0, channel=9, data=[36, 127]),
   midi.NoteOnEvent(tick=60, channel=9, data=[42, 0]),
   midi.NoteOnEvent(tick=0, channel=9, data=[42, 127]),
   midi.NoteOnEvent(tick=60, channel=9, data=[36, 0]),
   midi.NoteOnEvent(tick=0, channel=9, data=[42, 0]),
   midi.NoteOnEvent(tick=0, channel=9, data=[38, 127]),
   midi.NoteOnEvent(tick=0, channel=9, data=[42, 127]),
   midi.NoteOnEvent(tick=60, channel=9, data=[38, 0]),
   midi.NoteOnEvent(tick=0, channel=9, data=[42, 0]),
   midi.NoteOnEvent(tick=0, channel=9, data=[42, 127]),
   midi.NoteOnEvent(tick=60, channel=9, data=[42, 0]),
   midi.NoteOnEvent(tick=0, channel=9, data=[42, 127]),
   midi.NoteOnEvent(tick=0, channel=9, data=[36, 127]),
   midi.NoteOnEvent(tick=60, channel=9, data=[42, 0]),
   midi.NoteOnEvent(tick=0, channel=9, data=[42, 127]),
   midi.NoteOnEvent(tick=60, channel=9, data=[36, 0]),
   midi.NoteOnEvent(tick=0, channel=9, data=[42, 0]),
   midi.NoteOnEvent(tick=0, channel=9, data=[38, 127]),
   midi.NoteOnEvent(tick=0, channel=9, data=[42, 127]),
   midi.NoteOnEvent(tick=60, channel=9, data=[38, 0]),
   midi.NoteOnEvent(tick=0, channel=9, data=[42, 0]),
   midi.NoteOnEvent(tick=0, channel=9, data=[42, 127]),
   midi.NoteOnEvent(tick=0, channel=9, data=[36, 127]),
   midi.NoteOnEvent(tick=60, channel=9, data=[42, 0]),
   midi.NoteOnEvent(tick=0, channel=9, data=[36, 0]),
   midi.NoteOnEvent(tick=0, channel=9, data=[42, 127]),
   midi.NoteOnEvent(tick=0, channel=9, data=[36, 127]),
   midi.NoteOnEvent(tick=60, channel=9, data=[42, 0]),
   midi.NoteOnEvent(tick=0, channel=9, data=[42, 127]),
   midi.NoteOnEvent(tick=60, channel=9, data=[36, 0]),
   midi.NoteOnEvent(tick=0, channel=9, data=[42, 0]),
   midi.NoteOnEvent(tick=0, channel=9, data=[57, 127]),
   midi.NoteOnEvent(tick=0, channel=9, data=[38, 127]),
   midi.NoteOnEvent(tick=60, channel=9, data=[57, 0]),
   midi.NoteOnEvent(tick=0, channel=9, data=[38, 0]),
   midi.NoteOnEvent(tick=0, channel=9, data=[42, 127]),
   midi.NoteOnEvent(tick=60, channel=9, data=[42, 0]),
   midi.NoteOnEvent(tick=0, channel=9, data=[42, 127]),
   midi.NoteOnEvent(tick=0, channel=9, data=[36, 127]),
   midi.NoteOnEvent(tick=60, channel=9, data=[42, 0]),
   midi.NoteOnEvent(tick=0, channel=9, data=[42, 127]),
   midi.NoteOnEvent(tick=60, channel=9, data=[36, 0]),
   midi.NoteOnEvent(tick=0, channel=9, data=[42, 0]),
   midi.NoteOnEvent(tick=0, channel=9, data=[38, 127]),
   midi.NoteOnEvent(tick=0, channel=9, data=[42, 127]),
   midi.NoteOnEvent(tick=60, channel=9, data=[38, 0]),
   midi.NoteOnEvent(tick=0, channel=9, data=[42, 0]),
   midi.NoteOnEvent(tick=0, channel=9, data=[38, 127]),
   midi.NoteOnEvent(tick=0, channel=9, data=[42, 127]),
   midi.NoteOnEvent(tick=60, channel=9, data=[38, 0]),
   midi.NoteOnEvent(tick=0, channel=9, data=[42, 0]),
   midi.NoteOnEvent(tick=0, channel=9, data=[36, 127]),
   midi.NoteOnEvent(tick=0, channel=9, data=[42, 127]),
   midi.NoteOnEvent(tick=60, channel=9, data=[42, 0]),
   midi.NoteOnEvent(tick=0, channel=9, data=[38, 127]),
   midi.NoteOnEvent(tick=0, channel=9, data=[42, 127]),
   midi.NoteOnEvent(tick=60, channel=9, data=[36, 0]),
   midi.NoteOnEvent(tick=0, channel=9, data=[38, 0]),
   midi.NoteOnEvent(tick=0, channel=9, data=[42, 0]),
   midi.NoteOnEvent(tick=0, channel=9, data=[38, 127]),
   midi.NoteOnEvent(tick=0, channel=9, data=[42, 127]),
   midi.NoteOnEvent(tick=60, channel=9, data=[38, 0]),
   midi.NoteOnEvent(tick=0, channel=9, data=[42, 0]),
   midi.NoteOnEvent(tick=0, channel=9, data=[42, 127]),
   midi.NoteOnEvent(tick=0, channel=9, data=[36, 127]),
   midi.NoteOnEvent(tick=60, channel=9, data=[42, 0]),
   midi.NoteOnEvent(tick=0, channel=9, data=[36, 0]),
   midi.NoteOnEvent(tick=0, channel=9, data=[38, 127]),
   midi.NoteOnEvent(tick=0, channel=9, data=[42, 127]),
   midi.NoteOnEvent(tick=60, channel=9, data=[38, 0]),
   midi.NoteOnEvent(tick=0, channel=9, data=[42, 0]),
   midi.NoteOnEvent(tick=0, channel=9, data=[57, 127]),
   midi.NoteOnEvent(tick=0, channel=9, data=[36, 127]),
   midi.NoteOnEvent(tick=60, channel=9, data=[57, 0]),
   midi.NoteOnEvent(tick=0, channel=9, data=[36, 0]),
   midi.NoteOnEvent(tick=0, channel=9, data=[57, 127]),
   midi.NoteOnEvent(tick=0, channel=9, data=[36, 127]),
   midi.NoteOnEvent(tick=60, channel=9, data=[57, 0]),
   midi.NoteOnEvent(tick=0, channel=9, data=[36, 0]),
   midi.NoteOnEvent(tick=0, channel=9, data=[57, 127]),
   midi.NoteOnEvent(tick=0, channel=9, data=[36, 127]),
   midi.NoteOnEvent(tick=60, channel=9, data=[57, 0]),
   midi.NoteOnEvent(tick=0, channel=9, data=[36, 0]),
   midi.NoteOnEvent(tick=0, channel=9, data=[57, 127]),
   midi.NoteOnEvent(tick=0, channel=9, data=[36, 127]),
   midi.NoteOnEvent(tick=60, channel=9, data=[57, 0]),
   midi.NoteOnEvent(tick=0, channel=9, data=[42, 127]),
   midi.NoteOnEvent(tick=60, channel=9, data=[36, 0]),
   midi.NoteOnEvent(tick=0, channel=9, data=[42, 0]),
   midi.NoteOnEvent(tick=0, channel=9, data=[38, 127]),
   midi.NoteOnEvent(tick=0, channel=9, data=[42, 127]),
   midi.NoteOnEvent(tick=60, channel=9, data=[38, 0]),
   midi.NoteOnEvent(tick=0, channel=9, data=[42, 0]),
   midi.NoteOnEvent(tick=0, channel=9, data=[42, 127]),
   midi.NoteOnEvent(tick=60, channel=9, data=[42, 0]),
   midi.NoteOnEvent(tick=0, channel=9, data=[42, 127]),
   midi.NoteOnEvent(tick=0, channel=9, data=[36, 127]),
   midi.NoteOnEvent(tick=60, channel=9, data=[42, 0]),
   midi.NoteOnEvent(tick=0, channel=9, data=[42, 127]),
   midi.NoteOnEvent(tick=60, channel=9, data=[36, 0]),
   midi.NoteOnEvent(tick=0, channel=9, data=[42, 0]),
   midi.NoteOnEvent(tick=0, channel=9, data=[38, 127]),
   midi.NoteOnEvent(tick=0, channel=9, data=[42, 127]),
   midi.NoteOnEvent(tick=60, channel=9, data=[38, 0]),
   midi.NoteOnEvent(tick=0, channel=9, data=[42, 0]),
   midi.NoteOnEvent(tick=0, channel=9, data=[42, 127]),
   midi.NoteOnEvent(tick=60, channel=9, data=[42, 0]),
   midi.NoteOnEvent(tick=0, channel=9, data=[42, 127]),
   midi.NoteOnEvent(tick=0, channel=9, data=[36, 127]),
   midi.NoteOnEvent(tick=60, channel=9, data=[42, 0]),
   midi.NoteOnEvent(tick=0, channel=9, data=[42, 127]),
   midi.NoteOnEvent(tick=60, channel=9, data=[36, 0]),
   midi.NoteOnEvent(tick=0, channel=9, data=[42, 0]),
   midi.NoteOnEvent(tick=0, channel=9, data=[38, 127]),
   midi.NoteOnEvent(tick=0, channel=9, data=[42, 127]),
   midi.NoteOnEvent(tick=60, channel=9, data=[38, 0]),
   midi.NoteOnEvent(tick=0, channel=9, data=[42, 0]),
   midi.NoteOnEvent(tick=0, channel=9, data=[42, 127]),
   midi.NoteOnEvent(tick=60, channel=9, data=[42, 0]),
   midi.NoteOnEvent(tick=0, channel=9, data=[42, 127]),
   midi.NoteOnEvent(tick=0, channel=9, data=[36, 127]),
   midi.NoteOnEvent(tick=60, channel=9, data=[42, 0]),
   midi.NoteOnEvent(tick=0, channel=9, data=[42, 127]),
   midi.NoteOnEvent(tick=60, channel=9, data=[36, 0]),
   midi.NoteOnEvent(tick=0, channel=9, data=[42, 0]),
   midi.NoteOnEvent(tick=0, channel=9, data=[38, 127]),
   midi.NoteOnEvent(tick=0, channel=9, data=[42, 127]),
   midi.NoteOnEvent(tick=60, channel=9, data=[38, 0]),
   midi.NoteOnEvent(tick=0, channel=9, data=[42, 0]),
   midi.NoteOnEvent(tick=0, channel=9, data=[42, 127]),
   midi.NoteOnEvent(tick=0, channel=9, data=[36, 127]),
   midi.NoteOnEvent(tick=60, channel=9, data=[42, 0]),
   midi.NoteOnEvent(tick=0, channel=9, data=[36, 0]),
   midi.NoteOnEvent(tick=0, channel=9, data=[42, 127]),
   midi.NoteOnEvent(tick=0, channel=9, data=[36, 127]),
   midi.NoteOnEvent(tick=60, channel=9, data=[42, 0]),
   midi.NoteOnEvent(tick=0, channel=9, data=[42, 127]),
   midi.NoteOnEvent(tick=60, channel=9, data=[36, 0]),
   midi.NoteOnEvent(tick=0, channel=9, data=[42, 0]),
   midi.NoteOnEvent(tick=0, channel=9, data=[57, 127]),
   midi.NoteOnEvent(tick=0, channel=9, data=[38, 127]),
   midi.NoteOnEvent(tick=60, channel=9, data=[57, 0]),
   midi.NoteOnEvent(tick=0, channel=9, data=[38, 0]),
   midi.NoteOnEvent(tick=0, channel=9, data=[42, 127]),
   midi.NoteOnEvent(tick=60, channel=9, data=[42, 0]),
   midi.NoteOnEvent(tick=0, channel=9, data=[42, 127]),
   midi.NoteOnEvent(tick=0, channel=9, data=[36, 127]),
   midi.NoteOnEvent(tick=60, channel=9, data=[42, 0]),
   midi.NoteOnEvent(tick=0, channel=9, data=[42, 127]),
   midi.NoteOnEvent(tick=60, channel=9, data=[36, 0]),
   midi.NoteOnEvent(tick=0, channel=9, data=[42, 0]),
   midi.NoteOnEvent(tick=0, channel=9, data=[38, 127]),
   midi.NoteOnEvent(tick=0, channel=9, data=[42, 127]),
   midi.NoteOnEvent(tick=60, channel=9, data=[38, 0]),
   midi.NoteOnEvent(tick=0, channel=9, data=[42, 0]),
   midi.NoteOnEvent(tick=0, channel=9, data=[42, 127]),
   midi.NoteOnEvent(tick=60, channel=9, data=[42, 0]),
   midi.NoteOnEvent(tick=0, channel=9, data=[42, 127]),
   midi.NoteOnEvent(tick=0, channel=9, data=[36, 127]),
   midi.NoteOnEvent(tick=60, channel=9, data=[42, 0]),
   midi.NoteOnEvent(tick=0, channel=9, data=[42, 127]),
   midi.NoteOnEvent(tick=60, channel=9, data=[36, 0]),
   midi.NoteOnEvent(tick=0, channel=9, data=[42, 0]),
   midi.NoteOnEvent(tick=0, channel=9, data=[42, 127]),
   midi.NoteOnEvent(tick=0, channel=9, data=[38, 127]),
   midi.NoteOnEvent(tick=60, channel=9, data=[42, 0]),
   midi.NoteOnEvent(tick=0, channel=9, data=[38, 0]),
   midi.NoteOnEvent(tick=0, channel=9, data=[42, 127]),
   midi.NoteOnEvent(tick=60, channel=9, data=[42, 0]),
   midi.NoteOnEvent(tick=0, channel=9, data=[57, 127]),
   midi.NoteOnEvent(tick=0, channel=9, data=[38, 127]),
   midi.NoteOnEvent(tick=120, channel=9, data=[57, 0]),
   midi.NoteOnEvent(tick=0, channel=9, data=[38, 0]),
   midi.NoteOnEvent(tick=0, channel=9, data=[57, 127]),
   midi.NoteOnEvent(tick=0, channel=9, data=[38, 127]),
   midi.NoteOnEvent(tick=60, channel=9, data=[36, 127]),
   midi.NoteOnEvent(tick=60, channel=9, data=[57, 0]),
   midi.NoteOnEvent(tick=0, channel=9, data=[38, 0]),
   midi.NoteOnEvent(tick=0, channel=9, data=[36, 0]),
   midi.NoteOnEvent(tick=0, channel=9, data=[57, 127]),
   midi.NoteOnEvent(tick=0, channel=9, data=[36, 127]),
   midi.NoteOnEvent(tick=60, channel=9, data=[57, 0]),
   midi.NoteOnEvent(tick=0, channel=9, data=[42, 127]),
   midi.NoteOnEvent(tick=60, channel=9, data=[36, 0]),
   midi.NoteOnEvent(tick=0, channel=9, data=[42, 0]),
   midi.NoteOnEvent(tick=0, channel=9, data=[38, 127]),
   midi.NoteOnEvent(tick=0, channel=9, data=[42, 127]),
   midi.NoteOnEvent(tick=60, channel=9, data=[38, 0]),
   midi.NoteOnEvent(tick=0, channel=9, data=[42, 0]),
   midi.NoteOnEvent(tick=0, channel=9, data=[42, 127]),
   midi.NoteOnEvent(tick=60, channel=9, data=[42, 0]),
   midi.NoteOnEvent(tick=0, channel=9, data=[42, 127]),
   midi.NoteOnEvent(tick=0, channel=9, data=[36, 127]),
   midi.NoteOnEvent(tick=60, channel=9, data=[42, 0]),
   midi.NoteOnEvent(tick=0, channel=9, data=[42, 127]),
   midi.NoteOnEvent(tick=60, channel=9, data=[36, 0]),
   midi.NoteOnEvent(tick=0, channel=9, data=[42, 0]),
   midi.NoteOnEvent(tick=0, channel=9, data=[38, 127]),
   midi.NoteOnEvent(tick=0, channel=9, data=[42, 127]),
   midi.NoteOnEvent(tick=60, channel=9, data=[38, 0]),
   midi.NoteOnEvent(tick=0, channel=9, data=[42, 0]),
   midi.NoteOnEvent(tick=0, channel=9, data=[42, 127]),
   midi.NoteOnEvent(tick=60, channel=9, data=[42, 0]),
   midi.NoteOnEvent(tick=0, channel=9, data=[42, 127]),
   midi.NoteOnEvent(tick=0, channel=9, data=[36, 127]),
   midi.NoteOnEvent(tick=60, channel=9, data=[42, 0]),
   midi.NoteOnEvent(tick=0, channel=9, data=[42, 127]),
   midi.NoteOnEvent(tick=60, channel=9, data=[36, 0]),
   midi.NoteOnEvent(tick=0, channel=9, data=[42, 0]),
   midi.NoteOnEvent(tick=0, channel=9, data=[38, 127]),
   midi.NoteOnEvent(tick=0, channel=9, data=[42, 127]),
   midi.NoteOnEvent(tick=60, channel=9, data=[38, 0]),
   midi.NoteOnEvent(tick=0, channel=9, data=[42, 0]),
   midi.NoteOnEvent(tick=0, channel=9, data=[42, 127]),
   midi.NoteOnEvent(tick=60, channel=9, data=[42, 0]),
   midi.NoteOnEvent(tick=0, channel=9, data=[42, 127]),
   midi.NoteOnEvent(tick=0, channel=9, data=[36, 127]),
   midi.NoteOnEvent(tick=60, channel=9, data=[42, 0]),
   midi.NoteOnEvent(tick=0, channel=9, data=[42, 127]),
   midi.NoteOnEvent(tick=60, channel=9, data=[36, 0]),
   midi.NoteOnEvent(tick=0, channel=9, data=[42, 0]),
   midi.NoteOnEvent(tick=0, channel=9, data=[38, 127]),
   midi.NoteOnEvent(tick=0, channel=9, data=[42, 127]),
   midi.NoteOnEvent(tick=60, channel=9, data=[38, 0]),
   midi.NoteOnEvent(tick=0, channel=9, data=[42, 0]),
   midi.NoteOnEvent(tick=0, channel=9, data=[42, 127]),
   midi.NoteOnEvent(tick=0, channel=9, data=[36, 127]),
   midi.NoteOnEvent(tick=60, channel=9, data=[42, 0]),
   midi.NoteOnEvent(tick=0, channel=9, data=[36, 0]),
   midi.NoteOnEvent(tick=0, channel=9, data=[42, 127]),
   midi.NoteOnEvent(tick=0, channel=9, data=[36, 127]),
   midi.NoteOnEvent(tick=60, channel=9, data=[42, 0]),
   midi.NoteOnEvent(tick=0, channel=9, data=[42, 127]),
   midi.NoteOnEvent(tick=60, channel=9, data=[36, 0]),
   midi.NoteOnEvent(tick=0, channel=9, data=[42, 0]),
   midi.NoteOnEvent(tick=0, channel=9, data=[57, 127]),
   midi.NoteOnEvent(tick=0, channel=9, data=[38, 127]),
   midi.NoteOnEvent(tick=60, channel=9, data=[57, 0]),
   midi.NoteOnEvent(tick=0, channel=9, data=[38, 0]),
   midi.NoteOnEvent(tick=0, channel=9, data=[42, 127]),
   midi.NoteOnEvent(tick=60, channel=9, data=[42, 0]),
   midi.NoteOnEvent(tick=0, channel=9, data=[42, 127]),
   midi.NoteOnEvent(tick=0, channel=9, data=[36, 127]),
   midi.NoteOnEvent(tick=60, channel=9, data=[42, 0]),
   midi.NoteOnEvent(tick=0, channel=9, data=[42, 127]),
   midi.NoteOnEvent(tick=60, channel=9, data=[36, 0]),
   midi.NoteOnEvent(tick=0, channel=9, data=[42, 0]),
   midi.NoteOnEvent(tick=0, channel=9, data=[38, 127]),
   midi.NoteOnEvent(tick=0, channel=9, data=[42, 127]),
   midi.NoteOnEvent(tick=60, channel=9, data=[38, 0]),
   midi.NoteOnEvent(tick=0, channel=9, data=[42, 0]),
   midi.NoteOnEvent(tick=0, channel=9, data=[42, 127]),
   midi.NoteOnEvent(tick=60, channel=9, data=[42, 0]),
   midi.NoteOnEvent(tick=0, channel=9, data=[36, 127]),
   midi.NoteOnEvent(tick=0, channel=9, data=[42, 127]),
   midi.NoteOnEvent(tick=60, channel=9, data=[42, 0]),
   midi.NoteOnEvent(tick=0, channel=9, data=[42, 127]),
   midi.NoteOnEvent(tick=60, channel=9, data=[36, 0]),
   midi.NoteOnEvent(tick=0, channel=9, data=[42, 0]),
   midi.NoteOnEvent(tick=0, channel=9, data=[42, 127]),
   midi.NoteOnEvent(tick=0, channel=9, data=[38, 127]),
   midi.NoteOnEvent(tick=60, channel=9, data=[42, 0]),
   midi.NoteOnEvent(tick=0, channel=9, data=[38, 0]),
   midi.NoteOnEvent(tick=0, channel=9, data=[42, 127]),
   midi.NoteOnEvent(tick=60, channel=9, data=[42, 0]),
   midi.NoteOnEvent(tick=0, channel=9, data=[36, 127]),
   midi.NoteOnEvent(tick=0, channel=9, data=[42, 127]),
   midi.NoteOnEvent(tick=60, channel=9, data=[36, 0]),
   midi.NoteOnEvent(tick=0, channel=9, data=[42, 0]),
   midi.NoteOnEvent(tick=0, channel=9, data=[36, 127]),
   midi.NoteOnEvent(tick=0, channel=9, data=[42, 127]),
   midi.NoteOnEvent(tick=20, channel=9, data=[36, 0]),
   midi.NoteOnEvent(tick=0, channel=9, data=[35, 127]),
   midi.NoteOnEvent(tick=20, channel=9, data=[35, 0]),
   midi.NoteOnEvent(tick=0, channel=9, data=[36, 127]),
   midi.NoteOnEvent(tick=20, channel=9, data=[42, 0]),
   midi.NoteOnEvent(tick=0, channel=9, data=[36, 0]),
   midi.NoteOnEvent(tick=0, channel=9, data=[38, 127]),
   midi.NoteOnEvent(tick=0, channel=9, data=[42, 127]),
   midi.NoteOnEvent(tick=60, channel=9, data=[38, 0]),
   midi.NoteOnEvent(tick=0, channel=9, data=[42, 0]),
   midi.NoteOnEvent(tick=0, channel=9, data=[36, 127]),
   midi.NoteOnEvent(tick=0, channel=9, data=[42, 127]),
   midi.NoteOnEvent(tick=60, channel=9, data=[36, 0]),
   midi.NoteOnEvent(tick=0, channel=9, data=[42, 0]),
   midi.NoteOnEvent(tick=0, channel=9, data=[57, 127]),
   midi.NoteOnEvent(tick=0, channel=9, data=[36, 127]),
   midi.NoteOnEvent(tick=60, channel=9, data=[57, 0]),
   midi.NoteOnEvent(tick=0, channel=9, data=[42, 127]),
   midi.NoteOnEvent(tick=60, channel=9, data=[36, 0]),
   midi.NoteOnEvent(tick=0, channel=9, data=[42, 0]),
   midi.NoteOnEvent(tick=0, channel=9, data=[57, 127]),
   midi.NoteOnEvent(tick=0, channel=9, data=[38, 127]),
   midi.NoteOnEvent(tick=60, channel=9, data=[57, 0]),
   midi.NoteOnEvent(tick=0, channel=9, data=[38, 0]),
   midi.NoteOnEvent(tick=0, channel=9, data=[42, 127]),
   midi.NoteOnEvent(tick=60, channel=9, data=[42, 0]),
   midi.NoteOnEvent(tick=0, channel=9, data=[42, 127]),
   midi.NoteOnEvent(tick=0, channel=9, data=[36, 127]),
   midi.NoteOnEvent(tick=60, channel=9, data=[42, 0]),
   midi.NoteOnEvent(tick=0, channel=9, data=[42, 127]),
   midi.NoteOnEvent(tick=60, channel=9, data=[36, 0]),
   midi.NoteOnEvent(tick=0, channel=9, data=[42, 0]),
   midi.NoteOnEvent(tick=0, channel=9, data=[38, 127]),
   midi.NoteOnEvent(tick=0, channel=9, data=[42, 127]),
   midi.NoteOnEvent(tick=60, channel=9, data=[38, 0]),
   midi.NoteOnEvent(tick=0, channel=9, data=[42, 0]),
   midi.NoteOnEvent(tick=0, channel=9, data=[36, 127]),
   midi.NoteOnEvent(tick=0, channel=9, data=[42, 127]),
   midi.NoteOnEvent(tick=60, channel=9, data=[36, 0]),
   midi.NoteOnEvent(tick=0, channel=9, data=[42, 0]),
   midi.NoteOnEvent(tick=0, channel=9, data=[42, 127]),
   midi.NoteOnEvent(tick=0, channel=9, data=[36, 127]),
   midi.NoteOnEvent(tick=60, channel=9, data=[42, 0]),
   midi.NoteOnEvent(tick=0, channel=9, data=[42, 127]),
   midi.NoteOnEvent(tick=60, channel=9, data=[36, 0]),
   midi.NoteOnEvent(tick=0, channel=9, data=[42, 0]),
   midi.NoteOnEvent(tick=0, channel=9, data=[38, 127]),
   midi.NoteOnEvent(tick=0, channel=9, data=[42, 127]),
   midi.NoteOnEvent(tick=60, channel=9, data=[38, 0]),
   midi.NoteOnEvent(tick=0, channel=9, data=[42, 0]),
   midi.NoteOnEvent(tick=0, channel=9, data=[42, 127]),
   midi.NoteOnEvent(tick=60, channel=9, data=[42, 0]),
   midi.NoteOnEvent(tick=0, channel=9, data=[42, 127]),
   midi.NoteOnEvent(tick=0, channel=9, data=[36, 127]),
   midi.NoteOnEvent(tick=60, channel=9, data=[42, 0]),
   midi.NoteOnEvent(tick=0, channel=9, data=[42, 127]),
   midi.NoteOnEvent(tick=60, channel=9, data=[36, 0]),
   midi.NoteOnEvent(tick=0, channel=9, data=[42, 0]),
   midi.NoteOnEvent(tick=0, channel=9, data=[38, 127]),
   midi.NoteOnEvent(tick=0, channel=9, data=[42, 127]),
   midi.NoteOnEvent(tick=60, channel=9, data=[38, 0]),
   midi.NoteOnEvent(tick=0, channel=9, data=[42, 0]),
   midi.NoteOnEvent(tick=0, channel=9, data=[42, 127]),
   midi.NoteOnEvent(tick=0, channel=9, data=[36, 127]),
   midi.NoteOnEvent(tick=60, channel=9, data=[42, 0]),
   midi.NoteOnEvent(tick=0, channel=9, data=[36, 0]),
   midi.NoteOnEvent(tick=0, channel=9, data=[42, 127]),
   midi.NoteOnEvent(tick=0, channel=9, data=[36, 127]),
   midi.NoteOnEvent(tick=60, channel=9, data=[42, 0]),
   midi.NoteOnEvent(tick=0, channel=9, data=[42, 127]),
   midi.NoteOnEvent(tick=60, channel=9, data=[36, 0]),
   midi.NoteOnEvent(tick=0, channel=9, data=[42, 0]),
   midi.NoteOnEvent(tick=0, channel=9, data=[57, 127]),
   midi.NoteOnEvent(tick=0, channel=9, data=[38, 127]),
   midi.NoteOnEvent(tick=60, channel=9, data=[57, 0]),
   midi.NoteOnEvent(tick=0, channel=9, data=[38, 0]),
   midi.NoteOnEvent(tick=0, channel=9, data=[42, 127]),
   midi.NoteOnEvent(tick=60, channel=9, data=[42, 0]),
   midi.NoteOnEvent(tick=0, channel=9, data=[42, 127]),
   midi.NoteOnEvent(tick=0, channel=9, data=[36, 127]),
   midi.NoteOnEvent(tick=60, channel=9, data=[42, 0]),
   midi.NoteOnEvent(tick=0, channel=9, data=[42, 127]),
   midi.NoteOnEvent(tick=60, channel=9, data=[36, 0]),
   midi.NoteOnEvent(tick=0, channel=9, data=[42, 0]),
   midi.NoteOnEvent(tick=0, channel=9, data=[38, 127]),
   midi.NoteOnEvent(tick=0, channel=9, data=[42, 127]),
   midi.NoteOnEvent(tick=60, channel=9, data=[38, 0]),
   midi.NoteOnEvent(tick=0, channel=9, data=[42, 0]),
   midi.NoteOnEvent(tick=0, channel=9, data=[36, 127]),
   midi.NoteOnEvent(tick=0, channel=9, data=[42, 127]),
   midi.NoteOnEvent(tick=60, channel=9, data=[36, 0]),
   midi.NoteOnEvent(tick=0, channel=9, data=[42, 0]),
   midi.NoteOnEvent(tick=0, channel=9, data=[36, 127]),
   midi.NoteOnEvent(tick=0, channel=9, data=[42, 127]),
   midi.NoteOnEvent(tick=60, channel=9, data=[42, 0]),
   midi.NoteOnEvent(tick=0, channel=9, data=[42, 127]),
   midi.NoteOnEvent(tick=60, channel=9, data=[36, 0]),
   midi.NoteOnEvent(tick=0, channel=9, data=[42, 0]),
   midi.NoteOnEvent(tick=0, channel=9, data=[38, 127]),
   midi.NoteOnEvent(tick=0, channel=9, data=[42, 127]),
   midi.NoteOnEvent(tick=60, channel=9, data=[38, 0]),
   midi.NoteOnEvent(tick=0, channel=9, data=[42, 0]),
   midi.NoteOnEvent(tick=0, channel=9, data=[42, 127]),
   midi.NoteOnEvent(tick=60, channel=9, data=[42, 0]),
   midi.NoteOnEvent(tick=0, channel=9, data=[36, 127]),
   midi.NoteOnEvent(tick=0, channel=9, data=[42, 127]),
   midi.NoteOnEvent(tick=60, channel=9, data=[42, 0]),
   midi.NoteOnEvent(tick=0, channel=9, data=[42, 127]),
   midi.NoteOnEvent(tick=60, channel=9, data=[36, 0]),
   midi.NoteOnEvent(tick=0, channel=9, data=[42, 0]),
   midi.NoteOnEvent(tick=0, channel=9, data=[38, 127]),
   midi.NoteOnEvent(tick=0, channel=9, data=[42, 127]),
   midi.NoteOnEvent(tick=60, channel=9, data=[38, 0]),
   midi.NoteOnEvent(tick=0, channel=9, data=[42, 0]),
   midi.NoteOnEvent(tick=0, channel=9, data=[57, 127]),
   midi.NoteOnEvent(tick=0, channel=9, data=[36, 127]),
   midi.NoteOnEvent(tick=60, channel=9, data=[57, 0]),
   midi.NoteOnEvent(tick=0, channel=9, data=[36, 0]),
   midi.NoteOnEvent(tick=0, channel=9, data=[57, 127]),
   midi.NoteOnEvent(tick=0, channel=9, data=[36, 127]),
   midi.NoteOnEvent(tick=60, channel=9, data=[57, 0]),
   midi.NoteOnEvent(tick=0, channel=9, data=[42, 127]),
   midi.NoteOnEvent(tick=60, channel=9, data=[36, 0]),
   midi.NoteOnEvent(tick=0, channel=9, data=[42, 0]),
   midi.NoteOnEvent(tick=0, channel=9, data=[38, 127]),
   midi.NoteOnEvent(tick=0, channel=9, data=[42, 127]),
   midi.NoteOnEvent(tick=60, channel=9, data=[38, 0]),
   midi.NoteOnEvent(tick=0, channel=9, data=[42, 0]),
   midi.NoteOnEvent(tick=0, channel=9, data=[42, 127]),
   midi.NoteOnEvent(tick=60, channel=9, data=[42, 0]),
   midi.NoteOnEvent(tick=0, channel=9, data=[42, 127]),
   midi.NoteOnEvent(tick=0, channel=9, data=[36, 127]),
   midi.NoteOnEvent(tick=60, channel=9, data=[42, 0]),
   midi.NoteOnEvent(tick=0, channel=9, data=[42, 127]),
   midi.NoteOnEvent(tick=60, channel=9, data=[36, 0]),
   midi.NoteOnEvent(tick=0, channel=9, data=[42, 0]),
   midi.NoteOnEvent(tick=0, channel=9, data=[38, 127]),
   midi.NoteOnEvent(tick=0, channel=9, data=[42, 127]),
   midi.NoteOnEvent(tick=60, channel=9, data=[38, 0]),
   midi.NoteOnEvent(tick=0, channel=9, data=[42, 0]),
   midi.NoteOnEvent(tick=0, channel=9, data=[36, 127]),
   midi.NoteOnEvent(tick=0, channel=9, data=[42, 127]),
   midi.NoteOnEvent(tick=60, channel=9, data=[36, 0]),
   midi.NoteOnEvent(tick=0, channel=9, data=[42, 0]),
   midi.NoteOnEvent(tick=0, channel=9, data=[42, 127]),
   midi.NoteOnEvent(tick=0, channel=9, data=[36, 127]),
   midi.NoteOnEvent(tick=60, channel=9, data=[42, 0]),
   midi.NoteOnEvent(tick=0, channel=9, data=[42, 127]),
   midi.NoteOnEvent(tick=60, channel=9, data=[36, 0]),
   midi.NoteOnEvent(tick=0, channel=9, data=[42, 0]),
   midi.NoteOnEvent(tick=0, channel=9, data=[57, 127]),
   midi.NoteOnEvent(tick=0, channel=9, data=[38, 127]),
   midi.NoteOnEvent(tick=60, channel=9, data=[57, 0]),
   midi.NoteOnEvent(tick=0, channel=9, data=[38, 0]),
   midi.NoteOnEvent(tick=0, channel=9, data=[42, 127]),
   midi.NoteOnEvent(tick=60, channel=9, data=[42, 0]),
   midi.NoteOnEvent(tick=0, channel=9, data=[42, 127]),
   midi.NoteOnEvent(tick=0, channel=9, data=[36, 127]),
   midi.NoteOnEvent(tick=60, channel=9, data=[42, 0]),
   midi.NoteOnEvent(tick=0, channel=9, data=[42, 127]),
   midi.NoteOnEvent(tick=60, channel=9, data=[36, 0]),
   midi.NoteOnEvent(tick=0, channel=9, data=[42, 0]),
   midi.NoteOnEvent(tick=0, channel=9, data=[38, 127]),
   midi.NoteOnEvent(tick=0, channel=9, data=[42, 127]),
   midi.NoteOnEvent(tick=60, channel=9, data=[38, 0]),
   midi.NoteOnEvent(tick=0, channel=9, data=[42, 0]),
   midi.NoteOnEvent(tick=0, channel=9, data=[42, 127]),
   midi.NoteOnEvent(tick=0, channel=9, data=[36, 127]),
   midi.NoteOnEvent(tick=60, channel=9, data=[42, 0]),
   midi.NoteOnEvent(tick=0, channel=9, data=[36, 0]),
   midi.NoteOnEvent(tick=0, channel=9, data=[42, 127]),
   midi.NoteOnEvent(tick=0, channel=9, data=[36, 127]),
   midi.NoteOnEvent(tick=60, channel=9, data=[42, 0]),
   midi.NoteOnEvent(tick=0, channel=9, data=[42, 127]),
   midi.NoteOnEvent(tick=60, channel=9, data=[36, 0]),
   midi.NoteOnEvent(tick=0, channel=9, data=[42, 0]),
   midi.NoteOnEvent(tick=0, channel=9, data=[42, 127]),
   midi.NoteOnEvent(tick=0, channel=9, data=[38, 127]),
   midi.NoteOnEvent(tick=60, channel=9, data=[42, 0]),
   midi.NoteOnEvent(tick=0, channel=9, data=[38, 0]),
   midi.NoteOnEvent(tick=0, channel=9, data=[42, 127]),
   midi.NoteOnEvent(tick=60, channel=9, data=[42, 0]),
   midi.NoteOnEvent(tick=0, channel=9, data=[42, 127]),
   midi.NoteOnEvent(tick=0, channel=9, data=[36, 127]),
   midi.NoteOnEvent(tick=60, channel=9, data=[42, 0]),
   midi.NoteOnEvent(tick=0, channel=9, data=[42, 127]),
   midi.NoteOnEvent(tick=60, channel=9, data=[36, 0]),
   midi.NoteOnEvent(tick=0, channel=9, data=[42, 0]),
   midi.NoteOnEvent(tick=0, channel=9, data=[38, 127]),
   midi.NoteOnEvent(tick=0, channel=9, data=[42, 127]),
   midi.NoteOnEvent(tick=60, channel=9, data=[38, 0]),
   midi.NoteOnEvent(tick=0, channel=9, data=[42, 0]),
   midi.NoteOnEvent(tick=0, channel=9, data=[36, 127]),
   midi.NoteOnEvent(tick=0, channel=9, data=[42, 127]),
   midi.NoteOnEvent(tick=60, channel=9, data=[36, 0]),
   midi.NoteOnEvent(tick=0, channel=9, data=[42, 0]),
   midi.NoteOnEvent(tick=0, channel=9, data=[36, 127]),
   midi.NoteOnEvent(tick=0, channel=9, data=[57, 127]),
   midi.NoteOnEvent(tick=60, channel=9, data=[57, 0]),
   midi.NoteOnEvent(tick=0, channel=9, data=[42, 127]),
   midi.NoteOnEvent(tick=60, channel=9, data=[36, 0]),
   midi.NoteOnEvent(tick=0, channel=9, data=[42, 0]),
   midi.NoteOnEvent(tick=0, channel=9, data=[42, 127]),
   midi.NoteOnEvent(tick=60, channel=9, data=[42, 0]),
   midi.NoteOnEvent(tick=0, channel=9, data=[36, 127]),
   midi.NoteOnEvent(tick=0, channel=9, data=[42, 127]),
   midi.NoteOnEvent(tick=60, channel=9, data=[36, 0]),
   midi.NoteOnEvent(tick=0, channel=9, data=[42, 0]),
   midi.NoteOnEvent(tick=0, channel=9, data=[36, 127]),
   midi.NoteOnEvent(tick=0, channel=9, data=[42, 127]),
   midi.NoteOnEvent(tick=60, channel=9, data=[42, 0]),
   midi.NoteOnEvent(tick=0, channel=9, data=[42, 127]),
   midi.NoteOnEvent(tick=60, channel=9, data=[36, 0]),
   midi.NoteOnEvent(tick=0, channel=9, data=[42, 0]),
   midi.NoteOnEvent(tick=0, channel=9, data=[42, 127]),
   midi.NoteOnEvent(tick=60, channel=9, data=[42, 0]),
   midi.NoteOnEvent(tick=0, channel=9, data=[36, 127]),
   midi.NoteOnEvent(tick=0, channel=9, data=[42, 127]),
   midi.NoteOnEvent(tick=60, channel=9, data=[36, 0]),
   midi.NoteOnEvent(tick=0, channel=9, data=[42, 0]),
   midi.NoteOnEvent(tick=0, channel=9, data=[42, 127]),
   midi.NoteOnEvent(tick=0, channel=9, data=[36, 127]),
   midi.NoteOnEvent(tick=60, channel=9, data=[42, 0]),
   midi.NoteOnEvent(tick=0, channel=9, data=[42, 127]),
   midi.NoteOnEvent(tick=60, channel=9, data=[36, 0]),
   midi.NoteOnEvent(tick=0, channel=9, data=[42, 0]),
   midi.NoteOnEvent(tick=0, channel=9, data=[42, 127]),
   midi.NoteOnEvent(tick=60, channel=9, data=[42, 0]),
   midi.NoteOnEvent(tick=0, channel=9, data=[36, 127]),
   midi.NoteOnEvent(tick=0, channel=9, data=[42, 127]),
   midi.NoteOnEvent(tick=60, channel=9, data=[36, 0]),
   midi.NoteOnEvent(tick=0, channel=9, data=[42, 0]),
   midi.NoteOnEvent(tick=0, channel=9, data=[42, 127]),
   midi.NoteOnEvent(tick=0, channel=9, data=[36, 127]),
   midi.NoteOnEvent(tick=60, channel=9, data=[42, 0]),
   midi.NoteOnEvent(tick=0, channel=9, data=[42, 127]),
   midi.NoteOnEvent(tick=60, channel=9, data=[36, 0]),
   midi.NoteOnEvent(tick=0, channel=9, data=[42, 0]),
   midi.NoteOnEvent(tick=0, channel=9, data=[42, 127]),
   midi.NoteOnEvent(tick=60, channel=9, data=[42, 0]),
   midi.NoteOnEvent(tick=0, channel=9, data=[42, 127]),
   midi.NoteOnEvent(tick=60, channel=9, data=[42, 0]),
   midi.NoteOnEvent(tick=0, channel=9, data=[36, 127]),
   midi.NoteOnEvent(tick=0, channel=9, data=[57, 127]),
   midi.NoteOnEvent(tick=120, channel=9, data=[57, 0]),
   midi.NoteOnEvent(tick=60, channel=9, data=[36, 0]),
   midi.NoteOnEvent(tick=0, channel=9, data=[48, 127]),
   midi.NoteOnEvent(tick=0, channel=9, data=[47, 127]),
   midi.NoteOnEvent(tick=60, channel=9, data=[48, 0]),
   midi.NoteOnEvent(tick=0, channel=9, data=[47, 0]),
   midi.NoteOnEvent(tick=0, channel=9, data=[48, 127]),
   midi.NoteOnEvent(tick=0, channel=9, data=[47, 127]),
   midi.NoteOnEvent(tick=60, channel=9, data=[48, 0]),
   midi.NoteOnEvent(tick=0, channel=9, data=[47, 0]),
   midi.NoteOnEvent(tick=0, channel=9, data=[48, 127]),
   midi.NoteOnEvent(tick=0, channel=9, data=[47, 127]),
   midi.NoteOnEvent(tick=60, channel=9, data=[48, 0]),
   midi.NoteOnEvent(tick=0, channel=9, data=[47, 0]),
   midi.NoteOnEvent(tick=0, channel=9, data=[48, 127]),
   midi.NoteOnEvent(tick=0, channel=9, data=[47, 127]),
   midi.NoteOnEvent(tick=120, channel=9, data=[48, 0]),
   midi.NoteOnEvent(tick=0, channel=9, data=[47, 0]),
   midi.NoteOnEvent(tick=0, channel=9, data=[36, 127]),
   midi.NoteOnEvent(tick=0, channel=9, data=[57, 127]),
   midi.NoteOnEvent(tick=120, channel=9, data=[36, 0]),
   midi.NoteOnEvent(tick=0, channel=9, data=[57, 0]),
   midi.NoteOnEvent(tick=60, channel=9, data=[47, 127]),
   midi.NoteOnEvent(tick=0, channel=9, data=[48, 127]),
   midi.NoteOnEvent(tick=60, channel=9, data=[47, 0]),
   midi.NoteOnEvent(tick=0, channel=9, data=[48, 0]),
   midi.NoteOnEvent(tick=0, channel=9, data=[48, 127]),
   midi.NoteOnEvent(tick=0, channel=9, data=[47, 127]),
   midi.NoteOnEvent(tick=80, channel=9, data=[48, 0]),
   midi.NoteOnEvent(tick=0, channel=9, data=[47, 0]),
   midi.NoteOnEvent(tick=0, channel=9, data=[36, 127]),
   midi.NoteOnEvent(tick=0, channel=9, data=[57, 127]),
   midi.NoteOnEvent(tick=80, channel=9, data=[36, 0]),
   midi.NoteOnEvent(tick=0, channel=9, data=[57, 0]),
   midi.NoteOnEvent(tick=0, channel=9, data=[36, 127]),
   midi.NoteOnEvent(tick=0, channel=9, data=[57, 127]),
   midi.NoteOnEvent(tick=80, channel=9, data=[36, 0]),
   midi.NoteOnEvent(tick=0, channel=9, data=[57, 0]),
   midi.NoteOnEvent(tick=0, channel=9, data=[57, 127]),
   midi.NoteOnEvent(tick=0, channel=9, data=[36, 127]),
   midi.NoteOnEvent(tick=120, channel=9, data=[57, 0]),
   midi.NoteOnEvent(tick=0, channel=9, data=[36, 0]),
   midi.NoteOnEvent(tick=60, channel=9, data=[50, 127]),
   midi.NoteOnEvent(tick=0, channel=9, data=[48, 127]),
   midi.NoteOnEvent(tick=60, channel=9, data=[50, 0]),
   midi.NoteOnEvent(tick=0, channel=9, data=[48, 0]),
   midi.NoteOnEvent(tick=0, channel=9, data=[48, 127]),
   midi.NoteOnEvent(tick=0, channel=9, data=[50, 127]),
   midi.NoteOnEvent(tick=80, channel=9, data=[48, 0]),
   midi.NoteOnEvent(tick=0, channel=9, data=[50, 0]),
   midi.NoteOnEvent(tick=0, channel=9, data=[36, 127]),
   midi.NoteOnEvent(tick=0, channel=9, data=[57, 127]),
   midi.NoteOnEvent(tick=80, channel=9, data=[36, 0]),
   midi.NoteOnEvent(tick=0, channel=9, data=[57, 0]),
   midi.NoteOnEvent(tick=0, channel=9, data=[36, 127]),
   midi.NoteOnEvent(tick=0, channel=9, data=[57, 127]),
   midi.NoteOnEvent(tick=80, channel=9, data=[36, 0]),
   midi.NoteOnEvent(tick=0, channel=9, data=[57, 0]),
   midi.NoteOnEvent(tick=0, channel=9, data=[36, 127]),
   midi.NoteOnEvent(tick=0, channel=9, data=[57, 75]),
   midi.NoteOnEvent(tick=20, channel=9, data=[57, 0]),
   midi.NoteOnEvent(tick=0, channel=9, data=[57, 75]),
   midi.NoteOnEvent(tick=20, channel=9, data=[57, 0]),
   midi.NoteOnEvent(tick=0, channel=9, data=[57, 75]),
   midi.NoteOnEvent(tick=20, channel=9, data=[57, 0]),
   midi.NoteOnEvent(tick=0, channel=9, data=[57, 75]),
   midi.NoteOnEvent(tick=20, channel=9, data=[57, 0]),
   midi.NoteOnEvent(tick=0, channel=9, data=[57, 75]),
   midi.NoteOnEvent(tick=20, channel=9, data=[57, 0]),
   midi.NoteOnEvent(tick=0, channel=9, data=[57, 75]),
   midi.NoteOnEvent(tick=20, channel=9, data=[36, 0]),
   midi.NoteOnEvent(tick=0, channel=9, data=[57, 0]),
   midi.NoteOnEvent(tick=0, channel=9, data=[57, 75]),
   midi.NoteOnEvent(tick=20, channel=9, data=[57, 0]),
   midi.NoteOnEvent(tick=0, channel=9, data=[57, 75]),
   midi.NoteOnEvent(tick=20, channel=9, data=[57, 0]),
   midi.NoteOnEvent(tick=0, channel=9, data=[57, 75]),
   midi.NoteOnEvent(tick=20, channel=9, data=[57, 0]),
   midi.NoteOnEvent(tick=0, channel=9, data=[57, 75]),
   midi.NoteOnEvent(tick=20, channel=9, data=[57, 0]),
   midi.NoteOnEvent(tick=0, channel=9, data=[57, 75]),
   midi.NoteOnEvent(tick=20, channel=9, data=[57, 0]),
   midi.NoteOnEvent(tick=0, channel=9, data=[57, 75]),
   midi.NoteOnEvent(tick=20, channel=9, data=[57, 0]),
   midi.NoteOnEvent(tick=0, channel=9, data=[57, 75]),
   midi.NoteOnEvent(tick=20, channel=9, data=[57, 0]),
   midi.NoteOnEvent(tick=0, channel=9, data=[57, 75]),
   midi.NoteOnEvent(tick=20, channel=9, data=[57, 0]),
   midi.NoteOnEvent(tick=0, channel=9, data=[57, 75]),
   midi.NoteOnEvent(tick=20, channel=9, data=[57, 0]),
   midi.NoteOnEvent(tick=0, channel=9, data=[57, 75]),
   midi.NoteOnEvent(tick=20, channel=9, data=[57, 0]),
   midi.NoteOnEvent(tick=0, channel=9, data=[57, 75]),
   midi.NoteOnEvent(tick=20, channel=9, data=[57, 0]),
   midi.NoteOnEvent(tick=0, channel=9, data=[57, 75]),
   midi.NoteOnEvent(tick=20, channel=9, data=[57, 0]),
   midi.NoteOnEvent(tick=0, channel=9, data=[57, 75]),
   midi.NoteOnEvent(tick=20, channel=9, data=[57, 0]),
   midi.NoteOnEvent(tick=0, channel=9, data=[57, 75]),
   midi.NoteOnEvent(tick=20, channel=9, data=[57, 0]),
   midi.NoteOnEvent(tick=0, channel=9, data=[57, 75]),
   midi.NoteOnEvent(tick=20, channel=9, data=[57, 0]),
   midi.NoteOnEvent(tick=0, channel=9, data=[57, 75]),
   midi.NoteOnEvent(tick=20, channel=9, data=[57, 0]),
   midi.NoteOnEvent(tick=0, channel=9, data=[57, 75]),
   midi.NoteOnEvent(tick=20, channel=9, data=[57, 0]),
   midi.NoteOnEvent(tick=0, channel=9, data=[57, 75]),
   midi.NoteOnEvent(tick=140, channel=9, data=[57, 0]),
   midi.NoteOnEvent(tick=1080, channel=9, data=[36, 127]),
   midi.NoteOnEvent(tick=0, channel=9, data=[57, 127]),
   midi.NoteOnEvent(tick=180, channel=9, data=[36, 0]),
   midi.NoteOnEvent(tick=0, channel=9, data=[57, 0]),
   midi.NoteOnEvent(tick=540, channel=9, data=[57, 127]),
   midi.NoteOnEvent(tick=0, channel=9, data=[36, 127]),
   midi.NoteOnEvent(tick=180, channel=9, data=[57, 0]),
   midi.NoteOnEvent(tick=0, channel=9, data=[36, 0]),
   midi.NoteOnEvent(tick=480, channel=9, data=[36, 127]),
   midi.NoteOnEvent(tick=0, channel=9, data=[57, 127]),
   midi.NoteOnEvent(tick=60, channel=9, data=[36, 0]),
   midi.NoteOnEvent(tick=0, channel=9, data=[57, 0]),
   midi.NoteOnEvent(tick=0, channel=9, data=[36, 127]),
   midi.NoteOnEvent(tick=0, channel=9, data=[57, 127]),
   midi.NoteOnEvent(tick=180, channel=9, data=[36, 0]),
   midi.NoteOnEvent(tick=0, channel=9, data=[57, 0]),
   midi.NoteOnEvent(tick=60, channel=9, data=[45, 127]),
   midi.NoteOnEvent(tick=60, channel=9, data=[45, 0]),
   midi.NoteOnEvent(tick=0, channel=9, data=[45, 127]),
   midi.NoteOnEvent(tick=60, channel=9, data=[45, 0]),
   midi.NoteOnEvent(tick=0, channel=9, data=[47, 127]),
   midi.NoteOnEvent(tick=60, channel=9, data=[47, 0]),
   midi.NoteOnEvent(tick=0, channel=9, data=[47, 127]),
   midi.NoteOnEvent(tick=60, channel=9, data=[47, 0]),
   midi.NoteOnEvent(tick=0, channel=9, data=[47, 127]),
   midi.NoteOnEvent(tick=60, channel=9, data=[47, 0]),
   midi.NoteOnEvent(tick=0, channel=9, data=[48, 127]),
   midi.NoteOnEvent(tick=60, channel=9, data=[48, 0]),
   midi.NoteOnEvent(tick=0, channel=9, data=[48, 127]),
   midi.NoteOnEvent(tick=60, channel=9, data=[48, 0]),
   midi.NoteOnEvent(tick=0, channel=9, data=[50, 127]),
   midi.NoteOnEvent(tick=60, channel=9, data=[50, 0]),
   midi.NoteOnEvent(tick=0, channel=9, data=[36, 127]),
   midi.NoteOnEvent(tick=0, channel=9, data=[57, 127]),
   midi.NoteOnEvent(tick=60, channel=9, data=[57, 0]),
   midi.NoteOnEvent(tick=0, channel=9, data=[42, 127]),
   midi.NoteOnEvent(tick=60, channel=9, data=[36, 0]),
   midi.NoteOnEvent(tick=0, channel=9, data=[42, 0]),
   midi.NoteOnEvent(tick=0, channel=9, data=[36, 127]),
   midi.NoteOnEvent(tick=0, channel=9, data=[42, 127]),
   midi.NoteOnEvent(tick=60, channel=9, data=[36, 0]),
   midi.NoteOnEvent(tick=0, channel=9, data=[42, 0]),
   midi.NoteOnEvent(tick=0, channel=9, data=[42, 127]),
   midi.NoteOnEvent(tick=0, channel=9, data=[38, 127]),
   midi.NoteOnEvent(tick=60, channel=9, data=[42, 0]),
   midi.NoteOnEvent(tick=0, channel=9, data=[38, 0]),
   midi.NoteOnEvent(tick=0, channel=9, data=[42, 127]),
   midi.NoteOnEvent(tick=60, channel=9, data=[42, 0]),
   midi.NoteOnEvent(tick=0, channel=9, data=[36, 127]),
   midi.NoteOnEvent(tick=0, channel=9, data=[42, 127]),
   midi.NoteOnEvent(tick=60, channel=9, data=[36, 0]),
   midi.NoteOnEvent(tick=0, channel=9, data=[42, 0]),
   midi.NoteOnEvent(tick=0, channel=9, data=[42, 127]),
   midi.NoteOnEvent(tick=0, channel=9, data=[36, 127]),
   midi.NoteOnEvent(tick=60, channel=9, data=[42, 0]),
   midi.NoteOnEvent(tick=0, channel=9, data=[42, 127]),
   midi.NoteOnEvent(tick=60, channel=9, data=[36, 0]),
   midi.NoteOnEvent(tick=0, channel=9, data=[42, 0]),
   midi.NoteOnEvent(tick=0, channel=9, data=[36, 127]),
   midi.NoteOnEvent(tick=0, channel=9, data=[42, 127]),
   midi.NoteOnEvent(tick=60, channel=9, data=[36, 0]),
   midi.NoteOnEvent(tick=0, channel=9, data=[42, 0]),
   midi.NoteOnEvent(tick=0, channel=9, data=[42, 127]),
   midi.NoteOnEvent(tick=0, channel=9, data=[38, 127]),
   midi.NoteOnEvent(tick=30, channel=9, data=[36, 127]),
   midi.NoteOnEvent(tick=30, channel=9, data=[42, 0]),
   midi.NoteOnEvent(tick=0, channel=9, data=[38, 0]),
   midi.NoteOnEvent(tick=0, channel=9, data=[42, 127]),
   midi.NoteOnEvent(tick=30, channel=9, data=[36, 0]),
   midi.NoteOnEvent(tick=0, channel=9, data=[36, 127]),
   midi.NoteOnEvent(tick=30, channel=9, data=[42, 0]),
   midi.NoteOnEvent(tick=0, channel=9, data=[36, 0]),
   midi.NoteOnEvent(tick=0, channel=9, data=[36, 127]),
   midi.NoteOnEvent(tick=0, channel=9, data=[42, 127]),
   midi.NoteOnEvent(tick=60, channel=9, data=[36, 0]),
   midi.NoteOnEvent(tick=0, channel=9, data=[42, 0]),
   midi.NoteOnEvent(tick=0, channel=9, data=[42, 127]),
   midi.NoteOnEvent(tick=0, channel=9, data=[36, 127]),
   midi.NoteOnEvent(tick=60, channel=9, data=[42, 0]),
   midi.NoteOnEvent(tick=0, channel=9, data=[42, 127]),
   midi.NoteOnEvent(tick=60, channel=9, data=[36, 0]),
   midi.NoteOnEvent(tick=0, channel=9, data=[42, 0]),
   midi.NoteOnEvent(tick=0, channel=9, data=[42, 127]),
   midi.NoteOnEvent(tick=0, channel=9, data=[36, 127]),
   midi.NoteOnEvent(tick=60, channel=9, data=[42, 0]),
   midi.NoteOnEvent(tick=0, channel=9, data=[36, 0]),
   midi.NoteOnEvent(tick=0, channel=9, data=[57, 127]),
   midi.NoteOnEvent(tick=0, channel=9, data=[38, 127]),
   midi.NoteOnEvent(tick=60, channel=9, data=[57, 0]),
   midi.NoteOnEvent(tick=0, channel=9, data=[38, 0]),
   midi.NoteOnEvent(tick=0, channel=9, data=[42, 127]),
   midi.NoteOnEvent(tick=60, channel=9, data=[42, 0]),
   midi.NoteOnEvent(tick=0, channel=9, data=[36, 127]),
   midi.NoteOnEvent(tick=0, channel=9, data=[42, 127]),
   midi.NoteOnEvent(tick=60, channel=9, data=[36, 0]),
   midi.NoteOnEvent(tick=0, channel=9, data=[42, 0]),
   midi.NoteOnEvent(tick=0, channel=9, data=[42, 127]),
   midi.NoteOnEvent(tick=0, channel=9, data=[36, 127]),
   midi.NoteOnEvent(tick=60, channel=9, data=[42, 0]),
   midi.NoteOnEvent(tick=0, channel=9, data=[42, 127]),
   midi.NoteOnEvent(tick=60, channel=9, data=[36, 0]),
   midi.NoteOnEvent(tick=0, channel=9, data=[42, 0]),
   midi.NoteOnEvent(tick=0, channel=9, data=[36, 127]),
   midi.NoteOnEvent(tick=0, channel=9, data=[42, 127]),
   midi.NoteOnEvent(tick=60, channel=9, data=[36, 0]),
   midi.NoteOnEvent(tick=0, channel=9, data=[42, 0]),
   midi.NoteOnEvent(tick=0, channel=9, data=[42, 127]),
   midi.NoteOnEvent(tick=0, channel=9, data=[38, 127]),
   midi.NoteOnEvent(tick=30, channel=9, data=[36, 127]),
   midi.NoteOnEvent(tick=30, channel=9, data=[42, 0]),
   midi.NoteOnEvent(tick=0, channel=9, data=[38, 0]),
   midi.NoteOnEvent(tick=0, channel=9, data=[42, 127]),
   midi.NoteOnEvent(tick=30, channel=9, data=[36, 0]),
   midi.NoteOnEvent(tick=0, channel=9, data=[36, 127]),
   midi.NoteOnEvent(tick=30, channel=9, data=[42, 0]),
   midi.NoteOnEvent(tick=0, channel=9, data=[36, 0]),
   midi.NoteOnEvent(tick=0, channel=9, data=[36, 127]),
   midi.NoteOnEvent(tick=0, channel=9, data=[42, 127]),
   midi.NoteOnEvent(tick=60, channel=9, data=[36, 0]),
   midi.NoteOnEvent(tick=0, channel=9, data=[42, 0]),
   midi.NoteOnEvent(tick=0, channel=9, data=[42, 127]),
   midi.NoteOnEvent(tick=0, channel=9, data=[36, 127]),
   midi.NoteOnEvent(tick=60, channel=9, data=[42, 0]),
   midi.NoteOnEvent(tick=0, channel=9, data=[42, 127]),
   midi.NoteOnEvent(tick=60, channel=9, data=[36, 0]),
   midi.NoteOnEvent(tick=0, channel=9, data=[42, 0]),
   midi.NoteOnEvent(tick=0, channel=9, data=[42, 127]),
   midi.NoteOnEvent(tick=0, channel=9, data=[36, 127]),
   midi.NoteOnEvent(tick=60, channel=9, data=[42, 0]),
   midi.NoteOnEvent(tick=0, channel=9, data=[36, 0]),
   midi.NoteOnEvent(tick=0, channel=9, data=[57, 127]),
   midi.NoteOnEvent(tick=0, channel=9, data=[38, 127]),
   midi.NoteOnEvent(tick=60, channel=9, data=[57, 0]),
   midi.NoteOnEvent(tick=0, channel=9, data=[38, 0]),
   midi.NoteOnEvent(tick=0, channel=9, data=[42, 127]),
   midi.NoteOnEvent(tick=60, channel=9, data=[42, 0]),
   midi.NoteOnEvent(tick=0, channel=9, data=[36, 127]),
   midi.NoteOnEvent(tick=0, channel=9, data=[42, 127]),
   midi.NoteOnEvent(tick=60, channel=9, data=[36, 0]),
   midi.NoteOnEvent(tick=0, channel=9, data=[42, 0]),
   midi.NoteOnEvent(tick=0, channel=9, data=[36, 127]),
   midi.NoteOnEvent(tick=0, channel=9, data=[42, 127]),
   midi.NoteOnEvent(tick=60, channel=9, data=[42, 0]),
   midi.NoteOnEvent(tick=0, channel=9, data=[42, 127]),
   midi.NoteOnEvent(tick=60, channel=9, data=[36, 0]),
   midi.NoteOnEvent(tick=0, channel=9, data=[42, 0]),
   midi.NoteOnEvent(tick=0, channel=9, data=[36, 127]),
   midi.NoteOnEvent(tick=0, channel=9, data=[42, 127]),
   midi.NoteOnEvent(tick=60, channel=9, data=[36, 0]),
   midi.NoteOnEvent(tick=0, channel=9, data=[42, 0]),
   midi.NoteOnEvent(tick=0, channel=9, data=[42, 127]),
   midi.NoteOnEvent(tick=0, channel=9, data=[38, 127]),
   midi.NoteOnEvent(tick=30, channel=9, data=[42, 0]),
   midi.NoteOnEvent(tick=0, channel=9, data=[38, 0]),
   midi.NoteOnEvent(tick=0, channel=9, data=[42, 127]),
   midi.NoteOnEvent(tick=30, channel=9, data=[42, 0]),
   midi.NoteOnEvent(tick=0, channel=9, data=[42, 127]),
   midi.NoteOnEvent(tick=30, channel=9, data=[42, 0]),
   midi.NoteOnEvent(tick=0, channel=9, data=[38, 127]),
   midi.NoteOnEvent(tick=30, channel=9, data=[38, 0]),
   midi.NoteOnEvent(tick=0, channel=9, data=[57, 127]),
   midi.NoteOnEvent(tick=0, channel=9, data=[36, 127]),
   midi.NoteOnEvent(tick=60, channel=9, data=[57, 0]),
   midi.NoteOnEvent(tick=0, channel=9, data=[36, 0]),
   midi.NoteOnEvent(tick=0, channel=9, data=[36, 127]),
   midi.NoteOnEvent(tick=0, channel=9, data=[57, 127]),
   midi.NoteOnEvent(tick=60, channel=9, data=[57, 0]),
   midi.NoteOnEvent(tick=0, channel=9, data=[42, 127]),
   midi.NoteOnEvent(tick=60, channel=9, data=[36, 0]),
   midi.NoteOnEvent(tick=0, channel=9, data=[42, 0]),
   midi.NoteOnEvent(tick=0, channel=9, data=[36, 127]),
   midi.NoteOnEvent(tick=0, channel=9, data=[42, 127]),
   midi.NoteOnEvent(tick=60, channel=9, data=[36, 0]),
   midi.NoteOnEvent(tick=0, channel=9, data=[42, 0]),
   midi.NoteOnEvent(tick=0, channel=9, data=[42, 127]),
   midi.NoteOnEvent(tick=60, channel=9, data=[42, 0]),
   midi.NoteOnEvent(tick=0, channel=9, data=[38, 127]),
   midi.NoteOnEvent(tick=0, channel=9, data=[42, 127]),
   midi.NoteOnEvent(tick=60, channel=9, data=[38, 0]),
   midi.NoteOnEvent(tick=0, channel=9, data=[42, 0]),
   midi.NoteOnEvent(tick=0, channel=9, data=[36, 127]),
   midi.NoteOnEvent(tick=0, channel=9, data=[42, 127]),
   midi.NoteOnEvent(tick=60, channel=9, data=[36, 0]),
   midi.NoteOnEvent(tick=0, channel=9, data=[42, 0]),
   midi.NoteOnEvent(tick=0, channel=9, data=[42, 127]),
   midi.NoteOnEvent(tick=0, channel=9, data=[36, 127]),
   midi.NoteOnEvent(tick=60, channel=9, data=[42, 0]),
   midi.NoteOnEvent(tick=0, channel=9, data=[42, 127]),
   midi.NoteOnEvent(tick=60, channel=9, data=[36, 0]),
   midi.NoteOnEvent(tick=0, channel=9, data=[42, 0]),
   midi.NoteOnEvent(tick=0, channel=9, data=[42, 127]),
   midi.NoteOnEvent(tick=0, channel=9, data=[36, 127]),
   midi.NoteOnEvent(tick=60, channel=9, data=[42, 0]),
   midi.NoteOnEvent(tick=0, channel=9, data=[36, 0]),
   midi.NoteOnEvent(tick=0, channel=9, data=[38, 127]),
   midi.NoteOnEvent(tick=30, channel=9, data=[38, 0]),
   midi.NoteOnEvent(tick=0, channel=9, data=[38, 127]),
   midi.NoteOnEvent(tick=30, channel=9, data=[38, 0]),
   midi.NoteOnEvent(tick=0, channel=9, data=[38, 127]),
   midi.NoteOnEvent(tick=30, channel=9, data=[38, 0]),
   midi.NoteOnEvent(tick=0, channel=9, data=[38, 127]),
   midi.NoteOnEvent(tick=30, channel=9, data=[38, 0]),
   midi.NoteOnEvent(tick=0, channel=9, data=[38, 127]),
   midi.NoteOnEvent(tick=30, channel=9, data=[38, 0]),
   midi.NoteOnEvent(tick=0, channel=9, data=[38, 127]),
   midi.NoteOnEvent(tick=30, channel=9, data=[38, 0]),
   midi.NoteOnEvent(tick=0, channel=9, data=[57, 127]),
   midi.NoteOnEvent(tick=0, channel=9, data=[36, 127]),
   midi.NoteOnEvent(tick=60, channel=9, data=[57, 0]),
   midi.NoteOnEvent(tick=0, channel=9, data=[42, 127]),
   midi.NoteOnEvent(tick=60, channel=9, data=[36, 0]),
   midi.NoteOnEvent(tick=0, channel=9, data=[42, 0]),
   midi.NoteOnEvent(tick=0, channel=9, data=[36, 127]),
   midi.NoteOnEvent(tick=0, channel=9, data=[42, 127]),
   midi.NoteOnEvent(tick=60, channel=9, data=[36, 0]),
   midi.NoteOnEvent(tick=0, channel=9, data=[42, 0]),
   midi.NoteOnEvent(tick=0, channel=9, data=[38, 127]),
   midi.NoteOnEvent(tick=0, channel=9, data=[42, 127]),
   midi.NoteOnEvent(tick=60, channel=9, data=[38, 0]),
   midi.NoteOnEvent(tick=0, channel=9, data=[42, 0]),
   midi.NoteOnEvent(tick=0, channel=9, data=[42, 127]),
   midi.NoteOnEvent(tick=60, channel=9, data=[42, 0]),
   midi.NoteOnEvent(tick=0, channel=9, data=[36, 127]),
   midi.NoteOnEvent(tick=0, channel=9, data=[42, 127]),
   midi.NoteOnEvent(tick=60, channel=9, data=[36, 0]),
   midi.NoteOnEvent(tick=0, channel=9, data=[42, 0]),
   midi.NoteOnEvent(tick=0, channel=9, data=[42, 127]),
   midi.NoteOnEvent(tick=0, channel=9, data=[36, 127]),
   midi.NoteOnEvent(tick=60, channel=9, data=[42, 0]),
   midi.NoteOnEvent(tick=0, channel=9, data=[42, 127]),
   midi.NoteOnEvent(tick=60, channel=9, data=[36, 0]),
   midi.NoteOnEvent(tick=0, channel=9, data=[42, 0]),
   midi.NoteOnEvent(tick=0, channel=9, data=[36, 127]),
   midi.NoteOnEvent(tick=0, channel=9, data=[42, 127]),
   midi.NoteOnEvent(tick=60, channel=9, data=[36, 0]),
   midi.NoteOnEvent(tick=0, channel=9, data=[42, 0]),
   midi.NoteOnEvent(tick=0, channel=9, data=[42, 127]),
   midi.NoteOnEvent(tick=0, channel=9, data=[38, 127]),
   midi.NoteOnEvent(tick=30, channel=9, data=[36, 127]),
   midi.NoteOnEvent(tick=30, channel=9, data=[42, 0]),
   midi.NoteOnEvent(tick=0, channel=9, data=[38, 0]),
   midi.NoteOnEvent(tick=0, channel=9, data=[42, 127]),
   midi.NoteOnEvent(tick=30, channel=9, data=[36, 0]),
   midi.NoteOnEvent(tick=0, channel=9, data=[36, 127]),
   midi.NoteOnEvent(tick=30, channel=9, data=[42, 0]),
   midi.NoteOnEvent(tick=0, channel=9, data=[36, 0]),
   midi.NoteOnEvent(tick=0, channel=9, data=[36, 127]),
   midi.NoteOnEvent(tick=0, channel=9, data=[42, 127]),
   midi.NoteOnEvent(tick=60, channel=9, data=[36, 0]),
   midi.NoteOnEvent(tick=0, channel=9, data=[42, 0]),
   midi.NoteOnEvent(tick=0, channel=9, data=[36, 127]),
   midi.NoteOnEvent(tick=0, channel=9, data=[42, 127]),
   midi.NoteOnEvent(tick=60, channel=9, data=[42, 0]),
   midi.NoteOnEvent(tick=0, channel=9, data=[42, 127]),
   midi.NoteOnEvent(tick=60, channel=9, data=[36, 0]),
   midi.NoteOnEvent(tick=0, channel=9, data=[42, 0]),
   midi.NoteOnEvent(tick=0, channel=9, data=[36, 127]),
   midi.NoteOnEvent(tick=0, channel=9, data=[42, 127]),
   midi.NoteOnEvent(tick=60, channel=9, data=[36, 0]),
   midi.NoteOnEvent(tick=0, channel=9, data=[42, 0]),
   midi.NoteOnEvent(tick=0, channel=9, data=[57, 127]),
   midi.NoteOnEvent(tick=0, channel=9, data=[38, 127]),
   midi.NoteOnEvent(tick=60, channel=9, data=[57, 0]),
   midi.NoteOnEvent(tick=0, channel=9, data=[38, 0]),
   midi.NoteOnEvent(tick=0, channel=9, data=[42, 127]),
   midi.NoteOnEvent(tick=60, channel=9, data=[42, 0]),
   midi.NoteOnEvent(tick=0, channel=9, data=[36, 127]),
   midi.NoteOnEvent(tick=0, channel=9, data=[42, 127]),
   midi.NoteOnEvent(tick=60, channel=9, data=[36, 0]),
   midi.NoteOnEvent(tick=0, channel=9, data=[42, 0]),
   midi.NoteOnEvent(tick=0, channel=9, data=[42, 127]),
   midi.NoteOnEvent(tick=0, channel=9, data=[36, 127]),
   midi.NoteOnEvent(tick=60, channel=9, data=[42, 0]),
   midi.NoteOnEvent(tick=0, channel=9, data=[42, 127]),
   midi.NoteOnEvent(tick=60, channel=9, data=[36, 0]),
   midi.NoteOnEvent(tick=0, channel=9, data=[42, 0]),
   midi.NoteOnEvent(tick=0, channel=9, data=[42, 127]),
   midi.NoteOnEvent(tick=60, channel=9, data=[42, 0]),
   midi.NoteOnEvent(tick=0, channel=9, data=[57, 127]),
   midi.NoteOnEvent(tick=0, channel=9, data=[38, 127]),
   midi.NoteOnEvent(tick=60, channel=9, data=[57, 0]),
   midi.NoteOnEvent(tick=0, channel=9, data=[38, 0]),
   midi.NoteOnEvent(tick=0, channel=9, data=[57, 127]),
   midi.NoteOnEvent(tick=0, channel=9, data=[38, 127]),
   midi.NoteOnEvent(tick=60, channel=9, data=[57, 0]),
   midi.NoteOnEvent(tick=0, channel=9, data=[38, 0]),
   midi.NoteOnEvent(tick=0, channel=9, data=[36, 127]),
   midi.NoteOnEvent(tick=0, channel=9, data=[57, 127]),
   midi.NoteOnEvent(tick=60, channel=9, data=[36, 0]),
   midi.NoteOnEvent(tick=0, channel=9, data=[57, 0]),
   midi.NoteOnEvent(tick=0, channel=9, data=[57, 127]),
   midi.NoteOnEvent(tick=0, channel=9, data=[36, 127]),
   midi.NoteOnEvent(tick=60, channel=9, data=[57, 0]),
   midi.NoteOnEvent(tick=0, channel=9, data=[42, 127]),
   midi.NoteOnEvent(tick=60, channel=9, data=[36, 0]),
   midi.NoteOnEvent(tick=0, channel=9, data=[42, 0]),
   midi.NoteOnEvent(tick=0, channel=9, data=[42, 127]),
   midi.NoteOnEvent(tick=0, channel=9, data=[36, 127]),
   midi.NoteOnEvent(tick=60, channel=9, data=[42, 0]),
   midi.NoteOnEvent(tick=0, channel=9, data=[36, 0]),
   midi.NoteOnEvent(tick=0, channel=9, data=[38, 127]),
   midi.NoteOnEvent(tick=0, channel=9, data=[42, 127]),
   midi.NoteOnEvent(tick=60, channel=9, data=[38, 0]),
   midi.NoteOnEvent(tick=0, channel=9, data=[42, 0]),
   midi.NoteOnEvent(tick=0, channel=9, data=[42, 127]),
   midi.NoteOnEvent(tick=60, channel=9, data=[42, 0]),
   midi.NoteOnEvent(tick=0, channel=9, data=[42, 127]),
   midi.NoteOnEvent(tick=0, channel=9, data=[36, 127]),
   midi.NoteOnEvent(tick=60, channel=9, data=[42, 0]),
   midi.NoteOnEvent(tick=0, channel=9, data=[36, 0]),
   midi.NoteOnEvent(tick=0, channel=9, data=[42, 127]),
   midi.NoteOnEvent(tick=0, channel=9, data=[36, 127]),
   midi.NoteOnEvent(tick=60, channel=9, data=[42, 0]),
   midi.NoteOnEvent(tick=0, channel=9, data=[42, 127]),
   midi.NoteOnEvent(tick=60, channel=9, data=[36, 0]),
   midi.NoteOnEvent(tick=0, channel=9, data=[42, 0]),
   midi.NoteOnEvent(tick=0, channel=9, data=[36, 127]),
   midi.NoteOnEvent(tick=0, channel=9, data=[42, 127]),
   midi.NoteOnEvent(tick=60, channel=9, data=[36, 0]),
   midi.NoteOnEvent(tick=0, channel=9, data=[42, 0]),
   midi.NoteOnEvent(tick=0, channel=9, data=[42, 127]),
   midi.NoteOnEvent(tick=0, channel=9, data=[38, 127]),
   midi.NoteOnEvent(tick=30, channel=9, data=[36, 127]),
   midi.NoteOnEvent(tick=30, channel=9, data=[42, 0]),
   midi.NoteOnEvent(tick=0, channel=9, data=[38, 0]),
   midi.NoteOnEvent(tick=0, channel=9, data=[42, 127]),
   midi.NoteOnEvent(tick=30, channel=9, data=[36, 0]),
   midi.NoteOnEvent(tick=0, channel=9, data=[36, 127]),
   midi.NoteOnEvent(tick=30, channel=9, data=[42, 0]),
   midi.NoteOnEvent(tick=0, channel=9, data=[36, 0]),
   midi.NoteOnEvent(tick=0, channel=9, data=[36, 127]),
   midi.NoteOnEvent(tick=0, channel=9, data=[42, 127]),
   midi.NoteOnEvent(tick=60, channel=9, data=[36, 0]),
   midi.NoteOnEvent(tick=0, channel=9, data=[42, 0]),
   midi.NoteOnEvent(tick=0, channel=9, data=[36, 127]),
   midi.NoteOnEvent(tick=0, channel=9, data=[42, 127]),
   midi.NoteOnEvent(tick=55, channel=9, data=[38, 75]),
   midi.NoteOnEvent(tick=5, channel=9, data=[42, 0]),
   midi.NoteOnEvent(tick=0, channel=9, data=[38, 0]),
   midi.NoteOnEvent(tick=0, channel=9, data=[38, 127]),
   midi.NoteOnEvent(tick=55, channel=9, data=[38, 75]),
   midi.NoteOnEvent(tick=5, channel=9, data=[38, 0]),
   midi.NoteOnEvent(tick=0, channel=9, data=[38, 0]),
   midi.NoteOnEvent(tick=0, channel=9, data=[38, 127]),
   midi.NoteOnEvent(tick=55, channel=9, data=[45, 75]),
   midi.NoteOnEvent(tick=5, channel=9, data=[36, 0]),
   midi.NoteOnEvent(tick=0, channel=9, data=[38, 0]),
   midi.NoteOnEvent(tick=0, channel=9, data=[45, 0]),
   midi.NoteOnEvent(tick=0, channel=9, data=[45, 127]),
   midi.NoteOnEvent(tick=55, channel=9, data=[47, 75]),
   midi.NoteOnEvent(tick=5, channel=9, data=[45, 0]),
   midi.NoteOnEvent(tick=0, channel=9, data=[47, 0]),
   midi.NoteOnEvent(tick=0, channel=9, data=[47, 127]),
   midi.NoteOnEvent(tick=55, channel=9, data=[48, 75]),
   midi.NoteOnEvent(tick=5, channel=9, data=[47, 0]),
   midi.NoteOnEvent(tick=0, channel=9, data=[48, 0]),
   midi.NoteOnEvent(tick=0, channel=9, data=[48, 127]),
   midi.NoteOnEvent(tick=55, channel=9, data=[48, 75]),
   midi.NoteOnEvent(tick=5, channel=9, data=[48, 0]),
   midi.NoteOnEvent(tick=0, channel=9, data=[48, 0]),
   midi.NoteOnEvent(tick=0, channel=9, data=[48, 127]),
   midi.NoteOnEvent(tick=55, channel=9, data=[50, 75]),
   midi.NoteOnEvent(tick=5, channel=9, data=[48, 0]),
   midi.NoteOnEvent(tick=0, channel=9, data=[50, 0]),
   midi.NoteOnEvent(tick=0, channel=9, data=[50, 127]),
   midi.NoteOnEvent(tick=55, channel=9, data=[50, 75]),
   midi.NoteOnEvent(tick=5, channel=9, data=[50, 0]),
   midi.NoteOnEvent(tick=0, channel=9, data=[50, 0]),
   midi.NoteOnEvent(tick=0, channel=9, data=[50, 127]),
   midi.NoteOnEvent(tick=60, channel=9, data=[50, 0]),
   midi.NoteOnEvent(tick=0, channel=9, data=[43, 127]),
   midi.NoteOnEvent(tick=30, channel=9, data=[43, 0]),
   midi.NoteOnEvent(tick=0, channel=9, data=[43, 127]),
   midi.NoteOnEvent(tick=30, channel=9, data=[43, 0]),
   midi.NoteOnEvent(tick=0, channel=9, data=[43, 127]),
   midi.NoteOnEvent(tick=30, channel=9, data=[43, 0]),
   midi.NoteOnEvent(tick=0, channel=9, data=[43, 127]),
   midi.NoteOnEvent(tick=30, channel=9, data=[43, 0]),
   midi.NoteOnEvent(tick=0, channel=9, data=[43, 127]),
   midi.NoteOnEvent(tick=30, channel=9, data=[43, 0]),
   midi.NoteOnEvent(tick=0, channel=9, data=[43, 127]),
   midi.NoteOnEvent(tick=30, channel=9, data=[43, 0]),
   midi.NoteOnEvent(tick=0, channel=9, data=[36, 127]),
   midi.NoteOnEvent(tick=0, channel=9, data=[57, 127]),
   midi.NoteOnEvent(tick=60, channel=9, data=[57, 0]),
   midi.NoteOnEvent(tick=0, channel=9, data=[42, 127]),
   midi.NoteOnEvent(tick=60, channel=9, data=[36, 0]),
   midi.NoteOnEvent(tick=0, channel=9, data=[42, 0]),
   midi.NoteOnEvent(tick=0, channel=9, data=[36, 127]),
   midi.NoteOnEvent(tick=0, channel=9, data=[42, 127]),
   midi.NoteOnEvent(tick=60, channel=9, data=[36, 0]),
   midi.NoteOnEvent(tick=0, channel=9, data=[42, 0]),
   midi.NoteOnEvent(tick=0, channel=9, data=[38, 127]),
   midi.NoteOnEvent(tick=0, channel=9, data=[42, 127]),
   midi.NoteOnEvent(tick=60, channel=9, data=[38, 0]),
   midi.NoteOnEvent(tick=0, channel=9, data=[42, 0]),
   midi.NoteOnEvent(tick=0, channel=9, data=[42, 127]),
   midi.NoteOnEvent(tick=60, channel=9, data=[42, 0]),
   midi.NoteOnEvent(tick=0, channel=9, data=[36, 127]),
   midi.NoteOnEvent(tick=0, channel=9, data=[42, 127]),
   midi.NoteOnEvent(tick=60, channel=9, data=[36, 0]),
   midi.NoteOnEvent(tick=0, channel=9, data=[42, 0]),
   midi.NoteOnEvent(tick=0, channel=9, data=[42, 127]),
   midi.NoteOnEvent(tick=0, channel=9, data=[36, 127]),
   midi.NoteOnEvent(tick=60, channel=9, data=[42, 0]),
   midi.NoteOnEvent(tick=0, channel=9, data=[42, 127]),
   midi.NoteOnEvent(tick=60, channel=9, data=[36, 0]),
   midi.NoteOnEvent(tick=0, channel=9, data=[42, 0]),
   midi.NoteOnEvent(tick=0, channel=9, data=[36, 127]),
   midi.NoteOnEvent(tick=0, channel=9, data=[42, 127]),
   midi.NoteOnEvent(tick=60, channel=9, data=[36, 0]),
   midi.NoteOnEvent(tick=0, channel=9, data=[42, 0]),
   midi.NoteOnEvent(tick=0, channel=9, data=[38, 127]),
   midi.NoteOnEvent(tick=0, channel=9, data=[42, 127]),
   midi.NoteOnEvent(tick=30, channel=9, data=[36, 127]),
   midi.NoteOnEvent(tick=30, channel=9, data=[38, 0]),
   midi.NoteOnEvent(tick=0, channel=9, data=[42, 0]),
   midi.NoteOnEvent(tick=0, channel=9, data=[42, 127]),
   midi.NoteOnEvent(tick=30, channel=9, data=[36, 0]),
   midi.NoteOnEvent(tick=0, channel=9, data=[36, 127]),
   midi.NoteOnEvent(tick=30, channel=9, data=[42, 0]),
   midi.NoteOnEvent(tick=0, channel=9, data=[36, 0]),
   midi.NoteOnEvent(tick=0, channel=9, data=[36, 127]),
   midi.NoteOnEvent(tick=0, channel=9, data=[42, 127]),
   midi.NoteOnEvent(tick=60, channel=9, data=[36, 0]),
   midi.NoteOnEvent(tick=0, channel=9, data=[42, 0]),
   midi.NoteOnEvent(tick=0, channel=9, data=[36, 127]),
   midi.NoteOnEvent(tick=0, channel=9, data=[42, 127]),
   midi.NoteOnEvent(tick=60, channel=9, data=[42, 0]),
   midi.NoteOnEvent(tick=0, channel=9, data=[42, 127]),
   midi.NoteOnEvent(tick=60, channel=9, data=[36, 0]),
   midi.NoteOnEvent(tick=0, channel=9, data=[42, 0]),
   midi.NoteOnEvent(tick=0, channel=9, data=[36, 127]),
   midi.NoteOnEvent(tick=0, channel=9, data=[42, 127]),
   midi.NoteOnEvent(tick=60, channel=9, data=[36, 0]),
   midi.NoteOnEvent(tick=0, channel=9, data=[42, 0]),
   midi.NoteOnEvent(tick=0, channel=9, data=[57, 127]),
   midi.NoteOnEvent(tick=0, channel=9, data=[38, 127]),
   midi.NoteOnEvent(tick=60, channel=9, data=[57, 0]),
   midi.NoteOnEvent(tick=0, channel=9, data=[38, 0]),
   midi.NoteOnEvent(tick=0, channel=9, data=[42, 127]),
   midi.NoteOnEvent(tick=60, channel=9, data=[42, 0]),
   midi.NoteOnEvent(tick=0, channel=9, data=[36, 127]),
   midi.NoteOnEvent(tick=0, channel=9, data=[42, 127]),
   midi.NoteOnEvent(tick=60, channel=9, data=[36, 0]),
   midi.NoteOnEvent(tick=0, channel=9, data=[42, 0]),
   midi.NoteOnEvent(tick=0, channel=9, data=[42, 127]),
   midi.NoteOnEvent(tick=0, channel=9, data=[36, 127]),
   midi.NoteOnEvent(tick=60, channel=9, data=[42, 0]),
   midi.NoteOnEvent(tick=0, channel=9, data=[42, 127]),
   midi.NoteOnEvent(tick=60, channel=9, data=[36, 0]),
   midi.NoteOnEvent(tick=0, channel=9, data=[42, 0]),
   midi.NoteOnEvent(tick=0, channel=9, data=[42, 127]),
   midi.NoteOnEvent(tick=0, channel=9, data=[36, 127]),
   midi.NoteOnEvent(tick=60, channel=9, data=[42, 0]),
   midi.NoteOnEvent(tick=0, channel=9, data=[36, 0]),
   midi.NoteOnEvent(tick=0, channel=9, data=[38, 127]),
   midi.NoteOnEvent(tick=30, channel=9, data=[38, 0]),
   midi.NoteOnEvent(tick=0, channel=9, data=[45, 127]),
   midi.NoteOnEvent(tick=30, channel=9, data=[45, 0]),
   midi.NoteOnEvent(tick=0, channel=9, data=[47, 127]),
   midi.NoteOnEvent(tick=30, channel=9, data=[47, 0]),
   midi.NoteOnEvent(tick=0, channel=9, data=[47, 127]),
   midi.NoteOnEvent(tick=30, channel=9, data=[47, 0]),
   midi.NoteOnEvent(tick=0, channel=9, data=[48, 127]),
   midi.NoteOnEvent(tick=30, channel=9, data=[48, 0]),
   midi.NoteOnEvent(tick=0, channel=9, data=[48, 127]),
   midi.NoteOnEvent(tick=30, channel=9, data=[48, 0]),
   midi.NoteOnEvent(tick=0, channel=9, data=[57, 127]),
   midi.NoteOnEvent(tick=0, channel=9, data=[36, 127]),
   midi.NoteOnEvent(tick=60, channel=9, data=[57, 0]),
   midi.NoteOnEvent(tick=0, channel=9, data=[42, 127]),
   midi.NoteOnEvent(tick=60, channel=9, data=[36, 0]),
   midi.NoteOnEvent(tick=0, channel=9, data=[42, 0]),
   midi.NoteOnEvent(tick=0, channel=9, data=[42, 127]),
   midi.NoteOnEvent(tick=60, channel=9, data=[42, 0]),
   midi.NoteOnEvent(tick=0, channel=9, data=[36, 127]),
   midi.NoteOnEvent(tick=0, channel=9, data=[42, 127]),
   midi.NoteOnEvent(tick=60, channel=9, data=[36, 0]),
   midi.NoteOnEvent(tick=0, channel=9, data=[42, 0]),
   midi.NoteOnEvent(tick=0, channel=9, data=[38, 127]),
   midi.NoteOnEvent(tick=0, channel=9, data=[42, 127]),
   midi.NoteOnEvent(tick=60, channel=9, data=[38, 0]),
   midi.NoteOnEvent(tick=0, channel=9, data=[42, 0]),
   midi.NoteOnEvent(tick=0, channel=9, data=[36, 127]),
   midi.NoteOnEvent(tick=0, channel=9, data=[42, 127]),
   midi.NoteOnEvent(tick=60, channel=9, data=[36, 0]),
   midi.NoteOnEvent(tick=0, channel=9, data=[42, 0]),
   midi.NoteOnEvent(tick=0, channel=9, data=[42, 127]),
   midi.NoteOnEvent(tick=0, channel=9, data=[36, 127]),
   midi.NoteOnEvent(tick=60, channel=9, data=[42, 0]),
   midi.NoteOnEvent(tick=0, channel=9, data=[42, 127]),
   midi.NoteOnEvent(tick=60, channel=9, data=[36, 0]),
   midi.NoteOnEvent(tick=0, channel=9, data=[42, 0]),
   midi.NoteOnEvent(tick=0, channel=9, data=[36, 127]),
   midi.NoteOnEvent(tick=0, channel=9, data=[42, 127]),
   midi.NoteOnEvent(tick=60, channel=9, data=[36, 0]),
   midi.NoteOnEvent(tick=0, channel=9, data=[42, 0]),
   midi.NoteOnEvent(tick=0, channel=9, data=[42, 127]),
   midi.NoteOnEvent(tick=0, channel=9, data=[38, 127]),
   midi.NoteOnEvent(tick=30, channel=9, data=[36, 127]),
   midi.NoteOnEvent(tick=30, channel=9, data=[42, 0]),
   midi.NoteOnEvent(tick=0, channel=9, data=[38, 0]),
   midi.NoteOnEvent(tick=0, channel=9, data=[42, 127]),
   midi.NoteOnEvent(tick=30, channel=9, data=[36, 0]),
   midi.NoteOnEvent(tick=0, channel=9, data=[36, 127]),
   midi.NoteOnEvent(tick=30, channel=9, data=[42, 0]),
   midi.NoteOnEvent(tick=0, channel=9, data=[36, 0]),
   midi.NoteOnEvent(tick=0, channel=9, data=[36, 127]),
   midi.NoteOnEvent(tick=0, channel=9, data=[42, 127]),
   midi.NoteOnEvent(tick=60, channel=9, data=[36, 0]),
   midi.NoteOnEvent(tick=0, channel=9, data=[42, 0]),
   midi.NoteOnEvent(tick=0, channel=9, data=[36, 127]),
   midi.NoteOnEvent(tick=0, channel=9, data=[42, 127]),
   midi.NoteOnEvent(tick=55, channel=9, data=[38, 75]),
   midi.NoteOnEvent(tick=5, channel=9, data=[42, 0]),
   midi.NoteOnEvent(tick=0, channel=9, data=[38, 0]),
   midi.NoteOnEvent(tick=0, channel=9, data=[38, 127]),
   midi.NoteOnEvent(tick=55, channel=9, data=[38, 75]),
   midi.NoteOnEvent(tick=5, channel=9, data=[38, 0]),
   midi.NoteOnEvent(tick=0, channel=9, data=[38, 0]),
   midi.NoteOnEvent(tick=0, channel=9, data=[38, 127]),
   midi.NoteOnEvent(tick=55, channel=9, data=[45, 75]),
   midi.NoteOnEvent(tick=5, channel=9, data=[36, 0]),
   midi.NoteOnEvent(tick=0, channel=9, data=[38, 0]),
   midi.NoteOnEvent(tick=0, channel=9, data=[45, 0]),
   midi.NoteOnEvent(tick=0, channel=9, data=[45, 127]),
   midi.NoteOnEvent(tick=55, channel=9, data=[47, 75]),
   midi.NoteOnEvent(tick=5, channel=9, data=[45, 0]),
   midi.NoteOnEvent(tick=0, channel=9, data=[47, 0]),
   midi.NoteOnEvent(tick=0, channel=9, data=[47, 127]),
   midi.NoteOnEvent(tick=55, channel=9, data=[48, 75]),
   midi.NoteOnEvent(tick=5, channel=9, data=[47, 0]),
   midi.NoteOnEvent(tick=0, channel=9, data=[48, 0]),
   midi.NoteOnEvent(tick=0, channel=9, data=[48, 127]),
   midi.NoteOnEvent(tick=55, channel=9, data=[50, 75]),
   midi.NoteOnEvent(tick=5, channel=9, data=[48, 0]),
   midi.NoteOnEvent(tick=0, channel=9, data=[50, 0]),
   midi.NoteOnEvent(tick=0, channel=9, data=[50, 127]),
   midi.NoteOnEvent(tick=55, channel=9, data=[50, 75]),
   midi.NoteOnEvent(tick=5, channel=9, data=[50, 0]),
   midi.NoteOnEvent(tick=0, channel=9, data=[50, 0]),
   midi.NoteOnEvent(tick=0, channel=9, data=[50, 127]),
   midi.NoteOnEvent(tick=55, channel=9, data=[50, 75]),
   midi.NoteOnEvent(tick=5, channel=9, data=[50, 0]),
   midi.NoteOnEvent(tick=0, channel=9, data=[50, 0]),
   midi.NoteOnEvent(tick=0, channel=9, data=[50, 127]),
   midi.NoteOnEvent(tick=60, channel=9, data=[50, 0]),
   midi.NoteOnEvent(tick=0, channel=9, data=[43, 127]),
   midi.NoteOnEvent(tick=30, channel=9, data=[43, 0]),
   midi.NoteOnEvent(tick=0, channel=9, data=[43, 127]),
   midi.NoteOnEvent(tick=30, channel=9, data=[43, 0]),
   midi.NoteOnEvent(tick=0, channel=9, data=[43, 127]),
   midi.NoteOnEvent(tick=30, channel=9, data=[43, 0]),
   midi.NoteOnEvent(tick=0, channel=9, data=[43, 127]),
   midi.NoteOnEvent(tick=30, channel=9, data=[43, 0]),
   midi.NoteOnEvent(tick=0, channel=9, data=[43, 127]),
   midi.NoteOnEvent(tick=30, channel=9, data=[43, 0]),
   midi.NoteOnEvent(tick=0, channel=9, data=[43, 127]),
   midi.NoteOnEvent(tick=30, channel=9, data=[43, 0]),
   midi.NoteOnEvent(tick=0, channel=9, data=[36, 127]),
   midi.NoteOnEvent(tick=0, channel=9, data=[57, 127]),
   midi.NoteOnEvent(tick=60, channel=9, data=[57, 0]),
   midi.NoteOnEvent(tick=0, channel=9, data=[42, 127]),
   midi.NoteOnEvent(tick=60, channel=9, data=[36, 0]),
   midi.NoteOnEvent(tick=0, channel=9, data=[42, 0]),
   midi.NoteOnEvent(tick=0, channel=9, data=[36, 127]),
   midi.NoteOnEvent(tick=0, channel=9, data=[42, 127]),
   midi.NoteOnEvent(tick=60, channel=9, data=[36, 0]),
   midi.NoteOnEvent(tick=0, channel=9, data=[42, 0]),
   midi.NoteOnEvent(tick=0, channel=9, data=[38, 127]),
   midi.NoteOnEvent(tick=0, channel=9, data=[42, 127]),
   midi.NoteOnEvent(tick=60, channel=9, data=[38, 0]),
   midi.NoteOnEvent(tick=0, channel=9, data=[42, 0]),
   midi.NoteOnEvent(tick=0, channel=9, data=[42, 127]),
   midi.NoteOnEvent(tick=60, channel=9, data=[42, 0]),
   midi.NoteOnEvent(tick=0, channel=9, data=[36, 127]),
   midi.NoteOnEvent(tick=0, channel=9, data=[42, 127]),
   midi.NoteOnEvent(tick=60, channel=9, data=[36, 0]),
   midi.NoteOnEvent(tick=0, channel=9, data=[42, 0]),
   midi.NoteOnEvent(tick=0, channel=9, data=[42, 127]),
   midi.NoteOnEvent(tick=0, channel=9, data=[36, 127]),
   midi.NoteOnEvent(tick=60, channel=9, data=[42, 0]),
   midi.NoteOnEvent(tick=0, channel=9, data=[42, 127]),
   midi.NoteOnEvent(tick=60, channel=9, data=[36, 0]),
   midi.NoteOnEvent(tick=0, channel=9, data=[42, 0]),
   midi.NoteOnEvent(tick=0, channel=9, data=[36, 127]),
   midi.NoteOnEvent(tick=0, channel=9, data=[42, 127]),
   midi.NoteOnEvent(tick=60, channel=9, data=[36, 0]),
   midi.NoteOnEvent(tick=0, channel=9, data=[42, 0]),
   midi.NoteOnEvent(tick=0, channel=9, data=[38, 127]),
   midi.NoteOnEvent(tick=0, channel=9, data=[42, 127]),
   midi.NoteOnEvent(tick=30, channel=9, data=[36, 127]),
   midi.NoteOnEvent(tick=30, channel=9, data=[38, 0]),
   midi.NoteOnEvent(tick=0, channel=9, data=[42, 0]),
   midi.NoteOnEvent(tick=0, channel=9, data=[42, 127]),
   midi.NoteOnEvent(tick=30, channel=9, data=[36, 0]),
   midi.NoteOnEvent(tick=0, channel=9, data=[36, 127]),
   midi.NoteOnEvent(tick=30, channel=9, data=[42, 0]),
   midi.NoteOnEvent(tick=0, channel=9, data=[36, 0]),
   midi.NoteOnEvent(tick=0, channel=9, data=[36, 127]),
   midi.NoteOnEvent(tick=0, channel=9, data=[42, 127]),
   midi.NoteOnEvent(tick=60, channel=9, data=[36, 0]),
   midi.NoteOnEvent(tick=0, channel=9, data=[42, 0]),
   midi.NoteOnEvent(tick=0, channel=9, data=[36, 127]),
   midi.NoteOnEvent(tick=0, channel=9, data=[42, 127]),
   midi.NoteOnEvent(tick=60, channel=9, data=[42, 0]),
   midi.NoteOnEvent(tick=0, channel=9, data=[42, 127]),
   midi.NoteOnEvent(tick=60, channel=9, data=[36, 0]),
   midi.NoteOnEvent(tick=0, channel=9, data=[42, 0]),
   midi.NoteOnEvent(tick=0, channel=9, data=[36, 127]),
   midi.NoteOnEvent(tick=0, channel=9, data=[42, 127]),
   midi.NoteOnEvent(tick=60, channel=9, data=[36, 0]),
   midi.NoteOnEvent(tick=0, channel=9, data=[42, 0]),
   midi.NoteOnEvent(tick=0, channel=9, data=[57, 127]),
   midi.NoteOnEvent(tick=0, channel=9, data=[38, 127]),
   midi.NoteOnEvent(tick=60, channel=9, data=[57, 0]),
   midi.NoteOnEvent(tick=0, channel=9, data=[38, 0]),
   midi.NoteOnEvent(tick=0, channel=9, data=[42, 127]),
   midi.NoteOnEvent(tick=60, channel=9, data=[42, 0]),
   midi.NoteOnEvent(tick=0, channel=9, data=[42, 127]),
   midi.NoteOnEvent(tick=0, channel=9, data=[36, 127]),
   midi.NoteOnEvent(tick=60, channel=9, data=[42, 0]),
   midi.NoteOnEvent(tick=0, channel=9, data=[36, 0]),
   midi.NoteOnEvent(tick=0, channel=9, data=[36, 127]),
   midi.NoteOnEvent(tick=0, channel=9, data=[42, 127]),
   midi.NoteOnEvent(tick=60, channel=9, data=[42, 0]),
   midi.NoteOnEvent(tick=0, channel=9, data=[42, 127]),
   midi.NoteOnEvent(tick=60, channel=9, data=[36, 0]),
   midi.NoteOnEvent(tick=0, channel=9, data=[42, 0]),
   midi.NoteOnEvent(tick=0, channel=9, data=[36, 127]),
   midi.NoteOnEvent(tick=0, channel=9, data=[42, 127]),
   midi.NoteOnEvent(tick=60, channel=9, data=[36, 0]),
   midi.NoteOnEvent(tick=0, channel=9, data=[42, 0]),
   midi.NoteOnEvent(tick=0, channel=9, data=[42, 127]),
   midi.NoteOnEvent(tick=0, channel=9, data=[38, 127]),
   midi.NoteOnEvent(tick=60, channel=9, data=[42, 0]),
   midi.NoteOnEvent(tick=0, channel=9, data=[38, 0]),
   midi.NoteOnEvent(tick=0, channel=9, data=[42, 127]),
   midi.NoteOnEvent(tick=30, channel=9, data=[42, 0]),
   midi.NoteOnEvent(tick=0, channel=9, data=[38, 127]),
   midi.NoteOnEvent(tick=30, channel=9, data=[38, 0]),
   midi.NoteOnEvent(tick=0, channel=9, data=[57, 127]),
   midi.NoteOnEvent(tick=0, channel=9, data=[36, 127]),
   midi.NoteOnEvent(tick=60, channel=9, data=[57, 0]),
   midi.NoteOnEvent(tick=0, channel=9, data=[36, 0]),
   midi.NoteOnEvent(tick=0, channel=9, data=[36, 127]),
   midi.NoteOnEvent(tick=0, channel=9, data=[57, 127]),
   midi.NoteOnEvent(tick=60, channel=9, data=[57, 0]),
   midi.NoteOnEvent(tick=0, channel=9, data=[42, 127]),
   midi.NoteOnEvent(tick=60, channel=9, data=[36, 0]),
   midi.NoteOnEvent(tick=0, channel=9, data=[42, 0]),
   midi.NoteOnEvent(tick=0, channel=9, data=[42, 127]),
   midi.NoteOnEvent(tick=0, channel=9, data=[36, 127]),
   midi.NoteOnEvent(tick=60, channel=9, data=[42, 0]),
   midi.NoteOnEvent(tick=0, channel=9, data=[36, 0]),
   midi.NoteOnEvent(tick=0, channel=9, data=[38, 127]),
   midi.NoteOnEvent(tick=0, channel=9, data=[42, 127]),
   midi.NoteOnEvent(tick=60, channel=9, data=[38, 0]),
   midi.NoteOnEvent(tick=0, channel=9, data=[42, 0]),
   midi.NoteOnEvent(tick=0, channel=9, data=[42, 127]),
   midi.NoteOnEvent(tick=60, channel=9, data=[42, 0]),
   midi.NoteOnEvent(tick=0, channel=9, data=[36, 127]),
   midi.NoteOnEvent(tick=0, channel=9, data=[42, 127]),
   midi.NoteOnEvent(tick=60, channel=9, data=[36, 0]),
   midi.NoteOnEvent(tick=0, channel=9, data=[42, 0]),
   midi.NoteOnEvent(tick=0, channel=9, data=[36, 127]),
   midi.NoteOnEvent(tick=0, channel=9, data=[42, 127]),
   midi.NoteOnEvent(tick=60, channel=9, data=[42, 0]),
   midi.NoteOnEvent(tick=0, channel=9, data=[42, 127]),
   midi.NoteOnEvent(tick=60, channel=9, data=[36, 0]),
   midi.NoteOnEvent(tick=0, channel=9, data=[42, 0]),
   midi.NoteOnEvent(tick=0, channel=9, data=[42, 127]),
   midi.NoteOnEvent(tick=0, channel=9, data=[36, 127]),
   midi.NoteOnEvent(tick=60, channel=9, data=[42, 0]),
   midi.NoteOnEvent(tick=0, channel=9, data=[36, 0]),
   midi.NoteOnEvent(tick=0, channel=9, data=[38, 127]),
   midi.NoteOnEvent(tick=0, channel=9, data=[42, 127]),
   midi.NoteOnEvent(tick=60, channel=9, data=[38, 0]),
   midi.NoteOnEvent(tick=0, channel=9, data=[42, 0]),
   midi.NoteOnEvent(tick=0, channel=9, data=[57, 127]),
   midi.NoteOnEvent(tick=0, channel=9, data=[38, 127]),
   midi.NoteOnEvent(tick=60, channel=9, data=[57, 0]),
   midi.NoteOnEvent(tick=0, channel=9, data=[38, 0]),
   midi.NoteOnEvent(tick=0, channel=9, data=[57, 127]),
   midi.NoteOnEvent(tick=0, channel=9, data=[36, 127]),
   midi.NoteOnEvent(tick=60, channel=9, data=[57, 0]),
   midi.NoteOnEvent(tick=0, channel=9, data=[36, 0]),
   midi.NoteOnEvent(tick=0, channel=9, data=[57, 127]),
   midi.NoteOnEvent(tick=0, channel=9, data=[36, 127]),
   midi.NoteOnEvent(tick=60, channel=9, data=[57, 0]),
   midi.NoteOnEvent(tick=0, channel=9, data=[42, 127]),
   midi.NoteOnEvent(tick=60, channel=9, data=[36, 0]),
   midi.NoteOnEvent(tick=0, channel=9, data=[42, 0]),
   midi.NoteOnEvent(tick=0, channel=9, data=[36, 127]),
   midi.NoteOnEvent(tick=0, channel=9, data=[42, 127]),
   midi.NoteOnEvent(tick=60, channel=9, data=[36, 0]),
   midi.NoteOnEvent(tick=0, channel=9, data=[42, 0]),
   midi.NoteOnEvent(tick=0, channel=9, data=[42, 127]),
   midi.NoteOnEvent(tick=0, channel=9, data=[38, 127]),
   midi.NoteOnEvent(tick=60, channel=9, data=[42, 0]),
   midi.NoteOnEvent(tick=0, channel=9, data=[38, 0]),
   midi.NoteOnEvent(tick=0, channel=9, data=[42, 127]),
   midi.NoteOnEvent(tick=60, channel=9, data=[42, 0]),
   midi.NoteOnEvent(tick=0, channel=9, data=[36, 127]),
   midi.NoteOnEvent(tick=0, channel=9, data=[42, 127]),
   midi.NoteOnEvent(tick=60, channel=9, data=[36, 0]),
   midi.NoteOnEvent(tick=0, channel=9, data=[42, 0]),
   midi.NoteOnEvent(tick=0, channel=9, data=[42, 127]),
   midi.NoteOnEvent(tick=0, channel=9, data=[36, 127]),
   midi.NoteOnEvent(tick=60, channel=9, data=[42, 0]),
   midi.NoteOnEvent(tick=0, channel=9, data=[42, 127]),
   midi.NoteOnEvent(tick=60, channel=9, data=[36, 0]),
   midi.NoteOnEvent(tick=0, channel=9, data=[42, 0]),
   midi.NoteOnEvent(tick=0, channel=9, data=[42, 127]),
   midi.NoteOnEvent(tick=0, channel=9, data=[36, 127]),
   midi.NoteOnEvent(tick=60, channel=9, data=[42, 0]),
   midi.NoteOnEvent(tick=0, channel=9, data=[36, 0]),
   midi.NoteOnEvent(tick=0, channel=9, data=[38, 127]),
   midi.NoteOnEvent(tick=0, channel=9, data=[42, 127]),
   midi.NoteOnEvent(tick=45, channel=9, data=[38, 0]),
   midi.NoteOnEvent(tick=0, channel=9, data=[42, 0]),
   midi.NoteOnEvent(tick=0, channel=9, data=[38, 127]),
   midi.NoteOnEvent(tick=5, channel=9, data=[38, 0]),
   midi.NoteOnEvent(tick=0, channel=9, data=[38, 127]),
   midi.NoteOnEvent(tick=5, channel=9, data=[38, 0]),
   midi.NoteOnEvent(tick=0, channel=9, data=[38, 127]),
   midi.NoteOnEvent(tick=5, channel=9, data=[38, 0]),
   midi.NoteOnEvent(tick=0, channel=9, data=[38, 127]),
   midi.NoteOnEvent(tick=30, channel=9, data=[38, 0]),
   midi.NoteOnEvent(tick=0, channel=9, data=[38, 127]),
   midi.NoteOnEvent(tick=30, channel=9, data=[38, 0]),
   midi.NoteOnEvent(tick=0, channel=9, data=[36, 127]),
   midi.NoteOnEvent(tick=0, channel=9, data=[57, 127]),
   midi.NoteOnEvent(tick=60, channel=9, data=[36, 0]),
   midi.NoteOnEvent(tick=0, channel=9, data=[57, 0]),
   midi.NoteOnEvent(tick=0, channel=9, data=[57, 127]),
   midi.NoteOnEvent(tick=0, channel=9, data=[36, 127]),
   midi.NoteOnEvent(tick=60, channel=9, data=[57, 0]),
   midi.NoteOnEvent(tick=0, channel=9, data=[42, 127]),
   midi.NoteOnEvent(tick=60, channel=9, data=[36, 0]),
   midi.NoteOnEvent(tick=0, channel=9, data=[42, 0]),
   midi.NoteOnEvent(tick=0, channel=9, data=[36, 127]),
   midi.NoteOnEvent(tick=0, channel=9, data=[42, 127]),
   midi.NoteOnEvent(tick=60, channel=9, data=[36, 0]),
   midi.NoteOnEvent(tick=0, channel=9, data=[42, 0]),
   midi.NoteOnEvent(tick=0, channel=9, data=[38, 127]),
   midi.NoteOnEvent(tick=0, channel=9, data=[42, 127]),
   midi.NoteOnEvent(tick=60, channel=9, data=[38, 0]),
   midi.NoteOnEvent(tick=0, channel=9, data=[42, 0]),
   midi.NoteOnEvent(tick=0, channel=9, data=[42, 127]),
   midi.NoteOnEvent(tick=60, channel=9, data=[42, 0]),
   midi.NoteOnEvent(tick=0, channel=9, data=[36, 127]),
   midi.NoteOnEvent(tick=0, channel=9, data=[42, 127]),
   midi.NoteOnEvent(tick=60, channel=9, data=[36, 0]),
   midi.NoteOnEvent(tick=0, channel=9, data=[42, 0]),
   midi.NoteOnEvent(tick=0, channel=9, data=[42, 127]),
   midi.NoteOnEvent(tick=0, channel=9, data=[36, 127]),
   midi.NoteOnEvent(tick=60, channel=9, data=[42, 0]),
   midi.NoteOnEvent(tick=0, channel=9, data=[42, 127]),
   midi.NoteOnEvent(tick=60, channel=9, data=[36, 0]),
   midi.NoteOnEvent(tick=0, channel=9, data=[42, 0]),
   midi.NoteOnEvent(tick=0, channel=9, data=[36, 127]),
   midi.NoteOnEvent(tick=0, channel=9, data=[42, 127]),
   midi.NoteOnEvent(tick=60, channel=9, data=[36, 0]),
   midi.NoteOnEvent(tick=0, channel=9, data=[42, 0]),
   midi.NoteOnEvent(tick=0, channel=9, data=[42, 127]),
   midi.NoteOnEvent(tick=0, channel=9, data=[38, 127]),
   midi.NoteOnEvent(tick=60, channel=9, data=[42, 0]),
   midi.NoteOnEvent(tick=0, channel=9, data=[38, 0]),
   midi.NoteOnEvent(tick=0, channel=9, data=[36, 127]),
   midi.NoteOnEvent(tick=0, channel=9, data=[57, 127]),
   midi.NoteOnEvent(tick=60, channel=9, data=[36, 0]),
   midi.NoteOnEvent(tick=0, channel=9, data=[57, 0]),
   midi.NoteOnEvent(tick=0, channel=9, data=[36, 127]),
   midi.NoteOnEvent(tick=0, channel=9, data=[57, 127]),
   midi.NoteOnEvent(tick=60, channel=9, data=[36, 0]),
   midi.NoteOnEvent(tick=0, channel=9, data=[57, 0]),
   midi.NoteOnEvent(tick=0, channel=9, data=[36, 127]),
   midi.NoteOnEvent(tick=0, channel=9, data=[57, 127]),
   midi.NoteOnEvent(tick=60, channel=9, data=[57, 0]),
   midi.NoteOnEvent(tick=0, channel=9, data=[42, 127]),
   midi.NoteOnEvent(tick=60, channel=9, data=[36, 0]),
   midi.NoteOnEvent(tick=0, channel=9, data=[42, 0]),
   midi.NoteOnEvent(tick=0, channel=9, data=[36, 127]),
   midi.NoteOnEvent(tick=0, channel=9, data=[42, 127]),
   midi.NoteOnEvent(tick=55, channel=9, data=[38, 75]),
   midi.NoteOnEvent(tick=5, channel=9, data=[36, 0]),
   midi.NoteOnEvent(tick=0, channel=9, data=[42, 0]),
   midi.NoteOnEvent(tick=0, channel=9, data=[38, 0]),
   midi.NoteOnEvent(tick=0, channel=9, data=[38, 127]),
   midi.NoteOnEvent(tick=55, channel=9, data=[38, 75]),
   midi.NoteOnEvent(tick=5, channel=9, data=[38, 0]),
   midi.NoteOnEvent(tick=0, channel=9, data=[38, 0]),
   midi.NoteOnEvent(tick=0, channel=9, data=[38, 127]),
   midi.NoteOnEvent(tick=55, channel=9, data=[38, 75]),
   midi.NoteOnEvent(tick=5, channel=9, data=[38, 0]),
   midi.NoteOnEvent(tick=0, channel=9, data=[38, 0]),
   midi.NoteOnEvent(tick=0, channel=9, data=[38, 127]),
   midi.NoteOnEvent(tick=55, channel=9, data=[45, 75]),
   midi.NoteOnEvent(tick=5, channel=9, data=[38, 0]),
   midi.NoteOnEvent(tick=0, channel=9, data=[45, 0]),
   midi.NoteOnEvent(tick=0, channel=9, data=[45, 127]),
   midi.NoteOnEvent(tick=50, channel=9, data=[45, 0]),
   midi.NoteOnEvent(tick=4, channel=9, data=[45, 75]),
   midi.NoteOnEvent(tick=2, channel=9, data=[45, 0]),
   midi.NoteOnEvent(tick=0, channel=9, data=[45, 75]),
   midi.NoteOnEvent(tick=2, channel=9, data=[45, 0]),
   midi.NoteOnEvent(tick=0, channel=9, data=[45, 75]),
   midi.NoteOnEvent(tick=2, channel=9, data=[45, 0]),
   midi.NoteOnEvent(tick=0, channel=9, data=[45, 127]),
   midi.NoteOnEvent(tick=30, channel=9, data=[45, 0]),
   midi.NoteOnEvent(tick=0, channel=9, data=[45, 127]),
   midi.NoteOnEvent(tick=30, channel=9, data=[45, 0]),
   midi.NoteOnEvent(tick=0, channel=9, data=[47, 127]),
   midi.NoteOnEvent(tick=30, channel=9, data=[47, 0]),
   midi.NoteOnEvent(tick=0, channel=9, data=[47, 127]),
   midi.NoteOnEvent(tick=30, channel=9, data=[47, 0]),
   midi.NoteOnEvent(tick=0, channel=9, data=[48, 127]),
   midi.NoteOnEvent(tick=30, channel=9, data=[48, 0]),
   midi.NoteOnEvent(tick=0, channel=9, data=[48, 127]),
   midi.NoteOnEvent(tick=30, channel=9, data=[48, 0]),
   midi.NoteOnEvent(tick=0, channel=9, data=[50, 127]),
   midi.NoteOnEvent(tick=30, channel=9, data=[50, 0]),
   midi.NoteOnEvent(tick=0, channel=9, data=[50, 127]),
   midi.NoteOnEvent(tick=30, channel=9, data=[50, 0]),
   midi.NoteOnEvent(tick=0, channel=9, data=[43, 127]),
   midi.NoteOnEvent(tick=30, channel=9, data=[43, 0]),
   midi.NoteOnEvent(tick=0, channel=9, data=[43, 127]),
   midi.NoteOnEvent(tick=30, channel=9, data=[43, 0]),
   midi.NoteOnEvent(tick=0, channel=9, data=[36, 127]),
   midi.NoteOnEvent(tick=0, channel=9, data=[57, 127]),
   midi.NoteOnEvent(tick=60, channel=9, data=[57, 0]),
   midi.NoteOnEvent(tick=0, channel=9, data=[42, 127]),
   midi.NoteOnEvent(tick=60, channel=9, data=[36, 0]),
   midi.NoteOnEvent(tick=0, channel=9, data=[42, 0]),
   midi.NoteOnEvent(tick=0, channel=9, data=[36, 127]),
   midi.NoteOnEvent(tick=0, channel=9, data=[42, 127]),
   midi.NoteOnEvent(tick=60, channel=9, data=[36, 0]),
   midi.NoteOnEvent(tick=0, channel=9, data=[42, 0]),
   midi.NoteOnEvent(tick=0, channel=9, data=[38, 127]),
   midi.NoteOnEvent(tick=0, channel=9, data=[42, 127]),
   midi.NoteOnEvent(tick=60, channel=9, data=[38, 0]),
   midi.NoteOnEvent(tick=0, channel=9, data=[42, 0]),
   midi.NoteOnEvent(tick=0, channel=9, data=[42, 127]),
   midi.NoteOnEvent(tick=60, channel=9, data=[42, 0]),
   midi.NoteOnEvent(tick=0, channel=9, data=[36, 127]),
   midi.NoteOnEvent(tick=0, channel=9, data=[42, 127]),
   midi.NoteOnEvent(tick=60, channel=9, data=[36, 0]),
   midi.NoteOnEvent(tick=0, channel=9, data=[42, 0]),
   midi.NoteOnEvent(tick=0, channel=9, data=[42, 127]),
   midi.NoteOnEvent(tick=0, channel=9, data=[36, 127]),
   midi.NoteOnEvent(tick=60, channel=9, data=[42, 0]),
   midi.NoteOnEvent(tick=0, channel=9, data=[42, 127]),
   midi.NoteOnEvent(tick=60, channel=9, data=[36, 0]),
   midi.NoteOnEvent(tick=0, channel=9, data=[42, 0]),
   midi.NoteOnEvent(tick=0, channel=9, data=[36, 127]),
   midi.NoteOnEvent(tick=0, channel=9, data=[42, 127]),
   midi.NoteOnEvent(tick=60, channel=9, data=[36, 0]),
   midi.NoteOnEvent(tick=0, channel=9, data=[42, 0]),
   midi.NoteOnEvent(tick=0, channel=9, data=[42, 127]),
   midi.NoteOnEvent(tick=0, channel=9, data=[38, 127]),
   midi.NoteOnEvent(tick=30, channel=9, data=[36, 127]),
   midi.NoteOnEvent(tick=30, channel=9, data=[42, 0]),
   midi.NoteOnEvent(tick=0, channel=9, data=[38, 0]),
   midi.NoteOnEvent(tick=0, channel=9, data=[42, 127]),
   midi.NoteOnEvent(tick=30, channel=9, data=[36, 0]),
   midi.NoteOnEvent(tick=0, channel=9, data=[36, 127]),
   midi.NoteOnEvent(tick=30, channel=9, data=[42, 0]),
   midi.NoteOnEvent(tick=0, channel=9, data=[36, 0]),
   midi.NoteOnEvent(tick=0, channel=9, data=[36, 127]),
   midi.NoteOnEvent(tick=0, channel=9, data=[42, 127]),
   midi.NoteOnEvent(tick=60, channel=9, data=[36, 0]),
   midi.NoteOnEvent(tick=0, channel=9, data=[42, 0]),
   midi.NoteOnEvent(tick=0, channel=9, data=[42, 127]),
   midi.NoteOnEvent(tick=0, channel=9, data=[36, 127]),
   midi.NoteOnEvent(tick=60, channel=9, data=[42, 0]),
   midi.NoteOnEvent(tick=0, channel=9, data=[42, 127]),
   midi.NoteOnEvent(tick=60, channel=9, data=[36, 0]),
   midi.NoteOnEvent(tick=0, channel=9, data=[42, 0]),
   midi.NoteOnEvent(tick=0, channel=9, data=[42, 127]),
   midi.NoteOnEvent(tick=0, channel=9, data=[36, 127]),
   midi.NoteOnEvent(tick=60, channel=9, data=[42, 0]),
   midi.NoteOnEvent(tick=0, channel=9, data=[36, 0]),
   midi.NoteOnEvent(tick=0, channel=9, data=[57, 127]),
   midi.NoteOnEvent(tick=0, channel=9, data=[38, 127]),
   midi.NoteOnEvent(tick=60, channel=9, data=[57, 0]),
   midi.NoteOnEvent(tick=0, channel=9, data=[38, 0]),
   midi.NoteOnEvent(tick=0, channel=9, data=[42, 127]),
   midi.NoteOnEvent(tick=60, channel=9, data=[42, 0]),
   midi.NoteOnEvent(tick=0, channel=9, data=[36, 127]),
   midi.NoteOnEvent(tick=0, channel=9, data=[42, 127]),
   midi.NoteOnEvent(tick=60, channel=9, data=[36, 0]),
   midi.NoteOnEvent(tick=0, channel=9, data=[42, 0]),
   midi.NoteOnEvent(tick=0, channel=9, data=[36, 127]),
   midi.NoteOnEvent(tick=0, channel=9, data=[42, 127]),
   midi.NoteOnEvent(tick=60, channel=9, data=[42, 0]),
   midi.NoteOnEvent(tick=0, channel=9, data=[42, 127]),
   midi.NoteOnEvent(tick=60, channel=9, data=[36, 0]),
   midi.NoteOnEvent(tick=0, channel=9, data=[42, 0]),
   midi.NoteOnEvent(tick=0, channel=9, data=[36, 127]),
   midi.NoteOnEvent(tick=0, channel=9, data=[42, 127]),
   midi.NoteOnEvent(tick=60, channel=9, data=[36, 0]),
   midi.NoteOnEvent(tick=0, channel=9, data=[42, 0]),
   midi.NoteOnEvent(tick=0, channel=9, data=[42, 127]),
   midi.NoteOnEvent(tick=0, channel=9, data=[38, 127]),
   midi.NoteOnEvent(tick=30, channel=9, data=[42, 0]),
   midi.NoteOnEvent(tick=0, channel=9, data=[38, 0]),
   midi.NoteOnEvent(tick=0, channel=9, data=[42, 127]),
   midi.NoteOnEvent(tick=30, channel=9, data=[42, 0]),
   midi.NoteOnEvent(tick=0, channel=9, data=[42, 127]),
   midi.NoteOnEvent(tick=30, channel=9, data=[42, 0]),
   midi.NoteOnEvent(tick=0, channel=9, data=[38, 127]),
   midi.NoteOnEvent(tick=30, channel=9, data=[38, 0]),
   midi.NoteOnEvent(tick=0, channel=9, data=[57, 127]),
   midi.NoteOnEvent(tick=0, channel=9, data=[36, 127]),
   midi.NoteOnEvent(tick=60, channel=9, data=[57, 0]),
   midi.NoteOnEvent(tick=0, channel=9, data=[36, 0]),
   midi.NoteOnEvent(tick=0, channel=9, data=[36, 127]),
   midi.NoteOnEvent(tick=0, channel=9, data=[42, 127]),
   midi.NoteOnEvent(tick=60, channel=9, data=[42, 0]),
   midi.NoteOnEvent(tick=0, channel=9, data=[42, 127]),
   midi.NoteOnEvent(tick=60, channel=9, data=[36, 0]),
   midi.NoteOnEvent(tick=0, channel=9, data=[42, 0]),
   midi.NoteOnEvent(tick=0, channel=9, data=[36, 127]),
   midi.NoteOnEvent(tick=0, channel=9, data=[42, 127]),
   midi.NoteOnEvent(tick=60, channel=9, data=[36, 0]),
   midi.NoteOnEvent(tick=0, channel=9, data=[42, 0]),
   midi.NoteOnEvent(tick=0, channel=9, data=[57, 127]),
   midi.NoteOnEvent(tick=0, channel=9, data=[38, 127]),
   midi.NoteOnEvent(tick=60, channel=9, data=[57, 0]),
   midi.NoteOnEvent(tick=0, channel=9, data=[38, 0]),
   midi.NoteOnEvent(tick=0, channel=9, data=[42, 127]),
   midi.NoteOnEvent(tick=60, channel=9, data=[42, 0]),
   midi.NoteOnEvent(tick=0, channel=9, data=[42, 127]),
   midi.NoteOnEvent(tick=0, channel=9, data=[36, 127]),
   midi.NoteOnEvent(tick=60, channel=9, data=[42, 0]),
   midi.NoteOnEvent(tick=0, channel=9, data=[36, 0]),
   midi.NoteOnEvent(tick=0, channel=9, data=[42, 127]),
   midi.NoteOnEvent(tick=0, channel=9, data=[36, 127]),
   midi.NoteOnEvent(tick=60, channel=9, data=[42, 0]),
   midi.NoteOnEvent(tick=0, channel=9, data=[42, 127]),
   midi.NoteOnEvent(tick=60, channel=9, data=[36, 0]),
   midi.NoteOnEvent(tick=0, channel=9, data=[42, 0]),
   midi.NoteOnEvent(tick=0, channel=9, data=[42, 127]),
   midi.NoteOnEvent(tick=60, channel=9, data=[42, 0]),
   midi.NoteOnEvent(tick=0, channel=9, data=[38, 127]),
   midi.NoteOnEvent(tick=0, channel=9, data=[42, 127]),
   midi.NoteOnEvent(tick=60, channel=9, data=[38, 0]),
   midi.NoteOnEvent(tick=0, channel=9, data=[42, 0]),
   midi.NoteOnEvent(tick=0, channel=9, data=[57, 127]),
   midi.NoteOnEvent(tick=0, channel=9, data=[38, 127]),
   midi.NoteOnEvent(tick=60, channel=9, data=[57, 0]),
   midi.NoteOnEvent(tick=0, channel=9, data=[38, 0]),
   midi.NoteOnEvent(tick=0, channel=9, data=[57, 127]),
   midi.NoteOnEvent(tick=0, channel=9, data=[38, 127]),
   midi.NoteOnEvent(tick=60, channel=9, data=[57, 0]),
   midi.NoteOnEvent(tick=0, channel=9, data=[38, 0]),
   midi.NoteOnEvent(tick=0, channel=9, data=[36, 127]),
   midi.NoteOnEvent(tick=0, channel=9, data=[42, 127]),
   midi.NoteOnEvent(tick=60, channel=9, data=[42, 0]),
   midi.NoteOnEvent(tick=0, channel=9, data=[42, 127]),
   midi.NoteOnEvent(tick=60, channel=9, data=[36, 0]),
   midi.NoteOnEvent(tick=0, channel=9, data=[42, 0]),
   midi.NoteOnEvent(tick=0, channel=9, data=[36, 127]),
   midi.NoteOnEvent(tick=0, channel=9, data=[42, 127]),
   midi.NoteOnEvent(tick=60, channel=9, data=[36, 0]),
   midi.NoteOnEvent(tick=0, channel=9, data=[42, 0]),
   midi.NoteOnEvent(tick=0, channel=9, data=[38, 127]),
   midi.NoteOnEvent(tick=0, channel=9, data=[42, 127]),
   midi.NoteOnEvent(tick=60, channel=9, data=[38, 0]),
   midi.NoteOnEvent(tick=0, channel=9, data=[42, 0]),
   midi.NoteOnEvent(tick=0, channel=9, data=[42, 127]),
   midi.NoteOnEvent(tick=60, channel=9, data=[42, 0]),
   midi.NoteOnEvent(tick=0, channel=9, data=[36, 127]),
   midi.NoteOnEvent(tick=0, channel=9, data=[42, 127]),
   midi.NoteOnEvent(tick=60, channel=9, data=[36, 0]),
   midi.NoteOnEvent(tick=0, channel=9, data=[42, 0]),
   midi.NoteOnEvent(tick=0, channel=9, data=[42, 127]),
   midi.NoteOnEvent(tick=0, channel=9, data=[36, 127]),
   midi.NoteOnEvent(tick=60, channel=9, data=[42, 0]),
   midi.NoteOnEvent(tick=0, channel=9, data=[42, 127]),
   midi.NoteOnEvent(tick=60, channel=9, data=[36, 0]),
   midi.NoteOnEvent(tick=0, channel=9, data=[42, 0]),
   midi.NoteOnEvent(tick=0, channel=9, data=[36, 127]),
   midi.NoteOnEvent(tick=0, channel=9, data=[42, 127]),
   midi.NoteOnEvent(tick=60, channel=9, data=[36, 0]),
   midi.NoteOnEvent(tick=0, channel=9, data=[42, 0]),
   midi.NoteOnEvent(tick=0, channel=9, data=[38, 127]),
   midi.NoteOnEvent(tick=30, channel=9, data=[38, 0]),
   midi.NoteOnEvent(tick=0, channel=9, data=[42, 127]),
   midi.NoteOnEvent(tick=30, channel=9, data=[42, 0]),
   midi.NoteOnEvent(tick=0, channel=9, data=[42, 127]),
   midi.NoteOnEvent(tick=30, channel=9, data=[42, 0]),
   midi.NoteOnEvent(tick=0, channel=9, data=[38, 127]),
   midi.NoteOnEvent(tick=30, channel=9, data=[38, 0]),
   midi.NoteOnEvent(tick=0, channel=9, data=[42, 127]),
   midi.NoteOnEvent(tick=0, channel=9, data=[36, 127]),
   midi.NoteOnEvent(tick=60, channel=9, data=[42, 0]),
   midi.NoteOnEvent(tick=0, channel=9, data=[36, 0]),
   midi.NoteOnEvent(tick=0, channel=9, data=[42, 127]),
   midi.NoteOnEvent(tick=0, channel=9, data=[36, 127]),
   midi.NoteOnEvent(tick=60, channel=9, data=[42, 0]),
   midi.NoteOnEvent(tick=0, channel=9, data=[42, 127]),
   midi.NoteOnEvent(tick=60, channel=9, data=[36, 0]),
   midi.NoteOnEvent(tick=0, channel=9, data=[42, 0]),
   midi.NoteOnEvent(tick=0, channel=9, data=[36, 127]),
   midi.NoteOnEvent(tick=0, channel=9, data=[42, 127]),
   midi.NoteOnEvent(tick=60, channel=9, data=[36, 0]),
   midi.NoteOnEvent(tick=0, channel=9, data=[42, 0]),
   midi.NoteOnEvent(tick=0, channel=9, data=[57, 127]),
   midi.NoteOnEvent(tick=0, channel=9, data=[38, 127]),
   midi.NoteOnEvent(tick=60, channel=9, data=[57, 0]),
   midi.NoteOnEvent(tick=0, channel=9, data=[38, 0]),
   midi.NoteOnEvent(tick=0, channel=9, data=[42, 127]),
   midi.NoteOnEvent(tick=60, channel=9, data=[42, 0]),
   midi.NoteOnEvent(tick=0, channel=9, data=[36, 127]),
   midi.NoteOnEvent(tick=0, channel=9, data=[42, 127]),
   midi.NoteOnEvent(tick=60, channel=9, data=[36, 0]),
   midi.NoteOnEvent(tick=0, channel=9, data=[42, 0]),
   midi.NoteOnEvent(tick=0, channel=9, data=[42, 127]),
   midi.NoteOnEvent(tick=0, channel=9, data=[36, 127]),
   midi.NoteOnEvent(tick=60, channel=9, data=[42, 0]),
   midi.NoteOnEvent(tick=0, channel=9, data=[42, 127]),
   midi.NoteOnEvent(tick=60, channel=9, data=[36, 0]),
   midi.NoteOnEvent(tick=0, channel=9, data=[42, 0]),
   midi.NoteOnEvent(tick=0, channel=9, data=[36, 127]),
   midi.NoteOnEvent(tick=0, channel=9, data=[42, 127]),
   midi.NoteOnEvent(tick=60, channel=9, data=[36, 0]),
   midi.NoteOnEvent(tick=0, channel=9, data=[42, 0]),
   midi.NoteOnEvent(tick=0, channel=9, data=[42, 127]),
   midi.NoteOnEvent(tick=0, channel=9, data=[38, 127]),
   midi.NoteOnEvent(tick=60, channel=9, data=[42, 0]),
   midi.NoteOnEvent(tick=0, channel=9, data=[38, 0]),
   midi.NoteOnEvent(tick=0, channel=9, data=[42, 127]),
   midi.NoteOnEvent(tick=0, channel=9, data=[38, 127]),
   midi.NoteOnEvent(tick=60, channel=9, data=[42, 0]),
   midi.NoteOnEvent(tick=0, channel=9, data=[38, 0]),
   midi.NoteOnEvent(tick=0, channel=9, data=[36, 127]),
   midi.NoteOnEvent(tick=0, channel=9, data=[42, 127]),
   midi.NoteOnEvent(tick=60, channel=9, data=[36, 0]),
   midi.NoteOnEvent(tick=0, channel=9, data=[42, 0]),
   midi.NoteOnEvent(tick=0, channel=9, data=[42, 127]),
   midi.NoteOnEvent(tick=0, channel=9, data=[36, 127]),
   midi.NoteOnEvent(tick=60, channel=9, data=[42, 0]),
   midi.NoteOnEvent(tick=0, channel=9, data=[42, 127]),
   midi.NoteOnEvent(tick=60, channel=9, data=[36, 0]),
   midi.NoteOnEvent(tick=0, channel=9, data=[42, 0]),
   midi.NoteOnEvent(tick=0, channel=9, data=[36, 127]),
   midi.NoteOnEvent(tick=0, channel=9, data=[42, 127]),
   midi.NoteOnEvent(tick=60, channel=9, data=[36, 0]),
   midi.NoteOnEvent(tick=0, channel=9, data=[42, 0]),
   midi.NoteOnEvent(tick=0, channel=9, data=[57, 127]),
   midi.NoteOnEvent(tick=0, channel=9, data=[38, 127]),
   midi.NoteOnEvent(tick=60, channel=9, data=[57, 0]),
   midi.NoteOnEvent(tick=0, channel=9, data=[38, 0]),
   midi.NoteOnEvent(tick=0, channel=9, data=[42, 127]),
   midi.NoteOnEvent(tick=60, channel=9, data=[42, 0]),
   midi.NoteOnEvent(tick=0, channel=9, data=[36, 127]),
   midi.NoteOnEvent(tick=0, channel=9, data=[42, 127]),
   midi.NoteOnEvent(tick=60, channel=9, data=[36, 0]),
   midi.NoteOnEvent(tick=0, channel=9, data=[42, 0]),
   midi.NoteOnEvent(tick=0, channel=9, data=[42, 127]),
   midi.NoteOnEvent(tick=0, channel=9, data=[36, 127]),
   midi.NoteOnEvent(tick=60, channel=9, data=[42, 0]),
   midi.NoteOnEvent(tick=0, channel=9, data=[42, 127]),
   midi.NoteOnEvent(tick=60, channel=9, data=[36, 0]),
   midi.NoteOnEvent(tick=0, channel=9, data=[42, 0]),
   midi.NoteOnEvent(tick=0, channel=9, data=[36, 127]),
   midi.NoteOnEvent(tick=0, channel=9, data=[42, 127]),
   midi.NoteOnEvent(tick=60, channel=9, data=[36, 0]),
   midi.NoteOnEvent(tick=0, channel=9, data=[42, 0]),
   midi.NoteOnEvent(tick=0, channel=9, data=[38, 127]),
   midi.NoteOnEvent(tick=0, channel=9, data=[42, 127]),
   midi.NoteOnEvent(tick=30, channel=9, data=[36, 127]),
   midi.NoteOnEvent(tick=30, channel=9, data=[38, 0]),
   midi.NoteOnEvent(tick=0, channel=9, data=[42, 0]),
   midi.NoteOnEvent(tick=0, channel=9, data=[42, 127]),
   midi.NoteOnEvent(tick=30, channel=9, data=[36, 0]),
   midi.NoteOnEvent(tick=0, channel=9, data=[36, 127]),
   midi.NoteOnEvent(tick=30, channel=9, data=[42, 0]),
   midi.NoteOnEvent(tick=0, channel=9, data=[36, 0]),
   midi.NoteOnEvent(tick=0, channel=9, data=[36, 127]),
   midi.NoteOnEvent(tick=0, channel=9, data=[42, 127]),
   midi.NoteOnEvent(tick=60, channel=9, data=[36, 0]),
   midi.NoteOnEvent(tick=0, channel=9, data=[42, 0]),
   midi.NoteOnEvent(tick=0, channel=9, data=[36, 127]),
   midi.NoteOnEvent(tick=0, channel=9, data=[42, 127]),
   midi.NoteOnEvent(tick=60, channel=9, data=[42, 0]),
   midi.NoteOnEvent(tick=0, channel=9, data=[42, 127]),
   midi.NoteOnEvent(tick=60, channel=9, data=[36, 0]),
   midi.NoteOnEvent(tick=0, channel=9, data=[42, 0]),
   midi.NoteOnEvent(tick=0, channel=9, data=[36, 127]),
   midi.NoteOnEvent(tick=0, channel=9, data=[42, 127]),
   midi.NoteOnEvent(tick=60, channel=9, data=[36, 0]),
   midi.NoteOnEvent(tick=0, channel=9, data=[42, 0]),
   midi.NoteOnEvent(tick=0, channel=9, data=[57, 127]),
   midi.NoteOnEvent(tick=0, channel=9, data=[38, 127]),
   midi.NoteOnEvent(tick=60, channel=9, data=[57, 0]),
   midi.NoteOnEvent(tick=0, channel=9, data=[38, 0]),
   midi.NoteOnEvent(tick=0, channel=9, data=[42, 127]),
   midi.NoteOnEvent(tick=60, channel=9, data=[42, 0]),
   midi.NoteOnEvent(tick=0, channel=9, data=[42, 127]),
   midi.NoteOnEvent(tick=0, channel=9, data=[36, 127]),
   midi.NoteOnEvent(tick=60, channel=9, data=[42, 0]),
   midi.NoteOnEvent(tick=0, channel=9, data=[36, 0]),
   midi.NoteOnEvent(tick=0, channel=9, data=[36, 127]),
   midi.NoteOnEvent(tick=0, channel=9, data=[42, 127]),
   midi.NoteOnEvent(tick=60, channel=9, data=[42, 0]),
   midi.NoteOnEvent(tick=0, channel=9, data=[42, 127]),
   midi.NoteOnEvent(tick=60, channel=9, data=[36, 0]),
   midi.NoteOnEvent(tick=0, channel=9, data=[42, 0]),
   midi.NoteOnEvent(tick=0, channel=9, data=[36, 127]),
   midi.NoteOnEvent(tick=0, channel=9, data=[42, 127]),
   midi.NoteOnEvent(tick=60, channel=9, data=[36, 0]),
   midi.NoteOnEvent(tick=0, channel=9, data=[42, 0]),
   midi.NoteOnEvent(tick=0, channel=9, data=[38, 127]),
   midi.NoteOnEvent(tick=30, channel=9, data=[38, 0]),
   midi.NoteOnEvent(tick=0, channel=9, data=[38, 127]),
   midi.NoteOnEvent(tick=30, channel=9, data=[38, 0]),
   midi.NoteOnEvent(tick=0, channel=9, data=[38, 127]),
   midi.NoteOnEvent(tick=30, channel=9, data=[38, 0]),
   midi.NoteOnEvent(tick=0, channel=9, data=[38, 127]),
   midi.NoteOnEvent(tick=30, channel=9, data=[38, 0]),
   midi.NoteOnEvent(tick=0, channel=9, data=[57, 127]),
   midi.NoteOnEvent(tick=0, channel=9, data=[36, 127]),
   midi.NoteOnEvent(tick=60, channel=9, data=[57, 0]),
   midi.NoteOnEvent(tick=0, channel=9, data=[36, 0]),
   midi.NoteOnEvent(tick=0, channel=9, data=[36, 127]),
   midi.NoteOnEvent(tick=0, channel=9, data=[57, 127]),
   midi.NoteOnEvent(tick=60, channel=9, data=[57, 0]),
   midi.NoteOnEvent(tick=0, channel=9, data=[42, 127]),
   midi.NoteOnEvent(tick=60, channel=9, data=[36, 0]),
   midi.NoteOnEvent(tick=0, channel=9, data=[42, 0]),
   midi.NoteOnEvent(tick=0, channel=9, data=[36, 127]),
   midi.NoteOnEvent(tick=0, channel=9, data=[42, 127]),
   midi.NoteOnEvent(tick=60, channel=9, data=[36, 0]),
   midi.NoteOnEvent(tick=0, channel=9, data=[42, 0]),
   midi.NoteOnEvent(tick=0, channel=9, data=[57, 127]),
   midi.NoteOnEvent(tick=0, channel=9, data=[38, 127]),
   midi.NoteOnEvent(tick=60, channel=9, data=[57, 0]),
   midi.NoteOnEvent(tick=0, channel=9, data=[38, 0]),
   midi.NoteOnEvent(tick=0, channel=9, data=[57, 127]),
   midi.NoteOnEvent(tick=0, channel=9, data=[38, 127]),
   midi.NoteOnEvent(tick=60, channel=9, data=[57, 0]),
   midi.NoteOnEvent(tick=0, channel=9, data=[38, 0]),
   midi.NoteOnEvent(tick=0, channel=9, data=[38, 127]),
   midi.NoteOnEvent(tick=60, channel=9, data=[38, 0]),
   midi.NoteOnEvent(tick=0, channel=9, data=[38, 127]),
   midi.NoteOnEvent(tick=45, channel=9, data=[38, 0]),
   midi.NoteOnEvent(tick=0, channel=9, data=[38, 127]),
   midi.NoteOnEvent(tick=5, channel=9, data=[38, 0]),
   midi.NoteOnEvent(tick=0, channel=9, data=[38, 127]),
   midi.NoteOnEvent(tick=5, channel=9, data=[38, 0]),
   midi.NoteOnEvent(tick=0, channel=9, data=[38, 127]),
   midi.NoteOnEvent(tick=5, channel=9, data=[38, 0]),
   midi.NoteOnEvent(tick=0, channel=9, data=[38, 127]),
   midi.NoteOnEvent(tick=30, channel=9, data=[38, 0]),
   midi.NoteOnEvent(tick=0, channel=9, data=[38, 127]),
   midi.NoteOnEvent(tick=30, channel=9, data=[38, 0]),
   midi.NoteOnEvent(tick=0, channel=9, data=[47, 127]),
   midi.NoteOnEvent(tick=30, channel=9, data=[47, 0]),
   midi.NoteOnEvent(tick=0, channel=9, data=[47, 127]),
   midi.NoteOnEvent(tick=30, channel=9, data=[47, 0]),
   midi.NoteOnEvent(tick=0, channel=9, data=[48, 127]),
   midi.NoteOnEvent(tick=30, channel=9, data=[48, 0]),
   midi.NoteOnEvent(tick=0, channel=9, data=[48, 127]),
   midi.NoteOnEvent(tick=30, channel=9, data=[48, 0]),
   midi.NoteOnEvent(tick=0, channel=9, data=[50, 127]),
   midi.NoteOnEvent(tick=30, channel=9, data=[50, 0]),
   midi.NoteOnEvent(tick=0, channel=9, data=[50, 127]),
   midi.NoteOnEvent(tick=30, channel=9, data=[50, 0]),
   midi.NoteOnEvent(tick=0, channel=9, data=[43, 127]),
   midi.NoteOnEvent(tick=30, channel=9, data=[43, 0]),
   midi.NoteOnEvent(tick=0, channel=9, data=[43, 127]),
   midi.NoteOnEvent(tick=30, channel=9, data=[43, 0]),
   midi.NoteOnEvent(tick=0, channel=9, data=[36, 127]),
   midi.NoteOnEvent(tick=0, channel=9, data=[57, 127]),
   midi.NoteOnEvent(tick=60, channel=9, data=[57, 0]),
   midi.NoteOnEvent(tick=0, channel=9, data=[42, 127]),
   midi.NoteOnEvent(tick=60, channel=9, data=[36, 0]),
   midi.NoteOnEvent(tick=0, channel=9, data=[42, 0]),
   midi.NoteOnEvent(tick=0, channel=9, data=[36, 127]),
   midi.NoteOnEvent(tick=0, channel=9, data=[42, 127]),
   midi.NoteOnEvent(tick=60, channel=9, data=[36, 0]),
   midi.NoteOnEvent(tick=0, channel=9, data=[42, 0]),
   midi.NoteOnEvent(tick=0, channel=9, data=[57, 127]),
   midi.NoteOnEvent(tick=0, channel=9, data=[38, 127]),
   midi.NoteOnEvent(tick=60, channel=9, data=[57, 0]),
   midi.NoteOnEvent(tick=0, channel=9, data=[38, 0]),
   midi.NoteOnEvent(tick=0, channel=9, data=[42, 127]),
   midi.NoteOnEvent(tick=60, channel=9, data=[42, 0]),
   midi.NoteOnEvent(tick=0, channel=9, data=[36, 127]),
   midi.NoteOnEvent(tick=0, channel=9, data=[42, 127]),
   midi.NoteOnEvent(tick=60, channel=9, data=[36, 0]),
   midi.NoteOnEvent(tick=0, channel=9, data=[42, 0]),
   midi.NoteOnEvent(tick=0, channel=9, data=[42, 127]),
   midi.NoteOnEvent(tick=0, channel=9, data=[36, 127]),
   midi.NoteOnEvent(tick=60, channel=9, data=[42, 0]),
   midi.NoteOnEvent(tick=0, channel=9, data=[42, 127]),
   midi.NoteOnEvent(tick=60, channel=9, data=[36, 0]),
   midi.NoteOnEvent(tick=0, channel=9, data=[42, 0]),
   midi.NoteOnEvent(tick=0, channel=9, data=[36, 127]),
   midi.NoteOnEvent(tick=0, channel=9, data=[42, 127]),
   midi.NoteOnEvent(tick=60, channel=9, data=[36, 0]),
   midi.NoteOnEvent(tick=0, channel=9, data=[42, 0]),
   midi.NoteOnEvent(tick=0, channel=9, data=[38, 127]),
   midi.NoteOnEvent(tick=0, channel=9, data=[42, 127]),
   midi.NoteOnEvent(tick=30, channel=9, data=[36, 127]),
   midi.NoteOnEvent(tick=30, channel=9, data=[38, 0]),
   midi.NoteOnEvent(tick=0, channel=9, data=[42, 0]),
   midi.NoteOnEvent(tick=0, channel=9, data=[42, 127]),
   midi.NoteOnEvent(tick=30, channel=9, data=[36, 0]),
   midi.NoteOnEvent(tick=0, channel=9, data=[36, 127]),
   midi.NoteOnEvent(tick=30, channel=9, data=[42, 0]),
   midi.NoteOnEvent(tick=0, channel=9, data=[36, 0]),
   midi.NoteOnEvent(tick=0, channel=9, data=[36, 127]),
   midi.NoteOnEvent(tick=0, channel=9, data=[42, 127]),
   midi.NoteOnEvent(tick=60, channel=9, data=[36, 0]),
   midi.NoteOnEvent(tick=0, channel=9, data=[42, 0]),
   midi.NoteOnEvent(tick=0, channel=9, data=[42, 127]),
   midi.NoteOnEvent(tick=0, channel=9, data=[36, 127]),
   midi.NoteOnEvent(tick=60, channel=9, data=[42, 0]),
   midi.NoteOnEvent(tick=0, channel=9, data=[42, 127]),
   midi.NoteOnEvent(tick=60, channel=9, data=[36, 0]),
   midi.NoteOnEvent(tick=0, channel=9, data=[42, 0]),
   midi.NoteOnEvent(tick=0, channel=9, data=[42, 127]),
   midi.NoteOnEvent(tick=0, channel=9, data=[36, 127]),
   midi.NoteOnEvent(tick=60, channel=9, data=[42, 0]),
   midi.NoteOnEvent(tick=0, channel=9, data=[36, 0]),
   midi.NoteOnEvent(tick=0, channel=9, data=[57, 127]),
   midi.NoteOnEvent(tick=0, channel=9, data=[38, 127]),
   midi.NoteOnEvent(tick=60, channel=9, data=[57, 0]),
   midi.NoteOnEvent(tick=0, channel=9, data=[38, 0]),
   midi.NoteOnEvent(tick=0, channel=9, data=[42, 127]),
   midi.NoteOnEvent(tick=60, channel=9, data=[42, 0]),
   midi.NoteOnEvent(tick=0, channel=9, data=[42, 127]),
   midi.NoteOnEvent(tick=0, channel=9, data=[36, 127]),
   midi.NoteOnEvent(tick=60, channel=9, data=[42, 0]),
   midi.NoteOnEvent(tick=0, channel=9, data=[36, 0]),
   midi.NoteOnEvent(tick=0, channel=9, data=[42, 127]),
   midi.NoteOnEvent(tick=0, channel=9, data=[36, 127]),
   midi.NoteOnEvent(tick=60, channel=9, data=[42, 0]),
   midi.NoteOnEvent(tick=0, channel=9, data=[42, 127]),
   midi.NoteOnEvent(tick=60, channel=9, data=[36, 0]),
   midi.NoteOnEvent(tick=0, channel=9, data=[42, 0]),
   midi.NoteOnEvent(tick=0, channel=9, data=[36, 127]),
   midi.NoteOnEvent(tick=0, channel=9, data=[42, 127]),
   midi.NoteOnEvent(tick=60, channel=9, data=[36, 0]),
   midi.NoteOnEvent(tick=0, channel=9, data=[42, 0]),
   midi.NoteOnEvent(tick=0, channel=9, data=[57, 127]),
   midi.NoteOnEvent(tick=0, channel=9, data=[38, 127]),
   midi.NoteOnEvent(tick=60, channel=9, data=[57, 0]),
   midi.NoteOnEvent(tick=0, channel=9, data=[38, 0]),
   midi.NoteOnEvent(tick=0, channel=9, data=[57, 127]),
   midi.NoteOnEvent(tick=0, channel=9, data=[38, 127]),
   midi.NoteOnEvent(tick=60, channel=9, data=[57, 0]),
   midi.NoteOnEvent(tick=0, channel=9, data=[38, 0]),
   midi.NoteOnEvent(tick=0, channel=9, data=[57, 127]),
   midi.NoteOnEvent(tick=0, channel=9, data=[38, 127]),
   midi.NoteOnEvent(tick=60, channel=9, data=[57, 0]),
   midi.NoteOnEvent(tick=0, channel=9, data=[38, 0]),
   midi.NoteOnEvent(tick=0, channel=9, data=[57, 127]),
   midi.NoteOnEvent(tick=0, channel=9, data=[36, 127]),
   midi.NoteOnEvent(tick=60, channel=9, data=[57, 0]),
   midi.NoteOnEvent(tick=0, channel=9, data=[42, 127]),
   midi.NoteOnEvent(tick=60, channel=9, data=[36, 0]),
   midi.NoteOnEvent(tick=0, channel=9, data=[42, 0]),
   midi.NoteOnEvent(tick=0, channel=9, data=[42, 127]),
   midi.NoteOnEvent(tick=60, channel=9, data=[42, 0]),
   midi.NoteOnEvent(tick=0, channel=9, data=[57, 127]),
   midi.NoteOnEvent(tick=0, channel=9, data=[38, 127]),
   midi.NoteOnEvent(tick=60, channel=9, data=[57, 0]),
   midi.NoteOnEvent(tick=0, channel=9, data=[38, 0]),
   midi.NoteOnEvent(tick=0, channel=9, data=[42, 127]),
   midi.NoteOnEvent(tick=60, channel=9, data=[42, 0]),
   midi.NoteOnEvent(tick=0, channel=9, data=[36, 127]),
   midi.NoteOnEvent(tick=0, channel=9, data=[42, 127]),
   midi.NoteOnEvent(tick=60, channel=9, data=[36, 0]),
   midi.NoteOnEvent(tick=0, channel=9, data=[42, 0]),
   midi.NoteOnEvent(tick=0, channel=9, data=[42, 127]),
   midi.NoteOnEvent(tick=0, channel=9, data=[36, 127]),
   midi.NoteOnEvent(tick=60, channel=9, data=[42, 0]),
   midi.NoteOnEvent(tick=0, channel=9, data=[42, 127]),
   midi.NoteOnEvent(tick=60, channel=9, data=[36, 0]),
   midi.NoteOnEvent(tick=0, channel=9, data=[42, 0]),
   midi.NoteOnEvent(tick=0, channel=9, data=[36, 127]),
   midi.NoteOnEvent(tick=0, channel=9, data=[42, 127]),
   midi.NoteOnEvent(tick=60, channel=9, data=[36, 0]),
   midi.NoteOnEvent(tick=0, channel=9, data=[42, 0]),
   midi.NoteOnEvent(tick=0, channel=9, data=[38, 127]),
   midi.NoteOnEvent(tick=0, channel=9, data=[42, 127]),
   midi.NoteOnEvent(tick=30, channel=9, data=[36, 127]),
   midi.NoteOnEvent(tick=30, channel=9, data=[38, 0]),
   midi.NoteOnEvent(tick=0, channel=9, data=[42, 0]),
   midi.NoteOnEvent(tick=0, channel=9, data=[42, 127]),
   midi.NoteOnEvent(tick=30, channel=9, data=[36, 0]),
   midi.NoteOnEvent(tick=0, channel=9, data=[36, 127]),
   midi.NoteOnEvent(tick=30, channel=9, data=[42, 0]),
   midi.NoteOnEvent(tick=0, channel=9, data=[36, 0]),
   midi.NoteOnEvent(tick=0, channel=9, data=[36, 127]),
   midi.NoteOnEvent(tick=0, channel=9, data=[42, 127]),
   midi.NoteOnEvent(tick=60, channel=9, data=[36, 0]),
   midi.NoteOnEvent(tick=0, channel=9, data=[42, 0]),
   midi.NoteOnEvent(tick=0, channel=9, data=[42, 127]),
   midi.NoteOnEvent(tick=0, channel=9, data=[36, 127]),
   midi.NoteOnEvent(tick=60, channel=9, data=[42, 0]),
   midi.NoteOnEvent(tick=0, channel=9, data=[42, 127]),
   midi.NoteOnEvent(tick=60, channel=9, data=[36, 0]),
   midi.NoteOnEvent(tick=0, channel=9, data=[42, 0]),
   midi.NoteOnEvent(tick=0, channel=9, data=[36, 127]),
   midi.NoteOnEvent(tick=0, channel=9, data=[42, 127]),
   midi.NoteOnEvent(tick=60, channel=9, data=[36, 0]),
   midi.NoteOnEvent(tick=0, channel=9, data=[42, 0]),
   midi.NoteOnEvent(tick=0, channel=9, data=[57, 127]),
   midi.NoteOnEvent(tick=0, channel=9, data=[38, 127]),
   midi.NoteOnEvent(tick=60, channel=9, data=[57, 0]),
   midi.NoteOnEvent(tick=0, channel=9, data=[38, 0]),
   midi.NoteOnEvent(tick=0, channel=9, data=[57, 127]),
   midi.NoteOnEvent(tick=0, channel=9, data=[38, 127]),
   midi.NoteOnEvent(tick=60, channel=9, data=[57, 0]),
   midi.NoteOnEvent(tick=0, channel=9, data=[38, 0]),
   midi.NoteOnEvent(tick=0, channel=9, data=[57, 127]),
   midi.NoteOnEvent(tick=0, channel=9, data=[38, 127]),
   midi.NoteOnEvent(tick=60, channel=9, data=[57, 0]),
   midi.NoteOnEvent(tick=0, channel=9, data=[38, 0]),
   midi.NoteOnEvent(tick=0, channel=9, data=[38, 127]),
   midi.NoteOnEvent(tick=0, channel=9, data=[57, 127]),
   midi.NoteOnEvent(tick=60, channel=9, data=[38, 0]),
   midi.NoteOnEvent(tick=0, channel=9, data=[57, 0]),
   midi.NoteOnEvent(tick=0, channel=9, data=[38, 127]),
   midi.NoteOnEvent(tick=0, channel=9, data=[57, 127]),
   midi.NoteOnEvent(tick=55, channel=9, data=[38, 75]),
   midi.NoteOnEvent(tick=5, channel=9, data=[38, 0]),
   midi.NoteOnEvent(tick=0, channel=9, data=[57, 0]),
   midi.NoteOnEvent(tick=0, channel=9, data=[38, 0]),
   midi.NoteOnEvent(tick=0, channel=9, data=[38, 127]),
   midi.NoteOnEvent(tick=55, channel=9, data=[38, 75]),
   midi.NoteOnEvent(tick=5, channel=9, data=[38, 0]),
   midi.NoteOnEvent(tick=0, channel=9, data=[38, 0]),
   midi.NoteOnEvent(tick=0, channel=9, data=[38, 127]),
   midi.NoteOnEvent(tick=45, channel=9, data=[38, 0]),
   midi.NoteOnEvent(tick=0, channel=9, data=[38, 127]),
   midi.NoteOnEvent(tick=5, channel=9, data=[38, 0]),
   midi.NoteOnEvent(tick=0, channel=9, data=[38, 127]),
   midi.NoteOnEvent(tick=5, channel=9, data=[38, 0]),
   midi.NoteOnEvent(tick=0, channel=9, data=[38, 127]),
   midi.NoteOnEvent(tick=5, channel=9, data=[38, 0]),
   midi.NoteOnEvent(tick=0, channel=9, data=[38, 127]),
   midi.NoteOnEvent(tick=30, channel=9, data=[38, 0]),
   midi.NoteOnEvent(tick=0, channel=9, data=[38, 127]),
   midi.NoteOnEvent(tick=30, channel=9, data=[38, 0]),
   midi.NoteOnEvent(tick=0, channel=9, data=[45, 127]),
   midi.NoteOnEvent(tick=30, channel=9, data=[45, 0]),
   midi.NoteOnEvent(tick=0, channel=9, data=[45, 127]),
   midi.NoteOnEvent(tick=30, channel=9, data=[45, 0]),
   midi.NoteOnEvent(tick=0, channel=9, data=[36, 127]),
   midi.NoteOnEvent(tick=0, channel=9, data=[57, 127]),
   midi.NoteOnEvent(tick=60, channel=9, data=[57, 0]),
   midi.NoteOnEvent(tick=0, channel=9, data=[42, 127]),
   midi.NoteOnEvent(tick=60, channel=9, data=[36, 0]),
   midi.NoteOnEvent(tick=0, channel=9, data=[42, 0]),
   midi.NoteOnEvent(tick=0, channel=9, data=[36, 127]),
   midi.NoteOnEvent(tick=0, channel=9, data=[42, 127]),
   midi.NoteOnEvent(tick=60, channel=9, data=[36, 0]),
   midi.NoteOnEvent(tick=0, channel=9, data=[42, 0]),
   midi.NoteOnEvent(tick=0, channel=9, data=[38, 127]),
   midi.NoteOnEvent(tick=0, channel=9, data=[42, 127]),
   midi.NoteOnEvent(tick=60, channel=9, data=[38, 0]),
   midi.NoteOnEvent(tick=0, channel=9, data=[42, 0]),
   midi.NoteOnEvent(tick=0, channel=9, data=[42, 127]),
   midi.NoteOnEvent(tick=60, channel=9, data=[42, 0]),
   midi.NoteOnEvent(tick=0, channel=9, data=[36, 127]),
   midi.NoteOnEvent(tick=0, channel=9, data=[42, 127]),
   midi.NoteOnEvent(tick=60, channel=9, data=[36, 0]),
   midi.NoteOnEvent(tick=0, channel=9, data=[42, 0]),
   midi.NoteOnEvent(tick=0, channel=9, data=[42, 127]),
   midi.NoteOnEvent(tick=0, channel=9, data=[36, 127]),
   midi.NoteOnEvent(tick=60, channel=9, data=[42, 0]),
   midi.NoteOnEvent(tick=0, channel=9, data=[42, 127]),
   midi.NoteOnEvent(tick=60, channel=9, data=[36, 0]),
   midi.NoteOnEvent(tick=0, channel=9, data=[42, 0]),
   midi.NoteOnEvent(tick=0, channel=9, data=[36, 127]),
   midi.NoteOnEvent(tick=0, channel=9, data=[42, 127]),
   midi.NoteOnEvent(tick=60, channel=9, data=[36, 0]),
   midi.NoteOnEvent(tick=0, channel=9, data=[42, 0]),
   midi.NoteOnEvent(tick=0, channel=9, data=[38, 127]),
   midi.NoteOnEvent(tick=0, channel=9, data=[42, 127]),
   midi.NoteOnEvent(tick=30, channel=9, data=[36, 127]),
   midi.NoteOnEvent(tick=30, channel=9, data=[38, 0]),
   midi.NoteOnEvent(tick=0, channel=9, data=[42, 0]),
   midi.NoteOnEvent(tick=0, channel=9, data=[42, 127]),
   midi.NoteOnEvent(tick=30, channel=9, data=[36, 0]),
   midi.NoteOnEvent(tick=0, channel=9, data=[36, 127]),
   midi.NoteOnEvent(tick=30, channel=9, data=[42, 0]),
   midi.NoteOnEvent(tick=0, channel=9, data=[36, 0]),
   midi.NoteOnEvent(tick=0, channel=9, data=[36, 127]),
   midi.NoteOnEvent(tick=0, channel=9, data=[42, 127]),
   midi.NoteOnEvent(tick=60, channel=9, data=[36, 0]),
   midi.NoteOnEvent(tick=0, channel=9, data=[42, 0]),
   midi.NoteOnEvent(tick=0, channel=9, data=[42, 127]),
   midi.NoteOnEvent(tick=0, channel=9, data=[36, 127]),
   midi.NoteOnEvent(tick=60, channel=9, data=[42, 0]),
   midi.NoteOnEvent(tick=0, channel=9, data=[42, 127]),
   midi.NoteOnEvent(tick=60, channel=9, data=[36, 0]),
   midi.NoteOnEvent(tick=0, channel=9, data=[42, 0]),
   midi.NoteOnEvent(tick=0, channel=9, data=[42, 127]),
   midi.NoteOnEvent(tick=0, channel=9, data=[36, 127]),
   midi.NoteOnEvent(tick=60, channel=9, data=[42, 0]),
   midi.NoteOnEvent(tick=0, channel=9, data=[36, 0]),
   midi.NoteOnEvent(tick=0, channel=9, data=[57, 127]),
   midi.NoteOnEvent(tick=0, channel=9, data=[38, 127]),
   midi.NoteOnEvent(tick=60, channel=9, data=[57, 0]),
   midi.NoteOnEvent(tick=0, channel=9, data=[38, 0]),
   midi.NoteOnEvent(tick=0, channel=9, data=[42, 127]),
   midi.NoteOnEvent(tick=60, channel=9, data=[42, 0]),
   midi.NoteOnEvent(tick=0, channel=9, data=[42, 127]),
   midi.NoteOnEvent(tick=0, channel=9, data=[36, 127]),
   midi.NoteOnEvent(tick=60, channel=9, data=[42, 0]),
   midi.NoteOnEvent(tick=0, channel=9, data=[36, 0]),
   midi.NoteOnEvent(tick=0, channel=9, data=[42, 127]),
   midi.NoteOnEvent(tick=0, channel=9, data=[36, 127]),
   midi.NoteOnEvent(tick=60, channel=9, data=[42, 0]),
   midi.NoteOnEvent(tick=0, channel=9, data=[42, 127]),
   midi.NoteOnEvent(tick=60, channel=9, data=[36, 0]),
   midi.NoteOnEvent(tick=0, channel=9, data=[42, 0]),
   midi.NoteOnEvent(tick=0, channel=9, data=[36, 127]),
   midi.NoteOnEvent(tick=0, channel=9, data=[42, 127]),
   midi.NoteOnEvent(tick=60, channel=9, data=[36, 0]),
   midi.NoteOnEvent(tick=0, channel=9, data=[42, 0]),
   midi.NoteOnEvent(tick=0, channel=9, data=[38, 127]),
   midi.NoteOnEvent(tick=30, channel=9, data=[38, 0]),
   midi.NoteOnEvent(tick=0, channel=9, data=[45, 127]),
   midi.NoteOnEvent(tick=30, channel=9, data=[45, 0]),
   midi.NoteOnEvent(tick=0, channel=9, data=[47, 127]),
   midi.NoteOnEvent(tick=30, channel=9, data=[47, 0]),
   midi.NoteOnEvent(tick=0, channel=9, data=[47, 127]),
   midi.NoteOnEvent(tick=30, channel=9, data=[47, 0]),
   midi.NoteOnEvent(tick=0, channel=9, data=[48, 127]),
   midi.NoteOnEvent(tick=30, channel=9, data=[48, 0]),
   midi.NoteOnEvent(tick=0, channel=9, data=[48, 127]),
   midi.NoteOnEvent(tick=30, channel=9, data=[48, 0]),
   midi.NoteOnEvent(tick=0, channel=9, data=[36, 127]),
   midi.NoteOnEvent(tick=0, channel=9, data=[57, 127]),
   midi.NoteOnEvent(tick=60, channel=9, data=[57, 0]),
   midi.NoteOnEvent(tick=0, channel=9, data=[42, 127]),
   midi.NoteOnEvent(tick=60, channel=9, data=[36, 0]),
   midi.NoteOnEvent(tick=0, channel=9, data=[42, 0]),
   midi.NoteOnEvent(tick=0, channel=9, data=[36, 127]),
   midi.NoteOnEvent(tick=0, channel=9, data=[42, 127]),
   midi.NoteOnEvent(tick=60, channel=9, data=[36, 0]),
   midi.NoteOnEvent(tick=0, channel=9, data=[42, 0]),
   midi.NoteOnEvent(tick=0, channel=9, data=[38, 127]),
   midi.NoteOnEvent(tick=0, channel=9, data=[42, 127]),
   midi.NoteOnEvent(tick=60, channel=9, data=[38, 0]),
   midi.NoteOnEvent(tick=0, channel=9, data=[42, 0]),
   midi.NoteOnEvent(tick=0, channel=9, data=[42, 127]),
   midi.NoteOnEvent(tick=60, channel=9, data=[42, 0]),
   midi.NoteOnEvent(tick=0, channel=9, data=[36, 127]),
   midi.NoteOnEvent(tick=0, channel=9, data=[42, 127]),
   midi.NoteOnEvent(tick=60, channel=9, data=[36, 0]),
   midi.NoteOnEvent(tick=0, channel=9, data=[42, 0]),
   midi.NoteOnEvent(tick=0, channel=9, data=[42, 127]),
   midi.NoteOnEvent(tick=0, channel=9, data=[36, 127]),
   midi.NoteOnEvent(tick=60, channel=9, data=[42, 0]),
   midi.NoteOnEvent(tick=0, channel=9, data=[42, 127]),
   midi.NoteOnEvent(tick=60, channel=9, data=[36, 0]),
   midi.NoteOnEvent(tick=0, channel=9, data=[42, 0]),
   midi.NoteOnEvent(tick=0, channel=9, data=[36, 127]),
   midi.NoteOnEvent(tick=0, channel=9, data=[42, 127]),
   midi.NoteOnEvent(tick=60, channel=9, data=[36, 0]),
   midi.NoteOnEvent(tick=0, channel=9, data=[42, 0]),
   midi.NoteOnEvent(tick=0, channel=9, data=[38, 127]),
   midi.NoteOnEvent(tick=0, channel=9, data=[42, 127]),
   midi.NoteOnEvent(tick=30, channel=9, data=[36, 127]),
   midi.NoteOnEvent(tick=30, channel=9, data=[38, 0]),
   midi.NoteOnEvent(tick=0, channel=9, data=[42, 0]),
   midi.NoteOnEvent(tick=0, channel=9, data=[42, 127]),
   midi.NoteOnEvent(tick=30, channel=9, data=[36, 0]),
   midi.NoteOnEvent(tick=0, channel=9, data=[36, 127]),
   midi.NoteOnEvent(tick=30, channel=9, data=[42, 0]),
   midi.NoteOnEvent(tick=0, channel=9, data=[36, 0]),
   midi.NoteOnEvent(tick=0, channel=9, data=[36, 127]),
   midi.NoteOnEvent(tick=0, channel=9, data=[42, 127]),
   midi.NoteOnEvent(tick=60, channel=9, data=[36, 0]),
   midi.NoteOnEvent(tick=0, channel=9, data=[42, 0]),
   midi.NoteOnEvent(tick=0, channel=9, data=[36, 127]),
   midi.NoteOnEvent(tick=0, channel=9, data=[42, 127]),
   midi.NoteOnEvent(tick=60, channel=9, data=[42, 0]),
   midi.NoteOnEvent(tick=0, channel=9, data=[42, 127]),
   midi.NoteOnEvent(tick=60, channel=9, data=[36, 0]),
   midi.NoteOnEvent(tick=0, channel=9, data=[42, 0]),
   midi.NoteOnEvent(tick=0, channel=9, data=[36, 127]),
   midi.NoteOnEvent(tick=0, channel=9, data=[42, 127]),
   midi.NoteOnEvent(tick=60, channel=9, data=[36, 0]),
   midi.NoteOnEvent(tick=0, channel=9, data=[42, 0]),
   midi.NoteOnEvent(tick=0, channel=9, data=[38, 127]),
   midi.NoteOnEvent(tick=0, channel=9, data=[42, 127]),
   midi.NoteOnEvent(tick=60, channel=9, data=[38, 0]),
   midi.NoteOnEvent(tick=0, channel=9, data=[42, 0]),
   midi.NoteOnEvent(tick=0, channel=9, data=[42, 127]),
   midi.NoteOnEvent(tick=0, channel=9, data=[38, 127]),
   midi.NoteOnEvent(tick=60, channel=9, data=[42, 0]),
   midi.NoteOnEvent(tick=0, channel=9, data=[38, 0]),
   midi.NoteOnEvent(tick=0, channel=9, data=[36, 127]),
   midi.NoteOnEvent(tick=0, channel=9, data=[42, 127]),
   midi.NoteOnEvent(tick=60, channel=9, data=[36, 0]),
   midi.NoteOnEvent(tick=0, channel=9, data=[42, 0]),
   midi.NoteOnEvent(tick=0, channel=9, data=[42, 127]),
   midi.NoteOnEvent(tick=0, channel=9, data=[38, 127]),
   midi.NoteOnEvent(tick=60, channel=9, data=[42, 0]),
   midi.NoteOnEvent(tick=0, channel=9, data=[38, 0]),
   midi.NoteOnEvent(tick=0, channel=9, data=[42, 127]),
   midi.NoteOnEvent(tick=0, channel=9, data=[38, 127]),
   midi.NoteOnEvent(tick=55, channel=9, data=[38, 75]),
   midi.NoteOnEvent(tick=5, channel=9, data=[42, 0]),
   midi.NoteOnEvent(tick=0, channel=9, data=[38, 0]),
   midi.NoteOnEvent(tick=0, channel=9, data=[38, 0]),
   midi.NoteOnEvent(tick=0, channel=9, data=[38, 127]),
   midi.NoteOnEvent(tick=55, channel=9, data=[38, 75]),
   midi.NoteOnEvent(tick=5, channel=9, data=[38, 0]),
   midi.NoteOnEvent(tick=0, channel=9, data=[38, 0]),
   midi.NoteOnEvent(tick=0, channel=9, data=[38, 127]),
   midi.NoteOnEvent(tick=45, channel=9, data=[38, 0]),
   midi.NoteOnEvent(tick=0, channel=9, data=[38, 127]),
   midi.NoteOnEvent(tick=5, channel=9, data=[38, 0]),
   midi.NoteOnEvent(tick=0, channel=9, data=[38, 127]),
   midi.NoteOnEvent(tick=5, channel=9, data=[38, 0]),
   midi.NoteOnEvent(tick=0, channel=9, data=[38, 127]),
   midi.NoteOnEvent(tick=5, channel=9, data=[38, 0]),
   midi.NoteOnEvent(tick=0, channel=9, data=[38, 127]),
   midi.NoteOnEvent(tick=30, channel=9, data=[38, 0]),
   midi.NoteOnEvent(tick=0, channel=9, data=[38, 127]),
   midi.NoteOnEvent(tick=30, channel=9, data=[38, 0]),
   midi.NoteOnEvent(tick=0, channel=9, data=[38, 127]),
   midi.NoteOnEvent(tick=30, channel=9, data=[38, 0]),
   midi.NoteOnEvent(tick=0, channel=9, data=[38, 127]),
   midi.NoteOnEvent(tick=30, channel=9, data=[38, 0]),
   midi.NoteOnEvent(tick=0, channel=9, data=[48, 127]),
   midi.NoteOnEvent(tick=0, channel=9, data=[47, 127]),
   midi.NoteOnEvent(tick=30, channel=9, data=[48, 0]),
   midi.NoteOnEvent(tick=0, channel=9, data=[47, 0]),
   midi.NoteOnEvent(tick=0, channel=9, data=[48, 127]),
   midi.NoteOnEvent(tick=0, channel=9, data=[47, 127]),
   midi.NoteOnEvent(tick=30, channel=9, data=[48, 0]),
   midi.NoteOnEvent(tick=0, channel=9, data=[47, 0]),
   midi.NoteOnEvent(tick=60, channel=9, data=[36, 127]),
   midi.NoteOnEvent(tick=0, channel=9, data=[57, 127]),
   midi.NoteOnEvent(tick=120, channel=9, data=[36, 0]),
   midi.NoteOnEvent(tick=0, channel=9, data=[57, 0]),
   midi.NoteOnEvent(tick=60, channel=9, data=[36, 127]),
   midi.NoteOnEvent(tick=0, channel=9, data=[57, 127]),
   midi.NoteOnEvent(tick=60, channel=9, data=[36, 0]),
   midi.NoteOnEvent(tick=0, channel=9, data=[57, 0]),
   midi.NoteOnEvent(tick=120, channel=9, data=[36, 127]),
   midi.NoteOnEvent(tick=0, channel=9, data=[57, 127]),
   midi.NoteOnEvent(tick=120, channel=9, data=[36, 0]),
   midi.NoteOnEvent(tick=0, channel=9, data=[57, 0]),
   midi.NoteOnEvent(tick=480, channel=9, data=[36, 127]),
   midi.NoteOnEvent(tick=0, channel=9, data=[57, 127]),
   midi.NoteOnEvent(tick=120, channel=9, data=[36, 0]),
   midi.NoteOnEvent(tick=0, channel=9, data=[57, 0]),
   midi.NoteOnEvent(tick=60, channel=9, data=[36, 127]),
   midi.NoteOnEvent(tick=0, channel=9, data=[57, 127]),
   midi.NoteOnEvent(tick=60, channel=9, data=[36, 0]),
   midi.NoteOnEvent(tick=0, channel=9, data=[57, 0]),
   midi.NoteOnEvent(tick=120, channel=9, data=[36, 127]),
   midi.NoteOnEvent(tick=0, channel=9, data=[57, 127]),
   midi.NoteOnEvent(tick=120, channel=9, data=[36, 0]),
   midi.NoteOnEvent(tick=0, channel=9, data=[57, 0]),
   midi.NoteOnEvent(tick=180, channel=9, data=[36, 127]),
   midi.NoteOnEvent(tick=55, channel=9, data=[38, 75]),
   midi.NoteOnEvent(tick=5, channel=9, data=[36, 0]),
   midi.NoteOnEvent(tick=0, channel=9, data=[38, 0]),
   midi.NoteOnEvent(tick=0, channel=9, data=[38, 127]),
   midi.NoteOnEvent(tick=60, channel=9, data=[36, 127]),
   midi.NoteOnEvent(tick=60, channel=9, data=[38, 0]),
   midi.NoteOnEvent(tick=0, channel=9, data=[36, 0]),
   midi.NoteOnEvent(tick=0, channel=9, data=[57, 127]),
   midi.NoteOnEvent(tick=0, channel=9, data=[38, 127]),
   midi.NoteOnEvent(tick=60, channel=9, data=[57, 0]),
   midi.NoteOnEvent(tick=0, channel=9, data=[38, 0]),
   midi.NoteOnEvent(tick=0, channel=9, data=[36, 127]),
   midi.NoteOnEvent(tick=0, channel=9, data=[42, 127]),
   midi.NoteOnEvent(tick=60, channel=9, data=[36, 0]),
   midi.NoteOnEvent(tick=0, channel=9, data=[42, 0]),
   midi.NoteOnEvent(tick=0, channel=9, data=[38, 127]),
   midi.NoteOnEvent(tick=0, channel=9, data=[42, 127]),
   midi.NoteOnEvent(tick=60, channel=9, data=[38, 0]),
   midi.NoteOnEvent(tick=0, channel=9, data=[42, 0]),
   midi.NoteOnEvent(tick=0, channel=9, data=[36, 127]),
   midi.NoteOnEvent(tick=0, channel=9, data=[42, 127]),
   midi.NoteOnEvent(tick=60, channel=9, data=[36, 0]),
   midi.NoteOnEvent(tick=0, channel=9, data=[42, 0]),
   midi.NoteOnEvent(tick=0, channel=9, data=[42, 127]),
   midi.NoteOnEvent(tick=0, channel=9, data=[38, 127]),
   midi.NoteOnEvent(tick=60, channel=9, data=[42, 0]),
   midi.NoteOnEvent(tick=0, channel=9, data=[38, 0]),
   midi.NoteOnEvent(tick=0, channel=9, data=[42, 127]),
   midi.NoteOnEvent(tick=0, channel=9, data=[36, 127]),
   midi.NoteOnEvent(tick=60, channel=9, data=[42, 0]),
   midi.NoteOnEvent(tick=0, channel=9, data=[36, 0]),
   midi.NoteOnEvent(tick=0, channel=9, data=[38, 127]),
   midi.NoteOnEvent(tick=0, channel=9, data=[42, 127]),
   midi.NoteOnEvent(tick=0, channel=9, data=[36, 127]),
   midi.NoteOnEvent(tick=60, channel=9, data=[38, 0]),
   midi.NoteOnEvent(tick=0, channel=9, data=[42, 0]),
   midi.NoteOnEvent(tick=0, channel=9, data=[42, 127]),
   midi.NoteOnEvent(tick=60, channel=9, data=[36, 0]),
   midi.NoteOnEvent(tick=0, channel=9, data=[42, 0]),
   midi.NoteOnEvent(tick=0, channel=9, data=[36, 127]),
   midi.NoteOnEvent(tick=0, channel=9, data=[38, 127]),
   midi.NoteOnEvent(tick=0, channel=9, data=[42, 127]),
   midi.NoteOnEvent(tick=60, channel=9, data=[36, 0]),
   midi.NoteOnEvent(tick=0, channel=9, data=[38, 0]),
   midi.NoteOnEvent(tick=0, channel=9, data=[42, 0]),
   midi.NoteOnEvent(tick=0, channel=9, data=[42, 127]),
   midi.NoteOnEvent(tick=0, channel=9, data=[36, 127]),
   midi.NoteOnEvent(tick=60, channel=9, data=[42, 0]),
   midi.NoteOnEvent(tick=0, channel=9, data=[36, 0]),
   midi.NoteOnEvent(tick=0, channel=9, data=[38, 127]),
   midi.NoteOnEvent(tick=0, channel=9, data=[42, 127]),
   midi.NoteOnEvent(tick=60, channel=9, data=[38, 0]),
   midi.NoteOnEvent(tick=0, channel=9, data=[42, 0]),
   midi.NoteOnEvent(tick=0, channel=9, data=[36, 127]),
   midi.NoteOnEvent(tick=0, channel=9, data=[42, 127]),
   midi.NoteOnEvent(tick=60, channel=9, data=[36, 0]),
   midi.NoteOnEvent(tick=0, channel=9, data=[42, 0]),
   midi.NoteOnEvent(tick=0, channel=9, data=[42, 127]),
   midi.NoteOnEvent(tick=0, channel=9, data=[38, 127]),
   midi.NoteOnEvent(tick=60, channel=9, data=[42, 0]),
   midi.NoteOnEvent(tick=0, channel=9, data=[38, 0]),
   midi.NoteOnEvent(tick=0, channel=9, data=[36, 127]),
   midi.NoteOnEvent(tick=0, channel=9, data=[42, 127]),
   midi.NoteOnEvent(tick=60, channel=9, data=[36, 0]),
   midi.NoteOnEvent(tick=0, channel=9, data=[42, 0]),
   midi.NoteOnEvent(tick=0, channel=9, data=[36, 127]),
   midi.NoteOnEvent(tick=0, channel=9, data=[42, 127]),
   midi.NoteOnEvent(tick=0, channel=9, data=[38, 127]),
   midi.NoteOnEvent(tick=60, channel=9, data=[42, 0]),
   midi.NoteOnEvent(tick=0, channel=9, data=[38, 0]),
   midi.NoteOnEvent(tick=0, channel=9, data=[42, 127]),
   midi.NoteOnEvent(tick=60, channel=9, data=[36, 0]),
   midi.NoteOnEvent(tick=0, channel=9, data=[42, 0]),
   midi.NoteOnEvent(tick=0, channel=9, data=[36, 127]),
   midi.NoteOnEvent(tick=0, channel=9, data=[38, 127]),
   midi.NoteOnEvent(tick=0, channel=9, data=[42, 127]),
   midi.NoteOnEvent(tick=60, channel=9, data=[36, 0]),
   midi.NoteOnEvent(tick=0, channel=9, data=[38, 0]),
   midi.NoteOnEvent(tick=0, channel=9, data=[42, 0]),
   midi.NoteOnEvent(tick=0, channel=9, data=[42, 127]),
   midi.NoteOnEvent(tick=0, channel=9, data=[36, 127]),
   midi.NoteOnEvent(tick=60, channel=9, data=[42, 0]),
   midi.NoteOnEvent(tick=0, channel=9, data=[36, 0]),
   midi.NoteOnEvent(tick=0, channel=9, data=[38, 127]),
   midi.NoteOnEvent(tick=0, channel=9, data=[42, 127]),
   midi.NoteOnEvent(tick=60, channel=9, data=[38, 0]),
   midi.NoteOnEvent(tick=0, channel=9, data=[42, 0]),
   midi.NoteOnEvent(tick=0, channel=9, data=[36, 127]),
   midi.NoteOnEvent(tick=0, channel=9, data=[42, 127]),
   midi.NoteOnEvent(tick=60, channel=9, data=[36, 0]),
   midi.NoteOnEvent(tick=0, channel=9, data=[42, 0]),
   midi.NoteOnEvent(tick=0, channel=9, data=[42, 127]),
   midi.NoteOnEvent(tick=0, channel=9, data=[38, 127]),
   midi.NoteOnEvent(tick=60, channel=9, data=[42, 0]),
   midi.NoteOnEvent(tick=0, channel=9, data=[38, 0]),
   midi.NoteOnEvent(tick=0, channel=9, data=[36, 127]),
   midi.NoteOnEvent(tick=0, channel=9, data=[42, 127]),
   midi.NoteOnEvent(tick=60, channel=9, data=[36, 0]),
   midi.NoteOnEvent(tick=0, channel=9, data=[42, 0]),
   midi.NoteOnEvent(tick=0, channel=9, data=[36, 127]),
   midi.NoteOnEvent(tick=0, channel=9, data=[42, 127]),
   midi.NoteOnEvent(tick=0, channel=9, data=[38, 127]),
   midi.NoteOnEvent(tick=60, channel=9, data=[42, 0]),
   midi.NoteOnEvent(tick=0, channel=9, data=[38, 0]),
   midi.NoteOnEvent(tick=0, channel=9, data=[42, 127]),
   midi.NoteOnEvent(tick=60, channel=9, data=[36, 0]),
   midi.NoteOnEvent(tick=0, channel=9, data=[42, 0]),
   midi.NoteOnEvent(tick=0, channel=9, data=[36, 127]),
   midi.NoteOnEvent(tick=0, channel=9, data=[38, 127]),
   midi.NoteOnEvent(tick=0, channel=9, data=[42, 127]),
   midi.NoteOnEvent(tick=60, channel=9, data=[36, 0]),
   midi.NoteOnEvent(tick=0, channel=9, data=[38, 0]),
   midi.NoteOnEvent(tick=0, channel=9, data=[42, 0]),
   midi.NoteOnEvent(tick=0, channel=9, data=[42, 127]),
   midi.NoteOnEvent(tick=0, channel=9, data=[36, 127]),
   midi.NoteOnEvent(tick=60, channel=9, data=[42, 0]),
   midi.NoteOnEvent(tick=0, channel=9, data=[36, 0]),
   midi.NoteOnEvent(tick=0, channel=9, data=[38, 127]),
   midi.NoteOnEvent(tick=0, channel=9, data=[42, 127]),
   midi.NoteOnEvent(tick=60, channel=9, data=[38, 0]),
   midi.NoteOnEvent(tick=0, channel=9, data=[42, 0]),
   midi.NoteOnEvent(tick=0, channel=9, data=[36, 127]),
   midi.NoteOnEvent(tick=0, channel=9, data=[42, 127]),
   midi.NoteOnEvent(tick=60, channel=9, data=[36, 0]),
   midi.NoteOnEvent(tick=0, channel=9, data=[42, 0]),
   midi.NoteOnEvent(tick=0, channel=9, data=[42, 127]),
   midi.NoteOnEvent(tick=0, channel=9, data=[38, 127]),
   midi.NoteOnEvent(tick=60, channel=9, data=[42, 0]),
   midi.NoteOnEvent(tick=0, channel=9, data=[38, 0]),
   midi.NoteOnEvent(tick=0, channel=9, data=[36, 127]),
   midi.NoteOnEvent(tick=0, channel=9, data=[42, 127]),
   midi.NoteOnEvent(tick=60, channel=9, data=[36, 0]),
   midi.NoteOnEvent(tick=0, channel=9, data=[42, 0]),
   midi.NoteOnEvent(tick=0, channel=9, data=[36, 127]),
   midi.NoteOnEvent(tick=0, channel=9, data=[42, 127]),
   midi.NoteOnEvent(tick=0, channel=9, data=[38, 127]),
   midi.NoteOnEvent(tick=60, channel=9, data=[42, 0]),
   midi.NoteOnEvent(tick=0, channel=9, data=[38, 0]),
   midi.NoteOnEvent(tick=0, channel=9, data=[42, 127]),
   midi.NoteOnEvent(tick=60, channel=9, data=[36, 0]),
   midi.NoteOnEvent(tick=0, channel=9, data=[42, 0]),
   midi.NoteOnEvent(tick=0, channel=9, data=[36, 127]),
   midi.NoteOnEvent(tick=0, channel=9, data=[38, 127]),
   midi.NoteOnEvent(tick=0, channel=9, data=[42, 127]),
   midi.NoteOnEvent(tick=60, channel=9, data=[36, 0]),
   midi.NoteOnEvent(tick=0, channel=9, data=[38, 0]),
   midi.NoteOnEvent(tick=0, channel=9, data=[42, 0]),
   midi.NoteOnEvent(tick=0, channel=9, data=[42, 127]),
   midi.NoteOnEvent(tick=0, channel=9, data=[36, 127]),
   midi.NoteOnEvent(tick=60, channel=9, data=[42, 0]),
   midi.NoteOnEvent(tick=0, channel=9, data=[36, 0]),
   midi.NoteOnEvent(tick=0, channel=9, data=[38, 127]),
   midi.NoteOnEvent(tick=0, channel=9, data=[42, 127]),
   midi.NoteOnEvent(tick=60, channel=9, data=[38, 0]),
   midi.NoteOnEvent(tick=0, channel=9, data=[42, 0]),
   midi.NoteOnEvent(tick=0, channel=9, data=[36, 127]),
   midi.NoteOnEvent(tick=0, channel=9, data=[42, 127]),
   midi.NoteOnEvent(tick=60, channel=9, data=[36, 0]),
   midi.NoteOnEvent(tick=0, channel=9, data=[42, 0]),
   midi.NoteOnEvent(tick=0, channel=9, data=[42, 127]),
   midi.NoteOnEvent(tick=0, channel=9, data=[38, 127]),
   midi.NoteOnEvent(tick=60, channel=9, data=[42, 0]),
   midi.NoteOnEvent(tick=0, channel=9, data=[38, 0]),
   midi.NoteOnEvent(tick=0, channel=9, data=[36, 127]),
   midi.NoteOnEvent(tick=0, channel=9, data=[42, 127]),
   midi.NoteOnEvent(tick=60, channel=9, data=[36, 0]),
   midi.NoteOnEvent(tick=0, channel=9, data=[42, 0]),
   midi.NoteOnEvent(tick=0, channel=9, data=[36, 127]),
   midi.NoteOnEvent(tick=0, channel=9, data=[42, 127]),
   midi.NoteOnEvent(tick=0, channel=9, data=[38, 127]),
   midi.NoteOnEvent(tick=60, channel=9, data=[42, 0]),
   midi.NoteOnEvent(tick=0, channel=9, data=[38, 0]),
   midi.NoteOnEvent(tick=0, channel=9, data=[42, 127]),
   midi.NoteOnEvent(tick=60, channel=9, data=[36, 0]),
   midi.NoteOnEvent(tick=0, channel=9, data=[42, 0]),
   midi.NoteOnEvent(tick=0, channel=9, data=[36, 127]),
   midi.NoteOnEvent(tick=0, channel=9, data=[38, 127]),
   midi.NoteOnEvent(tick=0, channel=9, data=[42, 127]),
   midi.NoteOnEvent(tick=60, channel=9, data=[36, 0]),
   midi.NoteOnEvent(tick=0, channel=9, data=[38, 0]),
   midi.NoteOnEvent(tick=0, channel=9, data=[42, 0]),
   midi.NoteOnEvent(tick=0, channel=9, data=[42, 127]),
   midi.NoteOnEvent(tick=0, channel=9, data=[36, 127]),
   midi.NoteOnEvent(tick=60, channel=9, data=[42, 0]),
   midi.NoteOnEvent(tick=0, channel=9, data=[36, 0]),
   midi.NoteOnEvent(tick=0, channel=9, data=[38, 127]),
   midi.NoteOnEvent(tick=0, channel=9, data=[42, 127]),
   midi.NoteOnEvent(tick=60, channel=9, data=[38, 0]),
   midi.NoteOnEvent(tick=0, channel=9, data=[42, 0]),
   midi.NoteOnEvent(tick=0, channel=9, data=[36, 127]),
   midi.NoteOnEvent(tick=0, channel=9, data=[42, 127]),
   midi.NoteOnEvent(tick=60, channel=9, data=[36, 0]),
   midi.NoteOnEvent(tick=0, channel=9, data=[42, 0]),
   midi.NoteOnEvent(tick=0, channel=9, data=[42, 127]),
   midi.NoteOnEvent(tick=0, channel=9, data=[38, 127]),
   midi.NoteOnEvent(tick=60, channel=9, data=[42, 0]),
   midi.NoteOnEvent(tick=0, channel=9, data=[38, 0]),
   midi.NoteOnEvent(tick=0, channel=9, data=[36, 127]),
   midi.NoteOnEvent(tick=0, channel=9, data=[42, 127]),
   midi.NoteOnEvent(tick=60, channel=9, data=[36, 0]),
   midi.NoteOnEvent(tick=0, channel=9, data=[42, 0]),
   midi.NoteOnEvent(tick=0, channel=9, data=[36, 127]),
   midi.NoteOnEvent(tick=0, channel=9, data=[42, 127]),
   midi.NoteOnEvent(tick=0, channel=9, data=[38, 127]),
   midi.NoteOnEvent(tick=60, channel=9, data=[42, 0]),
   midi.NoteOnEvent(tick=0, channel=9, data=[38, 0]),
   midi.NoteOnEvent(tick=0, channel=9, data=[42, 127]),
   midi.NoteOnEvent(tick=60, channel=9, data=[36, 0]),
   midi.NoteOnEvent(tick=0, channel=9, data=[42, 0]),
   midi.NoteOnEvent(tick=0, channel=9, data=[36, 127]),
   midi.NoteOnEvent(tick=0, channel=9, data=[38, 127]),
   midi.NoteOnEvent(tick=0, channel=9, data=[42, 127]),
   midi.NoteOnEvent(tick=60, channel=9, data=[36, 0]),
   midi.NoteOnEvent(tick=0, channel=9, data=[38, 0]),
   midi.NoteOnEvent(tick=0, channel=9, data=[42, 0]),
   midi.NoteOnEvent(tick=0, channel=9, data=[42, 127]),
   midi.NoteOnEvent(tick=0, channel=9, data=[36, 127]),
   midi.NoteOnEvent(tick=60, channel=9, data=[42, 0]),
   midi.NoteOnEvent(tick=0, channel=9, data=[36, 0]),
   midi.NoteOnEvent(tick=0, channel=9, data=[38, 127]),
   midi.NoteOnEvent(tick=0, channel=9, data=[42, 127]),
   midi.NoteOnEvent(tick=60, channel=9, data=[38, 0]),
   midi.NoteOnEvent(tick=0, channel=9, data=[42, 0]),
   midi.NoteOnEvent(tick=0, channel=9, data=[36, 127]),
   midi.NoteOnEvent(tick=0, channel=9, data=[42, 127]),
   midi.NoteOnEvent(tick=60, channel=9, data=[36, 0]),
   midi.NoteOnEvent(tick=0, channel=9, data=[42, 0]),
   midi.NoteOnEvent(tick=0, channel=9, data=[42, 127]),
   midi.NoteOnEvent(tick=0, channel=9, data=[38, 127]),
   midi.NoteOnEvent(tick=60, channel=9, data=[42, 0]),
   midi.NoteOnEvent(tick=0, channel=9, data=[38, 0]),
   midi.NoteOnEvent(tick=0, channel=9, data=[36, 127]),
   midi.NoteOnEvent(tick=0, channel=9, data=[42, 127]),
   midi.NoteOnEvent(tick=60, channel=9, data=[36, 0]),
   midi.NoteOnEvent(tick=0, channel=9, data=[42, 0]),
   midi.NoteOnEvent(tick=0, channel=9, data=[36, 127]),
   midi.NoteOnEvent(tick=0, channel=9, data=[42, 127]),
   midi.NoteOnEvent(tick=0, channel=9, data=[38, 127]),
   midi.NoteOnEvent(tick=60, channel=9, data=[42, 0]),
   midi.NoteOnEvent(tick=0, channel=9, data=[38, 0]),
   midi.NoteOnEvent(tick=0, channel=9, data=[42, 127]),
   midi.NoteOnEvent(tick=60, channel=9, data=[36, 0]),
   midi.NoteOnEvent(tick=0, channel=9, data=[42, 0]),
   midi.NoteOnEvent(tick=0, channel=9, data=[36, 127]),
   midi.NoteOnEvent(tick=0, channel=9, data=[38, 127]),
   midi.NoteOnEvent(tick=0, channel=9, data=[42, 127]),
   midi.NoteOnEvent(tick=60, channel=9, data=[36, 0]),
   midi.NoteOnEvent(tick=0, channel=9, data=[38, 0]),
   midi.NoteOnEvent(tick=0, channel=9, data=[42, 0]),
   midi.NoteOnEvent(tick=0, channel=9, data=[42, 127]),
   midi.NoteOnEvent(tick=0, channel=9, data=[36, 127]),
   midi.NoteOnEvent(tick=60, channel=9, data=[42, 0]),
   midi.NoteOnEvent(tick=0, channel=9, data=[36, 0]),
   midi.NoteOnEvent(tick=0, channel=9, data=[38, 127]),
   midi.NoteOnEvent(tick=0, channel=9, data=[42, 127]),
   midi.NoteOnEvent(tick=60, channel=9, data=[38, 0]),
   midi.NoteOnEvent(tick=0, channel=9, data=[42, 0]),
   midi.NoteOnEvent(tick=0, channel=9, data=[36, 127]),
   midi.NoteOnEvent(tick=0, channel=9, data=[42, 127]),
   midi.NoteOnEvent(tick=60, channel=9, data=[36, 0]),
   midi.NoteOnEvent(tick=0, channel=9, data=[42, 0]),
   midi.NoteOnEvent(tick=0, channel=9, data=[42, 127]),
   midi.NoteOnEvent(tick=0, channel=9, data=[38, 127]),
   midi.NoteOnEvent(tick=60, channel=9, data=[42, 0]),
   midi.NoteOnEvent(tick=0, channel=9, data=[38, 0]),
   midi.NoteOnEvent(tick=0, channel=9, data=[36, 127]),
   midi.NoteOnEvent(tick=0, channel=9, data=[42, 127]),
   midi.NoteOnEvent(tick=60, channel=9, data=[36, 0]),
   midi.NoteOnEvent(tick=0, channel=9, data=[42, 0]),
   midi.NoteOnEvent(tick=0, channel=9, data=[36, 127]),
   midi.NoteOnEvent(tick=0, channel=9, data=[42, 127]),
   midi.NoteOnEvent(tick=0, channel=9, data=[38, 127]),
   midi.NoteOnEvent(tick=60, channel=9, data=[42, 0]),
   midi.NoteOnEvent(tick=0, channel=9, data=[38, 0]),
   midi.NoteOnEvent(tick=0, channel=9, data=[42, 127]),
   midi.NoteOnEvent(tick=60, channel=9, data=[36, 0]),
   midi.NoteOnEvent(tick=0, channel=9, data=[42, 0]),
   midi.NoteOnEvent(tick=0, channel=9, data=[36, 127]),
   midi.NoteOnEvent(tick=0, channel=9, data=[38, 127]),
   midi.NoteOnEvent(tick=0, channel=9, data=[42, 127]),
   midi.NoteOnEvent(tick=60, channel=9, data=[36, 0]),
   midi.NoteOnEvent(tick=0, channel=9, data=[38, 0]),
   midi.NoteOnEvent(tick=0, channel=9, data=[42, 0]),
   midi.NoteOnEvent(tick=0, channel=9, data=[42, 127]),
   midi.NoteOnEvent(tick=0, channel=9, data=[36, 127]),
   midi.NoteOnEvent(tick=60, channel=9, data=[42, 0]),
   midi.NoteOnEvent(tick=0, channel=9, data=[36, 0]),
   midi.NoteOnEvent(tick=0, channel=9, data=[38, 127]),
   midi.NoteOnEvent(tick=0, channel=9, data=[42, 127]),
   midi.NoteOnEvent(tick=60, channel=9, data=[38, 0]),
   midi.NoteOnEvent(tick=0, channel=9, data=[42, 0]),
   midi.NoteOnEvent(tick=0, channel=9, data=[36, 127]),
   midi.NoteOnEvent(tick=0, channel=9, data=[42, 127]),
   midi.NoteOnEvent(tick=60, channel=9, data=[36, 0]),
   midi.NoteOnEvent(tick=0, channel=9, data=[42, 0]),
   midi.NoteOnEvent(tick=0, channel=9, data=[42, 127]),
   midi.NoteOnEvent(tick=0, channel=9, data=[38, 127]),
   midi.NoteOnEvent(tick=60, channel=9, data=[42, 0]),
   midi.NoteOnEvent(tick=0, channel=9, data=[38, 0]),
   midi.NoteOnEvent(tick=0, channel=9, data=[36, 127]),
   midi.NoteOnEvent(tick=0, channel=9, data=[42, 127]),
   midi.NoteOnEvent(tick=60, channel=9, data=[36, 0]),
   midi.NoteOnEvent(tick=0, channel=9, data=[42, 0]),
   midi.NoteOnEvent(tick=0, channel=9, data=[36, 127]),
   midi.NoteOnEvent(tick=0, channel=9, data=[42, 127]),
   midi.NoteOnEvent(tick=0, channel=9, data=[38, 127]),
   midi.NoteOnEvent(tick=60, channel=9, data=[42, 0]),
   midi.NoteOnEvent(tick=0, channel=9, data=[38, 0]),
   midi.NoteOnEvent(tick=0, channel=9, data=[42, 127]),
   midi.NoteOnEvent(tick=60, channel=9, data=[36, 0]),
   midi.NoteOnEvent(tick=0, channel=9, data=[42, 0]),
   midi.NoteOnEvent(tick=0, channel=9, data=[36, 127]),
   midi.NoteOnEvent(tick=0, channel=9, data=[38, 127]),
   midi.NoteOnEvent(tick=0, channel=9, data=[42, 127]),
   midi.NoteOnEvent(tick=60, channel=9, data=[36, 0]),
   midi.NoteOnEvent(tick=0, channel=9, data=[38, 0]),
   midi.NoteOnEvent(tick=0, channel=9, data=[42, 0]),
   midi.NoteOnEvent(tick=0, channel=9, data=[42, 127]),
   midi.NoteOnEvent(tick=0, channel=9, data=[36, 127]),
   midi.NoteOnEvent(tick=60, channel=9, data=[42, 0]),
   midi.NoteOnEvent(tick=0, channel=9, data=[36, 0]),
   midi.NoteOnEvent(tick=0, channel=9, data=[38, 127]),
   midi.NoteOnEvent(tick=0, channel=9, data=[42, 127]),
   midi.NoteOnEvent(tick=60, channel=9, data=[38, 0]),
   midi.NoteOnEvent(tick=0, channel=9, data=[42, 0]),
   midi.NoteOnEvent(tick=0, channel=9, data=[36, 127]),
   midi.NoteOnEvent(tick=0, channel=9, data=[42, 127]),
   midi.NoteOnEvent(tick=60, channel=9, data=[36, 0]),
   midi.NoteOnEvent(tick=0, channel=9, data=[42, 0]),
   midi.NoteOnEvent(tick=0, channel=9, data=[42, 127]),
   midi.NoteOnEvent(tick=0, channel=9, data=[38, 127]),
   midi.NoteOnEvent(tick=60, channel=9, data=[42, 0]),
   midi.NoteOnEvent(tick=0, channel=9, data=[38, 0]),
   midi.NoteOnEvent(tick=0, channel=9, data=[36, 127]),
   midi.NoteOnEvent(tick=0, channel=9, data=[42, 127]),
   midi.NoteOnEvent(tick=60, channel=9, data=[36, 0]),
   midi.NoteOnEvent(tick=0, channel=9, data=[42, 0]),
   midi.NoteOnEvent(tick=0, channel=9, data=[36, 127]),
   midi.NoteOnEvent(tick=0, channel=9, data=[42, 127]),
   midi.NoteOnEvent(tick=0, channel=9, data=[38, 127]),
   midi.NoteOnEvent(tick=60, channel=9, data=[42, 0]),
   midi.NoteOnEvent(tick=0, channel=9, data=[38, 0]),
   midi.NoteOnEvent(tick=0, channel=9, data=[42, 127]),
   midi.NoteOnEvent(tick=60, channel=9, data=[36, 0]),
   midi.NoteOnEvent(tick=0, channel=9, data=[42, 0]),
   midi.NoteOnEvent(tick=0, channel=9, data=[36, 127]),
   midi.NoteOnEvent(tick=0, channel=9, data=[38, 127]),
   midi.NoteOnEvent(tick=0, channel=9, data=[42, 127]),
   midi.NoteOnEvent(tick=60, channel=9, data=[36, 0]),
   midi.NoteOnEvent(tick=0, channel=9, data=[38, 0]),
   midi.NoteOnEvent(tick=0, channel=9, data=[42, 0]),
   midi.NoteOnEvent(tick=0, channel=9, data=[42, 127]),
   midi.NoteOnEvent(tick=0, channel=9, data=[36, 127]),
   midi.NoteOnEvent(tick=60, channel=9, data=[42, 0]),
   midi.NoteOnEvent(tick=0, channel=9, data=[36, 0]),
   midi.NoteOnEvent(tick=0, channel=9, data=[38, 127]),
   midi.NoteOnEvent(tick=0, channel=9, data=[42, 127]),
   midi.NoteOnEvent(tick=60, channel=9, data=[38, 0]),
   midi.NoteOnEvent(tick=0, channel=9, data=[42, 0]),
   midi.NoteOnEvent(tick=0, channel=9, data=[36, 127]),
   midi.NoteOnEvent(tick=0, channel=9, data=[42, 127]),
   midi.NoteOnEvent(tick=60, channel=9, data=[36, 0]),
   midi.NoteOnEvent(tick=0, channel=9, data=[42, 0]),
   midi.NoteOnEvent(tick=0, channel=9, data=[42, 127]),
   midi.NoteOnEvent(tick=0, channel=9, data=[38, 127]),
   midi.NoteOnEvent(tick=60, channel=9, data=[42, 0]),
   midi.NoteOnEvent(tick=0, channel=9, data=[38, 0]),
   midi.NoteOnEvent(tick=0, channel=9, data=[36, 127]),
   midi.NoteOnEvent(tick=0, channel=9, data=[42, 127]),
   midi.NoteOnEvent(tick=60, channel=9, data=[36, 0]),
   midi.NoteOnEvent(tick=0, channel=9, data=[42, 0]),
   midi.NoteOnEvent(tick=0, channel=9, data=[36, 127]),
   midi.NoteOnEvent(tick=0, channel=9, data=[42, 127]),
   midi.NoteOnEvent(tick=0, channel=9, data=[38, 127]),
   midi.NoteOnEvent(tick=60, channel=9, data=[42, 0]),
   midi.NoteOnEvent(tick=0, channel=9, data=[38, 0]),
   midi.NoteOnEvent(tick=0, channel=9, data=[42, 127]),
   midi.NoteOnEvent(tick=60, channel=9, data=[36, 0]),
   midi.NoteOnEvent(tick=0, channel=9, data=[42, 0]),
   midi.NoteOnEvent(tick=0, channel=9, data=[36, 127]),
   midi.NoteOnEvent(tick=0, channel=9, data=[38, 127]),
   midi.NoteOnEvent(tick=0, channel=9, data=[42, 127]),
   midi.NoteOnEvent(tick=60, channel=9, data=[36, 0]),
   midi.NoteOnEvent(tick=0, channel=9, data=[38, 0]),
   midi.NoteOnEvent(tick=0, channel=9, data=[42, 0]),
   midi.NoteOnEvent(tick=0, channel=9, data=[42, 127]),
   midi.NoteOnEvent(tick=0, channel=9, data=[36, 127]),
   midi.NoteOnEvent(tick=60, channel=9, data=[42, 0]),
   midi.NoteOnEvent(tick=0, channel=9, data=[36, 0]),
   midi.NoteOnEvent(tick=0, channel=9, data=[38, 127]),
   midi.NoteOnEvent(tick=0, channel=9, data=[42, 127]),
   midi.NoteOnEvent(tick=60, channel=9, data=[38, 0]),
   midi.NoteOnEvent(tick=0, channel=9, data=[42, 0]),
   midi.NoteOnEvent(tick=0, channel=9, data=[36, 127]),
   midi.NoteOnEvent(tick=0, channel=9, data=[42, 127]),
   midi.NoteOnEvent(tick=60, channel=9, data=[36, 0]),
   midi.NoteOnEvent(tick=0, channel=9, data=[42, 0]),
   midi.NoteOnEvent(tick=0, channel=9, data=[42, 127]),
   midi.NoteOnEvent(tick=0, channel=9, data=[38, 127]),
   midi.NoteOnEvent(tick=60, channel=9, data=[42, 0]),
   midi.NoteOnEvent(tick=0, channel=9, data=[38, 0]),
   midi.NoteOnEvent(tick=0, channel=9, data=[36, 127]),
   midi.NoteOnEvent(tick=0, channel=9, data=[42, 127]),
   midi.NoteOnEvent(tick=60, channel=9, data=[36, 0]),
   midi.NoteOnEvent(tick=0, channel=9, data=[42, 0]),
   midi.NoteOnEvent(tick=0, channel=9, data=[36, 127]),
   midi.NoteOnEvent(tick=0, channel=9, data=[42, 127]),
   midi.NoteOnEvent(tick=0, channel=9, data=[38, 127]),
   midi.NoteOnEvent(tick=60, channel=9, data=[42, 0]),
   midi.NoteOnEvent(tick=0, channel=9, data=[38, 0]),
   midi.NoteOnEvent(tick=0, channel=9, data=[42, 127]),
   midi.NoteOnEvent(tick=60, channel=9, data=[36, 0]),
   midi.NoteOnEvent(tick=0, channel=9, data=[42, 0]),
   midi.NoteOnEvent(tick=0, channel=9, data=[36, 127]),
   midi.NoteOnEvent(tick=0, channel=9, data=[38, 127]),
   midi.NoteOnEvent(tick=0, channel=9, data=[42, 127]),
   midi.NoteOnEvent(tick=60, channel=9, data=[36, 0]),
   midi.NoteOnEvent(tick=0, channel=9, data=[38, 0]),
   midi.NoteOnEvent(tick=0, channel=9, data=[42, 0]),
   midi.NoteOnEvent(tick=0, channel=9, data=[42, 127]),
   midi.NoteOnEvent(tick=0, channel=9, data=[36, 127]),
   midi.NoteOnEvent(tick=60, channel=9, data=[42, 0]),
   midi.NoteOnEvent(tick=0, channel=9, data=[36, 0]),
   midi.NoteOnEvent(tick=0, channel=9, data=[38, 127]),
   midi.NoteOnEvent(tick=0, channel=9, data=[42, 127]),
   midi.NoteOnEvent(tick=60, channel=9, data=[38, 0]),
   midi.NoteOnEvent(tick=0, channel=9, data=[42, 0]),
   midi.NoteOnEvent(tick=0, channel=9, data=[36, 127]),
   midi.NoteOnEvent(tick=0, channel=9, data=[42, 127]),
   midi.NoteOnEvent(tick=60, channel=9, data=[36, 0]),
   midi.NoteOnEvent(tick=0, channel=9, data=[42, 0]),
   midi.NoteOnEvent(tick=0, channel=9, data=[42, 127]),
   midi.NoteOnEvent(tick=0, channel=9, data=[38, 127]),
   midi.NoteOnEvent(tick=60, channel=9, data=[42, 0]),
   midi.NoteOnEvent(tick=0, channel=9, data=[38, 0]),
   midi.NoteOnEvent(tick=0, channel=9, data=[36, 127]),
   midi.NoteOnEvent(tick=0, channel=9, data=[42, 127]),
   midi.NoteOnEvent(tick=60, channel=9, data=[36, 0]),
   midi.NoteOnEvent(tick=0, channel=9, data=[42, 0]),
   midi.NoteOnEvent(tick=0, channel=9, data=[36, 127]),
   midi.NoteOnEvent(tick=0, channel=9, data=[42, 127]),
   midi.NoteOnEvent(tick=0, channel=9, data=[38, 127]),
   midi.NoteOnEvent(tick=60, channel=9, data=[42, 0]),
   midi.NoteOnEvent(tick=0, channel=9, data=[38, 0]),
   midi.NoteOnEvent(tick=0, channel=9, data=[42, 127]),
   midi.NoteOnEvent(tick=60, channel=9, data=[36, 0]),
   midi.NoteOnEvent(tick=0, channel=9, data=[42, 0]),
   midi.NoteOnEvent(tick=0, channel=9, data=[36, 127]),
   midi.NoteOnEvent(tick=0, channel=9, data=[38, 127]),
   midi.NoteOnEvent(tick=0, channel=9, data=[42, 127]),
   midi.NoteOnEvent(tick=60, channel=9, data=[36, 0]),
   midi.NoteOnEvent(tick=0, channel=9, data=[38, 0]),
   midi.NoteOnEvent(tick=0, channel=9, data=[42, 0]),
   midi.NoteOnEvent(tick=0, channel=9, data=[42, 127]),
   midi.NoteOnEvent(tick=0, channel=9, data=[36, 127]),
   midi.NoteOnEvent(tick=60, channel=9, data=[42, 0]),
   midi.NoteOnEvent(tick=0, channel=9, data=[36, 0]),
   midi.NoteOnEvent(tick=0, channel=9, data=[38, 127]),
   midi.NoteOnEvent(tick=0, channel=9, data=[42, 127]),
   midi.NoteOnEvent(tick=60, channel=9, data=[38, 0]),
   midi.NoteOnEvent(tick=0, channel=9, data=[42, 0]),
   midi.NoteOnEvent(tick=0, channel=9, data=[36, 127]),
   midi.NoteOnEvent(tick=0, channel=9, data=[42, 127]),
   midi.NoteOnEvent(tick=60, channel=9, data=[36, 0]),
   midi.NoteOnEvent(tick=0, channel=9, data=[42, 0]),
   midi.NoteOnEvent(tick=0, channel=9, data=[42, 127]),
   midi.NoteOnEvent(tick=0, channel=9, data=[38, 127]),
   midi.NoteOnEvent(tick=60, channel=9, data=[42, 0]),
   midi.NoteOnEvent(tick=0, channel=9, data=[38, 0]),
   midi.NoteOnEvent(tick=0, channel=9, data=[36, 127]),
   midi.NoteOnEvent(tick=0, channel=9, data=[42, 127]),
   midi.NoteOnEvent(tick=60, channel=9, data=[36, 0]),
   midi.NoteOnEvent(tick=0, channel=9, data=[42, 0]),
   midi.NoteOnEvent(tick=0, channel=9, data=[36, 127]),
   midi.NoteOnEvent(tick=0, channel=9, data=[42, 127]),
   midi.NoteOnEvent(tick=0, channel=9, data=[38, 127]),
   midi.NoteOnEvent(tick=60, channel=9, data=[42, 0]),
   midi.NoteOnEvent(tick=0, channel=9, data=[38, 0]),
   midi.NoteOnEvent(tick=0, channel=9, data=[42, 127]),
   midi.NoteOnEvent(tick=60, channel=9, data=[36, 0]),
   midi.NoteOnEvent(tick=0, channel=9, data=[42, 0]),
   midi.NoteOnEvent(tick=0, channel=9, data=[36, 127]),
   midi.NoteOnEvent(tick=0, channel=9, data=[38, 127]),
   midi.NoteOnEvent(tick=0, channel=9, data=[42, 127]),
   midi.NoteOnEvent(tick=60, channel=9, data=[36, 0]),
   midi.NoteOnEvent(tick=0, channel=9, data=[38, 0]),
   midi.NoteOnEvent(tick=0, channel=9, data=[42, 0]),
   midi.NoteOnEvent(tick=0, channel=9, data=[42, 127]),
   midi.NoteOnEvent(tick=0, channel=9, data=[36, 127]),
   midi.NoteOnEvent(tick=60, channel=9, data=[42, 0]),
   midi.NoteOnEvent(tick=0, channel=9, data=[36, 0]),
   midi.NoteOnEvent(tick=0, channel=9, data=[38, 127]),
   midi.NoteOnEvent(tick=0, channel=9, data=[42, 127]),
   midi.NoteOnEvent(tick=60, channel=9, data=[38, 0]),
   midi.NoteOnEvent(tick=0, channel=9, data=[42, 0]),
   midi.NoteOnEvent(tick=0, channel=9, data=[36, 127]),
   midi.NoteOnEvent(tick=0, channel=9, data=[42, 127]),
   midi.NoteOnEvent(tick=60, channel=9, data=[36, 0]),
   midi.NoteOnEvent(tick=0, channel=9, data=[42, 0]),
   midi.NoteOnEvent(tick=0, channel=9, data=[42, 127]),
   midi.NoteOnEvent(tick=0, channel=9, data=[38, 127]),
   midi.NoteOnEvent(tick=60, channel=9, data=[42, 0]),
   midi.NoteOnEvent(tick=0, channel=9, data=[38, 0]),
   midi.NoteOnEvent(tick=0, channel=9, data=[36, 127]),
   midi.NoteOnEvent(tick=0, channel=9, data=[42, 127]),
   midi.NoteOnEvent(tick=60, channel=9, data=[36, 0]),
   midi.NoteOnEvent(tick=0, channel=9, data=[42, 0]),
   midi.NoteOnEvent(tick=0, channel=9, data=[36, 127]),
   midi.NoteOnEvent(tick=0, channel=9, data=[42, 127]),
   midi.NoteOnEvent(tick=0, channel=9, data=[38, 127]),
   midi.NoteOnEvent(tick=60, channel=9, data=[42, 0]),
   midi.NoteOnEvent(tick=0, channel=9, data=[38, 0]),
   midi.NoteOnEvent(tick=0, channel=9, data=[42, 127]),
   midi.NoteOnEvent(tick=60, channel=9, data=[36, 0]),
   midi.NoteOnEvent(tick=0, channel=9, data=[42, 0]),
   midi.NoteOnEvent(tick=0, channel=9, data=[36, 127]),
   midi.NoteOnEvent(tick=0, channel=9, data=[38, 127]),
   midi.NoteOnEvent(tick=0, channel=9, data=[42, 127]),
   midi.NoteOnEvent(tick=60, channel=9, data=[36, 0]),
   midi.NoteOnEvent(tick=0, channel=9, data=[38, 0]),
   midi.NoteOnEvent(tick=0, channel=9, data=[42, 0]),
   midi.NoteOnEvent(tick=0, channel=9, data=[42, 127]),
   midi.NoteOnEvent(tick=0, channel=9, data=[36, 127]),
   midi.NoteOnEvent(tick=60, channel=9, data=[42, 0]),
   midi.NoteOnEvent(tick=0, channel=9, data=[36, 0]),
   midi.NoteOnEvent(tick=0, channel=9, data=[38, 127]),
   midi.NoteOnEvent(tick=0, channel=9, data=[42, 127]),
   midi.NoteOnEvent(tick=60, channel=9, data=[38, 0]),
   midi.NoteOnEvent(tick=0, channel=9, data=[42, 0]),
   midi.NoteOnEvent(tick=0, channel=9, data=[36, 127]),
   midi.NoteOnEvent(tick=0, channel=9, data=[42, 127]),
   midi.NoteOnEvent(tick=60, channel=9, data=[36, 0]),
   midi.NoteOnEvent(tick=0, channel=9, data=[42, 0]),
   midi.NoteOnEvent(tick=0, channel=9, data=[42, 127]),
   midi.NoteOnEvent(tick=0, channel=9, data=[38, 127]),
   midi.NoteOnEvent(tick=60, channel=9, data=[42, 0]),
   midi.NoteOnEvent(tick=0, channel=9, data=[38, 0]),
   midi.NoteOnEvent(tick=0, channel=9, data=[36, 127]),
   midi.NoteOnEvent(tick=0, channel=9, data=[42, 127]),
   midi.NoteOnEvent(tick=60, channel=9, data=[36, 0]),
   midi.NoteOnEvent(tick=0, channel=9, data=[42, 0]),
   midi.NoteOnEvent(tick=0, channel=9, data=[42, 127]),
   midi.NoteOnEvent(tick=0, channel=9, data=[38, 127]),
   midi.NoteOnEvent(tick=60, channel=9, data=[42, 0]),
   midi.NoteOnEvent(tick=0, channel=9, data=[38, 0]),
   midi.NoteOnEvent(tick=0, channel=9, data=[36, 127]),
   midi.NoteOnEvent(tick=0, channel=9, data=[42, 127]),
   midi.NoteOnEvent(tick=60, channel=9, data=[36, 0]),
   midi.NoteOnEvent(tick=0, channel=9, data=[42, 0]),
   midi.NoteOnEvent(tick=0, channel=9, data=[57, 127]),
   midi.NoteOnEvent(tick=0, channel=9, data=[38, 127]),
   midi.NoteOnEvent(tick=60, channel=9, data=[57, 0]),
   midi.NoteOnEvent(tick=0, channel=9, data=[38, 0]),
   midi.NoteOnEvent(tick=0, channel=9, data=[42, 127]),
   midi.NoteOnEvent(tick=60, channel=9, data=[42, 0]),
   midi.NoteOnEvent(tick=0, channel=9, data=[38, 127]),
   midi.NoteOnEvent(tick=0, channel=9, data=[42, 127]),
   midi.NoteOnEvent(tick=60, channel=9, data=[38, 0]),
   midi.NoteOnEvent(tick=0, channel=9, data=[42, 0]),
   midi.NoteOnEvent(tick=0, channel=9, data=[42, 127]),
   midi.NoteOnEvent(tick=60, channel=9, data=[42, 0]),
   midi.NoteOnEvent(tick=0, channel=9, data=[38, 127]),
   midi.NoteOnEvent(tick=0, channel=9, data=[42, 127]),
   midi.NoteOnEvent(tick=60, channel=9, data=[38, 0]),
   midi.NoteOnEvent(tick=0, channel=9, data=[42, 0]),
   midi.NoteOnEvent(tick=0, channel=9, data=[42, 127]),
   midi.NoteOnEvent(tick=60, channel=9, data=[42, 0]),
   midi.NoteOnEvent(tick=0, channel=9, data=[38, 127]),
   midi.NoteOnEvent(tick=0, channel=9, data=[42, 127]),
   midi.NoteOnEvent(tick=60, channel=9, data=[38, 0]),
   midi.NoteOnEvent(tick=0, channel=9, data=[42, 0]),
   midi.NoteOnEvent(tick=0, channel=9, data=[42, 127]),
   midi.NoteOnEvent(tick=60, channel=9, data=[42, 0]),
   midi.NoteOnEvent(tick=0, channel=9, data=[38, 127]),
   midi.NoteOnEvent(tick=0, channel=9, data=[42, 127]),
   midi.NoteOnEvent(tick=30, channel=9, data=[36, 127]),
   midi.NoteOnEvent(tick=30, channel=9, data=[38, 0]),
   midi.NoteOnEvent(tick=0, channel=9, data=[42, 0]),
   midi.NoteOnEvent(tick=0, channel=9, data=[42, 127]),
   midi.NoteOnEvent(tick=30, channel=9, data=[36, 0]),
   midi.NoteOnEvent(tick=0, channel=9, data=[36, 127]),
   midi.NoteOnEvent(tick=30, channel=9, data=[42, 0]),
   midi.NoteOnEvent(tick=0, channel=9, data=[36, 0]),
   midi.NoteOnEvent(tick=0, channel=9, data=[38, 127]),
   midi.NoteOnEvent(tick=0, channel=9, data=[42, 127]),
   midi.NoteOnEvent(tick=60, channel=9, data=[38, 0]),
   midi.NoteOnEvent(tick=0, channel=9, data=[42, 0]),
   midi.NoteOnEvent(tick=0, channel=9, data=[36, 127]),
   midi.NoteOnEvent(tick=0, channel=9, data=[42, 127]),
   midi.NoteOnEvent(tick=60, channel=9, data=[36, 0]),
   midi.NoteOnEvent(tick=0, channel=9, data=[42, 0]),
   midi.NoteOnEvent(tick=0, channel=9, data=[38, 127]),
   midi.NoteOnEvent(tick=0, channel=9, data=[42, 127]),
   midi.NoteOnEvent(tick=30, channel=9, data=[36, 127]),
   midi.NoteOnEvent(tick=30, channel=9, data=[38, 0]),
   midi.NoteOnEvent(tick=0, channel=9, data=[42, 0]),
   midi.NoteOnEvent(tick=0, channel=9, data=[42, 127]),
   midi.NoteOnEvent(tick=30, channel=9, data=[36, 0]),
   midi.NoteOnEvent(tick=0, channel=9, data=[36, 127]),
   midi.NoteOnEvent(tick=30, channel=9, data=[42, 0]),
   midi.NoteOnEvent(tick=0, channel=9, data=[36, 0]),
   midi.NoteOnEvent(tick=0, channel=9, data=[38, 127]),
   midi.NoteOnEvent(tick=0, channel=9, data=[42, 127]),
   midi.NoteOnEvent(tick=60, channel=9, data=[38, 0]),
   midi.NoteOnEvent(tick=0, channel=9, data=[42, 0]),
   midi.NoteOnEvent(tick=0, channel=9, data=[36, 127]),
   midi.NoteOnEvent(tick=0, channel=9, data=[42, 127]),
   midi.NoteOnEvent(tick=60, channel=9, data=[36, 0]),
   midi.NoteOnEvent(tick=0, channel=9, data=[42, 0]),
   midi.NoteOnEvent(tick=0, channel=9, data=[57, 127]),
   midi.NoteOnEvent(tick=0, channel=9, data=[38, 127]),
   midi.NoteOnEvent(tick=60, channel=9, data=[57, 0]),
   midi.NoteOnEvent(tick=0, channel=9, data=[38, 0]),
   midi.NoteOnEvent(tick=0, channel=9, data=[42, 127]),
   midi.NoteOnEvent(tick=60, channel=9, data=[42, 0]),
   midi.NoteOnEvent(tick=0, channel=9, data=[38, 127]),
   midi.NoteOnEvent(tick=0, channel=9, data=[42, 127]),
   midi.NoteOnEvent(tick=60, channel=9, data=[38, 0]),
   midi.NoteOnEvent(tick=0, channel=9, data=[42, 0]),
   midi.NoteOnEvent(tick=0, channel=9, data=[42, 127]),
   midi.NoteOnEvent(tick=60, channel=9, data=[42, 0]),
   midi.NoteOnEvent(tick=0, channel=9, data=[38, 127]),
   midi.NoteOnEvent(tick=0, channel=9, data=[42, 127]),
   midi.NoteOnEvent(tick=60, channel=9, data=[38, 0]),
   midi.NoteOnEvent(tick=0, channel=9, data=[42, 0]),
   midi.NoteOnEvent(tick=0, channel=9, data=[42, 127]),
   midi.NoteOnEvent(tick=60, channel=9, data=[42, 0]),
   midi.NoteOnEvent(tick=0, channel=9, data=[38, 127]),
   midi.NoteOnEvent(tick=0, channel=9, data=[42, 127]),
   midi.NoteOnEvent(tick=60, channel=9, data=[38, 0]),
   midi.NoteOnEvent(tick=0, channel=9, data=[42, 0]),
   midi.NoteOnEvent(tick=0, channel=9, data=[42, 127]),
   midi.NoteOnEvent(tick=60, channel=9, data=[42, 0]),
   midi.NoteOnEvent(tick=0, channel=9, data=[38, 127]),
   midi.NoteOnEvent(tick=0, channel=9, data=[42, 127]),
   midi.NoteOnEvent(tick=30, channel=9, data=[36, 127]),
   midi.NoteOnEvent(tick=30, channel=9, data=[38, 0]),
   midi.NoteOnEvent(tick=0, channel=9, data=[42, 0]),
   midi.NoteOnEvent(tick=0, channel=9, data=[42, 127]),
   midi.NoteOnEvent(tick=30, channel=9, data=[36, 0]),
   midi.NoteOnEvent(tick=0, channel=9, data=[36, 127]),
   midi.NoteOnEvent(tick=30, channel=9, data=[42, 0]),
   midi.NoteOnEvent(tick=0, channel=9, data=[36, 0]),
   midi.NoteOnEvent(tick=0, channel=9, data=[38, 127]),
   midi.NoteOnEvent(tick=0, channel=9, data=[42, 127]),
   midi.NoteOnEvent(tick=60, channel=9, data=[38, 0]),
   midi.NoteOnEvent(tick=0, channel=9, data=[42, 0]),
   midi.NoteOnEvent(tick=0, channel=9, data=[36, 127]),
   midi.NoteOnEvent(tick=0, channel=9, data=[42, 127]),
   midi.NoteOnEvent(tick=60, channel=9, data=[36, 0]),
   midi.NoteOnEvent(tick=0, channel=9, data=[42, 0]),
   midi.NoteOnEvent(tick=0, channel=9, data=[38, 127]),
   midi.NoteOnEvent(tick=0, channel=9, data=[42, 127]),
   midi.NoteOnEvent(tick=30, channel=9, data=[36, 127]),
   midi.NoteOnEvent(tick=30, channel=9, data=[38, 0]),
   midi.NoteOnEvent(tick=0, channel=9, data=[42, 0]),
   midi.NoteOnEvent(tick=0, channel=9, data=[42, 127]),
   midi.NoteOnEvent(tick=30, channel=9, data=[36, 0]),
   midi.NoteOnEvent(tick=0, channel=9, data=[36, 127]),
   midi.NoteOnEvent(tick=30, channel=9, data=[42, 0]),
   midi.NoteOnEvent(tick=0, channel=9, data=[36, 0]),
   midi.NoteOnEvent(tick=0, channel=9, data=[38, 127]),
   midi.NoteOnEvent(tick=0, channel=9, data=[42, 127]),
   midi.NoteOnEvent(tick=60, channel=9, data=[38, 0]),
   midi.NoteOnEvent(tick=0, channel=9, data=[42, 0]),
   midi.NoteOnEvent(tick=0, channel=9, data=[38, 127]),
   midi.NoteOnEvent(tick=0, channel=9, data=[57, 127]),
   midi.NoteOnEvent(tick=60, channel=9, data=[38, 0]),
   midi.NoteOnEvent(tick=0, channel=9, data=[57, 0]),
   midi.NoteOnEvent(tick=0, channel=9, data=[57, 127]),
   midi.NoteOnEvent(tick=0, channel=9, data=[38, 127]),
   midi.NoteOnEvent(tick=60, channel=9, data=[57, 0]),
   midi.NoteOnEvent(tick=0, channel=9, data=[38, 0]),
   midi.NoteOnEvent(tick=0, channel=9, data=[42, 127]),
   midi.NoteOnEvent(tick=60, channel=9, data=[42, 0]),
   midi.NoteOnEvent(tick=0, channel=9, data=[38, 127]),
   midi.NoteOnEvent(tick=0, channel=9, data=[42, 127]),
   midi.NoteOnEvent(tick=60, channel=9, data=[38, 0]),
   midi.NoteOnEvent(tick=0, channel=9, data=[42, 0]),
   midi.NoteOnEvent(tick=0, channel=9, data=[42, 127]),
   midi.NoteOnEvent(tick=60, channel=9, data=[42, 0]),
   midi.NoteOnEvent(tick=0, channel=9, data=[38, 127]),
   midi.NoteOnEvent(tick=0, channel=9, data=[42, 127]),
   midi.NoteOnEvent(tick=60, channel=9, data=[38, 0]),
   midi.NoteOnEvent(tick=0, channel=9, data=[42, 0]),
   midi.NoteOnEvent(tick=0, channel=9, data=[42, 127]),
   midi.NoteOnEvent(tick=60, channel=9, data=[42, 0]),
   midi.NoteOnEvent(tick=0, channel=9, data=[38, 127]),
   midi.NoteOnEvent(tick=0, channel=9, data=[42, 127]),
   midi.NoteOnEvent(tick=60, channel=9, data=[38, 0]),
   midi.NoteOnEvent(tick=0, channel=9, data=[42, 0]),
   midi.NoteOnEvent(tick=0, channel=9, data=[42, 127]),
   midi.NoteOnEvent(tick=60, channel=9, data=[42, 0]),
   midi.NoteOnEvent(tick=0, channel=9, data=[38, 127]),
   midi.NoteOnEvent(tick=0, channel=9, data=[42, 127]),
   midi.NoteOnEvent(tick=30, channel=9, data=[36, 127]),
   midi.NoteOnEvent(tick=30, channel=9, data=[38, 0]),
   midi.NoteOnEvent(tick=0, channel=9, data=[42, 0]),
   midi.NoteOnEvent(tick=0, channel=9, data=[42, 127]),
   midi.NoteOnEvent(tick=30, channel=9, data=[36, 0]),
   midi.NoteOnEvent(tick=0, channel=9, data=[36, 127]),
   midi.NoteOnEvent(tick=30, channel=9, data=[42, 0]),
   midi.NoteOnEvent(tick=0, channel=9, data=[36, 0]),
   midi.NoteOnEvent(tick=0, channel=9, data=[38, 127]),
   midi.NoteOnEvent(tick=0, channel=9, data=[42, 127]),
   midi.NoteOnEvent(tick=60, channel=9, data=[38, 0]),
   midi.NoteOnEvent(tick=0, channel=9, data=[42, 0]),
   midi.NoteOnEvent(tick=0, channel=9, data=[36, 127]),
   midi.NoteOnEvent(tick=0, channel=9, data=[42, 127]),
   midi.NoteOnEvent(tick=60, channel=9, data=[36, 0]),
   midi.NoteOnEvent(tick=0, channel=9, data=[42, 0]),
   midi.NoteOnEvent(tick=0, channel=9, data=[42, 127]),
   midi.NoteOnEvent(tick=0, channel=9, data=[38, 127]),
   midi.NoteOnEvent(tick=60, channel=9, data=[42, 0]),
   midi.NoteOnEvent(tick=0, channel=9, data=[38, 0]),
   midi.NoteOnEvent(tick=0, channel=9, data=[57, 127]),
   midi.NoteOnEvent(tick=0, channel=9, data=[38, 127]),
   midi.NoteOnEvent(tick=60, channel=9, data=[57, 0]),
   midi.NoteOnEvent(tick=0, channel=9, data=[38, 0]),
   midi.NoteOnEvent(tick=0, channel=9, data=[57, 127]),
   midi.NoteOnEvent(tick=0, channel=9, data=[38, 127]),
   midi.NoteOnEvent(tick=60, channel=9, data=[57, 0]),
   midi.NoteOnEvent(tick=0, channel=9, data=[38, 0]),
   midi.NoteOnEvent(tick=0, channel=9, data=[57, 127]),
   midi.NoteOnEvent(tick=0, channel=9, data=[38, 127]),
   midi.NoteOnEvent(tick=60, channel=9, data=[57, 0]),
   midi.NoteOnEvent(tick=0, channel=9, data=[38, 0]),
   midi.NoteOnEvent(tick=0, channel=9, data=[57, 127]),
   midi.NoteOnEvent(tick=0, channel=9, data=[38, 127]),
   midi.NoteOnEvent(tick=60, channel=9, data=[57, 0]),
   midi.NoteOnEvent(tick=0, channel=9, data=[38, 0]),
   midi.NoteOnEvent(tick=0, channel=9, data=[42, 127]),
   midi.NoteOnEvent(tick=60, channel=9, data=[42, 0]),
   midi.NoteOnEvent(tick=0, channel=9, data=[38, 127]),
   midi.NoteOnEvent(tick=0, channel=9, data=[42, 127]),
   midi.NoteOnEvent(tick=60, channel=9, data=[38, 0]),
   midi.NoteOnEvent(tick=0, channel=9, data=[42, 0]),
   midi.NoteOnEvent(tick=0, channel=9, data=[42, 127]),
   midi.NoteOnEvent(tick=60, channel=9, data=[42, 0]),
   midi.NoteOnEvent(tick=0, channel=9, data=[38, 127]),
   midi.NoteOnEvent(tick=0, channel=9, data=[42, 127]),
   midi.NoteOnEvent(tick=60, channel=9, data=[38, 0]),
   midi.NoteOnEvent(tick=0, channel=9, data=[42, 0]),
   midi.NoteOnEvent(tick=0, channel=9, data=[42, 127]),
   midi.NoteOnEvent(tick=60, channel=9, data=[42, 0]),
   midi.NoteOnEvent(tick=0, channel=9, data=[38, 127]),
   midi.NoteOnEvent(tick=0, channel=9, data=[42, 127]),
   midi.NoteOnEvent(tick=60, channel=9, data=[38, 0]),
   midi.NoteOnEvent(tick=0, channel=9, data=[42, 0]),
   midi.NoteOnEvent(tick=0, channel=9, data=[42, 127]),
   midi.NoteOnEvent(tick=60, channel=9, data=[42, 0]),
   midi.NoteOnEvent(tick=0, channel=9, data=[42, 127]),
   midi.NoteOnEvent(tick=0, channel=9, data=[38, 127]),
   midi.NoteOnEvent(tick=30, channel=9, data=[36, 127]),
   midi.NoteOnEvent(tick=30, channel=9, data=[42, 0]),
   midi.NoteOnEvent(tick=0, channel=9, data=[38, 0]),
   midi.NoteOnEvent(tick=0, channel=9, data=[42, 127]),
   midi.NoteOnEvent(tick=30, channel=9, data=[36, 0]),
   midi.NoteOnEvent(tick=0, channel=9, data=[36, 127]),
   midi.NoteOnEvent(tick=30, channel=9, data=[42, 0]),
   midi.NoteOnEvent(tick=0, channel=9, data=[36, 0]),
   midi.NoteOnEvent(tick=0, channel=9, data=[38, 127]),
   midi.NoteOnEvent(tick=0, channel=9, data=[42, 127]),
   midi.NoteOnEvent(tick=60, channel=9, data=[38, 0]),
   midi.NoteOnEvent(tick=0, channel=9, data=[42, 0]),
   midi.NoteOnEvent(tick=0, channel=9, data=[42, 127]),
   midi.NoteOnEvent(tick=0, channel=9, data=[38, 127]),
   midi.NoteOnEvent(tick=60, channel=9, data=[42, 0]),
   midi.NoteOnEvent(tick=0, channel=9, data=[38, 0]),
   midi.NoteOnEvent(tick=0, channel=9, data=[38, 127]),
   midi.NoteOnEvent(tick=30, channel=9, data=[38, 0]),
   midi.NoteOnEvent(tick=0, channel=9, data=[38, 127]),
   midi.NoteOnEvent(tick=30, channel=9, data=[38, 0]),
   midi.NoteOnEvent(tick=0, channel=9, data=[38, 127]),
   midi.NoteOnEvent(tick=60, channel=9, data=[38, 0]),
   midi.NoteOnEvent(tick=0, channel=9, data=[38, 127]),
   midi.NoteOnEvent(tick=30, channel=9, data=[38, 0]),
   midi.NoteOnEvent(tick=0, channel=9, data=[38, 127]),
   midi.NoteOnEvent(tick=30, channel=9, data=[38, 0]),
   midi.NoteOnEvent(tick=0, channel=9, data=[38, 127]),
   midi.NoteOnEvent(tick=60, channel=9, data=[38, 0]),
   midi.NoteOnEvent(tick=0, channel=9, data=[38, 127]),
   midi.NoteOnEvent(tick=0, channel=9, data=[57, 127]),
   midi.NoteOnEvent(tick=0, channel=9, data=[36, 127]),
   midi.NoteOnEvent(tick=30, channel=9, data=[36, 0]),
   midi.NoteOnEvent(tick=0, channel=9, data=[35, 127]),
   midi.NoteOnEvent(tick=30, channel=9, data=[38, 0]),
   midi.NoteOnEvent(tick=0, channel=9, data=[57, 0]),
   midi.NoteOnEvent(tick=0, channel=9, data=[35, 0]),
   midi.NoteOnEvent(tick=0, channel=9, data=[42, 127]),
   midi.NoteOnEvent(tick=0, channel=9, data=[36, 127]),
   midi.NoteOnEvent(tick=30, channel=9, data=[36, 0]),
   midi.NoteOnEvent(tick=0, channel=9, data=[35, 127]),
   midi.NoteOnEvent(tick=30, channel=9, data=[42, 0]),
   midi.NoteOnEvent(tick=0, channel=9, data=[35, 0]),
   midi.NoteOnEvent(tick=0, channel=9, data=[38, 127]),
   midi.NoteOnEvent(tick=0, channel=9, data=[42, 127]),
   midi.NoteOnEvent(tick=0, channel=9, data=[36, 127]),
   midi.NoteOnEvent(tick=30, channel=9, data=[36, 0]),
   midi.NoteOnEvent(tick=0, channel=9, data=[35, 127]),
   midi.NoteOnEvent(tick=30, channel=9, data=[38, 0]),
   midi.NoteOnEvent(tick=0, channel=9, data=[42, 0]),
   midi.NoteOnEvent(tick=0, channel=9, data=[35, 0]),
   midi.NoteOnEvent(tick=0, channel=9, data=[42, 127]),
   midi.NoteOnEvent(tick=0, channel=9, data=[36, 127]),
   midi.NoteOnEvent(tick=30, channel=9, data=[36, 0]),
   midi.NoteOnEvent(tick=0, channel=9, data=[35, 127]),
   midi.NoteOnEvent(tick=30, channel=9, data=[42, 0]),
   midi.NoteOnEvent(tick=0, channel=9, data=[35, 0]),
   midi.NoteOnEvent(tick=0, channel=9, data=[38, 127]),
   midi.NoteOnEvent(tick=0, channel=9, data=[42, 127]),
   midi.NoteOnEvent(tick=0, channel=9, data=[36, 127]),
   midi.NoteOnEvent(tick=30, channel=9, data=[36, 0]),
   midi.NoteOnEvent(tick=0, channel=9, data=[35, 127]),
   midi.NoteOnEvent(tick=30, channel=9, data=[38, 0]),
   midi.NoteOnEvent(tick=0, channel=9, data=[42, 0]),
   midi.NoteOnEvent(tick=0, channel=9, data=[35, 0]),
   midi.NoteOnEvent(tick=0, channel=9, data=[42, 127]),
   midi.NoteOnEvent(tick=0, channel=9, data=[36, 127]),
   midi.NoteOnEvent(tick=30, channel=9, data=[36, 0]),
   midi.NoteOnEvent(tick=0, channel=9, data=[35, 127]),
   midi.NoteOnEvent(tick=30, channel=9, data=[42, 0]),
   midi.NoteOnEvent(tick=0, channel=9, data=[35, 0]),
   midi.NoteOnEvent(tick=0, channel=9, data=[38, 127]),
   midi.NoteOnEvent(tick=0, channel=9, data=[42, 127]),
   midi.NoteOnEvent(tick=0, channel=9, data=[36, 127]),
   midi.NoteOnEvent(tick=30, channel=9, data=[36, 0]),
   midi.NoteOnEvent(tick=0, channel=9, data=[35, 127]),
   midi.NoteOnEvent(tick=30, channel=9, data=[38, 0]),
   midi.NoteOnEvent(tick=0, channel=9, data=[42, 0]),
   midi.NoteOnEvent(tick=0, channel=9, data=[35, 0]),
   midi.NoteOnEvent(tick=0, channel=9, data=[42, 127]),
   midi.NoteOnEvent(tick=0, channel=9, data=[36, 127]),
   midi.NoteOnEvent(tick=30, channel=9, data=[36, 0]),
   midi.NoteOnEvent(tick=0, channel=9, data=[35, 127]),
   midi.NoteOnEvent(tick=30, channel=9, data=[42, 0]),
   midi.NoteOnEvent(tick=0, channel=9, data=[35, 0]),
   midi.NoteOnEvent(tick=0, channel=9, data=[38, 127]),
   midi.NoteOnEvent(tick=0, channel=9, data=[42, 127]),
   midi.NoteOnEvent(tick=0, channel=9, data=[36, 127]),
   midi.NoteOnEvent(tick=30, channel=9, data=[36, 0]),
   midi.NoteOnEvent(tick=0, channel=9, data=[35, 127]),
   midi.NoteOnEvent(tick=30, channel=9, data=[38, 0]),
   midi.NoteOnEvent(tick=0, channel=9, data=[42, 0]),
   midi.NoteOnEvent(tick=0, channel=9, data=[35, 0]),
   midi.NoteOnEvent(tick=0, channel=9, data=[42, 127]),
   midi.NoteOnEvent(tick=0, channel=9, data=[36, 127]),
   midi.NoteOnEvent(tick=30, channel=9, data=[36, 0]),
   midi.NoteOnEvent(tick=0, channel=9, data=[35, 127]),
   midi.NoteOnEvent(tick=30, channel=9, data=[42, 0]),
   midi.NoteOnEvent(tick=0, channel=9, data=[35, 0]),
   midi.NoteOnEvent(tick=0, channel=9, data=[57, 127]),
   midi.NoteOnEvent(tick=0, channel=9, data=[38, 127]),
   midi.NoteOnEvent(tick=0, channel=9, data=[36, 127]),
   midi.NoteOnEvent(tick=30, channel=9, data=[36, 0]),
   midi.NoteOnEvent(tick=0, channel=9, data=[35, 127]),
   midi.NoteOnEvent(tick=30, channel=9, data=[57, 0]),
   midi.NoteOnEvent(tick=0, channel=9, data=[38, 0]),
   midi.NoteOnEvent(tick=0, channel=9, data=[35, 0]),
   midi.NoteOnEvent(tick=0, channel=9, data=[42, 127]),
   midi.NoteOnEvent(tick=0, channel=9, data=[36, 127]),
   midi.NoteOnEvent(tick=30, channel=9, data=[36, 0]),
   midi.NoteOnEvent(tick=0, channel=9, data=[35, 127]),
   midi.NoteOnEvent(tick=30, channel=9, data=[42, 0]),
   midi.NoteOnEvent(tick=0, channel=9, data=[35, 0]),
   midi.NoteOnEvent(tick=0, channel=9, data=[38, 127]),
   midi.NoteOnEvent(tick=0, channel=9, data=[42, 127]),
   midi.NoteOnEvent(tick=0, channel=9, data=[36, 127]),
   midi.NoteOnEvent(tick=30, channel=9, data=[36, 0]),
   midi.NoteOnEvent(tick=0, channel=9, data=[35, 127]),
   midi.NoteOnEvent(tick=30, channel=9, data=[38, 0]),
   midi.NoteOnEvent(tick=0, channel=9, data=[42, 0]),
   midi.NoteOnEvent(tick=0, channel=9, data=[35, 0]),
   midi.NoteOnEvent(tick=0, channel=9, data=[57, 127]),
   midi.NoteOnEvent(tick=0, channel=9, data=[36, 127]),
   midi.NoteOnEvent(tick=30, channel=9, data=[36, 0]),
   midi.NoteOnEvent(tick=0, channel=9, data=[35, 127]),
   midi.NoteOnEvent(tick=30, channel=9, data=[57, 0]),
   midi.NoteOnEvent(tick=0, channel=9, data=[35, 0]),
   midi.NoteOnEvent(tick=0, channel=9, data=[38, 127]),
   midi.NoteOnEvent(tick=0, channel=9, data=[42, 127]),
   midi.NoteOnEvent(tick=0, channel=9, data=[36, 127]),
   midi.NoteOnEvent(tick=30, channel=9, data=[36, 0]),
   midi.NoteOnEvent(tick=0, channel=9, data=[35, 127]),
   midi.NoteOnEvent(tick=30, channel=9, data=[38, 0]),
   midi.NoteOnEvent(tick=0, channel=9, data=[42, 0]),
   midi.NoteOnEvent(tick=0, channel=9, data=[35, 0]),
   midi.NoteOnEvent(tick=0, channel=9, data=[57, 127]),
   midi.NoteOnEvent(tick=0, channel=9, data=[36, 127]),
   midi.NoteOnEvent(tick=30, channel=9, data=[36, 0]),
   midi.NoteOnEvent(tick=0, channel=9, data=[35, 127]),
   midi.NoteOnEvent(tick=30, channel=9, data=[57, 0]),
   midi.NoteOnEvent(tick=0, channel=9, data=[35, 0]),
   midi.ControlChangeEvent(tick=0, channel=9, data=[7, 99]),
   midi.NoteOnEvent(tick=0, channel=9, data=[38, 127]),
   midi.NoteOnEvent(tick=0, channel=9, data=[57, 127]),
   midi.NoteOnEvent(tick=0, channel=9, data=[36, 127]),
   midi.NoteOnEvent(tick=30, channel=9, data=[36, 0]),
   midi.NoteOnEvent(tick=0, channel=9, data=[35, 127]),
   midi.ControlChangeEvent(tick=28, channel=9, data=[7, 98]),
   midi.NoteOnEvent(tick=2, channel=9, data=[38, 0]),
   midi.NoteOnEvent(tick=0, channel=9, data=[57, 0]),
   midi.NoteOnEvent(tick=0, channel=9, data=[35, 0]),
   midi.NoteOnEvent(tick=0, channel=9, data=[42, 127]),
   midi.NoteOnEvent(tick=0, channel=9, data=[36, 127]),
   midi.NoteOnEvent(tick=30, channel=9, data=[36, 0]),
   midi.NoteOnEvent(tick=0, channel=9, data=[35, 127]),
   midi.ControlChangeEvent(tick=26, channel=9, data=[7, 97]),
   midi.NoteOnEvent(tick=4, channel=9, data=[42, 0]),
   midi.NoteOnEvent(tick=0, channel=9, data=[35, 0]),
   midi.NoteOnEvent(tick=0, channel=9, data=[38, 127]),
   midi.NoteOnEvent(tick=0, channel=9, data=[42, 127]),
   midi.NoteOnEvent(tick=0, channel=9, data=[36, 127]),
   midi.NoteOnEvent(tick=30, channel=9, data=[36, 0]),
   midi.NoteOnEvent(tick=0, channel=9, data=[35, 127]),
   midi.ControlChangeEvent(tick=25, channel=9, data=[7, 96]),
   midi.NoteOnEvent(tick=5, channel=9, data=[38, 0]),
   midi.NoteOnEvent(tick=0, channel=9, data=[42, 0]),
   midi.NoteOnEvent(tick=0, channel=9, data=[35, 0]),
   midi.NoteOnEvent(tick=0, channel=9, data=[42, 127]),
   midi.NoteOnEvent(tick=0, channel=9, data=[36, 127]),
   midi.NoteOnEvent(tick=30, channel=9, data=[36, 0]),
   midi.NoteOnEvent(tick=0, channel=9, data=[35, 127]),
   midi.ControlChangeEvent(tick=23, channel=9, data=[7, 95]),
   midi.NoteOnEvent(tick=7, channel=9, data=[42, 0]),
   midi.NoteOnEvent(tick=0, channel=9, data=[35, 0]),
   midi.NoteOnEvent(tick=0, channel=9, data=[38, 127]),
   midi.NoteOnEvent(tick=0, channel=9, data=[42, 127]),
   midi.NoteOnEvent(tick=0, channel=9, data=[36, 127]),
   midi.NoteOnEvent(tick=30, channel=9, data=[36, 0]),
   midi.NoteOnEvent(tick=0, channel=9, data=[35, 127]),
   midi.ControlChangeEvent(tick=21, channel=9, data=[7, 94]),
   midi.NoteOnEvent(tick=9, channel=9, data=[38, 0]),
   midi.NoteOnEvent(tick=0, channel=9, data=[42, 0]),
   midi.NoteOnEvent(tick=0, channel=9, data=[35, 0]),
   midi.NoteOnEvent(tick=0, channel=9, data=[42, 127]),
   midi.NoteOnEvent(tick=0, channel=9, data=[36, 127]),
   midi.NoteOnEvent(tick=30, channel=9, data=[36, 0]),
   midi.NoteOnEvent(tick=0, channel=9, data=[35, 127]),
   midi.ControlChangeEvent(tick=19, channel=9, data=[7, 93]),
   midi.NoteOnEvent(tick=11, channel=9, data=[42, 0]),
   midi.NoteOnEvent(tick=0, channel=9, data=[35, 0]),
   midi.NoteOnEvent(tick=0, channel=9, data=[38, 127]),
   midi.NoteOnEvent(tick=0, channel=9, data=[42, 127]),
   midi.NoteOnEvent(tick=0, channel=9, data=[36, 127]),
   midi.NoteOnEvent(tick=30, channel=9, data=[36, 0]),
   midi.NoteOnEvent(tick=0, channel=9, data=[35, 127]),
   midi.ControlChangeEvent(tick=17, channel=9, data=[7, 92]),
   midi.NoteOnEvent(tick=13, channel=9, data=[38, 0]),
   midi.NoteOnEvent(tick=0, channel=9, data=[42, 0]),
   midi.NoteOnEvent(tick=0, channel=9, data=[35, 0]),
   midi.NoteOnEvent(tick=0, channel=9, data=[42, 127]),
   midi.NoteOnEvent(tick=0, channel=9, data=[36, 127]),
   midi.NoteOnEvent(tick=30, channel=9, data=[36, 0]),
   midi.NoteOnEvent(tick=0, channel=9, data=[35, 127]),
   midi.ControlChangeEvent(tick=15, channel=9, data=[7, 91]),
   midi.NoteOnEvent(tick=15, channel=9, data=[42, 0]),
   midi.NoteOnEvent(tick=0, channel=9, data=[35, 0]),
   midi.NoteOnEvent(tick=0, channel=9, data=[38, 127]),
   midi.NoteOnEvent(tick=0, channel=9, data=[42, 127]),
   midi.NoteOnEvent(tick=0, channel=9, data=[36, 127]),
   midi.NoteOnEvent(tick=30, channel=9, data=[36, 0]),
   midi.NoteOnEvent(tick=0, channel=9, data=[35, 127]),
   midi.ControlChangeEvent(tick=14, channel=9, data=[7, 90]),
   midi.NoteOnEvent(tick=16, channel=9, data=[38, 0]),
   midi.NoteOnEvent(tick=0, channel=9, data=[42, 0]),
   midi.NoteOnEvent(tick=0, channel=9, data=[35, 0]),
   midi.NoteOnEvent(tick=0, channel=9, data=[42, 127]),
   midi.NoteOnEvent(tick=0, channel=9, data=[36, 127]),
   midi.NoteOnEvent(tick=30, channel=9, data=[36, 0]),
   midi.NoteOnEvent(tick=0, channel=9, data=[35, 127]),
   midi.ControlChangeEvent(tick=12, channel=9, data=[7, 89]),
   midi.NoteOnEvent(tick=18, channel=9, data=[42, 0]),
   midi.NoteOnEvent(tick=0, channel=9, data=[35, 0]),
   midi.NoteOnEvent(tick=0, channel=9, data=[38, 127]),
   midi.NoteOnEvent(tick=0, channel=9, data=[42, 127]),
   midi.NoteOnEvent(tick=0, channel=9, data=[36, 127]),
   midi.NoteOnEvent(tick=30, channel=9, data=[36, 0]),
   midi.NoteOnEvent(tick=0, channel=9, data=[35, 127]),
   midi.ControlChangeEvent(tick=10, channel=9, data=[7, 88]),
   midi.NoteOnEvent(tick=20, channel=9, data=[35, 0]),
   midi.NoteOnEvent(tick=0, channel=9, data=[36, 127]),
   midi.NoteOnEvent(tick=30, channel=9, data=[36, 0]),
   midi.NoteOnEvent(tick=0, channel=9, data=[35, 127]),
   midi.ControlChangeEvent(tick=8, channel=9, data=[7, 87]),
   midi.NoteOnEvent(tick=22, channel=9, data=[38, 0]),
   midi.NoteOnEvent(tick=0, channel=9, data=[42, 0]),
   midi.NoteOnEvent(tick=0, channel=9, data=[35, 0]),
   midi.NoteOnEvent(tick=0, channel=9, data=[38, 127]),
   midi.NoteOnEvent(tick=0, channel=9, data=[57, 127]),
   midi.NoteOnEvent(tick=0, channel=9, data=[36, 127]),
   midi.NoteOnEvent(tick=30, channel=9, data=[36, 0]),
   midi.NoteOnEvent(tick=0, channel=9, data=[35, 127]),
   midi.ControlChangeEvent(tick=6, channel=9, data=[7, 86]),
   midi.NoteOnEvent(tick=24, channel=9, data=[38, 0]),
   midi.NoteOnEvent(tick=0, channel=9, data=[57, 0]),
   midi.NoteOnEvent(tick=0, channel=9, data=[35, 0]),
   midi.NoteOnEvent(tick=0, channel=9, data=[38, 127]),
   midi.NoteOnEvent(tick=0, channel=9, data=[36, 127]),
   midi.NoteOnEvent(tick=30, channel=9, data=[36, 0]),
   midi.NoteOnEvent(tick=0, channel=9, data=[35, 127]),
   midi.ControlChangeEvent(tick=4, channel=9, data=[7, 85]),
   midi.NoteOnEvent(tick=26, channel=9, data=[38, 0]),
   midi.NoteOnEvent(tick=0, channel=9, data=[35, 0]),
   midi.NoteOnEvent(tick=0, channel=9, data=[38, 127]),
   midi.NoteOnEvent(tick=0, channel=9, data=[36, 127]),
   midi.NoteOnEvent(tick=30, channel=9, data=[38, 0]),
   midi.NoteOnEvent(tick=0, channel=9, data=[36, 0]),
   midi.NoteOnEvent(tick=0, channel=9, data=[38, 127]),
   midi.NoteOnEvent(tick=0, channel=9, data=[35, 127]),
   midi.ControlChangeEvent(tick=3, channel=9, data=[7, 84]),
   midi.NoteOnEvent(tick=27, channel=9, data=[38, 0]),
   midi.NoteOnEvent(tick=0, channel=9, data=[35, 0]),
   midi.NoteOnEvent(tick=0, channel=9, data=[38, 127]),
   midi.NoteOnEvent(tick=0, channel=9, data=[36, 127]),
   midi.NoteOnEvent(tick=30, channel=9, data=[36, 0]),
   midi.NoteOnEvent(tick=0, channel=9, data=[35, 127]),
   midi.ControlChangeEvent(tick=1, channel=9, data=[7, 83]),
   midi.NoteOnEvent(tick=29, channel=9, data=[38, 0]),
   midi.NoteOnEvent(tick=0, channel=9, data=[35, 0]),
   midi.NoteOnEvent(tick=0, channel=9, data=[38, 127]),
   midi.NoteOnEvent(tick=0, channel=9, data=[57, 127]),
   midi.NoteOnEvent(tick=0, channel=9, data=[36, 127]),
   midi.ControlChangeEvent(tick=29, channel=9, data=[7, 82]),
   midi.NoteOnEvent(tick=1, channel=9, data=[36, 0]),
   midi.NoteOnEvent(tick=0, channel=9, data=[35, 127]),
   midi.NoteOnEvent(tick=30, channel=9, data=[38, 0]),
   midi.NoteOnEvent(tick=0, channel=9, data=[57, 0]),
   midi.NoteOnEvent(tick=0, channel=9, data=[35, 0]),
   midi.NoteOnEvent(tick=0, channel=9, data=[42, 127]),
   midi.NoteOnEvent(tick=0, channel=9, data=[36, 127]),
   midi.ControlChangeEvent(tick=27, channel=9, data=[7, 81]),
   midi.NoteOnEvent(tick=3, channel=9, data=[36, 0]),
   midi.NoteOnEvent(tick=0, channel=9, data=[35, 127]),
   midi.NoteOnEvent(tick=30, channel=9, data=[42, 0]),
   midi.NoteOnEvent(tick=0, channel=9, data=[35, 0]),
   midi.NoteOnEvent(tick=0, channel=9, data=[38, 127]),
   midi.NoteOnEvent(tick=0, channel=9, data=[42, 127]),
   midi.NoteOnEvent(tick=0, channel=9, data=[36, 127]),
   midi.ControlChangeEvent(tick=25, channel=9, data=[7, 80]),
   midi.NoteOnEvent(tick=5, channel=9, data=[36, 0]),
   midi.NoteOnEvent(tick=0, channel=9, data=[35, 127]),
   midi.NoteOnEvent(tick=30, channel=9, data=[38, 0]),
   midi.NoteOnEvent(tick=0, channel=9, data=[42, 0]),
   midi.NoteOnEvent(tick=0, channel=9, data=[35, 0]),
   midi.NoteOnEvent(tick=0, channel=9, data=[42, 127]),
   midi.NoteOnEvent(tick=0, channel=9, data=[36, 127]),
   midi.ControlChangeEvent(tick=23, channel=9, data=[7, 79]),
   midi.NoteOnEvent(tick=7, channel=9, data=[36, 0]),
   midi.NoteOnEvent(tick=0, channel=9, data=[35, 127]),
   midi.NoteOnEvent(tick=30, channel=9, data=[42, 0]),
   midi.NoteOnEvent(tick=0, channel=9, data=[35, 0]),
   midi.NoteOnEvent(tick=0, channel=9, data=[38, 127]),
   midi.NoteOnEvent(tick=0, channel=9, data=[42, 127]),
   midi.NoteOnEvent(tick=0, channel=9, data=[36, 127]),
   midi.ControlChangeEvent(tick=22, channel=9, data=[7, 78]),
   midi.NoteOnEvent(tick=8, channel=9, data=[36, 0]),
   midi.NoteOnEvent(tick=0, channel=9, data=[35, 127]),
   midi.NoteOnEvent(tick=30, channel=9, data=[38, 0]),
   midi.NoteOnEvent(tick=0, channel=9, data=[42, 0]),
   midi.NoteOnEvent(tick=0, channel=9, data=[35, 0]),
   midi.NoteOnEvent(tick=0, channel=9, data=[42, 127]),
   midi.NoteOnEvent(tick=0, channel=9, data=[36, 127]),
   midi.ControlChangeEvent(tick=20, channel=9, data=[7, 77]),
   midi.NoteOnEvent(tick=10, channel=9, data=[36, 0]),
   midi.NoteOnEvent(tick=0, channel=9, data=[35, 127]),
   midi.NoteOnEvent(tick=30, channel=9, data=[42, 0]),
   midi.NoteOnEvent(tick=0, channel=9, data=[35, 0]),
   midi.NoteOnEvent(tick=0, channel=9, data=[38, 127]),
   midi.NoteOnEvent(tick=0, channel=9, data=[42, 127]),
   midi.NoteOnEvent(tick=0, channel=9, data=[36, 127]),
   midi.ControlChangeEvent(tick=18, channel=9, data=[7, 76]),
   midi.NoteOnEvent(tick=12, channel=9, data=[36, 0]),
   midi.NoteOnEvent(tick=0, channel=9, data=[35, 127]),
   midi.NoteOnEvent(tick=30, channel=9, data=[38, 0]),
   midi.NoteOnEvent(tick=0, channel=9, data=[42, 0]),
   midi.NoteOnEvent(tick=0, channel=9, data=[35, 0]),
   midi.NoteOnEvent(tick=0, channel=9, data=[42, 127]),
   midi.NoteOnEvent(tick=0, channel=9, data=[36, 127]),
   midi.ControlChangeEvent(tick=16, channel=9, data=[7, 75]),
   midi.NoteOnEvent(tick=14, channel=9, data=[36, 0]),
   midi.NoteOnEvent(tick=0, channel=9, data=[35, 127]),
   midi.NoteOnEvent(tick=30, channel=9, data=[42, 0]),
   midi.NoteOnEvent(tick=0, channel=9, data=[35, 0]),
   midi.NoteOnEvent(tick=0, channel=9, data=[38, 127]),
   midi.NoteOnEvent(tick=0, channel=9, data=[42, 127]),
   midi.NoteOnEvent(tick=0, channel=9, data=[36, 127]),
   midi.ControlChangeEvent(tick=14, channel=9, data=[7, 74]),
   midi.NoteOnEvent(tick=16, channel=9, data=[36, 0]),
   midi.NoteOnEvent(tick=0, channel=9, data=[35, 127]),
   midi.NoteOnEvent(tick=30, channel=9, data=[38, 0]),
   midi.NoteOnEvent(tick=0, channel=9, data=[42, 0]),
   midi.NoteOnEvent(tick=0, channel=9, data=[35, 0]),
   midi.NoteOnEvent(tick=0, channel=9, data=[42, 127]),
   midi.NoteOnEvent(tick=0, channel=9, data=[36, 127]),
   midi.ControlChangeEvent(tick=12, channel=9, data=[7, 73]),
   midi.NoteOnEvent(tick=18, channel=9, data=[36, 0]),
   midi.NoteOnEvent(tick=0, channel=9, data=[35, 127]),
   midi.NoteOnEvent(tick=30, channel=9, data=[42, 0]),
   midi.NoteOnEvent(tick=0, channel=9, data=[35, 0]),
   midi.NoteOnEvent(tick=0, channel=9, data=[38, 127]),
   midi.NoteOnEvent(tick=0, channel=9, data=[42, 127]),
   midi.NoteOnEvent(tick=0, channel=9, data=[36, 127]),
   midi.ControlChangeEvent(tick=11, channel=9, data=[7, 72]),
   midi.NoteOnEvent(tick=19, channel=9, data=[36, 0]),
   midi.NoteOnEvent(tick=0, channel=9, data=[35, 127]),
   midi.NoteOnEvent(tick=30, channel=9, data=[38, 0]),
   midi.NoteOnEvent(tick=0, channel=9, data=[42, 0]),
   midi.NoteOnEvent(tick=0, channel=9, data=[35, 0]),
   midi.NoteOnEvent(tick=0, channel=9, data=[42, 127]),
   midi.NoteOnEvent(tick=0, channel=9, data=[36, 127]),
   midi.ControlChangeEvent(tick=9, channel=9, data=[7, 71]),
   midi.NoteOnEvent(tick=21, channel=9, data=[36, 0]),
   midi.NoteOnEvent(tick=0, channel=9, data=[35, 127]),
   midi.NoteOnEvent(tick=30, channel=9, data=[42, 0]),
   midi.NoteOnEvent(tick=0, channel=9, data=[35, 0]),
   midi.NoteOnEvent(tick=0, channel=9, data=[57, 127]),
   midi.NoteOnEvent(tick=0, channel=9, data=[38, 127]),
   midi.NoteOnEvent(tick=0, channel=9, data=[36, 127]),
   midi.ControlChangeEvent(tick=7, channel=9, data=[7, 70]),
   midi.NoteOnEvent(tick=23, channel=9, data=[36, 0]),
   midi.NoteOnEvent(tick=0, channel=9, data=[35, 127]),
   midi.NoteOnEvent(tick=30, channel=9, data=[57, 0]),
   midi.NoteOnEvent(tick=0, channel=9, data=[38, 0]),
   midi.NoteOnEvent(tick=0, channel=9, data=[35, 0]),
   midi.NoteOnEvent(tick=0, channel=9, data=[42, 127]),
   midi.NoteOnEvent(tick=0, channel=9, data=[36, 127]),
   midi.ControlChangeEvent(tick=5, channel=9, data=[7, 69]),
   midi.NoteOnEvent(tick=25, channel=9, data=[36, 0]),
   midi.NoteOnEvent(tick=0, channel=9, data=[35, 127]),
   midi.NoteOnEvent(tick=30, channel=9, data=[42, 0]),
   midi.NoteOnEvent(tick=0, channel=9, data=[35, 0]),
   midi.NoteOnEvent(tick=0, channel=9, data=[57, 127]),
   midi.NoteOnEvent(tick=0, channel=9, data=[38, 127]),
   midi.NoteOnEvent(tick=0, channel=9, data=[36, 127]),
   midi.ControlChangeEvent(tick=3, channel=9, data=[7, 68]),
   midi.NoteOnEvent(tick=27, channel=9, data=[36, 0]),
   midi.NoteOnEvent(tick=0, channel=9, data=[35, 127]),
   midi.NoteOnEvent(tick=30, channel=9, data=[57, 0]),
   midi.NoteOnEvent(tick=0, channel=9, data=[38, 0]),
   midi.NoteOnEvent(tick=0, channel=9, data=[35, 0]),
   midi.NoteOnEvent(tick=0, channel=9, data=[42, 127]),
   midi.NoteOnEvent(tick=0, channel=9, data=[36, 127]),
   midi.ControlChangeEvent(tick=1, channel=9, data=[7, 67]),
   midi.NoteOnEvent(tick=29, channel=9, data=[36, 0]),
   midi.NoteOnEvent(tick=0, channel=9, data=[35, 127]),
   midi.NoteOnEvent(tick=30, channel=9, data=[42, 0]),
   midi.NoteOnEvent(tick=0, channel=9, data=[35, 0]),
   midi.ControlChangeEvent(tick=0, channel=9, data=[7, 66]),
   midi.NoteOnEvent(tick=0, channel=9, data=[38, 127]),
   midi.NoteOnEvent(tick=0, channel=9, data=[57, 127]),
   midi.NoteOnEvent(tick=0, channel=9, data=[36, 127]),
   midi.NoteOnEvent(tick=30, channel=9, data=[36, 0]),
   midi.NoteOnEvent(tick=0, channel=9, data=[35, 127]),
   midi.ControlChangeEvent(tick=28, channel=9, data=[7, 65]),
   midi.NoteOnEvent(tick=2, channel=9, data=[38, 0]),
   midi.NoteOnEvent(tick=0, channel=9, data=[57, 0]),
   midi.NoteOnEvent(tick=0, channel=9, data=[35, 0]),
   midi.NoteOnEvent(tick=0, channel=9, data=[42, 127]),
   midi.NoteOnEvent(tick=0, channel=9, data=[36, 127]),
   midi.NoteOnEvent(tick=30, channel=9, data=[36, 0]),
   midi.NoteOnEvent(tick=0, channel=9, data=[35, 127]),
   midi.ControlChangeEvent(tick=26, channel=9, data=[7, 64]),
   midi.NoteOnEvent(tick=4, channel=9, data=[42, 0]),
   midi.NoteOnEvent(tick=0, channel=9, data=[35, 0]),
   midi.NoteOnEvent(tick=0, channel=9, data=[38, 127]),
   midi.NoteOnEvent(tick=0, channel=9, data=[42, 127]),
   midi.NoteOnEvent(tick=0, channel=9, data=[36, 127]),
   midi.NoteOnEvent(tick=30, channel=9, data=[36, 0]),
   midi.NoteOnEvent(tick=0, channel=9, data=[35, 127]),
   midi.ControlChangeEvent(tick=24, channel=9, data=[7, 63]),
   midi.NoteOnEvent(tick=6, channel=9, data=[38, 0]),
   midi.NoteOnEvent(tick=0, channel=9, data=[42, 0]),
   midi.NoteOnEvent(tick=0, channel=9, data=[35, 0]),
   midi.NoteOnEvent(tick=0, channel=9, data=[42, 127]),
   midi.NoteOnEvent(tick=0, channel=9, data=[36, 127]),
   midi.NoteOnEvent(tick=30, channel=9, data=[36, 0]),
   midi.NoteOnEvent(tick=0, channel=9, data=[35, 127]),
   midi.ControlChangeEvent(tick=22, channel=9, data=[7, 62]),
   midi.NoteOnEvent(tick=8, channel=9, data=[42, 0]),
   midi.NoteOnEvent(tick=0, channel=9, data=[35, 0]),
   midi.NoteOnEvent(tick=0, channel=9, data=[38, 127]),
   midi.NoteOnEvent(tick=0, channel=9, data=[42, 127]),
   midi.NoteOnEvent(tick=0, channel=9, data=[36, 127]),
   midi.NoteOnEvent(tick=30, channel=9, data=[36, 0]),
   midi.NoteOnEvent(tick=0, channel=9, data=[35, 127]),
   midi.ControlChangeEvent(tick=21, channel=9, data=[7, 61]),
   midi.NoteOnEvent(tick=9, channel=9, data=[38, 0]),
   midi.NoteOnEvent(tick=0, channel=9, data=[42, 0]),
   midi.NoteOnEvent(tick=0, channel=9, data=[35, 0]),
   midi.NoteOnEvent(tick=0, channel=9, data=[42, 127]),
   midi.NoteOnEvent(tick=0, channel=9, data=[36, 127]),
   midi.NoteOnEvent(tick=30, channel=9, data=[36, 0]),
   midi.NoteOnEvent(tick=0, channel=9, data=[35, 127]),
   midi.ControlChangeEvent(tick=19, channel=9, data=[7, 60]),
   midi.NoteOnEvent(tick=11, channel=9, data=[42, 0]),
   midi.NoteOnEvent(tick=0, channel=9, data=[35, 0]),
   midi.NoteOnEvent(tick=0, channel=9, data=[38, 127]),
   midi.NoteOnEvent(tick=0, channel=9, data=[42, 127]),
   midi.NoteOnEvent(tick=0, channel=9, data=[36, 127]),
   midi.NoteOnEvent(tick=30, channel=9, data=[36, 0]),
   midi.NoteOnEvent(tick=0, channel=9, data=[35, 127]),
   midi.ControlChangeEvent(tick=17, channel=9, data=[7, 59]),
   midi.NoteOnEvent(tick=13, channel=9, data=[38, 0]),
   midi.NoteOnEvent(tick=0, channel=9, data=[42, 0]),
   midi.NoteOnEvent(tick=0, channel=9, data=[35, 0]),
   midi.NoteOnEvent(tick=0, channel=9, data=[42, 127]),
   midi.NoteOnEvent(tick=0, channel=9, data=[36, 127]),
   midi.NoteOnEvent(tick=30, channel=9, data=[36, 0]),
   midi.NoteOnEvent(tick=0, channel=9, data=[35, 127]),
   midi.ControlChangeEvent(tick=15, channel=9, data=[7, 58]),
   midi.NoteOnEvent(tick=15, channel=9, data=[42, 0]),
   midi.NoteOnEvent(tick=0, channel=9, data=[35, 0]),
   midi.NoteOnEvent(tick=0, channel=9, data=[38, 127]),
   midi.NoteOnEvent(tick=0, channel=9, data=[42, 127]),
   midi.NoteOnEvent(tick=0, channel=9, data=[36, 127]),
   midi.NoteOnEvent(tick=30, channel=9, data=[36, 0]),
   midi.NoteOnEvent(tick=0, channel=9, data=[35, 127]),
   midi.ControlChangeEvent(tick=13, channel=9, data=[7, 57]),
   midi.NoteOnEvent(tick=17, channel=9, data=[38, 0]),
   midi.NoteOnEvent(tick=0, channel=9, data=[42, 0]),
   midi.NoteOnEvent(tick=0, channel=9, data=[35, 0]),
   midi.NoteOnEvent(tick=0, channel=9, data=[42, 127]),
   midi.NoteOnEvent(tick=0, channel=9, data=[36, 127]),
   midi.NoteOnEvent(tick=30, channel=9, data=[36, 0]),
   midi.NoteOnEvent(tick=0, channel=9, data=[35, 127]),
   midi.ControlChangeEvent(tick=11, channel=9, data=[7, 56]),
   midi.NoteOnEvent(tick=19, channel=9, data=[42, 0]),
   midi.NoteOnEvent(tick=0, channel=9, data=[35, 0]),
   midi.NoteOnEvent(tick=0, channel=9, data=[42, 127]),
   midi.NoteOnEvent(tick=0, channel=9, data=[38, 127]),
   midi.NoteOnEvent(tick=0, channel=9, data=[36, 127]),
   midi.NoteOnEvent(tick=30, channel=9, data=[36, 0]),
   midi.NoteOnEvent(tick=0, channel=9, data=[35, 127]),
   midi.ControlChangeEvent(tick=10, channel=9, data=[7, 55]),
   midi.NoteOnEvent(tick=20, channel=9, data=[42, 0]),
   midi.NoteOnEvent(tick=0, channel=9, data=[38, 0]),
   midi.NoteOnEvent(tick=0, channel=9, data=[35, 0]),
   midi.NoteOnEvent(tick=0, channel=9, data=[42, 127]),
   midi.NoteOnEvent(tick=0, channel=9, data=[36, 127]),
   midi.NoteOnEvent(tick=30, channel=9, data=[36, 0]),
   midi.NoteOnEvent(tick=0, channel=9, data=[35, 127]),
   midi.ControlChangeEvent(tick=8, channel=9, data=[7, 54]),
   midi.NoteOnEvent(tick=22, channel=9, data=[42, 0]),
   midi.NoteOnEvent(tick=0, channel=9, data=[35, 0]),
   midi.NoteOnEvent(tick=0, channel=9, data=[38, 127]),
   midi.NoteOnEvent(tick=0, channel=9, data=[42, 127]),
   midi.NoteOnEvent(tick=0, channel=9, data=[36, 127]),
   midi.NoteOnEvent(tick=30, channel=9, data=[36, 0]),
   midi.NoteOnEvent(tick=0, channel=9, data=[35, 127]),
   midi.ControlChangeEvent(tick=6, channel=9, data=[7, 53]),
   midi.NoteOnEvent(tick=24, channel=9, data=[35, 0]),
   midi.NoteOnEvent(tick=0, channel=9, data=[36, 127]),
   midi.NoteOnEvent(tick=30, channel=9, data=[36, 0]),
   midi.NoteOnEvent(tick=0, channel=9, data=[35, 127]),
   midi.ControlChangeEvent(tick=4, channel=9, data=[7, 52]),
   midi.NoteOnEvent(tick=26, channel=9, data=[38, 0]),
   midi.NoteOnEvent(tick=0, channel=9, data=[42, 0]),
   midi.NoteOnEvent(tick=0, channel=9, data=[35, 0]),
   midi.NoteOnEvent(tick=0, channel=9, data=[57, 127]),
   midi.NoteOnEvent(tick=0, channel=9, data=[38, 127]),
   midi.NoteOnEvent(tick=0, channel=9, data=[36, 127]),
   midi.NoteOnEvent(tick=30, channel=9, data=[36, 0]),
   midi.NoteOnEvent(tick=0, channel=9, data=[35, 127]),
   midi.ControlChangeEvent(tick=2, channel=9, data=[7, 51]),
   midi.NoteOnEvent(tick=28, channel=9, data=[57, 0]),
   midi.NoteOnEvent(tick=0, channel=9, data=[38, 0]),
   midi.NoteOnEvent(tick=0, channel=9, data=[35, 0]),
   midi.NoteOnEvent(tick=0, channel=9, data=[57, 127]),
   midi.NoteOnEvent(tick=0, channel=9, data=[38, 127]),
   midi.NoteOnEvent(tick=0, channel=9, data=[36, 127]),
   midi.NoteOnEvent(tick=30, channel=9, data=[36, 0]),
   midi.ControlChangeEvent(tick=0, channel=9, data=[7, 50]),
   midi.NoteOnEvent(tick=0, channel=9, data=[35, 127]),
   midi.NoteOnEvent(tick=30, channel=9, data=[57, 0]),
   midi.NoteOnEvent(tick=0, channel=9, data=[38, 0]),
   midi.NoteOnEvent(tick=0, channel=9, data=[35, 0]),
   midi.NoteOnEvent(tick=0, channel=9, data=[38, 127]),
   midi.NoteOnEvent(tick=0, channel=9, data=[57, 127]),
   midi.NoteOnEvent(tick=0, channel=9, data=[36, 127]),
   midi.ControlChangeEvent(tick=29, channel=9, data=[7, 49]),
   midi.NoteOnEvent(tick=1, channel=9, data=[36, 0]),
   midi.NoteOnEvent(tick=0, channel=9, data=[35, 127]),
   midi.NoteOnEvent(tick=30, channel=9, data=[38, 0]),
   midi.NoteOnEvent(tick=0, channel=9, data=[57, 0]),
   midi.NoteOnEvent(tick=0, channel=9, data=[35, 0]),
   midi.NoteOnEvent(tick=0, channel=9, data=[42, 127]),
   midi.NoteOnEvent(tick=0, channel=9, data=[36, 127]),
   midi.ControlChangeEvent(tick=27, channel=9, data=[7, 48]),
   midi.NoteOnEvent(tick=3, channel=9, data=[36, 0]),
   midi.NoteOnEvent(tick=0, channel=9, data=[35, 127]),
   midi.NoteOnEvent(tick=30, channel=9, data=[42, 0]),
   midi.NoteOnEvent(tick=0, channel=9, data=[35, 0]),
   midi.NoteOnEvent(tick=0, channel=9, data=[38, 127]),
   midi.NoteOnEvent(tick=0, channel=9, data=[42, 127]),
   midi.NoteOnEvent(tick=0, channel=9, data=[36, 127]),
   midi.ControlChangeEvent(tick=25, channel=9, data=[7, 47]),
   midi.NoteOnEvent(tick=5, channel=9, data=[36, 0]),
   midi.NoteOnEvent(tick=0, channel=9, data=[35, 127]),
   midi.NoteOnEvent(tick=30, channel=9, data=[38, 0]),
   midi.NoteOnEvent(tick=0, channel=9, data=[42, 0]),
   midi.NoteOnEvent(tick=0, channel=9, data=[35, 0]),
   midi.NoteOnEvent(tick=0, channel=9, data=[42, 127]),
   midi.NoteOnEvent(tick=0, channel=9, data=[36, 127]),
   midi.ControlChangeEvent(tick=23, channel=9, data=[7, 46]),
   midi.NoteOnEvent(tick=7, channel=9, data=[36, 0]),
   midi.NoteOnEvent(tick=0, channel=9, data=[35, 127]),
   midi.NoteOnEvent(tick=30, channel=9, data=[42, 0]),
   midi.NoteOnEvent(tick=0, channel=9, data=[35, 0]),
   midi.NoteOnEvent(tick=0, channel=9, data=[38, 127]),
   midi.NoteOnEvent(tick=0, channel=9, data=[42, 127]),
   midi.NoteOnEvent(tick=0, channel=9, data=[36, 127]),
   midi.ControlChangeEvent(tick=21, channel=9, data=[7, 45]),
   midi.NoteOnEvent(tick=9, channel=9, data=[36, 0]),
   midi.NoteOnEvent(tick=0, channel=9, data=[35, 127]),
   midi.NoteOnEvent(tick=30, channel=9, data=[38, 0]),
   midi.NoteOnEvent(tick=0, channel=9, data=[42, 0]),
   midi.NoteOnEvent(tick=0, channel=9, data=[35, 0]),
   midi.NoteOnEvent(tick=0, channel=9, data=[42, 127]),
   midi.NoteOnEvent(tick=0, channel=9, data=[36, 127]),
   midi.ControlChangeEvent(tick=19, channel=9, data=[7, 44]),
   midi.NoteOnEvent(tick=11, channel=9, data=[36, 0]),
   midi.NoteOnEvent(tick=0, channel=9, data=[35, 127]),
   midi.NoteOnEvent(tick=30, channel=9, data=[42, 0]),
   midi.NoteOnEvent(tick=0, channel=9, data=[35, 0]),
   midi.NoteOnEvent(tick=0, channel=9, data=[38, 127]),
   midi.NoteOnEvent(tick=0, channel=9, data=[42, 127]),
   midi.NoteOnEvent(tick=0, channel=9, data=[36, 127]),
   midi.ControlChangeEvent(tick=18, channel=9, data=[7, 43]),
   midi.NoteOnEvent(tick=12, channel=9, data=[36, 0]),
   midi.NoteOnEvent(tick=0, channel=9, data=[35, 127]),
   midi.NoteOnEvent(tick=30, channel=9, data=[38, 0]),
   midi.NoteOnEvent(tick=0, channel=9, data=[42, 0]),
   midi.NoteOnEvent(tick=0, channel=9, data=[35, 0]),
   midi.NoteOnEvent(tick=0, channel=9, data=[42, 127]),
   midi.NoteOnEvent(tick=0, channel=9, data=[36, 127]),
   midi.ControlChangeEvent(tick=16, channel=9, data=[7, 42]),
   midi.NoteOnEvent(tick=14, channel=9, data=[36, 0]),
   midi.NoteOnEvent(tick=0, channel=9, data=[35, 127]),
   midi.NoteOnEvent(tick=30, channel=9, data=[42, 0]),
   midi.NoteOnEvent(tick=0, channel=9, data=[35, 0]),
   midi.NoteOnEvent(tick=0, channel=9, data=[38, 127]),
   midi.NoteOnEvent(tick=0, channel=9, data=[42, 127]),
   midi.NoteOnEvent(tick=0, channel=9, data=[36, 127]),
   midi.ControlChangeEvent(tick=14, channel=9, data=[7, 41]),
   midi.NoteOnEvent(tick=16, channel=9, data=[36, 0]),
   midi.NoteOnEvent(tick=0, channel=9, data=[35, 127]),
   midi.NoteOnEvent(tick=30, channel=9, data=[38, 0]),
   midi.NoteOnEvent(tick=0, channel=9, data=[42, 0]),
   midi.NoteOnEvent(tick=0, channel=9, data=[35, 0]),
   midi.NoteOnEvent(tick=0, channel=9, data=[42, 127]),
   midi.NoteOnEvent(tick=0, channel=9, data=[36, 127]),
   midi.ControlChangeEvent(tick=12, channel=9, data=[7, 40]),
   midi.NoteOnEvent(tick=18, channel=9, data=[36, 0]),
   midi.NoteOnEvent(tick=0, channel=9, data=[35, 127]),
   midi.NoteOnEvent(tick=30, channel=9, data=[42, 0]),
   midi.NoteOnEvent(tick=0, channel=9, data=[35, 0]),
   midi.NoteOnEvent(tick=0, channel=9, data=[57, 127]),
   midi.NoteOnEvent(tick=0, channel=9, data=[38, 127]),
   midi.NoteOnEvent(tick=0, channel=9, data=[36, 127]),
   midi.ControlChangeEvent(tick=10, channel=9, data=[7, 39]),
   midi.NoteOnEvent(tick=20, channel=9, data=[36, 0]),
   midi.NoteOnEvent(tick=0, channel=9, data=[35, 127]),
   midi.NoteOnEvent(tick=30, channel=9, data=[57, 0]),
   midi.NoteOnEvent(tick=0, channel=9, data=[38, 0]),
   midi.NoteOnEvent(tick=0, channel=9, data=[35, 0]),
   midi.NoteOnEvent(tick=0, channel=9, data=[42, 127]),
   midi.NoteOnEvent(tick=0, channel=9, data=[36, 127]),
   midi.ControlChangeEvent(tick=8, channel=9, data=[7, 38]),
   midi.NoteOnEvent(tick=22, channel=9, data=[36, 0]),
   midi.NoteOnEvent(tick=0, channel=9, data=[35, 127]),
   midi.NoteOnEvent(tick=30, channel=9, data=[42, 0]),
   midi.NoteOnEvent(tick=0, channel=9, data=[35, 0]),
   midi.NoteOnEvent(tick=0, channel=9, data=[57, 127]),
   midi.NoteOnEvent(tick=0, channel=9, data=[38, 127]),
   midi.NoteOnEvent(tick=0, channel=9, data=[36, 127]),
   midi.ControlChangeEvent(tick=7, channel=9, data=[7, 37]),
   midi.NoteOnEvent(tick=23, channel=9, data=[36, 0]),
   midi.NoteOnEvent(tick=0, channel=9, data=[35, 127]),
   midi.NoteOnEvent(tick=30, channel=9, data=[57, 0]),
   midi.NoteOnEvent(tick=0, channel=9, data=[38, 0]),
   midi.NoteOnEvent(tick=0, channel=9, data=[35, 0]),
   midi.NoteOnEvent(tick=0, channel=9, data=[42, 127]),
   midi.NoteOnEvent(tick=0, channel=9, data=[36, 127]),
   midi.ControlChangeEvent(tick=5, channel=9, data=[7, 36]),
   midi.NoteOnEvent(tick=25, channel=9, data=[36, 0]),
   midi.NoteOnEvent(tick=0, channel=9, data=[35, 127]),
   midi.NoteOnEvent(tick=30, channel=9, data=[42, 0]),
   midi.NoteOnEvent(tick=0, channel=9, data=[35, 0]),
   midi.NoteOnEvent(tick=0, channel=9, data=[57, 127]),
   midi.NoteOnEvent(tick=0, channel=9, data=[38, 127]),
   midi.NoteOnEvent(tick=0, channel=9, data=[36, 127]),
   midi.ControlChangeEvent(tick=3, channel=9, data=[7, 35]),
   midi.NoteOnEvent(tick=27, channel=9, data=[36, 0]),
   midi.NoteOnEvent(tick=0, channel=9, data=[35, 127]),
   midi.NoteOnEvent(tick=30, channel=9, data=[57, 0]),
   midi.NoteOnEvent(tick=0, channel=9, data=[38, 0]),
   midi.NoteOnEvent(tick=0, channel=9, data=[35, 0]),
   midi.NoteOnEvent(tick=0, channel=9, data=[57, 127]),
   midi.NoteOnEvent(tick=0, channel=9, data=[38, 127]),
   midi.NoteOnEvent(tick=0, channel=9, data=[36, 127]),
   midi.ControlChangeEvent(tick=1, channel=9, data=[7, 34]),
   midi.NoteOnEvent(tick=29, channel=9, data=[36, 0]),
   midi.NoteOnEvent(tick=0, channel=9, data=[35, 127]),
   midi.ControlChangeEvent(tick=29, channel=9, data=[7, 33]),
   midi.NoteOnEvent(tick=1, channel=9, data=[57, 0]),
   midi.NoteOnEvent(tick=0, channel=9, data=[38, 0]),
   midi.NoteOnEvent(tick=0, channel=9, data=[35, 0]),
   midi.NoteOnEvent(tick=0, channel=9, data=[38, 127]),
   midi.NoteOnEvent(tick=0, channel=9, data=[57, 127]),
   midi.NoteOnEvent(tick=0, channel=9, data=[36, 127]),
   midi.NoteOnEvent(tick=30, channel=9, data=[36, 0]),
   midi.NoteOnEvent(tick=0, channel=9, data=[35, 127]),
   midi.ControlChangeEvent(tick=28, channel=9, data=[7, 32]),
   midi.NoteOnEvent(tick=2, channel=9, data=[38, 0]),
   midi.NoteOnEvent(tick=0, channel=9, data=[57, 0]),
   midi.NoteOnEvent(tick=0, channel=9, data=[35, 0]),
   midi.NoteOnEvent(tick=0, channel=9, data=[42, 127]),
   midi.NoteOnEvent(tick=0, channel=9, data=[36, 127]),
   midi.NoteOnEvent(tick=30, channel=9, data=[36, 0]),
   midi.NoteOnEvent(tick=0, channel=9, data=[35, 127]),
   midi.ControlChangeEvent(tick=26, channel=9, data=[7, 31]),
   midi.NoteOnEvent(tick=4, channel=9, data=[42, 0]),
   midi.NoteOnEvent(tick=0, channel=9, data=[35, 0]),
   midi.NoteOnEvent(tick=0, channel=9, data=[38, 127]),
   midi.NoteOnEvent(tick=0, channel=9, data=[42, 127]),
   midi.NoteOnEvent(tick=0, channel=9, data=[36, 127]),
   midi.NoteOnEvent(tick=30, channel=9, data=[36, 0]),
   midi.NoteOnEvent(tick=0, channel=9, data=[35, 127]),
   midi.ControlChangeEvent(tick=24, channel=9, data=[7, 30]),
   midi.NoteOnEvent(tick=6, channel=9, data=[38, 0]),
   midi.NoteOnEvent(tick=0, channel=9, data=[42, 0]),
   midi.NoteOnEvent(tick=0, channel=9, data=[35, 0]),
   midi.NoteOnEvent(tick=0, channel=9, data=[42, 127]),
   midi.NoteOnEvent(tick=0, channel=9, data=[36, 127]),
   midi.NoteOnEvent(tick=30, channel=9, data=[36, 0]),
   midi.NoteOnEvent(tick=0, channel=9, data=[35, 127]),
   midi.ControlChangeEvent(tick=22, channel=9, data=[7, 29]),
   midi.NoteOnEvent(tick=8, channel=9, data=[42, 0]),
   midi.NoteOnEvent(tick=0, channel=9, data=[35, 0]),
   midi.NoteOnEvent(tick=0, channel=9, data=[38, 127]),
   midi.NoteOnEvent(tick=0, channel=9, data=[42, 127]),
   midi.NoteOnEvent(tick=0, channel=9, data=[36, 127]),
   midi.NoteOnEvent(tick=30, channel=9, data=[36, 0]),
   midi.NoteOnEvent(tick=0, channel=9, data=[35, 127]),
   midi.ControlChangeEvent(tick=20, channel=9, data=[7, 28]),
   midi.NoteOnEvent(tick=10, channel=9, data=[38, 0]),
   midi.NoteOnEvent(tick=0, channel=9, data=[42, 0]),
   midi.NoteOnEvent(tick=0, channel=9, data=[35, 0]),
   midi.NoteOnEvent(tick=0, channel=9, data=[42, 127]),
   midi.NoteOnEvent(tick=0, channel=9, data=[36, 127]),
   midi.NoteOnEvent(tick=30, channel=9, data=[42, 0]),
   midi.NoteOnEvent(tick=0, channel=9, data=[36, 0]),
   midi.NoteOnEvent(tick=0, channel=9, data=[38, 127]),
   midi.NoteOnEvent(tick=0, channel=9, data=[35, 127]),
   midi.ControlChangeEvent(tick=18, channel=9, data=[7, 27]),
   midi.NoteOnEvent(tick=12, channel=9, data=[38, 0]),
   midi.NoteOnEvent(tick=0, channel=9, data=[35, 0]),
   midi.NoteOnEvent(tick=0, channel=9, data=[38, 127]),
   midi.NoteOnEvent(tick=0, channel=9, data=[36, 127]),
   midi.NoteOnEvent(tick=30, channel=9, data=[36, 0]),
   midi.NoteOnEvent(tick=0, channel=9, data=[35, 127]),
   midi.ControlChangeEvent(tick=17, channel=9, data=[7, 26]),
   midi.NoteOnEvent(tick=13, channel=9, data=[38, 0]),
   midi.NoteOnEvent(tick=0, channel=9, data=[35, 0]),
   midi.NoteOnEvent(tick=0, channel=9, data=[38, 127]),
   midi.NoteOnEvent(tick=0, channel=9, data=[36, 127]),
   midi.NoteOnEvent(tick=30, channel=9, data=[36, 0]),
   midi.NoteOnEvent(tick=0, channel=9, data=[35, 127]),
   midi.ControlChangeEvent(tick=15, channel=9, data=[7, 25]),
   midi.NoteOnEvent(tick=15, channel=9, data=[38, 0]),
   midi.NoteOnEvent(tick=0, channel=9, data=[35, 0]),
   midi.NoteOnEvent(tick=0, channel=9, data=[38, 127]),
   midi.NoteOnEvent(tick=0, channel=9, data=[36, 127]),
   midi.NoteOnEvent(tick=30, channel=9, data=[38, 0]),
   midi.NoteOnEvent(tick=0, channel=9, data=[36, 0]),
   midi.NoteOnEvent(tick=0, channel=9, data=[38, 127]),
   midi.NoteOnEvent(tick=0, channel=9, data=[35, 127]),
   midi.ControlChangeEvent(tick=13, channel=9, data=[7, 24]),
   midi.NoteOnEvent(tick=17, channel=9, data=[38, 0]),
   midi.NoteOnEvent(tick=0, channel=9, data=[35, 0]),
   midi.NoteOnEvent(tick=0, channel=9, data=[38, 127]),
   midi.NoteOnEvent(tick=0, channel=9, data=[36, 127]),
   midi.NoteOnEvent(tick=30, channel=9, data=[38, 0]),
   midi.NoteOnEvent(tick=0, channel=9, data=[36, 0]),
   midi.NoteOnEvent(tick=0, channel=9, data=[38, 127]),
   midi.NoteOnEvent(tick=0, channel=9, data=[35, 127]),
   midi.ControlChangeEvent(tick=11, channel=9, data=[7, 23]),
   midi.NoteOnEvent(tick=19, channel=9, data=[38, 0]),
   midi.NoteOnEvent(tick=0, channel=9, data=[35, 0]),
   midi.NoteOnEvent(tick=0, channel=9, data=[45, 127]),
   midi.NoteOnEvent(tick=0, channel=9, data=[36, 127]),
   midi.NoteOnEvent(tick=30, channel=9, data=[36, 0]),
   midi.NoteOnEvent(tick=0, channel=9, data=[35, 127]),
   midi.ControlChangeEvent(tick=9, channel=9, data=[7, 22]),
   midi.NoteOnEvent(tick=21, channel=9, data=[45, 0]),
   midi.NoteOnEvent(tick=0, channel=9, data=[35, 0]),
   midi.NoteOnEvent(tick=0, channel=9, data=[45, 127]),
   midi.NoteOnEvent(tick=0, channel=9, data=[36, 127]),
   midi.NoteOnEvent(tick=30, channel=9, data=[36, 0]),
   midi.NoteOnEvent(tick=0, channel=9, data=[35, 127]),
   midi.ControlChangeEvent(tick=7, channel=9, data=[7, 21]),
   midi.NoteOnEvent(tick=23, channel=9, data=[45, 0]),
   midi.NoteOnEvent(tick=0, channel=9, data=[35, 0]),
   midi.NoteOnEvent(tick=0, channel=9, data=[45, 127]),
   midi.NoteOnEvent(tick=0, channel=9, data=[36, 127]),
   midi.NoteOnEvent(tick=30, channel=9, data=[45, 0]),
   midi.NoteOnEvent(tick=0, channel=9, data=[36, 0]),
   midi.NoteOnEvent(tick=0, channel=9, data=[45, 127]),
   midi.NoteOnEvent(tick=0, channel=9, data=[35, 127]),
   midi.ControlChangeEvent(tick=6, channel=9, data=[7, 20]),
   midi.NoteOnEvent(tick=24, channel=9, data=[45, 0]),
   midi.NoteOnEvent(tick=0, channel=9, data=[35, 0]),
   midi.NoteOnEvent(tick=0, channel=9, data=[45, 127]),
   midi.NoteOnEvent(tick=0, channel=9, data=[36, 127]),
   midi.NoteOnEvent(tick=30, channel=9, data=[36, 0]),
   midi.NoteOnEvent(tick=0, channel=9, data=[35, 127]),
   midi.ControlChangeEvent(tick=4, channel=9, data=[7, 19]),
   midi.NoteOnEvent(tick=26, channel=9, data=[45, 0]),
   midi.NoteOnEvent(tick=0, channel=9, data=[35, 0]),
   midi.NoteOnEvent(tick=0, channel=9, data=[45, 127]),
   midi.NoteOnEvent(tick=0, channel=9, data=[36, 127]),
   midi.NoteOnEvent(tick=30, channel=9, data=[45, 0]),
   midi.NoteOnEvent(tick=0, channel=9, data=[36, 0]),
   midi.NoteOnEvent(tick=0, channel=9, data=[45, 127]),
   midi.NoteOnEvent(tick=0, channel=9, data=[35, 127]),
   midi.ControlChangeEvent(tick=2, channel=9, data=[7, 18]),
   midi.NoteOnEvent(tick=28, channel=9, data=[45, 0]),
   midi.NoteOnEvent(tick=0, channel=9, data=[35, 0]),
   midi.NoteOnEvent(tick=0, channel=9, data=[45, 127]),
   midi.NoteOnEvent(tick=0, channel=9, data=[36, 127]),
   midi.NoteOnEvent(tick=30, channel=9, data=[36, 0]),
   midi.ControlChangeEvent(tick=0, channel=9, data=[7, 17]),
   midi.NoteOnEvent(tick=0, channel=9, data=[35, 127]),
   midi.NoteOnEvent(tick=30, channel=9, data=[45, 0]),
   midi.NoteOnEvent(tick=0, channel=9, data=[35, 0]),
   midi.NoteOnEvent(tick=0, channel=9, data=[57, 127]),
   midi.NoteOnEvent(tick=0, channel=9, data=[38, 127]),
   midi.NoteOnEvent(tick=0, channel=9, data=[36, 127]),
   midi.ControlChangeEvent(tick=28, channel=9, data=[7, 16]),
   midi.NoteOnEvent(tick=2, channel=9, data=[36, 0]),
   midi.NoteOnEvent(tick=0, channel=9, data=[35, 127]),
   midi.NoteOnEvent(tick=30, channel=9, data=[57, 0]),
   midi.NoteOnEvent(tick=0, channel=9, data=[38, 0]),
   midi.NoteOnEvent(tick=0, channel=9, data=[35, 0]),
   midi.NoteOnEvent(tick=0, channel=9, data=[42, 127]),
   midi.NoteOnEvent(tick=0, channel=9, data=[36, 127]),
   midi.ControlChangeEvent(tick=26, channel=9, data=[7, 15]),
   midi.NoteOnEvent(tick=4, channel=9, data=[36, 0]),
   midi.NoteOnEvent(tick=0, channel=9, data=[35, 127]),
   midi.NoteOnEvent(tick=30, channel=9, data=[42, 0]),
   midi.NoteOnEvent(tick=0, channel=9, data=[35, 0]),
   midi.NoteOnEvent(tick=0, channel=9, data=[38, 127]),
   midi.NoteOnEvent(tick=0, channel=9, data=[42, 127]),
   midi.NoteOnEvent(tick=0, channel=9, data=[36, 127]),
   midi.ControlChangeEvent(tick=25, channel=9, data=[7, 14]),
   midi.NoteOnEvent(tick=5, channel=9, data=[36, 0]),
   midi.NoteOnEvent(tick=0, channel=9, data=[35, 127]),
   midi.NoteOnEvent(tick=30, channel=9, data=[38, 0]),
   midi.NoteOnEvent(tick=0, channel=9, data=[42, 0]),
   midi.NoteOnEvent(tick=0, channel=9, data=[35, 0]),
   midi.NoteOnEvent(tick=0, channel=9, data=[42, 127]),
   midi.NoteOnEvent(tick=0, channel=9, data=[36, 127]),
   midi.ControlChangeEvent(tick=23, channel=9, data=[7, 13]),
   midi.NoteOnEvent(tick=7, channel=9, data=[36, 0]),
   midi.NoteOnEvent(tick=0, channel=9, data=[35, 127]),
   midi.NoteOnEvent(tick=30, channel=9, data=[42, 0]),
   midi.NoteOnEvent(tick=0, channel=9, data=[35, 0]),
   midi.NoteOnEvent(tick=0, channel=9, data=[38, 127]),
   midi.NoteOnEvent(tick=0, channel=9, data=[42, 127]),
   midi.NoteOnEvent(tick=0, channel=9, data=[36, 127]),
   midi.ControlChangeEvent(tick=21, channel=9, data=[7, 12]),
   midi.NoteOnEvent(tick=9, channel=9, data=[36, 0]),
   midi.NoteOnEvent(tick=0, channel=9, data=[35, 127]),
   midi.NoteOnEvent(tick=30, channel=9, data=[38, 0]),
   midi.NoteOnEvent(tick=0, channel=9, data=[42, 0]),
   midi.NoteOnEvent(tick=0, channel=9, data=[35, 0]),
   midi.NoteOnEvent(tick=0, channel=9, data=[42, 127]),
   midi.NoteOnEvent(tick=0, channel=9, data=[36, 127]),
   midi.ControlChangeEvent(tick=19, channel=9, data=[7, 11]),
   midi.NoteOnEvent(tick=11, channel=9, data=[36, 0]),
   midi.NoteOnEvent(tick=0, channel=9, data=[35, 127]),
   midi.NoteOnEvent(tick=30, channel=9, data=[42, 0]),
   midi.NoteOnEvent(tick=0, channel=9, data=[35, 0]),
   midi.NoteOnEvent(tick=0, channel=9, data=[38, 127]),
   midi.NoteOnEvent(tick=0, channel=9, data=[42, 127]),
   midi.NoteOnEvent(tick=0, channel=9, data=[36, 127]),
   midi.ControlChangeEvent(tick=17, channel=9, data=[7, 10]),
   midi.NoteOnEvent(tick=13, channel=9, data=[36, 0]),
   midi.NoteOnEvent(tick=0, channel=9, data=[35, 127]),
   midi.NoteOnEvent(tick=30, channel=9, data=[38, 0]),
   midi.NoteOnEvent(tick=0, channel=9, data=[42, 0]),
   midi.NoteOnEvent(tick=0, channel=9, data=[35, 0]),
   midi.NoteOnEvent(tick=0, channel=9, data=[42, 127]),
   midi.NoteOnEvent(tick=0, channel=9, data=[36, 127]),
   midi.ControlChangeEvent(tick=15, channel=9, data=[7, 9]),
   midi.NoteOnEvent(tick=15, channel=9, data=[36, 0]),
   midi.NoteOnEvent(tick=0, channel=9, data=[35, 127]),
   midi.NoteOnEvent(tick=30, channel=9, data=[42, 0]),
   midi.NoteOnEvent(tick=0, channel=9, data=[35, 0]),
   midi.NoteOnEvent(tick=0, channel=9, data=[38, 127]),
   midi.NoteOnEvent(tick=0, channel=9, data=[42, 127]),
   midi.NoteOnEvent(tick=0, channel=9, data=[36, 127]),
   midi.ControlChangeEvent(tick=14, channel=9, data=[7, 8]),
   midi.NoteOnEvent(tick=16, channel=9, data=[36, 0]),
   midi.NoteOnEvent(tick=0, channel=9, data=[35, 127]),
   midi.NoteOnEvent(tick=30, channel=9, data=[38, 0]),
   midi.NoteOnEvent(tick=0, channel=9, data=[42, 0]),
   midi.NoteOnEvent(tick=0, channel=9, data=[35, 0]),
   midi.NoteOnEvent(tick=0, channel=9, data=[42, 127]),
   midi.NoteOnEvent(tick=0, channel=9, data=[36, 127]),
   midi.ControlChangeEvent(tick=12, channel=9, data=[7, 7]),
   midi.NoteOnEvent(tick=18, channel=9, data=[36, 0]),
   midi.NoteOnEvent(tick=0, channel=9, data=[35, 127]),
   midi.NoteOnEvent(tick=30, channel=9, data=[42, 0]),
   midi.NoteOnEvent(tick=0, channel=9, data=[35, 0]),
   midi.NoteOnEvent(tick=0, channel=9, data=[57, 127]),
   midi.NoteOnEvent(tick=0, channel=9, data=[38, 127]),
   midi.NoteOnEvent(tick=0, channel=9, data=[36, 127]),
   midi.ControlChangeEvent(tick=10, channel=9, data=[7, 6]),
   midi.NoteOnEvent(tick=20, channel=9, data=[36, 0]),
   midi.NoteOnEvent(tick=0, channel=9, data=[35, 127]),
   midi.NoteOnEvent(tick=30, channel=9, data=[57, 0]),
   midi.NoteOnEvent(tick=0, channel=9, data=[38, 0]),
   midi.NoteOnEvent(tick=0, channel=9, data=[35, 0]),
   midi.NoteOnEvent(tick=0, channel=9, data=[42, 127]),
   midi.NoteOnEvent(tick=0, channel=9, data=[36, 127]),
   midi.ControlChangeEvent(tick=8, channel=9, data=[7, 5]),
   midi.NoteOnEvent(tick=22, channel=9, data=[36, 0]),
   midi.NoteOnEvent(tick=0, channel=9, data=[35, 127]),
   midi.NoteOnEvent(tick=30, channel=9, data=[42, 0]),
   midi.NoteOnEvent(tick=0, channel=9, data=[35, 0]),
   midi.NoteOnEvent(tick=0, channel=9, data=[38, 127]),
   midi.NoteOnEvent(tick=0, channel=9, data=[57, 127]),
   midi.NoteOnEvent(tick=0, channel=9, data=[36, 127]),
   midi.ControlChangeEvent(tick=6, channel=9, data=[7, 4]),
   midi.NoteOnEvent(tick=24, channel=9, data=[36, 0]),
   midi.NoteOnEvent(tick=0, channel=9, data=[35, 127]),
   midi.NoteOnEvent(tick=30, channel=9, data=[35, 0]),
   midi.NoteOnEvent(tick=0, channel=9, data=[36, 127]),
   midi.ControlChangeEvent(tick=4, channel=9, data=[7, 3]),
   midi.NoteOnEvent(tick=26, channel=9, data=[36, 0]),
   midi.NoteOnEvent(tick=0, channel=9, data=[35, 127]),
   midi.NoteOnEvent(tick=30, channel=9, data=[38, 0]),
   midi.NoteOnEvent(tick=0, channel=9, data=[57, 0]),
   midi.NoteOnEvent(tick=0, channel=9, data=[35, 0]),
   midi.NoteOnEvent(tick=0, channel=9, data=[48, 127]),
   midi.NoteOnEvent(tick=0, channel=9, data=[36, 127]),
   midi.ControlChangeEvent(tick=3, channel=9, data=[7, 2]),
   midi.NoteOnEvent(tick=27, channel=9, data=[48, 0]),
   midi.NoteOnEvent(tick=0, channel=9, data=[36, 0]),
   midi.NoteOnEvent(tick=0, channel=9, data=[48, 127]),
   midi.NoteOnEvent(tick=0, channel=9, data=[35, 127]),
   midi.NoteOnEvent(tick=30, channel=9, data=[48, 0]),
   midi.NoteOnEvent(tick=0, channel=9, data=[35, 0]),
   midi.NoteOnEvent(tick=0, channel=9, data=[48, 127]),
   midi.NoteOnEvent(tick=0, channel=9, data=[36, 127]),
   midi.ControlChangeEvent(tick=1, channel=9, data=[7, 1]),
   midi.NoteOnEvent(tick=29, channel=9, data=[48, 0]),
   midi.NoteOnEvent(tick=0, channel=9, data=[36, 0]),
   midi.NoteOnEvent(tick=0, channel=9, data=[48, 127]),
   midi.NoteOnEvent(tick=0, channel=9, data=[35, 127]),
   midi.ControlChangeEvent(tick=29, channel=9, data=[7, 0]),
   midi.NoteOnEvent(tick=1, channel=9, data=[48, 0]),
   midi.NoteOnEvent(tick=0, channel=9, data=[35, 0]),
   midi.EndOfTrackEvent(tick=0, data=[])]),
 midi.Track(\
  [midi.PortEvent(tick=0, data=[0]),
   midi.TrackNameEvent(tick=0, text=' ', data=[32]),
   midi.EndOfTrackEvent(tick=0, data=[])]),
 midi.Track(\
  [midi.PortEvent(tick=0, data=[0]),
   midi.TrackNameEvent(tick=0, text='Orion', data=[79, 114, 105, 111, 110]),
   midi.EndOfTrackEvent(tick=0, data=[])]),
 midi.Track(\
  [midi.PortEvent(tick=0, data=[0]),
   midi.TrackNameEvent(tick=0, text='by Metallica', data=[98, 121, 32, 77, 101, 116, 97, 108, 108, 105, 99, 97]),
   midi.EndOfTrackEvent(tick=0, data=[])]),
 midi.Track(\
  [midi.PortEvent(tick=0, data=[0]),
   midi.TrackNameEvent(tick=0, text=' ', data=[32]),
   midi.EndOfTrackEvent(tick=0, data=[])]),
 midi.Track(\
  [midi.PortEvent(tick=0, data=[0]),
   midi.TrackNameEvent(tick=0, text='Transcribed by', data=[84, 114, 97, 110, 115, 99, 114, 105, 98, 101, 100, 32, 98, 121]),
   midi.EndOfTrackEvent(tick=0, data=[])]),
 midi.Track(\
  [midi.PortEvent(tick=0, data=[0]),
   midi.TrackNameEvent(tick=0, text='King Diamond', data=[75, 105, 110, 103, 32, 68, 105, 97, 109, 111, 110, 100]),
   midi.EndOfTrackEvent(tick=0, data=[])])])