midi.Pattern(format=1, resolution=120, tracks=\
[midi.Track(\
  [midi.KeySignatureEvent(tick=0, data=[1, 0]),
   midi.SmpteOffsetEvent(tick=0, data=[96, 0, 0, 0, 0]),
   midi.SetTempoEvent(tick=0, data=[4, 124, 229]),
   midi.TimeSignatureEvent(tick=0, data=[4, 2, 24, 8]),
   midi.SetTempoEvent(tick=62880, data=[8, 249, 203]),
   midi.TimeSignatureEvent(tick=480, data=[2, 2, 24, 8]),
   midi.SetTempoEvent(tick=240, data=[5, 149, 29]),
   midi.TimeSignatureEvent(tick=0, data=[4, 2, 24, 8]),
   midi.SetTempoEvent(tick=15840, data=[8, 249, 203]),
   midi.SetTempoEvent(tick=960, data=[10, 44, 42]),
   midi.TimeSignatureEvent(tick=11040, data=[2, 2, 24, 8]),
   midi.TimeSignatureEvent(tick=240, data=[4, 2, 24, 8]),
   midi.SetTempoEvent(tick=960, data=[4, 124, 229]),
   midi.SetTempoEvent(tick=7680, data=[8, 249, 203]),
   midi.SetTempoEvent(tick=960, data=[4, 124, 229]),
   midi.EndOfTrackEvent(tick=0, data=[])]),
 midi.Track(\
  [midi.PortEvent(tick=0, data=[0]),
   midi.TrackNameEvent(tick=0, text='Voice', data=[86, 111, 105, 99, 101]),
   midi.ControlChangeEvent(tick=0, channel=0, data=[7, 99]),
   midi.ProgramChangeEvent(tick=0, channel=0, data=[42]),
   midi.NoteOnEvent(tick=10560, channel=0, data=[76, 127]),
   midi.NoteOnEvent(tick=60, channel=0, data=[76, 0]),
   midi.NoteOnEvent(tick=0, channel=0, data=[76, 127]),
   midi.NoteOnEvent(tick=60, channel=0, data=[76, 0]),
   midi.NoteOnEvent(tick=0, channel=0, data=[76, 127]),
   midi.NoteOnEvent(tick=120, channel=0, data=[76, 0]),
   midi.NoteOnEvent(tick=0, channel=0, data=[76, 127]),
   midi.NoteOnEvent(tick=120, channel=0, data=[76, 0]),
   midi.NoteOnEvent(tick=0, channel=0, data=[74, 127]),
   midi.NoteOnEvent(tick=120, channel=0, data=[74, 0]),
   midi.NoteOnEvent(tick=0, channel=0, data=[83, 127]),
   midi.NoteOnEvent(tick=60, channel=0, data=[83, 0]),
   midi.NoteOnEvent(tick=0, channel=0, data=[83, 127]),
   midi.NoteOnEvent(tick=120, channel=0, data=[83, 0]),
   midi.NoteOnEvent(tick=0, channel=0, data=[83, 127]),
   midi.NoteOnEvent(tick=180, channel=0, data=[83, 0]),
   midi.NoteOnEvent(tick=120, channel=0, data=[76, 127]),
   midi.NoteOnEvent(tick=120, channel=0, data=[76, 0]),
   midi.NoteOnEvent(tick=0, channel=0, data=[74, 127]),
   midi.NoteOnEvent(tick=120, channel=0, data=[74, 0]),
   midi.NoteOnEvent(tick=0, channel=0, data=[71, 127]),
   midi.NoteOnEvent(tick=120, channel=0, data=[71, 0]),
   midi.NoteOnEvent(tick=0, channel=0, data=[71, 127]),
   midi.NoteOnEvent(tick=60, channel=0, data=[71, 0]),
   midi.NoteOnEvent(tick=0, channel=0, data=[69, 127]),
   midi.NoteOnEvent(tick=120, channel=0, data=[69, 0]),
   midi.NoteOnEvent(tick=0, channel=0, data=[67, 127]),
   midi.NoteOnEvent(tick=180, channel=0, data=[67, 0]),
   midi.NoteOnEvent(tick=180, channel=0, data=[67, 127]),
   midi.NoteOnEvent(tick=60, channel=0, data=[67, 0]),
   midi.NoteOnEvent(tick=0, channel=0, data=[76, 127]),
   midi.NoteOnEvent(tick=120, channel=0, data=[76, 0]),
   midi.NoteOnEvent(tick=0, channel=0, data=[76, 127]),
   midi.NoteOnEvent(tick=60, channel=0, data=[76, 0]),
   midi.NoteOnEvent(tick=0, channel=0, data=[76, 127]),
   midi.NoteOnEvent(tick=60, channel=0, data=[76, 0]),
   midi.NoteOnEvent(tick=0, channel=0, data=[74, 127]),
   midi.NoteOnEvent(tick=120, channel=0, data=[74, 0]),
   midi.NoteOnEvent(tick=0, channel=0, data=[74, 127]),
   midi.NoteOnEvent(tick=120, channel=0, data=[74, 0]),
   midi.NoteOnEvent(tick=0, channel=0, data=[83, 127]),
   midi.NoteOnEvent(tick=60, channel=0, data=[83, 0]),
   midi.NoteOnEvent(tick=0, channel=0, data=[83, 127]),
   midi.NoteOnEvent(tick=120, channel=0, data=[83, 0]),
   midi.NoteOnEvent(tick=0, channel=0, data=[83, 127]),
   midi.NoteOnEvent(tick=300, channel=0, data=[83, 0]),
   midi.NoteOnEvent(tick=480, channel=0, data=[76, 127]),
   midi.NoteOnEvent(tick=80, channel=0, data=[76, 0]),
   midi.NoteOnEvent(tick=0, channel=0, data=[76, 127]),
   midi.NoteOnEvent(tick=80, channel=0, data=[76, 0]),
   midi.NoteOnEvent(tick=0, channel=0, data=[76, 127]),
   midi.NoteOnEvent(tick=75, channel=0, data=[76, 75]),
   midi.NoteOnEvent(tick=5, channel=0, data=[76, 0]),
   midi.NoteOnEvent(tick=0, channel=0, data=[76, 0]),
   midi.NoteOnEvent(tick=0, channel=0, data=[74, 127]),
   midi.NoteOnEvent(tick=120, channel=0, data=[74, 0]),
   midi.NoteOnEvent(tick=0, channel=0, data=[74, 127]),
   midi.NoteOnEvent(tick=120, channel=0, data=[74, 0]),
   midi.NoteOnEvent(tick=0, channel=0, data=[83, 127]),
   midi.NoteOnEvent(tick=60, channel=0, data=[83, 0]),
   midi.NoteOnEvent(tick=0, channel=0, data=[83, 127]),
   midi.NoteOnEvent(tick=120, channel=0, data=[83, 0]),
   midi.NoteOnEvent(tick=0, channel=0, data=[83, 127]),
   midi.NoteOnEvent(tick=180, channel=0, data=[83, 0]),
   midi.NoteOnEvent(tick=60, channel=0, data=[74, 127]),
   midi.NoteOnEvent(tick=60, channel=0, data=[74, 0]),
   midi.NoteOnEvent(tick=0, channel=0, data=[76, 127]),
   midi.NoteOnEvent(tick=120, channel=0, data=[76, 0]),
   midi.NoteOnEvent(tick=0, channel=0, data=[74, 127]),
   midi.NoteOnEvent(tick=120, channel=0, data=[74, 0]),
   midi.NoteOnEvent(tick=0, channel=0, data=[71, 127]),
   midi.NoteOnEvent(tick=120, channel=0, data=[71, 0]),
   midi.NoteOnEvent(tick=0, channel=0, data=[71, 127]),
   midi.NoteOnEvent(tick=60, channel=0, data=[71, 0]),
   midi.NoteOnEvent(tick=0, channel=0, data=[69, 127]),
   midi.NoteOnEvent(tick=120, channel=0, data=[69, 0]),
   midi.NoteOnEvent(tick=0, channel=0, data=[67, 127]),
   midi.NoteOnEvent(tick=180, channel=0, data=[67, 0]),
   midi.NoteOnEvent(tick=180, channel=0, data=[74, 127]),
   midi.NoteOnEvent(tick=60, channel=0, data=[74, 0]),
   midi.NoteOnEvent(tick=0, channel=0, data=[76, 127]),
   midi.NoteOnEvent(tick=120, channel=0, data=[76, 0]),
   midi.NoteOnEvent(tick=0, channel=0, data=[76, 127]),
   midi.NoteOnEvent(tick=115, channel=0, data=[76, 75]),
   midi.NoteOnEvent(tick=5, channel=0, data=[76, 0]),
   midi.NoteOnEvent(tick=0, channel=0, data=[76, 0]),
   midi.NoteOnEvent(tick=0, channel=0, data=[74, 127]),
   midi.NoteOnEvent(tick=120, channel=0, data=[74, 0]),
   midi.NoteOnEvent(tick=0, channel=0, data=[74, 127]),
   midi.NoteOnEvent(tick=120, channel=0, data=[74, 0]),
   midi.NoteOnEvent(tick=0, channel=0, data=[83, 127]),
   midi.NoteOnEvent(tick=120, channel=0, data=[83, 0]),
   midi.NoteOnEvent(tick=0, channel=0, data=[83, 127]),
   midi.NoteOnEvent(tick=60, channel=0, data=[83, 0]),
   midi.NoteOnEvent(tick=0, channel=0, data=[83, 127]),
   midi.NoteOnEvent(tick=300, channel=0, data=[83, 0]),
   midi.NoteOnEvent(tick=480, channel=0, data=[76, 127]),
   midi.NoteOnEvent(tick=80, channel=0, data=[76, 0]),
   midi.NoteOnEvent(tick=0, channel=0, data=[76, 127]),
   midi.NoteOnEvent(tick=80, channel=0, data=[76, 0]),
   midi.NoteOnEvent(tick=0, channel=0, data=[76, 127]),
   midi.NoteOnEvent(tick=80, channel=0, data=[76, 0]),
   midi.NoteOnEvent(tick=0, channel=0, data=[76, 127]),
   midi.NoteOnEvent(tick=60, channel=0, data=[76, 0]),
   midi.NoteOnEvent(tick=0, channel=0, data=[76, 127]),
   midi.NoteOnEvent(tick=120, channel=0, data=[76, 0]),
   midi.NoteOnEvent(tick=0, channel=0, data=[79, 127]),
   midi.NoteOnEvent(tick=120, channel=0, data=[79, 0]),
   midi.NoteOnEvent(tick=0, channel=0, data=[76, 127]),
   midi.NoteOnEvent(tick=300, channel=0, data=[76, 0]),
   midi.NoteOnEvent(tick=300, channel=0, data=[76, 127]),
   midi.NoteOnEvent(tick=60, channel=0, data=[76, 0]),
   midi.NoteOnEvent(tick=0, channel=0, data=[76, 127]),
   midi.NoteOnEvent(tick=60, channel=0, data=[76, 0]),
   midi.NoteOnEvent(tick=0, channel=0, data=[76, 127]),
   midi.NoteOnEvent(tick=120, channel=0, data=[76, 0]),
   midi.NoteOnEvent(tick=0, channel=0, data=[76, 127]),
   midi.NoteOnEvent(tick=120, channel=0, data=[76, 0]),
   midi.NoteOnEvent(tick=0, channel=0, data=[76, 127]),
   midi.NoteOnEvent(tick=120, channel=0, data=[76, 0]),
   midi.NoteOnEvent(tick=0, channel=0, data=[76, 127]),
   midi.NoteOnEvent(tick=180, channel=0, data=[76, 0]),
   midi.NoteOnEvent(tick=480, channel=0, data=[72, 127]),
   midi.NoteOnEvent(tick=120, channel=0, data=[72, 0]),
   midi.NoteOnEvent(tick=0, channel=0, data=[76, 127]),
   midi.NoteOnEvent(tick=120, channel=0, data=[76, 0]),
   midi.NoteOnEvent(tick=0, channel=0, data=[76, 127]),
   midi.NoteOnEvent(tick=60, channel=0, data=[76, 0]),
   midi.NoteOnEvent(tick=0, channel=0, data=[76, 127]),
   midi.NoteOnEvent(tick=120, channel=0, data=[76, 0]),
   midi.NoteOnEvent(tick=0, channel=0, data=[76, 127]),
   midi.NoteOnEvent(tick=120, channel=0, data=[76, 0]),
   midi.NoteOnEvent(tick=0, channel=0, data=[76, 127]),
   midi.NoteOnEvent(tick=60, channel=0, data=[76, 0]),
   midi.NoteOnEvent(tick=0, channel=0, data=[74, 127]),
   midi.NoteOnEvent(tick=720, channel=0, data=[74, 0]),
   midi.NoteOnEvent(tick=480, channel=0, data=[76, 127]),
   midi.NoteOnEvent(tick=60, channel=0, data=[76, 0]),
   midi.NoteOnEvent(tick=0, channel=0, data=[76, 127]),
   midi.NoteOnEvent(tick=60, channel=0, data=[76, 0]),
   midi.NoteOnEvent(tick=0, channel=0, data=[76, 127]),
   midi.NoteOnEvent(tick=60, channel=0, data=[76, 0]),
   midi.NoteOnEvent(tick=0, channel=0, data=[76, 127]),
   midi.NoteOnEvent(tick=120, channel=0, data=[76, 0]),
   midi.NoteOnEvent(tick=0, channel=0, data=[76, 127]),
   midi.NoteOnEvent(tick=120, channel=0, data=[76, 0]),
   midi.NoteOnEvent(tick=0, channel=0, data=[76, 127]),
   midi.NoteOnEvent(tick=180, channel=0, data=[76, 0]),
   midi.NoteOnEvent(tick=360, channel=0, data=[76, 127]),
   midi.NoteOnEvent(tick=60, channel=0, data=[76, 0]),
   midi.NoteOnEvent(tick=0, channel=0, data=[76, 127]),
   midi.NoteOnEvent(tick=60, channel=0, data=[76, 0]),
   midi.NoteOnEvent(tick=0, channel=0, data=[76, 127]),
   midi.NoteOnEvent(tick=60, channel=0, data=[76, 0]),
   midi.NoteOnEvent(tick=0, channel=0, data=[79, 127]),
   midi.NoteOnEvent(tick=120, channel=0, data=[79, 0]),
   midi.NoteOnEvent(tick=0, channel=0, data=[76, 127]),
   midi.NoteOnEvent(tick=120, channel=0, data=[76, 0]),
   midi.NoteOnEvent(tick=0, channel=0, data=[76, 127]),
   midi.NoteOnEvent(tick=60, channel=0, data=[76, 0]),
   midi.NoteOnEvent(tick=0, channel=0, data=[79, 127]),
   midi.NoteOnEvent(tick=120, channel=0, data=[79, 0]),
   midi.NoteOnEvent(tick=480, channel=0, data=[76, 127]),
   midi.NoteOnEvent(tick=120, channel=0, data=[76, 0]),
   midi.NoteOnEvent(tick=0, channel=0, data=[83, 127]),
   midi.NoteOnEvent(tick=120, channel=0, data=[83, 0]),
   midi.NoteOnEvent(tick=0, channel=0, data=[84, 127]),
   midi.NoteOnEvent(tick=120, channel=0, data=[84, 0]),
   midi.NoteOnEvent(tick=0, channel=0, data=[83, 127]),
   midi.NoteOnEvent(tick=120, channel=0, data=[83, 0]),
   midi.NoteOnEvent(tick=0, channel=0, data=[83, 127]),
   midi.NoteOnEvent(tick=120, channel=0, data=[83, 0]),
   midi.NoteOnEvent(tick=0, channel=0, data=[83, 127]),
   midi.NoteOnEvent(tick=480, channel=0, data=[83, 0]),
   midi.NoteOnEvent(tick=1320, channel=0, data=[83, 127]),
   midi.NoteOnEvent(tick=120, channel=0, data=[83, 0]),
   midi.NoteOnEvent(tick=0, channel=0, data=[83, 127]),
   midi.NoteOnEvent(tick=60, channel=0, data=[83, 0]),
   midi.NoteOnEvent(tick=0, channel=0, data=[83, 127]),
   midi.NoteOnEvent(tick=300, channel=0, data=[83, 0]),
   midi.NoteOnEvent(tick=4440, channel=0, data=[76, 127]),
   midi.NoteOnEvent(tick=60, channel=0, data=[76, 0]),
   midi.NoteOnEvent(tick=0, channel=0, data=[76, 127]),
   midi.NoteOnEvent(tick=60, channel=0, data=[76, 0]),
   midi.NoteOnEvent(tick=0, channel=0, data=[76, 127]),
   midi.NoteOnEvent(tick=120, channel=0, data=[76, 0]),
   midi.NoteOnEvent(tick=0, channel=0, data=[76, 127]),
   midi.NoteOnEvent(tick=120, channel=0, data=[76, 0]),
   midi.NoteOnEvent(tick=0, channel=0, data=[74, 127]),
   midi.NoteOnEvent(tick=120, channel=0, data=[74, 0]),
   midi.NoteOnEvent(tick=0, channel=0, data=[83, 127]),
   midi.NoteOnEvent(tick=60, channel=0, data=[83, 0]),
   midi.NoteOnEvent(tick=0, channel=0, data=[83, 127]),
   midi.NoteOnEvent(tick=120, channel=0, data=[83, 0]),
   midi.NoteOnEvent(tick=0, channel=0, data=[83, 127]),
   midi.NoteOnEvent(tick=180, channel=0, data=[83, 0]),
   midi.NoteOnEvent(tick=120, channel=0, data=[76, 127]),
   midi.NoteOnEvent(tick=120, channel=0, data=[76, 0]),
   midi.NoteOnEvent(tick=0, channel=0, data=[74, 127]),
   midi.NoteOnEvent(tick=120, channel=0, data=[74, 0]),
   midi.NoteOnEvent(tick=0, channel=0, data=[71, 127]),
   midi.NoteOnEvent(tick=120, channel=0, data=[71, 0]),
   midi.NoteOnEvent(tick=0, channel=0, data=[71, 127]),
   midi.NoteOnEvent(tick=60, channel=0, data=[71, 0]),
   midi.NoteOnEvent(tick=0, channel=0, data=[69, 127]),
   midi.NoteOnEvent(tick=120, channel=0, data=[69, 0]),
   midi.NoteOnEvent(tick=0, channel=0, data=[67, 127]),
   midi.NoteOnEvent(tick=180, channel=0, data=[67, 0]),
   midi.NoteOnEvent(tick=180, channel=0, data=[67, 127]),
   midi.NoteOnEvent(tick=60, channel=0, data=[67, 0]),
   midi.NoteOnEvent(tick=0, channel=0, data=[76, 127]),
   midi.NoteOnEvent(tick=120, channel=0, data=[76, 0]),
   midi.NoteOnEvent(tick=0, channel=0, data=[76, 127]),
   midi.NoteOnEvent(tick=60, channel=0, data=[76, 0]),
   midi.NoteOnEvent(tick=0, channel=0, data=[76, 127]),
   midi.NoteOnEvent(tick=60, channel=0, data=[76, 0]),
   midi.NoteOnEvent(tick=0, channel=0, data=[74, 127]),
   midi.NoteOnEvent(tick=120, channel=0, data=[74, 0]),
   midi.NoteOnEvent(tick=0, channel=0, data=[74, 127]),
   midi.NoteOnEvent(tick=120, channel=0, data=[74, 0]),
   midi.NoteOnEvent(tick=0, channel=0, data=[83, 127]),
   midi.NoteOnEvent(tick=60, channel=0, data=[83, 0]),
   midi.NoteOnEvent(tick=0, channel=0, data=[83, 127]),
   midi.NoteOnEvent(tick=120, channel=0, data=[83, 0]),
   midi.NoteOnEvent(tick=0, channel=0, data=[83, 127]),
   midi.NoteOnEvent(tick=300, channel=0, data=[83, 0]),
   midi.NoteOnEvent(tick=480, channel=0, data=[76, 127]),
   midi.NoteOnEvent(tick=80, channel=0, data=[76, 0]),
   midi.NoteOnEvent(tick=0, channel=0, data=[76, 127]),
   midi.NoteOnEvent(tick=80, channel=0, data=[76, 0]),
   midi.NoteOnEvent(tick=0, channel=0, data=[76, 127]),
   midi.NoteOnEvent(tick=75, channel=0, data=[76, 75]),
   midi.NoteOnEvent(tick=5, channel=0, data=[76, 0]),
   midi.NoteOnEvent(tick=0, channel=0, data=[76, 0]),
   midi.NoteOnEvent(tick=0, channel=0, data=[74, 127]),
   midi.NoteOnEvent(tick=120, channel=0, data=[74, 0]),
   midi.NoteOnEvent(tick=0, channel=0, data=[74, 127]),
   midi.NoteOnEvent(tick=120, channel=0, data=[74, 0]),
   midi.NoteOnEvent(tick=0, channel=0, data=[83, 127]),
   midi.NoteOnEvent(tick=60, channel=0, data=[83, 0]),
   midi.NoteOnEvent(tick=0, channel=0, data=[83, 127]),
   midi.NoteOnEvent(tick=120, channel=0, data=[83, 0]),
   midi.NoteOnEvent(tick=0, channel=0, data=[83, 127]),
   midi.NoteOnEvent(tick=180, channel=0, data=[83, 0]),
   midi.NoteOnEvent(tick=60, channel=0, data=[74, 127]),
   midi.NoteOnEvent(tick=60, channel=0, data=[74, 0]),
   midi.NoteOnEvent(tick=0, channel=0, data=[76, 127]),
   midi.NoteOnEvent(tick=120, channel=0, data=[76, 0]),
   midi.NoteOnEvent(tick=0, channel=0, data=[74, 127]),
   midi.NoteOnEvent(tick=120, channel=0, data=[74, 0]),
   midi.NoteOnEvent(tick=0, channel=0, data=[71, 127]),
   midi.NoteOnEvent(tick=120, channel=0, data=[71, 0]),
   midi.NoteOnEvent(tick=0, channel=0, data=[71, 127]),
   midi.NoteOnEvent(tick=60, channel=0, data=[71, 0]),
   midi.NoteOnEvent(tick=0, channel=0, data=[69, 127]),
   midi.NoteOnEvent(tick=120, channel=0, data=[69, 0]),
   midi.NoteOnEvent(tick=0, channel=0, data=[67, 127]),
   midi.NoteOnEvent(tick=180, channel=0, data=[67, 0]),
   midi.NoteOnEvent(tick=180, channel=0, data=[74, 127]),
   midi.NoteOnEvent(tick=60, channel=0, data=[74, 0]),
   midi.NoteOnEvent(tick=0, channel=0, data=[76, 127]),
   midi.NoteOnEvent(tick=120, channel=0, data=[76, 0]),
   midi.NoteOnEvent(tick=0, channel=0, data=[76, 127]),
   midi.NoteOnEvent(tick=115, channel=0, data=[76, 75]),
   midi.NoteOnEvent(tick=5, channel=0, data=[76, 0]),
   midi.NoteOnEvent(tick=0, channel=0, data=[76, 0]),
   midi.NoteOnEvent(tick=0, channel=0, data=[74, 127]),
   midi.NoteOnEvent(tick=120, channel=0, data=[74, 0]),
   midi.NoteOnEvent(tick=0, channel=0, data=[74, 127]),
   midi.NoteOnEvent(tick=120, channel=0, data=[74, 0]),
   midi.NoteOnEvent(tick=0, channel=0, data=[83, 127]),
   midi.NoteOnEvent(tick=120, channel=0, data=[83, 0]),
   midi.NoteOnEvent(tick=0, channel=0, data=[83, 127]),
   midi.NoteOnEvent(tick=60, channel=0, data=[83, 0]),
   midi.NoteOnEvent(tick=0, channel=0, data=[83, 127]),
   midi.NoteOnEvent(tick=300, channel=0, data=[83, 0]),
   midi.NoteOnEvent(tick=480, channel=0, data=[76, 127]),
   midi.NoteOnEvent(tick=80, channel=0, data=[76, 0]),
   midi.NoteOnEvent(tick=0, channel=0, data=[76, 127]),
   midi.NoteOnEvent(tick=80, channel=0, data=[76, 0]),
   midi.NoteOnEvent(tick=0, channel=0, data=[76, 127]),
   midi.NoteOnEvent(tick=80, channel=0, data=[76, 0]),
   midi.NoteOnEvent(tick=0, channel=0, data=[76, 127]),
   midi.NoteOnEvent(tick=60, channel=0, data=[76, 0]),
   midi.NoteOnEvent(tick=0, channel=0, data=[76, 127]),
   midi.NoteOnEvent(tick=120, channel=0, data=[76, 0]),
   midi.NoteOnEvent(tick=0, channel=0, data=[79, 127]),
   midi.NoteOnEvent(tick=120, channel=0, data=[79, 0]),
   midi.NoteOnEvent(tick=0, channel=0, data=[76, 127]),
   midi.NoteOnEvent(tick=300, channel=0, data=[76, 0]),
   midi.NoteOnEvent(tick=300, channel=0, data=[76, 127]),
   midi.NoteOnEvent(tick=60, channel=0, data=[76, 0]),
   midi.NoteOnEvent(tick=0, channel=0, data=[76, 127]),
   midi.NoteOnEvent(tick=60, channel=0, data=[76, 0]),
   midi.NoteOnEvent(tick=0, channel=0, data=[76, 127]),
   midi.NoteOnEvent(tick=120, channel=0, data=[76, 0]),
   midi.NoteOnEvent(tick=0, channel=0, data=[76, 127]),
   midi.NoteOnEvent(tick=120, channel=0, data=[76, 0]),
   midi.NoteOnEvent(tick=0, channel=0, data=[76, 127]),
   midi.NoteOnEvent(tick=120, channel=0, data=[76, 0]),
   midi.NoteOnEvent(tick=0, channel=0, data=[76, 127]),
   midi.NoteOnEvent(tick=180, channel=0, data=[76, 0]),
   midi.NoteOnEvent(tick=480, channel=0, data=[72, 127]),
   midi.NoteOnEvent(tick=120, channel=0, data=[72, 0]),
   midi.NoteOnEvent(tick=0, channel=0, data=[76, 127]),
   midi.NoteOnEvent(tick=120, channel=0, data=[76, 0]),
   midi.NoteOnEvent(tick=0, channel=0, data=[76, 127]),
   midi.NoteOnEvent(tick=60, channel=0, data=[76, 0]),
   midi.NoteOnEvent(tick=0, channel=0, data=[76, 127]),
   midi.NoteOnEvent(tick=120, channel=0, data=[76, 0]),
   midi.NoteOnEvent(tick=0, channel=0, data=[76, 127]),
   midi.NoteOnEvent(tick=120, channel=0, data=[76, 0]),
   midi.NoteOnEvent(tick=0, channel=0, data=[76, 127]),
   midi.NoteOnEvent(tick=60, channel=0, data=[76, 0]),
   midi.NoteOnEvent(tick=0, channel=0, data=[74, 127]),
   midi.NoteOnEvent(tick=720, channel=0, data=[74, 0]),
   midi.NoteOnEvent(tick=480, channel=0, data=[76, 127]),
   midi.NoteOnEvent(tick=60, channel=0, data=[76, 0]),
   midi.NoteOnEvent(tick=0, channel=0, data=[76, 127]),
   midi.NoteOnEvent(tick=60, channel=0, data=[76, 0]),
   midi.NoteOnEvent(tick=0, channel=0, data=[76, 127]),
   midi.NoteOnEvent(tick=60, channel=0, data=[76, 0]),
   midi.NoteOnEvent(tick=0, channel=0, data=[76, 127]),
   midi.NoteOnEvent(tick=120, channel=0, data=[76, 0]),
   midi.NoteOnEvent(tick=0, channel=0, data=[76, 127]),
   midi.NoteOnEvent(tick=120, channel=0, data=[76, 0]),
   midi.NoteOnEvent(tick=0, channel=0, data=[76, 127]),
   midi.NoteOnEvent(tick=180, channel=0, data=[76, 0]),
   midi.NoteOnEvent(tick=360, channel=0, data=[76, 127]),
   midi.NoteOnEvent(tick=60, channel=0, data=[76, 0]),
   midi.NoteOnEvent(tick=0, channel=0, data=[76, 127]),
   midi.NoteOnEvent(tick=60, channel=0, data=[76, 0]),
   midi.NoteOnEvent(tick=0, channel=0, data=[76, 127]),
   midi.NoteOnEvent(tick=60, channel=0, data=[76, 0]),
   midi.NoteOnEvent(tick=0, channel=0, data=[79, 127]),
   midi.NoteOnEvent(tick=120, channel=0, data=[79, 0]),
   midi.NoteOnEvent(tick=0, channel=0, data=[76, 127]),
   midi.NoteOnEvent(tick=120, channel=0, data=[76, 0]),
   midi.NoteOnEvent(tick=0, channel=0, data=[76, 127]),
   midi.NoteOnEvent(tick=60, channel=0, data=[76, 0]),
   midi.NoteOnEvent(tick=0, channel=0, data=[79, 127]),
   midi.NoteOnEvent(tick=120, channel=0, data=[79, 0]),
   midi.NoteOnEvent(tick=480, channel=0, data=[76, 127]),
   midi.NoteOnEvent(tick=120, channel=0, data=[76, 0]),
   midi.NoteOnEvent(tick=0, channel=0, data=[83, 127]),
   midi.NoteOnEvent(tick=120, channel=0, data=[83, 0]),
   midi.NoteOnEvent(tick=0, channel=0, data=[84, 127]),
   midi.NoteOnEvent(tick=120, channel=0, data=[84, 0]),
   midi.NoteOnEvent(tick=0, channel=0, data=[83, 127]),
   midi.NoteOnEvent(tick=120, channel=0, data=[83, 0]),
   midi.NoteOnEvent(tick=0, channel=0, data=[83, 127]),
   midi.NoteOnEvent(tick=120, channel=0, data=[83, 0]),
   midi.NoteOnEvent(tick=0, channel=0, data=[83, 127]),
   midi.NoteOnEvent(tick=480, channel=0, data=[83, 0]),
   midi.NoteOnEvent(tick=1320, channel=0, data=[83, 127]),
   midi.NoteOnEvent(tick=120, channel=0, data=[83, 0]),
   midi.NoteOnEvent(tick=0, channel=0, data=[83, 127]),
   midi.NoteOnEvent(tick=60, channel=0, data=[83, 0]),
   midi.NoteOnEvent(tick=0, channel=0, data=[83, 127]),
   midi.NoteOnEvent(tick=300, channel=0, data=[83, 0]),
   midi.NoteOnEvent(tick=25320, channel=0, data=[76, 127]),
   midi.NoteOnEvent(tick=120, channel=0, data=[76, 0]),
   midi.NoteOnEvent(tick=60, channel=0, data=[74, 127]),
   midi.NoteOnEvent(tick=60, channel=0, data=[74, 0]),
   midi.NoteOnEvent(tick=0, channel=0, data=[76, 127]),
   midi.NoteOnEvent(tick=60, channel=0, data=[76, 0]),
   midi.NoteOnEvent(tick=0, channel=0, data=[76, 127]),
   midi.NoteOnEvent(tick=60, channel=0, data=[76, 0]),
   midi.NoteOnEvent(tick=0, channel=0, data=[76, 127]),
   midi.NoteOnEvent(tick=60, channel=0, data=[76, 0]),
   midi.NoteOnEvent(tick=0, channel=0, data=[76, 127]),
   midi.NoteOnEvent(tick=120, channel=0, data=[76, 0]),
   midi.NoteOnEvent(tick=0, channel=0, data=[76, 127]),
   midi.NoteOnEvent(tick=120, channel=0, data=[76, 0]),
   midi.NoteOnEvent(tick=0, channel=0, data=[79, 127]),
   midi.NoteOnEvent(tick=180, channel=0, data=[79, 0]),
   midi.NoteOnEvent(tick=60, channel=0, data=[74, 127]),
   midi.NoteOnEvent(tick=60, channel=0, data=[74, 0]),
   midi.NoteOnEvent(tick=0, channel=0, data=[76, 127]),
   midi.NoteOnEvent(tick=120, channel=0, data=[76, 0]),
   midi.NoteOnEvent(tick=0, channel=0, data=[74, 127]),
   midi.NoteOnEvent(tick=60, channel=0, data=[74, 0]),
   midi.NoteOnEvent(tick=0, channel=0, data=[76, 127]),
   midi.NoteOnEvent(tick=120, channel=0, data=[76, 0]),
   midi.NoteOnEvent(tick=0, channel=0, data=[76, 127]),
   midi.NoteOnEvent(tick=120, channel=0, data=[76, 0]),
   midi.NoteOnEvent(tick=0, channel=0, data=[79, 127]),
   midi.NoteOnEvent(tick=240, channel=0, data=[79, 0]),
   midi.NoteOnEvent(tick=300, channel=0, data=[79, 127]),
   midi.NoteOnEvent(tick=60, channel=0, data=[79, 0]),
   midi.NoteOnEvent(tick=0, channel=0, data=[76, 127]),
   midi.NoteOnEvent(tick=120, channel=0, data=[76, 0]),
   midi.NoteOnEvent(tick=0, channel=0, data=[74, 127]),
   midi.NoteOnEvent(tick=60, channel=0, data=[74, 0]),
   midi.NoteOnEvent(tick=0, channel=0, data=[76, 127]),
   midi.NoteOnEvent(tick=60, channel=0, data=[76, 0]),
   midi.NoteOnEvent(tick=0, channel=0, data=[76, 127]),
   midi.NoteOnEvent(tick=120, channel=0, data=[76, 0]),
   midi.NoteOnEvent(tick=0, channel=0, data=[74, 127]),
   midi.NoteOnEvent(tick=60, channel=0, data=[74, 0]),
   midi.NoteOnEvent(tick=0, channel=0, data=[76, 127]),
   midi.NoteOnEvent(tick=60, channel=0, data=[76, 0]),
   midi.NoteOnEvent(tick=0, channel=0, data=[76, 127]),
   midi.NoteOnEvent(tick=120, channel=0, data=[76, 0]),
   midi.NoteOnEvent(tick=0, channel=0, data=[79, 127]),
   midi.NoteOnEvent(tick=180, channel=0, data=[79, 0]),
   midi.NoteOnEvent(tick=120, channel=0, data=[76, 127]),
   midi.NoteOnEvent(tick=60, channel=0, data=[76, 0]),
   midi.NoteOnEvent(tick=0, channel=0, data=[76, 127]),
   midi.NoteOnEvent(tick=60, channel=0, data=[76, 0]),
   midi.NoteOnEvent(tick=0, channel=0, data=[76, 127]),
   midi.NoteOnEvent(tick=60, channel=0, data=[76, 0]),
   midi.NoteOnEvent(tick=0, channel=0, data=[79, 127]),
   midi.NoteOnEvent(tick=120, channel=0, data=[79, 0]),
   midi.NoteOnEvent(tick=0, channel=0, data=[79, 127]),
   midi.NoteOnEvent(tick=120, channel=0, data=[79, 0]),
   midi.NoteOnEvent(tick=0, channel=0, data=[76, 127]),
   midi.NoteOnEvent(tick=60, channel=0, data=[76, 0]),
   midi.NoteOnEvent(tick=0, channel=0, data=[74, 127]),
   midi.NoteOnEvent(tick=180, channel=0, data=[74, 0]),
   midi.NoteOnEvent(tick=300, channel=0, data=[76, 127]),
   midi.NoteOnEvent(tick=60, channel=0, data=[76, 0]),
   midi.NoteOnEvent(tick=0, channel=0, data=[74, 127]),
   midi.NoteOnEvent(tick=60, channel=0, data=[74, 0]),
   midi.NoteOnEvent(tick=0, channel=0, data=[76, 127]),
   midi.NoteOnEvent(tick=120, channel=0, data=[76, 0]),
   midi.NoteOnEvent(tick=60, channel=0, data=[74, 127]),
   midi.NoteOnEvent(tick=60, channel=0, data=[74, 0]),
   midi.NoteOnEvent(tick=0, channel=0, data=[76, 127]),
   midi.NoteOnEvent(tick=60, channel=0, data=[76, 0]),
   midi.NoteOnEvent(tick=0, channel=0, data=[74, 127]),
   midi.NoteOnEvent(tick=60, channel=0, data=[74, 0]),
   midi.NoteOnEvent(tick=0, channel=0, data=[76, 127]),
   midi.NoteOnEvent(tick=60, channel=0, data=[76, 0]),
   midi.NoteOnEvent(tick=0, channel=0, data=[76, 127]),
   midi.NoteOnEvent(tick=60, channel=0, data=[76, 0]),
   midi.NoteOnEvent(tick=0, channel=0, data=[76, 127]),
   midi.NoteOnEvent(tick=60, channel=0, data=[76, 0]),
   midi.NoteOnEvent(tick=0, channel=0, data=[79, 127]),
   midi.NoteOnEvent(tick=180, channel=0, data=[79, 0]),
   midi.NoteOnEvent(tick=60, channel=0, data=[74, 127]),
   midi.NoteOnEvent(tick=60, channel=0, data=[74, 0]),
   midi.NoteOnEvent(tick=0, channel=0, data=[76, 127]),
   midi.NoteOnEvent(tick=60, channel=0, data=[76, 0]),
   midi.NoteOnEvent(tick=0, channel=0, data=[76, 127]),
   midi.NoteOnEvent(tick=60, channel=0, data=[76, 0]),
   midi.NoteOnEvent(tick=0, channel=0, data=[76, 127]),
   midi.NoteOnEvent(tick=60, channel=0, data=[76, 0]),
   midi.NoteOnEvent(tick=0, channel=0, data=[74, 127]),
   midi.NoteOnEvent(tick=60, channel=0, data=[74, 0]),
   midi.NoteOnEvent(tick=0, channel=0, data=[76, 127]),
   midi.NoteOnEvent(tick=60, channel=0, data=[76, 0]),
   midi.NoteOnEvent(tick=0, channel=0, data=[76, 127]),
   midi.NoteOnEvent(tick=120, channel=0, data=[76, 0]),
   midi.NoteOnEvent(tick=0, channel=0, data=[79, 127]),
   midi.NoteOnEvent(tick=180, channel=0, data=[79, 0]),
   midi.NoteOnEvent(tick=360, channel=0, data=[76, 127]),
   midi.NoteOnEvent(tick=120, channel=0, data=[76, 0]),
   midi.NoteOnEvent(tick=60, channel=0, data=[76, 127]),
   midi.NoteOnEvent(tick=60, channel=0, data=[76, 0]),
   midi.NoteOnEvent(tick=0, channel=0, data=[76, 127]),
   midi.NoteOnEvent(tick=60, channel=0, data=[76, 0]),
   midi.NoteOnEvent(tick=0, channel=0, data=[76, 127]),
   midi.NoteOnEvent(tick=60, channel=0, data=[76, 0]),
   midi.NoteOnEvent(tick=60, channel=0, data=[74, 127]),
   midi.NoteOnEvent(tick=60, channel=0, data=[74, 0]),
   midi.NoteOnEvent(tick=0, channel=0, data=[76, 127]),
   midi.NoteOnEvent(tick=60, channel=0, data=[76, 0]),
   midi.NoteOnEvent(tick=0, channel=0, data=[76, 127]),
   midi.NoteOnEvent(tick=60, channel=0, data=[76, 0]),
   midi.NoteOnEvent(tick=60, channel=0, data=[79, 127]),
   midi.NoteOnEvent(tick=180, channel=0, data=[79, 0]),
   midi.NoteOnEvent(tick=120, channel=0, data=[76, 127]),
   midi.NoteOnEvent(tick=60, channel=0, data=[76, 0]),
   midi.NoteOnEvent(tick=0, channel=0, data=[76, 127]),
   midi.NoteOnEvent(tick=60, channel=0, data=[76, 0]),
   midi.NoteOnEvent(tick=0, channel=0, data=[76, 127]),
   midi.NoteOnEvent(tick=60, channel=0, data=[76, 0]),
   midi.NoteOnEvent(tick=0, channel=0, data=[76, 127]),
   midi.NoteOnEvent(tick=60, channel=0, data=[76, 0]),
   midi.NoteOnEvent(tick=0, channel=0, data=[79, 127]),
   midi.NoteOnEvent(tick=60, channel=0, data=[79, 0]),
   midi.NoteOnEvent(tick=0, channel=0, data=[79, 127]),
   midi.NoteOnEvent(tick=120, channel=0, data=[79, 0]),
   midi.NoteOnEvent(tick=0, channel=0, data=[76, 127]),
   midi.NoteOnEvent(tick=60, channel=0, data=[76, 0]),
   midi.NoteOnEvent(tick=0, channel=0, data=[74, 127]),
   midi.NoteOnEvent(tick=120, channel=0, data=[74, 0]),
   midi.NoteOnEvent(tick=28920, channel=0, data=[76, 127]),
   midi.NoteOnEvent(tick=60, channel=0, data=[76, 0]),
   midi.NoteOnEvent(tick=0, channel=0, data=[76, 127]),
   midi.NoteOnEvent(tick=60, channel=0, data=[76, 0]),
   midi.NoteOnEvent(tick=0, channel=0, data=[76, 127]),
   midi.NoteOnEvent(tick=120, channel=0, data=[76, 0]),
   midi.NoteOnEvent(tick=0, channel=0, data=[76, 127]),
   midi.NoteOnEvent(tick=120, channel=0, data=[76, 0]),
   midi.NoteOnEvent(tick=0, channel=0, data=[74, 127]),
   midi.NoteOnEvent(tick=120, channel=0, data=[74, 0]),
   midi.NoteOnEvent(tick=0, channel=0, data=[83, 127]),
   midi.NoteOnEvent(tick=60, channel=0, data=[83, 0]),
   midi.NoteOnEvent(tick=0, channel=0, data=[83, 127]),
   midi.NoteOnEvent(tick=120, channel=0, data=[83, 0]),
   midi.NoteOnEvent(tick=0, channel=0, data=[83, 127]),
   midi.NoteOnEvent(tick=180, channel=0, data=[83, 0]),
   midi.NoteOnEvent(tick=120, channel=0, data=[76, 127]),
   midi.NoteOnEvent(tick=120, channel=0, data=[76, 0]),
   midi.NoteOnEvent(tick=0, channel=0, data=[74, 127]),
   midi.NoteOnEvent(tick=120, channel=0, data=[74, 0]),
   midi.NoteOnEvent(tick=0, channel=0, data=[71, 127]),
   midi.NoteOnEvent(tick=120, channel=0, data=[71, 0]),
   midi.NoteOnEvent(tick=0, channel=0, data=[71, 127]),
   midi.NoteOnEvent(tick=60, channel=0, data=[71, 0]),
   midi.NoteOnEvent(tick=0, channel=0, data=[69, 127]),
   midi.NoteOnEvent(tick=120, channel=0, data=[69, 0]),
   midi.NoteOnEvent(tick=0, channel=0, data=[67, 127]),
   midi.NoteOnEvent(tick=180, channel=0, data=[67, 0]),
   midi.NoteOnEvent(tick=180, channel=0, data=[67, 127]),
   midi.NoteOnEvent(tick=60, channel=0, data=[67, 0]),
   midi.NoteOnEvent(tick=0, channel=0, data=[76, 127]),
   midi.NoteOnEvent(tick=120, channel=0, data=[76, 0]),
   midi.NoteOnEvent(tick=0, channel=0, data=[76, 127]),
   midi.NoteOnEvent(tick=60, channel=0, data=[76, 0]),
   midi.NoteOnEvent(tick=0, channel=0, data=[76, 127]),
   midi.NoteOnEvent(tick=60, channel=0, data=[76, 0]),
   midi.NoteOnEvent(tick=0, channel=0, data=[74, 127]),
   midi.NoteOnEvent(tick=120, channel=0, data=[74, 0]),
   midi.NoteOnEvent(tick=0, channel=0, data=[74, 127]),
   midi.NoteOnEvent(tick=120, channel=0, data=[74, 0]),
   midi.NoteOnEvent(tick=0, channel=0, data=[83, 127]),
   midi.NoteOnEvent(tick=60, channel=0, data=[83, 0]),
   midi.NoteOnEvent(tick=0, channel=0, data=[83, 127]),
   midi.NoteOnEvent(tick=120, channel=0, data=[83, 0]),
   midi.NoteOnEvent(tick=0, channel=0, data=[83, 127]),
   midi.NoteOnEvent(tick=300, channel=0, data=[83, 0]),
   midi.NoteOnEvent(tick=480, channel=0, data=[76, 127]),
   midi.NoteOnEvent(tick=80, channel=0, data=[76, 0]),
   midi.NoteOnEvent(tick=0, channel=0, data=[76, 127]),
   midi.NoteOnEvent(tick=80, channel=0, data=[76, 0]),
   midi.NoteOnEvent(tick=0, channel=0, data=[76, 127]),
   midi.NoteOnEvent(tick=75, channel=0, data=[76, 75]),
   midi.NoteOnEvent(tick=5, channel=0, data=[76, 0]),
   midi.NoteOnEvent(tick=0, channel=0, data=[76, 0]),
   midi.NoteOnEvent(tick=0, channel=0, data=[74, 127]),
   midi.NoteOnEvent(tick=120, channel=0, data=[74, 0]),
   midi.NoteOnEvent(tick=0, channel=0, data=[74, 127]),
   midi.NoteOnEvent(tick=120, channel=0, data=[74, 0]),
   midi.NoteOnEvent(tick=0, channel=0, data=[83, 127]),
   midi.NoteOnEvent(tick=60, channel=0, data=[83, 0]),
   midi.NoteOnEvent(tick=0, channel=0, data=[83, 127]),
   midi.NoteOnEvent(tick=120, channel=0, data=[83, 0]),
   midi.NoteOnEvent(tick=0, channel=0, data=[83, 127]),
   midi.NoteOnEvent(tick=180, channel=0, data=[83, 0]),
   midi.NoteOnEvent(tick=60, channel=0, data=[74, 127]),
   midi.NoteOnEvent(tick=60, channel=0, data=[74, 0]),
   midi.NoteOnEvent(tick=0, channel=0, data=[76, 127]),
   midi.NoteOnEvent(tick=120, channel=0, data=[76, 0]),
   midi.NoteOnEvent(tick=0, channel=0, data=[74, 127]),
   midi.NoteOnEvent(tick=120, channel=0, data=[74, 0]),
   midi.NoteOnEvent(tick=0, channel=0, data=[71, 127]),
   midi.NoteOnEvent(tick=120, channel=0, data=[71, 0]),
   midi.NoteOnEvent(tick=0, channel=0, data=[71, 127]),
   midi.NoteOnEvent(tick=60, channel=0, data=[71, 0]),
   midi.NoteOnEvent(tick=0, channel=0, data=[69, 127]),
   midi.NoteOnEvent(tick=120, channel=0, data=[69, 0]),
   midi.NoteOnEvent(tick=0, channel=0, data=[67, 127]),
   midi.NoteOnEvent(tick=180, channel=0, data=[67, 0]),
   midi.NoteOnEvent(tick=180, channel=0, data=[74, 127]),
   midi.NoteOnEvent(tick=60, channel=0, data=[74, 0]),
   midi.NoteOnEvent(tick=0, channel=0, data=[76, 127]),
   midi.NoteOnEvent(tick=120, channel=0, data=[76, 0]),
   midi.NoteOnEvent(tick=0, channel=0, data=[76, 127]),
   midi.NoteOnEvent(tick=115, channel=0, data=[76, 75]),
   midi.NoteOnEvent(tick=5, channel=0, data=[76, 0]),
   midi.NoteOnEvent(tick=0, channel=0, data=[76, 0]),
   midi.NoteOnEvent(tick=0, channel=0, data=[74, 127]),
   midi.NoteOnEvent(tick=120, channel=0, data=[74, 0]),
   midi.NoteOnEvent(tick=0, channel=0, data=[74, 127]),
   midi.NoteOnEvent(tick=120, channel=0, data=[74, 0]),
   midi.NoteOnEvent(tick=0, channel=0, data=[83, 127]),
   midi.NoteOnEvent(tick=120, channel=0, data=[83, 0]),
   midi.NoteOnEvent(tick=0, channel=0, data=[83, 127]),
   midi.NoteOnEvent(tick=60, channel=0, data=[83, 0]),
   midi.NoteOnEvent(tick=0, channel=0, data=[83, 127]),
   midi.NoteOnEvent(tick=300, channel=0, data=[83, 0]),
   midi.NoteOnEvent(tick=480, channel=0, data=[76, 127]),
   midi.NoteOnEvent(tick=80, channel=0, data=[76, 0]),
   midi.NoteOnEvent(tick=0, channel=0, data=[76, 127]),
   midi.NoteOnEvent(tick=80, channel=0, data=[76, 0]),
   midi.NoteOnEvent(tick=0, channel=0, data=[76, 127]),
   midi.NoteOnEvent(tick=80, channel=0, data=[76, 0]),
   midi.NoteOnEvent(tick=0, channel=0, data=[76, 127]),
   midi.NoteOnEvent(tick=60, channel=0, data=[76, 0]),
   midi.NoteOnEvent(tick=0, channel=0, data=[76, 127]),
   midi.NoteOnEvent(tick=120, channel=0, data=[76, 0]),
   midi.NoteOnEvent(tick=0, channel=0, data=[79, 127]),
   midi.NoteOnEvent(tick=120, channel=0, data=[79, 0]),
   midi.NoteOnEvent(tick=0, channel=0, data=[76, 127]),
   midi.NoteOnEvent(tick=300, channel=0, data=[76, 0]),
   midi.NoteOnEvent(tick=300, channel=0, data=[76, 127]),
   midi.NoteOnEvent(tick=60, channel=0, data=[76, 0]),
   midi.NoteOnEvent(tick=0, channel=0, data=[76, 127]),
   midi.NoteOnEvent(tick=60, channel=0, data=[76, 0]),
   midi.NoteOnEvent(tick=0, channel=0, data=[76, 127]),
   midi.NoteOnEvent(tick=120, channel=0, data=[76, 0]),
   midi.NoteOnEvent(tick=0, channel=0, data=[76, 127]),
   midi.NoteOnEvent(tick=120, channel=0, data=[76, 0]),
   midi.NoteOnEvent(tick=0, channel=0, data=[76, 127]),
   midi.NoteOnEvent(tick=120, channel=0, data=[76, 0]),
   midi.NoteOnEvent(tick=0, channel=0, data=[76, 127]),
   midi.NoteOnEvent(tick=180, channel=0, data=[76, 0]),
   midi.NoteOnEvent(tick=480, channel=0, data=[72, 127]),
   midi.NoteOnEvent(tick=120, channel=0, data=[72, 0]),
   midi.NoteOnEvent(tick=0, channel=0, data=[76, 127]),
   midi.NoteOnEvent(tick=120, channel=0, data=[76, 0]),
   midi.NoteOnEvent(tick=0, channel=0, data=[76, 127]),
   midi.NoteOnEvent(tick=60, channel=0, data=[76, 0]),
   midi.NoteOnEvent(tick=0, channel=0, data=[76, 127]),
   midi.NoteOnEvent(tick=120, channel=0, data=[76, 0]),
   midi.NoteOnEvent(tick=0, channel=0, data=[76, 127]),
   midi.NoteOnEvent(tick=120, channel=0, data=[76, 0]),
   midi.NoteOnEvent(tick=0, channel=0, data=[76, 127]),
   midi.NoteOnEvent(tick=60, channel=0, data=[76, 0]),
   midi.NoteOnEvent(tick=0, channel=0, data=[74, 127]),
   midi.NoteOnEvent(tick=720, channel=0, data=[74, 0]),
   midi.NoteOnEvent(tick=480, channel=0, data=[76, 127]),
   midi.NoteOnEvent(tick=60, channel=0, data=[76, 0]),
   midi.NoteOnEvent(tick=0, channel=0, data=[76, 127]),
   midi.NoteOnEvent(tick=60, channel=0, data=[76, 0]),
   midi.NoteOnEvent(tick=0, channel=0, data=[76, 127]),
   midi.NoteOnEvent(tick=60, channel=0, data=[76, 0]),
   midi.NoteOnEvent(tick=0, channel=0, data=[76, 127]),
   midi.NoteOnEvent(tick=120, channel=0, data=[76, 0]),
   midi.NoteOnEvent(tick=0, channel=0, data=[76, 127]),
   midi.NoteOnEvent(tick=120, channel=0, data=[76, 0]),
   midi.NoteOnEvent(tick=0, channel=0, data=[76, 127]),
   midi.NoteOnEvent(tick=180, channel=0, data=[76, 0]),
   midi.NoteOnEvent(tick=360, channel=0, data=[76, 127]),
   midi.NoteOnEvent(tick=60, channel=0, data=[76, 0]),
   midi.NoteOnEvent(tick=0, channel=0, data=[76, 127]),
   midi.NoteOnEvent(tick=60, channel=0, data=[76, 0]),
   midi.NoteOnEvent(tick=0, channel=0, data=[76, 127]),
   midi.NoteOnEvent(tick=60, channel=0, data=[76, 0]),
   midi.NoteOnEvent(tick=0, channel=0, data=[79, 127]),
   midi.NoteOnEvent(tick=120, channel=0, data=[79, 0]),
   midi.NoteOnEvent(tick=0, channel=0, data=[76, 127]),
   midi.NoteOnEvent(tick=120, channel=0, data=[76, 0]),
   midi.NoteOnEvent(tick=0, channel=0, data=[76, 127]),
   midi.NoteOnEvent(tick=60, channel=0, data=[76, 0]),
   midi.NoteOnEvent(tick=0, channel=0, data=[79, 127]),
   midi.NoteOnEvent(tick=120, channel=0, data=[79, 0]),
   midi.NoteOnEvent(tick=480, channel=0, data=[76, 127]),
   midi.NoteOnEvent(tick=120, channel=0, data=[76, 0]),
   midi.NoteOnEvent(tick=0, channel=0, data=[83, 127]),
   midi.NoteOnEvent(tick=120, channel=0, data=[83, 0]),
   midi.NoteOnEvent(tick=0, channel=0, data=[84, 127]),
   midi.NoteOnEvent(tick=120, channel=0, data=[84, 0]),
   midi.NoteOnEvent(tick=0, channel=0, data=[83, 127]),
   midi.NoteOnEvent(tick=120, channel=0, data=[83, 0]),
   midi.NoteOnEvent(tick=0, channel=0, data=[83, 127]),
   midi.NoteOnEvent(tick=120, channel=0, data=[83, 0]),
   midi.NoteOnEvent(tick=0, channel=0, data=[83, 127]),
   midi.NoteOnEvent(tick=480, channel=0, data=[83, 0]),
   midi.NoteOnEvent(tick=1320, channel=0, data=[83, 127]),
   midi.NoteOnEvent(tick=120, channel=0, data=[83, 0]),
   midi.NoteOnEvent(tick=0, channel=0, data=[83, 127]),
   midi.NoteOnEvent(tick=60, channel=0, data=[83, 0]),
   midi.NoteOnEvent(tick=0, channel=0, data=[83, 127]),
   midi.NoteOnEvent(tick=300, channel=0, data=[83, 0]),
   midi.EndOfTrackEvent(tick=0, data=[])]),
 midi.Track(\
  [midi.PortEvent(tick=0, data=[0]),
   midi.TrackNameEvent(tick=0, text='Guitar 1', data=[71, 117, 105, 116, 97, 114, 32, 49]),
   midi.ControlChangeEvent(tick=0, channel=1, data=[7, 99]),
   midi.ProgramChangeEvent(tick=0, channel=1, data=[30]),
   midi.NoteOnEvent(tick=0, channel=1, data=[48, 127]),
   midi.NoteOnEvent(tick=0, channel=1, data=[55, 127]),
   midi.NoteOnEvent(tick=0, channel=1, data=[60, 127]),
   midi.NoteOnEvent(tick=0, channel=1, data=[64, 127]),
   midi.NoteOnEvent(tick=120, channel=1, data=[48, 0]),
   midi.NoteOnEvent(tick=0, channel=1, data=[55, 0]),
   midi.NoteOnEvent(tick=0, channel=1, data=[60, 0]),
   midi.NoteOnEvent(tick=0, channel=1, data=[64, 0]),
   midi.NoteOnEvent(tick=0, channel=1, data=[43, 127]),
   midi.NoteOnEvent(tick=0, channel=1, data=[55, 127]),
   midi.NoteOnEvent(tick=0, channel=1, data=[50, 127]),
   midi.NoteOnEvent(tick=120, channel=1, data=[43, 0]),
   midi.NoteOnEvent(tick=0, channel=1, data=[55, 0]),
   midi.NoteOnEvent(tick=0, channel=1, data=[50, 0]),
   midi.NoteOnEvent(tick=0, channel=1, data=[62, 127]),
   midi.NoteOnEvent(tick=0, channel=1, data=[57, 127]),
   midi.NoteOnEvent(tick=0, channel=1, data=[50, 127]),
   midi.NoteOnEvent(tick=120, channel=1, data=[62, 0]),
   midi.NoteOnEvent(tick=0, channel=1, data=[57, 0]),
   midi.NoteOnEvent(tick=0, channel=1, data=[50, 0]),
   midi.NoteOnEvent(tick=0, channel=1, data=[48, 127]),
   midi.NoteOnEvent(tick=0, channel=1, data=[55, 127]),
   midi.NoteOnEvent(tick=0, channel=1, data=[60, 127]),
   midi.NoteOnEvent(tick=120, channel=1, data=[48, 0]),
   midi.NoteOnEvent(tick=0, channel=1, data=[55, 0]),
   midi.NoteOnEvent(tick=0, channel=1, data=[60, 0]),
   midi.NoteOnEvent(tick=1560, channel=1, data=[47, 127]),
   midi.NoteOnEvent(tick=0, channel=1, data=[40, 127]),
   midi.NoteOnEvent(tick=120, channel=1, data=[47, 0]),
   midi.NoteOnEvent(tick=0, channel=1, data=[40, 0]),
   midi.NoteOnEvent(tick=120, channel=1, data=[40, 127]),
   midi.NoteOnEvent(tick=0, channel=1, data=[47, 127]),
   midi.NoteOnEvent(tick=120, channel=1, data=[40, 0]),
   midi.NoteOnEvent(tick=0, channel=1, data=[47, 0]),
   midi.NoteOnEvent(tick=960, channel=1, data=[48, 127]),
   midi.NoteOnEvent(tick=0, channel=1, data=[55, 127]),
   midi.NoteOnEvent(tick=120, channel=1, data=[48, 0]),
   midi.NoteOnEvent(tick=0, channel=1, data=[55, 0]),
   midi.NoteOnEvent(tick=0, channel=1, data=[43, 127]),
   midi.NoteOnEvent(tick=0, channel=1, data=[50, 127]),
   midi.NoteOnEvent(tick=120, channel=1, data=[43, 0]),
   midi.NoteOnEvent(tick=0, channel=1, data=[50, 0]),
   midi.NoteOnEvent(tick=0, channel=1, data=[57, 127]),
   midi.NoteOnEvent(tick=0, channel=1, data=[50, 127]),
   midi.NoteOnEvent(tick=120, channel=1, data=[57, 0]),
   midi.NoteOnEvent(tick=0, channel=1, data=[50, 0]),
   midi.NoteOnEvent(tick=0, channel=1, data=[48, 127]),
   midi.NoteOnEvent(tick=0, channel=1, data=[55, 127]),
   midi.NoteOnEvent(tick=120, channel=1, data=[48, 0]),
   midi.NoteOnEvent(tick=0, channel=1, data=[55, 0]),
   midi.NoteOnEvent(tick=0, channel=1, data=[40, 127]),
   midi.NoteOnEvent(tick=0, channel=1, data=[52, 127]),
   midi.NoteOnEvent(tick=60, channel=1, data=[40, 0]),
   midi.NoteOnEvent(tick=0, channel=1, data=[52, 0]),
   midi.NoteOnEvent(tick=0, channel=1, data=[50, 127]),
   midi.NoteOnEvent(tick=60, channel=1, data=[50, 0]),
   midi.NoteOnEvent(tick=0, channel=1, data=[40, 127]),
   midi.NoteOnEvent(tick=0, channel=1, data=[52, 127]),
   midi.NoteOnEvent(tick=60, channel=1, data=[40, 0]),
   midi.NoteOnEvent(tick=0, channel=1, data=[52, 0]),
   midi.NoteOnEvent(tick=0, channel=1, data=[50, 127]),
   midi.NoteOnEvent(tick=60, channel=1, data=[50, 0]),
   midi.NoteOnEvent(tick=0, channel=1, data=[40, 127]),
   midi.NoteOnEvent(tick=0, channel=1, data=[52, 127]),
   midi.NoteOnEvent(tick=60, channel=1, data=[40, 0]),
   midi.NoteOnEvent(tick=0, channel=1, data=[52, 0]),
   midi.NoteOnEvent(tick=0, channel=1, data=[50, 127]),
   midi.NoteOnEvent(tick=60, channel=1, data=[50, 0]),
   midi.NoteOnEvent(tick=0, channel=1, data=[40, 127]),
   midi.NoteOnEvent(tick=0, channel=1, data=[52, 127]),
   midi.NoteOnEvent(tick=60, channel=1, data=[40, 0]),
   midi.NoteOnEvent(tick=0, channel=1, data=[52, 0]),
   midi.NoteOnEvent(tick=0, channel=1, data=[50, 127]),
   midi.NoteOnEvent(tick=60, channel=1, data=[50, 0]),
   midi.NoteOnEvent(tick=0, channel=1, data=[40, 127]),
   midi.NoteOnEvent(tick=0, channel=1, data=[52, 127]),
   midi.NoteOnEvent(tick=60, channel=1, data=[40, 0]),
   midi.NoteOnEvent(tick=0, channel=1, data=[52, 0]),
   midi.NoteOnEvent(tick=0, channel=1, data=[50, 127]),
   midi.NoteOnEvent(tick=60, channel=1, data=[50, 0]),
   midi.NoteOnEvent(tick=0, channel=1, data=[40, 127]),
   midi.NoteOnEvent(tick=0, channel=1, data=[52, 127]),
   midi.NoteOnEvent(tick=60, channel=1, data=[40, 0]),
   midi.NoteOnEvent(tick=0, channel=1, data=[52, 0]),
   midi.NoteOnEvent(tick=0, channel=1, data=[50, 127]),
   midi.NoteOnEvent(tick=60, channel=1, data=[50, 0]),
   midi.NoteOnEvent(tick=0, channel=1, data=[40, 127]),
   midi.NoteOnEvent(tick=0, channel=1, data=[52, 127]),
   midi.NoteOnEvent(tick=60, channel=1, data=[40, 0]),
   midi.NoteOnEvent(tick=0, channel=1, data=[52, 0]),
   midi.NoteOnEvent(tick=0, channel=1, data=[50, 127]),
   midi.NoteOnEvent(tick=60, channel=1, data=[50, 0]),
   midi.NoteOnEvent(tick=0, channel=1, data=[47, 127]),
   midi.NoteOnEvent(tick=0, channel=1, data=[50, 127]),
   midi.NoteOnEvent(tick=60, channel=1, data=[47, 0]),
   midi.NoteOnEvent(tick=0, channel=1, data=[50, 0]),
   midi.NoteOnEvent(tick=0, channel=1, data=[50, 127]),
   midi.NoteOnEvent(tick=60, channel=1, data=[50, 0]),
   midi.NoteOnEvent(tick=0, channel=1, data=[40, 127]),
   midi.NoteOnEvent(tick=0, channel=1, data=[52, 127]),
   midi.NoteOnEvent(tick=60, channel=1, data=[40, 0]),
   midi.NoteOnEvent(tick=0, channel=1, data=[52, 0]),
   midi.NoteOnEvent(tick=0, channel=1, data=[50, 127]),
   midi.NoteOnEvent(tick=60, channel=1, data=[50, 0]),
   midi.NoteOnEvent(tick=0, channel=1, data=[40, 127]),
   midi.NoteOnEvent(tick=0, channel=1, data=[52, 127]),
   midi.NoteOnEvent(tick=60, channel=1, data=[40, 0]),
   midi.NoteOnEvent(tick=0, channel=1, data=[52, 0]),
   midi.NoteOnEvent(tick=0, channel=1, data=[50, 127]),
   midi.NoteOnEvent(tick=60, channel=1, data=[50, 0]),
   midi.NoteOnEvent(tick=0, channel=1, data=[40, 127]),
   midi.NoteOnEvent(tick=0, channel=1, data=[52, 127]),
   midi.NoteOnEvent(tick=60, channel=1, data=[40, 0]),
   midi.NoteOnEvent(tick=0, channel=1, data=[52, 0]),
   midi.NoteOnEvent(tick=0, channel=1, data=[50, 127]),
   midi.NoteOnEvent(tick=60, channel=1, data=[50, 0]),
   midi.NoteOnEvent(tick=0, channel=1, data=[40, 127]),
   midi.NoteOnEvent(tick=0, channel=1, data=[52, 127]),
   midi.NoteOnEvent(tick=60, channel=1, data=[40, 0]),
   midi.NoteOnEvent(tick=0, channel=1, data=[52, 0]),
   midi.NoteOnEvent(tick=0, channel=1, data=[50, 127]),
   midi.NoteOnEvent(tick=60, channel=1, data=[50, 0]),
   midi.NoteOnEvent(tick=0, channel=1, data=[47, 127]),
   midi.NoteOnEvent(tick=60, channel=1, data=[47, 0]),
   midi.NoteOnEvent(tick=0, channel=1, data=[50, 127]),
   midi.NoteOnEvent(tick=60, channel=1, data=[50, 0]),
   midi.NoteOnEvent(tick=0, channel=1, data=[52, 127]),
   midi.NoteOnEvent(tick=60, channel=1, data=[52, 0]),
   midi.NoteOnEvent(tick=0, channel=1, data=[50, 127]),
   midi.NoteOnEvent(tick=60, channel=1, data=[50, 0]),
   midi.NoteOnEvent(tick=0, channel=1, data=[57, 127]),
   midi.NoteOnEvent(tick=60, channel=1, data=[57, 0]),
   midi.NoteOnEvent(tick=0, channel=1, data=[55, 127]),
   midi.NoteOnEvent(tick=60, channel=1, data=[55, 0]),
   midi.NoteOnEvent(tick=0, channel=1, data=[52, 127]),
   midi.NoteOnEvent(tick=60, channel=1, data=[52, 0]),
   midi.NoteOnEvent(tick=0, channel=1, data=[50, 127]),
   midi.NoteOnEvent(tick=60, channel=1, data=[50, 0]),
   midi.NoteOnEvent(tick=0, channel=1, data=[40, 127]),
   midi.NoteOnEvent(tick=0, channel=1, data=[52, 127]),
   midi.NoteOnEvent(tick=60, channel=1, data=[40, 0]),
   midi.NoteOnEvent(tick=0, channel=1, data=[52, 0]),
   midi.NoteOnEvent(tick=0, channel=1, data=[50, 127]),
   midi.NoteOnEvent(tick=60, channel=1, data=[50, 0]),
   midi.NoteOnEvent(tick=0, channel=1, data=[40, 127]),
   midi.NoteOnEvent(tick=0, channel=1, data=[52, 127]),
   midi.NoteOnEvent(tick=60, channel=1, data=[40, 0]),
   midi.NoteOnEvent(tick=0, channel=1, data=[52, 0]),
   midi.NoteOnEvent(tick=0, channel=1, data=[50, 127]),
   midi.NoteOnEvent(tick=60, channel=1, data=[50, 0]),
   midi.NoteOnEvent(tick=0, channel=1, data=[40, 127]),
   midi.NoteOnEvent(tick=0, channel=1, data=[52, 127]),
   midi.NoteOnEvent(tick=60, channel=1, data=[40, 0]),
   midi.NoteOnEvent(tick=0, channel=1, data=[52, 0]),
   midi.NoteOnEvent(tick=0, channel=1, data=[50, 127]),
   midi.NoteOnEvent(tick=60, channel=1, data=[50, 0]),
   midi.NoteOnEvent(tick=0, channel=1, data=[47, 127]),
   midi.NoteOnEvent(tick=0, channel=1, data=[50, 127]),
   midi.NoteOnEvent(tick=60, channel=1, data=[47, 0]),
   midi.NoteOnEvent(tick=0, channel=1, data=[50, 0]),
   midi.NoteOnEvent(tick=0, channel=1, data=[50, 127]),
   midi.NoteOnEvent(tick=60, channel=1, data=[50, 0]),
   midi.NoteOnEvent(tick=0, channel=1, data=[40, 127]),
   midi.NoteOnEvent(tick=0, channel=1, data=[52, 127]),
   midi.NoteOnEvent(tick=60, channel=1, data=[40, 0]),
   midi.NoteOnEvent(tick=0, channel=1, data=[52, 0]),
   midi.NoteOnEvent(tick=0, channel=1, data=[50, 127]),
   midi.NoteOnEvent(tick=60, channel=1, data=[50, 0]),
   midi.NoteOnEvent(tick=0, channel=1, data=[40, 127]),
   midi.NoteOnEvent(tick=0, channel=1, data=[52, 127]),
   midi.NoteOnEvent(tick=60, channel=1, data=[40, 0]),
   midi.NoteOnEvent(tick=0, channel=1, data=[52, 0]),
   midi.NoteOnEvent(tick=0, channel=1, data=[50, 127]),
   midi.NoteOnEvent(tick=60, channel=1, data=[50, 0]),
   midi.NoteOnEvent(tick=0, channel=1, data=[40, 127]),
   midi.NoteOnEvent(tick=0, channel=1, data=[52, 127]),
   midi.NoteOnEvent(tick=60, channel=1, data=[40, 0]),
   midi.NoteOnEvent(tick=0, channel=1, data=[52, 0]),
   midi.NoteOnEvent(tick=0, channel=1, data=[50, 127]),
   midi.NoteOnEvent(tick=60, channel=1, data=[50, 0]),
   midi.NoteOnEvent(tick=0, channel=1, data=[47, 127]),
   midi.NoteOnEvent(tick=0, channel=1, data=[50, 127]),
   midi.NoteOnEvent(tick=60, channel=1, data=[47, 0]),
   midi.NoteOnEvent(tick=0, channel=1, data=[50, 0]),
   midi.NoteOnEvent(tick=0, channel=1, data=[50, 127]),
   midi.NoteOnEvent(tick=60, channel=1, data=[50, 0]),
   midi.NoteOnEvent(tick=0, channel=1, data=[48, 127]),
   midi.NoteOnEvent(tick=0, channel=1, data=[55, 127]),
   midi.NoteOnEvent(tick=120, channel=1, data=[48, 0]),
   midi.NoteOnEvent(tick=0, channel=1, data=[55, 0]),
   midi.NoteOnEvent(tick=0, channel=1, data=[43, 127]),
   midi.NoteOnEvent(tick=0, channel=1, data=[50, 127]),
   midi.NoteOnEvent(tick=120, channel=1, data=[43, 0]),
   midi.NoteOnEvent(tick=0, channel=1, data=[50, 0]),
   midi.NoteOnEvent(tick=0, channel=1, data=[57, 127]),
   midi.NoteOnEvent(tick=0, channel=1, data=[50, 127]),
   midi.NoteOnEvent(tick=120, channel=1, data=[57, 0]),
   midi.NoteOnEvent(tick=0, channel=1, data=[50, 0]),
   midi.NoteOnEvent(tick=0, channel=1, data=[48, 127]),
   midi.NoteOnEvent(tick=0, channel=1, data=[55, 127]),
   midi.NoteOnEvent(tick=120, channel=1, data=[48, 0]),
   midi.NoteOnEvent(tick=0, channel=1, data=[55, 0]),
   midi.NoteOnEvent(tick=0, channel=1, data=[40, 127]),
   midi.NoteOnEvent(tick=40, channel=1, data=[40, 0]),
   midi.NoteOnEvent(tick=0, channel=1, data=[40, 127]),
   midi.NoteOnEvent(tick=40, channel=1, data=[40, 0]),
   midi.NoteOnEvent(tick=0, channel=1, data=[40, 127]),
   midi.NoteOnEvent(tick=40, channel=1, data=[40, 0]),
   midi.NoteOnEvent(tick=0, channel=1, data=[59, 127]),
   midi.NoteOnEvent(tick=0, channel=1, data=[52, 127]),
   midi.NoteOnEvent(tick=120, channel=1, data=[59, 0]),
   midi.NoteOnEvent(tick=0, channel=1, data=[52, 0]),
   midi.NoteOnEvent(tick=0, channel=1, data=[40, 127]),
   midi.NoteOnEvent(tick=40, channel=1, data=[40, 0]),
   midi.NoteOnEvent(tick=0, channel=1, data=[40, 127]),
   midi.NoteOnEvent(tick=40, channel=1, data=[40, 0]),
   midi.NoteOnEvent(tick=0, channel=1, data=[40, 127]),
   midi.NoteOnEvent(tick=40, channel=1, data=[40, 0]),
   midi.NoteOnEvent(tick=0, channel=1, data=[59, 127]),
   midi.NoteOnEvent(tick=0, channel=1, data=[52, 127]),
   midi.NoteOnEvent(tick=120, channel=1, data=[59, 0]),
   midi.NoteOnEvent(tick=0, channel=1, data=[52, 0]),
   midi.NoteOnEvent(tick=0, channel=1, data=[40, 127]),
   midi.NoteOnEvent(tick=40, channel=1, data=[40, 0]),
   midi.NoteOnEvent(tick=0, channel=1, data=[40, 127]),
   midi.NoteOnEvent(tick=40, channel=1, data=[40, 0]),
   midi.NoteOnEvent(tick=0, channel=1, data=[40, 127]),
   midi.NoteOnEvent(tick=40, channel=1, data=[40, 0]),
   midi.NoteOnEvent(tick=0, channel=1, data=[59, 127]),
   midi.NoteOnEvent(tick=0, channel=1, data=[52, 127]),
   midi.NoteOnEvent(tick=120, channel=1, data=[59, 0]),
   midi.NoteOnEvent(tick=0, channel=1, data=[52, 0]),
   midi.NoteOnEvent(tick=0, channel=1, data=[50, 127]),
   midi.NoteOnEvent(tick=0, channel=1, data=[57, 127]),
   midi.NoteOnEvent(tick=120, channel=1, data=[50, 0]),
   midi.NoteOnEvent(tick=0, channel=1, data=[57, 0]),
   midi.NoteOnEvent(tick=0, channel=1, data=[50, 127]),
   midi.NoteOnEvent(tick=0, channel=1, data=[57, 127]),
   midi.NoteOnEvent(tick=120, channel=1, data=[50, 0]),
   midi.NoteOnEvent(tick=0, channel=1, data=[57, 0]),
   midi.NoteOnEvent(tick=0, channel=1, data=[40, 127]),
   midi.NoteOnEvent(tick=40, channel=1, data=[40, 0]),
   midi.NoteOnEvent(tick=0, channel=1, data=[40, 127]),
   midi.NoteOnEvent(tick=40, channel=1, data=[40, 0]),
   midi.NoteOnEvent(tick=0, channel=1, data=[40, 127]),
   midi.NoteOnEvent(tick=40, channel=1, data=[40, 0]),
   midi.NoteOnEvent(tick=0, channel=1, data=[59, 127]),
   midi.NoteOnEvent(tick=0, channel=1, data=[52, 127]),
   midi.NoteOnEvent(tick=120, channel=1, data=[59, 0]),
   midi.NoteOnEvent(tick=0, channel=1, data=[52, 0]),
   midi.NoteOnEvent(tick=0, channel=1, data=[40, 127]),
   midi.NoteOnEvent(tick=40, channel=1, data=[40, 0]),
   midi.NoteOnEvent(tick=0, channel=1, data=[40, 127]),
   midi.NoteOnEvent(tick=40, channel=1, data=[40, 0]),
   midi.NoteOnEvent(tick=0, channel=1, data=[40, 127]),
   midi.NoteOnEvent(tick=40, channel=1, data=[40, 0]),
   midi.NoteOnEvent(tick=0, channel=1, data=[59, 127]),
   midi.NoteOnEvent(tick=0, channel=1, data=[52, 127]),
   midi.NoteOnEvent(tick=120, channel=1, data=[59, 0]),
   midi.NoteOnEvent(tick=0, channel=1, data=[52, 0]),
   midi.NoteOnEvent(tick=0, channel=1, data=[40, 127]),
   midi.NoteOnEvent(tick=40, channel=1, data=[40, 0]),
   midi.NoteOnEvent(tick=0, channel=1, data=[40, 127]),
   midi.NoteOnEvent(tick=40, channel=1, data=[40, 0]),
   midi.NoteOnEvent(tick=0, channel=1, data=[40, 127]),
   midi.NoteOnEvent(tick=40, channel=1, data=[40, 0]),
   midi.NoteOnEvent(tick=0, channel=1, data=[59, 127]),
   midi.NoteOnEvent(tick=0, channel=1, data=[52, 127]),
   midi.NoteOnEvent(tick=120, channel=1, data=[59, 0]),
   midi.NoteOnEvent(tick=0, channel=1, data=[52, 0]),
   midi.NoteOnEvent(tick=0, channel=1, data=[55, 127]),
   midi.NoteOnEvent(tick=0, channel=1, data=[48, 127]),
   midi.NoteOnEvent(tick=120, channel=1, data=[55, 0]),
   midi.NoteOnEvent(tick=0, channel=1, data=[48, 0]),
   midi.NoteOnEvent(tick=0, channel=1, data=[50, 127]),
   midi.NoteOnEvent(tick=0, channel=1, data=[57, 127]),
   midi.NoteOnEvent(tick=120, channel=1, data=[50, 0]),
   midi.NoteOnEvent(tick=0, channel=1, data=[57, 0]),
   midi.NoteOnEvent(tick=0, channel=1, data=[40, 127]),
   midi.NoteOnEvent(tick=40, channel=1, data=[40, 0]),
   midi.NoteOnEvent(tick=0, channel=1, data=[40, 127]),
   midi.NoteOnEvent(tick=40, channel=1, data=[40, 0]),
   midi.NoteOnEvent(tick=0, channel=1, data=[40, 127]),
   midi.NoteOnEvent(tick=40, channel=1, data=[40, 0]),
   midi.NoteOnEvent(tick=0, channel=1, data=[59, 127]),
   midi.NoteOnEvent(tick=0, channel=1, data=[52, 127]),
   midi.NoteOnEvent(tick=120, channel=1, data=[59, 0]),
   midi.NoteOnEvent(tick=0, channel=1, data=[52, 0]),
   midi.NoteOnEvent(tick=0, channel=1, data=[40, 127]),
   midi.NoteOnEvent(tick=40, channel=1, data=[40, 0]),
   midi.NoteOnEvent(tick=0, channel=1, data=[40, 127]),
   midi.NoteOnEvent(tick=40, channel=1, data=[40, 0]),
   midi.NoteOnEvent(tick=0, channel=1, data=[40, 127]),
   midi.NoteOnEvent(tick=40, channel=1, data=[40, 0]),
   midi.NoteOnEvent(tick=0, channel=1, data=[59, 127]),
   midi.NoteOnEvent(tick=0, channel=1, data=[52, 127]),
   midi.NoteOnEvent(tick=120, channel=1, data=[59, 0]),
   midi.NoteOnEvent(tick=0, channel=1, data=[52, 0]),
   midi.NoteOnEvent(tick=0, channel=1, data=[40, 127]),
   midi.NoteOnEvent(tick=40, channel=1, data=[40, 0]),
   midi.NoteOnEvent(tick=0, channel=1, data=[40, 127]),
   midi.NoteOnEvent(tick=40, channel=1, data=[40, 0]),
   midi.NoteOnEvent(tick=0, channel=1, data=[40, 127]),
   midi.NoteOnEvent(tick=40, channel=1, data=[40, 0]),
   midi.NoteOnEvent(tick=0, channel=1, data=[59, 127]),
   midi.NoteOnEvent(tick=0, channel=1, data=[52, 127]),
   midi.NoteOnEvent(tick=120, channel=1, data=[59, 0]),
   midi.NoteOnEvent(tick=0, channel=1, data=[52, 0]),
   midi.NoteOnEvent(tick=0, channel=1, data=[62, 127]),
   midi.NoteOnEvent(tick=0, channel=1, data=[55, 127]),
   midi.NoteOnEvent(tick=120, channel=1, data=[62, 0]),
   midi.NoteOnEvent(tick=0, channel=1, data=[55, 0]),
   midi.NoteOnEvent(tick=0, channel=1, data=[52, 127]),
   midi.NoteOnEvent(tick=0, channel=1, data=[59, 127]),
   midi.NoteOnEvent(tick=120, channel=1, data=[52, 0]),
   midi.NoteOnEvent(tick=0, channel=1, data=[59, 0]),
   midi.NoteOnEvent(tick=0, channel=1, data=[43, 127]),
   midi.NoteOnEvent(tick=0, channel=1, data=[48, 127]),
   midi.NoteOnEvent(tick=0, channel=1, data=[55, 127]),
   midi.NoteOnEvent(tick=120, channel=1, data=[43, 0]),
   midi.NoteOnEvent(tick=0, channel=1, data=[48, 0]),
   midi.NoteOnEvent(tick=0, channel=1, data=[55, 0]),
   midi.NoteOnEvent(tick=0, channel=1, data=[50, 127]),
   midi.NoteOnEvent(tick=0, channel=1, data=[43, 127]),
   midi.NoteOnEvent(tick=120, channel=1, data=[50, 0]),
   midi.NoteOnEvent(tick=0, channel=1, data=[43, 0]),
   midi.NoteOnEvent(tick=0, channel=1, data=[50, 127]),
   midi.NoteOnEvent(tick=0, channel=1, data=[57, 127]),
   midi.NoteOnEvent(tick=120, channel=1, data=[50, 0]),
   midi.NoteOnEvent(tick=0, channel=1, data=[57, 0]),
   midi.NoteOnEvent(tick=0, channel=1, data=[55, 127]),
   midi.NoteOnEvent(tick=0, channel=1, data=[48, 127]),
   midi.NoteOnEvent(tick=120, channel=1, data=[55, 0]),
   midi.NoteOnEvent(tick=0, channel=1, data=[48, 0]),
   midi.NoteOnEvent(tick=0, channel=1, data=[40, 127]),
   midi.NoteOnEvent(tick=40, channel=1, data=[40, 0]),
   midi.NoteOnEvent(tick=0, channel=1, data=[40, 127]),
   midi.NoteOnEvent(tick=40, channel=1, data=[40, 0]),
   midi.NoteOnEvent(tick=0, channel=1, data=[40, 127]),
   midi.NoteOnEvent(tick=40, channel=1, data=[40, 0]),
   midi.NoteOnEvent(tick=0, channel=1, data=[59, 127]),
   midi.NoteOnEvent(tick=0, channel=1, data=[52, 127]),
   midi.NoteOnEvent(tick=120, channel=1, data=[59, 0]),
   midi.NoteOnEvent(tick=0, channel=1, data=[52, 0]),
   midi.NoteOnEvent(tick=0, channel=1, data=[40, 127]),
   midi.NoteOnEvent(tick=40, channel=1, data=[40, 0]),
   midi.NoteOnEvent(tick=0, channel=1, data=[40, 127]),
   midi.NoteOnEvent(tick=40, channel=1, data=[40, 0]),
   midi.NoteOnEvent(tick=0, channel=1, data=[40, 127]),
   midi.NoteOnEvent(tick=40, channel=1, data=[40, 0]),
   midi.NoteOnEvent(tick=0, channel=1, data=[59, 127]),
   midi.NoteOnEvent(tick=0, channel=1, data=[52, 127]),
   midi.NoteOnEvent(tick=120, channel=1, data=[59, 0]),
   midi.NoteOnEvent(tick=0, channel=1, data=[52, 0]),
   midi.NoteOnEvent(tick=0, channel=1, data=[40, 127]),
   midi.NoteOnEvent(tick=40, channel=1, data=[40, 0]),
   midi.NoteOnEvent(tick=0, channel=1, data=[40, 127]),
   midi.NoteOnEvent(tick=40, channel=1, data=[40, 0]),
   midi.NoteOnEvent(tick=0, channel=1, data=[40, 127]),
   midi.NoteOnEvent(tick=40, channel=1, data=[40, 0]),
   midi.NoteOnEvent(tick=0, channel=1, data=[59, 127]),
   midi.NoteOnEvent(tick=0, channel=1, data=[52, 127]),
   midi.NoteOnEvent(tick=120, channel=1, data=[59, 0]),
   midi.NoteOnEvent(tick=0, channel=1, data=[52, 0]),
   midi.NoteOnEvent(tick=0, channel=1, data=[50, 127]),
   midi.NoteOnEvent(tick=0, channel=1, data=[57, 127]),
   midi.NoteOnEvent(tick=120, channel=1, data=[50, 0]),
   midi.NoteOnEvent(tick=0, channel=1, data=[57, 0]),
   midi.NoteOnEvent(tick=0, channel=1, data=[50, 127]),
   midi.NoteOnEvent(tick=0, channel=1, data=[57, 127]),
   midi.NoteOnEvent(tick=120, channel=1, data=[50, 0]),
   midi.NoteOnEvent(tick=0, channel=1, data=[57, 0]),
   midi.NoteOnEvent(tick=0, channel=1, data=[40, 127]),
   midi.NoteOnEvent(tick=40, channel=1, data=[40, 0]),
   midi.NoteOnEvent(tick=0, channel=1, data=[40, 127]),
   midi.NoteOnEvent(tick=40, channel=1, data=[40, 0]),
   midi.NoteOnEvent(tick=0, channel=1, data=[40, 127]),
   midi.NoteOnEvent(tick=40, channel=1, data=[40, 0]),
   midi.NoteOnEvent(tick=0, channel=1, data=[59, 127]),
   midi.NoteOnEvent(tick=0, channel=1, data=[52, 127]),
   midi.NoteOnEvent(tick=120, channel=1, data=[59, 0]),
   midi.NoteOnEvent(tick=0, channel=1, data=[52, 0]),
   midi.NoteOnEvent(tick=0, channel=1, data=[40, 127]),
   midi.NoteOnEvent(tick=40, channel=1, data=[40, 0]),
   midi.NoteOnEvent(tick=0, channel=1, data=[40, 127]),
   midi.NoteOnEvent(tick=40, channel=1, data=[40, 0]),
   midi.NoteOnEvent(tick=0, channel=1, data=[40, 127]),
   midi.NoteOnEvent(tick=40, channel=1, data=[40, 0]),
   midi.NoteOnEvent(tick=0, channel=1, data=[59, 127]),
   midi.NoteOnEvent(tick=0, channel=1, data=[52, 127]),
   midi.NoteOnEvent(tick=120, channel=1, data=[59, 0]),
   midi.NoteOnEvent(tick=0, channel=1, data=[52, 0]),
   midi.NoteOnEvent(tick=0, channel=1, data=[40, 127]),
   midi.NoteOnEvent(tick=40, channel=1, data=[40, 0]),
   midi.NoteOnEvent(tick=0, channel=1, data=[40, 127]),
   midi.NoteOnEvent(tick=40, channel=1, data=[40, 0]),
   midi.NoteOnEvent(tick=0, channel=1, data=[40, 127]),
   midi.NoteOnEvent(tick=40, channel=1, data=[40, 0]),
   midi.NoteOnEvent(tick=0, channel=1, data=[59, 127]),
   midi.NoteOnEvent(tick=0, channel=1, data=[52, 127]),
   midi.NoteOnEvent(tick=120, channel=1, data=[59, 0]),
   midi.NoteOnEvent(tick=0, channel=1, data=[52, 0]),
   midi.NoteOnEvent(tick=0, channel=1, data=[55, 127]),
   midi.NoteOnEvent(tick=0, channel=1, data=[48, 127]),
   midi.NoteOnEvent(tick=120, channel=1, data=[55, 0]),
   midi.NoteOnEvent(tick=0, channel=1, data=[48, 0]),
   midi.NoteOnEvent(tick=0, channel=1, data=[50, 127]),
   midi.NoteOnEvent(tick=0, channel=1, data=[57, 127]),
   midi.NoteOnEvent(tick=120, channel=1, data=[50, 0]),
   midi.NoteOnEvent(tick=0, channel=1, data=[57, 0]),
   midi.NoteOnEvent(tick=0, channel=1, data=[40, 127]),
   midi.NoteOnEvent(tick=40, channel=1, data=[40, 0]),
   midi.NoteOnEvent(tick=0, channel=1, data=[40, 127]),
   midi.NoteOnEvent(tick=40, channel=1, data=[40, 0]),
   midi.NoteOnEvent(tick=0, channel=1, data=[40, 127]),
   midi.NoteOnEvent(tick=40, channel=1, data=[40, 0]),
   midi.NoteOnEvent(tick=0, channel=1, data=[59, 127]),
   midi.NoteOnEvent(tick=0, channel=1, data=[52, 127]),
   midi.NoteOnEvent(tick=120, channel=1, data=[59, 0]),
   midi.NoteOnEvent(tick=0, channel=1, data=[52, 0]),
   midi.NoteOnEvent(tick=0, channel=1, data=[40, 127]),
   midi.NoteOnEvent(tick=40, channel=1, data=[40, 0]),
   midi.NoteOnEvent(tick=0, channel=1, data=[40, 127]),
   midi.NoteOnEvent(tick=40, channel=1, data=[40, 0]),
   midi.NoteOnEvent(tick=0, channel=1, data=[40, 127]),
   midi.NoteOnEvent(tick=40, channel=1, data=[40, 0]),
   midi.NoteOnEvent(tick=0, channel=1, data=[59, 127]),
   midi.NoteOnEvent(tick=0, channel=1, data=[52, 127]),
   midi.NoteOnEvent(tick=120, channel=1, data=[59, 0]),
   midi.NoteOnEvent(tick=0, channel=1, data=[52, 0]),
   midi.NoteOnEvent(tick=0, channel=1, data=[40, 127]),
   midi.NoteOnEvent(tick=40, channel=1, data=[40, 0]),
   midi.NoteOnEvent(tick=0, channel=1, data=[40, 127]),
   midi.NoteOnEvent(tick=40, channel=1, data=[40, 0]),
   midi.NoteOnEvent(tick=0, channel=1, data=[40, 127]),
   midi.NoteOnEvent(tick=40, channel=1, data=[40, 0]),
   midi.NoteOnEvent(tick=0, channel=1, data=[59, 127]),
   midi.NoteOnEvent(tick=0, channel=1, data=[52, 127]),
   midi.NoteOnEvent(tick=120, channel=1, data=[59, 0]),
   midi.NoteOnEvent(tick=0, channel=1, data=[52, 0]),
   midi.NoteOnEvent(tick=0, channel=1, data=[62, 127]),
   midi.NoteOnEvent(tick=0, channel=1, data=[55, 127]),
   midi.NoteOnEvent(tick=120, channel=1, data=[62, 0]),
   midi.NoteOnEvent(tick=0, channel=1, data=[55, 0]),
   midi.NoteOnEvent(tick=0, channel=1, data=[52, 127]),
   midi.NoteOnEvent(tick=0, channel=1, data=[59, 127]),
   midi.NoteOnEvent(tick=120, channel=1, data=[52, 0]),
   midi.NoteOnEvent(tick=0, channel=1, data=[59, 0]),
   midi.NoteOnEvent(tick=0, channel=1, data=[43, 127]),
   midi.NoteOnEvent(tick=0, channel=1, data=[48, 127]),
   midi.NoteOnEvent(tick=0, channel=1, data=[55, 127]),
   midi.NoteOnEvent(tick=120, channel=1, data=[43, 0]),
   midi.NoteOnEvent(tick=0, channel=1, data=[48, 0]),
   midi.NoteOnEvent(tick=0, channel=1, data=[55, 0]),
   midi.NoteOnEvent(tick=0, channel=1, data=[50, 127]),
   midi.NoteOnEvent(tick=0, channel=1, data=[43, 127]),
   midi.NoteOnEvent(tick=120, channel=1, data=[50, 0]),
   midi.NoteOnEvent(tick=0, channel=1, data=[43, 0]),
   midi.NoteOnEvent(tick=0, channel=1, data=[50, 127]),
   midi.NoteOnEvent(tick=0, channel=1, data=[57, 127]),
   midi.NoteOnEvent(tick=120, channel=1, data=[50, 0]),
   midi.NoteOnEvent(tick=0, channel=1, data=[57, 0]),
   midi.NoteOnEvent(tick=0, channel=1, data=[55, 127]),
   midi.NoteOnEvent(tick=0, channel=1, data=[48, 127]),
   midi.NoteOnEvent(tick=120, channel=1, data=[55, 0]),
   midi.NoteOnEvent(tick=0, channel=1, data=[48, 0]),
   midi.NoteOnEvent(tick=0, channel=1, data=[40, 127]),
   midi.NoteOnEvent(tick=40, channel=1, data=[40, 0]),
   midi.NoteOnEvent(tick=0, channel=1, data=[40, 127]),
   midi.NoteOnEvent(tick=40, channel=1, data=[40, 0]),
   midi.NoteOnEvent(tick=0, channel=1, data=[40, 127]),
   midi.NoteOnEvent(tick=40, channel=1, data=[40, 0]),
   midi.NoteOnEvent(tick=0, channel=1, data=[59, 127]),
   midi.NoteOnEvent(tick=0, channel=1, data=[52, 127]),
   midi.NoteOnEvent(tick=120, channel=1, data=[59, 0]),
   midi.NoteOnEvent(tick=0, channel=1, data=[52, 0]),
   midi.NoteOnEvent(tick=0, channel=1, data=[40, 127]),
   midi.NoteOnEvent(tick=40, channel=1, data=[40, 0]),
   midi.NoteOnEvent(tick=0, channel=1, data=[40, 127]),
   midi.NoteOnEvent(tick=40, channel=1, data=[40, 0]),
   midi.NoteOnEvent(tick=0, channel=1, data=[40, 127]),
   midi.NoteOnEvent(tick=40, channel=1, data=[40, 0]),
   midi.NoteOnEvent(tick=0, channel=1, data=[59, 127]),
   midi.NoteOnEvent(tick=0, channel=1, data=[52, 127]),
   midi.NoteOnEvent(tick=120, channel=1, data=[59, 0]),
   midi.NoteOnEvent(tick=0, channel=1, data=[52, 0]),
   midi.NoteOnEvent(tick=0, channel=1, data=[40, 127]),
   midi.NoteOnEvent(tick=40, channel=1, data=[40, 0]),
   midi.NoteOnEvent(tick=0, channel=1, data=[40, 127]),
   midi.NoteOnEvent(tick=40, channel=1, data=[40, 0]),
   midi.NoteOnEvent(tick=0, channel=1, data=[40, 127]),
   midi.NoteOnEvent(tick=40, channel=1, data=[40, 0]),
   midi.NoteOnEvent(tick=0, channel=1, data=[59, 127]),
   midi.NoteOnEvent(tick=0, channel=1, data=[52, 127]),
   midi.NoteOnEvent(tick=120, channel=1, data=[59, 0]),
   midi.NoteOnEvent(tick=0, channel=1, data=[52, 0]),
   midi.NoteOnEvent(tick=0, channel=1, data=[50, 127]),
   midi.NoteOnEvent(tick=0, channel=1, data=[57, 127]),
   midi.NoteOnEvent(tick=120, channel=1, data=[50, 0]),
   midi.NoteOnEvent(tick=0, channel=1, data=[57, 0]),
   midi.NoteOnEvent(tick=0, channel=1, data=[50, 127]),
   midi.NoteOnEvent(tick=0, channel=1, data=[57, 127]),
   midi.NoteOnEvent(tick=120, channel=1, data=[50, 0]),
   midi.NoteOnEvent(tick=0, channel=1, data=[57, 0]),
   midi.NoteOnEvent(tick=0, channel=1, data=[40, 127]),
   midi.NoteOnEvent(tick=40, channel=1, data=[40, 0]),
   midi.NoteOnEvent(tick=0, channel=1, data=[40, 127]),
   midi.NoteOnEvent(tick=40, channel=1, data=[40, 0]),
   midi.NoteOnEvent(tick=0, channel=1, data=[40, 127]),
   midi.NoteOnEvent(tick=40, channel=1, data=[40, 0]),
   midi.NoteOnEvent(tick=0, channel=1, data=[59, 127]),
   midi.NoteOnEvent(tick=0, channel=1, data=[52, 127]),
   midi.NoteOnEvent(tick=120, channel=1, data=[59, 0]),
   midi.NoteOnEvent(tick=0, channel=1, data=[52, 0]),
   midi.NoteOnEvent(tick=0, channel=1, data=[40, 127]),
   midi.NoteOnEvent(tick=40, channel=1, data=[40, 0]),
   midi.NoteOnEvent(tick=0, channel=1, data=[40, 127]),
   midi.NoteOnEvent(tick=40, channel=1, data=[40, 0]),
   midi.NoteOnEvent(tick=0, channel=1, data=[40, 127]),
   midi.NoteOnEvent(tick=40, channel=1, data=[40, 0]),
   midi.NoteOnEvent(tick=0, channel=1, data=[59, 127]),
   midi.NoteOnEvent(tick=0, channel=1, data=[52, 127]),
   midi.NoteOnEvent(tick=120, channel=1, data=[59, 0]),
   midi.NoteOnEvent(tick=0, channel=1, data=[52, 0]),
   midi.NoteOnEvent(tick=0, channel=1, data=[40, 127]),
   midi.NoteOnEvent(tick=40, channel=1, data=[40, 0]),
   midi.NoteOnEvent(tick=0, channel=1, data=[40, 127]),
   midi.NoteOnEvent(tick=40, channel=1, data=[40, 0]),
   midi.NoteOnEvent(tick=0, channel=1, data=[40, 127]),
   midi.NoteOnEvent(tick=40, channel=1, data=[40, 0]),
   midi.NoteOnEvent(tick=0, channel=1, data=[59, 127]),
   midi.NoteOnEvent(tick=0, channel=1, data=[52, 127]),
   midi.NoteOnEvent(tick=120, channel=1, data=[59, 0]),
   midi.NoteOnEvent(tick=0, channel=1, data=[52, 0]),
   midi.NoteOnEvent(tick=0, channel=1, data=[55, 127]),
   midi.NoteOnEvent(tick=0, channel=1, data=[48, 127]),
   midi.NoteOnEvent(tick=120, channel=1, data=[55, 0]),
   midi.NoteOnEvent(tick=0, channel=1, data=[48, 0]),
   midi.NoteOnEvent(tick=0, channel=1, data=[50, 127]),
   midi.NoteOnEvent(tick=0, channel=1, data=[57, 127]),
   midi.NoteOnEvent(tick=120, channel=1, data=[50, 0]),
   midi.NoteOnEvent(tick=0, channel=1, data=[57, 0]),
   midi.NoteOnEvent(tick=0, channel=1, data=[40, 127]),
   midi.NoteOnEvent(tick=40, channel=1, data=[40, 0]),
   midi.NoteOnEvent(tick=0, channel=1, data=[40, 127]),
   midi.NoteOnEvent(tick=40, channel=1, data=[40, 0]),
   midi.NoteOnEvent(tick=0, channel=1, data=[40, 127]),
   midi.NoteOnEvent(tick=40, channel=1, data=[40, 0]),
   midi.NoteOnEvent(tick=0, channel=1, data=[59, 127]),
   midi.NoteOnEvent(tick=0, channel=1, data=[52, 127]),
   midi.NoteOnEvent(tick=120, channel=1, data=[59, 0]),
   midi.NoteOnEvent(tick=0, channel=1, data=[52, 0]),
   midi.NoteOnEvent(tick=0, channel=1, data=[40, 127]),
   midi.NoteOnEvent(tick=40, channel=1, data=[40, 0]),
   midi.NoteOnEvent(tick=0, channel=1, data=[40, 127]),
   midi.NoteOnEvent(tick=40, channel=1, data=[40, 0]),
   midi.NoteOnEvent(tick=0, channel=1, data=[40, 127]),
   midi.NoteOnEvent(tick=40, channel=1, data=[40, 0]),
   midi.NoteOnEvent(tick=0, channel=1, data=[59, 127]),
   midi.NoteOnEvent(tick=0, channel=1, data=[52, 127]),
   midi.NoteOnEvent(tick=120, channel=1, data=[59, 0]),
   midi.NoteOnEvent(tick=0, channel=1, data=[52, 0]),
   midi.NoteOnEvent(tick=0, channel=1, data=[40, 127]),
   midi.NoteOnEvent(tick=40, channel=1, data=[40, 0]),
   midi.NoteOnEvent(tick=0, channel=1, data=[40, 127]),
   midi.NoteOnEvent(tick=40, channel=1, data=[40, 0]),
   midi.NoteOnEvent(tick=0, channel=1, data=[40, 127]),
   midi.NoteOnEvent(tick=40, channel=1, data=[40, 0]),
   midi.NoteOnEvent(tick=0, channel=1, data=[59, 127]),
   midi.NoteOnEvent(tick=0, channel=1, data=[52, 127]),
   midi.NoteOnEvent(tick=120, channel=1, data=[59, 0]),
   midi.NoteOnEvent(tick=0, channel=1, data=[52, 0]),
   midi.NoteOnEvent(tick=0, channel=1, data=[62, 127]),
   midi.NoteOnEvent(tick=0, channel=1, data=[55, 127]),
   midi.NoteOnEvent(tick=120, channel=1, data=[62, 0]),
   midi.NoteOnEvent(tick=0, channel=1, data=[55, 0]),
   midi.NoteOnEvent(tick=0, channel=1, data=[52, 127]),
   midi.NoteOnEvent(tick=0, channel=1, data=[59, 127]),
   midi.NoteOnEvent(tick=120, channel=1, data=[52, 0]),
   midi.NoteOnEvent(tick=0, channel=1, data=[59, 0]),
   midi.NoteOnEvent(tick=0, channel=1, data=[43, 127]),
   midi.NoteOnEvent(tick=0, channel=1, data=[48, 127]),
   midi.NoteOnEvent(tick=0, channel=1, data=[55, 127]),
   midi.NoteOnEvent(tick=120, channel=1, data=[43, 0]),
   midi.NoteOnEvent(tick=0, channel=1, data=[48, 0]),
   midi.NoteOnEvent(tick=0, channel=1, data=[55, 0]),
   midi.NoteOnEvent(tick=0, channel=1, data=[50, 127]),
   midi.NoteOnEvent(tick=0, channel=1, data=[43, 127]),
   midi.NoteOnEvent(tick=120, channel=1, data=[50, 0]),
   midi.NoteOnEvent(tick=0, channel=1, data=[43, 0]),
   midi.NoteOnEvent(tick=0, channel=1, data=[50, 127]),
   midi.NoteOnEvent(tick=0, channel=1, data=[57, 127]),
   midi.NoteOnEvent(tick=120, channel=1, data=[50, 0]),
   midi.NoteOnEvent(tick=0, channel=1, data=[57, 0]),
   midi.NoteOnEvent(tick=0, channel=1, data=[55, 127]),
   midi.NoteOnEvent(tick=0, channel=1, data=[48, 127]),
   midi.NoteOnEvent(tick=120, channel=1, data=[55, 0]),
   midi.NoteOnEvent(tick=0, channel=1, data=[48, 0]),
   midi.NoteOnEvent(tick=0, channel=1, data=[59, 127]),
   midi.NoteOnEvent(tick=0, channel=1, data=[52, 127]),
   midi.NoteOnEvent(tick=780, channel=1, data=[59, 0]),
   midi.NoteOnEvent(tick=0, channel=1, data=[52, 0]),
   midi.NoteOnEvent(tick=0, channel=1, data=[52, 127]),
   midi.NoteOnEvent(tick=0, channel=1, data=[59, 127]),
   midi.NoteOnEvent(tick=60, channel=1, data=[52, 0]),
   midi.NoteOnEvent(tick=0, channel=1, data=[59, 0]),
   midi.NoteOnEvent(tick=0, channel=1, data=[52, 127]),
   midi.NoteOnEvent(tick=0, channel=1, data=[59, 127]),
   midi.NoteOnEvent(tick=120, channel=1, data=[52, 0]),
   midi.NoteOnEvent(tick=0, channel=1, data=[59, 0]),
   midi.NoteOnEvent(tick=0, channel=1, data=[57, 127]),
   midi.NoteOnEvent(tick=0, channel=1, data=[50, 127]),
   midi.NoteOnEvent(tick=780, channel=1, data=[57, 0]),
   midi.NoteOnEvent(tick=0, channel=1, data=[50, 0]),
   midi.NoteOnEvent(tick=0, channel=1, data=[50, 127]),
   midi.NoteOnEvent(tick=0, channel=1, data=[57, 127]),
   midi.NoteOnEvent(tick=60, channel=1, data=[50, 0]),
   midi.NoteOnEvent(tick=0, channel=1, data=[57, 0]),
   midi.NoteOnEvent(tick=0, channel=1, data=[50, 127]),
   midi.NoteOnEvent(tick=0, channel=1, data=[57, 127]),
   midi.NoteOnEvent(tick=120, channel=1, data=[50, 0]),
   midi.NoteOnEvent(tick=0, channel=1, data=[57, 0]),
   midi.NoteOnEvent(tick=0, channel=1, data=[55, 127]),
   midi.NoteOnEvent(tick=0, channel=1, data=[48, 127]),
   midi.NoteOnEvent(tick=780, channel=1, data=[55, 0]),
   midi.NoteOnEvent(tick=0, channel=1, data=[48, 0]),
   midi.NoteOnEvent(tick=0, channel=1, data=[48, 127]),
   midi.NoteOnEvent(tick=0, channel=1, data=[55, 127]),
   midi.NoteOnEvent(tick=60, channel=1, data=[48, 0]),
   midi.NoteOnEvent(tick=0, channel=1, data=[55, 0]),
   midi.NoteOnEvent(tick=0, channel=1, data=[48, 127]),
   midi.NoteOnEvent(tick=0, channel=1, data=[55, 127]),
   midi.NoteOnEvent(tick=120, channel=1, data=[48, 0]),
   midi.NoteOnEvent(tick=0, channel=1, data=[55, 0]),
   midi.NoteOnEvent(tick=0, channel=1, data=[54, 127]),
   midi.NoteOnEvent(tick=0, channel=1, data=[47, 127]),
   midi.NoteOnEvent(tick=480, channel=1, data=[54, 0]),
   midi.NoteOnEvent(tick=0, channel=1, data=[47, 0]),
   midi.NoteOnEvent(tick=0, channel=1, data=[47, 127]),
   midi.NoteOnEvent(tick=0, channel=1, data=[54, 127]),
   midi.NoteOnEvent(tick=480, channel=1, data=[47, 0]),
   midi.NoteOnEvent(tick=0, channel=1, data=[54, 0]),
   midi.NoteOnEvent(tick=0, channel=1, data=[59, 127]),
   midi.NoteOnEvent(tick=0, channel=1, data=[52, 127]),
   midi.NoteOnEvent(tick=780, channel=1, data=[59, 0]),
   midi.NoteOnEvent(tick=0, channel=1, data=[52, 0]),
   midi.NoteOnEvent(tick=0, channel=1, data=[52, 127]),
   midi.NoteOnEvent(tick=0, channel=1, data=[59, 127]),
   midi.NoteOnEvent(tick=60, channel=1, data=[52, 0]),
   midi.NoteOnEvent(tick=0, channel=1, data=[59, 0]),
   midi.NoteOnEvent(tick=0, channel=1, data=[52, 127]),
   midi.NoteOnEvent(tick=0, channel=1, data=[59, 127]),
   midi.NoteOnEvent(tick=120, channel=1, data=[52, 0]),
   midi.NoteOnEvent(tick=0, channel=1, data=[59, 0]),
   midi.NoteOnEvent(tick=0, channel=1, data=[57, 127]),
   midi.NoteOnEvent(tick=0, channel=1, data=[50, 127]),
   midi.NoteOnEvent(tick=780, channel=1, data=[57, 0]),
   midi.NoteOnEvent(tick=0, channel=1, data=[50, 0]),
   midi.NoteOnEvent(tick=0, channel=1, data=[50, 127]),
   midi.NoteOnEvent(tick=0, channel=1, data=[57, 127]),
   midi.NoteOnEvent(tick=60, channel=1, data=[50, 0]),
   midi.NoteOnEvent(tick=0, channel=1, data=[57, 0]),
   midi.NoteOnEvent(tick=0, channel=1, data=[50, 127]),
   midi.NoteOnEvent(tick=0, channel=1, data=[57, 127]),
   midi.NoteOnEvent(tick=120, channel=1, data=[50, 0]),
   midi.NoteOnEvent(tick=0, channel=1, data=[57, 0]),
   midi.NoteOnEvent(tick=0, channel=1, data=[55, 127]),
   midi.NoteOnEvent(tick=0, channel=1, data=[48, 127]),
   midi.NoteOnEvent(tick=480, channel=1, data=[55, 0]),
   midi.NoteOnEvent(tick=0, channel=1, data=[48, 0]),
   midi.NoteOnEvent(tick=0, channel=1, data=[54, 127]),
   midi.NoteOnEvent(tick=0, channel=1, data=[47, 127]),
   midi.NoteOnEvent(tick=120, channel=1, data=[54, 0]),
   midi.NoteOnEvent(tick=0, channel=1, data=[47, 0]),
   midi.NoteOnEvent(tick=0, channel=1, data=[55, 127]),
   midi.NoteOnEvent(tick=0, channel=1, data=[48, 127]),
   midi.NoteOnEvent(tick=120, channel=1, data=[55, 0]),
   midi.NoteOnEvent(tick=0, channel=1, data=[48, 0]),
   midi.NoteOnEvent(tick=0, channel=1, data=[47, 127]),
   midi.NoteOnEvent(tick=0, channel=1, data=[54, 127]),
   midi.NoteOnEvent(tick=120, channel=1, data=[47, 0]),
   midi.NoteOnEvent(tick=0, channel=1, data=[54, 0]),
   midi.NoteOnEvent(tick=0, channel=1, data=[50, 127]),
   midi.NoteOnEvent(tick=0, channel=1, data=[43, 127]),
   midi.NoteOnEvent(tick=120, channel=1, data=[50, 0]),
   midi.NoteOnEvent(tick=0, channel=1, data=[43, 0]),
   midi.NoteOnEvent(tick=0, channel=1, data=[40, 127]),
   midi.NoteOnEvent(tick=0, channel=1, data=[52, 127]),
   midi.NoteOnEvent(tick=60, channel=1, data=[40, 0]),
   midi.NoteOnEvent(tick=0, channel=1, data=[52, 0]),
   midi.NoteOnEvent(tick=0, channel=1, data=[50, 127]),
   midi.NoteOnEvent(tick=60, channel=1, data=[50, 0]),
   midi.NoteOnEvent(tick=0, channel=1, data=[40, 127]),
   midi.NoteOnEvent(tick=0, channel=1, data=[52, 127]),
   midi.NoteOnEvent(tick=60, channel=1, data=[40, 0]),
   midi.NoteOnEvent(tick=0, channel=1, data=[52, 0]),
   midi.NoteOnEvent(tick=0, channel=1, data=[50, 127]),
   midi.NoteOnEvent(tick=60, channel=1, data=[50, 0]),
   midi.NoteOnEvent(tick=0, channel=1, data=[40, 127]),
   midi.NoteOnEvent(tick=0, channel=1, data=[52, 127]),
   midi.NoteOnEvent(tick=60, channel=1, data=[40, 0]),
   midi.NoteOnEvent(tick=0, channel=1, data=[52, 0]),
   midi.NoteOnEvent(tick=0, channel=1, data=[50, 127]),
   midi.NoteOnEvent(tick=60, channel=1, data=[50, 0]),
   midi.NoteOnEvent(tick=0, channel=1, data=[40, 127]),
   midi.NoteOnEvent(tick=0, channel=1, data=[52, 127]),
   midi.NoteOnEvent(tick=60, channel=1, data=[40, 0]),
   midi.NoteOnEvent(tick=0, channel=1, data=[52, 0]),
   midi.NoteOnEvent(tick=0, channel=1, data=[50, 127]),
   midi.NoteOnEvent(tick=60, channel=1, data=[50, 0]),
   midi.NoteOnEvent(tick=0, channel=1, data=[40, 127]),
   midi.NoteOnEvent(tick=0, channel=1, data=[52, 127]),
   midi.NoteOnEvent(tick=60, channel=1, data=[40, 0]),
   midi.NoteOnEvent(tick=0, channel=1, data=[52, 0]),
   midi.NoteOnEvent(tick=0, channel=1, data=[50, 127]),
   midi.NoteOnEvent(tick=60, channel=1, data=[50, 0]),
   midi.NoteOnEvent(tick=0, channel=1, data=[40, 127]),
   midi.NoteOnEvent(tick=0, channel=1, data=[52, 127]),
   midi.NoteOnEvent(tick=60, channel=1, data=[40, 0]),
   midi.NoteOnEvent(tick=0, channel=1, data=[52, 0]),
   midi.NoteOnEvent(tick=0, channel=1, data=[50, 127]),
   midi.NoteOnEvent(tick=60, channel=1, data=[50, 0]),
   midi.NoteOnEvent(tick=0, channel=1, data=[40, 127]),
   midi.NoteOnEvent(tick=0, channel=1, data=[52, 127]),
   midi.NoteOnEvent(tick=60, channel=1, data=[40, 0]),
   midi.NoteOnEvent(tick=0, channel=1, data=[52, 0]),
   midi.NoteOnEvent(tick=0, channel=1, data=[50, 127]),
   midi.NoteOnEvent(tick=60, channel=1, data=[50, 0]),
   midi.NoteOnEvent(tick=0, channel=1, data=[47, 127]),
   midi.NoteOnEvent(tick=0, channel=1, data=[50, 127]),
   midi.NoteOnEvent(tick=60, channel=1, data=[47, 0]),
   midi.NoteOnEvent(tick=0, channel=1, data=[50, 0]),
   midi.NoteOnEvent(tick=0, channel=1, data=[50, 127]),
   midi.NoteOnEvent(tick=60, channel=1, data=[50, 0]),
   midi.NoteOnEvent(tick=0, channel=1, data=[40, 127]),
   midi.NoteOnEvent(tick=0, channel=1, data=[52, 127]),
   midi.NoteOnEvent(tick=60, channel=1, data=[40, 0]),
   midi.NoteOnEvent(tick=0, channel=1, data=[52, 0]),
   midi.NoteOnEvent(tick=0, channel=1, data=[50, 127]),
   midi.NoteOnEvent(tick=60, channel=1, data=[50, 0]),
   midi.NoteOnEvent(tick=0, channel=1, data=[40, 127]),
   midi.NoteOnEvent(tick=0, channel=1, data=[52, 127]),
   midi.NoteOnEvent(tick=60, channel=1, data=[40, 0]),
   midi.NoteOnEvent(tick=0, channel=1, data=[52, 0]),
   midi.NoteOnEvent(tick=0, channel=1, data=[50, 127]),
   midi.NoteOnEvent(tick=60, channel=1, data=[50, 0]),
   midi.NoteOnEvent(tick=0, channel=1, data=[40, 127]),
   midi.NoteOnEvent(tick=0, channel=1, data=[52, 127]),
   midi.NoteOnEvent(tick=60, channel=1, data=[40, 0]),
   midi.NoteOnEvent(tick=0, channel=1, data=[52, 0]),
   midi.NoteOnEvent(tick=0, channel=1, data=[50, 127]),
   midi.NoteOnEvent(tick=60, channel=1, data=[50, 0]),
   midi.NoteOnEvent(tick=0, channel=1, data=[40, 127]),
   midi.NoteOnEvent(tick=0, channel=1, data=[52, 127]),
   midi.NoteOnEvent(tick=60, channel=1, data=[40, 0]),
   midi.NoteOnEvent(tick=0, channel=1, data=[52, 0]),
   midi.NoteOnEvent(tick=0, channel=1, data=[50, 127]),
   midi.NoteOnEvent(tick=60, channel=1, data=[50, 0]),
   midi.NoteOnEvent(tick=0, channel=1, data=[47, 127]),
   midi.NoteOnEvent(tick=60, channel=1, data=[47, 0]),
   midi.NoteOnEvent(tick=0, channel=1, data=[50, 127]),
   midi.NoteOnEvent(tick=60, channel=1, data=[50, 0]),
   midi.NoteOnEvent(tick=0, channel=1, data=[52, 127]),
   midi.NoteOnEvent(tick=60, channel=1, data=[52, 0]),
   midi.NoteOnEvent(tick=0, channel=1, data=[50, 127]),
   midi.NoteOnEvent(tick=60, channel=1, data=[50, 0]),
   midi.NoteOnEvent(tick=0, channel=1, data=[57, 127]),
   midi.NoteOnEvent(tick=60, channel=1, data=[57, 0]),
   midi.NoteOnEvent(tick=0, channel=1, data=[55, 127]),
   midi.NoteOnEvent(tick=60, channel=1, data=[55, 0]),
   midi.NoteOnEvent(tick=0, channel=1, data=[52, 127]),
   midi.NoteOnEvent(tick=60, channel=1, data=[52, 0]),
   midi.NoteOnEvent(tick=0, channel=1, data=[50, 127]),
   midi.NoteOnEvent(tick=60, channel=1, data=[50, 0]),
   midi.NoteOnEvent(tick=0, channel=1, data=[40, 127]),
   midi.NoteOnEvent(tick=0, channel=1, data=[52, 127]),
   midi.NoteOnEvent(tick=60, channel=1, data=[40, 0]),
   midi.NoteOnEvent(tick=0, channel=1, data=[52, 0]),
   midi.NoteOnEvent(tick=0, channel=1, data=[50, 127]),
   midi.NoteOnEvent(tick=60, channel=1, data=[50, 0]),
   midi.NoteOnEvent(tick=0, channel=1, data=[40, 127]),
   midi.NoteOnEvent(tick=0, channel=1, data=[52, 127]),
   midi.NoteOnEvent(tick=60, channel=1, data=[40, 0]),
   midi.NoteOnEvent(tick=0, channel=1, data=[52, 0]),
   midi.NoteOnEvent(tick=0, channel=1, data=[50, 127]),
   midi.NoteOnEvent(tick=60, channel=1, data=[50, 0]),
   midi.NoteOnEvent(tick=0, channel=1, data=[40, 127]),
   midi.NoteOnEvent(tick=0, channel=1, data=[52, 127]),
   midi.NoteOnEvent(tick=60, channel=1, data=[40, 0]),
   midi.NoteOnEvent(tick=0, channel=1, data=[52, 0]),
   midi.NoteOnEvent(tick=0, channel=1, data=[50, 127]),
   midi.NoteOnEvent(tick=60, channel=1, data=[50, 0]),
   midi.NoteOnEvent(tick=0, channel=1, data=[47, 127]),
   midi.NoteOnEvent(tick=0, channel=1, data=[50, 127]),
   midi.NoteOnEvent(tick=60, channel=1, data=[47, 0]),
   midi.NoteOnEvent(tick=0, channel=1, data=[50, 0]),
   midi.NoteOnEvent(tick=0, channel=1, data=[50, 127]),
   midi.NoteOnEvent(tick=60, channel=1, data=[50, 0]),
   midi.NoteOnEvent(tick=0, channel=1, data=[40, 127]),
   midi.NoteOnEvent(tick=0, channel=1, data=[52, 127]),
   midi.NoteOnEvent(tick=60, channel=1, data=[40, 0]),
   midi.NoteOnEvent(tick=0, channel=1, data=[52, 0]),
   midi.NoteOnEvent(tick=0, channel=1, data=[50, 127]),
   midi.NoteOnEvent(tick=60, channel=1, data=[50, 0]),
   midi.NoteOnEvent(tick=0, channel=1, data=[40, 127]),
   midi.NoteOnEvent(tick=0, channel=1, data=[52, 127]),
   midi.NoteOnEvent(tick=60, channel=1, data=[40, 0]),
   midi.NoteOnEvent(tick=0, channel=1, data=[52, 0]),
   midi.NoteOnEvent(tick=0, channel=1, data=[50, 127]),
   midi.NoteOnEvent(tick=60, channel=1, data=[50, 0]),
   midi.NoteOnEvent(tick=0, channel=1, data=[40, 127]),
   midi.NoteOnEvent(tick=0, channel=1, data=[52, 127]),
   midi.NoteOnEvent(tick=60, channel=1, data=[40, 0]),
   midi.NoteOnEvent(tick=0, channel=1, data=[52, 0]),
   midi.NoteOnEvent(tick=0, channel=1, data=[50, 127]),
   midi.NoteOnEvent(tick=60, channel=1, data=[50, 0]),
   midi.NoteOnEvent(tick=0, channel=1, data=[47, 127]),
   midi.NoteOnEvent(tick=0, channel=1, data=[50, 127]),
   midi.NoteOnEvent(tick=60, channel=1, data=[47, 0]),
   midi.NoteOnEvent(tick=0, channel=1, data=[50, 0]),
   midi.NoteOnEvent(tick=0, channel=1, data=[50, 127]),
   midi.NoteOnEvent(tick=60, channel=1, data=[50, 0]),
   midi.NoteOnEvent(tick=0, channel=1, data=[48, 127]),
   midi.NoteOnEvent(tick=0, channel=1, data=[55, 127]),
   midi.NoteOnEvent(tick=120, channel=1, data=[48, 0]),
   midi.NoteOnEvent(tick=0, channel=1, data=[55, 0]),
   midi.NoteOnEvent(tick=0, channel=1, data=[43, 127]),
   midi.NoteOnEvent(tick=0, channel=1, data=[50, 127]),
   midi.NoteOnEvent(tick=120, channel=1, data=[43, 0]),
   midi.NoteOnEvent(tick=0, channel=1, data=[50, 0]),
   midi.NoteOnEvent(tick=0, channel=1, data=[57, 127]),
   midi.NoteOnEvent(tick=0, channel=1, data=[50, 127]),
   midi.NoteOnEvent(tick=120, channel=1, data=[57, 0]),
   midi.NoteOnEvent(tick=0, channel=1, data=[50, 0]),
   midi.NoteOnEvent(tick=0, channel=1, data=[48, 127]),
   midi.NoteOnEvent(tick=0, channel=1, data=[55, 127]),
   midi.NoteOnEvent(tick=120, channel=1, data=[48, 0]),
   midi.NoteOnEvent(tick=0, channel=1, data=[55, 0]),
   midi.NoteOnEvent(tick=0, channel=1, data=[40, 127]),
   midi.NoteOnEvent(tick=0, channel=1, data=[52, 127]),
   midi.NoteOnEvent(tick=60, channel=1, data=[40, 0]),
   midi.NoteOnEvent(tick=0, channel=1, data=[52, 0]),
   midi.NoteOnEvent(tick=0, channel=1, data=[50, 127]),
   midi.NoteOnEvent(tick=60, channel=1, data=[50, 0]),
   midi.NoteOnEvent(tick=0, channel=1, data=[40, 127]),
   midi.NoteOnEvent(tick=0, channel=1, data=[52, 127]),
   midi.NoteOnEvent(tick=60, channel=1, data=[40, 0]),
   midi.NoteOnEvent(tick=0, channel=1, data=[52, 0]),
   midi.NoteOnEvent(tick=0, channel=1, data=[50, 127]),
   midi.NoteOnEvent(tick=60, channel=1, data=[50, 0]),
   midi.NoteOnEvent(tick=0, channel=1, data=[40, 127]),
   midi.NoteOnEvent(tick=0, channel=1, data=[52, 127]),
   midi.NoteOnEvent(tick=60, channel=1, data=[40, 0]),
   midi.NoteOnEvent(tick=0, channel=1, data=[52, 0]),
   midi.NoteOnEvent(tick=0, channel=1, data=[50, 127]),
   midi.NoteOnEvent(tick=60, channel=1, data=[50, 0]),
   midi.NoteOnEvent(tick=0, channel=1, data=[40, 127]),
   midi.NoteOnEvent(tick=0, channel=1, data=[52, 127]),
   midi.NoteOnEvent(tick=60, channel=1, data=[40, 0]),
   midi.NoteOnEvent(tick=0, channel=1, data=[52, 0]),
   midi.NoteOnEvent(tick=0, channel=1, data=[50, 127]),
   midi.NoteOnEvent(tick=60, channel=1, data=[50, 0]),
   midi.NoteOnEvent(tick=0, channel=1, data=[40, 127]),
   midi.NoteOnEvent(tick=0, channel=1, data=[52, 127]),
   midi.NoteOnEvent(tick=60, channel=1, data=[40, 0]),
   midi.NoteOnEvent(tick=0, channel=1, data=[52, 0]),
   midi.NoteOnEvent(tick=0, channel=1, data=[50, 127]),
   midi.NoteOnEvent(tick=60, channel=1, data=[50, 0]),
   midi.NoteOnEvent(tick=0, channel=1, data=[40, 127]),
   midi.NoteOnEvent(tick=0, channel=1, data=[52, 127]),
   midi.NoteOnEvent(tick=60, channel=1, data=[40, 0]),
   midi.NoteOnEvent(tick=0, channel=1, data=[52, 0]),
   midi.NoteOnEvent(tick=0, channel=1, data=[50, 127]),
   midi.NoteOnEvent(tick=60, channel=1, data=[50, 0]),
   midi.NoteOnEvent(tick=0, channel=1, data=[40, 127]),
   midi.NoteOnEvent(tick=0, channel=1, data=[52, 127]),
   midi.NoteOnEvent(tick=60, channel=1, data=[40, 0]),
   midi.NoteOnEvent(tick=0, channel=1, data=[52, 0]),
   midi.NoteOnEvent(tick=0, channel=1, data=[50, 127]),
   midi.NoteOnEvent(tick=60, channel=1, data=[50, 0]),
   midi.NoteOnEvent(tick=0, channel=1, data=[47, 127]),
   midi.NoteOnEvent(tick=0, channel=1, data=[50, 127]),
   midi.NoteOnEvent(tick=60, channel=1, data=[47, 0]),
   midi.NoteOnEvent(tick=0, channel=1, data=[50, 0]),
   midi.NoteOnEvent(tick=0, channel=1, data=[50, 127]),
   midi.NoteOnEvent(tick=60, channel=1, data=[50, 0]),
   midi.NoteOnEvent(tick=0, channel=1, data=[40, 127]),
   midi.NoteOnEvent(tick=0, channel=1, data=[52, 127]),
   midi.NoteOnEvent(tick=60, channel=1, data=[40, 0]),
   midi.NoteOnEvent(tick=0, channel=1, data=[52, 0]),
   midi.NoteOnEvent(tick=0, channel=1, data=[50, 127]),
   midi.NoteOnEvent(tick=60, channel=1, data=[50, 0]),
   midi.NoteOnEvent(tick=0, channel=1, data=[40, 127]),
   midi.NoteOnEvent(tick=0, channel=1, data=[52, 127]),
   midi.NoteOnEvent(tick=60, channel=1, data=[40, 0]),
   midi.NoteOnEvent(tick=0, channel=1, data=[52, 0]),
   midi.NoteOnEvent(tick=0, channel=1, data=[50, 127]),
   midi.NoteOnEvent(tick=60, channel=1, data=[50, 0]),
   midi.NoteOnEvent(tick=0, channel=1, data=[40, 127]),
   midi.NoteOnEvent(tick=0, channel=1, data=[52, 127]),
   midi.NoteOnEvent(tick=60, channel=1, data=[40, 0]),
   midi.NoteOnEvent(tick=0, channel=1, data=[52, 0]),
   midi.NoteOnEvent(tick=0, channel=1, data=[50, 127]),
   midi.NoteOnEvent(tick=60, channel=1, data=[50, 0]),
   midi.NoteOnEvent(tick=0, channel=1, data=[40, 127]),
   midi.NoteOnEvent(tick=0, channel=1, data=[52, 127]),
   midi.NoteOnEvent(tick=60, channel=1, data=[40, 0]),
   midi.NoteOnEvent(tick=0, channel=1, data=[52, 0]),
   midi.NoteOnEvent(tick=0, channel=1, data=[50, 127]),
   midi.NoteOnEvent(tick=60, channel=1, data=[50, 0]),
   midi.NoteOnEvent(tick=0, channel=1, data=[47, 127]),
   midi.NoteOnEvent(tick=60, channel=1, data=[47, 0]),
   midi.NoteOnEvent(tick=0, channel=1, data=[50, 127]),
   midi.NoteOnEvent(tick=60, channel=1, data=[50, 0]),
   midi.NoteOnEvent(tick=0, channel=1, data=[52, 127]),
   midi.NoteOnEvent(tick=60, channel=1, data=[52, 0]),
   midi.NoteOnEvent(tick=0, channel=1, data=[50, 127]),
   midi.NoteOnEvent(tick=60, channel=1, data=[50, 0]),
   midi.NoteOnEvent(tick=0, channel=1, data=[57, 127]),
   midi.NoteOnEvent(tick=60, channel=1, data=[57, 0]),
   midi.NoteOnEvent(tick=0, channel=1, data=[55, 127]),
   midi.NoteOnEvent(tick=60, channel=1, data=[55, 0]),
   midi.NoteOnEvent(tick=0, channel=1, data=[52, 127]),
   midi.NoteOnEvent(tick=60, channel=1, data=[52, 0]),
   midi.NoteOnEvent(tick=0, channel=1, data=[50, 127]),
   midi.NoteOnEvent(tick=60, channel=1, data=[50, 0]),
   midi.NoteOnEvent(tick=0, channel=1, data=[40, 127]),
   midi.NoteOnEvent(tick=0, channel=1, data=[52, 127]),
   midi.NoteOnEvent(tick=60, channel=1, data=[40, 0]),
   midi.NoteOnEvent(tick=0, channel=1, data=[52, 0]),
   midi.NoteOnEvent(tick=0, channel=1, data=[50, 127]),
   midi.NoteOnEvent(tick=60, channel=1, data=[50, 0]),
   midi.NoteOnEvent(tick=0, channel=1, data=[40, 127]),
   midi.NoteOnEvent(tick=0, channel=1, data=[52, 127]),
   midi.NoteOnEvent(tick=60, channel=1, data=[40, 0]),
   midi.NoteOnEvent(tick=0, channel=1, data=[52, 0]),
   midi.NoteOnEvent(tick=0, channel=1, data=[50, 127]),
   midi.NoteOnEvent(tick=60, channel=1, data=[50, 0]),
   midi.NoteOnEvent(tick=0, channel=1, data=[40, 127]),
   midi.NoteOnEvent(tick=0, channel=1, data=[52, 127]),
   midi.NoteOnEvent(tick=60, channel=1, data=[40, 0]),
   midi.NoteOnEvent(tick=0, channel=1, data=[52, 0]),
   midi.NoteOnEvent(tick=0, channel=1, data=[50, 127]),
   midi.NoteOnEvent(tick=60, channel=1, data=[50, 0]),
   midi.NoteOnEvent(tick=0, channel=1, data=[47, 127]),
   midi.NoteOnEvent(tick=0, channel=1, data=[50, 127]),
   midi.NoteOnEvent(tick=60, channel=1, data=[47, 0]),
   midi.NoteOnEvent(tick=0, channel=1, data=[50, 0]),
   midi.NoteOnEvent(tick=0, channel=1, data=[50, 127]),
   midi.NoteOnEvent(tick=60, channel=1, data=[50, 0]),
   midi.NoteOnEvent(tick=0, channel=1, data=[40, 127]),
   midi.NoteOnEvent(tick=0, channel=1, data=[52, 127]),
   midi.NoteOnEvent(tick=60, channel=1, data=[40, 0]),
   midi.NoteOnEvent(tick=0, channel=1, data=[52, 0]),
   midi.NoteOnEvent(tick=0, channel=1, data=[50, 127]),
   midi.NoteOnEvent(tick=60, channel=1, data=[50, 0]),
   midi.NoteOnEvent(tick=0, channel=1, data=[40, 127]),
   midi.NoteOnEvent(tick=0, channel=1, data=[52, 127]),
   midi.NoteOnEvent(tick=60, channel=1, data=[40, 0]),
   midi.NoteOnEvent(tick=0, channel=1, data=[52, 0]),
   midi.NoteOnEvent(tick=0, channel=1, data=[50, 127]),
   midi.NoteOnEvent(tick=60, channel=1, data=[50, 0]),
   midi.NoteOnEvent(tick=0, channel=1, data=[40, 127]),
   midi.NoteOnEvent(tick=0, channel=1, data=[52, 127]),
   midi.NoteOnEvent(tick=60, channel=1, data=[40, 0]),
   midi.NoteOnEvent(tick=0, channel=1, data=[52, 0]),
   midi.NoteOnEvent(tick=0, channel=1, data=[50, 127]),
   midi.NoteOnEvent(tick=60, channel=1, data=[50, 0]),
   midi.NoteOnEvent(tick=0, channel=1, data=[47, 127]),
   midi.NoteOnEvent(tick=0, channel=1, data=[50, 127]),
   midi.NoteOnEvent(tick=60, channel=1, data=[47, 0]),
   midi.NoteOnEvent(tick=0, channel=1, data=[50, 0]),
   midi.NoteOnEvent(tick=0, channel=1, data=[50, 127]),
   midi.NoteOnEvent(tick=60, channel=1, data=[50, 0]),
   midi.NoteOnEvent(tick=0, channel=1, data=[48, 127]),
   midi.NoteOnEvent(tick=0, channel=1, data=[55, 127]),
   midi.NoteOnEvent(tick=120, channel=1, data=[48, 0]),
   midi.NoteOnEvent(tick=0, channel=1, data=[55, 0]),
   midi.NoteOnEvent(tick=0, channel=1, data=[43, 127]),
   midi.NoteOnEvent(tick=0, channel=1, data=[50, 127]),
   midi.NoteOnEvent(tick=120, channel=1, data=[43, 0]),
   midi.NoteOnEvent(tick=0, channel=1, data=[50, 0]),
   midi.NoteOnEvent(tick=0, channel=1, data=[57, 127]),
   midi.NoteOnEvent(tick=0, channel=1, data=[50, 127]),
   midi.NoteOnEvent(tick=120, channel=1, data=[57, 0]),
   midi.NoteOnEvent(tick=0, channel=1, data=[50, 0]),
   midi.NoteOnEvent(tick=0, channel=1, data=[48, 127]),
   midi.NoteOnEvent(tick=0, channel=1, data=[55, 127]),
   midi.NoteOnEvent(tick=120, channel=1, data=[48, 0]),
   midi.NoteOnEvent(tick=0, channel=1, data=[55, 0]),
   midi.NoteOnEvent(tick=0, channel=1, data=[40, 127]),
   midi.NoteOnEvent(tick=40, channel=1, data=[40, 0]),
   midi.NoteOnEvent(tick=0, channel=1, data=[40, 127]),
   midi.NoteOnEvent(tick=40, channel=1, data=[40, 0]),
   midi.NoteOnEvent(tick=0, channel=1, data=[40, 127]),
   midi.NoteOnEvent(tick=40, channel=1, data=[40, 0]),
   midi.NoteOnEvent(tick=0, channel=1, data=[59, 127]),
   midi.NoteOnEvent(tick=0, channel=1, data=[52, 127]),
   midi.NoteOnEvent(tick=120, channel=1, data=[59, 0]),
   midi.NoteOnEvent(tick=0, channel=1, data=[52, 0]),
   midi.NoteOnEvent(tick=0, channel=1, data=[40, 127]),
   midi.NoteOnEvent(tick=40, channel=1, data=[40, 0]),
   midi.NoteOnEvent(tick=0, channel=1, data=[40, 127]),
   midi.NoteOnEvent(tick=40, channel=1, data=[40, 0]),
   midi.NoteOnEvent(tick=0, channel=1, data=[40, 127]),
   midi.NoteOnEvent(tick=40, channel=1, data=[40, 0]),
   midi.NoteOnEvent(tick=0, channel=1, data=[59, 127]),
   midi.NoteOnEvent(tick=0, channel=1, data=[52, 127]),
   midi.NoteOnEvent(tick=120, channel=1, data=[59, 0]),
   midi.NoteOnEvent(tick=0, channel=1, data=[52, 0]),
   midi.NoteOnEvent(tick=0, channel=1, data=[40, 127]),
   midi.NoteOnEvent(tick=40, channel=1, data=[40, 0]),
   midi.NoteOnEvent(tick=0, channel=1, data=[40, 127]),
   midi.NoteOnEvent(tick=40, channel=1, data=[40, 0]),
   midi.NoteOnEvent(tick=0, channel=1, data=[40, 127]),
   midi.NoteOnEvent(tick=40, channel=1, data=[40, 0]),
   midi.NoteOnEvent(tick=0, channel=1, data=[59, 127]),
   midi.NoteOnEvent(tick=0, channel=1, data=[52, 127]),
   midi.NoteOnEvent(tick=120, channel=1, data=[59, 0]),
   midi.NoteOnEvent(tick=0, channel=1, data=[52, 0]),
   midi.NoteOnEvent(tick=0, channel=1, data=[50, 127]),
   midi.NoteOnEvent(tick=0, channel=1, data=[57, 127]),
   midi.NoteOnEvent(tick=120, channel=1, data=[50, 0]),
   midi.NoteOnEvent(tick=0, channel=1, data=[57, 0]),
   midi.NoteOnEvent(tick=0, channel=1, data=[50, 127]),
   midi.NoteOnEvent(tick=0, channel=1, data=[57, 127]),
   midi.NoteOnEvent(tick=120, channel=1, data=[50, 0]),
   midi.NoteOnEvent(tick=0, channel=1, data=[57, 0]),
   midi.NoteOnEvent(tick=0, channel=1, data=[40, 127]),
   midi.NoteOnEvent(tick=40, channel=1, data=[40, 0]),
   midi.NoteOnEvent(tick=0, channel=1, data=[40, 127]),
   midi.NoteOnEvent(tick=40, channel=1, data=[40, 0]),
   midi.NoteOnEvent(tick=0, channel=1, data=[40, 127]),
   midi.NoteOnEvent(tick=40, channel=1, data=[40, 0]),
   midi.NoteOnEvent(tick=0, channel=1, data=[59, 127]),
   midi.NoteOnEvent(tick=0, channel=1, data=[52, 127]),
   midi.NoteOnEvent(tick=120, channel=1, data=[59, 0]),
   midi.NoteOnEvent(tick=0, channel=1, data=[52, 0]),
   midi.NoteOnEvent(tick=0, channel=1, data=[40, 127]),
   midi.NoteOnEvent(tick=40, channel=1, data=[40, 0]),
   midi.NoteOnEvent(tick=0, channel=1, data=[40, 127]),
   midi.NoteOnEvent(tick=40, channel=1, data=[40, 0]),
   midi.NoteOnEvent(tick=0, channel=1, data=[40, 127]),
   midi.NoteOnEvent(tick=40, channel=1, data=[40, 0]),
   midi.NoteOnEvent(tick=0, channel=1, data=[59, 127]),
   midi.NoteOnEvent(tick=0, channel=1, data=[52, 127]),
   midi.NoteOnEvent(tick=120, channel=1, data=[59, 0]),
   midi.NoteOnEvent(tick=0, channel=1, data=[52, 0]),
   midi.NoteOnEvent(tick=0, channel=1, data=[40, 127]),
   midi.NoteOnEvent(tick=40, channel=1, data=[40, 0]),
   midi.NoteOnEvent(tick=0, channel=1, data=[40, 127]),
   midi.NoteOnEvent(tick=40, channel=1, data=[40, 0]),
   midi.NoteOnEvent(tick=0, channel=1, data=[40, 127]),
   midi.NoteOnEvent(tick=40, channel=1, data=[40, 0]),
   midi.NoteOnEvent(tick=0, channel=1, data=[59, 127]),
   midi.NoteOnEvent(tick=0, channel=1, data=[52, 127]),
   midi.NoteOnEvent(tick=120, channel=1, data=[59, 0]),
   midi.NoteOnEvent(tick=0, channel=1, data=[52, 0]),
   midi.NoteOnEvent(tick=0, channel=1, data=[55, 127]),
   midi.NoteOnEvent(tick=0, channel=1, data=[48, 127]),
   midi.NoteOnEvent(tick=120, channel=1, data=[55, 0]),
   midi.NoteOnEvent(tick=0, channel=1, data=[48, 0]),
   midi.NoteOnEvent(tick=0, channel=1, data=[50, 127]),
   midi.NoteOnEvent(tick=0, channel=1, data=[57, 127]),
   midi.NoteOnEvent(tick=120, channel=1, data=[50, 0]),
   midi.NoteOnEvent(tick=0, channel=1, data=[57, 0]),
   midi.NoteOnEvent(tick=0, channel=1, data=[40, 127]),
   midi.NoteOnEvent(tick=40, channel=1, data=[40, 0]),
   midi.NoteOnEvent(tick=0, channel=1, data=[40, 127]),
   midi.NoteOnEvent(tick=40, channel=1, data=[40, 0]),
   midi.NoteOnEvent(tick=0, channel=1, data=[40, 127]),
   midi.NoteOnEvent(tick=40, channel=1, data=[40, 0]),
   midi.NoteOnEvent(tick=0, channel=1, data=[59, 127]),
   midi.NoteOnEvent(tick=0, channel=1, data=[52, 127]),
   midi.NoteOnEvent(tick=120, channel=1, data=[59, 0]),
   midi.NoteOnEvent(tick=0, channel=1, data=[52, 0]),
   midi.NoteOnEvent(tick=0, channel=1, data=[40, 127]),
   midi.NoteOnEvent(tick=40, channel=1, data=[40, 0]),
   midi.NoteOnEvent(tick=0, channel=1, data=[40, 127]),
   midi.NoteOnEvent(tick=40, channel=1, data=[40, 0]),
   midi.NoteOnEvent(tick=0, channel=1, data=[40, 127]),
   midi.NoteOnEvent(tick=40, channel=1, data=[40, 0]),
   midi.NoteOnEvent(tick=0, channel=1, data=[59, 127]),
   midi.NoteOnEvent(tick=0, channel=1, data=[52, 127]),
   midi.NoteOnEvent(tick=120, channel=1, data=[59, 0]),
   midi.NoteOnEvent(tick=0, channel=1, data=[52, 0]),
   midi.NoteOnEvent(tick=0, channel=1, data=[40, 127]),
   midi.NoteOnEvent(tick=40, channel=1, data=[40, 0]),
   midi.NoteOnEvent(tick=0, channel=1, data=[40, 127]),
   midi.NoteOnEvent(tick=40, channel=1, data=[40, 0]),
   midi.NoteOnEvent(tick=0, channel=1, data=[40, 127]),
   midi.NoteOnEvent(tick=40, channel=1, data=[40, 0]),
   midi.NoteOnEvent(tick=0, channel=1, data=[59, 127]),
   midi.NoteOnEvent(tick=0, channel=1, data=[52, 127]),
   midi.NoteOnEvent(tick=120, channel=1, data=[59, 0]),
   midi.NoteOnEvent(tick=0, channel=1, data=[52, 0]),
   midi.NoteOnEvent(tick=0, channel=1, data=[62, 127]),
   midi.NoteOnEvent(tick=0, channel=1, data=[55, 127]),
   midi.NoteOnEvent(tick=120, channel=1, data=[62, 0]),
   midi.NoteOnEvent(tick=0, channel=1, data=[55, 0]),
   midi.NoteOnEvent(tick=0, channel=1, data=[52, 127]),
   midi.NoteOnEvent(tick=0, channel=1, data=[59, 127]),
   midi.NoteOnEvent(tick=120, channel=1, data=[52, 0]),
   midi.NoteOnEvent(tick=0, channel=1, data=[59, 0]),
   midi.NoteOnEvent(tick=0, channel=1, data=[43, 127]),
   midi.NoteOnEvent(tick=0, channel=1, data=[48, 127]),
   midi.NoteOnEvent(tick=0, channel=1, data=[55, 127]),
   midi.NoteOnEvent(tick=120, channel=1, data=[43, 0]),
   midi.NoteOnEvent(tick=0, channel=1, data=[48, 0]),
   midi.NoteOnEvent(tick=0, channel=1, data=[55, 0]),
   midi.NoteOnEvent(tick=0, channel=1, data=[50, 127]),
   midi.NoteOnEvent(tick=0, channel=1, data=[43, 127]),
   midi.NoteOnEvent(tick=120, channel=1, data=[50, 0]),
   midi.NoteOnEvent(tick=0, channel=1, data=[43, 0]),
   midi.NoteOnEvent(tick=0, channel=1, data=[50, 127]),
   midi.NoteOnEvent(tick=0, channel=1, data=[57, 127]),
   midi.NoteOnEvent(tick=120, channel=1, data=[50, 0]),
   midi.NoteOnEvent(tick=0, channel=1, data=[57, 0]),
   midi.NoteOnEvent(tick=0, channel=1, data=[55, 127]),
   midi.NoteOnEvent(tick=0, channel=1, data=[48, 127]),
   midi.NoteOnEvent(tick=120, channel=1, data=[55, 0]),
   midi.NoteOnEvent(tick=0, channel=1, data=[48, 0]),
   midi.NoteOnEvent(tick=0, channel=1, data=[40, 127]),
   midi.NoteOnEvent(tick=40, channel=1, data=[40, 0]),
   midi.NoteOnEvent(tick=0, channel=1, data=[40, 127]),
   midi.NoteOnEvent(tick=40, channel=1, data=[40, 0]),
   midi.NoteOnEvent(tick=0, channel=1, data=[40, 127]),
   midi.NoteOnEvent(tick=40, channel=1, data=[40, 0]),
   midi.NoteOnEvent(tick=0, channel=1, data=[59, 127]),
   midi.NoteOnEvent(tick=0, channel=1, data=[52, 127]),
   midi.NoteOnEvent(tick=120, channel=1, data=[59, 0]),
   midi.NoteOnEvent(tick=0, channel=1, data=[52, 0]),
   midi.NoteOnEvent(tick=0, channel=1, data=[40, 127]),
   midi.NoteOnEvent(tick=40, channel=1, data=[40, 0]),
   midi.NoteOnEvent(tick=0, channel=1, data=[40, 127]),
   midi.NoteOnEvent(tick=40, channel=1, data=[40, 0]),
   midi.NoteOnEvent(tick=0, channel=1, data=[40, 127]),
   midi.NoteOnEvent(tick=40, channel=1, data=[40, 0]),
   midi.NoteOnEvent(tick=0, channel=1, data=[59, 127]),
   midi.NoteOnEvent(tick=0, channel=1, data=[52, 127]),
   midi.NoteOnEvent(tick=120, channel=1, data=[59, 0]),
   midi.NoteOnEvent(tick=0, channel=1, data=[52, 0]),
   midi.NoteOnEvent(tick=0, channel=1, data=[40, 127]),
   midi.NoteOnEvent(tick=40, channel=1, data=[40, 0]),
   midi.NoteOnEvent(tick=0, channel=1, data=[40, 127]),
   midi.NoteOnEvent(tick=40, channel=1, data=[40, 0]),
   midi.NoteOnEvent(tick=0, channel=1, data=[40, 127]),
   midi.NoteOnEvent(tick=40, channel=1, data=[40, 0]),
   midi.NoteOnEvent(tick=0, channel=1, data=[59, 127]),
   midi.NoteOnEvent(tick=0, channel=1, data=[52, 127]),
   midi.NoteOnEvent(tick=120, channel=1, data=[59, 0]),
   midi.NoteOnEvent(tick=0, channel=1, data=[52, 0]),
   midi.NoteOnEvent(tick=0, channel=1, data=[50, 127]),
   midi.NoteOnEvent(tick=0, channel=1, data=[57, 127]),
   midi.NoteOnEvent(tick=120, channel=1, data=[50, 0]),
   midi.NoteOnEvent(tick=0, channel=1, data=[57, 0]),
   midi.NoteOnEvent(tick=0, channel=1, data=[50, 127]),
   midi.NoteOnEvent(tick=0, channel=1, data=[57, 127]),
   midi.NoteOnEvent(tick=120, channel=1, data=[50, 0]),
   midi.NoteOnEvent(tick=0, channel=1, data=[57, 0]),
   midi.NoteOnEvent(tick=0, channel=1, data=[40, 127]),
   midi.NoteOnEvent(tick=40, channel=1, data=[40, 0]),
   midi.NoteOnEvent(tick=0, channel=1, data=[40, 127]),
   midi.NoteOnEvent(tick=40, channel=1, data=[40, 0]),
   midi.NoteOnEvent(tick=0, channel=1, data=[40, 127]),
   midi.NoteOnEvent(tick=40, channel=1, data=[40, 0]),
   midi.NoteOnEvent(tick=0, channel=1, data=[59, 127]),
   midi.NoteOnEvent(tick=0, channel=1, data=[52, 127]),
   midi.NoteOnEvent(tick=120, channel=1, data=[59, 0]),
   midi.NoteOnEvent(tick=0, channel=1, data=[52, 0]),
   midi.NoteOnEvent(tick=0, channel=1, data=[40, 127]),
   midi.NoteOnEvent(tick=40, channel=1, data=[40, 0]),
   midi.NoteOnEvent(tick=0, channel=1, data=[40, 127]),
   midi.NoteOnEvent(tick=40, channel=1, data=[40, 0]),
   midi.NoteOnEvent(tick=0, channel=1, data=[40, 127]),
   midi.NoteOnEvent(tick=40, channel=1, data=[40, 0]),
   midi.NoteOnEvent(tick=0, channel=1, data=[59, 127]),
   midi.NoteOnEvent(tick=0, channel=1, data=[52, 127]),
   midi.NoteOnEvent(tick=120, channel=1, data=[59, 0]),
   midi.NoteOnEvent(tick=0, channel=1, data=[52, 0]),
   midi.NoteOnEvent(tick=0, channel=1, data=[40, 127]),
   midi.NoteOnEvent(tick=40, channel=1, data=[40, 0]),
   midi.NoteOnEvent(tick=0, channel=1, data=[40, 127]),
   midi.NoteOnEvent(tick=40, channel=1, data=[40, 0]),
   midi.NoteOnEvent(tick=0, channel=1, data=[40, 127]),
   midi.NoteOnEvent(tick=40, channel=1, data=[40, 0]),
   midi.NoteOnEvent(tick=0, channel=1, data=[59, 127]),
   midi.NoteOnEvent(tick=0, channel=1, data=[52, 127]),
   midi.NoteOnEvent(tick=120, channel=1, data=[59, 0]),
   midi.NoteOnEvent(tick=0, channel=1, data=[52, 0]),
   midi.NoteOnEvent(tick=0, channel=1, data=[55, 127]),
   midi.NoteOnEvent(tick=0, channel=1, data=[48, 127]),
   midi.NoteOnEvent(tick=120, channel=1, data=[55, 0]),
   midi.NoteOnEvent(tick=0, channel=1, data=[48, 0]),
   midi.NoteOnEvent(tick=0, channel=1, data=[50, 127]),
   midi.NoteOnEvent(tick=0, channel=1, data=[57, 127]),
   midi.NoteOnEvent(tick=120, channel=1, data=[50, 0]),
   midi.NoteOnEvent(tick=0, channel=1, data=[57, 0]),
   midi.NoteOnEvent(tick=0, channel=1, data=[40, 127]),
   midi.NoteOnEvent(tick=40, channel=1, data=[40, 0]),
   midi.NoteOnEvent(tick=0, channel=1, data=[40, 127]),
   midi.NoteOnEvent(tick=40, channel=1, data=[40, 0]),
   midi.NoteOnEvent(tick=0, channel=1, data=[40, 127]),
   midi.NoteOnEvent(tick=40, channel=1, data=[40, 0]),
   midi.NoteOnEvent(tick=0, channel=1, data=[59, 127]),
   midi.NoteOnEvent(tick=0, channel=1, data=[52, 127]),
   midi.NoteOnEvent(tick=120, channel=1, data=[59, 0]),
   midi.NoteOnEvent(tick=0, channel=1, data=[52, 0]),
   midi.NoteOnEvent(tick=0, channel=1, data=[40, 127]),
   midi.NoteOnEvent(tick=40, channel=1, data=[40, 0]),
   midi.NoteOnEvent(tick=0, channel=1, data=[40, 127]),
   midi.NoteOnEvent(tick=40, channel=1, data=[40, 0]),
   midi.NoteOnEvent(tick=0, channel=1, data=[40, 127]),
   midi.NoteOnEvent(tick=40, channel=1, data=[40, 0]),
   midi.NoteOnEvent(tick=0, channel=1, data=[59, 127]),
   midi.NoteOnEvent(tick=0, channel=1, data=[52, 127]),
   midi.NoteOnEvent(tick=120, channel=1, data=[59, 0]),
   midi.NoteOnEvent(tick=0, channel=1, data=[52, 0]),
   midi.NoteOnEvent(tick=0, channel=1, data=[40, 127]),
   midi.NoteOnEvent(tick=40, channel=1, data=[40, 0]),
   midi.NoteOnEvent(tick=0, channel=1, data=[40, 127]),
   midi.NoteOnEvent(tick=40, channel=1, data=[40, 0]),
   midi.NoteOnEvent(tick=0, channel=1, data=[40, 127]),
   midi.NoteOnEvent(tick=40, channel=1, data=[40, 0]),
   midi.NoteOnEvent(tick=0, channel=1, data=[59, 127]),
   midi.NoteOnEvent(tick=0, channel=1, data=[52, 127]),
   midi.NoteOnEvent(tick=120, channel=1, data=[59, 0]),
   midi.NoteOnEvent(tick=0, channel=1, data=[52, 0]),
   midi.NoteOnEvent(tick=0, channel=1, data=[62, 127]),
   midi.NoteOnEvent(tick=0, channel=1, data=[55, 127]),
   midi.NoteOnEvent(tick=120, channel=1, data=[62, 0]),
   midi.NoteOnEvent(tick=0, channel=1, data=[55, 0]),
   midi.NoteOnEvent(tick=0, channel=1, data=[52, 127]),
   midi.NoteOnEvent(tick=0, channel=1, data=[59, 127]),
   midi.NoteOnEvent(tick=120, channel=1, data=[52, 0]),
   midi.NoteOnEvent(tick=0, channel=1, data=[59, 0]),
   midi.NoteOnEvent(tick=0, channel=1, data=[43, 127]),
   midi.NoteOnEvent(tick=0, channel=1, data=[48, 127]),
   midi.NoteOnEvent(tick=0, channel=1, data=[55, 127]),
   midi.NoteOnEvent(tick=120, channel=1, data=[43, 0]),
   midi.NoteOnEvent(tick=0, channel=1, data=[48, 0]),
   midi.NoteOnEvent(tick=0, channel=1, data=[55, 0]),
   midi.NoteOnEvent(tick=0, channel=1, data=[50, 127]),
   midi.NoteOnEvent(tick=0, channel=1, data=[43, 127]),
   midi.NoteOnEvent(tick=120, channel=1, data=[50, 0]),
   midi.NoteOnEvent(tick=0, channel=1, data=[43, 0]),
   midi.NoteOnEvent(tick=0, channel=1, data=[50, 127]),
   midi.NoteOnEvent(tick=0, channel=1, data=[57, 127]),
   midi.NoteOnEvent(tick=120, channel=1, data=[50, 0]),
   midi.NoteOnEvent(tick=0, channel=1, data=[57, 0]),
   midi.NoteOnEvent(tick=0, channel=1, data=[55, 127]),
   midi.NoteOnEvent(tick=0, channel=1, data=[48, 127]),
   midi.NoteOnEvent(tick=120, channel=1, data=[55, 0]),
   midi.NoteOnEvent(tick=0, channel=1, data=[48, 0]),
   midi.NoteOnEvent(tick=0, channel=1, data=[59, 127]),
   midi.NoteOnEvent(tick=0, channel=1, data=[52, 127]),
   midi.NoteOnEvent(tick=780, channel=1, data=[59, 0]),
   midi.NoteOnEvent(tick=0, channel=1, data=[52, 0]),
   midi.NoteOnEvent(tick=0, channel=1, data=[52, 127]),
   midi.NoteOnEvent(tick=0, channel=1, data=[59, 127]),
   midi.NoteOnEvent(tick=60, channel=1, data=[52, 0]),
   midi.NoteOnEvent(tick=0, channel=1, data=[59, 0]),
   midi.NoteOnEvent(tick=0, channel=1, data=[52, 127]),
   midi.NoteOnEvent(tick=0, channel=1, data=[59, 127]),
   midi.NoteOnEvent(tick=120, channel=1, data=[52, 0]),
   midi.NoteOnEvent(tick=0, channel=1, data=[59, 0]),
   midi.NoteOnEvent(tick=0, channel=1, data=[57, 127]),
   midi.NoteOnEvent(tick=0, channel=1, data=[50, 127]),
   midi.NoteOnEvent(tick=780, channel=1, data=[57, 0]),
   midi.NoteOnEvent(tick=0, channel=1, data=[50, 0]),
   midi.NoteOnEvent(tick=0, channel=1, data=[50, 127]),
   midi.NoteOnEvent(tick=0, channel=1, data=[57, 127]),
   midi.NoteOnEvent(tick=60, channel=1, data=[50, 0]),
   midi.NoteOnEvent(tick=0, channel=1, data=[57, 0]),
   midi.NoteOnEvent(tick=0, channel=1, data=[50, 127]),
   midi.NoteOnEvent(tick=0, channel=1, data=[57, 127]),
   midi.NoteOnEvent(tick=120, channel=1, data=[50, 0]),
   midi.NoteOnEvent(tick=0, channel=1, data=[57, 0]),
   midi.NoteOnEvent(tick=0, channel=1, data=[55, 127]),
   midi.NoteOnEvent(tick=0, channel=1, data=[48, 127]),
   midi.NoteOnEvent(tick=780, channel=1, data=[55, 0]),
   midi.NoteOnEvent(tick=0, channel=1, data=[48, 0]),
   midi.NoteOnEvent(tick=0, channel=1, data=[48, 127]),
   midi.NoteOnEvent(tick=0, channel=1, data=[55, 127]),
   midi.NoteOnEvent(tick=60, channel=1, data=[48, 0]),
   midi.NoteOnEvent(tick=0, channel=1, data=[55, 0]),
   midi.NoteOnEvent(tick=0, channel=1, data=[48, 127]),
   midi.NoteOnEvent(tick=0, channel=1, data=[55, 127]),
   midi.NoteOnEvent(tick=120, channel=1, data=[48, 0]),
   midi.NoteOnEvent(tick=0, channel=1, data=[55, 0]),
   midi.NoteOnEvent(tick=0, channel=1, data=[54, 127]),
   midi.NoteOnEvent(tick=0, channel=1, data=[47, 127]),
   midi.NoteOnEvent(tick=480, channel=1, data=[54, 0]),
   midi.NoteOnEvent(tick=0, channel=1, data=[47, 0]),
   midi.NoteOnEvent(tick=0, channel=1, data=[47, 127]),
   midi.NoteOnEvent(tick=0, channel=1, data=[54, 127]),
   midi.NoteOnEvent(tick=480, channel=1, data=[47, 0]),
   midi.NoteOnEvent(tick=0, channel=1, data=[54, 0]),
   midi.NoteOnEvent(tick=0, channel=1, data=[59, 127]),
   midi.NoteOnEvent(tick=0, channel=1, data=[52, 127]),
   midi.NoteOnEvent(tick=780, channel=1, data=[59, 0]),
   midi.NoteOnEvent(tick=0, channel=1, data=[52, 0]),
   midi.NoteOnEvent(tick=0, channel=1, data=[52, 127]),
   midi.NoteOnEvent(tick=0, channel=1, data=[59, 127]),
   midi.NoteOnEvent(tick=60, channel=1, data=[52, 0]),
   midi.NoteOnEvent(tick=0, channel=1, data=[59, 0]),
   midi.NoteOnEvent(tick=0, channel=1, data=[52, 127]),
   midi.NoteOnEvent(tick=0, channel=1, data=[59, 127]),
   midi.NoteOnEvent(tick=120, channel=1, data=[52, 0]),
   midi.NoteOnEvent(tick=0, channel=1, data=[59, 0]),
   midi.NoteOnEvent(tick=0, channel=1, data=[57, 127]),
   midi.NoteOnEvent(tick=0, channel=1, data=[50, 127]),
   midi.NoteOnEvent(tick=780, channel=1, data=[57, 0]),
   midi.NoteOnEvent(tick=0, channel=1, data=[50, 0]),
   midi.NoteOnEvent(tick=0, channel=1, data=[50, 127]),
   midi.NoteOnEvent(tick=0, channel=1, data=[57, 127]),
   midi.NoteOnEvent(tick=60, channel=1, data=[50, 0]),
   midi.NoteOnEvent(tick=0, channel=1, data=[57, 0]),
   midi.NoteOnEvent(tick=0, channel=1, data=[50, 127]),
   midi.NoteOnEvent(tick=0, channel=1, data=[57, 127]),
   midi.NoteOnEvent(tick=120, channel=1, data=[50, 0]),
   midi.NoteOnEvent(tick=0, channel=1, data=[57, 0]),
   midi.NoteOnEvent(tick=0, channel=1, data=[55, 127]),
   midi.NoteOnEvent(tick=0, channel=1, data=[48, 127]),
   midi.NoteOnEvent(tick=480, channel=1, data=[55, 0]),
   midi.NoteOnEvent(tick=0, channel=1, data=[48, 0]),
   midi.NoteOnEvent(tick=0, channel=1, data=[54, 127]),
   midi.NoteOnEvent(tick=0, channel=1, data=[47, 127]),
   midi.NoteOnEvent(tick=120, channel=1, data=[54, 0]),
   midi.NoteOnEvent(tick=0, channel=1, data=[47, 0]),
   midi.NoteOnEvent(tick=0, channel=1, data=[55, 127]),
   midi.NoteOnEvent(tick=0, channel=1, data=[48, 127]),
   midi.NoteOnEvent(tick=120, channel=1, data=[55, 0]),
   midi.NoteOnEvent(tick=0, channel=1, data=[48, 0]),
   midi.NoteOnEvent(tick=0, channel=1, data=[47, 127]),
   midi.NoteOnEvent(tick=0, channel=1, data=[54, 127]),
   midi.NoteOnEvent(tick=120, channel=1, data=[47, 0]),
   midi.NoteOnEvent(tick=0, channel=1, data=[54, 0]),
   midi.NoteOnEvent(tick=0, channel=1, data=[50, 127]),
   midi.NoteOnEvent(tick=0, channel=1, data=[43, 127]),
   midi.NoteOnEvent(tick=120, channel=1, data=[50, 0]),
   midi.NoteOnEvent(tick=0, channel=1, data=[43, 0]),
   midi.NoteOnEvent(tick=0, channel=1, data=[40, 127]),
   midi.NoteOnEvent(tick=0, channel=1, data=[52, 127]),
   midi.NoteOnEvent(tick=60, channel=1, data=[40, 0]),
   midi.NoteOnEvent(tick=0, channel=1, data=[52, 0]),
   midi.NoteOnEvent(tick=0, channel=1, data=[50, 127]),
   midi.NoteOnEvent(tick=60, channel=1, data=[50, 0]),
   midi.NoteOnEvent(tick=0, channel=1, data=[40, 127]),
   midi.NoteOnEvent(tick=0, channel=1, data=[52, 127]),
   midi.NoteOnEvent(tick=60, channel=1, data=[40, 0]),
   midi.NoteOnEvent(tick=0, channel=1, data=[52, 0]),
   midi.NoteOnEvent(tick=0, channel=1, data=[50, 127]),
   midi.NoteOnEvent(tick=60, channel=1, data=[50, 0]),
   midi.NoteOnEvent(tick=0, channel=1, data=[40, 127]),
   midi.NoteOnEvent(tick=0, channel=1, data=[52, 127]),
   midi.NoteOnEvent(tick=60, channel=1, data=[40, 0]),
   midi.NoteOnEvent(tick=0, channel=1, data=[52, 0]),
   midi.NoteOnEvent(tick=0, channel=1, data=[50, 127]),
   midi.NoteOnEvent(tick=60, channel=1, data=[50, 0]),
   midi.NoteOnEvent(tick=0, channel=1, data=[40, 127]),
   midi.NoteOnEvent(tick=0, channel=1, data=[52, 127]),
   midi.NoteOnEvent(tick=60, channel=1, data=[40, 0]),
   midi.NoteOnEvent(tick=0, channel=1, data=[52, 0]),
   midi.NoteOnEvent(tick=0, channel=1, data=[50, 127]),
   midi.NoteOnEvent(tick=60, channel=1, data=[50, 0]),
   midi.NoteOnEvent(tick=0, channel=1, data=[40, 127]),
   midi.NoteOnEvent(tick=0, channel=1, data=[52, 127]),
   midi.NoteOnEvent(tick=60, channel=1, data=[40, 0]),
   midi.NoteOnEvent(tick=0, channel=1, data=[52, 0]),
   midi.NoteOnEvent(tick=0, channel=1, data=[50, 127]),
   midi.NoteOnEvent(tick=60, channel=1, data=[50, 0]),
   midi.NoteOnEvent(tick=0, channel=1, data=[40, 127]),
   midi.NoteOnEvent(tick=0, channel=1, data=[52, 127]),
   midi.NoteOnEvent(tick=60, channel=1, data=[40, 0]),
   midi.NoteOnEvent(tick=0, channel=1, data=[52, 0]),
   midi.NoteOnEvent(tick=0, channel=1, data=[50, 127]),
   midi.NoteOnEvent(tick=60, channel=1, data=[50, 0]),
   midi.NoteOnEvent(tick=0, channel=1, data=[40, 127]),
   midi.NoteOnEvent(tick=0, channel=1, data=[52, 127]),
   midi.NoteOnEvent(tick=60, channel=1, data=[40, 0]),
   midi.NoteOnEvent(tick=0, channel=1, data=[52, 0]),
   midi.NoteOnEvent(tick=0, channel=1, data=[50, 127]),
   midi.NoteOnEvent(tick=60, channel=1, data=[50, 0]),
   midi.NoteOnEvent(tick=0, channel=1, data=[47, 127]),
   midi.NoteOnEvent(tick=0, channel=1, data=[50, 127]),
   midi.NoteOnEvent(tick=60, channel=1, data=[47, 0]),
   midi.NoteOnEvent(tick=0, channel=1, data=[50, 0]),
   midi.NoteOnEvent(tick=0, channel=1, data=[50, 127]),
   midi.NoteOnEvent(tick=60, channel=1, data=[50, 0]),
   midi.NoteOnEvent(tick=0, channel=1, data=[40, 127]),
   midi.NoteOnEvent(tick=0, channel=1, data=[52, 127]),
   midi.NoteOnEvent(tick=60, channel=1, data=[40, 0]),
   midi.NoteOnEvent(tick=0, channel=1, data=[52, 0]),
   midi.NoteOnEvent(tick=0, channel=1, data=[50, 127]),
   midi.NoteOnEvent(tick=60, channel=1, data=[50, 0]),
   midi.NoteOnEvent(tick=0, channel=1, data=[40, 127]),
   midi.NoteOnEvent(tick=0, channel=1, data=[52, 127]),
   midi.NoteOnEvent(tick=60, channel=1, data=[40, 0]),
   midi.NoteOnEvent(tick=0, channel=1, data=[52, 0]),
   midi.NoteOnEvent(tick=0, channel=1, data=[50, 127]),
   midi.NoteOnEvent(tick=60, channel=1, data=[50, 0]),
   midi.NoteOnEvent(tick=0, channel=1, data=[40, 127]),
   midi.NoteOnEvent(tick=0, channel=1, data=[52, 127]),
   midi.NoteOnEvent(tick=60, channel=1, data=[40, 0]),
   midi.NoteOnEvent(tick=0, channel=1, data=[52, 0]),
   midi.NoteOnEvent(tick=0, channel=1, data=[50, 127]),
   midi.NoteOnEvent(tick=60, channel=1, data=[50, 0]),
   midi.NoteOnEvent(tick=0, channel=1, data=[40, 127]),
   midi.NoteOnEvent(tick=0, channel=1, data=[52, 127]),
   midi.NoteOnEvent(tick=60, channel=1, data=[40, 0]),
   midi.NoteOnEvent(tick=0, channel=1, data=[52, 0]),
   midi.NoteOnEvent(tick=0, channel=1, data=[50, 127]),
   midi.NoteOnEvent(tick=60, channel=1, data=[50, 0]),
   midi.NoteOnEvent(tick=0, channel=1, data=[47, 127]),
   midi.NoteOnEvent(tick=60, channel=1, data=[47, 0]),
   midi.NoteOnEvent(tick=0, channel=1, data=[50, 127]),
   midi.NoteOnEvent(tick=60, channel=1, data=[50, 0]),
   midi.NoteOnEvent(tick=0, channel=1, data=[52, 127]),
   midi.NoteOnEvent(tick=60, channel=1, data=[52, 0]),
   midi.NoteOnEvent(tick=0, channel=1, data=[50, 127]),
   midi.NoteOnEvent(tick=60, channel=1, data=[50, 0]),
   midi.NoteOnEvent(tick=0, channel=1, data=[57, 127]),
   midi.NoteOnEvent(tick=60, channel=1, data=[57, 0]),
   midi.NoteOnEvent(tick=0, channel=1, data=[55, 127]),
   midi.NoteOnEvent(tick=60, channel=1, data=[55, 0]),
   midi.NoteOnEvent(tick=0, channel=1, data=[52, 127]),
   midi.NoteOnEvent(tick=60, channel=1, data=[52, 0]),
   midi.NoteOnEvent(tick=0, channel=1, data=[50, 127]),
   midi.NoteOnEvent(tick=60, channel=1, data=[50, 0]),
   midi.NoteOnEvent(tick=0, channel=1, data=[40, 127]),
   midi.NoteOnEvent(tick=0, channel=1, data=[52, 127]),
   midi.NoteOnEvent(tick=60, channel=1, data=[40, 0]),
   midi.NoteOnEvent(tick=0, channel=1, data=[52, 0]),
   midi.NoteOnEvent(tick=0, channel=1, data=[50, 127]),
   midi.NoteOnEvent(tick=60, channel=1, data=[50, 0]),
   midi.NoteOnEvent(tick=0, channel=1, data=[40, 127]),
   midi.NoteOnEvent(tick=0, channel=1, data=[52, 127]),
   midi.NoteOnEvent(tick=60, channel=1, data=[40, 0]),
   midi.NoteOnEvent(tick=0, channel=1, data=[52, 0]),
   midi.NoteOnEvent(tick=0, channel=1, data=[50, 127]),
   midi.NoteOnEvent(tick=60, channel=1, data=[50, 0]),
   midi.NoteOnEvent(tick=0, channel=1, data=[40, 127]),
   midi.NoteOnEvent(tick=0, channel=1, data=[52, 127]),
   midi.NoteOnEvent(tick=60, channel=1, data=[40, 0]),
   midi.NoteOnEvent(tick=0, channel=1, data=[52, 0]),
   midi.NoteOnEvent(tick=0, channel=1, data=[50, 127]),
   midi.NoteOnEvent(tick=60, channel=1, data=[50, 0]),
   midi.NoteOnEvent(tick=0, channel=1, data=[47, 127]),
   midi.NoteOnEvent(tick=0, channel=1, data=[50, 127]),
   midi.NoteOnEvent(tick=60, channel=1, data=[47, 0]),
   midi.NoteOnEvent(tick=0, channel=1, data=[50, 0]),
   midi.NoteOnEvent(tick=0, channel=1, data=[50, 127]),
   midi.NoteOnEvent(tick=60, channel=1, data=[50, 0]),
   midi.NoteOnEvent(tick=0, channel=1, data=[40, 127]),
   midi.NoteOnEvent(tick=0, channel=1, data=[52, 127]),
   midi.NoteOnEvent(tick=60, channel=1, data=[40, 0]),
   midi.NoteOnEvent(tick=0, channel=1, data=[52, 0]),
   midi.NoteOnEvent(tick=0, channel=1, data=[50, 127]),
   midi.NoteOnEvent(tick=60, channel=1, data=[50, 0]),
   midi.NoteOnEvent(tick=0, channel=1, data=[40, 127]),
   midi.NoteOnEvent(tick=0, channel=1, data=[52, 127]),
   midi.NoteOnEvent(tick=60, channel=1, data=[40, 0]),
   midi.NoteOnEvent(tick=0, channel=1, data=[52, 0]),
   midi.NoteOnEvent(tick=0, channel=1, data=[50, 127]),
   midi.NoteOnEvent(tick=60, channel=1, data=[50, 0]),
   midi.NoteOnEvent(tick=0, channel=1, data=[40, 127]),
   midi.NoteOnEvent(tick=0, channel=1, data=[52, 127]),
   midi.NoteOnEvent(tick=60, channel=1, data=[40, 0]),
   midi.NoteOnEvent(tick=0, channel=1, data=[52, 0]),
   midi.NoteOnEvent(tick=0, channel=1, data=[50, 127]),
   midi.NoteOnEvent(tick=60, channel=1, data=[50, 0]),
   midi.NoteOnEvent(tick=0, channel=1, data=[47, 127]),
   midi.NoteOnEvent(tick=0, channel=1, data=[50, 127]),
   midi.NoteOnEvent(tick=60, channel=1, data=[47, 0]),
   midi.NoteOnEvent(tick=0, channel=1, data=[50, 0]),
   midi.NoteOnEvent(tick=0, channel=1, data=[50, 127]),
   midi.NoteOnEvent(tick=60, channel=1, data=[50, 0]),
   midi.NoteOnEvent(tick=0, channel=1, data=[48, 127]),
   midi.NoteOnEvent(tick=0, channel=1, data=[55, 127]),
   midi.NoteOnEvent(tick=120, channel=1, data=[48, 0]),
   midi.NoteOnEvent(tick=0, channel=1, data=[55, 0]),
   midi.NoteOnEvent(tick=0, channel=1, data=[43, 127]),
   midi.NoteOnEvent(tick=0, channel=1, data=[50, 127]),
   midi.NoteOnEvent(tick=120, channel=1, data=[43, 0]),
   midi.NoteOnEvent(tick=0, channel=1, data=[50, 0]),
   midi.NoteOnEvent(tick=0, channel=1, data=[57, 127]),
   midi.NoteOnEvent(tick=0, channel=1, data=[50, 127]),
   midi.NoteOnEvent(tick=120, channel=1, data=[57, 0]),
   midi.NoteOnEvent(tick=0, channel=1, data=[50, 0]),
   midi.NoteOnEvent(tick=0, channel=1, data=[48, 127]),
   midi.NoteOnEvent(tick=0, channel=1, data=[55, 127]),
   midi.NoteOnEvent(tick=120, channel=1, data=[48, 0]),
   midi.NoteOnEvent(tick=0, channel=1, data=[55, 0]),
   midi.NoteOnEvent(tick=0, channel=1, data=[40, 127]),
   midi.NoteOnEvent(tick=0, channel=1, data=[52, 127]),
   midi.NoteOnEvent(tick=60, channel=1, data=[40, 0]),
   midi.NoteOnEvent(tick=0, channel=1, data=[52, 0]),
   midi.NoteOnEvent(tick=0, channel=1, data=[50, 127]),
   midi.NoteOnEvent(tick=60, channel=1, data=[50, 0]),
   midi.NoteOnEvent(tick=0, channel=1, data=[40, 127]),
   midi.NoteOnEvent(tick=0, channel=1, data=[52, 127]),
   midi.NoteOnEvent(tick=60, channel=1, data=[40, 0]),
   midi.NoteOnEvent(tick=0, channel=1, data=[52, 0]),
   midi.NoteOnEvent(tick=0, channel=1, data=[50, 127]),
   midi.NoteOnEvent(tick=60, channel=1, data=[50, 0]),
   midi.NoteOnEvent(tick=0, channel=1, data=[40, 127]),
   midi.NoteOnEvent(tick=0, channel=1, data=[52, 127]),
   midi.NoteOnEvent(tick=60, channel=1, data=[40, 0]),
   midi.NoteOnEvent(tick=0, channel=1, data=[52, 0]),
   midi.NoteOnEvent(tick=0, channel=1, data=[50, 127]),
   midi.NoteOnEvent(tick=60, channel=1, data=[50, 0]),
   midi.NoteOnEvent(tick=0, channel=1, data=[40, 127]),
   midi.NoteOnEvent(tick=0, channel=1, data=[52, 127]),
   midi.NoteOnEvent(tick=60, channel=1, data=[40, 0]),
   midi.NoteOnEvent(tick=0, channel=1, data=[52, 0]),
   midi.NoteOnEvent(tick=0, channel=1, data=[50, 127]),
   midi.NoteOnEvent(tick=60, channel=1, data=[50, 0]),
   midi.NoteOnEvent(tick=0, channel=1, data=[40, 127]),
   midi.NoteOnEvent(tick=0, channel=1, data=[52, 127]),
   midi.NoteOnEvent(tick=60, channel=1, data=[40, 0]),
   midi.NoteOnEvent(tick=0, channel=1, data=[52, 0]),
   midi.NoteOnEvent(tick=0, channel=1, data=[50, 127]),
   midi.NoteOnEvent(tick=60, channel=1, data=[50, 0]),
   midi.NoteOnEvent(tick=0, channel=1, data=[40, 127]),
   midi.NoteOnEvent(tick=0, channel=1, data=[52, 127]),
   midi.NoteOnEvent(tick=60, channel=1, data=[40, 0]),
   midi.NoteOnEvent(tick=0, channel=1, data=[52, 0]),
   midi.NoteOnEvent(tick=0, channel=1, data=[50, 127]),
   midi.NoteOnEvent(tick=60, channel=1, data=[50, 0]),
   midi.NoteOnEvent(tick=0, channel=1, data=[40, 127]),
   midi.NoteOnEvent(tick=0, channel=1, data=[52, 127]),
   midi.NoteOnEvent(tick=60, channel=1, data=[40, 0]),
   midi.NoteOnEvent(tick=0, channel=1, data=[52, 0]),
   midi.NoteOnEvent(tick=0, channel=1, data=[50, 127]),
   midi.NoteOnEvent(tick=60, channel=1, data=[50, 0]),
   midi.NoteOnEvent(tick=0, channel=1, data=[47, 127]),
   midi.NoteOnEvent(tick=0, channel=1, data=[50, 127]),
   midi.NoteOnEvent(tick=60, channel=1, data=[47, 0]),
   midi.NoteOnEvent(tick=0, channel=1, data=[50, 0]),
   midi.NoteOnEvent(tick=0, channel=1, data=[50, 127]),
   midi.NoteOnEvent(tick=60, channel=1, data=[50, 0]),
   midi.NoteOnEvent(tick=0, channel=1, data=[40, 127]),
   midi.NoteOnEvent(tick=0, channel=1, data=[52, 127]),
   midi.NoteOnEvent(tick=60, channel=1, data=[40, 0]),
   midi.NoteOnEvent(tick=0, channel=1, data=[52, 0]),
   midi.NoteOnEvent(tick=0, channel=1, data=[50, 127]),
   midi.NoteOnEvent(tick=60, channel=1, data=[50, 0]),
   midi.NoteOnEvent(tick=0, channel=1, data=[40, 127]),
   midi.NoteOnEvent(tick=0, channel=1, data=[52, 127]),
   midi.NoteOnEvent(tick=60, channel=1, data=[40, 0]),
   midi.NoteOnEvent(tick=0, channel=1, data=[52, 0]),
   midi.NoteOnEvent(tick=0, channel=1, data=[50, 127]),
   midi.NoteOnEvent(tick=60, channel=1, data=[50, 0]),
   midi.NoteOnEvent(tick=0, channel=1, data=[40, 127]),
   midi.NoteOnEvent(tick=0, channel=1, data=[52, 127]),
   midi.NoteOnEvent(tick=60, channel=1, data=[40, 0]),
   midi.NoteOnEvent(tick=0, channel=1, data=[52, 0]),
   midi.NoteOnEvent(tick=0, channel=1, data=[50, 127]),
   midi.NoteOnEvent(tick=60, channel=1, data=[50, 0]),
   midi.NoteOnEvent(tick=0, channel=1, data=[40, 127]),
   midi.NoteOnEvent(tick=0, channel=1, data=[52, 127]),
   midi.NoteOnEvent(tick=60, channel=1, data=[40, 0]),
   midi.NoteOnEvent(tick=0, channel=1, data=[52, 0]),
   midi.NoteOnEvent(tick=0, channel=1, data=[50, 127]),
   midi.NoteOnEvent(tick=60, channel=1, data=[50, 0]),
   midi.NoteOnEvent(tick=0, channel=1, data=[47, 127]),
   midi.NoteOnEvent(tick=60, channel=1, data=[47, 0]),
   midi.NoteOnEvent(tick=0, channel=1, data=[50, 127]),
   midi.NoteOnEvent(tick=60, channel=1, data=[50, 0]),
   midi.NoteOnEvent(tick=0, channel=1, data=[52, 127]),
   midi.NoteOnEvent(tick=60, channel=1, data=[52, 0]),
   midi.NoteOnEvent(tick=0, channel=1, data=[50, 127]),
   midi.NoteOnEvent(tick=60, channel=1, data=[50, 0]),
   midi.NoteOnEvent(tick=0, channel=1, data=[57, 127]),
   midi.NoteOnEvent(tick=60, channel=1, data=[57, 0]),
   midi.NoteOnEvent(tick=0, channel=1, data=[55, 127]),
   midi.NoteOnEvent(tick=60, channel=1, data=[55, 0]),
   midi.NoteOnEvent(tick=0, channel=1, data=[52, 127]),
   midi.NoteOnEvent(tick=60, channel=1, data=[52, 0]),
   midi.NoteOnEvent(tick=0, channel=1, data=[50, 127]),
   midi.NoteOnEvent(tick=60, channel=1, data=[50, 0]),
   midi.NoteOnEvent(tick=0, channel=1, data=[40, 127]),
   midi.NoteOnEvent(tick=0, channel=1, data=[52, 127]),
   midi.NoteOnEvent(tick=60, channel=1, data=[40, 0]),
   midi.NoteOnEvent(tick=0, channel=1, data=[52, 0]),
   midi.NoteOnEvent(tick=0, channel=1, data=[50, 127]),
   midi.NoteOnEvent(tick=60, channel=1, data=[50, 0]),
   midi.NoteOnEvent(tick=0, channel=1, data=[40, 127]),
   midi.NoteOnEvent(tick=0, channel=1, data=[52, 127]),
   midi.NoteOnEvent(tick=60, channel=1, data=[40, 0]),
   midi.NoteOnEvent(tick=0, channel=1, data=[52, 0]),
   midi.NoteOnEvent(tick=0, channel=1, data=[50, 127]),
   midi.NoteOnEvent(tick=60, channel=1, data=[50, 0]),
   midi.NoteOnEvent(tick=0, channel=1, data=[40, 127]),
   midi.NoteOnEvent(tick=0, channel=1, data=[52, 127]),
   midi.NoteOnEvent(tick=60, channel=1, data=[40, 0]),
   midi.NoteOnEvent(tick=0, channel=1, data=[52, 0]),
   midi.NoteOnEvent(tick=0, channel=1, data=[50, 127]),
   midi.NoteOnEvent(tick=60, channel=1, data=[50, 0]),
   midi.NoteOnEvent(tick=0, channel=1, data=[47, 127]),
   midi.NoteOnEvent(tick=0, channel=1, data=[50, 127]),
   midi.NoteOnEvent(tick=60, channel=1, data=[47, 0]),
   midi.NoteOnEvent(tick=0, channel=1, data=[50, 0]),
   midi.NoteOnEvent(tick=0, channel=1, data=[50, 127]),
   midi.NoteOnEvent(tick=60, channel=1, data=[50, 0]),
   midi.NoteOnEvent(tick=0, channel=1, data=[40, 127]),
   midi.NoteOnEvent(tick=0, channel=1, data=[52, 127]),
   midi.NoteOnEvent(tick=60, channel=1, data=[40, 0]),
   midi.NoteOnEvent(tick=0, channel=1, data=[52, 0]),
   midi.NoteOnEvent(tick=0, channel=1, data=[50, 127]),
   midi.NoteOnEvent(tick=60, channel=1, data=[50, 0]),
   midi.NoteOnEvent(tick=0, channel=1, data=[40, 127]),
   midi.NoteOnEvent(tick=0, channel=1, data=[52, 127]),
   midi.NoteOnEvent(tick=60, channel=1, data=[40, 0]),
   midi.NoteOnEvent(tick=0, channel=1, data=[52, 0]),
   midi.NoteOnEvent(tick=0, channel=1, data=[50, 127]),
   midi.NoteOnEvent(tick=60, channel=1, data=[50, 0]),
   midi.NoteOnEvent(tick=0, channel=1, data=[40, 127]),
   midi.NoteOnEvent(tick=0, channel=1, data=[52, 127]),
   midi.NoteOnEvent(tick=60, channel=1, data=[40, 0]),
   midi.NoteOnEvent(tick=0, channel=1, data=[52, 0]),
   midi.NoteOnEvent(tick=0, channel=1, data=[50, 127]),
   midi.NoteOnEvent(tick=60, channel=1, data=[50, 0]),
   midi.NoteOnEvent(tick=0, channel=1, data=[47, 127]),
   midi.NoteOnEvent(tick=0, channel=1, data=[50, 127]),
   midi.NoteOnEvent(tick=60, channel=1, data=[47, 0]),
   midi.NoteOnEvent(tick=0, channel=1, data=[50, 0]),
   midi.NoteOnEvent(tick=0, channel=1, data=[50, 127]),
   midi.NoteOnEvent(tick=60, channel=1, data=[50, 0]),
   midi.NoteOnEvent(tick=0, channel=1, data=[48, 127]),
   midi.NoteOnEvent(tick=0, channel=1, data=[55, 127]),
   midi.NoteOnEvent(tick=120, channel=1, data=[48, 0]),
   midi.NoteOnEvent(tick=0, channel=1, data=[55, 0]),
   midi.NoteOnEvent(tick=0, channel=1, data=[43, 127]),
   midi.NoteOnEvent(tick=0, channel=1, data=[50, 127]),
   midi.NoteOnEvent(tick=120, channel=1, data=[43, 0]),
   midi.NoteOnEvent(tick=0, channel=1, data=[50, 0]),
   midi.NoteOnEvent(tick=0, channel=1, data=[57, 127]),
   midi.NoteOnEvent(tick=0, channel=1, data=[50, 127]),
   midi.NoteOnEvent(tick=120, channel=1, data=[57, 0]),
   midi.NoteOnEvent(tick=0, channel=1, data=[50, 0]),
   midi.NoteOnEvent(tick=0, channel=1, data=[48, 127]),
   midi.NoteOnEvent(tick=0, channel=1, data=[55, 127]),
   midi.NoteOnEvent(tick=120, channel=1, data=[48, 0]),
   midi.NoteOnEvent(tick=0, channel=1, data=[55, 0]),
   midi.NoteOnEvent(tick=0, channel=1, data=[40, 127]),
   midi.NoteOnEvent(tick=0, channel=1, data=[47, 127]),
   midi.NoteOnEvent(tick=0, channel=1, data=[52, 127]),
   midi.NoteOnEvent(tick=480, channel=1, data=[40, 0]),
   midi.NoteOnEvent(tick=0, channel=1, data=[47, 0]),
   midi.NoteOnEvent(tick=0, channel=1, data=[52, 0]),
   midi.NoteOnEvent(tick=0, channel=1, data=[40, 127]),
   midi.NoteOnEvent(tick=60, channel=1, data=[40, 0]),
   midi.NoteOnEvent(tick=0, channel=1, data=[40, 127]),
   midi.NoteOnEvent(tick=60, channel=1, data=[40, 0]),
   midi.NoteOnEvent(tick=0, channel=1, data=[40, 127]),
   midi.NoteOnEvent(tick=40, channel=1, data=[40, 0]),
   midi.NoteOnEvent(tick=0, channel=1, data=[40, 127]),
   midi.NoteOnEvent(tick=40, channel=1, data=[40, 0]),
   midi.NoteOnEvent(tick=0, channel=1, data=[40, 127]),
   midi.NoteOnEvent(tick=40, channel=1, data=[40, 0]),
   midi.NoteOnEvent(tick=0, channel=1, data=[40, 127]),
   midi.NoteOnEvent(tick=60, channel=1, data=[40, 0]),
   midi.NoteOnEvent(tick=0, channel=1, data=[40, 127]),
   midi.NoteOnEvent(tick=60, channel=1, data=[40, 0]),
   midi.NoteOnEvent(tick=0, channel=1, data=[40, 127]),
   midi.NoteOnEvent(tick=40, channel=1, data=[40, 0]),
   midi.NoteOnEvent(tick=0, channel=1, data=[40, 127]),
   midi.NoteOnEvent(tick=40, channel=1, data=[40, 0]),
   midi.NoteOnEvent(tick=0, channel=1, data=[40, 127]),
   midi.NoteOnEvent(tick=40, channel=1, data=[40, 0]),
   midi.NoteOnEvent(tick=0, channel=1, data=[40, 127]),
   midi.NoteOnEvent(tick=60, channel=1, data=[40, 0]),
   midi.NoteOnEvent(tick=0, channel=1, data=[40, 127]),
   midi.NoteOnEvent(tick=60, channel=1, data=[40, 0]),
   midi.NoteOnEvent(tick=0, channel=1, data=[40, 127]),
   midi.NoteOnEvent(tick=40, channel=1, data=[40, 0]),
   midi.NoteOnEvent(tick=0, channel=1, data=[40, 127]),
   midi.NoteOnEvent(tick=40, channel=1, data=[40, 0]),
   midi.NoteOnEvent(tick=0, channel=1, data=[40, 127]),
   midi.NoteOnEvent(tick=40, channel=1, data=[40, 0]),
   midi.NoteOnEvent(tick=0, channel=1, data=[40, 127]),
   midi.NoteOnEvent(tick=60, channel=1, data=[40, 0]),
   midi.NoteOnEvent(tick=0, channel=1, data=[40, 127]),
   midi.NoteOnEvent(tick=60, channel=1, data=[40, 0]),
   midi.NoteOnEvent(tick=0, channel=1, data=[40, 127]),
   midi.NoteOnEvent(tick=40, channel=1, data=[40, 0]),
   midi.NoteOnEvent(tick=0, channel=1, data=[40, 127]),
   midi.NoteOnEvent(tick=40, channel=1, data=[40, 0]),
   midi.NoteOnEvent(tick=0, channel=1, data=[40, 127]),
   midi.NoteOnEvent(tick=40, channel=1, data=[40, 0]),
   midi.NoteOnEvent(tick=0, channel=1, data=[40, 127]),
   midi.NoteOnEvent(tick=60, channel=1, data=[40, 0]),
   midi.NoteOnEvent(tick=0, channel=1, data=[40, 127]),
   midi.NoteOnEvent(tick=60, channel=1, data=[40, 0]),
   midi.NoteOnEvent(tick=0, channel=1, data=[40, 127]),
   midi.NoteOnEvent(tick=40, channel=1, data=[40, 0]),
   midi.NoteOnEvent(tick=0, channel=1, data=[40, 127]),
   midi.NoteOnEvent(tick=40, channel=1, data=[40, 0]),
   midi.NoteOnEvent(tick=0, channel=1, data=[40, 127]),
   midi.NoteOnEvent(tick=40, channel=1, data=[40, 0]),
   midi.NoteOnEvent(tick=0, channel=1, data=[40, 127]),
   midi.NoteOnEvent(tick=60, channel=1, data=[40, 0]),
   midi.NoteOnEvent(tick=0, channel=1, data=[40, 127]),
   midi.NoteOnEvent(tick=60, channel=1, data=[40, 0]),
   midi.NoteOnEvent(tick=0, channel=1, data=[40, 127]),
   midi.NoteOnEvent(tick=40, channel=1, data=[40, 0]),
   midi.NoteOnEvent(tick=0, channel=1, data=[40, 127]),
   midi.NoteOnEvent(tick=40, channel=1, data=[40, 0]),
   midi.NoteOnEvent(tick=0, channel=1, data=[40, 127]),
   midi.NoteOnEvent(tick=40, channel=1, data=[40, 0]),
   midi.NoteOnEvent(tick=0, channel=1, data=[40, 127]),
   midi.NoteOnEvent(tick=60, channel=1, data=[40, 0]),
   midi.NoteOnEvent(tick=0, channel=1, data=[40, 127]),
   midi.NoteOnEvent(tick=60, channel=1, data=[40, 0]),
   midi.NoteOnEvent(tick=0, channel=1, data=[40, 127]),
   midi.NoteOnEvent(tick=40, channel=1, data=[40, 0]),
   midi.NoteOnEvent(tick=0, channel=1, data=[40, 127]),
   midi.NoteOnEvent(tick=40, channel=1, data=[40, 0]),
   midi.NoteOnEvent(tick=0, channel=1, data=[40, 127]),
   midi.NoteOnEvent(tick=40, channel=1, data=[40, 0]),
   midi.NoteOnEvent(tick=0, channel=1, data=[40, 127]),
   midi.NoteOnEvent(tick=60, channel=1, data=[40, 0]),
   midi.NoteOnEvent(tick=0, channel=1, data=[40, 127]),
   midi.NoteOnEvent(tick=60, channel=1, data=[40, 0]),
   midi.NoteOnEvent(tick=0, channel=1, data=[40, 127]),
   midi.NoteOnEvent(tick=40, channel=1, data=[40, 0]),
   midi.NoteOnEvent(tick=0, channel=1, data=[40, 127]),
   midi.NoteOnEvent(tick=40, channel=1, data=[40, 0]),
   midi.NoteOnEvent(tick=0, channel=1, data=[40, 127]),
   midi.NoteOnEvent(tick=40, channel=1, data=[40, 0]),
   midi.NoteOnEvent(tick=0, channel=1, data=[40, 127]),
   midi.NoteOnEvent(tick=60, channel=1, data=[40, 0]),
   midi.NoteOnEvent(tick=0, channel=1, data=[40, 127]),
   midi.NoteOnEvent(tick=60, channel=1, data=[40, 0]),
   midi.NoteOnEvent(tick=0, channel=1, data=[40, 127]),
   midi.NoteOnEvent(tick=40, channel=1, data=[40, 0]),
   midi.NoteOnEvent(tick=0, channel=1, data=[40, 127]),
   midi.NoteOnEvent(tick=40, channel=1, data=[40, 0]),
   midi.NoteOnEvent(tick=0, channel=1, data=[40, 127]),
   midi.NoteOnEvent(tick=40, channel=1, data=[40, 0]),
   midi.NoteOnEvent(tick=0, channel=1, data=[40, 127]),
   midi.NoteOnEvent(tick=60, channel=1, data=[40, 0]),
   midi.NoteOnEvent(tick=0, channel=1, data=[40, 127]),
   midi.NoteOnEvent(tick=60, channel=1, data=[40, 0]),
   midi.NoteOnEvent(tick=0, channel=1, data=[40, 127]),
   midi.NoteOnEvent(tick=40, channel=1, data=[40, 0]),
   midi.NoteOnEvent(tick=0, channel=1, data=[40, 127]),
   midi.NoteOnEvent(tick=40, channel=1, data=[40, 0]),
   midi.NoteOnEvent(tick=0, channel=1, data=[40, 127]),
   midi.NoteOnEvent(tick=40, channel=1, data=[40, 0]),
   midi.NoteOnEvent(tick=0, channel=1, data=[40, 127]),
   midi.NoteOnEvent(tick=60, channel=1, data=[40, 0]),
   midi.NoteOnEvent(tick=0, channel=1, data=[40, 127]),
   midi.NoteOnEvent(tick=60, channel=1, data=[40, 0]),
   midi.NoteOnEvent(tick=0, channel=1, data=[40, 127]),
   midi.NoteOnEvent(tick=40, channel=1, data=[40, 0]),
   midi.NoteOnEvent(tick=0, channel=1, data=[40, 127]),
   midi.NoteOnEvent(tick=40, channel=1, data=[40, 0]),
   midi.NoteOnEvent(tick=0, channel=1, data=[40, 127]),
   midi.NoteOnEvent(tick=40, channel=1, data=[40, 0]),
   midi.NoteOnEvent(tick=0, channel=1, data=[40, 127]),
   midi.NoteOnEvent(tick=60, channel=1, data=[40, 0]),
   midi.NoteOnEvent(tick=0, channel=1, data=[40, 127]),
   midi.NoteOnEvent(tick=60, channel=1, data=[40, 0]),
   midi.NoteOnEvent(tick=0, channel=1, data=[40, 127]),
   midi.NoteOnEvent(tick=40, channel=1, data=[40, 0]),
   midi.NoteOnEvent(tick=0, channel=1, data=[40, 127]),
   midi.NoteOnEvent(tick=40, channel=1, data=[40, 0]),
   midi.NoteOnEvent(tick=0, channel=1, data=[40, 127]),
   midi.NoteOnEvent(tick=40, channel=1, data=[40, 0]),
   midi.NoteOnEvent(tick=0, channel=1, data=[40, 127]),
   midi.NoteOnEvent(tick=60, channel=1, data=[40, 0]),
   midi.NoteOnEvent(tick=0, channel=1, data=[40, 127]),
   midi.NoteOnEvent(tick=60, channel=1, data=[40, 0]),
   midi.NoteOnEvent(tick=0, channel=1, data=[40, 127]),
   midi.NoteOnEvent(tick=40, channel=1, data=[40, 0]),
   midi.NoteOnEvent(tick=0, channel=1, data=[40, 127]),
   midi.NoteOnEvent(tick=40, channel=1, data=[40, 0]),
   midi.NoteOnEvent(tick=0, channel=1, data=[40, 127]),
   midi.NoteOnEvent(tick=40, channel=1, data=[40, 0]),
   midi.NoteOnEvent(tick=0, channel=1, data=[40, 127]),
   midi.NoteOnEvent(tick=60, channel=1, data=[40, 0]),
   midi.NoteOnEvent(tick=0, channel=1, data=[40, 127]),
   midi.NoteOnEvent(tick=60, channel=1, data=[40, 0]),
   midi.NoteOnEvent(tick=0, channel=1, data=[40, 127]),
   midi.NoteOnEvent(tick=40, channel=1, data=[40, 0]),
   midi.NoteOnEvent(tick=0, channel=1, data=[40, 127]),
   midi.NoteOnEvent(tick=40, channel=1, data=[40, 0]),
   midi.NoteOnEvent(tick=0, channel=1, data=[40, 127]),
   midi.NoteOnEvent(tick=40, channel=1, data=[40, 0]),
   midi.NoteOnEvent(tick=0, channel=1, data=[40, 127]),
   midi.NoteOnEvent(tick=60, channel=1, data=[40, 0]),
   midi.NoteOnEvent(tick=0, channel=1, data=[40, 127]),
   midi.NoteOnEvent(tick=60, channel=1, data=[40, 0]),
   midi.NoteOnEvent(tick=0, channel=1, data=[40, 127]),
   midi.NoteOnEvent(tick=40, channel=1, data=[40, 0]),
   midi.NoteOnEvent(tick=0, channel=1, data=[40, 127]),
   midi.NoteOnEvent(tick=40, channel=1, data=[40, 0]),
   midi.NoteOnEvent(tick=0, channel=1, data=[60, 127]),
   midi.NoteOnEvent(tick=0, channel=1, data=[53, 127]),
   midi.NoteOnEvent(tick=40, channel=1, data=[60, 0]),
   midi.NoteOnEvent(tick=0, channel=1, data=[53, 0]),
   midi.NoteOnEvent(tick=0, channel=1, data=[59, 127]),
   midi.NoteOnEvent(tick=0, channel=1, data=[52, 127]),
   midi.NoteOnEvent(tick=120, channel=1, data=[59, 0]),
   midi.NoteOnEvent(tick=0, channel=1, data=[52, 0]),
   midi.NoteOnEvent(tick=0, channel=1, data=[52, 127]),
   midi.NoteOnEvent(tick=0, channel=1, data=[59, 127]),
   midi.NoteOnEvent(tick=120, channel=1, data=[52, 0]),
   midi.NoteOnEvent(tick=0, channel=1, data=[59, 0]),
   midi.NoteOnEvent(tick=0, channel=1, data=[40, 127]),
   midi.NoteOnEvent(tick=60, channel=1, data=[40, 0]),
   midi.NoteOnEvent(tick=0, channel=1, data=[40, 127]),
   midi.NoteOnEvent(tick=60, channel=1, data=[40, 0]),
   midi.NoteOnEvent(tick=0, channel=1, data=[40, 127]),
   midi.NoteOnEvent(tick=40, channel=1, data=[40, 0]),
   midi.NoteOnEvent(tick=0, channel=1, data=[40, 127]),
   midi.NoteOnEvent(tick=40, channel=1, data=[40, 0]),
   midi.NoteOnEvent(tick=0, channel=1, data=[40, 127]),
   midi.NoteOnEvent(tick=40, channel=1, data=[40, 0]),
   midi.NoteOnEvent(tick=0, channel=1, data=[40, 127]),
   midi.NoteOnEvent(tick=60, channel=1, data=[40, 0]),
   midi.NoteOnEvent(tick=0, channel=1, data=[40, 127]),
   midi.NoteOnEvent(tick=60, channel=1, data=[40, 0]),
   midi.NoteOnEvent(tick=0, channel=1, data=[40, 127]),
   midi.NoteOnEvent(tick=40, channel=1, data=[40, 0]),
   midi.NoteOnEvent(tick=0, channel=1, data=[40, 127]),
   midi.NoteOnEvent(tick=40, channel=1, data=[40, 0]),
   midi.NoteOnEvent(tick=0, channel=1, data=[40, 127]),
   midi.NoteOnEvent(tick=40, channel=1, data=[40, 0]),
   midi.NoteOnEvent(tick=0, channel=1, data=[40, 127]),
   midi.NoteOnEvent(tick=60, channel=1, data=[40, 0]),
   midi.NoteOnEvent(tick=0, channel=1, data=[40, 127]),
   midi.NoteOnEvent(tick=60, channel=1, data=[40, 0]),
   midi.NoteOnEvent(tick=0, channel=1, data=[40, 127]),
   midi.NoteOnEvent(tick=40, channel=1, data=[40, 0]),
   midi.NoteOnEvent(tick=0, channel=1, data=[40, 127]),
   midi.NoteOnEvent(tick=40, channel=1, data=[40, 0]),
   midi.NoteOnEvent(tick=0, channel=1, data=[40, 127]),
   midi.NoteOnEvent(tick=40, channel=1, data=[40, 0]),
   midi.NoteOnEvent(tick=0, channel=1, data=[60, 127]),
   midi.NoteOnEvent(tick=0, channel=1, data=[53, 127]),
   midi.NoteOnEvent(tick=30, channel=1, data=[60, 0]),
   midi.NoteOnEvent(tick=0, channel=1, data=[53, 0]),
   midi.NoteOnEvent(tick=0, channel=1, data=[52, 127]),
   midi.NoteOnEvent(tick=0, channel=1, data=[59, 127]),
   midi.NoteOnEvent(tick=90, channel=1, data=[52, 0]),
   midi.NoteOnEvent(tick=0, channel=1, data=[59, 0]),
   midi.NoteOnEvent(tick=0, channel=1, data=[59, 127]),
   midi.NoteOnEvent(tick=0, channel=1, data=[52, 127]),
   midi.NoteOnEvent(tick=120, channel=1, data=[59, 0]),
   midi.NoteOnEvent(tick=0, channel=1, data=[52, 0]),
   midi.NoteOnEvent(tick=0, channel=1, data=[40, 127]),
   midi.NoteOnEvent(tick=60, channel=1, data=[40, 0]),
   midi.NoteOnEvent(tick=0, channel=1, data=[40, 127]),
   midi.NoteOnEvent(tick=60, channel=1, data=[40, 0]),
   midi.NoteOnEvent(tick=0, channel=1, data=[40, 127]),
   midi.NoteOnEvent(tick=40, channel=1, data=[40, 0]),
   midi.NoteOnEvent(tick=0, channel=1, data=[40, 127]),
   midi.NoteOnEvent(tick=40, channel=1, data=[40, 0]),
   midi.NoteOnEvent(tick=0, channel=1, data=[40, 127]),
   midi.NoteOnEvent(tick=40, channel=1, data=[40, 0]),
   midi.NoteOnEvent(tick=0, channel=1, data=[40, 127]),
   midi.NoteOnEvent(tick=60, channel=1, data=[40, 0]),
   midi.NoteOnEvent(tick=0, channel=1, data=[40, 127]),
   midi.NoteOnEvent(tick=60, channel=1, data=[40, 0]),
   midi.NoteOnEvent(tick=0, channel=1, data=[40, 127]),
   midi.NoteOnEvent(tick=40, channel=1, data=[40, 0]),
   midi.NoteOnEvent(tick=0, channel=1, data=[40, 127]),
   midi.NoteOnEvent(tick=40, channel=1, data=[40, 0]),
   midi.NoteOnEvent(tick=0, channel=1, data=[40, 127]),
   midi.NoteOnEvent(tick=40, channel=1, data=[40, 0]),
   midi.NoteOnEvent(tick=0, channel=1, data=[40, 127]),
   midi.NoteOnEvent(tick=60, channel=1, data=[40, 0]),
   midi.NoteOnEvent(tick=0, channel=1, data=[40, 127]),
   midi.NoteOnEvent(tick=60, channel=1, data=[40, 0]),
   midi.NoteOnEvent(tick=0, channel=1, data=[40, 127]),
   midi.NoteOnEvent(tick=40, channel=1, data=[40, 0]),
   midi.NoteOnEvent(tick=0, channel=1, data=[40, 127]),
   midi.NoteOnEvent(tick=40, channel=1, data=[40, 0]),
   midi.NoteOnEvent(tick=0, channel=1, data=[40, 127]),
   midi.NoteOnEvent(tick=40, channel=1, data=[40, 0]),
   midi.NoteOnEvent(tick=0, channel=1, data=[60, 127]),
   midi.NoteOnEvent(tick=0, channel=1, data=[53, 127]),
   midi.NoteOnEvent(tick=240, channel=1, data=[60, 0]),
   midi.NoteOnEvent(tick=0, channel=1, data=[53, 0]),
   midi.NoteOnEvent(tick=0, channel=1, data=[40, 127]),
   midi.NoteOnEvent(tick=60, channel=1, data=[40, 0]),
   midi.NoteOnEvent(tick=0, channel=1, data=[40, 127]),
   midi.NoteOnEvent(tick=60, channel=1, data=[40, 0]),
   midi.NoteOnEvent(tick=0, channel=1, data=[40, 127]),
   midi.NoteOnEvent(tick=40, channel=1, data=[40, 0]),
   midi.NoteOnEvent(tick=0, channel=1, data=[40, 127]),
   midi.NoteOnEvent(tick=40, channel=1, data=[40, 0]),
   midi.NoteOnEvent(tick=0, channel=1, data=[40, 127]),
   midi.NoteOnEvent(tick=40, channel=1, data=[40, 0]),
   midi.NoteOnEvent(tick=0, channel=1, data=[40, 127]),
   midi.NoteOnEvent(tick=60, channel=1, data=[40, 0]),
   midi.NoteOnEvent(tick=0, channel=1, data=[40, 127]),
   midi.NoteOnEvent(tick=60, channel=1, data=[40, 0]),
   midi.NoteOnEvent(tick=0, channel=1, data=[40, 127]),
   midi.NoteOnEvent(tick=40, channel=1, data=[40, 0]),
   midi.NoteOnEvent(tick=0, channel=1, data=[40, 127]),
   midi.NoteOnEvent(tick=40, channel=1, data=[40, 0]),
   midi.NoteOnEvent(tick=0, channel=1, data=[40, 127]),
   midi.NoteOnEvent(tick=40, channel=1, data=[40, 0]),
   midi.NoteOnEvent(tick=0, channel=1, data=[40, 127]),
   midi.NoteOnEvent(tick=60, channel=1, data=[40, 0]),
   midi.NoteOnEvent(tick=0, channel=1, data=[40, 127]),
   midi.NoteOnEvent(tick=60, channel=1, data=[40, 0]),
   midi.NoteOnEvent(tick=0, channel=1, data=[40, 127]),
   midi.NoteOnEvent(tick=40, channel=1, data=[40, 0]),
   midi.NoteOnEvent(tick=0, channel=1, data=[40, 127]),
   midi.NoteOnEvent(tick=40, channel=1, data=[40, 0]),
   midi.NoteOnEvent(tick=0, channel=1, data=[40, 127]),
   midi.NoteOnEvent(tick=40, channel=1, data=[40, 0]),
   midi.NoteOnEvent(tick=0, channel=1, data=[60, 127]),
   midi.NoteOnEvent(tick=0, channel=1, data=[53, 127]),
   midi.NoteOnEvent(tick=30, channel=1, data=[60, 0]),
   midi.NoteOnEvent(tick=0, channel=1, data=[53, 0]),
   midi.NoteOnEvent(tick=0, channel=1, data=[52, 127]),
   midi.NoteOnEvent(tick=0, channel=1, data=[59, 127]),
   midi.NoteOnEvent(tick=90, channel=1, data=[52, 0]),
   midi.NoteOnEvent(tick=0, channel=1, data=[59, 0]),
   midi.NoteOnEvent(tick=0, channel=1, data=[59, 127]),
   midi.NoteOnEvent(tick=0, channel=1, data=[52, 127]),
   midi.NoteOnEvent(tick=120, channel=1, data=[59, 0]),
   midi.NoteOnEvent(tick=0, channel=1, data=[52, 0]),
   midi.NoteOnEvent(tick=0, channel=1, data=[40, 127]),
   midi.NoteOnEvent(tick=60, channel=1, data=[40, 0]),
   midi.NoteOnEvent(tick=0, channel=1, data=[40, 127]),
   midi.NoteOnEvent(tick=60, channel=1, data=[40, 0]),
   midi.NoteOnEvent(tick=0, channel=1, data=[40, 127]),
   midi.NoteOnEvent(tick=40, channel=1, data=[40, 0]),
   midi.NoteOnEvent(tick=0, channel=1, data=[40, 127]),
   midi.NoteOnEvent(tick=40, channel=1, data=[40, 0]),
   midi.NoteOnEvent(tick=0, channel=1, data=[40, 127]),
   midi.NoteOnEvent(tick=40, channel=1, data=[40, 0]),
   midi.NoteOnEvent(tick=0, channel=1, data=[40, 127]),
   midi.NoteOnEvent(tick=60, channel=1, data=[40, 0]),
   midi.NoteOnEvent(tick=0, channel=1, data=[40, 127]),
   midi.NoteOnEvent(tick=60, channel=1, data=[40, 0]),
   midi.NoteOnEvent(tick=0, channel=1, data=[40, 127]),
   midi.NoteOnEvent(tick=40, channel=1, data=[40, 0]),
   midi.NoteOnEvent(tick=0, channel=1, data=[40, 127]),
   midi.NoteOnEvent(tick=40, channel=1, data=[40, 0]),
   midi.NoteOnEvent(tick=0, channel=1, data=[40, 127]),
   midi.NoteOnEvent(tick=40, channel=1, data=[40, 0]),
   midi.NoteOnEvent(tick=0, channel=1, data=[40, 127]),
   midi.NoteOnEvent(tick=60, channel=1, data=[40, 0]),
   midi.NoteOnEvent(tick=0, channel=1, data=[40, 127]),
   midi.NoteOnEvent(tick=60, channel=1, data=[40, 0]),
   midi.NoteOnEvent(tick=0, channel=1, data=[40, 127]),
   midi.NoteOnEvent(tick=40, channel=1, data=[40, 0]),
   midi.NoteOnEvent(tick=0, channel=1, data=[40, 127]),
   midi.NoteOnEvent(tick=40, channel=1, data=[40, 0]),
   midi.NoteOnEvent(tick=0, channel=1, data=[40, 127]),
   midi.NoteOnEvent(tick=40, channel=1, data=[40, 0]),
   midi.NoteOnEvent(tick=0, channel=1, data=[60, 127]),
   midi.NoteOnEvent(tick=0, channel=1, data=[53, 127]),
   midi.NoteOnEvent(tick=240, channel=1, data=[60, 0]),
   midi.NoteOnEvent(tick=0, channel=1, data=[53, 0]),
   midi.NoteOnEvent(tick=0, channel=1, data=[40, 127]),
   midi.NoteOnEvent(tick=60, channel=1, data=[40, 0]),
   midi.NoteOnEvent(tick=0, channel=1, data=[40, 127]),
   midi.NoteOnEvent(tick=60, channel=1, data=[40, 0]),
   midi.NoteOnEvent(tick=0, channel=1, data=[40, 127]),
   midi.NoteOnEvent(tick=40, channel=1, data=[40, 0]),
   midi.NoteOnEvent(tick=0, channel=1, data=[40, 127]),
   midi.NoteOnEvent(tick=40, channel=1, data=[40, 0]),
   midi.NoteOnEvent(tick=0, channel=1, data=[40, 127]),
   midi.NoteOnEvent(tick=40, channel=1, data=[40, 0]),
   midi.NoteOnEvent(tick=0, channel=1, data=[40, 127]),
   midi.NoteOnEvent(tick=60, channel=1, data=[40, 0]),
   midi.NoteOnEvent(tick=0, channel=1, data=[40, 127]),
   midi.NoteOnEvent(tick=60, channel=1, data=[40, 0]),
   midi.NoteOnEvent(tick=0, channel=1, data=[40, 127]),
   midi.NoteOnEvent(tick=40, channel=1, data=[40, 0]),
   midi.NoteOnEvent(tick=0, channel=1, data=[40, 127]),
   midi.NoteOnEvent(tick=40, channel=1, data=[40, 0]),
   midi.NoteOnEvent(tick=0, channel=1, data=[40, 127]),
   midi.NoteOnEvent(tick=40, channel=1, data=[40, 0]),
   midi.NoteOnEvent(tick=0, channel=1, data=[40, 127]),
   midi.NoteOnEvent(tick=60, channel=1, data=[40, 0]),
   midi.NoteOnEvent(tick=0, channel=1, data=[40, 127]),
   midi.NoteOnEvent(tick=60, channel=1, data=[40, 0]),
   midi.NoteOnEvent(tick=0, channel=1, data=[40, 127]),
   midi.NoteOnEvent(tick=40, channel=1, data=[40, 0]),
   midi.NoteOnEvent(tick=0, channel=1, data=[40, 127]),
   midi.NoteOnEvent(tick=40, channel=1, data=[40, 0]),
   midi.NoteOnEvent(tick=0, channel=1, data=[40, 127]),
   midi.NoteOnEvent(tick=40, channel=1, data=[40, 0]),
   midi.NoteOnEvent(tick=0, channel=1, data=[60, 127]),
   midi.NoteOnEvent(tick=0, channel=1, data=[53, 127]),
   midi.NoteOnEvent(tick=30, channel=1, data=[60, 0]),
   midi.NoteOnEvent(tick=0, channel=1, data=[53, 0]),
   midi.NoteOnEvent(tick=0, channel=1, data=[52, 127]),
   midi.NoteOnEvent(tick=0, channel=1, data=[59, 127]),
   midi.NoteOnEvent(tick=90, channel=1, data=[52, 0]),
   midi.NoteOnEvent(tick=0, channel=1, data=[59, 0]),
   midi.NoteOnEvent(tick=0, channel=1, data=[59, 127]),
   midi.NoteOnEvent(tick=0, channel=1, data=[52, 127]),
   midi.NoteOnEvent(tick=120, channel=1, data=[59, 0]),
   midi.NoteOnEvent(tick=0, channel=1, data=[52, 0]),
   midi.NoteOnEvent(tick=0, channel=1, data=[40, 127]),
   midi.NoteOnEvent(tick=60, channel=1, data=[40, 0]),
   midi.NoteOnEvent(tick=0, channel=1, data=[40, 127]),
   midi.NoteOnEvent(tick=60, channel=1, data=[40, 0]),
   midi.NoteOnEvent(tick=0, channel=1, data=[40, 127]),
   midi.NoteOnEvent(tick=40, channel=1, data=[40, 0]),
   midi.NoteOnEvent(tick=0, channel=1, data=[40, 127]),
   midi.NoteOnEvent(tick=40, channel=1, data=[40, 0]),
   midi.NoteOnEvent(tick=0, channel=1, data=[40, 127]),
   midi.NoteOnEvent(tick=40, channel=1, data=[40, 0]),
   midi.NoteOnEvent(tick=0, channel=1, data=[40, 127]),
   midi.NoteOnEvent(tick=60, channel=1, data=[40, 0]),
   midi.NoteOnEvent(tick=0, channel=1, data=[40, 127]),
   midi.NoteOnEvent(tick=60, channel=1, data=[40, 0]),
   midi.NoteOnEvent(tick=0, channel=1, data=[40, 127]),
   midi.NoteOnEvent(tick=40, channel=1, data=[40, 0]),
   midi.NoteOnEvent(tick=0, channel=1, data=[40, 127]),
   midi.NoteOnEvent(tick=40, channel=1, data=[40, 0]),
   midi.NoteOnEvent(tick=0, channel=1, data=[40, 127]),
   midi.NoteOnEvent(tick=40, channel=1, data=[40, 0]),
   midi.NoteOnEvent(tick=0, channel=1, data=[40, 127]),
   midi.NoteOnEvent(tick=60, channel=1, data=[40, 0]),
   midi.NoteOnEvent(tick=0, channel=1, data=[40, 127]),
   midi.NoteOnEvent(tick=60, channel=1, data=[40, 0]),
   midi.NoteOnEvent(tick=0, channel=1, data=[40, 127]),
   midi.NoteOnEvent(tick=40, channel=1, data=[40, 0]),
   midi.NoteOnEvent(tick=0, channel=1, data=[40, 127]),
   midi.NoteOnEvent(tick=40, channel=1, data=[40, 0]),
   midi.NoteOnEvent(tick=0, channel=1, data=[40, 127]),
   midi.NoteOnEvent(tick=40, channel=1, data=[40, 0]),
   midi.NoteOnEvent(tick=0, channel=1, data=[60, 127]),
   midi.NoteOnEvent(tick=0, channel=1, data=[53, 127]),
   midi.NoteOnEvent(tick=240, channel=1, data=[60, 0]),
   midi.NoteOnEvent(tick=0, channel=1, data=[53, 0]),
   midi.NoteOnEvent(tick=0, channel=1, data=[40, 127]),
   midi.NoteOnEvent(tick=60, channel=1, data=[40, 0]),
   midi.NoteOnEvent(tick=0, channel=1, data=[40, 127]),
   midi.NoteOnEvent(tick=60, channel=1, data=[40, 0]),
   midi.NoteOnEvent(tick=0, channel=1, data=[40, 127]),
   midi.NoteOnEvent(tick=40, channel=1, data=[40, 0]),
   midi.NoteOnEvent(tick=0, channel=1, data=[40, 127]),
   midi.NoteOnEvent(tick=40, channel=1, data=[40, 0]),
   midi.NoteOnEvent(tick=0, channel=1, data=[40, 127]),
   midi.NoteOnEvent(tick=40, channel=1, data=[40, 0]),
   midi.NoteOnEvent(tick=0, channel=1, data=[40, 127]),
   midi.NoteOnEvent(tick=60, channel=1, data=[40, 0]),
   midi.NoteOnEvent(tick=0, channel=1, data=[40, 127]),
   midi.NoteOnEvent(tick=60, channel=1, data=[40, 0]),
   midi.NoteOnEvent(tick=0, channel=1, data=[40, 127]),
   midi.NoteOnEvent(tick=40, channel=1, data=[40, 0]),
   midi.NoteOnEvent(tick=0, channel=1, data=[40, 127]),
   midi.NoteOnEvent(tick=40, channel=1, data=[40, 0]),
   midi.NoteOnEvent(tick=0, channel=1, data=[40, 127]),
   midi.NoteOnEvent(tick=40, channel=1, data=[40, 0]),
   midi.NoteOnEvent(tick=0, channel=1, data=[40, 127]),
   midi.NoteOnEvent(tick=60, channel=1, data=[40, 0]),
   midi.NoteOnEvent(tick=0, channel=1, data=[40, 127]),
   midi.NoteOnEvent(tick=60, channel=1, data=[40, 0]),
   midi.NoteOnEvent(tick=0, channel=1, data=[40, 127]),
   midi.NoteOnEvent(tick=40, channel=1, data=[40, 0]),
   midi.NoteOnEvent(tick=0, channel=1, data=[40, 127]),
   midi.NoteOnEvent(tick=40, channel=1, data=[40, 0]),
   midi.NoteOnEvent(tick=0, channel=1, data=[40, 127]),
   midi.NoteOnEvent(tick=40, channel=1, data=[40, 0]),
   midi.NoteOnEvent(tick=0, channel=1, data=[60, 127]),
   midi.NoteOnEvent(tick=0, channel=1, data=[53, 127]),
   midi.NoteOnEvent(tick=30, channel=1, data=[60, 0]),
   midi.NoteOnEvent(tick=0, channel=1, data=[53, 0]),
   midi.NoteOnEvent(tick=0, channel=1, data=[52, 127]),
   midi.NoteOnEvent(tick=0, channel=1, data=[59, 127]),
   midi.NoteOnEvent(tick=90, channel=1, data=[52, 0]),
   midi.NoteOnEvent(tick=0, channel=1, data=[59, 0]),
   midi.NoteOnEvent(tick=0, channel=1, data=[59, 127]),
   midi.NoteOnEvent(tick=0, channel=1, data=[52, 127]),
   midi.NoteOnEvent(tick=120, channel=1, data=[59, 0]),
   midi.NoteOnEvent(tick=0, channel=1, data=[52, 0]),
   midi.NoteOnEvent(tick=0, channel=1, data=[40, 127]),
   midi.NoteOnEvent(tick=60, channel=1, data=[40, 0]),
   midi.NoteOnEvent(tick=0, channel=1, data=[40, 127]),
   midi.NoteOnEvent(tick=60, channel=1, data=[40, 0]),
   midi.NoteOnEvent(tick=0, channel=1, data=[40, 127]),
   midi.NoteOnEvent(tick=40, channel=1, data=[40, 0]),
   midi.NoteOnEvent(tick=0, channel=1, data=[40, 127]),
   midi.NoteOnEvent(tick=40, channel=1, data=[40, 0]),
   midi.NoteOnEvent(tick=0, channel=1, data=[40, 127]),
   midi.NoteOnEvent(tick=40, channel=1, data=[40, 0]),
   midi.NoteOnEvent(tick=0, channel=1, data=[40, 127]),
   midi.NoteOnEvent(tick=60, channel=1, data=[40, 0]),
   midi.NoteOnEvent(tick=0, channel=1, data=[40, 127]),
   midi.NoteOnEvent(tick=60, channel=1, data=[40, 0]),
   midi.NoteOnEvent(tick=0, channel=1, data=[40, 127]),
   midi.NoteOnEvent(tick=40, channel=1, data=[40, 0]),
   midi.NoteOnEvent(tick=0, channel=1, data=[40, 127]),
   midi.NoteOnEvent(tick=40, channel=1, data=[40, 0]),
   midi.NoteOnEvent(tick=0, channel=1, data=[40, 127]),
   midi.NoteOnEvent(tick=40, channel=1, data=[40, 0]),
   midi.NoteOnEvent(tick=0, channel=1, data=[40, 127]),
   midi.NoteOnEvent(tick=60, channel=1, data=[40, 0]),
   midi.NoteOnEvent(tick=0, channel=1, data=[40, 127]),
   midi.NoteOnEvent(tick=60, channel=1, data=[40, 0]),
   midi.NoteOnEvent(tick=0, channel=1, data=[40, 127]),
   midi.NoteOnEvent(tick=40, channel=1, data=[40, 0]),
   midi.NoteOnEvent(tick=0, channel=1, data=[40, 127]),
   midi.NoteOnEvent(tick=40, channel=1, data=[40, 0]),
   midi.NoteOnEvent(tick=0, channel=1, data=[40, 127]),
   midi.NoteOnEvent(tick=40, channel=1, data=[40, 0]),
   midi.NoteOnEvent(tick=0, channel=1, data=[60, 127]),
   midi.NoteOnEvent(tick=0, channel=1, data=[53, 127]),
   midi.NoteOnEvent(tick=240, channel=1, data=[60, 0]),
   midi.NoteOnEvent(tick=0, channel=1, data=[53, 0]),
   midi.NoteOnEvent(tick=0, channel=1, data=[52, 127]),
   midi.NoteOnEvent(tick=40, channel=1, data=[52, 0]),
   midi.NoteOnEvent(tick=0, channel=1, data=[50, 127]),
   midi.NoteOnEvent(tick=40, channel=1, data=[50, 0]),
   midi.NoteOnEvent(tick=0, channel=1, data=[47, 127]),
   midi.NoteOnEvent(tick=40, channel=1, data=[47, 0]),
   midi.NoteOnEvent(tick=0, channel=1, data=[50, 127]),
   midi.NoteOnEvent(tick=40, channel=1, data=[50, 0]),
   midi.NoteOnEvent(tick=0, channel=1, data=[47, 127]),
   midi.NoteOnEvent(tick=40, channel=1, data=[47, 0]),
   midi.NoteOnEvent(tick=0, channel=1, data=[46, 127]),
   midi.NoteOnEvent(tick=40, channel=1, data=[46, 0]),
   midi.NoteOnEvent(tick=0, channel=1, data=[45, 127]),
   midi.NoteOnEvent(tick=40, channel=1, data=[45, 0]),
   midi.NoteOnEvent(tick=0, channel=1, data=[43, 127]),
   midi.NoteOnEvent(tick=40, channel=1, data=[43, 0]),
   midi.NoteOnEvent(tick=0, channel=1, data=[45, 127]),
   midi.NoteOnEvent(tick=40, channel=1, data=[45, 0]),
   midi.NoteOnEvent(tick=0, channel=1, data=[40, 127]),
   midi.NoteOnEvent(tick=40, channel=1, data=[40, 0]),
   midi.NoteOnEvent(tick=0, channel=1, data=[43, 127]),
   midi.NoteOnEvent(tick=40, channel=1, data=[43, 0]),
   midi.NoteOnEvent(tick=0, channel=1, data=[45, 127]),
   midi.NoteOnEvent(tick=40, channel=1, data=[45, 0]),
   midi.NoteOnEvent(tick=0, channel=1, data=[52, 127]),
   midi.NoteOnEvent(tick=40, channel=1, data=[52, 0]),
   midi.NoteOnEvent(tick=0, channel=1, data=[50, 127]),
   midi.NoteOnEvent(tick=40, channel=1, data=[50, 0]),
   midi.NoteOnEvent(tick=0, channel=1, data=[47, 127]),
   midi.NoteOnEvent(tick=40, channel=1, data=[47, 0]),
   midi.NoteOnEvent(tick=0, channel=1, data=[50, 127]),
   midi.NoteOnEvent(tick=40, channel=1, data=[50, 0]),
   midi.NoteOnEvent(tick=0, channel=1, data=[47, 127]),
   midi.NoteOnEvent(tick=40, channel=1, data=[47, 0]),
   midi.NoteOnEvent(tick=0, channel=1, data=[46, 127]),
   midi.NoteOnEvent(tick=40, channel=1, data=[46, 0]),
   midi.NoteOnEvent(tick=0, channel=1, data=[45, 127]),
   midi.NoteOnEvent(tick=120, channel=1, data=[45, 0]),
   midi.NoteOnEvent(tick=60, channel=1, data=[55, 127]),
   midi.NoteOnEvent(tick=0, channel=1, data=[48, 127]),
   midi.NoteOnEvent(tick=60, channel=1, data=[48, 0]),
   midi.NoteOnEvent(tick=60, channel=1, data=[55, 0]),
   midi.NoteOnEvent(tick=0, channel=1, data=[49, 127]),
   midi.NoteOnEvent(tick=0, channel=1, data=[56, 127]),
   midi.NoteOnEvent(tick=60, channel=1, data=[56, 0]),
   midi.NoteOnEvent(tick=60, channel=1, data=[49, 0]),
   midi.NoteOnEvent(tick=0, channel=1, data=[50, 127]),
   midi.NoteOnEvent(tick=0, channel=1, data=[57, 127]),
   midi.NoteOnEvent(tick=60, channel=1, data=[50, 0]),
   midi.NoteOnEvent(tick=0, channel=1, data=[57, 0]),
   midi.NoteOnEvent(tick=0, channel=1, data=[40, 127]),
   midi.NoteOnEvent(tick=60, channel=1, data=[40, 0]),
   midi.NoteOnEvent(tick=0, channel=1, data=[40, 127]),
   midi.NoteOnEvent(tick=60, channel=1, data=[40, 0]),
   midi.NoteOnEvent(tick=0, channel=1, data=[45, 127]),
   midi.NoteOnEvent(tick=60, channel=1, data=[45, 0]),
   midi.NoteOnEvent(tick=0, channel=1, data=[47, 127]),
   midi.NoteOnEvent(tick=60, channel=1, data=[47, 0]),
   midi.NoteOnEvent(tick=0, channel=1, data=[53, 127]),
   midi.NoteOnEvent(tick=60, channel=1, data=[53, 0]),
   midi.NoteOnEvent(tick=0, channel=1, data=[52, 127]),
   midi.NoteOnEvent(tick=60, channel=1, data=[52, 0]),
   midi.NoteOnEvent(tick=0, channel=1, data=[50, 127]),
   midi.NoteOnEvent(tick=60, channel=1, data=[50, 0]),
   midi.NoteOnEvent(tick=0, channel=1, data=[52, 127]),
   midi.NoteOnEvent(tick=60, channel=1, data=[52, 0]),
   midi.NoteOnEvent(tick=0, channel=1, data=[40, 127]),
   midi.NoteOnEvent(tick=60, channel=1, data=[40, 0]),
   midi.NoteOnEvent(tick=0, channel=1, data=[40, 127]),
   midi.NoteOnEvent(tick=60, channel=1, data=[40, 0]),
   midi.NoteOnEvent(tick=0, channel=1, data=[40, 127]),
   midi.NoteOnEvent(tick=60, channel=1, data=[40, 0]),
   midi.NoteOnEvent(tick=0, channel=1, data=[55, 127]),
   midi.NoteOnEvent(tick=0, channel=1, data=[48, 127]),
   midi.NoteOnEvent(tick=60, channel=1, data=[55, 0]),
   midi.NoteOnEvent(tick=0, channel=1, data=[48, 0]),
   midi.NoteOnEvent(tick=0, channel=1, data=[40, 127]),
   midi.NoteOnEvent(tick=60, channel=1, data=[40, 0]),
   midi.NoteOnEvent(tick=0, channel=1, data=[49, 127]),
   midi.NoteOnEvent(tick=0, channel=1, data=[56, 127]),
   midi.NoteOnEvent(tick=60, channel=1, data=[49, 0]),
   midi.NoteOnEvent(tick=0, channel=1, data=[56, 0]),
   midi.NoteOnEvent(tick=0, channel=1, data=[40, 127]),
   midi.NoteOnEvent(tick=60, channel=1, data=[40, 0]),
   midi.NoteOnEvent(tick=0, channel=1, data=[57, 127]),
   midi.NoteOnEvent(tick=0, channel=1, data=[50, 127]),
   midi.NoteOnEvent(tick=60, channel=1, data=[57, 0]),
   midi.NoteOnEvent(tick=0, channel=1, data=[50, 0]),
   midi.NoteOnEvent(tick=0, channel=1, data=[40, 127]),
   midi.NoteOnEvent(tick=60, channel=1, data=[40, 0]),
   midi.NoteOnEvent(tick=0, channel=1, data=[40, 127]),
   midi.NoteOnEvent(tick=60, channel=1, data=[40, 0]),
   midi.NoteOnEvent(tick=0, channel=1, data=[45, 127]),
   midi.NoteOnEvent(tick=60, channel=1, data=[45, 0]),
   midi.NoteOnEvent(tick=0, channel=1, data=[47, 127]),
   midi.NoteOnEvent(tick=60, channel=1, data=[47, 0]),
   midi.NoteOnEvent(tick=0, channel=1, data=[53, 127]),
   midi.NoteOnEvent(tick=60, channel=1, data=[53, 0]),
   midi.NoteOnEvent(tick=0, channel=1, data=[52, 127]),
   midi.NoteOnEvent(tick=60, channel=1, data=[52, 0]),
   midi.NoteOnEvent(tick=0, channel=1, data=[50, 127]),
   midi.NoteOnEvent(tick=60, channel=1, data=[50, 0]),
   midi.NoteOnEvent(tick=0, channel=1, data=[52, 127]),
   midi.NoteOnEvent(tick=60, channel=1, data=[52, 0]),
   midi.NoteOnEvent(tick=0, channel=1, data=[40, 127]),
   midi.NoteOnEvent(tick=60, channel=1, data=[40, 0]),
   midi.NoteOnEvent(tick=0, channel=1, data=[40, 127]),
   midi.NoteOnEvent(tick=60, channel=1, data=[40, 0]),
   midi.NoteOnEvent(tick=0, channel=1, data=[40, 127]),
   midi.NoteOnEvent(tick=60, channel=1, data=[40, 0]),
   midi.NoteOnEvent(tick=0, channel=1, data=[55, 127]),
   midi.NoteOnEvent(tick=0, channel=1, data=[48, 127]),
   midi.NoteOnEvent(tick=60, channel=1, data=[55, 0]),
   midi.NoteOnEvent(tick=0, channel=1, data=[48, 0]),
   midi.NoteOnEvent(tick=0, channel=1, data=[40, 127]),
   midi.NoteOnEvent(tick=60, channel=1, data=[40, 0]),
   midi.NoteOnEvent(tick=0, channel=1, data=[49, 127]),
   midi.NoteOnEvent(tick=0, channel=1, data=[56, 127]),
   midi.NoteOnEvent(tick=60, channel=1, data=[49, 0]),
   midi.NoteOnEvent(tick=0, channel=1, data=[56, 0]),
   midi.NoteOnEvent(tick=0, channel=1, data=[40, 127]),
   midi.NoteOnEvent(tick=60, channel=1, data=[40, 0]),
   midi.NoteOnEvent(tick=0, channel=1, data=[57, 127]),
   midi.NoteOnEvent(tick=0, channel=1, data=[50, 127]),
   midi.NoteOnEvent(tick=60, channel=1, data=[57, 0]),
   midi.NoteOnEvent(tick=0, channel=1, data=[50, 0]),
   midi.NoteOnEvent(tick=0, channel=1, data=[40, 127]),
   midi.NoteOnEvent(tick=60, channel=1, data=[40, 0]),
   midi.NoteOnEvent(tick=0, channel=1, data=[40, 127]),
   midi.NoteOnEvent(tick=60, channel=1, data=[40, 0]),
   midi.NoteOnEvent(tick=0, channel=1, data=[45, 127]),
   midi.NoteOnEvent(tick=60, channel=1, data=[45, 0]),
   midi.NoteOnEvent(tick=0, channel=1, data=[47, 127]),
   midi.NoteOnEvent(tick=60, channel=1, data=[47, 0]),
   midi.NoteOnEvent(tick=0, channel=1, data=[53, 127]),
   midi.NoteOnEvent(tick=60, channel=1, data=[53, 0]),
   midi.NoteOnEvent(tick=0, channel=1, data=[52, 127]),
   midi.NoteOnEvent(tick=60, channel=1, data=[52, 0]),
   midi.NoteOnEvent(tick=0, channel=1, data=[50, 127]),
   midi.NoteOnEvent(tick=60, channel=1, data=[50, 0]),
   midi.NoteOnEvent(tick=0, channel=1, data=[52, 127]),
   midi.NoteOnEvent(tick=60, channel=1, data=[52, 0]),
   midi.NoteOnEvent(tick=0, channel=1, data=[40, 127]),
   midi.NoteOnEvent(tick=60, channel=1, data=[40, 0]),
   midi.NoteOnEvent(tick=0, channel=1, data=[40, 127]),
   midi.NoteOnEvent(tick=60, channel=1, data=[40, 0]),
   midi.NoteOnEvent(tick=0, channel=1, data=[40, 127]),
   midi.NoteOnEvent(tick=60, channel=1, data=[40, 0]),
   midi.NoteOnEvent(tick=0, channel=1, data=[55, 127]),
   midi.NoteOnEvent(tick=0, channel=1, data=[48, 127]),
   midi.NoteOnEvent(tick=60, channel=1, data=[55, 0]),
   midi.NoteOnEvent(tick=0, channel=1, data=[48, 0]),
   midi.NoteOnEvent(tick=0, channel=1, data=[40, 127]),
   midi.NoteOnEvent(tick=60, channel=1, data=[40, 0]),
   midi.NoteOnEvent(tick=0, channel=1, data=[49, 127]),
   midi.NoteOnEvent(tick=0, channel=1, data=[56, 127]),
   midi.NoteOnEvent(tick=60, channel=1, data=[49, 0]),
   midi.NoteOnEvent(tick=0, channel=1, data=[56, 0]),
   midi.NoteOnEvent(tick=0, channel=1, data=[40, 127]),
   midi.NoteOnEvent(tick=60, channel=1, data=[40, 0]),
   midi.NoteOnEvent(tick=0, channel=1, data=[57, 127]),
   midi.NoteOnEvent(tick=0, channel=1, data=[50, 127]),
   midi.NoteOnEvent(tick=60, channel=1, data=[57, 0]),
   midi.NoteOnEvent(tick=0, channel=1, data=[50, 0]),
   midi.NoteOnEvent(tick=0, channel=1, data=[40, 127]),
   midi.NoteOnEvent(tick=60, channel=1, data=[40, 0]),
   midi.NoteOnEvent(tick=0, channel=1, data=[40, 127]),
   midi.NoteOnEvent(tick=60, channel=1, data=[40, 0]),
   midi.NoteOnEvent(tick=0, channel=1, data=[45, 127]),
   midi.NoteOnEvent(tick=60, channel=1, data=[45, 0]),
   midi.NoteOnEvent(tick=0, channel=1, data=[47, 127]),
   midi.NoteOnEvent(tick=60, channel=1, data=[47, 0]),
   midi.NoteOnEvent(tick=0, channel=1, data=[53, 127]),
   midi.NoteOnEvent(tick=60, channel=1, data=[53, 0]),
   midi.NoteOnEvent(tick=0, channel=1, data=[52, 127]),
   midi.NoteOnEvent(tick=60, channel=1, data=[52, 0]),
   midi.NoteOnEvent(tick=0, channel=1, data=[50, 127]),
   midi.NoteOnEvent(tick=60, channel=1, data=[50, 0]),
   midi.NoteOnEvent(tick=0, channel=1, data=[52, 127]),
   midi.NoteOnEvent(tick=60, channel=1, data=[52, 0]),
   midi.NoteOnEvent(tick=0, channel=1, data=[40, 127]),
   midi.NoteOnEvent(tick=60, channel=1, data=[40, 0]),
   midi.NoteOnEvent(tick=0, channel=1, data=[40, 127]),
   midi.NoteOnEvent(tick=60, channel=1, data=[40, 0]),
   midi.NoteOnEvent(tick=0, channel=1, data=[40, 127]),
   midi.NoteOnEvent(tick=60, channel=1, data=[40, 0]),
   midi.NoteOnEvent(tick=0, channel=1, data=[55, 127]),
   midi.NoteOnEvent(tick=0, channel=1, data=[48, 127]),
   midi.NoteOnEvent(tick=60, channel=1, data=[55, 0]),
   midi.NoteOnEvent(tick=0, channel=1, data=[48, 0]),
   midi.NoteOnEvent(tick=0, channel=1, data=[40, 127]),
   midi.NoteOnEvent(tick=60, channel=1, data=[40, 0]),
   midi.NoteOnEvent(tick=0, channel=1, data=[49, 127]),
   midi.NoteOnEvent(tick=0, channel=1, data=[56, 127]),
   midi.NoteOnEvent(tick=60, channel=1, data=[49, 0]),
   midi.NoteOnEvent(tick=0, channel=1, data=[56, 0]),
   midi.NoteOnEvent(tick=0, channel=1, data=[40, 127]),
   midi.NoteOnEvent(tick=60, channel=1, data=[40, 0]),
   midi.NoteOnEvent(tick=0, channel=1, data=[57, 127]),
   midi.NoteOnEvent(tick=0, channel=1, data=[50, 127]),
   midi.NoteOnEvent(tick=60, channel=1, data=[57, 0]),
   midi.NoteOnEvent(tick=0, channel=1, data=[50, 0]),
   midi.NoteOnEvent(tick=0, channel=1, data=[40, 127]),
   midi.NoteOnEvent(tick=60, channel=1, data=[40, 0]),
   midi.NoteOnEvent(tick=0, channel=1, data=[40, 127]),
   midi.NoteOnEvent(tick=60, channel=1, data=[40, 0]),
   midi.NoteOnEvent(tick=0, channel=1, data=[45, 127]),
   midi.NoteOnEvent(tick=60, channel=1, data=[45, 0]),
   midi.NoteOnEvent(tick=0, channel=1, data=[47, 127]),
   midi.NoteOnEvent(tick=60, channel=1, data=[47, 0]),
   midi.NoteOnEvent(tick=0, channel=1, data=[53, 127]),
   midi.NoteOnEvent(tick=60, channel=1, data=[53, 0]),
   midi.NoteOnEvent(tick=0, channel=1, data=[52, 127]),
   midi.NoteOnEvent(tick=60, channel=1, data=[52, 0]),
   midi.NoteOnEvent(tick=0, channel=1, data=[50, 127]),
   midi.NoteOnEvent(tick=60, channel=1, data=[50, 0]),
   midi.NoteOnEvent(tick=0, channel=1, data=[52, 127]),
   midi.NoteOnEvent(tick=60, channel=1, data=[52, 0]),
   midi.NoteOnEvent(tick=0, channel=1, data=[40, 127]),
   midi.NoteOnEvent(tick=60, channel=1, data=[40, 0]),
   midi.NoteOnEvent(tick=0, channel=1, data=[40, 127]),
   midi.NoteOnEvent(tick=60, channel=1, data=[40, 0]),
   midi.NoteOnEvent(tick=0, channel=1, data=[40, 127]),
   midi.NoteOnEvent(tick=60, channel=1, data=[40, 0]),
   midi.NoteOnEvent(tick=0, channel=1, data=[55, 127]),
   midi.NoteOnEvent(tick=0, channel=1, data=[48, 127]),
   midi.NoteOnEvent(tick=60, channel=1, data=[55, 0]),
   midi.NoteOnEvent(tick=0, channel=1, data=[48, 0]),
   midi.NoteOnEvent(tick=0, channel=1, data=[40, 127]),
   midi.NoteOnEvent(tick=60, channel=1, data=[40, 0]),
   midi.NoteOnEvent(tick=0, channel=1, data=[49, 127]),
   midi.NoteOnEvent(tick=0, channel=1, data=[56, 127]),
   midi.NoteOnEvent(tick=60, channel=1, data=[49, 0]),
   midi.NoteOnEvent(tick=0, channel=1, data=[56, 0]),
   midi.NoteOnEvent(tick=0, channel=1, data=[40, 127]),
   midi.NoteOnEvent(tick=60, channel=1, data=[40, 0]),
   midi.NoteOnEvent(tick=0, channel=1, data=[57, 127]),
   midi.NoteOnEvent(tick=0, channel=1, data=[50, 127]),
   midi.NoteOnEvent(tick=60, channel=1, data=[57, 0]),
   midi.NoteOnEvent(tick=0, channel=1, data=[50, 0]),
   midi.NoteOnEvent(tick=0, channel=1, data=[40, 127]),
   midi.NoteOnEvent(tick=60, channel=1, data=[40, 0]),
   midi.NoteOnEvent(tick=0, channel=1, data=[40, 127]),
   midi.NoteOnEvent(tick=60, channel=1, data=[40, 0]),
   midi.NoteOnEvent(tick=0, channel=1, data=[45, 127]),
   midi.NoteOnEvent(tick=60, channel=1, data=[45, 0]),
   midi.NoteOnEvent(tick=0, channel=1, data=[47, 127]),
   midi.NoteOnEvent(tick=60, channel=1, data=[47, 0]),
   midi.NoteOnEvent(tick=0, channel=1, data=[53, 127]),
   midi.NoteOnEvent(tick=60, channel=1, data=[53, 0]),
   midi.NoteOnEvent(tick=0, channel=1, data=[52, 127]),
   midi.NoteOnEvent(tick=60, channel=1, data=[52, 0]),
   midi.NoteOnEvent(tick=0, channel=1, data=[50, 127]),
   midi.NoteOnEvent(tick=60, channel=1, data=[50, 0]),
   midi.NoteOnEvent(tick=0, channel=1, data=[52, 127]),
   midi.NoteOnEvent(tick=60, channel=1, data=[52, 0]),
   midi.NoteOnEvent(tick=0, channel=1, data=[40, 127]),
   midi.NoteOnEvent(tick=60, channel=1, data=[40, 0]),
   midi.NoteOnEvent(tick=0, channel=1, data=[40, 127]),
   midi.NoteOnEvent(tick=60, channel=1, data=[40, 0]),
   midi.NoteOnEvent(tick=0, channel=1, data=[40, 127]),
   midi.NoteOnEvent(tick=60, channel=1, data=[40, 0]),
   midi.NoteOnEvent(tick=0, channel=1, data=[55, 127]),
   midi.NoteOnEvent(tick=0, channel=1, data=[48, 127]),
   midi.NoteOnEvent(tick=60, channel=1, data=[55, 0]),
   midi.NoteOnEvent(tick=0, channel=1, data=[48, 0]),
   midi.NoteOnEvent(tick=0, channel=1, data=[40, 127]),
   midi.NoteOnEvent(tick=60, channel=1, data=[40, 0]),
   midi.NoteOnEvent(tick=0, channel=1, data=[49, 127]),
   midi.NoteOnEvent(tick=0, channel=1, data=[56, 127]),
   midi.NoteOnEvent(tick=60, channel=1, data=[49, 0]),
   midi.NoteOnEvent(tick=0, channel=1, data=[56, 0]),
   midi.NoteOnEvent(tick=0, channel=1, data=[40, 127]),
   midi.NoteOnEvent(tick=60, channel=1, data=[40, 0]),
   midi.NoteOnEvent(tick=0, channel=1, data=[57, 127]),
   midi.NoteOnEvent(tick=0, channel=1, data=[50, 127]),
   midi.NoteOnEvent(tick=60, channel=1, data=[57, 0]),
   midi.NoteOnEvent(tick=0, channel=1, data=[50, 0]),
   midi.NoteOnEvent(tick=0, channel=1, data=[40, 127]),
   midi.NoteOnEvent(tick=60, channel=1, data=[40, 0]),
   midi.NoteOnEvent(tick=0, channel=1, data=[40, 127]),
   midi.NoteOnEvent(tick=60, channel=1, data=[40, 0]),
   midi.NoteOnEvent(tick=0, channel=1, data=[45, 127]),
   midi.NoteOnEvent(tick=60, channel=1, data=[45, 0]),
   midi.NoteOnEvent(tick=0, channel=1, data=[47, 127]),
   midi.NoteOnEvent(tick=60, channel=1, data=[47, 0]),
   midi.NoteOnEvent(tick=0, channel=1, data=[53, 127]),
   midi.NoteOnEvent(tick=60, channel=1, data=[53, 0]),
   midi.NoteOnEvent(tick=0, channel=1, data=[52, 127]),
   midi.NoteOnEvent(tick=60, channel=1, data=[52, 0]),
   midi.NoteOnEvent(tick=0, channel=1, data=[50, 127]),
   midi.NoteOnEvent(tick=60, channel=1, data=[50, 0]),
   midi.NoteOnEvent(tick=0, channel=1, data=[52, 127]),
   midi.NoteOnEvent(tick=60, channel=1, data=[52, 0]),
   midi.NoteOnEvent(tick=0, channel=1, data=[40, 127]),
   midi.NoteOnEvent(tick=60, channel=1, data=[40, 0]),
   midi.NoteOnEvent(tick=0, channel=1, data=[40, 127]),
   midi.NoteOnEvent(tick=60, channel=1, data=[40, 0]),
   midi.NoteOnEvent(tick=0, channel=1, data=[40, 127]),
   midi.NoteOnEvent(tick=60, channel=1, data=[40, 0]),
   midi.NoteOnEvent(tick=0, channel=1, data=[55, 127]),
   midi.NoteOnEvent(tick=0, channel=1, data=[48, 127]),
   midi.NoteOnEvent(tick=60, channel=1, data=[55, 0]),
   midi.NoteOnEvent(tick=0, channel=1, data=[48, 0]),
   midi.NoteOnEvent(tick=0, channel=1, data=[40, 127]),
   midi.NoteOnEvent(tick=60, channel=1, data=[40, 0]),
   midi.NoteOnEvent(tick=0, channel=1, data=[49, 127]),
   midi.NoteOnEvent(tick=0, channel=1, data=[56, 127]),
   midi.NoteOnEvent(tick=60, channel=1, data=[49, 0]),
   midi.NoteOnEvent(tick=0, channel=1, data=[56, 0]),
   midi.NoteOnEvent(tick=0, channel=1, data=[40, 127]),
   midi.NoteOnEvent(tick=60, channel=1, data=[40, 0]),
   midi.NoteOnEvent(tick=0, channel=1, data=[57, 127]),
   midi.NoteOnEvent(tick=0, channel=1, data=[50, 127]),
   midi.NoteOnEvent(tick=60, channel=1, data=[57, 0]),
   midi.NoteOnEvent(tick=0, channel=1, data=[50, 0]),
   midi.NoteOnEvent(tick=0, channel=1, data=[40, 127]),
   midi.NoteOnEvent(tick=60, channel=1, data=[40, 0]),
   midi.NoteOnEvent(tick=0, channel=1, data=[40, 127]),
   midi.NoteOnEvent(tick=60, channel=1, data=[40, 0]),
   midi.NoteOnEvent(tick=0, channel=1, data=[45, 127]),
   midi.NoteOnEvent(tick=60, channel=1, data=[45, 0]),
   midi.NoteOnEvent(tick=0, channel=1, data=[47, 127]),
   midi.NoteOnEvent(tick=60, channel=1, data=[47, 0]),
   midi.NoteOnEvent(tick=0, channel=1, data=[53, 127]),
   midi.NoteOnEvent(tick=60, channel=1, data=[53, 0]),
   midi.NoteOnEvent(tick=0, channel=1, data=[52, 127]),
   midi.NoteOnEvent(tick=60, channel=1, data=[52, 0]),
   midi.NoteOnEvent(tick=0, channel=1, data=[50, 127]),
   midi.NoteOnEvent(tick=60, channel=1, data=[50, 0]),
   midi.NoteOnEvent(tick=0, channel=1, data=[52, 127]),
   midi.NoteOnEvent(tick=60, channel=1, data=[52, 0]),
   midi.NoteOnEvent(tick=0, channel=1, data=[40, 127]),
   midi.NoteOnEvent(tick=60, channel=1, data=[40, 0]),
   midi.NoteOnEvent(tick=0, channel=1, data=[40, 127]),
   midi.NoteOnEvent(tick=60, channel=1, data=[40, 0]),
   midi.NoteOnEvent(tick=0, channel=1, data=[40, 127]),
   midi.NoteOnEvent(tick=60, channel=1, data=[40, 0]),
   midi.NoteOnEvent(tick=0, channel=1, data=[55, 127]),
   midi.NoteOnEvent(tick=0, channel=1, data=[48, 127]),
   midi.NoteOnEvent(tick=60, channel=1, data=[55, 0]),
   midi.NoteOnEvent(tick=0, channel=1, data=[48, 0]),
   midi.NoteOnEvent(tick=0, channel=1, data=[40, 127]),
   midi.NoteOnEvent(tick=60, channel=1, data=[40, 0]),
   midi.NoteOnEvent(tick=0, channel=1, data=[49, 127]),
   midi.NoteOnEvent(tick=0, channel=1, data=[56, 127]),
   midi.NoteOnEvent(tick=60, channel=1, data=[49, 0]),
   midi.NoteOnEvent(tick=0, channel=1, data=[56, 0]),
   midi.NoteOnEvent(tick=0, channel=1, data=[40, 127]),
   midi.NoteOnEvent(tick=60, channel=1, data=[40, 0]),
   midi.NoteOnEvent(tick=0, channel=1, data=[57, 127]),
   midi.NoteOnEvent(tick=0, channel=1, data=[50, 127]),
   midi.NoteOnEvent(tick=60, channel=1, data=[57, 0]),
   midi.NoteOnEvent(tick=0, channel=1, data=[50, 0]),
   midi.NoteOnEvent(tick=0, channel=1, data=[40, 127]),
   midi.NoteOnEvent(tick=60, channel=1, data=[40, 0]),
   midi.NoteOnEvent(tick=0, channel=1, data=[40, 127]),
   midi.NoteOnEvent(tick=60, channel=1, data=[40, 0]),
   midi.NoteOnEvent(tick=0, channel=1, data=[40, 127]),
   midi.NoteOnEvent(tick=60, channel=1, data=[40, 0]),
   midi.NoteOnEvent(tick=0, channel=1, data=[40, 127]),
   midi.NoteOnEvent(tick=60, channel=1, data=[40, 0]),
   midi.NoteOnEvent(tick=0, channel=1, data=[40, 127]),
   midi.NoteOnEvent(tick=60, channel=1, data=[40, 0]),
   midi.NoteOnEvent(tick=0, channel=1, data=[40, 127]),
   midi.NoteOnEvent(tick=60, channel=1, data=[40, 0]),
   midi.NoteOnEvent(tick=0, channel=1, data=[40, 127]),
   midi.NoteOnEvent(tick=60, channel=1, data=[40, 0]),
   midi.NoteOnEvent(tick=0, channel=1, data=[40, 127]),
   midi.NoteOnEvent(tick=60, channel=1, data=[40, 0]),
   midi.NoteOnEvent(tick=0, channel=1, data=[40, 127]),
   midi.NoteOnEvent(tick=60, channel=1, data=[40, 0]),
   midi.NoteOnEvent(tick=0, channel=1, data=[40, 127]),
   midi.NoteOnEvent(tick=60, channel=1, data=[40, 0]),
   midi.NoteOnEvent(tick=0, channel=1, data=[40, 127]),
   midi.NoteOnEvent(tick=60, channel=1, data=[40, 0]),
   midi.NoteOnEvent(tick=0, channel=1, data=[55, 127]),
   midi.NoteOnEvent(tick=0, channel=1, data=[48, 127]),
   midi.NoteOnEvent(tick=60, channel=1, data=[55, 0]),
   midi.NoteOnEvent(tick=0, channel=1, data=[48, 0]),
   midi.NoteOnEvent(tick=0, channel=1, data=[40, 127]),
   midi.NoteOnEvent(tick=60, channel=1, data=[40, 0]),
   midi.NoteOnEvent(tick=0, channel=1, data=[56, 127]),
   midi.NoteOnEvent(tick=0, channel=1, data=[49, 127]),
   midi.NoteOnEvent(tick=60, channel=1, data=[56, 0]),
   midi.NoteOnEvent(tick=0, channel=1, data=[49, 0]),
   midi.NoteOnEvent(tick=0, channel=1, data=[40, 127]),
   midi.NoteOnEvent(tick=60, channel=1, data=[40, 0]),
   midi.NoteOnEvent(tick=0, channel=1, data=[57, 127]),
   midi.NoteOnEvent(tick=0, channel=1, data=[50, 127]),
   midi.NoteOnEvent(tick=60, channel=1, data=[57, 0]),
   midi.NoteOnEvent(tick=0, channel=1, data=[50, 0]),
   midi.NoteOnEvent(tick=0, channel=1, data=[40, 127]),
   midi.NoteOnEvent(tick=60, channel=1, data=[40, 0]),
   midi.NoteOnEvent(tick=0, channel=1, data=[40, 127]),
   midi.NoteOnEvent(tick=60, channel=1, data=[40, 0]),
   midi.NoteOnEvent(tick=0, channel=1, data=[40, 127]),
   midi.NoteOnEvent(tick=60, channel=1, data=[40, 0]),
   midi.NoteOnEvent(tick=0, channel=1, data=[40, 127]),
   midi.NoteOnEvent(tick=60, channel=1, data=[40, 0]),
   midi.NoteOnEvent(tick=0, channel=1, data=[40, 127]),
   midi.NoteOnEvent(tick=60, channel=1, data=[40, 0]),
   midi.NoteOnEvent(tick=0, channel=1, data=[40, 127]),
   midi.NoteOnEvent(tick=60, channel=1, data=[40, 0]),
   midi.NoteOnEvent(tick=0, channel=1, data=[40, 127]),
   midi.NoteOnEvent(tick=60, channel=1, data=[40, 0]),
   midi.NoteOnEvent(tick=0, channel=1, data=[40, 127]),
   midi.NoteOnEvent(tick=60, channel=1, data=[40, 0]),
   midi.NoteOnEvent(tick=0, channel=1, data=[40, 127]),
   midi.NoteOnEvent(tick=60, channel=1, data=[40, 0]),
   midi.NoteOnEvent(tick=0, channel=1, data=[40, 127]),
   midi.NoteOnEvent(tick=60, channel=1, data=[40, 0]),
   midi.NoteOnEvent(tick=0, channel=1, data=[40, 127]),
   midi.NoteOnEvent(tick=60, channel=1, data=[40, 0]),
   midi.NoteOnEvent(tick=0, channel=1, data=[55, 127]),
   midi.NoteOnEvent(tick=0, channel=1, data=[48, 127]),
   midi.NoteOnEvent(tick=60, channel=1, data=[55, 0]),
   midi.NoteOnEvent(tick=0, channel=1, data=[48, 0]),
   midi.NoteOnEvent(tick=0, channel=1, data=[40, 127]),
   midi.NoteOnEvent(tick=60, channel=1, data=[40, 0]),
   midi.NoteOnEvent(tick=0, channel=1, data=[56, 127]),
   midi.NoteOnEvent(tick=0, channel=1, data=[49, 127]),
   midi.NoteOnEvent(tick=60, channel=1, data=[56, 0]),
   midi.NoteOnEvent(tick=0, channel=1, data=[49, 0]),
   midi.NoteOnEvent(tick=0, channel=1, data=[40, 127]),
   midi.NoteOnEvent(tick=60, channel=1, data=[40, 0]),
   midi.NoteOnEvent(tick=0, channel=1, data=[57, 127]),
   midi.NoteOnEvent(tick=0, channel=1, data=[50, 127]),
   midi.NoteOnEvent(tick=60, channel=1, data=[57, 0]),
   midi.NoteOnEvent(tick=0, channel=1, data=[50, 0]),
   midi.NoteOnEvent(tick=0, channel=1, data=[40, 127]),
   midi.NoteOnEvent(tick=60, channel=1, data=[40, 0]),
   midi.NoteOnEvent(tick=0, channel=1, data=[40, 127]),
   midi.NoteOnEvent(tick=60, channel=1, data=[40, 0]),
   midi.NoteOnEvent(tick=0, channel=1, data=[40, 127]),
   midi.NoteOnEvent(tick=60, channel=1, data=[40, 0]),
   midi.NoteOnEvent(tick=0, channel=1, data=[40, 127]),
   midi.NoteOnEvent(tick=60, channel=1, data=[40, 0]),
   midi.NoteOnEvent(tick=0, channel=1, data=[40, 127]),
   midi.NoteOnEvent(tick=60, channel=1, data=[40, 0]),
   midi.NoteOnEvent(tick=0, channel=1, data=[40, 127]),
   midi.NoteOnEvent(tick=60, channel=1, data=[40, 0]),
   midi.NoteOnEvent(tick=0, channel=1, data=[40, 127]),
   midi.NoteOnEvent(tick=60, channel=1, data=[40, 0]),
   midi.NoteOnEvent(tick=0, channel=1, data=[40, 127]),
   midi.NoteOnEvent(tick=60, channel=1, data=[40, 0]),
   midi.NoteOnEvent(tick=0, channel=1, data=[40, 127]),
   midi.NoteOnEvent(tick=60, channel=1, data=[40, 0]),
   midi.NoteOnEvent(tick=0, channel=1, data=[40, 127]),
   midi.NoteOnEvent(tick=60, channel=1, data=[40, 0]),
   midi.NoteOnEvent(tick=0, channel=1, data=[40, 127]),
   midi.NoteOnEvent(tick=60, channel=1, data=[40, 0]),
   midi.NoteOnEvent(tick=0, channel=1, data=[55, 127]),
   midi.NoteOnEvent(tick=0, channel=1, data=[48, 127]),
   midi.NoteOnEvent(tick=60, channel=1, data=[55, 0]),
   midi.NoteOnEvent(tick=0, channel=1, data=[48, 0]),
   midi.NoteOnEvent(tick=0, channel=1, data=[40, 127]),
   midi.NoteOnEvent(tick=60, channel=1, data=[40, 0]),
   midi.NoteOnEvent(tick=0, channel=1, data=[56, 127]),
   midi.NoteOnEvent(tick=0, channel=1, data=[49, 127]),
   midi.NoteOnEvent(tick=60, channel=1, data=[56, 0]),
   midi.NoteOnEvent(tick=0, channel=1, data=[49, 0]),
   midi.NoteOnEvent(tick=0, channel=1, data=[40, 127]),
   midi.NoteOnEvent(tick=60, channel=1, data=[40, 0]),
   midi.NoteOnEvent(tick=0, channel=1, data=[57, 127]),
   midi.NoteOnEvent(tick=0, channel=1, data=[50, 127]),
   midi.NoteOnEvent(tick=60, channel=1, data=[57, 0]),
   midi.NoteOnEvent(tick=0, channel=1, data=[50, 0]),
   midi.NoteOnEvent(tick=0, channel=1, data=[40, 127]),
   midi.NoteOnEvent(tick=60, channel=1, data=[40, 0]),
   midi.NoteOnEvent(tick=0, channel=1, data=[40, 127]),
   midi.NoteOnEvent(tick=60, channel=1, data=[40, 0]),
   midi.NoteOnEvent(tick=0, channel=1, data=[40, 127]),
   midi.NoteOnEvent(tick=60, channel=1, data=[40, 0]),
   midi.NoteOnEvent(tick=0, channel=1, data=[40, 127]),
   midi.NoteOnEvent(tick=60, channel=1, data=[40, 0]),
   midi.NoteOnEvent(tick=0, channel=1, data=[40, 127]),
   midi.NoteOnEvent(tick=60, channel=1, data=[40, 0]),
   midi.NoteOnEvent(tick=0, channel=1, data=[40, 127]),
   midi.NoteOnEvent(tick=60, channel=1, data=[40, 0]),
   midi.NoteOnEvent(tick=0, channel=1, data=[40, 127]),
   midi.NoteOnEvent(tick=60, channel=1, data=[40, 0]),
   midi.NoteOnEvent(tick=0, channel=1, data=[40, 127]),
   midi.NoteOnEvent(tick=60, channel=1, data=[40, 0]),
   midi.NoteOnEvent(tick=0, channel=1, data=[40, 127]),
   midi.NoteOnEvent(tick=60, channel=1, data=[40, 0]),
   midi.NoteOnEvent(tick=0, channel=1, data=[40, 127]),
   midi.NoteOnEvent(tick=60, channel=1, data=[40, 0]),
   midi.NoteOnEvent(tick=0, channel=1, data=[40, 127]),
   midi.NoteOnEvent(tick=60, channel=1, data=[40, 0]),
   midi.NoteOnEvent(tick=0, channel=1, data=[55, 127]),
   midi.NoteOnEvent(tick=0, channel=1, data=[48, 127]),
   midi.NoteOnEvent(tick=60, channel=1, data=[55, 0]),
   midi.NoteOnEvent(tick=0, channel=1, data=[48, 0]),
   midi.NoteOnEvent(tick=0, channel=1, data=[40, 127]),
   midi.NoteOnEvent(tick=60, channel=1, data=[40, 0]),
   midi.NoteOnEvent(tick=0, channel=1, data=[56, 127]),
   midi.NoteOnEvent(tick=0, channel=1, data=[49, 127]),
   midi.NoteOnEvent(tick=60, channel=1, data=[56, 0]),
   midi.NoteOnEvent(tick=0, channel=1, data=[49, 0]),
   midi.NoteOnEvent(tick=0, channel=1, data=[40, 127]),
   midi.NoteOnEvent(tick=60, channel=1, data=[40, 0]),
   midi.NoteOnEvent(tick=0, channel=1, data=[57, 127]),
   midi.NoteOnEvent(tick=0, channel=1, data=[50, 127]),
   midi.NoteOnEvent(tick=60, channel=1, data=[57, 0]),
   midi.NoteOnEvent(tick=0, channel=1, data=[50, 0]),
   midi.NoteOnEvent(tick=0, channel=1, data=[40, 127]),
   midi.NoteOnEvent(tick=60, channel=1, data=[40, 0]),
   midi.NoteOnEvent(tick=0, channel=1, data=[40, 127]),
   midi.NoteOnEvent(tick=60, channel=1, data=[40, 0]),
   midi.NoteOnEvent(tick=0, channel=1, data=[40, 127]),
   midi.NoteOnEvent(tick=60, channel=1, data=[40, 0]),
   midi.NoteOnEvent(tick=0, channel=1, data=[40, 127]),
   midi.NoteOnEvent(tick=60, channel=1, data=[40, 0]),
   midi.NoteOnEvent(tick=0, channel=1, data=[40, 127]),
   midi.NoteOnEvent(tick=60, channel=1, data=[40, 0]),
   midi.NoteOnEvent(tick=0, channel=1, data=[40, 127]),
   midi.NoteOnEvent(tick=60, channel=1, data=[40, 0]),
   midi.NoteOnEvent(tick=0, channel=1, data=[40, 127]),
   midi.NoteOnEvent(tick=60, channel=1, data=[40, 0]),
   midi.NoteOnEvent(tick=0, channel=1, data=[40, 127]),
   midi.NoteOnEvent(tick=60, channel=1, data=[40, 0]),
   midi.NoteOnEvent(tick=0, channel=1, data=[40, 127]),
   midi.NoteOnEvent(tick=60, channel=1, data=[40, 0]),
   midi.NoteOnEvent(tick=0, channel=1, data=[40, 127]),
   midi.NoteOnEvent(tick=60, channel=1, data=[40, 0]),
   midi.NoteOnEvent(tick=0, channel=1, data=[40, 127]),
   midi.NoteOnEvent(tick=60, channel=1, data=[40, 0]),
   midi.NoteOnEvent(tick=0, channel=1, data=[55, 127]),
   midi.NoteOnEvent(tick=0, channel=1, data=[48, 127]),
   midi.NoteOnEvent(tick=60, channel=1, data=[55, 0]),
   midi.NoteOnEvent(tick=0, channel=1, data=[48, 0]),
   midi.NoteOnEvent(tick=0, channel=1, data=[40, 127]),
   midi.NoteOnEvent(tick=60, channel=1, data=[40, 0]),
   midi.NoteOnEvent(tick=0, channel=1, data=[56, 127]),
   midi.NoteOnEvent(tick=0, channel=1, data=[49, 127]),
   midi.NoteOnEvent(tick=60, channel=1, data=[56, 0]),
   midi.NoteOnEvent(tick=0, channel=1, data=[49, 0]),
   midi.NoteOnEvent(tick=0, channel=1, data=[40, 127]),
   midi.NoteOnEvent(tick=60, channel=1, data=[40, 0]),
   midi.NoteOnEvent(tick=0, channel=1, data=[57, 127]),
   midi.NoteOnEvent(tick=0, channel=1, data=[50, 127]),
   midi.NoteOnEvent(tick=60, channel=1, data=[57, 0]),
   midi.NoteOnEvent(tick=0, channel=1, data=[50, 0]),
   midi.NoteOnEvent(tick=0, channel=1, data=[40, 127]),
   midi.NoteOnEvent(tick=60, channel=1, data=[40, 0]),
   midi.NoteOnEvent(tick=0, channel=1, data=[40, 127]),
   midi.NoteOnEvent(tick=60, channel=1, data=[40, 0]),
   midi.NoteOnEvent(tick=0, channel=1, data=[40, 127]),
   midi.NoteOnEvent(tick=60, channel=1, data=[40, 0]),
   midi.NoteOnEvent(tick=0, channel=1, data=[40, 127]),
   midi.NoteOnEvent(tick=60, channel=1, data=[40, 0]),
   midi.NoteOnEvent(tick=0, channel=1, data=[40, 127]),
   midi.NoteOnEvent(tick=60, channel=1, data=[40, 0]),
   midi.NoteOnEvent(tick=0, channel=1, data=[40, 127]),
   midi.NoteOnEvent(tick=60, channel=1, data=[40, 0]),
   midi.NoteOnEvent(tick=0, channel=1, data=[40, 127]),
   midi.NoteOnEvent(tick=60, channel=1, data=[40, 0]),
   midi.NoteOnEvent(tick=0, channel=1, data=[40, 127]),
   midi.NoteOnEvent(tick=60, channel=1, data=[40, 0]),
   midi.NoteOnEvent(tick=0, channel=1, data=[40, 127]),
   midi.NoteOnEvent(tick=60, channel=1, data=[40, 0]),
   midi.NoteOnEvent(tick=0, channel=1, data=[40, 127]),
   midi.NoteOnEvent(tick=60, channel=1, data=[40, 0]),
   midi.NoteOnEvent(tick=0, channel=1, data=[40, 127]),
   midi.NoteOnEvent(tick=60, channel=1, data=[40, 0]),
   midi.NoteOnEvent(tick=0, channel=1, data=[55, 127]),
   midi.NoteOnEvent(tick=0, channel=1, data=[48, 127]),
   midi.NoteOnEvent(tick=60, channel=1, data=[55, 0]),
   midi.NoteOnEvent(tick=0, channel=1, data=[48, 0]),
   midi.NoteOnEvent(tick=0, channel=1, data=[40, 127]),
   midi.NoteOnEvent(tick=60, channel=1, data=[40, 0]),
   midi.NoteOnEvent(tick=0, channel=1, data=[56, 127]),
   midi.NoteOnEvent(tick=0, channel=1, data=[49, 127]),
   midi.NoteOnEvent(tick=60, channel=1, data=[56, 0]),
   midi.NoteOnEvent(tick=0, channel=1, data=[49, 0]),
   midi.NoteOnEvent(tick=0, channel=1, data=[40, 127]),
   midi.NoteOnEvent(tick=60, channel=1, data=[40, 0]),
   midi.NoteOnEvent(tick=0, channel=1, data=[57, 127]),
   midi.NoteOnEvent(tick=0, channel=1, data=[50, 127]),
   midi.NoteOnEvent(tick=60, channel=1, data=[57, 0]),
   midi.NoteOnEvent(tick=0, channel=1, data=[50, 0]),
   midi.NoteOnEvent(tick=0, channel=1, data=[40, 127]),
   midi.NoteOnEvent(tick=60, channel=1, data=[40, 0]),
   midi.NoteOnEvent(tick=0, channel=1, data=[40, 127]),
   midi.NoteOnEvent(tick=60, channel=1, data=[40, 0]),
   midi.NoteOnEvent(tick=0, channel=1, data=[40, 127]),
   midi.NoteOnEvent(tick=60, channel=1, data=[40, 0]),
   midi.NoteOnEvent(tick=0, channel=1, data=[40, 127]),
   midi.NoteOnEvent(tick=60, channel=1, data=[40, 0]),
   midi.NoteOnEvent(tick=0, channel=1, data=[40, 127]),
   midi.NoteOnEvent(tick=60, channel=1, data=[40, 0]),
   midi.NoteOnEvent(tick=0, channel=1, data=[40, 127]),
   midi.NoteOnEvent(tick=60, channel=1, data=[40, 0]),
   midi.NoteOnEvent(tick=0, channel=1, data=[40, 127]),
   midi.NoteOnEvent(tick=60, channel=1, data=[40, 0]),
   midi.NoteOnEvent(tick=0, channel=1, data=[40, 127]),
   midi.NoteOnEvent(tick=60, channel=1, data=[40, 0]),
   midi.NoteOnEvent(tick=0, channel=1, data=[40, 127]),
   midi.NoteOnEvent(tick=60, channel=1, data=[40, 0]),
   midi.NoteOnEvent(tick=0, channel=1, data=[40, 127]),
   midi.NoteOnEvent(tick=60, channel=1, data=[40, 0]),
   midi.NoteOnEvent(tick=0, channel=1, data=[40, 127]),
   midi.NoteOnEvent(tick=60, channel=1, data=[40, 0]),
   midi.NoteOnEvent(tick=0, channel=1, data=[55, 127]),
   midi.NoteOnEvent(tick=0, channel=1, data=[48, 127]),
   midi.NoteOnEvent(tick=60, channel=1, data=[55, 0]),
   midi.NoteOnEvent(tick=0, channel=1, data=[48, 0]),
   midi.NoteOnEvent(tick=0, channel=1, data=[40, 127]),
   midi.NoteOnEvent(tick=60, channel=1, data=[40, 0]),
   midi.NoteOnEvent(tick=0, channel=1, data=[56, 127]),
   midi.NoteOnEvent(tick=0, channel=1, data=[49, 127]),
   midi.NoteOnEvent(tick=60, channel=1, data=[56, 0]),
   midi.NoteOnEvent(tick=0, channel=1, data=[49, 0]),
   midi.NoteOnEvent(tick=0, channel=1, data=[40, 127]),
   midi.NoteOnEvent(tick=60, channel=1, data=[40, 0]),
   midi.NoteOnEvent(tick=0, channel=1, data=[57, 127]),
   midi.NoteOnEvent(tick=0, channel=1, data=[50, 127]),
   midi.NoteOnEvent(tick=60, channel=1, data=[57, 0]),
   midi.NoteOnEvent(tick=0, channel=1, data=[50, 0]),
   midi.NoteOnEvent(tick=0, channel=1, data=[40, 127]),
   midi.NoteOnEvent(tick=60, channel=1, data=[40, 0]),
   midi.NoteOnEvent(tick=0, channel=1, data=[40, 127]),
   midi.NoteOnEvent(tick=60, channel=1, data=[40, 0]),
   midi.NoteOnEvent(tick=0, channel=1, data=[40, 127]),
   midi.NoteOnEvent(tick=60, channel=1, data=[40, 0]),
   midi.NoteOnEvent(tick=0, channel=1, data=[40, 127]),
   midi.NoteOnEvent(tick=60, channel=1, data=[40, 0]),
   midi.NoteOnEvent(tick=0, channel=1, data=[40, 127]),
   midi.NoteOnEvent(tick=60, channel=1, data=[40, 0]),
   midi.NoteOnEvent(tick=0, channel=1, data=[40, 127]),
   midi.NoteOnEvent(tick=60, channel=1, data=[40, 0]),
   midi.NoteOnEvent(tick=0, channel=1, data=[40, 127]),
   midi.NoteOnEvent(tick=60, channel=1, data=[40, 0]),
   midi.NoteOnEvent(tick=0, channel=1, data=[40, 127]),
   midi.NoteOnEvent(tick=60, channel=1, data=[40, 0]),
   midi.NoteOnEvent(tick=0, channel=1, data=[40, 127]),
   midi.NoteOnEvent(tick=60, channel=1, data=[40, 0]),
   midi.NoteOnEvent(tick=0, channel=1, data=[40, 127]),
   midi.NoteOnEvent(tick=60, channel=1, data=[40, 0]),
   midi.NoteOnEvent(tick=0, channel=1, data=[40, 127]),
   midi.NoteOnEvent(tick=60, channel=1, data=[40, 0]),
   midi.NoteOnEvent(tick=0, channel=1, data=[55, 127]),
   midi.NoteOnEvent(tick=0, channel=1, data=[48, 127]),
   midi.NoteOnEvent(tick=60, channel=1, data=[55, 0]),
   midi.NoteOnEvent(tick=0, channel=1, data=[48, 0]),
   midi.NoteOnEvent(tick=0, channel=1, data=[40, 127]),
   midi.NoteOnEvent(tick=60, channel=1, data=[40, 0]),
   midi.NoteOnEvent(tick=0, channel=1, data=[56, 127]),
   midi.NoteOnEvent(tick=0, channel=1, data=[49, 127]),
   midi.NoteOnEvent(tick=60, channel=1, data=[56, 0]),
   midi.NoteOnEvent(tick=0, channel=1, data=[49, 0]),
   midi.NoteOnEvent(tick=0, channel=1, data=[40, 127]),
   midi.NoteOnEvent(tick=60, channel=1, data=[40, 0]),
   midi.NoteOnEvent(tick=0, channel=1, data=[57, 127]),
   midi.NoteOnEvent(tick=0, channel=1, data=[50, 127]),
   midi.NoteOnEvent(tick=60, channel=1, data=[57, 0]),
   midi.NoteOnEvent(tick=0, channel=1, data=[50, 0]),
   midi.NoteOnEvent(tick=0, channel=1, data=[52, 127]),
   midi.NoteOnEvent(tick=40, channel=1, data=[52, 0]),
   midi.NoteOnEvent(tick=0, channel=1, data=[50, 127]),
   midi.NoteOnEvent(tick=40, channel=1, data=[50, 0]),
   midi.NoteOnEvent(tick=0, channel=1, data=[47, 127]),
   midi.NoteOnEvent(tick=40, channel=1, data=[47, 0]),
   midi.NoteOnEvent(tick=0, channel=1, data=[50, 127]),
   midi.NoteOnEvent(tick=40, channel=1, data=[50, 0]),
   midi.NoteOnEvent(tick=0, channel=1, data=[47, 127]),
   midi.NoteOnEvent(tick=40, channel=1, data=[47, 0]),
   midi.NoteOnEvent(tick=0, channel=1, data=[46, 127]),
   midi.NoteOnEvent(tick=40, channel=1, data=[46, 0]),
   midi.NoteOnEvent(tick=0, channel=1, data=[45, 127]),
   midi.NoteOnEvent(tick=40, channel=1, data=[45, 0]),
   midi.NoteOnEvent(tick=0, channel=1, data=[43, 127]),
   midi.NoteOnEvent(tick=40, channel=1, data=[43, 0]),
   midi.NoteOnEvent(tick=0, channel=1, data=[45, 127]),
   midi.NoteOnEvent(tick=40, channel=1, data=[45, 0]),
   midi.NoteOnEvent(tick=0, channel=1, data=[40, 127]),
   midi.NoteOnEvent(tick=40, channel=1, data=[40, 0]),
   midi.NoteOnEvent(tick=0, channel=1, data=[43, 127]),
   midi.NoteOnEvent(tick=40, channel=1, data=[43, 0]),
   midi.NoteOnEvent(tick=0, channel=1, data=[45, 127]),
   midi.NoteOnEvent(tick=40, channel=1, data=[45, 0]),
   midi.NoteOnEvent(tick=0, channel=1, data=[52, 127]),
   midi.NoteOnEvent(tick=40, channel=1, data=[52, 0]),
   midi.NoteOnEvent(tick=0, channel=1, data=[50, 127]),
   midi.NoteOnEvent(tick=40, channel=1, data=[50, 0]),
   midi.NoteOnEvent(tick=0, channel=1, data=[47, 127]),
   midi.NoteOnEvent(tick=40, channel=1, data=[47, 0]),
   midi.NoteOnEvent(tick=0, channel=1, data=[50, 127]),
   midi.NoteOnEvent(tick=40, channel=1, data=[50, 0]),
   midi.NoteOnEvent(tick=0, channel=1, data=[47, 127]),
   midi.NoteOnEvent(tick=40, channel=1, data=[47, 0]),
   midi.NoteOnEvent(tick=0, channel=1, data=[46, 127]),
   midi.NoteOnEvent(tick=40, channel=1, data=[46, 0]),
   midi.NoteOnEvent(tick=0, channel=1, data=[45, 127]),
   midi.NoteOnEvent(tick=40, channel=1, data=[45, 0]),
   midi.NoteOnEvent(tick=0, channel=1, data=[43, 127]),
   midi.NoteOnEvent(tick=40, channel=1, data=[43, 0]),
   midi.NoteOnEvent(tick=0, channel=1, data=[45, 127]),
   midi.NoteOnEvent(tick=40, channel=1, data=[45, 0]),
   midi.NoteOnEvent(tick=0, channel=1, data=[40, 127]),
   midi.NoteOnEvent(tick=40, channel=1, data=[40, 0]),
   midi.NoteOnEvent(tick=0, channel=1, data=[43, 127]),
   midi.NoteOnEvent(tick=40, channel=1, data=[43, 0]),
   midi.NoteOnEvent(tick=0, channel=1, data=[45, 127]),
   midi.NoteOnEvent(tick=40, channel=1, data=[45, 0]),
   midi.NoteOnEvent(tick=0, channel=1, data=[52, 127]),
   midi.NoteOnEvent(tick=60, channel=1, data=[52, 0]),
   midi.NoteOnEvent(tick=0, channel=1, data=[52, 127]),
   midi.NoteOnEvent(tick=60, channel=1, data=[52, 0]),
   midi.NoteOnEvent(tick=0, channel=1, data=[59, 127]),
   midi.NoteOnEvent(tick=30, channel=1, data=[59, 0]),
   midi.NoteOnEvent(tick=0, channel=1, data=[52, 127]),
   midi.NoteOnEvent(tick=30, channel=1, data=[52, 0]),
   midi.NoteOnEvent(tick=0, channel=1, data=[47, 127]),
   midi.NoteOnEvent(tick=60, channel=1, data=[47, 0]),
   midi.NoteOnEvent(tick=0, channel=1, data=[50, 127]),
   midi.NoteOnEvent(tick=60, channel=1, data=[50, 0]),
   midi.NoteOnEvent(tick=0, channel=1, data=[50, 127]),
   midi.NoteOnEvent(tick=60, channel=1, data=[50, 0]),
   midi.NoteOnEvent(tick=0, channel=1, data=[57, 127]),
   midi.NoteOnEvent(tick=30, channel=1, data=[57, 0]),
   midi.NoteOnEvent(tick=0, channel=1, data=[52, 127]),
   midi.NoteOnEvent(tick=30, channel=1, data=[52, 0]),
   midi.NoteOnEvent(tick=0, channel=1, data=[50, 127]),
   midi.NoteOnEvent(tick=60, channel=1, data=[50, 0]),
   midi.NoteOnEvent(tick=0, channel=1, data=[48, 127]),
   midi.NoteOnEvent(tick=60, channel=1, data=[48, 0]),
   midi.NoteOnEvent(tick=0, channel=1, data=[48, 127]),
   midi.NoteOnEvent(tick=60, channel=1, data=[48, 0]),
   midi.NoteOnEvent(tick=0, channel=1, data=[59, 127]),
   midi.NoteOnEvent(tick=30, channel=1, data=[59, 0]),
   midi.NoteOnEvent(tick=0, channel=1, data=[52, 127]),
   midi.NoteOnEvent(tick=30, channel=1, data=[52, 0]),
   midi.NoteOnEvent(tick=0, channel=1, data=[48, 127]),
   midi.NoteOnEvent(tick=60, channel=1, data=[48, 0]),
   midi.NoteOnEvent(tick=0, channel=1, data=[47, 127]),
   midi.NoteOnEvent(tick=60, channel=1, data=[47, 0]),
   midi.NoteOnEvent(tick=0, channel=1, data=[47, 127]),
   midi.NoteOnEvent(tick=60, channel=1, data=[47, 0]),
   midi.NoteOnEvent(tick=0, channel=1, data=[57, 127]),
   midi.NoteOnEvent(tick=30, channel=1, data=[57, 0]),
   midi.NoteOnEvent(tick=0, channel=1, data=[52, 127]),
   midi.NoteOnEvent(tick=30, channel=1, data=[52, 0]),
   midi.NoteOnEvent(tick=0, channel=1, data=[47, 127]),
   midi.NoteOnEvent(tick=60, channel=1, data=[47, 0]),
   midi.NoteOnEvent(tick=0, channel=1, data=[52, 127]),
   midi.NoteOnEvent(tick=60, channel=1, data=[52, 0]),
   midi.NoteOnEvent(tick=0, channel=1, data=[52, 127]),
   midi.NoteOnEvent(tick=60, channel=1, data=[52, 0]),
   midi.NoteOnEvent(tick=0, channel=1, data=[59, 127]),
   midi.NoteOnEvent(tick=30, channel=1, data=[59, 0]),
   midi.NoteOnEvent(tick=0, channel=1, data=[52, 127]),
   midi.NoteOnEvent(tick=30, channel=1, data=[52, 0]),
   midi.NoteOnEvent(tick=0, channel=1, data=[47, 127]),
   midi.NoteOnEvent(tick=60, channel=1, data=[47, 0]),
   midi.NoteOnEvent(tick=0, channel=1, data=[50, 127]),
   midi.NoteOnEvent(tick=60, channel=1, data=[50, 0]),
   midi.NoteOnEvent(tick=0, channel=1, data=[50, 127]),
   midi.NoteOnEvent(tick=60, channel=1, data=[50, 0]),
   midi.NoteOnEvent(tick=0, channel=1, data=[57, 127]),
   midi.NoteOnEvent(tick=30, channel=1, data=[57, 0]),
   midi.NoteOnEvent(tick=0, channel=1, data=[52, 127]),
   midi.NoteOnEvent(tick=30, channel=1, data=[52, 0]),
   midi.NoteOnEvent(tick=0, channel=1, data=[50, 127]),
   midi.NoteOnEvent(tick=60, channel=1, data=[50, 0]),
   midi.NoteOnEvent(tick=0, channel=1, data=[48, 127]),
   midi.NoteOnEvent(tick=60, channel=1, data=[48, 0]),
   midi.NoteOnEvent(tick=0, channel=1, data=[48, 127]),
   midi.NoteOnEvent(tick=60, channel=1, data=[48, 0]),
   midi.NoteOnEvent(tick=0, channel=1, data=[59, 127]),
   midi.NoteOnEvent(tick=30, channel=1, data=[59, 0]),
   midi.NoteOnEvent(tick=0, channel=1, data=[52, 127]),
   midi.NoteOnEvent(tick=30, channel=1, data=[52, 0]),
   midi.NoteOnEvent(tick=0, channel=1, data=[48, 127]),
   midi.NoteOnEvent(tick=60, channel=1, data=[48, 0]),
   midi.NoteOnEvent(tick=0, channel=1, data=[47, 127]),
   midi.NoteOnEvent(tick=60, channel=1, data=[47, 0]),
   midi.NoteOnEvent(tick=0, channel=1, data=[47, 127]),
   midi.NoteOnEvent(tick=60, channel=1, data=[47, 0]),
   midi.NoteOnEvent(tick=0, channel=1, data=[57, 127]),
   midi.NoteOnEvent(tick=30, channel=1, data=[57, 0]),
   midi.NoteOnEvent(tick=0, channel=1, data=[52, 127]),
   midi.NoteOnEvent(tick=30, channel=1, data=[52, 0]),
   midi.NoteOnEvent(tick=0, channel=1, data=[47, 127]),
   midi.NoteOnEvent(tick=60, channel=1, data=[47, 0]),
   midi.NoteOnEvent(tick=0, channel=1, data=[52, 127]),
   midi.NoteOnEvent(tick=60, channel=1, data=[52, 0]),
   midi.NoteOnEvent(tick=0, channel=1, data=[52, 127]),
   midi.NoteOnEvent(tick=60, channel=1, data=[52, 0]),
   midi.NoteOnEvent(tick=0, channel=1, data=[59, 127]),
   midi.NoteOnEvent(tick=30, channel=1, data=[59, 0]),
   midi.NoteOnEvent(tick=0, channel=1, data=[52, 127]),
   midi.NoteOnEvent(tick=30, channel=1, data=[52, 0]),
   midi.NoteOnEvent(tick=0, channel=1, data=[47, 127]),
   midi.NoteOnEvent(tick=60, channel=1, data=[47, 0]),
   midi.NoteOnEvent(tick=0, channel=1, data=[50, 127]),
   midi.NoteOnEvent(tick=60, channel=1, data=[50, 0]),
   midi.NoteOnEvent(tick=0, channel=1, data=[50, 127]),
   midi.NoteOnEvent(tick=60, channel=1, data=[50, 0]),
   midi.NoteOnEvent(tick=0, channel=1, data=[57, 127]),
   midi.NoteOnEvent(tick=30, channel=1, data=[57, 0]),
   midi.NoteOnEvent(tick=0, channel=1, data=[52, 127]),
   midi.NoteOnEvent(tick=30, channel=1, data=[52, 0]),
   midi.NoteOnEvent(tick=0, channel=1, data=[50, 127]),
   midi.NoteOnEvent(tick=60, channel=1, data=[50, 0]),
   midi.NoteOnEvent(tick=0, channel=1, data=[48, 127]),
   midi.NoteOnEvent(tick=60, channel=1, data=[48, 0]),
   midi.NoteOnEvent(tick=0, channel=1, data=[48, 127]),
   midi.NoteOnEvent(tick=60, channel=1, data=[48, 0]),
   midi.NoteOnEvent(tick=0, channel=1, data=[59, 127]),
   midi.NoteOnEvent(tick=30, channel=1, data=[59, 0]),
   midi.NoteOnEvent(tick=0, channel=1, data=[52, 127]),
   midi.NoteOnEvent(tick=30, channel=1, data=[52, 0]),
   midi.NoteOnEvent(tick=0, channel=1, data=[48, 127]),
   midi.NoteOnEvent(tick=60, channel=1, data=[48, 0]),
   midi.NoteOnEvent(tick=0, channel=1, data=[47, 127]),
   midi.NoteOnEvent(tick=60, channel=1, data=[47, 0]),
   midi.NoteOnEvent(tick=0, channel=1, data=[47, 127]),
   midi.NoteOnEvent(tick=60, channel=1, data=[47, 0]),
   midi.NoteOnEvent(tick=0, channel=1, data=[57, 127]),
   midi.NoteOnEvent(tick=30, channel=1, data=[57, 0]),
   midi.NoteOnEvent(tick=0, channel=1, data=[52, 127]),
   midi.NoteOnEvent(tick=30, channel=1, data=[52, 0]),
   midi.NoteOnEvent(tick=0, channel=1, data=[47, 127]),
   midi.NoteOnEvent(tick=60, channel=1, data=[47, 0]),
   midi.NoteOnEvent(tick=0, channel=1, data=[52, 127]),
   midi.NoteOnEvent(tick=60, channel=1, data=[52, 0]),
   midi.NoteOnEvent(tick=0, channel=1, data=[52, 127]),
   midi.NoteOnEvent(tick=60, channel=1, data=[52, 0]),
   midi.NoteOnEvent(tick=0, channel=1, data=[59, 127]),
   midi.NoteOnEvent(tick=30, channel=1, data=[59, 0]),
   midi.NoteOnEvent(tick=0, channel=1, data=[52, 127]),
   midi.NoteOnEvent(tick=30, channel=1, data=[52, 0]),
   midi.NoteOnEvent(tick=0, channel=1, data=[47, 127]),
   midi.NoteOnEvent(tick=60, channel=1, data=[47, 0]),
   midi.NoteOnEvent(tick=0, channel=1, data=[50, 127]),
   midi.NoteOnEvent(tick=60, channel=1, data=[50, 0]),
   midi.NoteOnEvent(tick=0, channel=1, data=[50, 127]),
   midi.NoteOnEvent(tick=60, channel=1, data=[50, 0]),
   midi.NoteOnEvent(tick=0, channel=1, data=[57, 127]),
   midi.NoteOnEvent(tick=30, channel=1, data=[57, 0]),
   midi.NoteOnEvent(tick=0, channel=1, data=[52, 127]),
   midi.NoteOnEvent(tick=30, channel=1, data=[52, 0]),
   midi.NoteOnEvent(tick=0, channel=1, data=[50, 127]),
   midi.NoteOnEvent(tick=60, channel=1, data=[50, 0]),
   midi.NoteOnEvent(tick=0, channel=1, data=[48, 127]),
   midi.NoteOnEvent(tick=60, channel=1, data=[48, 0]),
   midi.NoteOnEvent(tick=0, channel=1, data=[48, 127]),
   midi.NoteOnEvent(tick=60, channel=1, data=[48, 0]),
   midi.NoteOnEvent(tick=0, channel=1, data=[59, 127]),
   midi.NoteOnEvent(tick=30, channel=1, data=[59, 0]),
   midi.NoteOnEvent(tick=0, channel=1, data=[52, 127]),
   midi.NoteOnEvent(tick=30, channel=1, data=[52, 0]),
   midi.NoteOnEvent(tick=0, channel=1, data=[48, 127]),
   midi.NoteOnEvent(tick=60, channel=1, data=[48, 0]),
   midi.NoteOnEvent(tick=0, channel=1, data=[47, 127]),
   midi.NoteOnEvent(tick=60, channel=1, data=[47, 0]),
   midi.NoteOnEvent(tick=0, channel=1, data=[47, 127]),
   midi.NoteOnEvent(tick=60, channel=1, data=[47, 0]),
   midi.NoteOnEvent(tick=0, channel=1, data=[57, 127]),
   midi.NoteOnEvent(tick=30, channel=1, data=[57, 0]),
   midi.NoteOnEvent(tick=0, channel=1, data=[52, 127]),
   midi.NoteOnEvent(tick=30, channel=1, data=[52, 0]),
   midi.NoteOnEvent(tick=0, channel=1, data=[47, 127]),
   midi.NoteOnEvent(tick=60, channel=1, data=[47, 0]),
   midi.NoteOnEvent(tick=0, channel=1, data=[52, 127]),
   midi.NoteOnEvent(tick=60, channel=1, data=[52, 0]),
   midi.NoteOnEvent(tick=0, channel=1, data=[52, 127]),
   midi.NoteOnEvent(tick=60, channel=1, data=[52, 0]),
   midi.NoteOnEvent(tick=0, channel=1, data=[59, 127]),
   midi.NoteOnEvent(tick=30, channel=1, data=[59, 0]),
   midi.NoteOnEvent(tick=0, channel=1, data=[52, 127]),
   midi.NoteOnEvent(tick=30, channel=1, data=[52, 0]),
   midi.NoteOnEvent(tick=0, channel=1, data=[47, 127]),
   midi.NoteOnEvent(tick=60, channel=1, data=[47, 0]),
   midi.NoteOnEvent(tick=0, channel=1, data=[50, 127]),
   midi.NoteOnEvent(tick=60, channel=1, data=[50, 0]),
   midi.NoteOnEvent(tick=0, channel=1, data=[50, 127]),
   midi.NoteOnEvent(tick=60, channel=1, data=[50, 0]),
   midi.NoteOnEvent(tick=0, channel=1, data=[57, 127]),
   midi.NoteOnEvent(tick=30, channel=1, data=[57, 0]),
   midi.NoteOnEvent(tick=0, channel=1, data=[52, 127]),
   midi.NoteOnEvent(tick=30, channel=1, data=[52, 0]),
   midi.NoteOnEvent(tick=0, channel=1, data=[50, 127]),
   midi.NoteOnEvent(tick=60, channel=1, data=[50, 0]),
   midi.NoteOnEvent(tick=0, channel=1, data=[48, 127]),
   midi.NoteOnEvent(tick=60, channel=1, data=[48, 0]),
   midi.NoteOnEvent(tick=0, channel=1, data=[48, 127]),
   midi.NoteOnEvent(tick=60, channel=1, data=[48, 0]),
   midi.NoteOnEvent(tick=0, channel=1, data=[59, 127]),
   midi.NoteOnEvent(tick=30, channel=1, data=[59, 0]),
   midi.NoteOnEvent(tick=0, channel=1, data=[52, 127]),
   midi.NoteOnEvent(tick=30, channel=1, data=[52, 0]),
   midi.NoteOnEvent(tick=0, channel=1, data=[48, 127]),
   midi.NoteOnEvent(tick=60, channel=1, data=[48, 0]),
   midi.NoteOnEvent(tick=0, channel=1, data=[47, 127]),
   midi.NoteOnEvent(tick=60, channel=1, data=[47, 0]),
   midi.NoteOnEvent(tick=0, channel=1, data=[47, 127]),
   midi.NoteOnEvent(tick=60, channel=1, data=[47, 0]),
   midi.NoteOnEvent(tick=0, channel=1, data=[57, 127]),
   midi.NoteOnEvent(tick=30, channel=1, data=[57, 0]),
   midi.NoteOnEvent(tick=0, channel=1, data=[52, 127]),
   midi.NoteOnEvent(tick=30, channel=1, data=[52, 0]),
   midi.NoteOnEvent(tick=0, channel=1, data=[47, 127]),
   midi.NoteOnEvent(tick=60, channel=1, data=[47, 0]),
   midi.NoteOnEvent(tick=0, channel=1, data=[52, 127]),
   midi.NoteOnEvent(tick=60, channel=1, data=[52, 0]),
   midi.NoteOnEvent(tick=0, channel=1, data=[52, 127]),
   midi.NoteOnEvent(tick=60, channel=1, data=[52, 0]),
   midi.NoteOnEvent(tick=0, channel=1, data=[59, 127]),
   midi.NoteOnEvent(tick=30, channel=1, data=[59, 0]),
   midi.NoteOnEvent(tick=0, channel=1, data=[52, 127]),
   midi.NoteOnEvent(tick=30, channel=1, data=[52, 0]),
   midi.NoteOnEvent(tick=0, channel=1, data=[47, 127]),
   midi.NoteOnEvent(tick=60, channel=1, data=[47, 0]),
   midi.NoteOnEvent(tick=0, channel=1, data=[50, 127]),
   midi.NoteOnEvent(tick=60, channel=1, data=[50, 0]),
   midi.NoteOnEvent(tick=0, channel=1, data=[50, 127]),
   midi.NoteOnEvent(tick=60, channel=1, data=[50, 0]),
   midi.NoteOnEvent(tick=0, channel=1, data=[57, 127]),
   midi.NoteOnEvent(tick=30, channel=1, data=[57, 0]),
   midi.NoteOnEvent(tick=0, channel=1, data=[52, 127]),
   midi.NoteOnEvent(tick=30, channel=1, data=[52, 0]),
   midi.NoteOnEvent(tick=0, channel=1, data=[50, 127]),
   midi.NoteOnEvent(tick=60, channel=1, data=[50, 0]),
   midi.NoteOnEvent(tick=0, channel=1, data=[48, 127]),
   midi.NoteOnEvent(tick=60, channel=1, data=[48, 0]),
   midi.NoteOnEvent(tick=0, channel=1, data=[48, 127]),
   midi.NoteOnEvent(tick=60, channel=1, data=[48, 0]),
   midi.NoteOnEvent(tick=0, channel=1, data=[59, 127]),
   midi.NoteOnEvent(tick=30, channel=1, data=[59, 0]),
   midi.NoteOnEvent(tick=0, channel=1, data=[52, 127]),
   midi.NoteOnEvent(tick=30, channel=1, data=[52, 0]),
   midi.NoteOnEvent(tick=0, channel=1, data=[48, 127]),
   midi.NoteOnEvent(tick=60, channel=1, data=[48, 0]),
   midi.NoteOnEvent(tick=0, channel=1, data=[47, 127]),
   midi.NoteOnEvent(tick=60, channel=1, data=[47, 0]),
   midi.NoteOnEvent(tick=0, channel=1, data=[47, 127]),
   midi.NoteOnEvent(tick=60, channel=1, data=[47, 0]),
   midi.NoteOnEvent(tick=0, channel=1, data=[57, 127]),
   midi.NoteOnEvent(tick=30, channel=1, data=[57, 0]),
   midi.NoteOnEvent(tick=0, channel=1, data=[52, 127]),
   midi.NoteOnEvent(tick=30, channel=1, data=[52, 0]),
   midi.NoteOnEvent(tick=0, channel=1, data=[47, 127]),
   midi.NoteOnEvent(tick=60, channel=1, data=[47, 0]),
   midi.NoteOnEvent(tick=0, channel=1, data=[52, 127]),
   midi.NoteOnEvent(tick=60, channel=1, data=[52, 0]),
   midi.NoteOnEvent(tick=0, channel=1, data=[52, 127]),
   midi.NoteOnEvent(tick=60, channel=1, data=[52, 0]),
   midi.NoteOnEvent(tick=0, channel=1, data=[59, 127]),
   midi.NoteOnEvent(tick=30, channel=1, data=[59, 0]),
   midi.NoteOnEvent(tick=0, channel=1, data=[52, 127]),
   midi.NoteOnEvent(tick=30, channel=1, data=[52, 0]),
   midi.NoteOnEvent(tick=0, channel=1, data=[47, 127]),
   midi.NoteOnEvent(tick=60, channel=1, data=[47, 0]),
   midi.NoteOnEvent(tick=0, channel=1, data=[50, 127]),
   midi.NoteOnEvent(tick=60, channel=1, data=[50, 0]),
   midi.NoteOnEvent(tick=0, channel=1, data=[50, 127]),
   midi.NoteOnEvent(tick=60, channel=1, data=[50, 0]),
   midi.NoteOnEvent(tick=0, channel=1, data=[57, 127]),
   midi.NoteOnEvent(tick=30, channel=1, data=[57, 0]),
   midi.NoteOnEvent(tick=0, channel=1, data=[52, 127]),
   midi.NoteOnEvent(tick=30, channel=1, data=[52, 0]),
   midi.NoteOnEvent(tick=0, channel=1, data=[50, 127]),
   midi.NoteOnEvent(tick=60, channel=1, data=[50, 0]),
   midi.NoteOnEvent(tick=0, channel=1, data=[48, 127]),
   midi.NoteOnEvent(tick=60, channel=1, data=[48, 0]),
   midi.NoteOnEvent(tick=0, channel=1, data=[48, 127]),
   midi.NoteOnEvent(tick=60, channel=1, data=[48, 0]),
   midi.NoteOnEvent(tick=0, channel=1, data=[59, 127]),
   midi.NoteOnEvent(tick=30, channel=1, data=[59, 0]),
   midi.NoteOnEvent(tick=0, channel=1, data=[52, 127]),
   midi.NoteOnEvent(tick=30, channel=1, data=[52, 0]),
   midi.NoteOnEvent(tick=0, channel=1, data=[48, 127]),
   midi.NoteOnEvent(tick=60, channel=1, data=[48, 0]),
   midi.NoteOnEvent(tick=0, channel=1, data=[47, 127]),
   midi.NoteOnEvent(tick=60, channel=1, data=[47, 0]),
   midi.NoteOnEvent(tick=0, channel=1, data=[47, 127]),
   midi.NoteOnEvent(tick=60, channel=1, data=[47, 0]),
   midi.NoteOnEvent(tick=0, channel=1, data=[57, 127]),
   midi.NoteOnEvent(tick=30, channel=1, data=[57, 0]),
   midi.NoteOnEvent(tick=0, channel=1, data=[52, 127]),
   midi.NoteOnEvent(tick=30, channel=1, data=[52, 0]),
   midi.NoteOnEvent(tick=0, channel=1, data=[47, 127]),
   midi.NoteOnEvent(tick=60, channel=1, data=[47, 0]),
   midi.NoteOnEvent(tick=0, channel=1, data=[52, 127]),
   midi.NoteOnEvent(tick=60, channel=1, data=[52, 0]),
   midi.NoteOnEvent(tick=0, channel=1, data=[52, 127]),
   midi.NoteOnEvent(tick=60, channel=1, data=[52, 0]),
   midi.NoteOnEvent(tick=0, channel=1, data=[59, 127]),
   midi.NoteOnEvent(tick=30, channel=1, data=[59, 0]),
   midi.NoteOnEvent(tick=0, channel=1, data=[52, 127]),
   midi.NoteOnEvent(tick=30, channel=1, data=[52, 0]),
   midi.NoteOnEvent(tick=0, channel=1, data=[47, 127]),
   midi.NoteOnEvent(tick=60, channel=1, data=[47, 0]),
   midi.NoteOnEvent(tick=0, channel=1, data=[50, 127]),
   midi.NoteOnEvent(tick=60, channel=1, data=[50, 0]),
   midi.NoteOnEvent(tick=0, channel=1, data=[50, 127]),
   midi.NoteOnEvent(tick=60, channel=1, data=[50, 0]),
   midi.NoteOnEvent(tick=0, channel=1, data=[57, 127]),
   midi.NoteOnEvent(tick=30, channel=1, data=[57, 0]),
   midi.NoteOnEvent(tick=0, channel=1, data=[52, 127]),
   midi.NoteOnEvent(tick=30, channel=1, data=[52, 0]),
   midi.NoteOnEvent(tick=0, channel=1, data=[50, 127]),
   midi.NoteOnEvent(tick=60, channel=1, data=[50, 0]),
   midi.NoteOnEvent(tick=0, channel=1, data=[48, 127]),
   midi.NoteOnEvent(tick=60, channel=1, data=[48, 0]),
   midi.NoteOnEvent(tick=0, channel=1, data=[48, 127]),
   midi.NoteOnEvent(tick=60, channel=1, data=[48, 0]),
   midi.NoteOnEvent(tick=0, channel=1, data=[59, 127]),
   midi.NoteOnEvent(tick=30, channel=1, data=[59, 0]),
   midi.NoteOnEvent(tick=0, channel=1, data=[52, 127]),
   midi.NoteOnEvent(tick=30, channel=1, data=[52, 0]),
   midi.NoteOnEvent(tick=0, channel=1, data=[48, 127]),
   midi.NoteOnEvent(tick=60, channel=1, data=[48, 0]),
   midi.NoteOnEvent(tick=0, channel=1, data=[47, 127]),
   midi.NoteOnEvent(tick=60, channel=1, data=[47, 0]),
   midi.NoteOnEvent(tick=0, channel=1, data=[47, 127]),
   midi.NoteOnEvent(tick=60, channel=1, data=[47, 0]),
   midi.NoteOnEvent(tick=0, channel=1, data=[57, 127]),
   midi.NoteOnEvent(tick=30, channel=1, data=[57, 0]),
   midi.NoteOnEvent(tick=0, channel=1, data=[52, 127]),
   midi.NoteOnEvent(tick=30, channel=1, data=[52, 0]),
   midi.NoteOnEvent(tick=0, channel=1, data=[47, 127]),
   midi.NoteOnEvent(tick=60, channel=1, data=[47, 0]),
   midi.NoteOnEvent(tick=0, channel=1, data=[52, 127]),
   midi.NoteOnEvent(tick=60, channel=1, data=[52, 0]),
   midi.NoteOnEvent(tick=0, channel=1, data=[52, 127]),
   midi.NoteOnEvent(tick=60, channel=1, data=[52, 0]),
   midi.NoteOnEvent(tick=0, channel=1, data=[59, 127]),
   midi.NoteOnEvent(tick=30, channel=1, data=[59, 0]),
   midi.NoteOnEvent(tick=0, channel=1, data=[52, 127]),
   midi.NoteOnEvent(tick=30, channel=1, data=[52, 0]),
   midi.NoteOnEvent(tick=0, channel=1, data=[47, 127]),
   midi.NoteOnEvent(tick=60, channel=1, data=[47, 0]),
   midi.NoteOnEvent(tick=0, channel=1, data=[50, 127]),
   midi.NoteOnEvent(tick=60, channel=1, data=[50, 0]),
   midi.NoteOnEvent(tick=0, channel=1, data=[50, 127]),
   midi.NoteOnEvent(tick=60, channel=1, data=[50, 0]),
   midi.NoteOnEvent(tick=0, channel=1, data=[57, 127]),
   midi.NoteOnEvent(tick=30, channel=1, data=[57, 0]),
   midi.NoteOnEvent(tick=0, channel=1, data=[52, 127]),
   midi.NoteOnEvent(tick=30, channel=1, data=[52, 0]),
   midi.NoteOnEvent(tick=0, channel=1, data=[50, 127]),
   midi.NoteOnEvent(tick=60, channel=1, data=[50, 0]),
   midi.NoteOnEvent(tick=0, channel=1, data=[48, 127]),
   midi.NoteOnEvent(tick=60, channel=1, data=[48, 0]),
   midi.NoteOnEvent(tick=0, channel=1, data=[48, 127]),
   midi.NoteOnEvent(tick=60, channel=1, data=[48, 0]),
   midi.NoteOnEvent(tick=0, channel=1, data=[59, 127]),
   midi.NoteOnEvent(tick=30, channel=1, data=[59, 0]),
   midi.NoteOnEvent(tick=0, channel=1, data=[52, 127]),
   midi.NoteOnEvent(tick=30, channel=1, data=[52, 0]),
   midi.NoteOnEvent(tick=0, channel=1, data=[48, 127]),
   midi.NoteOnEvent(tick=60, channel=1, data=[48, 0]),
   midi.NoteOnEvent(tick=0, channel=1, data=[47, 127]),
   midi.NoteOnEvent(tick=60, channel=1, data=[47, 0]),
   midi.NoteOnEvent(tick=0, channel=1, data=[47, 127]),
   midi.NoteOnEvent(tick=60, channel=1, data=[47, 0]),
   midi.NoteOnEvent(tick=0, channel=1, data=[57, 127]),
   midi.NoteOnEvent(tick=30, channel=1, data=[57, 0]),
   midi.NoteOnEvent(tick=0, channel=1, data=[52, 127]),
   midi.NoteOnEvent(tick=30, channel=1, data=[52, 0]),
   midi.NoteOnEvent(tick=0, channel=1, data=[47, 127]),
   midi.NoteOnEvent(tick=60, channel=1, data=[47, 0]),
   midi.NoteOnEvent(tick=0, channel=1, data=[52, 127]),
   midi.NoteOnEvent(tick=60, channel=1, data=[52, 0]),
   midi.NoteOnEvent(tick=0, channel=1, data=[52, 127]),
   midi.NoteOnEvent(tick=60, channel=1, data=[52, 0]),
   midi.NoteOnEvent(tick=0, channel=1, data=[59, 127]),
   midi.NoteOnEvent(tick=30, channel=1, data=[59, 0]),
   midi.NoteOnEvent(tick=0, channel=1, data=[52, 127]),
   midi.NoteOnEvent(tick=30, channel=1, data=[52, 0]),
   midi.NoteOnEvent(tick=0, channel=1, data=[47, 127]),
   midi.NoteOnEvent(tick=60, channel=1, data=[47, 0]),
   midi.NoteOnEvent(tick=0, channel=1, data=[50, 127]),
   midi.NoteOnEvent(tick=60, channel=1, data=[50, 0]),
   midi.NoteOnEvent(tick=0, channel=1, data=[50, 127]),
   midi.NoteOnEvent(tick=60, channel=1, data=[50, 0]),
   midi.NoteOnEvent(tick=0, channel=1, data=[57, 127]),
   midi.NoteOnEvent(tick=30, channel=1, data=[57, 0]),
   midi.NoteOnEvent(tick=0, channel=1, data=[52, 127]),
   midi.NoteOnEvent(tick=30, channel=1, data=[52, 0]),
   midi.NoteOnEvent(tick=0, channel=1, data=[50, 127]),
   midi.NoteOnEvent(tick=60, channel=1, data=[50, 0]),
   midi.NoteOnEvent(tick=0, channel=1, data=[48, 127]),
   midi.NoteOnEvent(tick=60, channel=1, data=[48, 0]),
   midi.NoteOnEvent(tick=0, channel=1, data=[48, 127]),
   midi.NoteOnEvent(tick=60, channel=1, data=[48, 0]),
   midi.NoteOnEvent(tick=0, channel=1, data=[59, 127]),
   midi.NoteOnEvent(tick=30, channel=1, data=[59, 0]),
   midi.NoteOnEvent(tick=0, channel=1, data=[52, 127]),
   midi.NoteOnEvent(tick=30, channel=1, data=[52, 0]),
   midi.NoteOnEvent(tick=0, channel=1, data=[48, 127]),
   midi.NoteOnEvent(tick=60, channel=1, data=[48, 0]),
   midi.NoteOnEvent(tick=0, channel=1, data=[47, 127]),
   midi.NoteOnEvent(tick=60, channel=1, data=[47, 0]),
   midi.NoteOnEvent(tick=0, channel=1, data=[47, 127]),
   midi.NoteOnEvent(tick=60, channel=1, data=[47, 0]),
   midi.NoteOnEvent(tick=0, channel=1, data=[57, 127]),
   midi.NoteOnEvent(tick=30, channel=1, data=[57, 0]),
   midi.NoteOnEvent(tick=0, channel=1, data=[52, 127]),
   midi.NoteOnEvent(tick=30, channel=1, data=[52, 0]),
   midi.NoteOnEvent(tick=0, channel=1, data=[47, 127]),
   midi.NoteOnEvent(tick=60, channel=1, data=[47, 0]),
   midi.NoteOnEvent(tick=0, channel=1, data=[52, 127]),
   midi.NoteOnEvent(tick=60, channel=1, data=[52, 0]),
   midi.NoteOnEvent(tick=0, channel=1, data=[52, 127]),
   midi.NoteOnEvent(tick=60, channel=1, data=[52, 0]),
   midi.NoteOnEvent(tick=0, channel=1, data=[59, 127]),
   midi.NoteOnEvent(tick=30, channel=1, data=[59, 0]),
   midi.NoteOnEvent(tick=0, channel=1, data=[52, 127]),
   midi.NoteOnEvent(tick=30, channel=1, data=[52, 0]),
   midi.NoteOnEvent(tick=0, channel=1, data=[47, 127]),
   midi.NoteOnEvent(tick=60, channel=1, data=[47, 0]),
   midi.NoteOnEvent(tick=0, channel=1, data=[50, 127]),
   midi.NoteOnEvent(tick=60, channel=1, data=[50, 0]),
   midi.NoteOnEvent(tick=0, channel=1, data=[50, 127]),
   midi.NoteOnEvent(tick=60, channel=1, data=[50, 0]),
   midi.NoteOnEvent(tick=0, channel=1, data=[57, 127]),
   midi.NoteOnEvent(tick=30, channel=1, data=[57, 0]),
   midi.NoteOnEvent(tick=0, channel=1, data=[52, 127]),
   midi.NoteOnEvent(tick=30, channel=1, data=[52, 0]),
   midi.NoteOnEvent(tick=0, channel=1, data=[50, 127]),
   midi.NoteOnEvent(tick=60, channel=1, data=[50, 0]),
   midi.NoteOnEvent(tick=0, channel=1, data=[48, 127]),
   midi.NoteOnEvent(tick=60, channel=1, data=[48, 0]),
   midi.NoteOnEvent(tick=0, channel=1, data=[48, 127]),
   midi.NoteOnEvent(tick=60, channel=1, data=[48, 0]),
   midi.NoteOnEvent(tick=0, channel=1, data=[59, 127]),
   midi.NoteOnEvent(tick=30, channel=1, data=[59, 0]),
   midi.NoteOnEvent(tick=0, channel=1, data=[52, 127]),
   midi.NoteOnEvent(tick=30, channel=1, data=[52, 0]),
   midi.NoteOnEvent(tick=0, channel=1, data=[48, 127]),
   midi.NoteOnEvent(tick=60, channel=1, data=[48, 0]),
   midi.NoteOnEvent(tick=0, channel=1, data=[47, 127]),
   midi.NoteOnEvent(tick=60, channel=1, data=[47, 0]),
   midi.NoteOnEvent(tick=0, channel=1, data=[47, 127]),
   midi.NoteOnEvent(tick=60, channel=1, data=[47, 0]),
   midi.NoteOnEvent(tick=0, channel=1, data=[57, 127]),
   midi.NoteOnEvent(tick=30, channel=1, data=[57, 0]),
   midi.NoteOnEvent(tick=0, channel=1, data=[52, 127]),
   midi.NoteOnEvent(tick=30, channel=1, data=[52, 0]),
   midi.NoteOnEvent(tick=0, channel=1, data=[47, 127]),
   midi.NoteOnEvent(tick=60, channel=1, data=[47, 0]),
   midi.NoteOnEvent(tick=0, channel=1, data=[52, 127]),
   midi.NoteOnEvent(tick=60, channel=1, data=[52, 0]),
   midi.NoteOnEvent(tick=0, channel=1, data=[52, 127]),
   midi.NoteOnEvent(tick=60, channel=1, data=[52, 0]),
   midi.NoteOnEvent(tick=0, channel=1, data=[59, 127]),
   midi.NoteOnEvent(tick=30, channel=1, data=[59, 0]),
   midi.NoteOnEvent(tick=0, channel=1, data=[52, 127]),
   midi.NoteOnEvent(tick=30, channel=1, data=[52, 0]),
   midi.NoteOnEvent(tick=0, channel=1, data=[47, 127]),
   midi.NoteOnEvent(tick=60, channel=1, data=[47, 0]),
   midi.NoteOnEvent(tick=0, channel=1, data=[50, 127]),
   midi.NoteOnEvent(tick=60, channel=1, data=[50, 0]),
   midi.NoteOnEvent(tick=0, channel=1, data=[50, 127]),
   midi.NoteOnEvent(tick=60, channel=1, data=[50, 0]),
   midi.NoteOnEvent(tick=0, channel=1, data=[57, 127]),
   midi.NoteOnEvent(tick=30, channel=1, data=[57, 0]),
   midi.NoteOnEvent(tick=0, channel=1, data=[52, 127]),
   midi.NoteOnEvent(tick=30, channel=1, data=[52, 0]),
   midi.NoteOnEvent(tick=0, channel=1, data=[50, 127]),
   midi.NoteOnEvent(tick=60, channel=1, data=[50, 0]),
   midi.NoteOnEvent(tick=0, channel=1, data=[48, 127]),
   midi.NoteOnEvent(tick=60, channel=1, data=[48, 0]),
   midi.NoteOnEvent(tick=0, channel=1, data=[48, 127]),
   midi.NoteOnEvent(tick=60, channel=1, data=[48, 0]),
   midi.NoteOnEvent(tick=0, channel=1, data=[59, 127]),
   midi.NoteOnEvent(tick=30, channel=1, data=[59, 0]),
   midi.NoteOnEvent(tick=0, channel=1, data=[52, 127]),
   midi.NoteOnEvent(tick=30, channel=1, data=[52, 0]),
   midi.NoteOnEvent(tick=0, channel=1, data=[48, 127]),
   midi.NoteOnEvent(tick=60, channel=1, data=[48, 0]),
   midi.NoteOnEvent(tick=0, channel=1, data=[47, 127]),
   midi.NoteOnEvent(tick=0, channel=1, data=[54, 127]),
   midi.NoteOnEvent(tick=60, channel=1, data=[47, 0]),
   midi.NoteOnEvent(tick=0, channel=1, data=[54, 0]),
   midi.NoteOnEvent(tick=0, channel=1, data=[48, 127]),
   midi.NoteOnEvent(tick=0, channel=1, data=[55, 127]),
   midi.NoteOnEvent(tick=60, channel=1, data=[48, 0]),
   midi.NoteOnEvent(tick=0, channel=1, data=[55, 0]),
   midi.NoteOnEvent(tick=0, channel=1, data=[47, 127]),
   midi.NoteOnEvent(tick=0, channel=1, data=[54, 127]),
   midi.NoteOnEvent(tick=60, channel=1, data=[47, 0]),
   midi.NoteOnEvent(tick=0, channel=1, data=[54, 0]),
   midi.NoteOnEvent(tick=0, channel=1, data=[48, 127]),
   midi.NoteOnEvent(tick=0, channel=1, data=[55, 127]),
   midi.NoteOnEvent(tick=60, channel=1, data=[48, 0]),
   midi.NoteOnEvent(tick=0, channel=1, data=[55, 0]),
   midi.NoteOnEvent(tick=0, channel=1, data=[47, 127]),
   midi.NoteOnEvent(tick=0, channel=1, data=[54, 127]),
   midi.NoteOnEvent(tick=60, channel=1, data=[47, 0]),
   midi.NoteOnEvent(tick=0, channel=1, data=[54, 0]),
   midi.NoteOnEvent(tick=0, channel=1, data=[48, 127]),
   midi.NoteOnEvent(tick=0, channel=1, data=[55, 127]),
   midi.NoteOnEvent(tick=60, channel=1, data=[48, 0]),
   midi.NoteOnEvent(tick=0, channel=1, data=[55, 0]),
   midi.NoteOnEvent(tick=0, channel=1, data=[47, 127]),
   midi.NoteOnEvent(tick=0, channel=1, data=[54, 127]),
   midi.NoteOnEvent(tick=60, channel=1, data=[47, 0]),
   midi.NoteOnEvent(tick=0, channel=1, data=[54, 0]),
   midi.NoteOnEvent(tick=0, channel=1, data=[48, 127]),
   midi.NoteOnEvent(tick=0, channel=1, data=[55, 127]),
   midi.NoteOnEvent(tick=60, channel=1, data=[48, 0]),
   midi.NoteOnEvent(tick=0, channel=1, data=[55, 0]),
   midi.NoteOnEvent(tick=0, channel=1, data=[62, 127]),
   midi.PitchWheelEvent(tick=0, channel=1, data=[0, 64]),
   midi.PitchWheelEvent(tick=1, channel=1, data=[110, 63]),
   midi.PitchWheelEvent(tick=1, channel=1, data=[93, 63]),
   midi.PitchWheelEvent(tick=1, channel=1, data=[76, 63]),
   midi.PitchWheelEvent(tick=1, channel=1, data=[59, 63]),
   midi.PitchWheelEvent(tick=1, channel=1, data=[42, 63]),
   midi.PitchWheelEvent(tick=1, channel=1, data=[25, 63]),
   midi.PitchWheelEvent(tick=1, channel=1, data=[8, 63]),
   midi.PitchWheelEvent(tick=1, channel=1, data=[119, 62]),
   midi.PitchWheelEvent(tick=1, channel=1, data=[102, 62]),
   midi.PitchWheelEvent(tick=1, channel=1, data=[84, 62]),
   midi.PitchWheelEvent(tick=1, channel=1, data=[67, 62]),
   midi.PitchWheelEvent(tick=1, channel=1, data=[50, 62]),
   midi.PitchWheelEvent(tick=1, channel=1, data=[33, 62]),
   midi.PitchWheelEvent(tick=1, channel=1, data=[16, 62]),
   midi.PitchWheelEvent(tick=1, channel=1, data=[127, 61]),
   midi.PitchWheelEvent(tick=1, channel=1, data=[110, 61]),
   midi.PitchWheelEvent(tick=1, channel=1, data=[93, 61]),
   midi.PitchWheelEvent(tick=1, channel=1, data=[76, 61]),
   midi.PitchWheelEvent(tick=1, channel=1, data=[59, 61]),
   midi.PitchWheelEvent(tick=1, channel=1, data=[41, 61]),
   midi.PitchWheelEvent(tick=1, channel=1, data=[24, 61]),
   midi.PitchWheelEvent(tick=1, channel=1, data=[7, 61]),
   midi.PitchWheelEvent(tick=1, channel=1, data=[118, 60]),
   midi.PitchWheelEvent(tick=1, channel=1, data=[101, 60]),
   midi.PitchWheelEvent(tick=1, channel=1, data=[84, 60]),
   midi.PitchWheelEvent(tick=1, channel=1, data=[67, 60]),
   midi.PitchWheelEvent(tick=1, channel=1, data=[50, 60]),
   midi.PitchWheelEvent(tick=1, channel=1, data=[33, 60]),
   midi.PitchWheelEvent(tick=1, channel=1, data=[16, 60]),
   midi.PitchWheelEvent(tick=1, channel=1, data=[126, 59]),
   midi.PitchWheelEvent(tick=1, channel=1, data=[109, 59]),
   midi.PitchWheelEvent(tick=1, channel=1, data=[92, 59]),
   midi.PitchWheelEvent(tick=1, channel=1, data=[75, 59]),
   midi.PitchWheelEvent(tick=1, channel=1, data=[58, 59]),
   midi.PitchWheelEvent(tick=1, channel=1, data=[41, 59]),
   midi.PitchWheelEvent(tick=1, channel=1, data=[24, 59]),
   midi.PitchWheelEvent(tick=1, channel=1, data=[7, 59]),
   midi.PitchWheelEvent(tick=1, channel=1, data=[118, 58]),
   midi.PitchWheelEvent(tick=1, channel=1, data=[101, 58]),
   midi.PitchWheelEvent(tick=1, channel=1, data=[83, 58]),
   midi.PitchWheelEvent(tick=1, channel=1, data=[66, 58]),
   midi.PitchWheelEvent(tick=1, channel=1, data=[49, 58]),
   midi.PitchWheelEvent(tick=1, channel=1, data=[32, 58]),
   midi.PitchWheelEvent(tick=1, channel=1, data=[15, 58]),
   midi.PitchWheelEvent(tick=1, channel=1, data=[126, 57]),
   midi.PitchWheelEvent(tick=1, channel=1, data=[109, 57]),
   midi.PitchWheelEvent(tick=1, channel=1, data=[92, 57]),
   midi.PitchWheelEvent(tick=1, channel=1, data=[75, 57]),
   midi.PitchWheelEvent(tick=1, channel=1, data=[57, 57]),
   midi.PitchWheelEvent(tick=1, channel=1, data=[40, 57]),
   midi.PitchWheelEvent(tick=1, channel=1, data=[23, 57]),
   midi.PitchWheelEvent(tick=1, channel=1, data=[6, 57]),
   midi.PitchWheelEvent(tick=1, channel=1, data=[117, 56]),
   midi.PitchWheelEvent(tick=1, channel=1, data=[100, 56]),
   midi.PitchWheelEvent(tick=1, channel=1, data=[83, 56]),
   midi.PitchWheelEvent(tick=1, channel=1, data=[66, 56]),
   midi.PitchWheelEvent(tick=1, channel=1, data=[49, 56]),
   midi.PitchWheelEvent(tick=1, channel=1, data=[32, 56]),
   midi.PitchWheelEvent(tick=1, channel=1, data=[14, 56]),
   midi.PitchWheelEvent(tick=1, channel=1, data=[125, 55]),
   midi.PitchWheelEvent(tick=1, channel=1, data=[108, 55]),
   midi.PitchWheelEvent(tick=1, channel=1, data=[91, 55]),
   midi.PitchWheelEvent(tick=1, channel=1, data=[74, 55]),
   midi.PitchWheelEvent(tick=1, channel=1, data=[57, 55]),
   midi.PitchWheelEvent(tick=1, channel=1, data=[40, 55]),
   midi.PitchWheelEvent(tick=1, channel=1, data=[23, 55]),
   midi.PitchWheelEvent(tick=1, channel=1, data=[6, 55]),
   midi.PitchWheelEvent(tick=1, channel=1, data=[117, 54]),
   midi.PitchWheelEvent(tick=1, channel=1, data=[99, 54]),
   midi.PitchWheelEvent(tick=1, channel=1, data=[82, 54]),
   midi.PitchWheelEvent(tick=1, channel=1, data=[65, 54]),
   midi.PitchWheelEvent(tick=1, channel=1, data=[48, 54]),
   midi.PitchWheelEvent(tick=1, channel=1, data=[31, 54]),
   midi.PitchWheelEvent(tick=1, channel=1, data=[14, 54]),
   midi.PitchWheelEvent(tick=1, channel=1, data=[125, 53]),
   midi.PitchWheelEvent(tick=1, channel=1, data=[108, 53]),
   midi.PitchWheelEvent(tick=1, channel=1, data=[91, 53]),
   midi.PitchWheelEvent(tick=1, channel=1, data=[74, 53]),
   midi.PitchWheelEvent(tick=1, channel=1, data=[56, 53]),
   midi.PitchWheelEvent(tick=1, channel=1, data=[39, 53]),
   midi.PitchWheelEvent(tick=1, channel=1, data=[22, 53]),
   midi.PitchWheelEvent(tick=1, channel=1, data=[5, 53]),
   midi.PitchWheelEvent(tick=1, channel=1, data=[116, 52]),
   midi.PitchWheelEvent(tick=1, channel=1, data=[99, 52]),
   midi.PitchWheelEvent(tick=1, channel=1, data=[82, 52]),
   midi.PitchWheelEvent(tick=1, channel=1, data=[65, 52]),
   midi.PitchWheelEvent(tick=1, channel=1, data=[48, 52]),
   midi.PitchWheelEvent(tick=1, channel=1, data=[30, 52]),
   midi.PitchWheelEvent(tick=1, channel=1, data=[13, 52]),
   midi.PitchWheelEvent(tick=1, channel=1, data=[124, 51]),
   midi.PitchWheelEvent(tick=1, channel=1, data=[107, 51]),
   midi.PitchWheelEvent(tick=1, channel=1, data=[90, 51]),
   midi.PitchWheelEvent(tick=1, channel=1, data=[73, 51]),
   midi.PitchWheelEvent(tick=1, channel=1, data=[56, 51]),
   midi.PitchWheelEvent(tick=1, channel=1, data=[39, 51]),
   midi.PitchWheelEvent(tick=1, channel=1, data=[22, 51]),
   midi.PitchWheelEvent(tick=1, channel=1, data=[5, 51]),
   midi.PitchWheelEvent(tick=1, channel=1, data=[115, 50]),
   midi.PitchWheelEvent(tick=1, channel=1, data=[98, 50]),
   midi.PitchWheelEvent(tick=1, channel=1, data=[81, 50]),
   midi.PitchWheelEvent(tick=1, channel=1, data=[64, 50]),
   midi.PitchWheelEvent(tick=1, channel=1, data=[47, 50]),
   midi.PitchWheelEvent(tick=1, channel=1, data=[30, 50]),
   midi.PitchWheelEvent(tick=1, channel=1, data=[13, 50]),
   midi.PitchWheelEvent(tick=1, channel=1, data=[124, 49]),
   midi.PitchWheelEvent(tick=1, channel=1, data=[107, 49]),
   midi.PitchWheelEvent(tick=1, channel=1, data=[90, 49]),
   midi.PitchWheelEvent(tick=1, channel=1, data=[72, 49]),
   midi.PitchWheelEvent(tick=1, channel=1, data=[55, 49]),
   midi.PitchWheelEvent(tick=1, channel=1, data=[38, 49]),
   midi.PitchWheelEvent(tick=1, channel=1, data=[21, 49]),
   midi.PitchWheelEvent(tick=1, channel=1, data=[4, 49]),
   midi.PitchWheelEvent(tick=1, channel=1, data=[115, 48]),
   midi.PitchWheelEvent(tick=1, channel=1, data=[98, 48]),
   midi.PitchWheelEvent(tick=1, channel=1, data=[81, 48]),
   midi.PitchWheelEvent(tick=1, channel=1, data=[64, 48]),
   midi.PitchWheelEvent(tick=1, channel=1, data=[47, 48]),
   midi.PitchWheelEvent(tick=1, channel=1, data=[29, 48]),
   midi.PitchWheelEvent(tick=1, channel=1, data=[12, 48]),
   midi.PitchWheelEvent(tick=1, channel=1, data=[123, 47]),
   midi.PitchWheelEvent(tick=1, channel=1, data=[106, 47]),
   midi.PitchWheelEvent(tick=1, channel=1, data=[89, 47]),
   midi.PitchWheelEvent(tick=1, channel=1, data=[72, 47]),
   midi.PitchWheelEvent(tick=1, channel=1, data=[55, 47]),
   midi.PitchWheelEvent(tick=1, channel=1, data=[38, 47]),
   midi.PitchWheelEvent(tick=1, channel=1, data=[21, 47]),
   midi.PitchWheelEvent(tick=1, channel=1, data=[4, 47]),
   midi.PitchWheelEvent(tick=1, channel=1, data=[114, 46]),
   midi.PitchWheelEvent(tick=1, channel=1, data=[97, 46]),
   midi.PitchWheelEvent(tick=1, channel=1, data=[80, 46]),
   midi.PitchWheelEvent(tick=1, channel=1, data=[63, 46]),
   midi.PitchWheelEvent(tick=1, channel=1, data=[46, 46]),
   midi.PitchWheelEvent(tick=1, channel=1, data=[29, 46]),
   midi.PitchWheelEvent(tick=1, channel=1, data=[12, 46]),
   midi.PitchWheelEvent(tick=1, channel=1, data=[123, 45]),
   midi.PitchWheelEvent(tick=1, channel=1, data=[106, 45]),
   midi.PitchWheelEvent(tick=1, channel=1, data=[88, 45]),
   midi.PitchWheelEvent(tick=1, channel=1, data=[71, 45]),
   midi.PitchWheelEvent(tick=1, channel=1, data=[54, 45]),
   midi.PitchWheelEvent(tick=1, channel=1, data=[37, 45]),
   midi.PitchWheelEvent(tick=1, channel=1, data=[20, 45]),
   midi.PitchWheelEvent(tick=1, channel=1, data=[3, 45]),
   midi.PitchWheelEvent(tick=1, channel=1, data=[114, 44]),
   midi.PitchWheelEvent(tick=1, channel=1, data=[97, 44]),
   midi.PitchWheelEvent(tick=1, channel=1, data=[80, 44]),
   midi.PitchWheelEvent(tick=1, channel=1, data=[63, 44]),
   midi.PitchWheelEvent(tick=1, channel=1, data=[45, 44]),
   midi.PitchWheelEvent(tick=1, channel=1, data=[28, 44]),
   midi.PitchWheelEvent(tick=1, channel=1, data=[11, 44]),
   midi.PitchWheelEvent(tick=1, channel=1, data=[122, 43]),
   midi.PitchWheelEvent(tick=1, channel=1, data=[105, 43]),
   midi.PitchWheelEvent(tick=1, channel=1, data=[88, 43]),
   midi.PitchWheelEvent(tick=1, channel=1, data=[71, 43]),
   midi.PitchWheelEvent(tick=1, channel=1, data=[54, 43]),
   midi.PitchWheelEvent(tick=1, channel=1, data=[37, 43]),
   midi.PitchWheelEvent(tick=1, channel=1, data=[20, 43]),
   midi.PitchWheelEvent(tick=1, channel=1, data=[2, 43]),
   midi.PitchWheelEvent(tick=1, channel=1, data=[113, 42]),
   midi.PitchWheelEvent(tick=1, channel=1, data=[96, 42]),
   midi.PitchWheelEvent(tick=1, channel=1, data=[79, 42]),
   midi.PitchWheelEvent(tick=1, channel=1, data=[62, 42]),
   midi.PitchWheelEvent(tick=1, channel=1, data=[45, 42]),
   midi.PitchWheelEvent(tick=1, channel=1, data=[28, 42]),
   midi.PitchWheelEvent(tick=1, channel=1, data=[11, 42]),
   midi.PitchWheelEvent(tick=1, channel=1, data=[122, 41]),
   midi.PitchWheelEvent(tick=1, channel=1, data=[105, 41]),
   midi.PitchWheelEvent(tick=1, channel=1, data=[87, 41]),
   midi.PitchWheelEvent(tick=1, channel=1, data=[70, 41]),
   midi.PitchWheelEvent(tick=1, channel=1, data=[53, 41]),
   midi.PitchWheelEvent(tick=1, channel=1, data=[36, 41]),
   midi.PitchWheelEvent(tick=1, channel=1, data=[19, 41]),
   midi.PitchWheelEvent(tick=1, channel=1, data=[2, 41]),
   midi.PitchWheelEvent(tick=1, channel=1, data=[113, 40]),
   midi.PitchWheelEvent(tick=1, channel=1, data=[96, 40]),
   midi.PitchWheelEvent(tick=1, channel=1, data=[79, 40]),
   midi.PitchWheelEvent(tick=1, channel=1, data=[61, 40]),
   midi.PitchWheelEvent(tick=1, channel=1, data=[44, 40]),
   midi.PitchWheelEvent(tick=1, channel=1, data=[27, 40]),
   midi.PitchWheelEvent(tick=1, channel=1, data=[10, 40]),
   midi.PitchWheelEvent(tick=1, channel=1, data=[121, 39]),
   midi.PitchWheelEvent(tick=1, channel=1, data=[104, 39]),
   midi.PitchWheelEvent(tick=1, channel=1, data=[87, 39]),
   midi.PitchWheelEvent(tick=1, channel=1, data=[70, 39]),
   midi.PitchWheelEvent(tick=1, channel=1, data=[53, 39]),
   midi.PitchWheelEvent(tick=1, channel=1, data=[36, 39]),
   midi.PitchWheelEvent(tick=1, channel=1, data=[18, 39]),
   midi.PitchWheelEvent(tick=1, channel=1, data=[1, 39]),
   midi.PitchWheelEvent(tick=1, channel=1, data=[112, 38]),
   midi.PitchWheelEvent(tick=1, channel=1, data=[95, 38]),
   midi.PitchWheelEvent(tick=1, channel=1, data=[78, 38]),
   midi.PitchWheelEvent(tick=1, channel=1, data=[61, 38]),
   midi.PitchWheelEvent(tick=1, channel=1, data=[44, 38]),
   midi.PitchWheelEvent(tick=1, channel=1, data=[27, 38]),
   midi.PitchWheelEvent(tick=1, channel=1, data=[10, 38]),
   midi.PitchWheelEvent(tick=1, channel=1, data=[121, 37]),
   midi.PitchWheelEvent(tick=1, channel=1, data=[103, 37]),
   midi.PitchWheelEvent(tick=1, channel=1, data=[86, 37]),
   midi.PitchWheelEvent(tick=1, channel=1, data=[69, 37]),
   midi.PitchWheelEvent(tick=1, channel=1, data=[52, 37]),
   midi.PitchWheelEvent(tick=1, channel=1, data=[35, 37]),
   midi.PitchWheelEvent(tick=1, channel=1, data=[18, 37]),
   midi.PitchWheelEvent(tick=1, channel=1, data=[1, 37]),
   midi.PitchWheelEvent(tick=1, channel=1, data=[112, 36]),
   midi.PitchWheelEvent(tick=1, channel=1, data=[95, 36]),
   midi.PitchWheelEvent(tick=1, channel=1, data=[78, 36]),
   midi.PitchWheelEvent(tick=1, channel=1, data=[60, 36]),
   midi.PitchWheelEvent(tick=1, channel=1, data=[43, 36]),
   midi.PitchWheelEvent(tick=1, channel=1, data=[26, 36]),
   midi.PitchWheelEvent(tick=1, channel=1, data=[9, 36]),
   midi.PitchWheelEvent(tick=1, channel=1, data=[120, 35]),
   midi.PitchWheelEvent(tick=1, channel=1, data=[103, 35]),
   midi.PitchWheelEvent(tick=1, channel=1, data=[86, 35]),
   midi.PitchWheelEvent(tick=1, channel=1, data=[69, 35]),
   midi.PitchWheelEvent(tick=1, channel=1, data=[52, 35]),
   midi.PitchWheelEvent(tick=1, channel=1, data=[35, 35]),
   midi.PitchWheelEvent(tick=1, channel=1, data=[17, 35]),
   midi.PitchWheelEvent(tick=1, channel=1, data=[0, 35]),
   midi.PitchWheelEvent(tick=1, channel=1, data=[111, 34]),
   midi.PitchWheelEvent(tick=1, channel=1, data=[94, 34]),
   midi.PitchWheelEvent(tick=1, channel=1, data=[77, 34]),
   midi.PitchWheelEvent(tick=1, channel=1, data=[60, 34]),
   midi.PitchWheelEvent(tick=1, channel=1, data=[43, 34]),
   midi.PitchWheelEvent(tick=1, channel=1, data=[26, 34]),
   midi.PitchWheelEvent(tick=1, channel=1, data=[9, 34]),
   midi.PitchWheelEvent(tick=1, channel=1, data=[119, 33]),
   midi.PitchWheelEvent(tick=1, channel=1, data=[102, 33]),
   midi.PitchWheelEvent(tick=1, channel=1, data=[85, 33]),
   midi.PitchWheelEvent(tick=1, channel=1, data=[68, 33]),
   midi.PitchWheelEvent(tick=1, channel=1, data=[51, 33]),
   midi.PitchWheelEvent(tick=1, channel=1, data=[34, 33]),
   midi.PitchWheelEvent(tick=1, channel=1, data=[17, 33]),
   midi.PitchWheelEvent(tick=1, channel=1, data=[0, 33]),
   midi.PitchWheelEvent(tick=1, channel=1, data=[111, 32]),
   midi.PitchWheelEvent(tick=1, channel=1, data=[94, 32]),
   midi.PitchWheelEvent(tick=1, channel=1, data=[76, 32]),
   midi.PitchWheelEvent(tick=1, channel=1, data=[59, 32]),
   midi.PitchWheelEvent(tick=1, channel=1, data=[42, 32]),
   midi.PitchWheelEvent(tick=1, channel=1, data=[25, 32]),
   midi.PitchWheelEvent(tick=1, channel=1, data=[8, 32]),
   midi.NoteOnEvent(tick=1, channel=1, data=[62, 0]),
   midi.NoteOnEvent(tick=0, channel=1, data=[40, 127]),
   midi.PitchWheelEvent(tick=0, channel=1, data=[119, 31]),
   midi.PitchWheelEvent(tick=1, channel=1, data=[102, 31]),
   midi.PitchWheelEvent(tick=1, channel=1, data=[85, 31]),
   midi.PitchWheelEvent(tick=1, channel=1, data=[68, 31]),
   midi.PitchWheelEvent(tick=1, channel=1, data=[51, 31]),
   midi.PitchWheelEvent(tick=1, channel=1, data=[33, 31]),
   midi.PitchWheelEvent(tick=1, channel=1, data=[16, 31]),
   midi.PitchWheelEvent(tick=1, channel=1, data=[127, 30]),
   midi.PitchWheelEvent(tick=1, channel=1, data=[110, 30]),
   midi.PitchWheelEvent(tick=1, channel=1, data=[93, 30]),
   midi.PitchWheelEvent(tick=1, channel=1, data=[76, 30]),
   midi.PitchWheelEvent(tick=1, channel=1, data=[59, 30]),
   midi.PitchWheelEvent(tick=1, channel=1, data=[42, 30]),
   midi.PitchWheelEvent(tick=1, channel=1, data=[25, 30]),
   midi.PitchWheelEvent(tick=1, channel=1, data=[8, 30]),
   midi.PitchWheelEvent(tick=1, channel=1, data=[118, 29]),
   midi.PitchWheelEvent(tick=1, channel=1, data=[101, 29]),
   midi.PitchWheelEvent(tick=1, channel=1, data=[84, 29]),
   midi.PitchWheelEvent(tick=1, channel=1, data=[67, 29]),
   midi.PitchWheelEvent(tick=1, channel=1, data=[50, 29]),
   midi.PitchWheelEvent(tick=1, channel=1, data=[33, 29]),
   midi.PitchWheelEvent(tick=1, channel=1, data=[16, 29]),
   midi.PitchWheelEvent(tick=1, channel=1, data=[127, 28]),
   midi.PitchWheelEvent(tick=1, channel=1, data=[110, 28]),
   midi.PitchWheelEvent(tick=1, channel=1, data=[92, 28]),
   midi.PitchWheelEvent(tick=1, channel=1, data=[75, 28]),
   midi.PitchWheelEvent(tick=1, channel=1, data=[58, 28]),
   midi.PitchWheelEvent(tick=1, channel=1, data=[41, 28]),
   midi.PitchWheelEvent(tick=1, channel=1, data=[24, 28]),
   midi.PitchWheelEvent(tick=1, channel=1, data=[7, 28]),
   midi.PitchWheelEvent(tick=1, channel=1, data=[118, 27]),
   midi.PitchWheelEvent(tick=1, channel=1, data=[101, 27]),
   midi.PitchWheelEvent(tick=1, channel=1, data=[84, 27]),
   midi.PitchWheelEvent(tick=1, channel=1, data=[67, 27]),
   midi.PitchWheelEvent(tick=1, channel=1, data=[49, 27]),
   midi.PitchWheelEvent(tick=1, channel=1, data=[32, 27]),
   midi.PitchWheelEvent(tick=1, channel=1, data=[15, 27]),
   midi.PitchWheelEvent(tick=1, channel=1, data=[126, 26]),
   midi.PitchWheelEvent(tick=1, channel=1, data=[109, 26]),
   midi.PitchWheelEvent(tick=1, channel=1, data=[92, 26]),
   midi.PitchWheelEvent(tick=1, channel=1, data=[75, 26]),
   midi.PitchWheelEvent(tick=1, channel=1, data=[58, 26]),
   midi.PitchWheelEvent(tick=1, channel=1, data=[41, 26]),
   midi.PitchWheelEvent(tick=1, channel=1, data=[24, 26]),
   midi.PitchWheelEvent(tick=1, channel=1, data=[6, 26]),
   midi.PitchWheelEvent(tick=1, channel=1, data=[117, 25]),
   midi.PitchWheelEvent(tick=1, channel=1, data=[100, 25]),
   midi.PitchWheelEvent(tick=1, channel=1, data=[83, 25]),
   midi.PitchWheelEvent(tick=1, channel=1, data=[66, 25]),
   midi.PitchWheelEvent(tick=1, channel=1, data=[49, 25]),
   midi.PitchWheelEvent(tick=1, channel=1, data=[32, 25]),
   midi.PitchWheelEvent(tick=1, channel=1, data=[15, 25]),
   midi.PitchWheelEvent(tick=1, channel=1, data=[126, 24]),
   midi.PitchWheelEvent(tick=1, channel=1, data=[109, 24]),
   midi.PitchWheelEvent(tick=1, channel=1, data=[91, 24]),
   midi.PitchWheelEvent(tick=1, channel=1, data=[74, 24]),
   midi.PitchWheelEvent(tick=1, channel=1, data=[57, 24]),
   midi.PitchWheelEvent(tick=1, channel=1, data=[40, 24]),
   midi.PitchWheelEvent(tick=1, channel=1, data=[23, 24]),
   midi.PitchWheelEvent(tick=1, channel=1, data=[6, 24]),
   midi.PitchWheelEvent(tick=1, channel=1, data=[117, 23]),
   midi.PitchWheelEvent(tick=1, channel=1, data=[100, 23]),
   midi.PitchWheelEvent(tick=1, channel=1, data=[83, 23]),
   midi.PitchWheelEvent(tick=1, channel=1, data=[66, 23]),
   midi.PitchWheelEvent(tick=1, channel=1, data=[48, 23]),
   midi.PitchWheelEvent(tick=1, channel=1, data=[31, 23]),
   midi.PitchWheelEvent(tick=1, channel=1, data=[14, 23]),
   midi.PitchWheelEvent(tick=1, channel=1, data=[125, 22]),
   midi.PitchWheelEvent(tick=1, channel=1, data=[108, 22]),
   midi.PitchWheelEvent(tick=1, channel=1, data=[91, 22]),
   midi.PitchWheelEvent(tick=1, channel=1, data=[74, 22]),
   midi.PitchWheelEvent(tick=1, channel=1, data=[57, 22]),
   midi.PitchWheelEvent(tick=1, channel=1, data=[40, 22]),
   midi.PitchWheelEvent(tick=1, channel=1, data=[22, 22]),
   midi.PitchWheelEvent(tick=1, channel=1, data=[5, 22]),
   midi.PitchWheelEvent(tick=1, channel=1, data=[116, 21]),
   midi.PitchWheelEvent(tick=1, channel=1, data=[99, 21]),
   midi.PitchWheelEvent(tick=1, channel=1, data=[82, 21]),
   midi.PitchWheelEvent(tick=1, channel=1, data=[65, 21]),
   midi.PitchWheelEvent(tick=1, channel=1, data=[48, 21]),
   midi.PitchWheelEvent(tick=1, channel=1, data=[31, 21]),
   midi.PitchWheelEvent(tick=1, channel=1, data=[14, 21]),
   midi.PitchWheelEvent(tick=1, channel=1, data=[125, 20]),
   midi.PitchWheelEvent(tick=1, channel=1, data=[107, 20]),
   midi.PitchWheelEvent(tick=1, channel=1, data=[90, 20]),
   midi.PitchWheelEvent(tick=1, channel=1, data=[73, 20]),
   midi.PitchWheelEvent(tick=1, channel=1, data=[56, 20]),
   midi.PitchWheelEvent(tick=1, channel=1, data=[39, 20]),
   midi.PitchWheelEvent(tick=1, channel=1, data=[22, 20]),
   midi.PitchWheelEvent(tick=1, channel=1, data=[5, 20]),
   midi.PitchWheelEvent(tick=1, channel=1, data=[116, 19]),
   midi.PitchWheelEvent(tick=1, channel=1, data=[99, 19]),
   midi.PitchWheelEvent(tick=1, channel=1, data=[82, 19]),
   midi.PitchWheelEvent(tick=1, channel=1, data=[64, 19]),
   midi.PitchWheelEvent(tick=1, channel=1, data=[47, 19]),
   midi.PitchWheelEvent(tick=1, channel=1, data=[30, 19]),
   midi.PitchWheelEvent(tick=1, channel=1, data=[13, 19]),
   midi.PitchWheelEvent(tick=1, channel=1, data=[124, 18]),
   midi.PitchWheelEvent(tick=1, channel=1, data=[107, 18]),
   midi.PitchWheelEvent(tick=1, channel=1, data=[90, 18]),
   midi.PitchWheelEvent(tick=1, channel=1, data=[73, 18]),
   midi.PitchWheelEvent(tick=1, channel=1, data=[56, 18]),
   midi.PitchWheelEvent(tick=1, channel=1, data=[39, 18]),
   midi.PitchWheelEvent(tick=1, channel=1, data=[21, 18]),
   midi.PitchWheelEvent(tick=1, channel=1, data=[4, 18]),
   midi.PitchWheelEvent(tick=1, channel=1, data=[115, 17]),
   midi.PitchWheelEvent(tick=1, channel=1, data=[98, 17]),
   midi.PitchWheelEvent(tick=1, channel=1, data=[81, 17]),
   midi.PitchWheelEvent(tick=1, channel=1, data=[64, 17]),
   midi.PitchWheelEvent(tick=1, channel=1, data=[47, 17]),
   midi.PitchWheelEvent(tick=1, channel=1, data=[30, 17]),
   midi.PitchWheelEvent(tick=1, channel=1, data=[13, 17]),
   midi.PitchWheelEvent(tick=1, channel=1, data=[123, 16]),
   midi.PitchWheelEvent(tick=1, channel=1, data=[106, 16]),
   midi.PitchWheelEvent(tick=1, channel=1, data=[89, 16]),
   midi.PitchWheelEvent(tick=1, channel=1, data=[72, 16]),
   midi.PitchWheelEvent(tick=1, channel=1, data=[55, 16]),
   midi.PitchWheelEvent(tick=1, channel=1, data=[38, 16]),
   midi.PitchWheelEvent(tick=1, channel=1, data=[21, 16]),
   midi.PitchWheelEvent(tick=1, channel=1, data=[4, 16]),
   midi.PitchWheelEvent(tick=1, channel=1, data=[115, 15]),
   midi.PitchWheelEvent(tick=1, channel=1, data=[98, 15]),
   midi.PitchWheelEvent(tick=1, channel=1, data=[80, 15]),
   midi.PitchWheelEvent(tick=1, channel=1, data=[63, 15]),
   midi.PitchWheelEvent(tick=1, channel=1, data=[46, 15]),
   midi.PitchWheelEvent(tick=1, channel=1, data=[29, 15]),
   midi.PitchWheelEvent(tick=1, channel=1, data=[12, 15]),
   midi.PitchWheelEvent(tick=1, channel=1, data=[123, 14]),
   midi.PitchWheelEvent(tick=1, channel=1, data=[106, 14]),
   midi.PitchWheelEvent(tick=1, channel=1, data=[89, 14]),
   midi.PitchWheelEvent(tick=1, channel=1, data=[72, 14]),
   midi.PitchWheelEvent(tick=1, channel=1, data=[55, 14]),
   midi.PitchWheelEvent(tick=1, channel=1, data=[37, 14]),
   midi.PitchWheelEvent(tick=1, channel=1, data=[20, 14]),
   midi.PitchWheelEvent(tick=1, channel=1, data=[3, 14]),
   midi.PitchWheelEvent(tick=1, channel=1, data=[114, 13]),
   midi.PitchWheelEvent(tick=1, channel=1, data=[97, 13]),
   midi.PitchWheelEvent(tick=1, channel=1, data=[80, 13]),
   midi.PitchWheelEvent(tick=1, channel=1, data=[63, 13]),
   midi.PitchWheelEvent(tick=1, channel=1, data=[46, 13]),
   midi.PitchWheelEvent(tick=1, channel=1, data=[29, 13]),
   midi.PitchWheelEvent(tick=1, channel=1, data=[12, 13]),
   midi.PitchWheelEvent(tick=1, channel=1, data=[122, 12]),
   midi.PitchWheelEvent(tick=1, channel=1, data=[105, 12]),
   midi.PitchWheelEvent(tick=1, channel=1, data=[88, 12]),
   midi.PitchWheelEvent(tick=1, channel=1, data=[71, 12]),
   midi.PitchWheelEvent(tick=1, channel=1, data=[54, 12]),
   midi.PitchWheelEvent(tick=1, channel=1, data=[37, 12]),
   midi.PitchWheelEvent(tick=1, channel=1, data=[20, 12]),
   midi.PitchWheelEvent(tick=1, channel=1, data=[3, 12]),
   midi.PitchWheelEvent(tick=1, channel=1, data=[114, 11]),
   midi.PitchWheelEvent(tick=1, channel=1, data=[97, 11]),
   midi.PitchWheelEvent(tick=1, channel=1, data=[79, 11]),
   midi.PitchWheelEvent(tick=1, channel=1, data=[62, 11]),
   midi.PitchWheelEvent(tick=1, channel=1, data=[45, 11]),
   midi.PitchWheelEvent(tick=1, channel=1, data=[28, 11]),
   midi.PitchWheelEvent(tick=1, channel=1, data=[11, 11]),
   midi.PitchWheelEvent(tick=1, channel=1, data=[122, 10]),
   midi.PitchWheelEvent(tick=1, channel=1, data=[105, 10]),
   midi.PitchWheelEvent(tick=1, channel=1, data=[88, 10]),
   midi.PitchWheelEvent(tick=1, channel=1, data=[71, 10]),
   midi.PitchWheelEvent(tick=1, channel=1, data=[53, 10]),
   midi.PitchWheelEvent(tick=1, channel=1, data=[36, 10]),
   midi.PitchWheelEvent(tick=1, channel=1, data=[19, 10]),
   midi.PitchWheelEvent(tick=1, channel=1, data=[2, 10]),
   midi.PitchWheelEvent(tick=1, channel=1, data=[113, 9]),
   midi.PitchWheelEvent(tick=1, channel=1, data=[96, 9]),
   midi.PitchWheelEvent(tick=1, channel=1, data=[79, 9]),
   midi.PitchWheelEvent(tick=1, channel=1, data=[62, 9]),
   midi.PitchWheelEvent(tick=1, channel=1, data=[45, 9]),
   midi.PitchWheelEvent(tick=1, channel=1, data=[28, 9]),
   midi.PitchWheelEvent(tick=1, channel=1, data=[10, 9]),
   midi.PitchWheelEvent(tick=1, channel=1, data=[121, 8]),
   midi.PitchWheelEvent(tick=1, channel=1, data=[104, 8]),
   midi.PitchWheelEvent(tick=1, channel=1, data=[87, 8]),
   midi.PitchWheelEvent(tick=1, channel=1, data=[70, 8]),
   midi.PitchWheelEvent(tick=1, channel=1, data=[53, 8]),
   midi.PitchWheelEvent(tick=1, channel=1, data=[36, 8]),
   midi.PitchWheelEvent(tick=1, channel=1, data=[19, 8]),
   midi.PitchWheelEvent(tick=1, channel=1, data=[2, 8]),
   midi.PitchWheelEvent(tick=1, channel=1, data=[113, 7]),
   midi.PitchWheelEvent(tick=1, channel=1, data=[95, 7]),
   midi.PitchWheelEvent(tick=1, channel=1, data=[78, 7]),
   midi.PitchWheelEvent(tick=1, channel=1, data=[61, 7]),
   midi.PitchWheelEvent(tick=1, channel=1, data=[44, 7]),
   midi.PitchWheelEvent(tick=1, channel=1, data=[27, 7]),
   midi.PitchWheelEvent(tick=1, channel=1, data=[10, 7]),
   midi.PitchWheelEvent(tick=1, channel=1, data=[121, 6]),
   midi.PitchWheelEvent(tick=1, channel=1, data=[104, 6]),
   midi.PitchWheelEvent(tick=1, channel=1, data=[87, 6]),
   midi.PitchWheelEvent(tick=1, channel=1, data=[70, 6]),
   midi.PitchWheelEvent(tick=1, channel=1, data=[52, 6]),
   midi.PitchWheelEvent(tick=1, channel=1, data=[35, 6]),
   midi.PitchWheelEvent(tick=1, channel=1, data=[18, 6]),
   midi.PitchWheelEvent(tick=1, channel=1, data=[1, 6]),
   midi.PitchWheelEvent(tick=1, channel=1, data=[112, 5]),
   midi.PitchWheelEvent(tick=1, channel=1, data=[95, 5]),
   midi.PitchWheelEvent(tick=1, channel=1, data=[78, 5]),
   midi.PitchWheelEvent(tick=1, channel=1, data=[61, 5]),
   midi.PitchWheelEvent(tick=1, channel=1, data=[44, 5]),
   midi.PitchWheelEvent(tick=1, channel=1, data=[26, 5]),
   midi.PitchWheelEvent(tick=1, channel=1, data=[9, 5]),
   midi.PitchWheelEvent(tick=1, channel=1, data=[120, 4]),
   midi.PitchWheelEvent(tick=1, channel=1, data=[103, 4]),
   midi.PitchWheelEvent(tick=1, channel=1, data=[86, 4]),
   midi.PitchWheelEvent(tick=1, channel=1, data=[69, 4]),
   midi.PitchWheelEvent(tick=1, channel=1, data=[52, 4]),
   midi.PitchWheelEvent(tick=1, channel=1, data=[35, 4]),
   midi.PitchWheelEvent(tick=1, channel=1, data=[18, 4]),
   midi.PitchWheelEvent(tick=1, channel=1, data=[1, 4]),
   midi.PitchWheelEvent(tick=1, channel=1, data=[111, 3]),
   midi.PitchWheelEvent(tick=1, channel=1, data=[94, 3]),
   midi.PitchWheelEvent(tick=1, channel=1, data=[77, 3]),
   midi.PitchWheelEvent(tick=1, channel=1, data=[60, 3]),
   midi.PitchWheelEvent(tick=1, channel=1, data=[43, 3]),
   midi.PitchWheelEvent(tick=1, channel=1, data=[26, 3]),
   midi.PitchWheelEvent(tick=1, channel=1, data=[9, 3]),
   midi.PitchWheelEvent(tick=1, channel=1, data=[120, 2]),
   midi.PitchWheelEvent(tick=1, channel=1, data=[103, 2]),
   midi.PitchWheelEvent(tick=1, channel=1, data=[86, 2]),
   midi.PitchWheelEvent(tick=1, channel=1, data=[68, 2]),
   midi.PitchWheelEvent(tick=1, channel=1, data=[51, 2]),
   midi.PitchWheelEvent(tick=1, channel=1, data=[34, 2]),
   midi.PitchWheelEvent(tick=1, channel=1, data=[17, 2]),
   midi.PitchWheelEvent(tick=1, channel=1, data=[0, 2]),
   midi.PitchWheelEvent(tick=1, channel=1, data=[111, 1]),
   midi.PitchWheelEvent(tick=1, channel=1, data=[94, 1]),
   midi.PitchWheelEvent(tick=1, channel=1, data=[77, 1]),
   midi.PitchWheelEvent(tick=1, channel=1, data=[60, 1]),
   midi.PitchWheelEvent(tick=1, channel=1, data=[43, 1]),
   midi.PitchWheelEvent(tick=1, channel=1, data=[25, 1]),
   midi.PitchWheelEvent(tick=1, channel=1, data=[8, 1]),
   midi.PitchWheelEvent(tick=1, channel=1, data=[119, 0]),
   midi.PitchWheelEvent(tick=1, channel=1, data=[102, 0]),
   midi.PitchWheelEvent(tick=1, channel=1, data=[85, 0]),
   midi.PitchWheelEvent(tick=1, channel=1, data=[68, 0]),
   midi.PitchWheelEvent(tick=1, channel=1, data=[51, 0]),
   midi.PitchWheelEvent(tick=1, channel=1, data=[34, 0]),
   midi.PitchWheelEvent(tick=1, channel=1, data=[17, 0]),
   midi.PitchWheelEvent(tick=1, channel=1, data=[0, 0]),
   midi.NoteOnEvent(tick=1, channel=1, data=[40, 0]),
   midi.NoteOnEvent(tick=0, channel=1, data=[40, 127]),
   midi.PitchWheelEvent(tick=0, channel=1, data=[0, 64]),
   midi.NoteOnEvent(tick=60, channel=1, data=[40, 0]),
   midi.NoteOnEvent(tick=0, channel=1, data=[40, 127]),
   midi.NoteOnEvent(tick=60, channel=1, data=[40, 0]),
   midi.NoteOnEvent(tick=0, channel=1, data=[40, 127]),
   midi.NoteOnEvent(tick=40, channel=1, data=[40, 0]),
   midi.NoteOnEvent(tick=0, channel=1, data=[40, 127]),
   midi.NoteOnEvent(tick=40, channel=1, data=[40, 0]),
   midi.NoteOnEvent(tick=0, channel=1, data=[40, 127]),
   midi.NoteOnEvent(tick=40, channel=1, data=[40, 0]),
   midi.NoteOnEvent(tick=0, channel=1, data=[40, 127]),
   midi.NoteOnEvent(tick=60, channel=1, data=[40, 0]),
   midi.NoteOnEvent(tick=0, channel=1, data=[40, 127]),
   midi.NoteOnEvent(tick=60, channel=1, data=[40, 0]),
   midi.NoteOnEvent(tick=0, channel=1, data=[40, 127]),
   midi.NoteOnEvent(tick=40, channel=1, data=[40, 0]),
   midi.NoteOnEvent(tick=0, channel=1, data=[40, 127]),
   midi.NoteOnEvent(tick=40, channel=1, data=[40, 0]),
   midi.NoteOnEvent(tick=0, channel=1, data=[40, 127]),
   midi.NoteOnEvent(tick=40, channel=1, data=[40, 0]),
   midi.NoteOnEvent(tick=0, channel=1, data=[40, 127]),
   midi.NoteOnEvent(tick=60, channel=1, data=[40, 0]),
   midi.NoteOnEvent(tick=0, channel=1, data=[40, 127]),
   midi.NoteOnEvent(tick=60, channel=1, data=[40, 0]),
   midi.NoteOnEvent(tick=0, channel=1, data=[40, 127]),
   midi.NoteOnEvent(tick=40, channel=1, data=[40, 0]),
   midi.NoteOnEvent(tick=0, channel=1, data=[40, 127]),
   midi.NoteOnEvent(tick=40, channel=1, data=[40, 0]),
   midi.NoteOnEvent(tick=0, channel=1, data=[40, 127]),
   midi.NoteOnEvent(tick=40, channel=1, data=[40, 0]),
   midi.NoteOnEvent(tick=0, channel=1, data=[60, 127]),
   midi.NoteOnEvent(tick=0, channel=1, data=[53, 127]),
   midi.NoteOnEvent(tick=30, channel=1, data=[60, 0]),
   midi.NoteOnEvent(tick=0, channel=1, data=[53, 0]),
   midi.NoteOnEvent(tick=0, channel=1, data=[52, 127]),
   midi.NoteOnEvent(tick=0, channel=1, data=[59, 127]),
   midi.NoteOnEvent(tick=90, channel=1, data=[52, 0]),
   midi.NoteOnEvent(tick=0, channel=1, data=[59, 0]),
   midi.NoteOnEvent(tick=0, channel=1, data=[59, 127]),
   midi.NoteOnEvent(tick=0, channel=1, data=[52, 127]),
   midi.NoteOnEvent(tick=120, channel=1, data=[59, 0]),
   midi.NoteOnEvent(tick=0, channel=1, data=[52, 0]),
   midi.NoteOnEvent(tick=0, channel=1, data=[40, 127]),
   midi.NoteOnEvent(tick=60, channel=1, data=[40, 0]),
   midi.NoteOnEvent(tick=0, channel=1, data=[40, 127]),
   midi.NoteOnEvent(tick=60, channel=1, data=[40, 0]),
   midi.NoteOnEvent(tick=0, channel=1, data=[40, 127]),
   midi.NoteOnEvent(tick=40, channel=1, data=[40, 0]),
   midi.NoteOnEvent(tick=0, channel=1, data=[40, 127]),
   midi.NoteOnEvent(tick=40, channel=1, data=[40, 0]),
   midi.NoteOnEvent(tick=0, channel=1, data=[40, 127]),
   midi.NoteOnEvent(tick=40, channel=1, data=[40, 0]),
   midi.NoteOnEvent(tick=0, channel=1, data=[40, 127]),
   midi.NoteOnEvent(tick=60, channel=1, data=[40, 0]),
   midi.NoteOnEvent(tick=0, channel=1, data=[40, 127]),
   midi.NoteOnEvent(tick=60, channel=1, data=[40, 0]),
   midi.NoteOnEvent(tick=0, channel=1, data=[40, 127]),
   midi.NoteOnEvent(tick=40, channel=1, data=[40, 0]),
   midi.NoteOnEvent(tick=0, channel=1, data=[40, 127]),
   midi.NoteOnEvent(tick=40, channel=1, data=[40, 0]),
   midi.NoteOnEvent(tick=0, channel=1, data=[40, 127]),
   midi.NoteOnEvent(tick=40, channel=1, data=[40, 0]),
   midi.NoteOnEvent(tick=0, channel=1, data=[40, 127]),
   midi.NoteOnEvent(tick=60, channel=1, data=[40, 0]),
   midi.NoteOnEvent(tick=0, channel=1, data=[40, 127]),
   midi.NoteOnEvent(tick=60, channel=1, data=[40, 0]),
   midi.NoteOnEvent(tick=0, channel=1, data=[40, 127]),
   midi.NoteOnEvent(tick=40, channel=1, data=[40, 0]),
   midi.NoteOnEvent(tick=0, channel=1, data=[40, 127]),
   midi.NoteOnEvent(tick=40, channel=1, data=[40, 0]),
   midi.NoteOnEvent(tick=0, channel=1, data=[40, 127]),
   midi.NoteOnEvent(tick=40, channel=1, data=[40, 0]),
   midi.NoteOnEvent(tick=0, channel=1, data=[60, 127]),
   midi.NoteOnEvent(tick=0, channel=1, data=[53, 127]),
   midi.NoteOnEvent(tick=240, channel=1, data=[60, 0]),
   midi.NoteOnEvent(tick=0, channel=1, data=[53, 0]),
   midi.NoteOnEvent(tick=0, channel=1, data=[40, 127]),
   midi.NoteOnEvent(tick=60, channel=1, data=[40, 0]),
   midi.NoteOnEvent(tick=0, channel=1, data=[40, 127]),
   midi.NoteOnEvent(tick=60, channel=1, data=[40, 0]),
   midi.NoteOnEvent(tick=0, channel=1, data=[40, 127]),
   midi.NoteOnEvent(tick=40, channel=1, data=[40, 0]),
   midi.NoteOnEvent(tick=0, channel=1, data=[40, 127]),
   midi.NoteOnEvent(tick=40, channel=1, data=[40, 0]),
   midi.NoteOnEvent(tick=0, channel=1, data=[40, 127]),
   midi.NoteOnEvent(tick=40, channel=1, data=[40, 0]),
   midi.NoteOnEvent(tick=0, channel=1, data=[40, 127]),
   midi.NoteOnEvent(tick=60, channel=1, data=[40, 0]),
   midi.NoteOnEvent(tick=0, channel=1, data=[40, 127]),
   midi.NoteOnEvent(tick=60, channel=1, data=[40, 0]),
   midi.NoteOnEvent(tick=0, channel=1, data=[40, 127]),
   midi.NoteOnEvent(tick=40, channel=1, data=[40, 0]),
   midi.NoteOnEvent(tick=0, channel=1, data=[40, 127]),
   midi.NoteOnEvent(tick=40, channel=1, data=[40, 0]),
   midi.NoteOnEvent(tick=0, channel=1, data=[40, 127]),
   midi.NoteOnEvent(tick=40, channel=1, data=[40, 0]),
   midi.NoteOnEvent(tick=0, channel=1, data=[40, 127]),
   midi.NoteOnEvent(tick=60, channel=1, data=[40, 0]),
   midi.NoteOnEvent(tick=0, channel=1, data=[40, 127]),
   midi.NoteOnEvent(tick=60, channel=1, data=[40, 0]),
   midi.NoteOnEvent(tick=0, channel=1, data=[40, 127]),
   midi.NoteOnEvent(tick=40, channel=1, data=[40, 0]),
   midi.NoteOnEvent(tick=0, channel=1, data=[40, 127]),
   midi.NoteOnEvent(tick=40, channel=1, data=[40, 0]),
   midi.NoteOnEvent(tick=0, channel=1, data=[40, 127]),
   midi.NoteOnEvent(tick=40, channel=1, data=[40, 0]),
   midi.NoteOnEvent(tick=0, channel=1, data=[60, 127]),
   midi.NoteOnEvent(tick=0, channel=1, data=[53, 127]),
   midi.NoteOnEvent(tick=30, channel=1, data=[60, 0]),
   midi.NoteOnEvent(tick=0, channel=1, data=[53, 0]),
   midi.NoteOnEvent(tick=0, channel=1, data=[52, 127]),
   midi.NoteOnEvent(tick=0, channel=1, data=[59, 127]),
   midi.NoteOnEvent(tick=90, channel=1, data=[52, 0]),
   midi.NoteOnEvent(tick=0, channel=1, data=[59, 0]),
   midi.NoteOnEvent(tick=0, channel=1, data=[59, 127]),
   midi.NoteOnEvent(tick=0, channel=1, data=[52, 127]),
   midi.NoteOnEvent(tick=120, channel=1, data=[59, 0]),
   midi.NoteOnEvent(tick=0, channel=1, data=[52, 0]),
   midi.NoteOnEvent(tick=0, channel=1, data=[40, 127]),
   midi.NoteOnEvent(tick=60, channel=1, data=[40, 0]),
   midi.NoteOnEvent(tick=0, channel=1, data=[40, 127]),
   midi.NoteOnEvent(tick=60, channel=1, data=[40, 0]),
   midi.NoteOnEvent(tick=0, channel=1, data=[40, 127]),
   midi.NoteOnEvent(tick=40, channel=1, data=[40, 0]),
   midi.NoteOnEvent(tick=0, channel=1, data=[40, 127]),
   midi.NoteOnEvent(tick=40, channel=1, data=[40, 0]),
   midi.NoteOnEvent(tick=0, channel=1, data=[40, 127]),
   midi.NoteOnEvent(tick=40, channel=1, data=[40, 0]),
   midi.NoteOnEvent(tick=0, channel=1, data=[40, 127]),
   midi.NoteOnEvent(tick=60, channel=1, data=[40, 0]),
   midi.NoteOnEvent(tick=0, channel=1, data=[40, 127]),
   midi.NoteOnEvent(tick=60, channel=1, data=[40, 0]),
   midi.NoteOnEvent(tick=0, channel=1, data=[40, 127]),
   midi.NoteOnEvent(tick=40, channel=1, data=[40, 0]),
   midi.NoteOnEvent(tick=0, channel=1, data=[40, 127]),
   midi.NoteOnEvent(tick=40, channel=1, data=[40, 0]),
   midi.NoteOnEvent(tick=0, channel=1, data=[40, 127]),
   midi.NoteOnEvent(tick=40, channel=1, data=[40, 0]),
   midi.NoteOnEvent(tick=0, channel=1, data=[40, 127]),
   midi.NoteOnEvent(tick=60, channel=1, data=[40, 0]),
   midi.NoteOnEvent(tick=0, channel=1, data=[40, 127]),
   midi.NoteOnEvent(tick=60, channel=1, data=[40, 0]),
   midi.NoteOnEvent(tick=0, channel=1, data=[40, 127]),
   midi.NoteOnEvent(tick=40, channel=1, data=[40, 0]),
   midi.NoteOnEvent(tick=0, channel=1, data=[40, 127]),
   midi.NoteOnEvent(tick=40, channel=1, data=[40, 0]),
   midi.NoteOnEvent(tick=0, channel=1, data=[40, 127]),
   midi.NoteOnEvent(tick=40, channel=1, data=[40, 0]),
   midi.NoteOnEvent(tick=0, channel=1, data=[60, 127]),
   midi.NoteOnEvent(tick=0, channel=1, data=[53, 127]),
   midi.NoteOnEvent(tick=240, channel=1, data=[60, 0]),
   midi.NoteOnEvent(tick=0, channel=1, data=[53, 0]),
   midi.NoteOnEvent(tick=0, channel=1, data=[40, 127]),
   midi.NoteOnEvent(tick=60, channel=1, data=[40, 0]),
   midi.NoteOnEvent(tick=0, channel=1, data=[40, 127]),
   midi.NoteOnEvent(tick=60, channel=1, data=[40, 0]),
   midi.NoteOnEvent(tick=0, channel=1, data=[40, 127]),
   midi.NoteOnEvent(tick=40, channel=1, data=[40, 0]),
   midi.NoteOnEvent(tick=0, channel=1, data=[40, 127]),
   midi.NoteOnEvent(tick=40, channel=1, data=[40, 0]),
   midi.NoteOnEvent(tick=0, channel=1, data=[40, 127]),
   midi.NoteOnEvent(tick=40, channel=1, data=[40, 0]),
   midi.NoteOnEvent(tick=0, channel=1, data=[40, 127]),
   midi.NoteOnEvent(tick=60, channel=1, data=[40, 0]),
   midi.NoteOnEvent(tick=0, channel=1, data=[40, 127]),
   midi.NoteOnEvent(tick=60, channel=1, data=[40, 0]),
   midi.NoteOnEvent(tick=0, channel=1, data=[40, 127]),
   midi.NoteOnEvent(tick=40, channel=1, data=[40, 0]),
   midi.NoteOnEvent(tick=0, channel=1, data=[40, 127]),
   midi.NoteOnEvent(tick=40, channel=1, data=[40, 0]),
   midi.NoteOnEvent(tick=0, channel=1, data=[40, 127]),
   midi.NoteOnEvent(tick=40, channel=1, data=[40, 0]),
   midi.NoteOnEvent(tick=0, channel=1, data=[40, 127]),
   midi.NoteOnEvent(tick=60, channel=1, data=[40, 0]),
   midi.NoteOnEvent(tick=0, channel=1, data=[40, 127]),
   midi.NoteOnEvent(tick=60, channel=1, data=[40, 0]),
   midi.NoteOnEvent(tick=0, channel=1, data=[40, 127]),
   midi.NoteOnEvent(tick=40, channel=1, data=[40, 0]),
   midi.NoteOnEvent(tick=0, channel=1, data=[40, 127]),
   midi.NoteOnEvent(tick=40, channel=1, data=[40, 0]),
   midi.NoteOnEvent(tick=0, channel=1, data=[40, 127]),
   midi.NoteOnEvent(tick=40, channel=1, data=[40, 0]),
   midi.NoteOnEvent(tick=0, channel=1, data=[60, 127]),
   midi.NoteOnEvent(tick=0, channel=1, data=[53, 127]),
   midi.NoteOnEvent(tick=30, channel=1, data=[60, 0]),
   midi.NoteOnEvent(tick=0, channel=1, data=[53, 0]),
   midi.NoteOnEvent(tick=0, channel=1, data=[52, 127]),
   midi.NoteOnEvent(tick=0, channel=1, data=[59, 127]),
   midi.NoteOnEvent(tick=90, channel=1, data=[52, 0]),
   midi.NoteOnEvent(tick=0, channel=1, data=[59, 0]),
   midi.NoteOnEvent(tick=0, channel=1, data=[59, 127]),
   midi.NoteOnEvent(tick=0, channel=1, data=[52, 127]),
   midi.NoteOnEvent(tick=120, channel=1, data=[59, 0]),
   midi.NoteOnEvent(tick=0, channel=1, data=[52, 0]),
   midi.NoteOnEvent(tick=0, channel=1, data=[40, 127]),
   midi.NoteOnEvent(tick=60, channel=1, data=[40, 0]),
   midi.NoteOnEvent(tick=0, channel=1, data=[40, 127]),
   midi.NoteOnEvent(tick=60, channel=1, data=[40, 0]),
   midi.NoteOnEvent(tick=0, channel=1, data=[40, 127]),
   midi.NoteOnEvent(tick=40, channel=1, data=[40, 0]),
   midi.NoteOnEvent(tick=0, channel=1, data=[40, 127]),
   midi.NoteOnEvent(tick=40, channel=1, data=[40, 0]),
   midi.NoteOnEvent(tick=0, channel=1, data=[40, 127]),
   midi.NoteOnEvent(tick=40, channel=1, data=[40, 0]),
   midi.NoteOnEvent(tick=0, channel=1, data=[40, 127]),
   midi.NoteOnEvent(tick=60, channel=1, data=[40, 0]),
   midi.NoteOnEvent(tick=0, channel=1, data=[40, 127]),
   midi.NoteOnEvent(tick=60, channel=1, data=[40, 0]),
   midi.NoteOnEvent(tick=0, channel=1, data=[40, 127]),
   midi.NoteOnEvent(tick=40, channel=1, data=[40, 0]),
   midi.NoteOnEvent(tick=0, channel=1, data=[40, 127]),
   midi.NoteOnEvent(tick=40, channel=1, data=[40, 0]),
   midi.NoteOnEvent(tick=0, channel=1, data=[40, 127]),
   midi.NoteOnEvent(tick=40, channel=1, data=[40, 0]),
   midi.NoteOnEvent(tick=0, channel=1, data=[40, 127]),
   midi.NoteOnEvent(tick=60, channel=1, data=[40, 0]),
   midi.NoteOnEvent(tick=0, channel=1, data=[40, 127]),
   midi.NoteOnEvent(tick=60, channel=1, data=[40, 0]),
   midi.NoteOnEvent(tick=0, channel=1, data=[40, 127]),
   midi.NoteOnEvent(tick=40, channel=1, data=[40, 0]),
   midi.NoteOnEvent(tick=0, channel=1, data=[40, 127]),
   midi.NoteOnEvent(tick=40, channel=1, data=[40, 0]),
   midi.NoteOnEvent(tick=0, channel=1, data=[40, 127]),
   midi.NoteOnEvent(tick=40, channel=1, data=[40, 0]),
   midi.NoteOnEvent(tick=0, channel=1, data=[60, 127]),
   midi.NoteOnEvent(tick=0, channel=1, data=[53, 127]),
   midi.NoteOnEvent(tick=240, channel=1, data=[60, 0]),
   midi.NoteOnEvent(tick=0, channel=1, data=[53, 0]),
   midi.NoteOnEvent(tick=0, channel=1, data=[40, 127]),
   midi.NoteOnEvent(tick=60, channel=1, data=[40, 0]),
   midi.NoteOnEvent(tick=0, channel=1, data=[40, 127]),
   midi.NoteOnEvent(tick=60, channel=1, data=[40, 0]),
   midi.NoteOnEvent(tick=0, channel=1, data=[40, 127]),
   midi.NoteOnEvent(tick=40, channel=1, data=[40, 0]),
   midi.NoteOnEvent(tick=0, channel=1, data=[40, 127]),
   midi.NoteOnEvent(tick=40, channel=1, data=[40, 0]),
   midi.NoteOnEvent(tick=0, channel=1, data=[40, 127]),
   midi.NoteOnEvent(tick=40, channel=1, data=[40, 0]),
   midi.NoteOnEvent(tick=0, channel=1, data=[40, 127]),
   midi.NoteOnEvent(tick=60, channel=1, data=[40, 0]),
   midi.NoteOnEvent(tick=0, channel=1, data=[40, 127]),
   midi.NoteOnEvent(tick=60, channel=1, data=[40, 0]),
   midi.NoteOnEvent(tick=0, channel=1, data=[40, 127]),
   midi.NoteOnEvent(tick=40, channel=1, data=[40, 0]),
   midi.NoteOnEvent(tick=0, channel=1, data=[40, 127]),
   midi.NoteOnEvent(tick=40, channel=1, data=[40, 0]),
   midi.NoteOnEvent(tick=0, channel=1, data=[40, 127]),
   midi.NoteOnEvent(tick=40, channel=1, data=[40, 0]),
   midi.NoteOnEvent(tick=0, channel=1, data=[40, 127]),
   midi.NoteOnEvent(tick=60, channel=1, data=[40, 0]),
   midi.NoteOnEvent(tick=0, channel=1, data=[40, 127]),
   midi.NoteOnEvent(tick=60, channel=1, data=[40, 0]),
   midi.NoteOnEvent(tick=0, channel=1, data=[40, 127]),
   midi.NoteOnEvent(tick=40, channel=1, data=[40, 0]),
   midi.NoteOnEvent(tick=0, channel=1, data=[40, 127]),
   midi.NoteOnEvent(tick=40, channel=1, data=[40, 0]),
   midi.NoteOnEvent(tick=0, channel=1, data=[40, 127]),
   midi.NoteOnEvent(tick=40, channel=1, data=[40, 0]),
   midi.NoteOnEvent(tick=0, channel=1, data=[60, 127]),
   midi.NoteOnEvent(tick=0, channel=1, data=[53, 127]),
   midi.NoteOnEvent(tick=30, channel=1, data=[60, 0]),
   midi.NoteOnEvent(tick=0, channel=1, data=[53, 0]),
   midi.NoteOnEvent(tick=0, channel=1, data=[52, 127]),
   midi.NoteOnEvent(tick=0, channel=1, data=[59, 127]),
   midi.NoteOnEvent(tick=90, channel=1, data=[52, 0]),
   midi.NoteOnEvent(tick=0, channel=1, data=[59, 0]),
   midi.NoteOnEvent(tick=0, channel=1, data=[59, 127]),
   midi.NoteOnEvent(tick=0, channel=1, data=[52, 127]),
   midi.NoteOnEvent(tick=120, channel=1, data=[59, 0]),
   midi.NoteOnEvent(tick=0, channel=1, data=[52, 0]),
   midi.NoteOnEvent(tick=0, channel=1, data=[40, 127]),
   midi.NoteOnEvent(tick=60, channel=1, data=[40, 0]),
   midi.NoteOnEvent(tick=0, channel=1, data=[40, 127]),
   midi.NoteOnEvent(tick=60, channel=1, data=[40, 0]),
   midi.NoteOnEvent(tick=0, channel=1, data=[40, 127]),
   midi.NoteOnEvent(tick=40, channel=1, data=[40, 0]),
   midi.NoteOnEvent(tick=0, channel=1, data=[40, 127]),
   midi.NoteOnEvent(tick=40, channel=1, data=[40, 0]),
   midi.NoteOnEvent(tick=0, channel=1, data=[40, 127]),
   midi.NoteOnEvent(tick=40, channel=1, data=[40, 0]),
   midi.NoteOnEvent(tick=0, channel=1, data=[40, 127]),
   midi.NoteOnEvent(tick=60, channel=1, data=[40, 0]),
   midi.NoteOnEvent(tick=0, channel=1, data=[40, 127]),
   midi.NoteOnEvent(tick=60, channel=1, data=[40, 0]),
   midi.NoteOnEvent(tick=0, channel=1, data=[40, 127]),
   midi.NoteOnEvent(tick=40, channel=1, data=[40, 0]),
   midi.NoteOnEvent(tick=0, channel=1, data=[40, 127]),
   midi.NoteOnEvent(tick=40, channel=1, data=[40, 0]),
   midi.NoteOnEvent(tick=0, channel=1, data=[40, 127]),
   midi.NoteOnEvent(tick=40, channel=1, data=[40, 0]),
   midi.NoteOnEvent(tick=0, channel=1, data=[40, 127]),
   midi.NoteOnEvent(tick=60, channel=1, data=[40, 0]),
   midi.NoteOnEvent(tick=0, channel=1, data=[40, 127]),
   midi.NoteOnEvent(tick=60, channel=1, data=[40, 0]),
   midi.NoteOnEvent(tick=0, channel=1, data=[40, 127]),
   midi.NoteOnEvent(tick=40, channel=1, data=[40, 0]),
   midi.NoteOnEvent(tick=0, channel=1, data=[40, 127]),
   midi.NoteOnEvent(tick=40, channel=1, data=[40, 0]),
   midi.NoteOnEvent(tick=0, channel=1, data=[40, 127]),
   midi.NoteOnEvent(tick=40, channel=1, data=[40, 0]),
   midi.NoteOnEvent(tick=0, channel=1, data=[60, 127]),
   midi.NoteOnEvent(tick=0, channel=1, data=[53, 127]),
   midi.NoteOnEvent(tick=240, channel=1, data=[60, 0]),
   midi.NoteOnEvent(tick=0, channel=1, data=[53, 0]),
   midi.NoteOnEvent(tick=0, channel=1, data=[52, 127]),
   midi.NoteOnEvent(tick=40, channel=1, data=[52, 0]),
   midi.NoteOnEvent(tick=0, channel=1, data=[50, 127]),
   midi.NoteOnEvent(tick=40, channel=1, data=[50, 0]),
   midi.NoteOnEvent(tick=0, channel=1, data=[47, 127]),
   midi.NoteOnEvent(tick=40, channel=1, data=[47, 0]),
   midi.NoteOnEvent(tick=0, channel=1, data=[50, 127]),
   midi.NoteOnEvent(tick=40, channel=1, data=[50, 0]),
   midi.NoteOnEvent(tick=0, channel=1, data=[47, 127]),
   midi.NoteOnEvent(tick=40, channel=1, data=[47, 0]),
   midi.NoteOnEvent(tick=0, channel=1, data=[46, 127]),
   midi.NoteOnEvent(tick=40, channel=1, data=[46, 0]),
   midi.NoteOnEvent(tick=0, channel=1, data=[45, 127]),
   midi.NoteOnEvent(tick=40, channel=1, data=[45, 0]),
   midi.NoteOnEvent(tick=0, channel=1, data=[43, 127]),
   midi.NoteOnEvent(tick=40, channel=1, data=[43, 0]),
   midi.NoteOnEvent(tick=0, channel=1, data=[45, 127]),
   midi.NoteOnEvent(tick=40, channel=1, data=[45, 0]),
   midi.NoteOnEvent(tick=0, channel=1, data=[40, 127]),
   midi.NoteOnEvent(tick=40, channel=1, data=[40, 0]),
   midi.NoteOnEvent(tick=0, channel=1, data=[43, 127]),
   midi.NoteOnEvent(tick=40, channel=1, data=[43, 0]),
   midi.NoteOnEvent(tick=0, channel=1, data=[45, 127]),
   midi.NoteOnEvent(tick=40, channel=1, data=[45, 0]),
   midi.NoteOnEvent(tick=0, channel=1, data=[52, 127]),
   midi.NoteOnEvent(tick=40, channel=1, data=[52, 0]),
   midi.NoteOnEvent(tick=0, channel=1, data=[50, 127]),
   midi.NoteOnEvent(tick=40, channel=1, data=[50, 0]),
   midi.NoteOnEvent(tick=0, channel=1, data=[47, 127]),
   midi.NoteOnEvent(tick=40, channel=1, data=[47, 0]),
   midi.NoteOnEvent(tick=0, channel=1, data=[50, 127]),
   midi.NoteOnEvent(tick=40, channel=1, data=[50, 0]),
   midi.NoteOnEvent(tick=0, channel=1, data=[47, 127]),
   midi.NoteOnEvent(tick=40, channel=1, data=[47, 0]),
   midi.NoteOnEvent(tick=0, channel=1, data=[46, 127]),
   midi.NoteOnEvent(tick=40, channel=1, data=[46, 0]),
   midi.NoteOnEvent(tick=0, channel=1, data=[45, 127]),
   midi.NoteOnEvent(tick=40, channel=1, data=[45, 0]),
   midi.NoteOnEvent(tick=0, channel=1, data=[43, 127]),
   midi.NoteOnEvent(tick=40, channel=1, data=[43, 0]),
   midi.NoteOnEvent(tick=0, channel=1, data=[45, 127]),
   midi.NoteOnEvent(tick=40, channel=1, data=[45, 0]),
   midi.NoteOnEvent(tick=0, channel=1, data=[40, 127]),
   midi.NoteOnEvent(tick=40, channel=1, data=[40, 0]),
   midi.NoteOnEvent(tick=0, channel=1, data=[43, 127]),
   midi.NoteOnEvent(tick=40, channel=1, data=[43, 0]),
   midi.NoteOnEvent(tick=0, channel=1, data=[45, 127]),
   midi.NoteOnEvent(tick=40, channel=1, data=[45, 0]),
   midi.NoteOnEvent(tick=1560, channel=1, data=[47, 127]),
   midi.NoteOnEvent(tick=0, channel=1, data=[40, 127]),
   midi.NoteOnEvent(tick=120, channel=1, data=[47, 0]),
   midi.NoteOnEvent(tick=0, channel=1, data=[40, 0]),
   midi.NoteOnEvent(tick=120, channel=1, data=[40, 127]),
   midi.NoteOnEvent(tick=0, channel=1, data=[47, 127]),
   midi.NoteOnEvent(tick=120, channel=1, data=[40, 0]),
   midi.NoteOnEvent(tick=0, channel=1, data=[47, 0]),
   midi.NoteOnEvent(tick=960, channel=1, data=[48, 127]),
   midi.NoteOnEvent(tick=0, channel=1, data=[55, 127]),
   midi.NoteOnEvent(tick=120, channel=1, data=[48, 0]),
   midi.NoteOnEvent(tick=0, channel=1, data=[55, 0]),
   midi.NoteOnEvent(tick=0, channel=1, data=[43, 127]),
   midi.NoteOnEvent(tick=0, channel=1, data=[50, 127]),
   midi.NoteOnEvent(tick=120, channel=1, data=[43, 0]),
   midi.NoteOnEvent(tick=0, channel=1, data=[50, 0]),
   midi.NoteOnEvent(tick=0, channel=1, data=[57, 127]),
   midi.NoteOnEvent(tick=0, channel=1, data=[50, 127]),
   midi.NoteOnEvent(tick=120, channel=1, data=[57, 0]),
   midi.NoteOnEvent(tick=0, channel=1, data=[50, 0]),
   midi.NoteOnEvent(tick=0, channel=1, data=[48, 127]),
   midi.NoteOnEvent(tick=0, channel=1, data=[55, 127]),
   midi.NoteOnEvent(tick=120, channel=1, data=[48, 0]),
   midi.NoteOnEvent(tick=0, channel=1, data=[55, 0]),
   midi.NoteOnEvent(tick=0, channel=1, data=[40, 127]),
   midi.NoteOnEvent(tick=0, channel=1, data=[52, 127]),
   midi.NoteOnEvent(tick=60, channel=1, data=[40, 0]),
   midi.NoteOnEvent(tick=0, channel=1, data=[52, 0]),
   midi.NoteOnEvent(tick=0, channel=1, data=[50, 127]),
   midi.NoteOnEvent(tick=60, channel=1, data=[50, 0]),
   midi.NoteOnEvent(tick=0, channel=1, data=[40, 127]),
   midi.NoteOnEvent(tick=0, channel=1, data=[52, 127]),
   midi.NoteOnEvent(tick=60, channel=1, data=[40, 0]),
   midi.NoteOnEvent(tick=0, channel=1, data=[52, 0]),
   midi.NoteOnEvent(tick=0, channel=1, data=[50, 127]),
   midi.NoteOnEvent(tick=60, channel=1, data=[50, 0]),
   midi.NoteOnEvent(tick=0, channel=1, data=[40, 127]),
   midi.NoteOnEvent(tick=0, channel=1, data=[52, 127]),
   midi.NoteOnEvent(tick=60, channel=1, data=[40, 0]),
   midi.NoteOnEvent(tick=0, channel=1, data=[52, 0]),
   midi.NoteOnEvent(tick=0, channel=1, data=[50, 127]),
   midi.NoteOnEvent(tick=60, channel=1, data=[50, 0]),
   midi.NoteOnEvent(tick=0, channel=1, data=[40, 127]),
   midi.NoteOnEvent(tick=0, channel=1, data=[52, 127]),
   midi.NoteOnEvent(tick=60, channel=1, data=[40, 0]),
   midi.NoteOnEvent(tick=0, channel=1, data=[52, 0]),
   midi.NoteOnEvent(tick=0, channel=1, data=[50, 127]),
   midi.NoteOnEvent(tick=60, channel=1, data=[50, 0]),
   midi.NoteOnEvent(tick=0, channel=1, data=[40, 127]),
   midi.NoteOnEvent(tick=0, channel=1, data=[52, 127]),
   midi.NoteOnEvent(tick=60, channel=1, data=[40, 0]),
   midi.NoteOnEvent(tick=0, channel=1, data=[52, 0]),
   midi.NoteOnEvent(tick=0, channel=1, data=[50, 127]),
   midi.NoteOnEvent(tick=60, channel=1, data=[50, 0]),
   midi.NoteOnEvent(tick=0, channel=1, data=[40, 127]),
   midi.NoteOnEvent(tick=0, channel=1, data=[52, 127]),
   midi.NoteOnEvent(tick=60, channel=1, data=[40, 0]),
   midi.NoteOnEvent(tick=0, channel=1, data=[52, 0]),
   midi.NoteOnEvent(tick=0, channel=1, data=[50, 127]),
   midi.NoteOnEvent(tick=60, channel=1, data=[50, 0]),
   midi.NoteOnEvent(tick=0, channel=1, data=[40, 127]),
   midi.NoteOnEvent(tick=0, channel=1, data=[52, 127]),
   midi.NoteOnEvent(tick=60, channel=1, data=[40, 0]),
   midi.NoteOnEvent(tick=0, channel=1, data=[52, 0]),
   midi.NoteOnEvent(tick=0, channel=1, data=[50, 127]),
   midi.NoteOnEvent(tick=60, channel=1, data=[50, 0]),
   midi.NoteOnEvent(tick=0, channel=1, data=[47, 127]),
   midi.NoteOnEvent(tick=0, channel=1, data=[50, 127]),
   midi.NoteOnEvent(tick=60, channel=1, data=[47, 0]),
   midi.NoteOnEvent(tick=0, channel=1, data=[50, 0]),
   midi.NoteOnEvent(tick=0, channel=1, data=[50, 127]),
   midi.NoteOnEvent(tick=60, channel=1, data=[50, 0]),
   midi.NoteOnEvent(tick=0, channel=1, data=[40, 127]),
   midi.NoteOnEvent(tick=0, channel=1, data=[52, 127]),
   midi.NoteOnEvent(tick=60, channel=1, data=[40, 0]),
   midi.NoteOnEvent(tick=0, channel=1, data=[52, 0]),
   midi.NoteOnEvent(tick=0, channel=1, data=[50, 127]),
   midi.NoteOnEvent(tick=60, channel=1, data=[50, 0]),
   midi.NoteOnEvent(tick=0, channel=1, data=[40, 127]),
   midi.NoteOnEvent(tick=0, channel=1, data=[52, 127]),
   midi.NoteOnEvent(tick=60, channel=1, data=[40, 0]),
   midi.NoteOnEvent(tick=0, channel=1, data=[52, 0]),
   midi.NoteOnEvent(tick=0, channel=1, data=[50, 127]),
   midi.NoteOnEvent(tick=60, channel=1, data=[50, 0]),
   midi.NoteOnEvent(tick=0, channel=1, data=[40, 127]),
   midi.NoteOnEvent(tick=0, channel=1, data=[52, 127]),
   midi.NoteOnEvent(tick=60, channel=1, data=[40, 0]),
   midi.NoteOnEvent(tick=0, channel=1, data=[52, 0]),
   midi.NoteOnEvent(tick=0, channel=1, data=[50, 127]),
   midi.NoteOnEvent(tick=60, channel=1, data=[50, 0]),
   midi.NoteOnEvent(tick=0, channel=1, data=[40, 127]),
   midi.NoteOnEvent(tick=0, channel=1, data=[52, 127]),
   midi.NoteOnEvent(tick=60, channel=1, data=[40, 0]),
   midi.NoteOnEvent(tick=0, channel=1, data=[52, 0]),
   midi.NoteOnEvent(tick=0, channel=1, data=[50, 127]),
   midi.NoteOnEvent(tick=60, channel=1, data=[50, 0]),
   midi.NoteOnEvent(tick=0, channel=1, data=[47, 127]),
   midi.NoteOnEvent(tick=60, channel=1, data=[47, 0]),
   midi.NoteOnEvent(tick=0, channel=1, data=[50, 127]),
   midi.NoteOnEvent(tick=60, channel=1, data=[50, 0]),
   midi.NoteOnEvent(tick=0, channel=1, data=[52, 127]),
   midi.NoteOnEvent(tick=60, channel=1, data=[52, 0]),
   midi.NoteOnEvent(tick=0, channel=1, data=[50, 127]),
   midi.NoteOnEvent(tick=60, channel=1, data=[50, 0]),
   midi.NoteOnEvent(tick=0, channel=1, data=[57, 127]),
   midi.NoteOnEvent(tick=60, channel=1, data=[57, 0]),
   midi.NoteOnEvent(tick=0, channel=1, data=[55, 127]),
   midi.NoteOnEvent(tick=60, channel=1, data=[55, 0]),
   midi.NoteOnEvent(tick=0, channel=1, data=[52, 127]),
   midi.NoteOnEvent(tick=60, channel=1, data=[52, 0]),
   midi.NoteOnEvent(tick=0, channel=1, data=[50, 127]),
   midi.NoteOnEvent(tick=60, channel=1, data=[50, 0]),
   midi.NoteOnEvent(tick=0, channel=1, data=[40, 127]),
   midi.NoteOnEvent(tick=0, channel=1, data=[52, 127]),
   midi.NoteOnEvent(tick=60, channel=1, data=[40, 0]),
   midi.NoteOnEvent(tick=0, channel=1, data=[52, 0]),
   midi.NoteOnEvent(tick=0, channel=1, data=[50, 127]),
   midi.NoteOnEvent(tick=60, channel=1, data=[50, 0]),
   midi.NoteOnEvent(tick=0, channel=1, data=[40, 127]),
   midi.NoteOnEvent(tick=0, channel=1, data=[52, 127]),
   midi.NoteOnEvent(tick=60, channel=1, data=[40, 0]),
   midi.NoteOnEvent(tick=0, channel=1, data=[52, 0]),
   midi.NoteOnEvent(tick=0, channel=1, data=[50, 127]),
   midi.NoteOnEvent(tick=60, channel=1, data=[50, 0]),
   midi.NoteOnEvent(tick=0, channel=1, data=[40, 127]),
   midi.NoteOnEvent(tick=0, channel=1, data=[52, 127]),
   midi.NoteOnEvent(tick=60, channel=1, data=[40, 0]),
   midi.NoteOnEvent(tick=0, channel=1, data=[52, 0]),
   midi.NoteOnEvent(tick=0, channel=1, data=[50, 127]),
   midi.NoteOnEvent(tick=60, channel=1, data=[50, 0]),
   midi.NoteOnEvent(tick=0, channel=1, data=[47, 127]),
   midi.NoteOnEvent(tick=0, channel=1, data=[50, 127]),
   midi.NoteOnEvent(tick=60, channel=1, data=[47, 0]),
   midi.NoteOnEvent(tick=0, channel=1, data=[50, 0]),
   midi.NoteOnEvent(tick=0, channel=1, data=[50, 127]),
   midi.NoteOnEvent(tick=60, channel=1, data=[50, 0]),
   midi.NoteOnEvent(tick=0, channel=1, data=[40, 127]),
   midi.NoteOnEvent(tick=0, channel=1, data=[52, 127]),
   midi.NoteOnEvent(tick=60, channel=1, data=[40, 0]),
   midi.NoteOnEvent(tick=0, channel=1, data=[52, 0]),
   midi.NoteOnEvent(tick=0, channel=1, data=[50, 127]),
   midi.NoteOnEvent(tick=60, channel=1, data=[50, 0]),
   midi.NoteOnEvent(tick=0, channel=1, data=[40, 127]),
   midi.NoteOnEvent(tick=0, channel=1, data=[52, 127]),
   midi.NoteOnEvent(tick=60, channel=1, data=[40, 0]),
   midi.NoteOnEvent(tick=0, channel=1, data=[52, 0]),
   midi.NoteOnEvent(tick=0, channel=1, data=[50, 127]),
   midi.NoteOnEvent(tick=60, channel=1, data=[50, 0]),
   midi.NoteOnEvent(tick=0, channel=1, data=[40, 127]),
   midi.NoteOnEvent(tick=0, channel=1, data=[52, 127]),
   midi.NoteOnEvent(tick=60, channel=1, data=[40, 0]),
   midi.NoteOnEvent(tick=0, channel=1, data=[52, 0]),
   midi.NoteOnEvent(tick=0, channel=1, data=[50, 127]),
   midi.NoteOnEvent(tick=60, channel=1, data=[50, 0]),
   midi.NoteOnEvent(tick=0, channel=1, data=[47, 127]),
   midi.NoteOnEvent(tick=0, channel=1, data=[50, 127]),
   midi.NoteOnEvent(tick=60, channel=1, data=[47, 0]),
   midi.NoteOnEvent(tick=0, channel=1, data=[50, 0]),
   midi.NoteOnEvent(tick=0, channel=1, data=[50, 127]),
   midi.NoteOnEvent(tick=60, channel=1, data=[50, 0]),
   midi.NoteOnEvent(tick=0, channel=1, data=[48, 127]),
   midi.NoteOnEvent(tick=0, channel=1, data=[55, 127]),
   midi.NoteOnEvent(tick=120, channel=1, data=[48, 0]),
   midi.NoteOnEvent(tick=0, channel=1, data=[55, 0]),
   midi.NoteOnEvent(tick=0, channel=1, data=[43, 127]),
   midi.NoteOnEvent(tick=0, channel=1, data=[50, 127]),
   midi.NoteOnEvent(tick=120, channel=1, data=[43, 0]),
   midi.NoteOnEvent(tick=0, channel=1, data=[50, 0]),
   midi.NoteOnEvent(tick=0, channel=1, data=[57, 127]),
   midi.NoteOnEvent(tick=0, channel=1, data=[50, 127]),
   midi.NoteOnEvent(tick=120, channel=1, data=[57, 0]),
   midi.NoteOnEvent(tick=0, channel=1, data=[50, 0]),
   midi.NoteOnEvent(tick=0, channel=1, data=[48, 127]),
   midi.NoteOnEvent(tick=0, channel=1, data=[55, 127]),
   midi.NoteOnEvent(tick=120, channel=1, data=[48, 0]),
   midi.NoteOnEvent(tick=0, channel=1, data=[55, 0]),
   midi.NoteOnEvent(tick=0, channel=1, data=[40, 127]),
   midi.NoteOnEvent(tick=40, channel=1, data=[40, 0]),
   midi.NoteOnEvent(tick=0, channel=1, data=[40, 127]),
   midi.NoteOnEvent(tick=40, channel=1, data=[40, 0]),
   midi.NoteOnEvent(tick=0, channel=1, data=[40, 127]),
   midi.NoteOnEvent(tick=40, channel=1, data=[40, 0]),
   midi.NoteOnEvent(tick=0, channel=1, data=[59, 127]),
   midi.NoteOnEvent(tick=0, channel=1, data=[52, 127]),
   midi.NoteOnEvent(tick=120, channel=1, data=[59, 0]),
   midi.NoteOnEvent(tick=0, channel=1, data=[52, 0]),
   midi.NoteOnEvent(tick=0, channel=1, data=[40, 127]),
   midi.NoteOnEvent(tick=40, channel=1, data=[40, 0]),
   midi.NoteOnEvent(tick=0, channel=1, data=[40, 127]),
   midi.NoteOnEvent(tick=40, channel=1, data=[40, 0]),
   midi.NoteOnEvent(tick=0, channel=1, data=[40, 127]),
   midi.NoteOnEvent(tick=40, channel=1, data=[40, 0]),
   midi.NoteOnEvent(tick=0, channel=1, data=[59, 127]),
   midi.NoteOnEvent(tick=0, channel=1, data=[52, 127]),
   midi.NoteOnEvent(tick=120, channel=1, data=[59, 0]),
   midi.NoteOnEvent(tick=0, channel=1, data=[52, 0]),
   midi.NoteOnEvent(tick=0, channel=1, data=[40, 127]),
   midi.NoteOnEvent(tick=40, channel=1, data=[40, 0]),
   midi.NoteOnEvent(tick=0, channel=1, data=[40, 127]),
   midi.NoteOnEvent(tick=40, channel=1, data=[40, 0]),
   midi.NoteOnEvent(tick=0, channel=1, data=[40, 127]),
   midi.NoteOnEvent(tick=40, channel=1, data=[40, 0]),
   midi.NoteOnEvent(tick=0, channel=1, data=[59, 127]),
   midi.NoteOnEvent(tick=0, channel=1, data=[52, 127]),
   midi.NoteOnEvent(tick=120, channel=1, data=[59, 0]),
   midi.NoteOnEvent(tick=0, channel=1, data=[52, 0]),
   midi.NoteOnEvent(tick=0, channel=1, data=[50, 127]),
   midi.NoteOnEvent(tick=0, channel=1, data=[57, 127]),
   midi.NoteOnEvent(tick=120, channel=1, data=[50, 0]),
   midi.NoteOnEvent(tick=0, channel=1, data=[57, 0]),
   midi.NoteOnEvent(tick=0, channel=1, data=[50, 127]),
   midi.NoteOnEvent(tick=0, channel=1, data=[57, 127]),
   midi.NoteOnEvent(tick=120, channel=1, data=[50, 0]),
   midi.NoteOnEvent(tick=0, channel=1, data=[57, 0]),
   midi.NoteOnEvent(tick=0, channel=1, data=[40, 127]),
   midi.NoteOnEvent(tick=40, channel=1, data=[40, 0]),
   midi.NoteOnEvent(tick=0, channel=1, data=[40, 127]),
   midi.NoteOnEvent(tick=40, channel=1, data=[40, 0]),
   midi.NoteOnEvent(tick=0, channel=1, data=[40, 127]),
   midi.NoteOnEvent(tick=40, channel=1, data=[40, 0]),
   midi.NoteOnEvent(tick=0, channel=1, data=[59, 127]),
   midi.NoteOnEvent(tick=0, channel=1, data=[52, 127]),
   midi.NoteOnEvent(tick=120, channel=1, data=[59, 0]),
   midi.NoteOnEvent(tick=0, channel=1, data=[52, 0]),
   midi.NoteOnEvent(tick=0, channel=1, data=[40, 127]),
   midi.NoteOnEvent(tick=40, channel=1, data=[40, 0]),
   midi.NoteOnEvent(tick=0, channel=1, data=[40, 127]),
   midi.NoteOnEvent(tick=40, channel=1, data=[40, 0]),
   midi.NoteOnEvent(tick=0, channel=1, data=[40, 127]),
   midi.NoteOnEvent(tick=40, channel=1, data=[40, 0]),
   midi.NoteOnEvent(tick=0, channel=1, data=[59, 127]),
   midi.NoteOnEvent(tick=0, channel=1, data=[52, 127]),
   midi.NoteOnEvent(tick=120, channel=1, data=[59, 0]),
   midi.NoteOnEvent(tick=0, channel=1, data=[52, 0]),
   midi.NoteOnEvent(tick=0, channel=1, data=[40, 127]),
   midi.NoteOnEvent(tick=40, channel=1, data=[40, 0]),
   midi.NoteOnEvent(tick=0, channel=1, data=[40, 127]),
   midi.NoteOnEvent(tick=40, channel=1, data=[40, 0]),
   midi.NoteOnEvent(tick=0, channel=1, data=[40, 127]),
   midi.NoteOnEvent(tick=40, channel=1, data=[40, 0]),
   midi.NoteOnEvent(tick=0, channel=1, data=[59, 127]),
   midi.NoteOnEvent(tick=0, channel=1, data=[52, 127]),
   midi.NoteOnEvent(tick=120, channel=1, data=[59, 0]),
   midi.NoteOnEvent(tick=0, channel=1, data=[52, 0]),
   midi.NoteOnEvent(tick=0, channel=1, data=[55, 127]),
   midi.NoteOnEvent(tick=0, channel=1, data=[48, 127]),
   midi.NoteOnEvent(tick=120, channel=1, data=[55, 0]),
   midi.NoteOnEvent(tick=0, channel=1, data=[48, 0]),
   midi.NoteOnEvent(tick=0, channel=1, data=[50, 127]),
   midi.NoteOnEvent(tick=0, channel=1, data=[57, 127]),
   midi.NoteOnEvent(tick=120, channel=1, data=[50, 0]),
   midi.NoteOnEvent(tick=0, channel=1, data=[57, 0]),
   midi.NoteOnEvent(tick=0, channel=1, data=[40, 127]),
   midi.NoteOnEvent(tick=40, channel=1, data=[40, 0]),
   midi.NoteOnEvent(tick=0, channel=1, data=[40, 127]),
   midi.NoteOnEvent(tick=40, channel=1, data=[40, 0]),
   midi.NoteOnEvent(tick=0, channel=1, data=[40, 127]),
   midi.NoteOnEvent(tick=40, channel=1, data=[40, 0]),
   midi.NoteOnEvent(tick=0, channel=1, data=[59, 127]),
   midi.NoteOnEvent(tick=0, channel=1, data=[52, 127]),
   midi.NoteOnEvent(tick=120, channel=1, data=[59, 0]),
   midi.NoteOnEvent(tick=0, channel=1, data=[52, 0]),
   midi.NoteOnEvent(tick=0, channel=1, data=[40, 127]),
   midi.NoteOnEvent(tick=40, channel=1, data=[40, 0]),
   midi.NoteOnEvent(tick=0, channel=1, data=[40, 127]),
   midi.NoteOnEvent(tick=40, channel=1, data=[40, 0]),
   midi.NoteOnEvent(tick=0, channel=1, data=[40, 127]),
   midi.NoteOnEvent(tick=40, channel=1, data=[40, 0]),
   midi.NoteOnEvent(tick=0, channel=1, data=[59, 127]),
   midi.NoteOnEvent(tick=0, channel=1, data=[52, 127]),
   midi.NoteOnEvent(tick=120, channel=1, data=[59, 0]),
   midi.NoteOnEvent(tick=0, channel=1, data=[52, 0]),
   midi.NoteOnEvent(tick=0, channel=1, data=[40, 127]),
   midi.NoteOnEvent(tick=40, channel=1, data=[40, 0]),
   midi.NoteOnEvent(tick=0, channel=1, data=[40, 127]),
   midi.NoteOnEvent(tick=40, channel=1, data=[40, 0]),
   midi.NoteOnEvent(tick=0, channel=1, data=[40, 127]),
   midi.NoteOnEvent(tick=40, channel=1, data=[40, 0]),
   midi.NoteOnEvent(tick=0, channel=1, data=[59, 127]),
   midi.NoteOnEvent(tick=0, channel=1, data=[52, 127]),
   midi.NoteOnEvent(tick=120, channel=1, data=[59, 0]),
   midi.NoteOnEvent(tick=0, channel=1, data=[52, 0]),
   midi.NoteOnEvent(tick=0, channel=1, data=[62, 127]),
   midi.NoteOnEvent(tick=0, channel=1, data=[55, 127]),
   midi.NoteOnEvent(tick=120, channel=1, data=[62, 0]),
   midi.NoteOnEvent(tick=0, channel=1, data=[55, 0]),
   midi.NoteOnEvent(tick=0, channel=1, data=[52, 127]),
   midi.NoteOnEvent(tick=0, channel=1, data=[59, 127]),
   midi.NoteOnEvent(tick=120, channel=1, data=[52, 0]),
   midi.NoteOnEvent(tick=0, channel=1, data=[59, 0]),
   midi.NoteOnEvent(tick=0, channel=1, data=[43, 127]),
   midi.NoteOnEvent(tick=0, channel=1, data=[48, 127]),
   midi.NoteOnEvent(tick=0, channel=1, data=[55, 127]),
   midi.NoteOnEvent(tick=120, channel=1, data=[43, 0]),
   midi.NoteOnEvent(tick=0, channel=1, data=[48, 0]),
   midi.NoteOnEvent(tick=0, channel=1, data=[55, 0]),
   midi.NoteOnEvent(tick=0, channel=1, data=[50, 127]),
   midi.NoteOnEvent(tick=0, channel=1, data=[43, 127]),
   midi.NoteOnEvent(tick=120, channel=1, data=[50, 0]),
   midi.NoteOnEvent(tick=0, channel=1, data=[43, 0]),
   midi.NoteOnEvent(tick=0, channel=1, data=[50, 127]),
   midi.NoteOnEvent(tick=0, channel=1, data=[57, 127]),
   midi.NoteOnEvent(tick=120, channel=1, data=[50, 0]),
   midi.NoteOnEvent(tick=0, channel=1, data=[57, 0]),
   midi.NoteOnEvent(tick=0, channel=1, data=[55, 127]),
   midi.NoteOnEvent(tick=0, channel=1, data=[48, 127]),
   midi.NoteOnEvent(tick=120, channel=1, data=[55, 0]),
   midi.NoteOnEvent(tick=0, channel=1, data=[48, 0]),
   midi.NoteOnEvent(tick=0, channel=1, data=[40, 127]),
   midi.NoteOnEvent(tick=40, channel=1, data=[40, 0]),
   midi.NoteOnEvent(tick=0, channel=1, data=[40, 127]),
   midi.NoteOnEvent(tick=40, channel=1, data=[40, 0]),
   midi.NoteOnEvent(tick=0, channel=1, data=[40, 127]),
   midi.NoteOnEvent(tick=40, channel=1, data=[40, 0]),
   midi.NoteOnEvent(tick=0, channel=1, data=[59, 127]),
   midi.NoteOnEvent(tick=0, channel=1, data=[52, 127]),
   midi.NoteOnEvent(tick=120, channel=1, data=[59, 0]),
   midi.NoteOnEvent(tick=0, channel=1, data=[52, 0]),
   midi.NoteOnEvent(tick=0, channel=1, data=[40, 127]),
   midi.NoteOnEvent(tick=40, channel=1, data=[40, 0]),
   midi.NoteOnEvent(tick=0, channel=1, data=[40, 127]),
   midi.NoteOnEvent(tick=40, channel=1, data=[40, 0]),
   midi.NoteOnEvent(tick=0, channel=1, data=[40, 127]),
   midi.NoteOnEvent(tick=40, channel=1, data=[40, 0]),
   midi.NoteOnEvent(tick=0, channel=1, data=[59, 127]),
   midi.NoteOnEvent(tick=0, channel=1, data=[52, 127]),
   midi.NoteOnEvent(tick=120, channel=1, data=[59, 0]),
   midi.NoteOnEvent(tick=0, channel=1, data=[52, 0]),
   midi.NoteOnEvent(tick=0, channel=1, data=[40, 127]),
   midi.NoteOnEvent(tick=40, channel=1, data=[40, 0]),
   midi.NoteOnEvent(tick=0, channel=1, data=[40, 127]),
   midi.NoteOnEvent(tick=40, channel=1, data=[40, 0]),
   midi.NoteOnEvent(tick=0, channel=1, data=[40, 127]),
   midi.NoteOnEvent(tick=40, channel=1, data=[40, 0]),
   midi.NoteOnEvent(tick=0, channel=1, data=[59, 127]),
   midi.NoteOnEvent(tick=0, channel=1, data=[52, 127]),
   midi.NoteOnEvent(tick=120, channel=1, data=[59, 0]),
   midi.NoteOnEvent(tick=0, channel=1, data=[52, 0]),
   midi.NoteOnEvent(tick=0, channel=1, data=[50, 127]),
   midi.NoteOnEvent(tick=0, channel=1, data=[57, 127]),
   midi.NoteOnEvent(tick=120, channel=1, data=[50, 0]),
   midi.NoteOnEvent(tick=0, channel=1, data=[57, 0]),
   midi.NoteOnEvent(tick=0, channel=1, data=[50, 127]),
   midi.NoteOnEvent(tick=0, channel=1, data=[57, 127]),
   midi.NoteOnEvent(tick=120, channel=1, data=[50, 0]),
   midi.NoteOnEvent(tick=0, channel=1, data=[57, 0]),
   midi.NoteOnEvent(tick=0, channel=1, data=[40, 127]),
   midi.NoteOnEvent(tick=40, channel=1, data=[40, 0]),
   midi.NoteOnEvent(tick=0, channel=1, data=[40, 127]),
   midi.NoteOnEvent(tick=40, channel=1, data=[40, 0]),
   midi.NoteOnEvent(tick=0, channel=1, data=[40, 127]),
   midi.NoteOnEvent(tick=40, channel=1, data=[40, 0]),
   midi.NoteOnEvent(tick=0, channel=1, data=[59, 127]),
   midi.NoteOnEvent(tick=0, channel=1, data=[52, 127]),
   midi.NoteOnEvent(tick=120, channel=1, data=[59, 0]),
   midi.NoteOnEvent(tick=0, channel=1, data=[52, 0]),
   midi.NoteOnEvent(tick=0, channel=1, data=[40, 127]),
   midi.NoteOnEvent(tick=40, channel=1, data=[40, 0]),
   midi.NoteOnEvent(tick=0, channel=1, data=[40, 127]),
   midi.NoteOnEvent(tick=40, channel=1, data=[40, 0]),
   midi.NoteOnEvent(tick=0, channel=1, data=[40, 127]),
   midi.NoteOnEvent(tick=40, channel=1, data=[40, 0]),
   midi.NoteOnEvent(tick=0, channel=1, data=[59, 127]),
   midi.NoteOnEvent(tick=0, channel=1, data=[52, 127]),
   midi.NoteOnEvent(tick=120, channel=1, data=[59, 0]),
   midi.NoteOnEvent(tick=0, channel=1, data=[52, 0]),
   midi.NoteOnEvent(tick=0, channel=1, data=[40, 127]),
   midi.NoteOnEvent(tick=40, channel=1, data=[40, 0]),
   midi.NoteOnEvent(tick=0, channel=1, data=[40, 127]),
   midi.NoteOnEvent(tick=40, channel=1, data=[40, 0]),
   midi.NoteOnEvent(tick=0, channel=1, data=[40, 127]),
   midi.NoteOnEvent(tick=40, channel=1, data=[40, 0]),
   midi.NoteOnEvent(tick=0, channel=1, data=[59, 127]),
   midi.NoteOnEvent(tick=0, channel=1, data=[52, 127]),
   midi.NoteOnEvent(tick=120, channel=1, data=[59, 0]),
   midi.NoteOnEvent(tick=0, channel=1, data=[52, 0]),
   midi.NoteOnEvent(tick=0, channel=1, data=[55, 127]),
   midi.NoteOnEvent(tick=0, channel=1, data=[48, 127]),
   midi.NoteOnEvent(tick=120, channel=1, data=[55, 0]),
   midi.NoteOnEvent(tick=0, channel=1, data=[48, 0]),
   midi.NoteOnEvent(tick=0, channel=1, data=[50, 127]),
   midi.NoteOnEvent(tick=0, channel=1, data=[57, 127]),
   midi.NoteOnEvent(tick=120, channel=1, data=[50, 0]),
   midi.NoteOnEvent(tick=0, channel=1, data=[57, 0]),
   midi.NoteOnEvent(tick=0, channel=1, data=[40, 127]),
   midi.NoteOnEvent(tick=40, channel=1, data=[40, 0]),
   midi.NoteOnEvent(tick=0, channel=1, data=[40, 127]),
   midi.NoteOnEvent(tick=40, channel=1, data=[40, 0]),
   midi.NoteOnEvent(tick=0, channel=1, data=[40, 127]),
   midi.NoteOnEvent(tick=40, channel=1, data=[40, 0]),
   midi.NoteOnEvent(tick=0, channel=1, data=[59, 127]),
   midi.NoteOnEvent(tick=0, channel=1, data=[52, 127]),
   midi.NoteOnEvent(tick=120, channel=1, data=[59, 0]),
   midi.NoteOnEvent(tick=0, channel=1, data=[52, 0]),
   midi.NoteOnEvent(tick=0, channel=1, data=[40, 127]),
   midi.NoteOnEvent(tick=40, channel=1, data=[40, 0]),
   midi.NoteOnEvent(tick=0, channel=1, data=[40, 127]),
   midi.NoteOnEvent(tick=40, channel=1, data=[40, 0]),
   midi.NoteOnEvent(tick=0, channel=1, data=[40, 127]),
   midi.NoteOnEvent(tick=40, channel=1, data=[40, 0]),
   midi.NoteOnEvent(tick=0, channel=1, data=[59, 127]),
   midi.NoteOnEvent(tick=0, channel=1, data=[52, 127]),
   midi.NoteOnEvent(tick=120, channel=1, data=[59, 0]),
   midi.NoteOnEvent(tick=0, channel=1, data=[52, 0]),
   midi.NoteOnEvent(tick=0, channel=1, data=[40, 127]),
   midi.NoteOnEvent(tick=40, channel=1, data=[40, 0]),
   midi.NoteOnEvent(tick=0, channel=1, data=[40, 127]),
   midi.NoteOnEvent(tick=40, channel=1, data=[40, 0]),
   midi.NoteOnEvent(tick=0, channel=1, data=[40, 127]),
   midi.NoteOnEvent(tick=40, channel=1, data=[40, 0]),
   midi.NoteOnEvent(tick=0, channel=1, data=[59, 127]),
   midi.NoteOnEvent(tick=0, channel=1, data=[52, 127]),
   midi.NoteOnEvent(tick=120, channel=1, data=[59, 0]),
   midi.NoteOnEvent(tick=0, channel=1, data=[52, 0]),
   midi.NoteOnEvent(tick=0, channel=1, data=[62, 127]),
   midi.NoteOnEvent(tick=0, channel=1, data=[55, 127]),
   midi.NoteOnEvent(tick=120, channel=1, data=[62, 0]),
   midi.NoteOnEvent(tick=0, channel=1, data=[55, 0]),
   midi.NoteOnEvent(tick=0, channel=1, data=[52, 127]),
   midi.NoteOnEvent(tick=0, channel=1, data=[59, 127]),
   midi.NoteOnEvent(tick=120, channel=1, data=[52, 0]),
   midi.NoteOnEvent(tick=0, channel=1, data=[59, 0]),
   midi.NoteOnEvent(tick=0, channel=1, data=[43, 127]),
   midi.NoteOnEvent(tick=0, channel=1, data=[48, 127]),
   midi.NoteOnEvent(tick=0, channel=1, data=[55, 127]),
   midi.NoteOnEvent(tick=120, channel=1, data=[43, 0]),
   midi.NoteOnEvent(tick=0, channel=1, data=[48, 0]),
   midi.NoteOnEvent(tick=0, channel=1, data=[55, 0]),
   midi.NoteOnEvent(tick=0, channel=1, data=[50, 127]),
   midi.NoteOnEvent(tick=0, channel=1, data=[43, 127]),
   midi.NoteOnEvent(tick=120, channel=1, data=[50, 0]),
   midi.NoteOnEvent(tick=0, channel=1, data=[43, 0]),
   midi.NoteOnEvent(tick=0, channel=1, data=[50, 127]),
   midi.NoteOnEvent(tick=0, channel=1, data=[57, 127]),
   midi.NoteOnEvent(tick=120, channel=1, data=[50, 0]),
   midi.NoteOnEvent(tick=0, channel=1, data=[57, 0]),
   midi.NoteOnEvent(tick=0, channel=1, data=[55, 127]),
   midi.NoteOnEvent(tick=0, channel=1, data=[48, 127]),
   midi.NoteOnEvent(tick=120, channel=1, data=[55, 0]),
   midi.NoteOnEvent(tick=0, channel=1, data=[48, 0]),
   midi.NoteOnEvent(tick=0, channel=1, data=[59, 127]),
   midi.NoteOnEvent(tick=0, channel=1, data=[52, 127]),
   midi.NoteOnEvent(tick=780, channel=1, data=[59, 0]),
   midi.NoteOnEvent(tick=0, channel=1, data=[52, 0]),
   midi.NoteOnEvent(tick=0, channel=1, data=[52, 127]),
   midi.NoteOnEvent(tick=0, channel=1, data=[59, 127]),
   midi.NoteOnEvent(tick=60, channel=1, data=[52, 0]),
   midi.NoteOnEvent(tick=0, channel=1, data=[59, 0]),
   midi.NoteOnEvent(tick=0, channel=1, data=[52, 127]),
   midi.NoteOnEvent(tick=0, channel=1, data=[59, 127]),
   midi.NoteOnEvent(tick=120, channel=1, data=[52, 0]),
   midi.NoteOnEvent(tick=0, channel=1, data=[59, 0]),
   midi.NoteOnEvent(tick=0, channel=1, data=[57, 127]),
   midi.NoteOnEvent(tick=0, channel=1, data=[50, 127]),
   midi.NoteOnEvent(tick=780, channel=1, data=[57, 0]),
   midi.NoteOnEvent(tick=0, channel=1, data=[50, 0]),
   midi.NoteOnEvent(tick=0, channel=1, data=[50, 127]),
   midi.NoteOnEvent(tick=0, channel=1, data=[57, 127]),
   midi.NoteOnEvent(tick=60, channel=1, data=[50, 0]),
   midi.NoteOnEvent(tick=0, channel=1, data=[57, 0]),
   midi.NoteOnEvent(tick=0, channel=1, data=[50, 127]),
   midi.NoteOnEvent(tick=0, channel=1, data=[57, 127]),
   midi.NoteOnEvent(tick=120, channel=1, data=[50, 0]),
   midi.NoteOnEvent(tick=0, channel=1, data=[57, 0]),
   midi.NoteOnEvent(tick=0, channel=1, data=[55, 127]),
   midi.NoteOnEvent(tick=0, channel=1, data=[48, 127]),
   midi.NoteOnEvent(tick=780, channel=1, data=[55, 0]),
   midi.NoteOnEvent(tick=0, channel=1, data=[48, 0]),
   midi.NoteOnEvent(tick=0, channel=1, data=[48, 127]),
   midi.NoteOnEvent(tick=0, channel=1, data=[55, 127]),
   midi.NoteOnEvent(tick=60, channel=1, data=[48, 0]),
   midi.NoteOnEvent(tick=0, channel=1, data=[55, 0]),
   midi.NoteOnEvent(tick=0, channel=1, data=[48, 127]),
   midi.NoteOnEvent(tick=0, channel=1, data=[55, 127]),
   midi.NoteOnEvent(tick=120, channel=1, data=[48, 0]),
   midi.NoteOnEvent(tick=0, channel=1, data=[55, 0]),
   midi.NoteOnEvent(tick=0, channel=1, data=[54, 127]),
   midi.NoteOnEvent(tick=0, channel=1, data=[47, 127]),
   midi.NoteOnEvent(tick=480, channel=1, data=[54, 0]),
   midi.NoteOnEvent(tick=0, channel=1, data=[47, 0]),
   midi.NoteOnEvent(tick=0, channel=1, data=[47, 127]),
   midi.NoteOnEvent(tick=0, channel=1, data=[54, 127]),
   midi.NoteOnEvent(tick=480, channel=1, data=[47, 0]),
   midi.NoteOnEvent(tick=0, channel=1, data=[54, 0]),
   midi.NoteOnEvent(tick=0, channel=1, data=[59, 127]),
   midi.NoteOnEvent(tick=0, channel=1, data=[52, 127]),
   midi.NoteOnEvent(tick=780, channel=1, data=[59, 0]),
   midi.NoteOnEvent(tick=0, channel=1, data=[52, 0]),
   midi.NoteOnEvent(tick=0, channel=1, data=[52, 127]),
   midi.NoteOnEvent(tick=0, channel=1, data=[59, 127]),
   midi.NoteOnEvent(tick=60, channel=1, data=[52, 0]),
   midi.NoteOnEvent(tick=0, channel=1, data=[59, 0]),
   midi.NoteOnEvent(tick=0, channel=1, data=[52, 127]),
   midi.NoteOnEvent(tick=0, channel=1, data=[59, 127]),
   midi.NoteOnEvent(tick=120, channel=1, data=[52, 0]),
   midi.NoteOnEvent(tick=0, channel=1, data=[59, 0]),
   midi.NoteOnEvent(tick=0, channel=1, data=[57, 127]),
   midi.NoteOnEvent(tick=0, channel=1, data=[50, 127]),
   midi.NoteOnEvent(tick=780, channel=1, data=[57, 0]),
   midi.NoteOnEvent(tick=0, channel=1, data=[50, 0]),
   midi.NoteOnEvent(tick=0, channel=1, data=[50, 127]),
   midi.NoteOnEvent(tick=0, channel=1, data=[57, 127]),
   midi.NoteOnEvent(tick=60, channel=1, data=[50, 0]),
   midi.NoteOnEvent(tick=0, channel=1, data=[57, 0]),
   midi.NoteOnEvent(tick=0, channel=1, data=[50, 127]),
   midi.NoteOnEvent(tick=0, channel=1, data=[57, 127]),
   midi.NoteOnEvent(tick=120, channel=1, data=[50, 0]),
   midi.NoteOnEvent(tick=0, channel=1, data=[57, 0]),
   midi.NoteOnEvent(tick=0, channel=1, data=[55, 127]),
   midi.NoteOnEvent(tick=0, channel=1, data=[48, 127]),
   midi.NoteOnEvent(tick=480, channel=1, data=[55, 0]),
   midi.NoteOnEvent(tick=0, channel=1, data=[48, 0]),
   midi.NoteOnEvent(tick=0, channel=1, data=[54, 127]),
   midi.NoteOnEvent(tick=0, channel=1, data=[47, 127]),
   midi.NoteOnEvent(tick=120, channel=1, data=[54, 0]),
   midi.NoteOnEvent(tick=0, channel=1, data=[47, 0]),
   midi.NoteOnEvent(tick=0, channel=1, data=[55, 127]),
   midi.NoteOnEvent(tick=0, channel=1, data=[48, 127]),
   midi.NoteOnEvent(tick=120, channel=1, data=[55, 0]),
   midi.NoteOnEvent(tick=0, channel=1, data=[48, 0]),
   midi.NoteOnEvent(tick=0, channel=1, data=[47, 127]),
   midi.NoteOnEvent(tick=0, channel=1, data=[54, 127]),
   midi.NoteOnEvent(tick=120, channel=1, data=[47, 0]),
   midi.NoteOnEvent(tick=0, channel=1, data=[54, 0]),
   midi.NoteOnEvent(tick=0, channel=1, data=[50, 127]),
   midi.NoteOnEvent(tick=0, channel=1, data=[43, 127]),
   midi.NoteOnEvent(tick=120, channel=1, data=[50, 0]),
   midi.NoteOnEvent(tick=0, channel=1, data=[43, 0]),
   midi.NoteOnEvent(tick=0, channel=1, data=[40, 127]),
   midi.NoteOnEvent(tick=0, channel=1, data=[52, 127]),
   midi.NoteOnEvent(tick=60, channel=1, data=[40, 0]),
   midi.NoteOnEvent(tick=0, channel=1, data=[52, 0]),
   midi.NoteOnEvent(tick=0, channel=1, data=[50, 127]),
   midi.NoteOnEvent(tick=60, channel=1, data=[50, 0]),
   midi.NoteOnEvent(tick=0, channel=1, data=[40, 127]),
   midi.NoteOnEvent(tick=0, channel=1, data=[52, 127]),
   midi.NoteOnEvent(tick=60, channel=1, data=[40, 0]),
   midi.NoteOnEvent(tick=0, channel=1, data=[52, 0]),
   midi.NoteOnEvent(tick=0, channel=1, data=[50, 127]),
   midi.NoteOnEvent(tick=60, channel=1, data=[50, 0]),
   midi.NoteOnEvent(tick=0, channel=1, data=[40, 127]),
   midi.NoteOnEvent(tick=0, channel=1, data=[52, 127]),
   midi.NoteOnEvent(tick=60, channel=1, data=[40, 0]),
   midi.NoteOnEvent(tick=0, channel=1, data=[52, 0]),
   midi.NoteOnEvent(tick=0, channel=1, data=[50, 127]),
   midi.NoteOnEvent(tick=60, channel=1, data=[50, 0]),
   midi.NoteOnEvent(tick=0, channel=1, data=[40, 127]),
   midi.NoteOnEvent(tick=0, channel=1, data=[52, 127]),
   midi.NoteOnEvent(tick=60, channel=1, data=[40, 0]),
   midi.NoteOnEvent(tick=0, channel=1, data=[52, 0]),
   midi.NoteOnEvent(tick=0, channel=1, data=[50, 127]),
   midi.NoteOnEvent(tick=60, channel=1, data=[50, 0]),
   midi.NoteOnEvent(tick=0, channel=1, data=[40, 127]),
   midi.NoteOnEvent(tick=0, channel=1, data=[52, 127]),
   midi.NoteOnEvent(tick=60, channel=1, data=[40, 0]),
   midi.NoteOnEvent(tick=0, channel=1, data=[52, 0]),
   midi.NoteOnEvent(tick=0, channel=1, data=[50, 127]),
   midi.NoteOnEvent(tick=60, channel=1, data=[50, 0]),
   midi.NoteOnEvent(tick=0, channel=1, data=[40, 127]),
   midi.NoteOnEvent(tick=0, channel=1, data=[52, 127]),
   midi.NoteOnEvent(tick=60, channel=1, data=[40, 0]),
   midi.NoteOnEvent(tick=0, channel=1, data=[52, 0]),
   midi.NoteOnEvent(tick=0, channel=1, data=[50, 127]),
   midi.NoteOnEvent(tick=60, channel=1, data=[50, 0]),
   midi.NoteOnEvent(tick=0, channel=1, data=[40, 127]),
   midi.NoteOnEvent(tick=0, channel=1, data=[52, 127]),
   midi.NoteOnEvent(tick=60, channel=1, data=[40, 0]),
   midi.NoteOnEvent(tick=0, channel=1, data=[52, 0]),
   midi.NoteOnEvent(tick=0, channel=1, data=[50, 127]),
   midi.NoteOnEvent(tick=60, channel=1, data=[50, 0]),
   midi.NoteOnEvent(tick=0, channel=1, data=[47, 127]),
   midi.NoteOnEvent(tick=0, channel=1, data=[50, 127]),
   midi.NoteOnEvent(tick=60, channel=1, data=[47, 0]),
   midi.NoteOnEvent(tick=0, channel=1, data=[50, 0]),
   midi.NoteOnEvent(tick=0, channel=1, data=[50, 127]),
   midi.NoteOnEvent(tick=60, channel=1, data=[50, 0]),
   midi.NoteOnEvent(tick=0, channel=1, data=[40, 127]),
   midi.NoteOnEvent(tick=0, channel=1, data=[52, 127]),
   midi.NoteOnEvent(tick=60, channel=1, data=[40, 0]),
   midi.NoteOnEvent(tick=0, channel=1, data=[52, 0]),
   midi.NoteOnEvent(tick=0, channel=1, data=[50, 127]),
   midi.NoteOnEvent(tick=60, channel=1, data=[50, 0]),
   midi.NoteOnEvent(tick=0, channel=1, data=[40, 127]),
   midi.NoteOnEvent(tick=0, channel=1, data=[52, 127]),
   midi.NoteOnEvent(tick=60, channel=1, data=[40, 0]),
   midi.NoteOnEvent(tick=0, channel=1, data=[52, 0]),
   midi.NoteOnEvent(tick=0, channel=1, data=[50, 127]),
   midi.NoteOnEvent(tick=60, channel=1, data=[50, 0]),
   midi.NoteOnEvent(tick=0, channel=1, data=[40, 127]),
   midi.NoteOnEvent(tick=0, channel=1, data=[52, 127]),
   midi.NoteOnEvent(tick=60, channel=1, data=[40, 0]),
   midi.NoteOnEvent(tick=0, channel=1, data=[52, 0]),
   midi.NoteOnEvent(tick=0, channel=1, data=[50, 127]),
   midi.NoteOnEvent(tick=60, channel=1, data=[50, 0]),
   midi.NoteOnEvent(tick=0, channel=1, data=[40, 127]),
   midi.NoteOnEvent(tick=0, channel=1, data=[52, 127]),
   midi.NoteOnEvent(tick=60, channel=1, data=[40, 0]),
   midi.NoteOnEvent(tick=0, channel=1, data=[52, 0]),
   midi.NoteOnEvent(tick=0, channel=1, data=[50, 127]),
   midi.NoteOnEvent(tick=60, channel=1, data=[50, 0]),
   midi.NoteOnEvent(tick=0, channel=1, data=[47, 127]),
   midi.NoteOnEvent(tick=60, channel=1, data=[47, 0]),
   midi.NoteOnEvent(tick=0, channel=1, data=[50, 127]),
   midi.NoteOnEvent(tick=60, channel=1, data=[50, 0]),
   midi.NoteOnEvent(tick=0, channel=1, data=[52, 127]),
   midi.NoteOnEvent(tick=60, channel=1, data=[52, 0]),
   midi.NoteOnEvent(tick=0, channel=1, data=[50, 127]),
   midi.NoteOnEvent(tick=60, channel=1, data=[50, 0]),
   midi.NoteOnEvent(tick=0, channel=1, data=[57, 127]),
   midi.NoteOnEvent(tick=60, channel=1, data=[57, 0]),
   midi.NoteOnEvent(tick=0, channel=1, data=[55, 127]),
   midi.NoteOnEvent(tick=60, channel=1, data=[55, 0]),
   midi.NoteOnEvent(tick=0, channel=1, data=[52, 127]),
   midi.NoteOnEvent(tick=60, channel=1, data=[52, 0]),
   midi.NoteOnEvent(tick=0, channel=1, data=[50, 127]),
   midi.NoteOnEvent(tick=60, channel=1, data=[50, 0]),
   midi.NoteOnEvent(tick=0, channel=1, data=[40, 127]),
   midi.NoteOnEvent(tick=0, channel=1, data=[52, 127]),
   midi.NoteOnEvent(tick=60, channel=1, data=[40, 0]),
   midi.NoteOnEvent(tick=0, channel=1, data=[52, 0]),
   midi.NoteOnEvent(tick=0, channel=1, data=[50, 127]),
   midi.NoteOnEvent(tick=60, channel=1, data=[50, 0]),
   midi.NoteOnEvent(tick=0, channel=1, data=[40, 127]),
   midi.NoteOnEvent(tick=0, channel=1, data=[52, 127]),
   midi.NoteOnEvent(tick=60, channel=1, data=[40, 0]),
   midi.NoteOnEvent(tick=0, channel=1, data=[52, 0]),
   midi.NoteOnEvent(tick=0, channel=1, data=[50, 127]),
   midi.NoteOnEvent(tick=60, channel=1, data=[50, 0]),
   midi.NoteOnEvent(tick=0, channel=1, data=[40, 127]),
   midi.NoteOnEvent(tick=0, channel=1, data=[52, 127]),
   midi.NoteOnEvent(tick=60, channel=1, data=[40, 0]),
   midi.NoteOnEvent(tick=0, channel=1, data=[52, 0]),
   midi.NoteOnEvent(tick=0, channel=1, data=[50, 127]),
   midi.NoteOnEvent(tick=60, channel=1, data=[50, 0]),
   midi.NoteOnEvent(tick=0, channel=1, data=[47, 127]),
   midi.NoteOnEvent(tick=0, channel=1, data=[50, 127]),
   midi.NoteOnEvent(tick=60, channel=1, data=[47, 0]),
   midi.NoteOnEvent(tick=0, channel=1, data=[50, 0]),
   midi.NoteOnEvent(tick=0, channel=1, data=[50, 127]),
   midi.NoteOnEvent(tick=60, channel=1, data=[50, 0]),
   midi.NoteOnEvent(tick=0, channel=1, data=[40, 127]),
   midi.NoteOnEvent(tick=0, channel=1, data=[52, 127]),
   midi.NoteOnEvent(tick=60, channel=1, data=[40, 0]),
   midi.NoteOnEvent(tick=0, channel=1, data=[52, 0]),
   midi.NoteOnEvent(tick=0, channel=1, data=[50, 127]),
   midi.NoteOnEvent(tick=60, channel=1, data=[50, 0]),
   midi.NoteOnEvent(tick=0, channel=1, data=[40, 127]),
   midi.NoteOnEvent(tick=0, channel=1, data=[52, 127]),
   midi.NoteOnEvent(tick=60, channel=1, data=[40, 0]),
   midi.NoteOnEvent(tick=0, channel=1, data=[52, 0]),
   midi.NoteOnEvent(tick=0, channel=1, data=[50, 127]),
   midi.NoteOnEvent(tick=60, channel=1, data=[50, 0]),
   midi.NoteOnEvent(tick=0, channel=1, data=[40, 127]),
   midi.NoteOnEvent(tick=0, channel=1, data=[52, 127]),
   midi.NoteOnEvent(tick=60, channel=1, data=[40, 0]),
   midi.NoteOnEvent(tick=0, channel=1, data=[52, 0]),
   midi.NoteOnEvent(tick=0, channel=1, data=[50, 127]),
   midi.NoteOnEvent(tick=60, channel=1, data=[50, 0]),
   midi.NoteOnEvent(tick=0, channel=1, data=[47, 127]),
   midi.NoteOnEvent(tick=0, channel=1, data=[50, 127]),
   midi.NoteOnEvent(tick=60, channel=1, data=[47, 0]),
   midi.NoteOnEvent(tick=0, channel=1, data=[50, 0]),
   midi.NoteOnEvent(tick=0, channel=1, data=[50, 127]),
   midi.NoteOnEvent(tick=60, channel=1, data=[50, 0]),
   midi.NoteOnEvent(tick=0, channel=1, data=[48, 127]),
   midi.NoteOnEvent(tick=0, channel=1, data=[55, 127]),
   midi.NoteOnEvent(tick=120, channel=1, data=[48, 0]),
   midi.NoteOnEvent(tick=0, channel=1, data=[55, 0]),
   midi.NoteOnEvent(tick=0, channel=1, data=[43, 127]),
   midi.NoteOnEvent(tick=0, channel=1, data=[50, 127]),
   midi.NoteOnEvent(tick=120, channel=1, data=[43, 0]),
   midi.NoteOnEvent(tick=0, channel=1, data=[50, 0]),
   midi.NoteOnEvent(tick=0, channel=1, data=[57, 127]),
   midi.NoteOnEvent(tick=0, channel=1, data=[50, 127]),
   midi.NoteOnEvent(tick=120, channel=1, data=[57, 0]),
   midi.NoteOnEvent(tick=0, channel=1, data=[50, 0]),
   midi.NoteOnEvent(tick=0, channel=1, data=[48, 127]),
   midi.NoteOnEvent(tick=0, channel=1, data=[55, 127]),
   midi.NoteOnEvent(tick=120, channel=1, data=[48, 0]),
   midi.NoteOnEvent(tick=0, channel=1, data=[55, 0]),
   midi.NoteOnEvent(tick=0, channel=1, data=[40, 127]),
   midi.NoteOnEvent(tick=0, channel=1, data=[52, 127]),
   midi.NoteOnEvent(tick=60, channel=1, data=[40, 0]),
   midi.NoteOnEvent(tick=0, channel=1, data=[52, 0]),
   midi.NoteOnEvent(tick=0, channel=1, data=[50, 127]),
   midi.NoteOnEvent(tick=60, channel=1, data=[50, 0]),
   midi.NoteOnEvent(tick=0, channel=1, data=[40, 127]),
   midi.NoteOnEvent(tick=0, channel=1, data=[52, 127]),
   midi.NoteOnEvent(tick=60, channel=1, data=[40, 0]),
   midi.NoteOnEvent(tick=0, channel=1, data=[52, 0]),
   midi.NoteOnEvent(tick=0, channel=1, data=[50, 127]),
   midi.NoteOnEvent(tick=60, channel=1, data=[50, 0]),
   midi.NoteOnEvent(tick=0, channel=1, data=[40, 127]),
   midi.NoteOnEvent(tick=0, channel=1, data=[52, 127]),
   midi.NoteOnEvent(tick=60, channel=1, data=[40, 0]),
   midi.NoteOnEvent(tick=0, channel=1, data=[52, 0]),
   midi.NoteOnEvent(tick=0, channel=1, data=[50, 127]),
   midi.NoteOnEvent(tick=60, channel=1, data=[50, 0]),
   midi.NoteOnEvent(tick=0, channel=1, data=[40, 127]),
   midi.NoteOnEvent(tick=0, channel=1, data=[52, 127]),
   midi.NoteOnEvent(tick=60, channel=1, data=[40, 0]),
   midi.NoteOnEvent(tick=0, channel=1, data=[52, 0]),
   midi.NoteOnEvent(tick=0, channel=1, data=[50, 127]),
   midi.NoteOnEvent(tick=60, channel=1, data=[50, 0]),
   midi.NoteOnEvent(tick=0, channel=1, data=[40, 127]),
   midi.NoteOnEvent(tick=0, channel=1, data=[52, 127]),
   midi.NoteOnEvent(tick=60, channel=1, data=[40, 0]),
   midi.NoteOnEvent(tick=0, channel=1, data=[52, 0]),
   midi.NoteOnEvent(tick=0, channel=1, data=[50, 127]),
   midi.NoteOnEvent(tick=60, channel=1, data=[50, 0]),
   midi.NoteOnEvent(tick=0, channel=1, data=[40, 127]),
   midi.NoteOnEvent(tick=0, channel=1, data=[52, 127]),
   midi.NoteOnEvent(tick=60, channel=1, data=[40, 0]),
   midi.NoteOnEvent(tick=0, channel=1, data=[52, 0]),
   midi.NoteOnEvent(tick=0, channel=1, data=[50, 127]),
   midi.NoteOnEvent(tick=60, channel=1, data=[50, 0]),
   midi.NoteOnEvent(tick=0, channel=1, data=[40, 127]),
   midi.NoteOnEvent(tick=0, channel=1, data=[52, 127]),
   midi.NoteOnEvent(tick=60, channel=1, data=[40, 0]),
   midi.NoteOnEvent(tick=0, channel=1, data=[52, 0]),
   midi.NoteOnEvent(tick=0, channel=1, data=[50, 127]),
   midi.NoteOnEvent(tick=60, channel=1, data=[50, 0]),
   midi.NoteOnEvent(tick=0, channel=1, data=[47, 127]),
   midi.NoteOnEvent(tick=0, channel=1, data=[50, 127]),
   midi.NoteOnEvent(tick=60, channel=1, data=[47, 0]),
   midi.NoteOnEvent(tick=0, channel=1, data=[50, 0]),
   midi.NoteOnEvent(tick=0, channel=1, data=[50, 127]),
   midi.NoteOnEvent(tick=60, channel=1, data=[50, 0]),
   midi.NoteOnEvent(tick=0, channel=1, data=[40, 127]),
   midi.NoteOnEvent(tick=0, channel=1, data=[52, 127]),
   midi.NoteOnEvent(tick=60, channel=1, data=[40, 0]),
   midi.NoteOnEvent(tick=0, channel=1, data=[52, 0]),
   midi.NoteOnEvent(tick=0, channel=1, data=[50, 127]),
   midi.NoteOnEvent(tick=60, channel=1, data=[50, 0]),
   midi.NoteOnEvent(tick=0, channel=1, data=[40, 127]),
   midi.NoteOnEvent(tick=0, channel=1, data=[52, 127]),
   midi.NoteOnEvent(tick=60, channel=1, data=[40, 0]),
   midi.NoteOnEvent(tick=0, channel=1, data=[52, 0]),
   midi.NoteOnEvent(tick=0, channel=1, data=[50, 127]),
   midi.NoteOnEvent(tick=60, channel=1, data=[50, 0]),
   midi.NoteOnEvent(tick=0, channel=1, data=[40, 127]),
   midi.NoteOnEvent(tick=0, channel=1, data=[52, 127]),
   midi.NoteOnEvent(tick=60, channel=1, data=[40, 0]),
   midi.NoteOnEvent(tick=0, channel=1, data=[52, 0]),
   midi.NoteOnEvent(tick=0, channel=1, data=[50, 127]),
   midi.NoteOnEvent(tick=60, channel=1, data=[50, 0]),
   midi.NoteOnEvent(tick=0, channel=1, data=[40, 127]),
   midi.NoteOnEvent(tick=0, channel=1, data=[52, 127]),
   midi.NoteOnEvent(tick=60, channel=1, data=[40, 0]),
   midi.NoteOnEvent(tick=0, channel=1, data=[52, 0]),
   midi.NoteOnEvent(tick=0, channel=1, data=[50, 127]),
   midi.NoteOnEvent(tick=60, channel=1, data=[50, 0]),
   midi.NoteOnEvent(tick=0, channel=1, data=[47, 127]),
   midi.NoteOnEvent(tick=60, channel=1, data=[47, 0]),
   midi.NoteOnEvent(tick=0, channel=1, data=[50, 127]),
   midi.NoteOnEvent(tick=60, channel=1, data=[50, 0]),
   midi.NoteOnEvent(tick=0, channel=1, data=[52, 127]),
   midi.NoteOnEvent(tick=60, channel=1, data=[52, 0]),
   midi.NoteOnEvent(tick=0, channel=1, data=[50, 127]),
   midi.NoteOnEvent(tick=60, channel=1, data=[50, 0]),
   midi.NoteOnEvent(tick=0, channel=1, data=[57, 127]),
   midi.NoteOnEvent(tick=60, channel=1, data=[57, 0]),
   midi.NoteOnEvent(tick=0, channel=1, data=[55, 127]),
   midi.NoteOnEvent(tick=60, channel=1, data=[55, 0]),
   midi.NoteOnEvent(tick=0, channel=1, data=[52, 127]),
   midi.NoteOnEvent(tick=60, channel=1, data=[52, 0]),
   midi.NoteOnEvent(tick=0, channel=1, data=[50, 127]),
   midi.NoteOnEvent(tick=60, channel=1, data=[50, 0]),
   midi.NoteOnEvent(tick=0, channel=1, data=[40, 127]),
   midi.NoteOnEvent(tick=0, channel=1, data=[52, 127]),
   midi.NoteOnEvent(tick=60, channel=1, data=[40, 0]),
   midi.NoteOnEvent(tick=0, channel=1, data=[52, 0]),
   midi.NoteOnEvent(tick=0, channel=1, data=[50, 127]),
   midi.NoteOnEvent(tick=60, channel=1, data=[50, 0]),
   midi.NoteOnEvent(tick=0, channel=1, data=[40, 127]),
   midi.NoteOnEvent(tick=0, channel=1, data=[52, 127]),
   midi.NoteOnEvent(tick=60, channel=1, data=[40, 0]),
   midi.NoteOnEvent(tick=0, channel=1, data=[52, 0]),
   midi.NoteOnEvent(tick=0, channel=1, data=[50, 127]),
   midi.NoteOnEvent(tick=60, channel=1, data=[50, 0]),
   midi.NoteOnEvent(tick=0, channel=1, data=[40, 127]),
   midi.NoteOnEvent(tick=0, channel=1, data=[52, 127]),
   midi.NoteOnEvent(tick=60, channel=1, data=[40, 0]),
   midi.NoteOnEvent(tick=0, channel=1, data=[52, 0]),
   midi.NoteOnEvent(tick=0, channel=1, data=[50, 127]),
   midi.NoteOnEvent(tick=60, channel=1, data=[50, 0]),
   midi.NoteOnEvent(tick=0, channel=1, data=[47, 127]),
   midi.NoteOnEvent(tick=0, channel=1, data=[50, 127]),
   midi.NoteOnEvent(tick=60, channel=1, data=[47, 0]),
   midi.NoteOnEvent(tick=0, channel=1, data=[50, 0]),
   midi.NoteOnEvent(tick=0, channel=1, data=[50, 127]),
   midi.NoteOnEvent(tick=60, channel=1, data=[50, 0]),
   midi.NoteOnEvent(tick=0, channel=1, data=[40, 127]),
   midi.NoteOnEvent(tick=0, channel=1, data=[52, 127]),
   midi.NoteOnEvent(tick=60, channel=1, data=[40, 0]),
   midi.NoteOnEvent(tick=0, channel=1, data=[52, 0]),
   midi.NoteOnEvent(tick=0, channel=1, data=[50, 127]),
   midi.NoteOnEvent(tick=60, channel=1, data=[50, 0]),
   midi.NoteOnEvent(tick=0, channel=1, data=[40, 127]),
   midi.NoteOnEvent(tick=0, channel=1, data=[52, 127]),
   midi.NoteOnEvent(tick=60, channel=1, data=[40, 0]),
   midi.NoteOnEvent(tick=0, channel=1, data=[52, 0]),
   midi.NoteOnEvent(tick=0, channel=1, data=[50, 127]),
   midi.NoteOnEvent(tick=60, channel=1, data=[50, 0]),
   midi.NoteOnEvent(tick=0, channel=1, data=[40, 127]),
   midi.NoteOnEvent(tick=0, channel=1, data=[52, 127]),
   midi.NoteOnEvent(tick=60, channel=1, data=[40, 0]),
   midi.NoteOnEvent(tick=0, channel=1, data=[52, 0]),
   midi.NoteOnEvent(tick=0, channel=1, data=[50, 127]),
   midi.NoteOnEvent(tick=60, channel=1, data=[50, 0]),
   midi.NoteOnEvent(tick=0, channel=1, data=[47, 127]),
   midi.NoteOnEvent(tick=0, channel=1, data=[50, 127]),
   midi.NoteOnEvent(tick=60, channel=1, data=[47, 0]),
   midi.NoteOnEvent(tick=0, channel=1, data=[50, 0]),
   midi.NoteOnEvent(tick=0, channel=1, data=[50, 127]),
   midi.NoteOnEvent(tick=60, channel=1, data=[50, 0]),
   midi.NoteOnEvent(tick=0, channel=1, data=[48, 127]),
   midi.NoteOnEvent(tick=0, channel=1, data=[55, 127]),
   midi.NoteOnEvent(tick=120, channel=1, data=[48, 0]),
   midi.NoteOnEvent(tick=0, channel=1, data=[55, 0]),
   midi.NoteOnEvent(tick=0, channel=1, data=[43, 127]),
   midi.NoteOnEvent(tick=0, channel=1, data=[50, 127]),
   midi.NoteOnEvent(tick=120, channel=1, data=[43, 0]),
   midi.NoteOnEvent(tick=0, channel=1, data=[50, 0]),
   midi.NoteOnEvent(tick=0, channel=1, data=[57, 127]),
   midi.NoteOnEvent(tick=0, channel=1, data=[50, 127]),
   midi.NoteOnEvent(tick=120, channel=1, data=[57, 0]),
   midi.NoteOnEvent(tick=0, channel=1, data=[50, 0]),
   midi.NoteOnEvent(tick=0, channel=1, data=[48, 127]),
   midi.NoteOnEvent(tick=0, channel=1, data=[55, 127]),
   midi.NoteOnEvent(tick=120, channel=1, data=[48, 0]),
   midi.NoteOnEvent(tick=0, channel=1, data=[55, 0]),
   midi.PitchWheelEvent(tick=0, channel=1, data=[0, 64]),
   midi.NoteOnEvent(tick=0, channel=1, data=[40, 127]),
   midi.PitchWheelEvent(tick=1, channel=1, data=[110, 63]),
   midi.PitchWheelEvent(tick=1, channel=1, data=[93, 63]),
   midi.PitchWheelEvent(tick=1, channel=1, data=[76, 63]),
   midi.PitchWheelEvent(tick=1, channel=1, data=[59, 63]),
   midi.PitchWheelEvent(tick=1, channel=1, data=[42, 63]),
   midi.PitchWheelEvent(tick=1, channel=1, data=[25, 63]),
   midi.PitchWheelEvent(tick=1, channel=1, data=[8, 63]),
   midi.PitchWheelEvent(tick=1, channel=1, data=[119, 62]),
   midi.PitchWheelEvent(tick=1, channel=1, data=[102, 62]),
   midi.PitchWheelEvent(tick=1, channel=1, data=[84, 62]),
   midi.PitchWheelEvent(tick=1, channel=1, data=[67, 62]),
   midi.PitchWheelEvent(tick=1, channel=1, data=[50, 62]),
   midi.PitchWheelEvent(tick=1, channel=1, data=[33, 62]),
   midi.PitchWheelEvent(tick=1, channel=1, data=[16, 62]),
   midi.PitchWheelEvent(tick=1, channel=1, data=[127, 61]),
   midi.PitchWheelEvent(tick=1, channel=1, data=[110, 61]),
   midi.PitchWheelEvent(tick=1, channel=1, data=[93, 61]),
   midi.PitchWheelEvent(tick=1, channel=1, data=[76, 61]),
   midi.PitchWheelEvent(tick=1, channel=1, data=[59, 61]),
   midi.PitchWheelEvent(tick=1, channel=1, data=[41, 61]),
   midi.PitchWheelEvent(tick=1, channel=1, data=[24, 61]),
   midi.PitchWheelEvent(tick=1, channel=1, data=[7, 61]),
   midi.PitchWheelEvent(tick=1, channel=1, data=[118, 60]),
   midi.PitchWheelEvent(tick=1, channel=1, data=[101, 60]),
   midi.PitchWheelEvent(tick=1, channel=1, data=[84, 60]),
   midi.PitchWheelEvent(tick=1, channel=1, data=[67, 60]),
   midi.PitchWheelEvent(tick=1, channel=1, data=[50, 60]),
   midi.PitchWheelEvent(tick=1, channel=1, data=[33, 60]),
   midi.PitchWheelEvent(tick=1, channel=1, data=[16, 60]),
   midi.PitchWheelEvent(tick=1, channel=1, data=[126, 59]),
   midi.PitchWheelEvent(tick=1, channel=1, data=[109, 59]),
   midi.PitchWheelEvent(tick=1, channel=1, data=[92, 59]),
   midi.PitchWheelEvent(tick=1, channel=1, data=[75, 59]),
   midi.PitchWheelEvent(tick=1, channel=1, data=[58, 59]),
   midi.PitchWheelEvent(tick=1, channel=1, data=[41, 59]),
   midi.PitchWheelEvent(tick=1, channel=1, data=[24, 59]),
   midi.PitchWheelEvent(tick=1, channel=1, data=[7, 59]),
   midi.PitchWheelEvent(tick=1, channel=1, data=[118, 58]),
   midi.PitchWheelEvent(tick=1, channel=1, data=[101, 58]),
   midi.PitchWheelEvent(tick=1, channel=1, data=[83, 58]),
   midi.PitchWheelEvent(tick=1, channel=1, data=[66, 58]),
   midi.PitchWheelEvent(tick=1, channel=1, data=[49, 58]),
   midi.PitchWheelEvent(tick=1, channel=1, data=[32, 58]),
   midi.PitchWheelEvent(tick=1, channel=1, data=[15, 58]),
   midi.PitchWheelEvent(tick=1, channel=1, data=[126, 57]),
   midi.PitchWheelEvent(tick=1, channel=1, data=[109, 57]),
   midi.PitchWheelEvent(tick=1, channel=1, data=[92, 57]),
   midi.PitchWheelEvent(tick=1, channel=1, data=[75, 57]),
   midi.PitchWheelEvent(tick=1, channel=1, data=[57, 57]),
   midi.PitchWheelEvent(tick=1, channel=1, data=[40, 57]),
   midi.PitchWheelEvent(tick=1, channel=1, data=[23, 57]),
   midi.PitchWheelEvent(tick=1, channel=1, data=[6, 57]),
   midi.PitchWheelEvent(tick=1, channel=1, data=[117, 56]),
   midi.PitchWheelEvent(tick=1, channel=1, data=[100, 56]),
   midi.PitchWheelEvent(tick=1, channel=1, data=[83, 56]),
   midi.PitchWheelEvent(tick=1, channel=1, data=[66, 56]),
   midi.PitchWheelEvent(tick=1, channel=1, data=[49, 56]),
   midi.PitchWheelEvent(tick=1, channel=1, data=[32, 56]),
   midi.PitchWheelEvent(tick=1, channel=1, data=[14, 56]),
   midi.PitchWheelEvent(tick=1, channel=1, data=[125, 55]),
   midi.PitchWheelEvent(tick=1, channel=1, data=[108, 55]),
   midi.PitchWheelEvent(tick=1, channel=1, data=[91, 55]),
   midi.PitchWheelEvent(tick=1, channel=1, data=[74, 55]),
   midi.PitchWheelEvent(tick=1, channel=1, data=[57, 55]),
   midi.PitchWheelEvent(tick=1, channel=1, data=[40, 55]),
   midi.PitchWheelEvent(tick=1, channel=1, data=[23, 55]),
   midi.PitchWheelEvent(tick=1, channel=1, data=[6, 55]),
   midi.PitchWheelEvent(tick=1, channel=1, data=[117, 54]),
   midi.PitchWheelEvent(tick=1, channel=1, data=[99, 54]),
   midi.PitchWheelEvent(tick=1, channel=1, data=[82, 54]),
   midi.PitchWheelEvent(tick=1, channel=1, data=[65, 54]),
   midi.PitchWheelEvent(tick=1, channel=1, data=[48, 54]),
   midi.PitchWheelEvent(tick=1, channel=1, data=[31, 54]),
   midi.PitchWheelEvent(tick=1, channel=1, data=[14, 54]),
   midi.PitchWheelEvent(tick=1, channel=1, data=[125, 53]),
   midi.PitchWheelEvent(tick=1, channel=1, data=[108, 53]),
   midi.PitchWheelEvent(tick=1, channel=1, data=[91, 53]),
   midi.PitchWheelEvent(tick=1, channel=1, data=[74, 53]),
   midi.PitchWheelEvent(tick=1, channel=1, data=[56, 53]),
   midi.PitchWheelEvent(tick=1, channel=1, data=[39, 53]),
   midi.PitchWheelEvent(tick=1, channel=1, data=[22, 53]),
   midi.PitchWheelEvent(tick=1, channel=1, data=[5, 53]),
   midi.PitchWheelEvent(tick=1, channel=1, data=[116, 52]),
   midi.PitchWheelEvent(tick=1, channel=1, data=[99, 52]),
   midi.PitchWheelEvent(tick=1, channel=1, data=[82, 52]),
   midi.PitchWheelEvent(tick=1, channel=1, data=[65, 52]),
   midi.PitchWheelEvent(tick=1, channel=1, data=[48, 52]),
   midi.PitchWheelEvent(tick=1, channel=1, data=[30, 52]),
   midi.PitchWheelEvent(tick=1, channel=1, data=[13, 52]),
   midi.PitchWheelEvent(tick=1, channel=1, data=[124, 51]),
   midi.PitchWheelEvent(tick=1, channel=1, data=[107, 51]),
   midi.PitchWheelEvent(tick=1, channel=1, data=[90, 51]),
   midi.PitchWheelEvent(tick=1, channel=1, data=[73, 51]),
   midi.PitchWheelEvent(tick=1, channel=1, data=[56, 51]),
   midi.PitchWheelEvent(tick=1, channel=1, data=[39, 51]),
   midi.PitchWheelEvent(tick=1, channel=1, data=[22, 51]),
   midi.PitchWheelEvent(tick=1, channel=1, data=[5, 51]),
   midi.PitchWheelEvent(tick=1, channel=1, data=[115, 50]),
   midi.PitchWheelEvent(tick=1, channel=1, data=[98, 50]),
   midi.PitchWheelEvent(tick=1, channel=1, data=[81, 50]),
   midi.PitchWheelEvent(tick=1, channel=1, data=[64, 50]),
   midi.PitchWheelEvent(tick=1, channel=1, data=[47, 50]),
   midi.PitchWheelEvent(tick=1, channel=1, data=[30, 50]),
   midi.PitchWheelEvent(tick=1, channel=1, data=[13, 50]),
   midi.PitchWheelEvent(tick=1, channel=1, data=[124, 49]),
   midi.PitchWheelEvent(tick=1, channel=1, data=[107, 49]),
   midi.PitchWheelEvent(tick=1, channel=1, data=[90, 49]),
   midi.PitchWheelEvent(tick=1, channel=1, data=[72, 49]),
   midi.PitchWheelEvent(tick=1, channel=1, data=[55, 49]),
   midi.PitchWheelEvent(tick=1, channel=1, data=[38, 49]),
   midi.PitchWheelEvent(tick=1, channel=1, data=[21, 49]),
   midi.PitchWheelEvent(tick=1, channel=1, data=[4, 49]),
   midi.PitchWheelEvent(tick=1, channel=1, data=[115, 48]),
   midi.PitchWheelEvent(tick=1, channel=1, data=[98, 48]),
   midi.PitchWheelEvent(tick=1, channel=1, data=[81, 48]),
   midi.PitchWheelEvent(tick=1, channel=1, data=[64, 48]),
   midi.PitchWheelEvent(tick=1, channel=1, data=[47, 48]),
   midi.PitchWheelEvent(tick=1, channel=1, data=[29, 48]),
   midi.PitchWheelEvent(tick=1, channel=1, data=[12, 48]),
   midi.PitchWheelEvent(tick=1, channel=1, data=[123, 47]),
   midi.PitchWheelEvent(tick=1, channel=1, data=[106, 47]),
   midi.PitchWheelEvent(tick=1, channel=1, data=[89, 47]),
   midi.PitchWheelEvent(tick=1, channel=1, data=[72, 47]),
   midi.PitchWheelEvent(tick=1, channel=1, data=[55, 47]),
   midi.PitchWheelEvent(tick=1, channel=1, data=[38, 47]),
   midi.PitchWheelEvent(tick=1, channel=1, data=[21, 47]),
   midi.PitchWheelEvent(tick=1, channel=1, data=[4, 47]),
   midi.PitchWheelEvent(tick=1, channel=1, data=[114, 46]),
   midi.PitchWheelEvent(tick=1, channel=1, data=[97, 46]),
   midi.PitchWheelEvent(tick=1, channel=1, data=[80, 46]),
   midi.PitchWheelEvent(tick=1, channel=1, data=[63, 46]),
   midi.PitchWheelEvent(tick=1, channel=1, data=[46, 46]),
   midi.PitchWheelEvent(tick=1, channel=1, data=[29, 46]),
   midi.PitchWheelEvent(tick=1, channel=1, data=[12, 46]),
   midi.PitchWheelEvent(tick=1, channel=1, data=[123, 45]),
   midi.PitchWheelEvent(tick=1, channel=1, data=[106, 45]),
   midi.PitchWheelEvent(tick=1, channel=1, data=[88, 45]),
   midi.PitchWheelEvent(tick=1, channel=1, data=[71, 45]),
   midi.PitchWheelEvent(tick=1, channel=1, data=[54, 45]),
   midi.PitchWheelEvent(tick=1, channel=1, data=[37, 45]),
   midi.PitchWheelEvent(tick=1, channel=1, data=[20, 45]),
   midi.PitchWheelEvent(tick=1, channel=1, data=[3, 45]),
   midi.PitchWheelEvent(tick=1, channel=1, data=[114, 44]),
   midi.PitchWheelEvent(tick=1, channel=1, data=[97, 44]),
   midi.PitchWheelEvent(tick=1, channel=1, data=[80, 44]),
   midi.PitchWheelEvent(tick=1, channel=1, data=[63, 44]),
   midi.PitchWheelEvent(tick=1, channel=1, data=[45, 44]),
   midi.PitchWheelEvent(tick=1, channel=1, data=[28, 44]),
   midi.PitchWheelEvent(tick=1, channel=1, data=[11, 44]),
   midi.PitchWheelEvent(tick=1, channel=1, data=[122, 43]),
   midi.PitchWheelEvent(tick=1, channel=1, data=[105, 43]),
   midi.PitchWheelEvent(tick=1, channel=1, data=[88, 43]),
   midi.PitchWheelEvent(tick=1, channel=1, data=[71, 43]),
   midi.PitchWheelEvent(tick=1, channel=1, data=[54, 43]),
   midi.PitchWheelEvent(tick=1, channel=1, data=[37, 43]),
   midi.PitchWheelEvent(tick=1, channel=1, data=[20, 43]),
   midi.PitchWheelEvent(tick=1, channel=1, data=[2, 43]),
   midi.PitchWheelEvent(tick=1, channel=1, data=[113, 42]),
   midi.PitchWheelEvent(tick=1, channel=1, data=[96, 42]),
   midi.PitchWheelEvent(tick=1, channel=1, data=[79, 42]),
   midi.PitchWheelEvent(tick=1, channel=1, data=[62, 42]),
   midi.PitchWheelEvent(tick=1, channel=1, data=[45, 42]),
   midi.PitchWheelEvent(tick=1, channel=1, data=[28, 42]),
   midi.PitchWheelEvent(tick=1, channel=1, data=[11, 42]),
   midi.PitchWheelEvent(tick=1, channel=1, data=[122, 41]),
   midi.PitchWheelEvent(tick=1, channel=1, data=[105, 41]),
   midi.PitchWheelEvent(tick=1, channel=1, data=[87, 41]),
   midi.PitchWheelEvent(tick=1, channel=1, data=[70, 41]),
   midi.PitchWheelEvent(tick=1, channel=1, data=[53, 41]),
   midi.PitchWheelEvent(tick=1, channel=1, data=[36, 41]),
   midi.PitchWheelEvent(tick=1, channel=1, data=[19, 41]),
   midi.PitchWheelEvent(tick=1, channel=1, data=[2, 41]),
   midi.PitchWheelEvent(tick=1, channel=1, data=[113, 40]),
   midi.PitchWheelEvent(tick=1, channel=1, data=[96, 40]),
   midi.PitchWheelEvent(tick=1, channel=1, data=[79, 40]),
   midi.PitchWheelEvent(tick=1, channel=1, data=[61, 40]),
   midi.PitchWheelEvent(tick=1, channel=1, data=[44, 40]),
   midi.PitchWheelEvent(tick=1, channel=1, data=[27, 40]),
   midi.PitchWheelEvent(tick=1, channel=1, data=[10, 40]),
   midi.PitchWheelEvent(tick=1, channel=1, data=[121, 39]),
   midi.PitchWheelEvent(tick=1, channel=1, data=[104, 39]),
   midi.PitchWheelEvent(tick=1, channel=1, data=[87, 39]),
   midi.PitchWheelEvent(tick=1, channel=1, data=[70, 39]),
   midi.PitchWheelEvent(tick=1, channel=1, data=[53, 39]),
   midi.PitchWheelEvent(tick=1, channel=1, data=[36, 39]),
   midi.PitchWheelEvent(tick=1, channel=1, data=[18, 39]),
   midi.PitchWheelEvent(tick=1, channel=1, data=[1, 39]),
   midi.PitchWheelEvent(tick=1, channel=1, data=[112, 38]),
   midi.PitchWheelEvent(tick=1, channel=1, data=[95, 38]),
   midi.PitchWheelEvent(tick=1, channel=1, data=[78, 38]),
   midi.PitchWheelEvent(tick=1, channel=1, data=[61, 38]),
   midi.PitchWheelEvent(tick=1, channel=1, data=[44, 38]),
   midi.PitchWheelEvent(tick=1, channel=1, data=[27, 38]),
   midi.PitchWheelEvent(tick=1, channel=1, data=[10, 38]),
   midi.PitchWheelEvent(tick=1, channel=1, data=[121, 37]),
   midi.PitchWheelEvent(tick=1, channel=1, data=[103, 37]),
   midi.PitchWheelEvent(tick=1, channel=1, data=[86, 37]),
   midi.PitchWheelEvent(tick=1, channel=1, data=[69, 37]),
   midi.PitchWheelEvent(tick=1, channel=1, data=[52, 37]),
   midi.PitchWheelEvent(tick=1, channel=1, data=[35, 37]),
   midi.PitchWheelEvent(tick=1, channel=1, data=[18, 37]),
   midi.PitchWheelEvent(tick=1, channel=1, data=[1, 37]),
   midi.PitchWheelEvent(tick=1, channel=1, data=[112, 36]),
   midi.PitchWheelEvent(tick=1, channel=1, data=[95, 36]),
   midi.PitchWheelEvent(tick=1, channel=1, data=[78, 36]),
   midi.PitchWheelEvent(tick=1, channel=1, data=[60, 36]),
   midi.PitchWheelEvent(tick=1, channel=1, data=[43, 36]),
   midi.PitchWheelEvent(tick=1, channel=1, data=[26, 36]),
   midi.PitchWheelEvent(tick=1, channel=1, data=[9, 36]),
   midi.PitchWheelEvent(tick=1, channel=1, data=[120, 35]),
   midi.PitchWheelEvent(tick=1, channel=1, data=[103, 35]),
   midi.PitchWheelEvent(tick=1, channel=1, data=[86, 35]),
   midi.PitchWheelEvent(tick=1, channel=1, data=[69, 35]),
   midi.PitchWheelEvent(tick=1, channel=1, data=[52, 35]),
   midi.PitchWheelEvent(tick=1, channel=1, data=[35, 35]),
   midi.PitchWheelEvent(tick=1, channel=1, data=[17, 35]),
   midi.PitchWheelEvent(tick=1, channel=1, data=[0, 35]),
   midi.PitchWheelEvent(tick=1, channel=1, data=[111, 34]),
   midi.PitchWheelEvent(tick=1, channel=1, data=[94, 34]),
   midi.PitchWheelEvent(tick=1, channel=1, data=[77, 34]),
   midi.PitchWheelEvent(tick=1, channel=1, data=[60, 34]),
   midi.PitchWheelEvent(tick=1, channel=1, data=[43, 34]),
   midi.PitchWheelEvent(tick=1, channel=1, data=[26, 34]),
   midi.PitchWheelEvent(tick=1, channel=1, data=[9, 34]),
   midi.PitchWheelEvent(tick=1, channel=1, data=[119, 33]),
   midi.PitchWheelEvent(tick=1, channel=1, data=[102, 33]),
   midi.PitchWheelEvent(tick=1, channel=1, data=[85, 33]),
   midi.PitchWheelEvent(tick=1, channel=1, data=[68, 33]),
   midi.PitchWheelEvent(tick=1, channel=1, data=[51, 33]),
   midi.PitchWheelEvent(tick=1, channel=1, data=[34, 33]),
   midi.PitchWheelEvent(tick=1, channel=1, data=[17, 33]),
   midi.PitchWheelEvent(tick=1, channel=1, data=[0, 33]),
   midi.PitchWheelEvent(tick=1, channel=1, data=[111, 32]),
   midi.PitchWheelEvent(tick=1, channel=1, data=[94, 32]),
   midi.PitchWheelEvent(tick=1, channel=1, data=[76, 32]),
   midi.PitchWheelEvent(tick=1, channel=1, data=[59, 32]),
   midi.PitchWheelEvent(tick=1, channel=1, data=[42, 32]),
   midi.PitchWheelEvent(tick=1, channel=1, data=[25, 32]),
   midi.PitchWheelEvent(tick=1, channel=1, data=[8, 32]),
   midi.PitchWheelEvent(tick=1, channel=1, data=[119, 31]),
   midi.PitchWheelEvent(tick=1, channel=1, data=[102, 31]),
   midi.PitchWheelEvent(tick=1, channel=1, data=[85, 31]),
   midi.PitchWheelEvent(tick=1, channel=1, data=[68, 31]),
   midi.PitchWheelEvent(tick=1, channel=1, data=[51, 31]),
   midi.PitchWheelEvent(tick=1, channel=1, data=[33, 31]),
   midi.PitchWheelEvent(tick=1, channel=1, data=[16, 31]),
   midi.PitchWheelEvent(tick=1, channel=1, data=[127, 30]),
   midi.PitchWheelEvent(tick=1, channel=1, data=[110, 30]),
   midi.PitchWheelEvent(tick=1, channel=1, data=[93, 30]),
   midi.PitchWheelEvent(tick=1, channel=1, data=[76, 30]),
   midi.PitchWheelEvent(tick=1, channel=1, data=[59, 30]),
   midi.PitchWheelEvent(tick=1, channel=1, data=[42, 30]),
   midi.PitchWheelEvent(tick=1, channel=1, data=[25, 30]),
   midi.PitchWheelEvent(tick=1, channel=1, data=[8, 30]),
   midi.PitchWheelEvent(tick=1, channel=1, data=[118, 29]),
   midi.PitchWheelEvent(tick=1, channel=1, data=[101, 29]),
   midi.PitchWheelEvent(tick=1, channel=1, data=[84, 29]),
   midi.PitchWheelEvent(tick=1, channel=1, data=[67, 29]),
   midi.PitchWheelEvent(tick=1, channel=1, data=[50, 29]),
   midi.PitchWheelEvent(tick=1, channel=1, data=[33, 29]),
   midi.PitchWheelEvent(tick=1, channel=1, data=[16, 29]),
   midi.PitchWheelEvent(tick=1, channel=1, data=[127, 28]),
   midi.PitchWheelEvent(tick=1, channel=1, data=[110, 28]),
   midi.PitchWheelEvent(tick=1, channel=1, data=[92, 28]),
   midi.PitchWheelEvent(tick=1, channel=1, data=[75, 28]),
   midi.PitchWheelEvent(tick=1, channel=1, data=[58, 28]),
   midi.PitchWheelEvent(tick=1, channel=1, data=[41, 28]),
   midi.PitchWheelEvent(tick=1, channel=1, data=[24, 28]),
   midi.PitchWheelEvent(tick=1, channel=1, data=[7, 28]),
   midi.PitchWheelEvent(tick=1, channel=1, data=[118, 27]),
   midi.PitchWheelEvent(tick=1, channel=1, data=[101, 27]),
   midi.PitchWheelEvent(tick=1, channel=1, data=[84, 27]),
   midi.PitchWheelEvent(tick=1, channel=1, data=[67, 27]),
   midi.PitchWheelEvent(tick=1, channel=1, data=[49, 27]),
   midi.PitchWheelEvent(tick=1, channel=1, data=[32, 27]),
   midi.PitchWheelEvent(tick=1, channel=1, data=[15, 27]),
   midi.PitchWheelEvent(tick=1, channel=1, data=[126, 26]),
   midi.PitchWheelEvent(tick=1, channel=1, data=[109, 26]),
   midi.PitchWheelEvent(tick=1, channel=1, data=[92, 26]),
   midi.PitchWheelEvent(tick=1, channel=1, data=[75, 26]),
   midi.PitchWheelEvent(tick=1, channel=1, data=[58, 26]),
   midi.PitchWheelEvent(tick=1, channel=1, data=[41, 26]),
   midi.PitchWheelEvent(tick=1, channel=1, data=[24, 26]),
   midi.PitchWheelEvent(tick=1, channel=1, data=[6, 26]),
   midi.PitchWheelEvent(tick=1, channel=1, data=[117, 25]),
   midi.PitchWheelEvent(tick=1, channel=1, data=[100, 25]),
   midi.PitchWheelEvent(tick=1, channel=1, data=[83, 25]),
   midi.PitchWheelEvent(tick=1, channel=1, data=[66, 25]),
   midi.PitchWheelEvent(tick=1, channel=1, data=[49, 25]),
   midi.PitchWheelEvent(tick=1, channel=1, data=[32, 25]),
   midi.PitchWheelEvent(tick=1, channel=1, data=[15, 25]),
   midi.PitchWheelEvent(tick=1, channel=1, data=[126, 24]),
   midi.PitchWheelEvent(tick=1, channel=1, data=[109, 24]),
   midi.PitchWheelEvent(tick=1, channel=1, data=[91, 24]),
   midi.PitchWheelEvent(tick=1, channel=1, data=[74, 24]),
   midi.PitchWheelEvent(tick=1, channel=1, data=[57, 24]),
   midi.PitchWheelEvent(tick=1, channel=1, data=[40, 24]),
   midi.PitchWheelEvent(tick=1, channel=1, data=[23, 24]),
   midi.PitchWheelEvent(tick=1, channel=1, data=[6, 24]),
   midi.PitchWheelEvent(tick=1, channel=1, data=[117, 23]),
   midi.PitchWheelEvent(tick=1, channel=1, data=[100, 23]),
   midi.PitchWheelEvent(tick=1, channel=1, data=[83, 23]),
   midi.PitchWheelEvent(tick=1, channel=1, data=[66, 23]),
   midi.PitchWheelEvent(tick=1, channel=1, data=[48, 23]),
   midi.PitchWheelEvent(tick=1, channel=1, data=[31, 23]),
   midi.PitchWheelEvent(tick=1, channel=1, data=[14, 23]),
   midi.PitchWheelEvent(tick=1, channel=1, data=[125, 22]),
   midi.PitchWheelEvent(tick=1, channel=1, data=[108, 22]),
   midi.PitchWheelEvent(tick=1, channel=1, data=[91, 22]),
   midi.PitchWheelEvent(tick=1, channel=1, data=[74, 22]),
   midi.PitchWheelEvent(tick=1, channel=1, data=[57, 22]),
   midi.PitchWheelEvent(tick=1, channel=1, data=[40, 22]),
   midi.PitchWheelEvent(tick=1, channel=1, data=[22, 22]),
   midi.PitchWheelEvent(tick=1, channel=1, data=[5, 22]),
   midi.PitchWheelEvent(tick=1, channel=1, data=[116, 21]),
   midi.PitchWheelEvent(tick=1, channel=1, data=[99, 21]),
   midi.PitchWheelEvent(tick=1, channel=1, data=[82, 21]),
   midi.PitchWheelEvent(tick=1, channel=1, data=[65, 21]),
   midi.PitchWheelEvent(tick=1, channel=1, data=[48, 21]),
   midi.PitchWheelEvent(tick=1, channel=1, data=[31, 21]),
   midi.PitchWheelEvent(tick=1, channel=1, data=[14, 21]),
   midi.PitchWheelEvent(tick=1, channel=1, data=[125, 20]),
   midi.PitchWheelEvent(tick=1, channel=1, data=[107, 20]),
   midi.PitchWheelEvent(tick=1, channel=1, data=[90, 20]),
   midi.PitchWheelEvent(tick=1, channel=1, data=[73, 20]),
   midi.PitchWheelEvent(tick=1, channel=1, data=[56, 20]),
   midi.PitchWheelEvent(tick=1, channel=1, data=[39, 20]),
   midi.PitchWheelEvent(tick=1, channel=1, data=[22, 20]),
   midi.PitchWheelEvent(tick=1, channel=1, data=[5, 20]),
   midi.PitchWheelEvent(tick=1, channel=1, data=[116, 19]),
   midi.PitchWheelEvent(tick=1, channel=1, data=[99, 19]),
   midi.PitchWheelEvent(tick=1, channel=1, data=[82, 19]),
   midi.PitchWheelEvent(tick=1, channel=1, data=[64, 19]),
   midi.PitchWheelEvent(tick=1, channel=1, data=[47, 19]),
   midi.PitchWheelEvent(tick=1, channel=1, data=[30, 19]),
   midi.PitchWheelEvent(tick=1, channel=1, data=[13, 19]),
   midi.PitchWheelEvent(tick=1, channel=1, data=[124, 18]),
   midi.PitchWheelEvent(tick=1, channel=1, data=[107, 18]),
   midi.PitchWheelEvent(tick=1, channel=1, data=[90, 18]),
   midi.PitchWheelEvent(tick=1, channel=1, data=[73, 18]),
   midi.PitchWheelEvent(tick=1, channel=1, data=[56, 18]),
   midi.PitchWheelEvent(tick=1, channel=1, data=[39, 18]),
   midi.PitchWheelEvent(tick=1, channel=1, data=[21, 18]),
   midi.PitchWheelEvent(tick=1, channel=1, data=[4, 18]),
   midi.PitchWheelEvent(tick=1, channel=1, data=[115, 17]),
   midi.PitchWheelEvent(tick=1, channel=1, data=[98, 17]),
   midi.PitchWheelEvent(tick=1, channel=1, data=[81, 17]),
   midi.PitchWheelEvent(tick=1, channel=1, data=[64, 17]),
   midi.PitchWheelEvent(tick=1, channel=1, data=[47, 17]),
   midi.PitchWheelEvent(tick=1, channel=1, data=[30, 17]),
   midi.PitchWheelEvent(tick=1, channel=1, data=[13, 17]),
   midi.PitchWheelEvent(tick=1, channel=1, data=[123, 16]),
   midi.PitchWheelEvent(tick=1, channel=1, data=[106, 16]),
   midi.PitchWheelEvent(tick=1, channel=1, data=[89, 16]),
   midi.PitchWheelEvent(tick=1, channel=1, data=[72, 16]),
   midi.PitchWheelEvent(tick=1, channel=1, data=[55, 16]),
   midi.PitchWheelEvent(tick=1, channel=1, data=[38, 16]),
   midi.PitchWheelEvent(tick=1, channel=1, data=[21, 16]),
   midi.PitchWheelEvent(tick=1, channel=1, data=[4, 16]),
   midi.PitchWheelEvent(tick=1, channel=1, data=[115, 15]),
   midi.PitchWheelEvent(tick=1, channel=1, data=[98, 15]),
   midi.PitchWheelEvent(tick=1, channel=1, data=[80, 15]),
   midi.PitchWheelEvent(tick=1, channel=1, data=[63, 15]),
   midi.PitchWheelEvent(tick=1, channel=1, data=[46, 15]),
   midi.PitchWheelEvent(tick=1, channel=1, data=[29, 15]),
   midi.PitchWheelEvent(tick=1, channel=1, data=[12, 15]),
   midi.PitchWheelEvent(tick=1, channel=1, data=[123, 14]),
   midi.PitchWheelEvent(tick=1, channel=1, data=[106, 14]),
   midi.PitchWheelEvent(tick=1, channel=1, data=[89, 14]),
   midi.PitchWheelEvent(tick=1, channel=1, data=[72, 14]),
   midi.PitchWheelEvent(tick=1, channel=1, data=[55, 14]),
   midi.PitchWheelEvent(tick=1, channel=1, data=[37, 14]),
   midi.PitchWheelEvent(tick=1, channel=1, data=[20, 14]),
   midi.PitchWheelEvent(tick=1, channel=1, data=[3, 14]),
   midi.PitchWheelEvent(tick=1, channel=1, data=[114, 13]),
   midi.PitchWheelEvent(tick=1, channel=1, data=[97, 13]),
   midi.PitchWheelEvent(tick=1, channel=1, data=[80, 13]),
   midi.PitchWheelEvent(tick=1, channel=1, data=[63, 13]),
   midi.PitchWheelEvent(tick=1, channel=1, data=[46, 13]),
   midi.PitchWheelEvent(tick=1, channel=1, data=[29, 13]),
   midi.PitchWheelEvent(tick=1, channel=1, data=[12, 13]),
   midi.PitchWheelEvent(tick=1, channel=1, data=[122, 12]),
   midi.PitchWheelEvent(tick=1, channel=1, data=[105, 12]),
   midi.PitchWheelEvent(tick=1, channel=1, data=[88, 12]),
   midi.PitchWheelEvent(tick=1, channel=1, data=[71, 12]),
   midi.PitchWheelEvent(tick=1, channel=1, data=[54, 12]),
   midi.PitchWheelEvent(tick=1, channel=1, data=[37, 12]),
   midi.PitchWheelEvent(tick=1, channel=1, data=[20, 12]),
   midi.PitchWheelEvent(tick=1, channel=1, data=[3, 12]),
   midi.PitchWheelEvent(tick=1, channel=1, data=[114, 11]),
   midi.PitchWheelEvent(tick=1, channel=1, data=[97, 11]),
   midi.PitchWheelEvent(tick=1, channel=1, data=[79, 11]),
   midi.PitchWheelEvent(tick=1, channel=1, data=[62, 11]),
   midi.PitchWheelEvent(tick=1, channel=1, data=[45, 11]),
   midi.PitchWheelEvent(tick=1, channel=1, data=[28, 11]),
   midi.PitchWheelEvent(tick=1, channel=1, data=[11, 11]),
   midi.PitchWheelEvent(tick=1, channel=1, data=[122, 10]),
   midi.PitchWheelEvent(tick=1, channel=1, data=[105, 10]),
   midi.PitchWheelEvent(tick=1, channel=1, data=[88, 10]),
   midi.PitchWheelEvent(tick=1, channel=1, data=[71, 10]),
   midi.PitchWheelEvent(tick=1, channel=1, data=[53, 10]),
   midi.PitchWheelEvent(tick=1, channel=1, data=[36, 10]),
   midi.PitchWheelEvent(tick=1, channel=1, data=[19, 10]),
   midi.PitchWheelEvent(tick=1, channel=1, data=[2, 10]),
   midi.PitchWheelEvent(tick=1, channel=1, data=[113, 9]),
   midi.PitchWheelEvent(tick=1, channel=1, data=[96, 9]),
   midi.PitchWheelEvent(tick=1, channel=1, data=[79, 9]),
   midi.PitchWheelEvent(tick=1, channel=1, data=[62, 9]),
   midi.PitchWheelEvent(tick=1, channel=1, data=[45, 9]),
   midi.PitchWheelEvent(tick=1, channel=1, data=[28, 9]),
   midi.PitchWheelEvent(tick=1, channel=1, data=[10, 9]),
   midi.PitchWheelEvent(tick=1, channel=1, data=[121, 8]),
   midi.PitchWheelEvent(tick=1, channel=1, data=[104, 8]),
   midi.PitchWheelEvent(tick=1, channel=1, data=[87, 8]),
   midi.PitchWheelEvent(tick=1, channel=1, data=[70, 8]),
   midi.PitchWheelEvent(tick=1, channel=1, data=[53, 8]),
   midi.PitchWheelEvent(tick=1, channel=1, data=[36, 8]),
   midi.PitchWheelEvent(tick=1, channel=1, data=[19, 8]),
   midi.PitchWheelEvent(tick=1, channel=1, data=[2, 8]),
   midi.PitchWheelEvent(tick=1, channel=1, data=[113, 7]),
   midi.PitchWheelEvent(tick=1, channel=1, data=[95, 7]),
   midi.PitchWheelEvent(tick=1, channel=1, data=[78, 7]),
   midi.PitchWheelEvent(tick=1, channel=1, data=[61, 7]),
   midi.PitchWheelEvent(tick=1, channel=1, data=[44, 7]),
   midi.PitchWheelEvent(tick=1, channel=1, data=[27, 7]),
   midi.PitchWheelEvent(tick=1, channel=1, data=[10, 7]),
   midi.PitchWheelEvent(tick=1, channel=1, data=[121, 6]),
   midi.PitchWheelEvent(tick=1, channel=1, data=[104, 6]),
   midi.PitchWheelEvent(tick=1, channel=1, data=[87, 6]),
   midi.PitchWheelEvent(tick=1, channel=1, data=[70, 6]),
   midi.PitchWheelEvent(tick=1, channel=1, data=[52, 6]),
   midi.PitchWheelEvent(tick=1, channel=1, data=[35, 6]),
   midi.PitchWheelEvent(tick=1, channel=1, data=[18, 6]),
   midi.PitchWheelEvent(tick=1, channel=1, data=[1, 6]),
   midi.PitchWheelEvent(tick=1, channel=1, data=[112, 5]),
   midi.PitchWheelEvent(tick=1, channel=1, data=[95, 5]),
   midi.PitchWheelEvent(tick=1, channel=1, data=[78, 5]),
   midi.PitchWheelEvent(tick=1, channel=1, data=[61, 5]),
   midi.PitchWheelEvent(tick=1, channel=1, data=[44, 5]),
   midi.PitchWheelEvent(tick=1, channel=1, data=[26, 5]),
   midi.PitchWheelEvent(tick=1, channel=1, data=[9, 5]),
   midi.PitchWheelEvent(tick=1, channel=1, data=[120, 4]),
   midi.PitchWheelEvent(tick=1, channel=1, data=[103, 4]),
   midi.PitchWheelEvent(tick=1, channel=1, data=[86, 4]),
   midi.PitchWheelEvent(tick=1, channel=1, data=[69, 4]),
   midi.PitchWheelEvent(tick=1, channel=1, data=[52, 4]),
   midi.PitchWheelEvent(tick=1, channel=1, data=[35, 4]),
   midi.PitchWheelEvent(tick=1, channel=1, data=[18, 4]),
   midi.PitchWheelEvent(tick=1, channel=1, data=[1, 4]),
   midi.PitchWheelEvent(tick=1, channel=1, data=[111, 3]),
   midi.PitchWheelEvent(tick=1, channel=1, data=[94, 3]),
   midi.PitchWheelEvent(tick=1, channel=1, data=[77, 3]),
   midi.PitchWheelEvent(tick=1, channel=1, data=[60, 3]),
   midi.PitchWheelEvent(tick=1, channel=1, data=[43, 3]),
   midi.PitchWheelEvent(tick=1, channel=1, data=[26, 3]),
   midi.PitchWheelEvent(tick=1, channel=1, data=[9, 3]),
   midi.PitchWheelEvent(tick=1, channel=1, data=[120, 2]),
   midi.PitchWheelEvent(tick=1, channel=1, data=[103, 2]),
   midi.PitchWheelEvent(tick=1, channel=1, data=[86, 2]),
   midi.PitchWheelEvent(tick=1, channel=1, data=[68, 2]),
   midi.PitchWheelEvent(tick=1, channel=1, data=[51, 2]),
   midi.PitchWheelEvent(tick=1, channel=1, data=[34, 2]),
   midi.PitchWheelEvent(tick=1, channel=1, data=[17, 2]),
   midi.PitchWheelEvent(tick=1, channel=1, data=[0, 2]),
   midi.PitchWheelEvent(tick=1, channel=1, data=[111, 1]),
   midi.PitchWheelEvent(tick=1, channel=1, data=[94, 1]),
   midi.PitchWheelEvent(tick=1, channel=1, data=[77, 1]),
   midi.PitchWheelEvent(tick=1, channel=1, data=[60, 1]),
   midi.PitchWheelEvent(tick=1, channel=1, data=[43, 1]),
   midi.PitchWheelEvent(tick=1, channel=1, data=[25, 1]),
   midi.PitchWheelEvent(tick=1, channel=1, data=[8, 1]),
   midi.PitchWheelEvent(tick=1, channel=1, data=[119, 0]),
   midi.PitchWheelEvent(tick=1, channel=1, data=[102, 0]),
   midi.PitchWheelEvent(tick=1, channel=1, data=[85, 0]),
   midi.PitchWheelEvent(tick=1, channel=1, data=[68, 0]),
   midi.PitchWheelEvent(tick=1, channel=1, data=[51, 0]),
   midi.PitchWheelEvent(tick=1, channel=1, data=[34, 0]),
   midi.PitchWheelEvent(tick=1, channel=1, data=[17, 0]),
   midi.PitchWheelEvent(tick=1, channel=1, data=[0, 0]),
   midi.NoteOnEvent(tick=1, channel=1, data=[40, 0]),
   midi.PitchWheelEvent(tick=0, channel=1, data=[0, 64]),
   midi.NoteOnEvent(tick=0, channel=1, data=[40, 127]),
   midi.NoteOnEvent(tick=60, channel=1, data=[40, 0]),
   midi.NoteOnEvent(tick=0, channel=1, data=[40, 127]),
   midi.NoteOnEvent(tick=60, channel=1, data=[40, 0]),
   midi.NoteOnEvent(tick=0, channel=1, data=[40, 127]),
   midi.NoteOnEvent(tick=40, channel=1, data=[40, 0]),
   midi.NoteOnEvent(tick=0, channel=1, data=[40, 127]),
   midi.NoteOnEvent(tick=40, channel=1, data=[40, 0]),
   midi.NoteOnEvent(tick=0, channel=1, data=[40, 127]),
   midi.NoteOnEvent(tick=40, channel=1, data=[40, 0]),
   midi.NoteOnEvent(tick=0, channel=1, data=[40, 127]),
   midi.NoteOnEvent(tick=60, channel=1, data=[40, 0]),
   midi.NoteOnEvent(tick=0, channel=1, data=[40, 127]),
   midi.NoteOnEvent(tick=60, channel=1, data=[40, 0]),
   midi.NoteOnEvent(tick=0, channel=1, data=[40, 127]),
   midi.NoteOnEvent(tick=40, channel=1, data=[40, 0]),
   midi.NoteOnEvent(tick=0, channel=1, data=[40, 127]),
   midi.NoteOnEvent(tick=40, channel=1, data=[40, 0]),
   midi.NoteOnEvent(tick=0, channel=1, data=[40, 127]),
   midi.NoteOnEvent(tick=40, channel=1, data=[40, 0]),
   midi.NoteOnEvent(tick=0, channel=1, data=[40, 127]),
   midi.NoteOnEvent(tick=60, channel=1, data=[40, 0]),
   midi.NoteOnEvent(tick=0, channel=1, data=[40, 127]),
   midi.NoteOnEvent(tick=60, channel=1, data=[40, 0]),
   midi.NoteOnEvent(tick=0, channel=1, data=[40, 127]),
   midi.NoteOnEvent(tick=40, channel=1, data=[40, 0]),
   midi.NoteOnEvent(tick=0, channel=1, data=[40, 127]),
   midi.NoteOnEvent(tick=40, channel=1, data=[40, 0]),
   midi.NoteOnEvent(tick=0, channel=1, data=[40, 127]),
   midi.NoteOnEvent(tick=40, channel=1, data=[40, 0]),
   midi.NoteOnEvent(tick=0, channel=1, data=[60, 127]),
   midi.NoteOnEvent(tick=0, channel=1, data=[53, 127]),
   midi.NoteOnEvent(tick=30, channel=1, data=[60, 0]),
   midi.NoteOnEvent(tick=0, channel=1, data=[53, 0]),
   midi.NoteOnEvent(tick=0, channel=1, data=[52, 127]),
   midi.NoteOnEvent(tick=0, channel=1, data=[59, 127]),
   midi.NoteOnEvent(tick=90, channel=1, data=[52, 0]),
   midi.NoteOnEvent(tick=0, channel=1, data=[59, 0]),
   midi.NoteOnEvent(tick=0, channel=1, data=[59, 127]),
   midi.NoteOnEvent(tick=0, channel=1, data=[52, 127]),
   midi.NoteOnEvent(tick=120, channel=1, data=[59, 0]),
   midi.NoteOnEvent(tick=0, channel=1, data=[52, 0]),
   midi.NoteOnEvent(tick=0, channel=1, data=[40, 127]),
   midi.NoteOnEvent(tick=60, channel=1, data=[40, 0]),
   midi.NoteOnEvent(tick=0, channel=1, data=[40, 127]),
   midi.NoteOnEvent(tick=60, channel=1, data=[40, 0]),
   midi.NoteOnEvent(tick=0, channel=1, data=[40, 127]),
   midi.NoteOnEvent(tick=40, channel=1, data=[40, 0]),
   midi.NoteOnEvent(tick=0, channel=1, data=[40, 127]),
   midi.NoteOnEvent(tick=40, channel=1, data=[40, 0]),
   midi.NoteOnEvent(tick=0, channel=1, data=[40, 127]),
   midi.NoteOnEvent(tick=40, channel=1, data=[40, 0]),
   midi.NoteOnEvent(tick=0, channel=1, data=[40, 127]),
   midi.NoteOnEvent(tick=60, channel=1, data=[40, 0]),
   midi.NoteOnEvent(tick=0, channel=1, data=[40, 127]),
   midi.NoteOnEvent(tick=60, channel=1, data=[40, 0]),
   midi.NoteOnEvent(tick=0, channel=1, data=[40, 127]),
   midi.NoteOnEvent(tick=40, channel=1, data=[40, 0]),
   midi.NoteOnEvent(tick=0, channel=1, data=[40, 127]),
   midi.NoteOnEvent(tick=40, channel=1, data=[40, 0]),
   midi.NoteOnEvent(tick=0, channel=1, data=[40, 127]),
   midi.NoteOnEvent(tick=40, channel=1, data=[40, 0]),
   midi.NoteOnEvent(tick=0, channel=1, data=[40, 127]),
   midi.NoteOnEvent(tick=60, channel=1, data=[40, 0]),
   midi.NoteOnEvent(tick=0, channel=1, data=[40, 127]),
   midi.NoteOnEvent(tick=60, channel=1, data=[40, 0]),
   midi.NoteOnEvent(tick=0, channel=1, data=[40, 127]),
   midi.NoteOnEvent(tick=40, channel=1, data=[40, 0]),
   midi.NoteOnEvent(tick=0, channel=1, data=[40, 127]),
   midi.NoteOnEvent(tick=40, channel=1, data=[40, 0]),
   midi.NoteOnEvent(tick=0, channel=1, data=[40, 127]),
   midi.NoteOnEvent(tick=40, channel=1, data=[40, 0]),
   midi.NoteOnEvent(tick=0, channel=1, data=[60, 127]),
   midi.NoteOnEvent(tick=0, channel=1, data=[53, 127]),
   midi.NoteOnEvent(tick=240, channel=1, data=[60, 0]),
   midi.NoteOnEvent(tick=0, channel=1, data=[53, 0]),
   midi.NoteOnEvent(tick=0, channel=1, data=[40, 127]),
   midi.NoteOnEvent(tick=60, channel=1, data=[40, 0]),
   midi.NoteOnEvent(tick=0, channel=1, data=[40, 127]),
   midi.NoteOnEvent(tick=60, channel=1, data=[40, 0]),
   midi.NoteOnEvent(tick=0, channel=1, data=[40, 127]),
   midi.NoteOnEvent(tick=40, channel=1, data=[40, 0]),
   midi.NoteOnEvent(tick=0, channel=1, data=[40, 127]),
   midi.NoteOnEvent(tick=40, channel=1, data=[40, 0]),
   midi.NoteOnEvent(tick=0, channel=1, data=[40, 127]),
   midi.NoteOnEvent(tick=40, channel=1, data=[40, 0]),
   midi.NoteOnEvent(tick=0, channel=1, data=[40, 127]),
   midi.NoteOnEvent(tick=60, channel=1, data=[40, 0]),
   midi.NoteOnEvent(tick=0, channel=1, data=[40, 127]),
   midi.NoteOnEvent(tick=60, channel=1, data=[40, 0]),
   midi.NoteOnEvent(tick=0, channel=1, data=[40, 127]),
   midi.NoteOnEvent(tick=40, channel=1, data=[40, 0]),
   midi.NoteOnEvent(tick=0, channel=1, data=[40, 127]),
   midi.NoteOnEvent(tick=40, channel=1, data=[40, 0]),
   midi.NoteOnEvent(tick=0, channel=1, data=[40, 127]),
   midi.NoteOnEvent(tick=40, channel=1, data=[40, 0]),
   midi.NoteOnEvent(tick=0, channel=1, data=[40, 127]),
   midi.NoteOnEvent(tick=60, channel=1, data=[40, 0]),
   midi.NoteOnEvent(tick=0, channel=1, data=[40, 127]),
   midi.NoteOnEvent(tick=60, channel=1, data=[40, 0]),
   midi.NoteOnEvent(tick=0, channel=1, data=[40, 127]),
   midi.NoteOnEvent(tick=40, channel=1, data=[40, 0]),
   midi.NoteOnEvent(tick=0, channel=1, data=[40, 127]),
   midi.NoteOnEvent(tick=40, channel=1, data=[40, 0]),
   midi.NoteOnEvent(tick=0, channel=1, data=[40, 127]),
   midi.NoteOnEvent(tick=40, channel=1, data=[40, 0]),
   midi.NoteOnEvent(tick=0, channel=1, data=[60, 127]),
   midi.NoteOnEvent(tick=0, channel=1, data=[53, 127]),
   midi.NoteOnEvent(tick=30, channel=1, data=[60, 0]),
   midi.NoteOnEvent(tick=0, channel=1, data=[53, 0]),
   midi.NoteOnEvent(tick=0, channel=1, data=[52, 127]),
   midi.NoteOnEvent(tick=0, channel=1, data=[59, 127]),
   midi.NoteOnEvent(tick=90, channel=1, data=[52, 0]),
   midi.NoteOnEvent(tick=0, channel=1, data=[59, 0]),
   midi.NoteOnEvent(tick=0, channel=1, data=[59, 127]),
   midi.NoteOnEvent(tick=0, channel=1, data=[52, 127]),
   midi.NoteOnEvent(tick=120, channel=1, data=[59, 0]),
   midi.NoteOnEvent(tick=0, channel=1, data=[52, 0]),
   midi.NoteOnEvent(tick=0, channel=1, data=[40, 127]),
   midi.NoteOnEvent(tick=60, channel=1, data=[40, 0]),
   midi.NoteOnEvent(tick=0, channel=1, data=[40, 127]),
   midi.NoteOnEvent(tick=60, channel=1, data=[40, 0]),
   midi.NoteOnEvent(tick=0, channel=1, data=[40, 127]),
   midi.NoteOnEvent(tick=40, channel=1, data=[40, 0]),
   midi.NoteOnEvent(tick=0, channel=1, data=[40, 127]),
   midi.NoteOnEvent(tick=40, channel=1, data=[40, 0]),
   midi.NoteOnEvent(tick=0, channel=1, data=[40, 127]),
   midi.NoteOnEvent(tick=40, channel=1, data=[40, 0]),
   midi.NoteOnEvent(tick=0, channel=1, data=[40, 127]),
   midi.NoteOnEvent(tick=60, channel=1, data=[40, 0]),
   midi.NoteOnEvent(tick=0, channel=1, data=[40, 127]),
   midi.NoteOnEvent(tick=60, channel=1, data=[40, 0]),
   midi.NoteOnEvent(tick=0, channel=1, data=[40, 127]),
   midi.NoteOnEvent(tick=40, channel=1, data=[40, 0]),
   midi.NoteOnEvent(tick=0, channel=1, data=[40, 127]),
   midi.NoteOnEvent(tick=40, channel=1, data=[40, 0]),
   midi.NoteOnEvent(tick=0, channel=1, data=[40, 127]),
   midi.NoteOnEvent(tick=40, channel=1, data=[40, 0]),
   midi.NoteOnEvent(tick=0, channel=1, data=[40, 127]),
   midi.NoteOnEvent(tick=60, channel=1, data=[40, 0]),
   midi.NoteOnEvent(tick=0, channel=1, data=[40, 127]),
   midi.NoteOnEvent(tick=60, channel=1, data=[40, 0]),
   midi.NoteOnEvent(tick=0, channel=1, data=[40, 127]),
   midi.NoteOnEvent(tick=40, channel=1, data=[40, 0]),
   midi.NoteOnEvent(tick=0, channel=1, data=[40, 127]),
   midi.NoteOnEvent(tick=40, channel=1, data=[40, 0]),
   midi.NoteOnEvent(tick=0, channel=1, data=[40, 127]),
   midi.NoteOnEvent(tick=40, channel=1, data=[40, 0]),
   midi.NoteOnEvent(tick=0, channel=1, data=[60, 127]),
   midi.NoteOnEvent(tick=0, channel=1, data=[53, 127]),
   midi.NoteOnEvent(tick=240, channel=1, data=[60, 0]),
   midi.NoteOnEvent(tick=0, channel=1, data=[53, 0]),
   midi.NoteOnEvent(tick=0, channel=1, data=[40, 127]),
   midi.NoteOnEvent(tick=60, channel=1, data=[40, 0]),
   midi.NoteOnEvent(tick=0, channel=1, data=[40, 127]),
   midi.NoteOnEvent(tick=60, channel=1, data=[40, 0]),
   midi.NoteOnEvent(tick=0, channel=1, data=[40, 127]),
   midi.NoteOnEvent(tick=40, channel=1, data=[40, 0]),
   midi.NoteOnEvent(tick=0, channel=1, data=[40, 127]),
   midi.NoteOnEvent(tick=40, channel=1, data=[40, 0]),
   midi.NoteOnEvent(tick=0, channel=1, data=[40, 127]),
   midi.NoteOnEvent(tick=40, channel=1, data=[40, 0]),
   midi.NoteOnEvent(tick=0, channel=1, data=[40, 127]),
   midi.NoteOnEvent(tick=60, channel=1, data=[40, 0]),
   midi.NoteOnEvent(tick=0, channel=1, data=[40, 127]),
   midi.NoteOnEvent(tick=60, channel=1, data=[40, 0]),
   midi.NoteOnEvent(tick=0, channel=1, data=[40, 127]),
   midi.NoteOnEvent(tick=40, channel=1, data=[40, 0]),
   midi.NoteOnEvent(tick=0, channel=1, data=[40, 127]),
   midi.NoteOnEvent(tick=40, channel=1, data=[40, 0]),
   midi.NoteOnEvent(tick=0, channel=1, data=[40, 127]),
   midi.NoteOnEvent(tick=40, channel=1, data=[40, 0]),
   midi.NoteOnEvent(tick=0, channel=1, data=[40, 127]),
   midi.NoteOnEvent(tick=60, channel=1, data=[40, 0]),
   midi.NoteOnEvent(tick=0, channel=1, data=[40, 127]),
   midi.NoteOnEvent(tick=60, channel=1, data=[40, 0]),
   midi.NoteOnEvent(tick=0, channel=1, data=[40, 127]),
   midi.NoteOnEvent(tick=40, channel=1, data=[40, 0]),
   midi.NoteOnEvent(tick=0, channel=1, data=[40, 127]),
   midi.NoteOnEvent(tick=40, channel=1, data=[40, 0]),
   midi.NoteOnEvent(tick=0, channel=1, data=[40, 127]),
   midi.NoteOnEvent(tick=40, channel=1, data=[40, 0]),
   midi.NoteOnEvent(tick=0, channel=1, data=[60, 127]),
   midi.NoteOnEvent(tick=0, channel=1, data=[53, 127]),
   midi.NoteOnEvent(tick=30, channel=1, data=[60, 0]),
   midi.NoteOnEvent(tick=0, channel=1, data=[53, 0]),
   midi.NoteOnEvent(tick=0, channel=1, data=[52, 127]),
   midi.NoteOnEvent(tick=0, channel=1, data=[59, 127]),
   midi.NoteOnEvent(tick=90, channel=1, data=[52, 0]),
   midi.NoteOnEvent(tick=0, channel=1, data=[59, 0]),
   midi.NoteOnEvent(tick=0, channel=1, data=[59, 127]),
   midi.NoteOnEvent(tick=0, channel=1, data=[52, 127]),
   midi.NoteOnEvent(tick=120, channel=1, data=[59, 0]),
   midi.NoteOnEvent(tick=0, channel=1, data=[52, 0]),
   midi.NoteOnEvent(tick=0, channel=1, data=[40, 127]),
   midi.NoteOnEvent(tick=60, channel=1, data=[40, 0]),
   midi.NoteOnEvent(tick=0, channel=1, data=[40, 127]),
   midi.NoteOnEvent(tick=60, channel=1, data=[40, 0]),
   midi.NoteOnEvent(tick=0, channel=1, data=[40, 127]),
   midi.NoteOnEvent(tick=40, channel=1, data=[40, 0]),
   midi.NoteOnEvent(tick=0, channel=1, data=[40, 127]),
   midi.NoteOnEvent(tick=40, channel=1, data=[40, 0]),
   midi.NoteOnEvent(tick=0, channel=1, data=[40, 127]),
   midi.NoteOnEvent(tick=40, channel=1, data=[40, 0]),
   midi.NoteOnEvent(tick=0, channel=1, data=[40, 127]),
   midi.NoteOnEvent(tick=60, channel=1, data=[40, 0]),
   midi.NoteOnEvent(tick=0, channel=1, data=[40, 127]),
   midi.NoteOnEvent(tick=60, channel=1, data=[40, 0]),
   midi.NoteOnEvent(tick=0, channel=1, data=[40, 127]),
   midi.NoteOnEvent(tick=40, channel=1, data=[40, 0]),
   midi.NoteOnEvent(tick=0, channel=1, data=[40, 127]),
   midi.NoteOnEvent(tick=40, channel=1, data=[40, 0]),
   midi.NoteOnEvent(tick=0, channel=1, data=[40, 127]),
   midi.NoteOnEvent(tick=40, channel=1, data=[40, 0]),
   midi.NoteOnEvent(tick=0, channel=1, data=[40, 127]),
   midi.NoteOnEvent(tick=60, channel=1, data=[40, 0]),
   midi.NoteOnEvent(tick=0, channel=1, data=[40, 127]),
   midi.NoteOnEvent(tick=60, channel=1, data=[40, 0]),
   midi.NoteOnEvent(tick=0, channel=1, data=[40, 127]),
   midi.NoteOnEvent(tick=40, channel=1, data=[40, 0]),
   midi.NoteOnEvent(tick=0, channel=1, data=[40, 127]),
   midi.NoteOnEvent(tick=40, channel=1, data=[40, 0]),
   midi.NoteOnEvent(tick=0, channel=1, data=[40, 127]),
   midi.NoteOnEvent(tick=40, channel=1, data=[40, 0]),
   midi.NoteOnEvent(tick=0, channel=1, data=[60, 127]),
   midi.NoteOnEvent(tick=0, channel=1, data=[53, 127]),
   midi.NoteOnEvent(tick=240, channel=1, data=[60, 0]),
   midi.NoteOnEvent(tick=0, channel=1, data=[53, 0]),
   midi.NoteOnEvent(tick=0, channel=1, data=[40, 127]),
   midi.NoteOnEvent(tick=60, channel=1, data=[40, 0]),
   midi.NoteOnEvent(tick=0, channel=1, data=[40, 127]),
   midi.NoteOnEvent(tick=60, channel=1, data=[40, 0]),
   midi.NoteOnEvent(tick=0, channel=1, data=[40, 127]),
   midi.NoteOnEvent(tick=40, channel=1, data=[40, 0]),
   midi.NoteOnEvent(tick=0, channel=1, data=[40, 127]),
   midi.NoteOnEvent(tick=40, channel=1, data=[40, 0]),
   midi.NoteOnEvent(tick=0, channel=1, data=[40, 127]),
   midi.NoteOnEvent(tick=40, channel=1, data=[40, 0]),
   midi.NoteOnEvent(tick=0, channel=1, data=[40, 127]),
   midi.NoteOnEvent(tick=60, channel=1, data=[40, 0]),
   midi.NoteOnEvent(tick=0, channel=1, data=[40, 127]),
   midi.NoteOnEvent(tick=60, channel=1, data=[40, 0]),
   midi.NoteOnEvent(tick=0, channel=1, data=[40, 127]),
   midi.NoteOnEvent(tick=40, channel=1, data=[40, 0]),
   midi.NoteOnEvent(tick=0, channel=1, data=[40, 127]),
   midi.NoteOnEvent(tick=40, channel=1, data=[40, 0]),
   midi.NoteOnEvent(tick=0, channel=1, data=[40, 127]),
   midi.NoteOnEvent(tick=40, channel=1, data=[40, 0]),
   midi.NoteOnEvent(tick=0, channel=1, data=[40, 127]),
   midi.NoteOnEvent(tick=60, channel=1, data=[40, 0]),
   midi.NoteOnEvent(tick=0, channel=1, data=[40, 127]),
   midi.NoteOnEvent(tick=60, channel=1, data=[40, 0]),
   midi.NoteOnEvent(tick=0, channel=1, data=[40, 127]),
   midi.NoteOnEvent(tick=40, channel=1, data=[40, 0]),
   midi.NoteOnEvent(tick=0, channel=1, data=[40, 127]),
   midi.NoteOnEvent(tick=40, channel=1, data=[40, 0]),
   midi.NoteOnEvent(tick=0, channel=1, data=[40, 127]),
   midi.NoteOnEvent(tick=40, channel=1, data=[40, 0]),
   midi.NoteOnEvent(tick=0, channel=1, data=[60, 127]),
   midi.NoteOnEvent(tick=0, channel=1, data=[53, 127]),
   midi.NoteOnEvent(tick=30, channel=1, data=[60, 0]),
   midi.NoteOnEvent(tick=0, channel=1, data=[53, 0]),
   midi.NoteOnEvent(tick=0, channel=1, data=[52, 127]),
   midi.NoteOnEvent(tick=0, channel=1, data=[59, 127]),
   midi.NoteOnEvent(tick=90, channel=1, data=[52, 0]),
   midi.NoteOnEvent(tick=0, channel=1, data=[59, 0]),
   midi.NoteOnEvent(tick=0, channel=1, data=[59, 127]),
   midi.NoteOnEvent(tick=0, channel=1, data=[52, 127]),
   midi.NoteOnEvent(tick=120, channel=1, data=[59, 0]),
   midi.NoteOnEvent(tick=0, channel=1, data=[52, 0]),
   midi.NoteOnEvent(tick=0, channel=1, data=[40, 127]),
   midi.NoteOnEvent(tick=60, channel=1, data=[40, 0]),
   midi.NoteOnEvent(tick=0, channel=1, data=[40, 127]),
   midi.NoteOnEvent(tick=60, channel=1, data=[40, 0]),
   midi.NoteOnEvent(tick=0, channel=1, data=[40, 127]),
   midi.NoteOnEvent(tick=40, channel=1, data=[40, 0]),
   midi.NoteOnEvent(tick=0, channel=1, data=[40, 127]),
   midi.NoteOnEvent(tick=40, channel=1, data=[40, 0]),
   midi.NoteOnEvent(tick=0, channel=1, data=[40, 127]),
   midi.NoteOnEvent(tick=40, channel=1, data=[40, 0]),
   midi.NoteOnEvent(tick=0, channel=1, data=[40, 127]),
   midi.NoteOnEvent(tick=60, channel=1, data=[40, 0]),
   midi.NoteOnEvent(tick=0, channel=1, data=[40, 127]),
   midi.NoteOnEvent(tick=60, channel=1, data=[40, 0]),
   midi.NoteOnEvent(tick=0, channel=1, data=[40, 127]),
   midi.NoteOnEvent(tick=40, channel=1, data=[40, 0]),
   midi.NoteOnEvent(tick=0, channel=1, data=[40, 127]),
   midi.NoteOnEvent(tick=40, channel=1, data=[40, 0]),
   midi.NoteOnEvent(tick=0, channel=1, data=[40, 127]),
   midi.NoteOnEvent(tick=40, channel=1, data=[40, 0]),
   midi.NoteOnEvent(tick=0, channel=1, data=[40, 127]),
   midi.NoteOnEvent(tick=60, channel=1, data=[40, 0]),
   midi.NoteOnEvent(tick=0, channel=1, data=[40, 127]),
   midi.NoteOnEvent(tick=60, channel=1, data=[40, 0]),
   midi.NoteOnEvent(tick=0, channel=1, data=[40, 127]),
   midi.NoteOnEvent(tick=40, channel=1, data=[40, 0]),
   midi.NoteOnEvent(tick=0, channel=1, data=[40, 127]),
   midi.NoteOnEvent(tick=40, channel=1, data=[40, 0]),
   midi.NoteOnEvent(tick=0, channel=1, data=[40, 127]),
   midi.NoteOnEvent(tick=40, channel=1, data=[40, 0]),
   midi.NoteOnEvent(tick=0, channel=1, data=[60, 127]),
   midi.NoteOnEvent(tick=0, channel=1, data=[53, 127]),
   midi.NoteOnEvent(tick=240, channel=1, data=[60, 0]),
   midi.NoteOnEvent(tick=0, channel=1, data=[53, 0]),
   midi.NoteOnEvent(tick=0, channel=1, data=[40, 127]),
   midi.NoteOnEvent(tick=60, channel=1, data=[40, 0]),
   midi.NoteOnEvent(tick=0, channel=1, data=[40, 127]),
   midi.NoteOnEvent(tick=60, channel=1, data=[40, 0]),
   midi.NoteOnEvent(tick=0, channel=1, data=[40, 127]),
   midi.NoteOnEvent(tick=40, channel=1, data=[40, 0]),
   midi.NoteOnEvent(tick=0, channel=1, data=[40, 127]),
   midi.NoteOnEvent(tick=40, channel=1, data=[40, 0]),
   midi.NoteOnEvent(tick=0, channel=1, data=[40, 127]),
   midi.NoteOnEvent(tick=40, channel=1, data=[40, 0]),
   midi.NoteOnEvent(tick=0, channel=1, data=[40, 127]),
   midi.NoteOnEvent(tick=60, channel=1, data=[40, 0]),
   midi.NoteOnEvent(tick=0, channel=1, data=[40, 127]),
   midi.NoteOnEvent(tick=60, channel=1, data=[40, 0]),
   midi.NoteOnEvent(tick=0, channel=1, data=[40, 127]),
   midi.NoteOnEvent(tick=40, channel=1, data=[40, 0]),
   midi.NoteOnEvent(tick=0, channel=1, data=[40, 127]),
   midi.NoteOnEvent(tick=40, channel=1, data=[40, 0]),
   midi.NoteOnEvent(tick=0, channel=1, data=[40, 127]),
   midi.NoteOnEvent(tick=40, channel=1, data=[40, 0]),
   midi.NoteOnEvent(tick=0, channel=1, data=[40, 127]),
   midi.NoteOnEvent(tick=60, channel=1, data=[40, 0]),
   midi.NoteOnEvent(tick=0, channel=1, data=[40, 127]),
   midi.NoteOnEvent(tick=60, channel=1, data=[40, 0]),
   midi.NoteOnEvent(tick=0, channel=1, data=[40, 127]),
   midi.NoteOnEvent(tick=40, channel=1, data=[40, 0]),
   midi.NoteOnEvent(tick=0, channel=1, data=[40, 127]),
   midi.NoteOnEvent(tick=40, channel=1, data=[40, 0]),
   midi.NoteOnEvent(tick=0, channel=1, data=[40, 127]),
   midi.NoteOnEvent(tick=40, channel=1, data=[40, 0]),
   midi.NoteOnEvent(tick=0, channel=1, data=[60, 127]),
   midi.NoteOnEvent(tick=0, channel=1, data=[53, 127]),
   midi.NoteOnEvent(tick=30, channel=1, data=[60, 0]),
   midi.NoteOnEvent(tick=0, channel=1, data=[53, 0]),
   midi.NoteOnEvent(tick=0, channel=1, data=[52, 127]),
   midi.NoteOnEvent(tick=0, channel=1, data=[59, 127]),
   midi.NoteOnEvent(tick=90, channel=1, data=[52, 0]),
   midi.NoteOnEvent(tick=0, channel=1, data=[59, 0]),
   midi.NoteOnEvent(tick=0, channel=1, data=[59, 127]),
   midi.NoteOnEvent(tick=0, channel=1, data=[52, 127]),
   midi.NoteOnEvent(tick=120, channel=1, data=[59, 0]),
   midi.NoteOnEvent(tick=0, channel=1, data=[52, 0]),
   midi.NoteOnEvent(tick=0, channel=1, data=[40, 127]),
   midi.NoteOnEvent(tick=60, channel=1, data=[40, 0]),
   midi.NoteOnEvent(tick=0, channel=1, data=[40, 127]),
   midi.NoteOnEvent(tick=60, channel=1, data=[40, 0]),
   midi.NoteOnEvent(tick=0, channel=1, data=[40, 127]),
   midi.NoteOnEvent(tick=40, channel=1, data=[40, 0]),
   midi.NoteOnEvent(tick=0, channel=1, data=[40, 127]),
   midi.NoteOnEvent(tick=40, channel=1, data=[40, 0]),
   midi.NoteOnEvent(tick=0, channel=1, data=[40, 127]),
   midi.NoteOnEvent(tick=40, channel=1, data=[40, 0]),
   midi.NoteOnEvent(tick=0, channel=1, data=[40, 127]),
   midi.NoteOnEvent(tick=60, channel=1, data=[40, 0]),
   midi.NoteOnEvent(tick=0, channel=1, data=[40, 127]),
   midi.NoteOnEvent(tick=60, channel=1, data=[40, 0]),
   midi.NoteOnEvent(tick=0, channel=1, data=[40, 127]),
   midi.NoteOnEvent(tick=40, channel=1, data=[40, 0]),
   midi.NoteOnEvent(tick=0, channel=1, data=[40, 127]),
   midi.NoteOnEvent(tick=40, channel=1, data=[40, 0]),
   midi.NoteOnEvent(tick=0, channel=1, data=[40, 127]),
   midi.NoteOnEvent(tick=40, channel=1, data=[40, 0]),
   midi.NoteOnEvent(tick=0, channel=1, data=[40, 127]),
   midi.NoteOnEvent(tick=60, channel=1, data=[40, 0]),
   midi.NoteOnEvent(tick=0, channel=1, data=[40, 127]),
   midi.NoteOnEvent(tick=60, channel=1, data=[40, 0]),
   midi.NoteOnEvent(tick=0, channel=1, data=[40, 127]),
   midi.NoteOnEvent(tick=40, channel=1, data=[40, 0]),
   midi.NoteOnEvent(tick=0, channel=1, data=[40, 127]),
   midi.NoteOnEvent(tick=40, channel=1, data=[40, 0]),
   midi.NoteOnEvent(tick=0, channel=1, data=[40, 127]),
   midi.NoteOnEvent(tick=40, channel=1, data=[40, 0]),
   midi.NoteOnEvent(tick=0, channel=1, data=[60, 127]),
   midi.NoteOnEvent(tick=0, channel=1, data=[53, 127]),
   midi.NoteOnEvent(tick=240, channel=1, data=[60, 0]),
   midi.NoteOnEvent(tick=0, channel=1, data=[53, 0]),
   midi.NoteOnEvent(tick=0, channel=1, data=[40, 127]),
   midi.NoteOnEvent(tick=60, channel=1, data=[40, 0]),
   midi.NoteOnEvent(tick=0, channel=1, data=[40, 127]),
   midi.NoteOnEvent(tick=60, channel=1, data=[40, 0]),
   midi.NoteOnEvent(tick=0, channel=1, data=[40, 127]),
   midi.NoteOnEvent(tick=40, channel=1, data=[40, 0]),
   midi.NoteOnEvent(tick=0, channel=1, data=[40, 127]),
   midi.NoteOnEvent(tick=40, channel=1, data=[40, 0]),
   midi.NoteOnEvent(tick=0, channel=1, data=[40, 127]),
   midi.NoteOnEvent(tick=40, channel=1, data=[40, 0]),
   midi.NoteOnEvent(tick=0, channel=1, data=[40, 127]),
   midi.NoteOnEvent(tick=60, channel=1, data=[40, 0]),
   midi.NoteOnEvent(tick=0, channel=1, data=[40, 127]),
   midi.NoteOnEvent(tick=60, channel=1, data=[40, 0]),
   midi.NoteOnEvent(tick=0, channel=1, data=[40, 127]),
   midi.NoteOnEvent(tick=40, channel=1, data=[40, 0]),
   midi.NoteOnEvent(tick=0, channel=1, data=[40, 127]),
   midi.NoteOnEvent(tick=40, channel=1, data=[40, 0]),
   midi.NoteOnEvent(tick=0, channel=1, data=[40, 127]),
   midi.NoteOnEvent(tick=40, channel=1, data=[40, 0]),
   midi.NoteOnEvent(tick=0, channel=1, data=[40, 127]),
   midi.NoteOnEvent(tick=60, channel=1, data=[40, 0]),
   midi.NoteOnEvent(tick=0, channel=1, data=[40, 127]),
   midi.NoteOnEvent(tick=60, channel=1, data=[40, 0]),
   midi.NoteOnEvent(tick=0, channel=1, data=[40, 127]),
   midi.NoteOnEvent(tick=40, channel=1, data=[40, 0]),
   midi.NoteOnEvent(tick=0, channel=1, data=[40, 127]),
   midi.NoteOnEvent(tick=40, channel=1, data=[40, 0]),
   midi.NoteOnEvent(tick=0, channel=1, data=[40, 127]),
   midi.NoteOnEvent(tick=40, channel=1, data=[40, 0]),
   midi.NoteOnEvent(tick=0, channel=1, data=[60, 127]),
   midi.NoteOnEvent(tick=0, channel=1, data=[53, 127]),
   midi.NoteOnEvent(tick=30, channel=1, data=[60, 0]),
   midi.NoteOnEvent(tick=0, channel=1, data=[53, 0]),
   midi.NoteOnEvent(tick=0, channel=1, data=[52, 127]),
   midi.NoteOnEvent(tick=0, channel=1, data=[59, 127]),
   midi.NoteOnEvent(tick=90, channel=1, data=[52, 0]),
   midi.NoteOnEvent(tick=0, channel=1, data=[59, 0]),
   midi.NoteOnEvent(tick=0, channel=1, data=[59, 127]),
   midi.NoteOnEvent(tick=0, channel=1, data=[52, 127]),
   midi.NoteOnEvent(tick=120, channel=1, data=[59, 0]),
   midi.NoteOnEvent(tick=0, channel=1, data=[52, 0]),
   midi.NoteOnEvent(tick=0, channel=1, data=[40, 127]),
   midi.NoteOnEvent(tick=60, channel=1, data=[40, 0]),
   midi.NoteOnEvent(tick=0, channel=1, data=[40, 127]),
   midi.NoteOnEvent(tick=60, channel=1, data=[40, 0]),
   midi.NoteOnEvent(tick=0, channel=1, data=[40, 127]),
   midi.NoteOnEvent(tick=40, channel=1, data=[40, 0]),
   midi.NoteOnEvent(tick=0, channel=1, data=[40, 127]),
   midi.NoteOnEvent(tick=40, channel=1, data=[40, 0]),
   midi.NoteOnEvent(tick=0, channel=1, data=[40, 127]),
   midi.NoteOnEvent(tick=40, channel=1, data=[40, 0]),
   midi.NoteOnEvent(tick=0, channel=1, data=[40, 127]),
   midi.NoteOnEvent(tick=60, channel=1, data=[40, 0]),
   midi.NoteOnEvent(tick=0, channel=1, data=[40, 127]),
   midi.NoteOnEvent(tick=60, channel=1, data=[40, 0]),
   midi.NoteOnEvent(tick=0, channel=1, data=[40, 127]),
   midi.NoteOnEvent(tick=40, channel=1, data=[40, 0]),
   midi.NoteOnEvent(tick=0, channel=1, data=[40, 127]),
   midi.NoteOnEvent(tick=40, channel=1, data=[40, 0]),
   midi.NoteOnEvent(tick=0, channel=1, data=[40, 127]),
   midi.NoteOnEvent(tick=40, channel=1, data=[40, 0]),
   midi.NoteOnEvent(tick=0, channel=1, data=[40, 127]),
   midi.NoteOnEvent(tick=60, channel=1, data=[40, 0]),
   midi.NoteOnEvent(tick=0, channel=1, data=[40, 127]),
   midi.NoteOnEvent(tick=60, channel=1, data=[40, 0]),
   midi.NoteOnEvent(tick=0, channel=1, data=[40, 127]),
   midi.NoteOnEvent(tick=40, channel=1, data=[40, 0]),
   midi.NoteOnEvent(tick=0, channel=1, data=[40, 127]),
   midi.NoteOnEvent(tick=40, channel=1, data=[40, 0]),
   midi.NoteOnEvent(tick=0, channel=1, data=[40, 127]),
   midi.NoteOnEvent(tick=40, channel=1, data=[40, 0]),
   midi.NoteOnEvent(tick=0, channel=1, data=[60, 127]),
   midi.NoteOnEvent(tick=0, channel=1, data=[53, 127]),
   midi.NoteOnEvent(tick=240, channel=1, data=[60, 0]),
   midi.NoteOnEvent(tick=0, channel=1, data=[53, 0]),
   midi.NoteOnEvent(tick=0, channel=1, data=[40, 127]),
   midi.NoteOnEvent(tick=60, channel=1, data=[40, 0]),
   midi.NoteOnEvent(tick=0, channel=1, data=[40, 127]),
   midi.NoteOnEvent(tick=60, channel=1, data=[40, 0]),
   midi.NoteOnEvent(tick=0, channel=1, data=[40, 127]),
   midi.NoteOnEvent(tick=40, channel=1, data=[40, 0]),
   midi.NoteOnEvent(tick=0, channel=1, data=[40, 127]),
   midi.NoteOnEvent(tick=40, channel=1, data=[40, 0]),
   midi.NoteOnEvent(tick=0, channel=1, data=[40, 127]),
   midi.NoteOnEvent(tick=40, channel=1, data=[40, 0]),
   midi.NoteOnEvent(tick=0, channel=1, data=[40, 127]),
   midi.NoteOnEvent(tick=60, channel=1, data=[40, 0]),
   midi.NoteOnEvent(tick=0, channel=1, data=[40, 127]),
   midi.NoteOnEvent(tick=60, channel=1, data=[40, 0]),
   midi.NoteOnEvent(tick=0, channel=1, data=[40, 127]),
   midi.NoteOnEvent(tick=40, channel=1, data=[40, 0]),
   midi.NoteOnEvent(tick=0, channel=1, data=[40, 127]),
   midi.NoteOnEvent(tick=40, channel=1, data=[40, 0]),
   midi.NoteOnEvent(tick=0, channel=1, data=[40, 127]),
   midi.NoteOnEvent(tick=40, channel=1, data=[40, 0]),
   midi.NoteOnEvent(tick=0, channel=1, data=[40, 127]),
   midi.NoteOnEvent(tick=60, channel=1, data=[40, 0]),
   midi.NoteOnEvent(tick=0, channel=1, data=[40, 127]),
   midi.NoteOnEvent(tick=60, channel=1, data=[40, 0]),
   midi.NoteOnEvent(tick=0, channel=1, data=[40, 127]),
   midi.NoteOnEvent(tick=40, channel=1, data=[40, 0]),
   midi.NoteOnEvent(tick=0, channel=1, data=[40, 127]),
   midi.NoteOnEvent(tick=40, channel=1, data=[40, 0]),
   midi.NoteOnEvent(tick=0, channel=1, data=[40, 127]),
   midi.NoteOnEvent(tick=40, channel=1, data=[40, 0]),
   midi.NoteOnEvent(tick=0, channel=1, data=[60, 127]),
   midi.NoteOnEvent(tick=0, channel=1, data=[53, 127]),
   midi.NoteOnEvent(tick=30, channel=1, data=[60, 0]),
   midi.NoteOnEvent(tick=0, channel=1, data=[53, 0]),
   midi.NoteOnEvent(tick=0, channel=1, data=[52, 127]),
   midi.NoteOnEvent(tick=0, channel=1, data=[59, 127]),
   midi.NoteOnEvent(tick=90, channel=1, data=[52, 0]),
   midi.NoteOnEvent(tick=0, channel=1, data=[59, 0]),
   midi.NoteOnEvent(tick=0, channel=1, data=[59, 127]),
   midi.NoteOnEvent(tick=0, channel=1, data=[52, 127]),
   midi.NoteOnEvent(tick=120, channel=1, data=[59, 0]),
   midi.NoteOnEvent(tick=0, channel=1, data=[52, 0]),
   midi.NoteOnEvent(tick=0, channel=1, data=[40, 127]),
   midi.NoteOnEvent(tick=60, channel=1, data=[40, 0]),
   midi.NoteOnEvent(tick=0, channel=1, data=[40, 127]),
   midi.NoteOnEvent(tick=60, channel=1, data=[40, 0]),
   midi.NoteOnEvent(tick=0, channel=1, data=[40, 127]),
   midi.NoteOnEvent(tick=40, channel=1, data=[40, 0]),
   midi.NoteOnEvent(tick=0, channel=1, data=[40, 127]),
   midi.NoteOnEvent(tick=40, channel=1, data=[40, 0]),
   midi.NoteOnEvent(tick=0, channel=1, data=[40, 127]),
   midi.NoteOnEvent(tick=40, channel=1, data=[40, 0]),
   midi.NoteOnEvent(tick=0, channel=1, data=[40, 127]),
   midi.NoteOnEvent(tick=60, channel=1, data=[40, 0]),
   midi.NoteOnEvent(tick=0, channel=1, data=[40, 127]),
   midi.NoteOnEvent(tick=60, channel=1, data=[40, 0]),
   midi.NoteOnEvent(tick=0, channel=1, data=[40, 127]),
   midi.NoteOnEvent(tick=40, channel=1, data=[40, 0]),
   midi.NoteOnEvent(tick=0, channel=1, data=[40, 127]),
   midi.NoteOnEvent(tick=40, channel=1, data=[40, 0]),
   midi.NoteOnEvent(tick=0, channel=1, data=[40, 127]),
   midi.NoteOnEvent(tick=40, channel=1, data=[40, 0]),
   midi.NoteOnEvent(tick=0, channel=1, data=[40, 127]),
   midi.NoteOnEvent(tick=60, channel=1, data=[40, 0]),
   midi.NoteOnEvent(tick=0, channel=1, data=[40, 127]),
   midi.NoteOnEvent(tick=60, channel=1, data=[40, 0]),
   midi.NoteOnEvent(tick=0, channel=1, data=[40, 127]),
   midi.NoteOnEvent(tick=40, channel=1, data=[40, 0]),
   midi.NoteOnEvent(tick=0, channel=1, data=[40, 127]),
   midi.NoteOnEvent(tick=40, channel=1, data=[40, 0]),
   midi.NoteOnEvent(tick=0, channel=1, data=[40, 127]),
   midi.NoteOnEvent(tick=40, channel=1, data=[40, 0]),
   midi.NoteOnEvent(tick=0, channel=1, data=[60, 127]),
   midi.NoteOnEvent(tick=0, channel=1, data=[53, 127]),
   midi.NoteOnEvent(tick=240, channel=1, data=[60, 0]),
   midi.NoteOnEvent(tick=0, channel=1, data=[53, 0]),
   midi.NoteOnEvent(tick=0, channel=1, data=[40, 127]),
   midi.NoteOnEvent(tick=60, channel=1, data=[40, 0]),
   midi.NoteOnEvent(tick=0, channel=1, data=[40, 127]),
   midi.NoteOnEvent(tick=60, channel=1, data=[40, 0]),
   midi.NoteOnEvent(tick=0, channel=1, data=[40, 127]),
   midi.NoteOnEvent(tick=40, channel=1, data=[40, 0]),
   midi.NoteOnEvent(tick=0, channel=1, data=[40, 127]),
   midi.NoteOnEvent(tick=40, channel=1, data=[40, 0]),
   midi.NoteOnEvent(tick=0, channel=1, data=[40, 127]),
   midi.NoteOnEvent(tick=40, channel=1, data=[40, 0]),
   midi.NoteOnEvent(tick=0, channel=1, data=[40, 127]),
   midi.NoteOnEvent(tick=60, channel=1, data=[40, 0]),
   midi.NoteOnEvent(tick=0, channel=1, data=[40, 127]),
   midi.NoteOnEvent(tick=60, channel=1, data=[40, 0]),
   midi.NoteOnEvent(tick=0, channel=1, data=[40, 127]),
   midi.NoteOnEvent(tick=40, channel=1, data=[40, 0]),
   midi.NoteOnEvent(tick=0, channel=1, data=[40, 127]),
   midi.NoteOnEvent(tick=40, channel=1, data=[40, 0]),
   midi.NoteOnEvent(tick=0, channel=1, data=[40, 127]),
   midi.NoteOnEvent(tick=40, channel=1, data=[40, 0]),
   midi.NoteOnEvent(tick=0, channel=1, data=[40, 127]),
   midi.NoteOnEvent(tick=60, channel=1, data=[40, 0]),
   midi.NoteOnEvent(tick=0, channel=1, data=[40, 127]),
   midi.NoteOnEvent(tick=60, channel=1, data=[40, 0]),
   midi.NoteOnEvent(tick=0, channel=1, data=[40, 127]),
   midi.NoteOnEvent(tick=40, channel=1, data=[40, 0]),
   midi.NoteOnEvent(tick=0, channel=1, data=[40, 127]),
   midi.NoteOnEvent(tick=40, channel=1, data=[40, 0]),
   midi.NoteOnEvent(tick=0, channel=1, data=[40, 127]),
   midi.NoteOnEvent(tick=40, channel=1, data=[40, 0]),
   midi.NoteOnEvent(tick=0, channel=1, data=[60, 127]),
   midi.NoteOnEvent(tick=0, channel=1, data=[53, 127]),
   midi.NoteOnEvent(tick=30, channel=1, data=[60, 0]),
   midi.NoteOnEvent(tick=0, channel=1, data=[53, 0]),
   midi.NoteOnEvent(tick=0, channel=1, data=[52, 127]),
   midi.NoteOnEvent(tick=0, channel=1, data=[59, 127]),
   midi.NoteOnEvent(tick=90, channel=1, data=[52, 0]),
   midi.NoteOnEvent(tick=0, channel=1, data=[59, 0]),
   midi.NoteOnEvent(tick=0, channel=1, data=[59, 127]),
   midi.NoteOnEvent(tick=0, channel=1, data=[52, 127]),
   midi.NoteOnEvent(tick=120, channel=1, data=[59, 0]),
   midi.NoteOnEvent(tick=0, channel=1, data=[52, 0]),
   midi.NoteOnEvent(tick=0, channel=1, data=[40, 127]),
   midi.NoteOnEvent(tick=60, channel=1, data=[40, 0]),
   midi.NoteOnEvent(tick=0, channel=1, data=[40, 127]),
   midi.NoteOnEvent(tick=60, channel=1, data=[40, 0]),
   midi.NoteOnEvent(tick=0, channel=1, data=[40, 127]),
   midi.NoteOnEvent(tick=40, channel=1, data=[40, 0]),
   midi.NoteOnEvent(tick=0, channel=1, data=[40, 127]),
   midi.NoteOnEvent(tick=40, channel=1, data=[40, 0]),
   midi.NoteOnEvent(tick=0, channel=1, data=[40, 127]),
   midi.NoteOnEvent(tick=40, channel=1, data=[40, 0]),
   midi.NoteOnEvent(tick=0, channel=1, data=[40, 127]),
   midi.NoteOnEvent(tick=60, channel=1, data=[40, 0]),
   midi.NoteOnEvent(tick=0, channel=1, data=[40, 127]),
   midi.NoteOnEvent(tick=60, channel=1, data=[40, 0]),
   midi.NoteOnEvent(tick=0, channel=1, data=[40, 127]),
   midi.NoteOnEvent(tick=40, channel=1, data=[40, 0]),
   midi.NoteOnEvent(tick=0, channel=1, data=[40, 127]),
   midi.NoteOnEvent(tick=40, channel=1, data=[40, 0]),
   midi.NoteOnEvent(tick=0, channel=1, data=[40, 127]),
   midi.NoteOnEvent(tick=40, channel=1, data=[40, 0]),
   midi.NoteOnEvent(tick=0, channel=1, data=[40, 127]),
   midi.NoteOnEvent(tick=60, channel=1, data=[40, 0]),
   midi.NoteOnEvent(tick=0, channel=1, data=[40, 127]),
   midi.NoteOnEvent(tick=60, channel=1, data=[40, 0]),
   midi.NoteOnEvent(tick=0, channel=1, data=[40, 127]),
   midi.NoteOnEvent(tick=40, channel=1, data=[40, 0]),
   midi.NoteOnEvent(tick=0, channel=1, data=[40, 127]),
   midi.NoteOnEvent(tick=40, channel=1, data=[40, 0]),
   midi.NoteOnEvent(tick=0, channel=1, data=[40, 127]),
   midi.NoteOnEvent(tick=40, channel=1, data=[40, 0]),
   midi.NoteOnEvent(tick=0, channel=1, data=[60, 127]),
   midi.NoteOnEvent(tick=0, channel=1, data=[53, 127]),
   midi.NoteOnEvent(tick=240, channel=1, data=[60, 0]),
   midi.NoteOnEvent(tick=0, channel=1, data=[53, 0]),
   midi.NoteOnEvent(tick=0, channel=1, data=[40, 127]),
   midi.NoteOnEvent(tick=60, channel=1, data=[40, 0]),
   midi.NoteOnEvent(tick=0, channel=1, data=[40, 127]),
   midi.NoteOnEvent(tick=60, channel=1, data=[40, 0]),
   midi.NoteOnEvent(tick=0, channel=1, data=[40, 127]),
   midi.NoteOnEvent(tick=40, channel=1, data=[40, 0]),
   midi.NoteOnEvent(tick=0, channel=1, data=[40, 127]),
   midi.NoteOnEvent(tick=40, channel=1, data=[40, 0]),
   midi.NoteOnEvent(tick=0, channel=1, data=[40, 127]),
   midi.NoteOnEvent(tick=40, channel=1, data=[40, 0]),
   midi.NoteOnEvent(tick=0, channel=1, data=[40, 127]),
   midi.NoteOnEvent(tick=60, channel=1, data=[40, 0]),
   midi.NoteOnEvent(tick=0, channel=1, data=[40, 127]),
   midi.NoteOnEvent(tick=60, channel=1, data=[40, 0]),
   midi.NoteOnEvent(tick=0, channel=1, data=[40, 127]),
   midi.NoteOnEvent(tick=40, channel=1, data=[40, 0]),
   midi.NoteOnEvent(tick=0, channel=1, data=[40, 127]),
   midi.NoteOnEvent(tick=40, channel=1, data=[40, 0]),
   midi.NoteOnEvent(tick=0, channel=1, data=[40, 127]),
   midi.NoteOnEvent(tick=40, channel=1, data=[40, 0]),
   midi.NoteOnEvent(tick=0, channel=1, data=[40, 127]),
   midi.NoteOnEvent(tick=60, channel=1, data=[40, 0]),
   midi.NoteOnEvent(tick=0, channel=1, data=[40, 127]),
   midi.NoteOnEvent(tick=60, channel=1, data=[40, 0]),
   midi.NoteOnEvent(tick=0, channel=1, data=[40, 127]),
   midi.NoteOnEvent(tick=40, channel=1, data=[40, 0]),
   midi.NoteOnEvent(tick=0, channel=1, data=[40, 127]),
   midi.NoteOnEvent(tick=40, channel=1, data=[40, 0]),
   midi.NoteOnEvent(tick=0, channel=1, data=[40, 127]),
   midi.NoteOnEvent(tick=40, channel=1, data=[40, 0]),
   midi.NoteOnEvent(tick=0, channel=1, data=[60, 127]),
   midi.NoteOnEvent(tick=0, channel=1, data=[53, 127]),
   midi.NoteOnEvent(tick=30, channel=1, data=[60, 0]),
   midi.NoteOnEvent(tick=0, channel=1, data=[53, 0]),
   midi.NoteOnEvent(tick=0, channel=1, data=[52, 127]),
   midi.NoteOnEvent(tick=0, channel=1, data=[59, 127]),
   midi.NoteOnEvent(tick=90, channel=1, data=[52, 0]),
   midi.NoteOnEvent(tick=0, channel=1, data=[59, 0]),
   midi.NoteOnEvent(tick=0, channel=1, data=[59, 127]),
   midi.NoteOnEvent(tick=0, channel=1, data=[52, 127]),
   midi.NoteOnEvent(tick=120, channel=1, data=[59, 0]),
   midi.NoteOnEvent(tick=0, channel=1, data=[52, 0]),
   midi.NoteOnEvent(tick=0, channel=1, data=[40, 127]),
   midi.NoteOnEvent(tick=60, channel=1, data=[40, 0]),
   midi.NoteOnEvent(tick=0, channel=1, data=[40, 127]),
   midi.NoteOnEvent(tick=60, channel=1, data=[40, 0]),
   midi.NoteOnEvent(tick=0, channel=1, data=[40, 127]),
   midi.NoteOnEvent(tick=40, channel=1, data=[40, 0]),
   midi.NoteOnEvent(tick=0, channel=1, data=[40, 127]),
   midi.NoteOnEvent(tick=40, channel=1, data=[40, 0]),
   midi.NoteOnEvent(tick=0, channel=1, data=[40, 127]),
   midi.NoteOnEvent(tick=40, channel=1, data=[40, 0]),
   midi.NoteOnEvent(tick=0, channel=1, data=[40, 127]),
   midi.NoteOnEvent(tick=60, channel=1, data=[40, 0]),
   midi.NoteOnEvent(tick=0, channel=1, data=[40, 127]),
   midi.NoteOnEvent(tick=60, channel=1, data=[40, 0]),
   midi.NoteOnEvent(tick=0, channel=1, data=[40, 127]),
   midi.NoteOnEvent(tick=40, channel=1, data=[40, 0]),
   midi.NoteOnEvent(tick=0, channel=1, data=[40, 127]),
   midi.NoteOnEvent(tick=40, channel=1, data=[40, 0]),
   midi.NoteOnEvent(tick=0, channel=1, data=[40, 127]),
   midi.NoteOnEvent(tick=40, channel=1, data=[40, 0]),
   midi.NoteOnEvent(tick=0, channel=1, data=[40, 127]),
   midi.NoteOnEvent(tick=60, channel=1, data=[40, 0]),
   midi.NoteOnEvent(tick=0, channel=1, data=[40, 127]),
   midi.NoteOnEvent(tick=60, channel=1, data=[40, 0]),
   midi.NoteOnEvent(tick=0, channel=1, data=[40, 127]),
   midi.NoteOnEvent(tick=40, channel=1, data=[40, 0]),
   midi.NoteOnEvent(tick=0, channel=1, data=[40, 127]),
   midi.NoteOnEvent(tick=40, channel=1, data=[40, 0]),
   midi.NoteOnEvent(tick=0, channel=1, data=[40, 127]),
   midi.NoteOnEvent(tick=40, channel=1, data=[40, 0]),
   midi.NoteOnEvent(tick=0, channel=1, data=[60, 127]),
   midi.NoteOnEvent(tick=0, channel=1, data=[53, 127]),
   midi.NoteOnEvent(tick=240, channel=1, data=[60, 0]),
   midi.NoteOnEvent(tick=0, channel=1, data=[53, 0]),
   midi.NoteOnEvent(tick=0, channel=1, data=[40, 127]),
   midi.NoteOnEvent(tick=60, channel=1, data=[40, 0]),
   midi.NoteOnEvent(tick=0, channel=1, data=[40, 127]),
   midi.NoteOnEvent(tick=60, channel=1, data=[40, 0]),
   midi.NoteOnEvent(tick=0, channel=1, data=[40, 127]),
   midi.NoteOnEvent(tick=40, channel=1, data=[40, 0]),
   midi.NoteOnEvent(tick=0, channel=1, data=[40, 127]),
   midi.NoteOnEvent(tick=40, channel=1, data=[40, 0]),
   midi.NoteOnEvent(tick=0, channel=1, data=[40, 127]),
   midi.NoteOnEvent(tick=40, channel=1, data=[40, 0]),
   midi.NoteOnEvent(tick=0, channel=1, data=[40, 127]),
   midi.NoteOnEvent(tick=60, channel=1, data=[40, 0]),
   midi.NoteOnEvent(tick=0, channel=1, data=[40, 127]),
   midi.NoteOnEvent(tick=60, channel=1, data=[40, 0]),
   midi.NoteOnEvent(tick=0, channel=1, data=[40, 127]),
   midi.NoteOnEvent(tick=40, channel=1, data=[40, 0]),
   midi.NoteOnEvent(tick=0, channel=1, data=[40, 127]),
   midi.NoteOnEvent(tick=40, channel=1, data=[40, 0]),
   midi.NoteOnEvent(tick=0, channel=1, data=[40, 127]),
   midi.NoteOnEvent(tick=40, channel=1, data=[40, 0]),
   midi.NoteOnEvent(tick=0, channel=1, data=[40, 127]),
   midi.NoteOnEvent(tick=60, channel=1, data=[40, 0]),
   midi.NoteOnEvent(tick=0, channel=1, data=[40, 127]),
   midi.NoteOnEvent(tick=60, channel=1, data=[40, 0]),
   midi.NoteOnEvent(tick=0, channel=1, data=[40, 127]),
   midi.NoteOnEvent(tick=40, channel=1, data=[40, 0]),
   midi.NoteOnEvent(tick=0, channel=1, data=[40, 127]),
   midi.NoteOnEvent(tick=40, channel=1, data=[40, 0]),
   midi.NoteOnEvent(tick=0, channel=1, data=[40, 127]),
   midi.NoteOnEvent(tick=40, channel=1, data=[40, 0]),
   midi.NoteOnEvent(tick=0, channel=1, data=[60, 127]),
   midi.NoteOnEvent(tick=0, channel=1, data=[53, 127]),
   midi.NoteOnEvent(tick=30, channel=1, data=[60, 0]),
   midi.NoteOnEvent(tick=0, channel=1, data=[53, 0]),
   midi.NoteOnEvent(tick=0, channel=1, data=[52, 127]),
   midi.NoteOnEvent(tick=0, channel=1, data=[59, 127]),
   midi.NoteOnEvent(tick=90, channel=1, data=[52, 0]),
   midi.NoteOnEvent(tick=0, channel=1, data=[59, 0]),
   midi.NoteOnEvent(tick=0, channel=1, data=[59, 127]),
   midi.NoteOnEvent(tick=0, channel=1, data=[52, 127]),
   midi.NoteOnEvent(tick=120, channel=1, data=[59, 0]),
   midi.NoteOnEvent(tick=0, channel=1, data=[52, 0]),
   midi.NoteOnEvent(tick=0, channel=1, data=[40, 127]),
   midi.NoteOnEvent(tick=60, channel=1, data=[40, 0]),
   midi.NoteOnEvent(tick=0, channel=1, data=[40, 127]),
   midi.NoteOnEvent(tick=60, channel=1, data=[40, 0]),
   midi.NoteOnEvent(tick=0, channel=1, data=[40, 127]),
   midi.NoteOnEvent(tick=40, channel=1, data=[40, 0]),
   midi.NoteOnEvent(tick=0, channel=1, data=[40, 127]),
   midi.NoteOnEvent(tick=40, channel=1, data=[40, 0]),
   midi.NoteOnEvent(tick=0, channel=1, data=[40, 127]),
   midi.NoteOnEvent(tick=40, channel=1, data=[40, 0]),
   midi.NoteOnEvent(tick=0, channel=1, data=[40, 127]),
   midi.NoteOnEvent(tick=60, channel=1, data=[40, 0]),
   midi.NoteOnEvent(tick=0, channel=1, data=[40, 127]),
   midi.NoteOnEvent(tick=60, channel=1, data=[40, 0]),
   midi.NoteOnEvent(tick=0, channel=1, data=[40, 127]),
   midi.NoteOnEvent(tick=40, channel=1, data=[40, 0]),
   midi.NoteOnEvent(tick=0, channel=1, data=[40, 127]),
   midi.NoteOnEvent(tick=40, channel=1, data=[40, 0]),
   midi.NoteOnEvent(tick=0, channel=1, data=[40, 127]),
   midi.NoteOnEvent(tick=40, channel=1, data=[40, 0]),
   midi.NoteOnEvent(tick=0, channel=1, data=[40, 127]),
   midi.NoteOnEvent(tick=60, channel=1, data=[40, 0]),
   midi.NoteOnEvent(tick=0, channel=1, data=[40, 127]),
   midi.NoteOnEvent(tick=60, channel=1, data=[40, 0]),
   midi.NoteOnEvent(tick=0, channel=1, data=[40, 127]),
   midi.NoteOnEvent(tick=40, channel=1, data=[40, 0]),
   midi.NoteOnEvent(tick=0, channel=1, data=[40, 127]),
   midi.NoteOnEvent(tick=40, channel=1, data=[40, 0]),
   midi.NoteOnEvent(tick=0, channel=1, data=[40, 127]),
   midi.NoteOnEvent(tick=40, channel=1, data=[40, 0]),
   midi.NoteOnEvent(tick=0, channel=1, data=[60, 127]),
   midi.NoteOnEvent(tick=0, channel=1, data=[53, 127]),
   midi.NoteOnEvent(tick=240, channel=1, data=[60, 0]),
   midi.NoteOnEvent(tick=0, channel=1, data=[53, 0]),
   midi.NoteOnEvent(tick=0, channel=1, data=[40, 127]),
   midi.NoteOnEvent(tick=60, channel=1, data=[40, 0]),
   midi.NoteOnEvent(tick=0, channel=1, data=[40, 127]),
   midi.NoteOnEvent(tick=60, channel=1, data=[40, 0]),
   midi.NoteOnEvent(tick=0, channel=1, data=[40, 127]),
   midi.NoteOnEvent(tick=40, channel=1, data=[40, 0]),
   midi.NoteOnEvent(tick=0, channel=1, data=[40, 127]),
   midi.NoteOnEvent(tick=40, channel=1, data=[40, 0]),
   midi.NoteOnEvent(tick=0, channel=1, data=[40, 127]),
   midi.NoteOnEvent(tick=40, channel=1, data=[40, 0]),
   midi.NoteOnEvent(tick=0, channel=1, data=[40, 127]),
   midi.NoteOnEvent(tick=60, channel=1, data=[40, 0]),
   midi.NoteOnEvent(tick=0, channel=1, data=[40, 127]),
   midi.NoteOnEvent(tick=60, channel=1, data=[40, 0]),
   midi.NoteOnEvent(tick=0, channel=1, data=[40, 127]),
   midi.NoteOnEvent(tick=40, channel=1, data=[40, 0]),
   midi.NoteOnEvent(tick=0, channel=1, data=[40, 127]),
   midi.NoteOnEvent(tick=40, channel=1, data=[40, 0]),
   midi.NoteOnEvent(tick=0, channel=1, data=[40, 127]),
   midi.NoteOnEvent(tick=40, channel=1, data=[40, 0]),
   midi.NoteOnEvent(tick=0, channel=1, data=[40, 127]),
   midi.NoteOnEvent(tick=60, channel=1, data=[40, 0]),
   midi.NoteOnEvent(tick=0, channel=1, data=[40, 127]),
   midi.NoteOnEvent(tick=60, channel=1, data=[40, 0]),
   midi.NoteOnEvent(tick=0, channel=1, data=[40, 127]),
   midi.NoteOnEvent(tick=40, channel=1, data=[40, 0]),
   midi.NoteOnEvent(tick=0, channel=1, data=[40, 127]),
   midi.NoteOnEvent(tick=40, channel=1, data=[40, 0]),
   midi.NoteOnEvent(tick=0, channel=1, data=[40, 127]),
   midi.NoteOnEvent(tick=40, channel=1, data=[40, 0]),
   midi.NoteOnEvent(tick=0, channel=1, data=[60, 127]),
   midi.NoteOnEvent(tick=0, channel=1, data=[53, 127]),
   midi.NoteOnEvent(tick=30, channel=1, data=[60, 0]),
   midi.NoteOnEvent(tick=0, channel=1, data=[53, 0]),
   midi.NoteOnEvent(tick=0, channel=1, data=[52, 127]),
   midi.NoteOnEvent(tick=0, channel=1, data=[59, 127]),
   midi.NoteOnEvent(tick=90, channel=1, data=[52, 0]),
   midi.NoteOnEvent(tick=0, channel=1, data=[59, 0]),
   midi.NoteOnEvent(tick=0, channel=1, data=[59, 127]),
   midi.NoteOnEvent(tick=0, channel=1, data=[52, 127]),
   midi.NoteOnEvent(tick=120, channel=1, data=[59, 0]),
   midi.NoteOnEvent(tick=0, channel=1, data=[52, 0]),
   midi.NoteOnEvent(tick=0, channel=1, data=[40, 127]),
   midi.NoteOnEvent(tick=60, channel=1, data=[40, 0]),
   midi.NoteOnEvent(tick=0, channel=1, data=[40, 127]),
   midi.NoteOnEvent(tick=60, channel=1, data=[40, 0]),
   midi.NoteOnEvent(tick=0, channel=1, data=[40, 127]),
   midi.NoteOnEvent(tick=40, channel=1, data=[40, 0]),
   midi.NoteOnEvent(tick=0, channel=1, data=[40, 127]),
   midi.NoteOnEvent(tick=40, channel=1, data=[40, 0]),
   midi.NoteOnEvent(tick=0, channel=1, data=[40, 127]),
   midi.NoteOnEvent(tick=40, channel=1, data=[40, 0]),
   midi.NoteOnEvent(tick=0, channel=1, data=[40, 127]),
   midi.NoteOnEvent(tick=60, channel=1, data=[40, 0]),
   midi.NoteOnEvent(tick=0, channel=1, data=[40, 127]),
   midi.NoteOnEvent(tick=60, channel=1, data=[40, 0]),
   midi.NoteOnEvent(tick=0, channel=1, data=[40, 127]),
   midi.NoteOnEvent(tick=40, channel=1, data=[40, 0]),
   midi.NoteOnEvent(tick=0, channel=1, data=[40, 127]),
   midi.NoteOnEvent(tick=40, channel=1, data=[40, 0]),
   midi.NoteOnEvent(tick=0, channel=1, data=[40, 127]),
   midi.NoteOnEvent(tick=40, channel=1, data=[40, 0]),
   midi.NoteOnEvent(tick=0, channel=1, data=[40, 127]),
   midi.NoteOnEvent(tick=60, channel=1, data=[40, 0]),
   midi.NoteOnEvent(tick=0, channel=1, data=[40, 127]),
   midi.NoteOnEvent(tick=60, channel=1, data=[40, 0]),
   midi.NoteOnEvent(tick=0, channel=1, data=[40, 127]),
   midi.NoteOnEvent(tick=40, channel=1, data=[40, 0]),
   midi.NoteOnEvent(tick=0, channel=1, data=[40, 127]),
   midi.NoteOnEvent(tick=40, channel=1, data=[40, 0]),
   midi.NoteOnEvent(tick=0, channel=1, data=[40, 127]),
   midi.NoteOnEvent(tick=40, channel=1, data=[40, 0]),
   midi.NoteOnEvent(tick=0, channel=1, data=[60, 127]),
   midi.NoteOnEvent(tick=0, channel=1, data=[53, 127]),
   midi.NoteOnEvent(tick=240, channel=1, data=[60, 0]),
   midi.NoteOnEvent(tick=0, channel=1, data=[53, 0]),
   midi.NoteOnEvent(tick=0, channel=1, data=[40, 127]),
   midi.NoteOnEvent(tick=60, channel=1, data=[40, 0]),
   midi.NoteOnEvent(tick=0, channel=1, data=[40, 127]),
   midi.NoteOnEvent(tick=60, channel=1, data=[40, 0]),
   midi.NoteOnEvent(tick=0, channel=1, data=[40, 127]),
   midi.NoteOnEvent(tick=40, channel=1, data=[40, 0]),
   midi.NoteOnEvent(tick=0, channel=1, data=[40, 127]),
   midi.NoteOnEvent(tick=40, channel=1, data=[40, 0]),
   midi.NoteOnEvent(tick=0, channel=1, data=[40, 127]),
   midi.NoteOnEvent(tick=40, channel=1, data=[40, 0]),
   midi.NoteOnEvent(tick=0, channel=1, data=[40, 127]),
   midi.NoteOnEvent(tick=60, channel=1, data=[40, 0]),
   midi.NoteOnEvent(tick=0, channel=1, data=[40, 127]),
   midi.NoteOnEvent(tick=60, channel=1, data=[40, 0]),
   midi.NoteOnEvent(tick=0, channel=1, data=[40, 127]),
   midi.NoteOnEvent(tick=40, channel=1, data=[40, 0]),
   midi.NoteOnEvent(tick=0, channel=1, data=[40, 127]),
   midi.NoteOnEvent(tick=40, channel=1, data=[40, 0]),
   midi.NoteOnEvent(tick=0, channel=1, data=[40, 127]),
   midi.NoteOnEvent(tick=40, channel=1, data=[40, 0]),
   midi.NoteOnEvent(tick=0, channel=1, data=[40, 127]),
   midi.NoteOnEvent(tick=60, channel=1, data=[40, 0]),
   midi.NoteOnEvent(tick=0, channel=1, data=[40, 127]),
   midi.NoteOnEvent(tick=60, channel=1, data=[40, 0]),
   midi.NoteOnEvent(tick=0, channel=1, data=[40, 127]),
   midi.NoteOnEvent(tick=40, channel=1, data=[40, 0]),
   midi.NoteOnEvent(tick=0, channel=1, data=[40, 127]),
   midi.NoteOnEvent(tick=40, channel=1, data=[40, 0]),
   midi.NoteOnEvent(tick=0, channel=1, data=[40, 127]),
   midi.NoteOnEvent(tick=40, channel=1, data=[40, 0]),
   midi.NoteOnEvent(tick=0, channel=1, data=[60, 127]),
   midi.NoteOnEvent(tick=0, channel=1, data=[53, 127]),
   midi.NoteOnEvent(tick=30, channel=1, data=[60, 0]),
   midi.NoteOnEvent(tick=0, channel=1, data=[53, 0]),
   midi.NoteOnEvent(tick=0, channel=1, data=[52, 127]),
   midi.NoteOnEvent(tick=0, channel=1, data=[59, 127]),
   midi.NoteOnEvent(tick=90, channel=1, data=[52, 0]),
   midi.NoteOnEvent(tick=0, channel=1, data=[59, 0]),
   midi.NoteOnEvent(tick=0, channel=1, data=[59, 127]),
   midi.NoteOnEvent(tick=0, channel=1, data=[52, 127]),
   midi.NoteOnEvent(tick=120, channel=1, data=[59, 0]),
   midi.NoteOnEvent(tick=0, channel=1, data=[52, 0]),
   midi.NoteOnEvent(tick=0, channel=1, data=[40, 127]),
   midi.NoteOnEvent(tick=60, channel=1, data=[40, 0]),
   midi.NoteOnEvent(tick=0, channel=1, data=[40, 127]),
   midi.NoteOnEvent(tick=60, channel=1, data=[40, 0]),
   midi.NoteOnEvent(tick=0, channel=1, data=[40, 127]),
   midi.NoteOnEvent(tick=40, channel=1, data=[40, 0]),
   midi.NoteOnEvent(tick=0, channel=1, data=[40, 127]),
   midi.NoteOnEvent(tick=40, channel=1, data=[40, 0]),
   midi.NoteOnEvent(tick=0, channel=1, data=[40, 127]),
   midi.NoteOnEvent(tick=40, channel=1, data=[40, 0]),
   midi.NoteOnEvent(tick=0, channel=1, data=[40, 127]),
   midi.NoteOnEvent(tick=60, channel=1, data=[40, 0]),
   midi.NoteOnEvent(tick=0, channel=1, data=[40, 127]),
   midi.NoteOnEvent(tick=60, channel=1, data=[40, 0]),
   midi.NoteOnEvent(tick=0, channel=1, data=[40, 127]),
   midi.NoteOnEvent(tick=40, channel=1, data=[40, 0]),
   midi.NoteOnEvent(tick=0, channel=1, data=[40, 127]),
   midi.NoteOnEvent(tick=40, channel=1, data=[40, 0]),
   midi.NoteOnEvent(tick=0, channel=1, data=[40, 127]),
   midi.NoteOnEvent(tick=40, channel=1, data=[40, 0]),
   midi.NoteOnEvent(tick=0, channel=1, data=[40, 127]),
   midi.NoteOnEvent(tick=60, channel=1, data=[40, 0]),
   midi.NoteOnEvent(tick=0, channel=1, data=[40, 127]),
   midi.NoteOnEvent(tick=60, channel=1, data=[40, 0]),
   midi.NoteOnEvent(tick=0, channel=1, data=[40, 127]),
   midi.NoteOnEvent(tick=40, channel=1, data=[40, 0]),
   midi.NoteOnEvent(tick=0, channel=1, data=[40, 127]),
   midi.NoteOnEvent(tick=40, channel=1, data=[40, 0]),
   midi.NoteOnEvent(tick=0, channel=1, data=[40, 127]),
   midi.NoteOnEvent(tick=40, channel=1, data=[40, 0]),
   midi.NoteOnEvent(tick=0, channel=1, data=[60, 127]),
   midi.NoteOnEvent(tick=0, channel=1, data=[53, 127]),
   midi.NoteOnEvent(tick=240, channel=1, data=[60, 0]),
   midi.NoteOnEvent(tick=0, channel=1, data=[53, 0]),
   midi.NoteOnEvent(tick=0, channel=1, data=[40, 127]),
   midi.NoteOnEvent(tick=0, channel=1, data=[52, 127]),
   midi.NoteOnEvent(tick=60, channel=1, data=[40, 0]),
   midi.NoteOnEvent(tick=0, channel=1, data=[52, 0]),
   midi.NoteOnEvent(tick=0, channel=1, data=[50, 127]),
   midi.NoteOnEvent(tick=60, channel=1, data=[50, 0]),
   midi.NoteOnEvent(tick=0, channel=1, data=[40, 127]),
   midi.NoteOnEvent(tick=0, channel=1, data=[52, 127]),
   midi.NoteOnEvent(tick=60, channel=1, data=[40, 0]),
   midi.NoteOnEvent(tick=0, channel=1, data=[52, 0]),
   midi.NoteOnEvent(tick=0, channel=1, data=[50, 127]),
   midi.NoteOnEvent(tick=60, channel=1, data=[50, 0]),
   midi.NoteOnEvent(tick=0, channel=1, data=[40, 127]),
   midi.NoteOnEvent(tick=0, channel=1, data=[52, 127]),
   midi.NoteOnEvent(tick=60, channel=1, data=[40, 0]),
   midi.NoteOnEvent(tick=0, channel=1, data=[52, 0]),
   midi.NoteOnEvent(tick=0, channel=1, data=[50, 127]),
   midi.NoteOnEvent(tick=60, channel=1, data=[50, 0]),
   midi.NoteOnEvent(tick=0, channel=1, data=[40, 127]),
   midi.NoteOnEvent(tick=0, channel=1, data=[52, 127]),
   midi.NoteOnEvent(tick=60, channel=1, data=[40, 0]),
   midi.NoteOnEvent(tick=0, channel=1, data=[52, 0]),
   midi.NoteOnEvent(tick=0, channel=1, data=[50, 127]),
   midi.NoteOnEvent(tick=60, channel=1, data=[50, 0]),
   midi.NoteOnEvent(tick=0, channel=1, data=[40, 127]),
   midi.NoteOnEvent(tick=0, channel=1, data=[52, 127]),
   midi.NoteOnEvent(tick=60, channel=1, data=[40, 0]),
   midi.NoteOnEvent(tick=0, channel=1, data=[52, 0]),
   midi.NoteOnEvent(tick=0, channel=1, data=[50, 127]),
   midi.NoteOnEvent(tick=60, channel=1, data=[50, 0]),
   midi.NoteOnEvent(tick=0, channel=1, data=[40, 127]),
   midi.NoteOnEvent(tick=0, channel=1, data=[52, 127]),
   midi.NoteOnEvent(tick=60, channel=1, data=[40, 0]),
   midi.NoteOnEvent(tick=0, channel=1, data=[52, 0]),
   midi.NoteOnEvent(tick=0, channel=1, data=[50, 127]),
   midi.NoteOnEvent(tick=60, channel=1, data=[50, 0]),
   midi.NoteOnEvent(tick=0, channel=1, data=[40, 127]),
   midi.NoteOnEvent(tick=0, channel=1, data=[52, 127]),
   midi.NoteOnEvent(tick=60, channel=1, data=[40, 0]),
   midi.NoteOnEvent(tick=0, channel=1, data=[52, 0]),
   midi.NoteOnEvent(tick=0, channel=1, data=[50, 127]),
   midi.NoteOnEvent(tick=60, channel=1, data=[50, 0]),
   midi.NoteOnEvent(tick=0, channel=1, data=[47, 127]),
   midi.NoteOnEvent(tick=0, channel=1, data=[50, 127]),
   midi.NoteOnEvent(tick=60, channel=1, data=[47, 0]),
   midi.NoteOnEvent(tick=0, channel=1, data=[50, 0]),
   midi.NoteOnEvent(tick=0, channel=1, data=[50, 127]),
   midi.NoteOnEvent(tick=60, channel=1, data=[50, 0]),
   midi.NoteOnEvent(tick=0, channel=1, data=[40, 127]),
   midi.NoteOnEvent(tick=0, channel=1, data=[52, 127]),
   midi.NoteOnEvent(tick=60, channel=1, data=[40, 0]),
   midi.NoteOnEvent(tick=0, channel=1, data=[52, 0]),
   midi.NoteOnEvent(tick=0, channel=1, data=[50, 127]),
   midi.NoteOnEvent(tick=60, channel=1, data=[50, 0]),
   midi.NoteOnEvent(tick=0, channel=1, data=[40, 127]),
   midi.NoteOnEvent(tick=0, channel=1, data=[52, 127]),
   midi.NoteOnEvent(tick=60, channel=1, data=[40, 0]),
   midi.NoteOnEvent(tick=0, channel=1, data=[52, 0]),
   midi.NoteOnEvent(tick=0, channel=1, data=[50, 127]),
   midi.NoteOnEvent(tick=60, channel=1, data=[50, 0]),
   midi.NoteOnEvent(tick=0, channel=1, data=[40, 127]),
   midi.NoteOnEvent(tick=0, channel=1, data=[52, 127]),
   midi.NoteOnEvent(tick=60, channel=1, data=[40, 0]),
   midi.NoteOnEvent(tick=0, channel=1, data=[52, 0]),
   midi.NoteOnEvent(tick=0, channel=1, data=[50, 127]),
   midi.NoteOnEvent(tick=60, channel=1, data=[50, 0]),
   midi.NoteOnEvent(tick=0, channel=1, data=[40, 127]),
   midi.NoteOnEvent(tick=0, channel=1, data=[52, 127]),
   midi.NoteOnEvent(tick=60, channel=1, data=[40, 0]),
   midi.NoteOnEvent(tick=0, channel=1, data=[52, 0]),
   midi.NoteOnEvent(tick=0, channel=1, data=[50, 127]),
   midi.NoteOnEvent(tick=60, channel=1, data=[50, 0]),
   midi.NoteOnEvent(tick=0, channel=1, data=[47, 127]),
   midi.NoteOnEvent(tick=60, channel=1, data=[47, 0]),
   midi.NoteOnEvent(tick=0, channel=1, data=[50, 127]),
   midi.NoteOnEvent(tick=60, channel=1, data=[50, 0]),
   midi.NoteOnEvent(tick=0, channel=1, data=[52, 127]),
   midi.NoteOnEvent(tick=60, channel=1, data=[52, 0]),
   midi.NoteOnEvent(tick=0, channel=1, data=[50, 127]),
   midi.NoteOnEvent(tick=60, channel=1, data=[50, 0]),
   midi.NoteOnEvent(tick=0, channel=1, data=[57, 127]),
   midi.NoteOnEvent(tick=60, channel=1, data=[57, 0]),
   midi.NoteOnEvent(tick=0, channel=1, data=[55, 127]),
   midi.NoteOnEvent(tick=60, channel=1, data=[55, 0]),
   midi.NoteOnEvent(tick=0, channel=1, data=[52, 127]),
   midi.NoteOnEvent(tick=60, channel=1, data=[52, 0]),
   midi.NoteOnEvent(tick=0, channel=1, data=[50, 127]),
   midi.NoteOnEvent(tick=60, channel=1, data=[50, 0]),
   midi.NoteOnEvent(tick=0, channel=1, data=[40, 127]),
   midi.NoteOnEvent(tick=0, channel=1, data=[52, 127]),
   midi.NoteOnEvent(tick=60, channel=1, data=[40, 0]),
   midi.NoteOnEvent(tick=0, channel=1, data=[52, 0]),
   midi.NoteOnEvent(tick=0, channel=1, data=[50, 127]),
   midi.NoteOnEvent(tick=60, channel=1, data=[50, 0]),
   midi.NoteOnEvent(tick=0, channel=1, data=[40, 127]),
   midi.NoteOnEvent(tick=0, channel=1, data=[52, 127]),
   midi.NoteOnEvent(tick=60, channel=1, data=[40, 0]),
   midi.NoteOnEvent(tick=0, channel=1, data=[52, 0]),
   midi.NoteOnEvent(tick=0, channel=1, data=[50, 127]),
   midi.NoteOnEvent(tick=60, channel=1, data=[50, 0]),
   midi.NoteOnEvent(tick=0, channel=1, data=[40, 127]),
   midi.NoteOnEvent(tick=0, channel=1, data=[52, 127]),
   midi.NoteOnEvent(tick=60, channel=1, data=[40, 0]),
   midi.NoteOnEvent(tick=0, channel=1, data=[52, 0]),
   midi.NoteOnEvent(tick=0, channel=1, data=[50, 127]),
   midi.NoteOnEvent(tick=60, channel=1, data=[50, 0]),
   midi.NoteOnEvent(tick=0, channel=1, data=[47, 127]),
   midi.NoteOnEvent(tick=0, channel=1, data=[50, 127]),
   midi.NoteOnEvent(tick=60, channel=1, data=[47, 0]),
   midi.NoteOnEvent(tick=0, channel=1, data=[50, 0]),
   midi.NoteOnEvent(tick=0, channel=1, data=[50, 127]),
   midi.NoteOnEvent(tick=60, channel=1, data=[50, 0]),
   midi.NoteOnEvent(tick=0, channel=1, data=[40, 127]),
   midi.NoteOnEvent(tick=0, channel=1, data=[52, 127]),
   midi.NoteOnEvent(tick=60, channel=1, data=[40, 0]),
   midi.NoteOnEvent(tick=0, channel=1, data=[52, 0]),
   midi.NoteOnEvent(tick=0, channel=1, data=[50, 127]),
   midi.NoteOnEvent(tick=60, channel=1, data=[50, 0]),
   midi.NoteOnEvent(tick=0, channel=1, data=[40, 127]),
   midi.NoteOnEvent(tick=0, channel=1, data=[52, 127]),
   midi.NoteOnEvent(tick=60, channel=1, data=[40, 0]),
   midi.NoteOnEvent(tick=0, channel=1, data=[52, 0]),
   midi.NoteOnEvent(tick=0, channel=1, data=[50, 127]),
   midi.NoteOnEvent(tick=60, channel=1, data=[50, 0]),
   midi.NoteOnEvent(tick=0, channel=1, data=[40, 127]),
   midi.NoteOnEvent(tick=0, channel=1, data=[52, 127]),
   midi.NoteOnEvent(tick=60, channel=1, data=[40, 0]),
   midi.NoteOnEvent(tick=0, channel=1, data=[52, 0]),
   midi.NoteOnEvent(tick=0, channel=1, data=[50, 127]),
   midi.NoteOnEvent(tick=60, channel=1, data=[50, 0]),
   midi.NoteOnEvent(tick=0, channel=1, data=[47, 127]),
   midi.NoteOnEvent(tick=0, channel=1, data=[50, 127]),
   midi.NoteOnEvent(tick=60, channel=1, data=[47, 0]),
   midi.NoteOnEvent(tick=0, channel=1, data=[50, 0]),
   midi.NoteOnEvent(tick=0, channel=1, data=[50, 127]),
   midi.NoteOnEvent(tick=60, channel=1, data=[50, 0]),
   midi.NoteOnEvent(tick=0, channel=1, data=[48, 127]),
   midi.NoteOnEvent(tick=0, channel=1, data=[55, 127]),
   midi.NoteOnEvent(tick=120, channel=1, data=[48, 0]),
   midi.NoteOnEvent(tick=0, channel=1, data=[55, 0]),
   midi.NoteOnEvent(tick=0, channel=1, data=[43, 127]),
   midi.NoteOnEvent(tick=0, channel=1, data=[50, 127]),
   midi.NoteOnEvent(tick=120, channel=1, data=[43, 0]),
   midi.NoteOnEvent(tick=0, channel=1, data=[50, 0]),
   midi.NoteOnEvent(tick=0, channel=1, data=[57, 127]),
   midi.NoteOnEvent(tick=0, channel=1, data=[50, 127]),
   midi.NoteOnEvent(tick=120, channel=1, data=[57, 0]),
   midi.NoteOnEvent(tick=0, channel=1, data=[50, 0]),
   midi.NoteOnEvent(tick=0, channel=1, data=[48, 127]),
   midi.NoteOnEvent(tick=0, channel=1, data=[55, 127]),
   midi.NoteOnEvent(tick=120, channel=1, data=[48, 0]),
   midi.NoteOnEvent(tick=0, channel=1, data=[55, 0]),
   midi.NoteOnEvent(tick=0, channel=1, data=[47, 127]),
   midi.NoteOnEvent(tick=0, channel=1, data=[40, 127]),
   midi.NoteOnEvent(tick=120, channel=1, data=[47, 0]),
   midi.NoteOnEvent(tick=0, channel=1, data=[40, 0]),
   midi.EndOfTrackEvent(tick=0, data=[])]),
 midi.Track(\
  [midi.PortEvent(tick=0, data=[0]),
   midi.TrackNameEvent(tick=0, text='Guitar 2', data=[71, 117, 105, 116, 97, 114, 32, 50]),
   midi.ControlChangeEvent(tick=0, channel=2, data=[7, 99]),
   midi.ProgramChangeEvent(tick=0, channel=2, data=[27]),
   midi.NoteOnEvent(tick=0, channel=2, data=[48, 127]),
   midi.NoteOnEvent(tick=0, channel=2, data=[55, 127]),
   midi.NoteOnEvent(tick=0, channel=2, data=[60, 127]),
   midi.NoteOnEvent(tick=0, channel=2, data=[64, 127]),
   midi.NoteOnEvent(tick=120, channel=2, data=[48, 0]),
   midi.NoteOnEvent(tick=0, channel=2, data=[55, 0]),
   midi.NoteOnEvent(tick=0, channel=2, data=[60, 0]),
   midi.NoteOnEvent(tick=0, channel=2, data=[64, 0]),
   midi.NoteOnEvent(tick=0, channel=2, data=[43, 127]),
   midi.NoteOnEvent(tick=0, channel=2, data=[55, 127]),
   midi.NoteOnEvent(tick=0, channel=2, data=[50, 127]),
   midi.NoteOnEvent(tick=120, channel=2, data=[43, 0]),
   midi.NoteOnEvent(tick=0, channel=2, data=[55, 0]),
   midi.NoteOnEvent(tick=0, channel=2, data=[50, 0]),
   midi.NoteOnEvent(tick=0, channel=2, data=[62, 127]),
   midi.NoteOnEvent(tick=0, channel=2, data=[57, 127]),
   midi.NoteOnEvent(tick=0, channel=2, data=[50, 127]),
   midi.NoteOnEvent(tick=120, channel=2, data=[62, 0]),
   midi.NoteOnEvent(tick=0, channel=2, data=[57, 0]),
   midi.NoteOnEvent(tick=0, channel=2, data=[50, 0]),
   midi.NoteOnEvent(tick=0, channel=2, data=[48, 127]),
   midi.NoteOnEvent(tick=0, channel=2, data=[55, 127]),
   midi.NoteOnEvent(tick=0, channel=2, data=[60, 127]),
   midi.NoteOnEvent(tick=120, channel=2, data=[48, 0]),
   midi.NoteOnEvent(tick=0, channel=2, data=[55, 0]),
   midi.NoteOnEvent(tick=0, channel=2, data=[60, 0]),
   midi.NoteOnEvent(tick=0, channel=2, data=[40, 127]),
   midi.NoteOnEvent(tick=0, channel=2, data=[52, 127]),
   midi.NoteOnEvent(tick=60, channel=2, data=[40, 0]),
   midi.NoteOnEvent(tick=0, channel=2, data=[52, 0]),
   midi.NoteOnEvent(tick=0, channel=2, data=[50, 127]),
   midi.NoteOnEvent(tick=60, channel=2, data=[50, 0]),
   midi.NoteOnEvent(tick=0, channel=2, data=[40, 127]),
   midi.NoteOnEvent(tick=0, channel=2, data=[52, 127]),
   midi.NoteOnEvent(tick=60, channel=2, data=[40, 0]),
   midi.NoteOnEvent(tick=0, channel=2, data=[52, 0]),
   midi.NoteOnEvent(tick=0, channel=2, data=[50, 127]),
   midi.NoteOnEvent(tick=60, channel=2, data=[50, 0]),
   midi.NoteOnEvent(tick=0, channel=2, data=[40, 127]),
   midi.NoteOnEvent(tick=0, channel=2, data=[52, 127]),
   midi.NoteOnEvent(tick=60, channel=2, data=[40, 0]),
   midi.NoteOnEvent(tick=0, channel=2, data=[52, 0]),
   midi.NoteOnEvent(tick=0, channel=2, data=[50, 127]),
   midi.NoteOnEvent(tick=60, channel=2, data=[50, 0]),
   midi.NoteOnEvent(tick=0, channel=2, data=[40, 127]),
   midi.NoteOnEvent(tick=0, channel=2, data=[52, 127]),
   midi.NoteOnEvent(tick=60, channel=2, data=[40, 0]),
   midi.NoteOnEvent(tick=0, channel=2, data=[52, 0]),
   midi.NoteOnEvent(tick=0, channel=2, data=[50, 127]),
   midi.NoteOnEvent(tick=60, channel=2, data=[50, 0]),
   midi.NoteOnEvent(tick=0, channel=2, data=[40, 127]),
   midi.NoteOnEvent(tick=0, channel=2, data=[52, 127]),
   midi.NoteOnEvent(tick=60, channel=2, data=[40, 0]),
   midi.NoteOnEvent(tick=0, channel=2, data=[52, 0]),
   midi.NoteOnEvent(tick=0, channel=2, data=[50, 127]),
   midi.NoteOnEvent(tick=60, channel=2, data=[50, 0]),
   midi.NoteOnEvent(tick=0, channel=2, data=[40, 127]),
   midi.NoteOnEvent(tick=0, channel=2, data=[52, 127]),
   midi.NoteOnEvent(tick=60, channel=2, data=[40, 0]),
   midi.NoteOnEvent(tick=0, channel=2, data=[52, 0]),
   midi.NoteOnEvent(tick=0, channel=2, data=[50, 127]),
   midi.NoteOnEvent(tick=60, channel=2, data=[50, 0]),
   midi.NoteOnEvent(tick=0, channel=2, data=[40, 127]),
   midi.NoteOnEvent(tick=0, channel=2, data=[52, 127]),
   midi.NoteOnEvent(tick=60, channel=2, data=[40, 0]),
   midi.NoteOnEvent(tick=0, channel=2, data=[52, 0]),
   midi.NoteOnEvent(tick=0, channel=2, data=[50, 127]),
   midi.NoteOnEvent(tick=60, channel=2, data=[50, 0]),
   midi.NoteOnEvent(tick=0, channel=2, data=[47, 127]),
   midi.NoteOnEvent(tick=0, channel=2, data=[50, 127]),
   midi.NoteOnEvent(tick=60, channel=2, data=[47, 0]),
   midi.NoteOnEvent(tick=0, channel=2, data=[50, 0]),
   midi.NoteOnEvent(tick=0, channel=2, data=[50, 127]),
   midi.NoteOnEvent(tick=60, channel=2, data=[50, 0]),
   midi.NoteOnEvent(tick=0, channel=2, data=[40, 127]),
   midi.NoteOnEvent(tick=0, channel=2, data=[52, 127]),
   midi.NoteOnEvent(tick=60, channel=2, data=[40, 0]),
   midi.NoteOnEvent(tick=0, channel=2, data=[52, 0]),
   midi.NoteOnEvent(tick=0, channel=2, data=[50, 127]),
   midi.NoteOnEvent(tick=60, channel=2, data=[50, 0]),
   midi.NoteOnEvent(tick=0, channel=2, data=[40, 127]),
   midi.NoteOnEvent(tick=0, channel=2, data=[52, 127]),
   midi.NoteOnEvent(tick=60, channel=2, data=[40, 0]),
   midi.NoteOnEvent(tick=0, channel=2, data=[52, 0]),
   midi.NoteOnEvent(tick=0, channel=2, data=[50, 127]),
   midi.NoteOnEvent(tick=60, channel=2, data=[50, 0]),
   midi.NoteOnEvent(tick=0, channel=2, data=[40, 127]),
   midi.NoteOnEvent(tick=0, channel=2, data=[52, 127]),
   midi.NoteOnEvent(tick=60, channel=2, data=[40, 0]),
   midi.NoteOnEvent(tick=0, channel=2, data=[52, 0]),
   midi.NoteOnEvent(tick=0, channel=2, data=[50, 127]),
   midi.NoteOnEvent(tick=60, channel=2, data=[50, 0]),
   midi.NoteOnEvent(tick=0, channel=2, data=[40, 127]),
   midi.NoteOnEvent(tick=0, channel=2, data=[52, 127]),
   midi.NoteOnEvent(tick=60, channel=2, data=[40, 0]),
   midi.NoteOnEvent(tick=0, channel=2, data=[52, 0]),
   midi.NoteOnEvent(tick=0, channel=2, data=[50, 127]),
   midi.NoteOnEvent(tick=60, channel=2, data=[50, 0]),
   midi.NoteOnEvent(tick=0, channel=2, data=[47, 127]),
   midi.NoteOnEvent(tick=60, channel=2, data=[47, 0]),
   midi.NoteOnEvent(tick=0, channel=2, data=[50, 127]),
   midi.NoteOnEvent(tick=60, channel=2, data=[50, 0]),
   midi.NoteOnEvent(tick=0, channel=2, data=[68, 127]),
   midi.NoteOnEvent(tick=120, channel=2, data=[68, 0]),
   midi.NoteOnEvent(tick=0, channel=2, data=[57, 127]),
   midi.NoteOnEvent(tick=60, channel=2, data=[57, 0]),
   midi.NoteOnEvent(tick=0, channel=2, data=[55, 127]),
   midi.NoteOnEvent(tick=60, channel=2, data=[55, 0]),
   midi.NoteOnEvent(tick=0, channel=2, data=[52, 127]),
   midi.NoteOnEvent(tick=60, channel=2, data=[52, 0]),
   midi.NoteOnEvent(tick=0, channel=2, data=[50, 127]),
   midi.NoteOnEvent(tick=60, channel=2, data=[50, 0]),
   midi.NoteOnEvent(tick=0, channel=2, data=[40, 127]),
   midi.NoteOnEvent(tick=0, channel=2, data=[52, 127]),
   midi.NoteOnEvent(tick=60, channel=2, data=[40, 0]),
   midi.NoteOnEvent(tick=0, channel=2, data=[52, 0]),
   midi.NoteOnEvent(tick=0, channel=2, data=[50, 127]),
   midi.NoteOnEvent(tick=60, channel=2, data=[50, 0]),
   midi.NoteOnEvent(tick=0, channel=2, data=[40, 127]),
   midi.NoteOnEvent(tick=0, channel=2, data=[52, 127]),
   midi.NoteOnEvent(tick=60, channel=2, data=[40, 0]),
   midi.NoteOnEvent(tick=0, channel=2, data=[52, 0]),
   midi.NoteOnEvent(tick=0, channel=2, data=[50, 127]),
   midi.NoteOnEvent(tick=60, channel=2, data=[50, 0]),
   midi.NoteOnEvent(tick=0, channel=2, data=[40, 127]),
   midi.NoteOnEvent(tick=0, channel=2, data=[52, 127]),
   midi.NoteOnEvent(tick=60, channel=2, data=[40, 0]),
   midi.NoteOnEvent(tick=0, channel=2, data=[52, 0]),
   midi.NoteOnEvent(tick=0, channel=2, data=[50, 127]),
   midi.NoteOnEvent(tick=60, channel=2, data=[50, 0]),
   midi.NoteOnEvent(tick=0, channel=2, data=[47, 127]),
   midi.NoteOnEvent(tick=0, channel=2, data=[50, 127]),
   midi.NoteOnEvent(tick=60, channel=2, data=[47, 0]),
   midi.NoteOnEvent(tick=0, channel=2, data=[50, 0]),
   midi.NoteOnEvent(tick=0, channel=2, data=[50, 127]),
   midi.NoteOnEvent(tick=60, channel=2, data=[50, 0]),
   midi.NoteOnEvent(tick=0, channel=2, data=[40, 127]),
   midi.NoteOnEvent(tick=0, channel=2, data=[52, 127]),
   midi.NoteOnEvent(tick=60, channel=2, data=[40, 0]),
   midi.NoteOnEvent(tick=0, channel=2, data=[52, 0]),
   midi.NoteOnEvent(tick=0, channel=2, data=[50, 127]),
   midi.NoteOnEvent(tick=60, channel=2, data=[50, 0]),
   midi.NoteOnEvent(tick=0, channel=2, data=[40, 127]),
   midi.NoteOnEvent(tick=0, channel=2, data=[52, 127]),
   midi.NoteOnEvent(tick=60, channel=2, data=[40, 0]),
   midi.NoteOnEvent(tick=0, channel=2, data=[52, 0]),
   midi.NoteOnEvent(tick=0, channel=2, data=[50, 127]),
   midi.NoteOnEvent(tick=60, channel=2, data=[50, 0]),
   midi.NoteOnEvent(tick=0, channel=2, data=[40, 127]),
   midi.NoteOnEvent(tick=0, channel=2, data=[52, 127]),
   midi.NoteOnEvent(tick=60, channel=2, data=[40, 0]),
   midi.NoteOnEvent(tick=0, channel=2, data=[52, 0]),
   midi.NoteOnEvent(tick=0, channel=2, data=[50, 127]),
   midi.NoteOnEvent(tick=60, channel=2, data=[50, 0]),
   midi.NoteOnEvent(tick=0, channel=2, data=[47, 127]),
   midi.NoteOnEvent(tick=0, channel=2, data=[50, 127]),
   midi.NoteOnEvent(tick=60, channel=2, data=[47, 0]),
   midi.NoteOnEvent(tick=0, channel=2, data=[50, 0]),
   midi.NoteOnEvent(tick=0, channel=2, data=[50, 127]),
   midi.NoteOnEvent(tick=60, channel=2, data=[50, 0]),
   midi.NoteOnEvent(tick=0, channel=2, data=[48, 127]),
   midi.NoteOnEvent(tick=0, channel=2, data=[55, 127]),
   midi.NoteOnEvent(tick=120, channel=2, data=[48, 0]),
   midi.NoteOnEvent(tick=0, channel=2, data=[55, 0]),
   midi.NoteOnEvent(tick=0, channel=2, data=[43, 127]),
   midi.NoteOnEvent(tick=0, channel=2, data=[50, 127]),
   midi.NoteOnEvent(tick=120, channel=2, data=[43, 0]),
   midi.NoteOnEvent(tick=0, channel=2, data=[50, 0]),
   midi.NoteOnEvent(tick=0, channel=2, data=[57, 127]),
   midi.NoteOnEvent(tick=0, channel=2, data=[50, 127]),
   midi.NoteOnEvent(tick=120, channel=2, data=[57, 0]),
   midi.NoteOnEvent(tick=0, channel=2, data=[50, 0]),
   midi.NoteOnEvent(tick=0, channel=2, data=[48, 127]),
   midi.NoteOnEvent(tick=0, channel=2, data=[55, 127]),
   midi.NoteOnEvent(tick=120, channel=2, data=[48, 0]),
   midi.NoteOnEvent(tick=0, channel=2, data=[55, 0]),
   midi.NoteOnEvent(tick=0, channel=2, data=[40, 127]),
   midi.NoteOnEvent(tick=0, channel=2, data=[52, 127]),
   midi.NoteOnEvent(tick=60, channel=2, data=[40, 0]),
   midi.NoteOnEvent(tick=0, channel=2, data=[52, 0]),
   midi.NoteOnEvent(tick=0, channel=2, data=[50, 127]),
   midi.NoteOnEvent(tick=60, channel=2, data=[50, 0]),
   midi.NoteOnEvent(tick=0, channel=2, data=[40, 127]),
   midi.NoteOnEvent(tick=0, channel=2, data=[52, 127]),
   midi.NoteOnEvent(tick=60, channel=2, data=[40, 0]),
   midi.NoteOnEvent(tick=0, channel=2, data=[52, 0]),
   midi.NoteOnEvent(tick=0, channel=2, data=[50, 127]),
   midi.NoteOnEvent(tick=60, channel=2, data=[50, 0]),
   midi.NoteOnEvent(tick=0, channel=2, data=[40, 127]),
   midi.NoteOnEvent(tick=0, channel=2, data=[52, 127]),
   midi.NoteOnEvent(tick=60, channel=2, data=[40, 0]),
   midi.NoteOnEvent(tick=0, channel=2, data=[52, 0]),
   midi.NoteOnEvent(tick=0, channel=2, data=[50, 127]),
   midi.NoteOnEvent(tick=60, channel=2, data=[50, 0]),
   midi.NoteOnEvent(tick=0, channel=2, data=[40, 127]),
   midi.NoteOnEvent(tick=0, channel=2, data=[52, 127]),
   midi.NoteOnEvent(tick=60, channel=2, data=[40, 0]),
   midi.NoteOnEvent(tick=0, channel=2, data=[52, 0]),
   midi.NoteOnEvent(tick=0, channel=2, data=[50, 127]),
   midi.NoteOnEvent(tick=60, channel=2, data=[50, 0]),
   midi.NoteOnEvent(tick=0, channel=2, data=[40, 127]),
   midi.NoteOnEvent(tick=0, channel=2, data=[52, 127]),
   midi.NoteOnEvent(tick=60, channel=2, data=[40, 0]),
   midi.NoteOnEvent(tick=0, channel=2, data=[52, 0]),
   midi.NoteOnEvent(tick=0, channel=2, data=[50, 127]),
   midi.NoteOnEvent(tick=60, channel=2, data=[50, 0]),
   midi.NoteOnEvent(tick=0, channel=2, data=[40, 127]),
   midi.NoteOnEvent(tick=0, channel=2, data=[52, 127]),
   midi.NoteOnEvent(tick=60, channel=2, data=[40, 0]),
   midi.NoteOnEvent(tick=0, channel=2, data=[52, 0]),
   midi.NoteOnEvent(tick=0, channel=2, data=[50, 127]),
   midi.NoteOnEvent(tick=60, channel=2, data=[50, 0]),
   midi.NoteOnEvent(tick=0, channel=2, data=[40, 127]),
   midi.NoteOnEvent(tick=0, channel=2, data=[52, 127]),
   midi.NoteOnEvent(tick=60, channel=2, data=[40, 0]),
   midi.NoteOnEvent(tick=0, channel=2, data=[52, 0]),
   midi.NoteOnEvent(tick=0, channel=2, data=[50, 127]),
   midi.NoteOnEvent(tick=60, channel=2, data=[50, 0]),
   midi.NoteOnEvent(tick=0, channel=2, data=[47, 127]),
   midi.NoteOnEvent(tick=0, channel=2, data=[50, 127]),
   midi.NoteOnEvent(tick=60, channel=2, data=[47, 0]),
   midi.NoteOnEvent(tick=0, channel=2, data=[50, 0]),
   midi.NoteOnEvent(tick=0, channel=2, data=[50, 127]),
   midi.NoteOnEvent(tick=60, channel=2, data=[50, 0]),
   midi.NoteOnEvent(tick=0, channel=2, data=[40, 127]),
   midi.NoteOnEvent(tick=0, channel=2, data=[52, 127]),
   midi.NoteOnEvent(tick=60, channel=2, data=[40, 0]),
   midi.NoteOnEvent(tick=0, channel=2, data=[52, 0]),
   midi.NoteOnEvent(tick=0, channel=2, data=[50, 127]),
   midi.NoteOnEvent(tick=60, channel=2, data=[50, 0]),
   midi.NoteOnEvent(tick=0, channel=2, data=[40, 127]),
   midi.NoteOnEvent(tick=0, channel=2, data=[52, 127]),
   midi.NoteOnEvent(tick=60, channel=2, data=[40, 0]),
   midi.NoteOnEvent(tick=0, channel=2, data=[52, 0]),
   midi.NoteOnEvent(tick=0, channel=2, data=[50, 127]),
   midi.NoteOnEvent(tick=60, channel=2, data=[50, 0]),
   midi.NoteOnEvent(tick=0, channel=2, data=[40, 127]),
   midi.NoteOnEvent(tick=0, channel=2, data=[52, 127]),
   midi.NoteOnEvent(tick=60, channel=2, data=[40, 0]),
   midi.NoteOnEvent(tick=0, channel=2, data=[52, 0]),
   midi.NoteOnEvent(tick=0, channel=2, data=[50, 127]),
   midi.NoteOnEvent(tick=60, channel=2, data=[50, 0]),
   midi.NoteOnEvent(tick=0, channel=2, data=[40, 127]),
   midi.NoteOnEvent(tick=0, channel=2, data=[52, 127]),
   midi.NoteOnEvent(tick=60, channel=2, data=[40, 0]),
   midi.NoteOnEvent(tick=0, channel=2, data=[52, 0]),
   midi.NoteOnEvent(tick=0, channel=2, data=[50, 127]),
   midi.NoteOnEvent(tick=60, channel=2, data=[50, 0]),
   midi.NoteOnEvent(tick=0, channel=2, data=[47, 127]),
   midi.NoteOnEvent(tick=60, channel=2, data=[47, 0]),
   midi.NoteOnEvent(tick=0, channel=2, data=[50, 127]),
   midi.NoteOnEvent(tick=60, channel=2, data=[50, 0]),
   midi.NoteOnEvent(tick=0, channel=2, data=[52, 127]),
   midi.NoteOnEvent(tick=60, channel=2, data=[52, 0]),
   midi.NoteOnEvent(tick=0, channel=2, data=[50, 127]),
   midi.NoteOnEvent(tick=60, channel=2, data=[50, 0]),
   midi.NoteOnEvent(tick=0, channel=2, data=[57, 127]),
   midi.NoteOnEvent(tick=60, channel=2, data=[57, 0]),
   midi.NoteOnEvent(tick=0, channel=2, data=[55, 127]),
   midi.NoteOnEvent(tick=60, channel=2, data=[55, 0]),
   midi.NoteOnEvent(tick=0, channel=2, data=[52, 127]),
   midi.NoteOnEvent(tick=60, channel=2, data=[52, 0]),
   midi.NoteOnEvent(tick=0, channel=2, data=[50, 127]),
   midi.NoteOnEvent(tick=60, channel=2, data=[50, 0]),
   midi.NoteOnEvent(tick=0, channel=2, data=[40, 127]),
   midi.NoteOnEvent(tick=0, channel=2, data=[52, 127]),
   midi.NoteOnEvent(tick=60, channel=2, data=[40, 0]),
   midi.NoteOnEvent(tick=0, channel=2, data=[52, 0]),
   midi.NoteOnEvent(tick=0, channel=2, data=[50, 127]),
   midi.NoteOnEvent(tick=60, channel=2, data=[50, 0]),
   midi.NoteOnEvent(tick=0, channel=2, data=[40, 127]),
   midi.NoteOnEvent(tick=0, channel=2, data=[52, 127]),
   midi.NoteOnEvent(tick=60, channel=2, data=[40, 0]),
   midi.NoteOnEvent(tick=0, channel=2, data=[52, 0]),
   midi.NoteOnEvent(tick=0, channel=2, data=[50, 127]),
   midi.NoteOnEvent(tick=60, channel=2, data=[50, 0]),
   midi.NoteOnEvent(tick=0, channel=2, data=[40, 127]),
   midi.NoteOnEvent(tick=0, channel=2, data=[52, 127]),
   midi.NoteOnEvent(tick=60, channel=2, data=[40, 0]),
   midi.NoteOnEvent(tick=0, channel=2, data=[52, 0]),
   midi.NoteOnEvent(tick=0, channel=2, data=[50, 127]),
   midi.NoteOnEvent(tick=60, channel=2, data=[50, 0]),
   midi.NoteOnEvent(tick=0, channel=2, data=[47, 127]),
   midi.NoteOnEvent(tick=0, channel=2, data=[50, 127]),
   midi.NoteOnEvent(tick=60, channel=2, data=[47, 0]),
   midi.NoteOnEvent(tick=0, channel=2, data=[50, 0]),
   midi.NoteOnEvent(tick=0, channel=2, data=[50, 127]),
   midi.NoteOnEvent(tick=60, channel=2, data=[50, 0]),
   midi.NoteOnEvent(tick=0, channel=2, data=[40, 127]),
   midi.NoteOnEvent(tick=0, channel=2, data=[52, 127]),
   midi.NoteOnEvent(tick=60, channel=2, data=[40, 0]),
   midi.NoteOnEvent(tick=0, channel=2, data=[52, 0]),
   midi.NoteOnEvent(tick=0, channel=2, data=[50, 127]),
   midi.NoteOnEvent(tick=60, channel=2, data=[50, 0]),
   midi.NoteOnEvent(tick=0, channel=2, data=[40, 127]),
   midi.NoteOnEvent(tick=0, channel=2, data=[52, 127]),
   midi.NoteOnEvent(tick=60, channel=2, data=[40, 0]),
   midi.NoteOnEvent(tick=0, channel=2, data=[52, 0]),
   midi.NoteOnEvent(tick=0, channel=2, data=[50, 127]),
   midi.NoteOnEvent(tick=60, channel=2, data=[50, 0]),
   midi.NoteOnEvent(tick=0, channel=2, data=[40, 127]),
   midi.NoteOnEvent(tick=0, channel=2, data=[52, 127]),
   midi.NoteOnEvent(tick=60, channel=2, data=[40, 0]),
   midi.NoteOnEvent(tick=0, channel=2, data=[52, 0]),
   midi.NoteOnEvent(tick=0, channel=2, data=[50, 127]),
   midi.NoteOnEvent(tick=60, channel=2, data=[50, 0]),
   midi.NoteOnEvent(tick=0, channel=2, data=[47, 127]),
   midi.NoteOnEvent(tick=0, channel=2, data=[50, 127]),
   midi.NoteOnEvent(tick=60, channel=2, data=[47, 0]),
   midi.NoteOnEvent(tick=0, channel=2, data=[50, 0]),
   midi.NoteOnEvent(tick=0, channel=2, data=[50, 127]),
   midi.NoteOnEvent(tick=60, channel=2, data=[50, 0]),
   midi.NoteOnEvent(tick=0, channel=2, data=[48, 127]),
   midi.NoteOnEvent(tick=0, channel=2, data=[55, 127]),
   midi.NoteOnEvent(tick=120, channel=2, data=[48, 0]),
   midi.NoteOnEvent(tick=0, channel=2, data=[55, 0]),
   midi.NoteOnEvent(tick=0, channel=2, data=[43, 127]),
   midi.NoteOnEvent(tick=0, channel=2, data=[50, 127]),
   midi.NoteOnEvent(tick=120, channel=2, data=[43, 0]),
   midi.NoteOnEvent(tick=0, channel=2, data=[50, 0]),
   midi.NoteOnEvent(tick=0, channel=2, data=[57, 127]),
   midi.NoteOnEvent(tick=0, channel=2, data=[50, 127]),
   midi.NoteOnEvent(tick=120, channel=2, data=[57, 0]),
   midi.NoteOnEvent(tick=0, channel=2, data=[50, 0]),
   midi.NoteOnEvent(tick=0, channel=2, data=[48, 127]),
   midi.NoteOnEvent(tick=0, channel=2, data=[55, 127]),
   midi.NoteOnEvent(tick=120, channel=2, data=[48, 0]),
   midi.NoteOnEvent(tick=0, channel=2, data=[55, 0]),
   midi.NoteOnEvent(tick=0, channel=2, data=[40, 127]),
   midi.NoteOnEvent(tick=40, channel=2, data=[40, 0]),
   midi.NoteOnEvent(tick=0, channel=2, data=[40, 127]),
   midi.NoteOnEvent(tick=40, channel=2, data=[40, 0]),
   midi.NoteOnEvent(tick=0, channel=2, data=[40, 127]),
   midi.NoteOnEvent(tick=40, channel=2, data=[40, 0]),
   midi.NoteOnEvent(tick=0, channel=2, data=[59, 127]),
   midi.NoteOnEvent(tick=0, channel=2, data=[52, 127]),
   midi.NoteOnEvent(tick=120, channel=2, data=[59, 0]),
   midi.NoteOnEvent(tick=0, channel=2, data=[52, 0]),
   midi.NoteOnEvent(tick=0, channel=2, data=[40, 127]),
   midi.NoteOnEvent(tick=40, channel=2, data=[40, 0]),
   midi.NoteOnEvent(tick=0, channel=2, data=[40, 127]),
   midi.NoteOnEvent(tick=40, channel=2, data=[40, 0]),
   midi.NoteOnEvent(tick=0, channel=2, data=[40, 127]),
   midi.NoteOnEvent(tick=40, channel=2, data=[40, 0]),
   midi.NoteOnEvent(tick=0, channel=2, data=[59, 127]),
   midi.NoteOnEvent(tick=0, channel=2, data=[52, 127]),
   midi.NoteOnEvent(tick=120, channel=2, data=[59, 0]),
   midi.NoteOnEvent(tick=0, channel=2, data=[52, 0]),
   midi.NoteOnEvent(tick=0, channel=2, data=[40, 127]),
   midi.NoteOnEvent(tick=40, channel=2, data=[40, 0]),
   midi.NoteOnEvent(tick=0, channel=2, data=[40, 127]),
   midi.NoteOnEvent(tick=40, channel=2, data=[40, 0]),
   midi.NoteOnEvent(tick=0, channel=2, data=[40, 127]),
   midi.NoteOnEvent(tick=40, channel=2, data=[40, 0]),
   midi.NoteOnEvent(tick=0, channel=2, data=[59, 127]),
   midi.NoteOnEvent(tick=0, channel=2, data=[52, 127]),
   midi.NoteOnEvent(tick=120, channel=2, data=[59, 0]),
   midi.NoteOnEvent(tick=0, channel=2, data=[52, 0]),
   midi.NoteOnEvent(tick=0, channel=2, data=[50, 127]),
   midi.NoteOnEvent(tick=0, channel=2, data=[57, 127]),
   midi.NoteOnEvent(tick=120, channel=2, data=[50, 0]),
   midi.NoteOnEvent(tick=0, channel=2, data=[57, 0]),
   midi.NoteOnEvent(tick=0, channel=2, data=[50, 127]),
   midi.NoteOnEvent(tick=0, channel=2, data=[57, 127]),
   midi.NoteOnEvent(tick=120, channel=2, data=[50, 0]),
   midi.NoteOnEvent(tick=0, channel=2, data=[57, 0]),
   midi.NoteOnEvent(tick=0, channel=2, data=[40, 127]),
   midi.NoteOnEvent(tick=40, channel=2, data=[40, 0]),
   midi.NoteOnEvent(tick=0, channel=2, data=[40, 127]),
   midi.NoteOnEvent(tick=40, channel=2, data=[40, 0]),
   midi.NoteOnEvent(tick=0, channel=2, data=[40, 127]),
   midi.NoteOnEvent(tick=40, channel=2, data=[40, 0]),
   midi.NoteOnEvent(tick=0, channel=2, data=[59, 127]),
   midi.NoteOnEvent(tick=0, channel=2, data=[52, 127]),
   midi.NoteOnEvent(tick=120, channel=2, data=[59, 0]),
   midi.NoteOnEvent(tick=0, channel=2, data=[52, 0]),
   midi.NoteOnEvent(tick=0, channel=2, data=[40, 127]),
   midi.NoteOnEvent(tick=40, channel=2, data=[40, 0]),
   midi.NoteOnEvent(tick=0, channel=2, data=[40, 127]),
   midi.NoteOnEvent(tick=40, channel=2, data=[40, 0]),
   midi.NoteOnEvent(tick=0, channel=2, data=[40, 127]),
   midi.NoteOnEvent(tick=40, channel=2, data=[40, 0]),
   midi.NoteOnEvent(tick=0, channel=2, data=[59, 127]),
   midi.NoteOnEvent(tick=0, channel=2, data=[52, 127]),
   midi.NoteOnEvent(tick=120, channel=2, data=[59, 0]),
   midi.NoteOnEvent(tick=0, channel=2, data=[52, 0]),
   midi.NoteOnEvent(tick=0, channel=2, data=[40, 127]),
   midi.NoteOnEvent(tick=40, channel=2, data=[40, 0]),
   midi.NoteOnEvent(tick=0, channel=2, data=[40, 127]),
   midi.NoteOnEvent(tick=40, channel=2, data=[40, 0]),
   midi.NoteOnEvent(tick=0, channel=2, data=[40, 127]),
   midi.NoteOnEvent(tick=40, channel=2, data=[40, 0]),
   midi.NoteOnEvent(tick=0, channel=2, data=[59, 127]),
   midi.NoteOnEvent(tick=0, channel=2, data=[52, 127]),
   midi.NoteOnEvent(tick=120, channel=2, data=[59, 0]),
   midi.NoteOnEvent(tick=0, channel=2, data=[52, 0]),
   midi.NoteOnEvent(tick=0, channel=2, data=[55, 127]),
   midi.NoteOnEvent(tick=0, channel=2, data=[48, 127]),
   midi.NoteOnEvent(tick=120, channel=2, data=[55, 0]),
   midi.NoteOnEvent(tick=0, channel=2, data=[48, 0]),
   midi.NoteOnEvent(tick=0, channel=2, data=[50, 127]),
   midi.NoteOnEvent(tick=0, channel=2, data=[57, 127]),
   midi.NoteOnEvent(tick=120, channel=2, data=[50, 0]),
   midi.NoteOnEvent(tick=0, channel=2, data=[57, 0]),
   midi.NoteOnEvent(tick=0, channel=2, data=[40, 127]),
   midi.NoteOnEvent(tick=40, channel=2, data=[40, 0]),
   midi.NoteOnEvent(tick=0, channel=2, data=[40, 127]),
   midi.NoteOnEvent(tick=40, channel=2, data=[40, 0]),
   midi.NoteOnEvent(tick=0, channel=2, data=[40, 127]),
   midi.NoteOnEvent(tick=40, channel=2, data=[40, 0]),
   midi.NoteOnEvent(tick=0, channel=2, data=[59, 127]),
   midi.NoteOnEvent(tick=0, channel=2, data=[52, 127]),
   midi.NoteOnEvent(tick=120, channel=2, data=[59, 0]),
   midi.NoteOnEvent(tick=0, channel=2, data=[52, 0]),
   midi.NoteOnEvent(tick=0, channel=2, data=[40, 127]),
   midi.NoteOnEvent(tick=40, channel=2, data=[40, 0]),
   midi.NoteOnEvent(tick=0, channel=2, data=[40, 127]),
   midi.NoteOnEvent(tick=40, channel=2, data=[40, 0]),
   midi.NoteOnEvent(tick=0, channel=2, data=[40, 127]),
   midi.NoteOnEvent(tick=40, channel=2, data=[40, 0]),
   midi.NoteOnEvent(tick=0, channel=2, data=[59, 127]),
   midi.NoteOnEvent(tick=0, channel=2, data=[52, 127]),
   midi.NoteOnEvent(tick=120, channel=2, data=[59, 0]),
   midi.NoteOnEvent(tick=0, channel=2, data=[52, 0]),
   midi.NoteOnEvent(tick=0, channel=2, data=[40, 127]),
   midi.NoteOnEvent(tick=40, channel=2, data=[40, 0]),
   midi.NoteOnEvent(tick=0, channel=2, data=[40, 127]),
   midi.NoteOnEvent(tick=40, channel=2, data=[40, 0]),
   midi.NoteOnEvent(tick=0, channel=2, data=[40, 127]),
   midi.NoteOnEvent(tick=40, channel=2, data=[40, 0]),
   midi.NoteOnEvent(tick=0, channel=2, data=[59, 127]),
   midi.NoteOnEvent(tick=0, channel=2, data=[52, 127]),
   midi.NoteOnEvent(tick=120, channel=2, data=[59, 0]),
   midi.NoteOnEvent(tick=0, channel=2, data=[52, 0]),
   midi.NoteOnEvent(tick=0, channel=2, data=[62, 127]),
   midi.NoteOnEvent(tick=0, channel=2, data=[55, 127]),
   midi.NoteOnEvent(tick=120, channel=2, data=[62, 0]),
   midi.NoteOnEvent(tick=0, channel=2, data=[55, 0]),
   midi.NoteOnEvent(tick=0, channel=2, data=[52, 127]),
   midi.NoteOnEvent(tick=0, channel=2, data=[59, 127]),
   midi.NoteOnEvent(tick=120, channel=2, data=[52, 0]),
   midi.NoteOnEvent(tick=0, channel=2, data=[59, 0]),
   midi.NoteOnEvent(tick=0, channel=2, data=[43, 127]),
   midi.NoteOnEvent(tick=0, channel=2, data=[48, 127]),
   midi.NoteOnEvent(tick=0, channel=2, data=[55, 127]),
   midi.NoteOnEvent(tick=120, channel=2, data=[43, 0]),
   midi.NoteOnEvent(tick=0, channel=2, data=[48, 0]),
   midi.NoteOnEvent(tick=0, channel=2, data=[55, 0]),
   midi.NoteOnEvent(tick=0, channel=2, data=[50, 127]),
   midi.NoteOnEvent(tick=0, channel=2, data=[43, 127]),
   midi.NoteOnEvent(tick=120, channel=2, data=[50, 0]),
   midi.NoteOnEvent(tick=0, channel=2, data=[43, 0]),
   midi.NoteOnEvent(tick=0, channel=2, data=[50, 127]),
   midi.NoteOnEvent(tick=0, channel=2, data=[57, 127]),
   midi.NoteOnEvent(tick=120, channel=2, data=[50, 0]),
   midi.NoteOnEvent(tick=0, channel=2, data=[57, 0]),
   midi.NoteOnEvent(tick=0, channel=2, data=[55, 127]),
   midi.NoteOnEvent(tick=0, channel=2, data=[48, 127]),
   midi.NoteOnEvent(tick=120, channel=2, data=[55, 0]),
   midi.NoteOnEvent(tick=0, channel=2, data=[48, 0]),
   midi.NoteOnEvent(tick=0, channel=2, data=[40, 127]),
   midi.NoteOnEvent(tick=40, channel=2, data=[40, 0]),
   midi.NoteOnEvent(tick=0, channel=2, data=[40, 127]),
   midi.NoteOnEvent(tick=40, channel=2, data=[40, 0]),
   midi.NoteOnEvent(tick=0, channel=2, data=[40, 127]),
   midi.NoteOnEvent(tick=40, channel=2, data=[40, 0]),
   midi.NoteOnEvent(tick=0, channel=2, data=[59, 127]),
   midi.NoteOnEvent(tick=0, channel=2, data=[52, 127]),
   midi.NoteOnEvent(tick=120, channel=2, data=[59, 0]),
   midi.NoteOnEvent(tick=0, channel=2, data=[52, 0]),
   midi.NoteOnEvent(tick=0, channel=2, data=[40, 127]),
   midi.NoteOnEvent(tick=40, channel=2, data=[40, 0]),
   midi.NoteOnEvent(tick=0, channel=2, data=[40, 127]),
   midi.NoteOnEvent(tick=40, channel=2, data=[40, 0]),
   midi.NoteOnEvent(tick=0, channel=2, data=[40, 127]),
   midi.NoteOnEvent(tick=40, channel=2, data=[40, 0]),
   midi.NoteOnEvent(tick=0, channel=2, data=[59, 127]),
   midi.NoteOnEvent(tick=0, channel=2, data=[52, 127]),
   midi.NoteOnEvent(tick=120, channel=2, data=[59, 0]),
   midi.NoteOnEvent(tick=0, channel=2, data=[52, 0]),
   midi.NoteOnEvent(tick=0, channel=2, data=[40, 127]),
   midi.NoteOnEvent(tick=40, channel=2, data=[40, 0]),
   midi.NoteOnEvent(tick=0, channel=2, data=[40, 127]),
   midi.NoteOnEvent(tick=40, channel=2, data=[40, 0]),
   midi.NoteOnEvent(tick=0, channel=2, data=[40, 127]),
   midi.NoteOnEvent(tick=40, channel=2, data=[40, 0]),
   midi.NoteOnEvent(tick=0, channel=2, data=[59, 127]),
   midi.NoteOnEvent(tick=0, channel=2, data=[52, 127]),
   midi.NoteOnEvent(tick=120, channel=2, data=[59, 0]),
   midi.NoteOnEvent(tick=0, channel=2, data=[52, 0]),
   midi.NoteOnEvent(tick=0, channel=2, data=[50, 127]),
   midi.NoteOnEvent(tick=0, channel=2, data=[57, 127]),
   midi.NoteOnEvent(tick=120, channel=2, data=[50, 0]),
   midi.NoteOnEvent(tick=0, channel=2, data=[57, 0]),
   midi.NoteOnEvent(tick=0, channel=2, data=[50, 127]),
   midi.NoteOnEvent(tick=0, channel=2, data=[57, 127]),
   midi.NoteOnEvent(tick=120, channel=2, data=[50, 0]),
   midi.NoteOnEvent(tick=0, channel=2, data=[57, 0]),
   midi.NoteOnEvent(tick=0, channel=2, data=[40, 127]),
   midi.NoteOnEvent(tick=40, channel=2, data=[40, 0]),
   midi.NoteOnEvent(tick=0, channel=2, data=[40, 127]),
   midi.NoteOnEvent(tick=40, channel=2, data=[40, 0]),
   midi.NoteOnEvent(tick=0, channel=2, data=[40, 127]),
   midi.NoteOnEvent(tick=40, channel=2, data=[40, 0]),
   midi.NoteOnEvent(tick=0, channel=2, data=[59, 127]),
   midi.NoteOnEvent(tick=0, channel=2, data=[52, 127]),
   midi.NoteOnEvent(tick=120, channel=2, data=[59, 0]),
   midi.NoteOnEvent(tick=0, channel=2, data=[52, 0]),
   midi.NoteOnEvent(tick=0, channel=2, data=[40, 127]),
   midi.NoteOnEvent(tick=40, channel=2, data=[40, 0]),
   midi.NoteOnEvent(tick=0, channel=2, data=[40, 127]),
   midi.NoteOnEvent(tick=40, channel=2, data=[40, 0]),
   midi.NoteOnEvent(tick=0, channel=2, data=[40, 127]),
   midi.NoteOnEvent(tick=40, channel=2, data=[40, 0]),
   midi.NoteOnEvent(tick=0, channel=2, data=[59, 127]),
   midi.NoteOnEvent(tick=0, channel=2, data=[52, 127]),
   midi.NoteOnEvent(tick=120, channel=2, data=[59, 0]),
   midi.NoteOnEvent(tick=0, channel=2, data=[52, 0]),
   midi.NoteOnEvent(tick=0, channel=2, data=[40, 127]),
   midi.NoteOnEvent(tick=40, channel=2, data=[40, 0]),
   midi.NoteOnEvent(tick=0, channel=2, data=[40, 127]),
   midi.NoteOnEvent(tick=40, channel=2, data=[40, 0]),
   midi.NoteOnEvent(tick=0, channel=2, data=[40, 127]),
   midi.NoteOnEvent(tick=40, channel=2, data=[40, 0]),
   midi.NoteOnEvent(tick=0, channel=2, data=[59, 127]),
   midi.NoteOnEvent(tick=0, channel=2, data=[52, 127]),
   midi.NoteOnEvent(tick=120, channel=2, data=[59, 0]),
   midi.NoteOnEvent(tick=0, channel=2, data=[52, 0]),
   midi.NoteOnEvent(tick=0, channel=2, data=[55, 127]),
   midi.NoteOnEvent(tick=0, channel=2, data=[48, 127]),
   midi.NoteOnEvent(tick=120, channel=2, data=[55, 0]),
   midi.NoteOnEvent(tick=0, channel=2, data=[48, 0]),
   midi.NoteOnEvent(tick=0, channel=2, data=[50, 127]),
   midi.NoteOnEvent(tick=0, channel=2, data=[57, 127]),
   midi.NoteOnEvent(tick=120, channel=2, data=[50, 0]),
   midi.NoteOnEvent(tick=0, channel=2, data=[57, 0]),
   midi.NoteOnEvent(tick=0, channel=2, data=[40, 127]),
   midi.NoteOnEvent(tick=40, channel=2, data=[40, 0]),
   midi.NoteOnEvent(tick=0, channel=2, data=[40, 127]),
   midi.NoteOnEvent(tick=40, channel=2, data=[40, 0]),
   midi.NoteOnEvent(tick=0, channel=2, data=[40, 127]),
   midi.NoteOnEvent(tick=40, channel=2, data=[40, 0]),
   midi.NoteOnEvent(tick=0, channel=2, data=[59, 127]),
   midi.NoteOnEvent(tick=0, channel=2, data=[52, 127]),
   midi.NoteOnEvent(tick=120, channel=2, data=[59, 0]),
   midi.NoteOnEvent(tick=0, channel=2, data=[52, 0]),
   midi.NoteOnEvent(tick=0, channel=2, data=[40, 127]),
   midi.NoteOnEvent(tick=40, channel=2, data=[40, 0]),
   midi.NoteOnEvent(tick=0, channel=2, data=[40, 127]),
   midi.NoteOnEvent(tick=40, channel=2, data=[40, 0]),
   midi.NoteOnEvent(tick=0, channel=2, data=[40, 127]),
   midi.NoteOnEvent(tick=40, channel=2, data=[40, 0]),
   midi.NoteOnEvent(tick=0, channel=2, data=[59, 127]),
   midi.NoteOnEvent(tick=0, channel=2, data=[52, 127]),
   midi.NoteOnEvent(tick=120, channel=2, data=[59, 0]),
   midi.NoteOnEvent(tick=0, channel=2, data=[52, 0]),
   midi.NoteOnEvent(tick=0, channel=2, data=[40, 127]),
   midi.NoteOnEvent(tick=40, channel=2, data=[40, 0]),
   midi.NoteOnEvent(tick=0, channel=2, data=[40, 127]),
   midi.NoteOnEvent(tick=40, channel=2, data=[40, 0]),
   midi.NoteOnEvent(tick=0, channel=2, data=[40, 127]),
   midi.NoteOnEvent(tick=40, channel=2, data=[40, 0]),
   midi.NoteOnEvent(tick=0, channel=2, data=[59, 127]),
   midi.NoteOnEvent(tick=0, channel=2, data=[52, 127]),
   midi.NoteOnEvent(tick=120, channel=2, data=[59, 0]),
   midi.NoteOnEvent(tick=0, channel=2, data=[52, 0]),
   midi.NoteOnEvent(tick=0, channel=2, data=[62, 127]),
   midi.NoteOnEvent(tick=0, channel=2, data=[55, 127]),
   midi.NoteOnEvent(tick=120, channel=2, data=[62, 0]),
   midi.NoteOnEvent(tick=0, channel=2, data=[55, 0]),
   midi.NoteOnEvent(tick=0, channel=2, data=[52, 127]),
   midi.NoteOnEvent(tick=0, channel=2, data=[59, 127]),
   midi.NoteOnEvent(tick=120, channel=2, data=[52, 0]),
   midi.NoteOnEvent(tick=0, channel=2, data=[59, 0]),
   midi.NoteOnEvent(tick=0, channel=2, data=[43, 127]),
   midi.NoteOnEvent(tick=0, channel=2, data=[48, 127]),
   midi.NoteOnEvent(tick=0, channel=2, data=[55, 127]),
   midi.NoteOnEvent(tick=120, channel=2, data=[43, 0]),
   midi.NoteOnEvent(tick=0, channel=2, data=[48, 0]),
   midi.NoteOnEvent(tick=0, channel=2, data=[55, 0]),
   midi.NoteOnEvent(tick=0, channel=2, data=[50, 127]),
   midi.NoteOnEvent(tick=0, channel=2, data=[43, 127]),
   midi.NoteOnEvent(tick=120, channel=2, data=[50, 0]),
   midi.NoteOnEvent(tick=0, channel=2, data=[43, 0]),
   midi.NoteOnEvent(tick=0, channel=2, data=[50, 127]),
   midi.NoteOnEvent(tick=0, channel=2, data=[57, 127]),
   midi.NoteOnEvent(tick=120, channel=2, data=[50, 0]),
   midi.NoteOnEvent(tick=0, channel=2, data=[57, 0]),
   midi.NoteOnEvent(tick=0, channel=2, data=[55, 127]),
   midi.NoteOnEvent(tick=0, channel=2, data=[48, 127]),
   midi.NoteOnEvent(tick=120, channel=2, data=[55, 0]),
   midi.NoteOnEvent(tick=0, channel=2, data=[48, 0]),
   midi.NoteOnEvent(tick=0, channel=2, data=[40, 127]),
   midi.NoteOnEvent(tick=40, channel=2, data=[40, 0]),
   midi.NoteOnEvent(tick=0, channel=2, data=[40, 127]),
   midi.NoteOnEvent(tick=40, channel=2, data=[40, 0]),
   midi.NoteOnEvent(tick=0, channel=2, data=[40, 127]),
   midi.NoteOnEvent(tick=40, channel=2, data=[40, 0]),
   midi.NoteOnEvent(tick=0, channel=2, data=[59, 127]),
   midi.NoteOnEvent(tick=0, channel=2, data=[52, 127]),
   midi.NoteOnEvent(tick=120, channel=2, data=[59, 0]),
   midi.NoteOnEvent(tick=0, channel=2, data=[52, 0]),
   midi.NoteOnEvent(tick=0, channel=2, data=[40, 127]),
   midi.NoteOnEvent(tick=40, channel=2, data=[40, 0]),
   midi.NoteOnEvent(tick=0, channel=2, data=[40, 127]),
   midi.NoteOnEvent(tick=40, channel=2, data=[40, 0]),
   midi.NoteOnEvent(tick=0, channel=2, data=[40, 127]),
   midi.NoteOnEvent(tick=40, channel=2, data=[40, 0]),
   midi.NoteOnEvent(tick=0, channel=2, data=[59, 127]),
   midi.NoteOnEvent(tick=0, channel=2, data=[52, 127]),
   midi.NoteOnEvent(tick=120, channel=2, data=[59, 0]),
   midi.NoteOnEvent(tick=0, channel=2, data=[52, 0]),
   midi.NoteOnEvent(tick=0, channel=2, data=[40, 127]),
   midi.NoteOnEvent(tick=40, channel=2, data=[40, 0]),
   midi.NoteOnEvent(tick=0, channel=2, data=[40, 127]),
   midi.NoteOnEvent(tick=40, channel=2, data=[40, 0]),
   midi.NoteOnEvent(tick=0, channel=2, data=[40, 127]),
   midi.NoteOnEvent(tick=40, channel=2, data=[40, 0]),
   midi.NoteOnEvent(tick=0, channel=2, data=[59, 127]),
   midi.NoteOnEvent(tick=0, channel=2, data=[52, 127]),
   midi.NoteOnEvent(tick=120, channel=2, data=[59, 0]),
   midi.NoteOnEvent(tick=0, channel=2, data=[52, 0]),
   midi.NoteOnEvent(tick=0, channel=2, data=[50, 127]),
   midi.NoteOnEvent(tick=0, channel=2, data=[57, 127]),
   midi.NoteOnEvent(tick=120, channel=2, data=[50, 0]),
   midi.NoteOnEvent(tick=0, channel=2, data=[57, 0]),
   midi.NoteOnEvent(tick=0, channel=2, data=[50, 127]),
   midi.NoteOnEvent(tick=0, channel=2, data=[57, 127]),
   midi.NoteOnEvent(tick=120, channel=2, data=[50, 0]),
   midi.NoteOnEvent(tick=0, channel=2, data=[57, 0]),
   midi.NoteOnEvent(tick=0, channel=2, data=[40, 127]),
   midi.NoteOnEvent(tick=40, channel=2, data=[40, 0]),
   midi.NoteOnEvent(tick=0, channel=2, data=[40, 127]),
   midi.NoteOnEvent(tick=40, channel=2, data=[40, 0]),
   midi.NoteOnEvent(tick=0, channel=2, data=[40, 127]),
   midi.NoteOnEvent(tick=40, channel=2, data=[40, 0]),
   midi.NoteOnEvent(tick=0, channel=2, data=[59, 127]),
   midi.NoteOnEvent(tick=0, channel=2, data=[52, 127]),
   midi.NoteOnEvent(tick=120, channel=2, data=[59, 0]),
   midi.NoteOnEvent(tick=0, channel=2, data=[52, 0]),
   midi.NoteOnEvent(tick=0, channel=2, data=[40, 127]),
   midi.NoteOnEvent(tick=40, channel=2, data=[40, 0]),
   midi.NoteOnEvent(tick=0, channel=2, data=[40, 127]),
   midi.NoteOnEvent(tick=40, channel=2, data=[40, 0]),
   midi.NoteOnEvent(tick=0, channel=2, data=[40, 127]),
   midi.NoteOnEvent(tick=40, channel=2, data=[40, 0]),
   midi.NoteOnEvent(tick=0, channel=2, data=[59, 127]),
   midi.NoteOnEvent(tick=0, channel=2, data=[52, 127]),
   midi.NoteOnEvent(tick=120, channel=2, data=[59, 0]),
   midi.NoteOnEvent(tick=0, channel=2, data=[52, 0]),
   midi.NoteOnEvent(tick=0, channel=2, data=[40, 127]),
   midi.NoteOnEvent(tick=40, channel=2, data=[40, 0]),
   midi.NoteOnEvent(tick=0, channel=2, data=[40, 127]),
   midi.NoteOnEvent(tick=40, channel=2, data=[40, 0]),
   midi.NoteOnEvent(tick=0, channel=2, data=[40, 127]),
   midi.NoteOnEvent(tick=40, channel=2, data=[40, 0]),
   midi.NoteOnEvent(tick=0, channel=2, data=[59, 127]),
   midi.NoteOnEvent(tick=0, channel=2, data=[52, 127]),
   midi.NoteOnEvent(tick=120, channel=2, data=[59, 0]),
   midi.NoteOnEvent(tick=0, channel=2, data=[52, 0]),
   midi.NoteOnEvent(tick=0, channel=2, data=[55, 127]),
   midi.NoteOnEvent(tick=0, channel=2, data=[48, 127]),
   midi.NoteOnEvent(tick=120, channel=2, data=[55, 0]),
   midi.NoteOnEvent(tick=0, channel=2, data=[48, 0]),
   midi.NoteOnEvent(tick=0, channel=2, data=[50, 127]),
   midi.NoteOnEvent(tick=0, channel=2, data=[57, 127]),
   midi.NoteOnEvent(tick=120, channel=2, data=[50, 0]),
   midi.NoteOnEvent(tick=0, channel=2, data=[57, 0]),
   midi.NoteOnEvent(tick=0, channel=2, data=[40, 127]),
   midi.NoteOnEvent(tick=40, channel=2, data=[40, 0]),
   midi.NoteOnEvent(tick=0, channel=2, data=[40, 127]),
   midi.NoteOnEvent(tick=40, channel=2, data=[40, 0]),
   midi.NoteOnEvent(tick=0, channel=2, data=[40, 127]),
   midi.NoteOnEvent(tick=40, channel=2, data=[40, 0]),
   midi.NoteOnEvent(tick=0, channel=2, data=[59, 127]),
   midi.NoteOnEvent(tick=0, channel=2, data=[52, 127]),
   midi.NoteOnEvent(tick=120, channel=2, data=[59, 0]),
   midi.NoteOnEvent(tick=0, channel=2, data=[52, 0]),
   midi.NoteOnEvent(tick=0, channel=2, data=[40, 127]),
   midi.NoteOnEvent(tick=40, channel=2, data=[40, 0]),
   midi.NoteOnEvent(tick=0, channel=2, data=[40, 127]),
   midi.NoteOnEvent(tick=40, channel=2, data=[40, 0]),
   midi.NoteOnEvent(tick=0, channel=2, data=[40, 127]),
   midi.NoteOnEvent(tick=40, channel=2, data=[40, 0]),
   midi.NoteOnEvent(tick=0, channel=2, data=[59, 127]),
   midi.NoteOnEvent(tick=0, channel=2, data=[52, 127]),
   midi.NoteOnEvent(tick=120, channel=2, data=[59, 0]),
   midi.NoteOnEvent(tick=0, channel=2, data=[52, 0]),
   midi.NoteOnEvent(tick=0, channel=2, data=[40, 127]),
   midi.NoteOnEvent(tick=40, channel=2, data=[40, 0]),
   midi.NoteOnEvent(tick=0, channel=2, data=[40, 127]),
   midi.NoteOnEvent(tick=40, channel=2, data=[40, 0]),
   midi.NoteOnEvent(tick=0, channel=2, data=[40, 127]),
   midi.NoteOnEvent(tick=40, channel=2, data=[40, 0]),
   midi.NoteOnEvent(tick=0, channel=2, data=[59, 127]),
   midi.NoteOnEvent(tick=0, channel=2, data=[52, 127]),
   midi.NoteOnEvent(tick=120, channel=2, data=[59, 0]),
   midi.NoteOnEvent(tick=0, channel=2, data=[52, 0]),
   midi.NoteOnEvent(tick=0, channel=2, data=[62, 127]),
   midi.NoteOnEvent(tick=0, channel=2, data=[55, 127]),
   midi.NoteOnEvent(tick=120, channel=2, data=[62, 0]),
   midi.NoteOnEvent(tick=0, channel=2, data=[55, 0]),
   midi.NoteOnEvent(tick=0, channel=2, data=[52, 127]),
   midi.NoteOnEvent(tick=0, channel=2, data=[59, 127]),
   midi.NoteOnEvent(tick=120, channel=2, data=[52, 0]),
   midi.NoteOnEvent(tick=0, channel=2, data=[59, 0]),
   midi.NoteOnEvent(tick=0, channel=2, data=[43, 127]),
   midi.NoteOnEvent(tick=0, channel=2, data=[48, 127]),
   midi.NoteOnEvent(tick=0, channel=2, data=[55, 127]),
   midi.NoteOnEvent(tick=120, channel=2, data=[43, 0]),
   midi.NoteOnEvent(tick=0, channel=2, data=[48, 0]),
   midi.NoteOnEvent(tick=0, channel=2, data=[55, 0]),
   midi.NoteOnEvent(tick=0, channel=2, data=[50, 127]),
   midi.NoteOnEvent(tick=0, channel=2, data=[43, 127]),
   midi.NoteOnEvent(tick=120, channel=2, data=[50, 0]),
   midi.NoteOnEvent(tick=0, channel=2, data=[43, 0]),
   midi.NoteOnEvent(tick=0, channel=2, data=[50, 127]),
   midi.NoteOnEvent(tick=0, channel=2, data=[57, 127]),
   midi.NoteOnEvent(tick=120, channel=2, data=[50, 0]),
   midi.NoteOnEvent(tick=0, channel=2, data=[57, 0]),
   midi.NoteOnEvent(tick=0, channel=2, data=[55, 127]),
   midi.NoteOnEvent(tick=0, channel=2, data=[48, 127]),
   midi.NoteOnEvent(tick=120, channel=2, data=[55, 0]),
   midi.NoteOnEvent(tick=0, channel=2, data=[48, 0]),
   midi.NoteOnEvent(tick=0, channel=2, data=[59, 127]),
   midi.NoteOnEvent(tick=0, channel=2, data=[52, 127]),
   midi.NoteOnEvent(tick=780, channel=2, data=[59, 0]),
   midi.NoteOnEvent(tick=0, channel=2, data=[52, 0]),
   midi.NoteOnEvent(tick=0, channel=2, data=[52, 127]),
   midi.NoteOnEvent(tick=0, channel=2, data=[59, 127]),
   midi.NoteOnEvent(tick=60, channel=2, data=[52, 0]),
   midi.NoteOnEvent(tick=0, channel=2, data=[59, 0]),
   midi.NoteOnEvent(tick=0, channel=2, data=[52, 127]),
   midi.NoteOnEvent(tick=0, channel=2, data=[59, 127]),
   midi.NoteOnEvent(tick=120, channel=2, data=[52, 0]),
   midi.NoteOnEvent(tick=0, channel=2, data=[59, 0]),
   midi.NoteOnEvent(tick=0, channel=2, data=[57, 127]),
   midi.NoteOnEvent(tick=0, channel=2, data=[50, 127]),
   midi.NoteOnEvent(tick=780, channel=2, data=[57, 0]),
   midi.NoteOnEvent(tick=0, channel=2, data=[50, 0]),
   midi.NoteOnEvent(tick=0, channel=2, data=[50, 127]),
   midi.NoteOnEvent(tick=0, channel=2, data=[57, 127]),
   midi.NoteOnEvent(tick=60, channel=2, data=[50, 0]),
   midi.NoteOnEvent(tick=0, channel=2, data=[57, 0]),
   midi.NoteOnEvent(tick=0, channel=2, data=[50, 127]),
   midi.NoteOnEvent(tick=0, channel=2, data=[57, 127]),
   midi.NoteOnEvent(tick=120, channel=2, data=[50, 0]),
   midi.NoteOnEvent(tick=0, channel=2, data=[57, 0]),
   midi.NoteOnEvent(tick=0, channel=2, data=[55, 127]),
   midi.NoteOnEvent(tick=0, channel=2, data=[48, 127]),
   midi.NoteOnEvent(tick=780, channel=2, data=[55, 0]),
   midi.NoteOnEvent(tick=0, channel=2, data=[48, 0]),
   midi.NoteOnEvent(tick=0, channel=2, data=[48, 127]),
   midi.NoteOnEvent(tick=0, channel=2, data=[55, 127]),
   midi.NoteOnEvent(tick=60, channel=2, data=[48, 0]),
   midi.NoteOnEvent(tick=0, channel=2, data=[55, 0]),
   midi.NoteOnEvent(tick=0, channel=2, data=[48, 127]),
   midi.NoteOnEvent(tick=0, channel=2, data=[55, 127]),
   midi.NoteOnEvent(tick=120, channel=2, data=[48, 0]),
   midi.NoteOnEvent(tick=0, channel=2, data=[55, 0]),
   midi.NoteOnEvent(tick=0, channel=2, data=[54, 127]),
   midi.NoteOnEvent(tick=0, channel=2, data=[47, 127]),
   midi.NoteOnEvent(tick=480, channel=2, data=[54, 0]),
   midi.NoteOnEvent(tick=0, channel=2, data=[47, 0]),
   midi.NoteOnEvent(tick=0, channel=2, data=[47, 127]),
   midi.NoteOnEvent(tick=0, channel=2, data=[54, 127]),
   midi.NoteOnEvent(tick=480, channel=2, data=[47, 0]),
   midi.NoteOnEvent(tick=0, channel=2, data=[54, 0]),
   midi.NoteOnEvent(tick=0, channel=2, data=[59, 127]),
   midi.NoteOnEvent(tick=0, channel=2, data=[52, 127]),
   midi.NoteOnEvent(tick=780, channel=2, data=[59, 0]),
   midi.NoteOnEvent(tick=0, channel=2, data=[52, 0]),
   midi.NoteOnEvent(tick=0, channel=2, data=[52, 127]),
   midi.NoteOnEvent(tick=0, channel=2, data=[59, 127]),
   midi.NoteOnEvent(tick=60, channel=2, data=[52, 0]),
   midi.NoteOnEvent(tick=0, channel=2, data=[59, 0]),
   midi.NoteOnEvent(tick=0, channel=2, data=[52, 127]),
   midi.NoteOnEvent(tick=0, channel=2, data=[59, 127]),
   midi.NoteOnEvent(tick=120, channel=2, data=[52, 0]),
   midi.NoteOnEvent(tick=0, channel=2, data=[59, 0]),
   midi.NoteOnEvent(tick=0, channel=2, data=[57, 127]),
   midi.NoteOnEvent(tick=0, channel=2, data=[50, 127]),
   midi.NoteOnEvent(tick=780, channel=2, data=[57, 0]),
   midi.NoteOnEvent(tick=0, channel=2, data=[50, 0]),
   midi.NoteOnEvent(tick=0, channel=2, data=[50, 127]),
   midi.NoteOnEvent(tick=0, channel=2, data=[57, 127]),
   midi.NoteOnEvent(tick=60, channel=2, data=[50, 0]),
   midi.NoteOnEvent(tick=0, channel=2, data=[57, 0]),
   midi.NoteOnEvent(tick=0, channel=2, data=[50, 127]),
   midi.NoteOnEvent(tick=0, channel=2, data=[57, 127]),
   midi.NoteOnEvent(tick=120, channel=2, data=[50, 0]),
   midi.NoteOnEvent(tick=0, channel=2, data=[57, 0]),
   midi.NoteOnEvent(tick=0, channel=2, data=[55, 127]),
   midi.NoteOnEvent(tick=0, channel=2, data=[48, 127]),
   midi.NoteOnEvent(tick=480, channel=2, data=[55, 0]),
   midi.NoteOnEvent(tick=0, channel=2, data=[48, 0]),
   midi.NoteOnEvent(tick=0, channel=2, data=[54, 127]),
   midi.NoteOnEvent(tick=0, channel=2, data=[47, 127]),
   midi.NoteOnEvent(tick=120, channel=2, data=[54, 0]),
   midi.NoteOnEvent(tick=0, channel=2, data=[47, 0]),
   midi.NoteOnEvent(tick=0, channel=2, data=[55, 127]),
   midi.NoteOnEvent(tick=0, channel=2, data=[48, 127]),
   midi.NoteOnEvent(tick=120, channel=2, data=[55, 0]),
   midi.NoteOnEvent(tick=0, channel=2, data=[48, 0]),
   midi.NoteOnEvent(tick=0, channel=2, data=[47, 127]),
   midi.NoteOnEvent(tick=0, channel=2, data=[54, 127]),
   midi.NoteOnEvent(tick=120, channel=2, data=[47, 0]),
   midi.NoteOnEvent(tick=0, channel=2, data=[54, 0]),
   midi.NoteOnEvent(tick=0, channel=2, data=[50, 127]),
   midi.NoteOnEvent(tick=0, channel=2, data=[43, 127]),
   midi.NoteOnEvent(tick=120, channel=2, data=[50, 0]),
   midi.NoteOnEvent(tick=0, channel=2, data=[43, 0]),
   midi.NoteOnEvent(tick=0, channel=2, data=[40, 127]),
   midi.NoteOnEvent(tick=0, channel=2, data=[52, 127]),
   midi.NoteOnEvent(tick=60, channel=2, data=[40, 0]),
   midi.NoteOnEvent(tick=0, channel=2, data=[52, 0]),
   midi.NoteOnEvent(tick=0, channel=2, data=[50, 127]),
   midi.NoteOnEvent(tick=60, channel=2, data=[50, 0]),
   midi.NoteOnEvent(tick=0, channel=2, data=[40, 127]),
   midi.NoteOnEvent(tick=0, channel=2, data=[52, 127]),
   midi.NoteOnEvent(tick=60, channel=2, data=[40, 0]),
   midi.NoteOnEvent(tick=0, channel=2, data=[52, 0]),
   midi.NoteOnEvent(tick=0, channel=2, data=[50, 127]),
   midi.NoteOnEvent(tick=60, channel=2, data=[50, 0]),
   midi.NoteOnEvent(tick=0, channel=2, data=[40, 127]),
   midi.NoteOnEvent(tick=0, channel=2, data=[52, 127]),
   midi.NoteOnEvent(tick=60, channel=2, data=[40, 0]),
   midi.NoteOnEvent(tick=0, channel=2, data=[52, 0]),
   midi.NoteOnEvent(tick=0, channel=2, data=[50, 127]),
   midi.NoteOnEvent(tick=60, channel=2, data=[50, 0]),
   midi.NoteOnEvent(tick=0, channel=2, data=[40, 127]),
   midi.NoteOnEvent(tick=0, channel=2, data=[52, 127]),
   midi.NoteOnEvent(tick=60, channel=2, data=[40, 0]),
   midi.NoteOnEvent(tick=0, channel=2, data=[52, 0]),
   midi.NoteOnEvent(tick=0, channel=2, data=[50, 127]),
   midi.NoteOnEvent(tick=60, channel=2, data=[50, 0]),
   midi.NoteOnEvent(tick=0, channel=2, data=[40, 127]),
   midi.NoteOnEvent(tick=0, channel=2, data=[52, 127]),
   midi.NoteOnEvent(tick=60, channel=2, data=[40, 0]),
   midi.NoteOnEvent(tick=0, channel=2, data=[52, 0]),
   midi.NoteOnEvent(tick=0, channel=2, data=[50, 127]),
   midi.NoteOnEvent(tick=60, channel=2, data=[50, 0]),
   midi.NoteOnEvent(tick=0, channel=2, data=[40, 127]),
   midi.NoteOnEvent(tick=0, channel=2, data=[52, 127]),
   midi.NoteOnEvent(tick=60, channel=2, data=[40, 0]),
   midi.NoteOnEvent(tick=0, channel=2, data=[52, 0]),
   midi.NoteOnEvent(tick=0, channel=2, data=[50, 127]),
   midi.NoteOnEvent(tick=60, channel=2, data=[50, 0]),
   midi.NoteOnEvent(tick=0, channel=2, data=[40, 127]),
   midi.NoteOnEvent(tick=0, channel=2, data=[52, 127]),
   midi.NoteOnEvent(tick=60, channel=2, data=[40, 0]),
   midi.NoteOnEvent(tick=0, channel=2, data=[52, 0]),
   midi.NoteOnEvent(tick=0, channel=2, data=[50, 127]),
   midi.NoteOnEvent(tick=60, channel=2, data=[50, 0]),
   midi.NoteOnEvent(tick=0, channel=2, data=[47, 127]),
   midi.NoteOnEvent(tick=0, channel=2, data=[50, 127]),
   midi.NoteOnEvent(tick=60, channel=2, data=[47, 0]),
   midi.NoteOnEvent(tick=0, channel=2, data=[50, 0]),
   midi.NoteOnEvent(tick=0, channel=2, data=[50, 127]),
   midi.NoteOnEvent(tick=60, channel=2, data=[50, 0]),
   midi.NoteOnEvent(tick=0, channel=2, data=[40, 127]),
   midi.NoteOnEvent(tick=0, channel=2, data=[52, 127]),
   midi.NoteOnEvent(tick=60, channel=2, data=[40, 0]),
   midi.NoteOnEvent(tick=0, channel=2, data=[52, 0]),
   midi.NoteOnEvent(tick=0, channel=2, data=[50, 127]),
   midi.NoteOnEvent(tick=60, channel=2, data=[50, 0]),
   midi.NoteOnEvent(tick=0, channel=2, data=[40, 127]),
   midi.NoteOnEvent(tick=0, channel=2, data=[52, 127]),
   midi.NoteOnEvent(tick=60, channel=2, data=[40, 0]),
   midi.NoteOnEvent(tick=0, channel=2, data=[52, 0]),
   midi.NoteOnEvent(tick=0, channel=2, data=[50, 127]),
   midi.NoteOnEvent(tick=60, channel=2, data=[50, 0]),
   midi.NoteOnEvent(tick=0, channel=2, data=[40, 127]),
   midi.NoteOnEvent(tick=0, channel=2, data=[52, 127]),
   midi.NoteOnEvent(tick=60, channel=2, data=[40, 0]),
   midi.NoteOnEvent(tick=0, channel=2, data=[52, 0]),
   midi.NoteOnEvent(tick=0, channel=2, data=[50, 127]),
   midi.NoteOnEvent(tick=60, channel=2, data=[50, 0]),
   midi.NoteOnEvent(tick=0, channel=2, data=[40, 127]),
   midi.NoteOnEvent(tick=0, channel=2, data=[52, 127]),
   midi.NoteOnEvent(tick=60, channel=2, data=[40, 0]),
   midi.NoteOnEvent(tick=0, channel=2, data=[52, 0]),
   midi.NoteOnEvent(tick=0, channel=2, data=[50, 127]),
   midi.NoteOnEvent(tick=60, channel=2, data=[50, 0]),
   midi.NoteOnEvent(tick=0, channel=2, data=[47, 127]),
   midi.NoteOnEvent(tick=60, channel=2, data=[47, 0]),
   midi.NoteOnEvent(tick=0, channel=2, data=[50, 127]),
   midi.NoteOnEvent(tick=60, channel=2, data=[50, 0]),
   midi.NoteOnEvent(tick=0, channel=2, data=[52, 127]),
   midi.NoteOnEvent(tick=60, channel=2, data=[52, 0]),
   midi.NoteOnEvent(tick=0, channel=2, data=[50, 127]),
   midi.NoteOnEvent(tick=60, channel=2, data=[50, 0]),
   midi.NoteOnEvent(tick=0, channel=2, data=[57, 127]),
   midi.NoteOnEvent(tick=60, channel=2, data=[57, 0]),
   midi.NoteOnEvent(tick=0, channel=2, data=[55, 127]),
   midi.NoteOnEvent(tick=60, channel=2, data=[55, 0]),
   midi.NoteOnEvent(tick=0, channel=2, data=[52, 127]),
   midi.NoteOnEvent(tick=60, channel=2, data=[52, 0]),
   midi.NoteOnEvent(tick=0, channel=2, data=[50, 127]),
   midi.NoteOnEvent(tick=60, channel=2, data=[50, 0]),
   midi.NoteOnEvent(tick=0, channel=2, data=[40, 127]),
   midi.NoteOnEvent(tick=0, channel=2, data=[52, 127]),
   midi.NoteOnEvent(tick=60, channel=2, data=[40, 0]),
   midi.NoteOnEvent(tick=0, channel=2, data=[52, 0]),
   midi.NoteOnEvent(tick=0, channel=2, data=[50, 127]),
   midi.NoteOnEvent(tick=60, channel=2, data=[50, 0]),
   midi.NoteOnEvent(tick=0, channel=2, data=[40, 127]),
   midi.NoteOnEvent(tick=0, channel=2, data=[52, 127]),
   midi.NoteOnEvent(tick=60, channel=2, data=[40, 0]),
   midi.NoteOnEvent(tick=0, channel=2, data=[52, 0]),
   midi.NoteOnEvent(tick=0, channel=2, data=[50, 127]),
   midi.NoteOnEvent(tick=60, channel=2, data=[50, 0]),
   midi.NoteOnEvent(tick=0, channel=2, data=[40, 127]),
   midi.NoteOnEvent(tick=0, channel=2, data=[52, 127]),
   midi.NoteOnEvent(tick=60, channel=2, data=[40, 0]),
   midi.NoteOnEvent(tick=0, channel=2, data=[52, 0]),
   midi.NoteOnEvent(tick=0, channel=2, data=[50, 127]),
   midi.NoteOnEvent(tick=60, channel=2, data=[50, 0]),
   midi.NoteOnEvent(tick=0, channel=2, data=[47, 127]),
   midi.NoteOnEvent(tick=0, channel=2, data=[50, 127]),
   midi.NoteOnEvent(tick=60, channel=2, data=[47, 0]),
   midi.NoteOnEvent(tick=0, channel=2, data=[50, 0]),
   midi.NoteOnEvent(tick=0, channel=2, data=[50, 127]),
   midi.NoteOnEvent(tick=60, channel=2, data=[50, 0]),
   midi.NoteOnEvent(tick=0, channel=2, data=[40, 127]),
   midi.NoteOnEvent(tick=0, channel=2, data=[52, 127]),
   midi.NoteOnEvent(tick=60, channel=2, data=[40, 0]),
   midi.NoteOnEvent(tick=0, channel=2, data=[52, 0]),
   midi.NoteOnEvent(tick=0, channel=2, data=[50, 127]),
   midi.NoteOnEvent(tick=60, channel=2, data=[50, 0]),
   midi.NoteOnEvent(tick=0, channel=2, data=[40, 127]),
   midi.NoteOnEvent(tick=0, channel=2, data=[52, 127]),
   midi.NoteOnEvent(tick=60, channel=2, data=[40, 0]),
   midi.NoteOnEvent(tick=0, channel=2, data=[52, 0]),
   midi.NoteOnEvent(tick=0, channel=2, data=[50, 127]),
   midi.NoteOnEvent(tick=60, channel=2, data=[50, 0]),
   midi.NoteOnEvent(tick=0, channel=2, data=[40, 127]),
   midi.NoteOnEvent(tick=0, channel=2, data=[52, 127]),
   midi.NoteOnEvent(tick=60, channel=2, data=[40, 0]),
   midi.NoteOnEvent(tick=0, channel=2, data=[52, 0]),
   midi.NoteOnEvent(tick=0, channel=2, data=[50, 127]),
   midi.NoteOnEvent(tick=60, channel=2, data=[50, 0]),
   midi.NoteOnEvent(tick=0, channel=2, data=[47, 127]),
   midi.NoteOnEvent(tick=0, channel=2, data=[50, 127]),
   midi.NoteOnEvent(tick=60, channel=2, data=[47, 0]),
   midi.NoteOnEvent(tick=0, channel=2, data=[50, 0]),
   midi.NoteOnEvent(tick=0, channel=2, data=[50, 127]),
   midi.NoteOnEvent(tick=60, channel=2, data=[50, 0]),
   midi.NoteOnEvent(tick=0, channel=2, data=[48, 127]),
   midi.NoteOnEvent(tick=0, channel=2, data=[55, 127]),
   midi.NoteOnEvent(tick=120, channel=2, data=[48, 0]),
   midi.NoteOnEvent(tick=0, channel=2, data=[55, 0]),
   midi.NoteOnEvent(tick=0, channel=2, data=[43, 127]),
   midi.NoteOnEvent(tick=0, channel=2, data=[50, 127]),
   midi.NoteOnEvent(tick=120, channel=2, data=[43, 0]),
   midi.NoteOnEvent(tick=0, channel=2, data=[50, 0]),
   midi.NoteOnEvent(tick=0, channel=2, data=[57, 127]),
   midi.NoteOnEvent(tick=0, channel=2, data=[50, 127]),
   midi.NoteOnEvent(tick=120, channel=2, data=[57, 0]),
   midi.NoteOnEvent(tick=0, channel=2, data=[50, 0]),
   midi.NoteOnEvent(tick=0, channel=2, data=[48, 127]),
   midi.NoteOnEvent(tick=0, channel=2, data=[55, 127]),
   midi.NoteOnEvent(tick=120, channel=2, data=[48, 0]),
   midi.NoteOnEvent(tick=0, channel=2, data=[55, 0]),
   midi.NoteOnEvent(tick=0, channel=2, data=[40, 127]),
   midi.NoteOnEvent(tick=0, channel=2, data=[52, 127]),
   midi.NoteOnEvent(tick=60, channel=2, data=[40, 0]),
   midi.NoteOnEvent(tick=0, channel=2, data=[52, 0]),
   midi.NoteOnEvent(tick=0, channel=2, data=[50, 127]),
   midi.NoteOnEvent(tick=60, channel=2, data=[50, 0]),
   midi.NoteOnEvent(tick=0, channel=2, data=[40, 127]),
   midi.NoteOnEvent(tick=0, channel=2, data=[52, 127]),
   midi.NoteOnEvent(tick=60, channel=2, data=[40, 0]),
   midi.NoteOnEvent(tick=0, channel=2, data=[52, 0]),
   midi.NoteOnEvent(tick=0, channel=2, data=[50, 127]),
   midi.NoteOnEvent(tick=60, channel=2, data=[50, 0]),
   midi.NoteOnEvent(tick=0, channel=2, data=[40, 127]),
   midi.NoteOnEvent(tick=0, channel=2, data=[52, 127]),
   midi.NoteOnEvent(tick=60, channel=2, data=[40, 0]),
   midi.NoteOnEvent(tick=0, channel=2, data=[52, 0]),
   midi.NoteOnEvent(tick=0, channel=2, data=[50, 127]),
   midi.NoteOnEvent(tick=60, channel=2, data=[50, 0]),
   midi.NoteOnEvent(tick=0, channel=2, data=[40, 127]),
   midi.NoteOnEvent(tick=0, channel=2, data=[52, 127]),
   midi.NoteOnEvent(tick=60, channel=2, data=[40, 0]),
   midi.NoteOnEvent(tick=0, channel=2, data=[52, 0]),
   midi.NoteOnEvent(tick=0, channel=2, data=[50, 127]),
   midi.NoteOnEvent(tick=60, channel=2, data=[50, 0]),
   midi.NoteOnEvent(tick=0, channel=2, data=[40, 127]),
   midi.NoteOnEvent(tick=0, channel=2, data=[52, 127]),
   midi.NoteOnEvent(tick=60, channel=2, data=[40, 0]),
   midi.NoteOnEvent(tick=0, channel=2, data=[52, 0]),
   midi.NoteOnEvent(tick=0, channel=2, data=[50, 127]),
   midi.NoteOnEvent(tick=60, channel=2, data=[50, 0]),
   midi.NoteOnEvent(tick=0, channel=2, data=[40, 127]),
   midi.NoteOnEvent(tick=0, channel=2, data=[52, 127]),
   midi.NoteOnEvent(tick=60, channel=2, data=[40, 0]),
   midi.NoteOnEvent(tick=0, channel=2, data=[52, 0]),
   midi.NoteOnEvent(tick=0, channel=2, data=[50, 127]),
   midi.NoteOnEvent(tick=60, channel=2, data=[50, 0]),
   midi.NoteOnEvent(tick=0, channel=2, data=[40, 127]),
   midi.NoteOnEvent(tick=0, channel=2, data=[52, 127]),
   midi.NoteOnEvent(tick=60, channel=2, data=[40, 0]),
   midi.NoteOnEvent(tick=0, channel=2, data=[52, 0]),
   midi.NoteOnEvent(tick=0, channel=2, data=[50, 127]),
   midi.NoteOnEvent(tick=60, channel=2, data=[50, 0]),
   midi.NoteOnEvent(tick=0, channel=2, data=[47, 127]),
   midi.NoteOnEvent(tick=0, channel=2, data=[50, 127]),
   midi.NoteOnEvent(tick=60, channel=2, data=[47, 0]),
   midi.NoteOnEvent(tick=0, channel=2, data=[50, 0]),
   midi.NoteOnEvent(tick=0, channel=2, data=[50, 127]),
   midi.NoteOnEvent(tick=60, channel=2, data=[50, 0]),
   midi.NoteOnEvent(tick=0, channel=2, data=[40, 127]),
   midi.NoteOnEvent(tick=0, channel=2, data=[52, 127]),
   midi.NoteOnEvent(tick=60, channel=2, data=[40, 0]),
   midi.NoteOnEvent(tick=0, channel=2, data=[52, 0]),
   midi.NoteOnEvent(tick=0, channel=2, data=[50, 127]),
   midi.NoteOnEvent(tick=60, channel=2, data=[50, 0]),
   midi.NoteOnEvent(tick=0, channel=2, data=[40, 127]),
   midi.NoteOnEvent(tick=0, channel=2, data=[52, 127]),
   midi.NoteOnEvent(tick=60, channel=2, data=[40, 0]),
   midi.NoteOnEvent(tick=0, channel=2, data=[52, 0]),
   midi.NoteOnEvent(tick=0, channel=2, data=[50, 127]),
   midi.NoteOnEvent(tick=60, channel=2, data=[50, 0]),
   midi.NoteOnEvent(tick=0, channel=2, data=[40, 127]),
   midi.NoteOnEvent(tick=0, channel=2, data=[52, 127]),
   midi.NoteOnEvent(tick=60, channel=2, data=[40, 0]),
   midi.NoteOnEvent(tick=0, channel=2, data=[52, 0]),
   midi.NoteOnEvent(tick=0, channel=2, data=[50, 127]),
   midi.NoteOnEvent(tick=60, channel=2, data=[50, 0]),
   midi.NoteOnEvent(tick=0, channel=2, data=[40, 127]),
   midi.NoteOnEvent(tick=0, channel=2, data=[52, 127]),
   midi.NoteOnEvent(tick=60, channel=2, data=[40, 0]),
   midi.NoteOnEvent(tick=0, channel=2, data=[52, 0]),
   midi.NoteOnEvent(tick=0, channel=2, data=[50, 127]),
   midi.NoteOnEvent(tick=60, channel=2, data=[50, 0]),
   midi.NoteOnEvent(tick=0, channel=2, data=[47, 127]),
   midi.NoteOnEvent(tick=60, channel=2, data=[47, 0]),
   midi.NoteOnEvent(tick=0, channel=2, data=[50, 127]),
   midi.NoteOnEvent(tick=60, channel=2, data=[50, 0]),
   midi.NoteOnEvent(tick=0, channel=2, data=[52, 127]),
   midi.NoteOnEvent(tick=60, channel=2, data=[52, 0]),
   midi.NoteOnEvent(tick=0, channel=2, data=[50, 127]),
   midi.NoteOnEvent(tick=60, channel=2, data=[50, 0]),
   midi.NoteOnEvent(tick=0, channel=2, data=[57, 127]),
   midi.NoteOnEvent(tick=60, channel=2, data=[57, 0]),
   midi.NoteOnEvent(tick=0, channel=2, data=[55, 127]),
   midi.NoteOnEvent(tick=60, channel=2, data=[55, 0]),
   midi.NoteOnEvent(tick=0, channel=2, data=[52, 127]),
   midi.NoteOnEvent(tick=60, channel=2, data=[52, 0]),
   midi.NoteOnEvent(tick=0, channel=2, data=[50, 127]),
   midi.NoteOnEvent(tick=60, channel=2, data=[50, 0]),
   midi.NoteOnEvent(tick=0, channel=2, data=[40, 127]),
   midi.NoteOnEvent(tick=0, channel=2, data=[52, 127]),
   midi.NoteOnEvent(tick=60, channel=2, data=[40, 0]),
   midi.NoteOnEvent(tick=0, channel=2, data=[52, 0]),
   midi.NoteOnEvent(tick=0, channel=2, data=[50, 127]),
   midi.NoteOnEvent(tick=60, channel=2, data=[50, 0]),
   midi.NoteOnEvent(tick=0, channel=2, data=[40, 127]),
   midi.NoteOnEvent(tick=0, channel=2, data=[52, 127]),
   midi.NoteOnEvent(tick=60, channel=2, data=[40, 0]),
   midi.NoteOnEvent(tick=0, channel=2, data=[52, 0]),
   midi.NoteOnEvent(tick=0, channel=2, data=[50, 127]),
   midi.NoteOnEvent(tick=60, channel=2, data=[50, 0]),
   midi.NoteOnEvent(tick=0, channel=2, data=[40, 127]),
   midi.NoteOnEvent(tick=0, channel=2, data=[52, 127]),
   midi.NoteOnEvent(tick=60, channel=2, data=[40, 0]),
   midi.NoteOnEvent(tick=0, channel=2, data=[52, 0]),
   midi.NoteOnEvent(tick=0, channel=2, data=[50, 127]),
   midi.NoteOnEvent(tick=60, channel=2, data=[50, 0]),
   midi.NoteOnEvent(tick=0, channel=2, data=[47, 127]),
   midi.NoteOnEvent(tick=0, channel=2, data=[50, 127]),
   midi.NoteOnEvent(tick=60, channel=2, data=[47, 0]),
   midi.NoteOnEvent(tick=0, channel=2, data=[50, 0]),
   midi.NoteOnEvent(tick=0, channel=2, data=[50, 127]),
   midi.NoteOnEvent(tick=60, channel=2, data=[50, 0]),
   midi.NoteOnEvent(tick=0, channel=2, data=[40, 127]),
   midi.NoteOnEvent(tick=0, channel=2, data=[52, 127]),
   midi.NoteOnEvent(tick=60, channel=2, data=[40, 0]),
   midi.NoteOnEvent(tick=0, channel=2, data=[52, 0]),
   midi.NoteOnEvent(tick=0, channel=2, data=[50, 127]),
   midi.NoteOnEvent(tick=60, channel=2, data=[50, 0]),
   midi.NoteOnEvent(tick=0, channel=2, data=[40, 127]),
   midi.NoteOnEvent(tick=0, channel=2, data=[52, 127]),
   midi.NoteOnEvent(tick=60, channel=2, data=[40, 0]),
   midi.NoteOnEvent(tick=0, channel=2, data=[52, 0]),
   midi.NoteOnEvent(tick=0, channel=2, data=[50, 127]),
   midi.NoteOnEvent(tick=60, channel=2, data=[50, 0]),
   midi.NoteOnEvent(tick=0, channel=2, data=[40, 127]),
   midi.NoteOnEvent(tick=0, channel=2, data=[52, 127]),
   midi.NoteOnEvent(tick=60, channel=2, data=[40, 0]),
   midi.NoteOnEvent(tick=0, channel=2, data=[52, 0]),
   midi.NoteOnEvent(tick=0, channel=2, data=[50, 127]),
   midi.NoteOnEvent(tick=60, channel=2, data=[50, 0]),
   midi.NoteOnEvent(tick=0, channel=2, data=[47, 127]),
   midi.NoteOnEvent(tick=0, channel=2, data=[50, 127]),
   midi.NoteOnEvent(tick=60, channel=2, data=[47, 0]),
   midi.NoteOnEvent(tick=0, channel=2, data=[50, 0]),
   midi.NoteOnEvent(tick=0, channel=2, data=[50, 127]),
   midi.NoteOnEvent(tick=60, channel=2, data=[50, 0]),
   midi.NoteOnEvent(tick=0, channel=2, data=[48, 127]),
   midi.NoteOnEvent(tick=0, channel=2, data=[55, 127]),
   midi.NoteOnEvent(tick=120, channel=2, data=[48, 0]),
   midi.NoteOnEvent(tick=0, channel=2, data=[55, 0]),
   midi.NoteOnEvent(tick=0, channel=2, data=[43, 127]),
   midi.NoteOnEvent(tick=0, channel=2, data=[50, 127]),
   midi.NoteOnEvent(tick=120, channel=2, data=[43, 0]),
   midi.NoteOnEvent(tick=0, channel=2, data=[50, 0]),
   midi.NoteOnEvent(tick=0, channel=2, data=[57, 127]),
   midi.NoteOnEvent(tick=0, channel=2, data=[50, 127]),
   midi.NoteOnEvent(tick=120, channel=2, data=[57, 0]),
   midi.NoteOnEvent(tick=0, channel=2, data=[50, 0]),
   midi.NoteOnEvent(tick=0, channel=2, data=[48, 127]),
   midi.NoteOnEvent(tick=0, channel=2, data=[55, 127]),
   midi.NoteOnEvent(tick=120, channel=2, data=[48, 0]),
   midi.NoteOnEvent(tick=0, channel=2, data=[55, 0]),
   midi.NoteOnEvent(tick=0, channel=2, data=[40, 127]),
   midi.NoteOnEvent(tick=40, channel=2, data=[40, 0]),
   midi.NoteOnEvent(tick=0, channel=2, data=[40, 127]),
   midi.NoteOnEvent(tick=40, channel=2, data=[40, 0]),
   midi.NoteOnEvent(tick=0, channel=2, data=[40, 127]),
   midi.NoteOnEvent(tick=40, channel=2, data=[40, 0]),
   midi.NoteOnEvent(tick=0, channel=2, data=[59, 127]),
   midi.NoteOnEvent(tick=0, channel=2, data=[52, 127]),
   midi.NoteOnEvent(tick=120, channel=2, data=[59, 0]),
   midi.NoteOnEvent(tick=0, channel=2, data=[52, 0]),
   midi.NoteOnEvent(tick=0, channel=2, data=[40, 127]),
   midi.NoteOnEvent(tick=40, channel=2, data=[40, 0]),
   midi.NoteOnEvent(tick=0, channel=2, data=[40, 127]),
   midi.NoteOnEvent(tick=40, channel=2, data=[40, 0]),
   midi.NoteOnEvent(tick=0, channel=2, data=[40, 127]),
   midi.NoteOnEvent(tick=40, channel=2, data=[40, 0]),
   midi.NoteOnEvent(tick=0, channel=2, data=[59, 127]),
   midi.NoteOnEvent(tick=0, channel=2, data=[52, 127]),
   midi.NoteOnEvent(tick=120, channel=2, data=[59, 0]),
   midi.NoteOnEvent(tick=0, channel=2, data=[52, 0]),
   midi.NoteOnEvent(tick=0, channel=2, data=[40, 127]),
   midi.NoteOnEvent(tick=40, channel=2, data=[40, 0]),
   midi.NoteOnEvent(tick=0, channel=2, data=[40, 127]),
   midi.NoteOnEvent(tick=40, channel=2, data=[40, 0]),
   midi.NoteOnEvent(tick=0, channel=2, data=[40, 127]),
   midi.NoteOnEvent(tick=40, channel=2, data=[40, 0]),
   midi.NoteOnEvent(tick=0, channel=2, data=[59, 127]),
   midi.NoteOnEvent(tick=0, channel=2, data=[52, 127]),
   midi.NoteOnEvent(tick=120, channel=2, data=[59, 0]),
   midi.NoteOnEvent(tick=0, channel=2, data=[52, 0]),
   midi.NoteOnEvent(tick=0, channel=2, data=[50, 127]),
   midi.NoteOnEvent(tick=0, channel=2, data=[57, 127]),
   midi.NoteOnEvent(tick=120, channel=2, data=[50, 0]),
   midi.NoteOnEvent(tick=0, channel=2, data=[57, 0]),
   midi.NoteOnEvent(tick=0, channel=2, data=[50, 127]),
   midi.NoteOnEvent(tick=0, channel=2, data=[57, 127]),
   midi.NoteOnEvent(tick=120, channel=2, data=[50, 0]),
   midi.NoteOnEvent(tick=0, channel=2, data=[57, 0]),
   midi.NoteOnEvent(tick=0, channel=2, data=[40, 127]),
   midi.NoteOnEvent(tick=40, channel=2, data=[40, 0]),
   midi.NoteOnEvent(tick=0, channel=2, data=[40, 127]),
   midi.NoteOnEvent(tick=40, channel=2, data=[40, 0]),
   midi.NoteOnEvent(tick=0, channel=2, data=[40, 127]),
   midi.NoteOnEvent(tick=40, channel=2, data=[40, 0]),
   midi.NoteOnEvent(tick=0, channel=2, data=[59, 127]),
   midi.NoteOnEvent(tick=0, channel=2, data=[52, 127]),
   midi.NoteOnEvent(tick=120, channel=2, data=[59, 0]),
   midi.NoteOnEvent(tick=0, channel=2, data=[52, 0]),
   midi.NoteOnEvent(tick=0, channel=2, data=[40, 127]),
   midi.NoteOnEvent(tick=40, channel=2, data=[40, 0]),
   midi.NoteOnEvent(tick=0, channel=2, data=[40, 127]),
   midi.NoteOnEvent(tick=40, channel=2, data=[40, 0]),
   midi.NoteOnEvent(tick=0, channel=2, data=[40, 127]),
   midi.NoteOnEvent(tick=40, channel=2, data=[40, 0]),
   midi.NoteOnEvent(tick=0, channel=2, data=[59, 127]),
   midi.NoteOnEvent(tick=0, channel=2, data=[52, 127]),
   midi.NoteOnEvent(tick=120, channel=2, data=[59, 0]),
   midi.NoteOnEvent(tick=0, channel=2, data=[52, 0]),
   midi.NoteOnEvent(tick=0, channel=2, data=[40, 127]),
   midi.NoteOnEvent(tick=40, channel=2, data=[40, 0]),
   midi.NoteOnEvent(tick=0, channel=2, data=[40, 127]),
   midi.NoteOnEvent(tick=40, channel=2, data=[40, 0]),
   midi.NoteOnEvent(tick=0, channel=2, data=[40, 127]),
   midi.NoteOnEvent(tick=40, channel=2, data=[40, 0]),
   midi.NoteOnEvent(tick=0, channel=2, data=[59, 127]),
   midi.NoteOnEvent(tick=0, channel=2, data=[52, 127]),
   midi.NoteOnEvent(tick=120, channel=2, data=[59, 0]),
   midi.NoteOnEvent(tick=0, channel=2, data=[52, 0]),
   midi.NoteOnEvent(tick=0, channel=2, data=[55, 127]),
   midi.NoteOnEvent(tick=0, channel=2, data=[48, 127]),
   midi.NoteOnEvent(tick=120, channel=2, data=[55, 0]),
   midi.NoteOnEvent(tick=0, channel=2, data=[48, 0]),
   midi.NoteOnEvent(tick=0, channel=2, data=[50, 127]),
   midi.NoteOnEvent(tick=0, channel=2, data=[57, 127]),
   midi.NoteOnEvent(tick=120, channel=2, data=[50, 0]),
   midi.NoteOnEvent(tick=0, channel=2, data=[57, 0]),
   midi.NoteOnEvent(tick=0, channel=2, data=[40, 127]),
   midi.NoteOnEvent(tick=40, channel=2, data=[40, 0]),
   midi.NoteOnEvent(tick=0, channel=2, data=[40, 127]),
   midi.NoteOnEvent(tick=40, channel=2, data=[40, 0]),
   midi.NoteOnEvent(tick=0, channel=2, data=[40, 127]),
   midi.NoteOnEvent(tick=40, channel=2, data=[40, 0]),
   midi.NoteOnEvent(tick=0, channel=2, data=[59, 127]),
   midi.NoteOnEvent(tick=0, channel=2, data=[52, 127]),
   midi.NoteOnEvent(tick=120, channel=2, data=[59, 0]),
   midi.NoteOnEvent(tick=0, channel=2, data=[52, 0]),
   midi.NoteOnEvent(tick=0, channel=2, data=[40, 127]),
   midi.NoteOnEvent(tick=40, channel=2, data=[40, 0]),
   midi.NoteOnEvent(tick=0, channel=2, data=[40, 127]),
   midi.NoteOnEvent(tick=40, channel=2, data=[40, 0]),
   midi.NoteOnEvent(tick=0, channel=2, data=[40, 127]),
   midi.NoteOnEvent(tick=40, channel=2, data=[40, 0]),
   midi.NoteOnEvent(tick=0, channel=2, data=[59, 127]),
   midi.NoteOnEvent(tick=0, channel=2, data=[52, 127]),
   midi.NoteOnEvent(tick=120, channel=2, data=[59, 0]),
   midi.NoteOnEvent(tick=0, channel=2, data=[52, 0]),
   midi.NoteOnEvent(tick=0, channel=2, data=[40, 127]),
   midi.NoteOnEvent(tick=40, channel=2, data=[40, 0]),
   midi.NoteOnEvent(tick=0, channel=2, data=[40, 127]),
   midi.NoteOnEvent(tick=40, channel=2, data=[40, 0]),
   midi.NoteOnEvent(tick=0, channel=2, data=[40, 127]),
   midi.NoteOnEvent(tick=40, channel=2, data=[40, 0]),
   midi.NoteOnEvent(tick=0, channel=2, data=[59, 127]),
   midi.NoteOnEvent(tick=0, channel=2, data=[52, 127]),
   midi.NoteOnEvent(tick=120, channel=2, data=[59, 0]),
   midi.NoteOnEvent(tick=0, channel=2, data=[52, 0]),
   midi.NoteOnEvent(tick=0, channel=2, data=[62, 127]),
   midi.NoteOnEvent(tick=0, channel=2, data=[55, 127]),
   midi.NoteOnEvent(tick=120, channel=2, data=[62, 0]),
   midi.NoteOnEvent(tick=0, channel=2, data=[55, 0]),
   midi.NoteOnEvent(tick=0, channel=2, data=[52, 127]),
   midi.NoteOnEvent(tick=0, channel=2, data=[59, 127]),
   midi.NoteOnEvent(tick=120, channel=2, data=[52, 0]),
   midi.NoteOnEvent(tick=0, channel=2, data=[59, 0]),
   midi.NoteOnEvent(tick=0, channel=2, data=[43, 127]),
   midi.NoteOnEvent(tick=0, channel=2, data=[48, 127]),
   midi.NoteOnEvent(tick=0, channel=2, data=[55, 127]),
   midi.NoteOnEvent(tick=120, channel=2, data=[43, 0]),
   midi.NoteOnEvent(tick=0, channel=2, data=[48, 0]),
   midi.NoteOnEvent(tick=0, channel=2, data=[55, 0]),
   midi.NoteOnEvent(tick=0, channel=2, data=[50, 127]),
   midi.NoteOnEvent(tick=0, channel=2, data=[43, 127]),
   midi.NoteOnEvent(tick=120, channel=2, data=[50, 0]),
   midi.NoteOnEvent(tick=0, channel=2, data=[43, 0]),
   midi.NoteOnEvent(tick=0, channel=2, data=[50, 127]),
   midi.NoteOnEvent(tick=0, channel=2, data=[57, 127]),
   midi.NoteOnEvent(tick=120, channel=2, data=[50, 0]),
   midi.NoteOnEvent(tick=0, channel=2, data=[57, 0]),
   midi.NoteOnEvent(tick=0, channel=2, data=[55, 127]),
   midi.NoteOnEvent(tick=0, channel=2, data=[48, 127]),
   midi.NoteOnEvent(tick=120, channel=2, data=[55, 0]),
   midi.NoteOnEvent(tick=0, channel=2, data=[48, 0]),
   midi.NoteOnEvent(tick=0, channel=2, data=[40, 127]),
   midi.NoteOnEvent(tick=40, channel=2, data=[40, 0]),
   midi.NoteOnEvent(tick=0, channel=2, data=[40, 127]),
   midi.NoteOnEvent(tick=40, channel=2, data=[40, 0]),
   midi.NoteOnEvent(tick=0, channel=2, data=[40, 127]),
   midi.NoteOnEvent(tick=40, channel=2, data=[40, 0]),
   midi.NoteOnEvent(tick=0, channel=2, data=[59, 127]),
   midi.NoteOnEvent(tick=0, channel=2, data=[52, 127]),
   midi.NoteOnEvent(tick=120, channel=2, data=[59, 0]),
   midi.NoteOnEvent(tick=0, channel=2, data=[52, 0]),
   midi.NoteOnEvent(tick=0, channel=2, data=[40, 127]),
   midi.NoteOnEvent(tick=40, channel=2, data=[40, 0]),
   midi.NoteOnEvent(tick=0, channel=2, data=[40, 127]),
   midi.NoteOnEvent(tick=40, channel=2, data=[40, 0]),
   midi.NoteOnEvent(tick=0, channel=2, data=[40, 127]),
   midi.NoteOnEvent(tick=40, channel=2, data=[40, 0]),
   midi.NoteOnEvent(tick=0, channel=2, data=[59, 127]),
   midi.NoteOnEvent(tick=0, channel=2, data=[52, 127]),
   midi.NoteOnEvent(tick=120, channel=2, data=[59, 0]),
   midi.NoteOnEvent(tick=0, channel=2, data=[52, 0]),
   midi.NoteOnEvent(tick=0, channel=2, data=[40, 127]),
   midi.NoteOnEvent(tick=40, channel=2, data=[40, 0]),
   midi.NoteOnEvent(tick=0, channel=2, data=[40, 127]),
   midi.NoteOnEvent(tick=40, channel=2, data=[40, 0]),
   midi.NoteOnEvent(tick=0, channel=2, data=[40, 127]),
   midi.NoteOnEvent(tick=40, channel=2, data=[40, 0]),
   midi.NoteOnEvent(tick=0, channel=2, data=[59, 127]),
   midi.NoteOnEvent(tick=0, channel=2, data=[52, 127]),
   midi.NoteOnEvent(tick=120, channel=2, data=[59, 0]),
   midi.NoteOnEvent(tick=0, channel=2, data=[52, 0]),
   midi.NoteOnEvent(tick=0, channel=2, data=[50, 127]),
   midi.NoteOnEvent(tick=0, channel=2, data=[57, 127]),
   midi.NoteOnEvent(tick=120, channel=2, data=[50, 0]),
   midi.NoteOnEvent(tick=0, channel=2, data=[57, 0]),
   midi.NoteOnEvent(tick=0, channel=2, data=[50, 127]),
   midi.NoteOnEvent(tick=0, channel=2, data=[57, 127]),
   midi.NoteOnEvent(tick=120, channel=2, data=[50, 0]),
   midi.NoteOnEvent(tick=0, channel=2, data=[57, 0]),
   midi.NoteOnEvent(tick=0, channel=2, data=[40, 127]),
   midi.NoteOnEvent(tick=40, channel=2, data=[40, 0]),
   midi.NoteOnEvent(tick=0, channel=2, data=[40, 127]),
   midi.NoteOnEvent(tick=40, channel=2, data=[40, 0]),
   midi.NoteOnEvent(tick=0, channel=2, data=[40, 127]),
   midi.NoteOnEvent(tick=40, channel=2, data=[40, 0]),
   midi.NoteOnEvent(tick=0, channel=2, data=[59, 127]),
   midi.NoteOnEvent(tick=0, channel=2, data=[52, 127]),
   midi.NoteOnEvent(tick=120, channel=2, data=[59, 0]),
   midi.NoteOnEvent(tick=0, channel=2, data=[52, 0]),
   midi.NoteOnEvent(tick=0, channel=2, data=[40, 127]),
   midi.NoteOnEvent(tick=40, channel=2, data=[40, 0]),
   midi.NoteOnEvent(tick=0, channel=2, data=[40, 127]),
   midi.NoteOnEvent(tick=40, channel=2, data=[40, 0]),
   midi.NoteOnEvent(tick=0, channel=2, data=[40, 127]),
   midi.NoteOnEvent(tick=40, channel=2, data=[40, 0]),
   midi.NoteOnEvent(tick=0, channel=2, data=[59, 127]),
   midi.NoteOnEvent(tick=0, channel=2, data=[52, 127]),
   midi.NoteOnEvent(tick=120, channel=2, data=[59, 0]),
   midi.NoteOnEvent(tick=0, channel=2, data=[52, 0]),
   midi.NoteOnEvent(tick=0, channel=2, data=[40, 127]),
   midi.NoteOnEvent(tick=40, channel=2, data=[40, 0]),
   midi.NoteOnEvent(tick=0, channel=2, data=[40, 127]),
   midi.NoteOnEvent(tick=40, channel=2, data=[40, 0]),
   midi.NoteOnEvent(tick=0, channel=2, data=[40, 127]),
   midi.NoteOnEvent(tick=40, channel=2, data=[40, 0]),
   midi.NoteOnEvent(tick=0, channel=2, data=[59, 127]),
   midi.NoteOnEvent(tick=0, channel=2, data=[52, 127]),
   midi.NoteOnEvent(tick=120, channel=2, data=[59, 0]),
   midi.NoteOnEvent(tick=0, channel=2, data=[52, 0]),
   midi.NoteOnEvent(tick=0, channel=2, data=[55, 127]),
   midi.NoteOnEvent(tick=0, channel=2, data=[48, 127]),
   midi.NoteOnEvent(tick=120, channel=2, data=[55, 0]),
   midi.NoteOnEvent(tick=0, channel=2, data=[48, 0]),
   midi.NoteOnEvent(tick=0, channel=2, data=[50, 127]),
   midi.NoteOnEvent(tick=0, channel=2, data=[57, 127]),
   midi.NoteOnEvent(tick=120, channel=2, data=[50, 0]),
   midi.NoteOnEvent(tick=0, channel=2, data=[57, 0]),
   midi.NoteOnEvent(tick=0, channel=2, data=[40, 127]),
   midi.NoteOnEvent(tick=40, channel=2, data=[40, 0]),
   midi.NoteOnEvent(tick=0, channel=2, data=[40, 127]),
   midi.NoteOnEvent(tick=40, channel=2, data=[40, 0]),
   midi.NoteOnEvent(tick=0, channel=2, data=[40, 127]),
   midi.NoteOnEvent(tick=40, channel=2, data=[40, 0]),
   midi.NoteOnEvent(tick=0, channel=2, data=[59, 127]),
   midi.NoteOnEvent(tick=0, channel=2, data=[52, 127]),
   midi.NoteOnEvent(tick=120, channel=2, data=[59, 0]),
   midi.NoteOnEvent(tick=0, channel=2, data=[52, 0]),
   midi.NoteOnEvent(tick=0, channel=2, data=[40, 127]),
   midi.NoteOnEvent(tick=40, channel=2, data=[40, 0]),
   midi.NoteOnEvent(tick=0, channel=2, data=[40, 127]),
   midi.NoteOnEvent(tick=40, channel=2, data=[40, 0]),
   midi.NoteOnEvent(tick=0, channel=2, data=[40, 127]),
   midi.NoteOnEvent(tick=40, channel=2, data=[40, 0]),
   midi.NoteOnEvent(tick=0, channel=2, data=[59, 127]),
   midi.NoteOnEvent(tick=0, channel=2, data=[52, 127]),
   midi.NoteOnEvent(tick=120, channel=2, data=[59, 0]),
   midi.NoteOnEvent(tick=0, channel=2, data=[52, 0]),
   midi.NoteOnEvent(tick=0, channel=2, data=[40, 127]),
   midi.NoteOnEvent(tick=40, channel=2, data=[40, 0]),
   midi.NoteOnEvent(tick=0, channel=2, data=[40, 127]),
   midi.NoteOnEvent(tick=40, channel=2, data=[40, 0]),
   midi.NoteOnEvent(tick=0, channel=2, data=[40, 127]),
   midi.NoteOnEvent(tick=40, channel=2, data=[40, 0]),
   midi.NoteOnEvent(tick=0, channel=2, data=[59, 127]),
   midi.NoteOnEvent(tick=0, channel=2, data=[52, 127]),
   midi.NoteOnEvent(tick=120, channel=2, data=[59, 0]),
   midi.NoteOnEvent(tick=0, channel=2, data=[52, 0]),
   midi.NoteOnEvent(tick=0, channel=2, data=[62, 127]),
   midi.NoteOnEvent(tick=0, channel=2, data=[55, 127]),
   midi.NoteOnEvent(tick=120, channel=2, data=[62, 0]),
   midi.NoteOnEvent(tick=0, channel=2, data=[55, 0]),
   midi.NoteOnEvent(tick=0, channel=2, data=[52, 127]),
   midi.NoteOnEvent(tick=0, channel=2, data=[59, 127]),
   midi.NoteOnEvent(tick=120, channel=2, data=[52, 0]),
   midi.NoteOnEvent(tick=0, channel=2, data=[59, 0]),
   midi.NoteOnEvent(tick=0, channel=2, data=[43, 127]),
   midi.NoteOnEvent(tick=0, channel=2, data=[48, 127]),
   midi.NoteOnEvent(tick=0, channel=2, data=[55, 127]),
   midi.NoteOnEvent(tick=120, channel=2, data=[43, 0]),
   midi.NoteOnEvent(tick=0, channel=2, data=[48, 0]),
   midi.NoteOnEvent(tick=0, channel=2, data=[55, 0]),
   midi.NoteOnEvent(tick=0, channel=2, data=[50, 127]),
   midi.NoteOnEvent(tick=0, channel=2, data=[43, 127]),
   midi.NoteOnEvent(tick=120, channel=2, data=[50, 0]),
   midi.NoteOnEvent(tick=0, channel=2, data=[43, 0]),
   midi.NoteOnEvent(tick=0, channel=2, data=[50, 127]),
   midi.NoteOnEvent(tick=0, channel=2, data=[57, 127]),
   midi.NoteOnEvent(tick=120, channel=2, data=[50, 0]),
   midi.NoteOnEvent(tick=0, channel=2, data=[57, 0]),
   midi.NoteOnEvent(tick=0, channel=2, data=[55, 127]),
   midi.NoteOnEvent(tick=0, channel=2, data=[48, 127]),
   midi.NoteOnEvent(tick=120, channel=2, data=[55, 0]),
   midi.NoteOnEvent(tick=0, channel=2, data=[48, 0]),
   midi.NoteOnEvent(tick=0, channel=2, data=[59, 127]),
   midi.NoteOnEvent(tick=0, channel=2, data=[52, 127]),
   midi.NoteOnEvent(tick=780, channel=2, data=[59, 0]),
   midi.NoteOnEvent(tick=0, channel=2, data=[52, 0]),
   midi.NoteOnEvent(tick=0, channel=2, data=[52, 127]),
   midi.NoteOnEvent(tick=0, channel=2, data=[59, 127]),
   midi.NoteOnEvent(tick=60, channel=2, data=[52, 0]),
   midi.NoteOnEvent(tick=0, channel=2, data=[59, 0]),
   midi.NoteOnEvent(tick=0, channel=2, data=[52, 127]),
   midi.NoteOnEvent(tick=0, channel=2, data=[59, 127]),
   midi.NoteOnEvent(tick=120, channel=2, data=[52, 0]),
   midi.NoteOnEvent(tick=0, channel=2, data=[59, 0]),
   midi.NoteOnEvent(tick=0, channel=2, data=[57, 127]),
   midi.NoteOnEvent(tick=0, channel=2, data=[50, 127]),
   midi.NoteOnEvent(tick=780, channel=2, data=[57, 0]),
   midi.NoteOnEvent(tick=0, channel=2, data=[50, 0]),
   midi.NoteOnEvent(tick=0, channel=2, data=[50, 127]),
   midi.NoteOnEvent(tick=0, channel=2, data=[57, 127]),
   midi.NoteOnEvent(tick=60, channel=2, data=[50, 0]),
   midi.NoteOnEvent(tick=0, channel=2, data=[57, 0]),
   midi.NoteOnEvent(tick=0, channel=2, data=[50, 127]),
   midi.NoteOnEvent(tick=0, channel=2, data=[57, 127]),
   midi.NoteOnEvent(tick=120, channel=2, data=[50, 0]),
   midi.NoteOnEvent(tick=0, channel=2, data=[57, 0]),
   midi.NoteOnEvent(tick=0, channel=2, data=[55, 127]),
   midi.NoteOnEvent(tick=0, channel=2, data=[48, 127]),
   midi.NoteOnEvent(tick=780, channel=2, data=[55, 0]),
   midi.NoteOnEvent(tick=0, channel=2, data=[48, 0]),
   midi.NoteOnEvent(tick=0, channel=2, data=[48, 127]),
   midi.NoteOnEvent(tick=0, channel=2, data=[55, 127]),
   midi.NoteOnEvent(tick=60, channel=2, data=[48, 0]),
   midi.NoteOnEvent(tick=0, channel=2, data=[55, 0]),
   midi.NoteOnEvent(tick=0, channel=2, data=[48, 127]),
   midi.NoteOnEvent(tick=0, channel=2, data=[55, 127]),
   midi.NoteOnEvent(tick=120, channel=2, data=[48, 0]),
   midi.NoteOnEvent(tick=0, channel=2, data=[55, 0]),
   midi.NoteOnEvent(tick=0, channel=2, data=[54, 127]),
   midi.NoteOnEvent(tick=0, channel=2, data=[47, 127]),
   midi.NoteOnEvent(tick=480, channel=2, data=[54, 0]),
   midi.NoteOnEvent(tick=0, channel=2, data=[47, 0]),
   midi.NoteOnEvent(tick=0, channel=2, data=[47, 127]),
   midi.NoteOnEvent(tick=0, channel=2, data=[54, 127]),
   midi.NoteOnEvent(tick=480, channel=2, data=[47, 0]),
   midi.NoteOnEvent(tick=0, channel=2, data=[54, 0]),
   midi.NoteOnEvent(tick=0, channel=2, data=[59, 127]),
   midi.NoteOnEvent(tick=0, channel=2, data=[52, 127]),
   midi.NoteOnEvent(tick=780, channel=2, data=[59, 0]),
   midi.NoteOnEvent(tick=0, channel=2, data=[52, 0]),
   midi.NoteOnEvent(tick=0, channel=2, data=[52, 127]),
   midi.NoteOnEvent(tick=0, channel=2, data=[59, 127]),
   midi.NoteOnEvent(tick=60, channel=2, data=[52, 0]),
   midi.NoteOnEvent(tick=0, channel=2, data=[59, 0]),
   midi.NoteOnEvent(tick=0, channel=2, data=[52, 127]),
   midi.NoteOnEvent(tick=0, channel=2, data=[59, 127]),
   midi.NoteOnEvent(tick=120, channel=2, data=[52, 0]),
   midi.NoteOnEvent(tick=0, channel=2, data=[59, 0]),
   midi.NoteOnEvent(tick=0, channel=2, data=[57, 127]),
   midi.NoteOnEvent(tick=0, channel=2, data=[50, 127]),
   midi.NoteOnEvent(tick=780, channel=2, data=[57, 0]),
   midi.NoteOnEvent(tick=0, channel=2, data=[50, 0]),
   midi.NoteOnEvent(tick=0, channel=2, data=[50, 127]),
   midi.NoteOnEvent(tick=0, channel=2, data=[57, 127]),
   midi.NoteOnEvent(tick=60, channel=2, data=[50, 0]),
   midi.NoteOnEvent(tick=0, channel=2, data=[57, 0]),
   midi.NoteOnEvent(tick=0, channel=2, data=[50, 127]),
   midi.NoteOnEvent(tick=0, channel=2, data=[57, 127]),
   midi.NoteOnEvent(tick=120, channel=2, data=[50, 0]),
   midi.NoteOnEvent(tick=0, channel=2, data=[57, 0]),
   midi.NoteOnEvent(tick=0, channel=2, data=[55, 127]),
   midi.NoteOnEvent(tick=0, channel=2, data=[48, 127]),
   midi.NoteOnEvent(tick=480, channel=2, data=[55, 0]),
   midi.NoteOnEvent(tick=0, channel=2, data=[48, 0]),
   midi.NoteOnEvent(tick=0, channel=2, data=[54, 127]),
   midi.NoteOnEvent(tick=0, channel=2, data=[47, 127]),
   midi.NoteOnEvent(tick=120, channel=2, data=[54, 0]),
   midi.NoteOnEvent(tick=0, channel=2, data=[47, 0]),
   midi.NoteOnEvent(tick=0, channel=2, data=[55, 127]),
   midi.NoteOnEvent(tick=0, channel=2, data=[48, 127]),
   midi.NoteOnEvent(tick=120, channel=2, data=[55, 0]),
   midi.NoteOnEvent(tick=0, channel=2, data=[48, 0]),
   midi.NoteOnEvent(tick=0, channel=2, data=[47, 127]),
   midi.NoteOnEvent(tick=0, channel=2, data=[54, 127]),
   midi.NoteOnEvent(tick=120, channel=2, data=[47, 0]),
   midi.NoteOnEvent(tick=0, channel=2, data=[54, 0]),
   midi.NoteOnEvent(tick=0, channel=2, data=[50, 127]),
   midi.NoteOnEvent(tick=0, channel=2, data=[43, 127]),
   midi.NoteOnEvent(tick=120, channel=2, data=[50, 0]),
   midi.NoteOnEvent(tick=0, channel=2, data=[43, 0]),
   midi.NoteOnEvent(tick=0, channel=2, data=[40, 127]),
   midi.NoteOnEvent(tick=0, channel=2, data=[52, 127]),
   midi.NoteOnEvent(tick=60, channel=2, data=[40, 0]),
   midi.NoteOnEvent(tick=0, channel=2, data=[52, 0]),
   midi.NoteOnEvent(tick=0, channel=2, data=[50, 127]),
   midi.NoteOnEvent(tick=60, channel=2, data=[50, 0]),
   midi.NoteOnEvent(tick=0, channel=2, data=[40, 127]),
   midi.NoteOnEvent(tick=0, channel=2, data=[52, 127]),
   midi.NoteOnEvent(tick=60, channel=2, data=[40, 0]),
   midi.NoteOnEvent(tick=0, channel=2, data=[52, 0]),
   midi.NoteOnEvent(tick=0, channel=2, data=[50, 127]),
   midi.NoteOnEvent(tick=60, channel=2, data=[50, 0]),
   midi.NoteOnEvent(tick=0, channel=2, data=[40, 127]),
   midi.NoteOnEvent(tick=0, channel=2, data=[52, 127]),
   midi.NoteOnEvent(tick=60, channel=2, data=[40, 0]),
   midi.NoteOnEvent(tick=0, channel=2, data=[52, 0]),
   midi.NoteOnEvent(tick=0, channel=2, data=[50, 127]),
   midi.NoteOnEvent(tick=60, channel=2, data=[50, 0]),
   midi.NoteOnEvent(tick=0, channel=2, data=[40, 127]),
   midi.NoteOnEvent(tick=0, channel=2, data=[52, 127]),
   midi.NoteOnEvent(tick=60, channel=2, data=[40, 0]),
   midi.NoteOnEvent(tick=0, channel=2, data=[52, 0]),
   midi.NoteOnEvent(tick=0, channel=2, data=[50, 127]),
   midi.NoteOnEvent(tick=60, channel=2, data=[50, 0]),
   midi.NoteOnEvent(tick=0, channel=2, data=[40, 127]),
   midi.NoteOnEvent(tick=0, channel=2, data=[52, 127]),
   midi.NoteOnEvent(tick=60, channel=2, data=[40, 0]),
   midi.NoteOnEvent(tick=0, channel=2, data=[52, 0]),
   midi.NoteOnEvent(tick=0, channel=2, data=[50, 127]),
   midi.NoteOnEvent(tick=60, channel=2, data=[50, 0]),
   midi.NoteOnEvent(tick=0, channel=2, data=[40, 127]),
   midi.NoteOnEvent(tick=0, channel=2, data=[52, 127]),
   midi.NoteOnEvent(tick=60, channel=2, data=[40, 0]),
   midi.NoteOnEvent(tick=0, channel=2, data=[52, 0]),
   midi.NoteOnEvent(tick=0, channel=2, data=[50, 127]),
   midi.NoteOnEvent(tick=60, channel=2, data=[50, 0]),
   midi.NoteOnEvent(tick=0, channel=2, data=[40, 127]),
   midi.NoteOnEvent(tick=0, channel=2, data=[52, 127]),
   midi.NoteOnEvent(tick=60, channel=2, data=[40, 0]),
   midi.NoteOnEvent(tick=0, channel=2, data=[52, 0]),
   midi.NoteOnEvent(tick=0, channel=2, data=[50, 127]),
   midi.NoteOnEvent(tick=60, channel=2, data=[50, 0]),
   midi.NoteOnEvent(tick=0, channel=2, data=[47, 127]),
   midi.NoteOnEvent(tick=0, channel=2, data=[50, 127]),
   midi.NoteOnEvent(tick=60, channel=2, data=[47, 0]),
   midi.NoteOnEvent(tick=0, channel=2, data=[50, 0]),
   midi.NoteOnEvent(tick=0, channel=2, data=[50, 127]),
   midi.NoteOnEvent(tick=60, channel=2, data=[50, 0]),
   midi.NoteOnEvent(tick=0, channel=2, data=[40, 127]),
   midi.NoteOnEvent(tick=0, channel=2, data=[52, 127]),
   midi.NoteOnEvent(tick=60, channel=2, data=[40, 0]),
   midi.NoteOnEvent(tick=0, channel=2, data=[52, 0]),
   midi.NoteOnEvent(tick=0, channel=2, data=[50, 127]),
   midi.NoteOnEvent(tick=60, channel=2, data=[50, 0]),
   midi.NoteOnEvent(tick=0, channel=2, data=[40, 127]),
   midi.NoteOnEvent(tick=0, channel=2, data=[52, 127]),
   midi.NoteOnEvent(tick=60, channel=2, data=[40, 0]),
   midi.NoteOnEvent(tick=0, channel=2, data=[52, 0]),
   midi.NoteOnEvent(tick=0, channel=2, data=[50, 127]),
   midi.NoteOnEvent(tick=60, channel=2, data=[50, 0]),
   midi.NoteOnEvent(tick=0, channel=2, data=[40, 127]),
   midi.NoteOnEvent(tick=0, channel=2, data=[52, 127]),
   midi.NoteOnEvent(tick=60, channel=2, data=[40, 0]),
   midi.NoteOnEvent(tick=0, channel=2, data=[52, 0]),
   midi.NoteOnEvent(tick=0, channel=2, data=[50, 127]),
   midi.NoteOnEvent(tick=60, channel=2, data=[50, 0]),
   midi.NoteOnEvent(tick=0, channel=2, data=[40, 127]),
   midi.NoteOnEvent(tick=0, channel=2, data=[52, 127]),
   midi.NoteOnEvent(tick=60, channel=2, data=[40, 0]),
   midi.NoteOnEvent(tick=0, channel=2, data=[52, 0]),
   midi.NoteOnEvent(tick=0, channel=2, data=[50, 127]),
   midi.NoteOnEvent(tick=60, channel=2, data=[50, 0]),
   midi.NoteOnEvent(tick=0, channel=2, data=[47, 127]),
   midi.NoteOnEvent(tick=60, channel=2, data=[47, 0]),
   midi.NoteOnEvent(tick=0, channel=2, data=[50, 127]),
   midi.NoteOnEvent(tick=60, channel=2, data=[50, 0]),
   midi.NoteOnEvent(tick=0, channel=2, data=[52, 127]),
   midi.NoteOnEvent(tick=60, channel=2, data=[52, 0]),
   midi.NoteOnEvent(tick=0, channel=2, data=[50, 127]),
   midi.NoteOnEvent(tick=60, channel=2, data=[50, 0]),
   midi.NoteOnEvent(tick=0, channel=2, data=[57, 127]),
   midi.NoteOnEvent(tick=60, channel=2, data=[57, 0]),
   midi.NoteOnEvent(tick=0, channel=2, data=[55, 127]),
   midi.NoteOnEvent(tick=60, channel=2, data=[55, 0]),
   midi.NoteOnEvent(tick=0, channel=2, data=[52, 127]),
   midi.NoteOnEvent(tick=60, channel=2, data=[52, 0]),
   midi.NoteOnEvent(tick=0, channel=2, data=[50, 127]),
   midi.NoteOnEvent(tick=60, channel=2, data=[50, 0]),
   midi.NoteOnEvent(tick=0, channel=2, data=[40, 127]),
   midi.NoteOnEvent(tick=0, channel=2, data=[52, 127]),
   midi.NoteOnEvent(tick=60, channel=2, data=[40, 0]),
   midi.NoteOnEvent(tick=0, channel=2, data=[52, 0]),
   midi.NoteOnEvent(tick=0, channel=2, data=[50, 127]),
   midi.NoteOnEvent(tick=60, channel=2, data=[50, 0]),
   midi.NoteOnEvent(tick=0, channel=2, data=[40, 127]),
   midi.NoteOnEvent(tick=0, channel=2, data=[52, 127]),
   midi.NoteOnEvent(tick=60, channel=2, data=[40, 0]),
   midi.NoteOnEvent(tick=0, channel=2, data=[52, 0]),
   midi.NoteOnEvent(tick=0, channel=2, data=[50, 127]),
   midi.NoteOnEvent(tick=60, channel=2, data=[50, 0]),
   midi.NoteOnEvent(tick=0, channel=2, data=[40, 127]),
   midi.NoteOnEvent(tick=0, channel=2, data=[52, 127]),
   midi.NoteOnEvent(tick=60, channel=2, data=[40, 0]),
   midi.NoteOnEvent(tick=0, channel=2, data=[52, 0]),
   midi.NoteOnEvent(tick=0, channel=2, data=[50, 127]),
   midi.NoteOnEvent(tick=60, channel=2, data=[50, 0]),
   midi.NoteOnEvent(tick=0, channel=2, data=[47, 127]),
   midi.NoteOnEvent(tick=0, channel=2, data=[50, 127]),
   midi.NoteOnEvent(tick=60, channel=2, data=[47, 0]),
   midi.NoteOnEvent(tick=0, channel=2, data=[50, 0]),
   midi.NoteOnEvent(tick=0, channel=2, data=[50, 127]),
   midi.NoteOnEvent(tick=60, channel=2, data=[50, 0]),
   midi.NoteOnEvent(tick=0, channel=2, data=[40, 127]),
   midi.NoteOnEvent(tick=0, channel=2, data=[52, 127]),
   midi.NoteOnEvent(tick=60, channel=2, data=[40, 0]),
   midi.NoteOnEvent(tick=0, channel=2, data=[52, 0]),
   midi.NoteOnEvent(tick=0, channel=2, data=[50, 127]),
   midi.NoteOnEvent(tick=60, channel=2, data=[50, 0]),
   midi.NoteOnEvent(tick=0, channel=2, data=[40, 127]),
   midi.NoteOnEvent(tick=0, channel=2, data=[52, 127]),
   midi.NoteOnEvent(tick=60, channel=2, data=[40, 0]),
   midi.NoteOnEvent(tick=0, channel=2, data=[52, 0]),
   midi.NoteOnEvent(tick=0, channel=2, data=[50, 127]),
   midi.NoteOnEvent(tick=60, channel=2, data=[50, 0]),
   midi.NoteOnEvent(tick=0, channel=2, data=[40, 127]),
   midi.NoteOnEvent(tick=0, channel=2, data=[52, 127]),
   midi.NoteOnEvent(tick=60, channel=2, data=[40, 0]),
   midi.NoteOnEvent(tick=0, channel=2, data=[52, 0]),
   midi.NoteOnEvent(tick=0, channel=2, data=[50, 127]),
   midi.NoteOnEvent(tick=60, channel=2, data=[50, 0]),
   midi.NoteOnEvent(tick=0, channel=2, data=[47, 127]),
   midi.NoteOnEvent(tick=0, channel=2, data=[50, 127]),
   midi.NoteOnEvent(tick=60, channel=2, data=[47, 0]),
   midi.NoteOnEvent(tick=0, channel=2, data=[50, 0]),
   midi.NoteOnEvent(tick=0, channel=2, data=[50, 127]),
   midi.NoteOnEvent(tick=60, channel=2, data=[50, 0]),
   midi.NoteOnEvent(tick=0, channel=2, data=[48, 127]),
   midi.NoteOnEvent(tick=0, channel=2, data=[55, 127]),
   midi.NoteOnEvent(tick=120, channel=2, data=[48, 0]),
   midi.NoteOnEvent(tick=0, channel=2, data=[55, 0]),
   midi.NoteOnEvent(tick=0, channel=2, data=[43, 127]),
   midi.NoteOnEvent(tick=0, channel=2, data=[50, 127]),
   midi.NoteOnEvent(tick=120, channel=2, data=[43, 0]),
   midi.NoteOnEvent(tick=0, channel=2, data=[50, 0]),
   midi.NoteOnEvent(tick=0, channel=2, data=[57, 127]),
   midi.NoteOnEvent(tick=0, channel=2, data=[50, 127]),
   midi.NoteOnEvent(tick=120, channel=2, data=[57, 0]),
   midi.NoteOnEvent(tick=0, channel=2, data=[50, 0]),
   midi.NoteOnEvent(tick=0, channel=2, data=[48, 127]),
   midi.NoteOnEvent(tick=0, channel=2, data=[55, 127]),
   midi.NoteOnEvent(tick=120, channel=2, data=[48, 0]),
   midi.NoteOnEvent(tick=0, channel=2, data=[55, 0]),
   midi.NoteOnEvent(tick=0, channel=2, data=[40, 127]),
   midi.NoteOnEvent(tick=0, channel=2, data=[52, 127]),
   midi.NoteOnEvent(tick=60, channel=2, data=[40, 0]),
   midi.NoteOnEvent(tick=0, channel=2, data=[52, 0]),
   midi.NoteOnEvent(tick=0, channel=2, data=[50, 127]),
   midi.NoteOnEvent(tick=60, channel=2, data=[50, 0]),
   midi.NoteOnEvent(tick=0, channel=2, data=[40, 127]),
   midi.NoteOnEvent(tick=0, channel=2, data=[52, 127]),
   midi.NoteOnEvent(tick=60, channel=2, data=[40, 0]),
   midi.NoteOnEvent(tick=0, channel=2, data=[52, 0]),
   midi.NoteOnEvent(tick=0, channel=2, data=[50, 127]),
   midi.NoteOnEvent(tick=60, channel=2, data=[50, 0]),
   midi.NoteOnEvent(tick=0, channel=2, data=[40, 127]),
   midi.NoteOnEvent(tick=0, channel=2, data=[52, 127]),
   midi.NoteOnEvent(tick=60, channel=2, data=[40, 0]),
   midi.NoteOnEvent(tick=0, channel=2, data=[52, 0]),
   midi.NoteOnEvent(tick=0, channel=2, data=[50, 127]),
   midi.NoteOnEvent(tick=60, channel=2, data=[50, 0]),
   midi.NoteOnEvent(tick=0, channel=2, data=[40, 127]),
   midi.NoteOnEvent(tick=0, channel=2, data=[52, 127]),
   midi.NoteOnEvent(tick=60, channel=2, data=[40, 0]),
   midi.NoteOnEvent(tick=0, channel=2, data=[52, 0]),
   midi.NoteOnEvent(tick=0, channel=2, data=[50, 127]),
   midi.NoteOnEvent(tick=60, channel=2, data=[50, 0]),
   midi.NoteOnEvent(tick=0, channel=2, data=[40, 127]),
   midi.NoteOnEvent(tick=0, channel=2, data=[52, 127]),
   midi.NoteOnEvent(tick=60, channel=2, data=[40, 0]),
   midi.NoteOnEvent(tick=0, channel=2, data=[52, 0]),
   midi.NoteOnEvent(tick=0, channel=2, data=[50, 127]),
   midi.NoteOnEvent(tick=60, channel=2, data=[50, 0]),
   midi.NoteOnEvent(tick=0, channel=2, data=[40, 127]),
   midi.NoteOnEvent(tick=0, channel=2, data=[52, 127]),
   midi.NoteOnEvent(tick=60, channel=2, data=[40, 0]),
   midi.NoteOnEvent(tick=0, channel=2, data=[52, 0]),
   midi.NoteOnEvent(tick=0, channel=2, data=[50, 127]),
   midi.NoteOnEvent(tick=60, channel=2, data=[50, 0]),
   midi.NoteOnEvent(tick=0, channel=2, data=[40, 127]),
   midi.NoteOnEvent(tick=0, channel=2, data=[52, 127]),
   midi.NoteOnEvent(tick=60, channel=2, data=[40, 0]),
   midi.NoteOnEvent(tick=0, channel=2, data=[52, 0]),
   midi.NoteOnEvent(tick=0, channel=2, data=[50, 127]),
   midi.NoteOnEvent(tick=60, channel=2, data=[50, 0]),
   midi.NoteOnEvent(tick=0, channel=2, data=[47, 127]),
   midi.NoteOnEvent(tick=0, channel=2, data=[50, 127]),
   midi.NoteOnEvent(tick=60, channel=2, data=[47, 0]),
   midi.NoteOnEvent(tick=0, channel=2, data=[50, 0]),
   midi.NoteOnEvent(tick=0, channel=2, data=[50, 127]),
   midi.NoteOnEvent(tick=60, channel=2, data=[50, 0]),
   midi.NoteOnEvent(tick=0, channel=2, data=[40, 127]),
   midi.NoteOnEvent(tick=0, channel=2, data=[52, 127]),
   midi.NoteOnEvent(tick=60, channel=2, data=[40, 0]),
   midi.NoteOnEvent(tick=0, channel=2, data=[52, 0]),
   midi.NoteOnEvent(tick=0, channel=2, data=[50, 127]),
   midi.NoteOnEvent(tick=60, channel=2, data=[50, 0]),
   midi.NoteOnEvent(tick=0, channel=2, data=[40, 127]),
   midi.NoteOnEvent(tick=0, channel=2, data=[52, 127]),
   midi.NoteOnEvent(tick=60, channel=2, data=[40, 0]),
   midi.NoteOnEvent(tick=0, channel=2, data=[52, 0]),
   midi.NoteOnEvent(tick=0, channel=2, data=[50, 127]),
   midi.NoteOnEvent(tick=60, channel=2, data=[50, 0]),
   midi.NoteOnEvent(tick=0, channel=2, data=[40, 127]),
   midi.NoteOnEvent(tick=0, channel=2, data=[52, 127]),
   midi.NoteOnEvent(tick=60, channel=2, data=[40, 0]),
   midi.NoteOnEvent(tick=0, channel=2, data=[52, 0]),
   midi.NoteOnEvent(tick=0, channel=2, data=[50, 127]),
   midi.NoteOnEvent(tick=60, channel=2, data=[50, 0]),
   midi.NoteOnEvent(tick=0, channel=2, data=[40, 127]),
   midi.NoteOnEvent(tick=0, channel=2, data=[52, 127]),
   midi.NoteOnEvent(tick=60, channel=2, data=[40, 0]),
   midi.NoteOnEvent(tick=0, channel=2, data=[52, 0]),
   midi.NoteOnEvent(tick=0, channel=2, data=[50, 127]),
   midi.NoteOnEvent(tick=60, channel=2, data=[50, 0]),
   midi.NoteOnEvent(tick=0, channel=2, data=[47, 127]),
   midi.NoteOnEvent(tick=60, channel=2, data=[47, 0]),
   midi.NoteOnEvent(tick=0, channel=2, data=[50, 127]),
   midi.NoteOnEvent(tick=60, channel=2, data=[50, 0]),
   midi.NoteOnEvent(tick=0, channel=2, data=[52, 127]),
   midi.NoteOnEvent(tick=60, channel=2, data=[52, 0]),
   midi.NoteOnEvent(tick=0, channel=2, data=[50, 127]),
   midi.NoteOnEvent(tick=60, channel=2, data=[50, 0]),
   midi.NoteOnEvent(tick=0, channel=2, data=[57, 127]),
   midi.NoteOnEvent(tick=60, channel=2, data=[57, 0]),
   midi.NoteOnEvent(tick=0, channel=2, data=[55, 127]),
   midi.NoteOnEvent(tick=60, channel=2, data=[55, 0]),
   midi.NoteOnEvent(tick=0, channel=2, data=[52, 127]),
   midi.NoteOnEvent(tick=60, channel=2, data=[52, 0]),
   midi.NoteOnEvent(tick=0, channel=2, data=[50, 127]),
   midi.NoteOnEvent(tick=60, channel=2, data=[50, 0]),
   midi.NoteOnEvent(tick=0, channel=2, data=[40, 127]),
   midi.NoteOnEvent(tick=0, channel=2, data=[52, 127]),
   midi.NoteOnEvent(tick=60, channel=2, data=[40, 0]),
   midi.NoteOnEvent(tick=0, channel=2, data=[52, 0]),
   midi.NoteOnEvent(tick=0, channel=2, data=[50, 127]),
   midi.NoteOnEvent(tick=60, channel=2, data=[50, 0]),
   midi.NoteOnEvent(tick=0, channel=2, data=[40, 127]),
   midi.NoteOnEvent(tick=0, channel=2, data=[52, 127]),
   midi.NoteOnEvent(tick=60, channel=2, data=[40, 0]),
   midi.NoteOnEvent(tick=0, channel=2, data=[52, 0]),
   midi.NoteOnEvent(tick=0, channel=2, data=[50, 127]),
   midi.NoteOnEvent(tick=60, channel=2, data=[50, 0]),
   midi.NoteOnEvent(tick=0, channel=2, data=[40, 127]),
   midi.NoteOnEvent(tick=0, channel=2, data=[52, 127]),
   midi.NoteOnEvent(tick=60, channel=2, data=[40, 0]),
   midi.NoteOnEvent(tick=0, channel=2, data=[52, 0]),
   midi.NoteOnEvent(tick=0, channel=2, data=[50, 127]),
   midi.NoteOnEvent(tick=60, channel=2, data=[50, 0]),
   midi.NoteOnEvent(tick=0, channel=2, data=[47, 127]),
   midi.NoteOnEvent(tick=0, channel=2, data=[50, 127]),
   midi.NoteOnEvent(tick=60, channel=2, data=[47, 0]),
   midi.NoteOnEvent(tick=0, channel=2, data=[50, 0]),
   midi.NoteOnEvent(tick=0, channel=2, data=[50, 127]),
   midi.NoteOnEvent(tick=60, channel=2, data=[50, 0]),
   midi.NoteOnEvent(tick=0, channel=2, data=[40, 127]),
   midi.NoteOnEvent(tick=0, channel=2, data=[52, 127]),
   midi.NoteOnEvent(tick=60, channel=2, data=[40, 0]),
   midi.NoteOnEvent(tick=0, channel=2, data=[52, 0]),
   midi.NoteOnEvent(tick=0, channel=2, data=[50, 127]),
   midi.NoteOnEvent(tick=60, channel=2, data=[50, 0]),
   midi.NoteOnEvent(tick=0, channel=2, data=[40, 127]),
   midi.NoteOnEvent(tick=0, channel=2, data=[52, 127]),
   midi.NoteOnEvent(tick=60, channel=2, data=[40, 0]),
   midi.NoteOnEvent(tick=0, channel=2, data=[52, 0]),
   midi.NoteOnEvent(tick=0, channel=2, data=[50, 127]),
   midi.NoteOnEvent(tick=60, channel=2, data=[50, 0]),
   midi.NoteOnEvent(tick=0, channel=2, data=[40, 127]),
   midi.NoteOnEvent(tick=0, channel=2, data=[52, 127]),
   midi.NoteOnEvent(tick=60, channel=2, data=[40, 0]),
   midi.NoteOnEvent(tick=0, channel=2, data=[52, 0]),
   midi.NoteOnEvent(tick=0, channel=2, data=[50, 127]),
   midi.NoteOnEvent(tick=60, channel=2, data=[50, 0]),
   midi.NoteOnEvent(tick=0, channel=2, data=[47, 127]),
   midi.NoteOnEvent(tick=0, channel=2, data=[50, 127]),
   midi.NoteOnEvent(tick=60, channel=2, data=[47, 0]),
   midi.NoteOnEvent(tick=0, channel=2, data=[50, 0]),
   midi.NoteOnEvent(tick=0, channel=2, data=[50, 127]),
   midi.NoteOnEvent(tick=60, channel=2, data=[50, 0]),
   midi.NoteOnEvent(tick=0, channel=2, data=[48, 127]),
   midi.NoteOnEvent(tick=0, channel=2, data=[55, 127]),
   midi.NoteOnEvent(tick=120, channel=2, data=[48, 0]),
   midi.NoteOnEvent(tick=0, channel=2, data=[55, 0]),
   midi.NoteOnEvent(tick=0, channel=2, data=[43, 127]),
   midi.NoteOnEvent(tick=0, channel=2, data=[50, 127]),
   midi.NoteOnEvent(tick=120, channel=2, data=[43, 0]),
   midi.NoteOnEvent(tick=0, channel=2, data=[50, 0]),
   midi.NoteOnEvent(tick=0, channel=2, data=[57, 127]),
   midi.NoteOnEvent(tick=0, channel=2, data=[50, 127]),
   midi.NoteOnEvent(tick=120, channel=2, data=[57, 0]),
   midi.NoteOnEvent(tick=0, channel=2, data=[50, 0]),
   midi.NoteOnEvent(tick=0, channel=2, data=[48, 127]),
   midi.NoteOnEvent(tick=0, channel=2, data=[55, 127]),
   midi.NoteOnEvent(tick=120, channel=2, data=[48, 0]),
   midi.NoteOnEvent(tick=0, channel=2, data=[55, 0]),
   midi.NoteOnEvent(tick=0, channel=2, data=[40, 127]),
   midi.NoteOnEvent(tick=0, channel=2, data=[47, 127]),
   midi.NoteOnEvent(tick=0, channel=2, data=[52, 127]),
   midi.NoteOnEvent(tick=480, channel=2, data=[40, 0]),
   midi.NoteOnEvent(tick=0, channel=2, data=[47, 0]),
   midi.NoteOnEvent(tick=0, channel=2, data=[52, 0]),
   midi.NoteOnEvent(tick=0, channel=2, data=[40, 127]),
   midi.NoteOnEvent(tick=60, channel=2, data=[40, 0]),
   midi.NoteOnEvent(tick=0, channel=2, data=[40, 127]),
   midi.NoteOnEvent(tick=60, channel=2, data=[40, 0]),
   midi.NoteOnEvent(tick=0, channel=2, data=[40, 127]),
   midi.NoteOnEvent(tick=40, channel=2, data=[40, 0]),
   midi.NoteOnEvent(tick=0, channel=2, data=[40, 127]),
   midi.NoteOnEvent(tick=40, channel=2, data=[40, 0]),
   midi.NoteOnEvent(tick=0, channel=2, data=[40, 127]),
   midi.NoteOnEvent(tick=40, channel=2, data=[40, 0]),
   midi.NoteOnEvent(tick=0, channel=2, data=[40, 127]),
   midi.NoteOnEvent(tick=60, channel=2, data=[40, 0]),
   midi.NoteOnEvent(tick=0, channel=2, data=[40, 127]),
   midi.NoteOnEvent(tick=60, channel=2, data=[40, 0]),
   midi.NoteOnEvent(tick=0, channel=2, data=[40, 127]),
   midi.NoteOnEvent(tick=40, channel=2, data=[40, 0]),
   midi.NoteOnEvent(tick=0, channel=2, data=[40, 127]),
   midi.NoteOnEvent(tick=40, channel=2, data=[40, 0]),
   midi.NoteOnEvent(tick=0, channel=2, data=[40, 127]),
   midi.NoteOnEvent(tick=40, channel=2, data=[40, 0]),
   midi.NoteOnEvent(tick=0, channel=2, data=[40, 127]),
   midi.NoteOnEvent(tick=60, channel=2, data=[40, 0]),
   midi.NoteOnEvent(tick=0, channel=2, data=[40, 127]),
   midi.NoteOnEvent(tick=60, channel=2, data=[40, 0]),
   midi.NoteOnEvent(tick=0, channel=2, data=[40, 127]),
   midi.NoteOnEvent(tick=40, channel=2, data=[40, 0]),
   midi.NoteOnEvent(tick=0, channel=2, data=[40, 127]),
   midi.NoteOnEvent(tick=40, channel=2, data=[40, 0]),
   midi.NoteOnEvent(tick=0, channel=2, data=[40, 127]),
   midi.NoteOnEvent(tick=40, channel=2, data=[40, 0]),
   midi.NoteOnEvent(tick=0, channel=2, data=[40, 127]),
   midi.NoteOnEvent(tick=60, channel=2, data=[40, 0]),
   midi.NoteOnEvent(tick=0, channel=2, data=[40, 127]),
   midi.NoteOnEvent(tick=60, channel=2, data=[40, 0]),
   midi.NoteOnEvent(tick=0, channel=2, data=[40, 127]),
   midi.NoteOnEvent(tick=40, channel=2, data=[40, 0]),
   midi.NoteOnEvent(tick=0, channel=2, data=[40, 127]),
   midi.NoteOnEvent(tick=40, channel=2, data=[40, 0]),
   midi.NoteOnEvent(tick=0, channel=2, data=[40, 127]),
   midi.NoteOnEvent(tick=40, channel=2, data=[40, 0]),
   midi.NoteOnEvent(tick=0, channel=2, data=[40, 127]),
   midi.NoteOnEvent(tick=60, channel=2, data=[40, 0]),
   midi.NoteOnEvent(tick=0, channel=2, data=[40, 127]),
   midi.NoteOnEvent(tick=60, channel=2, data=[40, 0]),
   midi.NoteOnEvent(tick=0, channel=2, data=[40, 127]),
   midi.NoteOnEvent(tick=40, channel=2, data=[40, 0]),
   midi.NoteOnEvent(tick=0, channel=2, data=[40, 127]),
   midi.NoteOnEvent(tick=40, channel=2, data=[40, 0]),
   midi.NoteOnEvent(tick=0, channel=2, data=[40, 127]),
   midi.NoteOnEvent(tick=40, channel=2, data=[40, 0]),
   midi.NoteOnEvent(tick=0, channel=2, data=[40, 127]),
   midi.NoteOnEvent(tick=60, channel=2, data=[40, 0]),
   midi.NoteOnEvent(tick=0, channel=2, data=[40, 127]),
   midi.NoteOnEvent(tick=60, channel=2, data=[40, 0]),
   midi.NoteOnEvent(tick=0, channel=2, data=[40, 127]),
   midi.NoteOnEvent(tick=40, channel=2, data=[40, 0]),
   midi.NoteOnEvent(tick=0, channel=2, data=[40, 127]),
   midi.NoteOnEvent(tick=40, channel=2, data=[40, 0]),
   midi.NoteOnEvent(tick=0, channel=2, data=[40, 127]),
   midi.NoteOnEvent(tick=40, channel=2, data=[40, 0]),
   midi.NoteOnEvent(tick=0, channel=2, data=[40, 127]),
   midi.NoteOnEvent(tick=60, channel=2, data=[40, 0]),
   midi.NoteOnEvent(tick=0, channel=2, data=[40, 127]),
   midi.NoteOnEvent(tick=60, channel=2, data=[40, 0]),
   midi.NoteOnEvent(tick=0, channel=2, data=[40, 127]),
   midi.NoteOnEvent(tick=40, channel=2, data=[40, 0]),
   midi.NoteOnEvent(tick=0, channel=2, data=[40, 127]),
   midi.NoteOnEvent(tick=40, channel=2, data=[40, 0]),
   midi.NoteOnEvent(tick=0, channel=2, data=[40, 127]),
   midi.NoteOnEvent(tick=40, channel=2, data=[40, 0]),
   midi.NoteOnEvent(tick=0, channel=2, data=[40, 127]),
   midi.NoteOnEvent(tick=60, channel=2, data=[40, 0]),
   midi.NoteOnEvent(tick=0, channel=2, data=[40, 127]),
   midi.NoteOnEvent(tick=60, channel=2, data=[40, 0]),
   midi.NoteOnEvent(tick=0, channel=2, data=[40, 127]),
   midi.NoteOnEvent(tick=40, channel=2, data=[40, 0]),
   midi.NoteOnEvent(tick=0, channel=2, data=[40, 127]),
   midi.NoteOnEvent(tick=40, channel=2, data=[40, 0]),
   midi.NoteOnEvent(tick=0, channel=2, data=[40, 127]),
   midi.NoteOnEvent(tick=40, channel=2, data=[40, 0]),
   midi.NoteOnEvent(tick=0, channel=2, data=[40, 127]),
   midi.NoteOnEvent(tick=60, channel=2, data=[40, 0]),
   midi.NoteOnEvent(tick=0, channel=2, data=[40, 127]),
   midi.NoteOnEvent(tick=60, channel=2, data=[40, 0]),
   midi.NoteOnEvent(tick=0, channel=2, data=[40, 127]),
   midi.NoteOnEvent(tick=40, channel=2, data=[40, 0]),
   midi.NoteOnEvent(tick=0, channel=2, data=[40, 127]),
   midi.NoteOnEvent(tick=40, channel=2, data=[40, 0]),
   midi.NoteOnEvent(tick=0, channel=2, data=[40, 127]),
   midi.NoteOnEvent(tick=40, channel=2, data=[40, 0]),
   midi.NoteOnEvent(tick=0, channel=2, data=[40, 127]),
   midi.NoteOnEvent(tick=60, channel=2, data=[40, 0]),
   midi.NoteOnEvent(tick=0, channel=2, data=[40, 127]),
   midi.NoteOnEvent(tick=60, channel=2, data=[40, 0]),
   midi.NoteOnEvent(tick=0, channel=2, data=[40, 127]),
   midi.NoteOnEvent(tick=40, channel=2, data=[40, 0]),
   midi.NoteOnEvent(tick=0, channel=2, data=[40, 127]),
   midi.NoteOnEvent(tick=40, channel=2, data=[40, 0]),
   midi.NoteOnEvent(tick=0, channel=2, data=[40, 127]),
   midi.NoteOnEvent(tick=40, channel=2, data=[40, 0]),
   midi.NoteOnEvent(tick=0, channel=2, data=[40, 127]),
   midi.NoteOnEvent(tick=60, channel=2, data=[40, 0]),
   midi.NoteOnEvent(tick=0, channel=2, data=[40, 127]),
   midi.NoteOnEvent(tick=60, channel=2, data=[40, 0]),
   midi.NoteOnEvent(tick=0, channel=2, data=[40, 127]),
   midi.NoteOnEvent(tick=40, channel=2, data=[40, 0]),
   midi.NoteOnEvent(tick=0, channel=2, data=[40, 127]),
   midi.NoteOnEvent(tick=40, channel=2, data=[40, 0]),
   midi.NoteOnEvent(tick=0, channel=2, data=[40, 127]),
   midi.NoteOnEvent(tick=40, channel=2, data=[40, 0]),
   midi.NoteOnEvent(tick=0, channel=2, data=[40, 127]),
   midi.NoteOnEvent(tick=60, channel=2, data=[40, 0]),
   midi.NoteOnEvent(tick=0, channel=2, data=[40, 127]),
   midi.NoteOnEvent(tick=60, channel=2, data=[40, 0]),
   midi.NoteOnEvent(tick=0, channel=2, data=[40, 127]),
   midi.NoteOnEvent(tick=40, channel=2, data=[40, 0]),
   midi.NoteOnEvent(tick=0, channel=2, data=[40, 127]),
   midi.NoteOnEvent(tick=40, channel=2, data=[40, 0]),
   midi.NoteOnEvent(tick=0, channel=2, data=[40, 127]),
   midi.NoteOnEvent(tick=40, channel=2, data=[40, 0]),
   midi.NoteOnEvent(tick=0, channel=2, data=[40, 127]),
   midi.NoteOnEvent(tick=60, channel=2, data=[40, 0]),
   midi.NoteOnEvent(tick=0, channel=2, data=[40, 127]),
   midi.NoteOnEvent(tick=60, channel=2, data=[40, 0]),
   midi.NoteOnEvent(tick=0, channel=2, data=[40, 127]),
   midi.NoteOnEvent(tick=40, channel=2, data=[40, 0]),
   midi.NoteOnEvent(tick=0, channel=2, data=[40, 127]),
   midi.NoteOnEvent(tick=40, channel=2, data=[40, 0]),
   midi.NoteOnEvent(tick=0, channel=2, data=[40, 127]),
   midi.NoteOnEvent(tick=40, channel=2, data=[40, 0]),
   midi.NoteOnEvent(tick=0, channel=2, data=[40, 127]),
   midi.NoteOnEvent(tick=60, channel=2, data=[40, 0]),
   midi.NoteOnEvent(tick=0, channel=2, data=[40, 127]),
   midi.NoteOnEvent(tick=60, channel=2, data=[40, 0]),
   midi.NoteOnEvent(tick=0, channel=2, data=[40, 127]),
   midi.NoteOnEvent(tick=40, channel=2, data=[40, 0]),
   midi.NoteOnEvent(tick=0, channel=2, data=[40, 127]),
   midi.NoteOnEvent(tick=40, channel=2, data=[40, 0]),
   midi.NoteOnEvent(tick=0, channel=2, data=[40, 127]),
   midi.NoteOnEvent(tick=40, channel=2, data=[40, 0]),
   midi.NoteOnEvent(tick=0, channel=2, data=[40, 127]),
   midi.NoteOnEvent(tick=60, channel=2, data=[40, 0]),
   midi.NoteOnEvent(tick=0, channel=2, data=[40, 127]),
   midi.NoteOnEvent(tick=60, channel=2, data=[40, 0]),
   midi.NoteOnEvent(tick=0, channel=2, data=[40, 127]),
   midi.NoteOnEvent(tick=40, channel=2, data=[40, 0]),
   midi.NoteOnEvent(tick=0, channel=2, data=[40, 127]),
   midi.NoteOnEvent(tick=40, channel=2, data=[40, 0]),
   midi.NoteOnEvent(tick=0, channel=2, data=[60, 127]),
   midi.NoteOnEvent(tick=0, channel=2, data=[53, 127]),
   midi.NoteOnEvent(tick=40, channel=2, data=[60, 0]),
   midi.NoteOnEvent(tick=0, channel=2, data=[53, 0]),
   midi.NoteOnEvent(tick=0, channel=2, data=[59, 127]),
   midi.NoteOnEvent(tick=0, channel=2, data=[52, 127]),
   midi.NoteOnEvent(tick=120, channel=2, data=[59, 0]),
   midi.NoteOnEvent(tick=0, channel=2, data=[52, 0]),
   midi.NoteOnEvent(tick=0, channel=2, data=[52, 127]),
   midi.NoteOnEvent(tick=0, channel=2, data=[59, 127]),
   midi.NoteOnEvent(tick=120, channel=2, data=[52, 0]),
   midi.NoteOnEvent(tick=0, channel=2, data=[59, 0]),
   midi.NoteOnEvent(tick=0, channel=2, data=[40, 127]),
   midi.NoteOnEvent(tick=60, channel=2, data=[40, 0]),
   midi.NoteOnEvent(tick=0, channel=2, data=[40, 127]),
   midi.NoteOnEvent(tick=60, channel=2, data=[40, 0]),
   midi.NoteOnEvent(tick=0, channel=2, data=[40, 127]),
   midi.NoteOnEvent(tick=40, channel=2, data=[40, 0]),
   midi.NoteOnEvent(tick=0, channel=2, data=[40, 127]),
   midi.NoteOnEvent(tick=40, channel=2, data=[40, 0]),
   midi.NoteOnEvent(tick=0, channel=2, data=[40, 127]),
   midi.NoteOnEvent(tick=40, channel=2, data=[40, 0]),
   midi.NoteOnEvent(tick=0, channel=2, data=[40, 127]),
   midi.NoteOnEvent(tick=60, channel=2, data=[40, 0]),
   midi.NoteOnEvent(tick=0, channel=2, data=[40, 127]),
   midi.NoteOnEvent(tick=60, channel=2, data=[40, 0]),
   midi.NoteOnEvent(tick=0, channel=2, data=[40, 127]),
   midi.NoteOnEvent(tick=40, channel=2, data=[40, 0]),
   midi.NoteOnEvent(tick=0, channel=2, data=[40, 127]),
   midi.NoteOnEvent(tick=40, channel=2, data=[40, 0]),
   midi.NoteOnEvent(tick=0, channel=2, data=[40, 127]),
   midi.NoteOnEvent(tick=40, channel=2, data=[40, 0]),
   midi.NoteOnEvent(tick=0, channel=2, data=[40, 127]),
   midi.NoteOnEvent(tick=60, channel=2, data=[40, 0]),
   midi.NoteOnEvent(tick=0, channel=2, data=[40, 127]),
   midi.NoteOnEvent(tick=60, channel=2, data=[40, 0]),
   midi.NoteOnEvent(tick=0, channel=2, data=[40, 127]),
   midi.NoteOnEvent(tick=40, channel=2, data=[40, 0]),
   midi.NoteOnEvent(tick=0, channel=2, data=[40, 127]),
   midi.NoteOnEvent(tick=40, channel=2, data=[40, 0]),
   midi.NoteOnEvent(tick=0, channel=2, data=[40, 127]),
   midi.NoteOnEvent(tick=40, channel=2, data=[40, 0]),
   midi.NoteOnEvent(tick=0, channel=2, data=[60, 127]),
   midi.NoteOnEvent(tick=0, channel=2, data=[53, 127]),
   midi.NoteOnEvent(tick=30, channel=2, data=[60, 0]),
   midi.NoteOnEvent(tick=0, channel=2, data=[53, 0]),
   midi.NoteOnEvent(tick=0, channel=2, data=[52, 127]),
   midi.NoteOnEvent(tick=0, channel=2, data=[59, 127]),
   midi.NoteOnEvent(tick=90, channel=2, data=[52, 0]),
   midi.NoteOnEvent(tick=0, channel=2, data=[59, 0]),
   midi.NoteOnEvent(tick=0, channel=2, data=[59, 127]),
   midi.NoteOnEvent(tick=0, channel=2, data=[52, 127]),
   midi.NoteOnEvent(tick=120, channel=2, data=[59, 0]),
   midi.NoteOnEvent(tick=0, channel=2, data=[52, 0]),
   midi.NoteOnEvent(tick=0, channel=2, data=[40, 127]),
   midi.NoteOnEvent(tick=60, channel=2, data=[40, 0]),
   midi.NoteOnEvent(tick=0, channel=2, data=[40, 127]),
   midi.NoteOnEvent(tick=60, channel=2, data=[40, 0]),
   midi.NoteOnEvent(tick=0, channel=2, data=[40, 127]),
   midi.NoteOnEvent(tick=40, channel=2, data=[40, 0]),
   midi.NoteOnEvent(tick=0, channel=2, data=[40, 127]),
   midi.NoteOnEvent(tick=40, channel=2, data=[40, 0]),
   midi.NoteOnEvent(tick=0, channel=2, data=[40, 127]),
   midi.NoteOnEvent(tick=40, channel=2, data=[40, 0]),
   midi.NoteOnEvent(tick=0, channel=2, data=[40, 127]),
   midi.NoteOnEvent(tick=60, channel=2, data=[40, 0]),
   midi.NoteOnEvent(tick=0, channel=2, data=[40, 127]),
   midi.NoteOnEvent(tick=60, channel=2, data=[40, 0]),
   midi.NoteOnEvent(tick=0, channel=2, data=[40, 127]),
   midi.NoteOnEvent(tick=40, channel=2, data=[40, 0]),
   midi.NoteOnEvent(tick=0, channel=2, data=[40, 127]),
   midi.NoteOnEvent(tick=40, channel=2, data=[40, 0]),
   midi.NoteOnEvent(tick=0, channel=2, data=[40, 127]),
   midi.NoteOnEvent(tick=40, channel=2, data=[40, 0]),
   midi.NoteOnEvent(tick=0, channel=2, data=[40, 127]),
   midi.NoteOnEvent(tick=60, channel=2, data=[40, 0]),
   midi.NoteOnEvent(tick=0, channel=2, data=[40, 127]),
   midi.NoteOnEvent(tick=60, channel=2, data=[40, 0]),
   midi.NoteOnEvent(tick=0, channel=2, data=[40, 127]),
   midi.NoteOnEvent(tick=40, channel=2, data=[40, 0]),
   midi.NoteOnEvent(tick=0, channel=2, data=[40, 127]),
   midi.NoteOnEvent(tick=40, channel=2, data=[40, 0]),
   midi.NoteOnEvent(tick=0, channel=2, data=[40, 127]),
   midi.NoteOnEvent(tick=40, channel=2, data=[40, 0]),
   midi.NoteOnEvent(tick=0, channel=2, data=[60, 127]),
   midi.NoteOnEvent(tick=0, channel=2, data=[53, 127]),
   midi.NoteOnEvent(tick=240, channel=2, data=[60, 0]),
   midi.NoteOnEvent(tick=0, channel=2, data=[53, 0]),
   midi.NoteOnEvent(tick=0, channel=2, data=[40, 127]),
   midi.NoteOnEvent(tick=60, channel=2, data=[40, 0]),
   midi.NoteOnEvent(tick=0, channel=2, data=[40, 127]),
   midi.NoteOnEvent(tick=60, channel=2, data=[40, 0]),
   midi.NoteOnEvent(tick=0, channel=2, data=[40, 127]),
   midi.NoteOnEvent(tick=40, channel=2, data=[40, 0]),
   midi.NoteOnEvent(tick=0, channel=2, data=[40, 127]),
   midi.NoteOnEvent(tick=40, channel=2, data=[40, 0]),
   midi.NoteOnEvent(tick=0, channel=2, data=[40, 127]),
   midi.NoteOnEvent(tick=40, channel=2, data=[40, 0]),
   midi.NoteOnEvent(tick=0, channel=2, data=[40, 127]),
   midi.NoteOnEvent(tick=60, channel=2, data=[40, 0]),
   midi.NoteOnEvent(tick=0, channel=2, data=[40, 127]),
   midi.NoteOnEvent(tick=60, channel=2, data=[40, 0]),
   midi.NoteOnEvent(tick=0, channel=2, data=[40, 127]),
   midi.NoteOnEvent(tick=40, channel=2, data=[40, 0]),
   midi.NoteOnEvent(tick=0, channel=2, data=[40, 127]),
   midi.NoteOnEvent(tick=40, channel=2, data=[40, 0]),
   midi.NoteOnEvent(tick=0, channel=2, data=[40, 127]),
   midi.NoteOnEvent(tick=40, channel=2, data=[40, 0]),
   midi.NoteOnEvent(tick=0, channel=2, data=[40, 127]),
   midi.NoteOnEvent(tick=60, channel=2, data=[40, 0]),
   midi.NoteOnEvent(tick=0, channel=2, data=[40, 127]),
   midi.NoteOnEvent(tick=60, channel=2, data=[40, 0]),
   midi.NoteOnEvent(tick=0, channel=2, data=[40, 127]),
   midi.NoteOnEvent(tick=40, channel=2, data=[40, 0]),
   midi.NoteOnEvent(tick=0, channel=2, data=[40, 127]),
   midi.NoteOnEvent(tick=40, channel=2, data=[40, 0]),
   midi.NoteOnEvent(tick=0, channel=2, data=[40, 127]),
   midi.NoteOnEvent(tick=40, channel=2, data=[40, 0]),
   midi.NoteOnEvent(tick=0, channel=2, data=[60, 127]),
   midi.NoteOnEvent(tick=0, channel=2, data=[53, 127]),
   midi.NoteOnEvent(tick=30, channel=2, data=[60, 0]),
   midi.NoteOnEvent(tick=0, channel=2, data=[53, 0]),
   midi.NoteOnEvent(tick=0, channel=2, data=[52, 127]),
   midi.NoteOnEvent(tick=0, channel=2, data=[59, 127]),
   midi.NoteOnEvent(tick=90, channel=2, data=[52, 0]),
   midi.NoteOnEvent(tick=0, channel=2, data=[59, 0]),
   midi.NoteOnEvent(tick=0, channel=2, data=[59, 127]),
   midi.NoteOnEvent(tick=0, channel=2, data=[52, 127]),
   midi.NoteOnEvent(tick=120, channel=2, data=[59, 0]),
   midi.NoteOnEvent(tick=0, channel=2, data=[52, 0]),
   midi.NoteOnEvent(tick=0, channel=2, data=[40, 127]),
   midi.NoteOnEvent(tick=60, channel=2, data=[40, 0]),
   midi.NoteOnEvent(tick=0, channel=2, data=[40, 127]),
   midi.NoteOnEvent(tick=60, channel=2, data=[40, 0]),
   midi.NoteOnEvent(tick=0, channel=2, data=[40, 127]),
   midi.NoteOnEvent(tick=40, channel=2, data=[40, 0]),
   midi.NoteOnEvent(tick=0, channel=2, data=[40, 127]),
   midi.NoteOnEvent(tick=40, channel=2, data=[40, 0]),
   midi.NoteOnEvent(tick=0, channel=2, data=[40, 127]),
   midi.NoteOnEvent(tick=40, channel=2, data=[40, 0]),
   midi.NoteOnEvent(tick=0, channel=2, data=[40, 127]),
   midi.NoteOnEvent(tick=60, channel=2, data=[40, 0]),
   midi.NoteOnEvent(tick=0, channel=2, data=[40, 127]),
   midi.NoteOnEvent(tick=60, channel=2, data=[40, 0]),
   midi.NoteOnEvent(tick=0, channel=2, data=[40, 127]),
   midi.NoteOnEvent(tick=40, channel=2, data=[40, 0]),
   midi.NoteOnEvent(tick=0, channel=2, data=[40, 127]),
   midi.NoteOnEvent(tick=40, channel=2, data=[40, 0]),
   midi.NoteOnEvent(tick=0, channel=2, data=[40, 127]),
   midi.NoteOnEvent(tick=40, channel=2, data=[40, 0]),
   midi.NoteOnEvent(tick=0, channel=2, data=[40, 127]),
   midi.NoteOnEvent(tick=60, channel=2, data=[40, 0]),
   midi.NoteOnEvent(tick=0, channel=2, data=[40, 127]),
   midi.NoteOnEvent(tick=60, channel=2, data=[40, 0]),
   midi.NoteOnEvent(tick=0, channel=2, data=[40, 127]),
   midi.NoteOnEvent(tick=40, channel=2, data=[40, 0]),
   midi.NoteOnEvent(tick=0, channel=2, data=[40, 127]),
   midi.NoteOnEvent(tick=40, channel=2, data=[40, 0]),
   midi.NoteOnEvent(tick=0, channel=2, data=[40, 127]),
   midi.NoteOnEvent(tick=40, channel=2, data=[40, 0]),
   midi.NoteOnEvent(tick=0, channel=2, data=[60, 127]),
   midi.NoteOnEvent(tick=0, channel=2, data=[53, 127]),
   midi.NoteOnEvent(tick=240, channel=2, data=[60, 0]),
   midi.NoteOnEvent(tick=0, channel=2, data=[53, 0]),
   midi.NoteOnEvent(tick=0, channel=2, data=[40, 127]),
   midi.NoteOnEvent(tick=60, channel=2, data=[40, 0]),
   midi.NoteOnEvent(tick=0, channel=2, data=[40, 127]),
   midi.NoteOnEvent(tick=60, channel=2, data=[40, 0]),
   midi.NoteOnEvent(tick=0, channel=2, data=[40, 127]),
   midi.NoteOnEvent(tick=40, channel=2, data=[40, 0]),
   midi.NoteOnEvent(tick=0, channel=2, data=[40, 127]),
   midi.NoteOnEvent(tick=40, channel=2, data=[40, 0]),
   midi.NoteOnEvent(tick=0, channel=2, data=[40, 127]),
   midi.NoteOnEvent(tick=40, channel=2, data=[40, 0]),
   midi.NoteOnEvent(tick=0, channel=2, data=[40, 127]),
   midi.NoteOnEvent(tick=60, channel=2, data=[40, 0]),
   midi.NoteOnEvent(tick=0, channel=2, data=[40, 127]),
   midi.NoteOnEvent(tick=60, channel=2, data=[40, 0]),
   midi.NoteOnEvent(tick=0, channel=2, data=[40, 127]),
   midi.NoteOnEvent(tick=40, channel=2, data=[40, 0]),
   midi.NoteOnEvent(tick=0, channel=2, data=[40, 127]),
   midi.NoteOnEvent(tick=40, channel=2, data=[40, 0]),
   midi.NoteOnEvent(tick=0, channel=2, data=[40, 127]),
   midi.NoteOnEvent(tick=40, channel=2, data=[40, 0]),
   midi.NoteOnEvent(tick=0, channel=2, data=[40, 127]),
   midi.NoteOnEvent(tick=60, channel=2, data=[40, 0]),
   midi.NoteOnEvent(tick=0, channel=2, data=[40, 127]),
   midi.NoteOnEvent(tick=60, channel=2, data=[40, 0]),
   midi.NoteOnEvent(tick=0, channel=2, data=[40, 127]),
   midi.NoteOnEvent(tick=40, channel=2, data=[40, 0]),
   midi.NoteOnEvent(tick=0, channel=2, data=[40, 127]),
   midi.NoteOnEvent(tick=40, channel=2, data=[40, 0]),
   midi.NoteOnEvent(tick=0, channel=2, data=[40, 127]),
   midi.NoteOnEvent(tick=40, channel=2, data=[40, 0]),
   midi.NoteOnEvent(tick=0, channel=2, data=[60, 127]),
   midi.NoteOnEvent(tick=0, channel=2, data=[53, 127]),
   midi.NoteOnEvent(tick=30, channel=2, data=[60, 0]),
   midi.NoteOnEvent(tick=0, channel=2, data=[53, 0]),
   midi.NoteOnEvent(tick=0, channel=2, data=[52, 127]),
   midi.NoteOnEvent(tick=0, channel=2, data=[59, 127]),
   midi.NoteOnEvent(tick=90, channel=2, data=[52, 0]),
   midi.NoteOnEvent(tick=0, channel=2, data=[59, 0]),
   midi.NoteOnEvent(tick=0, channel=2, data=[59, 127]),
   midi.NoteOnEvent(tick=0, channel=2, data=[52, 127]),
   midi.NoteOnEvent(tick=120, channel=2, data=[59, 0]),
   midi.NoteOnEvent(tick=0, channel=2, data=[52, 0]),
   midi.NoteOnEvent(tick=0, channel=2, data=[40, 127]),
   midi.NoteOnEvent(tick=60, channel=2, data=[40, 0]),
   midi.NoteOnEvent(tick=0, channel=2, data=[40, 127]),
   midi.NoteOnEvent(tick=60, channel=2, data=[40, 0]),
   midi.NoteOnEvent(tick=0, channel=2, data=[40, 127]),
   midi.NoteOnEvent(tick=40, channel=2, data=[40, 0]),
   midi.NoteOnEvent(tick=0, channel=2, data=[40, 127]),
   midi.NoteOnEvent(tick=40, channel=2, data=[40, 0]),
   midi.NoteOnEvent(tick=0, channel=2, data=[40, 127]),
   midi.NoteOnEvent(tick=40, channel=2, data=[40, 0]),
   midi.NoteOnEvent(tick=0, channel=2, data=[40, 127]),
   midi.NoteOnEvent(tick=60, channel=2, data=[40, 0]),
   midi.NoteOnEvent(tick=0, channel=2, data=[40, 127]),
   midi.NoteOnEvent(tick=60, channel=2, data=[40, 0]),
   midi.NoteOnEvent(tick=0, channel=2, data=[40, 127]),
   midi.NoteOnEvent(tick=40, channel=2, data=[40, 0]),
   midi.NoteOnEvent(tick=0, channel=2, data=[40, 127]),
   midi.NoteOnEvent(tick=40, channel=2, data=[40, 0]),
   midi.NoteOnEvent(tick=0, channel=2, data=[40, 127]),
   midi.NoteOnEvent(tick=40, channel=2, data=[40, 0]),
   midi.NoteOnEvent(tick=0, channel=2, data=[40, 127]),
   midi.NoteOnEvent(tick=60, channel=2, data=[40, 0]),
   midi.NoteOnEvent(tick=0, channel=2, data=[40, 127]),
   midi.NoteOnEvent(tick=60, channel=2, data=[40, 0]),
   midi.NoteOnEvent(tick=0, channel=2, data=[40, 127]),
   midi.NoteOnEvent(tick=40, channel=2, data=[40, 0]),
   midi.NoteOnEvent(tick=0, channel=2, data=[40, 127]),
   midi.NoteOnEvent(tick=40, channel=2, data=[40, 0]),
   midi.NoteOnEvent(tick=0, channel=2, data=[40, 127]),
   midi.NoteOnEvent(tick=40, channel=2, data=[40, 0]),
   midi.NoteOnEvent(tick=0, channel=2, data=[60, 127]),
   midi.NoteOnEvent(tick=0, channel=2, data=[53, 127]),
   midi.NoteOnEvent(tick=240, channel=2, data=[60, 0]),
   midi.NoteOnEvent(tick=0, channel=2, data=[53, 0]),
   midi.NoteOnEvent(tick=0, channel=2, data=[40, 127]),
   midi.NoteOnEvent(tick=60, channel=2, data=[40, 0]),
   midi.NoteOnEvent(tick=0, channel=2, data=[40, 127]),
   midi.NoteOnEvent(tick=60, channel=2, data=[40, 0]),
   midi.NoteOnEvent(tick=0, channel=2, data=[40, 127]),
   midi.NoteOnEvent(tick=40, channel=2, data=[40, 0]),
   midi.NoteOnEvent(tick=0, channel=2, data=[40, 127]),
   midi.NoteOnEvent(tick=40, channel=2, data=[40, 0]),
   midi.NoteOnEvent(tick=0, channel=2, data=[40, 127]),
   midi.NoteOnEvent(tick=40, channel=2, data=[40, 0]),
   midi.NoteOnEvent(tick=0, channel=2, data=[40, 127]),
   midi.NoteOnEvent(tick=60, channel=2, data=[40, 0]),
   midi.NoteOnEvent(tick=0, channel=2, data=[40, 127]),
   midi.NoteOnEvent(tick=60, channel=2, data=[40, 0]),
   midi.NoteOnEvent(tick=0, channel=2, data=[40, 127]),
   midi.NoteOnEvent(tick=40, channel=2, data=[40, 0]),
   midi.NoteOnEvent(tick=0, channel=2, data=[40, 127]),
   midi.NoteOnEvent(tick=40, channel=2, data=[40, 0]),
   midi.NoteOnEvent(tick=0, channel=2, data=[40, 127]),
   midi.NoteOnEvent(tick=40, channel=2, data=[40, 0]),
   midi.NoteOnEvent(tick=0, channel=2, data=[40, 127]),
   midi.NoteOnEvent(tick=60, channel=2, data=[40, 0]),
   midi.NoteOnEvent(tick=0, channel=2, data=[40, 127]),
   midi.NoteOnEvent(tick=60, channel=2, data=[40, 0]),
   midi.NoteOnEvent(tick=0, channel=2, data=[40, 127]),
   midi.NoteOnEvent(tick=40, channel=2, data=[40, 0]),
   midi.NoteOnEvent(tick=0, channel=2, data=[40, 127]),
   midi.NoteOnEvent(tick=40, channel=2, data=[40, 0]),
   midi.NoteOnEvent(tick=0, channel=2, data=[40, 127]),
   midi.NoteOnEvent(tick=40, channel=2, data=[40, 0]),
   midi.NoteOnEvent(tick=0, channel=2, data=[60, 127]),
   midi.NoteOnEvent(tick=0, channel=2, data=[53, 127]),
   midi.NoteOnEvent(tick=30, channel=2, data=[60, 0]),
   midi.NoteOnEvent(tick=0, channel=2, data=[53, 0]),
   midi.NoteOnEvent(tick=0, channel=2, data=[52, 127]),
   midi.NoteOnEvent(tick=0, channel=2, data=[59, 127]),
   midi.NoteOnEvent(tick=90, channel=2, data=[52, 0]),
   midi.NoteOnEvent(tick=0, channel=2, data=[59, 0]),
   midi.NoteOnEvent(tick=0, channel=2, data=[59, 127]),
   midi.NoteOnEvent(tick=0, channel=2, data=[52, 127]),
   midi.NoteOnEvent(tick=120, channel=2, data=[59, 0]),
   midi.NoteOnEvent(tick=0, channel=2, data=[52, 0]),
   midi.NoteOnEvent(tick=0, channel=2, data=[40, 127]),
   midi.NoteOnEvent(tick=60, channel=2, data=[40, 0]),
   midi.NoteOnEvent(tick=0, channel=2, data=[40, 127]),
   midi.NoteOnEvent(tick=60, channel=2, data=[40, 0]),
   midi.NoteOnEvent(tick=0, channel=2, data=[40, 127]),
   midi.NoteOnEvent(tick=40, channel=2, data=[40, 0]),
   midi.NoteOnEvent(tick=0, channel=2, data=[40, 127]),
   midi.NoteOnEvent(tick=40, channel=2, data=[40, 0]),
   midi.NoteOnEvent(tick=0, channel=2, data=[40, 127]),
   midi.NoteOnEvent(tick=40, channel=2, data=[40, 0]),
   midi.NoteOnEvent(tick=0, channel=2, data=[40, 127]),
   midi.NoteOnEvent(tick=60, channel=2, data=[40, 0]),
   midi.NoteOnEvent(tick=0, channel=2, data=[40, 127]),
   midi.NoteOnEvent(tick=60, channel=2, data=[40, 0]),
   midi.NoteOnEvent(tick=0, channel=2, data=[40, 127]),
   midi.NoteOnEvent(tick=40, channel=2, data=[40, 0]),
   midi.NoteOnEvent(tick=0, channel=2, data=[40, 127]),
   midi.NoteOnEvent(tick=40, channel=2, data=[40, 0]),
   midi.NoteOnEvent(tick=0, channel=2, data=[40, 127]),
   midi.NoteOnEvent(tick=40, channel=2, data=[40, 0]),
   midi.NoteOnEvent(tick=0, channel=2, data=[40, 127]),
   midi.NoteOnEvent(tick=60, channel=2, data=[40, 0]),
   midi.NoteOnEvent(tick=0, channel=2, data=[40, 127]),
   midi.NoteOnEvent(tick=60, channel=2, data=[40, 0]),
   midi.NoteOnEvent(tick=0, channel=2, data=[40, 127]),
   midi.NoteOnEvent(tick=40, channel=2, data=[40, 0]),
   midi.NoteOnEvent(tick=0, channel=2, data=[40, 127]),
   midi.NoteOnEvent(tick=40, channel=2, data=[40, 0]),
   midi.NoteOnEvent(tick=0, channel=2, data=[40, 127]),
   midi.NoteOnEvent(tick=40, channel=2, data=[40, 0]),
   midi.NoteOnEvent(tick=0, channel=2, data=[60, 127]),
   midi.NoteOnEvent(tick=0, channel=2, data=[53, 127]),
   midi.NoteOnEvent(tick=240, channel=2, data=[60, 0]),
   midi.NoteOnEvent(tick=0, channel=2, data=[53, 0]),
   midi.NoteOnEvent(tick=0, channel=2, data=[52, 127]),
   midi.NoteOnEvent(tick=40, channel=2, data=[52, 0]),
   midi.NoteOnEvent(tick=0, channel=2, data=[50, 127]),
   midi.NoteOnEvent(tick=40, channel=2, data=[50, 0]),
   midi.NoteOnEvent(tick=0, channel=2, data=[47, 127]),
   midi.NoteOnEvent(tick=40, channel=2, data=[47, 0]),
   midi.NoteOnEvent(tick=0, channel=2, data=[50, 127]),
   midi.NoteOnEvent(tick=40, channel=2, data=[50, 0]),
   midi.NoteOnEvent(tick=0, channel=2, data=[47, 127]),
   midi.NoteOnEvent(tick=40, channel=2, data=[47, 0]),
   midi.NoteOnEvent(tick=0, channel=2, data=[46, 127]),
   midi.NoteOnEvent(tick=40, channel=2, data=[46, 0]),
   midi.NoteOnEvent(tick=0, channel=2, data=[45, 127]),
   midi.NoteOnEvent(tick=40, channel=2, data=[45, 0]),
   midi.NoteOnEvent(tick=0, channel=2, data=[43, 127]),
   midi.NoteOnEvent(tick=40, channel=2, data=[43, 0]),
   midi.NoteOnEvent(tick=0, channel=2, data=[45, 127]),
   midi.NoteOnEvent(tick=40, channel=2, data=[45, 0]),
   midi.NoteOnEvent(tick=0, channel=2, data=[40, 127]),
   midi.NoteOnEvent(tick=40, channel=2, data=[40, 0]),
   midi.NoteOnEvent(tick=0, channel=2, data=[43, 127]),
   midi.NoteOnEvent(tick=40, channel=2, data=[43, 0]),
   midi.NoteOnEvent(tick=0, channel=2, data=[45, 127]),
   midi.NoteOnEvent(tick=40, channel=2, data=[45, 0]),
   midi.NoteOnEvent(tick=0, channel=2, data=[52, 127]),
   midi.NoteOnEvent(tick=40, channel=2, data=[52, 0]),
   midi.NoteOnEvent(tick=0, channel=2, data=[50, 127]),
   midi.NoteOnEvent(tick=40, channel=2, data=[50, 0]),
   midi.NoteOnEvent(tick=0, channel=2, data=[47, 127]),
   midi.NoteOnEvent(tick=40, channel=2, data=[47, 0]),
   midi.NoteOnEvent(tick=0, channel=2, data=[50, 127]),
   midi.NoteOnEvent(tick=40, channel=2, data=[50, 0]),
   midi.NoteOnEvent(tick=0, channel=2, data=[47, 127]),
   midi.NoteOnEvent(tick=40, channel=2, data=[47, 0]),
   midi.NoteOnEvent(tick=0, channel=2, data=[46, 127]),
   midi.NoteOnEvent(tick=40, channel=2, data=[46, 0]),
   midi.NoteOnEvent(tick=0, channel=2, data=[45, 127]),
   midi.NoteOnEvent(tick=120, channel=2, data=[45, 0]),
   midi.NoteOnEvent(tick=60, channel=2, data=[55, 127]),
   midi.NoteOnEvent(tick=0, channel=2, data=[48, 127]),
   midi.NoteOnEvent(tick=60, channel=2, data=[48, 0]),
   midi.NoteOnEvent(tick=60, channel=2, data=[55, 0]),
   midi.NoteOnEvent(tick=0, channel=2, data=[49, 127]),
   midi.NoteOnEvent(tick=0, channel=2, data=[56, 127]),
   midi.NoteOnEvent(tick=60, channel=2, data=[56, 0]),
   midi.NoteOnEvent(tick=60, channel=2, data=[49, 0]),
   midi.NoteOnEvent(tick=0, channel=2, data=[50, 127]),
   midi.NoteOnEvent(tick=0, channel=2, data=[57, 127]),
   midi.NoteOnEvent(tick=60, channel=2, data=[50, 0]),
   midi.NoteOnEvent(tick=0, channel=2, data=[57, 0]),
   midi.NoteOnEvent(tick=0, channel=2, data=[40, 127]),
   midi.NoteOnEvent(tick=60, channel=2, data=[40, 0]),
   midi.NoteOnEvent(tick=0, channel=2, data=[40, 127]),
   midi.NoteOnEvent(tick=60, channel=2, data=[40, 0]),
   midi.NoteOnEvent(tick=0, channel=2, data=[45, 127]),
   midi.NoteOnEvent(tick=60, channel=2, data=[45, 0]),
   midi.NoteOnEvent(tick=0, channel=2, data=[47, 127]),
   midi.NoteOnEvent(tick=60, channel=2, data=[47, 0]),
   midi.NoteOnEvent(tick=0, channel=2, data=[53, 127]),
   midi.NoteOnEvent(tick=60, channel=2, data=[53, 0]),
   midi.NoteOnEvent(tick=0, channel=2, data=[52, 127]),
   midi.NoteOnEvent(tick=60, channel=2, data=[52, 0]),
   midi.NoteOnEvent(tick=0, channel=2, data=[50, 127]),
   midi.NoteOnEvent(tick=60, channel=2, data=[50, 0]),
   midi.NoteOnEvent(tick=0, channel=2, data=[52, 127]),
   midi.NoteOnEvent(tick=60, channel=2, data=[52, 0]),
   midi.NoteOnEvent(tick=0, channel=2, data=[40, 127]),
   midi.NoteOnEvent(tick=60, channel=2, data=[40, 0]),
   midi.NoteOnEvent(tick=0, channel=2, data=[40, 127]),
   midi.NoteOnEvent(tick=60, channel=2, data=[40, 0]),
   midi.NoteOnEvent(tick=0, channel=2, data=[40, 127]),
   midi.NoteOnEvent(tick=60, channel=2, data=[40, 0]),
   midi.NoteOnEvent(tick=0, channel=2, data=[55, 127]),
   midi.NoteOnEvent(tick=0, channel=2, data=[48, 127]),
   midi.NoteOnEvent(tick=60, channel=2, data=[55, 0]),
   midi.NoteOnEvent(tick=0, channel=2, data=[48, 0]),
   midi.NoteOnEvent(tick=0, channel=2, data=[40, 127]),
   midi.NoteOnEvent(tick=60, channel=2, data=[40, 0]),
   midi.NoteOnEvent(tick=0, channel=2, data=[49, 127]),
   midi.NoteOnEvent(tick=0, channel=2, data=[56, 127]),
   midi.NoteOnEvent(tick=60, channel=2, data=[49, 0]),
   midi.NoteOnEvent(tick=0, channel=2, data=[56, 0]),
   midi.NoteOnEvent(tick=0, channel=2, data=[40, 127]),
   midi.NoteOnEvent(tick=60, channel=2, data=[40, 0]),
   midi.NoteOnEvent(tick=0, channel=2, data=[57, 127]),
   midi.NoteOnEvent(tick=0, channel=2, data=[50, 127]),
   midi.NoteOnEvent(tick=60, channel=2, data=[57, 0]),
   midi.NoteOnEvent(tick=0, channel=2, data=[50, 0]),
   midi.NoteOnEvent(tick=0, channel=2, data=[40, 127]),
   midi.NoteOnEvent(tick=60, channel=2, data=[40, 0]),
   midi.NoteOnEvent(tick=0, channel=2, data=[40, 127]),
   midi.NoteOnEvent(tick=60, channel=2, data=[40, 0]),
   midi.NoteOnEvent(tick=0, channel=2, data=[45, 127]),
   midi.NoteOnEvent(tick=60, channel=2, data=[45, 0]),
   midi.NoteOnEvent(tick=0, channel=2, data=[47, 127]),
   midi.NoteOnEvent(tick=60, channel=2, data=[47, 0]),
   midi.NoteOnEvent(tick=0, channel=2, data=[53, 127]),
   midi.NoteOnEvent(tick=60, channel=2, data=[53, 0]),
   midi.NoteOnEvent(tick=0, channel=2, data=[52, 127]),
   midi.NoteOnEvent(tick=60, channel=2, data=[52, 0]),
   midi.NoteOnEvent(tick=0, channel=2, data=[50, 127]),
   midi.NoteOnEvent(tick=60, channel=2, data=[50, 0]),
   midi.NoteOnEvent(tick=0, channel=2, data=[52, 127]),
   midi.NoteOnEvent(tick=60, channel=2, data=[52, 0]),
   midi.NoteOnEvent(tick=0, channel=2, data=[40, 127]),
   midi.NoteOnEvent(tick=60, channel=2, data=[40, 0]),
   midi.NoteOnEvent(tick=0, channel=2, data=[40, 127]),
   midi.NoteOnEvent(tick=60, channel=2, data=[40, 0]),
   midi.NoteOnEvent(tick=0, channel=2, data=[40, 127]),
   midi.NoteOnEvent(tick=60, channel=2, data=[40, 0]),
   midi.NoteOnEvent(tick=0, channel=2, data=[55, 127]),
   midi.NoteOnEvent(tick=0, channel=2, data=[48, 127]),
   midi.NoteOnEvent(tick=60, channel=2, data=[55, 0]),
   midi.NoteOnEvent(tick=0, channel=2, data=[48, 0]),
   midi.NoteOnEvent(tick=0, channel=2, data=[40, 127]),
   midi.NoteOnEvent(tick=60, channel=2, data=[40, 0]),
   midi.NoteOnEvent(tick=0, channel=2, data=[49, 127]),
   midi.NoteOnEvent(tick=0, channel=2, data=[56, 127]),
   midi.NoteOnEvent(tick=60, channel=2, data=[49, 0]),
   midi.NoteOnEvent(tick=0, channel=2, data=[56, 0]),
   midi.NoteOnEvent(tick=0, channel=2, data=[40, 127]),
   midi.NoteOnEvent(tick=60, channel=2, data=[40, 0]),
   midi.NoteOnEvent(tick=0, channel=2, data=[57, 127]),
   midi.NoteOnEvent(tick=0, channel=2, data=[50, 127]),
   midi.NoteOnEvent(tick=60, channel=2, data=[57, 0]),
   midi.NoteOnEvent(tick=0, channel=2, data=[50, 0]),
   midi.NoteOnEvent(tick=0, channel=2, data=[40, 127]),
   midi.NoteOnEvent(tick=60, channel=2, data=[40, 0]),
   midi.NoteOnEvent(tick=0, channel=2, data=[40, 127]),
   midi.NoteOnEvent(tick=60, channel=2, data=[40, 0]),
   midi.NoteOnEvent(tick=0, channel=2, data=[45, 127]),
   midi.NoteOnEvent(tick=60, channel=2, data=[45, 0]),
   midi.NoteOnEvent(tick=0, channel=2, data=[47, 127]),
   midi.NoteOnEvent(tick=60, channel=2, data=[47, 0]),
   midi.NoteOnEvent(tick=0, channel=2, data=[53, 127]),
   midi.NoteOnEvent(tick=60, channel=2, data=[53, 0]),
   midi.NoteOnEvent(tick=0, channel=2, data=[52, 127]),
   midi.NoteOnEvent(tick=60, channel=2, data=[52, 0]),
   midi.NoteOnEvent(tick=0, channel=2, data=[50, 127]),
   midi.NoteOnEvent(tick=60, channel=2, data=[50, 0]),
   midi.NoteOnEvent(tick=0, channel=2, data=[52, 127]),
   midi.NoteOnEvent(tick=60, channel=2, data=[52, 0]),
   midi.NoteOnEvent(tick=0, channel=2, data=[40, 127]),
   midi.NoteOnEvent(tick=60, channel=2, data=[40, 0]),
   midi.NoteOnEvent(tick=0, channel=2, data=[40, 127]),
   midi.NoteOnEvent(tick=60, channel=2, data=[40, 0]),
   midi.NoteOnEvent(tick=0, channel=2, data=[40, 127]),
   midi.NoteOnEvent(tick=60, channel=2, data=[40, 0]),
   midi.NoteOnEvent(tick=0, channel=2, data=[55, 127]),
   midi.NoteOnEvent(tick=0, channel=2, data=[48, 127]),
   midi.NoteOnEvent(tick=60, channel=2, data=[55, 0]),
   midi.NoteOnEvent(tick=0, channel=2, data=[48, 0]),
   midi.NoteOnEvent(tick=0, channel=2, data=[40, 127]),
   midi.NoteOnEvent(tick=60, channel=2, data=[40, 0]),
   midi.NoteOnEvent(tick=0, channel=2, data=[49, 127]),
   midi.NoteOnEvent(tick=0, channel=2, data=[56, 127]),
   midi.NoteOnEvent(tick=60, channel=2, data=[49, 0]),
   midi.NoteOnEvent(tick=0, channel=2, data=[56, 0]),
   midi.NoteOnEvent(tick=0, channel=2, data=[40, 127]),
   midi.NoteOnEvent(tick=60, channel=2, data=[40, 0]),
   midi.NoteOnEvent(tick=0, channel=2, data=[57, 127]),
   midi.NoteOnEvent(tick=0, channel=2, data=[50, 127]),
   midi.NoteOnEvent(tick=60, channel=2, data=[57, 0]),
   midi.NoteOnEvent(tick=0, channel=2, data=[50, 0]),
   midi.NoteOnEvent(tick=0, channel=2, data=[40, 127]),
   midi.NoteOnEvent(tick=60, channel=2, data=[40, 0]),
   midi.NoteOnEvent(tick=0, channel=2, data=[40, 127]),
   midi.NoteOnEvent(tick=60, channel=2, data=[40, 0]),
   midi.NoteOnEvent(tick=0, channel=2, data=[45, 127]),
   midi.NoteOnEvent(tick=60, channel=2, data=[45, 0]),
   midi.NoteOnEvent(tick=0, channel=2, data=[47, 127]),
   midi.NoteOnEvent(tick=60, channel=2, data=[47, 0]),
   midi.NoteOnEvent(tick=0, channel=2, data=[53, 127]),
   midi.NoteOnEvent(tick=60, channel=2, data=[53, 0]),
   midi.NoteOnEvent(tick=0, channel=2, data=[52, 127]),
   midi.NoteOnEvent(tick=60, channel=2, data=[52, 0]),
   midi.NoteOnEvent(tick=0, channel=2, data=[50, 127]),
   midi.NoteOnEvent(tick=60, channel=2, data=[50, 0]),
   midi.NoteOnEvent(tick=0, channel=2, data=[52, 127]),
   midi.NoteOnEvent(tick=60, channel=2, data=[52, 0]),
   midi.NoteOnEvent(tick=0, channel=2, data=[40, 127]),
   midi.NoteOnEvent(tick=60, channel=2, data=[40, 0]),
   midi.NoteOnEvent(tick=0, channel=2, data=[40, 127]),
   midi.NoteOnEvent(tick=60, channel=2, data=[40, 0]),
   midi.NoteOnEvent(tick=0, channel=2, data=[40, 127]),
   midi.NoteOnEvent(tick=60, channel=2, data=[40, 0]),
   midi.NoteOnEvent(tick=0, channel=2, data=[55, 127]),
   midi.NoteOnEvent(tick=0, channel=2, data=[48, 127]),
   midi.NoteOnEvent(tick=60, channel=2, data=[55, 0]),
   midi.NoteOnEvent(tick=0, channel=2, data=[48, 0]),
   midi.NoteOnEvent(tick=0, channel=2, data=[40, 127]),
   midi.NoteOnEvent(tick=60, channel=2, data=[40, 0]),
   midi.NoteOnEvent(tick=0, channel=2, data=[49, 127]),
   midi.NoteOnEvent(tick=0, channel=2, data=[56, 127]),
   midi.NoteOnEvent(tick=60, channel=2, data=[49, 0]),
   midi.NoteOnEvent(tick=0, channel=2, data=[56, 0]),
   midi.NoteOnEvent(tick=0, channel=2, data=[40, 127]),
   midi.NoteOnEvent(tick=60, channel=2, data=[40, 0]),
   midi.NoteOnEvent(tick=0, channel=2, data=[57, 127]),
   midi.NoteOnEvent(tick=0, channel=2, data=[50, 127]),
   midi.NoteOnEvent(tick=60, channel=2, data=[57, 0]),
   midi.NoteOnEvent(tick=0, channel=2, data=[50, 0]),
   midi.NoteOnEvent(tick=0, channel=2, data=[40, 127]),
   midi.NoteOnEvent(tick=60, channel=2, data=[40, 0]),
   midi.NoteOnEvent(tick=0, channel=2, data=[40, 127]),
   midi.NoteOnEvent(tick=60, channel=2, data=[40, 0]),
   midi.NoteOnEvent(tick=0, channel=2, data=[45, 127]),
   midi.NoteOnEvent(tick=60, channel=2, data=[45, 0]),
   midi.NoteOnEvent(tick=0, channel=2, data=[47, 127]),
   midi.NoteOnEvent(tick=60, channel=2, data=[47, 0]),
   midi.NoteOnEvent(tick=0, channel=2, data=[53, 127]),
   midi.NoteOnEvent(tick=60, channel=2, data=[53, 0]),
   midi.NoteOnEvent(tick=0, channel=2, data=[52, 127]),
   midi.NoteOnEvent(tick=60, channel=2, data=[52, 0]),
   midi.NoteOnEvent(tick=0, channel=2, data=[50, 127]),
   midi.NoteOnEvent(tick=60, channel=2, data=[50, 0]),
   midi.NoteOnEvent(tick=0, channel=2, data=[52, 127]),
   midi.NoteOnEvent(tick=60, channel=2, data=[52, 0]),
   midi.NoteOnEvent(tick=0, channel=2, data=[40, 127]),
   midi.NoteOnEvent(tick=60, channel=2, data=[40, 0]),
   midi.NoteOnEvent(tick=0, channel=2, data=[40, 127]),
   midi.NoteOnEvent(tick=60, channel=2, data=[40, 0]),
   midi.NoteOnEvent(tick=0, channel=2, data=[40, 127]),
   midi.NoteOnEvent(tick=60, channel=2, data=[40, 0]),
   midi.NoteOnEvent(tick=0, channel=2, data=[55, 127]),
   midi.NoteOnEvent(tick=0, channel=2, data=[48, 127]),
   midi.NoteOnEvent(tick=60, channel=2, data=[55, 0]),
   midi.NoteOnEvent(tick=0, channel=2, data=[48, 0]),
   midi.NoteOnEvent(tick=0, channel=2, data=[40, 127]),
   midi.NoteOnEvent(tick=60, channel=2, data=[40, 0]),
   midi.NoteOnEvent(tick=0, channel=2, data=[49, 127]),
   midi.NoteOnEvent(tick=0, channel=2, data=[56, 127]),
   midi.NoteOnEvent(tick=60, channel=2, data=[49, 0]),
   midi.NoteOnEvent(tick=0, channel=2, data=[56, 0]),
   midi.NoteOnEvent(tick=0, channel=2, data=[40, 127]),
   midi.NoteOnEvent(tick=60, channel=2, data=[40, 0]),
   midi.NoteOnEvent(tick=0, channel=2, data=[57, 127]),
   midi.NoteOnEvent(tick=0, channel=2, data=[50, 127]),
   midi.NoteOnEvent(tick=60, channel=2, data=[57, 0]),
   midi.NoteOnEvent(tick=0, channel=2, data=[50, 0]),
   midi.NoteOnEvent(tick=0, channel=2, data=[40, 127]),
   midi.NoteOnEvent(tick=60, channel=2, data=[40, 0]),
   midi.NoteOnEvent(tick=0, channel=2, data=[40, 127]),
   midi.NoteOnEvent(tick=60, channel=2, data=[40, 0]),
   midi.NoteOnEvent(tick=0, channel=2, data=[45, 127]),
   midi.NoteOnEvent(tick=60, channel=2, data=[45, 0]),
   midi.NoteOnEvent(tick=0, channel=2, data=[47, 127]),
   midi.NoteOnEvent(tick=60, channel=2, data=[47, 0]),
   midi.NoteOnEvent(tick=0, channel=2, data=[53, 127]),
   midi.NoteOnEvent(tick=60, channel=2, data=[53, 0]),
   midi.NoteOnEvent(tick=0, channel=2, data=[52, 127]),
   midi.NoteOnEvent(tick=60, channel=2, data=[52, 0]),
   midi.NoteOnEvent(tick=0, channel=2, data=[50, 127]),
   midi.NoteOnEvent(tick=60, channel=2, data=[50, 0]),
   midi.NoteOnEvent(tick=0, channel=2, data=[52, 127]),
   midi.NoteOnEvent(tick=60, channel=2, data=[52, 0]),
   midi.NoteOnEvent(tick=0, channel=2, data=[40, 127]),
   midi.NoteOnEvent(tick=60, channel=2, data=[40, 0]),
   midi.NoteOnEvent(tick=0, channel=2, data=[40, 127]),
   midi.NoteOnEvent(tick=60, channel=2, data=[40, 0]),
   midi.NoteOnEvent(tick=0, channel=2, data=[40, 127]),
   midi.NoteOnEvent(tick=60, channel=2, data=[40, 0]),
   midi.NoteOnEvent(tick=0, channel=2, data=[55, 127]),
   midi.NoteOnEvent(tick=0, channel=2, data=[48, 127]),
   midi.NoteOnEvent(tick=60, channel=2, data=[55, 0]),
   midi.NoteOnEvent(tick=0, channel=2, data=[48, 0]),
   midi.NoteOnEvent(tick=0, channel=2, data=[40, 127]),
   midi.NoteOnEvent(tick=60, channel=2, data=[40, 0]),
   midi.NoteOnEvent(tick=0, channel=2, data=[49, 127]),
   midi.NoteOnEvent(tick=0, channel=2, data=[56, 127]),
   midi.NoteOnEvent(tick=60, channel=2, data=[49, 0]),
   midi.NoteOnEvent(tick=0, channel=2, data=[56, 0]),
   midi.NoteOnEvent(tick=0, channel=2, data=[40, 127]),
   midi.NoteOnEvent(tick=60, channel=2, data=[40, 0]),
   midi.NoteOnEvent(tick=0, channel=2, data=[57, 127]),
   midi.NoteOnEvent(tick=0, channel=2, data=[50, 127]),
   midi.NoteOnEvent(tick=60, channel=2, data=[57, 0]),
   midi.NoteOnEvent(tick=0, channel=2, data=[50, 0]),
   midi.NoteOnEvent(tick=0, channel=2, data=[40, 127]),
   midi.NoteOnEvent(tick=60, channel=2, data=[40, 0]),
   midi.NoteOnEvent(tick=0, channel=2, data=[40, 127]),
   midi.NoteOnEvent(tick=60, channel=2, data=[40, 0]),
   midi.NoteOnEvent(tick=0, channel=2, data=[45, 127]),
   midi.NoteOnEvent(tick=60, channel=2, data=[45, 0]),
   midi.NoteOnEvent(tick=0, channel=2, data=[47, 127]),
   midi.NoteOnEvent(tick=60, channel=2, data=[47, 0]),
   midi.NoteOnEvent(tick=0, channel=2, data=[53, 127]),
   midi.NoteOnEvent(tick=60, channel=2, data=[53, 0]),
   midi.NoteOnEvent(tick=0, channel=2, data=[52, 127]),
   midi.NoteOnEvent(tick=60, channel=2, data=[52, 0]),
   midi.NoteOnEvent(tick=0, channel=2, data=[50, 127]),
   midi.NoteOnEvent(tick=60, channel=2, data=[50, 0]),
   midi.NoteOnEvent(tick=0, channel=2, data=[52, 127]),
   midi.NoteOnEvent(tick=60, channel=2, data=[52, 0]),
   midi.NoteOnEvent(tick=0, channel=2, data=[40, 127]),
   midi.NoteOnEvent(tick=60, channel=2, data=[40, 0]),
   midi.NoteOnEvent(tick=0, channel=2, data=[40, 127]),
   midi.NoteOnEvent(tick=60, channel=2, data=[40, 0]),
   midi.NoteOnEvent(tick=0, channel=2, data=[40, 127]),
   midi.NoteOnEvent(tick=60, channel=2, data=[40, 0]),
   midi.NoteOnEvent(tick=0, channel=2, data=[55, 127]),
   midi.NoteOnEvent(tick=0, channel=2, data=[48, 127]),
   midi.NoteOnEvent(tick=60, channel=2, data=[55, 0]),
   midi.NoteOnEvent(tick=0, channel=2, data=[48, 0]),
   midi.NoteOnEvent(tick=0, channel=2, data=[40, 127]),
   midi.NoteOnEvent(tick=60, channel=2, data=[40, 0]),
   midi.NoteOnEvent(tick=0, channel=2, data=[49, 127]),
   midi.NoteOnEvent(tick=0, channel=2, data=[56, 127]),
   midi.NoteOnEvent(tick=60, channel=2, data=[49, 0]),
   midi.NoteOnEvent(tick=0, channel=2, data=[56, 0]),
   midi.NoteOnEvent(tick=0, channel=2, data=[40, 127]),
   midi.NoteOnEvent(tick=60, channel=2, data=[40, 0]),
   midi.NoteOnEvent(tick=0, channel=2, data=[57, 127]),
   midi.NoteOnEvent(tick=0, channel=2, data=[50, 127]),
   midi.NoteOnEvent(tick=60, channel=2, data=[57, 0]),
   midi.NoteOnEvent(tick=0, channel=2, data=[50, 0]),
   midi.NoteOnEvent(tick=0, channel=2, data=[40, 127]),
   midi.NoteOnEvent(tick=60, channel=2, data=[40, 0]),
   midi.NoteOnEvent(tick=0, channel=2, data=[40, 127]),
   midi.NoteOnEvent(tick=60, channel=2, data=[40, 0]),
   midi.NoteOnEvent(tick=0, channel=2, data=[45, 127]),
   midi.NoteOnEvent(tick=60, channel=2, data=[45, 0]),
   midi.NoteOnEvent(tick=0, channel=2, data=[47, 127]),
   midi.NoteOnEvent(tick=60, channel=2, data=[47, 0]),
   midi.NoteOnEvent(tick=0, channel=2, data=[53, 127]),
   midi.NoteOnEvent(tick=60, channel=2, data=[53, 0]),
   midi.NoteOnEvent(tick=0, channel=2, data=[52, 127]),
   midi.NoteOnEvent(tick=60, channel=2, data=[52, 0]),
   midi.NoteOnEvent(tick=0, channel=2, data=[50, 127]),
   midi.NoteOnEvent(tick=60, channel=2, data=[50, 0]),
   midi.NoteOnEvent(tick=0, channel=2, data=[52, 127]),
   midi.NoteOnEvent(tick=60, channel=2, data=[52, 0]),
   midi.NoteOnEvent(tick=0, channel=2, data=[40, 127]),
   midi.NoteOnEvent(tick=60, channel=2, data=[40, 0]),
   midi.NoteOnEvent(tick=0, channel=2, data=[40, 127]),
   midi.NoteOnEvent(tick=60, channel=2, data=[40, 0]),
   midi.NoteOnEvent(tick=0, channel=2, data=[40, 127]),
   midi.NoteOnEvent(tick=60, channel=2, data=[40, 0]),
   midi.NoteOnEvent(tick=0, channel=2, data=[55, 127]),
   midi.NoteOnEvent(tick=0, channel=2, data=[48, 127]),
   midi.NoteOnEvent(tick=60, channel=2, data=[55, 0]),
   midi.NoteOnEvent(tick=0, channel=2, data=[48, 0]),
   midi.NoteOnEvent(tick=0, channel=2, data=[40, 127]),
   midi.NoteOnEvent(tick=60, channel=2, data=[40, 0]),
   midi.NoteOnEvent(tick=0, channel=2, data=[49, 127]),
   midi.NoteOnEvent(tick=0, channel=2, data=[56, 127]),
   midi.NoteOnEvent(tick=60, channel=2, data=[49, 0]),
   midi.NoteOnEvent(tick=0, channel=2, data=[56, 0]),
   midi.NoteOnEvent(tick=0, channel=2, data=[40, 127]),
   midi.NoteOnEvent(tick=60, channel=2, data=[40, 0]),
   midi.NoteOnEvent(tick=0, channel=2, data=[57, 127]),
   midi.NoteOnEvent(tick=0, channel=2, data=[50, 127]),
   midi.NoteOnEvent(tick=60, channel=2, data=[57, 0]),
   midi.NoteOnEvent(tick=0, channel=2, data=[50, 0]),
   midi.NoteOnEvent(tick=0, channel=2, data=[40, 127]),
   midi.NoteOnEvent(tick=60, channel=2, data=[40, 0]),
   midi.NoteOnEvent(tick=0, channel=2, data=[40, 127]),
   midi.NoteOnEvent(tick=60, channel=2, data=[40, 0]),
   midi.NoteOnEvent(tick=0, channel=2, data=[40, 127]),
   midi.NoteOnEvent(tick=60, channel=2, data=[40, 0]),
   midi.NoteOnEvent(tick=0, channel=2, data=[40, 127]),
   midi.NoteOnEvent(tick=60, channel=2, data=[40, 0]),
   midi.NoteOnEvent(tick=0, channel=2, data=[40, 127]),
   midi.NoteOnEvent(tick=60, channel=2, data=[40, 0]),
   midi.NoteOnEvent(tick=0, channel=2, data=[40, 127]),
   midi.NoteOnEvent(tick=60, channel=2, data=[40, 0]),
   midi.NoteOnEvent(tick=0, channel=2, data=[40, 127]),
   midi.NoteOnEvent(tick=60, channel=2, data=[40, 0]),
   midi.NoteOnEvent(tick=0, channel=2, data=[40, 127]),
   midi.NoteOnEvent(tick=60, channel=2, data=[40, 0]),
   midi.NoteOnEvent(tick=0, channel=2, data=[40, 127]),
   midi.NoteOnEvent(tick=60, channel=2, data=[40, 0]),
   midi.NoteOnEvent(tick=0, channel=2, data=[40, 127]),
   midi.NoteOnEvent(tick=60, channel=2, data=[40, 0]),
   midi.NoteOnEvent(tick=0, channel=2, data=[40, 127]),
   midi.NoteOnEvent(tick=60, channel=2, data=[40, 0]),
   midi.NoteOnEvent(tick=0, channel=2, data=[55, 127]),
   midi.NoteOnEvent(tick=0, channel=2, data=[48, 127]),
   midi.NoteOnEvent(tick=60, channel=2, data=[55, 0]),
   midi.NoteOnEvent(tick=0, channel=2, data=[48, 0]),
   midi.NoteOnEvent(tick=0, channel=2, data=[40, 127]),
   midi.NoteOnEvent(tick=60, channel=2, data=[40, 0]),
   midi.NoteOnEvent(tick=0, channel=2, data=[56, 127]),
   midi.NoteOnEvent(tick=0, channel=2, data=[49, 127]),
   midi.NoteOnEvent(tick=60, channel=2, data=[56, 0]),
   midi.NoteOnEvent(tick=0, channel=2, data=[49, 0]),
   midi.NoteOnEvent(tick=0, channel=2, data=[40, 127]),
   midi.NoteOnEvent(tick=60, channel=2, data=[40, 0]),
   midi.NoteOnEvent(tick=0, channel=2, data=[57, 127]),
   midi.NoteOnEvent(tick=0, channel=2, data=[50, 127]),
   midi.NoteOnEvent(tick=60, channel=2, data=[57, 0]),
   midi.NoteOnEvent(tick=0, channel=2, data=[50, 0]),
   midi.NoteOnEvent(tick=0, channel=2, data=[40, 127]),
   midi.NoteOnEvent(tick=60, channel=2, data=[40, 0]),
   midi.NoteOnEvent(tick=0, channel=2, data=[40, 127]),
   midi.NoteOnEvent(tick=60, channel=2, data=[40, 0]),
   midi.NoteOnEvent(tick=0, channel=2, data=[40, 127]),
   midi.NoteOnEvent(tick=60, channel=2, data=[40, 0]),
   midi.NoteOnEvent(tick=0, channel=2, data=[40, 127]),
   midi.NoteOnEvent(tick=60, channel=2, data=[40, 0]),
   midi.NoteOnEvent(tick=0, channel=2, data=[40, 127]),
   midi.NoteOnEvent(tick=60, channel=2, data=[40, 0]),
   midi.NoteOnEvent(tick=0, channel=2, data=[40, 127]),
   midi.NoteOnEvent(tick=60, channel=2, data=[40, 0]),
   midi.NoteOnEvent(tick=0, channel=2, data=[40, 127]),
   midi.NoteOnEvent(tick=60, channel=2, data=[40, 0]),
   midi.NoteOnEvent(tick=0, channel=2, data=[40, 127]),
   midi.NoteOnEvent(tick=60, channel=2, data=[40, 0]),
   midi.NoteOnEvent(tick=0, channel=2, data=[40, 127]),
   midi.NoteOnEvent(tick=60, channel=2, data=[40, 0]),
   midi.NoteOnEvent(tick=0, channel=2, data=[40, 127]),
   midi.NoteOnEvent(tick=60, channel=2, data=[40, 0]),
   midi.NoteOnEvent(tick=0, channel=2, data=[40, 127]),
   midi.NoteOnEvent(tick=60, channel=2, data=[40, 0]),
   midi.NoteOnEvent(tick=0, channel=2, data=[55, 127]),
   midi.NoteOnEvent(tick=0, channel=2, data=[48, 127]),
   midi.NoteOnEvent(tick=60, channel=2, data=[55, 0]),
   midi.NoteOnEvent(tick=0, channel=2, data=[48, 0]),
   midi.NoteOnEvent(tick=0, channel=2, data=[40, 127]),
   midi.NoteOnEvent(tick=60, channel=2, data=[40, 0]),
   midi.NoteOnEvent(tick=0, channel=2, data=[56, 127]),
   midi.NoteOnEvent(tick=0, channel=2, data=[49, 127]),
   midi.NoteOnEvent(tick=60, channel=2, data=[56, 0]),
   midi.NoteOnEvent(tick=0, channel=2, data=[49, 0]),
   midi.NoteOnEvent(tick=0, channel=2, data=[40, 127]),
   midi.NoteOnEvent(tick=60, channel=2, data=[40, 0]),
   midi.NoteOnEvent(tick=0, channel=2, data=[57, 127]),
   midi.NoteOnEvent(tick=0, channel=2, data=[50, 127]),
   midi.NoteOnEvent(tick=60, channel=2, data=[57, 0]),
   midi.NoteOnEvent(tick=0, channel=2, data=[50, 0]),
   midi.NoteOnEvent(tick=0, channel=2, data=[40, 127]),
   midi.NoteOnEvent(tick=60, channel=2, data=[40, 0]),
   midi.NoteOnEvent(tick=0, channel=2, data=[40, 127]),
   midi.NoteOnEvent(tick=60, channel=2, data=[40, 0]),
   midi.NoteOnEvent(tick=0, channel=2, data=[40, 127]),
   midi.NoteOnEvent(tick=60, channel=2, data=[40, 0]),
   midi.NoteOnEvent(tick=0, channel=2, data=[40, 127]),
   midi.NoteOnEvent(tick=60, channel=2, data=[40, 0]),
   midi.NoteOnEvent(tick=0, channel=2, data=[40, 127]),
   midi.NoteOnEvent(tick=60, channel=2, data=[40, 0]),
   midi.NoteOnEvent(tick=0, channel=2, data=[40, 127]),
   midi.NoteOnEvent(tick=60, channel=2, data=[40, 0]),
   midi.NoteOnEvent(tick=0, channel=2, data=[40, 127]),
   midi.NoteOnEvent(tick=60, channel=2, data=[40, 0]),
   midi.NoteOnEvent(tick=0, channel=2, data=[40, 127]),
   midi.NoteOnEvent(tick=60, channel=2, data=[40, 0]),
   midi.NoteOnEvent(tick=0, channel=2, data=[40, 127]),
   midi.NoteOnEvent(tick=60, channel=2, data=[40, 0]),
   midi.NoteOnEvent(tick=0, channel=2, data=[40, 127]),
   midi.NoteOnEvent(tick=60, channel=2, data=[40, 0]),
   midi.NoteOnEvent(tick=0, channel=2, data=[40, 127]),
   midi.NoteOnEvent(tick=60, channel=2, data=[40, 0]),
   midi.NoteOnEvent(tick=0, channel=2, data=[55, 127]),
   midi.NoteOnEvent(tick=0, channel=2, data=[48, 127]),
   midi.NoteOnEvent(tick=60, channel=2, data=[55, 0]),
   midi.NoteOnEvent(tick=0, channel=2, data=[48, 0]),
   midi.NoteOnEvent(tick=0, channel=2, data=[40, 127]),
   midi.NoteOnEvent(tick=60, channel=2, data=[40, 0]),
   midi.NoteOnEvent(tick=0, channel=2, data=[56, 127]),
   midi.NoteOnEvent(tick=0, channel=2, data=[49, 127]),
   midi.NoteOnEvent(tick=60, channel=2, data=[56, 0]),
   midi.NoteOnEvent(tick=0, channel=2, data=[49, 0]),
   midi.NoteOnEvent(tick=0, channel=2, data=[40, 127]),
   midi.NoteOnEvent(tick=60, channel=2, data=[40, 0]),
   midi.NoteOnEvent(tick=0, channel=2, data=[57, 127]),
   midi.NoteOnEvent(tick=0, channel=2, data=[50, 127]),
   midi.NoteOnEvent(tick=60, channel=2, data=[57, 0]),
   midi.NoteOnEvent(tick=0, channel=2, data=[50, 0]),
   midi.NoteOnEvent(tick=0, channel=2, data=[40, 127]),
   midi.NoteOnEvent(tick=60, channel=2, data=[40, 0]),
   midi.NoteOnEvent(tick=0, channel=2, data=[40, 127]),
   midi.NoteOnEvent(tick=60, channel=2, data=[40, 0]),
   midi.NoteOnEvent(tick=0, channel=2, data=[40, 127]),
   midi.NoteOnEvent(tick=60, channel=2, data=[40, 0]),
   midi.NoteOnEvent(tick=0, channel=2, data=[40, 127]),
   midi.NoteOnEvent(tick=60, channel=2, data=[40, 0]),
   midi.NoteOnEvent(tick=0, channel=2, data=[40, 127]),
   midi.NoteOnEvent(tick=60, channel=2, data=[40, 0]),
   midi.NoteOnEvent(tick=0, channel=2, data=[40, 127]),
   midi.NoteOnEvent(tick=60, channel=2, data=[40, 0]),
   midi.NoteOnEvent(tick=0, channel=2, data=[40, 127]),
   midi.NoteOnEvent(tick=60, channel=2, data=[40, 0]),
   midi.NoteOnEvent(tick=0, channel=2, data=[40, 127]),
   midi.NoteOnEvent(tick=60, channel=2, data=[40, 0]),
   midi.NoteOnEvent(tick=0, channel=2, data=[40, 127]),
   midi.NoteOnEvent(tick=60, channel=2, data=[40, 0]),
   midi.NoteOnEvent(tick=0, channel=2, data=[40, 127]),
   midi.NoteOnEvent(tick=60, channel=2, data=[40, 0]),
   midi.NoteOnEvent(tick=0, channel=2, data=[40, 127]),
   midi.NoteOnEvent(tick=60, channel=2, data=[40, 0]),
   midi.NoteOnEvent(tick=0, channel=2, data=[55, 127]),
   midi.NoteOnEvent(tick=0, channel=2, data=[48, 127]),
   midi.NoteOnEvent(tick=60, channel=2, data=[55, 0]),
   midi.NoteOnEvent(tick=0, channel=2, data=[48, 0]),
   midi.NoteOnEvent(tick=0, channel=2, data=[40, 127]),
   midi.NoteOnEvent(tick=60, channel=2, data=[40, 0]),
   midi.NoteOnEvent(tick=0, channel=2, data=[56, 127]),
   midi.NoteOnEvent(tick=0, channel=2, data=[49, 127]),
   midi.NoteOnEvent(tick=60, channel=2, data=[56, 0]),
   midi.NoteOnEvent(tick=0, channel=2, data=[49, 0]),
   midi.NoteOnEvent(tick=0, channel=2, data=[40, 127]),
   midi.NoteOnEvent(tick=60, channel=2, data=[40, 0]),
   midi.NoteOnEvent(tick=0, channel=2, data=[57, 127]),
   midi.NoteOnEvent(tick=0, channel=2, data=[50, 127]),
   midi.NoteOnEvent(tick=60, channel=2, data=[57, 0]),
   midi.NoteOnEvent(tick=0, channel=2, data=[50, 0]),
   midi.NoteOnEvent(tick=0, channel=2, data=[40, 127]),
   midi.NoteOnEvent(tick=60, channel=2, data=[40, 0]),
   midi.NoteOnEvent(tick=0, channel=2, data=[40, 127]),
   midi.NoteOnEvent(tick=60, channel=2, data=[40, 0]),
   midi.NoteOnEvent(tick=0, channel=2, data=[40, 127]),
   midi.NoteOnEvent(tick=60, channel=2, data=[40, 0]),
   midi.NoteOnEvent(tick=0, channel=2, data=[40, 127]),
   midi.NoteOnEvent(tick=60, channel=2, data=[40, 0]),
   midi.NoteOnEvent(tick=0, channel=2, data=[40, 127]),
   midi.NoteOnEvent(tick=60, channel=2, data=[40, 0]),
   midi.NoteOnEvent(tick=0, channel=2, data=[40, 127]),
   midi.NoteOnEvent(tick=60, channel=2, data=[40, 0]),
   midi.NoteOnEvent(tick=0, channel=2, data=[40, 127]),
   midi.NoteOnEvent(tick=60, channel=2, data=[40, 0]),
   midi.NoteOnEvent(tick=0, channel=2, data=[40, 127]),
   midi.NoteOnEvent(tick=60, channel=2, data=[40, 0]),
   midi.NoteOnEvent(tick=0, channel=2, data=[40, 127]),
   midi.NoteOnEvent(tick=60, channel=2, data=[40, 0]),
   midi.NoteOnEvent(tick=0, channel=2, data=[40, 127]),
   midi.NoteOnEvent(tick=60, channel=2, data=[40, 0]),
   midi.NoteOnEvent(tick=0, channel=2, data=[40, 127]),
   midi.NoteOnEvent(tick=60, channel=2, data=[40, 0]),
   midi.NoteOnEvent(tick=0, channel=2, data=[55, 127]),
   midi.NoteOnEvent(tick=0, channel=2, data=[48, 127]),
   midi.NoteOnEvent(tick=60, channel=2, data=[55, 0]),
   midi.NoteOnEvent(tick=0, channel=2, data=[48, 0]),
   midi.NoteOnEvent(tick=0, channel=2, data=[40, 127]),
   midi.NoteOnEvent(tick=60, channel=2, data=[40, 0]),
   midi.NoteOnEvent(tick=0, channel=2, data=[56, 127]),
   midi.NoteOnEvent(tick=0, channel=2, data=[49, 127]),
   midi.NoteOnEvent(tick=60, channel=2, data=[56, 0]),
   midi.NoteOnEvent(tick=0, channel=2, data=[49, 0]),
   midi.NoteOnEvent(tick=0, channel=2, data=[40, 127]),
   midi.NoteOnEvent(tick=60, channel=2, data=[40, 0]),
   midi.NoteOnEvent(tick=0, channel=2, data=[57, 127]),
   midi.NoteOnEvent(tick=0, channel=2, data=[50, 127]),
   midi.NoteOnEvent(tick=60, channel=2, data=[57, 0]),
   midi.NoteOnEvent(tick=0, channel=2, data=[50, 0]),
   midi.NoteOnEvent(tick=0, channel=2, data=[40, 127]),
   midi.NoteOnEvent(tick=60, channel=2, data=[40, 0]),
   midi.NoteOnEvent(tick=0, channel=2, data=[40, 127]),
   midi.NoteOnEvent(tick=60, channel=2, data=[40, 0]),
   midi.NoteOnEvent(tick=0, channel=2, data=[40, 127]),
   midi.NoteOnEvent(tick=60, channel=2, data=[40, 0]),
   midi.NoteOnEvent(tick=0, channel=2, data=[40, 127]),
   midi.NoteOnEvent(tick=60, channel=2, data=[40, 0]),
   midi.NoteOnEvent(tick=0, channel=2, data=[40, 127]),
   midi.NoteOnEvent(tick=60, channel=2, data=[40, 0]),
   midi.NoteOnEvent(tick=0, channel=2, data=[40, 127]),
   midi.NoteOnEvent(tick=60, channel=2, data=[40, 0]),
   midi.NoteOnEvent(tick=0, channel=2, data=[40, 127]),
   midi.NoteOnEvent(tick=60, channel=2, data=[40, 0]),
   midi.NoteOnEvent(tick=0, channel=2, data=[40, 127]),
   midi.NoteOnEvent(tick=60, channel=2, data=[40, 0]),
   midi.NoteOnEvent(tick=0, channel=2, data=[40, 127]),
   midi.NoteOnEvent(tick=60, channel=2, data=[40, 0]),
   midi.NoteOnEvent(tick=0, channel=2, data=[40, 127]),
   midi.NoteOnEvent(tick=60, channel=2, data=[40, 0]),
   midi.NoteOnEvent(tick=0, channel=2, data=[40, 127]),
   midi.NoteOnEvent(tick=60, channel=2, data=[40, 0]),
   midi.NoteOnEvent(tick=0, channel=2, data=[55, 127]),
   midi.NoteOnEvent(tick=0, channel=2, data=[48, 127]),
   midi.NoteOnEvent(tick=60, channel=2, data=[55, 0]),
   midi.NoteOnEvent(tick=0, channel=2, data=[48, 0]),
   midi.NoteOnEvent(tick=0, channel=2, data=[40, 127]),
   midi.NoteOnEvent(tick=60, channel=2, data=[40, 0]),
   midi.NoteOnEvent(tick=0, channel=2, data=[56, 127]),
   midi.NoteOnEvent(tick=0, channel=2, data=[49, 127]),
   midi.NoteOnEvent(tick=60, channel=2, data=[56, 0]),
   midi.NoteOnEvent(tick=0, channel=2, data=[49, 0]),
   midi.NoteOnEvent(tick=0, channel=2, data=[40, 127]),
   midi.NoteOnEvent(tick=60, channel=2, data=[40, 0]),
   midi.NoteOnEvent(tick=0, channel=2, data=[57, 127]),
   midi.NoteOnEvent(tick=0, channel=2, data=[50, 127]),
   midi.NoteOnEvent(tick=60, channel=2, data=[57, 0]),
   midi.NoteOnEvent(tick=0, channel=2, data=[50, 0]),
   midi.NoteOnEvent(tick=0, channel=2, data=[40, 127]),
   midi.NoteOnEvent(tick=60, channel=2, data=[40, 0]),
   midi.NoteOnEvent(tick=0, channel=2, data=[40, 127]),
   midi.NoteOnEvent(tick=60, channel=2, data=[40, 0]),
   midi.NoteOnEvent(tick=0, channel=2, data=[40, 127]),
   midi.NoteOnEvent(tick=60, channel=2, data=[40, 0]),
   midi.NoteOnEvent(tick=0, channel=2, data=[40, 127]),
   midi.NoteOnEvent(tick=60, channel=2, data=[40, 0]),
   midi.NoteOnEvent(tick=0, channel=2, data=[40, 127]),
   midi.NoteOnEvent(tick=60, channel=2, data=[40, 0]),
   midi.NoteOnEvent(tick=0, channel=2, data=[40, 127]),
   midi.NoteOnEvent(tick=60, channel=2, data=[40, 0]),
   midi.NoteOnEvent(tick=0, channel=2, data=[40, 127]),
   midi.NoteOnEvent(tick=60, channel=2, data=[40, 0]),
   midi.NoteOnEvent(tick=0, channel=2, data=[40, 127]),
   midi.NoteOnEvent(tick=60, channel=2, data=[40, 0]),
   midi.NoteOnEvent(tick=0, channel=2, data=[40, 127]),
   midi.NoteOnEvent(tick=60, channel=2, data=[40, 0]),
   midi.NoteOnEvent(tick=0, channel=2, data=[40, 127]),
   midi.NoteOnEvent(tick=60, channel=2, data=[40, 0]),
   midi.NoteOnEvent(tick=0, channel=2, data=[40, 127]),
   midi.NoteOnEvent(tick=60, channel=2, data=[40, 0]),
   midi.NoteOnEvent(tick=0, channel=2, data=[55, 127]),
   midi.NoteOnEvent(tick=0, channel=2, data=[48, 127]),
   midi.NoteOnEvent(tick=60, channel=2, data=[55, 0]),
   midi.NoteOnEvent(tick=0, channel=2, data=[48, 0]),
   midi.NoteOnEvent(tick=0, channel=2, data=[40, 127]),
   midi.NoteOnEvent(tick=60, channel=2, data=[40, 0]),
   midi.NoteOnEvent(tick=0, channel=2, data=[56, 127]),
   midi.NoteOnEvent(tick=0, channel=2, data=[49, 127]),
   midi.NoteOnEvent(tick=60, channel=2, data=[56, 0]),
   midi.NoteOnEvent(tick=0, channel=2, data=[49, 0]),
   midi.NoteOnEvent(tick=0, channel=2, data=[40, 127]),
   midi.NoteOnEvent(tick=60, channel=2, data=[40, 0]),
   midi.NoteOnEvent(tick=0, channel=2, data=[57, 127]),
   midi.NoteOnEvent(tick=0, channel=2, data=[50, 127]),
   midi.NoteOnEvent(tick=60, channel=2, data=[57, 0]),
   midi.NoteOnEvent(tick=0, channel=2, data=[50, 0]),
   midi.NoteOnEvent(tick=0, channel=2, data=[40, 127]),
   midi.NoteOnEvent(tick=60, channel=2, data=[40, 0]),
   midi.NoteOnEvent(tick=0, channel=2, data=[40, 127]),
   midi.NoteOnEvent(tick=60, channel=2, data=[40, 0]),
   midi.NoteOnEvent(tick=0, channel=2, data=[40, 127]),
   midi.NoteOnEvent(tick=60, channel=2, data=[40, 0]),
   midi.NoteOnEvent(tick=0, channel=2, data=[40, 127]),
   midi.NoteOnEvent(tick=60, channel=2, data=[40, 0]),
   midi.NoteOnEvent(tick=0, channel=2, data=[40, 127]),
   midi.NoteOnEvent(tick=60, channel=2, data=[40, 0]),
   midi.NoteOnEvent(tick=0, channel=2, data=[40, 127]),
   midi.NoteOnEvent(tick=60, channel=2, data=[40, 0]),
   midi.NoteOnEvent(tick=0, channel=2, data=[40, 127]),
   midi.NoteOnEvent(tick=60, channel=2, data=[40, 0]),
   midi.NoteOnEvent(tick=0, channel=2, data=[40, 127]),
   midi.NoteOnEvent(tick=60, channel=2, data=[40, 0]),
   midi.NoteOnEvent(tick=0, channel=2, data=[40, 127]),
   midi.NoteOnEvent(tick=60, channel=2, data=[40, 0]),
   midi.NoteOnEvent(tick=0, channel=2, data=[40, 127]),
   midi.NoteOnEvent(tick=60, channel=2, data=[40, 0]),
   midi.NoteOnEvent(tick=0, channel=2, data=[40, 127]),
   midi.NoteOnEvent(tick=60, channel=2, data=[40, 0]),
   midi.NoteOnEvent(tick=0, channel=2, data=[55, 127]),
   midi.NoteOnEvent(tick=0, channel=2, data=[48, 127]),
   midi.NoteOnEvent(tick=60, channel=2, data=[55, 0]),
   midi.NoteOnEvent(tick=0, channel=2, data=[48, 0]),
   midi.NoteOnEvent(tick=0, channel=2, data=[40, 127]),
   midi.NoteOnEvent(tick=60, channel=2, data=[40, 0]),
   midi.NoteOnEvent(tick=0, channel=2, data=[56, 127]),
   midi.NoteOnEvent(tick=0, channel=2, data=[49, 127]),
   midi.NoteOnEvent(tick=60, channel=2, data=[56, 0]),
   midi.NoteOnEvent(tick=0, channel=2, data=[49, 0]),
   midi.NoteOnEvent(tick=0, channel=2, data=[40, 127]),
   midi.NoteOnEvent(tick=60, channel=2, data=[40, 0]),
   midi.NoteOnEvent(tick=0, channel=2, data=[57, 127]),
   midi.NoteOnEvent(tick=0, channel=2, data=[50, 127]),
   midi.NoteOnEvent(tick=60, channel=2, data=[57, 0]),
   midi.NoteOnEvent(tick=0, channel=2, data=[50, 0]),
   midi.NoteOnEvent(tick=0, channel=2, data=[52, 127]),
   midi.NoteOnEvent(tick=40, channel=2, data=[52, 0]),
   midi.NoteOnEvent(tick=0, channel=2, data=[50, 127]),
   midi.NoteOnEvent(tick=40, channel=2, data=[50, 0]),
   midi.NoteOnEvent(tick=0, channel=2, data=[47, 127]),
   midi.NoteOnEvent(tick=40, channel=2, data=[47, 0]),
   midi.NoteOnEvent(tick=0, channel=2, data=[50, 127]),
   midi.NoteOnEvent(tick=40, channel=2, data=[50, 0]),
   midi.NoteOnEvent(tick=0, channel=2, data=[47, 127]),
   midi.NoteOnEvent(tick=40, channel=2, data=[47, 0]),
   midi.NoteOnEvent(tick=0, channel=2, data=[46, 127]),
   midi.NoteOnEvent(tick=40, channel=2, data=[46, 0]),
   midi.NoteOnEvent(tick=0, channel=2, data=[45, 127]),
   midi.NoteOnEvent(tick=40, channel=2, data=[45, 0]),
   midi.NoteOnEvent(tick=0, channel=2, data=[43, 127]),
   midi.NoteOnEvent(tick=40, channel=2, data=[43, 0]),
   midi.NoteOnEvent(tick=0, channel=2, data=[45, 127]),
   midi.NoteOnEvent(tick=40, channel=2, data=[45, 0]),
   midi.NoteOnEvent(tick=0, channel=2, data=[40, 127]),
   midi.NoteOnEvent(tick=40, channel=2, data=[40, 0]),
   midi.NoteOnEvent(tick=0, channel=2, data=[43, 127]),
   midi.NoteOnEvent(tick=40, channel=2, data=[43, 0]),
   midi.NoteOnEvent(tick=0, channel=2, data=[45, 127]),
   midi.NoteOnEvent(tick=40, channel=2, data=[45, 0]),
   midi.NoteOnEvent(tick=0, channel=2, data=[52, 127]),
   midi.NoteOnEvent(tick=40, channel=2, data=[52, 0]),
   midi.NoteOnEvent(tick=0, channel=2, data=[50, 127]),
   midi.NoteOnEvent(tick=40, channel=2, data=[50, 0]),
   midi.NoteOnEvent(tick=0, channel=2, data=[47, 127]),
   midi.NoteOnEvent(tick=40, channel=2, data=[47, 0]),
   midi.NoteOnEvent(tick=0, channel=2, data=[50, 127]),
   midi.NoteOnEvent(tick=40, channel=2, data=[50, 0]),
   midi.NoteOnEvent(tick=0, channel=2, data=[47, 127]),
   midi.NoteOnEvent(tick=40, channel=2, data=[47, 0]),
   midi.NoteOnEvent(tick=0, channel=2, data=[46, 127]),
   midi.NoteOnEvent(tick=40, channel=2, data=[46, 0]),
   midi.NoteOnEvent(tick=0, channel=2, data=[45, 127]),
   midi.NoteOnEvent(tick=40, channel=2, data=[45, 0]),
   midi.NoteOnEvent(tick=0, channel=2, data=[43, 127]),
   midi.NoteOnEvent(tick=40, channel=2, data=[43, 0]),
   midi.NoteOnEvent(tick=0, channel=2, data=[45, 127]),
   midi.NoteOnEvent(tick=40, channel=2, data=[45, 0]),
   midi.NoteOnEvent(tick=0, channel=2, data=[40, 127]),
   midi.NoteOnEvent(tick=40, channel=2, data=[40, 0]),
   midi.NoteOnEvent(tick=0, channel=2, data=[43, 127]),
   midi.NoteOnEvent(tick=40, channel=2, data=[43, 0]),
   midi.NoteOnEvent(tick=0, channel=2, data=[45, 127]),
   midi.NoteOnEvent(tick=40, channel=2, data=[45, 0]),
   midi.NoteOnEvent(tick=0, channel=2, data=[52, 127]),
   midi.NoteOnEvent(tick=60, channel=2, data=[52, 0]),
   midi.NoteOnEvent(tick=0, channel=2, data=[52, 127]),
   midi.NoteOnEvent(tick=60, channel=2, data=[52, 0]),
   midi.NoteOnEvent(tick=0, channel=2, data=[59, 127]),
   midi.NoteOnEvent(tick=30, channel=2, data=[59, 0]),
   midi.NoteOnEvent(tick=0, channel=2, data=[52, 127]),
   midi.NoteOnEvent(tick=30, channel=2, data=[52, 0]),
   midi.NoteOnEvent(tick=0, channel=2, data=[47, 127]),
   midi.NoteOnEvent(tick=60, channel=2, data=[47, 0]),
   midi.NoteOnEvent(tick=0, channel=2, data=[50, 127]),
   midi.NoteOnEvent(tick=60, channel=2, data=[50, 0]),
   midi.NoteOnEvent(tick=0, channel=2, data=[50, 127]),
   midi.NoteOnEvent(tick=60, channel=2, data=[50, 0]),
   midi.NoteOnEvent(tick=0, channel=2, data=[57, 127]),
   midi.NoteOnEvent(tick=30, channel=2, data=[57, 0]),
   midi.NoteOnEvent(tick=0, channel=2, data=[52, 127]),
   midi.NoteOnEvent(tick=30, channel=2, data=[52, 0]),
   midi.NoteOnEvent(tick=0, channel=2, data=[50, 127]),
   midi.NoteOnEvent(tick=60, channel=2, data=[50, 0]),
   midi.NoteOnEvent(tick=0, channel=2, data=[48, 127]),
   midi.NoteOnEvent(tick=60, channel=2, data=[48, 0]),
   midi.NoteOnEvent(tick=0, channel=2, data=[48, 127]),
   midi.NoteOnEvent(tick=60, channel=2, data=[48, 0]),
   midi.NoteOnEvent(tick=0, channel=2, data=[59, 127]),
   midi.NoteOnEvent(tick=30, channel=2, data=[59, 0]),
   midi.NoteOnEvent(tick=0, channel=2, data=[52, 127]),
   midi.NoteOnEvent(tick=30, channel=2, data=[52, 0]),
   midi.NoteOnEvent(tick=0, channel=2, data=[48, 127]),
   midi.NoteOnEvent(tick=60, channel=2, data=[48, 0]),
   midi.NoteOnEvent(tick=0, channel=2, data=[47, 127]),
   midi.NoteOnEvent(tick=60, channel=2, data=[47, 0]),
   midi.NoteOnEvent(tick=0, channel=2, data=[47, 127]),
   midi.NoteOnEvent(tick=60, channel=2, data=[47, 0]),
   midi.NoteOnEvent(tick=0, channel=2, data=[57, 127]),
   midi.NoteOnEvent(tick=30, channel=2, data=[57, 0]),
   midi.NoteOnEvent(tick=0, channel=2, data=[52, 127]),
   midi.NoteOnEvent(tick=30, channel=2, data=[52, 0]),
   midi.NoteOnEvent(tick=0, channel=2, data=[47, 127]),
   midi.NoteOnEvent(tick=60, channel=2, data=[47, 0]),
   midi.NoteOnEvent(tick=0, channel=2, data=[52, 127]),
   midi.NoteOnEvent(tick=60, channel=2, data=[52, 0]),
   midi.NoteOnEvent(tick=0, channel=2, data=[52, 127]),
   midi.NoteOnEvent(tick=60, channel=2, data=[52, 0]),
   midi.NoteOnEvent(tick=0, channel=2, data=[59, 127]),
   midi.NoteOnEvent(tick=30, channel=2, data=[59, 0]),
   midi.NoteOnEvent(tick=0, channel=2, data=[52, 127]),
   midi.NoteOnEvent(tick=30, channel=2, data=[52, 0]),
   midi.NoteOnEvent(tick=0, channel=2, data=[47, 127]),
   midi.NoteOnEvent(tick=60, channel=2, data=[47, 0]),
   midi.NoteOnEvent(tick=0, channel=2, data=[50, 127]),
   midi.NoteOnEvent(tick=60, channel=2, data=[50, 0]),
   midi.NoteOnEvent(tick=0, channel=2, data=[50, 127]),
   midi.NoteOnEvent(tick=60, channel=2, data=[50, 0]),
   midi.NoteOnEvent(tick=0, channel=2, data=[57, 127]),
   midi.NoteOnEvent(tick=30, channel=2, data=[57, 0]),
   midi.NoteOnEvent(tick=0, channel=2, data=[52, 127]),
   midi.NoteOnEvent(tick=30, channel=2, data=[52, 0]),
   midi.NoteOnEvent(tick=0, channel=2, data=[50, 127]),
   midi.NoteOnEvent(tick=60, channel=2, data=[50, 0]),
   midi.NoteOnEvent(tick=0, channel=2, data=[48, 127]),
   midi.NoteOnEvent(tick=60, channel=2, data=[48, 0]),
   midi.NoteOnEvent(tick=0, channel=2, data=[48, 127]),
   midi.NoteOnEvent(tick=60, channel=2, data=[48, 0]),
   midi.NoteOnEvent(tick=0, channel=2, data=[59, 127]),
   midi.NoteOnEvent(tick=30, channel=2, data=[59, 0]),
   midi.NoteOnEvent(tick=0, channel=2, data=[52, 127]),
   midi.NoteOnEvent(tick=30, channel=2, data=[52, 0]),
   midi.NoteOnEvent(tick=0, channel=2, data=[48, 127]),
   midi.NoteOnEvent(tick=60, channel=2, data=[48, 0]),
   midi.NoteOnEvent(tick=0, channel=2, data=[47, 127]),
   midi.NoteOnEvent(tick=60, channel=2, data=[47, 0]),
   midi.NoteOnEvent(tick=0, channel=2, data=[47, 127]),
   midi.NoteOnEvent(tick=60, channel=2, data=[47, 0]),
   midi.NoteOnEvent(tick=0, channel=2, data=[57, 127]),
   midi.NoteOnEvent(tick=30, channel=2, data=[57, 0]),
   midi.NoteOnEvent(tick=0, channel=2, data=[52, 127]),
   midi.NoteOnEvent(tick=30, channel=2, data=[52, 0]),
   midi.NoteOnEvent(tick=0, channel=2, data=[47, 127]),
   midi.NoteOnEvent(tick=60, channel=2, data=[47, 0]),
   midi.NoteOnEvent(tick=0, channel=2, data=[52, 127]),
   midi.NoteOnEvent(tick=60, channel=2, data=[52, 0]),
   midi.NoteOnEvent(tick=0, channel=2, data=[52, 127]),
   midi.NoteOnEvent(tick=60, channel=2, data=[52, 0]),
   midi.NoteOnEvent(tick=0, channel=2, data=[59, 127]),
   midi.NoteOnEvent(tick=30, channel=2, data=[59, 0]),
   midi.NoteOnEvent(tick=0, channel=2, data=[52, 127]),
   midi.NoteOnEvent(tick=30, channel=2, data=[52, 0]),
   midi.NoteOnEvent(tick=0, channel=2, data=[47, 127]),
   midi.NoteOnEvent(tick=60, channel=2, data=[47, 0]),
   midi.NoteOnEvent(tick=0, channel=2, data=[50, 127]),
   midi.NoteOnEvent(tick=60, channel=2, data=[50, 0]),
   midi.NoteOnEvent(tick=0, channel=2, data=[50, 127]),
   midi.NoteOnEvent(tick=60, channel=2, data=[50, 0]),
   midi.NoteOnEvent(tick=0, channel=2, data=[57, 127]),
   midi.NoteOnEvent(tick=30, channel=2, data=[57, 0]),
   midi.NoteOnEvent(tick=0, channel=2, data=[52, 127]),
   midi.NoteOnEvent(tick=30, channel=2, data=[52, 0]),
   midi.NoteOnEvent(tick=0, channel=2, data=[50, 127]),
   midi.NoteOnEvent(tick=60, channel=2, data=[50, 0]),
   midi.NoteOnEvent(tick=0, channel=2, data=[48, 127]),
   midi.NoteOnEvent(tick=60, channel=2, data=[48, 0]),
   midi.NoteOnEvent(tick=0, channel=2, data=[48, 127]),
   midi.NoteOnEvent(tick=60, channel=2, data=[48, 0]),
   midi.NoteOnEvent(tick=0, channel=2, data=[59, 127]),
   midi.NoteOnEvent(tick=30, channel=2, data=[59, 0]),
   midi.NoteOnEvent(tick=0, channel=2, data=[52, 127]),
   midi.NoteOnEvent(tick=30, channel=2, data=[52, 0]),
   midi.NoteOnEvent(tick=0, channel=2, data=[48, 127]),
   midi.NoteOnEvent(tick=60, channel=2, data=[48, 0]),
   midi.NoteOnEvent(tick=0, channel=2, data=[47, 127]),
   midi.NoteOnEvent(tick=60, channel=2, data=[47, 0]),
   midi.NoteOnEvent(tick=0, channel=2, data=[47, 127]),
   midi.NoteOnEvent(tick=60, channel=2, data=[47, 0]),
   midi.NoteOnEvent(tick=0, channel=2, data=[57, 127]),
   midi.NoteOnEvent(tick=30, channel=2, data=[57, 0]),
   midi.NoteOnEvent(tick=0, channel=2, data=[52, 127]),
   midi.NoteOnEvent(tick=30, channel=2, data=[52, 0]),
   midi.NoteOnEvent(tick=0, channel=2, data=[47, 127]),
   midi.NoteOnEvent(tick=60, channel=2, data=[47, 0]),
   midi.NoteOnEvent(tick=0, channel=2, data=[52, 127]),
   midi.NoteOnEvent(tick=60, channel=2, data=[52, 0]),
   midi.NoteOnEvent(tick=0, channel=2, data=[52, 127]),
   midi.NoteOnEvent(tick=60, channel=2, data=[52, 0]),
   midi.NoteOnEvent(tick=0, channel=2, data=[59, 127]),
   midi.NoteOnEvent(tick=30, channel=2, data=[59, 0]),
   midi.NoteOnEvent(tick=0, channel=2, data=[52, 127]),
   midi.NoteOnEvent(tick=30, channel=2, data=[52, 0]),
   midi.NoteOnEvent(tick=0, channel=2, data=[47, 127]),
   midi.NoteOnEvent(tick=60, channel=2, data=[47, 0]),
   midi.NoteOnEvent(tick=0, channel=2, data=[50, 127]),
   midi.NoteOnEvent(tick=60, channel=2, data=[50, 0]),
   midi.NoteOnEvent(tick=0, channel=2, data=[50, 127]),
   midi.NoteOnEvent(tick=60, channel=2, data=[50, 0]),
   midi.NoteOnEvent(tick=0, channel=2, data=[57, 127]),
   midi.NoteOnEvent(tick=30, channel=2, data=[57, 0]),
   midi.NoteOnEvent(tick=0, channel=2, data=[52, 127]),
   midi.NoteOnEvent(tick=30, channel=2, data=[52, 0]),
   midi.NoteOnEvent(tick=0, channel=2, data=[50, 127]),
   midi.NoteOnEvent(tick=60, channel=2, data=[50, 0]),
   midi.NoteOnEvent(tick=0, channel=2, data=[48, 127]),
   midi.NoteOnEvent(tick=60, channel=2, data=[48, 0]),
   midi.NoteOnEvent(tick=0, channel=2, data=[48, 127]),
   midi.NoteOnEvent(tick=60, channel=2, data=[48, 0]),
   midi.NoteOnEvent(tick=0, channel=2, data=[59, 127]),
   midi.NoteOnEvent(tick=30, channel=2, data=[59, 0]),
   midi.NoteOnEvent(tick=0, channel=2, data=[52, 127]),
   midi.NoteOnEvent(tick=30, channel=2, data=[52, 0]),
   midi.NoteOnEvent(tick=0, channel=2, data=[48, 127]),
   midi.NoteOnEvent(tick=60, channel=2, data=[48, 0]),
   midi.NoteOnEvent(tick=0, channel=2, data=[47, 127]),
   midi.NoteOnEvent(tick=60, channel=2, data=[47, 0]),
   midi.NoteOnEvent(tick=0, channel=2, data=[47, 127]),
   midi.NoteOnEvent(tick=60, channel=2, data=[47, 0]),
   midi.NoteOnEvent(tick=0, channel=2, data=[57, 127]),
   midi.NoteOnEvent(tick=30, channel=2, data=[57, 0]),
   midi.NoteOnEvent(tick=0, channel=2, data=[52, 127]),
   midi.NoteOnEvent(tick=30, channel=2, data=[52, 0]),
   midi.NoteOnEvent(tick=0, channel=2, data=[47, 127]),
   midi.NoteOnEvent(tick=60, channel=2, data=[47, 0]),
   midi.PitchWheelEvent(tick=0, channel=2, data=[0, 64]),
   midi.NoteOnEvent(tick=0, channel=2, data=[74, 127]),
   midi.PitchWheelEvent(tick=1, channel=2, data=[51, 70]),
   midi.PitchWheelEvent(tick=1, channel=2, data=[102, 76]),
   midi.PitchWheelEvent(tick=1, channel=2, data=[25, 83]),
   midi.PitchWheelEvent(tick=1, channel=2, data=[76, 89]),
   midi.PitchWheelEvent(tick=1, channel=2, data=[0, 96]),
   midi.PitchWheelEvent(tick=1, channel=2, data=[51, 102]),
   midi.PitchWheelEvent(tick=1, channel=2, data=[102, 108]),
   midi.PitchWheelEvent(tick=1, channel=2, data=[25, 115]),
   midi.PitchWheelEvent(tick=1, channel=2, data=[76, 121]),
   midi.PitchWheelEvent(tick=1, channel=2, data=[127, 127]),
   midi.NoteOnEvent(tick=110, channel=2, data=[74, 0]),
   midi.PitchWheelEvent(tick=0, channel=2, data=[0, 64]),
   midi.NoteOnEvent(tick=0, channel=2, data=[74, 127]),
   midi.PitchWheelEvent(tick=1, channel=2, data=[51, 70]),
   midi.PitchWheelEvent(tick=1, channel=2, data=[102, 76]),
   midi.PitchWheelEvent(tick=1, channel=2, data=[25, 83]),
   midi.PitchWheelEvent(tick=1, channel=2, data=[76, 89]),
   midi.PitchWheelEvent(tick=1, channel=2, data=[0, 96]),
   midi.PitchWheelEvent(tick=1, channel=2, data=[51, 102]),
   midi.PitchWheelEvent(tick=1, channel=2, data=[102, 108]),
   midi.PitchWheelEvent(tick=1, channel=2, data=[25, 115]),
   midi.PitchWheelEvent(tick=1, channel=2, data=[76, 121]),
   midi.PitchWheelEvent(tick=1, channel=2, data=[127, 127]),
   midi.NoteOnEvent(tick=110, channel=2, data=[74, 0]),
   midi.PitchWheelEvent(tick=0, channel=2, data=[0, 64]),
   midi.NoteOnEvent(tick=0, channel=2, data=[74, 127]),
   midi.PitchWheelEvent(tick=1, channel=2, data=[51, 70]),
   midi.PitchWheelEvent(tick=1, channel=2, data=[102, 76]),
   midi.PitchWheelEvent(tick=1, channel=2, data=[25, 83]),
   midi.PitchWheelEvent(tick=1, channel=2, data=[76, 89]),
   midi.PitchWheelEvent(tick=1, channel=2, data=[0, 96]),
   midi.PitchWheelEvent(tick=1, channel=2, data=[51, 102]),
   midi.PitchWheelEvent(tick=1, channel=2, data=[102, 108]),
   midi.PitchWheelEvent(tick=1, channel=2, data=[25, 115]),
   midi.PitchWheelEvent(tick=1, channel=2, data=[76, 121]),
   midi.PitchWheelEvent(tick=1, channel=2, data=[127, 127]),
   midi.PitchWheelEvent(tick=0, channel=2, data=[127, 127]),
   midi.PitchWheelEvent(tick=1, channel=2, data=[76, 121]),
   midi.PitchWheelEvent(tick=1, channel=2, data=[25, 115]),
   midi.PitchWheelEvent(tick=1, channel=2, data=[102, 108]),
   midi.PitchWheelEvent(tick=1, channel=2, data=[51, 102]),
   midi.PitchWheelEvent(tick=1, channel=2, data=[127, 95]),
   midi.PitchWheelEvent(tick=1, channel=2, data=[76, 89]),
   midi.PitchWheelEvent(tick=1, channel=2, data=[25, 83]),
   midi.PitchWheelEvent(tick=1, channel=2, data=[102, 76]),
   midi.PitchWheelEvent(tick=1, channel=2, data=[51, 70]),
   midi.PitchWheelEvent(tick=1, channel=2, data=[0, 64]),
   midi.NoteOnEvent(tick=20, channel=2, data=[74, 0]),
   midi.NoteOnEvent(tick=0, channel=2, data=[71, 127]),
   midi.NoteOnEvent(tick=20, channel=2, data=[71, 0]),
   midi.NoteOnEvent(tick=0, channel=2, data=[74, 127]),
   midi.NoteOnEvent(tick=30, channel=2, data=[74, 0]),
   midi.ControlChangeEvent(tick=0, channel=2, data=[1, 0]),
   midi.PitchWheelEvent(tick=0, channel=2, data=[0, 64]),
   midi.NoteOnEvent(tick=0, channel=2, data=[74, 127]),
   midi.ControlChangeEvent(tick=1, channel=2, data=[1, 6]),
   midi.PitchWheelEvent(tick=0, channel=2, data=[51, 70]),
   midi.ControlChangeEvent(tick=1, channel=2, data=[1, 13]),
   midi.PitchWheelEvent(tick=0, channel=2, data=[102, 76]),
   midi.ControlChangeEvent(tick=1, channel=2, data=[1, 19]),
   midi.PitchWheelEvent(tick=0, channel=2, data=[25, 83]),
   midi.ControlChangeEvent(tick=1, channel=2, data=[1, 26]),
   midi.PitchWheelEvent(tick=0, channel=2, data=[76, 89]),
   midi.ControlChangeEvent(tick=1, channel=2, data=[1, 32]),
   midi.PitchWheelEvent(tick=0, channel=2, data=[0, 96]),
   midi.ControlChangeEvent(tick=1, channel=2, data=[1, 38]),
   midi.PitchWheelEvent(tick=0, channel=2, data=[51, 102]),
   midi.ControlChangeEvent(tick=1, channel=2, data=[1, 45]),
   midi.PitchWheelEvent(tick=0, channel=2, data=[102, 108]),
   midi.ControlChangeEvent(tick=1, channel=2, data=[1, 51]),
   midi.PitchWheelEvent(tick=0, channel=2, data=[25, 115]),
   midi.ControlChangeEvent(tick=1, channel=2, data=[1, 58]),
   midi.PitchWheelEvent(tick=0, channel=2, data=[76, 121]),
   midi.ControlChangeEvent(tick=1, channel=2, data=[1, 64]),
   midi.PitchWheelEvent(tick=0, channel=2, data=[127, 127]),
   midi.PitchWheelEvent(tick=100, channel=2, data=[127, 127]),
   midi.PitchWheelEvent(tick=1, channel=2, data=[76, 121]),
   midi.PitchWheelEvent(tick=1, channel=2, data=[25, 115]),
   midi.PitchWheelEvent(tick=1, channel=2, data=[102, 108]),
   midi.PitchWheelEvent(tick=1, channel=2, data=[51, 102]),
   midi.PitchWheelEvent(tick=1, channel=2, data=[127, 95]),
   midi.PitchWheelEvent(tick=1, channel=2, data=[76, 89]),
   midi.PitchWheelEvent(tick=1, channel=2, data=[25, 83]),
   midi.PitchWheelEvent(tick=1, channel=2, data=[102, 76]),
   midi.PitchWheelEvent(tick=1, channel=2, data=[51, 70]),
   midi.PitchWheelEvent(tick=1, channel=2, data=[0, 64]),
   midi.NoteOnEvent(tick=30, channel=2, data=[74, 0]),
   midi.PitchWheelEvent(tick=0, channel=2, data=[0, 64]),
   midi.NoteOnEvent(tick=0, channel=2, data=[79, 127]),
   midi.PitchWheelEvent(tick=1, channel=2, data=[51, 70]),
   midi.PitchWheelEvent(tick=1, channel=2, data=[102, 76]),
   midi.PitchWheelEvent(tick=1, channel=2, data=[25, 83]),
   midi.PitchWheelEvent(tick=1, channel=2, data=[76, 89]),
   midi.PitchWheelEvent(tick=1, channel=2, data=[0, 96]),
   midi.PitchWheelEvent(tick=1, channel=2, data=[51, 102]),
   midi.PitchWheelEvent(tick=1, channel=2, data=[102, 108]),
   midi.PitchWheelEvent(tick=1, channel=2, data=[25, 115]),
   midi.PitchWheelEvent(tick=1, channel=2, data=[76, 121]),
   midi.PitchWheelEvent(tick=1, channel=2, data=[127, 127]),
   midi.PitchWheelEvent(tick=130, channel=2, data=[127, 127]),
   midi.PitchWheelEvent(tick=1, channel=2, data=[76, 121]),
   midi.PitchWheelEvent(tick=1, channel=2, data=[25, 115]),
   midi.PitchWheelEvent(tick=1, channel=2, data=[102, 108]),
   midi.PitchWheelEvent(tick=1, channel=2, data=[51, 102]),
   midi.PitchWheelEvent(tick=1, channel=2, data=[127, 95]),
   midi.PitchWheelEvent(tick=1, channel=2, data=[76, 89]),
   midi.PitchWheelEvent(tick=1, channel=2, data=[25, 83]),
   midi.PitchWheelEvent(tick=1, channel=2, data=[102, 76]),
   midi.PitchWheelEvent(tick=1, channel=2, data=[51, 70]),
   midi.PitchWheelEvent(tick=1, channel=2, data=[0, 64]),
   midi.NoteOnEvent(tick=30, channel=2, data=[79, 0]),
   midi.NoteOnEvent(tick=0, channel=2, data=[76, 127]),
   midi.NoteOnEvent(tick=30, channel=2, data=[76, 0]),
   midi.NoteOnEvent(tick=0, channel=2, data=[79, 127]),
   midi.NoteOnEvent(tick=30, channel=2, data=[79, 0]),
   midi.ControlChangeEvent(tick=0, channel=2, data=[1, 0]),
   midi.PitchWheelEvent(tick=0, channel=2, data=[0, 64]),
   midi.NoteOnEvent(tick=0, channel=2, data=[78, 127]),
   midi.ControlChangeEvent(tick=1, channel=2, data=[1, 6]),
   midi.PitchWheelEvent(tick=0, channel=2, data=[77, 65]),
   midi.ControlChangeEvent(tick=1, channel=2, data=[1, 13]),
   midi.PitchWheelEvent(tick=0, channel=2, data=[26, 67]),
   midi.ControlChangeEvent(tick=1, channel=2, data=[1, 19]),
   midi.PitchWheelEvent(tick=0, channel=2, data=[102, 68]),
   midi.ControlChangeEvent(tick=1, channel=2, data=[1, 26]),
   midi.PitchWheelEvent(tick=0, channel=2, data=[51, 70]),
   midi.ControlChangeEvent(tick=1, channel=2, data=[1, 32]),
   midi.PitchWheelEvent(tick=0, channel=2, data=[0, 72]),
   midi.ControlChangeEvent(tick=1, channel=2, data=[1, 38]),
   midi.PitchWheelEvent(tick=0, channel=2, data=[77, 73]),
   midi.ControlChangeEvent(tick=1, channel=2, data=[1, 45]),
   midi.PitchWheelEvent(tick=0, channel=2, data=[26, 75]),
   midi.ControlChangeEvent(tick=1, channel=2, data=[1, 51]),
   midi.PitchWheelEvent(tick=0, channel=2, data=[102, 76]),
   midi.ControlChangeEvent(tick=1, channel=2, data=[1, 58]),
   midi.PitchWheelEvent(tick=0, channel=2, data=[51, 78]),
   midi.ControlChangeEvent(tick=1, channel=2, data=[1, 64]),
   midi.PitchWheelEvent(tick=0, channel=2, data=[0, 80]),
   midi.NoteOnEvent(tick=170, channel=2, data=[78, 0]),
   midi.PitchWheelEvent(tick=0, channel=2, data=[0, 64]),
   midi.ControlChangeEvent(tick=0, channel=2, data=[1, 0]),
   midi.NoteOnEvent(tick=0, channel=2, data=[64, 127]),
   midi.NoteOnEvent(tick=30, channel=2, data=[64, 0]),
   midi.NoteOnEvent(tick=0, channel=2, data=[64, 127]),
   midi.NoteOnEvent(tick=30, channel=2, data=[64, 0]),
   midi.NoteOnEvent(tick=0, channel=2, data=[71, 127]),
   midi.NoteOnEvent(tick=30, channel=2, data=[71, 0]),
   midi.NoteOnEvent(tick=0, channel=2, data=[69, 127]),
   midi.NoteOnEvent(tick=30, channel=2, data=[69, 0]),
   midi.NoteOnEvent(tick=0, channel=2, data=[66, 127]),
   midi.NoteOnEvent(tick=30, channel=2, data=[66, 0]),
   midi.NoteOnEvent(tick=0, channel=2, data=[73, 127]),
   midi.NoteOnEvent(tick=60, channel=2, data=[73, 0]),
   midi.NoteOnEvent(tick=0, channel=2, data=[71, 127]),
   midi.NoteOnEvent(tick=30, channel=2, data=[71, 0]),
   midi.NoteOnEvent(tick=0, channel=2, data=[69, 127]),
   midi.NoteOnEvent(tick=30, channel=2, data=[69, 0]),
   midi.NoteOnEvent(tick=0, channel=2, data=[67, 127]),
   midi.NoteOnEvent(tick=30, channel=2, data=[67, 0]),
   midi.NoteOnEvent(tick=0, channel=2, data=[66, 127]),
   midi.NoteOnEvent(tick=30, channel=2, data=[66, 0]),
   midi.NoteOnEvent(tick=0, channel=2, data=[74, 127]),
   midi.NoteOnEvent(tick=30, channel=2, data=[74, 0]),
   midi.NoteOnEvent(tick=0, channel=2, data=[73, 127]),
   midi.NoteOnEvent(tick=30, channel=2, data=[73, 0]),
   midi.NoteOnEvent(tick=0, channel=2, data=[71, 127]),
   midi.NoteOnEvent(tick=30, channel=2, data=[71, 0]),
   midi.NoteOnEvent(tick=0, channel=2, data=[66, 127]),
   midi.NoteOnEvent(tick=15, channel=2, data=[66, 0]),
   midi.NoteOnEvent(tick=0, channel=2, data=[69, 127]),
   midi.NoteOnEvent(tick=15, channel=2, data=[69, 0]),
   midi.NoteOnEvent(tick=0, channel=2, data=[66, 127]),
   midi.NoteOnEvent(tick=90, channel=2, data=[66, 0]),
   midi.NoteOnEvent(tick=0, channel=2, data=[66, 127]),
   midi.NoteOnEvent(tick=30, channel=2, data=[66, 0]),
   midi.NoteOnEvent(tick=0, channel=2, data=[69, 127]),
   midi.NoteOnEvent(tick=15, channel=2, data=[69, 0]),
   midi.NoteOnEvent(tick=0, channel=2, data=[66, 127]),
   midi.NoteOnEvent(tick=15, channel=2, data=[66, 0]),
   midi.NoteOnEvent(tick=0, channel=2, data=[64, 127]),
   midi.NoteOnEvent(tick=30, channel=2, data=[64, 0]),
   midi.NoteOnEvent(tick=0, channel=2, data=[62, 127]),
   midi.NoteOnEvent(tick=30, channel=2, data=[62, 0]),
   midi.NoteOnEvent(tick=0, channel=2, data=[61, 127]),
   midi.NoteOnEvent(tick=30, channel=2, data=[61, 0]),
   midi.NoteOnEvent(tick=0, channel=2, data=[62, 127]),
   midi.NoteOnEvent(tick=30, channel=2, data=[62, 0]),
   midi.NoteOnEvent(tick=0, channel=2, data=[61, 127]),
   midi.NoteOnEvent(tick=30, channel=2, data=[61, 0]),
   midi.NoteOnEvent(tick=0, channel=2, data=[57, 127]),
   midi.NoteOnEvent(tick=30, channel=2, data=[57, 0]),
   midi.ControlChangeEvent(tick=0, channel=2, data=[1, 0]),
   midi.NoteOnEvent(tick=0, channel=2, data=[52, 127]),
   midi.ControlChangeEvent(tick=1, channel=2, data=[1, 6]),
   midi.ControlChangeEvent(tick=1, channel=2, data=[1, 13]),
   midi.ControlChangeEvent(tick=1, channel=2, data=[1, 19]),
   midi.ControlChangeEvent(tick=1, channel=2, data=[1, 26]),
   midi.ControlChangeEvent(tick=1, channel=2, data=[1, 32]),
   midi.ControlChangeEvent(tick=1, channel=2, data=[1, 38]),
   midi.ControlChangeEvent(tick=1, channel=2, data=[1, 45]),
   midi.ControlChangeEvent(tick=1, channel=2, data=[1, 51]),
   midi.ControlChangeEvent(tick=1, channel=2, data=[1, 58]),
   midi.ControlChangeEvent(tick=1, channel=2, data=[1, 64]),
   midi.ControlChangeEvent(tick=170, channel=2, data=[1, 0]),
   midi.NoteOnEvent(tick=60, channel=2, data=[52, 0]),
   midi.NoteOnEvent(tick=0, channel=2, data=[64, 127]),
   midi.NoteOnEvent(tick=30, channel=2, data=[64, 0]),
   midi.NoteOnEvent(tick=0, channel=2, data=[71, 127]),
   midi.NoteOnEvent(tick=0, channel=2, data=[66, 127]),
   midi.NoteOnEvent(tick=30, channel=2, data=[71, 0]),
   midi.NoteOnEvent(tick=0, channel=2, data=[66, 0]),
   midi.NoteOnEvent(tick=0, channel=2, data=[66, 127]),
   midi.NoteOnEvent(tick=0, channel=2, data=[71, 127]),
   midi.NoteOnEvent(tick=60, channel=2, data=[66, 0]),
   midi.NoteOnEvent(tick=0, channel=2, data=[71, 0]),
   midi.NoteOnEvent(tick=0, channel=2, data=[71, 127]),
   midi.NoteOnEvent(tick=0, channel=2, data=[66, 127]),
   midi.NoteOnEvent(tick=60, channel=2, data=[71, 0]),
   midi.NoteOnEvent(tick=0, channel=2, data=[66, 0]),
   midi.NoteOnEvent(tick=0, channel=2, data=[66, 127]),
   midi.NoteOnEvent(tick=30, channel=2, data=[66, 0]),
   midi.NoteOnEvent(tick=0, channel=2, data=[71, 127]),
   midi.NoteOnEvent(tick=0, channel=2, data=[66, 127]),
   midi.NoteOnEvent(tick=30, channel=2, data=[66, 0]),
   midi.NoteOnEvent(tick=30, channel=2, data=[71, 0]),
   midi.NoteOnEvent(tick=0, channel=2, data=[71, 127]),
   midi.NoteOnEvent(tick=0, channel=2, data=[66, 127]),
   midi.NoteOnEvent(tick=60, channel=2, data=[71, 0]),
   midi.NoteOnEvent(tick=0, channel=2, data=[66, 0]),
   midi.NoteOnEvent(tick=0, channel=2, data=[66, 127]),
   midi.NoteOnEvent(tick=30, channel=2, data=[66, 0]),
   midi.NoteOnEvent(tick=0, channel=2, data=[71, 127]),
   midi.NoteOnEvent(tick=0, channel=2, data=[66, 127]),
   midi.NoteOnEvent(tick=60, channel=2, data=[71, 0]),
   midi.NoteOnEvent(tick=0, channel=2, data=[66, 0]),
   midi.NoteOnEvent(tick=0, channel=2, data=[71, 127]),
   midi.NoteOnEvent(tick=0, channel=2, data=[66, 127]),
   midi.NoteOnEvent(tick=30, channel=2, data=[71, 0]),
   midi.NoteOnEvent(tick=0, channel=2, data=[66, 0]),
   midi.NoteOnEvent(tick=0, channel=2, data=[71, 127]),
   midi.NoteOnEvent(tick=0, channel=2, data=[66, 127]),
   midi.NoteOnEvent(tick=30, channel=2, data=[71, 0]),
   midi.NoteOnEvent(tick=0, channel=2, data=[66, 0]),
   midi.PitchWheelEvent(tick=0, channel=2, data=[0, 64]),
   midi.NoteOnEvent(tick=0, channel=2, data=[69, 127]),
   midi.PitchWheelEvent(tick=1, channel=2, data=[51, 70]),
   midi.PitchWheelEvent(tick=1, channel=2, data=[102, 76]),
   midi.PitchWheelEvent(tick=1, channel=2, data=[25, 83]),
   midi.PitchWheelEvent(tick=1, channel=2, data=[76, 89]),
   midi.PitchWheelEvent(tick=1, channel=2, data=[0, 96]),
   midi.PitchWheelEvent(tick=1, channel=2, data=[51, 102]),
   midi.PitchWheelEvent(tick=1, channel=2, data=[102, 108]),
   midi.PitchWheelEvent(tick=1, channel=2, data=[25, 115]),
   midi.PitchWheelEvent(tick=1, channel=2, data=[76, 121]),
   midi.PitchWheelEvent(tick=1, channel=2, data=[127, 127]),
   midi.ControlChangeEvent(tick=50, channel=2, data=[1, 0]),
   midi.ControlChangeEvent(tick=1, channel=2, data=[1, 6]),
   midi.ControlChangeEvent(tick=1, channel=2, data=[1, 13]),
   midi.ControlChangeEvent(tick=1, channel=2, data=[1, 19]),
   midi.ControlChangeEvent(tick=1, channel=2, data=[1, 26]),
   midi.ControlChangeEvent(tick=1, channel=2, data=[1, 32]),
   midi.ControlChangeEvent(tick=1, channel=2, data=[1, 38]),
   midi.ControlChangeEvent(tick=1, channel=2, data=[1, 45]),
   midi.ControlChangeEvent(tick=1, channel=2, data=[1, 51]),
   midi.ControlChangeEvent(tick=1, channel=2, data=[1, 58]),
   midi.ControlChangeEvent(tick=1, channel=2, data=[1, 64]),
   midi.NoteOnEvent(tick=50, channel=2, data=[69, 0]),
   midi.ControlChangeEvent(tick=0, channel=2, data=[1, 0]),
   midi.PitchWheelEvent(tick=0, channel=2, data=[0, 64]),
   midi.NoteOnEvent(tick=0, channel=2, data=[69, 127]),
   midi.NoteOnEvent(tick=20, channel=2, data=[69, 0]),
   midi.NoteOnEvent(tick=0, channel=2, data=[66, 127]),
   midi.NoteOnEvent(tick=20, channel=2, data=[66, 0]),
   midi.NoteOnEvent(tick=0, channel=2, data=[64, 127]),
   midi.NoteOnEvent(tick=20, channel=2, data=[64, 0]),
   midi.NoteOnEvent(tick=0, channel=2, data=[62, 127]),
   midi.NoteOnEvent(tick=30, channel=2, data=[62, 0]),
   midi.NoteOnEvent(tick=0, channel=2, data=[59, 127]),
   midi.NoteOnEvent(tick=30, channel=2, data=[59, 0]),
   midi.NoteOnEvent(tick=0, channel=2, data=[62, 127]),
   midi.NoteOnEvent(tick=30, channel=2, data=[62, 0]),
   midi.PitchWheelEvent(tick=0, channel=2, data=[0, 64]),
   midi.NoteOnEvent(tick=0, channel=2, data=[64, 127]),
   midi.PitchWheelEvent(tick=1, channel=2, data=[34, 68]),
   midi.PitchWheelEvent(tick=1, channel=2, data=[68, 72]),
   midi.PitchWheelEvent(tick=1, channel=2, data=[102, 76]),
   midi.PitchWheelEvent(tick=1, channel=2, data=[8, 81]),
   midi.PitchWheelEvent(tick=1, channel=2, data=[42, 85]),
   midi.PitchWheelEvent(tick=1, channel=2, data=[76, 89]),
   midi.PitchWheelEvent(tick=1, channel=2, data=[110, 93]),
   midi.PitchWheelEvent(tick=1, channel=2, data=[17, 98]),
   midi.PitchWheelEvent(tick=1, channel=2, data=[51, 102]),
   midi.PitchWheelEvent(tick=1, channel=2, data=[85, 106]),
   midi.PitchWheelEvent(tick=1, channel=2, data=[119, 110]),
   midi.PitchWheelEvent(tick=1, channel=2, data=[25, 115]),
   midi.PitchWheelEvent(tick=1, channel=2, data=[59, 119]),
   midi.PitchWheelEvent(tick=1, channel=2, data=[93, 123]),
   midi.PitchWheelEvent(tick=1, channel=2, data=[127, 127]),
   midi.PitchWheelEvent(tick=0, channel=2, data=[127, 127]),
   midi.PitchWheelEvent(tick=1, channel=2, data=[93, 123]),
   midi.PitchWheelEvent(tick=1, channel=2, data=[59, 119]),
   midi.PitchWheelEvent(tick=1, channel=2, data=[25, 115]),
   midi.PitchWheelEvent(tick=1, channel=2, data=[119, 110]),
   midi.PitchWheelEvent(tick=1, channel=2, data=[85, 106]),
   midi.PitchWheelEvent(tick=1, channel=2, data=[51, 102]),
   midi.PitchWheelEvent(tick=1, channel=2, data=[17, 98]),
   midi.PitchWheelEvent(tick=1, channel=2, data=[110, 93]),
   midi.PitchWheelEvent(tick=1, channel=2, data=[76, 89]),
   midi.PitchWheelEvent(tick=1, channel=2, data=[42, 85]),
   midi.PitchWheelEvent(tick=1, channel=2, data=[8, 81]),
   midi.PitchWheelEvent(tick=1, channel=2, data=[102, 76]),
   midi.PitchWheelEvent(tick=1, channel=2, data=[68, 72]),
   midi.PitchWheelEvent(tick=1, channel=2, data=[34, 68]),
   midi.PitchWheelEvent(tick=1, channel=2, data=[0, 64]),
   midi.NoteOnEvent(tick=20, channel=2, data=[64, 0]),
   midi.NoteOnEvent(tick=0, channel=2, data=[62, 127]),
   midi.NoteOnEvent(tick=20, channel=2, data=[62, 0]),
   midi.NoteOnEvent(tick=0, channel=2, data=[59, 127]),
   midi.NoteOnEvent(tick=20, channel=2, data=[59, 0]),
   midi.ControlChangeEvent(tick=0, channel=2, data=[1, 0]),
   midi.NoteOnEvent(tick=0, channel=2, data=[62, 127]),
   midi.ControlChangeEvent(tick=1, channel=2, data=[1, 6]),
   midi.ControlChangeEvent(tick=1, channel=2, data=[1, 13]),
   midi.ControlChangeEvent(tick=1, channel=2, data=[1, 19]),
   midi.ControlChangeEvent(tick=1, channel=2, data=[1, 26]),
   midi.ControlChangeEvent(tick=1, channel=2, data=[1, 32]),
   midi.ControlChangeEvent(tick=1, channel=2, data=[1, 38]),
   midi.ControlChangeEvent(tick=1, channel=2, data=[1, 45]),
   midi.ControlChangeEvent(tick=1, channel=2, data=[1, 51]),
   midi.ControlChangeEvent(tick=1, channel=2, data=[1, 58]),
   midi.ControlChangeEvent(tick=1, channel=2, data=[1, 64]),
   midi.NoteOnEvent(tick=50, channel=2, data=[62, 0]),
   midi.ControlChangeEvent(tick=0, channel=2, data=[1, 0]),
   midi.NoteOnEvent(tick=0, channel=2, data=[62, 127]),
   midi.NoteOnEvent(tick=30, channel=2, data=[62, 0]),
   midi.NoteOnEvent(tick=0, channel=2, data=[62, 127]),
   midi.NoteOnEvent(tick=30, channel=2, data=[62, 0]),
   midi.NoteOnEvent(tick=0, channel=2, data=[66, 127]),
   midi.NoteOnEvent(tick=30, channel=2, data=[66, 0]),
   midi.NoteOnEvent(tick=0, channel=2, data=[67, 127]),
   midi.NoteOnEvent(tick=45, channel=2, data=[67, 0]),
   midi.NoteOnEvent(tick=0, channel=2, data=[66, 127]),
   midi.NoteOnEvent(tick=30, channel=2, data=[66, 0]),
   midi.NoteOnEvent(tick=0, channel=2, data=[64, 127]),
   midi.NoteOnEvent(tick=15, channel=2, data=[64, 0]),
   midi.NoteOnEvent(tick=0, channel=2, data=[66, 127]),
   midi.NoteOnEvent(tick=30, channel=2, data=[66, 0]),
   midi.NoteOnEvent(tick=0, channel=2, data=[67, 127]),
   midi.NoteOnEvent(tick=30, channel=2, data=[67, 0]),
   midi.NoteOnEvent(tick=0, channel=2, data=[66, 127]),
   midi.NoteOnEvent(tick=15, channel=2, data=[66, 0]),
   midi.NoteOnEvent(tick=0, channel=2, data=[67, 127]),
   midi.NoteOnEvent(tick=15, channel=2, data=[67, 0]),
   midi.NoteOnEvent(tick=0, channel=2, data=[66, 127]),
   midi.NoteOnEvent(tick=15, channel=2, data=[66, 0]),
   midi.NoteOnEvent(tick=0, channel=2, data=[64, 127]),
   midi.NoteOnEvent(tick=15, channel=2, data=[64, 0]),
   midi.NoteOnEvent(tick=0, channel=2, data=[66, 127]),
   midi.NoteOnEvent(tick=30, channel=2, data=[66, 0]),
   midi.NoteOnEvent(tick=0, channel=2, data=[67, 127]),
   midi.NoteOnEvent(tick=30, channel=2, data=[67, 0]),
   midi.NoteOnEvent(tick=0, channel=2, data=[69, 127]),
   midi.NoteOnEvent(tick=30, channel=2, data=[69, 0]),
   midi.NoteOnEvent(tick=0, channel=2, data=[71, 127]),
   midi.NoteOnEvent(tick=30, channel=2, data=[71, 0]),
   midi.NoteOnEvent(tick=0, channel=2, data=[72, 127]),
   midi.NoteOnEvent(tick=20, channel=2, data=[72, 0]),
   midi.NoteOnEvent(tick=0, channel=2, data=[71, 127]),
   midi.NoteOnEvent(tick=20, channel=2, data=[71, 0]),
   midi.NoteOnEvent(tick=0, channel=2, data=[69, 127]),
   midi.NoteOnEvent(tick=20, channel=2, data=[69, 0]),
   midi.NoteOnEvent(tick=0, channel=2, data=[71, 127]),
   midi.NoteOnEvent(tick=30, channel=2, data=[71, 0]),
   midi.NoteOnEvent(tick=0, channel=2, data=[72, 127]),
   midi.NoteOnEvent(tick=30, channel=2, data=[72, 0]),
   midi.NoteOnEvent(tick=0, channel=2, data=[72, 127]),
   midi.NoteOnEvent(tick=30, channel=2, data=[72, 0]),
   midi.NoteOnEvent(tick=0, channel=2, data=[74, 127]),
   midi.NoteOnEvent(tick=30, channel=2, data=[74, 0]),
   midi.NoteOnEvent(tick=0, channel=2, data=[74, 127]),
   midi.NoteOnEvent(tick=30, channel=2, data=[74, 0]),
   midi.NoteOnEvent(tick=0, channel=2, data=[76, 127]),
   midi.NoteOnEvent(tick=30, channel=2, data=[76, 0]),
   midi.NoteOnEvent(tick=0, channel=2, data=[76, 127]),
   midi.NoteOnEvent(tick=30, channel=2, data=[76, 0]),
   midi.NoteOnEvent(tick=0, channel=2, data=[78, 127]),
   midi.NoteOnEvent(tick=30, channel=2, data=[78, 0]),
   midi.NoteOnEvent(tick=0, channel=2, data=[78, 127]),
   midi.NoteOnEvent(tick=30, channel=2, data=[78, 0]),
   midi.NoteOnEvent(tick=0, channel=2, data=[79, 127]),
   midi.NoteOnEvent(tick=30, channel=2, data=[79, 0]),
   midi.ControlChangeEvent(tick=0, channel=2, data=[1, 0]),
   midi.NoteOnEvent(tick=0, channel=2, data=[79, 127]),
   midi.ControlChangeEvent(tick=1, channel=2, data=[1, 6]),
   midi.ControlChangeEvent(tick=1, channel=2, data=[1, 13]),
   midi.ControlChangeEvent(tick=1, channel=2, data=[1, 19]),
   midi.ControlChangeEvent(tick=1, channel=2, data=[1, 26]),
   midi.ControlChangeEvent(tick=1, channel=2, data=[1, 32]),
   midi.ControlChangeEvent(tick=1, channel=2, data=[1, 38]),
   midi.ControlChangeEvent(tick=1, channel=2, data=[1, 45]),
   midi.ControlChangeEvent(tick=1, channel=2, data=[1, 51]),
   midi.ControlChangeEvent(tick=1, channel=2, data=[1, 58]),
   midi.ControlChangeEvent(tick=1, channel=2, data=[1, 64]),
   midi.ControlChangeEvent(tick=80, channel=2, data=[1, 0]),
   midi.NoteOnEvent(tick=0, channel=2, data=[84, 127]),
   midi.NoteOnEvent(tick=30, channel=2, data=[84, 0]),
   midi.NoteOnEvent(tick=60, channel=2, data=[79, 0]),
   midi.PitchWheelEvent(tick=60, channel=2, data=[0, 64]),
   midi.NoteOnEvent(tick=0, channel=2, data=[81, 127]),
   midi.PitchWheelEvent(tick=1, channel=2, data=[51, 70]),
   midi.PitchWheelEvent(tick=1, channel=2, data=[102, 76]),
   midi.PitchWheelEvent(tick=1, channel=2, data=[25, 83]),
   midi.PitchWheelEvent(tick=1, channel=2, data=[76, 89]),
   midi.PitchWheelEvent(tick=1, channel=2, data=[0, 96]),
   midi.PitchWheelEvent(tick=1, channel=2, data=[51, 102]),
   midi.PitchWheelEvent(tick=1, channel=2, data=[102, 108]),
   midi.PitchWheelEvent(tick=1, channel=2, data=[25, 115]),
   midi.PitchWheelEvent(tick=1, channel=2, data=[76, 121]),
   midi.PitchWheelEvent(tick=1, channel=2, data=[127, 127]),
   midi.NoteOnEvent(tick=110, channel=2, data=[81, 0]),
   midi.PitchWheelEvent(tick=0, channel=2, data=[0, 64]),
   midi.NoteOnEvent(tick=0, channel=2, data=[81, 127]),
   midi.PitchWheelEvent(tick=1, channel=2, data=[17, 66]),
   midi.PitchWheelEvent(tick=1, channel=2, data=[34, 68]),
   midi.PitchWheelEvent(tick=1, channel=2, data=[51, 70]),
   midi.PitchWheelEvent(tick=1, channel=2, data=[68, 72]),
   midi.PitchWheelEvent(tick=1, channel=2, data=[85, 74]),
   midi.PitchWheelEvent(tick=1, channel=2, data=[102, 76]),
   midi.PitchWheelEvent(tick=1, channel=2, data=[119, 78]),
   midi.PitchWheelEvent(tick=1, channel=2, data=[8, 81]),
   midi.PitchWheelEvent(tick=1, channel=2, data=[25, 83]),
   midi.PitchWheelEvent(tick=1, channel=2, data=[42, 85]),
   midi.PitchWheelEvent(tick=1, channel=2, data=[59, 87]),
   midi.PitchWheelEvent(tick=1, channel=2, data=[76, 89]),
   midi.PitchWheelEvent(tick=1, channel=2, data=[93, 91]),
   midi.PitchWheelEvent(tick=1, channel=2, data=[110, 93]),
   midi.PitchWheelEvent(tick=1, channel=2, data=[0, 96]),
   midi.PitchWheelEvent(tick=1, channel=2, data=[17, 98]),
   midi.PitchWheelEvent(tick=1, channel=2, data=[34, 100]),
   midi.PitchWheelEvent(tick=1, channel=2, data=[51, 102]),
   midi.PitchWheelEvent(tick=1, channel=2, data=[68, 104]),
   midi.PitchWheelEvent(tick=1, channel=2, data=[85, 106]),
   midi.PitchWheelEvent(tick=1, channel=2, data=[102, 108]),
   midi.PitchWheelEvent(tick=1, channel=2, data=[119, 110]),
   midi.PitchWheelEvent(tick=1, channel=2, data=[8, 113]),
   midi.PitchWheelEvent(tick=1, channel=2, data=[25, 115]),
   midi.PitchWheelEvent(tick=1, channel=2, data=[42, 117]),
   midi.PitchWheelEvent(tick=1, channel=2, data=[59, 119]),
   midi.PitchWheelEvent(tick=1, channel=2, data=[76, 121]),
   midi.PitchWheelEvent(tick=1, channel=2, data=[93, 123]),
   midi.PitchWheelEvent(tick=1, channel=2, data=[110, 125]),
   midi.PitchWheelEvent(tick=1, channel=2, data=[127, 127]),
   midi.PitchWheelEvent(tick=0, channel=2, data=[127, 127]),
   midi.PitchWheelEvent(tick=1, channel=2, data=[110, 125]),
   midi.PitchWheelEvent(tick=1, channel=2, data=[93, 123]),
   midi.PitchWheelEvent(tick=1, channel=2, data=[76, 121]),
   midi.PitchWheelEvent(tick=1, channel=2, data=[59, 119]),
   midi.PitchWheelEvent(tick=1, channel=2, data=[42, 117]),
   midi.PitchWheelEvent(tick=1, channel=2, data=[25, 115]),
   midi.PitchWheelEvent(tick=1, channel=2, data=[8, 113]),
   midi.PitchWheelEvent(tick=1, channel=2, data=[119, 110]),
   midi.PitchWheelEvent(tick=1, channel=2, data=[102, 108]),
   midi.PitchWheelEvent(tick=1, channel=2, data=[85, 106]),
   midi.PitchWheelEvent(tick=1, channel=2, data=[68, 104]),
   midi.PitchWheelEvent(tick=1, channel=2, data=[51, 102]),
   midi.PitchWheelEvent(tick=1, channel=2, data=[34, 100]),
   midi.PitchWheelEvent(tick=1, channel=2, data=[17, 98]),
   midi.PitchWheelEvent(tick=1, channel=2, data=[127, 95]),
   midi.PitchWheelEvent(tick=1, channel=2, data=[110, 93]),
   midi.PitchWheelEvent(tick=1, channel=2, data=[93, 91]),
   midi.PitchWheelEvent(tick=1, channel=2, data=[76, 89]),
   midi.PitchWheelEvent(tick=1, channel=2, data=[59, 87]),
   midi.PitchWheelEvent(tick=1, channel=2, data=[42, 85]),
   midi.PitchWheelEvent(tick=1, channel=2, data=[25, 83]),
   midi.PitchWheelEvent(tick=1, channel=2, data=[8, 81]),
   midi.PitchWheelEvent(tick=1, channel=2, data=[119, 78]),
   midi.PitchWheelEvent(tick=1, channel=2, data=[102, 76]),
   midi.PitchWheelEvent(tick=1, channel=2, data=[85, 74]),
   midi.PitchWheelEvent(tick=1, channel=2, data=[68, 72]),
   midi.PitchWheelEvent(tick=1, channel=2, data=[51, 70]),
   midi.PitchWheelEvent(tick=1, channel=2, data=[34, 68]),
   midi.PitchWheelEvent(tick=1, channel=2, data=[17, 66]),
   midi.PitchWheelEvent(tick=1, channel=2, data=[0, 64]),
   midi.NoteOnEvent(tick=30, channel=2, data=[81, 0]),
   midi.NoteOnEvent(tick=0, channel=2, data=[79, 127]),
   midi.NoteOnEvent(tick=30, channel=2, data=[79, 0]),
   midi.NoteOnEvent(tick=0, channel=2, data=[81, 127]),
   midi.NoteOnEvent(tick=15, channel=2, data=[81, 0]),
   midi.NoteOnEvent(tick=0, channel=2, data=[79, 127]),
   midi.NoteOnEvent(tick=15, channel=2, data=[79, 0]),
   midi.NoteOnEvent(tick=0, channel=2, data=[78, 127]),
   midi.NoteOnEvent(tick=30, channel=2, data=[78, 0]),
   midi.NoteOnEvent(tick=0, channel=2, data=[79, 127]),
   midi.NoteOnEvent(tick=15, channel=2, data=[79, 0]),
   midi.NoteOnEvent(tick=0, channel=2, data=[78, 127]),
   midi.NoteOnEvent(tick=15, channel=2, data=[78, 0]),
   midi.NoteOnEvent(tick=0, channel=2, data=[76, 127]),
   midi.NoteOnEvent(tick=30, channel=2, data=[76, 0]),
   midi.NoteOnEvent(tick=0, channel=2, data=[78, 127]),
   midi.NoteOnEvent(tick=15, channel=2, data=[78, 0]),
   midi.NoteOnEvent(tick=0, channel=2, data=[76, 127]),
   midi.NoteOnEvent(tick=15, channel=2, data=[76, 0]),
   midi.NoteOnEvent(tick=0, channel=2, data=[74, 127]),
   midi.NoteOnEvent(tick=15, channel=2, data=[74, 0]),
   midi.NoteOnEvent(tick=0, channel=2, data=[74, 127]),
   midi.NoteOnEvent(tick=15, channel=2, data=[74, 0]),
   midi.NoteOnEvent(tick=0, channel=2, data=[73, 127]),
   midi.NoteOnEvent(tick=20, channel=2, data=[73, 0]),
   midi.NoteOnEvent(tick=0, channel=2, data=[71, 127]),
   midi.NoteOnEvent(tick=20, channel=2, data=[71, 0]),
   midi.NoteOnEvent(tick=0, channel=2, data=[72, 127]),
   midi.NoteOnEvent(tick=20, channel=2, data=[72, 0]),
   midi.NoteOnEvent(tick=0, channel=2, data=[71, 127]),
   midi.NoteOnEvent(tick=20, channel=2, data=[71, 0]),
   midi.NoteOnEvent(tick=0, channel=2, data=[69, 127]),
   midi.NoteOnEvent(tick=20, channel=2, data=[69, 0]),
   midi.NoteOnEvent(tick=0, channel=2, data=[71, 127]),
   midi.NoteOnEvent(tick=20, channel=2, data=[71, 0]),
   midi.NoteOnEvent(tick=0, channel=2, data=[69, 127]),
   midi.NoteOnEvent(tick=20, channel=2, data=[69, 0]),
   midi.NoteOnEvent(tick=0, channel=2, data=[67, 127]),
   midi.NoteOnEvent(tick=20, channel=2, data=[67, 0]),
   midi.NoteOnEvent(tick=0, channel=2, data=[69, 127]),
   midi.NoteOnEvent(tick=20, channel=2, data=[69, 0]),
   midi.NoteOnEvent(tick=0, channel=2, data=[67, 127]),
   midi.NoteOnEvent(tick=20, channel=2, data=[67, 0]),
   midi.NoteOnEvent(tick=0, channel=2, data=[64, 127]),
   midi.NoteOnEvent(tick=20, channel=2, data=[64, 0]),
   midi.NoteOnEvent(tick=0, channel=2, data=[67, 127]),
   midi.NoteOnEvent(tick=20, channel=2, data=[67, 0]),
   midi.NoteOnEvent(tick=0, channel=2, data=[64, 127]),
   midi.NoteOnEvent(tick=30, channel=2, data=[64, 0]),
   midi.NoteOnEvent(tick=0, channel=2, data=[62, 127]),
   midi.NoteOnEvent(tick=30, channel=2, data=[62, 0]),
   midi.NoteOnEvent(tick=0, channel=2, data=[64, 127]),
   midi.NoteOnEvent(tick=15, channel=2, data=[64, 0]),
   midi.NoteOnEvent(tick=0, channel=2, data=[62, 127]),
   midi.NoteOnEvent(tick=15, channel=2, data=[62, 0]),
   midi.NoteOnEvent(tick=0, channel=2, data=[59, 127]),
   midi.NoteOnEvent(tick=15, channel=2, data=[59, 0]),
   midi.NoteOnEvent(tick=0, channel=2, data=[57, 127]),
   midi.NoteOnEvent(tick=15, channel=2, data=[57, 0]),
   midi.NoteOnEvent(tick=0, channel=2, data=[55, 127]),
   midi.NoteOnEvent(tick=30, channel=2, data=[55, 0]),
   midi.NoteOnEvent(tick=0, channel=2, data=[52, 127]),
   midi.NoteOnEvent(tick=30, channel=2, data=[52, 0]),
   midi.NoteOnEvent(tick=0, channel=2, data=[50, 127]),
   midi.NoteOnEvent(tick=60, channel=2, data=[50, 0]),
   midi.NoteOnEvent(tick=0, channel=2, data=[47, 127]),
   midi.NoteOnEvent(tick=30, channel=2, data=[47, 0]),
   midi.NoteOnEvent(tick=0, channel=2, data=[47, 127]),
   midi.NoteOnEvent(tick=30, channel=2, data=[47, 0]),
   midi.NoteOnEvent(tick=0, channel=2, data=[59, 127]),
   midi.NoteOnEvent(tick=20, channel=2, data=[59, 0]),
   midi.NoteOnEvent(tick=0, channel=2, data=[57, 127]),
   midi.NoteOnEvent(tick=20, channel=2, data=[57, 0]),
   midi.NoteOnEvent(tick=0, channel=2, data=[59, 127]),
   midi.NoteOnEvent(tick=20, channel=2, data=[59, 0]),
   midi.NoteOnEvent(tick=0, channel=2, data=[62, 127]),
   midi.NoteOnEvent(tick=20, channel=2, data=[62, 0]),
   midi.NoteOnEvent(tick=0, channel=2, data=[59, 127]),
   midi.NoteOnEvent(tick=20, channel=2, data=[59, 0]),
   midi.NoteOnEvent(tick=0, channel=2, data=[62, 127]),
   midi.NoteOnEvent(tick=20, channel=2, data=[62, 0]),
   midi.NoteOnEvent(tick=0, channel=2, data=[64, 127]),
   midi.NoteOnEvent(tick=20, channel=2, data=[64, 0]),
   midi.NoteOnEvent(tick=0, channel=2, data=[62, 127]),
   midi.NoteOnEvent(tick=20, channel=2, data=[62, 0]),
   midi.NoteOnEvent(tick=0, channel=2, data=[64, 127]),
   midi.NoteOnEvent(tick=20, channel=2, data=[64, 0]),
   midi.NoteOnEvent(tick=0, channel=2, data=[67, 127]),
   midi.NoteOnEvent(tick=20, channel=2, data=[67, 0]),
   midi.NoteOnEvent(tick=0, channel=2, data=[64, 127]),
   midi.NoteOnEvent(tick=20, channel=2, data=[64, 0]),
   midi.NoteOnEvent(tick=0, channel=2, data=[67, 127]),
   midi.NoteOnEvent(tick=20, channel=2, data=[67, 0]),
   midi.NoteOnEvent(tick=0, channel=2, data=[69, 127]),
   midi.NoteOnEvent(tick=20, channel=2, data=[69, 0]),
   midi.NoteOnEvent(tick=0, channel=2, data=[67, 127]),
   midi.NoteOnEvent(tick=20, channel=2, data=[67, 0]),
   midi.NoteOnEvent(tick=0, channel=2, data=[69, 127]),
   midi.NoteOnEvent(tick=20, channel=2, data=[69, 0]),
   midi.NoteOnEvent(tick=0, channel=2, data=[71, 127]),
   midi.NoteOnEvent(tick=20, channel=2, data=[71, 0]),
   midi.NoteOnEvent(tick=0, channel=2, data=[69, 127]),
   midi.NoteOnEvent(tick=20, channel=2, data=[69, 0]),
   midi.NoteOnEvent(tick=0, channel=2, data=[71, 127]),
   midi.NoteOnEvent(tick=20, channel=2, data=[71, 0]),
   midi.NoteOnEvent(tick=0, channel=2, data=[74, 127]),
   midi.NoteOnEvent(tick=20, channel=2, data=[74, 0]),
   midi.NoteOnEvent(tick=0, channel=2, data=[71, 127]),
   midi.NoteOnEvent(tick=20, channel=2, data=[71, 0]),
   midi.NoteOnEvent(tick=0, channel=2, data=[74, 127]),
   midi.NoteOnEvent(tick=20, channel=2, data=[74, 0]),
   midi.NoteOnEvent(tick=0, channel=2, data=[76, 127]),
   midi.NoteOnEvent(tick=20, channel=2, data=[76, 0]),
   midi.NoteOnEvent(tick=0, channel=2, data=[74, 127]),
   midi.NoteOnEvent(tick=20, channel=2, data=[74, 0]),
   midi.NoteOnEvent(tick=0, channel=2, data=[76, 127]),
   midi.NoteOnEvent(tick=20, channel=2, data=[76, 0]),
   midi.NoteOnEvent(tick=0, channel=2, data=[79, 127]),
   midi.NoteOnEvent(tick=15, channel=2, data=[79, 0]),
   midi.NoteOnEvent(tick=0, channel=2, data=[76, 127]),
   midi.NoteOnEvent(tick=15, channel=2, data=[76, 0]),
   midi.NoteOnEvent(tick=0, channel=2, data=[76, 127]),
   midi.NoteOnEvent(tick=15, channel=2, data=[76, 0]),
   midi.NoteOnEvent(tick=0, channel=2, data=[76, 127]),
   midi.NoteOnEvent(tick=15, channel=2, data=[76, 0]),
   midi.NoteOnEvent(tick=0, channel=2, data=[79, 127]),
   midi.NoteOnEvent(tick=12, channel=2, data=[79, 0]),
   midi.NoteOnEvent(tick=0, channel=2, data=[76, 127]),
   midi.NoteOnEvent(tick=12, channel=2, data=[76, 0]),
   midi.NoteOnEvent(tick=0, channel=2, data=[76, 127]),
   midi.NoteOnEvent(tick=12, channel=2, data=[76, 0]),
   midi.NoteOnEvent(tick=0, channel=2, data=[76, 127]),
   midi.NoteOnEvent(tick=12, channel=2, data=[76, 0]),
   midi.NoteOnEvent(tick=0, channel=2, data=[76, 127]),
   midi.NoteOnEvent(tick=12, channel=2, data=[76, 0]),
   midi.NoteOnEvent(tick=0, channel=2, data=[79, 127]),
   midi.NoteOnEvent(tick=12, channel=2, data=[79, 0]),
   midi.NoteOnEvent(tick=0, channel=2, data=[76, 127]),
   midi.NoteOnEvent(tick=12, channel=2, data=[76, 0]),
   midi.NoteOnEvent(tick=0, channel=2, data=[76, 127]),
   midi.NoteOnEvent(tick=12, channel=2, data=[76, 0]),
   midi.NoteOnEvent(tick=0, channel=2, data=[76, 127]),
   midi.NoteOnEvent(tick=12, channel=2, data=[76, 0]),
   midi.NoteOnEvent(tick=0, channel=2, data=[76, 127]),
   midi.NoteOnEvent(tick=12, channel=2, data=[76, 0]),
   midi.NoteOnEvent(tick=0, channel=2, data=[76, 127]),
   midi.NoteOnEvent(tick=15, channel=2, data=[76, 0]),
   midi.NoteOnEvent(tick=0, channel=2, data=[76, 127]),
   midi.NoteOnEvent(tick=15, channel=2, data=[76, 0]),
   midi.NoteOnEvent(tick=0, channel=2, data=[76, 127]),
   midi.NoteOnEvent(tick=15, channel=2, data=[76, 0]),
   midi.NoteOnEvent(tick=0, channel=2, data=[76, 127]),
   midi.NoteOnEvent(tick=15, channel=2, data=[76, 0]),
   midi.NoteOnEvent(tick=0, channel=2, data=[79, 127]),
   midi.NoteOnEvent(tick=15, channel=2, data=[79, 0]),
   midi.NoteOnEvent(tick=0, channel=2, data=[76, 127]),
   midi.NoteOnEvent(tick=15, channel=2, data=[76, 0]),
   midi.NoteOnEvent(tick=0, channel=2, data=[76, 127]),
   midi.NoteOnEvent(tick=15, channel=2, data=[76, 0]),
   midi.NoteOnEvent(tick=0, channel=2, data=[76, 127]),
   midi.NoteOnEvent(tick=15, channel=2, data=[76, 0]),
   midi.NoteOnEvent(tick=0, channel=2, data=[76, 127]),
   midi.NoteOnEvent(tick=15, channel=2, data=[76, 0]),
   midi.NoteOnEvent(tick=0, channel=2, data=[76, 127]),
   midi.NoteOnEvent(tick=15, channel=2, data=[76, 0]),
   midi.NoteOnEvent(tick=0, channel=2, data=[76, 127]),
   midi.NoteOnEvent(tick=30, channel=2, data=[76, 0]),
   midi.PitchWheelEvent(tick=0, channel=2, data=[0, 64]),
   midi.NoteOnEvent(tick=0, channel=2, data=[79, 127]),
   midi.PitchWheelEvent(tick=1, channel=2, data=[51, 70]),
   midi.PitchWheelEvent(tick=1, channel=2, data=[102, 76]),
   midi.PitchWheelEvent(tick=1, channel=2, data=[25, 83]),
   midi.PitchWheelEvent(tick=1, channel=2, data=[76, 89]),
   midi.PitchWheelEvent(tick=1, channel=2, data=[0, 96]),
   midi.PitchWheelEvent(tick=1, channel=2, data=[51, 102]),
   midi.PitchWheelEvent(tick=1, channel=2, data=[102, 108]),
   midi.PitchWheelEvent(tick=1, channel=2, data=[25, 115]),
   midi.PitchWheelEvent(tick=1, channel=2, data=[76, 121]),
   midi.PitchWheelEvent(tick=1, channel=2, data=[127, 127]),
   midi.NoteOnEvent(tick=50, channel=2, data=[79, 0]),
   midi.PitchWheelEvent(tick=0, channel=2, data=[0, 64]),
   midi.NoteOnEvent(tick=0, channel=2, data=[79, 127]),
   midi.PitchWheelEvent(tick=1, channel=2, data=[51, 70]),
   midi.PitchWheelEvent(tick=1, channel=2, data=[102, 76]),
   midi.PitchWheelEvent(tick=1, channel=2, data=[25, 83]),
   midi.PitchWheelEvent(tick=1, channel=2, data=[76, 89]),
   midi.PitchWheelEvent(tick=1, channel=2, data=[0, 96]),
   midi.PitchWheelEvent(tick=1, channel=2, data=[51, 102]),
   midi.PitchWheelEvent(tick=1, channel=2, data=[102, 108]),
   midi.PitchWheelEvent(tick=1, channel=2, data=[25, 115]),
   midi.PitchWheelEvent(tick=1, channel=2, data=[76, 121]),
   midi.PitchWheelEvent(tick=1, channel=2, data=[127, 127]),
   midi.NoteOnEvent(tick=50, channel=2, data=[79, 0]),
   midi.PitchWheelEvent(tick=0, channel=2, data=[0, 64]),
   midi.NoteOnEvent(tick=0, channel=2, data=[79, 127]),
   midi.PitchWheelEvent(tick=1, channel=2, data=[51, 70]),
   midi.PitchWheelEvent(tick=1, channel=2, data=[102, 76]),
   midi.PitchWheelEvent(tick=1, channel=2, data=[25, 83]),
   midi.PitchWheelEvent(tick=1, channel=2, data=[76, 89]),
   midi.PitchWheelEvent(tick=1, channel=2, data=[0, 96]),
   midi.PitchWheelEvent(tick=1, channel=2, data=[51, 102]),
   midi.PitchWheelEvent(tick=1, channel=2, data=[102, 108]),
   midi.PitchWheelEvent(tick=1, channel=2, data=[25, 115]),
   midi.PitchWheelEvent(tick=1, channel=2, data=[76, 121]),
   midi.PitchWheelEvent(tick=1, channel=2, data=[127, 127]),
   midi.NoteOnEvent(tick=50, channel=2, data=[79, 0]),
   midi.PitchWheelEvent(tick=0, channel=2, data=[0, 64]),
   midi.NoteOnEvent(tick=0, channel=2, data=[79, 127]),
   midi.NoteOnEvent(tick=30, channel=2, data=[79, 0]),
   midi.NoteOnEvent(tick=0, channel=2, data=[76, 127]),
   midi.NoteOnEvent(tick=30, channel=2, data=[76, 0]),
   midi.NoteOnEvent(tick=0, channel=2, data=[79, 127]),
   midi.NoteOnEvent(tick=15, channel=2, data=[79, 0]),
   midi.NoteOnEvent(tick=0, channel=2, data=[76, 127]),
   midi.NoteOnEvent(tick=15, channel=2, data=[76, 0]),
   midi.NoteOnEvent(tick=0, channel=2, data=[79, 127]),
   midi.NoteOnEvent(tick=15, channel=2, data=[79, 0]),
   midi.NoteOnEvent(tick=0, channel=2, data=[76, 127]),
   midi.NoteOnEvent(tick=15, channel=2, data=[76, 0]),
   midi.NoteOnEvent(tick=0, channel=2, data=[79, 127]),
   midi.NoteOnEvent(tick=15, channel=2, data=[79, 0]),
   midi.NoteOnEvent(tick=0, channel=2, data=[76, 127]),
   midi.NoteOnEvent(tick=10, channel=2, data=[76, 75]),
   midi.NoteOnEvent(tick=5, channel=2, data=[76, 0]),
   midi.NoteOnEvent(tick=0, channel=2, data=[76, 0]),
   midi.NoteOnEvent(tick=0, channel=2, data=[79, 127]),
   midi.NoteOnEvent(tick=15, channel=2, data=[79, 0]),
   midi.NoteOnEvent(tick=0, channel=2, data=[76, 127]),
   midi.NoteOnEvent(tick=15, channel=2, data=[76, 0]),
   midi.NoteOnEvent(tick=0, channel=2, data=[74, 127]),
   midi.NoteOnEvent(tick=15, channel=2, data=[74, 0]),
   midi.NoteOnEvent(tick=0, channel=2, data=[76, 127]),
   midi.NoteOnEvent(tick=15, channel=2, data=[76, 0]),
   midi.NoteOnEvent(tick=0, channel=2, data=[79, 127]),
   midi.NoteOnEvent(tick=15, channel=2, data=[79, 0]),
   midi.NoteOnEvent(tick=0, channel=2, data=[76, 127]),
   midi.NoteOnEvent(tick=10, channel=2, data=[76, 75]),
   midi.NoteOnEvent(tick=5, channel=2, data=[76, 0]),
   midi.NoteOnEvent(tick=0, channel=2, data=[76, 0]),
   midi.NoteOnEvent(tick=0, channel=2, data=[79, 127]),
   midi.NoteOnEvent(tick=15, channel=2, data=[79, 0]),
   midi.NoteOnEvent(tick=0, channel=2, data=[76, 127]),
   midi.NoteOnEvent(tick=15, channel=2, data=[76, 0]),
   midi.NoteOnEvent(tick=0, channel=2, data=[74, 127]),
   midi.NoteOnEvent(tick=15, channel=2, data=[74, 0]),
   midi.NoteOnEvent(tick=0, channel=2, data=[76, 127]),
   midi.NoteOnEvent(tick=15, channel=2, data=[76, 0]),
   midi.NoteOnEvent(tick=0, channel=2, data=[79, 127]),
   midi.NoteOnEvent(tick=15, channel=2, data=[79, 0]),
   midi.NoteOnEvent(tick=0, channel=2, data=[76, 127]),
   midi.NoteOnEvent(tick=10, channel=2, data=[76, 75]),
   midi.NoteOnEvent(tick=5, channel=2, data=[76, 0]),
   midi.NoteOnEvent(tick=0, channel=2, data=[76, 0]),
   midi.NoteOnEvent(tick=0, channel=2, data=[79, 127]),
   midi.NoteOnEvent(tick=15, channel=2, data=[79, 0]),
   midi.NoteOnEvent(tick=0, channel=2, data=[76, 127]),
   midi.NoteOnEvent(tick=15, channel=2, data=[76, 0]),
   midi.NoteOnEvent(tick=0, channel=2, data=[74, 127]),
   midi.NoteOnEvent(tick=15, channel=2, data=[74, 0]),
   midi.NoteOnEvent(tick=0, channel=2, data=[76, 127]),
   midi.NoteOnEvent(tick=15, channel=2, data=[76, 0]),
   midi.NoteOnEvent(tick=0, channel=2, data=[79, 127]),
   midi.NoteOnEvent(tick=10, channel=2, data=[79, 0]),
   midi.NoteOnEvent(tick=0, channel=2, data=[76, 127]),
   midi.NoteOnEvent(tick=10, channel=2, data=[76, 0]),
   midi.NoteOnEvent(tick=0, channel=2, data=[76, 127]),
   midi.NoteOnEvent(tick=10, channel=2, data=[79, 127]),
   midi.NoteOnEvent(tick=15, channel=2, data=[76, 0]),
   midi.NoteOnEvent(tick=0, channel=2, data=[79, 0]),
   midi.NoteOnEvent(tick=0, channel=2, data=[76, 127]),
   midi.NoteOnEvent(tick=15, channel=2, data=[76, 0]),
   midi.NoteOnEvent(tick=0, channel=2, data=[74, 127]),
   midi.NoteOnEvent(tick=15, channel=2, data=[74, 0]),
   midi.NoteOnEvent(tick=0, channel=2, data=[76, 127]),
   midi.NoteOnEvent(tick=15, channel=2, data=[76, 0]),
   midi.NoteOnEvent(tick=0, channel=2, data=[79, 127]),
   midi.NoteOnEvent(tick=15, channel=2, data=[79, 0]),
   midi.NoteOnEvent(tick=0, channel=2, data=[76, 127]),
   midi.NoteOnEvent(tick=10, channel=2, data=[76, 75]),
   midi.NoteOnEvent(tick=5, channel=2, data=[76, 0]),
   midi.NoteOnEvent(tick=0, channel=2, data=[76, 0]),
   midi.NoteOnEvent(tick=0, channel=2, data=[79, 127]),
   midi.NoteOnEvent(tick=15, channel=2, data=[79, 0]),
   midi.NoteOnEvent(tick=0, channel=2, data=[76, 127]),
   midi.NoteOnEvent(tick=15, channel=2, data=[76, 0]),
   midi.NoteOnEvent(tick=0, channel=2, data=[74, 127]),
   midi.NoteOnEvent(tick=15, channel=2, data=[74, 0]),
   midi.NoteOnEvent(tick=0, channel=2, data=[76, 127]),
   midi.NoteOnEvent(tick=15, channel=2, data=[76, 0]),
   midi.NoteOnEvent(tick=0, channel=2, data=[79, 127]),
   midi.NoteOnEvent(tick=15, channel=2, data=[79, 0]),
   midi.NoteOnEvent(tick=0, channel=2, data=[76, 127]),
   midi.NoteOnEvent(tick=15, channel=2, data=[76, 0]),
   midi.NoteOnEvent(tick=0, channel=2, data=[79, 127]),
   midi.NoteOnEvent(tick=15, channel=2, data=[79, 0]),
   midi.NoteOnEvent(tick=0, channel=2, data=[76, 127]),
   midi.NoteOnEvent(tick=15, channel=2, data=[76, 0]),
   midi.NoteOnEvent(tick=0, channel=2, data=[74, 127]),
   midi.NoteOnEvent(tick=15, channel=2, data=[74, 0]),
   midi.NoteOnEvent(tick=0, channel=2, data=[76, 127]),
   midi.NoteOnEvent(tick=15, channel=2, data=[76, 0]),
   midi.PitchWheelEvent(tick=0, channel=2, data=[0, 64]),
   midi.NoteOnEvent(tick=0, channel=2, data=[79, 127]),
   midi.PitchWheelEvent(tick=1, channel=2, data=[51, 70]),
   midi.PitchWheelEvent(tick=1, channel=2, data=[102, 76]),
   midi.PitchWheelEvent(tick=1, channel=2, data=[25, 83]),
   midi.PitchWheelEvent(tick=1, channel=2, data=[76, 89]),
   midi.PitchWheelEvent(tick=1, channel=2, data=[0, 96]),
   midi.PitchWheelEvent(tick=1, channel=2, data=[51, 102]),
   midi.PitchWheelEvent(tick=1, channel=2, data=[102, 108]),
   midi.PitchWheelEvent(tick=1, channel=2, data=[25, 115]),
   midi.PitchWheelEvent(tick=1, channel=2, data=[76, 121]),
   midi.PitchWheelEvent(tick=1, channel=2, data=[127, 127]),
   midi.NoteOnEvent(tick=50, channel=2, data=[79, 0]),
   midi.PitchWheelEvent(tick=0, channel=2, data=[0, 64]),
   midi.NoteOnEvent(tick=0, channel=2, data=[79, 127]),
   midi.PitchWheelEvent(tick=1, channel=2, data=[51, 70]),
   midi.PitchWheelEvent(tick=1, channel=2, data=[102, 76]),
   midi.PitchWheelEvent(tick=1, channel=2, data=[25, 83]),
   midi.PitchWheelEvent(tick=1, channel=2, data=[76, 89]),
   midi.PitchWheelEvent(tick=1, channel=2, data=[0, 96]),
   midi.PitchWheelEvent(tick=1, channel=2, data=[51, 102]),
   midi.PitchWheelEvent(tick=1, channel=2, data=[102, 108]),
   midi.PitchWheelEvent(tick=1, channel=2, data=[25, 115]),
   midi.PitchWheelEvent(tick=1, channel=2, data=[76, 121]),
   midi.PitchWheelEvent(tick=1, channel=2, data=[127, 127]),
   midi.NoteOnEvent(tick=50, channel=2, data=[79, 0]),
   midi.PitchWheelEvent(tick=0, channel=2, data=[0, 64]),
   midi.NoteOnEvent(tick=0, channel=2, data=[79, 127]),
   midi.PitchWheelEvent(tick=1, channel=2, data=[51, 70]),
   midi.PitchWheelEvent(tick=1, channel=2, data=[102, 76]),
   midi.PitchWheelEvent(tick=1, channel=2, data=[25, 83]),
   midi.PitchWheelEvent(tick=1, channel=2, data=[76, 89]),
   midi.PitchWheelEvent(tick=1, channel=2, data=[0, 96]),
   midi.PitchWheelEvent(tick=1, channel=2, data=[51, 102]),
   midi.PitchWheelEvent(tick=1, channel=2, data=[102, 108]),
   midi.PitchWheelEvent(tick=1, channel=2, data=[25, 115]),
   midi.PitchWheelEvent(tick=1, channel=2, data=[76, 121]),
   midi.PitchWheelEvent(tick=1, channel=2, data=[127, 127]),
   midi.NoteOnEvent(tick=50, channel=2, data=[79, 0]),
   midi.PitchWheelEvent(tick=0, channel=2, data=[0, 64]),
   midi.NoteOnEvent(tick=0, channel=2, data=[79, 127]),
   midi.NoteOnEvent(tick=60, channel=2, data=[79, 0]),
   midi.NoteOnEvent(tick=0, channel=2, data=[67, 127]),
   midi.NoteOnEvent(tick=30, channel=2, data=[67, 0]),
   midi.NoteOnEvent(tick=0, channel=2, data=[69, 127]),
   midi.NoteOnEvent(tick=30, channel=2, data=[69, 0]),
   midi.NoteOnEvent(tick=0, channel=2, data=[67, 127]),
   midi.NoteOnEvent(tick=30, channel=2, data=[67, 0]),
   midi.NoteOnEvent(tick=0, channel=2, data=[66, 127]),
   midi.NoteOnEvent(tick=30, channel=2, data=[66, 0]),
   midi.NoteOnEvent(tick=0, channel=2, data=[67, 127]),
   midi.NoteOnEvent(tick=30, channel=2, data=[67, 0]),
   midi.NoteOnEvent(tick=0, channel=2, data=[66, 127]),
   midi.NoteOnEvent(tick=30, channel=2, data=[66, 0]),
   midi.NoteOnEvent(tick=0, channel=2, data=[64, 127]),
   midi.NoteOnEvent(tick=30, channel=2, data=[64, 0]),
   midi.NoteOnEvent(tick=0, channel=2, data=[66, 127]),
   midi.NoteOnEvent(tick=30, channel=2, data=[66, 0]),
   midi.NoteOnEvent(tick=0, channel=2, data=[64, 127]),
   midi.NoteOnEvent(tick=30, channel=2, data=[64, 0]),
   midi.NoteOnEvent(tick=0, channel=2, data=[62, 127]),
   midi.NoteOnEvent(tick=30, channel=2, data=[62, 0]),
   midi.NoteOnEvent(tick=0, channel=2, data=[61, 127]),
   midi.NoteOnEvent(tick=30, channel=2, data=[61, 0]),
   midi.NoteOnEvent(tick=0, channel=2, data=[62, 127]),
   midi.NoteOnEvent(tick=30, channel=2, data=[62, 0]),
   midi.NoteOnEvent(tick=0, channel=2, data=[61, 127]),
   midi.NoteOnEvent(tick=30, channel=2, data=[61, 0]),
   midi.NoteOnEvent(tick=0, channel=2, data=[59, 127]),
   midi.NoteOnEvent(tick=30, channel=2, data=[59, 0]),
   midi.NoteOnEvent(tick=0, channel=2, data=[61, 127]),
   midi.NoteOnEvent(tick=30, channel=2, data=[61, 0]),
   midi.NoteOnEvent(tick=0, channel=2, data=[59, 127]),
   midi.NoteOnEvent(tick=30, channel=2, data=[59, 0]),
   midi.ControlChangeEvent(tick=0, channel=2, data=[1, 0]),
   midi.NoteOnEvent(tick=0, channel=2, data=[57, 127]),
   midi.ControlChangeEvent(tick=1, channel=2, data=[1, 6]),
   midi.ControlChangeEvent(tick=1, channel=2, data=[1, 13]),
   midi.ControlChangeEvent(tick=1, channel=2, data=[1, 19]),
   midi.ControlChangeEvent(tick=1, channel=2, data=[1, 26]),
   midi.ControlChangeEvent(tick=1, channel=2, data=[1, 32]),
   midi.ControlChangeEvent(tick=1, channel=2, data=[1, 38]),
   midi.ControlChangeEvent(tick=1, channel=2, data=[1, 45]),
   midi.ControlChangeEvent(tick=1, channel=2, data=[1, 51]),
   midi.ControlChangeEvent(tick=1, channel=2, data=[1, 58]),
   midi.ControlChangeEvent(tick=1, channel=2, data=[1, 64]),
   midi.ControlChangeEvent(tick=229, channel=2, data=[1, 0]),
   midi.NoteOnEvent(tick=1, channel=2, data=[57, 0]),
   midi.NoteOnEvent(tick=0, channel=2, data=[47, 127]),
   midi.NoteOnEvent(tick=0, channel=2, data=[54, 127]),
   midi.NoteOnEvent(tick=60, channel=2, data=[47, 0]),
   midi.NoteOnEvent(tick=0, channel=2, data=[54, 0]),
   midi.NoteOnEvent(tick=0, channel=2, data=[48, 127]),
   midi.NoteOnEvent(tick=0, channel=2, data=[55, 127]),
   midi.NoteOnEvent(tick=60, channel=2, data=[48, 0]),
   midi.NoteOnEvent(tick=0, channel=2, data=[55, 0]),
   midi.NoteOnEvent(tick=0, channel=2, data=[47, 127]),
   midi.NoteOnEvent(tick=0, channel=2, data=[54, 127]),
   midi.NoteOnEvent(tick=60, channel=2, data=[47, 0]),
   midi.NoteOnEvent(tick=0, channel=2, data=[54, 0]),
   midi.NoteOnEvent(tick=0, channel=2, data=[48, 127]),
   midi.NoteOnEvent(tick=0, channel=2, data=[55, 127]),
   midi.NoteOnEvent(tick=60, channel=2, data=[48, 0]),
   midi.NoteOnEvent(tick=0, channel=2, data=[55, 0]),
   midi.NoteOnEvent(tick=0, channel=2, data=[47, 127]),
   midi.NoteOnEvent(tick=0, channel=2, data=[54, 127]),
   midi.NoteOnEvent(tick=60, channel=2, data=[47, 0]),
   midi.NoteOnEvent(tick=0, channel=2, data=[54, 0]),
   midi.NoteOnEvent(tick=0, channel=2, data=[48, 127]),
   midi.NoteOnEvent(tick=0, channel=2, data=[55, 127]),
   midi.NoteOnEvent(tick=60, channel=2, data=[48, 0]),
   midi.NoteOnEvent(tick=0, channel=2, data=[55, 0]),
   midi.NoteOnEvent(tick=0, channel=2, data=[47, 127]),
   midi.NoteOnEvent(tick=0, channel=2, data=[54, 127]),
   midi.NoteOnEvent(tick=60, channel=2, data=[47, 0]),
   midi.NoteOnEvent(tick=0, channel=2, data=[54, 0]),
   midi.NoteOnEvent(tick=0, channel=2, data=[48, 127]),
   midi.NoteOnEvent(tick=0, channel=2, data=[55, 127]),
   midi.NoteOnEvent(tick=60, channel=2, data=[48, 0]),
   midi.NoteOnEvent(tick=0, channel=2, data=[55, 0]),
   midi.PitchWheelEvent(tick=0, channel=2, data=[0, 64]),
   midi.NoteOnEvent(tick=0, channel=2, data=[67, 127]),
   midi.PitchWheelEvent(tick=1, channel=2, data=[52, 70]),
   midi.PitchWheelEvent(tick=1, channel=2, data=[103, 76]),
   midi.PitchWheelEvent(tick=1, channel=2, data=[26, 83]),
   midi.PitchWheelEvent(tick=1, channel=2, data=[77, 89]),
   midi.PitchWheelEvent(tick=1, channel=2, data=[0, 96]),
   midi.PitchWheelEvent(tick=1, channel=2, data=[51, 102]),
   midi.PitchWheelEvent(tick=1, channel=2, data=[102, 108]),
   midi.PitchWheelEvent(tick=1, channel=2, data=[25, 115]),
   midi.PitchWheelEvent(tick=1, channel=2, data=[76, 121]),
   midi.PitchWheelEvent(tick=1, channel=2, data=[127, 127]),
   midi.NoteOnEvent(tick=20, channel=2, data=[67, 0]),
   midi.NoteOnEvent(tick=0, channel=2, data=[55, 127]),
   midi.PitchWheelEvent(tick=0, channel=2, data=[0, 64]),
   midi.PitchWheelEvent(tick=1, channel=2, data=[109, 63]),
   midi.PitchWheelEvent(tick=1, channel=2, data=[91, 63]),
   midi.PitchWheelEvent(tick=1, channel=2, data=[73, 63]),
   midi.PitchWheelEvent(tick=1, channel=2, data=[55, 63]),
   midi.PitchWheelEvent(tick=1, channel=2, data=[36, 63]),
   midi.PitchWheelEvent(tick=1, channel=2, data=[18, 63]),
   midi.PitchWheelEvent(tick=1, channel=2, data=[0, 63]),
   midi.PitchWheelEvent(tick=1, channel=2, data=[110, 62]),
   midi.PitchWheelEvent(tick=1, channel=2, data=[91, 62]),
   midi.PitchWheelEvent(tick=1, channel=2, data=[73, 62]),
   midi.PitchWheelEvent(tick=1, channel=2, data=[55, 62]),
   midi.PitchWheelEvent(tick=1, channel=2, data=[37, 62]),
   midi.PitchWheelEvent(tick=1, channel=2, data=[18, 62]),
   midi.PitchWheelEvent(tick=1, channel=2, data=[0, 62]),
   midi.PitchWheelEvent(tick=1, channel=2, data=[110, 61]),
   midi.PitchWheelEvent(tick=1, channel=2, data=[92, 61]),
   midi.PitchWheelEvent(tick=1, channel=2, data=[73, 61]),
   midi.PitchWheelEvent(tick=1, channel=2, data=[55, 61]),
   midi.PitchWheelEvent(tick=1, channel=2, data=[37, 61]),
   midi.PitchWheelEvent(tick=1, channel=2, data=[19, 61]),
   midi.PitchWheelEvent(tick=1, channel=2, data=[0, 61]),
   midi.PitchWheelEvent(tick=1, channel=2, data=[110, 60]),
   midi.PitchWheelEvent(tick=1, channel=2, data=[92, 60]),
   midi.PitchWheelEvent(tick=1, channel=2, data=[74, 60]),
   midi.PitchWheelEvent(tick=1, channel=2, data=[55, 60]),
   midi.PitchWheelEvent(tick=1, channel=2, data=[37, 60]),
   midi.PitchWheelEvent(tick=1, channel=2, data=[19, 60]),
   midi.PitchWheelEvent(tick=1, channel=2, data=[1, 60]),
   midi.PitchWheelEvent(tick=1, channel=2, data=[110, 59]),
   midi.PitchWheelEvent(tick=1, channel=2, data=[92, 59]),
   midi.PitchWheelEvent(tick=1, channel=2, data=[74, 59]),
   midi.PitchWheelEvent(tick=1, channel=2, data=[56, 59]),
   midi.PitchWheelEvent(tick=1, channel=2, data=[37, 59]),
   midi.PitchWheelEvent(tick=1, channel=2, data=[19, 59]),
   midi.PitchWheelEvent(tick=1, channel=2, data=[1, 59]),
   midi.PitchWheelEvent(tick=1, channel=2, data=[111, 58]),
   midi.PitchWheelEvent(tick=1, channel=2, data=[92, 58]),
   midi.PitchWheelEvent(tick=1, channel=2, data=[74, 58]),
   midi.PitchWheelEvent(tick=1, channel=2, data=[56, 58]),
   midi.PitchWheelEvent(tick=1, channel=2, data=[38, 58]),
   midi.PitchWheelEvent(tick=1, channel=2, data=[19, 58]),
   midi.PitchWheelEvent(tick=1, channel=2, data=[1, 58]),
   midi.PitchWheelEvent(tick=1, channel=2, data=[111, 57]),
   midi.PitchWheelEvent(tick=1, channel=2, data=[93, 57]),
   midi.PitchWheelEvent(tick=1, channel=2, data=[74, 57]),
   midi.PitchWheelEvent(tick=1, channel=2, data=[56, 57]),
   midi.PitchWheelEvent(tick=1, channel=2, data=[38, 57]),
   midi.PitchWheelEvent(tick=1, channel=2, data=[20, 57]),
   midi.PitchWheelEvent(tick=1, channel=2, data=[1, 57]),
   midi.PitchWheelEvent(tick=1, channel=2, data=[111, 56]),
   midi.PitchWheelEvent(tick=1, channel=2, data=[93, 56]),
   midi.PitchWheelEvent(tick=1, channel=2, data=[75, 56]),
   midi.PitchWheelEvent(tick=1, channel=2, data=[57, 56]),
   midi.PitchWheelEvent(tick=1, channel=2, data=[38, 56]),
   midi.PitchWheelEvent(tick=1, channel=2, data=[20, 56]),
   midi.PitchWheelEvent(tick=1, channel=2, data=[2, 56]),
   midi.PitchWheelEvent(tick=1, channel=2, data=[112, 55]),
   midi.PitchWheelEvent(tick=1, channel=2, data=[93, 55]),
   midi.PitchWheelEvent(tick=1, channel=2, data=[75, 55]),
   midi.PitchWheelEvent(tick=1, channel=2, data=[57, 55]),
   midi.PitchWheelEvent(tick=1, channel=2, data=[39, 55]),
   midi.PitchWheelEvent(tick=1, channel=2, data=[20, 55]),
   midi.PitchWheelEvent(tick=1, channel=2, data=[2, 55]),
   midi.PitchWheelEvent(tick=1, channel=2, data=[112, 54]),
   midi.PitchWheelEvent(tick=1, channel=2, data=[94, 54]),
   midi.PitchWheelEvent(tick=1, channel=2, data=[75, 54]),
   midi.PitchWheelEvent(tick=1, channel=2, data=[57, 54]),
   midi.PitchWheelEvent(tick=1, channel=2, data=[39, 54]),
   midi.PitchWheelEvent(tick=1, channel=2, data=[21, 54]),
   midi.PitchWheelEvent(tick=1, channel=2, data=[2, 54]),
   midi.PitchWheelEvent(tick=1, channel=2, data=[112, 53]),
   midi.PitchWheelEvent(tick=1, channel=2, data=[94, 53]),
   midi.PitchWheelEvent(tick=1, channel=2, data=[76, 53]),
   midi.PitchWheelEvent(tick=1, channel=2, data=[57, 53]),
   midi.PitchWheelEvent(tick=1, channel=2, data=[39, 53]),
   midi.PitchWheelEvent(tick=1, channel=2, data=[21, 53]),
   midi.PitchWheelEvent(tick=1, channel=2, data=[3, 53]),
   midi.PitchWheelEvent(tick=1, channel=2, data=[112, 52]),
   midi.PitchWheelEvent(tick=1, channel=2, data=[94, 52]),
   midi.PitchWheelEvent(tick=1, channel=2, data=[76, 52]),
   midi.PitchWheelEvent(tick=1, channel=2, data=[58, 52]),
   midi.PitchWheelEvent(tick=1, channel=2, data=[39, 52]),
   midi.PitchWheelEvent(tick=1, channel=2, data=[21, 52]),
   midi.PitchWheelEvent(tick=1, channel=2, data=[3, 52]),
   midi.PitchWheelEvent(tick=1, channel=2, data=[113, 51]),
   midi.PitchWheelEvent(tick=1, channel=2, data=[94, 51]),
   midi.PitchWheelEvent(tick=1, channel=2, data=[76, 51]),
   midi.PitchWheelEvent(tick=1, channel=2, data=[58, 51]),
   midi.PitchWheelEvent(tick=1, channel=2, data=[40, 51]),
   midi.PitchWheelEvent(tick=1, channel=2, data=[21, 51]),
   midi.PitchWheelEvent(tick=1, channel=2, data=[3, 51]),
   midi.PitchWheelEvent(tick=1, channel=2, data=[113, 50]),
   midi.PitchWheelEvent(tick=1, channel=2, data=[95, 50]),
   midi.PitchWheelEvent(tick=1, channel=2, data=[76, 50]),
   midi.PitchWheelEvent(tick=1, channel=2, data=[58, 50]),
   midi.PitchWheelEvent(tick=1, channel=2, data=[40, 50]),
   midi.PitchWheelEvent(tick=1, channel=2, data=[22, 50]),
   midi.PitchWheelEvent(tick=1, channel=2, data=[3, 50]),
   midi.PitchWheelEvent(tick=1, channel=2, data=[113, 49]),
   midi.PitchWheelEvent(tick=1, channel=2, data=[95, 49]),
   midi.PitchWheelEvent(tick=1, channel=2, data=[77, 49]),
   midi.PitchWheelEvent(tick=1, channel=2, data=[59, 49]),
   midi.PitchWheelEvent(tick=1, channel=2, data=[40, 49]),
   midi.PitchWheelEvent(tick=1, channel=2, data=[22, 49]),
   midi.PitchWheelEvent(tick=1, channel=2, data=[4, 49]),
   midi.PitchWheelEvent(tick=1, channel=2, data=[114, 48]),
   midi.PitchWheelEvent(tick=1, channel=2, data=[95, 48]),
   midi.PitchWheelEvent(tick=1, channel=2, data=[77, 48]),
   midi.PitchWheelEvent(tick=1, channel=2, data=[59, 48]),
   midi.PitchWheelEvent(tick=1, channel=2, data=[41, 48]),
   midi.PitchWheelEvent(tick=1, channel=2, data=[22, 48]),
   midi.PitchWheelEvent(tick=1, channel=2, data=[4, 48]),
   midi.PitchWheelEvent(tick=1, channel=2, data=[114, 47]),
   midi.PitchWheelEvent(tick=1, channel=2, data=[96, 47]),
   midi.PitchWheelEvent(tick=1, channel=2, data=[77, 47]),
   midi.PitchWheelEvent(tick=1, channel=2, data=[59, 47]),
   midi.PitchWheelEvent(tick=1, channel=2, data=[41, 47]),
   midi.PitchWheelEvent(tick=1, channel=2, data=[23, 47]),
   midi.PitchWheelEvent(tick=1, channel=2, data=[4, 47]),
   midi.PitchWheelEvent(tick=1, channel=2, data=[114, 46]),
   midi.PitchWheelEvent(tick=1, channel=2, data=[96, 46]),
   midi.PitchWheelEvent(tick=1, channel=2, data=[78, 46]),
   midi.PitchWheelEvent(tick=1, channel=2, data=[59, 46]),
   midi.PitchWheelEvent(tick=1, channel=2, data=[41, 46]),
   midi.PitchWheelEvent(tick=1, channel=2, data=[23, 46]),
   midi.PitchWheelEvent(tick=1, channel=2, data=[5, 46]),
   midi.PitchWheelEvent(tick=1, channel=2, data=[114, 45]),
   midi.PitchWheelEvent(tick=1, channel=2, data=[96, 45]),
   midi.PitchWheelEvent(tick=1, channel=2, data=[78, 45]),
   midi.PitchWheelEvent(tick=1, channel=2, data=[60, 45]),
   midi.PitchWheelEvent(tick=1, channel=2, data=[41, 45]),
   midi.PitchWheelEvent(tick=1, channel=2, data=[23, 45]),
   midi.PitchWheelEvent(tick=1, channel=2, data=[5, 45]),
   midi.PitchWheelEvent(tick=1, channel=2, data=[115, 44]),
   midi.PitchWheelEvent(tick=1, channel=2, data=[96, 44]),
   midi.PitchWheelEvent(tick=1, channel=2, data=[78, 44]),
   midi.PitchWheelEvent(tick=1, channel=2, data=[60, 44]),
   midi.PitchWheelEvent(tick=1, channel=2, data=[42, 44]),
   midi.PitchWheelEvent(tick=1, channel=2, data=[23, 44]),
   midi.PitchWheelEvent(tick=1, channel=2, data=[5, 44]),
   midi.PitchWheelEvent(tick=1, channel=2, data=[115, 43]),
   midi.PitchWheelEvent(tick=1, channel=2, data=[97, 43]),
   midi.PitchWheelEvent(tick=1, channel=2, data=[78, 43]),
   midi.PitchWheelEvent(tick=1, channel=2, data=[60, 43]),
   midi.PitchWheelEvent(tick=1, channel=2, data=[42, 43]),
   midi.PitchWheelEvent(tick=1, channel=2, data=[24, 43]),
   midi.PitchWheelEvent(tick=1, channel=2, data=[5, 43]),
   midi.PitchWheelEvent(tick=1, channel=2, data=[115, 42]),
   midi.PitchWheelEvent(tick=1, channel=2, data=[97, 42]),
   midi.PitchWheelEvent(tick=1, channel=2, data=[79, 42]),
   midi.PitchWheelEvent(tick=1, channel=2, data=[61, 42]),
   midi.PitchWheelEvent(tick=1, channel=2, data=[42, 42]),
   midi.PitchWheelEvent(tick=1, channel=2, data=[24, 42]),
   midi.PitchWheelEvent(tick=1, channel=2, data=[6, 42]),
   midi.PitchWheelEvent(tick=1, channel=2, data=[116, 41]),
   midi.PitchWheelEvent(tick=1, channel=2, data=[97, 41]),
   midi.PitchWheelEvent(tick=1, channel=2, data=[79, 41]),
   midi.PitchWheelEvent(tick=1, channel=2, data=[61, 41]),
   midi.PitchWheelEvent(tick=1, channel=2, data=[43, 41]),
   midi.PitchWheelEvent(tick=1, channel=2, data=[24, 41]),
   midi.PitchWheelEvent(tick=1, channel=2, data=[6, 41]),
   midi.PitchWheelEvent(tick=1, channel=2, data=[116, 40]),
   midi.PitchWheelEvent(tick=1, channel=2, data=[98, 40]),
   midi.PitchWheelEvent(tick=1, channel=2, data=[79, 40]),
   midi.PitchWheelEvent(tick=1, channel=2, data=[61, 40]),
   midi.PitchWheelEvent(tick=1, channel=2, data=[43, 40]),
   midi.PitchWheelEvent(tick=1, channel=2, data=[25, 40]),
   midi.PitchWheelEvent(tick=1, channel=2, data=[6, 40]),
   midi.PitchWheelEvent(tick=1, channel=2, data=[116, 39]),
   midi.PitchWheelEvent(tick=1, channel=2, data=[98, 39]),
   midi.PitchWheelEvent(tick=1, channel=2, data=[80, 39]),
   midi.PitchWheelEvent(tick=1, channel=2, data=[61, 39]),
   midi.PitchWheelEvent(tick=1, channel=2, data=[43, 39]),
   midi.PitchWheelEvent(tick=1, channel=2, data=[25, 39]),
   midi.PitchWheelEvent(tick=1, channel=2, data=[7, 39]),
   midi.PitchWheelEvent(tick=1, channel=2, data=[116, 38]),
   midi.PitchWheelEvent(tick=1, channel=2, data=[98, 38]),
   midi.PitchWheelEvent(tick=1, channel=2, data=[80, 38]),
   midi.PitchWheelEvent(tick=1, channel=2, data=[62, 38]),
   midi.PitchWheelEvent(tick=1, channel=2, data=[43, 38]),
   midi.PitchWheelEvent(tick=1, channel=2, data=[25, 38]),
   midi.PitchWheelEvent(tick=1, channel=2, data=[7, 38]),
   midi.PitchWheelEvent(tick=1, channel=2, data=[117, 37]),
   midi.PitchWheelEvent(tick=1, channel=2, data=[98, 37]),
   midi.PitchWheelEvent(tick=1, channel=2, data=[80, 37]),
   midi.PitchWheelEvent(tick=1, channel=2, data=[62, 37]),
   midi.PitchWheelEvent(tick=1, channel=2, data=[44, 37]),
   midi.PitchWheelEvent(tick=1, channel=2, data=[25, 37]),
   midi.PitchWheelEvent(tick=1, channel=2, data=[7, 37]),
   midi.PitchWheelEvent(tick=1, channel=2, data=[117, 36]),
   midi.PitchWheelEvent(tick=1, channel=2, data=[99, 36]),
   midi.PitchWheelEvent(tick=1, channel=2, data=[80, 36]),
   midi.PitchWheelEvent(tick=1, channel=2, data=[62, 36]),
   midi.PitchWheelEvent(tick=1, channel=2, data=[44, 36]),
   midi.PitchWheelEvent(tick=1, channel=2, data=[26, 36]),
   midi.PitchWheelEvent(tick=1, channel=2, data=[7, 36]),
   midi.PitchWheelEvent(tick=1, channel=2, data=[117, 35]),
   midi.PitchWheelEvent(tick=1, channel=2, data=[99, 35]),
   midi.PitchWheelEvent(tick=1, channel=2, data=[81, 35]),
   midi.PitchWheelEvent(tick=1, channel=2, data=[63, 35]),
   midi.PitchWheelEvent(tick=1, channel=2, data=[44, 35]),
   midi.PitchWheelEvent(tick=1, channel=2, data=[26, 35]),
   midi.PitchWheelEvent(tick=1, channel=2, data=[8, 35]),
   midi.PitchWheelEvent(tick=1, channel=2, data=[118, 34]),
   midi.PitchWheelEvent(tick=1, channel=2, data=[99, 34]),
   midi.PitchWheelEvent(tick=1, channel=2, data=[81, 34]),
   midi.PitchWheelEvent(tick=1, channel=2, data=[63, 34]),
   midi.PitchWheelEvent(tick=1, channel=2, data=[45, 34]),
   midi.PitchWheelEvent(tick=1, channel=2, data=[26, 34]),
   midi.NoteOnEvent(tick=1, channel=2, data=[55, 0]),
   midi.PitchWheelEvent(tick=0, channel=2, data=[8, 34]),
   midi.NoteOnEvent(tick=0, channel=2, data=[40, 127]),
   midi.PitchWheelEvent(tick=1, channel=2, data=[118, 33]),
   midi.PitchWheelEvent(tick=1, channel=2, data=[100, 33]),
   midi.PitchWheelEvent(tick=1, channel=2, data=[81, 33]),
   midi.PitchWheelEvent(tick=1, channel=2, data=[63, 33]),
   midi.PitchWheelEvent(tick=1, channel=2, data=[45, 33]),
   midi.PitchWheelEvent(tick=1, channel=2, data=[27, 33]),
   midi.PitchWheelEvent(tick=1, channel=2, data=[8, 33]),
   midi.PitchWheelEvent(tick=1, channel=2, data=[118, 32]),
   midi.PitchWheelEvent(tick=1, channel=2, data=[100, 32]),
   midi.PitchWheelEvent(tick=1, channel=2, data=[82, 32]),
   midi.PitchWheelEvent(tick=1, channel=2, data=[63, 32]),
   midi.PitchWheelEvent(tick=1, channel=2, data=[45, 32]),
   midi.PitchWheelEvent(tick=1, channel=2, data=[27, 32]),
   midi.PitchWheelEvent(tick=1, channel=2, data=[9, 32]),
   midi.PitchWheelEvent(tick=1, channel=2, data=[118, 31]),
   midi.PitchWheelEvent(tick=1, channel=2, data=[100, 31]),
   midi.PitchWheelEvent(tick=1, channel=2, data=[82, 31]),
   midi.PitchWheelEvent(tick=1, channel=2, data=[64, 31]),
   midi.PitchWheelEvent(tick=1, channel=2, data=[45, 31]),
   midi.PitchWheelEvent(tick=1, channel=2, data=[27, 31]),
   midi.PitchWheelEvent(tick=1, channel=2, data=[9, 31]),
   midi.PitchWheelEvent(tick=1, channel=2, data=[119, 30]),
   midi.PitchWheelEvent(tick=1, channel=2, data=[100, 30]),
   midi.PitchWheelEvent(tick=1, channel=2, data=[82, 30]),
   midi.PitchWheelEvent(tick=1, channel=2, data=[64, 30]),
   midi.PitchWheelEvent(tick=1, channel=2, data=[46, 30]),
   midi.PitchWheelEvent(tick=1, channel=2, data=[27, 30]),
   midi.PitchWheelEvent(tick=1, channel=2, data=[9, 30]),
   midi.PitchWheelEvent(tick=1, channel=2, data=[119, 29]),
   midi.PitchWheelEvent(tick=1, channel=2, data=[101, 29]),
   midi.PitchWheelEvent(tick=1, channel=2, data=[82, 29]),
   midi.PitchWheelEvent(tick=1, channel=2, data=[64, 29]),
   midi.PitchWheelEvent(tick=1, channel=2, data=[46, 29]),
   midi.PitchWheelEvent(tick=1, channel=2, data=[28, 29]),
   midi.PitchWheelEvent(tick=1, channel=2, data=[9, 29]),
   midi.PitchWheelEvent(tick=1, channel=2, data=[119, 28]),
   midi.PitchWheelEvent(tick=1, channel=2, data=[101, 28]),
   midi.PitchWheelEvent(tick=1, channel=2, data=[83, 28]),
   midi.PitchWheelEvent(tick=1, channel=2, data=[64, 28]),
   midi.PitchWheelEvent(tick=1, channel=2, data=[46, 28]),
   midi.PitchWheelEvent(tick=1, channel=2, data=[28, 28]),
   midi.PitchWheelEvent(tick=1, channel=2, data=[10, 28]),
   midi.PitchWheelEvent(tick=1, channel=2, data=[120, 27]),
   midi.PitchWheelEvent(tick=1, channel=2, data=[101, 27]),
   midi.PitchWheelEvent(tick=1, channel=2, data=[83, 27]),
   midi.PitchWheelEvent(tick=1, channel=2, data=[65, 27]),
   midi.PitchWheelEvent(tick=1, channel=2, data=[47, 27]),
   midi.PitchWheelEvent(tick=1, channel=2, data=[28, 27]),
   midi.PitchWheelEvent(tick=1, channel=2, data=[10, 27]),
   midi.PitchWheelEvent(tick=1, channel=2, data=[120, 26]),
   midi.PitchWheelEvent(tick=1, channel=2, data=[102, 26]),
   midi.PitchWheelEvent(tick=1, channel=2, data=[83, 26]),
   midi.PitchWheelEvent(tick=1, channel=2, data=[65, 26]),
   midi.PitchWheelEvent(tick=1, channel=2, data=[47, 26]),
   midi.PitchWheelEvent(tick=1, channel=2, data=[29, 26]),
   midi.PitchWheelEvent(tick=1, channel=2, data=[10, 26]),
   midi.PitchWheelEvent(tick=1, channel=2, data=[120, 25]),
   midi.PitchWheelEvent(tick=1, channel=2, data=[102, 25]),
   midi.PitchWheelEvent(tick=1, channel=2, data=[84, 25]),
   midi.PitchWheelEvent(tick=1, channel=2, data=[65, 25]),
   midi.PitchWheelEvent(tick=1, channel=2, data=[47, 25]),
   midi.PitchWheelEvent(tick=1, channel=2, data=[29, 25]),
   midi.PitchWheelEvent(tick=1, channel=2, data=[11, 25]),
   midi.PitchWheelEvent(tick=1, channel=2, data=[120, 24]),
   midi.PitchWheelEvent(tick=1, channel=2, data=[102, 24]),
   midi.PitchWheelEvent(tick=1, channel=2, data=[84, 24]),
   midi.PitchWheelEvent(tick=1, channel=2, data=[66, 24]),
   midi.PitchWheelEvent(tick=1, channel=2, data=[47, 24]),
   midi.PitchWheelEvent(tick=1, channel=2, data=[29, 24]),
   midi.PitchWheelEvent(tick=1, channel=2, data=[11, 24]),
   midi.PitchWheelEvent(tick=1, channel=2, data=[121, 23]),
   midi.PitchWheelEvent(tick=1, channel=2, data=[102, 23]),
   midi.PitchWheelEvent(tick=1, channel=2, data=[84, 23]),
   midi.PitchWheelEvent(tick=1, channel=2, data=[66, 23]),
   midi.PitchWheelEvent(tick=1, channel=2, data=[48, 23]),
   midi.PitchWheelEvent(tick=1, channel=2, data=[29, 23]),
   midi.PitchWheelEvent(tick=1, channel=2, data=[11, 23]),
   midi.PitchWheelEvent(tick=1, channel=2, data=[121, 22]),
   midi.PitchWheelEvent(tick=1, channel=2, data=[103, 22]),
   midi.PitchWheelEvent(tick=1, channel=2, data=[84, 22]),
   midi.PitchWheelEvent(tick=1, channel=2, data=[66, 22]),
   midi.PitchWheelEvent(tick=1, channel=2, data=[48, 22]),
   midi.PitchWheelEvent(tick=1, channel=2, data=[30, 22]),
   midi.PitchWheelEvent(tick=1, channel=2, data=[11, 22]),
   midi.PitchWheelEvent(tick=1, channel=2, data=[121, 21]),
   midi.PitchWheelEvent(tick=1, channel=2, data=[103, 21]),
   midi.PitchWheelEvent(tick=1, channel=2, data=[85, 21]),
   midi.PitchWheelEvent(tick=1, channel=2, data=[66, 21]),
   midi.PitchWheelEvent(tick=1, channel=2, data=[48, 21]),
   midi.PitchWheelEvent(tick=1, channel=2, data=[30, 21]),
   midi.PitchWheelEvent(tick=1, channel=2, data=[12, 21]),
   midi.PitchWheelEvent(tick=1, channel=2, data=[122, 20]),
   midi.PitchWheelEvent(tick=1, channel=2, data=[103, 20]),
   midi.PitchWheelEvent(tick=1, channel=2, data=[85, 20]),
   midi.PitchWheelEvent(tick=1, channel=2, data=[67, 20]),
   midi.PitchWheelEvent(tick=1, channel=2, data=[49, 20]),
   midi.PitchWheelEvent(tick=1, channel=2, data=[30, 20]),
   midi.PitchWheelEvent(tick=1, channel=2, data=[12, 20]),
   midi.PitchWheelEvent(tick=1, channel=2, data=[122, 19]),
   midi.PitchWheelEvent(tick=1, channel=2, data=[104, 19]),
   midi.PitchWheelEvent(tick=1, channel=2, data=[85, 19]),
   midi.PitchWheelEvent(tick=1, channel=2, data=[67, 19]),
   midi.PitchWheelEvent(tick=1, channel=2, data=[49, 19]),
   midi.PitchWheelEvent(tick=1, channel=2, data=[31, 19]),
   midi.PitchWheelEvent(tick=1, channel=2, data=[12, 19]),
   midi.PitchWheelEvent(tick=1, channel=2, data=[122, 18]),
   midi.PitchWheelEvent(tick=1, channel=2, data=[104, 18]),
   midi.PitchWheelEvent(tick=1, channel=2, data=[86, 18]),
   midi.PitchWheelEvent(tick=1, channel=2, data=[67, 18]),
   midi.PitchWheelEvent(tick=1, channel=2, data=[49, 18]),
   midi.PitchWheelEvent(tick=1, channel=2, data=[31, 18]),
   midi.PitchWheelEvent(tick=1, channel=2, data=[13, 18]),
   midi.PitchWheelEvent(tick=1, channel=2, data=[122, 17]),
   midi.PitchWheelEvent(tick=1, channel=2, data=[104, 17]),
   midi.PitchWheelEvent(tick=1, channel=2, data=[86, 17]),
   midi.PitchWheelEvent(tick=1, channel=2, data=[68, 17]),
   midi.PitchWheelEvent(tick=1, channel=2, data=[49, 17]),
   midi.PitchWheelEvent(tick=1, channel=2, data=[31, 17]),
   midi.PitchWheelEvent(tick=1, channel=2, data=[13, 17]),
   midi.PitchWheelEvent(tick=1, channel=2, data=[123, 16]),
   midi.PitchWheelEvent(tick=1, channel=2, data=[104, 16]),
   midi.PitchWheelEvent(tick=1, channel=2, data=[86, 16]),
   midi.PitchWheelEvent(tick=1, channel=2, data=[68, 16]),
   midi.PitchWheelEvent(tick=1, channel=2, data=[50, 16]),
   midi.PitchWheelEvent(tick=1, channel=2, data=[31, 16]),
   midi.PitchWheelEvent(tick=1, channel=2, data=[13, 16]),
   midi.PitchWheelEvent(tick=1, channel=2, data=[123, 15]),
   midi.PitchWheelEvent(tick=1, channel=2, data=[105, 15]),
   midi.PitchWheelEvent(tick=1, channel=2, data=[86, 15]),
   midi.PitchWheelEvent(tick=1, channel=2, data=[68, 15]),
   midi.PitchWheelEvent(tick=1, channel=2, data=[50, 15]),
   midi.PitchWheelEvent(tick=1, channel=2, data=[32, 15]),
   midi.PitchWheelEvent(tick=1, channel=2, data=[13, 15]),
   midi.PitchWheelEvent(tick=1, channel=2, data=[123, 14]),
   midi.PitchWheelEvent(tick=1, channel=2, data=[105, 14]),
   midi.PitchWheelEvent(tick=1, channel=2, data=[87, 14]),
   midi.PitchWheelEvent(tick=1, channel=2, data=[68, 14]),
   midi.PitchWheelEvent(tick=1, channel=2, data=[50, 14]),
   midi.PitchWheelEvent(tick=1, channel=2, data=[32, 14]),
   midi.PitchWheelEvent(tick=1, channel=2, data=[14, 14]),
   midi.PitchWheelEvent(tick=1, channel=2, data=[124, 13]),
   midi.PitchWheelEvent(tick=1, channel=2, data=[105, 13]),
   midi.PitchWheelEvent(tick=1, channel=2, data=[87, 13]),
   midi.PitchWheelEvent(tick=1, channel=2, data=[69, 13]),
   midi.PitchWheelEvent(tick=1, channel=2, data=[51, 13]),
   midi.PitchWheelEvent(tick=1, channel=2, data=[32, 13]),
   midi.PitchWheelEvent(tick=1, channel=2, data=[14, 13]),
   midi.PitchWheelEvent(tick=1, channel=2, data=[124, 12]),
   midi.PitchWheelEvent(tick=1, channel=2, data=[106, 12]),
   midi.PitchWheelEvent(tick=1, channel=2, data=[87, 12]),
   midi.PitchWheelEvent(tick=1, channel=2, data=[69, 12]),
   midi.PitchWheelEvent(tick=1, channel=2, data=[51, 12]),
   midi.PitchWheelEvent(tick=1, channel=2, data=[33, 12]),
   midi.PitchWheelEvent(tick=1, channel=2, data=[14, 12]),
   midi.PitchWheelEvent(tick=1, channel=2, data=[124, 11]),
   midi.PitchWheelEvent(tick=1, channel=2, data=[106, 11]),
   midi.PitchWheelEvent(tick=1, channel=2, data=[88, 11]),
   midi.PitchWheelEvent(tick=1, channel=2, data=[69, 11]),
   midi.PitchWheelEvent(tick=1, channel=2, data=[51, 11]),
   midi.PitchWheelEvent(tick=1, channel=2, data=[33, 11]),
   midi.PitchWheelEvent(tick=1, channel=2, data=[15, 11]),
   midi.PitchWheelEvent(tick=1, channel=2, data=[124, 10]),
   midi.PitchWheelEvent(tick=1, channel=2, data=[106, 10]),
   midi.PitchWheelEvent(tick=1, channel=2, data=[88, 10]),
   midi.PitchWheelEvent(tick=1, channel=2, data=[70, 10]),
   midi.PitchWheelEvent(tick=1, channel=2, data=[51, 10]),
   midi.PitchWheelEvent(tick=1, channel=2, data=[33, 10]),
   midi.PitchWheelEvent(tick=1, channel=2, data=[15, 10]),
   midi.PitchWheelEvent(tick=1, channel=2, data=[125, 9]),
   midi.PitchWheelEvent(tick=1, channel=2, data=[106, 9]),
   midi.PitchWheelEvent(tick=1, channel=2, data=[88, 9]),
   midi.PitchWheelEvent(tick=1, channel=2, data=[70, 9]),
   midi.PitchWheelEvent(tick=1, channel=2, data=[52, 9]),
   midi.PitchWheelEvent(tick=1, channel=2, data=[33, 9]),
   midi.PitchWheelEvent(tick=1, channel=2, data=[15, 9]),
   midi.PitchWheelEvent(tick=1, channel=2, data=[125, 8]),
   midi.PitchWheelEvent(tick=1, channel=2, data=[107, 8]),
   midi.PitchWheelEvent(tick=1, channel=2, data=[88, 8]),
   midi.PitchWheelEvent(tick=1, channel=2, data=[70, 8]),
   midi.PitchWheelEvent(tick=1, channel=2, data=[52, 8]),
   midi.PitchWheelEvent(tick=1, channel=2, data=[34, 8]),
   midi.PitchWheelEvent(tick=1, channel=2, data=[15, 8]),
   midi.PitchWheelEvent(tick=1, channel=2, data=[125, 7]),
   midi.PitchWheelEvent(tick=1, channel=2, data=[107, 7]),
   midi.PitchWheelEvent(tick=1, channel=2, data=[89, 7]),
   midi.PitchWheelEvent(tick=1, channel=2, data=[70, 7]),
   midi.PitchWheelEvent(tick=1, channel=2, data=[52, 7]),
   midi.PitchWheelEvent(tick=1, channel=2, data=[34, 7]),
   midi.PitchWheelEvent(tick=1, channel=2, data=[16, 7]),
   midi.PitchWheelEvent(tick=1, channel=2, data=[126, 6]),
   midi.PitchWheelEvent(tick=1, channel=2, data=[107, 6]),
   midi.PitchWheelEvent(tick=1, channel=2, data=[89, 6]),
   midi.PitchWheelEvent(tick=1, channel=2, data=[71, 6]),
   midi.PitchWheelEvent(tick=1, channel=2, data=[53, 6]),
   midi.PitchWheelEvent(tick=1, channel=2, data=[34, 6]),
   midi.PitchWheelEvent(tick=1, channel=2, data=[16, 6]),
   midi.PitchWheelEvent(tick=1, channel=2, data=[126, 5]),
   midi.PitchWheelEvent(tick=1, channel=2, data=[108, 5]),
   midi.PitchWheelEvent(tick=1, channel=2, data=[89, 5]),
   midi.PitchWheelEvent(tick=1, channel=2, data=[71, 5]),
   midi.PitchWheelEvent(tick=1, channel=2, data=[53, 5]),
   midi.PitchWheelEvent(tick=1, channel=2, data=[35, 5]),
   midi.PitchWheelEvent(tick=1, channel=2, data=[16, 5]),
   midi.PitchWheelEvent(tick=1, channel=2, data=[126, 4]),
   midi.PitchWheelEvent(tick=1, channel=2, data=[108, 4]),
   midi.PitchWheelEvent(tick=1, channel=2, data=[90, 4]),
   midi.PitchWheelEvent(tick=1, channel=2, data=[71, 4]),
   midi.PitchWheelEvent(tick=1, channel=2, data=[53, 4]),
   midi.PitchWheelEvent(tick=1, channel=2, data=[35, 4]),
   midi.PitchWheelEvent(tick=1, channel=2, data=[17, 4]),
   midi.PitchWheelEvent(tick=1, channel=2, data=[126, 3]),
   midi.PitchWheelEvent(tick=1, channel=2, data=[108, 3]),
   midi.PitchWheelEvent(tick=1, channel=2, data=[90, 3]),
   midi.PitchWheelEvent(tick=1, channel=2, data=[72, 3]),
   midi.PitchWheelEvent(tick=1, channel=2, data=[53, 3]),
   midi.PitchWheelEvent(tick=1, channel=2, data=[35, 3]),
   midi.PitchWheelEvent(tick=1, channel=2, data=[17, 3]),
   midi.PitchWheelEvent(tick=1, channel=2, data=[127, 2]),
   midi.PitchWheelEvent(tick=1, channel=2, data=[108, 2]),
   midi.PitchWheelEvent(tick=1, channel=2, data=[90, 2]),
   midi.PitchWheelEvent(tick=1, channel=2, data=[72, 2]),
   midi.PitchWheelEvent(tick=1, channel=2, data=[54, 2]),
   midi.PitchWheelEvent(tick=1, channel=2, data=[35, 2]),
   midi.PitchWheelEvent(tick=1, channel=2, data=[17, 2]),
   midi.PitchWheelEvent(tick=1, channel=2, data=[127, 1]),
   midi.PitchWheelEvent(tick=1, channel=2, data=[109, 1]),
   midi.PitchWheelEvent(tick=1, channel=2, data=[90, 1]),
   midi.PitchWheelEvent(tick=1, channel=2, data=[72, 1]),
   midi.PitchWheelEvent(tick=1, channel=2, data=[54, 1]),
   midi.PitchWheelEvent(tick=1, channel=2, data=[36, 1]),
   midi.PitchWheelEvent(tick=1, channel=2, data=[17, 1]),
   midi.PitchWheelEvent(tick=1, channel=2, data=[127, 0]),
   midi.PitchWheelEvent(tick=1, channel=2, data=[109, 0]),
   midi.PitchWheelEvent(tick=1, channel=2, data=[91, 0]),
   midi.PitchWheelEvent(tick=1, channel=2, data=[72, 0]),
   midi.PitchWheelEvent(tick=1, channel=2, data=[54, 0]),
   midi.PitchWheelEvent(tick=1, channel=2, data=[36, 0]),
   midi.PitchWheelEvent(tick=1, channel=2, data=[18, 0]),
   midi.PitchWheelEvent(tick=1, channel=2, data=[0, 0]),
   midi.NoteOnEvent(tick=1, channel=2, data=[40, 0]),
   midi.NoteOnEvent(tick=0, channel=2, data=[40, 127]),
   midi.PitchWheelEvent(tick=0, channel=2, data=[0, 64]),
   midi.NoteOnEvent(tick=60, channel=2, data=[40, 0]),
   midi.NoteOnEvent(tick=0, channel=2, data=[40, 127]),
   midi.NoteOnEvent(tick=60, channel=2, data=[40, 0]),
   midi.NoteOnEvent(tick=0, channel=2, data=[40, 127]),
   midi.NoteOnEvent(tick=40, channel=2, data=[40, 0]),
   midi.NoteOnEvent(tick=0, channel=2, data=[40, 127]),
   midi.NoteOnEvent(tick=40, channel=2, data=[40, 0]),
   midi.NoteOnEvent(tick=0, channel=2, data=[40, 127]),
   midi.NoteOnEvent(tick=40, channel=2, data=[40, 0]),
   midi.NoteOnEvent(tick=0, channel=2, data=[40, 127]),
   midi.NoteOnEvent(tick=60, channel=2, data=[40, 0]),
   midi.NoteOnEvent(tick=0, channel=2, data=[40, 127]),
   midi.NoteOnEvent(tick=60, channel=2, data=[40, 0]),
   midi.NoteOnEvent(tick=0, channel=2, data=[40, 127]),
   midi.NoteOnEvent(tick=40, channel=2, data=[40, 0]),
   midi.NoteOnEvent(tick=0, channel=2, data=[40, 127]),
   midi.NoteOnEvent(tick=40, channel=2, data=[40, 0]),
   midi.NoteOnEvent(tick=0, channel=2, data=[40, 127]),
   midi.NoteOnEvent(tick=40, channel=2, data=[40, 0]),
   midi.NoteOnEvent(tick=0, channel=2, data=[40, 127]),
   midi.NoteOnEvent(tick=60, channel=2, data=[40, 0]),
   midi.NoteOnEvent(tick=0, channel=2, data=[40, 127]),
   midi.NoteOnEvent(tick=60, channel=2, data=[40, 0]),
   midi.NoteOnEvent(tick=0, channel=2, data=[40, 127]),
   midi.NoteOnEvent(tick=40, channel=2, data=[40, 0]),
   midi.NoteOnEvent(tick=0, channel=2, data=[40, 127]),
   midi.NoteOnEvent(tick=40, channel=2, data=[40, 0]),
   midi.NoteOnEvent(tick=0, channel=2, data=[40, 127]),
   midi.NoteOnEvent(tick=40, channel=2, data=[40, 0]),
   midi.NoteOnEvent(tick=0, channel=2, data=[60, 127]),
   midi.NoteOnEvent(tick=0, channel=2, data=[53, 127]),
   midi.NoteOnEvent(tick=30, channel=2, data=[60, 0]),
   midi.NoteOnEvent(tick=0, channel=2, data=[53, 0]),
   midi.NoteOnEvent(tick=0, channel=2, data=[52, 127]),
   midi.NoteOnEvent(tick=0, channel=2, data=[59, 127]),
   midi.NoteOnEvent(tick=90, channel=2, data=[52, 0]),
   midi.NoteOnEvent(tick=0, channel=2, data=[59, 0]),
   midi.NoteOnEvent(tick=0, channel=2, data=[59, 127]),
   midi.NoteOnEvent(tick=0, channel=2, data=[52, 127]),
   midi.NoteOnEvent(tick=120, channel=2, data=[59, 0]),
   midi.NoteOnEvent(tick=0, channel=2, data=[52, 0]),
   midi.NoteOnEvent(tick=0, channel=2, data=[40, 127]),
   midi.NoteOnEvent(tick=60, channel=2, data=[40, 0]),
   midi.NoteOnEvent(tick=0, channel=2, data=[40, 127]),
   midi.NoteOnEvent(tick=60, channel=2, data=[40, 0]),
   midi.NoteOnEvent(tick=0, channel=2, data=[40, 127]),
   midi.NoteOnEvent(tick=40, channel=2, data=[40, 0]),
   midi.NoteOnEvent(tick=0, channel=2, data=[40, 127]),
   midi.NoteOnEvent(tick=40, channel=2, data=[40, 0]),
   midi.NoteOnEvent(tick=0, channel=2, data=[40, 127]),
   midi.NoteOnEvent(tick=40, channel=2, data=[40, 0]),
   midi.NoteOnEvent(tick=0, channel=2, data=[40, 127]),
   midi.NoteOnEvent(tick=60, channel=2, data=[40, 0]),
   midi.NoteOnEvent(tick=0, channel=2, data=[40, 127]),
   midi.NoteOnEvent(tick=60, channel=2, data=[40, 0]),
   midi.NoteOnEvent(tick=0, channel=2, data=[40, 127]),
   midi.NoteOnEvent(tick=40, channel=2, data=[40, 0]),
   midi.NoteOnEvent(tick=0, channel=2, data=[40, 127]),
   midi.NoteOnEvent(tick=40, channel=2, data=[40, 0]),
   midi.NoteOnEvent(tick=0, channel=2, data=[40, 127]),
   midi.NoteOnEvent(tick=40, channel=2, data=[40, 0]),
   midi.NoteOnEvent(tick=0, channel=2, data=[40, 127]),
   midi.NoteOnEvent(tick=60, channel=2, data=[40, 0]),
   midi.NoteOnEvent(tick=0, channel=2, data=[40, 127]),
   midi.NoteOnEvent(tick=60, channel=2, data=[40, 0]),
   midi.NoteOnEvent(tick=0, channel=2, data=[40, 127]),
   midi.NoteOnEvent(tick=40, channel=2, data=[40, 0]),
   midi.NoteOnEvent(tick=0, channel=2, data=[40, 127]),
   midi.NoteOnEvent(tick=40, channel=2, data=[40, 0]),
   midi.NoteOnEvent(tick=0, channel=2, data=[40, 127]),
   midi.NoteOnEvent(tick=40, channel=2, data=[40, 0]),
   midi.NoteOnEvent(tick=0, channel=2, data=[60, 127]),
   midi.NoteOnEvent(tick=0, channel=2, data=[53, 127]),
   midi.NoteOnEvent(tick=240, channel=2, data=[60, 0]),
   midi.NoteOnEvent(tick=0, channel=2, data=[53, 0]),
   midi.NoteOnEvent(tick=0, channel=2, data=[40, 127]),
   midi.NoteOnEvent(tick=60, channel=2, data=[40, 0]),
   midi.NoteOnEvent(tick=0, channel=2, data=[40, 127]),
   midi.NoteOnEvent(tick=60, channel=2, data=[40, 0]),
   midi.NoteOnEvent(tick=0, channel=2, data=[40, 127]),
   midi.NoteOnEvent(tick=40, channel=2, data=[40, 0]),
   midi.NoteOnEvent(tick=0, channel=2, data=[40, 127]),
   midi.NoteOnEvent(tick=40, channel=2, data=[40, 0]),
   midi.NoteOnEvent(tick=0, channel=2, data=[40, 127]),
   midi.NoteOnEvent(tick=40, channel=2, data=[40, 0]),
   midi.NoteOnEvent(tick=0, channel=2, data=[40, 127]),
   midi.NoteOnEvent(tick=60, channel=2, data=[40, 0]),
   midi.NoteOnEvent(tick=0, channel=2, data=[40, 127]),
   midi.NoteOnEvent(tick=60, channel=2, data=[40, 0]),
   midi.NoteOnEvent(tick=0, channel=2, data=[40, 127]),
   midi.NoteOnEvent(tick=40, channel=2, data=[40, 0]),
   midi.NoteOnEvent(tick=0, channel=2, data=[40, 127]),
   midi.NoteOnEvent(tick=40, channel=2, data=[40, 0]),
   midi.NoteOnEvent(tick=0, channel=2, data=[40, 127]),
   midi.NoteOnEvent(tick=40, channel=2, data=[40, 0]),
   midi.NoteOnEvent(tick=0, channel=2, data=[40, 127]),
   midi.NoteOnEvent(tick=60, channel=2, data=[40, 0]),
   midi.NoteOnEvent(tick=0, channel=2, data=[40, 127]),
   midi.NoteOnEvent(tick=60, channel=2, data=[40, 0]),
   midi.NoteOnEvent(tick=0, channel=2, data=[40, 127]),
   midi.NoteOnEvent(tick=40, channel=2, data=[40, 0]),
   midi.NoteOnEvent(tick=0, channel=2, data=[40, 127]),
   midi.NoteOnEvent(tick=40, channel=2, data=[40, 0]),
   midi.NoteOnEvent(tick=0, channel=2, data=[40, 127]),
   midi.NoteOnEvent(tick=40, channel=2, data=[40, 0]),
   midi.NoteOnEvent(tick=0, channel=2, data=[60, 127]),
   midi.NoteOnEvent(tick=0, channel=2, data=[53, 127]),
   midi.NoteOnEvent(tick=30, channel=2, data=[60, 0]),
   midi.NoteOnEvent(tick=0, channel=2, data=[53, 0]),
   midi.NoteOnEvent(tick=0, channel=2, data=[52, 127]),
   midi.NoteOnEvent(tick=0, channel=2, data=[59, 127]),
   midi.NoteOnEvent(tick=90, channel=2, data=[52, 0]),
   midi.NoteOnEvent(tick=0, channel=2, data=[59, 0]),
   midi.NoteOnEvent(tick=0, channel=2, data=[59, 127]),
   midi.NoteOnEvent(tick=0, channel=2, data=[52, 127]),
   midi.NoteOnEvent(tick=120, channel=2, data=[59, 0]),
   midi.NoteOnEvent(tick=0, channel=2, data=[52, 0]),
   midi.NoteOnEvent(tick=0, channel=2, data=[40, 127]),
   midi.NoteOnEvent(tick=60, channel=2, data=[40, 0]),
   midi.NoteOnEvent(tick=0, channel=2, data=[40, 127]),
   midi.NoteOnEvent(tick=60, channel=2, data=[40, 0]),
   midi.NoteOnEvent(tick=0, channel=2, data=[40, 127]),
   midi.NoteOnEvent(tick=40, channel=2, data=[40, 0]),
   midi.NoteOnEvent(tick=0, channel=2, data=[40, 127]),
   midi.NoteOnEvent(tick=40, channel=2, data=[40, 0]),
   midi.NoteOnEvent(tick=0, channel=2, data=[40, 127]),
   midi.NoteOnEvent(tick=40, channel=2, data=[40, 0]),
   midi.NoteOnEvent(tick=0, channel=2, data=[40, 127]),
   midi.NoteOnEvent(tick=60, channel=2, data=[40, 0]),
   midi.NoteOnEvent(tick=0, channel=2, data=[40, 127]),
   midi.NoteOnEvent(tick=60, channel=2, data=[40, 0]),
   midi.NoteOnEvent(tick=0, channel=2, data=[40, 127]),
   midi.NoteOnEvent(tick=40, channel=2, data=[40, 0]),
   midi.NoteOnEvent(tick=0, channel=2, data=[40, 127]),
   midi.NoteOnEvent(tick=40, channel=2, data=[40, 0]),
   midi.NoteOnEvent(tick=0, channel=2, data=[40, 127]),
   midi.NoteOnEvent(tick=40, channel=2, data=[40, 0]),
   midi.NoteOnEvent(tick=0, channel=2, data=[40, 127]),
   midi.NoteOnEvent(tick=60, channel=2, data=[40, 0]),
   midi.NoteOnEvent(tick=0, channel=2, data=[40, 127]),
   midi.NoteOnEvent(tick=60, channel=2, data=[40, 0]),
   midi.NoteOnEvent(tick=0, channel=2, data=[40, 127]),
   midi.NoteOnEvent(tick=40, channel=2, data=[40, 0]),
   midi.NoteOnEvent(tick=0, channel=2, data=[40, 127]),
   midi.NoteOnEvent(tick=40, channel=2, data=[40, 0]),
   midi.NoteOnEvent(tick=0, channel=2, data=[40, 127]),
   midi.NoteOnEvent(tick=40, channel=2, data=[40, 0]),
   midi.NoteOnEvent(tick=0, channel=2, data=[60, 127]),
   midi.NoteOnEvent(tick=0, channel=2, data=[53, 127]),
   midi.NoteOnEvent(tick=240, channel=2, data=[60, 0]),
   midi.NoteOnEvent(tick=0, channel=2, data=[53, 0]),
   midi.NoteOnEvent(tick=0, channel=2, data=[40, 127]),
   midi.NoteOnEvent(tick=60, channel=2, data=[40, 0]),
   midi.NoteOnEvent(tick=0, channel=2, data=[40, 127]),
   midi.NoteOnEvent(tick=60, channel=2, data=[40, 0]),
   midi.NoteOnEvent(tick=0, channel=2, data=[40, 127]),
   midi.NoteOnEvent(tick=40, channel=2, data=[40, 0]),
   midi.NoteOnEvent(tick=0, channel=2, data=[40, 127]),
   midi.NoteOnEvent(tick=40, channel=2, data=[40, 0]),
   midi.NoteOnEvent(tick=0, channel=2, data=[40, 127]),
   midi.NoteOnEvent(tick=40, channel=2, data=[40, 0]),
   midi.NoteOnEvent(tick=0, channel=2, data=[40, 127]),
   midi.NoteOnEvent(tick=60, channel=2, data=[40, 0]),
   midi.NoteOnEvent(tick=0, channel=2, data=[40, 127]),
   midi.NoteOnEvent(tick=60, channel=2, data=[40, 0]),
   midi.NoteOnEvent(tick=0, channel=2, data=[40, 127]),
   midi.NoteOnEvent(tick=40, channel=2, data=[40, 0]),
   midi.NoteOnEvent(tick=0, channel=2, data=[40, 127]),
   midi.NoteOnEvent(tick=40, channel=2, data=[40, 0]),
   midi.NoteOnEvent(tick=0, channel=2, data=[40, 127]),
   midi.NoteOnEvent(tick=40, channel=2, data=[40, 0]),
   midi.NoteOnEvent(tick=0, channel=2, data=[40, 127]),
   midi.NoteOnEvent(tick=60, channel=2, data=[40, 0]),
   midi.NoteOnEvent(tick=0, channel=2, data=[40, 127]),
   midi.NoteOnEvent(tick=60, channel=2, data=[40, 0]),
   midi.NoteOnEvent(tick=0, channel=2, data=[40, 127]),
   midi.NoteOnEvent(tick=40, channel=2, data=[40, 0]),
   midi.NoteOnEvent(tick=0, channel=2, data=[40, 127]),
   midi.NoteOnEvent(tick=40, channel=2, data=[40, 0]),
   midi.NoteOnEvent(tick=0, channel=2, data=[40, 127]),
   midi.NoteOnEvent(tick=40, channel=2, data=[40, 0]),
   midi.NoteOnEvent(tick=0, channel=2, data=[60, 127]),
   midi.NoteOnEvent(tick=0, channel=2, data=[53, 127]),
   midi.NoteOnEvent(tick=30, channel=2, data=[60, 0]),
   midi.NoteOnEvent(tick=0, channel=2, data=[53, 0]),
   midi.NoteOnEvent(tick=0, channel=2, data=[52, 127]),
   midi.NoteOnEvent(tick=0, channel=2, data=[59, 127]),
   midi.NoteOnEvent(tick=90, channel=2, data=[52, 0]),
   midi.NoteOnEvent(tick=0, channel=2, data=[59, 0]),
   midi.NoteOnEvent(tick=0, channel=2, data=[59, 127]),
   midi.NoteOnEvent(tick=0, channel=2, data=[52, 127]),
   midi.NoteOnEvent(tick=120, channel=2, data=[59, 0]),
   midi.NoteOnEvent(tick=0, channel=2, data=[52, 0]),
   midi.NoteOnEvent(tick=0, channel=2, data=[40, 127]),
   midi.NoteOnEvent(tick=60, channel=2, data=[40, 0]),
   midi.NoteOnEvent(tick=0, channel=2, data=[40, 127]),
   midi.NoteOnEvent(tick=60, channel=2, data=[40, 0]),
   midi.NoteOnEvent(tick=0, channel=2, data=[40, 127]),
   midi.NoteOnEvent(tick=40, channel=2, data=[40, 0]),
   midi.NoteOnEvent(tick=0, channel=2, data=[40, 127]),
   midi.NoteOnEvent(tick=40, channel=2, data=[40, 0]),
   midi.NoteOnEvent(tick=0, channel=2, data=[40, 127]),
   midi.NoteOnEvent(tick=40, channel=2, data=[40, 0]),
   midi.NoteOnEvent(tick=0, channel=2, data=[40, 127]),
   midi.NoteOnEvent(tick=60, channel=2, data=[40, 0]),
   midi.NoteOnEvent(tick=0, channel=2, data=[40, 127]),
   midi.NoteOnEvent(tick=60, channel=2, data=[40, 0]),
   midi.NoteOnEvent(tick=0, channel=2, data=[40, 127]),
   midi.NoteOnEvent(tick=40, channel=2, data=[40, 0]),
   midi.NoteOnEvent(tick=0, channel=2, data=[40, 127]),
   midi.NoteOnEvent(tick=40, channel=2, data=[40, 0]),
   midi.NoteOnEvent(tick=0, channel=2, data=[40, 127]),
   midi.NoteOnEvent(tick=40, channel=2, data=[40, 0]),
   midi.NoteOnEvent(tick=0, channel=2, data=[40, 127]),
   midi.NoteOnEvent(tick=60, channel=2, data=[40, 0]),
   midi.NoteOnEvent(tick=0, channel=2, data=[40, 127]),
   midi.NoteOnEvent(tick=60, channel=2, data=[40, 0]),
   midi.NoteOnEvent(tick=0, channel=2, data=[40, 127]),
   midi.NoteOnEvent(tick=40, channel=2, data=[40, 0]),
   midi.NoteOnEvent(tick=0, channel=2, data=[40, 127]),
   midi.NoteOnEvent(tick=40, channel=2, data=[40, 0]),
   midi.NoteOnEvent(tick=0, channel=2, data=[40, 127]),
   midi.NoteOnEvent(tick=40, channel=2, data=[40, 0]),
   midi.NoteOnEvent(tick=0, channel=2, data=[60, 127]),
   midi.NoteOnEvent(tick=0, channel=2, data=[53, 127]),
   midi.NoteOnEvent(tick=240, channel=2, data=[60, 0]),
   midi.NoteOnEvent(tick=0, channel=2, data=[53, 0]),
   midi.NoteOnEvent(tick=0, channel=2, data=[40, 127]),
   midi.NoteOnEvent(tick=60, channel=2, data=[40, 0]),
   midi.NoteOnEvent(tick=0, channel=2, data=[40, 127]),
   midi.NoteOnEvent(tick=60, channel=2, data=[40, 0]),
   midi.NoteOnEvent(tick=0, channel=2, data=[40, 127]),
   midi.NoteOnEvent(tick=40, channel=2, data=[40, 0]),
   midi.NoteOnEvent(tick=0, channel=2, data=[40, 127]),
   midi.NoteOnEvent(tick=40, channel=2, data=[40, 0]),
   midi.NoteOnEvent(tick=0, channel=2, data=[40, 127]),
   midi.NoteOnEvent(tick=40, channel=2, data=[40, 0]),
   midi.NoteOnEvent(tick=0, channel=2, data=[40, 127]),
   midi.NoteOnEvent(tick=60, channel=2, data=[40, 0]),
   midi.NoteOnEvent(tick=0, channel=2, data=[40, 127]),
   midi.NoteOnEvent(tick=60, channel=2, data=[40, 0]),
   midi.NoteOnEvent(tick=0, channel=2, data=[40, 127]),
   midi.NoteOnEvent(tick=40, channel=2, data=[40, 0]),
   midi.NoteOnEvent(tick=0, channel=2, data=[40, 127]),
   midi.NoteOnEvent(tick=40, channel=2, data=[40, 0]),
   midi.NoteOnEvent(tick=0, channel=2, data=[40, 127]),
   midi.NoteOnEvent(tick=40, channel=2, data=[40, 0]),
   midi.NoteOnEvent(tick=0, channel=2, data=[40, 127]),
   midi.NoteOnEvent(tick=60, channel=2, data=[40, 0]),
   midi.NoteOnEvent(tick=0, channel=2, data=[40, 127]),
   midi.NoteOnEvent(tick=60, channel=2, data=[40, 0]),
   midi.NoteOnEvent(tick=0, channel=2, data=[40, 127]),
   midi.NoteOnEvent(tick=40, channel=2, data=[40, 0]),
   midi.NoteOnEvent(tick=0, channel=2, data=[40, 127]),
   midi.NoteOnEvent(tick=40, channel=2, data=[40, 0]),
   midi.NoteOnEvent(tick=0, channel=2, data=[40, 127]),
   midi.NoteOnEvent(tick=40, channel=2, data=[40, 0]),
   midi.NoteOnEvent(tick=0, channel=2, data=[60, 127]),
   midi.NoteOnEvent(tick=0, channel=2, data=[53, 127]),
   midi.NoteOnEvent(tick=30, channel=2, data=[60, 0]),
   midi.NoteOnEvent(tick=0, channel=2, data=[53, 0]),
   midi.NoteOnEvent(tick=0, channel=2, data=[52, 127]),
   midi.NoteOnEvent(tick=0, channel=2, data=[59, 127]),
   midi.NoteOnEvent(tick=90, channel=2, data=[52, 0]),
   midi.NoteOnEvent(tick=0, channel=2, data=[59, 0]),
   midi.NoteOnEvent(tick=0, channel=2, data=[59, 127]),
   midi.NoteOnEvent(tick=0, channel=2, data=[52, 127]),
   midi.NoteOnEvent(tick=120, channel=2, data=[59, 0]),
   midi.NoteOnEvent(tick=0, channel=2, data=[52, 0]),
   midi.NoteOnEvent(tick=0, channel=2, data=[40, 127]),
   midi.NoteOnEvent(tick=60, channel=2, data=[40, 0]),
   midi.NoteOnEvent(tick=0, channel=2, data=[40, 127]),
   midi.NoteOnEvent(tick=60, channel=2, data=[40, 0]),
   midi.NoteOnEvent(tick=0, channel=2, data=[40, 127]),
   midi.NoteOnEvent(tick=40, channel=2, data=[40, 0]),
   midi.NoteOnEvent(tick=0, channel=2, data=[40, 127]),
   midi.NoteOnEvent(tick=40, channel=2, data=[40, 0]),
   midi.NoteOnEvent(tick=0, channel=2, data=[40, 127]),
   midi.NoteOnEvent(tick=40, channel=2, data=[40, 0]),
   midi.NoteOnEvent(tick=0, channel=2, data=[40, 127]),
   midi.NoteOnEvent(tick=60, channel=2, data=[40, 0]),
   midi.NoteOnEvent(tick=0, channel=2, data=[40, 127]),
   midi.NoteOnEvent(tick=60, channel=2, data=[40, 0]),
   midi.NoteOnEvent(tick=0, channel=2, data=[40, 127]),
   midi.NoteOnEvent(tick=40, channel=2, data=[40, 0]),
   midi.NoteOnEvent(tick=0, channel=2, data=[40, 127]),
   midi.NoteOnEvent(tick=40, channel=2, data=[40, 0]),
   midi.NoteOnEvent(tick=0, channel=2, data=[40, 127]),
   midi.NoteOnEvent(tick=40, channel=2, data=[40, 0]),
   midi.NoteOnEvent(tick=0, channel=2, data=[40, 127]),
   midi.NoteOnEvent(tick=60, channel=2, data=[40, 0]),
   midi.NoteOnEvent(tick=0, channel=2, data=[40, 127]),
   midi.NoteOnEvent(tick=60, channel=2, data=[40, 0]),
   midi.NoteOnEvent(tick=0, channel=2, data=[40, 127]),
   midi.NoteOnEvent(tick=40, channel=2, data=[40, 0]),
   midi.NoteOnEvent(tick=0, channel=2, data=[40, 127]),
   midi.NoteOnEvent(tick=40, channel=2, data=[40, 0]),
   midi.NoteOnEvent(tick=0, channel=2, data=[40, 127]),
   midi.NoteOnEvent(tick=40, channel=2, data=[40, 0]),
   midi.NoteOnEvent(tick=0, channel=2, data=[60, 127]),
   midi.NoteOnEvent(tick=0, channel=2, data=[53, 127]),
   midi.NoteOnEvent(tick=240, channel=2, data=[60, 0]),
   midi.NoteOnEvent(tick=0, channel=2, data=[53, 0]),
   midi.NoteOnEvent(tick=0, channel=2, data=[52, 127]),
   midi.NoteOnEvent(tick=40, channel=2, data=[52, 0]),
   midi.NoteOnEvent(tick=0, channel=2, data=[50, 127]),
   midi.NoteOnEvent(tick=40, channel=2, data=[50, 0]),
   midi.NoteOnEvent(tick=0, channel=2, data=[47, 127]),
   midi.NoteOnEvent(tick=40, channel=2, data=[47, 0]),
   midi.NoteOnEvent(tick=0, channel=2, data=[50, 127]),
   midi.NoteOnEvent(tick=40, channel=2, data=[50, 0]),
   midi.NoteOnEvent(tick=0, channel=2, data=[47, 127]),
   midi.NoteOnEvent(tick=40, channel=2, data=[47, 0]),
   midi.NoteOnEvent(tick=0, channel=2, data=[46, 127]),
   midi.NoteOnEvent(tick=40, channel=2, data=[46, 0]),
   midi.NoteOnEvent(tick=0, channel=2, data=[45, 127]),
   midi.NoteOnEvent(tick=40, channel=2, data=[45, 0]),
   midi.NoteOnEvent(tick=0, channel=2, data=[43, 127]),
   midi.NoteOnEvent(tick=40, channel=2, data=[43, 0]),
   midi.NoteOnEvent(tick=0, channel=2, data=[45, 127]),
   midi.NoteOnEvent(tick=40, channel=2, data=[45, 0]),
   midi.NoteOnEvent(tick=0, channel=2, data=[40, 127]),
   midi.NoteOnEvent(tick=40, channel=2, data=[40, 0]),
   midi.NoteOnEvent(tick=0, channel=2, data=[43, 127]),
   midi.NoteOnEvent(tick=40, channel=2, data=[43, 0]),
   midi.NoteOnEvent(tick=0, channel=2, data=[45, 127]),
   midi.NoteOnEvent(tick=40, channel=2, data=[45, 0]),
   midi.NoteOnEvent(tick=0, channel=2, data=[52, 127]),
   midi.NoteOnEvent(tick=40, channel=2, data=[52, 0]),
   midi.NoteOnEvent(tick=0, channel=2, data=[50, 127]),
   midi.NoteOnEvent(tick=40, channel=2, data=[50, 0]),
   midi.NoteOnEvent(tick=0, channel=2, data=[47, 127]),
   midi.NoteOnEvent(tick=40, channel=2, data=[47, 0]),
   midi.NoteOnEvent(tick=0, channel=2, data=[50, 127]),
   midi.NoteOnEvent(tick=40, channel=2, data=[50, 0]),
   midi.NoteOnEvent(tick=0, channel=2, data=[47, 127]),
   midi.NoteOnEvent(tick=40, channel=2, data=[47, 0]),
   midi.NoteOnEvent(tick=0, channel=2, data=[46, 127]),
   midi.NoteOnEvent(tick=40, channel=2, data=[46, 0]),
   midi.NoteOnEvent(tick=0, channel=2, data=[45, 127]),
   midi.NoteOnEvent(tick=40, channel=2, data=[45, 0]),
   midi.NoteOnEvent(tick=0, channel=2, data=[43, 127]),
   midi.NoteOnEvent(tick=40, channel=2, data=[43, 0]),
   midi.NoteOnEvent(tick=0, channel=2, data=[45, 127]),
   midi.NoteOnEvent(tick=40, channel=2, data=[45, 0]),
   midi.NoteOnEvent(tick=0, channel=2, data=[40, 127]),
   midi.NoteOnEvent(tick=40, channel=2, data=[40, 0]),
   midi.NoteOnEvent(tick=0, channel=2, data=[43, 127]),
   midi.NoteOnEvent(tick=40, channel=2, data=[43, 0]),
   midi.NoteOnEvent(tick=0, channel=2, data=[45, 127]),
   midi.NoteOnEvent(tick=40, channel=2, data=[45, 0]),
   midi.NoteOnEvent(tick=0, channel=2, data=[40, 127]),
   midi.NoteOnEvent(tick=0, channel=2, data=[52, 127]),
   midi.NoteOnEvent(tick=60, channel=2, data=[40, 0]),
   midi.NoteOnEvent(tick=0, channel=2, data=[52, 0]),
   midi.NoteOnEvent(tick=0, channel=2, data=[50, 127]),
   midi.NoteOnEvent(tick=60, channel=2, data=[50, 0]),
   midi.NoteOnEvent(tick=0, channel=2, data=[40, 127]),
   midi.NoteOnEvent(tick=0, channel=2, data=[52, 127]),
   midi.NoteOnEvent(tick=60, channel=2, data=[40, 0]),
   midi.NoteOnEvent(tick=0, channel=2, data=[52, 0]),
   midi.NoteOnEvent(tick=0, channel=2, data=[50, 127]),
   midi.NoteOnEvent(tick=60, channel=2, data=[50, 0]),
   midi.NoteOnEvent(tick=0, channel=2, data=[40, 127]),
   midi.NoteOnEvent(tick=0, channel=2, data=[52, 127]),
   midi.NoteOnEvent(tick=60, channel=2, data=[40, 0]),
   midi.NoteOnEvent(tick=0, channel=2, data=[52, 0]),
   midi.NoteOnEvent(tick=0, channel=2, data=[50, 127]),
   midi.NoteOnEvent(tick=60, channel=2, data=[50, 0]),
   midi.NoteOnEvent(tick=0, channel=2, data=[40, 127]),
   midi.NoteOnEvent(tick=0, channel=2, data=[52, 127]),
   midi.NoteOnEvent(tick=60, channel=2, data=[40, 0]),
   midi.NoteOnEvent(tick=0, channel=2, data=[52, 0]),
   midi.NoteOnEvent(tick=0, channel=2, data=[50, 127]),
   midi.NoteOnEvent(tick=60, channel=2, data=[50, 0]),
   midi.NoteOnEvent(tick=0, channel=2, data=[40, 127]),
   midi.NoteOnEvent(tick=0, channel=2, data=[52, 127]),
   midi.NoteOnEvent(tick=60, channel=2, data=[40, 0]),
   midi.NoteOnEvent(tick=0, channel=2, data=[52, 0]),
   midi.NoteOnEvent(tick=0, channel=2, data=[50, 127]),
   midi.NoteOnEvent(tick=60, channel=2, data=[50, 0]),
   midi.NoteOnEvent(tick=0, channel=2, data=[40, 127]),
   midi.NoteOnEvent(tick=0, channel=2, data=[52, 127]),
   midi.NoteOnEvent(tick=60, channel=2, data=[40, 0]),
   midi.NoteOnEvent(tick=0, channel=2, data=[52, 0]),
   midi.NoteOnEvent(tick=0, channel=2, data=[50, 127]),
   midi.NoteOnEvent(tick=60, channel=2, data=[50, 0]),
   midi.NoteOnEvent(tick=0, channel=2, data=[40, 127]),
   midi.NoteOnEvent(tick=0, channel=2, data=[52, 127]),
   midi.NoteOnEvent(tick=60, channel=2, data=[40, 0]),
   midi.NoteOnEvent(tick=0, channel=2, data=[52, 0]),
   midi.NoteOnEvent(tick=0, channel=2, data=[50, 127]),
   midi.NoteOnEvent(tick=60, channel=2, data=[50, 0]),
   midi.NoteOnEvent(tick=0, channel=2, data=[47, 127]),
   midi.NoteOnEvent(tick=0, channel=2, data=[50, 127]),
   midi.NoteOnEvent(tick=60, channel=2, data=[47, 0]),
   midi.NoteOnEvent(tick=0, channel=2, data=[50, 0]),
   midi.NoteOnEvent(tick=0, channel=2, data=[50, 127]),
   midi.NoteOnEvent(tick=60, channel=2, data=[50, 0]),
   midi.NoteOnEvent(tick=0, channel=2, data=[40, 127]),
   midi.NoteOnEvent(tick=0, channel=2, data=[52, 127]),
   midi.NoteOnEvent(tick=60, channel=2, data=[40, 0]),
   midi.NoteOnEvent(tick=0, channel=2, data=[52, 0]),
   midi.NoteOnEvent(tick=0, channel=2, data=[50, 127]),
   midi.NoteOnEvent(tick=60, channel=2, data=[50, 0]),
   midi.NoteOnEvent(tick=0, channel=2, data=[40, 127]),
   midi.NoteOnEvent(tick=0, channel=2, data=[52, 127]),
   midi.NoteOnEvent(tick=60, channel=2, data=[40, 0]),
   midi.NoteOnEvent(tick=0, channel=2, data=[52, 0]),
   midi.NoteOnEvent(tick=0, channel=2, data=[50, 127]),
   midi.NoteOnEvent(tick=60, channel=2, data=[50, 0]),
   midi.NoteOnEvent(tick=0, channel=2, data=[40, 127]),
   midi.NoteOnEvent(tick=0, channel=2, data=[52, 127]),
   midi.NoteOnEvent(tick=60, channel=2, data=[40, 0]),
   midi.NoteOnEvent(tick=0, channel=2, data=[52, 0]),
   midi.NoteOnEvent(tick=0, channel=2, data=[50, 127]),
   midi.NoteOnEvent(tick=60, channel=2, data=[50, 0]),
   midi.NoteOnEvent(tick=0, channel=2, data=[40, 127]),
   midi.NoteOnEvent(tick=0, channel=2, data=[52, 127]),
   midi.NoteOnEvent(tick=60, channel=2, data=[40, 0]),
   midi.NoteOnEvent(tick=0, channel=2, data=[52, 0]),
   midi.NoteOnEvent(tick=0, channel=2, data=[50, 127]),
   midi.NoteOnEvent(tick=60, channel=2, data=[50, 0]),
   midi.NoteOnEvent(tick=0, channel=2, data=[47, 127]),
   midi.NoteOnEvent(tick=60, channel=2, data=[47, 0]),
   midi.NoteOnEvent(tick=0, channel=2, data=[50, 127]),
   midi.NoteOnEvent(tick=60, channel=2, data=[50, 0]),
   midi.NoteOnEvent(tick=0, channel=2, data=[68, 127]),
   midi.NoteOnEvent(tick=120, channel=2, data=[68, 0]),
   midi.NoteOnEvent(tick=0, channel=2, data=[57, 127]),
   midi.NoteOnEvent(tick=60, channel=2, data=[57, 0]),
   midi.NoteOnEvent(tick=0, channel=2, data=[55, 127]),
   midi.NoteOnEvent(tick=60, channel=2, data=[55, 0]),
   midi.NoteOnEvent(tick=0, channel=2, data=[52, 127]),
   midi.NoteOnEvent(tick=60, channel=2, data=[52, 0]),
   midi.NoteOnEvent(tick=0, channel=2, data=[50, 127]),
   midi.NoteOnEvent(tick=60, channel=2, data=[50, 0]),
   midi.NoteOnEvent(tick=0, channel=2, data=[40, 127]),
   midi.NoteOnEvent(tick=0, channel=2, data=[52, 127]),
   midi.NoteOnEvent(tick=60, channel=2, data=[40, 0]),
   midi.NoteOnEvent(tick=0, channel=2, data=[52, 0]),
   midi.NoteOnEvent(tick=0, channel=2, data=[50, 127]),
   midi.NoteOnEvent(tick=60, channel=2, data=[50, 0]),
   midi.NoteOnEvent(tick=0, channel=2, data=[40, 127]),
   midi.NoteOnEvent(tick=0, channel=2, data=[52, 127]),
   midi.NoteOnEvent(tick=60, channel=2, data=[40, 0]),
   midi.NoteOnEvent(tick=0, channel=2, data=[52, 0]),
   midi.NoteOnEvent(tick=0, channel=2, data=[50, 127]),
   midi.NoteOnEvent(tick=60, channel=2, data=[50, 0]),
   midi.NoteOnEvent(tick=0, channel=2, data=[40, 127]),
   midi.NoteOnEvent(tick=0, channel=2, data=[52, 127]),
   midi.NoteOnEvent(tick=60, channel=2, data=[40, 0]),
   midi.NoteOnEvent(tick=0, channel=2, data=[52, 0]),
   midi.NoteOnEvent(tick=0, channel=2, data=[50, 127]),
   midi.NoteOnEvent(tick=60, channel=2, data=[50, 0]),
   midi.NoteOnEvent(tick=0, channel=2, data=[47, 127]),
   midi.NoteOnEvent(tick=0, channel=2, data=[50, 127]),
   midi.NoteOnEvent(tick=60, channel=2, data=[47, 0]),
   midi.NoteOnEvent(tick=0, channel=2, data=[50, 0]),
   midi.NoteOnEvent(tick=0, channel=2, data=[50, 127]),
   midi.NoteOnEvent(tick=60, channel=2, data=[50, 0]),
   midi.NoteOnEvent(tick=0, channel=2, data=[40, 127]),
   midi.NoteOnEvent(tick=0, channel=2, data=[52, 127]),
   midi.NoteOnEvent(tick=60, channel=2, data=[40, 0]),
   midi.NoteOnEvent(tick=0, channel=2, data=[52, 0]),
   midi.NoteOnEvent(tick=0, channel=2, data=[50, 127]),
   midi.NoteOnEvent(tick=60, channel=2, data=[50, 0]),
   midi.NoteOnEvent(tick=0, channel=2, data=[40, 127]),
   midi.NoteOnEvent(tick=0, channel=2, data=[52, 127]),
   midi.NoteOnEvent(tick=60, channel=2, data=[40, 0]),
   midi.NoteOnEvent(tick=0, channel=2, data=[52, 0]),
   midi.NoteOnEvent(tick=0, channel=2, data=[50, 127]),
   midi.NoteOnEvent(tick=60, channel=2, data=[50, 0]),
   midi.NoteOnEvent(tick=0, channel=2, data=[40, 127]),
   midi.NoteOnEvent(tick=0, channel=2, data=[52, 127]),
   midi.NoteOnEvent(tick=60, channel=2, data=[40, 0]),
   midi.NoteOnEvent(tick=0, channel=2, data=[52, 0]),
   midi.NoteOnEvent(tick=0, channel=2, data=[50, 127]),
   midi.NoteOnEvent(tick=60, channel=2, data=[50, 0]),
   midi.NoteOnEvent(tick=0, channel=2, data=[47, 127]),
   midi.NoteOnEvent(tick=0, channel=2, data=[50, 127]),
   midi.NoteOnEvent(tick=60, channel=2, data=[47, 0]),
   midi.NoteOnEvent(tick=0, channel=2, data=[50, 0]),
   midi.NoteOnEvent(tick=0, channel=2, data=[50, 127]),
   midi.NoteOnEvent(tick=60, channel=2, data=[50, 0]),
   midi.NoteOnEvent(tick=0, channel=2, data=[48, 127]),
   midi.NoteOnEvent(tick=0, channel=2, data=[55, 127]),
   midi.NoteOnEvent(tick=120, channel=2, data=[48, 0]),
   midi.NoteOnEvent(tick=0, channel=2, data=[55, 0]),
   midi.NoteOnEvent(tick=0, channel=2, data=[43, 127]),
   midi.NoteOnEvent(tick=0, channel=2, data=[50, 127]),
   midi.NoteOnEvent(tick=120, channel=2, data=[43, 0]),
   midi.NoteOnEvent(tick=0, channel=2, data=[50, 0]),
   midi.NoteOnEvent(tick=0, channel=2, data=[57, 127]),
   midi.NoteOnEvent(tick=0, channel=2, data=[50, 127]),
   midi.NoteOnEvent(tick=120, channel=2, data=[57, 0]),
   midi.NoteOnEvent(tick=0, channel=2, data=[50, 0]),
   midi.NoteOnEvent(tick=0, channel=2, data=[48, 127]),
   midi.NoteOnEvent(tick=0, channel=2, data=[55, 127]),
   midi.NoteOnEvent(tick=120, channel=2, data=[48, 0]),
   midi.NoteOnEvent(tick=0, channel=2, data=[55, 0]),
   midi.NoteOnEvent(tick=0, channel=2, data=[40, 127]),
   midi.NoteOnEvent(tick=0, channel=2, data=[52, 127]),
   midi.NoteOnEvent(tick=60, channel=2, data=[40, 0]),
   midi.NoteOnEvent(tick=0, channel=2, data=[52, 0]),
   midi.NoteOnEvent(tick=0, channel=2, data=[50, 127]),
   midi.NoteOnEvent(tick=60, channel=2, data=[50, 0]),
   midi.NoteOnEvent(tick=0, channel=2, data=[40, 127]),
   midi.NoteOnEvent(tick=0, channel=2, data=[52, 127]),
   midi.NoteOnEvent(tick=60, channel=2, data=[40, 0]),
   midi.NoteOnEvent(tick=0, channel=2, data=[52, 0]),
   midi.NoteOnEvent(tick=0, channel=2, data=[50, 127]),
   midi.NoteOnEvent(tick=60, channel=2, data=[50, 0]),
   midi.NoteOnEvent(tick=0, channel=2, data=[40, 127]),
   midi.NoteOnEvent(tick=0, channel=2, data=[52, 127]),
   midi.NoteOnEvent(tick=60, channel=2, data=[40, 0]),
   midi.NoteOnEvent(tick=0, channel=2, data=[52, 0]),
   midi.NoteOnEvent(tick=0, channel=2, data=[50, 127]),
   midi.NoteOnEvent(tick=60, channel=2, data=[50, 0]),
   midi.NoteOnEvent(tick=0, channel=2, data=[40, 127]),
   midi.NoteOnEvent(tick=0, channel=2, data=[52, 127]),
   midi.NoteOnEvent(tick=60, channel=2, data=[40, 0]),
   midi.NoteOnEvent(tick=0, channel=2, data=[52, 0]),
   midi.NoteOnEvent(tick=0, channel=2, data=[50, 127]),
   midi.NoteOnEvent(tick=60, channel=2, data=[50, 0]),
   midi.NoteOnEvent(tick=0, channel=2, data=[40, 127]),
   midi.NoteOnEvent(tick=0, channel=2, data=[52, 127]),
   midi.NoteOnEvent(tick=60, channel=2, data=[40, 0]),
   midi.NoteOnEvent(tick=0, channel=2, data=[52, 0]),
   midi.NoteOnEvent(tick=0, channel=2, data=[50, 127]),
   midi.NoteOnEvent(tick=60, channel=2, data=[50, 0]),
   midi.NoteOnEvent(tick=0, channel=2, data=[40, 127]),
   midi.NoteOnEvent(tick=0, channel=2, data=[52, 127]),
   midi.NoteOnEvent(tick=60, channel=2, data=[40, 0]),
   midi.NoteOnEvent(tick=0, channel=2, data=[52, 0]),
   midi.NoteOnEvent(tick=0, channel=2, data=[50, 127]),
   midi.NoteOnEvent(tick=60, channel=2, data=[50, 0]),
   midi.NoteOnEvent(tick=0, channel=2, data=[40, 127]),
   midi.NoteOnEvent(tick=0, channel=2, data=[52, 127]),
   midi.NoteOnEvent(tick=60, channel=2, data=[40, 0]),
   midi.NoteOnEvent(tick=0, channel=2, data=[52, 0]),
   midi.NoteOnEvent(tick=0, channel=2, data=[50, 127]),
   midi.NoteOnEvent(tick=60, channel=2, data=[50, 0]),
   midi.NoteOnEvent(tick=0, channel=2, data=[47, 127]),
   midi.NoteOnEvent(tick=0, channel=2, data=[50, 127]),
   midi.NoteOnEvent(tick=60, channel=2, data=[47, 0]),
   midi.NoteOnEvent(tick=0, channel=2, data=[50, 0]),
   midi.NoteOnEvent(tick=0, channel=2, data=[50, 127]),
   midi.NoteOnEvent(tick=60, channel=2, data=[50, 0]),
   midi.NoteOnEvent(tick=0, channel=2, data=[40, 127]),
   midi.NoteOnEvent(tick=0, channel=2, data=[52, 127]),
   midi.NoteOnEvent(tick=60, channel=2, data=[40, 0]),
   midi.NoteOnEvent(tick=0, channel=2, data=[52, 0]),
   midi.NoteOnEvent(tick=0, channel=2, data=[50, 127]),
   midi.NoteOnEvent(tick=60, channel=2, data=[50, 0]),
   midi.NoteOnEvent(tick=0, channel=2, data=[40, 127]),
   midi.NoteOnEvent(tick=0, channel=2, data=[52, 127]),
   midi.NoteOnEvent(tick=60, channel=2, data=[40, 0]),
   midi.NoteOnEvent(tick=0, channel=2, data=[52, 0]),
   midi.NoteOnEvent(tick=0, channel=2, data=[50, 127]),
   midi.NoteOnEvent(tick=60, channel=2, data=[50, 0]),
   midi.NoteOnEvent(tick=0, channel=2, data=[40, 127]),
   midi.NoteOnEvent(tick=0, channel=2, data=[52, 127]),
   midi.NoteOnEvent(tick=60, channel=2, data=[40, 0]),
   midi.NoteOnEvent(tick=0, channel=2, data=[52, 0]),
   midi.NoteOnEvent(tick=0, channel=2, data=[50, 127]),
   midi.NoteOnEvent(tick=60, channel=2, data=[50, 0]),
   midi.NoteOnEvent(tick=0, channel=2, data=[40, 127]),
   midi.NoteOnEvent(tick=0, channel=2, data=[52, 127]),
   midi.NoteOnEvent(tick=60, channel=2, data=[40, 0]),
   midi.NoteOnEvent(tick=0, channel=2, data=[52, 0]),
   midi.NoteOnEvent(tick=0, channel=2, data=[50, 127]),
   midi.NoteOnEvent(tick=60, channel=2, data=[50, 0]),
   midi.NoteOnEvent(tick=0, channel=2, data=[47, 127]),
   midi.NoteOnEvent(tick=60, channel=2, data=[47, 0]),
   midi.NoteOnEvent(tick=0, channel=2, data=[50, 127]),
   midi.NoteOnEvent(tick=60, channel=2, data=[50, 0]),
   midi.NoteOnEvent(tick=0, channel=2, data=[52, 127]),
   midi.NoteOnEvent(tick=60, channel=2, data=[52, 0]),
   midi.NoteOnEvent(tick=0, channel=2, data=[50, 127]),
   midi.NoteOnEvent(tick=60, channel=2, data=[50, 0]),
   midi.NoteOnEvent(tick=0, channel=2, data=[57, 127]),
   midi.NoteOnEvent(tick=60, channel=2, data=[57, 0]),
   midi.NoteOnEvent(tick=0, channel=2, data=[55, 127]),
   midi.NoteOnEvent(tick=60, channel=2, data=[55, 0]),
   midi.NoteOnEvent(tick=0, channel=2, data=[52, 127]),
   midi.NoteOnEvent(tick=60, channel=2, data=[52, 0]),
   midi.NoteOnEvent(tick=0, channel=2, data=[50, 127]),
   midi.NoteOnEvent(tick=60, channel=2, data=[50, 0]),
   midi.NoteOnEvent(tick=0, channel=2, data=[40, 127]),
   midi.NoteOnEvent(tick=0, channel=2, data=[52, 127]),
   midi.NoteOnEvent(tick=60, channel=2, data=[40, 0]),
   midi.NoteOnEvent(tick=0, channel=2, data=[52, 0]),
   midi.NoteOnEvent(tick=0, channel=2, data=[50, 127]),
   midi.NoteOnEvent(tick=60, channel=2, data=[50, 0]),
   midi.NoteOnEvent(tick=0, channel=2, data=[40, 127]),
   midi.NoteOnEvent(tick=0, channel=2, data=[52, 127]),
   midi.NoteOnEvent(tick=60, channel=2, data=[40, 0]),
   midi.NoteOnEvent(tick=0, channel=2, data=[52, 0]),
   midi.NoteOnEvent(tick=0, channel=2, data=[50, 127]),
   midi.NoteOnEvent(tick=60, channel=2, data=[50, 0]),
   midi.NoteOnEvent(tick=0, channel=2, data=[40, 127]),
   midi.NoteOnEvent(tick=0, channel=2, data=[52, 127]),
   midi.NoteOnEvent(tick=60, channel=2, data=[40, 0]),
   midi.NoteOnEvent(tick=0, channel=2, data=[52, 0]),
   midi.NoteOnEvent(tick=0, channel=2, data=[50, 127]),
   midi.NoteOnEvent(tick=60, channel=2, data=[50, 0]),
   midi.NoteOnEvent(tick=0, channel=2, data=[47, 127]),
   midi.NoteOnEvent(tick=0, channel=2, data=[50, 127]),
   midi.NoteOnEvent(tick=60, channel=2, data=[47, 0]),
   midi.NoteOnEvent(tick=0, channel=2, data=[50, 0]),
   midi.NoteOnEvent(tick=0, channel=2, data=[50, 127]),
   midi.NoteOnEvent(tick=60, channel=2, data=[50, 0]),
   midi.NoteOnEvent(tick=0, channel=2, data=[40, 127]),
   midi.NoteOnEvent(tick=0, channel=2, data=[52, 127]),
   midi.NoteOnEvent(tick=60, channel=2, data=[40, 0]),
   midi.NoteOnEvent(tick=0, channel=2, data=[52, 0]),
   midi.NoteOnEvent(tick=0, channel=2, data=[50, 127]),
   midi.NoteOnEvent(tick=60, channel=2, data=[50, 0]),
   midi.NoteOnEvent(tick=0, channel=2, data=[40, 127]),
   midi.NoteOnEvent(tick=0, channel=2, data=[52, 127]),
   midi.NoteOnEvent(tick=60, channel=2, data=[40, 0]),
   midi.NoteOnEvent(tick=0, channel=2, data=[52, 0]),
   midi.NoteOnEvent(tick=0, channel=2, data=[50, 127]),
   midi.NoteOnEvent(tick=60, channel=2, data=[50, 0]),
   midi.NoteOnEvent(tick=0, channel=2, data=[40, 127]),
   midi.NoteOnEvent(tick=0, channel=2, data=[52, 127]),
   midi.NoteOnEvent(tick=60, channel=2, data=[40, 0]),
   midi.NoteOnEvent(tick=0, channel=2, data=[52, 0]),
   midi.NoteOnEvent(tick=0, channel=2, data=[50, 127]),
   midi.NoteOnEvent(tick=60, channel=2, data=[50, 0]),
   midi.NoteOnEvent(tick=0, channel=2, data=[47, 127]),
   midi.NoteOnEvent(tick=0, channel=2, data=[50, 127]),
   midi.NoteOnEvent(tick=60, channel=2, data=[47, 0]),
   midi.NoteOnEvent(tick=0, channel=2, data=[50, 0]),
   midi.NoteOnEvent(tick=0, channel=2, data=[50, 127]),
   midi.NoteOnEvent(tick=60, channel=2, data=[50, 0]),
   midi.NoteOnEvent(tick=0, channel=2, data=[48, 127]),
   midi.NoteOnEvent(tick=0, channel=2, data=[55, 127]),
   midi.NoteOnEvent(tick=120, channel=2, data=[48, 0]),
   midi.NoteOnEvent(tick=0, channel=2, data=[55, 0]),
   midi.NoteOnEvent(tick=0, channel=2, data=[43, 127]),
   midi.NoteOnEvent(tick=0, channel=2, data=[50, 127]),
   midi.NoteOnEvent(tick=120, channel=2, data=[43, 0]),
   midi.NoteOnEvent(tick=0, channel=2, data=[50, 0]),
   midi.NoteOnEvent(tick=0, channel=2, data=[57, 127]),
   midi.NoteOnEvent(tick=0, channel=2, data=[50, 127]),
   midi.NoteOnEvent(tick=120, channel=2, data=[57, 0]),
   midi.NoteOnEvent(tick=0, channel=2, data=[50, 0]),
   midi.NoteOnEvent(tick=0, channel=2, data=[48, 127]),
   midi.NoteOnEvent(tick=0, channel=2, data=[55, 127]),
   midi.NoteOnEvent(tick=120, channel=2, data=[48, 0]),
   midi.NoteOnEvent(tick=0, channel=2, data=[55, 0]),
   midi.NoteOnEvent(tick=0, channel=2, data=[40, 127]),
   midi.NoteOnEvent(tick=40, channel=2, data=[40, 0]),
   midi.NoteOnEvent(tick=0, channel=2, data=[40, 127]),
   midi.NoteOnEvent(tick=40, channel=2, data=[40, 0]),
   midi.NoteOnEvent(tick=0, channel=2, data=[40, 127]),
   midi.NoteOnEvent(tick=40, channel=2, data=[40, 0]),
   midi.NoteOnEvent(tick=0, channel=2, data=[59, 127]),
   midi.NoteOnEvent(tick=0, channel=2, data=[52, 127]),
   midi.NoteOnEvent(tick=120, channel=2, data=[59, 0]),
   midi.NoteOnEvent(tick=0, channel=2, data=[52, 0]),
   midi.NoteOnEvent(tick=0, channel=2, data=[40, 127]),
   midi.NoteOnEvent(tick=40, channel=2, data=[40, 0]),
   midi.NoteOnEvent(tick=0, channel=2, data=[40, 127]),
   midi.NoteOnEvent(tick=40, channel=2, data=[40, 0]),
   midi.NoteOnEvent(tick=0, channel=2, data=[40, 127]),
   midi.NoteOnEvent(tick=40, channel=2, data=[40, 0]),
   midi.NoteOnEvent(tick=0, channel=2, data=[59, 127]),
   midi.NoteOnEvent(tick=0, channel=2, data=[52, 127]),
   midi.NoteOnEvent(tick=120, channel=2, data=[59, 0]),
   midi.NoteOnEvent(tick=0, channel=2, data=[52, 0]),
   midi.NoteOnEvent(tick=0, channel=2, data=[40, 127]),
   midi.NoteOnEvent(tick=40, channel=2, data=[40, 0]),
   midi.NoteOnEvent(tick=0, channel=2, data=[40, 127]),
   midi.NoteOnEvent(tick=40, channel=2, data=[40, 0]),
   midi.NoteOnEvent(tick=0, channel=2, data=[40, 127]),
   midi.NoteOnEvent(tick=40, channel=2, data=[40, 0]),
   midi.NoteOnEvent(tick=0, channel=2, data=[59, 127]),
   midi.NoteOnEvent(tick=0, channel=2, data=[52, 127]),
   midi.NoteOnEvent(tick=120, channel=2, data=[59, 0]),
   midi.NoteOnEvent(tick=0, channel=2, data=[52, 0]),
   midi.NoteOnEvent(tick=0, channel=2, data=[50, 127]),
   midi.NoteOnEvent(tick=0, channel=2, data=[57, 127]),
   midi.NoteOnEvent(tick=120, channel=2, data=[50, 0]),
   midi.NoteOnEvent(tick=0, channel=2, data=[57, 0]),
   midi.NoteOnEvent(tick=0, channel=2, data=[50, 127]),
   midi.NoteOnEvent(tick=0, channel=2, data=[57, 127]),
   midi.NoteOnEvent(tick=120, channel=2, data=[50, 0]),
   midi.NoteOnEvent(tick=0, channel=2, data=[57, 0]),
   midi.NoteOnEvent(tick=0, channel=2, data=[40, 127]),
   midi.NoteOnEvent(tick=40, channel=2, data=[40, 0]),
   midi.NoteOnEvent(tick=0, channel=2, data=[40, 127]),
   midi.NoteOnEvent(tick=40, channel=2, data=[40, 0]),
   midi.NoteOnEvent(tick=0, channel=2, data=[40, 127]),
   midi.NoteOnEvent(tick=40, channel=2, data=[40, 0]),
   midi.NoteOnEvent(tick=0, channel=2, data=[59, 127]),
   midi.NoteOnEvent(tick=0, channel=2, data=[52, 127]),
   midi.NoteOnEvent(tick=120, channel=2, data=[59, 0]),
   midi.NoteOnEvent(tick=0, channel=2, data=[52, 0]),
   midi.NoteOnEvent(tick=0, channel=2, data=[40, 127]),
   midi.NoteOnEvent(tick=40, channel=2, data=[40, 0]),
   midi.NoteOnEvent(tick=0, channel=2, data=[40, 127]),
   midi.NoteOnEvent(tick=40, channel=2, data=[40, 0]),
   midi.NoteOnEvent(tick=0, channel=2, data=[40, 127]),
   midi.NoteOnEvent(tick=40, channel=2, data=[40, 0]),
   midi.NoteOnEvent(tick=0, channel=2, data=[59, 127]),
   midi.NoteOnEvent(tick=0, channel=2, data=[52, 127]),
   midi.NoteOnEvent(tick=120, channel=2, data=[59, 0]),
   midi.NoteOnEvent(tick=0, channel=2, data=[52, 0]),
   midi.NoteOnEvent(tick=0, channel=2, data=[40, 127]),
   midi.NoteOnEvent(tick=40, channel=2, data=[40, 0]),
   midi.NoteOnEvent(tick=0, channel=2, data=[40, 127]),
   midi.NoteOnEvent(tick=40, channel=2, data=[40, 0]),
   midi.NoteOnEvent(tick=0, channel=2, data=[40, 127]),
   midi.NoteOnEvent(tick=40, channel=2, data=[40, 0]),
   midi.NoteOnEvent(tick=0, channel=2, data=[59, 127]),
   midi.NoteOnEvent(tick=0, channel=2, data=[52, 127]),
   midi.NoteOnEvent(tick=120, channel=2, data=[59, 0]),
   midi.NoteOnEvent(tick=0, channel=2, data=[52, 0]),
   midi.NoteOnEvent(tick=0, channel=2, data=[55, 127]),
   midi.NoteOnEvent(tick=0, channel=2, data=[48, 127]),
   midi.NoteOnEvent(tick=120, channel=2, data=[55, 0]),
   midi.NoteOnEvent(tick=0, channel=2, data=[48, 0]),
   midi.NoteOnEvent(tick=0, channel=2, data=[50, 127]),
   midi.NoteOnEvent(tick=0, channel=2, data=[57, 127]),
   midi.NoteOnEvent(tick=120, channel=2, data=[50, 0]),
   midi.NoteOnEvent(tick=0, channel=2, data=[57, 0]),
   midi.NoteOnEvent(tick=0, channel=2, data=[40, 127]),
   midi.NoteOnEvent(tick=40, channel=2, data=[40, 0]),
   midi.NoteOnEvent(tick=0, channel=2, data=[40, 127]),
   midi.NoteOnEvent(tick=40, channel=2, data=[40, 0]),
   midi.NoteOnEvent(tick=0, channel=2, data=[40, 127]),
   midi.NoteOnEvent(tick=40, channel=2, data=[40, 0]),
   midi.NoteOnEvent(tick=0, channel=2, data=[59, 127]),
   midi.NoteOnEvent(tick=0, channel=2, data=[52, 127]),
   midi.NoteOnEvent(tick=120, channel=2, data=[59, 0]),
   midi.NoteOnEvent(tick=0, channel=2, data=[52, 0]),
   midi.NoteOnEvent(tick=0, channel=2, data=[40, 127]),
   midi.NoteOnEvent(tick=40, channel=2, data=[40, 0]),
   midi.NoteOnEvent(tick=0, channel=2, data=[40, 127]),
   midi.NoteOnEvent(tick=40, channel=2, data=[40, 0]),
   midi.NoteOnEvent(tick=0, channel=2, data=[40, 127]),
   midi.NoteOnEvent(tick=40, channel=2, data=[40, 0]),
   midi.NoteOnEvent(tick=0, channel=2, data=[59, 127]),
   midi.NoteOnEvent(tick=0, channel=2, data=[52, 127]),
   midi.NoteOnEvent(tick=120, channel=2, data=[59, 0]),
   midi.NoteOnEvent(tick=0, channel=2, data=[52, 0]),
   midi.NoteOnEvent(tick=0, channel=2, data=[40, 127]),
   midi.NoteOnEvent(tick=40, channel=2, data=[40, 0]),
   midi.NoteOnEvent(tick=0, channel=2, data=[40, 127]),
   midi.NoteOnEvent(tick=40, channel=2, data=[40, 0]),
   midi.NoteOnEvent(tick=0, channel=2, data=[40, 127]),
   midi.NoteOnEvent(tick=40, channel=2, data=[40, 0]),
   midi.NoteOnEvent(tick=0, channel=2, data=[59, 127]),
   midi.NoteOnEvent(tick=0, channel=2, data=[52, 127]),
   midi.NoteOnEvent(tick=120, channel=2, data=[59, 0]),
   midi.NoteOnEvent(tick=0, channel=2, data=[52, 0]),
   midi.NoteOnEvent(tick=0, channel=2, data=[62, 127]),
   midi.NoteOnEvent(tick=0, channel=2, data=[55, 127]),
   midi.NoteOnEvent(tick=120, channel=2, data=[62, 0]),
   midi.NoteOnEvent(tick=0, channel=2, data=[55, 0]),
   midi.NoteOnEvent(tick=0, channel=2, data=[52, 127]),
   midi.NoteOnEvent(tick=0, channel=2, data=[59, 127]),
   midi.NoteOnEvent(tick=120, channel=2, data=[52, 0]),
   midi.NoteOnEvent(tick=0, channel=2, data=[59, 0]),
   midi.NoteOnEvent(tick=0, channel=2, data=[43, 127]),
   midi.NoteOnEvent(tick=0, channel=2, data=[48, 127]),
   midi.NoteOnEvent(tick=0, channel=2, data=[55, 127]),
   midi.NoteOnEvent(tick=120, channel=2, data=[43, 0]),
   midi.NoteOnEvent(tick=0, channel=2, data=[48, 0]),
   midi.NoteOnEvent(tick=0, channel=2, data=[55, 0]),
   midi.NoteOnEvent(tick=0, channel=2, data=[50, 127]),
   midi.NoteOnEvent(tick=0, channel=2, data=[43, 127]),
   midi.NoteOnEvent(tick=120, channel=2, data=[50, 0]),
   midi.NoteOnEvent(tick=0, channel=2, data=[43, 0]),
   midi.NoteOnEvent(tick=0, channel=2, data=[50, 127]),
   midi.NoteOnEvent(tick=0, channel=2, data=[57, 127]),
   midi.NoteOnEvent(tick=120, channel=2, data=[50, 0]),
   midi.NoteOnEvent(tick=0, channel=2, data=[57, 0]),
   midi.NoteOnEvent(tick=0, channel=2, data=[55, 127]),
   midi.NoteOnEvent(tick=0, channel=2, data=[48, 127]),
   midi.NoteOnEvent(tick=120, channel=2, data=[55, 0]),
   midi.NoteOnEvent(tick=0, channel=2, data=[48, 0]),
   midi.NoteOnEvent(tick=0, channel=2, data=[40, 127]),
   midi.NoteOnEvent(tick=40, channel=2, data=[40, 0]),
   midi.NoteOnEvent(tick=0, channel=2, data=[40, 127]),
   midi.NoteOnEvent(tick=40, channel=2, data=[40, 0]),
   midi.NoteOnEvent(tick=0, channel=2, data=[40, 127]),
   midi.NoteOnEvent(tick=40, channel=2, data=[40, 0]),
   midi.NoteOnEvent(tick=0, channel=2, data=[59, 127]),
   midi.NoteOnEvent(tick=0, channel=2, data=[52, 127]),
   midi.NoteOnEvent(tick=120, channel=2, data=[59, 0]),
   midi.NoteOnEvent(tick=0, channel=2, data=[52, 0]),
   midi.NoteOnEvent(tick=0, channel=2, data=[40, 127]),
   midi.NoteOnEvent(tick=40, channel=2, data=[40, 0]),
   midi.NoteOnEvent(tick=0, channel=2, data=[40, 127]),
   midi.NoteOnEvent(tick=40, channel=2, data=[40, 0]),
   midi.NoteOnEvent(tick=0, channel=2, data=[40, 127]),
   midi.NoteOnEvent(tick=40, channel=2, data=[40, 0]),
   midi.NoteOnEvent(tick=0, channel=2, data=[59, 127]),
   midi.NoteOnEvent(tick=0, channel=2, data=[52, 127]),
   midi.NoteOnEvent(tick=120, channel=2, data=[59, 0]),
   midi.NoteOnEvent(tick=0, channel=2, data=[52, 0]),
   midi.NoteOnEvent(tick=0, channel=2, data=[40, 127]),
   midi.NoteOnEvent(tick=40, channel=2, data=[40, 0]),
   midi.NoteOnEvent(tick=0, channel=2, data=[40, 127]),
   midi.NoteOnEvent(tick=40, channel=2, data=[40, 0]),
   midi.NoteOnEvent(tick=0, channel=2, data=[40, 127]),
   midi.NoteOnEvent(tick=40, channel=2, data=[40, 0]),
   midi.NoteOnEvent(tick=0, channel=2, data=[59, 127]),
   midi.NoteOnEvent(tick=0, channel=2, data=[52, 127]),
   midi.NoteOnEvent(tick=120, channel=2, data=[59, 0]),
   midi.NoteOnEvent(tick=0, channel=2, data=[52, 0]),
   midi.NoteOnEvent(tick=0, channel=2, data=[50, 127]),
   midi.NoteOnEvent(tick=0, channel=2, data=[57, 127]),
   midi.NoteOnEvent(tick=120, channel=2, data=[50, 0]),
   midi.NoteOnEvent(tick=0, channel=2, data=[57, 0]),
   midi.NoteOnEvent(tick=0, channel=2, data=[50, 127]),
   midi.NoteOnEvent(tick=0, channel=2, data=[57, 127]),
   midi.NoteOnEvent(tick=120, channel=2, data=[50, 0]),
   midi.NoteOnEvent(tick=0, channel=2, data=[57, 0]),
   midi.NoteOnEvent(tick=0, channel=2, data=[40, 127]),
   midi.NoteOnEvent(tick=40, channel=2, data=[40, 0]),
   midi.NoteOnEvent(tick=0, channel=2, data=[40, 127]),
   midi.NoteOnEvent(tick=40, channel=2, data=[40, 0]),
   midi.NoteOnEvent(tick=0, channel=2, data=[40, 127]),
   midi.NoteOnEvent(tick=40, channel=2, data=[40, 0]),
   midi.NoteOnEvent(tick=0, channel=2, data=[59, 127]),
   midi.NoteOnEvent(tick=0, channel=2, data=[52, 127]),
   midi.NoteOnEvent(tick=120, channel=2, data=[59, 0]),
   midi.NoteOnEvent(tick=0, channel=2, data=[52, 0]),
   midi.NoteOnEvent(tick=0, channel=2, data=[40, 127]),
   midi.NoteOnEvent(tick=40, channel=2, data=[40, 0]),
   midi.NoteOnEvent(tick=0, channel=2, data=[40, 127]),
   midi.NoteOnEvent(tick=40, channel=2, data=[40, 0]),
   midi.NoteOnEvent(tick=0, channel=2, data=[40, 127]),
   midi.NoteOnEvent(tick=40, channel=2, data=[40, 0]),
   midi.NoteOnEvent(tick=0, channel=2, data=[59, 127]),
   midi.NoteOnEvent(tick=0, channel=2, data=[52, 127]),
   midi.NoteOnEvent(tick=120, channel=2, data=[59, 0]),
   midi.NoteOnEvent(tick=0, channel=2, data=[52, 0]),
   midi.NoteOnEvent(tick=0, channel=2, data=[40, 127]),
   midi.NoteOnEvent(tick=40, channel=2, data=[40, 0]),
   midi.NoteOnEvent(tick=0, channel=2, data=[40, 127]),
   midi.NoteOnEvent(tick=40, channel=2, data=[40, 0]),
   midi.NoteOnEvent(tick=0, channel=2, data=[40, 127]),
   midi.NoteOnEvent(tick=40, channel=2, data=[40, 0]),
   midi.NoteOnEvent(tick=0, channel=2, data=[59, 127]),
   midi.NoteOnEvent(tick=0, channel=2, data=[52, 127]),
   midi.NoteOnEvent(tick=120, channel=2, data=[59, 0]),
   midi.NoteOnEvent(tick=0, channel=2, data=[52, 0]),
   midi.NoteOnEvent(tick=0, channel=2, data=[55, 127]),
   midi.NoteOnEvent(tick=0, channel=2, data=[48, 127]),
   midi.NoteOnEvent(tick=120, channel=2, data=[55, 0]),
   midi.NoteOnEvent(tick=0, channel=2, data=[48, 0]),
   midi.NoteOnEvent(tick=0, channel=2, data=[50, 127]),
   midi.NoteOnEvent(tick=0, channel=2, data=[57, 127]),
   midi.NoteOnEvent(tick=120, channel=2, data=[50, 0]),
   midi.NoteOnEvent(tick=0, channel=2, data=[57, 0]),
   midi.NoteOnEvent(tick=0, channel=2, data=[40, 127]),
   midi.NoteOnEvent(tick=40, channel=2, data=[40, 0]),
   midi.NoteOnEvent(tick=0, channel=2, data=[40, 127]),
   midi.NoteOnEvent(tick=40, channel=2, data=[40, 0]),
   midi.NoteOnEvent(tick=0, channel=2, data=[40, 127]),
   midi.NoteOnEvent(tick=40, channel=2, data=[40, 0]),
   midi.NoteOnEvent(tick=0, channel=2, data=[59, 127]),
   midi.NoteOnEvent(tick=0, channel=2, data=[52, 127]),
   midi.NoteOnEvent(tick=120, channel=2, data=[59, 0]),
   midi.NoteOnEvent(tick=0, channel=2, data=[52, 0]),
   midi.NoteOnEvent(tick=0, channel=2, data=[40, 127]),
   midi.NoteOnEvent(tick=40, channel=2, data=[40, 0]),
   midi.NoteOnEvent(tick=0, channel=2, data=[40, 127]),
   midi.NoteOnEvent(tick=40, channel=2, data=[40, 0]),
   midi.NoteOnEvent(tick=0, channel=2, data=[40, 127]),
   midi.NoteOnEvent(tick=40, channel=2, data=[40, 0]),
   midi.NoteOnEvent(tick=0, channel=2, data=[59, 127]),
   midi.NoteOnEvent(tick=0, channel=2, data=[52, 127]),
   midi.NoteOnEvent(tick=120, channel=2, data=[59, 0]),
   midi.NoteOnEvent(tick=0, channel=2, data=[52, 0]),
   midi.NoteOnEvent(tick=0, channel=2, data=[40, 127]),
   midi.NoteOnEvent(tick=40, channel=2, data=[40, 0]),
   midi.NoteOnEvent(tick=0, channel=2, data=[40, 127]),
   midi.NoteOnEvent(tick=40, channel=2, data=[40, 0]),
   midi.NoteOnEvent(tick=0, channel=2, data=[40, 127]),
   midi.NoteOnEvent(tick=40, channel=2, data=[40, 0]),
   midi.NoteOnEvent(tick=0, channel=2, data=[59, 127]),
   midi.NoteOnEvent(tick=0, channel=2, data=[52, 127]),
   midi.NoteOnEvent(tick=120, channel=2, data=[59, 0]),
   midi.NoteOnEvent(tick=0, channel=2, data=[52, 0]),
   midi.NoteOnEvent(tick=0, channel=2, data=[62, 127]),
   midi.NoteOnEvent(tick=0, channel=2, data=[55, 127]),
   midi.NoteOnEvent(tick=120, channel=2, data=[62, 0]),
   midi.NoteOnEvent(tick=0, channel=2, data=[55, 0]),
   midi.NoteOnEvent(tick=0, channel=2, data=[52, 127]),
   midi.NoteOnEvent(tick=0, channel=2, data=[59, 127]),
   midi.NoteOnEvent(tick=120, channel=2, data=[52, 0]),
   midi.NoteOnEvent(tick=0, channel=2, data=[59, 0]),
   midi.NoteOnEvent(tick=0, channel=2, data=[43, 127]),
   midi.NoteOnEvent(tick=0, channel=2, data=[48, 127]),
   midi.NoteOnEvent(tick=0, channel=2, data=[55, 127]),
   midi.NoteOnEvent(tick=120, channel=2, data=[43, 0]),
   midi.NoteOnEvent(tick=0, channel=2, data=[48, 0]),
   midi.NoteOnEvent(tick=0, channel=2, data=[55, 0]),
   midi.NoteOnEvent(tick=0, channel=2, data=[50, 127]),
   midi.NoteOnEvent(tick=0, channel=2, data=[43, 127]),
   midi.NoteOnEvent(tick=120, channel=2, data=[50, 0]),
   midi.NoteOnEvent(tick=0, channel=2, data=[43, 0]),
   midi.NoteOnEvent(tick=0, channel=2, data=[50, 127]),
   midi.NoteOnEvent(tick=0, channel=2, data=[57, 127]),
   midi.NoteOnEvent(tick=120, channel=2, data=[50, 0]),
   midi.NoteOnEvent(tick=0, channel=2, data=[57, 0]),
   midi.NoteOnEvent(tick=0, channel=2, data=[55, 127]),
   midi.NoteOnEvent(tick=0, channel=2, data=[48, 127]),
   midi.NoteOnEvent(tick=120, channel=2, data=[55, 0]),
   midi.NoteOnEvent(tick=0, channel=2, data=[48, 0]),
   midi.NoteOnEvent(tick=0, channel=2, data=[59, 127]),
   midi.NoteOnEvent(tick=0, channel=2, data=[52, 127]),
   midi.NoteOnEvent(tick=780, channel=2, data=[59, 0]),
   midi.NoteOnEvent(tick=0, channel=2, data=[52, 0]),
   midi.NoteOnEvent(tick=0, channel=2, data=[52, 127]),
   midi.NoteOnEvent(tick=0, channel=2, data=[59, 127]),
   midi.NoteOnEvent(tick=60, channel=2, data=[52, 0]),
   midi.NoteOnEvent(tick=0, channel=2, data=[59, 0]),
   midi.NoteOnEvent(tick=0, channel=2, data=[52, 127]),
   midi.NoteOnEvent(tick=0, channel=2, data=[59, 127]),
   midi.NoteOnEvent(tick=120, channel=2, data=[52, 0]),
   midi.NoteOnEvent(tick=0, channel=2, data=[59, 0]),
   midi.NoteOnEvent(tick=0, channel=2, data=[57, 127]),
   midi.NoteOnEvent(tick=0, channel=2, data=[50, 127]),
   midi.NoteOnEvent(tick=780, channel=2, data=[57, 0]),
   midi.NoteOnEvent(tick=0, channel=2, data=[50, 0]),
   midi.NoteOnEvent(tick=0, channel=2, data=[50, 127]),
   midi.NoteOnEvent(tick=0, channel=2, data=[57, 127]),
   midi.NoteOnEvent(tick=60, channel=2, data=[50, 0]),
   midi.NoteOnEvent(tick=0, channel=2, data=[57, 0]),
   midi.NoteOnEvent(tick=0, channel=2, data=[50, 127]),
   midi.NoteOnEvent(tick=0, channel=2, data=[57, 127]),
   midi.NoteOnEvent(tick=120, channel=2, data=[50, 0]),
   midi.NoteOnEvent(tick=0, channel=2, data=[57, 0]),
   midi.NoteOnEvent(tick=0, channel=2, data=[55, 127]),
   midi.NoteOnEvent(tick=0, channel=2, data=[48, 127]),
   midi.NoteOnEvent(tick=780, channel=2, data=[55, 0]),
   midi.NoteOnEvent(tick=0, channel=2, data=[48, 0]),
   midi.NoteOnEvent(tick=0, channel=2, data=[48, 127]),
   midi.NoteOnEvent(tick=0, channel=2, data=[55, 127]),
   midi.NoteOnEvent(tick=60, channel=2, data=[48, 0]),
   midi.NoteOnEvent(tick=0, channel=2, data=[55, 0]),
   midi.NoteOnEvent(tick=0, channel=2, data=[48, 127]),
   midi.NoteOnEvent(tick=0, channel=2, data=[55, 127]),
   midi.NoteOnEvent(tick=120, channel=2, data=[48, 0]),
   midi.NoteOnEvent(tick=0, channel=2, data=[55, 0]),
   midi.NoteOnEvent(tick=0, channel=2, data=[54, 127]),
   midi.NoteOnEvent(tick=0, channel=2, data=[47, 127]),
   midi.NoteOnEvent(tick=480, channel=2, data=[54, 0]),
   midi.NoteOnEvent(tick=0, channel=2, data=[47, 0]),
   midi.NoteOnEvent(tick=0, channel=2, data=[47, 127]),
   midi.NoteOnEvent(tick=0, channel=2, data=[54, 127]),
   midi.NoteOnEvent(tick=480, channel=2, data=[47, 0]),
   midi.NoteOnEvent(tick=0, channel=2, data=[54, 0]),
   midi.NoteOnEvent(tick=0, channel=2, data=[59, 127]),
   midi.NoteOnEvent(tick=0, channel=2, data=[52, 127]),
   midi.NoteOnEvent(tick=780, channel=2, data=[59, 0]),
   midi.NoteOnEvent(tick=0, channel=2, data=[52, 0]),
   midi.NoteOnEvent(tick=0, channel=2, data=[52, 127]),
   midi.NoteOnEvent(tick=0, channel=2, data=[59, 127]),
   midi.NoteOnEvent(tick=60, channel=2, data=[52, 0]),
   midi.NoteOnEvent(tick=0, channel=2, data=[59, 0]),
   midi.NoteOnEvent(tick=0, channel=2, data=[52, 127]),
   midi.NoteOnEvent(tick=0, channel=2, data=[59, 127]),
   midi.NoteOnEvent(tick=120, channel=2, data=[52, 0]),
   midi.NoteOnEvent(tick=0, channel=2, data=[59, 0]),
   midi.NoteOnEvent(tick=0, channel=2, data=[57, 127]),
   midi.NoteOnEvent(tick=0, channel=2, data=[50, 127]),
   midi.NoteOnEvent(tick=780, channel=2, data=[57, 0]),
   midi.NoteOnEvent(tick=0, channel=2, data=[50, 0]),
   midi.NoteOnEvent(tick=0, channel=2, data=[50, 127]),
   midi.NoteOnEvent(tick=0, channel=2, data=[57, 127]),
   midi.NoteOnEvent(tick=60, channel=2, data=[50, 0]),
   midi.NoteOnEvent(tick=0, channel=2, data=[57, 0]),
   midi.NoteOnEvent(tick=0, channel=2, data=[50, 127]),
   midi.NoteOnEvent(tick=0, channel=2, data=[57, 127]),
   midi.NoteOnEvent(tick=120, channel=2, data=[50, 0]),
   midi.NoteOnEvent(tick=0, channel=2, data=[57, 0]),
   midi.NoteOnEvent(tick=0, channel=2, data=[55, 127]),
   midi.NoteOnEvent(tick=0, channel=2, data=[48, 127]),
   midi.NoteOnEvent(tick=480, channel=2, data=[55, 0]),
   midi.NoteOnEvent(tick=0, channel=2, data=[48, 0]),
   midi.NoteOnEvent(tick=0, channel=2, data=[54, 127]),
   midi.NoteOnEvent(tick=0, channel=2, data=[47, 127]),
   midi.NoteOnEvent(tick=120, channel=2, data=[54, 0]),
   midi.NoteOnEvent(tick=0, channel=2, data=[47, 0]),
   midi.NoteOnEvent(tick=0, channel=2, data=[55, 127]),
   midi.NoteOnEvent(tick=0, channel=2, data=[48, 127]),
   midi.NoteOnEvent(tick=120, channel=2, data=[55, 0]),
   midi.NoteOnEvent(tick=0, channel=2, data=[48, 0]),
   midi.NoteOnEvent(tick=0, channel=2, data=[47, 127]),
   midi.NoteOnEvent(tick=0, channel=2, data=[54, 127]),
   midi.NoteOnEvent(tick=120, channel=2, data=[47, 0]),
   midi.NoteOnEvent(tick=0, channel=2, data=[54, 0]),
   midi.NoteOnEvent(tick=0, channel=2, data=[50, 127]),
   midi.NoteOnEvent(tick=0, channel=2, data=[43, 127]),
   midi.NoteOnEvent(tick=120, channel=2, data=[50, 0]),
   midi.NoteOnEvent(tick=0, channel=2, data=[43, 0]),
   midi.NoteOnEvent(tick=0, channel=2, data=[40, 127]),
   midi.NoteOnEvent(tick=0, channel=2, data=[52, 127]),
   midi.NoteOnEvent(tick=60, channel=2, data=[40, 0]),
   midi.NoteOnEvent(tick=0, channel=2, data=[52, 0]),
   midi.NoteOnEvent(tick=0, channel=2, data=[50, 127]),
   midi.NoteOnEvent(tick=60, channel=2, data=[50, 0]),
   midi.NoteOnEvent(tick=0, channel=2, data=[40, 127]),
   midi.NoteOnEvent(tick=0, channel=2, data=[52, 127]),
   midi.NoteOnEvent(tick=60, channel=2, data=[40, 0]),
   midi.NoteOnEvent(tick=0, channel=2, data=[52, 0]),
   midi.NoteOnEvent(tick=0, channel=2, data=[50, 127]),
   midi.NoteOnEvent(tick=60, channel=2, data=[50, 0]),
   midi.NoteOnEvent(tick=0, channel=2, data=[40, 127]),
   midi.NoteOnEvent(tick=0, channel=2, data=[52, 127]),
   midi.NoteOnEvent(tick=60, channel=2, data=[40, 0]),
   midi.NoteOnEvent(tick=0, channel=2, data=[52, 0]),
   midi.NoteOnEvent(tick=0, channel=2, data=[50, 127]),
   midi.NoteOnEvent(tick=60, channel=2, data=[50, 0]),
   midi.NoteOnEvent(tick=0, channel=2, data=[40, 127]),
   midi.NoteOnEvent(tick=0, channel=2, data=[52, 127]),
   midi.NoteOnEvent(tick=60, channel=2, data=[40, 0]),
   midi.NoteOnEvent(tick=0, channel=2, data=[52, 0]),
   midi.NoteOnEvent(tick=0, channel=2, data=[50, 127]),
   midi.NoteOnEvent(tick=60, channel=2, data=[50, 0]),
   midi.NoteOnEvent(tick=0, channel=2, data=[40, 127]),
   midi.NoteOnEvent(tick=0, channel=2, data=[52, 127]),
   midi.NoteOnEvent(tick=60, channel=2, data=[40, 0]),
   midi.NoteOnEvent(tick=0, channel=2, data=[52, 0]),
   midi.NoteOnEvent(tick=0, channel=2, data=[50, 127]),
   midi.NoteOnEvent(tick=60, channel=2, data=[50, 0]),
   midi.NoteOnEvent(tick=0, channel=2, data=[40, 127]),
   midi.NoteOnEvent(tick=0, channel=2, data=[52, 127]),
   midi.NoteOnEvent(tick=60, channel=2, data=[40, 0]),
   midi.NoteOnEvent(tick=0, channel=2, data=[52, 0]),
   midi.NoteOnEvent(tick=0, channel=2, data=[50, 127]),
   midi.NoteOnEvent(tick=60, channel=2, data=[50, 0]),
   midi.NoteOnEvent(tick=0, channel=2, data=[40, 127]),
   midi.NoteOnEvent(tick=0, channel=2, data=[52, 127]),
   midi.NoteOnEvent(tick=60, channel=2, data=[40, 0]),
   midi.NoteOnEvent(tick=0, channel=2, data=[52, 0]),
   midi.NoteOnEvent(tick=0, channel=2, data=[50, 127]),
   midi.NoteOnEvent(tick=60, channel=2, data=[50, 0]),
   midi.NoteOnEvent(tick=0, channel=2, data=[47, 127]),
   midi.NoteOnEvent(tick=0, channel=2, data=[50, 127]),
   midi.NoteOnEvent(tick=60, channel=2, data=[47, 0]),
   midi.NoteOnEvent(tick=0, channel=2, data=[50, 0]),
   midi.NoteOnEvent(tick=0, channel=2, data=[50, 127]),
   midi.NoteOnEvent(tick=60, channel=2, data=[50, 0]),
   midi.NoteOnEvent(tick=0, channel=2, data=[40, 127]),
   midi.NoteOnEvent(tick=0, channel=2, data=[52, 127]),
   midi.NoteOnEvent(tick=60, channel=2, data=[40, 0]),
   midi.NoteOnEvent(tick=0, channel=2, data=[52, 0]),
   midi.NoteOnEvent(tick=0, channel=2, data=[50, 127]),
   midi.NoteOnEvent(tick=60, channel=2, data=[50, 0]),
   midi.NoteOnEvent(tick=0, channel=2, data=[40, 127]),
   midi.NoteOnEvent(tick=0, channel=2, data=[52, 127]),
   midi.NoteOnEvent(tick=60, channel=2, data=[40, 0]),
   midi.NoteOnEvent(tick=0, channel=2, data=[52, 0]),
   midi.NoteOnEvent(tick=0, channel=2, data=[50, 127]),
   midi.NoteOnEvent(tick=60, channel=2, data=[50, 0]),
   midi.NoteOnEvent(tick=0, channel=2, data=[40, 127]),
   midi.NoteOnEvent(tick=0, channel=2, data=[52, 127]),
   midi.NoteOnEvent(tick=60, channel=2, data=[40, 0]),
   midi.NoteOnEvent(tick=0, channel=2, data=[52, 0]),
   midi.NoteOnEvent(tick=0, channel=2, data=[50, 127]),
   midi.NoteOnEvent(tick=60, channel=2, data=[50, 0]),
   midi.NoteOnEvent(tick=0, channel=2, data=[40, 127]),
   midi.NoteOnEvent(tick=0, channel=2, data=[52, 127]),
   midi.NoteOnEvent(tick=60, channel=2, data=[40, 0]),
   midi.NoteOnEvent(tick=0, channel=2, data=[52, 0]),
   midi.NoteOnEvent(tick=0, channel=2, data=[50, 127]),
   midi.NoteOnEvent(tick=60, channel=2, data=[50, 0]),
   midi.NoteOnEvent(tick=0, channel=2, data=[47, 127]),
   midi.NoteOnEvent(tick=60, channel=2, data=[47, 0]),
   midi.NoteOnEvent(tick=0, channel=2, data=[50, 127]),
   midi.NoteOnEvent(tick=60, channel=2, data=[50, 0]),
   midi.NoteOnEvent(tick=0, channel=2, data=[52, 127]),
   midi.NoteOnEvent(tick=60, channel=2, data=[52, 0]),
   midi.NoteOnEvent(tick=0, channel=2, data=[50, 127]),
   midi.NoteOnEvent(tick=60, channel=2, data=[50, 0]),
   midi.NoteOnEvent(tick=0, channel=2, data=[57, 127]),
   midi.NoteOnEvent(tick=60, channel=2, data=[57, 0]),
   midi.NoteOnEvent(tick=0, channel=2, data=[55, 127]),
   midi.NoteOnEvent(tick=60, channel=2, data=[55, 0]),
   midi.NoteOnEvent(tick=0, channel=2, data=[52, 127]),
   midi.NoteOnEvent(tick=60, channel=2, data=[52, 0]),
   midi.NoteOnEvent(tick=0, channel=2, data=[50, 127]),
   midi.NoteOnEvent(tick=60, channel=2, data=[50, 0]),
   midi.NoteOnEvent(tick=0, channel=2, data=[40, 127]),
   midi.NoteOnEvent(tick=0, channel=2, data=[52, 127]),
   midi.NoteOnEvent(tick=60, channel=2, data=[40, 0]),
   midi.NoteOnEvent(tick=0, channel=2, data=[52, 0]),
   midi.NoteOnEvent(tick=0, channel=2, data=[50, 127]),
   midi.NoteOnEvent(tick=60, channel=2, data=[50, 0]),
   midi.NoteOnEvent(tick=0, channel=2, data=[40, 127]),
   midi.NoteOnEvent(tick=0, channel=2, data=[52, 127]),
   midi.NoteOnEvent(tick=60, channel=2, data=[40, 0]),
   midi.NoteOnEvent(tick=0, channel=2, data=[52, 0]),
   midi.NoteOnEvent(tick=0, channel=2, data=[50, 127]),
   midi.NoteOnEvent(tick=60, channel=2, data=[50, 0]),
   midi.NoteOnEvent(tick=0, channel=2, data=[40, 127]),
   midi.NoteOnEvent(tick=0, channel=2, data=[52, 127]),
   midi.NoteOnEvent(tick=60, channel=2, data=[40, 0]),
   midi.NoteOnEvent(tick=0, channel=2, data=[52, 0]),
   midi.NoteOnEvent(tick=0, channel=2, data=[50, 127]),
   midi.NoteOnEvent(tick=60, channel=2, data=[50, 0]),
   midi.NoteOnEvent(tick=0, channel=2, data=[47, 127]),
   midi.NoteOnEvent(tick=0, channel=2, data=[50, 127]),
   midi.NoteOnEvent(tick=60, channel=2, data=[47, 0]),
   midi.NoteOnEvent(tick=0, channel=2, data=[50, 0]),
   midi.NoteOnEvent(tick=0, channel=2, data=[50, 127]),
   midi.NoteOnEvent(tick=60, channel=2, data=[50, 0]),
   midi.NoteOnEvent(tick=0, channel=2, data=[40, 127]),
   midi.NoteOnEvent(tick=0, channel=2, data=[52, 127]),
   midi.NoteOnEvent(tick=60, channel=2, data=[40, 0]),
   midi.NoteOnEvent(tick=0, channel=2, data=[52, 0]),
   midi.NoteOnEvent(tick=0, channel=2, data=[50, 127]),
   midi.NoteOnEvent(tick=60, channel=2, data=[50, 0]),
   midi.NoteOnEvent(tick=0, channel=2, data=[40, 127]),
   midi.NoteOnEvent(tick=0, channel=2, data=[52, 127]),
   midi.NoteOnEvent(tick=60, channel=2, data=[40, 0]),
   midi.NoteOnEvent(tick=0, channel=2, data=[52, 0]),
   midi.NoteOnEvent(tick=0, channel=2, data=[50, 127]),
   midi.NoteOnEvent(tick=60, channel=2, data=[50, 0]),
   midi.NoteOnEvent(tick=0, channel=2, data=[40, 127]),
   midi.NoteOnEvent(tick=0, channel=2, data=[52, 127]),
   midi.NoteOnEvent(tick=60, channel=2, data=[40, 0]),
   midi.NoteOnEvent(tick=0, channel=2, data=[52, 0]),
   midi.NoteOnEvent(tick=0, channel=2, data=[50, 127]),
   midi.NoteOnEvent(tick=60, channel=2, data=[50, 0]),
   midi.NoteOnEvent(tick=0, channel=2, data=[47, 127]),
   midi.NoteOnEvent(tick=0, channel=2, data=[50, 127]),
   midi.NoteOnEvent(tick=60, channel=2, data=[47, 0]),
   midi.NoteOnEvent(tick=0, channel=2, data=[50, 0]),
   midi.NoteOnEvent(tick=0, channel=2, data=[50, 127]),
   midi.NoteOnEvent(tick=60, channel=2, data=[50, 0]),
   midi.NoteOnEvent(tick=0, channel=2, data=[48, 127]),
   midi.NoteOnEvent(tick=0, channel=2, data=[55, 127]),
   midi.NoteOnEvent(tick=120, channel=2, data=[48, 0]),
   midi.NoteOnEvent(tick=0, channel=2, data=[55, 0]),
   midi.NoteOnEvent(tick=0, channel=2, data=[43, 127]),
   midi.NoteOnEvent(tick=0, channel=2, data=[50, 127]),
   midi.NoteOnEvent(tick=120, channel=2, data=[43, 0]),
   midi.NoteOnEvent(tick=0, channel=2, data=[50, 0]),
   midi.NoteOnEvent(tick=0, channel=2, data=[57, 127]),
   midi.NoteOnEvent(tick=0, channel=2, data=[50, 127]),
   midi.NoteOnEvent(tick=120, channel=2, data=[57, 0]),
   midi.NoteOnEvent(tick=0, channel=2, data=[50, 0]),
   midi.NoteOnEvent(tick=0, channel=2, data=[48, 127]),
   midi.NoteOnEvent(tick=0, channel=2, data=[55, 127]),
   midi.NoteOnEvent(tick=120, channel=2, data=[48, 0]),
   midi.NoteOnEvent(tick=0, channel=2, data=[55, 0]),
   midi.NoteOnEvent(tick=0, channel=2, data=[40, 127]),
   midi.NoteOnEvent(tick=0, channel=2, data=[52, 127]),
   midi.NoteOnEvent(tick=60, channel=2, data=[40, 0]),
   midi.NoteOnEvent(tick=0, channel=2, data=[52, 0]),
   midi.NoteOnEvent(tick=0, channel=2, data=[50, 127]),
   midi.NoteOnEvent(tick=60, channel=2, data=[50, 0]),
   midi.NoteOnEvent(tick=0, channel=2, data=[40, 127]),
   midi.NoteOnEvent(tick=0, channel=2, data=[52, 127]),
   midi.NoteOnEvent(tick=60, channel=2, data=[40, 0]),
   midi.NoteOnEvent(tick=0, channel=2, data=[52, 0]),
   midi.NoteOnEvent(tick=0, channel=2, data=[50, 127]),
   midi.NoteOnEvent(tick=60, channel=2, data=[50, 0]),
   midi.NoteOnEvent(tick=0, channel=2, data=[40, 127]),
   midi.NoteOnEvent(tick=0, channel=2, data=[52, 127]),
   midi.NoteOnEvent(tick=60, channel=2, data=[40, 0]),
   midi.NoteOnEvent(tick=0, channel=2, data=[52, 0]),
   midi.NoteOnEvent(tick=0, channel=2, data=[50, 127]),
   midi.NoteOnEvent(tick=60, channel=2, data=[50, 0]),
   midi.NoteOnEvent(tick=0, channel=2, data=[40, 127]),
   midi.NoteOnEvent(tick=0, channel=2, data=[52, 127]),
   midi.NoteOnEvent(tick=60, channel=2, data=[40, 0]),
   midi.NoteOnEvent(tick=0, channel=2, data=[52, 0]),
   midi.NoteOnEvent(tick=0, channel=2, data=[50, 127]),
   midi.NoteOnEvent(tick=60, channel=2, data=[50, 0]),
   midi.NoteOnEvent(tick=0, channel=2, data=[40, 127]),
   midi.NoteOnEvent(tick=0, channel=2, data=[52, 127]),
   midi.NoteOnEvent(tick=60, channel=2, data=[40, 0]),
   midi.NoteOnEvent(tick=0, channel=2, data=[52, 0]),
   midi.NoteOnEvent(tick=0, channel=2, data=[50, 127]),
   midi.NoteOnEvent(tick=60, channel=2, data=[50, 0]),
   midi.NoteOnEvent(tick=0, channel=2, data=[40, 127]),
   midi.NoteOnEvent(tick=0, channel=2, data=[52, 127]),
   midi.NoteOnEvent(tick=60, channel=2, data=[40, 0]),
   midi.NoteOnEvent(tick=0, channel=2, data=[52, 0]),
   midi.NoteOnEvent(tick=0, channel=2, data=[50, 127]),
   midi.NoteOnEvent(tick=60, channel=2, data=[50, 0]),
   midi.NoteOnEvent(tick=0, channel=2, data=[40, 127]),
   midi.NoteOnEvent(tick=0, channel=2, data=[52, 127]),
   midi.NoteOnEvent(tick=60, channel=2, data=[40, 0]),
   midi.NoteOnEvent(tick=0, channel=2, data=[52, 0]),
   midi.NoteOnEvent(tick=0, channel=2, data=[50, 127]),
   midi.NoteOnEvent(tick=60, channel=2, data=[50, 0]),
   midi.NoteOnEvent(tick=0, channel=2, data=[47, 127]),
   midi.NoteOnEvent(tick=0, channel=2, data=[50, 127]),
   midi.NoteOnEvent(tick=60, channel=2, data=[47, 0]),
   midi.NoteOnEvent(tick=0, channel=2, data=[50, 0]),
   midi.NoteOnEvent(tick=0, channel=2, data=[50, 127]),
   midi.NoteOnEvent(tick=60, channel=2, data=[50, 0]),
   midi.NoteOnEvent(tick=0, channel=2, data=[40, 127]),
   midi.NoteOnEvent(tick=0, channel=2, data=[52, 127]),
   midi.NoteOnEvent(tick=60, channel=2, data=[40, 0]),
   midi.NoteOnEvent(tick=0, channel=2, data=[52, 0]),
   midi.NoteOnEvent(tick=0, channel=2, data=[50, 127]),
   midi.NoteOnEvent(tick=60, channel=2, data=[50, 0]),
   midi.NoteOnEvent(tick=0, channel=2, data=[40, 127]),
   midi.NoteOnEvent(tick=0, channel=2, data=[52, 127]),
   midi.NoteOnEvent(tick=60, channel=2, data=[40, 0]),
   midi.NoteOnEvent(tick=0, channel=2, data=[52, 0]),
   midi.NoteOnEvent(tick=0, channel=2, data=[50, 127]),
   midi.NoteOnEvent(tick=60, channel=2, data=[50, 0]),
   midi.NoteOnEvent(tick=0, channel=2, data=[40, 127]),
   midi.NoteOnEvent(tick=0, channel=2, data=[52, 127]),
   midi.NoteOnEvent(tick=60, channel=2, data=[40, 0]),
   midi.NoteOnEvent(tick=0, channel=2, data=[52, 0]),
   midi.NoteOnEvent(tick=0, channel=2, data=[50, 127]),
   midi.NoteOnEvent(tick=60, channel=2, data=[50, 0]),
   midi.NoteOnEvent(tick=0, channel=2, data=[40, 127]),
   midi.NoteOnEvent(tick=0, channel=2, data=[52, 127]),
   midi.NoteOnEvent(tick=60, channel=2, data=[40, 0]),
   midi.NoteOnEvent(tick=0, channel=2, data=[52, 0]),
   midi.NoteOnEvent(tick=0, channel=2, data=[50, 127]),
   midi.NoteOnEvent(tick=60, channel=2, data=[50, 0]),
   midi.NoteOnEvent(tick=0, channel=2, data=[47, 127]),
   midi.NoteOnEvent(tick=60, channel=2, data=[47, 0]),
   midi.NoteOnEvent(tick=0, channel=2, data=[50, 127]),
   midi.NoteOnEvent(tick=60, channel=2, data=[50, 0]),
   midi.NoteOnEvent(tick=0, channel=2, data=[52, 127]),
   midi.NoteOnEvent(tick=60, channel=2, data=[52, 0]),
   midi.NoteOnEvent(tick=0, channel=2, data=[50, 127]),
   midi.NoteOnEvent(tick=60, channel=2, data=[50, 0]),
   midi.NoteOnEvent(tick=0, channel=2, data=[57, 127]),
   midi.NoteOnEvent(tick=60, channel=2, data=[57, 0]),
   midi.NoteOnEvent(tick=0, channel=2, data=[55, 127]),
   midi.NoteOnEvent(tick=60, channel=2, data=[55, 0]),
   midi.NoteOnEvent(tick=0, channel=2, data=[52, 127]),
   midi.NoteOnEvent(tick=60, channel=2, data=[52, 0]),
   midi.NoteOnEvent(tick=0, channel=2, data=[50, 127]),
   midi.NoteOnEvent(tick=60, channel=2, data=[50, 0]),
   midi.NoteOnEvent(tick=0, channel=2, data=[40, 127]),
   midi.NoteOnEvent(tick=0, channel=2, data=[52, 127]),
   midi.NoteOnEvent(tick=60, channel=2, data=[40, 0]),
   midi.NoteOnEvent(tick=0, channel=2, data=[52, 0]),
   midi.NoteOnEvent(tick=0, channel=2, data=[50, 127]),
   midi.NoteOnEvent(tick=60, channel=2, data=[50, 0]),
   midi.NoteOnEvent(tick=0, channel=2, data=[40, 127]),
   midi.NoteOnEvent(tick=0, channel=2, data=[52, 127]),
   midi.NoteOnEvent(tick=60, channel=2, data=[40, 0]),
   midi.NoteOnEvent(tick=0, channel=2, data=[52, 0]),
   midi.NoteOnEvent(tick=0, channel=2, data=[50, 127]),
   midi.NoteOnEvent(tick=60, channel=2, data=[50, 0]),
   midi.NoteOnEvent(tick=0, channel=2, data=[40, 127]),
   midi.NoteOnEvent(tick=0, channel=2, data=[52, 127]),
   midi.NoteOnEvent(tick=60, channel=2, data=[40, 0]),
   midi.NoteOnEvent(tick=0, channel=2, data=[52, 0]),
   midi.NoteOnEvent(tick=0, channel=2, data=[50, 127]),
   midi.NoteOnEvent(tick=60, channel=2, data=[50, 0]),
   midi.NoteOnEvent(tick=0, channel=2, data=[47, 127]),
   midi.NoteOnEvent(tick=0, channel=2, data=[50, 127]),
   midi.NoteOnEvent(tick=60, channel=2, data=[47, 0]),
   midi.NoteOnEvent(tick=0, channel=2, data=[50, 0]),
   midi.NoteOnEvent(tick=0, channel=2, data=[50, 127]),
   midi.NoteOnEvent(tick=60, channel=2, data=[50, 0]),
   midi.NoteOnEvent(tick=0, channel=2, data=[40, 127]),
   midi.NoteOnEvent(tick=0, channel=2, data=[52, 127]),
   midi.NoteOnEvent(tick=60, channel=2, data=[40, 0]),
   midi.NoteOnEvent(tick=0, channel=2, data=[52, 0]),
   midi.NoteOnEvent(tick=0, channel=2, data=[50, 127]),
   midi.NoteOnEvent(tick=60, channel=2, data=[50, 0]),
   midi.NoteOnEvent(tick=0, channel=2, data=[40, 127]),
   midi.NoteOnEvent(tick=0, channel=2, data=[52, 127]),
   midi.NoteOnEvent(tick=60, channel=2, data=[40, 0]),
   midi.NoteOnEvent(tick=0, channel=2, data=[52, 0]),
   midi.NoteOnEvent(tick=0, channel=2, data=[50, 127]),
   midi.NoteOnEvent(tick=60, channel=2, data=[50, 0]),
   midi.NoteOnEvent(tick=0, channel=2, data=[40, 127]),
   midi.NoteOnEvent(tick=0, channel=2, data=[52, 127]),
   midi.NoteOnEvent(tick=60, channel=2, data=[40, 0]),
   midi.NoteOnEvent(tick=0, channel=2, data=[52, 0]),
   midi.NoteOnEvent(tick=0, channel=2, data=[50, 127]),
   midi.NoteOnEvent(tick=60, channel=2, data=[50, 0]),
   midi.NoteOnEvent(tick=0, channel=2, data=[47, 127]),
   midi.NoteOnEvent(tick=0, channel=2, data=[50, 127]),
   midi.NoteOnEvent(tick=60, channel=2, data=[47, 0]),
   midi.NoteOnEvent(tick=0, channel=2, data=[50, 0]),
   midi.NoteOnEvent(tick=0, channel=2, data=[50, 127]),
   midi.NoteOnEvent(tick=60, channel=2, data=[50, 0]),
   midi.NoteOnEvent(tick=0, channel=2, data=[48, 127]),
   midi.NoteOnEvent(tick=0, channel=2, data=[55, 127]),
   midi.NoteOnEvent(tick=120, channel=2, data=[48, 0]),
   midi.NoteOnEvent(tick=0, channel=2, data=[55, 0]),
   midi.NoteOnEvent(tick=0, channel=2, data=[43, 127]),
   midi.NoteOnEvent(tick=0, channel=2, data=[50, 127]),
   midi.NoteOnEvent(tick=120, channel=2, data=[43, 0]),
   midi.NoteOnEvent(tick=0, channel=2, data=[50, 0]),
   midi.NoteOnEvent(tick=0, channel=2, data=[57, 127]),
   midi.NoteOnEvent(tick=0, channel=2, data=[50, 127]),
   midi.NoteOnEvent(tick=120, channel=2, data=[57, 0]),
   midi.NoteOnEvent(tick=0, channel=2, data=[50, 0]),
   midi.NoteOnEvent(tick=0, channel=2, data=[48, 127]),
   midi.NoteOnEvent(tick=0, channel=2, data=[55, 127]),
   midi.NoteOnEvent(tick=120, channel=2, data=[48, 0]),
   midi.NoteOnEvent(tick=0, channel=2, data=[55, 0]),
   midi.PitchWheelEvent(tick=0, channel=2, data=[0, 64]),
   midi.NoteOnEvent(tick=0, channel=2, data=[40, 127]),
   midi.PitchWheelEvent(tick=1, channel=2, data=[110, 63]),
   midi.PitchWheelEvent(tick=1, channel=2, data=[93, 63]),
   midi.PitchWheelEvent(tick=1, channel=2, data=[76, 63]),
   midi.PitchWheelEvent(tick=1, channel=2, data=[59, 63]),
   midi.PitchWheelEvent(tick=1, channel=2, data=[42, 63]),
   midi.PitchWheelEvent(tick=1, channel=2, data=[25, 63]),
   midi.PitchWheelEvent(tick=1, channel=2, data=[8, 63]),
   midi.PitchWheelEvent(tick=1, channel=2, data=[119, 62]),
   midi.PitchWheelEvent(tick=1, channel=2, data=[102, 62]),
   midi.PitchWheelEvent(tick=1, channel=2, data=[84, 62]),
   midi.PitchWheelEvent(tick=1, channel=2, data=[67, 62]),
   midi.PitchWheelEvent(tick=1, channel=2, data=[50, 62]),
   midi.PitchWheelEvent(tick=1, channel=2, data=[33, 62]),
   midi.PitchWheelEvent(tick=1, channel=2, data=[16, 62]),
   midi.PitchWheelEvent(tick=1, channel=2, data=[127, 61]),
   midi.PitchWheelEvent(tick=1, channel=2, data=[110, 61]),
   midi.PitchWheelEvent(tick=1, channel=2, data=[93, 61]),
   midi.PitchWheelEvent(tick=1, channel=2, data=[76, 61]),
   midi.PitchWheelEvent(tick=1, channel=2, data=[59, 61]),
   midi.PitchWheelEvent(tick=1, channel=2, data=[41, 61]),
   midi.PitchWheelEvent(tick=1, channel=2, data=[24, 61]),
   midi.PitchWheelEvent(tick=1, channel=2, data=[7, 61]),
   midi.PitchWheelEvent(tick=1, channel=2, data=[118, 60]),
   midi.PitchWheelEvent(tick=1, channel=2, data=[101, 60]),
   midi.PitchWheelEvent(tick=1, channel=2, data=[84, 60]),
   midi.PitchWheelEvent(tick=1, channel=2, data=[67, 60]),
   midi.PitchWheelEvent(tick=1, channel=2, data=[50, 60]),
   midi.PitchWheelEvent(tick=1, channel=2, data=[33, 60]),
   midi.PitchWheelEvent(tick=1, channel=2, data=[16, 60]),
   midi.PitchWheelEvent(tick=1, channel=2, data=[126, 59]),
   midi.PitchWheelEvent(tick=1, channel=2, data=[109, 59]),
   midi.PitchWheelEvent(tick=1, channel=2, data=[92, 59]),
   midi.PitchWheelEvent(tick=1, channel=2, data=[75, 59]),
   midi.PitchWheelEvent(tick=1, channel=2, data=[58, 59]),
   midi.PitchWheelEvent(tick=1, channel=2, data=[41, 59]),
   midi.PitchWheelEvent(tick=1, channel=2, data=[24, 59]),
   midi.PitchWheelEvent(tick=1, channel=2, data=[7, 59]),
   midi.PitchWheelEvent(tick=1, channel=2, data=[118, 58]),
   midi.PitchWheelEvent(tick=1, channel=2, data=[101, 58]),
   midi.PitchWheelEvent(tick=1, channel=2, data=[83, 58]),
   midi.PitchWheelEvent(tick=1, channel=2, data=[66, 58]),
   midi.PitchWheelEvent(tick=1, channel=2, data=[49, 58]),
   midi.PitchWheelEvent(tick=1, channel=2, data=[32, 58]),
   midi.PitchWheelEvent(tick=1, channel=2, data=[15, 58]),
   midi.PitchWheelEvent(tick=1, channel=2, data=[126, 57]),
   midi.PitchWheelEvent(tick=1, channel=2, data=[109, 57]),
   midi.PitchWheelEvent(tick=1, channel=2, data=[92, 57]),
   midi.PitchWheelEvent(tick=1, channel=2, data=[75, 57]),
   midi.PitchWheelEvent(tick=1, channel=2, data=[57, 57]),
   midi.PitchWheelEvent(tick=1, channel=2, data=[40, 57]),
   midi.PitchWheelEvent(tick=1, channel=2, data=[23, 57]),
   midi.PitchWheelEvent(tick=1, channel=2, data=[6, 57]),
   midi.PitchWheelEvent(tick=1, channel=2, data=[117, 56]),
   midi.PitchWheelEvent(tick=1, channel=2, data=[100, 56]),
   midi.PitchWheelEvent(tick=1, channel=2, data=[83, 56]),
   midi.PitchWheelEvent(tick=1, channel=2, data=[66, 56]),
   midi.PitchWheelEvent(tick=1, channel=2, data=[49, 56]),
   midi.PitchWheelEvent(tick=1, channel=2, data=[32, 56]),
   midi.PitchWheelEvent(tick=1, channel=2, data=[14, 56]),
   midi.PitchWheelEvent(tick=1, channel=2, data=[125, 55]),
   midi.PitchWheelEvent(tick=1, channel=2, data=[108, 55]),
   midi.PitchWheelEvent(tick=1, channel=2, data=[91, 55]),
   midi.PitchWheelEvent(tick=1, channel=2, data=[74, 55]),
   midi.PitchWheelEvent(tick=1, channel=2, data=[57, 55]),
   midi.PitchWheelEvent(tick=1, channel=2, data=[40, 55]),
   midi.PitchWheelEvent(tick=1, channel=2, data=[23, 55]),
   midi.PitchWheelEvent(tick=1, channel=2, data=[6, 55]),
   midi.PitchWheelEvent(tick=1, channel=2, data=[117, 54]),
   midi.PitchWheelEvent(tick=1, channel=2, data=[99, 54]),
   midi.PitchWheelEvent(tick=1, channel=2, data=[82, 54]),
   midi.PitchWheelEvent(tick=1, channel=2, data=[65, 54]),
   midi.PitchWheelEvent(tick=1, channel=2, data=[48, 54]),
   midi.PitchWheelEvent(tick=1, channel=2, data=[31, 54]),
   midi.PitchWheelEvent(tick=1, channel=2, data=[14, 54]),
   midi.PitchWheelEvent(tick=1, channel=2, data=[125, 53]),
   midi.PitchWheelEvent(tick=1, channel=2, data=[108, 53]),
   midi.PitchWheelEvent(tick=1, channel=2, data=[91, 53]),
   midi.PitchWheelEvent(tick=1, channel=2, data=[74, 53]),
   midi.PitchWheelEvent(tick=1, channel=2, data=[56, 53]),
   midi.PitchWheelEvent(tick=1, channel=2, data=[39, 53]),
   midi.PitchWheelEvent(tick=1, channel=2, data=[22, 53]),
   midi.PitchWheelEvent(tick=1, channel=2, data=[5, 53]),
   midi.PitchWheelEvent(tick=1, channel=2, data=[116, 52]),
   midi.PitchWheelEvent(tick=1, channel=2, data=[99, 52]),
   midi.PitchWheelEvent(tick=1, channel=2, data=[82, 52]),
   midi.PitchWheelEvent(tick=1, channel=2, data=[65, 52]),
   midi.PitchWheelEvent(tick=1, channel=2, data=[48, 52]),
   midi.PitchWheelEvent(tick=1, channel=2, data=[30, 52]),
   midi.PitchWheelEvent(tick=1, channel=2, data=[13, 52]),
   midi.PitchWheelEvent(tick=1, channel=2, data=[124, 51]),
   midi.PitchWheelEvent(tick=1, channel=2, data=[107, 51]),
   midi.PitchWheelEvent(tick=1, channel=2, data=[90, 51]),
   midi.PitchWheelEvent(tick=1, channel=2, data=[73, 51]),
   midi.PitchWheelEvent(tick=1, channel=2, data=[56, 51]),
   midi.PitchWheelEvent(tick=1, channel=2, data=[39, 51]),
   midi.PitchWheelEvent(tick=1, channel=2, data=[22, 51]),
   midi.PitchWheelEvent(tick=1, channel=2, data=[5, 51]),
   midi.PitchWheelEvent(tick=1, channel=2, data=[115, 50]),
   midi.PitchWheelEvent(tick=1, channel=2, data=[98, 50]),
   midi.PitchWheelEvent(tick=1, channel=2, data=[81, 50]),
   midi.PitchWheelEvent(tick=1, channel=2, data=[64, 50]),
   midi.PitchWheelEvent(tick=1, channel=2, data=[47, 50]),
   midi.PitchWheelEvent(tick=1, channel=2, data=[30, 50]),
   midi.PitchWheelEvent(tick=1, channel=2, data=[13, 50]),
   midi.PitchWheelEvent(tick=1, channel=2, data=[124, 49]),
   midi.PitchWheelEvent(tick=1, channel=2, data=[107, 49]),
   midi.PitchWheelEvent(tick=1, channel=2, data=[90, 49]),
   midi.PitchWheelEvent(tick=1, channel=2, data=[72, 49]),
   midi.PitchWheelEvent(tick=1, channel=2, data=[55, 49]),
   midi.PitchWheelEvent(tick=1, channel=2, data=[38, 49]),
   midi.PitchWheelEvent(tick=1, channel=2, data=[21, 49]),
   midi.PitchWheelEvent(tick=1, channel=2, data=[4, 49]),
   midi.PitchWheelEvent(tick=1, channel=2, data=[115, 48]),
   midi.PitchWheelEvent(tick=1, channel=2, data=[98, 48]),
   midi.PitchWheelEvent(tick=1, channel=2, data=[81, 48]),
   midi.PitchWheelEvent(tick=1, channel=2, data=[64, 48]),
   midi.PitchWheelEvent(tick=1, channel=2, data=[47, 48]),
   midi.PitchWheelEvent(tick=1, channel=2, data=[29, 48]),
   midi.PitchWheelEvent(tick=1, channel=2, data=[12, 48]),
   midi.PitchWheelEvent(tick=1, channel=2, data=[123, 47]),
   midi.PitchWheelEvent(tick=1, channel=2, data=[106, 47]),
   midi.PitchWheelEvent(tick=1, channel=2, data=[89, 47]),
   midi.PitchWheelEvent(tick=1, channel=2, data=[72, 47]),
   midi.PitchWheelEvent(tick=1, channel=2, data=[55, 47]),
   midi.PitchWheelEvent(tick=1, channel=2, data=[38, 47]),
   midi.PitchWheelEvent(tick=1, channel=2, data=[21, 47]),
   midi.PitchWheelEvent(tick=1, channel=2, data=[4, 47]),
   midi.PitchWheelEvent(tick=1, channel=2, data=[114, 46]),
   midi.PitchWheelEvent(tick=1, channel=2, data=[97, 46]),
   midi.PitchWheelEvent(tick=1, channel=2, data=[80, 46]),
   midi.PitchWheelEvent(tick=1, channel=2, data=[63, 46]),
   midi.PitchWheelEvent(tick=1, channel=2, data=[46, 46]),
   midi.PitchWheelEvent(tick=1, channel=2, data=[29, 46]),
   midi.PitchWheelEvent(tick=1, channel=2, data=[12, 46]),
   midi.PitchWheelEvent(tick=1, channel=2, data=[123, 45]),
   midi.PitchWheelEvent(tick=1, channel=2, data=[106, 45]),
   midi.PitchWheelEvent(tick=1, channel=2, data=[88, 45]),
   midi.PitchWheelEvent(tick=1, channel=2, data=[71, 45]),
   midi.PitchWheelEvent(tick=1, channel=2, data=[54, 45]),
   midi.PitchWheelEvent(tick=1, channel=2, data=[37, 45]),
   midi.PitchWheelEvent(tick=1, channel=2, data=[20, 45]),
   midi.PitchWheelEvent(tick=1, channel=2, data=[3, 45]),
   midi.PitchWheelEvent(tick=1, channel=2, data=[114, 44]),
   midi.PitchWheelEvent(tick=1, channel=2, data=[97, 44]),
   midi.PitchWheelEvent(tick=1, channel=2, data=[80, 44]),
   midi.PitchWheelEvent(tick=1, channel=2, data=[63, 44]),
   midi.PitchWheelEvent(tick=1, channel=2, data=[45, 44]),
   midi.PitchWheelEvent(tick=1, channel=2, data=[28, 44]),
   midi.PitchWheelEvent(tick=1, channel=2, data=[11, 44]),
   midi.PitchWheelEvent(tick=1, channel=2, data=[122, 43]),
   midi.PitchWheelEvent(tick=1, channel=2, data=[105, 43]),
   midi.PitchWheelEvent(tick=1, channel=2, data=[88, 43]),
   midi.PitchWheelEvent(tick=1, channel=2, data=[71, 43]),
   midi.PitchWheelEvent(tick=1, channel=2, data=[54, 43]),
   midi.PitchWheelEvent(tick=1, channel=2, data=[37, 43]),
   midi.PitchWheelEvent(tick=1, channel=2, data=[20, 43]),
   midi.PitchWheelEvent(tick=1, channel=2, data=[2, 43]),
   midi.PitchWheelEvent(tick=1, channel=2, data=[113, 42]),
   midi.PitchWheelEvent(tick=1, channel=2, data=[96, 42]),
   midi.PitchWheelEvent(tick=1, channel=2, data=[79, 42]),
   midi.PitchWheelEvent(tick=1, channel=2, data=[62, 42]),
   midi.PitchWheelEvent(tick=1, channel=2, data=[45, 42]),
   midi.PitchWheelEvent(tick=1, channel=2, data=[28, 42]),
   midi.PitchWheelEvent(tick=1, channel=2, data=[11, 42]),
   midi.PitchWheelEvent(tick=1, channel=2, data=[122, 41]),
   midi.PitchWheelEvent(tick=1, channel=2, data=[105, 41]),
   midi.PitchWheelEvent(tick=1, channel=2, data=[87, 41]),
   midi.PitchWheelEvent(tick=1, channel=2, data=[70, 41]),
   midi.PitchWheelEvent(tick=1, channel=2, data=[53, 41]),
   midi.PitchWheelEvent(tick=1, channel=2, data=[36, 41]),
   midi.PitchWheelEvent(tick=1, channel=2, data=[19, 41]),
   midi.PitchWheelEvent(tick=1, channel=2, data=[2, 41]),
   midi.PitchWheelEvent(tick=1, channel=2, data=[113, 40]),
   midi.PitchWheelEvent(tick=1, channel=2, data=[96, 40]),
   midi.PitchWheelEvent(tick=1, channel=2, data=[79, 40]),
   midi.PitchWheelEvent(tick=1, channel=2, data=[61, 40]),
   midi.PitchWheelEvent(tick=1, channel=2, data=[44, 40]),
   midi.PitchWheelEvent(tick=1, channel=2, data=[27, 40]),
   midi.PitchWheelEvent(tick=1, channel=2, data=[10, 40]),
   midi.PitchWheelEvent(tick=1, channel=2, data=[121, 39]),
   midi.PitchWheelEvent(tick=1, channel=2, data=[104, 39]),
   midi.PitchWheelEvent(tick=1, channel=2, data=[87, 39]),
   midi.PitchWheelEvent(tick=1, channel=2, data=[70, 39]),
   midi.PitchWheelEvent(tick=1, channel=2, data=[53, 39]),
   midi.PitchWheelEvent(tick=1, channel=2, data=[36, 39]),
   midi.PitchWheelEvent(tick=1, channel=2, data=[18, 39]),
   midi.PitchWheelEvent(tick=1, channel=2, data=[1, 39]),
   midi.PitchWheelEvent(tick=1, channel=2, data=[112, 38]),
   midi.PitchWheelEvent(tick=1, channel=2, data=[95, 38]),
   midi.PitchWheelEvent(tick=1, channel=2, data=[78, 38]),
   midi.PitchWheelEvent(tick=1, channel=2, data=[61, 38]),
   midi.PitchWheelEvent(tick=1, channel=2, data=[44, 38]),
   midi.PitchWheelEvent(tick=1, channel=2, data=[27, 38]),
   midi.PitchWheelEvent(tick=1, channel=2, data=[10, 38]),
   midi.PitchWheelEvent(tick=1, channel=2, data=[121, 37]),
   midi.PitchWheelEvent(tick=1, channel=2, data=[103, 37]),
   midi.PitchWheelEvent(tick=1, channel=2, data=[86, 37]),
   midi.PitchWheelEvent(tick=1, channel=2, data=[69, 37]),
   midi.PitchWheelEvent(tick=1, channel=2, data=[52, 37]),
   midi.PitchWheelEvent(tick=1, channel=2, data=[35, 37]),
   midi.PitchWheelEvent(tick=1, channel=2, data=[18, 37]),
   midi.PitchWheelEvent(tick=1, channel=2, data=[1, 37]),
   midi.PitchWheelEvent(tick=1, channel=2, data=[112, 36]),
   midi.PitchWheelEvent(tick=1, channel=2, data=[95, 36]),
   midi.PitchWheelEvent(tick=1, channel=2, data=[78, 36]),
   midi.PitchWheelEvent(tick=1, channel=2, data=[60, 36]),
   midi.PitchWheelEvent(tick=1, channel=2, data=[43, 36]),
   midi.PitchWheelEvent(tick=1, channel=2, data=[26, 36]),
   midi.PitchWheelEvent(tick=1, channel=2, data=[9, 36]),
   midi.PitchWheelEvent(tick=1, channel=2, data=[120, 35]),
   midi.PitchWheelEvent(tick=1, channel=2, data=[103, 35]),
   midi.PitchWheelEvent(tick=1, channel=2, data=[86, 35]),
   midi.PitchWheelEvent(tick=1, channel=2, data=[69, 35]),
   midi.PitchWheelEvent(tick=1, channel=2, data=[52, 35]),
   midi.PitchWheelEvent(tick=1, channel=2, data=[35, 35]),
   midi.PitchWheelEvent(tick=1, channel=2, data=[17, 35]),
   midi.PitchWheelEvent(tick=1, channel=2, data=[0, 35]),
   midi.PitchWheelEvent(tick=1, channel=2, data=[111, 34]),
   midi.PitchWheelEvent(tick=1, channel=2, data=[94, 34]),
   midi.PitchWheelEvent(tick=1, channel=2, data=[77, 34]),
   midi.PitchWheelEvent(tick=1, channel=2, data=[60, 34]),
   midi.PitchWheelEvent(tick=1, channel=2, data=[43, 34]),
   midi.PitchWheelEvent(tick=1, channel=2, data=[26, 34]),
   midi.PitchWheelEvent(tick=1, channel=2, data=[9, 34]),
   midi.PitchWheelEvent(tick=1, channel=2, data=[119, 33]),
   midi.PitchWheelEvent(tick=1, channel=2, data=[102, 33]),
   midi.PitchWheelEvent(tick=1, channel=2, data=[85, 33]),
   midi.PitchWheelEvent(tick=1, channel=2, data=[68, 33]),
   midi.PitchWheelEvent(tick=1, channel=2, data=[51, 33]),
   midi.PitchWheelEvent(tick=1, channel=2, data=[34, 33]),
   midi.PitchWheelEvent(tick=1, channel=2, data=[17, 33]),
   midi.PitchWheelEvent(tick=1, channel=2, data=[0, 33]),
   midi.PitchWheelEvent(tick=1, channel=2, data=[111, 32]),
   midi.PitchWheelEvent(tick=1, channel=2, data=[94, 32]),
   midi.PitchWheelEvent(tick=1, channel=2, data=[76, 32]),
   midi.PitchWheelEvent(tick=1, channel=2, data=[59, 32]),
   midi.PitchWheelEvent(tick=1, channel=2, data=[42, 32]),
   midi.PitchWheelEvent(tick=1, channel=2, data=[25, 32]),
   midi.PitchWheelEvent(tick=1, channel=2, data=[8, 32]),
   midi.PitchWheelEvent(tick=1, channel=2, data=[119, 31]),
   midi.PitchWheelEvent(tick=1, channel=2, data=[102, 31]),
   midi.PitchWheelEvent(tick=1, channel=2, data=[85, 31]),
   midi.PitchWheelEvent(tick=1, channel=2, data=[68, 31]),
   midi.PitchWheelEvent(tick=1, channel=2, data=[51, 31]),
   midi.PitchWheelEvent(tick=1, channel=2, data=[33, 31]),
   midi.PitchWheelEvent(tick=1, channel=2, data=[16, 31]),
   midi.PitchWheelEvent(tick=1, channel=2, data=[127, 30]),
   midi.PitchWheelEvent(tick=1, channel=2, data=[110, 30]),
   midi.PitchWheelEvent(tick=1, channel=2, data=[93, 30]),
   midi.PitchWheelEvent(tick=1, channel=2, data=[76, 30]),
   midi.PitchWheelEvent(tick=1, channel=2, data=[59, 30]),
   midi.PitchWheelEvent(tick=1, channel=2, data=[42, 30]),
   midi.PitchWheelEvent(tick=1, channel=2, data=[25, 30]),
   midi.PitchWheelEvent(tick=1, channel=2, data=[8, 30]),
   midi.PitchWheelEvent(tick=1, channel=2, data=[118, 29]),
   midi.PitchWheelEvent(tick=1, channel=2, data=[101, 29]),
   midi.PitchWheelEvent(tick=1, channel=2, data=[84, 29]),
   midi.PitchWheelEvent(tick=1, channel=2, data=[67, 29]),
   midi.PitchWheelEvent(tick=1, channel=2, data=[50, 29]),
   midi.PitchWheelEvent(tick=1, channel=2, data=[33, 29]),
   midi.PitchWheelEvent(tick=1, channel=2, data=[16, 29]),
   midi.PitchWheelEvent(tick=1, channel=2, data=[127, 28]),
   midi.PitchWheelEvent(tick=1, channel=2, data=[110, 28]),
   midi.PitchWheelEvent(tick=1, channel=2, data=[92, 28]),
   midi.PitchWheelEvent(tick=1, channel=2, data=[75, 28]),
   midi.PitchWheelEvent(tick=1, channel=2, data=[58, 28]),
   midi.PitchWheelEvent(tick=1, channel=2, data=[41, 28]),
   midi.PitchWheelEvent(tick=1, channel=2, data=[24, 28]),
   midi.PitchWheelEvent(tick=1, channel=2, data=[7, 28]),
   midi.PitchWheelEvent(tick=1, channel=2, data=[118, 27]),
   midi.PitchWheelEvent(tick=1, channel=2, data=[101, 27]),
   midi.PitchWheelEvent(tick=1, channel=2, data=[84, 27]),
   midi.PitchWheelEvent(tick=1, channel=2, data=[67, 27]),
   midi.PitchWheelEvent(tick=1, channel=2, data=[49, 27]),
   midi.PitchWheelEvent(tick=1, channel=2, data=[32, 27]),
   midi.PitchWheelEvent(tick=1, channel=2, data=[15, 27]),
   midi.PitchWheelEvent(tick=1, channel=2, data=[126, 26]),
   midi.PitchWheelEvent(tick=1, channel=2, data=[109, 26]),
   midi.PitchWheelEvent(tick=1, channel=2, data=[92, 26]),
   midi.PitchWheelEvent(tick=1, channel=2, data=[75, 26]),
   midi.PitchWheelEvent(tick=1, channel=2, data=[58, 26]),
   midi.PitchWheelEvent(tick=1, channel=2, data=[41, 26]),
   midi.PitchWheelEvent(tick=1, channel=2, data=[24, 26]),
   midi.PitchWheelEvent(tick=1, channel=2, data=[6, 26]),
   midi.PitchWheelEvent(tick=1, channel=2, data=[117, 25]),
   midi.PitchWheelEvent(tick=1, channel=2, data=[100, 25]),
   midi.PitchWheelEvent(tick=1, channel=2, data=[83, 25]),
   midi.PitchWheelEvent(tick=1, channel=2, data=[66, 25]),
   midi.PitchWheelEvent(tick=1, channel=2, data=[49, 25]),
   midi.PitchWheelEvent(tick=1, channel=2, data=[32, 25]),
   midi.PitchWheelEvent(tick=1, channel=2, data=[15, 25]),
   midi.PitchWheelEvent(tick=1, channel=2, data=[126, 24]),
   midi.PitchWheelEvent(tick=1, channel=2, data=[109, 24]),
   midi.PitchWheelEvent(tick=1, channel=2, data=[91, 24]),
   midi.PitchWheelEvent(tick=1, channel=2, data=[74, 24]),
   midi.PitchWheelEvent(tick=1, channel=2, data=[57, 24]),
   midi.PitchWheelEvent(tick=1, channel=2, data=[40, 24]),
   midi.PitchWheelEvent(tick=1, channel=2, data=[23, 24]),
   midi.PitchWheelEvent(tick=1, channel=2, data=[6, 24]),
   midi.PitchWheelEvent(tick=1, channel=2, data=[117, 23]),
   midi.PitchWheelEvent(tick=1, channel=2, data=[100, 23]),
   midi.PitchWheelEvent(tick=1, channel=2, data=[83, 23]),
   midi.PitchWheelEvent(tick=1, channel=2, data=[66, 23]),
   midi.PitchWheelEvent(tick=1, channel=2, data=[48, 23]),
   midi.PitchWheelEvent(tick=1, channel=2, data=[31, 23]),
   midi.PitchWheelEvent(tick=1, channel=2, data=[14, 23]),
   midi.PitchWheelEvent(tick=1, channel=2, data=[125, 22]),
   midi.PitchWheelEvent(tick=1, channel=2, data=[108, 22]),
   midi.PitchWheelEvent(tick=1, channel=2, data=[91, 22]),
   midi.PitchWheelEvent(tick=1, channel=2, data=[74, 22]),
   midi.PitchWheelEvent(tick=1, channel=2, data=[57, 22]),
   midi.PitchWheelEvent(tick=1, channel=2, data=[40, 22]),
   midi.PitchWheelEvent(tick=1, channel=2, data=[22, 22]),
   midi.PitchWheelEvent(tick=1, channel=2, data=[5, 22]),
   midi.PitchWheelEvent(tick=1, channel=2, data=[116, 21]),
   midi.PitchWheelEvent(tick=1, channel=2, data=[99, 21]),
   midi.PitchWheelEvent(tick=1, channel=2, data=[82, 21]),
   midi.PitchWheelEvent(tick=1, channel=2, data=[65, 21]),
   midi.PitchWheelEvent(tick=1, channel=2, data=[48, 21]),
   midi.PitchWheelEvent(tick=1, channel=2, data=[31, 21]),
   midi.PitchWheelEvent(tick=1, channel=2, data=[14, 21]),
   midi.PitchWheelEvent(tick=1, channel=2, data=[125, 20]),
   midi.PitchWheelEvent(tick=1, channel=2, data=[107, 20]),
   midi.PitchWheelEvent(tick=1, channel=2, data=[90, 20]),
   midi.PitchWheelEvent(tick=1, channel=2, data=[73, 20]),
   midi.PitchWheelEvent(tick=1, channel=2, data=[56, 20]),
   midi.PitchWheelEvent(tick=1, channel=2, data=[39, 20]),
   midi.PitchWheelEvent(tick=1, channel=2, data=[22, 20]),
   midi.PitchWheelEvent(tick=1, channel=2, data=[5, 20]),
   midi.PitchWheelEvent(tick=1, channel=2, data=[116, 19]),
   midi.PitchWheelEvent(tick=1, channel=2, data=[99, 19]),
   midi.PitchWheelEvent(tick=1, channel=2, data=[82, 19]),
   midi.PitchWheelEvent(tick=1, channel=2, data=[64, 19]),
   midi.PitchWheelEvent(tick=1, channel=2, data=[47, 19]),
   midi.PitchWheelEvent(tick=1, channel=2, data=[30, 19]),
   midi.PitchWheelEvent(tick=1, channel=2, data=[13, 19]),
   midi.PitchWheelEvent(tick=1, channel=2, data=[124, 18]),
   midi.PitchWheelEvent(tick=1, channel=2, data=[107, 18]),
   midi.PitchWheelEvent(tick=1, channel=2, data=[90, 18]),
   midi.PitchWheelEvent(tick=1, channel=2, data=[73, 18]),
   midi.PitchWheelEvent(tick=1, channel=2, data=[56, 18]),
   midi.PitchWheelEvent(tick=1, channel=2, data=[39, 18]),
   midi.PitchWheelEvent(tick=1, channel=2, data=[21, 18]),
   midi.PitchWheelEvent(tick=1, channel=2, data=[4, 18]),
   midi.PitchWheelEvent(tick=1, channel=2, data=[115, 17]),
   midi.PitchWheelEvent(tick=1, channel=2, data=[98, 17]),
   midi.PitchWheelEvent(tick=1, channel=2, data=[81, 17]),
   midi.PitchWheelEvent(tick=1, channel=2, data=[64, 17]),
   midi.PitchWheelEvent(tick=1, channel=2, data=[47, 17]),
   midi.PitchWheelEvent(tick=1, channel=2, data=[30, 17]),
   midi.PitchWheelEvent(tick=1, channel=2, data=[13, 17]),
   midi.PitchWheelEvent(tick=1, channel=2, data=[123, 16]),
   midi.PitchWheelEvent(tick=1, channel=2, data=[106, 16]),
   midi.PitchWheelEvent(tick=1, channel=2, data=[89, 16]),
   midi.PitchWheelEvent(tick=1, channel=2, data=[72, 16]),
   midi.PitchWheelEvent(tick=1, channel=2, data=[55, 16]),
   midi.PitchWheelEvent(tick=1, channel=2, data=[38, 16]),
   midi.PitchWheelEvent(tick=1, channel=2, data=[21, 16]),
   midi.PitchWheelEvent(tick=1, channel=2, data=[4, 16]),
   midi.PitchWheelEvent(tick=1, channel=2, data=[115, 15]),
   midi.PitchWheelEvent(tick=1, channel=2, data=[98, 15]),
   midi.PitchWheelEvent(tick=1, channel=2, data=[80, 15]),
   midi.PitchWheelEvent(tick=1, channel=2, data=[63, 15]),
   midi.PitchWheelEvent(tick=1, channel=2, data=[46, 15]),
   midi.PitchWheelEvent(tick=1, channel=2, data=[29, 15]),
   midi.PitchWheelEvent(tick=1, channel=2, data=[12, 15]),
   midi.PitchWheelEvent(tick=1, channel=2, data=[123, 14]),
   midi.PitchWheelEvent(tick=1, channel=2, data=[106, 14]),
   midi.PitchWheelEvent(tick=1, channel=2, data=[89, 14]),
   midi.PitchWheelEvent(tick=1, channel=2, data=[72, 14]),
   midi.PitchWheelEvent(tick=1, channel=2, data=[55, 14]),
   midi.PitchWheelEvent(tick=1, channel=2, data=[37, 14]),
   midi.PitchWheelEvent(tick=1, channel=2, data=[20, 14]),
   midi.PitchWheelEvent(tick=1, channel=2, data=[3, 14]),
   midi.PitchWheelEvent(tick=1, channel=2, data=[114, 13]),
   midi.PitchWheelEvent(tick=1, channel=2, data=[97, 13]),
   midi.PitchWheelEvent(tick=1, channel=2, data=[80, 13]),
   midi.PitchWheelEvent(tick=1, channel=2, data=[63, 13]),
   midi.PitchWheelEvent(tick=1, channel=2, data=[46, 13]),
   midi.PitchWheelEvent(tick=1, channel=2, data=[29, 13]),
   midi.PitchWheelEvent(tick=1, channel=2, data=[12, 13]),
   midi.PitchWheelEvent(tick=1, channel=2, data=[122, 12]),
   midi.PitchWheelEvent(tick=1, channel=2, data=[105, 12]),
   midi.PitchWheelEvent(tick=1, channel=2, data=[88, 12]),
   midi.PitchWheelEvent(tick=1, channel=2, data=[71, 12]),
   midi.PitchWheelEvent(tick=1, channel=2, data=[54, 12]),
   midi.PitchWheelEvent(tick=1, channel=2, data=[37, 12]),
   midi.PitchWheelEvent(tick=1, channel=2, data=[20, 12]),
   midi.PitchWheelEvent(tick=1, channel=2, data=[3, 12]),
   midi.PitchWheelEvent(tick=1, channel=2, data=[114, 11]),
   midi.PitchWheelEvent(tick=1, channel=2, data=[97, 11]),
   midi.PitchWheelEvent(tick=1, channel=2, data=[79, 11]),
   midi.PitchWheelEvent(tick=1, channel=2, data=[62, 11]),
   midi.PitchWheelEvent(tick=1, channel=2, data=[45, 11]),
   midi.PitchWheelEvent(tick=1, channel=2, data=[28, 11]),
   midi.PitchWheelEvent(tick=1, channel=2, data=[11, 11]),
   midi.PitchWheelEvent(tick=1, channel=2, data=[122, 10]),
   midi.PitchWheelEvent(tick=1, channel=2, data=[105, 10]),
   midi.PitchWheelEvent(tick=1, channel=2, data=[88, 10]),
   midi.PitchWheelEvent(tick=1, channel=2, data=[71, 10]),
   midi.PitchWheelEvent(tick=1, channel=2, data=[53, 10]),
   midi.PitchWheelEvent(tick=1, channel=2, data=[36, 10]),
   midi.PitchWheelEvent(tick=1, channel=2, data=[19, 10]),
   midi.PitchWheelEvent(tick=1, channel=2, data=[2, 10]),
   midi.PitchWheelEvent(tick=1, channel=2, data=[113, 9]),
   midi.PitchWheelEvent(tick=1, channel=2, data=[96, 9]),
   midi.PitchWheelEvent(tick=1, channel=2, data=[79, 9]),
   midi.PitchWheelEvent(tick=1, channel=2, data=[62, 9]),
   midi.PitchWheelEvent(tick=1, channel=2, data=[45, 9]),
   midi.PitchWheelEvent(tick=1, channel=2, data=[28, 9]),
   midi.PitchWheelEvent(tick=1, channel=2, data=[10, 9]),
   midi.PitchWheelEvent(tick=1, channel=2, data=[121, 8]),
   midi.PitchWheelEvent(tick=1, channel=2, data=[104, 8]),
   midi.PitchWheelEvent(tick=1, channel=2, data=[87, 8]),
   midi.PitchWheelEvent(tick=1, channel=2, data=[70, 8]),
   midi.PitchWheelEvent(tick=1, channel=2, data=[53, 8]),
   midi.PitchWheelEvent(tick=1, channel=2, data=[36, 8]),
   midi.PitchWheelEvent(tick=1, channel=2, data=[19, 8]),
   midi.PitchWheelEvent(tick=1, channel=2, data=[2, 8]),
   midi.PitchWheelEvent(tick=1, channel=2, data=[113, 7]),
   midi.PitchWheelEvent(tick=1, channel=2, data=[95, 7]),
   midi.PitchWheelEvent(tick=1, channel=2, data=[78, 7]),
   midi.PitchWheelEvent(tick=1, channel=2, data=[61, 7]),
   midi.PitchWheelEvent(tick=1, channel=2, data=[44, 7]),
   midi.PitchWheelEvent(tick=1, channel=2, data=[27, 7]),
   midi.PitchWheelEvent(tick=1, channel=2, data=[10, 7]),
   midi.PitchWheelEvent(tick=1, channel=2, data=[121, 6]),
   midi.PitchWheelEvent(tick=1, channel=2, data=[104, 6]),
   midi.PitchWheelEvent(tick=1, channel=2, data=[87, 6]),
   midi.PitchWheelEvent(tick=1, channel=2, data=[70, 6]),
   midi.PitchWheelEvent(tick=1, channel=2, data=[52, 6]),
   midi.PitchWheelEvent(tick=1, channel=2, data=[35, 6]),
   midi.PitchWheelEvent(tick=1, channel=2, data=[18, 6]),
   midi.PitchWheelEvent(tick=1, channel=2, data=[1, 6]),
   midi.PitchWheelEvent(tick=1, channel=2, data=[112, 5]),
   midi.PitchWheelEvent(tick=1, channel=2, data=[95, 5]),
   midi.PitchWheelEvent(tick=1, channel=2, data=[78, 5]),
   midi.PitchWheelEvent(tick=1, channel=2, data=[61, 5]),
   midi.PitchWheelEvent(tick=1, channel=2, data=[44, 5]),
   midi.PitchWheelEvent(tick=1, channel=2, data=[26, 5]),
   midi.PitchWheelEvent(tick=1, channel=2, data=[9, 5]),
   midi.PitchWheelEvent(tick=1, channel=2, data=[120, 4]),
   midi.PitchWheelEvent(tick=1, channel=2, data=[103, 4]),
   midi.PitchWheelEvent(tick=1, channel=2, data=[86, 4]),
   midi.PitchWheelEvent(tick=1, channel=2, data=[69, 4]),
   midi.PitchWheelEvent(tick=1, channel=2, data=[52, 4]),
   midi.PitchWheelEvent(tick=1, channel=2, data=[35, 4]),
   midi.PitchWheelEvent(tick=1, channel=2, data=[18, 4]),
   midi.PitchWheelEvent(tick=1, channel=2, data=[1, 4]),
   midi.PitchWheelEvent(tick=1, channel=2, data=[111, 3]),
   midi.PitchWheelEvent(tick=1, channel=2, data=[94, 3]),
   midi.PitchWheelEvent(tick=1, channel=2, data=[77, 3]),
   midi.PitchWheelEvent(tick=1, channel=2, data=[60, 3]),
   midi.PitchWheelEvent(tick=1, channel=2, data=[43, 3]),
   midi.PitchWheelEvent(tick=1, channel=2, data=[26, 3]),
   midi.PitchWheelEvent(tick=1, channel=2, data=[9, 3]),
   midi.PitchWheelEvent(tick=1, channel=2, data=[120, 2]),
   midi.PitchWheelEvent(tick=1, channel=2, data=[103, 2]),
   midi.PitchWheelEvent(tick=1, channel=2, data=[86, 2]),
   midi.PitchWheelEvent(tick=1, channel=2, data=[68, 2]),
   midi.PitchWheelEvent(tick=1, channel=2, data=[51, 2]),
   midi.PitchWheelEvent(tick=1, channel=2, data=[34, 2]),
   midi.PitchWheelEvent(tick=1, channel=2, data=[17, 2]),
   midi.PitchWheelEvent(tick=1, channel=2, data=[0, 2]),
   midi.PitchWheelEvent(tick=1, channel=2, data=[111, 1]),
   midi.PitchWheelEvent(tick=1, channel=2, data=[94, 1]),
   midi.PitchWheelEvent(tick=1, channel=2, data=[77, 1]),
   midi.PitchWheelEvent(tick=1, channel=2, data=[60, 1]),
   midi.PitchWheelEvent(tick=1, channel=2, data=[43, 1]),
   midi.PitchWheelEvent(tick=1, channel=2, data=[25, 1]),
   midi.PitchWheelEvent(tick=1, channel=2, data=[8, 1]),
   midi.PitchWheelEvent(tick=1, channel=2, data=[119, 0]),
   midi.PitchWheelEvent(tick=1, channel=2, data=[102, 0]),
   midi.PitchWheelEvent(tick=1, channel=2, data=[85, 0]),
   midi.PitchWheelEvent(tick=1, channel=2, data=[68, 0]),
   midi.PitchWheelEvent(tick=1, channel=2, data=[51, 0]),
   midi.PitchWheelEvent(tick=1, channel=2, data=[34, 0]),
   midi.PitchWheelEvent(tick=1, channel=2, data=[17, 0]),
   midi.PitchWheelEvent(tick=1, channel=2, data=[0, 0]),
   midi.NoteOnEvent(tick=1, channel=2, data=[40, 0]),
   midi.PitchWheelEvent(tick=0, channel=2, data=[0, 64]),
   midi.NoteOnEvent(tick=0, channel=2, data=[40, 127]),
   midi.NoteOnEvent(tick=60, channel=2, data=[40, 0]),
   midi.NoteOnEvent(tick=0, channel=2, data=[40, 127]),
   midi.NoteOnEvent(tick=60, channel=2, data=[40, 0]),
   midi.NoteOnEvent(tick=0, channel=2, data=[40, 127]),
   midi.NoteOnEvent(tick=40, channel=2, data=[40, 0]),
   midi.NoteOnEvent(tick=0, channel=2, data=[40, 127]),
   midi.NoteOnEvent(tick=40, channel=2, data=[40, 0]),
   midi.NoteOnEvent(tick=0, channel=2, data=[40, 127]),
   midi.NoteOnEvent(tick=40, channel=2, data=[40, 0]),
   midi.NoteOnEvent(tick=0, channel=2, data=[40, 127]),
   midi.NoteOnEvent(tick=60, channel=2, data=[40, 0]),
   midi.NoteOnEvent(tick=0, channel=2, data=[40, 127]),
   midi.NoteOnEvent(tick=60, channel=2, data=[40, 0]),
   midi.NoteOnEvent(tick=0, channel=2, data=[40, 127]),
   midi.NoteOnEvent(tick=40, channel=2, data=[40, 0]),
   midi.NoteOnEvent(tick=0, channel=2, data=[40, 127]),
   midi.NoteOnEvent(tick=40, channel=2, data=[40, 0]),
   midi.NoteOnEvent(tick=0, channel=2, data=[40, 127]),
   midi.NoteOnEvent(tick=40, channel=2, data=[40, 0]),
   midi.NoteOnEvent(tick=0, channel=2, data=[40, 127]),
   midi.NoteOnEvent(tick=60, channel=2, data=[40, 0]),
   midi.NoteOnEvent(tick=0, channel=2, data=[40, 127]),
   midi.NoteOnEvent(tick=60, channel=2, data=[40, 0]),
   midi.NoteOnEvent(tick=0, channel=2, data=[40, 127]),
   midi.NoteOnEvent(tick=40, channel=2, data=[40, 0]),
   midi.NoteOnEvent(tick=0, channel=2, data=[40, 127]),
   midi.NoteOnEvent(tick=40, channel=2, data=[40, 0]),
   midi.NoteOnEvent(tick=0, channel=2, data=[40, 127]),
   midi.NoteOnEvent(tick=40, channel=2, data=[40, 0]),
   midi.NoteOnEvent(tick=0, channel=2, data=[60, 127]),
   midi.NoteOnEvent(tick=0, channel=2, data=[53, 127]),
   midi.NoteOnEvent(tick=30, channel=2, data=[60, 0]),
   midi.NoteOnEvent(tick=0, channel=2, data=[53, 0]),
   midi.NoteOnEvent(tick=0, channel=2, data=[52, 127]),
   midi.NoteOnEvent(tick=0, channel=2, data=[59, 127]),
   midi.NoteOnEvent(tick=90, channel=2, data=[52, 0]),
   midi.NoteOnEvent(tick=0, channel=2, data=[59, 0]),
   midi.NoteOnEvent(tick=0, channel=2, data=[59, 127]),
   midi.NoteOnEvent(tick=0, channel=2, data=[52, 127]),
   midi.NoteOnEvent(tick=120, channel=2, data=[59, 0]),
   midi.NoteOnEvent(tick=0, channel=2, data=[52, 0]),
   midi.NoteOnEvent(tick=0, channel=2, data=[40, 127]),
   midi.NoteOnEvent(tick=60, channel=2, data=[40, 0]),
   midi.NoteOnEvent(tick=0, channel=2, data=[40, 127]),
   midi.NoteOnEvent(tick=60, channel=2, data=[40, 0]),
   midi.NoteOnEvent(tick=0, channel=2, data=[40, 127]),
   midi.NoteOnEvent(tick=40, channel=2, data=[40, 0]),
   midi.NoteOnEvent(tick=0, channel=2, data=[40, 127]),
   midi.NoteOnEvent(tick=40, channel=2, data=[40, 0]),
   midi.NoteOnEvent(tick=0, channel=2, data=[40, 127]),
   midi.NoteOnEvent(tick=40, channel=2, data=[40, 0]),
   midi.NoteOnEvent(tick=0, channel=2, data=[40, 127]),
   midi.NoteOnEvent(tick=60, channel=2, data=[40, 0]),
   midi.NoteOnEvent(tick=0, channel=2, data=[40, 127]),
   midi.NoteOnEvent(tick=60, channel=2, data=[40, 0]),
   midi.NoteOnEvent(tick=0, channel=2, data=[40, 127]),
   midi.NoteOnEvent(tick=40, channel=2, data=[40, 0]),
   midi.NoteOnEvent(tick=0, channel=2, data=[40, 127]),
   midi.NoteOnEvent(tick=40, channel=2, data=[40, 0]),
   midi.NoteOnEvent(tick=0, channel=2, data=[40, 127]),
   midi.NoteOnEvent(tick=40, channel=2, data=[40, 0]),
   midi.NoteOnEvent(tick=0, channel=2, data=[40, 127]),
   midi.NoteOnEvent(tick=60, channel=2, data=[40, 0]),
   midi.NoteOnEvent(tick=0, channel=2, data=[40, 127]),
   midi.NoteOnEvent(tick=60, channel=2, data=[40, 0]),
   midi.NoteOnEvent(tick=0, channel=2, data=[40, 127]),
   midi.NoteOnEvent(tick=40, channel=2, data=[40, 0]),
   midi.NoteOnEvent(tick=0, channel=2, data=[40, 127]),
   midi.NoteOnEvent(tick=40, channel=2, data=[40, 0]),
   midi.NoteOnEvent(tick=0, channel=2, data=[40, 127]),
   midi.NoteOnEvent(tick=40, channel=2, data=[40, 0]),
   midi.NoteOnEvent(tick=0, channel=2, data=[60, 127]),
   midi.NoteOnEvent(tick=0, channel=2, data=[53, 127]),
   midi.NoteOnEvent(tick=240, channel=2, data=[60, 0]),
   midi.NoteOnEvent(tick=0, channel=2, data=[53, 0]),
   midi.NoteOnEvent(tick=0, channel=2, data=[40, 127]),
   midi.NoteOnEvent(tick=60, channel=2, data=[40, 0]),
   midi.NoteOnEvent(tick=0, channel=2, data=[40, 127]),
   midi.NoteOnEvent(tick=60, channel=2, data=[40, 0]),
   midi.NoteOnEvent(tick=0, channel=2, data=[40, 127]),
   midi.NoteOnEvent(tick=40, channel=2, data=[40, 0]),
   midi.NoteOnEvent(tick=0, channel=2, data=[40, 127]),
   midi.NoteOnEvent(tick=40, channel=2, data=[40, 0]),
   midi.NoteOnEvent(tick=0, channel=2, data=[40, 127]),
   midi.NoteOnEvent(tick=40, channel=2, data=[40, 0]),
   midi.NoteOnEvent(tick=0, channel=2, data=[40, 127]),
   midi.NoteOnEvent(tick=60, channel=2, data=[40, 0]),
   midi.NoteOnEvent(tick=0, channel=2, data=[40, 127]),
   midi.NoteOnEvent(tick=60, channel=2, data=[40, 0]),
   midi.NoteOnEvent(tick=0, channel=2, data=[40, 127]),
   midi.NoteOnEvent(tick=40, channel=2, data=[40, 0]),
   midi.NoteOnEvent(tick=0, channel=2, data=[40, 127]),
   midi.NoteOnEvent(tick=40, channel=2, data=[40, 0]),
   midi.NoteOnEvent(tick=0, channel=2, data=[40, 127]),
   midi.NoteOnEvent(tick=40, channel=2, data=[40, 0]),
   midi.NoteOnEvent(tick=0, channel=2, data=[40, 127]),
   midi.NoteOnEvent(tick=60, channel=2, data=[40, 0]),
   midi.NoteOnEvent(tick=0, channel=2, data=[40, 127]),
   midi.NoteOnEvent(tick=60, channel=2, data=[40, 0]),
   midi.NoteOnEvent(tick=0, channel=2, data=[40, 127]),
   midi.NoteOnEvent(tick=40, channel=2, data=[40, 0]),
   midi.NoteOnEvent(tick=0, channel=2, data=[40, 127]),
   midi.NoteOnEvent(tick=40, channel=2, data=[40, 0]),
   midi.NoteOnEvent(tick=0, channel=2, data=[40, 127]),
   midi.NoteOnEvent(tick=40, channel=2, data=[40, 0]),
   midi.NoteOnEvent(tick=0, channel=2, data=[60, 127]),
   midi.NoteOnEvent(tick=0, channel=2, data=[53, 127]),
   midi.NoteOnEvent(tick=30, channel=2, data=[60, 0]),
   midi.NoteOnEvent(tick=0, channel=2, data=[53, 0]),
   midi.NoteOnEvent(tick=0, channel=2, data=[52, 127]),
   midi.NoteOnEvent(tick=0, channel=2, data=[59, 127]),
   midi.NoteOnEvent(tick=90, channel=2, data=[52, 0]),
   midi.NoteOnEvent(tick=0, channel=2, data=[59, 0]),
   midi.NoteOnEvent(tick=0, channel=2, data=[59, 127]),
   midi.NoteOnEvent(tick=0, channel=2, data=[52, 127]),
   midi.NoteOnEvent(tick=120, channel=2, data=[59, 0]),
   midi.NoteOnEvent(tick=0, channel=2, data=[52, 0]),
   midi.NoteOnEvent(tick=0, channel=2, data=[40, 127]),
   midi.NoteOnEvent(tick=60, channel=2, data=[40, 0]),
   midi.NoteOnEvent(tick=0, channel=2, data=[40, 127]),
   midi.NoteOnEvent(tick=60, channel=2, data=[40, 0]),
   midi.NoteOnEvent(tick=0, channel=2, data=[40, 127]),
   midi.NoteOnEvent(tick=40, channel=2, data=[40, 0]),
   midi.NoteOnEvent(tick=0, channel=2, data=[40, 127]),
   midi.NoteOnEvent(tick=40, channel=2, data=[40, 0]),
   midi.NoteOnEvent(tick=0, channel=2, data=[40, 127]),
   midi.NoteOnEvent(tick=40, channel=2, data=[40, 0]),
   midi.NoteOnEvent(tick=0, channel=2, data=[40, 127]),
   midi.NoteOnEvent(tick=60, channel=2, data=[40, 0]),
   midi.NoteOnEvent(tick=0, channel=2, data=[40, 127]),
   midi.NoteOnEvent(tick=60, channel=2, data=[40, 0]),
   midi.NoteOnEvent(tick=0, channel=2, data=[40, 127]),
   midi.NoteOnEvent(tick=40, channel=2, data=[40, 0]),
   midi.NoteOnEvent(tick=0, channel=2, data=[40, 127]),
   midi.NoteOnEvent(tick=40, channel=2, data=[40, 0]),
   midi.NoteOnEvent(tick=0, channel=2, data=[40, 127]),
   midi.NoteOnEvent(tick=40, channel=2, data=[40, 0]),
   midi.NoteOnEvent(tick=0, channel=2, data=[40, 127]),
   midi.NoteOnEvent(tick=60, channel=2, data=[40, 0]),
   midi.NoteOnEvent(tick=0, channel=2, data=[40, 127]),
   midi.NoteOnEvent(tick=60, channel=2, data=[40, 0]),
   midi.NoteOnEvent(tick=0, channel=2, data=[40, 127]),
   midi.NoteOnEvent(tick=40, channel=2, data=[40, 0]),
   midi.NoteOnEvent(tick=0, channel=2, data=[40, 127]),
   midi.NoteOnEvent(tick=40, channel=2, data=[40, 0]),
   midi.NoteOnEvent(tick=0, channel=2, data=[40, 127]),
   midi.NoteOnEvent(tick=40, channel=2, data=[40, 0]),
   midi.NoteOnEvent(tick=0, channel=2, data=[60, 127]),
   midi.NoteOnEvent(tick=0, channel=2, data=[53, 127]),
   midi.NoteOnEvent(tick=240, channel=2, data=[60, 0]),
   midi.NoteOnEvent(tick=0, channel=2, data=[53, 0]),
   midi.NoteOnEvent(tick=0, channel=2, data=[40, 127]),
   midi.NoteOnEvent(tick=60, channel=2, data=[40, 0]),
   midi.NoteOnEvent(tick=0, channel=2, data=[40, 127]),
   midi.NoteOnEvent(tick=60, channel=2, data=[40, 0]),
   midi.NoteOnEvent(tick=0, channel=2, data=[40, 127]),
   midi.NoteOnEvent(tick=40, channel=2, data=[40, 0]),
   midi.NoteOnEvent(tick=0, channel=2, data=[40, 127]),
   midi.NoteOnEvent(tick=40, channel=2, data=[40, 0]),
   midi.NoteOnEvent(tick=0, channel=2, data=[40, 127]),
   midi.NoteOnEvent(tick=40, channel=2, data=[40, 0]),
   midi.NoteOnEvent(tick=0, channel=2, data=[40, 127]),
   midi.NoteOnEvent(tick=60, channel=2, data=[40, 0]),
   midi.NoteOnEvent(tick=0, channel=2, data=[40, 127]),
   midi.NoteOnEvent(tick=60, channel=2, data=[40, 0]),
   midi.NoteOnEvent(tick=0, channel=2, data=[40, 127]),
   midi.NoteOnEvent(tick=40, channel=2, data=[40, 0]),
   midi.NoteOnEvent(tick=0, channel=2, data=[40, 127]),
   midi.NoteOnEvent(tick=40, channel=2, data=[40, 0]),
   midi.NoteOnEvent(tick=0, channel=2, data=[40, 127]),
   midi.NoteOnEvent(tick=40, channel=2, data=[40, 0]),
   midi.NoteOnEvent(tick=0, channel=2, data=[40, 127]),
   midi.NoteOnEvent(tick=60, channel=2, data=[40, 0]),
   midi.NoteOnEvent(tick=0, channel=2, data=[40, 127]),
   midi.NoteOnEvent(tick=60, channel=2, data=[40, 0]),
   midi.NoteOnEvent(tick=0, channel=2, data=[40, 127]),
   midi.NoteOnEvent(tick=40, channel=2, data=[40, 0]),
   midi.NoteOnEvent(tick=0, channel=2, data=[40, 127]),
   midi.NoteOnEvent(tick=40, channel=2, data=[40, 0]),
   midi.NoteOnEvent(tick=0, channel=2, data=[40, 127]),
   midi.NoteOnEvent(tick=40, channel=2, data=[40, 0]),
   midi.NoteOnEvent(tick=0, channel=2, data=[60, 127]),
   midi.NoteOnEvent(tick=0, channel=2, data=[53, 127]),
   midi.NoteOnEvent(tick=30, channel=2, data=[60, 0]),
   midi.NoteOnEvent(tick=0, channel=2, data=[53, 0]),
   midi.NoteOnEvent(tick=0, channel=2, data=[52, 127]),
   midi.NoteOnEvent(tick=0, channel=2, data=[59, 127]),
   midi.NoteOnEvent(tick=90, channel=2, data=[52, 0]),
   midi.NoteOnEvent(tick=0, channel=2, data=[59, 0]),
   midi.NoteOnEvent(tick=0, channel=2, data=[59, 127]),
   midi.NoteOnEvent(tick=0, channel=2, data=[52, 127]),
   midi.NoteOnEvent(tick=120, channel=2, data=[59, 0]),
   midi.NoteOnEvent(tick=0, channel=2, data=[52, 0]),
   midi.NoteOnEvent(tick=0, channel=2, data=[40, 127]),
   midi.NoteOnEvent(tick=60, channel=2, data=[40, 0]),
   midi.NoteOnEvent(tick=0, channel=2, data=[40, 127]),
   midi.NoteOnEvent(tick=60, channel=2, data=[40, 0]),
   midi.NoteOnEvent(tick=0, channel=2, data=[40, 127]),
   midi.NoteOnEvent(tick=40, channel=2, data=[40, 0]),
   midi.NoteOnEvent(tick=0, channel=2, data=[40, 127]),
   midi.NoteOnEvent(tick=40, channel=2, data=[40, 0]),
   midi.NoteOnEvent(tick=0, channel=2, data=[40, 127]),
   midi.NoteOnEvent(tick=40, channel=2, data=[40, 0]),
   midi.NoteOnEvent(tick=0, channel=2, data=[40, 127]),
   midi.NoteOnEvent(tick=60, channel=2, data=[40, 0]),
   midi.NoteOnEvent(tick=0, channel=2, data=[40, 127]),
   midi.NoteOnEvent(tick=60, channel=2, data=[40, 0]),
   midi.NoteOnEvent(tick=0, channel=2, data=[40, 127]),
   midi.NoteOnEvent(tick=40, channel=2, data=[40, 0]),
   midi.NoteOnEvent(tick=0, channel=2, data=[40, 127]),
   midi.NoteOnEvent(tick=40, channel=2, data=[40, 0]),
   midi.NoteOnEvent(tick=0, channel=2, data=[40, 127]),
   midi.NoteOnEvent(tick=40, channel=2, data=[40, 0]),
   midi.NoteOnEvent(tick=0, channel=2, data=[40, 127]),
   midi.NoteOnEvent(tick=60, channel=2, data=[40, 0]),
   midi.NoteOnEvent(tick=0, channel=2, data=[40, 127]),
   midi.NoteOnEvent(tick=60, channel=2, data=[40, 0]),
   midi.NoteOnEvent(tick=0, channel=2, data=[40, 127]),
   midi.NoteOnEvent(tick=40, channel=2, data=[40, 0]),
   midi.NoteOnEvent(tick=0, channel=2, data=[40, 127]),
   midi.NoteOnEvent(tick=40, channel=2, data=[40, 0]),
   midi.NoteOnEvent(tick=0, channel=2, data=[40, 127]),
   midi.NoteOnEvent(tick=40, channel=2, data=[40, 0]),
   midi.NoteOnEvent(tick=0, channel=2, data=[60, 127]),
   midi.NoteOnEvent(tick=0, channel=2, data=[53, 127]),
   midi.NoteOnEvent(tick=240, channel=2, data=[60, 0]),
   midi.NoteOnEvent(tick=0, channel=2, data=[53, 0]),
   midi.NoteOnEvent(tick=0, channel=2, data=[40, 127]),
   midi.NoteOnEvent(tick=60, channel=2, data=[40, 0]),
   midi.NoteOnEvent(tick=0, channel=2, data=[40, 127]),
   midi.NoteOnEvent(tick=60, channel=2, data=[40, 0]),
   midi.NoteOnEvent(tick=0, channel=2, data=[40, 127]),
   midi.NoteOnEvent(tick=40, channel=2, data=[40, 0]),
   midi.NoteOnEvent(tick=0, channel=2, data=[40, 127]),
   midi.NoteOnEvent(tick=40, channel=2, data=[40, 0]),
   midi.NoteOnEvent(tick=0, channel=2, data=[40, 127]),
   midi.NoteOnEvent(tick=40, channel=2, data=[40, 0]),
   midi.NoteOnEvent(tick=0, channel=2, data=[40, 127]),
   midi.NoteOnEvent(tick=60, channel=2, data=[40, 0]),
   midi.NoteOnEvent(tick=0, channel=2, data=[40, 127]),
   midi.NoteOnEvent(tick=60, channel=2, data=[40, 0]),
   midi.NoteOnEvent(tick=0, channel=2, data=[40, 127]),
   midi.NoteOnEvent(tick=40, channel=2, data=[40, 0]),
   midi.NoteOnEvent(tick=0, channel=2, data=[40, 127]),
   midi.NoteOnEvent(tick=40, channel=2, data=[40, 0]),
   midi.NoteOnEvent(tick=0, channel=2, data=[40, 127]),
   midi.NoteOnEvent(tick=40, channel=2, data=[40, 0]),
   midi.NoteOnEvent(tick=0, channel=2, data=[40, 127]),
   midi.NoteOnEvent(tick=60, channel=2, data=[40, 0]),
   midi.NoteOnEvent(tick=0, channel=2, data=[40, 127]),
   midi.NoteOnEvent(tick=60, channel=2, data=[40, 0]),
   midi.NoteOnEvent(tick=0, channel=2, data=[40, 127]),
   midi.NoteOnEvent(tick=40, channel=2, data=[40, 0]),
   midi.NoteOnEvent(tick=0, channel=2, data=[40, 127]),
   midi.NoteOnEvent(tick=40, channel=2, data=[40, 0]),
   midi.NoteOnEvent(tick=0, channel=2, data=[40, 127]),
   midi.NoteOnEvent(tick=40, channel=2, data=[40, 0]),
   midi.NoteOnEvent(tick=0, channel=2, data=[60, 127]),
   midi.NoteOnEvent(tick=0, channel=2, data=[53, 127]),
   midi.NoteOnEvent(tick=30, channel=2, data=[60, 0]),
   midi.NoteOnEvent(tick=0, channel=2, data=[53, 0]),
   midi.NoteOnEvent(tick=0, channel=2, data=[52, 127]),
   midi.NoteOnEvent(tick=0, channel=2, data=[59, 127]),
   midi.NoteOnEvent(tick=90, channel=2, data=[52, 0]),
   midi.NoteOnEvent(tick=0, channel=2, data=[59, 0]),
   midi.NoteOnEvent(tick=0, channel=2, data=[59, 127]),
   midi.NoteOnEvent(tick=0, channel=2, data=[52, 127]),
   midi.NoteOnEvent(tick=120, channel=2, data=[59, 0]),
   midi.NoteOnEvent(tick=0, channel=2, data=[52, 0]),
   midi.NoteOnEvent(tick=0, channel=2, data=[40, 127]),
   midi.NoteOnEvent(tick=60, channel=2, data=[40, 0]),
   midi.NoteOnEvent(tick=0, channel=2, data=[40, 127]),
   midi.NoteOnEvent(tick=60, channel=2, data=[40, 0]),
   midi.NoteOnEvent(tick=0, channel=2, data=[40, 127]),
   midi.NoteOnEvent(tick=40, channel=2, data=[40, 0]),
   midi.NoteOnEvent(tick=0, channel=2, data=[40, 127]),
   midi.NoteOnEvent(tick=40, channel=2, data=[40, 0]),
   midi.NoteOnEvent(tick=0, channel=2, data=[40, 127]),
   midi.NoteOnEvent(tick=40, channel=2, data=[40, 0]),
   midi.NoteOnEvent(tick=0, channel=2, data=[40, 127]),
   midi.NoteOnEvent(tick=60, channel=2, data=[40, 0]),
   midi.NoteOnEvent(tick=0, channel=2, data=[40, 127]),
   midi.NoteOnEvent(tick=60, channel=2, data=[40, 0]),
   midi.NoteOnEvent(tick=0, channel=2, data=[40, 127]),
   midi.NoteOnEvent(tick=40, channel=2, data=[40, 0]),
   midi.NoteOnEvent(tick=0, channel=2, data=[40, 127]),
   midi.NoteOnEvent(tick=40, channel=2, data=[40, 0]),
   midi.NoteOnEvent(tick=0, channel=2, data=[40, 127]),
   midi.NoteOnEvent(tick=40, channel=2, data=[40, 0]),
   midi.NoteOnEvent(tick=0, channel=2, data=[40, 127]),
   midi.NoteOnEvent(tick=60, channel=2, data=[40, 0]),
   midi.NoteOnEvent(tick=0, channel=2, data=[40, 127]),
   midi.NoteOnEvent(tick=60, channel=2, data=[40, 0]),
   midi.NoteOnEvent(tick=0, channel=2, data=[40, 127]),
   midi.NoteOnEvent(tick=40, channel=2, data=[40, 0]),
   midi.NoteOnEvent(tick=0, channel=2, data=[40, 127]),
   midi.NoteOnEvent(tick=40, channel=2, data=[40, 0]),
   midi.NoteOnEvent(tick=0, channel=2, data=[40, 127]),
   midi.NoteOnEvent(tick=40, channel=2, data=[40, 0]),
   midi.NoteOnEvent(tick=0, channel=2, data=[60, 127]),
   midi.NoteOnEvent(tick=0, channel=2, data=[53, 127]),
   midi.NoteOnEvent(tick=240, channel=2, data=[60, 0]),
   midi.NoteOnEvent(tick=0, channel=2, data=[53, 0]),
   midi.NoteOnEvent(tick=0, channel=2, data=[40, 127]),
   midi.NoteOnEvent(tick=60, channel=2, data=[40, 0]),
   midi.NoteOnEvent(tick=0, channel=2, data=[40, 127]),
   midi.NoteOnEvent(tick=60, channel=2, data=[40, 0]),
   midi.NoteOnEvent(tick=0, channel=2, data=[40, 127]),
   midi.NoteOnEvent(tick=40, channel=2, data=[40, 0]),
   midi.NoteOnEvent(tick=0, channel=2, data=[40, 127]),
   midi.NoteOnEvent(tick=40, channel=2, data=[40, 0]),
   midi.NoteOnEvent(tick=0, channel=2, data=[40, 127]),
   midi.NoteOnEvent(tick=40, channel=2, data=[40, 0]),
   midi.NoteOnEvent(tick=0, channel=2, data=[40, 127]),
   midi.NoteOnEvent(tick=60, channel=2, data=[40, 0]),
   midi.NoteOnEvent(tick=0, channel=2, data=[40, 127]),
   midi.NoteOnEvent(tick=60, channel=2, data=[40, 0]),
   midi.NoteOnEvent(tick=0, channel=2, data=[40, 127]),
   midi.NoteOnEvent(tick=40, channel=2, data=[40, 0]),
   midi.NoteOnEvent(tick=0, channel=2, data=[40, 127]),
   midi.NoteOnEvent(tick=40, channel=2, data=[40, 0]),
   midi.NoteOnEvent(tick=0, channel=2, data=[40, 127]),
   midi.NoteOnEvent(tick=40, channel=2, data=[40, 0]),
   midi.NoteOnEvent(tick=0, channel=2, data=[40, 127]),
   midi.NoteOnEvent(tick=60, channel=2, data=[40, 0]),
   midi.NoteOnEvent(tick=0, channel=2, data=[40, 127]),
   midi.NoteOnEvent(tick=60, channel=2, data=[40, 0]),
   midi.NoteOnEvent(tick=0, channel=2, data=[40, 127]),
   midi.NoteOnEvent(tick=40, channel=2, data=[40, 0]),
   midi.NoteOnEvent(tick=0, channel=2, data=[40, 127]),
   midi.NoteOnEvent(tick=40, channel=2, data=[40, 0]),
   midi.NoteOnEvent(tick=0, channel=2, data=[40, 127]),
   midi.NoteOnEvent(tick=40, channel=2, data=[40, 0]),
   midi.NoteOnEvent(tick=0, channel=2, data=[60, 127]),
   midi.NoteOnEvent(tick=0, channel=2, data=[53, 127]),
   midi.NoteOnEvent(tick=30, channel=2, data=[60, 0]),
   midi.NoteOnEvent(tick=0, channel=2, data=[53, 0]),
   midi.NoteOnEvent(tick=0, channel=2, data=[52, 127]),
   midi.NoteOnEvent(tick=0, channel=2, data=[59, 127]),
   midi.NoteOnEvent(tick=90, channel=2, data=[52, 0]),
   midi.NoteOnEvent(tick=0, channel=2, data=[59, 0]),
   midi.NoteOnEvent(tick=0, channel=2, data=[59, 127]),
   midi.NoteOnEvent(tick=0, channel=2, data=[52, 127]),
   midi.NoteOnEvent(tick=120, channel=2, data=[59, 0]),
   midi.NoteOnEvent(tick=0, channel=2, data=[52, 0]),
   midi.NoteOnEvent(tick=0, channel=2, data=[40, 127]),
   midi.NoteOnEvent(tick=60, channel=2, data=[40, 0]),
   midi.NoteOnEvent(tick=0, channel=2, data=[40, 127]),
   midi.NoteOnEvent(tick=60, channel=2, data=[40, 0]),
   midi.NoteOnEvent(tick=0, channel=2, data=[40, 127]),
   midi.NoteOnEvent(tick=40, channel=2, data=[40, 0]),
   midi.NoteOnEvent(tick=0, channel=2, data=[40, 127]),
   midi.NoteOnEvent(tick=40, channel=2, data=[40, 0]),
   midi.NoteOnEvent(tick=0, channel=2, data=[40, 127]),
   midi.NoteOnEvent(tick=40, channel=2, data=[40, 0]),
   midi.NoteOnEvent(tick=0, channel=2, data=[40, 127]),
   midi.NoteOnEvent(tick=60, channel=2, data=[40, 0]),
   midi.NoteOnEvent(tick=0, channel=2, data=[40, 127]),
   midi.NoteOnEvent(tick=60, channel=2, data=[40, 0]),
   midi.NoteOnEvent(tick=0, channel=2, data=[40, 127]),
   midi.NoteOnEvent(tick=40, channel=2, data=[40, 0]),
   midi.NoteOnEvent(tick=0, channel=2, data=[40, 127]),
   midi.NoteOnEvent(tick=40, channel=2, data=[40, 0]),
   midi.NoteOnEvent(tick=0, channel=2, data=[40, 127]),
   midi.NoteOnEvent(tick=40, channel=2, data=[40, 0]),
   midi.NoteOnEvent(tick=0, channel=2, data=[40, 127]),
   midi.NoteOnEvent(tick=60, channel=2, data=[40, 0]),
   midi.NoteOnEvent(tick=0, channel=2, data=[40, 127]),
   midi.NoteOnEvent(tick=60, channel=2, data=[40, 0]),
   midi.NoteOnEvent(tick=0, channel=2, data=[40, 127]),
   midi.NoteOnEvent(tick=40, channel=2, data=[40, 0]),
   midi.NoteOnEvent(tick=0, channel=2, data=[40, 127]),
   midi.NoteOnEvent(tick=40, channel=2, data=[40, 0]),
   midi.NoteOnEvent(tick=0, channel=2, data=[40, 127]),
   midi.NoteOnEvent(tick=40, channel=2, data=[40, 0]),
   midi.NoteOnEvent(tick=0, channel=2, data=[60, 127]),
   midi.NoteOnEvent(tick=0, channel=2, data=[53, 127]),
   midi.NoteOnEvent(tick=240, channel=2, data=[60, 0]),
   midi.NoteOnEvent(tick=0, channel=2, data=[53, 0]),
   midi.NoteOnEvent(tick=0, channel=2, data=[40, 127]),
   midi.NoteOnEvent(tick=60, channel=2, data=[40, 0]),
   midi.NoteOnEvent(tick=0, channel=2, data=[40, 127]),
   midi.NoteOnEvent(tick=60, channel=2, data=[40, 0]),
   midi.NoteOnEvent(tick=0, channel=2, data=[40, 127]),
   midi.NoteOnEvent(tick=40, channel=2, data=[40, 0]),
   midi.NoteOnEvent(tick=0, channel=2, data=[40, 127]),
   midi.NoteOnEvent(tick=40, channel=2, data=[40, 0]),
   midi.NoteOnEvent(tick=0, channel=2, data=[40, 127]),
   midi.NoteOnEvent(tick=40, channel=2, data=[40, 0]),
   midi.NoteOnEvent(tick=0, channel=2, data=[40, 127]),
   midi.NoteOnEvent(tick=60, channel=2, data=[40, 0]),
   midi.NoteOnEvent(tick=0, channel=2, data=[40, 127]),
   midi.NoteOnEvent(tick=60, channel=2, data=[40, 0]),
   midi.NoteOnEvent(tick=0, channel=2, data=[40, 127]),
   midi.NoteOnEvent(tick=40, channel=2, data=[40, 0]),
   midi.NoteOnEvent(tick=0, channel=2, data=[40, 127]),
   midi.NoteOnEvent(tick=40, channel=2, data=[40, 0]),
   midi.NoteOnEvent(tick=0, channel=2, data=[40, 127]),
   midi.NoteOnEvent(tick=40, channel=2, data=[40, 0]),
   midi.NoteOnEvent(tick=0, channel=2, data=[40, 127]),
   midi.NoteOnEvent(tick=60, channel=2, data=[40, 0]),
   midi.NoteOnEvent(tick=0, channel=2, data=[40, 127]),
   midi.NoteOnEvent(tick=60, channel=2, data=[40, 0]),
   midi.NoteOnEvent(tick=0, channel=2, data=[40, 127]),
   midi.NoteOnEvent(tick=40, channel=2, data=[40, 0]),
   midi.NoteOnEvent(tick=0, channel=2, data=[40, 127]),
   midi.NoteOnEvent(tick=40, channel=2, data=[40, 0]),
   midi.NoteOnEvent(tick=0, channel=2, data=[40, 127]),
   midi.NoteOnEvent(tick=40, channel=2, data=[40, 0]),
   midi.NoteOnEvent(tick=0, channel=2, data=[60, 127]),
   midi.NoteOnEvent(tick=0, channel=2, data=[53, 127]),
   midi.NoteOnEvent(tick=30, channel=2, data=[60, 0]),
   midi.NoteOnEvent(tick=0, channel=2, data=[53, 0]),
   midi.NoteOnEvent(tick=0, channel=2, data=[52, 127]),
   midi.NoteOnEvent(tick=0, channel=2, data=[59, 127]),
   midi.NoteOnEvent(tick=90, channel=2, data=[52, 0]),
   midi.NoteOnEvent(tick=0, channel=2, data=[59, 0]),
   midi.NoteOnEvent(tick=0, channel=2, data=[59, 127]),
   midi.NoteOnEvent(tick=0, channel=2, data=[52, 127]),
   midi.NoteOnEvent(tick=120, channel=2, data=[59, 0]),
   midi.NoteOnEvent(tick=0, channel=2, data=[52, 0]),
   midi.NoteOnEvent(tick=0, channel=2, data=[40, 127]),
   midi.NoteOnEvent(tick=60, channel=2, data=[40, 0]),
   midi.NoteOnEvent(tick=0, channel=2, data=[40, 127]),
   midi.NoteOnEvent(tick=60, channel=2, data=[40, 0]),
   midi.NoteOnEvent(tick=0, channel=2, data=[40, 127]),
   midi.NoteOnEvent(tick=40, channel=2, data=[40, 0]),
   midi.NoteOnEvent(tick=0, channel=2, data=[40, 127]),
   midi.NoteOnEvent(tick=40, channel=2, data=[40, 0]),
   midi.NoteOnEvent(tick=0, channel=2, data=[40, 127]),
   midi.NoteOnEvent(tick=40, channel=2, data=[40, 0]),
   midi.NoteOnEvent(tick=0, channel=2, data=[40, 127]),
   midi.NoteOnEvent(tick=60, channel=2, data=[40, 0]),
   midi.NoteOnEvent(tick=0, channel=2, data=[40, 127]),
   midi.NoteOnEvent(tick=60, channel=2, data=[40, 0]),
   midi.NoteOnEvent(tick=0, channel=2, data=[40, 127]),
   midi.NoteOnEvent(tick=40, channel=2, data=[40, 0]),
   midi.NoteOnEvent(tick=0, channel=2, data=[40, 127]),
   midi.NoteOnEvent(tick=40, channel=2, data=[40, 0]),
   midi.NoteOnEvent(tick=0, channel=2, data=[40, 127]),
   midi.NoteOnEvent(tick=40, channel=2, data=[40, 0]),
   midi.NoteOnEvent(tick=0, channel=2, data=[40, 127]),
   midi.NoteOnEvent(tick=60, channel=2, data=[40, 0]),
   midi.NoteOnEvent(tick=0, channel=2, data=[40, 127]),
   midi.NoteOnEvent(tick=60, channel=2, data=[40, 0]),
   midi.NoteOnEvent(tick=0, channel=2, data=[40, 127]),
   midi.NoteOnEvent(tick=40, channel=2, data=[40, 0]),
   midi.NoteOnEvent(tick=0, channel=2, data=[40, 127]),
   midi.NoteOnEvent(tick=40, channel=2, data=[40, 0]),
   midi.NoteOnEvent(tick=0, channel=2, data=[40, 127]),
   midi.NoteOnEvent(tick=40, channel=2, data=[40, 0]),
   midi.NoteOnEvent(tick=0, channel=2, data=[60, 127]),
   midi.NoteOnEvent(tick=0, channel=2, data=[53, 127]),
   midi.NoteOnEvent(tick=240, channel=2, data=[60, 0]),
   midi.NoteOnEvent(tick=0, channel=2, data=[53, 0]),
   midi.NoteOnEvent(tick=0, channel=2, data=[40, 127]),
   midi.NoteOnEvent(tick=60, channel=2, data=[40, 0]),
   midi.NoteOnEvent(tick=0, channel=2, data=[40, 127]),
   midi.NoteOnEvent(tick=60, channel=2, data=[40, 0]),
   midi.NoteOnEvent(tick=0, channel=2, data=[40, 127]),
   midi.NoteOnEvent(tick=40, channel=2, data=[40, 0]),
   midi.NoteOnEvent(tick=0, channel=2, data=[40, 127]),
   midi.NoteOnEvent(tick=40, channel=2, data=[40, 0]),
   midi.NoteOnEvent(tick=0, channel=2, data=[40, 127]),
   midi.NoteOnEvent(tick=40, channel=2, data=[40, 0]),
   midi.NoteOnEvent(tick=0, channel=2, data=[40, 127]),
   midi.NoteOnEvent(tick=60, channel=2, data=[40, 0]),
   midi.NoteOnEvent(tick=0, channel=2, data=[40, 127]),
   midi.NoteOnEvent(tick=60, channel=2, data=[40, 0]),
   midi.NoteOnEvent(tick=0, channel=2, data=[40, 127]),
   midi.NoteOnEvent(tick=40, channel=2, data=[40, 0]),
   midi.NoteOnEvent(tick=0, channel=2, data=[40, 127]),
   midi.NoteOnEvent(tick=40, channel=2, data=[40, 0]),
   midi.NoteOnEvent(tick=0, channel=2, data=[40, 127]),
   midi.NoteOnEvent(tick=40, channel=2, data=[40, 0]),
   midi.NoteOnEvent(tick=0, channel=2, data=[40, 127]),
   midi.NoteOnEvent(tick=60, channel=2, data=[40, 0]),
   midi.NoteOnEvent(tick=0, channel=2, data=[40, 127]),
   midi.NoteOnEvent(tick=60, channel=2, data=[40, 0]),
   midi.NoteOnEvent(tick=0, channel=2, data=[40, 127]),
   midi.NoteOnEvent(tick=40, channel=2, data=[40, 0]),
   midi.NoteOnEvent(tick=0, channel=2, data=[40, 127]),
   midi.NoteOnEvent(tick=40, channel=2, data=[40, 0]),
   midi.NoteOnEvent(tick=0, channel=2, data=[40, 127]),
   midi.NoteOnEvent(tick=40, channel=2, data=[40, 0]),
   midi.NoteOnEvent(tick=0, channel=2, data=[60, 127]),
   midi.NoteOnEvent(tick=0, channel=2, data=[53, 127]),
   midi.NoteOnEvent(tick=30, channel=2, data=[60, 0]),
   midi.NoteOnEvent(tick=0, channel=2, data=[53, 0]),
   midi.NoteOnEvent(tick=0, channel=2, data=[52, 127]),
   midi.NoteOnEvent(tick=0, channel=2, data=[59, 127]),
   midi.NoteOnEvent(tick=90, channel=2, data=[52, 0]),
   midi.NoteOnEvent(tick=0, channel=2, data=[59, 0]),
   midi.NoteOnEvent(tick=0, channel=2, data=[59, 127]),
   midi.NoteOnEvent(tick=0, channel=2, data=[52, 127]),
   midi.NoteOnEvent(tick=120, channel=2, data=[59, 0]),
   midi.NoteOnEvent(tick=0, channel=2, data=[52, 0]),
   midi.NoteOnEvent(tick=0, channel=2, data=[40, 127]),
   midi.NoteOnEvent(tick=60, channel=2, data=[40, 0]),
   midi.NoteOnEvent(tick=0, channel=2, data=[40, 127]),
   midi.NoteOnEvent(tick=60, channel=2, data=[40, 0]),
   midi.NoteOnEvent(tick=0, channel=2, data=[40, 127]),
   midi.NoteOnEvent(tick=40, channel=2, data=[40, 0]),
   midi.NoteOnEvent(tick=0, channel=2, data=[40, 127]),
   midi.NoteOnEvent(tick=40, channel=2, data=[40, 0]),
   midi.NoteOnEvent(tick=0, channel=2, data=[40, 127]),
   midi.NoteOnEvent(tick=40, channel=2, data=[40, 0]),
   midi.NoteOnEvent(tick=0, channel=2, data=[40, 127]),
   midi.NoteOnEvent(tick=60, channel=2, data=[40, 0]),
   midi.NoteOnEvent(tick=0, channel=2, data=[40, 127]),
   midi.NoteOnEvent(tick=60, channel=2, data=[40, 0]),
   midi.NoteOnEvent(tick=0, channel=2, data=[40, 127]),
   midi.NoteOnEvent(tick=40, channel=2, data=[40, 0]),
   midi.NoteOnEvent(tick=0, channel=2, data=[40, 127]),
   midi.NoteOnEvent(tick=40, channel=2, data=[40, 0]),
   midi.NoteOnEvent(tick=0, channel=2, data=[40, 127]),
   midi.NoteOnEvent(tick=40, channel=2, data=[40, 0]),
   midi.NoteOnEvent(tick=0, channel=2, data=[40, 127]),
   midi.NoteOnEvent(tick=60, channel=2, data=[40, 0]),
   midi.NoteOnEvent(tick=0, channel=2, data=[40, 127]),
   midi.NoteOnEvent(tick=60, channel=2, data=[40, 0]),
   midi.NoteOnEvent(tick=0, channel=2, data=[40, 127]),
   midi.NoteOnEvent(tick=40, channel=2, data=[40, 0]),
   midi.NoteOnEvent(tick=0, channel=2, data=[40, 127]),
   midi.NoteOnEvent(tick=40, channel=2, data=[40, 0]),
   midi.NoteOnEvent(tick=0, channel=2, data=[40, 127]),
   midi.NoteOnEvent(tick=40, channel=2, data=[40, 0]),
   midi.NoteOnEvent(tick=0, channel=2, data=[60, 127]),
   midi.NoteOnEvent(tick=0, channel=2, data=[53, 127]),
   midi.NoteOnEvent(tick=240, channel=2, data=[60, 0]),
   midi.NoteOnEvent(tick=0, channel=2, data=[53, 0]),
   midi.NoteOnEvent(tick=0, channel=2, data=[40, 127]),
   midi.NoteOnEvent(tick=60, channel=2, data=[40, 0]),
   midi.NoteOnEvent(tick=0, channel=2, data=[40, 127]),
   midi.NoteOnEvent(tick=60, channel=2, data=[40, 0]),
   midi.NoteOnEvent(tick=0, channel=2, data=[40, 127]),
   midi.NoteOnEvent(tick=40, channel=2, data=[40, 0]),
   midi.NoteOnEvent(tick=0, channel=2, data=[40, 127]),
   midi.NoteOnEvent(tick=40, channel=2, data=[40, 0]),
   midi.NoteOnEvent(tick=0, channel=2, data=[40, 127]),
   midi.NoteOnEvent(tick=40, channel=2, data=[40, 0]),
   midi.NoteOnEvent(tick=0, channel=2, data=[40, 127]),
   midi.NoteOnEvent(tick=60, channel=2, data=[40, 0]),
   midi.NoteOnEvent(tick=0, channel=2, data=[40, 127]),
   midi.NoteOnEvent(tick=60, channel=2, data=[40, 0]),
   midi.NoteOnEvent(tick=0, channel=2, data=[40, 127]),
   midi.NoteOnEvent(tick=40, channel=2, data=[40, 0]),
   midi.NoteOnEvent(tick=0, channel=2, data=[40, 127]),
   midi.NoteOnEvent(tick=40, channel=2, data=[40, 0]),
   midi.NoteOnEvent(tick=0, channel=2, data=[40, 127]),
   midi.NoteOnEvent(tick=40, channel=2, data=[40, 0]),
   midi.NoteOnEvent(tick=0, channel=2, data=[40, 127]),
   midi.NoteOnEvent(tick=60, channel=2, data=[40, 0]),
   midi.NoteOnEvent(tick=0, channel=2, data=[40, 127]),
   midi.NoteOnEvent(tick=60, channel=2, data=[40, 0]),
   midi.NoteOnEvent(tick=0, channel=2, data=[40, 127]),
   midi.NoteOnEvent(tick=40, channel=2, data=[40, 0]),
   midi.NoteOnEvent(tick=0, channel=2, data=[40, 127]),
   midi.NoteOnEvent(tick=40, channel=2, data=[40, 0]),
   midi.NoteOnEvent(tick=0, channel=2, data=[40, 127]),
   midi.NoteOnEvent(tick=40, channel=2, data=[40, 0]),
   midi.NoteOnEvent(tick=0, channel=2, data=[60, 127]),
   midi.NoteOnEvent(tick=0, channel=2, data=[53, 127]),
   midi.NoteOnEvent(tick=30, channel=2, data=[60, 0]),
   midi.NoteOnEvent(tick=0, channel=2, data=[53, 0]),
   midi.NoteOnEvent(tick=0, channel=2, data=[52, 127]),
   midi.NoteOnEvent(tick=0, channel=2, data=[59, 127]),
   midi.NoteOnEvent(tick=90, channel=2, data=[52, 0]),
   midi.NoteOnEvent(tick=0, channel=2, data=[59, 0]),
   midi.NoteOnEvent(tick=0, channel=2, data=[59, 127]),
   midi.NoteOnEvent(tick=0, channel=2, data=[52, 127]),
   midi.NoteOnEvent(tick=120, channel=2, data=[59, 0]),
   midi.NoteOnEvent(tick=0, channel=2, data=[52, 0]),
   midi.NoteOnEvent(tick=0, channel=2, data=[40, 127]),
   midi.NoteOnEvent(tick=60, channel=2, data=[40, 0]),
   midi.NoteOnEvent(tick=0, channel=2, data=[40, 127]),
   midi.NoteOnEvent(tick=60, channel=2, data=[40, 0]),
   midi.NoteOnEvent(tick=0, channel=2, data=[40, 127]),
   midi.NoteOnEvent(tick=40, channel=2, data=[40, 0]),
   midi.NoteOnEvent(tick=0, channel=2, data=[40, 127]),
   midi.NoteOnEvent(tick=40, channel=2, data=[40, 0]),
   midi.NoteOnEvent(tick=0, channel=2, data=[40, 127]),
   midi.NoteOnEvent(tick=40, channel=2, data=[40, 0]),
   midi.NoteOnEvent(tick=0, channel=2, data=[40, 127]),
   midi.NoteOnEvent(tick=60, channel=2, data=[40, 0]),
   midi.NoteOnEvent(tick=0, channel=2, data=[40, 127]),
   midi.NoteOnEvent(tick=60, channel=2, data=[40, 0]),
   midi.NoteOnEvent(tick=0, channel=2, data=[40, 127]),
   midi.NoteOnEvent(tick=40, channel=2, data=[40, 0]),
   midi.NoteOnEvent(tick=0, channel=2, data=[40, 127]),
   midi.NoteOnEvent(tick=40, channel=2, data=[40, 0]),
   midi.NoteOnEvent(tick=0, channel=2, data=[40, 127]),
   midi.NoteOnEvent(tick=40, channel=2, data=[40, 0]),
   midi.NoteOnEvent(tick=0, channel=2, data=[40, 127]),
   midi.NoteOnEvent(tick=60, channel=2, data=[40, 0]),
   midi.NoteOnEvent(tick=0, channel=2, data=[40, 127]),
   midi.NoteOnEvent(tick=60, channel=2, data=[40, 0]),
   midi.NoteOnEvent(tick=0, channel=2, data=[40, 127]),
   midi.NoteOnEvent(tick=40, channel=2, data=[40, 0]),
   midi.NoteOnEvent(tick=0, channel=2, data=[40, 127]),
   midi.NoteOnEvent(tick=40, channel=2, data=[40, 0]),
   midi.NoteOnEvent(tick=0, channel=2, data=[40, 127]),
   midi.NoteOnEvent(tick=40, channel=2, data=[40, 0]),
   midi.NoteOnEvent(tick=0, channel=2, data=[60, 127]),
   midi.NoteOnEvent(tick=0, channel=2, data=[53, 127]),
   midi.NoteOnEvent(tick=240, channel=2, data=[60, 0]),
   midi.NoteOnEvent(tick=0, channel=2, data=[53, 0]),
   midi.NoteOnEvent(tick=0, channel=2, data=[40, 127]),
   midi.NoteOnEvent(tick=60, channel=2, data=[40, 0]),
   midi.NoteOnEvent(tick=0, channel=2, data=[40, 127]),
   midi.NoteOnEvent(tick=60, channel=2, data=[40, 0]),
   midi.NoteOnEvent(tick=0, channel=2, data=[40, 127]),
   midi.NoteOnEvent(tick=40, channel=2, data=[40, 0]),
   midi.NoteOnEvent(tick=0, channel=2, data=[40, 127]),
   midi.NoteOnEvent(tick=40, channel=2, data=[40, 0]),
   midi.NoteOnEvent(tick=0, channel=2, data=[40, 127]),
   midi.NoteOnEvent(tick=40, channel=2, data=[40, 0]),
   midi.NoteOnEvent(tick=0, channel=2, data=[40, 127]),
   midi.NoteOnEvent(tick=60, channel=2, data=[40, 0]),
   midi.NoteOnEvent(tick=0, channel=2, data=[40, 127]),
   midi.NoteOnEvent(tick=60, channel=2, data=[40, 0]),
   midi.NoteOnEvent(tick=0, channel=2, data=[40, 127]),
   midi.NoteOnEvent(tick=40, channel=2, data=[40, 0]),
   midi.NoteOnEvent(tick=0, channel=2, data=[40, 127]),
   midi.NoteOnEvent(tick=40, channel=2, data=[40, 0]),
   midi.NoteOnEvent(tick=0, channel=2, data=[40, 127]),
   midi.NoteOnEvent(tick=40, channel=2, data=[40, 0]),
   midi.NoteOnEvent(tick=0, channel=2, data=[40, 127]),
   midi.NoteOnEvent(tick=60, channel=2, data=[40, 0]),
   midi.NoteOnEvent(tick=0, channel=2, data=[40, 127]),
   midi.NoteOnEvent(tick=60, channel=2, data=[40, 0]),
   midi.NoteOnEvent(tick=0, channel=2, data=[40, 127]),
   midi.NoteOnEvent(tick=40, channel=2, data=[40, 0]),
   midi.NoteOnEvent(tick=0, channel=2, data=[40, 127]),
   midi.NoteOnEvent(tick=40, channel=2, data=[40, 0]),
   midi.NoteOnEvent(tick=0, channel=2, data=[40, 127]),
   midi.NoteOnEvent(tick=40, channel=2, data=[40, 0]),
   midi.NoteOnEvent(tick=0, channel=2, data=[60, 127]),
   midi.NoteOnEvent(tick=0, channel=2, data=[53, 127]),
   midi.NoteOnEvent(tick=30, channel=2, data=[60, 0]),
   midi.NoteOnEvent(tick=0, channel=2, data=[53, 0]),
   midi.NoteOnEvent(tick=0, channel=2, data=[52, 127]),
   midi.NoteOnEvent(tick=0, channel=2, data=[59, 127]),
   midi.NoteOnEvent(tick=90, channel=2, data=[52, 0]),
   midi.NoteOnEvent(tick=0, channel=2, data=[59, 0]),
   midi.NoteOnEvent(tick=0, channel=2, data=[59, 127]),
   midi.NoteOnEvent(tick=0, channel=2, data=[52, 127]),
   midi.NoteOnEvent(tick=120, channel=2, data=[59, 0]),
   midi.NoteOnEvent(tick=0, channel=2, data=[52, 0]),
   midi.NoteOnEvent(tick=0, channel=2, data=[40, 127]),
   midi.NoteOnEvent(tick=60, channel=2, data=[40, 0]),
   midi.NoteOnEvent(tick=0, channel=2, data=[40, 127]),
   midi.NoteOnEvent(tick=60, channel=2, data=[40, 0]),
   midi.NoteOnEvent(tick=0, channel=2, data=[40, 127]),
   midi.NoteOnEvent(tick=40, channel=2, data=[40, 0]),
   midi.NoteOnEvent(tick=0, channel=2, data=[40, 127]),
   midi.NoteOnEvent(tick=40, channel=2, data=[40, 0]),
   midi.NoteOnEvent(tick=0, channel=2, data=[40, 127]),
   midi.NoteOnEvent(tick=40, channel=2, data=[40, 0]),
   midi.NoteOnEvent(tick=0, channel=2, data=[40, 127]),
   midi.NoteOnEvent(tick=60, channel=2, data=[40, 0]),
   midi.NoteOnEvent(tick=0, channel=2, data=[40, 127]),
   midi.NoteOnEvent(tick=60, channel=2, data=[40, 0]),
   midi.NoteOnEvent(tick=0, channel=2, data=[40, 127]),
   midi.NoteOnEvent(tick=40, channel=2, data=[40, 0]),
   midi.NoteOnEvent(tick=0, channel=2, data=[40, 127]),
   midi.NoteOnEvent(tick=40, channel=2, data=[40, 0]),
   midi.NoteOnEvent(tick=0, channel=2, data=[40, 127]),
   midi.NoteOnEvent(tick=40, channel=2, data=[40, 0]),
   midi.NoteOnEvent(tick=0, channel=2, data=[40, 127]),
   midi.NoteOnEvent(tick=60, channel=2, data=[40, 0]),
   midi.NoteOnEvent(tick=0, channel=2, data=[40, 127]),
   midi.NoteOnEvent(tick=60, channel=2, data=[40, 0]),
   midi.NoteOnEvent(tick=0, channel=2, data=[40, 127]),
   midi.NoteOnEvent(tick=40, channel=2, data=[40, 0]),
   midi.NoteOnEvent(tick=0, channel=2, data=[40, 127]),
   midi.NoteOnEvent(tick=40, channel=2, data=[40, 0]),
   midi.NoteOnEvent(tick=0, channel=2, data=[40, 127]),
   midi.NoteOnEvent(tick=40, channel=2, data=[40, 0]),
   midi.NoteOnEvent(tick=0, channel=2, data=[60, 127]),
   midi.NoteOnEvent(tick=0, channel=2, data=[53, 127]),
   midi.NoteOnEvent(tick=240, channel=2, data=[60, 0]),
   midi.NoteOnEvent(tick=0, channel=2, data=[53, 0]),
   midi.NoteOnEvent(tick=0, channel=2, data=[40, 127]),
   midi.NoteOnEvent(tick=60, channel=2, data=[40, 0]),
   midi.NoteOnEvent(tick=0, channel=2, data=[40, 127]),
   midi.NoteOnEvent(tick=60, channel=2, data=[40, 0]),
   midi.NoteOnEvent(tick=0, channel=2, data=[40, 127]),
   midi.NoteOnEvent(tick=40, channel=2, data=[40, 0]),
   midi.NoteOnEvent(tick=0, channel=2, data=[40, 127]),
   midi.NoteOnEvent(tick=40, channel=2, data=[40, 0]),
   midi.NoteOnEvent(tick=0, channel=2, data=[40, 127]),
   midi.NoteOnEvent(tick=40, channel=2, data=[40, 0]),
   midi.NoteOnEvent(tick=0, channel=2, data=[40, 127]),
   midi.NoteOnEvent(tick=60, channel=2, data=[40, 0]),
   midi.NoteOnEvent(tick=0, channel=2, data=[40, 127]),
   midi.NoteOnEvent(tick=60, channel=2, data=[40, 0]),
   midi.NoteOnEvent(tick=0, channel=2, data=[40, 127]),
   midi.NoteOnEvent(tick=40, channel=2, data=[40, 0]),
   midi.NoteOnEvent(tick=0, channel=2, data=[40, 127]),
   midi.NoteOnEvent(tick=40, channel=2, data=[40, 0]),
   midi.NoteOnEvent(tick=0, channel=2, data=[40, 127]),
   midi.NoteOnEvent(tick=40, channel=2, data=[40, 0]),
   midi.NoteOnEvent(tick=0, channel=2, data=[40, 127]),
   midi.NoteOnEvent(tick=60, channel=2, data=[40, 0]),
   midi.NoteOnEvent(tick=0, channel=2, data=[40, 127]),
   midi.NoteOnEvent(tick=60, channel=2, data=[40, 0]),
   midi.NoteOnEvent(tick=0, channel=2, data=[40, 127]),
   midi.NoteOnEvent(tick=40, channel=2, data=[40, 0]),
   midi.NoteOnEvent(tick=0, channel=2, data=[40, 127]),
   midi.NoteOnEvent(tick=40, channel=2, data=[40, 0]),
   midi.NoteOnEvent(tick=0, channel=2, data=[40, 127]),
   midi.NoteOnEvent(tick=40, channel=2, data=[40, 0]),
   midi.NoteOnEvent(tick=0, channel=2, data=[60, 127]),
   midi.NoteOnEvent(tick=0, channel=2, data=[53, 127]),
   midi.NoteOnEvent(tick=30, channel=2, data=[60, 0]),
   midi.NoteOnEvent(tick=0, channel=2, data=[53, 0]),
   midi.NoteOnEvent(tick=0, channel=2, data=[52, 127]),
   midi.NoteOnEvent(tick=0, channel=2, data=[59, 127]),
   midi.NoteOnEvent(tick=90, channel=2, data=[52, 0]),
   midi.NoteOnEvent(tick=0, channel=2, data=[59, 0]),
   midi.NoteOnEvent(tick=0, channel=2, data=[59, 127]),
   midi.NoteOnEvent(tick=0, channel=2, data=[52, 127]),
   midi.NoteOnEvent(tick=120, channel=2, data=[59, 0]),
   midi.NoteOnEvent(tick=0, channel=2, data=[52, 0]),
   midi.NoteOnEvent(tick=0, channel=2, data=[40, 127]),
   midi.NoteOnEvent(tick=60, channel=2, data=[40, 0]),
   midi.NoteOnEvent(tick=0, channel=2, data=[40, 127]),
   midi.NoteOnEvent(tick=60, channel=2, data=[40, 0]),
   midi.NoteOnEvent(tick=0, channel=2, data=[40, 127]),
   midi.NoteOnEvent(tick=40, channel=2, data=[40, 0]),
   midi.NoteOnEvent(tick=0, channel=2, data=[40, 127]),
   midi.NoteOnEvent(tick=40, channel=2, data=[40, 0]),
   midi.NoteOnEvent(tick=0, channel=2, data=[40, 127]),
   midi.NoteOnEvent(tick=40, channel=2, data=[40, 0]),
   midi.NoteOnEvent(tick=0, channel=2, data=[40, 127]),
   midi.NoteOnEvent(tick=60, channel=2, data=[40, 0]),
   midi.NoteOnEvent(tick=0, channel=2, data=[40, 127]),
   midi.NoteOnEvent(tick=60, channel=2, data=[40, 0]),
   midi.NoteOnEvent(tick=0, channel=2, data=[40, 127]),
   midi.NoteOnEvent(tick=40, channel=2, data=[40, 0]),
   midi.NoteOnEvent(tick=0, channel=2, data=[40, 127]),
   midi.NoteOnEvent(tick=40, channel=2, data=[40, 0]),
   midi.NoteOnEvent(tick=0, channel=2, data=[40, 127]),
   midi.NoteOnEvent(tick=40, channel=2, data=[40, 0]),
   midi.NoteOnEvent(tick=0, channel=2, data=[40, 127]),
   midi.NoteOnEvent(tick=60, channel=2, data=[40, 0]),
   midi.NoteOnEvent(tick=0, channel=2, data=[40, 127]),
   midi.NoteOnEvent(tick=60, channel=2, data=[40, 0]),
   midi.NoteOnEvent(tick=0, channel=2, data=[40, 127]),
   midi.NoteOnEvent(tick=40, channel=2, data=[40, 0]),
   midi.NoteOnEvent(tick=0, channel=2, data=[40, 127]),
   midi.NoteOnEvent(tick=40, channel=2, data=[40, 0]),
   midi.NoteOnEvent(tick=0, channel=2, data=[40, 127]),
   midi.NoteOnEvent(tick=40, channel=2, data=[40, 0]),
   midi.NoteOnEvent(tick=0, channel=2, data=[60, 127]),
   midi.NoteOnEvent(tick=0, channel=2, data=[53, 127]),
   midi.NoteOnEvent(tick=240, channel=2, data=[60, 0]),
   midi.NoteOnEvent(tick=0, channel=2, data=[53, 0]),
   midi.NoteOnEvent(tick=0, channel=2, data=[40, 127]),
   midi.NoteOnEvent(tick=60, channel=2, data=[40, 0]),
   midi.NoteOnEvent(tick=0, channel=2, data=[40, 127]),
   midi.NoteOnEvent(tick=60, channel=2, data=[40, 0]),
   midi.NoteOnEvent(tick=0, channel=2, data=[40, 127]),
   midi.NoteOnEvent(tick=40, channel=2, data=[40, 0]),
   midi.NoteOnEvent(tick=0, channel=2, data=[40, 127]),
   midi.NoteOnEvent(tick=40, channel=2, data=[40, 0]),
   midi.NoteOnEvent(tick=0, channel=2, data=[40, 127]),
   midi.NoteOnEvent(tick=40, channel=2, data=[40, 0]),
   midi.NoteOnEvent(tick=0, channel=2, data=[40, 127]),
   midi.NoteOnEvent(tick=60, channel=2, data=[40, 0]),
   midi.NoteOnEvent(tick=0, channel=2, data=[40, 127]),
   midi.NoteOnEvent(tick=60, channel=2, data=[40, 0]),
   midi.NoteOnEvent(tick=0, channel=2, data=[40, 127]),
   midi.NoteOnEvent(tick=40, channel=2, data=[40, 0]),
   midi.NoteOnEvent(tick=0, channel=2, data=[40, 127]),
   midi.NoteOnEvent(tick=40, channel=2, data=[40, 0]),
   midi.NoteOnEvent(tick=0, channel=2, data=[40, 127]),
   midi.NoteOnEvent(tick=40, channel=2, data=[40, 0]),
   midi.NoteOnEvent(tick=0, channel=2, data=[40, 127]),
   midi.NoteOnEvent(tick=60, channel=2, data=[40, 0]),
   midi.NoteOnEvent(tick=0, channel=2, data=[40, 127]),
   midi.NoteOnEvent(tick=60, channel=2, data=[40, 0]),
   midi.NoteOnEvent(tick=0, channel=2, data=[40, 127]),
   midi.NoteOnEvent(tick=40, channel=2, data=[40, 0]),
   midi.NoteOnEvent(tick=0, channel=2, data=[40, 127]),
   midi.NoteOnEvent(tick=40, channel=2, data=[40, 0]),
   midi.NoteOnEvent(tick=0, channel=2, data=[40, 127]),
   midi.NoteOnEvent(tick=40, channel=2, data=[40, 0]),
   midi.NoteOnEvent(tick=0, channel=2, data=[60, 127]),
   midi.NoteOnEvent(tick=0, channel=2, data=[53, 127]),
   midi.NoteOnEvent(tick=30, channel=2, data=[60, 0]),
   midi.NoteOnEvent(tick=0, channel=2, data=[53, 0]),
   midi.NoteOnEvent(tick=0, channel=2, data=[52, 127]),
   midi.NoteOnEvent(tick=0, channel=2, data=[59, 127]),
   midi.NoteOnEvent(tick=90, channel=2, data=[52, 0]),
   midi.NoteOnEvent(tick=0, channel=2, data=[59, 0]),
   midi.NoteOnEvent(tick=0, channel=2, data=[59, 127]),
   midi.NoteOnEvent(tick=0, channel=2, data=[52, 127]),
   midi.NoteOnEvent(tick=120, channel=2, data=[59, 0]),
   midi.NoteOnEvent(tick=0, channel=2, data=[52, 0]),
   midi.NoteOnEvent(tick=0, channel=2, data=[40, 127]),
   midi.NoteOnEvent(tick=60, channel=2, data=[40, 0]),
   midi.NoteOnEvent(tick=0, channel=2, data=[40, 127]),
   midi.NoteOnEvent(tick=60, channel=2, data=[40, 0]),
   midi.NoteOnEvent(tick=0, channel=2, data=[40, 127]),
   midi.NoteOnEvent(tick=40, channel=2, data=[40, 0]),
   midi.NoteOnEvent(tick=0, channel=2, data=[40, 127]),
   midi.NoteOnEvent(tick=40, channel=2, data=[40, 0]),
   midi.NoteOnEvent(tick=0, channel=2, data=[40, 127]),
   midi.NoteOnEvent(tick=40, channel=2, data=[40, 0]),
   midi.NoteOnEvent(tick=0, channel=2, data=[40, 127]),
   midi.NoteOnEvent(tick=60, channel=2, data=[40, 0]),
   midi.NoteOnEvent(tick=0, channel=2, data=[40, 127]),
   midi.NoteOnEvent(tick=60, channel=2, data=[40, 0]),
   midi.NoteOnEvent(tick=0, channel=2, data=[40, 127]),
   midi.NoteOnEvent(tick=40, channel=2, data=[40, 0]),
   midi.NoteOnEvent(tick=0, channel=2, data=[40, 127]),
   midi.NoteOnEvent(tick=40, channel=2, data=[40, 0]),
   midi.NoteOnEvent(tick=0, channel=2, data=[40, 127]),
   midi.NoteOnEvent(tick=40, channel=2, data=[40, 0]),
   midi.NoteOnEvent(tick=0, channel=2, data=[40, 127]),
   midi.NoteOnEvent(tick=60, channel=2, data=[40, 0]),
   midi.NoteOnEvent(tick=0, channel=2, data=[40, 127]),
   midi.NoteOnEvent(tick=60, channel=2, data=[40, 0]),
   midi.NoteOnEvent(tick=0, channel=2, data=[40, 127]),
   midi.NoteOnEvent(tick=40, channel=2, data=[40, 0]),
   midi.NoteOnEvent(tick=0, channel=2, data=[40, 127]),
   midi.NoteOnEvent(tick=40, channel=2, data=[40, 0]),
   midi.NoteOnEvent(tick=0, channel=2, data=[40, 127]),
   midi.NoteOnEvent(tick=40, channel=2, data=[40, 0]),
   midi.NoteOnEvent(tick=0, channel=2, data=[60, 127]),
   midi.NoteOnEvent(tick=0, channel=2, data=[53, 127]),
   midi.NoteOnEvent(tick=240, channel=2, data=[60, 0]),
   midi.NoteOnEvent(tick=0, channel=2, data=[53, 0]),
   midi.NoteOnEvent(tick=0, channel=2, data=[40, 127]),
   midi.NoteOnEvent(tick=60, channel=2, data=[40, 0]),
   midi.NoteOnEvent(tick=0, channel=2, data=[40, 127]),
   midi.NoteOnEvent(tick=60, channel=2, data=[40, 0]),
   midi.NoteOnEvent(tick=0, channel=2, data=[40, 127]),
   midi.NoteOnEvent(tick=40, channel=2, data=[40, 0]),
   midi.NoteOnEvent(tick=0, channel=2, data=[40, 127]),
   midi.NoteOnEvent(tick=40, channel=2, data=[40, 0]),
   midi.NoteOnEvent(tick=0, channel=2, data=[40, 127]),
   midi.NoteOnEvent(tick=40, channel=2, data=[40, 0]),
   midi.NoteOnEvent(tick=0, channel=2, data=[40, 127]),
   midi.NoteOnEvent(tick=60, channel=2, data=[40, 0]),
   midi.NoteOnEvent(tick=0, channel=2, data=[40, 127]),
   midi.NoteOnEvent(tick=60, channel=2, data=[40, 0]),
   midi.NoteOnEvent(tick=0, channel=2, data=[40, 127]),
   midi.NoteOnEvent(tick=40, channel=2, data=[40, 0]),
   midi.NoteOnEvent(tick=0, channel=2, data=[40, 127]),
   midi.NoteOnEvent(tick=40, channel=2, data=[40, 0]),
   midi.NoteOnEvent(tick=0, channel=2, data=[40, 127]),
   midi.NoteOnEvent(tick=40, channel=2, data=[40, 0]),
   midi.NoteOnEvent(tick=0, channel=2, data=[40, 127]),
   midi.NoteOnEvent(tick=60, channel=2, data=[40, 0]),
   midi.NoteOnEvent(tick=0, channel=2, data=[40, 127]),
   midi.NoteOnEvent(tick=60, channel=2, data=[40, 0]),
   midi.NoteOnEvent(tick=0, channel=2, data=[40, 127]),
   midi.NoteOnEvent(tick=40, channel=2, data=[40, 0]),
   midi.NoteOnEvent(tick=0, channel=2, data=[40, 127]),
   midi.NoteOnEvent(tick=40, channel=2, data=[40, 0]),
   midi.NoteOnEvent(tick=0, channel=2, data=[40, 127]),
   midi.NoteOnEvent(tick=40, channel=2, data=[40, 0]),
   midi.NoteOnEvent(tick=0, channel=2, data=[60, 127]),
   midi.NoteOnEvent(tick=0, channel=2, data=[53, 127]),
   midi.NoteOnEvent(tick=30, channel=2, data=[60, 0]),
   midi.NoteOnEvent(tick=0, channel=2, data=[53, 0]),
   midi.NoteOnEvent(tick=0, channel=2, data=[52, 127]),
   midi.NoteOnEvent(tick=0, channel=2, data=[59, 127]),
   midi.NoteOnEvent(tick=90, channel=2, data=[52, 0]),
   midi.NoteOnEvent(tick=0, channel=2, data=[59, 0]),
   midi.NoteOnEvent(tick=0, channel=2, data=[59, 127]),
   midi.NoteOnEvent(tick=0, channel=2, data=[52, 127]),
   midi.NoteOnEvent(tick=120, channel=2, data=[59, 0]),
   midi.NoteOnEvent(tick=0, channel=2, data=[52, 0]),
   midi.NoteOnEvent(tick=0, channel=2, data=[40, 127]),
   midi.NoteOnEvent(tick=60, channel=2, data=[40, 0]),
   midi.NoteOnEvent(tick=0, channel=2, data=[40, 127]),
   midi.NoteOnEvent(tick=60, channel=2, data=[40, 0]),
   midi.NoteOnEvent(tick=0, channel=2, data=[40, 127]),
   midi.NoteOnEvent(tick=40, channel=2, data=[40, 0]),
   midi.NoteOnEvent(tick=0, channel=2, data=[40, 127]),
   midi.NoteOnEvent(tick=40, channel=2, data=[40, 0]),
   midi.NoteOnEvent(tick=0, channel=2, data=[40, 127]),
   midi.NoteOnEvent(tick=40, channel=2, data=[40, 0]),
   midi.NoteOnEvent(tick=0, channel=2, data=[40, 127]),
   midi.NoteOnEvent(tick=60, channel=2, data=[40, 0]),
   midi.NoteOnEvent(tick=0, channel=2, data=[40, 127]),
   midi.NoteOnEvent(tick=60, channel=2, data=[40, 0]),
   midi.NoteOnEvent(tick=0, channel=2, data=[40, 127]),
   midi.NoteOnEvent(tick=40, channel=2, data=[40, 0]),
   midi.NoteOnEvent(tick=0, channel=2, data=[40, 127]),
   midi.NoteOnEvent(tick=40, channel=2, data=[40, 0]),
   midi.NoteOnEvent(tick=0, channel=2, data=[40, 127]),
   midi.NoteOnEvent(tick=40, channel=2, data=[40, 0]),
   midi.NoteOnEvent(tick=0, channel=2, data=[40, 127]),
   midi.NoteOnEvent(tick=60, channel=2, data=[40, 0]),
   midi.NoteOnEvent(tick=0, channel=2, data=[40, 127]),
   midi.NoteOnEvent(tick=60, channel=2, data=[40, 0]),
   midi.NoteOnEvent(tick=0, channel=2, data=[40, 127]),
   midi.NoteOnEvent(tick=40, channel=2, data=[40, 0]),
   midi.NoteOnEvent(tick=0, channel=2, data=[40, 127]),
   midi.NoteOnEvent(tick=40, channel=2, data=[40, 0]),
   midi.NoteOnEvent(tick=0, channel=2, data=[40, 127]),
   midi.NoteOnEvent(tick=40, channel=2, data=[40, 0]),
   midi.NoteOnEvent(tick=0, channel=2, data=[60, 127]),
   midi.NoteOnEvent(tick=0, channel=2, data=[53, 127]),
   midi.NoteOnEvent(tick=240, channel=2, data=[60, 0]),
   midi.NoteOnEvent(tick=0, channel=2, data=[53, 0]),
   midi.NoteOnEvent(tick=0, channel=2, data=[40, 127]),
   midi.NoteOnEvent(tick=0, channel=2, data=[52, 127]),
   midi.NoteOnEvent(tick=60, channel=2, data=[40, 0]),
   midi.NoteOnEvent(tick=0, channel=2, data=[52, 0]),
   midi.NoteOnEvent(tick=0, channel=2, data=[50, 127]),
   midi.NoteOnEvent(tick=60, channel=2, data=[50, 0]),
   midi.NoteOnEvent(tick=0, channel=2, data=[40, 127]),
   midi.NoteOnEvent(tick=0, channel=2, data=[52, 127]),
   midi.NoteOnEvent(tick=60, channel=2, data=[40, 0]),
   midi.NoteOnEvent(tick=0, channel=2, data=[52, 0]),
   midi.NoteOnEvent(tick=0, channel=2, data=[50, 127]),
   midi.NoteOnEvent(tick=60, channel=2, data=[50, 0]),
   midi.NoteOnEvent(tick=0, channel=2, data=[40, 127]),
   midi.NoteOnEvent(tick=0, channel=2, data=[52, 127]),
   midi.NoteOnEvent(tick=60, channel=2, data=[40, 0]),
   midi.NoteOnEvent(tick=0, channel=2, data=[52, 0]),
   midi.NoteOnEvent(tick=0, channel=2, data=[50, 127]),
   midi.NoteOnEvent(tick=60, channel=2, data=[50, 0]),
   midi.NoteOnEvent(tick=0, channel=2, data=[40, 127]),
   midi.NoteOnEvent(tick=0, channel=2, data=[52, 127]),
   midi.NoteOnEvent(tick=60, channel=2, data=[40, 0]),
   midi.NoteOnEvent(tick=0, channel=2, data=[52, 0]),
   midi.NoteOnEvent(tick=0, channel=2, data=[50, 127]),
   midi.NoteOnEvent(tick=60, channel=2, data=[50, 0]),
   midi.NoteOnEvent(tick=0, channel=2, data=[40, 127]),
   midi.NoteOnEvent(tick=0, channel=2, data=[52, 127]),
   midi.NoteOnEvent(tick=60, channel=2, data=[40, 0]),
   midi.NoteOnEvent(tick=0, channel=2, data=[52, 0]),
   midi.NoteOnEvent(tick=0, channel=2, data=[50, 127]),
   midi.NoteOnEvent(tick=60, channel=2, data=[50, 0]),
   midi.NoteOnEvent(tick=0, channel=2, data=[40, 127]),
   midi.NoteOnEvent(tick=0, channel=2, data=[52, 127]),
   midi.NoteOnEvent(tick=60, channel=2, data=[40, 0]),
   midi.NoteOnEvent(tick=0, channel=2, data=[52, 0]),
   midi.NoteOnEvent(tick=0, channel=2, data=[50, 127]),
   midi.NoteOnEvent(tick=60, channel=2, data=[50, 0]),
   midi.NoteOnEvent(tick=0, channel=2, data=[40, 127]),
   midi.NoteOnEvent(tick=0, channel=2, data=[52, 127]),
   midi.NoteOnEvent(tick=60, channel=2, data=[40, 0]),
   midi.NoteOnEvent(tick=0, channel=2, data=[52, 0]),
   midi.NoteOnEvent(tick=0, channel=2, data=[50, 127]),
   midi.NoteOnEvent(tick=60, channel=2, data=[50, 0]),
   midi.NoteOnEvent(tick=0, channel=2, data=[47, 127]),
   midi.NoteOnEvent(tick=0, channel=2, data=[50, 127]),
   midi.NoteOnEvent(tick=60, channel=2, data=[47, 0]),
   midi.NoteOnEvent(tick=0, channel=2, data=[50, 0]),
   midi.NoteOnEvent(tick=0, channel=2, data=[50, 127]),
   midi.NoteOnEvent(tick=60, channel=2, data=[50, 0]),
   midi.NoteOnEvent(tick=0, channel=2, data=[40, 127]),
   midi.NoteOnEvent(tick=0, channel=2, data=[52, 127]),
   midi.NoteOnEvent(tick=60, channel=2, data=[40, 0]),
   midi.NoteOnEvent(tick=0, channel=2, data=[52, 0]),
   midi.NoteOnEvent(tick=0, channel=2, data=[50, 127]),
   midi.NoteOnEvent(tick=60, channel=2, data=[50, 0]),
   midi.NoteOnEvent(tick=0, channel=2, data=[40, 127]),
   midi.NoteOnEvent(tick=0, channel=2, data=[52, 127]),
   midi.NoteOnEvent(tick=60, channel=2, data=[40, 0]),
   midi.NoteOnEvent(tick=0, channel=2, data=[52, 0]),
   midi.NoteOnEvent(tick=0, channel=2, data=[50, 127]),
   midi.NoteOnEvent(tick=60, channel=2, data=[50, 0]),
   midi.NoteOnEvent(tick=0, channel=2, data=[40, 127]),
   midi.NoteOnEvent(tick=0, channel=2, data=[52, 127]),
   midi.NoteOnEvent(tick=60, channel=2, data=[40, 0]),
   midi.NoteOnEvent(tick=0, channel=2, data=[52, 0]),
   midi.NoteOnEvent(tick=0, channel=2, data=[50, 127]),
   midi.NoteOnEvent(tick=60, channel=2, data=[50, 0]),
   midi.NoteOnEvent(tick=0, channel=2, data=[40, 127]),
   midi.NoteOnEvent(tick=0, channel=2, data=[52, 127]),
   midi.NoteOnEvent(tick=60, channel=2, data=[40, 0]),
   midi.NoteOnEvent(tick=0, channel=2, data=[52, 0]),
   midi.NoteOnEvent(tick=0, channel=2, data=[50, 127]),
   midi.NoteOnEvent(tick=60, channel=2, data=[50, 0]),
   midi.NoteOnEvent(tick=0, channel=2, data=[47, 127]),
   midi.NoteOnEvent(tick=60, channel=2, data=[47, 0]),
   midi.NoteOnEvent(tick=0, channel=2, data=[50, 127]),
   midi.NoteOnEvent(tick=60, channel=2, data=[50, 0]),
   midi.NoteOnEvent(tick=0, channel=2, data=[52, 127]),
   midi.NoteOnEvent(tick=60, channel=2, data=[52, 0]),
   midi.NoteOnEvent(tick=0, channel=2, data=[50, 127]),
   midi.NoteOnEvent(tick=60, channel=2, data=[50, 0]),
   midi.NoteOnEvent(tick=0, channel=2, data=[57, 127]),
   midi.NoteOnEvent(tick=60, channel=2, data=[57, 0]),
   midi.NoteOnEvent(tick=0, channel=2, data=[55, 127]),
   midi.NoteOnEvent(tick=60, channel=2, data=[55, 0]),
   midi.NoteOnEvent(tick=0, channel=2, data=[52, 127]),
   midi.NoteOnEvent(tick=60, channel=2, data=[52, 0]),
   midi.NoteOnEvent(tick=0, channel=2, data=[50, 127]),
   midi.NoteOnEvent(tick=60, channel=2, data=[50, 0]),
   midi.NoteOnEvent(tick=0, channel=2, data=[40, 127]),
   midi.NoteOnEvent(tick=0, channel=2, data=[52, 127]),
   midi.NoteOnEvent(tick=60, channel=2, data=[40, 0]),
   midi.NoteOnEvent(tick=0, channel=2, data=[52, 0]),
   midi.NoteOnEvent(tick=0, channel=2, data=[50, 127]),
   midi.NoteOnEvent(tick=60, channel=2, data=[50, 0]),
   midi.NoteOnEvent(tick=0, channel=2, data=[40, 127]),
   midi.NoteOnEvent(tick=0, channel=2, data=[52, 127]),
   midi.NoteOnEvent(tick=60, channel=2, data=[40, 0]),
   midi.NoteOnEvent(tick=0, channel=2, data=[52, 0]),
   midi.NoteOnEvent(tick=0, channel=2, data=[50, 127]),
   midi.NoteOnEvent(tick=60, channel=2, data=[50, 0]),
   midi.NoteOnEvent(tick=0, channel=2, data=[40, 127]),
   midi.NoteOnEvent(tick=0, channel=2, data=[52, 127]),
   midi.NoteOnEvent(tick=60, channel=2, data=[40, 0]),
   midi.NoteOnEvent(tick=0, channel=2, data=[52, 0]),
   midi.NoteOnEvent(tick=0, channel=2, data=[50, 127]),
   midi.NoteOnEvent(tick=60, channel=2, data=[50, 0]),
   midi.NoteOnEvent(tick=0, channel=2, data=[47, 127]),
   midi.NoteOnEvent(tick=0, channel=2, data=[50, 127]),
   midi.NoteOnEvent(tick=60, channel=2, data=[47, 0]),
   midi.NoteOnEvent(tick=0, channel=2, data=[50, 0]),
   midi.NoteOnEvent(tick=0, channel=2, data=[50, 127]),
   midi.NoteOnEvent(tick=60, channel=2, data=[50, 0]),
   midi.NoteOnEvent(tick=0, channel=2, data=[40, 127]),
   midi.NoteOnEvent(tick=0, channel=2, data=[52, 127]),
   midi.NoteOnEvent(tick=60, channel=2, data=[40, 0]),
   midi.NoteOnEvent(tick=0, channel=2, data=[52, 0]),
   midi.NoteOnEvent(tick=0, channel=2, data=[50, 127]),
   midi.NoteOnEvent(tick=60, channel=2, data=[50, 0]),
   midi.NoteOnEvent(tick=0, channel=2, data=[40, 127]),
   midi.NoteOnEvent(tick=0, channel=2, data=[52, 127]),
   midi.NoteOnEvent(tick=60, channel=2, data=[40, 0]),
   midi.NoteOnEvent(tick=0, channel=2, data=[52, 0]),
   midi.NoteOnEvent(tick=0, channel=2, data=[50, 127]),
   midi.NoteOnEvent(tick=60, channel=2, data=[50, 0]),
   midi.NoteOnEvent(tick=0, channel=2, data=[40, 127]),
   midi.NoteOnEvent(tick=0, channel=2, data=[52, 127]),
   midi.NoteOnEvent(tick=60, channel=2, data=[40, 0]),
   midi.NoteOnEvent(tick=0, channel=2, data=[52, 0]),
   midi.NoteOnEvent(tick=0, channel=2, data=[50, 127]),
   midi.NoteOnEvent(tick=60, channel=2, data=[50, 0]),
   midi.NoteOnEvent(tick=0, channel=2, data=[47, 127]),
   midi.NoteOnEvent(tick=0, channel=2, data=[50, 127]),
   midi.NoteOnEvent(tick=60, channel=2, data=[47, 0]),
   midi.NoteOnEvent(tick=0, channel=2, data=[50, 0]),
   midi.NoteOnEvent(tick=0, channel=2, data=[50, 127]),
   midi.NoteOnEvent(tick=60, channel=2, data=[50, 0]),
   midi.NoteOnEvent(tick=0, channel=2, data=[48, 127]),
   midi.NoteOnEvent(tick=0, channel=2, data=[55, 127]),
   midi.NoteOnEvent(tick=120, channel=2, data=[48, 0]),
   midi.NoteOnEvent(tick=0, channel=2, data=[55, 0]),
   midi.NoteOnEvent(tick=0, channel=2, data=[43, 127]),
   midi.NoteOnEvent(tick=0, channel=2, data=[50, 127]),
   midi.NoteOnEvent(tick=120, channel=2, data=[43, 0]),
   midi.NoteOnEvent(tick=0, channel=2, data=[50, 0]),
   midi.NoteOnEvent(tick=0, channel=2, data=[57, 127]),
   midi.NoteOnEvent(tick=0, channel=2, data=[50, 127]),
   midi.NoteOnEvent(tick=120, channel=2, data=[57, 0]),
   midi.NoteOnEvent(tick=0, channel=2, data=[50, 0]),
   midi.NoteOnEvent(tick=0, channel=2, data=[48, 127]),
   midi.NoteOnEvent(tick=0, channel=2, data=[55, 127]),
   midi.NoteOnEvent(tick=120, channel=2, data=[48, 0]),
   midi.NoteOnEvent(tick=0, channel=2, data=[55, 0]),
   midi.NoteOnEvent(tick=0, channel=2, data=[47, 127]),
   midi.NoteOnEvent(tick=0, channel=2, data=[40, 127]),
   midi.NoteOnEvent(tick=120, channel=2, data=[47, 0]),
   midi.NoteOnEvent(tick=0, channel=2, data=[40, 0]),
   midi.EndOfTrackEvent(tick=0, data=[])]),
 midi.Track(\
  [midi.PortEvent(tick=0, data=[0]),
   midi.TrackNameEvent(tick=0, text='Guitar 3', data=[71, 117, 105, 116, 97, 114, 32, 51]),
   midi.ProgramChangeEvent(tick=0, channel=8, data=[29]),
   midi.ControlChangeEvent(tick=0, channel=8, data=[7, 99]),
   midi.ControlChangeEvent(tick=0, channel=3, data=[7, 99]),
   midi.ProgramChangeEvent(tick=0, channel=3, data=[29]),
   midi.PitchWheelEvent(tick=88080, channel=3, data=[0, 64]),
   midi.NoteOnEvent(tick=0, channel=3, data=[81, 127]),
   midi.PitchWheelEvent(tick=1, channel=3, data=[51, 70]),
   midi.PitchWheelEvent(tick=1, channel=3, data=[102, 76]),
   midi.PitchWheelEvent(tick=1, channel=3, data=[25, 83]),
   midi.PitchWheelEvent(tick=1, channel=3, data=[76, 89]),
   midi.PitchWheelEvent(tick=1, channel=3, data=[0, 96]),
   midi.PitchWheelEvent(tick=1, channel=3, data=[51, 102]),
   midi.PitchWheelEvent(tick=1, channel=3, data=[102, 108]),
   midi.PitchWheelEvent(tick=1, channel=3, data=[25, 115]),
   midi.PitchWheelEvent(tick=1, channel=3, data=[76, 121]),
   midi.PitchWheelEvent(tick=1, channel=3, data=[127, 127]),
   midi.NoteOnEvent(tick=110, channel=3, data=[81, 0]),
   midi.PitchWheelEvent(tick=0, channel=3, data=[0, 64]),
   midi.NoteOnEvent(tick=0, channel=3, data=[81, 127]),
   midi.PitchWheelEvent(tick=1, channel=3, data=[17, 66]),
   midi.PitchWheelEvent(tick=1, channel=3, data=[34, 68]),
   midi.PitchWheelEvent(tick=1, channel=3, data=[51, 70]),
   midi.PitchWheelEvent(tick=1, channel=3, data=[68, 72]),
   midi.PitchWheelEvent(tick=1, channel=3, data=[85, 74]),
   midi.PitchWheelEvent(tick=1, channel=3, data=[102, 76]),
   midi.PitchWheelEvent(tick=1, channel=3, data=[119, 78]),
   midi.PitchWheelEvent(tick=1, channel=3, data=[8, 81]),
   midi.PitchWheelEvent(tick=1, channel=3, data=[25, 83]),
   midi.PitchWheelEvent(tick=1, channel=3, data=[42, 85]),
   midi.PitchWheelEvent(tick=1, channel=3, data=[59, 87]),
   midi.PitchWheelEvent(tick=1, channel=3, data=[76, 89]),
   midi.PitchWheelEvent(tick=1, channel=3, data=[93, 91]),
   midi.PitchWheelEvent(tick=1, channel=3, data=[110, 93]),
   midi.PitchWheelEvent(tick=1, channel=3, data=[0, 96]),
   midi.PitchWheelEvent(tick=1, channel=3, data=[17, 98]),
   midi.PitchWheelEvent(tick=1, channel=3, data=[34, 100]),
   midi.PitchWheelEvent(tick=1, channel=3, data=[51, 102]),
   midi.PitchWheelEvent(tick=1, channel=3, data=[68, 104]),
   midi.PitchWheelEvent(tick=1, channel=3, data=[85, 106]),
   midi.PitchWheelEvent(tick=1, channel=3, data=[102, 108]),
   midi.PitchWheelEvent(tick=1, channel=3, data=[119, 110]),
   midi.PitchWheelEvent(tick=1, channel=3, data=[8, 113]),
   midi.PitchWheelEvent(tick=1, channel=3, data=[25, 115]),
   midi.PitchWheelEvent(tick=1, channel=3, data=[42, 117]),
   midi.PitchWheelEvent(tick=1, channel=3, data=[59, 119]),
   midi.PitchWheelEvent(tick=1, channel=3, data=[76, 121]),
   midi.PitchWheelEvent(tick=1, channel=3, data=[93, 123]),
   midi.PitchWheelEvent(tick=1, channel=3, data=[110, 125]),
   midi.PitchWheelEvent(tick=1, channel=3, data=[127, 127]),
   midi.PitchWheelEvent(tick=0, channel=3, data=[127, 127]),
   midi.PitchWheelEvent(tick=1, channel=3, data=[110, 125]),
   midi.PitchWheelEvent(tick=1, channel=3, data=[93, 123]),
   midi.PitchWheelEvent(tick=1, channel=3, data=[76, 121]),
   midi.PitchWheelEvent(tick=1, channel=3, data=[59, 119]),
   midi.PitchWheelEvent(tick=1, channel=3, data=[42, 117]),
   midi.PitchWheelEvent(tick=1, channel=3, data=[25, 115]),
   midi.PitchWheelEvent(tick=1, channel=3, data=[8, 113]),
   midi.PitchWheelEvent(tick=1, channel=3, data=[119, 110]),
   midi.PitchWheelEvent(tick=1, channel=3, data=[102, 108]),
   midi.PitchWheelEvent(tick=1, channel=3, data=[85, 106]),
   midi.PitchWheelEvent(tick=1, channel=3, data=[68, 104]),
   midi.PitchWheelEvent(tick=1, channel=3, data=[51, 102]),
   midi.PitchWheelEvent(tick=1, channel=3, data=[34, 100]),
   midi.PitchWheelEvent(tick=1, channel=3, data=[17, 98]),
   midi.PitchWheelEvent(tick=1, channel=3, data=[127, 95]),
   midi.PitchWheelEvent(tick=1, channel=3, data=[110, 93]),
   midi.PitchWheelEvent(tick=1, channel=3, data=[93, 91]),
   midi.PitchWheelEvent(tick=1, channel=3, data=[76, 89]),
   midi.PitchWheelEvent(tick=1, channel=3, data=[59, 87]),
   midi.PitchWheelEvent(tick=1, channel=3, data=[42, 85]),
   midi.PitchWheelEvent(tick=1, channel=3, data=[25, 83]),
   midi.PitchWheelEvent(tick=1, channel=3, data=[8, 81]),
   midi.PitchWheelEvent(tick=1, channel=3, data=[119, 78]),
   midi.PitchWheelEvent(tick=1, channel=3, data=[102, 76]),
   midi.PitchWheelEvent(tick=1, channel=3, data=[85, 74]),
   midi.PitchWheelEvent(tick=1, channel=3, data=[68, 72]),
   midi.PitchWheelEvent(tick=1, channel=3, data=[51, 70]),
   midi.PitchWheelEvent(tick=1, channel=3, data=[34, 68]),
   midi.PitchWheelEvent(tick=1, channel=3, data=[17, 66]),
   midi.PitchWheelEvent(tick=1, channel=3, data=[0, 64]),
   midi.NoteOnEvent(tick=30, channel=3, data=[81, 0]),
   midi.NoteOnEvent(tick=0, channel=3, data=[79, 127]),
   midi.NoteOnEvent(tick=30, channel=3, data=[79, 0]),
   midi.NoteOnEvent(tick=0, channel=3, data=[81, 127]),
   midi.NoteOnEvent(tick=15, channel=3, data=[81, 0]),
   midi.NoteOnEvent(tick=0, channel=3, data=[79, 127]),
   midi.NoteOnEvent(tick=15, channel=3, data=[79, 0]),
   midi.NoteOnEvent(tick=0, channel=3, data=[78, 127]),
   midi.NoteOnEvent(tick=30, channel=3, data=[78, 0]),
   midi.NoteOnEvent(tick=0, channel=3, data=[79, 127]),
   midi.NoteOnEvent(tick=15, channel=3, data=[79, 0]),
   midi.NoteOnEvent(tick=0, channel=3, data=[78, 127]),
   midi.NoteOnEvent(tick=15, channel=3, data=[78, 0]),
   midi.NoteOnEvent(tick=0, channel=3, data=[76, 127]),
   midi.NoteOnEvent(tick=30, channel=3, data=[76, 0]),
   midi.NoteOnEvent(tick=0, channel=3, data=[78, 127]),
   midi.NoteOnEvent(tick=15, channel=3, data=[78, 0]),
   midi.NoteOnEvent(tick=0, channel=3, data=[76, 127]),
   midi.NoteOnEvent(tick=15, channel=3, data=[76, 0]),
   midi.NoteOnEvent(tick=0, channel=3, data=[74, 127]),
   midi.NoteOnEvent(tick=30, channel=3, data=[74, 0]),
   midi.NoteOnEvent(tick=0, channel=3, data=[76, 127]),
   midi.NoteOnEvent(tick=15, channel=3, data=[76, 0]),
   midi.NoteOnEvent(tick=0, channel=3, data=[74, 127]),
   midi.NoteOnEvent(tick=15, channel=3, data=[74, 0]),
   midi.NoteOnEvent(tick=0, channel=3, data=[72, 127]),
   midi.NoteOnEvent(tick=30, channel=3, data=[72, 0]),
   midi.NoteOnEvent(tick=0, channel=3, data=[74, 127]),
   midi.NoteOnEvent(tick=15, channel=3, data=[74, 0]),
   midi.NoteOnEvent(tick=0, channel=3, data=[72, 127]),
   midi.NoteOnEvent(tick=15, channel=3, data=[72, 0]),
   midi.NoteOnEvent(tick=0, channel=3, data=[71, 127]),
   midi.NoteOnEvent(tick=30, channel=3, data=[71, 0]),
   midi.NoteOnEvent(tick=0, channel=3, data=[72, 127]),
   midi.NoteOnEvent(tick=15, channel=3, data=[72, 0]),
   midi.NoteOnEvent(tick=0, channel=3, data=[71, 127]),
   midi.NoteOnEvent(tick=15, channel=3, data=[71, 0]),
   midi.NoteOnEvent(tick=0, channel=3, data=[69, 127]),
   midi.NoteOnEvent(tick=30, channel=3, data=[69, 0]),
   midi.NoteOnEvent(tick=0, channel=3, data=[71, 127]),
   midi.NoteOnEvent(tick=15, channel=3, data=[71, 0]),
   midi.NoteOnEvent(tick=0, channel=3, data=[69, 127]),
   midi.NoteOnEvent(tick=15, channel=3, data=[69, 0]),
   midi.NoteOnEvent(tick=0, channel=3, data=[67, 127]),
   midi.NoteOnEvent(tick=15, channel=3, data=[67, 0]),
   midi.NoteOnEvent(tick=0, channel=3, data=[69, 127]),
   midi.NoteOnEvent(tick=15, channel=3, data=[69, 0]),
   midi.NoteOnEvent(tick=0, channel=3, data=[67, 127]),
   midi.NoteOnEvent(tick=30, channel=3, data=[67, 0]),
   midi.NoteOnEvent(tick=0, channel=3, data=[66, 127]),
   midi.NoteOnEvent(tick=15, channel=3, data=[66, 0]),
   midi.NoteOnEvent(tick=0, channel=3, data=[67, 127]),
   midi.NoteOnEvent(tick=15, channel=3, data=[67, 0]),
   midi.NoteOnEvent(tick=0, channel=3, data=[66, 127]),
   midi.NoteOnEvent(tick=20, channel=3, data=[66, 0]),
   midi.NoteOnEvent(tick=0, channel=3, data=[64, 127]),
   midi.NoteOnEvent(tick=20, channel=3, data=[64, 0]),
   midi.NoteOnEvent(tick=0, channel=3, data=[66, 127]),
   midi.NoteOnEvent(tick=20, channel=3, data=[66, 0]),
   midi.NoteOnEvent(tick=0, channel=3, data=[64, 127]),
   midi.NoteOnEvent(tick=30, channel=3, data=[64, 0]),
   midi.NoteOnEvent(tick=0, channel=3, data=[62, 127]),
   midi.NoteOnEvent(tick=30, channel=3, data=[62, 0]),
   midi.NoteOnEvent(tick=0, channel=3, data=[61, 127]),
   midi.NoteOnEvent(tick=15, channel=3, data=[61, 0]),
   midi.NoteOnEvent(tick=0, channel=3, data=[57, 127]),
   midi.NoteOnEvent(tick=75, channel=3, data=[57, 0]),
   midi.NoteOnEvent(tick=30, channel=3, data=[59, 127]),
   midi.NoteOnEvent(tick=20, channel=3, data=[59, 0]),
   midi.NoteOnEvent(tick=0, channel=3, data=[57, 127]),
   midi.NoteOnEvent(tick=20, channel=3, data=[57, 0]),
   midi.NoteOnEvent(tick=0, channel=3, data=[59, 127]),
   midi.NoteOnEvent(tick=20, channel=3, data=[59, 0]),
   midi.NoteOnEvent(tick=0, channel=3, data=[62, 127]),
   midi.NoteOnEvent(tick=20, channel=3, data=[62, 0]),
   midi.NoteOnEvent(tick=0, channel=3, data=[59, 127]),
   midi.NoteOnEvent(tick=20, channel=3, data=[59, 0]),
   midi.NoteOnEvent(tick=0, channel=3, data=[62, 127]),
   midi.NoteOnEvent(tick=20, channel=3, data=[62, 0]),
   midi.NoteOnEvent(tick=0, channel=3, data=[64, 127]),
   midi.NoteOnEvent(tick=20, channel=3, data=[64, 0]),
   midi.NoteOnEvent(tick=0, channel=3, data=[62, 127]),
   midi.NoteOnEvent(tick=20, channel=3, data=[62, 0]),
   midi.NoteOnEvent(tick=0, channel=3, data=[64, 127]),
   midi.NoteOnEvent(tick=20, channel=3, data=[64, 0]),
   midi.NoteOnEvent(tick=0, channel=3, data=[67, 127]),
   midi.NoteOnEvent(tick=20, channel=3, data=[67, 0]),
   midi.NoteOnEvent(tick=0, channel=3, data=[64, 127]),
   midi.NoteOnEvent(tick=20, channel=3, data=[64, 0]),
   midi.NoteOnEvent(tick=0, channel=3, data=[67, 127]),
   midi.NoteOnEvent(tick=20, channel=3, data=[67, 0]),
   midi.NoteOnEvent(tick=0, channel=3, data=[69, 127]),
   midi.NoteOnEvent(tick=20, channel=3, data=[69, 0]),
   midi.NoteOnEvent(tick=0, channel=3, data=[67, 127]),
   midi.NoteOnEvent(tick=20, channel=3, data=[67, 0]),
   midi.NoteOnEvent(tick=0, channel=3, data=[69, 127]),
   midi.NoteOnEvent(tick=20, channel=3, data=[69, 0]),
   midi.NoteOnEvent(tick=0, channel=3, data=[71, 127]),
   midi.NoteOnEvent(tick=20, channel=3, data=[71, 0]),
   midi.NoteOnEvent(tick=0, channel=3, data=[69, 127]),
   midi.NoteOnEvent(tick=20, channel=3, data=[69, 0]),
   midi.NoteOnEvent(tick=0, channel=3, data=[71, 127]),
   midi.NoteOnEvent(tick=20, channel=3, data=[71, 0]),
   midi.NoteOnEvent(tick=0, channel=3, data=[74, 127]),
   midi.NoteOnEvent(tick=20, channel=3, data=[74, 0]),
   midi.NoteOnEvent(tick=0, channel=3, data=[71, 127]),
   midi.NoteOnEvent(tick=20, channel=3, data=[71, 0]),
   midi.NoteOnEvent(tick=0, channel=3, data=[74, 127]),
   midi.NoteOnEvent(tick=20, channel=3, data=[74, 0]),
   midi.NoteOnEvent(tick=0, channel=3, data=[76, 127]),
   midi.NoteOnEvent(tick=20, channel=3, data=[76, 0]),
   midi.NoteOnEvent(tick=0, channel=3, data=[74, 127]),
   midi.NoteOnEvent(tick=20, channel=3, data=[74, 0]),
   midi.NoteOnEvent(tick=0, channel=3, data=[76, 127]),
   midi.NoteOnEvent(tick=20, channel=3, data=[76, 0]),
   midi.NoteOnEvent(tick=0, channel=3, data=[79, 127]),
   midi.NoteOnEvent(tick=15, channel=3, data=[79, 0]),
   midi.NoteOnEvent(tick=0, channel=3, data=[76, 127]),
   midi.NoteOnEvent(tick=15, channel=3, data=[76, 0]),
   midi.NoteOnEvent(tick=0, channel=3, data=[76, 127]),
   midi.NoteOnEvent(tick=15, channel=3, data=[76, 0]),
   midi.NoteOnEvent(tick=0, channel=3, data=[76, 127]),
   midi.NoteOnEvent(tick=15, channel=3, data=[76, 0]),
   midi.NoteOnEvent(tick=0, channel=3, data=[79, 127]),
   midi.NoteOnEvent(tick=12, channel=3, data=[79, 0]),
   midi.NoteOnEvent(tick=0, channel=3, data=[76, 127]),
   midi.NoteOnEvent(tick=12, channel=3, data=[76, 0]),
   midi.NoteOnEvent(tick=0, channel=3, data=[76, 127]),
   midi.NoteOnEvent(tick=12, channel=3, data=[76, 0]),
   midi.NoteOnEvent(tick=0, channel=3, data=[76, 127]),
   midi.NoteOnEvent(tick=12, channel=3, data=[76, 0]),
   midi.NoteOnEvent(tick=0, channel=3, data=[76, 127]),
   midi.NoteOnEvent(tick=12, channel=3, data=[76, 0]),
   midi.NoteOnEvent(tick=0, channel=3, data=[79, 127]),
   midi.NoteOnEvent(tick=12, channel=3, data=[79, 0]),
   midi.NoteOnEvent(tick=0, channel=3, data=[76, 127]),
   midi.NoteOnEvent(tick=12, channel=3, data=[76, 0]),
   midi.NoteOnEvent(tick=0, channel=3, data=[76, 127]),
   midi.NoteOnEvent(tick=12, channel=3, data=[76, 0]),
   midi.NoteOnEvent(tick=0, channel=3, data=[76, 127]),
   midi.NoteOnEvent(tick=12, channel=3, data=[76, 0]),
   midi.NoteOnEvent(tick=0, channel=3, data=[76, 127]),
   midi.NoteOnEvent(tick=12, channel=3, data=[76, 0]),
   midi.NoteOnEvent(tick=0, channel=3, data=[76, 127]),
   midi.NoteOnEvent(tick=15, channel=3, data=[76, 0]),
   midi.NoteOnEvent(tick=0, channel=3, data=[76, 127]),
   midi.NoteOnEvent(tick=15, channel=3, data=[76, 0]),
   midi.NoteOnEvent(tick=0, channel=3, data=[76, 127]),
   midi.NoteOnEvent(tick=15, channel=3, data=[76, 0]),
   midi.NoteOnEvent(tick=0, channel=3, data=[76, 127]),
   midi.NoteOnEvent(tick=15, channel=3, data=[76, 0]),
   midi.NoteOnEvent(tick=0, channel=3, data=[79, 127]),
   midi.NoteOnEvent(tick=15, channel=3, data=[79, 0]),
   midi.NoteOnEvent(tick=0, channel=3, data=[76, 127]),
   midi.NoteOnEvent(tick=15, channel=3, data=[76, 0]),
   midi.NoteOnEvent(tick=0, channel=3, data=[76, 127]),
   midi.NoteOnEvent(tick=15, channel=3, data=[76, 0]),
   midi.NoteOnEvent(tick=0, channel=3, data=[76, 127]),
   midi.NoteOnEvent(tick=15, channel=3, data=[76, 0]),
   midi.NoteOnEvent(tick=0, channel=3, data=[76, 127]),
   midi.NoteOnEvent(tick=15, channel=3, data=[76, 0]),
   midi.NoteOnEvent(tick=0, channel=3, data=[76, 127]),
   midi.NoteOnEvent(tick=15, channel=3, data=[76, 0]),
   midi.NoteOnEvent(tick=0, channel=3, data=[76, 127]),
   midi.NoteOnEvent(tick=30, channel=3, data=[76, 0]),
   midi.PitchWheelEvent(tick=0, channel=3, data=[0, 64]),
   midi.NoteOnEvent(tick=0, channel=3, data=[79, 127]),
   midi.PitchWheelEvent(tick=1, channel=3, data=[51, 70]),
   midi.PitchWheelEvent(tick=1, channel=3, data=[102, 76]),
   midi.PitchWheelEvent(tick=1, channel=3, data=[25, 83]),
   midi.PitchWheelEvent(tick=1, channel=3, data=[76, 89]),
   midi.PitchWheelEvent(tick=1, channel=3, data=[0, 96]),
   midi.PitchWheelEvent(tick=1, channel=3, data=[51, 102]),
   midi.PitchWheelEvent(tick=1, channel=3, data=[102, 108]),
   midi.PitchWheelEvent(tick=1, channel=3, data=[25, 115]),
   midi.PitchWheelEvent(tick=1, channel=3, data=[76, 121]),
   midi.PitchWheelEvent(tick=1, channel=3, data=[127, 127]),
   midi.NoteOnEvent(tick=50, channel=3, data=[79, 0]),
   midi.PitchWheelEvent(tick=0, channel=3, data=[0, 64]),
   midi.NoteOnEvent(tick=0, channel=3, data=[79, 127]),
   midi.PitchWheelEvent(tick=1, channel=3, data=[51, 70]),
   midi.PitchWheelEvent(tick=1, channel=3, data=[102, 76]),
   midi.PitchWheelEvent(tick=1, channel=3, data=[25, 83]),
   midi.PitchWheelEvent(tick=1, channel=3, data=[76, 89]),
   midi.PitchWheelEvent(tick=1, channel=3, data=[0, 96]),
   midi.PitchWheelEvent(tick=1, channel=3, data=[51, 102]),
   midi.PitchWheelEvent(tick=1, channel=3, data=[102, 108]),
   midi.PitchWheelEvent(tick=1, channel=3, data=[25, 115]),
   midi.PitchWheelEvent(tick=1, channel=3, data=[76, 121]),
   midi.PitchWheelEvent(tick=1, channel=3, data=[127, 127]),
   midi.NoteOnEvent(tick=50, channel=3, data=[79, 0]),
   midi.PitchWheelEvent(tick=0, channel=3, data=[0, 64]),
   midi.NoteOnEvent(tick=0, channel=3, data=[79, 127]),
   midi.PitchWheelEvent(tick=1, channel=3, data=[51, 70]),
   midi.PitchWheelEvent(tick=1, channel=3, data=[102, 76]),
   midi.PitchWheelEvent(tick=1, channel=3, data=[25, 83]),
   midi.PitchWheelEvent(tick=1, channel=3, data=[76, 89]),
   midi.PitchWheelEvent(tick=1, channel=3, data=[0, 96]),
   midi.PitchWheelEvent(tick=1, channel=3, data=[51, 102]),
   midi.PitchWheelEvent(tick=1, channel=3, data=[102, 108]),
   midi.PitchWheelEvent(tick=1, channel=3, data=[25, 115]),
   midi.PitchWheelEvent(tick=1, channel=3, data=[76, 121]),
   midi.PitchWheelEvent(tick=1, channel=3, data=[127, 127]),
   midi.NoteOnEvent(tick=50, channel=3, data=[79, 0]),
   midi.PitchWheelEvent(tick=0, channel=3, data=[0, 64]),
   midi.NoteOnEvent(tick=0, channel=3, data=[79, 127]),
   midi.NoteOnEvent(tick=30, channel=3, data=[79, 0]),
   midi.NoteOnEvent(tick=0, channel=3, data=[76, 127]),
   midi.NoteOnEvent(tick=30, channel=3, data=[76, 0]),
   midi.NoteOnEvent(tick=0, channel=3, data=[79, 127]),
   midi.NoteOnEvent(tick=15, channel=3, data=[79, 0]),
   midi.NoteOnEvent(tick=0, channel=3, data=[76, 127]),
   midi.NoteOnEvent(tick=15, channel=3, data=[76, 0]),
   midi.NoteOnEvent(tick=0, channel=3, data=[79, 127]),
   midi.NoteOnEvent(tick=15, channel=3, data=[79, 0]),
   midi.NoteOnEvent(tick=0, channel=3, data=[76, 127]),
   midi.NoteOnEvent(tick=15, channel=3, data=[76, 0]),
   midi.NoteOnEvent(tick=0, channel=3, data=[79, 127]),
   midi.NoteOnEvent(tick=15, channel=3, data=[79, 0]),
   midi.NoteOnEvent(tick=0, channel=3, data=[76, 127]),
   midi.NoteOnEvent(tick=10, channel=3, data=[76, 75]),
   midi.NoteOnEvent(tick=5, channel=3, data=[76, 0]),
   midi.NoteOnEvent(tick=0, channel=3, data=[76, 0]),
   midi.NoteOnEvent(tick=0, channel=3, data=[79, 127]),
   midi.NoteOnEvent(tick=15, channel=3, data=[79, 0]),
   midi.NoteOnEvent(tick=0, channel=3, data=[76, 127]),
   midi.NoteOnEvent(tick=15, channel=3, data=[76, 0]),
   midi.NoteOnEvent(tick=0, channel=3, data=[74, 127]),
   midi.NoteOnEvent(tick=15, channel=3, data=[74, 0]),
   midi.NoteOnEvent(tick=0, channel=3, data=[76, 127]),
   midi.NoteOnEvent(tick=15, channel=3, data=[76, 0]),
   midi.NoteOnEvent(tick=0, channel=3, data=[79, 127]),
   midi.NoteOnEvent(tick=15, channel=3, data=[79, 0]),
   midi.NoteOnEvent(tick=0, channel=3, data=[76, 127]),
   midi.NoteOnEvent(tick=10, channel=3, data=[76, 75]),
   midi.NoteOnEvent(tick=5, channel=3, data=[76, 0]),
   midi.NoteOnEvent(tick=0, channel=3, data=[76, 0]),
   midi.NoteOnEvent(tick=0, channel=3, data=[79, 127]),
   midi.NoteOnEvent(tick=15, channel=3, data=[79, 0]),
   midi.NoteOnEvent(tick=0, channel=3, data=[76, 127]),
   midi.NoteOnEvent(tick=15, channel=3, data=[76, 0]),
   midi.NoteOnEvent(tick=0, channel=3, data=[74, 127]),
   midi.NoteOnEvent(tick=15, channel=3, data=[74, 0]),
   midi.NoteOnEvent(tick=0, channel=3, data=[76, 127]),
   midi.NoteOnEvent(tick=15, channel=3, data=[76, 0]),
   midi.NoteOnEvent(tick=0, channel=3, data=[79, 127]),
   midi.NoteOnEvent(tick=15, channel=3, data=[79, 0]),
   midi.NoteOnEvent(tick=0, channel=3, data=[76, 127]),
   midi.NoteOnEvent(tick=10, channel=3, data=[76, 75]),
   midi.NoteOnEvent(tick=5, channel=3, data=[76, 0]),
   midi.NoteOnEvent(tick=0, channel=3, data=[76, 0]),
   midi.NoteOnEvent(tick=0, channel=3, data=[79, 127]),
   midi.NoteOnEvent(tick=15, channel=3, data=[79, 0]),
   midi.NoteOnEvent(tick=0, channel=3, data=[76, 127]),
   midi.NoteOnEvent(tick=15, channel=3, data=[76, 0]),
   midi.NoteOnEvent(tick=0, channel=3, data=[74, 127]),
   midi.NoteOnEvent(tick=15, channel=3, data=[74, 0]),
   midi.NoteOnEvent(tick=0, channel=3, data=[76, 127]),
   midi.NoteOnEvent(tick=15, channel=3, data=[76, 0]),
   midi.NoteOnEvent(tick=0, channel=3, data=[79, 127]),
   midi.NoteOnEvent(tick=10, channel=3, data=[79, 0]),
   midi.NoteOnEvent(tick=0, channel=3, data=[76, 127]),
   midi.NoteOnEvent(tick=10, channel=3, data=[76, 0]),
   midi.NoteOnEvent(tick=0, channel=3, data=[76, 127]),
   midi.NoteOnEvent(tick=10, channel=3, data=[81, 127]),
   midi.NoteOnEvent(tick=15, channel=3, data=[76, 0]),
   midi.NoteOnEvent(tick=0, channel=3, data=[81, 0]),
   midi.NoteOnEvent(tick=0, channel=3, data=[76, 127]),
   midi.NoteOnEvent(tick=15, channel=3, data=[76, 0]),
   midi.NoteOnEvent(tick=0, channel=3, data=[76, 127]),
   midi.NoteOnEvent(tick=10, channel=3, data=[79, 127]),
   midi.NoteOnEvent(tick=10, channel=3, data=[79, 0]),
   midi.NoteOnEvent(tick=0, channel=3, data=[76, 127]),
   midi.NoteOnEvent(tick=10, channel=3, data=[76, 0]),
   midi.NoteOnEvent(tick=0, channel=3, data=[74, 127]),
   midi.NoteOnEvent(tick=15, channel=3, data=[76, 0]),
   midi.NoteOnEvent(tick=0, channel=3, data=[74, 0]),
   midi.NoteOnEvent(tick=0, channel=3, data=[76, 127]),
   midi.NoteOnEvent(tick=15, channel=3, data=[76, 0]),
   midi.NoteOnEvent(tick=0, channel=3, data=[79, 127]),
   midi.NoteOnEvent(tick=15, channel=3, data=[79, 0]),
   midi.NoteOnEvent(tick=0, channel=3, data=[76, 127]),
   midi.NoteOnEvent(tick=15, channel=3, data=[76, 0]),
   midi.NoteOnEvent(tick=0, channel=3, data=[81, 127]),
   midi.NoteOnEvent(tick=15, channel=3, data=[81, 0]),
   midi.NoteOnEvent(tick=0, channel=3, data=[76, 127]),
   midi.NoteOnEvent(tick=15, channel=3, data=[76, 0]),
   midi.NoteOnEvent(tick=0, channel=3, data=[76, 127]),
   midi.NoteOnEvent(tick=10, channel=3, data=[79, 127]),
   midi.NoteOnEvent(tick=10, channel=3, data=[79, 0]),
   midi.NoteOnEvent(tick=0, channel=3, data=[76, 127]),
   midi.NoteOnEvent(tick=10, channel=3, data=[76, 0]),
   midi.NoteOnEvent(tick=0, channel=3, data=[74, 127]),
   midi.NoteOnEvent(tick=15, channel=3, data=[76, 0]),
   midi.NoteOnEvent(tick=0, channel=3, data=[74, 0]),
   midi.NoteOnEvent(tick=0, channel=3, data=[76, 127]),
   midi.NoteOnEvent(tick=15, channel=3, data=[76, 0]),
   midi.NoteOnEvent(tick=0, channel=3, data=[79, 127]),
   midi.NoteOnEvent(tick=15, channel=3, data=[79, 0]),
   midi.NoteOnEvent(tick=0, channel=3, data=[76, 127]),
   midi.NoteOnEvent(tick=15, channel=3, data=[76, 0]),
   midi.NoteOnEvent(tick=0, channel=3, data=[79, 127]),
   midi.NoteOnEvent(tick=15, channel=3, data=[79, 0]),
   midi.NoteOnEvent(tick=0, channel=3, data=[76, 127]),
   midi.NoteOnEvent(tick=15, channel=3, data=[76, 0]),
   midi.NoteOnEvent(tick=0, channel=3, data=[74, 127]),
   midi.NoteOnEvent(tick=30, channel=3, data=[74, 0]),
   midi.NoteOnEvent(tick=0, channel=3, data=[71, 127]),
   midi.NoteOnEvent(tick=30, channel=3, data=[71, 0]),
   midi.NoteOnEvent(tick=0, channel=3, data=[69, 127]),
   midi.NoteOnEvent(tick=30, channel=3, data=[69, 0]),
   midi.NoteOnEvent(tick=0, channel=3, data=[67, 127]),
   midi.NoteOnEvent(tick=30, channel=3, data=[67, 0]),
   midi.NoteOnEvent(tick=0, channel=3, data=[64, 127]),
   midi.NoteOnEvent(tick=30, channel=3, data=[64, 0]),
   midi.NoteOnEvent(tick=0, channel=3, data=[62, 127]),
   midi.NoteOnEvent(tick=60, channel=3, data=[62, 0]),
   midi.NoteOnEvent(tick=0, channel=3, data=[59, 127]),
   midi.NoteOnEvent(tick=30, channel=3, data=[59, 0]),
   midi.NoteOnEvent(tick=0, channel=3, data=[62, 127]),
   midi.NoteOnEvent(tick=30, channel=3, data=[62, 0]),
   midi.NoteOnEvent(tick=0, channel=3, data=[64, 127]),
   midi.NoteOnEvent(tick=30, channel=3, data=[64, 0]),
   midi.NoteOnEvent(tick=0, channel=3, data=[62, 127]),
   midi.NoteOnEvent(tick=30, channel=3, data=[62, 0]),
   midi.PitchWheelEvent(tick=0, channel=3, data=[0, 64]),
   midi.NoteOnEvent(tick=0, channel=3, data=[64, 127]),
   midi.PitchWheelEvent(tick=1, channel=3, data=[34, 68]),
   midi.PitchWheelEvent(tick=1, channel=3, data=[68, 72]),
   midi.PitchWheelEvent(tick=1, channel=3, data=[102, 76]),
   midi.PitchWheelEvent(tick=1, channel=3, data=[8, 81]),
   midi.PitchWheelEvent(tick=1, channel=3, data=[42, 85]),
   midi.PitchWheelEvent(tick=1, channel=3, data=[76, 89]),
   midi.PitchWheelEvent(tick=1, channel=3, data=[110, 93]),
   midi.PitchWheelEvent(tick=1, channel=3, data=[17, 98]),
   midi.PitchWheelEvent(tick=1, channel=3, data=[51, 102]),
   midi.PitchWheelEvent(tick=1, channel=3, data=[85, 106]),
   midi.PitchWheelEvent(tick=1, channel=3, data=[119, 110]),
   midi.PitchWheelEvent(tick=1, channel=3, data=[25, 115]),
   midi.PitchWheelEvent(tick=1, channel=3, data=[59, 119]),
   midi.PitchWheelEvent(tick=1, channel=3, data=[93, 123]),
   midi.PitchWheelEvent(tick=1, channel=3, data=[127, 127]),
   midi.PitchWheelEvent(tick=0, channel=3, data=[127, 127]),
   midi.PitchWheelEvent(tick=1, channel=3, data=[93, 123]),
   midi.PitchWheelEvent(tick=1, channel=3, data=[59, 119]),
   midi.PitchWheelEvent(tick=1, channel=3, data=[25, 115]),
   midi.PitchWheelEvent(tick=1, channel=3, data=[119, 110]),
   midi.PitchWheelEvent(tick=1, channel=3, data=[85, 106]),
   midi.PitchWheelEvent(tick=1, channel=3, data=[51, 102]),
   midi.PitchWheelEvent(tick=1, channel=3, data=[17, 98]),
   midi.PitchWheelEvent(tick=1, channel=3, data=[110, 93]),
   midi.PitchWheelEvent(tick=1, channel=3, data=[76, 89]),
   midi.PitchWheelEvent(tick=1, channel=3, data=[42, 85]),
   midi.PitchWheelEvent(tick=1, channel=3, data=[8, 81]),
   midi.PitchWheelEvent(tick=1, channel=3, data=[102, 76]),
   midi.PitchWheelEvent(tick=1, channel=3, data=[68, 72]),
   midi.PitchWheelEvent(tick=1, channel=3, data=[34, 68]),
   midi.PitchWheelEvent(tick=1, channel=3, data=[0, 64]),
   midi.NoteOnEvent(tick=15, channel=3, data=[64, 0]),
   midi.NoteOnEvent(tick=0, channel=3, data=[62, 127]),
   midi.NoteOnEvent(tick=15, channel=3, data=[62, 0]),
   midi.NoteOnEvent(tick=0, channel=3, data=[59, 127]),
   midi.NoteOnEvent(tick=30, channel=3, data=[59, 0]),
   midi.NoteOnEvent(tick=0, channel=3, data=[62, 127]),
   midi.NoteOnEvent(tick=30, channel=3, data=[62, 0]),
   midi.NoteOnEvent(tick=0, channel=3, data=[64, 127]),
   midi.NoteOnEvent(tick=30, channel=3, data=[64, 0]),
   midi.NoteOnEvent(tick=0, channel=3, data=[62, 127]),
   midi.NoteOnEvent(tick=30, channel=3, data=[62, 0]),
   midi.NoteOnEvent(tick=0, channel=3, data=[69, 127]),
   midi.NoteOnEvent(tick=30, channel=3, data=[69, 0]),
   midi.NoteOnEvent(tick=0, channel=3, data=[67, 127]),
   midi.NoteOnEvent(tick=30, channel=3, data=[67, 0]),
   midi.NoteOnEvent(tick=0, channel=3, data=[66, 127]),
   midi.NoteOnEvent(tick=15, channel=3, data=[66, 0]),
   midi.NoteOnEvent(tick=0, channel=3, data=[67, 127]),
   midi.NoteOnEvent(tick=15, channel=3, data=[67, 0]),
   midi.NoteOnEvent(tick=0, channel=3, data=[66, 127]),
   midi.NoteOnEvent(tick=30, channel=3, data=[66, 0]),
   midi.NoteOnEvent(tick=0, channel=3, data=[62, 127]),
   midi.NoteOnEvent(tick=30, channel=3, data=[62, 0]),
   midi.NoteOnEvent(tick=0, channel=3, data=[59, 127]),
   midi.NoteOnEvent(tick=30, channel=3, data=[59, 0]),
   midi.ControlChangeEvent(tick=0, channel=3, data=[1, 0]),
   midi.NoteOnEvent(tick=0, channel=3, data=[57, 127]),
   midi.ControlChangeEvent(tick=1, channel=3, data=[1, 6]),
   midi.ControlChangeEvent(tick=1, channel=3, data=[1, 13]),
   midi.ControlChangeEvent(tick=1, channel=3, data=[1, 19]),
   midi.ControlChangeEvent(tick=1, channel=3, data=[1, 26]),
   midi.ControlChangeEvent(tick=1, channel=3, data=[1, 32]),
   midi.ControlChangeEvent(tick=1, channel=3, data=[1, 38]),
   midi.ControlChangeEvent(tick=1, channel=3, data=[1, 45]),
   midi.ControlChangeEvent(tick=1, channel=3, data=[1, 51]),
   midi.ControlChangeEvent(tick=1, channel=3, data=[1, 58]),
   midi.ControlChangeEvent(tick=1, channel=3, data=[1, 64]),
   midi.ControlChangeEvent(tick=229, channel=3, data=[1, 0]),
   midi.NoteOnEvent(tick=1, channel=3, data=[57, 0]),
   midi.NoteOnEvent(tick=44640, channel=3, data=[52, 127]),
   midi.NoteOnEvent(tick=80, channel=3, data=[52, 0]),
   midi.NoteOnEvent(tick=0, channel=3, data=[58, 127]),
   midi.NoteOnEvent(tick=80, channel=3, data=[58, 0]),
   midi.NoteOnEvent(tick=0, channel=3, data=[64, 127]),
   midi.NoteOnEvent(tick=80, channel=3, data=[64, 0]),
   midi.NoteOnEvent(tick=0, channel=3, data=[57, 127]),
   midi.NoteOnEvent(tick=80, channel=3, data=[57, 0]),
   midi.NoteOnEvent(tick=0, channel=3, data=[63, 127]),
   midi.NoteOnEvent(tick=80, channel=3, data=[63, 0]),
   midi.NoteOnEvent(tick=0, channel=3, data=[69, 127]),
   midi.NoteOnEvent(tick=80, channel=3, data=[69, 0]),
   midi.NoteOnEvent(tick=0, channel=3, data=[62, 127]),
   midi.NoteOnEvent(tick=80, channel=3, data=[62, 0]),
   midi.NoteOnEvent(tick=0, channel=3, data=[68, 127]),
   midi.NoteOnEvent(tick=80, channel=3, data=[68, 0]),
   midi.NoteOnEvent(tick=0, channel=3, data=[73, 127]),
   midi.NoteOnEvent(tick=80, channel=3, data=[73, 0]),
   midi.NoteOnEvent(tick=0, channel=3, data=[67, 127]),
   midi.NoteOnEvent(tick=60, channel=3, data=[67, 0]),
   midi.NoteOnEvent(tick=0, channel=3, data=[73, 127]),
   midi.NoteOnEvent(tick=60, channel=3, data=[73, 0]),
   midi.NoteOnEvent(tick=0, channel=3, data=[78, 127]),
   midi.NoteOnEvent(tick=60, channel=3, data=[78, 0]),
   midi.NoteOnEvent(tick=0, channel=3, data=[76, 127]),
   midi.NoteOnEvent(tick=60, channel=3, data=[76, 0]),
   midi.NoteOnEvent(tick=0, channel=3, data=[79, 127]),
   midi.NoteOnEvent(tick=40, channel=3, data=[79, 0]),
   midi.NoteOnEvent(tick=0, channel=3, data=[76, 127]),
   midi.NoteOnEvent(tick=40, channel=3, data=[76, 0]),
   midi.NoteOnEvent(tick=0, channel=3, data=[76, 127]),
   midi.NoteOnEvent(tick=40, channel=3, data=[76, 0]),
   midi.NoteOnEvent(tick=0, channel=3, data=[81, 127]),
   midi.NoteOnEvent(tick=40, channel=3, data=[81, 0]),
   midi.NoteOnEvent(tick=0, channel=3, data=[76, 127]),
   midi.NoteOnEvent(tick=40, channel=3, data=[76, 0]),
   midi.NoteOnEvent(tick=0, channel=3, data=[76, 127]),
   midi.NoteOnEvent(tick=40, channel=3, data=[76, 0]),
   midi.NoteOnEvent(tick=0, channel=3, data=[79, 127]),
   midi.NoteOnEvent(tick=40, channel=3, data=[79, 0]),
   midi.NoteOnEvent(tick=0, channel=3, data=[78, 127]),
   midi.NoteOnEvent(tick=40, channel=3, data=[78, 0]),
   midi.NoteOnEvent(tick=0, channel=3, data=[76, 127]),
   midi.NoteOnEvent(tick=40, channel=3, data=[76, 0]),
   midi.NoteOnEvent(tick=0, channel=3, data=[81, 127]),
   midi.NoteOnEvent(tick=40, channel=3, data=[81, 0]),
   midi.NoteOnEvent(tick=0, channel=3, data=[79, 127]),
   midi.NoteOnEvent(tick=40, channel=3, data=[79, 0]),
   midi.NoteOnEvent(tick=0, channel=3, data=[76, 127]),
   midi.NoteOnEvent(tick=40, channel=3, data=[76, 0]),
   midi.NoteOnEvent(tick=0, channel=3, data=[79, 127]),
   midi.NoteOnEvent(tick=40, channel=3, data=[79, 0]),
   midi.NoteOnEvent(tick=0, channel=3, data=[78, 127]),
   midi.NoteOnEvent(tick=40, channel=3, data=[78, 0]),
   midi.NoteOnEvent(tick=0, channel=3, data=[76, 127]),
   midi.NoteOnEvent(tick=40, channel=3, data=[76, 0]),
   midi.NoteOnEvent(tick=0, channel=3, data=[81, 127]),
   midi.NoteOnEvent(tick=40, channel=3, data=[81, 0]),
   midi.NoteOnEvent(tick=0, channel=3, data=[79, 127]),
   midi.NoteOnEvent(tick=40, channel=3, data=[79, 0]),
   midi.NoteOnEvent(tick=0, channel=3, data=[76, 127]),
   midi.NoteOnEvent(tick=40, channel=3, data=[76, 0]),
   midi.NoteOnEvent(tick=0, channel=3, data=[79, 127]),
   midi.NoteOnEvent(tick=40, channel=3, data=[79, 0]),
   midi.NoteOnEvent(tick=0, channel=3, data=[78, 127]),
   midi.NoteOnEvent(tick=40, channel=3, data=[78, 0]),
   midi.NoteOnEvent(tick=0, channel=3, data=[76, 127]),
   midi.NoteOnEvent(tick=40, channel=3, data=[76, 0]),
   midi.NoteOnEvent(tick=0, channel=3, data=[81, 127]),
   midi.NoteOnEvent(tick=40, channel=3, data=[81, 0]),
   midi.NoteOnEvent(tick=0, channel=3, data=[79, 127]),
   midi.NoteOnEvent(tick=40, channel=3, data=[79, 0]),
   midi.NoteOnEvent(tick=0, channel=3, data=[76, 127]),
   midi.NoteOnEvent(tick=40, channel=3, data=[76, 0]),
   midi.NoteOnEvent(tick=0, channel=3, data=[79, 127]),
   midi.NoteOnEvent(tick=40, channel=3, data=[79, 0]),
   midi.NoteOnEvent(tick=0, channel=3, data=[78, 127]),
   midi.NoteOnEvent(tick=40, channel=3, data=[78, 0]),
   midi.NoteOnEvent(tick=0, channel=3, data=[76, 127]),
   midi.NoteOnEvent(tick=40, channel=3, data=[76, 0]),
   midi.NoteOnEvent(tick=0, channel=3, data=[81, 127]),
   midi.NoteOnEvent(tick=40, channel=3, data=[81, 0]),
   midi.NoteOnEvent(tick=0, channel=3, data=[79, 127]),
   midi.NoteOnEvent(tick=40, channel=3, data=[79, 0]),
   midi.NoteOnEvent(tick=0, channel=3, data=[76, 127]),
   midi.NoteOnEvent(tick=40, channel=3, data=[76, 0]),
   midi.NoteOnEvent(tick=0, channel=3, data=[79, 127]),
   midi.NoteOnEvent(tick=40, channel=3, data=[79, 0]),
   midi.NoteOnEvent(tick=0, channel=3, data=[78, 127]),
   midi.NoteOnEvent(tick=40, channel=3, data=[78, 0]),
   midi.NoteOnEvent(tick=0, channel=3, data=[76, 127]),
   midi.NoteOnEvent(tick=40, channel=3, data=[76, 0]),
   midi.NoteOnEvent(tick=0, channel=3, data=[81, 127]),
   midi.NoteOnEvent(tick=40, channel=3, data=[81, 0]),
   midi.NoteOnEvent(tick=0, channel=3, data=[79, 127]),
   midi.NoteOnEvent(tick=40, channel=3, data=[79, 0]),
   midi.NoteOnEvent(tick=0, channel=3, data=[76, 127]),
   midi.NoteOnEvent(tick=40, channel=3, data=[76, 0]),
   midi.NoteOnEvent(tick=0, channel=3, data=[79, 127]),
   midi.NoteOnEvent(tick=40, channel=3, data=[79, 0]),
   midi.NoteOnEvent(tick=0, channel=3, data=[78, 127]),
   midi.NoteOnEvent(tick=40, channel=3, data=[78, 0]),
   midi.NoteOnEvent(tick=0, channel=3, data=[76, 127]),
   midi.NoteOnEvent(tick=40, channel=3, data=[76, 0]),
   midi.NoteOnEvent(tick=0, channel=3, data=[81, 127]),
   midi.NoteOnEvent(tick=40, channel=3, data=[81, 0]),
   midi.NoteOnEvent(tick=0, channel=3, data=[79, 127]),
   midi.NoteOnEvent(tick=40, channel=3, data=[79, 0]),
   midi.NoteOnEvent(tick=0, channel=3, data=[76, 127]),
   midi.NoteOnEvent(tick=40, channel=3, data=[76, 0]),
   midi.NoteOnEvent(tick=0, channel=3, data=[79, 127]),
   midi.NoteOnEvent(tick=40, channel=3, data=[79, 0]),
   midi.NoteOnEvent(tick=0, channel=3, data=[78, 127]),
   midi.NoteOnEvent(tick=40, channel=3, data=[78, 0]),
   midi.NoteOnEvent(tick=0, channel=3, data=[76, 127]),
   midi.NoteOnEvent(tick=40, channel=3, data=[76, 0]),
   midi.NoteOnEvent(tick=0, channel=3, data=[81, 127]),
   midi.NoteOnEvent(tick=40, channel=3, data=[81, 0]),
   midi.NoteOnEvent(tick=0, channel=3, data=[79, 127]),
   midi.NoteOnEvent(tick=40, channel=3, data=[79, 0]),
   midi.NoteOnEvent(tick=0, channel=3, data=[76, 127]),
   midi.NoteOnEvent(tick=40, channel=3, data=[76, 0]),
   midi.PitchWheelEvent(tick=0, channel=3, data=[0, 64]),
   midi.NoteOnEvent(tick=0, channel=3, data=[74, 127]),
   midi.PitchWheelEvent(tick=1, channel=3, data=[68, 64]),
   midi.PitchWheelEvent(tick=1, channel=3, data=[9, 65]),
   midi.PitchWheelEvent(tick=1, channel=3, data=[77, 65]),
   midi.PitchWheelEvent(tick=1, channel=3, data=[17, 66]),
   midi.PitchWheelEvent(tick=1, channel=3, data=[85, 66]),
   midi.PitchWheelEvent(tick=1, channel=3, data=[26, 67]),
   midi.PitchWheelEvent(tick=1, channel=3, data=[94, 67]),
   midi.PitchWheelEvent(tick=1, channel=3, data=[34, 68]),
   midi.PitchWheelEvent(tick=1, channel=3, data=[102, 68]),
   midi.PitchWheelEvent(tick=1, channel=3, data=[43, 69]),
   midi.PitchWheelEvent(tick=1, channel=3, data=[111, 69]),
   midi.PitchWheelEvent(tick=1, channel=3, data=[51, 70]),
   midi.PitchWheelEvent(tick=1, channel=3, data=[119, 70]),
   midi.PitchWheelEvent(tick=1, channel=3, data=[60, 71]),
   midi.PitchWheelEvent(tick=1, channel=3, data=[0, 72]),
   midi.PitchWheelEvent(tick=1, channel=3, data=[68, 72]),
   midi.PitchWheelEvent(tick=1, channel=3, data=[8, 73]),
   midi.PitchWheelEvent(tick=1, channel=3, data=[77, 73]),
   midi.PitchWheelEvent(tick=1, channel=3, data=[17, 74]),
   midi.PitchWheelEvent(tick=1, channel=3, data=[85, 74]),
   midi.PitchWheelEvent(tick=1, channel=3, data=[25, 75]),
   midi.PitchWheelEvent(tick=1, channel=3, data=[94, 75]),
   midi.PitchWheelEvent(tick=1, channel=3, data=[34, 76]),
   midi.PitchWheelEvent(tick=1, channel=3, data=[102, 76]),
   midi.PitchWheelEvent(tick=1, channel=3, data=[42, 77]),
   midi.PitchWheelEvent(tick=1, channel=3, data=[111, 77]),
   midi.PitchWheelEvent(tick=1, channel=3, data=[51, 78]),
   midi.PitchWheelEvent(tick=1, channel=3, data=[119, 78]),
   midi.PitchWheelEvent(tick=1, channel=3, data=[59, 79]),
   midi.PitchWheelEvent(tick=1, channel=3, data=[0, 80]),
   midi.PitchWheelEvent(tick=1, channel=3, data=[68, 80]),
   midi.PitchWheelEvent(tick=1, channel=3, data=[8, 81]),
   midi.PitchWheelEvent(tick=1, channel=3, data=[77, 81]),
   midi.PitchWheelEvent(tick=1, channel=3, data=[17, 82]),
   midi.PitchWheelEvent(tick=1, channel=3, data=[85, 82]),
   midi.PitchWheelEvent(tick=1, channel=3, data=[25, 83]),
   midi.PitchWheelEvent(tick=1, channel=3, data=[94, 83]),
   midi.PitchWheelEvent(tick=1, channel=3, data=[34, 84]),
   midi.PitchWheelEvent(tick=1, channel=3, data=[102, 84]),
   midi.PitchWheelEvent(tick=1, channel=3, data=[42, 85]),
   midi.PitchWheelEvent(tick=1, channel=3, data=[111, 85]),
   midi.PitchWheelEvent(tick=1, channel=3, data=[51, 86]),
   midi.PitchWheelEvent(tick=1, channel=3, data=[119, 86]),
   midi.PitchWheelEvent(tick=1, channel=3, data=[59, 87]),
   midi.PitchWheelEvent(tick=1, channel=3, data=[0, 88]),
   midi.PitchWheelEvent(tick=1, channel=3, data=[68, 88]),
   midi.PitchWheelEvent(tick=1, channel=3, data=[8, 89]),
   midi.PitchWheelEvent(tick=1, channel=3, data=[76, 89]),
   midi.PitchWheelEvent(tick=1, channel=3, data=[17, 90]),
   midi.PitchWheelEvent(tick=1, channel=3, data=[85, 90]),
   midi.PitchWheelEvent(tick=1, channel=3, data=[25, 91]),
   midi.PitchWheelEvent(tick=1, channel=3, data=[93, 91]),
   midi.PitchWheelEvent(tick=1, channel=3, data=[34, 92]),
   midi.PitchWheelEvent(tick=1, channel=3, data=[102, 92]),
   midi.PitchWheelEvent(tick=1, channel=3, data=[42, 93]),
   midi.PitchWheelEvent(tick=1, channel=3, data=[110, 93]),
   midi.PitchWheelEvent(tick=1, channel=3, data=[51, 94]),
   midi.PitchWheelEvent(tick=1, channel=3, data=[119, 94]),
   midi.PitchWheelEvent(tick=1, channel=3, data=[59, 95]),
   midi.PitchWheelEvent(tick=1, channel=3, data=[0, 96]),
   midi.PitchWheelEvent(tick=1, channel=3, data=[68, 96]),
   midi.PitchWheelEvent(tick=1, channel=3, data=[8, 97]),
   midi.PitchWheelEvent(tick=1, channel=3, data=[76, 97]),
   midi.PitchWheelEvent(tick=1, channel=3, data=[17, 98]),
   midi.PitchWheelEvent(tick=1, channel=3, data=[85, 98]),
   midi.PitchWheelEvent(tick=1, channel=3, data=[25, 99]),
   midi.PitchWheelEvent(tick=1, channel=3, data=[93, 99]),
   midi.PitchWheelEvent(tick=1, channel=3, data=[34, 100]),
   midi.PitchWheelEvent(tick=1, channel=3, data=[102, 100]),
   midi.PitchWheelEvent(tick=1, channel=3, data=[42, 101]),
   midi.PitchWheelEvent(tick=1, channel=3, data=[110, 101]),
   midi.PitchWheelEvent(tick=1, channel=3, data=[51, 102]),
   midi.PitchWheelEvent(tick=1, channel=3, data=[119, 102]),
   midi.PitchWheelEvent(tick=1, channel=3, data=[59, 103]),
   midi.PitchWheelEvent(tick=1, channel=3, data=[127, 103]),
   midi.PitchWheelEvent(tick=1, channel=3, data=[68, 104]),
   midi.PitchWheelEvent(tick=1, channel=3, data=[8, 105]),
   midi.PitchWheelEvent(tick=1, channel=3, data=[76, 105]),
   midi.PitchWheelEvent(tick=1, channel=3, data=[16, 106]),
   midi.PitchWheelEvent(tick=1, channel=3, data=[85, 106]),
   midi.PitchWheelEvent(tick=1, channel=3, data=[25, 107]),
   midi.PitchWheelEvent(tick=1, channel=3, data=[93, 107]),
   midi.PitchWheelEvent(tick=1, channel=3, data=[33, 108]),
   midi.PitchWheelEvent(tick=1, channel=3, data=[102, 108]),
   midi.PitchWheelEvent(tick=1, channel=3, data=[42, 109]),
   midi.PitchWheelEvent(tick=1, channel=3, data=[110, 109]),
   midi.PitchWheelEvent(tick=1, channel=3, data=[50, 110]),
   midi.PitchWheelEvent(tick=1, channel=3, data=[119, 110]),
   midi.PitchWheelEvent(tick=1, channel=3, data=[59, 111]),
   midi.PitchWheelEvent(tick=1, channel=3, data=[127, 111]),
   midi.PitchWheelEvent(tick=1, channel=3, data=[68, 112]),
   midi.PitchWheelEvent(tick=1, channel=3, data=[8, 113]),
   midi.PitchWheelEvent(tick=1, channel=3, data=[76, 113]),
   midi.PitchWheelEvent(tick=1, channel=3, data=[16, 114]),
   midi.PitchWheelEvent(tick=1, channel=3, data=[85, 114]),
   midi.PitchWheelEvent(tick=1, channel=3, data=[25, 115]),
   midi.PitchWheelEvent(tick=1, channel=3, data=[93, 115]),
   midi.PitchWheelEvent(tick=1, channel=3, data=[33, 116]),
   midi.PitchWheelEvent(tick=1, channel=3, data=[102, 116]),
   midi.PitchWheelEvent(tick=1, channel=3, data=[42, 117]),
   midi.PitchWheelEvent(tick=1, channel=3, data=[110, 117]),
   midi.PitchWheelEvent(tick=1, channel=3, data=[50, 118]),
   midi.PitchWheelEvent(tick=1, channel=3, data=[119, 118]),
   midi.PitchWheelEvent(tick=1, channel=3, data=[59, 119]),
   midi.PitchWheelEvent(tick=1, channel=3, data=[127, 119]),
   midi.PitchWheelEvent(tick=1, channel=3, data=[67, 120]),
   midi.PitchWheelEvent(tick=1, channel=3, data=[8, 121]),
   midi.PitchWheelEvent(tick=1, channel=3, data=[76, 121]),
   midi.PitchWheelEvent(tick=1, channel=3, data=[16, 122]),
   midi.PitchWheelEvent(tick=1, channel=3, data=[84, 122]),
   midi.PitchWheelEvent(tick=1, channel=3, data=[25, 123]),
   midi.PitchWheelEvent(tick=1, channel=3, data=[93, 123]),
   midi.PitchWheelEvent(tick=1, channel=3, data=[33, 124]),
   midi.PitchWheelEvent(tick=1, channel=3, data=[101, 124]),
   midi.PitchWheelEvent(tick=1, channel=3, data=[42, 125]),
   midi.PitchWheelEvent(tick=1, channel=3, data=[110, 125]),
   midi.PitchWheelEvent(tick=1, channel=3, data=[50, 126]),
   midi.PitchWheelEvent(tick=1, channel=3, data=[118, 126]),
   midi.PitchWheelEvent(tick=1, channel=3, data=[59, 127]),
   midi.PitchWheelEvent(tick=1, channel=3, data=[127, 127]),
   midi.NoteOnEvent(tick=120, channel=3, data=[74, 0]),
   midi.PitchWheelEvent(tick=0, channel=3, data=[0, 64]),
   midi.NoteOnEvent(tick=0, channel=3, data=[74, 127]),
   midi.PitchWheelEvent(tick=1, channel=3, data=[9, 65]),
   midi.PitchWheelEvent(tick=1, channel=3, data=[17, 66]),
   midi.PitchWheelEvent(tick=1, channel=3, data=[26, 67]),
   midi.PitchWheelEvent(tick=1, channel=3, data=[34, 68]),
   midi.PitchWheelEvent(tick=1, channel=3, data=[43, 69]),
   midi.PitchWheelEvent(tick=1, channel=3, data=[51, 70]),
   midi.PitchWheelEvent(tick=1, channel=3, data=[60, 71]),
   midi.PitchWheelEvent(tick=1, channel=3, data=[68, 72]),
   midi.PitchWheelEvent(tick=1, channel=3, data=[77, 73]),
   midi.PitchWheelEvent(tick=1, channel=3, data=[85, 74]),
   midi.PitchWheelEvent(tick=1, channel=3, data=[94, 75]),
   midi.PitchWheelEvent(tick=1, channel=3, data=[102, 76]),
   midi.PitchWheelEvent(tick=1, channel=3, data=[111, 77]),
   midi.PitchWheelEvent(tick=1, channel=3, data=[119, 78]),
   midi.PitchWheelEvent(tick=1, channel=3, data=[0, 80]),
   midi.PitchWheelEvent(tick=1, channel=3, data=[8, 81]),
   midi.PitchWheelEvent(tick=1, channel=3, data=[17, 82]),
   midi.PitchWheelEvent(tick=1, channel=3, data=[25, 83]),
   midi.PitchWheelEvent(tick=1, channel=3, data=[34, 84]),
   midi.PitchWheelEvent(tick=1, channel=3, data=[42, 85]),
   midi.PitchWheelEvent(tick=1, channel=3, data=[51, 86]),
   midi.PitchWheelEvent(tick=1, channel=3, data=[59, 87]),
   midi.PitchWheelEvent(tick=1, channel=3, data=[68, 88]),
   midi.PitchWheelEvent(tick=1, channel=3, data=[76, 89]),
   midi.PitchWheelEvent(tick=1, channel=3, data=[85, 90]),
   midi.PitchWheelEvent(tick=1, channel=3, data=[93, 91]),
   midi.PitchWheelEvent(tick=1, channel=3, data=[102, 92]),
   midi.PitchWheelEvent(tick=1, channel=3, data=[110, 93]),
   midi.PitchWheelEvent(tick=1, channel=3, data=[119, 94]),
   midi.PitchWheelEvent(tick=1, channel=3, data=[0, 96]),
   midi.PitchWheelEvent(tick=1, channel=3, data=[8, 97]),
   midi.PitchWheelEvent(tick=1, channel=3, data=[17, 98]),
   midi.PitchWheelEvent(tick=1, channel=3, data=[25, 99]),
   midi.PitchWheelEvent(tick=1, channel=3, data=[34, 100]),
   midi.PitchWheelEvent(tick=1, channel=3, data=[42, 101]),
   midi.PitchWheelEvent(tick=1, channel=3, data=[51, 102]),
   midi.PitchWheelEvent(tick=1, channel=3, data=[59, 103]),
   midi.PitchWheelEvent(tick=1, channel=3, data=[68, 104]),
   midi.PitchWheelEvent(tick=1, channel=3, data=[76, 105]),
   midi.PitchWheelEvent(tick=1, channel=3, data=[85, 106]),
   midi.PitchWheelEvent(tick=1, channel=3, data=[93, 107]),
   midi.PitchWheelEvent(tick=1, channel=3, data=[102, 108]),
   midi.PitchWheelEvent(tick=1, channel=3, data=[110, 109]),
   midi.PitchWheelEvent(tick=1, channel=3, data=[119, 110]),
   midi.PitchWheelEvent(tick=1, channel=3, data=[127, 111]),
   midi.PitchWheelEvent(tick=1, channel=3, data=[8, 113]),
   midi.PitchWheelEvent(tick=1, channel=3, data=[16, 114]),
   midi.PitchWheelEvent(tick=1, channel=3, data=[25, 115]),
   midi.PitchWheelEvent(tick=1, channel=3, data=[33, 116]),
   midi.PitchWheelEvent(tick=1, channel=3, data=[42, 117]),
   midi.PitchWheelEvent(tick=1, channel=3, data=[50, 118]),
   midi.PitchWheelEvent(tick=1, channel=3, data=[59, 119]),
   midi.PitchWheelEvent(tick=1, channel=3, data=[67, 120]),
   midi.PitchWheelEvent(tick=1, channel=3, data=[76, 121]),
   midi.PitchWheelEvent(tick=1, channel=3, data=[84, 122]),
   midi.PitchWheelEvent(tick=1, channel=3, data=[93, 123]),
   midi.PitchWheelEvent(tick=1, channel=3, data=[101, 124]),
   midi.PitchWheelEvent(tick=1, channel=3, data=[110, 125]),
   midi.PitchWheelEvent(tick=1, channel=3, data=[118, 126]),
   midi.PitchWheelEvent(tick=1, channel=3, data=[127, 127]),
   midi.NoteOnEvent(tick=180, channel=3, data=[74, 0]),
   midi.PitchWheelEvent(tick=0, channel=3, data=[0, 64]),
   midi.NoteOnEvent(tick=0, channel=3, data=[74, 127]),
   midi.PitchWheelEvent(tick=1, channel=3, data=[51, 70]),
   midi.PitchWheelEvent(tick=1, channel=3, data=[102, 76]),
   midi.PitchWheelEvent(tick=1, channel=3, data=[25, 83]),
   midi.PitchWheelEvent(tick=1, channel=3, data=[76, 89]),
   midi.PitchWheelEvent(tick=1, channel=3, data=[0, 96]),
   midi.PitchWheelEvent(tick=1, channel=3, data=[51, 102]),
   midi.PitchWheelEvent(tick=1, channel=3, data=[102, 108]),
   midi.PitchWheelEvent(tick=1, channel=3, data=[25, 115]),
   midi.PitchWheelEvent(tick=1, channel=3, data=[76, 121]),
   midi.PitchWheelEvent(tick=1, channel=3, data=[127, 127]),
   midi.NoteOnEvent(tick=70, channel=3, data=[74, 0]),
   midi.PitchWheelEvent(tick=0, channel=3, data=[0, 64]),
   midi.NoteOnEvent(tick=0, channel=3, data=[74, 127]),
   midi.PitchWheelEvent(tick=1, channel=3, data=[51, 70]),
   midi.PitchWheelEvent(tick=1, channel=3, data=[102, 76]),
   midi.PitchWheelEvent(tick=1, channel=3, data=[25, 83]),
   midi.PitchWheelEvent(tick=1, channel=3, data=[76, 89]),
   midi.PitchWheelEvent(tick=1, channel=3, data=[0, 96]),
   midi.PitchWheelEvent(tick=1, channel=3, data=[51, 102]),
   midi.PitchWheelEvent(tick=1, channel=3, data=[102, 108]),
   midi.PitchWheelEvent(tick=1, channel=3, data=[25, 115]),
   midi.PitchWheelEvent(tick=1, channel=3, data=[76, 121]),
   midi.PitchWheelEvent(tick=1, channel=3, data=[127, 127]),
   midi.NoteOnEvent(tick=70, channel=3, data=[74, 0]),
   midi.PitchWheelEvent(tick=0, channel=3, data=[0, 64]),
   midi.NoteOnEvent(tick=0, channel=3, data=[74, 127]),
   midi.PitchWheelEvent(tick=1, channel=3, data=[51, 70]),
   midi.PitchWheelEvent(tick=1, channel=3, data=[102, 76]),
   midi.PitchWheelEvent(tick=1, channel=3, data=[25, 83]),
   midi.PitchWheelEvent(tick=1, channel=3, data=[76, 89]),
   midi.PitchWheelEvent(tick=1, channel=3, data=[0, 96]),
   midi.PitchWheelEvent(tick=1, channel=3, data=[51, 102]),
   midi.PitchWheelEvent(tick=1, channel=3, data=[102, 108]),
   midi.PitchWheelEvent(tick=1, channel=3, data=[25, 115]),
   midi.PitchWheelEvent(tick=1, channel=3, data=[76, 121]),
   midi.PitchWheelEvent(tick=1, channel=3, data=[127, 127]),
   midi.NoteOnEvent(tick=70, channel=3, data=[74, 0]),
   midi.ControlChangeEvent(tick=0, channel=3, data=[1, 0]),
   midi.PitchWheelEvent(tick=0, channel=3, data=[0, 64]),
   midi.NoteOnEvent(tick=0, channel=3, data=[74, 127]),
   midi.ControlChangeEvent(tick=1, channel=3, data=[1, 6]),
   midi.PitchWheelEvent(tick=0, channel=3, data=[26, 67]),
   midi.ControlChangeEvent(tick=1, channel=3, data=[1, 13]),
   midi.PitchWheelEvent(tick=0, channel=3, data=[51, 70]),
   midi.ControlChangeEvent(tick=1, channel=3, data=[1, 19]),
   midi.PitchWheelEvent(tick=0, channel=3, data=[77, 73]),
   midi.ControlChangeEvent(tick=1, channel=3, data=[1, 26]),
   midi.PitchWheelEvent(tick=0, channel=3, data=[102, 76]),
   midi.ControlChangeEvent(tick=1, channel=3, data=[1, 32]),
   midi.PitchWheelEvent(tick=0, channel=3, data=[0, 80]),
   midi.ControlChangeEvent(tick=1, channel=3, data=[1, 38]),
   midi.PitchWheelEvent(tick=0, channel=3, data=[26, 83]),
   midi.ControlChangeEvent(tick=1, channel=3, data=[1, 45]),
   midi.PitchWheelEvent(tick=0, channel=3, data=[51, 86]),
   midi.ControlChangeEvent(tick=1, channel=3, data=[1, 51]),
   midi.PitchWheelEvent(tick=0, channel=3, data=[77, 89]),
   midi.ControlChangeEvent(tick=1, channel=3, data=[1, 58]),
   midi.PitchWheelEvent(tick=0, channel=3, data=[102, 92]),
   midi.ControlChangeEvent(tick=1, channel=3, data=[1, 64]),
   midi.PitchWheelEvent(tick=0, channel=3, data=[0, 96]),
   midi.PitchWheelEvent(tick=229, channel=3, data=[0, 64]),
   midi.ControlChangeEvent(tick=0, channel=3, data=[1, 0]),
   midi.NoteOnEvent(tick=1, channel=3, data=[74, 0]),
   midi.NoteOnEvent(tick=0, channel=3, data=[76, 127]),
   midi.NoteOnEvent(tick=40, channel=3, data=[76, 0]),
   midi.NoteOnEvent(tick=0, channel=3, data=[74, 127]),
   midi.NoteOnEvent(tick=40, channel=3, data=[74, 0]),
   midi.NoteOnEvent(tick=0, channel=3, data=[71, 127]),
   midi.NoteOnEvent(tick=40, channel=3, data=[71, 0]),
   midi.PitchWheelEvent(tick=0, channel=3, data=[0, 64]),
   midi.NoteOnEvent(tick=0, channel=3, data=[69, 127]),
   midi.NoteOnEvent(tick=0, channel=8, data=[71, 127]),
   midi.PitchWheelEvent(tick=1, channel=3, data=[51, 70]),
   midi.PitchWheelEvent(tick=1, channel=3, data=[102, 76]),
   midi.PitchWheelEvent(tick=1, channel=3, data=[25, 83]),
   midi.PitchWheelEvent(tick=1, channel=3, data=[76, 89]),
   midi.PitchWheelEvent(tick=1, channel=3, data=[0, 96]),
   midi.PitchWheelEvent(tick=1, channel=3, data=[51, 102]),
   midi.PitchWheelEvent(tick=1, channel=3, data=[102, 108]),
   midi.PitchWheelEvent(tick=1, channel=3, data=[25, 115]),
   midi.PitchWheelEvent(tick=1, channel=3, data=[76, 121]),
   midi.PitchWheelEvent(tick=1, channel=3, data=[127, 127]),
   midi.PitchWheelEvent(tick=109, channel=3, data=[0, 64]),
   midi.NoteOnEvent(tick=1, channel=3, data=[69, 0]),
   midi.NoteOnEvent(tick=0, channel=8, data=[71, 0]),
   midi.NoteOnEvent(tick=0, channel=3, data=[76, 127]),
   midi.NoteOnEvent(tick=40, channel=3, data=[76, 0]),
   midi.NoteOnEvent(tick=0, channel=3, data=[74, 127]),
   midi.NoteOnEvent(tick=40, channel=3, data=[74, 0]),
   midi.NoteOnEvent(tick=0, channel=3, data=[71, 127]),
   midi.NoteOnEvent(tick=40, channel=3, data=[71, 0]),
   midi.PitchWheelEvent(tick=0, channel=3, data=[0, 64]),
   midi.NoteOnEvent(tick=0, channel=3, data=[69, 127]),
   midi.NoteOnEvent(tick=0, channel=8, data=[71, 127]),
   midi.PitchWheelEvent(tick=1, channel=3, data=[51, 70]),
   midi.PitchWheelEvent(tick=1, channel=3, data=[102, 76]),
   midi.PitchWheelEvent(tick=1, channel=3, data=[25, 83]),
   midi.PitchWheelEvent(tick=1, channel=3, data=[76, 89]),
   midi.PitchWheelEvent(tick=1, channel=3, data=[0, 96]),
   midi.PitchWheelEvent(tick=1, channel=3, data=[51, 102]),
   midi.PitchWheelEvent(tick=1, channel=3, data=[102, 108]),
   midi.PitchWheelEvent(tick=1, channel=3, data=[25, 115]),
   midi.PitchWheelEvent(tick=1, channel=3, data=[76, 121]),
   midi.PitchWheelEvent(tick=1, channel=3, data=[127, 127]),
   midi.PitchWheelEvent(tick=109, channel=3, data=[0, 64]),
   midi.NoteOnEvent(tick=1, channel=3, data=[69, 0]),
   midi.NoteOnEvent(tick=0, channel=8, data=[71, 0]),
   midi.NoteOnEvent(tick=0, channel=3, data=[76, 127]),
   midi.NoteOnEvent(tick=40, channel=3, data=[76, 0]),
   midi.NoteOnEvent(tick=0, channel=3, data=[74, 127]),
   midi.NoteOnEvent(tick=40, channel=3, data=[74, 0]),
   midi.NoteOnEvent(tick=0, channel=3, data=[71, 127]),
   midi.NoteOnEvent(tick=40, channel=3, data=[71, 0]),
   midi.PitchWheelEvent(tick=0, channel=3, data=[0, 64]),
   midi.NoteOnEvent(tick=0, channel=3, data=[69, 127]),
   midi.NoteOnEvent(tick=0, channel=8, data=[71, 127]),
   midi.PitchWheelEvent(tick=1, channel=3, data=[51, 70]),
   midi.PitchWheelEvent(tick=1, channel=3, data=[102, 76]),
   midi.PitchWheelEvent(tick=1, channel=3, data=[25, 83]),
   midi.PitchWheelEvent(tick=1, channel=3, data=[76, 89]),
   midi.PitchWheelEvent(tick=1, channel=3, data=[0, 96]),
   midi.PitchWheelEvent(tick=1, channel=3, data=[51, 102]),
   midi.PitchWheelEvent(tick=1, channel=3, data=[102, 108]),
   midi.PitchWheelEvent(tick=1, channel=3, data=[25, 115]),
   midi.PitchWheelEvent(tick=1, channel=3, data=[76, 121]),
   midi.PitchWheelEvent(tick=1, channel=3, data=[127, 127]),
   midi.PitchWheelEvent(tick=109, channel=3, data=[0, 64]),
   midi.NoteOnEvent(tick=1, channel=3, data=[69, 0]),
   midi.NoteOnEvent(tick=0, channel=8, data=[71, 0]),
   midi.NoteOnEvent(tick=0, channel=3, data=[76, 127]),
   midi.NoteOnEvent(tick=40, channel=3, data=[76, 0]),
   midi.NoteOnEvent(tick=0, channel=3, data=[74, 127]),
   midi.NoteOnEvent(tick=40, channel=3, data=[74, 0]),
   midi.NoteOnEvent(tick=0, channel=3, data=[71, 127]),
   midi.NoteOnEvent(tick=40, channel=3, data=[71, 0]),
   midi.PitchWheelEvent(tick=0, channel=3, data=[0, 64]),
   midi.NoteOnEvent(tick=0, channel=3, data=[69, 127]),
   midi.NoteOnEvent(tick=0, channel=8, data=[71, 127]),
   midi.PitchWheelEvent(tick=1, channel=3, data=[51, 70]),
   midi.PitchWheelEvent(tick=1, channel=3, data=[102, 76]),
   midi.PitchWheelEvent(tick=1, channel=3, data=[25, 83]),
   midi.PitchWheelEvent(tick=1, channel=3, data=[76, 89]),
   midi.PitchWheelEvent(tick=1, channel=3, data=[0, 96]),
   midi.PitchWheelEvent(tick=1, channel=3, data=[51, 102]),
   midi.PitchWheelEvent(tick=1, channel=3, data=[102, 108]),
   midi.PitchWheelEvent(tick=1, channel=3, data=[25, 115]),
   midi.PitchWheelEvent(tick=1, channel=3, data=[76, 121]),
   midi.PitchWheelEvent(tick=1, channel=3, data=[127, 127]),
   midi.PitchWheelEvent(tick=109, channel=3, data=[0, 64]),
   midi.NoteOnEvent(tick=1, channel=3, data=[69, 0]),
   midi.NoteOnEvent(tick=0, channel=8, data=[71, 0]),
   midi.NoteOnEvent(tick=0, channel=3, data=[76, 127]),
   midi.NoteOnEvent(tick=40, channel=3, data=[76, 0]),
   midi.NoteOnEvent(tick=0, channel=3, data=[74, 127]),
   midi.NoteOnEvent(tick=40, channel=3, data=[74, 0]),
   midi.NoteOnEvent(tick=0, channel=3, data=[71, 127]),
   midi.NoteOnEvent(tick=40, channel=3, data=[71, 0]),
   midi.PitchWheelEvent(tick=0, channel=3, data=[0, 64]),
   midi.NoteOnEvent(tick=0, channel=3, data=[69, 127]),
   midi.NoteOnEvent(tick=0, channel=8, data=[71, 127]),
   midi.PitchWheelEvent(tick=1, channel=3, data=[51, 70]),
   midi.PitchWheelEvent(tick=1, channel=3, data=[102, 76]),
   midi.PitchWheelEvent(tick=1, channel=3, data=[25, 83]),
   midi.PitchWheelEvent(tick=1, channel=3, data=[76, 89]),
   midi.PitchWheelEvent(tick=1, channel=3, data=[0, 96]),
   midi.PitchWheelEvent(tick=1, channel=3, data=[51, 102]),
   midi.PitchWheelEvent(tick=1, channel=3, data=[102, 108]),
   midi.PitchWheelEvent(tick=1, channel=3, data=[25, 115]),
   midi.PitchWheelEvent(tick=1, channel=3, data=[76, 121]),
   midi.PitchWheelEvent(tick=1, channel=3, data=[127, 127]),
   midi.PitchWheelEvent(tick=109, channel=3, data=[0, 64]),
   midi.NoteOnEvent(tick=1, channel=3, data=[69, 0]),
   midi.NoteOnEvent(tick=0, channel=8, data=[71, 0]),
   midi.NoteOnEvent(tick=0, channel=3, data=[76, 127]),
   midi.NoteOnEvent(tick=40, channel=3, data=[76, 0]),
   midi.NoteOnEvent(tick=0, channel=3, data=[74, 127]),
   midi.NoteOnEvent(tick=40, channel=3, data=[74, 0]),
   midi.NoteOnEvent(tick=0, channel=3, data=[71, 127]),
   midi.NoteOnEvent(tick=40, channel=3, data=[71, 0]),
   midi.PitchWheelEvent(tick=0, channel=3, data=[0, 64]),
   midi.NoteOnEvent(tick=0, channel=3, data=[69, 127]),
   midi.NoteOnEvent(tick=0, channel=8, data=[71, 127]),
   midi.PitchWheelEvent(tick=1, channel=3, data=[51, 70]),
   midi.PitchWheelEvent(tick=1, channel=3, data=[102, 76]),
   midi.PitchWheelEvent(tick=1, channel=3, data=[25, 83]),
   midi.PitchWheelEvent(tick=1, channel=3, data=[76, 89]),
   midi.PitchWheelEvent(tick=1, channel=3, data=[0, 96]),
   midi.PitchWheelEvent(tick=1, channel=3, data=[51, 102]),
   midi.PitchWheelEvent(tick=1, channel=3, data=[102, 108]),
   midi.PitchWheelEvent(tick=1, channel=3, data=[25, 115]),
   midi.PitchWheelEvent(tick=1, channel=3, data=[76, 121]),
   midi.PitchWheelEvent(tick=1, channel=3, data=[127, 127]),
   midi.PitchWheelEvent(tick=109, channel=3, data=[0, 64]),
   midi.NoteOnEvent(tick=1, channel=3, data=[69, 0]),
   midi.NoteOnEvent(tick=0, channel=8, data=[71, 0]),
   midi.NoteOnEvent(tick=0, channel=3, data=[76, 127]),
   midi.NoteOnEvent(tick=40, channel=3, data=[76, 0]),
   midi.NoteOnEvent(tick=0, channel=3, data=[74, 127]),
   midi.NoteOnEvent(tick=40, channel=3, data=[74, 0]),
   midi.NoteOnEvent(tick=0, channel=3, data=[71, 127]),
   midi.NoteOnEvent(tick=40, channel=3, data=[71, 0]),
   midi.PitchWheelEvent(tick=0, channel=3, data=[0, 64]),
   midi.NoteOnEvent(tick=0, channel=3, data=[69, 127]),
   midi.NoteOnEvent(tick=0, channel=8, data=[71, 127]),
   midi.PitchWheelEvent(tick=1, channel=3, data=[51, 70]),
   midi.PitchWheelEvent(tick=1, channel=3, data=[102, 76]),
   midi.PitchWheelEvent(tick=1, channel=3, data=[25, 83]),
   midi.PitchWheelEvent(tick=1, channel=3, data=[76, 89]),
   midi.PitchWheelEvent(tick=1, channel=3, data=[0, 96]),
   midi.PitchWheelEvent(tick=1, channel=3, data=[51, 102]),
   midi.PitchWheelEvent(tick=1, channel=3, data=[102, 108]),
   midi.PitchWheelEvent(tick=1, channel=3, data=[25, 115]),
   midi.PitchWheelEvent(tick=1, channel=3, data=[76, 121]),
   midi.PitchWheelEvent(tick=1, channel=3, data=[127, 127]),
   midi.PitchWheelEvent(tick=109, channel=3, data=[0, 64]),
   midi.NoteOnEvent(tick=1, channel=3, data=[69, 0]),
   midi.NoteOnEvent(tick=0, channel=8, data=[71, 0]),
   midi.NoteOnEvent(tick=0, channel=3, data=[76, 127]),
   midi.NoteOnEvent(tick=40, channel=3, data=[76, 0]),
   midi.NoteOnEvent(tick=0, channel=3, data=[74, 127]),
   midi.NoteOnEvent(tick=40, channel=3, data=[74, 0]),
   midi.NoteOnEvent(tick=0, channel=3, data=[71, 127]),
   midi.NoteOnEvent(tick=40, channel=3, data=[71, 0]),
   midi.PitchWheelEvent(tick=0, channel=3, data=[0, 64]),
   midi.NoteOnEvent(tick=0, channel=3, data=[69, 127]),
   midi.NoteOnEvent(tick=0, channel=8, data=[71, 127]),
   midi.PitchWheelEvent(tick=1, channel=3, data=[51, 70]),
   midi.PitchWheelEvent(tick=1, channel=3, data=[102, 76]),
   midi.PitchWheelEvent(tick=1, channel=3, data=[25, 83]),
   midi.PitchWheelEvent(tick=1, channel=3, data=[76, 89]),
   midi.PitchWheelEvent(tick=1, channel=3, data=[0, 96]),
   midi.PitchWheelEvent(tick=1, channel=3, data=[51, 102]),
   midi.PitchWheelEvent(tick=1, channel=3, data=[102, 108]),
   midi.PitchWheelEvent(tick=1, channel=3, data=[25, 115]),
   midi.PitchWheelEvent(tick=1, channel=3, data=[76, 121]),
   midi.PitchWheelEvent(tick=1, channel=3, data=[127, 127]),
   midi.PitchWheelEvent(tick=49, channel=3, data=[0, 64]),
   midi.NoteOnEvent(tick=1, channel=3, data=[69, 0]),
   midi.NoteOnEvent(tick=0, channel=8, data=[71, 0]),
   midi.NoteOnEvent(tick=0, channel=3, data=[76, 127]),
   midi.NoteOnEvent(tick=60, channel=3, data=[76, 0]),
   midi.NoteOnEvent(tick=0, channel=3, data=[79, 127]),
   midi.NoteOnEvent(tick=40, channel=3, data=[79, 0]),
   midi.NoteOnEvent(tick=0, channel=3, data=[76, 127]),
   midi.NoteOnEvent(tick=40, channel=3, data=[76, 0]),
   midi.NoteOnEvent(tick=0, channel=3, data=[74, 127]),
   midi.NoteOnEvent(tick=40, channel=3, data=[74, 0]),
   midi.NoteOnEvent(tick=0, channel=3, data=[71, 127]),
   midi.NoteOnEvent(tick=40, channel=3, data=[71, 0]),
   midi.NoteOnEvent(tick=0, channel=3, data=[69, 127]),
   midi.NoteOnEvent(tick=40, channel=3, data=[69, 0]),
   midi.NoteOnEvent(tick=0, channel=3, data=[71, 127]),
   midi.NoteOnEvent(tick=40, channel=3, data=[71, 0]),
   midi.NoteOnEvent(tick=0, channel=3, data=[74, 127]),
   midi.NoteOnEvent(tick=40, channel=3, data=[74, 0]),
   midi.NoteOnEvent(tick=0, channel=3, data=[71, 127]),
   midi.NoteOnEvent(tick=40, channel=3, data=[71, 0]),
   midi.NoteOnEvent(tick=0, channel=3, data=[69, 127]),
   midi.NoteOnEvent(tick=40, channel=3, data=[69, 0]),
   midi.NoteOnEvent(tick=0, channel=3, data=[67, 127]),
   midi.NoteOnEvent(tick=40, channel=3, data=[67, 0]),
   midi.NoteOnEvent(tick=0, channel=3, data=[64, 127]),
   midi.NoteOnEvent(tick=40, channel=3, data=[64, 0]),
   midi.NoteOnEvent(tick=0, channel=3, data=[67, 127]),
   midi.NoteOnEvent(tick=40, channel=3, data=[67, 0]),
   midi.NoteOnEvent(tick=0, channel=3, data=[69, 127]),
   midi.NoteOnEvent(tick=40, channel=3, data=[69, 0]),
   midi.NoteOnEvent(tick=0, channel=3, data=[67, 127]),
   midi.NoteOnEvent(tick=40, channel=3, data=[67, 0]),
   midi.NoteOnEvent(tick=0, channel=3, data=[64, 127]),
   midi.NoteOnEvent(tick=40, channel=3, data=[64, 0]),
   midi.NoteOnEvent(tick=0, channel=3, data=[62, 127]),
   midi.NoteOnEvent(tick=40, channel=3, data=[62, 0]),
   midi.NoteOnEvent(tick=0, channel=3, data=[59, 127]),
   midi.NoteOnEvent(tick=40, channel=3, data=[59, 0]),
   midi.NoteOnEvent(tick=0, channel=3, data=[57, 127]),
   midi.NoteOnEvent(tick=40, channel=3, data=[57, 0]),
   midi.NoteOnEvent(tick=0, channel=3, data=[55, 127]),
   midi.NoteOnEvent(tick=120, channel=3, data=[55, 0]),
   midi.NoteOnEvent(tick=0, channel=3, data=[52, 127]),
   midi.NoteOnEvent(tick=120, channel=3, data=[52, 0]),
   midi.NoteOnEvent(tick=0, channel=3, data=[47, 127]),
   midi.NoteOnEvent(tick=60, channel=3, data=[47, 0]),
   midi.NoteOnEvent(tick=0, channel=3, data=[50, 127]),
   midi.NoteOnEvent(tick=60, channel=3, data=[50, 0]),
   midi.NoteOnEvent(tick=0, channel=3, data=[54, 127]),
   midi.NoteOnEvent(tick=60, channel=3, data=[54, 0]),
   midi.NoteOnEvent(tick=0, channel=3, data=[57, 127]),
   midi.NoteOnEvent(tick=60, channel=3, data=[57, 0]),
   midi.NoteOnEvent(tick=0, channel=3, data=[59, 127]),
   midi.NoteOnEvent(tick=30, channel=3, data=[59, 0]),
   midi.NoteOnEvent(tick=0, channel=3, data=[57, 127]),
   midi.NoteOnEvent(tick=30, channel=3, data=[57, 0]),
   midi.NoteOnEvent(tick=0, channel=3, data=[54, 127]),
   midi.NoteOnEvent(tick=30, channel=3, data=[54, 0]),
   midi.NoteOnEvent(tick=0, channel=3, data=[57, 127]),
   midi.NoteOnEvent(tick=30, channel=3, data=[57, 0]),
   midi.NoteOnEvent(tick=0, channel=3, data=[59, 127]),
   midi.NoteOnEvent(tick=30, channel=3, data=[59, 0]),
   midi.NoteOnEvent(tick=0, channel=3, data=[59, 127]),
   midi.NoteOnEvent(tick=30, channel=3, data=[59, 0]),
   midi.NoteOnEvent(tick=0, channel=3, data=[62, 127]),
   midi.NoteOnEvent(tick=60, channel=3, data=[62, 0]),
   midi.PitchWheelEvent(tick=0, channel=3, data=[0, 64]),
   midi.NoteOnEvent(tick=0, channel=3, data=[76, 127]),
   midi.PitchWheelEvent(tick=1, channel=3, data=[51, 70]),
   midi.PitchWheelEvent(tick=1, channel=3, data=[102, 76]),
   midi.PitchWheelEvent(tick=1, channel=3, data=[25, 83]),
   midi.PitchWheelEvent(tick=1, channel=3, data=[76, 89]),
   midi.PitchWheelEvent(tick=1, channel=3, data=[0, 96]),
   midi.PitchWheelEvent(tick=1, channel=3, data=[51, 102]),
   midi.PitchWheelEvent(tick=1, channel=3, data=[102, 108]),
   midi.PitchWheelEvent(tick=1, channel=3, data=[25, 115]),
   midi.PitchWheelEvent(tick=1, channel=3, data=[76, 121]),
   midi.PitchWheelEvent(tick=1, channel=3, data=[127, 127]),
   midi.NoteOnEvent(tick=50, channel=3, data=[76, 0]),
   midi.PitchWheelEvent(tick=60, channel=3, data=[0, 64]),
   midi.NoteOnEvent(tick=0, channel=3, data=[76, 127]),
   midi.PitchWheelEvent(tick=1, channel=3, data=[51, 70]),
   midi.PitchWheelEvent(tick=1, channel=3, data=[102, 76]),
   midi.PitchWheelEvent(tick=1, channel=3, data=[25, 83]),
   midi.PitchWheelEvent(tick=1, channel=3, data=[76, 89]),
   midi.PitchWheelEvent(tick=1, channel=3, data=[0, 96]),
   midi.PitchWheelEvent(tick=1, channel=3, data=[51, 102]),
   midi.PitchWheelEvent(tick=1, channel=3, data=[102, 108]),
   midi.PitchWheelEvent(tick=1, channel=3, data=[25, 115]),
   midi.PitchWheelEvent(tick=1, channel=3, data=[76, 121]),
   midi.PitchWheelEvent(tick=1, channel=3, data=[127, 127]),
   midi.NoteOnEvent(tick=110, channel=3, data=[76, 0]),
   midi.PitchWheelEvent(tick=0, channel=3, data=[0, 64]),
   midi.NoteOnEvent(tick=0, channel=3, data=[64, 127]),
   midi.PitchWheelEvent(tick=1, channel=3, data=[51, 70]),
   midi.PitchWheelEvent(tick=1, channel=3, data=[102, 76]),
   midi.PitchWheelEvent(tick=1, channel=3, data=[25, 83]),
   midi.PitchWheelEvent(tick=1, channel=3, data=[76, 89]),
   midi.PitchWheelEvent(tick=1, channel=3, data=[0, 96]),
   midi.PitchWheelEvent(tick=1, channel=3, data=[51, 102]),
   midi.PitchWheelEvent(tick=1, channel=3, data=[102, 108]),
   midi.PitchWheelEvent(tick=1, channel=3, data=[25, 115]),
   midi.PitchWheelEvent(tick=1, channel=3, data=[76, 121]),
   midi.PitchWheelEvent(tick=1, channel=3, data=[127, 127]),
   midi.NoteOnEvent(tick=110, channel=3, data=[64, 0]),
   midi.PitchWheelEvent(tick=0, channel=3, data=[0, 64]),
   midi.NoteOnEvent(tick=0, channel=3, data=[83, 127]),
   midi.NoteOnEvent(tick=40, channel=3, data=[83, 0]),
   midi.NoteOnEvent(tick=0, channel=3, data=[83, 127]),
   midi.NoteOnEvent(tick=40, channel=3, data=[83, 0]),
   midi.NoteOnEvent(tick=0, channel=3, data=[83, 127]),
   midi.NoteOnEvent(tick=40, channel=3, data=[83, 0]),
   midi.NoteOnEvent(tick=0, channel=3, data=[86, 127]),
   midi.NoteOnEvent(tick=30, channel=3, data=[86, 0]),
   midi.NoteOnEvent(tick=0, channel=3, data=[83, 127]),
   midi.NoteOnEvent(tick=30, channel=3, data=[83, 0]),
   midi.NoteOnEvent(tick=0, channel=3, data=[83, 127]),
   midi.NoteOnEvent(tick=30, channel=3, data=[83, 0]),
   midi.NoteOnEvent(tick=0, channel=3, data=[83, 127]),
   midi.NoteOnEvent(tick=30, channel=3, data=[83, 0]),
   midi.NoteOnEvent(tick=0, channel=3, data=[83, 127]),
   midi.NoteOnEvent(tick=30, channel=3, data=[83, 0]),
   midi.NoteOnEvent(tick=0, channel=3, data=[83, 127]),
   midi.NoteOnEvent(tick=30, channel=3, data=[83, 0]),
   midi.NoteOnEvent(tick=0, channel=3, data=[83, 127]),
   midi.NoteOnEvent(tick=30, channel=3, data=[83, 0]),
   midi.NoteOnEvent(tick=0, channel=3, data=[83, 127]),
   midi.NoteOnEvent(tick=30, channel=3, data=[83, 0]),
   midi.NoteOnEvent(tick=0, channel=3, data=[86, 127]),
   midi.NoteOnEvent(tick=30, channel=3, data=[86, 0]),
   midi.NoteOnEvent(tick=0, channel=3, data=[83, 127]),
   midi.NoteOnEvent(tick=30, channel=3, data=[83, 0]),
   midi.NoteOnEvent(tick=0, channel=3, data=[83, 127]),
   midi.NoteOnEvent(tick=20, channel=3, data=[83, 0]),
   midi.NoteOnEvent(tick=0, channel=3, data=[83, 127]),
   midi.NoteOnEvent(tick=20, channel=3, data=[83, 0]),
   midi.NoteOnEvent(tick=0, channel=3, data=[83, 127]),
   midi.NoteOnEvent(tick=20, channel=3, data=[83, 0]),
   midi.NoteOnEvent(tick=0, channel=3, data=[83, 127]),
   midi.NoteOnEvent(tick=30, channel=3, data=[83, 0]),
   midi.NoteOnEvent(tick=0, channel=3, data=[83, 127]),
   midi.NoteOnEvent(tick=30, channel=3, data=[83, 0]),
   midi.NoteOnEvent(tick=0, channel=3, data=[83, 127]),
   midi.NoteOnEvent(tick=30, channel=3, data=[83, 0]),
   midi.NoteOnEvent(tick=0, channel=3, data=[83, 127]),
   midi.NoteOnEvent(tick=30, channel=3, data=[83, 0]),
   midi.NoteOnEvent(tick=0, channel=3, data=[86, 127]),
   midi.NoteOnEvent(tick=30, channel=3, data=[86, 0]),
   midi.NoteOnEvent(tick=0, channel=3, data=[83, 127]),
   midi.NoteOnEvent(tick=30, channel=3, data=[83, 0]),
   midi.NoteOnEvent(tick=0, channel=3, data=[83, 127]),
   midi.NoteOnEvent(tick=30, channel=3, data=[83, 0]),
   midi.NoteOnEvent(tick=0, channel=3, data=[83, 127]),
   midi.NoteOnEvent(tick=30, channel=3, data=[83, 0]),
   midi.NoteOnEvent(tick=0, channel=3, data=[83, 127]),
   midi.NoteOnEvent(tick=30, channel=3, data=[83, 0]),
   midi.NoteOnEvent(tick=0, channel=3, data=[83, 127]),
   midi.NoteOnEvent(tick=30, channel=3, data=[83, 0]),
   midi.NoteOnEvent(tick=0, channel=3, data=[83, 127]),
   midi.NoteOnEvent(tick=30, channel=3, data=[83, 0]),
   midi.NoteOnEvent(tick=0, channel=3, data=[83, 127]),
   midi.NoteOnEvent(tick=30, channel=3, data=[83, 0]),
   midi.NoteOnEvent(tick=0, channel=3, data=[86, 127]),
   midi.NoteOnEvent(tick=30, channel=3, data=[86, 0]),
   midi.NoteOnEvent(tick=0, channel=3, data=[83, 127]),
   midi.NoteOnEvent(tick=30, channel=3, data=[83, 0]),
   midi.NoteOnEvent(tick=0, channel=3, data=[83, 127]),
   midi.NoteOnEvent(tick=30, channel=3, data=[83, 0]),
   midi.NoteOnEvent(tick=0, channel=3, data=[83, 127]),
   midi.NoteOnEvent(tick=30, channel=3, data=[83, 0]),
   midi.NoteOnEvent(tick=0, channel=3, data=[83, 127]),
   midi.NoteOnEvent(tick=30, channel=3, data=[83, 0]),
   midi.NoteOnEvent(tick=0, channel=3, data=[83, 127]),
   midi.NoteOnEvent(tick=30, channel=3, data=[83, 0]),
   midi.NoteOnEvent(tick=0, channel=3, data=[83, 127]),
   midi.NoteOnEvent(tick=30, channel=3, data=[83, 0]),
   midi.NoteOnEvent(tick=0, channel=3, data=[83, 127]),
   midi.NoteOnEvent(tick=30, channel=3, data=[83, 0]),
   midi.NoteOnEvent(tick=0, channel=3, data=[86, 127]),
   midi.NoteOnEvent(tick=30, channel=3, data=[86, 0]),
   midi.NoteOnEvent(tick=0, channel=3, data=[83, 127]),
   midi.NoteOnEvent(tick=30, channel=3, data=[83, 0]),
   midi.NoteOnEvent(tick=0, channel=3, data=[83, 127]),
   midi.NoteOnEvent(tick=30, channel=3, data=[83, 0]),
   midi.NoteOnEvent(tick=0, channel=3, data=[83, 127]),
   midi.NoteOnEvent(tick=30, channel=3, data=[83, 0]),
   midi.NoteOnEvent(tick=0, channel=3, data=[83, 127]),
   midi.NoteOnEvent(tick=30, channel=3, data=[83, 0]),
   midi.NoteOnEvent(tick=0, channel=3, data=[83, 127]),
   midi.NoteOnEvent(tick=30, channel=3, data=[83, 0]),
   midi.NoteOnEvent(tick=0, channel=3, data=[83, 127]),
   midi.NoteOnEvent(tick=30, channel=3, data=[83, 0]),
   midi.NoteOnEvent(tick=0, channel=3, data=[83, 127]),
   midi.NoteOnEvent(tick=30, channel=3, data=[83, 0]),
   midi.NoteOnEvent(tick=0, channel=3, data=[86, 127]),
   midi.NoteOnEvent(tick=30, channel=3, data=[86, 0]),
   midi.NoteOnEvent(tick=0, channel=3, data=[83, 127]),
   midi.NoteOnEvent(tick=30, channel=3, data=[83, 0]),
   midi.NoteOnEvent(tick=0, channel=3, data=[83, 127]),
   midi.NoteOnEvent(tick=30, channel=3, data=[83, 0]),
   midi.NoteOnEvent(tick=0, channel=3, data=[83, 127]),
   midi.NoteOnEvent(tick=30, channel=3, data=[83, 0]),
   midi.NoteOnEvent(tick=0, channel=3, data=[83, 127]),
   midi.NoteOnEvent(tick=30, channel=3, data=[83, 0]),
   midi.NoteOnEvent(tick=0, channel=3, data=[83, 127]),
   midi.NoteOnEvent(tick=30, channel=3, data=[83, 0]),
   midi.NoteOnEvent(tick=0, channel=3, data=[83, 127]),
   midi.NoteOnEvent(tick=30, channel=3, data=[83, 0]),
   midi.NoteOnEvent(tick=0, channel=3, data=[83, 127]),
   midi.NoteOnEvent(tick=30, channel=3, data=[83, 0]),
   midi.PitchWheelEvent(tick=0, channel=3, data=[0, 64]),
   midi.NoteOnEvent(tick=0, channel=3, data=[86, 127]),
   midi.PitchWheelEvent(tick=1, channel=3, data=[51, 70]),
   midi.PitchWheelEvent(tick=1, channel=3, data=[102, 76]),
   midi.PitchWheelEvent(tick=1, channel=3, data=[25, 83]),
   midi.PitchWheelEvent(tick=1, channel=3, data=[76, 89]),
   midi.PitchWheelEvent(tick=1, channel=3, data=[0, 96]),
   midi.PitchWheelEvent(tick=1, channel=3, data=[51, 102]),
   midi.PitchWheelEvent(tick=1, channel=3, data=[102, 108]),
   midi.PitchWheelEvent(tick=1, channel=3, data=[25, 115]),
   midi.PitchWheelEvent(tick=1, channel=3, data=[76, 121]),
   midi.PitchWheelEvent(tick=1, channel=3, data=[127, 127]),
   midi.NoteOnEvent(tick=230, channel=3, data=[86, 0]),
   midi.PitchWheelEvent(tick=0, channel=3, data=[0, 64]),
   midi.NoteOnEvent(tick=0, channel=3, data=[86, 127]),
   midi.PitchWheelEvent(tick=1, channel=3, data=[51, 70]),
   midi.PitchWheelEvent(tick=1, channel=3, data=[102, 76]),
   midi.PitchWheelEvent(tick=1, channel=3, data=[25, 83]),
   midi.PitchWheelEvent(tick=1, channel=3, data=[76, 89]),
   midi.PitchWheelEvent(tick=1, channel=3, data=[0, 96]),
   midi.PitchWheelEvent(tick=1, channel=3, data=[51, 102]),
   midi.PitchWheelEvent(tick=1, channel=3, data=[102, 108]),
   midi.PitchWheelEvent(tick=1, channel=3, data=[25, 115]),
   midi.PitchWheelEvent(tick=1, channel=3, data=[76, 121]),
   midi.PitchWheelEvent(tick=1, channel=3, data=[127, 127]),
   midi.PitchWheelEvent(tick=140, channel=3, data=[127, 127]),
   midi.PitchWheelEvent(tick=1, channel=3, data=[76, 121]),
   midi.PitchWheelEvent(tick=1, channel=3, data=[25, 115]),
   midi.PitchWheelEvent(tick=1, channel=3, data=[102, 108]),
   midi.PitchWheelEvent(tick=1, channel=3, data=[51, 102]),
   midi.PitchWheelEvent(tick=1, channel=3, data=[127, 95]),
   midi.PitchWheelEvent(tick=1, channel=3, data=[76, 89]),
   midi.PitchWheelEvent(tick=1, channel=3, data=[25, 83]),
   midi.PitchWheelEvent(tick=1, channel=3, data=[102, 76]),
   midi.PitchWheelEvent(tick=1, channel=3, data=[51, 70]),
   midi.PitchWheelEvent(tick=1, channel=3, data=[0, 64]),
   midi.NoteOnEvent(tick=40, channel=3, data=[86, 0]),
   midi.NoteOnEvent(tick=0, channel=3, data=[83, 127]),
   midi.NoteOnEvent(tick=40, channel=3, data=[83, 0]),
   midi.NoteOnEvent(tick=0, channel=3, data=[86, 127]),
   midi.NoteOnEvent(tick=40, channel=3, data=[86, 0]),
   midi.NoteOnEvent(tick=0, channel=3, data=[83, 127]),
   midi.NoteOnEvent(tick=40, channel=3, data=[83, 0]),
   midi.NoteOnEvent(tick=0, channel=3, data=[81, 127]),
   midi.NoteOnEvent(tick=40, channel=3, data=[81, 0]),
   midi.NoteOnEvent(tick=0, channel=3, data=[83, 127]),
   midi.NoteOnEvent(tick=40, channel=3, data=[83, 0]),
   midi.NoteOnEvent(tick=0, channel=3, data=[81, 127]),
   midi.NoteOnEvent(tick=40, channel=3, data=[81, 0]),
   midi.NoteOnEvent(tick=0, channel=3, data=[78, 127]),
   midi.NoteOnEvent(tick=40, channel=3, data=[78, 0]),
   midi.NoteOnEvent(tick=0, channel=3, data=[81, 127]),
   midi.NoteOnEvent(tick=40, channel=3, data=[81, 0]),
   midi.NoteOnEvent(tick=0, channel=3, data=[78, 127]),
   midi.NoteOnEvent(tick=40, channel=3, data=[78, 0]),
   midi.NoteOnEvent(tick=0, channel=3, data=[76, 127]),
   midi.NoteOnEvent(tick=40, channel=3, data=[76, 0]),
   midi.NoteOnEvent(tick=0, channel=3, data=[78, 127]),
   midi.NoteOnEvent(tick=40, channel=3, data=[78, 0]),
   midi.NoteOnEvent(tick=0, channel=3, data=[81, 127]),
   midi.NoteOnEvent(tick=40, channel=3, data=[81, 0]),
   midi.NoteOnEvent(tick=0, channel=3, data=[83, 127]),
   midi.NoteOnEvent(tick=40, channel=3, data=[83, 0]),
   midi.NoteOnEvent(tick=0, channel=3, data=[86, 127]),
   midi.NoteOnEvent(tick=40, channel=3, data=[86, 0]),
   midi.NoteOnEvent(tick=0, channel=3, data=[83, 127]),
   midi.NoteOnEvent(tick=40, channel=3, data=[83, 0]),
   midi.NoteOnEvent(tick=0, channel=3, data=[81, 127]),
   midi.NoteOnEvent(tick=40, channel=3, data=[81, 0]),
   midi.NoteOnEvent(tick=0, channel=3, data=[78, 127]),
   midi.NoteOnEvent(tick=40, channel=3, data=[78, 0]),
   midi.NoteOnEvent(tick=0, channel=3, data=[77, 127]),
   midi.NoteOnEvent(tick=40, channel=3, data=[77, 0]),
   midi.NoteOnEvent(tick=0, channel=3, data=[78, 127]),
   midi.NoteOnEvent(tick=40, channel=3, data=[78, 0]),
   midi.NoteOnEvent(tick=0, channel=3, data=[81, 127]),
   midi.NoteOnEvent(tick=40, channel=3, data=[81, 0]),
   midi.NoteOnEvent(tick=0, channel=3, data=[78, 127]),
   midi.NoteOnEvent(tick=40, channel=3, data=[78, 0]),
   midi.NoteOnEvent(tick=0, channel=3, data=[76, 127]),
   midi.NoteOnEvent(tick=40, channel=3, data=[76, 0]),
   midi.NoteOnEvent(tick=0, channel=3, data=[78, 127]),
   midi.NoteOnEvent(tick=40, channel=3, data=[78, 0]),
   midi.NoteOnEvent(tick=0, channel=3, data=[81, 127]),
   midi.NoteOnEvent(tick=40, channel=3, data=[81, 0]),
   midi.NoteOnEvent(tick=0, channel=3, data=[83, 127]),
   midi.NoteOnEvent(tick=40, channel=3, data=[83, 0]),
   midi.NoteOnEvent(tick=0, channel=3, data=[86, 127]),
   midi.NoteOnEvent(tick=40, channel=3, data=[86, 0]),
   midi.NoteOnEvent(tick=0, channel=3, data=[83, 127]),
   midi.NoteOnEvent(tick=40, channel=3, data=[83, 0]),
   midi.NoteOnEvent(tick=0, channel=3, data=[81, 127]),
   midi.NoteOnEvent(tick=40, channel=3, data=[81, 0]),
   midi.NoteOnEvent(tick=0, channel=3, data=[78, 127]),
   midi.NoteOnEvent(tick=40, channel=3, data=[78, 0]),
   midi.NoteOnEvent(tick=0, channel=3, data=[77, 127]),
   midi.NoteOnEvent(tick=40, channel=3, data=[77, 0]),
   midi.NoteOnEvent(tick=0, channel=3, data=[78, 127]),
   midi.NoteOnEvent(tick=40, channel=3, data=[78, 0]),
   midi.NoteOnEvent(tick=0, channel=3, data=[81, 127]),
   midi.NoteOnEvent(tick=40, channel=3, data=[81, 0]),
   midi.NoteOnEvent(tick=0, channel=3, data=[78, 127]),
   midi.NoteOnEvent(tick=40, channel=3, data=[78, 0]),
   midi.NoteOnEvent(tick=0, channel=3, data=[76, 127]),
   midi.NoteOnEvent(tick=40, channel=3, data=[76, 0]),
   midi.NoteOnEvent(tick=0, channel=3, data=[74, 127]),
   midi.NoteOnEvent(tick=40, channel=3, data=[74, 0]),
   midi.NoteOnEvent(tick=0, channel=3, data=[71, 127]),
   midi.NoteOnEvent(tick=40, channel=3, data=[71, 0]),
   midi.NoteOnEvent(tick=0, channel=3, data=[74, 127]),
   midi.NoteOnEvent(tick=40, channel=3, data=[74, 0]),
   midi.PitchWheelEvent(tick=0, channel=3, data=[0, 64]),
   midi.NoteOnEvent(tick=0, channel=3, data=[76, 127]),
   midi.PitchWheelEvent(tick=1, channel=3, data=[51, 70]),
   midi.PitchWheelEvent(tick=1, channel=3, data=[102, 76]),
   midi.PitchWheelEvent(tick=1, channel=3, data=[25, 83]),
   midi.PitchWheelEvent(tick=1, channel=3, data=[76, 89]),
   midi.PitchWheelEvent(tick=1, channel=3, data=[0, 96]),
   midi.PitchWheelEvent(tick=1, channel=3, data=[51, 102]),
   midi.PitchWheelEvent(tick=1, channel=3, data=[102, 108]),
   midi.PitchWheelEvent(tick=1, channel=3, data=[25, 115]),
   midi.PitchWheelEvent(tick=1, channel=3, data=[76, 121]),
   midi.PitchWheelEvent(tick=1, channel=3, data=[127, 127]),
   midi.NoteOnEvent(tick=110, channel=3, data=[76, 0]),
   midi.PitchWheelEvent(tick=0, channel=3, data=[0, 64]),
   midi.NoteOnEvent(tick=0, channel=3, data=[76, 127]),
   midi.PitchWheelEvent(tick=1, channel=3, data=[102, 68]),
   midi.PitchWheelEvent(tick=1, channel=3, data=[77, 73]),
   midi.PitchWheelEvent(tick=1, channel=3, data=[51, 78]),
   midi.PitchWheelEvent(tick=1, channel=3, data=[26, 83]),
   midi.PitchWheelEvent(tick=1, channel=3, data=[0, 88]),
   midi.PitchWheelEvent(tick=1, channel=3, data=[102, 92]),
   midi.PitchWheelEvent(tick=1, channel=3, data=[77, 97]),
   midi.PitchWheelEvent(tick=1, channel=3, data=[51, 102]),
   midi.PitchWheelEvent(tick=1, channel=3, data=[26, 107]),
   midi.PitchWheelEvent(tick=1, channel=3, data=[0, 112]),
   midi.NoteOnEvent(tick=110, channel=3, data=[76, 0]),
   midi.PitchWheelEvent(tick=0, channel=3, data=[0, 64]),
   midi.NoteOnEvent(tick=0, channel=3, data=[76, 127]),
   midi.PitchWheelEvent(tick=1, channel=3, data=[26, 67]),
   midi.PitchWheelEvent(tick=1, channel=3, data=[51, 70]),
   midi.PitchWheelEvent(tick=1, channel=3, data=[77, 73]),
   midi.PitchWheelEvent(tick=1, channel=3, data=[102, 76]),
   midi.PitchWheelEvent(tick=1, channel=3, data=[0, 80]),
   midi.PitchWheelEvent(tick=1, channel=3, data=[26, 83]),
   midi.PitchWheelEvent(tick=1, channel=3, data=[51, 86]),
   midi.PitchWheelEvent(tick=1, channel=3, data=[77, 89]),
   midi.PitchWheelEvent(tick=1, channel=3, data=[102, 92]),
   midi.PitchWheelEvent(tick=1, channel=3, data=[0, 96]),
   midi.NoteOnEvent(tick=110, channel=3, data=[76, 0]),
   midi.PitchWheelEvent(tick=0, channel=3, data=[0, 64]),
   midi.NoteOnEvent(tick=0, channel=3, data=[73, 127]),
   midi.NoteOnEvent(tick=60, channel=3, data=[73, 0]),
   midi.NoteOnEvent(tick=0, channel=3, data=[76, 127]),
   midi.NoteOnEvent(tick=60, channel=3, data=[76, 0]),
   midi.NoteOnEvent(tick=0, channel=3, data=[79, 127]),
   midi.NoteOnEvent(tick=40, channel=3, data=[79, 0]),
   midi.NoteOnEvent(tick=0, channel=3, data=[76, 127]),
   midi.NoteOnEvent(tick=40, channel=3, data=[76, 0]),
   midi.NoteOnEvent(tick=0, channel=3, data=[78, 127]),
   midi.NoteOnEvent(tick=40, channel=3, data=[78, 0]),
   midi.NoteOnEvent(tick=0, channel=3, data=[76, 127]),
   midi.NoteOnEvent(tick=40, channel=3, data=[76, 0]),
   midi.NoteOnEvent(tick=0, channel=3, data=[73, 127]),
   midi.NoteOnEvent(tick=40, channel=3, data=[73, 0]),
   midi.NoteOnEvent(tick=0, channel=3, data=[76, 127]),
   midi.NoteOnEvent(tick=40, channel=3, data=[76, 0]),
   midi.NoteOnEvent(tick=0, channel=3, data=[79, 127]),
   midi.NoteOnEvent(tick=40, channel=3, data=[79, 0]),
   midi.NoteOnEvent(tick=0, channel=3, data=[76, 127]),
   midi.NoteOnEvent(tick=40, channel=3, data=[76, 0]),
   midi.NoteOnEvent(tick=0, channel=3, data=[78, 127]),
   midi.NoteOnEvent(tick=40, channel=3, data=[78, 0]),
   midi.NoteOnEvent(tick=0, channel=3, data=[76, 127]),
   midi.NoteOnEvent(tick=40, channel=3, data=[76, 0]),
   midi.NoteOnEvent(tick=0, channel=3, data=[73, 127]),
   midi.NoteOnEvent(tick=40, channel=3, data=[73, 0]),
   midi.NoteOnEvent(tick=0, channel=3, data=[76, 127]),
   midi.NoteOnEvent(tick=40, channel=3, data=[76, 0]),
   midi.NoteOnEvent(tick=0, channel=3, data=[79, 127]),
   midi.NoteOnEvent(tick=40, channel=3, data=[79, 0]),
   midi.NoteOnEvent(tick=0, channel=3, data=[76, 127]),
   midi.NoteOnEvent(tick=40, channel=3, data=[76, 0]),
   midi.NoteOnEvent(tick=0, channel=3, data=[78, 127]),
   midi.NoteOnEvent(tick=40, channel=3, data=[78, 0]),
   midi.NoteOnEvent(tick=0, channel=3, data=[76, 127]),
   midi.NoteOnEvent(tick=40, channel=3, data=[76, 0]),
   midi.NoteOnEvent(tick=0, channel=3, data=[73, 127]),
   midi.NoteOnEvent(tick=40, channel=3, data=[73, 0]),
   midi.NoteOnEvent(tick=0, channel=3, data=[76, 127]),
   midi.NoteOnEvent(tick=40, channel=3, data=[76, 0]),
   midi.NoteOnEvent(tick=0, channel=3, data=[79, 127]),
   midi.NoteOnEvent(tick=40, channel=3, data=[79, 0]),
   midi.NoteOnEvent(tick=0, channel=3, data=[76, 127]),
   midi.NoteOnEvent(tick=40, channel=3, data=[76, 0]),
   midi.NoteOnEvent(tick=0, channel=3, data=[78, 127]),
   midi.NoteOnEvent(tick=40, channel=3, data=[78, 0]),
   midi.NoteOnEvent(tick=0, channel=3, data=[76, 127]),
   midi.NoteOnEvent(tick=60, channel=3, data=[76, 0]),
   midi.NoteOnEvent(tick=0, channel=3, data=[75, 127]),
   midi.NoteOnEvent(tick=60, channel=3, data=[75, 0]),
   midi.NoteOnEvent(tick=0, channel=3, data=[79, 127]),
   midi.NoteOnEvent(tick=30, channel=3, data=[79, 0]),
   midi.NoteOnEvent(tick=0, channel=3, data=[83, 127]),
   midi.NoteOnEvent(tick=30, channel=3, data=[83, 0]),
   midi.NoteOnEvent(tick=0, channel=3, data=[76, 127]),
   midi.NoteOnEvent(tick=30, channel=3, data=[76, 0]),
   midi.NoteOnEvent(tick=0, channel=3, data=[79, 127]),
   midi.NoteOnEvent(tick=30, channel=3, data=[79, 0]),
   midi.NoteOnEvent(tick=0, channel=3, data=[76, 127]),
   midi.NoteOnEvent(tick=30, channel=3, data=[76, 0]),
   midi.NoteOnEvent(tick=0, channel=3, data=[83, 127]),
   midi.NoteOnEvent(tick=30, channel=3, data=[83, 0]),
   midi.NoteOnEvent(tick=0, channel=3, data=[79, 127]),
   midi.NoteOnEvent(tick=30, channel=3, data=[79, 0]),
   midi.NoteOnEvent(tick=0, channel=3, data=[76, 127]),
   midi.NoteOnEvent(tick=30, channel=3, data=[76, 0]),
   midi.NoteOnEvent(tick=0, channel=3, data=[83, 127]),
   midi.NoteOnEvent(tick=40, channel=3, data=[83, 0]),
   midi.NoteOnEvent(tick=0, channel=3, data=[79, 127]),
   midi.NoteOnEvent(tick=40, channel=3, data=[79, 0]),
   midi.NoteOnEvent(tick=0, channel=3, data=[76, 127]),
   midi.NoteOnEvent(tick=40, channel=3, data=[76, 0]),
   midi.NoteOnEvent(tick=0, channel=3, data=[83, 127]),
   midi.NoteOnEvent(tick=40, channel=3, data=[83, 0]),
   midi.NoteOnEvent(tick=0, channel=3, data=[79, 127]),
   midi.NoteOnEvent(tick=40, channel=3, data=[79, 0]),
   midi.NoteOnEvent(tick=0, channel=3, data=[76, 127]),
   midi.NoteOnEvent(tick=40, channel=3, data=[76, 0]),
   midi.NoteOnEvent(tick=0, channel=3, data=[83, 127]),
   midi.NoteOnEvent(tick=40, channel=3, data=[83, 0]),
   midi.NoteOnEvent(tick=0, channel=3, data=[79, 127]),
   midi.NoteOnEvent(tick=40, channel=3, data=[79, 0]),
   midi.NoteOnEvent(tick=0, channel=3, data=[76, 127]),
   midi.NoteOnEvent(tick=40, channel=3, data=[76, 0]),
   midi.NoteOnEvent(tick=0, channel=3, data=[83, 127]),
   midi.NoteOnEvent(tick=40, channel=3, data=[83, 0]),
   midi.NoteOnEvent(tick=0, channel=3, data=[79, 127]),
   midi.NoteOnEvent(tick=40, channel=3, data=[79, 0]),
   midi.NoteOnEvent(tick=0, channel=3, data=[76, 127]),
   midi.NoteOnEvent(tick=40, channel=3, data=[76, 0]),
   midi.NoteOnEvent(tick=0, channel=3, data=[83, 127]),
   midi.NoteOnEvent(tick=40, channel=3, data=[83, 0]),
   midi.NoteOnEvent(tick=0, channel=3, data=[79, 127]),
   midi.NoteOnEvent(tick=40, channel=3, data=[79, 0]),
   midi.NoteOnEvent(tick=0, channel=3, data=[76, 127]),
   midi.NoteOnEvent(tick=40, channel=3, data=[76, 0]),
   midi.NoteOnEvent(tick=0, channel=3, data=[83, 127]),
   midi.NoteOnEvent(tick=40, channel=3, data=[83, 0]),
   midi.NoteOnEvent(tick=0, channel=3, data=[79, 127]),
   midi.NoteOnEvent(tick=40, channel=3, data=[79, 0]),
   midi.NoteOnEvent(tick=0, channel=3, data=[76, 127]),
   midi.NoteOnEvent(tick=40, channel=3, data=[76, 0]),
   midi.NoteOnEvent(tick=0, channel=3, data=[81, 127]),
   midi.NoteOnEvent(tick=40, channel=3, data=[81, 0]),
   midi.NoteOnEvent(tick=0, channel=3, data=[78, 127]),
   midi.NoteOnEvent(tick=40, channel=3, data=[78, 0]),
   midi.NoteOnEvent(tick=0, channel=3, data=[64, 127]),
   midi.NoteOnEvent(tick=40, channel=3, data=[64, 0]),
   midi.NoteOnEvent(tick=0, channel=3, data=[81, 127]),
   midi.NoteOnEvent(tick=40, channel=3, data=[81, 0]),
   midi.NoteOnEvent(tick=0, channel=3, data=[78, 127]),
   midi.NoteOnEvent(tick=40, channel=3, data=[78, 0]),
   midi.NoteOnEvent(tick=0, channel=3, data=[64, 127]),
   midi.NoteOnEvent(tick=40, channel=3, data=[64, 0]),
   midi.NoteOnEvent(tick=0, channel=3, data=[81, 127]),
   midi.NoteOnEvent(tick=40, channel=3, data=[81, 0]),
   midi.NoteOnEvent(tick=0, channel=3, data=[78, 127]),
   midi.NoteOnEvent(tick=40, channel=3, data=[78, 0]),
   midi.NoteOnEvent(tick=0, channel=3, data=[64, 127]),
   midi.NoteOnEvent(tick=40, channel=3, data=[64, 0]),
   midi.NoteOnEvent(tick=0, channel=3, data=[81, 127]),
   midi.NoteOnEvent(tick=40, channel=3, data=[81, 0]),
   midi.NoteOnEvent(tick=0, channel=3, data=[78, 127]),
   midi.NoteOnEvent(tick=40, channel=3, data=[78, 0]),
   midi.NoteOnEvent(tick=0, channel=3, data=[64, 127]),
   midi.NoteOnEvent(tick=40, channel=3, data=[64, 0]),
   midi.NoteOnEvent(tick=0, channel=3, data=[81, 127]),
   midi.NoteOnEvent(tick=40, channel=3, data=[81, 0]),
   midi.NoteOnEvent(tick=0, channel=3, data=[78, 127]),
   midi.NoteOnEvent(tick=40, channel=3, data=[78, 0]),
   midi.NoteOnEvent(tick=0, channel=3, data=[64, 127]),
   midi.NoteOnEvent(tick=40, channel=3, data=[64, 0]),
   midi.NoteOnEvent(tick=0, channel=3, data=[81, 127]),
   midi.NoteOnEvent(tick=40, channel=3, data=[81, 0]),
   midi.NoteOnEvent(tick=0, channel=3, data=[78, 127]),
   midi.NoteOnEvent(tick=40, channel=3, data=[78, 0]),
   midi.NoteOnEvent(tick=0, channel=3, data=[64, 127]),
   midi.NoteOnEvent(tick=40, channel=3, data=[64, 0]),
   midi.NoteOnEvent(tick=0, channel=3, data=[81, 127]),
   midi.NoteOnEvent(tick=40, channel=3, data=[81, 0]),
   midi.NoteOnEvent(tick=0, channel=3, data=[78, 127]),
   midi.NoteOnEvent(tick=40, channel=3, data=[78, 0]),
   midi.NoteOnEvent(tick=0, channel=3, data=[64, 127]),
   midi.NoteOnEvent(tick=40, channel=3, data=[64, 0]),
   midi.NoteOnEvent(tick=0, channel=3, data=[81, 127]),
   midi.NoteOnEvent(tick=40, channel=3, data=[81, 0]),
   midi.NoteOnEvent(tick=0, channel=3, data=[78, 127]),
   midi.NoteOnEvent(tick=40, channel=3, data=[78, 0]),
   midi.NoteOnEvent(tick=0, channel=3, data=[64, 127]),
   midi.NoteOnEvent(tick=40, channel=3, data=[64, 0]),
   midi.NoteOnEvent(tick=0, channel=3, data=[86, 127]),
   midi.NoteOnEvent(tick=40, channel=3, data=[86, 0]),
   midi.NoteOnEvent(tick=0, channel=3, data=[83, 127]),
   midi.NoteOnEvent(tick=40, channel=3, data=[83, 0]),
   midi.NoteOnEvent(tick=0, channel=3, data=[64, 127]),
   midi.NoteOnEvent(tick=40, channel=3, data=[64, 0]),
   midi.NoteOnEvent(tick=0, channel=3, data=[86, 127]),
   midi.NoteOnEvent(tick=40, channel=3, data=[86, 0]),
   midi.NoteOnEvent(tick=0, channel=3, data=[83, 127]),
   midi.NoteOnEvent(tick=40, channel=3, data=[83, 0]),
   midi.NoteOnEvent(tick=0, channel=3, data=[64, 127]),
   midi.NoteOnEvent(tick=40, channel=3, data=[64, 0]),
   midi.NoteOnEvent(tick=0, channel=3, data=[86, 127]),
   midi.NoteOnEvent(tick=40, channel=3, data=[86, 0]),
   midi.NoteOnEvent(tick=0, channel=3, data=[83, 127]),
   midi.NoteOnEvent(tick=40, channel=3, data=[83, 0]),
   midi.NoteOnEvent(tick=0, channel=3, data=[64, 127]),
   midi.NoteOnEvent(tick=40, channel=3, data=[64, 0]),
   midi.NoteOnEvent(tick=0, channel=3, data=[86, 127]),
   midi.NoteOnEvent(tick=40, channel=3, data=[86, 0]),
   midi.NoteOnEvent(tick=0, channel=3, data=[83, 127]),
   midi.NoteOnEvent(tick=40, channel=3, data=[83, 0]),
   midi.NoteOnEvent(tick=0, channel=3, data=[86, 127]),
   midi.NoteOnEvent(tick=40, channel=3, data=[86, 0]),
   midi.PitchWheelEvent(tick=0, channel=3, data=[0, 64]),
   midi.NoteOnEvent(tick=0, channel=3, data=[86, 127]),
   midi.PitchWheelEvent(tick=1, channel=3, data=[51, 70]),
   midi.PitchWheelEvent(tick=1, channel=3, data=[102, 76]),
   midi.PitchWheelEvent(tick=1, channel=3, data=[25, 83]),
   midi.PitchWheelEvent(tick=1, channel=3, data=[76, 89]),
   midi.PitchWheelEvent(tick=1, channel=3, data=[0, 96]),
   midi.PitchWheelEvent(tick=1, channel=3, data=[51, 102]),
   midi.PitchWheelEvent(tick=1, channel=3, data=[102, 108]),
   midi.PitchWheelEvent(tick=1, channel=3, data=[25, 115]),
   midi.PitchWheelEvent(tick=1, channel=3, data=[76, 121]),
   midi.PitchWheelEvent(tick=1, channel=3, data=[127, 127]),
   midi.NoteOnEvent(tick=230, channel=3, data=[86, 0]),
   midi.PitchWheelEvent(tick=0, channel=3, data=[0, 64]),
   midi.NoteOnEvent(tick=0, channel=3, data=[86, 127]),
   midi.PitchWheelEvent(tick=1, channel=3, data=[51, 70]),
   midi.PitchWheelEvent(tick=1, channel=3, data=[102, 76]),
   midi.PitchWheelEvent(tick=1, channel=3, data=[25, 83]),
   midi.PitchWheelEvent(tick=1, channel=3, data=[76, 89]),
   midi.PitchWheelEvent(tick=1, channel=3, data=[0, 96]),
   midi.PitchWheelEvent(tick=1, channel=3, data=[51, 102]),
   midi.PitchWheelEvent(tick=1, channel=3, data=[102, 108]),
   midi.PitchWheelEvent(tick=1, channel=3, data=[25, 115]),
   midi.PitchWheelEvent(tick=1, channel=3, data=[76, 121]),
   midi.PitchWheelEvent(tick=1, channel=3, data=[127, 127]),
   midi.NoteOnEvent(tick=230, channel=3, data=[86, 0]),
   midi.PitchWheelEvent(tick=0, channel=3, data=[0, 64]),
   midi.NoteOnEvent(tick=0, channel=3, data=[86, 127]),
   midi.PitchWheelEvent(tick=1, channel=3, data=[51, 70]),
   midi.PitchWheelEvent(tick=1, channel=3, data=[102, 76]),
   midi.PitchWheelEvent(tick=1, channel=3, data=[25, 83]),
   midi.PitchWheelEvent(tick=1, channel=3, data=[76, 89]),
   midi.PitchWheelEvent(tick=1, channel=3, data=[0, 96]),
   midi.PitchWheelEvent(tick=1, channel=3, data=[51, 102]),
   midi.PitchWheelEvent(tick=1, channel=3, data=[102, 108]),
   midi.PitchWheelEvent(tick=1, channel=3, data=[25, 115]),
   midi.PitchWheelEvent(tick=1, channel=3, data=[76, 121]),
   midi.PitchWheelEvent(tick=1, channel=3, data=[127, 127]),
   midi.PitchWheelEvent(tick=460, channel=3, data=[127, 127]),
   midi.PitchWheelEvent(tick=1, channel=3, data=[76, 121]),
   midi.PitchWheelEvent(tick=1, channel=3, data=[25, 115]),
   midi.PitchWheelEvent(tick=1, channel=3, data=[102, 108]),
   midi.PitchWheelEvent(tick=1, channel=3, data=[51, 102]),
   midi.PitchWheelEvent(tick=1, channel=3, data=[127, 95]),
   midi.PitchWheelEvent(tick=1, channel=3, data=[76, 89]),
   midi.PitchWheelEvent(tick=1, channel=3, data=[25, 83]),
   midi.PitchWheelEvent(tick=1, channel=3, data=[102, 76]),
   midi.PitchWheelEvent(tick=1, channel=3, data=[51, 70]),
   midi.PitchWheelEvent(tick=1, channel=3, data=[0, 64]),
   midi.NoteOnEvent(tick=120, channel=3, data=[86, 0]),
   midi.EndOfTrackEvent(tick=0, data=[])]),
 midi.Track(\
  [midi.PortEvent(tick=0, data=[0]),
   midi.TrackNameEvent(tick=0, text='Bass', data=[66, 97, 115, 115]),
   midi.ControlChangeEvent(tick=0, channel=4, data=[7, 99]),
   midi.ProgramChangeEvent(tick=0, channel=4, data=[33]),
   midi.NoteOnEvent(tick=0, channel=4, data=[36, 127]),
   midi.NoteOnEvent(tick=120, channel=4, data=[36, 0]),
   midi.NoteOnEvent(tick=0, channel=4, data=[31, 127]),
   midi.NoteOnEvent(tick=120, channel=4, data=[31, 0]),
   midi.NoteOnEvent(tick=0, channel=4, data=[38, 127]),
   midi.NoteOnEvent(tick=120, channel=4, data=[38, 0]),
   midi.NoteOnEvent(tick=0, channel=4, data=[36, 127]),
   midi.NoteOnEvent(tick=120, channel=4, data=[36, 0]),
   midi.NoteOnEvent(tick=0, channel=4, data=[40, 127]),
   midi.NoteOnEvent(tick=120, channel=4, data=[40, 0]),
   midi.NoteOnEvent(tick=1440, channel=4, data=[28, 127]),
   midi.NoteOnEvent(tick=120, channel=4, data=[28, 0]),
   midi.NoteOnEvent(tick=120, channel=4, data=[28, 127]),
   midi.NoteOnEvent(tick=120, channel=4, data=[28, 0]),
   midi.NoteOnEvent(tick=960, channel=4, data=[36, 127]),
   midi.NoteOnEvent(tick=120, channel=4, data=[36, 0]),
   midi.NoteOnEvent(tick=0, channel=4, data=[31, 127]),
   midi.NoteOnEvent(tick=120, channel=4, data=[31, 0]),
   midi.NoteOnEvent(tick=0, channel=4, data=[38, 127]),
   midi.NoteOnEvent(tick=120, channel=4, data=[38, 0]),
   midi.NoteOnEvent(tick=0, channel=4, data=[36, 127]),
   midi.NoteOnEvent(tick=120, channel=4, data=[36, 0]),
   midi.NoteOnEvent(tick=0, channel=4, data=[40, 127]),
   midi.NoteOnEvent(tick=120, channel=4, data=[40, 0]),
   midi.NoteOnEvent(tick=1440, channel=4, data=[28, 127]),
   midi.NoteOnEvent(tick=120, channel=4, data=[28, 0]),
   midi.NoteOnEvent(tick=120, channel=4, data=[28, 127]),
   midi.NoteOnEvent(tick=120, channel=4, data=[28, 0]),
   midi.NoteOnEvent(tick=960, channel=4, data=[36, 127]),
   midi.NoteOnEvent(tick=120, channel=4, data=[36, 0]),
   midi.NoteOnEvent(tick=0, channel=4, data=[31, 127]),
   midi.NoteOnEvent(tick=120, channel=4, data=[31, 0]),
   midi.NoteOnEvent(tick=0, channel=4, data=[38, 127]),
   midi.NoteOnEvent(tick=120, channel=4, data=[38, 0]),
   midi.NoteOnEvent(tick=0, channel=4, data=[36, 127]),
   midi.NoteOnEvent(tick=120, channel=4, data=[36, 0]),
   midi.NoteOnEvent(tick=0, channel=4, data=[28, 127]),
   midi.NoteOnEvent(tick=40, channel=4, data=[28, 0]),
   midi.NoteOnEvent(tick=0, channel=4, data=[28, 127]),
   midi.NoteOnEvent(tick=40, channel=4, data=[28, 0]),
   midi.NoteOnEvent(tick=0, channel=4, data=[28, 127]),
   midi.NoteOnEvent(tick=40, channel=4, data=[28, 0]),
   midi.NoteOnEvent(tick=0, channel=4, data=[40, 127]),
   midi.NoteOnEvent(tick=120, channel=4, data=[40, 0]),
   midi.NoteOnEvent(tick=0, channel=4, data=[28, 127]),
   midi.NoteOnEvent(tick=40, channel=4, data=[28, 0]),
   midi.NoteOnEvent(tick=0, channel=4, data=[28, 127]),
   midi.NoteOnEvent(tick=40, channel=4, data=[28, 0]),
   midi.NoteOnEvent(tick=0, channel=4, data=[28, 127]),
   midi.NoteOnEvent(tick=40, channel=4, data=[28, 0]),
   midi.NoteOnEvent(tick=0, channel=4, data=[40, 127]),
   midi.NoteOnEvent(tick=120, channel=4, data=[40, 0]),
   midi.NoteOnEvent(tick=0, channel=4, data=[28, 127]),
   midi.NoteOnEvent(tick=40, channel=4, data=[28, 0]),
   midi.NoteOnEvent(tick=0, channel=4, data=[28, 127]),
   midi.NoteOnEvent(tick=40, channel=4, data=[28, 0]),
   midi.NoteOnEvent(tick=0, channel=4, data=[28, 127]),
   midi.NoteOnEvent(tick=40, channel=4, data=[28, 0]),
   midi.NoteOnEvent(tick=0, channel=4, data=[40, 127]),
   midi.NoteOnEvent(tick=120, channel=4, data=[40, 0]),
   midi.NoteOnEvent(tick=0, channel=4, data=[38, 127]),
   midi.NoteOnEvent(tick=120, channel=4, data=[38, 0]),
   midi.NoteOnEvent(tick=0, channel=4, data=[38, 127]),
   midi.NoteOnEvent(tick=120, channel=4, data=[38, 0]),
   midi.NoteOnEvent(tick=0, channel=4, data=[28, 127]),
   midi.NoteOnEvent(tick=40, channel=4, data=[28, 0]),
   midi.NoteOnEvent(tick=0, channel=4, data=[28, 127]),
   midi.NoteOnEvent(tick=40, channel=4, data=[28, 0]),
   midi.NoteOnEvent(tick=0, channel=4, data=[28, 127]),
   midi.NoteOnEvent(tick=40, channel=4, data=[28, 0]),
   midi.NoteOnEvent(tick=0, channel=4, data=[40, 127]),
   midi.NoteOnEvent(tick=120, channel=4, data=[40, 0]),
   midi.NoteOnEvent(tick=0, channel=4, data=[28, 127]),
   midi.NoteOnEvent(tick=40, channel=4, data=[28, 0]),
   midi.NoteOnEvent(tick=0, channel=4, data=[28, 127]),
   midi.NoteOnEvent(tick=40, channel=4, data=[28, 0]),
   midi.NoteOnEvent(tick=0, channel=4, data=[28, 127]),
   midi.NoteOnEvent(tick=40, channel=4, data=[28, 0]),
   midi.NoteOnEvent(tick=0, channel=4, data=[40, 127]),
   midi.NoteOnEvent(tick=120, channel=4, data=[40, 0]),
   midi.NoteOnEvent(tick=0, channel=4, data=[28, 127]),
   midi.NoteOnEvent(tick=40, channel=4, data=[28, 0]),
   midi.NoteOnEvent(tick=0, channel=4, data=[28, 127]),
   midi.NoteOnEvent(tick=40, channel=4, data=[28, 0]),
   midi.NoteOnEvent(tick=0, channel=4, data=[28, 127]),
   midi.NoteOnEvent(tick=40, channel=4, data=[28, 0]),
   midi.NoteOnEvent(tick=0, channel=4, data=[40, 127]),
   midi.NoteOnEvent(tick=120, channel=4, data=[40, 0]),
   midi.NoteOnEvent(tick=0, channel=4, data=[36, 127]),
   midi.NoteOnEvent(tick=120, channel=4, data=[36, 0]),
   midi.NoteOnEvent(tick=0, channel=4, data=[38, 127]),
   midi.NoteOnEvent(tick=120, channel=4, data=[38, 0]),
   midi.NoteOnEvent(tick=0, channel=4, data=[28, 127]),
   midi.NoteOnEvent(tick=40, channel=4, data=[28, 0]),
   midi.NoteOnEvent(tick=0, channel=4, data=[28, 127]),
   midi.NoteOnEvent(tick=40, channel=4, data=[28, 0]),
   midi.NoteOnEvent(tick=0, channel=4, data=[28, 127]),
   midi.NoteOnEvent(tick=40, channel=4, data=[28, 0]),
   midi.NoteOnEvent(tick=0, channel=4, data=[40, 127]),
   midi.NoteOnEvent(tick=120, channel=4, data=[40, 0]),
   midi.NoteOnEvent(tick=0, channel=4, data=[28, 127]),
   midi.NoteOnEvent(tick=40, channel=4, data=[28, 0]),
   midi.NoteOnEvent(tick=0, channel=4, data=[28, 127]),
   midi.NoteOnEvent(tick=40, channel=4, data=[28, 0]),
   midi.NoteOnEvent(tick=0, channel=4, data=[28, 127]),
   midi.NoteOnEvent(tick=40, channel=4, data=[28, 0]),
   midi.NoteOnEvent(tick=0, channel=4, data=[40, 127]),
   midi.NoteOnEvent(tick=120, channel=4, data=[40, 0]),
   midi.NoteOnEvent(tick=0, channel=4, data=[28, 127]),
   midi.NoteOnEvent(tick=40, channel=4, data=[28, 0]),
   midi.NoteOnEvent(tick=0, channel=4, data=[28, 127]),
   midi.NoteOnEvent(tick=40, channel=4, data=[28, 0]),
   midi.NoteOnEvent(tick=0, channel=4, data=[28, 127]),
   midi.NoteOnEvent(tick=40, channel=4, data=[28, 0]),
   midi.NoteOnEvent(tick=0, channel=4, data=[40, 127]),
   midi.NoteOnEvent(tick=120, channel=4, data=[40, 0]),
   midi.NoteOnEvent(tick=0, channel=4, data=[43, 127]),
   midi.NoteOnEvent(tick=120, channel=4, data=[43, 0]),
   midi.NoteOnEvent(tick=0, channel=4, data=[40, 127]),
   midi.NoteOnEvent(tick=120, channel=4, data=[40, 0]),
   midi.NoteOnEvent(tick=0, channel=4, data=[36, 127]),
   midi.NoteOnEvent(tick=120, channel=4, data=[36, 0]),
   midi.NoteOnEvent(tick=0, channel=4, data=[31, 127]),
   midi.NoteOnEvent(tick=120, channel=4, data=[31, 0]),
   midi.NoteOnEvent(tick=0, channel=4, data=[38, 127]),
   midi.NoteOnEvent(tick=120, channel=4, data=[38, 0]),
   midi.NoteOnEvent(tick=0, channel=4, data=[36, 127]),
   midi.NoteOnEvent(tick=120, channel=4, data=[36, 0]),
   midi.NoteOnEvent(tick=0, channel=4, data=[28, 127]),
   midi.NoteOnEvent(tick=40, channel=4, data=[28, 0]),
   midi.NoteOnEvent(tick=0, channel=4, data=[28, 127]),
   midi.NoteOnEvent(tick=40, channel=4, data=[28, 0]),
   midi.NoteOnEvent(tick=0, channel=4, data=[28, 127]),
   midi.NoteOnEvent(tick=40, channel=4, data=[28, 0]),
   midi.NoteOnEvent(tick=0, channel=4, data=[40, 127]),
   midi.NoteOnEvent(tick=120, channel=4, data=[40, 0]),
   midi.NoteOnEvent(tick=0, channel=4, data=[28, 127]),
   midi.NoteOnEvent(tick=40, channel=4, data=[28, 0]),
   midi.NoteOnEvent(tick=0, channel=4, data=[28, 127]),
   midi.NoteOnEvent(tick=40, channel=4, data=[28, 0]),
   midi.NoteOnEvent(tick=0, channel=4, data=[28, 127]),
   midi.NoteOnEvent(tick=40, channel=4, data=[28, 0]),
   midi.NoteOnEvent(tick=0, channel=4, data=[40, 127]),
   midi.NoteOnEvent(tick=120, channel=4, data=[40, 0]),
   midi.NoteOnEvent(tick=0, channel=4, data=[28, 127]),
   midi.NoteOnEvent(tick=40, channel=4, data=[28, 0]),
   midi.NoteOnEvent(tick=0, channel=4, data=[28, 127]),
   midi.NoteOnEvent(tick=40, channel=4, data=[28, 0]),
   midi.NoteOnEvent(tick=0, channel=4, data=[28, 127]),
   midi.NoteOnEvent(tick=40, channel=4, data=[28, 0]),
   midi.NoteOnEvent(tick=0, channel=4, data=[40, 127]),
   midi.NoteOnEvent(tick=120, channel=4, data=[40, 0]),
   midi.NoteOnEvent(tick=0, channel=4, data=[38, 127]),
   midi.NoteOnEvent(tick=120, channel=4, data=[38, 0]),
   midi.NoteOnEvent(tick=0, channel=4, data=[38, 127]),
   midi.NoteOnEvent(tick=120, channel=4, data=[38, 0]),
   midi.NoteOnEvent(tick=0, channel=4, data=[28, 127]),
   midi.NoteOnEvent(tick=40, channel=4, data=[28, 0]),
   midi.NoteOnEvent(tick=0, channel=4, data=[28, 127]),
   midi.NoteOnEvent(tick=40, channel=4, data=[28, 0]),
   midi.NoteOnEvent(tick=0, channel=4, data=[28, 127]),
   midi.NoteOnEvent(tick=40, channel=4, data=[28, 0]),
   midi.NoteOnEvent(tick=0, channel=4, data=[40, 127]),
   midi.NoteOnEvent(tick=120, channel=4, data=[40, 0]),
   midi.NoteOnEvent(tick=0, channel=4, data=[28, 127]),
   midi.NoteOnEvent(tick=40, channel=4, data=[28, 0]),
   midi.NoteOnEvent(tick=0, channel=4, data=[28, 127]),
   midi.NoteOnEvent(tick=40, channel=4, data=[28, 0]),
   midi.NoteOnEvent(tick=0, channel=4, data=[28, 127]),
   midi.NoteOnEvent(tick=40, channel=4, data=[28, 0]),
   midi.NoteOnEvent(tick=0, channel=4, data=[40, 127]),
   midi.NoteOnEvent(tick=120, channel=4, data=[40, 0]),
   midi.NoteOnEvent(tick=0, channel=4, data=[28, 127]),
   midi.NoteOnEvent(tick=40, channel=4, data=[28, 0]),
   midi.NoteOnEvent(tick=0, channel=4, data=[28, 127]),
   midi.NoteOnEvent(tick=40, channel=4, data=[28, 0]),
   midi.NoteOnEvent(tick=0, channel=4, data=[28, 127]),
   midi.NoteOnEvent(tick=40, channel=4, data=[28, 0]),
   midi.NoteOnEvent(tick=0, channel=4, data=[40, 127]),
   midi.NoteOnEvent(tick=120, channel=4, data=[40, 0]),
   midi.NoteOnEvent(tick=0, channel=4, data=[36, 127]),
   midi.NoteOnEvent(tick=120, channel=4, data=[36, 0]),
   midi.NoteOnEvent(tick=0, channel=4, data=[38, 127]),
   midi.NoteOnEvent(tick=120, channel=4, data=[38, 0]),
   midi.NoteOnEvent(tick=0, channel=4, data=[28, 127]),
   midi.NoteOnEvent(tick=40, channel=4, data=[28, 0]),
   midi.NoteOnEvent(tick=0, channel=4, data=[28, 127]),
   midi.NoteOnEvent(tick=40, channel=4, data=[28, 0]),
   midi.NoteOnEvent(tick=0, channel=4, data=[28, 127]),
   midi.NoteOnEvent(tick=40, channel=4, data=[28, 0]),
   midi.NoteOnEvent(tick=0, channel=4, data=[40, 127]),
   midi.NoteOnEvent(tick=120, channel=4, data=[40, 0]),
   midi.NoteOnEvent(tick=0, channel=4, data=[28, 127]),
   midi.NoteOnEvent(tick=40, channel=4, data=[28, 0]),
   midi.NoteOnEvent(tick=0, channel=4, data=[28, 127]),
   midi.NoteOnEvent(tick=40, channel=4, data=[28, 0]),
   midi.NoteOnEvent(tick=0, channel=4, data=[28, 127]),
   midi.NoteOnEvent(tick=40, channel=4, data=[28, 0]),
   midi.NoteOnEvent(tick=0, channel=4, data=[40, 127]),
   midi.NoteOnEvent(tick=120, channel=4, data=[40, 0]),
   midi.NoteOnEvent(tick=0, channel=4, data=[28, 127]),
   midi.NoteOnEvent(tick=40, channel=4, data=[28, 0]),
   midi.NoteOnEvent(tick=0, channel=4, data=[28, 127]),
   midi.NoteOnEvent(tick=40, channel=4, data=[28, 0]),
   midi.NoteOnEvent(tick=0, channel=4, data=[28, 127]),
   midi.NoteOnEvent(tick=40, channel=4, data=[28, 0]),
   midi.NoteOnEvent(tick=0, channel=4, data=[40, 127]),
   midi.NoteOnEvent(tick=120, channel=4, data=[40, 0]),
   midi.NoteOnEvent(tick=0, channel=4, data=[43, 127]),
   midi.NoteOnEvent(tick=120, channel=4, data=[43, 0]),
   midi.NoteOnEvent(tick=0, channel=4, data=[40, 127]),
   midi.NoteOnEvent(tick=120, channel=4, data=[40, 0]),
   midi.NoteOnEvent(tick=0, channel=4, data=[36, 127]),
   midi.NoteOnEvent(tick=120, channel=4, data=[36, 0]),
   midi.NoteOnEvent(tick=0, channel=4, data=[31, 127]),
   midi.NoteOnEvent(tick=120, channel=4, data=[31, 0]),
   midi.NoteOnEvent(tick=0, channel=4, data=[38, 127]),
   midi.NoteOnEvent(tick=120, channel=4, data=[38, 0]),
   midi.NoteOnEvent(tick=0, channel=4, data=[36, 127]),
   midi.NoteOnEvent(tick=120, channel=4, data=[36, 0]),
   midi.NoteOnEvent(tick=0, channel=4, data=[28, 127]),
   midi.NoteOnEvent(tick=40, channel=4, data=[28, 0]),
   midi.NoteOnEvent(tick=0, channel=4, data=[28, 127]),
   midi.NoteOnEvent(tick=40, channel=4, data=[28, 0]),
   midi.NoteOnEvent(tick=0, channel=4, data=[28, 127]),
   midi.NoteOnEvent(tick=40, channel=4, data=[28, 0]),
   midi.NoteOnEvent(tick=0, channel=4, data=[40, 127]),
   midi.NoteOnEvent(tick=120, channel=4, data=[40, 0]),
   midi.NoteOnEvent(tick=0, channel=4, data=[28, 127]),
   midi.NoteOnEvent(tick=40, channel=4, data=[28, 0]),
   midi.NoteOnEvent(tick=0, channel=4, data=[28, 127]),
   midi.NoteOnEvent(tick=40, channel=4, data=[28, 0]),
   midi.NoteOnEvent(tick=0, channel=4, data=[28, 127]),
   midi.NoteOnEvent(tick=40, channel=4, data=[28, 0]),
   midi.NoteOnEvent(tick=0, channel=4, data=[40, 127]),
   midi.NoteOnEvent(tick=120, channel=4, data=[40, 0]),
   midi.NoteOnEvent(tick=0, channel=4, data=[28, 127]),
   midi.NoteOnEvent(tick=40, channel=4, data=[28, 0]),
   midi.NoteOnEvent(tick=0, channel=4, data=[28, 127]),
   midi.NoteOnEvent(tick=40, channel=4, data=[28, 0]),
   midi.NoteOnEvent(tick=0, channel=4, data=[28, 127]),
   midi.NoteOnEvent(tick=40, channel=4, data=[28, 0]),
   midi.NoteOnEvent(tick=0, channel=4, data=[40, 127]),
   midi.NoteOnEvent(tick=120, channel=4, data=[40, 0]),
   midi.NoteOnEvent(tick=0, channel=4, data=[38, 127]),
   midi.NoteOnEvent(tick=120, channel=4, data=[38, 0]),
   midi.NoteOnEvent(tick=0, channel=4, data=[38, 127]),
   midi.NoteOnEvent(tick=120, channel=4, data=[38, 0]),
   midi.NoteOnEvent(tick=0, channel=4, data=[28, 127]),
   midi.NoteOnEvent(tick=40, channel=4, data=[28, 0]),
   midi.NoteOnEvent(tick=0, channel=4, data=[28, 127]),
   midi.NoteOnEvent(tick=40, channel=4, data=[28, 0]),
   midi.NoteOnEvent(tick=0, channel=4, data=[28, 127]),
   midi.NoteOnEvent(tick=40, channel=4, data=[28, 0]),
   midi.NoteOnEvent(tick=0, channel=4, data=[40, 127]),
   midi.NoteOnEvent(tick=120, channel=4, data=[40, 0]),
   midi.NoteOnEvent(tick=0, channel=4, data=[28, 127]),
   midi.NoteOnEvent(tick=40, channel=4, data=[28, 0]),
   midi.NoteOnEvent(tick=0, channel=4, data=[28, 127]),
   midi.NoteOnEvent(tick=40, channel=4, data=[28, 0]),
   midi.NoteOnEvent(tick=0, channel=4, data=[28, 127]),
   midi.NoteOnEvent(tick=40, channel=4, data=[28, 0]),
   midi.NoteOnEvent(tick=0, channel=4, data=[40, 127]),
   midi.NoteOnEvent(tick=120, channel=4, data=[40, 0]),
   midi.NoteOnEvent(tick=0, channel=4, data=[28, 127]),
   midi.NoteOnEvent(tick=40, channel=4, data=[28, 0]),
   midi.NoteOnEvent(tick=0, channel=4, data=[28, 127]),
   midi.NoteOnEvent(tick=40, channel=4, data=[28, 0]),
   midi.NoteOnEvent(tick=0, channel=4, data=[28, 127]),
   midi.NoteOnEvent(tick=40, channel=4, data=[28, 0]),
   midi.NoteOnEvent(tick=0, channel=4, data=[40, 127]),
   midi.NoteOnEvent(tick=120, channel=4, data=[40, 0]),
   midi.NoteOnEvent(tick=0, channel=4, data=[36, 127]),
   midi.NoteOnEvent(tick=120, channel=4, data=[36, 0]),
   midi.NoteOnEvent(tick=0, channel=4, data=[38, 127]),
   midi.NoteOnEvent(tick=120, channel=4, data=[38, 0]),
   midi.NoteOnEvent(tick=0, channel=4, data=[28, 127]),
   midi.NoteOnEvent(tick=40, channel=4, data=[28, 0]),
   midi.NoteOnEvent(tick=0, channel=4, data=[28, 127]),
   midi.NoteOnEvent(tick=40, channel=4, data=[28, 0]),
   midi.NoteOnEvent(tick=0, channel=4, data=[28, 127]),
   midi.NoteOnEvent(tick=40, channel=4, data=[28, 0]),
   midi.NoteOnEvent(tick=0, channel=4, data=[40, 127]),
   midi.NoteOnEvent(tick=120, channel=4, data=[40, 0]),
   midi.NoteOnEvent(tick=0, channel=4, data=[28, 127]),
   midi.NoteOnEvent(tick=40, channel=4, data=[28, 0]),
   midi.NoteOnEvent(tick=0, channel=4, data=[28, 127]),
   midi.NoteOnEvent(tick=40, channel=4, data=[28, 0]),
   midi.NoteOnEvent(tick=0, channel=4, data=[28, 127]),
   midi.NoteOnEvent(tick=40, channel=4, data=[28, 0]),
   midi.NoteOnEvent(tick=0, channel=4, data=[40, 127]),
   midi.NoteOnEvent(tick=120, channel=4, data=[40, 0]),
   midi.NoteOnEvent(tick=0, channel=4, data=[28, 127]),
   midi.NoteOnEvent(tick=40, channel=4, data=[28, 0]),
   midi.NoteOnEvent(tick=0, channel=4, data=[28, 127]),
   midi.NoteOnEvent(tick=40, channel=4, data=[28, 0]),
   midi.NoteOnEvent(tick=0, channel=4, data=[28, 127]),
   midi.NoteOnEvent(tick=40, channel=4, data=[28, 0]),
   midi.NoteOnEvent(tick=0, channel=4, data=[40, 127]),
   midi.NoteOnEvent(tick=120, channel=4, data=[40, 0]),
   midi.NoteOnEvent(tick=0, channel=4, data=[43, 127]),
   midi.NoteOnEvent(tick=120, channel=4, data=[43, 0]),
   midi.NoteOnEvent(tick=0, channel=4, data=[40, 127]),
   midi.NoteOnEvent(tick=120, channel=4, data=[40, 0]),
   midi.NoteOnEvent(tick=0, channel=4, data=[36, 127]),
   midi.NoteOnEvent(tick=120, channel=4, data=[36, 0]),
   midi.NoteOnEvent(tick=0, channel=4, data=[31, 127]),
   midi.NoteOnEvent(tick=120, channel=4, data=[31, 0]),
   midi.NoteOnEvent(tick=0, channel=4, data=[38, 127]),
   midi.NoteOnEvent(tick=120, channel=4, data=[38, 0]),
   midi.NoteOnEvent(tick=0, channel=4, data=[36, 127]),
   midi.NoteOnEvent(tick=120, channel=4, data=[36, 0]),
   midi.NoteOnEvent(tick=0, channel=4, data=[40, 127]),
   midi.NoteOnEvent(tick=120, channel=4, data=[40, 0]),
   midi.NoteOnEvent(tick=0, channel=4, data=[40, 127]),
   midi.NoteOnEvent(tick=60, channel=4, data=[40, 0]),
   midi.NoteOnEvent(tick=0, channel=4, data=[40, 127]),
   midi.NoteOnEvent(tick=60, channel=4, data=[40, 0]),
   midi.NoteOnEvent(tick=0, channel=4, data=[40, 127]),
   midi.NoteOnEvent(tick=60, channel=4, data=[40, 0]),
   midi.NoteOnEvent(tick=0, channel=4, data=[33, 127]),
   midi.NoteOnEvent(tick=60, channel=4, data=[33, 0]),
   midi.NoteOnEvent(tick=0, channel=4, data=[40, 127]),
   midi.NoteOnEvent(tick=60, channel=4, data=[40, 0]),
   midi.NoteOnEvent(tick=0, channel=4, data=[33, 127]),
   midi.NoteOnEvent(tick=60, channel=4, data=[33, 0]),
   midi.NoteOnEvent(tick=0, channel=4, data=[40, 127]),
   midi.NoteOnEvent(tick=60, channel=4, data=[40, 0]),
   midi.NoteOnEvent(tick=0, channel=4, data=[33, 127]),
   midi.NoteOnEvent(tick=60, channel=4, data=[33, 0]),
   midi.NoteOnEvent(tick=0, channel=4, data=[40, 127]),
   midi.NoteOnEvent(tick=60, channel=4, data=[40, 0]),
   midi.NoteOnEvent(tick=0, channel=4, data=[33, 127]),
   midi.NoteOnEvent(tick=60, channel=4, data=[33, 0]),
   midi.NoteOnEvent(tick=0, channel=4, data=[40, 127]),
   midi.NoteOnEvent(tick=60, channel=4, data=[40, 0]),
   midi.NoteOnEvent(tick=0, channel=4, data=[33, 127]),
   midi.NoteOnEvent(tick=60, channel=4, data=[33, 0]),
   midi.NoteOnEvent(tick=0, channel=4, data=[40, 127]),
   midi.NoteOnEvent(tick=60, channel=4, data=[40, 0]),
   midi.NoteOnEvent(tick=0, channel=4, data=[33, 127]),
   midi.NoteOnEvent(tick=60, channel=4, data=[33, 0]),
   midi.NoteOnEvent(tick=0, channel=4, data=[38, 127]),
   midi.NoteOnEvent(tick=60, channel=4, data=[38, 0]),
   midi.NoteOnEvent(tick=0, channel=4, data=[38, 127]),
   midi.NoteOnEvent(tick=60, channel=4, data=[38, 0]),
   midi.NoteOnEvent(tick=0, channel=4, data=[38, 127]),
   midi.NoteOnEvent(tick=60, channel=4, data=[38, 0]),
   midi.NoteOnEvent(tick=0, channel=4, data=[38, 127]),
   midi.NoteOnEvent(tick=60, channel=4, data=[38, 0]),
   midi.NoteOnEvent(tick=0, channel=4, data=[38, 127]),
   midi.NoteOnEvent(tick=60, channel=4, data=[38, 0]),
   midi.NoteOnEvent(tick=0, channel=4, data=[33, 127]),
   midi.NoteOnEvent(tick=60, channel=4, data=[33, 0]),
   midi.NoteOnEvent(tick=0, channel=4, data=[38, 127]),
   midi.NoteOnEvent(tick=60, channel=4, data=[38, 0]),
   midi.NoteOnEvent(tick=0, channel=4, data=[33, 127]),
   midi.NoteOnEvent(tick=60, channel=4, data=[33, 0]),
   midi.NoteOnEvent(tick=0, channel=4, data=[38, 127]),
   midi.NoteOnEvent(tick=60, channel=4, data=[38, 0]),
   midi.NoteOnEvent(tick=0, channel=4, data=[33, 127]),
   midi.NoteOnEvent(tick=60, channel=4, data=[33, 0]),
   midi.NoteOnEvent(tick=0, channel=4, data=[38, 127]),
   midi.NoteOnEvent(tick=60, channel=4, data=[38, 0]),
   midi.NoteOnEvent(tick=0, channel=4, data=[33, 127]),
   midi.NoteOnEvent(tick=60, channel=4, data=[33, 0]),
   midi.NoteOnEvent(tick=0, channel=4, data=[38, 127]),
   midi.NoteOnEvent(tick=60, channel=4, data=[38, 0]),
   midi.NoteOnEvent(tick=0, channel=4, data=[33, 127]),
   midi.NoteOnEvent(tick=60, channel=4, data=[33, 0]),
   midi.NoteOnEvent(tick=0, channel=4, data=[38, 127]),
   midi.NoteOnEvent(tick=60, channel=4, data=[38, 0]),
   midi.NoteOnEvent(tick=0, channel=4, data=[33, 127]),
   midi.NoteOnEvent(tick=60, channel=4, data=[33, 0]),
   midi.NoteOnEvent(tick=0, channel=4, data=[36, 127]),
   midi.NoteOnEvent(tick=60, channel=4, data=[36, 0]),
   midi.NoteOnEvent(tick=0, channel=4, data=[36, 127]),
   midi.NoteOnEvent(tick=60, channel=4, data=[36, 0]),
   midi.NoteOnEvent(tick=0, channel=4, data=[36, 127]),
   midi.NoteOnEvent(tick=60, channel=4, data=[36, 0]),
   midi.NoteOnEvent(tick=0, channel=4, data=[33, 127]),
   midi.NoteOnEvent(tick=60, channel=4, data=[33, 0]),
   midi.NoteOnEvent(tick=0, channel=4, data=[36, 127]),
   midi.NoteOnEvent(tick=60, channel=4, data=[36, 0]),
   midi.NoteOnEvent(tick=0, channel=4, data=[33, 127]),
   midi.NoteOnEvent(tick=60, channel=4, data=[33, 0]),
   midi.NoteOnEvent(tick=0, channel=4, data=[36, 127]),
   midi.NoteOnEvent(tick=60, channel=4, data=[36, 0]),
   midi.NoteOnEvent(tick=0, channel=4, data=[33, 127]),
   midi.NoteOnEvent(tick=60, channel=4, data=[33, 0]),
   midi.NoteOnEvent(tick=0, channel=4, data=[36, 127]),
   midi.NoteOnEvent(tick=60, channel=4, data=[36, 0]),
   midi.NoteOnEvent(tick=0, channel=4, data=[33, 127]),
   midi.NoteOnEvent(tick=60, channel=4, data=[33, 0]),
   midi.NoteOnEvent(tick=0, channel=4, data=[36, 127]),
   midi.NoteOnEvent(tick=60, channel=4, data=[36, 0]),
   midi.NoteOnEvent(tick=0, channel=4, data=[33, 127]),
   midi.NoteOnEvent(tick=60, channel=4, data=[33, 0]),
   midi.NoteOnEvent(tick=0, channel=4, data=[36, 127]),
   midi.NoteOnEvent(tick=60, channel=4, data=[36, 0]),
   midi.NoteOnEvent(tick=0, channel=4, data=[33, 127]),
   midi.NoteOnEvent(tick=60, channel=4, data=[33, 0]),
   midi.NoteOnEvent(tick=0, channel=4, data=[36, 127]),
   midi.NoteOnEvent(tick=60, channel=4, data=[36, 0]),
   midi.NoteOnEvent(tick=0, channel=4, data=[33, 127]),
   midi.NoteOnEvent(tick=60, channel=4, data=[33, 0]),
   midi.NoteOnEvent(tick=0, channel=4, data=[35, 127]),
   midi.NoteOnEvent(tick=120, channel=4, data=[35, 0]),
   midi.NoteOnEvent(tick=0, channel=4, data=[36, 127]),
   midi.NoteOnEvent(tick=120, channel=4, data=[36, 0]),
   midi.NoteOnEvent(tick=0, channel=4, data=[38, 127]),
   midi.NoteOnEvent(tick=120, channel=4, data=[38, 0]),
   midi.NoteOnEvent(tick=0, channel=4, data=[40, 127]),
   midi.NoteOnEvent(tick=120, channel=4, data=[40, 0]),
   midi.NoteOnEvent(tick=0, channel=4, data=[42, 127]),
   midi.NoteOnEvent(tick=120, channel=4, data=[42, 0]),
   midi.NoteOnEvent(tick=0, channel=4, data=[43, 127]),
   midi.NoteOnEvent(tick=120, channel=4, data=[43, 0]),
   midi.NoteOnEvent(tick=0, channel=4, data=[45, 127]),
   midi.NoteOnEvent(tick=120, channel=4, data=[45, 0]),
   midi.NoteOnEvent(tick=0, channel=4, data=[45, 127]),
   midi.NoteOnEvent(tick=40, channel=4, data=[45, 0]),
   midi.NoteOnEvent(tick=0, channel=4, data=[46, 127]),
   midi.NoteOnEvent(tick=40, channel=4, data=[46, 0]),
   midi.NoteOnEvent(tick=0, channel=4, data=[47, 127]),
   midi.NoteOnEvent(tick=40, channel=4, data=[47, 0]),
   midi.NoteOnEvent(tick=0, channel=4, data=[40, 127]),
   midi.NoteOnEvent(tick=120, channel=4, data=[40, 0]),
   midi.NoteOnEvent(tick=0, channel=4, data=[40, 127]),
   midi.NoteOnEvent(tick=60, channel=4, data=[40, 0]),
   midi.NoteOnEvent(tick=0, channel=4, data=[33, 127]),
   midi.NoteOnEvent(tick=60, channel=4, data=[33, 0]),
   midi.NoteOnEvent(tick=0, channel=4, data=[40, 127]),
   midi.NoteOnEvent(tick=60, channel=4, data=[40, 0]),
   midi.NoteOnEvent(tick=0, channel=4, data=[33, 127]),
   midi.NoteOnEvent(tick=60, channel=4, data=[33, 0]),
   midi.NoteOnEvent(tick=0, channel=4, data=[40, 127]),
   midi.NoteOnEvent(tick=60, channel=4, data=[40, 0]),
   midi.NoteOnEvent(tick=0, channel=4, data=[33, 127]),
   midi.NoteOnEvent(tick=60, channel=4, data=[33, 0]),
   midi.NoteOnEvent(tick=0, channel=4, data=[40, 127]),
   midi.NoteOnEvent(tick=60, channel=4, data=[40, 0]),
   midi.NoteOnEvent(tick=0, channel=4, data=[33, 127]),
   midi.NoteOnEvent(tick=60, channel=4, data=[33, 0]),
   midi.NoteOnEvent(tick=0, channel=4, data=[40, 127]),
   midi.NoteOnEvent(tick=60, channel=4, data=[40, 0]),
   midi.NoteOnEvent(tick=0, channel=4, data=[33, 127]),
   midi.NoteOnEvent(tick=60, channel=4, data=[33, 0]),
   midi.NoteOnEvent(tick=0, channel=4, data=[40, 127]),
   midi.NoteOnEvent(tick=60, channel=4, data=[40, 0]),
   midi.NoteOnEvent(tick=0, channel=4, data=[33, 127]),
   midi.NoteOnEvent(tick=60, channel=4, data=[33, 0]),
   midi.NoteOnEvent(tick=0, channel=4, data=[40, 127]),
   midi.NoteOnEvent(tick=60, channel=4, data=[40, 0]),
   midi.NoteOnEvent(tick=0, channel=4, data=[33, 127]),
   midi.NoteOnEvent(tick=60, channel=4, data=[33, 0]),
   midi.NoteOnEvent(tick=0, channel=4, data=[38, 127]),
   midi.NoteOnEvent(tick=60, channel=4, data=[38, 0]),
   midi.NoteOnEvent(tick=0, channel=4, data=[38, 127]),
   midi.NoteOnEvent(tick=60, channel=4, data=[38, 0]),
   midi.NoteOnEvent(tick=0, channel=4, data=[38, 127]),
   midi.NoteOnEvent(tick=60, channel=4, data=[38, 0]),
   midi.NoteOnEvent(tick=0, channel=4, data=[33, 127]),
   midi.NoteOnEvent(tick=60, channel=4, data=[33, 0]),
   midi.NoteOnEvent(tick=0, channel=4, data=[38, 127]),
   midi.NoteOnEvent(tick=60, channel=4, data=[38, 0]),
   midi.NoteOnEvent(tick=0, channel=4, data=[33, 127]),
   midi.NoteOnEvent(tick=60, channel=4, data=[33, 0]),
   midi.NoteOnEvent(tick=0, channel=4, data=[38, 127]),
   midi.NoteOnEvent(tick=60, channel=4, data=[38, 0]),
   midi.NoteOnEvent(tick=0, channel=4, data=[33, 127]),
   midi.NoteOnEvent(tick=60, channel=4, data=[33, 0]),
   midi.NoteOnEvent(tick=0, channel=4, data=[45, 127]),
   midi.NoteOnEvent(tick=60, channel=4, data=[45, 0]),
   midi.NoteOnEvent(tick=0, channel=4, data=[38, 127]),
   midi.NoteOnEvent(tick=60, channel=4, data=[38, 0]),
   midi.NoteOnEvent(tick=0, channel=4, data=[38, 127]),
   midi.NoteOnEvent(tick=60, channel=4, data=[38, 0]),
   midi.NoteOnEvent(tick=0, channel=4, data=[38, 127]),
   midi.NoteOnEvent(tick=60, channel=4, data=[38, 0]),
   midi.NoteOnEvent(tick=0, channel=4, data=[45, 127]),
   midi.NoteOnEvent(tick=60, channel=4, data=[45, 0]),
   midi.NoteOnEvent(tick=0, channel=4, data=[38, 127]),
   midi.NoteOnEvent(tick=60, channel=4, data=[38, 0]),
   midi.NoteOnEvent(tick=0, channel=4, data=[45, 127]),
   midi.NoteOnEvent(tick=60, channel=4, data=[45, 0]),
   midi.NoteOnEvent(tick=0, channel=4, data=[38, 127]),
   midi.NoteOnEvent(tick=60, channel=4, data=[38, 0]),
   midi.NoteOnEvent(tick=0, channel=4, data=[36, 127]),
   midi.NoteOnEvent(tick=60, channel=4, data=[36, 0]),
   midi.NoteOnEvent(tick=0, channel=4, data=[36, 127]),
   midi.NoteOnEvent(tick=60, channel=4, data=[36, 0]),
   midi.NoteOnEvent(tick=0, channel=4, data=[36, 127]),
   midi.NoteOnEvent(tick=60, channel=4, data=[36, 0]),
   midi.NoteOnEvent(tick=0, channel=4, data=[33, 127]),
   midi.NoteOnEvent(tick=60, channel=4, data=[33, 0]),
   midi.NoteOnEvent(tick=0, channel=4, data=[36, 127]),
   midi.NoteOnEvent(tick=60, channel=4, data=[36, 0]),
   midi.NoteOnEvent(tick=0, channel=4, data=[33, 127]),
   midi.NoteOnEvent(tick=60, channel=4, data=[33, 0]),
   midi.NoteOnEvent(tick=0, channel=4, data=[36, 127]),
   midi.NoteOnEvent(tick=60, channel=4, data=[36, 0]),
   midi.NoteOnEvent(tick=0, channel=4, data=[33, 127]),
   midi.NoteOnEvent(tick=60, channel=4, data=[33, 0]),
   midi.NoteOnEvent(tick=0, channel=4, data=[35, 127]),
   midi.NoteOnEvent(tick=120, channel=4, data=[35, 0]),
   midi.NoteOnEvent(tick=0, channel=4, data=[36, 127]),
   midi.NoteOnEvent(tick=120, channel=4, data=[36, 0]),
   midi.NoteOnEvent(tick=0, channel=4, data=[35, 127]),
   midi.NoteOnEvent(tick=120, channel=4, data=[35, 0]),
   midi.NoteOnEvent(tick=0, channel=4, data=[31, 127]),
   midi.NoteOnEvent(tick=120, channel=4, data=[31, 0]),
   midi.NoteOnEvent(tick=0, channel=4, data=[40, 127]),
   midi.NoteOnEvent(tick=60, channel=4, data=[40, 0]),
   midi.NoteOnEvent(tick=0, channel=4, data=[38, 127]),
   midi.NoteOnEvent(tick=60, channel=4, data=[38, 0]),
   midi.NoteOnEvent(tick=0, channel=4, data=[40, 127]),
   midi.NoteOnEvent(tick=60, channel=4, data=[40, 0]),
   midi.NoteOnEvent(tick=0, channel=4, data=[38, 127]),
   midi.NoteOnEvent(tick=60, channel=4, data=[38, 0]),
   midi.NoteOnEvent(tick=0, channel=4, data=[40, 127]),
   midi.NoteOnEvent(tick=60, channel=4, data=[40, 0]),
   midi.NoteOnEvent(tick=0, channel=4, data=[38, 127]),
   midi.NoteOnEvent(tick=60, channel=4, data=[38, 0]),
   midi.NoteOnEvent(tick=0, channel=4, data=[40, 127]),
   midi.NoteOnEvent(tick=60, channel=4, data=[40, 0]),
   midi.NoteOnEvent(tick=0, channel=4, data=[38, 127]),
   midi.NoteOnEvent(tick=60, channel=4, data=[38, 0]),
   midi.NoteOnEvent(tick=0, channel=4, data=[40, 127]),
   midi.NoteOnEvent(tick=60, channel=4, data=[40, 0]),
   midi.NoteOnEvent(tick=0, channel=4, data=[38, 127]),
   midi.NoteOnEvent(tick=60, channel=4, data=[38, 0]),
   midi.NoteOnEvent(tick=0, channel=4, data=[40, 127]),
   midi.NoteOnEvent(tick=60, channel=4, data=[40, 0]),
   midi.NoteOnEvent(tick=0, channel=4, data=[38, 127]),
   midi.NoteOnEvent(tick=60, channel=4, data=[38, 0]),
   midi.NoteOnEvent(tick=0, channel=4, data=[40, 127]),
   midi.NoteOnEvent(tick=60, channel=4, data=[40, 0]),
   midi.NoteOnEvent(tick=0, channel=4, data=[38, 127]),
   midi.NoteOnEvent(tick=60, channel=4, data=[38, 0]),
   midi.NoteOnEvent(tick=0, channel=4, data=[35, 127]),
   midi.NoteOnEvent(tick=60, channel=4, data=[35, 0]),
   midi.NoteOnEvent(tick=0, channel=4, data=[38, 127]),
   midi.NoteOnEvent(tick=60, channel=4, data=[38, 0]),
   midi.NoteOnEvent(tick=0, channel=4, data=[40, 127]),
   midi.NoteOnEvent(tick=60, channel=4, data=[40, 0]),
   midi.NoteOnEvent(tick=0, channel=4, data=[38, 127]),
   midi.NoteOnEvent(tick=60, channel=4, data=[38, 0]),
   midi.NoteOnEvent(tick=0, channel=4, data=[40, 127]),
   midi.NoteOnEvent(tick=60, channel=4, data=[40, 0]),
   midi.NoteOnEvent(tick=0, channel=4, data=[38, 127]),
   midi.NoteOnEvent(tick=60, channel=4, data=[38, 0]),
   midi.NoteOnEvent(tick=0, channel=4, data=[40, 127]),
   midi.NoteOnEvent(tick=60, channel=4, data=[40, 0]),
   midi.NoteOnEvent(tick=0, channel=4, data=[38, 127]),
   midi.NoteOnEvent(tick=60, channel=4, data=[38, 0]),
   midi.NoteOnEvent(tick=0, channel=4, data=[40, 127]),
   midi.NoteOnEvent(tick=60, channel=4, data=[40, 0]),
   midi.NoteOnEvent(tick=0, channel=4, data=[38, 127]),
   midi.NoteOnEvent(tick=60, channel=4, data=[38, 0]),
   midi.NoteOnEvent(tick=0, channel=4, data=[34, 127]),
   midi.NoteOnEvent(tick=40, channel=4, data=[34, 0]),
   midi.NoteOnEvent(tick=0, channel=4, data=[35, 127]),
   midi.NoteOnEvent(tick=40, channel=4, data=[35, 0]),
   midi.NoteOnEvent(tick=0, channel=4, data=[38, 127]),
   midi.NoteOnEvent(tick=40, channel=4, data=[38, 0]),
   midi.NoteOnEvent(tick=0, channel=4, data=[40, 127]),
   midi.NoteOnEvent(tick=60, channel=4, data=[40, 0]),
   midi.NoteOnEvent(tick=0, channel=4, data=[38, 127]),
   midi.NoteOnEvent(tick=60, channel=4, data=[38, 0]),
   midi.NoteOnEvent(tick=0, channel=4, data=[45, 127]),
   midi.NoteOnEvent(tick=60, channel=4, data=[45, 0]),
   midi.NoteOnEvent(tick=0, channel=4, data=[43, 127]),
   midi.NoteOnEvent(tick=60, channel=4, data=[43, 0]),
   midi.NoteOnEvent(tick=0, channel=4, data=[40, 127]),
   midi.NoteOnEvent(tick=60, channel=4, data=[40, 0]),
   midi.NoteOnEvent(tick=0, channel=4, data=[38, 127]),
   midi.NoteOnEvent(tick=60, channel=4, data=[38, 0]),
   midi.NoteOnEvent(tick=0, channel=4, data=[40, 127]),
   midi.NoteOnEvent(tick=60, channel=4, data=[40, 0]),
   midi.NoteOnEvent(tick=0, channel=4, data=[38, 127]),
   midi.NoteOnEvent(tick=60, channel=4, data=[38, 0]),
   midi.NoteOnEvent(tick=0, channel=4, data=[40, 127]),
   midi.NoteOnEvent(tick=60, channel=4, data=[40, 0]),
   midi.NoteOnEvent(tick=0, channel=4, data=[38, 127]),
   midi.NoteOnEvent(tick=60, channel=4, data=[38, 0]),
   midi.NoteOnEvent(tick=0, channel=4, data=[40, 127]),
   midi.NoteOnEvent(tick=60, channel=4, data=[40, 0]),
   midi.NoteOnEvent(tick=0, channel=4, data=[38, 127]),
   midi.NoteOnEvent(tick=60, channel=4, data=[38, 0]),
   midi.NoteOnEvent(tick=0, channel=4, data=[35, 127]),
   midi.NoteOnEvent(tick=60, channel=4, data=[35, 0]),
   midi.NoteOnEvent(tick=0, channel=4, data=[38, 127]),
   midi.NoteOnEvent(tick=60, channel=4, data=[38, 0]),
   midi.NoteOnEvent(tick=0, channel=4, data=[40, 127]),
   midi.NoteOnEvent(tick=60, channel=4, data=[40, 0]),
   midi.NoteOnEvent(tick=0, channel=4, data=[38, 127]),
   midi.NoteOnEvent(tick=60, channel=4, data=[38, 0]),
   midi.NoteOnEvent(tick=0, channel=4, data=[40, 127]),
   midi.NoteOnEvent(tick=60, channel=4, data=[40, 0]),
   midi.NoteOnEvent(tick=0, channel=4, data=[38, 127]),
   midi.NoteOnEvent(tick=60, channel=4, data=[38, 0]),
   midi.NoteOnEvent(tick=0, channel=4, data=[40, 127]),
   midi.NoteOnEvent(tick=60, channel=4, data=[40, 0]),
   midi.NoteOnEvent(tick=0, channel=4, data=[38, 127]),
   midi.NoteOnEvent(tick=60, channel=4, data=[38, 0]),
   midi.NoteOnEvent(tick=0, channel=4, data=[35, 127]),
   midi.NoteOnEvent(tick=60, channel=4, data=[35, 0]),
   midi.NoteOnEvent(tick=0, channel=4, data=[33, 127]),
   midi.NoteOnEvent(tick=60, channel=4, data=[33, 0]),
   midi.NoteOnEvent(tick=0, channel=4, data=[36, 127]),
   midi.NoteOnEvent(tick=120, channel=4, data=[36, 0]),
   midi.NoteOnEvent(tick=0, channel=4, data=[31, 127]),
   midi.NoteOnEvent(tick=120, channel=4, data=[31, 0]),
   midi.NoteOnEvent(tick=0, channel=4, data=[38, 127]),
   midi.NoteOnEvent(tick=120, channel=4, data=[38, 0]),
   midi.NoteOnEvent(tick=0, channel=4, data=[36, 127]),
   midi.NoteOnEvent(tick=120, channel=4, data=[36, 0]),
   midi.NoteOnEvent(tick=0, channel=4, data=[40, 127]),
   midi.NoteOnEvent(tick=60, channel=4, data=[40, 0]),
   midi.NoteOnEvent(tick=0, channel=4, data=[38, 127]),
   midi.NoteOnEvent(tick=60, channel=4, data=[38, 0]),
   midi.NoteOnEvent(tick=0, channel=4, data=[40, 127]),
   midi.NoteOnEvent(tick=60, channel=4, data=[40, 0]),
   midi.NoteOnEvent(tick=0, channel=4, data=[38, 127]),
   midi.NoteOnEvent(tick=60, channel=4, data=[38, 0]),
   midi.NoteOnEvent(tick=0, channel=4, data=[40, 127]),
   midi.NoteOnEvent(tick=60, channel=4, data=[40, 0]),
   midi.NoteOnEvent(tick=0, channel=4, data=[38, 127]),
   midi.NoteOnEvent(tick=60, channel=4, data=[38, 0]),
   midi.NoteOnEvent(tick=0, channel=4, data=[40, 127]),
   midi.NoteOnEvent(tick=60, channel=4, data=[40, 0]),
   midi.NoteOnEvent(tick=0, channel=4, data=[38, 127]),
   midi.NoteOnEvent(tick=60, channel=4, data=[38, 0]),
   midi.NoteOnEvent(tick=0, channel=4, data=[40, 127]),
   midi.NoteOnEvent(tick=60, channel=4, data=[40, 0]),
   midi.NoteOnEvent(tick=0, channel=4, data=[38, 127]),
   midi.NoteOnEvent(tick=60, channel=4, data=[38, 0]),
   midi.NoteOnEvent(tick=0, channel=4, data=[40, 127]),
   midi.NoteOnEvent(tick=60, channel=4, data=[40, 0]),
   midi.NoteOnEvent(tick=0, channel=4, data=[38, 127]),
   midi.NoteOnEvent(tick=60, channel=4, data=[38, 0]),
   midi.NoteOnEvent(tick=0, channel=4, data=[40, 127]),
   midi.NoteOnEvent(tick=60, channel=4, data=[40, 0]),
   midi.NoteOnEvent(tick=0, channel=4, data=[38, 127]),
   midi.NoteOnEvent(tick=60, channel=4, data=[38, 0]),
   midi.NoteOnEvent(tick=0, channel=4, data=[35, 127]),
   midi.NoteOnEvent(tick=60, channel=4, data=[35, 0]),
   midi.NoteOnEvent(tick=0, channel=4, data=[38, 127]),
   midi.NoteOnEvent(tick=60, channel=4, data=[38, 0]),
   midi.NoteOnEvent(tick=0, channel=4, data=[40, 127]),
   midi.NoteOnEvent(tick=60, channel=4, data=[40, 0]),
   midi.NoteOnEvent(tick=0, channel=4, data=[38, 127]),
   midi.NoteOnEvent(tick=60, channel=4, data=[38, 0]),
   midi.NoteOnEvent(tick=0, channel=4, data=[40, 127]),
   midi.NoteOnEvent(tick=60, channel=4, data=[40, 0]),
   midi.NoteOnEvent(tick=0, channel=4, data=[38, 127]),
   midi.NoteOnEvent(tick=60, channel=4, data=[38, 0]),
   midi.NoteOnEvent(tick=0, channel=4, data=[40, 127]),
   midi.NoteOnEvent(tick=60, channel=4, data=[40, 0]),
   midi.NoteOnEvent(tick=0, channel=4, data=[38, 127]),
   midi.NoteOnEvent(tick=60, channel=4, data=[38, 0]),
   midi.NoteOnEvent(tick=0, channel=4, data=[40, 127]),
   midi.NoteOnEvent(tick=60, channel=4, data=[40, 0]),
   midi.NoteOnEvent(tick=0, channel=4, data=[38, 127]),
   midi.NoteOnEvent(tick=60, channel=4, data=[38, 0]),
   midi.NoteOnEvent(tick=0, channel=4, data=[34, 127]),
   midi.NoteOnEvent(tick=40, channel=4, data=[34, 0]),
   midi.NoteOnEvent(tick=0, channel=4, data=[35, 127]),
   midi.NoteOnEvent(tick=40, channel=4, data=[35, 0]),
   midi.NoteOnEvent(tick=0, channel=4, data=[38, 127]),
   midi.NoteOnEvent(tick=40, channel=4, data=[38, 0]),
   midi.NoteOnEvent(tick=0, channel=4, data=[40, 127]),
   midi.NoteOnEvent(tick=60, channel=4, data=[40, 0]),
   midi.NoteOnEvent(tick=0, channel=4, data=[38, 127]),
   midi.NoteOnEvent(tick=60, channel=4, data=[38, 0]),
   midi.NoteOnEvent(tick=0, channel=4, data=[45, 127]),
   midi.NoteOnEvent(tick=60, channel=4, data=[45, 0]),
   midi.NoteOnEvent(tick=0, channel=4, data=[43, 127]),
   midi.NoteOnEvent(tick=60, channel=4, data=[43, 0]),
   midi.NoteOnEvent(tick=0, channel=4, data=[40, 127]),
   midi.NoteOnEvent(tick=60, channel=4, data=[40, 0]),
   midi.NoteOnEvent(tick=0, channel=4, data=[38, 127]),
   midi.NoteOnEvent(tick=60, channel=4, data=[38, 0]),
   midi.NoteOnEvent(tick=0, channel=4, data=[40, 127]),
   midi.NoteOnEvent(tick=60, channel=4, data=[40, 0]),
   midi.NoteOnEvent(tick=0, channel=4, data=[38, 127]),
   midi.NoteOnEvent(tick=60, channel=4, data=[38, 0]),
   midi.NoteOnEvent(tick=0, channel=4, data=[40, 127]),
   midi.NoteOnEvent(tick=60, channel=4, data=[40, 0]),
   midi.NoteOnEvent(tick=0, channel=4, data=[38, 127]),
   midi.NoteOnEvent(tick=60, channel=4, data=[38, 0]),
   midi.NoteOnEvent(tick=0, channel=4, data=[40, 127]),
   midi.NoteOnEvent(tick=60, channel=4, data=[40, 0]),
   midi.NoteOnEvent(tick=0, channel=4, data=[38, 127]),
   midi.NoteOnEvent(tick=60, channel=4, data=[38, 0]),
   midi.NoteOnEvent(tick=0, channel=4, data=[35, 127]),
   midi.NoteOnEvent(tick=60, channel=4, data=[35, 0]),
   midi.NoteOnEvent(tick=0, channel=4, data=[38, 127]),
   midi.NoteOnEvent(tick=60, channel=4, data=[38, 0]),
   midi.NoteOnEvent(tick=0, channel=4, data=[40, 127]),
   midi.NoteOnEvent(tick=60, channel=4, data=[40, 0]),
   midi.NoteOnEvent(tick=0, channel=4, data=[38, 127]),
   midi.NoteOnEvent(tick=60, channel=4, data=[38, 0]),
   midi.NoteOnEvent(tick=0, channel=4, data=[40, 127]),
   midi.NoteOnEvent(tick=60, channel=4, data=[40, 0]),
   midi.NoteOnEvent(tick=0, channel=4, data=[38, 127]),
   midi.NoteOnEvent(tick=60, channel=4, data=[38, 0]),
   midi.NoteOnEvent(tick=0, channel=4, data=[40, 127]),
   midi.NoteOnEvent(tick=60, channel=4, data=[40, 0]),
   midi.NoteOnEvent(tick=0, channel=4, data=[38, 127]),
   midi.NoteOnEvent(tick=60, channel=4, data=[38, 0]),
   midi.NoteOnEvent(tick=0, channel=4, data=[35, 127]),
   midi.NoteOnEvent(tick=60, channel=4, data=[35, 0]),
   midi.NoteOnEvent(tick=0, channel=4, data=[33, 127]),
   midi.NoteOnEvent(tick=60, channel=4, data=[33, 0]),
   midi.NoteOnEvent(tick=0, channel=4, data=[36, 127]),
   midi.NoteOnEvent(tick=120, channel=4, data=[36, 0]),
   midi.NoteOnEvent(tick=0, channel=4, data=[31, 127]),
   midi.NoteOnEvent(tick=120, channel=4, data=[31, 0]),
   midi.NoteOnEvent(tick=0, channel=4, data=[38, 127]),
   midi.NoteOnEvent(tick=120, channel=4, data=[38, 0]),
   midi.NoteOnEvent(tick=0, channel=4, data=[36, 127]),
   midi.NoteOnEvent(tick=120, channel=4, data=[36, 0]),
   midi.NoteOnEvent(tick=0, channel=4, data=[28, 127]),
   midi.NoteOnEvent(tick=40, channel=4, data=[28, 0]),
   midi.NoteOnEvent(tick=0, channel=4, data=[28, 127]),
   midi.NoteOnEvent(tick=40, channel=4, data=[28, 0]),
   midi.NoteOnEvent(tick=0, channel=4, data=[28, 127]),
   midi.NoteOnEvent(tick=40, channel=4, data=[28, 0]),
   midi.NoteOnEvent(tick=0, channel=4, data=[40, 127]),
   midi.NoteOnEvent(tick=120, channel=4, data=[40, 0]),
   midi.NoteOnEvent(tick=0, channel=4, data=[28, 127]),
   midi.NoteOnEvent(tick=40, channel=4, data=[28, 0]),
   midi.NoteOnEvent(tick=0, channel=4, data=[28, 127]),
   midi.NoteOnEvent(tick=40, channel=4, data=[28, 0]),
   midi.NoteOnEvent(tick=0, channel=4, data=[28, 127]),
   midi.NoteOnEvent(tick=40, channel=4, data=[28, 0]),
   midi.NoteOnEvent(tick=0, channel=4, data=[40, 127]),
   midi.NoteOnEvent(tick=120, channel=4, data=[40, 0]),
   midi.NoteOnEvent(tick=0, channel=4, data=[28, 127]),
   midi.NoteOnEvent(tick=40, channel=4, data=[28, 0]),
   midi.NoteOnEvent(tick=0, channel=4, data=[28, 127]),
   midi.NoteOnEvent(tick=40, channel=4, data=[28, 0]),
   midi.NoteOnEvent(tick=0, channel=4, data=[28, 127]),
   midi.NoteOnEvent(tick=40, channel=4, data=[28, 0]),
   midi.NoteOnEvent(tick=0, channel=4, data=[40, 127]),
   midi.NoteOnEvent(tick=120, channel=4, data=[40, 0]),
   midi.NoteOnEvent(tick=0, channel=4, data=[38, 127]),
   midi.NoteOnEvent(tick=120, channel=4, data=[38, 0]),
   midi.NoteOnEvent(tick=0, channel=4, data=[38, 127]),
   midi.NoteOnEvent(tick=120, channel=4, data=[38, 0]),
   midi.NoteOnEvent(tick=0, channel=4, data=[28, 127]),
   midi.NoteOnEvent(tick=40, channel=4, data=[28, 0]),
   midi.NoteOnEvent(tick=0, channel=4, data=[28, 127]),
   midi.NoteOnEvent(tick=40, channel=4, data=[28, 0]),
   midi.NoteOnEvent(tick=0, channel=4, data=[28, 127]),
   midi.NoteOnEvent(tick=40, channel=4, data=[28, 0]),
   midi.NoteOnEvent(tick=0, channel=4, data=[40, 127]),
   midi.NoteOnEvent(tick=120, channel=4, data=[40, 0]),
   midi.NoteOnEvent(tick=0, channel=4, data=[28, 127]),
   midi.NoteOnEvent(tick=40, channel=4, data=[28, 0]),
   midi.NoteOnEvent(tick=0, channel=4, data=[28, 127]),
   midi.NoteOnEvent(tick=40, channel=4, data=[28, 0]),
   midi.NoteOnEvent(tick=0, channel=4, data=[28, 127]),
   midi.NoteOnEvent(tick=40, channel=4, data=[28, 0]),
   midi.NoteOnEvent(tick=0, channel=4, data=[40, 127]),
   midi.NoteOnEvent(tick=120, channel=4, data=[40, 0]),
   midi.NoteOnEvent(tick=0, channel=4, data=[28, 127]),
   midi.NoteOnEvent(tick=40, channel=4, data=[28, 0]),
   midi.NoteOnEvent(tick=0, channel=4, data=[28, 127]),
   midi.NoteOnEvent(tick=40, channel=4, data=[28, 0]),
   midi.NoteOnEvent(tick=0, channel=4, data=[28, 127]),
   midi.NoteOnEvent(tick=40, channel=4, data=[28, 0]),
   midi.NoteOnEvent(tick=0, channel=4, data=[40, 127]),
   midi.NoteOnEvent(tick=120, channel=4, data=[40, 0]),
   midi.NoteOnEvent(tick=0, channel=4, data=[36, 127]),
   midi.NoteOnEvent(tick=120, channel=4, data=[36, 0]),
   midi.NoteOnEvent(tick=0, channel=4, data=[38, 127]),
   midi.NoteOnEvent(tick=120, channel=4, data=[38, 0]),
   midi.NoteOnEvent(tick=0, channel=4, data=[28, 127]),
   midi.NoteOnEvent(tick=40, channel=4, data=[28, 0]),
   midi.NoteOnEvent(tick=0, channel=4, data=[28, 127]),
   midi.NoteOnEvent(tick=40, channel=4, data=[28, 0]),
   midi.NoteOnEvent(tick=0, channel=4, data=[28, 127]),
   midi.NoteOnEvent(tick=40, channel=4, data=[28, 0]),
   midi.NoteOnEvent(tick=0, channel=4, data=[40, 127]),
   midi.NoteOnEvent(tick=120, channel=4, data=[40, 0]),
   midi.NoteOnEvent(tick=0, channel=4, data=[28, 127]),
   midi.NoteOnEvent(tick=40, channel=4, data=[28, 0]),
   midi.NoteOnEvent(tick=0, channel=4, data=[28, 127]),
   midi.NoteOnEvent(tick=40, channel=4, data=[28, 0]),
   midi.NoteOnEvent(tick=0, channel=4, data=[28, 127]),
   midi.NoteOnEvent(tick=40, channel=4, data=[28, 0]),
   midi.NoteOnEvent(tick=0, channel=4, data=[40, 127]),
   midi.NoteOnEvent(tick=120, channel=4, data=[40, 0]),
   midi.NoteOnEvent(tick=0, channel=4, data=[28, 127]),
   midi.NoteOnEvent(tick=40, channel=4, data=[28, 0]),
   midi.NoteOnEvent(tick=0, channel=4, data=[28, 127]),
   midi.NoteOnEvent(tick=40, channel=4, data=[28, 0]),
   midi.NoteOnEvent(tick=0, channel=4, data=[28, 127]),
   midi.NoteOnEvent(tick=40, channel=4, data=[28, 0]),
   midi.NoteOnEvent(tick=0, channel=4, data=[40, 127]),
   midi.NoteOnEvent(tick=120, channel=4, data=[40, 0]),
   midi.NoteOnEvent(tick=0, channel=4, data=[43, 127]),
   midi.NoteOnEvent(tick=120, channel=4, data=[43, 0]),
   midi.NoteOnEvent(tick=0, channel=4, data=[40, 127]),
   midi.NoteOnEvent(tick=120, channel=4, data=[40, 0]),
   midi.NoteOnEvent(tick=0, channel=4, data=[36, 127]),
   midi.NoteOnEvent(tick=120, channel=4, data=[36, 0]),
   midi.NoteOnEvent(tick=0, channel=4, data=[31, 127]),
   midi.NoteOnEvent(tick=120, channel=4, data=[31, 0]),
   midi.NoteOnEvent(tick=0, channel=4, data=[38, 127]),
   midi.NoteOnEvent(tick=120, channel=4, data=[38, 0]),
   midi.NoteOnEvent(tick=0, channel=4, data=[36, 127]),
   midi.NoteOnEvent(tick=120, channel=4, data=[36, 0]),
   midi.NoteOnEvent(tick=0, channel=4, data=[28, 127]),
   midi.NoteOnEvent(tick=40, channel=4, data=[28, 0]),
   midi.NoteOnEvent(tick=0, channel=4, data=[28, 127]),
   midi.NoteOnEvent(tick=40, channel=4, data=[28, 0]),
   midi.NoteOnEvent(tick=0, channel=4, data=[28, 127]),
   midi.NoteOnEvent(tick=40, channel=4, data=[28, 0]),
   midi.NoteOnEvent(tick=0, channel=4, data=[40, 127]),
   midi.NoteOnEvent(tick=120, channel=4, data=[40, 0]),
   midi.NoteOnEvent(tick=0, channel=4, data=[28, 127]),
   midi.NoteOnEvent(tick=40, channel=4, data=[28, 0]),
   midi.NoteOnEvent(tick=0, channel=4, data=[28, 127]),
   midi.NoteOnEvent(tick=40, channel=4, data=[28, 0]),
   midi.NoteOnEvent(tick=0, channel=4, data=[28, 127]),
   midi.NoteOnEvent(tick=40, channel=4, data=[28, 0]),
   midi.NoteOnEvent(tick=0, channel=4, data=[40, 127]),
   midi.NoteOnEvent(tick=120, channel=4, data=[40, 0]),
   midi.NoteOnEvent(tick=0, channel=4, data=[28, 127]),
   midi.NoteOnEvent(tick=40, channel=4, data=[28, 0]),
   midi.NoteOnEvent(tick=0, channel=4, data=[28, 127]),
   midi.NoteOnEvent(tick=40, channel=4, data=[28, 0]),
   midi.NoteOnEvent(tick=0, channel=4, data=[28, 127]),
   midi.NoteOnEvent(tick=40, channel=4, data=[28, 0]),
   midi.NoteOnEvent(tick=0, channel=4, data=[40, 127]),
   midi.NoteOnEvent(tick=120, channel=4, data=[40, 0]),
   midi.NoteOnEvent(tick=0, channel=4, data=[38, 127]),
   midi.NoteOnEvent(tick=120, channel=4, data=[38, 0]),
   midi.NoteOnEvent(tick=0, channel=4, data=[38, 127]),
   midi.NoteOnEvent(tick=120, channel=4, data=[38, 0]),
   midi.NoteOnEvent(tick=0, channel=4, data=[28, 127]),
   midi.NoteOnEvent(tick=40, channel=4, data=[28, 0]),
   midi.NoteOnEvent(tick=0, channel=4, data=[28, 127]),
   midi.NoteOnEvent(tick=40, channel=4, data=[28, 0]),
   midi.NoteOnEvent(tick=0, channel=4, data=[28, 127]),
   midi.NoteOnEvent(tick=40, channel=4, data=[28, 0]),
   midi.NoteOnEvent(tick=0, channel=4, data=[40, 127]),
   midi.NoteOnEvent(tick=120, channel=4, data=[40, 0]),
   midi.NoteOnEvent(tick=0, channel=4, data=[28, 127]),
   midi.NoteOnEvent(tick=40, channel=4, data=[28, 0]),
   midi.NoteOnEvent(tick=0, channel=4, data=[28, 127]),
   midi.NoteOnEvent(tick=40, channel=4, data=[28, 0]),
   midi.NoteOnEvent(tick=0, channel=4, data=[28, 127]),
   midi.NoteOnEvent(tick=40, channel=4, data=[28, 0]),
   midi.NoteOnEvent(tick=0, channel=4, data=[40, 127]),
   midi.NoteOnEvent(tick=120, channel=4, data=[40, 0]),
   midi.NoteOnEvent(tick=0, channel=4, data=[28, 127]),
   midi.NoteOnEvent(tick=40, channel=4, data=[28, 0]),
   midi.NoteOnEvent(tick=0, channel=4, data=[28, 127]),
   midi.NoteOnEvent(tick=40, channel=4, data=[28, 0]),
   midi.NoteOnEvent(tick=0, channel=4, data=[28, 127]),
   midi.NoteOnEvent(tick=40, channel=4, data=[28, 0]),
   midi.NoteOnEvent(tick=0, channel=4, data=[40, 127]),
   midi.NoteOnEvent(tick=120, channel=4, data=[40, 0]),
   midi.NoteOnEvent(tick=0, channel=4, data=[36, 127]),
   midi.NoteOnEvent(tick=120, channel=4, data=[36, 0]),
   midi.NoteOnEvent(tick=0, channel=4, data=[38, 127]),
   midi.NoteOnEvent(tick=120, channel=4, data=[38, 0]),
   midi.NoteOnEvent(tick=0, channel=4, data=[28, 127]),
   midi.NoteOnEvent(tick=40, channel=4, data=[28, 0]),
   midi.NoteOnEvent(tick=0, channel=4, data=[28, 127]),
   midi.NoteOnEvent(tick=40, channel=4, data=[28, 0]),
   midi.NoteOnEvent(tick=0, channel=4, data=[28, 127]),
   midi.NoteOnEvent(tick=40, channel=4, data=[28, 0]),
   midi.NoteOnEvent(tick=0, channel=4, data=[40, 127]),
   midi.NoteOnEvent(tick=120, channel=4, data=[40, 0]),
   midi.NoteOnEvent(tick=0, channel=4, data=[28, 127]),
   midi.NoteOnEvent(tick=40, channel=4, data=[28, 0]),
   midi.NoteOnEvent(tick=0, channel=4, data=[28, 127]),
   midi.NoteOnEvent(tick=40, channel=4, data=[28, 0]),
   midi.NoteOnEvent(tick=0, channel=4, data=[28, 127]),
   midi.NoteOnEvent(tick=40, channel=4, data=[28, 0]),
   midi.NoteOnEvent(tick=0, channel=4, data=[40, 127]),
   midi.NoteOnEvent(tick=120, channel=4, data=[40, 0]),
   midi.NoteOnEvent(tick=0, channel=4, data=[28, 127]),
   midi.NoteOnEvent(tick=40, channel=4, data=[28, 0]),
   midi.NoteOnEvent(tick=0, channel=4, data=[28, 127]),
   midi.NoteOnEvent(tick=40, channel=4, data=[28, 0]),
   midi.NoteOnEvent(tick=0, channel=4, data=[28, 127]),
   midi.NoteOnEvent(tick=40, channel=4, data=[28, 0]),
   midi.NoteOnEvent(tick=0, channel=4, data=[40, 127]),
   midi.NoteOnEvent(tick=120, channel=4, data=[40, 0]),
   midi.NoteOnEvent(tick=0, channel=4, data=[43, 127]),
   midi.NoteOnEvent(tick=120, channel=4, data=[43, 0]),
   midi.NoteOnEvent(tick=0, channel=4, data=[40, 127]),
   midi.NoteOnEvent(tick=120, channel=4, data=[40, 0]),
   midi.NoteOnEvent(tick=0, channel=4, data=[36, 127]),
   midi.NoteOnEvent(tick=120, channel=4, data=[36, 0]),
   midi.NoteOnEvent(tick=0, channel=4, data=[31, 127]),
   midi.NoteOnEvent(tick=120, channel=4, data=[31, 0]),
   midi.NoteOnEvent(tick=0, channel=4, data=[38, 127]),
   midi.NoteOnEvent(tick=120, channel=4, data=[38, 0]),
   midi.NoteOnEvent(tick=0, channel=4, data=[36, 127]),
   midi.NoteOnEvent(tick=120, channel=4, data=[36, 0]),
   midi.NoteOnEvent(tick=0, channel=4, data=[40, 127]),
   midi.NoteOnEvent(tick=120, channel=4, data=[40, 0]),
   midi.NoteOnEvent(tick=0, channel=4, data=[40, 127]),
   midi.NoteOnEvent(tick=60, channel=4, data=[40, 0]),
   midi.NoteOnEvent(tick=0, channel=4, data=[40, 127]),
   midi.NoteOnEvent(tick=60, channel=4, data=[40, 0]),
   midi.NoteOnEvent(tick=0, channel=4, data=[40, 127]),
   midi.NoteOnEvent(tick=60, channel=4, data=[40, 0]),
   midi.NoteOnEvent(tick=0, channel=4, data=[33, 127]),
   midi.NoteOnEvent(tick=60, channel=4, data=[33, 0]),
   midi.NoteOnEvent(tick=0, channel=4, data=[40, 127]),
   midi.NoteOnEvent(tick=60, channel=4, data=[40, 0]),
   midi.NoteOnEvent(tick=0, channel=4, data=[33, 127]),
   midi.NoteOnEvent(tick=60, channel=4, data=[33, 0]),
   midi.NoteOnEvent(tick=0, channel=4, data=[40, 127]),
   midi.NoteOnEvent(tick=60, channel=4, data=[40, 0]),
   midi.NoteOnEvent(tick=0, channel=4, data=[33, 127]),
   midi.NoteOnEvent(tick=60, channel=4, data=[33, 0]),
   midi.NoteOnEvent(tick=0, channel=4, data=[40, 127]),
   midi.NoteOnEvent(tick=60, channel=4, data=[40, 0]),
   midi.NoteOnEvent(tick=0, channel=4, data=[33, 127]),
   midi.NoteOnEvent(tick=60, channel=4, data=[33, 0]),
   midi.NoteOnEvent(tick=0, channel=4, data=[40, 127]),
   midi.NoteOnEvent(tick=60, channel=4, data=[40, 0]),
   midi.NoteOnEvent(tick=0, channel=4, data=[33, 127]),
   midi.NoteOnEvent(tick=60, channel=4, data=[33, 0]),
   midi.NoteOnEvent(tick=0, channel=4, data=[40, 127]),
   midi.NoteOnEvent(tick=60, channel=4, data=[40, 0]),
   midi.NoteOnEvent(tick=0, channel=4, data=[33, 127]),
   midi.NoteOnEvent(tick=60, channel=4, data=[33, 0]),
   midi.NoteOnEvent(tick=0, channel=4, data=[38, 127]),
   midi.NoteOnEvent(tick=60, channel=4, data=[38, 0]),
   midi.NoteOnEvent(tick=0, channel=4, data=[38, 127]),
   midi.NoteOnEvent(tick=60, channel=4, data=[38, 0]),
   midi.NoteOnEvent(tick=0, channel=4, data=[38, 127]),
   midi.NoteOnEvent(tick=60, channel=4, data=[38, 0]),
   midi.NoteOnEvent(tick=0, channel=4, data=[38, 127]),
   midi.NoteOnEvent(tick=60, channel=4, data=[38, 0]),
   midi.NoteOnEvent(tick=0, channel=4, data=[38, 127]),
   midi.NoteOnEvent(tick=60, channel=4, data=[38, 0]),
   midi.NoteOnEvent(tick=0, channel=4, data=[33, 127]),
   midi.NoteOnEvent(tick=60, channel=4, data=[33, 0]),
   midi.NoteOnEvent(tick=0, channel=4, data=[38, 127]),
   midi.NoteOnEvent(tick=60, channel=4, data=[38, 0]),
   midi.NoteOnEvent(tick=0, channel=4, data=[33, 127]),
   midi.NoteOnEvent(tick=60, channel=4, data=[33, 0]),
   midi.NoteOnEvent(tick=0, channel=4, data=[38, 127]),
   midi.NoteOnEvent(tick=60, channel=4, data=[38, 0]),
   midi.NoteOnEvent(tick=0, channel=4, data=[33, 127]),
   midi.NoteOnEvent(tick=60, channel=4, data=[33, 0]),
   midi.NoteOnEvent(tick=0, channel=4, data=[38, 127]),
   midi.NoteOnEvent(tick=60, channel=4, data=[38, 0]),
   midi.NoteOnEvent(tick=0, channel=4, data=[33, 127]),
   midi.NoteOnEvent(tick=60, channel=4, data=[33, 0]),
   midi.NoteOnEvent(tick=0, channel=4, data=[38, 127]),
   midi.NoteOnEvent(tick=60, channel=4, data=[38, 0]),
   midi.NoteOnEvent(tick=0, channel=4, data=[33, 127]),
   midi.NoteOnEvent(tick=60, channel=4, data=[33, 0]),
   midi.NoteOnEvent(tick=0, channel=4, data=[38, 127]),
   midi.NoteOnEvent(tick=60, channel=4, data=[38, 0]),
   midi.NoteOnEvent(tick=0, channel=4, data=[33, 127]),
   midi.NoteOnEvent(tick=60, channel=4, data=[33, 0]),
   midi.NoteOnEvent(tick=0, channel=4, data=[36, 127]),
   midi.NoteOnEvent(tick=60, channel=4, data=[36, 0]),
   midi.NoteOnEvent(tick=0, channel=4, data=[36, 127]),
   midi.NoteOnEvent(tick=60, channel=4, data=[36, 0]),
   midi.NoteOnEvent(tick=0, channel=4, data=[36, 127]),
   midi.NoteOnEvent(tick=60, channel=4, data=[36, 0]),
   midi.NoteOnEvent(tick=0, channel=4, data=[33, 127]),
   midi.NoteOnEvent(tick=60, channel=4, data=[33, 0]),
   midi.NoteOnEvent(tick=0, channel=4, data=[36, 127]),
   midi.NoteOnEvent(tick=60, channel=4, data=[36, 0]),
   midi.NoteOnEvent(tick=0, channel=4, data=[33, 127]),
   midi.NoteOnEvent(tick=60, channel=4, data=[33, 0]),
   midi.NoteOnEvent(tick=0, channel=4, data=[36, 127]),
   midi.NoteOnEvent(tick=60, channel=4, data=[36, 0]),
   midi.NoteOnEvent(tick=0, channel=4, data=[33, 127]),
   midi.NoteOnEvent(tick=60, channel=4, data=[33, 0]),
   midi.NoteOnEvent(tick=0, channel=4, data=[36, 127]),
   midi.NoteOnEvent(tick=60, channel=4, data=[36, 0]),
   midi.NoteOnEvent(tick=0, channel=4, data=[33, 127]),
   midi.NoteOnEvent(tick=60, channel=4, data=[33, 0]),
   midi.NoteOnEvent(tick=0, channel=4, data=[36, 127]),
   midi.NoteOnEvent(tick=60, channel=4, data=[36, 0]),
   midi.NoteOnEvent(tick=0, channel=4, data=[33, 127]),
   midi.NoteOnEvent(tick=60, channel=4, data=[33, 0]),
   midi.NoteOnEvent(tick=0, channel=4, data=[36, 127]),
   midi.NoteOnEvent(tick=60, channel=4, data=[36, 0]),
   midi.NoteOnEvent(tick=0, channel=4, data=[33, 127]),
   midi.NoteOnEvent(tick=60, channel=4, data=[33, 0]),
   midi.NoteOnEvent(tick=0, channel=4, data=[36, 127]),
   midi.NoteOnEvent(tick=60, channel=4, data=[36, 0]),
   midi.NoteOnEvent(tick=0, channel=4, data=[33, 127]),
   midi.NoteOnEvent(tick=60, channel=4, data=[33, 0]),
   midi.NoteOnEvent(tick=0, channel=4, data=[35, 127]),
   midi.NoteOnEvent(tick=120, channel=4, data=[35, 0]),
   midi.NoteOnEvent(tick=0, channel=4, data=[36, 127]),
   midi.NoteOnEvent(tick=120, channel=4, data=[36, 0]),
   midi.NoteOnEvent(tick=0, channel=4, data=[38, 127]),
   midi.NoteOnEvent(tick=120, channel=4, data=[38, 0]),
   midi.NoteOnEvent(tick=0, channel=4, data=[40, 127]),
   midi.NoteOnEvent(tick=120, channel=4, data=[40, 0]),
   midi.NoteOnEvent(tick=0, channel=4, data=[42, 127]),
   midi.NoteOnEvent(tick=120, channel=4, data=[42, 0]),
   midi.NoteOnEvent(tick=0, channel=4, data=[43, 127]),
   midi.NoteOnEvent(tick=120, channel=4, data=[43, 0]),
   midi.NoteOnEvent(tick=0, channel=4, data=[45, 127]),
   midi.NoteOnEvent(tick=120, channel=4, data=[45, 0]),
   midi.NoteOnEvent(tick=0, channel=4, data=[45, 127]),
   midi.NoteOnEvent(tick=40, channel=4, data=[45, 0]),
   midi.NoteOnEvent(tick=0, channel=4, data=[46, 127]),
   midi.NoteOnEvent(tick=40, channel=4, data=[46, 0]),
   midi.NoteOnEvent(tick=0, channel=4, data=[47, 127]),
   midi.NoteOnEvent(tick=40, channel=4, data=[47, 0]),
   midi.NoteOnEvent(tick=0, channel=4, data=[40, 127]),
   midi.NoteOnEvent(tick=120, channel=4, data=[40, 0]),
   midi.NoteOnEvent(tick=0, channel=4, data=[40, 127]),
   midi.NoteOnEvent(tick=60, channel=4, data=[40, 0]),
   midi.NoteOnEvent(tick=0, channel=4, data=[33, 127]),
   midi.NoteOnEvent(tick=60, channel=4, data=[33, 0]),
   midi.NoteOnEvent(tick=0, channel=4, data=[40, 127]),
   midi.NoteOnEvent(tick=60, channel=4, data=[40, 0]),
   midi.NoteOnEvent(tick=0, channel=4, data=[33, 127]),
   midi.NoteOnEvent(tick=60, channel=4, data=[33, 0]),
   midi.NoteOnEvent(tick=0, channel=4, data=[40, 127]),
   midi.NoteOnEvent(tick=60, channel=4, data=[40, 0]),
   midi.NoteOnEvent(tick=0, channel=4, data=[33, 127]),
   midi.NoteOnEvent(tick=60, channel=4, data=[33, 0]),
   midi.NoteOnEvent(tick=0, channel=4, data=[40, 127]),
   midi.NoteOnEvent(tick=60, channel=4, data=[40, 0]),
   midi.NoteOnEvent(tick=0, channel=4, data=[33, 127]),
   midi.NoteOnEvent(tick=60, channel=4, data=[33, 0]),
   midi.NoteOnEvent(tick=0, channel=4, data=[40, 127]),
   midi.NoteOnEvent(tick=60, channel=4, data=[40, 0]),
   midi.NoteOnEvent(tick=0, channel=4, data=[33, 127]),
   midi.NoteOnEvent(tick=60, channel=4, data=[33, 0]),
   midi.NoteOnEvent(tick=0, channel=4, data=[40, 127]),
   midi.NoteOnEvent(tick=60, channel=4, data=[40, 0]),
   midi.NoteOnEvent(tick=0, channel=4, data=[33, 127]),
   midi.NoteOnEvent(tick=60, channel=4, data=[33, 0]),
   midi.NoteOnEvent(tick=0, channel=4, data=[40, 127]),
   midi.NoteOnEvent(tick=60, channel=4, data=[40, 0]),
   midi.NoteOnEvent(tick=0, channel=4, data=[33, 127]),
   midi.NoteOnEvent(tick=60, channel=4, data=[33, 0]),
   midi.NoteOnEvent(tick=0, channel=4, data=[38, 127]),
   midi.NoteOnEvent(tick=60, channel=4, data=[38, 0]),
   midi.NoteOnEvent(tick=0, channel=4, data=[38, 127]),
   midi.NoteOnEvent(tick=60, channel=4, data=[38, 0]),
   midi.NoteOnEvent(tick=0, channel=4, data=[38, 127]),
   midi.NoteOnEvent(tick=60, channel=4, data=[38, 0]),
   midi.NoteOnEvent(tick=0, channel=4, data=[33, 127]),
   midi.NoteOnEvent(tick=60, channel=4, data=[33, 0]),
   midi.NoteOnEvent(tick=0, channel=4, data=[38, 127]),
   midi.NoteOnEvent(tick=60, channel=4, data=[38, 0]),
   midi.NoteOnEvent(tick=0, channel=4, data=[33, 127]),
   midi.NoteOnEvent(tick=60, channel=4, data=[33, 0]),
   midi.NoteOnEvent(tick=0, channel=4, data=[38, 127]),
   midi.NoteOnEvent(tick=60, channel=4, data=[38, 0]),
   midi.NoteOnEvent(tick=0, channel=4, data=[33, 127]),
   midi.NoteOnEvent(tick=60, channel=4, data=[33, 0]),
   midi.NoteOnEvent(tick=0, channel=4, data=[38, 127]),
   midi.NoteOnEvent(tick=60, channel=4, data=[38, 0]),
   midi.NoteOnEvent(tick=0, channel=4, data=[33, 127]),
   midi.NoteOnEvent(tick=60, channel=4, data=[33, 0]),
   midi.NoteOnEvent(tick=0, channel=4, data=[38, 127]),
   midi.NoteOnEvent(tick=60, channel=4, data=[38, 0]),
   midi.NoteOnEvent(tick=0, channel=4, data=[33, 127]),
   midi.NoteOnEvent(tick=60, channel=4, data=[33, 0]),
   midi.NoteOnEvent(tick=0, channel=4, data=[38, 127]),
   midi.NoteOnEvent(tick=60, channel=4, data=[38, 0]),
   midi.NoteOnEvent(tick=0, channel=4, data=[33, 127]),
   midi.NoteOnEvent(tick=60, channel=4, data=[33, 0]),
   midi.NoteOnEvent(tick=0, channel=4, data=[38, 127]),
   midi.NoteOnEvent(tick=60, channel=4, data=[38, 0]),
   midi.NoteOnEvent(tick=0, channel=4, data=[33, 127]),
   midi.NoteOnEvent(tick=60, channel=4, data=[33, 0]),
   midi.NoteOnEvent(tick=0, channel=4, data=[36, 127]),
   midi.NoteOnEvent(tick=60, channel=4, data=[36, 0]),
   midi.NoteOnEvent(tick=0, channel=4, data=[36, 127]),
   midi.NoteOnEvent(tick=60, channel=4, data=[36, 0]),
   midi.NoteOnEvent(tick=0, channel=4, data=[36, 127]),
   midi.NoteOnEvent(tick=60, channel=4, data=[36, 0]),
   midi.NoteOnEvent(tick=0, channel=4, data=[33, 127]),
   midi.NoteOnEvent(tick=60, channel=4, data=[33, 0]),
   midi.NoteOnEvent(tick=0, channel=4, data=[36, 127]),
   midi.NoteOnEvent(tick=60, channel=4, data=[36, 0]),
   midi.NoteOnEvent(tick=0, channel=4, data=[33, 127]),
   midi.NoteOnEvent(tick=60, channel=4, data=[33, 0]),
   midi.NoteOnEvent(tick=0, channel=4, data=[36, 127]),
   midi.NoteOnEvent(tick=60, channel=4, data=[36, 0]),
   midi.NoteOnEvent(tick=0, channel=4, data=[33, 127]),
   midi.NoteOnEvent(tick=60, channel=4, data=[33, 0]),
   midi.NoteOnEvent(tick=0, channel=4, data=[35, 127]),
   midi.NoteOnEvent(tick=120, channel=4, data=[35, 0]),
   midi.NoteOnEvent(tick=0, channel=4, data=[36, 127]),
   midi.NoteOnEvent(tick=120, channel=4, data=[36, 0]),
   midi.NoteOnEvent(tick=0, channel=4, data=[35, 127]),
   midi.NoteOnEvent(tick=120, channel=4, data=[35, 0]),
   midi.NoteOnEvent(tick=0, channel=4, data=[31, 127]),
   midi.NoteOnEvent(tick=120, channel=4, data=[31, 0]),
   midi.NoteOnEvent(tick=0, channel=4, data=[40, 127]),
   midi.NoteOnEvent(tick=60, channel=4, data=[40, 0]),
   midi.NoteOnEvent(tick=0, channel=4, data=[38, 127]),
   midi.NoteOnEvent(tick=60, channel=4, data=[38, 0]),
   midi.NoteOnEvent(tick=0, channel=4, data=[40, 127]),
   midi.NoteOnEvent(tick=60, channel=4, data=[40, 0]),
   midi.NoteOnEvent(tick=0, channel=4, data=[38, 127]),
   midi.NoteOnEvent(tick=60, channel=4, data=[38, 0]),
   midi.NoteOnEvent(tick=0, channel=4, data=[40, 127]),
   midi.NoteOnEvent(tick=60, channel=4, data=[40, 0]),
   midi.NoteOnEvent(tick=0, channel=4, data=[38, 127]),
   midi.NoteOnEvent(tick=60, channel=4, data=[38, 0]),
   midi.NoteOnEvent(tick=0, channel=4, data=[40, 127]),
   midi.NoteOnEvent(tick=60, channel=4, data=[40, 0]),
   midi.NoteOnEvent(tick=0, channel=4, data=[38, 127]),
   midi.NoteOnEvent(tick=60, channel=4, data=[38, 0]),
   midi.NoteOnEvent(tick=0, channel=4, data=[40, 127]),
   midi.NoteOnEvent(tick=60, channel=4, data=[40, 0]),
   midi.NoteOnEvent(tick=0, channel=4, data=[38, 127]),
   midi.NoteOnEvent(tick=60, channel=4, data=[38, 0]),
   midi.NoteOnEvent(tick=0, channel=4, data=[40, 127]),
   midi.NoteOnEvent(tick=60, channel=4, data=[40, 0]),
   midi.NoteOnEvent(tick=0, channel=4, data=[38, 127]),
   midi.NoteOnEvent(tick=60, channel=4, data=[38, 0]),
   midi.NoteOnEvent(tick=0, channel=4, data=[40, 127]),
   midi.NoteOnEvent(tick=60, channel=4, data=[40, 0]),
   midi.NoteOnEvent(tick=0, channel=4, data=[38, 127]),
   midi.NoteOnEvent(tick=60, channel=4, data=[38, 0]),
   midi.NoteOnEvent(tick=0, channel=4, data=[35, 127]),
   midi.NoteOnEvent(tick=60, channel=4, data=[35, 0]),
   midi.NoteOnEvent(tick=0, channel=4, data=[38, 127]),
   midi.NoteOnEvent(tick=60, channel=4, data=[38, 0]),
   midi.NoteOnEvent(tick=0, channel=4, data=[40, 127]),
   midi.NoteOnEvent(tick=60, channel=4, data=[40, 0]),
   midi.NoteOnEvent(tick=0, channel=4, data=[38, 127]),
   midi.NoteOnEvent(tick=60, channel=4, data=[38, 0]),
   midi.NoteOnEvent(tick=0, channel=4, data=[40, 127]),
   midi.NoteOnEvent(tick=60, channel=4, data=[40, 0]),
   midi.NoteOnEvent(tick=0, channel=4, data=[38, 127]),
   midi.NoteOnEvent(tick=60, channel=4, data=[38, 0]),
   midi.NoteOnEvent(tick=0, channel=4, data=[40, 127]),
   midi.NoteOnEvent(tick=60, channel=4, data=[40, 0]),
   midi.NoteOnEvent(tick=0, channel=4, data=[38, 127]),
   midi.NoteOnEvent(tick=60, channel=4, data=[38, 0]),
   midi.NoteOnEvent(tick=0, channel=4, data=[40, 127]),
   midi.NoteOnEvent(tick=60, channel=4, data=[40, 0]),
   midi.NoteOnEvent(tick=0, channel=4, data=[38, 127]),
   midi.NoteOnEvent(tick=60, channel=4, data=[38, 0]),
   midi.NoteOnEvent(tick=0, channel=4, data=[34, 127]),
   midi.NoteOnEvent(tick=40, channel=4, data=[34, 0]),
   midi.NoteOnEvent(tick=0, channel=4, data=[35, 127]),
   midi.NoteOnEvent(tick=40, channel=4, data=[35, 0]),
   midi.NoteOnEvent(tick=0, channel=4, data=[38, 127]),
   midi.NoteOnEvent(tick=40, channel=4, data=[38, 0]),
   midi.NoteOnEvent(tick=0, channel=4, data=[40, 127]),
   midi.NoteOnEvent(tick=60, channel=4, data=[40, 0]),
   midi.NoteOnEvent(tick=0, channel=4, data=[38, 127]),
   midi.NoteOnEvent(tick=60, channel=4, data=[38, 0]),
   midi.NoteOnEvent(tick=0, channel=4, data=[45, 127]),
   midi.NoteOnEvent(tick=60, channel=4, data=[45, 0]),
   midi.NoteOnEvent(tick=0, channel=4, data=[43, 127]),
   midi.NoteOnEvent(tick=60, channel=4, data=[43, 0]),
   midi.NoteOnEvent(tick=0, channel=4, data=[40, 127]),
   midi.NoteOnEvent(tick=60, channel=4, data=[40, 0]),
   midi.NoteOnEvent(tick=0, channel=4, data=[38, 127]),
   midi.NoteOnEvent(tick=60, channel=4, data=[38, 0]),
   midi.NoteOnEvent(tick=0, channel=4, data=[40, 127]),
   midi.NoteOnEvent(tick=60, channel=4, data=[40, 0]),
   midi.NoteOnEvent(tick=0, channel=4, data=[38, 127]),
   midi.NoteOnEvent(tick=60, channel=4, data=[38, 0]),
   midi.NoteOnEvent(tick=0, channel=4, data=[40, 127]),
   midi.NoteOnEvent(tick=60, channel=4, data=[40, 0]),
   midi.NoteOnEvent(tick=0, channel=4, data=[38, 127]),
   midi.NoteOnEvent(tick=60, channel=4, data=[38, 0]),
   midi.NoteOnEvent(tick=0, channel=4, data=[40, 127]),
   midi.NoteOnEvent(tick=60, channel=4, data=[40, 0]),
   midi.NoteOnEvent(tick=0, channel=4, data=[38, 127]),
   midi.NoteOnEvent(tick=60, channel=4, data=[38, 0]),
   midi.NoteOnEvent(tick=0, channel=4, data=[35, 127]),
   midi.NoteOnEvent(tick=60, channel=4, data=[35, 0]),
   midi.NoteOnEvent(tick=0, channel=4, data=[38, 127]),
   midi.NoteOnEvent(tick=60, channel=4, data=[38, 0]),
   midi.NoteOnEvent(tick=0, channel=4, data=[40, 127]),
   midi.NoteOnEvent(tick=60, channel=4, data=[40, 0]),
   midi.NoteOnEvent(tick=0, channel=4, data=[38, 127]),
   midi.NoteOnEvent(tick=60, channel=4, data=[38, 0]),
   midi.NoteOnEvent(tick=0, channel=4, data=[40, 127]),
   midi.NoteOnEvent(tick=60, channel=4, data=[40, 0]),
   midi.NoteOnEvent(tick=0, channel=4, data=[38, 127]),
   midi.NoteOnEvent(tick=60, channel=4, data=[38, 0]),
   midi.NoteOnEvent(tick=0, channel=4, data=[40, 127]),
   midi.NoteOnEvent(tick=60, channel=4, data=[40, 0]),
   midi.NoteOnEvent(tick=0, channel=4, data=[38, 127]),
   midi.NoteOnEvent(tick=60, channel=4, data=[38, 0]),
   midi.NoteOnEvent(tick=0, channel=4, data=[35, 127]),
   midi.NoteOnEvent(tick=60, channel=4, data=[35, 0]),
   midi.NoteOnEvent(tick=0, channel=4, data=[33, 127]),
   midi.NoteOnEvent(tick=60, channel=4, data=[33, 0]),
   midi.NoteOnEvent(tick=0, channel=4, data=[36, 127]),
   midi.NoteOnEvent(tick=120, channel=4, data=[36, 0]),
   midi.NoteOnEvent(tick=0, channel=4, data=[31, 127]),
   midi.NoteOnEvent(tick=120, channel=4, data=[31, 0]),
   midi.NoteOnEvent(tick=0, channel=4, data=[38, 127]),
   midi.NoteOnEvent(tick=120, channel=4, data=[38, 0]),
   midi.NoteOnEvent(tick=0, channel=4, data=[36, 127]),
   midi.NoteOnEvent(tick=120, channel=4, data=[36, 0]),
   midi.NoteOnEvent(tick=0, channel=4, data=[40, 127]),
   midi.NoteOnEvent(tick=60, channel=4, data=[40, 0]),
   midi.NoteOnEvent(tick=0, channel=4, data=[38, 127]),
   midi.NoteOnEvent(tick=60, channel=4, data=[38, 0]),
   midi.NoteOnEvent(tick=0, channel=4, data=[40, 127]),
   midi.NoteOnEvent(tick=60, channel=4, data=[40, 0]),
   midi.NoteOnEvent(tick=0, channel=4, data=[38, 127]),
   midi.NoteOnEvent(tick=60, channel=4, data=[38, 0]),
   midi.NoteOnEvent(tick=0, channel=4, data=[40, 127]),
   midi.NoteOnEvent(tick=60, channel=4, data=[40, 0]),
   midi.NoteOnEvent(tick=0, channel=4, data=[38, 127]),
   midi.NoteOnEvent(tick=60, channel=4, data=[38, 0]),
   midi.NoteOnEvent(tick=0, channel=4, data=[40, 127]),
   midi.NoteOnEvent(tick=60, channel=4, data=[40, 0]),
   midi.NoteOnEvent(tick=0, channel=4, data=[38, 127]),
   midi.NoteOnEvent(tick=60, channel=4, data=[38, 0]),
   midi.NoteOnEvent(tick=0, channel=4, data=[40, 127]),
   midi.NoteOnEvent(tick=60, channel=4, data=[40, 0]),
   midi.NoteOnEvent(tick=0, channel=4, data=[38, 127]),
   midi.NoteOnEvent(tick=60, channel=4, data=[38, 0]),
   midi.NoteOnEvent(tick=0, channel=4, data=[40, 127]),
   midi.NoteOnEvent(tick=60, channel=4, data=[40, 0]),
   midi.NoteOnEvent(tick=0, channel=4, data=[38, 127]),
   midi.NoteOnEvent(tick=60, channel=4, data=[38, 0]),
   midi.NoteOnEvent(tick=0, channel=4, data=[40, 127]),
   midi.NoteOnEvent(tick=60, channel=4, data=[40, 0]),
   midi.NoteOnEvent(tick=0, channel=4, data=[38, 127]),
   midi.NoteOnEvent(tick=60, channel=4, data=[38, 0]),
   midi.NoteOnEvent(tick=0, channel=4, data=[35, 127]),
   midi.NoteOnEvent(tick=60, channel=4, data=[35, 0]),
   midi.NoteOnEvent(tick=0, channel=4, data=[38, 127]),
   midi.NoteOnEvent(tick=60, channel=4, data=[38, 0]),
   midi.NoteOnEvent(tick=0, channel=4, data=[40, 127]),
   midi.NoteOnEvent(tick=60, channel=4, data=[40, 0]),
   midi.NoteOnEvent(tick=0, channel=4, data=[38, 127]),
   midi.NoteOnEvent(tick=60, channel=4, data=[38, 0]),
   midi.NoteOnEvent(tick=0, channel=4, data=[40, 127]),
   midi.NoteOnEvent(tick=60, channel=4, data=[40, 0]),
   midi.NoteOnEvent(tick=0, channel=4, data=[38, 127]),
   midi.NoteOnEvent(tick=60, channel=4, data=[38, 0]),
   midi.NoteOnEvent(tick=0, channel=4, data=[40, 127]),
   midi.NoteOnEvent(tick=60, channel=4, data=[40, 0]),
   midi.NoteOnEvent(tick=0, channel=4, data=[38, 127]),
   midi.NoteOnEvent(tick=60, channel=4, data=[38, 0]),
   midi.NoteOnEvent(tick=0, channel=4, data=[40, 127]),
   midi.NoteOnEvent(tick=60, channel=4, data=[40, 0]),
   midi.NoteOnEvent(tick=0, channel=4, data=[38, 127]),
   midi.NoteOnEvent(tick=60, channel=4, data=[38, 0]),
   midi.NoteOnEvent(tick=0, channel=4, data=[34, 127]),
   midi.NoteOnEvent(tick=40, channel=4, data=[34, 0]),
   midi.NoteOnEvent(tick=0, channel=4, data=[35, 127]),
   midi.NoteOnEvent(tick=40, channel=4, data=[35, 0]),
   midi.NoteOnEvent(tick=0, channel=4, data=[38, 127]),
   midi.NoteOnEvent(tick=40, channel=4, data=[38, 0]),
   midi.NoteOnEvent(tick=0, channel=4, data=[40, 127]),
   midi.NoteOnEvent(tick=60, channel=4, data=[40, 0]),
   midi.NoteOnEvent(tick=0, channel=4, data=[38, 127]),
   midi.NoteOnEvent(tick=60, channel=4, data=[38, 0]),
   midi.NoteOnEvent(tick=0, channel=4, data=[45, 127]),
   midi.NoteOnEvent(tick=60, channel=4, data=[45, 0]),
   midi.NoteOnEvent(tick=0, channel=4, data=[43, 127]),
   midi.NoteOnEvent(tick=60, channel=4, data=[43, 0]),
   midi.NoteOnEvent(tick=0, channel=4, data=[40, 127]),
   midi.NoteOnEvent(tick=60, channel=4, data=[40, 0]),
   midi.NoteOnEvent(tick=0, channel=4, data=[38, 127]),
   midi.NoteOnEvent(tick=60, channel=4, data=[38, 0]),
   midi.NoteOnEvent(tick=0, channel=4, data=[40, 127]),
   midi.NoteOnEvent(tick=60, channel=4, data=[40, 0]),
   midi.NoteOnEvent(tick=0, channel=4, data=[38, 127]),
   midi.NoteOnEvent(tick=60, channel=4, data=[38, 0]),
   midi.NoteOnEvent(tick=0, channel=4, data=[40, 127]),
   midi.NoteOnEvent(tick=60, channel=4, data=[40, 0]),
   midi.NoteOnEvent(tick=0, channel=4, data=[38, 127]),
   midi.NoteOnEvent(tick=60, channel=4, data=[38, 0]),
   midi.NoteOnEvent(tick=0, channel=4, data=[40, 127]),
   midi.NoteOnEvent(tick=60, channel=4, data=[40, 0]),
   midi.NoteOnEvent(tick=0, channel=4, data=[38, 127]),
   midi.NoteOnEvent(tick=60, channel=4, data=[38, 0]),
   midi.NoteOnEvent(tick=0, channel=4, data=[35, 127]),
   midi.NoteOnEvent(tick=60, channel=4, data=[35, 0]),
   midi.NoteOnEvent(tick=0, channel=4, data=[38, 127]),
   midi.NoteOnEvent(tick=60, channel=4, data=[38, 0]),
   midi.NoteOnEvent(tick=0, channel=4, data=[40, 127]),
   midi.NoteOnEvent(tick=60, channel=4, data=[40, 0]),
   midi.NoteOnEvent(tick=0, channel=4, data=[38, 127]),
   midi.NoteOnEvent(tick=60, channel=4, data=[38, 0]),
   midi.NoteOnEvent(tick=0, channel=4, data=[40, 127]),
   midi.NoteOnEvent(tick=60, channel=4, data=[40, 0]),
   midi.NoteOnEvent(tick=0, channel=4, data=[38, 127]),
   midi.NoteOnEvent(tick=60, channel=4, data=[38, 0]),
   midi.NoteOnEvent(tick=0, channel=4, data=[40, 127]),
   midi.NoteOnEvent(tick=60, channel=4, data=[40, 0]),
   midi.NoteOnEvent(tick=0, channel=4, data=[38, 127]),
   midi.NoteOnEvent(tick=60, channel=4, data=[38, 0]),
   midi.NoteOnEvent(tick=0, channel=4, data=[35, 127]),
   midi.NoteOnEvent(tick=60, channel=4, data=[35, 0]),
   midi.NoteOnEvent(tick=0, channel=4, data=[33, 127]),
   midi.NoteOnEvent(tick=60, channel=4, data=[33, 0]),
   midi.NoteOnEvent(tick=0, channel=4, data=[36, 127]),
   midi.NoteOnEvent(tick=120, channel=4, data=[36, 0]),
   midi.NoteOnEvent(tick=0, channel=4, data=[31, 127]),
   midi.NoteOnEvent(tick=120, channel=4, data=[31, 0]),
   midi.NoteOnEvent(tick=0, channel=4, data=[38, 127]),
   midi.NoteOnEvent(tick=120, channel=4, data=[38, 0]),
   midi.NoteOnEvent(tick=0, channel=4, data=[36, 127]),
   midi.NoteOnEvent(tick=120, channel=4, data=[36, 0]),
   midi.NoteOnEvent(tick=0, channel=4, data=[28, 127]),
   midi.NoteOnEvent(tick=0, channel=4, data=[40, 127]),
   midi.NoteOnEvent(tick=480, channel=4, data=[28, 0]),
   midi.NoteOnEvent(tick=0, channel=4, data=[40, 0]),
   midi.NoteOnEvent(tick=0, channel=4, data=[28, 127]),
   midi.NoteOnEvent(tick=60, channel=4, data=[28, 0]),
   midi.NoteOnEvent(tick=3480, channel=4, data=[41, 127]),
   midi.NoteOnEvent(tick=60, channel=4, data=[41, 0]),
   midi.NoteOnEvent(tick=0, channel=4, data=[40, 127]),
   midi.NoteOnEvent(tick=120, channel=4, data=[40, 0]),
   midi.NoteOnEvent(tick=0, channel=4, data=[40, 127]),
   midi.NoteOnEvent(tick=120, channel=4, data=[40, 0]),
   midi.NoteOnEvent(tick=0, channel=4, data=[40, 127]),
   midi.NoteOnEvent(tick=60, channel=4, data=[40, 0]),
   midi.NoteOnEvent(tick=0, channel=4, data=[28, 127]),
   midi.NoteOnEvent(tick=60, channel=4, data=[28, 0]),
   midi.NoteOnEvent(tick=0, channel=4, data=[28, 127]),
   midi.NoteOnEvent(tick=40, channel=4, data=[28, 0]),
   midi.NoteOnEvent(tick=0, channel=4, data=[28, 127]),
   midi.NoteOnEvent(tick=40, channel=4, data=[28, 0]),
   midi.NoteOnEvent(tick=0, channel=4, data=[28, 127]),
   midi.NoteOnEvent(tick=40, channel=4, data=[28, 0]),
   midi.NoteOnEvent(tick=0, channel=4, data=[40, 127]),
   midi.NoteOnEvent(tick=60, channel=4, data=[40, 0]),
   midi.NoteOnEvent(tick=0, channel=4, data=[28, 127]),
   midi.NoteOnEvent(tick=60, channel=4, data=[28, 0]),
   midi.NoteOnEvent(tick=0, channel=4, data=[28, 127]),
   midi.NoteOnEvent(tick=40, channel=4, data=[28, 0]),
   midi.NoteOnEvent(tick=0, channel=4, data=[28, 127]),
   midi.NoteOnEvent(tick=40, channel=4, data=[28, 0]),
   midi.NoteOnEvent(tick=0, channel=4, data=[28, 127]),
   midi.NoteOnEvent(tick=40, channel=4, data=[28, 0]),
   midi.NoteOnEvent(tick=0, channel=4, data=[40, 127]),
   midi.NoteOnEvent(tick=60, channel=4, data=[40, 0]),
   midi.NoteOnEvent(tick=0, channel=4, data=[28, 127]),
   midi.NoteOnEvent(tick=60, channel=4, data=[28, 0]),
   midi.NoteOnEvent(tick=0, channel=4, data=[28, 127]),
   midi.NoteOnEvent(tick=40, channel=4, data=[28, 0]),
   midi.NoteOnEvent(tick=0, channel=4, data=[28, 127]),
   midi.NoteOnEvent(tick=40, channel=4, data=[28, 0]),
   midi.NoteOnEvent(tick=0, channel=4, data=[28, 127]),
   midi.NoteOnEvent(tick=40, channel=4, data=[28, 0]),
   midi.NoteOnEvent(tick=0, channel=4, data=[41, 127]),
   midi.NoteOnEvent(tick=30, channel=4, data=[41, 0]),
   midi.NoteOnEvent(tick=0, channel=4, data=[40, 127]),
   midi.NoteOnEvent(tick=90, channel=4, data=[40, 0]),
   midi.NoteOnEvent(tick=0, channel=4, data=[40, 127]),
   midi.NoteOnEvent(tick=120, channel=4, data=[40, 0]),
   midi.NoteOnEvent(tick=0, channel=4, data=[40, 127]),
   midi.NoteOnEvent(tick=60, channel=4, data=[40, 0]),
   midi.NoteOnEvent(tick=0, channel=4, data=[28, 127]),
   midi.NoteOnEvent(tick=60, channel=4, data=[28, 0]),
   midi.NoteOnEvent(tick=0, channel=4, data=[28, 127]),
   midi.NoteOnEvent(tick=40, channel=4, data=[28, 0]),
   midi.NoteOnEvent(tick=0, channel=4, data=[28, 127]),
   midi.NoteOnEvent(tick=40, channel=4, data=[28, 0]),
   midi.NoteOnEvent(tick=0, channel=4, data=[28, 127]),
   midi.NoteOnEvent(tick=40, channel=4, data=[28, 0]),
   midi.NoteOnEvent(tick=0, channel=4, data=[40, 127]),
   midi.NoteOnEvent(tick=60, channel=4, data=[40, 0]),
   midi.NoteOnEvent(tick=0, channel=4, data=[28, 127]),
   midi.NoteOnEvent(tick=60, channel=4, data=[28, 0]),
   midi.NoteOnEvent(tick=0, channel=4, data=[28, 127]),
   midi.NoteOnEvent(tick=40, channel=4, data=[28, 0]),
   midi.NoteOnEvent(tick=0, channel=4, data=[28, 127]),
   midi.NoteOnEvent(tick=40, channel=4, data=[28, 0]),
   midi.NoteOnEvent(tick=0, channel=4, data=[28, 127]),
   midi.NoteOnEvent(tick=40, channel=4, data=[28, 0]),
   midi.NoteOnEvent(tick=0, channel=4, data=[40, 127]),
   midi.NoteOnEvent(tick=60, channel=4, data=[40, 0]),
   midi.NoteOnEvent(tick=0, channel=4, data=[28, 127]),
   midi.NoteOnEvent(tick=60, channel=4, data=[28, 0]),
   midi.NoteOnEvent(tick=0, channel=4, data=[28, 127]),
   midi.NoteOnEvent(tick=40, channel=4, data=[28, 0]),
   midi.NoteOnEvent(tick=0, channel=4, data=[28, 127]),
   midi.NoteOnEvent(tick=40, channel=4, data=[28, 0]),
   midi.NoteOnEvent(tick=0, channel=4, data=[28, 127]),
   midi.NoteOnEvent(tick=40, channel=4, data=[28, 0]),
   midi.NoteOnEvent(tick=0, channel=4, data=[41, 127]),
   midi.NoteOnEvent(tick=120, channel=4, data=[41, 0]),
   midi.NoteOnEvent(tick=0, channel=4, data=[41, 127]),
   midi.NoteOnEvent(tick=120, channel=4, data=[41, 0]),
   midi.NoteOnEvent(tick=0, channel=4, data=[40, 127]),
   midi.NoteOnEvent(tick=60, channel=4, data=[40, 0]),
   midi.NoteOnEvent(tick=0, channel=4, data=[28, 127]),
   midi.NoteOnEvent(tick=60, channel=4, data=[28, 0]),
   midi.NoteOnEvent(tick=0, channel=4, data=[28, 127]),
   midi.NoteOnEvent(tick=40, channel=4, data=[28, 0]),
   midi.NoteOnEvent(tick=0, channel=4, data=[28, 127]),
   midi.NoteOnEvent(tick=40, channel=4, data=[28, 0]),
   midi.NoteOnEvent(tick=0, channel=4, data=[28, 127]),
   midi.NoteOnEvent(tick=40, channel=4, data=[28, 0]),
   midi.NoteOnEvent(tick=0, channel=4, data=[40, 127]),
   midi.NoteOnEvent(tick=60, channel=4, data=[40, 0]),
   midi.NoteOnEvent(tick=0, channel=4, data=[28, 127]),
   midi.NoteOnEvent(tick=60, channel=4, data=[28, 0]),
   midi.NoteOnEvent(tick=0, channel=4, data=[28, 127]),
   midi.NoteOnEvent(tick=40, channel=4, data=[28, 0]),
   midi.NoteOnEvent(tick=0, channel=4, data=[28, 127]),
   midi.NoteOnEvent(tick=40, channel=4, data=[28, 0]),
   midi.NoteOnEvent(tick=0, channel=4, data=[28, 127]),
   midi.NoteOnEvent(tick=40, channel=4, data=[28, 0]),
   midi.NoteOnEvent(tick=0, channel=4, data=[40, 127]),
   midi.NoteOnEvent(tick=60, channel=4, data=[40, 0]),
   midi.NoteOnEvent(tick=0, channel=4, data=[28, 127]),
   midi.NoteOnEvent(tick=60, channel=4, data=[28, 0]),
   midi.NoteOnEvent(tick=0, channel=4, data=[28, 127]),
   midi.NoteOnEvent(tick=40, channel=4, data=[28, 0]),
   midi.NoteOnEvent(tick=0, channel=4, data=[28, 127]),
   midi.NoteOnEvent(tick=40, channel=4, data=[28, 0]),
   midi.NoteOnEvent(tick=0, channel=4, data=[28, 127]),
   midi.NoteOnEvent(tick=40, channel=4, data=[28, 0]),
   midi.NoteOnEvent(tick=0, channel=4, data=[41, 127]),
   midi.NoteOnEvent(tick=30, channel=4, data=[41, 0]),
   midi.NoteOnEvent(tick=0, channel=4, data=[40, 127]),
   midi.NoteOnEvent(tick=90, channel=4, data=[40, 0]),
   midi.NoteOnEvent(tick=0, channel=4, data=[40, 127]),
   midi.NoteOnEvent(tick=120, channel=4, data=[40, 0]),
   midi.NoteOnEvent(tick=0, channel=4, data=[40, 127]),
   midi.NoteOnEvent(tick=60, channel=4, data=[40, 0]),
   midi.NoteOnEvent(tick=0, channel=4, data=[28, 127]),
   midi.NoteOnEvent(tick=60, channel=4, data=[28, 0]),
   midi.NoteOnEvent(tick=0, channel=4, data=[28, 127]),
   midi.NoteOnEvent(tick=40, channel=4, data=[28, 0]),
   midi.NoteOnEvent(tick=0, channel=4, data=[28, 127]),
   midi.NoteOnEvent(tick=40, channel=4, data=[28, 0]),
   midi.NoteOnEvent(tick=0, channel=4, data=[28, 127]),
   midi.NoteOnEvent(tick=40, channel=4, data=[28, 0]),
   midi.NoteOnEvent(tick=0, channel=4, data=[40, 127]),
   midi.NoteOnEvent(tick=60, channel=4, data=[40, 0]),
   midi.NoteOnEvent(tick=0, channel=4, data=[28, 127]),
   midi.NoteOnEvent(tick=60, channel=4, data=[28, 0]),
   midi.NoteOnEvent(tick=0, channel=4, data=[28, 127]),
   midi.NoteOnEvent(tick=40, channel=4, data=[28, 0]),
   midi.NoteOnEvent(tick=0, channel=4, data=[28, 127]),
   midi.NoteOnEvent(tick=40, channel=4, data=[28, 0]),
   midi.NoteOnEvent(tick=0, channel=4, data=[28, 127]),
   midi.NoteOnEvent(tick=40, channel=4, data=[28, 0]),
   midi.NoteOnEvent(tick=0, channel=4, data=[40, 127]),
   midi.NoteOnEvent(tick=60, channel=4, data=[40, 0]),
   midi.NoteOnEvent(tick=0, channel=4, data=[28, 127]),
   midi.NoteOnEvent(tick=60, channel=4, data=[28, 0]),
   midi.NoteOnEvent(tick=0, channel=4, data=[28, 127]),
   midi.NoteOnEvent(tick=40, channel=4, data=[28, 0]),
   midi.NoteOnEvent(tick=0, channel=4, data=[28, 127]),
   midi.NoteOnEvent(tick=40, channel=4, data=[28, 0]),
   midi.NoteOnEvent(tick=0, channel=4, data=[28, 127]),
   midi.NoteOnEvent(tick=40, channel=4, data=[28, 0]),
   midi.NoteOnEvent(tick=0, channel=4, data=[41, 127]),
   midi.NoteOnEvent(tick=120, channel=4, data=[41, 0]),
   midi.NoteOnEvent(tick=0, channel=4, data=[41, 127]),
   midi.NoteOnEvent(tick=120, channel=4, data=[41, 0]),
   midi.NoteOnEvent(tick=0, channel=4, data=[40, 127]),
   midi.NoteOnEvent(tick=60, channel=4, data=[40, 0]),
   midi.NoteOnEvent(tick=0, channel=4, data=[28, 127]),
   midi.NoteOnEvent(tick=60, channel=4, data=[28, 0]),
   midi.NoteOnEvent(tick=0, channel=4, data=[28, 127]),
   midi.NoteOnEvent(tick=40, channel=4, data=[28, 0]),
   midi.NoteOnEvent(tick=0, channel=4, data=[28, 127]),
   midi.NoteOnEvent(tick=40, channel=4, data=[28, 0]),
   midi.NoteOnEvent(tick=0, channel=4, data=[28, 127]),
   midi.NoteOnEvent(tick=40, channel=4, data=[28, 0]),
   midi.NoteOnEvent(tick=0, channel=4, data=[40, 127]),
   midi.NoteOnEvent(tick=60, channel=4, data=[40, 0]),
   midi.NoteOnEvent(tick=0, channel=4, data=[28, 127]),
   midi.NoteOnEvent(tick=60, channel=4, data=[28, 0]),
   midi.NoteOnEvent(tick=0, channel=4, data=[28, 127]),
   midi.NoteOnEvent(tick=40, channel=4, data=[28, 0]),
   midi.NoteOnEvent(tick=0, channel=4, data=[28, 127]),
   midi.NoteOnEvent(tick=40, channel=4, data=[28, 0]),
   midi.NoteOnEvent(tick=0, channel=4, data=[28, 127]),
   midi.NoteOnEvent(tick=40, channel=4, data=[28, 0]),
   midi.NoteOnEvent(tick=0, channel=4, data=[40, 127]),
   midi.NoteOnEvent(tick=60, channel=4, data=[40, 0]),
   midi.NoteOnEvent(tick=0, channel=4, data=[28, 127]),
   midi.NoteOnEvent(tick=60, channel=4, data=[28, 0]),
   midi.NoteOnEvent(tick=0, channel=4, data=[28, 127]),
   midi.NoteOnEvent(tick=40, channel=4, data=[28, 0]),
   midi.NoteOnEvent(tick=0, channel=4, data=[28, 127]),
   midi.NoteOnEvent(tick=40, channel=4, data=[28, 0]),
   midi.NoteOnEvent(tick=0, channel=4, data=[28, 127]),
   midi.NoteOnEvent(tick=40, channel=4, data=[28, 0]),
   midi.NoteOnEvent(tick=0, channel=4, data=[41, 127]),
   midi.NoteOnEvent(tick=30, channel=4, data=[41, 0]),
   midi.NoteOnEvent(tick=0, channel=4, data=[40, 127]),
   midi.NoteOnEvent(tick=90, channel=4, data=[40, 0]),
   midi.NoteOnEvent(tick=0, channel=4, data=[40, 127]),
   midi.NoteOnEvent(tick=120, channel=4, data=[40, 0]),
   midi.NoteOnEvent(tick=0, channel=4, data=[40, 127]),
   midi.NoteOnEvent(tick=60, channel=4, data=[40, 0]),
   midi.NoteOnEvent(tick=0, channel=4, data=[28, 127]),
   midi.NoteOnEvent(tick=60, channel=4, data=[28, 0]),
   midi.NoteOnEvent(tick=0, channel=4, data=[28, 127]),
   midi.NoteOnEvent(tick=40, channel=4, data=[28, 0]),
   midi.NoteOnEvent(tick=0, channel=4, data=[28, 127]),
   midi.NoteOnEvent(tick=40, channel=4, data=[28, 0]),
   midi.NoteOnEvent(tick=0, channel=4, data=[28, 127]),
   midi.NoteOnEvent(tick=40, channel=4, data=[28, 0]),
   midi.NoteOnEvent(tick=0, channel=4, data=[40, 127]),
   midi.NoteOnEvent(tick=60, channel=4, data=[40, 0]),
   midi.NoteOnEvent(tick=0, channel=4, data=[28, 127]),
   midi.NoteOnEvent(tick=60, channel=4, data=[28, 0]),
   midi.NoteOnEvent(tick=0, channel=4, data=[28, 127]),
   midi.NoteOnEvent(tick=40, channel=4, data=[28, 0]),
   midi.NoteOnEvent(tick=0, channel=4, data=[28, 127]),
   midi.NoteOnEvent(tick=40, channel=4, data=[28, 0]),
   midi.NoteOnEvent(tick=0, channel=4, data=[28, 127]),
   midi.NoteOnEvent(tick=40, channel=4, data=[28, 0]),
   midi.NoteOnEvent(tick=0, channel=4, data=[40, 127]),
   midi.NoteOnEvent(tick=60, channel=4, data=[40, 0]),
   midi.NoteOnEvent(tick=0, channel=4, data=[28, 127]),
   midi.NoteOnEvent(tick=60, channel=4, data=[28, 0]),
   midi.NoteOnEvent(tick=0, channel=4, data=[28, 127]),
   midi.NoteOnEvent(tick=40, channel=4, data=[28, 0]),
   midi.NoteOnEvent(tick=0, channel=4, data=[28, 127]),
   midi.NoteOnEvent(tick=40, channel=4, data=[28, 0]),
   midi.NoteOnEvent(tick=0, channel=4, data=[28, 127]),
   midi.NoteOnEvent(tick=40, channel=4, data=[28, 0]),
   midi.NoteOnEvent(tick=0, channel=4, data=[41, 127]),
   midi.NoteOnEvent(tick=120, channel=4, data=[41, 0]),
   midi.NoteOnEvent(tick=0, channel=4, data=[41, 127]),
   midi.NoteOnEvent(tick=120, channel=4, data=[41, 0]),
   midi.NoteOnEvent(tick=0, channel=4, data=[40, 127]),
   midi.NoteOnEvent(tick=60, channel=4, data=[40, 0]),
   midi.NoteOnEvent(tick=0, channel=4, data=[28, 127]),
   midi.NoteOnEvent(tick=60, channel=4, data=[28, 0]),
   midi.NoteOnEvent(tick=0, channel=4, data=[28, 127]),
   midi.NoteOnEvent(tick=40, channel=4, data=[28, 0]),
   midi.NoteOnEvent(tick=0, channel=4, data=[28, 127]),
   midi.NoteOnEvent(tick=40, channel=4, data=[28, 0]),
   midi.NoteOnEvent(tick=0, channel=4, data=[28, 127]),
   midi.NoteOnEvent(tick=40, channel=4, data=[28, 0]),
   midi.NoteOnEvent(tick=0, channel=4, data=[40, 127]),
   midi.NoteOnEvent(tick=60, channel=4, data=[40, 0]),
   midi.NoteOnEvent(tick=0, channel=4, data=[28, 127]),
   midi.NoteOnEvent(tick=60, channel=4, data=[28, 0]),
   midi.NoteOnEvent(tick=0, channel=4, data=[28, 127]),
   midi.NoteOnEvent(tick=40, channel=4, data=[28, 0]),
   midi.NoteOnEvent(tick=0, channel=4, data=[28, 127]),
   midi.NoteOnEvent(tick=40, channel=4, data=[28, 0]),
   midi.NoteOnEvent(tick=0, channel=4, data=[28, 127]),
   midi.NoteOnEvent(tick=40, channel=4, data=[28, 0]),
   midi.NoteOnEvent(tick=0, channel=4, data=[40, 127]),
   midi.NoteOnEvent(tick=60, channel=4, data=[40, 0]),
   midi.NoteOnEvent(tick=0, channel=4, data=[28, 127]),
   midi.NoteOnEvent(tick=60, channel=4, data=[28, 0]),
   midi.NoteOnEvent(tick=0, channel=4, data=[28, 127]),
   midi.NoteOnEvent(tick=40, channel=4, data=[28, 0]),
   midi.NoteOnEvent(tick=0, channel=4, data=[28, 127]),
   midi.NoteOnEvent(tick=40, channel=4, data=[28, 0]),
   midi.NoteOnEvent(tick=0, channel=4, data=[28, 127]),
   midi.NoteOnEvent(tick=40, channel=4, data=[28, 0]),
   midi.NoteOnEvent(tick=0, channel=4, data=[41, 127]),
   midi.NoteOnEvent(tick=30, channel=4, data=[41, 0]),
   midi.NoteOnEvent(tick=0, channel=4, data=[40, 127]),
   midi.NoteOnEvent(tick=90, channel=4, data=[40, 0]),
   midi.NoteOnEvent(tick=0, channel=4, data=[40, 127]),
   midi.NoteOnEvent(tick=120, channel=4, data=[40, 0]),
   midi.NoteOnEvent(tick=0, channel=4, data=[40, 127]),
   midi.NoteOnEvent(tick=60, channel=4, data=[40, 0]),
   midi.NoteOnEvent(tick=0, channel=4, data=[28, 127]),
   midi.NoteOnEvent(tick=60, channel=4, data=[28, 0]),
   midi.NoteOnEvent(tick=0, channel=4, data=[28, 127]),
   midi.NoteOnEvent(tick=40, channel=4, data=[28, 0]),
   midi.NoteOnEvent(tick=0, channel=4, data=[28, 127]),
   midi.NoteOnEvent(tick=40, channel=4, data=[28, 0]),
   midi.NoteOnEvent(tick=0, channel=4, data=[28, 127]),
   midi.NoteOnEvent(tick=40, channel=4, data=[28, 0]),
   midi.NoteOnEvent(tick=0, channel=4, data=[40, 127]),
   midi.NoteOnEvent(tick=60, channel=4, data=[40, 0]),
   midi.NoteOnEvent(tick=0, channel=4, data=[28, 127]),
   midi.NoteOnEvent(tick=60, channel=4, data=[28, 0]),
   midi.NoteOnEvent(tick=0, channel=4, data=[28, 127]),
   midi.NoteOnEvent(tick=40, channel=4, data=[28, 0]),
   midi.NoteOnEvent(tick=0, channel=4, data=[28, 127]),
   midi.NoteOnEvent(tick=40, channel=4, data=[28, 0]),
   midi.NoteOnEvent(tick=0, channel=4, data=[28, 127]),
   midi.NoteOnEvent(tick=40, channel=4, data=[28, 0]),
   midi.NoteOnEvent(tick=0, channel=4, data=[40, 127]),
   midi.NoteOnEvent(tick=60, channel=4, data=[40, 0]),
   midi.NoteOnEvent(tick=0, channel=4, data=[28, 127]),
   midi.NoteOnEvent(tick=60, channel=4, data=[28, 0]),
   midi.NoteOnEvent(tick=0, channel=4, data=[28, 127]),
   midi.NoteOnEvent(tick=40, channel=4, data=[28, 0]),
   midi.NoteOnEvent(tick=0, channel=4, data=[28, 127]),
   midi.NoteOnEvent(tick=40, channel=4, data=[28, 0]),
   midi.NoteOnEvent(tick=0, channel=4, data=[28, 127]),
   midi.NoteOnEvent(tick=40, channel=4, data=[28, 0]),
   midi.NoteOnEvent(tick=0, channel=4, data=[41, 127]),
   midi.NoteOnEvent(tick=120, channel=4, data=[41, 0]),
   midi.NoteOnEvent(tick=0, channel=4, data=[41, 127]),
   midi.NoteOnEvent(tick=120, channel=4, data=[41, 0]),
   midi.NoteOnEvent(tick=0, channel=4, data=[52, 127]),
   midi.NoteOnEvent(tick=40, channel=4, data=[52, 0]),
   midi.NoteOnEvent(tick=0, channel=4, data=[50, 127]),
   midi.NoteOnEvent(tick=40, channel=4, data=[50, 0]),
   midi.NoteOnEvent(tick=0, channel=4, data=[47, 127]),
   midi.NoteOnEvent(tick=40, channel=4, data=[47, 0]),
   midi.NoteOnEvent(tick=0, channel=4, data=[50, 127]),
   midi.NoteOnEvent(tick=40, channel=4, data=[50, 0]),
   midi.NoteOnEvent(tick=0, channel=4, data=[47, 127]),
   midi.NoteOnEvent(tick=40, channel=4, data=[47, 0]),
   midi.NoteOnEvent(tick=0, channel=4, data=[46, 127]),
   midi.NoteOnEvent(tick=40, channel=4, data=[46, 0]),
   midi.NoteOnEvent(tick=0, channel=4, data=[45, 127]),
   midi.NoteOnEvent(tick=40, channel=4, data=[45, 0]),
   midi.NoteOnEvent(tick=0, channel=4, data=[43, 127]),
   midi.NoteOnEvent(tick=40, channel=4, data=[43, 0]),
   midi.NoteOnEvent(tick=0, channel=4, data=[45, 127]),
   midi.NoteOnEvent(tick=40, channel=4, data=[45, 0]),
   midi.NoteOnEvent(tick=0, channel=4, data=[40, 127]),
   midi.NoteOnEvent(tick=40, channel=4, data=[40, 0]),
   midi.NoteOnEvent(tick=0, channel=4, data=[43, 127]),
   midi.NoteOnEvent(tick=40, channel=4, data=[43, 0]),
   midi.NoteOnEvent(tick=0, channel=4, data=[45, 127]),
   midi.NoteOnEvent(tick=40, channel=4, data=[45, 0]),
   midi.NoteOnEvent(tick=0, channel=4, data=[52, 127]),
   midi.NoteOnEvent(tick=40, channel=4, data=[52, 0]),
   midi.NoteOnEvent(tick=0, channel=4, data=[50, 127]),
   midi.NoteOnEvent(tick=40, channel=4, data=[50, 0]),
   midi.NoteOnEvent(tick=0, channel=4, data=[47, 127]),
   midi.NoteOnEvent(tick=40, channel=4, data=[47, 0]),
   midi.NoteOnEvent(tick=0, channel=4, data=[50, 127]),
   midi.NoteOnEvent(tick=40, channel=4, data=[50, 0]),
   midi.NoteOnEvent(tick=0, channel=4, data=[47, 127]),
   midi.NoteOnEvent(tick=40, channel=4, data=[47, 0]),
   midi.NoteOnEvent(tick=0, channel=4, data=[46, 127]),
   midi.NoteOnEvent(tick=40, channel=4, data=[46, 0]),
   midi.NoteOnEvent(tick=0, channel=4, data=[45, 127]),
   midi.NoteOnEvent(tick=120, channel=4, data=[45, 0]),
   midi.NoteOnEvent(tick=60, channel=4, data=[36, 127]),
   midi.NoteOnEvent(tick=60, channel=4, data=[36, 0]),
   midi.NoteOnEvent(tick=60, channel=4, data=[37, 127]),
   midi.NoteOnEvent(tick=60, channel=4, data=[37, 0]),
   midi.NoteOnEvent(tick=60, channel=4, data=[38, 127]),
   midi.NoteOnEvent(tick=60, channel=4, data=[38, 0]),
   midi.NoteOnEvent(tick=0, channel=4, data=[28, 127]),
   midi.NoteOnEvent(tick=60, channel=4, data=[28, 0]),
   midi.NoteOnEvent(tick=0, channel=4, data=[28, 127]),
   midi.NoteOnEvent(tick=60, channel=4, data=[28, 0]),
   midi.NoteOnEvent(tick=0, channel=4, data=[33, 127]),
   midi.NoteOnEvent(tick=60, channel=4, data=[33, 0]),
   midi.NoteOnEvent(tick=0, channel=4, data=[35, 127]),
   midi.NoteOnEvent(tick=60, channel=4, data=[35, 0]),
   midi.NoteOnEvent(tick=0, channel=4, data=[41, 127]),
   midi.NoteOnEvent(tick=60, channel=4, data=[41, 0]),
   midi.NoteOnEvent(tick=0, channel=4, data=[40, 127]),
   midi.NoteOnEvent(tick=60, channel=4, data=[40, 0]),
   midi.NoteOnEvent(tick=0, channel=4, data=[38, 127]),
   midi.NoteOnEvent(tick=60, channel=4, data=[38, 0]),
   midi.NoteOnEvent(tick=0, channel=4, data=[40, 127]),
   midi.NoteOnEvent(tick=60, channel=4, data=[40, 0]),
   midi.NoteOnEvent(tick=0, channel=4, data=[28, 127]),
   midi.NoteOnEvent(tick=60, channel=4, data=[28, 0]),
   midi.NoteOnEvent(tick=0, channel=4, data=[28, 127]),
   midi.NoteOnEvent(tick=60, channel=4, data=[28, 0]),
   midi.NoteOnEvent(tick=0, channel=4, data=[28, 127]),
   midi.NoteOnEvent(tick=60, channel=4, data=[28, 0]),
   midi.NoteOnEvent(tick=0, channel=4, data=[36, 127]),
   midi.NoteOnEvent(tick=60, channel=4, data=[36, 0]),
   midi.NoteOnEvent(tick=0, channel=4, data=[28, 127]),
   midi.NoteOnEvent(tick=60, channel=4, data=[28, 0]),
   midi.NoteOnEvent(tick=0, channel=4, data=[37, 127]),
   midi.NoteOnEvent(tick=60, channel=4, data=[37, 0]),
   midi.NoteOnEvent(tick=0, channel=4, data=[28, 127]),
   midi.NoteOnEvent(tick=60, channel=4, data=[28, 0]),
   midi.NoteOnEvent(tick=0, channel=4, data=[38, 127]),
   midi.NoteOnEvent(tick=60, channel=4, data=[38, 0]),
   midi.NoteOnEvent(tick=0, channel=4, data=[28, 127]),
   midi.NoteOnEvent(tick=60, channel=4, data=[28, 0]),
   midi.NoteOnEvent(tick=0, channel=4, data=[28, 127]),
   midi.NoteOnEvent(tick=60, channel=4, data=[28, 0]),
   midi.NoteOnEvent(tick=0, channel=4, data=[33, 127]),
   midi.NoteOnEvent(tick=60, channel=4, data=[33, 0]),
   midi.NoteOnEvent(tick=0, channel=4, data=[35, 127]),
   midi.NoteOnEvent(tick=60, channel=4, data=[35, 0]),
   midi.NoteOnEvent(tick=0, channel=4, data=[41, 127]),
   midi.NoteOnEvent(tick=60, channel=4, data=[41, 0]),
   midi.NoteOnEvent(tick=0, channel=4, data=[40, 127]),
   midi.NoteOnEvent(tick=60, channel=4, data=[40, 0]),
   midi.NoteOnEvent(tick=0, channel=4, data=[38, 127]),
   midi.NoteOnEvent(tick=60, channel=4, data=[38, 0]),
   midi.NoteOnEvent(tick=0, channel=4, data=[40, 127]),
   midi.NoteOnEvent(tick=60, channel=4, data=[40, 0]),
   midi.NoteOnEvent(tick=0, channel=4, data=[28, 127]),
   midi.NoteOnEvent(tick=60, channel=4, data=[28, 0]),
   midi.NoteOnEvent(tick=0, channel=4, data=[28, 127]),
   midi.NoteOnEvent(tick=60, channel=4, data=[28, 0]),
   midi.NoteOnEvent(tick=0, channel=4, data=[28, 127]),
   midi.NoteOnEvent(tick=60, channel=4, data=[28, 0]),
   midi.NoteOnEvent(tick=0, channel=4, data=[36, 127]),
   midi.NoteOnEvent(tick=60, channel=4, data=[36, 0]),
   midi.NoteOnEvent(tick=0, channel=4, data=[28, 127]),
   midi.NoteOnEvent(tick=60, channel=4, data=[28, 0]),
   midi.NoteOnEvent(tick=0, channel=4, data=[37, 127]),
   midi.NoteOnEvent(tick=60, channel=4, data=[37, 0]),
   midi.NoteOnEvent(tick=0, channel=4, data=[28, 127]),
   midi.NoteOnEvent(tick=60, channel=4, data=[28, 0]),
   midi.NoteOnEvent(tick=0, channel=4, data=[38, 127]),
   midi.NoteOnEvent(tick=60, channel=4, data=[38, 0]),
   midi.NoteOnEvent(tick=0, channel=4, data=[28, 127]),
   midi.NoteOnEvent(tick=60, channel=4, data=[28, 0]),
   midi.NoteOnEvent(tick=0, channel=4, data=[28, 127]),
   midi.NoteOnEvent(tick=60, channel=4, data=[28, 0]),
   midi.NoteOnEvent(tick=0, channel=4, data=[33, 127]),
   midi.NoteOnEvent(tick=60, channel=4, data=[33, 0]),
   midi.NoteOnEvent(tick=0, channel=4, data=[35, 127]),
   midi.NoteOnEvent(tick=60, channel=4, data=[35, 0]),
   midi.NoteOnEvent(tick=0, channel=4, data=[41, 127]),
   midi.NoteOnEvent(tick=60, channel=4, data=[41, 0]),
   midi.NoteOnEvent(tick=0, channel=4, data=[40, 127]),
   midi.NoteOnEvent(tick=60, channel=4, data=[40, 0]),
   midi.NoteOnEvent(tick=0, channel=4, data=[38, 127]),
   midi.NoteOnEvent(tick=60, channel=4, data=[38, 0]),
   midi.NoteOnEvent(tick=0, channel=4, data=[40, 127]),
   midi.NoteOnEvent(tick=60, channel=4, data=[40, 0]),
   midi.NoteOnEvent(tick=0, channel=4, data=[28, 127]),
   midi.NoteOnEvent(tick=60, channel=4, data=[28, 0]),
   midi.NoteOnEvent(tick=0, channel=4, data=[28, 127]),
   midi.NoteOnEvent(tick=60, channel=4, data=[28, 0]),
   midi.NoteOnEvent(tick=0, channel=4, data=[28, 127]),
   midi.NoteOnEvent(tick=60, channel=4, data=[28, 0]),
   midi.NoteOnEvent(tick=0, channel=4, data=[36, 127]),
   midi.NoteOnEvent(tick=60, channel=4, data=[36, 0]),
   midi.NoteOnEvent(tick=0, channel=4, data=[28, 127]),
   midi.NoteOnEvent(tick=60, channel=4, data=[28, 0]),
   midi.NoteOnEvent(tick=0, channel=4, data=[37, 127]),
   midi.NoteOnEvent(tick=60, channel=4, data=[37, 0]),
   midi.NoteOnEvent(tick=0, channel=4, data=[28, 127]),
   midi.NoteOnEvent(tick=60, channel=4, data=[28, 0]),
   midi.NoteOnEvent(tick=0, channel=4, data=[38, 127]),
   midi.NoteOnEvent(tick=60, channel=4, data=[38, 0]),
   midi.NoteOnEvent(tick=0, channel=4, data=[28, 127]),
   midi.NoteOnEvent(tick=60, channel=4, data=[28, 0]),
   midi.NoteOnEvent(tick=0, channel=4, data=[28, 127]),
   midi.NoteOnEvent(tick=60, channel=4, data=[28, 0]),
   midi.NoteOnEvent(tick=0, channel=4, data=[33, 127]),
   midi.NoteOnEvent(tick=60, channel=4, data=[33, 0]),
   midi.NoteOnEvent(tick=0, channel=4, data=[35, 127]),
   midi.NoteOnEvent(tick=60, channel=4, data=[35, 0]),
   midi.NoteOnEvent(tick=0, channel=4, data=[41, 127]),
   midi.NoteOnEvent(tick=60, channel=4, data=[41, 0]),
   midi.NoteOnEvent(tick=0, channel=4, data=[40, 127]),
   midi.NoteOnEvent(tick=60, channel=4, data=[40, 0]),
   midi.NoteOnEvent(tick=0, channel=4, data=[38, 127]),
   midi.NoteOnEvent(tick=60, channel=4, data=[38, 0]),
   midi.NoteOnEvent(tick=0, channel=4, data=[40, 127]),
   midi.NoteOnEvent(tick=60, channel=4, data=[40, 0]),
   midi.NoteOnEvent(tick=0, channel=4, data=[28, 127]),
   midi.NoteOnEvent(tick=60, channel=4, data=[28, 0]),
   midi.NoteOnEvent(tick=0, channel=4, data=[28, 127]),
   midi.NoteOnEvent(tick=60, channel=4, data=[28, 0]),
   midi.NoteOnEvent(tick=0, channel=4, data=[28, 127]),
   midi.NoteOnEvent(tick=60, channel=4, data=[28, 0]),
   midi.NoteOnEvent(tick=0, channel=4, data=[36, 127]),
   midi.NoteOnEvent(tick=60, channel=4, data=[36, 0]),
   midi.NoteOnEvent(tick=0, channel=4, data=[28, 127]),
   midi.NoteOnEvent(tick=60, channel=4, data=[28, 0]),
   midi.NoteOnEvent(tick=0, channel=4, data=[37, 127]),
   midi.NoteOnEvent(tick=60, channel=4, data=[37, 0]),
   midi.NoteOnEvent(tick=0, channel=4, data=[28, 127]),
   midi.NoteOnEvent(tick=60, channel=4, data=[28, 0]),
   midi.NoteOnEvent(tick=0, channel=4, data=[38, 127]),
   midi.NoteOnEvent(tick=60, channel=4, data=[38, 0]),
   midi.NoteOnEvent(tick=0, channel=4, data=[28, 127]),
   midi.NoteOnEvent(tick=60, channel=4, data=[28, 0]),
   midi.NoteOnEvent(tick=0, channel=4, data=[28, 127]),
   midi.NoteOnEvent(tick=60, channel=4, data=[28, 0]),
   midi.NoteOnEvent(tick=0, channel=4, data=[33, 127]),
   midi.NoteOnEvent(tick=60, channel=4, data=[33, 0]),
   midi.NoteOnEvent(tick=0, channel=4, data=[35, 127]),
   midi.NoteOnEvent(tick=60, channel=4, data=[35, 0]),
   midi.NoteOnEvent(tick=0, channel=4, data=[41, 127]),
   midi.NoteOnEvent(tick=60, channel=4, data=[41, 0]),
   midi.NoteOnEvent(tick=0, channel=4, data=[40, 127]),
   midi.NoteOnEvent(tick=60, channel=4, data=[40, 0]),
   midi.NoteOnEvent(tick=0, channel=4, data=[38, 127]),
   midi.NoteOnEvent(tick=60, channel=4, data=[38, 0]),
   midi.NoteOnEvent(tick=0, channel=4, data=[40, 127]),
   midi.NoteOnEvent(tick=60, channel=4, data=[40, 0]),
   midi.NoteOnEvent(tick=0, channel=4, data=[28, 127]),
   midi.NoteOnEvent(tick=60, channel=4, data=[28, 0]),
   midi.NoteOnEvent(tick=0, channel=4, data=[28, 127]),
   midi.NoteOnEvent(tick=60, channel=4, data=[28, 0]),
   midi.NoteOnEvent(tick=0, channel=4, data=[28, 127]),
   midi.NoteOnEvent(tick=60, channel=4, data=[28, 0]),
   midi.NoteOnEvent(tick=0, channel=4, data=[36, 127]),
   midi.NoteOnEvent(tick=60, channel=4, data=[36, 0]),
   midi.NoteOnEvent(tick=0, channel=4, data=[28, 127]),
   midi.NoteOnEvent(tick=60, channel=4, data=[28, 0]),
   midi.NoteOnEvent(tick=0, channel=4, data=[37, 127]),
   midi.NoteOnEvent(tick=60, channel=4, data=[37, 0]),
   midi.NoteOnEvent(tick=0, channel=4, data=[28, 127]),
   midi.NoteOnEvent(tick=60, channel=4, data=[28, 0]),
   midi.NoteOnEvent(tick=0, channel=4, data=[38, 127]),
   midi.NoteOnEvent(tick=60, channel=4, data=[38, 0]),
   midi.NoteOnEvent(tick=0, channel=4, data=[28, 127]),
   midi.NoteOnEvent(tick=60, channel=4, data=[28, 0]),
   midi.NoteOnEvent(tick=0, channel=4, data=[28, 127]),
   midi.NoteOnEvent(tick=60, channel=4, data=[28, 0]),
   midi.NoteOnEvent(tick=0, channel=4, data=[33, 127]),
   midi.NoteOnEvent(tick=60, channel=4, data=[33, 0]),
   midi.NoteOnEvent(tick=0, channel=4, data=[35, 127]),
   midi.NoteOnEvent(tick=60, channel=4, data=[35, 0]),
   midi.NoteOnEvent(tick=0, channel=4, data=[41, 127]),
   midi.NoteOnEvent(tick=60, channel=4, data=[41, 0]),
   midi.NoteOnEvent(tick=0, channel=4, data=[40, 127]),
   midi.NoteOnEvent(tick=60, channel=4, data=[40, 0]),
   midi.NoteOnEvent(tick=0, channel=4, data=[38, 127]),
   midi.NoteOnEvent(tick=60, channel=4, data=[38, 0]),
   midi.NoteOnEvent(tick=0, channel=4, data=[40, 127]),
   midi.NoteOnEvent(tick=60, channel=4, data=[40, 0]),
   midi.NoteOnEvent(tick=0, channel=4, data=[28, 127]),
   midi.NoteOnEvent(tick=60, channel=4, data=[28, 0]),
   midi.NoteOnEvent(tick=0, channel=4, data=[28, 127]),
   midi.NoteOnEvent(tick=60, channel=4, data=[28, 0]),
   midi.NoteOnEvent(tick=0, channel=4, data=[28, 127]),
   midi.NoteOnEvent(tick=60, channel=4, data=[28, 0]),
   midi.NoteOnEvent(tick=0, channel=4, data=[36, 127]),
   midi.NoteOnEvent(tick=60, channel=4, data=[36, 0]),
   midi.NoteOnEvent(tick=0, channel=4, data=[28, 127]),
   midi.NoteOnEvent(tick=60, channel=4, data=[28, 0]),
   midi.NoteOnEvent(tick=0, channel=4, data=[37, 127]),
   midi.NoteOnEvent(tick=60, channel=4, data=[37, 0]),
   midi.NoteOnEvent(tick=0, channel=4, data=[28, 127]),
   midi.NoteOnEvent(tick=60, channel=4, data=[28, 0]),
   midi.NoteOnEvent(tick=0, channel=4, data=[38, 127]),
   midi.NoteOnEvent(tick=60, channel=4, data=[38, 0]),
   midi.NoteOnEvent(tick=0, channel=4, data=[28, 127]),
   midi.NoteOnEvent(tick=60, channel=4, data=[28, 0]),
   midi.NoteOnEvent(tick=0, channel=4, data=[28, 127]),
   midi.NoteOnEvent(tick=60, channel=4, data=[28, 0]),
   midi.NoteOnEvent(tick=0, channel=4, data=[33, 127]),
   midi.NoteOnEvent(tick=60, channel=4, data=[33, 0]),
   midi.NoteOnEvent(tick=0, channel=4, data=[35, 127]),
   midi.NoteOnEvent(tick=60, channel=4, data=[35, 0]),
   midi.NoteOnEvent(tick=0, channel=4, data=[41, 127]),
   midi.NoteOnEvent(tick=60, channel=4, data=[41, 0]),
   midi.NoteOnEvent(tick=0, channel=4, data=[40, 127]),
   midi.NoteOnEvent(tick=60, channel=4, data=[40, 0]),
   midi.NoteOnEvent(tick=0, channel=4, data=[38, 127]),
   midi.NoteOnEvent(tick=60, channel=4, data=[38, 0]),
   midi.NoteOnEvent(tick=0, channel=4, data=[40, 127]),
   midi.NoteOnEvent(tick=60, channel=4, data=[40, 0]),
   midi.NoteOnEvent(tick=0, channel=4, data=[28, 127]),
   midi.NoteOnEvent(tick=60, channel=4, data=[28, 0]),
   midi.NoteOnEvent(tick=0, channel=4, data=[28, 127]),
   midi.NoteOnEvent(tick=60, channel=4, data=[28, 0]),
   midi.NoteOnEvent(tick=0, channel=4, data=[28, 127]),
   midi.NoteOnEvent(tick=60, channel=4, data=[28, 0]),
   midi.NoteOnEvent(tick=0, channel=4, data=[36, 127]),
   midi.NoteOnEvent(tick=60, channel=4, data=[36, 0]),
   midi.NoteOnEvent(tick=0, channel=4, data=[28, 127]),
   midi.NoteOnEvent(tick=60, channel=4, data=[28, 0]),
   midi.NoteOnEvent(tick=0, channel=4, data=[37, 127]),
   midi.NoteOnEvent(tick=60, channel=4, data=[37, 0]),
   midi.NoteOnEvent(tick=0, channel=4, data=[28, 127]),
   midi.NoteOnEvent(tick=60, channel=4, data=[28, 0]),
   midi.NoteOnEvent(tick=0, channel=4, data=[38, 127]),
   midi.NoteOnEvent(tick=60, channel=4, data=[38, 0]),
   midi.NoteOnEvent(tick=0, channel=4, data=[28, 127]),
   midi.NoteOnEvent(tick=60, channel=4, data=[28, 0]),
   midi.NoteOnEvent(tick=0, channel=4, data=[28, 127]),
   midi.NoteOnEvent(tick=60, channel=4, data=[28, 0]),
   midi.NoteOnEvent(tick=0, channel=4, data=[33, 127]),
   midi.NoteOnEvent(tick=60, channel=4, data=[33, 0]),
   midi.NoteOnEvent(tick=0, channel=4, data=[35, 127]),
   midi.NoteOnEvent(tick=60, channel=4, data=[35, 0]),
   midi.NoteOnEvent(tick=0, channel=4, data=[41, 127]),
   midi.NoteOnEvent(tick=60, channel=4, data=[41, 0]),
   midi.NoteOnEvent(tick=0, channel=4, data=[40, 127]),
   midi.NoteOnEvent(tick=60, channel=4, data=[40, 0]),
   midi.NoteOnEvent(tick=0, channel=4, data=[38, 127]),
   midi.NoteOnEvent(tick=60, channel=4, data=[38, 0]),
   midi.NoteOnEvent(tick=0, channel=4, data=[40, 127]),
   midi.NoteOnEvent(tick=60, channel=4, data=[40, 0]),
   midi.NoteOnEvent(tick=0, channel=4, data=[28, 127]),
   midi.NoteOnEvent(tick=60, channel=4, data=[28, 0]),
   midi.NoteOnEvent(tick=0, channel=4, data=[28, 127]),
   midi.NoteOnEvent(tick=60, channel=4, data=[28, 0]),
   midi.NoteOnEvent(tick=0, channel=4, data=[28, 127]),
   midi.NoteOnEvent(tick=60, channel=4, data=[28, 0]),
   midi.NoteOnEvent(tick=0, channel=4, data=[36, 127]),
   midi.NoteOnEvent(tick=60, channel=4, data=[36, 0]),
   midi.NoteOnEvent(tick=0, channel=4, data=[28, 127]),
   midi.NoteOnEvent(tick=60, channel=4, data=[28, 0]),
   midi.NoteOnEvent(tick=0, channel=4, data=[37, 127]),
   midi.NoteOnEvent(tick=60, channel=4, data=[37, 0]),
   midi.NoteOnEvent(tick=0, channel=4, data=[28, 127]),
   midi.NoteOnEvent(tick=60, channel=4, data=[28, 0]),
   midi.NoteOnEvent(tick=0, channel=4, data=[38, 127]),
   midi.NoteOnEvent(tick=60, channel=4, data=[38, 0]),
   midi.NoteOnEvent(tick=0, channel=4, data=[28, 127]),
   midi.NoteOnEvent(tick=60, channel=4, data=[28, 0]),
   midi.NoteOnEvent(tick=0, channel=4, data=[28, 127]),
   midi.NoteOnEvent(tick=60, channel=4, data=[28, 0]),
   midi.NoteOnEvent(tick=0, channel=4, data=[28, 127]),
   midi.NoteOnEvent(tick=60, channel=4, data=[28, 0]),
   midi.NoteOnEvent(tick=0, channel=4, data=[28, 127]),
   midi.NoteOnEvent(tick=60, channel=4, data=[28, 0]),
   midi.NoteOnEvent(tick=0, channel=4, data=[28, 127]),
   midi.NoteOnEvent(tick=60, channel=4, data=[28, 0]),
   midi.NoteOnEvent(tick=0, channel=4, data=[28, 127]),
   midi.NoteOnEvent(tick=60, channel=4, data=[28, 0]),
   midi.NoteOnEvent(tick=0, channel=4, data=[28, 127]),
   midi.NoteOnEvent(tick=60, channel=4, data=[28, 0]),
   midi.NoteOnEvent(tick=0, channel=4, data=[28, 127]),
   midi.NoteOnEvent(tick=60, channel=4, data=[28, 0]),
   midi.NoteOnEvent(tick=0, channel=4, data=[28, 127]),
   midi.NoteOnEvent(tick=60, channel=4, data=[28, 0]),
   midi.NoteOnEvent(tick=0, channel=4, data=[28, 127]),
   midi.NoteOnEvent(tick=60, channel=4, data=[28, 0]),
   midi.NoteOnEvent(tick=0, channel=4, data=[28, 127]),
   midi.NoteOnEvent(tick=60, channel=4, data=[28, 0]),
   midi.NoteOnEvent(tick=0, channel=4, data=[36, 127]),
   midi.NoteOnEvent(tick=60, channel=4, data=[36, 0]),
   midi.NoteOnEvent(tick=0, channel=4, data=[28, 127]),
   midi.NoteOnEvent(tick=60, channel=4, data=[28, 0]),
   midi.NoteOnEvent(tick=0, channel=4, data=[37, 127]),
   midi.NoteOnEvent(tick=60, channel=4, data=[37, 0]),
   midi.NoteOnEvent(tick=0, channel=4, data=[28, 127]),
   midi.NoteOnEvent(tick=60, channel=4, data=[28, 0]),
   midi.NoteOnEvent(tick=0, channel=4, data=[38, 127]),
   midi.NoteOnEvent(tick=60, channel=4, data=[38, 0]),
   midi.NoteOnEvent(tick=0, channel=4, data=[28, 127]),
   midi.NoteOnEvent(tick=60, channel=4, data=[28, 0]),
   midi.NoteOnEvent(tick=0, channel=4, data=[28, 127]),
   midi.NoteOnEvent(tick=60, channel=4, data=[28, 0]),
   midi.NoteOnEvent(tick=0, channel=4, data=[28, 127]),
   midi.NoteOnEvent(tick=60, channel=4, data=[28, 0]),
   midi.NoteOnEvent(tick=0, channel=4, data=[28, 127]),
   midi.NoteOnEvent(tick=60, channel=4, data=[28, 0]),
   midi.NoteOnEvent(tick=0, channel=4, data=[28, 127]),
   midi.NoteOnEvent(tick=60, channel=4, data=[28, 0]),
   midi.NoteOnEvent(tick=0, channel=4, data=[28, 127]),
   midi.NoteOnEvent(tick=60, channel=4, data=[28, 0]),
   midi.NoteOnEvent(tick=0, channel=4, data=[28, 127]),
   midi.NoteOnEvent(tick=60, channel=4, data=[28, 0]),
   midi.NoteOnEvent(tick=0, channel=4, data=[28, 127]),
   midi.NoteOnEvent(tick=60, channel=4, data=[28, 0]),
   midi.NoteOnEvent(tick=0, channel=4, data=[28, 127]),
   midi.NoteOnEvent(tick=60, channel=4, data=[28, 0]),
   midi.NoteOnEvent(tick=0, channel=4, data=[28, 127]),
   midi.NoteOnEvent(tick=60, channel=4, data=[28, 0]),
   midi.NoteOnEvent(tick=0, channel=4, data=[28, 127]),
   midi.NoteOnEvent(tick=60, channel=4, data=[28, 0]),
   midi.NoteOnEvent(tick=0, channel=4, data=[36, 127]),
   midi.NoteOnEvent(tick=60, channel=4, data=[36, 0]),
   midi.NoteOnEvent(tick=0, channel=4, data=[28, 127]),
   midi.NoteOnEvent(tick=60, channel=4, data=[28, 0]),
   midi.NoteOnEvent(tick=0, channel=4, data=[37, 127]),
   midi.NoteOnEvent(tick=60, channel=4, data=[37, 0]),
   midi.NoteOnEvent(tick=0, channel=4, data=[28, 127]),
   midi.NoteOnEvent(tick=60, channel=4, data=[28, 0]),
   midi.NoteOnEvent(tick=0, channel=4, data=[38, 127]),
   midi.NoteOnEvent(tick=60, channel=4, data=[38, 0]),
   midi.NoteOnEvent(tick=0, channel=4, data=[28, 127]),
   midi.NoteOnEvent(tick=60, channel=4, data=[28, 0]),
   midi.NoteOnEvent(tick=0, channel=4, data=[28, 127]),
   midi.NoteOnEvent(tick=60, channel=4, data=[28, 0]),
   midi.NoteOnEvent(tick=0, channel=4, data=[28, 127]),
   midi.NoteOnEvent(tick=60, channel=4, data=[28, 0]),
   midi.NoteOnEvent(tick=0, channel=4, data=[28, 127]),
   midi.NoteOnEvent(tick=60, channel=4, data=[28, 0]),
   midi.NoteOnEvent(tick=0, channel=4, data=[28, 127]),
   midi.NoteOnEvent(tick=60, channel=4, data=[28, 0]),
   midi.NoteOnEvent(tick=0, channel=4, data=[28, 127]),
   midi.NoteOnEvent(tick=60, channel=4, data=[28, 0]),
   midi.NoteOnEvent(tick=0, channel=4, data=[28, 127]),
   midi.NoteOnEvent(tick=60, channel=4, data=[28, 0]),
   midi.NoteOnEvent(tick=0, channel=4, data=[28, 127]),
   midi.NoteOnEvent(tick=60, channel=4, data=[28, 0]),
   midi.NoteOnEvent(tick=0, channel=4, data=[28, 127]),
   midi.NoteOnEvent(tick=60, channel=4, data=[28, 0]),
   midi.NoteOnEvent(tick=0, channel=4, data=[28, 127]),
   midi.NoteOnEvent(tick=60, channel=4, data=[28, 0]),
   midi.NoteOnEvent(tick=0, channel=4, data=[28, 127]),
   midi.NoteOnEvent(tick=60, channel=4, data=[28, 0]),
   midi.NoteOnEvent(tick=0, channel=4, data=[36, 127]),
   midi.NoteOnEvent(tick=60, channel=4, data=[36, 0]),
   midi.NoteOnEvent(tick=0, channel=4, data=[28, 127]),
   midi.NoteOnEvent(tick=60, channel=4, data=[28, 0]),
   midi.NoteOnEvent(tick=0, channel=4, data=[37, 127]),
   midi.NoteOnEvent(tick=60, channel=4, data=[37, 0]),
   midi.NoteOnEvent(tick=0, channel=4, data=[28, 127]),
   midi.NoteOnEvent(tick=60, channel=4, data=[28, 0]),
   midi.NoteOnEvent(tick=0, channel=4, data=[38, 127]),
   midi.NoteOnEvent(tick=60, channel=4, data=[38, 0]),
   midi.NoteOnEvent(tick=0, channel=4, data=[28, 127]),
   midi.NoteOnEvent(tick=60, channel=4, data=[28, 0]),
   midi.NoteOnEvent(tick=0, channel=4, data=[28, 127]),
   midi.NoteOnEvent(tick=60, channel=4, data=[28, 0]),
   midi.NoteOnEvent(tick=0, channel=4, data=[28, 127]),
   midi.NoteOnEvent(tick=60, channel=4, data=[28, 0]),
   midi.NoteOnEvent(tick=0, channel=4, data=[28, 127]),
   midi.NoteOnEvent(tick=60, channel=4, data=[28, 0]),
   midi.NoteOnEvent(tick=0, channel=4, data=[28, 127]),
   midi.NoteOnEvent(tick=60, channel=4, data=[28, 0]),
   midi.NoteOnEvent(tick=0, channel=4, data=[28, 127]),
   midi.NoteOnEvent(tick=60, channel=4, data=[28, 0]),
   midi.NoteOnEvent(tick=0, channel=4, data=[28, 127]),
   midi.NoteOnEvent(tick=60, channel=4, data=[28, 0]),
   midi.NoteOnEvent(tick=0, channel=4, data=[28, 127]),
   midi.NoteOnEvent(tick=60, channel=4, data=[28, 0]),
   midi.NoteOnEvent(tick=0, channel=4, data=[28, 127]),
   midi.NoteOnEvent(tick=60, channel=4, data=[28, 0]),
   midi.NoteOnEvent(tick=0, channel=4, data=[28, 127]),
   midi.NoteOnEvent(tick=60, channel=4, data=[28, 0]),
   midi.NoteOnEvent(tick=0, channel=4, data=[28, 127]),
   midi.NoteOnEvent(tick=60, channel=4, data=[28, 0]),
   midi.NoteOnEvent(tick=0, channel=4, data=[36, 127]),
   midi.NoteOnEvent(tick=60, channel=4, data=[36, 0]),
   midi.NoteOnEvent(tick=0, channel=4, data=[28, 127]),
   midi.NoteOnEvent(tick=60, channel=4, data=[28, 0]),
   midi.NoteOnEvent(tick=0, channel=4, data=[37, 127]),
   midi.NoteOnEvent(tick=60, channel=4, data=[37, 0]),
   midi.NoteOnEvent(tick=0, channel=4, data=[28, 127]),
   midi.NoteOnEvent(tick=60, channel=4, data=[28, 0]),
   midi.NoteOnEvent(tick=0, channel=4, data=[38, 127]),
   midi.NoteOnEvent(tick=60, channel=4, data=[38, 0]),
   midi.NoteOnEvent(tick=0, channel=4, data=[28, 127]),
   midi.NoteOnEvent(tick=60, channel=4, data=[28, 0]),
   midi.NoteOnEvent(tick=0, channel=4, data=[28, 127]),
   midi.NoteOnEvent(tick=60, channel=4, data=[28, 0]),
   midi.NoteOnEvent(tick=0, channel=4, data=[28, 127]),
   midi.NoteOnEvent(tick=60, channel=4, data=[28, 0]),
   midi.NoteOnEvent(tick=0, channel=4, data=[28, 127]),
   midi.NoteOnEvent(tick=60, channel=4, data=[28, 0]),
   midi.NoteOnEvent(tick=0, channel=4, data=[28, 127]),
   midi.NoteOnEvent(tick=60, channel=4, data=[28, 0]),
   midi.NoteOnEvent(tick=0, channel=4, data=[28, 127]),
   midi.NoteOnEvent(tick=60, channel=4, data=[28, 0]),
   midi.NoteOnEvent(tick=0, channel=4, data=[28, 127]),
   midi.NoteOnEvent(tick=60, channel=4, data=[28, 0]),
   midi.NoteOnEvent(tick=0, channel=4, data=[28, 127]),
   midi.NoteOnEvent(tick=60, channel=4, data=[28, 0]),
   midi.NoteOnEvent(tick=0, channel=4, data=[28, 127]),
   midi.NoteOnEvent(tick=60, channel=4, data=[28, 0]),
   midi.NoteOnEvent(tick=0, channel=4, data=[28, 127]),
   midi.NoteOnEvent(tick=60, channel=4, data=[28, 0]),
   midi.NoteOnEvent(tick=0, channel=4, data=[28, 127]),
   midi.NoteOnEvent(tick=60, channel=4, data=[28, 0]),
   midi.NoteOnEvent(tick=0, channel=4, data=[36, 127]),
   midi.NoteOnEvent(tick=60, channel=4, data=[36, 0]),
   midi.NoteOnEvent(tick=0, channel=4, data=[28, 127]),
   midi.NoteOnEvent(tick=60, channel=4, data=[28, 0]),
   midi.NoteOnEvent(tick=0, channel=4, data=[37, 127]),
   midi.NoteOnEvent(tick=60, channel=4, data=[37, 0]),
   midi.NoteOnEvent(tick=0, channel=4, data=[28, 127]),
   midi.NoteOnEvent(tick=60, channel=4, data=[28, 0]),
   midi.NoteOnEvent(tick=0, channel=4, data=[38, 127]),
   midi.NoteOnEvent(tick=60, channel=4, data=[38, 0]),
   midi.NoteOnEvent(tick=0, channel=4, data=[28, 127]),
   midi.NoteOnEvent(tick=60, channel=4, data=[28, 0]),
   midi.NoteOnEvent(tick=0, channel=4, data=[28, 127]),
   midi.NoteOnEvent(tick=60, channel=4, data=[28, 0]),
   midi.NoteOnEvent(tick=0, channel=4, data=[28, 127]),
   midi.NoteOnEvent(tick=60, channel=4, data=[28, 0]),
   midi.NoteOnEvent(tick=0, channel=4, data=[28, 127]),
   midi.NoteOnEvent(tick=60, channel=4, data=[28, 0]),
   midi.NoteOnEvent(tick=0, channel=4, data=[28, 127]),
   midi.NoteOnEvent(tick=60, channel=4, data=[28, 0]),
   midi.NoteOnEvent(tick=0, channel=4, data=[28, 127]),
   midi.NoteOnEvent(tick=60, channel=4, data=[28, 0]),
   midi.NoteOnEvent(tick=0, channel=4, data=[28, 127]),
   midi.NoteOnEvent(tick=60, channel=4, data=[28, 0]),
   midi.NoteOnEvent(tick=0, channel=4, data=[28, 127]),
   midi.NoteOnEvent(tick=60, channel=4, data=[28, 0]),
   midi.NoteOnEvent(tick=0, channel=4, data=[28, 127]),
   midi.NoteOnEvent(tick=60, channel=4, data=[28, 0]),
   midi.NoteOnEvent(tick=0, channel=4, data=[28, 127]),
   midi.NoteOnEvent(tick=60, channel=4, data=[28, 0]),
   midi.NoteOnEvent(tick=0, channel=4, data=[28, 127]),
   midi.NoteOnEvent(tick=60, channel=4, data=[28, 0]),
   midi.NoteOnEvent(tick=0, channel=4, data=[36, 127]),
   midi.NoteOnEvent(tick=60, channel=4, data=[36, 0]),
   midi.NoteOnEvent(tick=0, channel=4, data=[28, 127]),
   midi.NoteOnEvent(tick=60, channel=4, data=[28, 0]),
   midi.NoteOnEvent(tick=0, channel=4, data=[37, 127]),
   midi.NoteOnEvent(tick=60, channel=4, data=[37, 0]),
   midi.NoteOnEvent(tick=0, channel=4, data=[28, 127]),
   midi.NoteOnEvent(tick=60, channel=4, data=[28, 0]),
   midi.NoteOnEvent(tick=0, channel=4, data=[38, 127]),
   midi.NoteOnEvent(tick=60, channel=4, data=[38, 0]),
   midi.NoteOnEvent(tick=0, channel=4, data=[28, 127]),
   midi.NoteOnEvent(tick=60, channel=4, data=[28, 0]),
   midi.NoteOnEvent(tick=0, channel=4, data=[28, 127]),
   midi.NoteOnEvent(tick=60, channel=4, data=[28, 0]),
   midi.NoteOnEvent(tick=0, channel=4, data=[28, 127]),
   midi.NoteOnEvent(tick=60, channel=4, data=[28, 0]),
   midi.NoteOnEvent(tick=0, channel=4, data=[28, 127]),
   midi.NoteOnEvent(tick=60, channel=4, data=[28, 0]),
   midi.NoteOnEvent(tick=0, channel=4, data=[28, 127]),
   midi.NoteOnEvent(tick=60, channel=4, data=[28, 0]),
   midi.NoteOnEvent(tick=0, channel=4, data=[28, 127]),
   midi.NoteOnEvent(tick=60, channel=4, data=[28, 0]),
   midi.NoteOnEvent(tick=0, channel=4, data=[28, 127]),
   midi.NoteOnEvent(tick=60, channel=4, data=[28, 0]),
   midi.NoteOnEvent(tick=0, channel=4, data=[28, 127]),
   midi.NoteOnEvent(tick=60, channel=4, data=[28, 0]),
   midi.NoteOnEvent(tick=0, channel=4, data=[28, 127]),
   midi.NoteOnEvent(tick=60, channel=4, data=[28, 0]),
   midi.NoteOnEvent(tick=0, channel=4, data=[28, 127]),
   midi.NoteOnEvent(tick=60, channel=4, data=[28, 0]),
   midi.NoteOnEvent(tick=0, channel=4, data=[28, 127]),
   midi.NoteOnEvent(tick=60, channel=4, data=[28, 0]),
   midi.NoteOnEvent(tick=0, channel=4, data=[36, 127]),
   midi.NoteOnEvent(tick=60, channel=4, data=[36, 0]),
   midi.NoteOnEvent(tick=0, channel=4, data=[28, 127]),
   midi.NoteOnEvent(tick=60, channel=4, data=[28, 0]),
   midi.NoteOnEvent(tick=0, channel=4, data=[37, 127]),
   midi.NoteOnEvent(tick=60, channel=4, data=[37, 0]),
   midi.NoteOnEvent(tick=0, channel=4, data=[28, 127]),
   midi.NoteOnEvent(tick=60, channel=4, data=[28, 0]),
   midi.NoteOnEvent(tick=0, channel=4, data=[38, 127]),
   midi.NoteOnEvent(tick=60, channel=4, data=[38, 0]),
   midi.NoteOnEvent(tick=0, channel=4, data=[28, 127]),
   midi.NoteOnEvent(tick=60, channel=4, data=[28, 0]),
   midi.NoteOnEvent(tick=0, channel=4, data=[28, 127]),
   midi.NoteOnEvent(tick=60, channel=4, data=[28, 0]),
   midi.NoteOnEvent(tick=0, channel=4, data=[28, 127]),
   midi.NoteOnEvent(tick=60, channel=4, data=[28, 0]),
   midi.NoteOnEvent(tick=0, channel=4, data=[28, 127]),
   midi.NoteOnEvent(tick=60, channel=4, data=[28, 0]),
   midi.NoteOnEvent(tick=0, channel=4, data=[28, 127]),
   midi.NoteOnEvent(tick=60, channel=4, data=[28, 0]),
   midi.NoteOnEvent(tick=0, channel=4, data=[28, 127]),
   midi.NoteOnEvent(tick=60, channel=4, data=[28, 0]),
   midi.NoteOnEvent(tick=0, channel=4, data=[28, 127]),
   midi.NoteOnEvent(tick=60, channel=4, data=[28, 0]),
   midi.NoteOnEvent(tick=0, channel=4, data=[28, 127]),
   midi.NoteOnEvent(tick=60, channel=4, data=[28, 0]),
   midi.NoteOnEvent(tick=0, channel=4, data=[28, 127]),
   midi.NoteOnEvent(tick=60, channel=4, data=[28, 0]),
   midi.NoteOnEvent(tick=0, channel=4, data=[28, 127]),
   midi.NoteOnEvent(tick=60, channel=4, data=[28, 0]),
   midi.NoteOnEvent(tick=0, channel=4, data=[28, 127]),
   midi.NoteOnEvent(tick=60, channel=4, data=[28, 0]),
   midi.NoteOnEvent(tick=0, channel=4, data=[36, 127]),
   midi.NoteOnEvent(tick=60, channel=4, data=[36, 0]),
   midi.NoteOnEvent(tick=0, channel=4, data=[28, 127]),
   midi.NoteOnEvent(tick=60, channel=4, data=[28, 0]),
   midi.NoteOnEvent(tick=0, channel=4, data=[37, 127]),
   midi.NoteOnEvent(tick=60, channel=4, data=[37, 0]),
   midi.NoteOnEvent(tick=0, channel=4, data=[28, 127]),
   midi.NoteOnEvent(tick=60, channel=4, data=[28, 0]),
   midi.NoteOnEvent(tick=0, channel=4, data=[38, 127]),
   midi.NoteOnEvent(tick=60, channel=4, data=[38, 0]),
   midi.NoteOnEvent(tick=0, channel=4, data=[52, 127]),
   midi.NoteOnEvent(tick=40, channel=4, data=[52, 0]),
   midi.NoteOnEvent(tick=0, channel=4, data=[50, 127]),
   midi.NoteOnEvent(tick=40, channel=4, data=[50, 0]),
   midi.NoteOnEvent(tick=0, channel=4, data=[47, 127]),
   midi.NoteOnEvent(tick=40, channel=4, data=[47, 0]),
   midi.NoteOnEvent(tick=0, channel=4, data=[50, 127]),
   midi.NoteOnEvent(tick=40, channel=4, data=[50, 0]),
   midi.NoteOnEvent(tick=0, channel=4, data=[47, 127]),
   midi.NoteOnEvent(tick=40, channel=4, data=[47, 0]),
   midi.NoteOnEvent(tick=0, channel=4, data=[46, 127]),
   midi.NoteOnEvent(tick=40, channel=4, data=[46, 0]),
   midi.NoteOnEvent(tick=0, channel=4, data=[45, 127]),
   midi.NoteOnEvent(tick=40, channel=4, data=[45, 0]),
   midi.NoteOnEvent(tick=0, channel=4, data=[43, 127]),
   midi.NoteOnEvent(tick=40, channel=4, data=[43, 0]),
   midi.NoteOnEvent(tick=0, channel=4, data=[45, 127]),
   midi.NoteOnEvent(tick=40, channel=4, data=[45, 0]),
   midi.NoteOnEvent(tick=0, channel=4, data=[40, 127]),
   midi.NoteOnEvent(tick=40, channel=4, data=[40, 0]),
   midi.NoteOnEvent(tick=0, channel=4, data=[43, 127]),
   midi.NoteOnEvent(tick=40, channel=4, data=[43, 0]),
   midi.NoteOnEvent(tick=0, channel=4, data=[45, 127]),
   midi.NoteOnEvent(tick=40, channel=4, data=[45, 0]),
   midi.NoteOnEvent(tick=0, channel=4, data=[52, 127]),
   midi.NoteOnEvent(tick=40, channel=4, data=[52, 0]),
   midi.NoteOnEvent(tick=0, channel=4, data=[50, 127]),
   midi.NoteOnEvent(tick=40, channel=4, data=[50, 0]),
   midi.NoteOnEvent(tick=0, channel=4, data=[47, 127]),
   midi.NoteOnEvent(tick=40, channel=4, data=[47, 0]),
   midi.NoteOnEvent(tick=0, channel=4, data=[50, 127]),
   midi.NoteOnEvent(tick=40, channel=4, data=[50, 0]),
   midi.NoteOnEvent(tick=0, channel=4, data=[47, 127]),
   midi.NoteOnEvent(tick=40, channel=4, data=[47, 0]),
   midi.NoteOnEvent(tick=0, channel=4, data=[46, 127]),
   midi.NoteOnEvent(tick=40, channel=4, data=[46, 0]),
   midi.NoteOnEvent(tick=0, channel=4, data=[45, 127]),
   midi.NoteOnEvent(tick=40, channel=4, data=[45, 0]),
   midi.NoteOnEvent(tick=0, channel=4, data=[43, 127]),
   midi.NoteOnEvent(tick=40, channel=4, data=[43, 0]),
   midi.NoteOnEvent(tick=0, channel=4, data=[45, 127]),
   midi.NoteOnEvent(tick=40, channel=4, data=[45, 0]),
   midi.NoteOnEvent(tick=0, channel=4, data=[40, 127]),
   midi.NoteOnEvent(tick=40, channel=4, data=[40, 0]),
   midi.NoteOnEvent(tick=0, channel=4, data=[43, 127]),
   midi.NoteOnEvent(tick=40, channel=4, data=[43, 0]),
   midi.NoteOnEvent(tick=0, channel=4, data=[45, 127]),
   midi.NoteOnEvent(tick=40, channel=4, data=[45, 0]),
   midi.NoteOnEvent(tick=0, channel=4, data=[28, 127]),
   midi.NoteOnEvent(tick=60, channel=4, data=[28, 0]),
   midi.NoteOnEvent(tick=0, channel=4, data=[28, 127]),
   midi.NoteOnEvent(tick=60, channel=4, data=[28, 0]),
   midi.NoteOnEvent(tick=0, channel=4, data=[40, 127]),
   midi.NoteOnEvent(tick=30, channel=4, data=[40, 0]),
   midi.NoteOnEvent(tick=0, channel=4, data=[40, 127]),
   midi.NoteOnEvent(tick=30, channel=4, data=[40, 0]),
   midi.NoteOnEvent(tick=0, channel=4, data=[40, 127]),
   midi.NoteOnEvent(tick=30, channel=4, data=[40, 0]),
   midi.NoteOnEvent(tick=0, channel=4, data=[40, 127]),
   midi.NoteOnEvent(tick=30, channel=4, data=[40, 0]),
   midi.NoteOnEvent(tick=0, channel=4, data=[38, 127]),
   midi.NoteOnEvent(tick=60, channel=4, data=[38, 0]),
   midi.NoteOnEvent(tick=0, channel=4, data=[38, 127]),
   midi.NoteOnEvent(tick=60, channel=4, data=[38, 0]),
   midi.NoteOnEvent(tick=0, channel=4, data=[38, 127]),
   midi.NoteOnEvent(tick=30, channel=4, data=[38, 0]),
   midi.NoteOnEvent(tick=0, channel=4, data=[38, 127]),
   midi.NoteOnEvent(tick=30, channel=4, data=[38, 0]),
   midi.NoteOnEvent(tick=0, channel=4, data=[40, 127]),
   midi.NoteOnEvent(tick=30, channel=4, data=[40, 0]),
   midi.NoteOnEvent(tick=0, channel=4, data=[38, 127]),
   midi.NoteOnEvent(tick=30, channel=4, data=[38, 0]),
   midi.NoteOnEvent(tick=0, channel=4, data=[36, 127]),
   midi.NoteOnEvent(tick=60, channel=4, data=[36, 0]),
   midi.NoteOnEvent(tick=0, channel=4, data=[36, 127]),
   midi.NoteOnEvent(tick=60, channel=4, data=[36, 0]),
   midi.NoteOnEvent(tick=0, channel=4, data=[36, 127]),
   midi.NoteOnEvent(tick=30, channel=4, data=[36, 0]),
   midi.NoteOnEvent(tick=0, channel=4, data=[36, 127]),
   midi.NoteOnEvent(tick=30, channel=4, data=[36, 0]),
   midi.NoteOnEvent(tick=0, channel=4, data=[36, 127]),
   midi.NoteOnEvent(tick=30, channel=4, data=[36, 0]),
   midi.NoteOnEvent(tick=0, channel=4, data=[33, 127]),
   midi.NoteOnEvent(tick=30, channel=4, data=[33, 0]),
   midi.NoteOnEvent(tick=0, channel=4, data=[35, 127]),
   midi.NoteOnEvent(tick=60, channel=4, data=[35, 0]),
   midi.NoteOnEvent(tick=0, channel=4, data=[35, 127]),
   midi.NoteOnEvent(tick=60, channel=4, data=[35, 0]),
   midi.NoteOnEvent(tick=0, channel=4, data=[35, 127]),
   midi.NoteOnEvent(tick=60, channel=4, data=[35, 0]),
   midi.NoteOnEvent(tick=0, channel=4, data=[42, 127]),
   midi.NoteOnEvent(tick=60, channel=4, data=[42, 0]),
   midi.NoteOnEvent(tick=0, channel=4, data=[28, 127]),
   midi.NoteOnEvent(tick=60, channel=4, data=[28, 0]),
   midi.NoteOnEvent(tick=0, channel=4, data=[28, 127]),
   midi.NoteOnEvent(tick=60, channel=4, data=[28, 0]),
   midi.NoteOnEvent(tick=0, channel=4, data=[28, 127]),
   midi.NoteOnEvent(tick=30, channel=4, data=[28, 0]),
   midi.NoteOnEvent(tick=0, channel=4, data=[28, 127]),
   midi.NoteOnEvent(tick=30, channel=4, data=[28, 0]),
   midi.NoteOnEvent(tick=0, channel=4, data=[28, 127]),
   midi.NoteOnEvent(tick=30, channel=4, data=[28, 0]),
   midi.NoteOnEvent(tick=0, channel=4, data=[28, 127]),
   midi.NoteOnEvent(tick=30, channel=4, data=[28, 0]),
   midi.NoteOnEvent(tick=0, channel=4, data=[30, 127]),
   midi.NoteOnEvent(tick=60, channel=4, data=[30, 0]),
   midi.NoteOnEvent(tick=0, channel=4, data=[30, 127]),
   midi.NoteOnEvent(tick=60, channel=4, data=[30, 0]),
   midi.NoteOnEvent(tick=0, channel=4, data=[31, 127]),
   midi.NoteOnEvent(tick=30, channel=4, data=[31, 0]),
   midi.NoteOnEvent(tick=0, channel=4, data=[30, 127]),
   midi.NoteOnEvent(tick=30, channel=4, data=[30, 0]),
   midi.NoteOnEvent(tick=0, channel=4, data=[28, 127]),
   midi.NoteOnEvent(tick=30, channel=4, data=[28, 0]),
   midi.NoteOnEvent(tick=0, channel=4, data=[30, 127]),
   midi.NoteOnEvent(tick=30, channel=4, data=[30, 0]),
   midi.NoteOnEvent(tick=0, channel=4, data=[31, 127]),
   midi.NoteOnEvent(tick=60, channel=4, data=[31, 0]),
   midi.NoteOnEvent(tick=0, channel=4, data=[31, 127]),
   midi.NoteOnEvent(tick=60, channel=4, data=[31, 0]),
   midi.NoteOnEvent(tick=0, channel=4, data=[31, 127]),
   midi.NoteOnEvent(tick=30, channel=4, data=[31, 0]),
   midi.NoteOnEvent(tick=0, channel=4, data=[31, 127]),
   midi.NoteOnEvent(tick=30, channel=4, data=[31, 0]),
   midi.NoteOnEvent(tick=0, channel=4, data=[31, 127]),
   midi.NoteOnEvent(tick=30, channel=4, data=[31, 0]),
   midi.NoteOnEvent(tick=30, channel=4, data=[35, 127]),
   midi.NoteOnEvent(tick=30, channel=4, data=[35, 0]),
   midi.NoteOnEvent(tick=0, channel=4, data=[35, 127]),
   midi.NoteOnEvent(tick=30, channel=4, data=[35, 0]),
   midi.NoteOnEvent(tick=0, channel=4, data=[35, 127]),
   midi.NoteOnEvent(tick=30, channel=4, data=[35, 0]),
   midi.NoteOnEvent(tick=0, channel=4, data=[35, 127]),
   midi.NoteOnEvent(tick=30, channel=4, data=[35, 0]),
   midi.NoteOnEvent(tick=0, channel=4, data=[35, 127]),
   midi.NoteOnEvent(tick=30, channel=4, data=[35, 0]),
   midi.NoteOnEvent(tick=0, channel=4, data=[35, 127]),
   midi.NoteOnEvent(tick=30, channel=4, data=[35, 0]),
   midi.NoteOnEvent(tick=0, channel=4, data=[38, 127]),
   midi.NoteOnEvent(tick=60, channel=4, data=[38, 0]),
   midi.NoteOnEvent(tick=0, channel=4, data=[40, 127]),
   midi.NoteOnEvent(tick=60, channel=4, data=[40, 0]),
   midi.NoteOnEvent(tick=0, channel=4, data=[40, 127]),
   midi.NoteOnEvent(tick=60, channel=4, data=[40, 0]),
   midi.NoteOnEvent(tick=0, channel=4, data=[40, 127]),
   midi.NoteOnEvent(tick=30, channel=4, data=[40, 0]),
   midi.NoteOnEvent(tick=0, channel=4, data=[40, 127]),
   midi.NoteOnEvent(tick=30, channel=4, data=[40, 0]),
   midi.NoteOnEvent(tick=0, channel=4, data=[40, 127]),
   midi.NoteOnEvent(tick=30, channel=4, data=[40, 0]),
   midi.NoteOnEvent(tick=0, channel=4, data=[42, 127]),
   midi.NoteOnEvent(tick=30, channel=4, data=[42, 0]),
   midi.NoteOnEvent(tick=0, channel=4, data=[42, 127]),
   midi.NoteOnEvent(tick=60, channel=4, data=[42, 0]),
   midi.NoteOnEvent(tick=0, channel=4, data=[42, 127]),
   midi.NoteOnEvent(tick=60, channel=4, data=[42, 0]),
   midi.NoteOnEvent(tick=0, channel=4, data=[42, 127]),
   midi.NoteOnEvent(tick=30, channel=4, data=[42, 0]),
   midi.NoteOnEvent(tick=0, channel=4, data=[42, 127]),
   midi.NoteOnEvent(tick=30, channel=4, data=[42, 0]),
   midi.NoteOnEvent(tick=0, channel=4, data=[42, 127]),
   midi.NoteOnEvent(tick=30, channel=4, data=[42, 0]),
   midi.NoteOnEvent(tick=0, channel=4, data=[43, 127]),
   midi.NoteOnEvent(tick=30, channel=4, data=[43, 0]),
   midi.NoteOnEvent(tick=0, channel=4, data=[43, 127]),
   midi.NoteOnEvent(tick=60, channel=4, data=[43, 0]),
   midi.NoteOnEvent(tick=0, channel=4, data=[43, 127]),
   midi.NoteOnEvent(tick=60, channel=4, data=[43, 0]),
   midi.NoteOnEvent(tick=0, channel=4, data=[43, 127]),
   midi.NoteOnEvent(tick=30, channel=4, data=[43, 0]),
   midi.NoteOnEvent(tick=0, channel=4, data=[43, 127]),
   midi.NoteOnEvent(tick=30, channel=4, data=[43, 0]),
   midi.NoteOnEvent(tick=0, channel=4, data=[43, 127]),
   midi.NoteOnEvent(tick=30, channel=4, data=[43, 0]),
   midi.NoteOnEvent(tick=0, channel=4, data=[47, 127]),
   midi.NoteOnEvent(tick=30, channel=4, data=[47, 0]),
   midi.NoteOnEvent(tick=0, channel=4, data=[47, 127]),
   midi.NoteOnEvent(tick=30, channel=4, data=[47, 0]),
   midi.NoteOnEvent(tick=0, channel=4, data=[47, 127]),
   midi.NoteOnEvent(tick=30, channel=4, data=[47, 0]),
   midi.NoteOnEvent(tick=0, channel=4, data=[47, 127]),
   midi.NoteOnEvent(tick=60, channel=4, data=[47, 0]),
   midi.NoteOnEvent(tick=0, channel=4, data=[50, 127]),
   midi.NoteOnEvent(tick=60, channel=4, data=[50, 0]),
   midi.NoteOnEvent(tick=0, channel=4, data=[47, 127]),
   midi.NoteOnEvent(tick=60, channel=4, data=[47, 0]),
   midi.NoteOnEvent(tick=0, channel=4, data=[52, 127]),
   midi.NoteOnEvent(tick=60, channel=4, data=[52, 0]),
   midi.NoteOnEvent(tick=0, channel=4, data=[52, 127]),
   midi.NoteOnEvent(tick=60, channel=4, data=[52, 0]),
   midi.NoteOnEvent(tick=0, channel=4, data=[52, 127]),
   midi.NoteOnEvent(tick=30, channel=4, data=[52, 0]),
   midi.NoteOnEvent(tick=0, channel=4, data=[52, 127]),
   midi.NoteOnEvent(tick=30, channel=4, data=[52, 0]),
   midi.NoteOnEvent(tick=0, channel=4, data=[52, 127]),
   midi.NoteOnEvent(tick=30, channel=4, data=[52, 0]),
   midi.NoteOnEvent(tick=0, channel=4, data=[52, 127]),
   midi.NoteOnEvent(tick=30, channel=4, data=[52, 0]),
   midi.NoteOnEvent(tick=0, channel=4, data=[54, 127]),
   midi.NoteOnEvent(tick=60, channel=4, data=[54, 0]),
   midi.NoteOnEvent(tick=0, channel=4, data=[54, 127]),
   midi.NoteOnEvent(tick=60, channel=4, data=[54, 0]),
   midi.NoteOnEvent(tick=0, channel=4, data=[54, 127]),
   midi.NoteOnEvent(tick=30, channel=4, data=[54, 0]),
   midi.NoteOnEvent(tick=0, channel=4, data=[54, 127]),
   midi.NoteOnEvent(tick=30, channel=4, data=[54, 0]),
   midi.NoteOnEvent(tick=0, channel=4, data=[54, 127]),
   midi.NoteOnEvent(tick=30, channel=4, data=[54, 0]),
   midi.NoteOnEvent(tick=0, channel=4, data=[54, 127]),
   midi.NoteOnEvent(tick=30, channel=4, data=[54, 0]),
   midi.NoteOnEvent(tick=0, channel=4, data=[55, 127]),
   midi.NoteOnEvent(tick=60, channel=4, data=[55, 0]),
   midi.NoteOnEvent(tick=0, channel=4, data=[55, 127]),
   midi.NoteOnEvent(tick=60, channel=4, data=[55, 0]),
   midi.NoteOnEvent(tick=0, channel=4, data=[55, 127]),
   midi.NoteOnEvent(tick=30, channel=4, data=[55, 0]),
   midi.NoteOnEvent(tick=0, channel=4, data=[55, 127]),
   midi.NoteOnEvent(tick=30, channel=4, data=[55, 0]),
   midi.NoteOnEvent(tick=0, channel=4, data=[55, 127]),
   midi.NoteOnEvent(tick=30, channel=4, data=[55, 0]),
   midi.NoteOnEvent(tick=0, channel=4, data=[59, 127]),
   midi.NoteOnEvent(tick=30, channel=4, data=[59, 0]),
   midi.NoteOnEvent(tick=0, channel=4, data=[59, 127]),
   midi.NoteOnEvent(tick=30, channel=4, data=[59, 0]),
   midi.NoteOnEvent(tick=0, channel=4, data=[59, 127]),
   midi.NoteOnEvent(tick=30, channel=4, data=[59, 0]),
   midi.NoteOnEvent(tick=0, channel=4, data=[59, 127]),
   midi.NoteOnEvent(tick=30, channel=4, data=[59, 0]),
   midi.NoteOnEvent(tick=0, channel=4, data=[59, 127]),
   midi.NoteOnEvent(tick=30, channel=4, data=[59, 0]),
   midi.NoteOnEvent(tick=0, channel=4, data=[59, 127]),
   midi.NoteOnEvent(tick=30, channel=4, data=[59, 0]),
   midi.NoteOnEvent(tick=0, channel=4, data=[59, 127]),
   midi.NoteOnEvent(tick=30, channel=4, data=[59, 0]),
   midi.NoteOnEvent(tick=0, channel=4, data=[59, 127]),
   midi.NoteOnEvent(tick=60, channel=4, data=[59, 0]),
   midi.NoteOnEvent(tick=0, channel=4, data=[28, 127]),
   midi.NoteOnEvent(tick=60, channel=4, data=[28, 0]),
   midi.NoteOnEvent(tick=0, channel=4, data=[28, 127]),
   midi.NoteOnEvent(tick=60, channel=4, data=[28, 0]),
   midi.NoteOnEvent(tick=0, channel=4, data=[40, 127]),
   midi.NoteOnEvent(tick=60, channel=4, data=[40, 0]),
   midi.NoteOnEvent(tick=0, channel=4, data=[42, 127]),
   midi.NoteOnEvent(tick=30, channel=4, data=[42, 0]),
   midi.NoteOnEvent(tick=0, channel=4, data=[43, 127]),
   midi.NoteOnEvent(tick=30, channel=4, data=[43, 0]),
   midi.NoteOnEvent(tick=0, channel=4, data=[38, 127]),
   midi.NoteOnEvent(tick=60, channel=4, data=[38, 0]),
   midi.NoteOnEvent(tick=0, channel=4, data=[38, 127]),
   midi.NoteOnEvent(tick=60, channel=4, data=[38, 0]),
   midi.NoteOnEvent(tick=0, channel=4, data=[38, 127]),
   midi.NoteOnEvent(tick=30, channel=4, data=[38, 0]),
   midi.NoteOnEvent(tick=0, channel=4, data=[40, 127]),
   midi.NoteOnEvent(tick=30, channel=4, data=[40, 0]),
   midi.NoteOnEvent(tick=0, channel=4, data=[42, 127]),
   midi.NoteOnEvent(tick=30, channel=4, data=[42, 0]),
   midi.NoteOnEvent(tick=0, channel=4, data=[43, 127]),
   midi.NoteOnEvent(tick=30, channel=4, data=[43, 0]),
   midi.NoteOnEvent(tick=0, channel=4, data=[36, 127]),
   midi.NoteOnEvent(tick=60, channel=4, data=[36, 0]),
   midi.NoteOnEvent(tick=0, channel=4, data=[36, 127]),
   midi.NoteOnEvent(tick=60, channel=4, data=[36, 0]),
   midi.NoteOnEvent(tick=0, channel=4, data=[38, 127]),
   midi.NoteOnEvent(tick=30, channel=4, data=[38, 0]),
   midi.NoteOnEvent(tick=0, channel=4, data=[40, 127]),
   midi.NoteOnEvent(tick=30, channel=4, data=[40, 0]),
   midi.NoteOnEvent(tick=0, channel=4, data=[42, 127]),
   midi.NoteOnEvent(tick=30, channel=4, data=[42, 0]),
   midi.NoteOnEvent(tick=0, channel=4, data=[43, 127]),
   midi.NoteOnEvent(tick=30, channel=4, data=[43, 0]),
   midi.NoteOnEvent(tick=0, channel=4, data=[35, 127]),
   midi.NoteOnEvent(tick=60, channel=4, data=[35, 0]),
   midi.NoteOnEvent(tick=0, channel=4, data=[35, 127]),
   midi.NoteOnEvent(tick=60, channel=4, data=[35, 0]),
   midi.NoteOnEvent(tick=0, channel=4, data=[35, 127]),
   midi.NoteOnEvent(tick=60, channel=4, data=[35, 0]),
   midi.NoteOnEvent(tick=0, channel=4, data=[35, 127]),
   midi.NoteOnEvent(tick=60, channel=4, data=[35, 0]),
   midi.NoteOnEvent(tick=0, channel=4, data=[40, 127]),
   midi.NoteOnEvent(tick=0, channel=4, data=[28, 127]),
   midi.NoteOnEvent(tick=90, channel=4, data=[40, 0]),
   midi.NoteOnEvent(tick=0, channel=4, data=[28, 0]),
   midi.NoteOnEvent(tick=0, channel=4, data=[28, 127]),
   midi.NoteOnEvent(tick=30, channel=4, data=[28, 0]),
   midi.NoteOnEvent(tick=0, channel=4, data=[40, 127]),
   midi.NoteOnEvent(tick=120, channel=4, data=[40, 0]),
   midi.NoteOnEvent(tick=0, channel=4, data=[38, 127]),
   midi.NoteOnEvent(tick=60, channel=4, data=[38, 0]),
   midi.NoteOnEvent(tick=0, channel=4, data=[38, 127]),
   midi.NoteOnEvent(tick=60, channel=4, data=[38, 0]),
   midi.NoteOnEvent(tick=0, channel=4, data=[40, 127]),
   midi.NoteOnEvent(tick=30, channel=4, data=[40, 0]),
   midi.NoteOnEvent(tick=0, channel=4, data=[38, 127]),
   midi.NoteOnEvent(tick=30, channel=4, data=[38, 0]),
   midi.NoteOnEvent(tick=0, channel=4, data=[33, 127]),
   midi.NoteOnEvent(tick=30, channel=4, data=[33, 0]),
   midi.NoteOnEvent(tick=0, channel=4, data=[38, 127]),
   midi.NoteOnEvent(tick=30, channel=4, data=[38, 0]),
   midi.NoteOnEvent(tick=0, channel=4, data=[36, 127]),
   midi.NoteOnEvent(tick=60, channel=4, data=[36, 0]),
   midi.NoteOnEvent(tick=0, channel=4, data=[36, 127]),
   midi.NoteOnEvent(tick=60, channel=4, data=[36, 0]),
   midi.NoteOnEvent(tick=0, channel=4, data=[38, 127]),
   midi.NoteOnEvent(tick=30, channel=4, data=[38, 0]),
   midi.NoteOnEvent(tick=0, channel=4, data=[36, 127]),
   midi.NoteOnEvent(tick=30, channel=4, data=[36, 0]),
   midi.NoteOnEvent(tick=0, channel=4, data=[33, 127]),
   midi.NoteOnEvent(tick=30, channel=4, data=[33, 0]),
   midi.NoteOnEvent(tick=0, channel=4, data=[36, 127]),
   midi.NoteOnEvent(tick=30, channel=4, data=[36, 0]),
   midi.NoteOnEvent(tick=0, channel=4, data=[35, 127]),
   midi.NoteOnEvent(tick=60, channel=4, data=[35, 0]),
   midi.NoteOnEvent(tick=0, channel=4, data=[35, 127]),
   midi.NoteOnEvent(tick=60, channel=4, data=[35, 0]),
   midi.NoteOnEvent(tick=0, channel=4, data=[43, 127]),
   midi.NoteOnEvent(tick=30, channel=4, data=[43, 0]),
   midi.NoteOnEvent(tick=0, channel=4, data=[42, 127]),
   midi.NoteOnEvent(tick=30, channel=4, data=[42, 0]),
   midi.NoteOnEvent(tick=0, channel=4, data=[40, 127]),
   midi.NoteOnEvent(tick=60, channel=4, data=[40, 0]),
   midi.NoteOnEvent(tick=0, channel=4, data=[40, 127]),
   midi.NoteOnEvent(tick=60, channel=4, data=[40, 0]),
   midi.NoteOnEvent(tick=0, channel=4, data=[40, 127]),
   midi.NoteOnEvent(tick=60, channel=4, data=[40, 0]),
   midi.NoteOnEvent(tick=0, channel=4, data=[40, 127]),
   midi.NoteOnEvent(tick=30, channel=4, data=[40, 0]),
   midi.NoteOnEvent(tick=0, channel=4, data=[40, 127]),
   midi.NoteOnEvent(tick=30, channel=4, data=[40, 0]),
   midi.NoteOnEvent(tick=0, channel=4, data=[38, 127]),
   midi.NoteOnEvent(tick=30, channel=4, data=[38, 0]),
   midi.NoteOnEvent(tick=0, channel=4, data=[40, 127]),
   midi.NoteOnEvent(tick=30, channel=4, data=[40, 0]),
   midi.NoteOnEvent(tick=0, channel=4, data=[42, 127]),
   midi.NoteOnEvent(tick=60, channel=4, data=[42, 0]),
   midi.NoteOnEvent(tick=0, channel=4, data=[42, 127]),
   midi.NoteOnEvent(tick=60, channel=4, data=[42, 0]),
   midi.NoteOnEvent(tick=0, channel=4, data=[42, 127]),
   midi.NoteOnEvent(tick=30, channel=4, data=[42, 0]),
   midi.NoteOnEvent(tick=0, channel=4, data=[42, 127]),
   midi.NoteOnEvent(tick=30, channel=4, data=[42, 0]),
   midi.NoteOnEvent(tick=0, channel=4, data=[38, 127]),
   midi.NoteOnEvent(tick=30, channel=4, data=[38, 0]),
   midi.NoteOnEvent(tick=0, channel=4, data=[42, 127]),
   midi.NoteOnEvent(tick=30, channel=4, data=[42, 0]),
   midi.NoteOnEvent(tick=0, channel=4, data=[43, 127]),
   midi.NoteOnEvent(tick=60, channel=4, data=[43, 0]),
   midi.NoteOnEvent(tick=0, channel=4, data=[43, 127]),
   midi.NoteOnEvent(tick=60, channel=4, data=[43, 0]),
   midi.NoteOnEvent(tick=0, channel=4, data=[43, 127]),
   midi.NoteOnEvent(tick=30, channel=4, data=[43, 0]),
   midi.NoteOnEvent(tick=0, channel=4, data=[42, 127]),
   midi.NoteOnEvent(tick=30, channel=4, data=[42, 0]),
   midi.NoteOnEvent(tick=0, channel=4, data=[40, 127]),
   midi.NoteOnEvent(tick=30, channel=4, data=[40, 0]),
   midi.NoteOnEvent(tick=0, channel=4, data=[38, 127]),
   midi.NoteOnEvent(tick=30, channel=4, data=[38, 0]),
   midi.NoteOnEvent(tick=0, channel=4, data=[35, 127]),
   midi.NoteOnEvent(tick=60, channel=4, data=[35, 0]),
   midi.NoteOnEvent(tick=0, channel=4, data=[35, 127]),
   midi.NoteOnEvent(tick=30, channel=4, data=[35, 0]),
   midi.NoteOnEvent(tick=0, channel=4, data=[33, 127]),
   midi.NoteOnEvent(tick=30, channel=4, data=[33, 0]),
   midi.NoteOnEvent(tick=0, channel=4, data=[35, 127]),
   midi.NoteOnEvent(tick=30, channel=4, data=[35, 0]),
   midi.NoteOnEvent(tick=0, channel=4, data=[33, 127]),
   midi.NoteOnEvent(tick=30, channel=4, data=[33, 0]),
   midi.NoteOnEvent(tick=0, channel=4, data=[35, 127]),
   midi.NoteOnEvent(tick=60, channel=4, data=[35, 0]),
   midi.NoteOnEvent(tick=0, channel=4, data=[28, 127]),
   midi.NoteOnEvent(tick=0, channel=4, data=[40, 127]),
   midi.NoteOnEvent(tick=60, channel=4, data=[28, 0]),
   midi.NoteOnEvent(tick=0, channel=4, data=[40, 0]),
   midi.NoteOnEvent(tick=0, channel=4, data=[28, 127]),
   midi.NoteOnEvent(tick=30, channel=4, data=[28, 0]),
   midi.NoteOnEvent(tick=0, channel=4, data=[28, 127]),
   midi.NoteOnEvent(tick=30, channel=4, data=[28, 0]),
   midi.NoteOnEvent(tick=0, channel=4, data=[40, 127]),
   midi.NoteOnEvent(tick=30, channel=4, data=[40, 0]),
   midi.NoteOnEvent(tick=0, channel=4, data=[40, 127]),
   midi.NoteOnEvent(tick=30, channel=4, data=[40, 0]),
   midi.NoteOnEvent(tick=0, channel=4, data=[40, 127]),
   midi.NoteOnEvent(tick=30, channel=4, data=[40, 0]),
   midi.NoteOnEvent(tick=0, channel=4, data=[40, 127]),
   midi.NoteOnEvent(tick=30, channel=4, data=[40, 0]),
   midi.NoteOnEvent(tick=0, channel=4, data=[38, 127]),
   midi.NoteOnEvent(tick=60, channel=4, data=[38, 0]),
   midi.NoteOnEvent(tick=0, channel=4, data=[38, 127]),
   midi.NoteOnEvent(tick=60, channel=4, data=[38, 0]),
   midi.NoteOnEvent(tick=0, channel=4, data=[40, 127]),
   midi.NoteOnEvent(tick=30, channel=4, data=[40, 0]),
   midi.NoteOnEvent(tick=0, channel=4, data=[38, 127]),
   midi.NoteOnEvent(tick=30, channel=4, data=[38, 0]),
   midi.NoteOnEvent(tick=0, channel=4, data=[33, 127]),
   midi.NoteOnEvent(tick=30, channel=4, data=[33, 0]),
   midi.NoteOnEvent(tick=0, channel=4, data=[38, 127]),
   midi.NoteOnEvent(tick=30, channel=4, data=[38, 0]),
   midi.NoteOnEvent(tick=0, channel=4, data=[36, 127]),
   midi.NoteOnEvent(tick=60, channel=4, data=[36, 0]),
   midi.NoteOnEvent(tick=0, channel=4, data=[36, 127]),
   midi.NoteOnEvent(tick=60, channel=4, data=[36, 0]),
   midi.NoteOnEvent(tick=0, channel=4, data=[43, 127]),
   midi.NoteOnEvent(tick=30, channel=4, data=[43, 0]),
   midi.NoteOnEvent(tick=0, channel=4, data=[42, 127]),
   midi.NoteOnEvent(tick=30, channel=4, data=[42, 0]),
   midi.NoteOnEvent(tick=0, channel=4, data=[40, 127]),
   midi.NoteOnEvent(tick=30, channel=4, data=[40, 0]),
   midi.NoteOnEvent(tick=0, channel=4, data=[38, 127]),
   midi.NoteOnEvent(tick=30, channel=4, data=[38, 0]),
   midi.NoteOnEvent(tick=0, channel=4, data=[36, 127]),
   midi.NoteOnEvent(tick=30, channel=4, data=[36, 0]),
   midi.NoteOnEvent(tick=0, channel=4, data=[38, 127]),
   midi.NoteOnEvent(tick=30, channel=4, data=[38, 0]),
   midi.NoteOnEvent(tick=0, channel=4, data=[36, 127]),
   midi.NoteOnEvent(tick=30, channel=4, data=[36, 0]),
   midi.NoteOnEvent(tick=0, channel=4, data=[35, 127]),
   midi.NoteOnEvent(tick=30, channel=4, data=[35, 0]),
   midi.NoteOnEvent(tick=0, channel=4, data=[36, 127]),
   midi.NoteOnEvent(tick=30, channel=4, data=[36, 0]),
   midi.NoteOnEvent(tick=0, channel=4, data=[35, 127]),
   midi.NoteOnEvent(tick=30, channel=4, data=[35, 0]),
   midi.NoteOnEvent(tick=0, channel=4, data=[31, 127]),
   midi.NoteOnEvent(tick=30, channel=4, data=[31, 0]),
   midi.NoteOnEvent(tick=0, channel=4, data=[30, 127]),
   midi.NoteOnEvent(tick=30, channel=4, data=[30, 0]),
   midi.NoteOnEvent(tick=0, channel=4, data=[40, 127]),
   midi.NoteOnEvent(tick=60, channel=4, data=[40, 0]),
   midi.NoteOnEvent(tick=0, channel=4, data=[28, 127]),
   midi.NoteOnEvent(tick=60, channel=4, data=[28, 0]),
   midi.NoteOnEvent(tick=0, channel=4, data=[40, 127]),
   midi.NoteOnEvent(tick=60, channel=4, data=[40, 0]),
   midi.NoteOnEvent(tick=0, channel=4, data=[38, 127]),
   midi.NoteOnEvent(tick=30, channel=4, data=[38, 0]),
   midi.NoteOnEvent(tick=0, channel=4, data=[40, 127]),
   midi.NoteOnEvent(tick=30, channel=4, data=[40, 0]),
   midi.NoteOnEvent(tick=0, channel=4, data=[42, 127]),
   midi.NoteOnEvent(tick=30, channel=4, data=[42, 0]),
   midi.NoteOnEvent(tick=0, channel=4, data=[40, 127]),
   midi.NoteOnEvent(tick=30, channel=4, data=[40, 0]),
   midi.NoteOnEvent(tick=0, channel=4, data=[42, 127]),
   midi.NoteOnEvent(tick=30, channel=4, data=[42, 0]),
   midi.NoteOnEvent(tick=0, channel=4, data=[40, 127]),
   midi.NoteOnEvent(tick=30, channel=4, data=[40, 0]),
   midi.NoteOnEvent(tick=0, channel=4, data=[42, 127]),
   midi.NoteOnEvent(tick=30, channel=4, data=[42, 0]),
   midi.NoteOnEvent(tick=0, channel=4, data=[40, 127]),
   midi.NoteOnEvent(tick=30, channel=4, data=[40, 0]),
   midi.NoteOnEvent(tick=0, channel=4, data=[42, 127]),
   midi.NoteOnEvent(tick=30, channel=4, data=[42, 0]),
   midi.NoteOnEvent(tick=0, channel=4, data=[38, 127]),
   midi.NoteOnEvent(tick=30, channel=4, data=[38, 0]),
   midi.NoteOnEvent(tick=0, channel=4, data=[36, 127]),
   midi.NoteOnEvent(tick=60, channel=4, data=[36, 0]),
   midi.NoteOnEvent(tick=0, channel=4, data=[36, 127]),
   midi.NoteOnEvent(tick=30, channel=4, data=[36, 0]),
   midi.NoteOnEvent(tick=0, channel=4, data=[36, 127]),
   midi.NoteOnEvent(tick=30, channel=4, data=[36, 0]),
   midi.NoteOnEvent(tick=0, channel=4, data=[38, 127]),
   midi.NoteOnEvent(tick=30, channel=4, data=[38, 0]),
   midi.NoteOnEvent(tick=0, channel=4, data=[36, 127]),
   midi.NoteOnEvent(tick=30, channel=4, data=[36, 0]),
   midi.NoteOnEvent(tick=0, channel=4, data=[33, 127]),
   midi.NoteOnEvent(tick=30, channel=4, data=[33, 0]),
   midi.NoteOnEvent(tick=0, channel=4, data=[36, 127]),
   midi.NoteOnEvent(tick=30, channel=4, data=[36, 0]),
   midi.NoteOnEvent(tick=0, channel=4, data=[35, 127]),
   midi.NoteOnEvent(tick=60, channel=4, data=[35, 0]),
   midi.NoteOnEvent(tick=0, channel=4, data=[35, 127]),
   midi.NoteOnEvent(tick=30, channel=4, data=[35, 0]),
   midi.NoteOnEvent(tick=0, channel=4, data=[35, 127]),
   midi.NoteOnEvent(tick=30, channel=4, data=[35, 0]),
   midi.NoteOnEvent(tick=0, channel=4, data=[31, 127]),
   midi.NoteOnEvent(tick=60, channel=4, data=[31, 0]),
   midi.NoteOnEvent(tick=0, channel=4, data=[30, 127]),
   midi.NoteOnEvent(tick=60, channel=4, data=[30, 0]),
   midi.NoteOnEvent(tick=0, channel=4, data=[28, 127]),
   midi.NoteOnEvent(tick=60, channel=4, data=[28, 0]),
   midi.NoteOnEvent(tick=0, channel=4, data=[28, 127]),
   midi.NoteOnEvent(tick=30, channel=4, data=[28, 0]),
   midi.NoteOnEvent(tick=0, channel=4, data=[28, 127]),
   midi.NoteOnEvent(tick=30, channel=4, data=[28, 0]),
   midi.NoteOnEvent(tick=0, channel=4, data=[40, 127]),
   midi.NoteOnEvent(tick=30, channel=4, data=[40, 0]),
   midi.NoteOnEvent(tick=0, channel=4, data=[40, 127]),
   midi.NoteOnEvent(tick=30, channel=4, data=[40, 0]),
   midi.NoteOnEvent(tick=0, channel=4, data=[40, 127]),
   midi.NoteOnEvent(tick=30, channel=4, data=[40, 0]),
   midi.NoteOnEvent(tick=0, channel=4, data=[40, 127]),
   midi.NoteOnEvent(tick=30, channel=4, data=[40, 0]),
   midi.NoteOnEvent(tick=0, channel=4, data=[42, 127]),
   midi.NoteOnEvent(tick=60, channel=4, data=[42, 0]),
   midi.NoteOnEvent(tick=0, channel=4, data=[42, 127]),
   midi.NoteOnEvent(tick=30, channel=4, data=[42, 0]),
   midi.NoteOnEvent(tick=0, channel=4, data=[42, 127]),
   midi.NoteOnEvent(tick=30, channel=4, data=[42, 0]),
   midi.NoteOnEvent(tick=0, channel=4, data=[42, 127]),
   midi.NoteOnEvent(tick=30, channel=4, data=[42, 0]),
   midi.NoteOnEvent(tick=0, channel=4, data=[42, 127]),
   midi.NoteOnEvent(tick=30, channel=4, data=[42, 0]),
   midi.NoteOnEvent(tick=0, channel=4, data=[42, 127]),
   midi.NoteOnEvent(tick=30, channel=4, data=[42, 0]),
   midi.NoteOnEvent(tick=0, channel=4, data=[40, 127]),
   midi.NoteOnEvent(tick=30, channel=4, data=[40, 0]),
   midi.NoteOnEvent(tick=0, channel=4, data=[36, 127]),
   midi.NoteOnEvent(tick=60, channel=4, data=[36, 0]),
   midi.NoteOnEvent(tick=0, channel=4, data=[36, 127]),
   midi.NoteOnEvent(tick=60, channel=4, data=[36, 0]),
   midi.NoteOnEvent(tick=0, channel=4, data=[43, 127]),
   midi.NoteOnEvent(tick=30, channel=4, data=[43, 0]),
   midi.NoteOnEvent(tick=0, channel=4, data=[36, 127]),
   midi.NoteOnEvent(tick=30, channel=4, data=[36, 0]),
   midi.NoteOnEvent(tick=0, channel=4, data=[33, 127]),
   midi.NoteOnEvent(tick=30, channel=4, data=[33, 0]),
   midi.NoteOnEvent(tick=0, channel=4, data=[36, 127]),
   midi.NoteOnEvent(tick=30, channel=4, data=[36, 0]),
   midi.NoteOnEvent(tick=0, channel=4, data=[35, 127]),
   midi.NoteOnEvent(tick=30, channel=4, data=[35, 0]),
   midi.NoteOnEvent(tick=0, channel=4, data=[35, 127]),
   midi.NoteOnEvent(tick=30, channel=4, data=[35, 0]),
   midi.NoteOnEvent(tick=0, channel=4, data=[35, 127]),
   midi.NoteOnEvent(tick=60, channel=4, data=[35, 0]),
   midi.NoteOnEvent(tick=0, channel=4, data=[43, 127]),
   midi.NoteOnEvent(tick=60, channel=4, data=[43, 0]),
   midi.NoteOnEvent(tick=0, channel=4, data=[40, 127]),
   midi.NoteOnEvent(tick=60, channel=4, data=[40, 0]),
   midi.NoteOnEvent(tick=0, channel=4, data=[28, 127]),
   midi.NoteOnEvent(tick=0, channel=4, data=[40, 127]),
   midi.NoteOnEvent(tick=60, channel=4, data=[28, 0]),
   midi.NoteOnEvent(tick=0, channel=4, data=[40, 0]),
   midi.NoteOnEvent(tick=0, channel=4, data=[28, 127]),
   midi.NoteOnEvent(tick=60, channel=4, data=[28, 0]),
   midi.NoteOnEvent(tick=0, channel=4, data=[40, 127]),
   midi.NoteOnEvent(tick=30, channel=4, data=[40, 0]),
   midi.NoteOnEvent(tick=0, channel=4, data=[40, 127]),
   midi.NoteOnEvent(tick=30, channel=4, data=[40, 0]),
   midi.NoteOnEvent(tick=0, channel=4, data=[40, 127]),
   midi.NoteOnEvent(tick=30, channel=4, data=[40, 0]),
   midi.NoteOnEvent(tick=0, channel=4, data=[40, 127]),
   midi.NoteOnEvent(tick=30, channel=4, data=[40, 0]),
   midi.NoteOnEvent(tick=0, channel=4, data=[38, 127]),
   midi.NoteOnEvent(tick=60, channel=4, data=[38, 0]),
   midi.NoteOnEvent(tick=0, channel=4, data=[38, 127]),
   midi.NoteOnEvent(tick=60, channel=4, data=[38, 0]),
   midi.NoteOnEvent(tick=0, channel=4, data=[43, 127]),
   midi.NoteOnEvent(tick=30, channel=4, data=[43, 0]),
   midi.NoteOnEvent(tick=0, channel=4, data=[45, 127]),
   midi.NoteOnEvent(tick=30, channel=4, data=[45, 0]),
   midi.NoteOnEvent(tick=0, channel=4, data=[40, 127]),
   midi.NoteOnEvent(tick=30, channel=4, data=[40, 0]),
   midi.NoteOnEvent(tick=0, channel=4, data=[38, 127]),
   midi.NoteOnEvent(tick=30, channel=4, data=[38, 0]),
   midi.NoteOnEvent(tick=0, channel=4, data=[36, 127]),
   midi.NoteOnEvent(tick=30, channel=4, data=[36, 0]),
   midi.NoteOnEvent(tick=0, channel=4, data=[36, 127]),
   midi.NoteOnEvent(tick=30, channel=4, data=[36, 0]),
   midi.NoteOnEvent(tick=0, channel=4, data=[36, 127]),
   midi.NoteOnEvent(tick=60, channel=4, data=[36, 0]),
   midi.NoteOnEvent(tick=0, channel=4, data=[38, 127]),
   midi.NoteOnEvent(tick=30, channel=4, data=[38, 0]),
   midi.NoteOnEvent(tick=0, channel=4, data=[40, 127]),
   midi.NoteOnEvent(tick=30, channel=4, data=[40, 0]),
   midi.NoteOnEvent(tick=0, channel=4, data=[43, 127]),
   midi.NoteOnEvent(tick=30, channel=4, data=[43, 0]),
   midi.NoteOnEvent(tick=0, channel=4, data=[45, 127]),
   midi.NoteOnEvent(tick=30, channel=4, data=[45, 0]),
   midi.NoteOnEvent(tick=0, channel=4, data=[35, 127]),
   midi.NoteOnEvent(tick=30, channel=4, data=[35, 0]),
   midi.NoteOnEvent(tick=0, channel=4, data=[35, 127]),
   midi.NoteOnEvent(tick=30, channel=4, data=[35, 0]),
   midi.NoteOnEvent(tick=0, channel=4, data=[35, 127]),
   midi.NoteOnEvent(tick=60, channel=4, data=[35, 0]),
   midi.NoteOnEvent(tick=0, channel=4, data=[35, 127]),
   midi.NoteOnEvent(tick=60, channel=4, data=[35, 0]),
   midi.NoteOnEvent(tick=0, channel=4, data=[35, 127]),
   midi.NoteOnEvent(tick=60, channel=4, data=[35, 0]),
   midi.NoteOnEvent(tick=0, channel=4, data=[40, 127]),
   midi.NoteOnEvent(tick=60, channel=4, data=[40, 0]),
   midi.NoteOnEvent(tick=0, channel=4, data=[28, 127]),
   midi.NoteOnEvent(tick=60, channel=4, data=[28, 0]),
   midi.NoteOnEvent(tick=0, channel=4, data=[40, 127]),
   midi.NoteOnEvent(tick=30, channel=4, data=[40, 0]),
   midi.NoteOnEvent(tick=0, channel=4, data=[40, 127]),
   midi.NoteOnEvent(tick=30, channel=4, data=[40, 0]),
   midi.NoteOnEvent(tick=0, channel=4, data=[40, 127]),
   midi.NoteOnEvent(tick=30, channel=4, data=[40, 0]),
   midi.NoteOnEvent(tick=0, channel=4, data=[40, 127]),
   midi.NoteOnEvent(tick=30, channel=4, data=[40, 0]),
   midi.NoteOnEvent(tick=0, channel=4, data=[38, 127]),
   midi.NoteOnEvent(tick=60, channel=4, data=[38, 0]),
   midi.NoteOnEvent(tick=0, channel=4, data=[38, 127]),
   midi.NoteOnEvent(tick=60, channel=4, data=[38, 0]),
   midi.NoteOnEvent(tick=0, channel=4, data=[40, 127]),
   midi.NoteOnEvent(tick=30, channel=4, data=[40, 0]),
   midi.NoteOnEvent(tick=0, channel=4, data=[38, 127]),
   midi.NoteOnEvent(tick=30, channel=4, data=[38, 0]),
   midi.NoteOnEvent(tick=0, channel=4, data=[45, 127]),
   midi.NoteOnEvent(tick=30, channel=4, data=[45, 0]),
   midi.NoteOnEvent(tick=0, channel=4, data=[38, 127]),
   midi.NoteOnEvent(tick=30, channel=4, data=[38, 0]),
   midi.NoteOnEvent(tick=0, channel=4, data=[36, 127]),
   midi.NoteOnEvent(tick=60, channel=4, data=[36, 0]),
   midi.NoteOnEvent(tick=0, channel=4, data=[36, 127]),
   midi.NoteOnEvent(tick=60, channel=4, data=[36, 0]),
   midi.NoteOnEvent(tick=0, channel=4, data=[38, 127]),
   midi.NoteOnEvent(tick=30, channel=4, data=[38, 0]),
   midi.NoteOnEvent(tick=0, channel=4, data=[36, 127]),
   midi.NoteOnEvent(tick=30, channel=4, data=[36, 0]),
   midi.NoteOnEvent(tick=0, channel=4, data=[38, 127]),
   midi.NoteOnEvent(tick=60, channel=4, data=[38, 0]),
   midi.NoteOnEvent(tick=0, channel=4, data=[35, 127]),
   midi.NoteOnEvent(tick=60, channel=4, data=[35, 0]),
   midi.NoteOnEvent(tick=0, channel=4, data=[36, 127]),
   midi.NoteOnEvent(tick=60, channel=4, data=[36, 0]),
   midi.NoteOnEvent(tick=0, channel=4, data=[35, 127]),
   midi.NoteOnEvent(tick=60, channel=4, data=[35, 0]),
   midi.NoteOnEvent(tick=0, channel=4, data=[36, 127]),
   midi.NoteOnEvent(tick=60, channel=4, data=[36, 0]),
   midi.NoteOnEvent(tick=0, channel=4, data=[35, 127]),
   midi.NoteOnEvent(tick=60, channel=4, data=[35, 0]),
   midi.NoteOnEvent(tick=0, channel=4, data=[36, 127]),
   midi.NoteOnEvent(tick=60, channel=4, data=[36, 0]),
   midi.NoteOnEvent(tick=0, channel=4, data=[35, 127]),
   midi.NoteOnEvent(tick=60, channel=4, data=[35, 0]),
   midi.NoteOnEvent(tick=0, channel=4, data=[36, 127]),
   midi.NoteOnEvent(tick=60, channel=4, data=[36, 0]),
   midi.NoteOnEvent(tick=0, channel=4, data=[35, 127]),
   midi.NoteOnEvent(tick=120, channel=4, data=[35, 0]),
   midi.NoteOnEvent(tick=360, channel=4, data=[40, 127]),
   midi.NoteOnEvent(tick=60, channel=4, data=[40, 0]),
   midi.NoteOnEvent(tick=0, channel=4, data=[28, 127]),
   midi.NoteOnEvent(tick=60, channel=4, data=[28, 0]),
   midi.NoteOnEvent(tick=0, channel=4, data=[28, 127]),
   midi.NoteOnEvent(tick=40, channel=4, data=[28, 0]),
   midi.NoteOnEvent(tick=0, channel=4, data=[28, 127]),
   midi.NoteOnEvent(tick=40, channel=4, data=[28, 0]),
   midi.NoteOnEvent(tick=0, channel=4, data=[28, 127]),
   midi.NoteOnEvent(tick=40, channel=4, data=[28, 0]),
   midi.NoteOnEvent(tick=0, channel=4, data=[40, 127]),
   midi.NoteOnEvent(tick=60, channel=4, data=[40, 0]),
   midi.NoteOnEvent(tick=0, channel=4, data=[28, 127]),
   midi.NoteOnEvent(tick=60, channel=4, data=[28, 0]),
   midi.NoteOnEvent(tick=0, channel=4, data=[28, 127]),
   midi.NoteOnEvent(tick=40, channel=4, data=[28, 0]),
   midi.NoteOnEvent(tick=0, channel=4, data=[28, 127]),
   midi.NoteOnEvent(tick=40, channel=4, data=[28, 0]),
   midi.NoteOnEvent(tick=0, channel=4, data=[28, 127]),
   midi.NoteOnEvent(tick=40, channel=4, data=[28, 0]),
   midi.NoteOnEvent(tick=0, channel=4, data=[40, 127]),
   midi.NoteOnEvent(tick=60, channel=4, data=[40, 0]),
   midi.NoteOnEvent(tick=0, channel=4, data=[28, 127]),
   midi.NoteOnEvent(tick=60, channel=4, data=[28, 0]),
   midi.NoteOnEvent(tick=0, channel=4, data=[28, 127]),
   midi.NoteOnEvent(tick=40, channel=4, data=[28, 0]),
   midi.NoteOnEvent(tick=0, channel=4, data=[28, 127]),
   midi.NoteOnEvent(tick=40, channel=4, data=[28, 0]),
   midi.NoteOnEvent(tick=0, channel=4, data=[28, 127]),
   midi.NoteOnEvent(tick=40, channel=4, data=[28, 0]),
   midi.NoteOnEvent(tick=0, channel=4, data=[41, 127]),
   midi.NoteOnEvent(tick=30, channel=4, data=[41, 0]),
   midi.NoteOnEvent(tick=0, channel=4, data=[40, 127]),
   midi.NoteOnEvent(tick=90, channel=4, data=[40, 0]),
   midi.NoteOnEvent(tick=0, channel=4, data=[40, 127]),
   midi.NoteOnEvent(tick=120, channel=4, data=[40, 0]),
   midi.NoteOnEvent(tick=0, channel=4, data=[40, 127]),
   midi.NoteOnEvent(tick=60, channel=4, data=[40, 0]),
   midi.NoteOnEvent(tick=0, channel=4, data=[28, 127]),
   midi.NoteOnEvent(tick=60, channel=4, data=[28, 0]),
   midi.NoteOnEvent(tick=0, channel=4, data=[28, 127]),
   midi.NoteOnEvent(tick=40, channel=4, data=[28, 0]),
   midi.NoteOnEvent(tick=0, channel=4, data=[28, 127]),
   midi.NoteOnEvent(tick=40, channel=4, data=[28, 0]),
   midi.NoteOnEvent(tick=0, channel=4, data=[28, 127]),
   midi.NoteOnEvent(tick=40, channel=4, data=[28, 0]),
   midi.NoteOnEvent(tick=0, channel=4, data=[40, 127]),
   midi.NoteOnEvent(tick=60, channel=4, data=[40, 0]),
   midi.NoteOnEvent(tick=0, channel=4, data=[28, 127]),
   midi.NoteOnEvent(tick=60, channel=4, data=[28, 0]),
   midi.NoteOnEvent(tick=0, channel=4, data=[28, 127]),
   midi.NoteOnEvent(tick=40, channel=4, data=[28, 0]),
   midi.NoteOnEvent(tick=0, channel=4, data=[28, 127]),
   midi.NoteOnEvent(tick=40, channel=4, data=[28, 0]),
   midi.NoteOnEvent(tick=0, channel=4, data=[28, 127]),
   midi.NoteOnEvent(tick=40, channel=4, data=[28, 0]),
   midi.NoteOnEvent(tick=0, channel=4, data=[40, 127]),
   midi.NoteOnEvent(tick=60, channel=4, data=[40, 0]),
   midi.NoteOnEvent(tick=0, channel=4, data=[28, 127]),
   midi.NoteOnEvent(tick=60, channel=4, data=[28, 0]),
   midi.NoteOnEvent(tick=0, channel=4, data=[28, 127]),
   midi.NoteOnEvent(tick=40, channel=4, data=[28, 0]),
   midi.NoteOnEvent(tick=0, channel=4, data=[28, 127]),
   midi.NoteOnEvent(tick=40, channel=4, data=[28, 0]),
   midi.NoteOnEvent(tick=0, channel=4, data=[28, 127]),
   midi.NoteOnEvent(tick=40, channel=4, data=[28, 0]),
   midi.NoteOnEvent(tick=0, channel=4, data=[41, 127]),
   midi.NoteOnEvent(tick=120, channel=4, data=[41, 0]),
   midi.NoteOnEvent(tick=0, channel=4, data=[41, 127]),
   midi.NoteOnEvent(tick=120, channel=4, data=[41, 0]),
   midi.NoteOnEvent(tick=0, channel=4, data=[40, 127]),
   midi.NoteOnEvent(tick=60, channel=4, data=[40, 0]),
   midi.NoteOnEvent(tick=0, channel=4, data=[28, 127]),
   midi.NoteOnEvent(tick=60, channel=4, data=[28, 0]),
   midi.NoteOnEvent(tick=0, channel=4, data=[28, 127]),
   midi.NoteOnEvent(tick=40, channel=4, data=[28, 0]),
   midi.NoteOnEvent(tick=0, channel=4, data=[28, 127]),
   midi.NoteOnEvent(tick=40, channel=4, data=[28, 0]),
   midi.NoteOnEvent(tick=0, channel=4, data=[28, 127]),
   midi.NoteOnEvent(tick=40, channel=4, data=[28, 0]),
   midi.NoteOnEvent(tick=0, channel=4, data=[40, 127]),
   midi.NoteOnEvent(tick=60, channel=4, data=[40, 0]),
   midi.NoteOnEvent(tick=0, channel=4, data=[28, 127]),
   midi.NoteOnEvent(tick=60, channel=4, data=[28, 0]),
   midi.NoteOnEvent(tick=0, channel=4, data=[28, 127]),
   midi.NoteOnEvent(tick=40, channel=4, data=[28, 0]),
   midi.NoteOnEvent(tick=0, channel=4, data=[28, 127]),
   midi.NoteOnEvent(tick=40, channel=4, data=[28, 0]),
   midi.NoteOnEvent(tick=0, channel=4, data=[28, 127]),
   midi.NoteOnEvent(tick=40, channel=4, data=[28, 0]),
   midi.NoteOnEvent(tick=0, channel=4, data=[40, 127]),
   midi.NoteOnEvent(tick=60, channel=4, data=[40, 0]),
   midi.NoteOnEvent(tick=0, channel=4, data=[28, 127]),
   midi.NoteOnEvent(tick=60, channel=4, data=[28, 0]),
   midi.NoteOnEvent(tick=0, channel=4, data=[28, 127]),
   midi.NoteOnEvent(tick=40, channel=4, data=[28, 0]),
   midi.NoteOnEvent(tick=0, channel=4, data=[28, 127]),
   midi.NoteOnEvent(tick=40, channel=4, data=[28, 0]),
   midi.NoteOnEvent(tick=0, channel=4, data=[28, 127]),
   midi.NoteOnEvent(tick=40, channel=4, data=[28, 0]),
   midi.NoteOnEvent(tick=0, channel=4, data=[41, 127]),
   midi.NoteOnEvent(tick=30, channel=4, data=[41, 0]),
   midi.NoteOnEvent(tick=0, channel=4, data=[40, 127]),
   midi.NoteOnEvent(tick=90, channel=4, data=[40, 0]),
   midi.NoteOnEvent(tick=0, channel=4, data=[40, 127]),
   midi.NoteOnEvent(tick=120, channel=4, data=[40, 0]),
   midi.NoteOnEvent(tick=0, channel=4, data=[40, 127]),
   midi.NoteOnEvent(tick=60, channel=4, data=[40, 0]),
   midi.NoteOnEvent(tick=0, channel=4, data=[28, 127]),
   midi.NoteOnEvent(tick=60, channel=4, data=[28, 0]),
   midi.NoteOnEvent(tick=0, channel=4, data=[28, 127]),
   midi.NoteOnEvent(tick=40, channel=4, data=[28, 0]),
   midi.NoteOnEvent(tick=0, channel=4, data=[28, 127]),
   midi.NoteOnEvent(tick=40, channel=4, data=[28, 0]),
   midi.NoteOnEvent(tick=0, channel=4, data=[28, 127]),
   midi.NoteOnEvent(tick=40, channel=4, data=[28, 0]),
   midi.NoteOnEvent(tick=0, channel=4, data=[40, 127]),
   midi.NoteOnEvent(tick=60, channel=4, data=[40, 0]),
   midi.NoteOnEvent(tick=0, channel=4, data=[28, 127]),
   midi.NoteOnEvent(tick=60, channel=4, data=[28, 0]),
   midi.NoteOnEvent(tick=0, channel=4, data=[28, 127]),
   midi.NoteOnEvent(tick=40, channel=4, data=[28, 0]),
   midi.NoteOnEvent(tick=0, channel=4, data=[28, 127]),
   midi.NoteOnEvent(tick=40, channel=4, data=[28, 0]),
   midi.NoteOnEvent(tick=0, channel=4, data=[28, 127]),
   midi.NoteOnEvent(tick=40, channel=4, data=[28, 0]),
   midi.NoteOnEvent(tick=0, channel=4, data=[40, 127]),
   midi.NoteOnEvent(tick=60, channel=4, data=[40, 0]),
   midi.NoteOnEvent(tick=0, channel=4, data=[28, 127]),
   midi.NoteOnEvent(tick=60, channel=4, data=[28, 0]),
   midi.NoteOnEvent(tick=0, channel=4, data=[28, 127]),
   midi.NoteOnEvent(tick=40, channel=4, data=[28, 0]),
   midi.NoteOnEvent(tick=0, channel=4, data=[28, 127]),
   midi.NoteOnEvent(tick=40, channel=4, data=[28, 0]),
   midi.NoteOnEvent(tick=0, channel=4, data=[28, 127]),
   midi.NoteOnEvent(tick=40, channel=4, data=[28, 0]),
   midi.NoteOnEvent(tick=0, channel=4, data=[41, 127]),
   midi.NoteOnEvent(tick=120, channel=4, data=[41, 0]),
   midi.NoteOnEvent(tick=0, channel=4, data=[41, 127]),
   midi.NoteOnEvent(tick=120, channel=4, data=[41, 0]),
   midi.NoteOnEvent(tick=0, channel=4, data=[40, 127]),
   midi.NoteOnEvent(tick=60, channel=4, data=[40, 0]),
   midi.NoteOnEvent(tick=0, channel=4, data=[28, 127]),
   midi.NoteOnEvent(tick=60, channel=4, data=[28, 0]),
   midi.NoteOnEvent(tick=0, channel=4, data=[28, 127]),
   midi.NoteOnEvent(tick=40, channel=4, data=[28, 0]),
   midi.NoteOnEvent(tick=0, channel=4, data=[28, 127]),
   midi.NoteOnEvent(tick=40, channel=4, data=[28, 0]),
   midi.NoteOnEvent(tick=0, channel=4, data=[28, 127]),
   midi.NoteOnEvent(tick=40, channel=4, data=[28, 0]),
   midi.NoteOnEvent(tick=0, channel=4, data=[40, 127]),
   midi.NoteOnEvent(tick=60, channel=4, data=[40, 0]),
   midi.NoteOnEvent(tick=0, channel=4, data=[28, 127]),
   midi.NoteOnEvent(tick=60, channel=4, data=[28, 0]),
   midi.NoteOnEvent(tick=0, channel=4, data=[28, 127]),
   midi.NoteOnEvent(tick=40, channel=4, data=[28, 0]),
   midi.NoteOnEvent(tick=0, channel=4, data=[28, 127]),
   midi.NoteOnEvent(tick=40, channel=4, data=[28, 0]),
   midi.NoteOnEvent(tick=0, channel=4, data=[28, 127]),
   midi.NoteOnEvent(tick=40, channel=4, data=[28, 0]),
   midi.NoteOnEvent(tick=0, channel=4, data=[40, 127]),
   midi.NoteOnEvent(tick=60, channel=4, data=[40, 0]),
   midi.NoteOnEvent(tick=0, channel=4, data=[28, 127]),
   midi.NoteOnEvent(tick=60, channel=4, data=[28, 0]),
   midi.NoteOnEvent(tick=0, channel=4, data=[28, 127]),
   midi.NoteOnEvent(tick=40, channel=4, data=[28, 0]),
   midi.NoteOnEvent(tick=0, channel=4, data=[28, 127]),
   midi.NoteOnEvent(tick=40, channel=4, data=[28, 0]),
   midi.NoteOnEvent(tick=0, channel=4, data=[28, 127]),
   midi.NoteOnEvent(tick=40, channel=4, data=[28, 0]),
   midi.NoteOnEvent(tick=0, channel=4, data=[41, 127]),
   midi.NoteOnEvent(tick=30, channel=4, data=[41, 0]),
   midi.NoteOnEvent(tick=0, channel=4, data=[40, 127]),
   midi.NoteOnEvent(tick=90, channel=4, data=[40, 0]),
   midi.NoteOnEvent(tick=0, channel=4, data=[40, 127]),
   midi.NoteOnEvent(tick=120, channel=4, data=[40, 0]),
   midi.NoteOnEvent(tick=0, channel=4, data=[40, 127]),
   midi.NoteOnEvent(tick=60, channel=4, data=[40, 0]),
   midi.NoteOnEvent(tick=0, channel=4, data=[28, 127]),
   midi.NoteOnEvent(tick=60, channel=4, data=[28, 0]),
   midi.NoteOnEvent(tick=0, channel=4, data=[28, 127]),
   midi.NoteOnEvent(tick=40, channel=4, data=[28, 0]),
   midi.NoteOnEvent(tick=0, channel=4, data=[28, 127]),
   midi.NoteOnEvent(tick=40, channel=4, data=[28, 0]),
   midi.NoteOnEvent(tick=0, channel=4, data=[28, 127]),
   midi.NoteOnEvent(tick=40, channel=4, data=[28, 0]),
   midi.NoteOnEvent(tick=0, channel=4, data=[40, 127]),
   midi.NoteOnEvent(tick=60, channel=4, data=[40, 0]),
   midi.NoteOnEvent(tick=0, channel=4, data=[28, 127]),
   midi.NoteOnEvent(tick=60, channel=4, data=[28, 0]),
   midi.NoteOnEvent(tick=0, channel=4, data=[28, 127]),
   midi.NoteOnEvent(tick=40, channel=4, data=[28, 0]),
   midi.NoteOnEvent(tick=0, channel=4, data=[28, 127]),
   midi.NoteOnEvent(tick=40, channel=4, data=[28, 0]),
   midi.NoteOnEvent(tick=0, channel=4, data=[28, 127]),
   midi.NoteOnEvent(tick=40, channel=4, data=[28, 0]),
   midi.NoteOnEvent(tick=0, channel=4, data=[40, 127]),
   midi.NoteOnEvent(tick=60, channel=4, data=[40, 0]),
   midi.NoteOnEvent(tick=0, channel=4, data=[28, 127]),
   midi.NoteOnEvent(tick=60, channel=4, data=[28, 0]),
   midi.NoteOnEvent(tick=0, channel=4, data=[28, 127]),
   midi.NoteOnEvent(tick=40, channel=4, data=[28, 0]),
   midi.NoteOnEvent(tick=0, channel=4, data=[28, 127]),
   midi.NoteOnEvent(tick=40, channel=4, data=[28, 0]),
   midi.NoteOnEvent(tick=0, channel=4, data=[28, 127]),
   midi.NoteOnEvent(tick=40, channel=4, data=[28, 0]),
   midi.NoteOnEvent(tick=0, channel=4, data=[41, 127]),
   midi.NoteOnEvent(tick=120, channel=4, data=[41, 0]),
   midi.NoteOnEvent(tick=0, channel=4, data=[41, 127]),
   midi.NoteOnEvent(tick=120, channel=4, data=[41, 0]),
   midi.NoteOnEvent(tick=0, channel=4, data=[40, 127]),
   midi.NoteOnEvent(tick=60, channel=4, data=[40, 0]),
   midi.NoteOnEvent(tick=0, channel=4, data=[28, 127]),
   midi.NoteOnEvent(tick=60, channel=4, data=[28, 0]),
   midi.NoteOnEvent(tick=0, channel=4, data=[28, 127]),
   midi.NoteOnEvent(tick=40, channel=4, data=[28, 0]),
   midi.NoteOnEvent(tick=0, channel=4, data=[28, 127]),
   midi.NoteOnEvent(tick=40, channel=4, data=[28, 0]),
   midi.NoteOnEvent(tick=0, channel=4, data=[28, 127]),
   midi.NoteOnEvent(tick=40, channel=4, data=[28, 0]),
   midi.NoteOnEvent(tick=0, channel=4, data=[40, 127]),
   midi.NoteOnEvent(tick=60, channel=4, data=[40, 0]),
   midi.NoteOnEvent(tick=0, channel=4, data=[28, 127]),
   midi.NoteOnEvent(tick=60, channel=4, data=[28, 0]),
   midi.NoteOnEvent(tick=0, channel=4, data=[28, 127]),
   midi.NoteOnEvent(tick=40, channel=4, data=[28, 0]),
   midi.NoteOnEvent(tick=0, channel=4, data=[28, 127]),
   midi.NoteOnEvent(tick=40, channel=4, data=[28, 0]),
   midi.NoteOnEvent(tick=0, channel=4, data=[28, 127]),
   midi.NoteOnEvent(tick=40, channel=4, data=[28, 0]),
   midi.NoteOnEvent(tick=0, channel=4, data=[40, 127]),
   midi.NoteOnEvent(tick=60, channel=4, data=[40, 0]),
   midi.NoteOnEvent(tick=0, channel=4, data=[28, 127]),
   midi.NoteOnEvent(tick=60, channel=4, data=[28, 0]),
   midi.NoteOnEvent(tick=0, channel=4, data=[28, 127]),
   midi.NoteOnEvent(tick=40, channel=4, data=[28, 0]),
   midi.NoteOnEvent(tick=0, channel=4, data=[28, 127]),
   midi.NoteOnEvent(tick=40, channel=4, data=[28, 0]),
   midi.NoteOnEvent(tick=0, channel=4, data=[28, 127]),
   midi.NoteOnEvent(tick=40, channel=4, data=[28, 0]),
   midi.NoteOnEvent(tick=0, channel=4, data=[41, 127]),
   midi.NoteOnEvent(tick=30, channel=4, data=[41, 0]),
   midi.NoteOnEvent(tick=0, channel=4, data=[40, 127]),
   midi.NoteOnEvent(tick=90, channel=4, data=[40, 0]),
   midi.NoteOnEvent(tick=0, channel=4, data=[40, 127]),
   midi.NoteOnEvent(tick=120, channel=4, data=[40, 0]),
   midi.NoteOnEvent(tick=0, channel=4, data=[40, 127]),
   midi.NoteOnEvent(tick=60, channel=4, data=[40, 0]),
   midi.NoteOnEvent(tick=0, channel=4, data=[28, 127]),
   midi.NoteOnEvent(tick=60, channel=4, data=[28, 0]),
   midi.NoteOnEvent(tick=0, channel=4, data=[28, 127]),
   midi.NoteOnEvent(tick=40, channel=4, data=[28, 0]),
   midi.NoteOnEvent(tick=0, channel=4, data=[28, 127]),
   midi.NoteOnEvent(tick=40, channel=4, data=[28, 0]),
   midi.NoteOnEvent(tick=0, channel=4, data=[28, 127]),
   midi.NoteOnEvent(tick=40, channel=4, data=[28, 0]),
   midi.NoteOnEvent(tick=0, channel=4, data=[40, 127]),
   midi.NoteOnEvent(tick=60, channel=4, data=[40, 0]),
   midi.NoteOnEvent(tick=0, channel=4, data=[28, 127]),
   midi.NoteOnEvent(tick=60, channel=4, data=[28, 0]),
   midi.NoteOnEvent(tick=0, channel=4, data=[28, 127]),
   midi.NoteOnEvent(tick=40, channel=4, data=[28, 0]),
   midi.NoteOnEvent(tick=0, channel=4, data=[28, 127]),
   midi.NoteOnEvent(tick=40, channel=4, data=[28, 0]),
   midi.NoteOnEvent(tick=0, channel=4, data=[28, 127]),
   midi.NoteOnEvent(tick=40, channel=4, data=[28, 0]),
   midi.NoteOnEvent(tick=0, channel=4, data=[40, 127]),
   midi.NoteOnEvent(tick=60, channel=4, data=[40, 0]),
   midi.NoteOnEvent(tick=0, channel=4, data=[28, 127]),
   midi.NoteOnEvent(tick=60, channel=4, data=[28, 0]),
   midi.NoteOnEvent(tick=0, channel=4, data=[28, 127]),
   midi.NoteOnEvent(tick=40, channel=4, data=[28, 0]),
   midi.NoteOnEvent(tick=0, channel=4, data=[28, 127]),
   midi.NoteOnEvent(tick=40, channel=4, data=[28, 0]),
   midi.NoteOnEvent(tick=0, channel=4, data=[28, 127]),
   midi.NoteOnEvent(tick=40, channel=4, data=[28, 0]),
   midi.NoteOnEvent(tick=0, channel=4, data=[41, 127]),
   midi.NoteOnEvent(tick=120, channel=4, data=[41, 0]),
   midi.NoteOnEvent(tick=0, channel=4, data=[41, 127]),
   midi.NoteOnEvent(tick=120, channel=4, data=[41, 0]),
   midi.NoteOnEvent(tick=0, channel=4, data=[52, 127]),
   midi.NoteOnEvent(tick=40, channel=4, data=[52, 0]),
   midi.NoteOnEvent(tick=0, channel=4, data=[50, 127]),
   midi.NoteOnEvent(tick=40, channel=4, data=[50, 0]),
   midi.NoteOnEvent(tick=0, channel=4, data=[47, 127]),
   midi.NoteOnEvent(tick=40, channel=4, data=[47, 0]),
   midi.NoteOnEvent(tick=0, channel=4, data=[50, 127]),
   midi.NoteOnEvent(tick=40, channel=4, data=[50, 0]),
   midi.NoteOnEvent(tick=0, channel=4, data=[47, 127]),
   midi.NoteOnEvent(tick=40, channel=4, data=[47, 0]),
   midi.NoteOnEvent(tick=0, channel=4, data=[46, 127]),
   midi.NoteOnEvent(tick=40, channel=4, data=[46, 0]),
   midi.NoteOnEvent(tick=0, channel=4, data=[45, 127]),
   midi.NoteOnEvent(tick=40, channel=4, data=[45, 0]),
   midi.NoteOnEvent(tick=0, channel=4, data=[43, 127]),
   midi.NoteOnEvent(tick=40, channel=4, data=[43, 0]),
   midi.NoteOnEvent(tick=0, channel=4, data=[45, 127]),
   midi.NoteOnEvent(tick=40, channel=4, data=[45, 0]),
   midi.NoteOnEvent(tick=0, channel=4, data=[40, 127]),
   midi.NoteOnEvent(tick=40, channel=4, data=[40, 0]),
   midi.NoteOnEvent(tick=0, channel=4, data=[43, 127]),
   midi.NoteOnEvent(tick=40, channel=4, data=[43, 0]),
   midi.NoteOnEvent(tick=0, channel=4, data=[45, 127]),
   midi.NoteOnEvent(tick=40, channel=4, data=[45, 0]),
   midi.NoteOnEvent(tick=0, channel=4, data=[52, 127]),
   midi.NoteOnEvent(tick=40, channel=4, data=[52, 0]),
   midi.NoteOnEvent(tick=0, channel=4, data=[50, 127]),
   midi.NoteOnEvent(tick=40, channel=4, data=[50, 0]),
   midi.NoteOnEvent(tick=0, channel=4, data=[47, 127]),
   midi.NoteOnEvent(tick=40, channel=4, data=[47, 0]),
   midi.NoteOnEvent(tick=0, channel=4, data=[50, 127]),
   midi.NoteOnEvent(tick=40, channel=4, data=[50, 0]),
   midi.NoteOnEvent(tick=0, channel=4, data=[47, 127]),
   midi.NoteOnEvent(tick=40, channel=4, data=[47, 0]),
   midi.NoteOnEvent(tick=0, channel=4, data=[46, 127]),
   midi.NoteOnEvent(tick=40, channel=4, data=[46, 0]),
   midi.NoteOnEvent(tick=0, channel=4, data=[45, 127]),
   midi.NoteOnEvent(tick=40, channel=4, data=[45, 0]),
   midi.NoteOnEvent(tick=0, channel=4, data=[43, 127]),
   midi.NoteOnEvent(tick=40, channel=4, data=[43, 0]),
   midi.NoteOnEvent(tick=0, channel=4, data=[45, 127]),
   midi.NoteOnEvent(tick=40, channel=4, data=[45, 0]),
   midi.NoteOnEvent(tick=0, channel=4, data=[40, 127]),
   midi.NoteOnEvent(tick=40, channel=4, data=[40, 0]),
   midi.NoteOnEvent(tick=0, channel=4, data=[43, 127]),
   midi.NoteOnEvent(tick=40, channel=4, data=[43, 0]),
   midi.NoteOnEvent(tick=0, channel=4, data=[45, 127]),
   midi.NoteOnEvent(tick=40, channel=4, data=[45, 0]),
   midi.NoteOnEvent(tick=0, channel=4, data=[28, 127]),
   midi.NoteOnEvent(tick=60, channel=4, data=[28, 0]),
   midi.NoteOnEvent(tick=1500, channel=4, data=[28, 127]),
   midi.NoteOnEvent(tick=120, channel=4, data=[28, 0]),
   midi.NoteOnEvent(tick=120, channel=4, data=[28, 127]),
   midi.NoteOnEvent(tick=120, channel=4, data=[28, 0]),
   midi.NoteOnEvent(tick=960, channel=4, data=[36, 127]),
   midi.NoteOnEvent(tick=120, channel=4, data=[36, 0]),
   midi.NoteOnEvent(tick=0, channel=4, data=[31, 127]),
   midi.NoteOnEvent(tick=120, channel=4, data=[31, 0]),
   midi.NoteOnEvent(tick=0, channel=4, data=[38, 127]),
   midi.NoteOnEvent(tick=120, channel=4, data=[38, 0]),
   midi.NoteOnEvent(tick=0, channel=4, data=[36, 127]),
   midi.NoteOnEvent(tick=120, channel=4, data=[36, 0]),
   midi.NoteOnEvent(tick=0, channel=4, data=[28, 127]),
   midi.NoteOnEvent(tick=120, channel=4, data=[28, 0]),
   midi.NoteOnEvent(tick=120, channel=4, data=[28, 127]),
   midi.NoteOnEvent(tick=120, channel=4, data=[28, 0]),
   midi.NoteOnEvent(tick=120, channel=4, data=[28, 127]),
   midi.NoteOnEvent(tick=120, channel=4, data=[28, 0]),
   midi.NoteOnEvent(tick=120, channel=4, data=[28, 127]),
   midi.NoteOnEvent(tick=120, channel=4, data=[28, 0]),
   midi.NoteOnEvent(tick=120, channel=4, data=[28, 127]),
   midi.NoteOnEvent(tick=120, channel=4, data=[28, 0]),
   midi.NoteOnEvent(tick=120, channel=4, data=[28, 127]),
   midi.NoteOnEvent(tick=120, channel=4, data=[28, 0]),
   midi.NoteOnEvent(tick=120, channel=4, data=[28, 127]),
   midi.NoteOnEvent(tick=120, channel=4, data=[28, 0]),
   midi.NoteOnEvent(tick=120, channel=4, data=[28, 127]),
   midi.NoteOnEvent(tick=120, channel=4, data=[28, 0]),
   midi.NoteOnEvent(tick=120, channel=4, data=[28, 127]),
   midi.NoteOnEvent(tick=120, channel=4, data=[28, 0]),
   midi.NoteOnEvent(tick=120, channel=4, data=[28, 127]),
   midi.NoteOnEvent(tick=120, channel=4, data=[28, 0]),
   midi.NoteOnEvent(tick=120, channel=4, data=[28, 127]),
   midi.NoteOnEvent(tick=120, channel=4, data=[28, 0]),
   midi.NoteOnEvent(tick=120, channel=4, data=[28, 127]),
   midi.NoteOnEvent(tick=120, channel=4, data=[28, 0]),
   midi.NoteOnEvent(tick=120, channel=4, data=[36, 127]),
   midi.NoteOnEvent(tick=120, channel=4, data=[36, 0]),
   midi.NoteOnEvent(tick=0, channel=4, data=[31, 127]),
   midi.NoteOnEvent(tick=120, channel=4, data=[31, 0]),
   midi.NoteOnEvent(tick=0, channel=4, data=[38, 127]),
   midi.NoteOnEvent(tick=120, channel=4, data=[38, 0]),
   midi.NoteOnEvent(tick=0, channel=4, data=[36, 127]),
   midi.NoteOnEvent(tick=120, channel=4, data=[36, 0]),
   midi.NoteOnEvent(tick=0, channel=4, data=[28, 127]),
   midi.NoteOnEvent(tick=40, channel=4, data=[28, 0]),
   midi.NoteOnEvent(tick=0, channel=4, data=[28, 127]),
   midi.NoteOnEvent(tick=40, channel=4, data=[28, 0]),
   midi.NoteOnEvent(tick=0, channel=4, data=[28, 127]),
   midi.NoteOnEvent(tick=40, channel=4, data=[28, 0]),
   midi.NoteOnEvent(tick=0, channel=4, data=[40, 127]),
   midi.NoteOnEvent(tick=120, channel=4, data=[40, 0]),
   midi.NoteOnEvent(tick=0, channel=4, data=[28, 127]),
   midi.NoteOnEvent(tick=40, channel=4, data=[28, 0]),
   midi.NoteOnEvent(tick=0, channel=4, data=[28, 127]),
   midi.NoteOnEvent(tick=40, channel=4, data=[28, 0]),
   midi.NoteOnEvent(tick=0, channel=4, data=[28, 127]),
   midi.NoteOnEvent(tick=40, channel=4, data=[28, 0]),
   midi.NoteOnEvent(tick=0, channel=4, data=[40, 127]),
   midi.NoteOnEvent(tick=120, channel=4, data=[40, 0]),
   midi.NoteOnEvent(tick=0, channel=4, data=[28, 127]),
   midi.NoteOnEvent(tick=40, channel=4, data=[28, 0]),
   midi.NoteOnEvent(tick=0, channel=4, data=[28, 127]),
   midi.NoteOnEvent(tick=40, channel=4, data=[28, 0]),
   midi.NoteOnEvent(tick=0, channel=4, data=[28, 127]),
   midi.NoteOnEvent(tick=40, channel=4, data=[28, 0]),
   midi.NoteOnEvent(tick=0, channel=4, data=[40, 127]),
   midi.NoteOnEvent(tick=120, channel=4, data=[40, 0]),
   midi.NoteOnEvent(tick=0, channel=4, data=[38, 127]),
   midi.NoteOnEvent(tick=120, channel=4, data=[38, 0]),
   midi.NoteOnEvent(tick=0, channel=4, data=[38, 127]),
   midi.NoteOnEvent(tick=120, channel=4, data=[38, 0]),
   midi.NoteOnEvent(tick=0, channel=4, data=[28, 127]),
   midi.NoteOnEvent(tick=40, channel=4, data=[28, 0]),
   midi.NoteOnEvent(tick=0, channel=4, data=[28, 127]),
   midi.NoteOnEvent(tick=40, channel=4, data=[28, 0]),
   midi.NoteOnEvent(tick=0, channel=4, data=[28, 127]),
   midi.NoteOnEvent(tick=40, channel=4, data=[28, 0]),
   midi.NoteOnEvent(tick=0, channel=4, data=[40, 127]),
   midi.NoteOnEvent(tick=120, channel=4, data=[40, 0]),
   midi.NoteOnEvent(tick=0, channel=4, data=[28, 127]),
   midi.NoteOnEvent(tick=40, channel=4, data=[28, 0]),
   midi.NoteOnEvent(tick=0, channel=4, data=[28, 127]),
   midi.NoteOnEvent(tick=40, channel=4, data=[28, 0]),
   midi.NoteOnEvent(tick=0, channel=4, data=[28, 127]),
   midi.NoteOnEvent(tick=40, channel=4, data=[28, 0]),
   midi.NoteOnEvent(tick=0, channel=4, data=[40, 127]),
   midi.NoteOnEvent(tick=120, channel=4, data=[40, 0]),
   midi.NoteOnEvent(tick=0, channel=4, data=[28, 127]),
   midi.NoteOnEvent(tick=40, channel=4, data=[28, 0]),
   midi.NoteOnEvent(tick=0, channel=4, data=[28, 127]),
   midi.NoteOnEvent(tick=40, channel=4, data=[28, 0]),
   midi.NoteOnEvent(tick=0, channel=4, data=[28, 127]),
   midi.NoteOnEvent(tick=40, channel=4, data=[28, 0]),
   midi.NoteOnEvent(tick=0, channel=4, data=[40, 127]),
   midi.NoteOnEvent(tick=120, channel=4, data=[40, 0]),
   midi.NoteOnEvent(tick=0, channel=4, data=[36, 127]),
   midi.NoteOnEvent(tick=120, channel=4, data=[36, 0]),
   midi.NoteOnEvent(tick=0, channel=4, data=[38, 127]),
   midi.NoteOnEvent(tick=120, channel=4, data=[38, 0]),
   midi.NoteOnEvent(tick=0, channel=4, data=[28, 127]),
   midi.NoteOnEvent(tick=40, channel=4, data=[28, 0]),
   midi.NoteOnEvent(tick=0, channel=4, data=[28, 127]),
   midi.NoteOnEvent(tick=40, channel=4, data=[28, 0]),
   midi.NoteOnEvent(tick=0, channel=4, data=[28, 127]),
   midi.NoteOnEvent(tick=40, channel=4, data=[28, 0]),
   midi.NoteOnEvent(tick=0, channel=4, data=[40, 127]),
   midi.NoteOnEvent(tick=120, channel=4, data=[40, 0]),
   midi.NoteOnEvent(tick=0, channel=4, data=[28, 127]),
   midi.NoteOnEvent(tick=40, channel=4, data=[28, 0]),
   midi.NoteOnEvent(tick=0, channel=4, data=[28, 127]),
   midi.NoteOnEvent(tick=40, channel=4, data=[28, 0]),
   midi.NoteOnEvent(tick=0, channel=4, data=[28, 127]),
   midi.NoteOnEvent(tick=40, channel=4, data=[28, 0]),
   midi.NoteOnEvent(tick=0, channel=4, data=[40, 127]),
   midi.NoteOnEvent(tick=120, channel=4, data=[40, 0]),
   midi.NoteOnEvent(tick=0, channel=4, data=[28, 127]),
   midi.NoteOnEvent(tick=40, channel=4, data=[28, 0]),
   midi.NoteOnEvent(tick=0, channel=4, data=[28, 127]),
   midi.NoteOnEvent(tick=40, channel=4, data=[28, 0]),
   midi.NoteOnEvent(tick=0, channel=4, data=[28, 127]),
   midi.NoteOnEvent(tick=40, channel=4, data=[28, 0]),
   midi.NoteOnEvent(tick=0, channel=4, data=[40, 127]),
   midi.NoteOnEvent(tick=120, channel=4, data=[40, 0]),
   midi.NoteOnEvent(tick=0, channel=4, data=[43, 127]),
   midi.NoteOnEvent(tick=120, channel=4, data=[43, 0]),
   midi.NoteOnEvent(tick=0, channel=4, data=[40, 127]),
   midi.NoteOnEvent(tick=120, channel=4, data=[40, 0]),
   midi.NoteOnEvent(tick=0, channel=4, data=[36, 127]),
   midi.NoteOnEvent(tick=120, channel=4, data=[36, 0]),
   midi.NoteOnEvent(tick=0, channel=4, data=[31, 127]),
   midi.NoteOnEvent(tick=120, channel=4, data=[31, 0]),
   midi.NoteOnEvent(tick=0, channel=4, data=[38, 127]),
   midi.NoteOnEvent(tick=120, channel=4, data=[38, 0]),
   midi.NoteOnEvent(tick=0, channel=4, data=[36, 127]),
   midi.NoteOnEvent(tick=120, channel=4, data=[36, 0]),
   midi.NoteOnEvent(tick=0, channel=4, data=[28, 127]),
   midi.NoteOnEvent(tick=40, channel=4, data=[28, 0]),
   midi.NoteOnEvent(tick=0, channel=4, data=[28, 127]),
   midi.NoteOnEvent(tick=40, channel=4, data=[28, 0]),
   midi.NoteOnEvent(tick=0, channel=4, data=[28, 127]),
   midi.NoteOnEvent(tick=40, channel=4, data=[28, 0]),
   midi.NoteOnEvent(tick=0, channel=4, data=[40, 127]),
   midi.NoteOnEvent(tick=120, channel=4, data=[40, 0]),
   midi.NoteOnEvent(tick=0, channel=4, data=[28, 127]),
   midi.NoteOnEvent(tick=40, channel=4, data=[28, 0]),
   midi.NoteOnEvent(tick=0, channel=4, data=[28, 127]),
   midi.NoteOnEvent(tick=40, channel=4, data=[28, 0]),
   midi.NoteOnEvent(tick=0, channel=4, data=[28, 127]),
   midi.NoteOnEvent(tick=40, channel=4, data=[28, 0]),
   midi.NoteOnEvent(tick=0, channel=4, data=[40, 127]),
   midi.NoteOnEvent(tick=120, channel=4, data=[40, 0]),
   midi.NoteOnEvent(tick=0, channel=4, data=[28, 127]),
   midi.NoteOnEvent(tick=40, channel=4, data=[28, 0]),
   midi.NoteOnEvent(tick=0, channel=4, data=[28, 127]),
   midi.NoteOnEvent(tick=40, channel=4, data=[28, 0]),
   midi.NoteOnEvent(tick=0, channel=4, data=[28, 127]),
   midi.NoteOnEvent(tick=40, channel=4, data=[28, 0]),
   midi.NoteOnEvent(tick=0, channel=4, data=[40, 127]),
   midi.NoteOnEvent(tick=120, channel=4, data=[40, 0]),
   midi.NoteOnEvent(tick=0, channel=4, data=[38, 127]),
   midi.NoteOnEvent(tick=120, channel=4, data=[38, 0]),
   midi.NoteOnEvent(tick=0, channel=4, data=[38, 127]),
   midi.NoteOnEvent(tick=120, channel=4, data=[38, 0]),
   midi.NoteOnEvent(tick=0, channel=4, data=[28, 127]),
   midi.NoteOnEvent(tick=40, channel=4, data=[28, 0]),
   midi.NoteOnEvent(tick=0, channel=4, data=[28, 127]),
   midi.NoteOnEvent(tick=40, channel=4, data=[28, 0]),
   midi.NoteOnEvent(tick=0, channel=4, data=[28, 127]),
   midi.NoteOnEvent(tick=40, channel=4, data=[28, 0]),
   midi.NoteOnEvent(tick=0, channel=4, data=[40, 127]),
   midi.NoteOnEvent(tick=120, channel=4, data=[40, 0]),
   midi.NoteOnEvent(tick=0, channel=4, data=[28, 127]),
   midi.NoteOnEvent(tick=40, channel=4, data=[28, 0]),
   midi.NoteOnEvent(tick=0, channel=4, data=[28, 127]),
   midi.NoteOnEvent(tick=40, channel=4, data=[28, 0]),
   midi.NoteOnEvent(tick=0, channel=4, data=[28, 127]),
   midi.NoteOnEvent(tick=40, channel=4, data=[28, 0]),
   midi.NoteOnEvent(tick=0, channel=4, data=[40, 127]),
   midi.NoteOnEvent(tick=120, channel=4, data=[40, 0]),
   midi.NoteOnEvent(tick=0, channel=4, data=[28, 127]),
   midi.NoteOnEvent(tick=40, channel=4, data=[28, 0]),
   midi.NoteOnEvent(tick=0, channel=4, data=[28, 127]),
   midi.NoteOnEvent(tick=40, channel=4, data=[28, 0]),
   midi.NoteOnEvent(tick=0, channel=4, data=[28, 127]),
   midi.NoteOnEvent(tick=40, channel=4, data=[28, 0]),
   midi.NoteOnEvent(tick=0, channel=4, data=[40, 127]),
   midi.NoteOnEvent(tick=120, channel=4, data=[40, 0]),
   midi.NoteOnEvent(tick=0, channel=4, data=[36, 127]),
   midi.NoteOnEvent(tick=120, channel=4, data=[36, 0]),
   midi.NoteOnEvent(tick=0, channel=4, data=[38, 127]),
   midi.NoteOnEvent(tick=120, channel=4, data=[38, 0]),
   midi.NoteOnEvent(tick=0, channel=4, data=[28, 127]),
   midi.NoteOnEvent(tick=40, channel=4, data=[28, 0]),
   midi.NoteOnEvent(tick=0, channel=4, data=[28, 127]),
   midi.NoteOnEvent(tick=40, channel=4, data=[28, 0]),
   midi.NoteOnEvent(tick=0, channel=4, data=[28, 127]),
   midi.NoteOnEvent(tick=40, channel=4, data=[28, 0]),
   midi.NoteOnEvent(tick=0, channel=4, data=[40, 127]),
   midi.NoteOnEvent(tick=120, channel=4, data=[40, 0]),
   midi.NoteOnEvent(tick=0, channel=4, data=[28, 127]),
   midi.NoteOnEvent(tick=40, channel=4, data=[28, 0]),
   midi.NoteOnEvent(tick=0, channel=4, data=[28, 127]),
   midi.NoteOnEvent(tick=40, channel=4, data=[28, 0]),
   midi.NoteOnEvent(tick=0, channel=4, data=[28, 127]),
   midi.NoteOnEvent(tick=40, channel=4, data=[28, 0]),
   midi.NoteOnEvent(tick=0, channel=4, data=[40, 127]),
   midi.NoteOnEvent(tick=120, channel=4, data=[40, 0]),
   midi.NoteOnEvent(tick=0, channel=4, data=[28, 127]),
   midi.NoteOnEvent(tick=40, channel=4, data=[28, 0]),
   midi.NoteOnEvent(tick=0, channel=4, data=[28, 127]),
   midi.NoteOnEvent(tick=40, channel=4, data=[28, 0]),
   midi.NoteOnEvent(tick=0, channel=4, data=[28, 127]),
   midi.NoteOnEvent(tick=40, channel=4, data=[28, 0]),
   midi.NoteOnEvent(tick=0, channel=4, data=[40, 127]),
   midi.NoteOnEvent(tick=120, channel=4, data=[40, 0]),
   midi.NoteOnEvent(tick=0, channel=4, data=[43, 127]),
   midi.NoteOnEvent(tick=120, channel=4, data=[43, 0]),
   midi.NoteOnEvent(tick=0, channel=4, data=[40, 127]),
   midi.NoteOnEvent(tick=120, channel=4, data=[40, 0]),
   midi.NoteOnEvent(tick=0, channel=4, data=[36, 127]),
   midi.NoteOnEvent(tick=120, channel=4, data=[36, 0]),
   midi.NoteOnEvent(tick=0, channel=4, data=[31, 127]),
   midi.NoteOnEvent(tick=120, channel=4, data=[31, 0]),
   midi.NoteOnEvent(tick=0, channel=4, data=[38, 127]),
   midi.NoteOnEvent(tick=120, channel=4, data=[38, 0]),
   midi.NoteOnEvent(tick=0, channel=4, data=[36, 127]),
   midi.NoteOnEvent(tick=120, channel=4, data=[36, 0]),
   midi.NoteOnEvent(tick=0, channel=4, data=[40, 127]),
   midi.NoteOnEvent(tick=120, channel=4, data=[40, 0]),
   midi.NoteOnEvent(tick=0, channel=4, data=[40, 127]),
   midi.NoteOnEvent(tick=60, channel=4, data=[40, 0]),
   midi.NoteOnEvent(tick=0, channel=4, data=[40, 127]),
   midi.NoteOnEvent(tick=60, channel=4, data=[40, 0]),
   midi.NoteOnEvent(tick=0, channel=4, data=[40, 127]),
   midi.NoteOnEvent(tick=60, channel=4, data=[40, 0]),
   midi.NoteOnEvent(tick=0, channel=4, data=[33, 127]),
   midi.NoteOnEvent(tick=60, channel=4, data=[33, 0]),
   midi.NoteOnEvent(tick=0, channel=4, data=[40, 127]),
   midi.NoteOnEvent(tick=60, channel=4, data=[40, 0]),
   midi.NoteOnEvent(tick=0, channel=4, data=[33, 127]),
   midi.NoteOnEvent(tick=60, channel=4, data=[33, 0]),
   midi.NoteOnEvent(tick=0, channel=4, data=[40, 127]),
   midi.NoteOnEvent(tick=60, channel=4, data=[40, 0]),
   midi.NoteOnEvent(tick=0, channel=4, data=[33, 127]),
   midi.NoteOnEvent(tick=60, channel=4, data=[33, 0]),
   midi.NoteOnEvent(tick=0, channel=4, data=[40, 127]),
   midi.NoteOnEvent(tick=60, channel=4, data=[40, 0]),
   midi.NoteOnEvent(tick=0, channel=4, data=[33, 127]),
   midi.NoteOnEvent(tick=60, channel=4, data=[33, 0]),
   midi.NoteOnEvent(tick=0, channel=4, data=[40, 127]),
   midi.NoteOnEvent(tick=60, channel=4, data=[40, 0]),
   midi.NoteOnEvent(tick=0, channel=4, data=[33, 127]),
   midi.NoteOnEvent(tick=60, channel=4, data=[33, 0]),
   midi.NoteOnEvent(tick=0, channel=4, data=[40, 127]),
   midi.NoteOnEvent(tick=60, channel=4, data=[40, 0]),
   midi.NoteOnEvent(tick=0, channel=4, data=[33, 127]),
   midi.NoteOnEvent(tick=60, channel=4, data=[33, 0]),
   midi.NoteOnEvent(tick=0, channel=4, data=[38, 127]),
   midi.NoteOnEvent(tick=60, channel=4, data=[38, 0]),
   midi.NoteOnEvent(tick=0, channel=4, data=[38, 127]),
   midi.NoteOnEvent(tick=60, channel=4, data=[38, 0]),
   midi.NoteOnEvent(tick=0, channel=4, data=[38, 127]),
   midi.NoteOnEvent(tick=60, channel=4, data=[38, 0]),
   midi.NoteOnEvent(tick=0, channel=4, data=[38, 127]),
   midi.NoteOnEvent(tick=60, channel=4, data=[38, 0]),
   midi.NoteOnEvent(tick=0, channel=4, data=[38, 127]),
   midi.NoteOnEvent(tick=60, channel=4, data=[38, 0]),
   midi.NoteOnEvent(tick=0, channel=4, data=[33, 127]),
   midi.NoteOnEvent(tick=60, channel=4, data=[33, 0]),
   midi.NoteOnEvent(tick=0, channel=4, data=[38, 127]),
   midi.NoteOnEvent(tick=60, channel=4, data=[38, 0]),
   midi.NoteOnEvent(tick=0, channel=4, data=[33, 127]),
   midi.NoteOnEvent(tick=60, channel=4, data=[33, 0]),
   midi.NoteOnEvent(tick=0, channel=4, data=[38, 127]),
   midi.NoteOnEvent(tick=60, channel=4, data=[38, 0]),
   midi.NoteOnEvent(tick=0, channel=4, data=[33, 127]),
   midi.NoteOnEvent(tick=60, channel=4, data=[33, 0]),
   midi.NoteOnEvent(tick=0, channel=4, data=[38, 127]),
   midi.NoteOnEvent(tick=60, channel=4, data=[38, 0]),
   midi.NoteOnEvent(tick=0, channel=4, data=[33, 127]),
   midi.NoteOnEvent(tick=60, channel=4, data=[33, 0]),
   midi.NoteOnEvent(tick=0, channel=4, data=[38, 127]),
   midi.NoteOnEvent(tick=60, channel=4, data=[38, 0]),
   midi.NoteOnEvent(tick=0, channel=4, data=[33, 127]),
   midi.NoteOnEvent(tick=60, channel=4, data=[33, 0]),
   midi.NoteOnEvent(tick=0, channel=4, data=[38, 127]),
   midi.NoteOnEvent(tick=60, channel=4, data=[38, 0]),
   midi.NoteOnEvent(tick=0, channel=4, data=[33, 127]),
   midi.NoteOnEvent(tick=60, channel=4, data=[33, 0]),
   midi.NoteOnEvent(tick=0, channel=4, data=[36, 127]),
   midi.NoteOnEvent(tick=60, channel=4, data=[36, 0]),
   midi.NoteOnEvent(tick=0, channel=4, data=[36, 127]),
   midi.NoteOnEvent(tick=60, channel=4, data=[36, 0]),
   midi.NoteOnEvent(tick=0, channel=4, data=[36, 127]),
   midi.NoteOnEvent(tick=60, channel=4, data=[36, 0]),
   midi.NoteOnEvent(tick=0, channel=4, data=[33, 127]),
   midi.NoteOnEvent(tick=60, channel=4, data=[33, 0]),
   midi.NoteOnEvent(tick=0, channel=4, data=[36, 127]),
   midi.NoteOnEvent(tick=60, channel=4, data=[36, 0]),
   midi.NoteOnEvent(tick=0, channel=4, data=[33, 127]),
   midi.NoteOnEvent(tick=60, channel=4, data=[33, 0]),
   midi.NoteOnEvent(tick=0, channel=4, data=[36, 127]),
   midi.NoteOnEvent(tick=60, channel=4, data=[36, 0]),
   midi.NoteOnEvent(tick=0, channel=4, data=[33, 127]),
   midi.NoteOnEvent(tick=60, channel=4, data=[33, 0]),
   midi.NoteOnEvent(tick=0, channel=4, data=[36, 127]),
   midi.NoteOnEvent(tick=60, channel=4, data=[36, 0]),
   midi.NoteOnEvent(tick=0, channel=4, data=[33, 127]),
   midi.NoteOnEvent(tick=60, channel=4, data=[33, 0]),
   midi.NoteOnEvent(tick=0, channel=4, data=[36, 127]),
   midi.NoteOnEvent(tick=60, channel=4, data=[36, 0]),
   midi.NoteOnEvent(tick=0, channel=4, data=[33, 127]),
   midi.NoteOnEvent(tick=60, channel=4, data=[33, 0]),
   midi.NoteOnEvent(tick=0, channel=4, data=[36, 127]),
   midi.NoteOnEvent(tick=60, channel=4, data=[36, 0]),
   midi.NoteOnEvent(tick=0, channel=4, data=[33, 127]),
   midi.NoteOnEvent(tick=60, channel=4, data=[33, 0]),
   midi.NoteOnEvent(tick=0, channel=4, data=[36, 127]),
   midi.NoteOnEvent(tick=60, channel=4, data=[36, 0]),
   midi.NoteOnEvent(tick=0, channel=4, data=[33, 127]),
   midi.NoteOnEvent(tick=60, channel=4, data=[33, 0]),
   midi.NoteOnEvent(tick=0, channel=4, data=[35, 127]),
   midi.NoteOnEvent(tick=120, channel=4, data=[35, 0]),
   midi.NoteOnEvent(tick=0, channel=4, data=[36, 127]),
   midi.NoteOnEvent(tick=120, channel=4, data=[36, 0]),
   midi.NoteOnEvent(tick=0, channel=4, data=[38, 127]),
   midi.NoteOnEvent(tick=120, channel=4, data=[38, 0]),
   midi.NoteOnEvent(tick=0, channel=4, data=[40, 127]),
   midi.NoteOnEvent(tick=120, channel=4, data=[40, 0]),
   midi.NoteOnEvent(tick=0, channel=4, data=[42, 127]),
   midi.NoteOnEvent(tick=120, channel=4, data=[42, 0]),
   midi.NoteOnEvent(tick=0, channel=4, data=[43, 127]),
   midi.NoteOnEvent(tick=120, channel=4, data=[43, 0]),
   midi.NoteOnEvent(tick=0, channel=4, data=[45, 127]),
   midi.NoteOnEvent(tick=120, channel=4, data=[45, 0]),
   midi.NoteOnEvent(tick=0, channel=4, data=[45, 127]),
   midi.NoteOnEvent(tick=40, channel=4, data=[45, 0]),
   midi.NoteOnEvent(tick=0, channel=4, data=[46, 127]),
   midi.NoteOnEvent(tick=40, channel=4, data=[46, 0]),
   midi.NoteOnEvent(tick=0, channel=4, data=[47, 127]),
   midi.NoteOnEvent(tick=40, channel=4, data=[47, 0]),
   midi.NoteOnEvent(tick=0, channel=4, data=[40, 127]),
   midi.NoteOnEvent(tick=120, channel=4, data=[40, 0]),
   midi.NoteOnEvent(tick=0, channel=4, data=[40, 127]),
   midi.NoteOnEvent(tick=60, channel=4, data=[40, 0]),
   midi.NoteOnEvent(tick=0, channel=4, data=[33, 127]),
   midi.NoteOnEvent(tick=60, channel=4, data=[33, 0]),
   midi.NoteOnEvent(tick=0, channel=4, data=[40, 127]),
   midi.NoteOnEvent(tick=60, channel=4, data=[40, 0]),
   midi.NoteOnEvent(tick=0, channel=4, data=[33, 127]),
   midi.NoteOnEvent(tick=60, channel=4, data=[33, 0]),
   midi.NoteOnEvent(tick=0, channel=4, data=[40, 127]),
   midi.NoteOnEvent(tick=60, channel=4, data=[40, 0]),
   midi.NoteOnEvent(tick=0, channel=4, data=[33, 127]),
   midi.NoteOnEvent(tick=60, channel=4, data=[33, 0]),
   midi.NoteOnEvent(tick=0, channel=4, data=[40, 127]),
   midi.NoteOnEvent(tick=60, channel=4, data=[40, 0]),
   midi.NoteOnEvent(tick=0, channel=4, data=[33, 127]),
   midi.NoteOnEvent(tick=60, channel=4, data=[33, 0]),
   midi.NoteOnEvent(tick=0, channel=4, data=[40, 127]),
   midi.NoteOnEvent(tick=60, channel=4, data=[40, 0]),
   midi.NoteOnEvent(tick=0, channel=4, data=[33, 127]),
   midi.NoteOnEvent(tick=60, channel=4, data=[33, 0]),
   midi.NoteOnEvent(tick=0, channel=4, data=[40, 127]),
   midi.NoteOnEvent(tick=60, channel=4, data=[40, 0]),
   midi.NoteOnEvent(tick=0, channel=4, data=[33, 127]),
   midi.NoteOnEvent(tick=60, channel=4, data=[33, 0]),
   midi.NoteOnEvent(tick=0, channel=4, data=[40, 127]),
   midi.NoteOnEvent(tick=60, channel=4, data=[40, 0]),
   midi.NoteOnEvent(tick=0, channel=4, data=[33, 127]),
   midi.NoteOnEvent(tick=60, channel=4, data=[33, 0]),
   midi.NoteOnEvent(tick=0, channel=4, data=[38, 127]),
   midi.NoteOnEvent(tick=60, channel=4, data=[38, 0]),
   midi.NoteOnEvent(tick=0, channel=4, data=[38, 127]),
   midi.NoteOnEvent(tick=60, channel=4, data=[38, 0]),
   midi.NoteOnEvent(tick=0, channel=4, data=[38, 127]),
   midi.NoteOnEvent(tick=60, channel=4, data=[38, 0]),
   midi.NoteOnEvent(tick=0, channel=4, data=[33, 127]),
   midi.NoteOnEvent(tick=60, channel=4, data=[33, 0]),
   midi.NoteOnEvent(tick=0, channel=4, data=[38, 127]),
   midi.NoteOnEvent(tick=60, channel=4, data=[38, 0]),
   midi.NoteOnEvent(tick=0, channel=4, data=[33, 127]),
   midi.NoteOnEvent(tick=60, channel=4, data=[33, 0]),
   midi.NoteOnEvent(tick=0, channel=4, data=[38, 127]),
   midi.NoteOnEvent(tick=60, channel=4, data=[38, 0]),
   midi.NoteOnEvent(tick=0, channel=4, data=[33, 127]),
   midi.NoteOnEvent(tick=60, channel=4, data=[33, 0]),
   midi.NoteOnEvent(tick=0, channel=4, data=[38, 127]),
   midi.NoteOnEvent(tick=60, channel=4, data=[38, 0]),
   midi.NoteOnEvent(tick=0, channel=4, data=[33, 127]),
   midi.NoteOnEvent(tick=60, channel=4, data=[33, 0]),
   midi.NoteOnEvent(tick=0, channel=4, data=[38, 127]),
   midi.NoteOnEvent(tick=60, channel=4, data=[38, 0]),
   midi.NoteOnEvent(tick=0, channel=4, data=[33, 127]),
   midi.NoteOnEvent(tick=60, channel=4, data=[33, 0]),
   midi.NoteOnEvent(tick=0, channel=4, data=[38, 127]),
   midi.NoteOnEvent(tick=60, channel=4, data=[38, 0]),
   midi.NoteOnEvent(tick=0, channel=4, data=[33, 127]),
   midi.NoteOnEvent(tick=60, channel=4, data=[33, 0]),
   midi.NoteOnEvent(tick=0, channel=4, data=[38, 127]),
   midi.NoteOnEvent(tick=60, channel=4, data=[38, 0]),
   midi.NoteOnEvent(tick=0, channel=4, data=[33, 127]),
   midi.NoteOnEvent(tick=60, channel=4, data=[33, 0]),
   midi.NoteOnEvent(tick=0, channel=4, data=[36, 127]),
   midi.NoteOnEvent(tick=60, channel=4, data=[36, 0]),
   midi.NoteOnEvent(tick=0, channel=4, data=[36, 127]),
   midi.NoteOnEvent(tick=60, channel=4, data=[36, 0]),
   midi.NoteOnEvent(tick=0, channel=4, data=[36, 127]),
   midi.NoteOnEvent(tick=60, channel=4, data=[36, 0]),
   midi.NoteOnEvent(tick=0, channel=4, data=[33, 127]),
   midi.NoteOnEvent(tick=60, channel=4, data=[33, 0]),
   midi.NoteOnEvent(tick=0, channel=4, data=[36, 127]),
   midi.NoteOnEvent(tick=60, channel=4, data=[36, 0]),
   midi.NoteOnEvent(tick=0, channel=4, data=[33, 127]),
   midi.NoteOnEvent(tick=60, channel=4, data=[33, 0]),
   midi.NoteOnEvent(tick=0, channel=4, data=[36, 127]),
   midi.NoteOnEvent(tick=60, channel=4, data=[36, 0]),
   midi.NoteOnEvent(tick=0, channel=4, data=[33, 127]),
   midi.NoteOnEvent(tick=60, channel=4, data=[33, 0]),
   midi.NoteOnEvent(tick=0, channel=4, data=[35, 127]),
   midi.NoteOnEvent(tick=120, channel=4, data=[35, 0]),
   midi.NoteOnEvent(tick=0, channel=4, data=[36, 127]),
   midi.NoteOnEvent(tick=120, channel=4, data=[36, 0]),
   midi.NoteOnEvent(tick=0, channel=4, data=[35, 127]),
   midi.NoteOnEvent(tick=120, channel=4, data=[35, 0]),
   midi.NoteOnEvent(tick=0, channel=4, data=[31, 127]),
   midi.NoteOnEvent(tick=120, channel=4, data=[31, 0]),
   midi.NoteOnEvent(tick=0, channel=4, data=[40, 127]),
   midi.NoteOnEvent(tick=60, channel=4, data=[40, 0]),
   midi.NoteOnEvent(tick=0, channel=4, data=[38, 127]),
   midi.NoteOnEvent(tick=60, channel=4, data=[38, 0]),
   midi.NoteOnEvent(tick=0, channel=4, data=[40, 127]),
   midi.NoteOnEvent(tick=60, channel=4, data=[40, 0]),
   midi.NoteOnEvent(tick=0, channel=4, data=[38, 127]),
   midi.NoteOnEvent(tick=60, channel=4, data=[38, 0]),
   midi.NoteOnEvent(tick=0, channel=4, data=[40, 127]),
   midi.NoteOnEvent(tick=60, channel=4, data=[40, 0]),
   midi.NoteOnEvent(tick=0, channel=4, data=[38, 127]),
   midi.NoteOnEvent(tick=60, channel=4, data=[38, 0]),
   midi.NoteOnEvent(tick=0, channel=4, data=[40, 127]),
   midi.NoteOnEvent(tick=60, channel=4, data=[40, 0]),
   midi.NoteOnEvent(tick=0, channel=4, data=[38, 127]),
   midi.NoteOnEvent(tick=60, channel=4, data=[38, 0]),
   midi.NoteOnEvent(tick=0, channel=4, data=[40, 127]),
   midi.NoteOnEvent(tick=60, channel=4, data=[40, 0]),
   midi.NoteOnEvent(tick=0, channel=4, data=[38, 127]),
   midi.NoteOnEvent(tick=60, channel=4, data=[38, 0]),
   midi.NoteOnEvent(tick=0, channel=4, data=[40, 127]),
   midi.NoteOnEvent(tick=60, channel=4, data=[40, 0]),
   midi.NoteOnEvent(tick=0, channel=4, data=[38, 127]),
   midi.NoteOnEvent(tick=60, channel=4, data=[38, 0]),
   midi.NoteOnEvent(tick=0, channel=4, data=[40, 127]),
   midi.NoteOnEvent(tick=60, channel=4, data=[40, 0]),
   midi.NoteOnEvent(tick=0, channel=4, data=[38, 127]),
   midi.NoteOnEvent(tick=60, channel=4, data=[38, 0]),
   midi.NoteOnEvent(tick=0, channel=4, data=[35, 127]),
   midi.NoteOnEvent(tick=60, channel=4, data=[35, 0]),
   midi.NoteOnEvent(tick=0, channel=4, data=[38, 127]),
   midi.NoteOnEvent(tick=60, channel=4, data=[38, 0]),
   midi.NoteOnEvent(tick=0, channel=4, data=[40, 127]),
   midi.NoteOnEvent(tick=60, channel=4, data=[40, 0]),
   midi.NoteOnEvent(tick=0, channel=4, data=[38, 127]),
   midi.NoteOnEvent(tick=60, channel=4, data=[38, 0]),
   midi.NoteOnEvent(tick=0, channel=4, data=[40, 127]),
   midi.NoteOnEvent(tick=60, channel=4, data=[40, 0]),
   midi.NoteOnEvent(tick=0, channel=4, data=[38, 127]),
   midi.NoteOnEvent(tick=60, channel=4, data=[38, 0]),
   midi.NoteOnEvent(tick=0, channel=4, data=[40, 127]),
   midi.NoteOnEvent(tick=60, channel=4, data=[40, 0]),
   midi.NoteOnEvent(tick=0, channel=4, data=[38, 127]),
   midi.NoteOnEvent(tick=60, channel=4, data=[38, 0]),
   midi.NoteOnEvent(tick=0, channel=4, data=[40, 127]),
   midi.NoteOnEvent(tick=60, channel=4, data=[40, 0]),
   midi.NoteOnEvent(tick=0, channel=4, data=[38, 127]),
   midi.NoteOnEvent(tick=60, channel=4, data=[38, 0]),
   midi.NoteOnEvent(tick=0, channel=4, data=[34, 127]),
   midi.NoteOnEvent(tick=40, channel=4, data=[34, 0]),
   midi.NoteOnEvent(tick=0, channel=4, data=[35, 127]),
   midi.NoteOnEvent(tick=40, channel=4, data=[35, 0]),
   midi.NoteOnEvent(tick=0, channel=4, data=[38, 127]),
   midi.NoteOnEvent(tick=40, channel=4, data=[38, 0]),
   midi.NoteOnEvent(tick=0, channel=4, data=[40, 127]),
   midi.NoteOnEvent(tick=60, channel=4, data=[40, 0]),
   midi.NoteOnEvent(tick=0, channel=4, data=[38, 127]),
   midi.NoteOnEvent(tick=60, channel=4, data=[38, 0]),
   midi.NoteOnEvent(tick=0, channel=4, data=[45, 127]),
   midi.NoteOnEvent(tick=60, channel=4, data=[45, 0]),
   midi.NoteOnEvent(tick=0, channel=4, data=[43, 127]),
   midi.NoteOnEvent(tick=60, channel=4, data=[43, 0]),
   midi.NoteOnEvent(tick=0, channel=4, data=[40, 127]),
   midi.NoteOnEvent(tick=60, channel=4, data=[40, 0]),
   midi.NoteOnEvent(tick=0, channel=4, data=[38, 127]),
   midi.NoteOnEvent(tick=60, channel=4, data=[38, 0]),
   midi.NoteOnEvent(tick=0, channel=4, data=[40, 127]),
   midi.NoteOnEvent(tick=60, channel=4, data=[40, 0]),
   midi.NoteOnEvent(tick=0, channel=4, data=[38, 127]),
   midi.NoteOnEvent(tick=60, channel=4, data=[38, 0]),
   midi.NoteOnEvent(tick=0, channel=4, data=[40, 127]),
   midi.NoteOnEvent(tick=60, channel=4, data=[40, 0]),
   midi.NoteOnEvent(tick=0, channel=4, data=[38, 127]),
   midi.NoteOnEvent(tick=60, channel=4, data=[38, 0]),
   midi.NoteOnEvent(tick=0, channel=4, data=[40, 127]),
   midi.NoteOnEvent(tick=60, channel=4, data=[40, 0]),
   midi.NoteOnEvent(tick=0, channel=4, data=[38, 127]),
   midi.NoteOnEvent(tick=60, channel=4, data=[38, 0]),
   midi.NoteOnEvent(tick=0, channel=4, data=[35, 127]),
   midi.NoteOnEvent(tick=60, channel=4, data=[35, 0]),
   midi.NoteOnEvent(tick=0, channel=4, data=[38, 127]),
   midi.NoteOnEvent(tick=60, channel=4, data=[38, 0]),
   midi.NoteOnEvent(tick=0, channel=4, data=[40, 127]),
   midi.NoteOnEvent(tick=60, channel=4, data=[40, 0]),
   midi.NoteOnEvent(tick=0, channel=4, data=[38, 127]),
   midi.NoteOnEvent(tick=60, channel=4, data=[38, 0]),
   midi.NoteOnEvent(tick=0, channel=4, data=[40, 127]),
   midi.NoteOnEvent(tick=60, channel=4, data=[40, 0]),
   midi.NoteOnEvent(tick=0, channel=4, data=[38, 127]),
   midi.NoteOnEvent(tick=60, channel=4, data=[38, 0]),
   midi.NoteOnEvent(tick=0, channel=4, data=[40, 127]),
   midi.NoteOnEvent(tick=60, channel=4, data=[40, 0]),
   midi.NoteOnEvent(tick=0, channel=4, data=[38, 127]),
   midi.NoteOnEvent(tick=60, channel=4, data=[38, 0]),
   midi.NoteOnEvent(tick=0, channel=4, data=[35, 127]),
   midi.NoteOnEvent(tick=60, channel=4, data=[35, 0]),
   midi.NoteOnEvent(tick=0, channel=4, data=[33, 127]),
   midi.NoteOnEvent(tick=60, channel=4, data=[33, 0]),
   midi.NoteOnEvent(tick=0, channel=4, data=[36, 127]),
   midi.NoteOnEvent(tick=120, channel=4, data=[36, 0]),
   midi.NoteOnEvent(tick=0, channel=4, data=[31, 127]),
   midi.NoteOnEvent(tick=120, channel=4, data=[31, 0]),
   midi.NoteOnEvent(tick=0, channel=4, data=[38, 127]),
   midi.NoteOnEvent(tick=120, channel=4, data=[38, 0]),
   midi.NoteOnEvent(tick=0, channel=4, data=[36, 127]),
   midi.NoteOnEvent(tick=120, channel=4, data=[36, 0]),
   midi.NoteOnEvent(tick=0, channel=4, data=[40, 127]),
   midi.NoteOnEvent(tick=60, channel=4, data=[40, 0]),
   midi.NoteOnEvent(tick=0, channel=4, data=[38, 127]),
   midi.NoteOnEvent(tick=60, channel=4, data=[38, 0]),
   midi.NoteOnEvent(tick=0, channel=4, data=[40, 127]),
   midi.NoteOnEvent(tick=60, channel=4, data=[40, 0]),
   midi.NoteOnEvent(tick=0, channel=4, data=[38, 127]),
   midi.NoteOnEvent(tick=60, channel=4, data=[38, 0]),
   midi.NoteOnEvent(tick=0, channel=4, data=[40, 127]),
   midi.NoteOnEvent(tick=60, channel=4, data=[40, 0]),
   midi.NoteOnEvent(tick=0, channel=4, data=[38, 127]),
   midi.NoteOnEvent(tick=60, channel=4, data=[38, 0]),
   midi.NoteOnEvent(tick=0, channel=4, data=[40, 127]),
   midi.NoteOnEvent(tick=60, channel=4, data=[40, 0]),
   midi.NoteOnEvent(tick=0, channel=4, data=[38, 127]),
   midi.NoteOnEvent(tick=60, channel=4, data=[38, 0]),
   midi.NoteOnEvent(tick=0, channel=4, data=[40, 127]),
   midi.NoteOnEvent(tick=60, channel=4, data=[40, 0]),
   midi.NoteOnEvent(tick=0, channel=4, data=[38, 127]),
   midi.NoteOnEvent(tick=60, channel=4, data=[38, 0]),
   midi.NoteOnEvent(tick=0, channel=4, data=[40, 127]),
   midi.NoteOnEvent(tick=60, channel=4, data=[40, 0]),
   midi.NoteOnEvent(tick=0, channel=4, data=[38, 127]),
   midi.NoteOnEvent(tick=60, channel=4, data=[38, 0]),
   midi.NoteOnEvent(tick=0, channel=4, data=[40, 127]),
   midi.NoteOnEvent(tick=60, channel=4, data=[40, 0]),
   midi.NoteOnEvent(tick=0, channel=4, data=[38, 127]),
   midi.NoteOnEvent(tick=60, channel=4, data=[38, 0]),
   midi.NoteOnEvent(tick=0, channel=4, data=[35, 127]),
   midi.NoteOnEvent(tick=60, channel=4, data=[35, 0]),
   midi.NoteOnEvent(tick=0, channel=4, data=[38, 127]),
   midi.NoteOnEvent(tick=60, channel=4, data=[38, 0]),
   midi.NoteOnEvent(tick=0, channel=4, data=[40, 127]),
   midi.NoteOnEvent(tick=60, channel=4, data=[40, 0]),
   midi.NoteOnEvent(tick=0, channel=4, data=[38, 127]),
   midi.NoteOnEvent(tick=60, channel=4, data=[38, 0]),
   midi.NoteOnEvent(tick=0, channel=4, data=[40, 127]),
   midi.NoteOnEvent(tick=60, channel=4, data=[40, 0]),
   midi.NoteOnEvent(tick=0, channel=4, data=[38, 127]),
   midi.NoteOnEvent(tick=60, channel=4, data=[38, 0]),
   midi.NoteOnEvent(tick=0, channel=4, data=[40, 127]),
   midi.NoteOnEvent(tick=60, channel=4, data=[40, 0]),
   midi.NoteOnEvent(tick=0, channel=4, data=[38, 127]),
   midi.NoteOnEvent(tick=60, channel=4, data=[38, 0]),
   midi.NoteOnEvent(tick=0, channel=4, data=[40, 127]),
   midi.NoteOnEvent(tick=60, channel=4, data=[40, 0]),
   midi.NoteOnEvent(tick=0, channel=4, data=[38, 127]),
   midi.NoteOnEvent(tick=60, channel=4, data=[38, 0]),
   midi.NoteOnEvent(tick=0, channel=4, data=[34, 127]),
   midi.NoteOnEvent(tick=40, channel=4, data=[34, 0]),
   midi.NoteOnEvent(tick=0, channel=4, data=[35, 127]),
   midi.NoteOnEvent(tick=40, channel=4, data=[35, 0]),
   midi.NoteOnEvent(tick=0, channel=4, data=[38, 127]),
   midi.NoteOnEvent(tick=40, channel=4, data=[38, 0]),
   midi.NoteOnEvent(tick=0, channel=4, data=[40, 127]),
   midi.NoteOnEvent(tick=60, channel=4, data=[40, 0]),
   midi.NoteOnEvent(tick=0, channel=4, data=[38, 127]),
   midi.NoteOnEvent(tick=60, channel=4, data=[38, 0]),
   midi.NoteOnEvent(tick=0, channel=4, data=[45, 127]),
   midi.NoteOnEvent(tick=60, channel=4, data=[45, 0]),
   midi.NoteOnEvent(tick=0, channel=4, data=[43, 127]),
   midi.NoteOnEvent(tick=60, channel=4, data=[43, 0]),
   midi.NoteOnEvent(tick=0, channel=4, data=[40, 127]),
   midi.NoteOnEvent(tick=60, channel=4, data=[40, 0]),
   midi.NoteOnEvent(tick=0, channel=4, data=[38, 127]),
   midi.NoteOnEvent(tick=60, channel=4, data=[38, 0]),
   midi.NoteOnEvent(tick=0, channel=4, data=[40, 127]),
   midi.NoteOnEvent(tick=60, channel=4, data=[40, 0]),
   midi.NoteOnEvent(tick=0, channel=4, data=[38, 127]),
   midi.NoteOnEvent(tick=60, channel=4, data=[38, 0]),
   midi.NoteOnEvent(tick=0, channel=4, data=[40, 127]),
   midi.NoteOnEvent(tick=60, channel=4, data=[40, 0]),
   midi.NoteOnEvent(tick=0, channel=4, data=[38, 127]),
   midi.NoteOnEvent(tick=60, channel=4, data=[38, 0]),
   midi.NoteOnEvent(tick=0, channel=4, data=[40, 127]),
   midi.NoteOnEvent(tick=60, channel=4, data=[40, 0]),
   midi.NoteOnEvent(tick=0, channel=4, data=[38, 127]),
   midi.NoteOnEvent(tick=60, channel=4, data=[38, 0]),
   midi.NoteOnEvent(tick=0, channel=4, data=[35, 127]),
   midi.NoteOnEvent(tick=60, channel=4, data=[35, 0]),
   midi.NoteOnEvent(tick=0, channel=4, data=[38, 127]),
   midi.NoteOnEvent(tick=60, channel=4, data=[38, 0]),
   midi.NoteOnEvent(tick=0, channel=4, data=[40, 127]),
   midi.NoteOnEvent(tick=60, channel=4, data=[40, 0]),
   midi.NoteOnEvent(tick=0, channel=4, data=[38, 127]),
   midi.NoteOnEvent(tick=60, channel=4, data=[38, 0]),
   midi.NoteOnEvent(tick=0, channel=4, data=[40, 127]),
   midi.NoteOnEvent(tick=60, channel=4, data=[40, 0]),
   midi.NoteOnEvent(tick=0, channel=4, data=[38, 127]),
   midi.NoteOnEvent(tick=60, channel=4, data=[38, 0]),
   midi.NoteOnEvent(tick=0, channel=4, data=[40, 127]),
   midi.NoteOnEvent(tick=60, channel=4, data=[40, 0]),
   midi.NoteOnEvent(tick=0, channel=4, data=[38, 127]),
   midi.NoteOnEvent(tick=60, channel=4, data=[38, 0]),
   midi.NoteOnEvent(tick=0, channel=4, data=[35, 127]),
   midi.NoteOnEvent(tick=60, channel=4, data=[35, 0]),
   midi.NoteOnEvent(tick=0, channel=4, data=[33, 127]),
   midi.NoteOnEvent(tick=60, channel=4, data=[33, 0]),
   midi.NoteOnEvent(tick=0, channel=4, data=[36, 127]),
   midi.NoteOnEvent(tick=120, channel=4, data=[36, 0]),
   midi.NoteOnEvent(tick=0, channel=4, data=[31, 127]),
   midi.NoteOnEvent(tick=120, channel=4, data=[31, 0]),
   midi.NoteOnEvent(tick=0, channel=4, data=[38, 127]),
   midi.NoteOnEvent(tick=120, channel=4, data=[38, 0]),
   midi.NoteOnEvent(tick=0, channel=4, data=[36, 127]),
   midi.NoteOnEvent(tick=120, channel=4, data=[36, 0]),
   midi.NoteOnEvent(tick=480, channel=4, data=[40, 127]),
   midi.NoteOnEvent(tick=60, channel=4, data=[40, 0]),
   midi.NoteOnEvent(tick=0, channel=4, data=[28, 127]),
   midi.NoteOnEvent(tick=60, channel=4, data=[28, 0]),
   midi.NoteOnEvent(tick=0, channel=4, data=[28, 127]),
   midi.NoteOnEvent(tick=40, channel=4, data=[28, 0]),
   midi.NoteOnEvent(tick=0, channel=4, data=[28, 127]),
   midi.NoteOnEvent(tick=40, channel=4, data=[28, 0]),
   midi.NoteOnEvent(tick=0, channel=4, data=[28, 127]),
   midi.NoteOnEvent(tick=40, channel=4, data=[28, 0]),
   midi.NoteOnEvent(tick=0, channel=4, data=[40, 127]),
   midi.NoteOnEvent(tick=60, channel=4, data=[40, 0]),
   midi.NoteOnEvent(tick=0, channel=4, data=[28, 127]),
   midi.NoteOnEvent(tick=60, channel=4, data=[28, 0]),
   midi.NoteOnEvent(tick=0, channel=4, data=[28, 127]),
   midi.NoteOnEvent(tick=40, channel=4, data=[28, 0]),
   midi.NoteOnEvent(tick=0, channel=4, data=[28, 127]),
   midi.NoteOnEvent(tick=40, channel=4, data=[28, 0]),
   midi.NoteOnEvent(tick=0, channel=4, data=[28, 127]),
   midi.NoteOnEvent(tick=40, channel=4, data=[28, 0]),
   midi.NoteOnEvent(tick=0, channel=4, data=[40, 127]),
   midi.NoteOnEvent(tick=60, channel=4, data=[40, 0]),
   midi.NoteOnEvent(tick=0, channel=4, data=[28, 127]),
   midi.NoteOnEvent(tick=60, channel=4, data=[28, 0]),
   midi.NoteOnEvent(tick=0, channel=4, data=[28, 127]),
   midi.NoteOnEvent(tick=40, channel=4, data=[28, 0]),
   midi.NoteOnEvent(tick=0, channel=4, data=[28, 127]),
   midi.NoteOnEvent(tick=40, channel=4, data=[28, 0]),
   midi.NoteOnEvent(tick=0, channel=4, data=[28, 127]),
   midi.NoteOnEvent(tick=40, channel=4, data=[28, 0]),
   midi.NoteOnEvent(tick=0, channel=4, data=[41, 127]),
   midi.NoteOnEvent(tick=30, channel=4, data=[41, 0]),
   midi.NoteOnEvent(tick=0, channel=4, data=[40, 127]),
   midi.NoteOnEvent(tick=90, channel=4, data=[40, 0]),
   midi.NoteOnEvent(tick=0, channel=4, data=[40, 127]),
   midi.NoteOnEvent(tick=120, channel=4, data=[40, 0]),
   midi.NoteOnEvent(tick=0, channel=4, data=[40, 127]),
   midi.NoteOnEvent(tick=60, channel=4, data=[40, 0]),
   midi.NoteOnEvent(tick=0, channel=4, data=[28, 127]),
   midi.NoteOnEvent(tick=60, channel=4, data=[28, 0]),
   midi.NoteOnEvent(tick=0, channel=4, data=[28, 127]),
   midi.NoteOnEvent(tick=40, channel=4, data=[28, 0]),
   midi.NoteOnEvent(tick=0, channel=4, data=[28, 127]),
   midi.NoteOnEvent(tick=40, channel=4, data=[28, 0]),
   midi.NoteOnEvent(tick=0, channel=4, data=[28, 127]),
   midi.NoteOnEvent(tick=40, channel=4, data=[28, 0]),
   midi.NoteOnEvent(tick=0, channel=4, data=[40, 127]),
   midi.NoteOnEvent(tick=60, channel=4, data=[40, 0]),
   midi.NoteOnEvent(tick=0, channel=4, data=[28, 127]),
   midi.NoteOnEvent(tick=60, channel=4, data=[28, 0]),
   midi.NoteOnEvent(tick=0, channel=4, data=[28, 127]),
   midi.NoteOnEvent(tick=40, channel=4, data=[28, 0]),
   midi.NoteOnEvent(tick=0, channel=4, data=[28, 127]),
   midi.NoteOnEvent(tick=40, channel=4, data=[28, 0]),
   midi.NoteOnEvent(tick=0, channel=4, data=[28, 127]),
   midi.NoteOnEvent(tick=40, channel=4, data=[28, 0]),
   midi.NoteOnEvent(tick=0, channel=4, data=[40, 127]),
   midi.NoteOnEvent(tick=60, channel=4, data=[40, 0]),
   midi.NoteOnEvent(tick=0, channel=4, data=[28, 127]),
   midi.NoteOnEvent(tick=60, channel=4, data=[28, 0]),
   midi.NoteOnEvent(tick=0, channel=4, data=[28, 127]),
   midi.NoteOnEvent(tick=40, channel=4, data=[28, 0]),
   midi.NoteOnEvent(tick=0, channel=4, data=[28, 127]),
   midi.NoteOnEvent(tick=40, channel=4, data=[28, 0]),
   midi.NoteOnEvent(tick=0, channel=4, data=[28, 127]),
   midi.NoteOnEvent(tick=40, channel=4, data=[28, 0]),
   midi.NoteOnEvent(tick=0, channel=4, data=[41, 127]),
   midi.NoteOnEvent(tick=120, channel=4, data=[41, 0]),
   midi.NoteOnEvent(tick=0, channel=4, data=[41, 127]),
   midi.NoteOnEvent(tick=120, channel=4, data=[41, 0]),
   midi.NoteOnEvent(tick=0, channel=4, data=[40, 127]),
   midi.NoteOnEvent(tick=60, channel=4, data=[40, 0]),
   midi.NoteOnEvent(tick=0, channel=4, data=[28, 127]),
   midi.NoteOnEvent(tick=60, channel=4, data=[28, 0]),
   midi.NoteOnEvent(tick=0, channel=4, data=[28, 127]),
   midi.NoteOnEvent(tick=40, channel=4, data=[28, 0]),
   midi.NoteOnEvent(tick=0, channel=4, data=[28, 127]),
   midi.NoteOnEvent(tick=40, channel=4, data=[28, 0]),
   midi.NoteOnEvent(tick=0, channel=4, data=[28, 127]),
   midi.NoteOnEvent(tick=40, channel=4, data=[28, 0]),
   midi.NoteOnEvent(tick=0, channel=4, data=[40, 127]),
   midi.NoteOnEvent(tick=60, channel=4, data=[40, 0]),
   midi.NoteOnEvent(tick=0, channel=4, data=[28, 127]),
   midi.NoteOnEvent(tick=60, channel=4, data=[28, 0]),
   midi.NoteOnEvent(tick=0, channel=4, data=[28, 127]),
   midi.NoteOnEvent(tick=40, channel=4, data=[28, 0]),
   midi.NoteOnEvent(tick=0, channel=4, data=[28, 127]),
   midi.NoteOnEvent(tick=40, channel=4, data=[28, 0]),
   midi.NoteOnEvent(tick=0, channel=4, data=[28, 127]),
   midi.NoteOnEvent(tick=40, channel=4, data=[28, 0]),
   midi.NoteOnEvent(tick=0, channel=4, data=[40, 127]),
   midi.NoteOnEvent(tick=60, channel=4, data=[40, 0]),
   midi.NoteOnEvent(tick=0, channel=4, data=[28, 127]),
   midi.NoteOnEvent(tick=60, channel=4, data=[28, 0]),
   midi.NoteOnEvent(tick=0, channel=4, data=[28, 127]),
   midi.NoteOnEvent(tick=40, channel=4, data=[28, 0]),
   midi.NoteOnEvent(tick=0, channel=4, data=[28, 127]),
   midi.NoteOnEvent(tick=40, channel=4, data=[28, 0]),
   midi.NoteOnEvent(tick=0, channel=4, data=[28, 127]),
   midi.NoteOnEvent(tick=40, channel=4, data=[28, 0]),
   midi.NoteOnEvent(tick=0, channel=4, data=[41, 127]),
   midi.NoteOnEvent(tick=30, channel=4, data=[41, 0]),
   midi.NoteOnEvent(tick=0, channel=4, data=[40, 127]),
   midi.NoteOnEvent(tick=90, channel=4, data=[40, 0]),
   midi.NoteOnEvent(tick=0, channel=4, data=[40, 127]),
   midi.NoteOnEvent(tick=120, channel=4, data=[40, 0]),
   midi.NoteOnEvent(tick=0, channel=4, data=[40, 127]),
   midi.NoteOnEvent(tick=60, channel=4, data=[40, 0]),
   midi.NoteOnEvent(tick=0, channel=4, data=[28, 127]),
   midi.NoteOnEvent(tick=60, channel=4, data=[28, 0]),
   midi.NoteOnEvent(tick=0, channel=4, data=[28, 127]),
   midi.NoteOnEvent(tick=40, channel=4, data=[28, 0]),
   midi.NoteOnEvent(tick=0, channel=4, data=[28, 127]),
   midi.NoteOnEvent(tick=40, channel=4, data=[28, 0]),
   midi.NoteOnEvent(tick=0, channel=4, data=[28, 127]),
   midi.NoteOnEvent(tick=40, channel=4, data=[28, 0]),
   midi.NoteOnEvent(tick=0, channel=4, data=[40, 127]),
   midi.NoteOnEvent(tick=60, channel=4, data=[40, 0]),
   midi.NoteOnEvent(tick=0, channel=4, data=[28, 127]),
   midi.NoteOnEvent(tick=60, channel=4, data=[28, 0]),
   midi.NoteOnEvent(tick=0, channel=4, data=[28, 127]),
   midi.NoteOnEvent(tick=40, channel=4, data=[28, 0]),
   midi.NoteOnEvent(tick=0, channel=4, data=[28, 127]),
   midi.NoteOnEvent(tick=40, channel=4, data=[28, 0]),
   midi.NoteOnEvent(tick=0, channel=4, data=[28, 127]),
   midi.NoteOnEvent(tick=40, channel=4, data=[28, 0]),
   midi.NoteOnEvent(tick=0, channel=4, data=[40, 127]),
   midi.NoteOnEvent(tick=60, channel=4, data=[40, 0]),
   midi.NoteOnEvent(tick=0, channel=4, data=[28, 127]),
   midi.NoteOnEvent(tick=60, channel=4, data=[28, 0]),
   midi.NoteOnEvent(tick=0, channel=4, data=[28, 127]),
   midi.NoteOnEvent(tick=40, channel=4, data=[28, 0]),
   midi.NoteOnEvent(tick=0, channel=4, data=[28, 127]),
   midi.NoteOnEvent(tick=40, channel=4, data=[28, 0]),
   midi.NoteOnEvent(tick=0, channel=4, data=[28, 127]),
   midi.NoteOnEvent(tick=40, channel=4, data=[28, 0]),
   midi.NoteOnEvent(tick=0, channel=4, data=[41, 127]),
   midi.NoteOnEvent(tick=120, channel=4, data=[41, 0]),
   midi.NoteOnEvent(tick=0, channel=4, data=[41, 127]),
   midi.NoteOnEvent(tick=120, channel=4, data=[41, 0]),
   midi.NoteOnEvent(tick=0, channel=4, data=[40, 127]),
   midi.NoteOnEvent(tick=60, channel=4, data=[40, 0]),
   midi.NoteOnEvent(tick=0, channel=4, data=[28, 127]),
   midi.NoteOnEvent(tick=60, channel=4, data=[28, 0]),
   midi.NoteOnEvent(tick=0, channel=4, data=[28, 127]),
   midi.NoteOnEvent(tick=40, channel=4, data=[28, 0]),
   midi.NoteOnEvent(tick=0, channel=4, data=[28, 127]),
   midi.NoteOnEvent(tick=40, channel=4, data=[28, 0]),
   midi.NoteOnEvent(tick=0, channel=4, data=[28, 127]),
   midi.NoteOnEvent(tick=40, channel=4, data=[28, 0]),
   midi.NoteOnEvent(tick=0, channel=4, data=[40, 127]),
   midi.NoteOnEvent(tick=60, channel=4, data=[40, 0]),
   midi.NoteOnEvent(tick=0, channel=4, data=[28, 127]),
   midi.NoteOnEvent(tick=60, channel=4, data=[28, 0]),
   midi.NoteOnEvent(tick=0, channel=4, data=[28, 127]),
   midi.NoteOnEvent(tick=40, channel=4, data=[28, 0]),
   midi.NoteOnEvent(tick=0, channel=4, data=[28, 127]),
   midi.NoteOnEvent(tick=40, channel=4, data=[28, 0]),
   midi.NoteOnEvent(tick=0, channel=4, data=[28, 127]),
   midi.NoteOnEvent(tick=40, channel=4, data=[28, 0]),
   midi.NoteOnEvent(tick=0, channel=4, data=[40, 127]),
   midi.NoteOnEvent(tick=60, channel=4, data=[40, 0]),
   midi.NoteOnEvent(tick=0, channel=4, data=[28, 127]),
   midi.NoteOnEvent(tick=60, channel=4, data=[28, 0]),
   midi.NoteOnEvent(tick=0, channel=4, data=[28, 127]),
   midi.NoteOnEvent(tick=40, channel=4, data=[28, 0]),
   midi.NoteOnEvent(tick=0, channel=4, data=[28, 127]),
   midi.NoteOnEvent(tick=40, channel=4, data=[28, 0]),
   midi.NoteOnEvent(tick=0, channel=4, data=[28, 127]),
   midi.NoteOnEvent(tick=40, channel=4, data=[28, 0]),
   midi.NoteOnEvent(tick=0, channel=4, data=[41, 127]),
   midi.NoteOnEvent(tick=30, channel=4, data=[41, 0]),
   midi.NoteOnEvent(tick=0, channel=4, data=[40, 127]),
   midi.NoteOnEvent(tick=90, channel=4, data=[40, 0]),
   midi.NoteOnEvent(tick=0, channel=4, data=[40, 127]),
   midi.NoteOnEvent(tick=120, channel=4, data=[40, 0]),
   midi.NoteOnEvent(tick=0, channel=4, data=[40, 127]),
   midi.NoteOnEvent(tick=60, channel=4, data=[40, 0]),
   midi.NoteOnEvent(tick=0, channel=4, data=[28, 127]),
   midi.NoteOnEvent(tick=60, channel=4, data=[28, 0]),
   midi.NoteOnEvent(tick=0, channel=4, data=[28, 127]),
   midi.NoteOnEvent(tick=40, channel=4, data=[28, 0]),
   midi.NoteOnEvent(tick=0, channel=4, data=[28, 127]),
   midi.NoteOnEvent(tick=40, channel=4, data=[28, 0]),
   midi.NoteOnEvent(tick=0, channel=4, data=[28, 127]),
   midi.NoteOnEvent(tick=40, channel=4, data=[28, 0]),
   midi.NoteOnEvent(tick=0, channel=4, data=[40, 127]),
   midi.NoteOnEvent(tick=60, channel=4, data=[40, 0]),
   midi.NoteOnEvent(tick=0, channel=4, data=[28, 127]),
   midi.NoteOnEvent(tick=60, channel=4, data=[28, 0]),
   midi.NoteOnEvent(tick=0, channel=4, data=[28, 127]),
   midi.NoteOnEvent(tick=40, channel=4, data=[28, 0]),
   midi.NoteOnEvent(tick=0, channel=4, data=[28, 127]),
   midi.NoteOnEvent(tick=40, channel=4, data=[28, 0]),
   midi.NoteOnEvent(tick=0, channel=4, data=[28, 127]),
   midi.NoteOnEvent(tick=40, channel=4, data=[28, 0]),
   midi.NoteOnEvent(tick=0, channel=4, data=[40, 127]),
   midi.NoteOnEvent(tick=60, channel=4, data=[40, 0]),
   midi.NoteOnEvent(tick=0, channel=4, data=[28, 127]),
   midi.NoteOnEvent(tick=60, channel=4, data=[28, 0]),
   midi.NoteOnEvent(tick=0, channel=4, data=[28, 127]),
   midi.NoteOnEvent(tick=40, channel=4, data=[28, 0]),
   midi.NoteOnEvent(tick=0, channel=4, data=[28, 127]),
   midi.NoteOnEvent(tick=40, channel=4, data=[28, 0]),
   midi.NoteOnEvent(tick=0, channel=4, data=[28, 127]),
   midi.NoteOnEvent(tick=40, channel=4, data=[28, 0]),
   midi.NoteOnEvent(tick=0, channel=4, data=[41, 127]),
   midi.NoteOnEvent(tick=120, channel=4, data=[41, 0]),
   midi.NoteOnEvent(tick=0, channel=4, data=[41, 127]),
   midi.NoteOnEvent(tick=120, channel=4, data=[41, 0]),
   midi.NoteOnEvent(tick=0, channel=4, data=[40, 127]),
   midi.NoteOnEvent(tick=60, channel=4, data=[40, 0]),
   midi.NoteOnEvent(tick=0, channel=4, data=[28, 127]),
   midi.NoteOnEvent(tick=60, channel=4, data=[28, 0]),
   midi.NoteOnEvent(tick=0, channel=4, data=[28, 127]),
   midi.NoteOnEvent(tick=40, channel=4, data=[28, 0]),
   midi.NoteOnEvent(tick=0, channel=4, data=[28, 127]),
   midi.NoteOnEvent(tick=40, channel=4, data=[28, 0]),
   midi.NoteOnEvent(tick=0, channel=4, data=[28, 127]),
   midi.NoteOnEvent(tick=40, channel=4, data=[28, 0]),
   midi.NoteOnEvent(tick=0, channel=4, data=[40, 127]),
   midi.NoteOnEvent(tick=60, channel=4, data=[40, 0]),
   midi.NoteOnEvent(tick=0, channel=4, data=[28, 127]),
   midi.NoteOnEvent(tick=60, channel=4, data=[28, 0]),
   midi.NoteOnEvent(tick=0, channel=4, data=[28, 127]),
   midi.NoteOnEvent(tick=40, channel=4, data=[28, 0]),
   midi.NoteOnEvent(tick=0, channel=4, data=[28, 127]),
   midi.NoteOnEvent(tick=40, channel=4, data=[28, 0]),
   midi.NoteOnEvent(tick=0, channel=4, data=[28, 127]),
   midi.NoteOnEvent(tick=40, channel=4, data=[28, 0]),
   midi.NoteOnEvent(tick=0, channel=4, data=[40, 127]),
   midi.NoteOnEvent(tick=60, channel=4, data=[40, 0]),
   midi.NoteOnEvent(tick=0, channel=4, data=[28, 127]),
   midi.NoteOnEvent(tick=60, channel=4, data=[28, 0]),
   midi.NoteOnEvent(tick=0, channel=4, data=[28, 127]),
   midi.NoteOnEvent(tick=40, channel=4, data=[28, 0]),
   midi.NoteOnEvent(tick=0, channel=4, data=[28, 127]),
   midi.NoteOnEvent(tick=40, channel=4, data=[28, 0]),
   midi.NoteOnEvent(tick=0, channel=4, data=[28, 127]),
   midi.NoteOnEvent(tick=40, channel=4, data=[28, 0]),
   midi.NoteOnEvent(tick=0, channel=4, data=[41, 127]),
   midi.NoteOnEvent(tick=30, channel=4, data=[41, 0]),
   midi.NoteOnEvent(tick=0, channel=4, data=[40, 127]),
   midi.NoteOnEvent(tick=90, channel=4, data=[40, 0]),
   midi.NoteOnEvent(tick=0, channel=4, data=[40, 127]),
   midi.NoteOnEvent(tick=120, channel=4, data=[40, 0]),
   midi.NoteOnEvent(tick=0, channel=4, data=[40, 127]),
   midi.NoteOnEvent(tick=60, channel=4, data=[40, 0]),
   midi.NoteOnEvent(tick=0, channel=4, data=[28, 127]),
   midi.NoteOnEvent(tick=60, channel=4, data=[28, 0]),
   midi.NoteOnEvent(tick=0, channel=4, data=[28, 127]),
   midi.NoteOnEvent(tick=40, channel=4, data=[28, 0]),
   midi.NoteOnEvent(tick=0, channel=4, data=[28, 127]),
   midi.NoteOnEvent(tick=40, channel=4, data=[28, 0]),
   midi.NoteOnEvent(tick=0, channel=4, data=[28, 127]),
   midi.NoteOnEvent(tick=40, channel=4, data=[28, 0]),
   midi.NoteOnEvent(tick=0, channel=4, data=[40, 127]),
   midi.NoteOnEvent(tick=60, channel=4, data=[40, 0]),
   midi.NoteOnEvent(tick=0, channel=4, data=[28, 127]),
   midi.NoteOnEvent(tick=60, channel=4, data=[28, 0]),
   midi.NoteOnEvent(tick=0, channel=4, data=[28, 127]),
   midi.NoteOnEvent(tick=40, channel=4, data=[28, 0]),
   midi.NoteOnEvent(tick=0, channel=4, data=[28, 127]),
   midi.NoteOnEvent(tick=40, channel=4, data=[28, 0]),
   midi.NoteOnEvent(tick=0, channel=4, data=[28, 127]),
   midi.NoteOnEvent(tick=40, channel=4, data=[28, 0]),
   midi.NoteOnEvent(tick=0, channel=4, data=[40, 127]),
   midi.NoteOnEvent(tick=60, channel=4, data=[40, 0]),
   midi.NoteOnEvent(tick=0, channel=4, data=[28, 127]),
   midi.NoteOnEvent(tick=60, channel=4, data=[28, 0]),
   midi.NoteOnEvent(tick=0, channel=4, data=[28, 127]),
   midi.NoteOnEvent(tick=40, channel=4, data=[28, 0]),
   midi.NoteOnEvent(tick=0, channel=4, data=[28, 127]),
   midi.NoteOnEvent(tick=40, channel=4, data=[28, 0]),
   midi.NoteOnEvent(tick=0, channel=4, data=[28, 127]),
   midi.NoteOnEvent(tick=40, channel=4, data=[28, 0]),
   midi.NoteOnEvent(tick=0, channel=4, data=[41, 127]),
   midi.NoteOnEvent(tick=120, channel=4, data=[41, 0]),
   midi.NoteOnEvent(tick=0, channel=4, data=[41, 127]),
   midi.NoteOnEvent(tick=120, channel=4, data=[41, 0]),
   midi.NoteOnEvent(tick=0, channel=4, data=[40, 127]),
   midi.NoteOnEvent(tick=60, channel=4, data=[40, 0]),
   midi.NoteOnEvent(tick=0, channel=4, data=[28, 127]),
   midi.NoteOnEvent(tick=60, channel=4, data=[28, 0]),
   midi.NoteOnEvent(tick=0, channel=4, data=[28, 127]),
   midi.NoteOnEvent(tick=40, channel=4, data=[28, 0]),
   midi.NoteOnEvent(tick=0, channel=4, data=[28, 127]),
   midi.NoteOnEvent(tick=40, channel=4, data=[28, 0]),
   midi.NoteOnEvent(tick=0, channel=4, data=[28, 127]),
   midi.NoteOnEvent(tick=40, channel=4, data=[28, 0]),
   midi.NoteOnEvent(tick=0, channel=4, data=[40, 127]),
   midi.NoteOnEvent(tick=60, channel=4, data=[40, 0]),
   midi.NoteOnEvent(tick=0, channel=4, data=[28, 127]),
   midi.NoteOnEvent(tick=60, channel=4, data=[28, 0]),
   midi.NoteOnEvent(tick=0, channel=4, data=[28, 127]),
   midi.NoteOnEvent(tick=40, channel=4, data=[28, 0]),
   midi.NoteOnEvent(tick=0, channel=4, data=[28, 127]),
   midi.NoteOnEvent(tick=40, channel=4, data=[28, 0]),
   midi.NoteOnEvent(tick=0, channel=4, data=[28, 127]),
   midi.NoteOnEvent(tick=40, channel=4, data=[28, 0]),
   midi.NoteOnEvent(tick=0, channel=4, data=[40, 127]),
   midi.NoteOnEvent(tick=60, channel=4, data=[40, 0]),
   midi.NoteOnEvent(tick=0, channel=4, data=[28, 127]),
   midi.NoteOnEvent(tick=60, channel=4, data=[28, 0]),
   midi.NoteOnEvent(tick=0, channel=4, data=[28, 127]),
   midi.NoteOnEvent(tick=40, channel=4, data=[28, 0]),
   midi.NoteOnEvent(tick=0, channel=4, data=[28, 127]),
   midi.NoteOnEvent(tick=40, channel=4, data=[28, 0]),
   midi.NoteOnEvent(tick=0, channel=4, data=[28, 127]),
   midi.NoteOnEvent(tick=40, channel=4, data=[28, 0]),
   midi.NoteOnEvent(tick=0, channel=4, data=[41, 127]),
   midi.NoteOnEvent(tick=30, channel=4, data=[41, 0]),
   midi.NoteOnEvent(tick=0, channel=4, data=[40, 127]),
   midi.NoteOnEvent(tick=90, channel=4, data=[40, 0]),
   midi.NoteOnEvent(tick=0, channel=4, data=[40, 127]),
   midi.NoteOnEvent(tick=120, channel=4, data=[40, 0]),
   midi.NoteOnEvent(tick=0, channel=4, data=[40, 127]),
   midi.NoteOnEvent(tick=60, channel=4, data=[40, 0]),
   midi.NoteOnEvent(tick=0, channel=4, data=[28, 127]),
   midi.NoteOnEvent(tick=60, channel=4, data=[28, 0]),
   midi.NoteOnEvent(tick=0, channel=4, data=[28, 127]),
   midi.NoteOnEvent(tick=40, channel=4, data=[28, 0]),
   midi.NoteOnEvent(tick=0, channel=4, data=[28, 127]),
   midi.NoteOnEvent(tick=40, channel=4, data=[28, 0]),
   midi.NoteOnEvent(tick=0, channel=4, data=[28, 127]),
   midi.NoteOnEvent(tick=40, channel=4, data=[28, 0]),
   midi.NoteOnEvent(tick=0, channel=4, data=[40, 127]),
   midi.NoteOnEvent(tick=60, channel=4, data=[40, 0]),
   midi.NoteOnEvent(tick=0, channel=4, data=[28, 127]),
   midi.NoteOnEvent(tick=60, channel=4, data=[28, 0]),
   midi.NoteOnEvent(tick=0, channel=4, data=[28, 127]),
   midi.NoteOnEvent(tick=40, channel=4, data=[28, 0]),
   midi.NoteOnEvent(tick=0, channel=4, data=[28, 127]),
   midi.NoteOnEvent(tick=40, channel=4, data=[28, 0]),
   midi.NoteOnEvent(tick=0, channel=4, data=[28, 127]),
   midi.NoteOnEvent(tick=40, channel=4, data=[28, 0]),
   midi.NoteOnEvent(tick=0, channel=4, data=[40, 127]),
   midi.NoteOnEvent(tick=60, channel=4, data=[40, 0]),
   midi.NoteOnEvent(tick=0, channel=4, data=[28, 127]),
   midi.NoteOnEvent(tick=60, channel=4, data=[28, 0]),
   midi.NoteOnEvent(tick=0, channel=4, data=[28, 127]),
   midi.NoteOnEvent(tick=40, channel=4, data=[28, 0]),
   midi.NoteOnEvent(tick=0, channel=4, data=[28, 127]),
   midi.NoteOnEvent(tick=40, channel=4, data=[28, 0]),
   midi.NoteOnEvent(tick=0, channel=4, data=[28, 127]),
   midi.NoteOnEvent(tick=40, channel=4, data=[28, 0]),
   midi.NoteOnEvent(tick=0, channel=4, data=[41, 127]),
   midi.NoteOnEvent(tick=120, channel=4, data=[41, 0]),
   midi.NoteOnEvent(tick=0, channel=4, data=[41, 127]),
   midi.NoteOnEvent(tick=120, channel=4, data=[41, 0]),
   midi.NoteOnEvent(tick=0, channel=4, data=[40, 127]),
   midi.NoteOnEvent(tick=60, channel=4, data=[40, 0]),
   midi.NoteOnEvent(tick=0, channel=4, data=[28, 127]),
   midi.NoteOnEvent(tick=60, channel=4, data=[28, 0]),
   midi.NoteOnEvent(tick=0, channel=4, data=[28, 127]),
   midi.NoteOnEvent(tick=40, channel=4, data=[28, 0]),
   midi.NoteOnEvent(tick=0, channel=4, data=[28, 127]),
   midi.NoteOnEvent(tick=40, channel=4, data=[28, 0]),
   midi.NoteOnEvent(tick=0, channel=4, data=[28, 127]),
   midi.NoteOnEvent(tick=40, channel=4, data=[28, 0]),
   midi.NoteOnEvent(tick=0, channel=4, data=[40, 127]),
   midi.NoteOnEvent(tick=60, channel=4, data=[40, 0]),
   midi.NoteOnEvent(tick=0, channel=4, data=[28, 127]),
   midi.NoteOnEvent(tick=60, channel=4, data=[28, 0]),
   midi.NoteOnEvent(tick=0, channel=4, data=[28, 127]),
   midi.NoteOnEvent(tick=40, channel=4, data=[28, 0]),
   midi.NoteOnEvent(tick=0, channel=4, data=[28, 127]),
   midi.NoteOnEvent(tick=40, channel=4, data=[28, 0]),
   midi.NoteOnEvent(tick=0, channel=4, data=[28, 127]),
   midi.NoteOnEvent(tick=40, channel=4, data=[28, 0]),
   midi.NoteOnEvent(tick=0, channel=4, data=[40, 127]),
   midi.NoteOnEvent(tick=60, channel=4, data=[40, 0]),
   midi.NoteOnEvent(tick=0, channel=4, data=[28, 127]),
   midi.NoteOnEvent(tick=60, channel=4, data=[28, 0]),
   midi.NoteOnEvent(tick=0, channel=4, data=[28, 127]),
   midi.NoteOnEvent(tick=40, channel=4, data=[28, 0]),
   midi.NoteOnEvent(tick=0, channel=4, data=[28, 127]),
   midi.NoteOnEvent(tick=40, channel=4, data=[28, 0]),
   midi.NoteOnEvent(tick=0, channel=4, data=[28, 127]),
   midi.NoteOnEvent(tick=40, channel=4, data=[28, 0]),
   midi.NoteOnEvent(tick=0, channel=4, data=[41, 127]),
   midi.NoteOnEvent(tick=30, channel=4, data=[41, 0]),
   midi.NoteOnEvent(tick=0, channel=4, data=[40, 127]),
   midi.NoteOnEvent(tick=90, channel=4, data=[40, 0]),
   midi.NoteOnEvent(tick=0, channel=4, data=[40, 127]),
   midi.NoteOnEvent(tick=120, channel=4, data=[40, 0]),
   midi.NoteOnEvent(tick=0, channel=4, data=[40, 127]),
   midi.NoteOnEvent(tick=60, channel=4, data=[40, 0]),
   midi.NoteOnEvent(tick=0, channel=4, data=[28, 127]),
   midi.NoteOnEvent(tick=60, channel=4, data=[28, 0]),
   midi.NoteOnEvent(tick=0, channel=4, data=[28, 127]),
   midi.NoteOnEvent(tick=40, channel=4, data=[28, 0]),
   midi.NoteOnEvent(tick=0, channel=4, data=[28, 127]),
   midi.NoteOnEvent(tick=40, channel=4, data=[28, 0]),
   midi.NoteOnEvent(tick=0, channel=4, data=[28, 127]),
   midi.NoteOnEvent(tick=40, channel=4, data=[28, 0]),
   midi.NoteOnEvent(tick=0, channel=4, data=[40, 127]),
   midi.NoteOnEvent(tick=60, channel=4, data=[40, 0]),
   midi.NoteOnEvent(tick=0, channel=4, data=[28, 127]),
   midi.NoteOnEvent(tick=60, channel=4, data=[28, 0]),
   midi.NoteOnEvent(tick=0, channel=4, data=[28, 127]),
   midi.NoteOnEvent(tick=40, channel=4, data=[28, 0]),
   midi.NoteOnEvent(tick=0, channel=4, data=[28, 127]),
   midi.NoteOnEvent(tick=40, channel=4, data=[28, 0]),
   midi.NoteOnEvent(tick=0, channel=4, data=[28, 127]),
   midi.NoteOnEvent(tick=40, channel=4, data=[28, 0]),
   midi.NoteOnEvent(tick=0, channel=4, data=[40, 127]),
   midi.NoteOnEvent(tick=60, channel=4, data=[40, 0]),
   midi.NoteOnEvent(tick=0, channel=4, data=[28, 127]),
   midi.NoteOnEvent(tick=60, channel=4, data=[28, 0]),
   midi.NoteOnEvent(tick=0, channel=4, data=[28, 127]),
   midi.NoteOnEvent(tick=40, channel=4, data=[28, 0]),
   midi.NoteOnEvent(tick=0, channel=4, data=[28, 127]),
   midi.NoteOnEvent(tick=40, channel=4, data=[28, 0]),
   midi.NoteOnEvent(tick=0, channel=4, data=[28, 127]),
   midi.NoteOnEvent(tick=40, channel=4, data=[28, 0]),
   midi.NoteOnEvent(tick=0, channel=4, data=[41, 127]),
   midi.NoteOnEvent(tick=120, channel=4, data=[41, 0]),
   midi.NoteOnEvent(tick=0, channel=4, data=[41, 127]),
   midi.NoteOnEvent(tick=120, channel=4, data=[41, 0]),
   midi.NoteOnEvent(tick=0, channel=4, data=[40, 127]),
   midi.NoteOnEvent(tick=60, channel=4, data=[40, 0]),
   midi.NoteOnEvent(tick=0, channel=4, data=[28, 127]),
   midi.NoteOnEvent(tick=60, channel=4, data=[28, 0]),
   midi.NoteOnEvent(tick=0, channel=4, data=[28, 127]),
   midi.NoteOnEvent(tick=40, channel=4, data=[28, 0]),
   midi.NoteOnEvent(tick=0, channel=4, data=[28, 127]),
   midi.NoteOnEvent(tick=40, channel=4, data=[28, 0]),
   midi.NoteOnEvent(tick=0, channel=4, data=[28, 127]),
   midi.NoteOnEvent(tick=40, channel=4, data=[28, 0]),
   midi.NoteOnEvent(tick=0, channel=4, data=[40, 127]),
   midi.NoteOnEvent(tick=60, channel=4, data=[40, 0]),
   midi.NoteOnEvent(tick=0, channel=4, data=[28, 127]),
   midi.NoteOnEvent(tick=60, channel=4, data=[28, 0]),
   midi.NoteOnEvent(tick=0, channel=4, data=[28, 127]),
   midi.NoteOnEvent(tick=40, channel=4, data=[28, 0]),
   midi.NoteOnEvent(tick=0, channel=4, data=[28, 127]),
   midi.NoteOnEvent(tick=40, channel=4, data=[28, 0]),
   midi.NoteOnEvent(tick=0, channel=4, data=[28, 127]),
   midi.NoteOnEvent(tick=40, channel=4, data=[28, 0]),
   midi.NoteOnEvent(tick=0, channel=4, data=[40, 127]),
   midi.NoteOnEvent(tick=60, channel=4, data=[40, 0]),
   midi.NoteOnEvent(tick=0, channel=4, data=[28, 127]),
   midi.NoteOnEvent(tick=60, channel=4, data=[28, 0]),
   midi.NoteOnEvent(tick=0, channel=4, data=[28, 127]),
   midi.NoteOnEvent(tick=40, channel=4, data=[28, 0]),
   midi.NoteOnEvent(tick=0, channel=4, data=[28, 127]),
   midi.NoteOnEvent(tick=40, channel=4, data=[28, 0]),
   midi.NoteOnEvent(tick=0, channel=4, data=[28, 127]),
   midi.NoteOnEvent(tick=40, channel=4, data=[28, 0]),
   midi.NoteOnEvent(tick=0, channel=4, data=[41, 127]),
   midi.NoteOnEvent(tick=30, channel=4, data=[41, 0]),
   midi.NoteOnEvent(tick=0, channel=4, data=[40, 127]),
   midi.NoteOnEvent(tick=90, channel=4, data=[40, 0]),
   midi.NoteOnEvent(tick=0, channel=4, data=[40, 127]),
   midi.NoteOnEvent(tick=120, channel=4, data=[40, 0]),
   midi.NoteOnEvent(tick=0, channel=4, data=[40, 127]),
   midi.NoteOnEvent(tick=60, channel=4, data=[40, 0]),
   midi.NoteOnEvent(tick=0, channel=4, data=[28, 127]),
   midi.NoteOnEvent(tick=60, channel=4, data=[28, 0]),
   midi.NoteOnEvent(tick=0, channel=4, data=[28, 127]),
   midi.NoteOnEvent(tick=40, channel=4, data=[28, 0]),
   midi.NoteOnEvent(tick=0, channel=4, data=[28, 127]),
   midi.NoteOnEvent(tick=40, channel=4, data=[28, 0]),
   midi.NoteOnEvent(tick=0, channel=4, data=[28, 127]),
   midi.NoteOnEvent(tick=40, channel=4, data=[28, 0]),
   midi.NoteOnEvent(tick=0, channel=4, data=[40, 127]),
   midi.NoteOnEvent(tick=60, channel=4, data=[40, 0]),
   midi.NoteOnEvent(tick=0, channel=4, data=[28, 127]),
   midi.NoteOnEvent(tick=60, channel=4, data=[28, 0]),
   midi.NoteOnEvent(tick=0, channel=4, data=[28, 127]),
   midi.NoteOnEvent(tick=40, channel=4, data=[28, 0]),
   midi.NoteOnEvent(tick=0, channel=4, data=[28, 127]),
   midi.NoteOnEvent(tick=40, channel=4, data=[28, 0]),
   midi.NoteOnEvent(tick=0, channel=4, data=[28, 127]),
   midi.NoteOnEvent(tick=40, channel=4, data=[28, 0]),
   midi.NoteOnEvent(tick=0, channel=4, data=[40, 127]),
   midi.NoteOnEvent(tick=60, channel=4, data=[40, 0]),
   midi.NoteOnEvent(tick=0, channel=4, data=[28, 127]),
   midi.NoteOnEvent(tick=60, channel=4, data=[28, 0]),
   midi.NoteOnEvent(tick=0, channel=4, data=[28, 127]),
   midi.NoteOnEvent(tick=40, channel=4, data=[28, 0]),
   midi.NoteOnEvent(tick=0, channel=4, data=[28, 127]),
   midi.NoteOnEvent(tick=40, channel=4, data=[28, 0]),
   midi.NoteOnEvent(tick=0, channel=4, data=[28, 127]),
   midi.NoteOnEvent(tick=40, channel=4, data=[28, 0]),
   midi.NoteOnEvent(tick=0, channel=4, data=[41, 127]),
   midi.NoteOnEvent(tick=120, channel=4, data=[41, 0]),
   midi.NoteOnEvent(tick=0, channel=4, data=[41, 127]),
   midi.NoteOnEvent(tick=120, channel=4, data=[41, 0]),
   midi.NoteOnEvent(tick=0, channel=4, data=[40, 127]),
   midi.NoteOnEvent(tick=60, channel=4, data=[40, 0]),
   midi.NoteOnEvent(tick=0, channel=4, data=[28, 127]),
   midi.NoteOnEvent(tick=60, channel=4, data=[28, 0]),
   midi.NoteOnEvent(tick=0, channel=4, data=[28, 127]),
   midi.NoteOnEvent(tick=40, channel=4, data=[28, 0]),
   midi.NoteOnEvent(tick=0, channel=4, data=[28, 127]),
   midi.NoteOnEvent(tick=40, channel=4, data=[28, 0]),
   midi.NoteOnEvent(tick=0, channel=4, data=[28, 127]),
   midi.NoteOnEvent(tick=40, channel=4, data=[28, 0]),
   midi.NoteOnEvent(tick=0, channel=4, data=[40, 127]),
   midi.NoteOnEvent(tick=60, channel=4, data=[40, 0]),
   midi.NoteOnEvent(tick=0, channel=4, data=[28, 127]),
   midi.NoteOnEvent(tick=60, channel=4, data=[28, 0]),
   midi.NoteOnEvent(tick=0, channel=4, data=[28, 127]),
   midi.NoteOnEvent(tick=40, channel=4, data=[28, 0]),
   midi.NoteOnEvent(tick=0, channel=4, data=[28, 127]),
   midi.NoteOnEvent(tick=40, channel=4, data=[28, 0]),
   midi.NoteOnEvent(tick=0, channel=4, data=[28, 127]),
   midi.NoteOnEvent(tick=40, channel=4, data=[28, 0]),
   midi.NoteOnEvent(tick=0, channel=4, data=[40, 127]),
   midi.NoteOnEvent(tick=60, channel=4, data=[40, 0]),
   midi.NoteOnEvent(tick=0, channel=4, data=[28, 127]),
   midi.NoteOnEvent(tick=60, channel=4, data=[28, 0]),
   midi.NoteOnEvent(tick=0, channel=4, data=[28, 127]),
   midi.NoteOnEvent(tick=40, channel=4, data=[28, 0]),
   midi.NoteOnEvent(tick=0, channel=4, data=[28, 127]),
   midi.NoteOnEvent(tick=40, channel=4, data=[28, 0]),
   midi.NoteOnEvent(tick=0, channel=4, data=[28, 127]),
   midi.NoteOnEvent(tick=40, channel=4, data=[28, 0]),
   midi.NoteOnEvent(tick=0, channel=4, data=[41, 127]),
   midi.NoteOnEvent(tick=30, channel=4, data=[41, 0]),
   midi.NoteOnEvent(tick=0, channel=4, data=[40, 127]),
   midi.NoteOnEvent(tick=90, channel=4, data=[40, 0]),
   midi.NoteOnEvent(tick=0, channel=4, data=[40, 127]),
   midi.NoteOnEvent(tick=120, channel=4, data=[40, 0]),
   midi.NoteOnEvent(tick=0, channel=4, data=[40, 127]),
   midi.NoteOnEvent(tick=60, channel=4, data=[40, 0]),
   midi.NoteOnEvent(tick=0, channel=4, data=[28, 127]),
   midi.NoteOnEvent(tick=60, channel=4, data=[28, 0]),
   midi.NoteOnEvent(tick=0, channel=4, data=[28, 127]),
   midi.NoteOnEvent(tick=40, channel=4, data=[28, 0]),
   midi.NoteOnEvent(tick=0, channel=4, data=[28, 127]),
   midi.NoteOnEvent(tick=40, channel=4, data=[28, 0]),
   midi.NoteOnEvent(tick=0, channel=4, data=[28, 127]),
   midi.NoteOnEvent(tick=40, channel=4, data=[28, 0]),
   midi.NoteOnEvent(tick=0, channel=4, data=[40, 127]),
   midi.NoteOnEvent(tick=60, channel=4, data=[40, 0]),
   midi.NoteOnEvent(tick=0, channel=4, data=[28, 127]),
   midi.NoteOnEvent(tick=60, channel=4, data=[28, 0]),
   midi.NoteOnEvent(tick=0, channel=4, data=[28, 127]),
   midi.NoteOnEvent(tick=40, channel=4, data=[28, 0]),
   midi.NoteOnEvent(tick=0, channel=4, data=[28, 127]),
   midi.NoteOnEvent(tick=40, channel=4, data=[28, 0]),
   midi.NoteOnEvent(tick=0, channel=4, data=[28, 127]),
   midi.NoteOnEvent(tick=40, channel=4, data=[28, 0]),
   midi.NoteOnEvent(tick=0, channel=4, data=[40, 127]),
   midi.NoteOnEvent(tick=60, channel=4, data=[40, 0]),
   midi.NoteOnEvent(tick=0, channel=4, data=[28, 127]),
   midi.NoteOnEvent(tick=60, channel=4, data=[28, 0]),
   midi.NoteOnEvent(tick=0, channel=4, data=[28, 127]),
   midi.NoteOnEvent(tick=40, channel=4, data=[28, 0]),
   midi.NoteOnEvent(tick=0, channel=4, data=[28, 127]),
   midi.NoteOnEvent(tick=40, channel=4, data=[28, 0]),
   midi.NoteOnEvent(tick=0, channel=4, data=[28, 127]),
   midi.NoteOnEvent(tick=40, channel=4, data=[28, 0]),
   midi.NoteOnEvent(tick=0, channel=4, data=[41, 127]),
   midi.NoteOnEvent(tick=120, channel=4, data=[41, 0]),
   midi.NoteOnEvent(tick=0, channel=4, data=[41, 127]),
   midi.NoteOnEvent(tick=120, channel=4, data=[41, 0]),
   midi.NoteOnEvent(tick=0, channel=4, data=[40, 127]),
   midi.NoteOnEvent(tick=60, channel=4, data=[40, 0]),
   midi.NoteOnEvent(tick=0, channel=4, data=[28, 127]),
   midi.NoteOnEvent(tick=60, channel=4, data=[28, 0]),
   midi.NoteOnEvent(tick=0, channel=4, data=[28, 127]),
   midi.NoteOnEvent(tick=40, channel=4, data=[28, 0]),
   midi.NoteOnEvent(tick=0, channel=4, data=[28, 127]),
   midi.NoteOnEvent(tick=40, channel=4, data=[28, 0]),
   midi.NoteOnEvent(tick=0, channel=4, data=[28, 127]),
   midi.NoteOnEvent(tick=40, channel=4, data=[28, 0]),
   midi.NoteOnEvent(tick=0, channel=4, data=[40, 127]),
   midi.NoteOnEvent(tick=60, channel=4, data=[40, 0]),
   midi.NoteOnEvent(tick=0, channel=4, data=[28, 127]),
   midi.NoteOnEvent(tick=60, channel=4, data=[28, 0]),
   midi.NoteOnEvent(tick=0, channel=4, data=[28, 127]),
   midi.NoteOnEvent(tick=40, channel=4, data=[28, 0]),
   midi.NoteOnEvent(tick=0, channel=4, data=[28, 127]),
   midi.NoteOnEvent(tick=40, channel=4, data=[28, 0]),
   midi.NoteOnEvent(tick=0, channel=4, data=[28, 127]),
   midi.NoteOnEvent(tick=40, channel=4, data=[28, 0]),
   midi.NoteOnEvent(tick=0, channel=4, data=[40, 127]),
   midi.NoteOnEvent(tick=60, channel=4, data=[40, 0]),
   midi.NoteOnEvent(tick=0, channel=4, data=[28, 127]),
   midi.NoteOnEvent(tick=60, channel=4, data=[28, 0]),
   midi.NoteOnEvent(tick=0, channel=4, data=[28, 127]),
   midi.NoteOnEvent(tick=40, channel=4, data=[28, 0]),
   midi.NoteOnEvent(tick=0, channel=4, data=[28, 127]),
   midi.NoteOnEvent(tick=40, channel=4, data=[28, 0]),
   midi.NoteOnEvent(tick=0, channel=4, data=[28, 127]),
   midi.NoteOnEvent(tick=40, channel=4, data=[28, 0]),
   midi.NoteOnEvent(tick=0, channel=4, data=[41, 127]),
   midi.NoteOnEvent(tick=30, channel=4, data=[41, 0]),
   midi.NoteOnEvent(tick=0, channel=4, data=[40, 127]),
   midi.NoteOnEvent(tick=90, channel=4, data=[40, 0]),
   midi.NoteOnEvent(tick=0, channel=4, data=[40, 127]),
   midi.NoteOnEvent(tick=120, channel=4, data=[40, 0]),
   midi.NoteOnEvent(tick=0, channel=4, data=[40, 127]),
   midi.NoteOnEvent(tick=60, channel=4, data=[40, 0]),
   midi.NoteOnEvent(tick=0, channel=4, data=[28, 127]),
   midi.NoteOnEvent(tick=60, channel=4, data=[28, 0]),
   midi.NoteOnEvent(tick=0, channel=4, data=[28, 127]),
   midi.NoteOnEvent(tick=40, channel=4, data=[28, 0]),
   midi.NoteOnEvent(tick=0, channel=4, data=[28, 127]),
   midi.NoteOnEvent(tick=40, channel=4, data=[28, 0]),
   midi.NoteOnEvent(tick=0, channel=4, data=[28, 127]),
   midi.NoteOnEvent(tick=40, channel=4, data=[28, 0]),
   midi.NoteOnEvent(tick=0, channel=4, data=[40, 127]),
   midi.NoteOnEvent(tick=60, channel=4, data=[40, 0]),
   midi.NoteOnEvent(tick=0, channel=4, data=[28, 127]),
   midi.NoteOnEvent(tick=60, channel=4, data=[28, 0]),
   midi.NoteOnEvent(tick=0, channel=4, data=[28, 127]),
   midi.NoteOnEvent(tick=40, channel=4, data=[28, 0]),
   midi.NoteOnEvent(tick=0, channel=4, data=[28, 127]),
   midi.NoteOnEvent(tick=40, channel=4, data=[28, 0]),
   midi.NoteOnEvent(tick=0, channel=4, data=[28, 127]),
   midi.NoteOnEvent(tick=40, channel=4, data=[28, 0]),
   midi.NoteOnEvent(tick=0, channel=4, data=[40, 127]),
   midi.NoteOnEvent(tick=60, channel=4, data=[40, 0]),
   midi.NoteOnEvent(tick=0, channel=4, data=[28, 127]),
   midi.NoteOnEvent(tick=60, channel=4, data=[28, 0]),
   midi.NoteOnEvent(tick=0, channel=4, data=[28, 127]),
   midi.NoteOnEvent(tick=40, channel=4, data=[28, 0]),
   midi.NoteOnEvent(tick=0, channel=4, data=[28, 127]),
   midi.NoteOnEvent(tick=40, channel=4, data=[28, 0]),
   midi.NoteOnEvent(tick=0, channel=4, data=[28, 127]),
   midi.NoteOnEvent(tick=40, channel=4, data=[28, 0]),
   midi.NoteOnEvent(tick=0, channel=4, data=[41, 127]),
   midi.NoteOnEvent(tick=120, channel=4, data=[41, 0]),
   midi.NoteOnEvent(tick=0, channel=4, data=[41, 127]),
   midi.NoteOnEvent(tick=120, channel=4, data=[41, 0]),
   midi.NoteOnEvent(tick=0, channel=4, data=[40, 127]),
   midi.NoteOnEvent(tick=60, channel=4, data=[40, 0]),
   midi.NoteOnEvent(tick=0, channel=4, data=[28, 127]),
   midi.NoteOnEvent(tick=60, channel=4, data=[28, 0]),
   midi.NoteOnEvent(tick=0, channel=4, data=[28, 127]),
   midi.NoteOnEvent(tick=40, channel=4, data=[28, 0]),
   midi.NoteOnEvent(tick=0, channel=4, data=[28, 127]),
   midi.NoteOnEvent(tick=40, channel=4, data=[28, 0]),
   midi.NoteOnEvent(tick=0, channel=4, data=[28, 127]),
   midi.NoteOnEvent(tick=40, channel=4, data=[28, 0]),
   midi.NoteOnEvent(tick=0, channel=4, data=[40, 127]),
   midi.NoteOnEvent(tick=60, channel=4, data=[40, 0]),
   midi.NoteOnEvent(tick=0, channel=4, data=[28, 127]),
   midi.NoteOnEvent(tick=60, channel=4, data=[28, 0]),
   midi.NoteOnEvent(tick=0, channel=4, data=[28, 127]),
   midi.NoteOnEvent(tick=40, channel=4, data=[28, 0]),
   midi.NoteOnEvent(tick=0, channel=4, data=[28, 127]),
   midi.NoteOnEvent(tick=40, channel=4, data=[28, 0]),
   midi.NoteOnEvent(tick=0, channel=4, data=[28, 127]),
   midi.NoteOnEvent(tick=40, channel=4, data=[28, 0]),
   midi.NoteOnEvent(tick=0, channel=4, data=[40, 127]),
   midi.NoteOnEvent(tick=60, channel=4, data=[40, 0]),
   midi.NoteOnEvent(tick=0, channel=4, data=[28, 127]),
   midi.NoteOnEvent(tick=60, channel=4, data=[28, 0]),
   midi.NoteOnEvent(tick=0, channel=4, data=[28, 127]),
   midi.NoteOnEvent(tick=40, channel=4, data=[28, 0]),
   midi.NoteOnEvent(tick=0, channel=4, data=[28, 127]),
   midi.NoteOnEvent(tick=40, channel=4, data=[28, 0]),
   midi.NoteOnEvent(tick=0, channel=4, data=[28, 127]),
   midi.NoteOnEvent(tick=40, channel=4, data=[28, 0]),
   midi.NoteOnEvent(tick=0, channel=4, data=[41, 127]),
   midi.NoteOnEvent(tick=30, channel=4, data=[41, 0]),
   midi.NoteOnEvent(tick=0, channel=4, data=[40, 127]),
   midi.NoteOnEvent(tick=90, channel=4, data=[40, 0]),
   midi.NoteOnEvent(tick=0, channel=4, data=[40, 127]),
   midi.NoteOnEvent(tick=120, channel=4, data=[40, 0]),
   midi.NoteOnEvent(tick=0, channel=4, data=[40, 127]),
   midi.NoteOnEvent(tick=60, channel=4, data=[40, 0]),
   midi.NoteOnEvent(tick=0, channel=4, data=[28, 127]),
   midi.NoteOnEvent(tick=60, channel=4, data=[28, 0]),
   midi.NoteOnEvent(tick=0, channel=4, data=[28, 127]),
   midi.NoteOnEvent(tick=40, channel=4, data=[28, 0]),
   midi.NoteOnEvent(tick=0, channel=4, data=[28, 127]),
   midi.NoteOnEvent(tick=40, channel=4, data=[28, 0]),
   midi.NoteOnEvent(tick=0, channel=4, data=[28, 127]),
   midi.NoteOnEvent(tick=40, channel=4, data=[28, 0]),
   midi.NoteOnEvent(tick=0, channel=4, data=[40, 127]),
   midi.NoteOnEvent(tick=60, channel=4, data=[40, 0]),
   midi.NoteOnEvent(tick=0, channel=4, data=[28, 127]),
   midi.NoteOnEvent(tick=60, channel=4, data=[28, 0]),
   midi.NoteOnEvent(tick=0, channel=4, data=[28, 127]),
   midi.NoteOnEvent(tick=40, channel=4, data=[28, 0]),
   midi.NoteOnEvent(tick=0, channel=4, data=[28, 127]),
   midi.NoteOnEvent(tick=40, channel=4, data=[28, 0]),
   midi.NoteOnEvent(tick=0, channel=4, data=[28, 127]),
   midi.NoteOnEvent(tick=40, channel=4, data=[28, 0]),
   midi.NoteOnEvent(tick=0, channel=4, data=[40, 127]),
   midi.NoteOnEvent(tick=60, channel=4, data=[40, 0]),
   midi.NoteOnEvent(tick=0, channel=4, data=[28, 127]),
   midi.NoteOnEvent(tick=60, channel=4, data=[28, 0]),
   midi.NoteOnEvent(tick=0, channel=4, data=[28, 127]),
   midi.NoteOnEvent(tick=40, channel=4, data=[28, 0]),
   midi.NoteOnEvent(tick=0, channel=4, data=[28, 127]),
   midi.NoteOnEvent(tick=40, channel=4, data=[28, 0]),
   midi.NoteOnEvent(tick=0, channel=4, data=[28, 127]),
   midi.NoteOnEvent(tick=40, channel=4, data=[28, 0]),
   midi.NoteOnEvent(tick=0, channel=4, data=[41, 127]),
   midi.NoteOnEvent(tick=120, channel=4, data=[41, 0]),
   midi.NoteOnEvent(tick=0, channel=4, data=[41, 127]),
   midi.NoteOnEvent(tick=120, channel=4, data=[41, 0]),
   midi.NoteOnEvent(tick=0, channel=4, data=[40, 127]),
   midi.NoteOnEvent(tick=60, channel=4, data=[40, 0]),
   midi.NoteOnEvent(tick=0, channel=4, data=[28, 127]),
   midi.NoteOnEvent(tick=60, channel=4, data=[28, 0]),
   midi.NoteOnEvent(tick=0, channel=4, data=[28, 127]),
   midi.NoteOnEvent(tick=40, channel=4, data=[28, 0]),
   midi.NoteOnEvent(tick=0, channel=4, data=[28, 127]),
   midi.NoteOnEvent(tick=40, channel=4, data=[28, 0]),
   midi.NoteOnEvent(tick=0, channel=4, data=[28, 127]),
   midi.NoteOnEvent(tick=40, channel=4, data=[28, 0]),
   midi.NoteOnEvent(tick=0, channel=4, data=[40, 127]),
   midi.NoteOnEvent(tick=60, channel=4, data=[40, 0]),
   midi.NoteOnEvent(tick=0, channel=4, data=[28, 127]),
   midi.NoteOnEvent(tick=60, channel=4, data=[28, 0]),
   midi.NoteOnEvent(tick=0, channel=4, data=[28, 127]),
   midi.NoteOnEvent(tick=40, channel=4, data=[28, 0]),
   midi.NoteOnEvent(tick=0, channel=4, data=[28, 127]),
   midi.NoteOnEvent(tick=40, channel=4, data=[28, 0]),
   midi.NoteOnEvent(tick=0, channel=4, data=[28, 127]),
   midi.NoteOnEvent(tick=40, channel=4, data=[28, 0]),
   midi.NoteOnEvent(tick=0, channel=4, data=[40, 127]),
   midi.NoteOnEvent(tick=60, channel=4, data=[40, 0]),
   midi.NoteOnEvent(tick=0, channel=4, data=[28, 127]),
   midi.NoteOnEvent(tick=60, channel=4, data=[28, 0]),
   midi.NoteOnEvent(tick=0, channel=4, data=[28, 127]),
   midi.NoteOnEvent(tick=40, channel=4, data=[28, 0]),
   midi.NoteOnEvent(tick=0, channel=4, data=[28, 127]),
   midi.NoteOnEvent(tick=40, channel=4, data=[28, 0]),
   midi.NoteOnEvent(tick=0, channel=4, data=[28, 127]),
   midi.NoteOnEvent(tick=40, channel=4, data=[28, 0]),
   midi.NoteOnEvent(tick=0, channel=4, data=[41, 127]),
   midi.NoteOnEvent(tick=30, channel=4, data=[41, 0]),
   midi.NoteOnEvent(tick=0, channel=4, data=[40, 127]),
   midi.NoteOnEvent(tick=90, channel=4, data=[40, 0]),
   midi.NoteOnEvent(tick=0, channel=4, data=[40, 127]),
   midi.NoteOnEvent(tick=120, channel=4, data=[40, 0]),
   midi.NoteOnEvent(tick=0, channel=4, data=[40, 127]),
   midi.NoteOnEvent(tick=60, channel=4, data=[40, 0]),
   midi.NoteOnEvent(tick=0, channel=4, data=[28, 127]),
   midi.NoteOnEvent(tick=60, channel=4, data=[28, 0]),
   midi.NoteOnEvent(tick=0, channel=4, data=[28, 127]),
   midi.NoteOnEvent(tick=40, channel=4, data=[28, 0]),
   midi.NoteOnEvent(tick=0, channel=4, data=[28, 127]),
   midi.NoteOnEvent(tick=40, channel=4, data=[28, 0]),
   midi.NoteOnEvent(tick=0, channel=4, data=[28, 127]),
   midi.NoteOnEvent(tick=40, channel=4, data=[28, 0]),
   midi.NoteOnEvent(tick=0, channel=4, data=[40, 127]),
   midi.NoteOnEvent(tick=60, channel=4, data=[40, 0]),
   midi.NoteOnEvent(tick=0, channel=4, data=[28, 127]),
   midi.NoteOnEvent(tick=60, channel=4, data=[28, 0]),
   midi.NoteOnEvent(tick=0, channel=4, data=[28, 127]),
   midi.NoteOnEvent(tick=40, channel=4, data=[28, 0]),
   midi.NoteOnEvent(tick=0, channel=4, data=[28, 127]),
   midi.NoteOnEvent(tick=40, channel=4, data=[28, 0]),
   midi.NoteOnEvent(tick=0, channel=4, data=[28, 127]),
   midi.NoteOnEvent(tick=40, channel=4, data=[28, 0]),
   midi.NoteOnEvent(tick=0, channel=4, data=[40, 127]),
   midi.NoteOnEvent(tick=60, channel=4, data=[40, 0]),
   midi.NoteOnEvent(tick=0, channel=4, data=[28, 127]),
   midi.NoteOnEvent(tick=60, channel=4, data=[28, 0]),
   midi.NoteOnEvent(tick=0, channel=4, data=[28, 127]),
   midi.NoteOnEvent(tick=40, channel=4, data=[28, 0]),
   midi.NoteOnEvent(tick=0, channel=4, data=[28, 127]),
   midi.NoteOnEvent(tick=40, channel=4, data=[28, 0]),
   midi.NoteOnEvent(tick=0, channel=4, data=[28, 127]),
   midi.NoteOnEvent(tick=40, channel=4, data=[28, 0]),
   midi.NoteOnEvent(tick=0, channel=4, data=[41, 127]),
   midi.NoteOnEvent(tick=120, channel=4, data=[41, 0]),
   midi.NoteOnEvent(tick=0, channel=4, data=[41, 127]),
   midi.NoteOnEvent(tick=120, channel=4, data=[41, 0]),
   midi.NoteOnEvent(tick=0, channel=4, data=[40, 127]),
   midi.NoteOnEvent(tick=60, channel=4, data=[40, 0]),
   midi.NoteOnEvent(tick=0, channel=4, data=[28, 127]),
   midi.NoteOnEvent(tick=60, channel=4, data=[28, 0]),
   midi.NoteOnEvent(tick=0, channel=4, data=[28, 127]),
   midi.NoteOnEvent(tick=40, channel=4, data=[28, 0]),
   midi.NoteOnEvent(tick=0, channel=4, data=[28, 127]),
   midi.NoteOnEvent(tick=40, channel=4, data=[28, 0]),
   midi.NoteOnEvent(tick=0, channel=4, data=[28, 127]),
   midi.NoteOnEvent(tick=40, channel=4, data=[28, 0]),
   midi.NoteOnEvent(tick=0, channel=4, data=[40, 127]),
   midi.NoteOnEvent(tick=60, channel=4, data=[40, 0]),
   midi.NoteOnEvent(tick=0, channel=4, data=[28, 127]),
   midi.NoteOnEvent(tick=60, channel=4, data=[28, 0]),
   midi.NoteOnEvent(tick=0, channel=4, data=[28, 127]),
   midi.NoteOnEvent(tick=40, channel=4, data=[28, 0]),
   midi.NoteOnEvent(tick=0, channel=4, data=[28, 127]),
   midi.NoteOnEvent(tick=40, channel=4, data=[28, 0]),
   midi.NoteOnEvent(tick=0, channel=4, data=[28, 127]),
   midi.NoteOnEvent(tick=40, channel=4, data=[28, 0]),
   midi.NoteOnEvent(tick=0, channel=4, data=[40, 127]),
   midi.NoteOnEvent(tick=60, channel=4, data=[40, 0]),
   midi.NoteOnEvent(tick=0, channel=4, data=[28, 127]),
   midi.NoteOnEvent(tick=60, channel=4, data=[28, 0]),
   midi.NoteOnEvent(tick=0, channel=4, data=[28, 127]),
   midi.NoteOnEvent(tick=40, channel=4, data=[28, 0]),
   midi.NoteOnEvent(tick=0, channel=4, data=[28, 127]),
   midi.NoteOnEvent(tick=40, channel=4, data=[28, 0]),
   midi.NoteOnEvent(tick=0, channel=4, data=[28, 127]),
   midi.NoteOnEvent(tick=40, channel=4, data=[28, 0]),
   midi.NoteOnEvent(tick=0, channel=4, data=[41, 127]),
   midi.NoteOnEvent(tick=30, channel=4, data=[41, 0]),
   midi.NoteOnEvent(tick=0, channel=4, data=[40, 127]),
   midi.NoteOnEvent(tick=90, channel=4, data=[40, 0]),
   midi.NoteOnEvent(tick=0, channel=4, data=[40, 127]),
   midi.NoteOnEvent(tick=120, channel=4, data=[40, 0]),
   midi.NoteOnEvent(tick=0, channel=4, data=[40, 127]),
   midi.NoteOnEvent(tick=60, channel=4, data=[40, 0]),
   midi.NoteOnEvent(tick=0, channel=4, data=[28, 127]),
   midi.NoteOnEvent(tick=60, channel=4, data=[28, 0]),
   midi.NoteOnEvent(tick=0, channel=4, data=[28, 127]),
   midi.NoteOnEvent(tick=40, channel=4, data=[28, 0]),
   midi.NoteOnEvent(tick=0, channel=4, data=[28, 127]),
   midi.NoteOnEvent(tick=40, channel=4, data=[28, 0]),
   midi.NoteOnEvent(tick=0, channel=4, data=[28, 127]),
   midi.NoteOnEvent(tick=40, channel=4, data=[28, 0]),
   midi.NoteOnEvent(tick=0, channel=4, data=[40, 127]),
   midi.NoteOnEvent(tick=60, channel=4, data=[40, 0]),
   midi.NoteOnEvent(tick=0, channel=4, data=[28, 127]),
   midi.NoteOnEvent(tick=60, channel=4, data=[28, 0]),
   midi.NoteOnEvent(tick=0, channel=4, data=[28, 127]),
   midi.NoteOnEvent(tick=40, channel=4, data=[28, 0]),
   midi.NoteOnEvent(tick=0, channel=4, data=[28, 127]),
   midi.NoteOnEvent(tick=40, channel=4, data=[28, 0]),
   midi.NoteOnEvent(tick=0, channel=4, data=[28, 127]),
   midi.NoteOnEvent(tick=40, channel=4, data=[28, 0]),
   midi.NoteOnEvent(tick=0, channel=4, data=[40, 127]),
   midi.NoteOnEvent(tick=60, channel=4, data=[40, 0]),
   midi.NoteOnEvent(tick=0, channel=4, data=[28, 127]),
   midi.NoteOnEvent(tick=60, channel=4, data=[28, 0]),
   midi.NoteOnEvent(tick=0, channel=4, data=[28, 127]),
   midi.NoteOnEvent(tick=40, channel=4, data=[28, 0]),
   midi.NoteOnEvent(tick=0, channel=4, data=[28, 127]),
   midi.NoteOnEvent(tick=40, channel=4, data=[28, 0]),
   midi.NoteOnEvent(tick=0, channel=4, data=[28, 127]),
   midi.NoteOnEvent(tick=40, channel=4, data=[28, 0]),
   midi.NoteOnEvent(tick=0, channel=4, data=[41, 127]),
   midi.NoteOnEvent(tick=120, channel=4, data=[41, 0]),
   midi.NoteOnEvent(tick=0, channel=4, data=[41, 127]),
   midi.NoteOnEvent(tick=120, channel=4, data=[41, 0]),
   midi.NoteOnEvent(tick=0, channel=4, data=[40, 127]),
   midi.NoteOnEvent(tick=60, channel=4, data=[40, 0]),
   midi.NoteOnEvent(tick=0, channel=4, data=[38, 127]),
   midi.NoteOnEvent(tick=60, channel=4, data=[38, 0]),
   midi.NoteOnEvent(tick=0, channel=4, data=[40, 127]),
   midi.NoteOnEvent(tick=60, channel=4, data=[40, 0]),
   midi.NoteOnEvent(tick=0, channel=4, data=[38, 127]),
   midi.NoteOnEvent(tick=60, channel=4, data=[38, 0]),
   midi.NoteOnEvent(tick=0, channel=4, data=[40, 127]),
   midi.NoteOnEvent(tick=60, channel=4, data=[40, 0]),
   midi.NoteOnEvent(tick=0, channel=4, data=[38, 127]),
   midi.NoteOnEvent(tick=60, channel=4, data=[38, 0]),
   midi.NoteOnEvent(tick=0, channel=4, data=[40, 127]),
   midi.NoteOnEvent(tick=60, channel=4, data=[40, 0]),
   midi.NoteOnEvent(tick=0, channel=4, data=[38, 127]),
   midi.NoteOnEvent(tick=60, channel=4, data=[38, 0]),
   midi.NoteOnEvent(tick=0, channel=4, data=[40, 127]),
   midi.NoteOnEvent(tick=60, channel=4, data=[40, 0]),
   midi.NoteOnEvent(tick=0, channel=4, data=[38, 127]),
   midi.NoteOnEvent(tick=60, channel=4, data=[38, 0]),
   midi.NoteOnEvent(tick=0, channel=4, data=[40, 127]),
   midi.NoteOnEvent(tick=60, channel=4, data=[40, 0]),
   midi.NoteOnEvent(tick=0, channel=4, data=[38, 127]),
   midi.NoteOnEvent(tick=60, channel=4, data=[38, 0]),
   midi.NoteOnEvent(tick=0, channel=4, data=[40, 127]),
   midi.NoteOnEvent(tick=60, channel=4, data=[40, 0]),
   midi.NoteOnEvent(tick=0, channel=4, data=[38, 127]),
   midi.NoteOnEvent(tick=60, channel=4, data=[38, 0]),
   midi.NoteOnEvent(tick=0, channel=4, data=[35, 127]),
   midi.NoteOnEvent(tick=60, channel=4, data=[35, 0]),
   midi.NoteOnEvent(tick=0, channel=4, data=[38, 127]),
   midi.NoteOnEvent(tick=60, channel=4, data=[38, 0]),
   midi.NoteOnEvent(tick=0, channel=4, data=[40, 127]),
   midi.NoteOnEvent(tick=60, channel=4, data=[40, 0]),
   midi.NoteOnEvent(tick=0, channel=4, data=[38, 127]),
   midi.NoteOnEvent(tick=60, channel=4, data=[38, 0]),
   midi.NoteOnEvent(tick=0, channel=4, data=[40, 127]),
   midi.NoteOnEvent(tick=60, channel=4, data=[40, 0]),
   midi.NoteOnEvent(tick=0, channel=4, data=[38, 127]),
   midi.NoteOnEvent(tick=60, channel=4, data=[38, 0]),
   midi.NoteOnEvent(tick=0, channel=4, data=[40, 127]),
   midi.NoteOnEvent(tick=60, channel=4, data=[40, 0]),
   midi.NoteOnEvent(tick=0, channel=4, data=[38, 127]),
   midi.NoteOnEvent(tick=60, channel=4, data=[38, 0]),
   midi.NoteOnEvent(tick=0, channel=4, data=[40, 127]),
   midi.NoteOnEvent(tick=60, channel=4, data=[40, 0]),
   midi.NoteOnEvent(tick=0, channel=4, data=[38, 127]),
   midi.NoteOnEvent(tick=60, channel=4, data=[38, 0]),
   midi.NoteOnEvent(tick=0, channel=4, data=[34, 127]),
   midi.NoteOnEvent(tick=40, channel=4, data=[34, 0]),
   midi.NoteOnEvent(tick=0, channel=4, data=[35, 127]),
   midi.NoteOnEvent(tick=40, channel=4, data=[35, 0]),
   midi.NoteOnEvent(tick=0, channel=4, data=[38, 127]),
   midi.NoteOnEvent(tick=40, channel=4, data=[38, 0]),
   midi.NoteOnEvent(tick=0, channel=4, data=[40, 127]),
   midi.NoteOnEvent(tick=60, channel=4, data=[40, 0]),
   midi.NoteOnEvent(tick=0, channel=4, data=[38, 127]),
   midi.NoteOnEvent(tick=60, channel=4, data=[38, 0]),
   midi.NoteOnEvent(tick=0, channel=4, data=[45, 127]),
   midi.NoteOnEvent(tick=60, channel=4, data=[45, 0]),
   midi.NoteOnEvent(tick=0, channel=4, data=[43, 127]),
   midi.NoteOnEvent(tick=60, channel=4, data=[43, 0]),
   midi.NoteOnEvent(tick=0, channel=4, data=[40, 127]),
   midi.NoteOnEvent(tick=60, channel=4, data=[40, 0]),
   midi.NoteOnEvent(tick=0, channel=4, data=[38, 127]),
   midi.NoteOnEvent(tick=60, channel=4, data=[38, 0]),
   midi.NoteOnEvent(tick=0, channel=4, data=[40, 127]),
   midi.NoteOnEvent(tick=60, channel=4, data=[40, 0]),
   midi.NoteOnEvent(tick=0, channel=4, data=[38, 127]),
   midi.NoteOnEvent(tick=60, channel=4, data=[38, 0]),
   midi.NoteOnEvent(tick=0, channel=4, data=[40, 127]),
   midi.NoteOnEvent(tick=60, channel=4, data=[40, 0]),
   midi.NoteOnEvent(tick=0, channel=4, data=[38, 127]),
   midi.NoteOnEvent(tick=60, channel=4, data=[38, 0]),
   midi.NoteOnEvent(tick=0, channel=4, data=[40, 127]),
   midi.NoteOnEvent(tick=60, channel=4, data=[40, 0]),
   midi.NoteOnEvent(tick=0, channel=4, data=[38, 127]),
   midi.NoteOnEvent(tick=60, channel=4, data=[38, 0]),
   midi.NoteOnEvent(tick=0, channel=4, data=[35, 127]),
   midi.NoteOnEvent(tick=60, channel=4, data=[35, 0]),
   midi.NoteOnEvent(tick=0, channel=4, data=[38, 127]),
   midi.NoteOnEvent(tick=60, channel=4, data=[38, 0]),
   midi.NoteOnEvent(tick=0, channel=4, data=[40, 127]),
   midi.NoteOnEvent(tick=60, channel=4, data=[40, 0]),
   midi.NoteOnEvent(tick=0, channel=4, data=[38, 127]),
   midi.NoteOnEvent(tick=60, channel=4, data=[38, 0]),
   midi.NoteOnEvent(tick=0, channel=4, data=[40, 127]),
   midi.NoteOnEvent(tick=60, channel=4, data=[40, 0]),
   midi.NoteOnEvent(tick=0, channel=4, data=[38, 127]),
   midi.NoteOnEvent(tick=60, channel=4, data=[38, 0]),
   midi.NoteOnEvent(tick=0, channel=4, data=[40, 127]),
   midi.NoteOnEvent(tick=60, channel=4, data=[40, 0]),
   midi.NoteOnEvent(tick=0, channel=4, data=[38, 127]),
   midi.NoteOnEvent(tick=60, channel=4, data=[38, 0]),
   midi.NoteOnEvent(tick=0, channel=4, data=[35, 127]),
   midi.NoteOnEvent(tick=60, channel=4, data=[35, 0]),
   midi.NoteOnEvent(tick=0, channel=4, data=[33, 127]),
   midi.NoteOnEvent(tick=60, channel=4, data=[33, 0]),
   midi.NoteOnEvent(tick=0, channel=4, data=[36, 127]),
   midi.NoteOnEvent(tick=120, channel=4, data=[36, 0]),
   midi.NoteOnEvent(tick=0, channel=4, data=[31, 127]),
   midi.NoteOnEvent(tick=120, channel=4, data=[31, 0]),
   midi.NoteOnEvent(tick=0, channel=4, data=[38, 127]),
   midi.NoteOnEvent(tick=120, channel=4, data=[38, 0]),
   midi.NoteOnEvent(tick=0, channel=4, data=[36, 127]),
   midi.NoteOnEvent(tick=120, channel=4, data=[36, 0]),
   midi.NoteOnEvent(tick=0, channel=4, data=[28, 127]),
   midi.NoteOnEvent(tick=120, channel=4, data=[28, 0]),
   midi.EndOfTrackEvent(tick=0, data=[])]),
 midi.Track(\
  [midi.PortEvent(tick=0, data=[0]),
   midi.TrackNameEvent(tick=0, text='Drums', data=[68, 114, 117, 109, 115]),
   midi.ControlChangeEvent(tick=0, channel=9, data=[7, 99]),
   midi.NoteOnEvent(tick=0, channel=9, data=[36, 127]),
   midi.NoteOnEvent(tick=0, channel=9, data=[57, 127]),
   midi.NoteOnEvent(tick=120, channel=9, data=[36, 0]),
   midi.NoteOnEvent(tick=0, channel=9, data=[57, 0]),
   midi.NoteOnEvent(tick=0, channel=9, data=[36, 127]),
   midi.NoteOnEvent(tick=0, channel=9, data=[57, 127]),
   midi.NoteOnEvent(tick=120, channel=9, data=[36, 0]),
   midi.NoteOnEvent(tick=0, channel=9, data=[57, 0]),
   midi.NoteOnEvent(tick=0, channel=9, data=[36, 127]),
   midi.NoteOnEvent(tick=0, channel=9, data=[57, 127]),
   midi.NoteOnEvent(tick=120, channel=9, data=[36, 0]),
   midi.NoteOnEvent(tick=0, channel=9, data=[57, 0]),
   midi.NoteOnEvent(tick=0, channel=9, data=[36, 127]),
   midi.NoteOnEvent(tick=0, channel=9, data=[57, 127]),
   midi.NoteOnEvent(tick=120, channel=9, data=[36, 0]),
   midi.NoteOnEvent(tick=0, channel=9, data=[57, 0]),
   midi.NoteOnEvent(tick=0, channel=9, data=[36, 127]),
   midi.NoteOnEvent(tick=0, channel=9, data=[57, 127]),
   midi.NoteOnEvent(tick=120, channel=9, data=[36, 0]),
   midi.NoteOnEvent(tick=0, channel=9, data=[57, 0]),
   midi.NoteOnEvent(tick=1440, channel=9, data=[36, 127]),
   midi.NoteOnEvent(tick=0, channel=9, data=[57, 127]),
   midi.NoteOnEvent(tick=120, channel=9, data=[36, 0]),
   midi.NoteOnEvent(tick=0, channel=9, data=[57, 0]),
   midi.NoteOnEvent(tick=120, channel=9, data=[36, 127]),
   midi.NoteOnEvent(tick=0, channel=9, data=[57, 127]),
   midi.NoteOnEvent(tick=120, channel=9, data=[36, 0]),
   midi.NoteOnEvent(tick=0, channel=9, data=[57, 0]),
   midi.NoteOnEvent(tick=960, channel=9, data=[36, 127]),
   midi.NoteOnEvent(tick=0, channel=9, data=[57, 127]),
   midi.NoteOnEvent(tick=120, channel=9, data=[36, 0]),
   midi.NoteOnEvent(tick=0, channel=9, data=[57, 0]),
   midi.NoteOnEvent(tick=0, channel=9, data=[36, 127]),
   midi.NoteOnEvent(tick=0, channel=9, data=[57, 127]),
   midi.NoteOnEvent(tick=120, channel=9, data=[36, 0]),
   midi.NoteOnEvent(tick=0, channel=9, data=[57, 0]),
   midi.NoteOnEvent(tick=0, channel=9, data=[36, 127]),
   midi.NoteOnEvent(tick=0, channel=9, data=[57, 127]),
   midi.NoteOnEvent(tick=120, channel=9, data=[36, 0]),
   midi.NoteOnEvent(tick=0, channel=9, data=[57, 0]),
   midi.NoteOnEvent(tick=0, channel=9, data=[36, 127]),
   midi.NoteOnEvent(tick=0, channel=9, data=[57, 127]),
   midi.NoteOnEvent(tick=120, channel=9, data=[36, 0]),
   midi.NoteOnEvent(tick=0, channel=9, data=[57, 0]),
   midi.NoteOnEvent(tick=0, channel=9, data=[36, 127]),
   midi.NoteOnEvent(tick=0, channel=9, data=[57, 127]),
   midi.NoteOnEvent(tick=120, channel=9, data=[36, 0]),
   midi.NoteOnEvent(tick=0, channel=9, data=[57, 0]),
   midi.NoteOnEvent(tick=1440, channel=9, data=[36, 127]),
   midi.NoteOnEvent(tick=0, channel=9, data=[57, 127]),
   midi.NoteOnEvent(tick=120, channel=9, data=[36, 0]),
   midi.NoteOnEvent(tick=0, channel=9, data=[57, 0]),
   midi.NoteOnEvent(tick=120, channel=9, data=[36, 127]),
   midi.NoteOnEvent(tick=0, channel=9, data=[57, 127]),
   midi.NoteOnEvent(tick=120, channel=9, data=[36, 0]),
   midi.NoteOnEvent(tick=0, channel=9, data=[57, 0]),
   midi.NoteOnEvent(tick=960, channel=9, data=[36, 127]),
   midi.NoteOnEvent(tick=0, channel=9, data=[57, 127]),
   midi.NoteOnEvent(tick=120, channel=9, data=[36, 0]),
   midi.NoteOnEvent(tick=0, channel=9, data=[57, 0]),
   midi.NoteOnEvent(tick=0, channel=9, data=[36, 127]),
   midi.NoteOnEvent(tick=0, channel=9, data=[57, 127]),
   midi.NoteOnEvent(tick=120, channel=9, data=[36, 0]),
   midi.NoteOnEvent(tick=0, channel=9, data=[57, 0]),
   midi.NoteOnEvent(tick=0, channel=9, data=[36, 127]),
   midi.NoteOnEvent(tick=0, channel=9, data=[57, 127]),
   midi.NoteOnEvent(tick=60, channel=9, data=[36, 0]),
   midi.NoteOnEvent(tick=0, channel=9, data=[36, 127]),
   midi.NoteOnEvent(tick=55, channel=9, data=[38, 75]),
   midi.NoteOnEvent(tick=5, channel=9, data=[57, 0]),
   midi.NoteOnEvent(tick=0, channel=9, data=[36, 0]),
   midi.NoteOnEvent(tick=0, channel=9, data=[38, 0]),
   midi.NoteOnEvent(tick=0, channel=9, data=[38, 127]),
   midi.NoteOnEvent(tick=120, channel=9, data=[38, 0]),
   midi.NoteOnEvent(tick=0, channel=9, data=[57, 127]),
   midi.NoteOnEvent(tick=0, channel=9, data=[36, 127]),
   midi.NoteOnEvent(tick=60, channel=9, data=[36, 0]),
   midi.NoteOnEvent(tick=0, channel=9, data=[36, 127]),
   midi.NoteOnEvent(tick=60, channel=9, data=[57, 0]),
   midi.NoteOnEvent(tick=0, channel=9, data=[36, 0]),
   midi.NoteOnEvent(tick=0, channel=9, data=[42, 127]),
   midi.NoteOnEvent(tick=0, channel=9, data=[38, 127]),
   midi.NoteOnEvent(tick=120, channel=9, data=[42, 0]),
   midi.NoteOnEvent(tick=0, channel=9, data=[38, 0]),
   midi.NoteOnEvent(tick=0, channel=9, data=[42, 127]),
   midi.NoteOnEvent(tick=0, channel=9, data=[36, 127]),
   midi.NoteOnEvent(tick=60, channel=9, data=[36, 0]),
   midi.NoteOnEvent(tick=0, channel=9, data=[36, 127]),
   midi.NoteOnEvent(tick=60, channel=9, data=[42, 0]),
   midi.NoteOnEvent(tick=0, channel=9, data=[36, 0]),
   midi.NoteOnEvent(tick=0, channel=9, data=[38, 127]),
   midi.NoteOnEvent(tick=0, channel=9, data=[42, 127]),
   midi.NoteOnEvent(tick=120, channel=9, data=[38, 0]),
   midi.NoteOnEvent(tick=0, channel=9, data=[42, 0]),
   midi.NoteOnEvent(tick=0, channel=9, data=[42, 127]),
   midi.NoteOnEvent(tick=0, channel=9, data=[36, 127]),
   midi.NoteOnEvent(tick=40, channel=9, data=[36, 0]),
   midi.NoteOnEvent(tick=0, channel=9, data=[35, 127]),
   midi.NoteOnEvent(tick=40, channel=9, data=[35, 0]),
   midi.NoteOnEvent(tick=0, channel=9, data=[36, 127]),
   midi.NoteOnEvent(tick=40, channel=9, data=[42, 0]),
   midi.NoteOnEvent(tick=0, channel=9, data=[36, 0]),
   midi.NoteOnEvent(tick=0, channel=9, data=[38, 127]),
   midi.NoteOnEvent(tick=0, channel=9, data=[42, 127]),
   midi.NoteOnEvent(tick=120, channel=9, data=[38, 0]),
   midi.NoteOnEvent(tick=0, channel=9, data=[42, 0]),
   midi.NoteOnEvent(tick=0, channel=9, data=[42, 127]),
   midi.NoteOnEvent(tick=0, channel=9, data=[36, 127]),
   midi.NoteOnEvent(tick=40, channel=9, data=[36, 0]),
   midi.NoteOnEvent(tick=0, channel=9, data=[35, 127]),
   midi.NoteOnEvent(tick=40, channel=9, data=[35, 0]),
   midi.NoteOnEvent(tick=0, channel=9, data=[36, 127]),
   midi.NoteOnEvent(tick=40, channel=9, data=[42, 0]),
   midi.NoteOnEvent(tick=0, channel=9, data=[36, 0]),
   midi.NoteOnEvent(tick=0, channel=9, data=[57, 127]),
   midi.NoteOnEvent(tick=0, channel=9, data=[38, 127]),
   midi.NoteOnEvent(tick=120, channel=9, data=[57, 0]),
   midi.NoteOnEvent(tick=0, channel=9, data=[38, 0]),
   midi.NoteOnEvent(tick=0, channel=9, data=[42, 127]),
   midi.NoteOnEvent(tick=0, channel=9, data=[36, 127]),
   midi.NoteOnEvent(tick=40, channel=9, data=[36, 0]),
   midi.NoteOnEvent(tick=0, channel=9, data=[35, 127]),
   midi.NoteOnEvent(tick=40, channel=9, data=[35, 0]),
   midi.NoteOnEvent(tick=0, channel=9, data=[36, 127]),
   midi.NoteOnEvent(tick=40, channel=9, data=[42, 0]),
   midi.NoteOnEvent(tick=0, channel=9, data=[36, 0]),
   midi.NoteOnEvent(tick=0, channel=9, data=[38, 127]),
   midi.NoteOnEvent(tick=0, channel=9, data=[42, 127]),
   midi.NoteOnEvent(tick=120, channel=9, data=[38, 0]),
   midi.NoteOnEvent(tick=0, channel=9, data=[42, 0]),
   midi.NoteOnEvent(tick=0, channel=9, data=[42, 127]),
   midi.NoteOnEvent(tick=0, channel=9, data=[36, 127]),
   midi.NoteOnEvent(tick=40, channel=9, data=[36, 0]),
   midi.NoteOnEvent(tick=0, channel=9, data=[35, 127]),
   midi.NoteOnEvent(tick=40, channel=9, data=[35, 0]),
   midi.NoteOnEvent(tick=0, channel=9, data=[36, 127]),
   midi.NoteOnEvent(tick=40, channel=9, data=[42, 0]),
   midi.NoteOnEvent(tick=0, channel=9, data=[36, 0]),
   midi.NoteOnEvent(tick=0, channel=9, data=[42, 127]),
   midi.NoteOnEvent(tick=0, channel=9, data=[38, 127]),
   midi.NoteOnEvent(tick=120, channel=9, data=[42, 0]),
   midi.NoteOnEvent(tick=0, channel=9, data=[38, 0]),
   midi.NoteOnEvent(tick=0, channel=9, data=[42, 127]),
   midi.NoteOnEvent(tick=0, channel=9, data=[36, 127]),
   midi.NoteOnEvent(tick=40, channel=9, data=[36, 0]),
   midi.NoteOnEvent(tick=0, channel=9, data=[35, 127]),
   midi.NoteOnEvent(tick=40, channel=9, data=[35, 0]),
   midi.NoteOnEvent(tick=0, channel=9, data=[36, 127]),
   midi.NoteOnEvent(tick=40, channel=9, data=[42, 0]),
   midi.NoteOnEvent(tick=0, channel=9, data=[36, 0]),
   midi.NoteOnEvent(tick=0, channel=9, data=[38, 127]),
   midi.NoteOnEvent(tick=0, channel=9, data=[42, 127]),
   midi.NoteOnEvent(tick=120, channel=9, data=[38, 0]),
   midi.NoteOnEvent(tick=0, channel=9, data=[42, 0]),
   midi.NoteOnEvent(tick=0, channel=9, data=[42, 127]),
   midi.NoteOnEvent(tick=0, channel=9, data=[36, 127]),
   midi.NoteOnEvent(tick=40, channel=9, data=[36, 0]),
   midi.NoteOnEvent(tick=0, channel=9, data=[35, 127]),
   midi.NoteOnEvent(tick=40, channel=9, data=[35, 0]),
   midi.NoteOnEvent(tick=0, channel=9, data=[36, 127]),
   midi.NoteOnEvent(tick=40, channel=9, data=[42, 0]),
   midi.NoteOnEvent(tick=0, channel=9, data=[36, 0]),
   midi.NoteOnEvent(tick=0, channel=9, data=[57, 127]),
   midi.NoteOnEvent(tick=0, channel=9, data=[38, 127]),
   midi.NoteOnEvent(tick=120, channel=9, data=[57, 0]),
   midi.NoteOnEvent(tick=0, channel=9, data=[38, 0]),
   midi.NoteOnEvent(tick=0, channel=9, data=[42, 127]),
   midi.NoteOnEvent(tick=0, channel=9, data=[36, 127]),
   midi.NoteOnEvent(tick=40, channel=9, data=[36, 0]),
   midi.NoteOnEvent(tick=0, channel=9, data=[35, 127]),
   midi.NoteOnEvent(tick=40, channel=9, data=[35, 0]),
   midi.NoteOnEvent(tick=0, channel=9, data=[36, 127]),
   midi.NoteOnEvent(tick=40, channel=9, data=[42, 0]),
   midi.NoteOnEvent(tick=0, channel=9, data=[36, 0]),
   midi.NoteOnEvent(tick=0, channel=9, data=[38, 127]),
   midi.NoteOnEvent(tick=0, channel=9, data=[42, 127]),
   midi.NoteOnEvent(tick=120, channel=9, data=[38, 0]),
   midi.NoteOnEvent(tick=0, channel=9, data=[42, 0]),
   midi.NoteOnEvent(tick=0, channel=9, data=[42, 127]),
   midi.NoteOnEvent(tick=0, channel=9, data=[36, 127]),
   midi.NoteOnEvent(tick=40, channel=9, data=[36, 0]),
   midi.NoteOnEvent(tick=0, channel=9, data=[35, 127]),
   midi.NoteOnEvent(tick=40, channel=9, data=[35, 0]),
   midi.NoteOnEvent(tick=0, channel=9, data=[36, 127]),
   midi.NoteOnEvent(tick=40, channel=9, data=[42, 0]),
   midi.NoteOnEvent(tick=0, channel=9, data=[36, 0]),
   midi.NoteOnEvent(tick=0, channel=9, data=[42, 127]),
   midi.NoteOnEvent(tick=0, channel=9, data=[38, 127]),
   midi.NoteOnEvent(tick=120, channel=9, data=[42, 0]),
   midi.NoteOnEvent(tick=0, channel=9, data=[38, 0]),
   midi.NoteOnEvent(tick=0, channel=9, data=[42, 127]),
   midi.NoteOnEvent(tick=0, channel=9, data=[36, 127]),
   midi.NoteOnEvent(tick=40, channel=9, data=[36, 0]),
   midi.NoteOnEvent(tick=0, channel=9, data=[35, 127]),
   midi.NoteOnEvent(tick=40, channel=9, data=[35, 0]),
   midi.NoteOnEvent(tick=0, channel=9, data=[36, 127]),
   midi.NoteOnEvent(tick=40, channel=9, data=[42, 0]),
   midi.NoteOnEvent(tick=0, channel=9, data=[36, 0]),
   midi.NoteOnEvent(tick=0, channel=9, data=[38, 127]),
   midi.NoteOnEvent(tick=0, channel=9, data=[42, 127]),
   midi.NoteOnEvent(tick=120, channel=9, data=[38, 0]),
   midi.NoteOnEvent(tick=0, channel=9, data=[42, 0]),
   midi.NoteOnEvent(tick=0, channel=9, data=[42, 127]),
   midi.NoteOnEvent(tick=0, channel=9, data=[36, 127]),
   midi.NoteOnEvent(tick=40, channel=9, data=[36, 0]),
   midi.NoteOnEvent(tick=0, channel=9, data=[35, 127]),
   midi.NoteOnEvent(tick=40, channel=9, data=[35, 0]),
   midi.NoteOnEvent(tick=0, channel=9, data=[36, 127]),
   midi.NoteOnEvent(tick=40, channel=9, data=[42, 0]),
   midi.NoteOnEvent(tick=0, channel=9, data=[36, 0]),
   midi.NoteOnEvent(tick=0, channel=9, data=[57, 127]),
   midi.NoteOnEvent(tick=0, channel=9, data=[38, 127]),
   midi.NoteOnEvent(tick=120, channel=9, data=[57, 0]),
   midi.NoteOnEvent(tick=0, channel=9, data=[38, 0]),
   midi.NoteOnEvent(tick=0, channel=9, data=[42, 127]),
   midi.NoteOnEvent(tick=0, channel=9, data=[36, 127]),
   midi.NoteOnEvent(tick=40, channel=9, data=[36, 0]),
   midi.NoteOnEvent(tick=0, channel=9, data=[35, 127]),
   midi.NoteOnEvent(tick=40, channel=9, data=[35, 0]),
   midi.NoteOnEvent(tick=0, channel=9, data=[36, 127]),
   midi.NoteOnEvent(tick=40, channel=9, data=[42, 0]),
   midi.NoteOnEvent(tick=0, channel=9, data=[36, 0]),
   midi.NoteOnEvent(tick=0, channel=9, data=[57, 127]),
   midi.NoteOnEvent(tick=0, channel=9, data=[38, 127]),
   midi.NoteOnEvent(tick=120, channel=9, data=[57, 0]),
   midi.NoteOnEvent(tick=0, channel=9, data=[38, 0]),
   midi.NoteOnEvent(tick=0, channel=9, data=[42, 127]),
   midi.NoteOnEvent(tick=0, channel=9, data=[36, 127]),
   midi.NoteOnEvent(tick=40, channel=9, data=[36, 0]),
   midi.NoteOnEvent(tick=0, channel=9, data=[35, 127]),
   midi.NoteOnEvent(tick=40, channel=9, data=[35, 0]),
   midi.NoteOnEvent(tick=0, channel=9, data=[36, 127]),
   midi.NoteOnEvent(tick=40, channel=9, data=[42, 0]),
   midi.NoteOnEvent(tick=0, channel=9, data=[36, 0]),
   midi.NoteOnEvent(tick=0, channel=9, data=[57, 127]),
   midi.NoteOnEvent(tick=0, channel=9, data=[38, 127]),
   midi.NoteOnEvent(tick=120, channel=9, data=[57, 0]),
   midi.NoteOnEvent(tick=0, channel=9, data=[38, 0]),
   midi.NoteOnEvent(tick=0, channel=9, data=[57, 127]),
   midi.NoteOnEvent(tick=0, channel=9, data=[36, 127]),
   midi.NoteOnEvent(tick=120, channel=9, data=[57, 0]),
   midi.NoteOnEvent(tick=0, channel=9, data=[36, 0]),
   midi.NoteOnEvent(tick=0, channel=9, data=[38, 127]),
   midi.NoteOnEvent(tick=0, channel=9, data=[42, 127]),
   midi.NoteOnEvent(tick=120, channel=9, data=[38, 0]),
   midi.NoteOnEvent(tick=0, channel=9, data=[42, 0]),
   midi.NoteOnEvent(tick=0, channel=9, data=[42, 127]),
   midi.NoteOnEvent(tick=0, channel=9, data=[36, 127]),
   midi.NoteOnEvent(tick=40, channel=9, data=[36, 0]),
   midi.NoteOnEvent(tick=0, channel=9, data=[35, 127]),
   midi.NoteOnEvent(tick=40, channel=9, data=[35, 0]),
   midi.NoteOnEvent(tick=0, channel=9, data=[36, 127]),
   midi.NoteOnEvent(tick=40, channel=9, data=[42, 0]),
   midi.NoteOnEvent(tick=0, channel=9, data=[36, 0]),
   midi.NoteOnEvent(tick=0, channel=9, data=[42, 127]),
   midi.NoteOnEvent(tick=0, channel=9, data=[38, 127]),
   midi.NoteOnEvent(tick=120, channel=9, data=[42, 0]),
   midi.NoteOnEvent(tick=0, channel=9, data=[38, 0]),
   midi.NoteOnEvent(tick=0, channel=9, data=[42, 127]),
   midi.NoteOnEvent(tick=0, channel=9, data=[36, 127]),
   midi.NoteOnEvent(tick=40, channel=9, data=[36, 0]),
   midi.NoteOnEvent(tick=0, channel=9, data=[35, 127]),
   midi.NoteOnEvent(tick=40, channel=9, data=[35, 0]),
   midi.NoteOnEvent(tick=0, channel=9, data=[36, 127]),
   midi.NoteOnEvent(tick=40, channel=9, data=[42, 0]),
   midi.NoteOnEvent(tick=0, channel=9, data=[36, 0]),
   midi.NoteOnEvent(tick=0, channel=9, data=[38, 127]),
   midi.NoteOnEvent(tick=0, channel=9, data=[42, 127]),
   midi.NoteOnEvent(tick=120, channel=9, data=[38, 0]),
   midi.NoteOnEvent(tick=0, channel=9, data=[42, 0]),
   midi.NoteOnEvent(tick=0, channel=9, data=[42, 127]),
   midi.NoteOnEvent(tick=0, channel=9, data=[36, 127]),
   midi.NoteOnEvent(tick=40, channel=9, data=[36, 0]),
   midi.NoteOnEvent(tick=0, channel=9, data=[35, 127]),
   midi.NoteOnEvent(tick=40, channel=9, data=[35, 0]),
   midi.NoteOnEvent(tick=0, channel=9, data=[36, 127]),
   midi.NoteOnEvent(tick=40, channel=9, data=[42, 0]),
   midi.NoteOnEvent(tick=0, channel=9, data=[36, 0]),
   midi.NoteOnEvent(tick=0, channel=9, data=[57, 127]),
   midi.NoteOnEvent(tick=0, channel=9, data=[38, 127]),
   midi.NoteOnEvent(tick=120, channel=9, data=[57, 0]),
   midi.NoteOnEvent(tick=0, channel=9, data=[38, 0]),
   midi.NoteOnEvent(tick=0, channel=9, data=[42, 127]),
   midi.NoteOnEvent(tick=0, channel=9, data=[36, 127]),
   midi.NoteOnEvent(tick=40, channel=9, data=[36, 0]),
   midi.NoteOnEvent(tick=0, channel=9, data=[35, 127]),
   midi.NoteOnEvent(tick=40, channel=9, data=[35, 0]),
   midi.NoteOnEvent(tick=0, channel=9, data=[36, 127]),
   midi.NoteOnEvent(tick=40, channel=9, data=[42, 0]),
   midi.NoteOnEvent(tick=0, channel=9, data=[36, 0]),
   midi.NoteOnEvent(tick=0, channel=9, data=[38, 127]),
   midi.NoteOnEvent(tick=0, channel=9, data=[42, 127]),
   midi.NoteOnEvent(tick=120, channel=9, data=[38, 0]),
   midi.NoteOnEvent(tick=0, channel=9, data=[42, 0]),
   midi.NoteOnEvent(tick=0, channel=9, data=[42, 127]),
   midi.NoteOnEvent(tick=0, channel=9, data=[36, 127]),
   midi.NoteOnEvent(tick=40, channel=9, data=[36, 0]),
   midi.NoteOnEvent(tick=0, channel=9, data=[35, 127]),
   midi.NoteOnEvent(tick=40, channel=9, data=[35, 0]),
   midi.NoteOnEvent(tick=0, channel=9, data=[36, 127]),
   midi.NoteOnEvent(tick=40, channel=9, data=[42, 0]),
   midi.NoteOnEvent(tick=0, channel=9, data=[36, 0]),
   midi.NoteOnEvent(tick=0, channel=9, data=[42, 127]),
   midi.NoteOnEvent(tick=0, channel=9, data=[38, 127]),
   midi.NoteOnEvent(tick=120, channel=9, data=[42, 0]),
   midi.NoteOnEvent(tick=0, channel=9, data=[38, 0]),
   midi.NoteOnEvent(tick=0, channel=9, data=[42, 127]),
   midi.NoteOnEvent(tick=0, channel=9, data=[36, 127]),
   midi.NoteOnEvent(tick=40, channel=9, data=[36, 0]),
   midi.NoteOnEvent(tick=0, channel=9, data=[35, 127]),
   midi.NoteOnEvent(tick=40, channel=9, data=[35, 0]),
   midi.NoteOnEvent(tick=0, channel=9, data=[36, 127]),
   midi.NoteOnEvent(tick=40, channel=9, data=[42, 0]),
   midi.NoteOnEvent(tick=0, channel=9, data=[36, 0]),
   midi.NoteOnEvent(tick=0, channel=9, data=[38, 127]),
   midi.NoteOnEvent(tick=0, channel=9, data=[42, 127]),
   midi.NoteOnEvent(tick=120, channel=9, data=[38, 0]),
   midi.NoteOnEvent(tick=0, channel=9, data=[42, 0]),
   midi.NoteOnEvent(tick=0, channel=9, data=[42, 127]),
   midi.NoteOnEvent(tick=0, channel=9, data=[36, 127]),
   midi.NoteOnEvent(tick=40, channel=9, data=[36, 0]),
   midi.NoteOnEvent(tick=0, channel=9, data=[35, 127]),
   midi.NoteOnEvent(tick=40, channel=9, data=[35, 0]),
   midi.NoteOnEvent(tick=0, channel=9, data=[36, 127]),
   midi.NoteOnEvent(tick=40, channel=9, data=[42, 0]),
   midi.NoteOnEvent(tick=0, channel=9, data=[36, 0]),
   midi.NoteOnEvent(tick=0, channel=9, data=[57, 127]),
   midi.NoteOnEvent(tick=0, channel=9, data=[38, 127]),
   midi.NoteOnEvent(tick=120, channel=9, data=[57, 0]),
   midi.NoteOnEvent(tick=0, channel=9, data=[38, 0]),
   midi.NoteOnEvent(tick=0, channel=9, data=[42, 127]),
   midi.NoteOnEvent(tick=0, channel=9, data=[36, 127]),
   midi.NoteOnEvent(tick=40, channel=9, data=[36, 0]),
   midi.NoteOnEvent(tick=0, channel=9, data=[35, 127]),
   midi.NoteOnEvent(tick=40, channel=9, data=[35, 0]),
   midi.NoteOnEvent(tick=0, channel=9, data=[36, 127]),
   midi.NoteOnEvent(tick=40, channel=9, data=[42, 0]),
   midi.NoteOnEvent(tick=0, channel=9, data=[36, 0]),
   midi.NoteOnEvent(tick=0, channel=9, data=[38, 127]),
   midi.NoteOnEvent(tick=0, channel=9, data=[42, 127]),
   midi.NoteOnEvent(tick=120, channel=9, data=[38, 0]),
   midi.NoteOnEvent(tick=0, channel=9, data=[42, 0]),
   midi.NoteOnEvent(tick=0, channel=9, data=[42, 127]),
   midi.NoteOnEvent(tick=0, channel=9, data=[36, 127]),
   midi.NoteOnEvent(tick=40, channel=9, data=[36, 0]),
   midi.NoteOnEvent(tick=0, channel=9, data=[35, 127]),
   midi.NoteOnEvent(tick=40, channel=9, data=[35, 0]),
   midi.NoteOnEvent(tick=0, channel=9, data=[36, 127]),
   midi.NoteOnEvent(tick=40, channel=9, data=[42, 0]),
   midi.NoteOnEvent(tick=0, channel=9, data=[36, 0]),
   midi.NoteOnEvent(tick=0, channel=9, data=[42, 127]),
   midi.NoteOnEvent(tick=0, channel=9, data=[38, 127]),
   midi.NoteOnEvent(tick=120, channel=9, data=[42, 0]),
   midi.NoteOnEvent(tick=0, channel=9, data=[38, 0]),
   midi.NoteOnEvent(tick=0, channel=9, data=[42, 127]),
   midi.NoteOnEvent(tick=0, channel=9, data=[36, 127]),
   midi.NoteOnEvent(tick=40, channel=9, data=[36, 0]),
   midi.NoteOnEvent(tick=0, channel=9, data=[35, 127]),
   midi.NoteOnEvent(tick=40, channel=9, data=[35, 0]),
   midi.NoteOnEvent(tick=0, channel=9, data=[36, 127]),
   midi.NoteOnEvent(tick=40, channel=9, data=[42, 0]),
   midi.NoteOnEvent(tick=0, channel=9, data=[36, 0]),
   midi.NoteOnEvent(tick=0, channel=9, data=[38, 127]),
   midi.NoteOnEvent(tick=0, channel=9, data=[42, 127]),
   midi.NoteOnEvent(tick=120, channel=9, data=[38, 0]),
   midi.NoteOnEvent(tick=0, channel=9, data=[42, 0]),
   midi.NoteOnEvent(tick=0, channel=9, data=[42, 127]),
   midi.NoteOnEvent(tick=0, channel=9, data=[36, 127]),
   midi.NoteOnEvent(tick=40, channel=9, data=[36, 0]),
   midi.NoteOnEvent(tick=0, channel=9, data=[35, 127]),
   midi.NoteOnEvent(tick=40, channel=9, data=[35, 0]),
   midi.NoteOnEvent(tick=0, channel=9, data=[36, 127]),
   midi.NoteOnEvent(tick=40, channel=9, data=[42, 0]),
   midi.NoteOnEvent(tick=0, channel=9, data=[36, 0]),
   midi.NoteOnEvent(tick=0, channel=9, data=[57, 127]),
   midi.NoteOnEvent(tick=0, channel=9, data=[38, 127]),
   midi.NoteOnEvent(tick=120, channel=9, data=[57, 0]),
   midi.NoteOnEvent(tick=0, channel=9, data=[38, 0]),
   midi.NoteOnEvent(tick=0, channel=9, data=[36, 127]),
   midi.NoteOnEvent(tick=0, channel=9, data=[42, 127]),
   midi.NoteOnEvent(tick=60, channel=9, data=[36, 0]),
   midi.NoteOnEvent(tick=0, channel=9, data=[36, 127]),
   midi.NoteOnEvent(tick=60, channel=9, data=[42, 0]),
   midi.NoteOnEvent(tick=0, channel=9, data=[36, 0]),
   midi.NoteOnEvent(tick=0, channel=9, data=[57, 127]),
   midi.NoteOnEvent(tick=0, channel=9, data=[38, 127]),
   midi.NoteOnEvent(tick=120, channel=9, data=[57, 0]),
   midi.NoteOnEvent(tick=0, channel=9, data=[38, 0]),
   midi.NoteOnEvent(tick=0, channel=9, data=[36, 127]),
   midi.NoteOnEvent(tick=0, channel=9, data=[42, 127]),
   midi.NoteOnEvent(tick=60, channel=9, data=[36, 0]),
   midi.NoteOnEvent(tick=0, channel=9, data=[36, 127]),
   midi.NoteOnEvent(tick=60, channel=9, data=[42, 0]),
   midi.NoteOnEvent(tick=0, channel=9, data=[36, 0]),
   midi.NoteOnEvent(tick=0, channel=9, data=[57, 127]),
   midi.NoteOnEvent(tick=0, channel=9, data=[38, 127]),
   midi.NoteOnEvent(tick=120, channel=9, data=[57, 0]),
   midi.NoteOnEvent(tick=0, channel=9, data=[38, 0]),
   midi.NoteOnEvent(tick=0, channel=9, data=[42, 127]),
   midi.NoteOnEvent(tick=0, channel=9, data=[36, 127]),
   midi.NoteOnEvent(tick=120, channel=9, data=[42, 0]),
   midi.NoteOnEvent(tick=0, channel=9, data=[36, 0]),
   midi.NoteOnEvent(tick=0, channel=9, data=[38, 127]),
   midi.NoteOnEvent(tick=0, channel=9, data=[42, 127]),
   midi.NoteOnEvent(tick=120, channel=9, data=[38, 0]),
   midi.NoteOnEvent(tick=0, channel=9, data=[42, 0]),
   midi.NoteOnEvent(tick=0, channel=9, data=[42, 127]),
   midi.NoteOnEvent(tick=0, channel=9, data=[36, 127]),
   midi.NoteOnEvent(tick=40, channel=9, data=[36, 0]),
   midi.NoteOnEvent(tick=0, channel=9, data=[35, 127]),
   midi.NoteOnEvent(tick=40, channel=9, data=[35, 0]),
   midi.NoteOnEvent(tick=0, channel=9, data=[36, 127]),
   midi.NoteOnEvent(tick=40, channel=9, data=[42, 0]),
   midi.NoteOnEvent(tick=0, channel=9, data=[36, 0]),
   midi.NoteOnEvent(tick=0, channel=9, data=[57, 127]),
   midi.NoteOnEvent(tick=0, channel=9, data=[38, 127]),
   midi.NoteOnEvent(tick=120, channel=9, data=[57, 0]),
   midi.NoteOnEvent(tick=0, channel=9, data=[38, 0]),
   midi.NoteOnEvent(tick=0, channel=9, data=[42, 127]),
   midi.NoteOnEvent(tick=0, channel=9, data=[36, 127]),
   midi.NoteOnEvent(tick=40, channel=9, data=[36, 0]),
   midi.NoteOnEvent(tick=0, channel=9, data=[35, 127]),
   midi.NoteOnEvent(tick=40, channel=9, data=[35, 0]),
   midi.NoteOnEvent(tick=0, channel=9, data=[36, 127]),
   midi.NoteOnEvent(tick=40, channel=9, data=[42, 0]),
   midi.NoteOnEvent(tick=0, channel=9, data=[36, 0]),
   midi.NoteOnEvent(tick=0, channel=9, data=[38, 127]),
   midi.NoteOnEvent(tick=0, channel=9, data=[42, 127]),
   midi.NoteOnEvent(tick=120, channel=9, data=[38, 0]),
   midi.NoteOnEvent(tick=0, channel=9, data=[42, 0]),
   midi.NoteOnEvent(tick=0, channel=9, data=[42, 127]),
   midi.NoteOnEvent(tick=0, channel=9, data=[36, 127]),
   midi.NoteOnEvent(tick=40, channel=9, data=[36, 0]),
   midi.NoteOnEvent(tick=0, channel=9, data=[35, 127]),
   midi.NoteOnEvent(tick=40, channel=9, data=[35, 0]),
   midi.NoteOnEvent(tick=0, channel=9, data=[36, 127]),
   midi.NoteOnEvent(tick=40, channel=9, data=[42, 0]),
   midi.NoteOnEvent(tick=0, channel=9, data=[36, 0]),
   midi.NoteOnEvent(tick=0, channel=9, data=[57, 127]),
   midi.NoteOnEvent(tick=0, channel=9, data=[38, 127]),
   midi.NoteOnEvent(tick=120, channel=9, data=[57, 0]),
   midi.NoteOnEvent(tick=0, channel=9, data=[38, 0]),
   midi.NoteOnEvent(tick=0, channel=9, data=[42, 127]),
   midi.NoteOnEvent(tick=0, channel=9, data=[36, 127]),
   midi.NoteOnEvent(tick=40, channel=9, data=[36, 0]),
   midi.NoteOnEvent(tick=0, channel=9, data=[35, 127]),
   midi.NoteOnEvent(tick=40, channel=9, data=[35, 0]),
   midi.NoteOnEvent(tick=0, channel=9, data=[36, 127]),
   midi.NoteOnEvent(tick=40, channel=9, data=[42, 0]),
   midi.NoteOnEvent(tick=0, channel=9, data=[36, 0]),
   midi.NoteOnEvent(tick=0, channel=9, data=[38, 127]),
   midi.NoteOnEvent(tick=0, channel=9, data=[42, 127]),
   midi.NoteOnEvent(tick=120, channel=9, data=[38, 0]),
   midi.NoteOnEvent(tick=0, channel=9, data=[42, 0]),
   midi.NoteOnEvent(tick=0, channel=9, data=[42, 127]),
   midi.NoteOnEvent(tick=0, channel=9, data=[36, 127]),
   midi.NoteOnEvent(tick=40, channel=9, data=[36, 0]),
   midi.NoteOnEvent(tick=0, channel=9, data=[35, 127]),
   midi.NoteOnEvent(tick=40, channel=9, data=[35, 0]),
   midi.NoteOnEvent(tick=0, channel=9, data=[36, 127]),
   midi.NoteOnEvent(tick=40, channel=9, data=[42, 0]),
   midi.NoteOnEvent(tick=0, channel=9, data=[36, 0]),
   midi.NoteOnEvent(tick=0, channel=9, data=[42, 127]),
   midi.NoteOnEvent(tick=0, channel=9, data=[38, 127]),
   midi.NoteOnEvent(tick=120, channel=9, data=[42, 0]),
   midi.NoteOnEvent(tick=0, channel=9, data=[38, 0]),
   midi.NoteOnEvent(tick=0, channel=9, data=[42, 127]),
   midi.NoteOnEvent(tick=0, channel=9, data=[36, 127]),
   midi.NoteOnEvent(tick=40, channel=9, data=[36, 0]),
   midi.NoteOnEvent(tick=0, channel=9, data=[35, 127]),
   midi.NoteOnEvent(tick=40, channel=9, data=[35, 0]),
   midi.NoteOnEvent(tick=0, channel=9, data=[36, 127]),
   midi.NoteOnEvent(tick=40, channel=9, data=[42, 0]),
   midi.NoteOnEvent(tick=0, channel=9, data=[36, 0]),
   midi.NoteOnEvent(tick=0, channel=9, data=[38, 127]),
   midi.NoteOnEvent(tick=0, channel=9, data=[42, 127]),
   midi.NoteOnEvent(tick=120, channel=9, data=[38, 0]),
   midi.NoteOnEvent(tick=0, channel=9, data=[42, 0]),
   midi.NoteOnEvent(tick=0, channel=9, data=[42, 127]),
   midi.NoteOnEvent(tick=0, channel=9, data=[36, 127]),
   midi.NoteOnEvent(tick=40, channel=9, data=[36, 0]),
   midi.NoteOnEvent(tick=0, channel=9, data=[35, 127]),
   midi.NoteOnEvent(tick=40, channel=9, data=[35, 0]),
   midi.NoteOnEvent(tick=0, channel=9, data=[36, 127]),
   midi.NoteOnEvent(tick=40, channel=9, data=[42, 0]),
   midi.NoteOnEvent(tick=0, channel=9, data=[36, 0]),
   midi.NoteOnEvent(tick=0, channel=9, data=[57, 127]),
   midi.NoteOnEvent(tick=0, channel=9, data=[38, 127]),
   midi.NoteOnEvent(tick=120, channel=9, data=[57, 0]),
   midi.NoteOnEvent(tick=0, channel=9, data=[38, 0]),
   midi.NoteOnEvent(tick=0, channel=9, data=[42, 127]),
   midi.NoteOnEvent(tick=0, channel=9, data=[36, 127]),
   midi.NoteOnEvent(tick=40, channel=9, data=[36, 0]),
   midi.NoteOnEvent(tick=0, channel=9, data=[35, 127]),
   midi.NoteOnEvent(tick=40, channel=9, data=[35, 0]),
   midi.NoteOnEvent(tick=0, channel=9, data=[36, 127]),
   midi.NoteOnEvent(tick=40, channel=9, data=[42, 0]),
   midi.NoteOnEvent(tick=0, channel=9, data=[36, 0]),
   midi.NoteOnEvent(tick=0, channel=9, data=[38, 127]),
   midi.NoteOnEvent(tick=0, channel=9, data=[42, 127]),
   midi.NoteOnEvent(tick=120, channel=9, data=[38, 0]),
   midi.NoteOnEvent(tick=0, channel=9, data=[42, 0]),
   midi.NoteOnEvent(tick=0, channel=9, data=[42, 127]),
   midi.NoteOnEvent(tick=0, channel=9, data=[36, 127]),
   midi.NoteOnEvent(tick=40, channel=9, data=[36, 0]),
   midi.NoteOnEvent(tick=0, channel=9, data=[35, 127]),
   midi.NoteOnEvent(tick=40, channel=9, data=[35, 0]),
   midi.NoteOnEvent(tick=0, channel=9, data=[36, 127]),
   midi.NoteOnEvent(tick=40, channel=9, data=[42, 0]),
   midi.NoteOnEvent(tick=0, channel=9, data=[36, 0]),
   midi.NoteOnEvent(tick=0, channel=9, data=[42, 127]),
   midi.NoteOnEvent(tick=0, channel=9, data=[38, 127]),
   midi.NoteOnEvent(tick=120, channel=9, data=[42, 0]),
   midi.NoteOnEvent(tick=0, channel=9, data=[38, 0]),
   midi.NoteOnEvent(tick=0, channel=9, data=[42, 127]),
   midi.NoteOnEvent(tick=0, channel=9, data=[36, 127]),
   midi.NoteOnEvent(tick=40, channel=9, data=[36, 0]),
   midi.NoteOnEvent(tick=0, channel=9, data=[35, 127]),
   midi.NoteOnEvent(tick=40, channel=9, data=[35, 0]),
   midi.NoteOnEvent(tick=0, channel=9, data=[36, 127]),
   midi.NoteOnEvent(tick=40, channel=9, data=[42, 0]),
   midi.NoteOnEvent(tick=0, channel=9, data=[36, 0]),
   midi.NoteOnEvent(tick=0, channel=9, data=[38, 127]),
   midi.NoteOnEvent(tick=0, channel=9, data=[42, 127]),
   midi.NoteOnEvent(tick=120, channel=9, data=[38, 0]),
   midi.NoteOnEvent(tick=0, channel=9, data=[42, 0]),
   midi.NoteOnEvent(tick=0, channel=9, data=[42, 127]),
   midi.NoteOnEvent(tick=0, channel=9, data=[36, 127]),
   midi.NoteOnEvent(tick=40, channel=9, data=[36, 0]),
   midi.NoteOnEvent(tick=0, channel=9, data=[35, 127]),
   midi.NoteOnEvent(tick=40, channel=9, data=[35, 0]),
   midi.NoteOnEvent(tick=0, channel=9, data=[36, 127]),
   midi.NoteOnEvent(tick=40, channel=9, data=[42, 0]),
   midi.NoteOnEvent(tick=0, channel=9, data=[36, 0]),
   midi.NoteOnEvent(tick=0, channel=9, data=[57, 127]),
   midi.NoteOnEvent(tick=0, channel=9, data=[38, 127]),
   midi.NoteOnEvent(tick=120, channel=9, data=[57, 0]),
   midi.NoteOnEvent(tick=0, channel=9, data=[38, 0]),
   midi.NoteOnEvent(tick=0, channel=9, data=[42, 127]),
   midi.NoteOnEvent(tick=0, channel=9, data=[36, 127]),
   midi.NoteOnEvent(tick=60, channel=9, data=[36, 0]),
   midi.NoteOnEvent(tick=0, channel=9, data=[36, 127]),
   midi.NoteOnEvent(tick=60, channel=9, data=[42, 0]),
   midi.NoteOnEvent(tick=0, channel=9, data=[36, 0]),
   midi.NoteOnEvent(tick=0, channel=9, data=[57, 127]),
   midi.NoteOnEvent(tick=0, channel=9, data=[38, 127]),
   midi.NoteOnEvent(tick=120, channel=9, data=[57, 0]),
   midi.NoteOnEvent(tick=0, channel=9, data=[38, 0]),
   midi.NoteOnEvent(tick=0, channel=9, data=[42, 127]),
   midi.NoteOnEvent(tick=0, channel=9, data=[36, 127]),
   midi.NoteOnEvent(tick=60, channel=9, data=[36, 0]),
   midi.NoteOnEvent(tick=0, channel=9, data=[36, 127]),
   midi.NoteOnEvent(tick=60, channel=9, data=[42, 0]),
   midi.NoteOnEvent(tick=0, channel=9, data=[36, 0]),
   midi.NoteOnEvent(tick=0, channel=9, data=[57, 127]),
   midi.NoteOnEvent(tick=0, channel=9, data=[38, 127]),
   midi.NoteOnEvent(tick=120, channel=9, data=[57, 0]),
   midi.NoteOnEvent(tick=0, channel=9, data=[38, 0]),
   midi.NoteOnEvent(tick=0, channel=9, data=[36, 127]),
   midi.NoteOnEvent(tick=0, channel=9, data=[57, 127]),
   midi.NoteOnEvent(tick=120, channel=9, data=[36, 0]),
   midi.NoteOnEvent(tick=0, channel=9, data=[57, 0]),
   midi.NoteOnEvent(tick=0, channel=9, data=[42, 127]),
   midi.NoteOnEvent(tick=0, channel=9, data=[38, 127]),
   midi.NoteOnEvent(tick=120, channel=9, data=[42, 0]),
   midi.NoteOnEvent(tick=0, channel=9, data=[38, 0]),
   midi.NoteOnEvent(tick=0, channel=9, data=[42, 127]),
   midi.NoteOnEvent(tick=0, channel=9, data=[36, 127]),
   midi.NoteOnEvent(tick=60, channel=9, data=[36, 0]),
   midi.NoteOnEvent(tick=0, channel=9, data=[36, 127]),
   midi.NoteOnEvent(tick=60, channel=9, data=[42, 0]),
   midi.NoteOnEvent(tick=0, channel=9, data=[36, 0]),
   midi.NoteOnEvent(tick=0, channel=9, data=[38, 127]),
   midi.NoteOnEvent(tick=0, channel=9, data=[42, 127]),
   midi.NoteOnEvent(tick=120, channel=9, data=[38, 0]),
   midi.NoteOnEvent(tick=0, channel=9, data=[42, 0]),
   midi.NoteOnEvent(tick=0, channel=9, data=[36, 127]),
   midi.NoteOnEvent(tick=0, channel=9, data=[42, 127]),
   midi.NoteOnEvent(tick=60, channel=9, data=[36, 0]),
   midi.NoteOnEvent(tick=0, channel=9, data=[36, 127]),
   midi.NoteOnEvent(tick=60, channel=9, data=[42, 0]),
   midi.NoteOnEvent(tick=0, channel=9, data=[36, 0]),
   midi.NoteOnEvent(tick=0, channel=9, data=[38, 127]),
   midi.NoteOnEvent(tick=0, channel=9, data=[42, 127]),
   midi.NoteOnEvent(tick=120, channel=9, data=[38, 0]),
   midi.NoteOnEvent(tick=0, channel=9, data=[42, 0]),
   midi.NoteOnEvent(tick=0, channel=9, data=[36, 127]),
   midi.NoteOnEvent(tick=0, channel=9, data=[42, 127]),
   midi.NoteOnEvent(tick=60, channel=9, data=[36, 0]),
   midi.NoteOnEvent(tick=0, channel=9, data=[36, 127]),
   midi.NoteOnEvent(tick=60, channel=9, data=[42, 0]),
   midi.NoteOnEvent(tick=0, channel=9, data=[36, 0]),
   midi.NoteOnEvent(tick=0, channel=9, data=[38, 127]),
   midi.NoteOnEvent(tick=0, channel=9, data=[42, 127]),
   midi.NoteOnEvent(tick=120, channel=9, data=[38, 0]),
   midi.NoteOnEvent(tick=0, channel=9, data=[42, 0]),
   midi.NoteOnEvent(tick=0, channel=9, data=[36, 127]),
   midi.NoteOnEvent(tick=0, channel=9, data=[42, 127]),
   midi.NoteOnEvent(tick=60, channel=9, data=[36, 0]),
   midi.NoteOnEvent(tick=0, channel=9, data=[36, 127]),
   midi.NoteOnEvent(tick=60, channel=9, data=[42, 0]),
   midi.NoteOnEvent(tick=0, channel=9, data=[36, 0]),
   midi.NoteOnEvent(tick=0, channel=9, data=[57, 127]),
   midi.NoteOnEvent(tick=0, channel=9, data=[38, 127]),
   midi.NoteOnEvent(tick=120, channel=9, data=[57, 0]),
   midi.NoteOnEvent(tick=0, channel=9, data=[38, 0]),
   midi.NoteOnEvent(tick=0, channel=9, data=[36, 127]),
   midi.NoteOnEvent(tick=0, channel=9, data=[42, 127]),
   midi.NoteOnEvent(tick=60, channel=9, data=[36, 0]),
   midi.NoteOnEvent(tick=0, channel=9, data=[36, 127]),
   midi.NoteOnEvent(tick=60, channel=9, data=[42, 0]),
   midi.NoteOnEvent(tick=0, channel=9, data=[36, 0]),
   midi.NoteOnEvent(tick=0, channel=9, data=[38, 127]),
   midi.NoteOnEvent(tick=0, channel=9, data=[42, 127]),
   midi.NoteOnEvent(tick=120, channel=9, data=[38, 0]),
   midi.NoteOnEvent(tick=0, channel=9, data=[42, 0]),
   midi.NoteOnEvent(tick=0, channel=9, data=[36, 127]),
   midi.NoteOnEvent(tick=0, channel=9, data=[42, 127]),
   midi.NoteOnEvent(tick=60, channel=9, data=[36, 0]),
   midi.NoteOnEvent(tick=0, channel=9, data=[36, 127]),
   midi.NoteOnEvent(tick=60, channel=9, data=[42, 0]),
   midi.NoteOnEvent(tick=0, channel=9, data=[36, 0]),
   midi.NoteOnEvent(tick=0, channel=9, data=[38, 127]),
   midi.NoteOnEvent(tick=0, channel=9, data=[42, 127]),
   midi.NoteOnEvent(tick=120, channel=9, data=[38, 0]),
   midi.NoteOnEvent(tick=0, channel=9, data=[42, 0]),
   midi.NoteOnEvent(tick=0, channel=9, data=[36, 127]),
   midi.NoteOnEvent(tick=0, channel=9, data=[42, 127]),
   midi.NoteOnEvent(tick=60, channel=9, data=[36, 0]),
   midi.NoteOnEvent(tick=0, channel=9, data=[36, 127]),
   midi.NoteOnEvent(tick=60, channel=9, data=[42, 0]),
   midi.NoteOnEvent(tick=0, channel=9, data=[36, 0]),
   midi.NoteOnEvent(tick=0, channel=9, data=[38, 127]),
   midi.NoteOnEvent(tick=0, channel=9, data=[42, 127]),
   midi.NoteOnEvent(tick=120, channel=9, data=[38, 0]),
   midi.NoteOnEvent(tick=0, channel=9, data=[42, 0]),
   midi.NoteOnEvent(tick=0, channel=9, data=[36, 127]),
   midi.NoteOnEvent(tick=0, channel=9, data=[42, 127]),
   midi.NoteOnEvent(tick=60, channel=9, data=[36, 0]),
   midi.NoteOnEvent(tick=0, channel=9, data=[36, 127]),
   midi.NoteOnEvent(tick=60, channel=9, data=[42, 0]),
   midi.NoteOnEvent(tick=0, channel=9, data=[36, 0]),
   midi.NoteOnEvent(tick=0, channel=9, data=[57, 127]),
   midi.NoteOnEvent(tick=0, channel=9, data=[38, 127]),
   midi.NoteOnEvent(tick=120, channel=9, data=[57, 0]),
   midi.NoteOnEvent(tick=0, channel=9, data=[38, 0]),
   midi.NoteOnEvent(tick=0, channel=9, data=[36, 127]),
   midi.NoteOnEvent(tick=0, channel=9, data=[42, 127]),
   midi.NoteOnEvent(tick=60, channel=9, data=[36, 0]),
   midi.NoteOnEvent(tick=0, channel=9, data=[36, 127]),
   midi.NoteOnEvent(tick=60, channel=9, data=[42, 0]),
   midi.NoteOnEvent(tick=0, channel=9, data=[36, 0]),
   midi.NoteOnEvent(tick=0, channel=9, data=[38, 127]),
   midi.NoteOnEvent(tick=0, channel=9, data=[42, 127]),
   midi.NoteOnEvent(tick=120, channel=9, data=[38, 0]),
   midi.NoteOnEvent(tick=0, channel=9, data=[42, 0]),
   midi.NoteOnEvent(tick=0, channel=9, data=[36, 127]),
   midi.NoteOnEvent(tick=0, channel=9, data=[42, 127]),
   midi.NoteOnEvent(tick=60, channel=9, data=[36, 0]),
   midi.NoteOnEvent(tick=0, channel=9, data=[36, 127]),
   midi.NoteOnEvent(tick=60, channel=9, data=[42, 0]),
   midi.NoteOnEvent(tick=0, channel=9, data=[36, 0]),
   midi.NoteOnEvent(tick=0, channel=9, data=[38, 127]),
   midi.NoteOnEvent(tick=0, channel=9, data=[42, 127]),
   midi.NoteOnEvent(tick=120, channel=9, data=[38, 0]),
   midi.NoteOnEvent(tick=0, channel=9, data=[42, 0]),
   midi.NoteOnEvent(tick=0, channel=9, data=[36, 127]),
   midi.NoteOnEvent(tick=0, channel=9, data=[42, 127]),
   midi.NoteOnEvent(tick=60, channel=9, data=[36, 0]),
   midi.NoteOnEvent(tick=0, channel=9, data=[36, 127]),
   midi.NoteOnEvent(tick=60, channel=9, data=[42, 0]),
   midi.NoteOnEvent(tick=0, channel=9, data=[36, 0]),
   midi.NoteOnEvent(tick=0, channel=9, data=[38, 127]),
   midi.NoteOnEvent(tick=0, channel=9, data=[42, 127]),
   midi.NoteOnEvent(tick=120, channel=9, data=[38, 0]),
   midi.NoteOnEvent(tick=0, channel=9, data=[42, 0]),
   midi.NoteOnEvent(tick=0, channel=9, data=[36, 127]),
   midi.NoteOnEvent(tick=0, channel=9, data=[42, 127]),
   midi.NoteOnEvent(tick=60, channel=9, data=[36, 0]),
   midi.NoteOnEvent(tick=0, channel=9, data=[36, 127]),
   midi.NoteOnEvent(tick=60, channel=9, data=[42, 0]),
   midi.NoteOnEvent(tick=0, channel=9, data=[36, 0]),
   midi.NoteOnEvent(tick=0, channel=9, data=[57, 127]),
   midi.NoteOnEvent(tick=0, channel=9, data=[38, 127]),
   midi.NoteOnEvent(tick=120, channel=9, data=[57, 0]),
   midi.NoteOnEvent(tick=0, channel=9, data=[38, 0]),
   midi.NoteOnEvent(tick=0, channel=9, data=[36, 127]),
   midi.NoteOnEvent(tick=0, channel=9, data=[42, 127]),
   midi.NoteOnEvent(tick=60, channel=9, data=[36, 0]),
   midi.NoteOnEvent(tick=0, channel=9, data=[36, 127]),
   midi.NoteOnEvent(tick=60, channel=9, data=[42, 0]),
   midi.NoteOnEvent(tick=0, channel=9, data=[36, 0]),
   midi.NoteOnEvent(tick=0, channel=9, data=[38, 127]),
   midi.NoteOnEvent(tick=0, channel=9, data=[42, 127]),
   midi.NoteOnEvent(tick=120, channel=9, data=[38, 0]),
   midi.NoteOnEvent(tick=0, channel=9, data=[42, 0]),
   midi.NoteOnEvent(tick=0, channel=9, data=[45, 127]),
   midi.NoteOnEvent(tick=0, channel=9, data=[36, 127]),
   midi.NoteOnEvent(tick=30, channel=9, data=[45, 0]),
   midi.NoteOnEvent(tick=0, channel=9, data=[45, 127]),
   midi.NoteOnEvent(tick=30, channel=9, data=[45, 0]),
   midi.NoteOnEvent(tick=0, channel=9, data=[45, 127]),
   midi.NoteOnEvent(tick=30, channel=9, data=[45, 0]),
   midi.NoteOnEvent(tick=0, channel=9, data=[45, 127]),
   midi.NoteOnEvent(tick=30, channel=9, data=[36, 0]),
   midi.NoteOnEvent(tick=0, channel=9, data=[45, 0]),
   midi.NoteOnEvent(tick=0, channel=9, data=[47, 127]),
   midi.NoteOnEvent(tick=0, channel=9, data=[36, 127]),
   midi.NoteOnEvent(tick=30, channel=9, data=[47, 0]),
   midi.NoteOnEvent(tick=0, channel=9, data=[47, 127]),
   midi.NoteOnEvent(tick=30, channel=9, data=[47, 0]),
   midi.NoteOnEvent(tick=0, channel=9, data=[47, 127]),
   midi.NoteOnEvent(tick=30, channel=9, data=[47, 0]),
   midi.NoteOnEvent(tick=0, channel=9, data=[47, 127]),
   midi.NoteOnEvent(tick=30, channel=9, data=[36, 0]),
   midi.NoteOnEvent(tick=0, channel=9, data=[47, 0]),
   midi.NoteOnEvent(tick=0, channel=9, data=[48, 127]),
   midi.NoteOnEvent(tick=0, channel=9, data=[36, 127]),
   midi.NoteOnEvent(tick=30, channel=9, data=[48, 0]),
   midi.NoteOnEvent(tick=0, channel=9, data=[48, 127]),
   midi.NoteOnEvent(tick=30, channel=9, data=[48, 0]),
   midi.NoteOnEvent(tick=0, channel=9, data=[48, 127]),
   midi.NoteOnEvent(tick=30, channel=9, data=[48, 0]),
   midi.NoteOnEvent(tick=0, channel=9, data=[48, 127]),
   midi.NoteOnEvent(tick=30, channel=9, data=[36, 0]),
   midi.NoteOnEvent(tick=0, channel=9, data=[48, 0]),
   midi.NoteOnEvent(tick=0, channel=9, data=[50, 127]),
   midi.NoteOnEvent(tick=30, channel=9, data=[50, 0]),
   midi.NoteOnEvent(tick=0, channel=9, data=[50, 127]),
   midi.NoteOnEvent(tick=30, channel=9, data=[50, 0]),
   midi.NoteOnEvent(tick=0, channel=9, data=[50, 127]),
   midi.NoteOnEvent(tick=30, channel=9, data=[50, 0]),
   midi.NoteOnEvent(tick=0, channel=9, data=[50, 127]),
   midi.NoteOnEvent(tick=30, channel=9, data=[50, 0]),
   midi.NoteOnEvent(tick=0, channel=9, data=[36, 127]),
   midi.NoteOnEvent(tick=0, channel=9, data=[57, 127]),
   midi.NoteOnEvent(tick=120, channel=9, data=[36, 0]),
   midi.NoteOnEvent(tick=0, channel=9, data=[57, 0]),
   midi.NoteOnEvent(tick=0, channel=9, data=[38, 127]),
   midi.NoteOnEvent(tick=0, channel=9, data=[57, 127]),
   midi.NoteOnEvent(tick=120, channel=9, data=[38, 0]),
   midi.NoteOnEvent(tick=0, channel=9, data=[57, 0]),
   midi.NoteOnEvent(tick=0, channel=9, data=[42, 127]),
   midi.NoteOnEvent(tick=0, channel=9, data=[36, 127]),
   midi.NoteOnEvent(tick=60, channel=9, data=[36, 0]),
   midi.NoteOnEvent(tick=0, channel=9, data=[36, 127]),
   midi.NoteOnEvent(tick=60, channel=9, data=[42, 0]),
   midi.NoteOnEvent(tick=0, channel=9, data=[36, 0]),
   midi.NoteOnEvent(tick=0, channel=9, data=[42, 127]),
   midi.NoteOnEvent(tick=0, channel=9, data=[38, 127]),
   midi.NoteOnEvent(tick=120, channel=9, data=[42, 0]),
   midi.NoteOnEvent(tick=0, channel=9, data=[38, 0]),
   midi.NoteOnEvent(tick=0, channel=9, data=[36, 127]),
   midi.NoteOnEvent(tick=0, channel=9, data=[42, 127]),
   midi.NoteOnEvent(tick=60, channel=9, data=[36, 0]),
   midi.NoteOnEvent(tick=0, channel=9, data=[36, 127]),
   midi.NoteOnEvent(tick=60, channel=9, data=[42, 0]),
   midi.NoteOnEvent(tick=0, channel=9, data=[36, 0]),
   midi.NoteOnEvent(tick=0, channel=9, data=[38, 127]),
   midi.NoteOnEvent(tick=0, channel=9, data=[42, 127]),
   midi.NoteOnEvent(tick=120, channel=9, data=[38, 0]),
   midi.NoteOnEvent(tick=0, channel=9, data=[42, 0]),
   midi.NoteOnEvent(tick=0, channel=9, data=[36, 127]),
   midi.NoteOnEvent(tick=0, channel=9, data=[42, 127]),
   midi.NoteOnEvent(tick=60, channel=9, data=[36, 0]),
   midi.NoteOnEvent(tick=0, channel=9, data=[36, 127]),
   midi.NoteOnEvent(tick=60, channel=9, data=[42, 0]),
   midi.NoteOnEvent(tick=0, channel=9, data=[36, 0]),
   midi.NoteOnEvent(tick=0, channel=9, data=[38, 127]),
   midi.NoteOnEvent(tick=0, channel=9, data=[42, 127]),
   midi.NoteOnEvent(tick=120, channel=9, data=[38, 0]),
   midi.NoteOnEvent(tick=0, channel=9, data=[42, 0]),
   midi.NoteOnEvent(tick=0, channel=9, data=[36, 127]),
   midi.NoteOnEvent(tick=0, channel=9, data=[42, 127]),
   midi.NoteOnEvent(tick=60, channel=9, data=[36, 0]),
   midi.NoteOnEvent(tick=0, channel=9, data=[36, 127]),
   midi.NoteOnEvent(tick=60, channel=9, data=[42, 0]),
   midi.NoteOnEvent(tick=0, channel=9, data=[36, 0]),
   midi.NoteOnEvent(tick=0, channel=9, data=[57, 127]),
   midi.NoteOnEvent(tick=0, channel=9, data=[38, 127]),
   midi.NoteOnEvent(tick=120, channel=9, data=[57, 0]),
   midi.NoteOnEvent(tick=0, channel=9, data=[38, 0]),
   midi.NoteOnEvent(tick=0, channel=9, data=[36, 127]),
   midi.NoteOnEvent(tick=0, channel=9, data=[42, 127]),
   midi.NoteOnEvent(tick=60, channel=9, data=[36, 0]),
   midi.NoteOnEvent(tick=0, channel=9, data=[36, 127]),
   midi.NoteOnEvent(tick=60, channel=9, data=[42, 0]),
   midi.NoteOnEvent(tick=0, channel=9, data=[36, 0]),
   midi.NoteOnEvent(tick=0, channel=9, data=[38, 127]),
   midi.NoteOnEvent(tick=0, channel=9, data=[42, 127]),
   midi.NoteOnEvent(tick=120, channel=9, data=[38, 0]),
   midi.NoteOnEvent(tick=0, channel=9, data=[42, 0]),
   midi.NoteOnEvent(tick=0, channel=9, data=[36, 127]),
   midi.NoteOnEvent(tick=0, channel=9, data=[42, 127]),
   midi.NoteOnEvent(tick=60, channel=9, data=[36, 0]),
   midi.NoteOnEvent(tick=0, channel=9, data=[36, 127]),
   midi.NoteOnEvent(tick=60, channel=9, data=[42, 0]),
   midi.NoteOnEvent(tick=0, channel=9, data=[36, 0]),
   midi.NoteOnEvent(tick=0, channel=9, data=[38, 127]),
   midi.NoteOnEvent(tick=0, channel=9, data=[42, 127]),
   midi.NoteOnEvent(tick=120, channel=9, data=[38, 0]),
   midi.NoteOnEvent(tick=0, channel=9, data=[42, 0]),
   midi.NoteOnEvent(tick=0, channel=9, data=[36, 127]),
   midi.NoteOnEvent(tick=0, channel=9, data=[42, 127]),
   midi.NoteOnEvent(tick=60, channel=9, data=[36, 0]),
   midi.NoteOnEvent(tick=0, channel=9, data=[36, 127]),
   midi.NoteOnEvent(tick=60, channel=9, data=[42, 0]),
   midi.NoteOnEvent(tick=0, channel=9, data=[36, 0]),
   midi.NoteOnEvent(tick=0, channel=9, data=[38, 127]),
   midi.NoteOnEvent(tick=0, channel=9, data=[42, 127]),
   midi.NoteOnEvent(tick=120, channel=9, data=[38, 0]),
   midi.NoteOnEvent(tick=0, channel=9, data=[42, 0]),
   midi.NoteOnEvent(tick=0, channel=9, data=[36, 127]),
   midi.NoteOnEvent(tick=0, channel=9, data=[42, 127]),
   midi.NoteOnEvent(tick=60, channel=9, data=[36, 0]),
   midi.NoteOnEvent(tick=0, channel=9, data=[36, 127]),
   midi.NoteOnEvent(tick=60, channel=9, data=[42, 0]),
   midi.NoteOnEvent(tick=0, channel=9, data=[36, 0]),
   midi.NoteOnEvent(tick=0, channel=9, data=[57, 127]),
   midi.NoteOnEvent(tick=0, channel=9, data=[38, 127]),
   midi.NoteOnEvent(tick=120, channel=9, data=[57, 0]),
   midi.NoteOnEvent(tick=0, channel=9, data=[38, 0]),
   midi.NoteOnEvent(tick=0, channel=9, data=[36, 127]),
   midi.NoteOnEvent(tick=0, channel=9, data=[42, 127]),
   midi.NoteOnEvent(tick=60, channel=9, data=[36, 0]),
   midi.NoteOnEvent(tick=0, channel=9, data=[36, 127]),
   midi.NoteOnEvent(tick=60, channel=9, data=[42, 0]),
   midi.NoteOnEvent(tick=0, channel=9, data=[36, 0]),
   midi.NoteOnEvent(tick=0, channel=9, data=[38, 127]),
   midi.NoteOnEvent(tick=0, channel=9, data=[42, 127]),
   midi.NoteOnEvent(tick=120, channel=9, data=[38, 0]),
   midi.NoteOnEvent(tick=0, channel=9, data=[42, 0]),
   midi.NoteOnEvent(tick=0, channel=9, data=[36, 127]),
   midi.NoteOnEvent(tick=0, channel=9, data=[57, 127]),
   midi.NoteOnEvent(tick=120, channel=9, data=[36, 0]),
   midi.NoteOnEvent(tick=0, channel=9, data=[57, 0]),
   midi.NoteOnEvent(tick=0, channel=9, data=[36, 127]),
   midi.NoteOnEvent(tick=0, channel=9, data=[38, 127]),
   midi.NoteOnEvent(tick=0, channel=9, data=[57, 127]),
   midi.NoteOnEvent(tick=120, channel=9, data=[36, 0]),
   midi.NoteOnEvent(tick=0, channel=9, data=[38, 0]),
   midi.NoteOnEvent(tick=0, channel=9, data=[57, 0]),
   midi.NoteOnEvent(tick=0, channel=9, data=[36, 127]),
   midi.NoteOnEvent(tick=0, channel=9, data=[57, 127]),
   midi.NoteOnEvent(tick=60, channel=9, data=[36, 0]),
   midi.NoteOnEvent(tick=0, channel=9, data=[36, 127]),
   midi.NoteOnEvent(tick=55, channel=9, data=[38, 75]),
   midi.NoteOnEvent(tick=5, channel=9, data=[57, 0]),
   midi.NoteOnEvent(tick=0, channel=9, data=[36, 0]),
   midi.NoteOnEvent(tick=0, channel=9, data=[38, 0]),
   midi.NoteOnEvent(tick=0, channel=9, data=[38, 127]),
   midi.NoteOnEvent(tick=120, channel=9, data=[38, 0]),
   midi.NoteOnEvent(tick=0, channel=9, data=[36, 127]),
   midi.NoteOnEvent(tick=0, channel=9, data=[57, 127]),
   midi.NoteOnEvent(tick=120, channel=9, data=[36, 0]),
   midi.NoteOnEvent(tick=0, channel=9, data=[57, 0]),
   midi.NoteOnEvent(tick=0, channel=9, data=[59, 127]),
   midi.NoteOnEvent(tick=60, channel=9, data=[36, 127]),
   midi.NoteOnEvent(tick=60, channel=9, data=[59, 0]),
   midi.NoteOnEvent(tick=0, channel=9, data=[36, 0]),
   midi.NoteOnEvent(tick=0, channel=9, data=[36, 127]),
   midi.NoteOnEvent(tick=0, channel=9, data=[38, 127]),
   midi.NoteOnEvent(tick=0, channel=9, data=[59, 127]),
   midi.NoteOnEvent(tick=120, channel=9, data=[36, 0]),
   midi.NoteOnEvent(tick=0, channel=9, data=[38, 0]),
   midi.NoteOnEvent(tick=0, channel=9, data=[59, 0]),
   midi.NoteOnEvent(tick=0, channel=9, data=[59, 127]),
   midi.NoteOnEvent(tick=120, channel=9, data=[59, 0]),
   midi.NoteOnEvent(tick=0, channel=9, data=[36, 127]),
   midi.NoteOnEvent(tick=0, channel=9, data=[59, 127]),
   midi.NoteOnEvent(tick=120, channel=9, data=[36, 0]),
   midi.NoteOnEvent(tick=0, channel=9, data=[59, 0]),
   midi.NoteOnEvent(tick=0, channel=9, data=[59, 127]),
   midi.NoteOnEvent(tick=0, channel=9, data=[36, 127]),
   midi.NoteOnEvent(tick=60, channel=9, data=[36, 0]),
   midi.NoteOnEvent(tick=0, channel=9, data=[36, 127]),
   midi.NoteOnEvent(tick=60, channel=9, data=[59, 0]),
   midi.NoteOnEvent(tick=0, channel=9, data=[36, 0]),
   midi.NoteOnEvent(tick=0, channel=9, data=[38, 127]),
   midi.NoteOnEvent(tick=0, channel=9, data=[59, 127]),
   midi.NoteOnEvent(tick=120, channel=9, data=[38, 0]),
   midi.NoteOnEvent(tick=0, channel=9, data=[59, 0]),
   midi.NoteOnEvent(tick=0, channel=9, data=[59, 127]),
   midi.NoteOnEvent(tick=120, channel=9, data=[59, 0]),
   midi.NoteOnEvent(tick=0, channel=9, data=[36, 127]),
   midi.NoteOnEvent(tick=0, channel=9, data=[59, 127]),
   midi.NoteOnEvent(tick=120, channel=9, data=[36, 0]),
   midi.NoteOnEvent(tick=0, channel=9, data=[59, 0]),
   midi.NoteOnEvent(tick=0, channel=9, data=[59, 127]),
   midi.NoteOnEvent(tick=60, channel=9, data=[36, 127]),
   midi.NoteOnEvent(tick=60, channel=9, data=[59, 0]),
   midi.NoteOnEvent(tick=0, channel=9, data=[36, 0]),
   midi.NoteOnEvent(tick=0, channel=9, data=[59, 127]),
   midi.NoteOnEvent(tick=0, channel=9, data=[38, 127]),
   midi.NoteOnEvent(tick=0, channel=9, data=[36, 127]),
   midi.NoteOnEvent(tick=120, channel=9, data=[59, 0]),
   midi.NoteOnEvent(tick=0, channel=9, data=[38, 0]),
   midi.NoteOnEvent(tick=0, channel=9, data=[36, 0]),
   midi.NoteOnEvent(tick=0, channel=9, data=[59, 127]),
   midi.NoteOnEvent(tick=120, channel=9, data=[59, 0]),
   midi.NoteOnEvent(tick=0, channel=9, data=[59, 127]),
   midi.NoteOnEvent(tick=0, channel=9, data=[36, 127]),
   midi.NoteOnEvent(tick=60, channel=9, data=[36, 0]),
   midi.NoteOnEvent(tick=0, channel=9, data=[36, 127]),
   midi.NoteOnEvent(tick=60, channel=9, data=[59, 0]),
   midi.NoteOnEvent(tick=0, channel=9, data=[36, 0]),
   midi.NoteOnEvent(tick=0, channel=9, data=[38, 127]),
   midi.NoteOnEvent(tick=0, channel=9, data=[57, 127]),
   midi.NoteOnEvent(tick=120, channel=9, data=[38, 0]),
   midi.NoteOnEvent(tick=0, channel=9, data=[57, 0]),
   midi.NoteOnEvent(tick=0, channel=9, data=[59, 127]),
   midi.NoteOnEvent(tick=0, channel=9, data=[36, 127]),
   midi.NoteOnEvent(tick=60, channel=9, data=[36, 0]),
   midi.NoteOnEvent(tick=0, channel=9, data=[36, 127]),
   midi.NoteOnEvent(tick=60, channel=9, data=[59, 0]),
   midi.NoteOnEvent(tick=0, channel=9, data=[36, 0]),
   midi.NoteOnEvent(tick=0, channel=9, data=[38, 127]),
   midi.NoteOnEvent(tick=0, channel=9, data=[57, 127]),
   midi.NoteOnEvent(tick=120, channel=9, data=[38, 0]),
   midi.NoteOnEvent(tick=0, channel=9, data=[57, 0]),
   midi.NoteOnEvent(tick=0, channel=9, data=[59, 127]),
   midi.NoteOnEvent(tick=0, channel=9, data=[36, 127]),
   midi.NoteOnEvent(tick=120, channel=9, data=[59, 0]),
   midi.NoteOnEvent(tick=0, channel=9, data=[36, 0]),
   midi.NoteOnEvent(tick=0, channel=9, data=[59, 127]),
   midi.NoteOnEvent(tick=60, channel=9, data=[36, 127]),
   midi.NoteOnEvent(tick=60, channel=9, data=[59, 0]),
   midi.NoteOnEvent(tick=0, channel=9, data=[36, 0]),
   midi.NoteOnEvent(tick=0, channel=9, data=[59, 127]),
   midi.NoteOnEvent(tick=0, channel=9, data=[38, 127]),
   midi.NoteOnEvent(tick=0, channel=9, data=[36, 127]),
   midi.NoteOnEvent(tick=120, channel=9, data=[59, 0]),
   midi.NoteOnEvent(tick=0, channel=9, data=[38, 0]),
   midi.NoteOnEvent(tick=0, channel=9, data=[36, 0]),
   midi.NoteOnEvent(tick=0, channel=9, data=[59, 127]),
   midi.NoteOnEvent(tick=120, channel=9, data=[59, 0]),
   midi.NoteOnEvent(tick=0, channel=9, data=[36, 127]),
   midi.NoteOnEvent(tick=0, channel=9, data=[59, 127]),
   midi.NoteOnEvent(tick=120, channel=9, data=[36, 0]),
   midi.NoteOnEvent(tick=0, channel=9, data=[59, 0]),
   midi.NoteOnEvent(tick=0, channel=9, data=[59, 127]),
   midi.NoteOnEvent(tick=0, channel=9, data=[36, 127]),
   midi.NoteOnEvent(tick=60, channel=9, data=[36, 0]),
   midi.NoteOnEvent(tick=0, channel=9, data=[36, 127]),
   midi.NoteOnEvent(tick=60, channel=9, data=[59, 0]),
   midi.NoteOnEvent(tick=0, channel=9, data=[36, 0]),
   midi.NoteOnEvent(tick=0, channel=9, data=[38, 127]),
   midi.NoteOnEvent(tick=0, channel=9, data=[59, 127]),
   midi.NoteOnEvent(tick=120, channel=9, data=[38, 0]),
   midi.NoteOnEvent(tick=0, channel=9, data=[59, 0]),
   midi.NoteOnEvent(tick=0, channel=9, data=[59, 127]),
   midi.NoteOnEvent(tick=120, channel=9, data=[59, 0]),
   midi.NoteOnEvent(tick=0, channel=9, data=[36, 127]),
   midi.NoteOnEvent(tick=0, channel=9, data=[57, 127]),
   midi.NoteOnEvent(tick=60, channel=9, data=[36, 0]),
   midi.NoteOnEvent(tick=0, channel=9, data=[36, 127]),
   midi.NoteOnEvent(tick=60, channel=9, data=[57, 0]),
   midi.NoteOnEvent(tick=0, channel=9, data=[36, 0]),
   midi.NoteOnEvent(tick=0, channel=9, data=[38, 127]),
   midi.NoteOnEvent(tick=0, channel=9, data=[57, 127]),
   midi.NoteOnEvent(tick=120, channel=9, data=[38, 0]),
   midi.NoteOnEvent(tick=0, channel=9, data=[57, 0]),
   midi.NoteOnEvent(tick=0, channel=9, data=[36, 127]),
   midi.NoteOnEvent(tick=0, channel=9, data=[57, 127]),
   midi.NoteOnEvent(tick=60, channel=9, data=[36, 0]),
   midi.NoteOnEvent(tick=0, channel=9, data=[36, 127]),
   midi.NoteOnEvent(tick=60, channel=9, data=[57, 0]),
   midi.NoteOnEvent(tick=0, channel=9, data=[36, 0]),
   midi.NoteOnEvent(tick=0, channel=9, data=[38, 127]),
   midi.NoteOnEvent(tick=0, channel=9, data=[57, 127]),
   midi.NoteOnEvent(tick=120, channel=9, data=[38, 0]),
   midi.NoteOnEvent(tick=0, channel=9, data=[57, 0]),
   midi.NoteOnEvent(tick=0, channel=9, data=[36, 127]),
   midi.NoteOnEvent(tick=0, channel=9, data=[57, 127]),
   midi.NoteOnEvent(tick=120, channel=9, data=[36, 0]),
   midi.NoteOnEvent(tick=0, channel=9, data=[57, 0]),
   midi.NoteOnEvent(tick=0, channel=9, data=[59, 127]),
   midi.NoteOnEvent(tick=60, channel=9, data=[36, 127]),
   midi.NoteOnEvent(tick=60, channel=9, data=[59, 0]),
   midi.NoteOnEvent(tick=0, channel=9, data=[36, 0]),
   midi.NoteOnEvent(tick=0, channel=9, data=[36, 127]),
   midi.NoteOnEvent(tick=0, channel=9, data=[38, 127]),
   midi.NoteOnEvent(tick=0, channel=9, data=[59, 127]),
   midi.NoteOnEvent(tick=120, channel=9, data=[36, 0]),
   midi.NoteOnEvent(tick=0, channel=9, data=[38, 0]),
   midi.NoteOnEvent(tick=0, channel=9, data=[59, 0]),
   midi.NoteOnEvent(tick=0, channel=9, data=[59, 127]),
   midi.NoteOnEvent(tick=120, channel=9, data=[59, 0]),
   midi.NoteOnEvent(tick=0, channel=9, data=[36, 127]),
   midi.NoteOnEvent(tick=0, channel=9, data=[59, 127]),
   midi.NoteOnEvent(tick=120, channel=9, data=[36, 0]),
   midi.NoteOnEvent(tick=0, channel=9, data=[59, 0]),
   midi.NoteOnEvent(tick=0, channel=9, data=[59, 127]),
   midi.NoteOnEvent(tick=0, channel=9, data=[36, 127]),
   midi.NoteOnEvent(tick=60, channel=9, data=[36, 0]),
   midi.NoteOnEvent(tick=0, channel=9, data=[36, 127]),
   midi.NoteOnEvent(tick=60, channel=9, data=[59, 0]),
   midi.NoteOnEvent(tick=0, channel=9, data=[36, 0]),
   midi.NoteOnEvent(tick=0, channel=9, data=[38, 127]),
   midi.NoteOnEvent(tick=0, channel=9, data=[59, 127]),
   midi.NoteOnEvent(tick=120, channel=9, data=[38, 0]),
   midi.NoteOnEvent(tick=0, channel=9, data=[59, 0]),
   midi.NoteOnEvent(tick=0, channel=9, data=[59, 127]),
   midi.NoteOnEvent(tick=120, channel=9, data=[59, 0]),
   midi.NoteOnEvent(tick=0, channel=9, data=[36, 127]),
   midi.NoteOnEvent(tick=0, channel=9, data=[59, 127]),
   midi.NoteOnEvent(tick=120, channel=9, data=[36, 0]),
   midi.NoteOnEvent(tick=0, channel=9, data=[59, 0]),
   midi.NoteOnEvent(tick=0, channel=9, data=[59, 127]),
   midi.NoteOnEvent(tick=60, channel=9, data=[36, 127]),
   midi.NoteOnEvent(tick=60, channel=9, data=[59, 0]),
   midi.NoteOnEvent(tick=0, channel=9, data=[36, 0]),
   midi.NoteOnEvent(tick=0, channel=9, data=[59, 127]),
   midi.NoteOnEvent(tick=0, channel=9, data=[38, 127]),
   midi.NoteOnEvent(tick=0, channel=9, data=[36, 127]),
   midi.NoteOnEvent(tick=120, channel=9, data=[59, 0]),
   midi.NoteOnEvent(tick=0, channel=9, data=[38, 0]),
   midi.NoteOnEvent(tick=0, channel=9, data=[36, 0]),
   midi.NoteOnEvent(tick=0, channel=9, data=[59, 127]),
   midi.NoteOnEvent(tick=120, channel=9, data=[59, 0]),
   midi.NoteOnEvent(tick=0, channel=9, data=[59, 127]),
   midi.NoteOnEvent(tick=0, channel=9, data=[36, 127]),
   midi.NoteOnEvent(tick=60, channel=9, data=[36, 0]),
   midi.NoteOnEvent(tick=0, channel=9, data=[36, 127]),
   midi.NoteOnEvent(tick=60, channel=9, data=[59, 0]),
   midi.NoteOnEvent(tick=0, channel=9, data=[36, 0]),
   midi.NoteOnEvent(tick=0, channel=9, data=[38, 127]),
   midi.NoteOnEvent(tick=0, channel=9, data=[57, 127]),
   midi.NoteOnEvent(tick=120, channel=9, data=[38, 0]),
   midi.NoteOnEvent(tick=0, channel=9, data=[57, 0]),
   midi.NoteOnEvent(tick=0, channel=9, data=[59, 127]),
   midi.NoteOnEvent(tick=0, channel=9, data=[36, 127]),
   midi.NoteOnEvent(tick=60, channel=9, data=[36, 0]),
   midi.NoteOnEvent(tick=0, channel=9, data=[36, 127]),
   midi.NoteOnEvent(tick=60, channel=9, data=[59, 0]),
   midi.NoteOnEvent(tick=0, channel=9, data=[36, 0]),
   midi.NoteOnEvent(tick=0, channel=9, data=[38, 127]),
   midi.NoteOnEvent(tick=0, channel=9, data=[57, 127]),
   midi.NoteOnEvent(tick=120, channel=9, data=[38, 0]),
   midi.NoteOnEvent(tick=0, channel=9, data=[57, 0]),
   midi.NoteOnEvent(tick=0, channel=9, data=[59, 127]),
   midi.NoteOnEvent(tick=0, channel=9, data=[36, 127]),
   midi.NoteOnEvent(tick=120, channel=9, data=[59, 0]),
   midi.NoteOnEvent(tick=0, channel=9, data=[36, 0]),
   midi.NoteOnEvent(tick=0, channel=9, data=[59, 127]),
   midi.NoteOnEvent(tick=60, channel=9, data=[36, 127]),
   midi.NoteOnEvent(tick=60, channel=9, data=[59, 0]),
   midi.NoteOnEvent(tick=0, channel=9, data=[36, 0]),
   midi.NoteOnEvent(tick=0, channel=9, data=[59, 127]),
   midi.NoteOnEvent(tick=0, channel=9, data=[38, 127]),
   midi.NoteOnEvent(tick=0, channel=9, data=[36, 127]),
   midi.NoteOnEvent(tick=120, channel=9, data=[59, 0]),
   midi.NoteOnEvent(tick=0, channel=9, data=[38, 0]),
   midi.NoteOnEvent(tick=0, channel=9, data=[36, 0]),
   midi.NoteOnEvent(tick=0, channel=9, data=[59, 127]),
   midi.NoteOnEvent(tick=120, channel=9, data=[59, 0]),
   midi.NoteOnEvent(tick=0, channel=9, data=[36, 127]),
   midi.NoteOnEvent(tick=0, channel=9, data=[59, 127]),
   midi.NoteOnEvent(tick=120, channel=9, data=[36, 0]),
   midi.NoteOnEvent(tick=0, channel=9, data=[59, 0]),
   midi.NoteOnEvent(tick=0, channel=9, data=[59, 127]),
   midi.NoteOnEvent(tick=0, channel=9, data=[36, 127]),
   midi.NoteOnEvent(tick=60, channel=9, data=[36, 0]),
   midi.NoteOnEvent(tick=0, channel=9, data=[36, 127]),
   midi.NoteOnEvent(tick=60, channel=9, data=[59, 0]),
   midi.NoteOnEvent(tick=0, channel=9, data=[36, 0]),
   midi.NoteOnEvent(tick=0, channel=9, data=[38, 127]),
   midi.NoteOnEvent(tick=0, channel=9, data=[59, 127]),
   midi.NoteOnEvent(tick=120, channel=9, data=[38, 0]),
   midi.NoteOnEvent(tick=0, channel=9, data=[59, 0]),
   midi.NoteOnEvent(tick=0, channel=9, data=[59, 127]),
   midi.NoteOnEvent(tick=120, channel=9, data=[59, 0]),
   midi.NoteOnEvent(tick=0, channel=9, data=[36, 127]),
   midi.NoteOnEvent(tick=0, channel=9, data=[57, 127]),
   midi.NoteOnEvent(tick=60, channel=9, data=[36, 0]),
   midi.NoteOnEvent(tick=0, channel=9, data=[36, 127]),
   midi.NoteOnEvent(tick=60, channel=9, data=[57, 0]),
   midi.NoteOnEvent(tick=0, channel=9, data=[36, 0]),
   midi.NoteOnEvent(tick=0, channel=9, data=[38, 127]),
   midi.NoteOnEvent(tick=0, channel=9, data=[57, 127]),
   midi.NoteOnEvent(tick=120, channel=9, data=[38, 0]),
   midi.NoteOnEvent(tick=0, channel=9, data=[57, 0]),
   midi.NoteOnEvent(tick=0, channel=9, data=[36, 127]),
   midi.NoteOnEvent(tick=0, channel=9, data=[57, 127]),
   midi.NoteOnEvent(tick=60, channel=9, data=[36, 0]),
   midi.NoteOnEvent(tick=0, channel=9, data=[36, 127]),
   midi.NoteOnEvent(tick=60, channel=9, data=[57, 0]),
   midi.NoteOnEvent(tick=0, channel=9, data=[36, 0]),
   midi.NoteOnEvent(tick=0, channel=9, data=[38, 127]),
   midi.NoteOnEvent(tick=0, channel=9, data=[57, 127]),
   midi.NoteOnEvent(tick=120, channel=9, data=[38, 0]),
   midi.NoteOnEvent(tick=0, channel=9, data=[57, 0]),
   midi.NoteOnEvent(tick=0, channel=9, data=[57, 127]),
   midi.NoteOnEvent(tick=0, channel=9, data=[36, 127]),
   midi.NoteOnEvent(tick=60, channel=9, data=[36, 0]),
   midi.NoteOnEvent(tick=0, channel=9, data=[36, 127]),
   midi.NoteOnEvent(tick=60, channel=9, data=[57, 0]),
   midi.NoteOnEvent(tick=0, channel=9, data=[36, 0]),
   midi.NoteOnEvent(tick=0, channel=9, data=[38, 127]),
   midi.NoteOnEvent(tick=0, channel=9, data=[42, 127]),
   midi.NoteOnEvent(tick=120, channel=9, data=[38, 0]),
   midi.NoteOnEvent(tick=0, channel=9, data=[42, 0]),
   midi.NoteOnEvent(tick=0, channel=9, data=[42, 127]),
   midi.NoteOnEvent(tick=0, channel=9, data=[36, 127]),
   midi.NoteOnEvent(tick=40, channel=9, data=[36, 0]),
   midi.NoteOnEvent(tick=0, channel=9, data=[35, 127]),
   midi.NoteOnEvent(tick=40, channel=9, data=[35, 0]),
   midi.NoteOnEvent(tick=0, channel=9, data=[36, 127]),
   midi.NoteOnEvent(tick=40, channel=9, data=[42, 0]),
   midi.NoteOnEvent(tick=0, channel=9, data=[36, 0]),
   midi.NoteOnEvent(tick=0, channel=9, data=[42, 127]),
   midi.NoteOnEvent(tick=0, channel=9, data=[38, 127]),
   midi.NoteOnEvent(tick=120, channel=9, data=[42, 0]),
   midi.NoteOnEvent(tick=0, channel=9, data=[38, 0]),
   midi.NoteOnEvent(tick=0, channel=9, data=[42, 127]),
   midi.NoteOnEvent(tick=0, channel=9, data=[36, 127]),
   midi.NoteOnEvent(tick=40, channel=9, data=[36, 0]),
   midi.NoteOnEvent(tick=0, channel=9, data=[35, 127]),
   midi.NoteOnEvent(tick=40, channel=9, data=[35, 0]),
   midi.NoteOnEvent(tick=0, channel=9, data=[36, 127]),
   midi.NoteOnEvent(tick=40, channel=9, data=[42, 0]),
   midi.NoteOnEvent(tick=0, channel=9, data=[36, 0]),
   midi.NoteOnEvent(tick=0, channel=9, data=[38, 127]),
   midi.NoteOnEvent(tick=0, channel=9, data=[42, 127]),
   midi.NoteOnEvent(tick=120, channel=9, data=[38, 0]),
   midi.NoteOnEvent(tick=0, channel=9, data=[42, 0]),
   midi.NoteOnEvent(tick=0, channel=9, data=[42, 127]),
   midi.NoteOnEvent(tick=0, channel=9, data=[36, 127]),
   midi.NoteOnEvent(tick=40, channel=9, data=[36, 0]),
   midi.NoteOnEvent(tick=0, channel=9, data=[35, 127]),
   midi.NoteOnEvent(tick=40, channel=9, data=[35, 0]),
   midi.NoteOnEvent(tick=0, channel=9, data=[36, 127]),
   midi.NoteOnEvent(tick=40, channel=9, data=[42, 0]),
   midi.NoteOnEvent(tick=0, channel=9, data=[36, 0]),
   midi.NoteOnEvent(tick=0, channel=9, data=[57, 127]),
   midi.NoteOnEvent(tick=0, channel=9, data=[38, 127]),
   midi.NoteOnEvent(tick=120, channel=9, data=[57, 0]),
   midi.NoteOnEvent(tick=0, channel=9, data=[38, 0]),
   midi.NoteOnEvent(tick=0, channel=9, data=[42, 127]),
   midi.NoteOnEvent(tick=0, channel=9, data=[36, 127]),
   midi.NoteOnEvent(tick=40, channel=9, data=[36, 0]),
   midi.NoteOnEvent(tick=0, channel=9, data=[35, 127]),
   midi.NoteOnEvent(tick=40, channel=9, data=[35, 0]),
   midi.NoteOnEvent(tick=0, channel=9, data=[36, 127]),
   midi.NoteOnEvent(tick=40, channel=9, data=[42, 0]),
   midi.NoteOnEvent(tick=0, channel=9, data=[36, 0]),
   midi.NoteOnEvent(tick=0, channel=9, data=[38, 127]),
   midi.NoteOnEvent(tick=0, channel=9, data=[42, 127]),
   midi.NoteOnEvent(tick=120, channel=9, data=[38, 0]),
   midi.NoteOnEvent(tick=0, channel=9, data=[42, 0]),
   midi.NoteOnEvent(tick=0, channel=9, data=[42, 127]),
   midi.NoteOnEvent(tick=0, channel=9, data=[36, 127]),
   midi.NoteOnEvent(tick=40, channel=9, data=[36, 0]),
   midi.NoteOnEvent(tick=0, channel=9, data=[35, 127]),
   midi.NoteOnEvent(tick=40, channel=9, data=[35, 0]),
   midi.NoteOnEvent(tick=0, channel=9, data=[36, 127]),
   midi.NoteOnEvent(tick=40, channel=9, data=[42, 0]),
   midi.NoteOnEvent(tick=0, channel=9, data=[36, 0]),
   midi.NoteOnEvent(tick=0, channel=9, data=[42, 127]),
   midi.NoteOnEvent(tick=0, channel=9, data=[38, 127]),
   midi.NoteOnEvent(tick=120, channel=9, data=[42, 0]),
   midi.NoteOnEvent(tick=0, channel=9, data=[38, 0]),
   midi.NoteOnEvent(tick=0, channel=9, data=[42, 127]),
   midi.NoteOnEvent(tick=0, channel=9, data=[36, 127]),
   midi.NoteOnEvent(tick=40, channel=9, data=[36, 0]),
   midi.NoteOnEvent(tick=0, channel=9, data=[35, 127]),
   midi.NoteOnEvent(tick=40, channel=9, data=[35, 0]),
   midi.NoteOnEvent(tick=0, channel=9, data=[36, 127]),
   midi.NoteOnEvent(tick=40, channel=9, data=[42, 0]),
   midi.NoteOnEvent(tick=0, channel=9, data=[36, 0]),
   midi.NoteOnEvent(tick=0, channel=9, data=[38, 127]),
   midi.NoteOnEvent(tick=0, channel=9, data=[42, 127]),
   midi.NoteOnEvent(tick=120, channel=9, data=[38, 0]),
   midi.NoteOnEvent(tick=0, channel=9, data=[42, 0]),
   midi.NoteOnEvent(tick=0, channel=9, data=[42, 127]),
   midi.NoteOnEvent(tick=0, channel=9, data=[36, 127]),
   midi.NoteOnEvent(tick=40, channel=9, data=[36, 0]),
   midi.NoteOnEvent(tick=0, channel=9, data=[35, 127]),
   midi.NoteOnEvent(tick=40, channel=9, data=[35, 0]),
   midi.NoteOnEvent(tick=0, channel=9, data=[36, 127]),
   midi.NoteOnEvent(tick=40, channel=9, data=[42, 0]),
   midi.NoteOnEvent(tick=0, channel=9, data=[36, 0]),
   midi.NoteOnEvent(tick=0, channel=9, data=[57, 127]),
   midi.NoteOnEvent(tick=0, channel=9, data=[38, 127]),
   midi.NoteOnEvent(tick=120, channel=9, data=[57, 0]),
   midi.NoteOnEvent(tick=0, channel=9, data=[38, 0]),
   midi.NoteOnEvent(tick=0, channel=9, data=[42, 127]),
   midi.NoteOnEvent(tick=0, channel=9, data=[36, 127]),
   midi.NoteOnEvent(tick=40, channel=9, data=[36, 0]),
   midi.NoteOnEvent(tick=0, channel=9, data=[35, 127]),
   midi.NoteOnEvent(tick=40, channel=9, data=[35, 0]),
   midi.NoteOnEvent(tick=0, channel=9, data=[36, 127]),
   midi.NoteOnEvent(tick=40, channel=9, data=[42, 0]),
   midi.NoteOnEvent(tick=0, channel=9, data=[36, 0]),
   midi.NoteOnEvent(tick=0, channel=9, data=[38, 127]),
   midi.NoteOnEvent(tick=0, channel=9, data=[42, 127]),
   midi.NoteOnEvent(tick=120, channel=9, data=[38, 0]),
   midi.NoteOnEvent(tick=0, channel=9, data=[42, 0]),
   midi.NoteOnEvent(tick=0, channel=9, data=[42, 127]),
   midi.NoteOnEvent(tick=0, channel=9, data=[36, 127]),
   midi.NoteOnEvent(tick=40, channel=9, data=[36, 0]),
   midi.NoteOnEvent(tick=0, channel=9, data=[35, 127]),
   midi.NoteOnEvent(tick=40, channel=9, data=[35, 0]),
   midi.NoteOnEvent(tick=0, channel=9, data=[36, 127]),
   midi.NoteOnEvent(tick=40, channel=9, data=[42, 0]),
   midi.NoteOnEvent(tick=0, channel=9, data=[36, 0]),
   midi.NoteOnEvent(tick=0, channel=9, data=[42, 127]),
   midi.NoteOnEvent(tick=0, channel=9, data=[38, 127]),
   midi.NoteOnEvent(tick=120, channel=9, data=[42, 0]),
   midi.NoteOnEvent(tick=0, channel=9, data=[38, 0]),
   midi.NoteOnEvent(tick=0, channel=9, data=[42, 127]),
   midi.NoteOnEvent(tick=0, channel=9, data=[36, 127]),
   midi.NoteOnEvent(tick=40, channel=9, data=[36, 0]),
   midi.NoteOnEvent(tick=0, channel=9, data=[35, 127]),
   midi.NoteOnEvent(tick=40, channel=9, data=[35, 0]),
   midi.NoteOnEvent(tick=0, channel=9, data=[36, 127]),
   midi.NoteOnEvent(tick=40, channel=9, data=[42, 0]),
   midi.NoteOnEvent(tick=0, channel=9, data=[36, 0]),
   midi.NoteOnEvent(tick=0, channel=9, data=[38, 127]),
   midi.NoteOnEvent(tick=0, channel=9, data=[42, 127]),
   midi.NoteOnEvent(tick=120, channel=9, data=[38, 0]),
   midi.NoteOnEvent(tick=0, channel=9, data=[42, 0]),
   midi.NoteOnEvent(tick=0, channel=9, data=[42, 127]),
   midi.NoteOnEvent(tick=0, channel=9, data=[36, 127]),
   midi.NoteOnEvent(tick=40, channel=9, data=[36, 0]),
   midi.NoteOnEvent(tick=0, channel=9, data=[35, 127]),
   midi.NoteOnEvent(tick=40, channel=9, data=[35, 0]),
   midi.NoteOnEvent(tick=0, channel=9, data=[36, 127]),
   midi.NoteOnEvent(tick=40, channel=9, data=[42, 0]),
   midi.NoteOnEvent(tick=0, channel=9, data=[36, 0]),
   midi.NoteOnEvent(tick=0, channel=9, data=[57, 127]),
   midi.NoteOnEvent(tick=0, channel=9, data=[38, 127]),
   midi.NoteOnEvent(tick=120, channel=9, data=[57, 0]),
   midi.NoteOnEvent(tick=0, channel=9, data=[38, 0]),
   midi.NoteOnEvent(tick=0, channel=9, data=[36, 127]),
   midi.NoteOnEvent(tick=0, channel=9, data=[42, 127]),
   midi.NoteOnEvent(tick=60, channel=9, data=[36, 0]),
   midi.NoteOnEvent(tick=0, channel=9, data=[36, 127]),
   midi.NoteOnEvent(tick=60, channel=9, data=[42, 0]),
   midi.NoteOnEvent(tick=0, channel=9, data=[36, 0]),
   midi.NoteOnEvent(tick=0, channel=9, data=[57, 127]),
   midi.NoteOnEvent(tick=0, channel=9, data=[38, 127]),
   midi.NoteOnEvent(tick=120, channel=9, data=[57, 0]),
   midi.NoteOnEvent(tick=0, channel=9, data=[38, 0]),
   midi.NoteOnEvent(tick=0, channel=9, data=[36, 127]),
   midi.NoteOnEvent(tick=0, channel=9, data=[42, 127]),
   midi.NoteOnEvent(tick=60, channel=9, data=[36, 0]),
   midi.NoteOnEvent(tick=0, channel=9, data=[36, 127]),
   midi.NoteOnEvent(tick=60, channel=9, data=[42, 0]),
   midi.NoteOnEvent(tick=0, channel=9, data=[36, 0]),
   midi.NoteOnEvent(tick=0, channel=9, data=[57, 127]),
   midi.NoteOnEvent(tick=0, channel=9, data=[38, 127]),
   midi.NoteOnEvent(tick=120, channel=9, data=[57, 0]),
   midi.NoteOnEvent(tick=0, channel=9, data=[38, 0]),
   midi.NoteOnEvent(tick=0, channel=9, data=[42, 127]),
   midi.NoteOnEvent(tick=0, channel=9, data=[36, 127]),
   midi.NoteOnEvent(tick=120, channel=9, data=[42, 0]),
   midi.NoteOnEvent(tick=0, channel=9, data=[36, 0]),
   midi.NoteOnEvent(tick=0, channel=9, data=[38, 127]),
   midi.NoteOnEvent(tick=0, channel=9, data=[42, 127]),
   midi.NoteOnEvent(tick=120, channel=9, data=[38, 0]),
   midi.NoteOnEvent(tick=0, channel=9, data=[42, 0]),
   midi.NoteOnEvent(tick=0, channel=9, data=[42, 127]),
   midi.NoteOnEvent(tick=0, channel=9, data=[36, 127]),
   midi.NoteOnEvent(tick=40, channel=9, data=[36, 0]),
   midi.NoteOnEvent(tick=0, channel=9, data=[35, 127]),
   midi.NoteOnEvent(tick=40, channel=9, data=[35, 0]),
   midi.NoteOnEvent(tick=0, channel=9, data=[36, 127]),
   midi.NoteOnEvent(tick=40, channel=9, data=[42, 0]),
   midi.NoteOnEvent(tick=0, channel=9, data=[36, 0]),
   midi.NoteOnEvent(tick=0, channel=9, data=[57, 127]),
   midi.NoteOnEvent(tick=0, channel=9, data=[38, 127]),
   midi.NoteOnEvent(tick=120, channel=9, data=[57, 0]),
   midi.NoteOnEvent(tick=0, channel=9, data=[38, 0]),
   midi.NoteOnEvent(tick=0, channel=9, data=[42, 127]),
   midi.NoteOnEvent(tick=0, channel=9, data=[36, 127]),
   midi.NoteOnEvent(tick=40, channel=9, data=[36, 0]),
   midi.NoteOnEvent(tick=0, channel=9, data=[35, 127]),
   midi.NoteOnEvent(tick=40, channel=9, data=[35, 0]),
   midi.NoteOnEvent(tick=0, channel=9, data=[36, 127]),
   midi.NoteOnEvent(tick=40, channel=9, data=[42, 0]),
   midi.NoteOnEvent(tick=0, channel=9, data=[36, 0]),
   midi.NoteOnEvent(tick=0, channel=9, data=[38, 127]),
   midi.NoteOnEvent(tick=0, channel=9, data=[42, 127]),
   midi.NoteOnEvent(tick=120, channel=9, data=[38, 0]),
   midi.NoteOnEvent(tick=0, channel=9, data=[42, 0]),
   midi.NoteOnEvent(tick=0, channel=9, data=[42, 127]),
   midi.NoteOnEvent(tick=0, channel=9, data=[36, 127]),
   midi.NoteOnEvent(tick=40, channel=9, data=[36, 0]),
   midi.NoteOnEvent(tick=0, channel=9, data=[35, 127]),
   midi.NoteOnEvent(tick=40, channel=9, data=[35, 0]),
   midi.NoteOnEvent(tick=0, channel=9, data=[36, 127]),
   midi.NoteOnEvent(tick=40, channel=9, data=[42, 0]),
   midi.NoteOnEvent(tick=0, channel=9, data=[36, 0]),
   midi.NoteOnEvent(tick=0, channel=9, data=[57, 127]),
   midi.NoteOnEvent(tick=0, channel=9, data=[38, 127]),
   midi.NoteOnEvent(tick=120, channel=9, data=[57, 0]),
   midi.NoteOnEvent(tick=0, channel=9, data=[38, 0]),
   midi.NoteOnEvent(tick=0, channel=9, data=[42, 127]),
   midi.NoteOnEvent(tick=0, channel=9, data=[36, 127]),
   midi.NoteOnEvent(tick=40, channel=9, data=[36, 0]),
   midi.NoteOnEvent(tick=0, channel=9, data=[35, 127]),
   midi.NoteOnEvent(tick=40, channel=9, data=[35, 0]),
   midi.NoteOnEvent(tick=0, channel=9, data=[36, 127]),
   midi.NoteOnEvent(tick=40, channel=9, data=[42, 0]),
   midi.NoteOnEvent(tick=0, channel=9, data=[36, 0]),
   midi.NoteOnEvent(tick=0, channel=9, data=[38, 127]),
   midi.NoteOnEvent(tick=0, channel=9, data=[42, 127]),
   midi.NoteOnEvent(tick=120, channel=9, data=[38, 0]),
   midi.NoteOnEvent(tick=0, channel=9, data=[42, 0]),
   midi.NoteOnEvent(tick=0, channel=9, data=[42, 127]),
   midi.NoteOnEvent(tick=0, channel=9, data=[36, 127]),
   midi.NoteOnEvent(tick=40, channel=9, data=[36, 0]),
   midi.NoteOnEvent(tick=0, channel=9, data=[35, 127]),
   midi.NoteOnEvent(tick=40, channel=9, data=[35, 0]),
   midi.NoteOnEvent(tick=0, channel=9, data=[36, 127]),
   midi.NoteOnEvent(tick=40, channel=9, data=[42, 0]),
   midi.NoteOnEvent(tick=0, channel=9, data=[36, 0]),
   midi.NoteOnEvent(tick=0, channel=9, data=[42, 127]),
   midi.NoteOnEvent(tick=0, channel=9, data=[38, 127]),
   midi.NoteOnEvent(tick=120, channel=9, data=[42, 0]),
   midi.NoteOnEvent(tick=0, channel=9, data=[38, 0]),
   midi.NoteOnEvent(tick=0, channel=9, data=[42, 127]),
   midi.NoteOnEvent(tick=0, channel=9, data=[36, 127]),
   midi.NoteOnEvent(tick=40, channel=9, data=[36, 0]),
   midi.NoteOnEvent(tick=0, channel=9, data=[35, 127]),
   midi.NoteOnEvent(tick=40, channel=9, data=[35, 0]),
   midi.NoteOnEvent(tick=0, channel=9, data=[36, 127]),
   midi.NoteOnEvent(tick=40, channel=9, data=[42, 0]),
   midi.NoteOnEvent(tick=0, channel=9, data=[36, 0]),
   midi.NoteOnEvent(tick=0, channel=9, data=[38, 127]),
   midi.NoteOnEvent(tick=0, channel=9, data=[42, 127]),
   midi.NoteOnEvent(tick=120, channel=9, data=[38, 0]),
   midi.NoteOnEvent(tick=0, channel=9, data=[42, 0]),
   midi.NoteOnEvent(tick=0, channel=9, data=[42, 127]),
   midi.NoteOnEvent(tick=0, channel=9, data=[36, 127]),
   midi.NoteOnEvent(tick=40, channel=9, data=[36, 0]),
   midi.NoteOnEvent(tick=0, channel=9, data=[35, 127]),
   midi.NoteOnEvent(tick=40, channel=9, data=[35, 0]),
   midi.NoteOnEvent(tick=0, channel=9, data=[36, 127]),
   midi.NoteOnEvent(tick=40, channel=9, data=[42, 0]),
   midi.NoteOnEvent(tick=0, channel=9, data=[36, 0]),
   midi.NoteOnEvent(tick=0, channel=9, data=[57, 127]),
   midi.NoteOnEvent(tick=0, channel=9, data=[38, 127]),
   midi.NoteOnEvent(tick=120, channel=9, data=[57, 0]),
   midi.NoteOnEvent(tick=0, channel=9, data=[38, 0]),
   midi.NoteOnEvent(tick=0, channel=9, data=[42, 127]),
   midi.NoteOnEvent(tick=0, channel=9, data=[36, 127]),
   midi.NoteOnEvent(tick=40, channel=9, data=[36, 0]),
   midi.NoteOnEvent(tick=0, channel=9, data=[35, 127]),
   midi.NoteOnEvent(tick=40, channel=9, data=[35, 0]),
   midi.NoteOnEvent(tick=0, channel=9, data=[36, 127]),
   midi.NoteOnEvent(tick=40, channel=9, data=[42, 0]),
   midi.NoteOnEvent(tick=0, channel=9, data=[36, 0]),
   midi.NoteOnEvent(tick=0, channel=9, data=[38, 127]),
   midi.NoteOnEvent(tick=0, channel=9, data=[42, 127]),
   midi.NoteOnEvent(tick=120, channel=9, data=[38, 0]),
   midi.NoteOnEvent(tick=0, channel=9, data=[42, 0]),
   midi.NoteOnEvent(tick=0, channel=9, data=[42, 127]),
   midi.NoteOnEvent(tick=0, channel=9, data=[36, 127]),
   midi.NoteOnEvent(tick=40, channel=9, data=[36, 0]),
   midi.NoteOnEvent(tick=0, channel=9, data=[35, 127]),
   midi.NoteOnEvent(tick=40, channel=9, data=[35, 0]),
   midi.NoteOnEvent(tick=0, channel=9, data=[36, 127]),
   midi.NoteOnEvent(tick=40, channel=9, data=[42, 0]),
   midi.NoteOnEvent(tick=0, channel=9, data=[36, 0]),
   midi.NoteOnEvent(tick=0, channel=9, data=[42, 127]),
   midi.NoteOnEvent(tick=0, channel=9, data=[38, 127]),
   midi.NoteOnEvent(tick=120, channel=9, data=[42, 0]),
   midi.NoteOnEvent(tick=0, channel=9, data=[38, 0]),
   midi.NoteOnEvent(tick=0, channel=9, data=[42, 127]),
   midi.NoteOnEvent(tick=0, channel=9, data=[36, 127]),
   midi.NoteOnEvent(tick=40, channel=9, data=[36, 0]),
   midi.NoteOnEvent(tick=0, channel=9, data=[35, 127]),
   midi.NoteOnEvent(tick=40, channel=9, data=[35, 0]),
   midi.NoteOnEvent(tick=0, channel=9, data=[36, 127]),
   midi.NoteOnEvent(tick=40, channel=9, data=[42, 0]),
   midi.NoteOnEvent(tick=0, channel=9, data=[36, 0]),
   midi.NoteOnEvent(tick=0, channel=9, data=[38, 127]),
   midi.NoteOnEvent(tick=0, channel=9, data=[42, 127]),
   midi.NoteOnEvent(tick=120, channel=9, data=[38, 0]),
   midi.NoteOnEvent(tick=0, channel=9, data=[42, 0]),
   midi.NoteOnEvent(tick=0, channel=9, data=[42, 127]),
   midi.NoteOnEvent(tick=0, channel=9, data=[36, 127]),
   midi.NoteOnEvent(tick=40, channel=9, data=[36, 0]),
   midi.NoteOnEvent(tick=0, channel=9, data=[35, 127]),
   midi.NoteOnEvent(tick=40, channel=9, data=[35, 0]),
   midi.NoteOnEvent(tick=0, channel=9, data=[36, 127]),
   midi.NoteOnEvent(tick=40, channel=9, data=[42, 0]),
   midi.NoteOnEvent(tick=0, channel=9, data=[36, 0]),
   midi.NoteOnEvent(tick=0, channel=9, data=[57, 127]),
   midi.NoteOnEvent(tick=0, channel=9, data=[38, 127]),
   midi.NoteOnEvent(tick=120, channel=9, data=[57, 0]),
   midi.NoteOnEvent(tick=0, channel=9, data=[38, 0]),
   midi.NoteOnEvent(tick=0, channel=9, data=[42, 127]),
   midi.NoteOnEvent(tick=0, channel=9, data=[36, 127]),
   midi.NoteOnEvent(tick=60, channel=9, data=[36, 0]),
   midi.NoteOnEvent(tick=0, channel=9, data=[36, 127]),
   midi.NoteOnEvent(tick=60, channel=9, data=[42, 0]),
   midi.NoteOnEvent(tick=0, channel=9, data=[36, 0]),
   midi.NoteOnEvent(tick=0, channel=9, data=[57, 127]),
   midi.NoteOnEvent(tick=0, channel=9, data=[38, 127]),
   midi.NoteOnEvent(tick=120, channel=9, data=[57, 0]),
   midi.NoteOnEvent(tick=0, channel=9, data=[38, 0]),
   midi.NoteOnEvent(tick=0, channel=9, data=[42, 127]),
   midi.NoteOnEvent(tick=0, channel=9, data=[36, 127]),
   midi.NoteOnEvent(tick=60, channel=9, data=[36, 0]),
   midi.NoteOnEvent(tick=0, channel=9, data=[36, 127]),
   midi.NoteOnEvent(tick=60, channel=9, data=[42, 0]),
   midi.NoteOnEvent(tick=0, channel=9, data=[36, 0]),
   midi.NoteOnEvent(tick=0, channel=9, data=[57, 127]),
   midi.NoteOnEvent(tick=0, channel=9, data=[38, 127]),
   midi.NoteOnEvent(tick=120, channel=9, data=[57, 0]),
   midi.NoteOnEvent(tick=0, channel=9, data=[38, 0]),
   midi.NoteOnEvent(tick=0, channel=9, data=[36, 127]),
   midi.NoteOnEvent(tick=0, channel=9, data=[57, 127]),
   midi.NoteOnEvent(tick=120, channel=9, data=[36, 0]),
   midi.NoteOnEvent(tick=0, channel=9, data=[57, 0]),
   midi.NoteOnEvent(tick=0, channel=9, data=[42, 127]),
   midi.NoteOnEvent(tick=0, channel=9, data=[38, 127]),
   midi.NoteOnEvent(tick=120, channel=9, data=[42, 0]),
   midi.NoteOnEvent(tick=0, channel=9, data=[38, 0]),
   midi.NoteOnEvent(tick=0, channel=9, data=[42, 127]),
   midi.NoteOnEvent(tick=0, channel=9, data=[36, 127]),
   midi.NoteOnEvent(tick=60, channel=9, data=[36, 0]),
   midi.NoteOnEvent(tick=0, channel=9, data=[36, 127]),
   midi.NoteOnEvent(tick=60, channel=9, data=[42, 0]),
   midi.NoteOnEvent(tick=0, channel=9, data=[36, 0]),
   midi.NoteOnEvent(tick=0, channel=9, data=[38, 127]),
   midi.NoteOnEvent(tick=0, channel=9, data=[42, 127]),
   midi.NoteOnEvent(tick=120, channel=9, data=[38, 0]),
   midi.NoteOnEvent(tick=0, channel=9, data=[42, 0]),
   midi.NoteOnEvent(tick=0, channel=9, data=[36, 127]),
   midi.NoteOnEvent(tick=0, channel=9, data=[42, 127]),
   midi.NoteOnEvent(tick=60, channel=9, data=[36, 0]),
   midi.NoteOnEvent(tick=0, channel=9, data=[36, 127]),
   midi.NoteOnEvent(tick=60, channel=9, data=[42, 0]),
   midi.NoteOnEvent(tick=0, channel=9, data=[36, 0]),
   midi.NoteOnEvent(tick=0, channel=9, data=[38, 127]),
   midi.NoteOnEvent(tick=0, channel=9, data=[42, 127]),
   midi.NoteOnEvent(tick=120, channel=9, data=[38, 0]),
   midi.NoteOnEvent(tick=0, channel=9, data=[42, 0]),
   midi.NoteOnEvent(tick=0, channel=9, data=[36, 127]),
   midi.NoteOnEvent(tick=0, channel=9, data=[42, 127]),
   midi.NoteOnEvent(tick=60, channel=9, data=[36, 0]),
   midi.NoteOnEvent(tick=0, channel=9, data=[36, 127]),
   midi.NoteOnEvent(tick=60, channel=9, data=[42, 0]),
   midi.NoteOnEvent(tick=0, channel=9, data=[36, 0]),
   midi.NoteOnEvent(tick=0, channel=9, data=[38, 127]),
   midi.NoteOnEvent(tick=0, channel=9, data=[42, 127]),
   midi.NoteOnEvent(tick=120, channel=9, data=[38, 0]),
   midi.NoteOnEvent(tick=0, channel=9, data=[42, 0]),
   midi.NoteOnEvent(tick=0, channel=9, data=[36, 127]),
   midi.NoteOnEvent(tick=0, channel=9, data=[42, 127]),
   midi.NoteOnEvent(tick=60, channel=9, data=[36, 0]),
   midi.NoteOnEvent(tick=0, channel=9, data=[36, 127]),
   midi.NoteOnEvent(tick=60, channel=9, data=[42, 0]),
   midi.NoteOnEvent(tick=0, channel=9, data=[36, 0]),
   midi.NoteOnEvent(tick=0, channel=9, data=[57, 127]),
   midi.NoteOnEvent(tick=0, channel=9, data=[38, 127]),
   midi.NoteOnEvent(tick=120, channel=9, data=[57, 0]),
   midi.NoteOnEvent(tick=0, channel=9, data=[38, 0]),
   midi.NoteOnEvent(tick=0, channel=9, data=[36, 127]),
   midi.NoteOnEvent(tick=0, channel=9, data=[42, 127]),
   midi.NoteOnEvent(tick=60, channel=9, data=[36, 0]),
   midi.NoteOnEvent(tick=0, channel=9, data=[36, 127]),
   midi.NoteOnEvent(tick=60, channel=9, data=[42, 0]),
   midi.NoteOnEvent(tick=0, channel=9, data=[36, 0]),
   midi.NoteOnEvent(tick=0, channel=9, data=[38, 127]),
   midi.NoteOnEvent(tick=0, channel=9, data=[42, 127]),
   midi.NoteOnEvent(tick=120, channel=9, data=[38, 0]),
   midi.NoteOnEvent(tick=0, channel=9, data=[42, 0]),
   midi.NoteOnEvent(tick=0, channel=9, data=[36, 127]),
   midi.NoteOnEvent(tick=0, channel=9, data=[42, 127]),
   midi.NoteOnEvent(tick=60, channel=9, data=[36, 0]),
   midi.NoteOnEvent(tick=0, channel=9, data=[36, 127]),
   midi.NoteOnEvent(tick=60, channel=9, data=[42, 0]),
   midi.NoteOnEvent(tick=0, channel=9, data=[36, 0]),
   midi.NoteOnEvent(tick=0, channel=9, data=[38, 127]),
   midi.NoteOnEvent(tick=0, channel=9, data=[42, 127]),
   midi.NoteOnEvent(tick=120, channel=9, data=[38, 0]),
   midi.NoteOnEvent(tick=0, channel=9, data=[42, 0]),
   midi.NoteOnEvent(tick=0, channel=9, data=[36, 127]),
   midi.NoteOnEvent(tick=0, channel=9, data=[42, 127]),
   midi.NoteOnEvent(tick=60, channel=9, data=[36, 0]),
   midi.NoteOnEvent(tick=0, channel=9, data=[36, 127]),
   midi.NoteOnEvent(tick=60, channel=9, data=[42, 0]),
   midi.NoteOnEvent(tick=0, channel=9, data=[36, 0]),
   midi.NoteOnEvent(tick=0, channel=9, data=[38, 127]),
   midi.NoteOnEvent(tick=0, channel=9, data=[42, 127]),
   midi.NoteOnEvent(tick=120, channel=9, data=[38, 0]),
   midi.NoteOnEvent(tick=0, channel=9, data=[42, 0]),
   midi.NoteOnEvent(tick=0, channel=9, data=[36, 127]),
   midi.NoteOnEvent(tick=0, channel=9, data=[42, 127]),
   midi.NoteOnEvent(tick=60, channel=9, data=[36, 0]),
   midi.NoteOnEvent(tick=0, channel=9, data=[36, 127]),
   midi.NoteOnEvent(tick=60, channel=9, data=[42, 0]),
   midi.NoteOnEvent(tick=0, channel=9, data=[36, 0]),
   midi.NoteOnEvent(tick=0, channel=9, data=[57, 127]),
   midi.NoteOnEvent(tick=0, channel=9, data=[38, 127]),
   midi.NoteOnEvent(tick=120, channel=9, data=[57, 0]),
   midi.NoteOnEvent(tick=0, channel=9, data=[38, 0]),
   midi.NoteOnEvent(tick=0, channel=9, data=[36, 127]),
   midi.NoteOnEvent(tick=0, channel=9, data=[42, 127]),
   midi.NoteOnEvent(tick=60, channel=9, data=[36, 0]),
   midi.NoteOnEvent(tick=0, channel=9, data=[36, 127]),
   midi.NoteOnEvent(tick=60, channel=9, data=[42, 0]),
   midi.NoteOnEvent(tick=0, channel=9, data=[36, 0]),
   midi.NoteOnEvent(tick=0, channel=9, data=[38, 127]),
   midi.NoteOnEvent(tick=0, channel=9, data=[42, 127]),
   midi.NoteOnEvent(tick=120, channel=9, data=[38, 0]),
   midi.NoteOnEvent(tick=0, channel=9, data=[42, 0]),
   midi.NoteOnEvent(tick=0, channel=9, data=[36, 127]),
   midi.NoteOnEvent(tick=0, channel=9, data=[42, 127]),
   midi.NoteOnEvent(tick=60, channel=9, data=[36, 0]),
   midi.NoteOnEvent(tick=0, channel=9, data=[36, 127]),
   midi.NoteOnEvent(tick=60, channel=9, data=[42, 0]),
   midi.NoteOnEvent(tick=0, channel=9, data=[36, 0]),
   midi.NoteOnEvent(tick=0, channel=9, data=[38, 127]),
   midi.NoteOnEvent(tick=0, channel=9, data=[42, 127]),
   midi.NoteOnEvent(tick=120, channel=9, data=[38, 0]),
   midi.NoteOnEvent(tick=0, channel=9, data=[42, 0]),
   midi.NoteOnEvent(tick=0, channel=9, data=[36, 127]),
   midi.NoteOnEvent(tick=0, channel=9, data=[42, 127]),
   midi.NoteOnEvent(tick=60, channel=9, data=[36, 0]),
   midi.NoteOnEvent(tick=0, channel=9, data=[36, 127]),
   midi.NoteOnEvent(tick=60, channel=9, data=[42, 0]),
   midi.NoteOnEvent(tick=0, channel=9, data=[36, 0]),
   midi.NoteOnEvent(tick=0, channel=9, data=[38, 127]),
   midi.NoteOnEvent(tick=0, channel=9, data=[42, 127]),
   midi.NoteOnEvent(tick=120, channel=9, data=[38, 0]),
   midi.NoteOnEvent(tick=0, channel=9, data=[42, 0]),
   midi.NoteOnEvent(tick=0, channel=9, data=[36, 127]),
   midi.NoteOnEvent(tick=0, channel=9, data=[42, 127]),
   midi.NoteOnEvent(tick=60, channel=9, data=[36, 0]),
   midi.NoteOnEvent(tick=0, channel=9, data=[36, 127]),
   midi.NoteOnEvent(tick=60, channel=9, data=[42, 0]),
   midi.NoteOnEvent(tick=0, channel=9, data=[36, 0]),
   midi.NoteOnEvent(tick=0, channel=9, data=[57, 127]),
   midi.NoteOnEvent(tick=0, channel=9, data=[38, 127]),
   midi.NoteOnEvent(tick=120, channel=9, data=[57, 0]),
   midi.NoteOnEvent(tick=0, channel=9, data=[38, 0]),
   midi.NoteOnEvent(tick=0, channel=9, data=[36, 127]),
   midi.NoteOnEvent(tick=0, channel=9, data=[42, 127]),
   midi.NoteOnEvent(tick=60, channel=9, data=[36, 0]),
   midi.NoteOnEvent(tick=0, channel=9, data=[36, 127]),
   midi.NoteOnEvent(tick=60, channel=9, data=[42, 0]),
   midi.NoteOnEvent(tick=0, channel=9, data=[36, 0]),
   midi.NoteOnEvent(tick=0, channel=9, data=[38, 127]),
   midi.NoteOnEvent(tick=0, channel=9, data=[42, 127]),
   midi.NoteOnEvent(tick=120, channel=9, data=[38, 0]),
   midi.NoteOnEvent(tick=0, channel=9, data=[42, 0]),
   midi.NoteOnEvent(tick=0, channel=9, data=[45, 127]),
   midi.NoteOnEvent(tick=0, channel=9, data=[36, 127]),
   midi.NoteOnEvent(tick=30, channel=9, data=[45, 0]),
   midi.NoteOnEvent(tick=0, channel=9, data=[45, 127]),
   midi.NoteOnEvent(tick=30, channel=9, data=[45, 0]),
   midi.NoteOnEvent(tick=0, channel=9, data=[45, 127]),
   midi.NoteOnEvent(tick=30, channel=9, data=[45, 0]),
   midi.NoteOnEvent(tick=0, channel=9, data=[45, 127]),
   midi.NoteOnEvent(tick=30, channel=9, data=[36, 0]),
   midi.NoteOnEvent(tick=0, channel=9, data=[45, 0]),
   midi.NoteOnEvent(tick=0, channel=9, data=[47, 127]),
   midi.NoteOnEvent(tick=0, channel=9, data=[36, 127]),
   midi.NoteOnEvent(tick=30, channel=9, data=[47, 0]),
   midi.NoteOnEvent(tick=0, channel=9, data=[47, 127]),
   midi.NoteOnEvent(tick=30, channel=9, data=[47, 0]),
   midi.NoteOnEvent(tick=0, channel=9, data=[47, 127]),
   midi.NoteOnEvent(tick=30, channel=9, data=[47, 0]),
   midi.NoteOnEvent(tick=0, channel=9, data=[47, 127]),
   midi.NoteOnEvent(tick=30, channel=9, data=[36, 0]),
   midi.NoteOnEvent(tick=0, channel=9, data=[47, 0]),
   midi.NoteOnEvent(tick=0, channel=9, data=[48, 127]),
   midi.NoteOnEvent(tick=0, channel=9, data=[36, 127]),
   midi.NoteOnEvent(tick=30, channel=9, data=[48, 0]),
   midi.NoteOnEvent(tick=0, channel=9, data=[48, 127]),
   midi.NoteOnEvent(tick=30, channel=9, data=[48, 0]),
   midi.NoteOnEvent(tick=0, channel=9, data=[48, 127]),
   midi.NoteOnEvent(tick=30, channel=9, data=[48, 0]),
   midi.NoteOnEvent(tick=0, channel=9, data=[48, 127]),
   midi.NoteOnEvent(tick=30, channel=9, data=[36, 0]),
   midi.NoteOnEvent(tick=0, channel=9, data=[48, 0]),
   midi.NoteOnEvent(tick=0, channel=9, data=[50, 127]),
   midi.NoteOnEvent(tick=30, channel=9, data=[50, 0]),
   midi.NoteOnEvent(tick=0, channel=9, data=[50, 127]),
   midi.NoteOnEvent(tick=30, channel=9, data=[50, 0]),
   midi.NoteOnEvent(tick=0, channel=9, data=[50, 127]),
   midi.NoteOnEvent(tick=30, channel=9, data=[50, 0]),
   midi.NoteOnEvent(tick=0, channel=9, data=[50, 127]),
   midi.NoteOnEvent(tick=30, channel=9, data=[50, 0]),
   midi.NoteOnEvent(tick=0, channel=9, data=[36, 127]),
   midi.NoteOnEvent(tick=0, channel=9, data=[57, 127]),
   midi.NoteOnEvent(tick=120, channel=9, data=[36, 0]),
   midi.NoteOnEvent(tick=0, channel=9, data=[57, 0]),
   midi.NoteOnEvent(tick=0, channel=9, data=[38, 127]),
   midi.NoteOnEvent(tick=0, channel=9, data=[57, 127]),
   midi.NoteOnEvent(tick=120, channel=9, data=[38, 0]),
   midi.NoteOnEvent(tick=0, channel=9, data=[57, 0]),
   midi.NoteOnEvent(tick=0, channel=9, data=[42, 127]),
   midi.NoteOnEvent(tick=0, channel=9, data=[36, 127]),
   midi.NoteOnEvent(tick=60, channel=9, data=[36, 0]),
   midi.NoteOnEvent(tick=0, channel=9, data=[36, 127]),
   midi.NoteOnEvent(tick=60, channel=9, data=[42, 0]),
   midi.NoteOnEvent(tick=0, channel=9, data=[36, 0]),
   midi.NoteOnEvent(tick=0, channel=9, data=[42, 127]),
   midi.NoteOnEvent(tick=0, channel=9, data=[38, 127]),
   midi.NoteOnEvent(tick=120, channel=9, data=[42, 0]),
   midi.NoteOnEvent(tick=0, channel=9, data=[38, 0]),
   midi.NoteOnEvent(tick=0, channel=9, data=[36, 127]),
   midi.NoteOnEvent(tick=0, channel=9, data=[42, 127]),
   midi.NoteOnEvent(tick=60, channel=9, data=[36, 0]),
   midi.NoteOnEvent(tick=0, channel=9, data=[36, 127]),
   midi.NoteOnEvent(tick=60, channel=9, data=[42, 0]),
   midi.NoteOnEvent(tick=0, channel=9, data=[36, 0]),
   midi.NoteOnEvent(tick=0, channel=9, data=[38, 127]),
   midi.NoteOnEvent(tick=0, channel=9, data=[42, 127]),
   midi.NoteOnEvent(tick=120, channel=9, data=[38, 0]),
   midi.NoteOnEvent(tick=0, channel=9, data=[42, 0]),
   midi.NoteOnEvent(tick=0, channel=9, data=[36, 127]),
   midi.NoteOnEvent(tick=0, channel=9, data=[42, 127]),
   midi.NoteOnEvent(tick=60, channel=9, data=[36, 0]),
   midi.NoteOnEvent(tick=0, channel=9, data=[36, 127]),
   midi.NoteOnEvent(tick=60, channel=9, data=[42, 0]),
   midi.NoteOnEvent(tick=0, channel=9, data=[36, 0]),
   midi.NoteOnEvent(tick=0, channel=9, data=[38, 127]),
   midi.NoteOnEvent(tick=0, channel=9, data=[42, 127]),
   midi.NoteOnEvent(tick=120, channel=9, data=[38, 0]),
   midi.NoteOnEvent(tick=0, channel=9, data=[42, 0]),
   midi.NoteOnEvent(tick=0, channel=9, data=[36, 127]),
   midi.NoteOnEvent(tick=0, channel=9, data=[42, 127]),
   midi.NoteOnEvent(tick=60, channel=9, data=[36, 0]),
   midi.NoteOnEvent(tick=0, channel=9, data=[36, 127]),
   midi.NoteOnEvent(tick=60, channel=9, data=[42, 0]),
   midi.NoteOnEvent(tick=0, channel=9, data=[36, 0]),
   midi.NoteOnEvent(tick=0, channel=9, data=[57, 127]),
   midi.NoteOnEvent(tick=0, channel=9, data=[38, 127]),
   midi.NoteOnEvent(tick=120, channel=9, data=[57, 0]),
   midi.NoteOnEvent(tick=0, channel=9, data=[38, 0]),
   midi.NoteOnEvent(tick=0, channel=9, data=[36, 127]),
   midi.NoteOnEvent(tick=0, channel=9, data=[42, 127]),
   midi.NoteOnEvent(tick=60, channel=9, data=[36, 0]),
   midi.NoteOnEvent(tick=0, channel=9, data=[36, 127]),
   midi.NoteOnEvent(tick=60, channel=9, data=[42, 0]),
   midi.NoteOnEvent(tick=0, channel=9, data=[36, 0]),
   midi.NoteOnEvent(tick=0, channel=9, data=[38, 127]),
   midi.NoteOnEvent(tick=0, channel=9, data=[42, 127]),
   midi.NoteOnEvent(tick=120, channel=9, data=[38, 0]),
   midi.NoteOnEvent(tick=0, channel=9, data=[42, 0]),
   midi.NoteOnEvent(tick=0, channel=9, data=[36, 127]),
   midi.NoteOnEvent(tick=0, channel=9, data=[42, 127]),
   midi.NoteOnEvent(tick=60, channel=9, data=[36, 0]),
   midi.NoteOnEvent(tick=0, channel=9, data=[36, 127]),
   midi.NoteOnEvent(tick=60, channel=9, data=[42, 0]),
   midi.NoteOnEvent(tick=0, channel=9, data=[36, 0]),
   midi.NoteOnEvent(tick=0, channel=9, data=[38, 127]),
   midi.NoteOnEvent(tick=0, channel=9, data=[42, 127]),
   midi.NoteOnEvent(tick=120, channel=9, data=[38, 0]),
   midi.NoteOnEvent(tick=0, channel=9, data=[42, 0]),
   midi.NoteOnEvent(tick=0, channel=9, data=[36, 127]),
   midi.NoteOnEvent(tick=0, channel=9, data=[42, 127]),
   midi.NoteOnEvent(tick=60, channel=9, data=[36, 0]),
   midi.NoteOnEvent(tick=0, channel=9, data=[36, 127]),
   midi.NoteOnEvent(tick=60, channel=9, data=[42, 0]),
   midi.NoteOnEvent(tick=0, channel=9, data=[36, 0]),
   midi.NoteOnEvent(tick=0, channel=9, data=[38, 127]),
   midi.NoteOnEvent(tick=0, channel=9, data=[42, 127]),
   midi.NoteOnEvent(tick=120, channel=9, data=[38, 0]),
   midi.NoteOnEvent(tick=0, channel=9, data=[42, 0]),
   midi.NoteOnEvent(tick=0, channel=9, data=[36, 127]),
   midi.NoteOnEvent(tick=0, channel=9, data=[42, 127]),
   midi.NoteOnEvent(tick=60, channel=9, data=[36, 0]),
   midi.NoteOnEvent(tick=0, channel=9, data=[36, 127]),
   midi.NoteOnEvent(tick=60, channel=9, data=[42, 0]),
   midi.NoteOnEvent(tick=0, channel=9, data=[36, 0]),
   midi.NoteOnEvent(tick=0, channel=9, data=[57, 127]),
   midi.NoteOnEvent(tick=0, channel=9, data=[38, 127]),
   midi.NoteOnEvent(tick=120, channel=9, data=[57, 0]),
   midi.NoteOnEvent(tick=0, channel=9, data=[38, 0]),
   midi.NoteOnEvent(tick=0, channel=9, data=[36, 127]),
   midi.NoteOnEvent(tick=0, channel=9, data=[42, 127]),
   midi.NoteOnEvent(tick=60, channel=9, data=[36, 0]),
   midi.NoteOnEvent(tick=0, channel=9, data=[36, 127]),
   midi.NoteOnEvent(tick=60, channel=9, data=[42, 0]),
   midi.NoteOnEvent(tick=0, channel=9, data=[36, 0]),
   midi.NoteOnEvent(tick=0, channel=9, data=[38, 127]),
   midi.NoteOnEvent(tick=0, channel=9, data=[42, 127]),
   midi.NoteOnEvent(tick=120, channel=9, data=[38, 0]),
   midi.NoteOnEvent(tick=0, channel=9, data=[42, 0]),
   midi.NoteOnEvent(tick=0, channel=9, data=[36, 127]),
   midi.NoteOnEvent(tick=0, channel=9, data=[57, 127]),
   midi.NoteOnEvent(tick=120, channel=9, data=[36, 0]),
   midi.NoteOnEvent(tick=0, channel=9, data=[57, 0]),
   midi.NoteOnEvent(tick=0, channel=9, data=[36, 127]),
   midi.NoteOnEvent(tick=0, channel=9, data=[38, 127]),
   midi.NoteOnEvent(tick=0, channel=9, data=[57, 127]),
   midi.NoteOnEvent(tick=120, channel=9, data=[36, 0]),
   midi.NoteOnEvent(tick=0, channel=9, data=[38, 0]),
   midi.NoteOnEvent(tick=0, channel=9, data=[57, 0]),
   midi.NoteOnEvent(tick=0, channel=9, data=[36, 127]),
   midi.NoteOnEvent(tick=0, channel=9, data=[57, 127]),
   midi.NoteOnEvent(tick=60, channel=9, data=[36, 0]),
   midi.NoteOnEvent(tick=0, channel=9, data=[36, 127]),
   midi.NoteOnEvent(tick=55, channel=9, data=[38, 75]),
   midi.NoteOnEvent(tick=5, channel=9, data=[57, 0]),
   midi.NoteOnEvent(tick=0, channel=9, data=[36, 0]),
   midi.NoteOnEvent(tick=0, channel=9, data=[38, 0]),
   midi.NoteOnEvent(tick=0, channel=9, data=[38, 127]),
   midi.NoteOnEvent(tick=120, channel=9, data=[38, 0]),
   midi.NoteOnEvent(tick=0, channel=9, data=[36, 127]),
   midi.NoteOnEvent(tick=0, channel=9, data=[57, 127]),
   midi.NoteOnEvent(tick=120, channel=9, data=[36, 0]),
   midi.NoteOnEvent(tick=0, channel=9, data=[57, 0]),
   midi.NoteOnEvent(tick=0, channel=9, data=[59, 127]),
   midi.NoteOnEvent(tick=60, channel=9, data=[36, 127]),
   midi.NoteOnEvent(tick=60, channel=9, data=[59, 0]),
   midi.NoteOnEvent(tick=0, channel=9, data=[36, 0]),
   midi.NoteOnEvent(tick=0, channel=9, data=[36, 127]),
   midi.NoteOnEvent(tick=0, channel=9, data=[38, 127]),
   midi.NoteOnEvent(tick=0, channel=9, data=[59, 127]),
   midi.NoteOnEvent(tick=120, channel=9, data=[36, 0]),
   midi.NoteOnEvent(tick=0, channel=9, data=[38, 0]),
   midi.NoteOnEvent(tick=0, channel=9, data=[59, 0]),
   midi.NoteOnEvent(tick=0, channel=9, data=[59, 127]),
   midi.NoteOnEvent(tick=120, channel=9, data=[59, 0]),
   midi.NoteOnEvent(tick=0, channel=9, data=[36, 127]),
   midi.NoteOnEvent(tick=0, channel=9, data=[59, 127]),
   midi.NoteOnEvent(tick=120, channel=9, data=[36, 0]),
   midi.NoteOnEvent(tick=0, channel=9, data=[59, 0]),
   midi.NoteOnEvent(tick=0, channel=9, data=[59, 127]),
   midi.NoteOnEvent(tick=60, channel=9, data=[36, 127]),
   midi.NoteOnEvent(tick=60, channel=9, data=[59, 0]),
   midi.NoteOnEvent(tick=0, channel=9, data=[36, 0]),
   midi.NoteOnEvent(tick=0, channel=9, data=[36, 127]),
   midi.NoteOnEvent(tick=0, channel=9, data=[38, 127]),
   midi.NoteOnEvent(tick=0, channel=9, data=[59, 127]),
   midi.NoteOnEvent(tick=120, channel=9, data=[36, 0]),
   midi.NoteOnEvent(tick=0, channel=9, data=[38, 0]),
   midi.NoteOnEvent(tick=0, channel=9, data=[59, 0]),
   midi.NoteOnEvent(tick=0, channel=9, data=[59, 127]),
   midi.NoteOnEvent(tick=120, channel=9, data=[59, 0]),
   midi.NoteOnEvent(tick=0, channel=9, data=[36, 127]),
   midi.NoteOnEvent(tick=0, channel=9, data=[59, 127]),
   midi.NoteOnEvent(tick=120, channel=9, data=[36, 0]),
   midi.NoteOnEvent(tick=0, channel=9, data=[59, 0]),
   midi.NoteOnEvent(tick=0, channel=9, data=[59, 127]),
   midi.NoteOnEvent(tick=60, channel=9, data=[36, 127]),
   midi.NoteOnEvent(tick=60, channel=9, data=[59, 0]),
   midi.NoteOnEvent(tick=0, channel=9, data=[36, 0]),
   midi.NoteOnEvent(tick=0, channel=9, data=[36, 127]),
   midi.NoteOnEvent(tick=0, channel=9, data=[38, 127]),
   midi.NoteOnEvent(tick=0, channel=9, data=[59, 127]),
   midi.NoteOnEvent(tick=120, channel=9, data=[36, 0]),
   midi.NoteOnEvent(tick=0, channel=9, data=[38, 0]),
   midi.NoteOnEvent(tick=0, channel=9, data=[59, 0]),
   midi.NoteOnEvent(tick=0, channel=9, data=[59, 127]),
   midi.NoteOnEvent(tick=120, channel=9, data=[59, 0]),
   midi.NoteOnEvent(tick=0, channel=9, data=[59, 127]),
   midi.NoteOnEvent(tick=0, channel=9, data=[36, 127]),
   midi.NoteOnEvent(tick=60, channel=9, data=[36, 0]),
   midi.NoteOnEvent(tick=0, channel=9, data=[36, 127]),
   midi.NoteOnEvent(tick=60, channel=9, data=[59, 0]),
   midi.NoteOnEvent(tick=0, channel=9, data=[36, 0]),
   midi.NoteOnEvent(tick=0, channel=9, data=[38, 127]),
   midi.NoteOnEvent(tick=0, channel=9, data=[57, 127]),
   midi.NoteOnEvent(tick=120, channel=9, data=[38, 0]),
   midi.NoteOnEvent(tick=0, channel=9, data=[57, 0]),
   midi.NoteOnEvent(tick=0, channel=9, data=[59, 127]),
   midi.NoteOnEvent(tick=0, channel=9, data=[36, 127]),
   midi.NoteOnEvent(tick=60, channel=9, data=[36, 0]),
   midi.NoteOnEvent(tick=0, channel=9, data=[36, 127]),
   midi.NoteOnEvent(tick=60, channel=9, data=[59, 0]),
   midi.NoteOnEvent(tick=0, channel=9, data=[36, 0]),
   midi.NoteOnEvent(tick=0, channel=9, data=[38, 127]),
   midi.NoteOnEvent(tick=0, channel=9, data=[57, 127]),
   midi.NoteOnEvent(tick=120, channel=9, data=[38, 0]),
   midi.NoteOnEvent(tick=0, channel=9, data=[57, 0]),
   midi.NoteOnEvent(tick=0, channel=9, data=[59, 127]),
   midi.NoteOnEvent(tick=0, channel=9, data=[36, 127]),
   midi.NoteOnEvent(tick=120, channel=9, data=[59, 0]),
   midi.NoteOnEvent(tick=0, channel=9, data=[36, 0]),
   midi.NoteOnEvent(tick=0, channel=9, data=[59, 127]),
   midi.NoteOnEvent(tick=60, channel=9, data=[36, 127]),
   midi.NoteOnEvent(tick=60, channel=9, data=[59, 0]),
   midi.NoteOnEvent(tick=0, channel=9, data=[36, 0]),
   midi.NoteOnEvent(tick=0, channel=9, data=[59, 127]),
   midi.NoteOnEvent(tick=0, channel=9, data=[38, 127]),
   midi.NoteOnEvent(tick=0, channel=9, data=[36, 127]),
   midi.NoteOnEvent(tick=120, channel=9, data=[59, 0]),
   midi.NoteOnEvent(tick=0, channel=9, data=[38, 0]),
   midi.NoteOnEvent(tick=0, channel=9, data=[36, 0]),
   midi.NoteOnEvent(tick=0, channel=9, data=[59, 127]),
   midi.NoteOnEvent(tick=120, channel=9, data=[59, 0]),
   midi.NoteOnEvent(tick=0, channel=9, data=[36, 127]),
   midi.NoteOnEvent(tick=0, channel=9, data=[59, 127]),
   midi.NoteOnEvent(tick=120, channel=9, data=[36, 0]),
   midi.NoteOnEvent(tick=0, channel=9, data=[59, 0]),
   midi.NoteOnEvent(tick=0, channel=9, data=[59, 127]),
   midi.NoteOnEvent(tick=0, channel=9, data=[36, 127]),
   midi.NoteOnEvent(tick=60, channel=9, data=[36, 0]),
   midi.NoteOnEvent(tick=0, channel=9, data=[36, 127]),
   midi.NoteOnEvent(tick=60, channel=9, data=[59, 0]),
   midi.NoteOnEvent(tick=0, channel=9, data=[36, 0]),
   midi.NoteOnEvent(tick=0, channel=9, data=[38, 127]),
   midi.NoteOnEvent(tick=0, channel=9, data=[59, 127]),
   midi.NoteOnEvent(tick=120, channel=9, data=[38, 0]),
   midi.NoteOnEvent(tick=0, channel=9, data=[59, 0]),
   midi.NoteOnEvent(tick=0, channel=9, data=[59, 127]),
   midi.NoteOnEvent(tick=120, channel=9, data=[59, 0]),
   midi.NoteOnEvent(tick=0, channel=9, data=[36, 127]),
   midi.NoteOnEvent(tick=0, channel=9, data=[57, 127]),
   midi.NoteOnEvent(tick=60, channel=9, data=[36, 0]),
   midi.NoteOnEvent(tick=0, channel=9, data=[36, 127]),
   midi.NoteOnEvent(tick=60, channel=9, data=[57, 0]),
   midi.NoteOnEvent(tick=0, channel=9, data=[36, 0]),
   midi.NoteOnEvent(tick=0, channel=9, data=[38, 127]),
   midi.NoteOnEvent(tick=0, channel=9, data=[57, 127]),
   midi.NoteOnEvent(tick=120, channel=9, data=[38, 0]),
   midi.NoteOnEvent(tick=0, channel=9, data=[57, 0]),
   midi.NoteOnEvent(tick=0, channel=9, data=[36, 127]),
   midi.NoteOnEvent(tick=0, channel=9, data=[57, 127]),
   midi.NoteOnEvent(tick=60, channel=9, data=[36, 0]),
   midi.NoteOnEvent(tick=0, channel=9, data=[36, 127]),
   midi.NoteOnEvent(tick=60, channel=9, data=[57, 0]),
   midi.NoteOnEvent(tick=0, channel=9, data=[36, 0]),
   midi.NoteOnEvent(tick=0, channel=9, data=[38, 127]),
   midi.NoteOnEvent(tick=0, channel=9, data=[57, 127]),
   midi.NoteOnEvent(tick=120, channel=9, data=[38, 0]),
   midi.NoteOnEvent(tick=0, channel=9, data=[57, 0]),
   midi.NoteOnEvent(tick=0, channel=9, data=[36, 127]),
   midi.NoteOnEvent(tick=0, channel=9, data=[57, 127]),
   midi.NoteOnEvent(tick=120, channel=9, data=[36, 0]),
   midi.NoteOnEvent(tick=0, channel=9, data=[57, 0]),
   midi.NoteOnEvent(tick=0, channel=9, data=[59, 127]),
   midi.NoteOnEvent(tick=60, channel=9, data=[36, 127]),
   midi.NoteOnEvent(tick=60, channel=9, data=[59, 0]),
   midi.NoteOnEvent(tick=0, channel=9, data=[36, 0]),
   midi.NoteOnEvent(tick=0, channel=9, data=[36, 127]),
   midi.NoteOnEvent(tick=0, channel=9, data=[38, 127]),
   midi.NoteOnEvent(tick=0, channel=9, data=[59, 127]),
   midi.NoteOnEvent(tick=120, channel=9, data=[36, 0]),
   midi.NoteOnEvent(tick=0, channel=9, data=[38, 0]),
   midi.NoteOnEvent(tick=0, channel=9, data=[59, 0]),
   midi.NoteOnEvent(tick=0, channel=9, data=[59, 127]),
   midi.NoteOnEvent(tick=120, channel=9, data=[59, 0]),
   midi.NoteOnEvent(tick=0, channel=9, data=[36, 127]),
   midi.NoteOnEvent(tick=0, channel=9, data=[59, 127]),
   midi.NoteOnEvent(tick=120, channel=9, data=[36, 0]),
   midi.NoteOnEvent(tick=0, channel=9, data=[59, 0]),
   midi.NoteOnEvent(tick=0, channel=9, data=[59, 127]),
   midi.NoteOnEvent(tick=60, channel=9, data=[36, 127]),
   midi.NoteOnEvent(tick=60, channel=9, data=[59, 0]),
   midi.NoteOnEvent(tick=0, channel=9, data=[36, 0]),
   midi.NoteOnEvent(tick=0, channel=9, data=[36, 127]),
   midi.NoteOnEvent(tick=0, channel=9, data=[38, 127]),
   midi.NoteOnEvent(tick=0, channel=9, data=[59, 127]),
   midi.NoteOnEvent(tick=120, channel=9, data=[36, 0]),
   midi.NoteOnEvent(tick=0, channel=9, data=[38, 0]),
   midi.NoteOnEvent(tick=0, channel=9, data=[59, 0]),
   midi.NoteOnEvent(tick=0, channel=9, data=[59, 127]),
   midi.NoteOnEvent(tick=120, channel=9, data=[59, 0]),
   midi.NoteOnEvent(tick=0, channel=9, data=[36, 127]),
   midi.NoteOnEvent(tick=0, channel=9, data=[59, 127]),
   midi.NoteOnEvent(tick=120, channel=9, data=[36, 0]),
   midi.NoteOnEvent(tick=0, channel=9, data=[59, 0]),
   midi.NoteOnEvent(tick=0, channel=9, data=[36, 127]),
   midi.NoteOnEvent(tick=0, channel=9, data=[59, 127]),
   midi.NoteOnEvent(tick=60, channel=9, data=[36, 0]),
   midi.NoteOnEvent(tick=0, channel=9, data=[36, 127]),
   midi.NoteOnEvent(tick=60, channel=9, data=[59, 0]),
   midi.NoteOnEvent(tick=0, channel=9, data=[36, 0]),
   midi.NoteOnEvent(tick=0, channel=9, data=[59, 127]),
   midi.NoteOnEvent(tick=0, channel=9, data=[38, 127]),
   midi.NoteOnEvent(tick=120, channel=9, data=[59, 0]),
   midi.NoteOnEvent(tick=0, channel=9, data=[38, 0]),
   midi.NoteOnEvent(tick=0, channel=9, data=[59, 127]),
   midi.NoteOnEvent(tick=120, channel=9, data=[59, 0]),
   midi.NoteOnEvent(tick=0, channel=9, data=[59, 127]),
   midi.NoteOnEvent(tick=0, channel=9, data=[36, 127]),
   midi.NoteOnEvent(tick=60, channel=9, data=[36, 0]),
   midi.NoteOnEvent(tick=0, channel=9, data=[36, 127]),
   midi.NoteOnEvent(tick=60, channel=9, data=[59, 0]),
   midi.NoteOnEvent(tick=0, channel=9, data=[36, 0]),
   midi.NoteOnEvent(tick=0, channel=9, data=[38, 127]),
   midi.NoteOnEvent(tick=0, channel=9, data=[57, 127]),
   midi.NoteOnEvent(tick=120, channel=9, data=[38, 0]),
   midi.NoteOnEvent(tick=0, channel=9, data=[57, 0]),
   midi.NoteOnEvent(tick=0, channel=9, data=[59, 127]),
   midi.NoteOnEvent(tick=0, channel=9, data=[36, 127]),
   midi.NoteOnEvent(tick=60, channel=9, data=[36, 0]),
   midi.NoteOnEvent(tick=0, channel=9, data=[36, 127]),
   midi.NoteOnEvent(tick=60, channel=9, data=[59, 0]),
   midi.NoteOnEvent(tick=0, channel=9, data=[36, 0]),
   midi.NoteOnEvent(tick=0, channel=9, data=[38, 127]),
   midi.NoteOnEvent(tick=0, channel=9, data=[57, 127]),
   midi.NoteOnEvent(tick=120, channel=9, data=[38, 0]),
   midi.NoteOnEvent(tick=0, channel=9, data=[57, 0]),
   midi.NoteOnEvent(tick=0, channel=9, data=[59, 127]),
   midi.NoteOnEvent(tick=0, channel=9, data=[36, 127]),
   midi.NoteOnEvent(tick=120, channel=9, data=[59, 0]),
   midi.NoteOnEvent(tick=0, channel=9, data=[36, 0]),
   midi.NoteOnEvent(tick=0, channel=9, data=[59, 127]),
   midi.NoteOnEvent(tick=60, channel=9, data=[36, 127]),
   midi.NoteOnEvent(tick=60, channel=9, data=[59, 0]),
   midi.NoteOnEvent(tick=0, channel=9, data=[36, 0]),
   midi.NoteOnEvent(tick=0, channel=9, data=[59, 127]),
   midi.NoteOnEvent(tick=0, channel=9, data=[38, 127]),
   midi.NoteOnEvent(tick=0, channel=9, data=[36, 127]),
   midi.NoteOnEvent(tick=120, channel=9, data=[59, 0]),
   midi.NoteOnEvent(tick=0, channel=9, data=[38, 0]),
   midi.NoteOnEvent(tick=0, channel=9, data=[36, 0]),
   midi.NoteOnEvent(tick=0, channel=9, data=[59, 127]),
   midi.NoteOnEvent(tick=120, channel=9, data=[59, 0]),
   midi.NoteOnEvent(tick=0, channel=9, data=[36, 127]),
   midi.NoteOnEvent(tick=0, channel=9, data=[59, 127]),
   midi.NoteOnEvent(tick=120, channel=9, data=[36, 0]),
   midi.NoteOnEvent(tick=0, channel=9, data=[59, 0]),
   midi.NoteOnEvent(tick=0, channel=9, data=[59, 127]),
   midi.NoteOnEvent(tick=0, channel=9, data=[36, 127]),
   midi.NoteOnEvent(tick=60, channel=9, data=[36, 0]),
   midi.NoteOnEvent(tick=0, channel=9, data=[36, 127]),
   midi.NoteOnEvent(tick=60, channel=9, data=[59, 0]),
   midi.NoteOnEvent(tick=0, channel=9, data=[36, 0]),
   midi.NoteOnEvent(tick=0, channel=9, data=[38, 127]),
   midi.NoteOnEvent(tick=0, channel=9, data=[59, 127]),
   midi.NoteOnEvent(tick=120, channel=9, data=[38, 0]),
   midi.NoteOnEvent(tick=0, channel=9, data=[59, 0]),
   midi.NoteOnEvent(tick=0, channel=9, data=[59, 127]),
   midi.NoteOnEvent(tick=120, channel=9, data=[59, 0]),
   midi.NoteOnEvent(tick=0, channel=9, data=[36, 127]),
   midi.NoteOnEvent(tick=0, channel=9, data=[57, 127]),
   midi.NoteOnEvent(tick=60, channel=9, data=[36, 0]),
   midi.NoteOnEvent(tick=0, channel=9, data=[36, 127]),
   midi.NoteOnEvent(tick=60, channel=9, data=[57, 0]),
   midi.NoteOnEvent(tick=0, channel=9, data=[36, 0]),
   midi.NoteOnEvent(tick=0, channel=9, data=[38, 127]),
   midi.NoteOnEvent(tick=0, channel=9, data=[57, 127]),
   midi.NoteOnEvent(tick=120, channel=9, data=[38, 0]),
   midi.NoteOnEvent(tick=0, channel=9, data=[57, 0]),
   midi.NoteOnEvent(tick=0, channel=9, data=[36, 127]),
   midi.NoteOnEvent(tick=0, channel=9, data=[57, 127]),
   midi.NoteOnEvent(tick=60, channel=9, data=[36, 0]),
   midi.NoteOnEvent(tick=0, channel=9, data=[36, 127]),
   midi.NoteOnEvent(tick=60, channel=9, data=[57, 0]),
   midi.NoteOnEvent(tick=0, channel=9, data=[36, 0]),
   midi.NoteOnEvent(tick=0, channel=9, data=[38, 127]),
   midi.NoteOnEvent(tick=0, channel=9, data=[57, 127]),
   midi.NoteOnEvent(tick=120, channel=9, data=[38, 0]),
   midi.NoteOnEvent(tick=0, channel=9, data=[57, 0]),
   midi.NoteOnEvent(tick=0, channel=9, data=[36, 127]),
   midi.NoteOnEvent(tick=0, channel=9, data=[57, 127]),
   midi.NoteOnEvent(tick=120, channel=9, data=[36, 0]),
   midi.NoteOnEvent(tick=0, channel=9, data=[57, 0]),
   midi.NoteOnEvent(tick=0, channel=9, data=[42, 127]),
   midi.NoteOnEvent(tick=120, channel=9, data=[42, 0]),
   midi.NoteOnEvent(tick=0, channel=9, data=[42, 127]),
   midi.NoteOnEvent(tick=120, channel=9, data=[42, 0]),
   midi.NoteOnEvent(tick=0, channel=9, data=[42, 127]),
   midi.NoteOnEvent(tick=120, channel=9, data=[42, 0]),
   midi.NoteOnEvent(tick=0, channel=9, data=[36, 127]),
   midi.NoteOnEvent(tick=0, channel=9, data=[57, 127]),
   midi.NoteOnEvent(tick=120, channel=9, data=[36, 0]),
   midi.NoteOnEvent(tick=0, channel=9, data=[57, 0]),
   midi.NoteOnEvent(tick=3420, channel=9, data=[38, 127]),
   midi.NoteOnEvent(tick=60, channel=9, data=[38, 0]),
   midi.NoteOnEvent(tick=0, channel=9, data=[36, 127]),
   midi.NoteOnEvent(tick=0, channel=9, data=[57, 127]),
   midi.NoteOnEvent(tick=120, channel=9, data=[36, 0]),
   midi.NoteOnEvent(tick=0, channel=9, data=[57, 0]),
   midi.NoteOnEvent(tick=0, channel=9, data=[36, 127]),
   midi.NoteOnEvent(tick=0, channel=9, data=[57, 127]),
   midi.NoteOnEvent(tick=120, channel=9, data=[36, 0]),
   midi.NoteOnEvent(tick=0, channel=9, data=[57, 0]),
   midi.NoteOnEvent(tick=0, channel=9, data=[36, 127]),
   midi.NoteOnEvent(tick=0, channel=9, data=[57, 127]),
   midi.NoteOnEvent(tick=120, channel=9, data=[36, 0]),
   midi.NoteOnEvent(tick=0, channel=9, data=[57, 0]),
   midi.NoteOnEvent(tick=0, channel=9, data=[42, 127]),
   midi.NoteOnEvent(tick=0, channel=9, data=[38, 127]),
   midi.NoteOnEvent(tick=120, channel=9, data=[42, 0]),
   midi.NoteOnEvent(tick=0, channel=9, data=[38, 0]),
   midi.NoteOnEvent(tick=0, channel=9, data=[36, 127]),
   midi.NoteOnEvent(tick=0, channel=9, data=[42, 127]),
   midi.NoteOnEvent(tick=60, channel=9, data=[36, 0]),
   midi.NoteOnEvent(tick=0, channel=9, data=[36, 127]),
   midi.NoteOnEvent(tick=60, channel=9, data=[42, 0]),
   midi.NoteOnEvent(tick=0, channel=9, data=[36, 0]),
   midi.NoteOnEvent(tick=0, channel=9, data=[38, 127]),
   midi.NoteOnEvent(tick=0, channel=9, data=[42, 127]),
   midi.NoteOnEvent(tick=120, channel=9, data=[38, 0]),
   midi.NoteOnEvent(tick=0, channel=9, data=[42, 0]),
   midi.NoteOnEvent(tick=0, channel=9, data=[42, 127]),
   midi.NoteOnEvent(tick=0, channel=9, data=[36, 127]),
   midi.NoteOnEvent(tick=60, channel=9, data=[36, 0]),
   midi.NoteOnEvent(tick=0, channel=9, data=[36, 127]),
   midi.NoteOnEvent(tick=60, channel=9, data=[42, 0]),
   midi.NoteOnEvent(tick=0, channel=9, data=[36, 0]),
   midi.NoteOnEvent(tick=0, channel=9, data=[38, 127]),
   midi.NoteOnEvent(tick=0, channel=9, data=[42, 127]),
   midi.NoteOnEvent(tick=120, channel=9, data=[38, 0]),
   midi.NoteOnEvent(tick=0, channel=9, data=[42, 0]),
   midi.NoteOnEvent(tick=0, channel=9, data=[42, 127]),
   midi.NoteOnEvent(tick=0, channel=9, data=[36, 127]),
   midi.NoteOnEvent(tick=60, channel=9, data=[36, 0]),
   midi.NoteOnEvent(tick=0, channel=9, data=[36, 127]),
   midi.NoteOnEvent(tick=60, channel=9, data=[42, 0]),
   midi.NoteOnEvent(tick=0, channel=9, data=[36, 0]),
   midi.NoteOnEvent(tick=0, channel=9, data=[57, 127]),
   midi.NoteOnEvent(tick=0, channel=9, data=[38, 127]),
   midi.NoteOnEvent(tick=120, channel=9, data=[57, 0]),
   midi.NoteOnEvent(tick=0, channel=9, data=[38, 0]),
   midi.NoteOnEvent(tick=0, channel=9, data=[42, 127]),
   midi.NoteOnEvent(tick=0, channel=9, data=[36, 127]),
   midi.NoteOnEvent(tick=60, channel=9, data=[36, 0]),
   midi.NoteOnEvent(tick=0, channel=9, data=[36, 127]),
   midi.NoteOnEvent(tick=60, channel=9, data=[42, 0]),
   midi.NoteOnEvent(tick=0, channel=9, data=[36, 0]),
   midi.NoteOnEvent(tick=0, channel=9, data=[38, 127]),
   midi.NoteOnEvent(tick=0, channel=9, data=[42, 127]),
   midi.NoteOnEvent(tick=120, channel=9, data=[38, 0]),
   midi.NoteOnEvent(tick=0, channel=9, data=[42, 0]),
   midi.NoteOnEvent(tick=0, channel=9, data=[42, 127]),
   midi.NoteOnEvent(tick=0, channel=9, data=[36, 127]),
   midi.NoteOnEvent(tick=60, channel=9, data=[36, 0]),
   midi.NoteOnEvent(tick=0, channel=9, data=[36, 127]),
   midi.NoteOnEvent(tick=60, channel=9, data=[42, 0]),
   midi.NoteOnEvent(tick=0, channel=9, data=[36, 0]),
   midi.NoteOnEvent(tick=0, channel=9, data=[38, 127]),
   midi.NoteOnEvent(tick=0, channel=9, data=[42, 127]),
   midi.NoteOnEvent(tick=120, channel=9, data=[38, 0]),
   midi.NoteOnEvent(tick=0, channel=9, data=[42, 0]),
   midi.NoteOnEvent(tick=0, channel=9, data=[42, 127]),
   midi.NoteOnEvent(tick=0, channel=9, data=[36, 127]),
   midi.NoteOnEvent(tick=60, channel=9, data=[36, 0]),
   midi.NoteOnEvent(tick=0, channel=9, data=[36, 127]),
   midi.NoteOnEvent(tick=60, channel=9, data=[42, 0]),
   midi.NoteOnEvent(tick=0, channel=9, data=[36, 0]),
   midi.NoteOnEvent(tick=0, channel=9, data=[38, 127]),
   midi.NoteOnEvent(tick=0, channel=9, data=[42, 127]),
   midi.NoteOnEvent(tick=120, channel=9, data=[38, 0]),
   midi.NoteOnEvent(tick=0, channel=9, data=[42, 0]),
   midi.NoteOnEvent(tick=0, channel=9, data=[57, 127]),
   midi.NoteOnEvent(tick=0, channel=9, data=[36, 127]),
   midi.NoteOnEvent(tick=120, channel=9, data=[57, 0]),
   midi.NoteOnEvent(tick=0, channel=9, data=[36, 0]),
   midi.NoteOnEvent(tick=0, channel=9, data=[57, 127]),
   midi.NoteOnEvent(tick=0, channel=9, data=[38, 127]),
   midi.NoteOnEvent(tick=120, channel=9, data=[57, 0]),
   midi.NoteOnEvent(tick=0, channel=9, data=[38, 0]),
   midi.NoteOnEvent(tick=0, channel=9, data=[36, 127]),
   midi.NoteOnEvent(tick=0, channel=9, data=[57, 127]),
   midi.NoteOnEvent(tick=120, channel=9, data=[36, 0]),
   midi.NoteOnEvent(tick=0, channel=9, data=[57, 0]),
   midi.NoteOnEvent(tick=0, channel=9, data=[42, 127]),
   midi.NoteOnEvent(tick=0, channel=9, data=[38, 127]),
   midi.NoteOnEvent(tick=120, channel=9, data=[42, 0]),
   midi.NoteOnEvent(tick=0, channel=9, data=[38, 0]),
   midi.NoteOnEvent(tick=0, channel=9, data=[36, 127]),
   midi.NoteOnEvent(tick=0, channel=9, data=[42, 127]),
   midi.NoteOnEvent(tick=60, channel=9, data=[36, 0]),
   midi.NoteOnEvent(tick=0, channel=9, data=[36, 127]),
   midi.NoteOnEvent(tick=60, channel=9, data=[42, 0]),
   midi.NoteOnEvent(tick=0, channel=9, data=[36, 0]),
   midi.NoteOnEvent(tick=0, channel=9, data=[38, 127]),
   midi.NoteOnEvent(tick=0, channel=9, data=[42, 127]),
   midi.NoteOnEvent(tick=120, channel=9, data=[38, 0]),
   midi.NoteOnEvent(tick=0, channel=9, data=[42, 0]),
   midi.NoteOnEvent(tick=0, channel=9, data=[42, 127]),
   midi.NoteOnEvent(tick=0, channel=9, data=[36, 127]),
   midi.NoteOnEvent(tick=60, channel=9, data=[36, 0]),
   midi.NoteOnEvent(tick=0, channel=9, data=[36, 127]),
   midi.NoteOnEvent(tick=60, channel=9, data=[42, 0]),
   midi.NoteOnEvent(tick=0, channel=9, data=[36, 0]),
   midi.NoteOnEvent(tick=0, channel=9, data=[38, 127]),
   midi.NoteOnEvent(tick=0, channel=9, data=[42, 127]),
   midi.NoteOnEvent(tick=120, channel=9, data=[38, 0]),
   midi.NoteOnEvent(tick=0, channel=9, data=[42, 0]),
   midi.NoteOnEvent(tick=0, channel=9, data=[42, 127]),
   midi.NoteOnEvent(tick=0, channel=9, data=[36, 127]),
   midi.NoteOnEvent(tick=60, channel=9, data=[36, 0]),
   midi.NoteOnEvent(tick=0, channel=9, data=[36, 127]),
   midi.NoteOnEvent(tick=60, channel=9, data=[42, 0]),
   midi.NoteOnEvent(tick=0, channel=9, data=[36, 0]),
   midi.NoteOnEvent(tick=0, channel=9, data=[57, 127]),
   midi.NoteOnEvent(tick=0, channel=9, data=[38, 127]),
   midi.NoteOnEvent(tick=120, channel=9, data=[57, 0]),
   midi.NoteOnEvent(tick=0, channel=9, data=[38, 0]),
   midi.NoteOnEvent(tick=0, channel=9, data=[42, 127]),
   midi.NoteOnEvent(tick=0, channel=9, data=[36, 127]),
   midi.NoteOnEvent(tick=60, channel=9, data=[36, 0]),
   midi.NoteOnEvent(tick=0, channel=9, data=[36, 127]),
   midi.NoteOnEvent(tick=60, channel=9, data=[42, 0]),
   midi.NoteOnEvent(tick=0, channel=9, data=[36, 0]),
   midi.NoteOnEvent(tick=0, channel=9, data=[38, 127]),
   midi.NoteOnEvent(tick=0, channel=9, data=[42, 127]),
   midi.NoteOnEvent(tick=120, channel=9, data=[38, 0]),
   midi.NoteOnEvent(tick=0, channel=9, data=[42, 0]),
   midi.NoteOnEvent(tick=0, channel=9, data=[42, 127]),
   midi.NoteOnEvent(tick=0, channel=9, data=[36, 127]),
   midi.NoteOnEvent(tick=60, channel=9, data=[36, 0]),
   midi.NoteOnEvent(tick=0, channel=9, data=[36, 127]),
   midi.NoteOnEvent(tick=60, channel=9, data=[42, 0]),
   midi.NoteOnEvent(tick=0, channel=9, data=[36, 0]),
   midi.NoteOnEvent(tick=0, channel=9, data=[38, 127]),
   midi.NoteOnEvent(tick=0, channel=9, data=[42, 127]),
   midi.NoteOnEvent(tick=120, channel=9, data=[38, 0]),
   midi.NoteOnEvent(tick=0, channel=9, data=[42, 0]),
   midi.NoteOnEvent(tick=0, channel=9, data=[42, 127]),
   midi.NoteOnEvent(tick=0, channel=9, data=[36, 127]),
   midi.NoteOnEvent(tick=60, channel=9, data=[36, 0]),
   midi.NoteOnEvent(tick=0, channel=9, data=[36, 127]),
   midi.NoteOnEvent(tick=60, channel=9, data=[42, 0]),
   midi.NoteOnEvent(tick=0, channel=9, data=[36, 0]),
   midi.NoteOnEvent(tick=0, channel=9, data=[38, 127]),
   midi.NoteOnEvent(tick=0, channel=9, data=[42, 127]),
   midi.NoteOnEvent(tick=120, channel=9, data=[38, 0]),
   midi.NoteOnEvent(tick=0, channel=9, data=[42, 0]),
   midi.NoteOnEvent(tick=0, channel=9, data=[57, 127]),
   midi.NoteOnEvent(tick=0, channel=9, data=[36, 127]),
   midi.NoteOnEvent(tick=120, channel=9, data=[57, 0]),
   midi.NoteOnEvent(tick=0, channel=9, data=[36, 0]),
   midi.NoteOnEvent(tick=0, channel=9, data=[57, 127]),
   midi.NoteOnEvent(tick=0, channel=9, data=[38, 127]),
   midi.NoteOnEvent(tick=120, channel=9, data=[57, 0]),
   midi.NoteOnEvent(tick=0, channel=9, data=[38, 0]),
   midi.NoteOnEvent(tick=0, channel=9, data=[36, 127]),
   midi.NoteOnEvent(tick=0, channel=9, data=[57, 127]),
   midi.NoteOnEvent(tick=120, channel=9, data=[36, 0]),
   midi.NoteOnEvent(tick=0, channel=9, data=[57, 0]),
   midi.NoteOnEvent(tick=0, channel=9, data=[42, 127]),
   midi.NoteOnEvent(tick=0, channel=9, data=[38, 127]),
   midi.NoteOnEvent(tick=120, channel=9, data=[42, 0]),
   midi.NoteOnEvent(tick=0, channel=9, data=[38, 0]),
   midi.NoteOnEvent(tick=0, channel=9, data=[36, 127]),
   midi.NoteOnEvent(tick=0, channel=9, data=[42, 127]),
   midi.NoteOnEvent(tick=60, channel=9, data=[36, 0]),
   midi.NoteOnEvent(tick=0, channel=9, data=[36, 127]),
   midi.NoteOnEvent(tick=60, channel=9, data=[42, 0]),
   midi.NoteOnEvent(tick=0, channel=9, data=[36, 0]),
   midi.NoteOnEvent(tick=0, channel=9, data=[42, 127]),
   midi.NoteOnEvent(tick=120, channel=9, data=[42, 0]),
   midi.NoteOnEvent(tick=0, channel=9, data=[42, 127]),
   midi.NoteOnEvent(tick=0, channel=9, data=[36, 127]),
   midi.NoteOnEvent(tick=60, channel=9, data=[36, 0]),
   midi.NoteOnEvent(tick=0, channel=9, data=[36, 127]),
   midi.NoteOnEvent(tick=60, channel=9, data=[42, 0]),
   midi.NoteOnEvent(tick=0, channel=9, data=[36, 0]),
   midi.NoteOnEvent(tick=0, channel=9, data=[38, 127]),
   midi.NoteOnEvent(tick=0, channel=9, data=[42, 127]),
   midi.NoteOnEvent(tick=120, channel=9, data=[38, 0]),
   midi.NoteOnEvent(tick=0, channel=9, data=[42, 0]),
   midi.NoteOnEvent(tick=0, channel=9, data=[42, 127]),
   midi.NoteOnEvent(tick=0, channel=9, data=[36, 127]),
   midi.NoteOnEvent(tick=60, channel=9, data=[36, 0]),
   midi.NoteOnEvent(tick=0, channel=9, data=[36, 127]),
   midi.NoteOnEvent(tick=60, channel=9, data=[42, 0]),
   midi.NoteOnEvent(tick=0, channel=9, data=[36, 0]),
   midi.NoteOnEvent(tick=0, channel=9, data=[57, 127]),
   midi.NoteOnEvent(tick=0, channel=9, data=[38, 127]),
   midi.NoteOnEvent(tick=120, channel=9, data=[57, 0]),
   midi.NoteOnEvent(tick=0, channel=9, data=[38, 0]),
   midi.NoteOnEvent(tick=0, channel=9, data=[42, 127]),
   midi.NoteOnEvent(tick=0, channel=9, data=[36, 127]),
   midi.NoteOnEvent(tick=60, channel=9, data=[36, 0]),
   midi.NoteOnEvent(tick=0, channel=9, data=[36, 127]),
   midi.NoteOnEvent(tick=60, channel=9, data=[42, 0]),
   midi.NoteOnEvent(tick=0, channel=9, data=[36, 0]),
   midi.NoteOnEvent(tick=0, channel=9, data=[38, 127]),
   midi.NoteOnEvent(tick=0, channel=9, data=[42, 127]),
   midi.NoteOnEvent(tick=120, channel=9, data=[38, 0]),
   midi.NoteOnEvent(tick=0, channel=9, data=[42, 0]),
   midi.NoteOnEvent(tick=0, channel=9, data=[42, 127]),
   midi.NoteOnEvent(tick=0, channel=9, data=[36, 127]),
   midi.NoteOnEvent(tick=60, channel=9, data=[36, 0]),
   midi.NoteOnEvent(tick=0, channel=9, data=[36, 127]),
   midi.NoteOnEvent(tick=60, channel=9, data=[42, 0]),
   midi.NoteOnEvent(tick=0, channel=9, data=[36, 0]),
   midi.NoteOnEvent(tick=0, channel=9, data=[38, 127]),
   midi.NoteOnEvent(tick=0, channel=9, data=[42, 127]),
   midi.NoteOnEvent(tick=120, channel=9, data=[38, 0]),
   midi.NoteOnEvent(tick=0, channel=9, data=[42, 0]),
   midi.NoteOnEvent(tick=0, channel=9, data=[42, 127]),
   midi.NoteOnEvent(tick=0, channel=9, data=[36, 127]),
   midi.NoteOnEvent(tick=60, channel=9, data=[36, 0]),
   midi.NoteOnEvent(tick=0, channel=9, data=[36, 127]),
   midi.NoteOnEvent(tick=60, channel=9, data=[42, 0]),
   midi.NoteOnEvent(tick=0, channel=9, data=[36, 0]),
   midi.NoteOnEvent(tick=0, channel=9, data=[38, 127]),
   midi.NoteOnEvent(tick=0, channel=9, data=[42, 127]),
   midi.NoteOnEvent(tick=120, channel=9, data=[38, 0]),
   midi.NoteOnEvent(tick=0, channel=9, data=[42, 0]),
   midi.NoteOnEvent(tick=0, channel=9, data=[42, 127]),
   midi.NoteOnEvent(tick=0, channel=9, data=[36, 127]),
   midi.NoteOnEvent(tick=60, channel=9, data=[36, 0]),
   midi.NoteOnEvent(tick=0, channel=9, data=[36, 127]),
   midi.NoteOnEvent(tick=60, channel=9, data=[42, 0]),
   midi.NoteOnEvent(tick=0, channel=9, data=[36, 0]),
   midi.NoteOnEvent(tick=0, channel=9, data=[57, 127]),
   midi.NoteOnEvent(tick=0, channel=9, data=[38, 127]),
   midi.NoteOnEvent(tick=120, channel=9, data=[57, 0]),
   midi.NoteOnEvent(tick=0, channel=9, data=[38, 0]),
   midi.NoteOnEvent(tick=0, channel=9, data=[42, 127]),
   midi.NoteOnEvent(tick=0, channel=9, data=[36, 127]),
   midi.NoteOnEvent(tick=60, channel=9, data=[36, 0]),
   midi.NoteOnEvent(tick=0, channel=9, data=[36, 127]),
   midi.NoteOnEvent(tick=60, channel=9, data=[42, 0]),
   midi.NoteOnEvent(tick=0, channel=9, data=[36, 0]),
   midi.NoteOnEvent(tick=0, channel=9, data=[38, 127]),
   midi.NoteOnEvent(tick=0, channel=9, data=[42, 127]),
   midi.NoteOnEvent(tick=120, channel=9, data=[38, 0]),
   midi.NoteOnEvent(tick=0, channel=9, data=[42, 0]),
   midi.NoteOnEvent(tick=0, channel=9, data=[42, 127]),
   midi.NoteOnEvent(tick=0, channel=9, data=[36, 127]),
   midi.NoteOnEvent(tick=60, channel=9, data=[36, 0]),
   midi.NoteOnEvent(tick=0, channel=9, data=[36, 127]),
   midi.NoteOnEvent(tick=60, channel=9, data=[42, 0]),
   midi.NoteOnEvent(tick=0, channel=9, data=[36, 0]),
   midi.NoteOnEvent(tick=0, channel=9, data=[38, 127]),
   midi.NoteOnEvent(tick=0, channel=9, data=[42, 127]),
   midi.NoteOnEvent(tick=120, channel=9, data=[38, 0]),
   midi.NoteOnEvent(tick=0, channel=9, data=[42, 0]),
   midi.NoteOnEvent(tick=0, channel=9, data=[42, 127]),
   midi.NoteOnEvent(tick=0, channel=9, data=[36, 127]),
   midi.NoteOnEvent(tick=60, channel=9, data=[36, 0]),
   midi.NoteOnEvent(tick=0, channel=9, data=[36, 127]),
   midi.NoteOnEvent(tick=60, channel=9, data=[42, 0]),
   midi.NoteOnEvent(tick=0, channel=9, data=[36, 0]),
   midi.NoteOnEvent(tick=0, channel=9, data=[38, 127]),
   midi.NoteOnEvent(tick=0, channel=9, data=[42, 127]),
   midi.NoteOnEvent(tick=120, channel=9, data=[38, 0]),
   midi.NoteOnEvent(tick=0, channel=9, data=[42, 0]),
   midi.NoteOnEvent(tick=0, channel=9, data=[57, 127]),
   midi.NoteOnEvent(tick=0, channel=9, data=[36, 127]),
   midi.NoteOnEvent(tick=60, channel=9, data=[36, 0]),
   midi.NoteOnEvent(tick=0, channel=9, data=[36, 127]),
   midi.NoteOnEvent(tick=60, channel=9, data=[57, 0]),
   midi.NoteOnEvent(tick=0, channel=9, data=[36, 0]),
   midi.NoteOnEvent(tick=0, channel=9, data=[38, 127]),
   midi.NoteOnEvent(tick=0, channel=9, data=[57, 127]),
   midi.NoteOnEvent(tick=120, channel=9, data=[38, 0]),
   midi.NoteOnEvent(tick=0, channel=9, data=[57, 0]),
   midi.NoteOnEvent(tick=0, channel=9, data=[57, 127]),
   midi.NoteOnEvent(tick=0, channel=9, data=[36, 127]),
   midi.NoteOnEvent(tick=120, channel=9, data=[57, 0]),
   midi.NoteOnEvent(tick=0, channel=9, data=[36, 0]),
   midi.NoteOnEvent(tick=0, channel=9, data=[42, 127]),
   midi.NoteOnEvent(tick=0, channel=9, data=[38, 127]),
   midi.NoteOnEvent(tick=120, channel=9, data=[42, 0]),
   midi.NoteOnEvent(tick=0, channel=9, data=[38, 0]),
   midi.NoteOnEvent(tick=0, channel=9, data=[42, 127]),
   midi.NoteOnEvent(tick=0, channel=9, data=[36, 127]),
   midi.NoteOnEvent(tick=60, channel=9, data=[36, 0]),
   midi.NoteOnEvent(tick=0, channel=9, data=[36, 127]),
   midi.NoteOnEvent(tick=60, channel=9, data=[42, 0]),
   midi.NoteOnEvent(tick=0, channel=9, data=[36, 0]),
   midi.NoteOnEvent(tick=0, channel=9, data=[38, 127]),
   midi.NoteOnEvent(tick=0, channel=9, data=[42, 127]),
   midi.NoteOnEvent(tick=120, channel=9, data=[38, 0]),
   midi.NoteOnEvent(tick=0, channel=9, data=[42, 0]),
   midi.NoteOnEvent(tick=0, channel=9, data=[42, 127]),
   midi.NoteOnEvent(tick=0, channel=9, data=[36, 127]),
   midi.NoteOnEvent(tick=60, channel=9, data=[36, 0]),
   midi.NoteOnEvent(tick=0, channel=9, data=[36, 127]),
   midi.NoteOnEvent(tick=60, channel=9, data=[42, 0]),
   midi.NoteOnEvent(tick=0, channel=9, data=[36, 0]),
   midi.NoteOnEvent(tick=0, channel=9, data=[38, 127]),
   midi.NoteOnEvent(tick=0, channel=9, data=[42, 127]),
   midi.NoteOnEvent(tick=120, channel=9, data=[38, 0]),
   midi.NoteOnEvent(tick=0, channel=9, data=[42, 0]),
   midi.NoteOnEvent(tick=0, channel=9, data=[42, 127]),
   midi.NoteOnEvent(tick=0, channel=9, data=[36, 127]),
   midi.NoteOnEvent(tick=60, channel=9, data=[36, 0]),
   midi.NoteOnEvent(tick=0, channel=9, data=[36, 127]),
   midi.NoteOnEvent(tick=60, channel=9, data=[42, 0]),
   midi.NoteOnEvent(tick=0, channel=9, data=[36, 0]),
   midi.NoteOnEvent(tick=0, channel=9, data=[38, 127]),
   midi.NoteOnEvent(tick=0, channel=9, data=[42, 127]),
   midi.NoteOnEvent(tick=120, channel=9, data=[38, 0]),
   midi.NoteOnEvent(tick=0, channel=9, data=[42, 0]),
   midi.NoteOnEvent(tick=0, channel=9, data=[57, 127]),
   midi.NoteOnEvent(tick=0, channel=9, data=[36, 127]),
   midi.NoteOnEvent(tick=40, channel=9, data=[57, 0]),
   midi.NoteOnEvent(tick=0, channel=9, data=[38, 127]),
   midi.NoteOnEvent(tick=40, channel=9, data=[38, 0]),
   midi.NoteOnEvent(tick=0, channel=9, data=[38, 127]),
   midi.NoteOnEvent(tick=40, channel=9, data=[36, 0]),
   midi.NoteOnEvent(tick=0, channel=9, data=[38, 0]),
   midi.NoteOnEvent(tick=0, channel=9, data=[57, 127]),
   midi.NoteOnEvent(tick=0, channel=9, data=[36, 127]),
   midi.NoteOnEvent(tick=80, channel=9, data=[57, 0]),
   midi.NoteOnEvent(tick=0, channel=9, data=[38, 127]),
   midi.NoteOnEvent(tick=40, channel=9, data=[36, 0]),
   midi.NoteOnEvent(tick=0, channel=9, data=[38, 0]),
   midi.NoteOnEvent(tick=0, channel=9, data=[57, 127]),
   midi.NoteOnEvent(tick=0, channel=9, data=[36, 127]),
   midi.NoteOnEvent(tick=80, channel=9, data=[57, 0]),
   midi.NoteOnEvent(tick=0, channel=9, data=[38, 127]),
   midi.NoteOnEvent(tick=40, channel=9, data=[36, 0]),
   midi.NoteOnEvent(tick=0, channel=9, data=[38, 0]),
   midi.NoteOnEvent(tick=0, channel=9, data=[57, 127]),
   midi.NoteOnEvent(tick=0, channel=9, data=[36, 127]),
   midi.NoteOnEvent(tick=40, channel=9, data=[57, 0]),
   midi.NoteOnEvent(tick=0, channel=9, data=[38, 127]),
   midi.NoteOnEvent(tick=40, channel=9, data=[38, 0]),
   midi.NoteOnEvent(tick=0, channel=9, data=[38, 127]),
   midi.NoteOnEvent(tick=40, channel=9, data=[36, 0]),
   midi.NoteOnEvent(tick=0, channel=9, data=[38, 0]),
   midi.NoteOnEvent(tick=0, channel=9, data=[36, 127]),
   midi.NoteOnEvent(tick=0, channel=9, data=[57, 127]),
   midi.NoteOnEvent(tick=80, channel=9, data=[57, 0]),
   midi.NoteOnEvent(tick=0, channel=9, data=[38, 127]),
   midi.NoteOnEvent(tick=40, channel=9, data=[36, 0]),
   midi.NoteOnEvent(tick=0, channel=9, data=[38, 0]),
   midi.NoteOnEvent(tick=0, channel=9, data=[36, 127]),
   midi.NoteOnEvent(tick=0, channel=9, data=[57, 127]),
   midi.NoteOnEvent(tick=40, channel=9, data=[57, 0]),
   midi.NoteOnEvent(tick=0, channel=9, data=[38, 127]),
   midi.NoteOnEvent(tick=40, channel=9, data=[38, 0]),
   midi.NoteOnEvent(tick=0, channel=9, data=[38, 127]),
   midi.NoteOnEvent(tick=40, channel=9, data=[36, 0]),
   midi.NoteOnEvent(tick=0, channel=9, data=[38, 0]),
   midi.NoteOnEvent(tick=0, channel=9, data=[57, 127]),
   midi.NoteOnEvent(tick=0, channel=9, data=[36, 127]),
   midi.NoteOnEvent(tick=120, channel=9, data=[57, 0]),
   midi.NoteOnEvent(tick=0, channel=9, data=[36, 0]),
   midi.NoteOnEvent(tick=60, channel=9, data=[36, 127]),
   midi.NoteOnEvent(tick=0, channel=9, data=[57, 127]),
   midi.NoteOnEvent(tick=60, channel=9, data=[36, 0]),
   midi.NoteOnEvent(tick=0, channel=9, data=[57, 0]),
   midi.NoteOnEvent(tick=60, channel=9, data=[57, 127]),
   midi.NoteOnEvent(tick=0, channel=9, data=[36, 127]),
   midi.NoteOnEvent(tick=60, channel=9, data=[57, 0]),
   midi.NoteOnEvent(tick=0, channel=9, data=[36, 0]),
   midi.NoteOnEvent(tick=60, channel=9, data=[38, 127]),
   midi.NoteOnEvent(tick=60, channel=9, data=[38, 0]),
   midi.NoteOnEvent(tick=0, channel=9, data=[36, 127]),
   midi.NoteOnEvent(tick=0, channel=9, data=[57, 127]),
   midi.NoteOnEvent(tick=120, channel=9, data=[36, 0]),
   midi.NoteOnEvent(tick=0, channel=9, data=[57, 0]),
   midi.NoteOnEvent(tick=0, channel=9, data=[42, 127]),
   midi.NoteOnEvent(tick=0, channel=9, data=[38, 127]),
   midi.NoteOnEvent(tick=120, channel=9, data=[42, 0]),
   midi.NoteOnEvent(tick=0, channel=9, data=[38, 0]),
   midi.NoteOnEvent(tick=0, channel=9, data=[42, 127]),
   midi.NoteOnEvent(tick=60, channel=9, data=[36, 127]),
   midi.NoteOnEvent(tick=60, channel=9, data=[42, 0]),
   midi.NoteOnEvent(tick=0, channel=9, data=[36, 0]),
   midi.NoteOnEvent(tick=0, channel=9, data=[38, 127]),
   midi.NoteOnEvent(tick=0, channel=9, data=[42, 127]),
   midi.NoteOnEvent(tick=120, channel=9, data=[38, 0]),
   midi.NoteOnEvent(tick=0, channel=9, data=[42, 0]),
   midi.NoteOnEvent(tick=0, channel=9, data=[42, 127]),
   midi.NoteOnEvent(tick=60, channel=9, data=[36, 127]),
   midi.NoteOnEvent(tick=60, channel=9, data=[42, 0]),
   midi.NoteOnEvent(tick=0, channel=9, data=[36, 0]),
   midi.NoteOnEvent(tick=0, channel=9, data=[38, 127]),
   midi.NoteOnEvent(tick=0, channel=9, data=[42, 127]),
   midi.NoteOnEvent(tick=120, channel=9, data=[38, 0]),
   midi.NoteOnEvent(tick=0, channel=9, data=[42, 0]),
   midi.NoteOnEvent(tick=0, channel=9, data=[42, 127]),
   midi.NoteOnEvent(tick=60, channel=9, data=[36, 127]),
   midi.NoteOnEvent(tick=20, channel=9, data=[36, 0]),
   midi.NoteOnEvent(tick=0, channel=9, data=[36, 127]),
   midi.NoteOnEvent(tick=20, channel=9, data=[36, 0]),
   midi.NoteOnEvent(tick=0, channel=9, data=[36, 127]),
   midi.NoteOnEvent(tick=20, channel=9, data=[42, 0]),
   midi.NoteOnEvent(tick=0, channel=9, data=[36, 0]),
   midi.NoteOnEvent(tick=0, channel=9, data=[38, 127]),
   midi.NoteOnEvent(tick=0, channel=9, data=[42, 127]),
   midi.NoteOnEvent(tick=120, channel=9, data=[38, 0]),
   midi.NoteOnEvent(tick=0, channel=9, data=[42, 0]),
   midi.NoteOnEvent(tick=0, channel=9, data=[42, 127]),
   midi.NoteOnEvent(tick=60, channel=9, data=[36, 127]),
   midi.NoteOnEvent(tick=60, channel=9, data=[42, 0]),
   midi.NoteOnEvent(tick=0, channel=9, data=[36, 0]),
   midi.NoteOnEvent(tick=0, channel=9, data=[38, 127]),
   midi.NoteOnEvent(tick=0, channel=9, data=[42, 127]),
   midi.NoteOnEvent(tick=120, channel=9, data=[38, 0]),
   midi.NoteOnEvent(tick=0, channel=9, data=[42, 0]),
   midi.NoteOnEvent(tick=0, channel=9, data=[42, 127]),
   midi.NoteOnEvent(tick=60, channel=9, data=[36, 127]),
   midi.NoteOnEvent(tick=60, channel=9, data=[42, 0]),
   midi.NoteOnEvent(tick=0, channel=9, data=[36, 0]),
   midi.NoteOnEvent(tick=0, channel=9, data=[38, 127]),
   midi.NoteOnEvent(tick=0, channel=9, data=[42, 127]),
   midi.NoteOnEvent(tick=120, channel=9, data=[38, 0]),
   midi.NoteOnEvent(tick=0, channel=9, data=[42, 0]),
   midi.NoteOnEvent(tick=0, channel=9, data=[42, 127]),
   midi.NoteOnEvent(tick=60, channel=9, data=[36, 127]),
   midi.NoteOnEvent(tick=60, channel=9, data=[42, 0]),
   midi.NoteOnEvent(tick=0, channel=9, data=[36, 0]),
   midi.NoteOnEvent(tick=0, channel=9, data=[38, 127]),
   midi.NoteOnEvent(tick=0, channel=9, data=[42, 127]),
   midi.NoteOnEvent(tick=120, channel=9, data=[38, 0]),
   midi.NoteOnEvent(tick=0, channel=9, data=[42, 0]),
   midi.NoteOnEvent(tick=0, channel=9, data=[42, 127]),
   midi.NoteOnEvent(tick=60, channel=9, data=[36, 127]),
   midi.NoteOnEvent(tick=20, channel=9, data=[36, 0]),
   midi.NoteOnEvent(tick=0, channel=9, data=[36, 127]),
   midi.NoteOnEvent(tick=20, channel=9, data=[36, 0]),
   midi.NoteOnEvent(tick=0, channel=9, data=[36, 127]),
   midi.NoteOnEvent(tick=20, channel=9, data=[42, 0]),
   midi.NoteOnEvent(tick=0, channel=9, data=[36, 0]),
   midi.NoteOnEvent(tick=0, channel=9, data=[38, 127]),
   midi.NoteOnEvent(tick=0, channel=9, data=[42, 127]),
   midi.NoteOnEvent(tick=120, channel=9, data=[38, 0]),
   midi.NoteOnEvent(tick=0, channel=9, data=[42, 0]),
   midi.NoteOnEvent(tick=0, channel=9, data=[42, 127]),
   midi.NoteOnEvent(tick=60, channel=9, data=[36, 127]),
   midi.NoteOnEvent(tick=60, channel=9, data=[42, 0]),
   midi.NoteOnEvent(tick=0, channel=9, data=[36, 0]),
   midi.NoteOnEvent(tick=0, channel=9, data=[57, 127]),
   midi.NoteOnEvent(tick=0, channel=9, data=[38, 127]),
   midi.NoteOnEvent(tick=120, channel=9, data=[57, 0]),
   midi.NoteOnEvent(tick=0, channel=9, data=[38, 0]),
   midi.NoteOnEvent(tick=0, channel=9, data=[42, 127]),
   midi.NoteOnEvent(tick=60, channel=9, data=[36, 127]),
   midi.NoteOnEvent(tick=60, channel=9, data=[42, 0]),
   midi.NoteOnEvent(tick=0, channel=9, data=[36, 0]),
   midi.NoteOnEvent(tick=0, channel=9, data=[38, 127]),
   midi.NoteOnEvent(tick=0, channel=9, data=[42, 127]),
   midi.NoteOnEvent(tick=120, channel=9, data=[38, 0]),
   midi.NoteOnEvent(tick=0, channel=9, data=[42, 0]),
   midi.NoteOnEvent(tick=0, channel=9, data=[42, 127]),
   midi.NoteOnEvent(tick=60, channel=9, data=[36, 127]),
   midi.NoteOnEvent(tick=60, channel=9, data=[42, 0]),
   midi.NoteOnEvent(tick=0, channel=9, data=[36, 0]),
   midi.NoteOnEvent(tick=0, channel=9, data=[38, 127]),
   midi.NoteOnEvent(tick=0, channel=9, data=[42, 127]),
   midi.NoteOnEvent(tick=120, channel=9, data=[38, 0]),
   midi.NoteOnEvent(tick=0, channel=9, data=[42, 0]),
   midi.NoteOnEvent(tick=0, channel=9, data=[42, 127]),
   midi.NoteOnEvent(tick=60, channel=9, data=[36, 127]),
   midi.NoteOnEvent(tick=20, channel=9, data=[36, 0]),
   midi.NoteOnEvent(tick=0, channel=9, data=[36, 127]),
   midi.NoteOnEvent(tick=20, channel=9, data=[36, 0]),
   midi.NoteOnEvent(tick=0, channel=9, data=[36, 127]),
   midi.NoteOnEvent(tick=20, channel=9, data=[42, 0]),
   midi.NoteOnEvent(tick=0, channel=9, data=[36, 0]),
   midi.NoteOnEvent(tick=0, channel=9, data=[38, 127]),
   midi.NoteOnEvent(tick=0, channel=9, data=[42, 127]),
   midi.NoteOnEvent(tick=120, channel=9, data=[38, 0]),
   midi.NoteOnEvent(tick=0, channel=9, data=[42, 0]),
   midi.NoteOnEvent(tick=0, channel=9, data=[42, 127]),
   midi.NoteOnEvent(tick=60, channel=9, data=[36, 127]),
   midi.NoteOnEvent(tick=60, channel=9, data=[42, 0]),
   midi.NoteOnEvent(tick=0, channel=9, data=[36, 0]),
   midi.NoteOnEvent(tick=0, channel=9, data=[38, 127]),
   midi.NoteOnEvent(tick=0, channel=9, data=[42, 127]),
   midi.NoteOnEvent(tick=120, channel=9, data=[38, 0]),
   midi.NoteOnEvent(tick=0, channel=9, data=[42, 0]),
   midi.NoteOnEvent(tick=0, channel=9, data=[42, 127]),
   midi.NoteOnEvent(tick=60, channel=9, data=[36, 127]),
   midi.NoteOnEvent(tick=60, channel=9, data=[42, 0]),
   midi.NoteOnEvent(tick=0, channel=9, data=[36, 0]),
   midi.NoteOnEvent(tick=0, channel=9, data=[38, 127]),
   midi.NoteOnEvent(tick=0, channel=9, data=[42, 127]),
   midi.NoteOnEvent(tick=120, channel=9, data=[38, 0]),
   midi.NoteOnEvent(tick=0, channel=9, data=[42, 0]),
   midi.NoteOnEvent(tick=0, channel=9, data=[42, 127]),
   midi.NoteOnEvent(tick=60, channel=9, data=[36, 127]),
   midi.NoteOnEvent(tick=60, channel=9, data=[42, 0]),
   midi.NoteOnEvent(tick=0, channel=9, data=[36, 0]),
   midi.NoteOnEvent(tick=0, channel=9, data=[38, 127]),
   midi.NoteOnEvent(tick=0, channel=9, data=[42, 127]),
   midi.NoteOnEvent(tick=120, channel=9, data=[38, 0]),
   midi.NoteOnEvent(tick=0, channel=9, data=[42, 0]),
   midi.NoteOnEvent(tick=0, channel=9, data=[42, 127]),
   midi.NoteOnEvent(tick=60, channel=9, data=[36, 127]),
   midi.NoteOnEvent(tick=20, channel=9, data=[36, 0]),
   midi.NoteOnEvent(tick=0, channel=9, data=[36, 127]),
   midi.NoteOnEvent(tick=20, channel=9, data=[36, 0]),
   midi.NoteOnEvent(tick=0, channel=9, data=[36, 127]),
   midi.NoteOnEvent(tick=20, channel=9, data=[42, 0]),
   midi.NoteOnEvent(tick=0, channel=9, data=[36, 0]),
   midi.NoteOnEvent(tick=0, channel=9, data=[38, 127]),
   midi.NoteOnEvent(tick=0, channel=9, data=[42, 127]),
   midi.NoteOnEvent(tick=120, channel=9, data=[38, 0]),
   midi.NoteOnEvent(tick=0, channel=9, data=[42, 0]),
   midi.NoteOnEvent(tick=0, channel=9, data=[42, 127]),
   midi.NoteOnEvent(tick=60, channel=9, data=[36, 127]),
   midi.NoteOnEvent(tick=60, channel=9, data=[42, 0]),
   midi.NoteOnEvent(tick=0, channel=9, data=[36, 0]),
   midi.NoteOnEvent(tick=0, channel=9, data=[57, 127]),
   midi.NoteOnEvent(tick=0, channel=9, data=[38, 127]),
   midi.NoteOnEvent(tick=120, channel=9, data=[57, 0]),
   midi.NoteOnEvent(tick=0, channel=9, data=[38, 0]),
   midi.NoteOnEvent(tick=0, channel=9, data=[42, 127]),
   midi.NoteOnEvent(tick=60, channel=9, data=[36, 127]),
   midi.NoteOnEvent(tick=60, channel=9, data=[42, 0]),
   midi.NoteOnEvent(tick=0, channel=9, data=[36, 0]),
   midi.NoteOnEvent(tick=0, channel=9, data=[38, 127]),
   midi.NoteOnEvent(tick=0, channel=9, data=[42, 127]),
   midi.NoteOnEvent(tick=120, channel=9, data=[38, 0]),
   midi.NoteOnEvent(tick=0, channel=9, data=[42, 0]),
   midi.NoteOnEvent(tick=0, channel=9, data=[42, 127]),
   midi.NoteOnEvent(tick=60, channel=9, data=[36, 127]),
   midi.NoteOnEvent(tick=60, channel=9, data=[42, 0]),
   midi.NoteOnEvent(tick=0, channel=9, data=[36, 0]),
   midi.NoteOnEvent(tick=0, channel=9, data=[38, 127]),
   midi.NoteOnEvent(tick=0, channel=9, data=[42, 127]),
   midi.NoteOnEvent(tick=120, channel=9, data=[38, 0]),
   midi.NoteOnEvent(tick=0, channel=9, data=[42, 0]),
   midi.NoteOnEvent(tick=0, channel=9, data=[42, 127]),
   midi.NoteOnEvent(tick=60, channel=9, data=[36, 127]),
   midi.NoteOnEvent(tick=60, channel=9, data=[42, 0]),
   midi.NoteOnEvent(tick=0, channel=9, data=[36, 0]),
   midi.NoteOnEvent(tick=0, channel=9, data=[38, 127]),
   midi.NoteOnEvent(tick=0, channel=9, data=[42, 127]),
   midi.NoteOnEvent(tick=120, channel=9, data=[38, 0]),
   midi.NoteOnEvent(tick=0, channel=9, data=[42, 0]),
   midi.NoteOnEvent(tick=0, channel=9, data=[42, 127]),
   midi.NoteOnEvent(tick=60, channel=9, data=[36, 127]),
   midi.NoteOnEvent(tick=60, channel=9, data=[42, 0]),
   midi.NoteOnEvent(tick=0, channel=9, data=[36, 0]),
   midi.NoteOnEvent(tick=0, channel=9, data=[38, 127]),
   midi.NoteOnEvent(tick=0, channel=9, data=[42, 127]),
   midi.NoteOnEvent(tick=120, channel=9, data=[38, 0]),
   midi.NoteOnEvent(tick=0, channel=9, data=[42, 0]),
   midi.NoteOnEvent(tick=0, channel=9, data=[42, 127]),
   midi.NoteOnEvent(tick=60, channel=9, data=[36, 127]),
   midi.NoteOnEvent(tick=20, channel=9, data=[36, 0]),
   midi.NoteOnEvent(tick=0, channel=9, data=[36, 127]),
   midi.NoteOnEvent(tick=20, channel=9, data=[36, 0]),
   midi.NoteOnEvent(tick=0, channel=9, data=[36, 127]),
   midi.NoteOnEvent(tick=20, channel=9, data=[42, 0]),
   midi.NoteOnEvent(tick=0, channel=9, data=[36, 0]),
   midi.NoteOnEvent(tick=0, channel=9, data=[38, 127]),
   midi.NoteOnEvent(tick=0, channel=9, data=[42, 127]),
   midi.NoteOnEvent(tick=120, channel=9, data=[38, 0]),
   midi.NoteOnEvent(tick=0, channel=9, data=[42, 0]),
   midi.NoteOnEvent(tick=0, channel=9, data=[42, 127]),
   midi.NoteOnEvent(tick=60, channel=9, data=[36, 127]),
   midi.NoteOnEvent(tick=60, channel=9, data=[42, 0]),
   midi.NoteOnEvent(tick=0, channel=9, data=[36, 0]),
   midi.NoteOnEvent(tick=0, channel=9, data=[38, 127]),
   midi.NoteOnEvent(tick=0, channel=9, data=[42, 127]),
   midi.NoteOnEvent(tick=120, channel=9, data=[38, 0]),
   midi.NoteOnEvent(tick=0, channel=9, data=[42, 0]),
   midi.NoteOnEvent(tick=0, channel=9, data=[42, 127]),
   midi.NoteOnEvent(tick=60, channel=9, data=[36, 127]),
   midi.NoteOnEvent(tick=60, channel=9, data=[42, 0]),
   midi.NoteOnEvent(tick=0, channel=9, data=[36, 0]),
   midi.NoteOnEvent(tick=0, channel=9, data=[38, 127]),
   midi.NoteOnEvent(tick=0, channel=9, data=[42, 127]),
   midi.NoteOnEvent(tick=120, channel=9, data=[38, 0]),
   midi.NoteOnEvent(tick=0, channel=9, data=[42, 0]),
   midi.NoteOnEvent(tick=0, channel=9, data=[42, 127]),
   midi.NoteOnEvent(tick=60, channel=9, data=[36, 127]),
   midi.NoteOnEvent(tick=60, channel=9, data=[42, 0]),
   midi.NoteOnEvent(tick=0, channel=9, data=[36, 0]),
   midi.NoteOnEvent(tick=0, channel=9, data=[57, 127]),
   midi.NoteOnEvent(tick=0, channel=9, data=[38, 127]),
   midi.NoteOnEvent(tick=120, channel=9, data=[57, 0]),
   midi.NoteOnEvent(tick=0, channel=9, data=[38, 0]),
   midi.NoteOnEvent(tick=0, channel=9, data=[42, 127]),
   midi.NoteOnEvent(tick=60, channel=9, data=[36, 127]),
   midi.NoteOnEvent(tick=60, channel=9, data=[42, 0]),
   midi.NoteOnEvent(tick=0, channel=9, data=[36, 0]),
   midi.NoteOnEvent(tick=0, channel=9, data=[38, 127]),
   midi.NoteOnEvent(tick=0, channel=9, data=[42, 127]),
   midi.NoteOnEvent(tick=120, channel=9, data=[38, 0]),
   midi.NoteOnEvent(tick=0, channel=9, data=[42, 0]),
   midi.NoteOnEvent(tick=0, channel=9, data=[42, 127]),
   midi.NoteOnEvent(tick=60, channel=9, data=[36, 127]),
   midi.NoteOnEvent(tick=20, channel=9, data=[36, 0]),
   midi.NoteOnEvent(tick=0, channel=9, data=[36, 127]),
   midi.NoteOnEvent(tick=20, channel=9, data=[36, 0]),
   midi.NoteOnEvent(tick=0, channel=9, data=[36, 127]),
   midi.NoteOnEvent(tick=20, channel=9, data=[42, 0]),
   midi.NoteOnEvent(tick=0, channel=9, data=[36, 0]),
   midi.NoteOnEvent(tick=0, channel=9, data=[38, 127]),
   midi.NoteOnEvent(tick=0, channel=9, data=[42, 127]),
   midi.NoteOnEvent(tick=120, channel=9, data=[38, 0]),
   midi.NoteOnEvent(tick=0, channel=9, data=[42, 0]),
   midi.NoteOnEvent(tick=0, channel=9, data=[42, 127]),
   midi.NoteOnEvent(tick=60, channel=9, data=[36, 127]),
   midi.NoteOnEvent(tick=60, channel=9, data=[42, 0]),
   midi.NoteOnEvent(tick=0, channel=9, data=[36, 0]),
   midi.NoteOnEvent(tick=0, channel=9, data=[38, 127]),
   midi.NoteOnEvent(tick=0, channel=9, data=[42, 127]),
   midi.NoteOnEvent(tick=120, channel=9, data=[38, 0]),
   midi.NoteOnEvent(tick=0, channel=9, data=[42, 0]),
   midi.NoteOnEvent(tick=0, channel=9, data=[42, 127]),
   midi.NoteOnEvent(tick=60, channel=9, data=[36, 127]),
   midi.NoteOnEvent(tick=60, channel=9, data=[42, 0]),
   midi.NoteOnEvent(tick=0, channel=9, data=[36, 0]),
   midi.NoteOnEvent(tick=0, channel=9, data=[38, 127]),
   midi.NoteOnEvent(tick=0, channel=9, data=[42, 127]),
   midi.NoteOnEvent(tick=120, channel=9, data=[38, 0]),
   midi.NoteOnEvent(tick=0, channel=9, data=[42, 0]),
   midi.NoteOnEvent(tick=0, channel=9, data=[42, 127]),
   midi.NoteOnEvent(tick=60, channel=9, data=[36, 127]),
   midi.NoteOnEvent(tick=20, channel=9, data=[36, 0]),
   midi.NoteOnEvent(tick=0, channel=9, data=[36, 127]),
   midi.NoteOnEvent(tick=20, channel=9, data=[36, 0]),
   midi.NoteOnEvent(tick=0, channel=9, data=[36, 127]),
   midi.NoteOnEvent(tick=20, channel=9, data=[42, 0]),
   midi.NoteOnEvent(tick=0, channel=9, data=[36, 0]),
   midi.NoteOnEvent(tick=0, channel=9, data=[38, 127]),
   midi.NoteOnEvent(tick=0, channel=9, data=[42, 127]),
   midi.NoteOnEvent(tick=120, channel=9, data=[38, 0]),
   midi.NoteOnEvent(tick=0, channel=9, data=[42, 0]),
   midi.NoteOnEvent(tick=0, channel=9, data=[42, 127]),
   midi.NoteOnEvent(tick=60, channel=9, data=[36, 127]),
   midi.NoteOnEvent(tick=60, channel=9, data=[42, 0]),
   midi.NoteOnEvent(tick=0, channel=9, data=[36, 0]),
   midi.NoteOnEvent(tick=0, channel=9, data=[38, 127]),
   midi.NoteOnEvent(tick=0, channel=9, data=[42, 127]),
   midi.NoteOnEvent(tick=120, channel=9, data=[38, 0]),
   midi.NoteOnEvent(tick=0, channel=9, data=[42, 0]),
   midi.NoteOnEvent(tick=0, channel=9, data=[42, 127]),
   midi.NoteOnEvent(tick=60, channel=9, data=[36, 127]),
   midi.NoteOnEvent(tick=60, channel=9, data=[42, 0]),
   midi.NoteOnEvent(tick=0, channel=9, data=[36, 0]),
   midi.NoteOnEvent(tick=0, channel=9, data=[38, 127]),
   midi.NoteOnEvent(tick=0, channel=9, data=[42, 127]),
   midi.NoteOnEvent(tick=120, channel=9, data=[38, 0]),
   midi.NoteOnEvent(tick=0, channel=9, data=[42, 0]),
   midi.NoteOnEvent(tick=0, channel=9, data=[36, 127]),
   midi.NoteOnEvent(tick=0, channel=9, data=[57, 127]),
   midi.NoteOnEvent(tick=120, channel=9, data=[36, 0]),
   midi.NoteOnEvent(tick=0, channel=9, data=[57, 0]),
   midi.NoteOnEvent(tick=0, channel=9, data=[42, 127]),
   midi.NoteOnEvent(tick=0, channel=9, data=[38, 127]),
   midi.NoteOnEvent(tick=120, channel=9, data=[42, 0]),
   midi.NoteOnEvent(tick=0, channel=9, data=[38, 0]),
   midi.NoteOnEvent(tick=0, channel=9, data=[42, 127]),
   midi.NoteOnEvent(tick=0, channel=9, data=[36, 127]),
   midi.NoteOnEvent(tick=120, channel=9, data=[42, 0]),
   midi.NoteOnEvent(tick=0, channel=9, data=[36, 0]),
   midi.NoteOnEvent(tick=0, channel=9, data=[38, 127]),
   midi.NoteOnEvent(tick=0, channel=9, data=[42, 127]),
   midi.NoteOnEvent(tick=120, channel=9, data=[38, 0]),
   midi.NoteOnEvent(tick=0, channel=9, data=[42, 0]),
   midi.NoteOnEvent(tick=0, channel=9, data=[42, 127]),
   midi.NoteOnEvent(tick=0, channel=9, data=[36, 127]),
   midi.NoteOnEvent(tick=120, channel=9, data=[42, 0]),
   midi.NoteOnEvent(tick=0, channel=9, data=[36, 0]),
   midi.NoteOnEvent(tick=0, channel=9, data=[38, 127]),
   midi.NoteOnEvent(tick=0, channel=9, data=[42, 127]),
   midi.NoteOnEvent(tick=60, channel=9, data=[36, 127]),
   midi.NoteOnEvent(tick=60, channel=9, data=[38, 0]),
   midi.NoteOnEvent(tick=0, channel=9, data=[42, 0]),
   midi.NoteOnEvent(tick=0, channel=9, data=[36, 0]),
   midi.NoteOnEvent(tick=0, channel=9, data=[42, 127]),
   midi.NoteOnEvent(tick=60, channel=9, data=[36, 127]),
   midi.NoteOnEvent(tick=60, channel=9, data=[42, 0]),
   midi.NoteOnEvent(tick=0, channel=9, data=[36, 0]),
   midi.NoteOnEvent(tick=0, channel=9, data=[38, 127]),
   midi.NoteOnEvent(tick=0, channel=9, data=[42, 127]),
   midi.NoteOnEvent(tick=120, channel=9, data=[38, 0]),
   midi.NoteOnEvent(tick=0, channel=9, data=[42, 0]),
   midi.NoteOnEvent(tick=0, channel=9, data=[42, 127]),
   midi.NoteOnEvent(tick=0, channel=9, data=[36, 127]),
   midi.NoteOnEvent(tick=120, channel=9, data=[42, 0]),
   midi.NoteOnEvent(tick=0, channel=9, data=[36, 0]),
   midi.NoteOnEvent(tick=0, channel=9, data=[38, 127]),
   midi.NoteOnEvent(tick=0, channel=9, data=[42, 127]),
   midi.NoteOnEvent(tick=120, channel=9, data=[38, 0]),
   midi.NoteOnEvent(tick=0, channel=9, data=[42, 0]),
   midi.NoteOnEvent(tick=0, channel=9, data=[36, 127]),
   midi.NoteOnEvent(tick=0, channel=9, data=[42, 127]),
   midi.NoteOnEvent(tick=120, channel=9, data=[36, 0]),
   midi.NoteOnEvent(tick=0, channel=9, data=[42, 0]),
   midi.NoteOnEvent(tick=0, channel=9, data=[42, 127]),
   midi.NoteOnEvent(tick=0, channel=9, data=[38, 127]),
   midi.NoteOnEvent(tick=120, channel=9, data=[42, 0]),
   midi.NoteOnEvent(tick=0, channel=9, data=[38, 0]),
   midi.NoteOnEvent(tick=0, channel=9, data=[36, 127]),
   midi.NoteOnEvent(tick=0, channel=9, data=[42, 127]),
   midi.NoteOnEvent(tick=120, channel=9, data=[36, 0]),
   midi.NoteOnEvent(tick=0, channel=9, data=[42, 0]),
   midi.NoteOnEvent(tick=0, channel=9, data=[38, 127]),
   midi.NoteOnEvent(tick=0, channel=9, data=[42, 127]),
   midi.NoteOnEvent(tick=60, channel=9, data=[36, 127]),
   midi.NoteOnEvent(tick=60, channel=9, data=[38, 0]),
   midi.NoteOnEvent(tick=0, channel=9, data=[42, 0]),
   midi.NoteOnEvent(tick=0, channel=9, data=[36, 0]),
   midi.NoteOnEvent(tick=0, channel=9, data=[42, 127]),
   midi.NoteOnEvent(tick=60, channel=9, data=[36, 127]),
   midi.NoteOnEvent(tick=60, channel=9, data=[42, 0]),
   midi.NoteOnEvent(tick=0, channel=9, data=[36, 0]),
   midi.NoteOnEvent(tick=0, channel=9, data=[38, 127]),
   midi.NoteOnEvent(tick=0, channel=9, data=[42, 127]),
   midi.NoteOnEvent(tick=120, channel=9, data=[38, 0]),
   midi.NoteOnEvent(tick=0, channel=9, data=[42, 0]),
   midi.NoteOnEvent(tick=0, channel=9, data=[42, 127]),
   midi.NoteOnEvent(tick=0, channel=9, data=[36, 127]),
   midi.NoteOnEvent(tick=120, channel=9, data=[42, 0]),
   midi.NoteOnEvent(tick=0, channel=9, data=[36, 0]),
   midi.NoteOnEvent(tick=0, channel=9, data=[38, 127]),
   midi.NoteOnEvent(tick=0, channel=9, data=[42, 127]),
   midi.NoteOnEvent(tick=120, channel=9, data=[38, 0]),
   midi.NoteOnEvent(tick=0, channel=9, data=[42, 0]),
   midi.NoteOnEvent(tick=0, channel=9, data=[36, 127]),
   midi.NoteOnEvent(tick=0, channel=9, data=[42, 127]),
   midi.NoteOnEvent(tick=120, channel=9, data=[36, 0]),
   midi.NoteOnEvent(tick=0, channel=9, data=[42, 0]),
   midi.NoteOnEvent(tick=0, channel=9, data=[42, 127]),
   midi.NoteOnEvent(tick=0, channel=9, data=[38, 127]),
   midi.NoteOnEvent(tick=120, channel=9, data=[42, 0]),
   midi.NoteOnEvent(tick=0, channel=9, data=[38, 0]),
   midi.NoteOnEvent(tick=0, channel=9, data=[36, 127]),
   midi.NoteOnEvent(tick=0, channel=9, data=[42, 127]),
   midi.NoteOnEvent(tick=120, channel=9, data=[36, 0]),
   midi.NoteOnEvent(tick=0, channel=9, data=[42, 0]),
   midi.NoteOnEvent(tick=0, channel=9, data=[38, 127]),
   midi.NoteOnEvent(tick=0, channel=9, data=[42, 127]),
   midi.NoteOnEvent(tick=60, channel=9, data=[36, 127]),
   midi.NoteOnEvent(tick=60, channel=9, data=[38, 0]),
   midi.NoteOnEvent(tick=0, channel=9, data=[42, 0]),
   midi.NoteOnEvent(tick=0, channel=9, data=[36, 0]),
   midi.NoteOnEvent(tick=0, channel=9, data=[42, 127]),
   midi.NoteOnEvent(tick=60, channel=9, data=[36, 127]),
   midi.NoteOnEvent(tick=60, channel=9, data=[42, 0]),
   midi.NoteOnEvent(tick=0, channel=9, data=[36, 0]),
   midi.NoteOnEvent(tick=0, channel=9, data=[38, 127]),
   midi.NoteOnEvent(tick=0, channel=9, data=[42, 127]),
   midi.NoteOnEvent(tick=120, channel=9, data=[38, 0]),
   midi.NoteOnEvent(tick=0, channel=9, data=[42, 0]),
   midi.NoteOnEvent(tick=0, channel=9, data=[42, 127]),
   midi.NoteOnEvent(tick=0, channel=9, data=[36, 127]),
   midi.NoteOnEvent(tick=120, channel=9, data=[42, 0]),
   midi.NoteOnEvent(tick=0, channel=9, data=[36, 0]),
   midi.NoteOnEvent(tick=0, channel=9, data=[38, 127]),
   midi.NoteOnEvent(tick=0, channel=9, data=[42, 127]),
   midi.NoteOnEvent(tick=120, channel=9, data=[38, 0]),
   midi.NoteOnEvent(tick=0, channel=9, data=[42, 0]),
   midi.NoteOnEvent(tick=0, channel=9, data=[36, 127]),
   midi.NoteOnEvent(tick=0, channel=9, data=[42, 127]),
   midi.NoteOnEvent(tick=120, channel=9, data=[36, 0]),
   midi.NoteOnEvent(tick=0, channel=9, data=[42, 0]),
   midi.NoteOnEvent(tick=0, channel=9, data=[42, 127]),
   midi.NoteOnEvent(tick=0, channel=9, data=[38, 127]),
   midi.NoteOnEvent(tick=120, channel=9, data=[42, 0]),
   midi.NoteOnEvent(tick=0, channel=9, data=[38, 0]),
   midi.NoteOnEvent(tick=0, channel=9, data=[36, 127]),
   midi.NoteOnEvent(tick=0, channel=9, data=[42, 127]),
   midi.NoteOnEvent(tick=120, channel=9, data=[36, 0]),
   midi.NoteOnEvent(tick=0, channel=9, data=[42, 0]),
   midi.NoteOnEvent(tick=0, channel=9, data=[38, 127]),
   midi.NoteOnEvent(tick=0, channel=9, data=[42, 127]),
   midi.NoteOnEvent(tick=60, channel=9, data=[36, 127]),
   midi.NoteOnEvent(tick=60, channel=9, data=[38, 0]),
   midi.NoteOnEvent(tick=0, channel=9, data=[42, 0]),
   midi.NoteOnEvent(tick=0, channel=9, data=[36, 0]),
   midi.NoteOnEvent(tick=0, channel=9, data=[42, 127]),
   midi.NoteOnEvent(tick=60, channel=9, data=[36, 127]),
   midi.NoteOnEvent(tick=60, channel=9, data=[42, 0]),
   midi.NoteOnEvent(tick=0, channel=9, data=[36, 0]),
   midi.NoteOnEvent(tick=0, channel=9, data=[38, 127]),
   midi.NoteOnEvent(tick=0, channel=9, data=[42, 127]),
   midi.NoteOnEvent(tick=120, channel=9, data=[38, 0]),
   midi.NoteOnEvent(tick=0, channel=9, data=[42, 0]),
   midi.NoteOnEvent(tick=0, channel=9, data=[42, 127]),
   midi.NoteOnEvent(tick=0, channel=9, data=[36, 127]),
   midi.NoteOnEvent(tick=120, channel=9, data=[42, 0]),
   midi.NoteOnEvent(tick=0, channel=9, data=[36, 0]),
   midi.NoteOnEvent(tick=0, channel=9, data=[38, 127]),
   midi.NoteOnEvent(tick=0, channel=9, data=[42, 127]),
   midi.NoteOnEvent(tick=120, channel=9, data=[38, 0]),
   midi.NoteOnEvent(tick=0, channel=9, data=[42, 0]),
   midi.NoteOnEvent(tick=0, channel=9, data=[36, 127]),
   midi.NoteOnEvent(tick=0, channel=9, data=[42, 127]),
   midi.NoteOnEvent(tick=120, channel=9, data=[36, 0]),
   midi.NoteOnEvent(tick=0, channel=9, data=[42, 0]),
   midi.NoteOnEvent(tick=0, channel=9, data=[42, 127]),
   midi.NoteOnEvent(tick=0, channel=9, data=[38, 127]),
   midi.NoteOnEvent(tick=120, channel=9, data=[42, 0]),
   midi.NoteOnEvent(tick=0, channel=9, data=[38, 0]),
   midi.NoteOnEvent(tick=0, channel=9, data=[36, 127]),
   midi.NoteOnEvent(tick=0, channel=9, data=[42, 127]),
   midi.NoteOnEvent(tick=120, channel=9, data=[36, 0]),
   midi.NoteOnEvent(tick=0, channel=9, data=[42, 0]),
   midi.NoteOnEvent(tick=0, channel=9, data=[38, 127]),
   midi.NoteOnEvent(tick=0, channel=9, data=[42, 127]),
   midi.NoteOnEvent(tick=60, channel=9, data=[36, 127]),
   midi.NoteOnEvent(tick=60, channel=9, data=[38, 0]),
   midi.NoteOnEvent(tick=0, channel=9, data=[42, 0]),
   midi.NoteOnEvent(tick=0, channel=9, data=[36, 0]),
   midi.NoteOnEvent(tick=0, channel=9, data=[42, 127]),
   midi.NoteOnEvent(tick=60, channel=9, data=[36, 127]),
   midi.NoteOnEvent(tick=60, channel=9, data=[42, 0]),
   midi.NoteOnEvent(tick=0, channel=9, data=[36, 0]),
   midi.NoteOnEvent(tick=0, channel=9, data=[38, 127]),
   midi.NoteOnEvent(tick=0, channel=9, data=[42, 127]),
   midi.NoteOnEvent(tick=120, channel=9, data=[38, 0]),
   midi.NoteOnEvent(tick=0, channel=9, data=[42, 0]),
   midi.NoteOnEvent(tick=0, channel=9, data=[42, 127]),
   midi.NoteOnEvent(tick=0, channel=9, data=[36, 127]),
   midi.NoteOnEvent(tick=120, channel=9, data=[42, 0]),
   midi.NoteOnEvent(tick=0, channel=9, data=[36, 0]),
   midi.NoteOnEvent(tick=0, channel=9, data=[38, 127]),
   midi.NoteOnEvent(tick=0, channel=9, data=[42, 127]),
   midi.NoteOnEvent(tick=120, channel=9, data=[38, 0]),
   midi.NoteOnEvent(tick=0, channel=9, data=[42, 0]),
   midi.NoteOnEvent(tick=0, channel=9, data=[36, 127]),
   midi.NoteOnEvent(tick=0, channel=9, data=[42, 127]),
   midi.NoteOnEvent(tick=120, channel=9, data=[36, 0]),
   midi.NoteOnEvent(tick=0, channel=9, data=[42, 0]),
   midi.NoteOnEvent(tick=0, channel=9, data=[42, 127]),
   midi.NoteOnEvent(tick=0, channel=9, data=[38, 127]),
   midi.NoteOnEvent(tick=120, channel=9, data=[42, 0]),
   midi.NoteOnEvent(tick=0, channel=9, data=[38, 0]),
   midi.NoteOnEvent(tick=0, channel=9, data=[36, 127]),
   midi.NoteOnEvent(tick=0, channel=9, data=[42, 127]),
   midi.NoteOnEvent(tick=120, channel=9, data=[36, 0]),
   midi.NoteOnEvent(tick=0, channel=9, data=[42, 0]),
   midi.NoteOnEvent(tick=0, channel=9, data=[38, 127]),
   midi.NoteOnEvent(tick=0, channel=9, data=[42, 127]),
   midi.NoteOnEvent(tick=60, channel=9, data=[36, 127]),
   midi.NoteOnEvent(tick=60, channel=9, data=[38, 0]),
   midi.NoteOnEvent(tick=0, channel=9, data=[42, 0]),
   midi.NoteOnEvent(tick=0, channel=9, data=[36, 0]),
   midi.NoteOnEvent(tick=0, channel=9, data=[42, 127]),
   midi.NoteOnEvent(tick=60, channel=9, data=[36, 127]),
   midi.NoteOnEvent(tick=60, channel=9, data=[42, 0]),
   midi.NoteOnEvent(tick=0, channel=9, data=[36, 0]),
   midi.NoteOnEvent(tick=0, channel=9, data=[38, 127]),
   midi.NoteOnEvent(tick=0, channel=9, data=[42, 127]),
   midi.NoteOnEvent(tick=120, channel=9, data=[38, 0]),
   midi.NoteOnEvent(tick=0, channel=9, data=[42, 0]),
   midi.NoteOnEvent(tick=0, channel=9, data=[42, 127]),
   midi.NoteOnEvent(tick=0, channel=9, data=[36, 127]),
   midi.NoteOnEvent(tick=120, channel=9, data=[42, 0]),
   midi.NoteOnEvent(tick=0, channel=9, data=[36, 0]),
   midi.NoteOnEvent(tick=0, channel=9, data=[38, 127]),
   midi.NoteOnEvent(tick=0, channel=9, data=[42, 127]),
   midi.NoteOnEvent(tick=120, channel=9, data=[38, 0]),
   midi.NoteOnEvent(tick=0, channel=9, data=[42, 0]),
   midi.NoteOnEvent(tick=0, channel=9, data=[36, 127]),
   midi.NoteOnEvent(tick=0, channel=9, data=[42, 127]),
   midi.NoteOnEvent(tick=120, channel=9, data=[36, 0]),
   midi.NoteOnEvent(tick=0, channel=9, data=[42, 0]),
   midi.NoteOnEvent(tick=0, channel=9, data=[42, 127]),
   midi.NoteOnEvent(tick=0, channel=9, data=[38, 127]),
   midi.NoteOnEvent(tick=120, channel=9, data=[42, 0]),
   midi.NoteOnEvent(tick=0, channel=9, data=[38, 0]),
   midi.NoteOnEvent(tick=0, channel=9, data=[36, 127]),
   midi.NoteOnEvent(tick=0, channel=9, data=[42, 127]),
   midi.NoteOnEvent(tick=120, channel=9, data=[36, 0]),
   midi.NoteOnEvent(tick=0, channel=9, data=[42, 0]),
   midi.NoteOnEvent(tick=0, channel=9, data=[38, 127]),
   midi.NoteOnEvent(tick=0, channel=9, data=[42, 127]),
   midi.NoteOnEvent(tick=60, channel=9, data=[36, 127]),
   midi.NoteOnEvent(tick=60, channel=9, data=[38, 0]),
   midi.NoteOnEvent(tick=0, channel=9, data=[42, 0]),
   midi.NoteOnEvent(tick=0, channel=9, data=[36, 0]),
   midi.NoteOnEvent(tick=0, channel=9, data=[42, 127]),
   midi.NoteOnEvent(tick=60, channel=9, data=[36, 127]),
   midi.NoteOnEvent(tick=60, channel=9, data=[42, 0]),
   midi.NoteOnEvent(tick=0, channel=9, data=[36, 0]),
   midi.NoteOnEvent(tick=0, channel=9, data=[38, 127]),
   midi.NoteOnEvent(tick=0, channel=9, data=[42, 127]),
   midi.NoteOnEvent(tick=120, channel=9, data=[38, 0]),
   midi.NoteOnEvent(tick=0, channel=9, data=[42, 0]),
   midi.NoteOnEvent(tick=0, channel=9, data=[42, 127]),
   midi.NoteOnEvent(tick=0, channel=9, data=[36, 127]),
   midi.NoteOnEvent(tick=120, channel=9, data=[42, 0]),
   midi.NoteOnEvent(tick=0, channel=9, data=[36, 0]),
   midi.NoteOnEvent(tick=0, channel=9, data=[38, 127]),
   midi.NoteOnEvent(tick=0, channel=9, data=[42, 127]),
   midi.NoteOnEvent(tick=120, channel=9, data=[38, 0]),
   midi.NoteOnEvent(tick=0, channel=9, data=[42, 0]),
   midi.NoteOnEvent(tick=0, channel=9, data=[36, 127]),
   midi.NoteOnEvent(tick=0, channel=9, data=[42, 127]),
   midi.NoteOnEvent(tick=120, channel=9, data=[36, 0]),
   midi.NoteOnEvent(tick=0, channel=9, data=[42, 0]),
   midi.NoteOnEvent(tick=0, channel=9, data=[42, 127]),
   midi.NoteOnEvent(tick=0, channel=9, data=[38, 127]),
   midi.NoteOnEvent(tick=120, channel=9, data=[42, 0]),
   midi.NoteOnEvent(tick=0, channel=9, data=[38, 0]),
   midi.NoteOnEvent(tick=0, channel=9, data=[36, 127]),
   midi.NoteOnEvent(tick=0, channel=9, data=[42, 127]),
   midi.NoteOnEvent(tick=120, channel=9, data=[36, 0]),
   midi.NoteOnEvent(tick=0, channel=9, data=[42, 0]),
   midi.NoteOnEvent(tick=0, channel=9, data=[38, 127]),
   midi.NoteOnEvent(tick=0, channel=9, data=[42, 127]),
   midi.NoteOnEvent(tick=120, channel=9, data=[38, 0]),
   midi.NoteOnEvent(tick=0, channel=9, data=[42, 0]),
   midi.NoteOnEvent(tick=0, channel=9, data=[36, 127]),
   midi.NoteOnEvent(tick=0, channel=9, data=[42, 127]),
   midi.NoteOnEvent(tick=60, channel=9, data=[36, 0]),
   midi.NoteOnEvent(tick=0, channel=9, data=[36, 127]),
   midi.NoteOnEvent(tick=60, channel=9, data=[42, 0]),
   midi.NoteOnEvent(tick=0, channel=9, data=[36, 0]),
   midi.NoteOnEvent(tick=0, channel=9, data=[38, 127]),
   midi.NoteOnEvent(tick=0, channel=9, data=[42, 127]),
   midi.NoteOnEvent(tick=120, channel=9, data=[38, 0]),
   midi.NoteOnEvent(tick=0, channel=9, data=[42, 0]),
   midi.NoteOnEvent(tick=0, channel=9, data=[36, 127]),
   midi.NoteOnEvent(tick=0, channel=9, data=[57, 127]),
   midi.NoteOnEvent(tick=40, channel=9, data=[57, 0]),
   midi.NoteOnEvent(tick=0, channel=9, data=[38, 127]),
   midi.NoteOnEvent(tick=40, channel=9, data=[38, 0]),
   midi.NoteOnEvent(tick=0, channel=9, data=[38, 127]),
   midi.NoteOnEvent(tick=40, channel=9, data=[36, 0]),
   midi.NoteOnEvent(tick=0, channel=9, data=[38, 0]),
   midi.NoteOnEvent(tick=0, channel=9, data=[36, 127]),
   midi.NoteOnEvent(tick=0, channel=9, data=[57, 127]),
   midi.NoteOnEvent(tick=40, channel=9, data=[57, 0]),
   midi.NoteOnEvent(tick=0, channel=9, data=[38, 127]),
   midi.NoteOnEvent(tick=40, channel=9, data=[38, 0]),
   midi.NoteOnEvent(tick=0, channel=9, data=[38, 127]),
   midi.NoteOnEvent(tick=40, channel=9, data=[36, 0]),
   midi.NoteOnEvent(tick=0, channel=9, data=[38, 0]),
   midi.NoteOnEvent(tick=0, channel=9, data=[36, 127]),
   midi.NoteOnEvent(tick=0, channel=9, data=[57, 127]),
   midi.NoteOnEvent(tick=40, channel=9, data=[57, 0]),
   midi.NoteOnEvent(tick=0, channel=9, data=[38, 127]),
   midi.NoteOnEvent(tick=40, channel=9, data=[38, 0]),
   midi.NoteOnEvent(tick=0, channel=9, data=[38, 127]),
   midi.NoteOnEvent(tick=40, channel=9, data=[36, 0]),
   midi.NoteOnEvent(tick=0, channel=9, data=[38, 0]),
   midi.NoteOnEvent(tick=0, channel=9, data=[36, 127]),
   midi.NoteOnEvent(tick=0, channel=9, data=[57, 127]),
   midi.NoteOnEvent(tick=40, channel=9, data=[57, 0]),
   midi.NoteOnEvent(tick=0, channel=9, data=[38, 127]),
   midi.NoteOnEvent(tick=40, channel=9, data=[38, 0]),
   midi.NoteOnEvent(tick=0, channel=9, data=[38, 127]),
   midi.NoteOnEvent(tick=40, channel=9, data=[36, 0]),
   midi.NoteOnEvent(tick=0, channel=9, data=[38, 0]),
   midi.NoteOnEvent(tick=0, channel=9, data=[36, 127]),
   midi.NoteOnEvent(tick=0, channel=9, data=[57, 127]),
   midi.NoteOnEvent(tick=40, channel=9, data=[57, 0]),
   midi.NoteOnEvent(tick=0, channel=9, data=[38, 127]),
   midi.NoteOnEvent(tick=40, channel=9, data=[38, 0]),
   midi.NoteOnEvent(tick=0, channel=9, data=[38, 127]),
   midi.NoteOnEvent(tick=40, channel=9, data=[36, 0]),
   midi.NoteOnEvent(tick=0, channel=9, data=[38, 0]),
   midi.NoteOnEvent(tick=0, channel=9, data=[36, 127]),
   midi.NoteOnEvent(tick=0, channel=9, data=[57, 127]),
   midi.NoteOnEvent(tick=40, channel=9, data=[57, 0]),
   midi.NoteOnEvent(tick=0, channel=9, data=[38, 127]),
   midi.NoteOnEvent(tick=40, channel=9, data=[38, 0]),
   midi.NoteOnEvent(tick=0, channel=9, data=[38, 127]),
   midi.NoteOnEvent(tick=40, channel=9, data=[36, 0]),
   midi.NoteOnEvent(tick=0, channel=9, data=[38, 0]),
   midi.NoteOnEvent(tick=0, channel=9, data=[36, 127]),
   midi.NoteOnEvent(tick=0, channel=9, data=[57, 127]),
   midi.NoteOnEvent(tick=40, channel=9, data=[57, 0]),
   midi.NoteOnEvent(tick=0, channel=9, data=[38, 127]),
   midi.NoteOnEvent(tick=40, channel=9, data=[38, 0]),
   midi.NoteOnEvent(tick=0, channel=9, data=[38, 127]),
   midi.NoteOnEvent(tick=40, channel=9, data=[36, 0]),
   midi.NoteOnEvent(tick=0, channel=9, data=[38, 0]),
   midi.NoteOnEvent(tick=0, channel=9, data=[36, 127]),
   midi.NoteOnEvent(tick=0, channel=9, data=[57, 127]),
   midi.NoteOnEvent(tick=40, channel=9, data=[57, 0]),
   midi.NoteOnEvent(tick=0, channel=9, data=[38, 127]),
   midi.NoteOnEvent(tick=40, channel=9, data=[38, 0]),
   midi.NoteOnEvent(tick=0, channel=9, data=[38, 127]),
   midi.NoteOnEvent(tick=40, channel=9, data=[36, 0]),
   midi.NoteOnEvent(tick=0, channel=9, data=[38, 0]),
   midi.NoteOnEvent(tick=0, channel=9, data=[57, 127]),
   midi.NoteOnEvent(tick=0, channel=9, data=[36, 127]),
   midi.NoteOnEvent(tick=60, channel=9, data=[57, 0]),
   midi.NoteOnEvent(tick=0, channel=9, data=[42, 127]),
   midi.NoteOnEvent(tick=60, channel=9, data=[36, 0]),
   midi.NoteOnEvent(tick=0, channel=9, data=[42, 0]),
   midi.NoteOnEvent(tick=0, channel=9, data=[38, 127]),
   midi.NoteOnEvent(tick=0, channel=9, data=[42, 127]),
   midi.NoteOnEvent(tick=60, channel=9, data=[38, 0]),
   midi.NoteOnEvent(tick=0, channel=9, data=[42, 0]),
   midi.NoteOnEvent(tick=0, channel=9, data=[42, 127]),
   midi.NoteOnEvent(tick=60, channel=9, data=[42, 0]),
   midi.NoteOnEvent(tick=0, channel=9, data=[42, 127]),
   midi.NoteOnEvent(tick=0, channel=9, data=[36, 127]),
   midi.NoteOnEvent(tick=60, channel=9, data=[42, 0]),
   midi.NoteOnEvent(tick=0, channel=9, data=[42, 127]),
   midi.NoteOnEvent(tick=30, channel=9, data=[36, 0]),
   midi.NoteOnEvent(tick=0, channel=9, data=[36, 127]),
   midi.NoteOnEvent(tick=10, channel=9, data=[36, 0]),
   midi.NoteOnEvent(tick=0, channel=9, data=[36, 127]),
   midi.NoteOnEvent(tick=10, channel=9, data=[36, 0]),
   midi.NoteOnEvent(tick=0, channel=9, data=[36, 127]),
   midi.NoteOnEvent(tick=10, channel=9, data=[42, 0]),
   midi.NoteOnEvent(tick=0, channel=9, data=[36, 0]),
   midi.NoteOnEvent(tick=0, channel=9, data=[38, 127]),
   midi.NoteOnEvent(tick=0, channel=9, data=[42, 127]),
   midi.NoteOnEvent(tick=60, channel=9, data=[38, 0]),
   midi.NoteOnEvent(tick=0, channel=9, data=[42, 0]),
   midi.NoteOnEvent(tick=0, channel=9, data=[42, 127]),
   midi.NoteOnEvent(tick=60, channel=9, data=[42, 0]),
   midi.NoteOnEvent(tick=0, channel=9, data=[42, 127]),
   midi.NoteOnEvent(tick=0, channel=9, data=[36, 127]),
   midi.NoteOnEvent(tick=60, channel=9, data=[42, 0]),
   midi.NoteOnEvent(tick=0, channel=9, data=[42, 127]),
   midi.NoteOnEvent(tick=30, channel=9, data=[36, 0]),
   midi.NoteOnEvent(tick=0, channel=9, data=[36, 127]),
   midi.NoteOnEvent(tick=30, channel=9, data=[42, 0]),
   midi.NoteOnEvent(tick=0, channel=9, data=[36, 0]),
   midi.NoteOnEvent(tick=0, channel=9, data=[38, 127]),
   midi.NoteOnEvent(tick=0, channel=9, data=[42, 127]),
   midi.NoteOnEvent(tick=60, channel=9, data=[38, 0]),
   midi.NoteOnEvent(tick=0, channel=9, data=[42, 0]),
   midi.NoteOnEvent(tick=0, channel=9, data=[42, 127]),
   midi.NoteOnEvent(tick=60, channel=9, data=[42, 0]),
   midi.NoteOnEvent(tick=0, channel=9, data=[38, 127]),
   midi.NoteOnEvent(tick=0, channel=9, data=[42, 127]),
   midi.NoteOnEvent(tick=30, channel=9, data=[36, 127]),
   midi.NoteOnEvent(tick=30, channel=9, data=[38, 0]),
   midi.NoteOnEvent(tick=0, channel=9, data=[42, 0]),
   midi.NoteOnEvent(tick=0, channel=9, data=[42, 127]),
   midi.NoteOnEvent(tick=30, channel=9, data=[36, 0]),
   midi.NoteOnEvent(tick=0, channel=9, data=[36, 127]),
   midi.NoteOnEvent(tick=30, channel=9, data=[42, 0]),
   midi.NoteOnEvent(tick=0, channel=9, data=[36, 0]),
   midi.NoteOnEvent(tick=0, channel=9, data=[38, 127]),
   midi.NoteOnEvent(tick=0, channel=9, data=[42, 127]),
   midi.NoteOnEvent(tick=60, channel=9, data=[38, 0]),
   midi.NoteOnEvent(tick=0, channel=9, data=[42, 0]),
   midi.NoteOnEvent(tick=0, channel=9, data=[57, 127]),
   midi.NoteOnEvent(tick=0, channel=9, data=[36, 127]),
   midi.NoteOnEvent(tick=60, channel=9, data=[57, 0]),
   midi.NoteOnEvent(tick=0, channel=9, data=[36, 0]),
   midi.NoteOnEvent(tick=0, channel=9, data=[57, 127]),
   midi.NoteOnEvent(tick=0, channel=9, data=[36, 127]),
   midi.NoteOnEvent(tick=60, channel=9, data=[57, 0]),
   midi.NoteOnEvent(tick=0, channel=9, data=[42, 127]),
   midi.NoteOnEvent(tick=30, channel=9, data=[36, 0]),
   midi.NoteOnEvent(tick=0, channel=9, data=[36, 127]),
   midi.NoteOnEvent(tick=10, channel=9, data=[36, 0]),
   midi.NoteOnEvent(tick=0, channel=9, data=[36, 127]),
   midi.NoteOnEvent(tick=10, channel=9, data=[36, 0]),
   midi.NoteOnEvent(tick=0, channel=9, data=[36, 127]),
   midi.NoteOnEvent(tick=10, channel=9, data=[42, 0]),
   midi.NoteOnEvent(tick=0, channel=9, data=[36, 0]),
   midi.NoteOnEvent(tick=0, channel=9, data=[38, 127]),
   midi.NoteOnEvent(tick=0, channel=9, data=[42, 127]),
   midi.NoteOnEvent(tick=60, channel=9, data=[38, 0]),
   midi.NoteOnEvent(tick=0, channel=9, data=[42, 0]),
   midi.NoteOnEvent(tick=0, channel=9, data=[42, 127]),
   midi.NoteOnEvent(tick=60, channel=9, data=[42, 0]),
   midi.NoteOnEvent(tick=0, channel=9, data=[42, 127]),
   midi.NoteOnEvent(tick=0, channel=9, data=[36, 127]),
   midi.NoteOnEvent(tick=60, channel=9, data=[42, 0]),
   midi.NoteOnEvent(tick=0, channel=9, data=[42, 127]),
   midi.NoteOnEvent(tick=30, channel=9, data=[36, 0]),
   midi.NoteOnEvent(tick=0, channel=9, data=[36, 127]),
   midi.NoteOnEvent(tick=10, channel=9, data=[36, 0]),
   midi.NoteOnEvent(tick=0, channel=9, data=[36, 127]),
   midi.NoteOnEvent(tick=10, channel=9, data=[36, 0]),
   midi.NoteOnEvent(tick=0, channel=9, data=[36, 127]),
   midi.NoteOnEvent(tick=10, channel=9, data=[42, 0]),
   midi.NoteOnEvent(tick=0, channel=9, data=[36, 0]),
   midi.NoteOnEvent(tick=0, channel=9, data=[38, 127]),
   midi.NoteOnEvent(tick=0, channel=9, data=[42, 127]),
   midi.NoteOnEvent(tick=30, channel=9, data=[36, 127]),
   midi.NoteOnEvent(tick=30, channel=9, data=[38, 0]),
   midi.NoteOnEvent(tick=0, channel=9, data=[42, 0]),
   midi.NoteOnEvent(tick=0, channel=9, data=[42, 127]),
   midi.NoteOnEvent(tick=60, channel=9, data=[36, 0]),
   midi.NoteOnEvent(tick=0, channel=9, data=[42, 0]),
   midi.NoteOnEvent(tick=0, channel=9, data=[36, 127]),
   midi.NoteOnEvent(tick=0, channel=9, data=[42, 127]),
   midi.NoteOnEvent(tick=60, channel=9, data=[42, 0]),
   midi.NoteOnEvent(tick=0, channel=9, data=[42, 127]),
   midi.NoteOnEvent(tick=30, channel=9, data=[36, 0]),
   midi.NoteOnEvent(tick=0, channel=9, data=[36, 127]),
   midi.NoteOnEvent(tick=30, channel=9, data=[42, 0]),
   midi.NoteOnEvent(tick=0, channel=9, data=[36, 0]),
   midi.NoteOnEvent(tick=0, channel=9, data=[38, 127]),
   midi.NoteOnEvent(tick=0, channel=9, data=[42, 127]),
   midi.NoteOnEvent(tick=60, channel=9, data=[38, 0]),
   midi.NoteOnEvent(tick=0, channel=9, data=[42, 0]),
   midi.NoteOnEvent(tick=0, channel=9, data=[42, 127]),
   midi.NoteOnEvent(tick=60, channel=9, data=[42, 0]),
   midi.NoteOnEvent(tick=0, channel=9, data=[38, 127]),
   midi.NoteOnEvent(tick=0, channel=9, data=[42, 127]),
   midi.NoteOnEvent(tick=30, channel=9, data=[36, 127]),
   midi.NoteOnEvent(tick=30, channel=9, data=[38, 0]),
   midi.NoteOnEvent(tick=0, channel=9, data=[42, 0]),
   midi.NoteOnEvent(tick=0, channel=9, data=[42, 127]),
   midi.NoteOnEvent(tick=30, channel=9, data=[36, 0]),
   midi.NoteOnEvent(tick=0, channel=9, data=[36, 127]),
   midi.NoteOnEvent(tick=30, channel=9, data=[42, 0]),
   midi.NoteOnEvent(tick=0, channel=9, data=[36, 0]),
   midi.NoteOnEvent(tick=0, channel=9, data=[42, 127]),
   midi.NoteOnEvent(tick=30, channel=9, data=[36, 127]),
   midi.NoteOnEvent(tick=30, channel=9, data=[42, 0]),
   midi.NoteOnEvent(tick=0, channel=9, data=[57, 127]),
   midi.NoteOnEvent(tick=0, channel=9, data=[38, 127]),
   midi.NoteOnEvent(tick=60, channel=9, data=[36, 0]),
   midi.NoteOnEvent(tick=0, channel=9, data=[57, 0]),
   midi.NoteOnEvent(tick=0, channel=9, data=[38, 0]),
   midi.NoteOnEvent(tick=0, channel=9, data=[57, 127]),
   midi.NoteOnEvent(tick=0, channel=9, data=[36, 127]),
   midi.NoteOnEvent(tick=60, channel=9, data=[57, 0]),
   midi.NoteOnEvent(tick=0, channel=9, data=[42, 127]),
   midi.NoteOnEvent(tick=30, channel=9, data=[36, 0]),
   midi.NoteOnEvent(tick=0, channel=9, data=[36, 127]),
   midi.NoteOnEvent(tick=10, channel=9, data=[36, 0]),
   midi.NoteOnEvent(tick=0, channel=9, data=[36, 127]),
   midi.NoteOnEvent(tick=10, channel=9, data=[36, 0]),
   midi.NoteOnEvent(tick=0, channel=9, data=[36, 127]),
   midi.NoteOnEvent(tick=10, channel=9, data=[42, 0]),
   midi.NoteOnEvent(tick=0, channel=9, data=[36, 0]),
   midi.NoteOnEvent(tick=0, channel=9, data=[38, 127]),
   midi.NoteOnEvent(tick=0, channel=9, data=[42, 127]),
   midi.NoteOnEvent(tick=60, channel=9, data=[38, 0]),
   midi.NoteOnEvent(tick=0, channel=9, data=[42, 0]),
   midi.NoteOnEvent(tick=0, channel=9, data=[42, 127]),
   midi.NoteOnEvent(tick=60, channel=9, data=[42, 0]),
   midi.NoteOnEvent(tick=0, channel=9, data=[36, 127]),
   midi.NoteOnEvent(tick=0, channel=9, data=[42, 127]),
   midi.NoteOnEvent(tick=30, channel=9, data=[36, 0]),
   midi.NoteOnEvent(tick=0, channel=9, data=[36, 127]),
   midi.NoteOnEvent(tick=30, channel=9, data=[42, 0]),
   midi.NoteOnEvent(tick=0, channel=9, data=[42, 127]),
   midi.NoteOnEvent(tick=30, channel=9, data=[36, 0]),
   midi.NoteOnEvent(tick=0, channel=9, data=[36, 127]),
   midi.NoteOnEvent(tick=30, channel=9, data=[42, 0]),
   midi.NoteOnEvent(tick=0, channel=9, data=[36, 0]),
   midi.NoteOnEvent(tick=0, channel=9, data=[38, 127]),
   midi.NoteOnEvent(tick=0, channel=9, data=[42, 127]),
   midi.NoteOnEvent(tick=60, channel=9, data=[38, 0]),
   midi.NoteOnEvent(tick=0, channel=9, data=[42, 0]),
   midi.NoteOnEvent(tick=0, channel=9, data=[42, 127]),
   midi.NoteOnEvent(tick=60, channel=9, data=[42, 0]),
   midi.NoteOnEvent(tick=0, channel=9, data=[42, 127]),
   midi.NoteOnEvent(tick=0, channel=9, data=[36, 127]),
   midi.NoteOnEvent(tick=60, channel=9, data=[42, 0]),
   midi.NoteOnEvent(tick=0, channel=9, data=[42, 127]),
   midi.NoteOnEvent(tick=30, channel=9, data=[36, 0]),
   midi.NoteOnEvent(tick=0, channel=9, data=[36, 127]),
   midi.NoteOnEvent(tick=10, channel=9, data=[36, 0]),
   midi.NoteOnEvent(tick=0, channel=9, data=[36, 127]),
   midi.NoteOnEvent(tick=10, channel=9, data=[36, 0]),
   midi.NoteOnEvent(tick=0, channel=9, data=[36, 127]),
   midi.NoteOnEvent(tick=10, channel=9, data=[42, 0]),
   midi.NoteOnEvent(tick=0, channel=9, data=[36, 0]),
   midi.NoteOnEvent(tick=0, channel=9, data=[38, 127]),
   midi.NoteOnEvent(tick=0, channel=9, data=[42, 127]),
   midi.NoteOnEvent(tick=60, channel=9, data=[38, 0]),
   midi.NoteOnEvent(tick=0, channel=9, data=[42, 0]),
   midi.NoteOnEvent(tick=0, channel=9, data=[42, 127]),
   midi.NoteOnEvent(tick=30, channel=9, data=[36, 127]),
   midi.NoteOnEvent(tick=30, channel=9, data=[42, 0]),
   midi.NoteOnEvent(tick=0, channel=9, data=[36, 0]),
   midi.NoteOnEvent(tick=0, channel=9, data=[38, 127]),
   midi.NoteOnEvent(tick=60, channel=9, data=[38, 0]),
   midi.NoteOnEvent(tick=0, channel=9, data=[38, 127]),
   midi.NoteOnEvent(tick=60, channel=9, data=[38, 0]),
   midi.NoteOnEvent(tick=0, channel=9, data=[45, 127]),
   midi.NoteOnEvent(tick=30, channel=9, data=[45, 0]),
   midi.NoteOnEvent(tick=0, channel=9, data=[45, 127]),
   midi.NoteOnEvent(tick=30, channel=9, data=[45, 0]),
   midi.NoteOnEvent(tick=0, channel=9, data=[57, 127]),
   midi.NoteOnEvent(tick=0, channel=9, data=[36, 127]),
   midi.NoteOnEvent(tick=60, channel=9, data=[57, 0]),
   midi.NoteOnEvent(tick=0, channel=9, data=[36, 0]),
   midi.NoteOnEvent(tick=0, channel=9, data=[36, 127]),
   midi.NoteOnEvent(tick=0, channel=9, data=[57, 127]),
   midi.NoteOnEvent(tick=60, channel=9, data=[57, 0]),
   midi.NoteOnEvent(tick=0, channel=9, data=[42, 127]),
   midi.NoteOnEvent(tick=60, channel=9, data=[36, 0]),
   midi.NoteOnEvent(tick=0, channel=9, data=[42, 0]),
   midi.NoteOnEvent(tick=0, channel=9, data=[38, 127]),
   midi.NoteOnEvent(tick=0, channel=9, data=[42, 127]),
   midi.NoteOnEvent(tick=60, channel=9, data=[38, 0]),
   midi.NoteOnEvent(tick=0, channel=9, data=[42, 0]),
   midi.NoteOnEvent(tick=0, channel=9, data=[42, 127]),
   midi.NoteOnEvent(tick=60, channel=9, data=[42, 0]),
   midi.NoteOnEvent(tick=0, channel=9, data=[42, 127]),
   midi.NoteOnEvent(tick=0, channel=9, data=[36, 127]),
   midi.NoteOnEvent(tick=60, channel=9, data=[42, 0]),
   midi.NoteOnEvent(tick=0, channel=9, data=[42, 127]),
   midi.NoteOnEvent(tick=30, channel=9, data=[36, 0]),
   midi.NoteOnEvent(tick=0, channel=9, data=[36, 127]),
   midi.NoteOnEvent(tick=10, channel=9, data=[36, 0]),
   midi.NoteOnEvent(tick=0, channel=9, data=[36, 127]),
   midi.NoteOnEvent(tick=10, channel=9, data=[36, 0]),
   midi.NoteOnEvent(tick=0, channel=9, data=[36, 127]),
   midi.NoteOnEvent(tick=10, channel=9, data=[42, 0]),
   midi.NoteOnEvent(tick=0, channel=9, data=[36, 0]),
   midi.NoteOnEvent(tick=0, channel=9, data=[38, 127]),
   midi.NoteOnEvent(tick=0, channel=9, data=[42, 127]),
   midi.NoteOnEvent(tick=60, channel=9, data=[38, 0]),
   midi.NoteOnEvent(tick=0, channel=9, data=[42, 0]),
   midi.NoteOnEvent(tick=0, channel=9, data=[42, 127]),
   midi.NoteOnEvent(tick=60, channel=9, data=[42, 0]),
   midi.NoteOnEvent(tick=0, channel=9, data=[42, 127]),
   midi.NoteOnEvent(tick=0, channel=9, data=[36, 127]),
   midi.NoteOnEvent(tick=60, channel=9, data=[42, 0]),
   midi.NoteOnEvent(tick=0, channel=9, data=[42, 127]),
   midi.NoteOnEvent(tick=30, channel=9, data=[36, 0]),
   midi.NoteOnEvent(tick=0, channel=9, data=[36, 127]),
   midi.NoteOnEvent(tick=10, channel=9, data=[36, 0]),
   midi.NoteOnEvent(tick=0, channel=9, data=[36, 127]),
   midi.NoteOnEvent(tick=10, channel=9, data=[36, 0]),
   midi.NoteOnEvent(tick=0, channel=9, data=[36, 127]),
   midi.NoteOnEvent(tick=10, channel=9, data=[42, 0]),
   midi.NoteOnEvent(tick=0, channel=9, data=[36, 0]),
   midi.NoteOnEvent(tick=0, channel=9, data=[38, 127]),
   midi.NoteOnEvent(tick=0, channel=9, data=[42, 127]),
   midi.NoteOnEvent(tick=60, channel=9, data=[38, 0]),
   midi.NoteOnEvent(tick=0, channel=9, data=[42, 0]),
   midi.NoteOnEvent(tick=0, channel=9, data=[42, 127]),
   midi.NoteOnEvent(tick=30, channel=9, data=[36, 127]),
   midi.NoteOnEvent(tick=10, channel=9, data=[36, 127]),
   midi.NoteOnEvent(tick=10, channel=9, data=[36, 0]),
   midi.NoteOnEvent(tick=0, channel=9, data=[36, 127]),
   midi.NoteOnEvent(tick=10, channel=9, data=[42, 0]),
   midi.NoteOnEvent(tick=0, channel=9, data=[36, 0]),
   midi.NoteOnEvent(tick=0, channel=9, data=[48, 127]),
   midi.NoteOnEvent(tick=0, channel=9, data=[47, 127]),
   midi.NoteOnEvent(tick=30, channel=9, data=[36, 0]),
   midi.NoteOnEvent(tick=0, channel=9, data=[48, 0]),
   midi.NoteOnEvent(tick=0, channel=9, data=[47, 0]),
   midi.NoteOnEvent(tick=0, channel=9, data=[36, 127]),
   midi.NoteOnEvent(tick=15, channel=9, data=[36, 0]),
   midi.NoteOnEvent(tick=0, channel=9, data=[36, 127]),
   midi.NoteOnEvent(tick=15, channel=9, data=[36, 0]),
   midi.NoteOnEvent(tick=0, channel=9, data=[48, 127]),
   midi.NoteOnEvent(tick=0, channel=9, data=[47, 127]),
   midi.NoteOnEvent(tick=30, channel=9, data=[48, 0]),
   midi.NoteOnEvent(tick=0, channel=9, data=[47, 0]),
   midi.NoteOnEvent(tick=0, channel=9, data=[36, 127]),
   midi.NoteOnEvent(tick=15, channel=9, data=[36, 0]),
   midi.NoteOnEvent(tick=0, channel=9, data=[36, 127]),
   midi.NoteOnEvent(tick=15, channel=9, data=[36, 0]),
   midi.NoteOnEvent(tick=0, channel=9, data=[48, 127]),
   midi.NoteOnEvent(tick=0, channel=9, data=[47, 127]),
   midi.NoteOnEvent(tick=30, channel=9, data=[48, 0]),
   midi.NoteOnEvent(tick=0, channel=9, data=[47, 0]),
   midi.NoteOnEvent(tick=0, channel=9, data=[36, 127]),
   midi.NoteOnEvent(tick=30, channel=9, data=[36, 0]),
   midi.NoteOnEvent(tick=0, channel=9, data=[57, 127]),
   midi.NoteOnEvent(tick=0, channel=9, data=[38, 127]),
   midi.NoteOnEvent(tick=60, channel=9, data=[57, 0]),
   midi.NoteOnEvent(tick=0, channel=9, data=[38, 0]),
   midi.NoteOnEvent(tick=0, channel=9, data=[36, 127]),
   midi.NoteOnEvent(tick=0, channel=9, data=[57, 127]),
   midi.NoteOnEvent(tick=60, channel=9, data=[57, 0]),
   midi.NoteOnEvent(tick=0, channel=9, data=[42, 127]),
   midi.NoteOnEvent(tick=60, channel=9, data=[36, 0]),
   midi.NoteOnEvent(tick=0, channel=9, data=[42, 0]),
   midi.NoteOnEvent(tick=0, channel=9, data=[38, 127]),
   midi.NoteOnEvent(tick=0, channel=9, data=[42, 127]),
   midi.NoteOnEvent(tick=60, channel=9, data=[38, 0]),
   midi.NoteOnEvent(tick=0, channel=9, data=[42, 0]),
   midi.NoteOnEvent(tick=0, channel=9, data=[42, 127]),
   midi.NoteOnEvent(tick=60, channel=9, data=[42, 0]),
   midi.NoteOnEvent(tick=0, channel=9, data=[42, 127]),
   midi.NoteOnEvent(tick=0, channel=9, data=[36, 127]),
   midi.NoteOnEvent(tick=60, channel=9, data=[42, 0]),
   midi.NoteOnEvent(tick=0, channel=9, data=[42, 127]),
   midi.NoteOnEvent(tick=30, channel=9, data=[36, 0]),
   midi.NoteOnEvent(tick=0, channel=9, data=[36, 127]),
   midi.NoteOnEvent(tick=10, channel=9, data=[36, 0]),
   midi.NoteOnEvent(tick=0, channel=9, data=[36, 127]),
   midi.NoteOnEvent(tick=10, channel=9, data=[36, 0]),
   midi.NoteOnEvent(tick=0, channel=9, data=[36, 127]),
   midi.NoteOnEvent(tick=10, channel=9, data=[42, 0]),
   midi.NoteOnEvent(tick=0, channel=9, data=[36, 0]),
   midi.NoteOnEvent(tick=0, channel=9, data=[38, 127]),
   midi.NoteOnEvent(tick=0, channel=9, data=[42, 127]),
   midi.NoteOnEvent(tick=60, channel=9, data=[38, 0]),
   midi.NoteOnEvent(tick=0, channel=9, data=[42, 0]),
   midi.NoteOnEvent(tick=0, channel=9, data=[42, 127]),
   midi.NoteOnEvent(tick=60, channel=9, data=[42, 0]),
   midi.NoteOnEvent(tick=0, channel=9, data=[36, 127]),
   midi.NoteOnEvent(tick=0, channel=9, data=[42, 127]),
   midi.NoteOnEvent(tick=30, channel=9, data=[36, 0]),
   midi.NoteOnEvent(tick=0, channel=9, data=[36, 127]),
   midi.NoteOnEvent(tick=30, channel=9, data=[42, 0]),
   midi.NoteOnEvent(tick=0, channel=9, data=[42, 127]),
   midi.NoteOnEvent(tick=30, channel=9, data=[36, 0]),
   midi.NoteOnEvent(tick=0, channel=9, data=[36, 127]),
   midi.NoteOnEvent(tick=30, channel=9, data=[42, 0]),
   midi.NoteOnEvent(tick=0, channel=9, data=[36, 0]),
   midi.NoteOnEvent(tick=0, channel=9, data=[38, 127]),
   midi.NoteOnEvent(tick=0, channel=9, data=[42, 127]),
   midi.NoteOnEvent(tick=60, channel=9, data=[38, 0]),
   midi.NoteOnEvent(tick=0, channel=9, data=[42, 0]),
   midi.NoteOnEvent(tick=0, channel=9, data=[42, 127]),
   midi.NoteOnEvent(tick=60, channel=9, data=[42, 0]),
   midi.NoteOnEvent(tick=0, channel=9, data=[36, 127]),
   midi.NoteOnEvent(tick=0, channel=9, data=[42, 127]),
   midi.NoteOnEvent(tick=60, channel=9, data=[42, 0]),
   midi.NoteOnEvent(tick=0, channel=9, data=[42, 127]),
   midi.NoteOnEvent(tick=30, channel=9, data=[36, 0]),
   midi.NoteOnEvent(tick=0, channel=9, data=[36, 127]),
   midi.NoteOnEvent(tick=30, channel=9, data=[42, 0]),
   midi.NoteOnEvent(tick=0, channel=9, data=[36, 0]),
   midi.NoteOnEvent(tick=0, channel=9, data=[38, 127]),
   midi.NoteOnEvent(tick=0, channel=9, data=[42, 127]),
   midi.NoteOnEvent(tick=60, channel=9, data=[38, 0]),
   midi.NoteOnEvent(tick=0, channel=9, data=[42, 0]),
   midi.NoteOnEvent(tick=0, channel=9, data=[36, 127]),
   midi.NoteOnEvent(tick=0, channel=9, data=[57, 127]),
   midi.NoteOnEvent(tick=60, channel=9, data=[36, 0]),
   midi.NoteOnEvent(tick=0, channel=9, data=[57, 0]),
   midi.NoteOnEvent(tick=0, channel=9, data=[57, 127]),
   midi.NoteOnEvent(tick=0, channel=9, data=[36, 127]),
   midi.NoteOnEvent(tick=60, channel=9, data=[57, 0]),
   midi.NoteOnEvent(tick=0, channel=9, data=[42, 127]),
   midi.NoteOnEvent(tick=30, channel=9, data=[36, 0]),
   midi.NoteOnEvent(tick=0, channel=9, data=[36, 127]),
   midi.NoteOnEvent(tick=10, channel=9, data=[36, 0]),
   midi.NoteOnEvent(tick=0, channel=9, data=[36, 127]),
   midi.NoteOnEvent(tick=10, channel=9, data=[36, 0]),
   midi.NoteOnEvent(tick=0, channel=9, data=[36, 127]),
   midi.NoteOnEvent(tick=10, channel=9, data=[42, 0]),
   midi.NoteOnEvent(tick=0, channel=9, data=[36, 0]),
   midi.NoteOnEvent(tick=0, channel=9, data=[38, 127]),
   midi.NoteOnEvent(tick=0, channel=9, data=[42, 127]),
   midi.NoteOnEvent(tick=60, channel=9, data=[38, 0]),
   midi.NoteOnEvent(tick=0, channel=9, data=[42, 0]),
   midi.NoteOnEvent(tick=0, channel=9, data=[42, 127]),
   midi.NoteOnEvent(tick=60, channel=9, data=[42, 0]),
   midi.NoteOnEvent(tick=0, channel=9, data=[36, 127]),
   midi.NoteOnEvent(tick=0, channel=9, data=[42, 127]),
   midi.NoteOnEvent(tick=30, channel=9, data=[36, 0]),
   midi.NoteOnEvent(tick=0, channel=9, data=[36, 127]),
   midi.NoteOnEvent(tick=30, channel=9, data=[42, 0]),
   midi.NoteOnEvent(tick=0, channel=9, data=[42, 127]),
   midi.NoteOnEvent(tick=30, channel=9, data=[36, 0]),
   midi.NoteOnEvent(tick=0, channel=9, data=[36, 127]),
   midi.NoteOnEvent(tick=30, channel=9, data=[42, 0]),
   midi.NoteOnEvent(tick=0, channel=9, data=[36, 0]),
   midi.NoteOnEvent(tick=0, channel=9, data=[38, 127]),
   midi.NoteOnEvent(tick=0, channel=9, data=[42, 127]),
   midi.NoteOnEvent(tick=60, channel=9, data=[38, 0]),
   midi.NoteOnEvent(tick=0, channel=9, data=[42, 0]),
   midi.NoteOnEvent(tick=0, channel=9, data=[42, 127]),
   midi.NoteOnEvent(tick=60, channel=9, data=[42, 0]),
   midi.NoteOnEvent(tick=0, channel=9, data=[36, 127]),
   midi.NoteOnEvent(tick=0, channel=9, data=[42, 127]),
   midi.NoteOnEvent(tick=60, channel=9, data=[42, 0]),
   midi.NoteOnEvent(tick=0, channel=9, data=[42, 127]),
   midi.NoteOnEvent(tick=30, channel=9, data=[36, 0]),
   midi.NoteOnEvent(tick=0, channel=9, data=[36, 127]),
   midi.NoteOnEvent(tick=30, channel=9, data=[42, 0]),
   midi.NoteOnEvent(tick=0, channel=9, data=[36, 0]),
   midi.NoteOnEvent(tick=0, channel=9, data=[38, 127]),
   midi.NoteOnEvent(tick=0, channel=9, data=[42, 127]),
   midi.NoteOnEvent(tick=60, channel=9, data=[38, 0]),
   midi.NoteOnEvent(tick=0, channel=9, data=[42, 0]),
   midi.NoteOnEvent(tick=0, channel=9, data=[42, 127]),
   midi.NoteOnEvent(tick=30, channel=9, data=[36, 127]),
   midi.NoteOnEvent(tick=30, channel=9, data=[42, 0]),
   midi.NoteOnEvent(tick=0, channel=9, data=[36, 0]),
   midi.NoteOnEvent(tick=0, channel=9, data=[38, 127]),
   midi.NoteOnEvent(tick=60, channel=9, data=[38, 0]),
   midi.NoteOnEvent(tick=0, channel=9, data=[38, 127]),
   midi.NoteOnEvent(tick=60, channel=9, data=[38, 0]),
   midi.NoteOnEvent(tick=0, channel=9, data=[45, 127]),
   midi.NoteOnEvent(tick=30, channel=9, data=[45, 0]),
   midi.NoteOnEvent(tick=0, channel=9, data=[45, 127]),
   midi.NoteOnEvent(tick=30, channel=9, data=[45, 0]),
   midi.NoteOnEvent(tick=0, channel=9, data=[57, 127]),
   midi.NoteOnEvent(tick=0, channel=9, data=[36, 127]),
   midi.NoteOnEvent(tick=60, channel=9, data=[57, 0]),
   midi.NoteOnEvent(tick=0, channel=9, data=[36, 0]),
   midi.NoteOnEvent(tick=0, channel=9, data=[57, 127]),
   midi.NoteOnEvent(tick=0, channel=9, data=[36, 127]),
   midi.NoteOnEvent(tick=60, channel=9, data=[57, 0]),
   midi.NoteOnEvent(tick=0, channel=9, data=[42, 127]),
   midi.NoteOnEvent(tick=60, channel=9, data=[36, 0]),
   midi.NoteOnEvent(tick=0, channel=9, data=[42, 0]),
   midi.NoteOnEvent(tick=0, channel=9, data=[38, 127]),
   midi.NoteOnEvent(tick=0, channel=9, data=[42, 127]),
   midi.NoteOnEvent(tick=60, channel=9, data=[38, 0]),
   midi.NoteOnEvent(tick=0, channel=9, data=[42, 0]),
   midi.NoteOnEvent(tick=0, channel=9, data=[42, 127]),
   midi.NoteOnEvent(tick=60, channel=9, data=[42, 0]),
   midi.NoteOnEvent(tick=0, channel=9, data=[42, 127]),
   midi.NoteOnEvent(tick=0, channel=9, data=[36, 127]),
   midi.NoteOnEvent(tick=60, channel=9, data=[42, 0]),
   midi.NoteOnEvent(tick=0, channel=9, data=[42, 127]),
   midi.NoteOnEvent(tick=30, channel=9, data=[36, 0]),
   midi.NoteOnEvent(tick=0, channel=9, data=[36, 127]),
   midi.NoteOnEvent(tick=10, channel=9, data=[36, 0]),
   midi.NoteOnEvent(tick=0, channel=9, data=[36, 127]),
   midi.NoteOnEvent(tick=10, channel=9, data=[36, 0]),
   midi.NoteOnEvent(tick=0, channel=9, data=[36, 127]),
   midi.NoteOnEvent(tick=10, channel=9, data=[42, 0]),
   midi.NoteOnEvent(tick=0, channel=9, data=[36, 0]),
   midi.NoteOnEvent(tick=0, channel=9, data=[38, 127]),
   midi.NoteOnEvent(tick=0, channel=9, data=[42, 127]),
   midi.NoteOnEvent(tick=30, channel=9, data=[36, 127]),
   midi.NoteOnEvent(tick=30, channel=9, data=[38, 0]),
   midi.NoteOnEvent(tick=0, channel=9, data=[42, 0]),
   midi.NoteOnEvent(tick=0, channel=9, data=[42, 127]),
   midi.NoteOnEvent(tick=60, channel=9, data=[36, 0]),
   midi.NoteOnEvent(tick=0, channel=9, data=[42, 0]),
   midi.NoteOnEvent(tick=0, channel=9, data=[36, 127]),
   midi.NoteOnEvent(tick=0, channel=9, data=[42, 127]),
   midi.NoteOnEvent(tick=30, channel=9, data=[36, 0]),
   midi.NoteOnEvent(tick=0, channel=9, data=[36, 127]),
   midi.NoteOnEvent(tick=30, channel=9, data=[42, 0]),
   midi.NoteOnEvent(tick=0, channel=9, data=[42, 127]),
   midi.NoteOnEvent(tick=30, channel=9, data=[36, 0]),
   midi.NoteOnEvent(tick=0, channel=9, data=[36, 127]),
   midi.NoteOnEvent(tick=30, channel=9, data=[42, 0]),
   midi.NoteOnEvent(tick=0, channel=9, data=[36, 0]),
   midi.NoteOnEvent(tick=0, channel=9, data=[38, 127]),
   midi.NoteOnEvent(tick=0, channel=9, data=[42, 127]),
   midi.NoteOnEvent(tick=60, channel=9, data=[38, 0]),
   midi.NoteOnEvent(tick=0, channel=9, data=[42, 0]),
   midi.NoteOnEvent(tick=0, channel=9, data=[42, 127]),
   midi.NoteOnEvent(tick=60, channel=9, data=[42, 0]),
   midi.NoteOnEvent(tick=0, channel=9, data=[42, 127]),
   midi.NoteOnEvent(tick=0, channel=9, data=[38, 127]),
   midi.NoteOnEvent(tick=30, channel=9, data=[36, 127]),
   midi.NoteOnEvent(tick=30, channel=9, data=[42, 0]),
   midi.NoteOnEvent(tick=0, channel=9, data=[38, 0]),
   midi.NoteOnEvent(tick=0, channel=9, data=[42, 127]),
   midi.NoteOnEvent(tick=30, channel=9, data=[36, 0]),
   midi.NoteOnEvent(tick=0, channel=9, data=[36, 127]),
   midi.NoteOnEvent(tick=30, channel=9, data=[42, 0]),
   midi.NoteOnEvent(tick=0, channel=9, data=[36, 0]),
   midi.NoteOnEvent(tick=0, channel=9, data=[42, 127]),
   midi.NoteOnEvent(tick=30, channel=9, data=[36, 127]),
   midi.NoteOnEvent(tick=30, channel=9, data=[42, 0]),
   midi.NoteOnEvent(tick=0, channel=9, data=[57, 127]),
   midi.NoteOnEvent(tick=0, channel=9, data=[38, 127]),
   midi.NoteOnEvent(tick=60, channel=9, data=[36, 0]),
   midi.NoteOnEvent(tick=0, channel=9, data=[57, 0]),
   midi.NoteOnEvent(tick=0, channel=9, data=[38, 0]),
   midi.NoteOnEvent(tick=0, channel=9, data=[57, 127]),
   midi.NoteOnEvent(tick=0, channel=9, data=[36, 127]),
   midi.NoteOnEvent(tick=60, channel=9, data=[57, 0]),
   midi.NoteOnEvent(tick=0, channel=9, data=[42, 127]),
   midi.NoteOnEvent(tick=30, channel=9, data=[36, 0]),
   midi.NoteOnEvent(tick=0, channel=9, data=[36, 127]),
   midi.NoteOnEvent(tick=10, channel=9, data=[36, 0]),
   midi.NoteOnEvent(tick=0, channel=9, data=[36, 127]),
   midi.NoteOnEvent(tick=10, channel=9, data=[36, 0]),
   midi.NoteOnEvent(tick=0, channel=9, data=[36, 127]),
   midi.NoteOnEvent(tick=10, channel=9, data=[42, 0]),
   midi.NoteOnEvent(tick=0, channel=9, data=[36, 0]),
   midi.NoteOnEvent(tick=0, channel=9, data=[38, 127]),
   midi.NoteOnEvent(tick=0, channel=9, data=[42, 127]),
   midi.NoteOnEvent(tick=60, channel=9, data=[38, 0]),
   midi.NoteOnEvent(tick=0, channel=9, data=[42, 0]),
   midi.NoteOnEvent(tick=0, channel=9, data=[42, 127]),
   midi.NoteOnEvent(tick=60, channel=9, data=[42, 0]),
   midi.NoteOnEvent(tick=0, channel=9, data=[42, 127]),
   midi.NoteOnEvent(tick=0, channel=9, data=[36, 127]),
   midi.NoteOnEvent(tick=60, channel=9, data=[42, 0]),
   midi.NoteOnEvent(tick=0, channel=9, data=[42, 127]),
   midi.NoteOnEvent(tick=30, channel=9, data=[36, 0]),
   midi.NoteOnEvent(tick=0, channel=9, data=[36, 127]),
   midi.NoteOnEvent(tick=10, channel=9, data=[36, 0]),
   midi.NoteOnEvent(tick=0, channel=9, data=[36, 127]),
   midi.NoteOnEvent(tick=10, channel=9, data=[36, 0]),
   midi.NoteOnEvent(tick=0, channel=9, data=[36, 127]),
   midi.NoteOnEvent(tick=10, channel=9, data=[42, 0]),
   midi.NoteOnEvent(tick=0, channel=9, data=[36, 0]),
   midi.NoteOnEvent(tick=0, channel=9, data=[38, 127]),
   midi.NoteOnEvent(tick=0, channel=9, data=[42, 127]),
   midi.NoteOnEvent(tick=30, channel=9, data=[36, 127]),
   midi.NoteOnEvent(tick=30, channel=9, data=[38, 0]),
   midi.NoteOnEvent(tick=0, channel=9, data=[42, 0]),
   midi.NoteOnEvent(tick=0, channel=9, data=[42, 127]),
   midi.NoteOnEvent(tick=60, channel=9, data=[36, 0]),
   midi.NoteOnEvent(tick=0, channel=9, data=[42, 0]),
   midi.NoteOnEvent(tick=0, channel=9, data=[42, 127]),
   midi.NoteOnEvent(tick=0, channel=9, data=[36, 127]),
   midi.NoteOnEvent(tick=60, channel=9, data=[42, 0]),
   midi.NoteOnEvent(tick=0, channel=9, data=[42, 127]),
   midi.NoteOnEvent(tick=30, channel=9, data=[36, 0]),
   midi.NoteOnEvent(tick=0, channel=9, data=[36, 127]),
   midi.NoteOnEvent(tick=10, channel=9, data=[36, 0]),
   midi.NoteOnEvent(tick=0, channel=9, data=[36, 127]),
   midi.NoteOnEvent(tick=10, channel=9, data=[36, 0]),
   midi.NoteOnEvent(tick=0, channel=9, data=[36, 127]),
   midi.NoteOnEvent(tick=10, channel=9, data=[42, 0]),
   midi.NoteOnEvent(tick=0, channel=9, data=[36, 0]),
   midi.NoteOnEvent(tick=0, channel=9, data=[38, 127]),
   midi.NoteOnEvent(tick=0, channel=9, data=[42, 127]),
   midi.NoteOnEvent(tick=60, channel=9, data=[38, 0]),
   midi.NoteOnEvent(tick=0, channel=9, data=[42, 0]),
   midi.NoteOnEvent(tick=0, channel=9, data=[42, 127]),
   midi.NoteOnEvent(tick=30, channel=9, data=[36, 127]),
   midi.NoteOnEvent(tick=30, channel=9, data=[42, 0]),
   midi.NoteOnEvent(tick=0, channel=9, data=[36, 0]),
   midi.NoteOnEvent(tick=0, channel=9, data=[38, 127]),
   midi.NoteOnEvent(tick=0, channel=9, data=[42, 127]),
   midi.NoteOnEvent(tick=60, channel=9, data=[38, 0]),
   midi.NoteOnEvent(tick=0, channel=9, data=[42, 0]),
   midi.NoteOnEvent(tick=0, channel=9, data=[45, 127]),
   midi.NoteOnEvent(tick=30, channel=9, data=[45, 0]),
   midi.NoteOnEvent(tick=0, channel=9, data=[45, 127]),
   midi.NoteOnEvent(tick=30, channel=9, data=[45, 0]),
   midi.NoteOnEvent(tick=0, channel=9, data=[47, 127]),
   midi.NoteOnEvent(tick=30, channel=9, data=[47, 0]),
   midi.NoteOnEvent(tick=0, channel=9, data=[47, 127]),
   midi.NoteOnEvent(tick=30, channel=9, data=[47, 0]),
   midi.NoteOnEvent(tick=0, channel=9, data=[47, 127]),
   midi.NoteOnEvent(tick=60, channel=9, data=[47, 0]),
   midi.NoteOnEvent(tick=0, channel=9, data=[57, 127]),
   midi.NoteOnEvent(tick=0, channel=9, data=[36, 127]),
   midi.NoteOnEvent(tick=60, channel=9, data=[57, 0]),
   midi.NoteOnEvent(tick=0, channel=9, data=[42, 127]),
   midi.NoteOnEvent(tick=60, channel=9, data=[36, 0]),
   midi.NoteOnEvent(tick=0, channel=9, data=[42, 0]),
   midi.NoteOnEvent(tick=0, channel=9, data=[38, 127]),
   midi.NoteOnEvent(tick=0, channel=9, data=[42, 127]),
   midi.NoteOnEvent(tick=60, channel=9, data=[38, 0]),
   midi.NoteOnEvent(tick=0, channel=9, data=[42, 0]),
   midi.NoteOnEvent(tick=0, channel=9, data=[42, 127]),
   midi.NoteOnEvent(tick=60, channel=9, data=[42, 0]),
   midi.NoteOnEvent(tick=0, channel=9, data=[42, 127]),
   midi.NoteOnEvent(tick=0, channel=9, data=[36, 127]),
   midi.NoteOnEvent(tick=60, channel=9, data=[42, 0]),
   midi.NoteOnEvent(tick=0, channel=9, data=[42, 127]),
   midi.NoteOnEvent(tick=30, channel=9, data=[36, 0]),
   midi.NoteOnEvent(tick=0, channel=9, data=[36, 127]),
   midi.NoteOnEvent(tick=10, channel=9, data=[36, 0]),
   midi.NoteOnEvent(tick=0, channel=9, data=[36, 127]),
   midi.NoteOnEvent(tick=10, channel=9, data=[36, 0]),
   midi.NoteOnEvent(tick=0, channel=9, data=[36, 127]),
   midi.NoteOnEvent(tick=10, channel=9, data=[42, 0]),
   midi.NoteOnEvent(tick=0, channel=9, data=[36, 0]),
   midi.NoteOnEvent(tick=0, channel=9, data=[38, 127]),
   midi.NoteOnEvent(tick=0, channel=9, data=[42, 127]),
   midi.NoteOnEvent(tick=30, channel=9, data=[36, 127]),
   midi.NoteOnEvent(tick=30, channel=9, data=[38, 0]),
   midi.NoteOnEvent(tick=0, channel=9, data=[42, 0]),
   midi.NoteOnEvent(tick=0, channel=9, data=[42, 127]),
   midi.NoteOnEvent(tick=60, channel=9, data=[36, 0]),
   midi.NoteOnEvent(tick=0, channel=9, data=[42, 0]),
   midi.NoteOnEvent(tick=0, channel=9, data=[42, 127]),
   midi.NoteOnEvent(tick=0, channel=9, data=[36, 127]),
   midi.NoteOnEvent(tick=60, channel=9, data=[42, 0]),
   midi.NoteOnEvent(tick=0, channel=9, data=[42, 127]),
   midi.NoteOnEvent(tick=30, channel=9, data=[36, 0]),
   midi.NoteOnEvent(tick=0, channel=9, data=[36, 127]),
   midi.NoteOnEvent(tick=10, channel=9, data=[36, 0]),
   midi.NoteOnEvent(tick=0, channel=9, data=[36, 127]),
   midi.NoteOnEvent(tick=10, channel=9, data=[36, 0]),
   midi.NoteOnEvent(tick=0, channel=9, data=[36, 127]),
   midi.NoteOnEvent(tick=10, channel=9, data=[42, 0]),
   midi.NoteOnEvent(tick=0, channel=9, data=[36, 0]),
   midi.NoteOnEvent(tick=0, channel=9, data=[38, 127]),
   midi.NoteOnEvent(tick=0, channel=9, data=[42, 127]),
   midi.NoteOnEvent(tick=30, channel=9, data=[36, 127]),
   midi.NoteOnEvent(tick=30, channel=9, data=[38, 0]),
   midi.NoteOnEvent(tick=0, channel=9, data=[42, 0]),
   midi.NoteOnEvent(tick=0, channel=9, data=[42, 127]),
   midi.NoteOnEvent(tick=60, channel=9, data=[36, 0]),
   midi.NoteOnEvent(tick=0, channel=9, data=[42, 0]),
   midi.NoteOnEvent(tick=0, channel=9, data=[42, 127]),
   midi.NoteOnEvent(tick=0, channel=9, data=[36, 127]),
   midi.NoteOnEvent(tick=60, channel=9, data=[42, 0]),
   midi.NoteOnEvent(tick=0, channel=9, data=[42, 127]),
   midi.NoteOnEvent(tick=30, channel=9, data=[36, 0]),
   midi.NoteOnEvent(tick=0, channel=9, data=[36, 127]),
   midi.NoteOnEvent(tick=30, channel=9, data=[42, 0]),
   midi.NoteOnEvent(tick=0, channel=9, data=[36, 0]),
   midi.NoteOnEvent(tick=0, channel=9, data=[38, 127]),
   midi.NoteOnEvent(tick=0, channel=9, data=[42, 127]),
   midi.NoteOnEvent(tick=60, channel=9, data=[38, 0]),
   midi.NoteOnEvent(tick=0, channel=9, data=[42, 0]),
   midi.NoteOnEvent(tick=0, channel=9, data=[57, 127]),
   midi.NoteOnEvent(tick=0, channel=9, data=[36, 127]),
   midi.NoteOnEvent(tick=60, channel=9, data=[57, 0]),
   midi.NoteOnEvent(tick=0, channel=9, data=[36, 0]),
   midi.NoteOnEvent(tick=0, channel=9, data=[36, 127]),
   midi.NoteOnEvent(tick=0, channel=9, data=[57, 127]),
   midi.NoteOnEvent(tick=60, channel=9, data=[57, 0]),
   midi.NoteOnEvent(tick=0, channel=9, data=[42, 127]),
   midi.NoteOnEvent(tick=30, channel=9, data=[36, 0]),
   midi.NoteOnEvent(tick=0, channel=9, data=[36, 127]),
   midi.NoteOnEvent(tick=30, channel=9, data=[42, 0]),
   midi.NoteOnEvent(tick=0, channel=9, data=[36, 0]),
   midi.NoteOnEvent(tick=0, channel=9, data=[38, 127]),
   midi.NoteOnEvent(tick=0, channel=9, data=[42, 127]),
   midi.NoteOnEvent(tick=60, channel=9, data=[38, 0]),
   midi.NoteOnEvent(tick=0, channel=9, data=[42, 0]),
   midi.NoteOnEvent(tick=0, channel=9, data=[42, 127]),
   midi.NoteOnEvent(tick=60, channel=9, data=[42, 0]),
   midi.NoteOnEvent(tick=0, channel=9, data=[42, 127]),
   midi.NoteOnEvent(tick=0, channel=9, data=[36, 127]),
   midi.NoteOnEvent(tick=60, channel=9, data=[42, 0]),
   midi.NoteOnEvent(tick=0, channel=9, data=[36, 0]),
   midi.NoteOnEvent(tick=0, channel=9, data=[42, 127]),
   midi.NoteOnEvent(tick=0, channel=9, data=[36, 127]),
   midi.NoteOnEvent(tick=30, channel=9, data=[36, 0]),
   midi.NoteOnEvent(tick=0, channel=9, data=[36, 127]),
   midi.NoteOnEvent(tick=30, channel=9, data=[42, 0]),
   midi.NoteOnEvent(tick=0, channel=9, data=[36, 0]),
   midi.NoteOnEvent(tick=0, channel=9, data=[38, 127]),
   midi.NoteOnEvent(tick=0, channel=9, data=[42, 127]),
   midi.NoteOnEvent(tick=30, channel=9, data=[36, 127]),
   midi.NoteOnEvent(tick=30, channel=9, data=[38, 0]),
   midi.NoteOnEvent(tick=0, channel=9, data=[42, 0]),
   midi.NoteOnEvent(tick=0, channel=9, data=[42, 127]),
   midi.NoteOnEvent(tick=60, channel=9, data=[36, 0]),
   midi.NoteOnEvent(tick=0, channel=9, data=[42, 0]),
   midi.NoteOnEvent(tick=0, channel=9, data=[42, 127]),
   midi.NoteOnEvent(tick=0, channel=9, data=[36, 127]),
   midi.NoteOnEvent(tick=60, channel=9, data=[42, 0]),
   midi.NoteOnEvent(tick=0, channel=9, data=[42, 127]),
   midi.NoteOnEvent(tick=30, channel=9, data=[36, 0]),
   midi.NoteOnEvent(tick=0, channel=9, data=[36, 127]),
   midi.NoteOnEvent(tick=30, channel=9, data=[42, 0]),
   midi.NoteOnEvent(tick=0, channel=9, data=[36, 0]),
   midi.NoteOnEvent(tick=0, channel=9, data=[38, 127]),
   midi.NoteOnEvent(tick=0, channel=9, data=[42, 127]),
   midi.NoteOnEvent(tick=60, channel=9, data=[38, 0]),
   midi.NoteOnEvent(tick=0, channel=9, data=[42, 0]),
   midi.NoteOnEvent(tick=0, channel=9, data=[42, 127]),
   midi.NoteOnEvent(tick=60, channel=9, data=[42, 0]),
   midi.NoteOnEvent(tick=0, channel=9, data=[36, 127]),
   midi.NoteOnEvent(tick=0, channel=9, data=[57, 127]),
   midi.NoteOnEvent(tick=30, channel=9, data=[36, 0]),
   midi.NoteOnEvent(tick=0, channel=9, data=[57, 0]),
   midi.NoteOnEvent(tick=0, channel=9, data=[36, 127]),
   midi.NoteOnEvent(tick=0, channel=9, data=[57, 127]),
   midi.NoteOnEvent(tick=30, channel=9, data=[36, 0]),
   midi.NoteOnEvent(tick=0, channel=9, data=[57, 0]),
   midi.NoteOnEvent(tick=0, channel=9, data=[36, 127]),
   midi.NoteOnEvent(tick=0, channel=9, data=[57, 127]),
   midi.NoteOnEvent(tick=60, channel=9, data=[36, 0]),
   midi.NoteOnEvent(tick=0, channel=9, data=[57, 0]),
   midi.NoteOnEvent(tick=0, channel=9, data=[36, 127]),
   midi.NoteOnEvent(tick=0, channel=9, data=[57, 127]),
   midi.NoteOnEvent(tick=30, channel=9, data=[36, 0]),
   midi.NoteOnEvent(tick=0, channel=9, data=[57, 0]),
   midi.NoteOnEvent(tick=0, channel=9, data=[36, 127]),
   midi.NoteOnEvent(tick=0, channel=9, data=[57, 127]),
   midi.NoteOnEvent(tick=30, channel=9, data=[36, 0]),
   midi.NoteOnEvent(tick=0, channel=9, data=[57, 0]),
   midi.NoteOnEvent(tick=0, channel=9, data=[36, 127]),
   midi.NoteOnEvent(tick=0, channel=9, data=[57, 127]),
   midi.NoteOnEvent(tick=60, channel=9, data=[36, 0]),
   midi.NoteOnEvent(tick=0, channel=9, data=[57, 0]),
   midi.NoteOnEvent(tick=0, channel=9, data=[57, 127]),
   midi.NoteOnEvent(tick=0, channel=9, data=[36, 127]),
   midi.NoteOnEvent(tick=60, channel=9, data=[57, 0]),
   midi.NoteOnEvent(tick=0, channel=9, data=[42, 127]),
   midi.NoteOnEvent(tick=60, channel=9, data=[36, 0]),
   midi.NoteOnEvent(tick=0, channel=9, data=[42, 0]),
   midi.NoteOnEvent(tick=0, channel=9, data=[38, 127]),
   midi.NoteOnEvent(tick=0, channel=9, data=[42, 127]),
   midi.NoteOnEvent(tick=60, channel=9, data=[38, 0]),
   midi.NoteOnEvent(tick=0, channel=9, data=[42, 0]),
   midi.NoteOnEvent(tick=0, channel=9, data=[42, 127]),
   midi.NoteOnEvent(tick=60, channel=9, data=[42, 0]),
   midi.NoteOnEvent(tick=0, channel=9, data=[42, 127]),
   midi.NoteOnEvent(tick=0, channel=9, data=[36, 127]),
   midi.NoteOnEvent(tick=60, channel=9, data=[42, 0]),
   midi.NoteOnEvent(tick=0, channel=9, data=[42, 127]),
   midi.NoteOnEvent(tick=30, channel=9, data=[36, 0]),
   midi.NoteOnEvent(tick=0, channel=9, data=[36, 127]),
   midi.NoteOnEvent(tick=10, channel=9, data=[36, 0]),
   midi.NoteOnEvent(tick=0, channel=9, data=[36, 127]),
   midi.NoteOnEvent(tick=10, channel=9, data=[36, 0]),
   midi.NoteOnEvent(tick=0, channel=9, data=[36, 127]),
   midi.NoteOnEvent(tick=10, channel=9, data=[42, 0]),
   midi.NoteOnEvent(tick=0, channel=9, data=[36, 0]),
   midi.NoteOnEvent(tick=0, channel=9, data=[38, 127]),
   midi.NoteOnEvent(tick=0, channel=9, data=[42, 127]),
   midi.NoteOnEvent(tick=30, channel=9, data=[36, 127]),
   midi.NoteOnEvent(tick=30, channel=9, data=[38, 0]),
   midi.NoteOnEvent(tick=0, channel=9, data=[42, 0]),
   midi.NoteOnEvent(tick=0, channel=9, data=[42, 127]),
   midi.NoteOnEvent(tick=60, channel=9, data=[36, 0]),
   midi.NoteOnEvent(tick=0, channel=9, data=[42, 0]),
   midi.NoteOnEvent(tick=0, channel=9, data=[42, 127]),
   midi.NoteOnEvent(tick=0, channel=9, data=[36, 127]),
   midi.NoteOnEvent(tick=30, channel=9, data=[36, 0]),
   midi.NoteOnEvent(tick=0, channel=9, data=[36, 127]),
   midi.NoteOnEvent(tick=30, channel=9, data=[42, 0]),
   midi.NoteOnEvent(tick=0, channel=9, data=[42, 127]),
   midi.NoteOnEvent(tick=30, channel=9, data=[36, 0]),
   midi.NoteOnEvent(tick=0, channel=9, data=[36, 127]),
   midi.NoteOnEvent(tick=30, channel=9, data=[42, 0]),
   midi.NoteOnEvent(tick=0, channel=9, data=[36, 0]),
   midi.NoteOnEvent(tick=0, channel=9, data=[57, 127]),
   midi.NoteOnEvent(tick=0, channel=9, data=[38, 127]),
   midi.NoteOnEvent(tick=60, channel=9, data=[57, 0]),
   midi.NoteOnEvent(tick=0, channel=9, data=[38, 0]),
   midi.NoteOnEvent(tick=0, channel=9, data=[42, 127]),
   midi.NoteOnEvent(tick=30, channel=9, data=[36, 127]),
   midi.NoteOnEvent(tick=10, channel=9, data=[36, 127]),
   midi.NoteOnEvent(tick=10, channel=9, data=[36, 0]),
   midi.NoteOnEvent(tick=0, channel=9, data=[36, 127]),
   midi.NoteOnEvent(tick=10, channel=9, data=[42, 0]),
   midi.NoteOnEvent(tick=0, channel=9, data=[36, 0]),
   midi.NoteOnEvent(tick=0, channel=9, data=[38, 127]),
   midi.NoteOnEvent(tick=0, channel=9, data=[57, 127]),
   midi.NoteOnEvent(tick=30, channel=9, data=[36, 0]),
   midi.NoteOnEvent(tick=0, channel=9, data=[38, 0]),
   midi.NoteOnEvent(tick=0, channel=9, data=[57, 0]),
   midi.NoteOnEvent(tick=0, channel=9, data=[38, 127]),
   midi.NoteOnEvent(tick=15, channel=9, data=[38, 0]),
   midi.NoteOnEvent(tick=0, channel=9, data=[38, 127]),
   midi.NoteOnEvent(tick=15, channel=9, data=[38, 0]),
   midi.NoteOnEvent(tick=0, channel=9, data=[57, 127]),
   midi.NoteOnEvent(tick=0, channel=9, data=[36, 127]),
   midi.NoteOnEvent(tick=30, channel=9, data=[57, 0]),
   midi.NoteOnEvent(tick=0, channel=9, data=[36, 0]),
   midi.NoteOnEvent(tick=0, channel=9, data=[38, 127]),
   midi.NoteOnEvent(tick=15, channel=9, data=[38, 0]),
   midi.NoteOnEvent(tick=0, channel=9, data=[38, 127]),
   midi.NoteOnEvent(tick=15, channel=9, data=[38, 0]),
   midi.NoteOnEvent(tick=0, channel=9, data=[57, 127]),
   midi.NoteOnEvent(tick=0, channel=9, data=[36, 127]),
   midi.NoteOnEvent(tick=30, channel=9, data=[57, 0]),
   midi.NoteOnEvent(tick=0, channel=9, data=[36, 0]),
   midi.NoteOnEvent(tick=0, channel=9, data=[38, 127]),
   midi.NoteOnEvent(tick=15, channel=9, data=[38, 0]),
   midi.NoteOnEvent(tick=0, channel=9, data=[38, 127]),
   midi.NoteOnEvent(tick=15, channel=9, data=[38, 0]),
   midi.NoteOnEvent(tick=0, channel=9, data=[57, 127]),
   midi.NoteOnEvent(tick=0, channel=9, data=[36, 127]),
   midi.NoteOnEvent(tick=30, channel=9, data=[57, 0]),
   midi.NoteOnEvent(tick=0, channel=9, data=[36, 0]),
   midi.NoteOnEvent(tick=0, channel=9, data=[38, 127]),
   midi.NoteOnEvent(tick=15, channel=9, data=[38, 0]),
   midi.NoteOnEvent(tick=0, channel=9, data=[38, 127]),
   midi.NoteOnEvent(tick=15, channel=9, data=[38, 0]),
   midi.NoteOnEvent(tick=0, channel=9, data=[36, 127]),
   midi.NoteOnEvent(tick=0, channel=9, data=[57, 127]),
   midi.NoteOnEvent(tick=60, channel=9, data=[57, 0]),
   midi.NoteOnEvent(tick=0, channel=9, data=[42, 127]),
   midi.NoteOnEvent(tick=60, channel=9, data=[36, 0]),
   midi.NoteOnEvent(tick=0, channel=9, data=[42, 0]),
   midi.NoteOnEvent(tick=0, channel=9, data=[38, 127]),
   midi.NoteOnEvent(tick=0, channel=9, data=[42, 127]),
   midi.NoteOnEvent(tick=60, channel=9, data=[38, 0]),
   midi.NoteOnEvent(tick=0, channel=9, data=[42, 0]),
   midi.NoteOnEvent(tick=0, channel=9, data=[42, 127]),
   midi.NoteOnEvent(tick=60, channel=9, data=[42, 0]),
   midi.NoteOnEvent(tick=0, channel=9, data=[42, 127]),
   midi.NoteOnEvent(tick=0, channel=9, data=[36, 127]),
   midi.NoteOnEvent(tick=60, channel=9, data=[42, 0]),
   midi.NoteOnEvent(tick=0, channel=9, data=[42, 127]),
   midi.NoteOnEvent(tick=30, channel=9, data=[36, 0]),
   midi.NoteOnEvent(tick=0, channel=9, data=[36, 127]),
   midi.NoteOnEvent(tick=10, channel=9, data=[36, 0]),
   midi.NoteOnEvent(tick=0, channel=9, data=[36, 127]),
   midi.NoteOnEvent(tick=10, channel=9, data=[36, 0]),
   midi.NoteOnEvent(tick=0, channel=9, data=[36, 127]),
   midi.NoteOnEvent(tick=10, channel=9, data=[42, 0]),
   midi.NoteOnEvent(tick=0, channel=9, data=[36, 0]),
   midi.NoteOnEvent(tick=0, channel=9, data=[42, 127]),
   midi.NoteOnEvent(tick=0, channel=9, data=[38, 127]),
   midi.NoteOnEvent(tick=60, channel=9, data=[42, 0]),
   midi.NoteOnEvent(tick=0, channel=9, data=[38, 0]),
   midi.NoteOnEvent(tick=0, channel=9, data=[42, 127]),
   midi.NoteOnEvent(tick=60, channel=9, data=[42, 0]),
   midi.NoteOnEvent(tick=0, channel=9, data=[36, 127]),
   midi.NoteOnEvent(tick=0, channel=9, data=[42, 127]),
   midi.NoteOnEvent(tick=60, channel=9, data=[36, 0]),
   midi.NoteOnEvent(tick=0, channel=9, data=[42, 0]),
   midi.NoteOnEvent(tick=0, channel=9, data=[36, 127]),
   midi.NoteOnEvent(tick=0, channel=9, data=[42, 127]),
   midi.NoteOnEvent(tick=30, channel=9, data=[36, 0]),
   midi.NoteOnEvent(tick=0, channel=9, data=[36, 127]),
   midi.NoteOnEvent(tick=30, channel=9, data=[42, 0]),
   midi.NoteOnEvent(tick=0, channel=9, data=[36, 0]),
   midi.NoteOnEvent(tick=0, channel=9, data=[38, 127]),
   midi.NoteOnEvent(tick=0, channel=9, data=[42, 127]),
   midi.NoteOnEvent(tick=60, channel=9, data=[38, 0]),
   midi.NoteOnEvent(tick=0, channel=9, data=[42, 0]),
   midi.NoteOnEvent(tick=0, channel=9, data=[42, 127]),
   midi.NoteOnEvent(tick=60, channel=9, data=[42, 0]),
   midi.NoteOnEvent(tick=0, channel=9, data=[36, 127]),
   midi.NoteOnEvent(tick=0, channel=9, data=[57, 127]),
   midi.NoteOnEvent(tick=60, channel=9, data=[57, 0]),
   midi.NoteOnEvent(tick=0, channel=9, data=[38, 127]),
   midi.NoteOnEvent(tick=60, channel=9, data=[36, 0]),
   midi.NoteOnEvent(tick=0, channel=9, data=[38, 0]),
   midi.NoteOnEvent(tick=0, channel=9, data=[36, 127]),
   midi.NoteOnEvent(tick=0, channel=9, data=[57, 127]),
   midi.NoteOnEvent(tick=60, channel=9, data=[57, 0]),
   midi.NoteOnEvent(tick=0, channel=9, data=[38, 127]),
   midi.NoteOnEvent(tick=60, channel=9, data=[36, 0]),
   midi.NoteOnEvent(tick=0, channel=9, data=[38, 0]),
   midi.NoteOnEvent(tick=0, channel=9, data=[36, 127]),
   midi.NoteOnEvent(tick=0, channel=9, data=[57, 127]),
   midi.NoteOnEvent(tick=60, channel=9, data=[57, 0]),
   midi.NoteOnEvent(tick=0, channel=9, data=[38, 127]),
   midi.NoteOnEvent(tick=60, channel=9, data=[36, 0]),
   midi.NoteOnEvent(tick=0, channel=9, data=[38, 0]),
   midi.NoteOnEvent(tick=0, channel=9, data=[36, 127]),
   midi.NoteOnEvent(tick=0, channel=9, data=[57, 127]),
   midi.NoteOnEvent(tick=60, channel=9, data=[57, 0]),
   midi.NoteOnEvent(tick=0, channel=9, data=[38, 127]),
   midi.NoteOnEvent(tick=60, channel=9, data=[36, 0]),
   midi.NoteOnEvent(tick=0, channel=9, data=[38, 0]),
   midi.NoteOnEvent(tick=0, channel=9, data=[36, 127]),
   midi.NoteOnEvent(tick=0, channel=9, data=[57, 127]),
   midi.NoteOnEvent(tick=120, channel=9, data=[36, 0]),
   midi.NoteOnEvent(tick=0, channel=9, data=[57, 0]),
   midi.NoteOnEvent(tick=295, channel=9, data=[38, 75]),
   midi.NoteOnEvent(tick=5, channel=9, data=[38, 0]),
   midi.NoteOnEvent(tick=0, channel=9, data=[38, 127]),
   midi.NoteOnEvent(tick=60, channel=9, data=[38, 0]),
   midi.NoteOnEvent(tick=0, channel=9, data=[36, 127]),
   midi.NoteOnEvent(tick=0, channel=9, data=[57, 127]),
   midi.NoteOnEvent(tick=120, channel=9, data=[36, 0]),
   midi.NoteOnEvent(tick=0, channel=9, data=[57, 0]),
   midi.NoteOnEvent(tick=0, channel=9, data=[42, 127]),
   midi.NoteOnEvent(tick=0, channel=9, data=[38, 127]),
   midi.NoteOnEvent(tick=120, channel=9, data=[42, 0]),
   midi.NoteOnEvent(tick=0, channel=9, data=[38, 0]),
   midi.NoteOnEvent(tick=0, channel=9, data=[42, 127]),
   midi.NoteOnEvent(tick=0, channel=9, data=[36, 127]),
   midi.NoteOnEvent(tick=60, channel=9, data=[36, 0]),
   midi.NoteOnEvent(tick=0, channel=9, data=[36, 127]),
   midi.NoteOnEvent(tick=60, channel=9, data=[42, 0]),
   midi.NoteOnEvent(tick=0, channel=9, data=[36, 0]),
   midi.NoteOnEvent(tick=0, channel=9, data=[38, 127]),
   midi.NoteOnEvent(tick=0, channel=9, data=[42, 127]),
   midi.NoteOnEvent(tick=120, channel=9, data=[38, 0]),
   midi.NoteOnEvent(tick=0, channel=9, data=[42, 0]),
   midi.NoteOnEvent(tick=0, channel=9, data=[42, 127]),
   midi.NoteOnEvent(tick=0, channel=9, data=[36, 127]),
   midi.NoteOnEvent(tick=60, channel=9, data=[36, 0]),
   midi.NoteOnEvent(tick=0, channel=9, data=[36, 127]),
   midi.NoteOnEvent(tick=60, channel=9, data=[42, 0]),
   midi.NoteOnEvent(tick=0, channel=9, data=[36, 0]),
   midi.NoteOnEvent(tick=0, channel=9, data=[38, 127]),
   midi.NoteOnEvent(tick=0, channel=9, data=[42, 127]),
   midi.NoteOnEvent(tick=120, channel=9, data=[38, 0]),
   midi.NoteOnEvent(tick=0, channel=9, data=[42, 0]),
   midi.NoteOnEvent(tick=0, channel=9, data=[42, 127]),
   midi.NoteOnEvent(tick=0, channel=9, data=[36, 127]),
   midi.NoteOnEvent(tick=60, channel=9, data=[36, 0]),
   midi.NoteOnEvent(tick=0, channel=9, data=[36, 127]),
   midi.NoteOnEvent(tick=60, channel=9, data=[42, 0]),
   midi.NoteOnEvent(tick=0, channel=9, data=[36, 0]),
   midi.NoteOnEvent(tick=0, channel=9, data=[57, 127]),
   midi.NoteOnEvent(tick=0, channel=9, data=[38, 127]),
   midi.NoteOnEvent(tick=120, channel=9, data=[57, 0]),
   midi.NoteOnEvent(tick=0, channel=9, data=[38, 0]),
   midi.NoteOnEvent(tick=0, channel=9, data=[42, 127]),
   midi.NoteOnEvent(tick=0, channel=9, data=[36, 127]),
   midi.NoteOnEvent(tick=60, channel=9, data=[36, 0]),
   midi.NoteOnEvent(tick=0, channel=9, data=[36, 127]),
   midi.NoteOnEvent(tick=60, channel=9, data=[42, 0]),
   midi.NoteOnEvent(tick=0, channel=9, data=[36, 0]),
   midi.NoteOnEvent(tick=0, channel=9, data=[38, 127]),
   midi.NoteOnEvent(tick=0, channel=9, data=[42, 127]),
   midi.NoteOnEvent(tick=120, channel=9, data=[38, 0]),
   midi.NoteOnEvent(tick=0, channel=9, data=[42, 0]),
   midi.NoteOnEvent(tick=0, channel=9, data=[42, 127]),
   midi.NoteOnEvent(tick=0, channel=9, data=[36, 127]),
   midi.NoteOnEvent(tick=60, channel=9, data=[36, 0]),
   midi.NoteOnEvent(tick=0, channel=9, data=[36, 127]),
   midi.NoteOnEvent(tick=60, channel=9, data=[42, 0]),
   midi.NoteOnEvent(tick=0, channel=9, data=[36, 0]),
   midi.NoteOnEvent(tick=0, channel=9, data=[38, 127]),
   midi.NoteOnEvent(tick=0, channel=9, data=[42, 127]),
   midi.NoteOnEvent(tick=120, channel=9, data=[38, 0]),
   midi.NoteOnEvent(tick=0, channel=9, data=[42, 0]),
   midi.NoteOnEvent(tick=0, channel=9, data=[42, 127]),
   midi.NoteOnEvent(tick=0, channel=9, data=[36, 127]),
   midi.NoteOnEvent(tick=60, channel=9, data=[36, 0]),
   midi.NoteOnEvent(tick=0, channel=9, data=[36, 127]),
   midi.NoteOnEvent(tick=60, channel=9, data=[42, 0]),
   midi.NoteOnEvent(tick=0, channel=9, data=[36, 0]),
   midi.NoteOnEvent(tick=0, channel=9, data=[38, 127]),
   midi.NoteOnEvent(tick=0, channel=9, data=[42, 127]),
   midi.NoteOnEvent(tick=120, channel=9, data=[38, 0]),
   midi.NoteOnEvent(tick=0, channel=9, data=[42, 0]),
   midi.NoteOnEvent(tick=0, channel=9, data=[57, 127]),
   midi.NoteOnEvent(tick=0, channel=9, data=[36, 127]),
   midi.NoteOnEvent(tick=120, channel=9, data=[57, 0]),
   midi.NoteOnEvent(tick=0, channel=9, data=[36, 0]),
   midi.NoteOnEvent(tick=0, channel=9, data=[57, 127]),
   midi.NoteOnEvent(tick=0, channel=9, data=[38, 127]),
   midi.NoteOnEvent(tick=120, channel=9, data=[57, 0]),
   midi.NoteOnEvent(tick=0, channel=9, data=[38, 0]),
   midi.NoteOnEvent(tick=0, channel=9, data=[36, 127]),
   midi.NoteOnEvent(tick=0, channel=9, data=[57, 127]),
   midi.NoteOnEvent(tick=120, channel=9, data=[36, 0]),
   midi.NoteOnEvent(tick=0, channel=9, data=[57, 0]),
   midi.NoteOnEvent(tick=0, channel=9, data=[42, 127]),
   midi.NoteOnEvent(tick=0, channel=9, data=[38, 127]),
   midi.NoteOnEvent(tick=120, channel=9, data=[42, 0]),
   midi.NoteOnEvent(tick=0, channel=9, data=[38, 0]),
   midi.NoteOnEvent(tick=0, channel=9, data=[42, 127]),
   midi.NoteOnEvent(tick=0, channel=9, data=[36, 127]),
   midi.NoteOnEvent(tick=60, channel=9, data=[36, 0]),
   midi.NoteOnEvent(tick=0, channel=9, data=[36, 127]),
   midi.NoteOnEvent(tick=60, channel=9, data=[42, 0]),
   midi.NoteOnEvent(tick=0, channel=9, data=[36, 0]),
   midi.NoteOnEvent(tick=0, channel=9, data=[38, 127]),
   midi.NoteOnEvent(tick=0, channel=9, data=[42, 127]),
   midi.NoteOnEvent(tick=120, channel=9, data=[38, 0]),
   midi.NoteOnEvent(tick=0, channel=9, data=[42, 0]),
   midi.NoteOnEvent(tick=0, channel=9, data=[42, 127]),
   midi.NoteOnEvent(tick=0, channel=9, data=[36, 127]),
   midi.NoteOnEvent(tick=60, channel=9, data=[36, 0]),
   midi.NoteOnEvent(tick=0, channel=9, data=[36, 127]),
   midi.NoteOnEvent(tick=60, channel=9, data=[42, 0]),
   midi.NoteOnEvent(tick=0, channel=9, data=[36, 0]),
   midi.NoteOnEvent(tick=0, channel=9, data=[38, 127]),
   midi.NoteOnEvent(tick=0, channel=9, data=[42, 127]),
   midi.NoteOnEvent(tick=120, channel=9, data=[38, 0]),
   midi.NoteOnEvent(tick=0, channel=9, data=[42, 0]),
   midi.NoteOnEvent(tick=0, channel=9, data=[42, 127]),
   midi.NoteOnEvent(tick=0, channel=9, data=[36, 127]),
   midi.NoteOnEvent(tick=60, channel=9, data=[36, 0]),
   midi.NoteOnEvent(tick=0, channel=9, data=[36, 127]),
   midi.NoteOnEvent(tick=60, channel=9, data=[42, 0]),
   midi.NoteOnEvent(tick=0, channel=9, data=[36, 0]),
   midi.NoteOnEvent(tick=0, channel=9, data=[57, 127]),
   midi.NoteOnEvent(tick=0, channel=9, data=[38, 127]),
   midi.NoteOnEvent(tick=120, channel=9, data=[57, 0]),
   midi.NoteOnEvent(tick=0, channel=9, data=[38, 0]),
   midi.NoteOnEvent(tick=0, channel=9, data=[42, 127]),
   midi.NoteOnEvent(tick=0, channel=9, data=[36, 127]),
   midi.NoteOnEvent(tick=60, channel=9, data=[36, 0]),
   midi.NoteOnEvent(tick=0, channel=9, data=[36, 127]),
   midi.NoteOnEvent(tick=60, channel=9, data=[42, 0]),
   midi.NoteOnEvent(tick=0, channel=9, data=[36, 0]),
   midi.NoteOnEvent(tick=0, channel=9, data=[38, 127]),
   midi.NoteOnEvent(tick=0, channel=9, data=[42, 127]),
   midi.NoteOnEvent(tick=120, channel=9, data=[38, 0]),
   midi.NoteOnEvent(tick=0, channel=9, data=[42, 0]),
   midi.NoteOnEvent(tick=0, channel=9, data=[42, 127]),
   midi.NoteOnEvent(tick=0, channel=9, data=[36, 127]),
   midi.NoteOnEvent(tick=60, channel=9, data=[36, 0]),
   midi.NoteOnEvent(tick=0, channel=9, data=[36, 127]),
   midi.NoteOnEvent(tick=60, channel=9, data=[42, 0]),
   midi.NoteOnEvent(tick=0, channel=9, data=[36, 0]),
   midi.NoteOnEvent(tick=0, channel=9, data=[38, 127]),
   midi.NoteOnEvent(tick=0, channel=9, data=[42, 127]),
   midi.NoteOnEvent(tick=120, channel=9, data=[38, 0]),
   midi.NoteOnEvent(tick=0, channel=9, data=[42, 0]),
   midi.NoteOnEvent(tick=0, channel=9, data=[42, 127]),
   midi.NoteOnEvent(tick=0, channel=9, data=[36, 127]),
   midi.NoteOnEvent(tick=60, channel=9, data=[36, 0]),
   midi.NoteOnEvent(tick=0, channel=9, data=[36, 127]),
   midi.NoteOnEvent(tick=60, channel=9, data=[42, 0]),
   midi.NoteOnEvent(tick=0, channel=9, data=[36, 0]),
   midi.NoteOnEvent(tick=0, channel=9, data=[38, 127]),
   midi.NoteOnEvent(tick=0, channel=9, data=[42, 127]),
   midi.NoteOnEvent(tick=120, channel=9, data=[38, 0]),
   midi.NoteOnEvent(tick=0, channel=9, data=[42, 0]),
   midi.NoteOnEvent(tick=0, channel=9, data=[57, 127]),
   midi.NoteOnEvent(tick=0, channel=9, data=[36, 127]),
   midi.NoteOnEvent(tick=120, channel=9, data=[57, 0]),
   midi.NoteOnEvent(tick=0, channel=9, data=[36, 0]),
   midi.NoteOnEvent(tick=0, channel=9, data=[57, 127]),
   midi.NoteOnEvent(tick=0, channel=9, data=[38, 127]),
   midi.NoteOnEvent(tick=120, channel=9, data=[57, 0]),
   midi.NoteOnEvent(tick=0, channel=9, data=[38, 0]),
   midi.NoteOnEvent(tick=0, channel=9, data=[36, 127]),
   midi.NoteOnEvent(tick=0, channel=9, data=[57, 127]),
   midi.NoteOnEvent(tick=120, channel=9, data=[36, 0]),
   midi.NoteOnEvent(tick=0, channel=9, data=[57, 0]),
   midi.NoteOnEvent(tick=0, channel=9, data=[42, 127]),
   midi.NoteOnEvent(tick=0, channel=9, data=[38, 127]),
   midi.NoteOnEvent(tick=120, channel=9, data=[42, 0]),
   midi.NoteOnEvent(tick=0, channel=9, data=[38, 0]),
   midi.NoteOnEvent(tick=0, channel=9, data=[42, 127]),
   midi.NoteOnEvent(tick=0, channel=9, data=[36, 127]),
   midi.NoteOnEvent(tick=60, channel=9, data=[36, 0]),
   midi.NoteOnEvent(tick=0, channel=9, data=[36, 127]),
   midi.NoteOnEvent(tick=60, channel=9, data=[42, 0]),
   midi.NoteOnEvent(tick=0, channel=9, data=[36, 0]),
   midi.NoteOnEvent(tick=0, channel=9, data=[38, 127]),
   midi.NoteOnEvent(tick=0, channel=9, data=[42, 127]),
   midi.NoteOnEvent(tick=120, channel=9, data=[38, 0]),
   midi.NoteOnEvent(tick=0, channel=9, data=[42, 0]),
   midi.NoteOnEvent(tick=0, channel=9, data=[42, 127]),
   midi.NoteOnEvent(tick=0, channel=9, data=[36, 127]),
   midi.NoteOnEvent(tick=60, channel=9, data=[36, 0]),
   midi.NoteOnEvent(tick=0, channel=9, data=[36, 127]),
   midi.NoteOnEvent(tick=60, channel=9, data=[42, 0]),
   midi.NoteOnEvent(tick=0, channel=9, data=[36, 0]),
   midi.NoteOnEvent(tick=0, channel=9, data=[38, 127]),
   midi.NoteOnEvent(tick=0, channel=9, data=[42, 127]),
   midi.NoteOnEvent(tick=120, channel=9, data=[38, 0]),
   midi.NoteOnEvent(tick=0, channel=9, data=[42, 0]),
   midi.NoteOnEvent(tick=0, channel=9, data=[42, 127]),
   midi.NoteOnEvent(tick=0, channel=9, data=[36, 127]),
   midi.NoteOnEvent(tick=60, channel=9, data=[36, 0]),
   midi.NoteOnEvent(tick=0, channel=9, data=[36, 127]),
   midi.NoteOnEvent(tick=60, channel=9, data=[42, 0]),
   midi.NoteOnEvent(tick=0, channel=9, data=[36, 0]),
   midi.NoteOnEvent(tick=0, channel=9, data=[57, 127]),
   midi.NoteOnEvent(tick=0, channel=9, data=[38, 127]),
   midi.NoteOnEvent(tick=120, channel=9, data=[57, 0]),
   midi.NoteOnEvent(tick=0, channel=9, data=[38, 0]),
   midi.NoteOnEvent(tick=0, channel=9, data=[42, 127]),
   midi.NoteOnEvent(tick=0, channel=9, data=[36, 127]),
   midi.NoteOnEvent(tick=60, channel=9, data=[36, 0]),
   midi.NoteOnEvent(tick=0, channel=9, data=[36, 127]),
   midi.NoteOnEvent(tick=60, channel=9, data=[42, 0]),
   midi.NoteOnEvent(tick=0, channel=9, data=[36, 0]),
   midi.NoteOnEvent(tick=0, channel=9, data=[38, 127]),
   midi.NoteOnEvent(tick=0, channel=9, data=[42, 127]),
   midi.NoteOnEvent(tick=120, channel=9, data=[38, 0]),
   midi.NoteOnEvent(tick=0, channel=9, data=[42, 0]),
   midi.NoteOnEvent(tick=0, channel=9, data=[42, 127]),
   midi.NoteOnEvent(tick=0, channel=9, data=[36, 127]),
   midi.NoteOnEvent(tick=60, channel=9, data=[36, 0]),
   midi.NoteOnEvent(tick=0, channel=9, data=[36, 127]),
   midi.NoteOnEvent(tick=60, channel=9, data=[42, 0]),
   midi.NoteOnEvent(tick=0, channel=9, data=[36, 0]),
   midi.NoteOnEvent(tick=0, channel=9, data=[38, 127]),
   midi.NoteOnEvent(tick=0, channel=9, data=[42, 127]),
   midi.NoteOnEvent(tick=120, channel=9, data=[38, 0]),
   midi.NoteOnEvent(tick=0, channel=9, data=[42, 0]),
   midi.NoteOnEvent(tick=0, channel=9, data=[42, 127]),
   midi.NoteOnEvent(tick=0, channel=9, data=[36, 127]),
   midi.NoteOnEvent(tick=60, channel=9, data=[36, 0]),
   midi.NoteOnEvent(tick=0, channel=9, data=[36, 127]),
   midi.NoteOnEvent(tick=60, channel=9, data=[42, 0]),
   midi.NoteOnEvent(tick=0, channel=9, data=[36, 0]),
   midi.NoteOnEvent(tick=0, channel=9, data=[38, 127]),
   midi.NoteOnEvent(tick=0, channel=9, data=[42, 127]),
   midi.NoteOnEvent(tick=120, channel=9, data=[38, 0]),
   midi.NoteOnEvent(tick=0, channel=9, data=[42, 0]),
   midi.NoteOnEvent(tick=0, channel=9, data=[57, 127]),
   midi.NoteOnEvent(tick=0, channel=9, data=[36, 127]),
   midi.NoteOnEvent(tick=120, channel=9, data=[57, 0]),
   midi.NoteOnEvent(tick=0, channel=9, data=[36, 0]),
   midi.NoteOnEvent(tick=0, channel=9, data=[57, 127]),
   midi.NoteOnEvent(tick=0, channel=9, data=[38, 127]),
   midi.NoteOnEvent(tick=120, channel=9, data=[57, 0]),
   midi.NoteOnEvent(tick=0, channel=9, data=[38, 0]),
   midi.NoteOnEvent(tick=0, channel=9, data=[36, 127]),
   midi.NoteOnEvent(tick=0, channel=9, data=[57, 127]),
   midi.NoteOnEvent(tick=120, channel=9, data=[36, 0]),
   midi.NoteOnEvent(tick=0, channel=9, data=[57, 0]),
   midi.NoteOnEvent(tick=0, channel=9, data=[42, 127]),
   midi.NoteOnEvent(tick=0, channel=9, data=[38, 127]),
   midi.NoteOnEvent(tick=120, channel=9, data=[42, 0]),
   midi.NoteOnEvent(tick=0, channel=9, data=[38, 0]),
   midi.NoteOnEvent(tick=0, channel=9, data=[42, 127]),
   midi.NoteOnEvent(tick=0, channel=9, data=[36, 127]),
   midi.NoteOnEvent(tick=60, channel=9, data=[36, 0]),
   midi.NoteOnEvent(tick=0, channel=9, data=[36, 127]),
   midi.NoteOnEvent(tick=60, channel=9, data=[42, 0]),
   midi.NoteOnEvent(tick=0, channel=9, data=[36, 0]),
   midi.NoteOnEvent(tick=0, channel=9, data=[38, 127]),
   midi.NoteOnEvent(tick=0, channel=9, data=[42, 127]),
   midi.NoteOnEvent(tick=120, channel=9, data=[38, 0]),
   midi.NoteOnEvent(tick=0, channel=9, data=[42, 0]),
   midi.NoteOnEvent(tick=0, channel=9, data=[42, 127]),
   midi.NoteOnEvent(tick=0, channel=9, data=[36, 127]),
   midi.NoteOnEvent(tick=60, channel=9, data=[36, 0]),
   midi.NoteOnEvent(tick=0, channel=9, data=[36, 127]),
   midi.NoteOnEvent(tick=60, channel=9, data=[42, 0]),
   midi.NoteOnEvent(tick=0, channel=9, data=[36, 0]),
   midi.NoteOnEvent(tick=0, channel=9, data=[38, 127]),
   midi.NoteOnEvent(tick=0, channel=9, data=[42, 127]),
   midi.NoteOnEvent(tick=120, channel=9, data=[38, 0]),
   midi.NoteOnEvent(tick=0, channel=9, data=[42, 0]),
   midi.NoteOnEvent(tick=0, channel=9, data=[42, 127]),
   midi.NoteOnEvent(tick=0, channel=9, data=[36, 127]),
   midi.NoteOnEvent(tick=60, channel=9, data=[36, 0]),
   midi.NoteOnEvent(tick=0, channel=9, data=[36, 127]),
   midi.NoteOnEvent(tick=60, channel=9, data=[42, 0]),
   midi.NoteOnEvent(tick=0, channel=9, data=[36, 0]),
   midi.NoteOnEvent(tick=0, channel=9, data=[57, 127]),
   midi.NoteOnEvent(tick=0, channel=9, data=[38, 127]),
   midi.NoteOnEvent(tick=120, channel=9, data=[57, 0]),
   midi.NoteOnEvent(tick=0, channel=9, data=[38, 0]),
   midi.NoteOnEvent(tick=0, channel=9, data=[42, 127]),
   midi.NoteOnEvent(tick=0, channel=9, data=[36, 127]),
   midi.NoteOnEvent(tick=60, channel=9, data=[36, 0]),
   midi.NoteOnEvent(tick=0, channel=9, data=[36, 127]),
   midi.NoteOnEvent(tick=60, channel=9, data=[42, 0]),
   midi.NoteOnEvent(tick=0, channel=9, data=[36, 0]),
   midi.NoteOnEvent(tick=0, channel=9, data=[38, 127]),
   midi.NoteOnEvent(tick=0, channel=9, data=[42, 127]),
   midi.NoteOnEvent(tick=120, channel=9, data=[38, 0]),
   midi.NoteOnEvent(tick=0, channel=9, data=[42, 0]),
   midi.NoteOnEvent(tick=0, channel=9, data=[42, 127]),
   midi.NoteOnEvent(tick=0, channel=9, data=[36, 127]),
   midi.NoteOnEvent(tick=60, channel=9, data=[36, 0]),
   midi.NoteOnEvent(tick=0, channel=9, data=[36, 127]),
   midi.NoteOnEvent(tick=60, channel=9, data=[42, 0]),
   midi.NoteOnEvent(tick=0, channel=9, data=[36, 0]),
   midi.NoteOnEvent(tick=0, channel=9, data=[38, 127]),
   midi.NoteOnEvent(tick=0, channel=9, data=[42, 127]),
   midi.NoteOnEvent(tick=120, channel=9, data=[38, 0]),
   midi.NoteOnEvent(tick=0, channel=9, data=[42, 0]),
   midi.NoteOnEvent(tick=0, channel=9, data=[42, 127]),
   midi.NoteOnEvent(tick=0, channel=9, data=[36, 127]),
   midi.NoteOnEvent(tick=60, channel=9, data=[36, 0]),
   midi.NoteOnEvent(tick=0, channel=9, data=[36, 127]),
   midi.NoteOnEvent(tick=60, channel=9, data=[42, 0]),
   midi.NoteOnEvent(tick=0, channel=9, data=[36, 0]),
   midi.NoteOnEvent(tick=0, channel=9, data=[38, 127]),
   midi.NoteOnEvent(tick=0, channel=9, data=[42, 127]),
   midi.NoteOnEvent(tick=120, channel=9, data=[38, 0]),
   midi.NoteOnEvent(tick=0, channel=9, data=[42, 0]),
   midi.NoteOnEvent(tick=0, channel=9, data=[42, 127]),
   midi.NoteOnEvent(tick=0, channel=9, data=[36, 127]),
   midi.NoteOnEvent(tick=60, channel=9, data=[36, 0]),
   midi.NoteOnEvent(tick=0, channel=9, data=[36, 127]),
   midi.NoteOnEvent(tick=60, channel=9, data=[42, 0]),
   midi.NoteOnEvent(tick=0, channel=9, data=[36, 0]),
   midi.NoteOnEvent(tick=0, channel=9, data=[42, 127]),
   midi.NoteOnEvent(tick=0, channel=9, data=[38, 127]),
   midi.NoteOnEvent(tick=120, channel=9, data=[42, 0]),
   midi.NoteOnEvent(tick=0, channel=9, data=[38, 0]),
   midi.NoteOnEvent(tick=0, channel=9, data=[36, 127]),
   midi.NoteOnEvent(tick=0, channel=9, data=[57, 127]),
   midi.NoteOnEvent(tick=40, channel=9, data=[57, 0]),
   midi.NoteOnEvent(tick=0, channel=9, data=[38, 127]),
   midi.NoteOnEvent(tick=40, channel=9, data=[38, 0]),
   midi.NoteOnEvent(tick=0, channel=9, data=[38, 127]),
   midi.NoteOnEvent(tick=40, channel=9, data=[36, 0]),
   midi.NoteOnEvent(tick=0, channel=9, data=[38, 0]),
   midi.NoteOnEvent(tick=0, channel=9, data=[36, 127]),
   midi.NoteOnEvent(tick=0, channel=9, data=[57, 127]),
   midi.NoteOnEvent(tick=40, channel=9, data=[57, 0]),
   midi.NoteOnEvent(tick=0, channel=9, data=[38, 127]),
   midi.NoteOnEvent(tick=40, channel=9, data=[38, 0]),
   midi.NoteOnEvent(tick=0, channel=9, data=[38, 127]),
   midi.NoteOnEvent(tick=40, channel=9, data=[36, 0]),
   midi.NoteOnEvent(tick=0, channel=9, data=[38, 0]),
   midi.NoteOnEvent(tick=0, channel=9, data=[36, 127]),
   midi.NoteOnEvent(tick=0, channel=9, data=[57, 127]),
   midi.NoteOnEvent(tick=40, channel=9, data=[57, 0]),
   midi.NoteOnEvent(tick=0, channel=9, data=[38, 127]),
   midi.NoteOnEvent(tick=40, channel=9, data=[38, 0]),
   midi.NoteOnEvent(tick=0, channel=9, data=[38, 127]),
   midi.NoteOnEvent(tick=40, channel=9, data=[36, 0]),
   midi.NoteOnEvent(tick=0, channel=9, data=[38, 0]),
   midi.NoteOnEvent(tick=0, channel=9, data=[36, 127]),
   midi.NoteOnEvent(tick=0, channel=9, data=[57, 127]),
   midi.NoteOnEvent(tick=40, channel=9, data=[57, 0]),
   midi.NoteOnEvent(tick=0, channel=9, data=[38, 127]),
   midi.NoteOnEvent(tick=40, channel=9, data=[38, 0]),
   midi.NoteOnEvent(tick=0, channel=9, data=[38, 127]),
   midi.NoteOnEvent(tick=40, channel=9, data=[36, 0]),
   midi.NoteOnEvent(tick=0, channel=9, data=[38, 0]),
   midi.NoteOnEvent(tick=0, channel=9, data=[36, 127]),
   midi.NoteOnEvent(tick=0, channel=9, data=[57, 127]),
   midi.NoteOnEvent(tick=40, channel=9, data=[57, 0]),
   midi.NoteOnEvent(tick=0, channel=9, data=[38, 127]),
   midi.NoteOnEvent(tick=40, channel=9, data=[38, 0]),
   midi.NoteOnEvent(tick=0, channel=9, data=[38, 127]),
   midi.NoteOnEvent(tick=40, channel=9, data=[36, 0]),
   midi.NoteOnEvent(tick=0, channel=9, data=[38, 0]),
   midi.NoteOnEvent(tick=0, channel=9, data=[36, 127]),
   midi.NoteOnEvent(tick=0, channel=9, data=[57, 127]),
   midi.NoteOnEvent(tick=40, channel=9, data=[57, 0]),
   midi.NoteOnEvent(tick=0, channel=9, data=[38, 127]),
   midi.NoteOnEvent(tick=40, channel=9, data=[38, 0]),
   midi.NoteOnEvent(tick=0, channel=9, data=[38, 127]),
   midi.NoteOnEvent(tick=40, channel=9, data=[36, 0]),
   midi.NoteOnEvent(tick=0, channel=9, data=[38, 0]),
   midi.NoteOnEvent(tick=0, channel=9, data=[36, 127]),
   midi.NoteOnEvent(tick=0, channel=9, data=[57, 127]),
   midi.NoteOnEvent(tick=40, channel=9, data=[57, 0]),
   midi.NoteOnEvent(tick=0, channel=9, data=[38, 127]),
   midi.NoteOnEvent(tick=40, channel=9, data=[38, 0]),
   midi.NoteOnEvent(tick=0, channel=9, data=[38, 127]),
   midi.NoteOnEvent(tick=40, channel=9, data=[36, 0]),
   midi.NoteOnEvent(tick=0, channel=9, data=[38, 0]),
   midi.NoteOnEvent(tick=0, channel=9, data=[36, 127]),
   midi.NoteOnEvent(tick=0, channel=9, data=[57, 127]),
   midi.NoteOnEvent(tick=40, channel=9, data=[57, 0]),
   midi.NoteOnEvent(tick=0, channel=9, data=[38, 127]),
   midi.NoteOnEvent(tick=40, channel=9, data=[38, 0]),
   midi.NoteOnEvent(tick=0, channel=9, data=[38, 127]),
   midi.NoteOnEvent(tick=40, channel=9, data=[36, 0]),
   midi.NoteOnEvent(tick=0, channel=9, data=[38, 0]),
   midi.NoteOnEvent(tick=0, channel=9, data=[36, 127]),
   midi.NoteOnEvent(tick=0, channel=9, data=[57, 127]),
   midi.NoteOnEvent(tick=120, channel=9, data=[36, 0]),
   midi.NoteOnEvent(tick=0, channel=9, data=[57, 0]),
   midi.NoteOnEvent(tick=1440, channel=9, data=[36, 127]),
   midi.NoteOnEvent(tick=0, channel=9, data=[57, 127]),
   midi.NoteOnEvent(tick=120, channel=9, data=[36, 0]),
   midi.NoteOnEvent(tick=0, channel=9, data=[57, 0]),
   midi.NoteOnEvent(tick=120, channel=9, data=[36, 127]),
   midi.NoteOnEvent(tick=0, channel=9, data=[57, 127]),
   midi.NoteOnEvent(tick=120, channel=9, data=[36, 0]),
   midi.NoteOnEvent(tick=0, channel=9, data=[57, 0]),
   midi.NoteOnEvent(tick=960, channel=9, data=[36, 127]),
   midi.NoteOnEvent(tick=0, channel=9, data=[57, 127]),
   midi.NoteOnEvent(tick=120, channel=9, data=[36, 0]),
   midi.NoteOnEvent(tick=0, channel=9, data=[57, 0]),
   midi.NoteOnEvent(tick=0, channel=9, data=[36, 127]),
   midi.NoteOnEvent(tick=0, channel=9, data=[57, 127]),
   midi.NoteOnEvent(tick=120, channel=9, data=[36, 0]),
   midi.NoteOnEvent(tick=0, channel=9, data=[57, 0]),
   midi.NoteOnEvent(tick=0, channel=9, data=[36, 127]),
   midi.NoteOnEvent(tick=0, channel=9, data=[57, 127]),
   midi.NoteOnEvent(tick=120, channel=9, data=[36, 0]),
   midi.NoteOnEvent(tick=0, channel=9, data=[57, 0]),
   midi.NoteOnEvent(tick=0, channel=9, data=[36, 127]),
   midi.NoteOnEvent(tick=0, channel=9, data=[57, 127]),
   midi.NoteOnEvent(tick=120, channel=9, data=[36, 0]),
   midi.NoteOnEvent(tick=0, channel=9, data=[57, 0]),
   midi.NoteOnEvent(tick=0, channel=9, data=[57, 127]),
   midi.NoteOnEvent(tick=0, channel=9, data=[36, 127]),
   midi.NoteOnEvent(tick=120, channel=9, data=[57, 0]),
   midi.NoteOnEvent(tick=0, channel=9, data=[36, 0]),
   midi.NoteOnEvent(tick=120, channel=9, data=[57, 127]),
   midi.NoteOnEvent(tick=0, channel=9, data=[36, 127]),
   midi.NoteOnEvent(tick=120, channel=9, data=[57, 0]),
   midi.NoteOnEvent(tick=0, channel=9, data=[36, 0]),
   midi.NoteOnEvent(tick=120, channel=9, data=[36, 127]),
   midi.NoteOnEvent(tick=0, channel=9, data=[57, 127]),
   midi.NoteOnEvent(tick=120, channel=9, data=[36, 0]),
   midi.NoteOnEvent(tick=0, channel=9, data=[57, 0]),
   midi.NoteOnEvent(tick=120, channel=9, data=[36, 127]),
   midi.NoteOnEvent(tick=0, channel=9, data=[57, 127]),
   midi.NoteOnEvent(tick=120, channel=9, data=[36, 0]),
   midi.NoteOnEvent(tick=0, channel=9, data=[57, 0]),
   midi.NoteOnEvent(tick=120, channel=9, data=[36, 127]),
   midi.NoteOnEvent(tick=0, channel=9, data=[57, 127]),
   midi.NoteOnEvent(tick=120, channel=9, data=[36, 0]),
   midi.NoteOnEvent(tick=0, channel=9, data=[57, 0]),
   midi.NoteOnEvent(tick=120, channel=9, data=[36, 127]),
   midi.NoteOnEvent(tick=0, channel=9, data=[57, 127]),
   midi.NoteOnEvent(tick=120, channel=9, data=[36, 0]),
   midi.NoteOnEvent(tick=0, channel=9, data=[57, 0]),
   midi.NoteOnEvent(tick=120, channel=9, data=[36, 127]),
   midi.NoteOnEvent(tick=0, channel=9, data=[57, 127]),
   midi.NoteOnEvent(tick=120, channel=9, data=[36, 0]),
   midi.NoteOnEvent(tick=0, channel=9, data=[57, 0]),
   midi.NoteOnEvent(tick=120, channel=9, data=[36, 127]),
   midi.NoteOnEvent(tick=0, channel=9, data=[57, 127]),
   midi.NoteOnEvent(tick=120, channel=9, data=[36, 0]),
   midi.NoteOnEvent(tick=0, channel=9, data=[57, 0]),
   midi.NoteOnEvent(tick=120, channel=9, data=[36, 127]),
   midi.NoteOnEvent(tick=0, channel=9, data=[57, 127]),
   midi.NoteOnEvent(tick=120, channel=9, data=[36, 0]),
   midi.NoteOnEvent(tick=0, channel=9, data=[57, 0]),
   midi.NoteOnEvent(tick=120, channel=9, data=[36, 127]),
   midi.NoteOnEvent(tick=0, channel=9, data=[57, 127]),
   midi.NoteOnEvent(tick=120, channel=9, data=[36, 0]),
   midi.NoteOnEvent(tick=0, channel=9, data=[57, 0]),
   midi.NoteOnEvent(tick=120, channel=9, data=[36, 127]),
   midi.NoteOnEvent(tick=0, channel=9, data=[57, 127]),
   midi.NoteOnEvent(tick=120, channel=9, data=[36, 0]),
   midi.NoteOnEvent(tick=0, channel=9, data=[57, 0]),
   midi.NoteOnEvent(tick=120, channel=9, data=[36, 127]),
   midi.NoteOnEvent(tick=0, channel=9, data=[57, 127]),
   midi.NoteOnEvent(tick=120, channel=9, data=[36, 0]),
   midi.NoteOnEvent(tick=0, channel=9, data=[57, 0]),
   midi.NoteOnEvent(tick=120, channel=9, data=[36, 127]),
   midi.NoteOnEvent(tick=0, channel=9, data=[57, 127]),
   midi.NoteOnEvent(tick=120, channel=9, data=[36, 0]),
   midi.NoteOnEvent(tick=0, channel=9, data=[57, 0]),
   midi.NoteOnEvent(tick=0, channel=9, data=[36, 127]),
   midi.NoteOnEvent(tick=0, channel=9, data=[57, 127]),
   midi.NoteOnEvent(tick=120, channel=9, data=[36, 0]),
   midi.NoteOnEvent(tick=0, channel=9, data=[57, 0]),
   midi.NoteOnEvent(tick=0, channel=9, data=[36, 127]),
   midi.NoteOnEvent(tick=0, channel=9, data=[57, 127]),
   midi.NoteOnEvent(tick=60, channel=9, data=[36, 0]),
   midi.NoteOnEvent(tick=0, channel=9, data=[36, 127]),
   midi.NoteOnEvent(tick=55, channel=9, data=[38, 75]),
   midi.NoteOnEvent(tick=5, channel=9, data=[57, 0]),
   midi.NoteOnEvent(tick=0, channel=9, data=[36, 0]),
   midi.NoteOnEvent(tick=0, channel=9, data=[38, 0]),
   midi.NoteOnEvent(tick=0, channel=9, data=[38, 127]),
   midi.NoteOnEvent(tick=120, channel=9, data=[38, 0]),
   midi.NoteOnEvent(tick=0, channel=9, data=[57, 127]),
   midi.NoteOnEvent(tick=0, channel=9, data=[36, 127]),
   midi.NoteOnEvent(tick=60, channel=9, data=[36, 0]),
   midi.NoteOnEvent(tick=0, channel=9, data=[36, 127]),
   midi.NoteOnEvent(tick=60, channel=9, data=[57, 0]),
   midi.NoteOnEvent(tick=0, channel=9, data=[36, 0]),
   midi.NoteOnEvent(tick=0, channel=9, data=[38, 127]),
   midi.NoteOnEvent(tick=0, channel=9, data=[42, 127]),
   midi.NoteOnEvent(tick=120, channel=9, data=[38, 0]),
   midi.NoteOnEvent(tick=0, channel=9, data=[42, 0]),
   midi.NoteOnEvent(tick=0, channel=9, data=[42, 127]),
   midi.NoteOnEvent(tick=0, channel=9, data=[36, 127]),
   midi.NoteOnEvent(tick=40, channel=9, data=[36, 0]),
   midi.NoteOnEvent(tick=0, channel=9, data=[35, 127]),
   midi.NoteOnEvent(tick=40, channel=9, data=[35, 0]),
   midi.NoteOnEvent(tick=0, channel=9, data=[36, 127]),
   midi.NoteOnEvent(tick=40, channel=9, data=[42, 0]),
   midi.NoteOnEvent(tick=0, channel=9, data=[36, 0]),
   midi.NoteOnEvent(tick=0, channel=9, data=[42, 127]),
   midi.NoteOnEvent(tick=0, channel=9, data=[38, 127]),
   midi.NoteOnEvent(tick=120, channel=9, data=[42, 0]),
   midi.NoteOnEvent(tick=0, channel=9, data=[38, 0]),
   midi.NoteOnEvent(tick=0, channel=9, data=[42, 127]),
   midi.NoteOnEvent(tick=0, channel=9, data=[36, 127]),
   midi.NoteOnEvent(tick=40, channel=9, data=[36, 0]),
   midi.NoteOnEvent(tick=0, channel=9, data=[35, 127]),
   midi.NoteOnEvent(tick=40, channel=9, data=[35, 0]),
   midi.NoteOnEvent(tick=0, channel=9, data=[36, 127]),
   midi.NoteOnEvent(tick=40, channel=9, data=[42, 0]),
   midi.NoteOnEvent(tick=0, channel=9, data=[36, 0]),
   midi.NoteOnEvent(tick=0, channel=9, data=[38, 127]),
   midi.NoteOnEvent(tick=0, channel=9, data=[42, 127]),
   midi.NoteOnEvent(tick=120, channel=9, data=[38, 0]),
   midi.NoteOnEvent(tick=0, channel=9, data=[42, 0]),
   midi.NoteOnEvent(tick=0, channel=9, data=[42, 127]),
   midi.NoteOnEvent(tick=0, channel=9, data=[36, 127]),
   midi.NoteOnEvent(tick=40, channel=9, data=[36, 0]),
   midi.NoteOnEvent(tick=0, channel=9, data=[35, 127]),
   midi.NoteOnEvent(tick=40, channel=9, data=[35, 0]),
   midi.NoteOnEvent(tick=0, channel=9, data=[36, 127]),
   midi.NoteOnEvent(tick=40, channel=9, data=[42, 0]),
   midi.NoteOnEvent(tick=0, channel=9, data=[36, 0]),
   midi.NoteOnEvent(tick=0, channel=9, data=[57, 127]),
   midi.NoteOnEvent(tick=0, channel=9, data=[38, 127]),
   midi.NoteOnEvent(tick=120, channel=9, data=[57, 0]),
   midi.NoteOnEvent(tick=0, channel=9, data=[38, 0]),
   midi.NoteOnEvent(tick=0, channel=9, data=[42, 127]),
   midi.NoteOnEvent(tick=0, channel=9, data=[36, 127]),
   midi.NoteOnEvent(tick=40, channel=9, data=[36, 0]),
   midi.NoteOnEvent(tick=0, channel=9, data=[35, 127]),
   midi.NoteOnEvent(tick=40, channel=9, data=[35, 0]),
   midi.NoteOnEvent(tick=0, channel=9, data=[36, 127]),
   midi.NoteOnEvent(tick=40, channel=9, data=[42, 0]),
   midi.NoteOnEvent(tick=0, channel=9, data=[36, 0]),
   midi.NoteOnEvent(tick=0, channel=9, data=[38, 127]),
   midi.NoteOnEvent(tick=0, channel=9, data=[42, 127]),
   midi.NoteOnEvent(tick=120, channel=9, data=[38, 0]),
   midi.NoteOnEvent(tick=0, channel=9, data=[42, 0]),
   midi.NoteOnEvent(tick=0, channel=9, data=[42, 127]),
   midi.NoteOnEvent(tick=0, channel=9, data=[36, 127]),
   midi.NoteOnEvent(tick=40, channel=9, data=[36, 0]),
   midi.NoteOnEvent(tick=0, channel=9, data=[35, 127]),
   midi.NoteOnEvent(tick=40, channel=9, data=[35, 0]),
   midi.NoteOnEvent(tick=0, channel=9, data=[36, 127]),
   midi.NoteOnEvent(tick=40, channel=9, data=[42, 0]),
   midi.NoteOnEvent(tick=0, channel=9, data=[36, 0]),
   midi.NoteOnEvent(tick=0, channel=9, data=[42, 127]),
   midi.NoteOnEvent(tick=0, channel=9, data=[38, 127]),
   midi.NoteOnEvent(tick=120, channel=9, data=[42, 0]),
   midi.NoteOnEvent(tick=0, channel=9, data=[38, 0]),
   midi.NoteOnEvent(tick=0, channel=9, data=[42, 127]),
   midi.NoteOnEvent(tick=0, channel=9, data=[36, 127]),
   midi.NoteOnEvent(tick=40, channel=9, data=[36, 0]),
   midi.NoteOnEvent(tick=0, channel=9, data=[35, 127]),
   midi.NoteOnEvent(tick=40, channel=9, data=[35, 0]),
   midi.NoteOnEvent(tick=0, channel=9, data=[36, 127]),
   midi.NoteOnEvent(tick=40, channel=9, data=[42, 0]),
   midi.NoteOnEvent(tick=0, channel=9, data=[36, 0]),
   midi.NoteOnEvent(tick=0, channel=9, data=[38, 127]),
   midi.NoteOnEvent(tick=0, channel=9, data=[42, 127]),
   midi.NoteOnEvent(tick=120, channel=9, data=[38, 0]),
   midi.NoteOnEvent(tick=0, channel=9, data=[42, 0]),
   midi.NoteOnEvent(tick=0, channel=9, data=[42, 127]),
   midi.NoteOnEvent(tick=0, channel=9, data=[36, 127]),
   midi.NoteOnEvent(tick=40, channel=9, data=[36, 0]),
   midi.NoteOnEvent(tick=0, channel=9, data=[35, 127]),
   midi.NoteOnEvent(tick=40, channel=9, data=[35, 0]),
   midi.NoteOnEvent(tick=0, channel=9, data=[36, 127]),
   midi.NoteOnEvent(tick=40, channel=9, data=[42, 0]),
   midi.NoteOnEvent(tick=0, channel=9, data=[36, 0]),
   midi.NoteOnEvent(tick=0, channel=9, data=[57, 127]),
   midi.NoteOnEvent(tick=0, channel=9, data=[38, 127]),
   midi.NoteOnEvent(tick=120, channel=9, data=[57, 0]),
   midi.NoteOnEvent(tick=0, channel=9, data=[38, 0]),
   midi.NoteOnEvent(tick=0, channel=9, data=[42, 127]),
   midi.NoteOnEvent(tick=0, channel=9, data=[36, 127]),
   midi.NoteOnEvent(tick=40, channel=9, data=[36, 0]),
   midi.NoteOnEvent(tick=0, channel=9, data=[35, 127]),
   midi.NoteOnEvent(tick=40, channel=9, data=[35, 0]),
   midi.NoteOnEvent(tick=0, channel=9, data=[36, 127]),
   midi.NoteOnEvent(tick=40, channel=9, data=[42, 0]),
   midi.NoteOnEvent(tick=0, channel=9, data=[36, 0]),
   midi.NoteOnEvent(tick=0, channel=9, data=[38, 127]),
   midi.NoteOnEvent(tick=0, channel=9, data=[42, 127]),
   midi.NoteOnEvent(tick=120, channel=9, data=[38, 0]),
   midi.NoteOnEvent(tick=0, channel=9, data=[42, 0]),
   midi.NoteOnEvent(tick=0, channel=9, data=[42, 127]),
   midi.NoteOnEvent(tick=0, channel=9, data=[36, 127]),
   midi.NoteOnEvent(tick=40, channel=9, data=[36, 0]),
   midi.NoteOnEvent(tick=0, channel=9, data=[35, 127]),
   midi.NoteOnEvent(tick=40, channel=9, data=[35, 0]),
   midi.NoteOnEvent(tick=0, channel=9, data=[36, 127]),
   midi.NoteOnEvent(tick=40, channel=9, data=[42, 0]),
   midi.NoteOnEvent(tick=0, channel=9, data=[36, 0]),
   midi.NoteOnEvent(tick=0, channel=9, data=[42, 127]),
   midi.NoteOnEvent(tick=0, channel=9, data=[38, 127]),
   midi.NoteOnEvent(tick=120, channel=9, data=[42, 0]),
   midi.NoteOnEvent(tick=0, channel=9, data=[38, 0]),
   midi.NoteOnEvent(tick=0, channel=9, data=[42, 127]),
   midi.NoteOnEvent(tick=0, channel=9, data=[36, 127]),
   midi.NoteOnEvent(tick=40, channel=9, data=[36, 0]),
   midi.NoteOnEvent(tick=0, channel=9, data=[35, 127]),
   midi.NoteOnEvent(tick=40, channel=9, data=[35, 0]),
   midi.NoteOnEvent(tick=0, channel=9, data=[36, 127]),
   midi.NoteOnEvent(tick=40, channel=9, data=[42, 0]),
   midi.NoteOnEvent(tick=0, channel=9, data=[36, 0]),
   midi.NoteOnEvent(tick=0, channel=9, data=[38, 127]),
   midi.NoteOnEvent(tick=0, channel=9, data=[42, 127]),
   midi.NoteOnEvent(tick=120, channel=9, data=[38, 0]),
   midi.NoteOnEvent(tick=0, channel=9, data=[42, 0]),
   midi.NoteOnEvent(tick=0, channel=9, data=[42, 127]),
   midi.NoteOnEvent(tick=0, channel=9, data=[36, 127]),
   midi.NoteOnEvent(tick=40, channel=9, data=[36, 0]),
   midi.NoteOnEvent(tick=0, channel=9, data=[35, 127]),
   midi.NoteOnEvent(tick=40, channel=9, data=[35, 0]),
   midi.NoteOnEvent(tick=0, channel=9, data=[36, 127]),
   midi.NoteOnEvent(tick=40, channel=9, data=[42, 0]),
   midi.NoteOnEvent(tick=0, channel=9, data=[36, 0]),
   midi.NoteOnEvent(tick=0, channel=9, data=[57, 127]),
   midi.NoteOnEvent(tick=0, channel=9, data=[38, 127]),
   midi.NoteOnEvent(tick=120, channel=9, data=[57, 0]),
   midi.NoteOnEvent(tick=0, channel=9, data=[38, 0]),
   midi.NoteOnEvent(tick=0, channel=9, data=[36, 127]),
   midi.NoteOnEvent(tick=0, channel=9, data=[42, 127]),
   midi.NoteOnEvent(tick=60, channel=9, data=[36, 0]),
   midi.NoteOnEvent(tick=0, channel=9, data=[36, 127]),
   midi.NoteOnEvent(tick=60, channel=9, data=[42, 0]),
   midi.NoteOnEvent(tick=0, channel=9, data=[36, 0]),
   midi.NoteOnEvent(tick=0, channel=9, data=[57, 127]),
   midi.NoteOnEvent(tick=0, channel=9, data=[38, 127]),
   midi.NoteOnEvent(tick=120, channel=9, data=[57, 0]),
   midi.NoteOnEvent(tick=0, channel=9, data=[38, 0]),
   midi.NoteOnEvent(tick=0, channel=9, data=[36, 127]),
   midi.NoteOnEvent(tick=0, channel=9, data=[42, 127]),
   midi.NoteOnEvent(tick=60, channel=9, data=[36, 0]),
   midi.NoteOnEvent(tick=0, channel=9, data=[36, 127]),
   midi.NoteOnEvent(tick=60, channel=9, data=[42, 0]),
   midi.NoteOnEvent(tick=0, channel=9, data=[36, 0]),
   midi.NoteOnEvent(tick=0, channel=9, data=[57, 127]),
   midi.NoteOnEvent(tick=0, channel=9, data=[38, 127]),
   midi.NoteOnEvent(tick=120, channel=9, data=[57, 0]),
   midi.NoteOnEvent(tick=0, channel=9, data=[38, 0]),
   midi.NoteOnEvent(tick=0, channel=9, data=[42, 127]),
   midi.NoteOnEvent(tick=0, channel=9, data=[36, 127]),
   midi.NoteOnEvent(tick=120, channel=9, data=[42, 0]),
   midi.NoteOnEvent(tick=0, channel=9, data=[36, 0]),
   midi.NoteOnEvent(tick=0, channel=9, data=[38, 127]),
   midi.NoteOnEvent(tick=0, channel=9, data=[42, 127]),
   midi.NoteOnEvent(tick=120, channel=9, data=[38, 0]),
   midi.NoteOnEvent(tick=0, channel=9, data=[42, 0]),
   midi.NoteOnEvent(tick=0, channel=9, data=[42, 127]),
   midi.NoteOnEvent(tick=0, channel=9, data=[36, 127]),
   midi.NoteOnEvent(tick=40, channel=9, data=[36, 0]),
   midi.NoteOnEvent(tick=0, channel=9, data=[35, 127]),
   midi.NoteOnEvent(tick=40, channel=9, data=[35, 0]),
   midi.NoteOnEvent(tick=0, channel=9, data=[36, 127]),
   midi.NoteOnEvent(tick=40, channel=9, data=[42, 0]),
   midi.NoteOnEvent(tick=0, channel=9, data=[36, 0]),
   midi.NoteOnEvent(tick=0, channel=9, data=[57, 127]),
   midi.NoteOnEvent(tick=0, channel=9, data=[38, 127]),
   midi.NoteOnEvent(tick=120, channel=9, data=[57, 0]),
   midi.NoteOnEvent(tick=0, channel=9, data=[38, 0]),
   midi.NoteOnEvent(tick=0, channel=9, data=[42, 127]),
   midi.NoteOnEvent(tick=0, channel=9, data=[36, 127]),
   midi.NoteOnEvent(tick=40, channel=9, data=[36, 0]),
   midi.NoteOnEvent(tick=0, channel=9, data=[35, 127]),
   midi.NoteOnEvent(tick=40, channel=9, data=[35, 0]),
   midi.NoteOnEvent(tick=0, channel=9, data=[36, 127]),
   midi.NoteOnEvent(tick=40, channel=9, data=[42, 0]),
   midi.NoteOnEvent(tick=0, channel=9, data=[36, 0]),
   midi.NoteOnEvent(tick=0, channel=9, data=[38, 127]),
   midi.NoteOnEvent(tick=0, channel=9, data=[42, 127]),
   midi.NoteOnEvent(tick=120, channel=9, data=[38, 0]),
   midi.NoteOnEvent(tick=0, channel=9, data=[42, 0]),
   midi.NoteOnEvent(tick=0, channel=9, data=[42, 127]),
   midi.NoteOnEvent(tick=0, channel=9, data=[36, 127]),
   midi.NoteOnEvent(tick=40, channel=9, data=[36, 0]),
   midi.NoteOnEvent(tick=0, channel=9, data=[35, 127]),
   midi.NoteOnEvent(tick=40, channel=9, data=[35, 0]),
   midi.NoteOnEvent(tick=0, channel=9, data=[36, 127]),
   midi.NoteOnEvent(tick=40, channel=9, data=[42, 0]),
   midi.NoteOnEvent(tick=0, channel=9, data=[36, 0]),
   midi.NoteOnEvent(tick=0, channel=9, data=[57, 127]),
   midi.NoteOnEvent(tick=0, channel=9, data=[38, 127]),
   midi.NoteOnEvent(tick=120, channel=9, data=[57, 0]),
   midi.NoteOnEvent(tick=0, channel=9, data=[38, 0]),
   midi.NoteOnEvent(tick=0, channel=9, data=[42, 127]),
   midi.NoteOnEvent(tick=0, channel=9, data=[36, 127]),
   midi.NoteOnEvent(tick=40, channel=9, data=[36, 0]),
   midi.NoteOnEvent(tick=0, channel=9, data=[35, 127]),
   midi.NoteOnEvent(tick=40, channel=9, data=[35, 0]),
   midi.NoteOnEvent(tick=0, channel=9, data=[36, 127]),
   midi.NoteOnEvent(tick=40, channel=9, data=[42, 0]),
   midi.NoteOnEvent(tick=0, channel=9, data=[36, 0]),
   midi.NoteOnEvent(tick=0, channel=9, data=[38, 127]),
   midi.NoteOnEvent(tick=0, channel=9, data=[42, 127]),
   midi.NoteOnEvent(tick=120, channel=9, data=[38, 0]),
   midi.NoteOnEvent(tick=0, channel=9, data=[42, 0]),
   midi.NoteOnEvent(tick=0, channel=9, data=[42, 127]),
   midi.NoteOnEvent(tick=0, channel=9, data=[36, 127]),
   midi.NoteOnEvent(tick=40, channel=9, data=[36, 0]),
   midi.NoteOnEvent(tick=0, channel=9, data=[35, 127]),
   midi.NoteOnEvent(tick=40, channel=9, data=[35, 0]),
   midi.NoteOnEvent(tick=0, channel=9, data=[36, 127]),
   midi.NoteOnEvent(tick=40, channel=9, data=[42, 0]),
   midi.NoteOnEvent(tick=0, channel=9, data=[36, 0]),
   midi.NoteOnEvent(tick=0, channel=9, data=[42, 127]),
   midi.NoteOnEvent(tick=0, channel=9, data=[38, 127]),
   midi.NoteOnEvent(tick=120, channel=9, data=[42, 0]),
   midi.NoteOnEvent(tick=0, channel=9, data=[38, 0]),
   midi.NoteOnEvent(tick=0, channel=9, data=[42, 127]),
   midi.NoteOnEvent(tick=0, channel=9, data=[36, 127]),
   midi.NoteOnEvent(tick=40, channel=9, data=[36, 0]),
   midi.NoteOnEvent(tick=0, channel=9, data=[35, 127]),
   midi.NoteOnEvent(tick=40, channel=9, data=[35, 0]),
   midi.NoteOnEvent(tick=0, channel=9, data=[36, 127]),
   midi.NoteOnEvent(tick=40, channel=9, data=[42, 0]),
   midi.NoteOnEvent(tick=0, channel=9, data=[36, 0]),
   midi.NoteOnEvent(tick=0, channel=9, data=[38, 127]),
   midi.NoteOnEvent(tick=0, channel=9, data=[42, 127]),
   midi.NoteOnEvent(tick=120, channel=9, data=[38, 0]),
   midi.NoteOnEvent(tick=0, channel=9, data=[42, 0]),
   midi.NoteOnEvent(tick=0, channel=9, data=[42, 127]),
   midi.NoteOnEvent(tick=0, channel=9, data=[36, 127]),
   midi.NoteOnEvent(tick=40, channel=9, data=[36, 0]),
   midi.NoteOnEvent(tick=0, channel=9, data=[35, 127]),
   midi.NoteOnEvent(tick=40, channel=9, data=[35, 0]),
   midi.NoteOnEvent(tick=0, channel=9, data=[36, 127]),
   midi.NoteOnEvent(tick=40, channel=9, data=[42, 0]),
   midi.NoteOnEvent(tick=0, channel=9, data=[36, 0]),
   midi.NoteOnEvent(tick=0, channel=9, data=[57, 127]),
   midi.NoteOnEvent(tick=0, channel=9, data=[38, 127]),
   midi.NoteOnEvent(tick=120, channel=9, data=[57, 0]),
   midi.NoteOnEvent(tick=0, channel=9, data=[38, 0]),
   midi.NoteOnEvent(tick=0, channel=9, data=[42, 127]),
   midi.NoteOnEvent(tick=0, channel=9, data=[36, 127]),
   midi.NoteOnEvent(tick=40, channel=9, data=[36, 0]),
   midi.NoteOnEvent(tick=0, channel=9, data=[35, 127]),
   midi.NoteOnEvent(tick=40, channel=9, data=[35, 0]),
   midi.NoteOnEvent(tick=0, channel=9, data=[36, 127]),
   midi.NoteOnEvent(tick=40, channel=9, data=[42, 0]),
   midi.NoteOnEvent(tick=0, channel=9, data=[36, 0]),
   midi.NoteOnEvent(tick=0, channel=9, data=[38, 127]),
   midi.NoteOnEvent(tick=0, channel=9, data=[42, 127]),
   midi.NoteOnEvent(tick=120, channel=9, data=[38, 0]),
   midi.NoteOnEvent(tick=0, channel=9, data=[42, 0]),
   midi.NoteOnEvent(tick=0, channel=9, data=[42, 127]),
   midi.NoteOnEvent(tick=0, channel=9, data=[36, 127]),
   midi.NoteOnEvent(tick=40, channel=9, data=[36, 0]),
   midi.NoteOnEvent(tick=0, channel=9, data=[35, 127]),
   midi.NoteOnEvent(tick=40, channel=9, data=[35, 0]),
   midi.NoteOnEvent(tick=0, channel=9, data=[36, 127]),
   midi.NoteOnEvent(tick=40, channel=9, data=[42, 0]),
   midi.NoteOnEvent(tick=0, channel=9, data=[36, 0]),
   midi.NoteOnEvent(tick=0, channel=9, data=[42, 127]),
   midi.NoteOnEvent(tick=0, channel=9, data=[38, 127]),
   midi.NoteOnEvent(tick=120, channel=9, data=[42, 0]),
   midi.NoteOnEvent(tick=0, channel=9, data=[38, 0]),
   midi.NoteOnEvent(tick=0, channel=9, data=[42, 127]),
   midi.NoteOnEvent(tick=0, channel=9, data=[36, 127]),
   midi.NoteOnEvent(tick=40, channel=9, data=[36, 0]),
   midi.NoteOnEvent(tick=0, channel=9, data=[35, 127]),
   midi.NoteOnEvent(tick=40, channel=9, data=[35, 0]),
   midi.NoteOnEvent(tick=0, channel=9, data=[36, 127]),
   midi.NoteOnEvent(tick=40, channel=9, data=[42, 0]),
   midi.NoteOnEvent(tick=0, channel=9, data=[36, 0]),
   midi.NoteOnEvent(tick=0, channel=9, data=[38, 127]),
   midi.NoteOnEvent(tick=0, channel=9, data=[42, 127]),
   midi.NoteOnEvent(tick=120, channel=9, data=[38, 0]),
   midi.NoteOnEvent(tick=0, channel=9, data=[42, 0]),
   midi.NoteOnEvent(tick=0, channel=9, data=[42, 127]),
   midi.NoteOnEvent(tick=0, channel=9, data=[36, 127]),
   midi.NoteOnEvent(tick=40, channel=9, data=[36, 0]),
   midi.NoteOnEvent(tick=0, channel=9, data=[35, 127]),
   midi.NoteOnEvent(tick=40, channel=9, data=[35, 0]),
   midi.NoteOnEvent(tick=0, channel=9, data=[36, 127]),
   midi.NoteOnEvent(tick=40, channel=9, data=[42, 0]),
   midi.NoteOnEvent(tick=0, channel=9, data=[36, 0]),
   midi.NoteOnEvent(tick=0, channel=9, data=[57, 127]),
   midi.NoteOnEvent(tick=0, channel=9, data=[38, 127]),
   midi.NoteOnEvent(tick=120, channel=9, data=[57, 0]),
   midi.NoteOnEvent(tick=0, channel=9, data=[38, 0]),
   midi.NoteOnEvent(tick=0, channel=9, data=[42, 127]),
   midi.NoteOnEvent(tick=0, channel=9, data=[36, 127]),
   midi.NoteOnEvent(tick=60, channel=9, data=[36, 0]),
   midi.NoteOnEvent(tick=0, channel=9, data=[36, 127]),
   midi.NoteOnEvent(tick=60, channel=9, data=[42, 0]),
   midi.NoteOnEvent(tick=0, channel=9, data=[36, 0]),
   midi.NoteOnEvent(tick=0, channel=9, data=[57, 127]),
   midi.NoteOnEvent(tick=0, channel=9, data=[38, 127]),
   midi.NoteOnEvent(tick=120, channel=9, data=[57, 0]),
   midi.NoteOnEvent(tick=0, channel=9, data=[38, 0]),
   midi.NoteOnEvent(tick=0, channel=9, data=[57, 127]),
   midi.NoteOnEvent(tick=0, channel=9, data=[36, 127]),
   midi.NoteOnEvent(tick=60, channel=9, data=[36, 0]),
   midi.NoteOnEvent(tick=0, channel=9, data=[36, 127]),
   midi.NoteOnEvent(tick=60, channel=9, data=[57, 0]),
   midi.NoteOnEvent(tick=0, channel=9, data=[36, 0]),
   midi.NoteOnEvent(tick=0, channel=9, data=[57, 127]),
   midi.NoteOnEvent(tick=0, channel=9, data=[38, 127]),
   midi.NoteOnEvent(tick=120, channel=9, data=[57, 0]),
   midi.NoteOnEvent(tick=0, channel=9, data=[38, 0]),
   midi.NoteOnEvent(tick=0, channel=9, data=[36, 127]),
   midi.NoteOnEvent(tick=0, channel=9, data=[57, 127]),
   midi.NoteOnEvent(tick=120, channel=9, data=[36, 0]),
   midi.NoteOnEvent(tick=0, channel=9, data=[57, 0]),
   midi.NoteOnEvent(tick=0, channel=9, data=[42, 127]),
   midi.NoteOnEvent(tick=0, channel=9, data=[38, 127]),
   midi.NoteOnEvent(tick=120, channel=9, data=[42, 0]),
   midi.NoteOnEvent(tick=0, channel=9, data=[38, 0]),
   midi.NoteOnEvent(tick=0, channel=9, data=[42, 127]),
   midi.NoteOnEvent(tick=0, channel=9, data=[36, 127]),
   midi.NoteOnEvent(tick=60, channel=9, data=[36, 0]),
   midi.NoteOnEvent(tick=0, channel=9, data=[36, 127]),
   midi.NoteOnEvent(tick=60, channel=9, data=[42, 0]),
   midi.NoteOnEvent(tick=0, channel=9, data=[36, 0]),
   midi.NoteOnEvent(tick=0, channel=9, data=[38, 127]),
   midi.NoteOnEvent(tick=0, channel=9, data=[42, 127]),
   midi.NoteOnEvent(tick=120, channel=9, data=[38, 0]),
   midi.NoteOnEvent(tick=0, channel=9, data=[42, 0]),
   midi.NoteOnEvent(tick=0, channel=9, data=[36, 127]),
   midi.NoteOnEvent(tick=0, channel=9, data=[42, 127]),
   midi.NoteOnEvent(tick=60, channel=9, data=[36, 0]),
   midi.NoteOnEvent(tick=0, channel=9, data=[36, 127]),
   midi.NoteOnEvent(tick=60, channel=9, data=[42, 0]),
   midi.NoteOnEvent(tick=0, channel=9, data=[36, 0]),
   midi.NoteOnEvent(tick=0, channel=9, data=[38, 127]),
   midi.NoteOnEvent(tick=0, channel=9, data=[42, 127]),
   midi.NoteOnEvent(tick=120, channel=9, data=[38, 0]),
   midi.NoteOnEvent(tick=0, channel=9, data=[42, 0]),
   midi.NoteOnEvent(tick=0, channel=9, data=[36, 127]),
   midi.NoteOnEvent(tick=0, channel=9, data=[42, 127]),
   midi.NoteOnEvent(tick=60, channel=9, data=[36, 0]),
   midi.NoteOnEvent(tick=0, channel=9, data=[36, 127]),
   midi.NoteOnEvent(tick=60, channel=9, data=[42, 0]),
   midi.NoteOnEvent(tick=0, channel=9, data=[36, 0]),
   midi.NoteOnEvent(tick=0, channel=9, data=[38, 127]),
   midi.NoteOnEvent(tick=0, channel=9, data=[42, 127]),
   midi.NoteOnEvent(tick=120, channel=9, data=[38, 0]),
   midi.NoteOnEvent(tick=0, channel=9, data=[42, 0]),
   midi.NoteOnEvent(tick=0, channel=9, data=[36, 127]),
   midi.NoteOnEvent(tick=0, channel=9, data=[42, 127]),
   midi.NoteOnEvent(tick=60, channel=9, data=[36, 0]),
   midi.NoteOnEvent(tick=0, channel=9, data=[36, 127]),
   midi.NoteOnEvent(tick=60, channel=9, data=[42, 0]),
   midi.NoteOnEvent(tick=0, channel=9, data=[36, 0]),
   midi.NoteOnEvent(tick=0, channel=9, data=[57, 127]),
   midi.NoteOnEvent(tick=0, channel=9, data=[38, 127]),
   midi.NoteOnEvent(tick=120, channel=9, data=[57, 0]),
   midi.NoteOnEvent(tick=0, channel=9, data=[38, 0]),
   midi.NoteOnEvent(tick=0, channel=9, data=[36, 127]),
   midi.NoteOnEvent(tick=0, channel=9, data=[42, 127]),
   midi.NoteOnEvent(tick=60, channel=9, data=[36, 0]),
   midi.NoteOnEvent(tick=0, channel=9, data=[36, 127]),
   midi.NoteOnEvent(tick=60, channel=9, data=[42, 0]),
   midi.NoteOnEvent(tick=0, channel=9, data=[36, 0]),
   midi.NoteOnEvent(tick=0, channel=9, data=[38, 127]),
   midi.NoteOnEvent(tick=0, channel=9, data=[42, 127]),
   midi.NoteOnEvent(tick=120, channel=9, data=[38, 0]),
   midi.NoteOnEvent(tick=0, channel=9, data=[42, 0]),
   midi.NoteOnEvent(tick=0, channel=9, data=[36, 127]),
   midi.NoteOnEvent(tick=0, channel=9, data=[42, 127]),
   midi.NoteOnEvent(tick=60, channel=9, data=[36, 0]),
   midi.NoteOnEvent(tick=0, channel=9, data=[36, 127]),
   midi.NoteOnEvent(tick=60, channel=9, data=[42, 0]),
   midi.NoteOnEvent(tick=0, channel=9, data=[36, 0]),
   midi.NoteOnEvent(tick=0, channel=9, data=[38, 127]),
   midi.NoteOnEvent(tick=0, channel=9, data=[42, 127]),
   midi.NoteOnEvent(tick=120, channel=9, data=[38, 0]),
   midi.NoteOnEvent(tick=0, channel=9, data=[42, 0]),
   midi.NoteOnEvent(tick=0, channel=9, data=[36, 127]),
   midi.NoteOnEvent(tick=0, channel=9, data=[42, 127]),
   midi.NoteOnEvent(tick=60, channel=9, data=[36, 0]),
   midi.NoteOnEvent(tick=0, channel=9, data=[36, 127]),
   midi.NoteOnEvent(tick=60, channel=9, data=[42, 0]),
   midi.NoteOnEvent(tick=0, channel=9, data=[36, 0]),
   midi.NoteOnEvent(tick=0, channel=9, data=[38, 127]),
   midi.NoteOnEvent(tick=0, channel=9, data=[42, 127]),
   midi.NoteOnEvent(tick=120, channel=9, data=[38, 0]),
   midi.NoteOnEvent(tick=0, channel=9, data=[42, 0]),
   midi.NoteOnEvent(tick=0, channel=9, data=[36, 127]),
   midi.NoteOnEvent(tick=0, channel=9, data=[42, 127]),
   midi.NoteOnEvent(tick=60, channel=9, data=[36, 0]),
   midi.NoteOnEvent(tick=0, channel=9, data=[36, 127]),
   midi.NoteOnEvent(tick=60, channel=9, data=[42, 0]),
   midi.NoteOnEvent(tick=0, channel=9, data=[36, 0]),
   midi.NoteOnEvent(tick=0, channel=9, data=[57, 127]),
   midi.NoteOnEvent(tick=0, channel=9, data=[38, 127]),
   midi.NoteOnEvent(tick=120, channel=9, data=[57, 0]),
   midi.NoteOnEvent(tick=0, channel=9, data=[38, 0]),
   midi.NoteOnEvent(tick=0, channel=9, data=[36, 127]),
   midi.NoteOnEvent(tick=0, channel=9, data=[42, 127]),
   midi.NoteOnEvent(tick=60, channel=9, data=[36, 0]),
   midi.NoteOnEvent(tick=0, channel=9, data=[36, 127]),
   midi.NoteOnEvent(tick=60, channel=9, data=[42, 0]),
   midi.NoteOnEvent(tick=0, channel=9, data=[36, 0]),
   midi.NoteOnEvent(tick=0, channel=9, data=[38, 127]),
   midi.NoteOnEvent(tick=0, channel=9, data=[42, 127]),
   midi.NoteOnEvent(tick=120, channel=9, data=[38, 0]),
   midi.NoteOnEvent(tick=0, channel=9, data=[42, 0]),
   midi.NoteOnEvent(tick=0, channel=9, data=[36, 127]),
   midi.NoteOnEvent(tick=0, channel=9, data=[42, 127]),
   midi.NoteOnEvent(tick=60, channel=9, data=[36, 0]),
   midi.NoteOnEvent(tick=0, channel=9, data=[36, 127]),
   midi.NoteOnEvent(tick=60, channel=9, data=[42, 0]),
   midi.NoteOnEvent(tick=0, channel=9, data=[36, 0]),
   midi.NoteOnEvent(tick=0, channel=9, data=[38, 127]),
   midi.NoteOnEvent(tick=0, channel=9, data=[42, 127]),
   midi.NoteOnEvent(tick=120, channel=9, data=[38, 0]),
   midi.NoteOnEvent(tick=0, channel=9, data=[42, 0]),
   midi.NoteOnEvent(tick=0, channel=9, data=[36, 127]),
   midi.NoteOnEvent(tick=0, channel=9, data=[42, 127]),
   midi.NoteOnEvent(tick=60, channel=9, data=[36, 0]),
   midi.NoteOnEvent(tick=0, channel=9, data=[36, 127]),
   midi.NoteOnEvent(tick=60, channel=9, data=[42, 0]),
   midi.NoteOnEvent(tick=0, channel=9, data=[36, 0]),
   midi.NoteOnEvent(tick=0, channel=9, data=[38, 127]),
   midi.NoteOnEvent(tick=0, channel=9, data=[42, 127]),
   midi.NoteOnEvent(tick=120, channel=9, data=[38, 0]),
   midi.NoteOnEvent(tick=0, channel=9, data=[42, 0]),
   midi.NoteOnEvent(tick=0, channel=9, data=[36, 127]),
   midi.NoteOnEvent(tick=0, channel=9, data=[42, 127]),
   midi.NoteOnEvent(tick=60, channel=9, data=[36, 0]),
   midi.NoteOnEvent(tick=0, channel=9, data=[36, 127]),
   midi.NoteOnEvent(tick=60, channel=9, data=[42, 0]),
   midi.NoteOnEvent(tick=0, channel=9, data=[36, 0]),
   midi.NoteOnEvent(tick=0, channel=9, data=[57, 127]),
   midi.NoteOnEvent(tick=0, channel=9, data=[38, 127]),
   midi.NoteOnEvent(tick=120, channel=9, data=[57, 0]),
   midi.NoteOnEvent(tick=0, channel=9, data=[38, 0]),
   midi.NoteOnEvent(tick=0, channel=9, data=[36, 127]),
   midi.NoteOnEvent(tick=0, channel=9, data=[42, 127]),
   midi.NoteOnEvent(tick=60, channel=9, data=[36, 0]),
   midi.NoteOnEvent(tick=0, channel=9, data=[36, 127]),
   midi.NoteOnEvent(tick=60, channel=9, data=[42, 0]),
   midi.NoteOnEvent(tick=0, channel=9, data=[36, 0]),
   midi.NoteOnEvent(tick=0, channel=9, data=[38, 127]),
   midi.NoteOnEvent(tick=0, channel=9, data=[42, 127]),
   midi.NoteOnEvent(tick=120, channel=9, data=[38, 0]),
   midi.NoteOnEvent(tick=0, channel=9, data=[42, 0]),
   midi.NoteOnEvent(tick=0, channel=9, data=[45, 127]),
   midi.NoteOnEvent(tick=0, channel=9, data=[36, 127]),
   midi.NoteOnEvent(tick=30, channel=9, data=[45, 0]),
   midi.NoteOnEvent(tick=0, channel=9, data=[45, 127]),
   midi.NoteOnEvent(tick=30, channel=9, data=[45, 0]),
   midi.NoteOnEvent(tick=0, channel=9, data=[45, 127]),
   midi.NoteOnEvent(tick=30, channel=9, data=[45, 0]),
   midi.NoteOnEvent(tick=0, channel=9, data=[45, 127]),
   midi.NoteOnEvent(tick=30, channel=9, data=[36, 0]),
   midi.NoteOnEvent(tick=0, channel=9, data=[45, 0]),
   midi.NoteOnEvent(tick=0, channel=9, data=[47, 127]),
   midi.NoteOnEvent(tick=0, channel=9, data=[36, 127]),
   midi.NoteOnEvent(tick=30, channel=9, data=[47, 0]),
   midi.NoteOnEvent(tick=0, channel=9, data=[47, 127]),
   midi.NoteOnEvent(tick=30, channel=9, data=[47, 0]),
   midi.NoteOnEvent(tick=0, channel=9, data=[47, 127]),
   midi.NoteOnEvent(tick=30, channel=9, data=[47, 0]),
   midi.NoteOnEvent(tick=0, channel=9, data=[47, 127]),
   midi.NoteOnEvent(tick=30, channel=9, data=[36, 0]),
   midi.NoteOnEvent(tick=0, channel=9, data=[47, 0]),
   midi.NoteOnEvent(tick=0, channel=9, data=[48, 127]),
   midi.NoteOnEvent(tick=0, channel=9, data=[36, 127]),
   midi.NoteOnEvent(tick=30, channel=9, data=[48, 0]),
   midi.NoteOnEvent(tick=0, channel=9, data=[48, 127]),
   midi.NoteOnEvent(tick=30, channel=9, data=[48, 0]),
   midi.NoteOnEvent(tick=0, channel=9, data=[48, 127]),
   midi.NoteOnEvent(tick=30, channel=9, data=[48, 0]),
   midi.NoteOnEvent(tick=0, channel=9, data=[48, 127]),
   midi.NoteOnEvent(tick=30, channel=9, data=[36, 0]),
   midi.NoteOnEvent(tick=0, channel=9, data=[48, 0]),
   midi.NoteOnEvent(tick=0, channel=9, data=[50, 127]),
   midi.NoteOnEvent(tick=30, channel=9, data=[50, 0]),
   midi.NoteOnEvent(tick=0, channel=9, data=[50, 127]),
   midi.NoteOnEvent(tick=30, channel=9, data=[50, 0]),
   midi.NoteOnEvent(tick=0, channel=9, data=[50, 127]),
   midi.NoteOnEvent(tick=30, channel=9, data=[50, 0]),
   midi.NoteOnEvent(tick=0, channel=9, data=[50, 127]),
   midi.NoteOnEvent(tick=30, channel=9, data=[50, 0]),
   midi.NoteOnEvent(tick=0, channel=9, data=[36, 127]),
   midi.NoteOnEvent(tick=0, channel=9, data=[57, 127]),
   midi.NoteOnEvent(tick=120, channel=9, data=[36, 0]),
   midi.NoteOnEvent(tick=0, channel=9, data=[57, 0]),
   midi.NoteOnEvent(tick=0, channel=9, data=[38, 127]),
   midi.NoteOnEvent(tick=0, channel=9, data=[57, 127]),
   midi.NoteOnEvent(tick=120, channel=9, data=[38, 0]),
   midi.NoteOnEvent(tick=0, channel=9, data=[57, 0]),
   midi.NoteOnEvent(tick=0, channel=9, data=[42, 127]),
   midi.NoteOnEvent(tick=0, channel=9, data=[36, 127]),
   midi.NoteOnEvent(tick=60, channel=9, data=[36, 0]),
   midi.NoteOnEvent(tick=0, channel=9, data=[36, 127]),
   midi.NoteOnEvent(tick=60, channel=9, data=[42, 0]),
   midi.NoteOnEvent(tick=0, channel=9, data=[36, 0]),
   midi.NoteOnEvent(tick=0, channel=9, data=[42, 127]),
   midi.NoteOnEvent(tick=0, channel=9, data=[38, 127]),
   midi.NoteOnEvent(tick=120, channel=9, data=[42, 0]),
   midi.NoteOnEvent(tick=0, channel=9, data=[38, 0]),
   midi.NoteOnEvent(tick=0, channel=9, data=[36, 127]),
   midi.NoteOnEvent(tick=0, channel=9, data=[42, 127]),
   midi.NoteOnEvent(tick=60, channel=9, data=[36, 0]),
   midi.NoteOnEvent(tick=0, channel=9, data=[36, 127]),
   midi.NoteOnEvent(tick=60, channel=9, data=[42, 0]),
   midi.NoteOnEvent(tick=0, channel=9, data=[36, 0]),
   midi.NoteOnEvent(tick=0, channel=9, data=[38, 127]),
   midi.NoteOnEvent(tick=0, channel=9, data=[42, 127]),
   midi.NoteOnEvent(tick=120, channel=9, data=[38, 0]),
   midi.NoteOnEvent(tick=0, channel=9, data=[42, 0]),
   midi.NoteOnEvent(tick=0, channel=9, data=[36, 127]),
   midi.NoteOnEvent(tick=0, channel=9, data=[42, 127]),
   midi.NoteOnEvent(tick=60, channel=9, data=[36, 0]),
   midi.NoteOnEvent(tick=0, channel=9, data=[36, 127]),
   midi.NoteOnEvent(tick=60, channel=9, data=[42, 0]),
   midi.NoteOnEvent(tick=0, channel=9, data=[36, 0]),
   midi.NoteOnEvent(tick=0, channel=9, data=[38, 127]),
   midi.NoteOnEvent(tick=0, channel=9, data=[42, 127]),
   midi.NoteOnEvent(tick=120, channel=9, data=[38, 0]),
   midi.NoteOnEvent(tick=0, channel=9, data=[42, 0]),
   midi.NoteOnEvent(tick=0, channel=9, data=[36, 127]),
   midi.NoteOnEvent(tick=0, channel=9, data=[42, 127]),
   midi.NoteOnEvent(tick=60, channel=9, data=[36, 0]),
   midi.NoteOnEvent(tick=0, channel=9, data=[36, 127]),
   midi.NoteOnEvent(tick=60, channel=9, data=[42, 0]),
   midi.NoteOnEvent(tick=0, channel=9, data=[36, 0]),
   midi.NoteOnEvent(tick=0, channel=9, data=[57, 127]),
   midi.NoteOnEvent(tick=0, channel=9, data=[38, 127]),
   midi.NoteOnEvent(tick=120, channel=9, data=[57, 0]),
   midi.NoteOnEvent(tick=0, channel=9, data=[38, 0]),
   midi.NoteOnEvent(tick=0, channel=9, data=[36, 127]),
   midi.NoteOnEvent(tick=0, channel=9, data=[42, 127]),
   midi.NoteOnEvent(tick=60, channel=9, data=[36, 0]),
   midi.NoteOnEvent(tick=0, channel=9, data=[36, 127]),
   midi.NoteOnEvent(tick=60, channel=9, data=[42, 0]),
   midi.NoteOnEvent(tick=0, channel=9, data=[36, 0]),
   midi.NoteOnEvent(tick=0, channel=9, data=[38, 127]),
   midi.NoteOnEvent(tick=0, channel=9, data=[42, 127]),
   midi.NoteOnEvent(tick=120, channel=9, data=[38, 0]),
   midi.NoteOnEvent(tick=0, channel=9, data=[42, 0]),
   midi.NoteOnEvent(tick=0, channel=9, data=[36, 127]),
   midi.NoteOnEvent(tick=0, channel=9, data=[42, 127]),
   midi.NoteOnEvent(tick=60, channel=9, data=[36, 0]),
   midi.NoteOnEvent(tick=0, channel=9, data=[36, 127]),
   midi.NoteOnEvent(tick=60, channel=9, data=[42, 0]),
   midi.NoteOnEvent(tick=0, channel=9, data=[36, 0]),
   midi.NoteOnEvent(tick=0, channel=9, data=[38, 127]),
   midi.NoteOnEvent(tick=0, channel=9, data=[42, 127]),
   midi.NoteOnEvent(tick=120, channel=9, data=[38, 0]),
   midi.NoteOnEvent(tick=0, channel=9, data=[42, 0]),
   midi.NoteOnEvent(tick=0, channel=9, data=[36, 127]),
   midi.NoteOnEvent(tick=0, channel=9, data=[42, 127]),
   midi.NoteOnEvent(tick=60, channel=9, data=[36, 0]),
   midi.NoteOnEvent(tick=0, channel=9, data=[36, 127]),
   midi.NoteOnEvent(tick=60, channel=9, data=[42, 0]),
   midi.NoteOnEvent(tick=0, channel=9, data=[36, 0]),
   midi.NoteOnEvent(tick=0, channel=9, data=[38, 127]),
   midi.NoteOnEvent(tick=0, channel=9, data=[42, 127]),
   midi.NoteOnEvent(tick=120, channel=9, data=[38, 0]),
   midi.NoteOnEvent(tick=0, channel=9, data=[42, 0]),
   midi.NoteOnEvent(tick=0, channel=9, data=[36, 127]),
   midi.NoteOnEvent(tick=0, channel=9, data=[42, 127]),
   midi.NoteOnEvent(tick=60, channel=9, data=[36, 0]),
   midi.NoteOnEvent(tick=0, channel=9, data=[36, 127]),
   midi.NoteOnEvent(tick=60, channel=9, data=[42, 0]),
   midi.NoteOnEvent(tick=0, channel=9, data=[36, 0]),
   midi.NoteOnEvent(tick=0, channel=9, data=[57, 127]),
   midi.NoteOnEvent(tick=0, channel=9, data=[38, 127]),
   midi.NoteOnEvent(tick=120, channel=9, data=[57, 0]),
   midi.NoteOnEvent(tick=0, channel=9, data=[38, 0]),
   midi.NoteOnEvent(tick=0, channel=9, data=[36, 127]),
   midi.NoteOnEvent(tick=0, channel=9, data=[42, 127]),
   midi.NoteOnEvent(tick=60, channel=9, data=[36, 0]),
   midi.NoteOnEvent(tick=0, channel=9, data=[36, 127]),
   midi.NoteOnEvent(tick=60, channel=9, data=[42, 0]),
   midi.NoteOnEvent(tick=0, channel=9, data=[36, 0]),
   midi.NoteOnEvent(tick=0, channel=9, data=[38, 127]),
   midi.NoteOnEvent(tick=0, channel=9, data=[42, 127]),
   midi.NoteOnEvent(tick=120, channel=9, data=[38, 0]),
   midi.NoteOnEvent(tick=0, channel=9, data=[42, 0]),
   midi.NoteOnEvent(tick=0, channel=9, data=[36, 127]),
   midi.NoteOnEvent(tick=0, channel=9, data=[57, 127]),
   midi.NoteOnEvent(tick=120, channel=9, data=[36, 0]),
   midi.NoteOnEvent(tick=0, channel=9, data=[57, 0]),
   midi.NoteOnEvent(tick=0, channel=9, data=[36, 127]),
   midi.NoteOnEvent(tick=0, channel=9, data=[38, 127]),
   midi.NoteOnEvent(tick=0, channel=9, data=[57, 127]),
   midi.NoteOnEvent(tick=120, channel=9, data=[36, 0]),
   midi.NoteOnEvent(tick=0, channel=9, data=[38, 0]),
   midi.NoteOnEvent(tick=0, channel=9, data=[57, 0]),
   midi.NoteOnEvent(tick=0, channel=9, data=[36, 127]),
   midi.NoteOnEvent(tick=0, channel=9, data=[57, 127]),
   midi.NoteOnEvent(tick=60, channel=9, data=[36, 0]),
   midi.NoteOnEvent(tick=0, channel=9, data=[36, 127]),
   midi.NoteOnEvent(tick=55, channel=9, data=[38, 75]),
   midi.NoteOnEvent(tick=5, channel=9, data=[57, 0]),
   midi.NoteOnEvent(tick=0, channel=9, data=[36, 0]),
   midi.NoteOnEvent(tick=0, channel=9, data=[38, 0]),
   midi.NoteOnEvent(tick=0, channel=9, data=[38, 127]),
   midi.NoteOnEvent(tick=120, channel=9, data=[38, 0]),
   midi.NoteOnEvent(tick=0, channel=9, data=[36, 127]),
   midi.NoteOnEvent(tick=0, channel=9, data=[57, 127]),
   midi.NoteOnEvent(tick=120, channel=9, data=[36, 0]),
   midi.NoteOnEvent(tick=0, channel=9, data=[57, 0]),
   midi.NoteOnEvent(tick=0, channel=9, data=[59, 127]),
   midi.NoteOnEvent(tick=60, channel=9, data=[36, 127]),
   midi.NoteOnEvent(tick=60, channel=9, data=[59, 0]),
   midi.NoteOnEvent(tick=0, channel=9, data=[36, 0]),
   midi.NoteOnEvent(tick=0, channel=9, data=[36, 127]),
   midi.NoteOnEvent(tick=0, channel=9, data=[38, 127]),
   midi.NoteOnEvent(tick=0, channel=9, data=[59, 127]),
   midi.NoteOnEvent(tick=120, channel=9, data=[36, 0]),
   midi.NoteOnEvent(tick=0, channel=9, data=[38, 0]),
   midi.NoteOnEvent(tick=0, channel=9, data=[59, 0]),
   midi.NoteOnEvent(tick=0, channel=9, data=[59, 127]),
   midi.NoteOnEvent(tick=120, channel=9, data=[59, 0]),
   midi.NoteOnEvent(tick=0, channel=9, data=[36, 127]),
   midi.NoteOnEvent(tick=0, channel=9, data=[59, 127]),
   midi.NoteOnEvent(tick=120, channel=9, data=[36, 0]),
   midi.NoteOnEvent(tick=0, channel=9, data=[59, 0]),
   midi.NoteOnEvent(tick=0, channel=9, data=[59, 127]),
   midi.NoteOnEvent(tick=60, channel=9, data=[36, 127]),
   midi.NoteOnEvent(tick=60, channel=9, data=[59, 0]),
   midi.NoteOnEvent(tick=0, channel=9, data=[36, 0]),
   midi.NoteOnEvent(tick=0, channel=9, data=[36, 127]),
   midi.NoteOnEvent(tick=0, channel=9, data=[38, 127]),
   midi.NoteOnEvent(tick=0, channel=9, data=[59, 127]),
   midi.NoteOnEvent(tick=120, channel=9, data=[36, 0]),
   midi.NoteOnEvent(tick=0, channel=9, data=[38, 0]),
   midi.NoteOnEvent(tick=0, channel=9, data=[59, 0]),
   midi.NoteOnEvent(tick=0, channel=9, data=[59, 127]),
   midi.NoteOnEvent(tick=120, channel=9, data=[59, 0]),
   midi.NoteOnEvent(tick=0, channel=9, data=[36, 127]),
   midi.NoteOnEvent(tick=0, channel=9, data=[59, 127]),
   midi.NoteOnEvent(tick=120, channel=9, data=[36, 0]),
   midi.NoteOnEvent(tick=0, channel=9, data=[59, 0]),
   midi.NoteOnEvent(tick=0, channel=9, data=[36, 127]),
   midi.NoteOnEvent(tick=0, channel=9, data=[59, 127]),
   midi.NoteOnEvent(tick=60, channel=9, data=[36, 0]),
   midi.NoteOnEvent(tick=0, channel=9, data=[36, 127]),
   midi.NoteOnEvent(tick=60, channel=9, data=[59, 0]),
   midi.NoteOnEvent(tick=0, channel=9, data=[36, 0]),
   midi.NoteOnEvent(tick=0, channel=9, data=[59, 127]),
   midi.NoteOnEvent(tick=0, channel=9, data=[38, 127]),
   midi.NoteOnEvent(tick=120, channel=9, data=[59, 0]),
   midi.NoteOnEvent(tick=0, channel=9, data=[38, 0]),
   midi.NoteOnEvent(tick=0, channel=9, data=[59, 127]),
   midi.NoteOnEvent(tick=120, channel=9, data=[59, 0]),
   midi.NoteOnEvent(tick=0, channel=9, data=[59, 127]),
   midi.NoteOnEvent(tick=0, channel=9, data=[36, 127]),
   midi.NoteOnEvent(tick=60, channel=9, data=[36, 0]),
   midi.NoteOnEvent(tick=0, channel=9, data=[36, 127]),
   midi.NoteOnEvent(tick=60, channel=9, data=[59, 0]),
   midi.NoteOnEvent(tick=0, channel=9, data=[36, 0]),
   midi.NoteOnEvent(tick=0, channel=9, data=[38, 127]),
   midi.NoteOnEvent(tick=0, channel=9, data=[57, 127]),
   midi.NoteOnEvent(tick=120, channel=9, data=[38, 0]),
   midi.NoteOnEvent(tick=0, channel=9, data=[57, 0]),
   midi.NoteOnEvent(tick=0, channel=9, data=[59, 127]),
   midi.NoteOnEvent(tick=0, channel=9, data=[36, 127]),
   midi.NoteOnEvent(tick=60, channel=9, data=[36, 0]),
   midi.NoteOnEvent(tick=0, channel=9, data=[36, 127]),
   midi.NoteOnEvent(tick=60, channel=9, data=[59, 0]),
   midi.NoteOnEvent(tick=0, channel=9, data=[36, 0]),
   midi.NoteOnEvent(tick=0, channel=9, data=[38, 127]),
   midi.NoteOnEvent(tick=0, channel=9, data=[57, 127]),
   midi.NoteOnEvent(tick=120, channel=9, data=[38, 0]),
   midi.NoteOnEvent(tick=0, channel=9, data=[57, 0]),
   midi.NoteOnEvent(tick=0, channel=9, data=[59, 127]),
   midi.NoteOnEvent(tick=0, channel=9, data=[36, 127]),
   midi.NoteOnEvent(tick=120, channel=9, data=[59, 0]),
   midi.NoteOnEvent(tick=0, channel=9, data=[36, 0]),
   midi.NoteOnEvent(tick=0, channel=9, data=[59, 127]),
   midi.NoteOnEvent(tick=60, channel=9, data=[36, 127]),
   midi.NoteOnEvent(tick=60, channel=9, data=[59, 0]),
   midi.NoteOnEvent(tick=0, channel=9, data=[36, 0]),
   midi.NoteOnEvent(tick=0, channel=9, data=[59, 127]),
   midi.NoteOnEvent(tick=0, channel=9, data=[38, 127]),
   midi.NoteOnEvent(tick=0, channel=9, data=[36, 127]),
   midi.NoteOnEvent(tick=120, channel=9, data=[59, 0]),
   midi.NoteOnEvent(tick=0, channel=9, data=[38, 0]),
   midi.NoteOnEvent(tick=0, channel=9, data=[36, 0]),
   midi.NoteOnEvent(tick=0, channel=9, data=[59, 127]),
   midi.NoteOnEvent(tick=120, channel=9, data=[59, 0]),
   midi.NoteOnEvent(tick=0, channel=9, data=[36, 127]),
   midi.NoteOnEvent(tick=0, channel=9, data=[59, 127]),
   midi.NoteOnEvent(tick=120, channel=9, data=[36, 0]),
   midi.NoteOnEvent(tick=0, channel=9, data=[59, 0]),
   midi.NoteOnEvent(tick=0, channel=9, data=[59, 127]),
   midi.NoteOnEvent(tick=0, channel=9, data=[36, 127]),
   midi.NoteOnEvent(tick=60, channel=9, data=[36, 0]),
   midi.NoteOnEvent(tick=0, channel=9, data=[36, 127]),
   midi.NoteOnEvent(tick=60, channel=9, data=[59, 0]),
   midi.NoteOnEvent(tick=0, channel=9, data=[36, 0]),
   midi.NoteOnEvent(tick=0, channel=9, data=[38, 127]),
   midi.NoteOnEvent(tick=0, channel=9, data=[59, 127]),
   midi.NoteOnEvent(tick=120, channel=9, data=[38, 0]),
   midi.NoteOnEvent(tick=0, channel=9, data=[59, 0]),
   midi.NoteOnEvent(tick=0, channel=9, data=[59, 127]),
   midi.NoteOnEvent(tick=120, channel=9, data=[59, 0]),
   midi.NoteOnEvent(tick=0, channel=9, data=[36, 127]),
   midi.NoteOnEvent(tick=0, channel=9, data=[57, 127]),
   midi.NoteOnEvent(tick=60, channel=9, data=[36, 0]),
   midi.NoteOnEvent(tick=0, channel=9, data=[36, 127]),
   midi.NoteOnEvent(tick=60, channel=9, data=[57, 0]),
   midi.NoteOnEvent(tick=0, channel=9, data=[36, 0]),
   midi.NoteOnEvent(tick=0, channel=9, data=[38, 127]),
   midi.NoteOnEvent(tick=0, channel=9, data=[57, 127]),
   midi.NoteOnEvent(tick=120, channel=9, data=[38, 0]),
   midi.NoteOnEvent(tick=0, channel=9, data=[57, 0]),
   midi.NoteOnEvent(tick=0, channel=9, data=[36, 127]),
   midi.NoteOnEvent(tick=0, channel=9, data=[57, 127]),
   midi.NoteOnEvent(tick=60, channel=9, data=[36, 0]),
   midi.NoteOnEvent(tick=0, channel=9, data=[36, 127]),
   midi.NoteOnEvent(tick=60, channel=9, data=[57, 0]),
   midi.NoteOnEvent(tick=0, channel=9, data=[36, 0]),
   midi.NoteOnEvent(tick=0, channel=9, data=[38, 127]),
   midi.NoteOnEvent(tick=0, channel=9, data=[57, 127]),
   midi.NoteOnEvent(tick=120, channel=9, data=[38, 0]),
   midi.NoteOnEvent(tick=0, channel=9, data=[57, 0]),
   midi.NoteOnEvent(tick=0, channel=9, data=[36, 127]),
   midi.NoteOnEvent(tick=0, channel=9, data=[57, 127]),
   midi.NoteOnEvent(tick=120, channel=9, data=[36, 0]),
   midi.NoteOnEvent(tick=0, channel=9, data=[57, 0]),
   midi.NoteOnEvent(tick=0, channel=9, data=[59, 127]),
   midi.NoteOnEvent(tick=60, channel=9, data=[36, 127]),
   midi.NoteOnEvent(tick=60, channel=9, data=[59, 0]),
   midi.NoteOnEvent(tick=0, channel=9, data=[36, 0]),
   midi.NoteOnEvent(tick=0, channel=9, data=[36, 127]),
   midi.NoteOnEvent(tick=0, channel=9, data=[38, 127]),
   midi.NoteOnEvent(tick=0, channel=9, data=[59, 127]),
   midi.NoteOnEvent(tick=120, channel=9, data=[36, 0]),
   midi.NoteOnEvent(tick=0, channel=9, data=[38, 0]),
   midi.NoteOnEvent(tick=0, channel=9, data=[59, 0]),
   midi.NoteOnEvent(tick=0, channel=9, data=[59, 127]),
   midi.NoteOnEvent(tick=120, channel=9, data=[59, 0]),
   midi.NoteOnEvent(tick=0, channel=9, data=[36, 127]),
   midi.NoteOnEvent(tick=0, channel=9, data=[59, 127]),
   midi.NoteOnEvent(tick=120, channel=9, data=[36, 0]),
   midi.NoteOnEvent(tick=0, channel=9, data=[59, 0]),
   midi.NoteOnEvent(tick=0, channel=9, data=[59, 127]),
   midi.NoteOnEvent(tick=0, channel=9, data=[36, 127]),
   midi.NoteOnEvent(tick=60, channel=9, data=[36, 0]),
   midi.NoteOnEvent(tick=0, channel=9, data=[36, 127]),
   midi.NoteOnEvent(tick=60, channel=9, data=[59, 0]),
   midi.NoteOnEvent(tick=0, channel=9, data=[36, 0]),
   midi.NoteOnEvent(tick=0, channel=9, data=[38, 127]),
   midi.NoteOnEvent(tick=0, channel=9, data=[59, 127]),
   midi.NoteOnEvent(tick=120, channel=9, data=[38, 0]),
   midi.NoteOnEvent(tick=0, channel=9, data=[59, 0]),
   midi.NoteOnEvent(tick=0, channel=9, data=[59, 127]),
   midi.NoteOnEvent(tick=120, channel=9, data=[59, 0]),
   midi.NoteOnEvent(tick=0, channel=9, data=[36, 127]),
   midi.NoteOnEvent(tick=0, channel=9, data=[59, 127]),
   midi.NoteOnEvent(tick=120, channel=9, data=[36, 0]),
   midi.NoteOnEvent(tick=0, channel=9, data=[59, 0]),
   midi.NoteOnEvent(tick=0, channel=9, data=[59, 127]),
   midi.NoteOnEvent(tick=60, channel=9, data=[36, 127]),
   midi.NoteOnEvent(tick=60, channel=9, data=[59, 0]),
   midi.NoteOnEvent(tick=0, channel=9, data=[36, 0]),
   midi.NoteOnEvent(tick=0, channel=9, data=[59, 127]),
   midi.NoteOnEvent(tick=0, channel=9, data=[38, 127]),
   midi.NoteOnEvent(tick=0, channel=9, data=[36, 127]),
   midi.NoteOnEvent(tick=120, channel=9, data=[59, 0]),
   midi.NoteOnEvent(tick=0, channel=9, data=[38, 0]),
   midi.NoteOnEvent(tick=0, channel=9, data=[36, 0]),
   midi.NoteOnEvent(tick=0, channel=9, data=[59, 127]),
   midi.NoteOnEvent(tick=120, channel=9, data=[59, 0]),
   midi.NoteOnEvent(tick=0, channel=9, data=[59, 127]),
   midi.NoteOnEvent(tick=0, channel=9, data=[36, 127]),
   midi.NoteOnEvent(tick=60, channel=9, data=[36, 0]),
   midi.NoteOnEvent(tick=0, channel=9, data=[36, 127]),
   midi.NoteOnEvent(tick=60, channel=9, data=[59, 0]),
   midi.NoteOnEvent(tick=0, channel=9, data=[36, 0]),
   midi.NoteOnEvent(tick=0, channel=9, data=[38, 127]),
   midi.NoteOnEvent(tick=0, channel=9, data=[57, 127]),
   midi.NoteOnEvent(tick=120, channel=9, data=[38, 0]),
   midi.NoteOnEvent(tick=0, channel=9, data=[57, 0]),
   midi.NoteOnEvent(tick=0, channel=9, data=[59, 127]),
   midi.NoteOnEvent(tick=0, channel=9, data=[36, 127]),
   midi.NoteOnEvent(tick=60, channel=9, data=[36, 0]),
   midi.NoteOnEvent(tick=0, channel=9, data=[36, 127]),
   midi.NoteOnEvent(tick=60, channel=9, data=[59, 0]),
   midi.NoteOnEvent(tick=0, channel=9, data=[36, 0]),
   midi.NoteOnEvent(tick=0, channel=9, data=[38, 127]),
   midi.NoteOnEvent(tick=0, channel=9, data=[57, 127]),
   midi.NoteOnEvent(tick=120, channel=9, data=[38, 0]),
   midi.NoteOnEvent(tick=0, channel=9, data=[57, 0]),
   midi.NoteOnEvent(tick=0, channel=9, data=[59, 127]),
   midi.NoteOnEvent(tick=0, channel=9, data=[36, 127]),
   midi.NoteOnEvent(tick=120, channel=9, data=[59, 0]),
   midi.NoteOnEvent(tick=0, channel=9, data=[36, 0]),
   midi.NoteOnEvent(tick=0, channel=9, data=[59, 127]),
   midi.NoteOnEvent(tick=60, channel=9, data=[36, 127]),
   midi.NoteOnEvent(tick=60, channel=9, data=[59, 0]),
   midi.NoteOnEvent(tick=0, channel=9, data=[36, 0]),
   midi.NoteOnEvent(tick=0, channel=9, data=[59, 127]),
   midi.NoteOnEvent(tick=0, channel=9, data=[38, 127]),
   midi.NoteOnEvent(tick=0, channel=9, data=[36, 127]),
   midi.NoteOnEvent(tick=120, channel=9, data=[59, 0]),
   midi.NoteOnEvent(tick=0, channel=9, data=[38, 0]),
   midi.NoteOnEvent(tick=0, channel=9, data=[36, 0]),
   midi.NoteOnEvent(tick=0, channel=9, data=[59, 127]),
   midi.NoteOnEvent(tick=120, channel=9, data=[59, 0]),
   midi.NoteOnEvent(tick=0, channel=9, data=[36, 127]),
   midi.NoteOnEvent(tick=0, channel=9, data=[59, 127]),
   midi.NoteOnEvent(tick=120, channel=9, data=[36, 0]),
   midi.NoteOnEvent(tick=0, channel=9, data=[59, 0]),
   midi.NoteOnEvent(tick=0, channel=9, data=[59, 127]),
   midi.NoteOnEvent(tick=0, channel=9, data=[36, 127]),
   midi.NoteOnEvent(tick=60, channel=9, data=[36, 0]),
   midi.NoteOnEvent(tick=0, channel=9, data=[36, 127]),
   midi.NoteOnEvent(tick=60, channel=9, data=[59, 0]),
   midi.NoteOnEvent(tick=0, channel=9, data=[36, 0]),
   midi.NoteOnEvent(tick=0, channel=9, data=[38, 127]),
   midi.NoteOnEvent(tick=0, channel=9, data=[59, 127]),
   midi.NoteOnEvent(tick=120, channel=9, data=[38, 0]),
   midi.NoteOnEvent(tick=0, channel=9, data=[59, 0]),
   midi.NoteOnEvent(tick=0, channel=9, data=[59, 127]),
   midi.NoteOnEvent(tick=120, channel=9, data=[59, 0]),
   midi.NoteOnEvent(tick=0, channel=9, data=[36, 127]),
   midi.NoteOnEvent(tick=0, channel=9, data=[57, 127]),
   midi.NoteOnEvent(tick=60, channel=9, data=[36, 0]),
   midi.NoteOnEvent(tick=0, channel=9, data=[36, 127]),
   midi.NoteOnEvent(tick=60, channel=9, data=[57, 0]),
   midi.NoteOnEvent(tick=0, channel=9, data=[36, 0]),
   midi.NoteOnEvent(tick=0, channel=9, data=[38, 127]),
   midi.NoteOnEvent(tick=0, channel=9, data=[57, 127]),
   midi.NoteOnEvent(tick=120, channel=9, data=[38, 0]),
   midi.NoteOnEvent(tick=0, channel=9, data=[57, 0]),
   midi.NoteOnEvent(tick=0, channel=9, data=[36, 127]),
   midi.NoteOnEvent(tick=0, channel=9, data=[57, 127]),
   midi.NoteOnEvent(tick=60, channel=9, data=[36, 0]),
   midi.NoteOnEvent(tick=0, channel=9, data=[36, 127]),
   midi.NoteOnEvent(tick=60, channel=9, data=[57, 0]),
   midi.NoteOnEvent(tick=0, channel=9, data=[36, 0]),
   midi.NoteOnEvent(tick=0, channel=9, data=[38, 127]),
   midi.NoteOnEvent(tick=0, channel=9, data=[57, 127]),
   midi.NoteOnEvent(tick=120, channel=9, data=[38, 0]),
   midi.NoteOnEvent(tick=0, channel=9, data=[57, 0]),
   midi.NoteOnEvent(tick=0, channel=9, data=[36, 127]),
   midi.NoteOnEvent(tick=0, channel=9, data=[57, 127]),
   midi.NoteOnEvent(tick=120, channel=9, data=[36, 0]),
   midi.NoteOnEvent(tick=0, channel=9, data=[57, 0]),
   midi.NoteOnEvent(tick=360, channel=9, data=[36, 127]),
   midi.NoteOnEvent(tick=0, channel=9, data=[57, 127]),
   midi.NoteOnEvent(tick=120, channel=9, data=[36, 0]),
   midi.NoteOnEvent(tick=0, channel=9, data=[57, 0]),
   midi.NoteOnEvent(tick=0, channel=9, data=[42, 127]),
   midi.NoteOnEvent(tick=0, channel=9, data=[38, 127]),
   midi.NoteOnEvent(tick=120, channel=9, data=[42, 0]),
   midi.NoteOnEvent(tick=0, channel=9, data=[38, 0]),
   midi.NoteOnEvent(tick=0, channel=9, data=[42, 127]),
   midi.NoteOnEvent(tick=0, channel=9, data=[36, 127]),
   midi.NoteOnEvent(tick=60, channel=9, data=[36, 0]),
   midi.NoteOnEvent(tick=0, channel=9, data=[36, 127]),
   midi.NoteOnEvent(tick=60, channel=9, data=[42, 0]),
   midi.NoteOnEvent(tick=0, channel=9, data=[36, 0]),
   midi.NoteOnEvent(tick=0, channel=9, data=[38, 127]),
   midi.NoteOnEvent(tick=0, channel=9, data=[42, 127]),
   midi.NoteOnEvent(tick=120, channel=9, data=[38, 0]),
   midi.NoteOnEvent(tick=0, channel=9, data=[42, 0]),
   midi.NoteOnEvent(tick=0, channel=9, data=[42, 127]),
   midi.NoteOnEvent(tick=0, channel=9, data=[36, 127]),
   midi.NoteOnEvent(tick=60, channel=9, data=[36, 0]),
   midi.NoteOnEvent(tick=0, channel=9, data=[36, 127]),
   midi.NoteOnEvent(tick=60, channel=9, data=[42, 0]),
   midi.NoteOnEvent(tick=0, channel=9, data=[36, 0]),
   midi.NoteOnEvent(tick=0, channel=9, data=[38, 127]),
   midi.NoteOnEvent(tick=0, channel=9, data=[42, 127]),
   midi.NoteOnEvent(tick=120, channel=9, data=[38, 0]),
   midi.NoteOnEvent(tick=0, channel=9, data=[42, 0]),
   midi.NoteOnEvent(tick=0, channel=9, data=[42, 127]),
   midi.NoteOnEvent(tick=0, channel=9, data=[36, 127]),
   midi.NoteOnEvent(tick=60, channel=9, data=[36, 0]),
   midi.NoteOnEvent(tick=0, channel=9, data=[36, 127]),
   midi.NoteOnEvent(tick=60, channel=9, data=[42, 0]),
   midi.NoteOnEvent(tick=0, channel=9, data=[36, 0]),
   midi.NoteOnEvent(tick=0, channel=9, data=[57, 127]),
   midi.NoteOnEvent(tick=0, channel=9, data=[38, 127]),
   midi.NoteOnEvent(tick=120, channel=9, data=[57, 0]),
   midi.NoteOnEvent(tick=0, channel=9, data=[38, 0]),
   midi.NoteOnEvent(tick=0, channel=9, data=[42, 127]),
   midi.NoteOnEvent(tick=0, channel=9, data=[36, 127]),
   midi.NoteOnEvent(tick=60, channel=9, data=[36, 0]),
   midi.NoteOnEvent(tick=0, channel=9, data=[36, 127]),
   midi.NoteOnEvent(tick=60, channel=9, data=[42, 0]),
   midi.NoteOnEvent(tick=0, channel=9, data=[36, 0]),
   midi.NoteOnEvent(tick=0, channel=9, data=[38, 127]),
   midi.NoteOnEvent(tick=0, channel=9, data=[42, 127]),
   midi.NoteOnEvent(tick=120, channel=9, data=[38, 0]),
   midi.NoteOnEvent(tick=0, channel=9, data=[42, 0]),
   midi.NoteOnEvent(tick=0, channel=9, data=[42, 127]),
   midi.NoteOnEvent(tick=0, channel=9, data=[36, 127]),
   midi.NoteOnEvent(tick=60, channel=9, data=[36, 0]),
   midi.NoteOnEvent(tick=0, channel=9, data=[36, 127]),
   midi.NoteOnEvent(tick=60, channel=9, data=[42, 0]),
   midi.NoteOnEvent(tick=0, channel=9, data=[36, 0]),
   midi.NoteOnEvent(tick=0, channel=9, data=[38, 127]),
   midi.NoteOnEvent(tick=0, channel=9, data=[42, 127]),
   midi.NoteOnEvent(tick=120, channel=9, data=[38, 0]),
   midi.NoteOnEvent(tick=0, channel=9, data=[42, 0]),
   midi.NoteOnEvent(tick=0, channel=9, data=[42, 127]),
   midi.NoteOnEvent(tick=0, channel=9, data=[36, 127]),
   midi.NoteOnEvent(tick=60, channel=9, data=[36, 0]),
   midi.NoteOnEvent(tick=0, channel=9, data=[36, 127]),
   midi.NoteOnEvent(tick=60, channel=9, data=[42, 0]),
   midi.NoteOnEvent(tick=0, channel=9, data=[36, 0]),
   midi.NoteOnEvent(tick=0, channel=9, data=[38, 127]),
   midi.NoteOnEvent(tick=0, channel=9, data=[42, 127]),
   midi.NoteOnEvent(tick=120, channel=9, data=[38, 0]),
   midi.NoteOnEvent(tick=0, channel=9, data=[42, 0]),
   midi.NoteOnEvent(tick=0, channel=9, data=[57, 127]),
   midi.NoteOnEvent(tick=0, channel=9, data=[36, 127]),
   midi.NoteOnEvent(tick=120, channel=9, data=[57, 0]),
   midi.NoteOnEvent(tick=0, channel=9, data=[36, 0]),
   midi.NoteOnEvent(tick=0, channel=9, data=[57, 127]),
   midi.NoteOnEvent(tick=0, channel=9, data=[38, 127]),
   midi.NoteOnEvent(tick=120, channel=9, data=[57, 0]),
   midi.NoteOnEvent(tick=0, channel=9, data=[38, 0]),
   midi.NoteOnEvent(tick=0, channel=9, data=[36, 127]),
   midi.NoteOnEvent(tick=0, channel=9, data=[57, 127]),
   midi.NoteOnEvent(tick=120, channel=9, data=[36, 0]),
   midi.NoteOnEvent(tick=0, channel=9, data=[57, 0]),
   midi.NoteOnEvent(tick=0, channel=9, data=[42, 127]),
   midi.NoteOnEvent(tick=0, channel=9, data=[38, 127]),
   midi.NoteOnEvent(tick=120, channel=9, data=[42, 0]),
   midi.NoteOnEvent(tick=0, channel=9, data=[38, 0]),
   midi.NoteOnEvent(tick=0, channel=9, data=[42, 127]),
   midi.NoteOnEvent(tick=0, channel=9, data=[36, 127]),
   midi.NoteOnEvent(tick=60, channel=9, data=[36, 0]),
   midi.NoteOnEvent(tick=0, channel=9, data=[36, 127]),
   midi.NoteOnEvent(tick=60, channel=9, data=[42, 0]),
   midi.NoteOnEvent(tick=0, channel=9, data=[36, 0]),
   midi.NoteOnEvent(tick=0, channel=9, data=[38, 127]),
   midi.NoteOnEvent(tick=0, channel=9, data=[42, 127]),
   midi.NoteOnEvent(tick=120, channel=9, data=[38, 0]),
   midi.NoteOnEvent(tick=0, channel=9, data=[42, 0]),
   midi.NoteOnEvent(tick=0, channel=9, data=[42, 127]),
   midi.NoteOnEvent(tick=0, channel=9, data=[36, 127]),
   midi.NoteOnEvent(tick=60, channel=9, data=[36, 0]),
   midi.NoteOnEvent(tick=0, channel=9, data=[36, 127]),
   midi.NoteOnEvent(tick=60, channel=9, data=[42, 0]),
   midi.NoteOnEvent(tick=0, channel=9, data=[36, 0]),
   midi.NoteOnEvent(tick=0, channel=9, data=[38, 127]),
   midi.NoteOnEvent(tick=0, channel=9, data=[42, 127]),
   midi.NoteOnEvent(tick=120, channel=9, data=[38, 0]),
   midi.NoteOnEvent(tick=0, channel=9, data=[42, 0]),
   midi.NoteOnEvent(tick=0, channel=9, data=[42, 127]),
   midi.NoteOnEvent(tick=0, channel=9, data=[36, 127]),
   midi.NoteOnEvent(tick=60, channel=9, data=[36, 0]),
   midi.NoteOnEvent(tick=0, channel=9, data=[36, 127]),
   midi.NoteOnEvent(tick=60, channel=9, data=[42, 0]),
   midi.NoteOnEvent(tick=0, channel=9, data=[36, 0]),
   midi.NoteOnEvent(tick=0, channel=9, data=[57, 127]),
   midi.NoteOnEvent(tick=0, channel=9, data=[38, 127]),
   midi.NoteOnEvent(tick=120, channel=9, data=[57, 0]),
   midi.NoteOnEvent(tick=0, channel=9, data=[38, 0]),
   midi.NoteOnEvent(tick=0, channel=9, data=[42, 127]),
   midi.NoteOnEvent(tick=0, channel=9, data=[36, 127]),
   midi.NoteOnEvent(tick=60, channel=9, data=[36, 0]),
   midi.NoteOnEvent(tick=0, channel=9, data=[36, 127]),
   midi.NoteOnEvent(tick=60, channel=9, data=[42, 0]),
   midi.NoteOnEvent(tick=0, channel=9, data=[36, 0]),
   midi.NoteOnEvent(tick=0, channel=9, data=[38, 127]),
   midi.NoteOnEvent(tick=0, channel=9, data=[42, 127]),
   midi.NoteOnEvent(tick=120, channel=9, data=[38, 0]),
   midi.NoteOnEvent(tick=0, channel=9, data=[42, 0]),
   midi.NoteOnEvent(tick=0, channel=9, data=[42, 127]),
   midi.NoteOnEvent(tick=0, channel=9, data=[36, 127]),
   midi.NoteOnEvent(tick=60, channel=9, data=[36, 0]),
   midi.NoteOnEvent(tick=0, channel=9, data=[36, 127]),
   midi.NoteOnEvent(tick=60, channel=9, data=[42, 0]),
   midi.NoteOnEvent(tick=0, channel=9, data=[36, 0]),
   midi.NoteOnEvent(tick=0, channel=9, data=[38, 127]),
   midi.NoteOnEvent(tick=0, channel=9, data=[42, 127]),
   midi.NoteOnEvent(tick=120, channel=9, data=[38, 0]),
   midi.NoteOnEvent(tick=0, channel=9, data=[42, 0]),
   midi.NoteOnEvent(tick=0, channel=9, data=[42, 127]),
   midi.NoteOnEvent(tick=0, channel=9, data=[36, 127]),
   midi.NoteOnEvent(tick=60, channel=9, data=[36, 0]),
   midi.NoteOnEvent(tick=0, channel=9, data=[36, 127]),
   midi.NoteOnEvent(tick=60, channel=9, data=[42, 0]),
   midi.NoteOnEvent(tick=0, channel=9, data=[36, 0]),
   midi.NoteOnEvent(tick=0, channel=9, data=[38, 127]),
   midi.NoteOnEvent(tick=0, channel=9, data=[42, 127]),
   midi.NoteOnEvent(tick=120, channel=9, data=[38, 0]),
   midi.NoteOnEvent(tick=0, channel=9, data=[42, 0]),
   midi.NoteOnEvent(tick=0, channel=9, data=[57, 127]),
   midi.NoteOnEvent(tick=0, channel=9, data=[36, 127]),
   midi.NoteOnEvent(tick=120, channel=9, data=[57, 0]),
   midi.NoteOnEvent(tick=0, channel=9, data=[36, 0]),
   midi.NoteOnEvent(tick=0, channel=9, data=[57, 127]),
   midi.NoteOnEvent(tick=0, channel=9, data=[38, 127]),
   midi.NoteOnEvent(tick=120, channel=9, data=[57, 0]),
   midi.NoteOnEvent(tick=0, channel=9, data=[38, 0]),
   midi.NoteOnEvent(tick=0, channel=9, data=[36, 127]),
   midi.NoteOnEvent(tick=0, channel=9, data=[57, 127]),
   midi.NoteOnEvent(tick=120, channel=9, data=[36, 0]),
   midi.NoteOnEvent(tick=0, channel=9, data=[57, 0]),
   midi.NoteOnEvent(tick=0, channel=9, data=[42, 127]),
   midi.NoteOnEvent(tick=0, channel=9, data=[38, 127]),
   midi.NoteOnEvent(tick=120, channel=9, data=[42, 0]),
   midi.NoteOnEvent(tick=0, channel=9, data=[38, 0]),
   midi.NoteOnEvent(tick=0, channel=9, data=[42, 127]),
   midi.NoteOnEvent(tick=0, channel=9, data=[36, 127]),
   midi.NoteOnEvent(tick=60, channel=9, data=[36, 0]),
   midi.NoteOnEvent(tick=0, channel=9, data=[36, 127]),
   midi.NoteOnEvent(tick=60, channel=9, data=[42, 0]),
   midi.NoteOnEvent(tick=0, channel=9, data=[36, 0]),
   midi.NoteOnEvent(tick=0, channel=9, data=[38, 127]),
   midi.NoteOnEvent(tick=0, channel=9, data=[42, 127]),
   midi.NoteOnEvent(tick=120, channel=9, data=[38, 0]),
   midi.NoteOnEvent(tick=0, channel=9, data=[42, 0]),
   midi.NoteOnEvent(tick=0, channel=9, data=[42, 127]),
   midi.NoteOnEvent(tick=0, channel=9, data=[36, 127]),
   midi.NoteOnEvent(tick=60, channel=9, data=[36, 0]),
   midi.NoteOnEvent(tick=0, channel=9, data=[36, 127]),
   midi.NoteOnEvent(tick=60, channel=9, data=[42, 0]),
   midi.NoteOnEvent(tick=0, channel=9, data=[36, 0]),
   midi.NoteOnEvent(tick=0, channel=9, data=[38, 127]),
   midi.NoteOnEvent(tick=0, channel=9, data=[42, 127]),
   midi.NoteOnEvent(tick=120, channel=9, data=[38, 0]),
   midi.NoteOnEvent(tick=0, channel=9, data=[42, 0]),
   midi.NoteOnEvent(tick=0, channel=9, data=[42, 127]),
   midi.NoteOnEvent(tick=0, channel=9, data=[36, 127]),
   midi.NoteOnEvent(tick=60, channel=9, data=[36, 0]),
   midi.NoteOnEvent(tick=0, channel=9, data=[36, 127]),
   midi.NoteOnEvent(tick=60, channel=9, data=[42, 0]),
   midi.NoteOnEvent(tick=0, channel=9, data=[36, 0]),
   midi.NoteOnEvent(tick=0, channel=9, data=[57, 127]),
   midi.NoteOnEvent(tick=0, channel=9, data=[38, 127]),
   midi.NoteOnEvent(tick=120, channel=9, data=[57, 0]),
   midi.NoteOnEvent(tick=0, channel=9, data=[38, 0]),
   midi.NoteOnEvent(tick=0, channel=9, data=[42, 127]),
   midi.NoteOnEvent(tick=0, channel=9, data=[36, 127]),
   midi.NoteOnEvent(tick=60, channel=9, data=[36, 0]),
   midi.NoteOnEvent(tick=0, channel=9, data=[36, 127]),
   midi.NoteOnEvent(tick=60, channel=9, data=[42, 0]),
   midi.NoteOnEvent(tick=0, channel=9, data=[36, 0]),
   midi.NoteOnEvent(tick=0, channel=9, data=[38, 127]),
   midi.NoteOnEvent(tick=0, channel=9, data=[42, 127]),
   midi.NoteOnEvent(tick=120, channel=9, data=[38, 0]),
   midi.NoteOnEvent(tick=0, channel=9, data=[42, 0]),
   midi.NoteOnEvent(tick=0, channel=9, data=[42, 127]),
   midi.NoteOnEvent(tick=0, channel=9, data=[36, 127]),
   midi.NoteOnEvent(tick=60, channel=9, data=[36, 0]),
   midi.NoteOnEvent(tick=0, channel=9, data=[36, 127]),
   midi.NoteOnEvent(tick=60, channel=9, data=[42, 0]),
   midi.NoteOnEvent(tick=0, channel=9, data=[36, 0]),
   midi.NoteOnEvent(tick=0, channel=9, data=[38, 127]),
   midi.NoteOnEvent(tick=0, channel=9, data=[42, 127]),
   midi.NoteOnEvent(tick=120, channel=9, data=[38, 0]),
   midi.NoteOnEvent(tick=0, channel=9, data=[42, 0]),
   midi.NoteOnEvent(tick=0, channel=9, data=[42, 127]),
   midi.NoteOnEvent(tick=0, channel=9, data=[36, 127]),
   midi.NoteOnEvent(tick=60, channel=9, data=[36, 0]),
   midi.NoteOnEvent(tick=0, channel=9, data=[36, 127]),
   midi.NoteOnEvent(tick=60, channel=9, data=[42, 0]),
   midi.NoteOnEvent(tick=0, channel=9, data=[36, 0]),
   midi.NoteOnEvent(tick=0, channel=9, data=[38, 127]),
   midi.NoteOnEvent(tick=0, channel=9, data=[42, 127]),
   midi.NoteOnEvent(tick=120, channel=9, data=[38, 0]),
   midi.NoteOnEvent(tick=0, channel=9, data=[42, 0]),
   midi.NoteOnEvent(tick=0, channel=9, data=[57, 127]),
   midi.NoteOnEvent(tick=0, channel=9, data=[36, 127]),
   midi.NoteOnEvent(tick=120, channel=9, data=[57, 0]),
   midi.NoteOnEvent(tick=0, channel=9, data=[36, 0]),
   midi.NoteOnEvent(tick=0, channel=9, data=[57, 127]),
   midi.NoteOnEvent(tick=0, channel=9, data=[38, 127]),
   midi.NoteOnEvent(tick=120, channel=9, data=[57, 0]),
   midi.NoteOnEvent(tick=0, channel=9, data=[38, 0]),
   midi.NoteOnEvent(tick=0, channel=9, data=[36, 127]),
   midi.NoteOnEvent(tick=0, channel=9, data=[57, 127]),
   midi.NoteOnEvent(tick=120, channel=9, data=[36, 0]),
   midi.NoteOnEvent(tick=0, channel=9, data=[57, 0]),
   midi.NoteOnEvent(tick=0, channel=9, data=[42, 127]),
   midi.NoteOnEvent(tick=0, channel=9, data=[38, 127]),
   midi.NoteOnEvent(tick=120, channel=9, data=[42, 0]),
   midi.NoteOnEvent(tick=0, channel=9, data=[38, 0]),
   midi.NoteOnEvent(tick=0, channel=9, data=[42, 127]),
   midi.NoteOnEvent(tick=0, channel=9, data=[36, 127]),
   midi.NoteOnEvent(tick=60, channel=9, data=[36, 0]),
   midi.NoteOnEvent(tick=0, channel=9, data=[36, 127]),
   midi.NoteOnEvent(tick=60, channel=9, data=[42, 0]),
   midi.NoteOnEvent(tick=0, channel=9, data=[36, 0]),
   midi.NoteOnEvent(tick=0, channel=9, data=[38, 127]),
   midi.NoteOnEvent(tick=0, channel=9, data=[42, 127]),
   midi.NoteOnEvent(tick=120, channel=9, data=[38, 0]),
   midi.NoteOnEvent(tick=0, channel=9, data=[42, 0]),
   midi.NoteOnEvent(tick=0, channel=9, data=[42, 127]),
   midi.NoteOnEvent(tick=0, channel=9, data=[36, 127]),
   midi.NoteOnEvent(tick=60, channel=9, data=[36, 0]),
   midi.NoteOnEvent(tick=0, channel=9, data=[36, 127]),
   midi.NoteOnEvent(tick=60, channel=9, data=[42, 0]),
   midi.NoteOnEvent(tick=0, channel=9, data=[36, 0]),
   midi.NoteOnEvent(tick=0, channel=9, data=[38, 127]),
   midi.NoteOnEvent(tick=0, channel=9, data=[42, 127]),
   midi.NoteOnEvent(tick=120, channel=9, data=[38, 0]),
   midi.NoteOnEvent(tick=0, channel=9, data=[42, 0]),
   midi.NoteOnEvent(tick=0, channel=9, data=[42, 127]),
   midi.NoteOnEvent(tick=0, channel=9, data=[36, 127]),
   midi.NoteOnEvent(tick=60, channel=9, data=[36, 0]),
   midi.NoteOnEvent(tick=0, channel=9, data=[36, 127]),
   midi.NoteOnEvent(tick=60, channel=9, data=[42, 0]),
   midi.NoteOnEvent(tick=0, channel=9, data=[36, 0]),
   midi.NoteOnEvent(tick=0, channel=9, data=[57, 127]),
   midi.NoteOnEvent(tick=0, channel=9, data=[38, 127]),
   midi.NoteOnEvent(tick=120, channel=9, data=[57, 0]),
   midi.NoteOnEvent(tick=0, channel=9, data=[38, 0]),
   midi.NoteOnEvent(tick=0, channel=9, data=[42, 127]),
   midi.NoteOnEvent(tick=0, channel=9, data=[36, 127]),
   midi.NoteOnEvent(tick=60, channel=9, data=[36, 0]),
   midi.NoteOnEvent(tick=0, channel=9, data=[36, 127]),
   midi.NoteOnEvent(tick=60, channel=9, data=[42, 0]),
   midi.NoteOnEvent(tick=0, channel=9, data=[36, 0]),
   midi.NoteOnEvent(tick=0, channel=9, data=[38, 127]),
   midi.NoteOnEvent(tick=0, channel=9, data=[42, 127]),
   midi.NoteOnEvent(tick=120, channel=9, data=[38, 0]),
   midi.NoteOnEvent(tick=0, channel=9, data=[42, 0]),
   midi.NoteOnEvent(tick=0, channel=9, data=[42, 127]),
   midi.NoteOnEvent(tick=0, channel=9, data=[36, 127]),
   midi.NoteOnEvent(tick=60, channel=9, data=[36, 0]),
   midi.NoteOnEvent(tick=0, channel=9, data=[36, 127]),
   midi.NoteOnEvent(tick=60, channel=9, data=[42, 0]),
   midi.NoteOnEvent(tick=0, channel=9, data=[36, 0]),
   midi.NoteOnEvent(tick=0, channel=9, data=[38, 127]),
   midi.NoteOnEvent(tick=0, channel=9, data=[42, 127]),
   midi.NoteOnEvent(tick=60, channel=9, data=[36, 127]),
   midi.NoteOnEvent(tick=20, channel=9, data=[36, 0]),
   midi.NoteOnEvent(tick=0, channel=9, data=[36, 127]),
   midi.NoteOnEvent(tick=20, channel=9, data=[36, 0]),
   midi.NoteOnEvent(tick=0, channel=9, data=[36, 127]),
   midi.NoteOnEvent(tick=20, channel=9, data=[38, 0]),
   midi.NoteOnEvent(tick=0, channel=9, data=[42, 0]),
   midi.NoteOnEvent(tick=0, channel=9, data=[36, 0]),
   midi.NoteOnEvent(tick=0, channel=9, data=[57, 127]),
   midi.NoteOnEvent(tick=0, channel=9, data=[38, 127]),
   midi.NoteOnEvent(tick=60, channel=9, data=[36, 127]),
   midi.NoteOnEvent(tick=20, channel=9, data=[36, 0]),
   midi.NoteOnEvent(tick=0, channel=9, data=[36, 127]),
   midi.NoteOnEvent(tick=20, channel=9, data=[36, 0]),
   midi.NoteOnEvent(tick=0, channel=9, data=[36, 127]),
   midi.NoteOnEvent(tick=20, channel=9, data=[57, 0]),
   midi.NoteOnEvent(tick=0, channel=9, data=[38, 0]),
   midi.NoteOnEvent(tick=0, channel=9, data=[36, 0]),
   midi.NoteOnEvent(tick=0, channel=9, data=[57, 127]),
   midi.NoteOnEvent(tick=0, channel=9, data=[38, 127]),
   midi.NoteOnEvent(tick=60, channel=9, data=[36, 127]),
   midi.NoteOnEvent(tick=20, channel=9, data=[36, 0]),
   midi.NoteOnEvent(tick=0, channel=9, data=[36, 127]),
   midi.NoteOnEvent(tick=20, channel=9, data=[36, 0]),
   midi.NoteOnEvent(tick=0, channel=9, data=[36, 127]),
   midi.NoteOnEvent(tick=20, channel=9, data=[57, 0]),
   midi.NoteOnEvent(tick=0, channel=9, data=[38, 0]),
   midi.NoteOnEvent(tick=0, channel=9, data=[36, 0]),
   midi.NoteOnEvent(tick=0, channel=9, data=[57, 127]),
   midi.NoteOnEvent(tick=0, channel=9, data=[38, 127]),
   midi.NoteOnEvent(tick=60, channel=9, data=[36, 127]),
   midi.NoteOnEvent(tick=20, channel=9, data=[36, 0]),
   midi.NoteOnEvent(tick=0, channel=9, data=[36, 127]),
   midi.NoteOnEvent(tick=20, channel=9, data=[36, 0]),
   midi.NoteOnEvent(tick=0, channel=9, data=[36, 127]),
   midi.NoteOnEvent(tick=20, channel=9, data=[57, 0]),
   midi.NoteOnEvent(tick=0, channel=9, data=[38, 0]),
   midi.NoteOnEvent(tick=0, channel=9, data=[36, 0]),
   midi.NoteOnEvent(tick=0, channel=9, data=[38, 127]),
   midi.NoteOnEvent(tick=0, channel=9, data=[57, 127]),
   midi.NoteOnEvent(tick=120, channel=9, data=[38, 0]),
   midi.NoteOnEvent(tick=0, channel=9, data=[57, 0]),
   midi.NoteOnEvent(tick=0, channel=9, data=[36, 127]),
   midi.NoteOnEvent(tick=0, channel=9, data=[57, 127]),
   midi.NoteOnEvent(tick=120, channel=9, data=[36, 0]),
   midi.NoteOnEvent(tick=0, channel=9, data=[57, 0]),
   midi.NoteOnEvent(tick=0, channel=9, data=[42, 127]),
   midi.NoteOnEvent(tick=0, channel=9, data=[38, 127]),
   midi.NoteOnEvent(tick=120, channel=9, data=[42, 0]),
   midi.NoteOnEvent(tick=0, channel=9, data=[38, 0]),
   midi.NoteOnEvent(tick=0, channel=9, data=[42, 127]),
   midi.NoteOnEvent(tick=0, channel=9, data=[36, 127]),
   midi.NoteOnEvent(tick=60, channel=9, data=[36, 0]),
   midi.NoteOnEvent(tick=0, channel=9, data=[36, 127]),
   midi.NoteOnEvent(tick=60, channel=9, data=[42, 0]),
   midi.NoteOnEvent(tick=0, channel=9, data=[36, 0]),
   midi.NoteOnEvent(tick=0, channel=9, data=[38, 127]),
   midi.NoteOnEvent(tick=0, channel=9, data=[42, 127]),
   midi.NoteOnEvent(tick=120, channel=9, data=[38, 0]),
   midi.NoteOnEvent(tick=0, channel=9, data=[42, 0]),
   midi.NoteOnEvent(tick=0, channel=9, data=[42, 127]),
   midi.NoteOnEvent(tick=0, channel=9, data=[36, 127]),
   midi.NoteOnEvent(tick=60, channel=9, data=[36, 0]),
   midi.NoteOnEvent(tick=0, channel=9, data=[36, 127]),
   midi.NoteOnEvent(tick=60, channel=9, data=[42, 0]),
   midi.NoteOnEvent(tick=0, channel=9, data=[36, 0]),
   midi.NoteOnEvent(tick=0, channel=9, data=[38, 127]),
   midi.NoteOnEvent(tick=0, channel=9, data=[42, 127]),
   midi.NoteOnEvent(tick=120, channel=9, data=[38, 0]),
   midi.NoteOnEvent(tick=0, channel=9, data=[42, 0]),
   midi.NoteOnEvent(tick=0, channel=9, data=[42, 127]),
   midi.NoteOnEvent(tick=0, channel=9, data=[36, 127]),
   midi.NoteOnEvent(tick=60, channel=9, data=[36, 0]),
   midi.NoteOnEvent(tick=0, channel=9, data=[36, 127]),
   midi.NoteOnEvent(tick=60, channel=9, data=[42, 0]),
   midi.NoteOnEvent(tick=0, channel=9, data=[36, 0]),
   midi.NoteOnEvent(tick=0, channel=9, data=[57, 127]),
   midi.NoteOnEvent(tick=0, channel=9, data=[38, 127]),
   midi.NoteOnEvent(tick=120, channel=9, data=[57, 0]),
   midi.NoteOnEvent(tick=0, channel=9, data=[38, 0]),
   midi.NoteOnEvent(tick=0, channel=9, data=[42, 127]),
   midi.NoteOnEvent(tick=0, channel=9, data=[36, 127]),
   midi.NoteOnEvent(tick=60, channel=9, data=[36, 0]),
   midi.NoteOnEvent(tick=0, channel=9, data=[36, 127]),
   midi.NoteOnEvent(tick=60, channel=9, data=[42, 0]),
   midi.NoteOnEvent(tick=0, channel=9, data=[36, 0]),
   midi.NoteOnEvent(tick=0, channel=9, data=[38, 127]),
   midi.NoteOnEvent(tick=0, channel=9, data=[42, 127]),
   midi.NoteOnEvent(tick=120, channel=9, data=[38, 0]),
   midi.NoteOnEvent(tick=0, channel=9, data=[42, 0]),
   midi.NoteOnEvent(tick=0, channel=9, data=[42, 127]),
   midi.NoteOnEvent(tick=0, channel=9, data=[36, 127]),
   midi.NoteOnEvent(tick=60, channel=9, data=[36, 0]),
   midi.NoteOnEvent(tick=0, channel=9, data=[36, 127]),
   midi.NoteOnEvent(tick=60, channel=9, data=[42, 0]),
   midi.NoteOnEvent(tick=0, channel=9, data=[36, 0]),
   midi.NoteOnEvent(tick=0, channel=9, data=[38, 127]),
   midi.NoteOnEvent(tick=0, channel=9, data=[42, 127]),
   midi.NoteOnEvent(tick=120, channel=9, data=[38, 0]),
   midi.NoteOnEvent(tick=0, channel=9, data=[42, 0]),
   midi.NoteOnEvent(tick=0, channel=9, data=[42, 127]),
   midi.NoteOnEvent(tick=0, channel=9, data=[36, 127]),
   midi.NoteOnEvent(tick=60, channel=9, data=[36, 0]),
   midi.NoteOnEvent(tick=0, channel=9, data=[36, 127]),
   midi.NoteOnEvent(tick=60, channel=9, data=[42, 0]),
   midi.NoteOnEvent(tick=0, channel=9, data=[36, 0]),
   midi.NoteOnEvent(tick=0, channel=9, data=[38, 127]),
   midi.NoteOnEvent(tick=0, channel=9, data=[42, 127]),
   midi.NoteOnEvent(tick=120, channel=9, data=[38, 0]),
   midi.NoteOnEvent(tick=0, channel=9, data=[42, 0]),
   midi.NoteOnEvent(tick=0, channel=9, data=[57, 127]),
   midi.NoteOnEvent(tick=0, channel=9, data=[36, 127]),
   midi.NoteOnEvent(tick=120, channel=9, data=[57, 0]),
   midi.NoteOnEvent(tick=0, channel=9, data=[36, 0]),
   midi.NoteOnEvent(tick=0, channel=9, data=[57, 127]),
   midi.NoteOnEvent(tick=0, channel=9, data=[38, 127]),
   midi.NoteOnEvent(tick=120, channel=9, data=[57, 0]),
   midi.NoteOnEvent(tick=0, channel=9, data=[38, 0]),
   midi.NoteOnEvent(tick=0, channel=9, data=[36, 127]),
   midi.NoteOnEvent(tick=0, channel=9, data=[57, 127]),
   midi.NoteOnEvent(tick=120, channel=9, data=[36, 0]),
   midi.NoteOnEvent(tick=0, channel=9, data=[57, 0]),
   midi.NoteOnEvent(tick=0, channel=9, data=[42, 127]),
   midi.NoteOnEvent(tick=0, channel=9, data=[38, 127]),
   midi.NoteOnEvent(tick=120, channel=9, data=[42, 0]),
   midi.NoteOnEvent(tick=0, channel=9, data=[38, 0]),
   midi.NoteOnEvent(tick=0, channel=9, data=[42, 127]),
   midi.NoteOnEvent(tick=0, channel=9, data=[36, 127]),
   midi.NoteOnEvent(tick=60, channel=9, data=[36, 0]),
   midi.NoteOnEvent(tick=0, channel=9, data=[36, 127]),
   midi.NoteOnEvent(tick=60, channel=9, data=[42, 0]),
   midi.NoteOnEvent(tick=0, channel=9, data=[36, 0]),
   midi.NoteOnEvent(tick=0, channel=9, data=[38, 127]),
   midi.NoteOnEvent(tick=0, channel=9, data=[42, 127]),
   midi.NoteOnEvent(tick=120, channel=9, data=[38, 0]),
   midi.NoteOnEvent(tick=0, channel=9, data=[42, 0]),
   midi.NoteOnEvent(tick=0, channel=9, data=[42, 127]),
   midi.NoteOnEvent(tick=0, channel=9, data=[36, 127]),
   midi.NoteOnEvent(tick=60, channel=9, data=[36, 0]),
   midi.NoteOnEvent(tick=0, channel=9, data=[36, 127]),
   midi.NoteOnEvent(tick=60, channel=9, data=[42, 0]),
   midi.NoteOnEvent(tick=0, channel=9, data=[36, 0]),
   midi.NoteOnEvent(tick=0, channel=9, data=[38, 127]),
   midi.NoteOnEvent(tick=0, channel=9, data=[42, 127]),
   midi.NoteOnEvent(tick=120, channel=9, data=[38, 0]),
   midi.NoteOnEvent(tick=0, channel=9, data=[42, 0]),
   midi.NoteOnEvent(tick=0, channel=9, data=[42, 127]),
   midi.NoteOnEvent(tick=0, channel=9, data=[36, 127]),
   midi.NoteOnEvent(tick=60, channel=9, data=[36, 0]),
   midi.NoteOnEvent(tick=0, channel=9, data=[36, 127]),
   midi.NoteOnEvent(tick=60, channel=9, data=[42, 0]),
   midi.NoteOnEvent(tick=0, channel=9, data=[36, 0]),
   midi.NoteOnEvent(tick=0, channel=9, data=[57, 127]),
   midi.NoteOnEvent(tick=0, channel=9, data=[38, 127]),
   midi.NoteOnEvent(tick=120, channel=9, data=[57, 0]),
   midi.NoteOnEvent(tick=0, channel=9, data=[38, 0]),
   midi.NoteOnEvent(tick=0, channel=9, data=[42, 127]),
   midi.NoteOnEvent(tick=0, channel=9, data=[36, 127]),
   midi.NoteOnEvent(tick=60, channel=9, data=[36, 0]),
   midi.NoteOnEvent(tick=0, channel=9, data=[36, 127]),
   midi.NoteOnEvent(tick=60, channel=9, data=[42, 0]),
   midi.NoteOnEvent(tick=0, channel=9, data=[36, 0]),
   midi.NoteOnEvent(tick=0, channel=9, data=[38, 127]),
   midi.NoteOnEvent(tick=0, channel=9, data=[42, 127]),
   midi.NoteOnEvent(tick=120, channel=9, data=[38, 0]),
   midi.NoteOnEvent(tick=0, channel=9, data=[42, 0]),
   midi.NoteOnEvent(tick=0, channel=9, data=[42, 127]),
   midi.NoteOnEvent(tick=0, channel=9, data=[36, 127]),
   midi.NoteOnEvent(tick=60, channel=9, data=[36, 0]),
   midi.NoteOnEvent(tick=0, channel=9, data=[36, 127]),
   midi.NoteOnEvent(tick=60, channel=9, data=[42, 0]),
   midi.NoteOnEvent(tick=0, channel=9, data=[36, 0]),
   midi.NoteOnEvent(tick=0, channel=9, data=[38, 127]),
   midi.NoteOnEvent(tick=0, channel=9, data=[42, 127]),
   midi.NoteOnEvent(tick=120, channel=9, data=[38, 0]),
   midi.NoteOnEvent(tick=0, channel=9, data=[42, 0]),
   midi.NoteOnEvent(tick=0, channel=9, data=[42, 127]),
   midi.NoteOnEvent(tick=0, channel=9, data=[36, 127]),
   midi.NoteOnEvent(tick=60, channel=9, data=[36, 0]),
   midi.NoteOnEvent(tick=0, channel=9, data=[36, 127]),
   midi.NoteOnEvent(tick=60, channel=9, data=[42, 0]),
   midi.NoteOnEvent(tick=0, channel=9, data=[36, 0]),
   midi.NoteOnEvent(tick=0, channel=9, data=[38, 127]),
   midi.NoteOnEvent(tick=0, channel=9, data=[42, 127]),
   midi.NoteOnEvent(tick=60, channel=9, data=[36, 127]),
   midi.NoteOnEvent(tick=60, channel=9, data=[38, 0]),
   midi.NoteOnEvent(tick=0, channel=9, data=[42, 0]),
   midi.NoteOnEvent(tick=0, channel=9, data=[36, 0]),
   midi.NoteOnEvent(tick=0, channel=9, data=[38, 127]),
   midi.NoteOnEvent(tick=0, channel=9, data=[57, 127]),
   midi.NoteOnEvent(tick=0, channel=9, data=[36, 127]),
   midi.NoteOnEvent(tick=60, channel=9, data=[36, 0]),
   midi.NoteOnEvent(tick=0, channel=9, data=[36, 127]),
   midi.NoteOnEvent(tick=60, channel=9, data=[38, 0]),
   midi.NoteOnEvent(tick=0, channel=9, data=[57, 0]),
   midi.NoteOnEvent(tick=0, channel=9, data=[36, 0]),
   midi.NoteOnEvent(tick=0, channel=9, data=[36, 127]),
   midi.NoteOnEvent(tick=0, channel=9, data=[57, 127]),
   midi.NoteOnEvent(tick=0, channel=9, data=[38, 127]),
   midi.NoteOnEvent(tick=120, channel=9, data=[36, 0]),
   midi.NoteOnEvent(tick=0, channel=9, data=[57, 0]),
   midi.NoteOnEvent(tick=0, channel=9, data=[38, 0]),
   midi.NoteOnEvent(tick=0, channel=9, data=[36, 127]),
   midi.NoteOnEvent(tick=0, channel=9, data=[57, 127]),
   midi.NoteOnEvent(tick=120, channel=9, data=[36, 0]),
   midi.NoteOnEvent(tick=0, channel=9, data=[57, 0]),
   midi.NoteOnEvent(tick=0, channel=9, data=[42, 127]),
   midi.NoteOnEvent(tick=0, channel=9, data=[38, 127]),
   midi.NoteOnEvent(tick=120, channel=9, data=[42, 0]),
   midi.NoteOnEvent(tick=0, channel=9, data=[38, 0]),
   midi.NoteOnEvent(tick=0, channel=9, data=[42, 127]),
   midi.NoteOnEvent(tick=0, channel=9, data=[36, 127]),
   midi.NoteOnEvent(tick=60, channel=9, data=[36, 0]),
   midi.NoteOnEvent(tick=0, channel=9, data=[36, 127]),
   midi.NoteOnEvent(tick=60, channel=9, data=[42, 0]),
   midi.NoteOnEvent(tick=0, channel=9, data=[36, 0]),
   midi.NoteOnEvent(tick=0, channel=9, data=[38, 127]),
   midi.NoteOnEvent(tick=0, channel=9, data=[42, 127]),
   midi.NoteOnEvent(tick=120, channel=9, data=[38, 0]),
   midi.NoteOnEvent(tick=0, channel=9, data=[42, 0]),
   midi.NoteOnEvent(tick=0, channel=9, data=[42, 127]),
   midi.NoteOnEvent(tick=0, channel=9, data=[36, 127]),
   midi.NoteOnEvent(tick=60, channel=9, data=[36, 0]),
   midi.NoteOnEvent(tick=0, channel=9, data=[36, 127]),
   midi.NoteOnEvent(tick=60, channel=9, data=[42, 0]),
   midi.NoteOnEvent(tick=0, channel=9, data=[36, 0]),
   midi.NoteOnEvent(tick=0, channel=9, data=[38, 127]),
   midi.NoteOnEvent(tick=0, channel=9, data=[42, 127]),
   midi.NoteOnEvent(tick=120, channel=9, data=[38, 0]),
   midi.NoteOnEvent(tick=0, channel=9, data=[42, 0]),
   midi.NoteOnEvent(tick=0, channel=9, data=[42, 127]),
   midi.NoteOnEvent(tick=0, channel=9, data=[36, 127]),
   midi.NoteOnEvent(tick=60, channel=9, data=[36, 0]),
   midi.NoteOnEvent(tick=0, channel=9, data=[36, 127]),
   midi.NoteOnEvent(tick=60, channel=9, data=[42, 0]),
   midi.NoteOnEvent(tick=0, channel=9, data=[36, 0]),
   midi.NoteOnEvent(tick=0, channel=9, data=[57, 127]),
   midi.NoteOnEvent(tick=0, channel=9, data=[38, 127]),
   midi.NoteOnEvent(tick=120, channel=9, data=[57, 0]),
   midi.NoteOnEvent(tick=0, channel=9, data=[38, 0]),
   midi.NoteOnEvent(tick=0, channel=9, data=[42, 127]),
   midi.NoteOnEvent(tick=0, channel=9, data=[36, 127]),
   midi.NoteOnEvent(tick=60, channel=9, data=[36, 0]),
   midi.NoteOnEvent(tick=0, channel=9, data=[36, 127]),
   midi.NoteOnEvent(tick=60, channel=9, data=[42, 0]),
   midi.NoteOnEvent(tick=0, channel=9, data=[36, 0]),
   midi.NoteOnEvent(tick=0, channel=9, data=[38, 127]),
   midi.NoteOnEvent(tick=0, channel=9, data=[42, 127]),
   midi.NoteOnEvent(tick=120, channel=9, data=[38, 0]),
   midi.NoteOnEvent(tick=0, channel=9, data=[42, 0]),
   midi.NoteOnEvent(tick=0, channel=9, data=[42, 127]),
   midi.NoteOnEvent(tick=0, channel=9, data=[36, 127]),
   midi.NoteOnEvent(tick=60, channel=9, data=[36, 0]),
   midi.NoteOnEvent(tick=0, channel=9, data=[36, 127]),
   midi.NoteOnEvent(tick=60, channel=9, data=[42, 0]),
   midi.NoteOnEvent(tick=0, channel=9, data=[36, 0]),
   midi.NoteOnEvent(tick=0, channel=9, data=[38, 127]),
   midi.NoteOnEvent(tick=0, channel=9, data=[42, 127]),
   midi.NoteOnEvent(tick=120, channel=9, data=[38, 0]),
   midi.NoteOnEvent(tick=0, channel=9, data=[42, 0]),
   midi.NoteOnEvent(tick=0, channel=9, data=[42, 127]),
   midi.NoteOnEvent(tick=0, channel=9, data=[36, 127]),
   midi.NoteOnEvent(tick=60, channel=9, data=[36, 0]),
   midi.NoteOnEvent(tick=0, channel=9, data=[36, 127]),
   midi.NoteOnEvent(tick=60, channel=9, data=[42, 0]),
   midi.NoteOnEvent(tick=0, channel=9, data=[36, 0]),
   midi.NoteOnEvent(tick=0, channel=9, data=[38, 127]),
   midi.NoteOnEvent(tick=0, channel=9, data=[42, 127]),
   midi.NoteOnEvent(tick=120, channel=9, data=[38, 0]),
   midi.NoteOnEvent(tick=0, channel=9, data=[42, 0]),
   midi.NoteOnEvent(tick=0, channel=9, data=[57, 127]),
   midi.NoteOnEvent(tick=0, channel=9, data=[36, 127]),
   midi.NoteOnEvent(tick=120, channel=9, data=[57, 0]),
   midi.NoteOnEvent(tick=0, channel=9, data=[36, 0]),
   midi.NoteOnEvent(tick=0, channel=9, data=[57, 127]),
   midi.NoteOnEvent(tick=0, channel=9, data=[38, 127]),
   midi.NoteOnEvent(tick=120, channel=9, data=[57, 0]),
   midi.NoteOnEvent(tick=0, channel=9, data=[38, 0]),
   midi.NoteOnEvent(tick=0, channel=9, data=[36, 127]),
   midi.NoteOnEvent(tick=0, channel=9, data=[57, 127]),
   midi.NoteOnEvent(tick=120, channel=9, data=[36, 0]),
   midi.NoteOnEvent(tick=0, channel=9, data=[57, 0]),
   midi.NoteOnEvent(tick=0, channel=9, data=[42, 127]),
   midi.NoteOnEvent(tick=0, channel=9, data=[38, 127]),
   midi.NoteOnEvent(tick=120, channel=9, data=[42, 0]),
   midi.NoteOnEvent(tick=0, channel=9, data=[38, 0]),
   midi.NoteOnEvent(tick=0, channel=9, data=[42, 127]),
   midi.NoteOnEvent(tick=0, channel=9, data=[36, 127]),
   midi.NoteOnEvent(tick=60, channel=9, data=[36, 0]),
   midi.NoteOnEvent(tick=0, channel=9, data=[36, 127]),
   midi.NoteOnEvent(tick=60, channel=9, data=[42, 0]),
   midi.NoteOnEvent(tick=0, channel=9, data=[36, 0]),
   midi.NoteOnEvent(tick=0, channel=9, data=[38, 127]),
   midi.NoteOnEvent(tick=0, channel=9, data=[42, 127]),
   midi.NoteOnEvent(tick=120, channel=9, data=[38, 0]),
   midi.NoteOnEvent(tick=0, channel=9, data=[42, 0]),
   midi.NoteOnEvent(tick=0, channel=9, data=[42, 127]),
   midi.NoteOnEvent(tick=0, channel=9, data=[36, 127]),
   midi.NoteOnEvent(tick=60, channel=9, data=[36, 0]),
   midi.NoteOnEvent(tick=0, channel=9, data=[36, 127]),
   midi.NoteOnEvent(tick=60, channel=9, data=[42, 0]),
   midi.NoteOnEvent(tick=0, channel=9, data=[36, 0]),
   midi.NoteOnEvent(tick=0, channel=9, data=[38, 127]),
   midi.NoteOnEvent(tick=0, channel=9, data=[42, 127]),
   midi.NoteOnEvent(tick=120, channel=9, data=[38, 0]),
   midi.NoteOnEvent(tick=0, channel=9, data=[42, 0]),
   midi.NoteOnEvent(tick=0, channel=9, data=[42, 127]),
   midi.NoteOnEvent(tick=0, channel=9, data=[36, 127]),
   midi.NoteOnEvent(tick=60, channel=9, data=[36, 0]),
   midi.NoteOnEvent(tick=0, channel=9, data=[36, 127]),
   midi.NoteOnEvent(tick=60, channel=9, data=[42, 0]),
   midi.NoteOnEvent(tick=0, channel=9, data=[36, 0]),
   midi.NoteOnEvent(tick=0, channel=9, data=[57, 127]),
   midi.NoteOnEvent(tick=0, channel=9, data=[38, 127]),
   midi.NoteOnEvent(tick=120, channel=9, data=[57, 0]),
   midi.NoteOnEvent(tick=0, channel=9, data=[38, 0]),
   midi.NoteOnEvent(tick=0, channel=9, data=[42, 127]),
   midi.NoteOnEvent(tick=0, channel=9, data=[36, 127]),
   midi.NoteOnEvent(tick=60, channel=9, data=[36, 0]),
   midi.NoteOnEvent(tick=0, channel=9, data=[36, 127]),
   midi.NoteOnEvent(tick=60, channel=9, data=[42, 0]),
   midi.NoteOnEvent(tick=0, channel=9, data=[36, 0]),
   midi.NoteOnEvent(tick=0, channel=9, data=[38, 127]),
   midi.NoteOnEvent(tick=0, channel=9, data=[42, 127]),
   midi.NoteOnEvent(tick=120, channel=9, data=[38, 0]),
   midi.NoteOnEvent(tick=0, channel=9, data=[42, 0]),
   midi.NoteOnEvent(tick=0, channel=9, data=[42, 127]),
   midi.NoteOnEvent(tick=0, channel=9, data=[36, 127]),
   midi.NoteOnEvent(tick=60, channel=9, data=[36, 0]),
   midi.NoteOnEvent(tick=0, channel=9, data=[36, 127]),
   midi.NoteOnEvent(tick=60, channel=9, data=[42, 0]),
   midi.NoteOnEvent(tick=0, channel=9, data=[36, 0]),
   midi.NoteOnEvent(tick=0, channel=9, data=[38, 127]),
   midi.NoteOnEvent(tick=0, channel=9, data=[42, 127]),
   midi.NoteOnEvent(tick=60, channel=9, data=[36, 127]),
   midi.NoteOnEvent(tick=20, channel=9, data=[36, 0]),
   midi.NoteOnEvent(tick=0, channel=9, data=[36, 127]),
   midi.NoteOnEvent(tick=20, channel=9, data=[36, 0]),
   midi.NoteOnEvent(tick=0, channel=9, data=[36, 127]),
   midi.NoteOnEvent(tick=15, channel=9, data=[38, 75]),
   midi.NoteOnEvent(tick=5, channel=9, data=[38, 0]),
   midi.NoteOnEvent(tick=0, channel=9, data=[42, 0]),
   midi.NoteOnEvent(tick=0, channel=9, data=[36, 0]),
   midi.NoteOnEvent(tick=0, channel=9, data=[38, 0]),
   midi.NoteOnEvent(tick=0, channel=9, data=[38, 127]),
   midi.NoteOnEvent(tick=60, channel=9, data=[36, 127]),
   midi.NoteOnEvent(tick=20, channel=9, data=[36, 0]),
   midi.NoteOnEvent(tick=0, channel=9, data=[36, 127]),
   midi.NoteOnEvent(tick=20, channel=9, data=[36, 0]),
   midi.NoteOnEvent(tick=0, channel=9, data=[36, 127]),
   midi.NoteOnEvent(tick=15, channel=9, data=[38, 75]),
   midi.NoteOnEvent(tick=5, channel=9, data=[38, 0]),
   midi.NoteOnEvent(tick=0, channel=9, data=[36, 0]),
   midi.NoteOnEvent(tick=0, channel=9, data=[38, 0]),
   midi.NoteOnEvent(tick=0, channel=9, data=[38, 127]),
   midi.NoteOnEvent(tick=60, channel=9, data=[36, 127]),
   midi.NoteOnEvent(tick=20, channel=9, data=[36, 0]),
   midi.NoteOnEvent(tick=0, channel=9, data=[36, 127]),
   midi.NoteOnEvent(tick=20, channel=9, data=[36, 0]),
   midi.NoteOnEvent(tick=0, channel=9, data=[36, 127]),
   midi.NoteOnEvent(tick=15, channel=9, data=[38, 75]),
   midi.NoteOnEvent(tick=5, channel=9, data=[38, 0]),
   midi.NoteOnEvent(tick=0, channel=9, data=[36, 0]),
   midi.NoteOnEvent(tick=0, channel=9, data=[38, 0]),
   midi.NoteOnEvent(tick=0, channel=9, data=[38, 127]),
   midi.NoteOnEvent(tick=60, channel=9, data=[36, 127]),
   midi.NoteOnEvent(tick=20, channel=9, data=[36, 0]),
   midi.NoteOnEvent(tick=0, channel=9, data=[36, 127]),
   midi.NoteOnEvent(tick=20, channel=9, data=[36, 0]),
   midi.NoteOnEvent(tick=0, channel=9, data=[36, 127]),
   midi.NoteOnEvent(tick=20, channel=9, data=[38, 0]),
   midi.NoteOnEvent(tick=0, channel=9, data=[36, 0]),
   midi.NoteOnEvent(tick=0, channel=9, data=[57, 127]),
   midi.NoteOnEvent(tick=0, channel=9, data=[38, 127]),
   midi.NoteOnEvent(tick=60, channel=9, data=[36, 127]),
   midi.NoteOnEvent(tick=20, channel=9, data=[36, 0]),
   midi.NoteOnEvent(tick=0, channel=9, data=[36, 127]),
   midi.NoteOnEvent(tick=20, channel=9, data=[36, 0]),
   midi.NoteOnEvent(tick=0, channel=9, data=[36, 127]),
   midi.NoteOnEvent(tick=20, channel=9, data=[57, 0]),
   midi.NoteOnEvent(tick=0, channel=9, data=[38, 0]),
   midi.NoteOnEvent(tick=0, channel=9, data=[36, 0]),
   midi.NoteOnEvent(tick=0, channel=9, data=[36, 127]),
   midi.NoteOnEvent(tick=0, channel=9, data=[57, 127]),
   midi.NoteOnEvent(tick=120, channel=9, data=[36, 0]),
   midi.NoteOnEvent(tick=0, channel=9, data=[57, 0]),
   midi.NoteOnEvent(tick=0, channel=9, data=[42, 127]),
   midi.NoteOnEvent(tick=0, channel=9, data=[38, 127]),
   midi.NoteOnEvent(tick=120, channel=9, data=[42, 0]),
   midi.NoteOnEvent(tick=0, channel=9, data=[38, 0]),
   midi.NoteOnEvent(tick=0, channel=9, data=[42, 127]),
   midi.NoteOnEvent(tick=0, channel=9, data=[36, 127]),
   midi.NoteOnEvent(tick=60, channel=9, data=[36, 0]),
   midi.NoteOnEvent(tick=0, channel=9, data=[36, 127]),
   midi.NoteOnEvent(tick=60, channel=9, data=[42, 0]),
   midi.NoteOnEvent(tick=0, channel=9, data=[36, 0]),
   midi.NoteOnEvent(tick=0, channel=9, data=[38, 127]),
   midi.NoteOnEvent(tick=0, channel=9, data=[42, 127]),
   midi.NoteOnEvent(tick=120, channel=9, data=[38, 0]),
   midi.NoteOnEvent(tick=0, channel=9, data=[42, 0]),
   midi.NoteOnEvent(tick=0, channel=9, data=[42, 127]),
   midi.NoteOnEvent(tick=0, channel=9, data=[36, 127]),
   midi.NoteOnEvent(tick=60, channel=9, data=[36, 0]),
   midi.NoteOnEvent(tick=0, channel=9, data=[36, 127]),
   midi.NoteOnEvent(tick=60, channel=9, data=[42, 0]),
   midi.NoteOnEvent(tick=0, channel=9, data=[36, 0]),
   midi.NoteOnEvent(tick=0, channel=9, data=[38, 127]),
   midi.NoteOnEvent(tick=0, channel=9, data=[42, 127]),
   midi.NoteOnEvent(tick=120, channel=9, data=[38, 0]),
   midi.NoteOnEvent(tick=0, channel=9, data=[42, 0]),
   midi.NoteOnEvent(tick=0, channel=9, data=[42, 127]),
   midi.NoteOnEvent(tick=0, channel=9, data=[36, 127]),
   midi.NoteOnEvent(tick=60, channel=9, data=[36, 0]),
   midi.NoteOnEvent(tick=0, channel=9, data=[36, 127]),
   midi.NoteOnEvent(tick=60, channel=9, data=[42, 0]),
   midi.NoteOnEvent(tick=0, channel=9, data=[36, 0]),
   midi.NoteOnEvent(tick=0, channel=9, data=[57, 127]),
   midi.NoteOnEvent(tick=0, channel=9, data=[38, 127]),
   midi.NoteOnEvent(tick=120, channel=9, data=[57, 0]),
   midi.NoteOnEvent(tick=0, channel=9, data=[38, 0]),
   midi.NoteOnEvent(tick=0, channel=9, data=[42, 127]),
   midi.NoteOnEvent(tick=0, channel=9, data=[36, 127]),
   midi.NoteOnEvent(tick=60, channel=9, data=[36, 0]),
   midi.NoteOnEvent(tick=0, channel=9, data=[36, 127]),
   midi.NoteOnEvent(tick=60, channel=9, data=[42, 0]),
   midi.NoteOnEvent(tick=0, channel=9, data=[36, 0]),
   midi.NoteOnEvent(tick=0, channel=9, data=[38, 127]),
   midi.NoteOnEvent(tick=0, channel=9, data=[42, 127]),
   midi.NoteOnEvent(tick=120, channel=9, data=[38, 0]),
   midi.NoteOnEvent(tick=0, channel=9, data=[42, 0]),
   midi.NoteOnEvent(tick=0, channel=9, data=[42, 127]),
   midi.NoteOnEvent(tick=0, channel=9, data=[36, 127]),
   midi.NoteOnEvent(tick=60, channel=9, data=[36, 0]),
   midi.NoteOnEvent(tick=0, channel=9, data=[36, 127]),
   midi.NoteOnEvent(tick=60, channel=9, data=[42, 0]),
   midi.NoteOnEvent(tick=0, channel=9, data=[36, 0]),
   midi.NoteOnEvent(tick=0, channel=9, data=[38, 127]),
   midi.NoteOnEvent(tick=0, channel=9, data=[42, 127]),
   midi.NoteOnEvent(tick=120, channel=9, data=[38, 0]),
   midi.NoteOnEvent(tick=0, channel=9, data=[42, 0]),
   midi.NoteOnEvent(tick=0, channel=9, data=[42, 127]),
   midi.NoteOnEvent(tick=0, channel=9, data=[36, 127]),
   midi.NoteOnEvent(tick=60, channel=9, data=[36, 0]),
   midi.NoteOnEvent(tick=0, channel=9, data=[36, 127]),
   midi.NoteOnEvent(tick=60, channel=9, data=[42, 0]),
   midi.NoteOnEvent(tick=0, channel=9, data=[36, 0]),
   midi.NoteOnEvent(tick=0, channel=9, data=[38, 127]),
   midi.NoteOnEvent(tick=0, channel=9, data=[42, 127]),
   midi.NoteOnEvent(tick=120, channel=9, data=[38, 0]),
   midi.NoteOnEvent(tick=0, channel=9, data=[42, 0]),
   midi.NoteOnEvent(tick=0, channel=9, data=[57, 127]),
   midi.NoteOnEvent(tick=0, channel=9, data=[36, 127]),
   midi.NoteOnEvent(tick=120, channel=9, data=[57, 0]),
   midi.NoteOnEvent(tick=0, channel=9, data=[36, 0]),
   midi.NoteOnEvent(tick=0, channel=9, data=[57, 127]),
   midi.NoteOnEvent(tick=0, channel=9, data=[38, 127]),
   midi.NoteOnEvent(tick=120, channel=9, data=[57, 0]),
   midi.NoteOnEvent(tick=0, channel=9, data=[38, 0]),
   midi.NoteOnEvent(tick=0, channel=9, data=[36, 127]),
   midi.NoteOnEvent(tick=0, channel=9, data=[57, 127]),
   midi.NoteOnEvent(tick=120, channel=9, data=[36, 0]),
   midi.NoteOnEvent(tick=0, channel=9, data=[57, 0]),
   midi.NoteOnEvent(tick=0, channel=9, data=[42, 127]),
   midi.NoteOnEvent(tick=0, channel=9, data=[38, 127]),
   midi.NoteOnEvent(tick=120, channel=9, data=[42, 0]),
   midi.NoteOnEvent(tick=0, channel=9, data=[38, 0]),
   midi.NoteOnEvent(tick=0, channel=9, data=[42, 127]),
   midi.NoteOnEvent(tick=0, channel=9, data=[36, 127]),
   midi.NoteOnEvent(tick=60, channel=9, data=[36, 0]),
   midi.NoteOnEvent(tick=0, channel=9, data=[36, 127]),
   midi.NoteOnEvent(tick=60, channel=9, data=[42, 0]),
   midi.NoteOnEvent(tick=0, channel=9, data=[36, 0]),
   midi.NoteOnEvent(tick=0, channel=9, data=[38, 127]),
   midi.NoteOnEvent(tick=0, channel=9, data=[42, 127]),
   midi.NoteOnEvent(tick=120, channel=9, data=[38, 0]),
   midi.NoteOnEvent(tick=0, channel=9, data=[42, 0]),
   midi.NoteOnEvent(tick=0, channel=9, data=[42, 127]),
   midi.NoteOnEvent(tick=0, channel=9, data=[36, 127]),
   midi.NoteOnEvent(tick=60, channel=9, data=[36, 0]),
   midi.NoteOnEvent(tick=0, channel=9, data=[36, 127]),
   midi.NoteOnEvent(tick=60, channel=9, data=[42, 0]),
   midi.NoteOnEvent(tick=0, channel=9, data=[36, 0]),
   midi.NoteOnEvent(tick=0, channel=9, data=[38, 127]),
   midi.NoteOnEvent(tick=0, channel=9, data=[42, 127]),
   midi.NoteOnEvent(tick=120, channel=9, data=[38, 0]),
   midi.NoteOnEvent(tick=0, channel=9, data=[42, 0]),
   midi.NoteOnEvent(tick=0, channel=9, data=[42, 127]),
   midi.NoteOnEvent(tick=0, channel=9, data=[36, 127]),
   midi.NoteOnEvent(tick=60, channel=9, data=[36, 0]),
   midi.NoteOnEvent(tick=0, channel=9, data=[36, 127]),
   midi.NoteOnEvent(tick=60, channel=9, data=[42, 0]),
   midi.NoteOnEvent(tick=0, channel=9, data=[36, 0]),
   midi.NoteOnEvent(tick=0, channel=9, data=[57, 127]),
   midi.NoteOnEvent(tick=0, channel=9, data=[38, 127]),
   midi.NoteOnEvent(tick=120, channel=9, data=[57, 0]),
   midi.NoteOnEvent(tick=0, channel=9, data=[38, 0]),
   midi.NoteOnEvent(tick=0, channel=9, data=[42, 127]),
   midi.NoteOnEvent(tick=0, channel=9, data=[36, 127]),
   midi.NoteOnEvent(tick=60, channel=9, data=[36, 0]),
   midi.NoteOnEvent(tick=0, channel=9, data=[36, 127]),
   midi.NoteOnEvent(tick=60, channel=9, data=[42, 0]),
   midi.NoteOnEvent(tick=0, channel=9, data=[36, 0]),
   midi.NoteOnEvent(tick=0, channel=9, data=[38, 127]),
   midi.NoteOnEvent(tick=0, channel=9, data=[42, 127]),
   midi.NoteOnEvent(tick=120, channel=9, data=[38, 0]),
   midi.NoteOnEvent(tick=0, channel=9, data=[42, 0]),
   midi.NoteOnEvent(tick=0, channel=9, data=[42, 127]),
   midi.NoteOnEvent(tick=0, channel=9, data=[36, 127]),
   midi.NoteOnEvent(tick=60, channel=9, data=[36, 0]),
   midi.NoteOnEvent(tick=0, channel=9, data=[36, 127]),
   midi.NoteOnEvent(tick=60, channel=9, data=[42, 0]),
   midi.NoteOnEvent(tick=0, channel=9, data=[36, 0]),
   midi.NoteOnEvent(tick=0, channel=9, data=[38, 127]),
   midi.NoteOnEvent(tick=0, channel=9, data=[42, 127]),
   midi.NoteOnEvent(tick=120, channel=9, data=[38, 0]),
   midi.NoteOnEvent(tick=0, channel=9, data=[42, 0]),
   midi.NoteOnEvent(tick=0, channel=9, data=[42, 127]),
   midi.NoteOnEvent(tick=0, channel=9, data=[36, 127]),
   midi.NoteOnEvent(tick=60, channel=9, data=[36, 0]),
   midi.NoteOnEvent(tick=0, channel=9, data=[36, 127]),
   midi.NoteOnEvent(tick=60, channel=9, data=[42, 0]),
   midi.NoteOnEvent(tick=0, channel=9, data=[36, 0]),
   midi.NoteOnEvent(tick=0, channel=9, data=[38, 127]),
   midi.NoteOnEvent(tick=0, channel=9, data=[42, 127]),
   midi.NoteOnEvent(tick=60, channel=9, data=[36, 127]),
   midi.NoteOnEvent(tick=60, channel=9, data=[38, 0]),
   midi.NoteOnEvent(tick=0, channel=9, data=[42, 0]),
   midi.NoteOnEvent(tick=0, channel=9, data=[36, 0]),
   midi.NoteOnEvent(tick=0, channel=9, data=[38, 127]),
   midi.NoteOnEvent(tick=0, channel=9, data=[57, 127]),
   midi.NoteOnEvent(tick=0, channel=9, data=[36, 127]),
   midi.NoteOnEvent(tick=60, channel=9, data=[36, 0]),
   midi.NoteOnEvent(tick=0, channel=9, data=[36, 127]),
   midi.NoteOnEvent(tick=60, channel=9, data=[38, 0]),
   midi.NoteOnEvent(tick=0, channel=9, data=[57, 0]),
   midi.NoteOnEvent(tick=0, channel=9, data=[36, 0]),
   midi.NoteOnEvent(tick=0, channel=9, data=[36, 127]),
   midi.NoteOnEvent(tick=0, channel=9, data=[57, 127]),
   midi.NoteOnEvent(tick=0, channel=9, data=[38, 127]),
   midi.NoteOnEvent(tick=120, channel=9, data=[36, 0]),
   midi.NoteOnEvent(tick=0, channel=9, data=[57, 0]),
   midi.NoteOnEvent(tick=0, channel=9, data=[38, 0]),
   midi.NoteOnEvent(tick=0, channel=9, data=[36, 127]),
   midi.NoteOnEvent(tick=0, channel=9, data=[57, 127]),
   midi.NoteOnEvent(tick=120, channel=9, data=[36, 0]),
   midi.NoteOnEvent(tick=0, channel=9, data=[57, 0]),
   midi.NoteOnEvent(tick=0, channel=9, data=[42, 127]),
   midi.NoteOnEvent(tick=0, channel=9, data=[38, 127]),
   midi.NoteOnEvent(tick=120, channel=9, data=[42, 0]),
   midi.NoteOnEvent(tick=0, channel=9, data=[38, 0]),
   midi.NoteOnEvent(tick=0, channel=9, data=[42, 127]),
   midi.NoteOnEvent(tick=0, channel=9, data=[36, 127]),
   midi.NoteOnEvent(tick=60, channel=9, data=[36, 0]),
   midi.NoteOnEvent(tick=0, channel=9, data=[36, 127]),
   midi.NoteOnEvent(tick=60, channel=9, data=[42, 0]),
   midi.NoteOnEvent(tick=0, channel=9, data=[36, 0]),
   midi.NoteOnEvent(tick=0, channel=9, data=[38, 127]),
   midi.NoteOnEvent(tick=0, channel=9, data=[42, 127]),
   midi.NoteOnEvent(tick=120, channel=9, data=[38, 0]),
   midi.NoteOnEvent(tick=0, channel=9, data=[42, 0]),
   midi.NoteOnEvent(tick=0, channel=9, data=[42, 127]),
   midi.NoteOnEvent(tick=0, channel=9, data=[36, 127]),
   midi.NoteOnEvent(tick=60, channel=9, data=[36, 0]),
   midi.NoteOnEvent(tick=0, channel=9, data=[36, 127]),
   midi.NoteOnEvent(tick=60, channel=9, data=[42, 0]),
   midi.NoteOnEvent(tick=0, channel=9, data=[36, 0]),
   midi.NoteOnEvent(tick=0, channel=9, data=[38, 127]),
   midi.NoteOnEvent(tick=0, channel=9, data=[42, 127]),
   midi.NoteOnEvent(tick=120, channel=9, data=[38, 0]),
   midi.NoteOnEvent(tick=0, channel=9, data=[42, 0]),
   midi.NoteOnEvent(tick=0, channel=9, data=[42, 127]),
   midi.NoteOnEvent(tick=0, channel=9, data=[36, 127]),
   midi.NoteOnEvent(tick=60, channel=9, data=[36, 0]),
   midi.NoteOnEvent(tick=0, channel=9, data=[36, 127]),
   midi.NoteOnEvent(tick=60, channel=9, data=[42, 0]),
   midi.NoteOnEvent(tick=0, channel=9, data=[36, 0]),
   midi.NoteOnEvent(tick=0, channel=9, data=[57, 127]),
   midi.NoteOnEvent(tick=0, channel=9, data=[38, 127]),
   midi.NoteOnEvent(tick=120, channel=9, data=[57, 0]),
   midi.NoteOnEvent(tick=0, channel=9, data=[38, 0]),
   midi.NoteOnEvent(tick=0, channel=9, data=[42, 127]),
   midi.NoteOnEvent(tick=0, channel=9, data=[36, 127]),
   midi.NoteOnEvent(tick=60, channel=9, data=[36, 0]),
   midi.NoteOnEvent(tick=0, channel=9, data=[36, 127]),
   midi.NoteOnEvent(tick=60, channel=9, data=[42, 0]),
   midi.NoteOnEvent(tick=0, channel=9, data=[36, 0]),
   midi.NoteOnEvent(tick=0, channel=9, data=[38, 127]),
   midi.NoteOnEvent(tick=0, channel=9, data=[42, 127]),
   midi.NoteOnEvent(tick=120, channel=9, data=[38, 0]),
   midi.NoteOnEvent(tick=0, channel=9, data=[42, 0]),
   midi.NoteOnEvent(tick=0, channel=9, data=[42, 127]),
   midi.NoteOnEvent(tick=0, channel=9, data=[36, 127]),
   midi.NoteOnEvent(tick=60, channel=9, data=[36, 0]),
   midi.NoteOnEvent(tick=0, channel=9, data=[36, 127]),
   midi.NoteOnEvent(tick=60, channel=9, data=[42, 0]),
   midi.NoteOnEvent(tick=0, channel=9, data=[36, 0]),
   midi.NoteOnEvent(tick=0, channel=9, data=[38, 127]),
   midi.NoteOnEvent(tick=0, channel=9, data=[42, 127]),
   midi.NoteOnEvent(tick=120, channel=9, data=[38, 0]),
   midi.NoteOnEvent(tick=0, channel=9, data=[42, 0]),
   midi.NoteOnEvent(tick=0, channel=9, data=[42, 127]),
   midi.NoteOnEvent(tick=0, channel=9, data=[36, 127]),
   midi.NoteOnEvent(tick=60, channel=9, data=[36, 0]),
   midi.NoteOnEvent(tick=0, channel=9, data=[36, 127]),
   midi.NoteOnEvent(tick=60, channel=9, data=[42, 0]),
   midi.NoteOnEvent(tick=0, channel=9, data=[36, 0]),
   midi.NoteOnEvent(tick=0, channel=9, data=[38, 127]),
   midi.NoteOnEvent(tick=0, channel=9, data=[42, 127]),
   midi.NoteOnEvent(tick=120, channel=9, data=[38, 0]),
   midi.NoteOnEvent(tick=0, channel=9, data=[42, 0]),
   midi.NoteOnEvent(tick=0, channel=9, data=[57, 127]),
   midi.NoteOnEvent(tick=0, channel=9, data=[36, 127]),
   midi.NoteOnEvent(tick=120, channel=9, data=[57, 0]),
   midi.NoteOnEvent(tick=0, channel=9, data=[36, 0]),
   midi.NoteOnEvent(tick=0, channel=9, data=[57, 127]),
   midi.NoteOnEvent(tick=0, channel=9, data=[38, 127]),
   midi.NoteOnEvent(tick=120, channel=9, data=[57, 0]),
   midi.NoteOnEvent(tick=0, channel=9, data=[38, 0]),
   midi.NoteOnEvent(tick=0, channel=9, data=[36, 127]),
   midi.NoteOnEvent(tick=0, channel=9, data=[57, 127]),
   midi.NoteOnEvent(tick=120, channel=9, data=[36, 0]),
   midi.NoteOnEvent(tick=0, channel=9, data=[57, 0]),
   midi.NoteOnEvent(tick=0, channel=9, data=[42, 127]),
   midi.NoteOnEvent(tick=0, channel=9, data=[38, 127]),
   midi.NoteOnEvent(tick=120, channel=9, data=[42, 0]),
   midi.NoteOnEvent(tick=0, channel=9, data=[38, 0]),
   midi.NoteOnEvent(tick=0, channel=9, data=[42, 127]),
   midi.NoteOnEvent(tick=0, channel=9, data=[36, 127]),
   midi.NoteOnEvent(tick=60, channel=9, data=[36, 0]),
   midi.NoteOnEvent(tick=0, channel=9, data=[36, 127]),
   midi.NoteOnEvent(tick=60, channel=9, data=[42, 0]),
   midi.NoteOnEvent(tick=0, channel=9, data=[36, 0]),
   midi.NoteOnEvent(tick=0, channel=9, data=[38, 127]),
   midi.NoteOnEvent(tick=0, channel=9, data=[42, 127]),
   midi.NoteOnEvent(tick=120, channel=9, data=[38, 0]),
   midi.NoteOnEvent(tick=0, channel=9, data=[42, 0]),
   midi.NoteOnEvent(tick=0, channel=9, data=[42, 127]),
   midi.NoteOnEvent(tick=0, channel=9, data=[36, 127]),
   midi.NoteOnEvent(tick=60, channel=9, data=[36, 0]),
   midi.NoteOnEvent(tick=0, channel=9, data=[36, 127]),
   midi.NoteOnEvent(tick=60, channel=9, data=[42, 0]),
   midi.NoteOnEvent(tick=0, channel=9, data=[36, 0]),
   midi.NoteOnEvent(tick=0, channel=9, data=[38, 127]),
   midi.NoteOnEvent(tick=0, channel=9, data=[42, 127]),
   midi.NoteOnEvent(tick=120, channel=9, data=[38, 0]),
   midi.NoteOnEvent(tick=0, channel=9, data=[42, 0]),
   midi.NoteOnEvent(tick=0, channel=9, data=[42, 127]),
   midi.NoteOnEvent(tick=0, channel=9, data=[36, 127]),
   midi.NoteOnEvent(tick=60, channel=9, data=[36, 0]),
   midi.NoteOnEvent(tick=0, channel=9, data=[36, 127]),
   midi.NoteOnEvent(tick=60, channel=9, data=[42, 0]),
   midi.NoteOnEvent(tick=0, channel=9, data=[36, 0]),
   midi.NoteOnEvent(tick=0, channel=9, data=[57, 127]),
   midi.NoteOnEvent(tick=0, channel=9, data=[38, 127]),
   midi.NoteOnEvent(tick=120, channel=9, data=[57, 0]),
   midi.NoteOnEvent(tick=0, channel=9, data=[38, 0]),
   midi.NoteOnEvent(tick=0, channel=9, data=[57, 127]),
   midi.NoteOnEvent(tick=0, channel=9, data=[36, 127]),
   midi.NoteOnEvent(tick=60, channel=9, data=[36, 0]),
   midi.NoteOnEvent(tick=0, channel=9, data=[36, 127]),
   midi.NoteOnEvent(tick=60, channel=9, data=[57, 0]),
   midi.NoteOnEvent(tick=0, channel=9, data=[36, 0]),
   midi.NoteOnEvent(tick=0, channel=9, data=[38, 127]),
   midi.NoteOnEvent(tick=0, channel=9, data=[42, 127]),
   midi.NoteOnEvent(tick=120, channel=9, data=[38, 0]),
   midi.NoteOnEvent(tick=0, channel=9, data=[42, 0]),
   midi.NoteOnEvent(tick=0, channel=9, data=[42, 127]),
   midi.NoteOnEvent(tick=0, channel=9, data=[36, 127]),
   midi.NoteOnEvent(tick=60, channel=9, data=[36, 0]),
   midi.NoteOnEvent(tick=0, channel=9, data=[36, 127]),
   midi.NoteOnEvent(tick=60, channel=9, data=[42, 0]),
   midi.NoteOnEvent(tick=0, channel=9, data=[36, 0]),
   midi.NoteOnEvent(tick=0, channel=9, data=[38, 127]),
   midi.NoteOnEvent(tick=0, channel=9, data=[42, 127]),
   midi.NoteOnEvent(tick=60, channel=9, data=[36, 127]),
   midi.NoteOnEvent(tick=60, channel=9, data=[38, 0]),
   midi.NoteOnEvent(tick=0, channel=9, data=[42, 0]),
   midi.NoteOnEvent(tick=0, channel=9, data=[36, 0]),
   midi.NoteOnEvent(tick=0, channel=9, data=[38, 127]),
   midi.NoteOnEvent(tick=30, channel=9, data=[38, 0]),
   midi.NoteOnEvent(tick=0, channel=9, data=[38, 127]),
   midi.NoteOnEvent(tick=30, channel=9, data=[38, 0]),
   midi.NoteOnEvent(tick=0, channel=9, data=[38, 127]),
   midi.NoteOnEvent(tick=30, channel=9, data=[38, 0]),
   midi.NoteOnEvent(tick=0, channel=9, data=[38, 127]),
   midi.NoteOnEvent(tick=30, channel=9, data=[38, 0]),
   midi.NoteOnEvent(tick=0, channel=9, data=[38, 127]),
   midi.NoteOnEvent(tick=30, channel=9, data=[38, 0]),
   midi.NoteOnEvent(tick=0, channel=9, data=[38, 127]),
   midi.NoteOnEvent(tick=30, channel=9, data=[38, 0]),
   midi.NoteOnEvent(tick=0, channel=9, data=[38, 127]),
   midi.NoteOnEvent(tick=30, channel=9, data=[38, 0]),
   midi.NoteOnEvent(tick=0, channel=9, data=[38, 127]),
   midi.NoteOnEvent(tick=30, channel=9, data=[38, 0]),
   midi.NoteOnEvent(tick=0, channel=9, data=[38, 127]),
   midi.NoteOnEvent(tick=30, channel=9, data=[38, 0]),
   midi.NoteOnEvent(tick=0, channel=9, data=[38, 127]),
   midi.NoteOnEvent(tick=30, channel=9, data=[38, 0]),
   midi.NoteOnEvent(tick=0, channel=9, data=[38, 127]),
   midi.NoteOnEvent(tick=30, channel=9, data=[38, 0]),
   midi.NoteOnEvent(tick=0, channel=9, data=[38, 127]),
   midi.NoteOnEvent(tick=30, channel=9, data=[38, 0]),
   midi.NoteOnEvent(tick=0, channel=9, data=[38, 127]),
   midi.NoteOnEvent(tick=30, channel=9, data=[38, 0]),
   midi.NoteOnEvent(tick=0, channel=9, data=[38, 127]),
   midi.NoteOnEvent(tick=30, channel=9, data=[38, 0]),
   midi.NoteOnEvent(tick=0, channel=9, data=[38, 127]),
   midi.NoteOnEvent(tick=30, channel=9, data=[38, 0]),
   midi.NoteOnEvent(tick=0, channel=9, data=[38, 127]),
   midi.NoteOnEvent(tick=30, channel=9, data=[38, 0]),
   midi.NoteOnEvent(tick=0, channel=9, data=[36, 127]),
   midi.NoteOnEvent(tick=0, channel=9, data=[36, 127]),
   midi.NoteOnEvent(tick=0, channel=9, data=[57, 127]),
   midi.NoteOnEvent(tick=120, channel=9, data=[36, 0]),
   midi.NoteOnEvent(tick=0, channel=9, data=[36, 0]),
   midi.NoteOnEvent(tick=0, channel=9, data=[57, 0]),
   midi.NoteOnEvent(tick=0, channel=9, data=[38, 127]),
   midi.NoteOnEvent(tick=0, channel=9, data=[57, 127]),
   midi.NoteOnEvent(tick=120, channel=9, data=[38, 0]),
   midi.NoteOnEvent(tick=0, channel=9, data=[57, 0]),
   midi.NoteOnEvent(tick=0, channel=9, data=[36, 127]),
   midi.NoteOnEvent(tick=0, channel=9, data=[59, 127]),
   midi.NoteOnEvent(tick=60, channel=9, data=[36, 0]),
   midi.NoteOnEvent(tick=0, channel=9, data=[36, 127]),
   midi.NoteOnEvent(tick=60, channel=9, data=[59, 0]),
   midi.NoteOnEvent(tick=0, channel=9, data=[36, 0]),
   midi.NoteOnEvent(tick=0, channel=9, data=[38, 127]),
   midi.NoteOnEvent(tick=0, channel=9, data=[59, 127]),
   midi.NoteOnEvent(tick=120, channel=9, data=[38, 0]),
   midi.NoteOnEvent(tick=0, channel=9, data=[59, 0]),
   midi.NoteOnEvent(tick=0, channel=9, data=[59, 127]),
   midi.NoteOnEvent(tick=0, channel=9, data=[36, 127]),
   midi.NoteOnEvent(tick=60, channel=9, data=[36, 0]),
   midi.NoteOnEvent(tick=0, channel=9, data=[36, 127]),
   midi.NoteOnEvent(tick=60, channel=9, data=[59, 0]),
   midi.NoteOnEvent(tick=0, channel=9, data=[36, 0]),
   midi.NoteOnEvent(tick=0, channel=9, data=[38, 127]),
   midi.NoteOnEvent(tick=0, channel=9, data=[59, 127]),
   midi.NoteOnEvent(tick=120, channel=9, data=[38, 0]),
   midi.NoteOnEvent(tick=0, channel=9, data=[59, 0]),
   midi.NoteOnEvent(tick=0, channel=9, data=[59, 127]),
   midi.NoteOnEvent(tick=0, channel=9, data=[36, 127]),
   midi.NoteOnEvent(tick=60, channel=9, data=[36, 0]),
   midi.NoteOnEvent(tick=0, channel=9, data=[36, 127]),
   midi.NoteOnEvent(tick=60, channel=9, data=[59, 0]),
   midi.NoteOnEvent(tick=0, channel=9, data=[36, 0]),
   midi.NoteOnEvent(tick=0, channel=9, data=[38, 127]),
   midi.NoteOnEvent(tick=0, channel=9, data=[59, 127]),
   midi.NoteOnEvent(tick=120, channel=9, data=[38, 0]),
   midi.NoteOnEvent(tick=0, channel=9, data=[59, 0]),
   midi.NoteOnEvent(tick=0, channel=9, data=[59, 127]),
   midi.NoteOnEvent(tick=0, channel=9, data=[36, 127]),
   midi.NoteOnEvent(tick=60, channel=9, data=[36, 0]),
   midi.NoteOnEvent(tick=0, channel=9, data=[36, 127]),
   midi.NoteOnEvent(tick=60, channel=9, data=[59, 0]),
   midi.NoteOnEvent(tick=0, channel=9, data=[36, 0]),
   midi.NoteOnEvent(tick=0, channel=9, data=[38, 127]),
   midi.NoteOnEvent(tick=0, channel=9, data=[59, 127]),
   midi.NoteOnEvent(tick=120, channel=9, data=[38, 0]),
   midi.NoteOnEvent(tick=0, channel=9, data=[59, 0]),
   midi.NoteOnEvent(tick=0, channel=9, data=[59, 127]),
   midi.NoteOnEvent(tick=0, channel=9, data=[36, 127]),
   midi.NoteOnEvent(tick=60, channel=9, data=[36, 0]),
   midi.NoteOnEvent(tick=0, channel=9, data=[36, 127]),
   midi.NoteOnEvent(tick=60, channel=9, data=[59, 0]),
   midi.NoteOnEvent(tick=0, channel=9, data=[36, 0]),
   midi.NoteOnEvent(tick=0, channel=9, data=[38, 127]),
   midi.NoteOnEvent(tick=0, channel=9, data=[59, 127]),
   midi.NoteOnEvent(tick=120, channel=9, data=[38, 0]),
   midi.NoteOnEvent(tick=0, channel=9, data=[59, 0]),
   midi.NoteOnEvent(tick=0, channel=9, data=[59, 127]),
   midi.NoteOnEvent(tick=0, channel=9, data=[36, 127]),
   midi.NoteOnEvent(tick=60, channel=9, data=[36, 0]),
   midi.NoteOnEvent(tick=0, channel=9, data=[36, 127]),
   midi.NoteOnEvent(tick=60, channel=9, data=[59, 0]),
   midi.NoteOnEvent(tick=0, channel=9, data=[36, 0]),
   midi.NoteOnEvent(tick=0, channel=9, data=[38, 127]),
   midi.NoteOnEvent(tick=0, channel=9, data=[57, 127]),
   midi.NoteOnEvent(tick=120, channel=9, data=[38, 0]),
   midi.NoteOnEvent(tick=0, channel=9, data=[57, 0]),
   midi.NoteOnEvent(tick=0, channel=9, data=[59, 127]),
   midi.NoteOnEvent(tick=0, channel=9, data=[36, 127]),
   midi.NoteOnEvent(tick=60, channel=9, data=[36, 0]),
   midi.NoteOnEvent(tick=0, channel=9, data=[36, 127]),
   midi.NoteOnEvent(tick=60, channel=9, data=[59, 0]),
   midi.NoteOnEvent(tick=0, channel=9, data=[36, 0]),
   midi.NoteOnEvent(tick=0, channel=9, data=[38, 127]),
   midi.NoteOnEvent(tick=0, channel=9, data=[57, 127]),
   midi.NoteOnEvent(tick=120, channel=9, data=[38, 0]),
   midi.NoteOnEvent(tick=0, channel=9, data=[57, 0]),
   midi.NoteOnEvent(tick=0, channel=9, data=[59, 127]),
   midi.NoteOnEvent(tick=0, channel=9, data=[36, 127]),
   midi.NoteOnEvent(tick=60, channel=9, data=[36, 0]),
   midi.NoteOnEvent(tick=0, channel=9, data=[36, 127]),
   midi.NoteOnEvent(tick=60, channel=9, data=[59, 0]),
   midi.NoteOnEvent(tick=0, channel=9, data=[36, 0]),
   midi.NoteOnEvent(tick=0, channel=9, data=[38, 127]),
   midi.NoteOnEvent(tick=0, channel=9, data=[59, 127]),
   midi.NoteOnEvent(tick=120, channel=9, data=[38, 0]),
   midi.NoteOnEvent(tick=0, channel=9, data=[59, 0]),
   midi.NoteOnEvent(tick=0, channel=9, data=[59, 127]),
   midi.NoteOnEvent(tick=0, channel=9, data=[36, 127]),
   midi.NoteOnEvent(tick=60, channel=9, data=[36, 0]),
   midi.NoteOnEvent(tick=0, channel=9, data=[36, 127]),
   midi.NoteOnEvent(tick=60, channel=9, data=[59, 0]),
   midi.NoteOnEvent(tick=0, channel=9, data=[36, 0]),
   midi.NoteOnEvent(tick=0, channel=9, data=[38, 127]),
   midi.NoteOnEvent(tick=0, channel=9, data=[59, 127]),
   midi.NoteOnEvent(tick=120, channel=9, data=[38, 0]),
   midi.NoteOnEvent(tick=0, channel=9, data=[59, 0]),
   midi.NoteOnEvent(tick=0, channel=9, data=[59, 127]),
   midi.NoteOnEvent(tick=0, channel=9, data=[36, 127]),
   midi.NoteOnEvent(tick=60, channel=9, data=[36, 0]),
   midi.NoteOnEvent(tick=0, channel=9, data=[36, 127]),
   midi.NoteOnEvent(tick=60, channel=9, data=[59, 0]),
   midi.NoteOnEvent(tick=0, channel=9, data=[36, 0]),
   midi.NoteOnEvent(tick=0, channel=9, data=[38, 127]),
   midi.NoteOnEvent(tick=0, channel=9, data=[59, 127]),
   midi.NoteOnEvent(tick=120, channel=9, data=[38, 0]),
   midi.NoteOnEvent(tick=0, channel=9, data=[59, 0]),
   midi.NoteOnEvent(tick=0, channel=9, data=[59, 127]),
   midi.NoteOnEvent(tick=0, channel=9, data=[36, 127]),
   midi.NoteOnEvent(tick=60, channel=9, data=[36, 0]),
   midi.NoteOnEvent(tick=0, channel=9, data=[36, 127]),
   midi.NoteOnEvent(tick=55, channel=9, data=[38, 75]),
   midi.NoteOnEvent(tick=5, channel=9, data=[59, 0]),
   midi.NoteOnEvent(tick=0, channel=9, data=[36, 0]),
   midi.NoteOnEvent(tick=0, channel=9, data=[38, 0]),
   midi.NoteOnEvent(tick=0, channel=9, data=[38, 127]),
   midi.NoteOnEvent(tick=120, channel=9, data=[38, 0]),
   midi.NoteOnEvent(tick=0, channel=9, data=[57, 127]),
   midi.NoteOnEvent(tick=0, channel=9, data=[36, 127]),
   midi.NoteOnEvent(tick=120, channel=9, data=[57, 0]),
   midi.NoteOnEvent(tick=0, channel=9, data=[36, 0]),
   midi.NoteOnEvent(tick=0, channel=9, data=[57, 127]),
   midi.NoteOnEvent(tick=0, channel=9, data=[36, 127]),
   midi.NoteOnEvent(tick=120, channel=9, data=[57, 0]),
   midi.NoteOnEvent(tick=0, channel=9, data=[36, 0]),
   midi.NoteOnEvent(tick=0, channel=9, data=[57, 127]),
   midi.NoteOnEvent(tick=0, channel=9, data=[36, 127]),
   midi.NoteOnEvent(tick=120, channel=9, data=[57, 0]),
   midi.NoteOnEvent(tick=0, channel=9, data=[36, 0]),
   midi.NoteOnEvent(tick=0, channel=9, data=[57, 127]),
   midi.NoteOnEvent(tick=0, channel=9, data=[36, 127]),
   midi.NoteOnEvent(tick=120, channel=9, data=[57, 0]),
   midi.NoteOnEvent(tick=0, channel=9, data=[36, 0]),
   midi.NoteOnEvent(tick=0, channel=9, data=[57, 127]),
   midi.NoteOnEvent(tick=0, channel=9, data=[36, 127]),
   midi.NoteOnEvent(tick=120, channel=9, data=[57, 0]),
   midi.NoteOnEvent(tick=0, channel=9, data=[36, 0]),
   midi.EndOfTrackEvent(tick=0, data=[])]),
 midi.Track(\
  [midi.PortEvent(tick=0, data=[0]),
   midi.TrackNameEvent(tick=0, text=' ', data=[32]),
   midi.EndOfTrackEvent(tick=0, data=[])]),
 midi.Track(\
  [midi.PortEvent(tick=0, data=[0]),
   midi.TrackNameEvent(tick=0, text='The Four Horsemen', data=[84, 104, 101, 32, 70, 111, 117, 114, 32, 72, 111, 114, 115, 101, 109, 101, 110]),
   midi.EndOfTrackEvent(tick=0, data=[])]),
 midi.Track(\
  [midi.PortEvent(tick=0, data=[0]),
   midi.TrackNameEvent(tick=0, text='by Metallica', data=[98, 121, 32, 77, 101, 116, 97, 108, 108, 105, 99, 97]),
   midi.EndOfTrackEvent(tick=0, data=[])]),
 midi.Track(\
  [midi.PortEvent(tick=0, data=[0]),
   midi.TrackNameEvent(tick=0, text=' ', data=[32]),
   midi.EndOfTrackEvent(tick=0, data=[])]),
 midi.Track(\
  [midi.PortEvent(tick=0, data=[0]),
   midi.TrackNameEvent(tick=0, text='Transcribed by', data=[84, 114, 97, 110, 115, 99, 114, 105, 98, 101, 100, 32, 98, 121]),
   midi.EndOfTrackEvent(tick=0, data=[])]),
 midi.Track(\
  [midi.PortEvent(tick=0, data=[0]),
   midi.TrackNameEvent(tick=0, text='King Diamond', data=[75, 105, 110, 103, 32, 68, 105, 97, 109, 111, 110, 100]),
   midi.EndOfTrackEvent(tick=0, data=[])])])