midi.Pattern(format=1, resolution=240, tracks=\
[midi.Track(\
  [midi.TimeSignatureEvent(tick=0, data=[3, 2, 12, 8]),
   midi.SetTempoEvent(tick=0, data=[17, 243, 151]),
   midi.SetTempoEvent(tick=8760, data=[17, 243, 151]),
   midi.SetTempoEvent(tick=120, data=[18, 79, 128]),
   midi.SetTempoEvent(tick=120, data=[18, 175, 42]),
   midi.SetTempoEvent(tick=120, data=[18, 175, 42]),
   midi.SetTempoEvent(tick=120, data=[19, 18, 208]),
   midi.SetTempoEvent(tick=120, data=[17, 243, 151]),
   midi.SetTempoEvent(tick=7920, data=[18, 175, 42]),
   midi.SetTempoEvent(tick=840, data=[18, 175, 42]),
   midi.SetTempoEvent(tick=120, data=[19, 18, 208]),
   midi.SetTempoEvent(tick=120, data=[19, 18, 208]),
   midi.SetTempoEvent(tick=120, data=[19, 18, 208]),
   midi.SetTempoEvent(tick=120, data=[19, 18, 208]),
   midi.SetTempoEvent(tick=120, data=[19, 231, 28]),
   midi.SetTempoEvent(tick=120, data=[19, 122, 180]),
   midi.SetTempoEvent(tick=120, data=[19, 18, 208]),
   midi.SetTempoEvent(tick=120, data=[19, 18, 208]),
   midi.SetTempoEvent(tick=120, data=[18, 175, 42]),
   midi.SetTempoEvent(tick=120, data=[18, 79, 128]),
   midi.SetTempoEvent(tick=120, data=[17, 243, 151]),
   midi.SetTempoEvent(tick=8040, data=[17, 243, 151]),
   midi.SetTempoEvent(tick=120, data=[18, 79, 128]),
   midi.SetTempoEvent(tick=120, data=[18, 175, 42]),
   midi.SetTempoEvent(tick=120, data=[18, 175, 42]),
   midi.SetTempoEvent(tick=120, data=[19, 18, 208]),
   midi.SetTempoEvent(tick=120, data=[17, 243, 151]),
   midi.SetTempoEvent(tick=7920, data=[18, 175, 42]),
   midi.SetTempoEvent(tick=840, data=[18, 175, 42]),
   midi.SetTempoEvent(tick=120, data=[19, 18, 208]),
   midi.SetTempoEvent(tick=120, data=[19, 18, 208]),
   midi.SetTempoEvent(tick=120, data=[19, 18, 208]),
   midi.SetTempoEvent(tick=120, data=[19, 18, 208]),
   midi.SetTempoEvent(tick=120, data=[19, 231, 28]),
   midi.SetTempoEvent(tick=120, data=[19, 122, 180]),
   midi.SetTempoEvent(tick=120, data=[19, 18, 208]),
   midi.SetTempoEvent(tick=120, data=[19, 18, 208]),
   midi.SetTempoEvent(tick=120, data=[18, 175, 42]),
   midi.SetTempoEvent(tick=120, data=[18, 79, 128]),
   midi.SetTempoEvent(tick=120, data=[17, 243, 151]),
   midi.SetTempoEvent(tick=840, data=[18, 79, 128]),
   midi.SetTempoEvent(tick=120, data=[18, 79, 128]),
   midi.SetTempoEvent(tick=120, data=[18, 175, 42]),
   midi.SetTempoEvent(tick=120, data=[19, 18, 208]),
   midi.SetTempoEvent(tick=120, data=[19, 18, 208]),
   midi.SetTempoEvent(tick=120, data=[17, 243, 151]),
   midi.SetTempoEvent(tick=8040, data=[18, 79, 128]),
   midi.SetTempoEvent(tick=120, data=[18, 175, 42]),
   midi.SetTempoEvent(tick=120, data=[19, 18, 208]),
   midi.SetTempoEvent(tick=120, data=[19, 18, 208]),
   midi.SetTempoEvent(tick=120, data=[19, 122, 180]),
   midi.SetTempoEvent(tick=120, data=[17, 243, 151]),
   midi.SetTempoEvent(tick=9480, data=[17, 243, 151]),
   midi.SetTempoEvent(tick=120, data=[17, 243, 151]),
   midi.SetTempoEvent(tick=120, data=[18, 79, 128]),
   midi.SetTempoEvent(tick=120, data=[18, 79, 128]),
   midi.SetTempoEvent(tick=120, data=[18, 79, 128]),
   midi.SetTempoEvent(tick=120, data=[18, 175, 42]),
   midi.SetTempoEvent(tick=120, data=[18, 175, 42]),
   midi.SetTempoEvent(tick=120, data=[18, 175, 42]),
   midi.SetTempoEvent(tick=120, data=[19, 18, 208]),
   midi.SetTempoEvent(tick=120, data=[19, 18, 208]),
   midi.SetTempoEvent(tick=120, data=[19, 18, 208]),
   midi.SetTempoEvent(tick=240, data=[19, 18, 208]),
   midi.SetTempoEvent(tick=120, data=[19, 18, 208]),
   midi.SetTempoEvent(tick=120, data=[19, 122, 180]),
   midi.SetTempoEvent(tick=120, data=[19, 122, 180]),
   midi.SetTempoEvent(tick=120, data=[19, 122, 180]),
   midi.SetTempoEvent(tick=120, data=[19, 231, 28]),
   midi.SetTempoEvent(tick=120, data=[19, 231, 28]),
   midi.SetTempoEvent(tick=120, data=[20, 88, 85]),
   midi.SetTempoEvent(tick=120, data=[20, 206, 180]),
   midi.SetTempoEvent(tick=120, data=[20, 206, 180]),
   midi.SetTempoEvent(tick=120, data=[21, 74, 149]),
   midi.SetTempoEvent(tick=120, data=[22, 227, 96]),
   midi.SetTempoEvent(tick=720, data=[19, 231, 28]),
   midi.EndOfTrackEvent(tick=0, data=[])]),
 midi.Track(\
  [midi.ProgramChangeEvent(tick=0, channel=0, data=[73]),
   midi.ControlChangeEvent(tick=0, channel=0, data=[7, 89]),
   midi.ControlChangeEvent(tick=0, channel=0, data=[91, 70]),
   midi.ControlChangeEvent(tick=0, channel=0, data=[10, 54]),
   midi.NoteOnEvent(tick=2040, channel=0, data=[84, 70]),
   midi.NoteOffEvent(tick=96, channel=0, data=[84, 64]),
   midi.NoteOnEvent(tick=24, channel=0, data=[84, 70]),
   midi.NoteOffEvent(tick=240, channel=0, data=[84, 64]),
   midi.NoteOnEvent(tick=0, channel=0, data=[83, 70]),
   midi.NoteOffEvent(tick=144, channel=0, data=[83, 64]),
   midi.NoteOnEvent(tick=36, channel=0, data=[86, 70]),
   midi.NoteOffEvent(tick=39, channel=0, data=[86, 64]),
   midi.NoteOnEvent(tick=21, channel=0, data=[84, 70]),
   midi.NoteOffEvent(tick=180, channel=0, data=[84, 64]),
   midi.NoteOnEvent(tick=0, channel=0, data=[88, 70]),
   midi.NoteOffEvent(tick=48, channel=0, data=[88, 64]),
   midi.NoteOnEvent(tick=12, channel=0, data=[88, 70]),
   midi.NoteOffEvent(tick=240, channel=0, data=[88, 64]),
   midi.NoteOnEvent(tick=0, channel=0, data=[86, 58]),
   midi.NoteOffEvent(tick=96, channel=0, data=[86, 64]),
   midi.NoteOnEvent(tick=3984, channel=0, data=[81, 58]),
   midi.NoteOffEvent(tick=1632, channel=0, data=[81, 64]),
   midi.NoteOnEvent(tick=4848, channel=0, data=[88, 70]),
   midi.NoteOffEvent(tick=240, channel=0, data=[88, 64]),
   midi.NoteOnEvent(tick=0, channel=0, data=[86, 70]),
   midi.NoteOffEvent(tick=240, channel=0, data=[86, 64]),
   midi.NoteOnEvent(tick=0, channel=0, data=[85, 70]),
   midi.NoteOffEvent(tick=240, channel=0, data=[85, 64]),
   midi.NoteOnEvent(tick=0, channel=0, data=[86, 58]),
   midi.NoteOffEvent(tick=192, channel=0, data=[86, 64]),
   midi.NoteOnEvent(tick=1008, channel=0, data=[85, 70]),
   midi.NoteOffEvent(tick=240, channel=0, data=[85, 64]),
   midi.NoteOnEvent(tick=0, channel=0, data=[86, 70]),
   midi.NoteOffEvent(tick=192, channel=0, data=[86, 64]),
   midi.NoteOnEvent(tick=1008, channel=0, data=[85, 70]),
   midi.NoteOffEvent(tick=240, channel=0, data=[85, 64]),
   midi.NoteOnEvent(tick=0, channel=0, data=[86, 70]),
   midi.NoteOffEvent(tick=96, channel=0, data=[86, 64]),
   midi.NoteOnEvent(tick=24, channel=0, data=[78, 70]),
   midi.NoteOffEvent(tick=96, channel=0, data=[78, 64]),
   midi.NoteOnEvent(tick=24, channel=0, data=[79, 58]),
   midi.NoteOffEvent(tick=15, channel=0, data=[79, 64]),
   midi.NoteOnEvent(tick=0, channel=0, data=[78, 58]),
   midi.NoteOffEvent(tick=15, channel=0, data=[78, 64]),
   midi.NoteOnEvent(tick=0, channel=0, data=[79, 58]),
   midi.NoteOffEvent(tick=15, channel=0, data=[79, 64]),
   midi.NoteOnEvent(tick=0, channel=0, data=[78, 58]),
   midi.NoteOffEvent(tick=15, channel=0, data=[78, 64]),
   midi.NoteOnEvent(tick=0, channel=0, data=[79, 58]),
   midi.NoteOffEvent(tick=15, channel=0, data=[79, 64]),
   midi.NoteOnEvent(tick=0, channel=0, data=[78, 58]),
   midi.NoteOffEvent(tick=15, channel=0, data=[78, 64]),
   midi.NoteOnEvent(tick=0, channel=0, data=[79, 58]),
   midi.NoteOffEvent(tick=15, channel=0, data=[79, 64]),
   midi.NoteOnEvent(tick=0, channel=0, data=[78, 58]),
   midi.NoteOffEvent(tick=15, channel=0, data=[78, 64]),
   midi.NoteOnEvent(tick=0, channel=0, data=[79, 58]),
   midi.NoteOffEvent(tick=15, channel=0, data=[79, 64]),
   midi.NoteOnEvent(tick=0, channel=0, data=[78, 58]),
   midi.NoteOffEvent(tick=15, channel=0, data=[78, 64]),
   midi.NoteOnEvent(tick=0, channel=0, data=[79, 58]),
   midi.NoteOffEvent(tick=15, channel=0, data=[79, 64]),
   midi.NoteOnEvent(tick=0, channel=0, data=[78, 58]),
   midi.NoteOffEvent(tick=15, channel=0, data=[78, 64]),
   midi.NoteOnEvent(tick=0, channel=0, data=[76, 58]),
   midi.NoteOffEvent(tick=30, channel=0, data=[76, 64]),
   midi.NoteOnEvent(tick=0, channel=0, data=[78, 58]),
   midi.NoteOffEvent(tick=24, channel=0, data=[78, 64]),
   midi.NoteOnEvent(tick=6, channel=0, data=[81, 58]),
   midi.NoteOffEvent(tick=15, channel=0, data=[81, 64]),
   midi.NoteOnEvent(tick=0, channel=0, data=[79, 58]),
   midi.NoteOffEvent(tick=15, channel=0, data=[79, 64]),
   midi.NoteOnEvent(tick=0, channel=0, data=[81, 58]),
   midi.NoteOffEvent(tick=15, channel=0, data=[81, 64]),
   midi.NoteOnEvent(tick=0, channel=0, data=[79, 58]),
   midi.NoteOffEvent(tick=15, channel=0, data=[79, 64]),
   midi.NoteOnEvent(tick=0, channel=0, data=[81, 58]),
   midi.NoteOffEvent(tick=15, channel=0, data=[81, 64]),
   midi.NoteOnEvent(tick=0, channel=0, data=[79, 58]),
   midi.NoteOffEvent(tick=15, channel=0, data=[79, 64]),
   midi.NoteOnEvent(tick=0, channel=0, data=[81, 58]),
   midi.NoteOffEvent(tick=15, channel=0, data=[81, 64]),
   midi.NoteOnEvent(tick=0, channel=0, data=[79, 58]),
   midi.NoteOffEvent(tick=15, channel=0, data=[79, 64]),
   midi.NoteOnEvent(tick=0, channel=0, data=[81, 58]),
   midi.NoteOffEvent(tick=15, channel=0, data=[81, 64]),
   midi.NoteOnEvent(tick=0, channel=0, data=[79, 58]),
   midi.NoteOffEvent(tick=15, channel=0, data=[79, 64]),
   midi.NoteOnEvent(tick=0, channel=0, data=[81, 58]),
   midi.NoteOffEvent(tick=15, channel=0, data=[81, 64]),
   midi.NoteOnEvent(tick=0, channel=0, data=[79, 58]),
   midi.NoteOffEvent(tick=15, channel=0, data=[79, 64]),
   midi.NoteOnEvent(tick=0, channel=0, data=[78, 58]),
   midi.NoteOffEvent(tick=30, channel=0, data=[78, 64]),
   midi.NoteOnEvent(tick=0, channel=0, data=[79, 58]),
   midi.NoteOffEvent(tick=24, channel=0, data=[79, 64]),
   midi.NoteOnEvent(tick=6, channel=0, data=[83, 58]),
   midi.NoteOffEvent(tick=15, channel=0, data=[83, 64]),
   midi.NoteOnEvent(tick=0, channel=0, data=[81, 58]),
   midi.NoteOffEvent(tick=15, channel=0, data=[81, 64]),
   midi.NoteOnEvent(tick=0, channel=0, data=[83, 58]),
   midi.NoteOffEvent(tick=15, channel=0, data=[83, 64]),
   midi.NoteOnEvent(tick=0, channel=0, data=[81, 58]),
   midi.NoteOffEvent(tick=15, channel=0, data=[81, 64]),
   midi.NoteOnEvent(tick=0, channel=0, data=[83, 58]),
   midi.NoteOffEvent(tick=15, channel=0, data=[83, 64]),
   midi.NoteOnEvent(tick=0, channel=0, data=[81, 58]),
   midi.NoteOffEvent(tick=15, channel=0, data=[81, 64]),
   midi.NoteOnEvent(tick=0, channel=0, data=[83, 58]),
   midi.NoteOffEvent(tick=15, channel=0, data=[83, 64]),
   midi.NoteOnEvent(tick=0, channel=0, data=[81, 58]),
   midi.NoteOffEvent(tick=15, channel=0, data=[81, 64]),
   midi.NoteOnEvent(tick=0, channel=0, data=[83, 58]),
   midi.NoteOffEvent(tick=15, channel=0, data=[83, 64]),
   midi.NoteOnEvent(tick=0, channel=0, data=[81, 58]),
   midi.NoteOffEvent(tick=15, channel=0, data=[81, 64]),
   midi.NoteOnEvent(tick=0, channel=0, data=[83, 58]),
   midi.NoteOffEvent(tick=15, channel=0, data=[83, 64]),
   midi.NoteOnEvent(tick=0, channel=0, data=[81, 58]),
   midi.NoteOffEvent(tick=15, channel=0, data=[81, 64]),
   midi.NoteOnEvent(tick=0, channel=0, data=[79, 58]),
   midi.NoteOffEvent(tick=30, channel=0, data=[79, 64]),
   midi.NoteOnEvent(tick=0, channel=0, data=[81, 58]),
   midi.NoteOffEvent(tick=24, channel=0, data=[81, 64]),
   midi.NoteOnEvent(tick=6, channel=0, data=[84, 58]),
   midi.NoteOffEvent(tick=15, channel=0, data=[84, 64]),
   midi.NoteOnEvent(tick=0, channel=0, data=[83, 58]),
   midi.NoteOffEvent(tick=15, channel=0, data=[83, 64]),
   midi.NoteOnEvent(tick=0, channel=0, data=[84, 58]),
   midi.NoteOffEvent(tick=15, channel=0, data=[84, 64]),
   midi.NoteOnEvent(tick=0, channel=0, data=[83, 58]),
   midi.NoteOffEvent(tick=15, channel=0, data=[83, 64]),
   midi.NoteOnEvent(tick=0, channel=0, data=[84, 58]),
   midi.NoteOffEvent(tick=15, channel=0, data=[84, 64]),
   midi.NoteOnEvent(tick=0, channel=0, data=[83, 58]),
   midi.NoteOffEvent(tick=15, channel=0, data=[83, 64]),
   midi.NoteOnEvent(tick=0, channel=0, data=[84, 58]),
   midi.NoteOffEvent(tick=15, channel=0, data=[84, 64]),
   midi.NoteOnEvent(tick=0, channel=0, data=[83, 58]),
   midi.NoteOffEvent(tick=15, channel=0, data=[83, 64]),
   midi.NoteOnEvent(tick=0, channel=0, data=[84, 58]),
   midi.NoteOffEvent(tick=15, channel=0, data=[84, 64]),
   midi.NoteOnEvent(tick=0, channel=0, data=[83, 58]),
   midi.NoteOffEvent(tick=15, channel=0, data=[83, 64]),
   midi.NoteOnEvent(tick=0, channel=0, data=[84, 58]),
   midi.NoteOffEvent(tick=15, channel=0, data=[84, 64]),
   midi.NoteOnEvent(tick=0, channel=0, data=[83, 58]),
   midi.NoteOffEvent(tick=15, channel=0, data=[83, 64]),
   midi.NoteOnEvent(tick=0, channel=0, data=[81, 58]),
   midi.NoteOffEvent(tick=30, channel=0, data=[81, 64]),
   midi.NoteOnEvent(tick=0, channel=0, data=[83, 58]),
   midi.NoteOffEvent(tick=24, channel=0, data=[83, 64]),
   midi.NoteOnEvent(tick=6, channel=0, data=[86, 58]),
   midi.NoteOffEvent(tick=15, channel=0, data=[86, 64]),
   midi.NoteOnEvent(tick=0, channel=0, data=[85, 58]),
   midi.NoteOffEvent(tick=15, channel=0, data=[85, 64]),
   midi.NoteOnEvent(tick=0, channel=0, data=[86, 58]),
   midi.NoteOffEvent(tick=15, channel=0, data=[86, 64]),
   midi.NoteOnEvent(tick=0, channel=0, data=[85, 58]),
   midi.NoteOffEvent(tick=15, channel=0, data=[85, 64]),
   midi.NoteOnEvent(tick=0, channel=0, data=[86, 58]),
   midi.NoteOffEvent(tick=15, channel=0, data=[86, 64]),
   midi.NoteOnEvent(tick=0, channel=0, data=[85, 58]),
   midi.NoteOffEvent(tick=15, channel=0, data=[85, 64]),
   midi.NoteOnEvent(tick=0, channel=0, data=[86, 58]),
   midi.NoteOffEvent(tick=15, channel=0, data=[86, 64]),
   midi.NoteOnEvent(tick=0, channel=0, data=[85, 58]),
   midi.NoteOffEvent(tick=15, channel=0, data=[85, 64]),
   midi.NoteOnEvent(tick=0, channel=0, data=[86, 58]),
   midi.NoteOffEvent(tick=15, channel=0, data=[86, 64]),
   midi.NoteOnEvent(tick=0, channel=0, data=[85, 58]),
   midi.NoteOffEvent(tick=15, channel=0, data=[85, 64]),
   midi.NoteOnEvent(tick=0, channel=0, data=[86, 58]),
   midi.NoteOffEvent(tick=15, channel=0, data=[86, 64]),
   midi.NoteOnEvent(tick=0, channel=0, data=[85, 58]),
   midi.NoteOffEvent(tick=15, channel=0, data=[85, 64]),
   midi.NoteOnEvent(tick=0, channel=0, data=[83, 58]),
   midi.NoteOffEvent(tick=30, channel=0, data=[83, 64]),
   midi.NoteOnEvent(tick=0, channel=0, data=[85, 58]),
   midi.NoteOffEvent(tick=24, channel=0, data=[85, 64]),
   midi.NoteOnEvent(tick=6, channel=0, data=[85, 58]),
   midi.NoteOffEvent(tick=240, channel=0, data=[85, 64]),
   midi.NoteOnEvent(tick=0, channel=0, data=[86, 58]),
   midi.NoteOffEvent(tick=96, channel=0, data=[86, 64]),
   midi.NoteOnEvent(tick=1704, channel=0, data=[84, 70]),
   midi.NoteOffEvent(tick=96, channel=0, data=[84, 64]),
   midi.NoteOnEvent(tick=24, channel=0, data=[84, 70]),
   midi.NoteOffEvent(tick=240, channel=0, data=[84, 64]),
   midi.NoteOnEvent(tick=0, channel=0, data=[83, 70]),
   midi.NoteOffEvent(tick=144, channel=0, data=[83, 64]),
   midi.NoteOnEvent(tick=36, channel=0, data=[86, 70]),
   midi.NoteOffEvent(tick=39, channel=0, data=[86, 64]),
   midi.NoteOnEvent(tick=21, channel=0, data=[84, 70]),
   midi.NoteOffEvent(tick=180, channel=0, data=[84, 64]),
   midi.NoteOnEvent(tick=0, channel=0, data=[88, 70]),
   midi.NoteOffEvent(tick=48, channel=0, data=[88, 64]),
   midi.NoteOnEvent(tick=12, channel=0, data=[88, 70]),
   midi.NoteOffEvent(tick=240, channel=0, data=[88, 64]),
   midi.NoteOnEvent(tick=0, channel=0, data=[86, 58]),
   midi.NoteOffEvent(tick=96, channel=0, data=[86, 64]),
   midi.NoteOnEvent(tick=3984, channel=0, data=[81, 58]),
   midi.NoteOffEvent(tick=1632, channel=0, data=[81, 64]),
   midi.NoteOnEvent(tick=4848, channel=0, data=[88, 70]),
   midi.NoteOffEvent(tick=240, channel=0, data=[88, 64]),
   midi.NoteOnEvent(tick=0, channel=0, data=[86, 70]),
   midi.NoteOffEvent(tick=240, channel=0, data=[86, 64]),
   midi.NoteOnEvent(tick=0, channel=0, data=[85, 70]),
   midi.NoteOffEvent(tick=240, channel=0, data=[85, 64]),
   midi.NoteOnEvent(tick=0, channel=0, data=[86, 58]),
   midi.NoteOffEvent(tick=192, channel=0, data=[86, 64]),
   midi.NoteOnEvent(tick=1008, channel=0, data=[85, 70]),
   midi.NoteOffEvent(tick=240, channel=0, data=[85, 64]),
   midi.NoteOnEvent(tick=0, channel=0, data=[86, 70]),
   midi.NoteOffEvent(tick=192, channel=0, data=[86, 64]),
   midi.NoteOnEvent(tick=1008, channel=0, data=[85, 70]),
   midi.NoteOffEvent(tick=240, channel=0, data=[85, 64]),
   midi.NoteOnEvent(tick=0, channel=0, data=[86, 70]),
   midi.NoteOffEvent(tick=96, channel=0, data=[86, 64]),
   midi.NoteOnEvent(tick=24, channel=0, data=[78, 70]),
   midi.NoteOffEvent(tick=96, channel=0, data=[78, 64]),
   midi.NoteOnEvent(tick=24, channel=0, data=[79, 58]),
   midi.NoteOffEvent(tick=15, channel=0, data=[79, 64]),
   midi.NoteOnEvent(tick=0, channel=0, data=[78, 58]),
   midi.NoteOffEvent(tick=15, channel=0, data=[78, 64]),
   midi.NoteOnEvent(tick=0, channel=0, data=[79, 58]),
   midi.NoteOffEvent(tick=15, channel=0, data=[79, 64]),
   midi.NoteOnEvent(tick=0, channel=0, data=[78, 58]),
   midi.NoteOffEvent(tick=15, channel=0, data=[78, 64]),
   midi.NoteOnEvent(tick=0, channel=0, data=[79, 58]),
   midi.NoteOffEvent(tick=15, channel=0, data=[79, 64]),
   midi.NoteOnEvent(tick=0, channel=0, data=[78, 58]),
   midi.NoteOffEvent(tick=15, channel=0, data=[78, 64]),
   midi.NoteOnEvent(tick=0, channel=0, data=[79, 58]),
   midi.NoteOffEvent(tick=15, channel=0, data=[79, 64]),
   midi.NoteOnEvent(tick=0, channel=0, data=[78, 58]),
   midi.NoteOffEvent(tick=15, channel=0, data=[78, 64]),
   midi.NoteOnEvent(tick=0, channel=0, data=[79, 58]),
   midi.NoteOffEvent(tick=15, channel=0, data=[79, 64]),
   midi.NoteOnEvent(tick=0, channel=0, data=[78, 58]),
   midi.NoteOffEvent(tick=15, channel=0, data=[78, 64]),
   midi.NoteOnEvent(tick=0, channel=0, data=[79, 58]),
   midi.NoteOffEvent(tick=15, channel=0, data=[79, 64]),
   midi.NoteOnEvent(tick=0, channel=0, data=[78, 58]),
   midi.NoteOffEvent(tick=15, channel=0, data=[78, 64]),
   midi.NoteOnEvent(tick=0, channel=0, data=[76, 58]),
   midi.NoteOffEvent(tick=30, channel=0, data=[76, 64]),
   midi.NoteOnEvent(tick=0, channel=0, data=[78, 58]),
   midi.NoteOffEvent(tick=24, channel=0, data=[78, 64]),
   midi.NoteOnEvent(tick=6, channel=0, data=[81, 58]),
   midi.NoteOffEvent(tick=15, channel=0, data=[81, 64]),
   midi.NoteOnEvent(tick=0, channel=0, data=[79, 58]),
   midi.NoteOffEvent(tick=15, channel=0, data=[79, 64]),
   midi.NoteOnEvent(tick=0, channel=0, data=[81, 58]),
   midi.NoteOffEvent(tick=15, channel=0, data=[81, 64]),
   midi.NoteOnEvent(tick=0, channel=0, data=[79, 58]),
   midi.NoteOffEvent(tick=15, channel=0, data=[79, 64]),
   midi.NoteOnEvent(tick=0, channel=0, data=[81, 58]),
   midi.NoteOffEvent(tick=15, channel=0, data=[81, 64]),
   midi.NoteOnEvent(tick=0, channel=0, data=[79, 58]),
   midi.NoteOffEvent(tick=15, channel=0, data=[79, 64]),
   midi.NoteOnEvent(tick=0, channel=0, data=[81, 58]),
   midi.NoteOffEvent(tick=15, channel=0, data=[81, 64]),
   midi.NoteOnEvent(tick=0, channel=0, data=[79, 58]),
   midi.NoteOffEvent(tick=15, channel=0, data=[79, 64]),
   midi.NoteOnEvent(tick=0, channel=0, data=[81, 58]),
   midi.NoteOffEvent(tick=15, channel=0, data=[81, 64]),
   midi.NoteOnEvent(tick=0, channel=0, data=[79, 58]),
   midi.NoteOffEvent(tick=15, channel=0, data=[79, 64]),
   midi.NoteOnEvent(tick=0, channel=0, data=[81, 58]),
   midi.NoteOffEvent(tick=15, channel=0, data=[81, 64]),
   midi.NoteOnEvent(tick=0, channel=0, data=[79, 58]),
   midi.NoteOffEvent(tick=15, channel=0, data=[79, 64]),
   midi.NoteOnEvent(tick=0, channel=0, data=[78, 58]),
   midi.NoteOffEvent(tick=30, channel=0, data=[78, 64]),
   midi.NoteOnEvent(tick=0, channel=0, data=[79, 58]),
   midi.NoteOffEvent(tick=24, channel=0, data=[79, 64]),
   midi.NoteOnEvent(tick=6, channel=0, data=[83, 58]),
   midi.NoteOffEvent(tick=15, channel=0, data=[83, 64]),
   midi.NoteOnEvent(tick=0, channel=0, data=[81, 58]),
   midi.NoteOffEvent(tick=15, channel=0, data=[81, 64]),
   midi.NoteOnEvent(tick=0, channel=0, data=[83, 58]),
   midi.NoteOffEvent(tick=15, channel=0, data=[83, 64]),
   midi.NoteOnEvent(tick=0, channel=0, data=[81, 58]),
   midi.NoteOffEvent(tick=15, channel=0, data=[81, 64]),
   midi.NoteOnEvent(tick=0, channel=0, data=[83, 58]),
   midi.NoteOffEvent(tick=15, channel=0, data=[83, 64]),
   midi.NoteOnEvent(tick=0, channel=0, data=[81, 58]),
   midi.NoteOffEvent(tick=15, channel=0, data=[81, 64]),
   midi.NoteOnEvent(tick=0, channel=0, data=[83, 58]),
   midi.NoteOffEvent(tick=15, channel=0, data=[83, 64]),
   midi.NoteOnEvent(tick=0, channel=0, data=[81, 58]),
   midi.NoteOffEvent(tick=15, channel=0, data=[81, 64]),
   midi.NoteOnEvent(tick=0, channel=0, data=[83, 58]),
   midi.NoteOffEvent(tick=15, channel=0, data=[83, 64]),
   midi.NoteOnEvent(tick=0, channel=0, data=[81, 58]),
   midi.NoteOffEvent(tick=15, channel=0, data=[81, 64]),
   midi.NoteOnEvent(tick=0, channel=0, data=[83, 58]),
   midi.NoteOffEvent(tick=15, channel=0, data=[83, 64]),
   midi.NoteOnEvent(tick=0, channel=0, data=[81, 58]),
   midi.NoteOffEvent(tick=15, channel=0, data=[81, 64]),
   midi.NoteOnEvent(tick=0, channel=0, data=[79, 58]),
   midi.NoteOffEvent(tick=30, channel=0, data=[79, 64]),
   midi.NoteOnEvent(tick=0, channel=0, data=[81, 58]),
   midi.NoteOffEvent(tick=24, channel=0, data=[81, 64]),
   midi.NoteOnEvent(tick=6, channel=0, data=[84, 58]),
   midi.NoteOffEvent(tick=15, channel=0, data=[84, 64]),
   midi.NoteOnEvent(tick=0, channel=0, data=[83, 58]),
   midi.NoteOffEvent(tick=15, channel=0, data=[83, 64]),
   midi.NoteOnEvent(tick=0, channel=0, data=[84, 58]),
   midi.NoteOffEvent(tick=15, channel=0, data=[84, 64]),
   midi.NoteOnEvent(tick=0, channel=0, data=[83, 58]),
   midi.NoteOffEvent(tick=15, channel=0, data=[83, 64]),
   midi.NoteOnEvent(tick=0, channel=0, data=[84, 58]),
   midi.NoteOffEvent(tick=15, channel=0, data=[84, 64]),
   midi.NoteOnEvent(tick=0, channel=0, data=[83, 58]),
   midi.NoteOffEvent(tick=15, channel=0, data=[83, 64]),
   midi.NoteOnEvent(tick=0, channel=0, data=[84, 58]),
   midi.NoteOffEvent(tick=15, channel=0, data=[84, 64]),
   midi.NoteOnEvent(tick=0, channel=0, data=[83, 58]),
   midi.NoteOffEvent(tick=15, channel=0, data=[83, 64]),
   midi.NoteOnEvent(tick=0, channel=0, data=[84, 58]),
   midi.NoteOffEvent(tick=15, channel=0, data=[84, 64]),
   midi.NoteOnEvent(tick=0, channel=0, data=[83, 58]),
   midi.NoteOffEvent(tick=15, channel=0, data=[83, 64]),
   midi.NoteOnEvent(tick=0, channel=0, data=[84, 58]),
   midi.NoteOffEvent(tick=15, channel=0, data=[84, 64]),
   midi.NoteOnEvent(tick=0, channel=0, data=[83, 58]),
   midi.NoteOffEvent(tick=15, channel=0, data=[83, 64]),
   midi.NoteOnEvent(tick=0, channel=0, data=[81, 58]),
   midi.NoteOffEvent(tick=30, channel=0, data=[81, 64]),
   midi.NoteOnEvent(tick=0, channel=0, data=[83, 58]),
   midi.NoteOffEvent(tick=24, channel=0, data=[83, 64]),
   midi.NoteOnEvent(tick=6, channel=0, data=[86, 58]),
   midi.NoteOffEvent(tick=15, channel=0, data=[86, 64]),
   midi.NoteOnEvent(tick=0, channel=0, data=[85, 58]),
   midi.NoteOffEvent(tick=15, channel=0, data=[85, 64]),
   midi.NoteOnEvent(tick=0, channel=0, data=[86, 58]),
   midi.NoteOffEvent(tick=15, channel=0, data=[86, 64]),
   midi.NoteOnEvent(tick=0, channel=0, data=[85, 58]),
   midi.NoteOffEvent(tick=15, channel=0, data=[85, 64]),
   midi.NoteOnEvent(tick=0, channel=0, data=[86, 58]),
   midi.NoteOffEvent(tick=15, channel=0, data=[86, 64]),
   midi.NoteOnEvent(tick=0, channel=0, data=[85, 58]),
   midi.NoteOffEvent(tick=15, channel=0, data=[85, 64]),
   midi.NoteOnEvent(tick=0, channel=0, data=[86, 58]),
   midi.NoteOffEvent(tick=15, channel=0, data=[86, 64]),
   midi.NoteOnEvent(tick=0, channel=0, data=[85, 58]),
   midi.NoteOffEvent(tick=15, channel=0, data=[85, 64]),
   midi.NoteOnEvent(tick=0, channel=0, data=[86, 58]),
   midi.NoteOffEvent(tick=15, channel=0, data=[86, 64]),
   midi.NoteOnEvent(tick=0, channel=0, data=[85, 58]),
   midi.NoteOffEvent(tick=15, channel=0, data=[85, 64]),
   midi.NoteOnEvent(tick=0, channel=0, data=[86, 58]),
   midi.NoteOffEvent(tick=15, channel=0, data=[86, 64]),
   midi.NoteOnEvent(tick=0, channel=0, data=[85, 58]),
   midi.NoteOffEvent(tick=15, channel=0, data=[85, 64]),
   midi.NoteOnEvent(tick=0, channel=0, data=[83, 58]),
   midi.NoteOffEvent(tick=30, channel=0, data=[83, 64]),
   midi.NoteOnEvent(tick=0, channel=0, data=[85, 58]),
   midi.NoteOffEvent(tick=24, channel=0, data=[85, 64]),
   midi.NoteOnEvent(tick=6, channel=0, data=[85, 58]),
   midi.NoteOffEvent(tick=240, channel=0, data=[85, 64]),
   midi.NoteOnEvent(tick=0, channel=0, data=[86, 30]),
   midi.NoteOffEvent(tick=96, channel=0, data=[86, 64]),
   midi.NoteOnEvent(tick=264, channel=0, data=[74, 105]),
   midi.NoteOffEvent(tick=96, channel=0, data=[74, 64]),
   midi.NoteOnEvent(tick=24, channel=0, data=[74, 105]),
   midi.NoteOffEvent(tick=144, channel=0, data=[74, 64]),
   midi.NoteOnEvent(tick=36, channel=0, data=[76, 105]),
   midi.NoteOffEvent(tick=36, channel=0, data=[76, 64]),
   midi.NoteOnEvent(tick=24, channel=0, data=[77, 105]),
   midi.NoteOffEvent(tick=72, channel=0, data=[77, 64]),
   midi.NoteOnEvent(tick=48, channel=0, data=[74, 105]),
   midi.NoteOffEvent(tick=72, channel=0, data=[74, 64]),
   midi.NoteOnEvent(tick=48, channel=0, data=[71, 105]),
   midi.NoteOffEvent(tick=72, channel=0, data=[71, 64]),
   midi.NoteOnEvent(tick=48, channel=0, data=[69, 105]),
   midi.NoteOffEvent(tick=72, channel=0, data=[69, 64]),
   midi.NoteOnEvent(tick=48, channel=0, data=[68, 105]),
   midi.NoteOffEvent(tick=66, channel=0, data=[68, 64]),
   midi.NoteOnEvent(tick=54, channel=0, data=[71, 105]),
   midi.NoteOffEvent(tick=66, channel=0, data=[71, 64]),
   midi.NoteOnEvent(tick=54, channel=0, data=[76, 105]),
   midi.NoteOffEvent(tick=192, channel=0, data=[76, 64]),
   midi.NoteOnEvent(tick=1368, channel=0, data=[88, 70]),
   midi.NoteOffEvent(tick=48, channel=0, data=[88, 64]),
   midi.NoteOnEvent(tick=12, channel=0, data=[86, 70]),
   midi.NoteOffEvent(tick=48, channel=0, data=[86, 64]),
   midi.NoteOnEvent(tick=12, channel=0, data=[84, 80]),
   midi.NoteOffEvent(tick=48, channel=0, data=[84, 64]),
   midi.NoteOnEvent(tick=12, channel=0, data=[83, 80]),
   midi.NoteOffEvent(tick=48, channel=0, data=[83, 64]),
   midi.NoteOnEvent(tick=12, channel=0, data=[84, 92]),
   midi.NoteOffEvent(tick=48, channel=0, data=[84, 64]),
   midi.NoteOnEvent(tick=12, channel=0, data=[81, 92]),
   midi.NoteOffEvent(tick=48, channel=0, data=[81, 64]),
   midi.NoteOnEvent(tick=12, channel=0, data=[79, 92]),
   midi.NoteOffEvent(tick=78, channel=0, data=[79, 64]),
   midi.NoteOnEvent(tick=42, channel=0, data=[74, 92]),
   midi.NoteOffEvent(tick=32, channel=0, data=[74, 64]),
   midi.NoteOnEvent(tick=8, channel=0, data=[76, 92]),
   midi.NoteOffEvent(tick=32, channel=0, data=[76, 64]),
   midi.NoteOnEvent(tick=8, channel=0, data=[74, 92]),
   midi.NoteOffEvent(tick=32, channel=0, data=[74, 64]),
   midi.NoteOnEvent(tick=8, channel=0, data=[79, 92]),
   midi.NoteOffEvent(tick=78, channel=0, data=[79, 64]),
   midi.NoteOnEvent(tick=42, channel=0, data=[74, 92]),
   midi.NoteOffEvent(tick=32, channel=0, data=[74, 64]),
   midi.NoteOnEvent(tick=8, channel=0, data=[76, 92]),
   midi.NoteOffEvent(tick=32, channel=0, data=[76, 64]),
   midi.NoteOnEvent(tick=8, channel=0, data=[74, 92]),
   midi.NoteOffEvent(tick=32, channel=0, data=[74, 64]),
   midi.NoteOnEvent(tick=8, channel=0, data=[79, 92]),
   midi.NoteOffEvent(tick=78, channel=0, data=[79, 64]),
   midi.NoteOnEvent(tick=42, channel=0, data=[81, 92]),
   midi.NoteOffEvent(tick=78, channel=0, data=[81, 64]),
   midi.NoteOnEvent(tick=42, channel=0, data=[83, 92]),
   midi.NoteOffEvent(tick=78, channel=0, data=[83, 64]),
   midi.NoteOnEvent(tick=42, channel=0, data=[79, 92]),
   midi.NoteOffEvent(tick=40, channel=0, data=[79, 64]),
   midi.NoteOnEvent(tick=0, channel=0, data=[81, 92]),
   midi.NoteOffEvent(tick=40, channel=0, data=[81, 64]),
   midi.NoteOnEvent(tick=0, channel=0, data=[79, 92]),
   midi.NoteOffEvent(tick=32, channel=0, data=[79, 64]),
   midi.NoteOnEvent(tick=8, channel=0, data=[83, 92]),
   midi.NoteOffEvent(tick=78, channel=0, data=[83, 64]),
   midi.NoteOnEvent(tick=42, channel=0, data=[79, 92]),
   midi.NoteOffEvent(tick=40, channel=0, data=[79, 64]),
   midi.NoteOnEvent(tick=0, channel=0, data=[81, 92]),
   midi.NoteOffEvent(tick=40, channel=0, data=[81, 64]),
   midi.NoteOnEvent(tick=0, channel=0, data=[79, 92]),
   midi.NoteOffEvent(tick=32, channel=0, data=[79, 64]),
   midi.NoteOnEvent(tick=8, channel=0, data=[83, 92]),
   midi.NoteOffEvent(tick=96, channel=0, data=[83, 64]),
   midi.NoteOnEvent(tick=24, channel=0, data=[84, 92]),
   midi.NoteOffEvent(tick=78, channel=0, data=[84, 64]),
   midi.NoteOnEvent(tick=42, channel=0, data=[86, 92]),
   midi.NoteOffEvent(tick=576, channel=0, data=[86, 64]),
   midi.NoteOnEvent(tick=24, channel=0, data=[83, 92]),
   midi.NoteOffEvent(tick=48, channel=0, data=[83, 64]),
   midi.NoteOnEvent(tick=12, channel=0, data=[79, 105]),
   midi.NoteOffEvent(tick=48, channel=0, data=[79, 64]),
   midi.NoteOnEvent(tick=12, channel=0, data=[86, 105]),
   midi.NoteOffEvent(tick=96, channel=0, data=[86, 64]),
   midi.NoteOnEvent(tick=24, channel=0, data=[83, 105]),
   midi.NoteOffEvent(tick=48, channel=0, data=[83, 64]),
   midi.NoteOnEvent(tick=12, channel=0, data=[79, 105]),
   midi.NoteOffEvent(tick=48, channel=0, data=[79, 64]),
   midi.NoteOnEvent(tick=12, channel=0, data=[74, 105]),
   midi.NoteOffEvent(tick=192, channel=0, data=[74, 64]),
   midi.NoteOnEvent(tick=888, channel=0, data=[86, 70]),
   midi.NoteOffEvent(tick=96, channel=0, data=[86, 64]),
   midi.NoteOnEvent(tick=24, channel=0, data=[84, 70]),
   midi.NoteOffEvent(tick=120, channel=0, data=[84, 64]),
   midi.NoteOnEvent(tick=0, channel=0, data=[84, 70]),
   midi.NoteOffEvent(tick=15, channel=0, data=[84, 64]),
   midi.NoteOnEvent(tick=0, channel=0, data=[82, 70]),
   midi.NoteOffEvent(tick=15, channel=0, data=[82, 64]),
   midi.NoteOnEvent(tick=0, channel=0, data=[84, 70]),
   midi.NoteOffEvent(tick=15, channel=0, data=[84, 64]),
   midi.NoteOnEvent(tick=0, channel=0, data=[82, 70]),
   midi.NoteOffEvent(tick=15, channel=0, data=[82, 64]),
   midi.NoteOnEvent(tick=0, channel=0, data=[84, 70]),
   midi.NoteOffEvent(tick=15, channel=0, data=[84, 64]),
   midi.NoteOnEvent(tick=0, channel=0, data=[82, 70]),
   midi.NoteOffEvent(tick=15, channel=0, data=[82, 64]),
   midi.NoteOnEvent(tick=0, channel=0, data=[84, 70]),
   midi.NoteOffEvent(tick=15, channel=0, data=[84, 64]),
   midi.NoteOnEvent(tick=0, channel=0, data=[82, 70]),
   midi.NoteOffEvent(tick=12, channel=0, data=[82, 64]),
   midi.NoteOnEvent(tick=3, channel=0, data=[81, 70]),
   midi.NoteOffEvent(tick=60, channel=0, data=[81, 64]),
   midi.NoteOnEvent(tick=60, channel=0, data=[74, 70]),
   midi.NoteOffEvent(tick=78, channel=0, data=[74, 64]),
   midi.NoteOnEvent(tick=42, channel=0, data=[83, 70]),
   midi.NoteOffEvent(tick=78, channel=0, data=[83, 64]),
   midi.NoteOnEvent(tick=42, channel=0, data=[79, 70]),
   midi.NoteOffEvent(tick=78, channel=0, data=[79, 64]),
   midi.NoteOnEvent(tick=42, channel=0, data=[84, 90]),
   midi.NoteOffEvent(tick=144, channel=0, data=[84, 64]),
   midi.NoteOnEvent(tick=36, channel=0, data=[86, 70]),
   midi.NoteOffEvent(tick=36, channel=0, data=[86, 64]),
   midi.NoteOnEvent(tick=24, channel=0, data=[84, 70]),
   midi.NoteOffEvent(tick=72, channel=0, data=[84, 64]),
   midi.NoteOnEvent(tick=48, channel=0, data=[83, 70]),
   midi.NoteOffEvent(tick=72, channel=0, data=[83, 64]),
   midi.NoteOnEvent(tick=48, channel=0, data=[81, 70]),
   midi.NoteOffEvent(tick=72, channel=0, data=[81, 64]),
   midi.NoteOnEvent(tick=48, channel=0, data=[79, 70]),
   midi.NoteOffEvent(tick=72, channel=0, data=[79, 64]),
   midi.NoteOnEvent(tick=48, channel=0, data=[86, 58]),
   midi.NoteOffEvent(tick=1632, channel=0, data=[86, 64]),
   midi.NoteOnEvent(tick=2988, channel=0, data=[74, 70]),
   midi.NoteOffEvent(tick=36, channel=0, data=[74, 64]),
   midi.NoteOnEvent(tick=24, channel=0, data=[76, 70]),
   midi.NoteOffEvent(tick=36, channel=0, data=[76, 64]),
   midi.NoteOnEvent(tick=24, channel=0, data=[78, 70]),
   midi.NoteOffEvent(tick=36, channel=0, data=[78, 64]),
   midi.NoteOnEvent(tick=24, channel=0, data=[79, 70]),
   midi.NoteOffEvent(tick=36, channel=0, data=[79, 64]),
   midi.NoteOnEvent(tick=24, channel=0, data=[81, 70]),
   midi.NoteOffEvent(tick=36, channel=0, data=[81, 64]),
   midi.NoteOnEvent(tick=24, channel=0, data=[83, 70]),
   midi.NoteOffEvent(tick=36, channel=0, data=[83, 64]),
   midi.NoteOnEvent(tick=24, channel=0, data=[84, 70]),
   midi.NoteOffEvent(tick=36, channel=0, data=[84, 64]),
   midi.NoteOnEvent(tick=24, channel=0, data=[83, 70]),
   midi.NoteOffEvent(tick=144, channel=0, data=[83, 64]),
   midi.NoteOnEvent(tick=36, channel=0, data=[84, 70]),
   midi.NoteOffEvent(tick=48, channel=0, data=[84, 64]),
   midi.NoteOnEvent(tick=12, channel=0, data=[86, 70]),
   midi.NoteOffEvent(tick=120, channel=0, data=[86, 64]),
   midi.NoteOnEvent(tick=0, channel=0, data=[88, 70]),
   midi.NoteOffEvent(tick=120, channel=0, data=[88, 64]),
   midi.NoteOnEvent(tick=0, channel=0, data=[81, 70]),
   midi.NoteOffEvent(tick=120, channel=0, data=[81, 64]),
   midi.NoteOnEvent(tick=0, channel=0, data=[86, 70]),
   midi.NoteOffEvent(tick=96, channel=0, data=[86, 64]),
   midi.NoteOnEvent(tick=24, channel=0, data=[79, 70]),
   midi.NoteOffEvent(tick=144, channel=0, data=[79, 64]),
   midi.NoteOnEvent(tick=36, channel=0, data=[81, 70]),
   midi.NoteOffEvent(tick=24, channel=0, data=[81, 64]),
   midi.NoteOnEvent(tick=6, channel=0, data=[83, 70]),
   midi.NoteOffEvent(tick=24, channel=0, data=[83, 64]),
   midi.NoteOnEvent(tick=6, channel=0, data=[84, 70]),
   midi.NoteOffEvent(tick=360, channel=0, data=[84, 64]),
   midi.NoteOnEvent(tick=0, channel=0, data=[83, 70]),
   midi.NoteOffEvent(tick=96, channel=0, data=[83, 64]),
   midi.NoteOnEvent(tick=24, channel=0, data=[88, 70]),
   midi.NoteOffEvent(tick=96, channel=0, data=[88, 64]),
   midi.NoteOnEvent(tick=24, channel=0, data=[88, 70]),
   midi.NoteOffEvent(tick=48, channel=0, data=[88, 64]),
   midi.NoteOnEvent(tick=12, channel=0, data=[87, 70]),
   midi.NoteOffEvent(tick=48, channel=0, data=[87, 64]),
   midi.NoteOnEvent(tick=12, channel=0, data=[88, 70]),
   midi.NoteOffEvent(tick=288, channel=0, data=[88, 64]),
   midi.NoteOnEvent(tick=72, channel=0, data=[84, 70]),
   midi.NoteOffEvent(tick=60, channel=0, data=[84, 64]),
   midi.NoteOnEvent(tick=0, channel=0, data=[81, 70]),
   midi.NoteOffEvent(tick=48, channel=0, data=[81, 64]),
   midi.NoteOnEvent(tick=12, channel=0, data=[86, 58]),
   midi.NoteOffEvent(tick=96, channel=0, data=[86, 64]),
   midi.NoteOnEvent(tick=24, channel=0, data=[86, 58]),
   midi.NoteOffEvent(tick=48, channel=0, data=[86, 64]),
   midi.NoteOnEvent(tick=12, channel=0, data=[85, 58]),
   midi.NoteOffEvent(tick=48, channel=0, data=[85, 64]),
   midi.NoteOnEvent(tick=12, channel=0, data=[86, 58]),
   midi.NoteOffEvent(tick=300, channel=0, data=[86, 64]),
   midi.NoteOnEvent(tick=0, channel=0, data=[84, 58]),
   midi.NoteOffEvent(tick=60, channel=0, data=[84, 64]),
   midi.NoteOnEvent(tick=0, channel=0, data=[83, 58]),
   midi.NoteOffEvent(tick=60, channel=0, data=[83, 64]),
   midi.NoteOnEvent(tick=0, channel=0, data=[81, 58]),
   midi.NoteOffEvent(tick=48, channel=0, data=[81, 64]),
   midi.NoteOnEvent(tick=12, channel=0, data=[79, 58]),
   midi.NoteOffEvent(tick=60, channel=0, data=[79, 64]),
   midi.NoteOnEvent(tick=0, channel=0, data=[81, 58]),
   midi.NoteOffEvent(tick=60, channel=0, data=[81, 64]),
   midi.NoteOnEvent(tick=0, channel=0, data=[83, 58]),
   midi.NoteOffEvent(tick=60, channel=0, data=[83, 64]),
   midi.NoteOnEvent(tick=0, channel=0, data=[79, 58]),
   midi.NoteOffEvent(tick=60, channel=0, data=[79, 64]),
   midi.NoteOnEvent(tick=0, channel=0, data=[81, 58]),
   midi.NoteOffEvent(tick=60, channel=0, data=[81, 64]),
   midi.NoteOnEvent(tick=0, channel=0, data=[83, 58]),
   midi.NoteOffEvent(tick=60, channel=0, data=[83, 64]),
   midi.NoteOnEvent(tick=0, channel=0, data=[84, 58]),
   midi.NoteOffEvent(tick=60, channel=0, data=[84, 64]),
   midi.NoteOnEvent(tick=0, channel=0, data=[81, 58]),
   midi.NoteOffEvent(tick=60, channel=0, data=[81, 64]),
   midi.NoteOnEvent(tick=0, channel=0, data=[78, 58]),
   midi.NoteOffEvent(tick=60, channel=0, data=[78, 64]),
   midi.NoteOnEvent(tick=0, channel=0, data=[79, 58]),
   midi.NoteOffEvent(tick=60, channel=0, data=[79, 64]),
   midi.NoteOnEvent(tick=0, channel=0, data=[81, 58]),
   midi.NoteOffEvent(tick=60, channel=0, data=[81, 64]),
   midi.NoteOnEvent(tick=0, channel=0, data=[78, 58]),
   midi.NoteOffEvent(tick=48, channel=0, data=[78, 64]),
   midi.NoteOnEvent(tick=12, channel=0, data=[79, 78]),
   midi.NoteOffEvent(tick=192, channel=0, data=[79, 64]),
   midi.NoteOnEvent(tick=1008, channel=0, data=[78, 78]),
   midi.NoteOffEvent(tick=240, channel=0, data=[78, 64]),
   midi.NoteOnEvent(tick=0, channel=0, data=[79, 78]),
   midi.NoteOffEvent(tick=192, channel=0, data=[79, 64]),
   midi.NoteOnEvent(tick=1008, channel=0, data=[84, 58]),
   midi.NoteOffEvent(tick=240, channel=0, data=[84, 64]),
   midi.NoteOnEvent(tick=0, channel=0, data=[83, 58]),
   midi.NoteOffEvent(tick=96, channel=0, data=[83, 64]),
   midi.NoteOnEvent(tick=24, channel=0, data=[71, 58]),
   midi.NoteOffEvent(tick=96, channel=0, data=[71, 64]),
   midi.NoteOnEvent(tick=24, channel=0, data=[72, 58]),
   midi.NoteOffEvent(tick=15, channel=0, data=[72, 64]),
   midi.NoteOnEvent(tick=0, channel=0, data=[71, 58]),
   midi.NoteOffEvent(tick=15, channel=0, data=[71, 64]),
   midi.NoteOnEvent(tick=0, channel=0, data=[72, 58]),
   midi.NoteOffEvent(tick=15, channel=0, data=[72, 64]),
   midi.NoteOnEvent(tick=0, channel=0, data=[71, 58]),
   midi.NoteOffEvent(tick=15, channel=0, data=[71, 64]),
   midi.NoteOnEvent(tick=0, channel=0, data=[72, 58]),
   midi.NoteOffEvent(tick=15, channel=0, data=[72, 64]),
   midi.NoteOnEvent(tick=0, channel=0, data=[71, 58]),
   midi.NoteOffEvent(tick=15, channel=0, data=[71, 64]),
   midi.NoteOnEvent(tick=0, channel=0, data=[72, 58]),
   midi.NoteOffEvent(tick=15, channel=0, data=[72, 64]),
   midi.NoteOnEvent(tick=0, channel=0, data=[71, 58]),
   midi.NoteOffEvent(tick=15, channel=0, data=[71, 64]),
   midi.NoteOnEvent(tick=0, channel=0, data=[72, 58]),
   midi.NoteOffEvent(tick=15, channel=0, data=[72, 64]),
   midi.NoteOnEvent(tick=0, channel=0, data=[71, 58]),
   midi.NoteOffEvent(tick=15, channel=0, data=[71, 64]),
   midi.NoteOnEvent(tick=0, channel=0, data=[72, 58]),
   midi.NoteOffEvent(tick=15, channel=0, data=[72, 64]),
   midi.NoteOnEvent(tick=0, channel=0, data=[71, 58]),
   midi.NoteOffEvent(tick=15, channel=0, data=[71, 64]),
   midi.NoteOnEvent(tick=0, channel=0, data=[69, 58]),
   midi.NoteOffEvent(tick=30, channel=0, data=[69, 64]),
   midi.NoteOnEvent(tick=0, channel=0, data=[71, 58]),
   midi.NoteOffEvent(tick=24, channel=0, data=[71, 64]),
   midi.NoteOnEvent(tick=6, channel=0, data=[74, 58]),
   midi.NoteOffEvent(tick=15, channel=0, data=[74, 64]),
   midi.NoteOnEvent(tick=0, channel=0, data=[72, 58]),
   midi.NoteOffEvent(tick=15, channel=0, data=[72, 64]),
   midi.NoteOnEvent(tick=0, channel=0, data=[74, 58]),
   midi.NoteOffEvent(tick=15, channel=0, data=[74, 64]),
   midi.NoteOnEvent(tick=0, channel=0, data=[72, 58]),
   midi.NoteOffEvent(tick=15, channel=0, data=[72, 64]),
   midi.NoteOnEvent(tick=0, channel=0, data=[74, 58]),
   midi.NoteOffEvent(tick=15, channel=0, data=[74, 64]),
   midi.NoteOnEvent(tick=0, channel=0, data=[72, 58]),
   midi.NoteOffEvent(tick=15, channel=0, data=[72, 64]),
   midi.NoteOnEvent(tick=0, channel=0, data=[74, 58]),
   midi.NoteOffEvent(tick=15, channel=0, data=[74, 64]),
   midi.NoteOnEvent(tick=0, channel=0, data=[72, 58]),
   midi.NoteOffEvent(tick=15, channel=0, data=[72, 64]),
   midi.NoteOnEvent(tick=0, channel=0, data=[74, 58]),
   midi.NoteOffEvent(tick=15, channel=0, data=[74, 64]),
   midi.NoteOnEvent(tick=0, channel=0, data=[72, 58]),
   midi.NoteOffEvent(tick=15, channel=0, data=[72, 64]),
   midi.NoteOnEvent(tick=0, channel=0, data=[74, 58]),
   midi.NoteOffEvent(tick=15, channel=0, data=[74, 64]),
   midi.NoteOnEvent(tick=0, channel=0, data=[72, 58]),
   midi.NoteOffEvent(tick=15, channel=0, data=[72, 64]),
   midi.NoteOnEvent(tick=0, channel=0, data=[71, 58]),
   midi.NoteOffEvent(tick=30, channel=0, data=[71, 64]),
   midi.NoteOnEvent(tick=0, channel=0, data=[72, 58]),
   midi.NoteOffEvent(tick=24, channel=0, data=[72, 64]),
   midi.NoteOnEvent(tick=6, channel=0, data=[76, 70]),
   midi.NoteOffEvent(tick=15, channel=0, data=[76, 64]),
   midi.NoteOnEvent(tick=0, channel=0, data=[74, 70]),
   midi.NoteOffEvent(tick=15, channel=0, data=[74, 64]),
   midi.NoteOnEvent(tick=0, channel=0, data=[76, 70]),
   midi.NoteOffEvent(tick=15, channel=0, data=[76, 64]),
   midi.NoteOnEvent(tick=0, channel=0, data=[74, 70]),
   midi.NoteOffEvent(tick=15, channel=0, data=[74, 64]),
   midi.NoteOnEvent(tick=0, channel=0, data=[76, 70]),
   midi.NoteOffEvent(tick=15, channel=0, data=[76, 64]),
   midi.NoteOnEvent(tick=0, channel=0, data=[74, 70]),
   midi.NoteOffEvent(tick=15, channel=0, data=[74, 64]),
   midi.NoteOnEvent(tick=0, channel=0, data=[76, 70]),
   midi.NoteOffEvent(tick=15, channel=0, data=[76, 64]),
   midi.NoteOnEvent(tick=0, channel=0, data=[74, 70]),
   midi.NoteOffEvent(tick=15, channel=0, data=[74, 64]),
   midi.NoteOnEvent(tick=0, channel=0, data=[76, 70]),
   midi.NoteOffEvent(tick=15, channel=0, data=[76, 64]),
   midi.NoteOnEvent(tick=0, channel=0, data=[74, 70]),
   midi.NoteOffEvent(tick=15, channel=0, data=[74, 64]),
   midi.NoteOnEvent(tick=0, channel=0, data=[76, 70]),
   midi.NoteOffEvent(tick=15, channel=0, data=[76, 64]),
   midi.NoteOnEvent(tick=0, channel=0, data=[74, 70]),
   midi.NoteOffEvent(tick=15, channel=0, data=[74, 64]),
   midi.NoteOnEvent(tick=0, channel=0, data=[72, 70]),
   midi.NoteOffEvent(tick=30, channel=0, data=[72, 64]),
   midi.NoteOnEvent(tick=0, channel=0, data=[74, 70]),
   midi.NoteOffEvent(tick=24, channel=0, data=[74, 64]),
   midi.NoteOnEvent(tick=6, channel=0, data=[78, 70]),
   midi.NoteOffEvent(tick=15, channel=0, data=[78, 64]),
   midi.NoteOnEvent(tick=0, channel=0, data=[76, 70]),
   midi.NoteOffEvent(tick=15, channel=0, data=[76, 64]),
   midi.NoteOnEvent(tick=0, channel=0, data=[78, 70]),
   midi.NoteOffEvent(tick=15, channel=0, data=[78, 64]),
   midi.NoteOnEvent(tick=0, channel=0, data=[76, 70]),
   midi.NoteOffEvent(tick=15, channel=0, data=[76, 64]),
   midi.NoteOnEvent(tick=0, channel=0, data=[78, 70]),
   midi.NoteOffEvent(tick=15, channel=0, data=[78, 64]),
   midi.NoteOnEvent(tick=0, channel=0, data=[76, 70]),
   midi.NoteOffEvent(tick=15, channel=0, data=[76, 64]),
   midi.NoteOnEvent(tick=0, channel=0, data=[78, 70]),
   midi.NoteOffEvent(tick=15, channel=0, data=[78, 64]),
   midi.NoteOnEvent(tick=0, channel=0, data=[76, 70]),
   midi.NoteOffEvent(tick=15, channel=0, data=[76, 64]),
   midi.NoteOnEvent(tick=0, channel=0, data=[78, 70]),
   midi.NoteOffEvent(tick=15, channel=0, data=[78, 64]),
   midi.NoteOnEvent(tick=0, channel=0, data=[76, 70]),
   midi.NoteOffEvent(tick=15, channel=0, data=[76, 64]),
   midi.NoteOnEvent(tick=0, channel=0, data=[78, 70]),
   midi.NoteOffEvent(tick=15, channel=0, data=[78, 64]),
   midi.NoteOnEvent(tick=0, channel=0, data=[76, 70]),
   midi.NoteOffEvent(tick=15, channel=0, data=[76, 64]),
   midi.NoteOnEvent(tick=0, channel=0, data=[74, 80]),
   midi.NoteOffEvent(tick=30, channel=0, data=[74, 64]),
   midi.NoteOnEvent(tick=0, channel=0, data=[76, 80]),
   midi.NoteOffEvent(tick=24, channel=0, data=[76, 64]),
   midi.NoteOnEvent(tick=6, channel=0, data=[79, 80]),
   midi.NoteOffEvent(tick=15, channel=0, data=[79, 64]),
   midi.NoteOnEvent(tick=0, channel=0, data=[78, 80]),
   midi.NoteOffEvent(tick=15, channel=0, data=[78, 64]),
   midi.NoteOnEvent(tick=0, channel=0, data=[79, 80]),
   midi.NoteOffEvent(tick=15, channel=0, data=[79, 64]),
   midi.NoteOnEvent(tick=0, channel=0, data=[78, 80]),
   midi.NoteOffEvent(tick=15, channel=0, data=[78, 64]),
   midi.NoteOnEvent(tick=0, channel=0, data=[79, 80]),
   midi.NoteOffEvent(tick=15, channel=0, data=[79, 64]),
   midi.NoteOnEvent(tick=0, channel=0, data=[78, 80]),
   midi.NoteOffEvent(tick=15, channel=0, data=[78, 64]),
   midi.NoteOnEvent(tick=0, channel=0, data=[79, 80]),
   midi.NoteOffEvent(tick=15, channel=0, data=[79, 64]),
   midi.NoteOnEvent(tick=0, channel=0, data=[78, 80]),
   midi.NoteOffEvent(tick=15, channel=0, data=[78, 64]),
   midi.NoteOnEvent(tick=0, channel=0, data=[79, 80]),
   midi.NoteOffEvent(tick=15, channel=0, data=[79, 64]),
   midi.NoteOnEvent(tick=0, channel=0, data=[78, 80]),
   midi.NoteOffEvent(tick=15, channel=0, data=[78, 64]),
   midi.NoteOnEvent(tick=0, channel=0, data=[79, 80]),
   midi.NoteOffEvent(tick=15, channel=0, data=[79, 64]),
   midi.NoteOnEvent(tick=0, channel=0, data=[78, 80]),
   midi.NoteOffEvent(tick=15, channel=0, data=[78, 64]),
   midi.NoteOnEvent(tick=0, channel=0, data=[76, 80]),
   midi.NoteOffEvent(tick=30, channel=0, data=[76, 64]),
   midi.NoteOnEvent(tick=0, channel=0, data=[78, 80]),
   midi.NoteOffEvent(tick=24, channel=0, data=[78, 64]),
   midi.NoteOnEvent(tick=6, channel=0, data=[81, 80]),
   midi.NoteOffEvent(tick=15, channel=0, data=[81, 64]),
   midi.NoteOnEvent(tick=0, channel=0, data=[79, 80]),
   midi.NoteOffEvent(tick=15, channel=0, data=[79, 64]),
   midi.NoteOnEvent(tick=0, channel=0, data=[81, 80]),
   midi.NoteOffEvent(tick=15, channel=0, data=[81, 64]),
   midi.NoteOnEvent(tick=0, channel=0, data=[79, 80]),
   midi.NoteOffEvent(tick=15, channel=0, data=[79, 64]),
   midi.NoteOnEvent(tick=0, channel=0, data=[81, 80]),
   midi.NoteOffEvent(tick=15, channel=0, data=[81, 64]),
   midi.NoteOnEvent(tick=0, channel=0, data=[79, 80]),
   midi.NoteOffEvent(tick=15, channel=0, data=[79, 64]),
   midi.NoteOnEvent(tick=0, channel=0, data=[81, 80]),
   midi.NoteOffEvent(tick=15, channel=0, data=[81, 64]),
   midi.NoteOnEvent(tick=0, channel=0, data=[79, 80]),
   midi.NoteOffEvent(tick=15, channel=0, data=[79, 64]),
   midi.NoteOnEvent(tick=0, channel=0, data=[81, 80]),
   midi.NoteOffEvent(tick=15, channel=0, data=[81, 64]),
   midi.NoteOnEvent(tick=0, channel=0, data=[79, 80]),
   midi.NoteOffEvent(tick=15, channel=0, data=[79, 64]),
   midi.NoteOnEvent(tick=0, channel=0, data=[81, 80]),
   midi.NoteOffEvent(tick=15, channel=0, data=[81, 64]),
   midi.NoteOnEvent(tick=0, channel=0, data=[79, 80]),
   midi.NoteOffEvent(tick=15, channel=0, data=[79, 64]),
   midi.NoteOnEvent(tick=0, channel=0, data=[78, 92]),
   midi.NoteOffEvent(tick=30, channel=0, data=[78, 64]),
   midi.NoteOnEvent(tick=0, channel=0, data=[79, 92]),
   midi.NoteOffEvent(tick=24, channel=0, data=[79, 64]),
   midi.NoteOnEvent(tick=6, channel=0, data=[83, 92]),
   midi.NoteOffEvent(tick=15, channel=0, data=[83, 64]),
   midi.NoteOnEvent(tick=0, channel=0, data=[81, 92]),
   midi.NoteOffEvent(tick=15, channel=0, data=[81, 64]),
   midi.NoteOnEvent(tick=0, channel=0, data=[83, 92]),
   midi.NoteOffEvent(tick=15, channel=0, data=[83, 64]),
   midi.NoteOnEvent(tick=0, channel=0, data=[81, 92]),
   midi.NoteOffEvent(tick=15, channel=0, data=[81, 64]),
   midi.NoteOnEvent(tick=0, channel=0, data=[83, 92]),
   midi.NoteOffEvent(tick=15, channel=0, data=[83, 64]),
   midi.NoteOnEvent(tick=0, channel=0, data=[81, 92]),
   midi.NoteOffEvent(tick=15, channel=0, data=[81, 64]),
   midi.NoteOnEvent(tick=0, channel=0, data=[83, 92]),
   midi.NoteOffEvent(tick=15, channel=0, data=[83, 64]),
   midi.NoteOnEvent(tick=0, channel=0, data=[81, 92]),
   midi.NoteOffEvent(tick=15, channel=0, data=[81, 64]),
   midi.NoteOnEvent(tick=0, channel=0, data=[83, 92]),
   midi.NoteOffEvent(tick=15, channel=0, data=[83, 64]),
   midi.NoteOnEvent(tick=0, channel=0, data=[81, 92]),
   midi.NoteOffEvent(tick=15, channel=0, data=[81, 64]),
   midi.NoteOnEvent(tick=0, channel=0, data=[83, 92]),
   midi.NoteOffEvent(tick=15, channel=0, data=[83, 64]),
   midi.NoteOnEvent(tick=0, channel=0, data=[81, 92]),
   midi.NoteOffEvent(tick=15, channel=0, data=[81, 64]),
   midi.NoteOnEvent(tick=0, channel=0, data=[79, 105]),
   midi.NoteOffEvent(tick=30, channel=0, data=[79, 64]),
   midi.NoteOnEvent(tick=0, channel=0, data=[81, 105]),
   midi.NoteOffEvent(tick=24, channel=0, data=[81, 64]),
   midi.NoteOnEvent(tick=6, channel=0, data=[84, 105]),
   midi.NoteOffEvent(tick=12, channel=0, data=[84, 64]),
   midi.NoteOnEvent(tick=3, channel=0, data=[83, 105]),
   midi.NoteOffEvent(tick=12, channel=0, data=[83, 64]),
   midi.NoteOnEvent(tick=3, channel=0, data=[84, 105]),
   midi.NoteOffEvent(tick=12, channel=0, data=[84, 64]),
   midi.NoteOnEvent(tick=3, channel=0, data=[83, 105]),
   midi.NoteOffEvent(tick=12, channel=0, data=[83, 64]),
   midi.NoteOnEvent(tick=3, channel=0, data=[84, 105]),
   midi.NoteOffEvent(tick=12, channel=0, data=[84, 64]),
   midi.NoteOnEvent(tick=3, channel=0, data=[83, 105]),
   midi.NoteOffEvent(tick=12, channel=0, data=[83, 64]),
   midi.NoteOnEvent(tick=3, channel=0, data=[84, 105]),
   midi.NoteOffEvent(tick=12, channel=0, data=[84, 64]),
   midi.NoteOnEvent(tick=3, channel=0, data=[83, 105]),
   midi.NoteOffEvent(tick=12, channel=0, data=[83, 64]),
   midi.NoteOnEvent(tick=3, channel=0, data=[84, 105]),
   midi.NoteOffEvent(tick=12, channel=0, data=[84, 64]),
   midi.NoteOnEvent(tick=3, channel=0, data=[83, 105]),
   midi.NoteOffEvent(tick=12, channel=0, data=[83, 64]),
   midi.NoteOnEvent(tick=3, channel=0, data=[84, 105]),
   midi.NoteOffEvent(tick=12, channel=0, data=[84, 64]),
   midi.NoteOnEvent(tick=3, channel=0, data=[83, 105]),
   midi.NoteOffEvent(tick=12, channel=0, data=[83, 64]),
   midi.NoteOnEvent(tick=3, channel=0, data=[81, 105]),
   midi.NoteOffEvent(tick=24, channel=0, data=[81, 64]),
   midi.NoteOnEvent(tick=6, channel=0, data=[83, 105]),
   midi.NoteOffEvent(tick=24, channel=0, data=[83, 64]),
   midi.NoteOnEvent(tick=6, channel=0, data=[84, 105]),
   midi.NoteOffEvent(tick=192, channel=0, data=[84, 64]),
   midi.NoteOnEvent(tick=408, channel=0, data=[84, 58]),
   midi.NoteOffEvent(tick=78, channel=0, data=[84, 64]),
   midi.NoteOnEvent(tick=42, channel=0, data=[84, 58]),
   midi.NoteOffEvent(tick=480, channel=0, data=[84, 64]),
   midi.NoteOnEvent(tick=0, channel=0, data=[83, 58]),
   midi.NoteOffEvent(tick=120, channel=0, data=[83, 64]),
   midi.EndOfTrackEvent(tick=0, data=[])]),
 midi.Track(\
  [midi.ProgramChangeEvent(tick=0, channel=1, data=[68]),
   midi.ControlChangeEvent(tick=0, channel=1, data=[7, 89]),
   midi.ControlChangeEvent(tick=0, channel=1, data=[10, 64]),
   midi.ControlChangeEvent(tick=0, channel=1, data=[91, 70]),
   midi.NoteOnEvent(tick=2040, channel=1, data=[81, 70]),
   midi.NoteOffEvent(tick=96, channel=1, data=[81, 64]),
   midi.NoteOnEvent(tick=24, channel=1, data=[81, 70]),
   midi.NoteOffEvent(tick=240, channel=1, data=[81, 64]),
   midi.NoteOnEvent(tick=0, channel=1, data=[79, 70]),
   midi.NoteOffEvent(tick=144, channel=1, data=[79, 64]),
   midi.NoteOnEvent(tick=36, channel=1, data=[83, 70]),
   midi.NoteOffEvent(tick=39, channel=1, data=[83, 64]),
   midi.NoteOnEvent(tick=21, channel=1, data=[81, 70]),
   midi.NoteOffEvent(tick=180, channel=1, data=[81, 64]),
   midi.NoteOnEvent(tick=0, channel=1, data=[84, 70]),
   midi.NoteOffEvent(tick=48, channel=1, data=[84, 64]),
   midi.NoteOnEvent(tick=12, channel=1, data=[84, 70]),
   midi.NoteOffEvent(tick=240, channel=1, data=[84, 64]),
   midi.NoteOnEvent(tick=0, channel=1, data=[83, 58]),
   midi.NoteOffEvent(tick=96, channel=1, data=[83, 64]),
   midi.NoteOnEvent(tick=3984, channel=1, data=[69, 58]),
   midi.NoteOffEvent(tick=1632, channel=1, data=[69, 64]),
   midi.NoteOnEvent(tick=2988, channel=1, data=[69, 70]),
   midi.NoteOffEvent(tick=36, channel=1, data=[69, 64]),
   midi.NoteOnEvent(tick=24, channel=1, data=[71, 70]),
   midi.NoteOffEvent(tick=36, channel=1, data=[71, 64]),
   midi.NoteOnEvent(tick=24, channel=1, data=[73, 70]),
   midi.NoteOffEvent(tick=36, channel=1, data=[73, 64]),
   midi.NoteOnEvent(tick=24, channel=1, data=[74, 70]),
   midi.NoteOffEvent(tick=36, channel=1, data=[74, 64]),
   midi.NoteOnEvent(tick=24, channel=1, data=[76, 70]),
   midi.NoteOffEvent(tick=36, channel=1, data=[76, 64]),
   midi.NoteOnEvent(tick=24, channel=1, data=[78, 70]),
   midi.NoteOffEvent(tick=36, channel=1, data=[78, 64]),
   midi.NoteOnEvent(tick=24, channel=1, data=[79, 70]),
   midi.NoteOffEvent(tick=36, channel=1, data=[79, 64]),
   midi.NoteOnEvent(tick=24, channel=1, data=[78, 70]),
   midi.NoteOffEvent(tick=144, channel=1, data=[78, 64]),
   midi.NoteOnEvent(tick=36, channel=1, data=[79, 70]),
   midi.NoteOffEvent(tick=48, channel=1, data=[79, 64]),
   midi.NoteOnEvent(tick=12, channel=1, data=[81, 70]),
   midi.NoteOffEvent(tick=120, channel=1, data=[81, 64]),
   midi.NoteOnEvent(tick=0, channel=1, data=[83, 70]),
   midi.NoteOffEvent(tick=120, channel=1, data=[83, 64]),
   midi.NoteOnEvent(tick=0, channel=1, data=[76, 70]),
   midi.NoteOffEvent(tick=120, channel=1, data=[76, 64]),
   midi.NoteOnEvent(tick=0, channel=1, data=[81, 70]),
   midi.NoteOffEvent(tick=96, channel=1, data=[81, 64]),
   midi.NoteOnEvent(tick=24, channel=1, data=[74, 70]),
   midi.NoteOffEvent(tick=157, channel=1, data=[74, 64]),
   midi.NoteOnEvent(tick=23, channel=1, data=[76, 70]),
   midi.NoteOffEvent(tick=26, channel=1, data=[76, 64]),
   midi.NoteOnEvent(tick=4, channel=1, data=[78, 70]),
   midi.NoteOffEvent(tick=26, channel=1, data=[78, 64]),
   midi.NoteOnEvent(tick=4, channel=1, data=[79, 70]),
   midi.NoteOffEvent(tick=360, channel=1, data=[79, 64]),
   midi.NoteOnEvent(tick=0, channel=1, data=[78, 70]),
   midi.NoteOffEvent(tick=96, channel=1, data=[78, 64]),
   midi.NoteOnEvent(tick=24, channel=1, data=[76, 70]),
   midi.NoteOffEvent(tick=144, channel=1, data=[76, 64]),
   midi.NoteOnEvent(tick=36, channel=1, data=[79, 70]),
   midi.NoteOffEvent(tick=60, channel=1, data=[79, 64]),
   midi.NoteOnEvent(tick=0, channel=1, data=[78, 70]),
   midi.NoteOffEvent(tick=192, channel=1, data=[78, 64]),
   midi.NoteOnEvent(tick=48, channel=1, data=[78, 70]),
   midi.NoteOffEvent(tick=15, channel=1, data=[78, 64]),
   midi.NoteOnEvent(tick=0, channel=1, data=[76, 70]),
   midi.NoteOffEvent(tick=15, channel=1, data=[76, 64]),
   midi.NoteOnEvent(tick=0, channel=1, data=[78, 70]),
   midi.NoteOffEvent(tick=15, channel=1, data=[78, 64]),
   midi.NoteOnEvent(tick=0, channel=1, data=[76, 70]),
   midi.NoteOffEvent(tick=15, channel=1, data=[76, 64]),
   midi.NoteOnEvent(tick=0, channel=1, data=[78, 70]),
   midi.NoteOffEvent(tick=15, channel=1, data=[78, 64]),
   midi.NoteOnEvent(tick=0, channel=1, data=[76, 70]),
   midi.NoteOffEvent(tick=15, channel=1, data=[76, 64]),
   midi.NoteOnEvent(tick=0, channel=1, data=[78, 70]),
   midi.NoteOffEvent(tick=15, channel=1, data=[78, 64]),
   midi.NoteOnEvent(tick=0, channel=1, data=[76, 70]),
   midi.NoteOffEvent(tick=15, channel=1, data=[76, 64]),
   midi.NoteOnEvent(tick=0, channel=1, data=[78, 70]),
   midi.NoteOffEvent(tick=15, channel=1, data=[78, 64]),
   midi.NoteOnEvent(tick=0, channel=1, data=[76, 70]),
   midi.NoteOffEvent(tick=15, channel=1, data=[76, 64]),
   midi.NoteOnEvent(tick=0, channel=1, data=[78, 70]),
   midi.NoteOffEvent(tick=15, channel=1, data=[78, 64]),
   midi.NoteOnEvent(tick=0, channel=1, data=[76, 70]),
   midi.NoteOffEvent(tick=15, channel=1, data=[76, 64]),
   midi.NoteOnEvent(tick=0, channel=1, data=[78, 70]),
   midi.NoteOffEvent(tick=15, channel=1, data=[78, 64]),
   midi.NoteOnEvent(tick=0, channel=1, data=[76, 70]),
   midi.NoteOffEvent(tick=15, channel=1, data=[76, 64]),
   midi.NoteOnEvent(tick=0, channel=1, data=[78, 70]),
   midi.NoteOffEvent(tick=15, channel=1, data=[78, 64]),
   midi.NoteOnEvent(tick=0, channel=1, data=[76, 70]),
   midi.NoteOffEvent(tick=15, channel=1, data=[76, 64]),
   midi.NoteOnEvent(tick=0, channel=1, data=[74, 58]),
   midi.NoteOffEvent(tick=192, channel=1, data=[74, 64]),
   midi.NoteOnEvent(tick=1008, channel=1, data=[79, 70]),
   midi.NoteOffEvent(tick=240, channel=1, data=[79, 64]),
   midi.NoteOnEvent(tick=0, channel=1, data=[78, 70]),
   midi.NoteOffEvent(tick=192, channel=1, data=[78, 64]),
   midi.NoteOnEvent(tick=1008, channel=1, data=[79, 70]),
   midi.NoteOffEvent(tick=240, channel=1, data=[79, 64]),
   midi.NoteOnEvent(tick=0, channel=1, data=[78, 70]),
   midi.NoteOffEvent(tick=96, channel=1, data=[78, 64]),
   midi.NoteOnEvent(tick=3384, channel=1, data=[81, 70]),
   midi.NoteOffEvent(tick=96, channel=1, data=[81, 64]),
   midi.NoteOnEvent(tick=24, channel=1, data=[81, 70]),
   midi.NoteOffEvent(tick=240, channel=1, data=[81, 64]),
   midi.NoteOnEvent(tick=0, channel=1, data=[79, 70]),
   midi.NoteOffEvent(tick=144, channel=1, data=[79, 64]),
   midi.NoteOnEvent(tick=36, channel=1, data=[83, 70]),
   midi.NoteOffEvent(tick=39, channel=1, data=[83, 64]),
   midi.NoteOnEvent(tick=21, channel=1, data=[81, 70]),
   midi.NoteOffEvent(tick=180, channel=1, data=[81, 64]),
   midi.NoteOnEvent(tick=0, channel=1, data=[84, 70]),
   midi.NoteOffEvent(tick=48, channel=1, data=[84, 64]),
   midi.NoteOnEvent(tick=12, channel=1, data=[84, 70]),
   midi.NoteOffEvent(tick=240, channel=1, data=[84, 64]),
   midi.NoteOnEvent(tick=0, channel=1, data=[83, 58]),
   midi.NoteOffEvent(tick=96, channel=1, data=[83, 64]),
   midi.NoteOnEvent(tick=3984, channel=1, data=[69, 58]),
   midi.NoteOffEvent(tick=1632, channel=1, data=[69, 64]),
   midi.NoteOnEvent(tick=2988, channel=1, data=[69, 70]),
   midi.NoteOffEvent(tick=36, channel=1, data=[69, 64]),
   midi.NoteOnEvent(tick=24, channel=1, data=[71, 70]),
   midi.NoteOffEvent(tick=36, channel=1, data=[71, 64]),
   midi.NoteOnEvent(tick=24, channel=1, data=[73, 70]),
   midi.NoteOffEvent(tick=36, channel=1, data=[73, 64]),
   midi.NoteOnEvent(tick=24, channel=1, data=[74, 70]),
   midi.NoteOffEvent(tick=36, channel=1, data=[74, 64]),
   midi.NoteOnEvent(tick=24, channel=1, data=[76, 70]),
   midi.NoteOffEvent(tick=36, channel=1, data=[76, 64]),
   midi.NoteOnEvent(tick=24, channel=1, data=[78, 70]),
   midi.NoteOffEvent(tick=36, channel=1, data=[78, 64]),
   midi.NoteOnEvent(tick=24, channel=1, data=[79, 70]),
   midi.NoteOffEvent(tick=36, channel=1, data=[79, 64]),
   midi.NoteOnEvent(tick=24, channel=1, data=[78, 70]),
   midi.NoteOffEvent(tick=144, channel=1, data=[78, 64]),
   midi.NoteOnEvent(tick=36, channel=1, data=[79, 70]),
   midi.NoteOffEvent(tick=48, channel=1, data=[79, 64]),
   midi.NoteOnEvent(tick=12, channel=1, data=[81, 70]),
   midi.NoteOffEvent(tick=120, channel=1, data=[81, 64]),
   midi.NoteOnEvent(tick=0, channel=1, data=[83, 70]),
   midi.NoteOffEvent(tick=120, channel=1, data=[83, 64]),
   midi.NoteOnEvent(tick=0, channel=1, data=[76, 70]),
   midi.NoteOffEvent(tick=120, channel=1, data=[76, 64]),
   midi.NoteOnEvent(tick=0, channel=1, data=[81, 70]),
   midi.NoteOffEvent(tick=96, channel=1, data=[81, 64]),
   midi.NoteOnEvent(tick=24, channel=1, data=[74, 70]),
   midi.NoteOffEvent(tick=157, channel=1, data=[74, 64]),
   midi.NoteOnEvent(tick=23, channel=1, data=[76, 70]),
   midi.NoteOffEvent(tick=26, channel=1, data=[76, 64]),
   midi.NoteOnEvent(tick=4, channel=1, data=[78, 70]),
   midi.NoteOffEvent(tick=26, channel=1, data=[78, 64]),
   midi.NoteOnEvent(tick=4, channel=1, data=[79, 70]),
   midi.NoteOffEvent(tick=360, channel=1, data=[79, 64]),
   midi.NoteOnEvent(tick=0, channel=1, data=[78, 70]),
   midi.NoteOffEvent(tick=96, channel=1, data=[78, 64]),
   midi.NoteOnEvent(tick=24, channel=1, data=[76, 70]),
   midi.NoteOffEvent(tick=144, channel=1, data=[76, 64]),
   midi.NoteOnEvent(tick=36, channel=1, data=[79, 70]),
   midi.NoteOffEvent(tick=60, channel=1, data=[79, 64]),
   midi.NoteOnEvent(tick=0, channel=1, data=[78, 70]),
   midi.NoteOffEvent(tick=192, channel=1, data=[78, 64]),
   midi.NoteOnEvent(tick=48, channel=1, data=[78, 70]),
   midi.NoteOffEvent(tick=15, channel=1, data=[78, 64]),
   midi.NoteOnEvent(tick=0, channel=1, data=[76, 70]),
   midi.NoteOffEvent(tick=15, channel=1, data=[76, 64]),
   midi.NoteOnEvent(tick=0, channel=1, data=[78, 70]),
   midi.NoteOffEvent(tick=15, channel=1, data=[78, 64]),
   midi.NoteOnEvent(tick=0, channel=1, data=[76, 70]),
   midi.NoteOffEvent(tick=15, channel=1, data=[76, 64]),
   midi.NoteOnEvent(tick=0, channel=1, data=[78, 70]),
   midi.NoteOffEvent(tick=15, channel=1, data=[78, 64]),
   midi.NoteOnEvent(tick=0, channel=1, data=[76, 70]),
   midi.NoteOffEvent(tick=15, channel=1, data=[76, 64]),
   midi.NoteOnEvent(tick=0, channel=1, data=[78, 70]),
   midi.NoteOffEvent(tick=15, channel=1, data=[78, 64]),
   midi.NoteOnEvent(tick=0, channel=1, data=[76, 70]),
   midi.NoteOffEvent(tick=15, channel=1, data=[76, 64]),
   midi.NoteOnEvent(tick=0, channel=1, data=[78, 70]),
   midi.NoteOffEvent(tick=15, channel=1, data=[78, 64]),
   midi.NoteOnEvent(tick=0, channel=1, data=[76, 70]),
   midi.NoteOffEvent(tick=15, channel=1, data=[76, 64]),
   midi.NoteOnEvent(tick=0, channel=1, data=[78, 70]),
   midi.NoteOffEvent(tick=15, channel=1, data=[78, 64]),
   midi.NoteOnEvent(tick=0, channel=1, data=[76, 70]),
   midi.NoteOffEvent(tick=15, channel=1, data=[76, 64]),
   midi.NoteOnEvent(tick=0, channel=1, data=[78, 70]),
   midi.NoteOffEvent(tick=15, channel=1, data=[78, 64]),
   midi.NoteOnEvent(tick=0, channel=1, data=[76, 70]),
   midi.NoteOffEvent(tick=15, channel=1, data=[76, 64]),
   midi.NoteOnEvent(tick=0, channel=1, data=[78, 70]),
   midi.NoteOffEvent(tick=15, channel=1, data=[78, 64]),
   midi.NoteOnEvent(tick=0, channel=1, data=[76, 70]),
   midi.NoteOffEvent(tick=15, channel=1, data=[76, 64]),
   midi.NoteOnEvent(tick=0, channel=1, data=[74, 58]),
   midi.NoteOffEvent(tick=192, channel=1, data=[74, 64]),
   midi.NoteOnEvent(tick=1008, channel=1, data=[79, 70]),
   midi.NoteOffEvent(tick=240, channel=1, data=[79, 64]),
   midi.NoteOnEvent(tick=0, channel=1, data=[78, 70]),
   midi.NoteOffEvent(tick=192, channel=1, data=[78, 64]),
   midi.NoteOnEvent(tick=1008, channel=1, data=[79, 70]),
   midi.NoteOffEvent(tick=240, channel=1, data=[79, 64]),
   midi.NoteOnEvent(tick=0, channel=1, data=[78, 70]),
   midi.NoteOffEvent(tick=96, channel=1, data=[78, 64]),
   midi.NoteOnEvent(tick=1944, channel=1, data=[62, 105]),
   midi.NoteOffEvent(tick=96, channel=1, data=[62, 64]),
   midi.NoteOnEvent(tick=24, channel=1, data=[74, 105]),
   midi.NoteOffEvent(tick=144, channel=1, data=[74, 64]),
   midi.NoteOnEvent(tick=36, channel=1, data=[76, 105]),
   midi.NoteOffEvent(tick=36, channel=1, data=[76, 64]),
   midi.NoteOnEvent(tick=24, channel=1, data=[77, 105]),
   midi.NoteOffEvent(tick=72, channel=1, data=[77, 64]),
   midi.NoteOnEvent(tick=48, channel=1, data=[74, 105]),
   midi.NoteOffEvent(tick=72, channel=1, data=[74, 64]),
   midi.NoteOnEvent(tick=48, channel=1, data=[71, 105]),
   midi.NoteOffEvent(tick=72, channel=1, data=[71, 64]),
   midi.NoteOnEvent(tick=48, channel=1, data=[69, 105]),
   midi.NoteOffEvent(tick=72, channel=1, data=[69, 64]),
   midi.NoteOnEvent(tick=48, channel=1, data=[68, 105]),
   midi.NoteOffEvent(tick=66, channel=1, data=[68, 64]),
   midi.NoteOnEvent(tick=54, channel=1, data=[71, 105]),
   midi.NoteOffEvent(tick=66, channel=1, data=[71, 64]),
   midi.NoteOnEvent(tick=54, channel=1, data=[76, 105]),
   midi.NoteOffEvent(tick=192, channel=1, data=[76, 64]),
   midi.NoteOnEvent(tick=1728, channel=1, data=[74, 70]),
   midi.NoteOffEvent(tick=2016, channel=1, data=[74, 64]),
   midi.NoteOnEvent(tick=24, channel=1, data=[71, 70]),
   midi.NoteOffEvent(tick=48, channel=1, data=[71, 64]),
   midi.NoteOnEvent(tick=12, channel=1, data=[67, 105]),
   midi.NoteOffEvent(tick=48, channel=1, data=[67, 64]),
   midi.NoteOnEvent(tick=12, channel=1, data=[74, 105]),
   midi.NoteOffEvent(tick=96, channel=1, data=[74, 64]),
   midi.NoteOnEvent(tick=24, channel=1, data=[71, 105]),
   midi.NoteOffEvent(tick=48, channel=1, data=[71, 64]),
   midi.NoteOnEvent(tick=12, channel=1, data=[67, 105]),
   midi.NoteOffEvent(tick=48, channel=1, data=[67, 64]),
   midi.NoteOnEvent(tick=12, channel=1, data=[62, 105]),
   midi.NoteOffEvent(tick=192, channel=1, data=[62, 64]),
   midi.NoteOnEvent(tick=888, channel=1, data=[82, 58]),
   midi.NoteOffEvent(tick=96, channel=1, data=[82, 64]),
   midi.NoteOnEvent(tick=24, channel=1, data=[81, 58]),
   midi.NoteOffEvent(tick=120, channel=1, data=[81, 64]),
   midi.NoteOnEvent(tick=0, channel=1, data=[79, 58]),
   midi.NoteOffEvent(tick=96, channel=1, data=[79, 64]),
   midi.NoteOnEvent(tick=24, channel=1, data=[78, 58]),
   midi.NoteOffEvent(tick=120, channel=1, data=[78, 64]),
   midi.NoteOnEvent(tick=1080, channel=1, data=[74, 58]),
   midi.NoteOffEvent(tick=1632, channel=1, data=[74, 64]),
   midi.NoteOnEvent(tick=5568, channel=1, data=[78, 58]),
   midi.NoteOffEvent(tick=288, channel=1, data=[78, 64]),
   midi.NoteOnEvent(tick=72, channel=1, data=[78, 58]),
   midi.NoteOffEvent(tick=90, channel=1, data=[78, 64]),
   midi.NoteOnEvent(tick=30, channel=1, data=[78, 58]),
   midi.NoteOffEvent(tick=90, channel=1, data=[78, 64]),
   midi.NoteOnEvent(tick=30, channel=1, data=[78, 58]),
   midi.NoteOffEvent(tick=90, channel=1, data=[78, 64]),
   midi.NoteOnEvent(tick=30, channel=1, data=[79, 58]),
   midi.NoteOffEvent(tick=96, channel=1, data=[79, 64]),
   midi.NoteOnEvent(tick=144, channel=1, data=[76, 58]),
   midi.NoteOffEvent(tick=96, channel=1, data=[76, 64]),
   midi.NoteOnEvent(tick=144, channel=1, data=[72, 58]),
   midi.NoteOffEvent(tick=96, channel=1, data=[72, 64]),
   midi.NoteOnEvent(tick=144, channel=1, data=[71, 78]),
   midi.NoteOffEvent(tick=192, channel=1, data=[71, 64]),
   midi.NoteOnEvent(tick=1008, channel=1, data=[72, 78]),
   midi.NoteOffEvent(tick=240, channel=1, data=[72, 64]),
   midi.NoteOnEvent(tick=0, channel=1, data=[71, 78]),
   midi.NoteOffEvent(tick=192, channel=1, data=[71, 64]),
   midi.NoteOnEvent(tick=1008, channel=1, data=[78, 58]),
   midi.NoteOffEvent(tick=240, channel=1, data=[78, 64]),
   midi.NoteOnEvent(tick=0, channel=1, data=[79, 58]),
   midi.NoteOffEvent(tick=96, channel=1, data=[79, 64]),
   midi.NoteOnEvent(tick=1344, channel=1, data=[79, 80]),
   midi.NoteOffEvent(tick=240, channel=1, data=[79, 64]),
   midi.NoteOnEvent(tick=0, channel=1, data=[78, 92]),
   midi.NoteOffEvent(tick=240, channel=1, data=[78, 64]),
   midi.NoteOnEvent(tick=0, channel=1, data=[77, 105]),
   midi.NoteOffEvent(tick=240, channel=1, data=[77, 64]),
   midi.NoteOnEvent(tick=0, channel=1, data=[76, 105]),
   midi.NoteOffEvent(tick=192, channel=1, data=[76, 64]),
   midi.NoteOnEvent(tick=408, channel=1, data=[78, 58]),
   midi.NoteOffEvent(tick=78, channel=1, data=[78, 64]),
   midi.NoteOnEvent(tick=42, channel=1, data=[78, 58]),
   midi.NoteOffEvent(tick=480, channel=1, data=[78, 64]),
   midi.NoteOnEvent(tick=0, channel=1, data=[79, 58]),
   midi.NoteOffEvent(tick=120, channel=1, data=[79, 64]),
   midi.EndOfTrackEvent(tick=0, data=[])]),
 midi.Track(\
  [midi.ProgramChangeEvent(tick=0, channel=3, data=[70]),
   midi.ControlChangeEvent(tick=0, channel=3, data=[7, 91]),
   midi.ControlChangeEvent(tick=0, channel=3, data=[91, 70]),
   midi.ControlChangeEvent(tick=0, channel=3, data=[10, 72]),
   midi.NoteOnEvent(tick=600, channel=3, data=[62, 70]),
   midi.NoteOffEvent(tick=60, channel=3, data=[62, 64]),
   midi.NoteOnEvent(tick=0, channel=3, data=[59, 70]),
   midi.NoteOffEvent(tick=48, channel=3, data=[59, 64]),
   midi.NoteOnEvent(tick=12, channel=3, data=[55, 70]),
   midi.NoteOffEvent(tick=144, channel=3, data=[55, 64]),
   midi.NoteOnEvent(tick=36, channel=3, data=[57, 70]),
   midi.NoteOffEvent(tick=48, channel=3, data=[57, 64]),
   midi.NoteOnEvent(tick=12, channel=3, data=[59, 70]),
   midi.NoteOffEvent(tick=72, channel=3, data=[59, 64]),
   midi.NoteOnEvent(tick=48, channel=3, data=[59, 70]),
   midi.NoteOffEvent(tick=72, channel=3, data=[59, 64]),
   midi.NoteOnEvent(tick=48, channel=3, data=[59, 70]),
   midi.NoteOffEvent(tick=72, channel=3, data=[59, 64]),
   midi.NoteOnEvent(tick=48, channel=3, data=[59, 70]),
   midi.NoteOffEvent(tick=72, channel=3, data=[59, 64]),
   midi.NoteOnEvent(tick=48, channel=3, data=[62, 70]),
   midi.NoteOffEvent(tick=60, channel=3, data=[62, 64]),
   midi.NoteOnEvent(tick=0, channel=3, data=[60, 70]),
   midi.NoteOffEvent(tick=48, channel=3, data=[60, 64]),
   midi.NoteOnEvent(tick=12, channel=3, data=[59, 70]),
   midi.NoteOffEvent(tick=48, channel=3, data=[59, 64]),
   midi.NoteOnEvent(tick=12, channel=3, data=[57, 70]),
   midi.NoteOffEvent(tick=48, channel=3, data=[57, 64]),
   midi.NoteOnEvent(tick=12, channel=3, data=[62, 70]),
   midi.NoteOffEvent(tick=360, channel=3, data=[62, 64]),
   midi.NoteOnEvent(tick=0, channel=3, data=[60, 70]),
   midi.NoteOffEvent(tick=96, channel=3, data=[60, 64]),
   midi.NoteOnEvent(tick=24, channel=3, data=[60, 70]),
   midi.NoteOffEvent(tick=240, channel=3, data=[60, 64]),
   midi.NoteOnEvent(tick=0, channel=3, data=[59, 70]),
   midi.NoteOffEvent(tick=144, channel=3, data=[59, 64]),
   midi.NoteOnEvent(tick=36, channel=3, data=[62, 70]),
   midi.NoteOffEvent(tick=39, channel=3, data=[62, 64]),
   midi.NoteOnEvent(tick=21, channel=3, data=[60, 70]),
   midi.NoteOffEvent(tick=180, channel=3, data=[60, 64]),
   midi.NoteOnEvent(tick=0, channel=3, data=[64, 70]),
   midi.NoteOffEvent(tick=48, channel=3, data=[64, 64]),
   midi.NoteOnEvent(tick=12, channel=3, data=[64, 70]),
   midi.NoteOffEvent(tick=240, channel=3, data=[64, 64]),
   midi.NoteOnEvent(tick=0, channel=3, data=[62, 58]),
   midi.NoteOffEvent(tick=96, channel=3, data=[62, 64]),
   midi.NoteOnEvent(tick=384, channel=3, data=[43, 70]),
   midi.NoteOffEvent(tick=192, channel=3, data=[43, 64]),
   midi.NoteOnEvent(tick=528, channel=3, data=[57, 58]),
   midi.NoteOffEvent(tick=624, channel=3, data=[57, 64]),
   midi.NoteOnEvent(tick=36, channel=3, data=[55, 58]),
   midi.NoteOffEvent(tick=48, channel=3, data=[55, 64]),
   midi.NoteOnEvent(tick=12, channel=3, data=[54, 58]),
   midi.NoteOffEvent(tick=180, channel=3, data=[54, 64]),
   midi.NoteOnEvent(tick=0, channel=3, data=[55, 58]),
   midi.NoteOffEvent(tick=48, channel=3, data=[55, 64]),
   midi.NoteOnEvent(tick=12, channel=3, data=[57, 58]),
   midi.NoteOffEvent(tick=192, channel=3, data=[57, 64]),
   midi.NoteOnEvent(tick=48, channel=3, data=[45, 58]),
   midi.NoteOffEvent(tick=192, channel=3, data=[45, 64]),
   midi.NoteOnEvent(tick=48, channel=3, data=[50, 58]),
   midi.NoteOffEvent(tick=192, channel=3, data=[50, 64]),
   midi.NoteOnEvent(tick=528, channel=3, data=[52, 78]),
   midi.NoteOffEvent(tick=288, channel=3, data=[52, 64]),
   midi.NoteOnEvent(tick=72, channel=3, data=[50, 58]),
   midi.NoteOffEvent(tick=72, channel=3, data=[50, 64]),
   midi.NoteOnEvent(tick=48, channel=3, data=[49, 58]),
   midi.NoteOffEvent(tick=72, channel=3, data=[49, 64]),
   midi.NoteOnEvent(tick=48, channel=3, data=[47, 58]),
   midi.NoteOffEvent(tick=72, channel=3, data=[47, 64]),
   midi.NoteOnEvent(tick=48, channel=3, data=[45, 58]),
   midi.NoteOffEvent(tick=192, channel=3, data=[45, 64]),
   midi.NoteOnEvent(tick=528, channel=3, data=[64, 78]),
   midi.NoteOffEvent(tick=288, channel=3, data=[64, 64]),
   midi.NoteOnEvent(tick=72, channel=3, data=[62, 58]),
   midi.NoteOffEvent(tick=72, channel=3, data=[62, 64]),
   midi.NoteOnEvent(tick=48, channel=3, data=[61, 58]),
   midi.NoteOffEvent(tick=72, channel=3, data=[61, 64]),
   midi.NoteOnEvent(tick=48, channel=3, data=[59, 58]),
   midi.NoteOffEvent(tick=72, channel=3, data=[59, 64]),
   midi.NoteOnEvent(tick=48, channel=3, data=[57, 58]),
   midi.NoteOffEvent(tick=192, channel=3, data=[57, 64]),
   midi.NoteOnEvent(tick=528, channel=3, data=[50, 58]),
   midi.NoteOffEvent(tick=480, channel=3, data=[50, 64]),
   midi.NoteOnEvent(tick=0, channel=3, data=[49, 58]),
   midi.NoteOffEvent(tick=192, channel=3, data=[49, 64]),
   midi.NoteOnEvent(tick=48, channel=3, data=[47, 58]),
   midi.NoteOffEvent(tick=288, channel=3, data=[47, 64]),
   midi.NoteOnEvent(tick=72, channel=3, data=[47, 58]),
   midi.NoteOffEvent(tick=96, channel=3, data=[47, 64]),
   midi.NoteOnEvent(tick=24, channel=3, data=[45, 58]),
   midi.NoteOffEvent(tick=192, channel=3, data=[45, 64]),
   midi.NoteOnEvent(tick=48, channel=3, data=[43, 58]),
   midi.NoteOffEvent(tick=96, channel=3, data=[43, 64]),
   midi.NoteOnEvent(tick=144, channel=3, data=[43, 58]),
   midi.NoteOffEvent(tick=96, channel=3, data=[43, 64]),
   midi.NoteOnEvent(tick=144, channel=3, data=[44, 58]),
   midi.NoteOffEvent(tick=96, channel=3, data=[44, 64]),
   midi.NoteOnEvent(tick=444, channel=3, data=[45, 58]),
   midi.NoteOffEvent(tick=36, channel=3, data=[45, 64]),
   midi.NoteOnEvent(tick=24, channel=3, data=[47, 58]),
   midi.NoteOffEvent(tick=36, channel=3, data=[47, 64]),
   midi.NoteOnEvent(tick=24, channel=3, data=[49, 58]),
   midi.NoteOffEvent(tick=36, channel=3, data=[49, 64]),
   midi.NoteOnEvent(tick=24, channel=3, data=[50, 58]),
   midi.NoteOffEvent(tick=36, channel=3, data=[50, 64]),
   midi.NoteOnEvent(tick=24, channel=3, data=[52, 58]),
   midi.NoteOffEvent(tick=36, channel=3, data=[52, 64]),
   midi.NoteOnEvent(tick=24, channel=3, data=[54, 58]),
   midi.NoteOffEvent(tick=36, channel=3, data=[54, 64]),
   midi.NoteOnEvent(tick=24, channel=3, data=[55, 58]),
   midi.NoteOffEvent(tick=36, channel=3, data=[55, 64]),
   midi.NoteOnEvent(tick=24, channel=3, data=[54, 58]),
   midi.NoteOffEvent(tick=144, channel=3, data=[54, 64]),
   midi.NoteOnEvent(tick=36, channel=3, data=[55, 58]),
   midi.NoteOffEvent(tick=48, channel=3, data=[55, 64]),
   midi.NoteOnEvent(tick=12, channel=3, data=[57, 58]),
   midi.NoteOffEvent(tick=120, channel=3, data=[57, 64]),
   midi.NoteOnEvent(tick=0, channel=3, data=[59, 58]),
   midi.NoteOffEvent(tick=120, channel=3, data=[59, 64]),
   midi.NoteOnEvent(tick=0, channel=3, data=[52, 58]),
   midi.NoteOffEvent(tick=120, channel=3, data=[52, 64]),
   midi.NoteOnEvent(tick=0, channel=3, data=[57, 58]),
   midi.NoteOffEvent(tick=96, channel=3, data=[57, 64]),
   midi.NoteOnEvent(tick=24, channel=3, data=[50, 58]),
   midi.NoteOffEvent(tick=157, channel=3, data=[50, 64]),
   midi.NoteOnEvent(tick=23, channel=3, data=[52, 58]),
   midi.NoteOffEvent(tick=26, channel=3, data=[52, 64]),
   midi.NoteOnEvent(tick=4, channel=3, data=[54, 58]),
   midi.NoteOffEvent(tick=26, channel=3, data=[54, 64]),
   midi.NoteOnEvent(tick=4, channel=3, data=[55, 58]),
   midi.NoteOffEvent(tick=360, channel=3, data=[55, 64]),
   midi.NoteOnEvent(tick=0, channel=3, data=[54, 58]),
   midi.NoteOffEvent(tick=96, channel=3, data=[54, 64]),
   midi.NoteOnEvent(tick=24, channel=3, data=[52, 58]),
   midi.NoteOffEvent(tick=60, channel=3, data=[52, 64]),
   midi.NoteOnEvent(tick=0, channel=3, data=[59, 58]),
   midi.NoteOffEvent(tick=60, channel=3, data=[59, 64]),
   midi.NoteOnEvent(tick=0, channel=3, data=[55, 58]),
   midi.NoteOffEvent(tick=60, channel=3, data=[55, 64]),
   midi.NoteOnEvent(tick=0, channel=3, data=[52, 58]),
   midi.NoteOffEvent(tick=60, channel=3, data=[52, 64]),
   midi.NoteOnEvent(tick=0, channel=3, data=[50, 58]),
   midi.NoteOffEvent(tick=192, channel=3, data=[50, 64]),
   midi.NoteOnEvent(tick=48, channel=3, data=[54, 58]),
   midi.NoteOffEvent(tick=15, channel=3, data=[54, 64]),
   midi.NoteOnEvent(tick=0, channel=3, data=[52, 58]),
   midi.NoteOffEvent(tick=15, channel=3, data=[52, 64]),
   midi.NoteOnEvent(tick=0, channel=3, data=[54, 58]),
   midi.NoteOffEvent(tick=15, channel=3, data=[54, 64]),
   midi.NoteOnEvent(tick=0, channel=3, data=[52, 58]),
   midi.NoteOffEvent(tick=15, channel=3, data=[52, 64]),
   midi.NoteOnEvent(tick=0, channel=3, data=[54, 58]),
   midi.NoteOffEvent(tick=15, channel=3, data=[54, 64]),
   midi.NoteOnEvent(tick=0, channel=3, data=[52, 58]),
   midi.NoteOffEvent(tick=15, channel=3, data=[52, 64]),
   midi.NoteOnEvent(tick=0, channel=3, data=[54, 58]),
   midi.NoteOffEvent(tick=15, channel=3, data=[54, 64]),
   midi.NoteOnEvent(tick=0, channel=3, data=[52, 58]),
   midi.NoteOffEvent(tick=15, channel=3, data=[52, 64]),
   midi.NoteOnEvent(tick=0, channel=3, data=[54, 58]),
   midi.NoteOffEvent(tick=15, channel=3, data=[54, 64]),
   midi.NoteOnEvent(tick=0, channel=3, data=[52, 58]),
   midi.NoteOffEvent(tick=15, channel=3, data=[52, 64]),
   midi.NoteOnEvent(tick=0, channel=3, data=[54, 58]),
   midi.NoteOffEvent(tick=15, channel=3, data=[54, 64]),
   midi.NoteOnEvent(tick=0, channel=3, data=[52, 58]),
   midi.NoteOffEvent(tick=15, channel=3, data=[52, 64]),
   midi.NoteOnEvent(tick=0, channel=3, data=[54, 58]),
   midi.NoteOffEvent(tick=15, channel=3, data=[54, 64]),
   midi.NoteOnEvent(tick=0, channel=3, data=[52, 58]),
   midi.NoteOffEvent(tick=15, channel=3, data=[52, 64]),
   midi.NoteOnEvent(tick=0, channel=3, data=[54, 58]),
   midi.NoteOffEvent(tick=15, channel=3, data=[54, 64]),
   midi.NoteOnEvent(tick=0, channel=3, data=[52, 58]),
   midi.NoteOffEvent(tick=15, channel=3, data=[52, 64]),
   midi.NoteOnEvent(tick=0, channel=3, data=[50, 78]),
   midi.NoteOffEvent(tick=96, channel=3, data=[50, 64]),
   midi.NoteOnEvent(tick=24, channel=3, data=[50, 58]),
   midi.NoteOffEvent(tick=96, channel=3, data=[50, 64]),
   midi.NoteOnEvent(tick=24, channel=3, data=[50, 58]),
   midi.NoteOffEvent(tick=96, channel=3, data=[50, 64]),
   midi.NoteOnEvent(tick=24, channel=3, data=[50, 58]),
   midi.NoteOffEvent(tick=96, channel=3, data=[50, 64]),
   midi.NoteOnEvent(tick=24, channel=3, data=[50, 58]),
   midi.NoteOffEvent(tick=96, channel=3, data=[50, 64]),
   midi.NoteOnEvent(tick=24, channel=3, data=[50, 58]),
   midi.NoteOffEvent(tick=96, channel=3, data=[50, 64]),
   midi.NoteOnEvent(tick=24, channel=3, data=[50, 58]),
   midi.NoteOffEvent(tick=96, channel=3, data=[50, 64]),
   midi.NoteOnEvent(tick=24, channel=3, data=[50, 58]),
   midi.NoteOffEvent(tick=96, channel=3, data=[50, 64]),
   midi.NoteOnEvent(tick=24, channel=3, data=[50, 58]),
   midi.NoteOffEvent(tick=96, channel=3, data=[50, 64]),
   midi.NoteOnEvent(tick=24, channel=3, data=[50, 58]),
   midi.NoteOffEvent(tick=96, channel=3, data=[50, 64]),
   midi.NoteOnEvent(tick=24, channel=3, data=[50, 58]),
   midi.NoteOffEvent(tick=96, channel=3, data=[50, 64]),
   midi.NoteOnEvent(tick=24, channel=3, data=[50, 58]),
   midi.NoteOffEvent(tick=96, channel=3, data=[50, 64]),
   midi.NoteOnEvent(tick=24, channel=3, data=[50, 78]),
   midi.NoteOffEvent(tick=96, channel=3, data=[50, 64]),
   midi.NoteOnEvent(tick=24, channel=3, data=[50, 58]),
   midi.NoteOffEvent(tick=96, channel=3, data=[50, 64]),
   midi.NoteOnEvent(tick=24, channel=3, data=[50, 58]),
   midi.NoteOffEvent(tick=96, channel=3, data=[50, 64]),
   midi.NoteOnEvent(tick=24, channel=3, data=[50, 58]),
   midi.NoteOffEvent(tick=96, channel=3, data=[50, 64]),
   midi.NoteOnEvent(tick=24, channel=3, data=[50, 58]),
   midi.NoteOffEvent(tick=96, channel=3, data=[50, 64]),
   midi.NoteOnEvent(tick=24, channel=3, data=[50, 58]),
   midi.NoteOffEvent(tick=96, channel=3, data=[50, 64]),
   midi.NoteOnEvent(tick=24, channel=3, data=[50, 58]),
   midi.NoteOffEvent(tick=96, channel=3, data=[50, 64]),
   midi.NoteOnEvent(tick=24, channel=3, data=[50, 58]),
   midi.NoteOffEvent(tick=96, channel=3, data=[50, 64]),
   midi.NoteOnEvent(tick=24, channel=3, data=[50, 58]),
   midi.NoteOffEvent(tick=96, channel=3, data=[50, 64]),
   midi.NoteOnEvent(tick=24, channel=3, data=[50, 58]),
   midi.NoteOffEvent(tick=96, channel=3, data=[50, 64]),
   midi.NoteOnEvent(tick=24, channel=3, data=[50, 58]),
   midi.NoteOffEvent(tick=96, channel=3, data=[50, 64]),
   midi.NoteOnEvent(tick=24, channel=3, data=[50, 58]),
   midi.NoteOffEvent(tick=96, channel=3, data=[50, 64]),
   midi.NoteOnEvent(tick=24, channel=3, data=[50, 58]),
   midi.NoteOffEvent(tick=192, channel=3, data=[50, 64]),
   midi.NoteOnEvent(tick=648, channel=3, data=[50, 58]),
   midi.NoteOffEvent(tick=96, channel=3, data=[50, 64]),
   midi.NoteOnEvent(tick=24, channel=3, data=[50, 58]),
   midi.NoteOffEvent(tick=96, channel=3, data=[50, 64]),
   midi.NoteOnEvent(tick=24, channel=3, data=[50, 58]),
   midi.NoteOffEvent(tick=96, channel=3, data=[50, 64]),
   midi.NoteOnEvent(tick=24, channel=3, data=[50, 58]),
   midi.NoteOffEvent(tick=96, channel=3, data=[50, 64]),
   midi.NoteOnEvent(tick=24, channel=3, data=[50, 58]),
   midi.NoteOffEvent(tick=96, channel=3, data=[50, 64]),
   midi.NoteOnEvent(tick=24, channel=3, data=[50, 58]),
   midi.NoteOffEvent(tick=336, channel=3, data=[50, 64]),
   midi.NoteOnEvent(tick=264, channel=3, data=[62, 70]),
   midi.NoteOffEvent(tick=60, channel=3, data=[62, 64]),
   midi.NoteOnEvent(tick=0, channel=3, data=[59, 70]),
   midi.NoteOffEvent(tick=48, channel=3, data=[59, 64]),
   midi.NoteOnEvent(tick=12, channel=3, data=[55, 70]),
   midi.NoteOffEvent(tick=144, channel=3, data=[55, 64]),
   midi.NoteOnEvent(tick=36, channel=3, data=[57, 70]),
   midi.NoteOffEvent(tick=48, channel=3, data=[57, 64]),
   midi.NoteOnEvent(tick=12, channel=3, data=[59, 70]),
   midi.NoteOffEvent(tick=72, channel=3, data=[59, 64]),
   midi.NoteOnEvent(tick=48, channel=3, data=[59, 70]),
   midi.NoteOffEvent(tick=72, channel=3, data=[59, 64]),
   midi.NoteOnEvent(tick=48, channel=3, data=[59, 70]),
   midi.NoteOffEvent(tick=72, channel=3, data=[59, 64]),
   midi.NoteOnEvent(tick=48, channel=3, data=[59, 70]),
   midi.NoteOffEvent(tick=72, channel=3, data=[59, 64]),
   midi.NoteOnEvent(tick=48, channel=3, data=[62, 70]),
   midi.NoteOffEvent(tick=60, channel=3, data=[62, 64]),
   midi.NoteOnEvent(tick=0, channel=3, data=[60, 70]),
   midi.NoteOffEvent(tick=48, channel=3, data=[60, 64]),
   midi.NoteOnEvent(tick=12, channel=3, data=[59, 70]),
   midi.NoteOffEvent(tick=48, channel=3, data=[59, 64]),
   midi.NoteOnEvent(tick=12, channel=3, data=[57, 70]),
   midi.NoteOffEvent(tick=48, channel=3, data=[57, 64]),
   midi.NoteOnEvent(tick=12, channel=3, data=[62, 70]),
   midi.NoteOffEvent(tick=360, channel=3, data=[62, 64]),
   midi.NoteOnEvent(tick=0, channel=3, data=[60, 70]),
   midi.NoteOffEvent(tick=96, channel=3, data=[60, 64]),
   midi.NoteOnEvent(tick=24, channel=3, data=[60, 70]),
   midi.NoteOffEvent(tick=240, channel=3, data=[60, 64]),
   midi.NoteOnEvent(tick=0, channel=3, data=[59, 70]),
   midi.NoteOffEvent(tick=144, channel=3, data=[59, 64]),
   midi.NoteOnEvent(tick=36, channel=3, data=[62, 70]),
   midi.NoteOffEvent(tick=39, channel=3, data=[62, 64]),
   midi.NoteOnEvent(tick=21, channel=3, data=[60, 70]),
   midi.NoteOffEvent(tick=180, channel=3, data=[60, 64]),
   midi.NoteOnEvent(tick=0, channel=3, data=[64, 70]),
   midi.NoteOffEvent(tick=48, channel=3, data=[64, 64]),
   midi.NoteOnEvent(tick=12, channel=3, data=[64, 70]),
   midi.NoteOffEvent(tick=240, channel=3, data=[64, 64]),
   midi.NoteOnEvent(tick=0, channel=3, data=[62, 58]),
   midi.NoteOffEvent(tick=96, channel=3, data=[62, 64]),
   midi.NoteOnEvent(tick=384, channel=3, data=[43, 70]),
   midi.NoteOffEvent(tick=192, channel=3, data=[43, 64]),
   midi.NoteOnEvent(tick=528, channel=3, data=[57, 58]),
   midi.NoteOffEvent(tick=624, channel=3, data=[57, 64]),
   midi.NoteOnEvent(tick=36, channel=3, data=[55, 58]),
   midi.NoteOffEvent(tick=48, channel=3, data=[55, 64]),
   midi.NoteOnEvent(tick=12, channel=3, data=[54, 58]),
   midi.NoteOffEvent(tick=180, channel=3, data=[54, 64]),
   midi.NoteOnEvent(tick=0, channel=3, data=[55, 58]),
   midi.NoteOffEvent(tick=48, channel=3, data=[55, 64]),
   midi.NoteOnEvent(tick=12, channel=3, data=[57, 58]),
   midi.NoteOffEvent(tick=192, channel=3, data=[57, 64]),
   midi.NoteOnEvent(tick=48, channel=3, data=[45, 58]),
   midi.NoteOffEvent(tick=192, channel=3, data=[45, 64]),
   midi.NoteOnEvent(tick=48, channel=3, data=[50, 58]),
   midi.NoteOffEvent(tick=192, channel=3, data=[50, 64]),
   midi.NoteOnEvent(tick=528, channel=3, data=[52, 78]),
   midi.NoteOffEvent(tick=288, channel=3, data=[52, 64]),
   midi.NoteOnEvent(tick=72, channel=3, data=[50, 58]),
   midi.NoteOffEvent(tick=72, channel=3, data=[50, 64]),
   midi.NoteOnEvent(tick=48, channel=3, data=[49, 58]),
   midi.NoteOffEvent(tick=72, channel=3, data=[49, 64]),
   midi.NoteOnEvent(tick=48, channel=3, data=[47, 58]),
   midi.NoteOffEvent(tick=72, channel=3, data=[47, 64]),
   midi.NoteOnEvent(tick=48, channel=3, data=[45, 58]),
   midi.NoteOffEvent(tick=192, channel=3, data=[45, 64]),
   midi.NoteOnEvent(tick=528, channel=3, data=[64, 78]),
   midi.NoteOffEvent(tick=288, channel=3, data=[64, 64]),
   midi.NoteOnEvent(tick=72, channel=3, data=[62, 58]),
   midi.NoteOffEvent(tick=72, channel=3, data=[62, 64]),
   midi.NoteOnEvent(tick=48, channel=3, data=[61, 58]),
   midi.NoteOffEvent(tick=72, channel=3, data=[61, 64]),
   midi.NoteOnEvent(tick=48, channel=3, data=[59, 58]),
   midi.NoteOffEvent(tick=72, channel=3, data=[59, 64]),
   midi.NoteOnEvent(tick=48, channel=3, data=[57, 58]),
   midi.NoteOffEvent(tick=192, channel=3, data=[57, 64]),
   midi.NoteOnEvent(tick=528, channel=3, data=[50, 58]),
   midi.NoteOffEvent(tick=480, channel=3, data=[50, 64]),
   midi.NoteOnEvent(tick=0, channel=3, data=[49, 58]),
   midi.NoteOffEvent(tick=192, channel=3, data=[49, 64]),
   midi.NoteOnEvent(tick=48, channel=3, data=[47, 58]),
   midi.NoteOffEvent(tick=288, channel=3, data=[47, 64]),
   midi.NoteOnEvent(tick=72, channel=3, data=[47, 58]),
   midi.NoteOffEvent(tick=96, channel=3, data=[47, 64]),
   midi.NoteOnEvent(tick=24, channel=3, data=[45, 58]),
   midi.NoteOffEvent(tick=192, channel=3, data=[45, 64]),
   midi.NoteOnEvent(tick=48, channel=3, data=[43, 58]),
   midi.NoteOffEvent(tick=96, channel=3, data=[43, 64]),
   midi.NoteOnEvent(tick=144, channel=3, data=[43, 58]),
   midi.NoteOffEvent(tick=96, channel=3, data=[43, 64]),
   midi.NoteOnEvent(tick=144, channel=3, data=[44, 58]),
   midi.NoteOffEvent(tick=96, channel=3, data=[44, 64]),
   midi.NoteOnEvent(tick=444, channel=3, data=[45, 58]),
   midi.NoteOffEvent(tick=36, channel=3, data=[45, 64]),
   midi.NoteOnEvent(tick=24, channel=3, data=[47, 58]),
   midi.NoteOffEvent(tick=36, channel=3, data=[47, 64]),
   midi.NoteOnEvent(tick=24, channel=3, data=[49, 58]),
   midi.NoteOffEvent(tick=36, channel=3, data=[49, 64]),
   midi.NoteOnEvent(tick=24, channel=3, data=[50, 58]),
   midi.NoteOffEvent(tick=36, channel=3, data=[50, 64]),
   midi.NoteOnEvent(tick=24, channel=3, data=[52, 58]),
   midi.NoteOffEvent(tick=36, channel=3, data=[52, 64]),
   midi.NoteOnEvent(tick=24, channel=3, data=[54, 58]),
   midi.NoteOffEvent(tick=36, channel=3, data=[54, 64]),
   midi.NoteOnEvent(tick=24, channel=3, data=[55, 58]),
   midi.NoteOffEvent(tick=36, channel=3, data=[55, 64]),
   midi.NoteOnEvent(tick=24, channel=3, data=[54, 58]),
   midi.NoteOffEvent(tick=144, channel=3, data=[54, 64]),
   midi.NoteOnEvent(tick=36, channel=3, data=[55, 58]),
   midi.NoteOffEvent(tick=48, channel=3, data=[55, 64]),
   midi.NoteOnEvent(tick=12, channel=3, data=[57, 58]),
   midi.NoteOffEvent(tick=120, channel=3, data=[57, 64]),
   midi.NoteOnEvent(tick=0, channel=3, data=[59, 58]),
   midi.NoteOffEvent(tick=120, channel=3, data=[59, 64]),
   midi.NoteOnEvent(tick=0, channel=3, data=[52, 58]),
   midi.NoteOffEvent(tick=120, channel=3, data=[52, 64]),
   midi.NoteOnEvent(tick=0, channel=3, data=[57, 58]),
   midi.NoteOffEvent(tick=96, channel=3, data=[57, 64]),
   midi.NoteOnEvent(tick=24, channel=3, data=[50, 58]),
   midi.NoteOffEvent(tick=157, channel=3, data=[50, 64]),
   midi.NoteOnEvent(tick=23, channel=3, data=[52, 58]),
   midi.NoteOffEvent(tick=26, channel=3, data=[52, 64]),
   midi.NoteOnEvent(tick=4, channel=3, data=[54, 58]),
   midi.NoteOffEvent(tick=26, channel=3, data=[54, 64]),
   midi.NoteOnEvent(tick=4, channel=3, data=[55, 58]),
   midi.NoteOffEvent(tick=360, channel=3, data=[55, 64]),
   midi.NoteOnEvent(tick=0, channel=3, data=[54, 58]),
   midi.NoteOffEvent(tick=96, channel=3, data=[54, 64]),
   midi.NoteOnEvent(tick=24, channel=3, data=[52, 58]),
   midi.NoteOffEvent(tick=60, channel=3, data=[52, 64]),
   midi.NoteOnEvent(tick=0, channel=3, data=[59, 58]),
   midi.NoteOffEvent(tick=60, channel=3, data=[59, 64]),
   midi.NoteOnEvent(tick=0, channel=3, data=[55, 58]),
   midi.NoteOffEvent(tick=60, channel=3, data=[55, 64]),
   midi.NoteOnEvent(tick=0, channel=3, data=[52, 58]),
   midi.NoteOffEvent(tick=60, channel=3, data=[52, 64]),
   midi.NoteOnEvent(tick=0, channel=3, data=[50, 58]),
   midi.NoteOffEvent(tick=192, channel=3, data=[50, 64]),
   midi.NoteOnEvent(tick=48, channel=3, data=[54, 58]),
   midi.NoteOffEvent(tick=15, channel=3, data=[54, 64]),
   midi.NoteOnEvent(tick=0, channel=3, data=[52, 58]),
   midi.NoteOffEvent(tick=15, channel=3, data=[52, 64]),
   midi.NoteOnEvent(tick=0, channel=3, data=[54, 58]),
   midi.NoteOffEvent(tick=15, channel=3, data=[54, 64]),
   midi.NoteOnEvent(tick=0, channel=3, data=[52, 58]),
   midi.NoteOffEvent(tick=15, channel=3, data=[52, 64]),
   midi.NoteOnEvent(tick=0, channel=3, data=[54, 58]),
   midi.NoteOffEvent(tick=15, channel=3, data=[54, 64]),
   midi.NoteOnEvent(tick=0, channel=3, data=[52, 58]),
   midi.NoteOffEvent(tick=15, channel=3, data=[52, 64]),
   midi.NoteOnEvent(tick=0, channel=3, data=[54, 58]),
   midi.NoteOffEvent(tick=15, channel=3, data=[54, 64]),
   midi.NoteOnEvent(tick=0, channel=3, data=[52, 58]),
   midi.NoteOffEvent(tick=15, channel=3, data=[52, 64]),
   midi.NoteOnEvent(tick=0, channel=3, data=[54, 58]),
   midi.NoteOffEvent(tick=15, channel=3, data=[54, 64]),
   midi.NoteOnEvent(tick=0, channel=3, data=[52, 58]),
   midi.NoteOffEvent(tick=15, channel=3, data=[52, 64]),
   midi.NoteOnEvent(tick=0, channel=3, data=[54, 58]),
   midi.NoteOffEvent(tick=15, channel=3, data=[54, 64]),
   midi.NoteOnEvent(tick=0, channel=3, data=[52, 58]),
   midi.NoteOffEvent(tick=15, channel=3, data=[52, 64]),
   midi.NoteOnEvent(tick=0, channel=3, data=[54, 58]),
   midi.NoteOffEvent(tick=15, channel=3, data=[54, 64]),
   midi.NoteOnEvent(tick=0, channel=3, data=[52, 58]),
   midi.NoteOffEvent(tick=15, channel=3, data=[52, 64]),
   midi.NoteOnEvent(tick=0, channel=3, data=[54, 58]),
   midi.NoteOffEvent(tick=15, channel=3, data=[54, 64]),
   midi.NoteOnEvent(tick=0, channel=3, data=[52, 58]),
   midi.NoteOffEvent(tick=15, channel=3, data=[52, 64]),
   midi.NoteOnEvent(tick=0, channel=3, data=[50, 78]),
   midi.NoteOffEvent(tick=96, channel=3, data=[50, 64]),
   midi.NoteOnEvent(tick=24, channel=3, data=[50, 58]),
   midi.NoteOffEvent(tick=96, channel=3, data=[50, 64]),
   midi.NoteOnEvent(tick=24, channel=3, data=[50, 58]),
   midi.NoteOffEvent(tick=96, channel=3, data=[50, 64]),
   midi.NoteOnEvent(tick=24, channel=3, data=[50, 58]),
   midi.NoteOffEvent(tick=96, channel=3, data=[50, 64]),
   midi.NoteOnEvent(tick=24, channel=3, data=[50, 58]),
   midi.NoteOffEvent(tick=96, channel=3, data=[50, 64]),
   midi.NoteOnEvent(tick=24, channel=3, data=[50, 58]),
   midi.NoteOffEvent(tick=96, channel=3, data=[50, 64]),
   midi.NoteOnEvent(tick=24, channel=3, data=[50, 58]),
   midi.NoteOffEvent(tick=96, channel=3, data=[50, 64]),
   midi.NoteOnEvent(tick=24, channel=3, data=[50, 58]),
   midi.NoteOffEvent(tick=96, channel=3, data=[50, 64]),
   midi.NoteOnEvent(tick=24, channel=3, data=[50, 58]),
   midi.NoteOffEvent(tick=96, channel=3, data=[50, 64]),
   midi.NoteOnEvent(tick=24, channel=3, data=[50, 58]),
   midi.NoteOffEvent(tick=96, channel=3, data=[50, 64]),
   midi.NoteOnEvent(tick=24, channel=3, data=[50, 58]),
   midi.NoteOffEvent(tick=96, channel=3, data=[50, 64]),
   midi.NoteOnEvent(tick=24, channel=3, data=[50, 58]),
   midi.NoteOffEvent(tick=96, channel=3, data=[50, 64]),
   midi.NoteOnEvent(tick=24, channel=3, data=[50, 78]),
   midi.NoteOffEvent(tick=96, channel=3, data=[50, 64]),
   midi.NoteOnEvent(tick=24, channel=3, data=[50, 58]),
   midi.NoteOffEvent(tick=96, channel=3, data=[50, 64]),
   midi.NoteOnEvent(tick=24, channel=3, data=[50, 58]),
   midi.NoteOffEvent(tick=96, channel=3, data=[50, 64]),
   midi.NoteOnEvent(tick=24, channel=3, data=[50, 58]),
   midi.NoteOffEvent(tick=96, channel=3, data=[50, 64]),
   midi.NoteOnEvent(tick=24, channel=3, data=[50, 58]),
   midi.NoteOffEvent(tick=96, channel=3, data=[50, 64]),
   midi.NoteOnEvent(tick=24, channel=3, data=[50, 58]),
   midi.NoteOffEvent(tick=96, channel=3, data=[50, 64]),
   midi.NoteOnEvent(tick=24, channel=3, data=[50, 58]),
   midi.NoteOffEvent(tick=96, channel=3, data=[50, 64]),
   midi.NoteOnEvent(tick=24, channel=3, data=[50, 58]),
   midi.NoteOffEvent(tick=96, channel=3, data=[50, 64]),
   midi.NoteOnEvent(tick=24, channel=3, data=[50, 58]),
   midi.NoteOffEvent(tick=96, channel=3, data=[50, 64]),
   midi.NoteOnEvent(tick=24, channel=3, data=[50, 58]),
   midi.NoteOffEvent(tick=96, channel=3, data=[50, 64]),
   midi.NoteOnEvent(tick=24, channel=3, data=[50, 58]),
   midi.NoteOffEvent(tick=96, channel=3, data=[50, 64]),
   midi.NoteOnEvent(tick=24, channel=3, data=[50, 58]),
   midi.NoteOffEvent(tick=96, channel=3, data=[50, 64]),
   midi.NoteOnEvent(tick=24, channel=3, data=[50, 58]),
   midi.NoteOffEvent(tick=192, channel=3, data=[50, 64]),
   midi.NoteOnEvent(tick=648, channel=3, data=[50, 58]),
   midi.NoteOffEvent(tick=96, channel=3, data=[50, 64]),
   midi.NoteOnEvent(tick=24, channel=3, data=[50, 58]),
   midi.NoteOffEvent(tick=96, channel=3, data=[50, 64]),
   midi.NoteOnEvent(tick=24, channel=3, data=[50, 58]),
   midi.NoteOffEvent(tick=96, channel=3, data=[50, 64]),
   midi.NoteOnEvent(tick=24, channel=3, data=[50, 58]),
   midi.NoteOffEvent(tick=96, channel=3, data=[50, 64]),
   midi.NoteOnEvent(tick=24, channel=3, data=[50, 58]),
   midi.NoteOffEvent(tick=96, channel=3, data=[50, 64]),
   midi.NoteOnEvent(tick=24, channel=3, data=[50, 58]),
   midi.NoteOffEvent(tick=336, channel=3, data=[50, 64]),
   midi.NoteOnEvent(tick=264, channel=3, data=[50, 105]),
   midi.NoteOffEvent(tick=96, channel=3, data=[50, 64]),
   midi.NoteOnEvent(tick=24, channel=3, data=[62, 105]),
   midi.NoteOffEvent(tick=144, channel=3, data=[62, 64]),
   midi.NoteOnEvent(tick=36, channel=3, data=[64, 105]),
   midi.NoteOffEvent(tick=36, channel=3, data=[64, 64]),
   midi.NoteOnEvent(tick=24, channel=3, data=[65, 105]),
   midi.NoteOffEvent(tick=72, channel=3, data=[65, 64]),
   midi.NoteOnEvent(tick=48, channel=3, data=[62, 105]),
   midi.NoteOffEvent(tick=72, channel=3, data=[62, 64]),
   midi.NoteOnEvent(tick=48, channel=3, data=[59, 105]),
   midi.NoteOffEvent(tick=72, channel=3, data=[59, 64]),
   midi.NoteOnEvent(tick=48, channel=3, data=[57, 105]),
   midi.NoteOffEvent(tick=72, channel=3, data=[57, 64]),
   midi.NoteOnEvent(tick=48, channel=3, data=[56, 105]),
   midi.NoteOffEvent(tick=66, channel=3, data=[56, 64]),
   midi.NoteOnEvent(tick=54, channel=3, data=[59, 105]),
   midi.NoteOffEvent(tick=66, channel=3, data=[59, 64]),
   midi.NoteOnEvent(tick=54, channel=3, data=[64, 105]),
   midi.NoteOffEvent(tick=192, channel=3, data=[64, 64]),
   midi.NoteOnEvent(tick=288, channel=3, data=[64, 105]),
   midi.NoteOffEvent(tick=1176, channel=3, data=[64, 64]),
   midi.NoteOnEvent(tick=24, channel=3, data=[66, 70]),
   midi.NoteOffEvent(tick=228, channel=3, data=[66, 64]),
   midi.NoteOnEvent(tick=12, channel=3, data=[67, 92]),
   midi.NoteOffEvent(tick=228, channel=3, data=[67, 64]),
   midi.NoteOnEvent(tick=492, channel=3, data=[62, 80]),
   midi.NoteOffEvent(tick=1296, channel=3, data=[62, 64]),
   midi.NoteOnEvent(tick=24, channel=3, data=[59, 105]),
   midi.NoteOffEvent(tick=48, channel=3, data=[59, 64]),
   midi.NoteOnEvent(tick=12, channel=3, data=[55, 105]),
   midi.NoteOffEvent(tick=48, channel=3, data=[55, 64]),
   midi.NoteOnEvent(tick=12, channel=3, data=[62, 105]),
   midi.NoteOffEvent(tick=96, channel=3, data=[62, 64]),
   midi.NoteOnEvent(tick=24, channel=3, data=[59, 105]),
   midi.NoteOffEvent(tick=48, channel=3, data=[59, 64]),
   midi.NoteOnEvent(tick=12, channel=3, data=[55, 105]),
   midi.NoteOffEvent(tick=48, channel=3, data=[55, 64]),
   midi.NoteOnEvent(tick=12, channel=3, data=[50, 105]),
   midi.NoteOffEvent(tick=192, channel=3, data=[50, 64]),
   midi.NoteOnEvent(tick=1728, channel=3, data=[57, 90]),
   midi.NoteOffEvent(tick=288, channel=3, data=[57, 64]),
   midi.NoteOnEvent(tick=72, channel=3, data=[55, 70]),
   midi.NoteOffEvent(tick=96, channel=3, data=[55, 64]),
   midi.NoteOnEvent(tick=24, channel=3, data=[54, 70]),
   midi.NoteOffEvent(tick=96, channel=3, data=[54, 64]),
   midi.NoteOnEvent(tick=24, channel=3, data=[52, 70]),
   midi.NoteOffEvent(tick=96, channel=3, data=[52, 64]),
   midi.NoteOnEvent(tick=24, channel=3, data=[50, 70]),
   midi.NoteOffEvent(tick=192, channel=3, data=[50, 64]),
   midi.NoteOnEvent(tick=168, channel=3, data=[55, 70]),
   midi.NoteOffEvent(tick=72, channel=3, data=[55, 64]),
   midi.NoteOnEvent(tick=48, channel=3, data=[59, 70]),
   midi.NoteOffEvent(tick=72, channel=3, data=[59, 64]),
   midi.NoteOnEvent(tick=48, channel=3, data=[55, 70]),
   midi.NoteOffEvent(tick=72, channel=3, data=[55, 64]),
   midi.NoteOnEvent(tick=48, channel=3, data=[60, 90]),
   midi.NoteOffEvent(tick=144, channel=3, data=[60, 64]),
   midi.NoteOnEvent(tick=36, channel=3, data=[62, 70]),
   midi.NoteOffEvent(tick=36, channel=3, data=[62, 64]),
   midi.NoteOnEvent(tick=24, channel=3, data=[60, 70]),
   midi.NoteOffEvent(tick=72, channel=3, data=[60, 64]),
   midi.NoteOnEvent(tick=48, channel=3, data=[59, 70]),
   midi.NoteOffEvent(tick=72, channel=3, data=[59, 64]),
   midi.NoteOnEvent(tick=48, channel=3, data=[57, 70]),
   midi.NoteOffEvent(tick=72, channel=3, data=[57, 64]),
   midi.NoteOnEvent(tick=48, channel=3, data=[55, 70]),
   midi.NoteOffEvent(tick=72, channel=3, data=[55, 64]),
   midi.NoteOnEvent(tick=48, channel=3, data=[62, 70]),
   midi.NoteOffEvent(tick=192, channel=3, data=[62, 64]),
   midi.NoteOnEvent(tick=48, channel=3, data=[50, 70]),
   midi.NoteOffEvent(tick=192, channel=3, data=[50, 64]),
   midi.NoteOnEvent(tick=288, channel=3, data=[55, 58]),
   midi.NoteOffEvent(tick=480, channel=3, data=[55, 64]),
   midi.NoteOnEvent(tick=0, channel=3, data=[54, 58]),
   midi.NoteOffEvent(tick=192, channel=3, data=[54, 64]),
   midi.NoteOnEvent(tick=48, channel=3, data=[52, 58]),
   midi.NoteOffEvent(tick=288, channel=3, data=[52, 64]),
   midi.NoteOnEvent(tick=72, channel=3, data=[52, 58]),
   midi.NoteOffEvent(tick=96, channel=3, data=[52, 64]),
   midi.NoteOnEvent(tick=24, channel=3, data=[50, 58]),
   midi.NoteOffEvent(tick=192, channel=3, data=[50, 64]),
   midi.NoteOnEvent(tick=48, channel=3, data=[48, 58]),
   midi.NoteOffEvent(tick=96, channel=3, data=[48, 64]),
   midi.NoteOnEvent(tick=144, channel=3, data=[48, 58]),
   midi.NoteOffEvent(tick=96, channel=3, data=[48, 64]),
   midi.NoteOnEvent(tick=144, channel=3, data=[49, 58]),
   midi.NoteOffEvent(tick=96, channel=3, data=[49, 64]),
   midi.NoteOnEvent(tick=444, channel=3, data=[50, 58]),
   midi.NoteOffEvent(tick=36, channel=3, data=[50, 64]),
   midi.NoteOnEvent(tick=24, channel=3, data=[52, 58]),
   midi.NoteOffEvent(tick=36, channel=3, data=[52, 64]),
   midi.NoteOnEvent(tick=24, channel=3, data=[54, 58]),
   midi.NoteOffEvent(tick=36, channel=3, data=[54, 64]),
   midi.NoteOnEvent(tick=24, channel=3, data=[55, 58]),
   midi.NoteOffEvent(tick=36, channel=3, data=[55, 64]),
   midi.NoteOnEvent(tick=24, channel=3, data=[57, 58]),
   midi.NoteOffEvent(tick=36, channel=3, data=[57, 64]),
   midi.NoteOnEvent(tick=24, channel=3, data=[59, 58]),
   midi.NoteOffEvent(tick=36, channel=3, data=[59, 64]),
   midi.NoteOnEvent(tick=24, channel=3, data=[60, 58]),
   midi.NoteOffEvent(tick=36, channel=3, data=[60, 64]),
   midi.NoteOnEvent(tick=24, channel=3, data=[59, 58]),
   midi.NoteOffEvent(tick=144, channel=3, data=[59, 64]),
   midi.NoteOnEvent(tick=36, channel=3, data=[60, 58]),
   midi.NoteOffEvent(tick=48, channel=3, data=[60, 64]),
   midi.NoteOnEvent(tick=12, channel=3, data=[62, 58]),
   midi.NoteOffEvent(tick=120, channel=3, data=[62, 64]),
   midi.NoteOnEvent(tick=0, channel=3, data=[64, 58]),
   midi.NoteOffEvent(tick=120, channel=3, data=[64, 64]),
   midi.NoteOnEvent(tick=0, channel=3, data=[57, 58]),
   midi.NoteOffEvent(tick=120, channel=3, data=[57, 64]),
   midi.NoteOnEvent(tick=0, channel=3, data=[62, 58]),
   midi.NoteOffEvent(tick=96, channel=3, data=[62, 64]),
   midi.NoteOnEvent(tick=24, channel=3, data=[55, 58]),
   midi.NoteOffEvent(tick=144, channel=3, data=[55, 64]),
   midi.NoteOnEvent(tick=36, channel=3, data=[57, 58]),
   midi.NoteOffEvent(tick=24, channel=3, data=[57, 64]),
   midi.NoteOnEvent(tick=6, channel=3, data=[59, 58]),
   midi.NoteOffEvent(tick=24, channel=3, data=[59, 64]),
   midi.NoteOnEvent(tick=6, channel=3, data=[60, 58]),
   midi.NoteOffEvent(tick=360, channel=3, data=[60, 64]),
   midi.NoteOnEvent(tick=0, channel=3, data=[59, 58]),
   midi.NoteOffEvent(tick=96, channel=3, data=[59, 64]),
   midi.NoteOnEvent(tick=24, channel=3, data=[64, 58]),
   midi.NoteOffEvent(tick=96, channel=3, data=[64, 64]),
   midi.NoteOnEvent(tick=24, channel=3, data=[64, 58]),
   midi.NoteOffEvent(tick=48, channel=3, data=[64, 64]),
   midi.NoteOnEvent(tick=12, channel=3, data=[63, 58]),
   midi.NoteOffEvent(tick=48, channel=3, data=[63, 64]),
   midi.NoteOnEvent(tick=12, channel=3, data=[64, 58]),
   midi.NoteOffEvent(tick=288, channel=3, data=[64, 64]),
   midi.NoteOnEvent(tick=72, channel=3, data=[60, 58]),
   midi.NoteOffEvent(tick=60, channel=3, data=[60, 64]),
   midi.NoteOnEvent(tick=0, channel=3, data=[57, 58]),
   midi.NoteOffEvent(tick=48, channel=3, data=[57, 64]),
   midi.NoteOnEvent(tick=12, channel=3, data=[62, 58]),
   midi.NoteOffEvent(tick=96, channel=3, data=[62, 64]),
   midi.NoteOnEvent(tick=24, channel=3, data=[62, 58]),
   midi.NoteOffEvent(tick=48, channel=3, data=[62, 64]),
   midi.NoteOnEvent(tick=12, channel=3, data=[61, 58]),
   midi.NoteOffEvent(tick=48, channel=3, data=[61, 64]),
   midi.NoteOnEvent(tick=12, channel=3, data=[62, 58]),
   midi.NoteOffEvent(tick=300, channel=3, data=[62, 64]),
   midi.NoteOnEvent(tick=0, channel=3, data=[60, 58]),
   midi.NoteOffEvent(tick=60, channel=3, data=[60, 64]),
   midi.NoteOnEvent(tick=0, channel=3, data=[59, 58]),
   midi.NoteOffEvent(tick=60, channel=3, data=[59, 64]),
   midi.NoteOnEvent(tick=0, channel=3, data=[57, 58]),
   midi.NoteOffEvent(tick=48, channel=3, data=[57, 64]),
   midi.NoteOnEvent(tick=12, channel=3, data=[55, 58]),
   midi.NoteOffEvent(tick=60, channel=3, data=[55, 64]),
   midi.NoteOnEvent(tick=0, channel=3, data=[57, 58]),
   midi.NoteOffEvent(tick=60, channel=3, data=[57, 64]),
   midi.NoteOnEvent(tick=0, channel=3, data=[59, 58]),
   midi.NoteOffEvent(tick=60, channel=3, data=[59, 64]),
   midi.NoteOnEvent(tick=0, channel=3, data=[55, 58]),
   midi.NoteOffEvent(tick=60, channel=3, data=[55, 64]),
   midi.NoteOnEvent(tick=0, channel=3, data=[57, 58]),
   midi.NoteOffEvent(tick=60, channel=3, data=[57, 64]),
   midi.NoteOnEvent(tick=0, channel=3, data=[59, 58]),
   midi.NoteOffEvent(tick=60, channel=3, data=[59, 64]),
   midi.NoteOnEvent(tick=0, channel=3, data=[60, 58]),
   midi.NoteOffEvent(tick=60, channel=3, data=[60, 64]),
   midi.NoteOnEvent(tick=0, channel=3, data=[57, 58]),
   midi.NoteOffEvent(tick=60, channel=3, data=[57, 64]),
   midi.NoteOnEvent(tick=0, channel=3, data=[54, 58]),
   midi.NoteOffEvent(tick=60, channel=3, data=[54, 64]),
   midi.NoteOnEvent(tick=0, channel=3, data=[55, 58]),
   midi.NoteOffEvent(tick=60, channel=3, data=[55, 64]),
   midi.NoteOnEvent(tick=0, channel=3, data=[57, 58]),
   midi.NoteOffEvent(tick=60, channel=3, data=[57, 64]),
   midi.NoteOnEvent(tick=0, channel=3, data=[54, 58]),
   midi.NoteOffEvent(tick=48, channel=3, data=[54, 64]),
   midi.NoteOnEvent(tick=12, channel=3, data=[55, 78]),
   midi.NoteOffEvent(tick=90, channel=3, data=[55, 64]),
   midi.NoteOnEvent(tick=30, channel=3, data=[55, 58]),
   midi.NoteOffEvent(tick=90, channel=3, data=[55, 64]),
   midi.NoteOnEvent(tick=30, channel=3, data=[55, 58]),
   midi.NoteOffEvent(tick=90, channel=3, data=[55, 64]),
   midi.NoteOnEvent(tick=30, channel=3, data=[55, 58]),
   midi.NoteOffEvent(tick=90, channel=3, data=[55, 64]),
   midi.NoteOnEvent(tick=30, channel=3, data=[55, 58]),
   midi.NoteOffEvent(tick=90, channel=3, data=[55, 64]),
   midi.NoteOnEvent(tick=30, channel=3, data=[55, 58]),
   midi.NoteOffEvent(tick=90, channel=3, data=[55, 64]),
   midi.NoteOnEvent(tick=30, channel=3, data=[55, 58]),
   midi.NoteOffEvent(tick=90, channel=3, data=[55, 64]),
   midi.NoteOnEvent(tick=30, channel=3, data=[55, 58]),
   midi.NoteOffEvent(tick=90, channel=3, data=[55, 64]),
   midi.NoteOnEvent(tick=30, channel=3, data=[55, 58]),
   midi.NoteOffEvent(tick=90, channel=3, data=[55, 64]),
   midi.NoteOnEvent(tick=30, channel=3, data=[55, 58]),
   midi.NoteOffEvent(tick=90, channel=3, data=[55, 64]),
   midi.NoteOnEvent(tick=30, channel=3, data=[55, 58]),
   midi.NoteOffEvent(tick=90, channel=3, data=[55, 64]),
   midi.NoteOnEvent(tick=30, channel=3, data=[55, 58]),
   midi.NoteOffEvent(tick=90, channel=3, data=[55, 64]),
   midi.NoteOnEvent(tick=30, channel=3, data=[55, 78]),
   midi.NoteOffEvent(tick=90, channel=3, data=[55, 64]),
   midi.NoteOnEvent(tick=30, channel=3, data=[55, 58]),
   midi.NoteOffEvent(tick=90, channel=3, data=[55, 64]),
   midi.NoteOnEvent(tick=30, channel=3, data=[55, 58]),
   midi.NoteOffEvent(tick=90, channel=3, data=[55, 64]),
   midi.NoteOnEvent(tick=30, channel=3, data=[55, 58]),
   midi.NoteOffEvent(tick=90, channel=3, data=[55, 64]),
   midi.NoteOnEvent(tick=30, channel=3, data=[55, 58]),
   midi.NoteOffEvent(tick=90, channel=3, data=[55, 64]),
   midi.NoteOnEvent(tick=30, channel=3, data=[55, 58]),
   midi.NoteOffEvent(tick=90, channel=3, data=[55, 64]),
   midi.NoteOnEvent(tick=30, channel=3, data=[55, 58]),
   midi.NoteOffEvent(tick=90, channel=3, data=[55, 64]),
   midi.NoteOnEvent(tick=30, channel=3, data=[55, 58]),
   midi.NoteOffEvent(tick=90, channel=3, data=[55, 64]),
   midi.NoteOnEvent(tick=30, channel=3, data=[55, 58]),
   midi.NoteOffEvent(tick=90, channel=3, data=[55, 64]),
   midi.NoteOnEvent(tick=30, channel=3, data=[55, 58]),
   midi.NoteOffEvent(tick=90, channel=3, data=[55, 64]),
   midi.NoteOnEvent(tick=30, channel=3, data=[55, 58]),
   midi.NoteOffEvent(tick=90, channel=3, data=[55, 64]),
   midi.NoteOnEvent(tick=30, channel=3, data=[55, 58]),
   midi.NoteOffEvent(tick=90, channel=3, data=[55, 64]),
   midi.NoteOnEvent(tick=30, channel=3, data=[55, 58]),
   midi.NoteOffEvent(tick=192, channel=3, data=[55, 64]),
   midi.NoteOnEvent(tick=528, channel=3, data=[55, 58]),
   midi.NoteOffEvent(tick=684, channel=3, data=[55, 64]),
   midi.NoteOnEvent(tick=36, channel=3, data=[67, 80]),
   midi.NoteOffEvent(tick=240, channel=3, data=[67, 64]),
   midi.NoteOnEvent(tick=0, channel=3, data=[66, 92]),
   midi.NoteOffEvent(tick=240, channel=3, data=[66, 64]),
   midi.NoteOnEvent(tick=0, channel=3, data=[65, 105]),
   midi.NoteOffEvent(tick=240, channel=3, data=[65, 64]),
   midi.NoteOnEvent(tick=0, channel=3, data=[64, 105]),
   midi.NoteOffEvent(tick=192, channel=3, data=[64, 64]),
   midi.NoteOnEvent(tick=168, channel=3, data=[57, 58]),
   midi.NoteOffEvent(tick=60, channel=3, data=[57, 64]),
   midi.NoteOnEvent(tick=0, channel=3, data=[60, 58]),
   midi.NoteOffEvent(tick=60, channel=3, data=[60, 64]),
   midi.NoteOnEvent(tick=0, channel=3, data=[64, 58]),
   midi.NoteOffEvent(tick=78, channel=3, data=[64, 64]),
   midi.NoteOnEvent(tick=42, channel=3, data=[54, 58]),
   midi.NoteOffEvent(tick=78, channel=3, data=[54, 64]),
   midi.NoteOnEvent(tick=42, channel=3, data=[54, 58]),
   midi.NoteOffEvent(tick=384, channel=3, data=[54, 64]),
   midi.NoteOnEvent(tick=96, channel=3, data=[55, 58]),
   midi.NoteOffEvent(tick=120, channel=3, data=[55, 64]),
   midi.EndOfTrackEvent(tick=0, data=[])]),
 midi.Track(\
  [midi.ProgramChangeEvent(tick=0, channel=4, data=[60]),
   midi.ControlChangeEvent(tick=0, channel=4, data=[7, 116]),
   midi.ControlChangeEvent(tick=0, channel=4, data=[10, 92]),
   midi.ControlChangeEvent(tick=0, channel=4, data=[91, 70]),
   midi.NoteOnEvent(tick=2160, channel=4, data=[55, 70]),
   midi.NoteOnEvent(tick=0, channel=4, data=[67, 70]),
   midi.NoteOffEvent(tick=288, channel=4, data=[67, 64]),
   midi.NoteOffEvent(tick=0, channel=4, data=[55, 64]),
   midi.NoteOnEvent(tick=72, channel=4, data=[55, 70]),
   midi.NoteOnEvent(tick=0, channel=4, data=[67, 70]),
   midi.NoteOffEvent(tick=96, channel=4, data=[67, 64]),
   midi.NoteOffEvent(tick=0, channel=4, data=[55, 64]),
   midi.NoteOnEvent(tick=24, channel=4, data=[55, 70]),
   midi.NoteOnEvent(tick=0, channel=4, data=[67, 70]),
   midi.NoteOffEvent(tick=96, channel=4, data=[67, 64]),
   midi.NoteOffEvent(tick=0, channel=4, data=[55, 64]),
   midi.NoteOnEvent(tick=24, channel=4, data=[67, 70]),
   midi.NoteOnEvent(tick=0, channel=4, data=[55, 70]),
   midi.NoteOffEvent(tick=96, channel=4, data=[55, 64]),
   midi.NoteOffEvent(tick=0, channel=4, data=[67, 64]),
   midi.NoteOnEvent(tick=24, channel=4, data=[55, 70]),
   midi.NoteOnEvent(tick=0, channel=4, data=[67, 70]),
   midi.NoteOffEvent(tick=288, channel=4, data=[67, 64]),
   midi.NoteOffEvent(tick=0, channel=4, data=[55, 64]),
   midi.NoteOnEvent(tick=72, channel=4, data=[67, 70]),
   midi.NoteOffEvent(tick=78, channel=4, data=[67, 64]),
   midi.NoteOnEvent(tick=42, channel=4, data=[62, 70]),
   midi.NoteOffEvent(tick=78, channel=4, data=[62, 64]),
   midi.NoteOnEvent(tick=42, channel=4, data=[59, 70]),
   midi.NoteOffEvent(tick=78, channel=4, data=[59, 64]),
   midi.NoteOnEvent(tick=42, channel=4, data=[55, 70]),
   midi.NoteOffEvent(tick=192, channel=4, data=[55, 64]),
   midi.NoteOnEvent(tick=9168, channel=4, data=[50, 58]),
   midi.NoteOnEvent(tick=0, channel=4, data=[62, 58]),
   midi.NoteOffEvent(tick=576, channel=4, data=[62, 64]),
   midi.NoteOffEvent(tick=0, channel=4, data=[50, 64]),
   midi.NoteOnEvent(tick=864, channel=4, data=[50, 90]),
   midi.NoteOnEvent(tick=0, channel=4, data=[62, 90]),
   midi.NoteOffEvent(tick=240, channel=4, data=[62, 64]),
   midi.NoteOffEvent(tick=0, channel=4, data=[50, 64]),
   midi.NoteOnEvent(tick=0, channel=4, data=[62, 70]),
   midi.NoteOnEvent(tick=0, channel=4, data=[50, 70]),
   midi.NoteOffEvent(tick=1200, channel=4, data=[62, 64]),
   midi.NoteOffEvent(tick=0, channel=4, data=[50, 64]),
   midi.NoteOnEvent(tick=0, channel=4, data=[62, 90]),
   midi.NoteOnEvent(tick=0, channel=4, data=[50, 90]),
   midi.NoteOffEvent(tick=240, channel=4, data=[50, 64]),
   midi.NoteOffEvent(tick=0, channel=4, data=[62, 64]),
   midi.NoteOnEvent(tick=0, channel=4, data=[62, 70]),
   midi.NoteOnEvent(tick=0, channel=4, data=[50, 70]),
   midi.NoteOffEvent(tick=1200, channel=4, data=[62, 64]),
   midi.NoteOffEvent(tick=0, channel=4, data=[50, 64]),
   midi.NoteOnEvent(tick=0, channel=4, data=[62, 58]),
   midi.NoteOnEvent(tick=0, channel=4, data=[50, 58]),
   midi.NoteOffEvent(tick=1440, channel=4, data=[62, 64]),
   midi.NoteOffEvent(tick=0, channel=4, data=[50, 64]),
   midi.NoteOnEvent(tick=0, channel=4, data=[50, 58]),
   midi.NoteOnEvent(tick=0, channel=4, data=[62, 58]),
   midi.NoteOffEvent(tick=336, channel=4, data=[62, 64]),
   midi.NoteOffEvent(tick=0, channel=4, data=[50, 64]),
   midi.NoteOnEvent(tick=1824, channel=4, data=[55, 70]),
   midi.NoteOnEvent(tick=0, channel=4, data=[67, 70]),
   midi.NoteOffEvent(tick=288, channel=4, data=[67, 64]),
   midi.NoteOffEvent(tick=0, channel=4, data=[55, 64]),
   midi.NoteOnEvent(tick=72, channel=4, data=[55, 70]),
   midi.NoteOnEvent(tick=0, channel=4, data=[67, 70]),
   midi.NoteOffEvent(tick=96, channel=4, data=[67, 64]),
   midi.NoteOffEvent(tick=0, channel=4, data=[55, 64]),
   midi.NoteOnEvent(tick=24, channel=4, data=[55, 70]),
   midi.NoteOnEvent(tick=0, channel=4, data=[67, 70]),
   midi.NoteOffEvent(tick=96, channel=4, data=[67, 64]),
   midi.NoteOffEvent(tick=0, channel=4, data=[55, 64]),
   midi.NoteOnEvent(tick=24, channel=4, data=[67, 70]),
   midi.NoteOnEvent(tick=0, channel=4, data=[55, 70]),
   midi.NoteOffEvent(tick=96, channel=4, data=[55, 64]),
   midi.NoteOffEvent(tick=0, channel=4, data=[67, 64]),
   midi.NoteOnEvent(tick=24, channel=4, data=[55, 70]),
   midi.NoteOnEvent(tick=0, channel=4, data=[67, 70]),
   midi.NoteOffEvent(tick=288, channel=4, data=[67, 64]),
   midi.NoteOffEvent(tick=0, channel=4, data=[55, 64]),
   midi.NoteOnEvent(tick=72, channel=4, data=[67, 70]),
   midi.NoteOffEvent(tick=78, channel=4, data=[67, 64]),
   midi.NoteOnEvent(tick=42, channel=4, data=[62, 70]),
   midi.NoteOffEvent(tick=78, channel=4, data=[62, 64]),
   midi.NoteOnEvent(tick=42, channel=4, data=[59, 70]),
   midi.NoteOffEvent(tick=78, channel=4, data=[59, 64]),
   midi.NoteOnEvent(tick=42, channel=4, data=[55, 70]),
   midi.NoteOffEvent(tick=192, channel=4, data=[55, 64]),
   midi.NoteOnEvent(tick=9168, channel=4, data=[50, 58]),
   midi.NoteOnEvent(tick=0, channel=4, data=[62, 58]),
   midi.NoteOffEvent(tick=576, channel=4, data=[62, 64]),
   midi.NoteOffEvent(tick=0, channel=4, data=[50, 64]),
   midi.NoteOnEvent(tick=864, channel=4, data=[50, 90]),
   midi.NoteOnEvent(tick=0, channel=4, data=[62, 90]),
   midi.NoteOffEvent(tick=240, channel=4, data=[62, 64]),
   midi.NoteOffEvent(tick=0, channel=4, data=[50, 64]),
   midi.NoteOnEvent(tick=0, channel=4, data=[62, 70]),
   midi.NoteOnEvent(tick=0, channel=4, data=[50, 70]),
   midi.NoteOffEvent(tick=1200, channel=4, data=[62, 64]),
   midi.NoteOffEvent(tick=0, channel=4, data=[50, 64]),
   midi.NoteOnEvent(tick=0, channel=4, data=[62, 90]),
   midi.NoteOnEvent(tick=0, channel=4, data=[50, 90]),
   midi.NoteOffEvent(tick=240, channel=4, data=[50, 64]),
   midi.NoteOffEvent(tick=0, channel=4, data=[62, 64]),
   midi.NoteOnEvent(tick=0, channel=4, data=[62, 70]),
   midi.NoteOnEvent(tick=0, channel=4, data=[50, 70]),
   midi.NoteOffEvent(tick=1200, channel=4, data=[62, 64]),
   midi.NoteOffEvent(tick=0, channel=4, data=[50, 64]),
   midi.NoteOnEvent(tick=0, channel=4, data=[62, 58]),
   midi.NoteOnEvent(tick=0, channel=4, data=[50, 58]),
   midi.NoteOffEvent(tick=1440, channel=4, data=[62, 64]),
   midi.NoteOffEvent(tick=0, channel=4, data=[50, 64]),
   midi.NoteOnEvent(tick=0, channel=4, data=[62, 58]),
   midi.NoteOnEvent(tick=0, channel=4, data=[50, 58]),
   midi.NoteOffEvent(tick=336, channel=4, data=[62, 64]),
   midi.NoteOffEvent(tick=0, channel=4, data=[50, 64]),
   midi.NoteOnEvent(tick=3144, channel=4, data=[62, 92]),
   midi.NoteOffEvent(tick=90, channel=4, data=[62, 64]),
   midi.NoteOnEvent(tick=30, channel=4, data=[67, 92]),
   midi.NoteOnEvent(tick=0, channel=4, data=[59, 92]),
   midi.NoteOffEvent(tick=72, channel=4, data=[59, 64]),
   midi.NoteOffEvent(tick=0, channel=4, data=[67, 64]),
   midi.NoteOnEvent(tick=48, channel=4, data=[62, 92]),
   midi.NoteOffEvent(tick=72, channel=4, data=[62, 64]),
   midi.NoteOnEvent(tick=48, channel=4, data=[55, 92]),
   midi.NoteOnEvent(tick=0, channel=4, data=[67, 92]),
   midi.NoteOffEvent(tick=72, channel=4, data=[67, 64]),
   midi.NoteOffEvent(tick=0, channel=4, data=[55, 64]),
   midi.NoteOnEvent(tick=48, channel=4, data=[62, 92]),
   midi.NoteOffEvent(tick=72, channel=4, data=[62, 64]),
   midi.NoteOnEvent(tick=48, channel=4, data=[59, 92]),
   midi.NoteOnEvent(tick=0, channel=4, data=[67, 92]),
   midi.NoteOffEvent(tick=72, channel=4, data=[67, 64]),
   midi.NoteOffEvent(tick=0, channel=4, data=[59, 64]),
   midi.NoteOnEvent(tick=48, channel=4, data=[62, 92]),
   midi.NoteOnEvent(tick=0, channel=4, data=[69, 92]),
   midi.NoteOffEvent(tick=72, channel=4, data=[69, 64]),
   midi.NoteOffEvent(tick=0, channel=4, data=[62, 64]),
   midi.NoteOnEvent(tick=48, channel=4, data=[71, 92]),
   midi.NoteOnEvent(tick=0, channel=4, data=[67, 92]),
   midi.NoteOffEvent(tick=72, channel=4, data=[67, 64]),
   midi.NoteOffEvent(tick=0, channel=4, data=[71, 64]),
   midi.NoteOnEvent(tick=48, channel=4, data=[67, 92]),
   midi.NoteOnEvent(tick=0, channel=4, data=[62, 92]),
   midi.NoteOffEvent(tick=72, channel=4, data=[62, 64]),
   midi.NoteOffEvent(tick=0, channel=4, data=[67, 64]),
   midi.NoteOnEvent(tick=48, channel=4, data=[71, 92]),
   midi.NoteOnEvent(tick=0, channel=4, data=[67, 92]),
   midi.NoteOffEvent(tick=72, channel=4, data=[67, 64]),
   midi.NoteOffEvent(tick=0, channel=4, data=[71, 64]),
   midi.NoteOnEvent(tick=48, channel=4, data=[62, 92]),
   midi.NoteOnEvent(tick=0, channel=4, data=[67, 92]),
   midi.NoteOffEvent(tick=72, channel=4, data=[67, 64]),
   midi.NoteOffEvent(tick=0, channel=4, data=[62, 64]),
   midi.NoteOnEvent(tick=48, channel=4, data=[67, 92]),
   midi.NoteOnEvent(tick=0, channel=4, data=[71, 92]),
   midi.NoteOffEvent(tick=72, channel=4, data=[71, 64]),
   midi.NoteOffEvent(tick=0, channel=4, data=[67, 64]),
   midi.NoteOnEvent(tick=48, channel=4, data=[62, 92]),
   midi.NoteOnEvent(tick=0, channel=4, data=[69, 92]),
   midi.NoteOffEvent(tick=72, channel=4, data=[69, 64]),
   midi.NoteOffEvent(tick=0, channel=4, data=[62, 64]),
   midi.NoteOnEvent(tick=48, channel=4, data=[59, 92]),
   midi.NoteOnEvent(tick=0, channel=4, data=[67, 92]),
   midi.NoteOffEvent(tick=72, channel=4, data=[67, 64]),
   midi.NoteOffEvent(tick=0, channel=4, data=[59, 64]),
   midi.NoteOnEvent(tick=168, channel=4, data=[67, 92]),
   midi.NoteOnEvent(tick=0, channel=4, data=[59, 92]),
   midi.NoteOffEvent(tick=90, channel=4, data=[59, 64]),
   midi.NoteOffEvent(tick=0, channel=4, data=[67, 64]),
   midi.NoteOnEvent(tick=150, channel=4, data=[59, 92]),
   midi.NoteOnEvent(tick=0, channel=4, data=[67, 92]),
   midi.NoteOffEvent(tick=90, channel=4, data=[67, 64]),
   midi.NoteOffEvent(tick=0, channel=4, data=[59, 64]),
   midi.NoteOnEvent(tick=30, channel=4, data=[71, 92]),
   midi.NoteOnEvent(tick=0, channel=4, data=[59, 92]),
   midi.NoteOffEvent(tick=45, channel=4, data=[59, 64]),
   midi.NoteOffEvent(tick=0, channel=4, data=[71, 64]),
   midi.NoteOnEvent(tick=15, channel=4, data=[67, 92]),
   midi.NoteOnEvent(tick=0, channel=4, data=[55, 92]),
   midi.NoteOffEvent(tick=45, channel=4, data=[55, 64]),
   midi.NoteOffEvent(tick=0, channel=4, data=[67, 64]),
   midi.NoteOnEvent(tick=15, channel=4, data=[62, 92]),
   midi.NoteOnEvent(tick=0, channel=4, data=[74, 92]),
   midi.NoteOffEvent(tick=90, channel=4, data=[74, 64]),
   midi.NoteOffEvent(tick=0, channel=4, data=[62, 64]),
   midi.NoteOnEvent(tick=30, channel=4, data=[59, 92]),
   midi.NoteOnEvent(tick=0, channel=4, data=[71, 92]),
   midi.NoteOffEvent(tick=45, channel=4, data=[71, 64]),
   midi.NoteOffEvent(tick=0, channel=4, data=[59, 64]),
   midi.NoteOnEvent(tick=15, channel=4, data=[67, 92]),
   midi.NoteOnEvent(tick=0, channel=4, data=[55, 92]),
   midi.NoteOffEvent(tick=45, channel=4, data=[55, 64]),
   midi.NoteOffEvent(tick=0, channel=4, data=[67, 64]),
   midi.NoteOnEvent(tick=15, channel=4, data=[50, 58]),
   midi.NoteOnEvent(tick=0, channel=4, data=[62, 58]),
   midi.NoteOffEvent(tick=4272, channel=4, data=[62, 64]),
   midi.NoteOffEvent(tick=0, channel=4, data=[50, 64]),
   midi.NoteOnEvent(tick=3408, channel=4, data=[67, 58]),
   midi.NoteOnEvent(tick=0, channel=4, data=[71, 58]),
   midi.NoteOffEvent(tick=384, channel=4, data=[71, 64]),
   midi.NoteOffEvent(tick=0, channel=4, data=[67, 64]),
   midi.NoteOnEvent(tick=96, channel=4, data=[69, 58]),
   midi.NoteOnEvent(tick=0, channel=4, data=[62, 58]),
   midi.NoteOffEvent(tick=192, channel=4, data=[62, 64]),
   midi.NoteOffEvent(tick=0, channel=4, data=[69, 64]),
   midi.NoteOnEvent(tick=48, channel=4, data=[55, 58]),
   midi.NoteOnEvent(tick=0, channel=4, data=[67, 58]),
   midi.NoteOffEvent(tick=576, channel=4, data=[67, 64]),
   midi.NoteOffEvent(tick=0, channel=4, data=[55, 64]),
   midi.NoteOnEvent(tick=144, channel=4, data=[67, 58]),
   midi.NoteOnEvent(tick=0, channel=4, data=[69, 58]),
   midi.NoteOffEvent(tick=288, channel=4, data=[69, 64]),
   midi.NoteOffEvent(tick=0, channel=4, data=[67, 64]),
   midi.NoteOnEvent(tick=72, channel=4, data=[69, 58]),
   midi.NoteOnEvent(tick=0, channel=4, data=[67, 58]),
   midi.NoteOffEvent(tick=90, channel=4, data=[67, 64]),
   midi.NoteOffEvent(tick=0, channel=4, data=[69, 64]),
   midi.NoteOnEvent(tick=30, channel=4, data=[69, 58]),
   midi.NoteOnEvent(tick=0, channel=4, data=[67, 58]),
   midi.NoteOffEvent(tick=90, channel=4, data=[67, 64]),
   midi.NoteOffEvent(tick=0, channel=4, data=[69, 64]),
   midi.NoteOnEvent(tick=30, channel=4, data=[67, 58]),
   midi.NoteOnEvent(tick=0, channel=4, data=[69, 58]),
   midi.NoteOffEvent(tick=90, channel=4, data=[69, 64]),
   midi.NoteOffEvent(tick=0, channel=4, data=[67, 64]),
   midi.NoteOnEvent(tick=30, channel=4, data=[69, 58]),
   midi.NoteOnEvent(tick=0, channel=4, data=[62, 58]),
   midi.NoteOffEvent(tick=288, channel=4, data=[62, 64]),
   midi.NoteOffEvent(tick=0, channel=4, data=[69, 64]),
   midi.NoteOnEvent(tick=72, channel=4, data=[62, 58]),
   midi.NoteOnEvent(tick=0, channel=4, data=[69, 58]),
   midi.NoteOffEvent(tick=90, channel=4, data=[69, 64]),
   midi.NoteOffEvent(tick=0, channel=4, data=[62, 64]),
   midi.NoteOnEvent(tick=30, channel=4, data=[62, 58]),
   midi.NoteOnEvent(tick=0, channel=4, data=[69, 58]),
   midi.NoteOffEvent(tick=90, channel=4, data=[69, 64]),
   midi.NoteOffEvent(tick=0, channel=4, data=[62, 64]),
   midi.NoteOnEvent(tick=30, channel=4, data=[69, 58]),
   midi.NoteOnEvent(tick=0, channel=4, data=[62, 58]),
   midi.NoteOffEvent(tick=90, channel=4, data=[62, 64]),
   midi.NoteOffEvent(tick=0, channel=4, data=[69, 64]),
   midi.NoteOnEvent(tick=30, channel=4, data=[62, 58]),
   midi.NoteOnEvent(tick=0, channel=4, data=[67, 58]),
   midi.NoteOffEvent(tick=96, channel=4, data=[67, 64]),
   midi.NoteOffEvent(tick=0, channel=4, data=[62, 64]),
   midi.NoteOnEvent(tick=144, channel=4, data=[69, 58]),
   midi.NoteOnEvent(tick=0, channel=4, data=[72, 58]),
   midi.NoteOffEvent(tick=96, channel=4, data=[72, 64]),
   midi.NoteOffEvent(tick=0, channel=4, data=[69, 64]),
   midi.NoteOnEvent(tick=144, channel=4, data=[69, 58]),
   midi.NoteOnEvent(tick=0, channel=4, data=[62, 58]),
   midi.NoteOffEvent(tick=96, channel=4, data=[62, 64]),
   midi.NoteOffEvent(tick=0, channel=4, data=[69, 64]),
   midi.NoteOnEvent(tick=144, channel=4, data=[67, 78]),
   midi.NoteOnEvent(tick=0, channel=4, data=[55, 58]),
   midi.NoteOffEvent(tick=192, channel=4, data=[55, 64]),
   midi.NoteOffEvent(tick=48, channel=4, data=[67, 64]),
   midi.NoteOnEvent(tick=0, channel=4, data=[67, 58]),
   midi.NoteOnEvent(tick=0, channel=4, data=[55, 58]),
   midi.NoteOffEvent(tick=1186, channel=4, data=[67, 64]),
   midi.NoteOffEvent(tick=0, channel=4, data=[55, 64]),
   midi.NoteOnEvent(tick=14, channel=4, data=[67, 78]),
   midi.NoteOnEvent(tick=0, channel=4, data=[55, 58]),
   midi.NoteOffEvent(tick=192, channel=4, data=[55, 64]),
   midi.NoteOffEvent(tick=48, channel=4, data=[67, 64]),
   midi.NoteOnEvent(tick=0, channel=4, data=[67, 58]),
   midi.NoteOnEvent(tick=0, channel=4, data=[55, 58]),
   midi.NoteOffEvent(tick=3552, channel=4, data=[67, 64]),
   midi.NoteOffEvent(tick=0, channel=4, data=[55, 64]),
   midi.NoteOnEvent(tick=408, channel=4, data=[50, 58]),
   midi.NoteOnEvent(tick=0, channel=4, data=[62, 58]),
   midi.NoteOffEvent(tick=78, channel=4, data=[62, 64]),
   midi.NoteOffEvent(tick=0, channel=4, data=[50, 64]),
   midi.NoteOnEvent(tick=42, channel=4, data=[55, 58]),
   midi.NoteOnEvent(tick=0, channel=4, data=[62, 58]),
   midi.NoteOffEvent(tick=600, channel=4, data=[62, 64]),
   midi.NoteOffEvent(tick=0, channel=4, data=[55, 64]),
   midi.EndOfTrackEvent(tick=0, data=[])]),
 midi.Track(\
  [midi.ProgramChangeEvent(tick=0, channel=10, data=[48]),
   midi.ControlChangeEvent(tick=0, channel=10, data=[7, 126]),
   midi.ControlChangeEvent(tick=0, channel=10, data=[91, 70]),
   midi.ControlChangeEvent(tick=0, channel=10, data=[10, 28]),
   midi.NoteOnEvent(tick=600, channel=10, data=[74, 70]),
   midi.NoteOffEvent(tick=60, channel=10, data=[74, 64]),
   midi.NoteOnEvent(tick=0, channel=10, data=[71, 70]),
   midi.NoteOffEvent(tick=48, channel=10, data=[71, 64]),
   midi.NoteOnEvent(tick=12, channel=10, data=[67, 70]),
   midi.NoteOffEvent(tick=144, channel=10, data=[67, 64]),
   midi.NoteOnEvent(tick=36, channel=10, data=[69, 70]),
   midi.NoteOffEvent(tick=48, channel=10, data=[69, 64]),
   midi.NoteOnEvent(tick=12, channel=10, data=[71, 70]),
   midi.NoteOffEvent(tick=72, channel=10, data=[71, 64]),
   midi.NoteOnEvent(tick=48, channel=10, data=[71, 70]),
   midi.NoteOffEvent(tick=72, channel=10, data=[71, 64]),
   midi.NoteOnEvent(tick=48, channel=10, data=[71, 70]),
   midi.NoteOffEvent(tick=72, channel=10, data=[71, 64]),
   midi.NoteOnEvent(tick=48, channel=10, data=[71, 70]),
   midi.NoteOffEvent(tick=72, channel=10, data=[71, 64]),
   midi.NoteOnEvent(tick=48, channel=10, data=[74, 70]),
   midi.NoteOffEvent(tick=60, channel=10, data=[74, 64]),
   midi.NoteOnEvent(tick=0, channel=10, data=[72, 70]),
   midi.NoteOffEvent(tick=48, channel=10, data=[72, 64]),
   midi.NoteOnEvent(tick=12, channel=10, data=[71, 70]),
   midi.NoteOffEvent(tick=48, channel=10, data=[71, 64]),
   midi.NoteOnEvent(tick=12, channel=10, data=[69, 70]),
   midi.NoteOffEvent(tick=48, channel=10, data=[69, 64]),
   midi.NoteOnEvent(tick=12, channel=10, data=[74, 70]),
   midi.NoteOffEvent(tick=360, channel=10, data=[74, 64]),
   midi.NoteOnEvent(tick=0, channel=10, data=[72, 70]),
   midi.NoteOffEvent(tick=96, channel=10, data=[72, 64]),
   midi.NoteOnEvent(tick=24, channel=10, data=[72, 70]),
   midi.NoteOffEvent(tick=240, channel=10, data=[72, 64]),
   midi.NoteOnEvent(tick=0, channel=10, data=[71, 70]),
   midi.NoteOffEvent(tick=36, channel=10, data=[71, 64]),
   midi.NoteOnEvent(tick=24, channel=10, data=[67, 70]),
   midi.NoteOffEvent(tick=36, channel=10, data=[67, 64]),
   midi.NoteOnEvent(tick=24, channel=10, data=[71, 70]),
   midi.NoteOffEvent(tick=36, channel=10, data=[71, 64]),
   midi.NoteOnEvent(tick=24, channel=10, data=[74, 70]),
   midi.NoteOffEvent(tick=36, channel=10, data=[74, 64]),
   midi.NoteOnEvent(tick=24, channel=10, data=[72, 70]),
   midi.NoteOffEvent(tick=36, channel=10, data=[72, 64]),
   midi.NoteOnEvent(tick=24, channel=10, data=[69, 70]),
   midi.NoteOffEvent(tick=36, channel=10, data=[69, 64]),
   midi.NoteOnEvent(tick=24, channel=10, data=[72, 70]),
   midi.NoteOffEvent(tick=36, channel=10, data=[72, 64]),
   midi.NoteOnEvent(tick=24, channel=10, data=[76, 70]),
   midi.NoteOffEvent(tick=36, channel=10, data=[76, 64]),
   midi.NoteOnEvent(tick=24, channel=10, data=[76, 70]),
   midi.NoteOffEvent(tick=240, channel=10, data=[76, 64]),
   midi.NoteOnEvent(tick=0, channel=10, data=[74, 70]),
   midi.NoteOffEvent(tick=96, channel=10, data=[74, 64]),
   midi.NoteOnEvent(tick=264, channel=10, data=[74, 70]),
   midi.NoteOffEvent(tick=96, channel=10, data=[74, 64]),
   midi.NoteOnEvent(tick=24, channel=10, data=[81, 70]),
   midi.NoteOffEvent(tick=15, channel=10, data=[81, 64]),
   midi.NoteOnEvent(tick=0, channel=10, data=[79, 70]),
   midi.NoteOffEvent(tick=15, channel=10, data=[79, 64]),
   midi.NoteOnEvent(tick=0, channel=10, data=[81, 70]),
   midi.NoteOffEvent(tick=15, channel=10, data=[81, 64]),
   midi.NoteOnEvent(tick=0, channel=10, data=[79, 70]),
   midi.NoteOffEvent(tick=15, channel=10, data=[79, 64]),
   midi.NoteOnEvent(tick=0, channel=10, data=[81, 70]),
   midi.NoteOffEvent(tick=15, channel=10, data=[81, 64]),
   midi.NoteOnEvent(tick=0, channel=10, data=[79, 70]),
   midi.NoteOffEvent(tick=15, channel=10, data=[79, 64]),
   midi.NoteOnEvent(tick=0, channel=10, data=[81, 70]),
   midi.NoteOffEvent(tick=15, channel=10, data=[81, 64]),
   midi.NoteOnEvent(tick=0, channel=10, data=[79, 70]),
   midi.NoteOffEvent(tick=15, channel=10, data=[79, 64]),
   midi.NoteOnEvent(tick=0, channel=10, data=[81, 70]),
   midi.NoteOffEvent(tick=15, channel=10, data=[81, 64]),
   midi.NoteOnEvent(tick=0, channel=10, data=[79, 70]),
   midi.NoteOffEvent(tick=15, channel=10, data=[79, 64]),
   midi.NoteOnEvent(tick=0, channel=10, data=[81, 70]),
   midi.NoteOffEvent(tick=15, channel=10, data=[81, 64]),
   midi.NoteOnEvent(tick=0, channel=10, data=[79, 70]),
   midi.NoteOffEvent(tick=15, channel=10, data=[79, 64]),
   midi.NoteOnEvent(tick=0, channel=10, data=[81, 70]),
   midi.NoteOffEvent(tick=60, channel=10, data=[81, 64]),
   midi.NoteOnEvent(tick=0, channel=10, data=[83, 70]),
   midi.NoteOffEvent(tick=78, channel=10, data=[83, 64]),
   midi.NoteOnEvent(tick=42, channel=10, data=[75, 70]),
   midi.NoteOffEvent(tick=78, channel=10, data=[75, 64]),
   midi.NoteOnEvent(tick=42, channel=10, data=[76, 70]),
   midi.NoteOffEvent(tick=78, channel=10, data=[76, 64]),
   midi.NoteOnEvent(tick=42, channel=10, data=[79, 70]),
   midi.NoteOffEvent(tick=78, channel=10, data=[79, 64]),
   midi.NoteOnEvent(tick=42, channel=10, data=[74, 70]),
   midi.NoteOffEvent(tick=240, channel=10, data=[74, 64]),
   midi.NoteOnEvent(tick=0, channel=10, data=[73, 70]),
   midi.NoteOffEvent(tick=36, channel=10, data=[73, 64]),
   midi.NoteOnEvent(tick=24, channel=10, data=[69, 70]),
   midi.NoteOffEvent(tick=36, channel=10, data=[69, 64]),
   midi.NoteOnEvent(tick=24, channel=10, data=[71, 70]),
   midi.NoteOffEvent(tick=36, channel=10, data=[71, 64]),
   midi.NoteOnEvent(tick=24, channel=10, data=[73, 70]),
   midi.NoteOffEvent(tick=36, channel=10, data=[73, 64]),
   midi.NoteOnEvent(tick=24, channel=10, data=[74, 70]),
   midi.NoteOffEvent(tick=36, channel=10, data=[74, 64]),
   midi.NoteOnEvent(tick=24, channel=10, data=[76, 70]),
   midi.NoteOffEvent(tick=36, channel=10, data=[76, 64]),
   midi.NoteOnEvent(tick=24, channel=10, data=[78, 70]),
   midi.NoteOffEvent(tick=36, channel=10, data=[78, 64]),
   midi.NoteOnEvent(tick=24, channel=10, data=[79, 70]),
   midi.NoteOffEvent(tick=36, channel=10, data=[79, 64]),
   midi.NoteOnEvent(tick=24, channel=10, data=[81, 70]),
   midi.NoteOffEvent(tick=60, channel=10, data=[81, 64]),
   midi.NoteOnEvent(tick=0, channel=10, data=[83, 70]),
   midi.NoteOffEvent(tick=20, channel=10, data=[83, 64]),
   midi.NoteOnEvent(tick=0, channel=10, data=[81, 70]),
   midi.NoteOffEvent(tick=20, channel=10, data=[81, 64]),
   midi.NoteOnEvent(tick=0, channel=10, data=[79, 70]),
   midi.NoteOffEvent(tick=20, channel=10, data=[79, 64]),
   midi.NoteOnEvent(tick=0, channel=10, data=[81, 70]),
   midi.NoteOffEvent(tick=60, channel=10, data=[81, 64]),
   midi.NoteOnEvent(tick=0, channel=10, data=[83, 70]),
   midi.NoteOffEvent(tick=48, channel=10, data=[83, 64]),
   midi.NoteOnEvent(tick=12, channel=10, data=[74, 70]),
   midi.NoteOffEvent(tick=240, channel=10, data=[74, 64]),
   midi.NoteOnEvent(tick=0, channel=10, data=[74, 70]),
   midi.NoteOffEvent(tick=15, channel=10, data=[74, 64]),
   midi.NoteOnEvent(tick=0, channel=10, data=[73, 70]),
   midi.NoteOffEvent(tick=15, channel=10, data=[73, 64]),
   midi.NoteOnEvent(tick=0, channel=10, data=[74, 70]),
   midi.NoteOffEvent(tick=15, channel=10, data=[74, 64]),
   midi.NoteOnEvent(tick=0, channel=10, data=[73, 70]),
   midi.NoteOffEvent(tick=15, channel=10, data=[73, 64]),
   midi.NoteOnEvent(tick=0, channel=10, data=[74, 70]),
   midi.NoteOffEvent(tick=15, channel=10, data=[74, 64]),
   midi.NoteOnEvent(tick=0, channel=10, data=[73, 70]),
   midi.NoteOffEvent(tick=15, channel=10, data=[73, 64]),
   midi.NoteOnEvent(tick=0, channel=10, data=[74, 70]),
   midi.NoteOffEvent(tick=15, channel=10, data=[74, 64]),
   midi.NoteOnEvent(tick=0, channel=10, data=[73, 70]),
   midi.NoteOffEvent(tick=15, channel=10, data=[73, 64]),
   midi.NoteOnEvent(tick=0, channel=10, data=[74, 70]),
   midi.NoteOffEvent(tick=15, channel=10, data=[74, 64]),
   midi.NoteOnEvent(tick=0, channel=10, data=[73, 70]),
   midi.NoteOffEvent(tick=15, channel=10, data=[73, 64]),
   midi.NoteOnEvent(tick=0, channel=10, data=[74, 70]),
   midi.NoteOffEvent(tick=15, channel=10, data=[74, 64]),
   midi.NoteOnEvent(tick=0, channel=10, data=[73, 70]),
   midi.NoteOffEvent(tick=15, channel=10, data=[73, 64]),
   midi.NoteOnEvent(tick=0, channel=10, data=[74, 70]),
   midi.NoteOffEvent(tick=15, channel=10, data=[74, 64]),
   midi.NoteOnEvent(tick=0, channel=10, data=[73, 70]),
   midi.NoteOffEvent(tick=15, channel=10, data=[73, 64]),
   midi.NoteOnEvent(tick=0, channel=10, data=[74, 70]),
   midi.NoteOffEvent(tick=15, channel=10, data=[74, 64]),
   midi.NoteOnEvent(tick=0, channel=10, data=[73, 70]),
   midi.NoteOffEvent(tick=15, channel=10, data=[73, 64]),
   midi.NoteOnEvent(tick=0, channel=10, data=[74, 70]),
   midi.NoteOffEvent(tick=288, channel=10, data=[74, 64]),
   midi.NoteOnEvent(tick=72, channel=10, data=[74, 70]),
   midi.NoteOffEvent(tick=72, channel=10, data=[74, 64]),
   midi.NoteOnEvent(tick=48, channel=10, data=[78, 70]),
   midi.NoteOffEvent(tick=72, channel=10, data=[78, 64]),
   midi.NoteOnEvent(tick=48, channel=10, data=[74, 70]),
   midi.NoteOffEvent(tick=72, channel=10, data=[74, 64]),
   midi.NoteOnEvent(tick=48, channel=10, data=[69, 90]),
   midi.NoteOnEvent(tick=0, channel=10, data=[79, 90]),
   midi.NoteOffEvent(tick=144, channel=10, data=[79, 64]),
   midi.NoteOffEvent(tick=0, channel=10, data=[69, 64]),
   midi.NoteOnEvent(tick=36, channel=10, data=[81, 70]),
   midi.NoteOffEvent(tick=36, channel=10, data=[81, 64]),
   midi.NoteOnEvent(tick=24, channel=10, data=[79, 70]),
   midi.NoteOffEvent(tick=72, channel=10, data=[79, 64]),
   midi.NoteOnEvent(tick=48, channel=10, data=[78, 70]),
   midi.NoteOffEvent(tick=72, channel=10, data=[78, 64]),
   midi.NoteOnEvent(tick=48, channel=10, data=[76, 70]),
   midi.NoteOffEvent(tick=72, channel=10, data=[76, 64]),
   midi.NoteOnEvent(tick=48, channel=10, data=[74, 70]),
   midi.NoteOffEvent(tick=72, channel=10, data=[74, 64]),
   midi.NoteOnEvent(tick=48, channel=10, data=[73, 70]),
   midi.NoteOffEvent(tick=30, channel=10, data=[73, 64]),
   midi.NoteOnEvent(tick=0, channel=10, data=[74, 70]),
   midi.NoteOffEvent(tick=30, channel=10, data=[74, 64]),
   midi.NoteOnEvent(tick=0, channel=10, data=[76, 70]),
   midi.NoteOffEvent(tick=60, channel=10, data=[76, 64]),
   midi.NoteOnEvent(tick=240, channel=10, data=[74, 70]),
   midi.NoteOffEvent(tick=72, channel=10, data=[74, 64]),
   midi.NoteOnEvent(tick=48, channel=10, data=[78, 70]),
   midi.NoteOffEvent(tick=72, channel=10, data=[78, 64]),
   midi.NoteOnEvent(tick=48, channel=10, data=[74, 70]),
   midi.NoteOffEvent(tick=72, channel=10, data=[74, 64]),
   midi.NoteOnEvent(tick=48, channel=10, data=[69, 90]),
   midi.NoteOnEvent(tick=0, channel=10, data=[79, 90]),
   midi.NoteOffEvent(tick=144, channel=10, data=[79, 64]),
   midi.NoteOffEvent(tick=0, channel=10, data=[69, 64]),
   midi.NoteOnEvent(tick=36, channel=10, data=[81, 70]),
   midi.NoteOffEvent(tick=36, channel=10, data=[81, 64]),
   midi.NoteOnEvent(tick=24, channel=10, data=[79, 70]),
   midi.NoteOffEvent(tick=72, channel=10, data=[79, 64]),
   midi.NoteOnEvent(tick=48, channel=10, data=[78, 70]),
   midi.NoteOffEvent(tick=72, channel=10, data=[78, 64]),
   midi.NoteOnEvent(tick=48, channel=10, data=[76, 70]),
   midi.NoteOffEvent(tick=72, channel=10, data=[76, 64]),
   midi.NoteOnEvent(tick=48, channel=10, data=[74, 70]),
   midi.NoteOffEvent(tick=72, channel=10, data=[74, 64]),
   midi.NoteOnEvent(tick=48, channel=10, data=[81, 70]),
   midi.NoteOffEvent(tick=192, channel=10, data=[81, 64]),
   midi.NoteOnEvent(tick=48, channel=10, data=[69, 70]),
   midi.NoteOffEvent(tick=300, channel=10, data=[69, 64]),
   midi.NoteOnEvent(tick=0, channel=10, data=[68, 70]),
   midi.NoteOffEvent(tick=60, channel=10, data=[68, 64]),
   midi.NoteOnEvent(tick=0, channel=10, data=[69, 70]),
   midi.NoteOffEvent(tick=60, channel=10, data=[69, 64]),
   midi.NoteOnEvent(tick=0, channel=10, data=[67, 70]),
   midi.NoteOffEvent(tick=48, channel=10, data=[67, 64]),
   midi.NoteOnEvent(tick=12, channel=10, data=[66, 70]),
   midi.NoteOffEvent(tick=144, channel=10, data=[66, 64]),
   midi.NoteOnEvent(tick=36, channel=10, data=[67, 70]),
   midi.NoteOffEvent(tick=48, channel=10, data=[67, 64]),
   midi.NoteOnEvent(tick=12, channel=10, data=[69, 70]),
   midi.NoteOffEvent(tick=120, channel=10, data=[69, 64]),
   midi.NoteOnEvent(tick=0, channel=10, data=[71, 70]),
   midi.NoteOffEvent(tick=120, channel=10, data=[71, 64]),
   midi.NoteOnEvent(tick=0, channel=10, data=[64, 70]),
   midi.NoteOffEvent(tick=120, channel=10, data=[64, 64]),
   midi.NoteOnEvent(tick=0, channel=10, data=[69, 70]),
   midi.NoteOffEvent(tick=96, channel=10, data=[69, 64]),
   midi.NoteOnEvent(tick=24, channel=10, data=[62, 70]),
   midi.NoteOffEvent(tick=157, channel=10, data=[62, 64]),
   midi.NoteOnEvent(tick=23, channel=10, data=[64, 70]),
   midi.NoteOffEvent(tick=26, channel=10, data=[64, 64]),
   midi.NoteOnEvent(tick=4, channel=10, data=[66, 70]),
   midi.NoteOffEvent(tick=26, channel=10, data=[66, 64]),
   midi.NoteOnEvent(tick=4, channel=10, data=[67, 70]),
   midi.NoteOffEvent(tick=360, channel=10, data=[67, 64]),
   midi.NoteOnEvent(tick=0, channel=10, data=[66, 70]),
   midi.NoteOffEvent(tick=96, channel=10, data=[66, 64]),
   midi.NoteOnEvent(tick=24, channel=10, data=[66, 70]),
   midi.NoteOffEvent(tick=30, channel=10, data=[66, 64]),
   midi.NoteOnEvent(tick=0, channel=10, data=[64, 70]),
   midi.NoteOffEvent(tick=68, channel=10, data=[64, 64]),
   midi.NoteOnEvent(tick=22, channel=10, data=[64, 70]),
   midi.NoteOffEvent(tick=78, channel=10, data=[64, 64]),
   midi.NoteOnEvent(tick=42, channel=10, data=[66, 70]),
   midi.NoteOffEvent(tick=30, channel=10, data=[66, 64]),
   midi.NoteOnEvent(tick=0, channel=10, data=[64, 70]),
   midi.NoteOffEvent(tick=68, channel=10, data=[64, 64]),
   midi.NoteOnEvent(tick=22, channel=10, data=[64, 70]),
   midi.NoteOffEvent(tick=78, channel=10, data=[64, 64]),
   midi.NoteOnEvent(tick=42, channel=10, data=[66, 70]),
   midi.NoteOffEvent(tick=30, channel=10, data=[66, 64]),
   midi.NoteOnEvent(tick=0, channel=10, data=[64, 70]),
   midi.NoteOffEvent(tick=68, channel=10, data=[64, 64]),
   midi.NoteOnEvent(tick=22, channel=10, data=[64, 70]),
   midi.NoteOffEvent(tick=78, channel=10, data=[64, 64]),
   midi.NoteOnEvent(tick=42, channel=10, data=[64, 70]),
   midi.NoteOffEvent(tick=60, channel=10, data=[64, 64]),
   midi.NoteOnEvent(tick=0, channel=10, data=[66, 70]),
   midi.NoteOffEvent(tick=60, channel=10, data=[66, 64]),
   midi.NoteOnEvent(tick=0, channel=10, data=[64, 70]),
   midi.NoteOffEvent(tick=60, channel=10, data=[64, 64]),
   midi.NoteOnEvent(tick=0, channel=10, data=[66, 70]),
   midi.NoteOffEvent(tick=60, channel=10, data=[66, 64]),
   midi.NoteOnEvent(tick=0, channel=10, data=[64, 70]),
   midi.NoteOffEvent(tick=48, channel=10, data=[64, 64]),
   midi.NoteOnEvent(tick=12, channel=10, data=[69, 70]),
   midi.NoteOffEvent(tick=36, channel=10, data=[69, 64]),
   midi.NoteOnEvent(tick=24, channel=10, data=[71, 70]),
   midi.NoteOffEvent(tick=36, channel=10, data=[71, 64]),
   midi.NoteOnEvent(tick=24, channel=10, data=[73, 70]),
   midi.NoteOffEvent(tick=36, channel=10, data=[73, 64]),
   midi.NoteOnEvent(tick=24, channel=10, data=[74, 70]),
   midi.NoteOffEvent(tick=36, channel=10, data=[74, 64]),
   midi.NoteOnEvent(tick=24, channel=10, data=[76, 70]),
   midi.NoteOffEvent(tick=36, channel=10, data=[76, 64]),
   midi.NoteOnEvent(tick=24, channel=10, data=[78, 70]),
   midi.NoteOffEvent(tick=36, channel=10, data=[78, 64]),
   midi.NoteOnEvent(tick=24, channel=10, data=[79, 70]),
   midi.NoteOffEvent(tick=36, channel=10, data=[79, 64]),
   midi.NoteOnEvent(tick=24, channel=10, data=[78, 70]),
   midi.NoteOffEvent(tick=144, channel=10, data=[78, 64]),
   midi.NoteOnEvent(tick=36, channel=10, data=[79, 70]),
   midi.NoteOffEvent(tick=48, channel=10, data=[79, 64]),
   midi.NoteOnEvent(tick=12, channel=10, data=[81, 70]),
   midi.NoteOffEvent(tick=120, channel=10, data=[81, 64]),
   midi.NoteOnEvent(tick=0, channel=10, data=[83, 70]),
   midi.NoteOffEvent(tick=120, channel=10, data=[83, 64]),
   midi.NoteOnEvent(tick=0, channel=10, data=[76, 70]),
   midi.NoteOffEvent(tick=120, channel=10, data=[76, 64]),
   midi.NoteOnEvent(tick=0, channel=10, data=[81, 70]),
   midi.NoteOffEvent(tick=96, channel=10, data=[81, 64]),
   midi.NoteOnEvent(tick=24, channel=10, data=[74, 70]),
   midi.NoteOffEvent(tick=157, channel=10, data=[74, 64]),
   midi.NoteOnEvent(tick=23, channel=10, data=[76, 70]),
   midi.NoteOffEvent(tick=26, channel=10, data=[76, 64]),
   midi.NoteOnEvent(tick=4, channel=10, data=[78, 70]),
   midi.NoteOffEvent(tick=26, channel=10, data=[78, 64]),
   midi.NoteOnEvent(tick=4, channel=10, data=[79, 70]),
   midi.NoteOffEvent(tick=360, channel=10, data=[79, 64]),
   midi.NoteOnEvent(tick=0, channel=10, data=[78, 70]),
   midi.NoteOffEvent(tick=96, channel=10, data=[78, 64]),
   midi.NoteOnEvent(tick=24, channel=10, data=[76, 70]),
   midi.NoteOffEvent(tick=60, channel=10, data=[76, 64]),
   midi.NoteOnEvent(tick=0, channel=10, data=[83, 70]),
   midi.NoteOffEvent(tick=60, channel=10, data=[83, 64]),
   midi.NoteOnEvent(tick=0, channel=10, data=[79, 70]),
   midi.NoteOffEvent(tick=60, channel=10, data=[79, 64]),
   midi.NoteOnEvent(tick=0, channel=10, data=[76, 70]),
   midi.NoteOffEvent(tick=60, channel=10, data=[76, 64]),
   midi.NoteOnEvent(tick=0, channel=10, data=[74, 70]),
   midi.NoteOffEvent(tick=192, channel=10, data=[74, 64]),
   midi.NoteOnEvent(tick=48, channel=10, data=[78, 70]),
   midi.NoteOffEvent(tick=15, channel=10, data=[78, 64]),
   midi.NoteOnEvent(tick=0, channel=10, data=[76, 70]),
   midi.NoteOffEvent(tick=15, channel=10, data=[76, 64]),
   midi.NoteOnEvent(tick=0, channel=10, data=[78, 70]),
   midi.NoteOffEvent(tick=15, channel=10, data=[78, 64]),
   midi.NoteOnEvent(tick=0, channel=10, data=[76, 70]),
   midi.NoteOffEvent(tick=15, channel=10, data=[76, 64]),
   midi.NoteOnEvent(tick=0, channel=10, data=[78, 70]),
   midi.NoteOffEvent(tick=15, channel=10, data=[78, 64]),
   midi.NoteOnEvent(tick=0, channel=10, data=[76, 70]),
   midi.NoteOffEvent(tick=15, channel=10, data=[76, 64]),
   midi.NoteOnEvent(tick=0, channel=10, data=[78, 70]),
   midi.NoteOffEvent(tick=15, channel=10, data=[78, 64]),
   midi.NoteOnEvent(tick=0, channel=10, data=[76, 70]),
   midi.NoteOffEvent(tick=15, channel=10, data=[76, 64]),
   midi.NoteOnEvent(tick=0, channel=10, data=[78, 70]),
   midi.NoteOffEvent(tick=15, channel=10, data=[78, 64]),
   midi.NoteOnEvent(tick=0, channel=10, data=[76, 70]),
   midi.NoteOffEvent(tick=15, channel=10, data=[76, 64]),
   midi.NoteOnEvent(tick=0, channel=10, data=[78, 70]),
   midi.NoteOffEvent(tick=15, channel=10, data=[78, 64]),
   midi.NoteOnEvent(tick=0, channel=10, data=[76, 70]),
   midi.NoteOffEvent(tick=15, channel=10, data=[76, 64]),
   midi.NoteOnEvent(tick=0, channel=10, data=[78, 70]),
   midi.NoteOffEvent(tick=15, channel=10, data=[78, 64]),
   midi.NoteOnEvent(tick=0, channel=10, data=[76, 70]),
   midi.NoteOffEvent(tick=15, channel=10, data=[76, 64]),
   midi.NoteOnEvent(tick=0, channel=10, data=[78, 70]),
   midi.NoteOffEvent(tick=15, channel=10, data=[78, 64]),
   midi.NoteOnEvent(tick=0, channel=10, data=[76, 70]),
   midi.NoteOffEvent(tick=15, channel=10, data=[76, 64]),
   midi.NoteOnEvent(tick=0, channel=10, data=[74, 90]),
   midi.NoteOnEvent(tick=0, channel=10, data=[62, 70]),
   midi.NoteOffEvent(tick=288, channel=10, data=[62, 64]),
   midi.NoteOffEvent(tick=0, channel=10, data=[74, 64]),
   midi.NoteOnEvent(tick=72, channel=10, data=[86, 70]),
   midi.NoteOffEvent(tick=60, channel=10, data=[86, 64]),
   midi.NoteOnEvent(tick=0, channel=10, data=[85, 70]),
   midi.NoteOffEvent(tick=60, channel=10, data=[85, 64]),
   midi.NoteOnEvent(tick=0, channel=10, data=[86, 70]),
   midi.NoteOffEvent(tick=60, channel=10, data=[86, 64]),
   midi.NoteOnEvent(tick=0, channel=10, data=[85, 70]),
   midi.NoteOffEvent(tick=60, channel=10, data=[85, 64]),
   midi.NoteOnEvent(tick=0, channel=10, data=[83, 70]),
   midi.NoteOffEvent(tick=60, channel=10, data=[83, 64]),
   midi.NoteOnEvent(tick=0, channel=10, data=[81, 70]),
   midi.NoteOffEvent(tick=48, channel=10, data=[81, 64]),
   midi.NoteOnEvent(tick=12, channel=10, data=[81, 70]),
   midi.NoteOffEvent(tick=60, channel=10, data=[81, 64]),
   midi.NoteOnEvent(tick=0, channel=10, data=[79, 70]),
   midi.NoteOffEvent(tick=48, channel=10, data=[79, 64]),
   midi.NoteOnEvent(tick=12, channel=10, data=[79, 70]),
   midi.NoteOffEvent(tick=192, channel=10, data=[79, 64]),
   midi.NoteOnEvent(tick=48, channel=10, data=[81, 70]),
   midi.NoteOffEvent(tick=60, channel=10, data=[81, 64]),
   midi.NoteOnEvent(tick=0, channel=10, data=[79, 70]),
   midi.NoteOffEvent(tick=60, channel=10, data=[79, 64]),
   midi.NoteOnEvent(tick=0, channel=10, data=[81, 70]),
   midi.NoteOffEvent(tick=60, channel=10, data=[81, 64]),
   midi.NoteOnEvent(tick=0, channel=10, data=[79, 70]),
   midi.NoteOffEvent(tick=60, channel=10, data=[79, 64]),
   midi.NoteOnEvent(tick=0, channel=10, data=[78, 70]),
   midi.NoteOffEvent(tick=60, channel=10, data=[78, 64]),
   midi.NoteOnEvent(tick=0, channel=10, data=[76, 70]),
   midi.NoteOffEvent(tick=48, channel=10, data=[76, 64]),
   midi.NoteOnEvent(tick=12, channel=10, data=[62, 70]),
   midi.NoteOnEvent(tick=0, channel=10, data=[74, 90]),
   midi.NoteOffEvent(tick=288, channel=10, data=[74, 64]),
   midi.NoteOffEvent(tick=0, channel=10, data=[62, 64]),
   midi.NoteOnEvent(tick=72, channel=10, data=[86, 70]),
   midi.NoteOffEvent(tick=60, channel=10, data=[86, 64]),
   midi.NoteOnEvent(tick=0, channel=10, data=[85, 70]),
   midi.NoteOffEvent(tick=60, channel=10, data=[85, 64]),
   midi.NoteOnEvent(tick=0, channel=10, data=[86, 70]),
   midi.NoteOffEvent(tick=60, channel=10, data=[86, 64]),
   midi.NoteOnEvent(tick=0, channel=10, data=[85, 70]),
   midi.NoteOffEvent(tick=60, channel=10, data=[85, 64]),
   midi.NoteOnEvent(tick=0, channel=10, data=[83, 70]),
   midi.NoteOffEvent(tick=60, channel=10, data=[83, 64]),
   midi.NoteOnEvent(tick=0, channel=10, data=[81, 70]),
   midi.NoteOffEvent(tick=48, channel=10, data=[81, 64]),
   midi.NoteOnEvent(tick=12, channel=10, data=[81, 70]),
   midi.NoteOffEvent(tick=60, channel=10, data=[81, 64]),
   midi.NoteOnEvent(tick=0, channel=10, data=[79, 70]),
   midi.NoteOffEvent(tick=48, channel=10, data=[79, 64]),
   midi.NoteOnEvent(tick=12, channel=10, data=[79, 70]),
   midi.NoteOffEvent(tick=192, channel=10, data=[79, 64]),
   midi.NoteOnEvent(tick=48, channel=10, data=[81, 70]),
   midi.NoteOffEvent(tick=60, channel=10, data=[81, 64]),
   midi.NoteOnEvent(tick=0, channel=10, data=[79, 70]),
   midi.NoteOffEvent(tick=60, channel=10, data=[79, 64]),
   midi.NoteOnEvent(tick=0, channel=10, data=[81, 70]),
   midi.NoteOffEvent(tick=60, channel=10, data=[81, 64]),
   midi.NoteOnEvent(tick=0, channel=10, data=[79, 70]),
   midi.NoteOffEvent(tick=60, channel=10, data=[79, 64]),
   midi.NoteOnEvent(tick=0, channel=10, data=[78, 70]),
   midi.NoteOffEvent(tick=60, channel=10, data=[78, 64]),
   midi.NoteOnEvent(tick=0, channel=10, data=[76, 70]),
   midi.NoteOffEvent(tick=48, channel=10, data=[76, 64]),
   midi.NoteOnEvent(tick=12, channel=10, data=[74, 70]),
   midi.NoteOffEvent(tick=96, channel=10, data=[74, 64]),
   midi.NoteOnEvent(tick=24, channel=10, data=[78, 70]),
   midi.NoteOffEvent(tick=96, channel=10, data=[78, 64]),
   midi.NoteOnEvent(tick=24, channel=10, data=[79, 58]),
   midi.NoteOffEvent(tick=15, channel=10, data=[79, 64]),
   midi.NoteOnEvent(tick=0, channel=10, data=[78, 58]),
   midi.NoteOffEvent(tick=15, channel=10, data=[78, 64]),
   midi.NoteOnEvent(tick=0, channel=10, data=[79, 58]),
   midi.NoteOffEvent(tick=15, channel=10, data=[79, 64]),
   midi.NoteOnEvent(tick=0, channel=10, data=[78, 58]),
   midi.NoteOffEvent(tick=15, channel=10, data=[78, 64]),
   midi.NoteOnEvent(tick=0, channel=10, data=[79, 58]),
   midi.NoteOffEvent(tick=15, channel=10, data=[79, 64]),
   midi.NoteOnEvent(tick=0, channel=10, data=[78, 58]),
   midi.NoteOffEvent(tick=15, channel=10, data=[78, 64]),
   midi.NoteOnEvent(tick=0, channel=10, data=[79, 58]),
   midi.NoteOffEvent(tick=15, channel=10, data=[79, 64]),
   midi.NoteOnEvent(tick=0, channel=10, data=[78, 58]),
   midi.NoteOffEvent(tick=15, channel=10, data=[78, 64]),
   midi.NoteOnEvent(tick=0, channel=10, data=[79, 58]),
   midi.NoteOffEvent(tick=15, channel=10, data=[79, 64]),
   midi.NoteOnEvent(tick=0, channel=10, data=[78, 58]),
   midi.NoteOffEvent(tick=15, channel=10, data=[78, 64]),
   midi.NoteOnEvent(tick=0, channel=10, data=[79, 58]),
   midi.NoteOffEvent(tick=15, channel=10, data=[79, 64]),
   midi.NoteOnEvent(tick=0, channel=10, data=[78, 58]),
   midi.NoteOffEvent(tick=15, channel=10, data=[78, 64]),
   midi.NoteOnEvent(tick=0, channel=10, data=[76, 58]),
   midi.NoteOffEvent(tick=30, channel=10, data=[76, 64]),
   midi.NoteOnEvent(tick=0, channel=10, data=[78, 58]),
   midi.NoteOffEvent(tick=24, channel=10, data=[78, 64]),
   midi.NoteOnEvent(tick=6, channel=10, data=[81, 58]),
   midi.NoteOffEvent(tick=15, channel=10, data=[81, 64]),
   midi.NoteOnEvent(tick=0, channel=10, data=[79, 58]),
   midi.NoteOffEvent(tick=15, channel=10, data=[79, 64]),
   midi.NoteOnEvent(tick=0, channel=10, data=[81, 58]),
   midi.NoteOffEvent(tick=15, channel=10, data=[81, 64]),
   midi.NoteOnEvent(tick=0, channel=10, data=[79, 58]),
   midi.NoteOffEvent(tick=15, channel=10, data=[79, 64]),
   midi.NoteOnEvent(tick=0, channel=10, data=[81, 58]),
   midi.NoteOffEvent(tick=15, channel=10, data=[81, 64]),
   midi.NoteOnEvent(tick=0, channel=10, data=[79, 58]),
   midi.NoteOffEvent(tick=15, channel=10, data=[79, 64]),
   midi.NoteOnEvent(tick=0, channel=10, data=[81, 58]),
   midi.NoteOffEvent(tick=15, channel=10, data=[81, 64]),
   midi.NoteOnEvent(tick=0, channel=10, data=[79, 58]),
   midi.NoteOffEvent(tick=15, channel=10, data=[79, 64]),
   midi.NoteOnEvent(tick=0, channel=10, data=[81, 58]),
   midi.NoteOffEvent(tick=15, channel=10, data=[81, 64]),
   midi.NoteOnEvent(tick=0, channel=10, data=[79, 58]),
   midi.NoteOffEvent(tick=15, channel=10, data=[79, 64]),
   midi.NoteOnEvent(tick=0, channel=10, data=[81, 58]),
   midi.NoteOffEvent(tick=15, channel=10, data=[81, 64]),
   midi.NoteOnEvent(tick=0, channel=10, data=[79, 58]),
   midi.NoteOffEvent(tick=15, channel=10, data=[79, 64]),
   midi.NoteOnEvent(tick=0, channel=10, data=[78, 58]),
   midi.NoteOffEvent(tick=30, channel=10, data=[78, 64]),
   midi.NoteOnEvent(tick=0, channel=10, data=[79, 58]),
   midi.NoteOffEvent(tick=24, channel=10, data=[79, 64]),
   midi.NoteOnEvent(tick=6, channel=10, data=[83, 58]),
   midi.NoteOffEvent(tick=15, channel=10, data=[83, 64]),
   midi.NoteOnEvent(tick=0, channel=10, data=[81, 58]),
   midi.NoteOffEvent(tick=15, channel=10, data=[81, 64]),
   midi.NoteOnEvent(tick=0, channel=10, data=[83, 58]),
   midi.NoteOffEvent(tick=15, channel=10, data=[83, 64]),
   midi.NoteOnEvent(tick=0, channel=10, data=[81, 58]),
   midi.NoteOffEvent(tick=15, channel=10, data=[81, 64]),
   midi.NoteOnEvent(tick=0, channel=10, data=[83, 58]),
   midi.NoteOffEvent(tick=15, channel=10, data=[83, 64]),
   midi.NoteOnEvent(tick=0, channel=10, data=[81, 58]),
   midi.NoteOffEvent(tick=15, channel=10, data=[81, 64]),
   midi.NoteOnEvent(tick=0, channel=10, data=[83, 58]),
   midi.NoteOffEvent(tick=15, channel=10, data=[83, 64]),
   midi.NoteOnEvent(tick=0, channel=10, data=[81, 58]),
   midi.NoteOffEvent(tick=15, channel=10, data=[81, 64]),
   midi.NoteOnEvent(tick=0, channel=10, data=[83, 58]),
   midi.NoteOffEvent(tick=15, channel=10, data=[83, 64]),
   midi.NoteOnEvent(tick=0, channel=10, data=[81, 58]),
   midi.NoteOffEvent(tick=15, channel=10, data=[81, 64]),
   midi.NoteOnEvent(tick=0, channel=10, data=[83, 58]),
   midi.NoteOffEvent(tick=15, channel=10, data=[83, 64]),
   midi.NoteOnEvent(tick=0, channel=10, data=[81, 58]),
   midi.NoteOffEvent(tick=15, channel=10, data=[81, 64]),
   midi.NoteOnEvent(tick=0, channel=10, data=[79, 58]),
   midi.NoteOffEvent(tick=30, channel=10, data=[79, 64]),
   midi.NoteOnEvent(tick=0, channel=10, data=[81, 58]),
   midi.NoteOffEvent(tick=24, channel=10, data=[81, 64]),
   midi.NoteOnEvent(tick=6, channel=10, data=[84, 58]),
   midi.NoteOffEvent(tick=15, channel=10, data=[84, 64]),
   midi.NoteOnEvent(tick=0, channel=10, data=[83, 58]),
   midi.NoteOffEvent(tick=15, channel=10, data=[83, 64]),
   midi.NoteOnEvent(tick=0, channel=10, data=[84, 58]),
   midi.NoteOffEvent(tick=15, channel=10, data=[84, 64]),
   midi.NoteOnEvent(tick=0, channel=10, data=[83, 58]),
   midi.NoteOffEvent(tick=15, channel=10, data=[83, 64]),
   midi.NoteOnEvent(tick=0, channel=10, data=[84, 58]),
   midi.NoteOffEvent(tick=15, channel=10, data=[84, 64]),
   midi.NoteOnEvent(tick=0, channel=10, data=[83, 58]),
   midi.NoteOffEvent(tick=15, channel=10, data=[83, 64]),
   midi.NoteOnEvent(tick=0, channel=10, data=[84, 58]),
   midi.NoteOffEvent(tick=15, channel=10, data=[84, 64]),
   midi.NoteOnEvent(tick=0, channel=10, data=[83, 58]),
   midi.NoteOffEvent(tick=15, channel=10, data=[83, 64]),
   midi.NoteOnEvent(tick=0, channel=10, data=[84, 58]),
   midi.NoteOffEvent(tick=15, channel=10, data=[84, 64]),
   midi.NoteOnEvent(tick=0, channel=10, data=[83, 58]),
   midi.NoteOffEvent(tick=15, channel=10, data=[83, 64]),
   midi.NoteOnEvent(tick=0, channel=10, data=[84, 58]),
   midi.NoteOffEvent(tick=15, channel=10, data=[84, 64]),
   midi.NoteOnEvent(tick=0, channel=10, data=[83, 58]),
   midi.NoteOffEvent(tick=15, channel=10, data=[83, 64]),
   midi.NoteOnEvent(tick=0, channel=10, data=[81, 58]),
   midi.NoteOffEvent(tick=30, channel=10, data=[81, 64]),
   midi.NoteOnEvent(tick=0, channel=10, data=[83, 58]),
   midi.NoteOffEvent(tick=24, channel=10, data=[83, 64]),
   midi.NoteOnEvent(tick=6, channel=10, data=[86, 58]),
   midi.NoteOffEvent(tick=15, channel=10, data=[86, 64]),
   midi.NoteOnEvent(tick=0, channel=10, data=[85, 58]),
   midi.NoteOffEvent(tick=15, channel=10, data=[85, 64]),
   midi.NoteOnEvent(tick=0, channel=10, data=[86, 58]),
   midi.NoteOffEvent(tick=15, channel=10, data=[86, 64]),
   midi.NoteOnEvent(tick=0, channel=10, data=[85, 58]),
   midi.NoteOffEvent(tick=15, channel=10, data=[85, 64]),
   midi.NoteOnEvent(tick=0, channel=10, data=[86, 58]),
   midi.NoteOffEvent(tick=15, channel=10, data=[86, 64]),
   midi.NoteOnEvent(tick=0, channel=10, data=[85, 58]),
   midi.NoteOffEvent(tick=15, channel=10, data=[85, 64]),
   midi.NoteOnEvent(tick=0, channel=10, data=[86, 58]),
   midi.NoteOffEvent(tick=15, channel=10, data=[86, 64]),
   midi.NoteOnEvent(tick=0, channel=10, data=[85, 58]),
   midi.NoteOffEvent(tick=15, channel=10, data=[85, 64]),
   midi.NoteOnEvent(tick=0, channel=10, data=[86, 58]),
   midi.NoteOffEvent(tick=15, channel=10, data=[86, 64]),
   midi.NoteOnEvent(tick=0, channel=10, data=[85, 58]),
   midi.NoteOffEvent(tick=15, channel=10, data=[85, 64]),
   midi.NoteOnEvent(tick=0, channel=10, data=[86, 58]),
   midi.NoteOffEvent(tick=15, channel=10, data=[86, 64]),
   midi.NoteOnEvent(tick=0, channel=10, data=[85, 58]),
   midi.NoteOffEvent(tick=15, channel=10, data=[85, 64]),
   midi.NoteOnEvent(tick=0, channel=10, data=[83, 58]),
   midi.NoteOffEvent(tick=30, channel=10, data=[83, 64]),
   midi.NoteOnEvent(tick=0, channel=10, data=[85, 58]),
   midi.NoteOffEvent(tick=24, channel=10, data=[85, 64]),
   midi.NoteOnEvent(tick=6, channel=10, data=[85, 58]),
   midi.NoteOffEvent(tick=240, channel=10, data=[85, 64]),
   midi.NoteOnEvent(tick=0, channel=10, data=[86, 58]),
   midi.NoteOffEvent(tick=96, channel=10, data=[86, 64]),
   midi.NoteOnEvent(tick=264, channel=10, data=[74, 70]),
   midi.NoteOffEvent(tick=60, channel=10, data=[74, 64]),
   midi.NoteOnEvent(tick=0, channel=10, data=[71, 70]),
   midi.NoteOffEvent(tick=48, channel=10, data=[71, 64]),
   midi.NoteOnEvent(tick=12, channel=10, data=[67, 70]),
   midi.NoteOffEvent(tick=144, channel=10, data=[67, 64]),
   midi.NoteOnEvent(tick=36, channel=10, data=[69, 70]),
   midi.NoteOffEvent(tick=48, channel=10, data=[69, 64]),
   midi.NoteOnEvent(tick=12, channel=10, data=[71, 70]),
   midi.NoteOffEvent(tick=72, channel=10, data=[71, 64]),
   midi.NoteOnEvent(tick=48, channel=10, data=[71, 70]),
   midi.NoteOffEvent(tick=72, channel=10, data=[71, 64]),
   midi.NoteOnEvent(tick=48, channel=10, data=[71, 70]),
   midi.NoteOffEvent(tick=72, channel=10, data=[71, 64]),
   midi.NoteOnEvent(tick=48, channel=10, data=[71, 70]),
   midi.NoteOffEvent(tick=72, channel=10, data=[71, 64]),
   midi.NoteOnEvent(tick=48, channel=10, data=[74, 70]),
   midi.NoteOffEvent(tick=60, channel=10, data=[74, 64]),
   midi.NoteOnEvent(tick=0, channel=10, data=[72, 70]),
   midi.NoteOffEvent(tick=48, channel=10, data=[72, 64]),
   midi.NoteOnEvent(tick=12, channel=10, data=[71, 70]),
   midi.NoteOffEvent(tick=48, channel=10, data=[71, 64]),
   midi.NoteOnEvent(tick=12, channel=10, data=[69, 70]),
   midi.NoteOffEvent(tick=48, channel=10, data=[69, 64]),
   midi.NoteOnEvent(tick=12, channel=10, data=[74, 70]),
   midi.NoteOffEvent(tick=360, channel=10, data=[74, 64]),
   midi.NoteOnEvent(tick=0, channel=10, data=[72, 70]),
   midi.NoteOffEvent(tick=96, channel=10, data=[72, 64]),
   midi.NoteOnEvent(tick=24, channel=10, data=[72, 70]),
   midi.NoteOffEvent(tick=240, channel=10, data=[72, 64]),
   midi.NoteOnEvent(tick=0, channel=10, data=[71, 70]),
   midi.NoteOffEvent(tick=36, channel=10, data=[71, 64]),
   midi.NoteOnEvent(tick=24, channel=10, data=[67, 70]),
   midi.NoteOffEvent(tick=36, channel=10, data=[67, 64]),
   midi.NoteOnEvent(tick=24, channel=10, data=[71, 70]),
   midi.NoteOffEvent(tick=36, channel=10, data=[71, 64]),
   midi.NoteOnEvent(tick=24, channel=10, data=[74, 70]),
   midi.NoteOffEvent(tick=36, channel=10, data=[74, 64]),
   midi.NoteOnEvent(tick=24, channel=10, data=[72, 70]),
   midi.NoteOffEvent(tick=36, channel=10, data=[72, 64]),
   midi.NoteOnEvent(tick=24, channel=10, data=[69, 70]),
   midi.NoteOffEvent(tick=36, channel=10, data=[69, 64]),
   midi.NoteOnEvent(tick=24, channel=10, data=[72, 70]),
   midi.NoteOffEvent(tick=36, channel=10, data=[72, 64]),
   midi.NoteOnEvent(tick=24, channel=10, data=[76, 70]),
   midi.NoteOffEvent(tick=36, channel=10, data=[76, 64]),
   midi.NoteOnEvent(tick=24, channel=10, data=[76, 70]),
   midi.NoteOffEvent(tick=240, channel=10, data=[76, 64]),
   midi.NoteOnEvent(tick=0, channel=10, data=[74, 70]),
   midi.NoteOffEvent(tick=96, channel=10, data=[74, 64]),
   midi.NoteOnEvent(tick=264, channel=10, data=[74, 70]),
   midi.NoteOffEvent(tick=96, channel=10, data=[74, 64]),
   midi.NoteOnEvent(tick=24, channel=10, data=[81, 70]),
   midi.NoteOffEvent(tick=15, channel=10, data=[81, 64]),
   midi.NoteOnEvent(tick=0, channel=10, data=[79, 70]),
   midi.NoteOffEvent(tick=15, channel=10, data=[79, 64]),
   midi.NoteOnEvent(tick=0, channel=10, data=[81, 70]),
   midi.NoteOffEvent(tick=15, channel=10, data=[81, 64]),
   midi.NoteOnEvent(tick=0, channel=10, data=[79, 70]),
   midi.NoteOffEvent(tick=15, channel=10, data=[79, 64]),
   midi.NoteOnEvent(tick=0, channel=10, data=[81, 70]),
   midi.NoteOffEvent(tick=15, channel=10, data=[81, 64]),
   midi.NoteOnEvent(tick=0, channel=10, data=[79, 70]),
   midi.NoteOffEvent(tick=15, channel=10, data=[79, 64]),
   midi.NoteOnEvent(tick=0, channel=10, data=[81, 70]),
   midi.NoteOffEvent(tick=15, channel=10, data=[81, 64]),
   midi.NoteOnEvent(tick=0, channel=10, data=[79, 70]),
   midi.NoteOffEvent(tick=15, channel=10, data=[79, 64]),
   midi.NoteOnEvent(tick=0, channel=10, data=[81, 70]),
   midi.NoteOffEvent(tick=15, channel=10, data=[81, 64]),
   midi.NoteOnEvent(tick=0, channel=10, data=[79, 70]),
   midi.NoteOffEvent(tick=15, channel=10, data=[79, 64]),
   midi.NoteOnEvent(tick=0, channel=10, data=[81, 70]),
   midi.NoteOffEvent(tick=15, channel=10, data=[81, 64]),
   midi.NoteOnEvent(tick=0, channel=10, data=[79, 70]),
   midi.NoteOffEvent(tick=15, channel=10, data=[79, 64]),
   midi.NoteOnEvent(tick=0, channel=10, data=[81, 70]),
   midi.NoteOffEvent(tick=60, channel=10, data=[81, 64]),
   midi.NoteOnEvent(tick=0, channel=10, data=[83, 70]),
   midi.NoteOffEvent(tick=78, channel=10, data=[83, 64]),
   midi.NoteOnEvent(tick=42, channel=10, data=[75, 70]),
   midi.NoteOffEvent(tick=78, channel=10, data=[75, 64]),
   midi.NoteOnEvent(tick=42, channel=10, data=[76, 70]),
   midi.NoteOffEvent(tick=78, channel=10, data=[76, 64]),
   midi.NoteOnEvent(tick=42, channel=10, data=[79, 70]),
   midi.NoteOffEvent(tick=78, channel=10, data=[79, 64]),
   midi.NoteOnEvent(tick=42, channel=10, data=[74, 70]),
   midi.NoteOffEvent(tick=240, channel=10, data=[74, 64]),
   midi.NoteOnEvent(tick=0, channel=10, data=[73, 70]),
   midi.NoteOffEvent(tick=36, channel=10, data=[73, 64]),
   midi.NoteOnEvent(tick=24, channel=10, data=[69, 70]),
   midi.NoteOffEvent(tick=36, channel=10, data=[69, 64]),
   midi.NoteOnEvent(tick=24, channel=10, data=[71, 70]),
   midi.NoteOffEvent(tick=36, channel=10, data=[71, 64]),
   midi.NoteOnEvent(tick=24, channel=10, data=[73, 70]),
   midi.NoteOffEvent(tick=36, channel=10, data=[73, 64]),
   midi.NoteOnEvent(tick=24, channel=10, data=[74, 70]),
   midi.NoteOffEvent(tick=36, channel=10, data=[74, 64]),
   midi.NoteOnEvent(tick=24, channel=10, data=[76, 70]),
   midi.NoteOffEvent(tick=36, channel=10, data=[76, 64]),
   midi.NoteOnEvent(tick=24, channel=10, data=[78, 70]),
   midi.NoteOffEvent(tick=36, channel=10, data=[78, 64]),
   midi.NoteOnEvent(tick=24, channel=10, data=[79, 70]),
   midi.NoteOffEvent(tick=36, channel=10, data=[79, 64]),
   midi.NoteOnEvent(tick=24, channel=10, data=[81, 70]),
   midi.NoteOffEvent(tick=60, channel=10, data=[81, 64]),
   midi.NoteOnEvent(tick=0, channel=10, data=[83, 70]),
   midi.NoteOffEvent(tick=20, channel=10, data=[83, 64]),
   midi.NoteOnEvent(tick=0, channel=10, data=[81, 70]),
   midi.NoteOffEvent(tick=20, channel=10, data=[81, 64]),
   midi.NoteOnEvent(tick=0, channel=10, data=[79, 70]),
   midi.NoteOffEvent(tick=20, channel=10, data=[79, 64]),
   midi.NoteOnEvent(tick=0, channel=10, data=[81, 70]),
   midi.NoteOffEvent(tick=60, channel=10, data=[81, 64]),
   midi.NoteOnEvent(tick=0, channel=10, data=[83, 70]),
   midi.NoteOffEvent(tick=48, channel=10, data=[83, 64]),
   midi.NoteOnEvent(tick=12, channel=10, data=[74, 70]),
   midi.NoteOffEvent(tick=240, channel=10, data=[74, 64]),
   midi.NoteOnEvent(tick=0, channel=10, data=[74, 70]),
   midi.NoteOffEvent(tick=15, channel=10, data=[74, 64]),
   midi.NoteOnEvent(tick=0, channel=10, data=[73, 70]),
   midi.NoteOffEvent(tick=15, channel=10, data=[73, 64]),
   midi.NoteOnEvent(tick=0, channel=10, data=[74, 70]),
   midi.NoteOffEvent(tick=15, channel=10, data=[74, 64]),
   midi.NoteOnEvent(tick=0, channel=10, data=[73, 70]),
   midi.NoteOffEvent(tick=15, channel=10, data=[73, 64]),
   midi.NoteOnEvent(tick=0, channel=10, data=[74, 70]),
   midi.NoteOffEvent(tick=15, channel=10, data=[74, 64]),
   midi.NoteOnEvent(tick=0, channel=10, data=[73, 70]),
   midi.NoteOffEvent(tick=15, channel=10, data=[73, 64]),
   midi.NoteOnEvent(tick=0, channel=10, data=[74, 70]),
   midi.NoteOffEvent(tick=15, channel=10, data=[74, 64]),
   midi.NoteOnEvent(tick=0, channel=10, data=[73, 70]),
   midi.NoteOffEvent(tick=15, channel=10, data=[73, 64]),
   midi.NoteOnEvent(tick=0, channel=10, data=[74, 70]),
   midi.NoteOffEvent(tick=15, channel=10, data=[74, 64]),
   midi.NoteOnEvent(tick=0, channel=10, data=[73, 70]),
   midi.NoteOffEvent(tick=15, channel=10, data=[73, 64]),
   midi.NoteOnEvent(tick=0, channel=10, data=[74, 70]),
   midi.NoteOffEvent(tick=15, channel=10, data=[74, 64]),
   midi.NoteOnEvent(tick=0, channel=10, data=[73, 70]),
   midi.NoteOffEvent(tick=15, channel=10, data=[73, 64]),
   midi.NoteOnEvent(tick=0, channel=10, data=[74, 70]),
   midi.NoteOffEvent(tick=15, channel=10, data=[74, 64]),
   midi.NoteOnEvent(tick=0, channel=10, data=[73, 70]),
   midi.NoteOffEvent(tick=15, channel=10, data=[73, 64]),
   midi.NoteOnEvent(tick=0, channel=10, data=[74, 70]),
   midi.NoteOffEvent(tick=15, channel=10, data=[74, 64]),
   midi.NoteOnEvent(tick=0, channel=10, data=[73, 70]),
   midi.NoteOffEvent(tick=15, channel=10, data=[73, 64]),
   midi.NoteOnEvent(tick=0, channel=10, data=[74, 70]),
   midi.NoteOffEvent(tick=288, channel=10, data=[74, 64]),
   midi.NoteOnEvent(tick=72, channel=10, data=[74, 70]),
   midi.NoteOffEvent(tick=72, channel=10, data=[74, 64]),
   midi.NoteOnEvent(tick=48, channel=10, data=[78, 70]),
   midi.NoteOffEvent(tick=72, channel=10, data=[78, 64]),
   midi.NoteOnEvent(tick=48, channel=10, data=[74, 70]),
   midi.NoteOffEvent(tick=72, channel=10, data=[74, 64]),
   midi.NoteOnEvent(tick=48, channel=10, data=[69, 90]),
   midi.NoteOnEvent(tick=0, channel=10, data=[79, 90]),
   midi.NoteOffEvent(tick=144, channel=10, data=[79, 64]),
   midi.NoteOffEvent(tick=0, channel=10, data=[69, 64]),
   midi.NoteOnEvent(tick=36, channel=10, data=[81, 70]),
   midi.NoteOffEvent(tick=36, channel=10, data=[81, 64]),
   midi.NoteOnEvent(tick=24, channel=10, data=[79, 70]),
   midi.NoteOffEvent(tick=72, channel=10, data=[79, 64]),
   midi.NoteOnEvent(tick=48, channel=10, data=[78, 70]),
   midi.NoteOffEvent(tick=72, channel=10, data=[78, 64]),
   midi.NoteOnEvent(tick=48, channel=10, data=[76, 70]),
   midi.NoteOffEvent(tick=72, channel=10, data=[76, 64]),
   midi.NoteOnEvent(tick=48, channel=10, data=[74, 70]),
   midi.NoteOffEvent(tick=72, channel=10, data=[74, 64]),
   midi.NoteOnEvent(tick=48, channel=10, data=[73, 70]),
   midi.NoteOffEvent(tick=30, channel=10, data=[73, 64]),
   midi.NoteOnEvent(tick=0, channel=10, data=[74, 70]),
   midi.NoteOffEvent(tick=30, channel=10, data=[74, 64]),
   midi.NoteOnEvent(tick=0, channel=10, data=[76, 70]),
   midi.NoteOffEvent(tick=60, channel=10, data=[76, 64]),
   midi.NoteOnEvent(tick=240, channel=10, data=[74, 70]),
   midi.NoteOffEvent(tick=72, channel=10, data=[74, 64]),
   midi.NoteOnEvent(tick=48, channel=10, data=[78, 70]),
   midi.NoteOffEvent(tick=72, channel=10, data=[78, 64]),
   midi.NoteOnEvent(tick=48, channel=10, data=[74, 70]),
   midi.NoteOffEvent(tick=72, channel=10, data=[74, 64]),
   midi.NoteOnEvent(tick=48, channel=10, data=[69, 90]),
   midi.NoteOnEvent(tick=0, channel=10, data=[79, 90]),
   midi.NoteOffEvent(tick=144, channel=10, data=[79, 64]),
   midi.NoteOffEvent(tick=0, channel=10, data=[69, 64]),
   midi.NoteOnEvent(tick=36, channel=10, data=[81, 70]),
   midi.NoteOffEvent(tick=36, channel=10, data=[81, 64]),
   midi.NoteOnEvent(tick=24, channel=10, data=[79, 70]),
   midi.NoteOffEvent(tick=72, channel=10, data=[79, 64]),
   midi.NoteOnEvent(tick=48, channel=10, data=[78, 70]),
   midi.NoteOffEvent(tick=72, channel=10, data=[78, 64]),
   midi.NoteOnEvent(tick=48, channel=10, data=[76, 70]),
   midi.NoteOffEvent(tick=72, channel=10, data=[76, 64]),
   midi.NoteOnEvent(tick=48, channel=10, data=[74, 70]),
   midi.NoteOffEvent(tick=72, channel=10, data=[74, 64]),
   midi.NoteOnEvent(tick=48, channel=10, data=[81, 70]),
   midi.NoteOffEvent(tick=192, channel=10, data=[81, 64]),
   midi.NoteOnEvent(tick=48, channel=10, data=[69, 70]),
   midi.NoteOffEvent(tick=300, channel=10, data=[69, 64]),
   midi.NoteOnEvent(tick=0, channel=10, data=[68, 70]),
   midi.NoteOffEvent(tick=60, channel=10, data=[68, 64]),
   midi.NoteOnEvent(tick=0, channel=10, data=[69, 70]),
   midi.NoteOffEvent(tick=60, channel=10, data=[69, 64]),
   midi.NoteOnEvent(tick=0, channel=10, data=[67, 70]),
   midi.NoteOffEvent(tick=48, channel=10, data=[67, 64]),
   midi.NoteOnEvent(tick=12, channel=10, data=[66, 70]),
   midi.NoteOffEvent(tick=144, channel=10, data=[66, 64]),
   midi.NoteOnEvent(tick=36, channel=10, data=[67, 70]),
   midi.NoteOffEvent(tick=48, channel=10, data=[67, 64]),
   midi.NoteOnEvent(tick=12, channel=10, data=[69, 70]),
   midi.NoteOffEvent(tick=120, channel=10, data=[69, 64]),
   midi.NoteOnEvent(tick=0, channel=10, data=[71, 70]),
   midi.NoteOffEvent(tick=120, channel=10, data=[71, 64]),
   midi.NoteOnEvent(tick=0, channel=10, data=[64, 70]),
   midi.NoteOffEvent(tick=120, channel=10, data=[64, 64]),
   midi.NoteOnEvent(tick=0, channel=10, data=[69, 70]),
   midi.NoteOffEvent(tick=96, channel=10, data=[69, 64]),
   midi.NoteOnEvent(tick=24, channel=10, data=[62, 70]),
   midi.NoteOffEvent(tick=157, channel=10, data=[62, 64]),
   midi.NoteOnEvent(tick=23, channel=10, data=[64, 70]),
   midi.NoteOffEvent(tick=26, channel=10, data=[64, 64]),
   midi.NoteOnEvent(tick=4, channel=10, data=[66, 70]),
   midi.NoteOffEvent(tick=26, channel=10, data=[66, 64]),
   midi.NoteOnEvent(tick=4, channel=10, data=[67, 70]),
   midi.NoteOffEvent(tick=360, channel=10, data=[67, 64]),
   midi.NoteOnEvent(tick=0, channel=10, data=[66, 70]),
   midi.NoteOffEvent(tick=96, channel=10, data=[66, 64]),
   midi.NoteOnEvent(tick=24, channel=10, data=[66, 70]),
   midi.NoteOffEvent(tick=30, channel=10, data=[66, 64]),
   midi.NoteOnEvent(tick=0, channel=10, data=[64, 70]),
   midi.NoteOffEvent(tick=68, channel=10, data=[64, 64]),
   midi.NoteOnEvent(tick=22, channel=10, data=[64, 70]),
   midi.NoteOffEvent(tick=78, channel=10, data=[64, 64]),
   midi.NoteOnEvent(tick=42, channel=10, data=[66, 70]),
   midi.NoteOffEvent(tick=30, channel=10, data=[66, 64]),
   midi.NoteOnEvent(tick=0, channel=10, data=[64, 70]),
   midi.NoteOffEvent(tick=68, channel=10, data=[64, 64]),
   midi.NoteOnEvent(tick=22, channel=10, data=[64, 70]),
   midi.NoteOffEvent(tick=78, channel=10, data=[64, 64]),
   midi.NoteOnEvent(tick=42, channel=10, data=[66, 70]),
   midi.NoteOffEvent(tick=30, channel=10, data=[66, 64]),
   midi.NoteOnEvent(tick=0, channel=10, data=[64, 70]),
   midi.NoteOffEvent(tick=68, channel=10, data=[64, 64]),
   midi.NoteOnEvent(tick=22, channel=10, data=[64, 70]),
   midi.NoteOffEvent(tick=78, channel=10, data=[64, 64]),
   midi.NoteOnEvent(tick=42, channel=10, data=[64, 70]),
   midi.NoteOffEvent(tick=60, channel=10, data=[64, 64]),
   midi.NoteOnEvent(tick=0, channel=10, data=[66, 70]),
   midi.NoteOffEvent(tick=60, channel=10, data=[66, 64]),
   midi.NoteOnEvent(tick=0, channel=10, data=[64, 70]),
   midi.NoteOffEvent(tick=60, channel=10, data=[64, 64]),
   midi.NoteOnEvent(tick=0, channel=10, data=[66, 70]),
   midi.NoteOffEvent(tick=60, channel=10, data=[66, 64]),
   midi.NoteOnEvent(tick=0, channel=10, data=[64, 70]),
   midi.NoteOffEvent(tick=48, channel=10, data=[64, 64]),
   midi.NoteOnEvent(tick=12, channel=10, data=[69, 70]),
   midi.NoteOffEvent(tick=36, channel=10, data=[69, 64]),
   midi.NoteOnEvent(tick=24, channel=10, data=[71, 70]),
   midi.NoteOffEvent(tick=36, channel=10, data=[71, 64]),
   midi.NoteOnEvent(tick=24, channel=10, data=[73, 70]),
   midi.NoteOffEvent(tick=36, channel=10, data=[73, 64]),
   midi.NoteOnEvent(tick=24, channel=10, data=[74, 70]),
   midi.NoteOffEvent(tick=36, channel=10, data=[74, 64]),
   midi.NoteOnEvent(tick=24, channel=10, data=[76, 70]),
   midi.NoteOffEvent(tick=36, channel=10, data=[76, 64]),
   midi.NoteOnEvent(tick=24, channel=10, data=[78, 70]),
   midi.NoteOffEvent(tick=36, channel=10, data=[78, 64]),
   midi.NoteOnEvent(tick=24, channel=10, data=[79, 70]),
   midi.NoteOffEvent(tick=36, channel=10, data=[79, 64]),
   midi.NoteOnEvent(tick=24, channel=10, data=[78, 70]),
   midi.NoteOffEvent(tick=144, channel=10, data=[78, 64]),
   midi.NoteOnEvent(tick=36, channel=10, data=[79, 70]),
   midi.NoteOffEvent(tick=48, channel=10, data=[79, 64]),
   midi.NoteOnEvent(tick=12, channel=10, data=[81, 70]),
   midi.NoteOffEvent(tick=120, channel=10, data=[81, 64]),
   midi.NoteOnEvent(tick=0, channel=10, data=[83, 70]),
   midi.NoteOffEvent(tick=120, channel=10, data=[83, 64]),
   midi.NoteOnEvent(tick=0, channel=10, data=[76, 70]),
   midi.NoteOffEvent(tick=120, channel=10, data=[76, 64]),
   midi.NoteOnEvent(tick=0, channel=10, data=[81, 70]),
   midi.NoteOffEvent(tick=96, channel=10, data=[81, 64]),
   midi.NoteOnEvent(tick=24, channel=10, data=[74, 70]),
   midi.NoteOffEvent(tick=157, channel=10, data=[74, 64]),
   midi.NoteOnEvent(tick=23, channel=10, data=[76, 70]),
   midi.NoteOffEvent(tick=26, channel=10, data=[76, 64]),
   midi.NoteOnEvent(tick=4, channel=10, data=[78, 70]),
   midi.NoteOffEvent(tick=26, channel=10, data=[78, 64]),
   midi.NoteOnEvent(tick=4, channel=10, data=[79, 70]),
   midi.NoteOffEvent(tick=360, channel=10, data=[79, 64]),
   midi.NoteOnEvent(tick=0, channel=10, data=[78, 70]),
   midi.NoteOffEvent(tick=96, channel=10, data=[78, 64]),
   midi.NoteOnEvent(tick=24, channel=10, data=[76, 70]),
   midi.NoteOffEvent(tick=60, channel=10, data=[76, 64]),
   midi.NoteOnEvent(tick=0, channel=10, data=[83, 70]),
   midi.NoteOffEvent(tick=60, channel=10, data=[83, 64]),
   midi.NoteOnEvent(tick=0, channel=10, data=[79, 70]),
   midi.NoteOffEvent(tick=60, channel=10, data=[79, 64]),
   midi.NoteOnEvent(tick=0, channel=10, data=[76, 70]),
   midi.NoteOffEvent(tick=60, channel=10, data=[76, 64]),
   midi.NoteOnEvent(tick=0, channel=10, data=[74, 70]),
   midi.NoteOffEvent(tick=192, channel=10, data=[74, 64]),
   midi.NoteOnEvent(tick=48, channel=10, data=[78, 70]),
   midi.NoteOffEvent(tick=15, channel=10, data=[78, 64]),
   midi.NoteOnEvent(tick=0, channel=10, data=[76, 70]),
   midi.NoteOffEvent(tick=15, channel=10, data=[76, 64]),
   midi.NoteOnEvent(tick=0, channel=10, data=[78, 70]),
   midi.NoteOffEvent(tick=15, channel=10, data=[78, 64]),
   midi.NoteOnEvent(tick=0, channel=10, data=[76, 70]),
   midi.NoteOffEvent(tick=15, channel=10, data=[76, 64]),
   midi.NoteOnEvent(tick=0, channel=10, data=[78, 70]),
   midi.NoteOffEvent(tick=15, channel=10, data=[78, 64]),
   midi.NoteOnEvent(tick=0, channel=10, data=[76, 70]),
   midi.NoteOffEvent(tick=15, channel=10, data=[76, 64]),
   midi.NoteOnEvent(tick=0, channel=10, data=[78, 70]),
   midi.NoteOffEvent(tick=15, channel=10, data=[78, 64]),
   midi.NoteOnEvent(tick=0, channel=10, data=[76, 70]),
   midi.NoteOffEvent(tick=15, channel=10, data=[76, 64]),
   midi.NoteOnEvent(tick=0, channel=10, data=[78, 70]),
   midi.NoteOffEvent(tick=15, channel=10, data=[78, 64]),
   midi.NoteOnEvent(tick=0, channel=10, data=[76, 70]),
   midi.NoteOffEvent(tick=15, channel=10, data=[76, 64]),
   midi.NoteOnEvent(tick=0, channel=10, data=[78, 70]),
   midi.NoteOffEvent(tick=15, channel=10, data=[78, 64]),
   midi.NoteOnEvent(tick=0, channel=10, data=[76, 70]),
   midi.NoteOffEvent(tick=15, channel=10, data=[76, 64]),
   midi.NoteOnEvent(tick=0, channel=10, data=[78, 70]),
   midi.NoteOffEvent(tick=15, channel=10, data=[78, 64]),
   midi.NoteOnEvent(tick=0, channel=10, data=[76, 70]),
   midi.NoteOffEvent(tick=15, channel=10, data=[76, 64]),
   midi.NoteOnEvent(tick=0, channel=10, data=[78, 70]),
   midi.NoteOffEvent(tick=15, channel=10, data=[78, 64]),
   midi.NoteOnEvent(tick=0, channel=10, data=[76, 70]),
   midi.NoteOffEvent(tick=15, channel=10, data=[76, 64]),
   midi.NoteOnEvent(tick=0, channel=10, data=[74, 90]),
   midi.NoteOnEvent(tick=0, channel=10, data=[62, 70]),
   midi.NoteOffEvent(tick=288, channel=10, data=[62, 64]),
   midi.NoteOffEvent(tick=0, channel=10, data=[74, 64]),
   midi.NoteOnEvent(tick=72, channel=10, data=[86, 70]),
   midi.NoteOffEvent(tick=60, channel=10, data=[86, 64]),
   midi.NoteOnEvent(tick=0, channel=10, data=[85, 70]),
   midi.NoteOffEvent(tick=60, channel=10, data=[85, 64]),
   midi.NoteOnEvent(tick=0, channel=10, data=[86, 70]),
   midi.NoteOffEvent(tick=60, channel=10, data=[86, 64]),
   midi.NoteOnEvent(tick=0, channel=10, data=[85, 70]),
   midi.NoteOffEvent(tick=60, channel=10, data=[85, 64]),
   midi.NoteOnEvent(tick=0, channel=10, data=[83, 70]),
   midi.NoteOffEvent(tick=60, channel=10, data=[83, 64]),
   midi.NoteOnEvent(tick=0, channel=10, data=[81, 70]),
   midi.NoteOffEvent(tick=48, channel=10, data=[81, 64]),
   midi.NoteOnEvent(tick=12, channel=10, data=[81, 70]),
   midi.NoteOffEvent(tick=60, channel=10, data=[81, 64]),
   midi.NoteOnEvent(tick=0, channel=10, data=[79, 70]),
   midi.NoteOffEvent(tick=48, channel=10, data=[79, 64]),
   midi.NoteOnEvent(tick=12, channel=10, data=[79, 70]),
   midi.NoteOffEvent(tick=192, channel=10, data=[79, 64]),
   midi.NoteOnEvent(tick=48, channel=10, data=[81, 70]),
   midi.NoteOffEvent(tick=60, channel=10, data=[81, 64]),
   midi.NoteOnEvent(tick=0, channel=10, data=[79, 70]),
   midi.NoteOffEvent(tick=60, channel=10, data=[79, 64]),
   midi.NoteOnEvent(tick=0, channel=10, data=[81, 70]),
   midi.NoteOffEvent(tick=60, channel=10, data=[81, 64]),
   midi.NoteOnEvent(tick=0, channel=10, data=[79, 70]),
   midi.NoteOffEvent(tick=60, channel=10, data=[79, 64]),
   midi.NoteOnEvent(tick=0, channel=10, data=[78, 70]),
   midi.NoteOffEvent(tick=60, channel=10, data=[78, 64]),
   midi.NoteOnEvent(tick=0, channel=10, data=[76, 70]),
   midi.NoteOffEvent(tick=48, channel=10, data=[76, 64]),
   midi.NoteOnEvent(tick=12, channel=10, data=[62, 70]),
   midi.NoteOnEvent(tick=0, channel=10, data=[74, 90]),
   midi.NoteOffEvent(tick=288, channel=10, data=[74, 64]),
   midi.NoteOffEvent(tick=0, channel=10, data=[62, 64]),
   midi.NoteOnEvent(tick=72, channel=10, data=[86, 70]),
   midi.NoteOffEvent(tick=60, channel=10, data=[86, 64]),
   midi.NoteOnEvent(tick=0, channel=10, data=[85, 70]),
   midi.NoteOffEvent(tick=60, channel=10, data=[85, 64]),
   midi.NoteOnEvent(tick=0, channel=10, data=[86, 70]),
   midi.NoteOffEvent(tick=60, channel=10, data=[86, 64]),
   midi.NoteOnEvent(tick=0, channel=10, data=[85, 70]),
   midi.NoteOffEvent(tick=60, channel=10, data=[85, 64]),
   midi.NoteOnEvent(tick=0, channel=10, data=[83, 70]),
   midi.NoteOffEvent(tick=60, channel=10, data=[83, 64]),
   midi.NoteOnEvent(tick=0, channel=10, data=[81, 70]),
   midi.NoteOffEvent(tick=48, channel=10, data=[81, 64]),
   midi.NoteOnEvent(tick=12, channel=10, data=[81, 70]),
   midi.NoteOffEvent(tick=60, channel=10, data=[81, 64]),
   midi.NoteOnEvent(tick=0, channel=10, data=[79, 70]),
   midi.NoteOffEvent(tick=48, channel=10, data=[79, 64]),
   midi.NoteOnEvent(tick=12, channel=10, data=[79, 70]),
   midi.NoteOffEvent(tick=192, channel=10, data=[79, 64]),
   midi.NoteOnEvent(tick=48, channel=10, data=[81, 70]),
   midi.NoteOffEvent(tick=60, channel=10, data=[81, 64]),
   midi.NoteOnEvent(tick=0, channel=10, data=[79, 70]),
   midi.NoteOffEvent(tick=60, channel=10, data=[79, 64]),
   midi.NoteOnEvent(tick=0, channel=10, data=[81, 70]),
   midi.NoteOffEvent(tick=60, channel=10, data=[81, 64]),
   midi.NoteOnEvent(tick=0, channel=10, data=[79, 70]),
   midi.NoteOffEvent(tick=60, channel=10, data=[79, 64]),
   midi.NoteOnEvent(tick=0, channel=10, data=[78, 70]),
   midi.NoteOffEvent(tick=60, channel=10, data=[78, 64]),
   midi.NoteOnEvent(tick=0, channel=10, data=[76, 70]),
   midi.NoteOffEvent(tick=48, channel=10, data=[76, 64]),
   midi.NoteOnEvent(tick=12, channel=10, data=[74, 70]),
   midi.NoteOffEvent(tick=96, channel=10, data=[74, 64]),
   midi.NoteOnEvent(tick=24, channel=10, data=[78, 70]),
   midi.NoteOffEvent(tick=96, channel=10, data=[78, 64]),
   midi.NoteOnEvent(tick=24, channel=10, data=[79, 58]),
   midi.NoteOffEvent(tick=15, channel=10, data=[79, 64]),
   midi.NoteOnEvent(tick=0, channel=10, data=[78, 58]),
   midi.NoteOffEvent(tick=15, channel=10, data=[78, 64]),
   midi.NoteOnEvent(tick=0, channel=10, data=[79, 58]),
   midi.NoteOffEvent(tick=15, channel=10, data=[79, 64]),
   midi.NoteOnEvent(tick=0, channel=10, data=[78, 58]),
   midi.NoteOffEvent(tick=15, channel=10, data=[78, 64]),
   midi.NoteOnEvent(tick=0, channel=10, data=[79, 58]),
   midi.NoteOffEvent(tick=15, channel=10, data=[79, 64]),
   midi.NoteOnEvent(tick=0, channel=10, data=[78, 58]),
   midi.NoteOffEvent(tick=15, channel=10, data=[78, 64]),
   midi.NoteOnEvent(tick=0, channel=10, data=[79, 58]),
   midi.NoteOffEvent(tick=15, channel=10, data=[79, 64]),
   midi.NoteOnEvent(tick=0, channel=10, data=[78, 58]),
   midi.NoteOffEvent(tick=15, channel=10, data=[78, 64]),
   midi.NoteOnEvent(tick=0, channel=10, data=[79, 58]),
   midi.NoteOffEvent(tick=15, channel=10, data=[79, 64]),
   midi.NoteOnEvent(tick=0, channel=10, data=[78, 58]),
   midi.NoteOffEvent(tick=15, channel=10, data=[78, 64]),
   midi.NoteOnEvent(tick=0, channel=10, data=[79, 58]),
   midi.NoteOffEvent(tick=15, channel=10, data=[79, 64]),
   midi.NoteOnEvent(tick=0, channel=10, data=[78, 58]),
   midi.NoteOffEvent(tick=15, channel=10, data=[78, 64]),
   midi.NoteOnEvent(tick=0, channel=10, data=[76, 58]),
   midi.NoteOffEvent(tick=30, channel=10, data=[76, 64]),
   midi.NoteOnEvent(tick=0, channel=10, data=[78, 58]),
   midi.NoteOffEvent(tick=24, channel=10, data=[78, 64]),
   midi.NoteOnEvent(tick=6, channel=10, data=[81, 58]),
   midi.NoteOffEvent(tick=15, channel=10, data=[81, 64]),
   midi.NoteOnEvent(tick=0, channel=10, data=[79, 58]),
   midi.NoteOffEvent(tick=15, channel=10, data=[79, 64]),
   midi.NoteOnEvent(tick=0, channel=10, data=[81, 58]),
   midi.NoteOffEvent(tick=15, channel=10, data=[81, 64]),
   midi.NoteOnEvent(tick=0, channel=10, data=[79, 58]),
   midi.NoteOffEvent(tick=15, channel=10, data=[79, 64]),
   midi.NoteOnEvent(tick=0, channel=10, data=[81, 58]),
   midi.NoteOffEvent(tick=15, channel=10, data=[81, 64]),
   midi.NoteOnEvent(tick=0, channel=10, data=[79, 58]),
   midi.NoteOffEvent(tick=15, channel=10, data=[79, 64]),
   midi.NoteOnEvent(tick=0, channel=10, data=[81, 58]),
   midi.NoteOffEvent(tick=15, channel=10, data=[81, 64]),
   midi.NoteOnEvent(tick=0, channel=10, data=[79, 58]),
   midi.NoteOffEvent(tick=15, channel=10, data=[79, 64]),
   midi.NoteOnEvent(tick=0, channel=10, data=[81, 58]),
   midi.NoteOffEvent(tick=15, channel=10, data=[81, 64]),
   midi.NoteOnEvent(tick=0, channel=10, data=[79, 58]),
   midi.NoteOffEvent(tick=15, channel=10, data=[79, 64]),
   midi.NoteOnEvent(tick=0, channel=10, data=[81, 58]),
   midi.NoteOffEvent(tick=15, channel=10, data=[81, 64]),
   midi.NoteOnEvent(tick=0, channel=10, data=[79, 58]),
   midi.NoteOffEvent(tick=15, channel=10, data=[79, 64]),
   midi.NoteOnEvent(tick=0, channel=10, data=[78, 58]),
   midi.NoteOffEvent(tick=30, channel=10, data=[78, 64]),
   midi.NoteOnEvent(tick=0, channel=10, data=[79, 58]),
   midi.NoteOffEvent(tick=24, channel=10, data=[79, 64]),
   midi.NoteOnEvent(tick=6, channel=10, data=[83, 58]),
   midi.NoteOffEvent(tick=15, channel=10, data=[83, 64]),
   midi.NoteOnEvent(tick=0, channel=10, data=[81, 58]),
   midi.NoteOffEvent(tick=15, channel=10, data=[81, 64]),
   midi.NoteOnEvent(tick=0, channel=10, data=[83, 58]),
   midi.NoteOffEvent(tick=15, channel=10, data=[83, 64]),
   midi.NoteOnEvent(tick=0, channel=10, data=[81, 58]),
   midi.NoteOffEvent(tick=15, channel=10, data=[81, 64]),
   midi.NoteOnEvent(tick=0, channel=10, data=[83, 58]),
   midi.NoteOffEvent(tick=15, channel=10, data=[83, 64]),
   midi.NoteOnEvent(tick=0, channel=10, data=[81, 58]),
   midi.NoteOffEvent(tick=15, channel=10, data=[81, 64]),
   midi.NoteOnEvent(tick=0, channel=10, data=[83, 58]),
   midi.NoteOffEvent(tick=15, channel=10, data=[83, 64]),
   midi.NoteOnEvent(tick=0, channel=10, data=[81, 58]),
   midi.NoteOffEvent(tick=15, channel=10, data=[81, 64]),
   midi.NoteOnEvent(tick=0, channel=10, data=[83, 58]),
   midi.NoteOffEvent(tick=15, channel=10, data=[83, 64]),
   midi.NoteOnEvent(tick=0, channel=10, data=[81, 58]),
   midi.NoteOffEvent(tick=15, channel=10, data=[81, 64]),
   midi.NoteOnEvent(tick=0, channel=10, data=[83, 58]),
   midi.NoteOffEvent(tick=15, channel=10, data=[83, 64]),
   midi.NoteOnEvent(tick=0, channel=10, data=[81, 58]),
   midi.NoteOffEvent(tick=15, channel=10, data=[81, 64]),
   midi.NoteOnEvent(tick=0, channel=10, data=[79, 58]),
   midi.NoteOffEvent(tick=30, channel=10, data=[79, 64]),
   midi.NoteOnEvent(tick=0, channel=10, data=[81, 58]),
   midi.NoteOffEvent(tick=24, channel=10, data=[81, 64]),
   midi.NoteOnEvent(tick=6, channel=10, data=[84, 58]),
   midi.NoteOffEvent(tick=15, channel=10, data=[84, 64]),
   midi.NoteOnEvent(tick=0, channel=10, data=[83, 58]),
   midi.NoteOffEvent(tick=15, channel=10, data=[83, 64]),
   midi.NoteOnEvent(tick=0, channel=10, data=[84, 58]),
   midi.NoteOffEvent(tick=15, channel=10, data=[84, 64]),
   midi.NoteOnEvent(tick=0, channel=10, data=[83, 58]),
   midi.NoteOffEvent(tick=15, channel=10, data=[83, 64]),
   midi.NoteOnEvent(tick=0, channel=10, data=[84, 58]),
   midi.NoteOffEvent(tick=15, channel=10, data=[84, 64]),
   midi.NoteOnEvent(tick=0, channel=10, data=[83, 58]),
   midi.NoteOffEvent(tick=15, channel=10, data=[83, 64]),
   midi.NoteOnEvent(tick=0, channel=10, data=[84, 58]),
   midi.NoteOffEvent(tick=15, channel=10, data=[84, 64]),
   midi.NoteOnEvent(tick=0, channel=10, data=[83, 58]),
   midi.NoteOffEvent(tick=15, channel=10, data=[83, 64]),
   midi.NoteOnEvent(tick=0, channel=10, data=[84, 58]),
   midi.NoteOffEvent(tick=15, channel=10, data=[84, 64]),
   midi.NoteOnEvent(tick=0, channel=10, data=[83, 58]),
   midi.NoteOffEvent(tick=15, channel=10, data=[83, 64]),
   midi.NoteOnEvent(tick=0, channel=10, data=[84, 58]),
   midi.NoteOffEvent(tick=15, channel=10, data=[84, 64]),
   midi.NoteOnEvent(tick=0, channel=10, data=[83, 58]),
   midi.NoteOffEvent(tick=15, channel=10, data=[83, 64]),
   midi.NoteOnEvent(tick=0, channel=10, data=[81, 58]),
   midi.NoteOffEvent(tick=30, channel=10, data=[81, 64]),
   midi.NoteOnEvent(tick=0, channel=10, data=[83, 58]),
   midi.NoteOffEvent(tick=24, channel=10, data=[83, 64]),
   midi.NoteOnEvent(tick=6, channel=10, data=[86, 58]),
   midi.NoteOffEvent(tick=15, channel=10, data=[86, 64]),
   midi.NoteOnEvent(tick=0, channel=10, data=[85, 58]),
   midi.NoteOffEvent(tick=15, channel=10, data=[85, 64]),
   midi.NoteOnEvent(tick=0, channel=10, data=[86, 58]),
   midi.NoteOffEvent(tick=15, channel=10, data=[86, 64]),
   midi.NoteOnEvent(tick=0, channel=10, data=[85, 58]),
   midi.NoteOffEvent(tick=15, channel=10, data=[85, 64]),
   midi.NoteOnEvent(tick=0, channel=10, data=[86, 58]),
   midi.NoteOffEvent(tick=15, channel=10, data=[86, 64]),
   midi.NoteOnEvent(tick=0, channel=10, data=[85, 58]),
   midi.NoteOffEvent(tick=15, channel=10, data=[85, 64]),
   midi.NoteOnEvent(tick=0, channel=10, data=[86, 58]),
   midi.NoteOffEvent(tick=15, channel=10, data=[86, 64]),
   midi.NoteOnEvent(tick=0, channel=10, data=[85, 58]),
   midi.NoteOffEvent(tick=15, channel=10, data=[85, 64]),
   midi.NoteOnEvent(tick=0, channel=10, data=[86, 58]),
   midi.NoteOffEvent(tick=15, channel=10, data=[86, 64]),
   midi.NoteOnEvent(tick=0, channel=10, data=[85, 58]),
   midi.NoteOffEvent(tick=15, channel=10, data=[85, 64]),
   midi.NoteOnEvent(tick=0, channel=10, data=[86, 58]),
   midi.NoteOffEvent(tick=15, channel=10, data=[86, 64]),
   midi.NoteOnEvent(tick=0, channel=10, data=[85, 58]),
   midi.NoteOffEvent(tick=15, channel=10, data=[85, 64]),
   midi.NoteOnEvent(tick=0, channel=10, data=[83, 58]),
   midi.NoteOffEvent(tick=30, channel=10, data=[83, 64]),
   midi.NoteOnEvent(tick=0, channel=10, data=[85, 58]),
   midi.NoteOffEvent(tick=24, channel=10, data=[85, 64]),
   midi.NoteOnEvent(tick=6, channel=10, data=[85, 58]),
   midi.NoteOffEvent(tick=240, channel=10, data=[85, 64]),
   midi.NoteOnEvent(tick=0, channel=10, data=[86, 58]),
   midi.NoteOffEvent(tick=96, channel=10, data=[86, 64]),
   midi.NoteOnEvent(tick=264, channel=10, data=[62, 105]),
   midi.NoteOffEvent(tick=96, channel=10, data=[62, 64]),
   midi.NoteOnEvent(tick=24, channel=10, data=[74, 105]),
   midi.NoteOffEvent(tick=144, channel=10, data=[74, 64]),
   midi.NoteOnEvent(tick=36, channel=10, data=[76, 105]),
   midi.NoteOffEvent(tick=36, channel=10, data=[76, 64]),
   midi.NoteOnEvent(tick=24, channel=10, data=[77, 105]),
   midi.NoteOffEvent(tick=72, channel=10, data=[77, 64]),
   midi.NoteOnEvent(tick=48, channel=10, data=[74, 105]),
   midi.NoteOffEvent(tick=72, channel=10, data=[74, 64]),
   midi.NoteOnEvent(tick=48, channel=10, data=[71, 105]),
   midi.NoteOffEvent(tick=72, channel=10, data=[71, 64]),
   midi.NoteOnEvent(tick=48, channel=10, data=[69, 105]),
   midi.NoteOffEvent(tick=72, channel=10, data=[69, 64]),
   midi.NoteOnEvent(tick=48, channel=10, data=[68, 105]),
   midi.NoteOffEvent(tick=66, channel=10, data=[68, 64]),
   midi.NoteOnEvent(tick=54, channel=10, data=[71, 105]),
   midi.NoteOffEvent(tick=66, channel=10, data=[71, 64]),
   midi.NoteOnEvent(tick=54, channel=10, data=[76, 105]),
   midi.NoteOffEvent(tick=180, channel=10, data=[76, 64]),
   midi.NoteOnEvent(tick=0, channel=10, data=[75, 105]),
   midi.NoteOffEvent(tick=60, channel=10, data=[75, 64]),
   midi.NoteOnEvent(tick=0, channel=10, data=[74, 80]),
   midi.NoteOffEvent(tick=60, channel=10, data=[74, 64]),
   midi.NoteOnEvent(tick=0, channel=10, data=[72, 80]),
   midi.NoteOffEvent(tick=60, channel=10, data=[72, 64]),
   midi.NoteOnEvent(tick=0, channel=10, data=[74, 80]),
   midi.NoteOffEvent(tick=60, channel=10, data=[74, 64]),
   midi.NoteOnEvent(tick=0, channel=10, data=[71, 80]),
   midi.NoteOffEvent(tick=48, channel=10, data=[71, 64]),
   midi.NoteOnEvent(tick=12, channel=10, data=[69, 70]),
   midi.NoteOffEvent(tick=78, channel=10, data=[69, 64]),
   midi.NoteOnEvent(tick=42, channel=10, data=[64, 70]),
   midi.NoteOffEvent(tick=40, channel=10, data=[64, 64]),
   midi.NoteOnEvent(tick=0, channel=10, data=[65, 70]),
   midi.NoteOffEvent(tick=40, channel=10, data=[65, 64]),
   midi.NoteOnEvent(tick=0, channel=10, data=[64, 70]),
   midi.NoteOffEvent(tick=32, channel=10, data=[64, 64]),
   midi.NoteOnEvent(tick=8, channel=10, data=[69, 70]),
   midi.NoteOffEvent(tick=78, channel=10, data=[69, 64]),
   midi.NoteOnEvent(tick=42, channel=10, data=[64, 70]),
   midi.NoteOffEvent(tick=40, channel=10, data=[64, 64]),
   midi.NoteOnEvent(tick=0, channel=10, data=[65, 70]),
   midi.NoteOffEvent(tick=40, channel=10, data=[65, 64]),
   midi.NoteOnEvent(tick=0, channel=10, data=[64, 70]),
   midi.NoteOffEvent(tick=32, channel=10, data=[64, 64]),
   midi.NoteOnEvent(tick=8, channel=10, data=[69, 70]),
   midi.NoteOffEvent(tick=78, channel=10, data=[69, 64]),
   midi.NoteOnEvent(tick=42, channel=10, data=[71, 70]),
   midi.NoteOffEvent(tick=78, channel=10, data=[71, 64]),
   midi.NoteOnEvent(tick=42, channel=10, data=[71, 70]),
   midi.NoteOffEvent(tick=192, channel=10, data=[71, 64]),
   midi.NoteOnEvent(tick=48, channel=10, data=[72, 70]),
   midi.NoteOffEvent(tick=60, channel=10, data=[72, 64]),
   midi.NoteOnEvent(tick=0, channel=10, data=[74, 70]),
   midi.NoteOffEvent(tick=60, channel=10, data=[74, 64]),
   midi.NoteOnEvent(tick=0, channel=10, data=[76, 70]),
   midi.NoteOffEvent(tick=60, channel=10, data=[76, 64]),
   midi.NoteOnEvent(tick=0, channel=10, data=[74, 70]),
   midi.NoteOffEvent(tick=60, channel=10, data=[74, 64]),
   midi.NoteOnEvent(tick=0, channel=10, data=[72, 80]),
   midi.NoteOffEvent(tick=60, channel=10, data=[72, 64]),
   midi.NoteOnEvent(tick=0, channel=10, data=[71, 80]),
   midi.NoteOffEvent(tick=60, channel=10, data=[71, 64]),
   midi.NoteOnEvent(tick=0, channel=10, data=[72, 80]),
   midi.NoteOffEvent(tick=60, channel=10, data=[72, 64]),
   midi.NoteOnEvent(tick=0, channel=10, data=[69, 92]),
   midi.NoteOffEvent(tick=48, channel=10, data=[69, 64]),
   midi.NoteOnEvent(tick=12, channel=10, data=[67, 92]),
   midi.NoteOffEvent(tick=78, channel=10, data=[67, 64]),
   midi.NoteOnEvent(tick=42, channel=10, data=[62, 92]),
   midi.NoteOffEvent(tick=32, channel=10, data=[62, 64]),
   midi.NoteOnEvent(tick=8, channel=10, data=[64, 92]),
   midi.NoteOffEvent(tick=32, channel=10, data=[64, 64]),
   midi.NoteOnEvent(tick=8, channel=10, data=[62, 92]),
   midi.NoteOffEvent(tick=32, channel=10, data=[62, 64]),
   midi.NoteOnEvent(tick=8, channel=10, data=[67, 92]),
   midi.NoteOffEvent(tick=78, channel=10, data=[67, 64]),
   midi.NoteOnEvent(tick=42, channel=10, data=[62, 92]),
   midi.NoteOffEvent(tick=32, channel=10, data=[62, 64]),
   midi.NoteOnEvent(tick=8, channel=10, data=[64, 92]),
   midi.NoteOffEvent(tick=32, channel=10, data=[64, 64]),
   midi.NoteOnEvent(tick=8, channel=10, data=[62, 92]),
   midi.NoteOffEvent(tick=32, channel=10, data=[62, 64]),
   midi.NoteOnEvent(tick=8, channel=10, data=[67, 92]),
   midi.NoteOffEvent(tick=78, channel=10, data=[67, 64]),
   midi.NoteOnEvent(tick=42, channel=10, data=[69, 92]),
   midi.NoteOffEvent(tick=78, channel=10, data=[69, 64]),
   midi.NoteOnEvent(tick=42, channel=10, data=[71, 92]),
   midi.NoteOffEvent(tick=78, channel=10, data=[71, 64]),
   midi.NoteOnEvent(tick=42, channel=10, data=[67, 92]),
   midi.NoteOffEvent(tick=40, channel=10, data=[67, 64]),
   midi.NoteOnEvent(tick=0, channel=10, data=[69, 92]),
   midi.NoteOffEvent(tick=40, channel=10, data=[69, 64]),
   midi.NoteOnEvent(tick=0, channel=10, data=[67, 92]),
   midi.NoteOffEvent(tick=32, channel=10, data=[67, 64]),
   midi.NoteOnEvent(tick=8, channel=10, data=[71, 92]),
   midi.NoteOffEvent(tick=78, channel=10, data=[71, 64]),
   midi.NoteOnEvent(tick=42, channel=10, data=[67, 92]),
   midi.NoteOffEvent(tick=40, channel=10, data=[67, 64]),
   midi.NoteOnEvent(tick=0, channel=10, data=[69, 92]),
   midi.NoteOffEvent(tick=40, channel=10, data=[69, 64]),
   midi.NoteOnEvent(tick=0, channel=10, data=[67, 92]),
   midi.NoteOffEvent(tick=32, channel=10, data=[67, 64]),
   midi.NoteOnEvent(tick=8, channel=10, data=[71, 92]),
   midi.NoteOffEvent(tick=96, channel=10, data=[71, 64]),
   midi.NoteOnEvent(tick=24, channel=10, data=[72, 92]),
   midi.NoteOffEvent(tick=78, channel=10, data=[72, 64]),
   midi.NoteOnEvent(tick=42, channel=10, data=[74, 92]),
   midi.NoteOffEvent(tick=96, channel=10, data=[74, 64]),
   midi.NoteOnEvent(tick=24, channel=10, data=[71, 92]),
   midi.NoteOffEvent(tick=48, channel=10, data=[71, 64]),
   midi.NoteOnEvent(tick=12, channel=10, data=[79, 92]),
   midi.NoteOffEvent(tick=48, channel=10, data=[79, 64]),
   midi.NoteOnEvent(tick=12, channel=10, data=[74, 92]),
   midi.NoteOffEvent(tick=96, channel=10, data=[74, 64]),
   midi.NoteOnEvent(tick=24, channel=10, data=[71, 92]),
   midi.NoteOffEvent(tick=48, channel=10, data=[71, 64]),
   midi.NoteOnEvent(tick=12, channel=10, data=[79, 92]),
   midi.NoteOffEvent(tick=48, channel=10, data=[79, 64]),
   midi.NoteOnEvent(tick=12, channel=10, data=[74, 92]),
   midi.NoteOffEvent(tick=96, channel=10, data=[74, 64]),
   midi.NoteOnEvent(tick=24, channel=10, data=[71, 92]),
   midi.NoteOffEvent(tick=48, channel=10, data=[71, 64]),
   midi.NoteOnEvent(tick=12, channel=10, data=[79, 92]),
   midi.NoteOffEvent(tick=48, channel=10, data=[79, 64]),
   midi.NoteOnEvent(tick=12, channel=10, data=[74, 92]),
   midi.NoteOffEvent(tick=96, channel=10, data=[74, 64]),
   midi.NoteOnEvent(tick=24, channel=10, data=[71, 92]),
   midi.NoteOffEvent(tick=48, channel=10, data=[71, 64]),
   midi.NoteOnEvent(tick=12, channel=10, data=[67, 92]),
   midi.NoteOffEvent(tick=48, channel=10, data=[67, 64]),
   midi.NoteOnEvent(tick=12, channel=10, data=[62, 92]),
   midi.NoteOffEvent(tick=192, channel=10, data=[62, 64]),
   midi.NoteOnEvent(tick=168, channel=10, data=[74, 70]),
   midi.NoteOffEvent(tick=96, channel=10, data=[74, 64]),
   midi.NoteOnEvent(tick=24, channel=10, data=[72, 70]),
   midi.NoteOffEvent(tick=120, channel=10, data=[72, 64]),
   midi.NoteOnEvent(tick=0, channel=10, data=[72, 70]),
   midi.NoteOffEvent(tick=15, channel=10, data=[72, 64]),
   midi.NoteOnEvent(tick=0, channel=10, data=[70, 70]),
   midi.NoteOffEvent(tick=15, channel=10, data=[70, 64]),
   midi.NoteOnEvent(tick=0, channel=10, data=[72, 70]),
   midi.NoteOffEvent(tick=15, channel=10, data=[72, 64]),
   midi.NoteOnEvent(tick=0, channel=10, data=[70, 70]),
   midi.NoteOffEvent(tick=15, channel=10, data=[70, 64]),
   midi.NoteOnEvent(tick=0, channel=10, data=[72, 70]),
   midi.NoteOffEvent(tick=15, channel=10, data=[72, 64]),
   midi.NoteOnEvent(tick=0, channel=10, data=[70, 70]),
   midi.NoteOffEvent(tick=15, channel=10, data=[70, 64]),
   midi.NoteOnEvent(tick=0, channel=10, data=[72, 70]),
   midi.NoteOffEvent(tick=15, channel=10, data=[72, 64]),
   midi.NoteOnEvent(tick=0, channel=10, data=[70, 70]),
   midi.NoteOffEvent(tick=12, channel=10, data=[70, 64]),
   midi.NoteOnEvent(tick=3, channel=10, data=[69, 70]),
   midi.NoteOffEvent(tick=192, channel=10, data=[69, 64]),
   midi.NoteOnEvent(tick=648, channel=10, data=[62, 70]),
   midi.NoteOffEvent(tick=72, channel=10, data=[62, 64]),
   midi.NoteOnEvent(tick=48, channel=10, data=[71, 70]),
   midi.NoteOffEvent(tick=72, channel=10, data=[71, 64]),
   midi.NoteOnEvent(tick=48, channel=10, data=[67, 70]),
   midi.NoteOffEvent(tick=72, channel=10, data=[67, 64]),
   midi.NoteOnEvent(tick=48, channel=10, data=[72, 90]),
   midi.NoteOffEvent(tick=144, channel=10, data=[72, 64]),
   midi.NoteOnEvent(tick=36, channel=10, data=[74, 70]),
   midi.NoteOffEvent(tick=36, channel=10, data=[74, 64]),
   midi.NoteOnEvent(tick=24, channel=10, data=[72, 70]),
   midi.NoteOffEvent(tick=72, channel=10, data=[72, 64]),
   midi.NoteOnEvent(tick=48, channel=10, data=[71, 70]),
   midi.NoteOffEvent(tick=72, channel=10, data=[71, 64]),
   midi.NoteOnEvent(tick=48, channel=10, data=[69, 70]),
   midi.NoteOffEvent(tick=72, channel=10, data=[69, 64]),
   midi.NoteOnEvent(tick=48, channel=10, data=[67, 70]),
   midi.NoteOffEvent(tick=72, channel=10, data=[67, 64]),
   midi.NoteOnEvent(tick=48, channel=10, data=[66, 70]),
   midi.NoteOffEvent(tick=30, channel=10, data=[66, 64]),
   midi.NoteOnEvent(tick=0, channel=10, data=[67, 70]),
   midi.NoteOffEvent(tick=30, channel=10, data=[67, 64]),
   midi.NoteOnEvent(tick=0, channel=10, data=[69, 70]),
   midi.NoteOffEvent(tick=60, channel=10, data=[69, 64]),
   midi.NoteOnEvent(tick=240, channel=10, data=[79, 70]),
   midi.NoteOffEvent(tick=96, channel=10, data=[79, 64]),
   midi.NoteOnEvent(tick=24, channel=10, data=[83, 70]),
   midi.NoteOffEvent(tick=96, channel=10, data=[83, 64]),
   midi.NoteOnEvent(tick=24, channel=10, data=[79, 70]),
   midi.NoteOffEvent(tick=96, channel=10, data=[79, 64]),
   midi.NoteOnEvent(tick=24, channel=10, data=[84, 90]),
   midi.NoteOffEvent(tick=144, channel=10, data=[84, 64]),
   midi.NoteOnEvent(tick=36, channel=10, data=[86, 70]),
   midi.NoteOffEvent(tick=36, channel=10, data=[86, 64]),
   midi.NoteOnEvent(tick=24, channel=10, data=[84, 70]),
   midi.NoteOffEvent(tick=72, channel=10, data=[84, 64]),
   midi.NoteOnEvent(tick=48, channel=10, data=[83, 70]),
   midi.NoteOffEvent(tick=72, channel=10, data=[83, 64]),
   midi.NoteOnEvent(tick=48, channel=10, data=[81, 70]),
   midi.NoteOffEvent(tick=72, channel=10, data=[81, 64]),
   midi.NoteOnEvent(tick=48, channel=10, data=[79, 70]),
   midi.NoteOffEvent(tick=72, channel=10, data=[79, 64]),
   midi.NoteOnEvent(tick=48, channel=10, data=[86, 70]),
   midi.NoteOffEvent(tick=192, channel=10, data=[86, 64]),
   midi.NoteOnEvent(tick=48, channel=10, data=[74, 70]),
   midi.NoteOffEvent(tick=300, channel=10, data=[74, 64]),
   midi.NoteOnEvent(tick=0, channel=10, data=[73, 70]),
   midi.NoteOffEvent(tick=60, channel=10, data=[73, 64]),
   midi.NoteOnEvent(tick=0, channel=10, data=[74, 70]),
   midi.NoteOffEvent(tick=60, channel=10, data=[74, 64]),
   midi.NoteOnEvent(tick=0, channel=10, data=[72, 70]),
   midi.NoteOffEvent(tick=48, channel=10, data=[72, 64]),
   midi.NoteOnEvent(tick=12, channel=10, data=[71, 70]),
   midi.NoteOffEvent(tick=144, channel=10, data=[71, 64]),
   midi.NoteOnEvent(tick=36, channel=10, data=[72, 70]),
   midi.NoteOffEvent(tick=48, channel=10, data=[72, 64]),
   midi.NoteOnEvent(tick=12, channel=10, data=[74, 70]),
   midi.NoteOffEvent(tick=120, channel=10, data=[74, 64]),
   midi.NoteOnEvent(tick=0, channel=10, data=[76, 70]),
   midi.NoteOffEvent(tick=120, channel=10, data=[76, 64]),
   midi.NoteOnEvent(tick=0, channel=10, data=[69, 70]),
   midi.NoteOffEvent(tick=120, channel=10, data=[69, 64]),
   midi.NoteOnEvent(tick=0, channel=10, data=[74, 70]),
   midi.NoteOffEvent(tick=96, channel=10, data=[74, 64]),
   midi.NoteOnEvent(tick=24, channel=10, data=[67, 70]),
   midi.NoteOffEvent(tick=144, channel=10, data=[67, 64]),
   midi.NoteOnEvent(tick=36, channel=10, data=[69, 70]),
   midi.NoteOffEvent(tick=24, channel=10, data=[69, 64]),
   midi.NoteOnEvent(tick=6, channel=10, data=[71, 70]),
   midi.NoteOffEvent(tick=24, channel=10, data=[71, 64]),
   midi.NoteOnEvent(tick=6, channel=10, data=[72, 70]),
   midi.NoteOffEvent(tick=360, channel=10, data=[72, 64]),
   midi.NoteOnEvent(tick=0, channel=10, data=[71, 70]),
   midi.NoteOffEvent(tick=96, channel=10, data=[71, 64]),
   midi.NoteOnEvent(tick=24, channel=10, data=[71, 70]),
   midi.NoteOffEvent(tick=30, channel=10, data=[71, 64]),
   midi.NoteOnEvent(tick=0, channel=10, data=[69, 70]),
   midi.NoteOffEvent(tick=59, channel=10, data=[69, 64]),
   midi.NoteOnEvent(tick=31, channel=10, data=[69, 70]),
   midi.NoteOffEvent(tick=60, channel=10, data=[69, 64]),
   midi.NoteOnEvent(tick=60, channel=10, data=[71, 70]),
   midi.NoteOffEvent(tick=30, channel=10, data=[71, 64]),
   midi.NoteOnEvent(tick=0, channel=10, data=[69, 70]),
   midi.NoteOffEvent(tick=59, channel=10, data=[69, 64]),
   midi.NoteOnEvent(tick=31, channel=10, data=[69, 70]),
   midi.NoteOffEvent(tick=60, channel=10, data=[69, 64]),
   midi.NoteOnEvent(tick=60, channel=10, data=[71, 70]),
   midi.NoteOffEvent(tick=30, channel=10, data=[71, 64]),
   midi.NoteOnEvent(tick=0, channel=10, data=[69, 70]),
   midi.NoteOffEvent(tick=59, channel=10, data=[69, 64]),
   midi.NoteOnEvent(tick=31, channel=10, data=[69, 70]),
   midi.NoteOffEvent(tick=60, channel=10, data=[69, 64]),
   midi.NoteOnEvent(tick=60, channel=10, data=[69, 70]),
   midi.NoteOffEvent(tick=60, channel=10, data=[69, 64]),
   midi.NoteOnEvent(tick=0, channel=10, data=[71, 70]),
   midi.NoteOffEvent(tick=60, channel=10, data=[71, 64]),
   midi.NoteOnEvent(tick=0, channel=10, data=[69, 70]),
   midi.NoteOffEvent(tick=60, channel=10, data=[69, 64]),
   midi.NoteOnEvent(tick=0, channel=10, data=[71, 70]),
   midi.NoteOffEvent(tick=60, channel=10, data=[71, 64]),
   midi.NoteOnEvent(tick=0, channel=10, data=[69, 70]),
   midi.NoteOffEvent(tick=36, channel=10, data=[69, 64]),
   midi.NoteOnEvent(tick=24, channel=10, data=[74, 70]),
   midi.NoteOffEvent(tick=36, channel=10, data=[74, 64]),
   midi.NoteOnEvent(tick=24, channel=10, data=[76, 70]),
   midi.NoteOffEvent(tick=36, channel=10, data=[76, 64]),
   midi.NoteOnEvent(tick=24, channel=10, data=[78, 70]),
   midi.NoteOffEvent(tick=36, channel=10, data=[78, 64]),
   midi.NoteOnEvent(tick=24, channel=10, data=[79, 70]),
   midi.NoteOffEvent(tick=36, channel=10, data=[79, 64]),
   midi.NoteOnEvent(tick=24, channel=10, data=[81, 70]),
   midi.NoteOffEvent(tick=36, channel=10, data=[81, 64]),
   midi.NoteOnEvent(tick=24, channel=10, data=[83, 70]),
   midi.NoteOffEvent(tick=36, channel=10, data=[83, 64]),
   midi.NoteOnEvent(tick=24, channel=10, data=[84, 70]),
   midi.NoteOffEvent(tick=36, channel=10, data=[84, 64]),
   midi.NoteOnEvent(tick=24, channel=10, data=[83, 70]),
   midi.NoteOffEvent(tick=144, channel=10, data=[83, 64]),
   midi.NoteOnEvent(tick=36, channel=10, data=[84, 70]),
   midi.NoteOffEvent(tick=48, channel=10, data=[84, 64]),
   midi.NoteOnEvent(tick=12, channel=10, data=[86, 70]),
   midi.NoteOffEvent(tick=120, channel=10, data=[86, 64]),
   midi.NoteOnEvent(tick=0, channel=10, data=[88, 70]),
   midi.NoteOffEvent(tick=120, channel=10, data=[88, 64]),
   midi.NoteOnEvent(tick=0, channel=10, data=[81, 70]),
   midi.NoteOffEvent(tick=120, channel=10, data=[81, 64]),
   midi.NoteOnEvent(tick=0, channel=10, data=[86, 70]),
   midi.NoteOffEvent(tick=96, channel=10, data=[86, 64]),
   midi.NoteOnEvent(tick=24, channel=10, data=[79, 70]),
   midi.NoteOffEvent(tick=144, channel=10, data=[79, 64]),
   midi.NoteOnEvent(tick=36, channel=10, data=[81, 70]),
   midi.NoteOffEvent(tick=24, channel=10, data=[81, 64]),
   midi.NoteOnEvent(tick=6, channel=10, data=[83, 70]),
   midi.NoteOffEvent(tick=24, channel=10, data=[83, 64]),
   midi.NoteOnEvent(tick=6, channel=10, data=[84, 70]),
   midi.NoteOffEvent(tick=360, channel=10, data=[84, 64]),
   midi.NoteOnEvent(tick=0, channel=10, data=[83, 70]),
   midi.NoteOffEvent(tick=96, channel=10, data=[83, 64]),
   midi.NoteOnEvent(tick=24, channel=10, data=[88, 70]),
   midi.NoteOffEvent(tick=96, channel=10, data=[88, 64]),
   midi.NoteOnEvent(tick=24, channel=10, data=[88, 70]),
   midi.NoteOffEvent(tick=48, channel=10, data=[88, 64]),
   midi.NoteOnEvent(tick=12, channel=10, data=[87, 70]),
   midi.NoteOffEvent(tick=48, channel=10, data=[87, 64]),
   midi.NoteOnEvent(tick=12, channel=10, data=[88, 70]),
   midi.NoteOffEvent(tick=288, channel=10, data=[88, 64]),
   midi.NoteOnEvent(tick=72, channel=10, data=[84, 70]),
   midi.NoteOffEvent(tick=60, channel=10, data=[84, 64]),
   midi.NoteOnEvent(tick=0, channel=10, data=[81, 70]),
   midi.NoteOffEvent(tick=48, channel=10, data=[81, 64]),
   midi.NoteOnEvent(tick=12, channel=10, data=[86, 70]),
   midi.NoteOffEvent(tick=96, channel=10, data=[86, 64]),
   midi.NoteOnEvent(tick=24, channel=10, data=[86, 70]),
   midi.NoteOffEvent(tick=48, channel=10, data=[86, 64]),
   midi.NoteOnEvent(tick=12, channel=10, data=[85, 70]),
   midi.NoteOffEvent(tick=48, channel=10, data=[85, 64]),
   midi.NoteOnEvent(tick=12, channel=10, data=[86, 70]),
   midi.NoteOffEvent(tick=300, channel=10, data=[86, 64]),
   midi.NoteOnEvent(tick=0, channel=10, data=[84, 70]),
   midi.NoteOffEvent(tick=60, channel=10, data=[84, 64]),
   midi.NoteOnEvent(tick=0, channel=10, data=[83, 70]),
   midi.NoteOffEvent(tick=60, channel=10, data=[83, 64]),
   midi.NoteOnEvent(tick=0, channel=10, data=[81, 70]),
   midi.NoteOffEvent(tick=48, channel=10, data=[81, 64]),
   midi.NoteOnEvent(tick=12, channel=10, data=[79, 70]),
   midi.NoteOffEvent(tick=60, channel=10, data=[79, 64]),
   midi.NoteOnEvent(tick=0, channel=10, data=[81, 70]),
   midi.NoteOffEvent(tick=60, channel=10, data=[81, 64]),
   midi.NoteOnEvent(tick=0, channel=10, data=[83, 70]),
   midi.NoteOffEvent(tick=60, channel=10, data=[83, 64]),
   midi.NoteOnEvent(tick=0, channel=10, data=[79, 70]),
   midi.NoteOffEvent(tick=60, channel=10, data=[79, 64]),
   midi.NoteOnEvent(tick=0, channel=10, data=[81, 70]),
   midi.NoteOffEvent(tick=60, channel=10, data=[81, 64]),
   midi.NoteOnEvent(tick=0, channel=10, data=[83, 70]),
   midi.NoteOffEvent(tick=60, channel=10, data=[83, 64]),
   midi.NoteOnEvent(tick=0, channel=10, data=[84, 70]),
   midi.NoteOffEvent(tick=60, channel=10, data=[84, 64]),
   midi.NoteOnEvent(tick=0, channel=10, data=[81, 70]),
   midi.NoteOffEvent(tick=60, channel=10, data=[81, 64]),
   midi.NoteOnEvent(tick=0, channel=10, data=[78, 70]),
   midi.NoteOffEvent(tick=60, channel=10, data=[78, 64]),
   midi.NoteOnEvent(tick=0, channel=10, data=[79, 70]),
   midi.NoteOffEvent(tick=60, channel=10, data=[79, 64]),
   midi.NoteOnEvent(tick=0, channel=10, data=[81, 70]),
   midi.NoteOffEvent(tick=60, channel=10, data=[81, 64]),
   midi.NoteOnEvent(tick=0, channel=10, data=[78, 70]),
   midi.NoteOffEvent(tick=48, channel=10, data=[78, 64]),
   midi.NoteOnEvent(tick=12, channel=10, data=[79, 90]),
   midi.NoteOffEvent(tick=288, channel=10, data=[79, 64]),
   midi.NoteOnEvent(tick=72, channel=10, data=[79, 70]),
   midi.NoteOffEvent(tick=60, channel=10, data=[79, 64]),
   midi.NoteOnEvent(tick=0, channel=10, data=[78, 70]),
   midi.NoteOffEvent(tick=60, channel=10, data=[78, 64]),
   midi.NoteOnEvent(tick=0, channel=10, data=[79, 70]),
   midi.NoteOffEvent(tick=60, channel=10, data=[79, 64]),
   midi.NoteOnEvent(tick=0, channel=10, data=[78, 70]),
   midi.NoteOffEvent(tick=60, channel=10, data=[78, 64]),
   midi.NoteOnEvent(tick=0, channel=10, data=[76, 70]),
   midi.NoteOffEvent(tick=60, channel=10, data=[76, 64]),
   midi.NoteOnEvent(tick=0, channel=10, data=[74, 70]),
   midi.NoteOffEvent(tick=48, channel=10, data=[74, 64]),
   midi.NoteOnEvent(tick=12, channel=10, data=[74, 70]),
   midi.NoteOffEvent(tick=60, channel=10, data=[74, 64]),
   midi.NoteOnEvent(tick=0, channel=10, data=[72, 70]),
   midi.NoteOffEvent(tick=48, channel=10, data=[72, 64]),
   midi.NoteOnEvent(tick=12, channel=10, data=[72, 70]),
   midi.NoteOffEvent(tick=192, channel=10, data=[72, 64]),
   midi.NoteOnEvent(tick=48, channel=10, data=[74, 70]),
   midi.NoteOffEvent(tick=60, channel=10, data=[74, 64]),
   midi.NoteOnEvent(tick=0, channel=10, data=[72, 70]),
   midi.NoteOffEvent(tick=60, channel=10, data=[72, 64]),
   midi.NoteOnEvent(tick=0, channel=10, data=[74, 70]),
   midi.NoteOffEvent(tick=60, channel=10, data=[74, 64]),
   midi.NoteOnEvent(tick=0, channel=10, data=[72, 70]),
   midi.NoteOffEvent(tick=60, channel=10, data=[72, 64]),
   midi.NoteOnEvent(tick=0, channel=10, data=[71, 70]),
   midi.NoteOffEvent(tick=60, channel=10, data=[71, 64]),
   midi.NoteOnEvent(tick=0, channel=10, data=[69, 70]),
   midi.NoteOffEvent(tick=48, channel=10, data=[69, 64]),
   midi.NoteOnEvent(tick=12, channel=10, data=[55, 70]),
   midi.NoteOnEvent(tick=0, channel=10, data=[67, 90]),
   midi.NoteOffEvent(tick=288, channel=10, data=[67, 64]),
   midi.NoteOffEvent(tick=0, channel=10, data=[55, 64]),
   midi.NoteOnEvent(tick=72, channel=10, data=[79, 70]),
   midi.NoteOffEvent(tick=60, channel=10, data=[79, 64]),
   midi.NoteOnEvent(tick=0, channel=10, data=[78, 70]),
   midi.NoteOffEvent(tick=60, channel=10, data=[78, 64]),
   midi.NoteOnEvent(tick=0, channel=10, data=[79, 70]),
   midi.NoteOffEvent(tick=60, channel=10, data=[79, 64]),
   midi.NoteOnEvent(tick=0, channel=10, data=[78, 70]),
   midi.NoteOffEvent(tick=60, channel=10, data=[78, 64]),
   midi.NoteOnEvent(tick=0, channel=10, data=[76, 70]),
   midi.NoteOffEvent(tick=60, channel=10, data=[76, 64]),
   midi.NoteOnEvent(tick=0, channel=10, data=[74, 70]),
   midi.NoteOffEvent(tick=48, channel=10, data=[74, 64]),
   midi.NoteOnEvent(tick=12, channel=10, data=[74, 70]),
   midi.NoteOffEvent(tick=60, channel=10, data=[74, 64]),
   midi.NoteOnEvent(tick=0, channel=10, data=[72, 70]),
   midi.NoteOffEvent(tick=48, channel=10, data=[72, 64]),
   midi.NoteOnEvent(tick=12, channel=10, data=[72, 70]),
   midi.NoteOffEvent(tick=192, channel=10, data=[72, 64]),
   midi.NoteOnEvent(tick=48, channel=10, data=[74, 70]),
   midi.NoteOffEvent(tick=60, channel=10, data=[74, 64]),
   midi.NoteOnEvent(tick=0, channel=10, data=[72, 70]),
   midi.NoteOffEvent(tick=60, channel=10, data=[72, 64]),
   midi.NoteOnEvent(tick=0, channel=10, data=[74, 70]),
   midi.NoteOffEvent(tick=60, channel=10, data=[74, 64]),
   midi.NoteOnEvent(tick=0, channel=10, data=[72, 70]),
   midi.NoteOffEvent(tick=60, channel=10, data=[72, 64]),
   midi.NoteOnEvent(tick=0, channel=10, data=[71, 70]),
   midi.NoteOffEvent(tick=60, channel=10, data=[71, 64]),
   midi.NoteOnEvent(tick=0, channel=10, data=[69, 70]),
   midi.NoteOffEvent(tick=48, channel=10, data=[69, 64]),
   midi.NoteOnEvent(tick=12, channel=10, data=[67, 70]),
   midi.NoteOffEvent(tick=96, channel=10, data=[67, 64]),
   midi.NoteOnEvent(tick=24, channel=10, data=[71, 70]),
   midi.NoteOffEvent(tick=96, channel=10, data=[71, 64]),
   midi.NoteOnEvent(tick=24, channel=10, data=[72, 58]),
   midi.NoteOffEvent(tick=15, channel=10, data=[72, 64]),
   midi.NoteOnEvent(tick=0, channel=10, data=[71, 58]),
   midi.NoteOffEvent(tick=15, channel=10, data=[71, 64]),
   midi.NoteOnEvent(tick=0, channel=10, data=[72, 58]),
   midi.NoteOffEvent(tick=15, channel=10, data=[72, 64]),
   midi.NoteOnEvent(tick=0, channel=10, data=[71, 58]),
   midi.NoteOffEvent(tick=15, channel=10, data=[71, 64]),
   midi.NoteOnEvent(tick=0, channel=10, data=[72, 58]),
   midi.NoteOffEvent(tick=15, channel=10, data=[72, 64]),
   midi.NoteOnEvent(tick=0, channel=10, data=[71, 58]),
   midi.NoteOffEvent(tick=15, channel=10, data=[71, 64]),
   midi.NoteOnEvent(tick=0, channel=10, data=[72, 58]),
   midi.NoteOffEvent(tick=15, channel=10, data=[72, 64]),
   midi.NoteOnEvent(tick=0, channel=10, data=[71, 58]),
   midi.NoteOffEvent(tick=15, channel=10, data=[71, 64]),
   midi.NoteOnEvent(tick=0, channel=10, data=[72, 58]),
   midi.NoteOffEvent(tick=15, channel=10, data=[72, 64]),
   midi.NoteOnEvent(tick=0, channel=10, data=[71, 58]),
   midi.NoteOffEvent(tick=15, channel=10, data=[71, 64]),
   midi.NoteOnEvent(tick=0, channel=10, data=[72, 58]),
   midi.NoteOffEvent(tick=15, channel=10, data=[72, 64]),
   midi.NoteOnEvent(tick=0, channel=10, data=[71, 58]),
   midi.NoteOffEvent(tick=15, channel=10, data=[71, 64]),
   midi.NoteOnEvent(tick=0, channel=10, data=[69, 58]),
   midi.NoteOffEvent(tick=30, channel=10, data=[69, 64]),
   midi.NoteOnEvent(tick=0, channel=10, data=[71, 58]),
   midi.NoteOffEvent(tick=24, channel=10, data=[71, 64]),
   midi.NoteOnEvent(tick=6, channel=10, data=[74, 58]),
   midi.NoteOffEvent(tick=15, channel=10, data=[74, 64]),
   midi.NoteOnEvent(tick=0, channel=10, data=[72, 58]),
   midi.NoteOffEvent(tick=15, channel=10, data=[72, 64]),
   midi.NoteOnEvent(tick=0, channel=10, data=[74, 58]),
   midi.NoteOffEvent(tick=15, channel=10, data=[74, 64]),
   midi.NoteOnEvent(tick=0, channel=10, data=[72, 58]),
   midi.NoteOffEvent(tick=15, channel=10, data=[72, 64]),
   midi.NoteOnEvent(tick=0, channel=10, data=[74, 58]),
   midi.NoteOffEvent(tick=15, channel=10, data=[74, 64]),
   midi.NoteOnEvent(tick=0, channel=10, data=[72, 58]),
   midi.NoteOffEvent(tick=15, channel=10, data=[72, 64]),
   midi.NoteOnEvent(tick=0, channel=10, data=[74, 58]),
   midi.NoteOffEvent(tick=15, channel=10, data=[74, 64]),
   midi.NoteOnEvent(tick=0, channel=10, data=[72, 58]),
   midi.NoteOffEvent(tick=15, channel=10, data=[72, 64]),
   midi.NoteOnEvent(tick=0, channel=10, data=[74, 58]),
   midi.NoteOffEvent(tick=15, channel=10, data=[74, 64]),
   midi.NoteOnEvent(tick=0, channel=10, data=[72, 58]),
   midi.NoteOffEvent(tick=15, channel=10, data=[72, 64]),
   midi.NoteOnEvent(tick=0, channel=10, data=[74, 58]),
   midi.NoteOffEvent(tick=15, channel=10, data=[74, 64]),
   midi.NoteOnEvent(tick=0, channel=10, data=[72, 58]),
   midi.NoteOffEvent(tick=15, channel=10, data=[72, 64]),
   midi.NoteOnEvent(tick=0, channel=10, data=[71, 58]),
   midi.NoteOffEvent(tick=30, channel=10, data=[71, 64]),
   midi.NoteOnEvent(tick=0, channel=10, data=[72, 58]),
   midi.NoteOffEvent(tick=24, channel=10, data=[72, 64]),
   midi.NoteOnEvent(tick=6, channel=10, data=[76, 70]),
   midi.NoteOffEvent(tick=15, channel=10, data=[76, 64]),
   midi.NoteOnEvent(tick=0, channel=10, data=[74, 70]),
   midi.NoteOffEvent(tick=15, channel=10, data=[74, 64]),
   midi.NoteOnEvent(tick=0, channel=10, data=[76, 70]),
   midi.NoteOffEvent(tick=15, channel=10, data=[76, 64]),
   midi.NoteOnEvent(tick=0, channel=10, data=[74, 70]),
   midi.NoteOffEvent(tick=15, channel=10, data=[74, 64]),
   midi.NoteOnEvent(tick=0, channel=10, data=[76, 70]),
   midi.NoteOffEvent(tick=15, channel=10, data=[76, 64]),
   midi.NoteOnEvent(tick=0, channel=10, data=[74, 70]),
   midi.NoteOffEvent(tick=15, channel=10, data=[74, 64]),
   midi.NoteOnEvent(tick=0, channel=10, data=[76, 70]),
   midi.NoteOffEvent(tick=15, channel=10, data=[76, 64]),
   midi.NoteOnEvent(tick=0, channel=10, data=[74, 70]),
   midi.NoteOffEvent(tick=15, channel=10, data=[74, 64]),
   midi.NoteOnEvent(tick=0, channel=10, data=[76, 70]),
   midi.NoteOffEvent(tick=15, channel=10, data=[76, 64]),
   midi.NoteOnEvent(tick=0, channel=10, data=[74, 70]),
   midi.NoteOffEvent(tick=15, channel=10, data=[74, 64]),
   midi.NoteOnEvent(tick=0, channel=10, data=[76, 70]),
   midi.NoteOffEvent(tick=15, channel=10, data=[76, 64]),
   midi.NoteOnEvent(tick=0, channel=10, data=[74, 70]),
   midi.NoteOffEvent(tick=15, channel=10, data=[74, 64]),
   midi.NoteOnEvent(tick=0, channel=10, data=[72, 70]),
   midi.NoteOffEvent(tick=30, channel=10, data=[72, 64]),
   midi.NoteOnEvent(tick=0, channel=10, data=[74, 70]),
   midi.NoteOffEvent(tick=24, channel=10, data=[74, 64]),
   midi.NoteOnEvent(tick=6, channel=10, data=[78, 70]),
   midi.NoteOffEvent(tick=15, channel=10, data=[78, 64]),
   midi.NoteOnEvent(tick=0, channel=10, data=[76, 70]),
   midi.NoteOffEvent(tick=15, channel=10, data=[76, 64]),
   midi.NoteOnEvent(tick=0, channel=10, data=[78, 70]),
   midi.NoteOffEvent(tick=15, channel=10, data=[78, 64]),
   midi.NoteOnEvent(tick=0, channel=10, data=[76, 70]),
   midi.NoteOffEvent(tick=15, channel=10, data=[76, 64]),
   midi.NoteOnEvent(tick=0, channel=10, data=[78, 70]),
   midi.NoteOffEvent(tick=15, channel=10, data=[78, 64]),
   midi.NoteOnEvent(tick=0, channel=10, data=[76, 70]),
   midi.NoteOffEvent(tick=15, channel=10, data=[76, 64]),
   midi.NoteOnEvent(tick=0, channel=10, data=[78, 70]),
   midi.NoteOffEvent(tick=15, channel=10, data=[78, 64]),
   midi.NoteOnEvent(tick=0, channel=10, data=[76, 70]),
   midi.NoteOffEvent(tick=15, channel=10, data=[76, 64]),
   midi.NoteOnEvent(tick=0, channel=10, data=[78, 70]),
   midi.NoteOffEvent(tick=15, channel=10, data=[78, 64]),
   midi.NoteOnEvent(tick=0, channel=10, data=[76, 70]),
   midi.NoteOffEvent(tick=15, channel=10, data=[76, 64]),
   midi.NoteOnEvent(tick=0, channel=10, data=[78, 70]),
   midi.NoteOffEvent(tick=15, channel=10, data=[78, 64]),
   midi.NoteOnEvent(tick=0, channel=10, data=[76, 70]),
   midi.NoteOffEvent(tick=15, channel=10, data=[76, 64]),
   midi.NoteOnEvent(tick=0, channel=10, data=[74, 80]),
   midi.NoteOffEvent(tick=30, channel=10, data=[74, 64]),
   midi.NoteOnEvent(tick=0, channel=10, data=[76, 80]),
   midi.NoteOffEvent(tick=24, channel=10, data=[76, 64]),
   midi.NoteOnEvent(tick=6, channel=10, data=[79, 80]),
   midi.NoteOffEvent(tick=15, channel=10, data=[79, 64]),
   midi.NoteOnEvent(tick=0, channel=10, data=[78, 80]),
   midi.NoteOffEvent(tick=15, channel=10, data=[78, 64]),
   midi.NoteOnEvent(tick=0, channel=10, data=[79, 80]),
   midi.NoteOffEvent(tick=15, channel=10, data=[79, 64]),
   midi.NoteOnEvent(tick=0, channel=10, data=[78, 80]),
   midi.NoteOffEvent(tick=15, channel=10, data=[78, 64]),
   midi.NoteOnEvent(tick=0, channel=10, data=[79, 80]),
   midi.NoteOffEvent(tick=15, channel=10, data=[79, 64]),
   midi.NoteOnEvent(tick=0, channel=10, data=[78, 80]),
   midi.NoteOffEvent(tick=15, channel=10, data=[78, 64]),
   midi.NoteOnEvent(tick=0, channel=10, data=[79, 80]),
   midi.NoteOffEvent(tick=15, channel=10, data=[79, 64]),
   midi.NoteOnEvent(tick=0, channel=10, data=[78, 80]),
   midi.NoteOffEvent(tick=15, channel=10, data=[78, 64]),
   midi.NoteOnEvent(tick=0, channel=10, data=[79, 80]),
   midi.NoteOffEvent(tick=15, channel=10, data=[79, 64]),
   midi.NoteOnEvent(tick=0, channel=10, data=[78, 80]),
   midi.NoteOffEvent(tick=15, channel=10, data=[78, 64]),
   midi.NoteOnEvent(tick=0, channel=10, data=[79, 80]),
   midi.NoteOffEvent(tick=15, channel=10, data=[79, 64]),
   midi.NoteOnEvent(tick=0, channel=10, data=[78, 80]),
   midi.NoteOffEvent(tick=15, channel=10, data=[78, 64]),
   midi.NoteOnEvent(tick=0, channel=10, data=[76, 80]),
   midi.NoteOffEvent(tick=30, channel=10, data=[76, 64]),
   midi.NoteOnEvent(tick=0, channel=10, data=[78, 80]),
   midi.NoteOffEvent(tick=24, channel=10, data=[78, 64]),
   midi.NoteOnEvent(tick=6, channel=10, data=[81, 80]),
   midi.NoteOffEvent(tick=15, channel=10, data=[81, 64]),
   midi.NoteOnEvent(tick=0, channel=10, data=[79, 80]),
   midi.NoteOffEvent(tick=15, channel=10, data=[79, 64]),
   midi.NoteOnEvent(tick=0, channel=10, data=[81, 80]),
   midi.NoteOffEvent(tick=15, channel=10, data=[81, 64]),
   midi.NoteOnEvent(tick=0, channel=10, data=[79, 80]),
   midi.NoteOffEvent(tick=15, channel=10, data=[79, 64]),
   midi.NoteOnEvent(tick=0, channel=10, data=[81, 80]),
   midi.NoteOffEvent(tick=15, channel=10, data=[81, 64]),
   midi.NoteOnEvent(tick=0, channel=10, data=[79, 80]),
   midi.NoteOffEvent(tick=15, channel=10, data=[79, 64]),
   midi.NoteOnEvent(tick=0, channel=10, data=[81, 80]),
   midi.NoteOffEvent(tick=15, channel=10, data=[81, 64]),
   midi.NoteOnEvent(tick=0, channel=10, data=[79, 80]),
   midi.NoteOffEvent(tick=15, channel=10, data=[79, 64]),
   midi.NoteOnEvent(tick=0, channel=10, data=[81, 80]),
   midi.NoteOffEvent(tick=15, channel=10, data=[81, 64]),
   midi.NoteOnEvent(tick=0, channel=10, data=[79, 80]),
   midi.NoteOffEvent(tick=15, channel=10, data=[79, 64]),
   midi.NoteOnEvent(tick=0, channel=10, data=[81, 80]),
   midi.NoteOffEvent(tick=15, channel=10, data=[81, 64]),
   midi.NoteOnEvent(tick=0, channel=10, data=[79, 80]),
   midi.NoteOffEvent(tick=15, channel=10, data=[79, 64]),
   midi.NoteOnEvent(tick=0, channel=10, data=[78, 92]),
   midi.NoteOffEvent(tick=30, channel=10, data=[78, 64]),
   midi.NoteOnEvent(tick=0, channel=10, data=[79, 92]),
   midi.NoteOffEvent(tick=24, channel=10, data=[79, 64]),
   midi.NoteOnEvent(tick=6, channel=10, data=[83, 92]),
   midi.NoteOffEvent(tick=15, channel=10, data=[83, 64]),
   midi.NoteOnEvent(tick=0, channel=10, data=[81, 92]),
   midi.NoteOffEvent(tick=15, channel=10, data=[81, 64]),
   midi.NoteOnEvent(tick=0, channel=10, data=[83, 92]),
   midi.NoteOffEvent(tick=15, channel=10, data=[83, 64]),
   midi.NoteOnEvent(tick=0, channel=10, data=[81, 92]),
   midi.NoteOffEvent(tick=15, channel=10, data=[81, 64]),
   midi.NoteOnEvent(tick=0, channel=10, data=[83, 92]),
   midi.NoteOffEvent(tick=15, channel=10, data=[83, 64]),
   midi.NoteOnEvent(tick=0, channel=10, data=[81, 92]),
   midi.NoteOffEvent(tick=15, channel=10, data=[81, 64]),
   midi.NoteOnEvent(tick=0, channel=10, data=[83, 92]),
   midi.NoteOffEvent(tick=15, channel=10, data=[83, 64]),
   midi.NoteOnEvent(tick=0, channel=10, data=[81, 92]),
   midi.NoteOffEvent(tick=15, channel=10, data=[81, 64]),
   midi.NoteOnEvent(tick=0, channel=10, data=[83, 92]),
   midi.NoteOffEvent(tick=15, channel=10, data=[83, 64]),
   midi.NoteOnEvent(tick=0, channel=10, data=[81, 92]),
   midi.NoteOffEvent(tick=15, channel=10, data=[81, 64]),
   midi.NoteOnEvent(tick=0, channel=10, data=[83, 92]),
   midi.NoteOffEvent(tick=15, channel=10, data=[83, 64]),
   midi.NoteOnEvent(tick=0, channel=10, data=[81, 92]),
   midi.NoteOffEvent(tick=15, channel=10, data=[81, 64]),
   midi.NoteOnEvent(tick=0, channel=10, data=[79, 105]),
   midi.NoteOffEvent(tick=30, channel=10, data=[79, 64]),
   midi.NoteOnEvent(tick=0, channel=10, data=[81, 105]),
   midi.NoteOffEvent(tick=24, channel=10, data=[81, 64]),
   midi.NoteOnEvent(tick=6, channel=10, data=[84, 105]),
   midi.NoteOffEvent(tick=12, channel=10, data=[84, 64]),
   midi.NoteOnEvent(tick=3, channel=10, data=[83, 105]),
   midi.NoteOffEvent(tick=12, channel=10, data=[83, 64]),
   midi.NoteOnEvent(tick=3, channel=10, data=[84, 105]),
   midi.NoteOffEvent(tick=12, channel=10, data=[84, 64]),
   midi.NoteOnEvent(tick=3, channel=10, data=[83, 105]),
   midi.NoteOffEvent(tick=12, channel=10, data=[83, 64]),
   midi.NoteOnEvent(tick=3, channel=10, data=[84, 105]),
   midi.NoteOffEvent(tick=12, channel=10, data=[84, 64]),
   midi.NoteOnEvent(tick=3, channel=10, data=[83, 105]),
   midi.NoteOffEvent(tick=12, channel=10, data=[83, 64]),
   midi.NoteOnEvent(tick=3, channel=10, data=[84, 105]),
   midi.NoteOffEvent(tick=12, channel=10, data=[84, 64]),
   midi.NoteOnEvent(tick=3, channel=10, data=[83, 105]),
   midi.NoteOffEvent(tick=12, channel=10, data=[83, 64]),
   midi.NoteOnEvent(tick=3, channel=10, data=[84, 105]),
   midi.NoteOffEvent(tick=12, channel=10, data=[84, 64]),
   midi.NoteOnEvent(tick=3, channel=10, data=[83, 105]),
   midi.NoteOffEvent(tick=12, channel=10, data=[83, 64]),
   midi.NoteOnEvent(tick=3, channel=10, data=[84, 105]),
   midi.NoteOffEvent(tick=12, channel=10, data=[84, 64]),
   midi.NoteOnEvent(tick=3, channel=10, data=[83, 105]),
   midi.NoteOffEvent(tick=12, channel=10, data=[83, 64]),
   midi.NoteOnEvent(tick=3, channel=10, data=[81, 105]),
   midi.NoteOffEvent(tick=24, channel=10, data=[81, 64]),
   midi.NoteOnEvent(tick=6, channel=10, data=[83, 105]),
   midi.NoteOffEvent(tick=24, channel=10, data=[83, 64]),
   midi.NoteOnEvent(tick=6, channel=10, data=[84, 105]),
   midi.NoteOffEvent(tick=192, channel=10, data=[84, 64]),
   midi.NoteOnEvent(tick=168, channel=10, data=[69, 70]),
   midi.NoteOffEvent(tick=60, channel=10, data=[69, 64]),
   midi.NoteOnEvent(tick=0, channel=10, data=[72, 70]),
   midi.NoteOffEvent(tick=60, channel=10, data=[72, 64]),
   midi.NoteOnEvent(tick=0, channel=10, data=[76, 70]),
   midi.NoteOffEvent(tick=78, channel=10, data=[76, 64]),
   midi.NoteOnEvent(tick=42, channel=10, data=[66, 70]),
   midi.NoteOffEvent(tick=78, channel=10, data=[66, 64]),
   midi.NoteOnEvent(tick=42, channel=10, data=[66, 70]),
   midi.NoteOffEvent(tick=480, channel=10, data=[66, 64]),
   midi.NoteOnEvent(tick=0, channel=10, data=[67, 70]),
   midi.NoteOffEvent(tick=120, channel=10, data=[67, 64]),
   midi.EndOfTrackEvent(tick=0, data=[])]),
 midi.Track(\
  [midi.ProgramChangeEvent(tick=0, channel=11, data=[48]),
   midi.ControlChangeEvent(tick=0, channel=11, data=[7, 123]),
   midi.ControlChangeEvent(tick=0, channel=11, data=[10, 40]),
   midi.ControlChangeEvent(tick=0, channel=11, data=[91, 70]),
   midi.NoteOnEvent(tick=600, channel=11, data=[62, 70]),
   midi.NoteOffEvent(tick=60, channel=11, data=[62, 64]),
   midi.NoteOnEvent(tick=0, channel=11, data=[59, 70]),
   midi.NoteOffEvent(tick=48, channel=11, data=[59, 64]),
   midi.NoteOnEvent(tick=12, channel=11, data=[55, 70]),
   midi.NoteOffEvent(tick=144, channel=11, data=[55, 64]),
   midi.NoteOnEvent(tick=36, channel=11, data=[57, 70]),
   midi.NoteOffEvent(tick=48, channel=11, data=[57, 64]),
   midi.NoteOnEvent(tick=12, channel=11, data=[59, 70]),
   midi.NoteOffEvent(tick=72, channel=11, data=[59, 64]),
   midi.NoteOnEvent(tick=48, channel=11, data=[59, 70]),
   midi.NoteOffEvent(tick=72, channel=11, data=[59, 64]),
   midi.NoteOnEvent(tick=48, channel=11, data=[59, 70]),
   midi.NoteOffEvent(tick=72, channel=11, data=[59, 64]),
   midi.NoteOnEvent(tick=48, channel=11, data=[59, 70]),
   midi.NoteOffEvent(tick=72, channel=11, data=[59, 64]),
   midi.NoteOnEvent(tick=48, channel=11, data=[62, 70]),
   midi.NoteOffEvent(tick=60, channel=11, data=[62, 64]),
   midi.NoteOnEvent(tick=0, channel=11, data=[60, 70]),
   midi.NoteOffEvent(tick=48, channel=11, data=[60, 64]),
   midi.NoteOnEvent(tick=12, channel=11, data=[59, 70]),
   midi.NoteOffEvent(tick=48, channel=11, data=[59, 64]),
   midi.NoteOnEvent(tick=12, channel=11, data=[57, 70]),
   midi.NoteOffEvent(tick=48, channel=11, data=[57, 64]),
   midi.NoteOnEvent(tick=12, channel=11, data=[62, 70]),
   midi.NoteOffEvent(tick=360, channel=11, data=[62, 64]),
   midi.NoteOnEvent(tick=0, channel=11, data=[60, 70]),
   midi.NoteOffEvent(tick=96, channel=11, data=[60, 64]),
   midi.NoteOnEvent(tick=24, channel=11, data=[60, 70]),
   midi.NoteOffEvent(tick=240, channel=11, data=[60, 64]),
   midi.NoteOnEvent(tick=0, channel=11, data=[59, 70]),
   midi.NoteOffEvent(tick=36, channel=11, data=[59, 64]),
   midi.NoteOnEvent(tick=24, channel=11, data=[55, 70]),
   midi.NoteOffEvent(tick=36, channel=11, data=[55, 64]),
   midi.NoteOnEvent(tick=24, channel=11, data=[59, 70]),
   midi.NoteOffEvent(tick=36, channel=11, data=[59, 64]),
   midi.NoteOnEvent(tick=24, channel=11, data=[62, 70]),
   midi.NoteOffEvent(tick=36, channel=11, data=[62, 64]),
   midi.NoteOnEvent(tick=24, channel=11, data=[60, 70]),
   midi.NoteOffEvent(tick=36, channel=11, data=[60, 64]),
   midi.NoteOnEvent(tick=24, channel=11, data=[57, 70]),
   midi.NoteOffEvent(tick=36, channel=11, data=[57, 64]),
   midi.NoteOnEvent(tick=24, channel=11, data=[60, 70]),
   midi.NoteOffEvent(tick=36, channel=11, data=[60, 64]),
   midi.NoteOnEvent(tick=24, channel=11, data=[64, 70]),
   midi.NoteOffEvent(tick=36, channel=11, data=[64, 64]),
   midi.NoteOnEvent(tick=24, channel=11, data=[64, 70]),
   midi.NoteOffEvent(tick=240, channel=11, data=[64, 64]),
   midi.NoteOnEvent(tick=0, channel=11, data=[62, 58]),
   midi.NoteOffEvent(tick=96, channel=11, data=[62, 64]),
   midi.NoteOnEvent(tick=744, channel=11, data=[69, 58]),
   midi.NoteOffEvent(tick=72, channel=11, data=[69, 64]),
   midi.NoteOnEvent(tick=48, channel=11, data=[71, 58]),
   midi.NoteOffEvent(tick=72, channel=11, data=[71, 64]),
   midi.NoteOnEvent(tick=48, channel=11, data=[71, 58]),
   midi.NoteOffEvent(tick=72, channel=11, data=[71, 64]),
   midi.NoteOnEvent(tick=48, channel=11, data=[66, 58]),
   midi.NoteOffEvent(tick=240, channel=11, data=[66, 64]),
   midi.NoteOnEvent(tick=0, channel=11, data=[64, 58]),
   midi.NoteOffEvent(tick=192, channel=11, data=[64, 64]),
   midi.NoteOnEvent(tick=288, channel=11, data=[62, 58]),
   midi.NoteOffEvent(tick=192, channel=11, data=[62, 64]),
   midi.NoteOnEvent(tick=48, channel=11, data=[62, 58]),
   midi.NoteOffEvent(tick=48, channel=11, data=[62, 64]),
   midi.NoteOnEvent(tick=12, channel=11, data=[66, 58]),
   midi.NoteOffEvent(tick=48, channel=11, data=[66, 64]),
   midi.NoteOnEvent(tick=12, channel=11, data=[69, 58]),
   midi.NoteOffEvent(tick=48, channel=11, data=[69, 64]),
   midi.NoteOnEvent(tick=12, channel=11, data=[66, 58]),
   midi.NoteOffEvent(tick=48, channel=11, data=[66, 64]),
   midi.NoteOnEvent(tick=12, channel=11, data=[67, 58]),
   midi.NoteOffEvent(tick=48, channel=11, data=[67, 64]),
   midi.NoteOnEvent(tick=12, channel=11, data=[69, 58]),
   midi.NoteOffEvent(tick=48, channel=11, data=[69, 64]),
   midi.NoteOnEvent(tick=12, channel=11, data=[67, 58]),
   midi.NoteOffEvent(tick=48, channel=11, data=[67, 64]),
   midi.NoteOnEvent(tick=12, channel=11, data=[69, 58]),
   midi.NoteOffEvent(tick=48, channel=11, data=[69, 64]),
   midi.NoteOnEvent(tick=12, channel=11, data=[66, 58]),
   midi.NoteOffEvent(tick=36, channel=11, data=[66, 64]),
   midi.NoteOnEvent(tick=24, channel=11, data=[69, 58]),
   midi.NoteOffEvent(tick=36, channel=11, data=[69, 64]),
   midi.NoteOnEvent(tick=24, channel=11, data=[66, 58]),
   midi.NoteOffEvent(tick=36, channel=11, data=[66, 64]),
   midi.NoteOnEvent(tick=24, channel=11, data=[69, 58]),
   midi.NoteOffEvent(tick=36, channel=11, data=[69, 64]),
   midi.NoteOnEvent(tick=24, channel=11, data=[62, 58]),
   midi.NoteOffEvent(tick=36, channel=11, data=[62, 64]),
   midi.NoteOnEvent(tick=24, channel=11, data=[69, 58]),
   midi.NoteOffEvent(tick=36, channel=11, data=[69, 64]),
   midi.NoteOnEvent(tick=24, channel=11, data=[66, 58]),
   midi.NoteOffEvent(tick=36, channel=11, data=[66, 64]),
   midi.NoteOnEvent(tick=24, channel=11, data=[69, 58]),
   midi.NoteOffEvent(tick=36, channel=11, data=[69, 64]),
   midi.NoteOnEvent(tick=24, channel=11, data=[62, 58]),
   midi.NoteOffEvent(tick=36, channel=11, data=[62, 64]),
   midi.NoteOnEvent(tick=24, channel=11, data=[69, 58]),
   midi.NoteOffEvent(tick=36, channel=11, data=[69, 64]),
   midi.NoteOnEvent(tick=24, channel=11, data=[66, 58]),
   midi.NoteOffEvent(tick=36, channel=11, data=[66, 64]),
   midi.NoteOnEvent(tick=24, channel=11, data=[69, 58]),
   midi.NoteOffEvent(tick=36, channel=11, data=[69, 64]),
   midi.NoteOnEvent(tick=24, channel=11, data=[57, 98]),
   midi.NoteOffEvent(tick=60, channel=11, data=[57, 64]),
   midi.NoteOnEvent(tick=0, channel=11, data=[56, 78]),
   midi.NoteOffEvent(tick=36, channel=11, data=[56, 64]),
   midi.NoteOnEvent(tick=24, channel=11, data=[57, 58]),
   midi.NoteOffEvent(tick=36, channel=11, data=[57, 64]),
   midi.NoteOnEvent(tick=24, channel=11, data=[57, 58]),
   midi.NoteOffEvent(tick=36, channel=11, data=[57, 64]),
   midi.NoteOnEvent(tick=24, channel=11, data=[57, 58]),
   midi.NoteOffEvent(tick=36, channel=11, data=[57, 64]),
   midi.NoteOnEvent(tick=24, channel=11, data=[57, 58]),
   midi.NoteOffEvent(tick=36, channel=11, data=[57, 64]),
   midi.NoteOnEvent(tick=24, channel=11, data=[57, 58]),
   midi.NoteOffEvent(tick=36, channel=11, data=[57, 64]),
   midi.NoteOnEvent(tick=24, channel=11, data=[57, 58]),
   midi.NoteOffEvent(tick=36, channel=11, data=[57, 64]),
   midi.NoteOnEvent(tick=24, channel=11, data=[57, 58]),
   midi.NoteOffEvent(tick=36, channel=11, data=[57, 64]),
   midi.NoteOnEvent(tick=24, channel=11, data=[57, 58]),
   midi.NoteOffEvent(tick=36, channel=11, data=[57, 64]),
   midi.NoteOnEvent(tick=24, channel=11, data=[57, 58]),
   midi.NoteOffEvent(tick=36, channel=11, data=[57, 64]),
   midi.NoteOnEvent(tick=24, channel=11, data=[57, 58]),
   midi.NoteOffEvent(tick=36, channel=11, data=[57, 64]),
   midi.NoteOnEvent(tick=24, channel=11, data=[57, 58]),
   midi.NoteOffEvent(tick=36, channel=11, data=[57, 64]),
   midi.NoteOnEvent(tick=24, channel=11, data=[69, 58]),
   midi.NoteOffEvent(tick=36, channel=11, data=[69, 64]),
   midi.NoteOnEvent(tick=24, channel=11, data=[69, 58]),
   midi.NoteOffEvent(tick=36, channel=11, data=[69, 64]),
   midi.NoteOnEvent(tick=24, channel=11, data=[69, 58]),
   midi.NoteOffEvent(tick=36, channel=11, data=[69, 64]),
   midi.NoteOnEvent(tick=24, channel=11, data=[69, 58]),
   midi.NoteOffEvent(tick=36, channel=11, data=[69, 64]),
   midi.NoteOnEvent(tick=24, channel=11, data=[69, 58]),
   midi.NoteOffEvent(tick=36, channel=11, data=[69, 64]),
   midi.NoteOnEvent(tick=24, channel=11, data=[69, 58]),
   midi.NoteOffEvent(tick=36, channel=11, data=[69, 64]),
   midi.NoteOnEvent(tick=24, channel=11, data=[69, 58]),
   midi.NoteOffEvent(tick=36, channel=11, data=[69, 64]),
   midi.NoteOnEvent(tick=24, channel=11, data=[69, 58]),
   midi.NoteOffEvent(tick=36, channel=11, data=[69, 64]),
   midi.NoteOnEvent(tick=24, channel=11, data=[69, 58]),
   midi.NoteOffEvent(tick=36, channel=11, data=[69, 64]),
   midi.NoteOnEvent(tick=24, channel=11, data=[69, 58]),
   midi.NoteOffEvent(tick=36, channel=11, data=[69, 64]),
   midi.NoteOnEvent(tick=24, channel=11, data=[69, 58]),
   midi.NoteOffEvent(tick=36, channel=11, data=[69, 64]),
   midi.NoteOnEvent(tick=24, channel=11, data=[57, 98]),
   midi.NoteOffEvent(tick=60, channel=11, data=[57, 64]),
   midi.NoteOnEvent(tick=0, channel=11, data=[56, 78]),
   midi.NoteOffEvent(tick=36, channel=11, data=[56, 64]),
   midi.NoteOnEvent(tick=24, channel=11, data=[57, 58]),
   midi.NoteOffEvent(tick=36, channel=11, data=[57, 64]),
   midi.NoteOnEvent(tick=24, channel=11, data=[57, 58]),
   midi.NoteOffEvent(tick=36, channel=11, data=[57, 64]),
   midi.NoteOnEvent(tick=24, channel=11, data=[57, 58]),
   midi.NoteOffEvent(tick=36, channel=11, data=[57, 64]),
   midi.NoteOnEvent(tick=24, channel=11, data=[57, 58]),
   midi.NoteOffEvent(tick=36, channel=11, data=[57, 64]),
   midi.NoteOnEvent(tick=24, channel=11, data=[57, 58]),
   midi.NoteOffEvent(tick=36, channel=11, data=[57, 64]),
   midi.NoteOnEvent(tick=24, channel=11, data=[57, 58]),
   midi.NoteOffEvent(tick=36, channel=11, data=[57, 64]),
   midi.NoteOnEvent(tick=24, channel=11, data=[57, 58]),
   midi.NoteOffEvent(tick=36, channel=11, data=[57, 64]),
   midi.NoteOnEvent(tick=24, channel=11, data=[57, 58]),
   midi.NoteOffEvent(tick=36, channel=11, data=[57, 64]),
   midi.NoteOnEvent(tick=24, channel=11, data=[57, 58]),
   midi.NoteOffEvent(tick=36, channel=11, data=[57, 64]),
   midi.NoteOnEvent(tick=24, channel=11, data=[57, 58]),
   midi.NoteOffEvent(tick=36, channel=11, data=[57, 64]),
   midi.NoteOnEvent(tick=24, channel=11, data=[57, 58]),
   midi.NoteOffEvent(tick=384, channel=11, data=[57, 64]),
   midi.NoteOnEvent(tick=1056, channel=11, data=[62, 58]),
   midi.NoteOffEvent(tick=576, channel=11, data=[62, 64]),
   midi.NoteOnEvent(tick=144, channel=11, data=[59, 58]),
   midi.NoteOnEvent(tick=0, channel=11, data=[62, 58]),
   midi.NoteOffEvent(tick=96, channel=11, data=[62, 64]),
   midi.NoteOffEvent(tick=0, channel=11, data=[59, 64]),
   midi.NoteOnEvent(tick=144, channel=11, data=[62, 58]),
   midi.NoteOnEvent(tick=0, channel=11, data=[59, 58]),
   midi.NoteOffEvent(tick=96, channel=11, data=[59, 64]),
   midi.NoteOffEvent(tick=0, channel=11, data=[62, 64]),
   midi.NoteOnEvent(tick=144, channel=11, data=[62, 58]),
   midi.NoteOnEvent(tick=0, channel=11, data=[59, 58]),
   midi.NoteOffEvent(tick=96, channel=11, data=[59, 64]),
   midi.NoteOffEvent(tick=0, channel=11, data=[62, 64]),
   midi.NoteOnEvent(tick=144, channel=11, data=[61, 58]),
   midi.NoteOffEvent(tick=60, channel=11, data=[61, 64]),
   midi.NoteOnEvent(tick=0, channel=11, data=[62, 58]),
   midi.NoteOffEvent(tick=60, channel=11, data=[62, 64]),
   midi.NoteOnEvent(tick=0, channel=11, data=[61, 58]),
   midi.NoteOffEvent(tick=60, channel=11, data=[61, 64]),
   midi.NoteOnEvent(tick=0, channel=11, data=[62, 58]),
   midi.NoteOffEvent(tick=60, channel=11, data=[62, 64]),
   midi.NoteOnEvent(tick=0, channel=11, data=[61, 58]),
   midi.NoteOffEvent(tick=48, channel=11, data=[61, 64]),
   midi.NoteOnEvent(tick=12, channel=11, data=[57, 58]),
   midi.NoteOffEvent(tick=36, channel=11, data=[57, 64]),
   midi.NoteOnEvent(tick=24, channel=11, data=[59, 58]),
   midi.NoteOffEvent(tick=36, channel=11, data=[59, 64]),
   midi.NoteOnEvent(tick=24, channel=11, data=[61, 58]),
   midi.NoteOffEvent(tick=36, channel=11, data=[61, 64]),
   midi.NoteOnEvent(tick=24, channel=11, data=[62, 58]),
   midi.NoteOffEvent(tick=36, channel=11, data=[62, 64]),
   midi.NoteOnEvent(tick=24, channel=11, data=[64, 58]),
   midi.NoteOffEvent(tick=36, channel=11, data=[64, 64]),
   midi.NoteOnEvent(tick=24, channel=11, data=[66, 58]),
   midi.NoteOffEvent(tick=36, channel=11, data=[66, 64]),
   midi.NoteOnEvent(tick=24, channel=11, data=[67, 58]),
   midi.NoteOffEvent(tick=36, channel=11, data=[67, 64]),
   midi.NoteOnEvent(tick=24, channel=11, data=[66, 58]),
   midi.NoteOffEvent(tick=144, channel=11, data=[66, 64]),
   midi.NoteOnEvent(tick=36, channel=11, data=[67, 58]),
   midi.NoteOffEvent(tick=48, channel=11, data=[67, 64]),
   midi.NoteOnEvent(tick=12, channel=11, data=[69, 58]),
   midi.NoteOffEvent(tick=120, channel=11, data=[69, 64]),
   midi.NoteOnEvent(tick=0, channel=11, data=[71, 58]),
   midi.NoteOffEvent(tick=120, channel=11, data=[71, 64]),
   midi.NoteOnEvent(tick=0, channel=11, data=[64, 58]),
   midi.NoteOffEvent(tick=120, channel=11, data=[64, 64]),
   midi.NoteOnEvent(tick=0, channel=11, data=[69, 58]),
   midi.NoteOffEvent(tick=96, channel=11, data=[69, 64]),
   midi.NoteOnEvent(tick=24, channel=11, data=[62, 58]),
   midi.NoteOffEvent(tick=157, channel=11, data=[62, 64]),
   midi.NoteOnEvent(tick=23, channel=11, data=[64, 58]),
   midi.NoteOffEvent(tick=26, channel=11, data=[64, 64]),
   midi.NoteOnEvent(tick=4, channel=11, data=[66, 58]),
   midi.NoteOffEvent(tick=26, channel=11, data=[66, 64]),
   midi.NoteOnEvent(tick=4, channel=11, data=[67, 58]),
   midi.NoteOffEvent(tick=360, channel=11, data=[67, 64]),
   midi.NoteOnEvent(tick=0, channel=11, data=[66, 58]),
   midi.NoteOffEvent(tick=96, channel=11, data=[66, 64]),
   midi.NoteOnEvent(tick=24, channel=11, data=[64, 58]),
   midi.NoteOffEvent(tick=60, channel=11, data=[64, 64]),
   midi.NoteOnEvent(tick=0, channel=11, data=[71, 58]),
   midi.NoteOffEvent(tick=60, channel=11, data=[71, 64]),
   midi.NoteOnEvent(tick=0, channel=11, data=[67, 58]),
   midi.NoteOffEvent(tick=60, channel=11, data=[67, 64]),
   midi.NoteOnEvent(tick=0, channel=11, data=[64, 58]),
   midi.NoteOffEvent(tick=60, channel=11, data=[64, 64]),
   midi.NoteOnEvent(tick=0, channel=11, data=[62, 58]),
   midi.NoteOffEvent(tick=192, channel=11, data=[62, 64]),
   midi.NoteOnEvent(tick=48, channel=11, data=[66, 58]),
   midi.NoteOffEvent(tick=15, channel=11, data=[66, 64]),
   midi.NoteOnEvent(tick=0, channel=11, data=[64, 58]),
   midi.NoteOffEvent(tick=15, channel=11, data=[64, 64]),
   midi.NoteOnEvent(tick=0, channel=11, data=[66, 58]),
   midi.NoteOffEvent(tick=15, channel=11, data=[66, 64]),
   midi.NoteOnEvent(tick=0, channel=11, data=[64, 58]),
   midi.NoteOffEvent(tick=15, channel=11, data=[64, 64]),
   midi.NoteOnEvent(tick=0, channel=11, data=[66, 58]),
   midi.NoteOffEvent(tick=15, channel=11, data=[66, 64]),
   midi.NoteOnEvent(tick=0, channel=11, data=[64, 58]),
   midi.NoteOffEvent(tick=15, channel=11, data=[64, 64]),
   midi.NoteOnEvent(tick=0, channel=11, data=[66, 58]),
   midi.NoteOffEvent(tick=15, channel=11, data=[66, 64]),
   midi.NoteOnEvent(tick=0, channel=11, data=[64, 58]),
   midi.NoteOffEvent(tick=15, channel=11, data=[64, 64]),
   midi.NoteOnEvent(tick=0, channel=11, data=[66, 58]),
   midi.NoteOffEvent(tick=15, channel=11, data=[66, 64]),
   midi.NoteOnEvent(tick=0, channel=11, data=[64, 58]),
   midi.NoteOffEvent(tick=15, channel=11, data=[64, 64]),
   midi.NoteOnEvent(tick=0, channel=11, data=[66, 58]),
   midi.NoteOffEvent(tick=15, channel=11, data=[66, 64]),
   midi.NoteOnEvent(tick=0, channel=11, data=[64, 58]),
   midi.NoteOffEvent(tick=15, channel=11, data=[64, 64]),
   midi.NoteOnEvent(tick=0, channel=11, data=[66, 58]),
   midi.NoteOffEvent(tick=15, channel=11, data=[66, 64]),
   midi.NoteOnEvent(tick=0, channel=11, data=[64, 58]),
   midi.NoteOffEvent(tick=15, channel=11, data=[64, 64]),
   midi.NoteOnEvent(tick=0, channel=11, data=[66, 58]),
   midi.NoteOffEvent(tick=15, channel=11, data=[66, 64]),
   midi.NoteOnEvent(tick=0, channel=11, data=[64, 58]),
   midi.NoteOffEvent(tick=15, channel=11, data=[64, 64]),
   midi.NoteOnEvent(tick=0, channel=11, data=[62, 98]),
   midi.NoteOffEvent(tick=60, channel=11, data=[62, 64]),
   midi.NoteOnEvent(tick=0, channel=11, data=[69, 78]),
   midi.NoteOffEvent(tick=39, channel=11, data=[69, 64]),
   midi.NoteOnEvent(tick=21, channel=11, data=[66, 58]),
   midi.NoteOffEvent(tick=39, channel=11, data=[66, 64]),
   midi.NoteOnEvent(tick=21, channel=11, data=[69, 58]),
   midi.NoteOffEvent(tick=39, channel=11, data=[69, 64]),
   midi.NoteOnEvent(tick=21, channel=11, data=[66, 58]),
   midi.NoteOffEvent(tick=60, channel=11, data=[66, 64]),
   midi.NoteOnEvent(tick=0, channel=11, data=[69, 58]),
   midi.NoteOffEvent(tick=60, channel=11, data=[69, 64]),
   midi.NoteOnEvent(tick=0, channel=11, data=[66, 58]),
   midi.NoteOffEvent(tick=60, channel=11, data=[66, 64]),
   midi.NoteOnEvent(tick=0, channel=11, data=[69, 58]),
   midi.NoteOffEvent(tick=60, channel=11, data=[69, 64]),
   midi.NoteOnEvent(tick=0, channel=11, data=[66, 58]),
   midi.NoteOffEvent(tick=60, channel=11, data=[66, 64]),
   midi.NoteOnEvent(tick=0, channel=11, data=[69, 58]),
   midi.NoteOffEvent(tick=60, channel=11, data=[69, 64]),
   midi.NoteOnEvent(tick=0, channel=11, data=[66, 58]),
   midi.NoteOffEvent(tick=60, channel=11, data=[66, 64]),
   midi.NoteOnEvent(tick=0, channel=11, data=[69, 58]),
   midi.NoteOffEvent(tick=48, channel=11, data=[69, 64]),
   midi.NoteOnEvent(tick=12, channel=11, data=[62, 58]),
   midi.NoteOffEvent(tick=60, channel=11, data=[62, 64]),
   midi.NoteOnEvent(tick=0, channel=11, data=[71, 58]),
   midi.NoteOffEvent(tick=60, channel=11, data=[71, 64]),
   midi.NoteOnEvent(tick=0, channel=11, data=[62, 58]),
   midi.NoteOffEvent(tick=60, channel=11, data=[62, 64]),
   midi.NoteOnEvent(tick=0, channel=11, data=[71, 58]),
   midi.NoteOffEvent(tick=60, channel=11, data=[71, 64]),
   midi.NoteOnEvent(tick=0, channel=11, data=[62, 58]),
   midi.NoteOffEvent(tick=60, channel=11, data=[62, 64]),
   midi.NoteOnEvent(tick=0, channel=11, data=[71, 58]),
   midi.NoteOffEvent(tick=60, channel=11, data=[71, 64]),
   midi.NoteOnEvent(tick=0, channel=11, data=[62, 58]),
   midi.NoteOffEvent(tick=60, channel=11, data=[62, 64]),
   midi.NoteOnEvent(tick=0, channel=11, data=[71, 58]),
   midi.NoteOffEvent(tick=48, channel=11, data=[71, 64]),
   midi.NoteOnEvent(tick=12, channel=11, data=[64, 58]),
   midi.NoteOffEvent(tick=30, channel=11, data=[64, 64]),
   midi.NoteOnEvent(tick=30, channel=11, data=[64, 58]),
   midi.NoteOffEvent(tick=60, channel=11, data=[64, 64]),
   midi.NoteOnEvent(tick=0, channel=11, data=[66, 58]),
   midi.NoteOffEvent(tick=60, channel=11, data=[66, 64]),
   midi.NoteOnEvent(tick=0, channel=11, data=[67, 58]),
   midi.NoteOffEvent(tick=48, channel=11, data=[67, 64]),
   midi.NoteOnEvent(tick=12, channel=11, data=[62, 98]),
   midi.NoteOffEvent(tick=60, channel=11, data=[62, 64]),
   midi.NoteOnEvent(tick=0, channel=11, data=[69, 78]),
   midi.NoteOffEvent(tick=39, channel=11, data=[69, 64]),
   midi.NoteOnEvent(tick=21, channel=11, data=[66, 58]),
   midi.NoteOffEvent(tick=39, channel=11, data=[66, 64]),
   midi.NoteOnEvent(tick=21, channel=11, data=[69, 58]),
   midi.NoteOffEvent(tick=39, channel=11, data=[69, 64]),
   midi.NoteOnEvent(tick=21, channel=11, data=[66, 58]),
   midi.NoteOffEvent(tick=60, channel=11, data=[66, 64]),
   midi.NoteOnEvent(tick=0, channel=11, data=[69, 58]),
   midi.NoteOffEvent(tick=60, channel=11, data=[69, 64]),
   midi.NoteOnEvent(tick=0, channel=11, data=[66, 58]),
   midi.NoteOffEvent(tick=60, channel=11, data=[66, 64]),
   midi.NoteOnEvent(tick=0, channel=11, data=[69, 58]),
   midi.NoteOffEvent(tick=60, channel=11, data=[69, 64]),
   midi.NoteOnEvent(tick=0, channel=11, data=[66, 58]),
   midi.NoteOffEvent(tick=60, channel=11, data=[66, 64]),
   midi.NoteOnEvent(tick=0, channel=11, data=[69, 58]),
   midi.NoteOffEvent(tick=60, channel=11, data=[69, 64]),
   midi.NoteOnEvent(tick=0, channel=11, data=[66, 58]),
   midi.NoteOffEvent(tick=60, channel=11, data=[66, 64]),
   midi.NoteOnEvent(tick=0, channel=11, data=[69, 58]),
   midi.NoteOffEvent(tick=48, channel=11, data=[69, 64]),
   midi.NoteOnEvent(tick=12, channel=11, data=[62, 58]),
   midi.NoteOffEvent(tick=60, channel=11, data=[62, 64]),
   midi.NoteOnEvent(tick=0, channel=11, data=[71, 58]),
   midi.NoteOffEvent(tick=60, channel=11, data=[71, 64]),
   midi.NoteOnEvent(tick=0, channel=11, data=[62, 58]),
   midi.NoteOffEvent(tick=60, channel=11, data=[62, 64]),
   midi.NoteOnEvent(tick=0, channel=11, data=[71, 58]),
   midi.NoteOffEvent(tick=60, channel=11, data=[71, 64]),
   midi.NoteOnEvent(tick=0, channel=11, data=[62, 58]),
   midi.NoteOffEvent(tick=60, channel=11, data=[62, 64]),
   midi.NoteOnEvent(tick=0, channel=11, data=[71, 58]),
   midi.NoteOffEvent(tick=60, channel=11, data=[71, 64]),
   midi.NoteOnEvent(tick=0, channel=11, data=[62, 58]),
   midi.NoteOffEvent(tick=60, channel=11, data=[62, 64]),
   midi.NoteOnEvent(tick=0, channel=11, data=[71, 58]),
   midi.NoteOffEvent(tick=48, channel=11, data=[71, 64]),
   midi.NoteOnEvent(tick=12, channel=11, data=[64, 58]),
   midi.NoteOffEvent(tick=30, channel=11, data=[64, 64]),
   midi.NoteOnEvent(tick=30, channel=11, data=[64, 58]),
   midi.NoteOffEvent(tick=60, channel=11, data=[64, 64]),
   midi.NoteOnEvent(tick=0, channel=11, data=[66, 58]),
   midi.NoteOffEvent(tick=60, channel=11, data=[66, 64]),
   midi.NoteOnEvent(tick=0, channel=11, data=[67, 58]),
   midi.NoteOffEvent(tick=48, channel=11, data=[67, 64]),
   midi.NoteOnEvent(tick=12, channel=11, data=[66, 58]),
   midi.NoteOffEvent(tick=36, channel=11, data=[66, 64]),
   midi.NoteOnEvent(tick=24, channel=11, data=[69, 58]),
   midi.NoteOffEvent(tick=36, channel=11, data=[69, 64]),
   midi.NoteOnEvent(tick=24, channel=11, data=[66, 58]),
   midi.NoteOffEvent(tick=36, channel=11, data=[66, 64]),
   midi.NoteOnEvent(tick=24, channel=11, data=[69, 58]),
   midi.NoteOffEvent(tick=36, channel=11, data=[69, 64]),
   midi.NoteOnEvent(tick=24, channel=11, data=[62, 58]),
   midi.NoteOffEvent(tick=36, channel=11, data=[62, 64]),
   midi.NoteOnEvent(tick=24, channel=11, data=[69, 58]),
   midi.NoteOffEvent(tick=36, channel=11, data=[69, 64]),
   midi.NoteOnEvent(tick=24, channel=11, data=[66, 58]),
   midi.NoteOffEvent(tick=36, channel=11, data=[66, 64]),
   midi.NoteOnEvent(tick=24, channel=11, data=[69, 58]),
   midi.NoteOffEvent(tick=36, channel=11, data=[69, 64]),
   midi.NoteOnEvent(tick=24, channel=11, data=[64, 58]),
   midi.NoteOffEvent(tick=36, channel=11, data=[64, 64]),
   midi.NoteOnEvent(tick=24, channel=11, data=[69, 58]),
   midi.NoteOffEvent(tick=36, channel=11, data=[69, 64]),
   midi.NoteOnEvent(tick=24, channel=11, data=[67, 58]),
   midi.NoteOffEvent(tick=36, channel=11, data=[67, 64]),
   midi.NoteOnEvent(tick=24, channel=11, data=[69, 58]),
   midi.NoteOffEvent(tick=36, channel=11, data=[69, 64]),
   midi.NoteOnEvent(tick=24, channel=11, data=[66, 58]),
   midi.NoteOffEvent(tick=36, channel=11, data=[66, 64]),
   midi.NoteOnEvent(tick=24, channel=11, data=[74, 58]),
   midi.NoteOffEvent(tick=36, channel=11, data=[74, 64]),
   midi.NoteOnEvent(tick=24, channel=11, data=[66, 58]),
   midi.NoteOffEvent(tick=36, channel=11, data=[66, 64]),
   midi.NoteOnEvent(tick=24, channel=11, data=[74, 58]),
   midi.NoteOffEvent(tick=36, channel=11, data=[74, 64]),
   midi.NoteOnEvent(tick=24, channel=11, data=[67, 58]),
   midi.NoteOffEvent(tick=36, channel=11, data=[67, 64]),
   midi.NoteOnEvent(tick=24, channel=11, data=[74, 58]),
   midi.NoteOffEvent(tick=36, channel=11, data=[74, 64]),
   midi.NoteOnEvent(tick=24, channel=11, data=[66, 58]),
   midi.NoteOffEvent(tick=36, channel=11, data=[66, 64]),
   midi.NoteOnEvent(tick=24, channel=11, data=[74, 58]),
   midi.NoteOffEvent(tick=36, channel=11, data=[74, 64]),
   midi.NoteOnEvent(tick=24, channel=11, data=[64, 58]),
   midi.NoteOffEvent(tick=36, channel=11, data=[64, 64]),
   midi.NoteOnEvent(tick=24, channel=11, data=[69, 58]),
   midi.NoteOffEvent(tick=36, channel=11, data=[69, 64]),
   midi.NoteOnEvent(tick=24, channel=11, data=[67, 58]),
   midi.NoteOffEvent(tick=36, channel=11, data=[67, 64]),
   midi.NoteOnEvent(tick=24, channel=11, data=[69, 58]),
   midi.NoteOffEvent(tick=36, channel=11, data=[69, 64]),
   midi.NoteOnEvent(tick=24, channel=11, data=[67, 58]),
   midi.NoteOffEvent(tick=240, channel=11, data=[67, 64]),
   midi.NoteOnEvent(tick=0, channel=11, data=[66, 30]),
   midi.NoteOffEvent(tick=96, channel=11, data=[66, 64]),
   midi.NoteOnEvent(tick=264, channel=11, data=[62, 70]),
   midi.NoteOffEvent(tick=60, channel=11, data=[62, 64]),
   midi.NoteOnEvent(tick=0, channel=11, data=[59, 70]),
   midi.NoteOffEvent(tick=48, channel=11, data=[59, 64]),
   midi.NoteOnEvent(tick=12, channel=11, data=[55, 70]),
   midi.NoteOffEvent(tick=144, channel=11, data=[55, 64]),
   midi.NoteOnEvent(tick=36, channel=11, data=[57, 70]),
   midi.NoteOffEvent(tick=48, channel=11, data=[57, 64]),
   midi.NoteOnEvent(tick=12, channel=11, data=[59, 70]),
   midi.NoteOffEvent(tick=72, channel=11, data=[59, 64]),
   midi.NoteOnEvent(tick=48, channel=11, data=[59, 70]),
   midi.NoteOffEvent(tick=72, channel=11, data=[59, 64]),
   midi.NoteOnEvent(tick=48, channel=11, data=[59, 70]),
   midi.NoteOffEvent(tick=72, channel=11, data=[59, 64]),
   midi.NoteOnEvent(tick=48, channel=11, data=[59, 70]),
   midi.NoteOffEvent(tick=72, channel=11, data=[59, 64]),
   midi.NoteOnEvent(tick=48, channel=11, data=[62, 70]),
   midi.NoteOffEvent(tick=60, channel=11, data=[62, 64]),
   midi.NoteOnEvent(tick=0, channel=11, data=[60, 70]),
   midi.NoteOffEvent(tick=48, channel=11, data=[60, 64]),
   midi.NoteOnEvent(tick=12, channel=11, data=[59, 70]),
   midi.NoteOffEvent(tick=48, channel=11, data=[59, 64]),
   midi.NoteOnEvent(tick=12, channel=11, data=[57, 70]),
   midi.NoteOffEvent(tick=48, channel=11, data=[57, 64]),
   midi.NoteOnEvent(tick=12, channel=11, data=[62, 70]),
   midi.NoteOffEvent(tick=360, channel=11, data=[62, 64]),
   midi.NoteOnEvent(tick=0, channel=11, data=[60, 70]),
   midi.NoteOffEvent(tick=96, channel=11, data=[60, 64]),
   midi.NoteOnEvent(tick=24, channel=11, data=[60, 70]),
   midi.NoteOffEvent(tick=240, channel=11, data=[60, 64]),
   midi.NoteOnEvent(tick=0, channel=11, data=[59, 70]),
   midi.NoteOffEvent(tick=36, channel=11, data=[59, 64]),
   midi.NoteOnEvent(tick=24, channel=11, data=[55, 70]),
   midi.NoteOffEvent(tick=36, channel=11, data=[55, 64]),
   midi.NoteOnEvent(tick=24, channel=11, data=[59, 70]),
   midi.NoteOffEvent(tick=36, channel=11, data=[59, 64]),
   midi.NoteOnEvent(tick=24, channel=11, data=[62, 70]),
   midi.NoteOffEvent(tick=36, channel=11, data=[62, 64]),
   midi.NoteOnEvent(tick=24, channel=11, data=[60, 70]),
   midi.NoteOffEvent(tick=36, channel=11, data=[60, 64]),
   midi.NoteOnEvent(tick=24, channel=11, data=[57, 70]),
   midi.NoteOffEvent(tick=36, channel=11, data=[57, 64]),
   midi.NoteOnEvent(tick=24, channel=11, data=[60, 70]),
   midi.NoteOffEvent(tick=36, channel=11, data=[60, 64]),
   midi.NoteOnEvent(tick=24, channel=11, data=[64, 70]),
   midi.NoteOffEvent(tick=36, channel=11, data=[64, 64]),
   midi.NoteOnEvent(tick=24, channel=11, data=[64, 70]),
   midi.NoteOffEvent(tick=240, channel=11, data=[64, 64]),
   midi.NoteOnEvent(tick=0, channel=11, data=[62, 58]),
   midi.NoteOffEvent(tick=96, channel=11, data=[62, 64]),
   midi.NoteOnEvent(tick=744, channel=11, data=[69, 58]),
   midi.NoteOffEvent(tick=72, channel=11, data=[69, 64]),
   midi.NoteOnEvent(tick=48, channel=11, data=[71, 58]),
   midi.NoteOffEvent(tick=72, channel=11, data=[71, 64]),
   midi.NoteOnEvent(tick=48, channel=11, data=[71, 58]),
   midi.NoteOffEvent(tick=72, channel=11, data=[71, 64]),
   midi.NoteOnEvent(tick=48, channel=11, data=[66, 58]),
   midi.NoteOffEvent(tick=240, channel=11, data=[66, 64]),
   midi.NoteOnEvent(tick=0, channel=11, data=[64, 58]),
   midi.NoteOffEvent(tick=192, channel=11, data=[64, 64]),
   midi.NoteOnEvent(tick=288, channel=11, data=[62, 58]),
   midi.NoteOffEvent(tick=192, channel=11, data=[62, 64]),
   midi.NoteOnEvent(tick=48, channel=11, data=[62, 58]),
   midi.NoteOffEvent(tick=48, channel=11, data=[62, 64]),
   midi.NoteOnEvent(tick=12, channel=11, data=[66, 58]),
   midi.NoteOffEvent(tick=48, channel=11, data=[66, 64]),
   midi.NoteOnEvent(tick=12, channel=11, data=[69, 58]),
   midi.NoteOffEvent(tick=48, channel=11, data=[69, 64]),
   midi.NoteOnEvent(tick=12, channel=11, data=[66, 58]),
   midi.NoteOffEvent(tick=48, channel=11, data=[66, 64]),
   midi.NoteOnEvent(tick=12, channel=11, data=[67, 58]),
   midi.NoteOffEvent(tick=48, channel=11, data=[67, 64]),
   midi.NoteOnEvent(tick=12, channel=11, data=[69, 58]),
   midi.NoteOffEvent(tick=48, channel=11, data=[69, 64]),
   midi.NoteOnEvent(tick=12, channel=11, data=[67, 58]),
   midi.NoteOffEvent(tick=48, channel=11, data=[67, 64]),
   midi.NoteOnEvent(tick=12, channel=11, data=[69, 58]),
   midi.NoteOffEvent(tick=48, channel=11, data=[69, 64]),
   midi.NoteOnEvent(tick=12, channel=11, data=[66, 58]),
   midi.NoteOffEvent(tick=36, channel=11, data=[66, 64]),
   midi.NoteOnEvent(tick=24, channel=11, data=[69, 58]),
   midi.NoteOffEvent(tick=36, channel=11, data=[69, 64]),
   midi.NoteOnEvent(tick=24, channel=11, data=[66, 58]),
   midi.NoteOffEvent(tick=36, channel=11, data=[66, 64]),
   midi.NoteOnEvent(tick=24, channel=11, data=[69, 58]),
   midi.NoteOffEvent(tick=36, channel=11, data=[69, 64]),
   midi.NoteOnEvent(tick=24, channel=11, data=[62, 58]),
   midi.NoteOffEvent(tick=36, channel=11, data=[62, 64]),
   midi.NoteOnEvent(tick=24, channel=11, data=[69, 58]),
   midi.NoteOffEvent(tick=36, channel=11, data=[69, 64]),
   midi.NoteOnEvent(tick=24, channel=11, data=[66, 58]),
   midi.NoteOffEvent(tick=36, channel=11, data=[66, 64]),
   midi.NoteOnEvent(tick=24, channel=11, data=[69, 58]),
   midi.NoteOffEvent(tick=36, channel=11, data=[69, 64]),
   midi.NoteOnEvent(tick=24, channel=11, data=[62, 58]),
   midi.NoteOffEvent(tick=36, channel=11, data=[62, 64]),
   midi.NoteOnEvent(tick=24, channel=11, data=[69, 58]),
   midi.NoteOffEvent(tick=36, channel=11, data=[69, 64]),
   midi.NoteOnEvent(tick=24, channel=11, data=[66, 58]),
   midi.NoteOffEvent(tick=36, channel=11, data=[66, 64]),
   midi.NoteOnEvent(tick=24, channel=11, data=[69, 58]),
   midi.NoteOffEvent(tick=36, channel=11, data=[69, 64]),
   midi.NoteOnEvent(tick=24, channel=11, data=[57, 98]),
   midi.NoteOffEvent(tick=60, channel=11, data=[57, 64]),
   midi.NoteOnEvent(tick=0, channel=11, data=[56, 78]),
   midi.NoteOffEvent(tick=36, channel=11, data=[56, 64]),
   midi.NoteOnEvent(tick=24, channel=11, data=[57, 58]),
   midi.NoteOffEvent(tick=36, channel=11, data=[57, 64]),
   midi.NoteOnEvent(tick=24, channel=11, data=[57, 58]),
   midi.NoteOffEvent(tick=36, channel=11, data=[57, 64]),
   midi.NoteOnEvent(tick=24, channel=11, data=[57, 58]),
   midi.NoteOffEvent(tick=36, channel=11, data=[57, 64]),
   midi.NoteOnEvent(tick=24, channel=11, data=[57, 58]),
   midi.NoteOffEvent(tick=36, channel=11, data=[57, 64]),
   midi.NoteOnEvent(tick=24, channel=11, data=[57, 58]),
   midi.NoteOffEvent(tick=36, channel=11, data=[57, 64]),
   midi.NoteOnEvent(tick=24, channel=11, data=[57, 58]),
   midi.NoteOffEvent(tick=36, channel=11, data=[57, 64]),
   midi.NoteOnEvent(tick=24, channel=11, data=[57, 58]),
   midi.NoteOffEvent(tick=36, channel=11, data=[57, 64]),
   midi.NoteOnEvent(tick=24, channel=11, data=[57, 58]),
   midi.NoteOffEvent(tick=36, channel=11, data=[57, 64]),
   midi.NoteOnEvent(tick=24, channel=11, data=[57, 58]),
   midi.NoteOffEvent(tick=36, channel=11, data=[57, 64]),
   midi.NoteOnEvent(tick=24, channel=11, data=[57, 58]),
   midi.NoteOffEvent(tick=36, channel=11, data=[57, 64]),
   midi.NoteOnEvent(tick=24, channel=11, data=[57, 58]),
   midi.NoteOffEvent(tick=36, channel=11, data=[57, 64]),
   midi.NoteOnEvent(tick=24, channel=11, data=[69, 58]),
   midi.NoteOffEvent(tick=36, channel=11, data=[69, 64]),
   midi.NoteOnEvent(tick=24, channel=11, data=[69, 58]),
   midi.NoteOffEvent(tick=36, channel=11, data=[69, 64]),
   midi.NoteOnEvent(tick=24, channel=11, data=[69, 58]),
   midi.NoteOffEvent(tick=36, channel=11, data=[69, 64]),
   midi.NoteOnEvent(tick=24, channel=11, data=[69, 58]),
   midi.NoteOffEvent(tick=36, channel=11, data=[69, 64]),
   midi.NoteOnEvent(tick=24, channel=11, data=[69, 58]),
   midi.NoteOffEvent(tick=36, channel=11, data=[69, 64]),
   midi.NoteOnEvent(tick=24, channel=11, data=[69, 58]),
   midi.NoteOffEvent(tick=36, channel=11, data=[69, 64]),
   midi.NoteOnEvent(tick=24, channel=11, data=[69, 58]),
   midi.NoteOffEvent(tick=36, channel=11, data=[69, 64]),
   midi.NoteOnEvent(tick=24, channel=11, data=[69, 58]),
   midi.NoteOffEvent(tick=36, channel=11, data=[69, 64]),
   midi.NoteOnEvent(tick=24, channel=11, data=[69, 58]),
   midi.NoteOffEvent(tick=36, channel=11, data=[69, 64]),
   midi.NoteOnEvent(tick=24, channel=11, data=[69, 58]),
   midi.NoteOffEvent(tick=36, channel=11, data=[69, 64]),
   midi.NoteOnEvent(tick=24, channel=11, data=[69, 58]),
   midi.NoteOffEvent(tick=36, channel=11, data=[69, 64]),
   midi.NoteOnEvent(tick=24, channel=11, data=[57, 98]),
   midi.NoteOffEvent(tick=60, channel=11, data=[57, 64]),
   midi.NoteOnEvent(tick=0, channel=11, data=[56, 78]),
   midi.NoteOffEvent(tick=36, channel=11, data=[56, 64]),
   midi.NoteOnEvent(tick=24, channel=11, data=[57, 58]),
   midi.NoteOffEvent(tick=36, channel=11, data=[57, 64]),
   midi.NoteOnEvent(tick=24, channel=11, data=[57, 58]),
   midi.NoteOffEvent(tick=36, channel=11, data=[57, 64]),
   midi.NoteOnEvent(tick=24, channel=11, data=[57, 58]),
   midi.NoteOffEvent(tick=36, channel=11, data=[57, 64]),
   midi.NoteOnEvent(tick=24, channel=11, data=[57, 58]),
   midi.NoteOffEvent(tick=36, channel=11, data=[57, 64]),
   midi.NoteOnEvent(tick=24, channel=11, data=[57, 58]),
   midi.NoteOffEvent(tick=36, channel=11, data=[57, 64]),
   midi.NoteOnEvent(tick=24, channel=11, data=[57, 58]),
   midi.NoteOffEvent(tick=36, channel=11, data=[57, 64]),
   midi.NoteOnEvent(tick=24, channel=11, data=[57, 58]),
   midi.NoteOffEvent(tick=36, channel=11, data=[57, 64]),
   midi.NoteOnEvent(tick=24, channel=11, data=[57, 58]),
   midi.NoteOffEvent(tick=36, channel=11, data=[57, 64]),
   midi.NoteOnEvent(tick=24, channel=11, data=[57, 58]),
   midi.NoteOffEvent(tick=36, channel=11, data=[57, 64]),
   midi.NoteOnEvent(tick=24, channel=11, data=[57, 58]),
   midi.NoteOffEvent(tick=36, channel=11, data=[57, 64]),
   midi.NoteOnEvent(tick=24, channel=11, data=[57, 58]),
   midi.NoteOffEvent(tick=384, channel=11, data=[57, 64]),
   midi.NoteOnEvent(tick=1056, channel=11, data=[62, 58]),
   midi.NoteOffEvent(tick=576, channel=11, data=[62, 64]),
   midi.NoteOnEvent(tick=144, channel=11, data=[59, 58]),
   midi.NoteOnEvent(tick=0, channel=11, data=[62, 58]),
   midi.NoteOffEvent(tick=96, channel=11, data=[62, 64]),
   midi.NoteOffEvent(tick=0, channel=11, data=[59, 64]),
   midi.NoteOnEvent(tick=144, channel=11, data=[62, 58]),
   midi.NoteOnEvent(tick=0, channel=11, data=[59, 58]),
   midi.NoteOffEvent(tick=96, channel=11, data=[59, 64]),
   midi.NoteOffEvent(tick=0, channel=11, data=[62, 64]),
   midi.NoteOnEvent(tick=144, channel=11, data=[62, 58]),
   midi.NoteOnEvent(tick=0, channel=11, data=[59, 58]),
   midi.NoteOffEvent(tick=96, channel=11, data=[59, 64]),
   midi.NoteOffEvent(tick=0, channel=11, data=[62, 64]),
   midi.NoteOnEvent(tick=144, channel=11, data=[61, 58]),
   midi.NoteOffEvent(tick=60, channel=11, data=[61, 64]),
   midi.NoteOnEvent(tick=0, channel=11, data=[62, 58]),
   midi.NoteOffEvent(tick=60, channel=11, data=[62, 64]),
   midi.NoteOnEvent(tick=0, channel=11, data=[61, 58]),
   midi.NoteOffEvent(tick=60, channel=11, data=[61, 64]),
   midi.NoteOnEvent(tick=0, channel=11, data=[62, 58]),
   midi.NoteOffEvent(tick=60, channel=11, data=[62, 64]),
   midi.NoteOnEvent(tick=0, channel=11, data=[61, 58]),
   midi.NoteOffEvent(tick=48, channel=11, data=[61, 64]),
   midi.NoteOnEvent(tick=12, channel=11, data=[57, 58]),
   midi.NoteOffEvent(tick=36, channel=11, data=[57, 64]),
   midi.NoteOnEvent(tick=24, channel=11, data=[59, 58]),
   midi.NoteOffEvent(tick=36, channel=11, data=[59, 64]),
   midi.NoteOnEvent(tick=24, channel=11, data=[61, 58]),
   midi.NoteOffEvent(tick=36, channel=11, data=[61, 64]),
   midi.NoteOnEvent(tick=24, channel=11, data=[62, 58]),
   midi.NoteOffEvent(tick=36, channel=11, data=[62, 64]),
   midi.NoteOnEvent(tick=24, channel=11, data=[64, 58]),
   midi.NoteOffEvent(tick=36, channel=11, data=[64, 64]),
   midi.NoteOnEvent(tick=24, channel=11, data=[66, 58]),
   midi.NoteOffEvent(tick=36, channel=11, data=[66, 64]),
   midi.NoteOnEvent(tick=24, channel=11, data=[67, 58]),
   midi.NoteOffEvent(tick=36, channel=11, data=[67, 64]),
   midi.NoteOnEvent(tick=24, channel=11, data=[66, 58]),
   midi.NoteOffEvent(tick=144, channel=11, data=[66, 64]),
   midi.NoteOnEvent(tick=36, channel=11, data=[67, 58]),
   midi.NoteOffEvent(tick=48, channel=11, data=[67, 64]),
   midi.NoteOnEvent(tick=12, channel=11, data=[69, 58]),
   midi.NoteOffEvent(tick=120, channel=11, data=[69, 64]),
   midi.NoteOnEvent(tick=0, channel=11, data=[71, 58]),
   midi.NoteOffEvent(tick=120, channel=11, data=[71, 64]),
   midi.NoteOnEvent(tick=0, channel=11, data=[64, 58]),
   midi.NoteOffEvent(tick=120, channel=11, data=[64, 64]),
   midi.NoteOnEvent(tick=0, channel=11, data=[69, 58]),
   midi.NoteOffEvent(tick=96, channel=11, data=[69, 64]),
   midi.NoteOnEvent(tick=24, channel=11, data=[62, 58]),
   midi.NoteOffEvent(tick=157, channel=11, data=[62, 64]),
   midi.NoteOnEvent(tick=23, channel=11, data=[64, 58]),
   midi.NoteOffEvent(tick=26, channel=11, data=[64, 64]),
   midi.NoteOnEvent(tick=4, channel=11, data=[66, 58]),
   midi.NoteOffEvent(tick=26, channel=11, data=[66, 64]),
   midi.NoteOnEvent(tick=4, channel=11, data=[67, 58]),
   midi.NoteOffEvent(tick=360, channel=11, data=[67, 64]),
   midi.NoteOnEvent(tick=0, channel=11, data=[66, 58]),
   midi.NoteOffEvent(tick=96, channel=11, data=[66, 64]),
   midi.NoteOnEvent(tick=24, channel=11, data=[64, 58]),
   midi.NoteOffEvent(tick=60, channel=11, data=[64, 64]),
   midi.NoteOnEvent(tick=0, channel=11, data=[71, 58]),
   midi.NoteOffEvent(tick=60, channel=11, data=[71, 64]),
   midi.NoteOnEvent(tick=0, channel=11, data=[67, 58]),
   midi.NoteOffEvent(tick=60, channel=11, data=[67, 64]),
   midi.NoteOnEvent(tick=0, channel=11, data=[64, 58]),
   midi.NoteOffEvent(tick=60, channel=11, data=[64, 64]),
   midi.NoteOnEvent(tick=0, channel=11, data=[62, 58]),
   midi.NoteOffEvent(tick=192, channel=11, data=[62, 64]),
   midi.NoteOnEvent(tick=48, channel=11, data=[66, 58]),
   midi.NoteOffEvent(tick=15, channel=11, data=[66, 64]),
   midi.NoteOnEvent(tick=0, channel=11, data=[64, 58]),
   midi.NoteOffEvent(tick=15, channel=11, data=[64, 64]),
   midi.NoteOnEvent(tick=0, channel=11, data=[66, 58]),
   midi.NoteOffEvent(tick=15, channel=11, data=[66, 64]),
   midi.NoteOnEvent(tick=0, channel=11, data=[64, 58]),
   midi.NoteOffEvent(tick=15, channel=11, data=[64, 64]),
   midi.NoteOnEvent(tick=0, channel=11, data=[66, 58]),
   midi.NoteOffEvent(tick=15, channel=11, data=[66, 64]),
   midi.NoteOnEvent(tick=0, channel=11, data=[64, 58]),
   midi.NoteOffEvent(tick=15, channel=11, data=[64, 64]),
   midi.NoteOnEvent(tick=0, channel=11, data=[66, 58]),
   midi.NoteOffEvent(tick=15, channel=11, data=[66, 64]),
   midi.NoteOnEvent(tick=0, channel=11, data=[64, 58]),
   midi.NoteOffEvent(tick=15, channel=11, data=[64, 64]),
   midi.NoteOnEvent(tick=0, channel=11, data=[66, 58]),
   midi.NoteOffEvent(tick=15, channel=11, data=[66, 64]),
   midi.NoteOnEvent(tick=0, channel=11, data=[64, 58]),
   midi.NoteOffEvent(tick=15, channel=11, data=[64, 64]),
   midi.NoteOnEvent(tick=0, channel=11, data=[66, 58]),
   midi.NoteOffEvent(tick=15, channel=11, data=[66, 64]),
   midi.NoteOnEvent(tick=0, channel=11, data=[64, 58]),
   midi.NoteOffEvent(tick=15, channel=11, data=[64, 64]),
   midi.NoteOnEvent(tick=0, channel=11, data=[66, 58]),
   midi.NoteOffEvent(tick=15, channel=11, data=[66, 64]),
   midi.NoteOnEvent(tick=0, channel=11, data=[64, 58]),
   midi.NoteOffEvent(tick=15, channel=11, data=[64, 64]),
   midi.NoteOnEvent(tick=0, channel=11, data=[66, 58]),
   midi.NoteOffEvent(tick=15, channel=11, data=[66, 64]),
   midi.NoteOnEvent(tick=0, channel=11, data=[64, 58]),
   midi.NoteOffEvent(tick=15, channel=11, data=[64, 64]),
   midi.NoteOnEvent(tick=0, channel=11, data=[62, 98]),
   midi.NoteOffEvent(tick=60, channel=11, data=[62, 64]),
   midi.NoteOnEvent(tick=0, channel=11, data=[69, 78]),
   midi.NoteOffEvent(tick=39, channel=11, data=[69, 64]),
   midi.NoteOnEvent(tick=21, channel=11, data=[66, 58]),
   midi.NoteOffEvent(tick=39, channel=11, data=[66, 64]),
   midi.NoteOnEvent(tick=21, channel=11, data=[69, 58]),
   midi.NoteOffEvent(tick=39, channel=11, data=[69, 64]),
   midi.NoteOnEvent(tick=21, channel=11, data=[66, 58]),
   midi.NoteOffEvent(tick=60, channel=11, data=[66, 64]),
   midi.NoteOnEvent(tick=0, channel=11, data=[69, 58]),
   midi.NoteOffEvent(tick=60, channel=11, data=[69, 64]),
   midi.NoteOnEvent(tick=0, channel=11, data=[66, 58]),
   midi.NoteOffEvent(tick=60, channel=11, data=[66, 64]),
   midi.NoteOnEvent(tick=0, channel=11, data=[69, 58]),
   midi.NoteOffEvent(tick=60, channel=11, data=[69, 64]),
   midi.NoteOnEvent(tick=0, channel=11, data=[66, 58]),
   midi.NoteOffEvent(tick=60, channel=11, data=[66, 64]),
   midi.NoteOnEvent(tick=0, channel=11, data=[69, 58]),
   midi.NoteOffEvent(tick=60, channel=11, data=[69, 64]),
   midi.NoteOnEvent(tick=0, channel=11, data=[66, 58]),
   midi.NoteOffEvent(tick=60, channel=11, data=[66, 64]),
   midi.NoteOnEvent(tick=0, channel=11, data=[69, 58]),
   midi.NoteOffEvent(tick=48, channel=11, data=[69, 64]),
   midi.NoteOnEvent(tick=12, channel=11, data=[62, 58]),
   midi.NoteOffEvent(tick=60, channel=11, data=[62, 64]),
   midi.NoteOnEvent(tick=0, channel=11, data=[71, 58]),
   midi.NoteOffEvent(tick=60, channel=11, data=[71, 64]),
   midi.NoteOnEvent(tick=0, channel=11, data=[62, 58]),
   midi.NoteOffEvent(tick=60, channel=11, data=[62, 64]),
   midi.NoteOnEvent(tick=0, channel=11, data=[71, 58]),
   midi.NoteOffEvent(tick=60, channel=11, data=[71, 64]),
   midi.NoteOnEvent(tick=0, channel=11, data=[62, 58]),
   midi.NoteOffEvent(tick=60, channel=11, data=[62, 64]),
   midi.NoteOnEvent(tick=0, channel=11, data=[71, 58]),
   midi.NoteOffEvent(tick=60, channel=11, data=[71, 64]),
   midi.NoteOnEvent(tick=0, channel=11, data=[62, 58]),
   midi.NoteOffEvent(tick=60, channel=11, data=[62, 64]),
   midi.NoteOnEvent(tick=0, channel=11, data=[71, 58]),
   midi.NoteOffEvent(tick=48, channel=11, data=[71, 64]),
   midi.NoteOnEvent(tick=12, channel=11, data=[64, 58]),
   midi.NoteOffEvent(tick=30, channel=11, data=[64, 64]),
   midi.NoteOnEvent(tick=30, channel=11, data=[64, 58]),
   midi.NoteOffEvent(tick=60, channel=11, data=[64, 64]),
   midi.NoteOnEvent(tick=0, channel=11, data=[66, 58]),
   midi.NoteOffEvent(tick=60, channel=11, data=[66, 64]),
   midi.NoteOnEvent(tick=0, channel=11, data=[67, 58]),
   midi.NoteOffEvent(tick=48, channel=11, data=[67, 64]),
   midi.NoteOnEvent(tick=12, channel=11, data=[62, 98]),
   midi.NoteOffEvent(tick=60, channel=11, data=[62, 64]),
   midi.NoteOnEvent(tick=0, channel=11, data=[69, 78]),
   midi.NoteOffEvent(tick=39, channel=11, data=[69, 64]),
   midi.NoteOnEvent(tick=21, channel=11, data=[66, 58]),
   midi.NoteOffEvent(tick=39, channel=11, data=[66, 64]),
   midi.NoteOnEvent(tick=21, channel=11, data=[69, 58]),
   midi.NoteOffEvent(tick=39, channel=11, data=[69, 64]),
   midi.NoteOnEvent(tick=21, channel=11, data=[66, 58]),
   midi.NoteOffEvent(tick=60, channel=11, data=[66, 64]),
   midi.NoteOnEvent(tick=0, channel=11, data=[69, 58]),
   midi.NoteOffEvent(tick=60, channel=11, data=[69, 64]),
   midi.NoteOnEvent(tick=0, channel=11, data=[66, 58]),
   midi.NoteOffEvent(tick=60, channel=11, data=[66, 64]),
   midi.NoteOnEvent(tick=0, channel=11, data=[69, 58]),
   midi.NoteOffEvent(tick=60, channel=11, data=[69, 64]),
   midi.NoteOnEvent(tick=0, channel=11, data=[66, 58]),
   midi.NoteOffEvent(tick=60, channel=11, data=[66, 64]),
   midi.NoteOnEvent(tick=0, channel=11, data=[69, 58]),
   midi.NoteOffEvent(tick=60, channel=11, data=[69, 64]),
   midi.NoteOnEvent(tick=0, channel=11, data=[66, 58]),
   midi.NoteOffEvent(tick=60, channel=11, data=[66, 64]),
   midi.NoteOnEvent(tick=0, channel=11, data=[69, 58]),
   midi.NoteOffEvent(tick=48, channel=11, data=[69, 64]),
   midi.NoteOnEvent(tick=12, channel=11, data=[62, 58]),
   midi.NoteOffEvent(tick=60, channel=11, data=[62, 64]),
   midi.NoteOnEvent(tick=0, channel=11, data=[71, 58]),
   midi.NoteOffEvent(tick=60, channel=11, data=[71, 64]),
   midi.NoteOnEvent(tick=0, channel=11, data=[62, 58]),
   midi.NoteOffEvent(tick=60, channel=11, data=[62, 64]),
   midi.NoteOnEvent(tick=0, channel=11, data=[71, 58]),
   midi.NoteOffEvent(tick=60, channel=11, data=[71, 64]),
   midi.NoteOnEvent(tick=0, channel=11, data=[62, 58]),
   midi.NoteOffEvent(tick=60, channel=11, data=[62, 64]),
   midi.NoteOnEvent(tick=0, channel=11, data=[71, 58]),
   midi.NoteOffEvent(tick=60, channel=11, data=[71, 64]),
   midi.NoteOnEvent(tick=0, channel=11, data=[62, 58]),
   midi.NoteOffEvent(tick=60, channel=11, data=[62, 64]),
   midi.NoteOnEvent(tick=0, channel=11, data=[71, 58]),
   midi.NoteOffEvent(tick=48, channel=11, data=[71, 64]),
   midi.NoteOnEvent(tick=12, channel=11, data=[64, 58]),
   midi.NoteOffEvent(tick=30, channel=11, data=[64, 64]),
   midi.NoteOnEvent(tick=30, channel=11, data=[64, 58]),
   midi.NoteOffEvent(tick=60, channel=11, data=[64, 64]),
   midi.NoteOnEvent(tick=0, channel=11, data=[66, 58]),
   midi.NoteOffEvent(tick=60, channel=11, data=[66, 64]),
   midi.NoteOnEvent(tick=0, channel=11, data=[67, 58]),
   midi.NoteOffEvent(tick=48, channel=11, data=[67, 64]),
   midi.NoteOnEvent(tick=12, channel=11, data=[66, 58]),
   midi.NoteOffEvent(tick=36, channel=11, data=[66, 64]),
   midi.NoteOnEvent(tick=24, channel=11, data=[69, 58]),
   midi.NoteOffEvent(tick=36, channel=11, data=[69, 64]),
   midi.NoteOnEvent(tick=24, channel=11, data=[66, 58]),
   midi.NoteOffEvent(tick=36, channel=11, data=[66, 64]),
   midi.NoteOnEvent(tick=24, channel=11, data=[69, 58]),
   midi.NoteOffEvent(tick=36, channel=11, data=[69, 64]),
   midi.NoteOnEvent(tick=24, channel=11, data=[62, 58]),
   midi.NoteOffEvent(tick=36, channel=11, data=[62, 64]),
   midi.NoteOnEvent(tick=24, channel=11, data=[69, 58]),
   midi.NoteOffEvent(tick=36, channel=11, data=[69, 64]),
   midi.NoteOnEvent(tick=24, channel=11, data=[66, 58]),
   midi.NoteOffEvent(tick=36, channel=11, data=[66, 64]),
   midi.NoteOnEvent(tick=24, channel=11, data=[69, 58]),
   midi.NoteOffEvent(tick=36, channel=11, data=[69, 64]),
   midi.NoteOnEvent(tick=24, channel=11, data=[64, 58]),
   midi.NoteOffEvent(tick=36, channel=11, data=[64, 64]),
   midi.NoteOnEvent(tick=24, channel=11, data=[69, 58]),
   midi.NoteOffEvent(tick=36, channel=11, data=[69, 64]),
   midi.NoteOnEvent(tick=24, channel=11, data=[67, 58]),
   midi.NoteOffEvent(tick=36, channel=11, data=[67, 64]),
   midi.NoteOnEvent(tick=24, channel=11, data=[69, 58]),
   midi.NoteOffEvent(tick=36, channel=11, data=[69, 64]),
   midi.NoteOnEvent(tick=24, channel=11, data=[66, 58]),
   midi.NoteOffEvent(tick=36, channel=11, data=[66, 64]),
   midi.NoteOnEvent(tick=24, channel=11, data=[74, 58]),
   midi.NoteOffEvent(tick=36, channel=11, data=[74, 64]),
   midi.NoteOnEvent(tick=24, channel=11, data=[66, 58]),
   midi.NoteOffEvent(tick=36, channel=11, data=[66, 64]),
   midi.NoteOnEvent(tick=24, channel=11, data=[74, 58]),
   midi.NoteOffEvent(tick=36, channel=11, data=[74, 64]),
   midi.NoteOnEvent(tick=24, channel=11, data=[67, 58]),
   midi.NoteOffEvent(tick=36, channel=11, data=[67, 64]),
   midi.NoteOnEvent(tick=24, channel=11, data=[74, 58]),
   midi.NoteOffEvent(tick=36, channel=11, data=[74, 64]),
   midi.NoteOnEvent(tick=24, channel=11, data=[66, 58]),
   midi.NoteOffEvent(tick=36, channel=11, data=[66, 64]),
   midi.NoteOnEvent(tick=24, channel=11, data=[74, 58]),
   midi.NoteOffEvent(tick=36, channel=11, data=[74, 64]),
   midi.NoteOnEvent(tick=24, channel=11, data=[64, 58]),
   midi.NoteOffEvent(tick=36, channel=11, data=[64, 64]),
   midi.NoteOnEvent(tick=24, channel=11, data=[69, 58]),
   midi.NoteOffEvent(tick=36, channel=11, data=[69, 64]),
   midi.NoteOnEvent(tick=24, channel=11, data=[67, 58]),
   midi.NoteOffEvent(tick=36, channel=11, data=[67, 64]),
   midi.NoteOnEvent(tick=24, channel=11, data=[69, 58]),
   midi.NoteOffEvent(tick=36, channel=11, data=[69, 64]),
   midi.NoteOnEvent(tick=24, channel=11, data=[67, 58]),
   midi.NoteOffEvent(tick=240, channel=11, data=[67, 64]),
   midi.NoteOnEvent(tick=0, channel=11, data=[66, 30]),
   midi.NoteOffEvent(tick=96, channel=11, data=[66, 64]),
   midi.NoteOnEvent(tick=264, channel=11, data=[62, 105]),
   midi.NoteOffEvent(tick=96, channel=11, data=[62, 64]),
   midi.NoteOnEvent(tick=24, channel=11, data=[74, 105]),
   midi.NoteOffEvent(tick=144, channel=11, data=[74, 64]),
   midi.NoteOnEvent(tick=36, channel=11, data=[76, 105]),
   midi.NoteOffEvent(tick=36, channel=11, data=[76, 64]),
   midi.NoteOnEvent(tick=24, channel=11, data=[77, 105]),
   midi.NoteOffEvent(tick=72, channel=11, data=[77, 64]),
   midi.NoteOnEvent(tick=48, channel=11, data=[74, 105]),
   midi.NoteOffEvent(tick=72, channel=11, data=[74, 64]),
   midi.NoteOnEvent(tick=48, channel=11, data=[71, 105]),
   midi.NoteOffEvent(tick=72, channel=11, data=[71, 64]),
   midi.NoteOnEvent(tick=48, channel=11, data=[69, 105]),
   midi.NoteOffEvent(tick=72, channel=11, data=[69, 64]),
   midi.NoteOnEvent(tick=48, channel=11, data=[68, 105]),
   midi.NoteOffEvent(tick=66, channel=11, data=[68, 64]),
   midi.NoteOnEvent(tick=54, channel=11, data=[71, 105]),
   midi.NoteOffEvent(tick=66, channel=11, data=[71, 64]),
   midi.NoteOnEvent(tick=54, channel=11, data=[76, 105]),
   midi.NoteOffEvent(tick=192, channel=11, data=[76, 64]),
   midi.NoteOnEvent(tick=288, channel=11, data=[64, 58]),
   midi.NoteOnEvent(tick=0, channel=11, data=[60, 58]),
   midi.NoteOffEvent(tick=120, channel=11, data=[60, 64]),
   midi.NoteOnEvent(tick=0, channel=11, data=[62, 58]),
   midi.NoteOffEvent(tick=120, channel=11, data=[62, 64]),
   midi.NoteOnEvent(tick=0, channel=11, data=[60, 58]),
   midi.NoteOffEvent(tick=120, channel=11, data=[60, 64]),
   midi.NoteOnEvent(tick=0, channel=11, data=[62, 58]),
   midi.NoteOffEvent(tick=120, channel=11, data=[64, 64]),
   midi.NoteOffEvent(tick=0, channel=11, data=[62, 64]),
   midi.NoteOnEvent(tick=0, channel=11, data=[60, 58]),
   midi.NoteOnEvent(tick=0, channel=11, data=[64, 58]),
   midi.NoteOffEvent(tick=96, channel=11, data=[64, 64]),
   midi.NoteOffEvent(tick=0, channel=11, data=[60, 64]),
   midi.NoteOnEvent(tick=24, channel=11, data=[68, 58]),
   midi.NoteOffEvent(tick=96, channel=11, data=[68, 64]),
   midi.NoteOnEvent(tick=24, channel=11, data=[68, 58]),
   midi.NoteOffEvent(tick=192, channel=11, data=[68, 64]),
   midi.NoteOnEvent(tick=48, channel=11, data=[69, 58]),
   midi.NoteOffEvent(tick=48, channel=11, data=[69, 64]),
   midi.NoteOnEvent(tick=12, channel=11, data=[71, 58]),
   midi.NoteOffEvent(tick=48, channel=11, data=[71, 64]),
   midi.NoteOnEvent(tick=12, channel=11, data=[72, 58]),
   midi.NoteOffEvent(tick=48, channel=11, data=[72, 64]),
   midi.NoteOnEvent(tick=12, channel=11, data=[71, 58]),
   midi.NoteOffEvent(tick=48, channel=11, data=[71, 64]),
   midi.NoteOnEvent(tick=12, channel=11, data=[69, 70]),
   midi.NoteOffEvent(tick=48, channel=11, data=[69, 64]),
   midi.NoteOnEvent(tick=12, channel=11, data=[67, 70]),
   midi.NoteOffEvent(tick=48, channel=11, data=[67, 64]),
   midi.NoteOnEvent(tick=12, channel=11, data=[69, 80]),
   midi.NoteOffEvent(tick=48, channel=11, data=[69, 64]),
   midi.NoteOnEvent(tick=12, channel=11, data=[66, 80]),
   midi.NoteOffEvent(tick=48, channel=11, data=[66, 64]),
   midi.NoteOnEvent(tick=12, channel=11, data=[67, 92]),
   midi.NoteOffEvent(tick=120, channel=11, data=[67, 64]),
   midi.NoteOnEvent(tick=0, channel=11, data=[60, 92]),
   midi.NoteOffEvent(tick=120, channel=11, data=[60, 64]),
   midi.NoteOnEvent(tick=0, channel=11, data=[59, 92]),
   midi.NoteOffEvent(tick=120, channel=11, data=[59, 64]),
   midi.NoteOnEvent(tick=0, channel=11, data=[60, 92]),
   midi.NoteOffEvent(tick=120, channel=11, data=[60, 64]),
   midi.NoteOnEvent(tick=0, channel=11, data=[59, 92]),
   midi.NoteOffEvent(tick=90, channel=11, data=[59, 64]),
   midi.NoteOnEvent(tick=30, channel=11, data=[66, 92]),
   midi.NoteOffEvent(tick=78, channel=11, data=[66, 64]),
   midi.NoteOnEvent(tick=42, channel=11, data=[67, 92]),
   midi.NoteOffEvent(tick=120, channel=11, data=[67, 64]),
   midi.NoteOnEvent(tick=0, channel=11, data=[62, 92]),
   midi.NoteOffEvent(tick=120, channel=11, data=[62, 64]),
   midi.NoteOnEvent(tick=0, channel=11, data=[67, 92]),
   midi.NoteOffEvent(tick=120, channel=11, data=[67, 64]),
   midi.NoteOnEvent(tick=0, channel=11, data=[62, 92]),
   midi.NoteOffEvent(tick=120, channel=11, data=[62, 64]),
   midi.NoteOnEvent(tick=0, channel=11, data=[67, 92]),
   midi.NoteOffEvent(tick=90, channel=11, data=[67, 64]),
   midi.NoteOnEvent(tick=30, channel=11, data=[69, 92]),
   midi.NoteOffEvent(tick=78, channel=11, data=[69, 64]),
   midi.NoteOnEvent(tick=42, channel=11, data=[71, 92]),
   midi.NoteOffEvent(tick=96, channel=11, data=[71, 64]),
   midi.NoteOnEvent(tick=144, channel=11, data=[71, 92]),
   midi.NoteOffEvent(tick=96, channel=11, data=[71, 64]),
   midi.NoteOnEvent(tick=144, channel=11, data=[74, 92]),
   midi.NoteOffEvent(tick=96, channel=11, data=[74, 64]),
   midi.NoteOnEvent(tick=24, channel=11, data=[71, 92]),
   midi.NoteOffEvent(tick=48, channel=11, data=[71, 64]),
   midi.NoteOnEvent(tick=12, channel=11, data=[79, 92]),
   midi.NoteOffEvent(tick=48, channel=11, data=[79, 64]),
   midi.NoteOnEvent(tick=12, channel=11, data=[74, 92]),
   midi.NoteOffEvent(tick=96, channel=11, data=[74, 64]),
   midi.NoteOnEvent(tick=24, channel=11, data=[71, 92]),
   midi.NoteOffEvent(tick=48, channel=11, data=[71, 64]),
   midi.NoteOnEvent(tick=12, channel=11, data=[67, 92]),
   midi.NoteOffEvent(tick=48, channel=11, data=[67, 64]),
   midi.NoteOnEvent(tick=12, channel=11, data=[62, 92]),
   midi.NoteOffEvent(tick=192, channel=11, data=[62, 64]),
   midi.NoteOnEvent(tick=168, channel=11, data=[70, 58]),
   midi.NoteOffEvent(tick=96, channel=11, data=[70, 64]),
   midi.NoteOnEvent(tick=24, channel=11, data=[69, 58]),
   midi.NoteOffEvent(tick=120, channel=11, data=[69, 64]),
   midi.NoteOnEvent(tick=0, channel=11, data=[67, 58]),
   midi.NoteOffEvent(tick=96, channel=11, data=[67, 64]),
   midi.NoteOnEvent(tick=24, channel=11, data=[66, 58]),
   midi.NoteOffEvent(tick=192, channel=11, data=[66, 64]),
   midi.NoteOnEvent(tick=1008, channel=11, data=[62, 98]),
   midi.NoteOffEvent(tick=60, channel=11, data=[62, 64]),
   midi.NoteOnEvent(tick=0, channel=11, data=[61, 58]),
   midi.NoteOffEvent(tick=36, channel=11, data=[61, 64]),
   midi.NoteOnEvent(tick=24, channel=11, data=[62, 58]),
   midi.NoteOffEvent(tick=36, channel=11, data=[62, 64]),
   midi.NoteOnEvent(tick=24, channel=11, data=[62, 58]),
   midi.NoteOffEvent(tick=36, channel=11, data=[62, 64]),
   midi.NoteOnEvent(tick=24, channel=11, data=[62, 58]),
   midi.NoteOffEvent(tick=36, channel=11, data=[62, 64]),
   midi.NoteOnEvent(tick=24, channel=11, data=[62, 58]),
   midi.NoteOffEvent(tick=36, channel=11, data=[62, 64]),
   midi.NoteOnEvent(tick=24, channel=11, data=[62, 58]),
   midi.NoteOffEvent(tick=36, channel=11, data=[62, 64]),
   midi.NoteOnEvent(tick=24, channel=11, data=[62, 58]),
   midi.NoteOffEvent(tick=36, channel=11, data=[62, 64]),
   midi.NoteOnEvent(tick=24, channel=11, data=[62, 58]),
   midi.NoteOffEvent(tick=36, channel=11, data=[62, 64]),
   midi.NoteOnEvent(tick=24, channel=11, data=[62, 58]),
   midi.NoteOffEvent(tick=36, channel=11, data=[62, 64]),
   midi.NoteOnEvent(tick=24, channel=11, data=[62, 58]),
   midi.NoteOffEvent(tick=36, channel=11, data=[62, 64]),
   midi.NoteOnEvent(tick=24, channel=11, data=[62, 58]),
   midi.NoteOffEvent(tick=36, channel=11, data=[62, 64]),
   midi.NoteOnEvent(tick=24, channel=11, data=[62, 58]),
   midi.NoteOffEvent(tick=36, channel=11, data=[62, 64]),
   midi.NoteOnEvent(tick=24, channel=11, data=[74, 58]),
   midi.NoteOffEvent(tick=36, channel=11, data=[74, 64]),
   midi.NoteOnEvent(tick=24, channel=11, data=[74, 58]),
   midi.NoteOffEvent(tick=36, channel=11, data=[74, 64]),
   midi.NoteOnEvent(tick=24, channel=11, data=[74, 58]),
   midi.NoteOffEvent(tick=36, channel=11, data=[74, 64]),
   midi.NoteOnEvent(tick=24, channel=11, data=[74, 58]),
   midi.NoteOffEvent(tick=36, channel=11, data=[74, 64]),
   midi.NoteOnEvent(tick=24, channel=11, data=[74, 58]),
   midi.NoteOffEvent(tick=36, channel=11, data=[74, 64]),
   midi.NoteOnEvent(tick=24, channel=11, data=[74, 58]),
   midi.NoteOffEvent(tick=36, channel=11, data=[74, 64]),
   midi.NoteOnEvent(tick=24, channel=11, data=[74, 58]),
   midi.NoteOffEvent(tick=36, channel=11, data=[74, 64]),
   midi.NoteOnEvent(tick=24, channel=11, data=[74, 58]),
   midi.NoteOffEvent(tick=36, channel=11, data=[74, 64]),
   midi.NoteOnEvent(tick=24, channel=11, data=[74, 58]),
   midi.NoteOffEvent(tick=36, channel=11, data=[74, 64]),
   midi.NoteOnEvent(tick=24, channel=11, data=[74, 58]),
   midi.NoteOffEvent(tick=36, channel=11, data=[74, 64]),
   midi.NoteOnEvent(tick=24, channel=11, data=[74, 58]),
   midi.NoteOffEvent(tick=36, channel=11, data=[74, 64]),
   midi.NoteOnEvent(tick=24, channel=11, data=[76, 78]),
   midi.NoteOffEvent(tick=15, channel=11, data=[76, 64]),
   midi.NoteOnEvent(tick=0, channel=11, data=[74, 78]),
   midi.NoteOffEvent(tick=15, channel=11, data=[74, 64]),
   midi.NoteOnEvent(tick=0, channel=11, data=[76, 78]),
   midi.NoteOffEvent(tick=15, channel=11, data=[76, 64]),
   midi.NoteOnEvent(tick=0, channel=11, data=[74, 78]),
   midi.NoteOffEvent(tick=15, channel=11, data=[74, 64]),
   midi.NoteOnEvent(tick=0, channel=11, data=[73, 58]),
   midi.NoteOffEvent(tick=48, channel=11, data=[73, 64]),
   midi.NoteOnEvent(tick=12, channel=11, data=[74, 58]),
   midi.NoteOffEvent(tick=36, channel=11, data=[74, 64]),
   midi.NoteOnEvent(tick=24, channel=11, data=[74, 58]),
   midi.NoteOffEvent(tick=36, channel=11, data=[74, 64]),
   midi.NoteOnEvent(tick=24, channel=11, data=[74, 58]),
   midi.NoteOffEvent(tick=36, channel=11, data=[74, 64]),
   midi.NoteOnEvent(tick=24, channel=11, data=[74, 58]),
   midi.NoteOffEvent(tick=36, channel=11, data=[74, 64]),
   midi.NoteOnEvent(tick=24, channel=11, data=[74, 58]),
   midi.NoteOffEvent(tick=36, channel=11, data=[74, 64]),
   midi.NoteOnEvent(tick=24, channel=11, data=[74, 58]),
   midi.NoteOffEvent(tick=36, channel=11, data=[74, 64]),
   midi.NoteOnEvent(tick=24, channel=11, data=[74, 58]),
   midi.NoteOffEvent(tick=36, channel=11, data=[74, 64]),
   midi.NoteOnEvent(tick=24, channel=11, data=[74, 58]),
   midi.NoteOffEvent(tick=36, channel=11, data=[74, 64]),
   midi.NoteOnEvent(tick=24, channel=11, data=[74, 58]),
   midi.NoteOffEvent(tick=36, channel=11, data=[74, 64]),
   midi.NoteOnEvent(tick=24, channel=11, data=[74, 58]),
   midi.NoteOffEvent(tick=36, channel=11, data=[74, 64]),
   midi.NoteOnEvent(tick=24, channel=11, data=[74, 58]),
   midi.NoteOffEvent(tick=192, channel=11, data=[74, 64]),
   midi.NoteOnEvent(tick=1248, channel=11, data=[64, 58]),
   midi.NoteOnEvent(tick=0, channel=11, data=[55, 58]),
   midi.NoteOffEvent(tick=576, channel=11, data=[55, 64]),
   midi.NoteOffEvent(tick=0, channel=11, data=[64, 64]),
   midi.NoteOnEvent(tick=144, channel=11, data=[64, 58]),
   midi.NoteOnEvent(tick=0, channel=11, data=[55, 58]),
   midi.NoteOffEvent(tick=96, channel=11, data=[55, 64]),
   midi.NoteOffEvent(tick=0, channel=11, data=[64, 64]),
   midi.NoteOnEvent(tick=144, channel=11, data=[64, 58]),
   midi.NoteOnEvent(tick=0, channel=11, data=[55, 58]),
   midi.NoteOffEvent(tick=96, channel=11, data=[55, 64]),
   midi.NoteOffEvent(tick=0, channel=11, data=[64, 64]),
   midi.NoteOnEvent(tick=144, channel=11, data=[55, 58]),
   midi.NoteOnEvent(tick=0, channel=11, data=[64, 58]),
   midi.NoteOffEvent(tick=96, channel=11, data=[64, 64]),
   midi.NoteOffEvent(tick=0, channel=11, data=[55, 64]),
   midi.NoteOnEvent(tick=144, channel=11, data=[66, 58]),
   midi.NoteOffEvent(tick=60, channel=11, data=[66, 64]),
   midi.NoteOnEvent(tick=0, channel=11, data=[67, 58]),
   midi.NoteOffEvent(tick=60, channel=11, data=[67, 64]),
   midi.NoteOnEvent(tick=0, channel=11, data=[66, 58]),
   midi.NoteOffEvent(tick=60, channel=11, data=[66, 64]),
   midi.NoteOnEvent(tick=0, channel=11, data=[67, 58]),
   midi.NoteOffEvent(tick=60, channel=11, data=[67, 64]),
   midi.NoteOnEvent(tick=0, channel=11, data=[66, 58]),
   midi.NoteOffEvent(tick=36, channel=11, data=[66, 64]),
   midi.NoteOnEvent(tick=24, channel=11, data=[62, 58]),
   midi.NoteOffEvent(tick=36, channel=11, data=[62, 64]),
   midi.NoteOnEvent(tick=24, channel=11, data=[64, 58]),
   midi.NoteOffEvent(tick=36, channel=11, data=[64, 64]),
   midi.NoteOnEvent(tick=24, channel=11, data=[66, 58]),
   midi.NoteOffEvent(tick=36, channel=11, data=[66, 64]),
   midi.NoteOnEvent(tick=24, channel=11, data=[67, 58]),
   midi.NoteOffEvent(tick=36, channel=11, data=[67, 64]),
   midi.NoteOnEvent(tick=24, channel=11, data=[69, 58]),
   midi.NoteOffEvent(tick=36, channel=11, data=[69, 64]),
   midi.NoteOnEvent(tick=24, channel=11, data=[71, 58]),
   midi.NoteOffEvent(tick=36, channel=11, data=[71, 64]),
   midi.NoteOnEvent(tick=24, channel=11, data=[72, 58]),
   midi.NoteOffEvent(tick=36, channel=11, data=[72, 64]),
   midi.NoteOnEvent(tick=24, channel=11, data=[71, 58]),
   midi.NoteOffEvent(tick=144, channel=11, data=[71, 64]),
   midi.NoteOnEvent(tick=36, channel=11, data=[72, 58]),
   midi.NoteOffEvent(tick=48, channel=11, data=[72, 64]),
   midi.NoteOnEvent(tick=12, channel=11, data=[74, 58]),
   midi.NoteOffEvent(tick=120, channel=11, data=[74, 64]),
   midi.NoteOnEvent(tick=0, channel=11, data=[76, 58]),
   midi.NoteOffEvent(tick=120, channel=11, data=[76, 64]),
   midi.NoteOnEvent(tick=0, channel=11, data=[69, 58]),
   midi.NoteOffEvent(tick=120, channel=11, data=[69, 64]),
   midi.NoteOnEvent(tick=0, channel=11, data=[74, 58]),
   midi.NoteOffEvent(tick=96, channel=11, data=[74, 64]),
   midi.NoteOnEvent(tick=24, channel=11, data=[67, 58]),
   midi.NoteOffEvent(tick=144, channel=11, data=[67, 64]),
   midi.NoteOnEvent(tick=36, channel=11, data=[69, 58]),
   midi.NoteOffEvent(tick=24, channel=11, data=[69, 64]),
   midi.NoteOnEvent(tick=6, channel=11, data=[71, 58]),
   midi.NoteOffEvent(tick=24, channel=11, data=[71, 64]),
   midi.NoteOnEvent(tick=6, channel=11, data=[72, 58]),
   midi.NoteOffEvent(tick=360, channel=11, data=[72, 64]),
   midi.NoteOnEvent(tick=0, channel=11, data=[71, 58]),
   midi.NoteOffEvent(tick=96, channel=11, data=[71, 64]),
   midi.NoteOnEvent(tick=24, channel=11, data=[76, 58]),
   midi.NoteOffEvent(tick=96, channel=11, data=[76, 64]),
   midi.NoteOnEvent(tick=24, channel=11, data=[76, 58]),
   midi.NoteOffEvent(tick=48, channel=11, data=[76, 64]),
   midi.NoteOnEvent(tick=12, channel=11, data=[75, 58]),
   midi.NoteOffEvent(tick=48, channel=11, data=[75, 64]),
   midi.NoteOnEvent(tick=12, channel=11, data=[76, 58]),
   midi.NoteOffEvent(tick=288, channel=11, data=[76, 64]),
   midi.NoteOnEvent(tick=72, channel=11, data=[72, 58]),
   midi.NoteOffEvent(tick=60, channel=11, data=[72, 64]),
   midi.NoteOnEvent(tick=0, channel=11, data=[69, 58]),
   midi.NoteOffEvent(tick=48, channel=11, data=[69, 64]),
   midi.NoteOnEvent(tick=12, channel=11, data=[74, 58]),
   midi.NoteOffEvent(tick=96, channel=11, data=[74, 64]),
   midi.NoteOnEvent(tick=24, channel=11, data=[74, 58]),
   midi.NoteOffEvent(tick=48, channel=11, data=[74, 64]),
   midi.NoteOnEvent(tick=12, channel=11, data=[73, 58]),
   midi.NoteOffEvent(tick=48, channel=11, data=[73, 64]),
   midi.NoteOnEvent(tick=12, channel=11, data=[74, 58]),
   midi.NoteOffEvent(tick=300, channel=11, data=[74, 64]),
   midi.NoteOnEvent(tick=0, channel=11, data=[72, 58]),
   midi.NoteOffEvent(tick=60, channel=11, data=[72, 64]),
   midi.NoteOnEvent(tick=0, channel=11, data=[71, 58]),
   midi.NoteOffEvent(tick=60, channel=11, data=[71, 64]),
   midi.NoteOnEvent(tick=0, channel=11, data=[69, 58]),
   midi.NoteOffEvent(tick=48, channel=11, data=[69, 64]),
   midi.NoteOnEvent(tick=12, channel=11, data=[67, 58]),
   midi.NoteOffEvent(tick=60, channel=11, data=[67, 64]),
   midi.NoteOnEvent(tick=0, channel=11, data=[69, 58]),
   midi.NoteOffEvent(tick=60, channel=11, data=[69, 64]),
   midi.NoteOnEvent(tick=0, channel=11, data=[71, 58]),
   midi.NoteOffEvent(tick=60, channel=11, data=[71, 64]),
   midi.NoteOnEvent(tick=0, channel=11, data=[67, 58]),
   midi.NoteOffEvent(tick=60, channel=11, data=[67, 64]),
   midi.NoteOnEvent(tick=0, channel=11, data=[69, 58]),
   midi.NoteOffEvent(tick=60, channel=11, data=[69, 64]),
   midi.NoteOnEvent(tick=0, channel=11, data=[71, 58]),
   midi.NoteOffEvent(tick=60, channel=11, data=[71, 64]),
   midi.NoteOnEvent(tick=0, channel=11, data=[72, 58]),
   midi.NoteOffEvent(tick=60, channel=11, data=[72, 64]),
   midi.NoteOnEvent(tick=0, channel=11, data=[69, 58]),
   midi.NoteOffEvent(tick=60, channel=11, data=[69, 64]),
   midi.NoteOnEvent(tick=0, channel=11, data=[66, 58]),
   midi.NoteOffEvent(tick=60, channel=11, data=[66, 64]),
   midi.NoteOnEvent(tick=0, channel=11, data=[67, 58]),
   midi.NoteOffEvent(tick=60, channel=11, data=[67, 64]),
   midi.NoteOnEvent(tick=0, channel=11, data=[69, 58]),
   midi.NoteOffEvent(tick=60, channel=11, data=[69, 64]),
   midi.NoteOnEvent(tick=0, channel=11, data=[66, 58]),
   midi.NoteOffEvent(tick=48, channel=11, data=[66, 64]),
   midi.NoteOnEvent(tick=12, channel=11, data=[67, 78]),
   midi.NoteOffEvent(tick=60, channel=11, data=[67, 64]),
   midi.NoteOnEvent(tick=0, channel=11, data=[62, 78]),
   midi.NoteOffEvent(tick=39, channel=11, data=[62, 64]),
   midi.NoteOnEvent(tick=21, channel=11, data=[59, 58]),
   midi.NoteOffEvent(tick=39, channel=11, data=[59, 64]),
   midi.NoteOnEvent(tick=21, channel=11, data=[62, 58]),
   midi.NoteOffEvent(tick=39, channel=11, data=[62, 64]),
   midi.NoteOnEvent(tick=21, channel=11, data=[59, 58]),
   midi.NoteOffEvent(tick=60, channel=11, data=[59, 64]),
   midi.NoteOnEvent(tick=0, channel=11, data=[62, 58]),
   midi.NoteOffEvent(tick=60, channel=11, data=[62, 64]),
   midi.NoteOnEvent(tick=0, channel=11, data=[59, 58]),
   midi.NoteOffEvent(tick=60, channel=11, data=[59, 64]),
   midi.NoteOnEvent(tick=0, channel=11, data=[62, 58]),
   midi.NoteOffEvent(tick=60, channel=11, data=[62, 64]),
   midi.NoteOnEvent(tick=0, channel=11, data=[59, 58]),
   midi.NoteOffEvent(tick=60, channel=11, data=[59, 64]),
   midi.NoteOnEvent(tick=0, channel=11, data=[62, 58]),
   midi.NoteOffEvent(tick=60, channel=11, data=[62, 64]),
   midi.NoteOnEvent(tick=0, channel=11, data=[59, 58]),
   midi.NoteOffEvent(tick=60, channel=11, data=[59, 64]),
   midi.NoteOnEvent(tick=0, channel=11, data=[62, 58]),
   midi.NoteOffEvent(tick=48, channel=11, data=[62, 64]),
   midi.NoteOnEvent(tick=12, channel=11, data=[55, 58]),
   midi.NoteOffEvent(tick=60, channel=11, data=[55, 64]),
   midi.NoteOnEvent(tick=0, channel=11, data=[64, 58]),
   midi.NoteOffEvent(tick=60, channel=11, data=[64, 64]),
   midi.NoteOnEvent(tick=0, channel=11, data=[55, 58]),
   midi.NoteOffEvent(tick=60, channel=11, data=[55, 64]),
   midi.NoteOnEvent(tick=0, channel=11, data=[64, 58]),
   midi.NoteOffEvent(tick=60, channel=11, data=[64, 64]),
   midi.NoteOnEvent(tick=0, channel=11, data=[55, 58]),
   midi.NoteOffEvent(tick=60, channel=11, data=[55, 64]),
   midi.NoteOnEvent(tick=0, channel=11, data=[64, 58]),
   midi.NoteOffEvent(tick=60, channel=11, data=[64, 64]),
   midi.NoteOnEvent(tick=0, channel=11, data=[55, 58]),
   midi.NoteOffEvent(tick=60, channel=11, data=[55, 64]),
   midi.NoteOnEvent(tick=0, channel=11, data=[64, 58]),
   midi.NoteOffEvent(tick=48, channel=11, data=[64, 64]),
   midi.NoteOnEvent(tick=12, channel=11, data=[57, 58]),
   midi.NoteOffEvent(tick=30, channel=11, data=[57, 64]),
   midi.NoteOnEvent(tick=30, channel=11, data=[57, 58]),
   midi.NoteOffEvent(tick=60, channel=11, data=[57, 64]),
   midi.NoteOnEvent(tick=0, channel=11, data=[59, 58]),
   midi.NoteOffEvent(tick=60, channel=11, data=[59, 64]),
   midi.NoteOnEvent(tick=0, channel=11, data=[60, 58]),
   midi.NoteOffEvent(tick=60, channel=11, data=[60, 64]),
   midi.NoteOnEvent(tick=0, channel=11, data=[59, 78]),
   midi.NoteOffEvent(tick=60, channel=11, data=[59, 64]),
   midi.NoteOnEvent(tick=0, channel=11, data=[62, 78]),
   midi.NoteOffEvent(tick=60, channel=11, data=[62, 64]),
   midi.NoteOnEvent(tick=0, channel=11, data=[59, 58]),
   midi.NoteOffEvent(tick=60, channel=11, data=[59, 64]),
   midi.NoteOnEvent(tick=0, channel=11, data=[62, 58]),
   midi.NoteOffEvent(tick=60, channel=11, data=[62, 64]),
   midi.NoteOnEvent(tick=0, channel=11, data=[59, 58]),
   midi.NoteOffEvent(tick=60, channel=11, data=[59, 64]),
   midi.NoteOnEvent(tick=0, channel=11, data=[62, 58]),
   midi.NoteOffEvent(tick=60, channel=11, data=[62, 64]),
   midi.NoteOnEvent(tick=0, channel=11, data=[59, 58]),
   midi.NoteOffEvent(tick=60, channel=11, data=[59, 64]),
   midi.NoteOnEvent(tick=0, channel=11, data=[62, 58]),
   midi.NoteOffEvent(tick=60, channel=11, data=[62, 64]),
   midi.NoteOnEvent(tick=0, channel=11, data=[59, 58]),
   midi.NoteOffEvent(tick=60, channel=11, data=[59, 64]),
   midi.NoteOnEvent(tick=0, channel=11, data=[62, 58]),
   midi.NoteOffEvent(tick=60, channel=11, data=[62, 64]),
   midi.NoteOnEvent(tick=0, channel=11, data=[59, 58]),
   midi.NoteOffEvent(tick=60, channel=11, data=[59, 64]),
   midi.NoteOnEvent(tick=0, channel=11, data=[62, 58]),
   midi.NoteOffEvent(tick=48, channel=11, data=[62, 64]),
   midi.NoteOnEvent(tick=12, channel=11, data=[55, 58]),
   midi.NoteOffEvent(tick=60, channel=11, data=[55, 64]),
   midi.NoteOnEvent(tick=0, channel=11, data=[64, 58]),
   midi.NoteOffEvent(tick=60, channel=11, data=[64, 64]),
   midi.NoteOnEvent(tick=0, channel=11, data=[55, 58]),
   midi.NoteOffEvent(tick=60, channel=11, data=[55, 64]),
   midi.NoteOnEvent(tick=0, channel=11, data=[64, 58]),
   midi.NoteOffEvent(tick=60, channel=11, data=[64, 64]),
   midi.NoteOnEvent(tick=0, channel=11, data=[55, 58]),
   midi.NoteOffEvent(tick=60, channel=11, data=[55, 64]),
   midi.NoteOnEvent(tick=0, channel=11, data=[64, 58]),
   midi.NoteOffEvent(tick=60, channel=11, data=[64, 64]),
   midi.NoteOnEvent(tick=0, channel=11, data=[55, 58]),
   midi.NoteOffEvent(tick=60, channel=11, data=[55, 64]),
   midi.NoteOnEvent(tick=0, channel=11, data=[64, 58]),
   midi.NoteOffEvent(tick=48, channel=11, data=[64, 64]),
   midi.NoteOnEvent(tick=12, channel=11, data=[57, 58]),
   midi.NoteOffEvent(tick=30, channel=11, data=[57, 64]),
   midi.NoteOnEvent(tick=30, channel=11, data=[57, 58]),
   midi.NoteOffEvent(tick=60, channel=11, data=[57, 64]),
   midi.NoteOnEvent(tick=0, channel=11, data=[59, 58]),
   midi.NoteOffEvent(tick=60, channel=11, data=[59, 64]),
   midi.NoteOnEvent(tick=0, channel=11, data=[60, 58]),
   midi.NoteOffEvent(tick=60, channel=11, data=[60, 64]),
   midi.NoteOnEvent(tick=0, channel=11, data=[59, 58]),
   midi.NoteOffEvent(tick=36, channel=11, data=[59, 64]),
   midi.NoteOnEvent(tick=24, channel=11, data=[62, 58]),
   midi.NoteOffEvent(tick=36, channel=11, data=[62, 64]),
   midi.NoteOnEvent(tick=24, channel=11, data=[55, 58]),
   midi.NoteOffEvent(tick=48, channel=11, data=[55, 64]),
   midi.NoteOnEvent(tick=12, channel=11, data=[62, 58]),
   midi.NoteOffEvent(tick=36, channel=11, data=[62, 64]),
   midi.NoteOnEvent(tick=24, channel=11, data=[55, 58]),
   midi.NoteOffEvent(tick=48, channel=11, data=[55, 64]),
   midi.NoteOnEvent(tick=12, channel=11, data=[62, 58]),
   midi.NoteOffEvent(tick=36, channel=11, data=[62, 64]),
   midi.NoteOnEvent(tick=24, channel=11, data=[59, 58]),
   midi.NoteOffEvent(tick=36, channel=11, data=[59, 64]),
   midi.NoteOnEvent(tick=24, channel=11, data=[62, 58]),
   midi.NoteOffEvent(tick=36, channel=11, data=[62, 64]),
   midi.NoteOnEvent(tick=24, channel=11, data=[57, 58]),
   midi.NoteOffEvent(tick=36, channel=11, data=[57, 64]),
   midi.NoteOnEvent(tick=24, channel=11, data=[62, 58]),
   midi.NoteOffEvent(tick=36, channel=11, data=[62, 64]),
   midi.NoteOnEvent(tick=24, channel=11, data=[60, 58]),
   midi.NoteOffEvent(tick=36, channel=11, data=[60, 64]),
   midi.NoteOnEvent(tick=24, channel=11, data=[62, 58]),
   midi.NoteOffEvent(tick=36, channel=11, data=[62, 64]),
   midi.NoteOnEvent(tick=24, channel=11, data=[59, 70]),
   midi.NoteOffEvent(tick=36, channel=11, data=[59, 64]),
   midi.NoteOnEvent(tick=24, channel=11, data=[67, 70]),
   midi.NoteOffEvent(tick=36, channel=11, data=[67, 64]),
   midi.NoteOnEvent(tick=24, channel=11, data=[62, 70]),
   midi.NoteOffEvent(tick=36, channel=11, data=[62, 64]),
   midi.NoteOnEvent(tick=24, channel=11, data=[67, 70]),
   midi.NoteOffEvent(tick=36, channel=11, data=[67, 64]),
   midi.NoteOnEvent(tick=24, channel=11, data=[60, 70]),
   midi.NoteOffEvent(tick=36, channel=11, data=[60, 64]),
   midi.NoteOnEvent(tick=24, channel=11, data=[67, 70]),
   midi.NoteOffEvent(tick=36, channel=11, data=[67, 64]),
   midi.NoteOnEvent(tick=24, channel=11, data=[64, 70]),
   midi.NoteOffEvent(tick=36, channel=11, data=[64, 64]),
   midi.NoteOnEvent(tick=24, channel=11, data=[67, 70]),
   midi.NoteOffEvent(tick=36, channel=11, data=[67, 64]),
   midi.NoteOnEvent(tick=24, channel=11, data=[62, 80]),
   midi.NoteOffEvent(tick=36, channel=11, data=[62, 64]),
   midi.NoteOnEvent(tick=24, channel=11, data=[72, 80]),
   midi.NoteOffEvent(tick=36, channel=11, data=[72, 64]),
   midi.NoteOnEvent(tick=24, channel=11, data=[69, 80]),
   midi.NoteOffEvent(tick=36, channel=11, data=[69, 64]),
   midi.NoteOnEvent(tick=24, channel=11, data=[72, 80]),
   midi.NoteOffEvent(tick=36, channel=11, data=[72, 64]),
   midi.NoteOnEvent(tick=24, channel=11, data=[62, 80]),
   midi.NoteOffEvent(tick=36, channel=11, data=[62, 64]),
   midi.NoteOnEvent(tick=24, channel=11, data=[71, 80]),
   midi.NoteOffEvent(tick=36, channel=11, data=[71, 64]),
   midi.NoteOnEvent(tick=24, channel=11, data=[67, 80]),
   midi.NoteOffEvent(tick=36, channel=11, data=[67, 64]),
   midi.NoteOnEvent(tick=24, channel=11, data=[71, 80]),
   midi.NoteOffEvent(tick=36, channel=11, data=[71, 64]),
   midi.NoteOnEvent(tick=24, channel=11, data=[62, 92]),
   midi.NoteOffEvent(tick=36, channel=11, data=[62, 64]),
   midi.NoteOnEvent(tick=24, channel=11, data=[72, 92]),
   midi.NoteOffEvent(tick=36, channel=11, data=[72, 64]),
   midi.NoteOnEvent(tick=24, channel=11, data=[69, 92]),
   midi.NoteOffEvent(tick=36, channel=11, data=[69, 64]),
   midi.NoteOnEvent(tick=24, channel=11, data=[72, 92]),
   midi.NoteOffEvent(tick=36, channel=11, data=[72, 64]),
   midi.NoteOnEvent(tick=24, channel=11, data=[62, 105]),
   midi.NoteOffEvent(tick=36, channel=11, data=[62, 64]),
   midi.NoteOnEvent(tick=24, channel=11, data=[74, 105]),
   midi.NoteOffEvent(tick=36, channel=11, data=[74, 64]),
   midi.NoteOnEvent(tick=24, channel=11, data=[71, 105]),
   midi.NoteOffEvent(tick=36, channel=11, data=[71, 64]),
   midi.NoteOnEvent(tick=24, channel=11, data=[74, 105]),
   midi.NoteOffEvent(tick=36, channel=11, data=[74, 64]),
   midi.NoteOnEvent(tick=24, channel=11, data=[76, 105]),
   midi.NoteOffEvent(tick=192, channel=11, data=[76, 64]),
   midi.NoteOnEvent(tick=408, channel=11, data=[60, 58]),
   midi.NoteOffEvent(tick=78, channel=11, data=[60, 64]),
   midi.NoteOnEvent(tick=42, channel=11, data=[60, 58]),
   midi.NoteOffEvent(tick=384, channel=11, data=[60, 64]),
   midi.NoteOnEvent(tick=96, channel=11, data=[59, 58]),
   midi.NoteOffEvent(tick=120, channel=11, data=[59, 64]),
   midi.EndOfTrackEvent(tick=0, data=[])]),
 midi.Track(\
  [midi.ProgramChangeEvent(tick=0, channel=12, data=[48]),
   midi.ControlChangeEvent(tick=0, channel=12, data=[7, 123]),
   midi.ControlChangeEvent(tick=0, channel=12, data=[10, 98]),
   midi.ControlChangeEvent(tick=0, channel=12, data=[91, 70]),
   midi.NoteOnEvent(tick=720, channel=12, data=[55, 58]),
   midi.NoteOffEvent(tick=192, channel=12, data=[55, 64]),
   midi.NoteOnEvent(tick=528, channel=12, data=[50, 58]),
   midi.NoteOffEvent(tick=288, channel=12, data=[50, 64]),
   midi.NoteOnEvent(tick=72, channel=12, data=[54, 58]),
   midi.NoteOffEvent(tick=120, channel=12, data=[54, 64]),
   midi.NoteOnEvent(tick=0, channel=12, data=[55, 58]),
   midi.NoteOffEvent(tick=120, channel=12, data=[55, 64]),
   midi.NoteOnEvent(tick=0, channel=12, data=[57, 58]),
   midi.NoteOffEvent(tick=96, channel=12, data=[57, 64]),
   midi.NoteOnEvent(tick=24, channel=12, data=[57, 58]),
   midi.NoteOffEvent(tick=240, channel=12, data=[57, 64]),
   midi.NoteOnEvent(tick=0, channel=12, data=[55, 58]),
   midi.NoteOffEvent(tick=144, channel=12, data=[55, 64]),
   midi.NoteOnEvent(tick=36, channel=12, data=[59, 58]),
   midi.NoteOffEvent(tick=39, channel=12, data=[59, 64]),
   midi.NoteOnEvent(tick=21, channel=12, data=[57, 58]),
   midi.NoteOffEvent(tick=180, channel=12, data=[57, 64]),
   midi.NoteOnEvent(tick=0, channel=12, data=[60, 58]),
   midi.NoteOffEvent(tick=48, channel=12, data=[60, 64]),
   midi.NoteOnEvent(tick=12, channel=12, data=[60, 58]),
   midi.NoteOffEvent(tick=192, channel=12, data=[60, 64]),
   midi.NoteOnEvent(tick=48, channel=12, data=[59, 58]),
   midi.NoteOffEvent(tick=96, channel=12, data=[59, 64]),
   midi.NoteOnEvent(tick=744, channel=12, data=[66, 58]),
   midi.NoteOffEvent(tick=72, channel=12, data=[66, 64]),
   midi.NoteOnEvent(tick=48, channel=12, data=[67, 58]),
   midi.NoteOffEvent(tick=72, channel=12, data=[67, 64]),
   midi.NoteOnEvent(tick=48, channel=12, data=[64, 58]),
   midi.NoteOffEvent(tick=72, channel=12, data=[64, 64]),
   midi.NoteOnEvent(tick=48, channel=12, data=[69, 58]),
   midi.NoteOffEvent(tick=900, channel=12, data=[69, 64]),
   midi.NoteOnEvent(tick=0, channel=12, data=[67, 58]),
   midi.NoteOffEvent(tick=48, channel=12, data=[67, 64]),
   midi.NoteOnEvent(tick=12, channel=12, data=[66, 58]),
   midi.NoteOffEvent(tick=240, channel=12, data=[66, 64]),
   midi.NoteOnEvent(tick=0, channel=12, data=[66, 58]),
   midi.NoteOffEvent(tick=15, channel=12, data=[66, 64]),
   midi.NoteOnEvent(tick=0, channel=12, data=[64, 58]),
   midi.NoteOffEvent(tick=15, channel=12, data=[64, 64]),
   midi.NoteOnEvent(tick=0, channel=12, data=[66, 58]),
   midi.NoteOffEvent(tick=15, channel=12, data=[66, 64]),
   midi.NoteOnEvent(tick=0, channel=12, data=[64, 58]),
   midi.NoteOffEvent(tick=15, channel=12, data=[64, 64]),
   midi.NoteOnEvent(tick=0, channel=12, data=[66, 58]),
   midi.NoteOffEvent(tick=15, channel=12, data=[66, 64]),
   midi.NoteOnEvent(tick=0, channel=12, data=[64, 58]),
   midi.NoteOffEvent(tick=15, channel=12, data=[64, 64]),
   midi.NoteOnEvent(tick=0, channel=12, data=[66, 58]),
   midi.NoteOffEvent(tick=15, channel=12, data=[66, 64]),
   midi.NoteOnEvent(tick=0, channel=12, data=[64, 58]),
   midi.NoteOffEvent(tick=15, channel=12, data=[64, 64]),
   midi.NoteOnEvent(tick=0, channel=12, data=[66, 58]),
   midi.NoteOffEvent(tick=15, channel=12, data=[66, 64]),
   midi.NoteOnEvent(tick=0, channel=12, data=[64, 58]),
   midi.NoteOffEvent(tick=15, channel=12, data=[64, 64]),
   midi.NoteOnEvent(tick=0, channel=12, data=[66, 58]),
   midi.NoteOffEvent(tick=15, channel=12, data=[66, 64]),
   midi.NoteOnEvent(tick=0, channel=12, data=[64, 58]),
   midi.NoteOffEvent(tick=15, channel=12, data=[64, 64]),
   midi.NoteOnEvent(tick=0, channel=12, data=[66, 58]),
   midi.NoteOffEvent(tick=15, channel=12, data=[66, 64]),
   midi.NoteOnEvent(tick=0, channel=12, data=[64, 58]),
   midi.NoteOffEvent(tick=15, channel=12, data=[64, 64]),
   midi.NoteOnEvent(tick=0, channel=12, data=[66, 58]),
   midi.NoteOffEvent(tick=15, channel=12, data=[66, 64]),
   midi.NoteOnEvent(tick=0, channel=12, data=[64, 58]),
   midi.NoteOffEvent(tick=15, channel=12, data=[64, 64]),
   midi.NoteOnEvent(tick=0, channel=12, data=[62, 58]),
   midi.NoteOffEvent(tick=192, channel=12, data=[62, 64]),
   midi.NoteOnEvent(tick=168, channel=12, data=[66, 58]),
   midi.NoteOffEvent(tick=72, channel=12, data=[66, 64]),
   midi.NoteOnEvent(tick=48, channel=12, data=[62, 58]),
   midi.NoteOffEvent(tick=72, channel=12, data=[62, 64]),
   midi.NoteOnEvent(tick=48, channel=12, data=[66, 58]),
   midi.NoteOffEvent(tick=72, channel=12, data=[66, 64]),
   midi.NoteOnEvent(tick=48, channel=12, data=[61, 78]),
   midi.NoteOffEvent(tick=288, channel=12, data=[61, 64]),
   midi.NoteOnEvent(tick=72, channel=12, data=[62, 58]),
   midi.NoteOffEvent(tick=72, channel=12, data=[62, 64]),
   midi.NoteOnEvent(tick=48, channel=12, data=[57, 58]),
   midi.NoteOffEvent(tick=72, channel=12, data=[57, 64]),
   midi.NoteOnEvent(tick=48, channel=12, data=[59, 58]),
   midi.NoteOffEvent(tick=72, channel=12, data=[59, 64]),
   midi.NoteOnEvent(tick=48, channel=12, data=[64, 58]),
   midi.NoteOffEvent(tick=30, channel=12, data=[64, 64]),
   midi.NoteOnEvent(tick=0, channel=12, data=[62, 58]),
   midi.NoteOffEvent(tick=30, channel=12, data=[62, 64]),
   midi.NoteOnEvent(tick=0, channel=12, data=[61, 58]),
   midi.NoteOffEvent(tick=48, channel=12, data=[61, 64]),
   midi.NoteOnEvent(tick=252, channel=12, data=[66, 58]),
   midi.NoteOffEvent(tick=72, channel=12, data=[66, 64]),
   midi.NoteOnEvent(tick=48, channel=12, data=[62, 58]),
   midi.NoteOffEvent(tick=72, channel=12, data=[62, 64]),
   midi.NoteOnEvent(tick=48, channel=12, data=[66, 58]),
   midi.NoteOffEvent(tick=72, channel=12, data=[66, 64]),
   midi.NoteOnEvent(tick=48, channel=12, data=[61, 78]),
   midi.NoteOffEvent(tick=288, channel=12, data=[61, 64]),
   midi.NoteOnEvent(tick=72, channel=12, data=[62, 58]),
   midi.NoteOffEvent(tick=72, channel=12, data=[62, 64]),
   midi.NoteOnEvent(tick=48, channel=12, data=[57, 58]),
   midi.NoteOffEvent(tick=72, channel=12, data=[57, 64]),
   midi.NoteOnEvent(tick=48, channel=12, data=[59, 58]),
   midi.NoteOffEvent(tick=72, channel=12, data=[59, 64]),
   midi.NoteOnEvent(tick=48, channel=12, data=[61, 58]),
   midi.NoteOffEvent(tick=192, channel=12, data=[61, 64]),
   midi.NoteOnEvent(tick=48, channel=12, data=[57, 58]),
   midi.NoteOffEvent(tick=300, channel=12, data=[57, 64]),
   midi.NoteOnEvent(tick=0, channel=12, data=[56, 58]),
   midi.NoteOffEvent(tick=60, channel=12, data=[56, 64]),
   midi.NoteOnEvent(tick=0, channel=12, data=[57, 58]),
   midi.NoteOffEvent(tick=60, channel=12, data=[57, 64]),
   midi.NoteOnEvent(tick=0, channel=12, data=[55, 58]),
   midi.NoteOffEvent(tick=48, channel=12, data=[55, 64]),
   midi.NoteOnEvent(tick=12, channel=12, data=[54, 58]),
   midi.NoteOffEvent(tick=144, channel=12, data=[54, 64]),
   midi.NoteOnEvent(tick=36, channel=12, data=[55, 58]),
   midi.NoteOffEvent(tick=48, channel=12, data=[55, 64]),
   midi.NoteOnEvent(tick=12, channel=12, data=[57, 58]),
   midi.NoteOffEvent(tick=120, channel=12, data=[57, 64]),
   midi.NoteOnEvent(tick=0, channel=12, data=[59, 58]),
   midi.NoteOffEvent(tick=120, channel=12, data=[59, 64]),
   midi.NoteOnEvent(tick=0, channel=12, data=[52, 58]),
   midi.NoteOffEvent(tick=120, channel=12, data=[52, 64]),
   midi.NoteOnEvent(tick=0, channel=12, data=[57, 58]),
   midi.NoteOffEvent(tick=96, channel=12, data=[57, 64]),
   midi.NoteOnEvent(tick=24, channel=12, data=[50, 58]),
   midi.NoteOffEvent(tick=157, channel=12, data=[50, 64]),
   midi.NoteOnEvent(tick=23, channel=12, data=[52, 58]),
   midi.NoteOffEvent(tick=26, channel=12, data=[52, 64]),
   midi.NoteOnEvent(tick=4, channel=12, data=[54, 58]),
   midi.NoteOffEvent(tick=26, channel=12, data=[54, 64]),
   midi.NoteOnEvent(tick=4, channel=12, data=[55, 58]),
   midi.NoteOffEvent(tick=360, channel=12, data=[55, 64]),
   midi.NoteOnEvent(tick=0, channel=12, data=[54, 58]),
   midi.NoteOffEvent(tick=96, channel=12, data=[54, 64]),
   midi.NoteOnEvent(tick=24, channel=12, data=[54, 58]),
   midi.NoteOffEvent(tick=30, channel=12, data=[54, 64]),
   midi.NoteOnEvent(tick=0, channel=12, data=[52, 58]),
   midi.NoteOffEvent(tick=68, channel=12, data=[52, 64]),
   midi.NoteOnEvent(tick=22, channel=12, data=[52, 58]),
   midi.NoteOffEvent(tick=78, channel=12, data=[52, 64]),
   midi.NoteOnEvent(tick=42, channel=12, data=[54, 58]),
   midi.NoteOffEvent(tick=30, channel=12, data=[54, 64]),
   midi.NoteOnEvent(tick=0, channel=12, data=[52, 58]),
   midi.NoteOffEvent(tick=68, channel=12, data=[52, 64]),
   midi.NoteOnEvent(tick=22, channel=12, data=[52, 58]),
   midi.NoteOffEvent(tick=78, channel=12, data=[52, 64]),
   midi.NoteOnEvent(tick=42, channel=12, data=[54, 58]),
   midi.NoteOffEvent(tick=30, channel=12, data=[54, 64]),
   midi.NoteOnEvent(tick=0, channel=12, data=[52, 58]),
   midi.NoteOffEvent(tick=68, channel=12, data=[52, 64]),
   midi.NoteOnEvent(tick=22, channel=12, data=[52, 58]),
   midi.NoteOffEvent(tick=78, channel=12, data=[52, 64]),
   midi.NoteOnEvent(tick=42, channel=12, data=[52, 58]),
   midi.NoteOffEvent(tick=60, channel=12, data=[52, 64]),
   midi.NoteOnEvent(tick=0, channel=12, data=[54, 58]),
   midi.NoteOffEvent(tick=60, channel=12, data=[54, 64]),
   midi.NoteOnEvent(tick=0, channel=12, data=[52, 58]),
   midi.NoteOffEvent(tick=60, channel=12, data=[52, 64]),
   midi.NoteOnEvent(tick=0, channel=12, data=[54, 58]),
   midi.NoteOffEvent(tick=60, channel=12, data=[54, 64]),
   midi.NoteOnEvent(tick=0, channel=12, data=[52, 58]),
   midi.NoteOffEvent(tick=144, channel=12, data=[52, 64]),
   midi.NoteOnEvent(tick=36, channel=12, data=[49, 58]),
   midi.NoteOffEvent(tick=36, channel=12, data=[49, 64]),
   midi.NoteOnEvent(tick=24, channel=12, data=[50, 58]),
   midi.NoteOffEvent(tick=36, channel=12, data=[50, 64]),
   midi.NoteOnEvent(tick=24, channel=12, data=[52, 58]),
   midi.NoteOffEvent(tick=36, channel=12, data=[52, 64]),
   midi.NoteOnEvent(tick=24, channel=12, data=[54, 58]),
   midi.NoteOffEvent(tick=36, channel=12, data=[54, 64]),
   midi.NoteOnEvent(tick=24, channel=12, data=[55, 58]),
   midi.NoteOffEvent(tick=36, channel=12, data=[55, 64]),
   midi.NoteOnEvent(tick=24, channel=12, data=[54, 58]),
   midi.NoteOffEvent(tick=144, channel=12, data=[54, 64]),
   midi.NoteOnEvent(tick=36, channel=12, data=[55, 58]),
   midi.NoteOffEvent(tick=48, channel=12, data=[55, 64]),
   midi.NoteOnEvent(tick=12, channel=12, data=[57, 58]),
   midi.NoteOffEvent(tick=120, channel=12, data=[57, 64]),
   midi.NoteOnEvent(tick=0, channel=12, data=[59, 58]),
   midi.NoteOffEvent(tick=120, channel=12, data=[59, 64]),
   midi.NoteOnEvent(tick=0, channel=12, data=[52, 58]),
   midi.NoteOffEvent(tick=120, channel=12, data=[52, 64]),
   midi.NoteOnEvent(tick=0, channel=12, data=[57, 58]),
   midi.NoteOffEvent(tick=96, channel=12, data=[57, 64]),
   midi.NoteOnEvent(tick=24, channel=12, data=[50, 58]),
   midi.NoteOffEvent(tick=157, channel=12, data=[50, 64]),
   midi.NoteOnEvent(tick=23, channel=12, data=[52, 58]),
   midi.NoteOffEvent(tick=26, channel=12, data=[52, 64]),
   midi.NoteOnEvent(tick=4, channel=12, data=[54, 58]),
   midi.NoteOffEvent(tick=26, channel=12, data=[54, 64]),
   midi.NoteOnEvent(tick=4, channel=12, data=[55, 58]),
   midi.NoteOffEvent(tick=360, channel=12, data=[55, 64]),
   midi.NoteOnEvent(tick=0, channel=12, data=[54, 58]),
   midi.NoteOffEvent(tick=96, channel=12, data=[54, 64]),
   midi.NoteOnEvent(tick=24, channel=12, data=[52, 58]),
   midi.NoteOffEvent(tick=60, channel=12, data=[52, 64]),
   midi.NoteOnEvent(tick=0, channel=12, data=[59, 58]),
   midi.NoteOffEvent(tick=60, channel=12, data=[59, 64]),
   midi.NoteOnEvent(tick=0, channel=12, data=[55, 58]),
   midi.NoteOffEvent(tick=60, channel=12, data=[55, 64]),
   midi.NoteOnEvent(tick=0, channel=12, data=[52, 58]),
   midi.NoteOffEvent(tick=60, channel=12, data=[52, 64]),
   midi.NoteOnEvent(tick=0, channel=12, data=[50, 58]),
   midi.NoteOffEvent(tick=192, channel=12, data=[50, 64]),
   midi.NoteOnEvent(tick=48, channel=12, data=[54, 58]),
   midi.NoteOffEvent(tick=15, channel=12, data=[54, 64]),
   midi.NoteOnEvent(tick=0, channel=12, data=[52, 58]),
   midi.NoteOffEvent(tick=15, channel=12, data=[52, 64]),
   midi.NoteOnEvent(tick=0, channel=12, data=[54, 58]),
   midi.NoteOffEvent(tick=15, channel=12, data=[54, 64]),
   midi.NoteOnEvent(tick=0, channel=12, data=[52, 58]),
   midi.NoteOffEvent(tick=15, channel=12, data=[52, 64]),
   midi.NoteOnEvent(tick=0, channel=12, data=[54, 58]),
   midi.NoteOffEvent(tick=15, channel=12, data=[54, 64]),
   midi.NoteOnEvent(tick=0, channel=12, data=[52, 58]),
   midi.NoteOffEvent(tick=15, channel=12, data=[52, 64]),
   midi.NoteOnEvent(tick=0, channel=12, data=[54, 58]),
   midi.NoteOffEvent(tick=15, channel=12, data=[54, 64]),
   midi.NoteOnEvent(tick=0, channel=12, data=[52, 58]),
   midi.NoteOffEvent(tick=15, channel=12, data=[52, 64]),
   midi.NoteOnEvent(tick=0, channel=12, data=[54, 58]),
   midi.NoteOffEvent(tick=15, channel=12, data=[54, 64]),
   midi.NoteOnEvent(tick=0, channel=12, data=[52, 58]),
   midi.NoteOffEvent(tick=15, channel=12, data=[52, 64]),
   midi.NoteOnEvent(tick=0, channel=12, data=[54, 58]),
   midi.NoteOffEvent(tick=15, channel=12, data=[54, 64]),
   midi.NoteOnEvent(tick=0, channel=12, data=[52, 58]),
   midi.NoteOffEvent(tick=15, channel=12, data=[52, 64]),
   midi.NoteOnEvent(tick=0, channel=12, data=[54, 58]),
   midi.NoteOffEvent(tick=15, channel=12, data=[54, 64]),
   midi.NoteOnEvent(tick=0, channel=12, data=[52, 58]),
   midi.NoteOffEvent(tick=15, channel=12, data=[52, 64]),
   midi.NoteOnEvent(tick=0, channel=12, data=[54, 58]),
   midi.NoteOffEvent(tick=15, channel=12, data=[54, 64]),
   midi.NoteOnEvent(tick=0, channel=12, data=[52, 58]),
   midi.NoteOffEvent(tick=15, channel=12, data=[52, 64]),
   midi.NoteOnEvent(tick=0, channel=12, data=[50, 98]),
   midi.NoteOffEvent(tick=60, channel=12, data=[50, 64]),
   midi.NoteOnEvent(tick=0, channel=12, data=[57, 78]),
   midi.NoteOffEvent(tick=39, channel=12, data=[57, 64]),
   midi.NoteOnEvent(tick=21, channel=12, data=[62, 58]),
   midi.NoteOffEvent(tick=39, channel=12, data=[62, 64]),
   midi.NoteOnEvent(tick=21, channel=12, data=[57, 58]),
   midi.NoteOffEvent(tick=39, channel=12, data=[57, 64]),
   midi.NoteOnEvent(tick=21, channel=12, data=[62, 58]),
   midi.NoteOffEvent(tick=60, channel=12, data=[62, 64]),
   midi.NoteOnEvent(tick=0, channel=12, data=[57, 58]),
   midi.NoteOffEvent(tick=60, channel=12, data=[57, 64]),
   midi.NoteOnEvent(tick=0, channel=12, data=[62, 58]),
   midi.NoteOffEvent(tick=60, channel=12, data=[62, 64]),
   midi.NoteOnEvent(tick=0, channel=12, data=[57, 58]),
   midi.NoteOffEvent(tick=60, channel=12, data=[57, 64]),
   midi.NoteOnEvent(tick=0, channel=12, data=[62, 58]),
   midi.NoteOffEvent(tick=60, channel=12, data=[62, 64]),
   midi.NoteOnEvent(tick=0, channel=12, data=[57, 58]),
   midi.NoteOffEvent(tick=60, channel=12, data=[57, 64]),
   midi.NoteOnEvent(tick=0, channel=12, data=[62, 58]),
   midi.NoteOffEvent(tick=60, channel=12, data=[62, 64]),
   midi.NoteOnEvent(tick=0, channel=12, data=[57, 58]),
   midi.NoteOffEvent(tick=48, channel=12, data=[57, 64]),
   midi.NoteOnEvent(tick=12, channel=12, data=[59, 58]),
   midi.NoteOffEvent(tick=60, channel=12, data=[59, 64]),
   midi.NoteOnEvent(tick=0, channel=12, data=[62, 58]),
   midi.NoteOffEvent(tick=60, channel=12, data=[62, 64]),
   midi.NoteOnEvent(tick=0, channel=12, data=[59, 58]),
   midi.NoteOffEvent(tick=60, channel=12, data=[59, 64]),
   midi.NoteOnEvent(tick=0, channel=12, data=[62, 58]),
   midi.NoteOffEvent(tick=60, channel=12, data=[62, 64]),
   midi.NoteOnEvent(tick=0, channel=12, data=[59, 58]),
   midi.NoteOffEvent(tick=60, channel=12, data=[59, 64]),
   midi.NoteOnEvent(tick=0, channel=12, data=[62, 58]),
   midi.NoteOffEvent(tick=60, channel=12, data=[62, 64]),
   midi.NoteOnEvent(tick=0, channel=12, data=[59, 58]),
   midi.NoteOffEvent(tick=60, channel=12, data=[59, 64]),
   midi.NoteOnEvent(tick=0, channel=12, data=[62, 58]),
   midi.NoteOffEvent(tick=48, channel=12, data=[62, 64]),
   midi.NoteOnEvent(tick=12, channel=12, data=[61, 58]),
   midi.NoteOffEvent(tick=30, channel=12, data=[61, 64]),
   midi.NoteOnEvent(tick=30, channel=12, data=[61, 58]),
   midi.NoteOffEvent(tick=60, channel=12, data=[61, 64]),
   midi.NoteOnEvent(tick=0, channel=12, data=[62, 58]),
   midi.NoteOffEvent(tick=60, channel=12, data=[62, 64]),
   midi.NoteOnEvent(tick=0, channel=12, data=[64, 58]),
   midi.NoteOffEvent(tick=48, channel=12, data=[64, 64]),
   midi.NoteOnEvent(tick=12, channel=12, data=[50, 98]),
   midi.NoteOffEvent(tick=60, channel=12, data=[50, 64]),
   midi.NoteOnEvent(tick=0, channel=12, data=[57, 78]),
   midi.NoteOffEvent(tick=39, channel=12, data=[57, 64]),
   midi.NoteOnEvent(tick=21, channel=12, data=[62, 58]),
   midi.NoteOffEvent(tick=39, channel=12, data=[62, 64]),
   midi.NoteOnEvent(tick=21, channel=12, data=[57, 58]),
   midi.NoteOffEvent(tick=39, channel=12, data=[57, 64]),
   midi.NoteOnEvent(tick=21, channel=12, data=[62, 58]),
   midi.NoteOffEvent(tick=60, channel=12, data=[62, 64]),
   midi.NoteOnEvent(tick=0, channel=12, data=[57, 58]),
   midi.NoteOffEvent(tick=60, channel=12, data=[57, 64]),
   midi.NoteOnEvent(tick=0, channel=12, data=[62, 58]),
   midi.NoteOffEvent(tick=60, channel=12, data=[62, 64]),
   midi.NoteOnEvent(tick=0, channel=12, data=[57, 58]),
   midi.NoteOffEvent(tick=60, channel=12, data=[57, 64]),
   midi.NoteOnEvent(tick=0, channel=12, data=[62, 58]),
   midi.NoteOffEvent(tick=60, channel=12, data=[62, 64]),
   midi.NoteOnEvent(tick=0, channel=12, data=[57, 58]),
   midi.NoteOffEvent(tick=60, channel=12, data=[57, 64]),
   midi.NoteOnEvent(tick=0, channel=12, data=[62, 58]),
   midi.NoteOffEvent(tick=60, channel=12, data=[62, 64]),
   midi.NoteOnEvent(tick=0, channel=12, data=[57, 58]),
   midi.NoteOffEvent(tick=48, channel=12, data=[57, 64]),
   midi.NoteOnEvent(tick=12, channel=12, data=[59, 58]),
   midi.NoteOffEvent(tick=60, channel=12, data=[59, 64]),
   midi.NoteOnEvent(tick=0, channel=12, data=[62, 58]),
   midi.NoteOffEvent(tick=60, channel=12, data=[62, 64]),
   midi.NoteOnEvent(tick=0, channel=12, data=[59, 58]),
   midi.NoteOffEvent(tick=60, channel=12, data=[59, 64]),
   midi.NoteOnEvent(tick=0, channel=12, data=[62, 58]),
   midi.NoteOffEvent(tick=60, channel=12, data=[62, 64]),
   midi.NoteOnEvent(tick=0, channel=12, data=[59, 58]),
   midi.NoteOffEvent(tick=60, channel=12, data=[59, 64]),
   midi.NoteOnEvent(tick=0, channel=12, data=[62, 58]),
   midi.NoteOffEvent(tick=60, channel=12, data=[62, 64]),
   midi.NoteOnEvent(tick=0, channel=12, data=[59, 58]),
   midi.NoteOffEvent(tick=60, channel=12, data=[59, 64]),
   midi.NoteOnEvent(tick=0, channel=12, data=[62, 58]),
   midi.NoteOffEvent(tick=48, channel=12, data=[62, 64]),
   midi.NoteOnEvent(tick=12, channel=12, data=[61, 58]),
   midi.NoteOffEvent(tick=30, channel=12, data=[61, 64]),
   midi.NoteOnEvent(tick=30, channel=12, data=[61, 58]),
   midi.NoteOffEvent(tick=60, channel=12, data=[61, 64]),
   midi.NoteOnEvent(tick=0, channel=12, data=[62, 58]),
   midi.NoteOffEvent(tick=60, channel=12, data=[62, 64]),
   midi.NoteOnEvent(tick=0, channel=12, data=[64, 58]),
   midi.NoteOffEvent(tick=48, channel=12, data=[64, 64]),
   midi.NoteOnEvent(tick=12, channel=12, data=[62, 58]),
   midi.NoteOffEvent(tick=480, channel=12, data=[62, 64]),
   midi.NoteOnEvent(tick=0, channel=12, data=[64, 58]),
   midi.NoteOffEvent(tick=192, channel=12, data=[64, 64]),
   midi.NoteOnEvent(tick=48, channel=12, data=[66, 58]),
   midi.NoteOffEvent(tick=240, channel=12, data=[66, 64]),
   midi.NoteOnEvent(tick=0, channel=12, data=[67, 58]),
   midi.NoteOffEvent(tick=192, channel=12, data=[67, 64]),
   midi.NoteOnEvent(tick=48, channel=12, data=[69, 58]),
   midi.NoteOnEvent(tick=0, channel=12, data=[64, 58]),
   midi.NoteOffEvent(tick=192, channel=12, data=[64, 64]),
   midi.NoteOffEvent(tick=0, channel=12, data=[69, 64]),
   midi.NoteOnEvent(tick=48, channel=12, data=[64, 58]),
   midi.NoteOnEvent(tick=0, channel=12, data=[69, 58]),
   midi.NoteOffEvent(tick=192, channel=12, data=[64, 64]),
   midi.NoteOnEvent(tick=48, channel=12, data=[62, 58]),
   midi.NoteOffEvent(tick=96, channel=12, data=[69, 64]),
   midi.NoteOffEvent(tick=0, channel=12, data=[62, 64]),
   midi.NoteOnEvent(tick=384, channel=12, data=[55, 58]),
   midi.NoteOffEvent(tick=192, channel=12, data=[55, 64]),
   midi.NoteOnEvent(tick=528, channel=12, data=[50, 58]),
   midi.NoteOffEvent(tick=288, channel=12, data=[50, 64]),
   midi.NoteOnEvent(tick=72, channel=12, data=[54, 58]),
   midi.NoteOffEvent(tick=120, channel=12, data=[54, 64]),
   midi.NoteOnEvent(tick=0, channel=12, data=[55, 58]),
   midi.NoteOffEvent(tick=120, channel=12, data=[55, 64]),
   midi.NoteOnEvent(tick=0, channel=12, data=[57, 58]),
   midi.NoteOffEvent(tick=96, channel=12, data=[57, 64]),
   midi.NoteOnEvent(tick=24, channel=12, data=[57, 58]),
   midi.NoteOffEvent(tick=240, channel=12, data=[57, 64]),
   midi.NoteOnEvent(tick=0, channel=12, data=[55, 58]),
   midi.NoteOffEvent(tick=144, channel=12, data=[55, 64]),
   midi.NoteOnEvent(tick=36, channel=12, data=[59, 58]),
   midi.NoteOffEvent(tick=39, channel=12, data=[59, 64]),
   midi.NoteOnEvent(tick=21, channel=12, data=[57, 58]),
   midi.NoteOffEvent(tick=180, channel=12, data=[57, 64]),
   midi.NoteOnEvent(tick=0, channel=12, data=[60, 58]),
   midi.NoteOffEvent(tick=48, channel=12, data=[60, 64]),
   midi.NoteOnEvent(tick=12, channel=12, data=[60, 58]),
   midi.NoteOffEvent(tick=192, channel=12, data=[60, 64]),
   midi.NoteOnEvent(tick=48, channel=12, data=[59, 58]),
   midi.NoteOffEvent(tick=96, channel=12, data=[59, 64]),
   midi.NoteOnEvent(tick=744, channel=12, data=[66, 58]),
   midi.NoteOffEvent(tick=72, channel=12, data=[66, 64]),
   midi.NoteOnEvent(tick=48, channel=12, data=[67, 58]),
   midi.NoteOffEvent(tick=72, channel=12, data=[67, 64]),
   midi.NoteOnEvent(tick=48, channel=12, data=[64, 58]),
   midi.NoteOffEvent(tick=72, channel=12, data=[64, 64]),
   midi.NoteOnEvent(tick=48, channel=12, data=[69, 58]),
   midi.NoteOffEvent(tick=900, channel=12, data=[69, 64]),
   midi.NoteOnEvent(tick=0, channel=12, data=[67, 58]),
   midi.NoteOffEvent(tick=48, channel=12, data=[67, 64]),
   midi.NoteOnEvent(tick=12, channel=12, data=[66, 58]),
   midi.NoteOffEvent(tick=240, channel=12, data=[66, 64]),
   midi.NoteOnEvent(tick=0, channel=12, data=[66, 58]),
   midi.NoteOffEvent(tick=15, channel=12, data=[66, 64]),
   midi.NoteOnEvent(tick=0, channel=12, data=[64, 58]),
   midi.NoteOffEvent(tick=15, channel=12, data=[64, 64]),
   midi.NoteOnEvent(tick=0, channel=12, data=[66, 58]),
   midi.NoteOffEvent(tick=15, channel=12, data=[66, 64]),
   midi.NoteOnEvent(tick=0, channel=12, data=[64, 58]),
   midi.NoteOffEvent(tick=15, channel=12, data=[64, 64]),
   midi.NoteOnEvent(tick=0, channel=12, data=[66, 58]),
   midi.NoteOffEvent(tick=15, channel=12, data=[66, 64]),
   midi.NoteOnEvent(tick=0, channel=12, data=[64, 58]),
   midi.NoteOffEvent(tick=15, channel=12, data=[64, 64]),
   midi.NoteOnEvent(tick=0, channel=12, data=[66, 58]),
   midi.NoteOffEvent(tick=15, channel=12, data=[66, 64]),
   midi.NoteOnEvent(tick=0, channel=12, data=[64, 58]),
   midi.NoteOffEvent(tick=15, channel=12, data=[64, 64]),
   midi.NoteOnEvent(tick=0, channel=12, data=[66, 58]),
   midi.NoteOffEvent(tick=15, channel=12, data=[66, 64]),
   midi.NoteOnEvent(tick=0, channel=12, data=[64, 58]),
   midi.NoteOffEvent(tick=15, channel=12, data=[64, 64]),
   midi.NoteOnEvent(tick=0, channel=12, data=[66, 58]),
   midi.NoteOffEvent(tick=15, channel=12, data=[66, 64]),
   midi.NoteOnEvent(tick=0, channel=12, data=[64, 58]),
   midi.NoteOffEvent(tick=15, channel=12, data=[64, 64]),
   midi.NoteOnEvent(tick=0, channel=12, data=[66, 58]),
   midi.NoteOffEvent(tick=15, channel=12, data=[66, 64]),
   midi.NoteOnEvent(tick=0, channel=12, data=[64, 58]),
   midi.NoteOffEvent(tick=15, channel=12, data=[64, 64]),
   midi.NoteOnEvent(tick=0, channel=12, data=[66, 58]),
   midi.NoteOffEvent(tick=15, channel=12, data=[66, 64]),
   midi.NoteOnEvent(tick=0, channel=12, data=[64, 58]),
   midi.NoteOffEvent(tick=15, channel=12, data=[64, 64]),
   midi.NoteOnEvent(tick=0, channel=12, data=[62, 58]),
   midi.NoteOffEvent(tick=192, channel=12, data=[62, 64]),
   midi.NoteOnEvent(tick=168, channel=12, data=[66, 58]),
   midi.NoteOffEvent(tick=72, channel=12, data=[66, 64]),
   midi.NoteOnEvent(tick=48, channel=12, data=[62, 58]),
   midi.NoteOffEvent(tick=72, channel=12, data=[62, 64]),
   midi.NoteOnEvent(tick=48, channel=12, data=[66, 58]),
   midi.NoteOffEvent(tick=72, channel=12, data=[66, 64]),
   midi.NoteOnEvent(tick=48, channel=12, data=[61, 78]),
   midi.NoteOffEvent(tick=288, channel=12, data=[61, 64]),
   midi.NoteOnEvent(tick=72, channel=12, data=[62, 58]),
   midi.NoteOffEvent(tick=72, channel=12, data=[62, 64]),
   midi.NoteOnEvent(tick=48, channel=12, data=[57, 58]),
   midi.NoteOffEvent(tick=72, channel=12, data=[57, 64]),
   midi.NoteOnEvent(tick=48, channel=12, data=[59, 58]),
   midi.NoteOffEvent(tick=72, channel=12, data=[59, 64]),
   midi.NoteOnEvent(tick=48, channel=12, data=[64, 58]),
   midi.NoteOffEvent(tick=30, channel=12, data=[64, 64]),
   midi.NoteOnEvent(tick=0, channel=12, data=[62, 58]),
   midi.NoteOffEvent(tick=30, channel=12, data=[62, 64]),
   midi.NoteOnEvent(tick=0, channel=12, data=[61, 58]),
   midi.NoteOffEvent(tick=48, channel=12, data=[61, 64]),
   midi.NoteOnEvent(tick=252, channel=12, data=[66, 58]),
   midi.NoteOffEvent(tick=72, channel=12, data=[66, 64]),
   midi.NoteOnEvent(tick=48, channel=12, data=[62, 58]),
   midi.NoteOffEvent(tick=72, channel=12, data=[62, 64]),
   midi.NoteOnEvent(tick=48, channel=12, data=[66, 58]),
   midi.NoteOffEvent(tick=72, channel=12, data=[66, 64]),
   midi.NoteOnEvent(tick=48, channel=12, data=[61, 78]),
   midi.NoteOffEvent(tick=288, channel=12, data=[61, 64]),
   midi.NoteOnEvent(tick=72, channel=12, data=[62, 58]),
   midi.NoteOffEvent(tick=72, channel=12, data=[62, 64]),
   midi.NoteOnEvent(tick=48, channel=12, data=[57, 58]),
   midi.NoteOffEvent(tick=72, channel=12, data=[57, 64]),
   midi.NoteOnEvent(tick=48, channel=12, data=[59, 58]),
   midi.NoteOffEvent(tick=72, channel=12, data=[59, 64]),
   midi.NoteOnEvent(tick=48, channel=12, data=[61, 58]),
   midi.NoteOffEvent(tick=192, channel=12, data=[61, 64]),
   midi.NoteOnEvent(tick=48, channel=12, data=[57, 58]),
   midi.NoteOffEvent(tick=300, channel=12, data=[57, 64]),
   midi.NoteOnEvent(tick=0, channel=12, data=[56, 58]),
   midi.NoteOffEvent(tick=60, channel=12, data=[56, 64]),
   midi.NoteOnEvent(tick=0, channel=12, data=[57, 58]),
   midi.NoteOffEvent(tick=60, channel=12, data=[57, 64]),
   midi.NoteOnEvent(tick=0, channel=12, data=[55, 58]),
   midi.NoteOffEvent(tick=48, channel=12, data=[55, 64]),
   midi.NoteOnEvent(tick=12, channel=12, data=[54, 58]),
   midi.NoteOffEvent(tick=144, channel=12, data=[54, 64]),
   midi.NoteOnEvent(tick=36, channel=12, data=[55, 58]),
   midi.NoteOffEvent(tick=48, channel=12, data=[55, 64]),
   midi.NoteOnEvent(tick=12, channel=12, data=[57, 58]),
   midi.NoteOffEvent(tick=120, channel=12, data=[57, 64]),
   midi.NoteOnEvent(tick=0, channel=12, data=[59, 58]),
   midi.NoteOffEvent(tick=120, channel=12, data=[59, 64]),
   midi.NoteOnEvent(tick=0, channel=12, data=[52, 58]),
   midi.NoteOffEvent(tick=120, channel=12, data=[52, 64]),
   midi.NoteOnEvent(tick=0, channel=12, data=[57, 58]),
   midi.NoteOffEvent(tick=96, channel=12, data=[57, 64]),
   midi.NoteOnEvent(tick=24, channel=12, data=[50, 58]),
   midi.NoteOffEvent(tick=157, channel=12, data=[50, 64]),
   midi.NoteOnEvent(tick=23, channel=12, data=[52, 58]),
   midi.NoteOffEvent(tick=26, channel=12, data=[52, 64]),
   midi.NoteOnEvent(tick=4, channel=12, data=[54, 58]),
   midi.NoteOffEvent(tick=26, channel=12, data=[54, 64]),
   midi.NoteOnEvent(tick=4, channel=12, data=[55, 58]),
   midi.NoteOffEvent(tick=360, channel=12, data=[55, 64]),
   midi.NoteOnEvent(tick=0, channel=12, data=[54, 58]),
   midi.NoteOffEvent(tick=96, channel=12, data=[54, 64]),
   midi.NoteOnEvent(tick=24, channel=12, data=[54, 58]),
   midi.NoteOffEvent(tick=30, channel=12, data=[54, 64]),
   midi.NoteOnEvent(tick=0, channel=12, data=[52, 58]),
   midi.NoteOffEvent(tick=68, channel=12, data=[52, 64]),
   midi.NoteOnEvent(tick=22, channel=12, data=[52, 58]),
   midi.NoteOffEvent(tick=78, channel=12, data=[52, 64]),
   midi.NoteOnEvent(tick=42, channel=12, data=[54, 58]),
   midi.NoteOffEvent(tick=30, channel=12, data=[54, 64]),
   midi.NoteOnEvent(tick=0, channel=12, data=[52, 58]),
   midi.NoteOffEvent(tick=68, channel=12, data=[52, 64]),
   midi.NoteOnEvent(tick=22, channel=12, data=[52, 58]),
   midi.NoteOffEvent(tick=78, channel=12, data=[52, 64]),
   midi.NoteOnEvent(tick=42, channel=12, data=[54, 58]),
   midi.NoteOffEvent(tick=30, channel=12, data=[54, 64]),
   midi.NoteOnEvent(tick=0, channel=12, data=[52, 58]),
   midi.NoteOffEvent(tick=68, channel=12, data=[52, 64]),
   midi.NoteOnEvent(tick=22, channel=12, data=[52, 58]),
   midi.NoteOffEvent(tick=78, channel=12, data=[52, 64]),
   midi.NoteOnEvent(tick=42, channel=12, data=[52, 58]),
   midi.NoteOffEvent(tick=60, channel=12, data=[52, 64]),
   midi.NoteOnEvent(tick=0, channel=12, data=[54, 58]),
   midi.NoteOffEvent(tick=60, channel=12, data=[54, 64]),
   midi.NoteOnEvent(tick=0, channel=12, data=[52, 58]),
   midi.NoteOffEvent(tick=60, channel=12, data=[52, 64]),
   midi.NoteOnEvent(tick=0, channel=12, data=[54, 58]),
   midi.NoteOffEvent(tick=60, channel=12, data=[54, 64]),
   midi.NoteOnEvent(tick=0, channel=12, data=[52, 58]),
   midi.NoteOffEvent(tick=144, channel=12, data=[52, 64]),
   midi.NoteOnEvent(tick=36, channel=12, data=[49, 58]),
   midi.NoteOffEvent(tick=36, channel=12, data=[49, 64]),
   midi.NoteOnEvent(tick=24, channel=12, data=[50, 58]),
   midi.NoteOffEvent(tick=36, channel=12, data=[50, 64]),
   midi.NoteOnEvent(tick=24, channel=12, data=[52, 58]),
   midi.NoteOffEvent(tick=36, channel=12, data=[52, 64]),
   midi.NoteOnEvent(tick=24, channel=12, data=[54, 58]),
   midi.NoteOffEvent(tick=36, channel=12, data=[54, 64]),
   midi.NoteOnEvent(tick=24, channel=12, data=[55, 58]),
   midi.NoteOffEvent(tick=36, channel=12, data=[55, 64]),
   midi.NoteOnEvent(tick=24, channel=12, data=[54, 58]),
   midi.NoteOffEvent(tick=144, channel=12, data=[54, 64]),
   midi.NoteOnEvent(tick=36, channel=12, data=[55, 58]),
   midi.NoteOffEvent(tick=48, channel=12, data=[55, 64]),
   midi.NoteOnEvent(tick=12, channel=12, data=[57, 58]),
   midi.NoteOffEvent(tick=120, channel=12, data=[57, 64]),
   midi.NoteOnEvent(tick=0, channel=12, data=[59, 58]),
   midi.NoteOffEvent(tick=120, channel=12, data=[59, 64]),
   midi.NoteOnEvent(tick=0, channel=12, data=[52, 58]),
   midi.NoteOffEvent(tick=120, channel=12, data=[52, 64]),
   midi.NoteOnEvent(tick=0, channel=12, data=[57, 58]),
   midi.NoteOffEvent(tick=96, channel=12, data=[57, 64]),
   midi.NoteOnEvent(tick=24, channel=12, data=[50, 58]),
   midi.NoteOffEvent(tick=157, channel=12, data=[50, 64]),
   midi.NoteOnEvent(tick=23, channel=12, data=[52, 58]),
   midi.NoteOffEvent(tick=26, channel=12, data=[52, 64]),
   midi.NoteOnEvent(tick=4, channel=12, data=[54, 58]),
   midi.NoteOffEvent(tick=26, channel=12, data=[54, 64]),
   midi.NoteOnEvent(tick=4, channel=12, data=[55, 58]),
   midi.NoteOffEvent(tick=360, channel=12, data=[55, 64]),
   midi.NoteOnEvent(tick=0, channel=12, data=[54, 58]),
   midi.NoteOffEvent(tick=96, channel=12, data=[54, 64]),
   midi.NoteOnEvent(tick=24, channel=12, data=[52, 58]),
   midi.NoteOffEvent(tick=60, channel=12, data=[52, 64]),
   midi.NoteOnEvent(tick=0, channel=12, data=[59, 58]),
   midi.NoteOffEvent(tick=60, channel=12, data=[59, 64]),
   midi.NoteOnEvent(tick=0, channel=12, data=[55, 58]),
   midi.NoteOffEvent(tick=60, channel=12, data=[55, 64]),
   midi.NoteOnEvent(tick=0, channel=12, data=[52, 58]),
   midi.NoteOffEvent(tick=60, channel=12, data=[52, 64]),
   midi.NoteOnEvent(tick=0, channel=12, data=[50, 58]),
   midi.NoteOffEvent(tick=192, channel=12, data=[50, 64]),
   midi.NoteOnEvent(tick=48, channel=12, data=[54, 58]),
   midi.NoteOffEvent(tick=15, channel=12, data=[54, 64]),
   midi.NoteOnEvent(tick=0, channel=12, data=[52, 58]),
   midi.NoteOffEvent(tick=15, channel=12, data=[52, 64]),
   midi.NoteOnEvent(tick=0, channel=12, data=[54, 58]),
   midi.NoteOffEvent(tick=15, channel=12, data=[54, 64]),
   midi.NoteOnEvent(tick=0, channel=12, data=[52, 58]),
   midi.NoteOffEvent(tick=15, channel=12, data=[52, 64]),
   midi.NoteOnEvent(tick=0, channel=12, data=[54, 58]),
   midi.NoteOffEvent(tick=15, channel=12, data=[54, 64]),
   midi.NoteOnEvent(tick=0, channel=12, data=[52, 58]),
   midi.NoteOffEvent(tick=15, channel=12, data=[52, 64]),
   midi.NoteOnEvent(tick=0, channel=12, data=[54, 58]),
   midi.NoteOffEvent(tick=15, channel=12, data=[54, 64]),
   midi.NoteOnEvent(tick=0, channel=12, data=[52, 58]),
   midi.NoteOffEvent(tick=15, channel=12, data=[52, 64]),
   midi.NoteOnEvent(tick=0, channel=12, data=[54, 58]),
   midi.NoteOffEvent(tick=15, channel=12, data=[54, 64]),
   midi.NoteOnEvent(tick=0, channel=12, data=[52, 58]),
   midi.NoteOffEvent(tick=15, channel=12, data=[52, 64]),
   midi.NoteOnEvent(tick=0, channel=12, data=[54, 58]),
   midi.NoteOffEvent(tick=15, channel=12, data=[54, 64]),
   midi.NoteOnEvent(tick=0, channel=12, data=[52, 58]),
   midi.NoteOffEvent(tick=15, channel=12, data=[52, 64]),
   midi.NoteOnEvent(tick=0, channel=12, data=[54, 58]),
   midi.NoteOffEvent(tick=15, channel=12, data=[54, 64]),
   midi.NoteOnEvent(tick=0, channel=12, data=[52, 58]),
   midi.NoteOffEvent(tick=15, channel=12, data=[52, 64]),
   midi.NoteOnEvent(tick=0, channel=12, data=[54, 58]),
   midi.NoteOffEvent(tick=15, channel=12, data=[54, 64]),
   midi.NoteOnEvent(tick=0, channel=12, data=[52, 58]),
   midi.NoteOffEvent(tick=15, channel=12, data=[52, 64]),
   midi.NoteOnEvent(tick=0, channel=12, data=[50, 98]),
   midi.NoteOffEvent(tick=60, channel=12, data=[50, 64]),
   midi.NoteOnEvent(tick=0, channel=12, data=[57, 78]),
   midi.NoteOffEvent(tick=39, channel=12, data=[57, 64]),
   midi.NoteOnEvent(tick=21, channel=12, data=[62, 58]),
   midi.NoteOffEvent(tick=39, channel=12, data=[62, 64]),
   midi.NoteOnEvent(tick=21, channel=12, data=[57, 58]),
   midi.NoteOffEvent(tick=39, channel=12, data=[57, 64]),
   midi.NoteOnEvent(tick=21, channel=12, data=[62, 58]),
   midi.NoteOffEvent(tick=60, channel=12, data=[62, 64]),
   midi.NoteOnEvent(tick=0, channel=12, data=[57, 58]),
   midi.NoteOffEvent(tick=60, channel=12, data=[57, 64]),
   midi.NoteOnEvent(tick=0, channel=12, data=[62, 58]),
   midi.NoteOffEvent(tick=60, channel=12, data=[62, 64]),
   midi.NoteOnEvent(tick=0, channel=12, data=[57, 58]),
   midi.NoteOffEvent(tick=60, channel=12, data=[57, 64]),
   midi.NoteOnEvent(tick=0, channel=12, data=[62, 58]),
   midi.NoteOffEvent(tick=60, channel=12, data=[62, 64]),
   midi.NoteOnEvent(tick=0, channel=12, data=[57, 58]),
   midi.NoteOffEvent(tick=60, channel=12, data=[57, 64]),
   midi.NoteOnEvent(tick=0, channel=12, data=[62, 58]),
   midi.NoteOffEvent(tick=60, channel=12, data=[62, 64]),
   midi.NoteOnEvent(tick=0, channel=12, data=[57, 58]),
   midi.NoteOffEvent(tick=48, channel=12, data=[57, 64]),
   midi.NoteOnEvent(tick=12, channel=12, data=[59, 58]),
   midi.NoteOffEvent(tick=60, channel=12, data=[59, 64]),
   midi.NoteOnEvent(tick=0, channel=12, data=[62, 58]),
   midi.NoteOffEvent(tick=60, channel=12, data=[62, 64]),
   midi.NoteOnEvent(tick=0, channel=12, data=[59, 58]),
   midi.NoteOffEvent(tick=60, channel=12, data=[59, 64]),
   midi.NoteOnEvent(tick=0, channel=12, data=[62, 58]),
   midi.NoteOffEvent(tick=60, channel=12, data=[62, 64]),
   midi.NoteOnEvent(tick=0, channel=12, data=[59, 58]),
   midi.NoteOffEvent(tick=60, channel=12, data=[59, 64]),
   midi.NoteOnEvent(tick=0, channel=12, data=[62, 58]),
   midi.NoteOffEvent(tick=60, channel=12, data=[62, 64]),
   midi.NoteOnEvent(tick=0, channel=12, data=[59, 58]),
   midi.NoteOffEvent(tick=60, channel=12, data=[59, 64]),
   midi.NoteOnEvent(tick=0, channel=12, data=[62, 58]),
   midi.NoteOffEvent(tick=48, channel=12, data=[62, 64]),
   midi.NoteOnEvent(tick=12, channel=12, data=[61, 58]),
   midi.NoteOffEvent(tick=30, channel=12, data=[61, 64]),
   midi.NoteOnEvent(tick=30, channel=12, data=[61, 58]),
   midi.NoteOffEvent(tick=60, channel=12, data=[61, 64]),
   midi.NoteOnEvent(tick=0, channel=12, data=[62, 58]),
   midi.NoteOffEvent(tick=60, channel=12, data=[62, 64]),
   midi.NoteOnEvent(tick=0, channel=12, data=[64, 58]),
   midi.NoteOffEvent(tick=48, channel=12, data=[64, 64]),
   midi.NoteOnEvent(tick=12, channel=12, data=[50, 98]),
   midi.NoteOffEvent(tick=60, channel=12, data=[50, 64]),
   midi.NoteOnEvent(tick=0, channel=12, data=[57, 78]),
   midi.NoteOffEvent(tick=39, channel=12, data=[57, 64]),
   midi.NoteOnEvent(tick=21, channel=12, data=[62, 58]),
   midi.NoteOffEvent(tick=39, channel=12, data=[62, 64]),
   midi.NoteOnEvent(tick=21, channel=12, data=[57, 58]),
   midi.NoteOffEvent(tick=39, channel=12, data=[57, 64]),
   midi.NoteOnEvent(tick=21, channel=12, data=[62, 58]),
   midi.NoteOffEvent(tick=60, channel=12, data=[62, 64]),
   midi.NoteOnEvent(tick=0, channel=12, data=[57, 58]),
   midi.NoteOffEvent(tick=60, channel=12, data=[57, 64]),
   midi.NoteOnEvent(tick=0, channel=12, data=[62, 58]),
   midi.NoteOffEvent(tick=60, channel=12, data=[62, 64]),
   midi.NoteOnEvent(tick=0, channel=12, data=[57, 58]),
   midi.NoteOffEvent(tick=60, channel=12, data=[57, 64]),
   midi.NoteOnEvent(tick=0, channel=12, data=[62, 58]),
   midi.NoteOffEvent(tick=60, channel=12, data=[62, 64]),
   midi.NoteOnEvent(tick=0, channel=12, data=[57, 58]),
   midi.NoteOffEvent(tick=60, channel=12, data=[57, 64]),
   midi.NoteOnEvent(tick=0, channel=12, data=[62, 58]),
   midi.NoteOffEvent(tick=60, channel=12, data=[62, 64]),
   midi.NoteOnEvent(tick=0, channel=12, data=[57, 58]),
   midi.NoteOffEvent(tick=48, channel=12, data=[57, 64]),
   midi.NoteOnEvent(tick=12, channel=12, data=[59, 58]),
   midi.NoteOffEvent(tick=60, channel=12, data=[59, 64]),
   midi.NoteOnEvent(tick=0, channel=12, data=[62, 58]),
   midi.NoteOffEvent(tick=60, channel=12, data=[62, 64]),
   midi.NoteOnEvent(tick=0, channel=12, data=[59, 58]),
   midi.NoteOffEvent(tick=60, channel=12, data=[59, 64]),
   midi.NoteOnEvent(tick=0, channel=12, data=[62, 58]),
   midi.NoteOffEvent(tick=60, channel=12, data=[62, 64]),
   midi.NoteOnEvent(tick=0, channel=12, data=[59, 58]),
   midi.NoteOffEvent(tick=60, channel=12, data=[59, 64]),
   midi.NoteOnEvent(tick=0, channel=12, data=[62, 58]),
   midi.NoteOffEvent(tick=60, channel=12, data=[62, 64]),
   midi.NoteOnEvent(tick=0, channel=12, data=[59, 58]),
   midi.NoteOffEvent(tick=60, channel=12, data=[59, 64]),
   midi.NoteOnEvent(tick=0, channel=12, data=[62, 58]),
   midi.NoteOffEvent(tick=48, channel=12, data=[62, 64]),
   midi.NoteOnEvent(tick=12, channel=12, data=[61, 58]),
   midi.NoteOffEvent(tick=30, channel=12, data=[61, 64]),
   midi.NoteOnEvent(tick=30, channel=12, data=[61, 58]),
   midi.NoteOffEvent(tick=60, channel=12, data=[61, 64]),
   midi.NoteOnEvent(tick=0, channel=12, data=[62, 58]),
   midi.NoteOffEvent(tick=60, channel=12, data=[62, 64]),
   midi.NoteOnEvent(tick=0, channel=12, data=[64, 58]),
   midi.NoteOffEvent(tick=48, channel=12, data=[64, 64]),
   midi.NoteOnEvent(tick=12, channel=12, data=[62, 58]),
   midi.NoteOffEvent(tick=480, channel=12, data=[62, 64]),
   midi.NoteOnEvent(tick=0, channel=12, data=[64, 58]),
   midi.NoteOffEvent(tick=192, channel=12, data=[64, 64]),
   midi.NoteOnEvent(tick=48, channel=12, data=[66, 58]),
   midi.NoteOffEvent(tick=240, channel=12, data=[66, 64]),
   midi.NoteOnEvent(tick=0, channel=12, data=[67, 58]),
   midi.NoteOffEvent(tick=192, channel=12, data=[67, 64]),
   midi.NoteOnEvent(tick=48, channel=12, data=[69, 58]),
   midi.NoteOnEvent(tick=0, channel=12, data=[64, 58]),
   midi.NoteOffEvent(tick=192, channel=12, data=[64, 64]),
   midi.NoteOffEvent(tick=0, channel=12, data=[69, 64]),
   midi.NoteOnEvent(tick=48, channel=12, data=[69, 58]),
   midi.NoteOnEvent(tick=0, channel=12, data=[64, 58]),
   midi.NoteOffEvent(tick=192, channel=12, data=[64, 64]),
   midi.NoteOnEvent(tick=48, channel=12, data=[62, 58]),
   midi.NoteOffEvent(tick=96, channel=12, data=[69, 64]),
   midi.NoteOffEvent(tick=0, channel=12, data=[62, 64]),
   midi.NoteOnEvent(tick=264, channel=12, data=[50, 105]),
   midi.NoteOffEvent(tick=96, channel=12, data=[50, 64]),
   midi.NoteOnEvent(tick=24, channel=12, data=[62, 105]),
   midi.NoteOffEvent(tick=144, channel=12, data=[62, 64]),
   midi.NoteOnEvent(tick=36, channel=12, data=[64, 105]),
   midi.NoteOffEvent(tick=36, channel=12, data=[64, 64]),
   midi.NoteOnEvent(tick=24, channel=12, data=[65, 105]),
   midi.NoteOffEvent(tick=72, channel=12, data=[65, 64]),
   midi.NoteOnEvent(tick=48, channel=12, data=[62, 105]),
   midi.NoteOffEvent(tick=72, channel=12, data=[62, 64]),
   midi.NoteOnEvent(tick=48, channel=12, data=[59, 105]),
   midi.NoteOffEvent(tick=72, channel=12, data=[59, 64]),
   midi.NoteOnEvent(tick=48, channel=12, data=[57, 105]),
   midi.NoteOffEvent(tick=72, channel=12, data=[57, 64]),
   midi.NoteOnEvent(tick=48, channel=12, data=[56, 105]),
   midi.NoteOffEvent(tick=66, channel=12, data=[56, 64]),
   midi.NoteOnEvent(tick=54, channel=12, data=[59, 105]),
   midi.NoteOffEvent(tick=66, channel=12, data=[59, 64]),
   midi.NoteOnEvent(tick=54, channel=12, data=[64, 105]),
   midi.NoteOffEvent(tick=192, channel=12, data=[64, 64]),
   midi.NoteOnEvent(tick=288, channel=12, data=[57, 58]),
   midi.NoteOffEvent(tick=120, channel=12, data=[57, 64]),
   midi.NoteOnEvent(tick=0, channel=12, data=[59, 58]),
   midi.NoteOffEvent(tick=120, channel=12, data=[59, 64]),
   midi.NoteOnEvent(tick=0, channel=12, data=[57, 58]),
   midi.NoteOffEvent(tick=120, channel=12, data=[57, 64]),
   midi.NoteOnEvent(tick=0, channel=12, data=[59, 58]),
   midi.NoteOffEvent(tick=120, channel=12, data=[59, 64]),
   midi.NoteOnEvent(tick=0, channel=12, data=[57, 58]),
   midi.NoteOffEvent(tick=120, channel=12, data=[57, 64]),
   midi.NoteOnEvent(tick=0, channel=12, data=[62, 58]),
   midi.NoteOnEvent(tick=0, channel=12, data=[64, 58]),
   midi.NoteOffEvent(tick=96, channel=12, data=[64, 64]),
   midi.NoteOffEvent(tick=0, channel=12, data=[62, 64]),
   midi.NoteOnEvent(tick=24, channel=12, data=[62, 58]),
   midi.NoteOnEvent(tick=0, channel=12, data=[64, 58]),
   midi.NoteOffEvent(tick=240, channel=12, data=[64, 64]),
   midi.NoteOffEvent(tick=0, channel=12, data=[62, 64]),
   midi.NoteOnEvent(tick=0, channel=12, data=[60, 58]),
   midi.NoteOnEvent(tick=0, channel=12, data=[64, 58]),
   midi.NoteOffEvent(tick=192, channel=12, data=[64, 64]),
   midi.NoteOffEvent(tick=0, channel=12, data=[60, 64]),
   midi.NoteOnEvent(tick=168, channel=12, data=[60, 92]),
   midi.NoteOnEvent(tick=0, channel=12, data=[62, 92]),
   midi.NoteOffEvent(tick=96, channel=12, data=[62, 64]),
   midi.NoteOffEvent(tick=0, channel=12, data=[60, 64]),
   midi.NoteOnEvent(tick=24, channel=12, data=[62, 92]),
   midi.NoteOnEvent(tick=0, channel=12, data=[59, 92]),
   midi.NoteOffEvent(tick=120, channel=12, data=[59, 64]),
   midi.NoteOffEvent(tick=0, channel=12, data=[62, 64]),
   midi.NoteOnEvent(tick=0, channel=12, data=[57, 92]),
   midi.NoteOnEvent(tick=0, channel=12, data=[62, 92]),
   midi.NoteOffEvent(tick=120, channel=12, data=[62, 64]),
   midi.NoteOffEvent(tick=0, channel=12, data=[57, 64]),
   midi.NoteOnEvent(tick=0, channel=12, data=[55, 92]),
   midi.NoteOnEvent(tick=0, channel=12, data=[62, 92]),
   midi.NoteOffEvent(tick=120, channel=12, data=[62, 64]),
   midi.NoteOffEvent(tick=0, channel=12, data=[55, 64]),
   midi.NoteOnEvent(tick=0, channel=12, data=[57, 92]),
   midi.NoteOnEvent(tick=0, channel=12, data=[62, 92]),
   midi.NoteOffEvent(tick=120, channel=12, data=[62, 64]),
   midi.NoteOffEvent(tick=0, channel=12, data=[57, 64]),
   midi.NoteOnEvent(tick=0, channel=12, data=[62, 92]),
   midi.NoteOnEvent(tick=0, channel=12, data=[55, 92]),
   midi.NoteOffEvent(tick=78, channel=12, data=[62, 64]),
   midi.NoteOffEvent(tick=18, channel=12, data=[55, 64]),
   midi.NoteOnEvent(tick=24, channel=12, data=[62, 92]),
   midi.NoteOnEvent(tick=0, channel=12, data=[60, 92]),
   midi.NoteOffEvent(tick=78, channel=12, data=[62, 64]),
   midi.NoteOffEvent(tick=18, channel=12, data=[60, 64]),
   midi.NoteOnEvent(tick=24, channel=12, data=[62, 92]),
   midi.NoteOnEvent(tick=0, channel=12, data=[59, 92]),
   midi.NoteOffEvent(tick=96, channel=12, data=[59, 64]),
   midi.NoteOffEvent(tick=0, channel=12, data=[62, 64]),
   midi.NoteOnEvent(tick=24, channel=12, data=[62, 92]),
   midi.NoteOnEvent(tick=0, channel=12, data=[59, 92]),
   midi.NoteOffEvent(tick=192, channel=12, data=[59, 64]),
   midi.NoteOffEvent(tick=0, channel=12, data=[62, 64]),
   midi.NoteOnEvent(tick=48, channel=12, data=[59, 92]),
   midi.NoteOnEvent(tick=0, channel=12, data=[62, 92]),
   midi.NoteOffEvent(tick=192, channel=12, data=[62, 64]),
   midi.NoteOffEvent(tick=0, channel=12, data=[59, 64]),
   midi.NoteOnEvent(tick=48, channel=12, data=[62, 92]),
   midi.NoteOnEvent(tick=0, channel=12, data=[57, 92]),
   midi.NoteOffEvent(tick=96, channel=12, data=[57, 64]),
   midi.NoteOffEvent(tick=0, channel=12, data=[62, 64]),
   midi.NoteOnEvent(tick=24, channel=12, data=[62, 92]),
   midi.NoteOnEvent(tick=0, channel=12, data=[55, 92]),
   midi.NoteOffEvent(tick=96, channel=12, data=[55, 64]),
   midi.NoteOffEvent(tick=0, channel=12, data=[62, 64]),
   midi.NoteOnEvent(tick=144, channel=12, data=[55, 92]),
   midi.NoteOnEvent(tick=0, channel=12, data=[62, 92]),
   midi.NoteOffEvent(tick=96, channel=12, data=[62, 64]),
   midi.NoteOffEvent(tick=0, channel=12, data=[55, 64]),
   midi.NoteOnEvent(tick=144, channel=12, data=[62, 92]),
   midi.NoteOffEvent(tick=96, channel=12, data=[62, 64]),
   midi.NoteOnEvent(tick=24, channel=12, data=[59, 92]),
   midi.NoteOffEvent(tick=48, channel=12, data=[59, 64]),
   midi.NoteOnEvent(tick=12, channel=12, data=[67, 92]),
   midi.NoteOffEvent(tick=48, channel=12, data=[67, 64]),
   midi.NoteOnEvent(tick=12, channel=12, data=[62, 92]),
   midi.NoteOffEvent(tick=96, channel=12, data=[62, 64]),
   midi.NoteOnEvent(tick=24, channel=12, data=[59, 92]),
   midi.NoteOffEvent(tick=48, channel=12, data=[59, 64]),
   midi.NoteOnEvent(tick=12, channel=12, data=[55, 92]),
   midi.NoteOffEvent(tick=48, channel=12, data=[55, 64]),
   midi.NoteOnEvent(tick=12, channel=12, data=[50, 70]),
   midi.NoteOffEvent(tick=72, channel=12, data=[50, 64]),
   midi.NoteOnEvent(tick=48, channel=12, data=[50, 70]),
   midi.NoteOffEvent(tick=72, channel=12, data=[50, 64]),
   midi.NoteOnEvent(tick=48, channel=12, data=[50, 70]),
   midi.NoteOffEvent(tick=72, channel=12, data=[50, 64]),
   midi.NoteOnEvent(tick=48, channel=12, data=[50, 70]),
   midi.NoteOffEvent(tick=72, channel=12, data=[50, 64]),
   midi.NoteOnEvent(tick=48, channel=12, data=[50, 70]),
   midi.NoteOffEvent(tick=96, channel=12, data=[50, 64]),
   midi.NoteOnEvent(tick=24, channel=12, data=[50, 70]),
   midi.NoteOffEvent(tick=96, channel=12, data=[50, 64]),
   midi.NoteOnEvent(tick=24, channel=12, data=[50, 70]),
   midi.NoteOffEvent(tick=96, channel=12, data=[50, 64]),
   midi.NoteOnEvent(tick=24, channel=12, data=[62, 70]),
   midi.NoteOffEvent(tick=96, channel=12, data=[62, 64]),
   midi.NoteOnEvent(tick=24, channel=12, data=[62, 70]),
   midi.NoteOffEvent(tick=96, channel=12, data=[62, 64]),
   midi.NoteOnEvent(tick=24, channel=12, data=[62, 70]),
   midi.NoteOffEvent(tick=96, channel=12, data=[62, 64]),
   midi.NoteOnEvent(tick=24, channel=12, data=[62, 58]),
   midi.NoteOffEvent(tick=192, channel=12, data=[62, 64]),
   midi.NoteOnEvent(tick=168, channel=12, data=[50, 58]),
   midi.NoteOffEvent(tick=72, channel=12, data=[50, 64]),
   midi.NoteOnEvent(tick=48, channel=12, data=[55, 58]),
   midi.NoteOffEvent(tick=72, channel=12, data=[55, 64]),
   midi.NoteOnEvent(tick=48, channel=12, data=[59, 58]),
   midi.NoteOffEvent(tick=72, channel=12, data=[59, 64]),
   midi.NoteOnEvent(tick=48, channel=12, data=[54, 78]),
   midi.NoteOffEvent(tick=288, channel=12, data=[54, 64]),
   midi.NoteOnEvent(tick=72, channel=12, data=[55, 58]),
   midi.NoteOffEvent(tick=96, channel=12, data=[55, 64]),
   midi.NoteOnEvent(tick=24, channel=12, data=[50, 58]),
   midi.NoteOffEvent(tick=96, channel=12, data=[50, 64]),
   midi.NoteOnEvent(tick=24, channel=12, data=[52, 58]),
   midi.NoteOffEvent(tick=96, channel=12, data=[52, 64]),
   midi.NoteOnEvent(tick=24, channel=12, data=[57, 58]),
   midi.NoteOffEvent(tick=30, channel=12, data=[57, 64]),
   midi.NoteOnEvent(tick=0, channel=12, data=[55, 58]),
   midi.NoteOffEvent(tick=30, channel=12, data=[55, 64]),
   midi.NoteOnEvent(tick=0, channel=12, data=[54, 58]),
   midi.NoteOffEvent(tick=60, channel=12, data=[54, 64]),
   midi.NoteOnEvent(tick=240, channel=12, data=[71, 58]),
   midi.NoteOffEvent(tick=96, channel=12, data=[71, 64]),
   midi.NoteOnEvent(tick=24, channel=12, data=[67, 58]),
   midi.NoteOffEvent(tick=96, channel=12, data=[67, 64]),
   midi.NoteOnEvent(tick=24, channel=12, data=[71, 58]),
   midi.NoteOffEvent(tick=96, channel=12, data=[71, 64]),
   midi.NoteOnEvent(tick=24, channel=12, data=[66, 78]),
   midi.NoteOffEvent(tick=288, channel=12, data=[66, 64]),
   midi.NoteOnEvent(tick=72, channel=12, data=[67, 58]),
   midi.NoteOffEvent(tick=96, channel=12, data=[67, 64]),
   midi.NoteOnEvent(tick=24, channel=12, data=[62, 58]),
   midi.NoteOffEvent(tick=96, channel=12, data=[62, 64]),
   midi.NoteOnEvent(tick=24, channel=12, data=[64, 58]),
   midi.NoteOffEvent(tick=96, channel=12, data=[64, 64]),
   midi.NoteOnEvent(tick=24, channel=12, data=[66, 58]),
   midi.NoteOffEvent(tick=192, channel=12, data=[66, 64]),
   midi.NoteOnEvent(tick=48, channel=12, data=[62, 58]),
   midi.NoteOffEvent(tick=300, channel=12, data=[62, 64]),
   midi.NoteOnEvent(tick=0, channel=12, data=[61, 58]),
   midi.NoteOffEvent(tick=60, channel=12, data=[61, 64]),
   midi.NoteOnEvent(tick=0, channel=12, data=[62, 58]),
   midi.NoteOffEvent(tick=60, channel=12, data=[62, 64]),
   midi.NoteOnEvent(tick=0, channel=12, data=[60, 58]),
   midi.NoteOffEvent(tick=48, channel=12, data=[60, 64]),
   midi.NoteOnEvent(tick=12, channel=12, data=[59, 58]),
   midi.NoteOffEvent(tick=144, channel=12, data=[59, 64]),
   midi.NoteOnEvent(tick=36, channel=12, data=[60, 58]),
   midi.NoteOffEvent(tick=48, channel=12, data=[60, 64]),
   midi.NoteOnEvent(tick=12, channel=12, data=[62, 58]),
   midi.NoteOffEvent(tick=120, channel=12, data=[62, 64]),
   midi.NoteOnEvent(tick=0, channel=12, data=[64, 58]),
   midi.NoteOffEvent(tick=120, channel=12, data=[64, 64]),
   midi.NoteOnEvent(tick=0, channel=12, data=[57, 58]),
   midi.NoteOffEvent(tick=120, channel=12, data=[57, 64]),
   midi.NoteOnEvent(tick=0, channel=12, data=[62, 58]),
   midi.NoteOffEvent(tick=96, channel=12, data=[62, 64]),
   midi.NoteOnEvent(tick=24, channel=12, data=[55, 58]),
   midi.NoteOffEvent(tick=144, channel=12, data=[55, 64]),
   midi.NoteOnEvent(tick=36, channel=12, data=[57, 58]),
   midi.NoteOffEvent(tick=24, channel=12, data=[57, 64]),
   midi.NoteOnEvent(tick=6, channel=12, data=[59, 58]),
   midi.NoteOffEvent(tick=24, channel=12, data=[59, 64]),
   midi.NoteOnEvent(tick=6, channel=12, data=[60, 58]),
   midi.NoteOffEvent(tick=360, channel=12, data=[60, 64]),
   midi.NoteOnEvent(tick=0, channel=12, data=[59, 58]),
   midi.NoteOffEvent(tick=96, channel=12, data=[59, 64]),
   midi.NoteOnEvent(tick=24, channel=12, data=[59, 58]),
   midi.NoteOffEvent(tick=30, channel=12, data=[59, 64]),
   midi.NoteOnEvent(tick=0, channel=12, data=[57, 58]),
   midi.NoteOffEvent(tick=59, channel=12, data=[57, 64]),
   midi.NoteOnEvent(tick=31, channel=12, data=[57, 58]),
   midi.NoteOffEvent(tick=60, channel=12, data=[57, 64]),
   midi.NoteOnEvent(tick=60, channel=12, data=[59, 58]),
   midi.NoteOffEvent(tick=30, channel=12, data=[59, 64]),
   midi.NoteOnEvent(tick=0, channel=12, data=[57, 58]),
   midi.NoteOffEvent(tick=59, channel=12, data=[57, 64]),
   midi.NoteOnEvent(tick=31, channel=12, data=[57, 58]),
   midi.NoteOffEvent(tick=60, channel=12, data=[57, 64]),
   midi.NoteOnEvent(tick=60, channel=12, data=[59, 58]),
   midi.NoteOffEvent(tick=30, channel=12, data=[59, 64]),
   midi.NoteOnEvent(tick=0, channel=12, data=[57, 58]),
   midi.NoteOffEvent(tick=59, channel=12, data=[57, 64]),
   midi.NoteOnEvent(tick=31, channel=12, data=[57, 58]),
   midi.NoteOffEvent(tick=60, channel=12, data=[57, 64]),
   midi.NoteOnEvent(tick=60, channel=12, data=[57, 58]),
   midi.NoteOffEvent(tick=60, channel=12, data=[57, 64]),
   midi.NoteOnEvent(tick=0, channel=12, data=[59, 58]),
   midi.NoteOffEvent(tick=60, channel=12, data=[59, 64]),
   midi.NoteOnEvent(tick=0, channel=12, data=[57, 58]),
   midi.NoteOffEvent(tick=60, channel=12, data=[57, 64]),
   midi.NoteOnEvent(tick=0, channel=12, data=[59, 58]),
   midi.NoteOffEvent(tick=60, channel=12, data=[59, 64]),
   midi.NoteOnEvent(tick=0, channel=12, data=[57, 58]),
   midi.NoteOffEvent(tick=36, channel=12, data=[57, 64]),
   midi.NoteOnEvent(tick=24, channel=12, data=[50, 58]),
   midi.NoteOffEvent(tick=36, channel=12, data=[50, 64]),
   midi.NoteOnEvent(tick=24, channel=12, data=[52, 58]),
   midi.NoteOffEvent(tick=36, channel=12, data=[52, 64]),
   midi.NoteOnEvent(tick=24, channel=12, data=[54, 58]),
   midi.NoteOffEvent(tick=36, channel=12, data=[54, 64]),
   midi.NoteOnEvent(tick=24, channel=12, data=[55, 58]),
   midi.NoteOffEvent(tick=36, channel=12, data=[55, 64]),
   midi.NoteOnEvent(tick=24, channel=12, data=[57, 58]),
   midi.NoteOffEvent(tick=36, channel=12, data=[57, 64]),
   midi.NoteOnEvent(tick=24, channel=12, data=[59, 58]),
   midi.NoteOffEvent(tick=36, channel=12, data=[59, 64]),
   midi.NoteOnEvent(tick=24, channel=12, data=[60, 58]),
   midi.NoteOffEvent(tick=36, channel=12, data=[60, 64]),
   midi.NoteOnEvent(tick=24, channel=12, data=[59, 58]),
   midi.NoteOffEvent(tick=144, channel=12, data=[59, 64]),
   midi.NoteOnEvent(tick=36, channel=12, data=[60, 58]),
   midi.NoteOffEvent(tick=48, channel=12, data=[60, 64]),
   midi.NoteOnEvent(tick=12, channel=12, data=[62, 58]),
   midi.NoteOffEvent(tick=120, channel=12, data=[62, 64]),
   midi.NoteOnEvent(tick=0, channel=12, data=[64, 58]),
   midi.NoteOffEvent(tick=120, channel=12, data=[64, 64]),
   midi.NoteOnEvent(tick=0, channel=12, data=[57, 58]),
   midi.NoteOffEvent(tick=120, channel=12, data=[57, 64]),
   midi.NoteOnEvent(tick=0, channel=12, data=[62, 58]),
   midi.NoteOffEvent(tick=96, channel=12, data=[62, 64]),
   midi.NoteOnEvent(tick=24, channel=12, data=[55, 58]),
   midi.NoteOffEvent(tick=144, channel=12, data=[55, 64]),
   midi.NoteOnEvent(tick=36, channel=12, data=[57, 58]),
   midi.NoteOffEvent(tick=24, channel=12, data=[57, 64]),
   midi.NoteOnEvent(tick=6, channel=12, data=[59, 58]),
   midi.NoteOffEvent(tick=24, channel=12, data=[59, 64]),
   midi.NoteOnEvent(tick=6, channel=12, data=[60, 58]),
   midi.NoteOffEvent(tick=360, channel=12, data=[60, 64]),
   midi.NoteOnEvent(tick=0, channel=12, data=[59, 58]),
   midi.NoteOffEvent(tick=96, channel=12, data=[59, 64]),
   midi.NoteOnEvent(tick=24, channel=12, data=[64, 58]),
   midi.NoteOffEvent(tick=96, channel=12, data=[64, 64]),
   midi.NoteOnEvent(tick=24, channel=12, data=[64, 58]),
   midi.NoteOffEvent(tick=48, channel=12, data=[64, 64]),
   midi.NoteOnEvent(tick=12, channel=12, data=[63, 58]),
   midi.NoteOffEvent(tick=48, channel=12, data=[63, 64]),
   midi.NoteOnEvent(tick=12, channel=12, data=[64, 58]),
   midi.NoteOffEvent(tick=288, channel=12, data=[64, 64]),
   midi.NoteOnEvent(tick=72, channel=12, data=[60, 58]),
   midi.NoteOffEvent(tick=60, channel=12, data=[60, 64]),
   midi.NoteOnEvent(tick=0, channel=12, data=[57, 58]),
   midi.NoteOffEvent(tick=48, channel=12, data=[57, 64]),
   midi.NoteOnEvent(tick=12, channel=12, data=[62, 58]),
   midi.NoteOffEvent(tick=96, channel=12, data=[62, 64]),
   midi.NoteOnEvent(tick=24, channel=12, data=[62, 58]),
   midi.NoteOffEvent(tick=48, channel=12, data=[62, 64]),
   midi.NoteOnEvent(tick=12, channel=12, data=[61, 58]),
   midi.NoteOffEvent(tick=48, channel=12, data=[61, 64]),
   midi.NoteOnEvent(tick=12, channel=12, data=[62, 58]),
   midi.NoteOffEvent(tick=300, channel=12, data=[62, 64]),
   midi.NoteOnEvent(tick=0, channel=12, data=[60, 58]),
   midi.NoteOffEvent(tick=60, channel=12, data=[60, 64]),
   midi.NoteOnEvent(tick=0, channel=12, data=[59, 58]),
   midi.NoteOffEvent(tick=60, channel=12, data=[59, 64]),
   midi.NoteOnEvent(tick=0, channel=12, data=[57, 58]),
   midi.NoteOffEvent(tick=48, channel=12, data=[57, 64]),
   midi.NoteOnEvent(tick=12, channel=12, data=[55, 58]),
   midi.NoteOffEvent(tick=60, channel=12, data=[55, 64]),
   midi.NoteOnEvent(tick=0, channel=12, data=[57, 58]),
   midi.NoteOffEvent(tick=60, channel=12, data=[57, 64]),
   midi.NoteOnEvent(tick=0, channel=12, data=[59, 58]),
   midi.NoteOffEvent(tick=60, channel=12, data=[59, 64]),
   midi.NoteOnEvent(tick=0, channel=12, data=[55, 58]),
   midi.NoteOffEvent(tick=60, channel=12, data=[55, 64]),
   midi.NoteOnEvent(tick=0, channel=12, data=[57, 58]),
   midi.NoteOffEvent(tick=60, channel=12, data=[57, 64]),
   midi.NoteOnEvent(tick=0, channel=12, data=[59, 58]),
   midi.NoteOffEvent(tick=60, channel=12, data=[59, 64]),
   midi.NoteOnEvent(tick=0, channel=12, data=[60, 58]),
   midi.NoteOffEvent(tick=60, channel=12, data=[60, 64]),
   midi.NoteOnEvent(tick=0, channel=12, data=[57, 58]),
   midi.NoteOffEvent(tick=60, channel=12, data=[57, 64]),
   midi.NoteOnEvent(tick=0, channel=12, data=[54, 58]),
   midi.NoteOffEvent(tick=60, channel=12, data=[54, 64]),
   midi.NoteOnEvent(tick=0, channel=12, data=[55, 58]),
   midi.NoteOffEvent(tick=60, channel=12, data=[55, 64]),
   midi.NoteOnEvent(tick=0, channel=12, data=[57, 58]),
   midi.NoteOffEvent(tick=60, channel=12, data=[57, 64]),
   midi.NoteOnEvent(tick=0, channel=12, data=[54, 58]),
   midi.NoteOffEvent(tick=48, channel=12, data=[54, 64]),
   midi.NoteOnEvent(tick=12, channel=12, data=[55, 78]),
   midi.NoteOffEvent(tick=60, channel=12, data=[55, 64]),
   midi.NoteOnEvent(tick=0, channel=12, data=[59, 78]),
   midi.NoteOffEvent(tick=39, channel=12, data=[59, 64]),
   midi.NoteOnEvent(tick=21, channel=12, data=[55, 58]),
   midi.NoteOffEvent(tick=39, channel=12, data=[55, 64]),
   midi.NoteOnEvent(tick=21, channel=12, data=[50, 58]),
   midi.NoteOffEvent(tick=39, channel=12, data=[50, 64]),
   midi.NoteOnEvent(tick=21, channel=12, data=[55, 58]),
   midi.NoteOffEvent(tick=60, channel=12, data=[55, 64]),
   midi.NoteOnEvent(tick=0, channel=12, data=[50, 58]),
   midi.NoteOffEvent(tick=60, channel=12, data=[50, 64]),
   midi.NoteOnEvent(tick=0, channel=12, data=[55, 58]),
   midi.NoteOffEvent(tick=60, channel=12, data=[55, 64]),
   midi.NoteOnEvent(tick=0, channel=12, data=[50, 58]),
   midi.NoteOffEvent(tick=60, channel=12, data=[50, 64]),
   midi.NoteOnEvent(tick=0, channel=12, data=[55, 58]),
   midi.NoteOffEvent(tick=60, channel=12, data=[55, 64]),
   midi.NoteOnEvent(tick=0, channel=12, data=[50, 58]),
   midi.NoteOffEvent(tick=60, channel=12, data=[50, 64]),
   midi.NoteOnEvent(tick=0, channel=12, data=[55, 58]),
   midi.NoteOffEvent(tick=60, channel=12, data=[55, 64]),
   midi.NoteOnEvent(tick=0, channel=12, data=[50, 58]),
   midi.NoteOffEvent(tick=48, channel=12, data=[50, 64]),
   midi.NoteOnEvent(tick=12, channel=12, data=[52, 58]),
   midi.NoteOffEvent(tick=60, channel=12, data=[52, 64]),
   midi.NoteOnEvent(tick=0, channel=12, data=[55, 58]),
   midi.NoteOffEvent(tick=60, channel=12, data=[55, 64]),
   midi.NoteOnEvent(tick=0, channel=12, data=[52, 58]),
   midi.NoteOffEvent(tick=60, channel=12, data=[52, 64]),
   midi.NoteOnEvent(tick=0, channel=12, data=[55, 58]),
   midi.NoteOffEvent(tick=60, channel=12, data=[55, 64]),
   midi.NoteOnEvent(tick=0, channel=12, data=[52, 58]),
   midi.NoteOffEvent(tick=60, channel=12, data=[52, 64]),
   midi.NoteOnEvent(tick=0, channel=12, data=[55, 58]),
   midi.NoteOffEvent(tick=60, channel=12, data=[55, 64]),
   midi.NoteOnEvent(tick=0, channel=12, data=[52, 58]),
   midi.NoteOffEvent(tick=60, channel=12, data=[52, 64]),
   midi.NoteOnEvent(tick=0, channel=12, data=[55, 58]),
   midi.NoteOffEvent(tick=60, channel=12, data=[55, 64]),
   midi.NoteOnEvent(tick=0, channel=12, data=[54, 58]),
   midi.NoteOffEvent(tick=39, channel=12, data=[54, 64]),
   midi.NoteOnEvent(tick=21, channel=12, data=[54, 58]),
   midi.NoteOffEvent(tick=60, channel=12, data=[54, 64]),
   midi.NoteOnEvent(tick=0, channel=12, data=[55, 58]),
   midi.NoteOffEvent(tick=60, channel=12, data=[55, 64]),
   midi.NoteOnEvent(tick=0, channel=12, data=[57, 58]),
   midi.NoteOffEvent(tick=48, channel=12, data=[57, 64]),
   midi.NoteOnEvent(tick=12, channel=12, data=[55, 78]),
   midi.NoteOffEvent(tick=60, channel=12, data=[55, 64]),
   midi.NoteOnEvent(tick=0, channel=12, data=[50, 78]),
   midi.NoteOffEvent(tick=60, channel=12, data=[50, 64]),
   midi.NoteOnEvent(tick=0, channel=12, data=[55, 58]),
   midi.NoteOffEvent(tick=60, channel=12, data=[55, 64]),
   midi.NoteOnEvent(tick=0, channel=12, data=[50, 58]),
   midi.NoteOffEvent(tick=60, channel=12, data=[50, 64]),
   midi.NoteOnEvent(tick=0, channel=12, data=[55, 58]),
   midi.NoteOffEvent(tick=60, channel=12, data=[55, 64]),
   midi.NoteOnEvent(tick=0, channel=12, data=[50, 58]),
   midi.NoteOffEvent(tick=60, channel=12, data=[50, 64]),
   midi.NoteOnEvent(tick=0, channel=12, data=[55, 58]),
   midi.NoteOffEvent(tick=60, channel=12, data=[55, 64]),
   midi.NoteOnEvent(tick=0, channel=12, data=[50, 58]),
   midi.NoteOffEvent(tick=60, channel=12, data=[50, 64]),
   midi.NoteOnEvent(tick=0, channel=12, data=[55, 58]),
   midi.NoteOffEvent(tick=60, channel=12, data=[55, 64]),
   midi.NoteOnEvent(tick=0, channel=12, data=[50, 58]),
   midi.NoteOffEvent(tick=60, channel=12, data=[50, 64]),
   midi.NoteOnEvent(tick=0, channel=12, data=[55, 58]),
   midi.NoteOffEvent(tick=60, channel=12, data=[55, 64]),
   midi.NoteOnEvent(tick=0, channel=12, data=[50, 58]),
   midi.NoteOffEvent(tick=48, channel=12, data=[50, 64]),
   midi.NoteOnEvent(tick=12, channel=12, data=[52, 58]),
   midi.NoteOffEvent(tick=60, channel=12, data=[52, 64]),
   midi.NoteOnEvent(tick=0, channel=12, data=[55, 58]),
   midi.NoteOffEvent(tick=60, channel=12, data=[55, 64]),
   midi.NoteOnEvent(tick=0, channel=12, data=[52, 58]),
   midi.NoteOffEvent(tick=60, channel=12, data=[52, 64]),
   midi.NoteOnEvent(tick=0, channel=12, data=[55, 58]),
   midi.NoteOffEvent(tick=60, channel=12, data=[55, 64]),
   midi.NoteOnEvent(tick=0, channel=12, data=[52, 58]),
   midi.NoteOffEvent(tick=60, channel=12, data=[52, 64]),
   midi.NoteOnEvent(tick=0, channel=12, data=[55, 58]),
   midi.NoteOffEvent(tick=60, channel=12, data=[55, 64]),
   midi.NoteOnEvent(tick=0, channel=12, data=[52, 58]),
   midi.NoteOffEvent(tick=60, channel=12, data=[52, 64]),
   midi.NoteOnEvent(tick=0, channel=12, data=[55, 58]),
   midi.NoteOffEvent(tick=60, channel=12, data=[55, 64]),
   midi.NoteOnEvent(tick=0, channel=12, data=[54, 58]),
   midi.NoteOffEvent(tick=39, channel=12, data=[54, 64]),
   midi.NoteOnEvent(tick=21, channel=12, data=[54, 58]),
   midi.NoteOffEvent(tick=60, channel=12, data=[54, 64]),
   midi.NoteOnEvent(tick=0, channel=12, data=[55, 58]),
   midi.NoteOffEvent(tick=60, channel=12, data=[55, 64]),
   midi.NoteOnEvent(tick=0, channel=12, data=[57, 58]),
   midi.NoteOffEvent(tick=48, channel=12, data=[57, 64]),
   midi.NoteOnEvent(tick=12, channel=12, data=[55, 58]),
   midi.NoteOffEvent(tick=480, channel=12, data=[55, 64]),
   midi.NoteOnEvent(tick=0, channel=12, data=[57, 58]),
   midi.NoteOffEvent(tick=192, channel=12, data=[57, 64]),
   midi.NoteOnEvent(tick=48, channel=12, data=[59, 58]),
   midi.NoteOffEvent(tick=240, channel=12, data=[59, 64]),
   midi.NoteOnEvent(tick=0, channel=12, data=[60, 70]),
   midi.NoteOffEvent(tick=240, channel=12, data=[60, 64]),
   midi.NoteOnEvent(tick=0, channel=12, data=[62, 80]),
   midi.NoteOffEvent(tick=192, channel=12, data=[62, 64]),
   midi.NoteOnEvent(tick=48, channel=12, data=[62, 80]),
   midi.NoteOnEvent(tick=0, channel=12, data=[67, 80]),
   midi.NoteOffEvent(tick=240, channel=12, data=[67, 64]),
   midi.NoteOnEvent(tick=0, channel=12, data=[66, 92]),
   midi.NoteOffEvent(tick=240, channel=12, data=[66, 64]),
   midi.NoteOffEvent(tick=0, channel=12, data=[62, 64]),
   midi.NoteOnEvent(tick=0, channel=12, data=[67, 105]),
   midi.NoteOnEvent(tick=0, channel=12, data=[65, 105]),
   midi.NoteOffEvent(tick=240, channel=12, data=[65, 64]),
   midi.NoteOffEvent(tick=0, channel=12, data=[67, 64]),
   midi.NoteOnEvent(tick=0, channel=12, data=[64, 105]),
   midi.NoteOffEvent(tick=240, channel=12, data=[64, 64]),
   midi.NoteOnEvent(tick=0, channel=12, data=[67, 92]),
   midi.NoteOffEvent(tick=192, channel=12, data=[67, 64]),
   midi.NoteOnEvent(tick=168, channel=12, data=[57, 58]),
   midi.NoteOffEvent(tick=78, channel=12, data=[57, 64]),
   midi.NoteOnEvent(tick=42, channel=12, data=[57, 58]),
   midi.NoteOffEvent(tick=384, channel=12, data=[57, 64]),
   midi.NoteOnEvent(tick=96, channel=12, data=[55, 58]),
   midi.NoteOffEvent(tick=120, channel=12, data=[55, 64]),
   midi.EndOfTrackEvent(tick=0, data=[])]),
 midi.Track(\
  [midi.ProgramChangeEvent(tick=0, channel=13, data=[48]),
   midi.ControlChangeEvent(tick=0, channel=13, data=[7, 124]),
   midi.ControlChangeEvent(tick=0, channel=13, data=[10, 84]),
   midi.ControlChangeEvent(tick=0, channel=13, data=[91, 70]),
   midi.NoteOnEvent(tick=720, channel=13, data=[55, 58]),
   midi.NoteOffEvent(tick=192, channel=13, data=[55, 64]),
   midi.NoteOnEvent(tick=288, channel=13, data=[55, 58]),
   midi.NoteOffEvent(tick=192, channel=13, data=[55, 64]),
   midi.NoteOnEvent(tick=48, channel=13, data=[54, 58]),
   midi.NoteOffEvent(tick=288, channel=13, data=[54, 64]),
   midi.NoteOnEvent(tick=72, channel=13, data=[50, 58]),
   midi.NoteOffEvent(tick=120, channel=13, data=[50, 64]),
   midi.NoteOnEvent(tick=0, channel=13, data=[52, 58]),
   midi.NoteOffEvent(tick=120, channel=13, data=[52, 64]),
   midi.NoteOnEvent(tick=0, channel=13, data=[54, 58]),
   midi.NoteOffEvent(tick=96, channel=13, data=[54, 64]),
   midi.NoteOnEvent(tick=24, channel=13, data=[55, 58]),
   midi.NoteOffEvent(tick=96, channel=13, data=[55, 64]),
   midi.NoteOnEvent(tick=24, channel=13, data=[55, 58]),
   midi.NoteOffEvent(tick=96, channel=13, data=[55, 64]),
   midi.NoteOnEvent(tick=24, channel=13, data=[55, 58]),
   midi.NoteOffEvent(tick=96, channel=13, data=[55, 64]),
   midi.NoteOnEvent(tick=24, channel=13, data=[55, 58]),
   midi.NoteOffEvent(tick=96, channel=13, data=[55, 64]),
   midi.NoteOnEvent(tick=24, channel=13, data=[55, 58]),
   midi.NoteOffEvent(tick=96, channel=13, data=[55, 64]),
   midi.NoteOnEvent(tick=24, channel=13, data=[55, 58]),
   midi.NoteOffEvent(tick=96, channel=13, data=[55, 64]),
   midi.NoteOnEvent(tick=24, channel=13, data=[55, 58]),
   midi.NoteOffEvent(tick=288, channel=13, data=[55, 64]),
   midi.NoteOnEvent(tick=72, channel=13, data=[55, 58]),
   midi.NoteOffEvent(tick=78, channel=13, data=[55, 64]),
   midi.NoteOnEvent(tick=42, channel=13, data=[50, 58]),
   midi.NoteOffEvent(tick=78, channel=13, data=[50, 64]),
   midi.NoteOnEvent(tick=42, channel=13, data=[47, 58]),
   midi.NoteOffEvent(tick=78, channel=13, data=[47, 64]),
   midi.NoteOnEvent(tick=42, channel=13, data=[43, 58]),
   midi.NoteOffEvent(tick=192, channel=13, data=[43, 64]),
   midi.NoteOnEvent(tick=528, channel=13, data=[57, 58]),
   midi.NoteOffEvent(tick=624, channel=13, data=[57, 64]),
   midi.NoteOnEvent(tick=36, channel=13, data=[55, 58]),
   midi.NoteOffEvent(tick=48, channel=13, data=[55, 64]),
   midi.NoteOnEvent(tick=12, channel=13, data=[54, 58]),
   midi.NoteOffEvent(tick=180, channel=13, data=[54, 64]),
   midi.NoteOnEvent(tick=0, channel=13, data=[55, 58]),
   midi.NoteOffEvent(tick=48, channel=13, data=[55, 64]),
   midi.NoteOnEvent(tick=12, channel=13, data=[57, 58]),
   midi.NoteOffEvent(tick=192, channel=13, data=[57, 64]),
   midi.NoteOnEvent(tick=48, channel=13, data=[45, 58]),
   midi.NoteOffEvent(tick=192, channel=13, data=[45, 64]),
   midi.NoteOnEvent(tick=48, channel=13, data=[50, 58]),
   midi.NoteOffEvent(tick=192, channel=13, data=[50, 64]),
   midi.NoteOnEvent(tick=528, channel=13, data=[52, 78]),
   midi.NoteOffEvent(tick=288, channel=13, data=[52, 64]),
   midi.NoteOnEvent(tick=72, channel=13, data=[50, 58]),
   midi.NoteOffEvent(tick=72, channel=13, data=[50, 64]),
   midi.NoteOnEvent(tick=48, channel=13, data=[49, 58]),
   midi.NoteOffEvent(tick=72, channel=13, data=[49, 64]),
   midi.NoteOnEvent(tick=48, channel=13, data=[47, 58]),
   midi.NoteOffEvent(tick=72, channel=13, data=[47, 64]),
   midi.NoteOnEvent(tick=48, channel=13, data=[45, 58]),
   midi.NoteOffEvent(tick=192, channel=13, data=[45, 64]),
   midi.NoteOnEvent(tick=528, channel=13, data=[64, 78]),
   midi.NoteOffEvent(tick=288, channel=13, data=[64, 64]),
   midi.NoteOnEvent(tick=72, channel=13, data=[62, 58]),
   midi.NoteOffEvent(tick=72, channel=13, data=[62, 64]),
   midi.NoteOnEvent(tick=48, channel=13, data=[61, 58]),
   midi.NoteOffEvent(tick=72, channel=13, data=[61, 64]),
   midi.NoteOnEvent(tick=48, channel=13, data=[59, 58]),
   midi.NoteOffEvent(tick=72, channel=13, data=[59, 64]),
   midi.NoteOnEvent(tick=48, channel=13, data=[57, 58]),
   midi.NoteOffEvent(tick=192, channel=13, data=[57, 64]),
   midi.NoteOnEvent(tick=528, channel=13, data=[50, 58]),
   midi.NoteOffEvent(tick=480, channel=13, data=[50, 64]),
   midi.NoteOnEvent(tick=0, channel=13, data=[49, 58]),
   midi.NoteOffEvent(tick=192, channel=13, data=[49, 64]),
   midi.NoteOnEvent(tick=48, channel=13, data=[47, 58]),
   midi.NoteOffEvent(tick=288, channel=13, data=[47, 64]),
   midi.NoteOnEvent(tick=72, channel=13, data=[47, 58]),
   midi.NoteOffEvent(tick=96, channel=13, data=[47, 64]),
   midi.NoteOnEvent(tick=24, channel=13, data=[45, 58]),
   midi.NoteOffEvent(tick=192, channel=13, data=[45, 64]),
   midi.NoteOnEvent(tick=48, channel=13, data=[43, 58]),
   midi.NoteOffEvent(tick=96, channel=13, data=[43, 64]),
   midi.NoteOnEvent(tick=144, channel=13, data=[43, 58]),
   midi.NoteOffEvent(tick=96, channel=13, data=[43, 64]),
   midi.NoteOnEvent(tick=144, channel=13, data=[44, 58]),
   midi.NoteOffEvent(tick=96, channel=13, data=[44, 64]),
   midi.NoteOnEvent(tick=144, channel=13, data=[45, 58]),
   midi.NoteOffEvent(tick=60, channel=13, data=[45, 64]),
   midi.NoteOnEvent(tick=0, channel=13, data=[44, 58]),
   midi.NoteOffEvent(tick=60, channel=13, data=[44, 64]),
   midi.NoteOnEvent(tick=0, channel=13, data=[45, 58]),
   midi.NoteOffEvent(tick=60, channel=13, data=[45, 64]),
   midi.NoteOnEvent(tick=0, channel=13, data=[44, 58]),
   midi.NoteOffEvent(tick=60, channel=13, data=[44, 64]),
   midi.NoteOnEvent(tick=0, channel=13, data=[45, 58]),
   midi.NoteOffEvent(tick=192, channel=13, data=[45, 64]),
   midi.NoteOnEvent(tick=288, channel=13, data=[50, 58]),
   midi.NoteOffEvent(tick=480, channel=13, data=[50, 64]),
   midi.NoteOnEvent(tick=0, channel=13, data=[49, 58]),
   midi.NoteOffEvent(tick=192, channel=13, data=[49, 64]),
   midi.NoteOnEvent(tick=48, channel=13, data=[47, 58]),
   midi.NoteOffEvent(tick=288, channel=13, data=[47, 64]),
   midi.NoteOnEvent(tick=72, channel=13, data=[47, 58]),
   midi.NoteOffEvent(tick=96, channel=13, data=[47, 64]),
   midi.NoteOnEvent(tick=24, channel=13, data=[45, 58]),
   midi.NoteOffEvent(tick=192, channel=13, data=[45, 64]),
   midi.NoteOnEvent(tick=48, channel=13, data=[43, 58]),
   midi.NoteOffEvent(tick=96, channel=13, data=[43, 64]),
   midi.NoteOnEvent(tick=144, channel=13, data=[45, 58]),
   midi.NoteOffEvent(tick=96, channel=13, data=[45, 64]),
   midi.NoteOnEvent(tick=144, channel=13, data=[45, 58]),
   midi.NoteOffEvent(tick=96, channel=13, data=[45, 64]),
   midi.NoteOnEvent(tick=144, channel=13, data=[50, 78]),
   midi.NoteOffEvent(tick=96, channel=13, data=[50, 64]),
   midi.NoteOnEvent(tick=24, channel=13, data=[50, 58]),
   midi.NoteOffEvent(tick=96, channel=13, data=[50, 64]),
   midi.NoteOnEvent(tick=24, channel=13, data=[50, 58]),
   midi.NoteOffEvent(tick=96, channel=13, data=[50, 64]),
   midi.NoteOnEvent(tick=24, channel=13, data=[50, 58]),
   midi.NoteOffEvent(tick=96, channel=13, data=[50, 64]),
   midi.NoteOnEvent(tick=24, channel=13, data=[50, 58]),
   midi.NoteOffEvent(tick=96, channel=13, data=[50, 64]),
   midi.NoteOnEvent(tick=24, channel=13, data=[50, 58]),
   midi.NoteOffEvent(tick=96, channel=13, data=[50, 64]),
   midi.NoteOnEvent(tick=24, channel=13, data=[50, 58]),
   midi.NoteOffEvent(tick=96, channel=13, data=[50, 64]),
   midi.NoteOnEvent(tick=24, channel=13, data=[50, 58]),
   midi.NoteOffEvent(tick=96, channel=13, data=[50, 64]),
   midi.NoteOnEvent(tick=24, channel=13, data=[50, 58]),
   midi.NoteOffEvent(tick=96, channel=13, data=[50, 64]),
   midi.NoteOnEvent(tick=24, channel=13, data=[50, 58]),
   midi.NoteOffEvent(tick=96, channel=13, data=[50, 64]),
   midi.NoteOnEvent(tick=24, channel=13, data=[50, 58]),
   midi.NoteOffEvent(tick=96, channel=13, data=[50, 64]),
   midi.NoteOnEvent(tick=24, channel=13, data=[50, 58]),
   midi.NoteOffEvent(tick=96, channel=13, data=[50, 64]),
   midi.NoteOnEvent(tick=24, channel=13, data=[50, 78]),
   midi.NoteOffEvent(tick=96, channel=13, data=[50, 64]),
   midi.NoteOnEvent(tick=24, channel=13, data=[50, 58]),
   midi.NoteOffEvent(tick=96, channel=13, data=[50, 64]),
   midi.NoteOnEvent(tick=24, channel=13, data=[50, 58]),
   midi.NoteOffEvent(tick=96, channel=13, data=[50, 64]),
   midi.NoteOnEvent(tick=24, channel=13, data=[50, 58]),
   midi.NoteOffEvent(tick=96, channel=13, data=[50, 64]),
   midi.NoteOnEvent(tick=24, channel=13, data=[50, 58]),
   midi.NoteOffEvent(tick=96, channel=13, data=[50, 64]),
   midi.NoteOnEvent(tick=24, channel=13, data=[50, 58]),
   midi.NoteOffEvent(tick=96, channel=13, data=[50, 64]),
   midi.NoteOnEvent(tick=24, channel=13, data=[50, 58]),
   midi.NoteOffEvent(tick=96, channel=13, data=[50, 64]),
   midi.NoteOnEvent(tick=24, channel=13, data=[50, 58]),
   midi.NoteOffEvent(tick=96, channel=13, data=[50, 64]),
   midi.NoteOnEvent(tick=24, channel=13, data=[50, 58]),
   midi.NoteOffEvent(tick=96, channel=13, data=[50, 64]),
   midi.NoteOnEvent(tick=24, channel=13, data=[50, 58]),
   midi.NoteOffEvent(tick=96, channel=13, data=[50, 64]),
   midi.NoteOnEvent(tick=24, channel=13, data=[50, 58]),
   midi.NoteOffEvent(tick=96, channel=13, data=[50, 64]),
   midi.NoteOnEvent(tick=24, channel=13, data=[50, 58]),
   midi.NoteOffEvent(tick=96, channel=13, data=[50, 64]),
   midi.NoteOnEvent(tick=24, channel=13, data=[50, 58]),
   midi.NoteOffEvent(tick=192, channel=13, data=[50, 64]),
   midi.NoteOnEvent(tick=648, channel=13, data=[50, 58]),
   midi.NoteOffEvent(tick=96, channel=13, data=[50, 64]),
   midi.NoteOnEvent(tick=24, channel=13, data=[50, 58]),
   midi.NoteOffEvent(tick=96, channel=13, data=[50, 64]),
   midi.NoteOnEvent(tick=24, channel=13, data=[50, 58]),
   midi.NoteOffEvent(tick=96, channel=13, data=[50, 64]),
   midi.NoteOnEvent(tick=24, channel=13, data=[50, 58]),
   midi.NoteOffEvent(tick=96, channel=13, data=[50, 64]),
   midi.NoteOnEvent(tick=24, channel=13, data=[50, 58]),
   midi.NoteOffEvent(tick=96, channel=13, data=[50, 64]),
   midi.NoteOnEvent(tick=24, channel=13, data=[50, 58]),
   midi.NoteOffEvent(tick=336, channel=13, data=[50, 64]),
   midi.NoteOnEvent(tick=384, channel=13, data=[55, 58]),
   midi.NoteOffEvent(tick=192, channel=13, data=[55, 64]),
   midi.NoteOnEvent(tick=288, channel=13, data=[55, 58]),
   midi.NoteOffEvent(tick=192, channel=13, data=[55, 64]),
   midi.NoteOnEvent(tick=48, channel=13, data=[54, 58]),
   midi.NoteOffEvent(tick=288, channel=13, data=[54, 64]),
   midi.NoteOnEvent(tick=72, channel=13, data=[50, 58]),
   midi.NoteOffEvent(tick=120, channel=13, data=[50, 64]),
   midi.NoteOnEvent(tick=0, channel=13, data=[52, 58]),
   midi.NoteOffEvent(tick=120, channel=13, data=[52, 64]),
   midi.NoteOnEvent(tick=0, channel=13, data=[54, 58]),
   midi.NoteOffEvent(tick=96, channel=13, data=[54, 64]),
   midi.NoteOnEvent(tick=24, channel=13, data=[55, 58]),
   midi.NoteOffEvent(tick=96, channel=13, data=[55, 64]),
   midi.NoteOnEvent(tick=24, channel=13, data=[55, 58]),
   midi.NoteOffEvent(tick=96, channel=13, data=[55, 64]),
   midi.NoteOnEvent(tick=24, channel=13, data=[55, 58]),
   midi.NoteOffEvent(tick=96, channel=13, data=[55, 64]),
   midi.NoteOnEvent(tick=24, channel=13, data=[55, 58]),
   midi.NoteOffEvent(tick=96, channel=13, data=[55, 64]),
   midi.NoteOnEvent(tick=24, channel=13, data=[55, 58]),
   midi.NoteOffEvent(tick=96, channel=13, data=[55, 64]),
   midi.NoteOnEvent(tick=24, channel=13, data=[55, 58]),
   midi.NoteOffEvent(tick=96, channel=13, data=[55, 64]),
   midi.NoteOnEvent(tick=24, channel=13, data=[55, 58]),
   midi.NoteOffEvent(tick=288, channel=13, data=[55, 64]),
   midi.NoteOnEvent(tick=72, channel=13, data=[55, 58]),
   midi.NoteOffEvent(tick=78, channel=13, data=[55, 64]),
   midi.NoteOnEvent(tick=42, channel=13, data=[50, 58]),
   midi.NoteOffEvent(tick=78, channel=13, data=[50, 64]),
   midi.NoteOnEvent(tick=42, channel=13, data=[47, 58]),
   midi.NoteOffEvent(tick=78, channel=13, data=[47, 64]),
   midi.NoteOnEvent(tick=42, channel=13, data=[43, 58]),
   midi.NoteOffEvent(tick=192, channel=13, data=[43, 64]),
   midi.NoteOnEvent(tick=528, channel=13, data=[57, 58]),
   midi.NoteOffEvent(tick=624, channel=13, data=[57, 64]),
   midi.NoteOnEvent(tick=36, channel=13, data=[55, 58]),
   midi.NoteOffEvent(tick=48, channel=13, data=[55, 64]),
   midi.NoteOnEvent(tick=12, channel=13, data=[54, 58]),
   midi.NoteOffEvent(tick=180, channel=13, data=[54, 64]),
   midi.NoteOnEvent(tick=0, channel=13, data=[55, 58]),
   midi.NoteOffEvent(tick=48, channel=13, data=[55, 64]),
   midi.NoteOnEvent(tick=12, channel=13, data=[57, 58]),
   midi.NoteOffEvent(tick=192, channel=13, data=[57, 64]),
   midi.NoteOnEvent(tick=48, channel=13, data=[45, 58]),
   midi.NoteOffEvent(tick=192, channel=13, data=[45, 64]),
   midi.NoteOnEvent(tick=48, channel=13, data=[50, 58]),
   midi.NoteOffEvent(tick=192, channel=13, data=[50, 64]),
   midi.NoteOnEvent(tick=528, channel=13, data=[52, 78]),
   midi.NoteOffEvent(tick=288, channel=13, data=[52, 64]),
   midi.NoteOnEvent(tick=72, channel=13, data=[50, 58]),
   midi.NoteOffEvent(tick=72, channel=13, data=[50, 64]),
   midi.NoteOnEvent(tick=48, channel=13, data=[49, 58]),
   midi.NoteOffEvent(tick=72, channel=13, data=[49, 64]),
   midi.NoteOnEvent(tick=48, channel=13, data=[47, 58]),
   midi.NoteOffEvent(tick=72, channel=13, data=[47, 64]),
   midi.NoteOnEvent(tick=48, channel=13, data=[45, 58]),
   midi.NoteOffEvent(tick=192, channel=13, data=[45, 64]),
   midi.NoteOnEvent(tick=528, channel=13, data=[64, 78]),
   midi.NoteOffEvent(tick=288, channel=13, data=[64, 64]),
   midi.NoteOnEvent(tick=72, channel=13, data=[62, 58]),
   midi.NoteOffEvent(tick=72, channel=13, data=[62, 64]),
   midi.NoteOnEvent(tick=48, channel=13, data=[61, 58]),
   midi.NoteOffEvent(tick=72, channel=13, data=[61, 64]),
   midi.NoteOnEvent(tick=48, channel=13, data=[59, 58]),
   midi.NoteOffEvent(tick=72, channel=13, data=[59, 64]),
   midi.NoteOnEvent(tick=48, channel=13, data=[57, 58]),
   midi.NoteOffEvent(tick=192, channel=13, data=[57, 64]),
   midi.NoteOnEvent(tick=528, channel=13, data=[50, 58]),
   midi.NoteOffEvent(tick=480, channel=13, data=[50, 64]),
   midi.NoteOnEvent(tick=0, channel=13, data=[49, 58]),
   midi.NoteOffEvent(tick=192, channel=13, data=[49, 64]),
   midi.NoteOnEvent(tick=48, channel=13, data=[47, 58]),
   midi.NoteOffEvent(tick=288, channel=13, data=[47, 64]),
   midi.NoteOnEvent(tick=72, channel=13, data=[47, 58]),
   midi.NoteOffEvent(tick=96, channel=13, data=[47, 64]),
   midi.NoteOnEvent(tick=24, channel=13, data=[45, 58]),
   midi.NoteOffEvent(tick=192, channel=13, data=[45, 64]),
   midi.NoteOnEvent(tick=48, channel=13, data=[43, 58]),
   midi.NoteOffEvent(tick=96, channel=13, data=[43, 64]),
   midi.NoteOnEvent(tick=144, channel=13, data=[43, 58]),
   midi.NoteOffEvent(tick=96, channel=13, data=[43, 64]),
   midi.NoteOnEvent(tick=144, channel=13, data=[44, 58]),
   midi.NoteOffEvent(tick=96, channel=13, data=[44, 64]),
   midi.NoteOnEvent(tick=144, channel=13, data=[45, 58]),
   midi.NoteOffEvent(tick=60, channel=13, data=[45, 64]),
   midi.NoteOnEvent(tick=0, channel=13, data=[44, 58]),
   midi.NoteOffEvent(tick=60, channel=13, data=[44, 64]),
   midi.NoteOnEvent(tick=0, channel=13, data=[45, 58]),
   midi.NoteOffEvent(tick=60, channel=13, data=[45, 64]),
   midi.NoteOnEvent(tick=0, channel=13, data=[44, 58]),
   midi.NoteOffEvent(tick=60, channel=13, data=[44, 64]),
   midi.NoteOnEvent(tick=0, channel=13, data=[45, 58]),
   midi.NoteOffEvent(tick=192, channel=13, data=[45, 64]),
   midi.NoteOnEvent(tick=288, channel=13, data=[50, 58]),
   midi.NoteOffEvent(tick=480, channel=13, data=[50, 64]),
   midi.NoteOnEvent(tick=0, channel=13, data=[49, 58]),
   midi.NoteOffEvent(tick=192, channel=13, data=[49, 64]),
   midi.NoteOnEvent(tick=48, channel=13, data=[47, 58]),
   midi.NoteOffEvent(tick=288, channel=13, data=[47, 64]),
   midi.NoteOnEvent(tick=72, channel=13, data=[47, 58]),
   midi.NoteOffEvent(tick=96, channel=13, data=[47, 64]),
   midi.NoteOnEvent(tick=24, channel=13, data=[45, 58]),
   midi.NoteOffEvent(tick=192, channel=13, data=[45, 64]),
   midi.NoteOnEvent(tick=48, channel=13, data=[43, 58]),
   midi.NoteOffEvent(tick=96, channel=13, data=[43, 64]),
   midi.NoteOnEvent(tick=144, channel=13, data=[45, 58]),
   midi.NoteOffEvent(tick=96, channel=13, data=[45, 64]),
   midi.NoteOnEvent(tick=144, channel=13, data=[45, 58]),
   midi.NoteOffEvent(tick=96, channel=13, data=[45, 64]),
   midi.NoteOnEvent(tick=144, channel=13, data=[50, 78]),
   midi.NoteOffEvent(tick=96, channel=13, data=[50, 64]),
   midi.NoteOnEvent(tick=24, channel=13, data=[50, 58]),
   midi.NoteOffEvent(tick=96, channel=13, data=[50, 64]),
   midi.NoteOnEvent(tick=24, channel=13, data=[50, 58]),
   midi.NoteOffEvent(tick=96, channel=13, data=[50, 64]),
   midi.NoteOnEvent(tick=24, channel=13, data=[50, 58]),
   midi.NoteOffEvent(tick=96, channel=13, data=[50, 64]),
   midi.NoteOnEvent(tick=24, channel=13, data=[50, 58]),
   midi.NoteOffEvent(tick=96, channel=13, data=[50, 64]),
   midi.NoteOnEvent(tick=24, channel=13, data=[50, 58]),
   midi.NoteOffEvent(tick=96, channel=13, data=[50, 64]),
   midi.NoteOnEvent(tick=24, channel=13, data=[50, 58]),
   midi.NoteOffEvent(tick=96, channel=13, data=[50, 64]),
   midi.NoteOnEvent(tick=24, channel=13, data=[50, 58]),
   midi.NoteOffEvent(tick=96, channel=13, data=[50, 64]),
   midi.NoteOnEvent(tick=24, channel=13, data=[50, 58]),
   midi.NoteOffEvent(tick=96, channel=13, data=[50, 64]),
   midi.NoteOnEvent(tick=24, channel=13, data=[50, 58]),
   midi.NoteOffEvent(tick=96, channel=13, data=[50, 64]),
   midi.NoteOnEvent(tick=24, channel=13, data=[50, 58]),
   midi.NoteOffEvent(tick=96, channel=13, data=[50, 64]),
   midi.NoteOnEvent(tick=24, channel=13, data=[50, 58]),
   midi.NoteOffEvent(tick=96, channel=13, data=[50, 64]),
   midi.NoteOnEvent(tick=24, channel=13, data=[50, 78]),
   midi.NoteOffEvent(tick=96, channel=13, data=[50, 64]),
   midi.NoteOnEvent(tick=24, channel=13, data=[50, 58]),
   midi.NoteOffEvent(tick=96, channel=13, data=[50, 64]),
   midi.NoteOnEvent(tick=24, channel=13, data=[50, 58]),
   midi.NoteOffEvent(tick=96, channel=13, data=[50, 64]),
   midi.NoteOnEvent(tick=24, channel=13, data=[50, 58]),
   midi.NoteOffEvent(tick=96, channel=13, data=[50, 64]),
   midi.NoteOnEvent(tick=24, channel=13, data=[50, 58]),
   midi.NoteOffEvent(tick=96, channel=13, data=[50, 64]),
   midi.NoteOnEvent(tick=24, channel=13, data=[50, 58]),
   midi.NoteOffEvent(tick=96, channel=13, data=[50, 64]),
   midi.NoteOnEvent(tick=24, channel=13, data=[50, 58]),
   midi.NoteOffEvent(tick=96, channel=13, data=[50, 64]),
   midi.NoteOnEvent(tick=24, channel=13, data=[50, 58]),
   midi.NoteOffEvent(tick=96, channel=13, data=[50, 64]),
   midi.NoteOnEvent(tick=24, channel=13, data=[50, 58]),
   midi.NoteOffEvent(tick=96, channel=13, data=[50, 64]),
   midi.NoteOnEvent(tick=24, channel=13, data=[50, 58]),
   midi.NoteOffEvent(tick=96, channel=13, data=[50, 64]),
   midi.NoteOnEvent(tick=24, channel=13, data=[50, 58]),
   midi.NoteOffEvent(tick=96, channel=13, data=[50, 64]),
   midi.NoteOnEvent(tick=24, channel=13, data=[50, 58]),
   midi.NoteOffEvent(tick=96, channel=13, data=[50, 64]),
   midi.NoteOnEvent(tick=24, channel=13, data=[50, 58]),
   midi.NoteOffEvent(tick=192, channel=13, data=[50, 64]),
   midi.NoteOnEvent(tick=648, channel=13, data=[50, 58]),
   midi.NoteOffEvent(tick=96, channel=13, data=[50, 64]),
   midi.NoteOnEvent(tick=24, channel=13, data=[50, 58]),
   midi.NoteOffEvent(tick=96, channel=13, data=[50, 64]),
   midi.NoteOnEvent(tick=24, channel=13, data=[50, 58]),
   midi.NoteOffEvent(tick=96, channel=13, data=[50, 64]),
   midi.NoteOnEvent(tick=24, channel=13, data=[50, 58]),
   midi.NoteOffEvent(tick=96, channel=13, data=[50, 64]),
   midi.NoteOnEvent(tick=24, channel=13, data=[50, 58]),
   midi.NoteOffEvent(tick=96, channel=13, data=[50, 64]),
   midi.NoteOnEvent(tick=24, channel=13, data=[50, 58]),
   midi.NoteOffEvent(tick=336, channel=13, data=[50, 64]),
   midi.NoteOnEvent(tick=264, channel=13, data=[50, 105]),
   midi.NoteOffEvent(tick=96, channel=13, data=[50, 64]),
   midi.NoteOnEvent(tick=24, channel=13, data=[62, 105]),
   midi.NoteOffEvent(tick=144, channel=13, data=[62, 64]),
   midi.NoteOnEvent(tick=36, channel=13, data=[64, 105]),
   midi.NoteOffEvent(tick=36, channel=13, data=[64, 64]),
   midi.NoteOnEvent(tick=24, channel=13, data=[65, 105]),
   midi.NoteOffEvent(tick=72, channel=13, data=[65, 64]),
   midi.NoteOnEvent(tick=48, channel=13, data=[62, 105]),
   midi.NoteOffEvent(tick=72, channel=13, data=[62, 64]),
   midi.NoteOnEvent(tick=48, channel=13, data=[59, 105]),
   midi.NoteOffEvent(tick=72, channel=13, data=[59, 64]),
   midi.NoteOnEvent(tick=48, channel=13, data=[57, 105]),
   midi.NoteOffEvent(tick=72, channel=13, data=[57, 64]),
   midi.NoteOnEvent(tick=48, channel=13, data=[56, 105]),
   midi.NoteOffEvent(tick=66, channel=13, data=[56, 64]),
   midi.NoteOnEvent(tick=54, channel=13, data=[59, 105]),
   midi.NoteOffEvent(tick=66, channel=13, data=[59, 64]),
   midi.NoteOnEvent(tick=54, channel=13, data=[64, 105]),
   midi.NoteOffEvent(tick=192, channel=13, data=[64, 64]),
   midi.NoteOnEvent(tick=288, channel=13, data=[57, 58]),
   midi.NoteOffEvent(tick=576, channel=13, data=[57, 64]),
   midi.NoteOnEvent(tick=24, channel=13, data=[52, 58]),
   midi.NoteOffEvent(tick=96, channel=13, data=[52, 64]),
   midi.NoteOnEvent(tick=24, channel=13, data=[52, 58]),
   midi.NoteOffEvent(tick=192, channel=13, data=[52, 64]),
   midi.NoteOnEvent(tick=48, channel=13, data=[45, 58]),
   midi.NoteOffEvent(tick=240, channel=13, data=[45, 64]),
   midi.NoteOnEvent(tick=0, channel=13, data=[50, 92]),
   midi.NoteOffEvent(tick=192, channel=13, data=[50, 64]),
   midi.NoteOnEvent(tick=48, channel=13, data=[43, 92]),
   midi.NoteOffEvent(tick=96, channel=13, data=[43, 64]),
   midi.NoteOnEvent(tick=144, channel=13, data=[47, 92]),
   midi.NoteOffEvent(tick=96, channel=13, data=[47, 64]),
   midi.NoteOnEvent(tick=144, channel=13, data=[50, 92]),
   midi.NoteOffEvent(tick=96, channel=13, data=[50, 64]),
   midi.NoteOnEvent(tick=144, channel=13, data=[55, 92]),
   midi.NoteOffEvent(tick=96, channel=13, data=[55, 64]),
   midi.NoteOnEvent(tick=144, channel=13, data=[47, 92]),
   midi.NoteOffEvent(tick=96, channel=13, data=[47, 64]),
   midi.NoteOnEvent(tick=144, channel=13, data=[50, 92]),
   midi.NoteOffEvent(tick=96, channel=13, data=[50, 64]),
   midi.NoteOnEvent(tick=144, channel=13, data=[43, 92]),
   midi.NoteOffEvent(tick=96, channel=13, data=[43, 64]),
   midi.NoteOnEvent(tick=144, channel=13, data=[55, 92]),
   midi.NoteOffEvent(tick=192, channel=13, data=[55, 64]),
   midi.NoteOnEvent(tick=48, channel=13, data=[62, 92]),
   midi.NoteOffEvent(tick=96, channel=13, data=[62, 64]),
   midi.NoteOnEvent(tick=24, channel=13, data=[59, 92]),
   midi.NoteOffEvent(tick=48, channel=13, data=[59, 64]),
   midi.NoteOnEvent(tick=12, channel=13, data=[55, 92]),
   midi.NoteOffEvent(tick=48, channel=13, data=[55, 64]),
   midi.NoteOnEvent(tick=12, channel=13, data=[62, 92]),
   midi.NoteOffEvent(tick=96, channel=13, data=[62, 64]),
   midi.NoteOnEvent(tick=24, channel=13, data=[59, 92]),
   midi.NoteOffEvent(tick=48, channel=13, data=[59, 64]),
   midi.NoteOnEvent(tick=12, channel=13, data=[55, 92]),
   midi.NoteOffEvent(tick=48, channel=13, data=[55, 64]),
   midi.NoteOnEvent(tick=12, channel=13, data=[50, 92]),
   midi.NoteOffEvent(tick=192, channel=13, data=[50, 64]),
   midi.NoteOnEvent(tick=1728, channel=13, data=[57, 78]),
   midi.NoteOffEvent(tick=288, channel=13, data=[57, 64]),
   midi.NoteOnEvent(tick=72, channel=13, data=[55, 58]),
   midi.NoteOffEvent(tick=96, channel=13, data=[55, 64]),
   midi.NoteOnEvent(tick=24, channel=13, data=[54, 58]),
   midi.NoteOffEvent(tick=96, channel=13, data=[54, 64]),
   midi.NoteOnEvent(tick=24, channel=13, data=[52, 58]),
   midi.NoteOffEvent(tick=96, channel=13, data=[52, 64]),
   midi.NoteOnEvent(tick=24, channel=13, data=[50, 58]),
   midi.NoteOffEvent(tick=192, channel=13, data=[50, 64]),
   midi.NoteOnEvent(tick=528, channel=13, data=[57, 78]),
   midi.NoteOffEvent(tick=288, channel=13, data=[57, 64]),
   midi.NoteOnEvent(tick=72, channel=13, data=[55, 58]),
   midi.NoteOffEvent(tick=96, channel=13, data=[55, 64]),
   midi.NoteOnEvent(tick=24, channel=13, data=[54, 58]),
   midi.NoteOffEvent(tick=96, channel=13, data=[54, 64]),
   midi.NoteOnEvent(tick=24, channel=13, data=[52, 58]),
   midi.NoteOffEvent(tick=96, channel=13, data=[52, 64]),
   midi.NoteOnEvent(tick=24, channel=13, data=[50, 58]),
   midi.NoteOffEvent(tick=192, channel=13, data=[50, 64]),
   midi.NoteOnEvent(tick=528, channel=13, data=[55, 58]),
   midi.NoteOffEvent(tick=480, channel=13, data=[55, 64]),
   midi.NoteOnEvent(tick=0, channel=13, data=[54, 58]),
   midi.NoteOffEvent(tick=192, channel=13, data=[54, 64]),
   midi.NoteOnEvent(tick=48, channel=13, data=[52, 58]),
   midi.NoteOffEvent(tick=288, channel=13, data=[52, 64]),
   midi.NoteOnEvent(tick=72, channel=13, data=[52, 58]),
   midi.NoteOffEvent(tick=96, channel=13, data=[52, 64]),
   midi.NoteOnEvent(tick=24, channel=13, data=[50, 58]),
   midi.NoteOffEvent(tick=192, channel=13, data=[50, 64]),
   midi.NoteOnEvent(tick=48, channel=13, data=[48, 58]),
   midi.NoteOffEvent(tick=96, channel=13, data=[48, 64]),
   midi.NoteOnEvent(tick=144, channel=13, data=[48, 58]),
   midi.NoteOffEvent(tick=96, channel=13, data=[48, 64]),
   midi.NoteOnEvent(tick=144, channel=13, data=[49, 58]),
   midi.NoteOffEvent(tick=96, channel=13, data=[49, 64]),
   midi.NoteOnEvent(tick=144, channel=13, data=[50, 58]),
   midi.NoteOffEvent(tick=60, channel=13, data=[50, 64]),
   midi.NoteOnEvent(tick=0, channel=13, data=[49, 58]),
   midi.NoteOffEvent(tick=60, channel=13, data=[49, 64]),
   midi.NoteOnEvent(tick=0, channel=13, data=[50, 58]),
   midi.NoteOffEvent(tick=60, channel=13, data=[50, 64]),
   midi.NoteOnEvent(tick=0, channel=13, data=[49, 58]),
   midi.NoteOffEvent(tick=60, channel=13, data=[49, 64]),
   midi.NoteOnEvent(tick=0, channel=13, data=[50, 58]),
   midi.NoteOffEvent(tick=192, channel=13, data=[50, 64]),
   midi.NoteOnEvent(tick=288, channel=13, data=[55, 58]),
   midi.NoteOffEvent(tick=480, channel=13, data=[55, 64]),
   midi.NoteOnEvent(tick=0, channel=13, data=[54, 58]),
   midi.NoteOffEvent(tick=192, channel=13, data=[54, 64]),
   midi.NoteOnEvent(tick=48, channel=13, data=[52, 58]),
   midi.NoteOffEvent(tick=288, channel=13, data=[52, 64]),
   midi.NoteOnEvent(tick=72, channel=13, data=[52, 58]),
   midi.NoteOffEvent(tick=96, channel=13, data=[52, 64]),
   midi.NoteOnEvent(tick=24, channel=13, data=[50, 58]),
   midi.NoteOffEvent(tick=192, channel=13, data=[50, 64]),
   midi.NoteOnEvent(tick=48, channel=13, data=[48, 58]),
   midi.NoteOffEvent(tick=288, channel=13, data=[48, 64]),
   midi.NoteOnEvent(tick=72, channel=13, data=[48, 58]),
   midi.NoteOffEvent(tick=90, channel=13, data=[48, 64]),
   midi.NoteOnEvent(tick=30, channel=13, data=[48, 58]),
   midi.NoteOffEvent(tick=90, channel=13, data=[48, 64]),
   midi.NoteOnEvent(tick=30, channel=13, data=[48, 58]),
   midi.NoteOffEvent(tick=90, channel=13, data=[48, 64]),
   midi.NoteOnEvent(tick=30, channel=13, data=[48, 58]),
   midi.NoteOffEvent(tick=288, channel=13, data=[48, 64]),
   midi.NoteOnEvent(tick=72, channel=13, data=[48, 58]),
   midi.NoteOffEvent(tick=90, channel=13, data=[48, 64]),
   midi.NoteOnEvent(tick=30, channel=13, data=[48, 58]),
   midi.NoteOffEvent(tick=90, channel=13, data=[48, 64]),
   midi.NoteOnEvent(tick=30, channel=13, data=[48, 58]),
   midi.NoteOffEvent(tick=90, channel=13, data=[48, 64]),
   midi.NoteOnEvent(tick=30, channel=13, data=[47, 58]),
   midi.NoteOffEvent(tick=240, channel=13, data=[47, 64]),
   midi.NoteOnEvent(tick=0, channel=13, data=[48, 58]),
   midi.NoteOffEvent(tick=240, channel=13, data=[48, 64]),
   midi.NoteOnEvent(tick=0, channel=13, data=[50, 58]),
   midi.NoteOffEvent(tick=240, channel=13, data=[50, 64]),
   midi.NoteOnEvent(tick=0, channel=13, data=[55, 78]),
   midi.NoteOffEvent(tick=90, channel=13, data=[55, 64]),
   midi.NoteOnEvent(tick=30, channel=13, data=[55, 58]),
   midi.NoteOffEvent(tick=90, channel=13, data=[55, 64]),
   midi.NoteOnEvent(tick=30, channel=13, data=[55, 58]),
   midi.NoteOffEvent(tick=90, channel=13, data=[55, 64]),
   midi.NoteOnEvent(tick=30, channel=13, data=[55, 58]),
   midi.NoteOffEvent(tick=90, channel=13, data=[55, 64]),
   midi.NoteOnEvent(tick=30, channel=13, data=[55, 58]),
   midi.NoteOffEvent(tick=90, channel=13, data=[55, 64]),
   midi.NoteOnEvent(tick=30, channel=13, data=[55, 58]),
   midi.NoteOffEvent(tick=90, channel=13, data=[55, 64]),
   midi.NoteOnEvent(tick=30, channel=13, data=[55, 58]),
   midi.NoteOffEvent(tick=90, channel=13, data=[55, 64]),
   midi.NoteOnEvent(tick=30, channel=13, data=[55, 58]),
   midi.NoteOffEvent(tick=90, channel=13, data=[55, 64]),
   midi.NoteOnEvent(tick=30, channel=13, data=[55, 58]),
   midi.NoteOffEvent(tick=90, channel=13, data=[55, 64]),
   midi.NoteOnEvent(tick=30, channel=13, data=[55, 58]),
   midi.NoteOffEvent(tick=90, channel=13, data=[55, 64]),
   midi.NoteOnEvent(tick=30, channel=13, data=[55, 58]),
   midi.NoteOffEvent(tick=90, channel=13, data=[55, 64]),
   midi.NoteOnEvent(tick=30, channel=13, data=[55, 58]),
   midi.NoteOffEvent(tick=90, channel=13, data=[55, 64]),
   midi.NoteOnEvent(tick=30, channel=13, data=[55, 78]),
   midi.NoteOffEvent(tick=90, channel=13, data=[55, 64]),
   midi.NoteOnEvent(tick=30, channel=13, data=[55, 58]),
   midi.NoteOffEvent(tick=90, channel=13, data=[55, 64]),
   midi.NoteOnEvent(tick=30, channel=13, data=[55, 58]),
   midi.NoteOffEvent(tick=90, channel=13, data=[55, 64]),
   midi.NoteOnEvent(tick=30, channel=13, data=[55, 58]),
   midi.NoteOffEvent(tick=90, channel=13, data=[55, 64]),
   midi.NoteOnEvent(tick=30, channel=13, data=[55, 58]),
   midi.NoteOffEvent(tick=90, channel=13, data=[55, 64]),
   midi.NoteOnEvent(tick=30, channel=13, data=[55, 58]),
   midi.NoteOffEvent(tick=90, channel=13, data=[55, 64]),
   midi.NoteOnEvent(tick=30, channel=13, data=[55, 58]),
   midi.NoteOffEvent(tick=90, channel=13, data=[55, 64]),
   midi.NoteOnEvent(tick=30, channel=13, data=[55, 58]),
   midi.NoteOffEvent(tick=90, channel=13, data=[55, 64]),
   midi.NoteOnEvent(tick=30, channel=13, data=[55, 58]),
   midi.NoteOffEvent(tick=90, channel=13, data=[55, 64]),
   midi.NoteOnEvent(tick=30, channel=13, data=[55, 58]),
   midi.NoteOffEvent(tick=90, channel=13, data=[55, 64]),
   midi.NoteOnEvent(tick=30, channel=13, data=[55, 58]),
   midi.NoteOffEvent(tick=90, channel=13, data=[55, 64]),
   midi.NoteOnEvent(tick=30, channel=13, data=[55, 58]),
   midi.NoteOffEvent(tick=90, channel=13, data=[55, 64]),
   midi.NoteOnEvent(tick=30, channel=13, data=[55, 58]),
   midi.NoteOffEvent(tick=192, channel=13, data=[55, 64]),
   midi.NoteOnEvent(tick=888, channel=13, data=[55, 70]),
   midi.NoteOffEvent(tick=96, channel=13, data=[55, 64]),
   midi.NoteOnEvent(tick=24, channel=13, data=[55, 70]),
   midi.NoteOffEvent(tick=96, channel=13, data=[55, 64]),
   midi.NoteOnEvent(tick=24, channel=13, data=[55, 70]),
   midi.NoteOffEvent(tick=96, channel=13, data=[55, 64]),
   midi.NoteOnEvent(tick=24, channel=13, data=[55, 80]),
   midi.NoteOffEvent(tick=96, channel=13, data=[55, 64]),
   midi.NoteOnEvent(tick=24, channel=13, data=[55, 80]),
   midi.NoteOffEvent(tick=96, channel=13, data=[55, 64]),
   midi.NoteOnEvent(tick=24, channel=13, data=[55, 92]),
   midi.NoteOffEvent(tick=96, channel=13, data=[55, 64]),
   midi.NoteOnEvent(tick=24, channel=13, data=[55, 92]),
   midi.NoteOffEvent(tick=96, channel=13, data=[55, 64]),
   midi.NoteOnEvent(tick=24, channel=13, data=[55, 105]),
   midi.NoteOffEvent(tick=96, channel=13, data=[55, 64]),
   midi.NoteOnEvent(tick=24, channel=13, data=[55, 105]),
   midi.NoteOffEvent(tick=96, channel=13, data=[55, 64]),
   midi.NoteOnEvent(tick=24, channel=13, data=[48, 105]),
   midi.NoteOffEvent(tick=192, channel=13, data=[48, 64]),
   midi.NoteOnEvent(tick=408, channel=13, data=[50, 58]),
   midi.NoteOffEvent(tick=78, channel=13, data=[50, 64]),
   midi.NoteOnEvent(tick=42, channel=13, data=[43, 58]),
   midi.NoteOffEvent(tick=600, channel=13, data=[43, 64]),
   midi.EndOfTrackEvent(tick=0, data=[])]),
 midi.Track(\
  [midi.ProgramChangeEvent(tick=0, channel=14, data=[43]),
   midi.ControlChangeEvent(tick=0, channel=14, data=[7, 104]),
   midi.ControlChangeEvent(tick=0, channel=14, data=[10, 96]),
   midi.ControlChangeEvent(tick=0, channel=14, data=[91, 70]),
   midi.NoteOnEvent(tick=720, channel=14, data=[43, 58]),
   midi.NoteOffEvent(tick=192, channel=14, data=[43, 64]),
   midi.NoteOnEvent(tick=288, channel=14, data=[43, 58]),
   midi.NoteOffEvent(tick=192, channel=14, data=[43, 64]),
   midi.NoteOnEvent(tick=48, channel=14, data=[42, 58]),
   midi.NoteOffEvent(tick=288, channel=14, data=[42, 64]),
   midi.NoteOnEvent(tick=72, channel=14, data=[38, 58]),
   midi.NoteOffEvent(tick=120, channel=14, data=[38, 64]),
   midi.NoteOnEvent(tick=0, channel=14, data=[40, 58]),
   midi.NoteOffEvent(tick=120, channel=14, data=[40, 64]),
   midi.NoteOnEvent(tick=0, channel=14, data=[42, 58]),
   midi.NoteOffEvent(tick=96, channel=14, data=[42, 64]),
   midi.NoteOnEvent(tick=24, channel=14, data=[43, 58]),
   midi.NoteOffEvent(tick=96, channel=14, data=[43, 64]),
   midi.NoteOnEvent(tick=24, channel=14, data=[43, 58]),
   midi.NoteOffEvent(tick=96, channel=14, data=[43, 64]),
   midi.NoteOnEvent(tick=24, channel=14, data=[43, 58]),
   midi.NoteOffEvent(tick=96, channel=14, data=[43, 64]),
   midi.NoteOnEvent(tick=24, channel=14, data=[43, 58]),
   midi.NoteOffEvent(tick=96, channel=14, data=[43, 64]),
   midi.NoteOnEvent(tick=24, channel=14, data=[43, 58]),
   midi.NoteOffEvent(tick=96, channel=14, data=[43, 64]),
   midi.NoteOnEvent(tick=24, channel=14, data=[43, 58]),
   midi.NoteOffEvent(tick=96, channel=14, data=[43, 64]),
   midi.NoteOnEvent(tick=24, channel=14, data=[43, 58]),
   midi.NoteOffEvent(tick=288, channel=14, data=[43, 64]),
   midi.NoteOnEvent(tick=72, channel=14, data=[43, 58]),
   midi.NoteOffEvent(tick=78, channel=14, data=[43, 64]),
   midi.NoteOnEvent(tick=42, channel=14, data=[38, 58]),
   midi.NoteOffEvent(tick=78, channel=14, data=[38, 64]),
   midi.NoteOnEvent(tick=42, channel=14, data=[35, 58]),
   midi.NoteOffEvent(tick=78, channel=14, data=[35, 64]),
   midi.NoteOnEvent(tick=42, channel=14, data=[31, 58]),
   midi.NoteOffEvent(tick=192, channel=14, data=[31, 64]),
   midi.NoteOnEvent(tick=528, channel=14, data=[45, 58]),
   midi.NoteOffEvent(tick=624, channel=14, data=[45, 64]),
   midi.NoteOnEvent(tick=36, channel=14, data=[43, 58]),
   midi.NoteOffEvent(tick=48, channel=14, data=[43, 64]),
   midi.NoteOnEvent(tick=12, channel=14, data=[42, 58]),
   midi.NoteOffEvent(tick=180, channel=14, data=[42, 64]),
   midi.NoteOnEvent(tick=0, channel=14, data=[43, 58]),
   midi.NoteOffEvent(tick=48, channel=14, data=[43, 64]),
   midi.NoteOnEvent(tick=12, channel=14, data=[45, 58]),
   midi.NoteOffEvent(tick=192, channel=14, data=[45, 64]),
   midi.NoteOnEvent(tick=48, channel=14, data=[33, 58]),
   midi.NoteOffEvent(tick=192, channel=14, data=[33, 64]),
   midi.NoteOnEvent(tick=48, channel=14, data=[38, 58]),
   midi.NoteOffEvent(tick=192, channel=14, data=[38, 64]),
   midi.NoteOnEvent(tick=528, channel=14, data=[40, 78]),
   midi.NoteOffEvent(tick=288, channel=14, data=[40, 64]),
   midi.NoteOnEvent(tick=72, channel=14, data=[38, 58]),
   midi.NoteOffEvent(tick=72, channel=14, data=[38, 64]),
   midi.NoteOnEvent(tick=48, channel=14, data=[37, 58]),
   midi.NoteOffEvent(tick=72, channel=14, data=[37, 64]),
   midi.NoteOnEvent(tick=48, channel=14, data=[35, 58]),
   midi.NoteOffEvent(tick=72, channel=14, data=[35, 64]),
   midi.NoteOnEvent(tick=48, channel=14, data=[33, 58]),
   midi.NoteOffEvent(tick=192, channel=14, data=[33, 64]),
   midi.NoteOnEvent(tick=528, channel=14, data=[52, 78]),
   midi.NoteOffEvent(tick=288, channel=14, data=[52, 64]),
   midi.NoteOnEvent(tick=72, channel=14, data=[50, 58]),
   midi.NoteOffEvent(tick=72, channel=14, data=[50, 64]),
   midi.NoteOnEvent(tick=48, channel=14, data=[49, 58]),
   midi.NoteOffEvent(tick=72, channel=14, data=[49, 64]),
   midi.NoteOnEvent(tick=48, channel=14, data=[47, 58]),
   midi.NoteOffEvent(tick=72, channel=14, data=[47, 64]),
   midi.NoteOnEvent(tick=48, channel=14, data=[45, 58]),
   midi.NoteOffEvent(tick=192, channel=14, data=[45, 64]),
   midi.NoteOnEvent(tick=528, channel=14, data=[38, 58]),
   midi.NoteOffEvent(tick=480, channel=14, data=[38, 64]),
   midi.NoteOnEvent(tick=0, channel=14, data=[37, 58]),
   midi.NoteOffEvent(tick=192, channel=14, data=[37, 64]),
   midi.NoteOnEvent(tick=48, channel=14, data=[35, 58]),
   midi.NoteOffEvent(tick=288, channel=14, data=[35, 64]),
   midi.NoteOnEvent(tick=72, channel=14, data=[35, 58]),
   midi.NoteOffEvent(tick=96, channel=14, data=[35, 64]),
   midi.NoteOnEvent(tick=24, channel=14, data=[33, 58]),
   midi.NoteOffEvent(tick=192, channel=14, data=[33, 64]),
   midi.NoteOnEvent(tick=48, channel=14, data=[31, 58]),
   midi.NoteOffEvent(tick=96, channel=14, data=[31, 64]),
   midi.NoteOnEvent(tick=144, channel=14, data=[31, 58]),
   midi.NoteOffEvent(tick=96, channel=14, data=[31, 64]),
   midi.NoteOnEvent(tick=144, channel=14, data=[32, 58]),
   midi.NoteOffEvent(tick=96, channel=14, data=[32, 64]),
   midi.NoteOnEvent(tick=144, channel=14, data=[33, 58]),
   midi.NoteOffEvent(tick=60, channel=14, data=[33, 64]),
   midi.NoteOnEvent(tick=0, channel=14, data=[32, 58]),
   midi.NoteOffEvent(tick=60, channel=14, data=[32, 64]),
   midi.NoteOnEvent(tick=0, channel=14, data=[33, 58]),
   midi.NoteOffEvent(tick=60, channel=14, data=[33, 64]),
   midi.NoteOnEvent(tick=0, channel=14, data=[32, 58]),
   midi.NoteOffEvent(tick=60, channel=14, data=[32, 64]),
   midi.NoteOnEvent(tick=0, channel=14, data=[33, 58]),
   midi.NoteOffEvent(tick=192, channel=14, data=[33, 64]),
   midi.NoteOnEvent(tick=288, channel=14, data=[38, 58]),
   midi.NoteOffEvent(tick=480, channel=14, data=[38, 64]),
   midi.NoteOnEvent(tick=0, channel=14, data=[37, 58]),
   midi.NoteOffEvent(tick=192, channel=14, data=[37, 64]),
   midi.NoteOnEvent(tick=48, channel=14, data=[35, 58]),
   midi.NoteOffEvent(tick=288, channel=14, data=[35, 64]),
   midi.NoteOnEvent(tick=72, channel=14, data=[35, 58]),
   midi.NoteOffEvent(tick=96, channel=14, data=[35, 64]),
   midi.NoteOnEvent(tick=24, channel=14, data=[33, 58]),
   midi.NoteOffEvent(tick=192, channel=14, data=[33, 64]),
   midi.NoteOnEvent(tick=48, channel=14, data=[31, 58]),
   midi.NoteOffEvent(tick=96, channel=14, data=[31, 64]),
   midi.NoteOnEvent(tick=144, channel=14, data=[33, 58]),
   midi.NoteOffEvent(tick=96, channel=14, data=[33, 64]),
   midi.NoteOnEvent(tick=144, channel=14, data=[33, 58]),
   midi.NoteOffEvent(tick=96, channel=14, data=[33, 64]),
   midi.NoteOnEvent(tick=144, channel=14, data=[38, 78]),
   midi.NoteOffEvent(tick=96, channel=14, data=[38, 64]),
   midi.NoteOnEvent(tick=24, channel=14, data=[38, 58]),
   midi.NoteOffEvent(tick=96, channel=14, data=[38, 64]),
   midi.NoteOnEvent(tick=24, channel=14, data=[38, 58]),
   midi.NoteOffEvent(tick=96, channel=14, data=[38, 64]),
   midi.NoteOnEvent(tick=24, channel=14, data=[38, 58]),
   midi.NoteOffEvent(tick=96, channel=14, data=[38, 64]),
   midi.NoteOnEvent(tick=24, channel=14, data=[38, 58]),
   midi.NoteOffEvent(tick=96, channel=14, data=[38, 64]),
   midi.NoteOnEvent(tick=24, channel=14, data=[38, 58]),
   midi.NoteOffEvent(tick=96, channel=14, data=[38, 64]),
   midi.NoteOnEvent(tick=24, channel=14, data=[38, 58]),
   midi.NoteOffEvent(tick=96, channel=14, data=[38, 64]),
   midi.NoteOnEvent(tick=24, channel=14, data=[38, 58]),
   midi.NoteOffEvent(tick=96, channel=14, data=[38, 64]),
   midi.NoteOnEvent(tick=24, channel=14, data=[38, 58]),
   midi.NoteOffEvent(tick=96, channel=14, data=[38, 64]),
   midi.NoteOnEvent(tick=24, channel=14, data=[38, 58]),
   midi.NoteOffEvent(tick=96, channel=14, data=[38, 64]),
   midi.NoteOnEvent(tick=24, channel=14, data=[38, 58]),
   midi.NoteOffEvent(tick=96, channel=14, data=[38, 64]),
   midi.NoteOnEvent(tick=24, channel=14, data=[38, 58]),
   midi.NoteOffEvent(tick=96, channel=14, data=[38, 64]),
   midi.NoteOnEvent(tick=24, channel=14, data=[38, 78]),
   midi.NoteOffEvent(tick=96, channel=14, data=[38, 64]),
   midi.NoteOnEvent(tick=24, channel=14, data=[38, 58]),
   midi.NoteOffEvent(tick=96, channel=14, data=[38, 64]),
   midi.NoteOnEvent(tick=24, channel=14, data=[38, 58]),
   midi.NoteOffEvent(tick=96, channel=14, data=[38, 64]),
   midi.NoteOnEvent(tick=24, channel=14, data=[38, 58]),
   midi.NoteOffEvent(tick=96, channel=14, data=[38, 64]),
   midi.NoteOnEvent(tick=24, channel=14, data=[38, 58]),
   midi.NoteOffEvent(tick=96, channel=14, data=[38, 64]),
   midi.NoteOnEvent(tick=24, channel=14, data=[38, 58]),
   midi.NoteOffEvent(tick=96, channel=14, data=[38, 64]),
   midi.NoteOnEvent(tick=24, channel=14, data=[38, 58]),
   midi.NoteOffEvent(tick=96, channel=14, data=[38, 64]),
   midi.NoteOnEvent(tick=24, channel=14, data=[38, 58]),
   midi.NoteOffEvent(tick=96, channel=14, data=[38, 64]),
   midi.NoteOnEvent(tick=24, channel=14, data=[38, 58]),
   midi.NoteOffEvent(tick=96, channel=14, data=[38, 64]),
   midi.NoteOnEvent(tick=24, channel=14, data=[38, 58]),
   midi.NoteOffEvent(tick=96, channel=14, data=[38, 64]),
   midi.NoteOnEvent(tick=24, channel=14, data=[38, 58]),
   midi.NoteOffEvent(tick=96, channel=14, data=[38, 64]),
   midi.NoteOnEvent(tick=24, channel=14, data=[38, 58]),
   midi.NoteOffEvent(tick=96, channel=14, data=[38, 64]),
   midi.NoteOnEvent(tick=24, channel=14, data=[38, 58]),
   midi.NoteOffEvent(tick=192, channel=14, data=[38, 64]),
   midi.NoteOnEvent(tick=648, channel=14, data=[38, 58]),
   midi.NoteOffEvent(tick=96, channel=14, data=[38, 64]),
   midi.NoteOnEvent(tick=24, channel=14, data=[38, 58]),
   midi.NoteOffEvent(tick=96, channel=14, data=[38, 64]),
   midi.NoteOnEvent(tick=24, channel=14, data=[38, 58]),
   midi.NoteOffEvent(tick=96, channel=14, data=[38, 64]),
   midi.NoteOnEvent(tick=24, channel=14, data=[38, 58]),
   midi.NoteOffEvent(tick=96, channel=14, data=[38, 64]),
   midi.NoteOnEvent(tick=24, channel=14, data=[38, 58]),
   midi.NoteOffEvent(tick=96, channel=14, data=[38, 64]),
   midi.NoteOnEvent(tick=24, channel=14, data=[38, 58]),
   midi.NoteOffEvent(tick=336, channel=14, data=[38, 64]),
   midi.NoteOnEvent(tick=384, channel=14, data=[43, 58]),
   midi.NoteOffEvent(tick=192, channel=14, data=[43, 64]),
   midi.NoteOnEvent(tick=288, channel=14, data=[43, 58]),
   midi.NoteOffEvent(tick=192, channel=14, data=[43, 64]),
   midi.NoteOnEvent(tick=48, channel=14, data=[42, 58]),
   midi.NoteOffEvent(tick=288, channel=14, data=[42, 64]),
   midi.NoteOnEvent(tick=72, channel=14, data=[38, 58]),
   midi.NoteOffEvent(tick=120, channel=14, data=[38, 64]),
   midi.NoteOnEvent(tick=0, channel=14, data=[40, 58]),
   midi.NoteOffEvent(tick=120, channel=14, data=[40, 64]),
   midi.NoteOnEvent(tick=0, channel=14, data=[42, 58]),
   midi.NoteOffEvent(tick=96, channel=14, data=[42, 64]),
   midi.NoteOnEvent(tick=24, channel=14, data=[43, 58]),
   midi.NoteOffEvent(tick=96, channel=14, data=[43, 64]),
   midi.NoteOnEvent(tick=24, channel=14, data=[43, 58]),
   midi.NoteOffEvent(tick=96, channel=14, data=[43, 64]),
   midi.NoteOnEvent(tick=24, channel=14, data=[43, 58]),
   midi.NoteOffEvent(tick=96, channel=14, data=[43, 64]),
   midi.NoteOnEvent(tick=24, channel=14, data=[43, 58]),
   midi.NoteOffEvent(tick=96, channel=14, data=[43, 64]),
   midi.NoteOnEvent(tick=24, channel=14, data=[43, 58]),
   midi.NoteOffEvent(tick=96, channel=14, data=[43, 64]),
   midi.NoteOnEvent(tick=24, channel=14, data=[43, 58]),
   midi.NoteOffEvent(tick=96, channel=14, data=[43, 64]),
   midi.NoteOnEvent(tick=24, channel=14, data=[43, 58]),
   midi.NoteOffEvent(tick=288, channel=14, data=[43, 64]),
   midi.NoteOnEvent(tick=72, channel=14, data=[43, 58]),
   midi.NoteOffEvent(tick=78, channel=14, data=[43, 64]),
   midi.NoteOnEvent(tick=42, channel=14, data=[38, 58]),
   midi.NoteOffEvent(tick=78, channel=14, data=[38, 64]),
   midi.NoteOnEvent(tick=42, channel=14, data=[35, 58]),
   midi.NoteOffEvent(tick=78, channel=14, data=[35, 64]),
   midi.NoteOnEvent(tick=42, channel=14, data=[31, 58]),
   midi.NoteOffEvent(tick=192, channel=14, data=[31, 64]),
   midi.NoteOnEvent(tick=528, channel=14, data=[45, 58]),
   midi.NoteOffEvent(tick=624, channel=14, data=[45, 64]),
   midi.NoteOnEvent(tick=36, channel=14, data=[43, 58]),
   midi.NoteOffEvent(tick=48, channel=14, data=[43, 64]),
   midi.NoteOnEvent(tick=12, channel=14, data=[42, 58]),
   midi.NoteOffEvent(tick=180, channel=14, data=[42, 64]),
   midi.NoteOnEvent(tick=0, channel=14, data=[43, 58]),
   midi.NoteOffEvent(tick=48, channel=14, data=[43, 64]),
   midi.NoteOnEvent(tick=12, channel=14, data=[45, 58]),
   midi.NoteOffEvent(tick=192, channel=14, data=[45, 64]),
   midi.NoteOnEvent(tick=48, channel=14, data=[33, 58]),
   midi.NoteOffEvent(tick=192, channel=14, data=[33, 64]),
   midi.NoteOnEvent(tick=48, channel=14, data=[38, 58]),
   midi.NoteOffEvent(tick=192, channel=14, data=[38, 64]),
   midi.NoteOnEvent(tick=528, channel=14, data=[40, 78]),
   midi.NoteOffEvent(tick=288, channel=14, data=[40, 64]),
   midi.NoteOnEvent(tick=72, channel=14, data=[38, 58]),
   midi.NoteOffEvent(tick=72, channel=14, data=[38, 64]),
   midi.NoteOnEvent(tick=48, channel=14, data=[37, 58]),
   midi.NoteOffEvent(tick=72, channel=14, data=[37, 64]),
   midi.NoteOnEvent(tick=48, channel=14, data=[35, 58]),
   midi.NoteOffEvent(tick=72, channel=14, data=[35, 64]),
   midi.NoteOnEvent(tick=48, channel=14, data=[33, 58]),
   midi.NoteOffEvent(tick=192, channel=14, data=[33, 64]),
   midi.NoteOnEvent(tick=528, channel=14, data=[52, 78]),
   midi.NoteOffEvent(tick=288, channel=14, data=[52, 64]),
   midi.NoteOnEvent(tick=72, channel=14, data=[50, 58]),
   midi.NoteOffEvent(tick=72, channel=14, data=[50, 64]),
   midi.NoteOnEvent(tick=48, channel=14, data=[49, 58]),
   midi.NoteOffEvent(tick=72, channel=14, data=[49, 64]),
   midi.NoteOnEvent(tick=48, channel=14, data=[47, 58]),
   midi.NoteOffEvent(tick=72, channel=14, data=[47, 64]),
   midi.NoteOnEvent(tick=48, channel=14, data=[45, 58]),
   midi.NoteOffEvent(tick=192, channel=14, data=[45, 64]),
   midi.NoteOnEvent(tick=528, channel=14, data=[38, 58]),
   midi.NoteOffEvent(tick=480, channel=14, data=[38, 64]),
   midi.NoteOnEvent(tick=0, channel=14, data=[37, 58]),
   midi.NoteOffEvent(tick=192, channel=14, data=[37, 64]),
   midi.NoteOnEvent(tick=48, channel=14, data=[35, 58]),
   midi.NoteOffEvent(tick=288, channel=14, data=[35, 64]),
   midi.NoteOnEvent(tick=72, channel=14, data=[35, 58]),
   midi.NoteOffEvent(tick=96, channel=14, data=[35, 64]),
   midi.NoteOnEvent(tick=24, channel=14, data=[33, 58]),
   midi.NoteOffEvent(tick=192, channel=14, data=[33, 64]),
   midi.NoteOnEvent(tick=48, channel=14, data=[31, 58]),
   midi.NoteOffEvent(tick=96, channel=14, data=[31, 64]),
   midi.NoteOnEvent(tick=144, channel=14, data=[31, 58]),
   midi.NoteOffEvent(tick=96, channel=14, data=[31, 64]),
   midi.NoteOnEvent(tick=144, channel=14, data=[32, 58]),
   midi.NoteOffEvent(tick=96, channel=14, data=[32, 64]),
   midi.NoteOnEvent(tick=144, channel=14, data=[33, 58]),
   midi.NoteOffEvent(tick=60, channel=14, data=[33, 64]),
   midi.NoteOnEvent(tick=0, channel=14, data=[32, 58]),
   midi.NoteOffEvent(tick=60, channel=14, data=[32, 64]),
   midi.NoteOnEvent(tick=0, channel=14, data=[33, 58]),
   midi.NoteOffEvent(tick=60, channel=14, data=[33, 64]),
   midi.NoteOnEvent(tick=0, channel=14, data=[32, 58]),
   midi.NoteOffEvent(tick=60, channel=14, data=[32, 64]),
   midi.NoteOnEvent(tick=0, channel=14, data=[33, 58]),
   midi.NoteOffEvent(tick=192, channel=14, data=[33, 64]),
   midi.NoteOnEvent(tick=288, channel=14, data=[38, 58]),
   midi.NoteOffEvent(tick=480, channel=14, data=[38, 64]),
   midi.NoteOnEvent(tick=0, channel=14, data=[37, 58]),
   midi.NoteOffEvent(tick=192, channel=14, data=[37, 64]),
   midi.NoteOnEvent(tick=48, channel=14, data=[35, 58]),
   midi.NoteOffEvent(tick=288, channel=14, data=[35, 64]),
   midi.NoteOnEvent(tick=72, channel=14, data=[35, 58]),
   midi.NoteOffEvent(tick=96, channel=14, data=[35, 64]),
   midi.NoteOnEvent(tick=24, channel=14, data=[33, 58]),
   midi.NoteOffEvent(tick=192, channel=14, data=[33, 64]),
   midi.NoteOnEvent(tick=48, channel=14, data=[31, 58]),
   midi.NoteOffEvent(tick=96, channel=14, data=[31, 64]),
   midi.NoteOnEvent(tick=144, channel=14, data=[33, 58]),
   midi.NoteOffEvent(tick=96, channel=14, data=[33, 64]),
   midi.NoteOnEvent(tick=144, channel=14, data=[33, 58]),
   midi.NoteOffEvent(tick=96, channel=14, data=[33, 64]),
   midi.NoteOnEvent(tick=144, channel=14, data=[38, 78]),
   midi.NoteOffEvent(tick=96, channel=14, data=[38, 64]),
   midi.NoteOnEvent(tick=24, channel=14, data=[38, 58]),
   midi.NoteOffEvent(tick=96, channel=14, data=[38, 64]),
   midi.NoteOnEvent(tick=24, channel=14, data=[38, 58]),
   midi.NoteOffEvent(tick=96, channel=14, data=[38, 64]),
   midi.NoteOnEvent(tick=24, channel=14, data=[38, 58]),
   midi.NoteOffEvent(tick=96, channel=14, data=[38, 64]),
   midi.NoteOnEvent(tick=24, channel=14, data=[38, 58]),
   midi.NoteOffEvent(tick=96, channel=14, data=[38, 64]),
   midi.NoteOnEvent(tick=24, channel=14, data=[38, 58]),
   midi.NoteOffEvent(tick=96, channel=14, data=[38, 64]),
   midi.NoteOnEvent(tick=24, channel=14, data=[38, 58]),
   midi.NoteOffEvent(tick=96, channel=14, data=[38, 64]),
   midi.NoteOnEvent(tick=24, channel=14, data=[38, 58]),
   midi.NoteOffEvent(tick=96, channel=14, data=[38, 64]),
   midi.NoteOnEvent(tick=24, channel=14, data=[38, 58]),
   midi.NoteOffEvent(tick=96, channel=14, data=[38, 64]),
   midi.NoteOnEvent(tick=24, channel=14, data=[38, 58]),
   midi.NoteOffEvent(tick=96, channel=14, data=[38, 64]),
   midi.NoteOnEvent(tick=24, channel=14, data=[38, 58]),
   midi.NoteOffEvent(tick=96, channel=14, data=[38, 64]),
   midi.NoteOnEvent(tick=24, channel=14, data=[38, 58]),
   midi.NoteOffEvent(tick=96, channel=14, data=[38, 64]),
   midi.NoteOnEvent(tick=24, channel=14, data=[38, 78]),
   midi.NoteOffEvent(tick=96, channel=14, data=[38, 64]),
   midi.NoteOnEvent(tick=24, channel=14, data=[38, 58]),
   midi.NoteOffEvent(tick=96, channel=14, data=[38, 64]),
   midi.NoteOnEvent(tick=24, channel=14, data=[38, 58]),
   midi.NoteOffEvent(tick=96, channel=14, data=[38, 64]),
   midi.NoteOnEvent(tick=24, channel=14, data=[38, 58]),
   midi.NoteOffEvent(tick=96, channel=14, data=[38, 64]),
   midi.NoteOnEvent(tick=24, channel=14, data=[38, 58]),
   midi.NoteOffEvent(tick=96, channel=14, data=[38, 64]),
   midi.NoteOnEvent(tick=24, channel=14, data=[38, 58]),
   midi.NoteOffEvent(tick=96, channel=14, data=[38, 64]),
   midi.NoteOnEvent(tick=24, channel=14, data=[38, 58]),
   midi.NoteOffEvent(tick=96, channel=14, data=[38, 64]),
   midi.NoteOnEvent(tick=24, channel=14, data=[38, 58]),
   midi.NoteOffEvent(tick=96, channel=14, data=[38, 64]),
   midi.NoteOnEvent(tick=24, channel=14, data=[38, 58]),
   midi.NoteOffEvent(tick=96, channel=14, data=[38, 64]),
   midi.NoteOnEvent(tick=24, channel=14, data=[38, 58]),
   midi.NoteOffEvent(tick=96, channel=14, data=[38, 64]),
   midi.NoteOnEvent(tick=24, channel=14, data=[38, 58]),
   midi.NoteOffEvent(tick=96, channel=14, data=[38, 64]),
   midi.NoteOnEvent(tick=24, channel=14, data=[38, 58]),
   midi.NoteOffEvent(tick=96, channel=14, data=[38, 64]),
   midi.NoteOnEvent(tick=24, channel=14, data=[38, 58]),
   midi.NoteOffEvent(tick=192, channel=14, data=[38, 64]),
   midi.NoteOnEvent(tick=648, channel=14, data=[38, 58]),
   midi.NoteOffEvent(tick=96, channel=14, data=[38, 64]),
   midi.NoteOnEvent(tick=24, channel=14, data=[38, 58]),
   midi.NoteOffEvent(tick=96, channel=14, data=[38, 64]),
   midi.NoteOnEvent(tick=24, channel=14, data=[38, 58]),
   midi.NoteOffEvent(tick=96, channel=14, data=[38, 64]),
   midi.NoteOnEvent(tick=24, channel=14, data=[38, 58]),
   midi.NoteOffEvent(tick=96, channel=14, data=[38, 64]),
   midi.NoteOnEvent(tick=24, channel=14, data=[38, 58]),
   midi.NoteOffEvent(tick=96, channel=14, data=[38, 64]),
   midi.NoteOnEvent(tick=24, channel=14, data=[38, 58]),
   midi.NoteOffEvent(tick=336, channel=14, data=[38, 64]),
   midi.NoteOnEvent(tick=264, channel=14, data=[38, 105]),
   midi.NoteOffEvent(tick=96, channel=14, data=[38, 64]),
   midi.NoteOnEvent(tick=24, channel=14, data=[50, 105]),
   midi.NoteOffEvent(tick=144, channel=14, data=[50, 64]),
   midi.NoteOnEvent(tick=36, channel=14, data=[52, 105]),
   midi.NoteOffEvent(tick=36, channel=14, data=[52, 64]),
   midi.NoteOnEvent(tick=24, channel=14, data=[53, 105]),
   midi.NoteOffEvent(tick=72, channel=14, data=[53, 64]),
   midi.NoteOnEvent(tick=48, channel=14, data=[50, 105]),
   midi.NoteOffEvent(tick=72, channel=14, data=[50, 64]),
   midi.NoteOnEvent(tick=48, channel=14, data=[47, 105]),
   midi.NoteOffEvent(tick=72, channel=14, data=[47, 64]),
   midi.NoteOnEvent(tick=48, channel=14, data=[45, 105]),
   midi.NoteOffEvent(tick=72, channel=14, data=[45, 64]),
   midi.NoteOnEvent(tick=48, channel=14, data=[44, 105]),
   midi.NoteOffEvent(tick=66, channel=14, data=[44, 64]),
   midi.NoteOnEvent(tick=54, channel=14, data=[47, 105]),
   midi.NoteOffEvent(tick=66, channel=14, data=[47, 64]),
   midi.NoteOnEvent(tick=54, channel=14, data=[52, 105]),
   midi.NoteOffEvent(tick=192, channel=14, data=[52, 64]),
   midi.NoteOnEvent(tick=288, channel=14, data=[45, 58]),
   midi.NoteOffEvent(tick=576, channel=14, data=[45, 64]),
   midi.NoteOnEvent(tick=24, channel=14, data=[40, 58]),
   midi.NoteOffEvent(tick=96, channel=14, data=[40, 64]),
   midi.NoteOnEvent(tick=24, channel=14, data=[40, 58]),
   midi.NoteOffEvent(tick=192, channel=14, data=[40, 64]),
   midi.NoteOnEvent(tick=48, channel=14, data=[33, 58]),
   midi.NoteOffEvent(tick=240, channel=14, data=[33, 64]),
   midi.NoteOnEvent(tick=0, channel=14, data=[38, 92]),
   midi.NoteOffEvent(tick=192, channel=14, data=[38, 64]),
   midi.NoteOnEvent(tick=48, channel=14, data=[31, 92]),
   midi.NoteOffEvent(tick=96, channel=14, data=[31, 64]),
   midi.NoteOnEvent(tick=144, channel=14, data=[35, 92]),
   midi.NoteOffEvent(tick=96, channel=14, data=[35, 64]),
   midi.NoteOnEvent(tick=144, channel=14, data=[38, 92]),
   midi.NoteOffEvent(tick=96, channel=14, data=[38, 64]),
   midi.NoteOnEvent(tick=144, channel=14, data=[43, 92]),
   midi.NoteOffEvent(tick=96, channel=14, data=[43, 64]),
   midi.NoteOnEvent(tick=144, channel=14, data=[35, 92]),
   midi.NoteOffEvent(tick=96, channel=14, data=[35, 64]),
   midi.NoteOnEvent(tick=144, channel=14, data=[38, 92]),
   midi.NoteOffEvent(tick=96, channel=14, data=[38, 64]),
   midi.NoteOnEvent(tick=144, channel=14, data=[31, 92]),
   midi.NoteOffEvent(tick=96, channel=14, data=[31, 64]),
   midi.NoteOnEvent(tick=144, channel=14, data=[43, 92]),
   midi.NoteOffEvent(tick=192, channel=14, data=[43, 64]),
   midi.NoteOnEvent(tick=48, channel=14, data=[50, 92]),
   midi.NoteOffEvent(tick=96, channel=14, data=[50, 64]),
   midi.NoteOnEvent(tick=24, channel=14, data=[47, 92]),
   midi.NoteOffEvent(tick=48, channel=14, data=[47, 64]),
   midi.NoteOnEvent(tick=12, channel=14, data=[43, 92]),
   midi.NoteOffEvent(tick=48, channel=14, data=[43, 64]),
   midi.NoteOnEvent(tick=12, channel=14, data=[50, 92]),
   midi.NoteOffEvent(tick=96, channel=14, data=[50, 64]),
   midi.NoteOnEvent(tick=24, channel=14, data=[47, 92]),
   midi.NoteOffEvent(tick=48, channel=14, data=[47, 64]),
   midi.NoteOnEvent(tick=12, channel=14, data=[43, 92]),
   midi.NoteOffEvent(tick=48, channel=14, data=[43, 64]),
   midi.NoteOnEvent(tick=12, channel=14, data=[38, 92]),
   midi.NoteOffEvent(tick=192, channel=14, data=[38, 64]),
   midi.NoteOnEvent(tick=1728, channel=14, data=[45, 78]),
   midi.NoteOffEvent(tick=288, channel=14, data=[45, 64]),
   midi.NoteOnEvent(tick=72, channel=14, data=[43, 58]),
   midi.NoteOffEvent(tick=96, channel=14, data=[43, 64]),
   midi.NoteOnEvent(tick=24, channel=14, data=[42, 58]),
   midi.NoteOffEvent(tick=96, channel=14, data=[42, 64]),
   midi.NoteOnEvent(tick=24, channel=14, data=[40, 58]),
   midi.NoteOffEvent(tick=96, channel=14, data=[40, 64]),
   midi.NoteOnEvent(tick=24, channel=14, data=[38, 58]),
   midi.NoteOffEvent(tick=192, channel=14, data=[38, 64]),
   midi.NoteOnEvent(tick=528, channel=14, data=[45, 78]),
   midi.NoteOffEvent(tick=288, channel=14, data=[45, 64]),
   midi.NoteOnEvent(tick=72, channel=14, data=[43, 58]),
   midi.NoteOffEvent(tick=96, channel=14, data=[43, 64]),
   midi.NoteOnEvent(tick=24, channel=14, data=[42, 58]),
   midi.NoteOffEvent(tick=96, channel=14, data=[42, 64]),
   midi.NoteOnEvent(tick=24, channel=14, data=[40, 58]),
   midi.NoteOffEvent(tick=96, channel=14, data=[40, 64]),
   midi.NoteOnEvent(tick=24, channel=14, data=[38, 58]),
   midi.NoteOffEvent(tick=192, channel=14, data=[38, 64]),
   midi.NoteOnEvent(tick=528, channel=14, data=[43, 58]),
   midi.NoteOffEvent(tick=480, channel=14, data=[43, 64]),
   midi.NoteOnEvent(tick=0, channel=14, data=[42, 58]),
   midi.NoteOffEvent(tick=192, channel=14, data=[42, 64]),
   midi.NoteOnEvent(tick=48, channel=14, data=[40, 58]),
   midi.NoteOffEvent(tick=288, channel=14, data=[40, 64]),
   midi.NoteOnEvent(tick=72, channel=14, data=[40, 58]),
   midi.NoteOffEvent(tick=96, channel=14, data=[40, 64]),
   midi.NoteOnEvent(tick=24, channel=14, data=[38, 58]),
   midi.NoteOffEvent(tick=192, channel=14, data=[38, 64]),
   midi.NoteOnEvent(tick=48, channel=14, data=[36, 58]),
   midi.NoteOffEvent(tick=96, channel=14, data=[36, 64]),
   midi.NoteOnEvent(tick=144, channel=14, data=[36, 58]),
   midi.NoteOffEvent(tick=96, channel=14, data=[36, 64]),
   midi.NoteOnEvent(tick=144, channel=14, data=[37, 58]),
   midi.NoteOffEvent(tick=96, channel=14, data=[37, 64]),
   midi.NoteOnEvent(tick=144, channel=14, data=[38, 58]),
   midi.NoteOffEvent(tick=60, channel=14, data=[38, 64]),
   midi.NoteOnEvent(tick=0, channel=14, data=[37, 58]),
   midi.NoteOffEvent(tick=60, channel=14, data=[37, 64]),
   midi.NoteOnEvent(tick=0, channel=14, data=[38, 58]),
   midi.NoteOffEvent(tick=60, channel=14, data=[38, 64]),
   midi.NoteOnEvent(tick=0, channel=14, data=[37, 58]),
   midi.NoteOffEvent(tick=60, channel=14, data=[37, 64]),
   midi.NoteOnEvent(tick=0, channel=14, data=[38, 58]),
   midi.NoteOffEvent(tick=192, channel=14, data=[38, 64]),
   midi.NoteOnEvent(tick=288, channel=14, data=[43, 58]),
   midi.NoteOffEvent(tick=480, channel=14, data=[43, 64]),
   midi.NoteOnEvent(tick=0, channel=14, data=[42, 58]),
   midi.NoteOffEvent(tick=192, channel=14, data=[42, 64]),
   midi.NoteOnEvent(tick=48, channel=14, data=[40, 58]),
   midi.NoteOffEvent(tick=288, channel=14, data=[40, 64]),
   midi.NoteOnEvent(tick=72, channel=14, data=[40, 58]),
   midi.NoteOffEvent(tick=96, channel=14, data=[40, 64]),
   midi.NoteOnEvent(tick=24, channel=14, data=[38, 58]),
   midi.NoteOffEvent(tick=192, channel=14, data=[38, 64]),
   midi.NoteOnEvent(tick=48, channel=14, data=[36, 58]),
   midi.NoteOffEvent(tick=288, channel=14, data=[36, 64]),
   midi.NoteOnEvent(tick=72, channel=14, data=[36, 58]),
   midi.NoteOffEvent(tick=90, channel=14, data=[36, 64]),
   midi.NoteOnEvent(tick=30, channel=14, data=[36, 58]),
   midi.NoteOffEvent(tick=90, channel=14, data=[36, 64]),
   midi.NoteOnEvent(tick=30, channel=14, data=[36, 58]),
   midi.NoteOffEvent(tick=90, channel=14, data=[36, 64]),
   midi.NoteOnEvent(tick=30, channel=14, data=[36, 58]),
   midi.NoteOffEvent(tick=288, channel=14, data=[36, 64]),
   midi.NoteOnEvent(tick=72, channel=14, data=[36, 58]),
   midi.NoteOffEvent(tick=90, channel=14, data=[36, 64]),
   midi.NoteOnEvent(tick=30, channel=14, data=[36, 58]),
   midi.NoteOffEvent(tick=90, channel=14, data=[36, 64]),
   midi.NoteOnEvent(tick=30, channel=14, data=[36, 58]),
   midi.NoteOffEvent(tick=90, channel=14, data=[36, 64]),
   midi.NoteOnEvent(tick=30, channel=14, data=[35, 58]),
   midi.NoteOffEvent(tick=240, channel=14, data=[35, 64]),
   midi.NoteOnEvent(tick=0, channel=14, data=[36, 58]),
   midi.NoteOffEvent(tick=240, channel=14, data=[36, 64]),
   midi.NoteOnEvent(tick=0, channel=14, data=[38, 58]),
   midi.NoteOffEvent(tick=240, channel=14, data=[38, 64]),
   midi.NoteOnEvent(tick=0, channel=14, data=[43, 78]),
   midi.NoteOffEvent(tick=90, channel=14, data=[43, 64]),
   midi.NoteOnEvent(tick=30, channel=14, data=[43, 58]),
   midi.NoteOffEvent(tick=90, channel=14, data=[43, 64]),
   midi.NoteOnEvent(tick=30, channel=14, data=[43, 58]),
   midi.NoteOffEvent(tick=90, channel=14, data=[43, 64]),
   midi.NoteOnEvent(tick=30, channel=14, data=[43, 58]),
   midi.NoteOffEvent(tick=90, channel=14, data=[43, 64]),
   midi.NoteOnEvent(tick=30, channel=14, data=[43, 58]),
   midi.NoteOffEvent(tick=90, channel=14, data=[43, 64]),
   midi.NoteOnEvent(tick=30, channel=14, data=[43, 58]),
   midi.NoteOffEvent(tick=90, channel=14, data=[43, 64]),
   midi.NoteOnEvent(tick=30, channel=14, data=[43, 58]),
   midi.NoteOffEvent(tick=90, channel=14, data=[43, 64]),
   midi.NoteOnEvent(tick=30, channel=14, data=[43, 58]),
   midi.NoteOffEvent(tick=90, channel=14, data=[43, 64]),
   midi.NoteOnEvent(tick=30, channel=14, data=[43, 58]),
   midi.NoteOffEvent(tick=90, channel=14, data=[43, 64]),
   midi.NoteOnEvent(tick=30, channel=14, data=[43, 58]),
   midi.NoteOffEvent(tick=90, channel=14, data=[43, 64]),
   midi.NoteOnEvent(tick=30, channel=14, data=[43, 58]),
   midi.NoteOffEvent(tick=90, channel=14, data=[43, 64]),
   midi.NoteOnEvent(tick=30, channel=14, data=[43, 58]),
   midi.NoteOffEvent(tick=90, channel=14, data=[43, 64]),
   midi.NoteOnEvent(tick=30, channel=14, data=[43, 78]),
   midi.NoteOffEvent(tick=90, channel=14, data=[43, 64]),
   midi.NoteOnEvent(tick=30, channel=14, data=[43, 58]),
   midi.NoteOffEvent(tick=90, channel=14, data=[43, 64]),
   midi.NoteOnEvent(tick=30, channel=14, data=[43, 58]),
   midi.NoteOffEvent(tick=90, channel=14, data=[43, 64]),
   midi.NoteOnEvent(tick=30, channel=14, data=[43, 58]),
   midi.NoteOffEvent(tick=90, channel=14, data=[43, 64]),
   midi.NoteOnEvent(tick=30, channel=14, data=[43, 58]),
   midi.NoteOffEvent(tick=90, channel=14, data=[43, 64]),
   midi.NoteOnEvent(tick=30, channel=14, data=[43, 58]),
   midi.NoteOffEvent(tick=90, channel=14, data=[43, 64]),
   midi.NoteOnEvent(tick=30, channel=14, data=[43, 58]),
   midi.NoteOffEvent(tick=90, channel=14, data=[43, 64]),
   midi.NoteOnEvent(tick=30, channel=14, data=[43, 58]),
   midi.NoteOffEvent(tick=90, channel=14, data=[43, 64]),
   midi.NoteOnEvent(tick=30, channel=14, data=[43, 58]),
   midi.NoteOffEvent(tick=90, channel=14, data=[43, 64]),
   midi.NoteOnEvent(tick=30, channel=14, data=[43, 58]),
   midi.NoteOffEvent(tick=90, channel=14, data=[43, 64]),
   midi.NoteOnEvent(tick=30, channel=14, data=[43, 58]),
   midi.NoteOffEvent(tick=90, channel=14, data=[43, 64]),
   midi.NoteOnEvent(tick=30, channel=14, data=[43, 58]),
   midi.NoteOffEvent(tick=90, channel=14, data=[43, 64]),
   midi.NoteOnEvent(tick=30, channel=14, data=[43, 58]),
   midi.NoteOffEvent(tick=192, channel=14, data=[43, 64]),
   midi.NoteOnEvent(tick=888, channel=14, data=[43, 70]),
   midi.NoteOffEvent(tick=96, channel=14, data=[43, 64]),
   midi.NoteOnEvent(tick=24, channel=14, data=[43, 70]),
   midi.NoteOffEvent(tick=96, channel=14, data=[43, 64]),
   midi.NoteOnEvent(tick=24, channel=14, data=[43, 70]),
   midi.NoteOffEvent(tick=96, channel=14, data=[43, 64]),
   midi.NoteOnEvent(tick=24, channel=14, data=[43, 80]),
   midi.NoteOffEvent(tick=96, channel=14, data=[43, 64]),
   midi.NoteOnEvent(tick=24, channel=14, data=[43, 80]),
   midi.NoteOffEvent(tick=96, channel=14, data=[43, 64]),
   midi.NoteOnEvent(tick=24, channel=14, data=[43, 92]),
   midi.NoteOffEvent(tick=96, channel=14, data=[43, 64]),
   midi.NoteOnEvent(tick=24, channel=14, data=[43, 92]),
   midi.NoteOffEvent(tick=96, channel=14, data=[43, 64]),
   midi.NoteOnEvent(tick=24, channel=14, data=[43, 105]),
   midi.NoteOffEvent(tick=96, channel=14, data=[43, 64]),
   midi.NoteOnEvent(tick=24, channel=14, data=[43, 105]),
   midi.NoteOffEvent(tick=96, channel=14, data=[43, 64]),
   midi.NoteOnEvent(tick=24, channel=14, data=[36, 105]),
   midi.NoteOffEvent(tick=192, channel=14, data=[36, 64]),
   midi.NoteOnEvent(tick=408, channel=14, data=[38, 58]),
   midi.NoteOffEvent(tick=78, channel=14, data=[38, 64]),
   midi.NoteOnEvent(tick=42, channel=14, data=[31, 58]),
   midi.NoteOffEvent(tick=600, channel=14, data=[31, 64]),
   midi.NoteOnEvent(tick=600, channel=14, data=[31, 1]),
   midi.NoteOffEvent(tick=192, channel=14, data=[31, 64]),
   midi.EndOfTrackEvent(tick=0, data=[])]),
 midi.Track(\
  [midi.ProgramChangeEvent(tick=0, channel=7, data=[45]),
   midi.ControlChangeEvent(tick=0, channel=7, data=[7, 102]),
   midi.ControlChangeEvent(tick=0, channel=7, data=[91, 80]),
   midi.EndOfTrackEvent(tick=0, data=[])]),
 midi.Track(\
  [midi.ProgramChangeEvent(tick=0, channel=15, data=[45]),
   midi.ControlChangeEvent(tick=0, channel=15, data=[7, 102]),
   midi.ControlChangeEvent(tick=0, channel=15, data=[91, 80]),
   midi.EndOfTrackEvent(tick=0, data=[])])])