midi.Pattern(format=1, resolution=384, tracks=\
[midi.Track(\
  [midi.TimeSignatureEvent(tick=0, data=[4, 2, 96, 8]),
   midi.SequencerSpecificEvent(tick=0, data=[0, 0, 65]),
   midi.SequencerSpecificEvent(tick=0, data=[0, 0, 119, 14, 0]),
   midi.SetTempoEvent(tick=0, data=[4, 196, 180]),
   midi.EndOfTrackEvent(tick=0, data=[])]),
 midi.Track(\
  [midi.TrackNameEvent(tick=0, text='MEGADETH', data=[77, 69, 71, 65, 68, 69, 84, 72]),
   midi.ControlChangeEvent(tick=0, channel=0, data=[0, 0]),
   midi.ProgramChangeEvent(tick=0, channel=0, data=[56]),
   midi.ControlChangeEvent(tick=0, channel=0, data=[7, 127]),
   midi.ControlChangeEvent(tick=0, channel=0, data=[91, 127]),
   midi.ControlChangeEvent(tick=0, channel=0, data=[93, 127]),
   midi.NoteOnEvent(tick=17856, channel=0, data=[69, 100]),
   midi.NoteOffEvent(tick=192, channel=0, data=[69, 100]),
   midi.NoteOnEvent(tick=0, channel=0, data=[69, 100]),
   midi.NoteOffEvent(tick=384, channel=0, data=[69, 100]),
   midi.NoteOnEvent(tick=0, channel=0, data=[81, 100]),
   midi.NoteOffEvent(tick=384, channel=0, data=[81, 100]),
   midi.NoteOnEvent(tick=192, channel=0, data=[79, 100]),
   midi.NoteOffEvent(tick=384, channel=0, data=[79, 100]),
   midi.NoteOnEvent(tick=0, channel=0, data=[76, 100]),
   midi.NoteOffEvent(tick=576, channel=0, data=[76, 100]),
   midi.NoteOnEvent(tick=0, channel=0, data=[74, 100]),
   midi.NoteOffEvent(tick=384, channel=0, data=[74, 100]),
   midi.NoteOnEvent(tick=1152, channel=0, data=[69, 100]),
   midi.NoteOffEvent(tick=192, channel=0, data=[69, 100]),
   midi.NoteOnEvent(tick=0, channel=0, data=[69, 100]),
   midi.NoteOffEvent(tick=384, channel=0, data=[69, 100]),
   midi.NoteOnEvent(tick=0, channel=0, data=[72, 100]),
   midi.NoteOffEvent(tick=384, channel=0, data=[72, 100]),
   midi.NoteOnEvent(tick=0, channel=0, data=[74, 100]),
   midi.NoteOffEvent(tick=384, channel=0, data=[74, 100]),
   midi.NoteOnEvent(tick=0, channel=0, data=[76, 100]),
   midi.NoteOffEvent(tick=960, channel=0, data=[76, 100]),
   midi.NoteOnEvent(tick=576, channel=0, data=[69, 100]),
   midi.NoteOffEvent(tick=192, channel=0, data=[69, 100]),
   midi.NoteOnEvent(tick=0, channel=0, data=[81, 100]),
   midi.NoteOffEvent(tick=384, channel=0, data=[81, 100]),
   midi.NoteOnEvent(tick=0, channel=0, data=[81, 100]),
   midi.NoteOffEvent(tick=192, channel=0, data=[81, 100]),
   midi.NoteOnEvent(tick=0, channel=0, data=[79, 100]),
   midi.NoteOffEvent(tick=384, channel=0, data=[79, 100]),
   midi.NoteOnEvent(tick=0, channel=0, data=[76, 100]),
   midi.NoteOffEvent(tick=384, channel=0, data=[76, 100]),
   midi.NoteOnEvent(tick=0, channel=0, data=[76, 100]),
   midi.NoteOffEvent(tick=384, channel=0, data=[76, 100]),
   midi.NoteOnEvent(tick=0, channel=0, data=[76, 100]),
   midi.NoteOffEvent(tick=384, channel=0, data=[76, 100]),
   midi.NoteOnEvent(tick=0, channel=0, data=[74, 100]),
   midi.NoteOffEvent(tick=576, channel=0, data=[74, 100]),
   midi.NoteOnEvent(tick=0, channel=0, data=[67, 100]),
   midi.NoteOffEvent(tick=384, channel=0, data=[67, 100]),
   midi.NoteOnEvent(tick=0, channel=0, data=[69, 100]),
   midi.NoteOffEvent(tick=384, channel=0, data=[69, 100]),
   midi.NoteOnEvent(tick=0, channel=0, data=[69, 100]),
   midi.NoteOffEvent(tick=192, channel=0, data=[69, 100]),
   midi.NoteOnEvent(tick=0, channel=0, data=[72, 100]),
   midi.NoteOffEvent(tick=384, channel=0, data=[72, 100]),
   midi.NoteOnEvent(tick=0, channel=0, data=[69, 100]),
   midi.NoteOffEvent(tick=384, channel=0, data=[69, 100]),
   midi.NoteOnEvent(tick=0, channel=0, data=[69, 100]),
   midi.NoteOffEvent(tick=576, channel=0, data=[69, 100]),
   midi.NoteOnEvent(tick=768, channel=0, data=[69, 100]),
   midi.NoteOffEvent(tick=384, channel=0, data=[69, 100]),
   midi.NoteOnEvent(tick=0, channel=0, data=[81, 100]),
   midi.NoteOffEvent(tick=384, channel=0, data=[81, 100]),
   midi.NoteOnEvent(tick=192, channel=0, data=[79, 100]),
   midi.NoteOffEvent(tick=192, channel=0, data=[79, 100]),
   midi.NoteOnEvent(tick=768, channel=0, data=[76, 100]),
   midi.NoteOffEvent(tick=192, channel=0, data=[76, 100]),
   midi.NoteOnEvent(tick=0, channel=0, data=[76, 100]),
   midi.NoteOffEvent(tick=384, channel=0, data=[76, 100]),
   midi.NoteOnEvent(tick=0, channel=0, data=[74, 100]),
   midi.NoteOffEvent(tick=576, channel=0, data=[74, 100]),
   midi.NoteOnEvent(tick=192, channel=0, data=[69, 100]),
   midi.NoteOffEvent(tick=192, channel=0, data=[69, 100]),
   midi.NoteOnEvent(tick=0, channel=0, data=[69, 100]),
   midi.NoteOffEvent(tick=192, channel=0, data=[69, 100]),
   midi.NoteOnEvent(tick=0, channel=0, data=[69, 100]),
   midi.NoteOffEvent(tick=384, channel=0, data=[69, 100]),
   midi.NoteOnEvent(tick=0, channel=0, data=[72, 100]),
   midi.NoteOffEvent(tick=384, channel=0, data=[72, 100]),
   midi.NoteOnEvent(tick=0, channel=0, data=[74, 100]),
   midi.NoteOffEvent(tick=384, channel=0, data=[74, 100]),
   midi.NoteOnEvent(tick=0, channel=0, data=[74, 100]),
   midi.NoteOffEvent(tick=192, channel=0, data=[74, 100]),
   midi.NoteOnEvent(tick=0, channel=0, data=[76, 100]),
   midi.NoteOffEvent(tick=768, channel=0, data=[76, 100]),
   midi.NoteOnEvent(tick=768, channel=0, data=[81, 100]),
   midi.NoteOffEvent(tick=192, channel=0, data=[81, 100]),
   midi.NoteOnEvent(tick=0, channel=0, data=[81, 100]),
   midi.NoteOffEvent(tick=384, channel=0, data=[81, 100]),
   midi.NoteOnEvent(tick=0, channel=0, data=[79, 100]),
   midi.NoteOffEvent(tick=384, channel=0, data=[79, 100]),
   midi.NoteOnEvent(tick=0, channel=0, data=[76, 100]),
   midi.NoteOffEvent(tick=384, channel=0, data=[76, 100]),
   midi.NoteOnEvent(tick=0, channel=0, data=[76, 100]),
   midi.NoteOffEvent(tick=384, channel=0, data=[76, 100]),
   midi.NoteOnEvent(tick=0, channel=0, data=[76, 100]),
   midi.NoteOffEvent(tick=384, channel=0, data=[76, 100]),
   midi.NoteOnEvent(tick=0, channel=0, data=[74, 100]),
   midi.NoteOffEvent(tick=384, channel=0, data=[74, 100]),
   midi.NoteOnEvent(tick=0, channel=0, data=[72, 100]),
   midi.NoteOffEvent(tick=384, channel=0, data=[72, 100]),
   midi.NoteOnEvent(tick=192, channel=0, data=[76, 100]),
   midi.NoteOffEvent(tick=192, channel=0, data=[76, 100]),
   midi.NoteOnEvent(tick=0, channel=0, data=[74, 100]),
   midi.NoteOffEvent(tick=192, channel=0, data=[74, 100]),
   midi.NoteOnEvent(tick=0, channel=0, data=[72, 100]),
   midi.NoteOffEvent(tick=192, channel=0, data=[72, 100]),
   midi.NoteOnEvent(tick=0, channel=0, data=[74, 100]),
   midi.NoteOffEvent(tick=384, channel=0, data=[74, 100]),
   midi.NoteOnEvent(tick=0, channel=0, data=[72, 100]),
   midi.NoteOffEvent(tick=192, channel=0, data=[72, 100]),
   midi.NoteOnEvent(tick=0, channel=0, data=[69, 100]),
   midi.NoteOffEvent(tick=384, channel=0, data=[69, 100]),
   midi.NoteOnEvent(tick=1536, channel=0, data=[76, 100]),
   midi.NoteOffEvent(tick=192, channel=0, data=[76, 100]),
   midi.NoteOnEvent(tick=0, channel=0, data=[76, 100]),
   midi.NoteOffEvent(tick=384, channel=0, data=[76, 100]),
   midi.NoteOnEvent(tick=0, channel=0, data=[74, 100]),
   midi.NoteOffEvent(tick=384, channel=0, data=[74, 100]),
   midi.NoteOnEvent(tick=0, channel=0, data=[72, 100]),
   midi.NoteOffEvent(tick=384, channel=0, data=[72, 100]),
   midi.NoteOnEvent(tick=0, channel=0, data=[74, 100]),
   midi.NoteOffEvent(tick=192, channel=0, data=[74, 100]),
   midi.NoteOnEvent(tick=0, channel=0, data=[76, 100]),
   midi.NoteOffEvent(tick=768, channel=0, data=[76, 100]),
   midi.NoteOnEvent(tick=768, channel=0, data=[69, 100]),
   midi.NoteOffEvent(tick=384, channel=0, data=[69, 100]),
   midi.NoteOnEvent(tick=0, channel=0, data=[69, 100]),
   midi.NoteOffEvent(tick=192, channel=0, data=[69, 100]),
   midi.NoteOnEvent(tick=0, channel=0, data=[72, 100]),
   midi.NoteOffEvent(tick=384, channel=0, data=[72, 100]),
   midi.NoteOnEvent(tick=0, channel=0, data=[69, 100]),
   midi.NoteOffEvent(tick=384, channel=0, data=[69, 100]),
   midi.NoteOnEvent(tick=0, channel=0, data=[69, 100]),
   midi.NoteOffEvent(tick=576, channel=0, data=[69, 100]),
   midi.NoteOnEvent(tick=1152, channel=0, data=[76, 100]),
   midi.NoteOffEvent(tick=192, channel=0, data=[76, 100]),
   midi.NoteOnEvent(tick=0, channel=0, data=[76, 100]),
   midi.NoteOffEvent(tick=384, channel=0, data=[76, 100]),
   midi.NoteOnEvent(tick=0, channel=0, data=[74, 100]),
   midi.NoteOffEvent(tick=384, channel=0, data=[74, 100]),
   midi.NoteOnEvent(tick=0, channel=0, data=[72, 100]),
   midi.NoteOffEvent(tick=384, channel=0, data=[72, 100]),
   midi.NoteOnEvent(tick=0, channel=0, data=[74, 100]),
   midi.NoteOffEvent(tick=192, channel=0, data=[74, 100]),
   midi.NoteOnEvent(tick=0, channel=0, data=[76, 100]),
   midi.NoteOffEvent(tick=768, channel=0, data=[76, 100]),
   midi.NoteOnEvent(tick=0, channel=0, data=[69, 100]),
   midi.NoteOffEvent(tick=384, channel=0, data=[69, 100]),
   midi.NoteOnEvent(tick=0, channel=0, data=[69, 100]),
   midi.NoteOffEvent(tick=384, channel=0, data=[69, 100]),
   midi.NoteOnEvent(tick=0, channel=0, data=[72, 100]),
   midi.NoteOffEvent(tick=576, channel=0, data=[72, 100]),
   midi.NoteOnEvent(tick=0, channel=0, data=[74, 100]),
   midi.NoteOffEvent(tick=384, channel=0, data=[74, 100]),
   midi.NoteOnEvent(tick=0, channel=0, data=[72, 100]),
   midi.NoteOffEvent(tick=384, channel=0, data=[72, 100]),
   midi.NoteOnEvent(tick=0, channel=0, data=[74, 100]),
   midi.NoteOffEvent(tick=192, channel=0, data=[74, 100]),
   midi.NoteOnEvent(tick=0, channel=0, data=[76, 100]),
   midi.NoteOffEvent(tick=768, channel=0, data=[76, 100]),
   midi.NoteOnEvent(tick=768, channel=0, data=[76, 100]),
   midi.NoteOffEvent(tick=192, channel=0, data=[76, 100]),
   midi.NoteOnEvent(tick=0, channel=0, data=[76, 100]),
   midi.NoteOffEvent(tick=384, channel=0, data=[76, 100]),
   midi.NoteOnEvent(tick=0, channel=0, data=[74, 100]),
   midi.NoteOffEvent(tick=384, channel=0, data=[74, 100]),
   midi.NoteOnEvent(tick=0, channel=0, data=[72, 100]),
   midi.NoteOffEvent(tick=384, channel=0, data=[72, 100]),
   midi.NoteOnEvent(tick=0, channel=0, data=[74, 100]),
   midi.NoteOffEvent(tick=192, channel=0, data=[74, 100]),
   midi.NoteOnEvent(tick=0, channel=0, data=[76, 100]),
   midi.NoteOffEvent(tick=768, channel=0, data=[76, 100]),
   midi.NoteOnEvent(tick=768, channel=0, data=[69, 100]),
   midi.NoteOffEvent(tick=384, channel=0, data=[69, 100]),
   midi.NoteOnEvent(tick=0, channel=0, data=[69, 100]),
   midi.NoteOffEvent(tick=192, channel=0, data=[69, 100]),
   midi.NoteOnEvent(tick=0, channel=0, data=[72, 100]),
   midi.NoteOffEvent(tick=384, channel=0, data=[72, 100]),
   midi.NoteOnEvent(tick=0, channel=0, data=[69, 100]),
   midi.NoteOffEvent(tick=384, channel=0, data=[69, 100]),
   midi.NoteOnEvent(tick=0, channel=0, data=[69, 100]),
   midi.NoteOffEvent(tick=576, channel=0, data=[69, 100]),
   midi.NoteOnEvent(tick=1152, channel=0, data=[76, 100]),
   midi.NoteOffEvent(tick=192, channel=0, data=[76, 100]),
   midi.NoteOnEvent(tick=0, channel=0, data=[76, 100]),
   midi.NoteOffEvent(tick=384, channel=0, data=[76, 100]),
   midi.NoteOnEvent(tick=0, channel=0, data=[74, 100]),
   midi.NoteOffEvent(tick=384, channel=0, data=[74, 100]),
   midi.NoteOnEvent(tick=0, channel=0, data=[72, 100]),
   midi.NoteOffEvent(tick=384, channel=0, data=[72, 100]),
   midi.NoteOnEvent(tick=0, channel=0, data=[74, 100]),
   midi.NoteOffEvent(tick=192, channel=0, data=[74, 100]),
   midi.NoteOnEvent(tick=0, channel=0, data=[76, 100]),
   midi.NoteOffEvent(tick=768, channel=0, data=[76, 100]),
   midi.NoteOnEvent(tick=0, channel=0, data=[69, 100]),
   midi.NoteOffEvent(tick=384, channel=0, data=[69, 100]),
   midi.NoteOnEvent(tick=0, channel=0, data=[69, 100]),
   midi.NoteOffEvent(tick=384, channel=0, data=[69, 100]),
   midi.NoteOnEvent(tick=0, channel=0, data=[72, 100]),
   midi.NoteOffEvent(tick=576, channel=0, data=[72, 100]),
   midi.NoteOnEvent(tick=0, channel=0, data=[74, 100]),
   midi.NoteOffEvent(tick=384, channel=0, data=[74, 100]),
   midi.NoteOnEvent(tick=0, channel=0, data=[72, 100]),
   midi.NoteOffEvent(tick=384, channel=0, data=[72, 100]),
   midi.NoteOnEvent(tick=0, channel=0, data=[74, 100]),
   midi.NoteOffEvent(tick=192, channel=0, data=[74, 100]),
   midi.NoteOnEvent(tick=0, channel=0, data=[76, 100]),
   midi.NoteOffEvent(tick=2880, channel=0, data=[76, 100]),
   midi.NoteOnEvent(tick=0, channel=0, data=[69, 100]),
   midi.NoteOffEvent(tick=192, channel=0, data=[69, 100]),
   midi.NoteOnEvent(tick=0, channel=0, data=[81, 100]),
   midi.NoteOffEvent(tick=384, channel=0, data=[81, 100]),
   midi.NoteOnEvent(tick=192, channel=0, data=[79, 100]),
   midi.NoteOffEvent(tick=572, channel=0, data=[79, 100]),
   midi.NoteOnEvent(tick=388, channel=0, data=[74, 100]),
   midi.NoteOffEvent(tick=384, channel=0, data=[74, 100]),
   midi.NoteOnEvent(tick=0, channel=0, data=[76, 100]),
   midi.NoteOffEvent(tick=188, channel=0, data=[76, 100]),
   midi.NoteOnEvent(tick=4, channel=0, data=[74, 100]),
   midi.NoteOffEvent(tick=572, channel=0, data=[74, 100]),
   midi.NoteOnEvent(tick=388, channel=0, data=[69, 100]),
   midi.NoteOffEvent(tick=192, channel=0, data=[69, 100]),
   midi.NoteOnEvent(tick=0, channel=0, data=[69, 100]),
   midi.NoteOffEvent(tick=384, channel=0, data=[69, 100]),
   midi.NoteOnEvent(tick=0, channel=0, data=[72, 100]),
   midi.NoteOffEvent(tick=384, channel=0, data=[72, 100]),
   midi.NoteOnEvent(tick=0, channel=0, data=[74, 100]),
   midi.NoteOffEvent(tick=384, channel=0, data=[74, 100]),
   midi.NoteOnEvent(tick=0, channel=0, data=[76, 100]),
   midi.NoteOffEvent(tick=960, channel=0, data=[76, 100]),
   midi.NoteOnEvent(tick=768, channel=0, data=[81, 100]),
   midi.NoteOffEvent(tick=384, channel=0, data=[81, 100]),
   midi.NoteOnEvent(tick=0, channel=0, data=[81, 100]),
   midi.NoteOffEvent(tick=192, channel=0, data=[81, 100]),
   midi.NoteOnEvent(tick=0, channel=0, data=[79, 100]),
   midi.NoteOffEvent(tick=384, channel=0, data=[79, 100]),
   midi.NoteOnEvent(tick=0, channel=0, data=[76, 100]),
   midi.NoteOffEvent(tick=384, channel=0, data=[76, 100]),
   midi.NoteOnEvent(tick=0, channel=0, data=[76, 100]),
   midi.NoteOffEvent(tick=384, channel=0, data=[76, 100]),
   midi.NoteOnEvent(tick=0, channel=0, data=[76, 100]),
   midi.NoteOffEvent(tick=384, channel=0, data=[76, 100]),
   midi.NoteOnEvent(tick=0, channel=0, data=[74, 100]),
   midi.NoteOffEvent(tick=576, channel=0, data=[74, 100]),
   midi.NoteOnEvent(tick=0, channel=0, data=[67, 100]),
   midi.NoteOffEvent(tick=188, channel=0, data=[67, 100]),
   midi.NoteOnEvent(tick=4, channel=0, data=[67, 100]),
   midi.NoteOffEvent(tick=188, channel=0, data=[67, 100]),
   midi.NoteOnEvent(tick=4, channel=0, data=[69, 100]),
   midi.NoteOffEvent(tick=384, channel=0, data=[69, 100]),
   midi.NoteOnEvent(tick=0, channel=0, data=[69, 100]),
   midi.NoteOffEvent(tick=192, channel=0, data=[69, 100]),
   midi.NoteOnEvent(tick=0, channel=0, data=[72, 100]),
   midi.NoteOffEvent(tick=384, channel=0, data=[72, 100]),
   midi.NoteOnEvent(tick=0, channel=0, data=[69, 100]),
   midi.NoteOffEvent(tick=384, channel=0, data=[69, 100]),
   midi.NoteOnEvent(tick=0, channel=0, data=[69, 100]),
   midi.NoteOffEvent(tick=576, channel=0, data=[69, 100]),
   midi.NoteOnEvent(tick=768, channel=0, data=[69, 100]),
   midi.NoteOffEvent(tick=384, channel=0, data=[69, 100]),
   midi.NoteOnEvent(tick=0, channel=0, data=[81, 100]),
   midi.NoteOffEvent(tick=384, channel=0, data=[81, 100]),
   midi.NoteOnEvent(tick=0, channel=0, data=[81, 100]),
   midi.NoteOffEvent(tick=188, channel=0, data=[81, 100]),
   midi.NoteOnEvent(tick=4, channel=0, data=[79, 100]),
   midi.NoteOffEvent(tick=572, channel=0, data=[79, 100]),
   midi.NoteOnEvent(tick=388, channel=0, data=[76, 100]),
   midi.NoteOffEvent(tick=192, channel=0, data=[76, 100]),
   midi.NoteOnEvent(tick=0, channel=0, data=[76, 100]),
   midi.NoteOffEvent(tick=384, channel=0, data=[76, 100]),
   midi.NoteOnEvent(tick=0, channel=0, data=[74, 100]),
   midi.NoteOffEvent(tick=576, channel=0, data=[74, 100]),
   midi.NoteOnEvent(tick=768, channel=0, data=[69, 100]),
   midi.NoteOffEvent(tick=188, channel=0, data=[69, 100]),
   midi.NoteOnEvent(tick=4, channel=0, data=[72, 100]),
   midi.NoteOffEvent(tick=384, channel=0, data=[72, 100]),
   midi.NoteOnEvent(tick=0, channel=0, data=[69, 100]),
   midi.NoteOffEvent(tick=384, channel=0, data=[69, 100]),
   midi.NoteOnEvent(tick=0, channel=0, data=[74, 100]),
   midi.NoteOffEvent(tick=192, channel=0, data=[74, 100]),
   midi.NoteOnEvent(tick=0, channel=0, data=[76, 100]),
   midi.NoteOffEvent(tick=768, channel=0, data=[76, 100]),
   midi.NoteOnEvent(tick=384, channel=0, data=[69, 100]),
   midi.NoteOffEvent(tick=380, channel=0, data=[69, 100]),
   midi.NoteOnEvent(tick=4, channel=0, data=[81, 100]),
   midi.NoteOffEvent(tick=572, channel=0, data=[81, 100]),
   midi.NoteOnEvent(tick=4, channel=0, data=[79, 100]),
   midi.NoteOffEvent(tick=384, channel=0, data=[79, 100]),
   midi.NoteOnEvent(tick=0, channel=0, data=[76, 100]),
   midi.NoteOffEvent(tick=384, channel=0, data=[76, 100]),
   midi.NoteOnEvent(tick=0, channel=0, data=[76, 100]),
   midi.NoteOffEvent(tick=384, channel=0, data=[76, 100]),
   midi.NoteOnEvent(tick=0, channel=0, data=[76, 100]),
   midi.NoteOffEvent(tick=384, channel=0, data=[76, 100]),
   midi.NoteOnEvent(tick=0, channel=0, data=[74, 100]),
   midi.NoteOffEvent(tick=572, channel=0, data=[74, 100]),
   midi.NoteOnEvent(tick=388, channel=0, data=[76, 100]),
   midi.NoteOffEvent(tick=192, channel=0, data=[76, 100]),
   midi.NoteOnEvent(tick=0, channel=0, data=[74, 100]),
   midi.NoteOffEvent(tick=192, channel=0, data=[74, 100]),
   midi.NoteOnEvent(tick=0, channel=0, data=[72, 100]),
   midi.NoteOffEvent(tick=192, channel=0, data=[72, 100]),
   midi.NoteOnEvent(tick=0, channel=0, data=[74, 100]),
   midi.NoteOffEvent(tick=384, channel=0, data=[74, 100]),
   midi.NoteOnEvent(tick=0, channel=0, data=[72, 100]),
   midi.NoteOffEvent(tick=192, channel=0, data=[72, 100]),
   midi.NoteOnEvent(tick=0, channel=0, data=[69, 100]),
   midi.NoteOffEvent(tick=384, channel=0, data=[69, 100]),
   midi.NoteOnEvent(tick=1536, channel=0, data=[76, 100]),
   midi.NoteOffEvent(tick=192, channel=0, data=[76, 100]),
   midi.NoteOnEvent(tick=0, channel=0, data=[76, 100]),
   midi.NoteOffEvent(tick=384, channel=0, data=[76, 100]),
   midi.NoteOnEvent(tick=0, channel=0, data=[74, 100]),
   midi.NoteOffEvent(tick=384, channel=0, data=[74, 100]),
   midi.NoteOnEvent(tick=0, channel=0, data=[72, 100]),
   midi.NoteOffEvent(tick=384, channel=0, data=[72, 100]),
   midi.NoteOnEvent(tick=0, channel=0, data=[74, 100]),
   midi.NoteOffEvent(tick=192, channel=0, data=[74, 100]),
   midi.NoteOnEvent(tick=0, channel=0, data=[76, 100]),
   midi.NoteOffEvent(tick=768, channel=0, data=[76, 100]),
   midi.NoteOnEvent(tick=768, channel=0, data=[69, 100]),
   midi.NoteOffEvent(tick=384, channel=0, data=[69, 100]),
   midi.NoteOnEvent(tick=0, channel=0, data=[69, 100]),
   midi.NoteOffEvent(tick=192, channel=0, data=[69, 100]),
   midi.NoteOnEvent(tick=0, channel=0, data=[72, 100]),
   midi.NoteOffEvent(tick=384, channel=0, data=[72, 100]),
   midi.NoteOnEvent(tick=0, channel=0, data=[69, 100]),
   midi.NoteOffEvent(tick=384, channel=0, data=[69, 100]),
   midi.NoteOnEvent(tick=0, channel=0, data=[69, 100]),
   midi.NoteOffEvent(tick=576, channel=0, data=[69, 100]),
   midi.NoteOnEvent(tick=1152, channel=0, data=[76, 100]),
   midi.NoteOffEvent(tick=192, channel=0, data=[76, 100]),
   midi.NoteOnEvent(tick=0, channel=0, data=[76, 100]),
   midi.NoteOffEvent(tick=384, channel=0, data=[76, 100]),
   midi.NoteOnEvent(tick=0, channel=0, data=[74, 100]),
   midi.NoteOffEvent(tick=384, channel=0, data=[74, 100]),
   midi.NoteOnEvent(tick=0, channel=0, data=[72, 100]),
   midi.NoteOffEvent(tick=384, channel=0, data=[72, 100]),
   midi.NoteOnEvent(tick=0, channel=0, data=[74, 100]),
   midi.NoteOffEvent(tick=192, channel=0, data=[74, 100]),
   midi.NoteOnEvent(tick=0, channel=0, data=[76, 100]),
   midi.NoteOffEvent(tick=768, channel=0, data=[76, 100]),
   midi.NoteOnEvent(tick=0, channel=0, data=[69, 100]),
   midi.NoteOffEvent(tick=384, channel=0, data=[69, 100]),
   midi.NoteOnEvent(tick=0, channel=0, data=[69, 100]),
   midi.NoteOffEvent(tick=384, channel=0, data=[69, 100]),
   midi.NoteOnEvent(tick=0, channel=0, data=[72, 100]),
   midi.NoteOffEvent(tick=576, channel=0, data=[72, 100]),
   midi.NoteOnEvent(tick=0, channel=0, data=[74, 100]),
   midi.NoteOffEvent(tick=384, channel=0, data=[74, 100]),
   midi.NoteOnEvent(tick=0, channel=0, data=[72, 100]),
   midi.NoteOffEvent(tick=384, channel=0, data=[72, 100]),
   midi.NoteOnEvent(tick=0, channel=0, data=[74, 100]),
   midi.NoteOffEvent(tick=192, channel=0, data=[74, 100]),
   midi.NoteOnEvent(tick=0, channel=0, data=[76, 100]),
   midi.NoteOffEvent(tick=768, channel=0, data=[76, 100]),
   midi.NoteOnEvent(tick=768, channel=0, data=[76, 100]),
   midi.NoteOffEvent(tick=192, channel=0, data=[76, 100]),
   midi.NoteOnEvent(tick=0, channel=0, data=[76, 100]),
   midi.NoteOffEvent(tick=384, channel=0, data=[76, 100]),
   midi.NoteOnEvent(tick=0, channel=0, data=[74, 100]),
   midi.NoteOffEvent(tick=384, channel=0, data=[74, 100]),
   midi.NoteOnEvent(tick=0, channel=0, data=[72, 100]),
   midi.NoteOffEvent(tick=384, channel=0, data=[72, 100]),
   midi.NoteOnEvent(tick=0, channel=0, data=[74, 100]),
   midi.NoteOffEvent(tick=192, channel=0, data=[74, 100]),
   midi.NoteOnEvent(tick=0, channel=0, data=[76, 100]),
   midi.NoteOffEvent(tick=768, channel=0, data=[76, 100]),
   midi.NoteOnEvent(tick=768, channel=0, data=[69, 100]),
   midi.NoteOffEvent(tick=384, channel=0, data=[69, 100]),
   midi.NoteOnEvent(tick=0, channel=0, data=[69, 100]),
   midi.NoteOffEvent(tick=192, channel=0, data=[69, 100]),
   midi.NoteOnEvent(tick=0, channel=0, data=[72, 100]),
   midi.NoteOffEvent(tick=384, channel=0, data=[72, 100]),
   midi.NoteOnEvent(tick=0, channel=0, data=[69, 100]),
   midi.NoteOffEvent(tick=384, channel=0, data=[69, 100]),
   midi.NoteOnEvent(tick=0, channel=0, data=[69, 100]),
   midi.NoteOffEvent(tick=576, channel=0, data=[69, 100]),
   midi.NoteOnEvent(tick=1152, channel=0, data=[76, 100]),
   midi.NoteOffEvent(tick=192, channel=0, data=[76, 100]),
   midi.NoteOnEvent(tick=0, channel=0, data=[76, 100]),
   midi.NoteOffEvent(tick=384, channel=0, data=[76, 100]),
   midi.NoteOnEvent(tick=0, channel=0, data=[74, 100]),
   midi.NoteOffEvent(tick=384, channel=0, data=[74, 100]),
   midi.NoteOnEvent(tick=0, channel=0, data=[72, 100]),
   midi.NoteOffEvent(tick=384, channel=0, data=[72, 100]),
   midi.NoteOnEvent(tick=0, channel=0, data=[74, 100]),
   midi.NoteOffEvent(tick=192, channel=0, data=[74, 100]),
   midi.NoteOnEvent(tick=0, channel=0, data=[76, 100]),
   midi.NoteOffEvent(tick=768, channel=0, data=[76, 100]),
   midi.NoteOnEvent(tick=0, channel=0, data=[69, 100]),
   midi.NoteOffEvent(tick=384, channel=0, data=[69, 100]),
   midi.NoteOnEvent(tick=0, channel=0, data=[69, 100]),
   midi.NoteOffEvent(tick=384, channel=0, data=[69, 100]),
   midi.NoteOnEvent(tick=0, channel=0, data=[72, 100]),
   midi.NoteOffEvent(tick=576, channel=0, data=[72, 100]),
   midi.NoteOnEvent(tick=0, channel=0, data=[74, 100]),
   midi.NoteOffEvent(tick=384, channel=0, data=[74, 100]),
   midi.NoteOnEvent(tick=0, channel=0, data=[72, 100]),
   midi.NoteOffEvent(tick=384, channel=0, data=[72, 100]),
   midi.NoteOnEvent(tick=0, channel=0, data=[74, 100]),
   midi.NoteOffEvent(tick=192, channel=0, data=[74, 100]),
   midi.NoteOnEvent(tick=0, channel=0, data=[76, 100]),
   midi.NoteOffEvent(tick=3072, channel=0, data=[76, 100]),
   midi.NoteOnEvent(tick=63936, channel=0, data=[69, 100]),
   midi.NoteOffEvent(tick=192, channel=0, data=[69, 100]),
   midi.NoteOnEvent(tick=0, channel=0, data=[69, 100]),
   midi.NoteOffEvent(tick=384, channel=0, data=[69, 100]),
   midi.NoteOnEvent(tick=0, channel=0, data=[81, 100]),
   midi.NoteOffEvent(tick=384, channel=0, data=[81, 100]),
   midi.NoteOnEvent(tick=192, channel=0, data=[79, 100]),
   midi.NoteOffEvent(tick=384, channel=0, data=[79, 100]),
   midi.NoteOnEvent(tick=0, channel=0, data=[76, 100]),
   midi.NoteOffEvent(tick=576, channel=0, data=[76, 64]),
   midi.NoteOnEvent(tick=0, channel=0, data=[74, 100]),
   midi.NoteOffEvent(tick=384, channel=0, data=[74, 100]),
   midi.NoteOnEvent(tick=0, channel=0, data=[76, 100]),
   midi.NoteOffEvent(tick=188, channel=0, data=[76, 100]),
   midi.NoteOnEvent(tick=4, channel=0, data=[74, 100]),
   midi.NoteOffEvent(tick=572, channel=0, data=[74, 100]),
   midi.NoteOnEvent(tick=388, channel=0, data=[69, 100]),
   midi.NoteOffEvent(tick=572, channel=0, data=[69, 100]),
   midi.NoteOnEvent(tick=4, channel=0, data=[72, 100]),
   midi.NoteOffEvent(tick=384, channel=0, data=[72, 100]),
   midi.NoteOnEvent(tick=0, channel=0, data=[74, 100]),
   midi.NoteOffEvent(tick=384, channel=0, data=[74, 100]),
   midi.NoteOnEvent(tick=0, channel=0, data=[76, 100]),
   midi.NoteOffEvent(tick=960, channel=0, data=[76, 64]),
   midi.NoteOnEvent(tick=768, channel=0, data=[81, 100]),
   midi.NoteOffEvent(tick=384, channel=0, data=[81, 100]),
   midi.NoteOnEvent(tick=0, channel=0, data=[81, 100]),
   midi.NoteOffEvent(tick=192, channel=0, data=[81, 100]),
   midi.NoteOnEvent(tick=0, channel=0, data=[79, 100]),
   midi.NoteOffEvent(tick=384, channel=0, data=[79, 100]),
   midi.NoteOnEvent(tick=0, channel=0, data=[76, 100]),
   midi.NoteOffEvent(tick=384, channel=0, data=[76, 64]),
   midi.NoteOnEvent(tick=0, channel=0, data=[76, 100]),
   midi.NoteOnEvent(tick=384, channel=0, data=[76, 100]),
   midi.NoteOffEvent(tick=384, channel=0, data=[76, 100]),
   midi.NoteOffEvent(tick=384, channel=0, data=[76, 64]),
   midi.NoteOnEvent(tick=576, channel=0, data=[69, 100]),
   midi.NoteOffEvent(tick=384, channel=0, data=[69, 100]),
   midi.NoteOnEvent(tick=0, channel=0, data=[69, 100]),
   midi.NoteOffEvent(tick=192, channel=0, data=[69, 100]),
   midi.NoteOnEvent(tick=0, channel=0, data=[72, 100]),
   midi.NoteOffEvent(tick=384, channel=0, data=[72, 100]),
   midi.NoteOnEvent(tick=0, channel=0, data=[69, 100]),
   midi.NoteOffEvent(tick=384, channel=0, data=[69, 100]),
   midi.NoteOnEvent(tick=0, channel=0, data=[69, 100]),
   midi.NoteOffEvent(tick=576, channel=0, data=[69, 100]),
   midi.NoteOnEvent(tick=768, channel=0, data=[69, 100]),
   midi.NoteOffEvent(tick=384, channel=0, data=[69, 100]),
   midi.NoteOnEvent(tick=0, channel=0, data=[81, 100]),
   midi.NoteOffEvent(tick=384, channel=0, data=[81, 100]),
   midi.NoteOnEvent(tick=192, channel=0, data=[79, 100]),
   midi.NoteOffEvent(tick=192, channel=0, data=[79, 100]),
   midi.NoteOnEvent(tick=768, channel=0, data=[76, 100]),
   midi.NoteOnEvent(tick=192, channel=0, data=[76, 100]),
   midi.NoteOffEvent(tick=384, channel=0, data=[76, 100]),
   midi.NoteOffEvent(tick=0, channel=0, data=[76, 64]),
   midi.NoteOnEvent(tick=0, channel=0, data=[74, 100]),
   midi.NoteOffEvent(tick=576, channel=0, data=[74, 100]),
   midi.NoteOnEvent(tick=192, channel=0, data=[69, 100]),
   midi.NoteOffEvent(tick=192, channel=0, data=[69, 100]),
   midi.NoteOnEvent(tick=0, channel=0, data=[69, 100]),
   midi.NoteOffEvent(tick=192, channel=0, data=[69, 100]),
   midi.NoteOnEvent(tick=0, channel=0, data=[69, 100]),
   midi.NoteOffEvent(tick=384, channel=0, data=[69, 100]),
   midi.NoteOnEvent(tick=0, channel=0, data=[72, 100]),
   midi.NoteOffEvent(tick=384, channel=0, data=[72, 100]),
   midi.NoteOnEvent(tick=0, channel=0, data=[74, 100]),
   midi.NoteOffEvent(tick=384, channel=0, data=[74, 100]),
   midi.NoteOnEvent(tick=0, channel=0, data=[74, 100]),
   midi.NoteOffEvent(tick=192, channel=0, data=[74, 100]),
   midi.NoteOnEvent(tick=0, channel=0, data=[76, 100]),
   midi.NoteOffEvent(tick=1536, channel=0, data=[76, 64]),
   midi.NoteOnEvent(tick=0, channel=0, data=[81, 100]),
   midi.NoteOffEvent(tick=192, channel=0, data=[81, 100]),
   midi.NoteOnEvent(tick=0, channel=0, data=[81, 100]),
   midi.NoteOffEvent(tick=384, channel=0, data=[81, 100]),
   midi.NoteOnEvent(tick=0, channel=0, data=[79, 100]),
   midi.NoteOffEvent(tick=384, channel=0, data=[79, 100]),
   midi.NoteOnEvent(tick=0, channel=0, data=[76, 100]),
   midi.NoteOffEvent(tick=384, channel=0, data=[76, 64]),
   midi.NoteOnEvent(tick=0, channel=0, data=[76, 100]),
   midi.NoteOnEvent(tick=384, channel=0, data=[76, 100]),
   midi.NoteOffEvent(tick=384, channel=0, data=[76, 100]),
   midi.NoteOffEvent(tick=0, channel=0, data=[76, 64]),
   midi.NoteOnEvent(tick=0, channel=0, data=[74, 100]),
   midi.NoteOffEvent(tick=384, channel=0, data=[74, 100]),
   midi.NoteOnEvent(tick=0, channel=0, data=[72, 100]),
   midi.NoteOffEvent(tick=384, channel=0, data=[72, 100]),
   midi.NoteOnEvent(tick=192, channel=0, data=[76, 100]),
   midi.NoteOffEvent(tick=192, channel=0, data=[76, 64]),
   midi.NoteOnEvent(tick=0, channel=0, data=[74, 100]),
   midi.NoteOffEvent(tick=192, channel=0, data=[74, 100]),
   midi.NoteOnEvent(tick=0, channel=0, data=[72, 100]),
   midi.NoteOffEvent(tick=192, channel=0, data=[72, 100]),
   midi.NoteOnEvent(tick=0, channel=0, data=[74, 100]),
   midi.NoteOffEvent(tick=384, channel=0, data=[74, 100]),
   midi.NoteOnEvent(tick=0, channel=0, data=[72, 100]),
   midi.NoteOffEvent(tick=192, channel=0, data=[72, 100]),
   midi.NoteOnEvent(tick=0, channel=0, data=[69, 100]),
   midi.NoteOffEvent(tick=384, channel=0, data=[69, 100]),
   midi.NoteOnEvent(tick=1536, channel=0, data=[76, 100]),
   midi.NoteOnEvent(tick=192, channel=0, data=[76, 100]),
   midi.NoteOffEvent(tick=384, channel=0, data=[76, 100]),
   midi.NoteOffEvent(tick=0, channel=0, data=[76, 64]),
   midi.NoteOnEvent(tick=0, channel=0, data=[74, 100]),
   midi.NoteOffEvent(tick=384, channel=0, data=[74, 100]),
   midi.NoteOnEvent(tick=0, channel=0, data=[72, 100]),
   midi.NoteOffEvent(tick=384, channel=0, data=[72, 100]),
   midi.NoteOnEvent(tick=0, channel=0, data=[74, 100]),
   midi.NoteOffEvent(tick=192, channel=0, data=[74, 100]),
   midi.NoteOnEvent(tick=0, channel=0, data=[76, 100]),
   midi.NoteOffEvent(tick=768, channel=0, data=[76, 64]),
   midi.NoteOnEvent(tick=768, channel=0, data=[69, 100]),
   midi.NoteOffEvent(tick=384, channel=0, data=[69, 100]),
   midi.NoteOnEvent(tick=0, channel=0, data=[69, 100]),
   midi.NoteOffEvent(tick=192, channel=0, data=[69, 100]),
   midi.NoteOnEvent(tick=0, channel=0, data=[72, 100]),
   midi.NoteOffEvent(tick=384, channel=0, data=[72, 100]),
   midi.NoteOnEvent(tick=0, channel=0, data=[69, 100]),
   midi.NoteOffEvent(tick=384, channel=0, data=[69, 100]),
   midi.NoteOnEvent(tick=0, channel=0, data=[69, 100]),
   midi.NoteOffEvent(tick=576, channel=0, data=[69, 100]),
   midi.NoteOnEvent(tick=1152, channel=0, data=[76, 100]),
   midi.NoteOnEvent(tick=192, channel=0, data=[76, 100]),
   midi.NoteOffEvent(tick=384, channel=0, data=[76, 100]),
   midi.NoteOffEvent(tick=0, channel=0, data=[76, 64]),
   midi.NoteOnEvent(tick=0, channel=0, data=[74, 100]),
   midi.NoteOffEvent(tick=384, channel=0, data=[74, 100]),
   midi.NoteOnEvent(tick=0, channel=0, data=[72, 100]),
   midi.NoteOffEvent(tick=384, channel=0, data=[72, 100]),
   midi.NoteOnEvent(tick=0, channel=0, data=[74, 100]),
   midi.NoteOffEvent(tick=192, channel=0, data=[74, 100]),
   midi.NoteOnEvent(tick=0, channel=0, data=[76, 100]),
   midi.NoteOffEvent(tick=768, channel=0, data=[76, 64]),
   midi.NoteOnEvent(tick=0, channel=0, data=[69, 100]),
   midi.NoteOffEvent(tick=384, channel=0, data=[69, 100]),
   midi.NoteOnEvent(tick=0, channel=0, data=[69, 100]),
   midi.NoteOffEvent(tick=384, channel=0, data=[69, 100]),
   midi.NoteOnEvent(tick=0, channel=0, data=[72, 100]),
   midi.NoteOffEvent(tick=576, channel=0, data=[72, 100]),
   midi.NoteOnEvent(tick=0, channel=0, data=[74, 100]),
   midi.NoteOffEvent(tick=384, channel=0, data=[74, 100]),
   midi.NoteOnEvent(tick=0, channel=0, data=[72, 100]),
   midi.NoteOffEvent(tick=384, channel=0, data=[72, 100]),
   midi.NoteOnEvent(tick=0, channel=0, data=[74, 100]),
   midi.NoteOffEvent(tick=192, channel=0, data=[74, 100]),
   midi.NoteOnEvent(tick=0, channel=0, data=[76, 100]),
   midi.NoteOffEvent(tick=768, channel=0, data=[76, 64]),
   midi.NoteOnEvent(tick=768, channel=0, data=[76, 100]),
   midi.NoteOnEvent(tick=192, channel=0, data=[76, 100]),
   midi.NoteOffEvent(tick=384, channel=0, data=[76, 100]),
   midi.NoteOffEvent(tick=0, channel=0, data=[76, 64]),
   midi.NoteOnEvent(tick=0, channel=0, data=[74, 100]),
   midi.NoteOffEvent(tick=384, channel=0, data=[74, 100]),
   midi.NoteOnEvent(tick=0, channel=0, data=[72, 100]),
   midi.NoteOffEvent(tick=384, channel=0, data=[72, 100]),
   midi.NoteOnEvent(tick=0, channel=0, data=[74, 100]),
   midi.NoteOffEvent(tick=192, channel=0, data=[74, 100]),
   midi.NoteOnEvent(tick=0, channel=0, data=[76, 100]),
   midi.NoteOffEvent(tick=768, channel=0, data=[76, 64]),
   midi.NoteOnEvent(tick=768, channel=0, data=[69, 100]),
   midi.NoteOffEvent(tick=384, channel=0, data=[69, 100]),
   midi.NoteOnEvent(tick=0, channel=0, data=[69, 100]),
   midi.NoteOffEvent(tick=192, channel=0, data=[69, 100]),
   midi.NoteOnEvent(tick=0, channel=0, data=[72, 100]),
   midi.NoteOffEvent(tick=384, channel=0, data=[72, 100]),
   midi.NoteOnEvent(tick=0, channel=0, data=[69, 100]),
   midi.NoteOffEvent(tick=384, channel=0, data=[69, 100]),
   midi.NoteOnEvent(tick=0, channel=0, data=[69, 100]),
   midi.NoteOffEvent(tick=576, channel=0, data=[69, 100]),
   midi.NoteOnEvent(tick=1152, channel=0, data=[76, 100]),
   midi.NoteOnEvent(tick=192, channel=0, data=[76, 100]),
   midi.NoteOffEvent(tick=384, channel=0, data=[76, 100]),
   midi.NoteOffEvent(tick=0, channel=0, data=[76, 64]),
   midi.NoteOnEvent(tick=0, channel=0, data=[74, 100]),
   midi.NoteOffEvent(tick=384, channel=0, data=[74, 100]),
   midi.NoteOnEvent(tick=0, channel=0, data=[72, 100]),
   midi.NoteOffEvent(tick=384, channel=0, data=[72, 100]),
   midi.NoteOnEvent(tick=0, channel=0, data=[74, 100]),
   midi.NoteOffEvent(tick=192, channel=0, data=[74, 100]),
   midi.NoteOnEvent(tick=0, channel=0, data=[76, 100]),
   midi.NoteOffEvent(tick=768, channel=0, data=[76, 64]),
   midi.NoteOnEvent(tick=0, channel=0, data=[69, 100]),
   midi.NoteOffEvent(tick=384, channel=0, data=[69, 100]),
   midi.NoteOnEvent(tick=0, channel=0, data=[69, 100]),
   midi.NoteOffEvent(tick=384, channel=0, data=[69, 100]),
   midi.NoteOnEvent(tick=0, channel=0, data=[72, 100]),
   midi.NoteOffEvent(tick=576, channel=0, data=[72, 100]),
   midi.NoteOnEvent(tick=0, channel=0, data=[74, 100]),
   midi.NoteOffEvent(tick=384, channel=0, data=[74, 100]),
   midi.NoteOnEvent(tick=0, channel=0, data=[72, 100]),
   midi.NoteOffEvent(tick=384, channel=0, data=[72, 100]),
   midi.NoteOnEvent(tick=0, channel=0, data=[74, 100]),
   midi.NoteOffEvent(tick=192, channel=0, data=[74, 100]),
   midi.NoteOnEvent(tick=0, channel=0, data=[76, 100]),
   midi.NoteOffEvent(tick=6912, channel=0, data=[76, 100]),
   midi.EndOfTrackEvent(tick=0, data=[])]),
 midi.Track(\
  [midi.TrackNameEvent(tick=0, text='"SKIN O\' MY TEETH"', data=[34, 83, 75, 73, 78, 32, 79, 39, 32, 77, 89, 32, 84, 69, 69, 84, 72, 34]),
   midi.ControlChangeEvent(tick=0, channel=1, data=[0, 0]),
   midi.ProgramChangeEvent(tick=0, channel=1, data=[30]),
   midi.ControlChangeEvent(tick=0, channel=1, data=[7, 91]),
   midi.ControlChangeEvent(tick=0, channel=1, data=[10, 31]),
   midi.ControlChangeEvent(tick=0, channel=1, data=[91, 127]),
   midi.ControlChangeEvent(tick=0, channel=1, data=[93, 127]),
   midi.KeySignatureEvent(tick=0, data=[0, 0]),
   midi.NoteOnEvent(tick=3072, channel=1, data=[52, 100]),
   midi.NoteOnEvent(tick=0, channel=1, data=[45, 100]),
   midi.NoteOffEvent(tick=576, channel=1, data=[52, 100]),
   midi.NoteOffEvent(tick=0, channel=1, data=[45, 100]),
   midi.NoteOnEvent(tick=0, channel=1, data=[51, 100]),
   midi.NoteOnEvent(tick=0, channel=1, data=[44, 100]),
   midi.NoteOffEvent(tick=576, channel=1, data=[51, 100]),
   midi.NoteOffEvent(tick=0, channel=1, data=[44, 100]),
   midi.NoteOnEvent(tick=0, channel=1, data=[50, 100]),
   midi.NoteOnEvent(tick=0, channel=1, data=[43, 100]),
   midi.NoteOffEvent(tick=576, channel=1, data=[43, 100]),
   midi.NoteOffEvent(tick=0, channel=1, data=[50, 100]),
   midi.NoteOnEvent(tick=0, channel=1, data=[49, 100]),
   midi.NoteOnEvent(tick=0, channel=1, data=[42, 100]),
   midi.NoteOffEvent(tick=576, channel=1, data=[49, 100]),
   midi.NoteOffEvent(tick=0, channel=1, data=[42, 100]),
   midi.NoteOnEvent(tick=0, channel=1, data=[41, 100]),
   midi.NoteOnEvent(tick=0, channel=1, data=[48, 100]),
   midi.NoteOffEvent(tick=384, channel=1, data=[41, 100]),
   midi.NoteOffEvent(tick=0, channel=1, data=[48, 100]),
   midi.NoteOnEvent(tick=0, channel=1, data=[40, 100]),
   midi.NoteOnEvent(tick=0, channel=1, data=[47, 100]),
   midi.NoteOffEvent(tick=384, channel=1, data=[40, 100]),
   midi.NoteOffEvent(tick=0, channel=1, data=[47, 100]),
   midi.NoteOnEvent(tick=0, channel=1, data=[57, 100]),
   midi.NoteOnEvent(tick=0, channel=1, data=[45, 100]),
   midi.NoteOffEvent(tick=192, channel=1, data=[57, 100]),
   midi.NoteOffEvent(tick=0, channel=1, data=[45, 100]),
   midi.NoteOnEvent(tick=0, channel=1, data=[45, 100]),
   midi.NoteOffEvent(tick=76, channel=1, data=[45, 100]),
   midi.NoteOnEvent(tick=116, channel=1, data=[45, 100]),
   midi.NoteOffEvent(tick=76, channel=1, data=[45, 100]),
   midi.NoteOnEvent(tick=116, channel=1, data=[57, 100]),
   midi.NoteOnEvent(tick=0, channel=1, data=[45, 100]),
   midi.NoteOffEvent(tick=192, channel=1, data=[57, 100]),
   midi.NoteOffEvent(tick=0, channel=1, data=[45, 100]),
   midi.NoteOnEvent(tick=0, channel=1, data=[45, 100]),
   midi.NoteOffEvent(tick=76, channel=1, data=[45, 100]),
   midi.NoteOnEvent(tick=116, channel=1, data=[45, 100]),
   midi.NoteOffEvent(tick=76, channel=1, data=[45, 100]),
   midi.NoteOnEvent(tick=116, channel=1, data=[45, 100]),
   midi.NoteOnEvent(tick=0, channel=1, data=[57, 100]),
   midi.NoteOffEvent(tick=192, channel=1, data=[45, 100]),
   midi.NoteOffEvent(tick=0, channel=1, data=[57, 100]),
   midi.NoteOnEvent(tick=0, channel=1, data=[45, 100]),
   midi.NoteOffEvent(tick=76, channel=1, data=[45, 100]),
   midi.NoteOnEvent(tick=116, channel=1, data=[45, 100]),
   midi.NoteOffEvent(tick=76, channel=1, data=[45, 100]),
   midi.NoteOnEvent(tick=116, channel=1, data=[45, 100]),
   midi.NoteOffEvent(tick=76, channel=1, data=[45, 100]),
   midi.NoteOnEvent(tick=116, channel=1, data=[55, 100]),
   midi.NoteOnEvent(tick=0, channel=1, data=[60, 100]),
   midi.NoteOffEvent(tick=384, channel=1, data=[55, 100]),
   midi.NoteOffEvent(tick=0, channel=1, data=[60, 100]),
   midi.PitchWheelEvent(tick=0, channel=1, data=[0, 32]),
   midi.NoteOnEvent(tick=0, channel=1, data=[63, 100]),
   midi.NoteOnEvent(tick=0, channel=1, data=[58, 100]),
   midi.PitchWheelEvent(tick=24, channel=1, data=[0, 40]),
   midi.PitchWheelEvent(tick=16, channel=1, data=[0, 48]),
   midi.PitchWheelEvent(tick=16, channel=1, data=[0, 56]),
   midi.PitchWheelEvent(tick=16, channel=1, data=[0, 64]),
   midi.NoteOffEvent(tick=120, channel=1, data=[63, 100]),
   midi.NoteOffEvent(tick=0, channel=1, data=[58, 100]),
   midi.NoteOnEvent(tick=0, channel=1, data=[62, 100]),
   midi.NoteOnEvent(tick=0, channel=1, data=[57, 100]),
   midi.NoteOffEvent(tick=192, channel=1, data=[62, 100]),
   midi.NoteOffEvent(tick=0, channel=1, data=[57, 100]),
   midi.NoteOnEvent(tick=0, channel=1, data=[60, 100]),
   midi.NoteOnEvent(tick=0, channel=1, data=[55, 100]),
   midi.NoteOffEvent(tick=192, channel=1, data=[60, 100]),
   midi.NoteOffEvent(tick=0, channel=1, data=[55, 100]),
   midi.NoteOnEvent(tick=0, channel=1, data=[45, 100]),
   midi.NoteOffEvent(tick=76, channel=1, data=[45, 100]),
   midi.NoteOnEvent(tick=116, channel=1, data=[57, 100]),
   midi.NoteOnEvent(tick=0, channel=1, data=[45, 100]),
   midi.NoteOffEvent(tick=192, channel=1, data=[57, 100]),
   midi.NoteOffEvent(tick=0, channel=1, data=[45, 100]),
   midi.NoteOnEvent(tick=0, channel=1, data=[45, 100]),
   midi.NoteOffEvent(tick=76, channel=1, data=[45, 100]),
   midi.NoteOnEvent(tick=116, channel=1, data=[45, 100]),
   midi.NoteOffEvent(tick=76, channel=1, data=[45, 100]),
   midi.NoteOnEvent(tick=116, channel=1, data=[57, 100]),
   midi.NoteOnEvent(tick=0, channel=1, data=[45, 100]),
   midi.NoteOffEvent(tick=192, channel=1, data=[57, 100]),
   midi.NoteOffEvent(tick=0, channel=1, data=[45, 100]),
   midi.NoteOnEvent(tick=0, channel=1, data=[45, 100]),
   midi.NoteOffEvent(tick=76, channel=1, data=[45, 100]),
   midi.NoteOnEvent(tick=116, channel=1, data=[45, 100]),
   midi.NoteOffEvent(tick=76, channel=1, data=[45, 100]),
   midi.NoteOnEvent(tick=116, channel=1, data=[45, 100]),
   midi.NoteOnEvent(tick=0, channel=1, data=[57, 100]),
   midi.NoteOffEvent(tick=192, channel=1, data=[45, 100]),
   midi.NoteOffEvent(tick=0, channel=1, data=[57, 100]),
   midi.NoteOnEvent(tick=0, channel=1, data=[45, 100]),
   midi.NoteOffEvent(tick=76, channel=1, data=[45, 100]),
   midi.NoteOnEvent(tick=116, channel=1, data=[45, 100]),
   midi.NoteOffEvent(tick=76, channel=1, data=[45, 100]),
   midi.NoteOnEvent(tick=116, channel=1, data=[45, 100]),
   midi.NoteOffEvent(tick=76, channel=1, data=[45, 100]),
   midi.NoteOnEvent(tick=116, channel=1, data=[55, 100]),
   midi.NoteOnEvent(tick=0, channel=1, data=[60, 100]),
   midi.NoteOffEvent(tick=384, channel=1, data=[55, 100]),
   midi.NoteOffEvent(tick=0, channel=1, data=[60, 100]),
   midi.PitchWheelEvent(tick=0, channel=1, data=[0, 32]),
   midi.NoteOnEvent(tick=0, channel=1, data=[63, 100]),
   midi.NoteOnEvent(tick=0, channel=1, data=[58, 100]),
   midi.PitchWheelEvent(tick=24, channel=1, data=[0, 40]),
   midi.PitchWheelEvent(tick=16, channel=1, data=[0, 48]),
   midi.PitchWheelEvent(tick=16, channel=1, data=[0, 56]),
   midi.PitchWheelEvent(tick=16, channel=1, data=[0, 64]),
   midi.NoteOffEvent(tick=120, channel=1, data=[63, 100]),
   midi.NoteOffEvent(tick=0, channel=1, data=[58, 100]),
   midi.NoteOnEvent(tick=0, channel=1, data=[62, 100]),
   midi.NoteOnEvent(tick=0, channel=1, data=[57, 100]),
   midi.NoteOffEvent(tick=192, channel=1, data=[62, 100]),
   midi.NoteOffEvent(tick=0, channel=1, data=[57, 100]),
   midi.NoteOnEvent(tick=0, channel=1, data=[60, 100]),
   midi.NoteOnEvent(tick=0, channel=1, data=[55, 100]),
   midi.NoteOffEvent(tick=192, channel=1, data=[60, 100]),
   midi.NoteOffEvent(tick=0, channel=1, data=[55, 100]),
   midi.NoteOnEvent(tick=0, channel=1, data=[45, 100]),
   midi.NoteOffEvent(tick=76, channel=1, data=[45, 100]),
   midi.NoteOnEvent(tick=116, channel=1, data=[57, 100]),
   midi.NoteOnEvent(tick=0, channel=1, data=[45, 100]),
   midi.NoteOffEvent(tick=192, channel=1, data=[57, 100]),
   midi.NoteOffEvent(tick=0, channel=1, data=[45, 100]),
   midi.NoteOnEvent(tick=0, channel=1, data=[45, 100]),
   midi.NoteOffEvent(tick=76, channel=1, data=[45, 100]),
   midi.NoteOnEvent(tick=116, channel=1, data=[45, 100]),
   midi.NoteOffEvent(tick=76, channel=1, data=[45, 100]),
   midi.NoteOnEvent(tick=116, channel=1, data=[57, 100]),
   midi.NoteOnEvent(tick=0, channel=1, data=[45, 100]),
   midi.NoteOffEvent(tick=192, channel=1, data=[57, 100]),
   midi.NoteOffEvent(tick=0, channel=1, data=[45, 100]),
   midi.NoteOnEvent(tick=0, channel=1, data=[45, 100]),
   midi.NoteOffEvent(tick=76, channel=1, data=[45, 100]),
   midi.NoteOnEvent(tick=116, channel=1, data=[45, 100]),
   midi.NoteOffEvent(tick=76, channel=1, data=[45, 100]),
   midi.NoteOnEvent(tick=116, channel=1, data=[45, 100]),
   midi.NoteOnEvent(tick=0, channel=1, data=[57, 100]),
   midi.NoteOffEvent(tick=192, channel=1, data=[45, 100]),
   midi.NoteOffEvent(tick=0, channel=1, data=[57, 100]),
   midi.NoteOnEvent(tick=0, channel=1, data=[45, 100]),
   midi.NoteOffEvent(tick=76, channel=1, data=[45, 100]),
   midi.NoteOnEvent(tick=116, channel=1, data=[45, 100]),
   midi.NoteOffEvent(tick=76, channel=1, data=[45, 100]),
   midi.NoteOnEvent(tick=116, channel=1, data=[45, 100]),
   midi.NoteOffEvent(tick=76, channel=1, data=[45, 100]),
   midi.NoteOnEvent(tick=116, channel=1, data=[55, 100]),
   midi.NoteOnEvent(tick=0, channel=1, data=[60, 100]),
   midi.NoteOffEvent(tick=384, channel=1, data=[55, 100]),
   midi.NoteOffEvent(tick=0, channel=1, data=[60, 100]),
   midi.PitchWheelEvent(tick=0, channel=1, data=[0, 32]),
   midi.NoteOnEvent(tick=0, channel=1, data=[63, 100]),
   midi.NoteOnEvent(tick=0, channel=1, data=[58, 100]),
   midi.PitchWheelEvent(tick=24, channel=1, data=[0, 40]),
   midi.PitchWheelEvent(tick=16, channel=1, data=[0, 48]),
   midi.PitchWheelEvent(tick=16, channel=1, data=[0, 56]),
   midi.PitchWheelEvent(tick=16, channel=1, data=[0, 64]),
   midi.NoteOffEvent(tick=120, channel=1, data=[63, 100]),
   midi.NoteOffEvent(tick=0, channel=1, data=[58, 100]),
   midi.NoteOnEvent(tick=0, channel=1, data=[62, 100]),
   midi.NoteOnEvent(tick=0, channel=1, data=[57, 100]),
   midi.NoteOffEvent(tick=192, channel=1, data=[62, 100]),
   midi.NoteOffEvent(tick=0, channel=1, data=[57, 100]),
   midi.NoteOnEvent(tick=0, channel=1, data=[60, 100]),
   midi.NoteOnEvent(tick=0, channel=1, data=[55, 100]),
   midi.NoteOffEvent(tick=192, channel=1, data=[60, 100]),
   midi.NoteOffEvent(tick=0, channel=1, data=[55, 100]),
   midi.NoteOnEvent(tick=0, channel=1, data=[45, 100]),
   midi.NoteOffEvent(tick=76, channel=1, data=[45, 100]),
   midi.NoteOnEvent(tick=116, channel=1, data=[57, 100]),
   midi.NoteOnEvent(tick=0, channel=1, data=[45, 100]),
   midi.NoteOffEvent(tick=192, channel=1, data=[57, 100]),
   midi.NoteOffEvent(tick=0, channel=1, data=[45, 100]),
   midi.NoteOnEvent(tick=0, channel=1, data=[45, 100]),
   midi.NoteOffEvent(tick=76, channel=1, data=[45, 100]),
   midi.NoteOnEvent(tick=116, channel=1, data=[45, 100]),
   midi.NoteOffEvent(tick=76, channel=1, data=[45, 100]),
   midi.NoteOnEvent(tick=116, channel=1, data=[57, 100]),
   midi.NoteOnEvent(tick=0, channel=1, data=[45, 100]),
   midi.NoteOffEvent(tick=192, channel=1, data=[57, 100]),
   midi.NoteOffEvent(tick=0, channel=1, data=[45, 100]),
   midi.NoteOnEvent(tick=0, channel=1, data=[45, 100]),
   midi.NoteOffEvent(tick=76, channel=1, data=[45, 100]),
   midi.NoteOnEvent(tick=116, channel=1, data=[45, 100]),
   midi.NoteOffEvent(tick=76, channel=1, data=[45, 100]),
   midi.NoteOnEvent(tick=116, channel=1, data=[45, 100]),
   midi.NoteOnEvent(tick=0, channel=1, data=[57, 100]),
   midi.NoteOffEvent(tick=384, channel=1, data=[45, 100]),
   midi.NoteOffEvent(tick=0, channel=1, data=[57, 100]),
   midi.NoteOnEvent(tick=1536, channel=1, data=[57, 100]),
   midi.NoteOnEvent(tick=0, channel=1, data=[45, 100]),
   midi.NoteOffEvent(tick=192, channel=1, data=[57, 100]),
   midi.NoteOffEvent(tick=0, channel=1, data=[45, 100]),
   midi.NoteOnEvent(tick=0, channel=1, data=[45, 100]),
   midi.NoteOffEvent(tick=76, channel=1, data=[45, 100]),
   midi.NoteOnEvent(tick=116, channel=1, data=[45, 100]),
   midi.NoteOffEvent(tick=76, channel=1, data=[45, 100]),
   midi.NoteOnEvent(tick=116, channel=1, data=[60, 100]),
   midi.NoteOnEvent(tick=0, channel=1, data=[55, 100]),
   midi.NoteOffEvent(tick=192, channel=1, data=[60, 100]),
   midi.NoteOffEvent(tick=0, channel=1, data=[55, 100]),
   midi.NoteOnEvent(tick=0, channel=1, data=[45, 100]),
   midi.NoteOffEvent(tick=76, channel=1, data=[45, 100]),
   midi.NoteOnEvent(tick=116, channel=1, data=[45, 100]),
   midi.NoteOffEvent(tick=76, channel=1, data=[45, 100]),
   midi.NoteOnEvent(tick=116, channel=1, data=[62, 100]),
   midi.NoteOnEvent(tick=0, channel=1, data=[57, 100]),
   midi.NoteOffEvent(tick=576, channel=1, data=[57, 100]),
   midi.NoteOffEvent(tick=0, channel=1, data=[62, 100]),
   midi.NoteOnEvent(tick=0, channel=1, data=[57, 100]),
   midi.NoteOnEvent(tick=0, channel=1, data=[52, 100]),
   midi.NoteOffEvent(tick=192, channel=1, data=[57, 100]),
   midi.NoteOffEvent(tick=0, channel=1, data=[52, 100]),
   midi.NoteOnEvent(tick=0, channel=1, data=[60, 100]),
   midi.NoteOnEvent(tick=0, channel=1, data=[55, 100]),
   midi.NoteOffEvent(tick=384, channel=1, data=[60, 100]),
   midi.NoteOffEvent(tick=0, channel=1, data=[55, 100]),
   midi.PitchWheelEvent(tick=0, channel=1, data=[0, 32]),
   midi.NoteOnEvent(tick=0, channel=1, data=[58, 100]),
   midi.NoteOnEvent(tick=0, channel=1, data=[63, 100]),
   midi.PitchWheelEvent(tick=24, channel=1, data=[0, 40]),
   midi.PitchWheelEvent(tick=16, channel=1, data=[0, 48]),
   midi.PitchWheelEvent(tick=16, channel=1, data=[0, 56]),
   midi.PitchWheelEvent(tick=16, channel=1, data=[0, 64]),
   midi.NoteOffEvent(tick=120, channel=1, data=[58, 100]),
   midi.NoteOffEvent(tick=0, channel=1, data=[63, 100]),
   midi.NoteOnEvent(tick=0, channel=1, data=[62, 100]),
   midi.NoteOnEvent(tick=0, channel=1, data=[57, 100]),
   midi.NoteOffEvent(tick=192, channel=1, data=[62, 100]),
   midi.NoteOffEvent(tick=0, channel=1, data=[57, 100]),
   midi.NoteOnEvent(tick=0, channel=1, data=[60, 100]),
   midi.NoteOnEvent(tick=0, channel=1, data=[55, 100]),
   midi.NoteOffEvent(tick=192, channel=1, data=[60, 100]),
   midi.NoteOffEvent(tick=0, channel=1, data=[55, 100]),
   midi.NoteOnEvent(tick=0, channel=1, data=[57, 100]),
   midi.NoteOffEvent(tick=192, channel=1, data=[57, 100]),
   midi.NoteOnEvent(tick=0, channel=1, data=[57, 100]),
   midi.NoteOnEvent(tick=0, channel=1, data=[45, 100]),
   midi.NoteOffEvent(tick=192, channel=1, data=[57, 100]),
   midi.NoteOffEvent(tick=0, channel=1, data=[45, 100]),
   midi.NoteOnEvent(tick=0, channel=1, data=[45, 100]),
   midi.NoteOffEvent(tick=76, channel=1, data=[45, 100]),
   midi.NoteOnEvent(tick=116, channel=1, data=[45, 100]),
   midi.NoteOffEvent(tick=76, channel=1, data=[45, 100]),
   midi.NoteOnEvent(tick=116, channel=1, data=[60, 100]),
   midi.NoteOnEvent(tick=0, channel=1, data=[55, 100]),
   midi.NoteOffEvent(tick=192, channel=1, data=[60, 100]),
   midi.NoteOffEvent(tick=0, channel=1, data=[55, 100]),
   midi.NoteOnEvent(tick=192, channel=1, data=[43, 100]),
   midi.NoteOffEvent(tick=76, channel=1, data=[43, 100]),
   midi.NoteOnEvent(tick=116, channel=1, data=[57, 100]),
   midi.NoteOnEvent(tick=0, channel=1, data=[52, 100]),
   midi.NoteOnEvent(tick=0, channel=1, data=[45, 100]),
   midi.NoteOffEvent(tick=576, channel=1, data=[45, 100]),
   midi.NoteOffEvent(tick=0, channel=1, data=[52, 100]),
   midi.NoteOffEvent(tick=0, channel=1, data=[57, 100]),
   midi.NoteOnEvent(tick=0, channel=1, data=[57, 100]),
   midi.NoteOnEvent(tick=0, channel=1, data=[52, 100]),
   midi.NoteOffEvent(tick=192, channel=1, data=[57, 100]),
   midi.NoteOffEvent(tick=0, channel=1, data=[52, 100]),
   midi.NoteOnEvent(tick=0, channel=1, data=[60, 100]),
   midi.NoteOnEvent(tick=0, channel=1, data=[55, 100]),
   midi.NoteOffEvent(tick=384, channel=1, data=[60, 100]),
   midi.NoteOffEvent(tick=0, channel=1, data=[55, 100]),
   midi.PitchWheelEvent(tick=0, channel=1, data=[0, 32]),
   midi.NoteOnEvent(tick=0, channel=1, data=[58, 100]),
   midi.NoteOnEvent(tick=0, channel=1, data=[63, 100]),
   midi.PitchWheelEvent(tick=24, channel=1, data=[0, 40]),
   midi.PitchWheelEvent(tick=16, channel=1, data=[0, 48]),
   midi.PitchWheelEvent(tick=16, channel=1, data=[0, 56]),
   midi.PitchWheelEvent(tick=16, channel=1, data=[0, 64]),
   midi.NoteOffEvent(tick=120, channel=1, data=[58, 100]),
   midi.NoteOffEvent(tick=0, channel=1, data=[63, 100]),
   midi.NoteOnEvent(tick=0, channel=1, data=[62, 100]),
   midi.NoteOnEvent(tick=0, channel=1, data=[57, 100]),
   midi.NoteOffEvent(tick=192, channel=1, data=[62, 100]),
   midi.NoteOffEvent(tick=0, channel=1, data=[57, 100]),
   midi.NoteOnEvent(tick=0, channel=1, data=[60, 100]),
   midi.NoteOnEvent(tick=0, channel=1, data=[55, 100]),
   midi.NoteOffEvent(tick=192, channel=1, data=[60, 100]),
   midi.NoteOffEvent(tick=0, channel=1, data=[55, 100]),
   midi.NoteOnEvent(tick=0, channel=1, data=[57, 100]),
   midi.NoteOffEvent(tick=192, channel=1, data=[57, 100]),
   midi.NoteOnEvent(tick=0, channel=1, data=[57, 100]),
   midi.NoteOnEvent(tick=0, channel=1, data=[45, 100]),
   midi.NoteOffEvent(tick=192, channel=1, data=[57, 100]),
   midi.NoteOffEvent(tick=0, channel=1, data=[45, 100]),
   midi.NoteOnEvent(tick=0, channel=1, data=[45, 100]),
   midi.NoteOffEvent(tick=76, channel=1, data=[45, 100]),
   midi.NoteOnEvent(tick=116, channel=1, data=[45, 100]),
   midi.NoteOffEvent(tick=76, channel=1, data=[45, 100]),
   midi.NoteOnEvent(tick=116, channel=1, data=[60, 100]),
   midi.NoteOnEvent(tick=0, channel=1, data=[55, 100]),
   midi.NoteOffEvent(tick=192, channel=1, data=[60, 100]),
   midi.NoteOffEvent(tick=0, channel=1, data=[55, 100]),
   midi.NoteOnEvent(tick=0, channel=1, data=[45, 100]),
   midi.NoteOffEvent(tick=76, channel=1, data=[45, 100]),
   midi.NoteOnEvent(tick=116, channel=1, data=[45, 100]),
   midi.NoteOffEvent(tick=76, channel=1, data=[45, 100]),
   midi.NoteOnEvent(tick=116, channel=1, data=[62, 100]),
   midi.NoteOnEvent(tick=0, channel=1, data=[57, 100]),
   midi.NoteOffEvent(tick=576, channel=1, data=[57, 64]),
   midi.NoteOffEvent(tick=0, channel=1, data=[62, 64]),
   midi.NoteOnEvent(tick=0, channel=1, data=[57, 100]),
   midi.NoteOnEvent(tick=0, channel=1, data=[52, 100]),
   midi.NoteOffEvent(tick=192, channel=1, data=[57, 100]),
   midi.NoteOffEvent(tick=0, channel=1, data=[52, 100]),
   midi.NoteOnEvent(tick=0, channel=1, data=[60, 100]),
   midi.NoteOnEvent(tick=0, channel=1, data=[55, 100]),
   midi.NoteOffEvent(tick=384, channel=1, data=[60, 100]),
   midi.NoteOffEvent(tick=0, channel=1, data=[55, 100]),
   midi.PitchWheelEvent(tick=0, channel=1, data=[0, 32]),
   midi.NoteOnEvent(tick=0, channel=1, data=[58, 100]),
   midi.NoteOnEvent(tick=0, channel=1, data=[63, 100]),
   midi.PitchWheelEvent(tick=24, channel=1, data=[0, 40]),
   midi.PitchWheelEvent(tick=16, channel=1, data=[0, 48]),
   midi.PitchWheelEvent(tick=16, channel=1, data=[0, 56]),
   midi.PitchWheelEvent(tick=16, channel=1, data=[0, 64]),
   midi.NoteOffEvent(tick=120, channel=1, data=[58, 100]),
   midi.NoteOffEvent(tick=0, channel=1, data=[63, 100]),
   midi.NoteOnEvent(tick=0, channel=1, data=[62, 100]),
   midi.NoteOnEvent(tick=0, channel=1, data=[57, 100]),
   midi.NoteOffEvent(tick=192, channel=1, data=[62, 100]),
   midi.NoteOffEvent(tick=0, channel=1, data=[57, 100]),
   midi.NoteOnEvent(tick=0, channel=1, data=[60, 100]),
   midi.NoteOnEvent(tick=0, channel=1, data=[55, 100]),
   midi.NoteOffEvent(tick=192, channel=1, data=[60, 100]),
   midi.NoteOffEvent(tick=0, channel=1, data=[55, 100]),
   midi.NoteOnEvent(tick=0, channel=1, data=[57, 100]),
   midi.NoteOffEvent(tick=192, channel=1, data=[57, 100]),
   midi.NoteOnEvent(tick=0, channel=1, data=[57, 100]),
   midi.NoteOnEvent(tick=0, channel=1, data=[45, 100]),
   midi.NoteOffEvent(tick=192, channel=1, data=[57, 100]),
   midi.NoteOffEvent(tick=0, channel=1, data=[45, 100]),
   midi.NoteOnEvent(tick=0, channel=1, data=[45, 100]),
   midi.NoteOffEvent(tick=76, channel=1, data=[45, 100]),
   midi.NoteOnEvent(tick=116, channel=1, data=[45, 100]),
   midi.NoteOffEvent(tick=76, channel=1, data=[45, 100]),
   midi.NoteOnEvent(tick=116, channel=1, data=[60, 100]),
   midi.NoteOnEvent(tick=0, channel=1, data=[55, 100]),
   midi.NoteOffEvent(tick=192, channel=1, data=[60, 100]),
   midi.NoteOffEvent(tick=0, channel=1, data=[55, 100]),
   midi.NoteOnEvent(tick=192, channel=1, data=[43, 100]),
   midi.NoteOffEvent(tick=76, channel=1, data=[43, 100]),
   midi.NoteOnEvent(tick=116, channel=1, data=[57, 100]),
   midi.NoteOnEvent(tick=0, channel=1, data=[52, 100]),
   midi.NoteOnEvent(tick=0, channel=1, data=[45, 100]),
   midi.NoteOffEvent(tick=576, channel=1, data=[45, 64]),
   midi.NoteOffEvent(tick=0, channel=1, data=[52, 64]),
   midi.NoteOffEvent(tick=0, channel=1, data=[57, 64]),
   midi.NoteOnEvent(tick=0, channel=1, data=[57, 100]),
   midi.NoteOnEvent(tick=0, channel=1, data=[52, 100]),
   midi.NoteOffEvent(tick=192, channel=1, data=[57, 100]),
   midi.NoteOffEvent(tick=0, channel=1, data=[52, 100]),
   midi.NoteOnEvent(tick=0, channel=1, data=[60, 100]),
   midi.NoteOnEvent(tick=0, channel=1, data=[55, 100]),
   midi.NoteOffEvent(tick=384, channel=1, data=[60, 100]),
   midi.NoteOffEvent(tick=0, channel=1, data=[55, 100]),
   midi.PitchWheelEvent(tick=0, channel=1, data=[0, 32]),
   midi.NoteOnEvent(tick=0, channel=1, data=[58, 100]),
   midi.NoteOnEvent(tick=0, channel=1, data=[63, 100]),
   midi.PitchWheelEvent(tick=24, channel=1, data=[0, 40]),
   midi.PitchWheelEvent(tick=16, channel=1, data=[0, 48]),
   midi.PitchWheelEvent(tick=16, channel=1, data=[0, 56]),
   midi.PitchWheelEvent(tick=16, channel=1, data=[0, 64]),
   midi.NoteOffEvent(tick=120, channel=1, data=[58, 100]),
   midi.NoteOffEvent(tick=0, channel=1, data=[63, 100]),
   midi.NoteOnEvent(tick=0, channel=1, data=[62, 100]),
   midi.NoteOnEvent(tick=0, channel=1, data=[57, 100]),
   midi.NoteOffEvent(tick=192, channel=1, data=[62, 100]),
   midi.NoteOffEvent(tick=0, channel=1, data=[57, 100]),
   midi.NoteOnEvent(tick=0, channel=1, data=[60, 100]),
   midi.NoteOnEvent(tick=0, channel=1, data=[55, 100]),
   midi.NoteOffEvent(tick=192, channel=1, data=[60, 100]),
   midi.NoteOffEvent(tick=0, channel=1, data=[55, 100]),
   midi.NoteOnEvent(tick=0, channel=1, data=[57, 100]),
   midi.NoteOffEvent(tick=192, channel=1, data=[57, 100]),
   midi.NoteOnEvent(tick=0, channel=1, data=[57, 100]),
   midi.NoteOnEvent(tick=0, channel=1, data=[45, 100]),
   midi.NoteOffEvent(tick=192, channel=1, data=[57, 100]),
   midi.NoteOffEvent(tick=0, channel=1, data=[45, 100]),
   midi.NoteOnEvent(tick=0, channel=1, data=[45, 100]),
   midi.NoteOffEvent(tick=76, channel=1, data=[45, 100]),
   midi.NoteOnEvent(tick=116, channel=1, data=[45, 100]),
   midi.NoteOffEvent(tick=76, channel=1, data=[45, 100]),
   midi.NoteOnEvent(tick=116, channel=1, data=[60, 100]),
   midi.NoteOnEvent(tick=0, channel=1, data=[55, 100]),
   midi.NoteOffEvent(tick=192, channel=1, data=[60, 100]),
   midi.NoteOffEvent(tick=0, channel=1, data=[55, 100]),
   midi.NoteOnEvent(tick=0, channel=1, data=[45, 100]),
   midi.NoteOffEvent(tick=76, channel=1, data=[45, 100]),
   midi.NoteOnEvent(tick=116, channel=1, data=[45, 100]),
   midi.NoteOffEvent(tick=76, channel=1, data=[45, 100]),
   midi.NoteOnEvent(tick=116, channel=1, data=[62, 100]),
   midi.NoteOnEvent(tick=0, channel=1, data=[57, 100]),
   midi.NoteOffEvent(tick=576, channel=1, data=[57, 64]),
   midi.NoteOffEvent(tick=0, channel=1, data=[62, 64]),
   midi.NoteOnEvent(tick=0, channel=1, data=[57, 100]),
   midi.NoteOnEvent(tick=0, channel=1, data=[52, 100]),
   midi.NoteOffEvent(tick=192, channel=1, data=[57, 100]),
   midi.NoteOffEvent(tick=0, channel=1, data=[52, 100]),
   midi.NoteOnEvent(tick=0, channel=1, data=[60, 100]),
   midi.NoteOnEvent(tick=0, channel=1, data=[55, 100]),
   midi.NoteOffEvent(tick=384, channel=1, data=[60, 100]),
   midi.NoteOffEvent(tick=0, channel=1, data=[55, 100]),
   midi.PitchWheelEvent(tick=0, channel=1, data=[0, 32]),
   midi.NoteOnEvent(tick=0, channel=1, data=[58, 100]),
   midi.NoteOnEvent(tick=0, channel=1, data=[63, 100]),
   midi.PitchWheelEvent(tick=24, channel=1, data=[0, 40]),
   midi.PitchWheelEvent(tick=16, channel=1, data=[0, 48]),
   midi.PitchWheelEvent(tick=16, channel=1, data=[0, 56]),
   midi.PitchWheelEvent(tick=16, channel=1, data=[0, 64]),
   midi.NoteOffEvent(tick=120, channel=1, data=[58, 100]),
   midi.NoteOffEvent(tick=0, channel=1, data=[63, 100]),
   midi.NoteOnEvent(tick=0, channel=1, data=[62, 100]),
   midi.NoteOnEvent(tick=0, channel=1, data=[57, 100]),
   midi.NoteOffEvent(tick=192, channel=1, data=[62, 100]),
   midi.NoteOffEvent(tick=0, channel=1, data=[57, 100]),
   midi.NoteOnEvent(tick=0, channel=1, data=[60, 100]),
   midi.NoteOnEvent(tick=0, channel=1, data=[55, 100]),
   midi.NoteOffEvent(tick=192, channel=1, data=[60, 100]),
   midi.NoteOffEvent(tick=0, channel=1, data=[55, 100]),
   midi.NoteOnEvent(tick=0, channel=1, data=[57, 100]),
   midi.NoteOffEvent(tick=192, channel=1, data=[57, 100]),
   midi.NoteOnEvent(tick=0, channel=1, data=[57, 100]),
   midi.NoteOnEvent(tick=0, channel=1, data=[45, 100]),
   midi.NoteOffEvent(tick=192, channel=1, data=[57, 100]),
   midi.NoteOffEvent(tick=0, channel=1, data=[45, 100]),
   midi.NoteOnEvent(tick=0, channel=1, data=[45, 100]),
   midi.NoteOffEvent(tick=76, channel=1, data=[45, 100]),
   midi.NoteOnEvent(tick=116, channel=1, data=[45, 100]),
   midi.NoteOffEvent(tick=76, channel=1, data=[45, 100]),
   midi.NoteOnEvent(tick=116, channel=1, data=[60, 100]),
   midi.NoteOnEvent(tick=0, channel=1, data=[55, 100]),
   midi.NoteOffEvent(tick=192, channel=1, data=[60, 100]),
   midi.NoteOffEvent(tick=0, channel=1, data=[55, 100]),
   midi.NoteOnEvent(tick=192, channel=1, data=[43, 100]),
   midi.NoteOffEvent(tick=76, channel=1, data=[43, 100]),
   midi.NoteOnEvent(tick=116, channel=1, data=[57, 100]),
   midi.NoteOnEvent(tick=0, channel=1, data=[52, 100]),
   midi.NoteOnEvent(tick=0, channel=1, data=[45, 100]),
   midi.NoteOffEvent(tick=576, channel=1, data=[45, 64]),
   midi.NoteOffEvent(tick=0, channel=1, data=[52, 64]),
   midi.NoteOffEvent(tick=0, channel=1, data=[57, 64]),
   midi.NoteOnEvent(tick=0, channel=1, data=[57, 100]),
   midi.NoteOnEvent(tick=0, channel=1, data=[52, 100]),
   midi.NoteOffEvent(tick=192, channel=1, data=[57, 100]),
   midi.NoteOffEvent(tick=0, channel=1, data=[52, 100]),
   midi.NoteOnEvent(tick=0, channel=1, data=[60, 100]),
   midi.NoteOnEvent(tick=0, channel=1, data=[55, 100]),
   midi.NoteOffEvent(tick=384, channel=1, data=[60, 100]),
   midi.NoteOffEvent(tick=0, channel=1, data=[55, 100]),
   midi.PitchWheelEvent(tick=0, channel=1, data=[0, 32]),
   midi.NoteOnEvent(tick=0, channel=1, data=[58, 100]),
   midi.NoteOnEvent(tick=0, channel=1, data=[63, 100]),
   midi.PitchWheelEvent(tick=24, channel=1, data=[0, 40]),
   midi.PitchWheelEvent(tick=16, channel=1, data=[0, 48]),
   midi.PitchWheelEvent(tick=16, channel=1, data=[0, 56]),
   midi.PitchWheelEvent(tick=16, channel=1, data=[0, 64]),
   midi.NoteOffEvent(tick=120, channel=1, data=[58, 100]),
   midi.NoteOffEvent(tick=0, channel=1, data=[63, 100]),
   midi.NoteOnEvent(tick=0, channel=1, data=[62, 100]),
   midi.NoteOnEvent(tick=0, channel=1, data=[57, 100]),
   midi.NoteOffEvent(tick=192, channel=1, data=[62, 100]),
   midi.NoteOffEvent(tick=0, channel=1, data=[57, 100]),
   midi.NoteOnEvent(tick=0, channel=1, data=[60, 100]),
   midi.NoteOnEvent(tick=0, channel=1, data=[55, 100]),
   midi.NoteOffEvent(tick=192, channel=1, data=[60, 100]),
   midi.NoteOffEvent(tick=0, channel=1, data=[55, 100]),
   midi.NoteOnEvent(tick=0, channel=1, data=[57, 100]),
   midi.NoteOffEvent(tick=192, channel=1, data=[57, 100]),
   midi.NoteOnEvent(tick=0, channel=1, data=[57, 100]),
   midi.NoteOnEvent(tick=0, channel=1, data=[45, 100]),
   midi.NoteOffEvent(tick=192, channel=1, data=[57, 100]),
   midi.NoteOffEvent(tick=0, channel=1, data=[45, 100]),
   midi.NoteOnEvent(tick=0, channel=1, data=[45, 100]),
   midi.NoteOffEvent(tick=76, channel=1, data=[45, 100]),
   midi.NoteOnEvent(tick=116, channel=1, data=[45, 100]),
   midi.NoteOffEvent(tick=76, channel=1, data=[45, 100]),
   midi.NoteOnEvent(tick=116, channel=1, data=[60, 100]),
   midi.NoteOnEvent(tick=0, channel=1, data=[55, 100]),
   midi.NoteOffEvent(tick=192, channel=1, data=[60, 100]),
   midi.NoteOffEvent(tick=0, channel=1, data=[55, 100]),
   midi.NoteOnEvent(tick=0, channel=1, data=[45, 100]),
   midi.NoteOffEvent(tick=76, channel=1, data=[45, 100]),
   midi.NoteOnEvent(tick=116, channel=1, data=[45, 100]),
   midi.NoteOffEvent(tick=76, channel=1, data=[45, 100]),
   midi.NoteOnEvent(tick=116, channel=1, data=[62, 100]),
   midi.NoteOnEvent(tick=0, channel=1, data=[57, 100]),
   midi.NoteOffEvent(tick=576, channel=1, data=[57, 64]),
   midi.NoteOffEvent(tick=0, channel=1, data=[62, 64]),
   midi.NoteOnEvent(tick=0, channel=1, data=[57, 100]),
   midi.NoteOnEvent(tick=0, channel=1, data=[52, 100]),
   midi.NoteOffEvent(tick=192, channel=1, data=[57, 100]),
   midi.NoteOffEvent(tick=0, channel=1, data=[52, 100]),
   midi.NoteOnEvent(tick=0, channel=1, data=[60, 100]),
   midi.NoteOnEvent(tick=0, channel=1, data=[55, 100]),
   midi.NoteOffEvent(tick=384, channel=1, data=[60, 100]),
   midi.NoteOffEvent(tick=0, channel=1, data=[55, 100]),
   midi.PitchWheelEvent(tick=0, channel=1, data=[0, 32]),
   midi.NoteOnEvent(tick=0, channel=1, data=[58, 100]),
   midi.NoteOnEvent(tick=0, channel=1, data=[63, 100]),
   midi.PitchWheelEvent(tick=24, channel=1, data=[0, 40]),
   midi.PitchWheelEvent(tick=16, channel=1, data=[0, 48]),
   midi.PitchWheelEvent(tick=16, channel=1, data=[0, 56]),
   midi.PitchWheelEvent(tick=16, channel=1, data=[0, 64]),
   midi.NoteOffEvent(tick=120, channel=1, data=[58, 100]),
   midi.NoteOffEvent(tick=0, channel=1, data=[63, 100]),
   midi.NoteOnEvent(tick=0, channel=1, data=[62, 100]),
   midi.NoteOnEvent(tick=0, channel=1, data=[57, 100]),
   midi.NoteOffEvent(tick=192, channel=1, data=[62, 100]),
   midi.NoteOffEvent(tick=0, channel=1, data=[57, 100]),
   midi.NoteOnEvent(tick=0, channel=1, data=[60, 100]),
   midi.NoteOnEvent(tick=0, channel=1, data=[55, 100]),
   midi.NoteOffEvent(tick=192, channel=1, data=[60, 100]),
   midi.NoteOffEvent(tick=0, channel=1, data=[55, 100]),
   midi.NoteOnEvent(tick=0, channel=1, data=[57, 100]),
   midi.NoteOffEvent(tick=192, channel=1, data=[57, 100]),
   midi.NoteOnEvent(tick=0, channel=1, data=[57, 100]),
   midi.NoteOnEvent(tick=0, channel=1, data=[45, 100]),
   midi.NoteOffEvent(tick=192, channel=1, data=[57, 100]),
   midi.NoteOffEvent(tick=0, channel=1, data=[45, 100]),
   midi.NoteOnEvent(tick=0, channel=1, data=[45, 100]),
   midi.NoteOffEvent(tick=76, channel=1, data=[45, 100]),
   midi.NoteOnEvent(tick=116, channel=1, data=[45, 100]),
   midi.NoteOffEvent(tick=76, channel=1, data=[45, 100]),
   midi.NoteOnEvent(tick=116, channel=1, data=[60, 100]),
   midi.NoteOnEvent(tick=0, channel=1, data=[55, 100]),
   midi.NoteOffEvent(tick=192, channel=1, data=[60, 100]),
   midi.NoteOffEvent(tick=0, channel=1, data=[55, 100]),
   midi.NoteOnEvent(tick=192, channel=1, data=[43, 100]),
   midi.NoteOffEvent(tick=76, channel=1, data=[43, 100]),
   midi.NoteOnEvent(tick=116, channel=1, data=[45, 100]),
   midi.NoteOnEvent(tick=0, channel=1, data=[52, 100]),
   midi.NoteOnEvent(tick=0, channel=1, data=[57, 100]),
   midi.NoteOffEvent(tick=1920, channel=1, data=[57, 64]),
   midi.NoteOffEvent(tick=0, channel=1, data=[52, 64]),
   midi.NoteOffEvent(tick=0, channel=1, data=[45, 64]),
   midi.NoteOnEvent(tick=0, channel=1, data=[57, 100]),
   midi.NoteOffEvent(tick=188, channel=1, data=[57, 100]),
   midi.NoteOnEvent(tick=4, channel=1, data=[45, 100]),
   midi.NoteOffEvent(tick=380, channel=1, data=[45, 100]),
   midi.NoteOnEvent(tick=4, channel=1, data=[57, 100]),
   midi.NoteOffEvent(tick=188, channel=1, data=[57, 100]),
   midi.NoteOnEvent(tick=4, channel=1, data=[44, 100]),
   midi.NoteOffEvent(tick=380, channel=1, data=[44, 100]),
   midi.NoteOnEvent(tick=4, channel=1, data=[57, 100]),
   midi.NoteOffEvent(tick=188, channel=1, data=[57, 100]),
   midi.NoteOnEvent(tick=4, channel=1, data=[43, 100]),
   midi.NoteOffEvent(tick=380, channel=1, data=[43, 100]),
   midi.NoteOnEvent(tick=4, channel=1, data=[57, 100]),
   midi.NoteOnEvent(tick=0, channel=1, data=[52, 100]),
   midi.NoteOffEvent(tick=188, channel=1, data=[57, 100]),
   midi.NoteOffEvent(tick=0, channel=1, data=[52, 100]),
   midi.NoteOnEvent(tick=4, channel=1, data=[60, 100]),
   midi.NoteOnEvent(tick=0, channel=1, data=[55, 100]),
   midi.NoteOffEvent(tick=384, channel=1, data=[60, 100]),
   midi.NoteOffEvent(tick=0, channel=1, data=[55, 100]),
   midi.PitchWheelEvent(tick=0, channel=1, data=[0, 32]),
   midi.NoteOnEvent(tick=0, channel=1, data=[58, 100]),
   midi.NoteOnEvent(tick=0, channel=1, data=[63, 100]),
   midi.PitchWheelEvent(tick=24, channel=1, data=[0, 40]),
   midi.PitchWheelEvent(tick=16, channel=1, data=[0, 48]),
   midi.PitchWheelEvent(tick=16, channel=1, data=[0, 56]),
   midi.PitchWheelEvent(tick=16, channel=1, data=[0, 64]),
   midi.NoteOffEvent(tick=120, channel=1, data=[58, 100]),
   midi.NoteOffEvent(tick=0, channel=1, data=[63, 100]),
   midi.NoteOnEvent(tick=0, channel=1, data=[62, 100]),
   midi.NoteOnEvent(tick=0, channel=1, data=[57, 100]),
   midi.NoteOffEvent(tick=192, channel=1, data=[62, 100]),
   midi.NoteOffEvent(tick=0, channel=1, data=[57, 100]),
   midi.NoteOnEvent(tick=0, channel=1, data=[60, 100]),
   midi.NoteOnEvent(tick=0, channel=1, data=[55, 100]),
   midi.NoteOffEvent(tick=192, channel=1, data=[60, 100]),
   midi.NoteOffEvent(tick=0, channel=1, data=[55, 100]),
   midi.NoteOnEvent(tick=0, channel=1, data=[57, 100]),
   midi.NoteOffEvent(tick=192, channel=1, data=[57, 100]),
   midi.NoteOnEvent(tick=0, channel=1, data=[53, 100]),
   midi.NoteOffEvent(tick=188, channel=1, data=[53, 100]),
   midi.NoteOnEvent(tick=4, channel=1, data=[41, 100]),
   midi.NoteOffEvent(tick=380, channel=1, data=[41, 100]),
   midi.NoteOnEvent(tick=4, channel=1, data=[53, 100]),
   midi.NoteOffEvent(tick=188, channel=1, data=[53, 100]),
   midi.NoteOnEvent(tick=4, channel=1, data=[40, 100]),
   midi.NoteOffEvent(tick=380, channel=1, data=[40, 100]),
   midi.NoteOnEvent(tick=4, channel=1, data=[53, 100]),
   midi.NoteOffEvent(tick=188, channel=1, data=[53, 100]),
   midi.NoteOnEvent(tick=4, channel=1, data=[50, 100]),
   midi.NoteOffEvent(tick=380, channel=1, data=[50, 100]),
   midi.NoteOnEvent(tick=4, channel=1, data=[57, 100]),
   midi.NoteOnEvent(tick=0, channel=1, data=[52, 100]),
   midi.NoteOffEvent(tick=188, channel=1, data=[57, 100]),
   midi.NoteOffEvent(tick=0, channel=1, data=[52, 100]),
   midi.NoteOnEvent(tick=4, channel=1, data=[60, 100]),
   midi.NoteOnEvent(tick=0, channel=1, data=[55, 100]),
   midi.NoteOffEvent(tick=384, channel=1, data=[60, 100]),
   midi.NoteOffEvent(tick=0, channel=1, data=[55, 100]),
   midi.PitchWheelEvent(tick=0, channel=1, data=[0, 32]),
   midi.NoteOnEvent(tick=0, channel=1, data=[58, 100]),
   midi.NoteOnEvent(tick=0, channel=1, data=[63, 100]),
   midi.PitchWheelEvent(tick=24, channel=1, data=[0, 40]),
   midi.PitchWheelEvent(tick=16, channel=1, data=[0, 48]),
   midi.PitchWheelEvent(tick=16, channel=1, data=[0, 56]),
   midi.PitchWheelEvent(tick=16, channel=1, data=[0, 64]),
   midi.NoteOffEvent(tick=120, channel=1, data=[58, 100]),
   midi.NoteOffEvent(tick=0, channel=1, data=[63, 100]),
   midi.NoteOnEvent(tick=0, channel=1, data=[62, 100]),
   midi.NoteOnEvent(tick=0, channel=1, data=[57, 100]),
   midi.NoteOffEvent(tick=192, channel=1, data=[62, 100]),
   midi.NoteOffEvent(tick=0, channel=1, data=[57, 100]),
   midi.NoteOnEvent(tick=0, channel=1, data=[60, 100]),
   midi.NoteOnEvent(tick=0, channel=1, data=[55, 100]),
   midi.NoteOffEvent(tick=192, channel=1, data=[60, 100]),
   midi.NoteOffEvent(tick=0, channel=1, data=[55, 100]),
   midi.NoteOnEvent(tick=0, channel=1, data=[57, 100]),
   midi.NoteOffEvent(tick=192, channel=1, data=[57, 100]),
   midi.NoteOnEvent(tick=0, channel=1, data=[57, 100]),
   midi.NoteOffEvent(tick=188, channel=1, data=[57, 100]),
   midi.NoteOnEvent(tick=4, channel=1, data=[45, 100]),
   midi.NoteOffEvent(tick=380, channel=1, data=[45, 100]),
   midi.NoteOnEvent(tick=4, channel=1, data=[57, 100]),
   midi.NoteOffEvent(tick=188, channel=1, data=[57, 100]),
   midi.NoteOnEvent(tick=4, channel=1, data=[44, 100]),
   midi.NoteOffEvent(tick=380, channel=1, data=[44, 100]),
   midi.NoteOnEvent(tick=4, channel=1, data=[57, 100]),
   midi.NoteOffEvent(tick=188, channel=1, data=[57, 100]),
   midi.NoteOnEvent(tick=4, channel=1, data=[43, 100]),
   midi.NoteOffEvent(tick=380, channel=1, data=[43, 100]),
   midi.NoteOnEvent(tick=4, channel=1, data=[57, 100]),
   midi.NoteOnEvent(tick=0, channel=1, data=[52, 100]),
   midi.NoteOffEvent(tick=188, channel=1, data=[57, 100]),
   midi.NoteOffEvent(tick=0, channel=1, data=[52, 100]),
   midi.NoteOnEvent(tick=4, channel=1, data=[60, 100]),
   midi.NoteOnEvent(tick=0, channel=1, data=[55, 100]),
   midi.NoteOffEvent(tick=384, channel=1, data=[60, 100]),
   midi.NoteOffEvent(tick=0, channel=1, data=[55, 100]),
   midi.PitchWheelEvent(tick=0, channel=1, data=[0, 32]),
   midi.NoteOnEvent(tick=0, channel=1, data=[58, 100]),
   midi.NoteOnEvent(tick=0, channel=1, data=[63, 100]),
   midi.PitchWheelEvent(tick=24, channel=1, data=[0, 40]),
   midi.PitchWheelEvent(tick=16, channel=1, data=[0, 48]),
   midi.PitchWheelEvent(tick=16, channel=1, data=[0, 56]),
   midi.PitchWheelEvent(tick=16, channel=1, data=[0, 64]),
   midi.NoteOffEvent(tick=120, channel=1, data=[58, 100]),
   midi.NoteOffEvent(tick=0, channel=1, data=[63, 100]),
   midi.NoteOnEvent(tick=0, channel=1, data=[62, 100]),
   midi.NoteOnEvent(tick=0, channel=1, data=[57, 100]),
   midi.NoteOffEvent(tick=192, channel=1, data=[62, 100]),
   midi.NoteOffEvent(tick=0, channel=1, data=[57, 100]),
   midi.NoteOnEvent(tick=0, channel=1, data=[60, 100]),
   midi.NoteOnEvent(tick=0, channel=1, data=[55, 100]),
   midi.NoteOffEvent(tick=192, channel=1, data=[60, 100]),
   midi.NoteOffEvent(tick=0, channel=1, data=[55, 100]),
   midi.NoteOnEvent(tick=0, channel=1, data=[57, 100]),
   midi.NoteOffEvent(tick=192, channel=1, data=[57, 100]),
   midi.NoteOnEvent(tick=0, channel=1, data=[53, 100]),
   midi.NoteOffEvent(tick=188, channel=1, data=[53, 100]),
   midi.NoteOnEvent(tick=4, channel=1, data=[41, 100]),
   midi.NoteOffEvent(tick=380, channel=1, data=[41, 100]),
   midi.NoteOnEvent(tick=4, channel=1, data=[53, 100]),
   midi.NoteOffEvent(tick=188, channel=1, data=[53, 100]),
   midi.NoteOnEvent(tick=4, channel=1, data=[40, 100]),
   midi.NoteOffEvent(tick=380, channel=1, data=[40, 100]),
   midi.NoteOnEvent(tick=4, channel=1, data=[53, 100]),
   midi.NoteOffEvent(tick=188, channel=1, data=[53, 100]),
   midi.NoteOnEvent(tick=4, channel=1, data=[50, 100]),
   midi.NoteOffEvent(tick=380, channel=1, data=[50, 100]),
   midi.NoteOnEvent(tick=4, channel=1, data=[57, 100]),
   midi.NoteOnEvent(tick=0, channel=1, data=[52, 100]),
   midi.NoteOffEvent(tick=188, channel=1, data=[57, 100]),
   midi.NoteOffEvent(tick=0, channel=1, data=[52, 100]),
   midi.NoteOnEvent(tick=4, channel=1, data=[60, 100]),
   midi.NoteOnEvent(tick=0, channel=1, data=[55, 100]),
   midi.NoteOffEvent(tick=384, channel=1, data=[60, 100]),
   midi.NoteOffEvent(tick=0, channel=1, data=[55, 100]),
   midi.PitchWheelEvent(tick=0, channel=1, data=[0, 32]),
   midi.NoteOnEvent(tick=0, channel=1, data=[58, 100]),
   midi.NoteOnEvent(tick=0, channel=1, data=[63, 100]),
   midi.PitchWheelEvent(tick=24, channel=1, data=[0, 40]),
   midi.PitchWheelEvent(tick=16, channel=1, data=[0, 48]),
   midi.PitchWheelEvent(tick=16, channel=1, data=[0, 56]),
   midi.PitchWheelEvent(tick=16, channel=1, data=[0, 64]),
   midi.NoteOffEvent(tick=120, channel=1, data=[58, 100]),
   midi.NoteOffEvent(tick=0, channel=1, data=[63, 100]),
   midi.NoteOnEvent(tick=0, channel=1, data=[62, 100]),
   midi.NoteOnEvent(tick=0, channel=1, data=[57, 100]),
   midi.NoteOffEvent(tick=192, channel=1, data=[62, 100]),
   midi.NoteOffEvent(tick=0, channel=1, data=[57, 100]),
   midi.NoteOnEvent(tick=0, channel=1, data=[60, 100]),
   midi.NoteOnEvent(tick=0, channel=1, data=[55, 100]),
   midi.NoteOffEvent(tick=192, channel=1, data=[60, 100]),
   midi.NoteOffEvent(tick=0, channel=1, data=[55, 100]),
   midi.NoteOnEvent(tick=0, channel=1, data=[57, 100]),
   midi.NoteOffEvent(tick=192, channel=1, data=[57, 100]),
   midi.NoteOnEvent(tick=0, channel=1, data=[57, 100]),
   midi.NoteOffEvent(tick=188, channel=1, data=[57, 100]),
   midi.NoteOnEvent(tick=4, channel=1, data=[45, 100]),
   midi.NoteOffEvent(tick=380, channel=1, data=[45, 100]),
   midi.NoteOnEvent(tick=4, channel=1, data=[57, 100]),
   midi.NoteOffEvent(tick=188, channel=1, data=[57, 100]),
   midi.NoteOnEvent(tick=4, channel=1, data=[44, 100]),
   midi.NoteOffEvent(tick=380, channel=1, data=[44, 100]),
   midi.NoteOnEvent(tick=4, channel=1, data=[57, 100]),
   midi.NoteOffEvent(tick=188, channel=1, data=[57, 100]),
   midi.NoteOnEvent(tick=4, channel=1, data=[43, 100]),
   midi.NoteOffEvent(tick=380, channel=1, data=[43, 100]),
   midi.NoteOnEvent(tick=4, channel=1, data=[57, 100]),
   midi.NoteOnEvent(tick=0, channel=1, data=[52, 100]),
   midi.NoteOffEvent(tick=188, channel=1, data=[57, 100]),
   midi.NoteOffEvent(tick=0, channel=1, data=[52, 100]),
   midi.NoteOnEvent(tick=4, channel=1, data=[60, 100]),
   midi.NoteOnEvent(tick=0, channel=1, data=[55, 100]),
   midi.NoteOffEvent(tick=384, channel=1, data=[60, 100]),
   midi.NoteOffEvent(tick=0, channel=1, data=[55, 100]),
   midi.PitchWheelEvent(tick=0, channel=1, data=[0, 32]),
   midi.NoteOnEvent(tick=0, channel=1, data=[58, 100]),
   midi.NoteOnEvent(tick=0, channel=1, data=[63, 100]),
   midi.PitchWheelEvent(tick=24, channel=1, data=[0, 40]),
   midi.PitchWheelEvent(tick=16, channel=1, data=[0, 48]),
   midi.PitchWheelEvent(tick=16, channel=1, data=[0, 56]),
   midi.PitchWheelEvent(tick=16, channel=1, data=[0, 64]),
   midi.NoteOffEvent(tick=120, channel=1, data=[58, 100]),
   midi.NoteOffEvent(tick=0, channel=1, data=[63, 100]),
   midi.NoteOnEvent(tick=0, channel=1, data=[62, 100]),
   midi.NoteOnEvent(tick=0, channel=1, data=[57, 100]),
   midi.NoteOffEvent(tick=192, channel=1, data=[62, 100]),
   midi.NoteOffEvent(tick=0, channel=1, data=[57, 100]),
   midi.NoteOnEvent(tick=0, channel=1, data=[60, 100]),
   midi.NoteOnEvent(tick=0, channel=1, data=[55, 100]),
   midi.NoteOffEvent(tick=192, channel=1, data=[60, 100]),
   midi.NoteOffEvent(tick=0, channel=1, data=[55, 100]),
   midi.NoteOnEvent(tick=0, channel=1, data=[57, 100]),
   midi.NoteOffEvent(tick=192, channel=1, data=[57, 100]),
   midi.NoteOnEvent(tick=0, channel=1, data=[53, 100]),
   midi.NoteOffEvent(tick=188, channel=1, data=[53, 100]),
   midi.NoteOnEvent(tick=4, channel=1, data=[41, 100]),
   midi.NoteOffEvent(tick=380, channel=1, data=[41, 100]),
   midi.NoteOnEvent(tick=4, channel=1, data=[53, 100]),
   midi.NoteOffEvent(tick=188, channel=1, data=[53, 100]),
   midi.NoteOnEvent(tick=4, channel=1, data=[40, 100]),
   midi.NoteOffEvent(tick=380, channel=1, data=[40, 100]),
   midi.NoteOnEvent(tick=4, channel=1, data=[53, 100]),
   midi.NoteOffEvent(tick=188, channel=1, data=[53, 100]),
   midi.NoteOnEvent(tick=4, channel=1, data=[50, 100]),
   midi.NoteOffEvent(tick=380, channel=1, data=[50, 100]),
   midi.NoteOnEvent(tick=4, channel=1, data=[57, 100]),
   midi.NoteOnEvent(tick=0, channel=1, data=[52, 100]),
   midi.NoteOffEvent(tick=188, channel=1, data=[57, 100]),
   midi.NoteOffEvent(tick=0, channel=1, data=[52, 100]),
   midi.NoteOnEvent(tick=4, channel=1, data=[60, 100]),
   midi.NoteOnEvent(tick=0, channel=1, data=[55, 100]),
   midi.NoteOffEvent(tick=384, channel=1, data=[60, 100]),
   midi.NoteOffEvent(tick=0, channel=1, data=[55, 100]),
   midi.PitchWheelEvent(tick=0, channel=1, data=[0, 32]),
   midi.NoteOnEvent(tick=0, channel=1, data=[58, 100]),
   midi.NoteOnEvent(tick=0, channel=1, data=[63, 100]),
   midi.PitchWheelEvent(tick=24, channel=1, data=[0, 40]),
   midi.PitchWheelEvent(tick=16, channel=1, data=[0, 48]),
   midi.PitchWheelEvent(tick=16, channel=1, data=[0, 56]),
   midi.PitchWheelEvent(tick=16, channel=1, data=[0, 64]),
   midi.NoteOffEvent(tick=120, channel=1, data=[58, 100]),
   midi.NoteOffEvent(tick=0, channel=1, data=[63, 100]),
   midi.NoteOnEvent(tick=0, channel=1, data=[62, 100]),
   midi.NoteOnEvent(tick=0, channel=1, data=[57, 100]),
   midi.NoteOffEvent(tick=192, channel=1, data=[62, 100]),
   midi.NoteOffEvent(tick=0, channel=1, data=[57, 100]),
   midi.NoteOnEvent(tick=0, channel=1, data=[60, 100]),
   midi.NoteOnEvent(tick=0, channel=1, data=[55, 100]),
   midi.NoteOffEvent(tick=192, channel=1, data=[60, 100]),
   midi.NoteOffEvent(tick=0, channel=1, data=[55, 100]),
   midi.NoteOnEvent(tick=0, channel=1, data=[57, 100]),
   midi.NoteOffEvent(tick=192, channel=1, data=[57, 100]),
   midi.NoteOnEvent(tick=0, channel=1, data=[57, 100]),
   midi.NoteOffEvent(tick=188, channel=1, data=[57, 100]),
   midi.NoteOnEvent(tick=4, channel=1, data=[45, 100]),
   midi.NoteOffEvent(tick=380, channel=1, data=[45, 100]),
   midi.NoteOnEvent(tick=4, channel=1, data=[57, 100]),
   midi.NoteOffEvent(tick=188, channel=1, data=[57, 100]),
   midi.NoteOnEvent(tick=4, channel=1, data=[44, 100]),
   midi.NoteOffEvent(tick=380, channel=1, data=[44, 100]),
   midi.NoteOnEvent(tick=4, channel=1, data=[57, 100]),
   midi.NoteOffEvent(tick=188, channel=1, data=[57, 100]),
   midi.NoteOnEvent(tick=4, channel=1, data=[43, 100]),
   midi.NoteOffEvent(tick=380, channel=1, data=[43, 100]),
   midi.NoteOnEvent(tick=4, channel=1, data=[57, 100]),
   midi.NoteOnEvent(tick=0, channel=1, data=[52, 100]),
   midi.NoteOffEvent(tick=188, channel=1, data=[57, 100]),
   midi.NoteOffEvent(tick=0, channel=1, data=[52, 100]),
   midi.NoteOnEvent(tick=4, channel=1, data=[60, 100]),
   midi.NoteOnEvent(tick=0, channel=1, data=[55, 100]),
   midi.NoteOffEvent(tick=384, channel=1, data=[60, 100]),
   midi.NoteOffEvent(tick=0, channel=1, data=[55, 100]),
   midi.PitchWheelEvent(tick=0, channel=1, data=[0, 32]),
   midi.NoteOnEvent(tick=0, channel=1, data=[58, 100]),
   midi.NoteOnEvent(tick=0, channel=1, data=[63, 100]),
   midi.PitchWheelEvent(tick=24, channel=1, data=[0, 40]),
   midi.PitchWheelEvent(tick=16, channel=1, data=[0, 48]),
   midi.PitchWheelEvent(tick=16, channel=1, data=[0, 56]),
   midi.PitchWheelEvent(tick=16, channel=1, data=[0, 64]),
   midi.NoteOffEvent(tick=120, channel=1, data=[58, 100]),
   midi.NoteOffEvent(tick=0, channel=1, data=[63, 100]),
   midi.NoteOnEvent(tick=0, channel=1, data=[62, 100]),
   midi.NoteOnEvent(tick=0, channel=1, data=[57, 100]),
   midi.NoteOffEvent(tick=192, channel=1, data=[62, 100]),
   midi.NoteOffEvent(tick=0, channel=1, data=[57, 100]),
   midi.NoteOnEvent(tick=0, channel=1, data=[60, 100]),
   midi.NoteOnEvent(tick=0, channel=1, data=[55, 100]),
   midi.NoteOffEvent(tick=192, channel=1, data=[60, 100]),
   midi.NoteOffEvent(tick=0, channel=1, data=[55, 100]),
   midi.NoteOnEvent(tick=0, channel=1, data=[57, 100]),
   midi.NoteOffEvent(tick=192, channel=1, data=[57, 100]),
   midi.NoteOnEvent(tick=0, channel=1, data=[53, 100]),
   midi.NoteOffEvent(tick=188, channel=1, data=[53, 100]),
   midi.NoteOnEvent(tick=4, channel=1, data=[41, 100]),
   midi.NoteOffEvent(tick=380, channel=1, data=[41, 100]),
   midi.NoteOnEvent(tick=4, channel=1, data=[53, 100]),
   midi.NoteOffEvent(tick=188, channel=1, data=[53, 100]),
   midi.NoteOnEvent(tick=4, channel=1, data=[40, 100]),
   midi.NoteOffEvent(tick=380, channel=1, data=[40, 100]),
   midi.NoteOnEvent(tick=4, channel=1, data=[53, 100]),
   midi.NoteOffEvent(tick=188, channel=1, data=[53, 100]),
   midi.NoteOnEvent(tick=4, channel=1, data=[50, 100]),
   midi.PitchWheelEvent(tick=288, channel=1, data=[0, 66]),
   midi.PitchWheelEvent(tick=96, channel=1, data=[0, 68]),
   midi.PitchWheelEvent(tick=96, channel=1, data=[0, 70]),
   midi.PitchWheelEvent(tick=96, channel=1, data=[0, 72]),
   midi.PitchWheelEvent(tick=96, channel=1, data=[0, 74]),
   midi.PitchWheelEvent(tick=96, channel=1, data=[0, 76]),
   midi.PitchWheelEvent(tick=96, channel=1, data=[0, 78]),
   midi.PitchWheelEvent(tick=96, channel=1, data=[0, 80]),
   midi.PitchWheelEvent(tick=96, channel=1, data=[0, 82]),
   midi.PitchWheelEvent(tick=96, channel=1, data=[0, 84]),
   midi.PitchWheelEvent(tick=96, channel=1, data=[0, 86]),
   midi.PitchWheelEvent(tick=96, channel=1, data=[0, 88]),
   midi.PitchWheelEvent(tick=96, channel=1, data=[0, 90]),
   midi.PitchWheelEvent(tick=96, channel=1, data=[0, 92]),
   midi.PitchWheelEvent(tick=96, channel=1, data=[0, 94]),
   midi.PitchWheelEvent(tick=96, channel=1, data=[0, 96]),
   midi.NoteOffEvent(tick=1532, channel=1, data=[50, 100]),
   midi.PitchWheelEvent(tick=4, channel=1, data=[0, 64]),
   midi.NoteOnEvent(tick=0, channel=1, data=[57, 100]),
   midi.NoteOnEvent(tick=0, channel=1, data=[45, 100]),
   midi.NoteOffEvent(tick=192, channel=1, data=[57, 100]),
   midi.NoteOffEvent(tick=0, channel=1, data=[45, 100]),
   midi.NoteOnEvent(tick=0, channel=1, data=[45, 100]),
   midi.NoteOffEvent(tick=76, channel=1, data=[45, 100]),
   midi.NoteOnEvent(tick=116, channel=1, data=[45, 100]),
   midi.NoteOffEvent(tick=76, channel=1, data=[45, 100]),
   midi.NoteOnEvent(tick=116, channel=1, data=[60, 100]),
   midi.NoteOnEvent(tick=0, channel=1, data=[55, 100]),
   midi.NoteOffEvent(tick=192, channel=1, data=[60, 100]),
   midi.NoteOffEvent(tick=0, channel=1, data=[55, 100]),
   midi.NoteOnEvent(tick=0, channel=1, data=[45, 100]),
   midi.NoteOffEvent(tick=76, channel=1, data=[45, 100]),
   midi.NoteOnEvent(tick=116, channel=1, data=[45, 100]),
   midi.NoteOffEvent(tick=76, channel=1, data=[45, 100]),
   midi.NoteOnEvent(tick=116, channel=1, data=[62, 100]),
   midi.NoteOnEvent(tick=0, channel=1, data=[57, 100]),
   midi.NoteOffEvent(tick=576, channel=1, data=[57, 64]),
   midi.NoteOffEvent(tick=0, channel=1, data=[62, 64]),
   midi.NoteOnEvent(tick=0, channel=1, data=[57, 100]),
   midi.NoteOnEvent(tick=0, channel=1, data=[52, 100]),
   midi.NoteOffEvent(tick=192, channel=1, data=[57, 100]),
   midi.NoteOffEvent(tick=0, channel=1, data=[52, 100]),
   midi.NoteOnEvent(tick=0, channel=1, data=[60, 100]),
   midi.NoteOnEvent(tick=0, channel=1, data=[55, 100]),
   midi.NoteOffEvent(tick=384, channel=1, data=[60, 100]),
   midi.NoteOffEvent(tick=0, channel=1, data=[55, 100]),
   midi.PitchWheelEvent(tick=0, channel=1, data=[0, 32]),
   midi.NoteOnEvent(tick=0, channel=1, data=[58, 100]),
   midi.NoteOnEvent(tick=0, channel=1, data=[63, 100]),
   midi.PitchWheelEvent(tick=24, channel=1, data=[0, 40]),
   midi.PitchWheelEvent(tick=16, channel=1, data=[0, 48]),
   midi.PitchWheelEvent(tick=16, channel=1, data=[0, 56]),
   midi.PitchWheelEvent(tick=16, channel=1, data=[0, 64]),
   midi.NoteOffEvent(tick=120, channel=1, data=[58, 100]),
   midi.NoteOffEvent(tick=0, channel=1, data=[63, 100]),
   midi.NoteOnEvent(tick=0, channel=1, data=[62, 100]),
   midi.NoteOnEvent(tick=0, channel=1, data=[57, 100]),
   midi.NoteOffEvent(tick=192, channel=1, data=[62, 100]),
   midi.NoteOffEvent(tick=0, channel=1, data=[57, 100]),
   midi.NoteOnEvent(tick=0, channel=1, data=[60, 100]),
   midi.NoteOnEvent(tick=0, channel=1, data=[55, 100]),
   midi.NoteOffEvent(tick=192, channel=1, data=[60, 100]),
   midi.NoteOffEvent(tick=0, channel=1, data=[55, 100]),
   midi.NoteOnEvent(tick=0, channel=1, data=[57, 100]),
   midi.NoteOffEvent(tick=192, channel=1, data=[57, 100]),
   midi.NoteOnEvent(tick=0, channel=1, data=[57, 100]),
   midi.NoteOnEvent(tick=0, channel=1, data=[45, 100]),
   midi.NoteOffEvent(tick=192, channel=1, data=[57, 100]),
   midi.NoteOffEvent(tick=0, channel=1, data=[45, 100]),
   midi.NoteOnEvent(tick=0, channel=1, data=[45, 100]),
   midi.NoteOffEvent(tick=76, channel=1, data=[45, 100]),
   midi.NoteOnEvent(tick=116, channel=1, data=[45, 100]),
   midi.NoteOffEvent(tick=76, channel=1, data=[45, 100]),
   midi.NoteOnEvent(tick=116, channel=1, data=[60, 100]),
   midi.NoteOnEvent(tick=0, channel=1, data=[55, 100]),
   midi.NoteOffEvent(tick=192, channel=1, data=[60, 100]),
   midi.NoteOffEvent(tick=0, channel=1, data=[55, 100]),
   midi.NoteOnEvent(tick=192, channel=1, data=[43, 100]),
   midi.NoteOffEvent(tick=76, channel=1, data=[43, 100]),
   midi.NoteOnEvent(tick=116, channel=1, data=[57, 100]),
   midi.NoteOnEvent(tick=0, channel=1, data=[52, 100]),
   midi.NoteOnEvent(tick=0, channel=1, data=[45, 100]),
   midi.NoteOffEvent(tick=576, channel=1, data=[45, 64]),
   midi.NoteOffEvent(tick=0, channel=1, data=[52, 64]),
   midi.NoteOffEvent(tick=0, channel=1, data=[57, 64]),
   midi.NoteOnEvent(tick=0, channel=1, data=[57, 100]),
   midi.NoteOnEvent(tick=0, channel=1, data=[52, 100]),
   midi.NoteOffEvent(tick=192, channel=1, data=[57, 100]),
   midi.NoteOffEvent(tick=0, channel=1, data=[52, 100]),
   midi.NoteOnEvent(tick=0, channel=1, data=[60, 100]),
   midi.NoteOnEvent(tick=0, channel=1, data=[55, 100]),
   midi.NoteOffEvent(tick=384, channel=1, data=[60, 100]),
   midi.NoteOffEvent(tick=0, channel=1, data=[55, 100]),
   midi.PitchWheelEvent(tick=0, channel=1, data=[0, 32]),
   midi.NoteOnEvent(tick=0, channel=1, data=[58, 100]),
   midi.NoteOnEvent(tick=0, channel=1, data=[63, 100]),
   midi.PitchWheelEvent(tick=24, channel=1, data=[0, 40]),
   midi.PitchWheelEvent(tick=16, channel=1, data=[0, 48]),
   midi.PitchWheelEvent(tick=16, channel=1, data=[0, 56]),
   midi.PitchWheelEvent(tick=16, channel=1, data=[0, 64]),
   midi.NoteOffEvent(tick=120, channel=1, data=[58, 100]),
   midi.NoteOffEvent(tick=0, channel=1, data=[63, 100]),
   midi.NoteOnEvent(tick=0, channel=1, data=[62, 100]),
   midi.NoteOnEvent(tick=0, channel=1, data=[57, 100]),
   midi.NoteOffEvent(tick=192, channel=1, data=[62, 100]),
   midi.NoteOffEvent(tick=0, channel=1, data=[57, 100]),
   midi.NoteOnEvent(tick=0, channel=1, data=[60, 100]),
   midi.NoteOnEvent(tick=0, channel=1, data=[55, 100]),
   midi.NoteOffEvent(tick=192, channel=1, data=[60, 100]),
   midi.NoteOffEvent(tick=0, channel=1, data=[55, 100]),
   midi.NoteOnEvent(tick=0, channel=1, data=[57, 100]),
   midi.NoteOffEvent(tick=192, channel=1, data=[57, 100]),
   midi.NoteOnEvent(tick=0, channel=1, data=[57, 100]),
   midi.NoteOnEvent(tick=0, channel=1, data=[45, 100]),
   midi.NoteOffEvent(tick=192, channel=1, data=[57, 100]),
   midi.NoteOffEvent(tick=0, channel=1, data=[45, 100]),
   midi.NoteOnEvent(tick=0, channel=1, data=[45, 100]),
   midi.NoteOffEvent(tick=76, channel=1, data=[45, 100]),
   midi.NoteOnEvent(tick=116, channel=1, data=[45, 100]),
   midi.NoteOffEvent(tick=76, channel=1, data=[45, 100]),
   midi.NoteOnEvent(tick=116, channel=1, data=[60, 100]),
   midi.NoteOnEvent(tick=0, channel=1, data=[55, 100]),
   midi.NoteOffEvent(tick=192, channel=1, data=[60, 100]),
   midi.NoteOffEvent(tick=0, channel=1, data=[55, 100]),
   midi.NoteOnEvent(tick=0, channel=1, data=[45, 100]),
   midi.NoteOffEvent(tick=76, channel=1, data=[45, 100]),
   midi.NoteOnEvent(tick=116, channel=1, data=[45, 100]),
   midi.NoteOffEvent(tick=76, channel=1, data=[45, 100]),
   midi.NoteOnEvent(tick=116, channel=1, data=[62, 100]),
   midi.NoteOnEvent(tick=0, channel=1, data=[57, 100]),
   midi.NoteOffEvent(tick=576, channel=1, data=[57, 64]),
   midi.NoteOffEvent(tick=0, channel=1, data=[62, 64]),
   midi.NoteOnEvent(tick=0, channel=1, data=[57, 100]),
   midi.NoteOnEvent(tick=0, channel=1, data=[52, 100]),
   midi.NoteOffEvent(tick=192, channel=1, data=[57, 100]),
   midi.NoteOffEvent(tick=0, channel=1, data=[52, 100]),
   midi.NoteOnEvent(tick=0, channel=1, data=[60, 100]),
   midi.NoteOnEvent(tick=0, channel=1, data=[55, 100]),
   midi.NoteOffEvent(tick=384, channel=1, data=[60, 100]),
   midi.NoteOffEvent(tick=0, channel=1, data=[55, 100]),
   midi.PitchWheelEvent(tick=0, channel=1, data=[0, 32]),
   midi.NoteOnEvent(tick=0, channel=1, data=[58, 100]),
   midi.NoteOnEvent(tick=0, channel=1, data=[63, 100]),
   midi.PitchWheelEvent(tick=24, channel=1, data=[0, 40]),
   midi.PitchWheelEvent(tick=16, channel=1, data=[0, 48]),
   midi.PitchWheelEvent(tick=16, channel=1, data=[0, 56]),
   midi.PitchWheelEvent(tick=16, channel=1, data=[0, 64]),
   midi.NoteOffEvent(tick=120, channel=1, data=[58, 100]),
   midi.NoteOffEvent(tick=0, channel=1, data=[63, 100]),
   midi.NoteOnEvent(tick=0, channel=1, data=[62, 100]),
   midi.NoteOnEvent(tick=0, channel=1, data=[57, 100]),
   midi.NoteOffEvent(tick=192, channel=1, data=[62, 100]),
   midi.NoteOffEvent(tick=0, channel=1, data=[57, 100]),
   midi.NoteOnEvent(tick=0, channel=1, data=[60, 100]),
   midi.NoteOnEvent(tick=0, channel=1, data=[55, 100]),
   midi.NoteOffEvent(tick=192, channel=1, data=[60, 100]),
   midi.NoteOffEvent(tick=0, channel=1, data=[55, 100]),
   midi.NoteOnEvent(tick=0, channel=1, data=[57, 100]),
   midi.NoteOffEvent(tick=192, channel=1, data=[57, 100]),
   midi.NoteOnEvent(tick=0, channel=1, data=[57, 100]),
   midi.NoteOnEvent(tick=0, channel=1, data=[45, 100]),
   midi.NoteOffEvent(tick=192, channel=1, data=[57, 100]),
   midi.NoteOffEvent(tick=0, channel=1, data=[45, 100]),
   midi.NoteOnEvent(tick=0, channel=1, data=[45, 100]),
   midi.NoteOffEvent(tick=76, channel=1, data=[45, 100]),
   midi.NoteOnEvent(tick=116, channel=1, data=[45, 100]),
   midi.NoteOffEvent(tick=76, channel=1, data=[45, 100]),
   midi.NoteOnEvent(tick=116, channel=1, data=[60, 100]),
   midi.NoteOnEvent(tick=0, channel=1, data=[55, 100]),
   midi.NoteOffEvent(tick=192, channel=1, data=[60, 100]),
   midi.NoteOffEvent(tick=0, channel=1, data=[55, 100]),
   midi.NoteOnEvent(tick=192, channel=1, data=[43, 100]),
   midi.NoteOffEvent(tick=76, channel=1, data=[43, 100]),
   midi.NoteOnEvent(tick=116, channel=1, data=[57, 100]),
   midi.NoteOnEvent(tick=0, channel=1, data=[52, 100]),
   midi.NoteOnEvent(tick=0, channel=1, data=[45, 100]),
   midi.NoteOffEvent(tick=576, channel=1, data=[45, 64]),
   midi.NoteOffEvent(tick=0, channel=1, data=[52, 64]),
   midi.NoteOffEvent(tick=0, channel=1, data=[57, 64]),
   midi.NoteOnEvent(tick=0, channel=1, data=[57, 100]),
   midi.NoteOnEvent(tick=0, channel=1, data=[52, 100]),
   midi.NoteOffEvent(tick=192, channel=1, data=[57, 100]),
   midi.NoteOffEvent(tick=0, channel=1, data=[52, 100]),
   midi.NoteOnEvent(tick=0, channel=1, data=[60, 100]),
   midi.NoteOnEvent(tick=0, channel=1, data=[55, 100]),
   midi.NoteOffEvent(tick=384, channel=1, data=[60, 100]),
   midi.NoteOffEvent(tick=0, channel=1, data=[55, 100]),
   midi.PitchWheelEvent(tick=0, channel=1, data=[0, 32]),
   midi.NoteOnEvent(tick=0, channel=1, data=[58, 100]),
   midi.NoteOnEvent(tick=0, channel=1, data=[63, 100]),
   midi.PitchWheelEvent(tick=24, channel=1, data=[0, 40]),
   midi.PitchWheelEvent(tick=16, channel=1, data=[0, 48]),
   midi.PitchWheelEvent(tick=16, channel=1, data=[0, 56]),
   midi.PitchWheelEvent(tick=16, channel=1, data=[0, 64]),
   midi.NoteOffEvent(tick=120, channel=1, data=[58, 100]),
   midi.NoteOffEvent(tick=0, channel=1, data=[63, 100]),
   midi.NoteOnEvent(tick=0, channel=1, data=[62, 100]),
   midi.NoteOnEvent(tick=0, channel=1, data=[57, 100]),
   midi.NoteOffEvent(tick=192, channel=1, data=[62, 100]),
   midi.NoteOffEvent(tick=0, channel=1, data=[57, 100]),
   midi.NoteOnEvent(tick=0, channel=1, data=[60, 100]),
   midi.NoteOnEvent(tick=0, channel=1, data=[55, 100]),
   midi.NoteOffEvent(tick=192, channel=1, data=[60, 100]),
   midi.NoteOffEvent(tick=0, channel=1, data=[55, 100]),
   midi.NoteOnEvent(tick=0, channel=1, data=[57, 100]),
   midi.NoteOffEvent(tick=192, channel=1, data=[57, 100]),
   midi.NoteOnEvent(tick=0, channel=1, data=[57, 100]),
   midi.NoteOnEvent(tick=0, channel=1, data=[45, 100]),
   midi.NoteOffEvent(tick=192, channel=1, data=[57, 100]),
   midi.NoteOffEvent(tick=0, channel=1, data=[45, 100]),
   midi.NoteOnEvent(tick=0, channel=1, data=[45, 100]),
   midi.NoteOffEvent(tick=76, channel=1, data=[45, 100]),
   midi.NoteOnEvent(tick=116, channel=1, data=[45, 100]),
   midi.NoteOffEvent(tick=76, channel=1, data=[45, 100]),
   midi.NoteOnEvent(tick=116, channel=1, data=[60, 100]),
   midi.NoteOnEvent(tick=0, channel=1, data=[55, 100]),
   midi.NoteOffEvent(tick=192, channel=1, data=[60, 100]),
   midi.NoteOffEvent(tick=0, channel=1, data=[55, 100]),
   midi.NoteOnEvent(tick=0, channel=1, data=[45, 100]),
   midi.NoteOffEvent(tick=76, channel=1, data=[45, 100]),
   midi.NoteOnEvent(tick=116, channel=1, data=[45, 100]),
   midi.NoteOffEvent(tick=76, channel=1, data=[45, 100]),
   midi.NoteOnEvent(tick=116, channel=1, data=[62, 100]),
   midi.NoteOnEvent(tick=0, channel=1, data=[57, 100]),
   midi.NoteOffEvent(tick=576, channel=1, data=[57, 64]),
   midi.NoteOffEvent(tick=0, channel=1, data=[62, 64]),
   midi.NoteOnEvent(tick=0, channel=1, data=[57, 100]),
   midi.NoteOnEvent(tick=0, channel=1, data=[52, 100]),
   midi.NoteOffEvent(tick=192, channel=1, data=[57, 100]),
   midi.NoteOffEvent(tick=0, channel=1, data=[52, 100]),
   midi.NoteOnEvent(tick=0, channel=1, data=[60, 100]),
   midi.NoteOnEvent(tick=0, channel=1, data=[55, 100]),
   midi.NoteOffEvent(tick=384, channel=1, data=[60, 100]),
   midi.NoteOffEvent(tick=0, channel=1, data=[55, 100]),
   midi.PitchWheelEvent(tick=0, channel=1, data=[0, 32]),
   midi.NoteOnEvent(tick=0, channel=1, data=[58, 100]),
   midi.NoteOnEvent(tick=0, channel=1, data=[63, 100]),
   midi.PitchWheelEvent(tick=24, channel=1, data=[0, 40]),
   midi.PitchWheelEvent(tick=16, channel=1, data=[0, 48]),
   midi.PitchWheelEvent(tick=16, channel=1, data=[0, 56]),
   midi.PitchWheelEvent(tick=16, channel=1, data=[0, 64]),
   midi.NoteOffEvent(tick=120, channel=1, data=[58, 100]),
   midi.NoteOffEvent(tick=0, channel=1, data=[63, 100]),
   midi.NoteOnEvent(tick=0, channel=1, data=[62, 100]),
   midi.NoteOnEvent(tick=0, channel=1, data=[57, 100]),
   midi.NoteOffEvent(tick=192, channel=1, data=[62, 100]),
   midi.NoteOffEvent(tick=0, channel=1, data=[57, 100]),
   midi.NoteOnEvent(tick=0, channel=1, data=[60, 100]),
   midi.NoteOnEvent(tick=0, channel=1, data=[55, 100]),
   midi.NoteOffEvent(tick=192, channel=1, data=[60, 100]),
   midi.NoteOffEvent(tick=0, channel=1, data=[55, 100]),
   midi.NoteOnEvent(tick=0, channel=1, data=[57, 100]),
   midi.NoteOffEvent(tick=192, channel=1, data=[57, 100]),
   midi.NoteOnEvent(tick=0, channel=1, data=[57, 100]),
   midi.NoteOnEvent(tick=0, channel=1, data=[45, 100]),
   midi.NoteOffEvent(tick=192, channel=1, data=[57, 100]),
   midi.NoteOffEvent(tick=0, channel=1, data=[45, 100]),
   midi.NoteOnEvent(tick=0, channel=1, data=[45, 100]),
   midi.NoteOffEvent(tick=76, channel=1, data=[45, 100]),
   midi.NoteOnEvent(tick=116, channel=1, data=[45, 100]),
   midi.NoteOffEvent(tick=76, channel=1, data=[45, 100]),
   midi.NoteOnEvent(tick=116, channel=1, data=[60, 100]),
   midi.NoteOnEvent(tick=0, channel=1, data=[55, 100]),
   midi.NoteOffEvent(tick=192, channel=1, data=[60, 100]),
   midi.NoteOffEvent(tick=0, channel=1, data=[55, 100]),
   midi.NoteOnEvent(tick=192, channel=1, data=[43, 100]),
   midi.NoteOffEvent(tick=76, channel=1, data=[43, 100]),
   midi.NoteOnEvent(tick=116, channel=1, data=[57, 100]),
   midi.NoteOnEvent(tick=0, channel=1, data=[52, 100]),
   midi.NoteOnEvent(tick=0, channel=1, data=[45, 100]),
   midi.NoteOffEvent(tick=576, channel=1, data=[45, 64]),
   midi.NoteOffEvent(tick=0, channel=1, data=[52, 64]),
   midi.NoteOffEvent(tick=0, channel=1, data=[57, 64]),
   midi.NoteOnEvent(tick=0, channel=1, data=[57, 100]),
   midi.NoteOnEvent(tick=0, channel=1, data=[52, 100]),
   midi.NoteOffEvent(tick=192, channel=1, data=[57, 100]),
   midi.NoteOffEvent(tick=0, channel=1, data=[52, 100]),
   midi.NoteOnEvent(tick=0, channel=1, data=[60, 100]),
   midi.NoteOnEvent(tick=0, channel=1, data=[55, 100]),
   midi.NoteOffEvent(tick=384, channel=1, data=[60, 100]),
   midi.NoteOffEvent(tick=0, channel=1, data=[55, 100]),
   midi.PitchWheelEvent(tick=0, channel=1, data=[0, 32]),
   midi.NoteOnEvent(tick=0, channel=1, data=[58, 100]),
   midi.NoteOnEvent(tick=0, channel=1, data=[63, 100]),
   midi.PitchWheelEvent(tick=24, channel=1, data=[0, 40]),
   midi.PitchWheelEvent(tick=16, channel=1, data=[0, 48]),
   midi.PitchWheelEvent(tick=16, channel=1, data=[0, 56]),
   midi.PitchWheelEvent(tick=16, channel=1, data=[0, 64]),
   midi.NoteOffEvent(tick=120, channel=1, data=[58, 100]),
   midi.NoteOffEvent(tick=0, channel=1, data=[63, 100]),
   midi.NoteOnEvent(tick=0, channel=1, data=[62, 100]),
   midi.NoteOnEvent(tick=0, channel=1, data=[57, 100]),
   midi.NoteOffEvent(tick=192, channel=1, data=[62, 100]),
   midi.NoteOffEvent(tick=0, channel=1, data=[57, 100]),
   midi.NoteOnEvent(tick=0, channel=1, data=[60, 100]),
   midi.NoteOnEvent(tick=0, channel=1, data=[55, 100]),
   midi.NoteOffEvent(tick=192, channel=1, data=[60, 100]),
   midi.NoteOffEvent(tick=0, channel=1, data=[55, 100]),
   midi.NoteOnEvent(tick=0, channel=1, data=[57, 100]),
   midi.NoteOffEvent(tick=192, channel=1, data=[57, 100]),
   midi.NoteOnEvent(tick=0, channel=1, data=[57, 100]),
   midi.NoteOnEvent(tick=0, channel=1, data=[45, 100]),
   midi.NoteOffEvent(tick=192, channel=1, data=[57, 100]),
   midi.NoteOffEvent(tick=0, channel=1, data=[45, 100]),
   midi.NoteOnEvent(tick=0, channel=1, data=[45, 100]),
   midi.NoteOffEvent(tick=76, channel=1, data=[45, 100]),
   midi.NoteOnEvent(tick=116, channel=1, data=[45, 100]),
   midi.NoteOffEvent(tick=76, channel=1, data=[45, 100]),
   midi.NoteOnEvent(tick=116, channel=1, data=[60, 100]),
   midi.NoteOnEvent(tick=0, channel=1, data=[55, 100]),
   midi.NoteOffEvent(tick=192, channel=1, data=[60, 100]),
   midi.NoteOffEvent(tick=0, channel=1, data=[55, 100]),
   midi.NoteOnEvent(tick=0, channel=1, data=[45, 100]),
   midi.NoteOffEvent(tick=76, channel=1, data=[45, 100]),
   midi.NoteOnEvent(tick=116, channel=1, data=[45, 100]),
   midi.NoteOffEvent(tick=76, channel=1, data=[45, 100]),
   midi.NoteOnEvent(tick=116, channel=1, data=[62, 100]),
   midi.NoteOnEvent(tick=0, channel=1, data=[57, 100]),
   midi.NoteOffEvent(tick=576, channel=1, data=[57, 64]),
   midi.NoteOffEvent(tick=0, channel=1, data=[62, 64]),
   midi.NoteOnEvent(tick=0, channel=1, data=[57, 100]),
   midi.NoteOnEvent(tick=0, channel=1, data=[52, 100]),
   midi.NoteOffEvent(tick=192, channel=1, data=[57, 100]),
   midi.NoteOffEvent(tick=0, channel=1, data=[52, 100]),
   midi.NoteOnEvent(tick=0, channel=1, data=[60, 100]),
   midi.NoteOnEvent(tick=0, channel=1, data=[55, 100]),
   midi.NoteOffEvent(tick=384, channel=1, data=[60, 100]),
   midi.NoteOffEvent(tick=0, channel=1, data=[55, 100]),
   midi.PitchWheelEvent(tick=0, channel=1, data=[0, 32]),
   midi.NoteOnEvent(tick=0, channel=1, data=[58, 100]),
   midi.NoteOnEvent(tick=0, channel=1, data=[63, 100]),
   midi.PitchWheelEvent(tick=24, channel=1, data=[0, 40]),
   midi.PitchWheelEvent(tick=16, channel=1, data=[0, 48]),
   midi.PitchWheelEvent(tick=16, channel=1, data=[0, 56]),
   midi.PitchWheelEvent(tick=16, channel=1, data=[0, 64]),
   midi.NoteOffEvent(tick=120, channel=1, data=[58, 100]),
   midi.NoteOffEvent(tick=0, channel=1, data=[63, 100]),
   midi.NoteOnEvent(tick=0, channel=1, data=[62, 100]),
   midi.NoteOnEvent(tick=0, channel=1, data=[57, 100]),
   midi.NoteOffEvent(tick=192, channel=1, data=[62, 100]),
   midi.NoteOffEvent(tick=0, channel=1, data=[57, 100]),
   midi.NoteOnEvent(tick=0, channel=1, data=[60, 100]),
   midi.NoteOnEvent(tick=0, channel=1, data=[55, 100]),
   midi.NoteOffEvent(tick=192, channel=1, data=[60, 100]),
   midi.NoteOffEvent(tick=0, channel=1, data=[55, 100]),
   midi.NoteOnEvent(tick=0, channel=1, data=[57, 100]),
   midi.NoteOffEvent(tick=192, channel=1, data=[57, 100]),
   midi.NoteOnEvent(tick=0, channel=1, data=[57, 100]),
   midi.NoteOnEvent(tick=0, channel=1, data=[45, 100]),
   midi.NoteOffEvent(tick=192, channel=1, data=[57, 100]),
   midi.NoteOffEvent(tick=0, channel=1, data=[45, 100]),
   midi.NoteOnEvent(tick=0, channel=1, data=[45, 100]),
   midi.NoteOffEvent(tick=76, channel=1, data=[45, 100]),
   midi.NoteOnEvent(tick=116, channel=1, data=[45, 100]),
   midi.NoteOffEvent(tick=76, channel=1, data=[45, 100]),
   midi.NoteOnEvent(tick=116, channel=1, data=[60, 100]),
   midi.NoteOnEvent(tick=0, channel=1, data=[55, 100]),
   midi.NoteOffEvent(tick=192, channel=1, data=[60, 100]),
   midi.NoteOffEvent(tick=0, channel=1, data=[55, 100]),
   midi.NoteOnEvent(tick=192, channel=1, data=[43, 100]),
   midi.NoteOffEvent(tick=76, channel=1, data=[43, 100]),
   midi.NoteOnEvent(tick=116, channel=1, data=[45, 100]),
   midi.NoteOnEvent(tick=0, channel=1, data=[52, 100]),
   midi.NoteOnEvent(tick=0, channel=1, data=[57, 100]),
   midi.NoteOffEvent(tick=1920, channel=1, data=[57, 64]),
   midi.NoteOffEvent(tick=0, channel=1, data=[52, 64]),
   midi.NoteOffEvent(tick=0, channel=1, data=[45, 64]),
   midi.NoteOnEvent(tick=0, channel=1, data=[57, 100]),
   midi.NoteOffEvent(tick=188, channel=1, data=[57, 100]),
   midi.NoteOnEvent(tick=4, channel=1, data=[45, 100]),
   midi.NoteOffEvent(tick=380, channel=1, data=[45, 100]),
   midi.NoteOnEvent(tick=4, channel=1, data=[57, 100]),
   midi.NoteOffEvent(tick=188, channel=1, data=[57, 100]),
   midi.NoteOnEvent(tick=4, channel=1, data=[44, 100]),
   midi.NoteOffEvent(tick=380, channel=1, data=[44, 100]),
   midi.NoteOnEvent(tick=4, channel=1, data=[57, 100]),
   midi.NoteOffEvent(tick=188, channel=1, data=[57, 100]),
   midi.NoteOnEvent(tick=4, channel=1, data=[43, 100]),
   midi.NoteOffEvent(tick=380, channel=1, data=[43, 100]),
   midi.NoteOnEvent(tick=4, channel=1, data=[57, 100]),
   midi.NoteOnEvent(tick=0, channel=1, data=[52, 100]),
   midi.NoteOffEvent(tick=188, channel=1, data=[57, 100]),
   midi.NoteOffEvent(tick=0, channel=1, data=[52, 100]),
   midi.NoteOnEvent(tick=4, channel=1, data=[60, 100]),
   midi.NoteOnEvent(tick=0, channel=1, data=[55, 100]),
   midi.NoteOffEvent(tick=384, channel=1, data=[60, 100]),
   midi.NoteOffEvent(tick=0, channel=1, data=[55, 100]),
   midi.PitchWheelEvent(tick=0, channel=1, data=[0, 32]),
   midi.NoteOnEvent(tick=0, channel=1, data=[58, 100]),
   midi.NoteOnEvent(tick=0, channel=1, data=[63, 100]),
   midi.PitchWheelEvent(tick=24, channel=1, data=[0, 40]),
   midi.PitchWheelEvent(tick=16, channel=1, data=[0, 48]),
   midi.PitchWheelEvent(tick=16, channel=1, data=[0, 56]),
   midi.PitchWheelEvent(tick=16, channel=1, data=[0, 64]),
   midi.NoteOffEvent(tick=120, channel=1, data=[58, 100]),
   midi.NoteOffEvent(tick=0, channel=1, data=[63, 100]),
   midi.NoteOnEvent(tick=0, channel=1, data=[62, 100]),
   midi.NoteOnEvent(tick=0, channel=1, data=[57, 100]),
   midi.NoteOffEvent(tick=192, channel=1, data=[62, 100]),
   midi.NoteOffEvent(tick=0, channel=1, data=[57, 100]),
   midi.NoteOnEvent(tick=0, channel=1, data=[60, 100]),
   midi.NoteOnEvent(tick=0, channel=1, data=[55, 100]),
   midi.NoteOffEvent(tick=192, channel=1, data=[60, 100]),
   midi.NoteOffEvent(tick=0, channel=1, data=[55, 100]),
   midi.NoteOnEvent(tick=0, channel=1, data=[57, 100]),
   midi.NoteOffEvent(tick=192, channel=1, data=[57, 100]),
   midi.NoteOnEvent(tick=0, channel=1, data=[53, 100]),
   midi.NoteOffEvent(tick=188, channel=1, data=[53, 100]),
   midi.NoteOnEvent(tick=4, channel=1, data=[41, 100]),
   midi.NoteOffEvent(tick=380, channel=1, data=[41, 100]),
   midi.NoteOnEvent(tick=4, channel=1, data=[53, 100]),
   midi.NoteOffEvent(tick=188, channel=1, data=[53, 100]),
   midi.NoteOnEvent(tick=4, channel=1, data=[40, 100]),
   midi.NoteOffEvent(tick=380, channel=1, data=[40, 100]),
   midi.NoteOnEvent(tick=4, channel=1, data=[53, 100]),
   midi.NoteOffEvent(tick=188, channel=1, data=[53, 100]),
   midi.NoteOnEvent(tick=4, channel=1, data=[50, 100]),
   midi.NoteOffEvent(tick=380, channel=1, data=[50, 100]),
   midi.NoteOnEvent(tick=4, channel=1, data=[57, 100]),
   midi.NoteOnEvent(tick=0, channel=1, data=[52, 100]),
   midi.NoteOffEvent(tick=188, channel=1, data=[57, 100]),
   midi.NoteOffEvent(tick=0, channel=1, data=[52, 100]),
   midi.NoteOnEvent(tick=4, channel=1, data=[60, 100]),
   midi.NoteOnEvent(tick=0, channel=1, data=[55, 100]),
   midi.NoteOffEvent(tick=384, channel=1, data=[60, 100]),
   midi.NoteOffEvent(tick=0, channel=1, data=[55, 100]),
   midi.PitchWheelEvent(tick=0, channel=1, data=[0, 32]),
   midi.NoteOnEvent(tick=0, channel=1, data=[58, 100]),
   midi.NoteOnEvent(tick=0, channel=1, data=[63, 100]),
   midi.PitchWheelEvent(tick=24, channel=1, data=[0, 40]),
   midi.PitchWheelEvent(tick=16, channel=1, data=[0, 48]),
   midi.PitchWheelEvent(tick=16, channel=1, data=[0, 56]),
   midi.PitchWheelEvent(tick=16, channel=1, data=[0, 64]),
   midi.NoteOffEvent(tick=120, channel=1, data=[58, 100]),
   midi.NoteOffEvent(tick=0, channel=1, data=[63, 100]),
   midi.NoteOnEvent(tick=0, channel=1, data=[62, 100]),
   midi.NoteOnEvent(tick=0, channel=1, data=[57, 100]),
   midi.NoteOffEvent(tick=192, channel=1, data=[62, 100]),
   midi.NoteOffEvent(tick=0, channel=1, data=[57, 100]),
   midi.NoteOnEvent(tick=0, channel=1, data=[60, 100]),
   midi.NoteOnEvent(tick=0, channel=1, data=[55, 100]),
   midi.NoteOffEvent(tick=192, channel=1, data=[60, 100]),
   midi.NoteOffEvent(tick=0, channel=1, data=[55, 100]),
   midi.NoteOnEvent(tick=0, channel=1, data=[57, 100]),
   midi.NoteOffEvent(tick=192, channel=1, data=[57, 100]),
   midi.NoteOnEvent(tick=0, channel=1, data=[57, 100]),
   midi.NoteOffEvent(tick=188, channel=1, data=[57, 100]),
   midi.NoteOnEvent(tick=4, channel=1, data=[45, 100]),
   midi.NoteOffEvent(tick=380, channel=1, data=[45, 100]),
   midi.NoteOnEvent(tick=4, channel=1, data=[57, 100]),
   midi.NoteOffEvent(tick=188, channel=1, data=[57, 100]),
   midi.NoteOnEvent(tick=4, channel=1, data=[44, 100]),
   midi.NoteOffEvent(tick=380, channel=1, data=[44, 100]),
   midi.NoteOnEvent(tick=4, channel=1, data=[57, 100]),
   midi.NoteOffEvent(tick=188, channel=1, data=[57, 100]),
   midi.NoteOnEvent(tick=4, channel=1, data=[43, 100]),
   midi.NoteOffEvent(tick=380, channel=1, data=[43, 100]),
   midi.NoteOnEvent(tick=4, channel=1, data=[57, 100]),
   midi.NoteOnEvent(tick=0, channel=1, data=[52, 100]),
   midi.NoteOffEvent(tick=188, channel=1, data=[57, 100]),
   midi.NoteOffEvent(tick=0, channel=1, data=[52, 100]),
   midi.NoteOnEvent(tick=4, channel=1, data=[60, 100]),
   midi.NoteOnEvent(tick=0, channel=1, data=[55, 100]),
   midi.NoteOffEvent(tick=384, channel=1, data=[60, 100]),
   midi.NoteOffEvent(tick=0, channel=1, data=[55, 100]),
   midi.PitchWheelEvent(tick=0, channel=1, data=[0, 32]),
   midi.NoteOnEvent(tick=0, channel=1, data=[58, 100]),
   midi.NoteOnEvent(tick=0, channel=1, data=[63, 100]),
   midi.PitchWheelEvent(tick=24, channel=1, data=[0, 40]),
   midi.PitchWheelEvent(tick=16, channel=1, data=[0, 48]),
   midi.PitchWheelEvent(tick=16, channel=1, data=[0, 56]),
   midi.PitchWheelEvent(tick=16, channel=1, data=[0, 64]),
   midi.NoteOffEvent(tick=120, channel=1, data=[58, 100]),
   midi.NoteOffEvent(tick=0, channel=1, data=[63, 100]),
   midi.NoteOnEvent(tick=0, channel=1, data=[62, 100]),
   midi.NoteOnEvent(tick=0, channel=1, data=[57, 100]),
   midi.NoteOffEvent(tick=192, channel=1, data=[62, 100]),
   midi.NoteOffEvent(tick=0, channel=1, data=[57, 100]),
   midi.NoteOnEvent(tick=0, channel=1, data=[60, 100]),
   midi.NoteOnEvent(tick=0, channel=1, data=[55, 100]),
   midi.NoteOffEvent(tick=192, channel=1, data=[60, 100]),
   midi.NoteOffEvent(tick=0, channel=1, data=[55, 100]),
   midi.NoteOnEvent(tick=0, channel=1, data=[57, 100]),
   midi.NoteOffEvent(tick=192, channel=1, data=[57, 100]),
   midi.NoteOnEvent(tick=0, channel=1, data=[53, 100]),
   midi.NoteOffEvent(tick=188, channel=1, data=[53, 100]),
   midi.NoteOnEvent(tick=4, channel=1, data=[41, 100]),
   midi.NoteOffEvent(tick=380, channel=1, data=[41, 100]),
   midi.NoteOnEvent(tick=4, channel=1, data=[53, 100]),
   midi.NoteOffEvent(tick=188, channel=1, data=[53, 100]),
   midi.NoteOnEvent(tick=4, channel=1, data=[40, 100]),
   midi.NoteOffEvent(tick=380, channel=1, data=[40, 100]),
   midi.NoteOnEvent(tick=4, channel=1, data=[53, 100]),
   midi.NoteOffEvent(tick=188, channel=1, data=[53, 100]),
   midi.NoteOnEvent(tick=4, channel=1, data=[50, 100]),
   midi.NoteOffEvent(tick=380, channel=1, data=[50, 100]),
   midi.NoteOnEvent(tick=4, channel=1, data=[57, 100]),
   midi.NoteOnEvent(tick=0, channel=1, data=[52, 100]),
   midi.NoteOffEvent(tick=188, channel=1, data=[57, 100]),
   midi.NoteOffEvent(tick=0, channel=1, data=[52, 100]),
   midi.NoteOnEvent(tick=4, channel=1, data=[60, 100]),
   midi.NoteOnEvent(tick=0, channel=1, data=[55, 100]),
   midi.NoteOffEvent(tick=384, channel=1, data=[60, 100]),
   midi.NoteOffEvent(tick=0, channel=1, data=[55, 100]),
   midi.PitchWheelEvent(tick=0, channel=1, data=[0, 32]),
   midi.NoteOnEvent(tick=0, channel=1, data=[58, 100]),
   midi.NoteOnEvent(tick=0, channel=1, data=[63, 100]),
   midi.PitchWheelEvent(tick=24, channel=1, data=[0, 40]),
   midi.PitchWheelEvent(tick=16, channel=1, data=[0, 48]),
   midi.PitchWheelEvent(tick=16, channel=1, data=[0, 56]),
   midi.PitchWheelEvent(tick=16, channel=1, data=[0, 64]),
   midi.NoteOffEvent(tick=120, channel=1, data=[58, 100]),
   midi.NoteOffEvent(tick=0, channel=1, data=[63, 100]),
   midi.NoteOnEvent(tick=0, channel=1, data=[62, 100]),
   midi.NoteOnEvent(tick=0, channel=1, data=[57, 100]),
   midi.NoteOffEvent(tick=192, channel=1, data=[62, 100]),
   midi.NoteOffEvent(tick=0, channel=1, data=[57, 100]),
   midi.NoteOnEvent(tick=0, channel=1, data=[60, 100]),
   midi.NoteOnEvent(tick=0, channel=1, data=[55, 100]),
   midi.NoteOffEvent(tick=192, channel=1, data=[60, 100]),
   midi.NoteOffEvent(tick=0, channel=1, data=[55, 100]),
   midi.NoteOnEvent(tick=0, channel=1, data=[57, 100]),
   midi.NoteOffEvent(tick=192, channel=1, data=[57, 100]),
   midi.NoteOnEvent(tick=0, channel=1, data=[57, 100]),
   midi.NoteOffEvent(tick=188, channel=1, data=[57, 100]),
   midi.NoteOnEvent(tick=4, channel=1, data=[45, 100]),
   midi.NoteOffEvent(tick=380, channel=1, data=[45, 100]),
   midi.NoteOnEvent(tick=4, channel=1, data=[57, 100]),
   midi.NoteOffEvent(tick=188, channel=1, data=[57, 100]),
   midi.NoteOnEvent(tick=4, channel=1, data=[44, 100]),
   midi.NoteOffEvent(tick=380, channel=1, data=[44, 100]),
   midi.NoteOnEvent(tick=4, channel=1, data=[57, 100]),
   midi.NoteOffEvent(tick=188, channel=1, data=[57, 100]),
   midi.NoteOnEvent(tick=4, channel=1, data=[43, 100]),
   midi.NoteOffEvent(tick=380, channel=1, data=[43, 100]),
   midi.NoteOnEvent(tick=4, channel=1, data=[57, 100]),
   midi.NoteOnEvent(tick=0, channel=1, data=[52, 100]),
   midi.NoteOffEvent(tick=188, channel=1, data=[57, 100]),
   midi.NoteOffEvent(tick=0, channel=1, data=[52, 100]),
   midi.NoteOnEvent(tick=4, channel=1, data=[60, 100]),
   midi.NoteOnEvent(tick=0, channel=1, data=[55, 100]),
   midi.NoteOffEvent(tick=384, channel=1, data=[60, 100]),
   midi.NoteOffEvent(tick=0, channel=1, data=[55, 100]),
   midi.PitchWheelEvent(tick=0, channel=1, data=[0, 32]),
   midi.NoteOnEvent(tick=0, channel=1, data=[58, 100]),
   midi.NoteOnEvent(tick=0, channel=1, data=[63, 100]),
   midi.PitchWheelEvent(tick=24, channel=1, data=[0, 40]),
   midi.PitchWheelEvent(tick=16, channel=1, data=[0, 48]),
   midi.PitchWheelEvent(tick=16, channel=1, data=[0, 56]),
   midi.PitchWheelEvent(tick=16, channel=1, data=[0, 64]),
   midi.NoteOffEvent(tick=120, channel=1, data=[58, 100]),
   midi.NoteOffEvent(tick=0, channel=1, data=[63, 100]),
   midi.NoteOnEvent(tick=0, channel=1, data=[62, 100]),
   midi.NoteOnEvent(tick=0, channel=1, data=[57, 100]),
   midi.NoteOffEvent(tick=192, channel=1, data=[62, 100]),
   midi.NoteOffEvent(tick=0, channel=1, data=[57, 100]),
   midi.NoteOnEvent(tick=0, channel=1, data=[60, 100]),
   midi.NoteOnEvent(tick=0, channel=1, data=[55, 100]),
   midi.NoteOffEvent(tick=192, channel=1, data=[60, 100]),
   midi.NoteOffEvent(tick=0, channel=1, data=[55, 100]),
   midi.NoteOnEvent(tick=0, channel=1, data=[57, 100]),
   midi.NoteOffEvent(tick=192, channel=1, data=[57, 100]),
   midi.NoteOnEvent(tick=0, channel=1, data=[53, 100]),
   midi.NoteOffEvent(tick=188, channel=1, data=[53, 100]),
   midi.NoteOnEvent(tick=4, channel=1, data=[41, 100]),
   midi.NoteOffEvent(tick=380, channel=1, data=[41, 100]),
   midi.NoteOnEvent(tick=4, channel=1, data=[53, 100]),
   midi.NoteOffEvent(tick=188, channel=1, data=[53, 100]),
   midi.NoteOnEvent(tick=4, channel=1, data=[40, 100]),
   midi.NoteOffEvent(tick=380, channel=1, data=[40, 100]),
   midi.NoteOnEvent(tick=4, channel=1, data=[53, 100]),
   midi.NoteOffEvent(tick=188, channel=1, data=[53, 100]),
   midi.NoteOnEvent(tick=4, channel=1, data=[50, 100]),
   midi.NoteOffEvent(tick=380, channel=1, data=[50, 100]),
   midi.NoteOnEvent(tick=4, channel=1, data=[57, 100]),
   midi.NoteOnEvent(tick=0, channel=1, data=[52, 100]),
   midi.NoteOffEvent(tick=188, channel=1, data=[57, 100]),
   midi.NoteOffEvent(tick=0, channel=1, data=[52, 100]),
   midi.NoteOnEvent(tick=4, channel=1, data=[60, 100]),
   midi.NoteOnEvent(tick=0, channel=1, data=[55, 100]),
   midi.NoteOffEvent(tick=384, channel=1, data=[60, 100]),
   midi.NoteOffEvent(tick=0, channel=1, data=[55, 100]),
   midi.PitchWheelEvent(tick=0, channel=1, data=[0, 32]),
   midi.NoteOnEvent(tick=0, channel=1, data=[58, 100]),
   midi.NoteOnEvent(tick=0, channel=1, data=[63, 100]),
   midi.PitchWheelEvent(tick=24, channel=1, data=[0, 40]),
   midi.PitchWheelEvent(tick=16, channel=1, data=[0, 48]),
   midi.PitchWheelEvent(tick=16, channel=1, data=[0, 56]),
   midi.PitchWheelEvent(tick=16, channel=1, data=[0, 64]),
   midi.NoteOffEvent(tick=120, channel=1, data=[58, 100]),
   midi.NoteOffEvent(tick=0, channel=1, data=[63, 100]),
   midi.NoteOnEvent(tick=0, channel=1, data=[62, 100]),
   midi.NoteOnEvent(tick=0, channel=1, data=[57, 100]),
   midi.NoteOffEvent(tick=192, channel=1, data=[62, 100]),
   midi.NoteOffEvent(tick=0, channel=1, data=[57, 100]),
   midi.NoteOnEvent(tick=0, channel=1, data=[60, 100]),
   midi.NoteOnEvent(tick=0, channel=1, data=[55, 100]),
   midi.NoteOffEvent(tick=192, channel=1, data=[60, 100]),
   midi.NoteOffEvent(tick=0, channel=1, data=[55, 100]),
   midi.NoteOnEvent(tick=0, channel=1, data=[57, 100]),
   midi.NoteOffEvent(tick=192, channel=1, data=[57, 100]),
   midi.NoteOnEvent(tick=0, channel=1, data=[57, 100]),
   midi.NoteOffEvent(tick=188, channel=1, data=[57, 100]),
   midi.NoteOnEvent(tick=4, channel=1, data=[45, 100]),
   midi.NoteOffEvent(tick=380, channel=1, data=[45, 100]),
   midi.NoteOnEvent(tick=4, channel=1, data=[57, 100]),
   midi.NoteOffEvent(tick=188, channel=1, data=[57, 100]),
   midi.NoteOnEvent(tick=4, channel=1, data=[44, 100]),
   midi.NoteOffEvent(tick=380, channel=1, data=[44, 100]),
   midi.NoteOnEvent(tick=4, channel=1, data=[57, 100]),
   midi.NoteOffEvent(tick=188, channel=1, data=[57, 100]),
   midi.NoteOnEvent(tick=4, channel=1, data=[43, 100]),
   midi.NoteOffEvent(tick=380, channel=1, data=[43, 100]),
   midi.NoteOnEvent(tick=4, channel=1, data=[57, 100]),
   midi.NoteOnEvent(tick=0, channel=1, data=[52, 100]),
   midi.NoteOffEvent(tick=188, channel=1, data=[57, 100]),
   midi.NoteOffEvent(tick=0, channel=1, data=[52, 100]),
   midi.NoteOnEvent(tick=4, channel=1, data=[60, 100]),
   midi.NoteOnEvent(tick=0, channel=1, data=[55, 100]),
   midi.NoteOffEvent(tick=384, channel=1, data=[60, 100]),
   midi.NoteOffEvent(tick=0, channel=1, data=[55, 100]),
   midi.PitchWheelEvent(tick=0, channel=1, data=[0, 32]),
   midi.NoteOnEvent(tick=0, channel=1, data=[58, 100]),
   midi.NoteOnEvent(tick=0, channel=1, data=[63, 100]),
   midi.PitchWheelEvent(tick=24, channel=1, data=[0, 40]),
   midi.PitchWheelEvent(tick=16, channel=1, data=[0, 48]),
   midi.PitchWheelEvent(tick=16, channel=1, data=[0, 56]),
   midi.PitchWheelEvent(tick=16, channel=1, data=[0, 64]),
   midi.NoteOffEvent(tick=120, channel=1, data=[58, 100]),
   midi.NoteOffEvent(tick=0, channel=1, data=[63, 100]),
   midi.NoteOnEvent(tick=0, channel=1, data=[62, 100]),
   midi.NoteOnEvent(tick=0, channel=1, data=[57, 100]),
   midi.NoteOffEvent(tick=192, channel=1, data=[62, 100]),
   midi.NoteOffEvent(tick=0, channel=1, data=[57, 100]),
   midi.NoteOnEvent(tick=0, channel=1, data=[60, 100]),
   midi.NoteOnEvent(tick=0, channel=1, data=[55, 100]),
   midi.NoteOffEvent(tick=192, channel=1, data=[60, 100]),
   midi.NoteOffEvent(tick=0, channel=1, data=[55, 100]),
   midi.NoteOnEvent(tick=0, channel=1, data=[57, 100]),
   midi.NoteOffEvent(tick=192, channel=1, data=[57, 100]),
   midi.NoteOnEvent(tick=0, channel=1, data=[53, 100]),
   midi.NoteOffEvent(tick=188, channel=1, data=[53, 100]),
   midi.NoteOnEvent(tick=4, channel=1, data=[41, 100]),
   midi.NoteOffEvent(tick=380, channel=1, data=[41, 100]),
   midi.NoteOnEvent(tick=4, channel=1, data=[53, 100]),
   midi.NoteOffEvent(tick=188, channel=1, data=[53, 100]),
   midi.NoteOnEvent(tick=4, channel=1, data=[40, 100]),
   midi.NoteOffEvent(tick=380, channel=1, data=[40, 100]),
   midi.NoteOnEvent(tick=4, channel=1, data=[53, 100]),
   midi.NoteOffEvent(tick=188, channel=1, data=[53, 100]),
   midi.NoteOnEvent(tick=4, channel=1, data=[50, 100]),
   midi.PitchWheelEvent(tick=288, channel=1, data=[0, 66]),
   midi.PitchWheelEvent(tick=96, channel=1, data=[0, 68]),
   midi.PitchWheelEvent(tick=96, channel=1, data=[0, 70]),
   midi.PitchWheelEvent(tick=96, channel=1, data=[0, 72]),
   midi.PitchWheelEvent(tick=96, channel=1, data=[0, 74]),
   midi.PitchWheelEvent(tick=96, channel=1, data=[0, 76]),
   midi.PitchWheelEvent(tick=96, channel=1, data=[0, 78]),
   midi.PitchWheelEvent(tick=96, channel=1, data=[0, 80]),
   midi.PitchWheelEvent(tick=96, channel=1, data=[0, 82]),
   midi.PitchWheelEvent(tick=96, channel=1, data=[0, 84]),
   midi.PitchWheelEvent(tick=96, channel=1, data=[0, 86]),
   midi.PitchWheelEvent(tick=96, channel=1, data=[0, 88]),
   midi.PitchWheelEvent(tick=96, channel=1, data=[0, 90]),
   midi.PitchWheelEvent(tick=96, channel=1, data=[0, 92]),
   midi.PitchWheelEvent(tick=96, channel=1, data=[0, 94]),
   midi.PitchWheelEvent(tick=96, channel=1, data=[0, 96]),
   midi.NoteOffEvent(tick=1532, channel=1, data=[50, 100]),
   midi.PitchWheelEvent(tick=4, channel=1, data=[0, 64]),
   midi.PitchWheelEvent(tick=0, channel=1, data=[0, 0]),
   midi.NoteOnEvent(tick=0, channel=1, data=[69, 100]),
   midi.PitchWheelEvent(tick=16, channel=1, data=[0, 16]),
   midi.PitchWheelEvent(tick=16, channel=1, data=[0, 32]),
   midi.PitchWheelEvent(tick=16, channel=1, data=[0, 48]),
   midi.PitchWheelEvent(tick=16, channel=1, data=[0, 64]),
   midi.PitchWheelEvent(tick=768, channel=1, data=[24, 56]),
   midi.PitchWheelEvent(tick=64, channel=1, data=[0, 64]),
   midi.PitchWheelEvent(tick=64, channel=1, data=[24, 56]),
   midi.PitchWheelEvent(tick=64, channel=1, data=[0, 64]),
   midi.PitchWheelEvent(tick=64, channel=1, data=[24, 56]),
   midi.PitchWheelEvent(tick=64, channel=1, data=[0, 64]),
   midi.PitchWheelEvent(tick=64, channel=1, data=[24, 56]),
   midi.PitchWheelEvent(tick=64, channel=1, data=[0, 64]),
   midi.PitchWheelEvent(tick=64, channel=1, data=[24, 56]),
   midi.PitchWheelEvent(tick=64, channel=1, data=[0, 64]),
   midi.PitchWheelEvent(tick=64, channel=1, data=[24, 56]),
   midi.NoteOffEvent(tick=60, channel=1, data=[69, 100]),
   midi.PitchWheelEvent(tick=4, channel=1, data=[0, 64]),
   midi.PitchWheelEvent(tick=192, channel=1, data=[0, 0]),
   midi.NoteOnEvent(tick=0, channel=1, data=[74, 100]),
   midi.PitchWheelEvent(tick=16, channel=1, data=[0, 32]),
   midi.PitchWheelEvent(tick=16, channel=1, data=[0, 64]),
   midi.PitchWheelEvent(tick=16, channel=1, data=[0, 96]),
   midi.PitchWheelEvent(tick=16, channel=1, data=[127, 127]),
   midi.NoteOffEvent(tick=124, channel=1, data=[74, 100]),
   midi.PitchWheelEvent(tick=4, channel=1, data=[0, 64]),
   midi.NoteOnEvent(tick=0, channel=1, data=[72, 100]),
   midi.NoteOffEvent(tick=188, channel=1, data=[72, 100]),
   midi.NoteOnEvent(tick=4, channel=1, data=[71, 100]),
   midi.NoteOffEvent(tick=188, channel=1, data=[71, 100]),
   midi.NoteOnEvent(tick=4, channel=1, data=[72, 100]),
   midi.NoteOffEvent(tick=188, channel=1, data=[72, 100]),
   midi.NoteOnEvent(tick=4, channel=1, data=[71, 100]),
   midi.NoteOffEvent(tick=188, channel=1, data=[71, 100]),
   midi.NoteOnEvent(tick=4, channel=1, data=[69, 100]),
   midi.NoteOffEvent(tick=188, channel=1, data=[69, 100]),
   midi.NoteOnEvent(tick=4, channel=1, data=[64, 100]),
   midi.NoteOffEvent(tick=188, channel=1, data=[64, 100]),
   midi.NoteOnEvent(tick=4, channel=1, data=[71, 100]),
   midi.PitchWheelEvent(tick=216, channel=1, data=[0, 66]),
   midi.PitchWheelEvent(tick=24, channel=1, data=[0, 68]),
   midi.PitchWheelEvent(tick=24, channel=1, data=[0, 70]),
   midi.PitchWheelEvent(tick=24, channel=1, data=[0, 72]),
   midi.PitchWheelEvent(tick=24, channel=1, data=[0, 74]),
   midi.PitchWheelEvent(tick=24, channel=1, data=[0, 76]),
   midi.PitchWheelEvent(tick=24, channel=1, data=[0, 78]),
   midi.PitchWheelEvent(tick=24, channel=1, data=[0, 80]),
   midi.PitchWheelEvent(tick=24, channel=1, data=[0, 82]),
   midi.PitchWheelEvent(tick=24, channel=1, data=[0, 84]),
   midi.PitchWheelEvent(tick=24, channel=1, data=[0, 86]),
   midi.PitchWheelEvent(tick=24, channel=1, data=[0, 88]),
   midi.PitchWheelEvent(tick=24, channel=1, data=[0, 90]),
   midi.PitchWheelEvent(tick=24, channel=1, data=[0, 92]),
   midi.PitchWheelEvent(tick=24, channel=1, data=[0, 94]),
   midi.PitchWheelEvent(tick=24, channel=1, data=[0, 96]),
   midi.PitchWheelEvent(tick=64, channel=1, data=[24, 88]),
   midi.PitchWheelEvent(tick=64, channel=1, data=[0, 96]),
   midi.PitchWheelEvent(tick=64, channel=1, data=[24, 88]),
   midi.PitchWheelEvent(tick=64, channel=1, data=[0, 96]),
   midi.PitchWheelEvent(tick=64, channel=1, data=[24, 88]),
   midi.PitchWheelEvent(tick=64, channel=1, data=[0, 96]),
   midi.PitchWheelEvent(tick=64, channel=1, data=[24, 88]),
   midi.PitchWheelEvent(tick=64, channel=1, data=[0, 96]),
   midi.PitchWheelEvent(tick=64, channel=1, data=[24, 88]),
   midi.PitchWheelEvent(tick=64, channel=1, data=[0, 96]),
   midi.PitchWheelEvent(tick=64, channel=1, data=[24, 88]),
   midi.PitchWheelEvent(tick=64, channel=1, data=[0, 96]),
   midi.PitchWheelEvent(tick=64, channel=1, data=[24, 88]),
   midi.PitchWheelEvent(tick=64, channel=1, data=[0, 96]),
   midi.NoteOffEvent(tick=60, channel=1, data=[71, 100]),
   midi.NoteOnEvent(tick=4, channel=1, data=[52, 100]),
   midi.NoteOffEvent(tick=92, channel=1, data=[52, 100]),
   midi.PitchWheelEvent(tick=100, channel=1, data=[0, 0]),
   midi.NoteOnEvent(tick=0, channel=1, data=[81, 100]),
   midi.PitchWheelEvent(tick=16, channel=1, data=[0, 16]),
   midi.PitchWheelEvent(tick=16, channel=1, data=[0, 32]),
   midi.PitchWheelEvent(tick=16, channel=1, data=[0, 48]),
   midi.PitchWheelEvent(tick=16, channel=1, data=[0, 64]),
   midi.NoteOffEvent(tick=508, channel=1, data=[81, 100]),
   midi.PitchWheelEvent(tick=4, channel=1, data=[0, 0]),
   midi.NoteOnEvent(tick=0, channel=1, data=[76, 100]),
   midi.PitchWheelEvent(tick=16, channel=1, data=[0, 16]),
   midi.PitchWheelEvent(tick=16, channel=1, data=[0, 32]),
   midi.PitchWheelEvent(tick=16, channel=1, data=[0, 48]),
   midi.PitchWheelEvent(tick=16, channel=1, data=[0, 64]),
   midi.PitchWheelEvent(tick=64, channel=1, data=[24, 56]),
   midi.PitchWheelEvent(tick=64, channel=1, data=[0, 64]),
   midi.PitchWheelEvent(tick=64, channel=1, data=[24, 56]),
   midi.PitchWheelEvent(tick=64, channel=1, data=[0, 64]),
   midi.PitchWheelEvent(tick=64, channel=1, data=[24, 56]),
   midi.PitchWheelEvent(tick=64, channel=1, data=[0, 64]),
   midi.PitchWheelEvent(tick=64, channel=1, data=[24, 56]),
   midi.PitchWheelEvent(tick=64, channel=1, data=[0, 64]),
   midi.PitchWheelEvent(tick=64, channel=1, data=[24, 56]),
   midi.PitchWheelEvent(tick=64, channel=1, data=[0, 64]),
   midi.NoteOffEvent(tick=60, channel=1, data=[76, 100]),
   midi.NoteOnEvent(tick=4, channel=1, data=[79, 100]),
   midi.PitchWheelEvent(tick=16, channel=1, data=[0, 80]),
   midi.PitchWheelEvent(tick=16, channel=1, data=[0, 96]),
   midi.PitchWheelEvent(tick=16, channel=1, data=[0, 112]),
   midi.PitchWheelEvent(tick=16, channel=1, data=[127, 127]),
   midi.PitchWheelEvent(tick=16, channel=1, data=[0, 120]),
   midi.PitchWheelEvent(tick=16, channel=1, data=[0, 112]),
   midi.PitchWheelEvent(tick=16, channel=1, data=[0, 104]),
   midi.PitchWheelEvent(tick=16, channel=1, data=[0, 96]),
   midi.PitchWheelEvent(tick=16, channel=1, data=[0, 88]),
   midi.PitchWheelEvent(tick=16, channel=1, data=[0, 80]),
   midi.PitchWheelEvent(tick=16, channel=1, data=[0, 72]),
   midi.PitchWheelEvent(tick=16, channel=1, data=[0, 64]),
   midi.NoteOffEvent(tick=188, channel=1, data=[79, 100]),
   midi.NoteOnEvent(tick=4, channel=1, data=[76, 100]),
   midi.NoteOffEvent(tick=188, channel=1, data=[76, 100]),
   midi.NoteOnEvent(tick=4, channel=1, data=[78, 100]),
   midi.PitchWheelEvent(tick=16, channel=1, data=[0, 72]),
   midi.PitchWheelEvent(tick=16, channel=1, data=[0, 80]),
   midi.PitchWheelEvent(tick=16, channel=1, data=[0, 88]),
   midi.PitchWheelEvent(tick=16, channel=1, data=[0, 96]),
   midi.PitchWheelEvent(tick=16, channel=1, data=[0, 92]),
   midi.PitchWheelEvent(tick=16, channel=1, data=[0, 88]),
   midi.PitchWheelEvent(tick=16, channel=1, data=[0, 84]),
   midi.PitchWheelEvent(tick=16, channel=1, data=[0, 80]),
   midi.PitchWheelEvent(tick=16, channel=1, data=[0, 76]),
   midi.PitchWheelEvent(tick=16, channel=1, data=[0, 72]),
   midi.PitchWheelEvent(tick=16, channel=1, data=[0, 68]),
   midi.PitchWheelEvent(tick=16, channel=1, data=[0, 64]),
   midi.NoteOffEvent(tick=188, channel=1, data=[78, 100]),
   midi.NoteOnEvent(tick=4, channel=1, data=[74, 100]),
   midi.NoteOffEvent(tick=188, channel=1, data=[74, 100]),
   midi.NoteOnEvent(tick=4, channel=1, data=[76, 100]),
   midi.PitchWheelEvent(tick=64, channel=1, data=[24, 56]),
   midi.PitchWheelEvent(tick=64, channel=1, data=[0, 64]),
   midi.PitchWheelEvent(tick=64, channel=1, data=[24, 56]),
   midi.PitchWheelEvent(tick=64, channel=1, data=[0, 64]),
   midi.PitchWheelEvent(tick=64, channel=1, data=[24, 56]),
   midi.PitchWheelEvent(tick=64, channel=1, data=[0, 64]),
   midi.PitchWheelEvent(tick=64, channel=1, data=[24, 56]),
   midi.PitchWheelEvent(tick=64, channel=1, data=[0, 64]),
   midi.PitchWheelEvent(tick=64, channel=1, data=[24, 56]),
   midi.PitchWheelEvent(tick=64, channel=1, data=[0, 64]),
   midi.PitchWheelEvent(tick=64, channel=1, data=[24, 56]),
   midi.NoteOffEvent(tick=60, channel=1, data=[76, 100]),
   midi.PitchWheelEvent(tick=4, channel=1, data=[0, 64]),
   midi.NoteOnEvent(tick=0, channel=1, data=[72, 100]),
   midi.PitchWheelEvent(tick=96, channel=1, data=[127, 127]),
   midi.PitchWheelEvent(tick=192, channel=1, data=[0, 64]),
   midi.NoteOffEvent(tick=92, channel=1, data=[72, 100]),
   midi.NoteOnEvent(tick=4, channel=1, data=[74, 100]),
   midi.NoteOffEvent(tick=92, channel=1, data=[74, 100]),
   midi.NoteOnEvent(tick=4, channel=1, data=[72, 100]),
   midi.NoteOffEvent(tick=92, channel=1, data=[72, 100]),
   midi.NoteOnEvent(tick=4, channel=1, data=[69, 100]),
   midi.NoteOffEvent(tick=92, channel=1, data=[69, 100]),
   midi.NoteOnEvent(tick=4, channel=1, data=[72, 100]),
   midi.NoteOffEvent(tick=92, channel=1, data=[72, 100]),
   midi.NoteOnEvent(tick=4, channel=1, data=[69, 100]),
   midi.PitchWheelEvent(tick=64, channel=1, data=[0, 72]),
   midi.PitchWheelEvent(tick=32, channel=1, data=[0, 80]),
   midi.PitchWheelEvent(tick=32, channel=1, data=[0, 88]),
   midi.PitchWheelEvent(tick=32, channel=1, data=[0, 96]),
   midi.PitchWheelEvent(tick=32, channel=1, data=[0, 104]),
   midi.PitchWheelEvent(tick=32, channel=1, data=[0, 112]),
   midi.PitchWheelEvent(tick=32, channel=1, data=[0, 120]),
   midi.PitchWheelEvent(tick=32, channel=1, data=[127, 127]),
   midi.PitchWheelEvent(tick=24, channel=1, data=[0, 112]),
   midi.PitchWheelEvent(tick=24, channel=1, data=[0, 96]),
   midi.PitchWheelEvent(tick=24, channel=1, data=[0, 80]),
   midi.PitchWheelEvent(tick=24, channel=1, data=[0, 64]),
   midi.NoteOffEvent(tick=188, channel=1, data=[69, 100]),
   midi.NoteOnEvent(tick=4, channel=1, data=[72, 100]),
   midi.NoteOffEvent(tick=188, channel=1, data=[72, 100]),
   midi.NoteOnEvent(tick=4, channel=1, data=[74, 100]),
   midi.NoteOffEvent(tick=188, channel=1, data=[74, 100]),
   midi.NoteOnEvent(tick=4, channel=1, data=[74, 100]),
   midi.PitchWheelEvent(tick=16, channel=1, data=[0, 80]),
   midi.PitchWheelEvent(tick=16, channel=1, data=[0, 96]),
   midi.PitchWheelEvent(tick=16, channel=1, data=[0, 112]),
   midi.PitchWheelEvent(tick=16, channel=1, data=[127, 127]),
   midi.PitchWheelEvent(tick=152, channel=1, data=[0, 112]),
   midi.PitchWheelEvent(tick=24, channel=1, data=[0, 96]),
   midi.PitchWheelEvent(tick=24, channel=1, data=[0, 80]),
   midi.PitchWheelEvent(tick=24, channel=1, data=[0, 64]),
   midi.PitchWheelEvent(tick=96, channel=1, data=[0, 0]),
   midi.NoteOffEvent(tick=188, channel=1, data=[74, 100]),
   midi.NoteOnEvent(tick=4, channel=1, data=[76, 100]),
   midi.PitchWheelEvent(tick=168, channel=1, data=[0, 16]),
   midi.PitchWheelEvent(tick=8, channel=1, data=[0, 32]),
   midi.PitchWheelEvent(tick=8, channel=1, data=[0, 48]),
   midi.PitchWheelEvent(tick=8, channel=1, data=[0, 64]),
   midi.PitchWheelEvent(tick=8, channel=1, data=[0, 80]),
   midi.PitchWheelEvent(tick=8, channel=1, data=[0, 96]),
   midi.PitchWheelEvent(tick=8, channel=1, data=[0, 112]),
   midi.PitchWheelEvent(tick=8, channel=1, data=[127, 127]),
   midi.PitchWheelEvent(tick=184, channel=1, data=[0, 112]),
   midi.PitchWheelEvent(tick=24, channel=1, data=[0, 96]),
   midi.PitchWheelEvent(tick=24, channel=1, data=[0, 80]),
   midi.PitchWheelEvent(tick=24, channel=1, data=[0, 64]),
   midi.PitchWheelEvent(tick=24, channel=1, data=[0, 48]),
   midi.PitchWheelEvent(tick=24, channel=1, data=[0, 32]),
   midi.PitchWheelEvent(tick=24, channel=1, data=[0, 16]),
   midi.PitchWheelEvent(tick=24, channel=1, data=[0, 0]),
   midi.NoteOffEvent(tick=92, channel=1, data=[76, 100]),
   midi.PitchWheelEvent(tick=4, channel=1, data=[0, 64]),
   midi.NoteOnEvent(tick=0, channel=1, data=[72, 100]),
   midi.NoteOffEvent(tick=92, channel=1, data=[72, 100]),
   midi.NoteOnEvent(tick=4, channel=1, data=[69, 100]),
   midi.PitchWheelEvent(tick=64, channel=1, data=[24, 56]),
   midi.PitchWheelEvent(tick=64, channel=1, data=[0, 64]),
   midi.PitchWheelEvent(tick=64, channel=1, data=[24, 56]),
   midi.PitchWheelEvent(tick=64, channel=1, data=[0, 64]),
   midi.PitchWheelEvent(tick=64, channel=1, data=[24, 56]),
   midi.PitchWheelEvent(tick=64, channel=1, data=[0, 64]),
   midi.PitchWheelEvent(tick=64, channel=1, data=[24, 56]),
   midi.PitchWheelEvent(tick=64, channel=1, data=[0, 64]),
   midi.PitchWheelEvent(tick=64, channel=1, data=[24, 56]),
   midi.PitchWheelEvent(tick=64, channel=1, data=[0, 64]),
   midi.PitchWheelEvent(tick=64, channel=1, data=[24, 56]),
   midi.NoteOffEvent(tick=60, channel=1, data=[69, 100]),
   midi.PitchWheelEvent(tick=4, channel=1, data=[0, 64]),
   midi.NoteOnEvent(tick=0, channel=1, data=[72, 100]),
   midi.NoteOffEvent(tick=124, channel=1, data=[72, 100]),
   midi.NoteOnEvent(tick=4, channel=1, data=[73, 100]),
   midi.NoteOffEvent(tick=124, channel=1, data=[73, 100]),
   midi.NoteOnEvent(tick=4, channel=1, data=[76, 100]),
   midi.NoteOffEvent(tick=124, channel=1, data=[76, 100]),
   midi.NoteOnEvent(tick=4, channel=1, data=[81, 100]),
   midi.NoteOffEvent(tick=124, channel=1, data=[81, 100]),
   midi.NoteOnEvent(tick=4, channel=1, data=[76, 100]),
   midi.NoteOffEvent(tick=124, channel=1, data=[76, 100]),
   midi.NoteOnEvent(tick=4, channel=1, data=[73, 100]),
   midi.NoteOffEvent(tick=124, channel=1, data=[73, 100]),
   midi.NoteOnEvent(tick=4, channel=1, data=[74, 100]),
   midi.NoteOffEvent(tick=124, channel=1, data=[74, 100]),
   midi.NoteOnEvent(tick=4, channel=1, data=[76, 100]),
   midi.NoteOffEvent(tick=124, channel=1, data=[76, 100]),
   midi.NoteOnEvent(tick=4, channel=1, data=[79, 100]),
   midi.NoteOffEvent(tick=124, channel=1, data=[79, 100]),
   midi.NoteOnEvent(tick=4, channel=1, data=[78, 100]),
   midi.NoteOffEvent(tick=124, channel=1, data=[78, 100]),
   midi.NoteOnEvent(tick=4, channel=1, data=[76, 100]),
   midi.NoteOffEvent(tick=124, channel=1, data=[76, 100]),
   midi.NoteOnEvent(tick=4, channel=1, data=[74, 100]),
   midi.NoteOffEvent(tick=124, channel=1, data=[74, 100]),
   midi.NoteOnEvent(tick=4, channel=1, data=[76, 100]),
   midi.NoteOffEvent(tick=124, channel=1, data=[76, 100]),
   midi.NoteOnEvent(tick=4, channel=1, data=[79, 100]),
   midi.NoteOffEvent(tick=124, channel=1, data=[79, 100]),
   midi.NoteOnEvent(tick=4, channel=1, data=[76, 100]),
   midi.NoteOffEvent(tick=124, channel=1, data=[76, 100]),
   midi.NoteOnEvent(tick=4, channel=1, data=[83, 100]),
   midi.NoteOffEvent(tick=124, channel=1, data=[83, 100]),
   midi.NoteOnEvent(tick=4, channel=1, data=[76, 100]),
   midi.NoteOffEvent(tick=124, channel=1, data=[76, 100]),
   midi.NoteOnEvent(tick=4, channel=1, data=[74, 100]),
   midi.NoteOffEvent(tick=124, channel=1, data=[74, 100]),
   midi.NoteOnEvent(tick=4, channel=1, data=[76, 100]),
   midi.NoteOffEvent(tick=124, channel=1, data=[76, 100]),
   midi.NoteOnEvent(tick=4, channel=1, data=[74, 100]),
   midi.NoteOffEvent(tick=124, channel=1, data=[74, 100]),
   midi.NoteOnEvent(tick=4, channel=1, data=[72, 100]),
   midi.NoteOffEvent(tick=124, channel=1, data=[72, 100]),
   midi.NoteOnEvent(tick=4, channel=1, data=[69, 100]),
   midi.NoteOffEvent(tick=92, channel=1, data=[69, 100]),
   midi.NoteOnEvent(tick=4, channel=1, data=[72, 100]),
   midi.NoteOffEvent(tick=92, channel=1, data=[72, 100]),
   midi.NoteOnEvent(tick=4, channel=1, data=[74, 100]),
   midi.NoteOffEvent(tick=140, channel=1, data=[74, 100]),
   midi.NoteOnEvent(tick=4, channel=1, data=[74, 100]),
   midi.NoteOffEvent(tick=44, channel=1, data=[74, 100]),
   midi.NoteOnEvent(tick=4, channel=1, data=[74, 100]),
   midi.NoteOffEvent(tick=124, channel=1, data=[74, 100]),
   midi.NoteOnEvent(tick=4, channel=1, data=[74, 100]),
   midi.NoteOffEvent(tick=124, channel=1, data=[74, 100]),
   midi.NoteOnEvent(tick=4, channel=1, data=[72, 100]),
   midi.NoteOffEvent(tick=124, channel=1, data=[72, 100]),
   midi.NoteOnEvent(tick=4, channel=1, data=[69, 100]),
   midi.NoteOffEvent(tick=92, channel=1, data=[69, 100]),
   midi.NoteOnEvent(tick=4, channel=1, data=[72, 100]),
   midi.NoteOffEvent(tick=188, channel=1, data=[72, 100]),
   midi.NoteOnEvent(tick=4, channel=1, data=[74, 100]),
   midi.NoteOffEvent(tick=92, channel=1, data=[74, 100]),
   midi.NoteOnEvent(tick=4, channel=1, data=[71, 100]),
   midi.NoteOffEvent(tick=92, channel=1, data=[71, 100]),
   midi.NoteOnEvent(tick=4, channel=1, data=[72, 100]),
   midi.NoteOffEvent(tick=92, channel=1, data=[72, 100]),
   midi.NoteOnEvent(tick=4, channel=1, data=[71, 100]),
   midi.NoteOffEvent(tick=92, channel=1, data=[71, 100]),
   midi.NoteOnEvent(tick=4, channel=1, data=[69, 100]),
   midi.NoteOffEvent(tick=92, channel=1, data=[69, 100]),
   midi.NoteOnEvent(tick=4, channel=1, data=[71, 100]),
   midi.NoteOffEvent(tick=92, channel=1, data=[71, 100]),
   midi.NoteOnEvent(tick=4, channel=1, data=[69, 100]),
   midi.NoteOffEvent(tick=188, channel=1, data=[69, 100]),
   midi.NoteOnEvent(tick=4, channel=1, data=[67, 100]),
   midi.NoteOffEvent(tick=92, channel=1, data=[67, 100]),
   midi.NoteOnEvent(tick=4, channel=1, data=[66, 100]),
   midi.NoteOffEvent(tick=92, channel=1, data=[66, 100]),
   midi.NoteOnEvent(tick=4, channel=1, data=[67, 100]),
   midi.NoteOffEvent(tick=92, channel=1, data=[67, 100]),
   midi.NoteOnEvent(tick=4, channel=1, data=[66, 100]),
   midi.NoteOffEvent(tick=92, channel=1, data=[66, 100]),
   midi.NoteOnEvent(tick=4, channel=1, data=[64, 100]),
   midi.NoteOffEvent(tick=92, channel=1, data=[64, 100]),
   midi.NoteOnEvent(tick=4, channel=1, data=[60, 100]),
   midi.PitchWheelEvent(tick=96, channel=1, data=[24, 56]),
   midi.PitchWheelEvent(tick=96, channel=1, data=[0, 64]),
   midi.PitchWheelEvent(tick=96, channel=1, data=[24, 56]),
   midi.PitchWheelEvent(tick=96, channel=1, data=[0, 64]),
   midi.PitchWheelEvent(tick=96, channel=1, data=[24, 56]),
   midi.PitchWheelEvent(tick=96, channel=1, data=[0, 64]),
   midi.PitchWheelEvent(tick=96, channel=1, data=[24, 56]),
   midi.PitchWheelEvent(tick=96, channel=1, data=[0, 64]),
   midi.PitchWheelEvent(tick=96, channel=1, data=[24, 56]),
   midi.PitchWheelEvent(tick=96, channel=1, data=[0, 64]),
   midi.PitchWheelEvent(tick=96, channel=1, data=[24, 56]),
   midi.NoteOffEvent(tick=92, channel=1, data=[60, 100]),
   midi.PitchWheelEvent(tick=4, channel=1, data=[0, 64]),
   midi.NoteOnEvent(tick=0, channel=1, data=[69, 100]),
   midi.NoteOffEvent(tick=380, channel=1, data=[69, 100]),
   midi.NoteOnEvent(tick=4, channel=1, data=[66, 100]),
   midi.NoteOnEvent(tick=0, channel=1, data=[54, 100]),
   midi.NoteOffEvent(tick=188, channel=1, data=[66, 100]),
   midi.NoteOffEvent(tick=0, channel=1, data=[54, 100]),
   midi.NoteOnEvent(tick=4, channel=1, data=[66, 100]),
   midi.NoteOnEvent(tick=0, channel=1, data=[54, 100]),
   midi.NoteOffEvent(tick=188, channel=1, data=[66, 100]),
   midi.NoteOffEvent(tick=0, channel=1, data=[54, 100]),
   midi.NoteOnEvent(tick=4, channel=1, data=[66, 100]),
   midi.NoteOnEvent(tick=0, channel=1, data=[54, 100]),
   midi.NoteOffEvent(tick=188, channel=1, data=[66, 100]),
   midi.NoteOffEvent(tick=0, channel=1, data=[54, 100]),
   midi.NoteOnEvent(tick=4, channel=1, data=[67, 100]),
   midi.NoteOnEvent(tick=0, channel=1, data=[55, 100]),
   midi.NoteOffEvent(tick=188, channel=1, data=[67, 100]),
   midi.NoteOffEvent(tick=0, channel=1, data=[55, 100]),
   midi.NoteOnEvent(tick=4, channel=1, data=[67, 100]),
   midi.NoteOnEvent(tick=0, channel=1, data=[55, 100]),
   midi.NoteOffEvent(tick=188, channel=1, data=[67, 100]),
   midi.NoteOffEvent(tick=0, channel=1, data=[55, 100]),
   midi.NoteOnEvent(tick=4, channel=1, data=[67, 100]),
   midi.NoteOnEvent(tick=0, channel=1, data=[55, 100]),
   midi.NoteOffEvent(tick=188, channel=1, data=[67, 100]),
   midi.NoteOffEvent(tick=0, channel=1, data=[55, 100]),
   midi.NoteOnEvent(tick=4, channel=1, data=[69, 100]),
   midi.NoteOnEvent(tick=0, channel=1, data=[57, 100]),
   midi.NoteOffEvent(tick=188, channel=1, data=[69, 100]),
   midi.NoteOffEvent(tick=0, channel=1, data=[57, 100]),
   midi.NoteOnEvent(tick=4, channel=1, data=[69, 100]),
   midi.NoteOnEvent(tick=0, channel=1, data=[57, 100]),
   midi.NoteOffEvent(tick=188, channel=1, data=[69, 100]),
   midi.NoteOffEvent(tick=0, channel=1, data=[57, 100]),
   midi.NoteOnEvent(tick=4, channel=1, data=[69, 100]),
   midi.NoteOnEvent(tick=0, channel=1, data=[57, 100]),
   midi.NoteOffEvent(tick=252, channel=1, data=[69, 100]),
   midi.NoteOffEvent(tick=0, channel=1, data=[57, 100]),
   midi.PitchWheelEvent(tick=4, channel=1, data=[0, 0]),
   midi.NoteOnEvent(tick=0, channel=1, data=[66, 100]),
   midi.PitchWheelEvent(tick=16, channel=1, data=[0, 16]),
   midi.PitchWheelEvent(tick=16, channel=1, data=[0, 32]),
   midi.PitchWheelEvent(tick=16, channel=1, data=[0, 48]),
   midi.PitchWheelEvent(tick=16, channel=1, data=[0, 64]),
   midi.PitchWheelEvent(tick=24, channel=1, data=[0, 56]),
   midi.PitchWheelEvent(tick=24, channel=1, data=[0, 48]),
   midi.PitchWheelEvent(tick=24, channel=1, data=[0, 40]),
   midi.PitchWheelEvent(tick=24, channel=1, data=[0, 32]),
   midi.PitchWheelEvent(tick=24, channel=1, data=[0, 24]),
   midi.PitchWheelEvent(tick=24, channel=1, data=[0, 16]),
   midi.PitchWheelEvent(tick=24, channel=1, data=[0, 8]),
   midi.PitchWheelEvent(tick=24, channel=1, data=[0, 0]),
   midi.PitchWheelEvent(tick=288, channel=1, data=[0, 16]),
   midi.PitchWheelEvent(tick=32, channel=1, data=[0, 32]),
   midi.PitchWheelEvent(tick=32, channel=1, data=[0, 48]),
   midi.PitchWheelEvent(tick=32, channel=1, data=[0, 64]),
   midi.PitchWheelEvent(tick=32, channel=1, data=[0, 80]),
   midi.PitchWheelEvent(tick=32, channel=1, data=[0, 96]),
   midi.PitchWheelEvent(tick=96, channel=1, data=[24, 88]),
   midi.PitchWheelEvent(tick=96, channel=1, data=[0, 96]),
   midi.PitchWheelEvent(tick=96, channel=1, data=[24, 88]),
   midi.PitchWheelEvent(tick=96, channel=1, data=[0, 96]),
   midi.PitchWheelEvent(tick=96, channel=1, data=[24, 88]),
   midi.PitchWheelEvent(tick=96, channel=1, data=[0, 96]),
   midi.PitchWheelEvent(tick=96, channel=1, data=[24, 88]),
   midi.PitchWheelEvent(tick=96, channel=1, data=[0, 96]),
   midi.PitchWheelEvent(tick=96, channel=1, data=[24, 88]),
   midi.NoteOffEvent(tick=88, channel=1, data=[66, 100]),
   midi.PitchWheelEvent(tick=8, channel=1, data=[0, 96]),
   midi.PitchWheelEvent(tick=192, channel=1, data=[0, 0]),
   midi.NoteOnEvent(tick=0, channel=1, data=[64, 100]),
   midi.PitchWheelEvent(tick=16, channel=1, data=[0, 16]),
   midi.PitchWheelEvent(tick=16, channel=1, data=[0, 32]),
   midi.PitchWheelEvent(tick=16, channel=1, data=[0, 48]),
   midi.PitchWheelEvent(tick=16, channel=1, data=[0, 64]),
   midi.NoteOffEvent(tick=124, channel=1, data=[64, 100]),
   midi.NoteOnEvent(tick=4, channel=1, data=[63, 100]),
   midi.NoteOffEvent(tick=252, channel=1, data=[63, 100]),
   midi.NoteOnEvent(tick=4, channel=1, data=[62, 100]),
   midi.NoteOffEvent(tick=252, channel=1, data=[62, 100]),
   midi.NoteOnEvent(tick=4, channel=1, data=[60, 100]),
   midi.NoteOffEvent(tick=252, channel=1, data=[60, 100]),
   midi.NoteOnEvent(tick=4, channel=1, data=[60, 100]),
   midi.NoteOffEvent(tick=188, channel=1, data=[60, 100]),
   midi.NoteOnEvent(tick=4, channel=1, data=[60, 100]),
   midi.NoteOffEvent(tick=188, channel=1, data=[60, 100]),
   midi.NoteOnEvent(tick=4, channel=1, data=[57, 100]),
   midi.NoteOffEvent(tick=572, channel=1, data=[57, 100]),
   midi.NoteOnEvent(tick=4, channel=1, data=[64, 100]),
   midi.NoteOffEvent(tick=188, channel=1, data=[64, 100]),
   midi.NoteOnEvent(tick=4, channel=1, data=[67, 100]),
   midi.NoteOffEvent(tick=124, channel=1, data=[67, 100]),
   midi.NoteOnEvent(tick=4, channel=1, data=[69, 100]),
   midi.NoteOffEvent(tick=124, channel=1, data=[69, 100]),
   midi.NoteOnEvent(tick=4, channel=1, data=[72, 100]),
   midi.NoteOffEvent(tick=124, channel=1, data=[72, 100]),
   midi.KeySignatureEvent(tick=4, data=[2, 0]),
   midi.PitchWheelEvent(tick=0, channel=1, data=[0, 0]),
   midi.NoteOnEvent(tick=0, channel=1, data=[71, 100]),
   midi.PitchWheelEvent(tick=16, channel=1, data=[0, 16]),
   midi.PitchWheelEvent(tick=16, channel=1, data=[0, 32]),
   midi.PitchWheelEvent(tick=16, channel=1, data=[0, 48]),
   midi.PitchWheelEvent(tick=16, channel=1, data=[0, 64]),
   midi.PitchWheelEvent(tick=128, channel=1, data=[24, 56]),
   midi.PitchWheelEvent(tick=96, channel=1, data=[0, 64]),
   midi.PitchWheelEvent(tick=96, channel=1, data=[24, 56]),
   midi.PitchWheelEvent(tick=96, channel=1, data=[0, 64]),
   midi.PitchWheelEvent(tick=96, channel=1, data=[24, 56]),
   midi.PitchWheelEvent(tick=96, channel=1, data=[0, 64]),
   midi.PitchWheelEvent(tick=96, channel=1, data=[24, 56]),
   midi.PitchWheelEvent(tick=96, channel=1, data=[0, 64]),
   midi.NoteOffEvent(tick=92, channel=1, data=[71, 100]),
   midi.NoteOnEvent(tick=4, channel=1, data=[66, 100]),
   midi.NoteOffEvent(tick=92, channel=1, data=[66, 100]),
   midi.NoteOnEvent(tick=4, channel=1, data=[71, 100]),
   midi.NoteOffEvent(tick=92, channel=1, data=[71, 100]),
   midi.NoteOnEvent(tick=4, channel=1, data=[69, 100]),
   midi.NoteOffEvent(tick=92, channel=1, data=[69, 100]),
   midi.NoteOnEvent(tick=4, channel=1, data=[66, 100]),
   midi.NoteOffEvent(tick=92, channel=1, data=[66, 100]),
   midi.PitchWheelEvent(tick=4, channel=1, data=[0, 0]),
   midi.NoteOnEvent(tick=0, channel=1, data=[66, 100]),
   midi.PitchWheelEvent(tick=12, channel=1, data=[0, 16]),
   midi.PitchWheelEvent(tick=12, channel=1, data=[0, 32]),
   midi.PitchWheelEvent(tick=12, channel=1, data=[0, 48]),
   midi.PitchWheelEvent(tick=12, channel=1, data=[0, 64]),
   midi.PitchWheelEvent(tick=32, channel=1, data=[0, 56]),
   midi.PitchWheelEvent(tick=16, channel=1, data=[0, 48]),
   midi.PitchWheelEvent(tick=16, channel=1, data=[0, 40]),
   midi.PitchWheelEvent(tick=16, channel=1, data=[0, 32]),
   midi.PitchWheelEvent(tick=16, channel=1, data=[0, 24]),
   midi.PitchWheelEvent(tick=16, channel=1, data=[0, 16]),
   midi.PitchWheelEvent(tick=16, channel=1, data=[0, 8]),
   midi.PitchWheelEvent(tick=16, channel=1, data=[0, 0]),
   midi.PitchWheelEvent(tick=24, channel=1, data=[0, 8]),
   midi.PitchWheelEvent(tick=24, channel=1, data=[0, 16]),
   midi.PitchWheelEvent(tick=24, channel=1, data=[0, 24]),
   midi.PitchWheelEvent(tick=24, channel=1, data=[0, 32]),
   midi.PitchWheelEvent(tick=24, channel=1, data=[0, 40]),
   midi.PitchWheelEvent(tick=24, channel=1, data=[0, 48]),
   midi.PitchWheelEvent(tick=24, channel=1, data=[0, 56]),
   midi.PitchWheelEvent(tick=24, channel=1, data=[0, 64]),
   midi.NoteOffEvent(tick=288, channel=1, data=[66, 100]),
   midi.NoteOnEvent(tick=0, channel=1, data=[71, 100]),
   midi.NoteOffEvent(tick=92, channel=1, data=[71, 100]),
   midi.NoteOnEvent(tick=4, channel=1, data=[69, 100]),
   midi.NoteOffEvent(tick=92, channel=1, data=[69, 100]),
   midi.NoteOnEvent(tick=4, channel=1, data=[66, 100]),
   midi.NoteOffEvent(tick=92, channel=1, data=[66, 100]),
   midi.PitchWheelEvent(tick=4, channel=1, data=[0, 0]),
   midi.NoteOnEvent(tick=0, channel=1, data=[66, 100]),
   midi.PitchWheelEvent(tick=16, channel=1, data=[0, 16]),
   midi.PitchWheelEvent(tick=16, channel=1, data=[0, 32]),
   midi.PitchWheelEvent(tick=16, channel=1, data=[0, 48]),
   midi.PitchWheelEvent(tick=16, channel=1, data=[0, 64]),
   midi.NoteOffEvent(tick=124, channel=1, data=[66, 100]),
   midi.NoteOnEvent(tick=4, channel=1, data=[66, 100]),
   midi.NoteOffEvent(tick=92, channel=1, data=[66, 100]),
   midi.NoteOnEvent(tick=4, channel=1, data=[69, 100]),
   midi.NoteOffEvent(tick=188, channel=1, data=[69, 100]),
   midi.NoteOnEvent(tick=4, channel=1, data=[64, 100]),
   midi.NoteOffEvent(tick=92, channel=1, data=[64, 100]),
   midi.NoteOnEvent(tick=4, channel=1, data=[66, 100]),
   midi.NoteOffEvent(tick=188, channel=1, data=[66, 100]),
   midi.PitchWheelEvent(tick=4, channel=1, data=[0, 0]),
   midi.NoteOnEvent(tick=0, channel=1, data=[66, 100]),
   midi.PitchWheelEvent(tick=12, channel=1, data=[0, 16]),
   midi.PitchWheelEvent(tick=12, channel=1, data=[0, 32]),
   midi.PitchWheelEvent(tick=12, channel=1, data=[0, 48]),
   midi.PitchWheelEvent(tick=12, channel=1, data=[0, 64]),
   midi.PitchWheelEvent(tick=32, channel=1, data=[0, 56]),
   midi.PitchWheelEvent(tick=16, channel=1, data=[0, 48]),
   midi.PitchWheelEvent(tick=16, channel=1, data=[0, 40]),
   midi.PitchWheelEvent(tick=16, channel=1, data=[0, 32]),
   midi.PitchWheelEvent(tick=16, channel=1, data=[0, 24]),
   midi.PitchWheelEvent(tick=16, channel=1, data=[0, 16]),
   midi.PitchWheelEvent(tick=16, channel=1, data=[0, 8]),
   midi.PitchWheelEvent(tick=16, channel=1, data=[0, 0]),
   midi.PitchWheelEvent(tick=24, channel=1, data=[0, 8]),
   midi.PitchWheelEvent(tick=24, channel=1, data=[0, 16]),
   midi.PitchWheelEvent(tick=24, channel=1, data=[0, 24]),
   midi.PitchWheelEvent(tick=24, channel=1, data=[0, 32]),
   midi.PitchWheelEvent(tick=24, channel=1, data=[0, 40]),
   midi.PitchWheelEvent(tick=24, channel=1, data=[0, 48]),
   midi.PitchWheelEvent(tick=24, channel=1, data=[0, 56]),
   midi.PitchWheelEvent(tick=24, channel=1, data=[0, 64]),
   midi.NoteOffEvent(tick=188, channel=1, data=[66, 100]),
   midi.NoteOnEvent(tick=4, channel=1, data=[71, 100]),
   midi.NoteOffEvent(tick=188, channel=1, data=[71, 100]),
   midi.NoteOnEvent(tick=4, channel=1, data=[69, 100]),
   midi.NoteOffEvent(tick=92, channel=1, data=[69, 100]),
   midi.NoteOnEvent(tick=4, channel=1, data=[66, 100]),
   midi.NoteOffEvent(tick=92, channel=1, data=[66, 100]),
   midi.NoteOnEvent(tick=4, channel=1, data=[65, 100]),
   midi.NoteOffEvent(tick=92, channel=1, data=[65, 100]),
   midi.NoteOnEvent(tick=4, channel=1, data=[66, 100]),
   midi.NoteOffEvent(tick=92, channel=1, data=[66, 100]),
   midi.NoteOnEvent(tick=4, channel=1, data=[65, 100]),
   midi.NoteOffEvent(tick=92, channel=1, data=[65, 100]),
   midi.NoteOnEvent(tick=4, channel=1, data=[64, 100]),
   midi.NoteOffEvent(tick=92, channel=1, data=[64, 100]),
   midi.NoteOnEvent(tick=4, channel=1, data=[62, 100]),
   midi.NoteOffEvent(tick=92, channel=1, data=[62, 100]),
   midi.NoteOnEvent(tick=4, channel=1, data=[59, 100]),
   midi.NoteOffEvent(tick=92, channel=1, data=[59, 100]),
   midi.PitchWheelEvent(tick=4, channel=1, data=[0, 0]),
   midi.NoteOnEvent(tick=0, channel=1, data=[66, 100]),
   midi.PitchWheelEvent(tick=16, channel=1, data=[0, 16]),
   midi.PitchWheelEvent(tick=16, channel=1, data=[0, 32]),
   midi.PitchWheelEvent(tick=16, channel=1, data=[0, 48]),
   midi.PitchWheelEvent(tick=16, channel=1, data=[0, 64]),
   midi.NoteOffEvent(tick=124, channel=1, data=[66, 100]),
   midi.NoteOnEvent(tick=4, channel=1, data=[62, 100]),
   midi.PitchWheelEvent(tick=96, channel=1, data=[24, 56]),
   midi.PitchWheelEvent(tick=96, channel=1, data=[0, 64]),
   midi.PitchWheelEvent(tick=96, channel=1, data=[24, 56]),
   midi.PitchWheelEvent(tick=96, channel=1, data=[0, 64]),
   midi.PitchWheelEvent(tick=96, channel=1, data=[24, 56]),
   midi.PitchWheelEvent(tick=96, channel=1, data=[0, 64]),
   midi.PitchWheelEvent(tick=96, channel=1, data=[24, 56]),
   midi.PitchWheelEvent(tick=96, channel=1, data=[0, 64]),
   midi.PitchWheelEvent(tick=96, channel=1, data=[24, 56]),
   midi.PitchWheelEvent(tick=96, channel=1, data=[0, 64]),
   midi.PitchWheelEvent(tick=96, channel=1, data=[24, 56]),
   midi.PitchWheelEvent(tick=96, channel=1, data=[0, 64]),
   midi.PitchWheelEvent(tick=96, channel=1, data=[24, 56]),
   midi.NoteOffEvent(tick=92, channel=1, data=[62, 100]),
   midi.PitchWheelEvent(tick=4, channel=1, data=[0, 64]),
   midi.NoteOnEvent(tick=0, channel=1, data=[74, 100]),
   midi.NoteOffEvent(tick=92, channel=1, data=[74, 100]),
   midi.NoteOnEvent(tick=4, channel=1, data=[76, 100]),
   midi.NoteOffEvent(tick=92, channel=1, data=[76, 100]),
   midi.NoteOnEvent(tick=4, channel=1, data=[74, 100]),
   midi.NoteOffEvent(tick=92, channel=1, data=[74, 100]),
   midi.NoteOnEvent(tick=4, channel=1, data=[71, 100]),
   midi.NoteOffEvent(tick=92, channel=1, data=[71, 100]),
   midi.NoteOnEvent(tick=4, channel=1, data=[74, 100]),
   midi.NoteOffEvent(tick=92, channel=1, data=[74, 100]),
   midi.NoteOnEvent(tick=4, channel=1, data=[76, 100]),
   midi.NoteOffEvent(tick=92, channel=1, data=[76, 100]),
   midi.NoteOnEvent(tick=4, channel=1, data=[73, 100]),
   midi.NoteOffEvent(tick=92, channel=1, data=[73, 100]),
   midi.NoteOnEvent(tick=4, channel=1, data=[74, 100]),
   midi.NoteOffEvent(tick=92, channel=1, data=[74, 100]),
   midi.NoteOnEvent(tick=4, channel=1, data=[73, 100]),
   midi.NoteOffEvent(tick=92, channel=1, data=[73, 100]),
   midi.NoteOnEvent(tick=4, channel=1, data=[71, 100]),
   midi.NoteOffEvent(tick=92, channel=1, data=[71, 100]),
   midi.NoteOnEvent(tick=4, channel=1, data=[73, 100]),
   midi.NoteOffEvent(tick=92, channel=1, data=[73, 100]),
   midi.NoteOnEvent(tick=4, channel=1, data=[71, 100]),
   midi.NoteOffEvent(tick=92, channel=1, data=[71, 100]),
   midi.NoteOnEvent(tick=4, channel=1, data=[71, 100]),
   midi.NoteOffEvent(tick=92, channel=1, data=[71, 100]),
   midi.NoteOnEvent(tick=4, channel=1, data=[73, 100]),
   midi.NoteOffEvent(tick=92, channel=1, data=[73, 100]),
   midi.NoteOnEvent(tick=4, channel=1, data=[71, 100]),
   midi.NoteOffEvent(tick=92, channel=1, data=[71, 100]),
   midi.NoteOnEvent(tick=4, channel=1, data=[69, 100]),
   midi.NoteOffEvent(tick=92, channel=1, data=[69, 100]),
   midi.NoteOnEvent(tick=4, channel=1, data=[71, 100]),
   midi.NoteOffEvent(tick=92, channel=1, data=[71, 100]),
   midi.NoteOnEvent(tick=4, channel=1, data=[73, 100]),
   midi.NoteOffEvent(tick=92, channel=1, data=[73, 100]),
   midi.NoteOnEvent(tick=4, channel=1, data=[71, 100]),
   midi.NoteOffEvent(tick=92, channel=1, data=[71, 100]),
   midi.NoteOnEvent(tick=4, channel=1, data=[69, 100]),
   midi.NoteOffEvent(tick=92, channel=1, data=[69, 100]),
   midi.NoteOnEvent(tick=4, channel=1, data=[71, 100]),
   midi.NoteOffEvent(tick=92, channel=1, data=[71, 100]),
   midi.NoteOnEvent(tick=4, channel=1, data=[69, 100]),
   midi.NoteOffEvent(tick=92, channel=1, data=[69, 100]),
   midi.NoteOnEvent(tick=4, channel=1, data=[68, 100]),
   midi.NoteOffEvent(tick=92, channel=1, data=[68, 100]),
   midi.NoteOnEvent(tick=4, channel=1, data=[69, 100]),
   midi.NoteOffEvent(tick=92, channel=1, data=[69, 100]),
   midi.NoteOnEvent(tick=4, channel=1, data=[66, 100]),
   midi.PitchWheelEvent(tick=96, channel=1, data=[24, 56]),
   midi.PitchWheelEvent(tick=96, channel=1, data=[0, 64]),
   midi.PitchWheelEvent(tick=96, channel=1, data=[24, 56]),
   midi.PitchWheelEvent(tick=96, channel=1, data=[0, 64]),
   midi.PitchWheelEvent(tick=96, channel=1, data=[24, 56]),
   midi.NoteOffEvent(tick=92, channel=1, data=[66, 100]),
   midi.PitchWheelEvent(tick=4, channel=1, data=[0, 64]),
   midi.NoteOnEvent(tick=0, channel=1, data=[69, 100]),
   midi.NoteOffEvent(tick=188, channel=1, data=[69, 100]),
   midi.NoteOnEvent(tick=4, channel=1, data=[68, 100]),
   midi.NoteOffEvent(tick=188, channel=1, data=[68, 100]),
   midi.NoteOnEvent(tick=4, channel=1, data=[71, 100]),
   midi.NoteOffEvent(tick=188, channel=1, data=[71, 100]),
   midi.NoteOnEvent(tick=4, channel=1, data=[74, 100]),
   midi.NoteOffEvent(tick=124, channel=1, data=[74, 100]),
   midi.NoteOnEvent(tick=4, channel=1, data=[73, 100]),
   midi.NoteOffEvent(tick=124, channel=1, data=[73, 100]),
   midi.NoteOnEvent(tick=4, channel=1, data=[76, 100]),
   midi.NoteOffEvent(tick=124, channel=1, data=[76, 100]),
   midi.NoteOnEvent(tick=4, channel=1, data=[74, 100]),
   midi.NoteOffEvent(tick=92, channel=1, data=[74, 100]),
   midi.NoteOnEvent(tick=4, channel=1, data=[78, 100]),
   midi.NoteOffEvent(tick=92, channel=1, data=[78, 100]),
   midi.NoteOnEvent(tick=4, channel=1, data=[76, 100]),
   midi.NoteOffEvent(tick=92, channel=1, data=[76, 100]),
   midi.NoteOnEvent(tick=4, channel=1, data=[74, 100]),
   midi.NoteOffEvent(tick=92, channel=1, data=[74, 100]),
   midi.NoteOnEvent(tick=4, channel=1, data=[78, 100]),
   midi.NoteOffEvent(tick=92, channel=1, data=[78, 100]),
   midi.NoteOnEvent(tick=4, channel=1, data=[75, 100]),
   midi.NoteOffEvent(tick=92, channel=1, data=[75, 100]),
   midi.NoteOnEvent(tick=4, channel=1, data=[71, 100]),
   midi.NoteOffEvent(tick=188, channel=1, data=[71, 100]),
   midi.NoteOnEvent(tick=4, channel=1, data=[75, 100]),
   midi.NoteOffEvent(tick=188, channel=1, data=[75, 100]),
   midi.NoteOnEvent(tick=4, channel=1, data=[77, 100]),
   midi.NoteOffEvent(tick=92, channel=1, data=[77, 100]),
   midi.NoteOnEvent(tick=4, channel=1, data=[74, 100]),
   midi.NoteOffEvent(tick=92, channel=1, data=[74, 100]),
   midi.NoteOnEvent(tick=4, channel=1, data=[70, 100]),
   midi.NoteOffEvent(tick=188, channel=1, data=[70, 100]),
   midi.NoteOnEvent(tick=4, channel=1, data=[74, 100]),
   midi.NoteOffEvent(tick=188, channel=1, data=[74, 100]),
   midi.NoteOnEvent(tick=4, channel=1, data=[76, 100]),
   midi.NoteOffEvent(tick=92, channel=1, data=[76, 100]),
   midi.NoteOnEvent(tick=4, channel=1, data=[73, 100]),
   midi.NoteOffEvent(tick=92, channel=1, data=[73, 100]),
   midi.NoteOnEvent(tick=4, channel=1, data=[69, 100]),
   midi.NoteOffEvent(tick=188, channel=1, data=[69, 100]),
   midi.NoteOnEvent(tick=4, channel=1, data=[75, 100]),
   midi.NoteOffEvent(tick=92, channel=1, data=[75, 100]),
   midi.NoteOnEvent(tick=4, channel=1, data=[72, 100]),
   midi.NoteOffEvent(tick=92, channel=1, data=[72, 100]),
   midi.NoteOnEvent(tick=4, channel=1, data=[68, 100]),
   midi.NoteOffEvent(tick=188, channel=1, data=[68, 100]),
   midi.NoteOnEvent(tick=4, channel=1, data=[69, 100]),
   midi.NoteOffEvent(tick=124, channel=1, data=[69, 100]),
   midi.NoteOnEvent(tick=4, channel=1, data=[72, 100]),
   midi.NoteOffEvent(tick=124, channel=1, data=[72, 100]),
   midi.NoteOnEvent(tick=4, channel=1, data=[73, 100]),
   midi.NoteOffEvent(tick=124, channel=1, data=[73, 100]),
   midi.NoteOnEvent(tick=4, channel=1, data=[76, 100]),
   midi.NoteOffEvent(tick=92, channel=1, data=[76, 100]),
   midi.NoteOnEvent(tick=4, channel=1, data=[73, 100]),
   midi.NoteOffEvent(tick=92, channel=1, data=[73, 100]),
   midi.NoteOnEvent(tick=4, channel=1, data=[72, 100]),
   midi.NoteOffEvent(tick=92, channel=1, data=[72, 100]),
   midi.NoteOnEvent(tick=4, channel=1, data=[69, 100]),
   midi.NoteOffEvent(tick=92, channel=1, data=[69, 100]),
   midi.NoteOnEvent(tick=4, channel=1, data=[72, 100]),
   midi.NoteOffEvent(tick=124, channel=1, data=[72, 100]),
   midi.NoteOnEvent(tick=4, channel=1, data=[73, 100]),
   midi.NoteOffEvent(tick=124, channel=1, data=[73, 100]),
   midi.NoteOnEvent(tick=4, channel=1, data=[76, 100]),
   midi.NoteOffEvent(tick=124, channel=1, data=[76, 100]),
   midi.NoteOnEvent(tick=4, channel=1, data=[81, 100]),
   midi.NoteOffEvent(tick=92, channel=1, data=[81, 100]),
   midi.NoteOnEvent(tick=4, channel=1, data=[76, 100]),
   midi.NoteOffEvent(tick=92, channel=1, data=[76, 100]),
   midi.NoteOnEvent(tick=4, channel=1, data=[73, 100]),
   midi.NoteOffEvent(tick=92, channel=1, data=[73, 100]),
   midi.NoteOnEvent(tick=4, channel=1, data=[72, 100]),
   midi.NoteOffEvent(tick=92, channel=1, data=[72, 100]),
   midi.NoteOnEvent(tick=4, channel=1, data=[69, 100]),
   midi.NoteOffEvent(tick=188, channel=1, data=[69, 100]),
   midi.PitchWheelEvent(tick=4, channel=1, data=[0, 32]),
   midi.NoteOnEvent(tick=0, channel=1, data=[72, 100]),
   midi.PitchWheelEvent(tick=24, channel=1, data=[0, 64]),
   midi.NoteOffEvent(tick=68, channel=1, data=[72, 100]),
   midi.NoteOnEvent(tick=4, channel=1, data=[78, 100]),
   midi.NoteOffEvent(tick=92, channel=1, data=[78, 100]),
   midi.NoteOnEvent(tick=4, channel=1, data=[76, 100]),
   midi.NoteOffEvent(tick=92, channel=1, data=[76, 100]),
   midi.NoteOnEvent(tick=4, channel=1, data=[72, 100]),
   midi.NoteOffEvent(tick=92, channel=1, data=[72, 100]),
   midi.NoteOnEvent(tick=4, channel=1, data=[76, 100]),
   midi.NoteOffEvent(tick=92, channel=1, data=[76, 100]),
   midi.NoteOnEvent(tick=4, channel=1, data=[72, 100]),
   midi.NoteOffEvent(tick=92, channel=1, data=[72, 100]),
   midi.PitchWheelEvent(tick=4, channel=1, data=[0, 0]),
   midi.NoteOnEvent(tick=0, channel=1, data=[78, 100]),
   midi.PitchWheelEvent(tick=16, channel=1, data=[0, 16]),
   midi.PitchWheelEvent(tick=16, channel=1, data=[0, 32]),
   midi.PitchWheelEvent(tick=16, channel=1, data=[0, 48]),
   midi.PitchWheelEvent(tick=16, channel=1, data=[0, 64]),
   midi.PitchWheelEvent(tick=128, channel=1, data=[24, 56]),
   midi.PitchWheelEvent(tick=96, channel=1, data=[0, 64]),
   midi.PitchWheelEvent(tick=96, channel=1, data=[24, 56]),
   midi.PitchWheelEvent(tick=96, channel=1, data=[0, 64]),
   midi.NoteOffEvent(tick=92, channel=1, data=[78, 100]),
   midi.NoteOnEvent(tick=4, channel=1, data=[69, 100]),
   midi.NoteOffEvent(tick=92, channel=1, data=[69, 100]),
   midi.NoteOnEvent(tick=4, channel=1, data=[72, 100]),
   midi.NoteOffEvent(tick=192, channel=1, data=[72, 100]),
   midi.NoteOnEvent(tick=0, channel=1, data=[73, 100]),
   midi.NoteOffEvent(tick=92, channel=1, data=[73, 100]),
   midi.NoteOnEvent(tick=4, channel=1, data=[76, 100]),
   midi.NoteOffEvent(tick=92, channel=1, data=[76, 100]),
   midi.NoteOnEvent(tick=4, channel=1, data=[73, 100]),
   midi.NoteOffEvent(tick=92, channel=1, data=[73, 100]),
   midi.NoteOnEvent(tick=4, channel=1, data=[72, 100]),
   midi.NoteOffEvent(tick=124, channel=1, data=[72, 100]),
   midi.NoteOnEvent(tick=4, channel=1, data=[69, 100]),
   midi.NoteOffEvent(tick=124, channel=1, data=[69, 100]),
   midi.NoteOnEvent(tick=4, channel=1, data=[72, 100]),
   midi.NoteOffEvent(tick=124, channel=1, data=[72, 100]),
   midi.NoteOnEvent(tick=4, channel=1, data=[73, 100]),
   midi.NoteOffEvent(tick=124, channel=1, data=[73, 100]),
   midi.NoteOnEvent(tick=4, channel=1, data=[81, 100]),
   midi.NoteOffEvent(tick=124, channel=1, data=[81, 100]),
   midi.NoteOnEvent(tick=4, channel=1, data=[73, 100]),
   midi.NoteOffEvent(tick=124, channel=1, data=[73, 100]),
   midi.NoteOnEvent(tick=4, channel=1, data=[74, 100]),
   midi.NoteOffEvent(tick=124, channel=1, data=[74, 100]),
   midi.NoteOnEvent(tick=4, channel=1, data=[73, 100]),
   midi.NoteOffEvent(tick=124, channel=1, data=[73, 100]),
   midi.NoteOnEvent(tick=4, channel=1, data=[75, 100]),
   midi.NoteOffEvent(tick=124, channel=1, data=[75, 100]),
   midi.NoteOnEvent(tick=4, channel=1, data=[76, 100]),
   midi.NoteOffEvent(tick=92, channel=1, data=[76, 100]),
   midi.NoteOnEvent(tick=4, channel=1, data=[79, 100]),
   midi.NoteOffEvent(tick=188, channel=1, data=[79, 100]),
   midi.NoteOnEvent(tick=4, channel=1, data=[76, 100]),
   midi.NoteOffEvent(tick=92, channel=1, data=[76, 100]),
   midi.NoteOnEvent(tick=4, channel=1, data=[79, 100]),
   midi.NoteOffEvent(tick=92, channel=1, data=[79, 100]),
   midi.NoteOnEvent(tick=4, channel=1, data=[76, 100]),
   midi.NoteOffEvent(tick=92, channel=1, data=[76, 100]),
   midi.PitchWheelEvent(tick=4, channel=1, data=[0, 0]),
   midi.NoteOnEvent(tick=0, channel=1, data=[81, 100]),
   midi.PitchWheelEvent(tick=24, channel=1, data=[0, 8]),
   midi.PitchWheelEvent(tick=24, channel=1, data=[0, 16]),
   midi.PitchWheelEvent(tick=24, channel=1, data=[0, 24]),
   midi.PitchWheelEvent(tick=24, channel=1, data=[0, 32]),
   midi.PitchWheelEvent(tick=24, channel=1, data=[0, 40]),
   midi.PitchWheelEvent(tick=24, channel=1, data=[0, 48]),
   midi.PitchWheelEvent(tick=24, channel=1, data=[0, 56]),
   midi.PitchWheelEvent(tick=24, channel=1, data=[0, 64]),
   midi.PitchWheelEvent(tick=96, channel=1, data=[24, 56]),
   midi.PitchWheelEvent(tick=96, channel=1, data=[0, 64]),
   midi.PitchWheelEvent(tick=96, channel=1, data=[24, 56]),
   midi.NoteOffEvent(tick=92, channel=1, data=[81, 100]),
   midi.PitchWheelEvent(tick=4, channel=1, data=[0, 64]),
   midi.NoteOnEvent(tick=0, channel=1, data=[81, 100]),
   midi.NoteOffEvent(tick=92, channel=1, data=[81, 100]),
   midi.NoteOnEvent(tick=4, channel=1, data=[79, 100]),
   midi.NoteOffEvent(tick=92, channel=1, data=[79, 100]),
   midi.NoteOnEvent(tick=4, channel=1, data=[76, 100]),
   midi.NoteOffEvent(tick=188, channel=1, data=[76, 100]),
   midi.PitchWheelEvent(tick=4, channel=1, data=[0, 0]),
   midi.NoteOnEvent(tick=0, channel=1, data=[81, 100]),
   midi.PitchWheelEvent(tick=16, channel=1, data=[0, 16]),
   midi.PitchWheelEvent(tick=16, channel=1, data=[0, 32]),
   midi.PitchWheelEvent(tick=16, channel=1, data=[0, 48]),
   midi.PitchWheelEvent(tick=16, channel=1, data=[0, 64]),
   midi.NoteOffEvent(tick=188, channel=1, data=[81, 100]),
   midi.PitchWheelEvent(tick=4, channel=1, data=[0, 0]),
   midi.NoteOnEvent(tick=0, channel=1, data=[81, 100]),
   midi.PitchWheelEvent(tick=16, channel=1, data=[0, 16]),
   midi.PitchWheelEvent(tick=16, channel=1, data=[0, 32]),
   midi.PitchWheelEvent(tick=16, channel=1, data=[0, 48]),
   midi.PitchWheelEvent(tick=16, channel=1, data=[0, 64]),
   midi.NoteOffEvent(tick=188, channel=1, data=[81, 100]),
   midi.PitchWheelEvent(tick=4, channel=1, data=[0, 0]),
   midi.NoteOnEvent(tick=0, channel=1, data=[81, 100]),
   midi.PitchWheelEvent(tick=16, channel=1, data=[0, 16]),
   midi.PitchWheelEvent(tick=16, channel=1, data=[0, 32]),
   midi.PitchWheelEvent(tick=16, channel=1, data=[0, 48]),
   midi.PitchWheelEvent(tick=16, channel=1, data=[0, 64]),
   midi.NoteOffEvent(tick=188, channel=1, data=[81, 100]),
   midi.PitchWheelEvent(tick=4, channel=1, data=[0, 0]),
   midi.NoteOnEvent(tick=0, channel=1, data=[81, 100]),
   midi.PitchWheelEvent(tick=16, channel=1, data=[0, 16]),
   midi.PitchWheelEvent(tick=16, channel=1, data=[0, 32]),
   midi.PitchWheelEvent(tick=16, channel=1, data=[0, 48]),
   midi.PitchWheelEvent(tick=16, channel=1, data=[0, 64]),
   midi.NoteOffEvent(tick=316, channel=1, data=[81, 100]),
   midi.NoteOnEvent(tick=4, channel=1, data=[81, 100]),
   midi.NoteOffEvent(tick=124, channel=1, data=[81, 100]),
   midi.NoteOnEvent(tick=4, channel=1, data=[79, 100]),
   midi.NoteOffEvent(tick=124, channel=1, data=[79, 100]),
   midi.NoteOnEvent(tick=4, channel=1, data=[76, 100]),
   midi.NoteOffEvent(tick=124, channel=1, data=[76, 100]),
   midi.NoteOnEvent(tick=4, channel=1, data=[74, 100]),
   midi.PitchWheelEvent(tick=12, channel=1, data=[0, 80]),
   midi.PitchWheelEvent(tick=12, channel=1, data=[0, 96]),
   midi.PitchWheelEvent(tick=12, channel=1, data=[0, 112]),
   midi.PitchWheelEvent(tick=12, channel=1, data=[127, 127]),
   midi.PitchWheelEvent(tick=12, channel=1, data=[0, 112]),
   midi.PitchWheelEvent(tick=12, channel=1, data=[0, 96]),
   midi.PitchWheelEvent(tick=12, channel=1, data=[0, 80]),
   midi.PitchWheelEvent(tick=12, channel=1, data=[0, 64]),
   midi.NoteOffEvent(tick=188, channel=1, data=[74, 100]),
   midi.NoteOnEvent(tick=4, channel=1, data=[72, 100]),
   midi.NoteOffEvent(tick=92, channel=1, data=[72, 100]),
   midi.NoteOnEvent(tick=4, channel=1, data=[74, 100]),
   midi.NoteOffEvent(tick=188, channel=1, data=[74, 100]),
   midi.PitchWheelEvent(tick=4, channel=1, data=[0, 0]),
   midi.NoteOnEvent(tick=0, channel=1, data=[74, 100]),
   midi.PitchWheelEvent(tick=16, channel=1, data=[0, 16]),
   midi.PitchWheelEvent(tick=16, channel=1, data=[0, 32]),
   midi.PitchWheelEvent(tick=16, channel=1, data=[0, 48]),
   midi.PitchWheelEvent(tick=16, channel=1, data=[0, 64]),
   midi.PitchWheelEvent(tick=16, channel=1, data=[0, 80]),
   midi.PitchWheelEvent(tick=16, channel=1, data=[0, 96]),
   midi.NoteOffEvent(tick=92, channel=1, data=[74, 100]),
   midi.PitchWheelEvent(tick=4, channel=1, data=[0, 64]),
   midi.NoteOnEvent(tick=0, channel=1, data=[72, 100]),
   midi.PitchWheelEvent(tick=24, channel=1, data=[0, 80]),
   midi.PitchWheelEvent(tick=24, channel=1, data=[0, 96]),
   midi.PitchWheelEvent(tick=24, channel=1, data=[0, 112]),
   midi.PitchWheelEvent(tick=24, channel=1, data=[127, 127]),
   midi.PitchWheelEvent(tick=24, channel=1, data=[0, 112]),
   midi.PitchWheelEvent(tick=24, channel=1, data=[0, 96]),
   midi.PitchWheelEvent(tick=24, channel=1, data=[0, 80]),
   midi.PitchWheelEvent(tick=24, channel=1, data=[0, 64]),
   midi.NoteOffEvent(tick=192, channel=1, data=[72, 100]),
   midi.PitchWheelEvent(tick=0, channel=1, data=[0, 0]),
   midi.NoteOnEvent(tick=0, channel=1, data=[76, 100]),
   midi.PitchWheelEvent(tick=12, channel=1, data=[0, 16]),
   midi.PitchWheelEvent(tick=12, channel=1, data=[0, 32]),
   midi.PitchWheelEvent(tick=12, channel=1, data=[0, 48]),
   midi.PitchWheelEvent(tick=12, channel=1, data=[0, 64]),
   midi.NoteOffEvent(tick=76, channel=1, data=[76, 100]),
   midi.NoteOnEvent(tick=4, channel=1, data=[76, 100]),
   midi.NoteOffEvent(tick=124, channel=1, data=[76, 100]),
   midi.NoteOnEvent(tick=4, channel=1, data=[81, 100]),
   midi.NoteOffEvent(tick=124, channel=1, data=[81, 100]),
   midi.PitchWheelEvent(tick=4, channel=1, data=[0, 0]),
   midi.NoteOnEvent(tick=0, channel=1, data=[86, 100]),
   midi.PitchWheelEvent(tick=16, channel=1, data=[0, 16]),
   midi.PitchWheelEvent(tick=16, channel=1, data=[0, 32]),
   midi.PitchWheelEvent(tick=16, channel=1, data=[0, 48]),
   midi.PitchWheelEvent(tick=16, channel=1, data=[0, 64]),
   midi.NoteOffEvent(tick=124, channel=1, data=[86, 100]),
   midi.NoteOnEvent(tick=4, channel=1, data=[84, 100]),
   midi.NoteOffEvent(tick=188, channel=1, data=[84, 100]),
   midi.NoteOnEvent(tick=4, channel=1, data=[81, 100]),
   midi.NoteOffEvent(tick=124, channel=1, data=[81, 100]),
   midi.NoteOnEvent(tick=4, channel=1, data=[79, 100]),
   midi.NoteOffEvent(tick=124, channel=1, data=[79, 100]),
   midi.NoteOnEvent(tick=4, channel=1, data=[76, 100]),
   midi.NoteOffEvent(tick=124, channel=1, data=[76, 100]),
   midi.PitchWheelEvent(tick=4, channel=1, data=[0, 0]),
   midi.NoteOnEvent(tick=0, channel=1, data=[76, 100]),
   midi.PitchWheelEvent(tick=16, channel=1, data=[0, 16]),
   midi.PitchWheelEvent(tick=16, channel=1, data=[0, 32]),
   midi.PitchWheelEvent(tick=16, channel=1, data=[0, 48]),
   midi.PitchWheelEvent(tick=16, channel=1, data=[0, 64]),
   midi.NoteOffEvent(tick=124, channel=1, data=[76, 100]),
   midi.NoteOnEvent(tick=4, channel=1, data=[76, 100]),
   midi.NoteOffEvent(tick=188, channel=1, data=[76, 100]),
   midi.PitchWheelEvent(tick=4, channel=1, data=[0, 0]),
   midi.NoteOnEvent(tick=0, channel=1, data=[76, 100]),
   midi.PitchWheelEvent(tick=16, channel=1, data=[0, 16]),
   midi.PitchWheelEvent(tick=16, channel=1, data=[0, 32]),
   midi.PitchWheelEvent(tick=16, channel=1, data=[0, 48]),
   midi.PitchWheelEvent(tick=16, channel=1, data=[0, 64]),
   midi.NoteOffEvent(tick=124, channel=1, data=[76, 100]),
   midi.NoteOnEvent(tick=4, channel=1, data=[81, 100]),
   midi.NoteOffEvent(tick=188, channel=1, data=[81, 100]),
   midi.NoteOnEvent(tick=4, channel=1, data=[75, 100]),
   midi.NoteOffEvent(tick=124, channel=1, data=[75, 100]),
   midi.NoteOnEvent(tick=4, channel=1, data=[76, 100]),
   midi.NoteOffEvent(tick=124, channel=1, data=[76, 100]),
   midi.NoteOnEvent(tick=4, channel=1, data=[72, 100]),
   midi.NoteOffEvent(tick=124, channel=1, data=[72, 100]),
   midi.PitchWheelEvent(tick=4, channel=1, data=[0, 0]),
   midi.NoteOnEvent(tick=0, channel=1, data=[76, 100]),
   midi.PitchWheelEvent(tick=12, channel=1, data=[0, 16]),
   midi.PitchWheelEvent(tick=12, channel=1, data=[0, 32]),
   midi.PitchWheelEvent(tick=12, channel=1, data=[0, 48]),
   midi.PitchWheelEvent(tick=12, channel=1, data=[0, 64]),
   midi.PitchWheelEvent(tick=12, channel=1, data=[0, 80]),
   midi.PitchWheelEvent(tick=12, channel=1, data=[0, 96]),
   midi.PitchWheelEvent(tick=12, channel=1, data=[0, 112]),
   midi.PitchWheelEvent(tick=12, channel=1, data=[127, 127]),
   midi.NoteOffEvent(tick=92, channel=1, data=[76, 100]),
   midi.PitchWheelEvent(tick=4, channel=1, data=[0, 64]),
   midi.NoteOnEvent(tick=0, channel=1, data=[72, 100]),
   midi.NoteOffEvent(tick=188, channel=1, data=[72, 100]),
   midi.NoteOnEvent(tick=4, channel=1, data=[69, 100]),
   midi.PitchWheelEvent(tick=96, channel=1, data=[24, 56]),
   midi.PitchWheelEvent(tick=96, channel=1, data=[0, 64]),
   midi.PitchWheelEvent(tick=96, channel=1, data=[24, 56]),
   midi.PitchWheelEvent(tick=96, channel=1, data=[0, 64]),
   midi.NoteOffEvent(tick=380, channel=1, data=[69, 100]),
   midi.NoteOnEvent(tick=4, channel=1, data=[57, 100]),
   midi.NoteOffEvent(tick=576, channel=1, data=[57, 100]),
   midi.NoteOnEvent(tick=0, channel=1, data=[56, 100]),
   midi.NoteOffEvent(tick=576, channel=1, data=[56, 100]),
   midi.NoteOnEvent(tick=0, channel=1, data=[55, 100]),
   midi.NoteOffEvent(tick=576, channel=1, data=[55, 64]),
   midi.NoteOnEvent(tick=0, channel=1, data=[54, 100]),
   midi.NoteOffEvent(tick=576, channel=1, data=[54, 100]),
   midi.NoteOnEvent(tick=0, channel=1, data=[53, 100]),
   midi.NoteOffEvent(tick=384, channel=1, data=[53, 100]),
   midi.NoteOnEvent(tick=0, channel=1, data=[52, 100]),
   midi.NoteOffEvent(tick=384, channel=1, data=[52, 100]),
   midi.NoteOnEvent(tick=0, channel=1, data=[57, 100]),
   midi.NoteOnEvent(tick=0, channel=1, data=[45, 100]),
   midi.NoteOffEvent(tick=192, channel=1, data=[57, 100]),
   midi.NoteOffEvent(tick=0, channel=1, data=[45, 100]),
   midi.NoteOnEvent(tick=0, channel=1, data=[45, 100]),
   midi.NoteOffEvent(tick=76, channel=1, data=[45, 100]),
   midi.NoteOnEvent(tick=116, channel=1, data=[45, 100]),
   midi.NoteOffEvent(tick=76, channel=1, data=[45, 100]),
   midi.NoteOnEvent(tick=116, channel=1, data=[57, 100]),
   midi.NoteOnEvent(tick=0, channel=1, data=[45, 100]),
   midi.NoteOffEvent(tick=192, channel=1, data=[57, 100]),
   midi.NoteOffEvent(tick=0, channel=1, data=[45, 100]),
   midi.NoteOnEvent(tick=0, channel=1, data=[45, 100]),
   midi.NoteOffEvent(tick=76, channel=1, data=[45, 100]),
   midi.NoteOnEvent(tick=116, channel=1, data=[45, 100]),
   midi.NoteOffEvent(tick=76, channel=1, data=[45, 100]),
   midi.NoteOnEvent(tick=116, channel=1, data=[45, 100]),
   midi.NoteOnEvent(tick=0, channel=1, data=[57, 100]),
   midi.NoteOffEvent(tick=192, channel=1, data=[45, 100]),
   midi.NoteOffEvent(tick=0, channel=1, data=[57, 100]),
   midi.NoteOnEvent(tick=0, channel=1, data=[45, 100]),
   midi.NoteOffEvent(tick=76, channel=1, data=[45, 100]),
   midi.NoteOnEvent(tick=116, channel=1, data=[45, 100]),
   midi.NoteOffEvent(tick=76, channel=1, data=[45, 100]),
   midi.NoteOnEvent(tick=116, channel=1, data=[45, 100]),
   midi.NoteOffEvent(tick=76, channel=1, data=[45, 100]),
   midi.NoteOnEvent(tick=116, channel=1, data=[55, 100]),
   midi.NoteOnEvent(tick=0, channel=1, data=[60, 100]),
   midi.NoteOffEvent(tick=384, channel=1, data=[55, 100]),
   midi.NoteOffEvent(tick=0, channel=1, data=[60, 100]),
   midi.PitchWheelEvent(tick=0, channel=1, data=[0, 32]),
   midi.NoteOnEvent(tick=0, channel=1, data=[63, 100]),
   midi.NoteOnEvent(tick=0, channel=1, data=[58, 100]),
   midi.PitchWheelEvent(tick=24, channel=1, data=[0, 40]),
   midi.PitchWheelEvent(tick=16, channel=1, data=[0, 48]),
   midi.PitchWheelEvent(tick=16, channel=1, data=[0, 56]),
   midi.PitchWheelEvent(tick=16, channel=1, data=[0, 64]),
   midi.NoteOffEvent(tick=120, channel=1, data=[63, 100]),
   midi.NoteOffEvent(tick=0, channel=1, data=[58, 100]),
   midi.NoteOnEvent(tick=0, channel=1, data=[62, 100]),
   midi.NoteOnEvent(tick=0, channel=1, data=[57, 100]),
   midi.NoteOffEvent(tick=192, channel=1, data=[62, 100]),
   midi.NoteOffEvent(tick=0, channel=1, data=[57, 100]),
   midi.NoteOnEvent(tick=0, channel=1, data=[60, 100]),
   midi.NoteOnEvent(tick=0, channel=1, data=[55, 100]),
   midi.NoteOffEvent(tick=192, channel=1, data=[60, 100]),
   midi.NoteOffEvent(tick=0, channel=1, data=[55, 100]),
   midi.NoteOnEvent(tick=0, channel=1, data=[45, 100]),
   midi.NoteOffEvent(tick=76, channel=1, data=[45, 100]),
   midi.NoteOnEvent(tick=116, channel=1, data=[57, 100]),
   midi.NoteOnEvent(tick=0, channel=1, data=[45, 100]),
   midi.NoteOffEvent(tick=192, channel=1, data=[57, 100]),
   midi.NoteOffEvent(tick=0, channel=1, data=[45, 100]),
   midi.NoteOnEvent(tick=0, channel=1, data=[45, 100]),
   midi.NoteOffEvent(tick=76, channel=1, data=[45, 100]),
   midi.NoteOnEvent(tick=116, channel=1, data=[45, 100]),
   midi.NoteOffEvent(tick=76, channel=1, data=[45, 100]),
   midi.NoteOnEvent(tick=116, channel=1, data=[57, 100]),
   midi.NoteOnEvent(tick=0, channel=1, data=[45, 100]),
   midi.NoteOffEvent(tick=192, channel=1, data=[57, 100]),
   midi.NoteOffEvent(tick=0, channel=1, data=[45, 100]),
   midi.NoteOnEvent(tick=0, channel=1, data=[45, 100]),
   midi.NoteOffEvent(tick=76, channel=1, data=[45, 100]),
   midi.NoteOnEvent(tick=116, channel=1, data=[45, 100]),
   midi.NoteOffEvent(tick=76, channel=1, data=[45, 100]),
   midi.NoteOnEvent(tick=116, channel=1, data=[45, 100]),
   midi.NoteOnEvent(tick=0, channel=1, data=[57, 100]),
   midi.NoteOffEvent(tick=192, channel=1, data=[45, 100]),
   midi.NoteOffEvent(tick=0, channel=1, data=[57, 100]),
   midi.NoteOnEvent(tick=0, channel=1, data=[45, 100]),
   midi.NoteOffEvent(tick=76, channel=1, data=[45, 100]),
   midi.NoteOnEvent(tick=116, channel=1, data=[45, 100]),
   midi.NoteOffEvent(tick=76, channel=1, data=[45, 100]),
   midi.NoteOnEvent(tick=116, channel=1, data=[45, 100]),
   midi.NoteOffEvent(tick=76, channel=1, data=[45, 100]),
   midi.NoteOnEvent(tick=116, channel=1, data=[55, 100]),
   midi.NoteOnEvent(tick=0, channel=1, data=[60, 100]),
   midi.NoteOffEvent(tick=384, channel=1, data=[55, 100]),
   midi.NoteOffEvent(tick=0, channel=1, data=[60, 100]),
   midi.PitchWheelEvent(tick=0, channel=1, data=[0, 32]),
   midi.NoteOnEvent(tick=0, channel=1, data=[63, 100]),
   midi.NoteOnEvent(tick=0, channel=1, data=[58, 100]),
   midi.PitchWheelEvent(tick=24, channel=1, data=[0, 40]),
   midi.PitchWheelEvent(tick=16, channel=1, data=[0, 48]),
   midi.PitchWheelEvent(tick=16, channel=1, data=[0, 56]),
   midi.PitchWheelEvent(tick=16, channel=1, data=[0, 64]),
   midi.NoteOffEvent(tick=120, channel=1, data=[63, 100]),
   midi.NoteOffEvent(tick=0, channel=1, data=[58, 100]),
   midi.NoteOnEvent(tick=0, channel=1, data=[62, 100]),
   midi.NoteOnEvent(tick=0, channel=1, data=[57, 100]),
   midi.NoteOffEvent(tick=192, channel=1, data=[62, 100]),
   midi.NoteOffEvent(tick=0, channel=1, data=[57, 100]),
   midi.NoteOnEvent(tick=0, channel=1, data=[60, 100]),
   midi.NoteOnEvent(tick=0, channel=1, data=[55, 100]),
   midi.NoteOffEvent(tick=192, channel=1, data=[60, 100]),
   midi.NoteOffEvent(tick=0, channel=1, data=[55, 100]),
   midi.NoteOnEvent(tick=0, channel=1, data=[45, 100]),
   midi.NoteOffEvent(tick=76, channel=1, data=[45, 100]),
   midi.NoteOnEvent(tick=116, channel=1, data=[57, 100]),
   midi.NoteOnEvent(tick=0, channel=1, data=[45, 100]),
   midi.NoteOffEvent(tick=192, channel=1, data=[57, 100]),
   midi.NoteOffEvent(tick=0, channel=1, data=[45, 100]),
   midi.NoteOnEvent(tick=0, channel=1, data=[45, 100]),
   midi.NoteOffEvent(tick=76, channel=1, data=[45, 100]),
   midi.NoteOnEvent(tick=116, channel=1, data=[45, 100]),
   midi.NoteOffEvent(tick=76, channel=1, data=[45, 100]),
   midi.NoteOnEvent(tick=116, channel=1, data=[57, 100]),
   midi.NoteOnEvent(tick=0, channel=1, data=[45, 100]),
   midi.NoteOffEvent(tick=192, channel=1, data=[57, 100]),
   midi.NoteOffEvent(tick=0, channel=1, data=[45, 100]),
   midi.NoteOnEvent(tick=0, channel=1, data=[45, 100]),
   midi.NoteOffEvent(tick=76, channel=1, data=[45, 100]),
   midi.NoteOnEvent(tick=116, channel=1, data=[45, 100]),
   midi.NoteOffEvent(tick=76, channel=1, data=[45, 100]),
   midi.NoteOnEvent(tick=116, channel=1, data=[45, 100]),
   midi.NoteOnEvent(tick=0, channel=1, data=[57, 100]),
   midi.NoteOffEvent(tick=192, channel=1, data=[45, 100]),
   midi.NoteOffEvent(tick=0, channel=1, data=[57, 100]),
   midi.NoteOnEvent(tick=0, channel=1, data=[45, 100]),
   midi.NoteOffEvent(tick=76, channel=1, data=[45, 100]),
   midi.NoteOnEvent(tick=116, channel=1, data=[45, 100]),
   midi.NoteOffEvent(tick=76, channel=1, data=[45, 100]),
   midi.NoteOnEvent(tick=116, channel=1, data=[45, 100]),
   midi.NoteOffEvent(tick=76, channel=1, data=[45, 100]),
   midi.NoteOnEvent(tick=116, channel=1, data=[55, 100]),
   midi.NoteOnEvent(tick=0, channel=1, data=[60, 100]),
   midi.NoteOffEvent(tick=384, channel=1, data=[55, 100]),
   midi.NoteOffEvent(tick=0, channel=1, data=[60, 100]),
   midi.PitchWheelEvent(tick=0, channel=1, data=[0, 32]),
   midi.NoteOnEvent(tick=0, channel=1, data=[63, 100]),
   midi.NoteOnEvent(tick=0, channel=1, data=[58, 100]),
   midi.PitchWheelEvent(tick=24, channel=1, data=[0, 40]),
   midi.PitchWheelEvent(tick=16, channel=1, data=[0, 48]),
   midi.PitchWheelEvent(tick=16, channel=1, data=[0, 56]),
   midi.PitchWheelEvent(tick=16, channel=1, data=[0, 64]),
   midi.NoteOffEvent(tick=120, channel=1, data=[63, 100]),
   midi.NoteOffEvent(tick=0, channel=1, data=[58, 100]),
   midi.NoteOnEvent(tick=0, channel=1, data=[62, 100]),
   midi.NoteOnEvent(tick=0, channel=1, data=[57, 100]),
   midi.NoteOffEvent(tick=192, channel=1, data=[62, 100]),
   midi.NoteOffEvent(tick=0, channel=1, data=[57, 100]),
   midi.NoteOnEvent(tick=0, channel=1, data=[60, 100]),
   midi.NoteOnEvent(tick=0, channel=1, data=[55, 100]),
   midi.NoteOffEvent(tick=192, channel=1, data=[60, 100]),
   midi.NoteOffEvent(tick=0, channel=1, data=[55, 100]),
   midi.NoteOnEvent(tick=0, channel=1, data=[45, 100]),
   midi.NoteOffEvent(tick=76, channel=1, data=[45, 100]),
   midi.NoteOnEvent(tick=116, channel=1, data=[57, 100]),
   midi.NoteOnEvent(tick=0, channel=1, data=[45, 100]),
   midi.NoteOffEvent(tick=192, channel=1, data=[57, 100]),
   midi.NoteOffEvent(tick=0, channel=1, data=[45, 100]),
   midi.NoteOnEvent(tick=0, channel=1, data=[45, 100]),
   midi.NoteOffEvent(tick=76, channel=1, data=[45, 100]),
   midi.NoteOnEvent(tick=116, channel=1, data=[45, 100]),
   midi.NoteOffEvent(tick=76, channel=1, data=[45, 100]),
   midi.NoteOnEvent(tick=116, channel=1, data=[57, 100]),
   midi.NoteOnEvent(tick=0, channel=1, data=[45, 100]),
   midi.NoteOffEvent(tick=192, channel=1, data=[57, 100]),
   midi.NoteOffEvent(tick=0, channel=1, data=[45, 100]),
   midi.NoteOnEvent(tick=0, channel=1, data=[45, 100]),
   midi.NoteOffEvent(tick=76, channel=1, data=[45, 100]),
   midi.NoteOnEvent(tick=116, channel=1, data=[45, 100]),
   midi.NoteOffEvent(tick=76, channel=1, data=[45, 100]),
   midi.NoteOnEvent(tick=116, channel=1, data=[45, 100]),
   midi.NoteOnEvent(tick=0, channel=1, data=[57, 100]),
   midi.NoteOffEvent(tick=384, channel=1, data=[45, 100]),
   midi.NoteOffEvent(tick=0, channel=1, data=[57, 100]),
   midi.ProgramChangeEvent(tick=0, channel=1, data=[31]),
   midi.NoteOnEvent(tick=0, channel=1, data=[57, 100]),
   midi.NoteOffEvent(tick=124, channel=1, data=[57, 100]),
   midi.NoteOnEvent(tick=132, channel=1, data=[57, 100]),
   midi.NoteOffEvent(tick=124, channel=1, data=[57, 100]),
   midi.NoteOnEvent(tick=132, channel=1, data=[57, 100]),
   midi.NoteOffEvent(tick=124, channel=1, data=[57, 100]),
   midi.NoteOnEvent(tick=132, channel=1, data=[57, 100]),
   midi.NoteOffEvent(tick=124, channel=1, data=[57, 100]),
   midi.NoteOnEvent(tick=132, channel=1, data=[57, 100]),
   midi.NoteOffEvent(tick=124, channel=1, data=[57, 100]),
   midi.NoteOnEvent(tick=132, channel=1, data=[57, 100]),
   midi.NoteOffEvent(tick=124, channel=1, data=[57, 100]),
   midi.ProgramChangeEvent(tick=132, channel=1, data=[30]),
   midi.NoteOnEvent(tick=0, channel=1, data=[57, 100]),
   midi.NoteOnEvent(tick=0, channel=1, data=[45, 100]),
   midi.NoteOffEvent(tick=192, channel=1, data=[57, 100]),
   midi.NoteOffEvent(tick=0, channel=1, data=[45, 100]),
   midi.NoteOnEvent(tick=0, channel=1, data=[45, 100]),
   midi.NoteOffEvent(tick=76, channel=1, data=[45, 100]),
   midi.NoteOnEvent(tick=116, channel=1, data=[45, 100]),
   midi.NoteOffEvent(tick=76, channel=1, data=[45, 100]),
   midi.NoteOnEvent(tick=116, channel=1, data=[60, 100]),
   midi.NoteOnEvent(tick=0, channel=1, data=[55, 100]),
   midi.NoteOffEvent(tick=192, channel=1, data=[60, 100]),
   midi.NoteOffEvent(tick=0, channel=1, data=[55, 100]),
   midi.NoteOnEvent(tick=0, channel=1, data=[45, 100]),
   midi.NoteOffEvent(tick=76, channel=1, data=[45, 100]),
   midi.NoteOnEvent(tick=116, channel=1, data=[45, 100]),
   midi.NoteOffEvent(tick=76, channel=1, data=[45, 100]),
   midi.NoteOnEvent(tick=116, channel=1, data=[62, 100]),
   midi.NoteOnEvent(tick=0, channel=1, data=[57, 100]),
   midi.NoteOffEvent(tick=576, channel=1, data=[57, 64]),
   midi.NoteOffEvent(tick=0, channel=1, data=[62, 64]),
   midi.NoteOnEvent(tick=0, channel=1, data=[57, 100]),
   midi.NoteOnEvent(tick=0, channel=1, data=[52, 100]),
   midi.NoteOffEvent(tick=192, channel=1, data=[57, 100]),
   midi.NoteOffEvent(tick=0, channel=1, data=[52, 100]),
   midi.NoteOnEvent(tick=0, channel=1, data=[60, 100]),
   midi.NoteOnEvent(tick=0, channel=1, data=[55, 100]),
   midi.NoteOffEvent(tick=384, channel=1, data=[60, 100]),
   midi.NoteOffEvent(tick=0, channel=1, data=[55, 100]),
   midi.PitchWheelEvent(tick=0, channel=1, data=[0, 32]),
   midi.NoteOnEvent(tick=0, channel=1, data=[58, 100]),
   midi.NoteOnEvent(tick=0, channel=1, data=[63, 100]),
   midi.PitchWheelEvent(tick=24, channel=1, data=[0, 40]),
   midi.PitchWheelEvent(tick=16, channel=1, data=[0, 48]),
   midi.PitchWheelEvent(tick=16, channel=1, data=[0, 56]),
   midi.PitchWheelEvent(tick=16, channel=1, data=[0, 64]),
   midi.NoteOffEvent(tick=120, channel=1, data=[58, 100]),
   midi.NoteOffEvent(tick=0, channel=1, data=[63, 100]),
   midi.NoteOnEvent(tick=0, channel=1, data=[62, 100]),
   midi.NoteOnEvent(tick=0, channel=1, data=[57, 100]),
   midi.NoteOffEvent(tick=192, channel=1, data=[62, 100]),
   midi.NoteOffEvent(tick=0, channel=1, data=[57, 100]),
   midi.NoteOnEvent(tick=0, channel=1, data=[60, 100]),
   midi.NoteOnEvent(tick=0, channel=1, data=[55, 100]),
   midi.NoteOffEvent(tick=192, channel=1, data=[60, 100]),
   midi.NoteOffEvent(tick=0, channel=1, data=[55, 100]),
   midi.NoteOnEvent(tick=0, channel=1, data=[57, 100]),
   midi.NoteOffEvent(tick=192, channel=1, data=[57, 100]),
   midi.NoteOnEvent(tick=0, channel=1, data=[57, 100]),
   midi.NoteOnEvent(tick=0, channel=1, data=[45, 100]),
   midi.NoteOffEvent(tick=192, channel=1, data=[57, 100]),
   midi.NoteOffEvent(tick=0, channel=1, data=[45, 100]),
   midi.NoteOnEvent(tick=0, channel=1, data=[45, 100]),
   midi.NoteOffEvent(tick=76, channel=1, data=[45, 100]),
   midi.NoteOnEvent(tick=116, channel=1, data=[45, 100]),
   midi.NoteOffEvent(tick=76, channel=1, data=[45, 100]),
   midi.NoteOnEvent(tick=116, channel=1, data=[60, 100]),
   midi.NoteOnEvent(tick=0, channel=1, data=[55, 100]),
   midi.NoteOffEvent(tick=192, channel=1, data=[60, 100]),
   midi.NoteOffEvent(tick=0, channel=1, data=[55, 100]),
   midi.NoteOnEvent(tick=192, channel=1, data=[43, 100]),
   midi.NoteOffEvent(tick=76, channel=1, data=[43, 100]),
   midi.NoteOnEvent(tick=116, channel=1, data=[57, 100]),
   midi.NoteOnEvent(tick=0, channel=1, data=[52, 100]),
   midi.NoteOnEvent(tick=0, channel=1, data=[45, 100]),
   midi.NoteOffEvent(tick=576, channel=1, data=[45, 64]),
   midi.NoteOffEvent(tick=0, channel=1, data=[52, 64]),
   midi.NoteOffEvent(tick=0, channel=1, data=[57, 64]),
   midi.NoteOnEvent(tick=0, channel=1, data=[57, 100]),
   midi.NoteOnEvent(tick=0, channel=1, data=[52, 100]),
   midi.NoteOffEvent(tick=192, channel=1, data=[57, 100]),
   midi.NoteOffEvent(tick=0, channel=1, data=[52, 100]),
   midi.NoteOnEvent(tick=0, channel=1, data=[60, 100]),
   midi.NoteOnEvent(tick=0, channel=1, data=[55, 100]),
   midi.NoteOffEvent(tick=384, channel=1, data=[60, 100]),
   midi.NoteOffEvent(tick=0, channel=1, data=[55, 100]),
   midi.PitchWheelEvent(tick=0, channel=1, data=[0, 32]),
   midi.NoteOnEvent(tick=0, channel=1, data=[58, 100]),
   midi.NoteOnEvent(tick=0, channel=1, data=[63, 100]),
   midi.PitchWheelEvent(tick=24, channel=1, data=[0, 40]),
   midi.PitchWheelEvent(tick=16, channel=1, data=[0, 48]),
   midi.PitchWheelEvent(tick=16, channel=1, data=[0, 56]),
   midi.PitchWheelEvent(tick=16, channel=1, data=[0, 64]),
   midi.NoteOffEvent(tick=120, channel=1, data=[58, 100]),
   midi.NoteOffEvent(tick=0, channel=1, data=[63, 100]),
   midi.NoteOnEvent(tick=0, channel=1, data=[62, 100]),
   midi.NoteOnEvent(tick=0, channel=1, data=[57, 100]),
   midi.NoteOffEvent(tick=192, channel=1, data=[62, 100]),
   midi.NoteOffEvent(tick=0, channel=1, data=[57, 100]),
   midi.NoteOnEvent(tick=0, channel=1, data=[60, 100]),
   midi.NoteOnEvent(tick=0, channel=1, data=[55, 100]),
   midi.NoteOffEvent(tick=192, channel=1, data=[60, 100]),
   midi.NoteOffEvent(tick=0, channel=1, data=[55, 100]),
   midi.NoteOnEvent(tick=0, channel=1, data=[57, 100]),
   midi.NoteOffEvent(tick=192, channel=1, data=[57, 100]),
   midi.NoteOnEvent(tick=0, channel=1, data=[57, 100]),
   midi.NoteOnEvent(tick=0, channel=1, data=[45, 100]),
   midi.NoteOffEvent(tick=192, channel=1, data=[57, 100]),
   midi.NoteOffEvent(tick=0, channel=1, data=[45, 100]),
   midi.NoteOnEvent(tick=0, channel=1, data=[45, 100]),
   midi.NoteOffEvent(tick=76, channel=1, data=[45, 100]),
   midi.NoteOnEvent(tick=116, channel=1, data=[45, 100]),
   midi.NoteOffEvent(tick=76, channel=1, data=[45, 100]),
   midi.NoteOnEvent(tick=116, channel=1, data=[60, 100]),
   midi.NoteOnEvent(tick=0, channel=1, data=[55, 100]),
   midi.NoteOffEvent(tick=192, channel=1, data=[60, 100]),
   midi.NoteOffEvent(tick=0, channel=1, data=[55, 100]),
   midi.NoteOnEvent(tick=0, channel=1, data=[45, 100]),
   midi.NoteOffEvent(tick=76, channel=1, data=[45, 100]),
   midi.NoteOnEvent(tick=116, channel=1, data=[45, 100]),
   midi.NoteOffEvent(tick=76, channel=1, data=[45, 100]),
   midi.NoteOnEvent(tick=116, channel=1, data=[62, 100]),
   midi.NoteOnEvent(tick=0, channel=1, data=[57, 100]),
   midi.NoteOffEvent(tick=576, channel=1, data=[57, 64]),
   midi.NoteOffEvent(tick=0, channel=1, data=[62, 64]),
   midi.NoteOnEvent(tick=0, channel=1, data=[57, 100]),
   midi.NoteOnEvent(tick=0, channel=1, data=[52, 100]),
   midi.NoteOffEvent(tick=192, channel=1, data=[57, 100]),
   midi.NoteOffEvent(tick=0, channel=1, data=[52, 100]),
   midi.NoteOnEvent(tick=0, channel=1, data=[60, 100]),
   midi.NoteOnEvent(tick=0, channel=1, data=[55, 100]),
   midi.NoteOffEvent(tick=384, channel=1, data=[60, 100]),
   midi.NoteOffEvent(tick=0, channel=1, data=[55, 100]),
   midi.PitchWheelEvent(tick=0, channel=1, data=[0, 32]),
   midi.NoteOnEvent(tick=0, channel=1, data=[58, 100]),
   midi.NoteOnEvent(tick=0, channel=1, data=[63, 100]),
   midi.PitchWheelEvent(tick=24, channel=1, data=[0, 40]),
   midi.PitchWheelEvent(tick=16, channel=1, data=[0, 48]),
   midi.PitchWheelEvent(tick=16, channel=1, data=[0, 56]),
   midi.PitchWheelEvent(tick=16, channel=1, data=[0, 64]),
   midi.NoteOffEvent(tick=120, channel=1, data=[58, 100]),
   midi.NoteOffEvent(tick=0, channel=1, data=[63, 100]),
   midi.NoteOnEvent(tick=0, channel=1, data=[62, 100]),
   midi.NoteOnEvent(tick=0, channel=1, data=[57, 100]),
   midi.NoteOffEvent(tick=192, channel=1, data=[62, 100]),
   midi.NoteOffEvent(tick=0, channel=1, data=[57, 100]),
   midi.NoteOnEvent(tick=0, channel=1, data=[60, 100]),
   midi.NoteOnEvent(tick=0, channel=1, data=[55, 100]),
   midi.NoteOffEvent(tick=192, channel=1, data=[60, 100]),
   midi.NoteOffEvent(tick=0, channel=1, data=[55, 100]),
   midi.NoteOnEvent(tick=0, channel=1, data=[57, 100]),
   midi.NoteOffEvent(tick=192, channel=1, data=[57, 100]),
   midi.NoteOnEvent(tick=0, channel=1, data=[57, 100]),
   midi.NoteOnEvent(tick=0, channel=1, data=[45, 100]),
   midi.NoteOffEvent(tick=192, channel=1, data=[57, 100]),
   midi.NoteOffEvent(tick=0, channel=1, data=[45, 100]),
   midi.NoteOnEvent(tick=0, channel=1, data=[45, 100]),
   midi.NoteOffEvent(tick=76, channel=1, data=[45, 100]),
   midi.NoteOnEvent(tick=116, channel=1, data=[45, 100]),
   midi.NoteOffEvent(tick=76, channel=1, data=[45, 100]),
   midi.NoteOnEvent(tick=116, channel=1, data=[60, 100]),
   midi.NoteOnEvent(tick=0, channel=1, data=[55, 100]),
   midi.NoteOffEvent(tick=192, channel=1, data=[60, 100]),
   midi.NoteOffEvent(tick=0, channel=1, data=[55, 100]),
   midi.NoteOnEvent(tick=192, channel=1, data=[43, 100]),
   midi.NoteOffEvent(tick=76, channel=1, data=[43, 100]),
   midi.NoteOnEvent(tick=116, channel=1, data=[57, 100]),
   midi.NoteOnEvent(tick=0, channel=1, data=[52, 100]),
   midi.NoteOnEvent(tick=0, channel=1, data=[45, 100]),
   midi.NoteOffEvent(tick=576, channel=1, data=[45, 64]),
   midi.NoteOffEvent(tick=0, channel=1, data=[52, 64]),
   midi.NoteOffEvent(tick=0, channel=1, data=[57, 64]),
   midi.NoteOnEvent(tick=0, channel=1, data=[57, 100]),
   midi.NoteOnEvent(tick=0, channel=1, data=[52, 100]),
   midi.NoteOffEvent(tick=192, channel=1, data=[57, 100]),
   midi.NoteOffEvent(tick=0, channel=1, data=[52, 100]),
   midi.NoteOnEvent(tick=0, channel=1, data=[60, 100]),
   midi.NoteOnEvent(tick=0, channel=1, data=[55, 100]),
   midi.NoteOffEvent(tick=384, channel=1, data=[60, 100]),
   midi.NoteOffEvent(tick=0, channel=1, data=[55, 100]),
   midi.PitchWheelEvent(tick=0, channel=1, data=[0, 32]),
   midi.NoteOnEvent(tick=0, channel=1, data=[58, 100]),
   midi.NoteOnEvent(tick=0, channel=1, data=[63, 100]),
   midi.PitchWheelEvent(tick=24, channel=1, data=[0, 40]),
   midi.PitchWheelEvent(tick=16, channel=1, data=[0, 48]),
   midi.PitchWheelEvent(tick=16, channel=1, data=[0, 56]),
   midi.PitchWheelEvent(tick=16, channel=1, data=[0, 64]),
   midi.NoteOffEvent(tick=120, channel=1, data=[58, 100]),
   midi.NoteOffEvent(tick=0, channel=1, data=[63, 100]),
   midi.NoteOnEvent(tick=0, channel=1, data=[62, 100]),
   midi.NoteOnEvent(tick=0, channel=1, data=[57, 100]),
   midi.NoteOffEvent(tick=192, channel=1, data=[62, 100]),
   midi.NoteOffEvent(tick=0, channel=1, data=[57, 100]),
   midi.NoteOnEvent(tick=0, channel=1, data=[60, 100]),
   midi.NoteOnEvent(tick=0, channel=1, data=[55, 100]),
   midi.NoteOffEvent(tick=192, channel=1, data=[60, 100]),
   midi.NoteOffEvent(tick=0, channel=1, data=[55, 100]),
   midi.NoteOnEvent(tick=0, channel=1, data=[57, 100]),
   midi.NoteOffEvent(tick=192, channel=1, data=[57, 100]),
   midi.NoteOnEvent(tick=0, channel=1, data=[57, 100]),
   midi.NoteOnEvent(tick=0, channel=1, data=[45, 100]),
   midi.NoteOffEvent(tick=192, channel=1, data=[57, 100]),
   midi.NoteOffEvent(tick=0, channel=1, data=[45, 100]),
   midi.NoteOnEvent(tick=0, channel=1, data=[45, 100]),
   midi.NoteOffEvent(tick=76, channel=1, data=[45, 100]),
   midi.NoteOnEvent(tick=116, channel=1, data=[45, 100]),
   midi.NoteOffEvent(tick=76, channel=1, data=[45, 100]),
   midi.NoteOnEvent(tick=116, channel=1, data=[60, 100]),
   midi.NoteOnEvent(tick=0, channel=1, data=[55, 100]),
   midi.NoteOffEvent(tick=192, channel=1, data=[60, 100]),
   midi.NoteOffEvent(tick=0, channel=1, data=[55, 100]),
   midi.NoteOnEvent(tick=0, channel=1, data=[45, 100]),
   midi.NoteOffEvent(tick=76, channel=1, data=[45, 100]),
   midi.NoteOnEvent(tick=116, channel=1, data=[45, 100]),
   midi.NoteOffEvent(tick=76, channel=1, data=[45, 100]),
   midi.NoteOnEvent(tick=116, channel=1, data=[62, 100]),
   midi.NoteOnEvent(tick=0, channel=1, data=[57, 100]),
   midi.NoteOffEvent(tick=576, channel=1, data=[57, 64]),
   midi.NoteOffEvent(tick=0, channel=1, data=[62, 64]),
   midi.NoteOnEvent(tick=0, channel=1, data=[57, 100]),
   midi.NoteOnEvent(tick=0, channel=1, data=[52, 100]),
   midi.NoteOffEvent(tick=192, channel=1, data=[57, 100]),
   midi.NoteOffEvent(tick=0, channel=1, data=[52, 100]),
   midi.NoteOnEvent(tick=0, channel=1, data=[60, 100]),
   midi.NoteOnEvent(tick=0, channel=1, data=[55, 100]),
   midi.NoteOffEvent(tick=384, channel=1, data=[60, 100]),
   midi.NoteOffEvent(tick=0, channel=1, data=[55, 100]),
   midi.PitchWheelEvent(tick=0, channel=1, data=[0, 32]),
   midi.NoteOnEvent(tick=0, channel=1, data=[58, 100]),
   midi.NoteOnEvent(tick=0, channel=1, data=[63, 100]),
   midi.PitchWheelEvent(tick=24, channel=1, data=[0, 40]),
   midi.PitchWheelEvent(tick=16, channel=1, data=[0, 48]),
   midi.PitchWheelEvent(tick=16, channel=1, data=[0, 56]),
   midi.PitchWheelEvent(tick=16, channel=1, data=[0, 64]),
   midi.NoteOffEvent(tick=120, channel=1, data=[58, 100]),
   midi.NoteOffEvent(tick=0, channel=1, data=[63, 100]),
   midi.NoteOnEvent(tick=0, channel=1, data=[62, 100]),
   midi.NoteOnEvent(tick=0, channel=1, data=[57, 100]),
   midi.NoteOffEvent(tick=192, channel=1, data=[62, 100]),
   midi.NoteOffEvent(tick=0, channel=1, data=[57, 100]),
   midi.NoteOnEvent(tick=0, channel=1, data=[60, 100]),
   midi.NoteOnEvent(tick=0, channel=1, data=[55, 100]),
   midi.NoteOffEvent(tick=192, channel=1, data=[60, 100]),
   midi.NoteOffEvent(tick=0, channel=1, data=[55, 100]),
   midi.NoteOnEvent(tick=0, channel=1, data=[57, 100]),
   midi.NoteOffEvent(tick=192, channel=1, data=[57, 100]),
   midi.NoteOnEvent(tick=0, channel=1, data=[57, 100]),
   midi.NoteOnEvent(tick=0, channel=1, data=[45, 100]),
   midi.NoteOffEvent(tick=192, channel=1, data=[57, 100]),
   midi.NoteOffEvent(tick=0, channel=1, data=[45, 100]),
   midi.NoteOnEvent(tick=0, channel=1, data=[45, 100]),
   midi.NoteOffEvent(tick=76, channel=1, data=[45, 100]),
   midi.NoteOnEvent(tick=116, channel=1, data=[45, 100]),
   midi.NoteOffEvent(tick=76, channel=1, data=[45, 100]),
   midi.NoteOnEvent(tick=116, channel=1, data=[60, 100]),
   midi.NoteOnEvent(tick=0, channel=1, data=[55, 100]),
   midi.NoteOffEvent(tick=192, channel=1, data=[60, 100]),
   midi.NoteOffEvent(tick=0, channel=1, data=[55, 100]),
   midi.NoteOnEvent(tick=192, channel=1, data=[43, 100]),
   midi.NoteOffEvent(tick=76, channel=1, data=[43, 100]),
   midi.NoteOnEvent(tick=116, channel=1, data=[57, 100]),
   midi.NoteOnEvent(tick=0, channel=1, data=[52, 100]),
   midi.NoteOnEvent(tick=0, channel=1, data=[45, 100]),
   midi.NoteOffEvent(tick=576, channel=1, data=[45, 64]),
   midi.NoteOffEvent(tick=0, channel=1, data=[52, 64]),
   midi.NoteOffEvent(tick=0, channel=1, data=[57, 64]),
   midi.NoteOnEvent(tick=0, channel=1, data=[57, 100]),
   midi.NoteOnEvent(tick=0, channel=1, data=[52, 100]),
   midi.NoteOffEvent(tick=192, channel=1, data=[57, 100]),
   midi.NoteOffEvent(tick=0, channel=1, data=[52, 100]),
   midi.NoteOnEvent(tick=0, channel=1, data=[60, 100]),
   midi.NoteOnEvent(tick=0, channel=1, data=[55, 100]),
   midi.NoteOffEvent(tick=384, channel=1, data=[60, 100]),
   midi.NoteOffEvent(tick=0, channel=1, data=[55, 100]),
   midi.PitchWheelEvent(tick=0, channel=1, data=[0, 32]),
   midi.NoteOnEvent(tick=0, channel=1, data=[58, 100]),
   midi.NoteOnEvent(tick=0, channel=1, data=[63, 100]),
   midi.PitchWheelEvent(tick=24, channel=1, data=[0, 40]),
   midi.PitchWheelEvent(tick=16, channel=1, data=[0, 48]),
   midi.PitchWheelEvent(tick=16, channel=1, data=[0, 56]),
   midi.PitchWheelEvent(tick=16, channel=1, data=[0, 64]),
   midi.NoteOffEvent(tick=120, channel=1, data=[58, 100]),
   midi.NoteOffEvent(tick=0, channel=1, data=[63, 100]),
   midi.NoteOnEvent(tick=0, channel=1, data=[62, 100]),
   midi.NoteOnEvent(tick=0, channel=1, data=[57, 100]),
   midi.NoteOffEvent(tick=192, channel=1, data=[62, 100]),
   midi.NoteOffEvent(tick=0, channel=1, data=[57, 100]),
   midi.NoteOnEvent(tick=0, channel=1, data=[60, 100]),
   midi.NoteOnEvent(tick=0, channel=1, data=[55, 100]),
   midi.NoteOffEvent(tick=192, channel=1, data=[60, 100]),
   midi.NoteOffEvent(tick=0, channel=1, data=[55, 100]),
   midi.NoteOnEvent(tick=0, channel=1, data=[57, 100]),
   midi.NoteOffEvent(tick=192, channel=1, data=[57, 100]),
   midi.NoteOnEvent(tick=0, channel=1, data=[57, 100]),
   midi.NoteOnEvent(tick=0, channel=1, data=[45, 100]),
   midi.NoteOffEvent(tick=192, channel=1, data=[57, 100]),
   midi.NoteOffEvent(tick=0, channel=1, data=[45, 100]),
   midi.NoteOnEvent(tick=0, channel=1, data=[45, 100]),
   midi.NoteOffEvent(tick=76, channel=1, data=[45, 100]),
   midi.NoteOnEvent(tick=116, channel=1, data=[45, 100]),
   midi.NoteOffEvent(tick=76, channel=1, data=[45, 100]),
   midi.NoteOnEvent(tick=116, channel=1, data=[60, 100]),
   midi.NoteOnEvent(tick=0, channel=1, data=[55, 100]),
   midi.NoteOffEvent(tick=192, channel=1, data=[60, 100]),
   midi.NoteOffEvent(tick=0, channel=1, data=[55, 100]),
   midi.NoteOnEvent(tick=0, channel=1, data=[45, 100]),
   midi.NoteOffEvent(tick=76, channel=1, data=[45, 100]),
   midi.NoteOnEvent(tick=116, channel=1, data=[45, 100]),
   midi.NoteOffEvent(tick=76, channel=1, data=[45, 100]),
   midi.NoteOnEvent(tick=116, channel=1, data=[62, 100]),
   midi.NoteOnEvent(tick=0, channel=1, data=[57, 100]),
   midi.NoteOffEvent(tick=576, channel=1, data=[57, 64]),
   midi.NoteOffEvent(tick=0, channel=1, data=[62, 64]),
   midi.NoteOnEvent(tick=0, channel=1, data=[57, 100]),
   midi.NoteOnEvent(tick=0, channel=1, data=[52, 100]),
   midi.NoteOffEvent(tick=192, channel=1, data=[57, 100]),
   midi.NoteOffEvent(tick=0, channel=1, data=[52, 100]),
   midi.NoteOnEvent(tick=0, channel=1, data=[60, 100]),
   midi.NoteOnEvent(tick=0, channel=1, data=[55, 100]),
   midi.NoteOffEvent(tick=384, channel=1, data=[60, 100]),
   midi.NoteOffEvent(tick=0, channel=1, data=[55, 100]),
   midi.PitchWheelEvent(tick=0, channel=1, data=[0, 32]),
   midi.NoteOnEvent(tick=0, channel=1, data=[58, 100]),
   midi.NoteOnEvent(tick=0, channel=1, data=[63, 100]),
   midi.PitchWheelEvent(tick=24, channel=1, data=[0, 40]),
   midi.PitchWheelEvent(tick=16, channel=1, data=[0, 48]),
   midi.PitchWheelEvent(tick=16, channel=1, data=[0, 56]),
   midi.PitchWheelEvent(tick=16, channel=1, data=[0, 64]),
   midi.NoteOffEvent(tick=120, channel=1, data=[58, 100]),
   midi.NoteOffEvent(tick=0, channel=1, data=[63, 100]),
   midi.NoteOnEvent(tick=0, channel=1, data=[62, 100]),
   midi.NoteOnEvent(tick=0, channel=1, data=[57, 100]),
   midi.NoteOffEvent(tick=192, channel=1, data=[62, 100]),
   midi.NoteOffEvent(tick=0, channel=1, data=[57, 100]),
   midi.NoteOnEvent(tick=0, channel=1, data=[60, 100]),
   midi.NoteOnEvent(tick=0, channel=1, data=[55, 100]),
   midi.NoteOffEvent(tick=192, channel=1, data=[60, 100]),
   midi.NoteOffEvent(tick=0, channel=1, data=[55, 100]),
   midi.NoteOnEvent(tick=0, channel=1, data=[57, 100]),
   midi.NoteOffEvent(tick=192, channel=1, data=[57, 100]),
   midi.NoteOnEvent(tick=0, channel=1, data=[57, 100]),
   midi.NoteOnEvent(tick=0, channel=1, data=[45, 100]),
   midi.NoteOffEvent(tick=192, channel=1, data=[57, 100]),
   midi.NoteOffEvent(tick=0, channel=1, data=[45, 100]),
   midi.NoteOnEvent(tick=0, channel=1, data=[45, 100]),
   midi.NoteOffEvent(tick=76, channel=1, data=[45, 100]),
   midi.NoteOnEvent(tick=116, channel=1, data=[45, 100]),
   midi.NoteOffEvent(tick=76, channel=1, data=[45, 100]),
   midi.NoteOnEvent(tick=116, channel=1, data=[60, 100]),
   midi.NoteOnEvent(tick=0, channel=1, data=[55, 100]),
   midi.NoteOffEvent(tick=192, channel=1, data=[60, 100]),
   midi.NoteOffEvent(tick=0, channel=1, data=[55, 100]),
   midi.NoteOnEvent(tick=192, channel=1, data=[43, 100]),
   midi.NoteOffEvent(tick=76, channel=1, data=[43, 100]),
   midi.NoteOnEvent(tick=116, channel=1, data=[45, 100]),
   midi.NoteOnEvent(tick=0, channel=1, data=[52, 100]),
   midi.NoteOnEvent(tick=0, channel=1, data=[57, 100]),
   midi.NoteOffEvent(tick=1920, channel=1, data=[57, 64]),
   midi.NoteOffEvent(tick=0, channel=1, data=[52, 64]),
   midi.NoteOffEvent(tick=0, channel=1, data=[45, 64]),
   midi.NoteOnEvent(tick=0, channel=1, data=[57, 100]),
   midi.NoteOffEvent(tick=188, channel=1, data=[57, 100]),
   midi.NoteOnEvent(tick=4, channel=1, data=[45, 100]),
   midi.NoteOffEvent(tick=380, channel=1, data=[45, 100]),
   midi.NoteOnEvent(tick=4, channel=1, data=[57, 100]),
   midi.NoteOffEvent(tick=188, channel=1, data=[57, 100]),
   midi.NoteOnEvent(tick=4, channel=1, data=[44, 100]),
   midi.NoteOffEvent(tick=380, channel=1, data=[44, 100]),
   midi.NoteOnEvent(tick=4, channel=1, data=[57, 100]),
   midi.NoteOffEvent(tick=188, channel=1, data=[57, 100]),
   midi.NoteOnEvent(tick=4, channel=1, data=[43, 100]),
   midi.NoteOffEvent(tick=380, channel=1, data=[43, 100]),
   midi.NoteOnEvent(tick=4, channel=1, data=[57, 100]),
   midi.NoteOnEvent(tick=0, channel=1, data=[52, 100]),
   midi.NoteOffEvent(tick=188, channel=1, data=[57, 100]),
   midi.NoteOffEvent(tick=0, channel=1, data=[52, 100]),
   midi.NoteOnEvent(tick=4, channel=1, data=[60, 100]),
   midi.NoteOnEvent(tick=0, channel=1, data=[55, 100]),
   midi.NoteOffEvent(tick=384, channel=1, data=[60, 100]),
   midi.NoteOffEvent(tick=0, channel=1, data=[55, 100]),
   midi.PitchWheelEvent(tick=0, channel=1, data=[0, 32]),
   midi.NoteOnEvent(tick=0, channel=1, data=[58, 100]),
   midi.NoteOnEvent(tick=0, channel=1, data=[63, 100]),
   midi.PitchWheelEvent(tick=24, channel=1, data=[0, 40]),
   midi.PitchWheelEvent(tick=16, channel=1, data=[0, 48]),
   midi.PitchWheelEvent(tick=16, channel=1, data=[0, 56]),
   midi.PitchWheelEvent(tick=16, channel=1, data=[0, 64]),
   midi.NoteOffEvent(tick=120, channel=1, data=[58, 100]),
   midi.NoteOffEvent(tick=0, channel=1, data=[63, 100]),
   midi.NoteOnEvent(tick=0, channel=1, data=[62, 100]),
   midi.NoteOnEvent(tick=0, channel=1, data=[57, 100]),
   midi.NoteOffEvent(tick=192, channel=1, data=[62, 100]),
   midi.NoteOffEvent(tick=0, channel=1, data=[57, 100]),
   midi.NoteOnEvent(tick=0, channel=1, data=[60, 100]),
   midi.NoteOnEvent(tick=0, channel=1, data=[55, 100]),
   midi.NoteOffEvent(tick=192, channel=1, data=[60, 100]),
   midi.NoteOffEvent(tick=0, channel=1, data=[55, 100]),
   midi.NoteOnEvent(tick=0, channel=1, data=[57, 100]),
   midi.NoteOffEvent(tick=192, channel=1, data=[57, 100]),
   midi.NoteOnEvent(tick=0, channel=1, data=[53, 100]),
   midi.NoteOffEvent(tick=188, channel=1, data=[53, 100]),
   midi.NoteOnEvent(tick=4, channel=1, data=[41, 100]),
   midi.NoteOffEvent(tick=380, channel=1, data=[41, 100]),
   midi.NoteOnEvent(tick=4, channel=1, data=[53, 100]),
   midi.NoteOffEvent(tick=188, channel=1, data=[53, 100]),
   midi.NoteOnEvent(tick=4, channel=1, data=[40, 100]),
   midi.NoteOffEvent(tick=380, channel=1, data=[40, 100]),
   midi.NoteOnEvent(tick=4, channel=1, data=[53, 100]),
   midi.NoteOffEvent(tick=188, channel=1, data=[53, 100]),
   midi.NoteOnEvent(tick=4, channel=1, data=[50, 100]),
   midi.NoteOffEvent(tick=380, channel=1, data=[50, 100]),
   midi.NoteOnEvent(tick=4, channel=1, data=[57, 100]),
   midi.NoteOnEvent(tick=0, channel=1, data=[52, 100]),
   midi.NoteOffEvent(tick=188, channel=1, data=[57, 100]),
   midi.NoteOffEvent(tick=0, channel=1, data=[52, 100]),
   midi.NoteOnEvent(tick=4, channel=1, data=[60, 100]),
   midi.NoteOnEvent(tick=0, channel=1, data=[55, 100]),
   midi.NoteOffEvent(tick=384, channel=1, data=[60, 100]),
   midi.NoteOffEvent(tick=0, channel=1, data=[55, 100]),
   midi.PitchWheelEvent(tick=0, channel=1, data=[0, 32]),
   midi.NoteOnEvent(tick=0, channel=1, data=[58, 100]),
   midi.NoteOnEvent(tick=0, channel=1, data=[63, 100]),
   midi.PitchWheelEvent(tick=24, channel=1, data=[0, 40]),
   midi.PitchWheelEvent(tick=16, channel=1, data=[0, 48]),
   midi.PitchWheelEvent(tick=16, channel=1, data=[0, 56]),
   midi.PitchWheelEvent(tick=16, channel=1, data=[0, 64]),
   midi.NoteOffEvent(tick=120, channel=1, data=[58, 100]),
   midi.NoteOffEvent(tick=0, channel=1, data=[63, 100]),
   midi.NoteOnEvent(tick=0, channel=1, data=[62, 100]),
   midi.NoteOnEvent(tick=0, channel=1, data=[57, 100]),
   midi.NoteOffEvent(tick=192, channel=1, data=[62, 100]),
   midi.NoteOffEvent(tick=0, channel=1, data=[57, 100]),
   midi.NoteOnEvent(tick=0, channel=1, data=[60, 100]),
   midi.NoteOnEvent(tick=0, channel=1, data=[55, 100]),
   midi.NoteOffEvent(tick=192, channel=1, data=[60, 100]),
   midi.NoteOffEvent(tick=0, channel=1, data=[55, 100]),
   midi.NoteOnEvent(tick=0, channel=1, data=[57, 100]),
   midi.NoteOffEvent(tick=192, channel=1, data=[57, 100]),
   midi.NoteOnEvent(tick=0, channel=1, data=[57, 100]),
   midi.NoteOffEvent(tick=188, channel=1, data=[57, 100]),
   midi.NoteOnEvent(tick=4, channel=1, data=[45, 100]),
   midi.NoteOffEvent(tick=380, channel=1, data=[45, 100]),
   midi.NoteOnEvent(tick=4, channel=1, data=[57, 100]),
   midi.NoteOffEvent(tick=188, channel=1, data=[57, 100]),
   midi.NoteOnEvent(tick=4, channel=1, data=[44, 100]),
   midi.NoteOffEvent(tick=380, channel=1, data=[44, 100]),
   midi.NoteOnEvent(tick=4, channel=1, data=[57, 100]),
   midi.NoteOffEvent(tick=188, channel=1, data=[57, 100]),
   midi.NoteOnEvent(tick=4, channel=1, data=[43, 100]),
   midi.NoteOffEvent(tick=380, channel=1, data=[43, 100]),
   midi.NoteOnEvent(tick=4, channel=1, data=[57, 100]),
   midi.NoteOnEvent(tick=0, channel=1, data=[52, 100]),
   midi.NoteOffEvent(tick=188, channel=1, data=[57, 100]),
   midi.NoteOffEvent(tick=0, channel=1, data=[52, 100]),
   midi.NoteOnEvent(tick=4, channel=1, data=[60, 100]),
   midi.NoteOnEvent(tick=0, channel=1, data=[55, 100]),
   midi.NoteOffEvent(tick=384, channel=1, data=[60, 100]),
   midi.NoteOffEvent(tick=0, channel=1, data=[55, 100]),
   midi.PitchWheelEvent(tick=0, channel=1, data=[0, 32]),
   midi.NoteOnEvent(tick=0, channel=1, data=[58, 100]),
   midi.NoteOnEvent(tick=0, channel=1, data=[63, 100]),
   midi.PitchWheelEvent(tick=24, channel=1, data=[0, 40]),
   midi.PitchWheelEvent(tick=16, channel=1, data=[0, 48]),
   midi.PitchWheelEvent(tick=16, channel=1, data=[0, 56]),
   midi.PitchWheelEvent(tick=16, channel=1, data=[0, 64]),
   midi.NoteOffEvent(tick=120, channel=1, data=[58, 100]),
   midi.NoteOffEvent(tick=0, channel=1, data=[63, 100]),
   midi.NoteOnEvent(tick=0, channel=1, data=[62, 100]),
   midi.NoteOnEvent(tick=0, channel=1, data=[57, 100]),
   midi.NoteOffEvent(tick=192, channel=1, data=[62, 100]),
   midi.NoteOffEvent(tick=0, channel=1, data=[57, 100]),
   midi.NoteOnEvent(tick=0, channel=1, data=[60, 100]),
   midi.NoteOnEvent(tick=0, channel=1, data=[55, 100]),
   midi.NoteOffEvent(tick=192, channel=1, data=[60, 100]),
   midi.NoteOffEvent(tick=0, channel=1, data=[55, 100]),
   midi.NoteOnEvent(tick=0, channel=1, data=[57, 100]),
   midi.NoteOffEvent(tick=192, channel=1, data=[57, 100]),
   midi.NoteOnEvent(tick=0, channel=1, data=[53, 100]),
   midi.NoteOffEvent(tick=188, channel=1, data=[53, 100]),
   midi.NoteOnEvent(tick=4, channel=1, data=[41, 100]),
   midi.NoteOffEvent(tick=380, channel=1, data=[41, 100]),
   midi.NoteOnEvent(tick=4, channel=1, data=[53, 100]),
   midi.NoteOffEvent(tick=188, channel=1, data=[53, 100]),
   midi.NoteOnEvent(tick=4, channel=1, data=[40, 100]),
   midi.NoteOffEvent(tick=380, channel=1, data=[40, 100]),
   midi.NoteOnEvent(tick=4, channel=1, data=[53, 100]),
   midi.NoteOffEvent(tick=188, channel=1, data=[53, 100]),
   midi.NoteOnEvent(tick=4, channel=1, data=[50, 100]),
   midi.NoteOffEvent(tick=380, channel=1, data=[50, 100]),
   midi.NoteOnEvent(tick=4, channel=1, data=[57, 100]),
   midi.NoteOnEvent(tick=0, channel=1, data=[52, 100]),
   midi.NoteOffEvent(tick=188, channel=1, data=[57, 100]),
   midi.NoteOffEvent(tick=0, channel=1, data=[52, 100]),
   midi.NoteOnEvent(tick=4, channel=1, data=[60, 100]),
   midi.NoteOnEvent(tick=0, channel=1, data=[55, 100]),
   midi.NoteOffEvent(tick=384, channel=1, data=[60, 100]),
   midi.NoteOffEvent(tick=0, channel=1, data=[55, 100]),
   midi.PitchWheelEvent(tick=0, channel=1, data=[0, 32]),
   midi.NoteOnEvent(tick=0, channel=1, data=[58, 100]),
   midi.NoteOnEvent(tick=0, channel=1, data=[63, 100]),
   midi.PitchWheelEvent(tick=24, channel=1, data=[0, 40]),
   midi.PitchWheelEvent(tick=16, channel=1, data=[0, 48]),
   midi.PitchWheelEvent(tick=16, channel=1, data=[0, 56]),
   midi.PitchWheelEvent(tick=16, channel=1, data=[0, 64]),
   midi.NoteOffEvent(tick=120, channel=1, data=[58, 100]),
   midi.NoteOffEvent(tick=0, channel=1, data=[63, 100]),
   midi.NoteOnEvent(tick=0, channel=1, data=[62, 100]),
   midi.NoteOnEvent(tick=0, channel=1, data=[57, 100]),
   midi.NoteOffEvent(tick=192, channel=1, data=[62, 100]),
   midi.NoteOffEvent(tick=0, channel=1, data=[57, 100]),
   midi.NoteOnEvent(tick=0, channel=1, data=[60, 100]),
   midi.NoteOnEvent(tick=0, channel=1, data=[55, 100]),
   midi.NoteOffEvent(tick=192, channel=1, data=[60, 100]),
   midi.NoteOffEvent(tick=0, channel=1, data=[55, 100]),
   midi.NoteOnEvent(tick=0, channel=1, data=[57, 100]),
   midi.NoteOffEvent(tick=192, channel=1, data=[57, 100]),
   midi.NoteOnEvent(tick=0, channel=1, data=[57, 100]),
   midi.NoteOffEvent(tick=188, channel=1, data=[57, 100]),
   midi.NoteOnEvent(tick=4, channel=1, data=[45, 100]),
   midi.NoteOffEvent(tick=380, channel=1, data=[45, 100]),
   midi.NoteOnEvent(tick=4, channel=1, data=[57, 100]),
   midi.NoteOffEvent(tick=188, channel=1, data=[57, 100]),
   midi.NoteOnEvent(tick=4, channel=1, data=[44, 100]),
   midi.NoteOffEvent(tick=380, channel=1, data=[44, 100]),
   midi.NoteOnEvent(tick=4, channel=1, data=[57, 100]),
   midi.NoteOffEvent(tick=188, channel=1, data=[57, 100]),
   midi.NoteOnEvent(tick=4, channel=1, data=[43, 100]),
   midi.NoteOffEvent(tick=380, channel=1, data=[43, 100]),
   midi.NoteOnEvent(tick=4, channel=1, data=[57, 100]),
   midi.NoteOnEvent(tick=0, channel=1, data=[52, 100]),
   midi.NoteOffEvent(tick=188, channel=1, data=[57, 100]),
   midi.NoteOffEvent(tick=0, channel=1, data=[52, 100]),
   midi.NoteOnEvent(tick=4, channel=1, data=[60, 100]),
   midi.NoteOnEvent(tick=0, channel=1, data=[55, 100]),
   midi.NoteOffEvent(tick=384, channel=1, data=[60, 100]),
   midi.NoteOffEvent(tick=0, channel=1, data=[55, 100]),
   midi.PitchWheelEvent(tick=0, channel=1, data=[0, 32]),
   midi.NoteOnEvent(tick=0, channel=1, data=[58, 100]),
   midi.NoteOnEvent(tick=0, channel=1, data=[63, 100]),
   midi.PitchWheelEvent(tick=24, channel=1, data=[0, 40]),
   midi.PitchWheelEvent(tick=16, channel=1, data=[0, 48]),
   midi.PitchWheelEvent(tick=16, channel=1, data=[0, 56]),
   midi.PitchWheelEvent(tick=16, channel=1, data=[0, 64]),
   midi.NoteOffEvent(tick=120, channel=1, data=[58, 100]),
   midi.NoteOffEvent(tick=0, channel=1, data=[63, 100]),
   midi.NoteOnEvent(tick=0, channel=1, data=[62, 100]),
   midi.NoteOnEvent(tick=0, channel=1, data=[57, 100]),
   midi.NoteOffEvent(tick=192, channel=1, data=[62, 100]),
   midi.NoteOffEvent(tick=0, channel=1, data=[57, 100]),
   midi.NoteOnEvent(tick=0, channel=1, data=[60, 100]),
   midi.NoteOnEvent(tick=0, channel=1, data=[55, 100]),
   midi.NoteOffEvent(tick=192, channel=1, data=[60, 100]),
   midi.NoteOffEvent(tick=0, channel=1, data=[55, 100]),
   midi.NoteOnEvent(tick=0, channel=1, data=[57, 100]),
   midi.NoteOffEvent(tick=192, channel=1, data=[57, 100]),
   midi.NoteOnEvent(tick=0, channel=1, data=[53, 100]),
   midi.NoteOffEvent(tick=188, channel=1, data=[53, 100]),
   midi.NoteOnEvent(tick=4, channel=1, data=[41, 100]),
   midi.NoteOffEvent(tick=380, channel=1, data=[41, 100]),
   midi.NoteOnEvent(tick=4, channel=1, data=[53, 100]),
   midi.NoteOffEvent(tick=188, channel=1, data=[53, 100]),
   midi.NoteOnEvent(tick=4, channel=1, data=[40, 100]),
   midi.NoteOffEvent(tick=380, channel=1, data=[40, 100]),
   midi.NoteOnEvent(tick=4, channel=1, data=[53, 100]),
   midi.NoteOffEvent(tick=188, channel=1, data=[53, 100]),
   midi.NoteOnEvent(tick=4, channel=1, data=[50, 100]),
   midi.NoteOffEvent(tick=380, channel=1, data=[50, 100]),
   midi.NoteOnEvent(tick=4, channel=1, data=[57, 100]),
   midi.NoteOnEvent(tick=0, channel=1, data=[52, 100]),
   midi.NoteOffEvent(tick=188, channel=1, data=[57, 100]),
   midi.NoteOffEvent(tick=0, channel=1, data=[52, 100]),
   midi.NoteOnEvent(tick=4, channel=1, data=[60, 100]),
   midi.NoteOnEvent(tick=0, channel=1, data=[55, 100]),
   midi.NoteOffEvent(tick=384, channel=1, data=[60, 100]),
   midi.NoteOffEvent(tick=0, channel=1, data=[55, 100]),
   midi.PitchWheelEvent(tick=0, channel=1, data=[0, 32]),
   midi.NoteOnEvent(tick=0, channel=1, data=[58, 100]),
   midi.NoteOnEvent(tick=0, channel=1, data=[63, 100]),
   midi.PitchWheelEvent(tick=24, channel=1, data=[0, 40]),
   midi.PitchWheelEvent(tick=16, channel=1, data=[0, 48]),
   midi.PitchWheelEvent(tick=16, channel=1, data=[0, 56]),
   midi.PitchWheelEvent(tick=16, channel=1, data=[0, 64]),
   midi.NoteOffEvent(tick=120, channel=1, data=[58, 100]),
   midi.NoteOffEvent(tick=0, channel=1, data=[63, 100]),
   midi.NoteOnEvent(tick=0, channel=1, data=[62, 100]),
   midi.NoteOnEvent(tick=0, channel=1, data=[57, 100]),
   midi.NoteOffEvent(tick=192, channel=1, data=[62, 100]),
   midi.NoteOffEvent(tick=0, channel=1, data=[57, 100]),
   midi.NoteOnEvent(tick=0, channel=1, data=[60, 100]),
   midi.NoteOnEvent(tick=0, channel=1, data=[55, 100]),
   midi.NoteOffEvent(tick=192, channel=1, data=[60, 100]),
   midi.NoteOffEvent(tick=0, channel=1, data=[55, 100]),
   midi.NoteOnEvent(tick=0, channel=1, data=[57, 100]),
   midi.NoteOffEvent(tick=192, channel=1, data=[57, 100]),
   midi.NoteOnEvent(tick=0, channel=1, data=[57, 100]),
   midi.NoteOffEvent(tick=188, channel=1, data=[57, 100]),
   midi.NoteOnEvent(tick=4, channel=1, data=[45, 100]),
   midi.NoteOffEvent(tick=380, channel=1, data=[45, 100]),
   midi.NoteOnEvent(tick=4, channel=1, data=[57, 100]),
   midi.NoteOffEvent(tick=188, channel=1, data=[57, 100]),
   midi.NoteOnEvent(tick=4, channel=1, data=[44, 100]),
   midi.NoteOffEvent(tick=380, channel=1, data=[44, 100]),
   midi.NoteOnEvent(tick=4, channel=1, data=[57, 100]),
   midi.NoteOffEvent(tick=188, channel=1, data=[57, 100]),
   midi.NoteOnEvent(tick=4, channel=1, data=[43, 100]),
   midi.NoteOffEvent(tick=380, channel=1, data=[43, 100]),
   midi.NoteOnEvent(tick=4, channel=1, data=[57, 100]),
   midi.NoteOnEvent(tick=0, channel=1, data=[52, 100]),
   midi.NoteOffEvent(tick=188, channel=1, data=[57, 100]),
   midi.NoteOffEvent(tick=0, channel=1, data=[52, 100]),
   midi.NoteOnEvent(tick=4, channel=1, data=[60, 100]),
   midi.NoteOnEvent(tick=0, channel=1, data=[55, 100]),
   midi.NoteOffEvent(tick=384, channel=1, data=[60, 100]),
   midi.NoteOffEvent(tick=0, channel=1, data=[55, 100]),
   midi.PitchWheelEvent(tick=0, channel=1, data=[0, 32]),
   midi.NoteOnEvent(tick=0, channel=1, data=[58, 100]),
   midi.NoteOnEvent(tick=0, channel=1, data=[63, 100]),
   midi.PitchWheelEvent(tick=24, channel=1, data=[0, 40]),
   midi.PitchWheelEvent(tick=16, channel=1, data=[0, 48]),
   midi.PitchWheelEvent(tick=16, channel=1, data=[0, 56]),
   midi.PitchWheelEvent(tick=16, channel=1, data=[0, 64]),
   midi.NoteOffEvent(tick=120, channel=1, data=[58, 100]),
   midi.NoteOffEvent(tick=0, channel=1, data=[63, 100]),
   midi.NoteOnEvent(tick=0, channel=1, data=[62, 100]),
   midi.NoteOnEvent(tick=0, channel=1, data=[57, 100]),
   midi.NoteOffEvent(tick=192, channel=1, data=[62, 100]),
   midi.NoteOffEvent(tick=0, channel=1, data=[57, 100]),
   midi.NoteOnEvent(tick=0, channel=1, data=[60, 100]),
   midi.NoteOnEvent(tick=0, channel=1, data=[55, 100]),
   midi.NoteOffEvent(tick=192, channel=1, data=[60, 100]),
   midi.NoteOffEvent(tick=0, channel=1, data=[55, 100]),
   midi.NoteOnEvent(tick=0, channel=1, data=[57, 100]),
   midi.NoteOffEvent(tick=192, channel=1, data=[57, 100]),
   midi.NoteOnEvent(tick=0, channel=1, data=[53, 100]),
   midi.NoteOffEvent(tick=188, channel=1, data=[53, 100]),
   midi.NoteOnEvent(tick=4, channel=1, data=[41, 100]),
   midi.NoteOffEvent(tick=380, channel=1, data=[41, 100]),
   midi.NoteOnEvent(tick=4, channel=1, data=[53, 100]),
   midi.NoteOffEvent(tick=188, channel=1, data=[53, 100]),
   midi.NoteOnEvent(tick=4, channel=1, data=[40, 100]),
   midi.NoteOffEvent(tick=380, channel=1, data=[40, 100]),
   midi.NoteOnEvent(tick=4, channel=1, data=[53, 100]),
   midi.NoteOffEvent(tick=188, channel=1, data=[53, 100]),
   midi.NoteOnEvent(tick=4, channel=1, data=[50, 100]),
   midi.PitchWheelEvent(tick=288, channel=1, data=[0, 66]),
   midi.PitchWheelEvent(tick=96, channel=1, data=[0, 68]),
   midi.PitchWheelEvent(tick=96, channel=1, data=[0, 70]),
   midi.PitchWheelEvent(tick=96, channel=1, data=[0, 72]),
   midi.PitchWheelEvent(tick=96, channel=1, data=[0, 74]),
   midi.PitchWheelEvent(tick=96, channel=1, data=[0, 76]),
   midi.PitchWheelEvent(tick=96, channel=1, data=[0, 78]),
   midi.PitchWheelEvent(tick=96, channel=1, data=[0, 80]),
   midi.PitchWheelEvent(tick=96, channel=1, data=[0, 82]),
   midi.PitchWheelEvent(tick=96, channel=1, data=[0, 84]),
   midi.PitchWheelEvent(tick=96, channel=1, data=[0, 86]),
   midi.PitchWheelEvent(tick=96, channel=1, data=[0, 88]),
   midi.PitchWheelEvent(tick=96, channel=1, data=[0, 90]),
   midi.PitchWheelEvent(tick=96, channel=1, data=[0, 92]),
   midi.PitchWheelEvent(tick=96, channel=1, data=[0, 94]),
   midi.PitchWheelEvent(tick=96, channel=1, data=[0, 96]),
   midi.NoteOffEvent(tick=4604, channel=1, data=[50, 100]),
   midi.PitchWheelEvent(tick=4, channel=1, data=[0, 64]),
   midi.NoteOnEvent(tick=0, channel=1, data=[57, 100]),
   midi.NoteOnEvent(tick=0, channel=1, data=[45, 100]),
   midi.NoteOffEvent(tick=192, channel=1, data=[57, 100]),
   midi.NoteOffEvent(tick=0, channel=1, data=[45, 100]),
   midi.NoteOnEvent(tick=0, channel=1, data=[45, 100]),
   midi.NoteOffEvent(tick=76, channel=1, data=[45, 100]),
   midi.NoteOnEvent(tick=116, channel=1, data=[45, 100]),
   midi.NoteOffEvent(tick=76, channel=1, data=[45, 100]),
   midi.NoteOnEvent(tick=116, channel=1, data=[60, 100]),
   midi.NoteOnEvent(tick=0, channel=1, data=[55, 100]),
   midi.NoteOffEvent(tick=192, channel=1, data=[60, 100]),
   midi.NoteOffEvent(tick=0, channel=1, data=[55, 100]),
   midi.NoteOnEvent(tick=0, channel=1, data=[45, 100]),
   midi.NoteOffEvent(tick=76, channel=1, data=[45, 100]),
   midi.NoteOnEvent(tick=116, channel=1, data=[45, 100]),
   midi.NoteOffEvent(tick=76, channel=1, data=[45, 100]),
   midi.NoteOnEvent(tick=116, channel=1, data=[62, 100]),
   midi.NoteOnEvent(tick=0, channel=1, data=[57, 100]),
   midi.NoteOffEvent(tick=576, channel=1, data=[57, 64]),
   midi.NoteOffEvent(tick=0, channel=1, data=[62, 64]),
   midi.NoteOnEvent(tick=0, channel=1, data=[57, 100]),
   midi.NoteOnEvent(tick=0, channel=1, data=[52, 100]),
   midi.NoteOffEvent(tick=192, channel=1, data=[57, 100]),
   midi.NoteOffEvent(tick=0, channel=1, data=[52, 100]),
   midi.NoteOnEvent(tick=0, channel=1, data=[60, 100]),
   midi.NoteOnEvent(tick=0, channel=1, data=[55, 100]),
   midi.NoteOffEvent(tick=384, channel=1, data=[60, 100]),
   midi.NoteOffEvent(tick=0, channel=1, data=[55, 100]),
   midi.PitchWheelEvent(tick=0, channel=1, data=[0, 32]),
   midi.NoteOnEvent(tick=0, channel=1, data=[58, 100]),
   midi.NoteOnEvent(tick=0, channel=1, data=[63, 100]),
   midi.PitchWheelEvent(tick=24, channel=1, data=[0, 40]),
   midi.PitchWheelEvent(tick=16, channel=1, data=[0, 48]),
   midi.PitchWheelEvent(tick=16, channel=1, data=[0, 56]),
   midi.PitchWheelEvent(tick=16, channel=1, data=[0, 64]),
   midi.NoteOffEvent(tick=120, channel=1, data=[58, 100]),
   midi.NoteOffEvent(tick=0, channel=1, data=[63, 100]),
   midi.NoteOnEvent(tick=0, channel=1, data=[62, 100]),
   midi.NoteOnEvent(tick=0, channel=1, data=[57, 100]),
   midi.NoteOffEvent(tick=192, channel=1, data=[62, 100]),
   midi.NoteOffEvent(tick=0, channel=1, data=[57, 100]),
   midi.NoteOnEvent(tick=0, channel=1, data=[60, 100]),
   midi.NoteOnEvent(tick=0, channel=1, data=[55, 100]),
   midi.NoteOffEvent(tick=192, channel=1, data=[60, 100]),
   midi.NoteOffEvent(tick=0, channel=1, data=[55, 100]),
   midi.NoteOnEvent(tick=0, channel=1, data=[57, 100]),
   midi.NoteOffEvent(tick=192, channel=1, data=[57, 100]),
   midi.NoteOnEvent(tick=0, channel=1, data=[57, 100]),
   midi.NoteOnEvent(tick=0, channel=1, data=[45, 100]),
   midi.NoteOffEvent(tick=192, channel=1, data=[57, 100]),
   midi.NoteOffEvent(tick=0, channel=1, data=[45, 100]),
   midi.NoteOnEvent(tick=0, channel=1, data=[45, 100]),
   midi.NoteOffEvent(tick=76, channel=1, data=[45, 100]),
   midi.NoteOnEvent(tick=116, channel=1, data=[45, 100]),
   midi.NoteOffEvent(tick=76, channel=1, data=[45, 100]),
   midi.NoteOnEvent(tick=116, channel=1, data=[57, 100]),
   midi.NoteOnEvent(tick=0, channel=1, data=[45, 100]),
   midi.NoteOffEvent(tick=192, channel=1, data=[57, 100]),
   midi.NoteOffEvent(tick=0, channel=1, data=[45, 100]),
   midi.NoteOnEvent(tick=192, channel=1, data=[43, 100]),
   midi.NoteOffEvent(tick=76, channel=1, data=[43, 100]),
   midi.NoteOnEvent(tick=116, channel=1, data=[57, 100]),
   midi.NoteOnEvent(tick=0, channel=1, data=[52, 100]),
   midi.NoteOnEvent(tick=0, channel=1, data=[45, 100]),
   midi.NoteOffEvent(tick=384, channel=1, data=[57, 64]),
   midi.NoteOffEvent(tick=0, channel=1, data=[52, 64]),
   midi.NoteOffEvent(tick=0, channel=1, data=[45, 64]),
   midi.EndOfTrackEvent(tick=0, data=[])]),
 midi.Track(\
  [midi.TrackNameEvent(tick=0, text='sequenced by', data=[115, 101, 113, 117, 101, 110, 99, 101, 100, 32, 98, 121]),
   midi.ControlChangeEvent(tick=0, channel=2, data=[0, 0]),
   midi.ProgramChangeEvent(tick=0, channel=2, data=[30]),
   midi.ControlChangeEvent(tick=0, channel=2, data=[7, 93]),
   midi.ControlChangeEvent(tick=0, channel=2, data=[10, 97]),
   midi.ControlChangeEvent(tick=0, channel=2, data=[91, 127]),
   midi.ControlChangeEvent(tick=0, channel=2, data=[93, 127]),
   midi.NoteOnEvent(tick=3072, channel=2, data=[52, 100]),
   midi.NoteOnEvent(tick=0, channel=2, data=[45, 100]),
   midi.NoteOffEvent(tick=576, channel=2, data=[52, 100]),
   midi.NoteOffEvent(tick=0, channel=2, data=[45, 100]),
   midi.NoteOnEvent(tick=0, channel=2, data=[51, 100]),
   midi.NoteOnEvent(tick=0, channel=2, data=[44, 100]),
   midi.NoteOffEvent(tick=576, channel=2, data=[51, 100]),
   midi.NoteOffEvent(tick=0, channel=2, data=[44, 100]),
   midi.NoteOnEvent(tick=0, channel=2, data=[50, 100]),
   midi.NoteOnEvent(tick=0, channel=2, data=[43, 100]),
   midi.NoteOffEvent(tick=576, channel=2, data=[43, 64]),
   midi.NoteOffEvent(tick=0, channel=2, data=[50, 64]),
   midi.NoteOnEvent(tick=0, channel=2, data=[49, 100]),
   midi.NoteOnEvent(tick=0, channel=2, data=[42, 100]),
   midi.NoteOffEvent(tick=576, channel=2, data=[49, 100]),
   midi.NoteOffEvent(tick=0, channel=2, data=[42, 100]),
   midi.NoteOnEvent(tick=0, channel=2, data=[41, 100]),
   midi.NoteOnEvent(tick=0, channel=2, data=[48, 100]),
   midi.NoteOffEvent(tick=384, channel=2, data=[41, 100]),
   midi.NoteOffEvent(tick=0, channel=2, data=[48, 100]),
   midi.NoteOnEvent(tick=0, channel=2, data=[40, 100]),
   midi.NoteOnEvent(tick=0, channel=2, data=[47, 100]),
   midi.NoteOffEvent(tick=384, channel=2, data=[40, 100]),
   midi.NoteOffEvent(tick=0, channel=2, data=[47, 100]),
   midi.NoteOnEvent(tick=0, channel=2, data=[57, 100]),
   midi.NoteOnEvent(tick=0, channel=2, data=[45, 100]),
   midi.NoteOffEvent(tick=192, channel=2, data=[57, 100]),
   midi.NoteOffEvent(tick=0, channel=2, data=[45, 100]),
   midi.NoteOnEvent(tick=12096, channel=2, data=[57, 100]),
   midi.NoteOnEvent(tick=0, channel=2, data=[45, 100]),
   midi.NoteOffEvent(tick=192, channel=2, data=[57, 100]),
   midi.NoteOffEvent(tick=0, channel=2, data=[45, 100]),
   midi.NoteOnEvent(tick=0, channel=2, data=[45, 100]),
   midi.NoteOffEvent(tick=76, channel=2, data=[45, 100]),
   midi.NoteOnEvent(tick=116, channel=2, data=[45, 100]),
   midi.NoteOffEvent(tick=76, channel=2, data=[45, 100]),
   midi.NoteOnEvent(tick=116, channel=2, data=[60, 100]),
   midi.NoteOnEvent(tick=0, channel=2, data=[55, 100]),
   midi.NoteOffEvent(tick=192, channel=2, data=[60, 100]),
   midi.NoteOffEvent(tick=0, channel=2, data=[55, 100]),
   midi.NoteOnEvent(tick=0, channel=2, data=[45, 100]),
   midi.NoteOffEvent(tick=76, channel=2, data=[45, 100]),
   midi.NoteOnEvent(tick=116, channel=2, data=[45, 100]),
   midi.NoteOffEvent(tick=76, channel=2, data=[45, 100]),
   midi.NoteOnEvent(tick=116, channel=2, data=[62, 100]),
   midi.NoteOnEvent(tick=0, channel=2, data=[57, 100]),
   midi.NoteOffEvent(tick=576, channel=2, data=[57, 64]),
   midi.NoteOffEvent(tick=0, channel=2, data=[62, 64]),
   midi.NoteOnEvent(tick=0, channel=2, data=[57, 100]),
   midi.NoteOnEvent(tick=0, channel=2, data=[52, 100]),
   midi.NoteOffEvent(tick=192, channel=2, data=[57, 100]),
   midi.NoteOffEvent(tick=0, channel=2, data=[52, 100]),
   midi.NoteOnEvent(tick=0, channel=2, data=[60, 100]),
   midi.NoteOnEvent(tick=0, channel=2, data=[55, 100]),
   midi.NoteOffEvent(tick=384, channel=2, data=[60, 100]),
   midi.NoteOffEvent(tick=0, channel=2, data=[55, 100]),
   midi.PitchWheelEvent(tick=0, channel=2, data=[0, 32]),
   midi.NoteOnEvent(tick=0, channel=2, data=[58, 100]),
   midi.NoteOnEvent(tick=0, channel=2, data=[63, 100]),
   midi.PitchWheelEvent(tick=24, channel=2, data=[0, 40]),
   midi.PitchWheelEvent(tick=16, channel=2, data=[0, 48]),
   midi.PitchWheelEvent(tick=16, channel=2, data=[0, 56]),
   midi.PitchWheelEvent(tick=16, channel=2, data=[0, 64]),
   midi.NoteOffEvent(tick=120, channel=2, data=[58, 100]),
   midi.NoteOffEvent(tick=0, channel=2, data=[63, 100]),
   midi.NoteOnEvent(tick=0, channel=2, data=[62, 100]),
   midi.NoteOnEvent(tick=0, channel=2, data=[57, 100]),
   midi.NoteOffEvent(tick=192, channel=2, data=[62, 100]),
   midi.NoteOffEvent(tick=0, channel=2, data=[57, 100]),
   midi.NoteOnEvent(tick=0, channel=2, data=[60, 100]),
   midi.NoteOnEvent(tick=0, channel=2, data=[55, 100]),
   midi.NoteOffEvent(tick=192, channel=2, data=[60, 100]),
   midi.NoteOffEvent(tick=0, channel=2, data=[55, 100]),
   midi.NoteOnEvent(tick=0, channel=2, data=[57, 100]),
   midi.NoteOffEvent(tick=192, channel=2, data=[57, 100]),
   midi.NoteOnEvent(tick=0, channel=2, data=[57, 100]),
   midi.NoteOnEvent(tick=0, channel=2, data=[45, 100]),
   midi.NoteOffEvent(tick=192, channel=2, data=[57, 100]),
   midi.NoteOffEvent(tick=0, channel=2, data=[45, 100]),
   midi.NoteOnEvent(tick=0, channel=2, data=[45, 100]),
   midi.NoteOffEvent(tick=76, channel=2, data=[45, 100]),
   midi.NoteOnEvent(tick=116, channel=2, data=[45, 100]),
   midi.NoteOffEvent(tick=76, channel=2, data=[45, 100]),
   midi.NoteOnEvent(tick=116, channel=2, data=[60, 100]),
   midi.NoteOnEvent(tick=0, channel=2, data=[55, 100]),
   midi.NoteOffEvent(tick=192, channel=2, data=[60, 100]),
   midi.NoteOffEvent(tick=0, channel=2, data=[55, 100]),
   midi.NoteOnEvent(tick=192, channel=2, data=[43, 100]),
   midi.NoteOffEvent(tick=76, channel=2, data=[43, 100]),
   midi.NoteOnEvent(tick=116, channel=2, data=[57, 100]),
   midi.NoteOnEvent(tick=0, channel=2, data=[52, 100]),
   midi.NoteOnEvent(tick=0, channel=2, data=[45, 100]),
   midi.NoteOffEvent(tick=576, channel=2, data=[45, 64]),
   midi.NoteOffEvent(tick=0, channel=2, data=[52, 64]),
   midi.NoteOffEvent(tick=0, channel=2, data=[57, 64]),
   midi.NoteOnEvent(tick=0, channel=2, data=[57, 100]),
   midi.NoteOnEvent(tick=0, channel=2, data=[52, 100]),
   midi.NoteOffEvent(tick=192, channel=2, data=[57, 100]),
   midi.NoteOffEvent(tick=0, channel=2, data=[52, 100]),
   midi.NoteOnEvent(tick=0, channel=2, data=[60, 100]),
   midi.NoteOnEvent(tick=0, channel=2, data=[55, 100]),
   midi.NoteOffEvent(tick=384, channel=2, data=[60, 100]),
   midi.NoteOffEvent(tick=0, channel=2, data=[55, 100]),
   midi.PitchWheelEvent(tick=0, channel=2, data=[0, 32]),
   midi.NoteOnEvent(tick=0, channel=2, data=[58, 100]),
   midi.NoteOnEvent(tick=0, channel=2, data=[63, 100]),
   midi.PitchWheelEvent(tick=24, channel=2, data=[0, 40]),
   midi.PitchWheelEvent(tick=16, channel=2, data=[0, 48]),
   midi.PitchWheelEvent(tick=16, channel=2, data=[0, 56]),
   midi.PitchWheelEvent(tick=16, channel=2, data=[0, 64]),
   midi.NoteOffEvent(tick=120, channel=2, data=[58, 100]),
   midi.NoteOffEvent(tick=0, channel=2, data=[63, 100]),
   midi.NoteOnEvent(tick=0, channel=2, data=[62, 100]),
   midi.NoteOnEvent(tick=0, channel=2, data=[57, 100]),
   midi.NoteOffEvent(tick=192, channel=2, data=[62, 100]),
   midi.NoteOffEvent(tick=0, channel=2, data=[57, 100]),
   midi.NoteOnEvent(tick=0, channel=2, data=[60, 100]),
   midi.NoteOnEvent(tick=0, channel=2, data=[55, 100]),
   midi.NoteOffEvent(tick=192, channel=2, data=[60, 100]),
   midi.NoteOffEvent(tick=0, channel=2, data=[55, 100]),
   midi.NoteOnEvent(tick=0, channel=2, data=[57, 100]),
   midi.NoteOffEvent(tick=192, channel=2, data=[57, 100]),
   midi.NoteOnEvent(tick=0, channel=2, data=[57, 100]),
   midi.NoteOnEvent(tick=0, channel=2, data=[45, 100]),
   midi.NoteOffEvent(tick=192, channel=2, data=[57, 100]),
   midi.NoteOffEvent(tick=0, channel=2, data=[45, 100]),
   midi.NoteOnEvent(tick=0, channel=2, data=[45, 100]),
   midi.NoteOffEvent(tick=76, channel=2, data=[45, 100]),
   midi.NoteOnEvent(tick=116, channel=2, data=[45, 100]),
   midi.NoteOffEvent(tick=76, channel=2, data=[45, 100]),
   midi.NoteOnEvent(tick=116, channel=2, data=[60, 100]),
   midi.NoteOnEvent(tick=0, channel=2, data=[55, 100]),
   midi.NoteOffEvent(tick=192, channel=2, data=[60, 100]),
   midi.NoteOffEvent(tick=0, channel=2, data=[55, 100]),
   midi.NoteOnEvent(tick=0, channel=2, data=[45, 100]),
   midi.NoteOffEvent(tick=76, channel=2, data=[45, 100]),
   midi.NoteOnEvent(tick=116, channel=2, data=[45, 100]),
   midi.NoteOffEvent(tick=76, channel=2, data=[45, 100]),
   midi.NoteOnEvent(tick=116, channel=2, data=[62, 100]),
   midi.NoteOnEvent(tick=0, channel=2, data=[57, 100]),
   midi.NoteOffEvent(tick=576, channel=2, data=[57, 64]),
   midi.NoteOffEvent(tick=0, channel=2, data=[62, 64]),
   midi.NoteOnEvent(tick=0, channel=2, data=[57, 100]),
   midi.NoteOnEvent(tick=0, channel=2, data=[52, 100]),
   midi.NoteOffEvent(tick=192, channel=2, data=[57, 100]),
   midi.NoteOffEvent(tick=0, channel=2, data=[52, 100]),
   midi.NoteOnEvent(tick=0, channel=2, data=[60, 100]),
   midi.NoteOnEvent(tick=0, channel=2, data=[55, 100]),
   midi.NoteOffEvent(tick=384, channel=2, data=[60, 100]),
   midi.NoteOffEvent(tick=0, channel=2, data=[55, 100]),
   midi.PitchWheelEvent(tick=0, channel=2, data=[0, 32]),
   midi.NoteOnEvent(tick=0, channel=2, data=[58, 100]),
   midi.NoteOnEvent(tick=0, channel=2, data=[63, 100]),
   midi.PitchWheelEvent(tick=24, channel=2, data=[0, 40]),
   midi.PitchWheelEvent(tick=16, channel=2, data=[0, 48]),
   midi.PitchWheelEvent(tick=16, channel=2, data=[0, 56]),
   midi.PitchWheelEvent(tick=16, channel=2, data=[0, 64]),
   midi.NoteOffEvent(tick=120, channel=2, data=[58, 100]),
   midi.NoteOffEvent(tick=0, channel=2, data=[63, 100]),
   midi.NoteOnEvent(tick=0, channel=2, data=[62, 100]),
   midi.NoteOnEvent(tick=0, channel=2, data=[57, 100]),
   midi.NoteOffEvent(tick=192, channel=2, data=[62, 100]),
   midi.NoteOffEvent(tick=0, channel=2, data=[57, 100]),
   midi.NoteOnEvent(tick=0, channel=2, data=[60, 100]),
   midi.NoteOnEvent(tick=0, channel=2, data=[55, 100]),
   midi.NoteOffEvent(tick=192, channel=2, data=[60, 100]),
   midi.NoteOffEvent(tick=0, channel=2, data=[55, 100]),
   midi.NoteOnEvent(tick=0, channel=2, data=[57, 100]),
   midi.NoteOffEvent(tick=192, channel=2, data=[57, 100]),
   midi.NoteOnEvent(tick=0, channel=2, data=[57, 100]),
   midi.NoteOnEvent(tick=0, channel=2, data=[45, 100]),
   midi.NoteOffEvent(tick=192, channel=2, data=[57, 100]),
   midi.NoteOffEvent(tick=0, channel=2, data=[45, 100]),
   midi.NoteOnEvent(tick=0, channel=2, data=[45, 100]),
   midi.NoteOffEvent(tick=76, channel=2, data=[45, 100]),
   midi.NoteOnEvent(tick=116, channel=2, data=[45, 100]),
   midi.NoteOffEvent(tick=76, channel=2, data=[45, 100]),
   midi.NoteOnEvent(tick=116, channel=2, data=[60, 100]),
   midi.NoteOnEvent(tick=0, channel=2, data=[55, 100]),
   midi.NoteOffEvent(tick=192, channel=2, data=[60, 100]),
   midi.NoteOffEvent(tick=0, channel=2, data=[55, 100]),
   midi.NoteOnEvent(tick=192, channel=2, data=[43, 100]),
   midi.NoteOffEvent(tick=76, channel=2, data=[43, 100]),
   midi.NoteOnEvent(tick=116, channel=2, data=[57, 100]),
   midi.NoteOnEvent(tick=0, channel=2, data=[52, 100]),
   midi.NoteOnEvent(tick=0, channel=2, data=[45, 100]),
   midi.NoteOffEvent(tick=576, channel=2, data=[45, 64]),
   midi.NoteOffEvent(tick=0, channel=2, data=[52, 64]),
   midi.NoteOffEvent(tick=0, channel=2, data=[57, 64]),
   midi.NoteOnEvent(tick=0, channel=2, data=[57, 100]),
   midi.NoteOnEvent(tick=0, channel=2, data=[52, 100]),
   midi.NoteOffEvent(tick=192, channel=2, data=[57, 100]),
   midi.NoteOffEvent(tick=0, channel=2, data=[52, 100]),
   midi.NoteOnEvent(tick=0, channel=2, data=[60, 100]),
   midi.NoteOnEvent(tick=0, channel=2, data=[55, 100]),
   midi.NoteOffEvent(tick=384, channel=2, data=[60, 100]),
   midi.NoteOffEvent(tick=0, channel=2, data=[55, 100]),
   midi.PitchWheelEvent(tick=0, channel=2, data=[0, 32]),
   midi.NoteOnEvent(tick=0, channel=2, data=[58, 100]),
   midi.NoteOnEvent(tick=0, channel=2, data=[63, 100]),
   midi.PitchWheelEvent(tick=24, channel=2, data=[0, 40]),
   midi.PitchWheelEvent(tick=16, channel=2, data=[0, 48]),
   midi.PitchWheelEvent(tick=16, channel=2, data=[0, 56]),
   midi.PitchWheelEvent(tick=16, channel=2, data=[0, 64]),
   midi.NoteOffEvent(tick=120, channel=2, data=[58, 100]),
   midi.NoteOffEvent(tick=0, channel=2, data=[63, 100]),
   midi.NoteOnEvent(tick=0, channel=2, data=[62, 100]),
   midi.NoteOnEvent(tick=0, channel=2, data=[57, 100]),
   midi.NoteOffEvent(tick=192, channel=2, data=[62, 100]),
   midi.NoteOffEvent(tick=0, channel=2, data=[57, 100]),
   midi.NoteOnEvent(tick=0, channel=2, data=[60, 100]),
   midi.NoteOnEvent(tick=0, channel=2, data=[55, 100]),
   midi.NoteOffEvent(tick=192, channel=2, data=[60, 100]),
   midi.NoteOffEvent(tick=0, channel=2, data=[55, 100]),
   midi.NoteOnEvent(tick=0, channel=2, data=[57, 100]),
   midi.NoteOffEvent(tick=192, channel=2, data=[57, 100]),
   midi.NoteOnEvent(tick=0, channel=2, data=[57, 100]),
   midi.NoteOnEvent(tick=0, channel=2, data=[45, 100]),
   midi.NoteOffEvent(tick=192, channel=2, data=[57, 100]),
   midi.NoteOffEvent(tick=0, channel=2, data=[45, 100]),
   midi.NoteOnEvent(tick=0, channel=2, data=[45, 100]),
   midi.NoteOffEvent(tick=76, channel=2, data=[45, 100]),
   midi.NoteOnEvent(tick=116, channel=2, data=[45, 100]),
   midi.NoteOffEvent(tick=76, channel=2, data=[45, 100]),
   midi.NoteOnEvent(tick=116, channel=2, data=[60, 100]),
   midi.NoteOnEvent(tick=0, channel=2, data=[55, 100]),
   midi.NoteOffEvent(tick=192, channel=2, data=[60, 100]),
   midi.NoteOffEvent(tick=0, channel=2, data=[55, 100]),
   midi.NoteOnEvent(tick=0, channel=2, data=[45, 100]),
   midi.NoteOffEvent(tick=76, channel=2, data=[45, 100]),
   midi.NoteOnEvent(tick=116, channel=2, data=[45, 100]),
   midi.NoteOffEvent(tick=76, channel=2, data=[45, 100]),
   midi.NoteOnEvent(tick=116, channel=2, data=[62, 100]),
   midi.NoteOnEvent(tick=0, channel=2, data=[57, 100]),
   midi.NoteOffEvent(tick=576, channel=2, data=[57, 64]),
   midi.NoteOffEvent(tick=0, channel=2, data=[62, 64]),
   midi.NoteOnEvent(tick=0, channel=2, data=[57, 100]),
   midi.NoteOnEvent(tick=0, channel=2, data=[52, 100]),
   midi.NoteOffEvent(tick=192, channel=2, data=[57, 100]),
   midi.NoteOffEvent(tick=0, channel=2, data=[52, 100]),
   midi.NoteOnEvent(tick=0, channel=2, data=[60, 100]),
   midi.NoteOnEvent(tick=0, channel=2, data=[55, 100]),
   midi.NoteOffEvent(tick=384, channel=2, data=[60, 100]),
   midi.NoteOffEvent(tick=0, channel=2, data=[55, 100]),
   midi.PitchWheelEvent(tick=0, channel=2, data=[0, 32]),
   midi.NoteOnEvent(tick=0, channel=2, data=[58, 100]),
   midi.NoteOnEvent(tick=0, channel=2, data=[63, 100]),
   midi.PitchWheelEvent(tick=24, channel=2, data=[0, 40]),
   midi.PitchWheelEvent(tick=16, channel=2, data=[0, 48]),
   midi.PitchWheelEvent(tick=16, channel=2, data=[0, 56]),
   midi.PitchWheelEvent(tick=16, channel=2, data=[0, 64]),
   midi.NoteOffEvent(tick=120, channel=2, data=[58, 100]),
   midi.NoteOffEvent(tick=0, channel=2, data=[63, 100]),
   midi.NoteOnEvent(tick=0, channel=2, data=[62, 100]),
   midi.NoteOnEvent(tick=0, channel=2, data=[57, 100]),
   midi.NoteOffEvent(tick=192, channel=2, data=[62, 100]),
   midi.NoteOffEvent(tick=0, channel=2, data=[57, 100]),
   midi.NoteOnEvent(tick=0, channel=2, data=[60, 100]),
   midi.NoteOnEvent(tick=0, channel=2, data=[55, 100]),
   midi.NoteOffEvent(tick=192, channel=2, data=[60, 100]),
   midi.NoteOffEvent(tick=0, channel=2, data=[55, 100]),
   midi.NoteOnEvent(tick=0, channel=2, data=[57, 100]),
   midi.NoteOffEvent(tick=192, channel=2, data=[57, 100]),
   midi.NoteOnEvent(tick=0, channel=2, data=[57, 100]),
   midi.NoteOnEvent(tick=0, channel=2, data=[45, 100]),
   midi.NoteOffEvent(tick=192, channel=2, data=[57, 100]),
   midi.NoteOffEvent(tick=0, channel=2, data=[45, 100]),
   midi.NoteOnEvent(tick=0, channel=2, data=[45, 100]),
   midi.NoteOffEvent(tick=76, channel=2, data=[45, 100]),
   midi.NoteOnEvent(tick=116, channel=2, data=[45, 100]),
   midi.NoteOffEvent(tick=76, channel=2, data=[45, 100]),
   midi.NoteOnEvent(tick=116, channel=2, data=[60, 100]),
   midi.NoteOnEvent(tick=0, channel=2, data=[55, 100]),
   midi.NoteOffEvent(tick=192, channel=2, data=[60, 100]),
   midi.NoteOffEvent(tick=0, channel=2, data=[55, 100]),
   midi.NoteOnEvent(tick=192, channel=2, data=[43, 100]),
   midi.NoteOffEvent(tick=76, channel=2, data=[43, 100]),
   midi.NoteOnEvent(tick=116, channel=2, data=[57, 100]),
   midi.NoteOnEvent(tick=0, channel=2, data=[52, 100]),
   midi.NoteOnEvent(tick=0, channel=2, data=[45, 100]),
   midi.NoteOffEvent(tick=576, channel=2, data=[45, 64]),
   midi.NoteOffEvent(tick=0, channel=2, data=[52, 64]),
   midi.NoteOffEvent(tick=0, channel=2, data=[57, 64]),
   midi.NoteOnEvent(tick=0, channel=2, data=[57, 100]),
   midi.NoteOnEvent(tick=0, channel=2, data=[52, 100]),
   midi.NoteOffEvent(tick=192, channel=2, data=[57, 100]),
   midi.NoteOffEvent(tick=0, channel=2, data=[52, 100]),
   midi.NoteOnEvent(tick=0, channel=2, data=[60, 100]),
   midi.NoteOnEvent(tick=0, channel=2, data=[55, 100]),
   midi.NoteOffEvent(tick=384, channel=2, data=[60, 100]),
   midi.NoteOffEvent(tick=0, channel=2, data=[55, 100]),
   midi.PitchWheelEvent(tick=0, channel=2, data=[0, 32]),
   midi.NoteOnEvent(tick=0, channel=2, data=[58, 100]),
   midi.NoteOnEvent(tick=0, channel=2, data=[63, 100]),
   midi.PitchWheelEvent(tick=24, channel=2, data=[0, 40]),
   midi.PitchWheelEvent(tick=16, channel=2, data=[0, 48]),
   midi.PitchWheelEvent(tick=16, channel=2, data=[0, 56]),
   midi.PitchWheelEvent(tick=16, channel=2, data=[0, 64]),
   midi.NoteOffEvent(tick=120, channel=2, data=[58, 100]),
   midi.NoteOffEvent(tick=0, channel=2, data=[63, 100]),
   midi.NoteOnEvent(tick=0, channel=2, data=[62, 100]),
   midi.NoteOnEvent(tick=0, channel=2, data=[57, 100]),
   midi.NoteOffEvent(tick=192, channel=2, data=[62, 100]),
   midi.NoteOffEvent(tick=0, channel=2, data=[57, 100]),
   midi.NoteOnEvent(tick=0, channel=2, data=[60, 100]),
   midi.NoteOnEvent(tick=0, channel=2, data=[55, 100]),
   midi.NoteOffEvent(tick=192, channel=2, data=[60, 100]),
   midi.NoteOffEvent(tick=0, channel=2, data=[55, 100]),
   midi.NoteOnEvent(tick=0, channel=2, data=[57, 100]),
   midi.NoteOffEvent(tick=192, channel=2, data=[57, 100]),
   midi.NoteOnEvent(tick=0, channel=2, data=[57, 100]),
   midi.NoteOnEvent(tick=0, channel=2, data=[45, 100]),
   midi.NoteOffEvent(tick=192, channel=2, data=[57, 100]),
   midi.NoteOffEvent(tick=0, channel=2, data=[45, 100]),
   midi.NoteOnEvent(tick=0, channel=2, data=[45, 100]),
   midi.NoteOffEvent(tick=76, channel=2, data=[45, 100]),
   midi.NoteOnEvent(tick=116, channel=2, data=[45, 100]),
   midi.NoteOffEvent(tick=76, channel=2, data=[45, 100]),
   midi.NoteOnEvent(tick=116, channel=2, data=[60, 100]),
   midi.NoteOnEvent(tick=0, channel=2, data=[55, 100]),
   midi.NoteOffEvent(tick=192, channel=2, data=[60, 100]),
   midi.NoteOffEvent(tick=0, channel=2, data=[55, 100]),
   midi.NoteOnEvent(tick=0, channel=2, data=[45, 100]),
   midi.NoteOffEvent(tick=76, channel=2, data=[45, 100]),
   midi.NoteOnEvent(tick=116, channel=2, data=[45, 100]),
   midi.NoteOffEvent(tick=76, channel=2, data=[45, 100]),
   midi.NoteOnEvent(tick=116, channel=2, data=[62, 100]),
   midi.NoteOnEvent(tick=0, channel=2, data=[57, 100]),
   midi.NoteOffEvent(tick=576, channel=2, data=[57, 64]),
   midi.NoteOffEvent(tick=0, channel=2, data=[62, 64]),
   midi.NoteOnEvent(tick=0, channel=2, data=[57, 100]),
   midi.NoteOnEvent(tick=0, channel=2, data=[52, 100]),
   midi.NoteOffEvent(tick=192, channel=2, data=[57, 100]),
   midi.NoteOffEvent(tick=0, channel=2, data=[52, 100]),
   midi.NoteOnEvent(tick=0, channel=2, data=[60, 100]),
   midi.NoteOnEvent(tick=0, channel=2, data=[55, 100]),
   midi.NoteOffEvent(tick=384, channel=2, data=[60, 100]),
   midi.NoteOffEvent(tick=0, channel=2, data=[55, 100]),
   midi.PitchWheelEvent(tick=0, channel=2, data=[0, 32]),
   midi.NoteOnEvent(tick=0, channel=2, data=[58, 100]),
   midi.NoteOnEvent(tick=0, channel=2, data=[63, 100]),
   midi.PitchWheelEvent(tick=24, channel=2, data=[0, 40]),
   midi.PitchWheelEvent(tick=16, channel=2, data=[0, 48]),
   midi.PitchWheelEvent(tick=16, channel=2, data=[0, 56]),
   midi.PitchWheelEvent(tick=16, channel=2, data=[0, 64]),
   midi.NoteOffEvent(tick=120, channel=2, data=[58, 100]),
   midi.NoteOffEvent(tick=0, channel=2, data=[63, 100]),
   midi.NoteOnEvent(tick=0, channel=2, data=[62, 100]),
   midi.NoteOnEvent(tick=0, channel=2, data=[57, 100]),
   midi.NoteOffEvent(tick=192, channel=2, data=[62, 100]),
   midi.NoteOffEvent(tick=0, channel=2, data=[57, 100]),
   midi.NoteOnEvent(tick=0, channel=2, data=[60, 100]),
   midi.NoteOnEvent(tick=0, channel=2, data=[55, 100]),
   midi.NoteOffEvent(tick=192, channel=2, data=[60, 100]),
   midi.NoteOffEvent(tick=0, channel=2, data=[55, 100]),
   midi.NoteOnEvent(tick=0, channel=2, data=[57, 100]),
   midi.NoteOffEvent(tick=192, channel=2, data=[57, 100]),
   midi.NoteOnEvent(tick=0, channel=2, data=[57, 100]),
   midi.NoteOnEvent(tick=0, channel=2, data=[45, 100]),
   midi.NoteOffEvent(tick=192, channel=2, data=[57, 100]),
   midi.NoteOffEvent(tick=0, channel=2, data=[45, 100]),
   midi.NoteOnEvent(tick=0, channel=2, data=[45, 100]),
   midi.NoteOffEvent(tick=76, channel=2, data=[45, 100]),
   midi.NoteOnEvent(tick=116, channel=2, data=[45, 100]),
   midi.NoteOffEvent(tick=76, channel=2, data=[45, 100]),
   midi.NoteOnEvent(tick=116, channel=2, data=[60, 100]),
   midi.NoteOnEvent(tick=0, channel=2, data=[55, 100]),
   midi.NoteOffEvent(tick=192, channel=2, data=[60, 100]),
   midi.NoteOffEvent(tick=0, channel=2, data=[55, 100]),
   midi.NoteOnEvent(tick=192, channel=2, data=[43, 100]),
   midi.NoteOffEvent(tick=76, channel=2, data=[43, 100]),
   midi.NoteOnEvent(tick=116, channel=2, data=[45, 100]),
   midi.NoteOnEvent(tick=0, channel=2, data=[52, 100]),
   midi.NoteOnEvent(tick=0, channel=2, data=[57, 100]),
   midi.NoteOffEvent(tick=1920, channel=2, data=[57, 64]),
   midi.NoteOffEvent(tick=0, channel=2, data=[52, 64]),
   midi.NoteOffEvent(tick=0, channel=2, data=[45, 64]),
   midi.NoteOnEvent(tick=0, channel=2, data=[57, 100]),
   midi.NoteOffEvent(tick=188, channel=2, data=[57, 100]),
   midi.NoteOnEvent(tick=4, channel=2, data=[45, 100]),
   midi.NoteOffEvent(tick=380, channel=2, data=[45, 100]),
   midi.NoteOnEvent(tick=4, channel=2, data=[57, 100]),
   midi.NoteOffEvent(tick=188, channel=2, data=[57, 100]),
   midi.NoteOnEvent(tick=4, channel=2, data=[44, 100]),
   midi.NoteOffEvent(tick=380, channel=2, data=[44, 100]),
   midi.NoteOnEvent(tick=4, channel=2, data=[57, 100]),
   midi.NoteOffEvent(tick=188, channel=2, data=[57, 100]),
   midi.NoteOnEvent(tick=4, channel=2, data=[43, 100]),
   midi.NoteOffEvent(tick=380, channel=2, data=[43, 100]),
   midi.NoteOnEvent(tick=4, channel=2, data=[57, 100]),
   midi.NoteOnEvent(tick=0, channel=2, data=[52, 100]),
   midi.NoteOffEvent(tick=188, channel=2, data=[57, 100]),
   midi.NoteOffEvent(tick=0, channel=2, data=[52, 100]),
   midi.NoteOnEvent(tick=4, channel=2, data=[60, 100]),
   midi.NoteOnEvent(tick=0, channel=2, data=[55, 100]),
   midi.NoteOffEvent(tick=384, channel=2, data=[60, 100]),
   midi.NoteOffEvent(tick=0, channel=2, data=[55, 100]),
   midi.PitchWheelEvent(tick=0, channel=2, data=[0, 32]),
   midi.NoteOnEvent(tick=0, channel=2, data=[58, 100]),
   midi.NoteOnEvent(tick=0, channel=2, data=[63, 100]),
   midi.PitchWheelEvent(tick=24, channel=2, data=[0, 40]),
   midi.PitchWheelEvent(tick=16, channel=2, data=[0, 48]),
   midi.PitchWheelEvent(tick=16, channel=2, data=[0, 56]),
   midi.PitchWheelEvent(tick=16, channel=2, data=[0, 64]),
   midi.NoteOffEvent(tick=120, channel=2, data=[58, 100]),
   midi.NoteOffEvent(tick=0, channel=2, data=[63, 100]),
   midi.NoteOnEvent(tick=0, channel=2, data=[62, 100]),
   midi.NoteOnEvent(tick=0, channel=2, data=[57, 100]),
   midi.NoteOffEvent(tick=192, channel=2, data=[62, 100]),
   midi.NoteOffEvent(tick=0, channel=2, data=[57, 100]),
   midi.NoteOnEvent(tick=0, channel=2, data=[60, 100]),
   midi.NoteOnEvent(tick=0, channel=2, data=[55, 100]),
   midi.NoteOffEvent(tick=192, channel=2, data=[60, 100]),
   midi.NoteOffEvent(tick=0, channel=2, data=[55, 100]),
   midi.NoteOnEvent(tick=0, channel=2, data=[57, 100]),
   midi.NoteOffEvent(tick=192, channel=2, data=[57, 100]),
   midi.NoteOnEvent(tick=0, channel=2, data=[53, 100]),
   midi.NoteOffEvent(tick=188, channel=2, data=[53, 100]),
   midi.NoteOnEvent(tick=4, channel=2, data=[41, 100]),
   midi.NoteOffEvent(tick=380, channel=2, data=[41, 100]),
   midi.NoteOnEvent(tick=4, channel=2, data=[53, 100]),
   midi.NoteOffEvent(tick=188, channel=2, data=[53, 100]),
   midi.NoteOnEvent(tick=4, channel=2, data=[40, 100]),
   midi.NoteOffEvent(tick=380, channel=2, data=[40, 100]),
   midi.NoteOnEvent(tick=4, channel=2, data=[53, 100]),
   midi.NoteOffEvent(tick=188, channel=2, data=[53, 100]),
   midi.NoteOnEvent(tick=4, channel=2, data=[50, 100]),
   midi.NoteOffEvent(tick=380, channel=2, data=[50, 100]),
   midi.NoteOnEvent(tick=4, channel=2, data=[57, 100]),
   midi.NoteOnEvent(tick=0, channel=2, data=[52, 100]),
   midi.NoteOffEvent(tick=188, channel=2, data=[57, 100]),
   midi.NoteOffEvent(tick=0, channel=2, data=[52, 100]),
   midi.NoteOnEvent(tick=4, channel=2, data=[60, 100]),
   midi.NoteOnEvent(tick=0, channel=2, data=[55, 100]),
   midi.NoteOffEvent(tick=384, channel=2, data=[60, 100]),
   midi.NoteOffEvent(tick=0, channel=2, data=[55, 100]),
   midi.PitchWheelEvent(tick=0, channel=2, data=[0, 32]),
   midi.NoteOnEvent(tick=0, channel=2, data=[58, 100]),
   midi.NoteOnEvent(tick=0, channel=2, data=[63, 100]),
   midi.PitchWheelEvent(tick=24, channel=2, data=[0, 40]),
   midi.PitchWheelEvent(tick=16, channel=2, data=[0, 48]),
   midi.PitchWheelEvent(tick=16, channel=2, data=[0, 56]),
   midi.PitchWheelEvent(tick=16, channel=2, data=[0, 64]),
   midi.NoteOffEvent(tick=120, channel=2, data=[58, 100]),
   midi.NoteOffEvent(tick=0, channel=2, data=[63, 100]),
   midi.NoteOnEvent(tick=0, channel=2, data=[62, 100]),
   midi.NoteOnEvent(tick=0, channel=2, data=[57, 100]),
   midi.NoteOffEvent(tick=192, channel=2, data=[62, 100]),
   midi.NoteOffEvent(tick=0, channel=2, data=[57, 100]),
   midi.NoteOnEvent(tick=0, channel=2, data=[60, 100]),
   midi.NoteOnEvent(tick=0, channel=2, data=[55, 100]),
   midi.NoteOffEvent(tick=192, channel=2, data=[60, 100]),
   midi.NoteOffEvent(tick=0, channel=2, data=[55, 100]),
   midi.NoteOnEvent(tick=0, channel=2, data=[57, 100]),
   midi.NoteOffEvent(tick=192, channel=2, data=[57, 100]),
   midi.NoteOnEvent(tick=0, channel=2, data=[57, 100]),
   midi.NoteOffEvent(tick=188, channel=2, data=[57, 100]),
   midi.NoteOnEvent(tick=4, channel=2, data=[45, 100]),
   midi.NoteOffEvent(tick=380, channel=2, data=[45, 100]),
   midi.NoteOnEvent(tick=4, channel=2, data=[57, 100]),
   midi.NoteOffEvent(tick=188, channel=2, data=[57, 100]),
   midi.NoteOnEvent(tick=4, channel=2, data=[44, 100]),
   midi.NoteOffEvent(tick=380, channel=2, data=[44, 100]),
   midi.NoteOnEvent(tick=4, channel=2, data=[57, 100]),
   midi.NoteOffEvent(tick=188, channel=2, data=[57, 100]),
   midi.NoteOnEvent(tick=4, channel=2, data=[43, 100]),
   midi.NoteOffEvent(tick=380, channel=2, data=[43, 100]),
   midi.NoteOnEvent(tick=4, channel=2, data=[57, 100]),
   midi.NoteOnEvent(tick=0, channel=2, data=[52, 100]),
   midi.NoteOffEvent(tick=188, channel=2, data=[57, 100]),
   midi.NoteOffEvent(tick=0, channel=2, data=[52, 100]),
   midi.NoteOnEvent(tick=4, channel=2, data=[60, 100]),
   midi.NoteOnEvent(tick=0, channel=2, data=[55, 100]),
   midi.NoteOffEvent(tick=384, channel=2, data=[60, 100]),
   midi.NoteOffEvent(tick=0, channel=2, data=[55, 100]),
   midi.PitchWheelEvent(tick=0, channel=2, data=[0, 32]),
   midi.NoteOnEvent(tick=0, channel=2, data=[58, 100]),
   midi.NoteOnEvent(tick=0, channel=2, data=[63, 100]),
   midi.PitchWheelEvent(tick=24, channel=2, data=[0, 40]),
   midi.PitchWheelEvent(tick=16, channel=2, data=[0, 48]),
   midi.PitchWheelEvent(tick=16, channel=2, data=[0, 56]),
   midi.PitchWheelEvent(tick=16, channel=2, data=[0, 64]),
   midi.NoteOffEvent(tick=120, channel=2, data=[58, 100]),
   midi.NoteOffEvent(tick=0, channel=2, data=[63, 100]),
   midi.NoteOnEvent(tick=0, channel=2, data=[62, 100]),
   midi.NoteOnEvent(tick=0, channel=2, data=[57, 100]),
   midi.NoteOffEvent(tick=192, channel=2, data=[62, 100]),
   midi.NoteOffEvent(tick=0, channel=2, data=[57, 100]),
   midi.NoteOnEvent(tick=0, channel=2, data=[60, 100]),
   midi.NoteOnEvent(tick=0, channel=2, data=[55, 100]),
   midi.NoteOffEvent(tick=192, channel=2, data=[60, 100]),
   midi.NoteOffEvent(tick=0, channel=2, data=[55, 100]),
   midi.NoteOnEvent(tick=0, channel=2, data=[57, 100]),
   midi.NoteOffEvent(tick=192, channel=2, data=[57, 100]),
   midi.NoteOnEvent(tick=0, channel=2, data=[53, 100]),
   midi.NoteOffEvent(tick=188, channel=2, data=[53, 100]),
   midi.NoteOnEvent(tick=4, channel=2, data=[41, 100]),
   midi.NoteOffEvent(tick=380, channel=2, data=[41, 100]),
   midi.NoteOnEvent(tick=4, channel=2, data=[53, 100]),
   midi.NoteOffEvent(tick=188, channel=2, data=[53, 100]),
   midi.NoteOnEvent(tick=4, channel=2, data=[40, 100]),
   midi.NoteOffEvent(tick=380, channel=2, data=[40, 100]),
   midi.NoteOnEvent(tick=4, channel=2, data=[53, 100]),
   midi.NoteOffEvent(tick=188, channel=2, data=[53, 100]),
   midi.NoteOnEvent(tick=4, channel=2, data=[50, 100]),
   midi.NoteOffEvent(tick=380, channel=2, data=[50, 100]),
   midi.NoteOnEvent(tick=4, channel=2, data=[57, 100]),
   midi.NoteOnEvent(tick=0, channel=2, data=[52, 100]),
   midi.NoteOffEvent(tick=188, channel=2, data=[57, 100]),
   midi.NoteOffEvent(tick=0, channel=2, data=[52, 100]),
   midi.NoteOnEvent(tick=4, channel=2, data=[60, 100]),
   midi.NoteOnEvent(tick=0, channel=2, data=[55, 100]),
   midi.NoteOffEvent(tick=384, channel=2, data=[60, 100]),
   midi.NoteOffEvent(tick=0, channel=2, data=[55, 100]),
   midi.PitchWheelEvent(tick=0, channel=2, data=[0, 32]),
   midi.NoteOnEvent(tick=0, channel=2, data=[58, 100]),
   midi.NoteOnEvent(tick=0, channel=2, data=[63, 100]),
   midi.PitchWheelEvent(tick=24, channel=2, data=[0, 40]),
   midi.PitchWheelEvent(tick=16, channel=2, data=[0, 48]),
   midi.PitchWheelEvent(tick=16, channel=2, data=[0, 56]),
   midi.PitchWheelEvent(tick=16, channel=2, data=[0, 64]),
   midi.NoteOffEvent(tick=120, channel=2, data=[58, 100]),
   midi.NoteOffEvent(tick=0, channel=2, data=[63, 100]),
   midi.NoteOnEvent(tick=0, channel=2, data=[62, 100]),
   midi.NoteOnEvent(tick=0, channel=2, data=[57, 100]),
   midi.NoteOffEvent(tick=192, channel=2, data=[62, 100]),
   midi.NoteOffEvent(tick=0, channel=2, data=[57, 100]),
   midi.NoteOnEvent(tick=0, channel=2, data=[60, 100]),
   midi.NoteOnEvent(tick=0, channel=2, data=[55, 100]),
   midi.NoteOffEvent(tick=192, channel=2, data=[60, 100]),
   midi.NoteOffEvent(tick=0, channel=2, data=[55, 100]),
   midi.NoteOnEvent(tick=0, channel=2, data=[57, 100]),
   midi.NoteOffEvent(tick=192, channel=2, data=[57, 100]),
   midi.NoteOnEvent(tick=0, channel=2, data=[57, 100]),
   midi.NoteOffEvent(tick=188, channel=2, data=[57, 100]),
   midi.NoteOnEvent(tick=4, channel=2, data=[45, 100]),
   midi.NoteOffEvent(tick=380, channel=2, data=[45, 100]),
   midi.NoteOnEvent(tick=4, channel=2, data=[57, 100]),
   midi.NoteOffEvent(tick=188, channel=2, data=[57, 100]),
   midi.NoteOnEvent(tick=4, channel=2, data=[44, 100]),
   midi.NoteOffEvent(tick=380, channel=2, data=[44, 100]),
   midi.NoteOnEvent(tick=4, channel=2, data=[57, 100]),
   midi.NoteOffEvent(tick=188, channel=2, data=[57, 100]),
   midi.NoteOnEvent(tick=4, channel=2, data=[43, 100]),
   midi.NoteOffEvent(tick=380, channel=2, data=[43, 100]),
   midi.NoteOnEvent(tick=4, channel=2, data=[57, 100]),
   midi.NoteOnEvent(tick=0, channel=2, data=[52, 100]),
   midi.NoteOffEvent(tick=188, channel=2, data=[57, 100]),
   midi.NoteOffEvent(tick=0, channel=2, data=[52, 100]),
   midi.NoteOnEvent(tick=4, channel=2, data=[60, 100]),
   midi.NoteOnEvent(tick=0, channel=2, data=[55, 100]),
   midi.NoteOffEvent(tick=384, channel=2, data=[60, 100]),
   midi.NoteOffEvent(tick=0, channel=2, data=[55, 100]),
   midi.PitchWheelEvent(tick=0, channel=2, data=[0, 32]),
   midi.NoteOnEvent(tick=0, channel=2, data=[58, 100]),
   midi.NoteOnEvent(tick=0, channel=2, data=[63, 100]),
   midi.PitchWheelEvent(tick=24, channel=2, data=[0, 40]),
   midi.PitchWheelEvent(tick=16, channel=2, data=[0, 48]),
   midi.PitchWheelEvent(tick=16, channel=2, data=[0, 56]),
   midi.PitchWheelEvent(tick=16, channel=2, data=[0, 64]),
   midi.NoteOffEvent(tick=120, channel=2, data=[58, 100]),
   midi.NoteOffEvent(tick=0, channel=2, data=[63, 100]),
   midi.NoteOnEvent(tick=0, channel=2, data=[62, 100]),
   midi.NoteOnEvent(tick=0, channel=2, data=[57, 100]),
   midi.NoteOffEvent(tick=192, channel=2, data=[62, 100]),
   midi.NoteOffEvent(tick=0, channel=2, data=[57, 100]),
   midi.NoteOnEvent(tick=0, channel=2, data=[60, 100]),
   midi.NoteOnEvent(tick=0, channel=2, data=[55, 100]),
   midi.NoteOffEvent(tick=192, channel=2, data=[60, 100]),
   midi.NoteOffEvent(tick=0, channel=2, data=[55, 100]),
   midi.NoteOnEvent(tick=0, channel=2, data=[57, 100]),
   midi.NoteOffEvent(tick=192, channel=2, data=[57, 100]),
   midi.NoteOnEvent(tick=0, channel=2, data=[53, 100]),
   midi.NoteOffEvent(tick=188, channel=2, data=[53, 100]),
   midi.NoteOnEvent(tick=4, channel=2, data=[41, 100]),
   midi.NoteOffEvent(tick=380, channel=2, data=[41, 100]),
   midi.NoteOnEvent(tick=4, channel=2, data=[53, 100]),
   midi.NoteOffEvent(tick=188, channel=2, data=[53, 100]),
   midi.NoteOnEvent(tick=4, channel=2, data=[40, 100]),
   midi.NoteOffEvent(tick=380, channel=2, data=[40, 100]),
   midi.NoteOnEvent(tick=4, channel=2, data=[53, 100]),
   midi.NoteOffEvent(tick=188, channel=2, data=[53, 100]),
   midi.NoteOnEvent(tick=4, channel=2, data=[50, 100]),
   midi.NoteOffEvent(tick=380, channel=2, data=[50, 100]),
   midi.NoteOnEvent(tick=4, channel=2, data=[57, 100]),
   midi.NoteOnEvent(tick=0, channel=2, data=[52, 100]),
   midi.NoteOffEvent(tick=188, channel=2, data=[57, 100]),
   midi.NoteOffEvent(tick=0, channel=2, data=[52, 100]),
   midi.NoteOnEvent(tick=4, channel=2, data=[60, 100]),
   midi.NoteOnEvent(tick=0, channel=2, data=[55, 100]),
   midi.NoteOffEvent(tick=384, channel=2, data=[60, 100]),
   midi.NoteOffEvent(tick=0, channel=2, data=[55, 100]),
   midi.PitchWheelEvent(tick=0, channel=2, data=[0, 32]),
   midi.NoteOnEvent(tick=0, channel=2, data=[58, 100]),
   midi.NoteOnEvent(tick=0, channel=2, data=[63, 100]),
   midi.PitchWheelEvent(tick=24, channel=2, data=[0, 40]),
   midi.PitchWheelEvent(tick=16, channel=2, data=[0, 48]),
   midi.PitchWheelEvent(tick=16, channel=2, data=[0, 56]),
   midi.PitchWheelEvent(tick=16, channel=2, data=[0, 64]),
   midi.NoteOffEvent(tick=120, channel=2, data=[58, 100]),
   midi.NoteOffEvent(tick=0, channel=2, data=[63, 100]),
   midi.NoteOnEvent(tick=0, channel=2, data=[62, 100]),
   midi.NoteOnEvent(tick=0, channel=2, data=[57, 100]),
   midi.NoteOffEvent(tick=192, channel=2, data=[62, 100]),
   midi.NoteOffEvent(tick=0, channel=2, data=[57, 100]),
   midi.NoteOnEvent(tick=0, channel=2, data=[60, 100]),
   midi.NoteOnEvent(tick=0, channel=2, data=[55, 100]),
   midi.NoteOffEvent(tick=192, channel=2, data=[60, 100]),
   midi.NoteOffEvent(tick=0, channel=2, data=[55, 100]),
   midi.NoteOnEvent(tick=0, channel=2, data=[57, 100]),
   midi.NoteOffEvent(tick=192, channel=2, data=[57, 100]),
   midi.NoteOnEvent(tick=0, channel=2, data=[57, 100]),
   midi.NoteOffEvent(tick=188, channel=2, data=[57, 100]),
   midi.NoteOnEvent(tick=4, channel=2, data=[45, 100]),
   midi.NoteOffEvent(tick=380, channel=2, data=[45, 100]),
   midi.NoteOnEvent(tick=4, channel=2, data=[57, 100]),
   midi.NoteOffEvent(tick=188, channel=2, data=[57, 100]),
   midi.NoteOnEvent(tick=4, channel=2, data=[44, 100]),
   midi.NoteOffEvent(tick=380, channel=2, data=[44, 100]),
   midi.NoteOnEvent(tick=4, channel=2, data=[57, 100]),
   midi.NoteOffEvent(tick=188, channel=2, data=[57, 100]),
   midi.NoteOnEvent(tick=4, channel=2, data=[43, 100]),
   midi.NoteOffEvent(tick=380, channel=2, data=[43, 100]),
   midi.NoteOnEvent(tick=4, channel=2, data=[57, 100]),
   midi.NoteOnEvent(tick=0, channel=2, data=[52, 100]),
   midi.NoteOffEvent(tick=188, channel=2, data=[57, 100]),
   midi.NoteOffEvent(tick=0, channel=2, data=[52, 100]),
   midi.NoteOnEvent(tick=4, channel=2, data=[60, 100]),
   midi.NoteOnEvent(tick=0, channel=2, data=[55, 100]),
   midi.NoteOffEvent(tick=384, channel=2, data=[60, 100]),
   midi.NoteOffEvent(tick=0, channel=2, data=[55, 100]),
   midi.PitchWheelEvent(tick=0, channel=2, data=[0, 32]),
   midi.NoteOnEvent(tick=0, channel=2, data=[58, 100]),
   midi.NoteOnEvent(tick=0, channel=2, data=[63, 100]),
   midi.PitchWheelEvent(tick=24, channel=2, data=[0, 40]),
   midi.PitchWheelEvent(tick=16, channel=2, data=[0, 48]),
   midi.PitchWheelEvent(tick=16, channel=2, data=[0, 56]),
   midi.PitchWheelEvent(tick=16, channel=2, data=[0, 64]),
   midi.NoteOffEvent(tick=120, channel=2, data=[58, 100]),
   midi.NoteOffEvent(tick=0, channel=2, data=[63, 100]),
   midi.NoteOnEvent(tick=0, channel=2, data=[62, 100]),
   midi.NoteOnEvent(tick=0, channel=2, data=[57, 100]),
   midi.NoteOffEvent(tick=192, channel=2, data=[62, 100]),
   midi.NoteOffEvent(tick=0, channel=2, data=[57, 100]),
   midi.NoteOnEvent(tick=0, channel=2, data=[60, 100]),
   midi.NoteOnEvent(tick=0, channel=2, data=[55, 100]),
   midi.NoteOffEvent(tick=192, channel=2, data=[60, 100]),
   midi.NoteOffEvent(tick=0, channel=2, data=[55, 100]),
   midi.NoteOnEvent(tick=0, channel=2, data=[57, 100]),
   midi.NoteOffEvent(tick=192, channel=2, data=[57, 100]),
   midi.NoteOnEvent(tick=0, channel=2, data=[53, 100]),
   midi.NoteOffEvent(tick=188, channel=2, data=[53, 100]),
   midi.NoteOnEvent(tick=4, channel=2, data=[41, 100]),
   midi.NoteOffEvent(tick=380, channel=2, data=[41, 100]),
   midi.NoteOnEvent(tick=4, channel=2, data=[53, 100]),
   midi.NoteOffEvent(tick=188, channel=2, data=[53, 100]),
   midi.NoteOnEvent(tick=4, channel=2, data=[40, 100]),
   midi.NoteOffEvent(tick=380, channel=2, data=[40, 100]),
   midi.NoteOnEvent(tick=4, channel=2, data=[53, 100]),
   midi.NoteOffEvent(tick=188, channel=2, data=[53, 100]),
   midi.NoteOnEvent(tick=4, channel=2, data=[50, 100]),
   midi.PitchWheelEvent(tick=288, channel=2, data=[0, 66]),
   midi.PitchWheelEvent(tick=96, channel=2, data=[0, 68]),
   midi.PitchWheelEvent(tick=96, channel=2, data=[0, 70]),
   midi.PitchWheelEvent(tick=96, channel=2, data=[0, 72]),
   midi.PitchWheelEvent(tick=96, channel=2, data=[0, 74]),
   midi.PitchWheelEvent(tick=96, channel=2, data=[0, 76]),
   midi.PitchWheelEvent(tick=96, channel=2, data=[0, 78]),
   midi.PitchWheelEvent(tick=96, channel=2, data=[0, 80]),
   midi.PitchWheelEvent(tick=96, channel=2, data=[0, 82]),
   midi.PitchWheelEvent(tick=96, channel=2, data=[0, 84]),
   midi.PitchWheelEvent(tick=96, channel=2, data=[0, 86]),
   midi.PitchWheelEvent(tick=96, channel=2, data=[0, 88]),
   midi.PitchWheelEvent(tick=96, channel=2, data=[0, 90]),
   midi.PitchWheelEvent(tick=96, channel=2, data=[0, 92]),
   midi.PitchWheelEvent(tick=96, channel=2, data=[0, 94]),
   midi.PitchWheelEvent(tick=96, channel=2, data=[0, 96]),
   midi.NoteOffEvent(tick=1532, channel=2, data=[50, 100]),
   midi.PitchWheelEvent(tick=4, channel=2, data=[0, 64]),
   midi.NoteOnEvent(tick=0, channel=2, data=[57, 100]),
   midi.NoteOnEvent(tick=0, channel=2, data=[45, 100]),
   midi.NoteOffEvent(tick=192, channel=2, data=[57, 100]),
   midi.NoteOffEvent(tick=0, channel=2, data=[45, 100]),
   midi.NoteOnEvent(tick=0, channel=2, data=[45, 100]),
   midi.NoteOffEvent(tick=76, channel=2, data=[45, 100]),
   midi.NoteOnEvent(tick=116, channel=2, data=[45, 100]),
   midi.NoteOffEvent(tick=76, channel=2, data=[45, 100]),
   midi.NoteOnEvent(tick=116, channel=2, data=[60, 100]),
   midi.NoteOnEvent(tick=0, channel=2, data=[55, 100]),
   midi.NoteOffEvent(tick=192, channel=2, data=[60, 100]),
   midi.NoteOffEvent(tick=0, channel=2, data=[55, 100]),
   midi.NoteOnEvent(tick=0, channel=2, data=[45, 100]),
   midi.NoteOffEvent(tick=76, channel=2, data=[45, 100]),
   midi.NoteOnEvent(tick=116, channel=2, data=[45, 100]),
   midi.NoteOffEvent(tick=76, channel=2, data=[45, 100]),
   midi.NoteOnEvent(tick=116, channel=2, data=[62, 100]),
   midi.NoteOnEvent(tick=0, channel=2, data=[57, 100]),
   midi.NoteOffEvent(tick=576, channel=2, data=[57, 64]),
   midi.NoteOffEvent(tick=0, channel=2, data=[62, 64]),
   midi.NoteOnEvent(tick=0, channel=2, data=[57, 100]),
   midi.NoteOnEvent(tick=0, channel=2, data=[52, 100]),
   midi.NoteOffEvent(tick=192, channel=2, data=[57, 100]),
   midi.NoteOffEvent(tick=0, channel=2, data=[52, 100]),
   midi.NoteOnEvent(tick=0, channel=2, data=[60, 100]),
   midi.NoteOnEvent(tick=0, channel=2, data=[55, 100]),
   midi.NoteOffEvent(tick=384, channel=2, data=[60, 100]),
   midi.NoteOffEvent(tick=0, channel=2, data=[55, 100]),
   midi.PitchWheelEvent(tick=0, channel=2, data=[0, 32]),
   midi.NoteOnEvent(tick=0, channel=2, data=[58, 100]),
   midi.NoteOnEvent(tick=0, channel=2, data=[63, 100]),
   midi.PitchWheelEvent(tick=24, channel=2, data=[0, 40]),
   midi.PitchWheelEvent(tick=16, channel=2, data=[0, 48]),
   midi.PitchWheelEvent(tick=16, channel=2, data=[0, 56]),
   midi.PitchWheelEvent(tick=16, channel=2, data=[0, 64]),
   midi.NoteOffEvent(tick=120, channel=2, data=[58, 100]),
   midi.NoteOffEvent(tick=0, channel=2, data=[63, 100]),
   midi.NoteOnEvent(tick=0, channel=2, data=[62, 100]),
   midi.NoteOnEvent(tick=0, channel=2, data=[57, 100]),
   midi.NoteOffEvent(tick=192, channel=2, data=[62, 100]),
   midi.NoteOffEvent(tick=0, channel=2, data=[57, 100]),
   midi.NoteOnEvent(tick=0, channel=2, data=[60, 100]),
   midi.NoteOnEvent(tick=0, channel=2, data=[55, 100]),
   midi.NoteOffEvent(tick=192, channel=2, data=[60, 100]),
   midi.NoteOffEvent(tick=0, channel=2, data=[55, 100]),
   midi.NoteOnEvent(tick=0, channel=2, data=[57, 100]),
   midi.NoteOffEvent(tick=192, channel=2, data=[57, 100]),
   midi.NoteOnEvent(tick=0, channel=2, data=[57, 100]),
   midi.NoteOnEvent(tick=0, channel=2, data=[45, 100]),
   midi.NoteOffEvent(tick=192, channel=2, data=[57, 100]),
   midi.NoteOffEvent(tick=0, channel=2, data=[45, 100]),
   midi.NoteOnEvent(tick=0, channel=2, data=[45, 100]),
   midi.NoteOffEvent(tick=76, channel=2, data=[45, 100]),
   midi.NoteOnEvent(tick=116, channel=2, data=[45, 100]),
   midi.NoteOffEvent(tick=76, channel=2, data=[45, 100]),
   midi.NoteOnEvent(tick=116, channel=2, data=[60, 100]),
   midi.NoteOnEvent(tick=0, channel=2, data=[55, 100]),
   midi.NoteOffEvent(tick=192, channel=2, data=[60, 100]),
   midi.NoteOffEvent(tick=0, channel=2, data=[55, 100]),
   midi.NoteOnEvent(tick=192, channel=2, data=[43, 100]),
   midi.NoteOffEvent(tick=76, channel=2, data=[43, 100]),
   midi.NoteOnEvent(tick=116, channel=2, data=[57, 100]),
   midi.NoteOnEvent(tick=0, channel=2, data=[52, 100]),
   midi.NoteOnEvent(tick=0, channel=2, data=[45, 100]),
   midi.NoteOffEvent(tick=576, channel=2, data=[45, 64]),
   midi.NoteOffEvent(tick=0, channel=2, data=[52, 64]),
   midi.NoteOffEvent(tick=0, channel=2, data=[57, 64]),
   midi.NoteOnEvent(tick=0, channel=2, data=[57, 100]),
   midi.NoteOnEvent(tick=0, channel=2, data=[52, 100]),
   midi.NoteOffEvent(tick=192, channel=2, data=[57, 100]),
   midi.NoteOffEvent(tick=0, channel=2, data=[52, 100]),
   midi.NoteOnEvent(tick=0, channel=2, data=[60, 100]),
   midi.NoteOnEvent(tick=0, channel=2, data=[55, 100]),
   midi.NoteOffEvent(tick=384, channel=2, data=[60, 100]),
   midi.NoteOffEvent(tick=0, channel=2, data=[55, 100]),
   midi.PitchWheelEvent(tick=0, channel=2, data=[0, 32]),
   midi.NoteOnEvent(tick=0, channel=2, data=[58, 100]),
   midi.NoteOnEvent(tick=0, channel=2, data=[63, 100]),
   midi.PitchWheelEvent(tick=24, channel=2, data=[0, 40]),
   midi.PitchWheelEvent(tick=16, channel=2, data=[0, 48]),
   midi.PitchWheelEvent(tick=16, channel=2, data=[0, 56]),
   midi.PitchWheelEvent(tick=16, channel=2, data=[0, 64]),
   midi.NoteOffEvent(tick=120, channel=2, data=[58, 100]),
   midi.NoteOffEvent(tick=0, channel=2, data=[63, 100]),
   midi.NoteOnEvent(tick=0, channel=2, data=[62, 100]),
   midi.NoteOnEvent(tick=0, channel=2, data=[57, 100]),
   midi.NoteOffEvent(tick=192, channel=2, data=[62, 100]),
   midi.NoteOffEvent(tick=0, channel=2, data=[57, 100]),
   midi.NoteOnEvent(tick=0, channel=2, data=[60, 100]),
   midi.NoteOnEvent(tick=0, channel=2, data=[55, 100]),
   midi.NoteOffEvent(tick=192, channel=2, data=[60, 100]),
   midi.NoteOffEvent(tick=0, channel=2, data=[55, 100]),
   midi.NoteOnEvent(tick=0, channel=2, data=[57, 100]),
   midi.NoteOffEvent(tick=192, channel=2, data=[57, 100]),
   midi.NoteOnEvent(tick=0, channel=2, data=[57, 100]),
   midi.NoteOnEvent(tick=0, channel=2, data=[45, 100]),
   midi.NoteOffEvent(tick=192, channel=2, data=[57, 100]),
   midi.NoteOffEvent(tick=0, channel=2, data=[45, 100]),
   midi.NoteOnEvent(tick=0, channel=2, data=[45, 100]),
   midi.NoteOffEvent(tick=76, channel=2, data=[45, 100]),
   midi.NoteOnEvent(tick=116, channel=2, data=[45, 100]),
   midi.NoteOffEvent(tick=76, channel=2, data=[45, 100]),
   midi.NoteOnEvent(tick=116, channel=2, data=[60, 100]),
   midi.NoteOnEvent(tick=0, channel=2, data=[55, 100]),
   midi.NoteOffEvent(tick=192, channel=2, data=[60, 100]),
   midi.NoteOffEvent(tick=0, channel=2, data=[55, 100]),
   midi.NoteOnEvent(tick=0, channel=2, data=[45, 100]),
   midi.NoteOffEvent(tick=76, channel=2, data=[45, 100]),
   midi.NoteOnEvent(tick=116, channel=2, data=[45, 100]),
   midi.NoteOffEvent(tick=76, channel=2, data=[45, 100]),
   midi.NoteOnEvent(tick=116, channel=2, data=[62, 100]),
   midi.NoteOnEvent(tick=0, channel=2, data=[57, 100]),
   midi.NoteOffEvent(tick=576, channel=2, data=[57, 64]),
   midi.NoteOffEvent(tick=0, channel=2, data=[62, 64]),
   midi.NoteOnEvent(tick=0, channel=2, data=[57, 100]),
   midi.NoteOnEvent(tick=0, channel=2, data=[52, 100]),
   midi.NoteOffEvent(tick=192, channel=2, data=[57, 100]),
   midi.NoteOffEvent(tick=0, channel=2, data=[52, 100]),
   midi.NoteOnEvent(tick=0, channel=2, data=[60, 100]),
   midi.NoteOnEvent(tick=0, channel=2, data=[55, 100]),
   midi.NoteOffEvent(tick=384, channel=2, data=[60, 100]),
   midi.NoteOffEvent(tick=0, channel=2, data=[55, 100]),
   midi.PitchWheelEvent(tick=0, channel=2, data=[0, 32]),
   midi.NoteOnEvent(tick=0, channel=2, data=[58, 100]),
   midi.NoteOnEvent(tick=0, channel=2, data=[63, 100]),
   midi.PitchWheelEvent(tick=24, channel=2, data=[0, 40]),
   midi.PitchWheelEvent(tick=16, channel=2, data=[0, 48]),
   midi.PitchWheelEvent(tick=16, channel=2, data=[0, 56]),
   midi.PitchWheelEvent(tick=16, channel=2, data=[0, 64]),
   midi.NoteOffEvent(tick=120, channel=2, data=[58, 100]),
   midi.NoteOffEvent(tick=0, channel=2, data=[63, 100]),
   midi.NoteOnEvent(tick=0, channel=2, data=[62, 100]),
   midi.NoteOnEvent(tick=0, channel=2, data=[57, 100]),
   midi.NoteOffEvent(tick=192, channel=2, data=[62, 100]),
   midi.NoteOffEvent(tick=0, channel=2, data=[57, 100]),
   midi.NoteOnEvent(tick=0, channel=2, data=[60, 100]),
   midi.NoteOnEvent(tick=0, channel=2, data=[55, 100]),
   midi.NoteOffEvent(tick=192, channel=2, data=[60, 100]),
   midi.NoteOffEvent(tick=0, channel=2, data=[55, 100]),
   midi.NoteOnEvent(tick=0, channel=2, data=[57, 100]),
   midi.NoteOffEvent(tick=192, channel=2, data=[57, 100]),
   midi.NoteOnEvent(tick=0, channel=2, data=[57, 100]),
   midi.NoteOnEvent(tick=0, channel=2, data=[45, 100]),
   midi.NoteOffEvent(tick=192, channel=2, data=[57, 100]),
   midi.NoteOffEvent(tick=0, channel=2, data=[45, 100]),
   midi.NoteOnEvent(tick=0, channel=2, data=[45, 100]),
   midi.NoteOffEvent(tick=76, channel=2, data=[45, 100]),
   midi.NoteOnEvent(tick=116, channel=2, data=[45, 100]),
   midi.NoteOffEvent(tick=76, channel=2, data=[45, 100]),
   midi.NoteOnEvent(tick=116, channel=2, data=[60, 100]),
   midi.NoteOnEvent(tick=0, channel=2, data=[55, 100]),
   midi.NoteOffEvent(tick=192, channel=2, data=[60, 100]),
   midi.NoteOffEvent(tick=0, channel=2, data=[55, 100]),
   midi.NoteOnEvent(tick=192, channel=2, data=[43, 100]),
   midi.NoteOffEvent(tick=76, channel=2, data=[43, 100]),
   midi.NoteOnEvent(tick=116, channel=2, data=[57, 100]),
   midi.NoteOnEvent(tick=0, channel=2, data=[52, 100]),
   midi.NoteOnEvent(tick=0, channel=2, data=[45, 100]),
   midi.NoteOffEvent(tick=576, channel=2, data=[45, 64]),
   midi.NoteOffEvent(tick=0, channel=2, data=[52, 64]),
   midi.NoteOffEvent(tick=0, channel=2, data=[57, 64]),
   midi.NoteOnEvent(tick=0, channel=2, data=[57, 100]),
   midi.NoteOnEvent(tick=0, channel=2, data=[52, 100]),
   midi.NoteOffEvent(tick=192, channel=2, data=[57, 100]),
   midi.NoteOffEvent(tick=0, channel=2, data=[52, 100]),
   midi.NoteOnEvent(tick=0, channel=2, data=[60, 100]),
   midi.NoteOnEvent(tick=0, channel=2, data=[55, 100]),
   midi.NoteOffEvent(tick=384, channel=2, data=[60, 100]),
   midi.NoteOffEvent(tick=0, channel=2, data=[55, 100]),
   midi.PitchWheelEvent(tick=0, channel=2, data=[0, 32]),
   midi.NoteOnEvent(tick=0, channel=2, data=[58, 100]),
   midi.NoteOnEvent(tick=0, channel=2, data=[63, 100]),
   midi.PitchWheelEvent(tick=24, channel=2, data=[0, 40]),
   midi.PitchWheelEvent(tick=16, channel=2, data=[0, 48]),
   midi.PitchWheelEvent(tick=16, channel=2, data=[0, 56]),
   midi.PitchWheelEvent(tick=16, channel=2, data=[0, 64]),
   midi.NoteOffEvent(tick=120, channel=2, data=[58, 100]),
   midi.NoteOffEvent(tick=0, channel=2, data=[63, 100]),
   midi.NoteOnEvent(tick=0, channel=2, data=[62, 100]),
   midi.NoteOnEvent(tick=0, channel=2, data=[57, 100]),
   midi.NoteOffEvent(tick=192, channel=2, data=[62, 100]),
   midi.NoteOffEvent(tick=0, channel=2, data=[57, 100]),
   midi.NoteOnEvent(tick=0, channel=2, data=[60, 100]),
   midi.NoteOnEvent(tick=0, channel=2, data=[55, 100]),
   midi.NoteOffEvent(tick=192, channel=2, data=[60, 100]),
   midi.NoteOffEvent(tick=0, channel=2, data=[55, 100]),
   midi.NoteOnEvent(tick=0, channel=2, data=[57, 100]),
   midi.NoteOffEvent(tick=192, channel=2, data=[57, 100]),
   midi.NoteOnEvent(tick=0, channel=2, data=[57, 100]),
   midi.NoteOnEvent(tick=0, channel=2, data=[45, 100]),
   midi.NoteOffEvent(tick=192, channel=2, data=[57, 100]),
   midi.NoteOffEvent(tick=0, channel=2, data=[45, 100]),
   midi.NoteOnEvent(tick=0, channel=2, data=[45, 100]),
   midi.NoteOffEvent(tick=76, channel=2, data=[45, 100]),
   midi.NoteOnEvent(tick=116, channel=2, data=[45, 100]),
   midi.NoteOffEvent(tick=76, channel=2, data=[45, 100]),
   midi.NoteOnEvent(tick=116, channel=2, data=[60, 100]),
   midi.NoteOnEvent(tick=0, channel=2, data=[55, 100]),
   midi.NoteOffEvent(tick=192, channel=2, data=[60, 100]),
   midi.NoteOffEvent(tick=0, channel=2, data=[55, 100]),
   midi.NoteOnEvent(tick=0, channel=2, data=[45, 100]),
   midi.NoteOffEvent(tick=76, channel=2, data=[45, 100]),
   midi.NoteOnEvent(tick=116, channel=2, data=[45, 100]),
   midi.NoteOffEvent(tick=76, channel=2, data=[45, 100]),
   midi.NoteOnEvent(tick=116, channel=2, data=[62, 100]),
   midi.NoteOnEvent(tick=0, channel=2, data=[57, 100]),
   midi.NoteOffEvent(tick=576, channel=2, data=[57, 64]),
   midi.NoteOffEvent(tick=0, channel=2, data=[62, 64]),
   midi.NoteOnEvent(tick=0, channel=2, data=[57, 100]),
   midi.NoteOnEvent(tick=0, channel=2, data=[52, 100]),
   midi.NoteOffEvent(tick=192, channel=2, data=[57, 100]),
   midi.NoteOffEvent(tick=0, channel=2, data=[52, 100]),
   midi.NoteOnEvent(tick=0, channel=2, data=[60, 100]),
   midi.NoteOnEvent(tick=0, channel=2, data=[55, 100]),
   midi.NoteOffEvent(tick=384, channel=2, data=[60, 100]),
   midi.NoteOffEvent(tick=0, channel=2, data=[55, 100]),
   midi.PitchWheelEvent(tick=0, channel=2, data=[0, 32]),
   midi.NoteOnEvent(tick=0, channel=2, data=[58, 100]),
   midi.NoteOnEvent(tick=0, channel=2, data=[63, 100]),
   midi.PitchWheelEvent(tick=24, channel=2, data=[0, 40]),
   midi.PitchWheelEvent(tick=16, channel=2, data=[0, 48]),
   midi.PitchWheelEvent(tick=16, channel=2, data=[0, 56]),
   midi.PitchWheelEvent(tick=16, channel=2, data=[0, 64]),
   midi.NoteOffEvent(tick=120, channel=2, data=[58, 100]),
   midi.NoteOffEvent(tick=0, channel=2, data=[63, 100]),
   midi.NoteOnEvent(tick=0, channel=2, data=[62, 100]),
   midi.NoteOnEvent(tick=0, channel=2, data=[57, 100]),
   midi.NoteOffEvent(tick=192, channel=2, data=[62, 100]),
   midi.NoteOffEvent(tick=0, channel=2, data=[57, 100]),
   midi.NoteOnEvent(tick=0, channel=2, data=[60, 100]),
   midi.NoteOnEvent(tick=0, channel=2, data=[55, 100]),
   midi.NoteOffEvent(tick=192, channel=2, data=[60, 100]),
   midi.NoteOffEvent(tick=0, channel=2, data=[55, 100]),
   midi.NoteOnEvent(tick=0, channel=2, data=[57, 100]),
   midi.NoteOffEvent(tick=192, channel=2, data=[57, 100]),
   midi.NoteOnEvent(tick=0, channel=2, data=[57, 100]),
   midi.NoteOnEvent(tick=0, channel=2, data=[45, 100]),
   midi.NoteOffEvent(tick=192, channel=2, data=[57, 100]),
   midi.NoteOffEvent(tick=0, channel=2, data=[45, 100]),
   midi.NoteOnEvent(tick=0, channel=2, data=[45, 100]),
   midi.NoteOffEvent(tick=76, channel=2, data=[45, 100]),
   midi.NoteOnEvent(tick=116, channel=2, data=[45, 100]),
   midi.NoteOffEvent(tick=76, channel=2, data=[45, 100]),
   midi.NoteOnEvent(tick=116, channel=2, data=[60, 100]),
   midi.NoteOnEvent(tick=0, channel=2, data=[55, 100]),
   midi.NoteOffEvent(tick=192, channel=2, data=[60, 100]),
   midi.NoteOffEvent(tick=0, channel=2, data=[55, 100]),
   midi.NoteOnEvent(tick=192, channel=2, data=[43, 100]),
   midi.NoteOffEvent(tick=76, channel=2, data=[43, 100]),
   midi.NoteOnEvent(tick=116, channel=2, data=[57, 100]),
   midi.NoteOnEvent(tick=0, channel=2, data=[52, 100]),
   midi.NoteOnEvent(tick=0, channel=2, data=[45, 100]),
   midi.NoteOffEvent(tick=576, channel=2, data=[45, 64]),
   midi.NoteOffEvent(tick=0, channel=2, data=[52, 64]),
   midi.NoteOffEvent(tick=0, channel=2, data=[57, 64]),
   midi.NoteOnEvent(tick=0, channel=2, data=[57, 100]),
   midi.NoteOnEvent(tick=0, channel=2, data=[52, 100]),
   midi.NoteOffEvent(tick=192, channel=2, data=[57, 100]),
   midi.NoteOffEvent(tick=0, channel=2, data=[52, 100]),
   midi.NoteOnEvent(tick=0, channel=2, data=[60, 100]),
   midi.NoteOnEvent(tick=0, channel=2, data=[55, 100]),
   midi.NoteOffEvent(tick=384, channel=2, data=[60, 100]),
   midi.NoteOffEvent(tick=0, channel=2, data=[55, 100]),
   midi.PitchWheelEvent(tick=0, channel=2, data=[0, 32]),
   midi.NoteOnEvent(tick=0, channel=2, data=[58, 100]),
   midi.NoteOnEvent(tick=0, channel=2, data=[63, 100]),
   midi.PitchWheelEvent(tick=24, channel=2, data=[0, 40]),
   midi.PitchWheelEvent(tick=16, channel=2, data=[0, 48]),
   midi.PitchWheelEvent(tick=16, channel=2, data=[0, 56]),
   midi.PitchWheelEvent(tick=16, channel=2, data=[0, 64]),
   midi.NoteOffEvent(tick=120, channel=2, data=[58, 100]),
   midi.NoteOffEvent(tick=0, channel=2, data=[63, 100]),
   midi.NoteOnEvent(tick=0, channel=2, data=[62, 100]),
   midi.NoteOnEvent(tick=0, channel=2, data=[57, 100]),
   midi.NoteOffEvent(tick=192, channel=2, data=[62, 100]),
   midi.NoteOffEvent(tick=0, channel=2, data=[57, 100]),
   midi.NoteOnEvent(tick=0, channel=2, data=[60, 100]),
   midi.NoteOnEvent(tick=0, channel=2, data=[55, 100]),
   midi.NoteOffEvent(tick=192, channel=2, data=[60, 100]),
   midi.NoteOffEvent(tick=0, channel=2, data=[55, 100]),
   midi.NoteOnEvent(tick=0, channel=2, data=[57, 100]),
   midi.NoteOffEvent(tick=192, channel=2, data=[57, 100]),
   midi.NoteOnEvent(tick=0, channel=2, data=[57, 100]),
   midi.NoteOnEvent(tick=0, channel=2, data=[45, 100]),
   midi.NoteOffEvent(tick=192, channel=2, data=[57, 100]),
   midi.NoteOffEvent(tick=0, channel=2, data=[45, 100]),
   midi.NoteOnEvent(tick=0, channel=2, data=[45, 100]),
   midi.NoteOffEvent(tick=76, channel=2, data=[45, 100]),
   midi.NoteOnEvent(tick=116, channel=2, data=[45, 100]),
   midi.NoteOffEvent(tick=76, channel=2, data=[45, 100]),
   midi.NoteOnEvent(tick=116, channel=2, data=[60, 100]),
   midi.NoteOnEvent(tick=0, channel=2, data=[55, 100]),
   midi.NoteOffEvent(tick=192, channel=2, data=[60, 100]),
   midi.NoteOffEvent(tick=0, channel=2, data=[55, 100]),
   midi.NoteOnEvent(tick=0, channel=2, data=[45, 100]),
   midi.NoteOffEvent(tick=76, channel=2, data=[45, 100]),
   midi.NoteOnEvent(tick=116, channel=2, data=[45, 100]),
   midi.NoteOffEvent(tick=76, channel=2, data=[45, 100]),
   midi.NoteOnEvent(tick=116, channel=2, data=[62, 100]),
   midi.NoteOnEvent(tick=0, channel=2, data=[57, 100]),
   midi.NoteOffEvent(tick=576, channel=2, data=[57, 64]),
   midi.NoteOffEvent(tick=0, channel=2, data=[62, 64]),
   midi.NoteOnEvent(tick=0, channel=2, data=[57, 100]),
   midi.NoteOnEvent(tick=0, channel=2, data=[52, 100]),
   midi.NoteOffEvent(tick=192, channel=2, data=[57, 100]),
   midi.NoteOffEvent(tick=0, channel=2, data=[52, 100]),
   midi.NoteOnEvent(tick=0, channel=2, data=[60, 100]),
   midi.NoteOnEvent(tick=0, channel=2, data=[55, 100]),
   midi.NoteOffEvent(tick=384, channel=2, data=[60, 100]),
   midi.NoteOffEvent(tick=0, channel=2, data=[55, 100]),
   midi.PitchWheelEvent(tick=0, channel=2, data=[0, 32]),
   midi.NoteOnEvent(tick=0, channel=2, data=[58, 100]),
   midi.NoteOnEvent(tick=0, channel=2, data=[63, 100]),
   midi.PitchWheelEvent(tick=24, channel=2, data=[0, 40]),
   midi.PitchWheelEvent(tick=16, channel=2, data=[0, 48]),
   midi.PitchWheelEvent(tick=16, channel=2, data=[0, 56]),
   midi.PitchWheelEvent(tick=16, channel=2, data=[0, 64]),
   midi.NoteOffEvent(tick=120, channel=2, data=[58, 100]),
   midi.NoteOffEvent(tick=0, channel=2, data=[63, 100]),
   midi.NoteOnEvent(tick=0, channel=2, data=[62, 100]),
   midi.NoteOnEvent(tick=0, channel=2, data=[57, 100]),
   midi.NoteOffEvent(tick=192, channel=2, data=[62, 100]),
   midi.NoteOffEvent(tick=0, channel=2, data=[57, 100]),
   midi.NoteOnEvent(tick=0, channel=2, data=[60, 100]),
   midi.NoteOnEvent(tick=0, channel=2, data=[55, 100]),
   midi.NoteOffEvent(tick=192, channel=2, data=[60, 100]),
   midi.NoteOffEvent(tick=0, channel=2, data=[55, 100]),
   midi.NoteOnEvent(tick=0, channel=2, data=[57, 100]),
   midi.NoteOffEvent(tick=192, channel=2, data=[57, 100]),
   midi.NoteOnEvent(tick=0, channel=2, data=[57, 100]),
   midi.NoteOnEvent(tick=0, channel=2, data=[45, 100]),
   midi.NoteOffEvent(tick=192, channel=2, data=[57, 100]),
   midi.NoteOffEvent(tick=0, channel=2, data=[45, 100]),
   midi.NoteOnEvent(tick=0, channel=2, data=[45, 100]),
   midi.NoteOffEvent(tick=76, channel=2, data=[45, 100]),
   midi.NoteOnEvent(tick=116, channel=2, data=[45, 100]),
   midi.NoteOffEvent(tick=76, channel=2, data=[45, 100]),
   midi.NoteOnEvent(tick=116, channel=2, data=[60, 100]),
   midi.NoteOnEvent(tick=0, channel=2, data=[55, 100]),
   midi.NoteOffEvent(tick=192, channel=2, data=[60, 100]),
   midi.NoteOffEvent(tick=0, channel=2, data=[55, 100]),
   midi.NoteOnEvent(tick=192, channel=2, data=[43, 100]),
   midi.NoteOffEvent(tick=76, channel=2, data=[43, 100]),
   midi.NoteOnEvent(tick=116, channel=2, data=[45, 100]),
   midi.NoteOnEvent(tick=0, channel=2, data=[52, 100]),
   midi.NoteOnEvent(tick=0, channel=2, data=[57, 100]),
   midi.NoteOffEvent(tick=1920, channel=2, data=[57, 64]),
   midi.NoteOffEvent(tick=0, channel=2, data=[52, 64]),
   midi.NoteOffEvent(tick=0, channel=2, data=[45, 64]),
   midi.NoteOnEvent(tick=0, channel=2, data=[57, 100]),
   midi.NoteOffEvent(tick=188, channel=2, data=[57, 100]),
   midi.NoteOnEvent(tick=4, channel=2, data=[45, 100]),
   midi.NoteOffEvent(tick=380, channel=2, data=[45, 100]),
   midi.NoteOnEvent(tick=4, channel=2, data=[57, 100]),
   midi.NoteOffEvent(tick=188, channel=2, data=[57, 100]),
   midi.NoteOnEvent(tick=4, channel=2, data=[44, 100]),
   midi.NoteOffEvent(tick=380, channel=2, data=[44, 100]),
   midi.NoteOnEvent(tick=4, channel=2, data=[57, 100]),
   midi.NoteOffEvent(tick=188, channel=2, data=[57, 100]),
   midi.NoteOnEvent(tick=4, channel=2, data=[43, 100]),
   midi.NoteOffEvent(tick=380, channel=2, data=[43, 100]),
   midi.NoteOnEvent(tick=4, channel=2, data=[57, 100]),
   midi.NoteOnEvent(tick=0, channel=2, data=[52, 100]),
   midi.NoteOffEvent(tick=188, channel=2, data=[57, 100]),
   midi.NoteOffEvent(tick=0, channel=2, data=[52, 100]),
   midi.NoteOnEvent(tick=4, channel=2, data=[60, 100]),
   midi.NoteOnEvent(tick=0, channel=2, data=[55, 100]),
   midi.NoteOffEvent(tick=384, channel=2, data=[60, 100]),
   midi.NoteOffEvent(tick=0, channel=2, data=[55, 100]),
   midi.PitchWheelEvent(tick=0, channel=2, data=[0, 32]),
   midi.NoteOnEvent(tick=0, channel=2, data=[58, 100]),
   midi.NoteOnEvent(tick=0, channel=2, data=[63, 100]),
   midi.PitchWheelEvent(tick=24, channel=2, data=[0, 40]),
   midi.PitchWheelEvent(tick=16, channel=2, data=[0, 48]),
   midi.PitchWheelEvent(tick=16, channel=2, data=[0, 56]),
   midi.PitchWheelEvent(tick=16, channel=2, data=[0, 64]),
   midi.NoteOffEvent(tick=120, channel=2, data=[58, 100]),
   midi.NoteOffEvent(tick=0, channel=2, data=[63, 100]),
   midi.NoteOnEvent(tick=0, channel=2, data=[62, 100]),
   midi.NoteOnEvent(tick=0, channel=2, data=[57, 100]),
   midi.NoteOffEvent(tick=192, channel=2, data=[62, 100]),
   midi.NoteOffEvent(tick=0, channel=2, data=[57, 100]),
   midi.NoteOnEvent(tick=0, channel=2, data=[60, 100]),
   midi.NoteOnEvent(tick=0, channel=2, data=[55, 100]),
   midi.NoteOffEvent(tick=192, channel=2, data=[60, 100]),
   midi.NoteOffEvent(tick=0, channel=2, data=[55, 100]),
   midi.NoteOnEvent(tick=0, channel=2, data=[57, 100]),
   midi.NoteOffEvent(tick=192, channel=2, data=[57, 100]),
   midi.NoteOnEvent(tick=0, channel=2, data=[53, 100]),
   midi.NoteOffEvent(tick=188, channel=2, data=[53, 100]),
   midi.NoteOnEvent(tick=4, channel=2, data=[41, 100]),
   midi.NoteOffEvent(tick=380, channel=2, data=[41, 100]),
   midi.NoteOnEvent(tick=4, channel=2, data=[53, 100]),
   midi.NoteOffEvent(tick=188, channel=2, data=[53, 100]),
   midi.NoteOnEvent(tick=4, channel=2, data=[40, 100]),
   midi.NoteOffEvent(tick=380, channel=2, data=[40, 100]),
   midi.NoteOnEvent(tick=4, channel=2, data=[53, 100]),
   midi.NoteOffEvent(tick=188, channel=2, data=[53, 100]),
   midi.NoteOnEvent(tick=4, channel=2, data=[50, 100]),
   midi.NoteOffEvent(tick=380, channel=2, data=[50, 100]),
   midi.NoteOnEvent(tick=4, channel=2, data=[57, 100]),
   midi.NoteOnEvent(tick=0, channel=2, data=[52, 100]),
   midi.NoteOffEvent(tick=188, channel=2, data=[57, 100]),
   midi.NoteOffEvent(tick=0, channel=2, data=[52, 100]),
   midi.NoteOnEvent(tick=4, channel=2, data=[60, 100]),
   midi.NoteOnEvent(tick=0, channel=2, data=[55, 100]),
   midi.NoteOffEvent(tick=384, channel=2, data=[60, 100]),
   midi.NoteOffEvent(tick=0, channel=2, data=[55, 100]),
   midi.PitchWheelEvent(tick=0, channel=2, data=[0, 32]),
   midi.NoteOnEvent(tick=0, channel=2, data=[58, 100]),
   midi.NoteOnEvent(tick=0, channel=2, data=[63, 100]),
   midi.PitchWheelEvent(tick=24, channel=2, data=[0, 40]),
   midi.PitchWheelEvent(tick=16, channel=2, data=[0, 48]),
   midi.PitchWheelEvent(tick=16, channel=2, data=[0, 56]),
   midi.PitchWheelEvent(tick=16, channel=2, data=[0, 64]),
   midi.NoteOffEvent(tick=120, channel=2, data=[58, 100]),
   midi.NoteOffEvent(tick=0, channel=2, data=[63, 100]),
   midi.NoteOnEvent(tick=0, channel=2, data=[62, 100]),
   midi.NoteOnEvent(tick=0, channel=2, data=[57, 100]),
   midi.NoteOffEvent(tick=192, channel=2, data=[62, 100]),
   midi.NoteOffEvent(tick=0, channel=2, data=[57, 100]),
   midi.NoteOnEvent(tick=0, channel=2, data=[60, 100]),
   midi.NoteOnEvent(tick=0, channel=2, data=[55, 100]),
   midi.NoteOffEvent(tick=192, channel=2, data=[60, 100]),
   midi.NoteOffEvent(tick=0, channel=2, data=[55, 100]),
   midi.NoteOnEvent(tick=0, channel=2, data=[57, 100]),
   midi.NoteOffEvent(tick=192, channel=2, data=[57, 100]),
   midi.NoteOnEvent(tick=0, channel=2, data=[57, 100]),
   midi.NoteOffEvent(tick=188, channel=2, data=[57, 100]),
   midi.NoteOnEvent(tick=4, channel=2, data=[45, 100]),
   midi.NoteOffEvent(tick=380, channel=2, data=[45, 100]),
   midi.NoteOnEvent(tick=4, channel=2, data=[57, 100]),
   midi.NoteOffEvent(tick=188, channel=2, data=[57, 100]),
   midi.NoteOnEvent(tick=4, channel=2, data=[44, 100]),
   midi.NoteOffEvent(tick=380, channel=2, data=[44, 100]),
   midi.NoteOnEvent(tick=4, channel=2, data=[57, 100]),
   midi.NoteOffEvent(tick=188, channel=2, data=[57, 100]),
   midi.NoteOnEvent(tick=4, channel=2, data=[43, 100]),
   midi.NoteOffEvent(tick=380, channel=2, data=[43, 100]),
   midi.NoteOnEvent(tick=4, channel=2, data=[57, 100]),
   midi.NoteOnEvent(tick=0, channel=2, data=[52, 100]),
   midi.NoteOffEvent(tick=188, channel=2, data=[57, 100]),
   midi.NoteOffEvent(tick=0, channel=2, data=[52, 100]),
   midi.NoteOnEvent(tick=4, channel=2, data=[60, 100]),
   midi.NoteOnEvent(tick=0, channel=2, data=[55, 100]),
   midi.NoteOffEvent(tick=384, channel=2, data=[60, 100]),
   midi.NoteOffEvent(tick=0, channel=2, data=[55, 100]),
   midi.PitchWheelEvent(tick=0, channel=2, data=[0, 32]),
   midi.NoteOnEvent(tick=0, channel=2, data=[58, 100]),
   midi.NoteOnEvent(tick=0, channel=2, data=[63, 100]),
   midi.PitchWheelEvent(tick=24, channel=2, data=[0, 40]),
   midi.PitchWheelEvent(tick=16, channel=2, data=[0, 48]),
   midi.PitchWheelEvent(tick=16, channel=2, data=[0, 56]),
   midi.PitchWheelEvent(tick=16, channel=2, data=[0, 64]),
   midi.NoteOffEvent(tick=120, channel=2, data=[58, 100]),
   midi.NoteOffEvent(tick=0, channel=2, data=[63, 100]),
   midi.NoteOnEvent(tick=0, channel=2, data=[62, 100]),
   midi.NoteOnEvent(tick=0, channel=2, data=[57, 100]),
   midi.NoteOffEvent(tick=192, channel=2, data=[62, 100]),
   midi.NoteOffEvent(tick=0, channel=2, data=[57, 100]),
   midi.NoteOnEvent(tick=0, channel=2, data=[60, 100]),
   midi.NoteOnEvent(tick=0, channel=2, data=[55, 100]),
   midi.NoteOffEvent(tick=192, channel=2, data=[60, 100]),
   midi.NoteOffEvent(tick=0, channel=2, data=[55, 100]),
   midi.NoteOnEvent(tick=0, channel=2, data=[57, 100]),
   midi.NoteOffEvent(tick=192, channel=2, data=[57, 100]),
   midi.NoteOnEvent(tick=0, channel=2, data=[53, 100]),
   midi.NoteOffEvent(tick=188, channel=2, data=[53, 100]),
   midi.NoteOnEvent(tick=4, channel=2, data=[41, 100]),
   midi.NoteOffEvent(tick=380, channel=2, data=[41, 100]),
   midi.NoteOnEvent(tick=4, channel=2, data=[53, 100]),
   midi.NoteOffEvent(tick=188, channel=2, data=[53, 100]),
   midi.NoteOnEvent(tick=4, channel=2, data=[40, 100]),
   midi.NoteOffEvent(tick=380, channel=2, data=[40, 100]),
   midi.NoteOnEvent(tick=4, channel=2, data=[53, 100]),
   midi.NoteOffEvent(tick=188, channel=2, data=[53, 100]),
   midi.NoteOnEvent(tick=4, channel=2, data=[50, 100]),
   midi.NoteOffEvent(tick=380, channel=2, data=[50, 100]),
   midi.NoteOnEvent(tick=4, channel=2, data=[57, 100]),
   midi.NoteOnEvent(tick=0, channel=2, data=[52, 100]),
   midi.NoteOffEvent(tick=188, channel=2, data=[57, 100]),
   midi.NoteOffEvent(tick=0, channel=2, data=[52, 100]),
   midi.NoteOnEvent(tick=4, channel=2, data=[60, 100]),
   midi.NoteOnEvent(tick=0, channel=2, data=[55, 100]),
   midi.NoteOffEvent(tick=384, channel=2, data=[60, 100]),
   midi.NoteOffEvent(tick=0, channel=2, data=[55, 100]),
   midi.PitchWheelEvent(tick=0, channel=2, data=[0, 32]),
   midi.NoteOnEvent(tick=0, channel=2, data=[58, 100]),
   midi.NoteOnEvent(tick=0, channel=2, data=[63, 100]),
   midi.PitchWheelEvent(tick=24, channel=2, data=[0, 40]),
   midi.PitchWheelEvent(tick=16, channel=2, data=[0, 48]),
   midi.PitchWheelEvent(tick=16, channel=2, data=[0, 56]),
   midi.PitchWheelEvent(tick=16, channel=2, data=[0, 64]),
   midi.NoteOffEvent(tick=120, channel=2, data=[58, 100]),
   midi.NoteOffEvent(tick=0, channel=2, data=[63, 100]),
   midi.NoteOnEvent(tick=0, channel=2, data=[62, 100]),
   midi.NoteOnEvent(tick=0, channel=2, data=[57, 100]),
   midi.NoteOffEvent(tick=192, channel=2, data=[62, 100]),
   midi.NoteOffEvent(tick=0, channel=2, data=[57, 100]),
   midi.NoteOnEvent(tick=0, channel=2, data=[60, 100]),
   midi.NoteOnEvent(tick=0, channel=2, data=[55, 100]),
   midi.NoteOffEvent(tick=192, channel=2, data=[60, 100]),
   midi.NoteOffEvent(tick=0, channel=2, data=[55, 100]),
   midi.NoteOnEvent(tick=0, channel=2, data=[57, 100]),
   midi.NoteOffEvent(tick=192, channel=2, data=[57, 100]),
   midi.NoteOnEvent(tick=0, channel=2, data=[57, 100]),
   midi.NoteOffEvent(tick=188, channel=2, data=[57, 100]),
   midi.NoteOnEvent(tick=4, channel=2, data=[45, 100]),
   midi.NoteOffEvent(tick=380, channel=2, data=[45, 100]),
   midi.NoteOnEvent(tick=4, channel=2, data=[57, 100]),
   midi.NoteOffEvent(tick=188, channel=2, data=[57, 100]),
   midi.NoteOnEvent(tick=4, channel=2, data=[44, 100]),
   midi.NoteOffEvent(tick=380, channel=2, data=[44, 100]),
   midi.NoteOnEvent(tick=4, channel=2, data=[57, 100]),
   midi.NoteOffEvent(tick=188, channel=2, data=[57, 100]),
   midi.NoteOnEvent(tick=4, channel=2, data=[43, 100]),
   midi.NoteOffEvent(tick=380, channel=2, data=[43, 100]),
   midi.NoteOnEvent(tick=4, channel=2, data=[57, 100]),
   midi.NoteOnEvent(tick=0, channel=2, data=[52, 100]),
   midi.NoteOffEvent(tick=188, channel=2, data=[57, 100]),
   midi.NoteOffEvent(tick=0, channel=2, data=[52, 100]),
   midi.NoteOnEvent(tick=4, channel=2, data=[60, 100]),
   midi.NoteOnEvent(tick=0, channel=2, data=[55, 100]),
   midi.NoteOffEvent(tick=384, channel=2, data=[60, 100]),
   midi.NoteOffEvent(tick=0, channel=2, data=[55, 100]),
   midi.PitchWheelEvent(tick=0, channel=2, data=[0, 32]),
   midi.NoteOnEvent(tick=0, channel=2, data=[58, 100]),
   midi.NoteOnEvent(tick=0, channel=2, data=[63, 100]),
   midi.PitchWheelEvent(tick=24, channel=2, data=[0, 40]),
   midi.PitchWheelEvent(tick=16, channel=2, data=[0, 48]),
   midi.PitchWheelEvent(tick=16, channel=2, data=[0, 56]),
   midi.PitchWheelEvent(tick=16, channel=2, data=[0, 64]),
   midi.NoteOffEvent(tick=120, channel=2, data=[58, 100]),
   midi.NoteOffEvent(tick=0, channel=2, data=[63, 100]),
   midi.NoteOnEvent(tick=0, channel=2, data=[62, 100]),
   midi.NoteOnEvent(tick=0, channel=2, data=[57, 100]),
   midi.NoteOffEvent(tick=192, channel=2, data=[62, 100]),
   midi.NoteOffEvent(tick=0, channel=2, data=[57, 100]),
   midi.NoteOnEvent(tick=0, channel=2, data=[60, 100]),
   midi.NoteOnEvent(tick=0, channel=2, data=[55, 100]),
   midi.NoteOffEvent(tick=192, channel=2, data=[60, 100]),
   midi.NoteOffEvent(tick=0, channel=2, data=[55, 100]),
   midi.NoteOnEvent(tick=0, channel=2, data=[57, 100]),
   midi.NoteOffEvent(tick=192, channel=2, data=[57, 100]),
   midi.NoteOnEvent(tick=0, channel=2, data=[53, 100]),
   midi.NoteOffEvent(tick=188, channel=2, data=[53, 100]),
   midi.NoteOnEvent(tick=4, channel=2, data=[41, 100]),
   midi.NoteOffEvent(tick=380, channel=2, data=[41, 100]),
   midi.NoteOnEvent(tick=4, channel=2, data=[53, 100]),
   midi.NoteOffEvent(tick=188, channel=2, data=[53, 100]),
   midi.NoteOnEvent(tick=4, channel=2, data=[40, 100]),
   midi.NoteOffEvent(tick=380, channel=2, data=[40, 100]),
   midi.NoteOnEvent(tick=4, channel=2, data=[53, 100]),
   midi.NoteOffEvent(tick=188, channel=2, data=[53, 100]),
   midi.NoteOnEvent(tick=4, channel=2, data=[50, 100]),
   midi.NoteOffEvent(tick=380, channel=2, data=[50, 100]),
   midi.NoteOnEvent(tick=4, channel=2, data=[57, 100]),
   midi.NoteOnEvent(tick=0, channel=2, data=[52, 100]),
   midi.NoteOffEvent(tick=188, channel=2, data=[57, 100]),
   midi.NoteOffEvent(tick=0, channel=2, data=[52, 100]),
   midi.NoteOnEvent(tick=4, channel=2, data=[60, 100]),
   midi.NoteOnEvent(tick=0, channel=2, data=[55, 100]),
   midi.NoteOffEvent(tick=384, channel=2, data=[60, 100]),
   midi.NoteOffEvent(tick=0, channel=2, data=[55, 100]),
   midi.PitchWheelEvent(tick=0, channel=2, data=[0, 32]),
   midi.NoteOnEvent(tick=0, channel=2, data=[58, 100]),
   midi.NoteOnEvent(tick=0, channel=2, data=[63, 100]),
   midi.PitchWheelEvent(tick=24, channel=2, data=[0, 40]),
   midi.PitchWheelEvent(tick=16, channel=2, data=[0, 48]),
   midi.PitchWheelEvent(tick=16, channel=2, data=[0, 56]),
   midi.PitchWheelEvent(tick=16, channel=2, data=[0, 64]),
   midi.NoteOffEvent(tick=120, channel=2, data=[58, 100]),
   midi.NoteOffEvent(tick=0, channel=2, data=[63, 100]),
   midi.NoteOnEvent(tick=0, channel=2, data=[62, 100]),
   midi.NoteOnEvent(tick=0, channel=2, data=[57, 100]),
   midi.NoteOffEvent(tick=192, channel=2, data=[62, 100]),
   midi.NoteOffEvent(tick=0, channel=2, data=[57, 100]),
   midi.NoteOnEvent(tick=0, channel=2, data=[60, 100]),
   midi.NoteOnEvent(tick=0, channel=2, data=[55, 100]),
   midi.NoteOffEvent(tick=192, channel=2, data=[60, 100]),
   midi.NoteOffEvent(tick=0, channel=2, data=[55, 100]),
   midi.NoteOnEvent(tick=0, channel=2, data=[57, 100]),
   midi.NoteOffEvent(tick=192, channel=2, data=[57, 100]),
   midi.NoteOnEvent(tick=0, channel=2, data=[57, 100]),
   midi.NoteOffEvent(tick=188, channel=2, data=[57, 100]),
   midi.NoteOnEvent(tick=4, channel=2, data=[45, 100]),
   midi.NoteOffEvent(tick=380, channel=2, data=[45, 100]),
   midi.NoteOnEvent(tick=4, channel=2, data=[57, 100]),
   midi.NoteOffEvent(tick=188, channel=2, data=[57, 100]),
   midi.NoteOnEvent(tick=4, channel=2, data=[44, 100]),
   midi.NoteOffEvent(tick=380, channel=2, data=[44, 100]),
   midi.NoteOnEvent(tick=4, channel=2, data=[57, 100]),
   midi.NoteOffEvent(tick=188, channel=2, data=[57, 100]),
   midi.NoteOnEvent(tick=4, channel=2, data=[43, 100]),
   midi.NoteOffEvent(tick=380, channel=2, data=[43, 100]),
   midi.NoteOnEvent(tick=4, channel=2, data=[57, 100]),
   midi.NoteOnEvent(tick=0, channel=2, data=[52, 100]),
   midi.NoteOffEvent(tick=188, channel=2, data=[57, 100]),
   midi.NoteOffEvent(tick=0, channel=2, data=[52, 100]),
   midi.NoteOnEvent(tick=4, channel=2, data=[60, 100]),
   midi.NoteOnEvent(tick=0, channel=2, data=[55, 100]),
   midi.NoteOffEvent(tick=384, channel=2, data=[60, 100]),
   midi.NoteOffEvent(tick=0, channel=2, data=[55, 100]),
   midi.PitchWheelEvent(tick=0, channel=2, data=[0, 32]),
   midi.NoteOnEvent(tick=0, channel=2, data=[58, 100]),
   midi.NoteOnEvent(tick=0, channel=2, data=[63, 100]),
   midi.PitchWheelEvent(tick=24, channel=2, data=[0, 40]),
   midi.PitchWheelEvent(tick=16, channel=2, data=[0, 48]),
   midi.PitchWheelEvent(tick=16, channel=2, data=[0, 56]),
   midi.PitchWheelEvent(tick=16, channel=2, data=[0, 64]),
   midi.NoteOffEvent(tick=120, channel=2, data=[58, 100]),
   midi.NoteOffEvent(tick=0, channel=2, data=[63, 100]),
   midi.NoteOnEvent(tick=0, channel=2, data=[62, 100]),
   midi.NoteOnEvent(tick=0, channel=2, data=[57, 100]),
   midi.NoteOffEvent(tick=192, channel=2, data=[62, 100]),
   midi.NoteOffEvent(tick=0, channel=2, data=[57, 100]),
   midi.NoteOnEvent(tick=0, channel=2, data=[60, 100]),
   midi.NoteOnEvent(tick=0, channel=2, data=[55, 100]),
   midi.NoteOffEvent(tick=192, channel=2, data=[60, 100]),
   midi.NoteOffEvent(tick=0, channel=2, data=[55, 100]),
   midi.NoteOnEvent(tick=0, channel=2, data=[57, 100]),
   midi.NoteOffEvent(tick=192, channel=2, data=[57, 100]),
   midi.NoteOnEvent(tick=0, channel=2, data=[53, 100]),
   midi.NoteOffEvent(tick=188, channel=2, data=[53, 100]),
   midi.NoteOnEvent(tick=4, channel=2, data=[41, 100]),
   midi.NoteOffEvent(tick=380, channel=2, data=[41, 100]),
   midi.NoteOnEvent(tick=4, channel=2, data=[53, 100]),
   midi.NoteOffEvent(tick=188, channel=2, data=[53, 100]),
   midi.NoteOnEvent(tick=4, channel=2, data=[40, 100]),
   midi.NoteOffEvent(tick=380, channel=2, data=[40, 100]),
   midi.NoteOnEvent(tick=4, channel=2, data=[53, 100]),
   midi.NoteOffEvent(tick=188, channel=2, data=[53, 100]),
   midi.NoteOnEvent(tick=4, channel=2, data=[50, 100]),
   midi.PitchWheelEvent(tick=288, channel=2, data=[0, 66]),
   midi.PitchWheelEvent(tick=96, channel=2, data=[0, 68]),
   midi.PitchWheelEvent(tick=96, channel=2, data=[0, 70]),
   midi.PitchWheelEvent(tick=96, channel=2, data=[0, 72]),
   midi.PitchWheelEvent(tick=96, channel=2, data=[0, 74]),
   midi.PitchWheelEvent(tick=96, channel=2, data=[0, 76]),
   midi.PitchWheelEvent(tick=96, channel=2, data=[0, 78]),
   midi.PitchWheelEvent(tick=96, channel=2, data=[0, 80]),
   midi.PitchWheelEvent(tick=96, channel=2, data=[0, 82]),
   midi.PitchWheelEvent(tick=96, channel=2, data=[0, 84]),
   midi.PitchWheelEvent(tick=96, channel=2, data=[0, 86]),
   midi.PitchWheelEvent(tick=96, channel=2, data=[0, 88]),
   midi.PitchWheelEvent(tick=96, channel=2, data=[0, 90]),
   midi.PitchWheelEvent(tick=96, channel=2, data=[0, 92]),
   midi.PitchWheelEvent(tick=96, channel=2, data=[0, 94]),
   midi.PitchWheelEvent(tick=96, channel=2, data=[0, 96]),
   midi.NoteOffEvent(tick=1532, channel=2, data=[50, 100]),
   midi.PitchWheelEvent(tick=4, channel=2, data=[0, 64]),
   midi.NoteOnEvent(tick=0, channel=2, data=[45, 100]),
   midi.NoteOffEvent(tick=92, channel=2, data=[45, 100]),
   midi.NoteOnEvent(tick=100, channel=2, data=[43, 100]),
   midi.NoteOffEvent(tick=92, channel=2, data=[43, 100]),
   midi.NoteOnEvent(tick=100, channel=2, data=[45, 100]),
   midi.NoteOffEvent(tick=92, channel=2, data=[45, 100]),
   midi.NoteOnEvent(tick=100, channel=2, data=[48, 100]),
   midi.NoteOffEvent(tick=92, channel=2, data=[48, 100]),
   midi.NoteOnEvent(tick=292, channel=2, data=[43, 100]),
   midi.NoteOffEvent(tick=92, channel=2, data=[43, 100]),
   midi.NoteOnEvent(tick=100, channel=2, data=[52, 100]),
   midi.NoteOnEvent(tick=0, channel=2, data=[45, 100]),
   midi.NoteOffEvent(tick=572, channel=2, data=[45, 100]),
   midi.NoteOffEvent(tick=0, channel=2, data=[52, 100]),
   midi.NoteOnEvent(tick=4, channel=2, data=[48, 100]),
   midi.NoteOffEvent(tick=188, channel=2, data=[48, 100]),
   midi.NoteOnEvent(tick=4, channel=2, data=[45, 100]),
   midi.NoteOffEvent(tick=188, channel=2, data=[45, 100]),
   midi.NoteOnEvent(tick=4, channel=2, data=[43, 100]),
   midi.NoteOffEvent(tick=188, channel=2, data=[43, 100]),
   midi.NoteOnEvent(tick=4, channel=2, data=[45, 100]),
   midi.NoteOffEvent(tick=92, channel=2, data=[45, 100]),
   midi.NoteOnEvent(tick=100, channel=2, data=[43, 100]),
   midi.NoteOffEvent(tick=92, channel=2, data=[43, 100]),
   midi.NoteOnEvent(tick=100, channel=2, data=[42, 100]),
   midi.NoteOffEvent(tick=92, channel=2, data=[42, 100]),
   midi.NoteOnEvent(tick=100, channel=2, data=[40, 100]),
   midi.NoteOffEvent(tick=92, channel=2, data=[40, 100]),
   midi.NoteOnEvent(tick=100, channel=2, data=[45, 100]),
   midi.NoteOffEvent(tick=92, channel=2, data=[45, 100]),
   midi.NoteOnEvent(tick=100, channel=2, data=[43, 100]),
   midi.NoteOffEvent(tick=92, channel=2, data=[43, 100]),
   midi.NoteOnEvent(tick=100, channel=2, data=[45, 100]),
   midi.NoteOffEvent(tick=92, channel=2, data=[45, 100]),
   midi.NoteOnEvent(tick=100, channel=2, data=[48, 100]),
   midi.NoteOffEvent(tick=92, channel=2, data=[48, 100]),
   midi.NoteOnEvent(tick=292, channel=2, data=[43, 100]),
   midi.NoteOffEvent(tick=92, channel=2, data=[43, 100]),
   midi.NoteOnEvent(tick=100, channel=2, data=[52, 100]),
   midi.NoteOnEvent(tick=0, channel=2, data=[45, 100]),
   midi.NoteOffEvent(tick=572, channel=2, data=[45, 100]),
   midi.NoteOffEvent(tick=0, channel=2, data=[52, 100]),
   midi.NoteOnEvent(tick=4, channel=2, data=[48, 100]),
   midi.NoteOffEvent(tick=188, channel=2, data=[48, 100]),
   midi.NoteOnEvent(tick=4, channel=2, data=[45, 100]),
   midi.NoteOffEvent(tick=188, channel=2, data=[45, 100]),
   midi.NoteOnEvent(tick=4, channel=2, data=[43, 100]),
   midi.NoteOffEvent(tick=188, channel=2, data=[43, 100]),
   midi.NoteOnEvent(tick=4, channel=2, data=[45, 100]),
   midi.NoteOffEvent(tick=92, channel=2, data=[45, 100]),
   midi.NoteOnEvent(tick=100, channel=2, data=[43, 100]),
   midi.NoteOffEvent(tick=92, channel=2, data=[43, 100]),
   midi.NoteOnEvent(tick=100, channel=2, data=[42, 100]),
   midi.NoteOffEvent(tick=92, channel=2, data=[42, 100]),
   midi.NoteOnEvent(tick=100, channel=2, data=[40, 100]),
   midi.NoteOffEvent(tick=92, channel=2, data=[40, 100]),
   midi.NoteOnEvent(tick=100, channel=2, data=[42, 100]),
   midi.NoteOffEvent(tick=92, channel=2, data=[42, 100]),
   midi.NoteOnEvent(tick=100, channel=2, data=[54, 100]),
   midi.NoteOffEvent(tick=92, channel=2, data=[54, 100]),
   midi.NoteOnEvent(tick=100, channel=2, data=[42, 100]),
   midi.NoteOffEvent(tick=92, channel=2, data=[42, 100]),
   midi.NoteOnEvent(tick=100, channel=2, data=[43, 100]),
   midi.NoteOffEvent(tick=92, channel=2, data=[43, 100]),
   midi.NoteOnEvent(tick=100, channel=2, data=[55, 100]),
   midi.NoteOffEvent(tick=92, channel=2, data=[55, 100]),
   midi.NoteOnEvent(tick=100, channel=2, data=[43, 100]),
   midi.NoteOffEvent(tick=92, channel=2, data=[43, 100]),
   midi.NoteOnEvent(tick=100, channel=2, data=[52, 100]),
   midi.NoteOnEvent(tick=0, channel=2, data=[45, 100]),
   midi.NoteOffEvent(tick=572, channel=2, data=[45, 100]),
   midi.NoteOffEvent(tick=0, channel=2, data=[52, 100]),
   midi.NoteOnEvent(tick=4, channel=2, data=[57, 100]),
   midi.NoteOnEvent(tick=0, channel=2, data=[50, 100]),
   midi.NoteOffEvent(tick=92, channel=2, data=[57, 100]),
   midi.NoteOffEvent(tick=0, channel=2, data=[50, 100]),
   midi.NoteOnEvent(tick=100, channel=2, data=[57, 100]),
   midi.NoteOnEvent(tick=0, channel=2, data=[50, 100]),
   midi.NoteOffEvent(tick=92, channel=2, data=[57, 100]),
   midi.NoteOffEvent(tick=0, channel=2, data=[50, 100]),
   midi.NoteOnEvent(tick=100, channel=2, data=[57, 100]),
   midi.NoteOnEvent(tick=0, channel=2, data=[50, 100]),
   midi.NoteOffEvent(tick=92, channel=2, data=[57, 100]),
   midi.NoteOffEvent(tick=0, channel=2, data=[50, 100]),
   midi.NoteOnEvent(tick=100, channel=2, data=[57, 100]),
   midi.NoteOnEvent(tick=0, channel=2, data=[50, 100]),
   midi.NoteOffEvent(tick=92, channel=2, data=[57, 100]),
   midi.NoteOffEvent(tick=0, channel=2, data=[50, 100]),
   midi.NoteOnEvent(tick=100, channel=2, data=[55, 100]),
   midi.NoteOnEvent(tick=0, channel=2, data=[48, 100]),
   midi.NoteOffEvent(tick=572, channel=2, data=[55, 100]),
   midi.NoteOffEvent(tick=0, channel=2, data=[48, 100]),
   midi.NoteOnEvent(tick=4, channel=2, data=[45, 100]),
   midi.NoteOffEvent(tick=92, channel=2, data=[45, 100]),
   midi.NoteOnEvent(tick=100, channel=2, data=[43, 100]),
   midi.NoteOffEvent(tick=92, channel=2, data=[43, 100]),
   midi.NoteOnEvent(tick=100, channel=2, data=[45, 100]),
   midi.NoteOffEvent(tick=92, channel=2, data=[45, 100]),
   midi.NoteOnEvent(tick=100, channel=2, data=[48, 100]),
   midi.NoteOffEvent(tick=92, channel=2, data=[48, 100]),
   midi.NoteOnEvent(tick=292, channel=2, data=[43, 100]),
   midi.NoteOffEvent(tick=92, channel=2, data=[43, 100]),
   midi.NoteOnEvent(tick=100, channel=2, data=[52, 100]),
   midi.NoteOnEvent(tick=0, channel=2, data=[45, 100]),
   midi.NoteOffEvent(tick=572, channel=2, data=[45, 100]),
   midi.NoteOffEvent(tick=0, channel=2, data=[52, 100]),
   midi.NoteOnEvent(tick=4, channel=2, data=[62, 100]),
   midi.NoteOnEvent(tick=0, channel=2, data=[55, 100]),
   midi.NoteOffEvent(tick=188, channel=2, data=[62, 100]),
   midi.NoteOffEvent(tick=0, channel=2, data=[55, 100]),
   midi.NoteOnEvent(tick=4, channel=2, data=[62, 100]),
   midi.NoteOnEvent(tick=0, channel=2, data=[55, 100]),
   midi.NoteOffEvent(tick=188, channel=2, data=[62, 100]),
   midi.NoteOffEvent(tick=0, channel=2, data=[55, 100]),
   midi.NoteOnEvent(tick=4, channel=2, data=[62, 100]),
   midi.NoteOnEvent(tick=0, channel=2, data=[55, 100]),
   midi.NoteOffEvent(tick=188, channel=2, data=[62, 100]),
   midi.NoteOffEvent(tick=0, channel=2, data=[55, 100]),
   midi.NoteOnEvent(tick=4, channel=2, data=[62, 100]),
   midi.NoteOnEvent(tick=0, channel=2, data=[55, 100]),
   midi.NoteOffEvent(tick=380, channel=2, data=[62, 100]),
   midi.NoteOffEvent(tick=0, channel=2, data=[55, 100]),
   midi.NoteOnEvent(tick=4, channel=2, data=[64, 100]),
   midi.NoteOnEvent(tick=0, channel=2, data=[57, 100]),
   midi.NoteOffEvent(tick=380, channel=2, data=[64, 100]),
   midi.NoteOffEvent(tick=0, channel=2, data=[57, 100]),
   midi.PitchWheelEvent(tick=4, channel=2, data=[0, 64]),
   midi.NoteOnEvent(tick=0, channel=2, data=[45, 100]),
   midi.NoteOffEvent(tick=92, channel=2, data=[45, 100]),
   midi.NoteOnEvent(tick=100, channel=2, data=[43, 100]),
   midi.NoteOffEvent(tick=92, channel=2, data=[43, 100]),
   midi.NoteOnEvent(tick=100, channel=2, data=[45, 100]),
   midi.NoteOffEvent(tick=92, channel=2, data=[45, 100]),
   midi.NoteOnEvent(tick=100, channel=2, data=[48, 100]),
   midi.NoteOffEvent(tick=92, channel=2, data=[48, 100]),
   midi.NoteOnEvent(tick=292, channel=2, data=[43, 100]),
   midi.NoteOffEvent(tick=92, channel=2, data=[43, 100]),
   midi.NoteOnEvent(tick=100, channel=2, data=[52, 100]),
   midi.NoteOnEvent(tick=0, channel=2, data=[45, 100]),
   midi.NoteOffEvent(tick=572, channel=2, data=[45, 100]),
   midi.NoteOffEvent(tick=0, channel=2, data=[52, 100]),
   midi.NoteOnEvent(tick=4, channel=2, data=[48, 100]),
   midi.NoteOffEvent(tick=188, channel=2, data=[48, 100]),
   midi.NoteOnEvent(tick=4, channel=2, data=[45, 100]),
   midi.NoteOffEvent(tick=188, channel=2, data=[45, 100]),
   midi.NoteOnEvent(tick=4, channel=2, data=[43, 100]),
   midi.NoteOffEvent(tick=188, channel=2, data=[43, 100]),
   midi.NoteOnEvent(tick=4, channel=2, data=[45, 100]),
   midi.NoteOffEvent(tick=92, channel=2, data=[45, 100]),
   midi.NoteOnEvent(tick=100, channel=2, data=[43, 100]),
   midi.NoteOffEvent(tick=92, channel=2, data=[43, 100]),
   midi.NoteOnEvent(tick=100, channel=2, data=[42, 100]),
   midi.NoteOffEvent(tick=92, channel=2, data=[42, 100]),
   midi.NoteOnEvent(tick=100, channel=2, data=[40, 100]),
   midi.NoteOffEvent(tick=92, channel=2, data=[40, 100]),
   midi.NoteOnEvent(tick=100, channel=2, data=[45, 100]),
   midi.NoteOffEvent(tick=92, channel=2, data=[45, 100]),
   midi.NoteOnEvent(tick=100, channel=2, data=[43, 100]),
   midi.NoteOffEvent(tick=92, channel=2, data=[43, 100]),
   midi.NoteOnEvent(tick=100, channel=2, data=[45, 100]),
   midi.NoteOffEvent(tick=92, channel=2, data=[45, 100]),
   midi.NoteOnEvent(tick=100, channel=2, data=[48, 100]),
   midi.NoteOffEvent(tick=92, channel=2, data=[48, 100]),
   midi.NoteOnEvent(tick=292, channel=2, data=[43, 100]),
   midi.NoteOffEvent(tick=92, channel=2, data=[43, 100]),
   midi.NoteOnEvent(tick=100, channel=2, data=[52, 100]),
   midi.NoteOnEvent(tick=0, channel=2, data=[45, 100]),
   midi.NoteOffEvent(tick=572, channel=2, data=[45, 100]),
   midi.NoteOffEvent(tick=0, channel=2, data=[52, 100]),
   midi.NoteOnEvent(tick=4, channel=2, data=[48, 100]),
   midi.NoteOffEvent(tick=188, channel=2, data=[48, 100]),
   midi.NoteOnEvent(tick=4, channel=2, data=[45, 100]),
   midi.NoteOffEvent(tick=188, channel=2, data=[45, 100]),
   midi.NoteOnEvent(tick=4, channel=2, data=[43, 100]),
   midi.NoteOffEvent(tick=188, channel=2, data=[43, 100]),
   midi.NoteOnEvent(tick=4, channel=2, data=[45, 100]),
   midi.NoteOffEvent(tick=92, channel=2, data=[45, 100]),
   midi.NoteOnEvent(tick=100, channel=2, data=[43, 100]),
   midi.NoteOffEvent(tick=92, channel=2, data=[43, 100]),
   midi.NoteOnEvent(tick=100, channel=2, data=[42, 100]),
   midi.NoteOffEvent(tick=92, channel=2, data=[42, 100]),
   midi.NoteOnEvent(tick=100, channel=2, data=[40, 100]),
   midi.NoteOffEvent(tick=92, channel=2, data=[40, 100]),
   midi.NoteOnEvent(tick=100, channel=2, data=[42, 100]),
   midi.NoteOffEvent(tick=92, channel=2, data=[42, 100]),
   midi.NoteOnEvent(tick=100, channel=2, data=[54, 100]),
   midi.NoteOffEvent(tick=92, channel=2, data=[54, 100]),
   midi.NoteOnEvent(tick=100, channel=2, data=[42, 100]),
   midi.NoteOffEvent(tick=92, channel=2, data=[42, 100]),
   midi.NoteOnEvent(tick=100, channel=2, data=[43, 100]),
   midi.NoteOffEvent(tick=92, channel=2, data=[43, 100]),
   midi.NoteOnEvent(tick=100, channel=2, data=[55, 100]),
   midi.NoteOffEvent(tick=92, channel=2, data=[55, 100]),
   midi.NoteOnEvent(tick=100, channel=2, data=[43, 100]),
   midi.NoteOffEvent(tick=92, channel=2, data=[43, 100]),
   midi.NoteOnEvent(tick=100, channel=2, data=[52, 100]),
   midi.NoteOnEvent(tick=0, channel=2, data=[45, 100]),
   midi.NoteOffEvent(tick=572, channel=2, data=[45, 100]),
   midi.NoteOffEvent(tick=0, channel=2, data=[52, 100]),
   midi.NoteOnEvent(tick=4, channel=2, data=[57, 100]),
   midi.NoteOnEvent(tick=0, channel=2, data=[50, 100]),
   midi.NoteOffEvent(tick=92, channel=2, data=[57, 100]),
   midi.NoteOffEvent(tick=0, channel=2, data=[50, 100]),
   midi.NoteOnEvent(tick=100, channel=2, data=[57, 100]),
   midi.NoteOnEvent(tick=0, channel=2, data=[50, 100]),
   midi.NoteOffEvent(tick=92, channel=2, data=[57, 100]),
   midi.NoteOffEvent(tick=0, channel=2, data=[50, 100]),
   midi.NoteOnEvent(tick=100, channel=2, data=[57, 100]),
   midi.NoteOnEvent(tick=0, channel=2, data=[50, 100]),
   midi.NoteOffEvent(tick=92, channel=2, data=[57, 100]),
   midi.NoteOffEvent(tick=0, channel=2, data=[50, 100]),
   midi.NoteOnEvent(tick=100, channel=2, data=[57, 100]),
   midi.NoteOnEvent(tick=0, channel=2, data=[50, 100]),
   midi.NoteOffEvent(tick=92, channel=2, data=[57, 100]),
   midi.NoteOffEvent(tick=0, channel=2, data=[50, 100]),
   midi.NoteOnEvent(tick=100, channel=2, data=[55, 100]),
   midi.NoteOnEvent(tick=0, channel=2, data=[48, 100]),
   midi.NoteOffEvent(tick=572, channel=2, data=[55, 100]),
   midi.NoteOffEvent(tick=0, channel=2, data=[48, 100]),
   midi.NoteOnEvent(tick=4, channel=2, data=[45, 100]),
   midi.NoteOffEvent(tick=92, channel=2, data=[45, 100]),
   midi.NoteOnEvent(tick=100, channel=2, data=[43, 100]),
   midi.NoteOffEvent(tick=92, channel=2, data=[43, 100]),
   midi.NoteOnEvent(tick=100, channel=2, data=[45, 100]),
   midi.NoteOffEvent(tick=92, channel=2, data=[45, 100]),
   midi.NoteOnEvent(tick=100, channel=2, data=[48, 100]),
   midi.NoteOffEvent(tick=92, channel=2, data=[48, 100]),
   midi.NoteOnEvent(tick=292, channel=2, data=[43, 100]),
   midi.NoteOffEvent(tick=92, channel=2, data=[43, 100]),
   midi.NoteOnEvent(tick=100, channel=2, data=[52, 100]),
   midi.NoteOnEvent(tick=0, channel=2, data=[45, 100]),
   midi.NoteOffEvent(tick=572, channel=2, data=[45, 100]),
   midi.NoteOffEvent(tick=0, channel=2, data=[52, 100]),
   midi.NoteOnEvent(tick=4, channel=2, data=[62, 100]),
   midi.NoteOnEvent(tick=0, channel=2, data=[55, 100]),
   midi.NoteOffEvent(tick=188, channel=2, data=[62, 100]),
   midi.NoteOffEvent(tick=0, channel=2, data=[55, 100]),
   midi.NoteOnEvent(tick=4, channel=2, data=[62, 100]),
   midi.NoteOnEvent(tick=0, channel=2, data=[55, 100]),
   midi.NoteOffEvent(tick=188, channel=2, data=[62, 100]),
   midi.NoteOffEvent(tick=0, channel=2, data=[55, 100]),
   midi.NoteOnEvent(tick=4, channel=2, data=[62, 100]),
   midi.NoteOnEvent(tick=0, channel=2, data=[55, 100]),
   midi.NoteOffEvent(tick=188, channel=2, data=[62, 100]),
   midi.NoteOffEvent(tick=0, channel=2, data=[55, 100]),
   midi.NoteOnEvent(tick=4, channel=2, data=[62, 100]),
   midi.NoteOnEvent(tick=0, channel=2, data=[55, 100]),
   midi.NoteOffEvent(tick=380, channel=2, data=[62, 100]),
   midi.NoteOffEvent(tick=0, channel=2, data=[55, 100]),
   midi.NoteOnEvent(tick=4, channel=2, data=[64, 100]),
   midi.NoteOnEvent(tick=0, channel=2, data=[57, 100]),
   midi.NoteOffEvent(tick=380, channel=2, data=[64, 100]),
   midi.NoteOffEvent(tick=0, channel=2, data=[57, 100]),
   midi.NoteOnEvent(tick=4, channel=2, data=[47, 100]),
   midi.NoteOffEvent(tick=92, channel=2, data=[47, 100]),
   midi.NoteOnEvent(tick=100, channel=2, data=[45, 100]),
   midi.NoteOffEvent(tick=92, channel=2, data=[45, 100]),
   midi.NoteOnEvent(tick=100, channel=2, data=[42, 100]),
   midi.NoteOffEvent(tick=92, channel=2, data=[42, 100]),
   midi.NoteOnEvent(tick=100, channel=2, data=[50, 100]),
   midi.NoteOffEvent(tick=188, channel=2, data=[50, 64]),
   midi.NoteOnEvent(tick=196, channel=2, data=[45, 100]),
   midi.NoteOffEvent(tick=192, channel=2, data=[45, 100]),
   midi.NoteOnEvent(tick=0, channel=2, data=[47, 100]),
   midi.NoteOffEvent(tick=576, channel=2, data=[47, 64]),
   midi.NoteOnEvent(tick=0, channel=2, data=[50, 100]),
   midi.NoteOffEvent(tick=192, channel=2, data=[50, 64]),
   midi.NoteOnEvent(tick=0, channel=2, data=[47, 100]),
   midi.NoteOffEvent(tick=192, channel=2, data=[47, 100]),
   midi.NoteOnEvent(tick=0, channel=2, data=[45, 100]),
   midi.NoteOffEvent(tick=192, channel=2, data=[45, 100]),
   midi.NoteOnEvent(tick=0, channel=2, data=[47, 100]),
   midi.NoteOffEvent(tick=92, channel=2, data=[47, 100]),
   midi.NoteOnEvent(tick=100, channel=2, data=[45, 100]),
   midi.NoteOffEvent(tick=92, channel=2, data=[45, 100]),
   midi.NoteOnEvent(tick=100, channel=2, data=[42, 100]),
   midi.NoteOffEvent(tick=92, channel=2, data=[42, 100]),
   midi.NoteOnEvent(tick=100, channel=2, data=[42, 100]),
   midi.NoteOffEvent(tick=92, channel=2, data=[42, 100]),
   midi.NoteOnEvent(tick=100, channel=2, data=[47, 100]),
   midi.NoteOffEvent(tick=92, channel=2, data=[47, 100]),
   midi.NoteOnEvent(tick=100, channel=2, data=[45, 100]),
   midi.NoteOffEvent(tick=92, channel=2, data=[45, 100]),
   midi.NoteOnEvent(tick=100, channel=2, data=[42, 100]),
   midi.NoteOffEvent(tick=92, channel=2, data=[42, 100]),
   midi.NoteOnEvent(tick=100, channel=2, data=[50, 100]),
   midi.NoteOffEvent(tick=188, channel=2, data=[50, 64]),
   midi.NoteOnEvent(tick=196, channel=2, data=[45, 100]),
   midi.NoteOffEvent(tick=192, channel=2, data=[45, 100]),
   midi.NoteOnEvent(tick=0, channel=2, data=[47, 100]),
   midi.NoteOffEvent(tick=576, channel=2, data=[47, 64]),
   midi.NoteOnEvent(tick=0, channel=2, data=[50, 100]),
   midi.NoteOffEvent(tick=192, channel=2, data=[50, 64]),
   midi.NoteOnEvent(tick=0, channel=2, data=[47, 100]),
   midi.NoteOffEvent(tick=192, channel=2, data=[47, 100]),
   midi.NoteOnEvent(tick=0, channel=2, data=[45, 100]),
   midi.NoteOffEvent(tick=192, channel=2, data=[45, 100]),
   midi.NoteOnEvent(tick=0, channel=2, data=[47, 100]),
   midi.NoteOffEvent(tick=92, channel=2, data=[47, 100]),
   midi.NoteOnEvent(tick=100, channel=2, data=[45, 100]),
   midi.NoteOffEvent(tick=92, channel=2, data=[45, 100]),
   midi.NoteOnEvent(tick=100, channel=2, data=[42, 100]),
   midi.NoteOffEvent(tick=92, channel=2, data=[42, 100]),
   midi.NoteOnEvent(tick=100, channel=2, data=[42, 100]),
   midi.NoteOffEvent(tick=92, channel=2, data=[42, 100]),
   midi.NoteOnEvent(tick=100, channel=2, data=[47, 100]),
   midi.NoteOffEvent(tick=92, channel=2, data=[47, 100]),
   midi.NoteOnEvent(tick=100, channel=2, data=[45, 100]),
   midi.NoteOffEvent(tick=92, channel=2, data=[45, 100]),
   midi.NoteOnEvent(tick=100, channel=2, data=[42, 100]),
   midi.NoteOffEvent(tick=92, channel=2, data=[42, 100]),
   midi.NoteOnEvent(tick=100, channel=2, data=[50, 100]),
   midi.NoteOffEvent(tick=188, channel=2, data=[50, 64]),
   midi.NoteOnEvent(tick=196, channel=2, data=[45, 100]),
   midi.NoteOffEvent(tick=192, channel=2, data=[45, 100]),
   midi.NoteOnEvent(tick=0, channel=2, data=[47, 100]),
   midi.NoteOffEvent(tick=576, channel=2, data=[47, 64]),
   midi.NoteOnEvent(tick=0, channel=2, data=[50, 100]),
   midi.NoteOffEvent(tick=192, channel=2, data=[50, 64]),
   midi.NoteOnEvent(tick=0, channel=2, data=[47, 100]),
   midi.NoteOffEvent(tick=192, channel=2, data=[47, 100]),
   midi.NoteOnEvent(tick=0, channel=2, data=[45, 100]),
   midi.NoteOffEvent(tick=192, channel=2, data=[45, 100]),
   midi.NoteOnEvent(tick=0, channel=2, data=[47, 100]),
   midi.NoteOffEvent(tick=92, channel=2, data=[47, 100]),
   midi.NoteOnEvent(tick=100, channel=2, data=[45, 100]),
   midi.NoteOffEvent(tick=92, channel=2, data=[45, 100]),
   midi.NoteOnEvent(tick=100, channel=2, data=[42, 100]),
   midi.NoteOffEvent(tick=92, channel=2, data=[42, 100]),
   midi.NoteOnEvent(tick=100, channel=2, data=[42, 100]),
   midi.NoteOffEvent(tick=92, channel=2, data=[42, 100]),
   midi.NoteOnEvent(tick=100, channel=2, data=[47, 100]),
   midi.NoteOffEvent(tick=92, channel=2, data=[47, 100]),
   midi.NoteOnEvent(tick=100, channel=2, data=[45, 100]),
   midi.NoteOffEvent(tick=92, channel=2, data=[45, 100]),
   midi.NoteOnEvent(tick=100, channel=2, data=[42, 100]),
   midi.NoteOffEvent(tick=92, channel=2, data=[42, 100]),
   midi.NoteOnEvent(tick=100, channel=2, data=[50, 100]),
   midi.NoteOffEvent(tick=188, channel=2, data=[50, 64]),
   midi.NoteOnEvent(tick=196, channel=2, data=[45, 100]),
   midi.NoteOffEvent(tick=192, channel=2, data=[45, 100]),
   midi.NoteOnEvent(tick=0, channel=2, data=[54, 100]),
   midi.NoteOnEvent(tick=0, channel=2, data=[47, 100]),
   midi.NoteOffEvent(tick=572, channel=2, data=[54, 100]),
   midi.NoteOffEvent(tick=4, channel=2, data=[47, 64]),
   midi.NoteOnEvent(tick=0, channel=2, data=[53, 100]),
   midi.NoteOnEvent(tick=0, channel=2, data=[46, 100]),
   midi.NoteOffEvent(tick=572, channel=2, data=[53, 100]),
   midi.NoteOffEvent(tick=4, channel=2, data=[46, 100]),
   midi.NoteOnEvent(tick=0, channel=2, data=[52, 100]),
   midi.NoteOnEvent(tick=0, channel=2, data=[45, 100]),
   midi.NoteOffEvent(tick=380, channel=2, data=[52, 100]),
   midi.NoteOffEvent(tick=4, channel=2, data=[45, 100]),
   midi.NoteOnEvent(tick=0, channel=2, data=[51, 100]),
   midi.NoteOnEvent(tick=0, channel=2, data=[44, 100]),
   midi.NoteOffEvent(tick=380, channel=2, data=[51, 100]),
   midi.NoteOffEvent(tick=4, channel=2, data=[44, 100]),
   midi.PitchWheelEvent(tick=0, channel=2, data=[0, 64]),
   midi.NoteOnEvent(tick=0, channel=2, data=[45, 100]),
   midi.NoteOffEvent(tick=92, channel=2, data=[45, 100]),
   midi.NoteOnEvent(tick=100, channel=2, data=[43, 100]),
   midi.NoteOffEvent(tick=92, channel=2, data=[43, 100]),
   midi.NoteOnEvent(tick=100, channel=2, data=[45, 100]),
   midi.NoteOffEvent(tick=92, channel=2, data=[45, 100]),
   midi.NoteOnEvent(tick=100, channel=2, data=[48, 100]),
   midi.NoteOffEvent(tick=92, channel=2, data=[48, 100]),
   midi.NoteOnEvent(tick=292, channel=2, data=[43, 100]),
   midi.NoteOffEvent(tick=92, channel=2, data=[43, 100]),
   midi.NoteOnEvent(tick=100, channel=2, data=[52, 100]),
   midi.NoteOnEvent(tick=0, channel=2, data=[45, 100]),
   midi.NoteOffEvent(tick=572, channel=2, data=[45, 100]),
   midi.NoteOffEvent(tick=0, channel=2, data=[52, 100]),
   midi.NoteOnEvent(tick=4, channel=2, data=[48, 100]),
   midi.NoteOffEvent(tick=188, channel=2, data=[48, 100]),
   midi.NoteOnEvent(tick=4, channel=2, data=[45, 100]),
   midi.NoteOffEvent(tick=188, channel=2, data=[45, 100]),
   midi.NoteOnEvent(tick=4, channel=2, data=[43, 100]),
   midi.NoteOffEvent(tick=188, channel=2, data=[43, 100]),
   midi.NoteOnEvent(tick=4, channel=2, data=[45, 100]),
   midi.NoteOffEvent(tick=92, channel=2, data=[45, 100]),
   midi.NoteOnEvent(tick=100, channel=2, data=[43, 100]),
   midi.NoteOffEvent(tick=92, channel=2, data=[43, 100]),
   midi.NoteOnEvent(tick=100, channel=2, data=[42, 100]),
   midi.NoteOffEvent(tick=92, channel=2, data=[42, 100]),
   midi.NoteOnEvent(tick=100, channel=2, data=[40, 100]),
   midi.NoteOffEvent(tick=92, channel=2, data=[40, 100]),
   midi.NoteOnEvent(tick=100, channel=2, data=[45, 100]),
   midi.NoteOffEvent(tick=92, channel=2, data=[45, 100]),
   midi.NoteOnEvent(tick=100, channel=2, data=[43, 100]),
   midi.NoteOffEvent(tick=92, channel=2, data=[43, 100]),
   midi.NoteOnEvent(tick=100, channel=2, data=[45, 100]),
   midi.NoteOffEvent(tick=92, channel=2, data=[45, 100]),
   midi.NoteOnEvent(tick=100, channel=2, data=[48, 100]),
   midi.NoteOffEvent(tick=92, channel=2, data=[48, 100]),
   midi.NoteOnEvent(tick=292, channel=2, data=[43, 100]),
   midi.NoteOffEvent(tick=92, channel=2, data=[43, 100]),
   midi.NoteOnEvent(tick=100, channel=2, data=[52, 100]),
   midi.NoteOnEvent(tick=0, channel=2, data=[45, 100]),
   midi.NoteOffEvent(tick=572, channel=2, data=[45, 100]),
   midi.NoteOffEvent(tick=0, channel=2, data=[52, 100]),
   midi.NoteOnEvent(tick=4, channel=2, data=[48, 100]),
   midi.NoteOffEvent(tick=188, channel=2, data=[48, 100]),
   midi.NoteOnEvent(tick=4, channel=2, data=[45, 100]),
   midi.NoteOffEvent(tick=188, channel=2, data=[45, 100]),
   midi.NoteOnEvent(tick=4, channel=2, data=[43, 100]),
   midi.NoteOffEvent(tick=188, channel=2, data=[43, 100]),
   midi.NoteOnEvent(tick=4, channel=2, data=[45, 100]),
   midi.NoteOffEvent(tick=92, channel=2, data=[45, 100]),
   midi.NoteOnEvent(tick=100, channel=2, data=[43, 100]),
   midi.NoteOffEvent(tick=92, channel=2, data=[43, 100]),
   midi.NoteOnEvent(tick=100, channel=2, data=[42, 100]),
   midi.NoteOffEvent(tick=92, channel=2, data=[42, 100]),
   midi.NoteOnEvent(tick=100, channel=2, data=[40, 100]),
   midi.NoteOffEvent(tick=92, channel=2, data=[40, 100]),
   midi.NoteOnEvent(tick=100, channel=2, data=[42, 100]),
   midi.NoteOffEvent(tick=92, channel=2, data=[42, 100]),
   midi.NoteOnEvent(tick=100, channel=2, data=[54, 100]),
   midi.NoteOffEvent(tick=92, channel=2, data=[54, 100]),
   midi.NoteOnEvent(tick=100, channel=2, data=[42, 100]),
   midi.NoteOffEvent(tick=92, channel=2, data=[42, 100]),
   midi.NoteOnEvent(tick=100, channel=2, data=[43, 100]),
   midi.NoteOffEvent(tick=92, channel=2, data=[43, 100]),
   midi.NoteOnEvent(tick=100, channel=2, data=[55, 100]),
   midi.NoteOffEvent(tick=92, channel=2, data=[55, 100]),
   midi.NoteOnEvent(tick=100, channel=2, data=[43, 100]),
   midi.NoteOffEvent(tick=92, channel=2, data=[43, 100]),
   midi.NoteOnEvent(tick=100, channel=2, data=[52, 100]),
   midi.NoteOnEvent(tick=0, channel=2, data=[45, 100]),
   midi.NoteOffEvent(tick=572, channel=2, data=[45, 100]),
   midi.NoteOffEvent(tick=0, channel=2, data=[52, 100]),
   midi.NoteOnEvent(tick=4, channel=2, data=[57, 100]),
   midi.NoteOnEvent(tick=0, channel=2, data=[50, 100]),
   midi.NoteOffEvent(tick=92, channel=2, data=[57, 100]),
   midi.NoteOffEvent(tick=0, channel=2, data=[50, 100]),
   midi.NoteOnEvent(tick=100, channel=2, data=[57, 100]),
   midi.NoteOnEvent(tick=0, channel=2, data=[50, 100]),
   midi.NoteOffEvent(tick=92, channel=2, data=[57, 100]),
   midi.NoteOffEvent(tick=0, channel=2, data=[50, 100]),
   midi.NoteOnEvent(tick=100, channel=2, data=[57, 100]),
   midi.NoteOnEvent(tick=0, channel=2, data=[50, 100]),
   midi.NoteOffEvent(tick=92, channel=2, data=[57, 100]),
   midi.NoteOffEvent(tick=0, channel=2, data=[50, 100]),
   midi.NoteOnEvent(tick=100, channel=2, data=[57, 100]),
   midi.NoteOnEvent(tick=0, channel=2, data=[50, 100]),
   midi.NoteOffEvent(tick=92, channel=2, data=[57, 100]),
   midi.NoteOffEvent(tick=0, channel=2, data=[50, 100]),
   midi.NoteOnEvent(tick=100, channel=2, data=[55, 100]),
   midi.NoteOnEvent(tick=0, channel=2, data=[48, 100]),
   midi.NoteOffEvent(tick=572, channel=2, data=[55, 100]),
   midi.NoteOffEvent(tick=0, channel=2, data=[48, 100]),
   midi.NoteOnEvent(tick=4, channel=2, data=[45, 100]),
   midi.NoteOffEvent(tick=92, channel=2, data=[45, 100]),
   midi.NoteOnEvent(tick=100, channel=2, data=[43, 100]),
   midi.NoteOffEvent(tick=92, channel=2, data=[43, 100]),
   midi.NoteOnEvent(tick=100, channel=2, data=[45, 100]),
   midi.NoteOffEvent(tick=92, channel=2, data=[45, 100]),
   midi.NoteOnEvent(tick=100, channel=2, data=[48, 100]),
   midi.NoteOffEvent(tick=92, channel=2, data=[48, 100]),
   midi.NoteOnEvent(tick=292, channel=2, data=[43, 100]),
   midi.NoteOffEvent(tick=92, channel=2, data=[43, 100]),
   midi.NoteOnEvent(tick=100, channel=2, data=[52, 100]),
   midi.NoteOnEvent(tick=0, channel=2, data=[45, 100]),
   midi.NoteOffEvent(tick=572, channel=2, data=[45, 100]),
   midi.NoteOffEvent(tick=0, channel=2, data=[52, 100]),
   midi.NoteOnEvent(tick=4, channel=2, data=[62, 100]),
   midi.NoteOnEvent(tick=0, channel=2, data=[55, 100]),
   midi.NoteOffEvent(tick=188, channel=2, data=[62, 100]),
   midi.NoteOffEvent(tick=0, channel=2, data=[55, 100]),
   midi.NoteOnEvent(tick=4, channel=2, data=[62, 100]),
   midi.NoteOnEvent(tick=0, channel=2, data=[55, 100]),
   midi.NoteOffEvent(tick=188, channel=2, data=[62, 100]),
   midi.NoteOffEvent(tick=0, channel=2, data=[55, 100]),
   midi.NoteOnEvent(tick=4, channel=2, data=[62, 100]),
   midi.NoteOnEvent(tick=0, channel=2, data=[55, 100]),
   midi.NoteOffEvent(tick=188, channel=2, data=[62, 100]),
   midi.NoteOffEvent(tick=0, channel=2, data=[55, 100]),
   midi.NoteOnEvent(tick=4, channel=2, data=[62, 100]),
   midi.NoteOnEvent(tick=0, channel=2, data=[55, 100]),
   midi.NoteOffEvent(tick=192, channel=2, data=[62, 100]),
   midi.NoteOffEvent(tick=0, channel=2, data=[55, 100]),
   midi.NoteOnEvent(tick=0, channel=2, data=[64, 100]),
   midi.NoteOnEvent(tick=0, channel=2, data=[57, 100]),
   midi.NoteOffEvent(tick=572, channel=2, data=[64, 100]),
   midi.NoteOffEvent(tick=0, channel=2, data=[57, 100]),
   midi.NoteOnEvent(tick=4, channel=2, data=[52, 100]),
   midi.NoteOnEvent(tick=0, channel=2, data=[45, 100]),
   midi.NoteOffEvent(tick=576, channel=2, data=[52, 100]),
   midi.NoteOffEvent(tick=0, channel=2, data=[45, 100]),
   midi.NoteOnEvent(tick=0, channel=2, data=[51, 100]),
   midi.NoteOnEvent(tick=0, channel=2, data=[44, 100]),
   midi.NoteOffEvent(tick=576, channel=2, data=[51, 100]),
   midi.NoteOffEvent(tick=0, channel=2, data=[44, 100]),
   midi.NoteOnEvent(tick=0, channel=2, data=[50, 100]),
   midi.NoteOnEvent(tick=0, channel=2, data=[43, 100]),
   midi.NoteOffEvent(tick=576, channel=2, data=[43, 64]),
   midi.NoteOffEvent(tick=0, channel=2, data=[50, 64]),
   midi.NoteOnEvent(tick=0, channel=2, data=[49, 100]),
   midi.NoteOnEvent(tick=0, channel=2, data=[42, 100]),
   midi.NoteOffEvent(tick=576, channel=2, data=[49, 100]),
   midi.NoteOffEvent(tick=0, channel=2, data=[42, 100]),
   midi.NoteOnEvent(tick=0, channel=2, data=[41, 100]),
   midi.NoteOnEvent(tick=0, channel=2, data=[48, 100]),
   midi.NoteOffEvent(tick=384, channel=2, data=[41, 100]),
   midi.NoteOffEvent(tick=0, channel=2, data=[48, 100]),
   midi.NoteOnEvent(tick=0, channel=2, data=[40, 100]),
   midi.NoteOnEvent(tick=0, channel=2, data=[47, 100]),
   midi.NoteOffEvent(tick=384, channel=2, data=[40, 100]),
   midi.NoteOffEvent(tick=0, channel=2, data=[47, 100]),
   midi.NoteOnEvent(tick=0, channel=2, data=[57, 100]),
   midi.NoteOnEvent(tick=0, channel=2, data=[45, 100]),
   midi.NoteOffEvent(tick=192, channel=2, data=[57, 100]),
   midi.NoteOffEvent(tick=0, channel=2, data=[45, 100]),
   midi.NoteOnEvent(tick=12096, channel=2, data=[57, 100]),
   midi.NoteOnEvent(tick=0, channel=2, data=[45, 100]),
   midi.NoteOffEvent(tick=192, channel=2, data=[57, 100]),
   midi.NoteOffEvent(tick=0, channel=2, data=[45, 100]),
   midi.NoteOnEvent(tick=0, channel=2, data=[45, 100]),
   midi.NoteOffEvent(tick=76, channel=2, data=[45, 100]),
   midi.NoteOnEvent(tick=116, channel=2, data=[45, 100]),
   midi.NoteOffEvent(tick=76, channel=2, data=[45, 100]),
   midi.NoteOnEvent(tick=116, channel=2, data=[60, 100]),
   midi.NoteOnEvent(tick=0, channel=2, data=[55, 100]),
   midi.NoteOffEvent(tick=192, channel=2, data=[60, 100]),
   midi.NoteOffEvent(tick=0, channel=2, data=[55, 100]),
   midi.NoteOnEvent(tick=0, channel=2, data=[45, 100]),
   midi.NoteOffEvent(tick=76, channel=2, data=[45, 100]),
   midi.NoteOnEvent(tick=116, channel=2, data=[45, 100]),
   midi.NoteOffEvent(tick=76, channel=2, data=[45, 100]),
   midi.NoteOnEvent(tick=116, channel=2, data=[62, 100]),
   midi.NoteOnEvent(tick=0, channel=2, data=[57, 100]),
   midi.NoteOffEvent(tick=576, channel=2, data=[57, 64]),
   midi.NoteOffEvent(tick=0, channel=2, data=[62, 64]),
   midi.NoteOnEvent(tick=0, channel=2, data=[57, 100]),
   midi.NoteOnEvent(tick=0, channel=2, data=[52, 100]),
   midi.NoteOffEvent(tick=192, channel=2, data=[57, 100]),
   midi.NoteOffEvent(tick=0, channel=2, data=[52, 100]),
   midi.NoteOnEvent(tick=0, channel=2, data=[60, 100]),
   midi.NoteOnEvent(tick=0, channel=2, data=[55, 100]),
   midi.NoteOffEvent(tick=384, channel=2, data=[60, 100]),
   midi.NoteOffEvent(tick=0, channel=2, data=[55, 100]),
   midi.PitchWheelEvent(tick=0, channel=2, data=[0, 32]),
   midi.NoteOnEvent(tick=0, channel=2, data=[58, 100]),
   midi.NoteOnEvent(tick=0, channel=2, data=[63, 100]),
   midi.PitchWheelEvent(tick=24, channel=2, data=[0, 40]),
   midi.PitchWheelEvent(tick=16, channel=2, data=[0, 48]),
   midi.PitchWheelEvent(tick=16, channel=2, data=[0, 56]),
   midi.PitchWheelEvent(tick=16, channel=2, data=[0, 64]),
   midi.NoteOffEvent(tick=120, channel=2, data=[58, 100]),
   midi.NoteOffEvent(tick=0, channel=2, data=[63, 100]),
   midi.NoteOnEvent(tick=0, channel=2, data=[62, 100]),
   midi.NoteOnEvent(tick=0, channel=2, data=[57, 100]),
   midi.NoteOffEvent(tick=192, channel=2, data=[62, 100]),
   midi.NoteOffEvent(tick=0, channel=2, data=[57, 100]),
   midi.NoteOnEvent(tick=0, channel=2, data=[60, 100]),
   midi.NoteOnEvent(tick=0, channel=2, data=[55, 100]),
   midi.NoteOffEvent(tick=192, channel=2, data=[60, 100]),
   midi.NoteOffEvent(tick=0, channel=2, data=[55, 100]),
   midi.NoteOnEvent(tick=0, channel=2, data=[57, 100]),
   midi.NoteOffEvent(tick=192, channel=2, data=[57, 100]),
   midi.NoteOnEvent(tick=0, channel=2, data=[57, 100]),
   midi.NoteOnEvent(tick=0, channel=2, data=[45, 100]),
   midi.NoteOffEvent(tick=192, channel=2, data=[57, 100]),
   midi.NoteOffEvent(tick=0, channel=2, data=[45, 100]),
   midi.NoteOnEvent(tick=0, channel=2, data=[45, 100]),
   midi.NoteOffEvent(tick=76, channel=2, data=[45, 100]),
   midi.NoteOnEvent(tick=116, channel=2, data=[45, 100]),
   midi.NoteOffEvent(tick=76, channel=2, data=[45, 100]),
   midi.NoteOnEvent(tick=116, channel=2, data=[60, 100]),
   midi.NoteOnEvent(tick=0, channel=2, data=[55, 100]),
   midi.NoteOffEvent(tick=192, channel=2, data=[60, 100]),
   midi.NoteOffEvent(tick=0, channel=2, data=[55, 100]),
   midi.NoteOnEvent(tick=192, channel=2, data=[43, 100]),
   midi.NoteOffEvent(tick=76, channel=2, data=[43, 100]),
   midi.NoteOnEvent(tick=116, channel=2, data=[57, 100]),
   midi.NoteOnEvent(tick=0, channel=2, data=[52, 100]),
   midi.NoteOnEvent(tick=0, channel=2, data=[45, 100]),
   midi.NoteOffEvent(tick=576, channel=2, data=[45, 64]),
   midi.NoteOffEvent(tick=0, channel=2, data=[52, 64]),
   midi.NoteOffEvent(tick=0, channel=2, data=[57, 64]),
   midi.NoteOnEvent(tick=0, channel=2, data=[57, 100]),
   midi.NoteOnEvent(tick=0, channel=2, data=[52, 100]),
   midi.NoteOffEvent(tick=192, channel=2, data=[57, 100]),
   midi.NoteOffEvent(tick=0, channel=2, data=[52, 100]),
   midi.NoteOnEvent(tick=0, channel=2, data=[60, 100]),
   midi.NoteOnEvent(tick=0, channel=2, data=[55, 100]),
   midi.NoteOffEvent(tick=384, channel=2, data=[60, 100]),
   midi.NoteOffEvent(tick=0, channel=2, data=[55, 100]),
   midi.PitchWheelEvent(tick=0, channel=2, data=[0, 32]),
   midi.NoteOnEvent(tick=0, channel=2, data=[58, 100]),
   midi.NoteOnEvent(tick=0, channel=2, data=[63, 100]),
   midi.PitchWheelEvent(tick=24, channel=2, data=[0, 40]),
   midi.PitchWheelEvent(tick=16, channel=2, data=[0, 48]),
   midi.PitchWheelEvent(tick=16, channel=2, data=[0, 56]),
   midi.PitchWheelEvent(tick=16, channel=2, data=[0, 64]),
   midi.NoteOffEvent(tick=120, channel=2, data=[58, 100]),
   midi.NoteOffEvent(tick=0, channel=2, data=[63, 100]),
   midi.NoteOnEvent(tick=0, channel=2, data=[62, 100]),
   midi.NoteOnEvent(tick=0, channel=2, data=[57, 100]),
   midi.NoteOffEvent(tick=192, channel=2, data=[62, 100]),
   midi.NoteOffEvent(tick=0, channel=2, data=[57, 100]),
   midi.NoteOnEvent(tick=0, channel=2, data=[60, 100]),
   midi.NoteOnEvent(tick=0, channel=2, data=[55, 100]),
   midi.NoteOffEvent(tick=192, channel=2, data=[60, 100]),
   midi.NoteOffEvent(tick=0, channel=2, data=[55, 100]),
   midi.NoteOnEvent(tick=0, channel=2, data=[57, 100]),
   midi.NoteOffEvent(tick=192, channel=2, data=[57, 100]),
   midi.NoteOnEvent(tick=0, channel=2, data=[57, 100]),
   midi.NoteOnEvent(tick=0, channel=2, data=[45, 100]),
   midi.NoteOffEvent(tick=192, channel=2, data=[57, 100]),
   midi.NoteOffEvent(tick=0, channel=2, data=[45, 100]),
   midi.NoteOnEvent(tick=0, channel=2, data=[45, 100]),
   midi.NoteOffEvent(tick=76, channel=2, data=[45, 100]),
   midi.NoteOnEvent(tick=116, channel=2, data=[45, 100]),
   midi.NoteOffEvent(tick=76, channel=2, data=[45, 100]),
   midi.NoteOnEvent(tick=116, channel=2, data=[60, 100]),
   midi.NoteOnEvent(tick=0, channel=2, data=[55, 100]),
   midi.NoteOffEvent(tick=192, channel=2, data=[60, 100]),
   midi.NoteOffEvent(tick=0, channel=2, data=[55, 100]),
   midi.NoteOnEvent(tick=0, channel=2, data=[45, 100]),
   midi.NoteOffEvent(tick=76, channel=2, data=[45, 100]),
   midi.NoteOnEvent(tick=116, channel=2, data=[45, 100]),
   midi.NoteOffEvent(tick=76, channel=2, data=[45, 100]),
   midi.NoteOnEvent(tick=116, channel=2, data=[62, 100]),
   midi.NoteOnEvent(tick=0, channel=2, data=[57, 100]),
   midi.NoteOffEvent(tick=576, channel=2, data=[57, 64]),
   midi.NoteOffEvent(tick=0, channel=2, data=[62, 64]),
   midi.NoteOnEvent(tick=0, channel=2, data=[57, 100]),
   midi.NoteOnEvent(tick=0, channel=2, data=[52, 100]),
   midi.NoteOffEvent(tick=192, channel=2, data=[57, 100]),
   midi.NoteOffEvent(tick=0, channel=2, data=[52, 100]),
   midi.NoteOnEvent(tick=0, channel=2, data=[60, 100]),
   midi.NoteOnEvent(tick=0, channel=2, data=[55, 100]),
   midi.NoteOffEvent(tick=384, channel=2, data=[60, 100]),
   midi.NoteOffEvent(tick=0, channel=2, data=[55, 100]),
   midi.PitchWheelEvent(tick=0, channel=2, data=[0, 32]),
   midi.NoteOnEvent(tick=0, channel=2, data=[58, 100]),
   midi.NoteOnEvent(tick=0, channel=2, data=[63, 100]),
   midi.PitchWheelEvent(tick=24, channel=2, data=[0, 40]),
   midi.PitchWheelEvent(tick=16, channel=2, data=[0, 48]),
   midi.PitchWheelEvent(tick=16, channel=2, data=[0, 56]),
   midi.PitchWheelEvent(tick=16, channel=2, data=[0, 64]),
   midi.NoteOffEvent(tick=120, channel=2, data=[58, 100]),
   midi.NoteOffEvent(tick=0, channel=2, data=[63, 100]),
   midi.NoteOnEvent(tick=0, channel=2, data=[62, 100]),
   midi.NoteOnEvent(tick=0, channel=2, data=[57, 100]),
   midi.NoteOffEvent(tick=192, channel=2, data=[62, 100]),
   midi.NoteOffEvent(tick=0, channel=2, data=[57, 100]),
   midi.NoteOnEvent(tick=0, channel=2, data=[60, 100]),
   midi.NoteOnEvent(tick=0, channel=2, data=[55, 100]),
   midi.NoteOffEvent(tick=192, channel=2, data=[60, 100]),
   midi.NoteOffEvent(tick=0, channel=2, data=[55, 100]),
   midi.NoteOnEvent(tick=0, channel=2, data=[57, 100]),
   midi.NoteOffEvent(tick=192, channel=2, data=[57, 100]),
   midi.NoteOnEvent(tick=0, channel=2, data=[57, 100]),
   midi.NoteOnEvent(tick=0, channel=2, data=[45, 100]),
   midi.NoteOffEvent(tick=192, channel=2, data=[57, 100]),
   midi.NoteOffEvent(tick=0, channel=2, data=[45, 100]),
   midi.NoteOnEvent(tick=0, channel=2, data=[45, 100]),
   midi.NoteOffEvent(tick=76, channel=2, data=[45, 100]),
   midi.NoteOnEvent(tick=116, channel=2, data=[45, 100]),
   midi.NoteOffEvent(tick=76, channel=2, data=[45, 100]),
   midi.NoteOnEvent(tick=116, channel=2, data=[60, 100]),
   midi.NoteOnEvent(tick=0, channel=2, data=[55, 100]),
   midi.NoteOffEvent(tick=192, channel=2, data=[60, 100]),
   midi.NoteOffEvent(tick=0, channel=2, data=[55, 100]),
   midi.NoteOnEvent(tick=192, channel=2, data=[43, 100]),
   midi.NoteOffEvent(tick=76, channel=2, data=[43, 100]),
   midi.NoteOnEvent(tick=116, channel=2, data=[57, 100]),
   midi.NoteOnEvent(tick=0, channel=2, data=[52, 100]),
   midi.NoteOnEvent(tick=0, channel=2, data=[45, 100]),
   midi.NoteOffEvent(tick=576, channel=2, data=[45, 64]),
   midi.NoteOffEvent(tick=0, channel=2, data=[52, 64]),
   midi.NoteOffEvent(tick=0, channel=2, data=[57, 64]),
   midi.NoteOnEvent(tick=0, channel=2, data=[57, 100]),
   midi.NoteOnEvent(tick=0, channel=2, data=[52, 100]),
   midi.NoteOffEvent(tick=192, channel=2, data=[57, 100]),
   midi.NoteOffEvent(tick=0, channel=2, data=[52, 100]),
   midi.NoteOnEvent(tick=0, channel=2, data=[60, 100]),
   midi.NoteOnEvent(tick=0, channel=2, data=[55, 100]),
   midi.NoteOffEvent(tick=384, channel=2, data=[60, 100]),
   midi.NoteOffEvent(tick=0, channel=2, data=[55, 100]),
   midi.PitchWheelEvent(tick=0, channel=2, data=[0, 32]),
   midi.NoteOnEvent(tick=0, channel=2, data=[58, 100]),
   midi.NoteOnEvent(tick=0, channel=2, data=[63, 100]),
   midi.PitchWheelEvent(tick=24, channel=2, data=[0, 40]),
   midi.PitchWheelEvent(tick=16, channel=2, data=[0, 48]),
   midi.PitchWheelEvent(tick=16, channel=2, data=[0, 56]),
   midi.PitchWheelEvent(tick=16, channel=2, data=[0, 64]),
   midi.NoteOffEvent(tick=120, channel=2, data=[58, 100]),
   midi.NoteOffEvent(tick=0, channel=2, data=[63, 100]),
   midi.NoteOnEvent(tick=0, channel=2, data=[62, 100]),
   midi.NoteOnEvent(tick=0, channel=2, data=[57, 100]),
   midi.NoteOffEvent(tick=192, channel=2, data=[62, 100]),
   midi.NoteOffEvent(tick=0, channel=2, data=[57, 100]),
   midi.NoteOnEvent(tick=0, channel=2, data=[60, 100]),
   midi.NoteOnEvent(tick=0, channel=2, data=[55, 100]),
   midi.NoteOffEvent(tick=192, channel=2, data=[60, 100]),
   midi.NoteOffEvent(tick=0, channel=2, data=[55, 100]),
   midi.NoteOnEvent(tick=0, channel=2, data=[57, 100]),
   midi.NoteOffEvent(tick=192, channel=2, data=[57, 100]),
   midi.NoteOnEvent(tick=0, channel=2, data=[57, 100]),
   midi.NoteOnEvent(tick=0, channel=2, data=[45, 100]),
   midi.NoteOffEvent(tick=192, channel=2, data=[57, 100]),
   midi.NoteOffEvent(tick=0, channel=2, data=[45, 100]),
   midi.NoteOnEvent(tick=0, channel=2, data=[45, 100]),
   midi.NoteOffEvent(tick=76, channel=2, data=[45, 100]),
   midi.NoteOnEvent(tick=116, channel=2, data=[45, 100]),
   midi.NoteOffEvent(tick=76, channel=2, data=[45, 100]),
   midi.NoteOnEvent(tick=116, channel=2, data=[60, 100]),
   midi.NoteOnEvent(tick=0, channel=2, data=[55, 100]),
   midi.NoteOffEvent(tick=192, channel=2, data=[60, 100]),
   midi.NoteOffEvent(tick=0, channel=2, data=[55, 100]),
   midi.NoteOnEvent(tick=0, channel=2, data=[45, 100]),
   midi.NoteOffEvent(tick=76, channel=2, data=[45, 100]),
   midi.NoteOnEvent(tick=116, channel=2, data=[45, 100]),
   midi.NoteOffEvent(tick=76, channel=2, data=[45, 100]),
   midi.NoteOnEvent(tick=116, channel=2, data=[62, 100]),
   midi.NoteOnEvent(tick=0, channel=2, data=[57, 100]),
   midi.NoteOffEvent(tick=576, channel=2, data=[57, 64]),
   midi.NoteOffEvent(tick=0, channel=2, data=[62, 64]),
   midi.NoteOnEvent(tick=0, channel=2, data=[57, 100]),
   midi.NoteOnEvent(tick=0, channel=2, data=[52, 100]),
   midi.NoteOffEvent(tick=192, channel=2, data=[57, 100]),
   midi.NoteOffEvent(tick=0, channel=2, data=[52, 100]),
   midi.NoteOnEvent(tick=0, channel=2, data=[60, 100]),
   midi.NoteOnEvent(tick=0, channel=2, data=[55, 100]),
   midi.NoteOffEvent(tick=384, channel=2, data=[60, 100]),
   midi.NoteOffEvent(tick=0, channel=2, data=[55, 100]),
   midi.PitchWheelEvent(tick=0, channel=2, data=[0, 32]),
   midi.NoteOnEvent(tick=0, channel=2, data=[58, 100]),
   midi.NoteOnEvent(tick=0, channel=2, data=[63, 100]),
   midi.PitchWheelEvent(tick=24, channel=2, data=[0, 40]),
   midi.PitchWheelEvent(tick=16, channel=2, data=[0, 48]),
   midi.PitchWheelEvent(tick=16, channel=2, data=[0, 56]),
   midi.PitchWheelEvent(tick=16, channel=2, data=[0, 64]),
   midi.NoteOffEvent(tick=120, channel=2, data=[58, 100]),
   midi.NoteOffEvent(tick=0, channel=2, data=[63, 100]),
   midi.NoteOnEvent(tick=0, channel=2, data=[62, 100]),
   midi.NoteOnEvent(tick=0, channel=2, data=[57, 100]),
   midi.NoteOffEvent(tick=192, channel=2, data=[62, 100]),
   midi.NoteOffEvent(tick=0, channel=2, data=[57, 100]),
   midi.NoteOnEvent(tick=0, channel=2, data=[60, 100]),
   midi.NoteOnEvent(tick=0, channel=2, data=[55, 100]),
   midi.NoteOffEvent(tick=192, channel=2, data=[60, 100]),
   midi.NoteOffEvent(tick=0, channel=2, data=[55, 100]),
   midi.NoteOnEvent(tick=0, channel=2, data=[57, 100]),
   midi.NoteOffEvent(tick=192, channel=2, data=[57, 100]),
   midi.NoteOnEvent(tick=0, channel=2, data=[57, 100]),
   midi.NoteOnEvent(tick=0, channel=2, data=[45, 100]),
   midi.NoteOffEvent(tick=192, channel=2, data=[57, 100]),
   midi.NoteOffEvent(tick=0, channel=2, data=[45, 100]),
   midi.NoteOnEvent(tick=0, channel=2, data=[45, 100]),
   midi.NoteOffEvent(tick=76, channel=2, data=[45, 100]),
   midi.NoteOnEvent(tick=116, channel=2, data=[45, 100]),
   midi.NoteOffEvent(tick=76, channel=2, data=[45, 100]),
   midi.NoteOnEvent(tick=116, channel=2, data=[60, 100]),
   midi.NoteOnEvent(tick=0, channel=2, data=[55, 100]),
   midi.NoteOffEvent(tick=192, channel=2, data=[60, 100]),
   midi.NoteOffEvent(tick=0, channel=2, data=[55, 100]),
   midi.NoteOnEvent(tick=192, channel=2, data=[43, 100]),
   midi.NoteOffEvent(tick=76, channel=2, data=[43, 100]),
   midi.NoteOnEvent(tick=116, channel=2, data=[57, 100]),
   midi.NoteOnEvent(tick=0, channel=2, data=[52, 100]),
   midi.NoteOnEvent(tick=0, channel=2, data=[45, 100]),
   midi.NoteOffEvent(tick=576, channel=2, data=[45, 64]),
   midi.NoteOffEvent(tick=0, channel=2, data=[52, 64]),
   midi.NoteOffEvent(tick=0, channel=2, data=[57, 64]),
   midi.NoteOnEvent(tick=0, channel=2, data=[57, 100]),
   midi.NoteOnEvent(tick=0, channel=2, data=[52, 100]),
   midi.NoteOffEvent(tick=192, channel=2, data=[57, 100]),
   midi.NoteOffEvent(tick=0, channel=2, data=[52, 100]),
   midi.NoteOnEvent(tick=0, channel=2, data=[60, 100]),
   midi.NoteOnEvent(tick=0, channel=2, data=[55, 100]),
   midi.NoteOffEvent(tick=384, channel=2, data=[60, 100]),
   midi.NoteOffEvent(tick=0, channel=2, data=[55, 100]),
   midi.PitchWheelEvent(tick=0, channel=2, data=[0, 32]),
   midi.NoteOnEvent(tick=0, channel=2, data=[58, 100]),
   midi.NoteOnEvent(tick=0, channel=2, data=[63, 100]),
   midi.PitchWheelEvent(tick=24, channel=2, data=[0, 40]),
   midi.PitchWheelEvent(tick=16, channel=2, data=[0, 48]),
   midi.PitchWheelEvent(tick=16, channel=2, data=[0, 56]),
   midi.PitchWheelEvent(tick=16, channel=2, data=[0, 64]),
   midi.NoteOffEvent(tick=120, channel=2, data=[58, 100]),
   midi.NoteOffEvent(tick=0, channel=2, data=[63, 100]),
   midi.NoteOnEvent(tick=0, channel=2, data=[62, 100]),
   midi.NoteOnEvent(tick=0, channel=2, data=[57, 100]),
   midi.NoteOffEvent(tick=192, channel=2, data=[62, 100]),
   midi.NoteOffEvent(tick=0, channel=2, data=[57, 100]),
   midi.NoteOnEvent(tick=0, channel=2, data=[60, 100]),
   midi.NoteOnEvent(tick=0, channel=2, data=[55, 100]),
   midi.NoteOffEvent(tick=192, channel=2, data=[60, 100]),
   midi.NoteOffEvent(tick=0, channel=2, data=[55, 100]),
   midi.NoteOnEvent(tick=0, channel=2, data=[57, 100]),
   midi.NoteOffEvent(tick=192, channel=2, data=[57, 100]),
   midi.NoteOnEvent(tick=0, channel=2, data=[57, 100]),
   midi.NoteOnEvent(tick=0, channel=2, data=[45, 100]),
   midi.NoteOffEvent(tick=192, channel=2, data=[57, 100]),
   midi.NoteOffEvent(tick=0, channel=2, data=[45, 100]),
   midi.NoteOnEvent(tick=0, channel=2, data=[45, 100]),
   midi.NoteOffEvent(tick=76, channel=2, data=[45, 100]),
   midi.NoteOnEvent(tick=116, channel=2, data=[45, 100]),
   midi.NoteOffEvent(tick=76, channel=2, data=[45, 100]),
   midi.NoteOnEvent(tick=116, channel=2, data=[60, 100]),
   midi.NoteOnEvent(tick=0, channel=2, data=[55, 100]),
   midi.NoteOffEvent(tick=192, channel=2, data=[60, 100]),
   midi.NoteOffEvent(tick=0, channel=2, data=[55, 100]),
   midi.NoteOnEvent(tick=0, channel=2, data=[45, 100]),
   midi.NoteOffEvent(tick=76, channel=2, data=[45, 100]),
   midi.NoteOnEvent(tick=116, channel=2, data=[45, 100]),
   midi.NoteOffEvent(tick=76, channel=2, data=[45, 100]),
   midi.NoteOnEvent(tick=116, channel=2, data=[62, 100]),
   midi.NoteOnEvent(tick=0, channel=2, data=[57, 100]),
   midi.NoteOffEvent(tick=576, channel=2, data=[57, 64]),
   midi.NoteOffEvent(tick=0, channel=2, data=[62, 64]),
   midi.NoteOnEvent(tick=0, channel=2, data=[57, 100]),
   midi.NoteOnEvent(tick=0, channel=2, data=[52, 100]),
   midi.NoteOffEvent(tick=192, channel=2, data=[57, 100]),
   midi.NoteOffEvent(tick=0, channel=2, data=[52, 100]),
   midi.NoteOnEvent(tick=0, channel=2, data=[60, 100]),
   midi.NoteOnEvent(tick=0, channel=2, data=[55, 100]),
   midi.NoteOffEvent(tick=384, channel=2, data=[60, 100]),
   midi.NoteOffEvent(tick=0, channel=2, data=[55, 100]),
   midi.PitchWheelEvent(tick=0, channel=2, data=[0, 32]),
   midi.NoteOnEvent(tick=0, channel=2, data=[58, 100]),
   midi.NoteOnEvent(tick=0, channel=2, data=[63, 100]),
   midi.PitchWheelEvent(tick=24, channel=2, data=[0, 40]),
   midi.PitchWheelEvent(tick=16, channel=2, data=[0, 48]),
   midi.PitchWheelEvent(tick=16, channel=2, data=[0, 56]),
   midi.PitchWheelEvent(tick=16, channel=2, data=[0, 64]),
   midi.NoteOffEvent(tick=120, channel=2, data=[58, 100]),
   midi.NoteOffEvent(tick=0, channel=2, data=[63, 100]),
   midi.NoteOnEvent(tick=0, channel=2, data=[62, 100]),
   midi.NoteOnEvent(tick=0, channel=2, data=[57, 100]),
   midi.NoteOffEvent(tick=192, channel=2, data=[62, 100]),
   midi.NoteOffEvent(tick=0, channel=2, data=[57, 100]),
   midi.NoteOnEvent(tick=0, channel=2, data=[60, 100]),
   midi.NoteOnEvent(tick=0, channel=2, data=[55, 100]),
   midi.NoteOffEvent(tick=192, channel=2, data=[60, 100]),
   midi.NoteOffEvent(tick=0, channel=2, data=[55, 100]),
   midi.NoteOnEvent(tick=0, channel=2, data=[57, 100]),
   midi.NoteOffEvent(tick=192, channel=2, data=[57, 100]),
   midi.NoteOnEvent(tick=0, channel=2, data=[57, 100]),
   midi.NoteOnEvent(tick=0, channel=2, data=[45, 100]),
   midi.NoteOffEvent(tick=192, channel=2, data=[57, 100]),
   midi.NoteOffEvent(tick=0, channel=2, data=[45, 100]),
   midi.NoteOnEvent(tick=0, channel=2, data=[45, 100]),
   midi.NoteOffEvent(tick=76, channel=2, data=[45, 100]),
   midi.NoteOnEvent(tick=116, channel=2, data=[45, 100]),
   midi.NoteOffEvent(tick=76, channel=2, data=[45, 100]),
   midi.NoteOnEvent(tick=116, channel=2, data=[60, 100]),
   midi.NoteOnEvent(tick=0, channel=2, data=[55, 100]),
   midi.NoteOffEvent(tick=192, channel=2, data=[60, 100]),
   midi.NoteOffEvent(tick=0, channel=2, data=[55, 100]),
   midi.NoteOnEvent(tick=192, channel=2, data=[43, 100]),
   midi.NoteOffEvent(tick=76, channel=2, data=[43, 100]),
   midi.NoteOnEvent(tick=116, channel=2, data=[45, 100]),
   midi.NoteOnEvent(tick=0, channel=2, data=[52, 100]),
   midi.NoteOnEvent(tick=0, channel=2, data=[57, 100]),
   midi.NoteOffEvent(tick=1920, channel=2, data=[57, 64]),
   midi.NoteOffEvent(tick=0, channel=2, data=[52, 64]),
   midi.NoteOffEvent(tick=0, channel=2, data=[45, 64]),
   midi.NoteOnEvent(tick=0, channel=2, data=[57, 100]),
   midi.NoteOffEvent(tick=188, channel=2, data=[57, 100]),
   midi.NoteOnEvent(tick=4, channel=2, data=[45, 100]),
   midi.NoteOffEvent(tick=380, channel=2, data=[45, 100]),
   midi.NoteOnEvent(tick=4, channel=2, data=[57, 100]),
   midi.NoteOffEvent(tick=188, channel=2, data=[57, 100]),
   midi.NoteOnEvent(tick=4, channel=2, data=[44, 100]),
   midi.NoteOffEvent(tick=380, channel=2, data=[44, 100]),
   midi.NoteOnEvent(tick=4, channel=2, data=[57, 100]),
   midi.NoteOffEvent(tick=188, channel=2, data=[57, 100]),
   midi.NoteOnEvent(tick=4, channel=2, data=[43, 100]),
   midi.NoteOffEvent(tick=380, channel=2, data=[43, 100]),
   midi.NoteOnEvent(tick=4, channel=2, data=[57, 100]),
   midi.NoteOnEvent(tick=0, channel=2, data=[52, 100]),
   midi.NoteOffEvent(tick=188, channel=2, data=[57, 100]),
   midi.NoteOffEvent(tick=0, channel=2, data=[52, 100]),
   midi.NoteOnEvent(tick=4, channel=2, data=[60, 100]),
   midi.NoteOnEvent(tick=0, channel=2, data=[55, 100]),
   midi.NoteOffEvent(tick=384, channel=2, data=[60, 100]),
   midi.NoteOffEvent(tick=0, channel=2, data=[55, 100]),
   midi.PitchWheelEvent(tick=0, channel=2, data=[0, 32]),
   midi.NoteOnEvent(tick=0, channel=2, data=[58, 100]),
   midi.NoteOnEvent(tick=0, channel=2, data=[63, 100]),
   midi.PitchWheelEvent(tick=24, channel=2, data=[0, 40]),
   midi.PitchWheelEvent(tick=16, channel=2, data=[0, 48]),
   midi.PitchWheelEvent(tick=16, channel=2, data=[0, 56]),
   midi.PitchWheelEvent(tick=16, channel=2, data=[0, 64]),
   midi.NoteOffEvent(tick=120, channel=2, data=[58, 100]),
   midi.NoteOffEvent(tick=0, channel=2, data=[63, 100]),
   midi.NoteOnEvent(tick=0, channel=2, data=[62, 100]),
   midi.NoteOnEvent(tick=0, channel=2, data=[57, 100]),
   midi.NoteOffEvent(tick=192, channel=2, data=[62, 100]),
   midi.NoteOffEvent(tick=0, channel=2, data=[57, 100]),
   midi.NoteOnEvent(tick=0, channel=2, data=[60, 100]),
   midi.NoteOnEvent(tick=0, channel=2, data=[55, 100]),
   midi.NoteOffEvent(tick=192, channel=2, data=[60, 100]),
   midi.NoteOffEvent(tick=0, channel=2, data=[55, 100]),
   midi.NoteOnEvent(tick=0, channel=2, data=[57, 100]),
   midi.NoteOffEvent(tick=192, channel=2, data=[57, 100]),
   midi.NoteOnEvent(tick=0, channel=2, data=[53, 100]),
   midi.NoteOffEvent(tick=188, channel=2, data=[53, 100]),
   midi.NoteOnEvent(tick=4, channel=2, data=[41, 100]),
   midi.NoteOffEvent(tick=380, channel=2, data=[41, 100]),
   midi.NoteOnEvent(tick=4, channel=2, data=[53, 100]),
   midi.NoteOffEvent(tick=188, channel=2, data=[53, 100]),
   midi.NoteOnEvent(tick=4, channel=2, data=[40, 100]),
   midi.NoteOffEvent(tick=380, channel=2, data=[40, 100]),
   midi.NoteOnEvent(tick=4, channel=2, data=[53, 100]),
   midi.NoteOffEvent(tick=188, channel=2, data=[53, 100]),
   midi.NoteOnEvent(tick=4, channel=2, data=[50, 100]),
   midi.NoteOffEvent(tick=380, channel=2, data=[50, 100]),
   midi.NoteOnEvent(tick=4, channel=2, data=[57, 100]),
   midi.NoteOnEvent(tick=0, channel=2, data=[52, 100]),
   midi.NoteOffEvent(tick=188, channel=2, data=[57, 100]),
   midi.NoteOffEvent(tick=0, channel=2, data=[52, 100]),
   midi.NoteOnEvent(tick=4, channel=2, data=[60, 100]),
   midi.NoteOnEvent(tick=0, channel=2, data=[55, 100]),
   midi.NoteOffEvent(tick=384, channel=2, data=[60, 100]),
   midi.NoteOffEvent(tick=0, channel=2, data=[55, 100]),
   midi.PitchWheelEvent(tick=0, channel=2, data=[0, 32]),
   midi.NoteOnEvent(tick=0, channel=2, data=[58, 100]),
   midi.NoteOnEvent(tick=0, channel=2, data=[63, 100]),
   midi.PitchWheelEvent(tick=24, channel=2, data=[0, 40]),
   midi.PitchWheelEvent(tick=16, channel=2, data=[0, 48]),
   midi.PitchWheelEvent(tick=16, channel=2, data=[0, 56]),
   midi.PitchWheelEvent(tick=16, channel=2, data=[0, 64]),
   midi.NoteOffEvent(tick=120, channel=2, data=[58, 100]),
   midi.NoteOffEvent(tick=0, channel=2, data=[63, 100]),
   midi.NoteOnEvent(tick=0, channel=2, data=[62, 100]),
   midi.NoteOnEvent(tick=0, channel=2, data=[57, 100]),
   midi.NoteOffEvent(tick=192, channel=2, data=[62, 100]),
   midi.NoteOffEvent(tick=0, channel=2, data=[57, 100]),
   midi.NoteOnEvent(tick=0, channel=2, data=[60, 100]),
   midi.NoteOnEvent(tick=0, channel=2, data=[55, 100]),
   midi.NoteOffEvent(tick=192, channel=2, data=[60, 100]),
   midi.NoteOffEvent(tick=0, channel=2, data=[55, 100]),
   midi.NoteOnEvent(tick=0, channel=2, data=[57, 100]),
   midi.NoteOffEvent(tick=192, channel=2, data=[57, 100]),
   midi.NoteOnEvent(tick=0, channel=2, data=[57, 100]),
   midi.NoteOffEvent(tick=188, channel=2, data=[57, 100]),
   midi.NoteOnEvent(tick=4, channel=2, data=[45, 100]),
   midi.NoteOffEvent(tick=380, channel=2, data=[45, 100]),
   midi.NoteOnEvent(tick=4, channel=2, data=[57, 100]),
   midi.NoteOffEvent(tick=188, channel=2, data=[57, 100]),
   midi.NoteOnEvent(tick=4, channel=2, data=[44, 100]),
   midi.NoteOffEvent(tick=380, channel=2, data=[44, 100]),
   midi.NoteOnEvent(tick=4, channel=2, data=[57, 100]),
   midi.NoteOffEvent(tick=188, channel=2, data=[57, 100]),
   midi.NoteOnEvent(tick=4, channel=2, data=[43, 100]),
   midi.NoteOffEvent(tick=380, channel=2, data=[43, 100]),
   midi.NoteOnEvent(tick=4, channel=2, data=[57, 100]),
   midi.NoteOnEvent(tick=0, channel=2, data=[52, 100]),
   midi.NoteOffEvent(tick=188, channel=2, data=[57, 100]),
   midi.NoteOffEvent(tick=0, channel=2, data=[52, 100]),
   midi.NoteOnEvent(tick=4, channel=2, data=[60, 100]),
   midi.NoteOnEvent(tick=0, channel=2, data=[55, 100]),
   midi.NoteOffEvent(tick=384, channel=2, data=[60, 100]),
   midi.NoteOffEvent(tick=0, channel=2, data=[55, 100]),
   midi.PitchWheelEvent(tick=0, channel=2, data=[0, 32]),
   midi.NoteOnEvent(tick=0, channel=2, data=[58, 100]),
   midi.NoteOnEvent(tick=0, channel=2, data=[63, 100]),
   midi.PitchWheelEvent(tick=24, channel=2, data=[0, 40]),
   midi.PitchWheelEvent(tick=16, channel=2, data=[0, 48]),
   midi.PitchWheelEvent(tick=16, channel=2, data=[0, 56]),
   midi.PitchWheelEvent(tick=16, channel=2, data=[0, 64]),
   midi.NoteOffEvent(tick=120, channel=2, data=[58, 100]),
   midi.NoteOffEvent(tick=0, channel=2, data=[63, 100]),
   midi.NoteOnEvent(tick=0, channel=2, data=[62, 100]),
   midi.NoteOnEvent(tick=0, channel=2, data=[57, 100]),
   midi.NoteOffEvent(tick=192, channel=2, data=[62, 100]),
   midi.NoteOffEvent(tick=0, channel=2, data=[57, 100]),
   midi.NoteOnEvent(tick=0, channel=2, data=[60, 100]),
   midi.NoteOnEvent(tick=0, channel=2, data=[55, 100]),
   midi.NoteOffEvent(tick=192, channel=2, data=[60, 100]),
   midi.NoteOffEvent(tick=0, channel=2, data=[55, 100]),
   midi.NoteOnEvent(tick=0, channel=2, data=[57, 100]),
   midi.NoteOffEvent(tick=192, channel=2, data=[57, 100]),
   midi.NoteOnEvent(tick=0, channel=2, data=[53, 100]),
   midi.NoteOffEvent(tick=188, channel=2, data=[53, 100]),
   midi.NoteOnEvent(tick=4, channel=2, data=[41, 100]),
   midi.NoteOffEvent(tick=380, channel=2, data=[41, 100]),
   midi.NoteOnEvent(tick=4, channel=2, data=[53, 100]),
   midi.NoteOffEvent(tick=188, channel=2, data=[53, 100]),
   midi.NoteOnEvent(tick=4, channel=2, data=[40, 100]),
   midi.NoteOffEvent(tick=380, channel=2, data=[40, 100]),
   midi.NoteOnEvent(tick=4, channel=2, data=[53, 100]),
   midi.NoteOffEvent(tick=188, channel=2, data=[53, 100]),
   midi.NoteOnEvent(tick=4, channel=2, data=[50, 100]),
   midi.NoteOffEvent(tick=380, channel=2, data=[50, 100]),
   midi.NoteOnEvent(tick=4, channel=2, data=[57, 100]),
   midi.NoteOnEvent(tick=0, channel=2, data=[52, 100]),
   midi.NoteOffEvent(tick=188, channel=2, data=[57, 100]),
   midi.NoteOffEvent(tick=0, channel=2, data=[52, 100]),
   midi.NoteOnEvent(tick=4, channel=2, data=[60, 100]),
   midi.NoteOnEvent(tick=0, channel=2, data=[55, 100]),
   midi.NoteOffEvent(tick=384, channel=2, data=[60, 100]),
   midi.NoteOffEvent(tick=0, channel=2, data=[55, 100]),
   midi.PitchWheelEvent(tick=0, channel=2, data=[0, 32]),
   midi.NoteOnEvent(tick=0, channel=2, data=[58, 100]),
   midi.NoteOnEvent(tick=0, channel=2, data=[63, 100]),
   midi.PitchWheelEvent(tick=24, channel=2, data=[0, 40]),
   midi.PitchWheelEvent(tick=16, channel=2, data=[0, 48]),
   midi.PitchWheelEvent(tick=16, channel=2, data=[0, 56]),
   midi.PitchWheelEvent(tick=16, channel=2, data=[0, 64]),
   midi.NoteOffEvent(tick=120, channel=2, data=[58, 100]),
   midi.NoteOffEvent(tick=0, channel=2, data=[63, 100]),
   midi.NoteOnEvent(tick=0, channel=2, data=[62, 100]),
   midi.NoteOnEvent(tick=0, channel=2, data=[57, 100]),
   midi.NoteOffEvent(tick=192, channel=2, data=[62, 100]),
   midi.NoteOffEvent(tick=0, channel=2, data=[57, 100]),
   midi.NoteOnEvent(tick=0, channel=2, data=[60, 100]),
   midi.NoteOnEvent(tick=0, channel=2, data=[55, 100]),
   midi.NoteOffEvent(tick=192, channel=2, data=[60, 100]),
   midi.NoteOffEvent(tick=0, channel=2, data=[55, 100]),
   midi.NoteOnEvent(tick=0, channel=2, data=[57, 100]),
   midi.NoteOffEvent(tick=192, channel=2, data=[57, 100]),
   midi.NoteOnEvent(tick=0, channel=2, data=[57, 100]),
   midi.NoteOffEvent(tick=188, channel=2, data=[57, 100]),
   midi.NoteOnEvent(tick=4, channel=2, data=[45, 100]),
   midi.NoteOffEvent(tick=380, channel=2, data=[45, 100]),
   midi.NoteOnEvent(tick=4, channel=2, data=[57, 100]),
   midi.NoteOffEvent(tick=188, channel=2, data=[57, 100]),
   midi.NoteOnEvent(tick=4, channel=2, data=[44, 100]),
   midi.NoteOffEvent(tick=380, channel=2, data=[44, 100]),
   midi.NoteOnEvent(tick=4, channel=2, data=[57, 100]),
   midi.NoteOffEvent(tick=188, channel=2, data=[57, 100]),
   midi.NoteOnEvent(tick=4, channel=2, data=[43, 100]),
   midi.NoteOffEvent(tick=380, channel=2, data=[43, 100]),
   midi.NoteOnEvent(tick=4, channel=2, data=[57, 100]),
   midi.NoteOnEvent(tick=0, channel=2, data=[52, 100]),
   midi.NoteOffEvent(tick=188, channel=2, data=[57, 100]),
   midi.NoteOffEvent(tick=0, channel=2, data=[52, 100]),
   midi.NoteOnEvent(tick=4, channel=2, data=[60, 100]),
   midi.NoteOnEvent(tick=0, channel=2, data=[55, 100]),
   midi.NoteOffEvent(tick=384, channel=2, data=[60, 100]),
   midi.NoteOffEvent(tick=0, channel=2, data=[55, 100]),
   midi.PitchWheelEvent(tick=0, channel=2, data=[0, 32]),
   midi.NoteOnEvent(tick=0, channel=2, data=[58, 100]),
   midi.NoteOnEvent(tick=0, channel=2, data=[63, 100]),
   midi.PitchWheelEvent(tick=24, channel=2, data=[0, 40]),
   midi.PitchWheelEvent(tick=16, channel=2, data=[0, 48]),
   midi.PitchWheelEvent(tick=16, channel=2, data=[0, 56]),
   midi.PitchWheelEvent(tick=16, channel=2, data=[0, 64]),
   midi.NoteOffEvent(tick=120, channel=2, data=[58, 100]),
   midi.NoteOffEvent(tick=0, channel=2, data=[63, 100]),
   midi.NoteOnEvent(tick=0, channel=2, data=[62, 100]),
   midi.NoteOnEvent(tick=0, channel=2, data=[57, 100]),
   midi.NoteOffEvent(tick=192, channel=2, data=[62, 100]),
   midi.NoteOffEvent(tick=0, channel=2, data=[57, 100]),
   midi.NoteOnEvent(tick=0, channel=2, data=[60, 100]),
   midi.NoteOnEvent(tick=0, channel=2, data=[55, 100]),
   midi.NoteOffEvent(tick=192, channel=2, data=[60, 100]),
   midi.NoteOffEvent(tick=0, channel=2, data=[55, 100]),
   midi.NoteOnEvent(tick=0, channel=2, data=[57, 100]),
   midi.NoteOffEvent(tick=192, channel=2, data=[57, 100]),
   midi.NoteOnEvent(tick=0, channel=2, data=[53, 100]),
   midi.NoteOffEvent(tick=188, channel=2, data=[53, 100]),
   midi.NoteOnEvent(tick=4, channel=2, data=[41, 100]),
   midi.NoteOffEvent(tick=380, channel=2, data=[41, 100]),
   midi.NoteOnEvent(tick=4, channel=2, data=[53, 100]),
   midi.NoteOffEvent(tick=188, channel=2, data=[53, 100]),
   midi.NoteOnEvent(tick=4, channel=2, data=[40, 100]),
   midi.NoteOffEvent(tick=380, channel=2, data=[40, 100]),
   midi.NoteOnEvent(tick=4, channel=2, data=[53, 100]),
   midi.NoteOffEvent(tick=188, channel=2, data=[53, 100]),
   midi.NoteOnEvent(tick=4, channel=2, data=[50, 100]),
   midi.NoteOffEvent(tick=380, channel=2, data=[50, 100]),
   midi.NoteOnEvent(tick=4, channel=2, data=[57, 100]),
   midi.NoteOnEvent(tick=0, channel=2, data=[52, 100]),
   midi.NoteOffEvent(tick=188, channel=2, data=[57, 100]),
   midi.NoteOffEvent(tick=0, channel=2, data=[52, 100]),
   midi.NoteOnEvent(tick=4, channel=2, data=[60, 100]),
   midi.NoteOnEvent(tick=0, channel=2, data=[55, 100]),
   midi.NoteOffEvent(tick=384, channel=2, data=[60, 100]),
   midi.NoteOffEvent(tick=0, channel=2, data=[55, 100]),
   midi.PitchWheelEvent(tick=0, channel=2, data=[0, 32]),
   midi.NoteOnEvent(tick=0, channel=2, data=[58, 100]),
   midi.NoteOnEvent(tick=0, channel=2, data=[63, 100]),
   midi.PitchWheelEvent(tick=24, channel=2, data=[0, 40]),
   midi.PitchWheelEvent(tick=16, channel=2, data=[0, 48]),
   midi.PitchWheelEvent(tick=16, channel=2, data=[0, 56]),
   midi.PitchWheelEvent(tick=16, channel=2, data=[0, 64]),
   midi.NoteOffEvent(tick=120, channel=2, data=[58, 100]),
   midi.NoteOffEvent(tick=0, channel=2, data=[63, 100]),
   midi.NoteOnEvent(tick=0, channel=2, data=[62, 100]),
   midi.NoteOnEvent(tick=0, channel=2, data=[57, 100]),
   midi.NoteOffEvent(tick=192, channel=2, data=[62, 100]),
   midi.NoteOffEvent(tick=0, channel=2, data=[57, 100]),
   midi.NoteOnEvent(tick=0, channel=2, data=[60, 100]),
   midi.NoteOnEvent(tick=0, channel=2, data=[55, 100]),
   midi.NoteOffEvent(tick=192, channel=2, data=[60, 100]),
   midi.NoteOffEvent(tick=0, channel=2, data=[55, 100]),
   midi.NoteOnEvent(tick=0, channel=2, data=[57, 100]),
   midi.NoteOffEvent(tick=192, channel=2, data=[57, 100]),
   midi.NoteOnEvent(tick=0, channel=2, data=[57, 100]),
   midi.NoteOffEvent(tick=188, channel=2, data=[57, 100]),
   midi.NoteOnEvent(tick=4, channel=2, data=[45, 100]),
   midi.NoteOffEvent(tick=380, channel=2, data=[45, 100]),
   midi.NoteOnEvent(tick=4, channel=2, data=[57, 100]),
   midi.NoteOffEvent(tick=188, channel=2, data=[57, 100]),
   midi.NoteOnEvent(tick=4, channel=2, data=[44, 100]),
   midi.NoteOffEvent(tick=380, channel=2, data=[44, 100]),
   midi.NoteOnEvent(tick=4, channel=2, data=[57, 100]),
   midi.NoteOffEvent(tick=188, channel=2, data=[57, 100]),
   midi.NoteOnEvent(tick=4, channel=2, data=[43, 100]),
   midi.NoteOffEvent(tick=380, channel=2, data=[43, 100]),
   midi.NoteOnEvent(tick=4, channel=2, data=[57, 100]),
   midi.NoteOnEvent(tick=0, channel=2, data=[52, 100]),
   midi.NoteOffEvent(tick=188, channel=2, data=[57, 100]),
   midi.NoteOffEvent(tick=0, channel=2, data=[52, 100]),
   midi.NoteOnEvent(tick=4, channel=2, data=[60, 100]),
   midi.NoteOnEvent(tick=0, channel=2, data=[55, 100]),
   midi.NoteOffEvent(tick=384, channel=2, data=[60, 100]),
   midi.NoteOffEvent(tick=0, channel=2, data=[55, 100]),
   midi.PitchWheelEvent(tick=0, channel=2, data=[0, 32]),
   midi.NoteOnEvent(tick=0, channel=2, data=[58, 100]),
   midi.NoteOnEvent(tick=0, channel=2, data=[63, 100]),
   midi.PitchWheelEvent(tick=24, channel=2, data=[0, 40]),
   midi.PitchWheelEvent(tick=16, channel=2, data=[0, 48]),
   midi.PitchWheelEvent(tick=16, channel=2, data=[0, 56]),
   midi.PitchWheelEvent(tick=16, channel=2, data=[0, 64]),
   midi.NoteOffEvent(tick=120, channel=2, data=[58, 100]),
   midi.NoteOffEvent(tick=0, channel=2, data=[63, 100]),
   midi.NoteOnEvent(tick=0, channel=2, data=[62, 100]),
   midi.NoteOnEvent(tick=0, channel=2, data=[57, 100]),
   midi.NoteOffEvent(tick=192, channel=2, data=[62, 100]),
   midi.NoteOffEvent(tick=0, channel=2, data=[57, 100]),
   midi.NoteOnEvent(tick=0, channel=2, data=[60, 100]),
   midi.NoteOnEvent(tick=0, channel=2, data=[55, 100]),
   midi.NoteOffEvent(tick=192, channel=2, data=[60, 100]),
   midi.NoteOffEvent(tick=0, channel=2, data=[55, 100]),
   midi.NoteOnEvent(tick=0, channel=2, data=[57, 100]),
   midi.NoteOffEvent(tick=192, channel=2, data=[57, 100]),
   midi.NoteOnEvent(tick=0, channel=2, data=[53, 100]),
   midi.NoteOffEvent(tick=188, channel=2, data=[53, 100]),
   midi.NoteOnEvent(tick=4, channel=2, data=[41, 100]),
   midi.NoteOffEvent(tick=380, channel=2, data=[41, 100]),
   midi.NoteOnEvent(tick=4, channel=2, data=[53, 100]),
   midi.NoteOffEvent(tick=188, channel=2, data=[53, 100]),
   midi.NoteOnEvent(tick=4, channel=2, data=[40, 100]),
   midi.NoteOffEvent(tick=380, channel=2, data=[40, 100]),
   midi.NoteOnEvent(tick=4, channel=2, data=[53, 100]),
   midi.NoteOffEvent(tick=188, channel=2, data=[53, 100]),
   midi.NoteOnEvent(tick=4, channel=2, data=[50, 100]),
   midi.PitchWheelEvent(tick=288, channel=2, data=[0, 66]),
   midi.PitchWheelEvent(tick=96, channel=2, data=[0, 68]),
   midi.PitchWheelEvent(tick=96, channel=2, data=[0, 70]),
   midi.PitchWheelEvent(tick=96, channel=2, data=[0, 72]),
   midi.PitchWheelEvent(tick=96, channel=2, data=[0, 74]),
   midi.PitchWheelEvent(tick=96, channel=2, data=[0, 76]),
   midi.PitchWheelEvent(tick=96, channel=2, data=[0, 78]),
   midi.PitchWheelEvent(tick=96, channel=2, data=[0, 80]),
   midi.PitchWheelEvent(tick=96, channel=2, data=[0, 82]),
   midi.PitchWheelEvent(tick=96, channel=2, data=[0, 84]),
   midi.PitchWheelEvent(tick=96, channel=2, data=[0, 86]),
   midi.PitchWheelEvent(tick=96, channel=2, data=[0, 88]),
   midi.PitchWheelEvent(tick=96, channel=2, data=[0, 90]),
   midi.PitchWheelEvent(tick=96, channel=2, data=[0, 92]),
   midi.PitchWheelEvent(tick=96, channel=2, data=[0, 94]),
   midi.PitchWheelEvent(tick=96, channel=2, data=[0, 96]),
   midi.NoteOffEvent(tick=4604, channel=2, data=[50, 100]),
   midi.PitchWheelEvent(tick=4, channel=2, data=[0, 64]),
   midi.NoteOnEvent(tick=0, channel=2, data=[57, 100]),
   midi.NoteOnEvent(tick=0, channel=2, data=[45, 100]),
   midi.NoteOffEvent(tick=192, channel=2, data=[57, 100]),
   midi.NoteOffEvent(tick=0, channel=2, data=[45, 100]),
   midi.NoteOnEvent(tick=0, channel=2, data=[45, 100]),
   midi.NoteOffEvent(tick=76, channel=2, data=[45, 100]),
   midi.NoteOnEvent(tick=116, channel=2, data=[45, 100]),
   midi.NoteOffEvent(tick=76, channel=2, data=[45, 100]),
   midi.NoteOnEvent(tick=116, channel=2, data=[60, 100]),
   midi.NoteOnEvent(tick=0, channel=2, data=[55, 100]),
   midi.NoteOffEvent(tick=192, channel=2, data=[60, 100]),
   midi.NoteOffEvent(tick=0, channel=2, data=[55, 100]),
   midi.NoteOnEvent(tick=0, channel=2, data=[45, 100]),
   midi.NoteOffEvent(tick=76, channel=2, data=[45, 100]),
   midi.NoteOnEvent(tick=116, channel=2, data=[45, 100]),
   midi.NoteOffEvent(tick=76, channel=2, data=[45, 100]),
   midi.NoteOnEvent(tick=116, channel=2, data=[62, 100]),
   midi.NoteOnEvent(tick=0, channel=2, data=[57, 100]),
   midi.NoteOffEvent(tick=576, channel=2, data=[57, 64]),
   midi.NoteOffEvent(tick=0, channel=2, data=[62, 64]),
   midi.NoteOnEvent(tick=0, channel=2, data=[57, 100]),
   midi.NoteOnEvent(tick=0, channel=2, data=[52, 100]),
   midi.NoteOffEvent(tick=192, channel=2, data=[57, 100]),
   midi.NoteOffEvent(tick=0, channel=2, data=[52, 100]),
   midi.NoteOnEvent(tick=0, channel=2, data=[60, 100]),
   midi.NoteOnEvent(tick=0, channel=2, data=[55, 100]),
   midi.NoteOffEvent(tick=384, channel=2, data=[60, 100]),
   midi.NoteOffEvent(tick=0, channel=2, data=[55, 100]),
   midi.PitchWheelEvent(tick=0, channel=2, data=[0, 32]),
   midi.NoteOnEvent(tick=0, channel=2, data=[58, 100]),
   midi.NoteOnEvent(tick=0, channel=2, data=[63, 100]),
   midi.PitchWheelEvent(tick=24, channel=2, data=[0, 40]),
   midi.PitchWheelEvent(tick=16, channel=2, data=[0, 48]),
   midi.PitchWheelEvent(tick=16, channel=2, data=[0, 56]),
   midi.PitchWheelEvent(tick=16, channel=2, data=[0, 64]),
   midi.NoteOffEvent(tick=120, channel=2, data=[58, 100]),
   midi.NoteOffEvent(tick=0, channel=2, data=[63, 100]),
   midi.NoteOnEvent(tick=0, channel=2, data=[62, 100]),
   midi.NoteOnEvent(tick=0, channel=2, data=[57, 100]),
   midi.NoteOffEvent(tick=192, channel=2, data=[62, 100]),
   midi.NoteOffEvent(tick=0, channel=2, data=[57, 100]),
   midi.NoteOnEvent(tick=0, channel=2, data=[60, 100]),
   midi.NoteOnEvent(tick=0, channel=2, data=[55, 100]),
   midi.NoteOffEvent(tick=192, channel=2, data=[60, 100]),
   midi.NoteOffEvent(tick=0, channel=2, data=[55, 100]),
   midi.NoteOnEvent(tick=0, channel=2, data=[57, 100]),
   midi.NoteOffEvent(tick=192, channel=2, data=[57, 100]),
   midi.NoteOnEvent(tick=0, channel=2, data=[45, 100]),
   midi.NoteOffEvent(tick=92, channel=2, data=[45, 100]),
   midi.NoteOnEvent(tick=100, channel=2, data=[43, 100]),
   midi.NoteOffEvent(tick=92, channel=2, data=[43, 100]),
   midi.NoteOnEvent(tick=100, channel=2, data=[42, 100]),
   midi.NoteOffEvent(tick=92, channel=2, data=[42, 100]),
   midi.NoteOnEvent(tick=100, channel=2, data=[41, 100]),
   midi.NoteOffEvent(tick=192, channel=2, data=[41, 100]),
   midi.NoteOnEvent(tick=192, channel=2, data=[48, 100]),
   midi.NoteOffEvent(tick=192, channel=2, data=[48, 100]),
   midi.NoteOnEvent(tick=0, channel=2, data=[57, 100]),
   midi.NoteOnEvent(tick=0, channel=2, data=[52, 100]),
   midi.NoteOnEvent(tick=0, channel=2, data=[45, 100]),
   midi.NoteOffEvent(tick=380, channel=2, data=[57, 100]),
   midi.NoteOffEvent(tick=0, channel=2, data=[52, 100]),
   midi.NoteOffEvent(tick=4, channel=2, data=[45, 100]),
   midi.EndOfTrackEvent(tick=0, data=[])]),
 midi.Track(\
  [midi.TrackNameEvent(tick=0, text='Sergey Seryogin', data=[83, 101, 114, 103, 101, 121, 32, 83, 101, 114, 121, 111, 103, 105, 110]),
   midi.ControlChangeEvent(tick=0, channel=4, data=[0, 0]),
   midi.ProgramChangeEvent(tick=0, channel=4, data=[34]),
   midi.ControlChangeEvent(tick=0, channel=4, data=[7, 109]),
   midi.ControlChangeEvent(tick=0, channel=4, data=[91, 127]),
   midi.ControlChangeEvent(tick=0, channel=4, data=[93, 127]),
   midi.NoteOnEvent(tick=3072, channel=4, data=[33, 100]),
   midi.NoteOffEvent(tick=576, channel=4, data=[33, 100]),
   midi.NoteOnEvent(tick=0, channel=4, data=[32, 100]),
   midi.NoteOffEvent(tick=576, channel=4, data=[32, 100]),
   midi.NoteOnEvent(tick=0, channel=4, data=[31, 100]),
   midi.NoteOffEvent(tick=576, channel=4, data=[31, 100]),
   midi.NoteOnEvent(tick=0, channel=4, data=[30, 100]),
   midi.NoteOffEvent(tick=576, channel=4, data=[30, 100]),
   midi.NoteOnEvent(tick=0, channel=4, data=[29, 100]),
   midi.NoteOffEvent(tick=384, channel=4, data=[29, 100]),
   midi.NoteOnEvent(tick=0, channel=4, data=[28, 100]),
   midi.NoteOffEvent(tick=384, channel=4, data=[28, 100]),
   midi.NoteOnEvent(tick=0, channel=4, data=[33, 100]),
   midi.NoteOffEvent(tick=192, channel=4, data=[33, 100]),
   midi.NoteOnEvent(tick=12096, channel=4, data=[33, 100]),
   midi.NoteOffEvent(tick=192, channel=4, data=[33, 100]),
   midi.NoteOnEvent(tick=0, channel=4, data=[33, 100]),
   midi.NoteOffEvent(tick=192, channel=4, data=[33, 100]),
   midi.NoteOnEvent(tick=0, channel=4, data=[33, 100]),
   midi.NoteOffEvent(tick=192, channel=4, data=[33, 100]),
   midi.NoteOnEvent(tick=0, channel=4, data=[36, 100]),
   midi.NoteOffEvent(tick=192, channel=4, data=[36, 100]),
   midi.NoteOnEvent(tick=0, channel=4, data=[36, 100]),
   midi.NoteOffEvent(tick=192, channel=4, data=[36, 100]),
   midi.NoteOnEvent(tick=0, channel=4, data=[33, 100]),
   midi.NoteOffEvent(tick=192, channel=4, data=[33, 100]),
   midi.NoteOnEvent(tick=0, channel=4, data=[38, 100]),
   midi.NoteOffEvent(tick=576, channel=4, data=[38, 64]),
   midi.NoteOnEvent(tick=0, channel=4, data=[38, 100]),
   midi.NoteOffEvent(tick=192, channel=4, data=[38, 100]),
   midi.NoteOnEvent(tick=0, channel=4, data=[38, 100]),
   midi.NoteOffEvent(tick=192, channel=4, data=[38, 100]),
   midi.NoteOnEvent(tick=0, channel=4, data=[38, 100]),
   midi.NoteOffEvent(tick=192, channel=4, data=[38, 100]),
   midi.NoteOnEvent(tick=0, channel=4, data=[38, 100]),
   midi.NoteOffEvent(tick=192, channel=4, data=[38, 100]),
   midi.NoteOnEvent(tick=0, channel=4, data=[38, 100]),
   midi.NoteOffEvent(tick=192, channel=4, data=[38, 100]),
   midi.NoteOnEvent(tick=0, channel=4, data=[38, 100]),
   midi.NoteOffEvent(tick=192, channel=4, data=[38, 100]),
   midi.NoteOnEvent(tick=0, channel=4, data=[38, 100]),
   midi.NoteOffEvent(tick=192, channel=4, data=[38, 100]),
   midi.NoteOnEvent(tick=0, channel=4, data=[33, 100]),
   midi.NoteOffEvent(tick=192, channel=4, data=[33, 100]),
   midi.NoteOnEvent(tick=0, channel=4, data=[33, 100]),
   midi.NoteOffEvent(tick=192, channel=4, data=[33, 100]),
   midi.NoteOnEvent(tick=0, channel=4, data=[33, 100]),
   midi.NoteOffEvent(tick=192, channel=4, data=[33, 100]),
   midi.NoteOnEvent(tick=0, channel=4, data=[36, 100]),
   midi.NoteOffEvent(tick=192, channel=4, data=[36, 100]),
   midi.NoteOnEvent(tick=0, channel=4, data=[36, 100]),
   midi.NoteOffEvent(tick=192, channel=4, data=[36, 100]),
   midi.NoteOnEvent(tick=0, channel=4, data=[31, 100]),
   midi.NoteOffEvent(tick=192, channel=4, data=[31, 100]),
   midi.NoteOnEvent(tick=0, channel=4, data=[33, 100]),
   midi.NoteOffEvent(tick=576, channel=4, data=[33, 64]),
   midi.NoteOnEvent(tick=0, channel=4, data=[33, 100]),
   midi.NoteOffEvent(tick=192, channel=4, data=[33, 100]),
   midi.NoteOnEvent(tick=0, channel=4, data=[33, 100]),
   midi.NoteOffEvent(tick=192, channel=4, data=[33, 100]),
   midi.NoteOnEvent(tick=0, channel=4, data=[33, 100]),
   midi.NoteOffEvent(tick=192, channel=4, data=[33, 100]),
   midi.NoteOnEvent(tick=0, channel=4, data=[33, 100]),
   midi.NoteOffEvent(tick=192, channel=4, data=[33, 100]),
   midi.NoteOnEvent(tick=0, channel=4, data=[33, 100]),
   midi.NoteOffEvent(tick=192, channel=4, data=[33, 100]),
   midi.NoteOnEvent(tick=0, channel=4, data=[33, 100]),
   midi.NoteOffEvent(tick=192, channel=4, data=[33, 100]),
   midi.NoteOnEvent(tick=0, channel=4, data=[33, 100]),
   midi.NoteOffEvent(tick=192, channel=4, data=[33, 100]),
   midi.NoteOnEvent(tick=0, channel=4, data=[33, 100]),
   midi.NoteOffEvent(tick=192, channel=4, data=[33, 100]),
   midi.NoteOnEvent(tick=0, channel=4, data=[33, 100]),
   midi.NoteOffEvent(tick=192, channel=4, data=[33, 100]),
   midi.NoteOnEvent(tick=0, channel=4, data=[33, 100]),
   midi.NoteOffEvent(tick=192, channel=4, data=[33, 100]),
   midi.NoteOnEvent(tick=0, channel=4, data=[36, 100]),
   midi.NoteOffEvent(tick=192, channel=4, data=[36, 100]),
   midi.NoteOnEvent(tick=0, channel=4, data=[36, 100]),
   midi.NoteOffEvent(tick=192, channel=4, data=[36, 100]),
   midi.NoteOnEvent(tick=0, channel=4, data=[33, 100]),
   midi.NoteOffEvent(tick=192, channel=4, data=[33, 100]),
   midi.NoteOnEvent(tick=0, channel=4, data=[38, 100]),
   midi.NoteOffEvent(tick=576, channel=4, data=[38, 64]),
   midi.NoteOnEvent(tick=0, channel=4, data=[38, 100]),
   midi.NoteOffEvent(tick=192, channel=4, data=[38, 100]),
   midi.NoteOnEvent(tick=0, channel=4, data=[38, 100]),
   midi.NoteOffEvent(tick=192, channel=4, data=[38, 100]),
   midi.NoteOnEvent(tick=0, channel=4, data=[38, 100]),
   midi.NoteOffEvent(tick=192, channel=4, data=[38, 100]),
   midi.NoteOnEvent(tick=0, channel=4, data=[38, 100]),
   midi.NoteOffEvent(tick=192, channel=4, data=[38, 100]),
   midi.NoteOnEvent(tick=0, channel=4, data=[38, 100]),
   midi.NoteOffEvent(tick=192, channel=4, data=[38, 100]),
   midi.NoteOnEvent(tick=0, channel=4, data=[38, 100]),
   midi.NoteOffEvent(tick=192, channel=4, data=[38, 100]),
   midi.NoteOnEvent(tick=0, channel=4, data=[38, 100]),
   midi.NoteOffEvent(tick=192, channel=4, data=[38, 100]),
   midi.NoteOnEvent(tick=0, channel=4, data=[33, 100]),
   midi.NoteOffEvent(tick=192, channel=4, data=[33, 100]),
   midi.NoteOnEvent(tick=0, channel=4, data=[33, 100]),
   midi.NoteOffEvent(tick=192, channel=4, data=[33, 100]),
   midi.NoteOnEvent(tick=0, channel=4, data=[33, 100]),
   midi.NoteOffEvent(tick=192, channel=4, data=[33, 100]),
   midi.NoteOnEvent(tick=0, channel=4, data=[36, 100]),
   midi.NoteOffEvent(tick=192, channel=4, data=[36, 100]),
   midi.NoteOnEvent(tick=0, channel=4, data=[36, 100]),
   midi.NoteOffEvent(tick=192, channel=4, data=[36, 100]),
   midi.NoteOnEvent(tick=0, channel=4, data=[31, 100]),
   midi.NoteOffEvent(tick=192, channel=4, data=[31, 100]),
   midi.NoteOnEvent(tick=0, channel=4, data=[33, 100]),
   midi.NoteOffEvent(tick=576, channel=4, data=[33, 64]),
   midi.NoteOnEvent(tick=0, channel=4, data=[33, 100]),
   midi.NoteOffEvent(tick=192, channel=4, data=[33, 100]),
   midi.NoteOnEvent(tick=0, channel=4, data=[33, 100]),
   midi.NoteOffEvent(tick=192, channel=4, data=[33, 100]),
   midi.NoteOnEvent(tick=0, channel=4, data=[33, 100]),
   midi.NoteOffEvent(tick=192, channel=4, data=[33, 100]),
   midi.NoteOnEvent(tick=0, channel=4, data=[33, 100]),
   midi.NoteOffEvent(tick=192, channel=4, data=[33, 100]),
   midi.NoteOnEvent(tick=0, channel=4, data=[33, 100]),
   midi.NoteOffEvent(tick=192, channel=4, data=[33, 100]),
   midi.NoteOnEvent(tick=0, channel=4, data=[33, 100]),
   midi.NoteOffEvent(tick=192, channel=4, data=[33, 100]),
   midi.NoteOnEvent(tick=0, channel=4, data=[33, 100]),
   midi.NoteOffEvent(tick=192, channel=4, data=[33, 100]),
   midi.NoteOnEvent(tick=0, channel=4, data=[33, 100]),
   midi.NoteOffEvent(tick=192, channel=4, data=[33, 100]),
   midi.NoteOnEvent(tick=0, channel=4, data=[33, 100]),
   midi.NoteOffEvent(tick=192, channel=4, data=[33, 100]),
   midi.NoteOnEvent(tick=0, channel=4, data=[33, 100]),
   midi.NoteOffEvent(tick=192, channel=4, data=[33, 100]),
   midi.NoteOnEvent(tick=0, channel=4, data=[36, 100]),
   midi.NoteOffEvent(tick=192, channel=4, data=[36, 100]),
   midi.NoteOnEvent(tick=0, channel=4, data=[36, 100]),
   midi.NoteOffEvent(tick=192, channel=4, data=[36, 100]),
   midi.NoteOnEvent(tick=0, channel=4, data=[33, 100]),
   midi.NoteOffEvent(tick=192, channel=4, data=[33, 100]),
   midi.NoteOnEvent(tick=0, channel=4, data=[38, 100]),
   midi.NoteOffEvent(tick=576, channel=4, data=[38, 64]),
   midi.NoteOnEvent(tick=0, channel=4, data=[38, 100]),
   midi.NoteOffEvent(tick=192, channel=4, data=[38, 100]),
   midi.NoteOnEvent(tick=0, channel=4, data=[38, 100]),
   midi.NoteOffEvent(tick=192, channel=4, data=[38, 100]),
   midi.NoteOnEvent(tick=0, channel=4, data=[38, 100]),
   midi.NoteOffEvent(tick=192, channel=4, data=[38, 100]),
   midi.NoteOnEvent(tick=0, channel=4, data=[38, 100]),
   midi.NoteOffEvent(tick=192, channel=4, data=[38, 100]),
   midi.NoteOnEvent(tick=0, channel=4, data=[38, 100]),
   midi.NoteOffEvent(tick=192, channel=4, data=[38, 100]),
   midi.NoteOnEvent(tick=0, channel=4, data=[38, 100]),
   midi.NoteOffEvent(tick=192, channel=4, data=[38, 100]),
   midi.NoteOnEvent(tick=0, channel=4, data=[38, 100]),
   midi.NoteOffEvent(tick=192, channel=4, data=[38, 100]),
   midi.NoteOnEvent(tick=0, channel=4, data=[33, 100]),
   midi.NoteOffEvent(tick=192, channel=4, data=[33, 100]),
   midi.NoteOnEvent(tick=0, channel=4, data=[33, 100]),
   midi.NoteOffEvent(tick=192, channel=4, data=[33, 100]),
   midi.NoteOnEvent(tick=0, channel=4, data=[33, 100]),
   midi.NoteOffEvent(tick=192, channel=4, data=[33, 100]),
   midi.NoteOnEvent(tick=0, channel=4, data=[36, 100]),
   midi.NoteOffEvent(tick=192, channel=4, data=[36, 100]),
   midi.NoteOnEvent(tick=0, channel=4, data=[36, 100]),
   midi.NoteOffEvent(tick=192, channel=4, data=[36, 100]),
   midi.NoteOnEvent(tick=0, channel=4, data=[31, 100]),
   midi.NoteOffEvent(tick=192, channel=4, data=[31, 100]),
   midi.NoteOnEvent(tick=0, channel=4, data=[33, 100]),
   midi.NoteOffEvent(tick=576, channel=4, data=[33, 64]),
   midi.NoteOnEvent(tick=0, channel=4, data=[33, 100]),
   midi.NoteOffEvent(tick=192, channel=4, data=[33, 100]),
   midi.NoteOnEvent(tick=0, channel=4, data=[33, 100]),
   midi.NoteOffEvent(tick=192, channel=4, data=[33, 100]),
   midi.NoteOnEvent(tick=0, channel=4, data=[33, 100]),
   midi.NoteOffEvent(tick=192, channel=4, data=[33, 100]),
   midi.NoteOnEvent(tick=0, channel=4, data=[33, 100]),
   midi.NoteOffEvent(tick=192, channel=4, data=[33, 100]),
   midi.NoteOnEvent(tick=0, channel=4, data=[33, 100]),
   midi.NoteOffEvent(tick=192, channel=4, data=[33, 100]),
   midi.NoteOnEvent(tick=0, channel=4, data=[33, 100]),
   midi.NoteOffEvent(tick=192, channel=4, data=[33, 100]),
   midi.NoteOnEvent(tick=0, channel=4, data=[33, 100]),
   midi.NoteOffEvent(tick=192, channel=4, data=[33, 100]),
   midi.NoteOnEvent(tick=0, channel=4, data=[33, 100]),
   midi.NoteOffEvent(tick=192, channel=4, data=[33, 100]),
   midi.NoteOnEvent(tick=0, channel=4, data=[33, 100]),
   midi.NoteOffEvent(tick=192, channel=4, data=[33, 100]),
   midi.NoteOnEvent(tick=0, channel=4, data=[33, 100]),
   midi.NoteOffEvent(tick=192, channel=4, data=[33, 100]),
   midi.NoteOnEvent(tick=0, channel=4, data=[36, 100]),
   midi.NoteOffEvent(tick=192, channel=4, data=[36, 100]),
   midi.NoteOnEvent(tick=0, channel=4, data=[36, 100]),
   midi.NoteOffEvent(tick=192, channel=4, data=[36, 100]),
   midi.NoteOnEvent(tick=0, channel=4, data=[33, 100]),
   midi.NoteOffEvent(tick=192, channel=4, data=[33, 100]),
   midi.NoteOnEvent(tick=0, channel=4, data=[38, 100]),
   midi.NoteOffEvent(tick=576, channel=4, data=[38, 64]),
   midi.NoteOnEvent(tick=0, channel=4, data=[38, 100]),
   midi.NoteOffEvent(tick=192, channel=4, data=[38, 100]),
   midi.NoteOnEvent(tick=0, channel=4, data=[38, 100]),
   midi.NoteOffEvent(tick=192, channel=4, data=[38, 100]),
   midi.NoteOnEvent(tick=0, channel=4, data=[38, 100]),
   midi.NoteOffEvent(tick=192, channel=4, data=[38, 100]),
   midi.NoteOnEvent(tick=0, channel=4, data=[38, 100]),
   midi.NoteOffEvent(tick=192, channel=4, data=[38, 100]),
   midi.NoteOnEvent(tick=0, channel=4, data=[38, 100]),
   midi.NoteOffEvent(tick=192, channel=4, data=[38, 100]),
   midi.NoteOnEvent(tick=0, channel=4, data=[38, 100]),
   midi.NoteOffEvent(tick=192, channel=4, data=[38, 100]),
   midi.NoteOnEvent(tick=0, channel=4, data=[38, 100]),
   midi.NoteOffEvent(tick=192, channel=4, data=[38, 100]),
   midi.NoteOnEvent(tick=0, channel=4, data=[33, 100]),
   midi.NoteOffEvent(tick=192, channel=4, data=[33, 100]),
   midi.NoteOnEvent(tick=0, channel=4, data=[33, 100]),
   midi.NoteOffEvent(tick=192, channel=4, data=[33, 100]),
   midi.NoteOnEvent(tick=0, channel=4, data=[33, 100]),
   midi.NoteOffEvent(tick=192, channel=4, data=[33, 100]),
   midi.NoteOnEvent(tick=0, channel=4, data=[36, 100]),
   midi.NoteOffEvent(tick=192, channel=4, data=[36, 100]),
   midi.NoteOnEvent(tick=0, channel=4, data=[36, 100]),
   midi.NoteOffEvent(tick=192, channel=4, data=[36, 100]),
   midi.NoteOnEvent(tick=0, channel=4, data=[31, 100]),
   midi.NoteOffEvent(tick=192, channel=4, data=[31, 100]),
   midi.NoteOnEvent(tick=0, channel=4, data=[33, 100]),
   midi.NoteOffEvent(tick=576, channel=4, data=[33, 64]),
   midi.NoteOnEvent(tick=0, channel=4, data=[45, 100]),
   midi.NoteOffEvent(tick=192, channel=4, data=[45, 100]),
   midi.NoteOnEvent(tick=0, channel=4, data=[45, 100]),
   midi.NoteOffEvent(tick=192, channel=4, data=[45, 100]),
   midi.NoteOnEvent(tick=0, channel=4, data=[43, 100]),
   midi.NoteOffEvent(tick=192, channel=4, data=[43, 100]),
   midi.NoteOnEvent(tick=0, channel=4, data=[40, 100]),
   midi.NoteOffEvent(tick=192, channel=4, data=[40, 100]),
   midi.NoteOnEvent(tick=0, channel=4, data=[39, 100]),
   midi.NoteOffEvent(tick=192, channel=4, data=[39, 100]),
   midi.NoteOnEvent(tick=0, channel=4, data=[38, 100]),
   midi.NoteOffEvent(tick=192, channel=4, data=[38, 100]),
   midi.NoteOnEvent(tick=0, channel=4, data=[36, 100]),
   midi.NoteOffEvent(tick=192, channel=4, data=[36, 100]),
   midi.NoteOnEvent(tick=0, channel=4, data=[33, 100]),
   midi.NoteOffEvent(tick=192, channel=4, data=[33, 100]),
   midi.NoteOnEvent(tick=0, channel=4, data=[33, 100]),
   midi.NoteOffEvent(tick=384, channel=4, data=[33, 100]),
   midi.NoteOnEvent(tick=0, channel=4, data=[33, 100]),
   midi.NoteOffEvent(tick=192, channel=4, data=[33, 100]),
   midi.NoteOnEvent(tick=0, channel=4, data=[32, 100]),
   midi.NoteOffEvent(tick=384, channel=4, data=[32, 100]),
   midi.NoteOnEvent(tick=0, channel=4, data=[32, 100]),
   midi.NoteOffEvent(tick=192, channel=4, data=[32, 100]),
   midi.NoteOnEvent(tick=0, channel=4, data=[31, 100]),
   midi.NoteOffEvent(tick=576, channel=4, data=[31, 64]),
   midi.NoteOnEvent(tick=0, channel=4, data=[31, 100]),
   midi.NoteOffEvent(tick=192, channel=4, data=[31, 100]),
   midi.NoteOnEvent(tick=0, channel=4, data=[31, 100]),
   midi.NoteOffEvent(tick=192, channel=4, data=[31, 100]),
   midi.NoteOnEvent(tick=0, channel=4, data=[43, 100]),
   midi.NoteOffEvent(tick=384, channel=4, data=[43, 100]),
   midi.NoteOnEvent(tick=0, channel=4, data=[43, 100]),
   midi.NoteOffEvent(tick=384, channel=4, data=[43, 100]),
   midi.NoteOnEvent(tick=0, channel=4, data=[29, 100]),
   midi.NoteOffEvent(tick=192, channel=4, data=[29, 100]),
   midi.NoteOnEvent(tick=0, channel=4, data=[29, 100]),
   midi.NoteOffEvent(tick=384, channel=4, data=[29, 100]),
   midi.NoteOnEvent(tick=0, channel=4, data=[29, 100]),
   midi.NoteOffEvent(tick=192, channel=4, data=[29, 100]),
   midi.NoteOnEvent(tick=0, channel=4, data=[28, 100]),
   midi.NoteOffEvent(tick=384, channel=4, data=[28, 100]),
   midi.NoteOnEvent(tick=0, channel=4, data=[28, 100]),
   midi.NoteOffEvent(tick=192, channel=4, data=[28, 100]),
   midi.NoteOnEvent(tick=0, channel=4, data=[38, 100]),
   midi.NoteOffEvent(tick=576, channel=4, data=[38, 64]),
   midi.NoteOnEvent(tick=0, channel=4, data=[38, 100]),
   midi.NoteOffEvent(tick=192, channel=4, data=[38, 100]),
   midi.NoteOnEvent(tick=0, channel=4, data=[38, 100]),
   midi.NoteOffEvent(tick=192, channel=4, data=[38, 100]),
   midi.NoteOnEvent(tick=0, channel=4, data=[38, 100]),
   midi.NoteOffEvent(tick=384, channel=4, data=[38, 100]),
   midi.NoteOnEvent(tick=0, channel=4, data=[38, 100]),
   midi.NoteOffEvent(tick=384, channel=4, data=[38, 100]),
   midi.NoteOnEvent(tick=0, channel=4, data=[33, 100]),
   midi.NoteOffEvent(tick=192, channel=4, data=[33, 100]),
   midi.NoteOnEvent(tick=0, channel=4, data=[33, 100]),
   midi.NoteOffEvent(tick=384, channel=4, data=[33, 100]),
   midi.NoteOnEvent(tick=0, channel=4, data=[33, 100]),
   midi.NoteOffEvent(tick=192, channel=4, data=[33, 100]),
   midi.NoteOnEvent(tick=0, channel=4, data=[32, 100]),
   midi.NoteOffEvent(tick=384, channel=4, data=[32, 100]),
   midi.NoteOnEvent(tick=0, channel=4, data=[32, 100]),
   midi.NoteOffEvent(tick=192, channel=4, data=[32, 100]),
   midi.NoteOnEvent(tick=0, channel=4, data=[31, 100]),
   midi.NoteOffEvent(tick=576, channel=4, data=[31, 64]),
   midi.NoteOnEvent(tick=0, channel=4, data=[31, 100]),
   midi.NoteOffEvent(tick=192, channel=4, data=[31, 100]),
   midi.NoteOnEvent(tick=0, channel=4, data=[31, 100]),
   midi.NoteOffEvent(tick=192, channel=4, data=[31, 100]),
   midi.NoteOnEvent(tick=0, channel=4, data=[43, 100]),
   midi.NoteOffEvent(tick=384, channel=4, data=[43, 100]),
   midi.NoteOnEvent(tick=0, channel=4, data=[43, 100]),
   midi.NoteOffEvent(tick=384, channel=4, data=[43, 100]),
   midi.NoteOnEvent(tick=0, channel=4, data=[29, 100]),
   midi.NoteOffEvent(tick=192, channel=4, data=[29, 100]),
   midi.NoteOnEvent(tick=0, channel=4, data=[29, 100]),
   midi.NoteOffEvent(tick=384, channel=4, data=[29, 100]),
   midi.NoteOnEvent(tick=0, channel=4, data=[29, 100]),
   midi.NoteOffEvent(tick=192, channel=4, data=[29, 100]),
   midi.NoteOnEvent(tick=0, channel=4, data=[28, 100]),
   midi.NoteOffEvent(tick=384, channel=4, data=[28, 100]),
   midi.NoteOnEvent(tick=0, channel=4, data=[28, 100]),
   midi.NoteOffEvent(tick=192, channel=4, data=[28, 100]),
   midi.NoteOnEvent(tick=0, channel=4, data=[38, 100]),
   midi.NoteOffEvent(tick=576, channel=4, data=[38, 100]),
   midi.NoteOnEvent(tick=0, channel=4, data=[38, 100]),
   midi.NoteOffEvent(tick=192, channel=4, data=[38, 100]),
   midi.NoteOnEvent(tick=0, channel=4, data=[38, 100]),
   midi.NoteOffEvent(tick=192, channel=4, data=[38, 100]),
   midi.NoteOnEvent(tick=0, channel=4, data=[38, 100]),
   midi.NoteOffEvent(tick=384, channel=4, data=[38, 100]),
   midi.NoteOnEvent(tick=0, channel=4, data=[38, 100]),
   midi.NoteOffEvent(tick=384, channel=4, data=[38, 100]),
   midi.NoteOnEvent(tick=0, channel=4, data=[33, 100]),
   midi.NoteOffEvent(tick=192, channel=4, data=[33, 100]),
   midi.NoteOnEvent(tick=0, channel=4, data=[33, 100]),
   midi.NoteOffEvent(tick=384, channel=4, data=[33, 100]),
   midi.NoteOnEvent(tick=0, channel=4, data=[33, 100]),
   midi.NoteOffEvent(tick=192, channel=4, data=[33, 100]),
   midi.NoteOnEvent(tick=0, channel=4, data=[32, 100]),
   midi.NoteOffEvent(tick=384, channel=4, data=[32, 100]),
   midi.NoteOnEvent(tick=0, channel=4, data=[32, 100]),
   midi.NoteOffEvent(tick=192, channel=4, data=[32, 100]),
   midi.NoteOnEvent(tick=0, channel=4, data=[31, 100]),
   midi.NoteOffEvent(tick=576, channel=4, data=[31, 100]),
   midi.NoteOnEvent(tick=0, channel=4, data=[31, 100]),
   midi.NoteOffEvent(tick=192, channel=4, data=[31, 100]),
   midi.NoteOnEvent(tick=0, channel=4, data=[31, 100]),
   midi.NoteOffEvent(tick=192, channel=4, data=[31, 100]),
   midi.NoteOnEvent(tick=0, channel=4, data=[43, 100]),
   midi.NoteOffEvent(tick=384, channel=4, data=[43, 100]),
   midi.NoteOnEvent(tick=0, channel=4, data=[43, 100]),
   midi.NoteOffEvent(tick=384, channel=4, data=[43, 100]),
   midi.NoteOnEvent(tick=0, channel=4, data=[29, 100]),
   midi.NoteOffEvent(tick=192, channel=4, data=[29, 100]),
   midi.NoteOnEvent(tick=0, channel=4, data=[29, 100]),
   midi.NoteOffEvent(tick=384, channel=4, data=[29, 100]),
   midi.NoteOnEvent(tick=0, channel=4, data=[29, 100]),
   midi.NoteOffEvent(tick=192, channel=4, data=[29, 100]),
   midi.NoteOnEvent(tick=0, channel=4, data=[28, 100]),
   midi.NoteOffEvent(tick=384, channel=4, data=[28, 100]),
   midi.NoteOnEvent(tick=0, channel=4, data=[28, 100]),
   midi.NoteOffEvent(tick=192, channel=4, data=[28, 100]),
   midi.NoteOnEvent(tick=0, channel=4, data=[38, 100]),
   midi.NoteOffEvent(tick=576, channel=4, data=[38, 100]),
   midi.NoteOnEvent(tick=0, channel=4, data=[38, 100]),
   midi.NoteOffEvent(tick=192, channel=4, data=[38, 100]),
   midi.NoteOnEvent(tick=0, channel=4, data=[38, 100]),
   midi.NoteOffEvent(tick=192, channel=4, data=[38, 100]),
   midi.NoteOnEvent(tick=0, channel=4, data=[38, 100]),
   midi.NoteOffEvent(tick=384, channel=4, data=[38, 100]),
   midi.NoteOnEvent(tick=0, channel=4, data=[38, 100]),
   midi.NoteOffEvent(tick=384, channel=4, data=[38, 100]),
   midi.NoteOnEvent(tick=0, channel=4, data=[33, 100]),
   midi.NoteOffEvent(tick=192, channel=4, data=[33, 100]),
   midi.NoteOnEvent(tick=0, channel=4, data=[33, 100]),
   midi.NoteOffEvent(tick=384, channel=4, data=[33, 100]),
   midi.NoteOnEvent(tick=0, channel=4, data=[33, 100]),
   midi.NoteOffEvent(tick=192, channel=4, data=[33, 100]),
   midi.NoteOnEvent(tick=0, channel=4, data=[32, 100]),
   midi.NoteOffEvent(tick=384, channel=4, data=[32, 100]),
   midi.NoteOnEvent(tick=0, channel=4, data=[32, 100]),
   midi.NoteOffEvent(tick=192, channel=4, data=[32, 100]),
   midi.NoteOnEvent(tick=0, channel=4, data=[31, 100]),
   midi.NoteOffEvent(tick=576, channel=4, data=[31, 100]),
   midi.NoteOnEvent(tick=0, channel=4, data=[31, 100]),
   midi.NoteOffEvent(tick=192, channel=4, data=[31, 100]),
   midi.NoteOnEvent(tick=0, channel=4, data=[31, 100]),
   midi.NoteOffEvent(tick=192, channel=4, data=[31, 100]),
   midi.NoteOnEvent(tick=0, channel=4, data=[43, 100]),
   midi.NoteOffEvent(tick=384, channel=4, data=[43, 100]),
   midi.NoteOnEvent(tick=0, channel=4, data=[43, 100]),
   midi.NoteOffEvent(tick=384, channel=4, data=[43, 100]),
   midi.NoteOnEvent(tick=0, channel=4, data=[29, 100]),
   midi.NoteOffEvent(tick=192, channel=4, data=[29, 100]),
   midi.NoteOnEvent(tick=0, channel=4, data=[29, 100]),
   midi.NoteOffEvent(tick=384, channel=4, data=[29, 100]),
   midi.NoteOnEvent(tick=0, channel=4, data=[29, 100]),
   midi.NoteOffEvent(tick=192, channel=4, data=[29, 100]),
   midi.NoteOnEvent(tick=0, channel=4, data=[28, 100]),
   midi.NoteOffEvent(tick=384, channel=4, data=[28, 100]),
   midi.NoteOnEvent(tick=0, channel=4, data=[28, 100]),
   midi.NoteOffEvent(tick=192, channel=4, data=[28, 100]),
   midi.NoteOnEvent(tick=0, channel=4, data=[38, 100]),
   midi.NoteOffEvent(tick=3264, channel=4, data=[38, 100]),
   midi.NoteOnEvent(tick=0, channel=4, data=[33, 100]),
   midi.NoteOffEvent(tick=192, channel=4, data=[33, 100]),
   midi.NoteOnEvent(tick=0, channel=4, data=[33, 100]),
   midi.NoteOffEvent(tick=192, channel=4, data=[33, 100]),
   midi.NoteOnEvent(tick=0, channel=4, data=[33, 100]),
   midi.NoteOffEvent(tick=192, channel=4, data=[33, 100]),
   midi.NoteOnEvent(tick=0, channel=4, data=[36, 100]),
   midi.NoteOffEvent(tick=192, channel=4, data=[36, 100]),
   midi.NoteOnEvent(tick=0, channel=4, data=[36, 100]),
   midi.NoteOffEvent(tick=192, channel=4, data=[36, 100]),
   midi.NoteOnEvent(tick=0, channel=4, data=[33, 100]),
   midi.NoteOffEvent(tick=192, channel=4, data=[33, 100]),
   midi.NoteOnEvent(tick=0, channel=4, data=[38, 100]),
   midi.NoteOffEvent(tick=576, channel=4, data=[38, 100]),
   midi.NoteOnEvent(tick=0, channel=4, data=[38, 100]),
   midi.NoteOffEvent(tick=192, channel=4, data=[38, 100]),
   midi.NoteOnEvent(tick=0, channel=4, data=[38, 100]),
   midi.NoteOffEvent(tick=192, channel=4, data=[38, 100]),
   midi.NoteOnEvent(tick=0, channel=4, data=[38, 100]),
   midi.NoteOffEvent(tick=192, channel=4, data=[38, 100]),
   midi.NoteOnEvent(tick=0, channel=4, data=[38, 100]),
   midi.NoteOffEvent(tick=192, channel=4, data=[38, 100]),
   midi.NoteOnEvent(tick=0, channel=4, data=[38, 100]),
   midi.NoteOffEvent(tick=192, channel=4, data=[38, 100]),
   midi.NoteOnEvent(tick=0, channel=4, data=[38, 100]),
   midi.NoteOffEvent(tick=192, channel=4, data=[38, 100]),
   midi.NoteOnEvent(tick=0, channel=4, data=[38, 100]),
   midi.NoteOffEvent(tick=192, channel=4, data=[38, 100]),
   midi.NoteOnEvent(tick=0, channel=4, data=[33, 100]),
   midi.NoteOffEvent(tick=192, channel=4, data=[33, 100]),
   midi.NoteOnEvent(tick=0, channel=4, data=[33, 100]),
   midi.NoteOffEvent(tick=192, channel=4, data=[33, 100]),
   midi.NoteOnEvent(tick=0, channel=4, data=[33, 100]),
   midi.NoteOffEvent(tick=192, channel=4, data=[33, 100]),
   midi.NoteOnEvent(tick=0, channel=4, data=[36, 100]),
   midi.NoteOffEvent(tick=192, channel=4, data=[36, 100]),
   midi.NoteOnEvent(tick=0, channel=4, data=[36, 100]),
   midi.NoteOffEvent(tick=192, channel=4, data=[36, 100]),
   midi.NoteOnEvent(tick=0, channel=4, data=[31, 100]),
   midi.NoteOffEvent(tick=192, channel=4, data=[31, 100]),
   midi.NoteOnEvent(tick=0, channel=4, data=[33, 100]),
   midi.NoteOffEvent(tick=576, channel=4, data=[33, 100]),
   midi.NoteOnEvent(tick=0, channel=4, data=[33, 100]),
   midi.NoteOffEvent(tick=192, channel=4, data=[33, 100]),
   midi.NoteOnEvent(tick=0, channel=4, data=[33, 100]),
   midi.NoteOffEvent(tick=192, channel=4, data=[33, 100]),
   midi.NoteOnEvent(tick=0, channel=4, data=[33, 100]),
   midi.NoteOffEvent(tick=192, channel=4, data=[33, 100]),
   midi.NoteOnEvent(tick=0, channel=4, data=[33, 100]),
   midi.NoteOffEvent(tick=192, channel=4, data=[33, 100]),
   midi.NoteOnEvent(tick=0, channel=4, data=[33, 100]),
   midi.NoteOffEvent(tick=192, channel=4, data=[33, 100]),
   midi.NoteOnEvent(tick=0, channel=4, data=[33, 100]),
   midi.NoteOffEvent(tick=192, channel=4, data=[33, 100]),
   midi.NoteOnEvent(tick=0, channel=4, data=[33, 100]),
   midi.NoteOffEvent(tick=192, channel=4, data=[33, 100]),
   midi.NoteOnEvent(tick=0, channel=4, data=[33, 100]),
   midi.NoteOffEvent(tick=192, channel=4, data=[33, 100]),
   midi.NoteOnEvent(tick=0, channel=4, data=[33, 100]),
   midi.NoteOffEvent(tick=192, channel=4, data=[33, 100]),
   midi.NoteOnEvent(tick=0, channel=4, data=[33, 100]),
   midi.NoteOffEvent(tick=192, channel=4, data=[33, 100]),
   midi.NoteOnEvent(tick=0, channel=4, data=[36, 100]),
   midi.NoteOffEvent(tick=192, channel=4, data=[36, 100]),
   midi.NoteOnEvent(tick=0, channel=4, data=[36, 100]),
   midi.NoteOffEvent(tick=192, channel=4, data=[36, 100]),
   midi.NoteOnEvent(tick=0, channel=4, data=[33, 100]),
   midi.NoteOffEvent(tick=192, channel=4, data=[33, 100]),
   midi.NoteOnEvent(tick=0, channel=4, data=[38, 100]),
   midi.NoteOffEvent(tick=576, channel=4, data=[38, 100]),
   midi.NoteOnEvent(tick=0, channel=4, data=[38, 100]),
   midi.NoteOffEvent(tick=192, channel=4, data=[38, 100]),
   midi.NoteOnEvent(tick=0, channel=4, data=[38, 100]),
   midi.NoteOffEvent(tick=192, channel=4, data=[38, 100]),
   midi.NoteOnEvent(tick=0, channel=4, data=[38, 100]),
   midi.NoteOffEvent(tick=192, channel=4, data=[38, 100]),
   midi.NoteOnEvent(tick=0, channel=4, data=[38, 100]),
   midi.NoteOffEvent(tick=192, channel=4, data=[38, 100]),
   midi.NoteOnEvent(tick=0, channel=4, data=[38, 100]),
   midi.NoteOffEvent(tick=192, channel=4, data=[38, 100]),
   midi.NoteOnEvent(tick=0, channel=4, data=[38, 100]),
   midi.NoteOffEvent(tick=192, channel=4, data=[38, 100]),
   midi.NoteOnEvent(tick=0, channel=4, data=[38, 100]),
   midi.NoteOffEvent(tick=192, channel=4, data=[38, 100]),
   midi.NoteOnEvent(tick=0, channel=4, data=[33, 100]),
   midi.NoteOffEvent(tick=192, channel=4, data=[33, 100]),
   midi.NoteOnEvent(tick=0, channel=4, data=[33, 100]),
   midi.NoteOffEvent(tick=192, channel=4, data=[33, 100]),
   midi.NoteOnEvent(tick=0, channel=4, data=[33, 100]),
   midi.NoteOffEvent(tick=192, channel=4, data=[33, 100]),
   midi.NoteOnEvent(tick=0, channel=4, data=[36, 100]),
   midi.NoteOffEvent(tick=192, channel=4, data=[36, 100]),
   midi.NoteOnEvent(tick=0, channel=4, data=[36, 100]),
   midi.NoteOffEvent(tick=192, channel=4, data=[36, 100]),
   midi.NoteOnEvent(tick=0, channel=4, data=[31, 100]),
   midi.NoteOffEvent(tick=192, channel=4, data=[31, 100]),
   midi.NoteOnEvent(tick=0, channel=4, data=[33, 100]),
   midi.NoteOffEvent(tick=576, channel=4, data=[33, 100]),
   midi.NoteOnEvent(tick=0, channel=4, data=[33, 100]),
   midi.NoteOffEvent(tick=192, channel=4, data=[33, 100]),
   midi.NoteOnEvent(tick=0, channel=4, data=[33, 100]),
   midi.NoteOffEvent(tick=192, channel=4, data=[33, 100]),
   midi.NoteOnEvent(tick=0, channel=4, data=[33, 100]),
   midi.NoteOffEvent(tick=192, channel=4, data=[33, 100]),
   midi.NoteOnEvent(tick=0, channel=4, data=[33, 100]),
   midi.NoteOffEvent(tick=192, channel=4, data=[33, 100]),
   midi.NoteOnEvent(tick=0, channel=4, data=[33, 100]),
   midi.NoteOffEvent(tick=192, channel=4, data=[33, 100]),
   midi.NoteOnEvent(tick=0, channel=4, data=[33, 100]),
   midi.NoteOffEvent(tick=192, channel=4, data=[33, 100]),
   midi.NoteOnEvent(tick=0, channel=4, data=[33, 100]),
   midi.NoteOffEvent(tick=192, channel=4, data=[33, 100]),
   midi.NoteOnEvent(tick=0, channel=4, data=[33, 100]),
   midi.NoteOffEvent(tick=192, channel=4, data=[33, 100]),
   midi.NoteOnEvent(tick=0, channel=4, data=[33, 100]),
   midi.NoteOffEvent(tick=192, channel=4, data=[33, 100]),
   midi.NoteOnEvent(tick=0, channel=4, data=[33, 100]),
   midi.NoteOffEvent(tick=192, channel=4, data=[33, 100]),
   midi.NoteOnEvent(tick=0, channel=4, data=[36, 100]),
   midi.NoteOffEvent(tick=192, channel=4, data=[36, 100]),
   midi.NoteOnEvent(tick=0, channel=4, data=[36, 100]),
   midi.NoteOffEvent(tick=192, channel=4, data=[36, 100]),
   midi.NoteOnEvent(tick=0, channel=4, data=[33, 100]),
   midi.NoteOffEvent(tick=192, channel=4, data=[33, 100]),
   midi.NoteOnEvent(tick=0, channel=4, data=[38, 100]),
   midi.NoteOffEvent(tick=576, channel=4, data=[38, 100]),
   midi.NoteOnEvent(tick=0, channel=4, data=[38, 100]),
   midi.NoteOffEvent(tick=192, channel=4, data=[38, 100]),
   midi.NoteOnEvent(tick=0, channel=4, data=[38, 100]),
   midi.NoteOffEvent(tick=192, channel=4, data=[38, 100]),
   midi.NoteOnEvent(tick=0, channel=4, data=[38, 100]),
   midi.NoteOffEvent(tick=192, channel=4, data=[38, 100]),
   midi.NoteOnEvent(tick=0, channel=4, data=[38, 100]),
   midi.NoteOffEvent(tick=192, channel=4, data=[38, 100]),
   midi.NoteOnEvent(tick=0, channel=4, data=[38, 100]),
   midi.NoteOffEvent(tick=192, channel=4, data=[38, 100]),
   midi.NoteOnEvent(tick=0, channel=4, data=[38, 100]),
   midi.NoteOffEvent(tick=192, channel=4, data=[38, 100]),
   midi.NoteOnEvent(tick=0, channel=4, data=[38, 100]),
   midi.NoteOffEvent(tick=192, channel=4, data=[38, 100]),
   midi.NoteOnEvent(tick=0, channel=4, data=[33, 100]),
   midi.NoteOffEvent(tick=192, channel=4, data=[33, 100]),
   midi.NoteOnEvent(tick=0, channel=4, data=[33, 100]),
   midi.NoteOffEvent(tick=192, channel=4, data=[33, 100]),
   midi.NoteOnEvent(tick=0, channel=4, data=[33, 100]),
   midi.NoteOffEvent(tick=192, channel=4, data=[33, 100]),
   midi.NoteOnEvent(tick=0, channel=4, data=[36, 100]),
   midi.NoteOffEvent(tick=192, channel=4, data=[36, 100]),
   midi.NoteOnEvent(tick=0, channel=4, data=[36, 100]),
   midi.NoteOffEvent(tick=192, channel=4, data=[36, 100]),
   midi.NoteOnEvent(tick=0, channel=4, data=[31, 100]),
   midi.NoteOffEvent(tick=192, channel=4, data=[31, 100]),
   midi.NoteOnEvent(tick=0, channel=4, data=[33, 100]),
   midi.NoteOffEvent(tick=576, channel=4, data=[33, 100]),
   midi.NoteOnEvent(tick=0, channel=4, data=[33, 100]),
   midi.NoteOffEvent(tick=192, channel=4, data=[33, 100]),
   midi.NoteOnEvent(tick=0, channel=4, data=[33, 100]),
   midi.NoteOffEvent(tick=192, channel=4, data=[33, 100]),
   midi.NoteOnEvent(tick=0, channel=4, data=[33, 100]),
   midi.NoteOffEvent(tick=192, channel=4, data=[33, 100]),
   midi.NoteOnEvent(tick=0, channel=4, data=[33, 100]),
   midi.NoteOffEvent(tick=192, channel=4, data=[33, 100]),
   midi.NoteOnEvent(tick=0, channel=4, data=[33, 100]),
   midi.NoteOffEvent(tick=192, channel=4, data=[33, 100]),
   midi.NoteOnEvent(tick=0, channel=4, data=[33, 100]),
   midi.NoteOffEvent(tick=192, channel=4, data=[33, 100]),
   midi.NoteOnEvent(tick=0, channel=4, data=[33, 100]),
   midi.NoteOffEvent(tick=192, channel=4, data=[33, 100]),
   midi.NoteOnEvent(tick=0, channel=4, data=[33, 100]),
   midi.NoteOffEvent(tick=192, channel=4, data=[33, 100]),
   midi.NoteOnEvent(tick=0, channel=4, data=[33, 100]),
   midi.NoteOffEvent(tick=192, channel=4, data=[33, 100]),
   midi.NoteOnEvent(tick=0, channel=4, data=[33, 100]),
   midi.NoteOffEvent(tick=192, channel=4, data=[33, 100]),
   midi.NoteOnEvent(tick=0, channel=4, data=[36, 100]),
   midi.NoteOffEvent(tick=192, channel=4, data=[36, 100]),
   midi.NoteOnEvent(tick=0, channel=4, data=[36, 100]),
   midi.NoteOffEvent(tick=192, channel=4, data=[36, 100]),
   midi.NoteOnEvent(tick=0, channel=4, data=[33, 100]),
   midi.NoteOffEvent(tick=192, channel=4, data=[33, 100]),
   midi.NoteOnEvent(tick=0, channel=4, data=[38, 100]),
   midi.NoteOffEvent(tick=576, channel=4, data=[38, 100]),
   midi.NoteOnEvent(tick=0, channel=4, data=[38, 100]),
   midi.NoteOffEvent(tick=192, channel=4, data=[38, 100]),
   midi.NoteOnEvent(tick=0, channel=4, data=[38, 100]),
   midi.NoteOffEvent(tick=192, channel=4, data=[38, 100]),
   midi.NoteOnEvent(tick=0, channel=4, data=[38, 100]),
   midi.NoteOffEvent(tick=192, channel=4, data=[38, 100]),
   midi.NoteOnEvent(tick=0, channel=4, data=[38, 100]),
   midi.NoteOffEvent(tick=192, channel=4, data=[38, 100]),
   midi.NoteOnEvent(tick=0, channel=4, data=[38, 100]),
   midi.NoteOffEvent(tick=192, channel=4, data=[38, 100]),
   midi.NoteOnEvent(tick=0, channel=4, data=[38, 100]),
   midi.NoteOffEvent(tick=192, channel=4, data=[38, 100]),
   midi.NoteOnEvent(tick=0, channel=4, data=[38, 100]),
   midi.NoteOffEvent(tick=192, channel=4, data=[38, 100]),
   midi.NoteOnEvent(tick=0, channel=4, data=[33, 100]),
   midi.NoteOffEvent(tick=192, channel=4, data=[33, 100]),
   midi.NoteOnEvent(tick=0, channel=4, data=[33, 100]),
   midi.NoteOffEvent(tick=192, channel=4, data=[33, 100]),
   midi.NoteOnEvent(tick=0, channel=4, data=[33, 100]),
   midi.NoteOffEvent(tick=192, channel=4, data=[33, 100]),
   midi.NoteOnEvent(tick=0, channel=4, data=[36, 100]),
   midi.NoteOffEvent(tick=192, channel=4, data=[36, 100]),
   midi.NoteOnEvent(tick=0, channel=4, data=[36, 100]),
   midi.NoteOffEvent(tick=192, channel=4, data=[36, 100]),
   midi.NoteOnEvent(tick=0, channel=4, data=[31, 100]),
   midi.NoteOffEvent(tick=192, channel=4, data=[31, 100]),
   midi.NoteOnEvent(tick=0, channel=4, data=[33, 100]),
   midi.NoteOffEvent(tick=576, channel=4, data=[33, 100]),
   midi.NoteOnEvent(tick=0, channel=4, data=[40, 100]),
   midi.NoteOffEvent(tick=192, channel=4, data=[40, 100]),
   midi.NoteOnEvent(tick=0, channel=4, data=[40, 100]),
   midi.NoteOffEvent(tick=192, channel=4, data=[40, 100]),
   midi.NoteOnEvent(tick=0, channel=4, data=[36, 100]),
   midi.NoteOffEvent(tick=192, channel=4, data=[36, 100]),
   midi.NoteOnEvent(tick=0, channel=4, data=[38, 100]),
   midi.NoteOffEvent(tick=192, channel=4, data=[38, 100]),
   midi.NoteOnEvent(tick=0, channel=4, data=[36, 100]),
   midi.NoteOffEvent(tick=192, channel=4, data=[36, 100]),
   midi.NoteOnEvent(tick=0, channel=4, data=[35, 100]),
   midi.NoteOffEvent(tick=192, channel=4, data=[35, 100]),
   midi.NoteOnEvent(tick=0, channel=4, data=[34, 100]),
   midi.NoteOffEvent(tick=192, channel=4, data=[34, 100]),
   midi.NoteOnEvent(tick=0, channel=4, data=[33, 100]),
   midi.NoteOffEvent(tick=192, channel=4, data=[33, 100]),
   midi.NoteOnEvent(tick=0, channel=4, data=[33, 100]),
   midi.NoteOffEvent(tick=384, channel=4, data=[33, 100]),
   midi.NoteOnEvent(tick=0, channel=4, data=[33, 100]),
   midi.NoteOffEvent(tick=192, channel=4, data=[33, 100]),
   midi.NoteOnEvent(tick=0, channel=4, data=[32, 100]),
   midi.NoteOffEvent(tick=384, channel=4, data=[32, 100]),
   midi.NoteOnEvent(tick=0, channel=4, data=[32, 100]),
   midi.NoteOffEvent(tick=192, channel=4, data=[32, 100]),
   midi.NoteOnEvent(tick=0, channel=4, data=[31, 100]),
   midi.NoteOffEvent(tick=576, channel=4, data=[31, 100]),
   midi.NoteOnEvent(tick=0, channel=4, data=[31, 100]),
   midi.NoteOffEvent(tick=192, channel=4, data=[31, 100]),
   midi.NoteOnEvent(tick=0, channel=4, data=[31, 100]),
   midi.NoteOffEvent(tick=192, channel=4, data=[31, 100]),
   midi.NoteOnEvent(tick=0, channel=4, data=[43, 100]),
   midi.NoteOffEvent(tick=384, channel=4, data=[43, 100]),
   midi.NoteOnEvent(tick=0, channel=4, data=[43, 100]),
   midi.NoteOffEvent(tick=384, channel=4, data=[43, 100]),
   midi.NoteOnEvent(tick=0, channel=4, data=[29, 100]),
   midi.NoteOffEvent(tick=192, channel=4, data=[29, 100]),
   midi.NoteOnEvent(tick=0, channel=4, data=[29, 100]),
   midi.NoteOffEvent(tick=384, channel=4, data=[29, 100]),
   midi.NoteOnEvent(tick=0, channel=4, data=[29, 100]),
   midi.NoteOffEvent(tick=192, channel=4, data=[29, 100]),
   midi.NoteOnEvent(tick=0, channel=4, data=[28, 100]),
   midi.NoteOffEvent(tick=384, channel=4, data=[28, 100]),
   midi.NoteOnEvent(tick=0, channel=4, data=[28, 100]),
   midi.NoteOffEvent(tick=192, channel=4, data=[28, 100]),
   midi.NoteOnEvent(tick=0, channel=4, data=[38, 100]),
   midi.NoteOffEvent(tick=576, channel=4, data=[38, 100]),
   midi.NoteOnEvent(tick=0, channel=4, data=[38, 100]),
   midi.NoteOffEvent(tick=192, channel=4, data=[38, 100]),
   midi.NoteOnEvent(tick=0, channel=4, data=[38, 100]),
   midi.NoteOffEvent(tick=192, channel=4, data=[38, 100]),
   midi.NoteOnEvent(tick=0, channel=4, data=[38, 100]),
   midi.NoteOffEvent(tick=384, channel=4, data=[38, 100]),
   midi.NoteOnEvent(tick=0, channel=4, data=[38, 100]),
   midi.NoteOffEvent(tick=384, channel=4, data=[38, 100]),
   midi.NoteOnEvent(tick=0, channel=4, data=[33, 100]),
   midi.NoteOffEvent(tick=192, channel=4, data=[33, 100]),
   midi.NoteOnEvent(tick=0, channel=4, data=[33, 100]),
   midi.NoteOffEvent(tick=384, channel=4, data=[33, 100]),
   midi.NoteOnEvent(tick=0, channel=4, data=[33, 100]),
   midi.NoteOffEvent(tick=192, channel=4, data=[33, 100]),
   midi.NoteOnEvent(tick=0, channel=4, data=[32, 100]),
   midi.NoteOffEvent(tick=384, channel=4, data=[32, 100]),
   midi.NoteOnEvent(tick=0, channel=4, data=[32, 100]),
   midi.NoteOffEvent(tick=192, channel=4, data=[32, 100]),
   midi.NoteOnEvent(tick=0, channel=4, data=[31, 100]),
   midi.NoteOffEvent(tick=576, channel=4, data=[31, 100]),
   midi.NoteOnEvent(tick=0, channel=4, data=[31, 100]),
   midi.NoteOffEvent(tick=192, channel=4, data=[31, 100]),
   midi.NoteOnEvent(tick=0, channel=4, data=[31, 100]),
   midi.NoteOffEvent(tick=192, channel=4, data=[31, 100]),
   midi.NoteOnEvent(tick=0, channel=4, data=[43, 100]),
   midi.NoteOffEvent(tick=384, channel=4, data=[43, 100]),
   midi.NoteOnEvent(tick=0, channel=4, data=[43, 100]),
   midi.NoteOffEvent(tick=384, channel=4, data=[43, 100]),
   midi.NoteOnEvent(tick=0, channel=4, data=[29, 100]),
   midi.NoteOffEvent(tick=192, channel=4, data=[29, 100]),
   midi.NoteOnEvent(tick=0, channel=4, data=[29, 100]),
   midi.NoteOffEvent(tick=384, channel=4, data=[29, 100]),
   midi.NoteOnEvent(tick=0, channel=4, data=[29, 100]),
   midi.NoteOffEvent(tick=192, channel=4, data=[29, 100]),
   midi.NoteOnEvent(tick=0, channel=4, data=[28, 100]),
   midi.NoteOffEvent(tick=384, channel=4, data=[28, 100]),
   midi.NoteOnEvent(tick=0, channel=4, data=[28, 100]),
   midi.NoteOffEvent(tick=192, channel=4, data=[28, 100]),
   midi.NoteOnEvent(tick=0, channel=4, data=[38, 100]),
   midi.NoteOffEvent(tick=576, channel=4, data=[38, 100]),
   midi.NoteOnEvent(tick=0, channel=4, data=[38, 100]),
   midi.NoteOffEvent(tick=192, channel=4, data=[38, 100]),
   midi.NoteOnEvent(tick=0, channel=4, data=[38, 100]),
   midi.NoteOffEvent(tick=192, channel=4, data=[38, 100]),
   midi.NoteOnEvent(tick=0, channel=4, data=[38, 100]),
   midi.NoteOffEvent(tick=384, channel=4, data=[38, 100]),
   midi.NoteOnEvent(tick=0, channel=4, data=[38, 100]),
   midi.NoteOffEvent(tick=384, channel=4, data=[38, 100]),
   midi.NoteOnEvent(tick=0, channel=4, data=[33, 100]),
   midi.NoteOffEvent(tick=192, channel=4, data=[33, 100]),
   midi.NoteOnEvent(tick=0, channel=4, data=[33, 100]),
   midi.NoteOffEvent(tick=384, channel=4, data=[33, 100]),
   midi.NoteOnEvent(tick=0, channel=4, data=[33, 100]),
   midi.NoteOffEvent(tick=192, channel=4, data=[33, 100]),
   midi.NoteOnEvent(tick=0, channel=4, data=[32, 100]),
   midi.NoteOffEvent(tick=384, channel=4, data=[32, 100]),
   midi.NoteOnEvent(tick=0, channel=4, data=[32, 100]),
   midi.NoteOffEvent(tick=192, channel=4, data=[32, 100]),
   midi.NoteOnEvent(tick=0, channel=4, data=[31, 100]),
   midi.NoteOffEvent(tick=576, channel=4, data=[31, 100]),
   midi.NoteOnEvent(tick=0, channel=4, data=[31, 100]),
   midi.NoteOffEvent(tick=192, channel=4, data=[31, 100]),
   midi.NoteOnEvent(tick=0, channel=4, data=[31, 100]),
   midi.NoteOffEvent(tick=192, channel=4, data=[31, 100]),
   midi.NoteOnEvent(tick=0, channel=4, data=[43, 100]),
   midi.NoteOffEvent(tick=384, channel=4, data=[43, 100]),
   midi.NoteOnEvent(tick=0, channel=4, data=[43, 100]),
   midi.NoteOffEvent(tick=384, channel=4, data=[43, 100]),
   midi.NoteOnEvent(tick=0, channel=4, data=[29, 100]),
   midi.NoteOffEvent(tick=192, channel=4, data=[29, 100]),
   midi.NoteOnEvent(tick=0, channel=4, data=[29, 100]),
   midi.NoteOffEvent(tick=384, channel=4, data=[29, 100]),
   midi.NoteOnEvent(tick=0, channel=4, data=[29, 100]),
   midi.NoteOffEvent(tick=192, channel=4, data=[29, 100]),
   midi.NoteOnEvent(tick=0, channel=4, data=[28, 100]),
   midi.NoteOffEvent(tick=384, channel=4, data=[28, 100]),
   midi.NoteOnEvent(tick=0, channel=4, data=[28, 100]),
   midi.NoteOffEvent(tick=192, channel=4, data=[28, 100]),
   midi.NoteOnEvent(tick=0, channel=4, data=[38, 100]),
   midi.NoteOffEvent(tick=576, channel=4, data=[38, 100]),
   midi.NoteOnEvent(tick=0, channel=4, data=[38, 100]),
   midi.NoteOffEvent(tick=192, channel=4, data=[38, 100]),
   midi.NoteOnEvent(tick=0, channel=4, data=[38, 100]),
   midi.NoteOffEvent(tick=192, channel=4, data=[38, 100]),
   midi.NoteOnEvent(tick=0, channel=4, data=[38, 100]),
   midi.NoteOffEvent(tick=384, channel=4, data=[38, 100]),
   midi.NoteOnEvent(tick=0, channel=4, data=[38, 100]),
   midi.NoteOffEvent(tick=384, channel=4, data=[38, 100]),
   midi.NoteOnEvent(tick=0, channel=4, data=[33, 100]),
   midi.NoteOffEvent(tick=192, channel=4, data=[33, 100]),
   midi.NoteOnEvent(tick=0, channel=4, data=[33, 100]),
   midi.NoteOffEvent(tick=384, channel=4, data=[33, 100]),
   midi.NoteOnEvent(tick=0, channel=4, data=[33, 100]),
   midi.NoteOffEvent(tick=192, channel=4, data=[33, 100]),
   midi.NoteOnEvent(tick=0, channel=4, data=[32, 100]),
   midi.NoteOffEvent(tick=384, channel=4, data=[32, 100]),
   midi.NoteOnEvent(tick=0, channel=4, data=[32, 100]),
   midi.NoteOffEvent(tick=192, channel=4, data=[32, 100]),
   midi.NoteOnEvent(tick=0, channel=4, data=[31, 100]),
   midi.NoteOffEvent(tick=576, channel=4, data=[31, 100]),
   midi.NoteOnEvent(tick=0, channel=4, data=[31, 100]),
   midi.NoteOffEvent(tick=192, channel=4, data=[31, 100]),
   midi.NoteOnEvent(tick=0, channel=4, data=[31, 100]),
   midi.NoteOffEvent(tick=192, channel=4, data=[31, 100]),
   midi.NoteOnEvent(tick=0, channel=4, data=[43, 100]),
   midi.NoteOffEvent(tick=384, channel=4, data=[43, 100]),
   midi.NoteOnEvent(tick=0, channel=4, data=[43, 100]),
   midi.NoteOffEvent(tick=384, channel=4, data=[43, 100]),
   midi.NoteOnEvent(tick=0, channel=4, data=[29, 100]),
   midi.NoteOffEvent(tick=192, channel=4, data=[29, 100]),
   midi.NoteOnEvent(tick=0, channel=4, data=[29, 100]),
   midi.NoteOffEvent(tick=384, channel=4, data=[29, 100]),
   midi.NoteOnEvent(tick=0, channel=4, data=[29, 100]),
   midi.NoteOffEvent(tick=192, channel=4, data=[29, 100]),
   midi.NoteOnEvent(tick=0, channel=4, data=[28, 100]),
   midi.NoteOffEvent(tick=384, channel=4, data=[28, 100]),
   midi.NoteOnEvent(tick=0, channel=4, data=[28, 100]),
   midi.NoteOffEvent(tick=192, channel=4, data=[28, 100]),
   midi.NoteOnEvent(tick=0, channel=4, data=[38, 100]),
   midi.NoteOffEvent(tick=3264, channel=4, data=[38, 100]),
   midi.NoteOnEvent(tick=0, channel=4, data=[33, 100]),
   midi.NoteOffEvent(tick=192, channel=4, data=[33, 100]),
   midi.NoteOnEvent(tick=0, channel=4, data=[31, 100]),
   midi.NoteOffEvent(tick=192, channel=4, data=[31, 100]),
   midi.NoteOnEvent(tick=0, channel=4, data=[33, 100]),
   midi.NoteOffEvent(tick=192, channel=4, data=[33, 100]),
   midi.NoteOnEvent(tick=0, channel=4, data=[36, 100]),
   midi.NoteOffEvent(tick=192, channel=4, data=[36, 100]),
   midi.NoteOnEvent(tick=192, channel=4, data=[31, 100]),
   midi.NoteOffEvent(tick=192, channel=4, data=[31, 100]),
   midi.NoteOnEvent(tick=0, channel=4, data=[33, 100]),
   midi.NoteOffEvent(tick=576, channel=4, data=[33, 100]),
   midi.NoteOnEvent(tick=0, channel=4, data=[36, 100]),
   midi.NoteOffEvent(tick=192, channel=4, data=[36, 100]),
   midi.NoteOnEvent(tick=0, channel=4, data=[33, 100]),
   midi.NoteOffEvent(tick=192, channel=4, data=[33, 100]),
   midi.NoteOnEvent(tick=0, channel=4, data=[31, 100]),
   midi.NoteOffEvent(tick=192, channel=4, data=[31, 100]),
   midi.NoteOnEvent(tick=0, channel=4, data=[33, 100]),
   midi.NoteOffEvent(tick=192, channel=4, data=[33, 100]),
   midi.NoteOnEvent(tick=0, channel=4, data=[31, 100]),
   midi.NoteOffEvent(tick=192, channel=4, data=[31, 100]),
   midi.NoteOnEvent(tick=0, channel=4, data=[30, 100]),
   midi.NoteOffEvent(tick=192, channel=4, data=[30, 100]),
   midi.NoteOnEvent(tick=0, channel=4, data=[28, 100]),
   midi.NoteOffEvent(tick=192, channel=4, data=[28, 100]),
   midi.NoteOnEvent(tick=0, channel=4, data=[33, 100]),
   midi.NoteOffEvent(tick=192, channel=4, data=[33, 100]),
   midi.NoteOnEvent(tick=0, channel=4, data=[31, 100]),
   midi.NoteOffEvent(tick=192, channel=4, data=[31, 100]),
   midi.NoteOnEvent(tick=0, channel=4, data=[33, 100]),
   midi.NoteOffEvent(tick=192, channel=4, data=[33, 100]),
   midi.NoteOnEvent(tick=0, channel=4, data=[36, 100]),
   midi.NoteOffEvent(tick=192, channel=4, data=[36, 100]),
   midi.NoteOnEvent(tick=192, channel=4, data=[31, 100]),
   midi.NoteOffEvent(tick=192, channel=4, data=[31, 100]),
   midi.NoteOnEvent(tick=0, channel=4, data=[33, 100]),
   midi.NoteOffEvent(tick=576, channel=4, data=[33, 100]),
   midi.NoteOnEvent(tick=0, channel=4, data=[36, 100]),
   midi.NoteOffEvent(tick=192, channel=4, data=[36, 100]),
   midi.NoteOnEvent(tick=0, channel=4, data=[33, 100]),
   midi.NoteOffEvent(tick=192, channel=4, data=[33, 100]),
   midi.NoteOnEvent(tick=0, channel=4, data=[31, 100]),
   midi.NoteOffEvent(tick=192, channel=4, data=[31, 100]),
   midi.NoteOnEvent(tick=0, channel=4, data=[33, 100]),
   midi.NoteOffEvent(tick=192, channel=4, data=[33, 100]),
   midi.NoteOnEvent(tick=0, channel=4, data=[31, 100]),
   midi.NoteOffEvent(tick=192, channel=4, data=[31, 100]),
   midi.NoteOnEvent(tick=0, channel=4, data=[30, 100]),
   midi.NoteOffEvent(tick=192, channel=4, data=[30, 100]),
   midi.NoteOnEvent(tick=0, channel=4, data=[28, 100]),
   midi.NoteOffEvent(tick=192, channel=4, data=[28, 100]),
   midi.NoteOnEvent(tick=0, channel=4, data=[30, 100]),
   midi.NoteOffEvent(tick=192, channel=4, data=[30, 100]),
   midi.NoteOnEvent(tick=0, channel=4, data=[30, 100]),
   midi.NoteOffEvent(tick=192, channel=4, data=[30, 100]),
   midi.NoteOnEvent(tick=0, channel=4, data=[30, 100]),
   midi.NoteOffEvent(tick=192, channel=4, data=[30, 100]),
   midi.NoteOnEvent(tick=0, channel=4, data=[31, 100]),
   midi.NoteOffEvent(tick=192, channel=4, data=[31, 100]),
   midi.NoteOnEvent(tick=0, channel=4, data=[31, 100]),
   midi.NoteOffEvent(tick=192, channel=4, data=[31, 100]),
   midi.NoteOnEvent(tick=0, channel=4, data=[31, 100]),
   midi.NoteOffEvent(tick=192, channel=4, data=[31, 100]),
   midi.NoteOnEvent(tick=0, channel=4, data=[33, 100]),
   midi.NoteOffEvent(tick=576, channel=4, data=[33, 100]),
   midi.NoteOnEvent(tick=0, channel=4, data=[38, 100]),
   midi.NoteOnEvent(tick=192, channel=4, data=[38, 100]),
   midi.NoteOffEvent(tick=192, channel=4, data=[38, 100]),
   midi.NoteOnEvent(tick=0, channel=4, data=[38, 100]),
   midi.NoteOffEvent(tick=192, channel=4, data=[38, 100]),
   midi.NoteOnEvent(tick=0, channel=4, data=[38, 100]),
   midi.NoteOffEvent(tick=188, channel=4, data=[38, 100]),
   midi.NoteOffEvent(tick=4, channel=4, data=[38, 100]),
   midi.NoteOnEvent(tick=0, channel=4, data=[36, 100]),
   midi.NoteOffEvent(tick=576, channel=4, data=[36, 100]),
   midi.NoteOnEvent(tick=0, channel=4, data=[33, 100]),
   midi.NoteOffEvent(tick=192, channel=4, data=[33, 100]),
   midi.NoteOnEvent(tick=0, channel=4, data=[31, 100]),
   midi.NoteOffEvent(tick=192, channel=4, data=[31, 100]),
   midi.NoteOnEvent(tick=0, channel=4, data=[33, 100]),
   midi.NoteOffEvent(tick=192, channel=4, data=[33, 100]),
   midi.NoteOnEvent(tick=0, channel=4, data=[36, 100]),
   midi.NoteOffEvent(tick=192, channel=4, data=[36, 100]),
   midi.NoteOnEvent(tick=192, channel=4, data=[31, 100]),
   midi.NoteOffEvent(tick=192, channel=4, data=[31, 100]),
   midi.NoteOnEvent(tick=0, channel=4, data=[33, 100]),
   midi.NoteOffEvent(tick=576, channel=4, data=[33, 100]),
   midi.NoteOnEvent(tick=0, channel=4, data=[31, 100]),
   midi.NoteOffEvent(tick=192, channel=4, data=[31, 100]),
   midi.NoteOnEvent(tick=0, channel=4, data=[31, 100]),
   midi.NoteOffEvent(tick=192, channel=4, data=[31, 100]),
   midi.NoteOnEvent(tick=0, channel=4, data=[31, 100]),
   midi.NoteOffEvent(tick=192, channel=4, data=[31, 100]),
   midi.NoteOnEvent(tick=0, channel=4, data=[31, 100]),
   midi.NoteOffEvent(tick=384, channel=4, data=[31, 100]),
   midi.NoteOnEvent(tick=0, channel=4, data=[33, 100]),
   midi.NoteOffEvent(tick=384, channel=4, data=[33, 100]),
   midi.NoteOnEvent(tick=0, channel=4, data=[33, 100]),
   midi.NoteOffEvent(tick=192, channel=4, data=[33, 100]),
   midi.NoteOnEvent(tick=0, channel=4, data=[31, 100]),
   midi.NoteOffEvent(tick=192, channel=4, data=[31, 100]),
   midi.NoteOnEvent(tick=0, channel=4, data=[33, 100]),
   midi.NoteOffEvent(tick=192, channel=4, data=[33, 100]),
   midi.NoteOnEvent(tick=0, channel=4, data=[36, 100]),
   midi.NoteOffEvent(tick=192, channel=4, data=[36, 100]),
   midi.NoteOnEvent(tick=192, channel=4, data=[31, 100]),
   midi.NoteOffEvent(tick=192, channel=4, data=[31, 100]),
   midi.NoteOnEvent(tick=0, channel=4, data=[33, 100]),
   midi.NoteOffEvent(tick=576, channel=4, data=[33, 100]),
   midi.NoteOnEvent(tick=0, channel=4, data=[36, 100]),
   midi.NoteOffEvent(tick=192, channel=4, data=[36, 100]),
   midi.NoteOnEvent(tick=0, channel=4, data=[33, 100]),
   midi.NoteOffEvent(tick=192, channel=4, data=[33, 100]),
   midi.NoteOnEvent(tick=0, channel=4, data=[31, 100]),
   midi.NoteOffEvent(tick=192, channel=4, data=[31, 100]),
   midi.NoteOnEvent(tick=0, channel=4, data=[33, 100]),
   midi.NoteOffEvent(tick=192, channel=4, data=[33, 100]),
   midi.NoteOnEvent(tick=0, channel=4, data=[31, 100]),
   midi.NoteOffEvent(tick=192, channel=4, data=[31, 100]),
   midi.NoteOnEvent(tick=0, channel=4, data=[30, 100]),
   midi.NoteOffEvent(tick=192, channel=4, data=[30, 100]),
   midi.NoteOnEvent(tick=0, channel=4, data=[28, 100]),
   midi.NoteOffEvent(tick=192, channel=4, data=[28, 100]),
   midi.NoteOnEvent(tick=0, channel=4, data=[33, 100]),
   midi.NoteOffEvent(tick=192, channel=4, data=[33, 100]),
   midi.NoteOnEvent(tick=0, channel=4, data=[31, 100]),
   midi.NoteOffEvent(tick=192, channel=4, data=[31, 100]),
   midi.NoteOnEvent(tick=0, channel=4, data=[33, 100]),
   midi.NoteOffEvent(tick=192, channel=4, data=[33, 100]),
   midi.NoteOnEvent(tick=0, channel=4, data=[36, 100]),
   midi.NoteOffEvent(tick=192, channel=4, data=[36, 100]),
   midi.NoteOnEvent(tick=192, channel=4, data=[31, 100]),
   midi.NoteOffEvent(tick=192, channel=4, data=[31, 100]),
   midi.NoteOnEvent(tick=0, channel=4, data=[33, 100]),
   midi.NoteOffEvent(tick=576, channel=4, data=[33, 100]),
   midi.NoteOnEvent(tick=0, channel=4, data=[36, 100]),
   midi.NoteOffEvent(tick=192, channel=4, data=[36, 100]),
   midi.NoteOnEvent(tick=0, channel=4, data=[33, 100]),
   midi.NoteOffEvent(tick=192, channel=4, data=[33, 100]),
   midi.NoteOnEvent(tick=0, channel=4, data=[31, 100]),
   midi.NoteOffEvent(tick=192, channel=4, data=[31, 100]),
   midi.NoteOnEvent(tick=0, channel=4, data=[33, 100]),
   midi.NoteOffEvent(tick=192, channel=4, data=[33, 100]),
   midi.NoteOnEvent(tick=0, channel=4, data=[31, 100]),
   midi.NoteOffEvent(tick=192, channel=4, data=[31, 100]),
   midi.NoteOnEvent(tick=0, channel=4, data=[30, 100]),
   midi.NoteOffEvent(tick=192, channel=4, data=[30, 100]),
   midi.NoteOnEvent(tick=0, channel=4, data=[28, 100]),
   midi.NoteOffEvent(tick=192, channel=4, data=[28, 100]),
   midi.NoteOnEvent(tick=0, channel=4, data=[30, 100]),
   midi.NoteOffEvent(tick=192, channel=4, data=[30, 100]),
   midi.NoteOnEvent(tick=0, channel=4, data=[30, 100]),
   midi.NoteOffEvent(tick=192, channel=4, data=[30, 100]),
   midi.NoteOnEvent(tick=0, channel=4, data=[30, 100]),
   midi.NoteOffEvent(tick=192, channel=4, data=[30, 100]),
   midi.NoteOnEvent(tick=0, channel=4, data=[31, 100]),
   midi.NoteOffEvent(tick=192, channel=4, data=[31, 100]),
   midi.NoteOnEvent(tick=0, channel=4, data=[31, 100]),
   midi.NoteOffEvent(tick=192, channel=4, data=[31, 100]),
   midi.NoteOnEvent(tick=0, channel=4, data=[31, 100]),
   midi.NoteOffEvent(tick=192, channel=4, data=[31, 100]),
   midi.NoteOnEvent(tick=0, channel=4, data=[33, 100]),
   midi.NoteOffEvent(tick=576, channel=4, data=[33, 100]),
   midi.NoteOnEvent(tick=0, channel=4, data=[38, 100]),
   midi.NoteOnEvent(tick=192, channel=4, data=[38, 100]),
   midi.NoteOffEvent(tick=192, channel=4, data=[38, 100]),
   midi.NoteOnEvent(tick=0, channel=4, data=[38, 100]),
   midi.NoteOffEvent(tick=192, channel=4, data=[38, 100]),
   midi.NoteOnEvent(tick=0, channel=4, data=[38, 100]),
   midi.NoteOffEvent(tick=188, channel=4, data=[38, 64]),
   midi.NoteOffEvent(tick=4, channel=4, data=[38, 100]),
   midi.NoteOnEvent(tick=0, channel=4, data=[36, 100]),
   midi.NoteOffEvent(tick=576, channel=4, data=[36, 100]),
   midi.NoteOnEvent(tick=0, channel=4, data=[33, 100]),
   midi.NoteOffEvent(tick=192, channel=4, data=[33, 100]),
   midi.NoteOnEvent(tick=0, channel=4, data=[31, 100]),
   midi.NoteOffEvent(tick=192, channel=4, data=[31, 100]),
   midi.NoteOnEvent(tick=0, channel=4, data=[33, 100]),
   midi.NoteOffEvent(tick=192, channel=4, data=[33, 100]),
   midi.NoteOnEvent(tick=0, channel=4, data=[36, 100]),
   midi.NoteOffEvent(tick=192, channel=4, data=[36, 100]),
   midi.NoteOnEvent(tick=192, channel=4, data=[31, 100]),
   midi.NoteOffEvent(tick=192, channel=4, data=[31, 100]),
   midi.NoteOnEvent(tick=0, channel=4, data=[33, 100]),
   midi.NoteOffEvent(tick=576, channel=4, data=[33, 100]),
   midi.NoteOnEvent(tick=0, channel=4, data=[31, 100]),
   midi.NoteOffEvent(tick=192, channel=4, data=[31, 100]),
   midi.NoteOnEvent(tick=0, channel=4, data=[31, 100]),
   midi.NoteOffEvent(tick=192, channel=4, data=[31, 100]),
   midi.NoteOnEvent(tick=0, channel=4, data=[31, 100]),
   midi.NoteOffEvent(tick=192, channel=4, data=[31, 100]),
   midi.NoteOnEvent(tick=0, channel=4, data=[31, 100]),
   midi.NoteOffEvent(tick=384, channel=4, data=[31, 100]),
   midi.NoteOnEvent(tick=0, channel=4, data=[33, 100]),
   midi.NoteOffEvent(tick=384, channel=4, data=[33, 100]),
   midi.NoteOnEvent(tick=0, channel=4, data=[35, 100]),
   midi.NoteOffEvent(tick=192, channel=4, data=[35, 100]),
   midi.NoteOnEvent(tick=0, channel=4, data=[33, 100]),
   midi.NoteOffEvent(tick=192, channel=4, data=[33, 100]),
   midi.NoteOnEvent(tick=0, channel=4, data=[30, 100]),
   midi.NoteOffEvent(tick=192, channel=4, data=[30, 100]),
   midi.NoteOnEvent(tick=0, channel=4, data=[38, 100]),
   midi.NoteOffEvent(tick=188, channel=4, data=[38, 64]),
   midi.NoteOnEvent(tick=196, channel=4, data=[33, 100]),
   midi.NoteOffEvent(tick=192, channel=4, data=[33, 100]),
   midi.NoteOnEvent(tick=0, channel=4, data=[35, 100]),
   midi.NoteOffEvent(tick=576, channel=4, data=[35, 100]),
   midi.NoteOnEvent(tick=0, channel=4, data=[38, 100]),
   midi.NoteOffEvent(tick=192, channel=4, data=[38, 64]),
   midi.NoteOnEvent(tick=0, channel=4, data=[35, 100]),
   midi.NoteOffEvent(tick=192, channel=4, data=[35, 100]),
   midi.NoteOnEvent(tick=0, channel=4, data=[33, 100]),
   midi.NoteOffEvent(tick=192, channel=4, data=[33, 100]),
   midi.NoteOnEvent(tick=0, channel=4, data=[35, 100]),
   midi.NoteOffEvent(tick=192, channel=4, data=[35, 100]),
   midi.NoteOnEvent(tick=0, channel=4, data=[33, 100]),
   midi.NoteOffEvent(tick=192, channel=4, data=[33, 100]),
   midi.NoteOnEvent(tick=0, channel=4, data=[30, 100]),
   midi.NoteOffEvent(tick=192, channel=4, data=[30, 100]),
   midi.NoteOnEvent(tick=0, channel=4, data=[30, 100]),
   midi.NoteOffEvent(tick=192, channel=4, data=[30, 100]),
   midi.NoteOnEvent(tick=0, channel=4, data=[35, 100]),
   midi.NoteOffEvent(tick=192, channel=4, data=[35, 100]),
   midi.NoteOnEvent(tick=0, channel=4, data=[33, 100]),
   midi.NoteOffEvent(tick=192, channel=4, data=[33, 100]),
   midi.NoteOnEvent(tick=0, channel=4, data=[30, 100]),
   midi.NoteOffEvent(tick=192, channel=4, data=[30, 100]),
   midi.NoteOnEvent(tick=0, channel=4, data=[38, 100]),
   midi.NoteOffEvent(tick=188, channel=4, data=[38, 64]),
   midi.NoteOnEvent(tick=196, channel=4, data=[33, 100]),
   midi.NoteOffEvent(tick=192, channel=4, data=[33, 100]),
   midi.NoteOnEvent(tick=0, channel=4, data=[35, 100]),
   midi.NoteOffEvent(tick=576, channel=4, data=[35, 100]),
   midi.NoteOnEvent(tick=0, channel=4, data=[38, 100]),
   midi.NoteOffEvent(tick=192, channel=4, data=[38, 64]),
   midi.NoteOnEvent(tick=0, channel=4, data=[35, 100]),
   midi.NoteOffEvent(tick=192, channel=4, data=[35, 100]),
   midi.NoteOnEvent(tick=0, channel=4, data=[33, 100]),
   midi.NoteOffEvent(tick=192, channel=4, data=[33, 100]),
   midi.NoteOnEvent(tick=0, channel=4, data=[35, 100]),
   midi.NoteOffEvent(tick=192, channel=4, data=[35, 100]),
   midi.NoteOnEvent(tick=0, channel=4, data=[33, 100]),
   midi.NoteOffEvent(tick=192, channel=4, data=[33, 100]),
   midi.NoteOnEvent(tick=0, channel=4, data=[30, 100]),
   midi.NoteOffEvent(tick=192, channel=4, data=[30, 100]),
   midi.NoteOnEvent(tick=0, channel=4, data=[30, 100]),
   midi.NoteOffEvent(tick=192, channel=4, data=[30, 100]),
   midi.NoteOnEvent(tick=0, channel=4, data=[35, 100]),
   midi.NoteOffEvent(tick=192, channel=4, data=[35, 100]),
   midi.NoteOnEvent(tick=0, channel=4, data=[33, 100]),
   midi.NoteOffEvent(tick=192, channel=4, data=[33, 100]),
   midi.NoteOnEvent(tick=0, channel=4, data=[30, 100]),
   midi.NoteOffEvent(tick=192, channel=4, data=[30, 100]),
   midi.NoteOnEvent(tick=0, channel=4, data=[38, 100]),
   midi.NoteOffEvent(tick=188, channel=4, data=[38, 64]),
   midi.NoteOnEvent(tick=196, channel=4, data=[33, 100]),
   midi.NoteOffEvent(tick=192, channel=4, data=[33, 100]),
   midi.NoteOnEvent(tick=0, channel=4, data=[35, 100]),
   midi.NoteOffEvent(tick=576, channel=4, data=[35, 100]),
   midi.NoteOnEvent(tick=0, channel=4, data=[38, 100]),
   midi.NoteOffEvent(tick=192, channel=4, data=[38, 64]),
   midi.NoteOnEvent(tick=0, channel=4, data=[35, 100]),
   midi.NoteOffEvent(tick=192, channel=4, data=[35, 100]),
   midi.NoteOnEvent(tick=0, channel=4, data=[33, 100]),
   midi.NoteOffEvent(tick=192, channel=4, data=[33, 100]),
   midi.NoteOnEvent(tick=0, channel=4, data=[35, 100]),
   midi.NoteOffEvent(tick=192, channel=4, data=[35, 100]),
   midi.NoteOnEvent(tick=0, channel=4, data=[33, 100]),
   midi.NoteOffEvent(tick=192, channel=4, data=[33, 100]),
   midi.NoteOnEvent(tick=0, channel=4, data=[30, 100]),
   midi.NoteOffEvent(tick=192, channel=4, data=[30, 100]),
   midi.NoteOnEvent(tick=0, channel=4, data=[30, 100]),
   midi.NoteOffEvent(tick=192, channel=4, data=[30, 100]),
   midi.NoteOnEvent(tick=0, channel=4, data=[35, 100]),
   midi.NoteOffEvent(tick=192, channel=4, data=[35, 100]),
   midi.NoteOnEvent(tick=0, channel=4, data=[33, 100]),
   midi.NoteOffEvent(tick=192, channel=4, data=[33, 100]),
   midi.NoteOnEvent(tick=0, channel=4, data=[30, 100]),
   midi.NoteOffEvent(tick=192, channel=4, data=[30, 100]),
   midi.NoteOnEvent(tick=0, channel=4, data=[38, 100]),
   midi.NoteOffEvent(tick=188, channel=4, data=[38, 64]),
   midi.NoteOnEvent(tick=196, channel=4, data=[33, 100]),
   midi.NoteOffEvent(tick=192, channel=4, data=[33, 100]),
   midi.NoteOnEvent(tick=0, channel=4, data=[35, 100]),
   midi.NoteOffEvent(tick=576, channel=4, data=[35, 100]),
   midi.NoteOnEvent(tick=0, channel=4, data=[34, 100]),
   midi.NoteOffEvent(tick=576, channel=4, data=[34, 100]),
   midi.NoteOnEvent(tick=0, channel=4, data=[33, 100]),
   midi.NoteOffEvent(tick=384, channel=4, data=[33, 100]),
   midi.NoteOnEvent(tick=0, channel=4, data=[32, 100]),
   midi.NoteOffEvent(tick=384, channel=4, data=[32, 100]),
   midi.NoteOnEvent(tick=0, channel=4, data=[33, 100]),
   midi.NoteOffEvent(tick=192, channel=4, data=[33, 100]),
   midi.NoteOnEvent(tick=0, channel=4, data=[31, 100]),
   midi.NoteOffEvent(tick=192, channel=4, data=[31, 100]),
   midi.NoteOnEvent(tick=0, channel=4, data=[33, 100]),
   midi.NoteOffEvent(tick=192, channel=4, data=[33, 100]),
   midi.NoteOnEvent(tick=0, channel=4, data=[36, 100]),
   midi.NoteOffEvent(tick=192, channel=4, data=[36, 100]),
   midi.NoteOnEvent(tick=192, channel=4, data=[31, 100]),
   midi.NoteOffEvent(tick=192, channel=4, data=[31, 100]),
   midi.NoteOnEvent(tick=0, channel=4, data=[33, 100]),
   midi.NoteOffEvent(tick=576, channel=4, data=[33, 100]),
   midi.NoteOnEvent(tick=0, channel=4, data=[36, 100]),
   midi.NoteOffEvent(tick=192, channel=4, data=[36, 100]),
   midi.NoteOnEvent(tick=0, channel=4, data=[33, 100]),
   midi.NoteOffEvent(tick=192, channel=4, data=[33, 100]),
   midi.NoteOnEvent(tick=0, channel=4, data=[31, 100]),
   midi.NoteOffEvent(tick=192, channel=4, data=[31, 100]),
   midi.NoteOnEvent(tick=0, channel=4, data=[33, 100]),
   midi.NoteOffEvent(tick=192, channel=4, data=[33, 100]),
   midi.NoteOnEvent(tick=0, channel=4, data=[31, 100]),
   midi.NoteOffEvent(tick=192, channel=4, data=[31, 100]),
   midi.NoteOnEvent(tick=0, channel=4, data=[30, 100]),
   midi.NoteOffEvent(tick=192, channel=4, data=[30, 100]),
   midi.NoteOnEvent(tick=0, channel=4, data=[28, 100]),
   midi.NoteOffEvent(tick=192, channel=4, data=[28, 100]),
   midi.NoteOnEvent(tick=0, channel=4, data=[33, 100]),
   midi.NoteOffEvent(tick=192, channel=4, data=[33, 100]),
   midi.NoteOnEvent(tick=0, channel=4, data=[31, 100]),
   midi.NoteOffEvent(tick=192, channel=4, data=[31, 100]),
   midi.NoteOnEvent(tick=0, channel=4, data=[33, 100]),
   midi.NoteOffEvent(tick=192, channel=4, data=[33, 100]),
   midi.NoteOnEvent(tick=0, channel=4, data=[36, 100]),
   midi.NoteOffEvent(tick=192, channel=4, data=[36, 100]),
   midi.NoteOnEvent(tick=192, channel=4, data=[31, 100]),
   midi.NoteOffEvent(tick=192, channel=4, data=[31, 100]),
   midi.NoteOnEvent(tick=0, channel=4, data=[33, 100]),
   midi.NoteOffEvent(tick=576, channel=4, data=[33, 100]),
   midi.NoteOnEvent(tick=0, channel=4, data=[36, 100]),
   midi.NoteOffEvent(tick=192, channel=4, data=[36, 100]),
   midi.NoteOnEvent(tick=0, channel=4, data=[33, 100]),
   midi.NoteOffEvent(tick=192, channel=4, data=[33, 100]),
   midi.NoteOnEvent(tick=0, channel=4, data=[31, 100]),
   midi.NoteOffEvent(tick=192, channel=4, data=[31, 100]),
   midi.NoteOnEvent(tick=0, channel=4, data=[33, 100]),
   midi.NoteOffEvent(tick=192, channel=4, data=[33, 100]),
   midi.NoteOnEvent(tick=0, channel=4, data=[31, 100]),
   midi.NoteOffEvent(tick=192, channel=4, data=[31, 100]),
   midi.NoteOnEvent(tick=0, channel=4, data=[30, 100]),
   midi.NoteOffEvent(tick=192, channel=4, data=[30, 100]),
   midi.NoteOnEvent(tick=0, channel=4, data=[28, 100]),
   midi.NoteOffEvent(tick=192, channel=4, data=[28, 100]),
   midi.NoteOnEvent(tick=0, channel=4, data=[30, 100]),
   midi.NoteOffEvent(tick=192, channel=4, data=[30, 100]),
   midi.NoteOnEvent(tick=0, channel=4, data=[30, 100]),
   midi.NoteOffEvent(tick=192, channel=4, data=[30, 100]),
   midi.NoteOnEvent(tick=0, channel=4, data=[30, 100]),
   midi.NoteOffEvent(tick=192, channel=4, data=[30, 100]),
   midi.NoteOnEvent(tick=0, channel=4, data=[31, 100]),
   midi.NoteOffEvent(tick=192, channel=4, data=[31, 100]),
   midi.NoteOnEvent(tick=0, channel=4, data=[31, 100]),
   midi.NoteOffEvent(tick=192, channel=4, data=[31, 100]),
   midi.NoteOnEvent(tick=0, channel=4, data=[31, 100]),
   midi.NoteOffEvent(tick=192, channel=4, data=[31, 100]),
   midi.NoteOnEvent(tick=0, channel=4, data=[33, 100]),
   midi.NoteOffEvent(tick=576, channel=4, data=[33, 64]),
   midi.NoteOnEvent(tick=0, channel=4, data=[38, 100]),
   midi.NoteOnEvent(tick=192, channel=4, data=[38, 100]),
   midi.NoteOffEvent(tick=192, channel=4, data=[38, 100]),
   midi.NoteOnEvent(tick=0, channel=4, data=[38, 100]),
   midi.NoteOffEvent(tick=192, channel=4, data=[38, 100]),
   midi.NoteOnEvent(tick=0, channel=4, data=[38, 100]),
   midi.NoteOffEvent(tick=192, channel=4, data=[38, 100]),
   midi.NoteOffEvent(tick=0, channel=4, data=[38, 64]),
   midi.NoteOnEvent(tick=0, channel=4, data=[36, 100]),
   midi.NoteOffEvent(tick=576, channel=4, data=[36, 100]),
   midi.NoteOnEvent(tick=0, channel=4, data=[33, 100]),
   midi.NoteOffEvent(tick=192, channel=4, data=[33, 100]),
   midi.NoteOnEvent(tick=0, channel=4, data=[31, 100]),
   midi.NoteOffEvent(tick=192, channel=4, data=[31, 100]),
   midi.NoteOnEvent(tick=0, channel=4, data=[33, 100]),
   midi.NoteOffEvent(tick=192, channel=4, data=[33, 100]),
   midi.NoteOnEvent(tick=0, channel=4, data=[36, 100]),
   midi.NoteOffEvent(tick=192, channel=4, data=[36, 100]),
   midi.NoteOnEvent(tick=192, channel=4, data=[31, 100]),
   midi.NoteOffEvent(tick=192, channel=4, data=[31, 100]),
   midi.NoteOnEvent(tick=0, channel=4, data=[33, 100]),
   midi.NoteOffEvent(tick=576, channel=4, data=[33, 100]),
   midi.NoteOnEvent(tick=0, channel=4, data=[31, 100]),
   midi.NoteOffEvent(tick=192, channel=4, data=[31, 100]),
   midi.NoteOnEvent(tick=0, channel=4, data=[31, 100]),
   midi.NoteOffEvent(tick=192, channel=4, data=[31, 100]),
   midi.NoteOnEvent(tick=0, channel=4, data=[31, 100]),
   midi.NoteOffEvent(tick=192, channel=4, data=[31, 100]),
   midi.NoteOnEvent(tick=0, channel=4, data=[31, 100]),
   midi.NoteOffEvent(tick=192, channel=4, data=[31, 100]),
   midi.NoteOnEvent(tick=0, channel=4, data=[33, 100]),
   midi.NoteOffEvent(tick=576, channel=4, data=[33, 100]),
   midi.NoteOnEvent(tick=0, channel=4, data=[33, 100]),
   midi.NoteOffEvent(tick=576, channel=4, data=[33, 100]),
   midi.NoteOnEvent(tick=0, channel=4, data=[32, 100]),
   midi.NoteOffEvent(tick=576, channel=4, data=[32, 100]),
   midi.NoteOnEvent(tick=0, channel=4, data=[31, 100]),
   midi.NoteOffEvent(tick=576, channel=4, data=[31, 100]),
   midi.NoteOnEvent(tick=0, channel=4, data=[30, 100]),
   midi.NoteOffEvent(tick=576, channel=4, data=[30, 100]),
   midi.NoteOnEvent(tick=0, channel=4, data=[29, 100]),
   midi.NoteOffEvent(tick=384, channel=4, data=[29, 100]),
   midi.NoteOnEvent(tick=0, channel=4, data=[28, 100]),
   midi.NoteOffEvent(tick=384, channel=4, data=[28, 100]),
   midi.NoteOnEvent(tick=0, channel=4, data=[33, 100]),
   midi.NoteOffEvent(tick=192, channel=4, data=[33, 100]),
   midi.NoteOnEvent(tick=12096, channel=4, data=[33, 100]),
   midi.NoteOffEvent(tick=192, channel=4, data=[33, 100]),
   midi.NoteOnEvent(tick=0, channel=4, data=[33, 100]),
   midi.NoteOffEvent(tick=192, channel=4, data=[33, 100]),
   midi.NoteOnEvent(tick=0, channel=4, data=[33, 100]),
   midi.NoteOffEvent(tick=192, channel=4, data=[33, 100]),
   midi.NoteOnEvent(tick=0, channel=4, data=[36, 100]),
   midi.NoteOffEvent(tick=192, channel=4, data=[36, 100]),
   midi.NoteOnEvent(tick=0, channel=4, data=[36, 100]),
   midi.NoteOffEvent(tick=192, channel=4, data=[36, 100]),
   midi.NoteOnEvent(tick=0, channel=4, data=[33, 100]),
   midi.NoteOffEvent(tick=192, channel=4, data=[33, 100]),
   midi.NoteOnEvent(tick=0, channel=4, data=[38, 100]),
   midi.NoteOnEvent(tick=576, channel=4, data=[38, 100]),
   midi.NoteOffEvent(tick=192, channel=4, data=[38, 100]),
   midi.NoteOnEvent(tick=0, channel=4, data=[38, 100]),
   midi.NoteOffEvent(tick=192, channel=4, data=[38, 100]),
   midi.NoteOnEvent(tick=0, channel=4, data=[38, 100]),
   midi.NoteOffEvent(tick=192, channel=4, data=[38, 100]),
   midi.NoteOnEvent(tick=0, channel=4, data=[38, 100]),
   midi.NoteOffEvent(tick=192, channel=4, data=[38, 100]),
   midi.NoteOnEvent(tick=0, channel=4, data=[38, 100]),
   midi.NoteOffEvent(tick=192, channel=4, data=[38, 100]),
   midi.NoteOnEvent(tick=0, channel=4, data=[38, 100]),
   midi.NoteOffEvent(tick=192, channel=4, data=[38, 100]),
   midi.NoteOnEvent(tick=0, channel=4, data=[38, 100]),
   midi.NoteOffEvent(tick=192, channel=4, data=[38, 100]),
   midi.NoteOffEvent(tick=0, channel=4, data=[38, 64]),
   midi.NoteOnEvent(tick=0, channel=4, data=[33, 100]),
   midi.NoteOffEvent(tick=192, channel=4, data=[33, 100]),
   midi.NoteOnEvent(tick=0, channel=4, data=[33, 100]),
   midi.NoteOffEvent(tick=192, channel=4, data=[33, 100]),
   midi.NoteOnEvent(tick=0, channel=4, data=[33, 100]),
   midi.NoteOffEvent(tick=192, channel=4, data=[33, 100]),
   midi.NoteOnEvent(tick=0, channel=4, data=[36, 100]),
   midi.NoteOffEvent(tick=192, channel=4, data=[36, 100]),
   midi.NoteOnEvent(tick=0, channel=4, data=[36, 100]),
   midi.NoteOffEvent(tick=192, channel=4, data=[36, 100]),
   midi.NoteOnEvent(tick=0, channel=4, data=[31, 100]),
   midi.NoteOffEvent(tick=192, channel=4, data=[31, 100]),
   midi.NoteOnEvent(tick=0, channel=4, data=[33, 100]),
   midi.NoteOffEvent(tick=576, channel=4, data=[33, 100]),
   midi.NoteOnEvent(tick=0, channel=4, data=[33, 100]),
   midi.NoteOffEvent(tick=192, channel=4, data=[33, 100]),
   midi.NoteOnEvent(tick=0, channel=4, data=[33, 100]),
   midi.NoteOffEvent(tick=192, channel=4, data=[33, 100]),
   midi.NoteOnEvent(tick=0, channel=4, data=[33, 100]),
   midi.NoteOffEvent(tick=192, channel=4, data=[33, 100]),
   midi.NoteOnEvent(tick=0, channel=4, data=[33, 100]),
   midi.NoteOffEvent(tick=192, channel=4, data=[33, 100]),
   midi.NoteOnEvent(tick=0, channel=4, data=[33, 100]),
   midi.NoteOffEvent(tick=192, channel=4, data=[33, 100]),
   midi.NoteOnEvent(tick=0, channel=4, data=[33, 100]),
   midi.NoteOffEvent(tick=192, channel=4, data=[33, 100]),
   midi.NoteOnEvent(tick=0, channel=4, data=[33, 100]),
   midi.NoteOffEvent(tick=192, channel=4, data=[33, 100]),
   midi.NoteOnEvent(tick=0, channel=4, data=[33, 100]),
   midi.NoteOffEvent(tick=192, channel=4, data=[33, 100]),
   midi.NoteOnEvent(tick=0, channel=4, data=[33, 100]),
   midi.NoteOffEvent(tick=192, channel=4, data=[33, 100]),
   midi.NoteOnEvent(tick=0, channel=4, data=[33, 100]),
   midi.NoteOffEvent(tick=192, channel=4, data=[33, 100]),
   midi.NoteOnEvent(tick=0, channel=4, data=[36, 100]),
   midi.NoteOffEvent(tick=192, channel=4, data=[36, 100]),
   midi.NoteOnEvent(tick=0, channel=4, data=[36, 100]),
   midi.NoteOffEvent(tick=192, channel=4, data=[36, 100]),
   midi.NoteOnEvent(tick=0, channel=4, data=[33, 100]),
   midi.NoteOffEvent(tick=192, channel=4, data=[33, 100]),
   midi.NoteOnEvent(tick=0, channel=4, data=[38, 100]),
   midi.NoteOnEvent(tick=576, channel=4, data=[38, 100]),
   midi.NoteOffEvent(tick=192, channel=4, data=[38, 100]),
   midi.NoteOnEvent(tick=0, channel=4, data=[38, 100]),
   midi.NoteOffEvent(tick=192, channel=4, data=[38, 100]),
   midi.NoteOnEvent(tick=0, channel=4, data=[38, 100]),
   midi.NoteOffEvent(tick=192, channel=4, data=[38, 100]),
   midi.NoteOnEvent(tick=0, channel=4, data=[38, 100]),
   midi.NoteOffEvent(tick=192, channel=4, data=[38, 100]),
   midi.NoteOnEvent(tick=0, channel=4, data=[38, 100]),
   midi.NoteOffEvent(tick=192, channel=4, data=[38, 100]),
   midi.NoteOnEvent(tick=0, channel=4, data=[38, 100]),
   midi.NoteOffEvent(tick=192, channel=4, data=[38, 100]),
   midi.NoteOnEvent(tick=0, channel=4, data=[38, 100]),
   midi.NoteOffEvent(tick=192, channel=4, data=[38, 100]),
   midi.NoteOffEvent(tick=0, channel=4, data=[38, 64]),
   midi.NoteOnEvent(tick=0, channel=4, data=[33, 100]),
   midi.NoteOffEvent(tick=192, channel=4, data=[33, 100]),
   midi.NoteOnEvent(tick=0, channel=4, data=[33, 100]),
   midi.NoteOffEvent(tick=192, channel=4, data=[33, 100]),
   midi.NoteOnEvent(tick=0, channel=4, data=[33, 100]),
   midi.NoteOffEvent(tick=192, channel=4, data=[33, 100]),
   midi.NoteOnEvent(tick=0, channel=4, data=[36, 100]),
   midi.NoteOffEvent(tick=192, channel=4, data=[36, 100]),
   midi.NoteOnEvent(tick=0, channel=4, data=[36, 100]),
   midi.NoteOffEvent(tick=192, channel=4, data=[36, 100]),
   midi.NoteOnEvent(tick=0, channel=4, data=[31, 100]),
   midi.NoteOffEvent(tick=192, channel=4, data=[31, 100]),
   midi.NoteOnEvent(tick=0, channel=4, data=[33, 100]),
   midi.NoteOffEvent(tick=576, channel=4, data=[33, 100]),
   midi.NoteOnEvent(tick=0, channel=4, data=[33, 100]),
   midi.NoteOffEvent(tick=192, channel=4, data=[33, 100]),
   midi.NoteOnEvent(tick=0, channel=4, data=[33, 100]),
   midi.NoteOffEvent(tick=192, channel=4, data=[33, 100]),
   midi.NoteOnEvent(tick=0, channel=4, data=[33, 100]),
   midi.NoteOffEvent(tick=192, channel=4, data=[33, 100]),
   midi.NoteOnEvent(tick=0, channel=4, data=[33, 100]),
   midi.NoteOffEvent(tick=192, channel=4, data=[33, 100]),
   midi.NoteOnEvent(tick=0, channel=4, data=[33, 100]),
   midi.NoteOffEvent(tick=192, channel=4, data=[33, 100]),
   midi.NoteOnEvent(tick=0, channel=4, data=[33, 100]),
   midi.NoteOffEvent(tick=192, channel=4, data=[33, 100]),
   midi.NoteOnEvent(tick=0, channel=4, data=[33, 100]),
   midi.NoteOffEvent(tick=192, channel=4, data=[33, 100]),
   midi.NoteOnEvent(tick=0, channel=4, data=[33, 100]),
   midi.NoteOffEvent(tick=192, channel=4, data=[33, 100]),
   midi.NoteOnEvent(tick=0, channel=4, data=[33, 100]),
   midi.NoteOffEvent(tick=192, channel=4, data=[33, 100]),
   midi.NoteOnEvent(tick=0, channel=4, data=[33, 100]),
   midi.NoteOffEvent(tick=192, channel=4, data=[33, 100]),
   midi.NoteOnEvent(tick=0, channel=4, data=[36, 100]),
   midi.NoteOffEvent(tick=192, channel=4, data=[36, 100]),
   midi.NoteOnEvent(tick=0, channel=4, data=[36, 100]),
   midi.NoteOffEvent(tick=192, channel=4, data=[36, 100]),
   midi.NoteOnEvent(tick=0, channel=4, data=[33, 100]),
   midi.NoteOffEvent(tick=192, channel=4, data=[33, 100]),
   midi.NoteOnEvent(tick=0, channel=4, data=[38, 100]),
   midi.NoteOnEvent(tick=576, channel=4, data=[38, 100]),
   midi.NoteOffEvent(tick=192, channel=4, data=[38, 100]),
   midi.NoteOnEvent(tick=0, channel=4, data=[38, 100]),
   midi.NoteOffEvent(tick=192, channel=4, data=[38, 100]),
   midi.NoteOnEvent(tick=0, channel=4, data=[38, 100]),
   midi.NoteOffEvent(tick=192, channel=4, data=[38, 100]),
   midi.NoteOnEvent(tick=0, channel=4, data=[38, 100]),
   midi.NoteOffEvent(tick=192, channel=4, data=[38, 100]),
   midi.NoteOnEvent(tick=0, channel=4, data=[38, 100]),
   midi.NoteOffEvent(tick=192, channel=4, data=[38, 100]),
   midi.NoteOnEvent(tick=0, channel=4, data=[38, 100]),
   midi.NoteOffEvent(tick=192, channel=4, data=[38, 100]),
   midi.NoteOnEvent(tick=0, channel=4, data=[38, 100]),
   midi.NoteOffEvent(tick=192, channel=4, data=[38, 100]),
   midi.NoteOffEvent(tick=0, channel=4, data=[38, 64]),
   midi.NoteOnEvent(tick=0, channel=4, data=[33, 100]),
   midi.NoteOffEvent(tick=192, channel=4, data=[33, 100]),
   midi.NoteOnEvent(tick=0, channel=4, data=[33, 100]),
   midi.NoteOffEvent(tick=192, channel=4, data=[33, 100]),
   midi.NoteOnEvent(tick=0, channel=4, data=[33, 100]),
   midi.NoteOffEvent(tick=192, channel=4, data=[33, 100]),
   midi.NoteOnEvent(tick=0, channel=4, data=[36, 100]),
   midi.NoteOffEvent(tick=192, channel=4, data=[36, 100]),
   midi.NoteOnEvent(tick=0, channel=4, data=[36, 100]),
   midi.NoteOffEvent(tick=192, channel=4, data=[36, 100]),
   midi.NoteOnEvent(tick=0, channel=4, data=[31, 100]),
   midi.NoteOffEvent(tick=192, channel=4, data=[31, 100]),
   midi.NoteOnEvent(tick=0, channel=4, data=[33, 100]),
   midi.NoteOffEvent(tick=576, channel=4, data=[33, 100]),
   midi.NoteOnEvent(tick=0, channel=4, data=[33, 100]),
   midi.NoteOffEvent(tick=192, channel=4, data=[33, 100]),
   midi.NoteOnEvent(tick=0, channel=4, data=[33, 100]),
   midi.NoteOffEvent(tick=192, channel=4, data=[33, 100]),
   midi.NoteOnEvent(tick=0, channel=4, data=[33, 100]),
   midi.NoteOffEvent(tick=192, channel=4, data=[33, 100]),
   midi.NoteOnEvent(tick=0, channel=4, data=[33, 100]),
   midi.NoteOffEvent(tick=192, channel=4, data=[33, 100]),
   midi.NoteOnEvent(tick=0, channel=4, data=[33, 100]),
   midi.NoteOffEvent(tick=192, channel=4, data=[33, 100]),
   midi.NoteOnEvent(tick=0, channel=4, data=[33, 100]),
   midi.NoteOffEvent(tick=192, channel=4, data=[33, 100]),
   midi.NoteOnEvent(tick=0, channel=4, data=[33, 100]),
   midi.NoteOffEvent(tick=192, channel=4, data=[33, 100]),
   midi.NoteOnEvent(tick=0, channel=4, data=[33, 100]),
   midi.NoteOffEvent(tick=192, channel=4, data=[33, 100]),
   midi.NoteOnEvent(tick=0, channel=4, data=[33, 100]),
   midi.NoteOffEvent(tick=192, channel=4, data=[33, 100]),
   midi.NoteOnEvent(tick=0, channel=4, data=[33, 100]),
   midi.NoteOffEvent(tick=192, channel=4, data=[33, 100]),
   midi.NoteOnEvent(tick=0, channel=4, data=[36, 100]),
   midi.NoteOffEvent(tick=192, channel=4, data=[36, 100]),
   midi.NoteOnEvent(tick=0, channel=4, data=[36, 100]),
   midi.NoteOffEvent(tick=192, channel=4, data=[36, 100]),
   midi.NoteOnEvent(tick=0, channel=4, data=[33, 100]),
   midi.NoteOffEvent(tick=192, channel=4, data=[33, 100]),
   midi.NoteOnEvent(tick=0, channel=4, data=[38, 100]),
   midi.NoteOnEvent(tick=576, channel=4, data=[38, 100]),
   midi.NoteOffEvent(tick=192, channel=4, data=[38, 100]),
   midi.NoteOnEvent(tick=0, channel=4, data=[38, 100]),
   midi.NoteOffEvent(tick=192, channel=4, data=[38, 100]),
   midi.NoteOnEvent(tick=0, channel=4, data=[38, 100]),
   midi.NoteOffEvent(tick=192, channel=4, data=[38, 100]),
   midi.NoteOnEvent(tick=0, channel=4, data=[38, 100]),
   midi.NoteOffEvent(tick=192, channel=4, data=[38, 100]),
   midi.NoteOnEvent(tick=0, channel=4, data=[38, 100]),
   midi.NoteOffEvent(tick=192, channel=4, data=[38, 100]),
   midi.NoteOnEvent(tick=0, channel=4, data=[38, 100]),
   midi.NoteOffEvent(tick=192, channel=4, data=[38, 100]),
   midi.NoteOnEvent(tick=0, channel=4, data=[38, 100]),
   midi.NoteOffEvent(tick=192, channel=4, data=[38, 100]),
   midi.NoteOffEvent(tick=0, channel=4, data=[38, 64]),
   midi.NoteOnEvent(tick=0, channel=4, data=[33, 100]),
   midi.NoteOffEvent(tick=192, channel=4, data=[33, 100]),
   midi.NoteOnEvent(tick=0, channel=4, data=[33, 100]),
   midi.NoteOffEvent(tick=192, channel=4, data=[33, 100]),
   midi.NoteOnEvent(tick=0, channel=4, data=[33, 100]),
   midi.NoteOffEvent(tick=192, channel=4, data=[33, 100]),
   midi.NoteOnEvent(tick=0, channel=4, data=[36, 100]),
   midi.NoteOffEvent(tick=192, channel=4, data=[36, 100]),
   midi.NoteOnEvent(tick=0, channel=4, data=[36, 100]),
   midi.NoteOffEvent(tick=192, channel=4, data=[36, 100]),
   midi.NoteOnEvent(tick=0, channel=4, data=[31, 100]),
   midi.NoteOffEvent(tick=192, channel=4, data=[31, 100]),
   midi.NoteOnEvent(tick=0, channel=4, data=[33, 100]),
   midi.NoteOffEvent(tick=576, channel=4, data=[33, 100]),
   midi.NoteOnEvent(tick=0, channel=4, data=[45, 100]),
   midi.NoteOffEvent(tick=192, channel=4, data=[45, 100]),
   midi.NoteOnEvent(tick=0, channel=4, data=[45, 100]),
   midi.NoteOffEvent(tick=192, channel=4, data=[45, 100]),
   midi.NoteOnEvent(tick=0, channel=4, data=[43, 100]),
   midi.NoteOffEvent(tick=192, channel=4, data=[43, 100]),
   midi.NoteOnEvent(tick=0, channel=4, data=[40, 100]),
   midi.NoteOffEvent(tick=192, channel=4, data=[40, 100]),
   midi.NoteOnEvent(tick=0, channel=4, data=[39, 100]),
   midi.NoteOffEvent(tick=192, channel=4, data=[39, 100]),
   midi.NoteOnEvent(tick=0, channel=4, data=[38, 100]),
   midi.NoteOffEvent(tick=192, channel=4, data=[38, 64]),
   midi.NoteOnEvent(tick=0, channel=4, data=[36, 100]),
   midi.NoteOffEvent(tick=192, channel=4, data=[36, 100]),
   midi.NoteOnEvent(tick=0, channel=4, data=[33, 100]),
   midi.NoteOffEvent(tick=192, channel=4, data=[33, 100]),
   midi.NoteOnEvent(tick=0, channel=4, data=[33, 100]),
   midi.NoteOffEvent(tick=384, channel=4, data=[33, 100]),
   midi.NoteOnEvent(tick=0, channel=4, data=[33, 100]),
   midi.NoteOffEvent(tick=192, channel=4, data=[33, 100]),
   midi.NoteOnEvent(tick=0, channel=4, data=[32, 100]),
   midi.NoteOffEvent(tick=384, channel=4, data=[32, 100]),
   midi.NoteOnEvent(tick=0, channel=4, data=[32, 100]),
   midi.NoteOffEvent(tick=192, channel=4, data=[32, 100]),
   midi.NoteOnEvent(tick=0, channel=4, data=[31, 100]),
   midi.NoteOffEvent(tick=576, channel=4, data=[31, 100]),
   midi.NoteOnEvent(tick=0, channel=4, data=[31, 100]),
   midi.NoteOffEvent(tick=192, channel=4, data=[31, 100]),
   midi.NoteOnEvent(tick=0, channel=4, data=[31, 100]),
   midi.NoteOffEvent(tick=192, channel=4, data=[31, 100]),
   midi.NoteOnEvent(tick=0, channel=4, data=[43, 100]),
   midi.NoteOffEvent(tick=384, channel=4, data=[43, 100]),
   midi.NoteOnEvent(tick=0, channel=4, data=[43, 100]),
   midi.NoteOffEvent(tick=384, channel=4, data=[43, 100]),
   midi.NoteOnEvent(tick=0, channel=4, data=[29, 100]),
   midi.NoteOffEvent(tick=192, channel=4, data=[29, 100]),
   midi.NoteOnEvent(tick=0, channel=4, data=[29, 100]),
   midi.NoteOffEvent(tick=384, channel=4, data=[29, 100]),
   midi.NoteOnEvent(tick=0, channel=4, data=[29, 100]),
   midi.NoteOffEvent(tick=192, channel=4, data=[29, 100]),
   midi.NoteOnEvent(tick=0, channel=4, data=[28, 100]),
   midi.NoteOffEvent(tick=384, channel=4, data=[28, 100]),
   midi.NoteOnEvent(tick=0, channel=4, data=[28, 100]),
   midi.NoteOffEvent(tick=192, channel=4, data=[28, 100]),
   midi.NoteOnEvent(tick=0, channel=4, data=[38, 100]),
   midi.NoteOnEvent(tick=576, channel=4, data=[38, 100]),
   midi.NoteOffEvent(tick=192, channel=4, data=[38, 100]),
   midi.NoteOnEvent(tick=0, channel=4, data=[38, 100]),
   midi.NoteOffEvent(tick=192, channel=4, data=[38, 100]),
   midi.NoteOnEvent(tick=0, channel=4, data=[38, 100]),
   midi.NoteOffEvent(tick=384, channel=4, data=[38, 100]),
   midi.NoteOnEvent(tick=0, channel=4, data=[38, 100]),
   midi.NoteOffEvent(tick=384, channel=4, data=[38, 100]),
   midi.NoteOffEvent(tick=0, channel=4, data=[38, 64]),
   midi.NoteOnEvent(tick=0, channel=4, data=[33, 100]),
   midi.NoteOffEvent(tick=192, channel=4, data=[33, 100]),
   midi.NoteOnEvent(tick=0, channel=4, data=[33, 100]),
   midi.NoteOffEvent(tick=384, channel=4, data=[33, 100]),
   midi.NoteOnEvent(tick=0, channel=4, data=[33, 100]),
   midi.NoteOffEvent(tick=192, channel=4, data=[33, 100]),
   midi.NoteOnEvent(tick=0, channel=4, data=[32, 100]),
   midi.NoteOffEvent(tick=384, channel=4, data=[32, 100]),
   midi.NoteOnEvent(tick=0, channel=4, data=[32, 100]),
   midi.NoteOffEvent(tick=192, channel=4, data=[32, 100]),
   midi.NoteOnEvent(tick=0, channel=4, data=[31, 100]),
   midi.NoteOffEvent(tick=576, channel=4, data=[31, 100]),
   midi.NoteOnEvent(tick=0, channel=4, data=[31, 100]),
   midi.NoteOffEvent(tick=192, channel=4, data=[31, 100]),
   midi.NoteOnEvent(tick=0, channel=4, data=[31, 100]),
   midi.NoteOffEvent(tick=192, channel=4, data=[31, 100]),
   midi.NoteOnEvent(tick=0, channel=4, data=[43, 100]),
   midi.NoteOffEvent(tick=384, channel=4, data=[43, 100]),
   midi.NoteOnEvent(tick=0, channel=4, data=[43, 100]),
   midi.NoteOffEvent(tick=384, channel=4, data=[43, 100]),
   midi.NoteOnEvent(tick=0, channel=4, data=[29, 100]),
   midi.NoteOffEvent(tick=192, channel=4, data=[29, 100]),
   midi.NoteOnEvent(tick=0, channel=4, data=[29, 100]),
   midi.NoteOffEvent(tick=384, channel=4, data=[29, 100]),
   midi.NoteOnEvent(tick=0, channel=4, data=[29, 100]),
   midi.NoteOffEvent(tick=192, channel=4, data=[29, 100]),
   midi.NoteOnEvent(tick=0, channel=4, data=[28, 100]),
   midi.NoteOffEvent(tick=384, channel=4, data=[28, 100]),
   midi.NoteOnEvent(tick=0, channel=4, data=[28, 100]),
   midi.NoteOffEvent(tick=192, channel=4, data=[28, 100]),
   midi.NoteOnEvent(tick=0, channel=4, data=[38, 100]),
   midi.NoteOnEvent(tick=576, channel=4, data=[38, 100]),
   midi.NoteOffEvent(tick=192, channel=4, data=[38, 100]),
   midi.NoteOnEvent(tick=0, channel=4, data=[38, 100]),
   midi.NoteOffEvent(tick=192, channel=4, data=[38, 100]),
   midi.NoteOnEvent(tick=0, channel=4, data=[38, 100]),
   midi.NoteOffEvent(tick=384, channel=4, data=[38, 100]),
   midi.NoteOnEvent(tick=0, channel=4, data=[38, 100]),
   midi.NoteOffEvent(tick=384, channel=4, data=[38, 100]),
   midi.NoteOffEvent(tick=0, channel=4, data=[38, 64]),
   midi.NoteOnEvent(tick=0, channel=4, data=[33, 100]),
   midi.NoteOffEvent(tick=192, channel=4, data=[33, 100]),
   midi.NoteOnEvent(tick=0, channel=4, data=[33, 100]),
   midi.NoteOffEvent(tick=384, channel=4, data=[33, 100]),
   midi.NoteOnEvent(tick=0, channel=4, data=[33, 100]),
   midi.NoteOffEvent(tick=192, channel=4, data=[33, 100]),
   midi.NoteOnEvent(tick=0, channel=4, data=[32, 100]),
   midi.NoteOffEvent(tick=384, channel=4, data=[32, 100]),
   midi.NoteOnEvent(tick=0, channel=4, data=[32, 100]),
   midi.NoteOffEvent(tick=192, channel=4, data=[32, 100]),
   midi.NoteOnEvent(tick=0, channel=4, data=[31, 100]),
   midi.NoteOffEvent(tick=576, channel=4, data=[31, 100]),
   midi.NoteOnEvent(tick=0, channel=4, data=[31, 100]),
   midi.NoteOffEvent(tick=192, channel=4, data=[31, 100]),
   midi.NoteOnEvent(tick=0, channel=4, data=[31, 100]),
   midi.NoteOffEvent(tick=192, channel=4, data=[31, 100]),
   midi.NoteOnEvent(tick=0, channel=4, data=[43, 100]),
   midi.NoteOffEvent(tick=384, channel=4, data=[43, 100]),
   midi.NoteOnEvent(tick=0, channel=4, data=[43, 100]),
   midi.NoteOffEvent(tick=384, channel=4, data=[43, 100]),
   midi.NoteOnEvent(tick=0, channel=4, data=[29, 100]),
   midi.NoteOffEvent(tick=192, channel=4, data=[29, 100]),
   midi.NoteOnEvent(tick=0, channel=4, data=[29, 100]),
   midi.NoteOffEvent(tick=384, channel=4, data=[29, 100]),
   midi.NoteOnEvent(tick=0, channel=4, data=[29, 100]),
   midi.NoteOffEvent(tick=192, channel=4, data=[29, 100]),
   midi.NoteOnEvent(tick=0, channel=4, data=[28, 100]),
   midi.NoteOffEvent(tick=384, channel=4, data=[28, 100]),
   midi.NoteOnEvent(tick=0, channel=4, data=[28, 100]),
   midi.NoteOffEvent(tick=192, channel=4, data=[28, 100]),
   midi.NoteOnEvent(tick=0, channel=4, data=[38, 100]),
   midi.NoteOnEvent(tick=576, channel=4, data=[38, 100]),
   midi.NoteOffEvent(tick=192, channel=4, data=[38, 100]),
   midi.NoteOnEvent(tick=0, channel=4, data=[38, 100]),
   midi.NoteOffEvent(tick=192, channel=4, data=[38, 100]),
   midi.NoteOnEvent(tick=0, channel=4, data=[38, 100]),
   midi.NoteOffEvent(tick=384, channel=4, data=[38, 100]),
   midi.NoteOnEvent(tick=0, channel=4, data=[38, 100]),
   midi.NoteOffEvent(tick=384, channel=4, data=[38, 100]),
   midi.NoteOffEvent(tick=0, channel=4, data=[38, 64]),
   midi.NoteOnEvent(tick=0, channel=4, data=[33, 100]),
   midi.NoteOffEvent(tick=192, channel=4, data=[33, 100]),
   midi.NoteOnEvent(tick=0, channel=4, data=[33, 100]),
   midi.NoteOffEvent(tick=384, channel=4, data=[33, 100]),
   midi.NoteOnEvent(tick=0, channel=4, data=[33, 100]),
   midi.NoteOffEvent(tick=192, channel=4, data=[33, 100]),
   midi.NoteOnEvent(tick=0, channel=4, data=[32, 100]),
   midi.NoteOffEvent(tick=384, channel=4, data=[32, 100]),
   midi.NoteOnEvent(tick=0, channel=4, data=[32, 100]),
   midi.NoteOffEvent(tick=192, channel=4, data=[32, 100]),
   midi.NoteOnEvent(tick=0, channel=4, data=[31, 100]),
   midi.NoteOffEvent(tick=576, channel=4, data=[31, 100]),
   midi.NoteOnEvent(tick=0, channel=4, data=[31, 100]),
   midi.NoteOffEvent(tick=192, channel=4, data=[31, 100]),
   midi.NoteOnEvent(tick=0, channel=4, data=[31, 100]),
   midi.NoteOffEvent(tick=192, channel=4, data=[31, 100]),
   midi.NoteOnEvent(tick=0, channel=4, data=[43, 100]),
   midi.NoteOffEvent(tick=384, channel=4, data=[43, 100]),
   midi.NoteOnEvent(tick=0, channel=4, data=[43, 100]),
   midi.NoteOffEvent(tick=384, channel=4, data=[43, 100]),
   midi.NoteOnEvent(tick=0, channel=4, data=[29, 100]),
   midi.NoteOffEvent(tick=192, channel=4, data=[29, 100]),
   midi.NoteOnEvent(tick=0, channel=4, data=[29, 100]),
   midi.NoteOffEvent(tick=384, channel=4, data=[29, 100]),
   midi.NoteOnEvent(tick=0, channel=4, data=[29, 100]),
   midi.NoteOffEvent(tick=192, channel=4, data=[29, 100]),
   midi.NoteOnEvent(tick=0, channel=4, data=[28, 100]),
   midi.NoteOffEvent(tick=384, channel=4, data=[28, 100]),
   midi.NoteOnEvent(tick=0, channel=4, data=[28, 100]),
   midi.NoteOffEvent(tick=192, channel=4, data=[28, 100]),
   midi.NoteOnEvent(tick=0, channel=4, data=[38, 100]),
   midi.NoteOffEvent(tick=6332, channel=4, data=[38, 64]),
   midi.NoteOnEvent(tick=4, channel=4, data=[33, 100]),
   midi.NoteOffEvent(tick=192, channel=4, data=[33, 100]),
   midi.NoteOnEvent(tick=0, channel=4, data=[33, 100]),
   midi.NoteOffEvent(tick=192, channel=4, data=[33, 100]),
   midi.NoteOnEvent(tick=0, channel=4, data=[33, 100]),
   midi.NoteOffEvent(tick=192, channel=4, data=[33, 100]),
   midi.NoteOnEvent(tick=0, channel=4, data=[36, 100]),
   midi.NoteOffEvent(tick=192, channel=4, data=[36, 100]),
   midi.NoteOnEvent(tick=0, channel=4, data=[36, 100]),
   midi.NoteOffEvent(tick=192, channel=4, data=[36, 100]),
   midi.NoteOnEvent(tick=0, channel=4, data=[33, 100]),
   midi.NoteOffEvent(tick=192, channel=4, data=[33, 100]),
   midi.NoteOnEvent(tick=0, channel=4, data=[38, 100]),
   midi.NoteOnEvent(tick=576, channel=4, data=[38, 100]),
   midi.NoteOnEvent(tick=192, channel=4, data=[38, 100]),
   midi.NoteOffEvent(tick=192, channel=4, data=[38, 100]),
   midi.NoteOnEvent(tick=0, channel=4, data=[38, 100]),
   midi.NoteOffEvent(tick=192, channel=4, data=[38, 100]),
   midi.NoteOnEvent(tick=0, channel=4, data=[38, 100]),
   midi.NoteOffEvent(tick=192, channel=4, data=[38, 100]),
   midi.NoteOnEvent(tick=0, channel=4, data=[38, 100]),
   midi.NoteOffEvent(tick=192, channel=4, data=[38, 100]),
   midi.NoteOnEvent(tick=0, channel=4, data=[38, 100]),
   midi.NoteOffEvent(tick=192, channel=4, data=[38, 100]),
   midi.NoteOnEvent(tick=0, channel=4, data=[38, 100]),
   midi.NoteOffEvent(tick=64, channel=4, data=[38, 64]),
   midi.NoteOffEvent(tick=128, channel=4, data=[38, 100]),
   midi.NoteOffEvent(tick=0, channel=4, data=[38, 64]),
   midi.NoteOnEvent(tick=0, channel=4, data=[33, 100]),
   midi.NoteOffEvent(tick=192, channel=4, data=[33, 100]),
   midi.NoteOnEvent(tick=0, channel=4, data=[31, 100]),
   midi.NoteOffEvent(tick=192, channel=4, data=[31, 100]),
   midi.NoteOnEvent(tick=0, channel=4, data=[30, 100]),
   midi.NoteOffEvent(tick=192, channel=4, data=[30, 100]),
   midi.NoteOnEvent(tick=0, channel=4, data=[29, 100]),
   midi.NoteOffEvent(tick=384, channel=4, data=[29, 100]),
   midi.NoteOnEvent(tick=0, channel=4, data=[36, 100]),
   midi.NoteOffEvent(tick=192, channel=4, data=[36, 100]),
   midi.NoteOnEvent(tick=0, channel=4, data=[33, 100]),
   midi.NoteOffEvent(tick=384, channel=4, data=[33, 100]),
   midi.EndOfTrackEvent(tick=0, data=[])]),
 midi.Track(\
  [midi.TrackNameEvent(tick=0, text='send your comments', data=[115, 101, 110, 100, 32, 121, 111, 117, 114, 32, 99, 111, 109, 109, 101, 110, 116, 115]),
   midi.ControlChangeEvent(tick=0, channel=9, data=[0, 0]),
   midi.ProgramChangeEvent(tick=0, channel=9, data=[0]),
   midi.ControlChangeEvent(tick=0, channel=9, data=[7, 115]),
   midi.ControlChangeEvent(tick=0, channel=9, data=[91, 124]),
   midi.NoteOnEvent(tick=0, channel=9, data=[38, 100]),
   midi.NoteOffEvent(tick=76, channel=9, data=[38, 100]),
   midi.NoteOnEvent(tick=20, channel=9, data=[48, 100]),
   midi.NoteOffEvent(tick=76, channel=9, data=[48, 100]),
   midi.NoteOnEvent(tick=20, channel=9, data=[48, 100]),
   midi.NoteOffEvent(tick=76, channel=9, data=[48, 100]),
   midi.NoteOnEvent(tick=20, channel=9, data=[36, 100]),
   midi.NoteOffEvent(tick=76, channel=9, data=[36, 100]),
   midi.NoteOnEvent(tick=20, channel=9, data=[36, 100]),
   midi.NoteOffEvent(tick=76, channel=9, data=[36, 100]),
   midi.NoteOnEvent(tick=20, channel=9, data=[36, 100]),
   midi.NoteOffEvent(tick=76, channel=9, data=[36, 100]),
   midi.NoteOnEvent(tick=20, channel=9, data=[47, 100]),
   midi.NoteOffEvent(tick=76, channel=9, data=[47, 100]),
   midi.NoteOnEvent(tick=20, channel=9, data=[47, 100]),
   midi.NoteOffEvent(tick=76, channel=9, data=[47, 100]),
   midi.NoteOnEvent(tick=20, channel=9, data=[47, 100]),
   midi.NoteOffEvent(tick=76, channel=9, data=[47, 100]),
   midi.NoteOnEvent(tick=20, channel=9, data=[36, 100]),
   midi.NoteOffEvent(tick=76, channel=9, data=[36, 100]),
   midi.NoteOnEvent(tick=20, channel=9, data=[36, 100]),
   midi.NoteOffEvent(tick=76, channel=9, data=[36, 100]),
   midi.NoteOnEvent(tick=20, channel=9, data=[36, 100]),
   midi.NoteOffEvent(tick=76, channel=9, data=[36, 100]),
   midi.NoteOnEvent(tick=20, channel=9, data=[45, 100]),
   midi.NoteOffEvent(tick=76, channel=9, data=[45, 100]),
   midi.NoteOnEvent(tick=20, channel=9, data=[45, 100]),
   midi.NoteOffEvent(tick=76, channel=9, data=[45, 100]),
   midi.NoteOnEvent(tick=20, channel=9, data=[45, 100]),
   midi.NoteOffEvent(tick=76, channel=9, data=[45, 100]),
   midi.NoteOnEvent(tick=20, channel=9, data=[36, 100]),
   midi.NoteOffEvent(tick=76, channel=9, data=[36, 100]),
   midi.NoteOnEvent(tick=20, channel=9, data=[36, 100]),
   midi.NoteOffEvent(tick=76, channel=9, data=[36, 100]),
   midi.NoteOnEvent(tick=20, channel=9, data=[36, 100]),
   midi.NoteOffEvent(tick=76, channel=9, data=[36, 100]),
   midi.NoteOnEvent(tick=20, channel=9, data=[43, 100]),
   midi.NoteOffEvent(tick=76, channel=9, data=[43, 100]),
   midi.NoteOnEvent(tick=20, channel=9, data=[43, 100]),
   midi.NoteOffEvent(tick=76, channel=9, data=[43, 100]),
   midi.NoteOnEvent(tick=20, channel=9, data=[43, 100]),
   midi.NoteOffEvent(tick=76, channel=9, data=[43, 100]),
   midi.NoteOnEvent(tick=20, channel=9, data=[36, 100]),
   midi.NoteOffEvent(tick=76, channel=9, data=[36, 100]),
   midi.NoteOnEvent(tick=20, channel=9, data=[36, 100]),
   midi.NoteOffEvent(tick=76, channel=9, data=[36, 100]),
   midi.NoteOnEvent(tick=20, channel=9, data=[36, 100]),
   midi.NoteOnEvent(tick=64, channel=9, data=[38, 100]),
   midi.NoteOffEvent(tick=12, channel=9, data=[36, 100]),
   midi.NoteOffEvent(tick=20, channel=9, data=[38, 100]),
   midi.NoteOnEvent(tick=0, channel=9, data=[38, 100]),
   midi.NoteOffEvent(tick=304, channel=9, data=[38, 100]),
   midi.NoteOnEvent(tick=464, channel=9, data=[49, 100]),
   midi.NoteOnEvent(tick=0, channel=9, data=[36, 100]),
   midi.NoteOffEvent(tick=304, channel=9, data=[36, 100]),
   midi.NoteOffEvent(tick=232, channel=9, data=[49, 100]),
   midi.NoteOnEvent(tick=40, channel=9, data=[49, 100]),
   midi.NoteOnEvent(tick=0, channel=9, data=[36, 100]),
   midi.NoteOffEvent(tick=152, channel=9, data=[36, 100]),
   midi.NoteOffEvent(tick=344, channel=9, data=[49, 100]),
   midi.NoteOnEvent(tick=80, channel=9, data=[49, 100]),
   midi.NoteOnEvent(tick=0, channel=9, data=[36, 100]),
   midi.NoteOffEvent(tick=304, channel=9, data=[36, 100]),
   midi.NoteOffEvent(tick=232, channel=9, data=[49, 100]),
   midi.NoteOnEvent(tick=40, channel=9, data=[49, 100]),
   midi.NoteOnEvent(tick=0, channel=9, data=[36, 100]),
   midi.NoteOffEvent(tick=152, channel=9, data=[36, 100]),
   midi.NoteOffEvent(tick=344, channel=9, data=[49, 100]),
   midi.NoteOnEvent(tick=80, channel=9, data=[36, 100]),
   midi.NoteOnEvent(tick=0, channel=9, data=[49, 100]),
   midi.NoteOffEvent(tick=304, channel=9, data=[36, 100]),
   midi.NoteOffEvent(tick=0, channel=9, data=[49, 100]),
   midi.NoteOnEvent(tick=80, channel=9, data=[49, 100]),
   midi.NoteOnEvent(tick=0, channel=9, data=[36, 100]),
   midi.NoteOffEvent(tick=304, channel=9, data=[49, 100]),
   midi.NoteOffEvent(tick=0, channel=9, data=[36, 100]),
   midi.NoteOnEvent(tick=80, channel=9, data=[36, 100]),
   midi.NoteOnEvent(tick=0, channel=9, data=[49, 100]),
   midi.NoteOffEvent(tick=304, channel=9, data=[36, 100]),
   midi.NoteOffEvent(tick=0, channel=9, data=[49, 100]),
   midi.NoteOnEvent(tick=11408, channel=9, data=[36, 100]),
   midi.NoteOffEvent(tick=152, channel=9, data=[36, 100]),
   midi.NoteOnEvent(tick=8, channel=9, data=[38, 100]),
   midi.NoteOffEvent(tick=32, channel=9, data=[38, 100]),
   midi.NoteOnEvent(tick=0, channel=9, data=[38, 100]),
   midi.NoteOffEvent(tick=304, channel=9, data=[38, 100]),
   midi.NoteOnEvent(tick=80, channel=9, data=[49, 100]),
   midi.NoteOnEvent(tick=0, channel=9, data=[36, 100]),
   midi.NoteOffEvent(tick=304, channel=9, data=[49, 100]),
   midi.NoteOffEvent(tick=0, channel=9, data=[36, 100]),
   midi.NoteOnEvent(tick=80, channel=9, data=[42, 100]),
   midi.NoteOnEvent(tick=0, channel=9, data=[38, 100]),
   midi.NoteOnEvent(tick=192, channel=9, data=[36, 100]),
   midi.NoteOffEvent(tick=112, channel=9, data=[42, 100]),
   midi.NoteOffEvent(tick=0, channel=9, data=[38, 100]),
   midi.NoteOffEvent(tick=40, channel=9, data=[36, 100]),
   midi.NoteOnEvent(tick=40, channel=9, data=[42, 100]),
   midi.NoteOnEvent(tick=192, channel=9, data=[36, 100]),
   midi.NoteOffEvent(tick=112, channel=9, data=[42, 100]),
   midi.NoteOffEvent(tick=40, channel=9, data=[36, 100]),
   midi.NoteOnEvent(tick=40, channel=9, data=[38, 100]),
   midi.NoteOnEvent(tick=0, channel=9, data=[42, 100]),
   midi.NoteOffEvent(tick=304, channel=9, data=[38, 100]),
   midi.NoteOffEvent(tick=0, channel=9, data=[42, 100]),
   midi.NoteOnEvent(tick=80, channel=9, data=[42, 100]),
   midi.NoteOnEvent(tick=192, channel=9, data=[36, 100]),
   midi.NoteOffEvent(tick=112, channel=9, data=[42, 100]),
   midi.NoteOffEvent(tick=40, channel=9, data=[36, 100]),
   midi.NoteOnEvent(tick=40, channel=9, data=[38, 100]),
   midi.NoteOnEvent(tick=0, channel=9, data=[42, 100]),
   midi.NoteOffEvent(tick=304, channel=9, data=[38, 100]),
   midi.NoteOffEvent(tick=0, channel=9, data=[42, 100]),
   midi.NoteOnEvent(tick=80, channel=9, data=[36, 100]),
   midi.NoteOnEvent(tick=0, channel=9, data=[42, 100]),
   midi.NoteOffEvent(tick=152, channel=9, data=[36, 100]),
   midi.NoteOnEvent(tick=40, channel=9, data=[36, 100]),
   midi.NoteOffEvent(tick=112, channel=9, data=[42, 100]),
   midi.NoteOffEvent(tick=40, channel=9, data=[36, 100]),
   midi.NoteOnEvent(tick=40, channel=9, data=[38, 100]),
   midi.NoteOnEvent(tick=0, channel=9, data=[42, 100]),
   midi.NoteOffEvent(tick=304, channel=9, data=[38, 100]),
   midi.NoteOffEvent(tick=0, channel=9, data=[42, 100]),
   midi.NoteOnEvent(tick=80, channel=9, data=[36, 100]),
   midi.NoteOnEvent(tick=0, channel=9, data=[42, 100]),
   midi.NoteOffEvent(tick=152, channel=9, data=[36, 100]),
   midi.NoteOnEvent(tick=40, channel=9, data=[36, 100]),
   midi.NoteOffEvent(tick=112, channel=9, data=[42, 100]),
   midi.NoteOffEvent(tick=40, channel=9, data=[36, 100]),
   midi.NoteOnEvent(tick=40, channel=9, data=[42, 100]),
   midi.NoteOnEvent(tick=0, channel=9, data=[38, 100]),
   midi.NoteOnEvent(tick=192, channel=9, data=[36, 100]),
   midi.NoteOffEvent(tick=112, channel=9, data=[42, 100]),
   midi.NoteOffEvent(tick=0, channel=9, data=[38, 100]),
   midi.NoteOffEvent(tick=40, channel=9, data=[36, 100]),
   midi.NoteOnEvent(tick=40, channel=9, data=[42, 100]),
   midi.NoteOnEvent(tick=192, channel=9, data=[36, 100]),
   midi.NoteOffEvent(tick=112, channel=9, data=[42, 100]),
   midi.NoteOffEvent(tick=40, channel=9, data=[36, 100]),
   midi.NoteOnEvent(tick=40, channel=9, data=[42, 100]),
   midi.NoteOnEvent(tick=0, channel=9, data=[38, 100]),
   midi.NoteOffEvent(tick=304, channel=9, data=[42, 100]),
   midi.NoteOffEvent(tick=0, channel=9, data=[38, 100]),
   midi.NoteOnEvent(tick=80, channel=9, data=[42, 100]),
   midi.NoteOnEvent(tick=192, channel=9, data=[36, 100]),
   midi.NoteOffEvent(tick=112, channel=9, data=[42, 100]),
   midi.NoteOffEvent(tick=40, channel=9, data=[36, 100]),
   midi.NoteOnEvent(tick=40, channel=9, data=[42, 100]),
   midi.NoteOnEvent(tick=0, channel=9, data=[38, 100]),
   midi.NoteOffEvent(tick=304, channel=9, data=[42, 100]),
   midi.NoteOffEvent(tick=0, channel=9, data=[38, 100]),
   midi.NoteOnEvent(tick=80, channel=9, data=[36, 100]),
   midi.NoteOnEvent(tick=0, channel=9, data=[42, 100]),
   midi.NoteOffEvent(tick=152, channel=9, data=[36, 100]),
   midi.NoteOnEvent(tick=40, channel=9, data=[36, 100]),
   midi.NoteOffEvent(tick=112, channel=9, data=[42, 100]),
   midi.NoteOffEvent(tick=40, channel=9, data=[36, 100]),
   midi.NoteOnEvent(tick=40, channel=9, data=[38, 100]),
   midi.NoteOnEvent(tick=0, channel=9, data=[42, 100]),
   midi.NoteOffEvent(tick=304, channel=9, data=[38, 100]),
   midi.NoteOffEvent(tick=0, channel=9, data=[42, 100]),
   midi.NoteOnEvent(tick=80, channel=9, data=[42, 100]),
   midi.NoteOnEvent(tick=0, channel=9, data=[36, 100]),
   midi.NoteOffEvent(tick=152, channel=9, data=[36, 100]),
   midi.NoteOnEvent(tick=40, channel=9, data=[36, 100]),
   midi.NoteOffEvent(tick=112, channel=9, data=[42, 100]),
   midi.NoteOffEvent(tick=40, channel=9, data=[36, 100]),
   midi.NoteOnEvent(tick=40, channel=9, data=[38, 100]),
   midi.NoteOnEvent(tick=0, channel=9, data=[42, 100]),
   midi.NoteOnEvent(tick=192, channel=9, data=[36, 100]),
   midi.NoteOffEvent(tick=112, channel=9, data=[38, 100]),
   midi.NoteOffEvent(tick=0, channel=9, data=[42, 100]),
   midi.NoteOffEvent(tick=40, channel=9, data=[36, 100]),
   midi.NoteOnEvent(tick=40, channel=9, data=[42, 100]),
   midi.NoteOnEvent(tick=192, channel=9, data=[36, 100]),
   midi.NoteOffEvent(tick=112, channel=9, data=[42, 100]),
   midi.NoteOffEvent(tick=40, channel=9, data=[36, 100]),
   midi.NoteOnEvent(tick=40, channel=9, data=[38, 100]),
   midi.NoteOnEvent(tick=0, channel=9, data=[42, 100]),
   midi.NoteOffEvent(tick=304, channel=9, data=[38, 100]),
   midi.NoteOffEvent(tick=0, channel=9, data=[42, 100]),
   midi.NoteOnEvent(tick=80, channel=9, data=[42, 100]),
   midi.NoteOnEvent(tick=192, channel=9, data=[36, 100]),
   midi.NoteOffEvent(tick=112, channel=9, data=[42, 100]),
   midi.NoteOffEvent(tick=40, channel=9, data=[36, 100]),
   midi.NoteOnEvent(tick=40, channel=9, data=[42, 100]),
   midi.NoteOnEvent(tick=0, channel=9, data=[38, 100]),
   midi.NoteOffEvent(tick=304, channel=9, data=[42, 100]),
   midi.NoteOffEvent(tick=0, channel=9, data=[38, 100]),
   midi.NoteOnEvent(tick=80, channel=9, data=[36, 100]),
   midi.NoteOnEvent(tick=0, channel=9, data=[42, 100]),
   midi.NoteOffEvent(tick=152, channel=9, data=[36, 100]),
   midi.NoteOnEvent(tick=40, channel=9, data=[36, 100]),
   midi.NoteOffEvent(tick=112, channel=9, data=[42, 100]),
   midi.NoteOffEvent(tick=40, channel=9, data=[36, 100]),
   midi.NoteOnEvent(tick=40, channel=9, data=[38, 100]),
   midi.NoteOnEvent(tick=0, channel=9, data=[42, 100]),
   midi.NoteOffEvent(tick=304, channel=9, data=[38, 100]),
   midi.NoteOffEvent(tick=0, channel=9, data=[42, 100]),
   midi.NoteOnEvent(tick=80, channel=9, data=[42, 100]),
   midi.NoteOnEvent(tick=0, channel=9, data=[36, 100]),
   midi.NoteOffEvent(tick=152, channel=9, data=[36, 100]),
   midi.NoteOnEvent(tick=40, channel=9, data=[36, 100]),
   midi.NoteOffEvent(tick=112, channel=9, data=[42, 100]),
   midi.NoteOffEvent(tick=40, channel=9, data=[36, 100]),
   midi.NoteOnEvent(tick=40, channel=9, data=[38, 100]),
   midi.NoteOnEvent(tick=0, channel=9, data=[42, 100]),
   midi.NoteOnEvent(tick=192, channel=9, data=[36, 100]),
   midi.NoteOffEvent(tick=112, channel=9, data=[38, 100]),
   midi.NoteOffEvent(tick=0, channel=9, data=[42, 100]),
   midi.NoteOffEvent(tick=40, channel=9, data=[36, 100]),
   midi.NoteOnEvent(tick=40, channel=9, data=[42, 100]),
   midi.NoteOnEvent(tick=192, channel=9, data=[36, 100]),
   midi.NoteOffEvent(tick=112, channel=9, data=[42, 100]),
   midi.NoteOffEvent(tick=40, channel=9, data=[36, 100]),
   midi.NoteOnEvent(tick=40, channel=9, data=[42, 100]),
   midi.NoteOnEvent(tick=0, channel=9, data=[38, 100]),
   midi.NoteOffEvent(tick=304, channel=9, data=[42, 100]),
   midi.NoteOffEvent(tick=0, channel=9, data=[38, 100]),
   midi.NoteOnEvent(tick=80, channel=9, data=[42, 100]),
   midi.NoteOnEvent(tick=192, channel=9, data=[36, 100]),
   midi.NoteOffEvent(tick=112, channel=9, data=[42, 100]),
   midi.NoteOffEvent(tick=40, channel=9, data=[36, 100]),
   midi.NoteOnEvent(tick=40, channel=9, data=[42, 100]),
   midi.NoteOnEvent(tick=0, channel=9, data=[38, 100]),
   midi.NoteOffEvent(tick=304, channel=9, data=[42, 100]),
   midi.NoteOffEvent(tick=0, channel=9, data=[38, 100]),
   midi.NoteOnEvent(tick=80, channel=9, data=[36, 100]),
   midi.NoteOnEvent(tick=0, channel=9, data=[42, 100]),
   midi.NoteOffEvent(tick=152, channel=9, data=[36, 100]),
   midi.NoteOnEvent(tick=40, channel=9, data=[36, 100]),
   midi.NoteOffEvent(tick=112, channel=9, data=[42, 100]),
   midi.NoteOffEvent(tick=40, channel=9, data=[36, 100]),
   midi.NoteOnEvent(tick=40, channel=9, data=[42, 100]),
   midi.NoteOnEvent(tick=0, channel=9, data=[38, 100]),
   midi.NoteOffEvent(tick=304, channel=9, data=[42, 100]),
   midi.NoteOffEvent(tick=0, channel=9, data=[38, 100]),
   midi.NoteOnEvent(tick=80, channel=9, data=[36, 100]),
   midi.NoteOnEvent(tick=0, channel=9, data=[49, 100]),
   midi.NoteOffEvent(tick=304, channel=9, data=[36, 100]),
   midi.NoteOffEvent(tick=0, channel=9, data=[49, 100]),
   midi.NoteOnEvent(tick=80, channel=9, data=[42, 100]),
   midi.NoteOnEvent(tick=0, channel=9, data=[38, 100]),
   midi.NoteOnEvent(tick=192, channel=9, data=[36, 100]),
   midi.NoteOffEvent(tick=112, channel=9, data=[42, 100]),
   midi.NoteOffEvent(tick=0, channel=9, data=[38, 100]),
   midi.NoteOffEvent(tick=40, channel=9, data=[36, 100]),
   midi.NoteOnEvent(tick=40, channel=9, data=[42, 100]),
   midi.NoteOnEvent(tick=192, channel=9, data=[36, 100]),
   midi.NoteOffEvent(tick=112, channel=9, data=[42, 100]),
   midi.NoteOffEvent(tick=40, channel=9, data=[36, 100]),
   midi.NoteOnEvent(tick=40, channel=9, data=[42, 100]),
   midi.NoteOnEvent(tick=0, channel=9, data=[38, 100]),
   midi.NoteOffEvent(tick=304, channel=9, data=[42, 100]),
   midi.NoteOffEvent(tick=0, channel=9, data=[38, 100]),
   midi.NoteOnEvent(tick=80, channel=9, data=[42, 100]),
   midi.NoteOnEvent(tick=192, channel=9, data=[36, 100]),
   midi.NoteOffEvent(tick=112, channel=9, data=[42, 100]),
   midi.NoteOffEvent(tick=40, channel=9, data=[36, 100]),
   midi.NoteOnEvent(tick=40, channel=9, data=[38, 100]),
   midi.NoteOnEvent(tick=0, channel=9, data=[42, 100]),
   midi.NoteOffEvent(tick=304, channel=9, data=[38, 100]),
   midi.NoteOffEvent(tick=0, channel=9, data=[42, 100]),
   midi.NoteOnEvent(tick=80, channel=9, data=[36, 100]),
   midi.NoteOnEvent(tick=0, channel=9, data=[42, 100]),
   midi.NoteOffEvent(tick=152, channel=9, data=[36, 100]),
   midi.NoteOnEvent(tick=40, channel=9, data=[36, 100]),
   midi.NoteOffEvent(tick=112, channel=9, data=[42, 100]),
   midi.NoteOffEvent(tick=40, channel=9, data=[36, 100]),
   midi.NoteOnEvent(tick=40, channel=9, data=[42, 100]),
   midi.NoteOnEvent(tick=0, channel=9, data=[38, 100]),
   midi.NoteOffEvent(tick=304, channel=9, data=[42, 100]),
   midi.NoteOffEvent(tick=0, channel=9, data=[38, 100]),
   midi.NoteOnEvent(tick=80, channel=9, data=[42, 100]),
   midi.NoteOnEvent(tick=0, channel=9, data=[36, 100]),
   midi.NoteOffEvent(tick=152, channel=9, data=[36, 100]),
   midi.NoteOnEvent(tick=40, channel=9, data=[36, 100]),
   midi.NoteOffEvent(tick=112, channel=9, data=[42, 100]),
   midi.NoteOffEvent(tick=40, channel=9, data=[36, 100]),
   midi.NoteOnEvent(tick=40, channel=9, data=[42, 100]),
   midi.NoteOnEvent(tick=0, channel=9, data=[38, 100]),
   midi.NoteOnEvent(tick=192, channel=9, data=[36, 100]),
   midi.NoteOffEvent(tick=112, channel=9, data=[42, 100]),
   midi.NoteOffEvent(tick=0, channel=9, data=[38, 100]),
   midi.NoteOffEvent(tick=40, channel=9, data=[36, 100]),
   midi.NoteOnEvent(tick=40, channel=9, data=[42, 100]),
   midi.NoteOnEvent(tick=192, channel=9, data=[36, 100]),
   midi.NoteOffEvent(tick=112, channel=9, data=[42, 100]),
   midi.NoteOffEvent(tick=40, channel=9, data=[36, 100]),
   midi.NoteOnEvent(tick=40, channel=9, data=[38, 100]),
   midi.NoteOnEvent(tick=0, channel=9, data=[42, 100]),
   midi.NoteOffEvent(tick=304, channel=9, data=[38, 100]),
   midi.NoteOffEvent(tick=0, channel=9, data=[42, 100]),
   midi.NoteOnEvent(tick=80, channel=9, data=[42, 100]),
   midi.NoteOnEvent(tick=192, channel=9, data=[36, 100]),
   midi.NoteOffEvent(tick=112, channel=9, data=[42, 100]),
   midi.NoteOffEvent(tick=40, channel=9, data=[36, 100]),
   midi.NoteOnEvent(tick=40, channel=9, data=[38, 100]),
   midi.NoteOnEvent(tick=0, channel=9, data=[42, 100]),
   midi.NoteOffEvent(tick=304, channel=9, data=[38, 100]),
   midi.NoteOffEvent(tick=0, channel=9, data=[42, 100]),
   midi.NoteOnEvent(tick=80, channel=9, data=[42, 100]),
   midi.NoteOnEvent(tick=0, channel=9, data=[36, 100]),
   midi.NoteOffEvent(tick=152, channel=9, data=[36, 100]),
   midi.NoteOnEvent(tick=40, channel=9, data=[36, 100]),
   midi.NoteOffEvent(tick=112, channel=9, data=[42, 100]),
   midi.NoteOffEvent(tick=40, channel=9, data=[36, 100]),
   midi.NoteOnEvent(tick=40, channel=9, data=[38, 100]),
   midi.NoteOnEvent(tick=0, channel=9, data=[42, 100]),
   midi.NoteOffEvent(tick=304, channel=9, data=[38, 100]),
   midi.NoteOffEvent(tick=0, channel=9, data=[42, 100]),
   midi.NoteOnEvent(tick=80, channel=9, data=[42, 100]),
   midi.NoteOnEvent(tick=0, channel=9, data=[36, 100]),
   midi.NoteOffEvent(tick=152, channel=9, data=[36, 100]),
   midi.NoteOnEvent(tick=40, channel=9, data=[36, 100]),
   midi.NoteOffEvent(tick=112, channel=9, data=[42, 100]),
   midi.NoteOffEvent(tick=40, channel=9, data=[36, 100]),
   midi.NoteOnEvent(tick=40, channel=9, data=[42, 100]),
   midi.NoteOnEvent(tick=0, channel=9, data=[38, 100]),
   midi.NoteOnEvent(tick=192, channel=9, data=[36, 100]),
   midi.NoteOffEvent(tick=112, channel=9, data=[42, 100]),
   midi.NoteOffEvent(tick=0, channel=9, data=[38, 100]),
   midi.NoteOffEvent(tick=40, channel=9, data=[36, 100]),
   midi.NoteOnEvent(tick=40, channel=9, data=[42, 100]),
   midi.NoteOnEvent(tick=192, channel=9, data=[36, 100]),
   midi.NoteOffEvent(tick=112, channel=9, data=[42, 100]),
   midi.NoteOffEvent(tick=40, channel=9, data=[36, 100]),
   midi.NoteOnEvent(tick=40, channel=9, data=[38, 100]),
   midi.NoteOnEvent(tick=0, channel=9, data=[42, 100]),
   midi.NoteOffEvent(tick=304, channel=9, data=[38, 100]),
   midi.NoteOffEvent(tick=0, channel=9, data=[42, 100]),
   midi.NoteOnEvent(tick=80, channel=9, data=[42, 100]),
   midi.NoteOnEvent(tick=192, channel=9, data=[36, 100]),
   midi.NoteOffEvent(tick=112, channel=9, data=[42, 100]),
   midi.NoteOffEvent(tick=40, channel=9, data=[36, 100]),
   midi.NoteOnEvent(tick=40, channel=9, data=[38, 100]),
   midi.NoteOnEvent(tick=0, channel=9, data=[42, 100]),
   midi.NoteOffEvent(tick=304, channel=9, data=[38, 100]),
   midi.NoteOffEvent(tick=0, channel=9, data=[42, 100]),
   midi.NoteOnEvent(tick=80, channel=9, data=[36, 100]),
   midi.NoteOnEvent(tick=0, channel=9, data=[42, 100]),
   midi.NoteOffEvent(tick=152, channel=9, data=[36, 100]),
   midi.NoteOnEvent(tick=40, channel=9, data=[36, 100]),
   midi.NoteOffEvent(tick=112, channel=9, data=[42, 100]),
   midi.NoteOffEvent(tick=40, channel=9, data=[36, 100]),
   midi.NoteOnEvent(tick=40, channel=9, data=[38, 100]),
   midi.NoteOnEvent(tick=0, channel=9, data=[42, 100]),
   midi.NoteOnEvent(tick=192, channel=9, data=[36, 100]),
   midi.NoteOffEvent(tick=112, channel=9, data=[38, 100]),
   midi.NoteOffEvent(tick=0, channel=9, data=[42, 100]),
   midi.NoteOffEvent(tick=40, channel=9, data=[36, 100]),
   midi.NoteOnEvent(tick=40, channel=9, data=[38, 100]),
   midi.NoteOnEvent(tick=0, channel=9, data=[49, 100]),
   midi.NoteOnEvent(tick=192, channel=9, data=[36, 100]),
   midi.NoteOffEvent(tick=112, channel=9, data=[38, 100]),
   midi.NoteOffEvent(tick=40, channel=9, data=[36, 100]),
   midi.NoteOnEvent(tick=40, channel=9, data=[36, 100]),
   midi.NoteOffEvent(tick=152, channel=9, data=[49, 100]),
   midi.NoteOnEvent(tick=40, channel=9, data=[49, 100]),
   midi.NoteOnEvent(tick=0, channel=9, data=[38, 100]),
   midi.NoteOffEvent(tick=112, channel=9, data=[36, 100]),
   midi.NoteOffEvent(tick=40, channel=9, data=[38, 100]),
   midi.NoteOnEvent(tick=40, channel=9, data=[36, 100]),
   midi.NoteOffEvent(tick=152, channel=9, data=[36, 100]),
   midi.NoteOnEvent(tick=40, channel=9, data=[36, 100]),
   midi.NoteOffEvent(tick=112, channel=9, data=[49, 100]),
   midi.NoteOffEvent(tick=40, channel=9, data=[36, 100]),
   midi.NoteOnEvent(tick=40, channel=9, data=[38, 100]),
   midi.NoteOnEvent(tick=0, channel=9, data=[49, 100]),
   midi.NoteOffEvent(tick=304, channel=9, data=[38, 100]),
   midi.NoteOffEvent(tick=232, channel=9, data=[49, 64]),
   midi.NoteOnEvent(tick=40, channel=9, data=[38, 100]),
   midi.NoteOffEvent(tick=152, channel=9, data=[38, 100]),
   midi.NoteOnEvent(tick=40, channel=9, data=[38, 100]),
   midi.NoteOffEvent(tick=152, channel=9, data=[38, 100]),
   midi.NoteOnEvent(tick=40, channel=9, data=[47, 100]),
   midi.NoteOffEvent(tick=152, channel=9, data=[47, 100]),
   midi.NoteOnEvent(tick=40, channel=9, data=[47, 100]),
   midi.NoteOffEvent(tick=152, channel=9, data=[47, 100]),
   midi.NoteOnEvent(tick=40, channel=9, data=[45, 100]),
   midi.NoteOffEvent(tick=152, channel=9, data=[45, 100]),
   midi.NoteOnEvent(tick=40, channel=9, data=[45, 100]),
   midi.NoteOffEvent(tick=152, channel=9, data=[45, 100]),
   midi.NoteOnEvent(tick=40, channel=9, data=[43, 100]),
   midi.NoteOffEvent(tick=152, channel=9, data=[43, 100]),
   midi.NoteOnEvent(tick=40, channel=9, data=[36, 100]),
   midi.NoteOnEvent(tick=0, channel=9, data=[49, 100]),
   midi.NoteOffEvent(tick=152, channel=9, data=[36, 100]),
   midi.NoteOffEvent(tick=0, channel=9, data=[49, 100]),
   midi.NoteOnEvent(tick=40, channel=9, data=[49, 100]),
   midi.NoteOnEvent(tick=0, channel=9, data=[36, 100]),
   midi.NoteOffEvent(tick=152, channel=9, data=[49, 100]),
   midi.NoteOffEvent(tick=0, channel=9, data=[36, 100]),
   midi.NoteOnEvent(tick=40, channel=9, data=[53, 100]),
   midi.NoteOnEvent(tick=192, channel=9, data=[36, 100]),
   midi.NoteOffEvent(tick=112, channel=9, data=[53, 100]),
   midi.NoteOffEvent(tick=40, channel=9, data=[36, 100]),
   midi.NoteOnEvent(tick=40, channel=9, data=[38, 100]),
   midi.NoteOnEvent(tick=0, channel=9, data=[53, 100]),
   midi.NoteOffEvent(tick=304, channel=9, data=[38, 100]),
   midi.NoteOffEvent(tick=0, channel=9, data=[53, 100]),
   midi.NoteOnEvent(tick=80, channel=9, data=[53, 100]),
   midi.NoteOnEvent(tick=192, channel=9, data=[36, 100]),
   midi.NoteOffEvent(tick=112, channel=9, data=[53, 100]),
   midi.NoteOffEvent(tick=40, channel=9, data=[36, 100]),
   midi.NoteOnEvent(tick=40, channel=9, data=[53, 100]),
   midi.NoteOffEvent(tick=304, channel=9, data=[53, 100]),
   midi.NoteOnEvent(tick=80, channel=9, data=[36, 100]),
   midi.NoteOnEvent(tick=0, channel=9, data=[53, 100]),
   midi.NoteOffEvent(tick=152, channel=9, data=[36, 100]),
   midi.NoteOnEvent(tick=40, channel=9, data=[36, 100]),
   midi.NoteOffEvent(tick=112, channel=9, data=[53, 100]),
   midi.NoteOffEvent(tick=40, channel=9, data=[36, 100]),
   midi.NoteOnEvent(tick=40, channel=9, data=[38, 100]),
   midi.NoteOnEvent(tick=0, channel=9, data=[49, 100]),
   midi.NoteOffEvent(tick=304, channel=9, data=[38, 100]),
   midi.NoteOffEvent(tick=0, channel=9, data=[49, 100]),
   midi.NoteOnEvent(tick=80, channel=9, data=[38, 100]),
   midi.NoteOnEvent(tick=0, channel=9, data=[49, 100]),
   midi.NoteOffEvent(tick=304, channel=9, data=[38, 100]),
   midi.NoteOffEvent(tick=0, channel=9, data=[49, 100]),
   midi.NoteOnEvent(tick=80, channel=9, data=[36, 100]),
   midi.NoteOnEvent(tick=0, channel=9, data=[53, 100]),
   midi.NoteOffEvent(tick=152, channel=9, data=[36, 100]),
   midi.NoteOnEvent(tick=40, channel=9, data=[36, 100]),
   midi.NoteOffEvent(tick=112, channel=9, data=[53, 100]),
   midi.NoteOffEvent(tick=40, channel=9, data=[36, 100]),
   midi.NoteOnEvent(tick=40, channel=9, data=[53, 100]),
   midi.NoteOnEvent(tick=192, channel=9, data=[36, 100]),
   midi.NoteOffEvent(tick=112, channel=9, data=[53, 100]),
   midi.NoteOffEvent(tick=40, channel=9, data=[36, 100]),
   midi.NoteOnEvent(tick=40, channel=9, data=[53, 100]),
   midi.NoteOnEvent(tick=0, channel=9, data=[38, 100]),
   midi.NoteOffEvent(tick=304, channel=9, data=[53, 100]),
   midi.NoteOffEvent(tick=0, channel=9, data=[38, 100]),
   midi.NoteOnEvent(tick=80, channel=9, data=[53, 100]),
   midi.NoteOnEvent(tick=192, channel=9, data=[36, 100]),
   midi.NoteOffEvent(tick=112, channel=9, data=[53, 100]),
   midi.NoteOffEvent(tick=40, channel=9, data=[36, 100]),
   midi.NoteOnEvent(tick=40, channel=9, data=[53, 100]),
   midi.NoteOffEvent(tick=304, channel=9, data=[53, 100]),
   midi.NoteOnEvent(tick=80, channel=9, data=[36, 100]),
   midi.NoteOnEvent(tick=0, channel=9, data=[53, 100]),
   midi.NoteOffEvent(tick=152, channel=9, data=[36, 100]),
   midi.NoteOnEvent(tick=40, channel=9, data=[36, 100]),
   midi.NoteOffEvent(tick=112, channel=9, data=[53, 100]),
   midi.NoteOffEvent(tick=40, channel=9, data=[36, 100]),
   midi.NoteOnEvent(tick=40, channel=9, data=[38, 100]),
   midi.NoteOnEvent(tick=0, channel=9, data=[49, 100]),
   midi.NoteOffEvent(tick=304, channel=9, data=[38, 100]),
   midi.NoteOffEvent(tick=0, channel=9, data=[49, 100]),
   midi.NoteOnEvent(tick=80, channel=9, data=[49, 100]),
   midi.NoteOnEvent(tick=0, channel=9, data=[38, 100]),
   midi.NoteOffEvent(tick=304, channel=9, data=[49, 100]),
   midi.NoteOffEvent(tick=0, channel=9, data=[38, 100]),
   midi.NoteOnEvent(tick=80, channel=9, data=[36, 100]),
   midi.NoteOnEvent(tick=0, channel=9, data=[53, 100]),
   midi.NoteOffEvent(tick=152, channel=9, data=[36, 100]),
   midi.NoteOnEvent(tick=40, channel=9, data=[36, 100]),
   midi.NoteOffEvent(tick=112, channel=9, data=[53, 100]),
   midi.NoteOffEvent(tick=40, channel=9, data=[36, 100]),
   midi.NoteOnEvent(tick=40, channel=9, data=[53, 100]),
   midi.NoteOnEvent(tick=192, channel=9, data=[36, 100]),
   midi.NoteOffEvent(tick=112, channel=9, data=[53, 100]),
   midi.NoteOffEvent(tick=40, channel=9, data=[36, 100]),
   midi.NoteOnEvent(tick=40, channel=9, data=[53, 100]),
   midi.NoteOnEvent(tick=0, channel=9, data=[38, 100]),
   midi.NoteOffEvent(tick=304, channel=9, data=[53, 100]),
   midi.NoteOffEvent(tick=0, channel=9, data=[38, 100]),
   midi.NoteOnEvent(tick=80, channel=9, data=[53, 100]),
   midi.NoteOnEvent(tick=192, channel=9, data=[36, 100]),
   midi.NoteOffEvent(tick=112, channel=9, data=[53, 100]),
   midi.NoteOffEvent(tick=40, channel=9, data=[36, 100]),
   midi.NoteOnEvent(tick=40, channel=9, data=[53, 100]),
   midi.NoteOffEvent(tick=304, channel=9, data=[53, 100]),
   midi.NoteOnEvent(tick=80, channel=9, data=[53, 100]),
   midi.NoteOnEvent(tick=0, channel=9, data=[36, 100]),
   midi.NoteOffEvent(tick=152, channel=9, data=[36, 100]),
   midi.NoteOnEvent(tick=40, channel=9, data=[36, 100]),
   midi.NoteOffEvent(tick=112, channel=9, data=[53, 100]),
   midi.NoteOffEvent(tick=40, channel=9, data=[36, 100]),
   midi.NoteOnEvent(tick=40, channel=9, data=[49, 100]),
   midi.NoteOnEvent(tick=0, channel=9, data=[38, 100]),
   midi.NoteOffEvent(tick=304, channel=9, data=[49, 100]),
   midi.NoteOffEvent(tick=0, channel=9, data=[38, 100]),
   midi.NoteOnEvent(tick=80, channel=9, data=[49, 100]),
   midi.NoteOnEvent(tick=0, channel=9, data=[38, 100]),
   midi.NoteOffEvent(tick=304, channel=9, data=[49, 100]),
   midi.NoteOffEvent(tick=0, channel=9, data=[38, 100]),
   midi.NoteOnEvent(tick=80, channel=9, data=[36, 100]),
   midi.NoteOnEvent(tick=0, channel=9, data=[53, 100]),
   midi.NoteOffEvent(tick=152, channel=9, data=[36, 100]),
   midi.NoteOnEvent(tick=40, channel=9, data=[36, 100]),
   midi.NoteOffEvent(tick=112, channel=9, data=[53, 100]),
   midi.NoteOffEvent(tick=40, channel=9, data=[36, 100]),
   midi.NoteOnEvent(tick=40, channel=9, data=[53, 100]),
   midi.NoteOnEvent(tick=192, channel=9, data=[36, 100]),
   midi.NoteOffEvent(tick=112, channel=9, data=[53, 100]),
   midi.NoteOffEvent(tick=40, channel=9, data=[36, 100]),
   midi.NoteOnEvent(tick=40, channel=9, data=[38, 100]),
   midi.NoteOnEvent(tick=0, channel=9, data=[53, 100]),
   midi.NoteOffEvent(tick=304, channel=9, data=[38, 100]),
   midi.NoteOffEvent(tick=0, channel=9, data=[53, 100]),
   midi.NoteOnEvent(tick=80, channel=9, data=[53, 100]),
   midi.NoteOnEvent(tick=192, channel=9, data=[36, 100]),
   midi.NoteOffEvent(tick=112, channel=9, data=[53, 100]),
   midi.NoteOffEvent(tick=40, channel=9, data=[36, 100]),
   midi.NoteOnEvent(tick=40, channel=9, data=[53, 100]),
   midi.NoteOffEvent(tick=152, channel=9, data=[53, 100]),
   midi.NoteOnEvent(tick=40, channel=9, data=[38, 100]),
   midi.NoteOffEvent(tick=152, channel=9, data=[38, 100]),
   midi.NoteOnEvent(tick=40, channel=9, data=[38, 100]),
   midi.NoteOffEvent(tick=152, channel=9, data=[38, 100]),
   midi.NoteOnEvent(tick=40, channel=9, data=[47, 100]),
   midi.NoteOffEvent(tick=152, channel=9, data=[47, 100]),
   midi.NoteOnEvent(tick=40, channel=9, data=[47, 100]),
   midi.NoteOffEvent(tick=152, channel=9, data=[47, 100]),
   midi.NoteOnEvent(tick=40, channel=9, data=[45, 100]),
   midi.NoteOffEvent(tick=152, channel=9, data=[45, 100]),
   midi.NoteOnEvent(tick=40, channel=9, data=[45, 100]),
   midi.NoteOffEvent(tick=152, channel=9, data=[45, 100]),
   midi.NoteOnEvent(tick=40, channel=9, data=[43, 100]),
   midi.NoteOffEvent(tick=152, channel=9, data=[43, 100]),
   midi.NoteOnEvent(tick=40, channel=9, data=[36, 100]),
   midi.NoteOnEvent(tick=0, channel=9, data=[49, 100]),
   midi.NoteOffEvent(tick=152, channel=9, data=[36, 100]),
   midi.NoteOffEvent(tick=0, channel=9, data=[49, 100]),
   midi.NoteOnEvent(tick=40, channel=9, data=[36, 100]),
   midi.NoteOnEvent(tick=0, channel=9, data=[49, 100]),
   midi.NoteOffEvent(tick=152, channel=9, data=[36, 100]),
   midi.NoteOffEvent(tick=0, channel=9, data=[49, 100]),
   midi.NoteOnEvent(tick=40, channel=9, data=[53, 100]),
   midi.NoteOnEvent(tick=192, channel=9, data=[36, 100]),
   midi.NoteOffEvent(tick=112, channel=9, data=[53, 100]),
   midi.NoteOffEvent(tick=40, channel=9, data=[36, 100]),
   midi.NoteOnEvent(tick=40, channel=9, data=[53, 100]),
   midi.NoteOnEvent(tick=0, channel=9, data=[38, 100]),
   midi.NoteOffEvent(tick=304, channel=9, data=[53, 100]),
   midi.NoteOffEvent(tick=0, channel=9, data=[38, 100]),
   midi.NoteOnEvent(tick=80, channel=9, data=[53, 100]),
   midi.NoteOnEvent(tick=192, channel=9, data=[36, 100]),
   midi.NoteOffEvent(tick=112, channel=9, data=[53, 100]),
   midi.NoteOffEvent(tick=40, channel=9, data=[36, 100]),
   midi.NoteOnEvent(tick=40, channel=9, data=[53, 100]),
   midi.NoteOffEvent(tick=304, channel=9, data=[53, 100]),
   midi.NoteOnEvent(tick=80, channel=9, data=[36, 100]),
   midi.NoteOnEvent(tick=0, channel=9, data=[53, 100]),
   midi.NoteOffEvent(tick=152, channel=9, data=[36, 100]),
   midi.NoteOnEvent(tick=40, channel=9, data=[36, 100]),
   midi.NoteOffEvent(tick=112, channel=9, data=[53, 100]),
   midi.NoteOffEvent(tick=40, channel=9, data=[36, 100]),
   midi.NoteOnEvent(tick=40, channel=9, data=[38, 100]),
   midi.NoteOnEvent(tick=0, channel=9, data=[49, 100]),
   midi.NoteOffEvent(tick=304, channel=9, data=[38, 100]),
   midi.NoteOffEvent(tick=0, channel=9, data=[49, 100]),
   midi.NoteOnEvent(tick=80, channel=9, data=[49, 100]),
   midi.NoteOnEvent(tick=0, channel=9, data=[38, 100]),
   midi.NoteOffEvent(tick=304, channel=9, data=[49, 100]),
   midi.NoteOffEvent(tick=0, channel=9, data=[38, 100]),
   midi.NoteOnEvent(tick=80, channel=9, data=[36, 100]),
   midi.NoteOnEvent(tick=0, channel=9, data=[53, 100]),
   midi.NoteOffEvent(tick=152, channel=9, data=[36, 100]),
   midi.NoteOnEvent(tick=40, channel=9, data=[36, 100]),
   midi.NoteOffEvent(tick=112, channel=9, data=[53, 100]),
   midi.NoteOffEvent(tick=40, channel=9, data=[36, 100]),
   midi.NoteOnEvent(tick=40, channel=9, data=[53, 100]),
   midi.NoteOnEvent(tick=192, channel=9, data=[36, 100]),
   midi.NoteOffEvent(tick=112, channel=9, data=[53, 100]),
   midi.NoteOffEvent(tick=40, channel=9, data=[36, 100]),
   midi.NoteOnEvent(tick=40, channel=9, data=[38, 100]),
   midi.NoteOnEvent(tick=0, channel=9, data=[53, 100]),
   midi.NoteOffEvent(tick=304, channel=9, data=[38, 100]),
   midi.NoteOffEvent(tick=0, channel=9, data=[53, 100]),
   midi.NoteOnEvent(tick=80, channel=9, data=[53, 100]),
   midi.NoteOnEvent(tick=192, channel=9, data=[36, 100]),
   midi.NoteOffEvent(tick=112, channel=9, data=[53, 100]),
   midi.NoteOffEvent(tick=40, channel=9, data=[36, 100]),
   midi.NoteOnEvent(tick=40, channel=9, data=[53, 100]),
   midi.NoteOffEvent(tick=304, channel=9, data=[53, 100]),
   midi.NoteOnEvent(tick=80, channel=9, data=[36, 100]),
   midi.NoteOnEvent(tick=0, channel=9, data=[53, 100]),
   midi.NoteOffEvent(tick=152, channel=9, data=[36, 100]),
   midi.NoteOnEvent(tick=40, channel=9, data=[36, 100]),
   midi.NoteOffEvent(tick=112, channel=9, data=[53, 100]),
   midi.NoteOffEvent(tick=40, channel=9, data=[36, 100]),
   midi.NoteOnEvent(tick=40, channel=9, data=[38, 100]),
   midi.NoteOnEvent(tick=0, channel=9, data=[49, 100]),
   midi.NoteOffEvent(tick=304, channel=9, data=[38, 100]),
   midi.NoteOffEvent(tick=0, channel=9, data=[49, 100]),
   midi.NoteOnEvent(tick=80, channel=9, data=[49, 100]),
   midi.NoteOnEvent(tick=0, channel=9, data=[38, 100]),
   midi.NoteOffEvent(tick=304, channel=9, data=[49, 100]),
   midi.NoteOffEvent(tick=0, channel=9, data=[38, 100]),
   midi.NoteOnEvent(tick=80, channel=9, data=[36, 100]),
   midi.NoteOnEvent(tick=0, channel=9, data=[53, 100]),
   midi.NoteOffEvent(tick=152, channel=9, data=[36, 100]),
   midi.NoteOnEvent(tick=40, channel=9, data=[36, 100]),
   midi.NoteOffEvent(tick=112, channel=9, data=[53, 100]),
   midi.NoteOffEvent(tick=40, channel=9, data=[36, 100]),
   midi.NoteOnEvent(tick=40, channel=9, data=[53, 100]),
   midi.NoteOnEvent(tick=192, channel=9, data=[36, 100]),
   midi.NoteOffEvent(tick=112, channel=9, data=[53, 100]),
   midi.NoteOffEvent(tick=40, channel=9, data=[36, 100]),
   midi.NoteOnEvent(tick=40, channel=9, data=[38, 100]),
   midi.NoteOnEvent(tick=0, channel=9, data=[53, 100]),
   midi.NoteOffEvent(tick=304, channel=9, data=[38, 100]),
   midi.NoteOffEvent(tick=0, channel=9, data=[53, 100]),
   midi.NoteOnEvent(tick=80, channel=9, data=[53, 100]),
   midi.NoteOnEvent(tick=192, channel=9, data=[36, 100]),
   midi.NoteOffEvent(tick=112, channel=9, data=[53, 100]),
   midi.NoteOffEvent(tick=40, channel=9, data=[36, 100]),
   midi.NoteOnEvent(tick=40, channel=9, data=[53, 100]),
   midi.NoteOffEvent(tick=152, channel=9, data=[53, 100]),
   midi.NoteOnEvent(tick=40, channel=9, data=[38, 100]),
   midi.NoteOffEvent(tick=152, channel=9, data=[38, 100]),
   midi.NoteOnEvent(tick=40, channel=9, data=[36, 100]),
   midi.NoteOnEvent(tick=0, channel=9, data=[53, 100]),
   midi.NoteOffEvent(tick=152, channel=9, data=[36, 100]),
   midi.NoteOnEvent(tick=40, channel=9, data=[36, 100]),
   midi.NoteOffEvent(tick=112, channel=9, data=[53, 100]),
   midi.NoteOffEvent(tick=40, channel=9, data=[36, 100]),
   midi.NoteOnEvent(tick=40, channel=9, data=[38, 100]),
   midi.NoteOnEvent(tick=0, channel=9, data=[53, 100]),
   midi.NoteOffEvent(tick=304, channel=9, data=[38, 100]),
   midi.NoteOffEvent(tick=0, channel=9, data=[53, 100]),
   midi.NoteOnEvent(tick=80, channel=9, data=[36, 100]),
   midi.NoteOnEvent(tick=0, channel=9, data=[53, 100]),
   midi.NoteOffEvent(tick=304, channel=9, data=[36, 100]),
   midi.NoteOffEvent(tick=0, channel=9, data=[53, 100]),
   midi.NoteOnEvent(tick=80, channel=9, data=[38, 100]),
   midi.NoteOffEvent(tick=152, channel=9, data=[38, 100]),
   midi.NoteOnEvent(tick=40, channel=9, data=[36, 100]),
   midi.NoteOnEvent(tick=0, channel=9, data=[49, 100]),
   midi.NoteOffEvent(tick=152, channel=9, data=[36, 100]),
   midi.NoteOffEvent(tick=152, channel=9, data=[49, 100]),
   midi.NoteOnEvent(tick=80, channel=9, data=[38, 100]),
   midi.NoteOffEvent(tick=152, channel=9, data=[38, 100]),
   midi.NoteOnEvent(tick=40, channel=9, data=[49, 100]),
   midi.NoteOnEvent(tick=0, channel=9, data=[36, 100]),
   midi.NoteOffEvent(tick=304, channel=9, data=[49, 100]),
   midi.NoteOffEvent(tick=0, channel=9, data=[36, 100]),
   midi.NoteOnEvent(tick=80, channel=9, data=[38, 100]),
   midi.NoteOffEvent(tick=152, channel=9, data=[38, 100]),
   midi.NoteOnEvent(tick=40, channel=9, data=[36, 100]),
   midi.NoteOnEvent(tick=0, channel=9, data=[49, 100]),
   midi.NoteOffEvent(tick=152, channel=9, data=[36, 100]),
   midi.NoteOffEvent(tick=1268, channel=9, data=[49, 100]),
   midi.NoteOnEvent(tick=1844, channel=9, data=[49, 100]),
   midi.NoteOnEvent(tick=0, channel=9, data=[36, 100]),
   midi.NoteOffEvent(tick=304, channel=9, data=[49, 100]),
   midi.NoteOffEvent(tick=0, channel=9, data=[36, 100]),
   midi.NoteOnEvent(tick=80, channel=9, data=[42, 100]),
   midi.NoteOnEvent(tick=0, channel=9, data=[38, 100]),
   midi.NoteOnEvent(tick=192, channel=9, data=[36, 100]),
   midi.NoteOffEvent(tick=112, channel=9, data=[42, 100]),
   midi.NoteOffEvent(tick=0, channel=9, data=[38, 100]),
   midi.NoteOffEvent(tick=40, channel=9, data=[36, 100]),
   midi.NoteOnEvent(tick=40, channel=9, data=[42, 100]),
   midi.NoteOnEvent(tick=192, channel=9, data=[36, 100]),
   midi.NoteOffEvent(tick=112, channel=9, data=[42, 100]),
   midi.NoteOffEvent(tick=40, channel=9, data=[36, 100]),
   midi.NoteOnEvent(tick=40, channel=9, data=[38, 100]),
   midi.NoteOnEvent(tick=0, channel=9, data=[42, 100]),
   midi.NoteOffEvent(tick=304, channel=9, data=[38, 100]),
   midi.NoteOffEvent(tick=0, channel=9, data=[42, 100]),
   midi.NoteOnEvent(tick=80, channel=9, data=[42, 100]),
   midi.NoteOnEvent(tick=192, channel=9, data=[36, 100]),
   midi.NoteOffEvent(tick=112, channel=9, data=[42, 100]),
   midi.NoteOffEvent(tick=40, channel=9, data=[36, 100]),
   midi.NoteOnEvent(tick=40, channel=9, data=[38, 100]),
   midi.NoteOnEvent(tick=0, channel=9, data=[42, 100]),
   midi.NoteOffEvent(tick=304, channel=9, data=[38, 100]),
   midi.NoteOffEvent(tick=0, channel=9, data=[42, 100]),
   midi.NoteOnEvent(tick=80, channel=9, data=[36, 100]),
   midi.NoteOnEvent(tick=0, channel=9, data=[42, 100]),
   midi.NoteOffEvent(tick=152, channel=9, data=[36, 100]),
   midi.NoteOnEvent(tick=40, channel=9, data=[36, 100]),
   midi.NoteOffEvent(tick=112, channel=9, data=[42, 100]),
   midi.NoteOffEvent(tick=40, channel=9, data=[36, 100]),
   midi.NoteOnEvent(tick=40, channel=9, data=[38, 100]),
   midi.NoteOnEvent(tick=0, channel=9, data=[42, 100]),
   midi.NoteOffEvent(tick=304, channel=9, data=[38, 100]),
   midi.NoteOffEvent(tick=0, channel=9, data=[42, 100]),
   midi.NoteOnEvent(tick=80, channel=9, data=[36, 100]),
   midi.NoteOnEvent(tick=0, channel=9, data=[42, 100]),
   midi.NoteOffEvent(tick=152, channel=9, data=[36, 100]),
   midi.NoteOnEvent(tick=40, channel=9, data=[36, 100]),
   midi.NoteOffEvent(tick=112, channel=9, data=[42, 100]),
   midi.NoteOffEvent(tick=40, channel=9, data=[36, 100]),
   midi.NoteOnEvent(tick=40, channel=9, data=[42, 100]),
   midi.NoteOnEvent(tick=0, channel=9, data=[38, 100]),
   midi.NoteOnEvent(tick=192, channel=9, data=[36, 100]),
   midi.NoteOffEvent(tick=112, channel=9, data=[42, 100]),
   midi.NoteOffEvent(tick=0, channel=9, data=[38, 100]),
   midi.NoteOffEvent(tick=40, channel=9, data=[36, 100]),
   midi.NoteOnEvent(tick=40, channel=9, data=[42, 100]),
   midi.NoteOnEvent(tick=192, channel=9, data=[36, 100]),
   midi.NoteOffEvent(tick=112, channel=9, data=[42, 100]),
   midi.NoteOffEvent(tick=40, channel=9, data=[36, 100]),
   midi.NoteOnEvent(tick=40, channel=9, data=[42, 100]),
   midi.NoteOnEvent(tick=0, channel=9, data=[38, 100]),
   midi.NoteOffEvent(tick=304, channel=9, data=[42, 100]),
   midi.NoteOffEvent(tick=0, channel=9, data=[38, 100]),
   midi.NoteOnEvent(tick=80, channel=9, data=[42, 100]),
   midi.NoteOnEvent(tick=192, channel=9, data=[36, 100]),
   midi.NoteOffEvent(tick=112, channel=9, data=[42, 100]),
   midi.NoteOffEvent(tick=40, channel=9, data=[36, 100]),
   midi.NoteOnEvent(tick=40, channel=9, data=[42, 100]),
   midi.NoteOnEvent(tick=0, channel=9, data=[38, 100]),
   midi.NoteOffEvent(tick=304, channel=9, data=[42, 100]),
   midi.NoteOffEvent(tick=0, channel=9, data=[38, 100]),
   midi.NoteOnEvent(tick=80, channel=9, data=[36, 100]),
   midi.NoteOnEvent(tick=0, channel=9, data=[42, 100]),
   midi.NoteOffEvent(tick=152, channel=9, data=[36, 100]),
   midi.NoteOnEvent(tick=40, channel=9, data=[36, 100]),
   midi.NoteOffEvent(tick=112, channel=9, data=[42, 100]),
   midi.NoteOffEvent(tick=40, channel=9, data=[36, 100]),
   midi.NoteOnEvent(tick=40, channel=9, data=[38, 100]),
   midi.NoteOnEvent(tick=0, channel=9, data=[42, 100]),
   midi.NoteOffEvent(tick=304, channel=9, data=[38, 100]),
   midi.NoteOffEvent(tick=0, channel=9, data=[42, 100]),
   midi.NoteOnEvent(tick=80, channel=9, data=[42, 100]),
   midi.NoteOnEvent(tick=0, channel=9, data=[36, 100]),
   midi.NoteOffEvent(tick=152, channel=9, data=[36, 100]),
   midi.NoteOnEvent(tick=40, channel=9, data=[36, 100]),
   midi.NoteOffEvent(tick=112, channel=9, data=[42, 100]),
   midi.NoteOffEvent(tick=40, channel=9, data=[36, 100]),
   midi.NoteOnEvent(tick=40, channel=9, data=[38, 100]),
   midi.NoteOnEvent(tick=0, channel=9, data=[42, 100]),
   midi.NoteOnEvent(tick=192, channel=9, data=[36, 100]),
   midi.NoteOffEvent(tick=112, channel=9, data=[38, 100]),
   midi.NoteOffEvent(tick=0, channel=9, data=[42, 100]),
   midi.NoteOffEvent(tick=40, channel=9, data=[36, 100]),
   midi.NoteOnEvent(tick=40, channel=9, data=[42, 100]),
   midi.NoteOnEvent(tick=192, channel=9, data=[36, 100]),
   midi.NoteOffEvent(tick=112, channel=9, data=[42, 100]),
   midi.NoteOffEvent(tick=40, channel=9, data=[36, 100]),
   midi.NoteOnEvent(tick=40, channel=9, data=[38, 100]),
   midi.NoteOnEvent(tick=0, channel=9, data=[42, 100]),
   midi.NoteOffEvent(tick=304, channel=9, data=[38, 100]),
   midi.NoteOffEvent(tick=0, channel=9, data=[42, 100]),
   midi.NoteOnEvent(tick=80, channel=9, data=[42, 100]),
   midi.NoteOnEvent(tick=192, channel=9, data=[36, 100]),
   midi.NoteOffEvent(tick=112, channel=9, data=[42, 100]),
   midi.NoteOffEvent(tick=40, channel=9, data=[36, 100]),
   midi.NoteOnEvent(tick=40, channel=9, data=[42, 100]),
   midi.NoteOnEvent(tick=0, channel=9, data=[38, 100]),
   midi.NoteOffEvent(tick=304, channel=9, data=[42, 100]),
   midi.NoteOffEvent(tick=0, channel=9, data=[38, 100]),
   midi.NoteOnEvent(tick=80, channel=9, data=[36, 100]),
   midi.NoteOnEvent(tick=0, channel=9, data=[42, 100]),
   midi.NoteOffEvent(tick=152, channel=9, data=[36, 100]),
   midi.NoteOnEvent(tick=40, channel=9, data=[36, 100]),
   midi.NoteOffEvent(tick=112, channel=9, data=[42, 100]),
   midi.NoteOffEvent(tick=40, channel=9, data=[36, 100]),
   midi.NoteOnEvent(tick=40, channel=9, data=[38, 100]),
   midi.NoteOnEvent(tick=0, channel=9, data=[42, 100]),
   midi.NoteOffEvent(tick=304, channel=9, data=[38, 100]),
   midi.NoteOffEvent(tick=0, channel=9, data=[42, 100]),
   midi.NoteOnEvent(tick=80, channel=9, data=[42, 100]),
   midi.NoteOnEvent(tick=0, channel=9, data=[36, 100]),
   midi.NoteOffEvent(tick=152, channel=9, data=[36, 100]),
   midi.NoteOnEvent(tick=40, channel=9, data=[36, 100]),
   midi.NoteOffEvent(tick=112, channel=9, data=[42, 100]),
   midi.NoteOffEvent(tick=40, channel=9, data=[36, 100]),
   midi.NoteOnEvent(tick=40, channel=9, data=[38, 100]),
   midi.NoteOnEvent(tick=0, channel=9, data=[42, 100]),
   midi.NoteOnEvent(tick=192, channel=9, data=[36, 100]),
   midi.NoteOffEvent(tick=112, channel=9, data=[38, 100]),
   midi.NoteOffEvent(tick=0, channel=9, data=[42, 100]),
   midi.NoteOffEvent(tick=40, channel=9, data=[36, 100]),
   midi.NoteOnEvent(tick=40, channel=9, data=[42, 100]),
   midi.NoteOnEvent(tick=192, channel=9, data=[36, 100]),
   midi.NoteOffEvent(tick=112, channel=9, data=[42, 100]),
   midi.NoteOffEvent(tick=40, channel=9, data=[36, 100]),
   midi.NoteOnEvent(tick=40, channel=9, data=[42, 100]),
   midi.NoteOnEvent(tick=0, channel=9, data=[38, 100]),
   midi.NoteOffEvent(tick=304, channel=9, data=[42, 100]),
   midi.NoteOffEvent(tick=0, channel=9, data=[38, 100]),
   midi.NoteOnEvent(tick=80, channel=9, data=[42, 100]),
   midi.NoteOnEvent(tick=192, channel=9, data=[36, 100]),
   midi.NoteOffEvent(tick=112, channel=9, data=[42, 100]),
   midi.NoteOffEvent(tick=40, channel=9, data=[36, 100]),
   midi.NoteOnEvent(tick=40, channel=9, data=[42, 100]),
   midi.NoteOnEvent(tick=0, channel=9, data=[38, 100]),
   midi.NoteOffEvent(tick=304, channel=9, data=[42, 100]),
   midi.NoteOffEvent(tick=0, channel=9, data=[38, 100]),
   midi.NoteOnEvent(tick=80, channel=9, data=[36, 100]),
   midi.NoteOnEvent(tick=0, channel=9, data=[42, 100]),
   midi.NoteOffEvent(tick=152, channel=9, data=[36, 100]),
   midi.NoteOnEvent(tick=40, channel=9, data=[36, 100]),
   midi.NoteOffEvent(tick=112, channel=9, data=[42, 100]),
   midi.NoteOffEvent(tick=40, channel=9, data=[36, 100]),
   midi.NoteOnEvent(tick=40, channel=9, data=[42, 100]),
   midi.NoteOnEvent(tick=0, channel=9, data=[38, 100]),
   midi.NoteOffEvent(tick=304, channel=9, data=[42, 100]),
   midi.NoteOffEvent(tick=0, channel=9, data=[38, 100]),
   midi.NoteOnEvent(tick=80, channel=9, data=[36, 100]),
   midi.NoteOnEvent(tick=0, channel=9, data=[49, 100]),
   midi.NoteOffEvent(tick=304, channel=9, data=[36, 100]),
   midi.NoteOffEvent(tick=0, channel=9, data=[49, 100]),
   midi.NoteOnEvent(tick=80, channel=9, data=[42, 100]),
   midi.NoteOnEvent(tick=0, channel=9, data=[38, 100]),
   midi.NoteOnEvent(tick=192, channel=9, data=[36, 100]),
   midi.NoteOffEvent(tick=112, channel=9, data=[42, 100]),
   midi.NoteOffEvent(tick=0, channel=9, data=[38, 100]),
   midi.NoteOffEvent(tick=40, channel=9, data=[36, 100]),
   midi.NoteOnEvent(tick=40, channel=9, data=[42, 100]),
   midi.NoteOnEvent(tick=192, channel=9, data=[36, 100]),
   midi.NoteOffEvent(tick=112, channel=9, data=[42, 100]),
   midi.NoteOffEvent(tick=40, channel=9, data=[36, 100]),
   midi.NoteOnEvent(tick=40, channel=9, data=[42, 100]),
   midi.NoteOnEvent(tick=0, channel=9, data=[38, 100]),
   midi.NoteOffEvent(tick=304, channel=9, data=[42, 100]),
   midi.NoteOffEvent(tick=0, channel=9, data=[38, 100]),
   midi.NoteOnEvent(tick=80, channel=9, data=[42, 100]),
   midi.NoteOnEvent(tick=192, channel=9, data=[36, 100]),
   midi.NoteOffEvent(tick=112, channel=9, data=[42, 100]),
   midi.NoteOffEvent(tick=40, channel=9, data=[36, 100]),
   midi.NoteOnEvent(tick=40, channel=9, data=[38, 100]),
   midi.NoteOnEvent(tick=0, channel=9, data=[42, 100]),
   midi.NoteOffEvent(tick=304, channel=9, data=[38, 100]),
   midi.NoteOffEvent(tick=0, channel=9, data=[42, 100]),
   midi.NoteOnEvent(tick=80, channel=9, data=[36, 100]),
   midi.NoteOnEvent(tick=0, channel=9, data=[42, 100]),
   midi.NoteOffEvent(tick=152, channel=9, data=[36, 100]),
   midi.NoteOnEvent(tick=40, channel=9, data=[36, 100]),
   midi.NoteOffEvent(tick=112, channel=9, data=[42, 100]),
   midi.NoteOffEvent(tick=40, channel=9, data=[36, 100]),
   midi.NoteOnEvent(tick=40, channel=9, data=[42, 100]),
   midi.NoteOnEvent(tick=0, channel=9, data=[38, 100]),
   midi.NoteOffEvent(tick=304, channel=9, data=[42, 100]),
   midi.NoteOffEvent(tick=0, channel=9, data=[38, 100]),
   midi.NoteOnEvent(tick=80, channel=9, data=[42, 100]),
   midi.NoteOnEvent(tick=0, channel=9, data=[36, 100]),
   midi.NoteOffEvent(tick=152, channel=9, data=[36, 100]),
   midi.NoteOnEvent(tick=40, channel=9, data=[36, 100]),
   midi.NoteOffEvent(tick=112, channel=9, data=[42, 100]),
   midi.NoteOffEvent(tick=40, channel=9, data=[36, 100]),
   midi.NoteOnEvent(tick=40, channel=9, data=[42, 100]),
   midi.NoteOnEvent(tick=0, channel=9, data=[38, 100]),
   midi.NoteOnEvent(tick=192, channel=9, data=[36, 100]),
   midi.NoteOffEvent(tick=112, channel=9, data=[42, 100]),
   midi.NoteOffEvent(tick=0, channel=9, data=[38, 100]),
   midi.NoteOffEvent(tick=40, channel=9, data=[36, 100]),
   midi.NoteOnEvent(tick=40, channel=9, data=[42, 100]),
   midi.NoteOnEvent(tick=192, channel=9, data=[36, 100]),
   midi.NoteOffEvent(tick=112, channel=9, data=[42, 100]),
   midi.NoteOffEvent(tick=40, channel=9, data=[36, 100]),
   midi.NoteOnEvent(tick=40, channel=9, data=[38, 100]),
   midi.NoteOnEvent(tick=0, channel=9, data=[42, 100]),
   midi.NoteOffEvent(tick=304, channel=9, data=[38, 100]),
   midi.NoteOffEvent(tick=0, channel=9, data=[42, 100]),
   midi.NoteOnEvent(tick=80, channel=9, data=[42, 100]),
   midi.NoteOnEvent(tick=192, channel=9, data=[36, 100]),
   midi.NoteOffEvent(tick=112, channel=9, data=[42, 100]),
   midi.NoteOffEvent(tick=40, channel=9, data=[36, 100]),
   midi.NoteOnEvent(tick=40, channel=9, data=[38, 100]),
   midi.NoteOnEvent(tick=0, channel=9, data=[42, 100]),
   midi.NoteOffEvent(tick=304, channel=9, data=[38, 100]),
   midi.NoteOffEvent(tick=0, channel=9, data=[42, 100]),
   midi.NoteOnEvent(tick=80, channel=9, data=[42, 100]),
   midi.NoteOnEvent(tick=0, channel=9, data=[36, 100]),
   midi.NoteOffEvent(tick=152, channel=9, data=[36, 100]),
   midi.NoteOnEvent(tick=40, channel=9, data=[36, 100]),
   midi.NoteOffEvent(tick=112, channel=9, data=[42, 100]),
   midi.NoteOffEvent(tick=40, channel=9, data=[36, 100]),
   midi.NoteOnEvent(tick=40, channel=9, data=[38, 100]),
   midi.NoteOnEvent(tick=0, channel=9, data=[42, 100]),
   midi.NoteOffEvent(tick=304, channel=9, data=[38, 100]),
   midi.NoteOffEvent(tick=0, channel=9, data=[42, 100]),
   midi.NoteOnEvent(tick=80, channel=9, data=[42, 100]),
   midi.NoteOnEvent(tick=0, channel=9, data=[36, 100]),
   midi.NoteOffEvent(tick=152, channel=9, data=[36, 100]),
   midi.NoteOnEvent(tick=40, channel=9, data=[36, 100]),
   midi.NoteOffEvent(tick=112, channel=9, data=[42, 100]),
   midi.NoteOffEvent(tick=40, channel=9, data=[36, 100]),
   midi.NoteOnEvent(tick=40, channel=9, data=[42, 100]),
   midi.NoteOnEvent(tick=0, channel=9, data=[38, 100]),
   midi.NoteOnEvent(tick=192, channel=9, data=[36, 100]),
   midi.NoteOffEvent(tick=112, channel=9, data=[42, 100]),
   midi.NoteOffEvent(tick=0, channel=9, data=[38, 100]),
   midi.NoteOffEvent(tick=40, channel=9, data=[36, 100]),
   midi.NoteOnEvent(tick=40, channel=9, data=[42, 100]),
   midi.NoteOnEvent(tick=192, channel=9, data=[36, 100]),
   midi.NoteOffEvent(tick=112, channel=9, data=[42, 100]),
   midi.NoteOffEvent(tick=40, channel=9, data=[36, 100]),
   midi.NoteOnEvent(tick=40, channel=9, data=[38, 100]),
   midi.NoteOnEvent(tick=0, channel=9, data=[42, 100]),
   midi.NoteOffEvent(tick=304, channel=9, data=[38, 100]),
   midi.NoteOffEvent(tick=0, channel=9, data=[42, 100]),
   midi.NoteOnEvent(tick=80, channel=9, data=[42, 100]),
   midi.NoteOnEvent(tick=192, channel=9, data=[36, 100]),
   midi.NoteOffEvent(tick=112, channel=9, data=[42, 100]),
   midi.NoteOffEvent(tick=40, channel=9, data=[36, 100]),
   midi.NoteOnEvent(tick=40, channel=9, data=[38, 100]),
   midi.NoteOnEvent(tick=0, channel=9, data=[42, 100]),
   midi.NoteOffEvent(tick=304, channel=9, data=[38, 100]),
   midi.NoteOffEvent(tick=0, channel=9, data=[42, 100]),
   midi.NoteOnEvent(tick=80, channel=9, data=[36, 100]),
   midi.NoteOnEvent(tick=0, channel=9, data=[42, 100]),
   midi.NoteOffEvent(tick=152, channel=9, data=[36, 100]),
   midi.NoteOnEvent(tick=40, channel=9, data=[36, 100]),
   midi.NoteOffEvent(tick=112, channel=9, data=[42, 100]),
   midi.NoteOffEvent(tick=40, channel=9, data=[36, 100]),
   midi.NoteOnEvent(tick=40, channel=9, data=[38, 100]),
   midi.NoteOnEvent(tick=0, channel=9, data=[42, 100]),
   midi.NoteOnEvent(tick=192, channel=9, data=[36, 100]),
   midi.NoteOffEvent(tick=112, channel=9, data=[38, 100]),
   midi.NoteOffEvent(tick=0, channel=9, data=[42, 100]),
   midi.NoteOffEvent(tick=40, channel=9, data=[36, 100]),
   midi.NoteOnEvent(tick=40, channel=9, data=[38, 100]),
   midi.NoteOnEvent(tick=0, channel=9, data=[49, 100]),
   midi.NoteOnEvent(tick=192, channel=9, data=[36, 100]),
   midi.NoteOffEvent(tick=112, channel=9, data=[38, 100]),
   midi.NoteOffEvent(tick=40, channel=9, data=[36, 100]),
   midi.NoteOnEvent(tick=40, channel=9, data=[36, 100]),
   midi.NoteOffEvent(tick=152, channel=9, data=[49, 100]),
   midi.NoteOnEvent(tick=40, channel=9, data=[49, 100]),
   midi.NoteOnEvent(tick=0, channel=9, data=[38, 100]),
   midi.NoteOffEvent(tick=112, channel=9, data=[36, 100]),
   midi.NoteOffEvent(tick=40, channel=9, data=[38, 100]),
   midi.NoteOnEvent(tick=40, channel=9, data=[36, 100]),
   midi.NoteOffEvent(tick=152, channel=9, data=[36, 100]),
   midi.NoteOnEvent(tick=40, channel=9, data=[36, 100]),
   midi.NoteOffEvent(tick=112, channel=9, data=[49, 100]),
   midi.NoteOffEvent(tick=40, channel=9, data=[36, 100]),
   midi.NoteOnEvent(tick=40, channel=9, data=[38, 100]),
   midi.NoteOnEvent(tick=0, channel=9, data=[49, 100]),
   midi.NoteOffEvent(tick=304, channel=9, data=[38, 100]),
   midi.NoteOffEvent(tick=232, channel=9, data=[49, 100]),
   midi.NoteOnEvent(tick=40, channel=9, data=[38, 100]),
   midi.NoteOffEvent(tick=152, channel=9, data=[38, 100]),
   midi.NoteOnEvent(tick=40, channel=9, data=[38, 100]),
   midi.NoteOffEvent(tick=152, channel=9, data=[38, 100]),
   midi.NoteOnEvent(tick=40, channel=9, data=[47, 100]),
   midi.NoteOffEvent(tick=152, channel=9, data=[47, 100]),
   midi.NoteOnEvent(tick=40, channel=9, data=[47, 100]),
   midi.NoteOffEvent(tick=152, channel=9, data=[47, 100]),
   midi.NoteOnEvent(tick=40, channel=9, data=[45, 100]),
   midi.NoteOffEvent(tick=152, channel=9, data=[45, 100]),
   midi.NoteOnEvent(tick=40, channel=9, data=[45, 100]),
   midi.NoteOffEvent(tick=152, channel=9, data=[45, 100]),
   midi.NoteOnEvent(tick=40, channel=9, data=[43, 100]),
   midi.NoteOffEvent(tick=152, channel=9, data=[43, 100]),
   midi.NoteOnEvent(tick=40, channel=9, data=[36, 100]),
   midi.NoteOnEvent(tick=0, channel=9, data=[49, 100]),
   midi.NoteOffEvent(tick=152, channel=9, data=[36, 100]),
   midi.NoteOffEvent(tick=0, channel=9, data=[49, 100]),
   midi.NoteOnEvent(tick=40, channel=9, data=[49, 100]),
   midi.NoteOnEvent(tick=0, channel=9, data=[36, 100]),
   midi.NoteOffEvent(tick=152, channel=9, data=[49, 100]),
   midi.NoteOffEvent(tick=0, channel=9, data=[36, 100]),
   midi.NoteOnEvent(tick=40, channel=9, data=[53, 100]),
   midi.NoteOnEvent(tick=192, channel=9, data=[36, 100]),
   midi.NoteOffEvent(tick=112, channel=9, data=[53, 100]),
   midi.NoteOffEvent(tick=40, channel=9, data=[36, 100]),
   midi.NoteOnEvent(tick=40, channel=9, data=[38, 100]),
   midi.NoteOnEvent(tick=0, channel=9, data=[53, 100]),
   midi.NoteOffEvent(tick=304, channel=9, data=[38, 100]),
   midi.NoteOffEvent(tick=0, channel=9, data=[53, 100]),
   midi.NoteOnEvent(tick=80, channel=9, data=[53, 100]),
   midi.NoteOnEvent(tick=192, channel=9, data=[36, 100]),
   midi.NoteOffEvent(tick=112, channel=9, data=[53, 100]),
   midi.NoteOffEvent(tick=40, channel=9, data=[36, 100]),
   midi.NoteOnEvent(tick=40, channel=9, data=[53, 100]),
   midi.NoteOffEvent(tick=304, channel=9, data=[53, 100]),
   midi.NoteOnEvent(tick=80, channel=9, data=[36, 100]),
   midi.NoteOnEvent(tick=0, channel=9, data=[53, 100]),
   midi.NoteOffEvent(tick=152, channel=9, data=[36, 100]),
   midi.NoteOnEvent(tick=40, channel=9, data=[36, 100]),
   midi.NoteOffEvent(tick=112, channel=9, data=[53, 100]),
   midi.NoteOffEvent(tick=40, channel=9, data=[36, 100]),
   midi.NoteOnEvent(tick=40, channel=9, data=[38, 100]),
   midi.NoteOnEvent(tick=0, channel=9, data=[49, 100]),
   midi.NoteOffEvent(tick=304, channel=9, data=[38, 100]),
   midi.NoteOffEvent(tick=0, channel=9, data=[49, 100]),
   midi.NoteOnEvent(tick=80, channel=9, data=[49, 100]),
   midi.NoteOnEvent(tick=0, channel=9, data=[38, 100]),
   midi.NoteOffEvent(tick=304, channel=9, data=[49, 100]),
   midi.NoteOffEvent(tick=0, channel=9, data=[38, 100]),
   midi.NoteOnEvent(tick=80, channel=9, data=[36, 100]),
   midi.NoteOnEvent(tick=0, channel=9, data=[53, 100]),
   midi.NoteOffEvent(tick=152, channel=9, data=[36, 100]),
   midi.NoteOnEvent(tick=40, channel=9, data=[36, 100]),
   midi.NoteOffEvent(tick=112, channel=9, data=[53, 100]),
   midi.NoteOffEvent(tick=40, channel=9, data=[36, 100]),
   midi.NoteOnEvent(tick=40, channel=9, data=[53, 100]),
   midi.NoteOnEvent(tick=192, channel=9, data=[36, 100]),
   midi.NoteOffEvent(tick=112, channel=9, data=[53, 100]),
   midi.NoteOffEvent(tick=40, channel=9, data=[36, 100]),
   midi.NoteOnEvent(tick=40, channel=9, data=[53, 100]),
   midi.NoteOnEvent(tick=0, channel=9, data=[38, 100]),
   midi.NoteOffEvent(tick=304, channel=9, data=[53, 100]),
   midi.NoteOffEvent(tick=0, channel=9, data=[38, 100]),
   midi.NoteOnEvent(tick=80, channel=9, data=[53, 100]),
   midi.NoteOnEvent(tick=192, channel=9, data=[36, 100]),
   midi.NoteOffEvent(tick=112, channel=9, data=[53, 100]),
   midi.NoteOffEvent(tick=40, channel=9, data=[36, 100]),
   midi.NoteOnEvent(tick=40, channel=9, data=[53, 100]),
   midi.NoteOffEvent(tick=304, channel=9, data=[53, 100]),
   midi.NoteOnEvent(tick=80, channel=9, data=[36, 100]),
   midi.NoteOnEvent(tick=0, channel=9, data=[53, 100]),
   midi.NoteOffEvent(tick=152, channel=9, data=[36, 100]),
   midi.NoteOnEvent(tick=40, channel=9, data=[36, 100]),
   midi.NoteOffEvent(tick=112, channel=9, data=[53, 100]),
   midi.NoteOffEvent(tick=40, channel=9, data=[36, 100]),
   midi.NoteOnEvent(tick=40, channel=9, data=[38, 100]),
   midi.NoteOnEvent(tick=0, channel=9, data=[49, 100]),
   midi.NoteOffEvent(tick=304, channel=9, data=[38, 100]),
   midi.NoteOffEvent(tick=0, channel=9, data=[49, 100]),
   midi.NoteOnEvent(tick=80, channel=9, data=[49, 100]),
   midi.NoteOnEvent(tick=0, channel=9, data=[38, 100]),
   midi.NoteOffEvent(tick=304, channel=9, data=[49, 100]),
   midi.NoteOffEvent(tick=0, channel=9, data=[38, 100]),
   midi.NoteOnEvent(tick=80, channel=9, data=[36, 100]),
   midi.NoteOnEvent(tick=0, channel=9, data=[53, 100]),
   midi.NoteOffEvent(tick=152, channel=9, data=[36, 100]),
   midi.NoteOnEvent(tick=40, channel=9, data=[36, 100]),
   midi.NoteOffEvent(tick=112, channel=9, data=[53, 100]),
   midi.NoteOffEvent(tick=40, channel=9, data=[36, 100]),
   midi.NoteOnEvent(tick=40, channel=9, data=[53, 100]),
   midi.NoteOnEvent(tick=192, channel=9, data=[36, 100]),
   midi.NoteOffEvent(tick=112, channel=9, data=[53, 100]),
   midi.NoteOffEvent(tick=40, channel=9, data=[36, 100]),
   midi.NoteOnEvent(tick=40, channel=9, data=[53, 100]),
   midi.NoteOnEvent(tick=0, channel=9, data=[38, 100]),
   midi.NoteOffEvent(tick=304, channel=9, data=[53, 100]),
   midi.NoteOffEvent(tick=0, channel=9, data=[38, 100]),
   midi.NoteOnEvent(tick=80, channel=9, data=[53, 100]),
   midi.NoteOnEvent(tick=192, channel=9, data=[36, 100]),
   midi.NoteOffEvent(tick=112, channel=9, data=[53, 100]),
   midi.NoteOffEvent(tick=40, channel=9, data=[36, 100]),
   midi.NoteOnEvent(tick=40, channel=9, data=[53, 100]),
   midi.NoteOffEvent(tick=304, channel=9, data=[53, 100]),
   midi.NoteOnEvent(tick=80, channel=9, data=[53, 100]),
   midi.NoteOnEvent(tick=0, channel=9, data=[36, 100]),
   midi.NoteOffEvent(tick=152, channel=9, data=[36, 100]),
   midi.NoteOnEvent(tick=40, channel=9, data=[36, 100]),
   midi.NoteOffEvent(tick=112, channel=9, data=[53, 100]),
   midi.NoteOffEvent(tick=40, channel=9, data=[36, 100]),
   midi.NoteOnEvent(tick=40, channel=9, data=[49, 100]),
   midi.NoteOnEvent(tick=0, channel=9, data=[38, 100]),
   midi.NoteOffEvent(tick=304, channel=9, data=[49, 100]),
   midi.NoteOffEvent(tick=0, channel=9, data=[38, 100]),
   midi.NoteOnEvent(tick=80, channel=9, data=[49, 100]),
   midi.NoteOnEvent(tick=0, channel=9, data=[38, 100]),
   midi.NoteOffEvent(tick=304, channel=9, data=[49, 100]),
   midi.NoteOffEvent(tick=0, channel=9, data=[38, 100]),
   midi.NoteOnEvent(tick=80, channel=9, data=[36, 100]),
   midi.NoteOnEvent(tick=0, channel=9, data=[53, 100]),
   midi.NoteOffEvent(tick=152, channel=9, data=[36, 100]),
   midi.NoteOnEvent(tick=40, channel=9, data=[36, 100]),
   midi.NoteOffEvent(tick=112, channel=9, data=[53, 100]),
   midi.NoteOffEvent(tick=40, channel=9, data=[36, 100]),
   midi.NoteOnEvent(tick=40, channel=9, data=[53, 100]),
   midi.NoteOnEvent(tick=192, channel=9, data=[36, 100]),
   midi.NoteOffEvent(tick=112, channel=9, data=[53, 100]),
   midi.NoteOffEvent(tick=40, channel=9, data=[36, 100]),
   midi.NoteOnEvent(tick=40, channel=9, data=[38, 100]),
   midi.NoteOnEvent(tick=0, channel=9, data=[53, 100]),
   midi.NoteOffEvent(tick=304, channel=9, data=[38, 100]),
   midi.NoteOffEvent(tick=0, channel=9, data=[53, 100]),
   midi.NoteOnEvent(tick=80, channel=9, data=[53, 100]),
   midi.NoteOnEvent(tick=192, channel=9, data=[36, 100]),
   midi.NoteOffEvent(tick=112, channel=9, data=[53, 100]),
   midi.NoteOffEvent(tick=40, channel=9, data=[36, 100]),
   midi.NoteOnEvent(tick=40, channel=9, data=[53, 100]),
   midi.NoteOffEvent(tick=152, channel=9, data=[53, 100]),
   midi.NoteOnEvent(tick=40, channel=9, data=[38, 100]),
   midi.NoteOffEvent(tick=152, channel=9, data=[38, 100]),
   midi.NoteOnEvent(tick=40, channel=9, data=[38, 100]),
   midi.NoteOffEvent(tick=152, channel=9, data=[38, 100]),
   midi.NoteOnEvent(tick=40, channel=9, data=[47, 100]),
   midi.NoteOffEvent(tick=152, channel=9, data=[47, 100]),
   midi.NoteOnEvent(tick=40, channel=9, data=[47, 100]),
   midi.NoteOffEvent(tick=152, channel=9, data=[47, 100]),
   midi.NoteOnEvent(tick=40, channel=9, data=[45, 100]),
   midi.NoteOffEvent(tick=152, channel=9, data=[45, 100]),
   midi.NoteOnEvent(tick=40, channel=9, data=[45, 100]),
   midi.NoteOffEvent(tick=152, channel=9, data=[45, 100]),
   midi.NoteOnEvent(tick=40, channel=9, data=[43, 100]),
   midi.NoteOffEvent(tick=152, channel=9, data=[43, 100]),
   midi.NoteOnEvent(tick=40, channel=9, data=[36, 100]),
   midi.NoteOnEvent(tick=0, channel=9, data=[49, 100]),
   midi.NoteOffEvent(tick=152, channel=9, data=[36, 100]),
   midi.NoteOffEvent(tick=0, channel=9, data=[49, 100]),
   midi.NoteOnEvent(tick=40, channel=9, data=[36, 100]),
   midi.NoteOnEvent(tick=0, channel=9, data=[49, 100]),
   midi.NoteOffEvent(tick=152, channel=9, data=[36, 100]),
   midi.NoteOffEvent(tick=0, channel=9, data=[49, 100]),
   midi.NoteOnEvent(tick=40, channel=9, data=[53, 100]),
   midi.NoteOnEvent(tick=192, channel=9, data=[36, 100]),
   midi.NoteOffEvent(tick=112, channel=9, data=[53, 100]),
   midi.NoteOffEvent(tick=40, channel=9, data=[36, 100]),
   midi.NoteOnEvent(tick=40, channel=9, data=[53, 100]),
   midi.NoteOnEvent(tick=0, channel=9, data=[38, 100]),
   midi.NoteOffEvent(tick=304, channel=9, data=[53, 100]),
   midi.NoteOffEvent(tick=0, channel=9, data=[38, 100]),
   midi.NoteOnEvent(tick=80, channel=9, data=[53, 100]),
   midi.NoteOnEvent(tick=192, channel=9, data=[36, 100]),
   midi.NoteOffEvent(tick=112, channel=9, data=[53, 100]),
   midi.NoteOffEvent(tick=40, channel=9, data=[36, 100]),
   midi.NoteOnEvent(tick=40, channel=9, data=[53, 100]),
   midi.NoteOffEvent(tick=304, channel=9, data=[53, 100]),
   midi.NoteOnEvent(tick=80, channel=9, data=[36, 100]),
   midi.NoteOnEvent(tick=0, channel=9, data=[53, 100]),
   midi.NoteOffEvent(tick=152, channel=9, data=[36, 100]),
   midi.NoteOnEvent(tick=40, channel=9, data=[36, 100]),
   midi.NoteOffEvent(tick=112, channel=9, data=[53, 100]),
   midi.NoteOffEvent(tick=40, channel=9, data=[36, 100]),
   midi.NoteOnEvent(tick=40, channel=9, data=[38, 100]),
   midi.NoteOnEvent(tick=0, channel=9, data=[49, 100]),
   midi.NoteOffEvent(tick=304, channel=9, data=[38, 100]),
   midi.NoteOffEvent(tick=0, channel=9, data=[49, 100]),
   midi.NoteOnEvent(tick=80, channel=9, data=[49, 100]),
   midi.NoteOnEvent(tick=0, channel=9, data=[38, 100]),
   midi.NoteOffEvent(tick=304, channel=9, data=[49, 100]),
   midi.NoteOffEvent(tick=0, channel=9, data=[38, 100]),
   midi.NoteOnEvent(tick=80, channel=9, data=[36, 100]),
   midi.NoteOnEvent(tick=0, channel=9, data=[53, 100]),
   midi.NoteOffEvent(tick=152, channel=9, data=[36, 100]),
   midi.NoteOnEvent(tick=40, channel=9, data=[36, 100]),
   midi.NoteOffEvent(tick=112, channel=9, data=[53, 100]),
   midi.NoteOffEvent(tick=40, channel=9, data=[36, 100]),
   midi.NoteOnEvent(tick=40, channel=9, data=[53, 100]),
   midi.NoteOnEvent(tick=192, channel=9, data=[36, 100]),
   midi.NoteOffEvent(tick=112, channel=9, data=[53, 100]),
   midi.NoteOffEvent(tick=40, channel=9, data=[36, 100]),
   midi.NoteOnEvent(tick=40, channel=9, data=[38, 100]),
   midi.NoteOnEvent(tick=0, channel=9, data=[53, 100]),
   midi.NoteOffEvent(tick=304, channel=9, data=[38, 100]),
   midi.NoteOffEvent(tick=0, channel=9, data=[53, 100]),
   midi.NoteOnEvent(tick=80, channel=9, data=[53, 100]),
   midi.NoteOnEvent(tick=192, channel=9, data=[36, 100]),
   midi.NoteOffEvent(tick=112, channel=9, data=[53, 100]),
   midi.NoteOffEvent(tick=40, channel=9, data=[36, 100]),
   midi.NoteOnEvent(tick=40, channel=9, data=[53, 100]),
   midi.NoteOffEvent(tick=304, channel=9, data=[53, 100]),
   midi.NoteOnEvent(tick=80, channel=9, data=[36, 100]),
   midi.NoteOnEvent(tick=0, channel=9, data=[53, 100]),
   midi.NoteOffEvent(tick=152, channel=9, data=[36, 100]),
   midi.NoteOnEvent(tick=40, channel=9, data=[36, 100]),
   midi.NoteOffEvent(tick=112, channel=9, data=[53, 100]),
   midi.NoteOffEvent(tick=40, channel=9, data=[36, 100]),
   midi.NoteOnEvent(tick=40, channel=9, data=[38, 100]),
   midi.NoteOnEvent(tick=0, channel=9, data=[49, 100]),
   midi.NoteOffEvent(tick=304, channel=9, data=[38, 100]),
   midi.NoteOffEvent(tick=0, channel=9, data=[49, 100]),
   midi.NoteOnEvent(tick=80, channel=9, data=[49, 100]),
   midi.NoteOnEvent(tick=0, channel=9, data=[38, 100]),
   midi.NoteOffEvent(tick=304, channel=9, data=[49, 100]),
   midi.NoteOffEvent(tick=0, channel=9, data=[38, 100]),
   midi.NoteOnEvent(tick=80, channel=9, data=[36, 100]),
   midi.NoteOnEvent(tick=0, channel=9, data=[53, 100]),
   midi.NoteOffEvent(tick=152, channel=9, data=[36, 100]),
   midi.NoteOnEvent(tick=40, channel=9, data=[36, 100]),
   midi.NoteOffEvent(tick=112, channel=9, data=[53, 100]),
   midi.NoteOffEvent(tick=40, channel=9, data=[36, 100]),
   midi.NoteOnEvent(tick=40, channel=9, data=[53, 100]),
   midi.NoteOnEvent(tick=192, channel=9, data=[36, 100]),
   midi.NoteOffEvent(tick=112, channel=9, data=[53, 100]),
   midi.NoteOffEvent(tick=40, channel=9, data=[36, 100]),
   midi.NoteOnEvent(tick=40, channel=9, data=[38, 100]),
   midi.NoteOnEvent(tick=0, channel=9, data=[53, 100]),
   midi.NoteOffEvent(tick=304, channel=9, data=[38, 100]),
   midi.NoteOffEvent(tick=0, channel=9, data=[53, 100]),
   midi.NoteOnEvent(tick=80, channel=9, data=[53, 100]),
   midi.NoteOnEvent(tick=192, channel=9, data=[36, 100]),
   midi.NoteOffEvent(tick=112, channel=9, data=[53, 100]),
   midi.NoteOffEvent(tick=40, channel=9, data=[36, 100]),
   midi.NoteOnEvent(tick=40, channel=9, data=[53, 100]),
   midi.NoteOffEvent(tick=152, channel=9, data=[53, 100]),
   midi.NoteOnEvent(tick=40, channel=9, data=[38, 100]),
   midi.NoteOffEvent(tick=152, channel=9, data=[38, 100]),
   midi.NoteOnEvent(tick=40, channel=9, data=[36, 100]),
   midi.NoteOnEvent(tick=0, channel=9, data=[53, 100]),
   midi.NoteOffEvent(tick=152, channel=9, data=[36, 100]),
   midi.NoteOnEvent(tick=40, channel=9, data=[36, 100]),
   midi.NoteOffEvent(tick=112, channel=9, data=[53, 100]),
   midi.NoteOffEvent(tick=40, channel=9, data=[36, 100]),
   midi.NoteOnEvent(tick=40, channel=9, data=[38, 100]),
   midi.NoteOnEvent(tick=0, channel=9, data=[53, 100]),
   midi.NoteOffEvent(tick=304, channel=9, data=[38, 100]),
   midi.NoteOffEvent(tick=0, channel=9, data=[53, 100]),
   midi.NoteOnEvent(tick=80, channel=9, data=[36, 100]),
   midi.NoteOnEvent(tick=0, channel=9, data=[53, 100]),
   midi.NoteOffEvent(tick=304, channel=9, data=[36, 100]),
   midi.NoteOffEvent(tick=0, channel=9, data=[53, 100]),
   midi.NoteOnEvent(tick=80, channel=9, data=[38, 100]),
   midi.NoteOffEvent(tick=152, channel=9, data=[38, 100]),
   midi.NoteOnEvent(tick=40, channel=9, data=[36, 100]),
   midi.NoteOnEvent(tick=0, channel=9, data=[49, 100]),
   midi.NoteOffEvent(tick=152, channel=9, data=[36, 100]),
   midi.NoteOffEvent(tick=152, channel=9, data=[49, 100]),
   midi.NoteOnEvent(tick=80, channel=9, data=[38, 100]),
   midi.NoteOffEvent(tick=152, channel=9, data=[38, 100]),
   midi.NoteOnEvent(tick=40, channel=9, data=[49, 100]),
   midi.NoteOnEvent(tick=0, channel=9, data=[36, 100]),
   midi.NoteOffEvent(tick=304, channel=9, data=[49, 100]),
   midi.NoteOffEvent(tick=0, channel=9, data=[36, 100]),
   midi.NoteOnEvent(tick=80, channel=9, data=[38, 100]),
   midi.NoteOffEvent(tick=152, channel=9, data=[38, 100]),
   midi.NoteOnEvent(tick=40, channel=9, data=[49, 100]),
   midi.NoteOnEvent(tick=0, channel=9, data=[36, 100]),
   midi.NoteOffEvent(tick=152, channel=9, data=[36, 100]),
   midi.NoteOffEvent(tick=116, channel=9, data=[49, 64]),
   midi.NoteOnEvent(tick=2996, channel=9, data=[49, 100]),
   midi.NoteOnEvent(tick=0, channel=9, data=[36, 100]),
   midi.NoteOffEvent(tick=304, channel=9, data=[49, 100]),
   midi.NoteOffEvent(tick=0, channel=9, data=[36, 100]),
   midi.NoteOnEvent(tick=80, channel=9, data=[42, 100]),
   midi.NoteOnEvent(tick=0, channel=9, data=[38, 100]),
   midi.NoteOnEvent(tick=192, channel=9, data=[36, 100]),
   midi.NoteOffEvent(tick=112, channel=9, data=[42, 100]),
   midi.NoteOffEvent(tick=0, channel=9, data=[38, 100]),
   midi.NoteOffEvent(tick=40, channel=9, data=[36, 100]),
   midi.NoteOnEvent(tick=40, channel=9, data=[42, 100]),
   midi.NoteOnEvent(tick=192, channel=9, data=[36, 100]),
   midi.NoteOffEvent(tick=112, channel=9, data=[42, 100]),
   midi.NoteOffEvent(tick=40, channel=9, data=[36, 100]),
   midi.NoteOnEvent(tick=40, channel=9, data=[38, 100]),
   midi.NoteOnEvent(tick=0, channel=9, data=[42, 100]),
   midi.NoteOffEvent(tick=304, channel=9, data=[38, 100]),
   midi.NoteOffEvent(tick=0, channel=9, data=[42, 100]),
   midi.NoteOnEvent(tick=80, channel=9, data=[42, 100]),
   midi.NoteOnEvent(tick=192, channel=9, data=[36, 100]),
   midi.NoteOffEvent(tick=112, channel=9, data=[42, 100]),
   midi.NoteOffEvent(tick=40, channel=9, data=[36, 100]),
   midi.NoteOnEvent(tick=40, channel=9, data=[38, 100]),
   midi.NoteOnEvent(tick=0, channel=9, data=[42, 100]),
   midi.NoteOffEvent(tick=304, channel=9, data=[38, 100]),
   midi.NoteOffEvent(tick=0, channel=9, data=[42, 100]),
   midi.NoteOnEvent(tick=80, channel=9, data=[36, 100]),
   midi.NoteOnEvent(tick=0, channel=9, data=[42, 100]),
   midi.NoteOffEvent(tick=152, channel=9, data=[36, 100]),
   midi.NoteOnEvent(tick=40, channel=9, data=[36, 100]),
   midi.NoteOffEvent(tick=112, channel=9, data=[42, 100]),
   midi.NoteOffEvent(tick=40, channel=9, data=[36, 100]),
   midi.NoteOnEvent(tick=40, channel=9, data=[42, 100]),
   midi.NoteOnEvent(tick=0, channel=9, data=[38, 100]),
   midi.NoteOffEvent(tick=304, channel=9, data=[42, 100]),
   midi.NoteOffEvent(tick=0, channel=9, data=[38, 100]),
   midi.NoteOnEvent(tick=80, channel=9, data=[36, 100]),
   midi.NoteOnEvent(tick=0, channel=9, data=[42, 100]),
   midi.NoteOffEvent(tick=152, channel=9, data=[36, 100]),
   midi.NoteOnEvent(tick=40, channel=9, data=[36, 100]),
   midi.NoteOffEvent(tick=112, channel=9, data=[42, 100]),
   midi.NoteOffEvent(tick=40, channel=9, data=[36, 100]),
   midi.NoteOnEvent(tick=40, channel=9, data=[38, 100]),
   midi.NoteOnEvent(tick=0, channel=9, data=[42, 100]),
   midi.NoteOnEvent(tick=192, channel=9, data=[36, 100]),
   midi.NoteOffEvent(tick=112, channel=9, data=[38, 100]),
   midi.NoteOffEvent(tick=0, channel=9, data=[42, 100]),
   midi.NoteOffEvent(tick=40, channel=9, data=[36, 100]),
   midi.NoteOnEvent(tick=40, channel=9, data=[42, 100]),
   midi.NoteOnEvent(tick=192, channel=9, data=[36, 100]),
   midi.NoteOffEvent(tick=112, channel=9, data=[42, 100]),
   midi.NoteOffEvent(tick=40, channel=9, data=[36, 100]),
   midi.NoteOnEvent(tick=40, channel=9, data=[42, 100]),
   midi.NoteOnEvent(tick=0, channel=9, data=[38, 100]),
   midi.NoteOffEvent(tick=304, channel=9, data=[42, 100]),
   midi.NoteOffEvent(tick=0, channel=9, data=[38, 100]),
   midi.NoteOnEvent(tick=80, channel=9, data=[42, 100]),
   midi.NoteOnEvent(tick=192, channel=9, data=[36, 100]),
   midi.NoteOffEvent(tick=112, channel=9, data=[42, 100]),
   midi.NoteOffEvent(tick=40, channel=9, data=[36, 100]),
   midi.NoteOnEvent(tick=40, channel=9, data=[38, 100]),
   midi.NoteOnEvent(tick=0, channel=9, data=[42, 100]),
   midi.NoteOffEvent(tick=304, channel=9, data=[38, 100]),
   midi.NoteOffEvent(tick=0, channel=9, data=[42, 100]),
   midi.NoteOnEvent(tick=80, channel=9, data=[36, 100]),
   midi.NoteOnEvent(tick=0, channel=9, data=[42, 100]),
   midi.NoteOffEvent(tick=152, channel=9, data=[36, 100]),
   midi.NoteOnEvent(tick=40, channel=9, data=[36, 100]),
   midi.NoteOffEvent(tick=112, channel=9, data=[42, 100]),
   midi.NoteOffEvent(tick=40, channel=9, data=[36, 100]),
   midi.NoteOnEvent(tick=40, channel=9, data=[38, 100]),
   midi.NoteOnEvent(tick=0, channel=9, data=[42, 100]),
   midi.NoteOffEvent(tick=304, channel=9, data=[38, 100]),
   midi.NoteOffEvent(tick=0, channel=9, data=[42, 100]),
   midi.NoteOnEvent(tick=80, channel=9, data=[49, 100]),
   midi.NoteOnEvent(tick=0, channel=9, data=[36, 100]),
   midi.NoteOffEvent(tick=304, channel=9, data=[49, 100]),
   midi.NoteOffEvent(tick=0, channel=9, data=[36, 100]),
   midi.NoteOnEvent(tick=80, channel=9, data=[42, 100]),
   midi.NoteOnEvent(tick=0, channel=9, data=[38, 100]),
   midi.NoteOnEvent(tick=192, channel=9, data=[36, 100]),
   midi.NoteOffEvent(tick=112, channel=9, data=[42, 100]),
   midi.NoteOffEvent(tick=0, channel=9, data=[38, 100]),
   midi.NoteOffEvent(tick=40, channel=9, data=[36, 100]),
   midi.NoteOnEvent(tick=40, channel=9, data=[42, 100]),
   midi.NoteOnEvent(tick=192, channel=9, data=[36, 100]),
   midi.NoteOffEvent(tick=112, channel=9, data=[42, 100]),
   midi.NoteOffEvent(tick=40, channel=9, data=[36, 100]),
   midi.NoteOnEvent(tick=40, channel=9, data=[38, 100]),
   midi.NoteOnEvent(tick=0, channel=9, data=[42, 100]),
   midi.NoteOffEvent(tick=304, channel=9, data=[38, 100]),
   midi.NoteOffEvent(tick=0, channel=9, data=[42, 100]),
   midi.NoteOnEvent(tick=80, channel=9, data=[42, 100]),
   midi.NoteOffEvent(tick=152, channel=9, data=[42, 100]),
   midi.NoteOnEvent(tick=40, channel=9, data=[38, 100]),
   midi.NoteOffEvent(tick=152, channel=9, data=[38, 100]),
   midi.NoteOnEvent(tick=40, channel=9, data=[38, 100]),
   midi.NoteOffEvent(tick=152, channel=9, data=[38, 100]),
   midi.NoteOnEvent(tick=40, channel=9, data=[38, 100]),
   midi.NoteOffEvent(tick=152, channel=9, data=[38, 100]),
   midi.NoteOnEvent(tick=40, channel=9, data=[38, 100]),
   midi.NoteOffEvent(tick=152, channel=9, data=[38, 100]),
   midi.NoteOnEvent(tick=40, channel=9, data=[36, 100]),
   midi.NoteOnEvent(tick=0, channel=9, data=[49, 100]),
   midi.NoteOffEvent(tick=152, channel=9, data=[36, 100]),
   midi.NoteOffEvent(tick=344, channel=9, data=[49, 100]),
   midi.NoteOnEvent(tick=80, channel=9, data=[49, 100]),
   midi.NoteOnEvent(tick=0, channel=9, data=[36, 100]),
   midi.NoteOffEvent(tick=304, channel=9, data=[49, 100]),
   midi.NoteOffEvent(tick=0, channel=9, data=[36, 100]),
   midi.NoteOnEvent(tick=80, channel=9, data=[42, 100]),
   midi.NoteOnEvent(tick=0, channel=9, data=[38, 100]),
   midi.NoteOnEvent(tick=192, channel=9, data=[36, 100]),
   midi.NoteOffEvent(tick=112, channel=9, data=[42, 100]),
   midi.NoteOffEvent(tick=0, channel=9, data=[38, 100]),
   midi.NoteOffEvent(tick=40, channel=9, data=[36, 100]),
   midi.NoteOnEvent(tick=40, channel=9, data=[42, 100]),
   midi.NoteOnEvent(tick=192, channel=9, data=[36, 100]),
   midi.NoteOffEvent(tick=112, channel=9, data=[42, 100]),
   midi.NoteOffEvent(tick=40, channel=9, data=[36, 100]),
   midi.NoteOnEvent(tick=40, channel=9, data=[38, 100]),
   midi.NoteOnEvent(tick=0, channel=9, data=[42, 100]),
   midi.NoteOffEvent(tick=304, channel=9, data=[38, 100]),
   midi.NoteOffEvent(tick=0, channel=9, data=[42, 100]),
   midi.NoteOnEvent(tick=80, channel=9, data=[42, 100]),
   midi.NoteOnEvent(tick=192, channel=9, data=[36, 100]),
   midi.NoteOffEvent(tick=112, channel=9, data=[42, 100]),
   midi.NoteOffEvent(tick=40, channel=9, data=[36, 100]),
   midi.NoteOnEvent(tick=40, channel=9, data=[38, 100]),
   midi.NoteOnEvent(tick=0, channel=9, data=[42, 100]),
   midi.NoteOffEvent(tick=304, channel=9, data=[38, 100]),
   midi.NoteOffEvent(tick=0, channel=9, data=[42, 100]),
   midi.NoteOnEvent(tick=80, channel=9, data=[49, 100]),
   midi.NoteOnEvent(tick=0, channel=9, data=[36, 100]),
   midi.NoteOffEvent(tick=304, channel=9, data=[49, 100]),
   midi.NoteOffEvent(tick=0, channel=9, data=[36, 100]),
   midi.NoteOnEvent(tick=80, channel=9, data=[36, 100]),
   midi.NoteOnEvent(tick=0, channel=9, data=[49, 100]),
   midi.NoteOffEvent(tick=304, channel=9, data=[36, 100]),
   midi.NoteOffEvent(tick=0, channel=9, data=[49, 100]),
   midi.NoteOnEvent(tick=80, channel=9, data=[49, 100]),
   midi.NoteOnEvent(tick=0, channel=9, data=[36, 100]),
   midi.NoteOffEvent(tick=304, channel=9, data=[49, 100]),
   midi.NoteOffEvent(tick=0, channel=9, data=[36, 100]),
   midi.NoteOnEvent(tick=80, channel=9, data=[38, 100]),
   midi.NoteOnEvent(tick=0, channel=9, data=[42, 100]),
   midi.NoteOnEvent(tick=192, channel=9, data=[36, 100]),
   midi.NoteOffEvent(tick=112, channel=9, data=[38, 100]),
   midi.NoteOffEvent(tick=0, channel=9, data=[42, 100]),
   midi.NoteOffEvent(tick=40, channel=9, data=[36, 100]),
   midi.NoteOnEvent(tick=40, channel=9, data=[42, 100]),
   midi.NoteOnEvent(tick=192, channel=9, data=[36, 100]),
   midi.NoteOffEvent(tick=112, channel=9, data=[42, 100]),
   midi.NoteOffEvent(tick=40, channel=9, data=[36, 100]),
   midi.NoteOnEvent(tick=40, channel=9, data=[42, 100]),
   midi.NoteOnEvent(tick=0, channel=9, data=[38, 100]),
   midi.NoteOffEvent(tick=304, channel=9, data=[42, 100]),
   midi.NoteOffEvent(tick=0, channel=9, data=[38, 100]),
   midi.NoteOnEvent(tick=80, channel=9, data=[42, 100]),
   midi.NoteOnEvent(tick=192, channel=9, data=[36, 100]),
   midi.NoteOffEvent(tick=112, channel=9, data=[42, 100]),
   midi.NoteOffEvent(tick=40, channel=9, data=[36, 100]),
   midi.NoteOnEvent(tick=40, channel=9, data=[42, 100]),
   midi.NoteOnEvent(tick=0, channel=9, data=[38, 100]),
   midi.NoteOffEvent(tick=304, channel=9, data=[42, 100]),
   midi.NoteOffEvent(tick=0, channel=9, data=[38, 100]),
   midi.NoteOnEvent(tick=80, channel=9, data=[42, 100]),
   midi.NoteOnEvent(tick=0, channel=9, data=[36, 100]),
   midi.NoteOffEvent(tick=152, channel=9, data=[36, 100]),
   midi.NoteOnEvent(tick=40, channel=9, data=[36, 100]),
   midi.NoteOffEvent(tick=112, channel=9, data=[42, 100]),
   midi.NoteOffEvent(tick=40, channel=9, data=[36, 100]),
   midi.NoteOnEvent(tick=40, channel=9, data=[38, 100]),
   midi.NoteOnEvent(tick=0, channel=9, data=[42, 100]),
   midi.NoteOffEvent(tick=304, channel=9, data=[38, 100]),
   midi.NoteOffEvent(tick=0, channel=9, data=[42, 100]),
   midi.NoteOnEvent(tick=80, channel=9, data=[36, 100]),
   midi.NoteOnEvent(tick=0, channel=9, data=[42, 100]),
   midi.NoteOffEvent(tick=152, channel=9, data=[36, 100]),
   midi.NoteOnEvent(tick=40, channel=9, data=[36, 100]),
   midi.NoteOffEvent(tick=112, channel=9, data=[42, 100]),
   midi.NoteOffEvent(tick=40, channel=9, data=[36, 100]),
   midi.NoteOnEvent(tick=40, channel=9, data=[42, 100]),
   midi.NoteOnEvent(tick=0, channel=9, data=[38, 100]),
   midi.NoteOnEvent(tick=192, channel=9, data=[36, 100]),
   midi.NoteOffEvent(tick=112, channel=9, data=[42, 100]),
   midi.NoteOffEvent(tick=0, channel=9, data=[38, 100]),
   midi.NoteOffEvent(tick=40, channel=9, data=[36, 100]),
   midi.NoteOnEvent(tick=40, channel=9, data=[42, 100]),
   midi.NoteOnEvent(tick=192, channel=9, data=[36, 100]),
   midi.NoteOffEvent(tick=112, channel=9, data=[42, 100]),
   midi.NoteOffEvent(tick=40, channel=9, data=[36, 100]),
   midi.NoteOnEvent(tick=40, channel=9, data=[42, 100]),
   midi.NoteOnEvent(tick=0, channel=9, data=[38, 100]),
   midi.NoteOffEvent(tick=304, channel=9, data=[42, 100]),
   midi.NoteOffEvent(tick=0, channel=9, data=[38, 100]),
   midi.NoteOnEvent(tick=80, channel=9, data=[42, 100]),
   midi.NoteOnEvent(tick=192, channel=9, data=[36, 100]),
   midi.NoteOffEvent(tick=112, channel=9, data=[42, 100]),
   midi.NoteOffEvent(tick=40, channel=9, data=[36, 100]),
   midi.NoteOnEvent(tick=40, channel=9, data=[42, 100]),
   midi.NoteOnEvent(tick=0, channel=9, data=[38, 100]),
   midi.NoteOffEvent(tick=304, channel=9, data=[42, 100]),
   midi.NoteOffEvent(tick=0, channel=9, data=[38, 100]),
   midi.NoteOnEvent(tick=80, channel=9, data=[42, 100]),
   midi.NoteOnEvent(tick=0, channel=9, data=[36, 100]),
   midi.NoteOffEvent(tick=152, channel=9, data=[36, 100]),
   midi.NoteOnEvent(tick=40, channel=9, data=[36, 100]),
   midi.NoteOffEvent(tick=112, channel=9, data=[42, 100]),
   midi.NoteOffEvent(tick=40, channel=9, data=[36, 100]),
   midi.NoteOnEvent(tick=40, channel=9, data=[42, 100]),
   midi.NoteOnEvent(tick=0, channel=9, data=[38, 100]),
   midi.NoteOffEvent(tick=304, channel=9, data=[42, 100]),
   midi.NoteOffEvent(tick=0, channel=9, data=[38, 100]),
   midi.NoteOnEvent(tick=80, channel=9, data=[49, 100]),
   midi.NoteOnEvent(tick=0, channel=9, data=[36, 100]),
   midi.NoteOffEvent(tick=304, channel=9, data=[49, 100]),
   midi.NoteOffEvent(tick=0, channel=9, data=[36, 100]),
   midi.NoteOnEvent(tick=80, channel=9, data=[38, 100]),
   midi.NoteOnEvent(tick=0, channel=9, data=[42, 100]),
   midi.NoteOnEvent(tick=192, channel=9, data=[36, 100]),
   midi.NoteOffEvent(tick=112, channel=9, data=[38, 100]),
   midi.NoteOffEvent(tick=0, channel=9, data=[42, 100]),
   midi.NoteOffEvent(tick=40, channel=9, data=[36, 100]),
   midi.NoteOnEvent(tick=40, channel=9, data=[42, 100]),
   midi.NoteOnEvent(tick=192, channel=9, data=[36, 100]),
   midi.NoteOffEvent(tick=112, channel=9, data=[42, 100]),
   midi.NoteOffEvent(tick=40, channel=9, data=[36, 100]),
   midi.NoteOnEvent(tick=40, channel=9, data=[38, 100]),
   midi.NoteOnEvent(tick=0, channel=9, data=[42, 100]),
   midi.NoteOffEvent(tick=304, channel=9, data=[38, 100]),
   midi.NoteOffEvent(tick=0, channel=9, data=[42, 100]),
   midi.NoteOnEvent(tick=80, channel=9, data=[42, 100]),
   midi.NoteOffEvent(tick=152, channel=9, data=[42, 100]),
   midi.NoteOnEvent(tick=40, channel=9, data=[38, 100]),
   midi.NoteOffEvent(tick=152, channel=9, data=[38, 100]),
   midi.NoteOnEvent(tick=40, channel=9, data=[38, 100]),
   midi.NoteOffEvent(tick=152, channel=9, data=[38, 100]),
   midi.NoteOnEvent(tick=40, channel=9, data=[38, 100]),
   midi.NoteOffEvent(tick=152, channel=9, data=[38, 100]),
   midi.NoteOnEvent(tick=40, channel=9, data=[38, 100]),
   midi.NoteOffEvent(tick=152, channel=9, data=[38, 100]),
   midi.NoteOnEvent(tick=40, channel=9, data=[49, 100]),
   midi.NoteOnEvent(tick=0, channel=9, data=[36, 100]),
   midi.NoteOffEvent(tick=152, channel=9, data=[36, 100]),
   midi.NoteOffEvent(tick=344, channel=9, data=[49, 100]),
   midi.NoteOnEvent(tick=80, channel=9, data=[49, 100]),
   midi.NoteOnEvent(tick=0, channel=9, data=[36, 100]),
   midi.NoteOffEvent(tick=304, channel=9, data=[49, 100]),
   midi.NoteOffEvent(tick=0, channel=9, data=[36, 100]),
   midi.NoteOnEvent(tick=80, channel=9, data=[38, 100]),
   midi.NoteOnEvent(tick=0, channel=9, data=[42, 100]),
   midi.NoteOnEvent(tick=192, channel=9, data=[36, 100]),
   midi.NoteOffEvent(tick=112, channel=9, data=[38, 100]),
   midi.NoteOffEvent(tick=0, channel=9, data=[42, 100]),
   midi.NoteOffEvent(tick=40, channel=9, data=[36, 100]),
   midi.NoteOnEvent(tick=40, channel=9, data=[42, 100]),
   midi.NoteOnEvent(tick=192, channel=9, data=[36, 100]),
   midi.NoteOffEvent(tick=112, channel=9, data=[42, 100]),
   midi.NoteOffEvent(tick=40, channel=9, data=[36, 100]),
   midi.NoteOnEvent(tick=40, channel=9, data=[38, 100]),
   midi.NoteOnEvent(tick=0, channel=9, data=[42, 100]),
   midi.NoteOffEvent(tick=304, channel=9, data=[38, 100]),
   midi.NoteOffEvent(tick=0, channel=9, data=[42, 100]),
   midi.NoteOnEvent(tick=80, channel=9, data=[42, 100]),
   midi.NoteOnEvent(tick=192, channel=9, data=[36, 100]),
   midi.NoteOffEvent(tick=112, channel=9, data=[42, 100]),
   midi.NoteOffEvent(tick=40, channel=9, data=[36, 100]),
   midi.NoteOnEvent(tick=40, channel=9, data=[38, 100]),
   midi.NoteOnEvent(tick=0, channel=9, data=[42, 100]),
   midi.NoteOffEvent(tick=304, channel=9, data=[38, 100]),
   midi.NoteOffEvent(tick=0, channel=9, data=[42, 100]),
   midi.NoteOnEvent(tick=80, channel=9, data=[49, 100]),
   midi.NoteOnEvent(tick=0, channel=9, data=[36, 100]),
   midi.NoteOffEvent(tick=304, channel=9, data=[49, 100]),
   midi.NoteOffEvent(tick=0, channel=9, data=[36, 100]),
   midi.NoteOnEvent(tick=80, channel=9, data=[36, 100]),
   midi.NoteOnEvent(tick=0, channel=9, data=[49, 100]),
   midi.NoteOffEvent(tick=304, channel=9, data=[36, 100]),
   midi.NoteOffEvent(tick=0, channel=9, data=[49, 100]),
   midi.NoteOnEvent(tick=80, channel=9, data=[49, 100]),
   midi.NoteOnEvent(tick=0, channel=9, data=[36, 100]),
   midi.NoteOffEvent(tick=304, channel=9, data=[49, 100]),
   midi.NoteOffEvent(tick=0, channel=9, data=[36, 100]),
   midi.NoteOnEvent(tick=80, channel=9, data=[38, 100]),
   midi.NoteOnEvent(tick=0, channel=9, data=[42, 100]),
   midi.NoteOnEvent(tick=192, channel=9, data=[36, 100]),
   midi.NoteOffEvent(tick=112, channel=9, data=[38, 100]),
   midi.NoteOffEvent(tick=0, channel=9, data=[42, 100]),
   midi.NoteOffEvent(tick=40, channel=9, data=[36, 100]),
   midi.NoteOnEvent(tick=40, channel=9, data=[42, 100]),
   midi.NoteOnEvent(tick=192, channel=9, data=[36, 100]),
   midi.NoteOffEvent(tick=112, channel=9, data=[42, 100]),
   midi.NoteOffEvent(tick=40, channel=9, data=[36, 100]),
   midi.NoteOnEvent(tick=40, channel=9, data=[38, 100]),
   midi.NoteOnEvent(tick=0, channel=9, data=[42, 100]),
   midi.NoteOffEvent(tick=304, channel=9, data=[38, 100]),
   midi.NoteOffEvent(tick=0, channel=9, data=[42, 100]),
   midi.NoteOnEvent(tick=80, channel=9, data=[42, 100]),
   midi.NoteOnEvent(tick=192, channel=9, data=[36, 100]),
   midi.NoteOffEvent(tick=112, channel=9, data=[42, 100]),
   midi.NoteOffEvent(tick=40, channel=9, data=[36, 100]),
   midi.NoteOnEvent(tick=40, channel=9, data=[42, 100]),
   midi.NoteOnEvent(tick=0, channel=9, data=[38, 100]),
   midi.NoteOffEvent(tick=304, channel=9, data=[42, 100]),
   midi.NoteOffEvent(tick=0, channel=9, data=[38, 100]),
   midi.NoteOnEvent(tick=80, channel=9, data=[36, 100]),
   midi.NoteOnEvent(tick=0, channel=9, data=[42, 100]),
   midi.NoteOffEvent(tick=152, channel=9, data=[36, 100]),
   midi.NoteOnEvent(tick=40, channel=9, data=[36, 100]),
   midi.NoteOffEvent(tick=112, channel=9, data=[42, 100]),
   midi.NoteOffEvent(tick=40, channel=9, data=[36, 100]),
   midi.NoteOnEvent(tick=40, channel=9, data=[42, 100]),
   midi.NoteOnEvent(tick=0, channel=9, data=[38, 100]),
   midi.NoteOffEvent(tick=304, channel=9, data=[42, 100]),
   midi.NoteOffEvent(tick=0, channel=9, data=[38, 100]),
   midi.NoteOnEvent(tick=80, channel=9, data=[36, 100]),
   midi.NoteOnEvent(tick=0, channel=9, data=[42, 100]),
   midi.NoteOffEvent(tick=152, channel=9, data=[36, 100]),
   midi.NoteOnEvent(tick=40, channel=9, data=[36, 100]),
   midi.NoteOffEvent(tick=112, channel=9, data=[42, 100]),
   midi.NoteOffEvent(tick=40, channel=9, data=[36, 100]),
   midi.NoteOnEvent(tick=40, channel=9, data=[38, 100]),
   midi.NoteOnEvent(tick=0, channel=9, data=[42, 100]),
   midi.NoteOnEvent(tick=192, channel=9, data=[36, 100]),
   midi.NoteOffEvent(tick=112, channel=9, data=[38, 100]),
   midi.NoteOffEvent(tick=0, channel=9, data=[42, 100]),
   midi.NoteOffEvent(tick=40, channel=9, data=[36, 100]),
   midi.NoteOnEvent(tick=40, channel=9, data=[42, 100]),
   midi.NoteOnEvent(tick=192, channel=9, data=[36, 100]),
   midi.NoteOffEvent(tick=112, channel=9, data=[42, 100]),
   midi.NoteOffEvent(tick=40, channel=9, data=[36, 100]),
   midi.NoteOnEvent(tick=40, channel=9, data=[42, 100]),
   midi.NoteOnEvent(tick=0, channel=9, data=[38, 100]),
   midi.NoteOffEvent(tick=304, channel=9, data=[42, 100]),
   midi.NoteOffEvent(tick=0, channel=9, data=[38, 100]),
   midi.NoteOnEvent(tick=80, channel=9, data=[42, 100]),
   midi.NoteOnEvent(tick=192, channel=9, data=[36, 100]),
   midi.NoteOffEvent(tick=112, channel=9, data=[42, 100]),
   midi.NoteOffEvent(tick=40, channel=9, data=[36, 100]),
   midi.NoteOnEvent(tick=40, channel=9, data=[38, 100]),
   midi.NoteOnEvent(tick=0, channel=9, data=[42, 100]),
   midi.NoteOffEvent(tick=304, channel=9, data=[38, 100]),
   midi.NoteOffEvent(tick=0, channel=9, data=[42, 100]),
   midi.NoteOnEvent(tick=80, channel=9, data=[36, 100]),
   midi.NoteOnEvent(tick=0, channel=9, data=[42, 100]),
   midi.NoteOffEvent(tick=152, channel=9, data=[36, 100]),
   midi.NoteOnEvent(tick=40, channel=9, data=[36, 100]),
   midi.NoteOffEvent(tick=112, channel=9, data=[42, 100]),
   midi.NoteOffEvent(tick=40, channel=9, data=[36, 100]),
   midi.NoteOnEvent(tick=40, channel=9, data=[42, 100]),
   midi.NoteOnEvent(tick=0, channel=9, data=[38, 100]),
   midi.NoteOffEvent(tick=304, channel=9, data=[42, 100]),
   midi.NoteOffEvent(tick=0, channel=9, data=[38, 100]),
   midi.NoteOnEvent(tick=80, channel=9, data=[36, 100]),
   midi.NoteOnEvent(tick=0, channel=9, data=[42, 100]),
   midi.NoteOffEvent(tick=152, channel=9, data=[36, 100]),
   midi.NoteOnEvent(tick=40, channel=9, data=[36, 100]),
   midi.NoteOffEvent(tick=112, channel=9, data=[42, 100]),
   midi.NoteOffEvent(tick=40, channel=9, data=[36, 100]),
   midi.NoteOnEvent(tick=40, channel=9, data=[38, 100]),
   midi.NoteOnEvent(tick=0, channel=9, data=[42, 100]),
   midi.NoteOnEvent(tick=192, channel=9, data=[36, 100]),
   midi.NoteOffEvent(tick=112, channel=9, data=[38, 100]),
   midi.NoteOffEvent(tick=0, channel=9, data=[42, 100]),
   midi.NoteOffEvent(tick=40, channel=9, data=[36, 100]),
   midi.NoteOnEvent(tick=40, channel=9, data=[42, 100]),
   midi.NoteOnEvent(tick=192, channel=9, data=[36, 100]),
   midi.NoteOffEvent(tick=112, channel=9, data=[42, 100]),
   midi.NoteOffEvent(tick=40, channel=9, data=[36, 100]),
   midi.NoteOnEvent(tick=40, channel=9, data=[42, 100]),
   midi.NoteOnEvent(tick=0, channel=9, data=[38, 100]),
   midi.NoteOffEvent(tick=304, channel=9, data=[42, 100]),
   midi.NoteOffEvent(tick=0, channel=9, data=[38, 100]),
   midi.NoteOnEvent(tick=80, channel=9, data=[42, 100]),
   midi.NoteOnEvent(tick=192, channel=9, data=[36, 100]),
   midi.NoteOffEvent(tick=112, channel=9, data=[42, 100]),
   midi.NoteOffEvent(tick=40, channel=9, data=[36, 100]),
   midi.NoteOnEvent(tick=40, channel=9, data=[38, 100]),
   midi.NoteOnEvent(tick=0, channel=9, data=[42, 100]),
   midi.NoteOffEvent(tick=304, channel=9, data=[38, 100]),
   midi.NoteOffEvent(tick=0, channel=9, data=[42, 100]),
   midi.NoteOnEvent(tick=80, channel=9, data=[42, 100]),
   midi.NoteOnEvent(tick=0, channel=9, data=[36, 100]),
   midi.NoteOffEvent(tick=152, channel=9, data=[36, 100]),
   midi.NoteOnEvent(tick=40, channel=9, data=[36, 100]),
   midi.NoteOffEvent(tick=112, channel=9, data=[42, 100]),
   midi.NoteOffEvent(tick=40, channel=9, data=[36, 100]),
   midi.NoteOnEvent(tick=40, channel=9, data=[38, 100]),
   midi.NoteOnEvent(tick=0, channel=9, data=[42, 100]),
   midi.NoteOffEvent(tick=304, channel=9, data=[38, 100]),
   midi.NoteOffEvent(tick=0, channel=9, data=[42, 100]),
   midi.NoteOnEvent(tick=80, channel=9, data=[36, 100]),
   midi.NoteOnEvent(tick=0, channel=9, data=[42, 100]),
   midi.NoteOffEvent(tick=152, channel=9, data=[36, 100]),
   midi.NoteOnEvent(tick=40, channel=9, data=[36, 100]),
   midi.NoteOffEvent(tick=112, channel=9, data=[42, 100]),
   midi.NoteOffEvent(tick=40, channel=9, data=[36, 100]),
   midi.NoteOnEvent(tick=40, channel=9, data=[38, 100]),
   midi.NoteOnEvent(tick=0, channel=9, data=[42, 100]),
   midi.NoteOnEvent(tick=192, channel=9, data=[36, 100]),
   midi.NoteOffEvent(tick=112, channel=9, data=[38, 100]),
   midi.NoteOffEvent(tick=0, channel=9, data=[42, 100]),
   midi.NoteOffEvent(tick=40, channel=9, data=[36, 100]),
   midi.NoteOnEvent(tick=40, channel=9, data=[42, 100]),
   midi.NoteOnEvent(tick=192, channel=9, data=[36, 100]),
   midi.NoteOffEvent(tick=76, channel=9, data=[36, 100]),
   midi.NoteOnEvent(tick=20, channel=9, data=[36, 100]),
   midi.NoteOffEvent(tick=16, channel=9, data=[42, 100]),
   midi.NoteOffEvent(tick=60, channel=9, data=[36, 100]),
   midi.NoteOnEvent(tick=20, channel=9, data=[49, 100]),
   midi.NoteOnEvent(tick=0, channel=9, data=[38, 100]),
   midi.NoteOffEvent(tick=304, channel=9, data=[38, 100]),
   midi.NoteOffEvent(tick=232, channel=9, data=[49, 100]),
   midi.NoteOnEvent(tick=40, channel=9, data=[36, 100]),
   midi.NoteOnEvent(tick=0, channel=9, data=[49, 100]),
   midi.NoteOffEvent(tick=152, channel=9, data=[36, 100]),
   midi.NoteOffEvent(tick=344, channel=9, data=[49, 100]),
   midi.NoteOnEvent(tick=80, channel=9, data=[36, 100]),
   midi.NoteOnEvent(tick=0, channel=9, data=[49, 100]),
   midi.NoteOffEvent(tick=304, channel=9, data=[36, 100]),
   midi.NoteOffEvent(tick=0, channel=9, data=[49, 100]),
   midi.NoteOnEvent(tick=80, channel=9, data=[36, 100]),
   midi.NoteOnEvent(tick=0, channel=9, data=[49, 100]),
   midi.NoteOffEvent(tick=304, channel=9, data=[36, 100]),
   midi.NoteOffEvent(tick=0, channel=9, data=[49, 100]),
   midi.NoteOnEvent(tick=80, channel=9, data=[36, 100]),
   midi.NoteOnEvent(tick=0, channel=9, data=[49, 100]),
   midi.NoteOffEvent(tick=304, channel=9, data=[36, 100]),
   midi.NoteOffEvent(tick=0, channel=9, data=[49, 100]),
   midi.NoteOnEvent(tick=80, channel=9, data=[42, 100]),
   midi.NoteOnEvent(tick=0, channel=9, data=[38, 100]),
   midi.NoteOnEvent(tick=192, channel=9, data=[36, 100]),
   midi.NoteOffEvent(tick=112, channel=9, data=[42, 100]),
   midi.NoteOffEvent(tick=0, channel=9, data=[38, 100]),
   midi.NoteOffEvent(tick=40, channel=9, data=[36, 100]),
   midi.NoteOnEvent(tick=40, channel=9, data=[42, 100]),
   midi.NoteOnEvent(tick=192, channel=9, data=[36, 100]),
   midi.NoteOffEvent(tick=112, channel=9, data=[42, 100]),
   midi.NoteOffEvent(tick=40, channel=9, data=[36, 100]),
   midi.NoteOnEvent(tick=40, channel=9, data=[38, 100]),
   midi.NoteOnEvent(tick=0, channel=9, data=[42, 100]),
   midi.NoteOffEvent(tick=304, channel=9, data=[38, 100]),
   midi.NoteOffEvent(tick=0, channel=9, data=[42, 100]),
   midi.NoteOnEvent(tick=80, channel=9, data=[42, 100]),
   midi.NoteOnEvent(tick=192, channel=9, data=[36, 100]),
   midi.NoteOffEvent(tick=112, channel=9, data=[42, 100]),
   midi.NoteOffEvent(tick=40, channel=9, data=[36, 100]),
   midi.NoteOnEvent(tick=40, channel=9, data=[42, 100]),
   midi.NoteOnEvent(tick=0, channel=9, data=[38, 100]),
   midi.NoteOffEvent(tick=304, channel=9, data=[42, 100]),
   midi.NoteOffEvent(tick=0, channel=9, data=[38, 100]),
   midi.NoteOnEvent(tick=80, channel=9, data=[42, 100]),
   midi.NoteOnEvent(tick=0, channel=9, data=[36, 100]),
   midi.NoteOffEvent(tick=152, channel=9, data=[36, 100]),
   midi.NoteOnEvent(tick=40, channel=9, data=[36, 100]),
   midi.NoteOffEvent(tick=112, channel=9, data=[42, 100]),
   midi.NoteOffEvent(tick=40, channel=9, data=[36, 100]),
   midi.NoteOnEvent(tick=40, channel=9, data=[38, 100]),
   midi.NoteOnEvent(tick=0, channel=9, data=[42, 100]),
   midi.NoteOffEvent(tick=304, channel=9, data=[38, 100]),
   midi.NoteOffEvent(tick=0, channel=9, data=[42, 100]),
   midi.NoteOnEvent(tick=80, channel=9, data=[42, 100]),
   midi.NoteOnEvent(tick=0, channel=9, data=[36, 100]),
   midi.NoteOffEvent(tick=152, channel=9, data=[36, 100]),
   midi.NoteOnEvent(tick=40, channel=9, data=[36, 100]),
   midi.NoteOffEvent(tick=112, channel=9, data=[42, 100]),
   midi.NoteOffEvent(tick=40, channel=9, data=[36, 100]),
   midi.NoteOnEvent(tick=40, channel=9, data=[42, 100]),
   midi.NoteOnEvent(tick=0, channel=9, data=[38, 100]),
   midi.NoteOnEvent(tick=192, channel=9, data=[36, 100]),
   midi.NoteOffEvent(tick=112, channel=9, data=[42, 100]),
   midi.NoteOffEvent(tick=0, channel=9, data=[38, 100]),
   midi.NoteOffEvent(tick=40, channel=9, data=[36, 100]),
   midi.NoteOnEvent(tick=40, channel=9, data=[42, 100]),
   midi.NoteOnEvent(tick=192, channel=9, data=[36, 100]),
   midi.NoteOffEvent(tick=112, channel=9, data=[42, 100]),
   midi.NoteOffEvent(tick=40, channel=9, data=[36, 100]),
   midi.NoteOnEvent(tick=40, channel=9, data=[42, 100]),
   midi.NoteOnEvent(tick=0, channel=9, data=[38, 100]),
   midi.NoteOffEvent(tick=304, channel=9, data=[42, 100]),
   midi.NoteOffEvent(tick=0, channel=9, data=[38, 100]),
   midi.NoteOnEvent(tick=80, channel=9, data=[42, 100]),
   midi.NoteOnEvent(tick=192, channel=9, data=[36, 100]),
   midi.NoteOffEvent(tick=112, channel=9, data=[42, 100]),
   midi.NoteOffEvent(tick=40, channel=9, data=[36, 100]),
   midi.NoteOnEvent(tick=40, channel=9, data=[42, 100]),
   midi.NoteOnEvent(tick=0, channel=9, data=[38, 100]),
   midi.NoteOffEvent(tick=304, channel=9, data=[42, 100]),
   midi.NoteOffEvent(tick=0, channel=9, data=[38, 100]),
   midi.NoteOnEvent(tick=80, channel=9, data=[36, 100]),
   midi.NoteOnEvent(tick=0, channel=9, data=[42, 100]),
   midi.NoteOffEvent(tick=152, channel=9, data=[36, 100]),
   midi.NoteOnEvent(tick=40, channel=9, data=[36, 100]),
   midi.NoteOffEvent(tick=112, channel=9, data=[42, 100]),
   midi.NoteOffEvent(tick=40, channel=9, data=[36, 100]),
   midi.NoteOnEvent(tick=40, channel=9, data=[42, 100]),
   midi.NoteOnEvent(tick=0, channel=9, data=[38, 100]),
   midi.NoteOffEvent(tick=304, channel=9, data=[42, 100]),
   midi.NoteOffEvent(tick=0, channel=9, data=[38, 100]),
   midi.NoteOnEvent(tick=80, channel=9, data=[49, 100]),
   midi.NoteOnEvent(tick=0, channel=9, data=[36, 100]),
   midi.NoteOffEvent(tick=304, channel=9, data=[49, 100]),
   midi.NoteOffEvent(tick=0, channel=9, data=[36, 100]),
   midi.NoteOnEvent(tick=80, channel=9, data=[42, 100]),
   midi.NoteOnEvent(tick=0, channel=9, data=[38, 100]),
   midi.NoteOnEvent(tick=192, channel=9, data=[36, 100]),
   midi.NoteOffEvent(tick=112, channel=9, data=[42, 100]),
   midi.NoteOffEvent(tick=0, channel=9, data=[38, 100]),
   midi.NoteOffEvent(tick=40, channel=9, data=[36, 100]),
   midi.NoteOnEvent(tick=40, channel=9, data=[42, 100]),
   midi.NoteOnEvent(tick=192, channel=9, data=[36, 100]),
   midi.NoteOffEvent(tick=112, channel=9, data=[42, 100]),
   midi.NoteOffEvent(tick=40, channel=9, data=[36, 100]),
   midi.NoteOnEvent(tick=40, channel=9, data=[38, 100]),
   midi.NoteOnEvent(tick=0, channel=9, data=[42, 100]),
   midi.NoteOffEvent(tick=304, channel=9, data=[38, 100]),
   midi.NoteOffEvent(tick=0, channel=9, data=[42, 100]),
   midi.NoteOnEvent(tick=80, channel=9, data=[42, 100]),
   midi.NoteOffEvent(tick=152, channel=9, data=[42, 100]),
   midi.NoteOnEvent(tick=40, channel=9, data=[38, 100]),
   midi.NoteOffEvent(tick=152, channel=9, data=[38, 100]),
   midi.NoteOnEvent(tick=40, channel=9, data=[38, 100]),
   midi.NoteOffEvent(tick=152, channel=9, data=[38, 100]),
   midi.NoteOnEvent(tick=40, channel=9, data=[38, 100]),
   midi.NoteOffEvent(tick=152, channel=9, data=[38, 100]),
   midi.NoteOnEvent(tick=40, channel=9, data=[38, 100]),
   midi.NoteOffEvent(tick=152, channel=9, data=[38, 100]),
   midi.NoteOnEvent(tick=40, channel=9, data=[36, 100]),
   midi.NoteOnEvent(tick=0, channel=9, data=[49, 100]),
   midi.NoteOffEvent(tick=152, channel=9, data=[36, 100]),
   midi.NoteOffEvent(tick=344, channel=9, data=[49, 100]),
   midi.NoteOnEvent(tick=80, channel=9, data=[36, 100]),
   midi.NoteOnEvent(tick=0, channel=9, data=[49, 100]),
   midi.NoteOffEvent(tick=304, channel=9, data=[36, 100]),
   midi.NoteOffEvent(tick=0, channel=9, data=[49, 100]),
   midi.NoteOnEvent(tick=80, channel=9, data=[38, 100]),
   midi.NoteOnEvent(tick=0, channel=9, data=[42, 100]),
   midi.NoteOnEvent(tick=192, channel=9, data=[36, 100]),
   midi.NoteOffEvent(tick=112, channel=9, data=[38, 100]),
   midi.NoteOffEvent(tick=0, channel=9, data=[42, 100]),
   midi.NoteOffEvent(tick=40, channel=9, data=[36, 100]),
   midi.NoteOnEvent(tick=40, channel=9, data=[42, 100]),
   midi.NoteOnEvent(tick=192, channel=9, data=[36, 100]),
   midi.NoteOffEvent(tick=112, channel=9, data=[42, 100]),
   midi.NoteOffEvent(tick=40, channel=9, data=[36, 100]),
   midi.NoteOnEvent(tick=40, channel=9, data=[38, 100]),
   midi.NoteOnEvent(tick=0, channel=9, data=[42, 100]),
   midi.NoteOffEvent(tick=304, channel=9, data=[38, 100]),
   midi.NoteOffEvent(tick=0, channel=9, data=[42, 100]),
   midi.NoteOnEvent(tick=80, channel=9, data=[42, 100]),
   midi.NoteOffEvent(tick=152, channel=9, data=[42, 100]),
   midi.NoteOnEvent(tick=40, channel=9, data=[47, 100]),
   midi.NoteOffEvent(tick=152, channel=9, data=[47, 100]),
   midi.NoteOnEvent(tick=40, channel=9, data=[47, 100]),
   midi.NoteOffEvent(tick=152, channel=9, data=[47, 100]),
   midi.NoteOnEvent(tick=40, channel=9, data=[47, 100]),
   midi.NoteOffEvent(tick=152, channel=9, data=[47, 100]),
   midi.NoteOnEvent(tick=40, channel=9, data=[45, 100]),
   midi.NoteOffEvent(tick=152, channel=9, data=[45, 100]),
   midi.NoteOnEvent(tick=40, channel=9, data=[45, 100]),
   midi.NoteOffEvent(tick=152, channel=9, data=[45, 100]),
   midi.NoteOnEvent(tick=8, channel=9, data=[38, 100]),
   midi.NoteOffEvent(tick=32, channel=9, data=[38, 100]),
   midi.NoteOnEvent(tick=0, channel=9, data=[38, 100]),
   midi.NoteOffEvent(tick=304, channel=9, data=[38, 100]),
   midi.NoteOnEvent(tick=80, channel=9, data=[36, 100]),
   midi.NoteOnEvent(tick=0, channel=9, data=[49, 100]),
   midi.NoteOffEvent(tick=304, channel=9, data=[36, 100]),
   midi.NoteOffEvent(tick=232, channel=9, data=[49, 100]),
   midi.NoteOnEvent(tick=40, channel=9, data=[36, 100]),
   midi.NoteOnEvent(tick=0, channel=9, data=[49, 100]),
   midi.NoteOffEvent(tick=152, channel=9, data=[36, 100]),
   midi.NoteOffEvent(tick=344, channel=9, data=[49, 100]),
   midi.NoteOnEvent(tick=80, channel=9, data=[49, 100]),
   midi.NoteOnEvent(tick=0, channel=9, data=[36, 100]),
   midi.NoteOffEvent(tick=304, channel=9, data=[36, 100]),
   midi.NoteOffEvent(tick=232, channel=9, data=[49, 100]),
   midi.NoteOnEvent(tick=40, channel=9, data=[36, 100]),
   midi.NoteOnEvent(tick=0, channel=9, data=[49, 100]),
   midi.NoteOffEvent(tick=152, channel=9, data=[36, 100]),
   midi.NoteOffEvent(tick=344, channel=9, data=[49, 100]),
   midi.NoteOnEvent(tick=80, channel=9, data=[49, 100]),
   midi.NoteOnEvent(tick=0, channel=9, data=[36, 100]),
   midi.NoteOffEvent(tick=304, channel=9, data=[49, 100]),
   midi.NoteOffEvent(tick=0, channel=9, data=[36, 100]),
   midi.NoteOnEvent(tick=80, channel=9, data=[49, 100]),
   midi.NoteOnEvent(tick=0, channel=9, data=[36, 100]),
   midi.NoteOffEvent(tick=304, channel=9, data=[49, 100]),
   midi.NoteOffEvent(tick=0, channel=9, data=[36, 100]),
   midi.NoteOnEvent(tick=80, channel=9, data=[36, 100]),
   midi.NoteOnEvent(tick=0, channel=9, data=[49, 100]),
   midi.NoteOffEvent(tick=304, channel=9, data=[36, 100]),
   midi.NoteOffEvent(tick=0, channel=9, data=[49, 100]),
   midi.NoteOnEvent(tick=11984, channel=9, data=[49, 100]),
   midi.NoteOnEvent(tick=0, channel=9, data=[36, 100]),
   midi.NoteOffEvent(tick=304, channel=9, data=[49, 100]),
   midi.NoteOffEvent(tick=0, channel=9, data=[36, 100]),
   midi.NoteOnEvent(tick=80, channel=9, data=[42, 100]),
   midi.NoteOnEvent(tick=0, channel=9, data=[38, 100]),
   midi.NoteOnEvent(tick=192, channel=9, data=[36, 100]),
   midi.NoteOffEvent(tick=112, channel=9, data=[42, 100]),
   midi.NoteOffEvent(tick=0, channel=9, data=[38, 100]),
   midi.NoteOffEvent(tick=40, channel=9, data=[36, 100]),
   midi.NoteOnEvent(tick=40, channel=9, data=[42, 100]),
   midi.NoteOnEvent(tick=192, channel=9, data=[36, 100]),
   midi.NoteOffEvent(tick=112, channel=9, data=[42, 100]),
   midi.NoteOffEvent(tick=40, channel=9, data=[36, 100]),
   midi.NoteOnEvent(tick=40, channel=9, data=[38, 100]),
   midi.NoteOnEvent(tick=0, channel=9, data=[42, 100]),
   midi.NoteOffEvent(tick=304, channel=9, data=[38, 100]),
   midi.NoteOffEvent(tick=0, channel=9, data=[42, 100]),
   midi.NoteOnEvent(tick=80, channel=9, data=[42, 100]),
   midi.NoteOnEvent(tick=192, channel=9, data=[36, 100]),
   midi.NoteOffEvent(tick=112, channel=9, data=[42, 100]),
   midi.NoteOffEvent(tick=40, channel=9, data=[36, 100]),
   midi.NoteOnEvent(tick=40, channel=9, data=[38, 100]),
   midi.NoteOnEvent(tick=0, channel=9, data=[42, 100]),
   midi.NoteOffEvent(tick=304, channel=9, data=[38, 100]),
   midi.NoteOffEvent(tick=0, channel=9, data=[42, 100]),
   midi.NoteOnEvent(tick=80, channel=9, data=[36, 100]),
   midi.NoteOnEvent(tick=0, channel=9, data=[42, 100]),
   midi.NoteOffEvent(tick=152, channel=9, data=[36, 100]),
   midi.NoteOnEvent(tick=40, channel=9, data=[36, 100]),
   midi.NoteOffEvent(tick=112, channel=9, data=[42, 100]),
   midi.NoteOffEvent(tick=40, channel=9, data=[36, 100]),
   midi.NoteOnEvent(tick=40, channel=9, data=[38, 100]),
   midi.NoteOnEvent(tick=0, channel=9, data=[42, 100]),
   midi.NoteOffEvent(tick=304, channel=9, data=[38, 100]),
   midi.NoteOffEvent(tick=0, channel=9, data=[42, 100]),
   midi.NoteOnEvent(tick=80, channel=9, data=[36, 100]),
   midi.NoteOnEvent(tick=0, channel=9, data=[42, 100]),
   midi.NoteOffEvent(tick=152, channel=9, data=[36, 100]),
   midi.NoteOnEvent(tick=40, channel=9, data=[36, 100]),
   midi.NoteOffEvent(tick=112, channel=9, data=[42, 100]),
   midi.NoteOffEvent(tick=40, channel=9, data=[36, 100]),
   midi.NoteOnEvent(tick=40, channel=9, data=[42, 100]),
   midi.NoteOnEvent(tick=0, channel=9, data=[38, 100]),
   midi.NoteOnEvent(tick=192, channel=9, data=[36, 100]),
   midi.NoteOffEvent(tick=112, channel=9, data=[42, 100]),
   midi.NoteOffEvent(tick=0, channel=9, data=[38, 100]),
   midi.NoteOffEvent(tick=40, channel=9, data=[36, 100]),
   midi.NoteOnEvent(tick=40, channel=9, data=[42, 100]),
   midi.NoteOnEvent(tick=192, channel=9, data=[36, 100]),
   midi.NoteOffEvent(tick=112, channel=9, data=[42, 100]),
   midi.NoteOffEvent(tick=40, channel=9, data=[36, 100]),
   midi.NoteOnEvent(tick=40, channel=9, data=[42, 100]),
   midi.NoteOnEvent(tick=0, channel=9, data=[38, 100]),
   midi.NoteOffEvent(tick=304, channel=9, data=[42, 100]),
   midi.NoteOffEvent(tick=0, channel=9, data=[38, 100]),
   midi.NoteOnEvent(tick=80, channel=9, data=[42, 100]),
   midi.NoteOnEvent(tick=192, channel=9, data=[36, 100]),
   midi.NoteOffEvent(tick=112, channel=9, data=[42, 100]),
   midi.NoteOffEvent(tick=40, channel=9, data=[36, 100]),
   midi.NoteOnEvent(tick=40, channel=9, data=[42, 100]),
   midi.NoteOnEvent(tick=0, channel=9, data=[38, 100]),
   midi.NoteOffEvent(tick=304, channel=9, data=[42, 100]),
   midi.NoteOffEvent(tick=0, channel=9, data=[38, 100]),
   midi.NoteOnEvent(tick=80, channel=9, data=[36, 100]),
   midi.NoteOnEvent(tick=0, channel=9, data=[42, 100]),
   midi.NoteOffEvent(tick=152, channel=9, data=[36, 100]),
   midi.NoteOnEvent(tick=40, channel=9, data=[36, 100]),
   midi.NoteOffEvent(tick=112, channel=9, data=[42, 100]),
   midi.NoteOffEvent(tick=40, channel=9, data=[36, 100]),
   midi.NoteOnEvent(tick=40, channel=9, data=[38, 100]),
   midi.NoteOnEvent(tick=0, channel=9, data=[42, 100]),
   midi.NoteOffEvent(tick=304, channel=9, data=[38, 100]),
   midi.NoteOffEvent(tick=0, channel=9, data=[42, 100]),
   midi.NoteOnEvent(tick=80, channel=9, data=[42, 100]),
   midi.NoteOnEvent(tick=0, channel=9, data=[36, 100]),
   midi.NoteOffEvent(tick=152, channel=9, data=[36, 100]),
   midi.NoteOnEvent(tick=40, channel=9, data=[36, 100]),
   midi.NoteOffEvent(tick=112, channel=9, data=[42, 100]),
   midi.NoteOffEvent(tick=40, channel=9, data=[36, 100]),
   midi.NoteOnEvent(tick=40, channel=9, data=[38, 100]),
   midi.NoteOnEvent(tick=0, channel=9, data=[42, 100]),
   midi.NoteOnEvent(tick=192, channel=9, data=[36, 100]),
   midi.NoteOffEvent(tick=112, channel=9, data=[38, 100]),
   midi.NoteOffEvent(tick=0, channel=9, data=[42, 100]),
   midi.NoteOffEvent(tick=40, channel=9, data=[36, 100]),
   midi.NoteOnEvent(tick=40, channel=9, data=[42, 100]),
   midi.NoteOnEvent(tick=192, channel=9, data=[36, 100]),
   midi.NoteOffEvent(tick=112, channel=9, data=[42, 100]),
   midi.NoteOffEvent(tick=40, channel=9, data=[36, 100]),
   midi.NoteOnEvent(tick=40, channel=9, data=[38, 100]),
   midi.NoteOnEvent(tick=0, channel=9, data=[42, 100]),
   midi.NoteOffEvent(tick=304, channel=9, data=[38, 100]),
   midi.NoteOffEvent(tick=0, channel=9, data=[42, 100]),
   midi.NoteOnEvent(tick=80, channel=9, data=[42, 100]),
   midi.NoteOnEvent(tick=192, channel=9, data=[36, 100]),
   midi.NoteOffEvent(tick=112, channel=9, data=[42, 100]),
   midi.NoteOffEvent(tick=40, channel=9, data=[36, 100]),
   midi.NoteOnEvent(tick=40, channel=9, data=[42, 100]),
   midi.NoteOnEvent(tick=0, channel=9, data=[38, 100]),
   midi.NoteOffEvent(tick=304, channel=9, data=[42, 100]),
   midi.NoteOffEvent(tick=0, channel=9, data=[38, 100]),
   midi.NoteOnEvent(tick=80, channel=9, data=[36, 100]),
   midi.NoteOnEvent(tick=0, channel=9, data=[42, 100]),
   midi.NoteOffEvent(tick=152, channel=9, data=[36, 100]),
   midi.NoteOnEvent(tick=40, channel=9, data=[36, 100]),
   midi.NoteOffEvent(tick=112, channel=9, data=[42, 100]),
   midi.NoteOffEvent(tick=40, channel=9, data=[36, 100]),
   midi.NoteOnEvent(tick=40, channel=9, data=[38, 100]),
   midi.NoteOnEvent(tick=0, channel=9, data=[42, 100]),
   midi.NoteOffEvent(tick=304, channel=9, data=[38, 100]),
   midi.NoteOffEvent(tick=0, channel=9, data=[42, 100]),
   midi.NoteOnEvent(tick=80, channel=9, data=[42, 100]),
   midi.NoteOnEvent(tick=0, channel=9, data=[36, 100]),
   midi.NoteOffEvent(tick=152, channel=9, data=[36, 100]),
   midi.NoteOnEvent(tick=40, channel=9, data=[36, 100]),
   midi.NoteOffEvent(tick=112, channel=9, data=[42, 100]),
   midi.NoteOffEvent(tick=40, channel=9, data=[36, 100]),
   midi.NoteOnEvent(tick=40, channel=9, data=[38, 100]),
   midi.NoteOnEvent(tick=0, channel=9, data=[42, 100]),
   midi.NoteOnEvent(tick=192, channel=9, data=[36, 100]),
   midi.NoteOffEvent(tick=112, channel=9, data=[38, 100]),
   midi.NoteOffEvent(tick=0, channel=9, data=[42, 100]),
   midi.NoteOffEvent(tick=40, channel=9, data=[36, 100]),
   midi.NoteOnEvent(tick=40, channel=9, data=[42, 100]),
   midi.NoteOnEvent(tick=192, channel=9, data=[36, 100]),
   midi.NoteOffEvent(tick=112, channel=9, data=[42, 100]),
   midi.NoteOffEvent(tick=40, channel=9, data=[36, 100]),
   midi.NoteOnEvent(tick=40, channel=9, data=[42, 100]),
   midi.NoteOnEvent(tick=0, channel=9, data=[38, 100]),
   midi.NoteOffEvent(tick=304, channel=9, data=[42, 100]),
   midi.NoteOffEvent(tick=0, channel=9, data=[38, 100]),
   midi.NoteOnEvent(tick=80, channel=9, data=[42, 100]),
   midi.NoteOnEvent(tick=192, channel=9, data=[36, 100]),
   midi.NoteOffEvent(tick=112, channel=9, data=[42, 100]),
   midi.NoteOffEvent(tick=40, channel=9, data=[36, 100]),
   midi.NoteOnEvent(tick=40, channel=9, data=[42, 100]),
   midi.NoteOnEvent(tick=0, channel=9, data=[38, 100]),
   midi.NoteOffEvent(tick=304, channel=9, data=[42, 100]),
   midi.NoteOffEvent(tick=0, channel=9, data=[38, 100]),
   midi.NoteOnEvent(tick=80, channel=9, data=[36, 100]),
   midi.NoteOnEvent(tick=0, channel=9, data=[42, 100]),
   midi.NoteOffEvent(tick=152, channel=9, data=[36, 100]),
   midi.NoteOnEvent(tick=40, channel=9, data=[38, 100]),
   midi.NoteOffEvent(tick=92, channel=9, data=[38, 100]),
   midi.NoteOnEvent(tick=4, channel=9, data=[38, 100]),
   midi.NoteOffEvent(tick=16, channel=9, data=[42, 100]),
   midi.NoteOffEvent(tick=76, channel=9, data=[38, 100]),
   midi.NoteOnEvent(tick=4, channel=9, data=[38, 100]),
   midi.NoteOffEvent(tick=188, channel=9, data=[38, 100]),
   midi.NoteOnEvent(tick=4, channel=9, data=[38, 100]),
   midi.NoteOffEvent(tick=188, channel=9, data=[38, 100]),
   midi.NoteOnEvent(tick=4, channel=9, data=[36, 100]),
   midi.NoteOnEvent(tick=0, channel=9, data=[49, 100]),
   midi.NoteOffEvent(tick=304, channel=9, data=[36, 100]),
   midi.NoteOffEvent(tick=0, channel=9, data=[49, 100]),
   midi.NoteOnEvent(tick=80, channel=9, data=[42, 100]),
   midi.NoteOnEvent(tick=0, channel=9, data=[38, 100]),
   midi.NoteOnEvent(tick=192, channel=9, data=[36, 100]),
   midi.NoteOffEvent(tick=112, channel=9, data=[42, 100]),
   midi.NoteOffEvent(tick=0, channel=9, data=[38, 100]),
   midi.NoteOffEvent(tick=40, channel=9, data=[36, 100]),
   midi.NoteOnEvent(tick=40, channel=9, data=[42, 100]),
   midi.NoteOnEvent(tick=192, channel=9, data=[36, 100]),
   midi.NoteOffEvent(tick=112, channel=9, data=[42, 100]),
   midi.NoteOffEvent(tick=40, channel=9, data=[36, 100]),
   midi.NoteOnEvent(tick=40, channel=9, data=[42, 100]),
   midi.NoteOnEvent(tick=0, channel=9, data=[38, 100]),
   midi.NoteOffEvent(tick=304, channel=9, data=[42, 100]),
   midi.NoteOffEvent(tick=0, channel=9, data=[38, 100]),
   midi.NoteOnEvent(tick=80, channel=9, data=[42, 100]),
   midi.NoteOnEvent(tick=192, channel=9, data=[36, 100]),
   midi.NoteOffEvent(tick=112, channel=9, data=[42, 100]),
   midi.NoteOffEvent(tick=40, channel=9, data=[36, 100]),
   midi.NoteOnEvent(tick=40, channel=9, data=[38, 100]),
   midi.NoteOnEvent(tick=0, channel=9, data=[42, 100]),
   midi.NoteOffEvent(tick=304, channel=9, data=[38, 100]),
   midi.NoteOffEvent(tick=0, channel=9, data=[42, 100]),
   midi.NoteOnEvent(tick=80, channel=9, data=[36, 100]),
   midi.NoteOnEvent(tick=0, channel=9, data=[42, 100]),
   midi.NoteOffEvent(tick=152, channel=9, data=[36, 100]),
   midi.NoteOnEvent(tick=40, channel=9, data=[36, 100]),
   midi.NoteOffEvent(tick=112, channel=9, data=[42, 100]),
   midi.NoteOffEvent(tick=40, channel=9, data=[36, 100]),
   midi.NoteOnEvent(tick=40, channel=9, data=[42, 100]),
   midi.NoteOnEvent(tick=0, channel=9, data=[38, 100]),
   midi.NoteOffEvent(tick=304, channel=9, data=[42, 100]),
   midi.NoteOffEvent(tick=0, channel=9, data=[38, 100]),
   midi.NoteOnEvent(tick=80, channel=9, data=[42, 100]),
   midi.NoteOnEvent(tick=0, channel=9, data=[36, 100]),
   midi.NoteOffEvent(tick=152, channel=9, data=[36, 100]),
   midi.NoteOnEvent(tick=40, channel=9, data=[36, 100]),
   midi.NoteOffEvent(tick=112, channel=9, data=[42, 100]),
   midi.NoteOffEvent(tick=40, channel=9, data=[36, 100]),
   midi.NoteOnEvent(tick=40, channel=9, data=[42, 100]),
   midi.NoteOnEvent(tick=0, channel=9, data=[38, 100]),
   midi.NoteOnEvent(tick=192, channel=9, data=[36, 100]),
   midi.NoteOffEvent(tick=112, channel=9, data=[42, 100]),
   midi.NoteOffEvent(tick=0, channel=9, data=[38, 100]),
   midi.NoteOffEvent(tick=40, channel=9, data=[36, 100]),
   midi.NoteOnEvent(tick=40, channel=9, data=[42, 100]),
   midi.NoteOnEvent(tick=192, channel=9, data=[36, 100]),
   midi.NoteOffEvent(tick=112, channel=9, data=[42, 100]),
   midi.NoteOffEvent(tick=40, channel=9, data=[36, 100]),
   midi.NoteOnEvent(tick=40, channel=9, data=[38, 100]),
   midi.NoteOnEvent(tick=0, channel=9, data=[42, 100]),
   midi.NoteOffEvent(tick=304, channel=9, data=[38, 100]),
   midi.NoteOffEvent(tick=0, channel=9, data=[42, 100]),
   midi.NoteOnEvent(tick=80, channel=9, data=[42, 100]),
   midi.NoteOnEvent(tick=192, channel=9, data=[36, 100]),
   midi.NoteOffEvent(tick=112, channel=9, data=[42, 100]),
   midi.NoteOffEvent(tick=40, channel=9, data=[36, 100]),
   midi.NoteOnEvent(tick=40, channel=9, data=[38, 100]),
   midi.NoteOnEvent(tick=0, channel=9, data=[42, 100]),
   midi.NoteOffEvent(tick=304, channel=9, data=[38, 100]),
   midi.NoteOffEvent(tick=0, channel=9, data=[42, 100]),
   midi.NoteOnEvent(tick=80, channel=9, data=[42, 100]),
   midi.NoteOnEvent(tick=0, channel=9, data=[36, 100]),
   midi.NoteOffEvent(tick=152, channel=9, data=[36, 100]),
   midi.NoteOnEvent(tick=40, channel=9, data=[36, 100]),
   midi.NoteOffEvent(tick=112, channel=9, data=[42, 100]),
   midi.NoteOffEvent(tick=40, channel=9, data=[36, 100]),
   midi.NoteOnEvent(tick=40, channel=9, data=[38, 100]),
   midi.NoteOnEvent(tick=0, channel=9, data=[42, 100]),
   midi.NoteOffEvent(tick=304, channel=9, data=[38, 100]),
   midi.NoteOffEvent(tick=0, channel=9, data=[42, 100]),
   midi.NoteOnEvent(tick=80, channel=9, data=[42, 100]),
   midi.NoteOnEvent(tick=0, channel=9, data=[36, 100]),
   midi.NoteOffEvent(tick=152, channel=9, data=[36, 100]),
   midi.NoteOnEvent(tick=40, channel=9, data=[36, 100]),
   midi.NoteOffEvent(tick=112, channel=9, data=[42, 100]),
   midi.NoteOffEvent(tick=40, channel=9, data=[36, 100]),
   midi.NoteOnEvent(tick=40, channel=9, data=[42, 100]),
   midi.NoteOnEvent(tick=0, channel=9, data=[38, 100]),
   midi.NoteOnEvent(tick=192, channel=9, data=[36, 100]),
   midi.NoteOffEvent(tick=112, channel=9, data=[42, 100]),
   midi.NoteOffEvent(tick=0, channel=9, data=[38, 100]),
   midi.NoteOffEvent(tick=40, channel=9, data=[36, 100]),
   midi.NoteOnEvent(tick=40, channel=9, data=[42, 100]),
   midi.NoteOnEvent(tick=192, channel=9, data=[36, 100]),
   midi.NoteOffEvent(tick=112, channel=9, data=[42, 100]),
   midi.NoteOffEvent(tick=40, channel=9, data=[36, 100]),
   midi.NoteOnEvent(tick=40, channel=9, data=[38, 100]),
   midi.NoteOnEvent(tick=0, channel=9, data=[42, 100]),
   midi.NoteOffEvent(tick=304, channel=9, data=[38, 100]),
   midi.NoteOffEvent(tick=0, channel=9, data=[42, 100]),
   midi.NoteOnEvent(tick=80, channel=9, data=[42, 100]),
   midi.NoteOnEvent(tick=192, channel=9, data=[36, 100]),
   midi.NoteOffEvent(tick=112, channel=9, data=[42, 100]),
   midi.NoteOffEvent(tick=40, channel=9, data=[36, 100]),
   midi.NoteOnEvent(tick=40, channel=9, data=[38, 100]),
   midi.NoteOnEvent(tick=0, channel=9, data=[42, 100]),
   midi.NoteOffEvent(tick=304, channel=9, data=[38, 100]),
   midi.NoteOffEvent(tick=0, channel=9, data=[42, 100]),
   midi.NoteOnEvent(tick=80, channel=9, data=[36, 100]),
   midi.NoteOnEvent(tick=0, channel=9, data=[42, 100]),
   midi.NoteOffEvent(tick=152, channel=9, data=[36, 100]),
   midi.NoteOnEvent(tick=40, channel=9, data=[36, 100]),
   midi.NoteOffEvent(tick=112, channel=9, data=[42, 100]),
   midi.NoteOffEvent(tick=40, channel=9, data=[36, 100]),
   midi.NoteOnEvent(tick=40, channel=9, data=[38, 100]),
   midi.NoteOnEvent(tick=0, channel=9, data=[42, 100]),
   midi.NoteOnEvent(tick=192, channel=9, data=[36, 100]),
   midi.NoteOffEvent(tick=112, channel=9, data=[38, 100]),
   midi.NoteOffEvent(tick=0, channel=9, data=[42, 100]),
   midi.NoteOffEvent(tick=40, channel=9, data=[36, 100]),
   midi.NoteOnEvent(tick=40, channel=9, data=[38, 100]),
   midi.NoteOnEvent(tick=0, channel=9, data=[49, 100]),
   midi.NoteOnEvent(tick=192, channel=9, data=[36, 100]),
   midi.NoteOffEvent(tick=112, channel=9, data=[38, 100]),
   midi.NoteOffEvent(tick=40, channel=9, data=[36, 100]),
   midi.NoteOnEvent(tick=40, channel=9, data=[36, 100]),
   midi.NoteOffEvent(tick=152, channel=9, data=[49, 100]),
   midi.NoteOnEvent(tick=40, channel=9, data=[49, 100]),
   midi.NoteOnEvent(tick=0, channel=9, data=[38, 100]),
   midi.NoteOffEvent(tick=112, channel=9, data=[36, 100]),
   midi.NoteOffEvent(tick=40, channel=9, data=[38, 100]),
   midi.NoteOnEvent(tick=40, channel=9, data=[36, 100]),
   midi.NoteOffEvent(tick=152, channel=9, data=[36, 100]),
   midi.NoteOnEvent(tick=40, channel=9, data=[36, 100]),
   midi.NoteOffEvent(tick=112, channel=9, data=[49, 100]),
   midi.NoteOffEvent(tick=40, channel=9, data=[36, 100]),
   midi.NoteOnEvent(tick=40, channel=9, data=[38, 100]),
   midi.NoteOnEvent(tick=0, channel=9, data=[49, 100]),
   midi.NoteOffEvent(tick=304, channel=9, data=[38, 100]),
   midi.NoteOffEvent(tick=232, channel=9, data=[49, 100]),
   midi.NoteOnEvent(tick=40, channel=9, data=[38, 100]),
   midi.NoteOffEvent(tick=152, channel=9, data=[38, 100]),
   midi.NoteOnEvent(tick=40, channel=9, data=[38, 100]),
   midi.NoteOffEvent(tick=152, channel=9, data=[38, 100]),
   midi.NoteOnEvent(tick=40, channel=9, data=[47, 100]),
   midi.NoteOffEvent(tick=152, channel=9, data=[47, 100]),
   midi.NoteOnEvent(tick=40, channel=9, data=[47, 100]),
   midi.NoteOffEvent(tick=152, channel=9, data=[47, 100]),
   midi.NoteOnEvent(tick=40, channel=9, data=[45, 100]),
   midi.NoteOffEvent(tick=152, channel=9, data=[45, 100]),
   midi.NoteOnEvent(tick=40, channel=9, data=[45, 100]),
   midi.NoteOffEvent(tick=152, channel=9, data=[45, 100]),
   midi.NoteOnEvent(tick=40, channel=9, data=[43, 100]),
   midi.NoteOffEvent(tick=152, channel=9, data=[43, 100]),
   midi.NoteOnEvent(tick=40, channel=9, data=[36, 100]),
   midi.NoteOnEvent(tick=0, channel=9, data=[49, 100]),
   midi.NoteOffEvent(tick=152, channel=9, data=[36, 100]),
   midi.NoteOffEvent(tick=0, channel=9, data=[49, 100]),
   midi.NoteOnEvent(tick=40, channel=9, data=[49, 100]),
   midi.NoteOnEvent(tick=0, channel=9, data=[36, 100]),
   midi.NoteOffEvent(tick=152, channel=9, data=[49, 100]),
   midi.NoteOffEvent(tick=0, channel=9, data=[36, 100]),
   midi.NoteOnEvent(tick=40, channel=9, data=[53, 100]),
   midi.NoteOnEvent(tick=192, channel=9, data=[36, 100]),
   midi.NoteOffEvent(tick=112, channel=9, data=[53, 100]),
   midi.NoteOffEvent(tick=40, channel=9, data=[36, 100]),
   midi.NoteOnEvent(tick=40, channel=9, data=[38, 100]),
   midi.NoteOnEvent(tick=0, channel=9, data=[53, 100]),
   midi.NoteOffEvent(tick=304, channel=9, data=[38, 100]),
   midi.NoteOffEvent(tick=0, channel=9, data=[53, 100]),
   midi.NoteOnEvent(tick=80, channel=9, data=[53, 100]),
   midi.NoteOnEvent(tick=192, channel=9, data=[36, 100]),
   midi.NoteOffEvent(tick=112, channel=9, data=[53, 100]),
   midi.NoteOffEvent(tick=40, channel=9, data=[36, 100]),
   midi.NoteOnEvent(tick=40, channel=9, data=[53, 100]),
   midi.NoteOffEvent(tick=304, channel=9, data=[53, 100]),
   midi.NoteOnEvent(tick=80, channel=9, data=[36, 100]),
   midi.NoteOnEvent(tick=0, channel=9, data=[53, 100]),
   midi.NoteOffEvent(tick=152, channel=9, data=[36, 100]),
   midi.NoteOnEvent(tick=40, channel=9, data=[36, 100]),
   midi.NoteOffEvent(tick=112, channel=9, data=[53, 100]),
   midi.NoteOffEvent(tick=40, channel=9, data=[36, 100]),
   midi.NoteOnEvent(tick=40, channel=9, data=[38, 100]),
   midi.NoteOnEvent(tick=0, channel=9, data=[49, 100]),
   midi.NoteOffEvent(tick=304, channel=9, data=[38, 100]),
   midi.NoteOffEvent(tick=0, channel=9, data=[49, 100]),
   midi.NoteOnEvent(tick=80, channel=9, data=[49, 100]),
   midi.NoteOnEvent(tick=0, channel=9, data=[38, 100]),
   midi.NoteOffEvent(tick=304, channel=9, data=[49, 100]),
   midi.NoteOffEvent(tick=0, channel=9, data=[38, 100]),
   midi.NoteOnEvent(tick=80, channel=9, data=[36, 100]),
   midi.NoteOnEvent(tick=0, channel=9, data=[53, 100]),
   midi.NoteOffEvent(tick=152, channel=9, data=[36, 100]),
   midi.NoteOnEvent(tick=40, channel=9, data=[36, 100]),
   midi.NoteOffEvent(tick=112, channel=9, data=[53, 100]),
   midi.NoteOffEvent(tick=40, channel=9, data=[36, 100]),
   midi.NoteOnEvent(tick=40, channel=9, data=[53, 100]),
   midi.NoteOnEvent(tick=192, channel=9, data=[36, 100]),
   midi.NoteOffEvent(tick=112, channel=9, data=[53, 100]),
   midi.NoteOffEvent(tick=40, channel=9, data=[36, 100]),
   midi.NoteOnEvent(tick=40, channel=9, data=[53, 100]),
   midi.NoteOnEvent(tick=0, channel=9, data=[38, 100]),
   midi.NoteOffEvent(tick=304, channel=9, data=[53, 100]),
   midi.NoteOffEvent(tick=0, channel=9, data=[38, 100]),
   midi.NoteOnEvent(tick=80, channel=9, data=[53, 100]),
   midi.NoteOnEvent(tick=192, channel=9, data=[36, 100]),
   midi.NoteOffEvent(tick=112, channel=9, data=[53, 100]),
   midi.NoteOffEvent(tick=40, channel=9, data=[36, 100]),
   midi.NoteOnEvent(tick=40, channel=9, data=[53, 100]),
   midi.NoteOffEvent(tick=304, channel=9, data=[53, 100]),
   midi.NoteOnEvent(tick=80, channel=9, data=[36, 100]),
   midi.NoteOnEvent(tick=0, channel=9, data=[53, 100]),
   midi.NoteOffEvent(tick=152, channel=9, data=[36, 100]),
   midi.NoteOnEvent(tick=40, channel=9, data=[36, 100]),
   midi.NoteOffEvent(tick=112, channel=9, data=[53, 100]),
   midi.NoteOffEvent(tick=40, channel=9, data=[36, 100]),
   midi.NoteOnEvent(tick=40, channel=9, data=[38, 100]),
   midi.NoteOnEvent(tick=0, channel=9, data=[49, 100]),
   midi.NoteOffEvent(tick=304, channel=9, data=[38, 100]),
   midi.NoteOffEvent(tick=0, channel=9, data=[49, 100]),
   midi.NoteOnEvent(tick=80, channel=9, data=[49, 100]),
   midi.NoteOnEvent(tick=0, channel=9, data=[38, 100]),
   midi.NoteOffEvent(tick=304, channel=9, data=[49, 100]),
   midi.NoteOffEvent(tick=0, channel=9, data=[38, 100]),
   midi.NoteOnEvent(tick=80, channel=9, data=[36, 100]),
   midi.NoteOnEvent(tick=0, channel=9, data=[53, 100]),
   midi.NoteOffEvent(tick=152, channel=9, data=[36, 100]),
   midi.NoteOnEvent(tick=40, channel=9, data=[36, 100]),
   midi.NoteOffEvent(tick=112, channel=9, data=[53, 100]),
   midi.NoteOffEvent(tick=40, channel=9, data=[36, 100]),
   midi.NoteOnEvent(tick=40, channel=9, data=[53, 100]),
   midi.NoteOnEvent(tick=192, channel=9, data=[36, 100]),
   midi.NoteOffEvent(tick=112, channel=9, data=[53, 100]),
   midi.NoteOffEvent(tick=40, channel=9, data=[36, 100]),
   midi.NoteOnEvent(tick=40, channel=9, data=[53, 100]),
   midi.NoteOnEvent(tick=0, channel=9, data=[38, 100]),
   midi.NoteOffEvent(tick=304, channel=9, data=[53, 100]),
   midi.NoteOffEvent(tick=0, channel=9, data=[38, 100]),
   midi.NoteOnEvent(tick=80, channel=9, data=[53, 100]),
   midi.NoteOnEvent(tick=192, channel=9, data=[36, 100]),
   midi.NoteOffEvent(tick=112, channel=9, data=[53, 100]),
   midi.NoteOffEvent(tick=40, channel=9, data=[36, 100]),
   midi.NoteOnEvent(tick=40, channel=9, data=[53, 100]),
   midi.NoteOffEvent(tick=304, channel=9, data=[53, 100]),
   midi.NoteOnEvent(tick=80, channel=9, data=[53, 100]),
   midi.NoteOnEvent(tick=0, channel=9, data=[36, 100]),
   midi.NoteOffEvent(tick=152, channel=9, data=[36, 100]),
   midi.NoteOnEvent(tick=40, channel=9, data=[36, 100]),
   midi.NoteOffEvent(tick=112, channel=9, data=[53, 100]),
   midi.NoteOffEvent(tick=40, channel=9, data=[36, 100]),
   midi.NoteOnEvent(tick=40, channel=9, data=[49, 100]),
   midi.NoteOnEvent(tick=0, channel=9, data=[38, 100]),
   midi.NoteOffEvent(tick=304, channel=9, data=[49, 100]),
   midi.NoteOffEvent(tick=0, channel=9, data=[38, 100]),
   midi.NoteOnEvent(tick=80, channel=9, data=[49, 100]),
   midi.NoteOnEvent(tick=0, channel=9, data=[38, 100]),
   midi.NoteOffEvent(tick=304, channel=9, data=[49, 100]),
   midi.NoteOffEvent(tick=0, channel=9, data=[38, 100]),
   midi.NoteOnEvent(tick=80, channel=9, data=[36, 100]),
   midi.NoteOnEvent(tick=0, channel=9, data=[53, 100]),
   midi.NoteOffEvent(tick=152, channel=9, data=[36, 100]),
   midi.NoteOnEvent(tick=40, channel=9, data=[36, 100]),
   midi.NoteOffEvent(tick=112, channel=9, data=[53, 100]),
   midi.NoteOffEvent(tick=40, channel=9, data=[36, 100]),
   midi.NoteOnEvent(tick=40, channel=9, data=[53, 100]),
   midi.NoteOnEvent(tick=192, channel=9, data=[36, 100]),
   midi.NoteOffEvent(tick=112, channel=9, data=[53, 100]),
   midi.NoteOffEvent(tick=40, channel=9, data=[36, 100]),
   midi.NoteOnEvent(tick=40, channel=9, data=[38, 100]),
   midi.NoteOnEvent(tick=0, channel=9, data=[53, 100]),
   midi.NoteOffEvent(tick=304, channel=9, data=[38, 100]),
   midi.NoteOffEvent(tick=0, channel=9, data=[53, 100]),
   midi.NoteOnEvent(tick=80, channel=9, data=[53, 100]),
   midi.NoteOnEvent(tick=192, channel=9, data=[36, 100]),
   midi.NoteOffEvent(tick=112, channel=9, data=[53, 100]),
   midi.NoteOffEvent(tick=40, channel=9, data=[36, 100]),
   midi.NoteOnEvent(tick=40, channel=9, data=[53, 100]),
   midi.NoteOffEvent(tick=152, channel=9, data=[53, 100]),
   midi.NoteOnEvent(tick=40, channel=9, data=[38, 100]),
   midi.NoteOffEvent(tick=152, channel=9, data=[38, 100]),
   midi.NoteOnEvent(tick=40, channel=9, data=[38, 100]),
   midi.NoteOffEvent(tick=152, channel=9, data=[38, 100]),
   midi.NoteOnEvent(tick=40, channel=9, data=[47, 100]),
   midi.NoteOffEvent(tick=152, channel=9, data=[47, 100]),
   midi.NoteOnEvent(tick=40, channel=9, data=[47, 100]),
   midi.NoteOffEvent(tick=152, channel=9, data=[47, 100]),
   midi.NoteOnEvent(tick=40, channel=9, data=[45, 100]),
   midi.NoteOffEvent(tick=152, channel=9, data=[45, 100]),
   midi.NoteOnEvent(tick=40, channel=9, data=[45, 100]),
   midi.NoteOffEvent(tick=152, channel=9, data=[45, 100]),
   midi.NoteOnEvent(tick=40, channel=9, data=[43, 100]),
   midi.NoteOffEvent(tick=152, channel=9, data=[43, 100]),
   midi.NoteOnEvent(tick=40, channel=9, data=[36, 100]),
   midi.NoteOnEvent(tick=0, channel=9, data=[49, 100]),
   midi.NoteOffEvent(tick=152, channel=9, data=[36, 100]),
   midi.NoteOffEvent(tick=0, channel=9, data=[49, 100]),
   midi.NoteOnEvent(tick=40, channel=9, data=[36, 100]),
   midi.NoteOnEvent(tick=0, channel=9, data=[49, 100]),
   midi.NoteOffEvent(tick=152, channel=9, data=[36, 100]),
   midi.NoteOffEvent(tick=0, channel=9, data=[49, 100]),
   midi.NoteOnEvent(tick=40, channel=9, data=[53, 100]),
   midi.NoteOnEvent(tick=192, channel=9, data=[36, 100]),
   midi.NoteOffEvent(tick=112, channel=9, data=[53, 100]),
   midi.NoteOffEvent(tick=40, channel=9, data=[36, 100]),
   midi.NoteOnEvent(tick=40, channel=9, data=[53, 100]),
   midi.NoteOnEvent(tick=0, channel=9, data=[38, 100]),
   midi.NoteOffEvent(tick=304, channel=9, data=[53, 100]),
   midi.NoteOffEvent(tick=0, channel=9, data=[38, 100]),
   midi.NoteOnEvent(tick=80, channel=9, data=[53, 100]),
   midi.NoteOnEvent(tick=192, channel=9, data=[36, 100]),
   midi.NoteOffEvent(tick=112, channel=9, data=[53, 100]),
   midi.NoteOffEvent(tick=40, channel=9, data=[36, 100]),
   midi.NoteOnEvent(tick=40, channel=9, data=[53, 100]),
   midi.NoteOffEvent(tick=304, channel=9, data=[53, 100]),
   midi.NoteOnEvent(tick=80, channel=9, data=[36, 100]),
   midi.NoteOnEvent(tick=0, channel=9, data=[53, 100]),
   midi.NoteOffEvent(tick=152, channel=9, data=[36, 100]),
   midi.NoteOnEvent(tick=40, channel=9, data=[36, 100]),
   midi.NoteOffEvent(tick=112, channel=9, data=[53, 100]),
   midi.NoteOffEvent(tick=40, channel=9, data=[36, 100]),
   midi.NoteOnEvent(tick=40, channel=9, data=[38, 100]),
   midi.NoteOnEvent(tick=0, channel=9, data=[49, 100]),
   midi.NoteOffEvent(tick=304, channel=9, data=[38, 100]),
   midi.NoteOffEvent(tick=0, channel=9, data=[49, 100]),
   midi.NoteOnEvent(tick=80, channel=9, data=[49, 100]),
   midi.NoteOnEvent(tick=0, channel=9, data=[38, 100]),
   midi.NoteOffEvent(tick=304, channel=9, data=[49, 100]),
   midi.NoteOffEvent(tick=0, channel=9, data=[38, 100]),
   midi.NoteOnEvent(tick=80, channel=9, data=[36, 100]),
   midi.NoteOnEvent(tick=0, channel=9, data=[53, 100]),
   midi.NoteOffEvent(tick=152, channel=9, data=[36, 100]),
   midi.NoteOnEvent(tick=40, channel=9, data=[36, 100]),
   midi.NoteOffEvent(tick=112, channel=9, data=[53, 100]),
   midi.NoteOffEvent(tick=40, channel=9, data=[36, 100]),
   midi.NoteOnEvent(tick=40, channel=9, data=[53, 100]),
   midi.NoteOnEvent(tick=192, channel=9, data=[36, 100]),
   midi.NoteOffEvent(tick=112, channel=9, data=[53, 100]),
   midi.NoteOffEvent(tick=40, channel=9, data=[36, 100]),
   midi.NoteOnEvent(tick=40, channel=9, data=[38, 100]),
   midi.NoteOnEvent(tick=0, channel=9, data=[53, 100]),
   midi.NoteOffEvent(tick=304, channel=9, data=[38, 100]),
   midi.NoteOffEvent(tick=0, channel=9, data=[53, 100]),
   midi.NoteOnEvent(tick=80, channel=9, data=[53, 100]),
   midi.NoteOnEvent(tick=192, channel=9, data=[36, 100]),
   midi.NoteOffEvent(tick=112, channel=9, data=[53, 100]),
   midi.NoteOffEvent(tick=40, channel=9, data=[36, 100]),
   midi.NoteOnEvent(tick=40, channel=9, data=[53, 100]),
   midi.NoteOffEvent(tick=304, channel=9, data=[53, 100]),
   midi.NoteOnEvent(tick=80, channel=9, data=[36, 100]),
   midi.NoteOnEvent(tick=0, channel=9, data=[53, 100]),
   midi.NoteOffEvent(tick=152, channel=9, data=[36, 100]),
   midi.NoteOnEvent(tick=40, channel=9, data=[36, 100]),
   midi.NoteOffEvent(tick=112, channel=9, data=[53, 100]),
   midi.NoteOffEvent(tick=40, channel=9, data=[36, 100]),
   midi.NoteOnEvent(tick=40, channel=9, data=[38, 100]),
   midi.NoteOnEvent(tick=0, channel=9, data=[49, 100]),
   midi.NoteOffEvent(tick=304, channel=9, data=[38, 100]),
   midi.NoteOffEvent(tick=0, channel=9, data=[49, 100]),
   midi.NoteOnEvent(tick=80, channel=9, data=[49, 100]),
   midi.NoteOnEvent(tick=0, channel=9, data=[38, 100]),
   midi.NoteOffEvent(tick=304, channel=9, data=[49, 100]),
   midi.NoteOffEvent(tick=0, channel=9, data=[38, 100]),
   midi.NoteOnEvent(tick=80, channel=9, data=[36, 100]),
   midi.NoteOnEvent(tick=0, channel=9, data=[53, 100]),
   midi.NoteOffEvent(tick=152, channel=9, data=[36, 100]),
   midi.NoteOnEvent(tick=40, channel=9, data=[36, 100]),
   midi.NoteOffEvent(tick=112, channel=9, data=[53, 100]),
   midi.NoteOffEvent(tick=40, channel=9, data=[36, 100]),
   midi.NoteOnEvent(tick=40, channel=9, data=[53, 100]),
   midi.NoteOnEvent(tick=192, channel=9, data=[36, 100]),
   midi.NoteOffEvent(tick=112, channel=9, data=[53, 100]),
   midi.NoteOffEvent(tick=40, channel=9, data=[36, 100]),
   midi.NoteOnEvent(tick=40, channel=9, data=[38, 100]),
   midi.NoteOnEvent(tick=0, channel=9, data=[53, 100]),
   midi.NoteOffEvent(tick=304, channel=9, data=[38, 100]),
   midi.NoteOffEvent(tick=0, channel=9, data=[53, 100]),
   midi.NoteOnEvent(tick=80, channel=9, data=[53, 100]),
   midi.NoteOnEvent(tick=192, channel=9, data=[36, 100]),
   midi.NoteOffEvent(tick=112, channel=9, data=[53, 100]),
   midi.NoteOffEvent(tick=40, channel=9, data=[36, 100]),
   midi.NoteOnEvent(tick=40, channel=9, data=[53, 100]),
   midi.NoteOffEvent(tick=152, channel=9, data=[53, 100]),
   midi.NoteOnEvent(tick=40, channel=9, data=[38, 100]),
   midi.NoteOffEvent(tick=152, channel=9, data=[38, 100]),
   midi.NoteOnEvent(tick=40, channel=9, data=[36, 100]),
   midi.NoteOnEvent(tick=0, channel=9, data=[53, 100]),
   midi.NoteOffEvent(tick=152, channel=9, data=[36, 100]),
   midi.NoteOnEvent(tick=40, channel=9, data=[36, 100]),
   midi.NoteOffEvent(tick=112, channel=9, data=[53, 100]),
   midi.NoteOffEvent(tick=40, channel=9, data=[36, 100]),
   midi.NoteOnEvent(tick=40, channel=9, data=[38, 100]),
   midi.NoteOnEvent(tick=0, channel=9, data=[53, 100]),
   midi.NoteOffEvent(tick=304, channel=9, data=[38, 100]),
   midi.NoteOffEvent(tick=0, channel=9, data=[53, 100]),
   midi.NoteOnEvent(tick=80, channel=9, data=[36, 100]),
   midi.NoteOnEvent(tick=0, channel=9, data=[53, 100]),
   midi.NoteOffEvent(tick=304, channel=9, data=[36, 100]),
   midi.NoteOffEvent(tick=0, channel=9, data=[53, 100]),
   midi.NoteOnEvent(tick=80, channel=9, data=[38, 100]),
   midi.NoteOffEvent(tick=152, channel=9, data=[38, 100]),
   midi.NoteOnEvent(tick=40, channel=9, data=[36, 100]),
   midi.NoteOnEvent(tick=0, channel=9, data=[49, 100]),
   midi.NoteOffEvent(tick=152, channel=9, data=[36, 100]),
   midi.NoteOffEvent(tick=152, channel=9, data=[49, 100]),
   midi.NoteOnEvent(tick=80, channel=9, data=[38, 100]),
   midi.NoteOffEvent(tick=152, channel=9, data=[38, 100]),
   midi.NoteOnEvent(tick=40, channel=9, data=[49, 100]),
   midi.NoteOnEvent(tick=0, channel=9, data=[36, 100]),
   midi.NoteOffEvent(tick=304, channel=9, data=[49, 100]),
   midi.NoteOffEvent(tick=0, channel=9, data=[36, 100]),
   midi.NoteOnEvent(tick=80, channel=9, data=[38, 100]),
   midi.NoteOffEvent(tick=152, channel=9, data=[38, 100]),
   midi.NoteOnEvent(tick=40, channel=9, data=[36, 100]),
   midi.NoteOnEvent(tick=0, channel=9, data=[49, 100]),
   midi.NoteOffEvent(tick=152, channel=9, data=[36, 100]),
   midi.NoteOffEvent(tick=1268, channel=9, data=[49, 100]),
   midi.NoteOnEvent(tick=4916, channel=9, data=[36, 100]),
   midi.NoteOnEvent(tick=0, channel=9, data=[49, 100]),
   midi.NoteOffEvent(tick=256, channel=9, data=[49, 64]),
   midi.NoteOffEvent(tick=48, channel=9, data=[36, 100]),
   midi.NoteOnEvent(tick=80, channel=9, data=[38, 100]),
   midi.NoteOnEvent(tick=0, channel=9, data=[42, 100]),
   midi.NoteOnEvent(tick=192, channel=9, data=[36, 100]),
   midi.NoteOffEvent(tick=112, channel=9, data=[38, 100]),
   midi.NoteOffEvent(tick=0, channel=9, data=[42, 100]),
   midi.NoteOffEvent(tick=40, channel=9, data=[36, 100]),
   midi.NoteOnEvent(tick=40, channel=9, data=[42, 100]),
   midi.NoteOnEvent(tick=192, channel=9, data=[36, 100]),
   midi.NoteOffEvent(tick=112, channel=9, data=[42, 100]),
   midi.NoteOffEvent(tick=40, channel=9, data=[36, 100]),
   midi.NoteOnEvent(tick=40, channel=9, data=[38, 100]),
   midi.NoteOnEvent(tick=0, channel=9, data=[42, 100]),
   midi.NoteOffEvent(tick=304, channel=9, data=[38, 100]),
   midi.NoteOffEvent(tick=0, channel=9, data=[42, 100]),
   midi.NoteOnEvent(tick=80, channel=9, data=[42, 100]),
   midi.NoteOnEvent(tick=192, channel=9, data=[36, 100]),
   midi.NoteOffEvent(tick=112, channel=9, data=[42, 100]),
   midi.NoteOffEvent(tick=40, channel=9, data=[36, 100]),
   midi.NoteOnEvent(tick=40, channel=9, data=[42, 100]),
   midi.NoteOffEvent(tick=304, channel=9, data=[42, 100]),
   midi.NoteOnEvent(tick=80, channel=9, data=[36, 100]),
   midi.NoteOnEvent(tick=0, channel=9, data=[38, 100]),
   midi.NoteOnEvent(tick=0, channel=9, data=[42, 100]),
   midi.NoteOffEvent(tick=152, channel=9, data=[36, 100]),
   midi.NoteOnEvent(tick=40, channel=9, data=[36, 100]),
   midi.NoteOffEvent(tick=112, channel=9, data=[38, 100]),
   midi.NoteOffEvent(tick=0, channel=9, data=[42, 100]),
   midi.NoteOffEvent(tick=40, channel=9, data=[36, 100]),
   midi.NoteOnEvent(tick=40, channel=9, data=[42, 100]),
   midi.NoteOnEvent(tick=192, channel=9, data=[36, 100]),
   midi.NoteOffEvent(tick=112, channel=9, data=[42, 100]),
   midi.NoteOffEvent(tick=40, channel=9, data=[36, 100]),
   midi.NoteOnEvent(tick=8, channel=9, data=[38, 100]),
   midi.NoteOnEvent(tick=32, channel=9, data=[38, 100]),
   midi.NoteOffEvent(tick=188, channel=9, data=[38, 100]),
   midi.NoteOnEvent(tick=4, channel=9, data=[36, 100]),
   midi.NoteOffEvent(tick=80, channel=9, data=[38, 100]),
   midi.NoteOffEvent(tick=72, channel=9, data=[36, 100]),
   midi.NoteOnEvent(tick=40, channel=9, data=[36, 100]),
   midi.NoteOffEvent(tick=152, channel=9, data=[36, 100]),
   midi.NoteOnEvent(tick=40, channel=9, data=[36, 100]),
   midi.NoteOnEvent(tick=0, channel=9, data=[43, 100]),
   midi.NoteOffEvent(tick=152, channel=9, data=[36, 100]),
   midi.NoteOffEvent(tick=0, channel=9, data=[43, 100]),
   midi.NoteOnEvent(tick=232, channel=9, data=[36, 100]),
   midi.NoteOffEvent(tick=152, channel=9, data=[36, 100]),
   midi.NoteOnEvent(tick=8, channel=9, data=[38, 100]),
   midi.NoteOffEvent(tick=32, channel=9, data=[38, 100]),
   midi.NoteOnEvent(tick=0, channel=9, data=[38, 100]),
   midi.NoteOffEvent(tick=304, channel=9, data=[38, 100]),
   midi.EndOfTrackEvent(tick=0, data=[])]),
 midi.Track(\
  [midi.TrackNameEvent(tick=0, text='to seregs@dnttm.ru', data=[116, 111, 32, 115, 101, 114, 101, 103, 115, 64, 100, 110, 116, 116, 109, 46, 114, 117]),
   midi.EndOfTrackEvent(tick=0, data=[])]),
 midi.Track(\
  [midi.EndOfTrackEvent(tick=0, data=[])]),
 midi.Track(\
  [midi.EndOfTrackEvent(tick=0, data=[])]),
 midi.Track(\
  [midi.EndOfTrackEvent(tick=0, data=[])]),
 midi.Track(\
  [midi.ControlChangeEvent(tick=0, channel=9, data=[0, 0]),
   midi.ProgramChangeEvent(tick=0, channel=9, data=[0]),
   midi.ControlChangeEvent(tick=0, channel=9, data=[7, 115]),
   midi.ControlChangeEvent(tick=0, channel=9, data=[91, 124]),
   midi.EndOfTrackEvent(tick=0, data=[])]),
 midi.Track(\
  [midi.EndOfTrackEvent(tick=0, data=[])]),
 midi.Track(\
  [midi.EndOfTrackEvent(tick=0, data=[])]),
 midi.Track(\
  [midi.EndOfTrackEvent(tick=0, data=[])])])