midi.Pattern(format=1, resolution=960, tracks=\
[midi.Track(\
  [midi.ControlChangeEvent(tick=0, channel=0, data=[101, 0]),
   midi.ControlChangeEvent(tick=0, channel=0, data=[100, 0]),
   midi.ControlChangeEvent(tick=0, channel=0, data=[6, 12]),
   midi.ControlChangeEvent(tick=0, channel=0, data=[38, 0]),
   midi.ControlChangeEvent(tick=0, channel=1, data=[101, 0]),
   midi.ControlChangeEvent(tick=0, channel=1, data=[100, 0]),
   midi.ControlChangeEvent(tick=0, channel=1, data=[6, 12]),
   midi.ControlChangeEvent(tick=0, channel=1, data=[38, 0]),
   midi.ControlChangeEvent(tick=0, channel=2, data=[101, 0]),
   midi.ControlChangeEvent(tick=0, channel=2, data=[100, 0]),
   midi.ControlChangeEvent(tick=0, channel=2, data=[6, 12]),
   midi.ControlChangeEvent(tick=0, channel=2, data=[38, 0]),
   midi.ControlChangeEvent(tick=0, channel=3, data=[101, 0]),
   midi.ControlChangeEvent(tick=0, channel=3, data=[100, 0]),
   midi.ControlChangeEvent(tick=0, channel=3, data=[6, 12]),
   midi.ControlChangeEvent(tick=0, channel=3, data=[38, 0]),
   midi.ControlChangeEvent(tick=0, channel=4, data=[101, 0]),
   midi.ControlChangeEvent(tick=0, channel=4, data=[100, 0]),
   midi.ControlChangeEvent(tick=0, channel=4, data=[6, 12]),
   midi.ControlChangeEvent(tick=0, channel=4, data=[38, 0]),
   midi.ControlChangeEvent(tick=0, channel=5, data=[101, 0]),
   midi.ControlChangeEvent(tick=0, channel=5, data=[100, 0]),
   midi.ControlChangeEvent(tick=0, channel=5, data=[6, 12]),
   midi.ControlChangeEvent(tick=0, channel=5, data=[38, 0]),
   midi.ControlChangeEvent(tick=0, channel=6, data=[101, 0]),
   midi.ControlChangeEvent(tick=0, channel=6, data=[100, 0]),
   midi.ControlChangeEvent(tick=0, channel=6, data=[6, 12]),
   midi.ControlChangeEvent(tick=0, channel=6, data=[38, 0]),
   midi.ControlChangeEvent(tick=0, channel=7, data=[101, 0]),
   midi.ControlChangeEvent(tick=0, channel=7, data=[100, 0]),
   midi.ControlChangeEvent(tick=0, channel=7, data=[6, 12]),
   midi.ControlChangeEvent(tick=0, channel=7, data=[38, 0]),
   midi.ControlChangeEvent(tick=0, channel=8, data=[101, 0]),
   midi.ControlChangeEvent(tick=0, channel=8, data=[100, 0]),
   midi.ControlChangeEvent(tick=0, channel=8, data=[6, 12]),
   midi.ControlChangeEvent(tick=0, channel=8, data=[38, 0]),
   midi.ControlChangeEvent(tick=0, channel=9, data=[101, 0]),
   midi.ControlChangeEvent(tick=0, channel=9, data=[100, 0]),
   midi.ControlChangeEvent(tick=0, channel=9, data=[6, 12]),
   midi.ControlChangeEvent(tick=0, channel=9, data=[38, 0]),
   midi.ControlChangeEvent(tick=0, channel=10, data=[101, 0]),
   midi.ControlChangeEvent(tick=0, channel=10, data=[100, 0]),
   midi.ControlChangeEvent(tick=0, channel=10, data=[6, 12]),
   midi.ControlChangeEvent(tick=0, channel=10, data=[38, 0]),
   midi.ControlChangeEvent(tick=0, channel=11, data=[101, 0]),
   midi.ControlChangeEvent(tick=0, channel=11, data=[100, 0]),
   midi.ControlChangeEvent(tick=0, channel=11, data=[6, 12]),
   midi.ControlChangeEvent(tick=0, channel=11, data=[38, 0]),
   midi.ControlChangeEvent(tick=0, channel=12, data=[101, 0]),
   midi.ControlChangeEvent(tick=0, channel=12, data=[100, 0]),
   midi.ControlChangeEvent(tick=0, channel=12, data=[6, 12]),
   midi.ControlChangeEvent(tick=0, channel=12, data=[38, 0]),
   midi.ControlChangeEvent(tick=0, channel=13, data=[101, 0]),
   midi.ControlChangeEvent(tick=0, channel=13, data=[100, 0]),
   midi.ControlChangeEvent(tick=0, channel=13, data=[6, 12]),
   midi.ControlChangeEvent(tick=0, channel=13, data=[38, 0]),
   midi.ControlChangeEvent(tick=0, channel=14, data=[101, 0]),
   midi.ControlChangeEvent(tick=0, channel=14, data=[100, 0]),
   midi.ControlChangeEvent(tick=0, channel=14, data=[6, 12]),
   midi.ControlChangeEvent(tick=0, channel=14, data=[38, 0]),
   midi.ControlChangeEvent(tick=0, channel=15, data=[101, 0]),
   midi.ControlChangeEvent(tick=0, channel=15, data=[100, 0]),
   midi.ControlChangeEvent(tick=0, channel=15, data=[6, 12]),
   midi.ControlChangeEvent(tick=0, channel=15, data=[38, 0]),
   midi.TimeSignatureEvent(tick=0, data=[4, 2, 24, 8]),
   midi.SetTempoEvent(tick=0, data=[4, 41, 87]),
   midi.TimeSignatureEvent(tick=675840, data=[2, 2, 24, 8]),
   midi.TimeSignatureEvent(tick=1920, data=[4, 2, 24, 8]),
   midi.TimeSignatureEvent(tick=7680, data=[2, 2, 24, 8]),
   midi.TimeSignatureEvent(tick=1920, data=[4, 2, 24, 8]),
   midi.TimeSignatureEvent(tick=7680, data=[2, 2, 24, 8]),
   midi.TimeSignatureEvent(tick=1920, data=[4, 2, 24, 8]),
   midi.TimeSignatureEvent(tick=7680, data=[2, 2, 24, 8]),
   midi.TimeSignatureEvent(tick=1920, data=[4, 2, 24, 8]),
   midi.EndOfTrackEvent(tick=0, data=[])]),
 midi.Track(\
  [midi.PitchWheelEvent(tick=0, channel=0, data=[0, 64]),
   midi.ControlChangeEvent(tick=0, channel=0, data=[7, 127]),
   midi.ControlChangeEvent(tick=0, channel=0, data=[10, 0]),
   midi.ControlChangeEvent(tick=0, channel=0, data=[93, 0]),
   midi.ControlChangeEvent(tick=0, channel=0, data=[91, 0]),
   midi.ControlChangeEvent(tick=0, channel=0, data=[95, 0]),
   midi.ControlChangeEvent(tick=0, channel=0, data=[92, 0]),
   midi.ControlChangeEvent(tick=0, channel=0, data=[11, 127]),
   midi.ProgramChangeEvent(tick=0, channel=0, data=[30]),
   midi.ControlChangeEvent(tick=0, channel=1, data=[7, 127]),
   midi.ControlChangeEvent(tick=0, channel=1, data=[10, 0]),
   midi.ControlChangeEvent(tick=0, channel=1, data=[93, 0]),
   midi.ControlChangeEvent(tick=0, channel=1, data=[91, 0]),
   midi.ControlChangeEvent(tick=0, channel=1, data=[95, 0]),
   midi.ControlChangeEvent(tick=0, channel=1, data=[92, 0]),
   midi.ControlChangeEvent(tick=0, channel=1, data=[11, 127]),
   midi.ProgramChangeEvent(tick=0, channel=1, data=[30]),
   midi.NoteOnEvent(tick=0, channel=0, data=[39, 95]),
   midi.NoteOffEvent(tick=480, channel=0, data=[39, 95]),
   midi.NoteOnEvent(tick=0, channel=0, data=[39, 95]),
   midi.NoteOffEvent(tick=480, channel=0, data=[39, 95]),
   midi.NoteOnEvent(tick=0, channel=0, data=[39, 95]),
   midi.NoteOffEvent(tick=480, channel=0, data=[39, 95]),
   midi.NoteOnEvent(tick=0, channel=0, data=[39, 95]),
   midi.NoteOffEvent(tick=480, channel=0, data=[39, 95]),
   midi.NoteOnEvent(tick=0, channel=0, data=[39, 95]),
   midi.NoteOffEvent(tick=480, channel=0, data=[39, 95]),
   midi.NoteOnEvent(tick=0, channel=0, data=[39, 95]),
   midi.NoteOffEvent(tick=480, channel=0, data=[39, 95]),
   midi.NoteOnEvent(tick=0, channel=0, data=[39, 95]),
   midi.NoteOffEvent(tick=480, channel=0, data=[39, 95]),
   midi.NoteOnEvent(tick=0, channel=0, data=[39, 95]),
   midi.NoteOffEvent(tick=480, channel=0, data=[39, 95]),
   midi.NoteOnEvent(tick=0, channel=0, data=[39, 95]),
   midi.NoteOffEvent(tick=240, channel=0, data=[39, 95]),
   midi.NoteOnEvent(tick=0, channel=0, data=[39, 95]),
   midi.NoteOffEvent(tick=240, channel=0, data=[39, 95]),
   midi.NoteOnEvent(tick=0, channel=0, data=[39, 95]),
   midi.NoteOffEvent(tick=480, channel=0, data=[39, 95]),
   midi.NoteOnEvent(tick=0, channel=0, data=[39, 95]),
   midi.NoteOffEvent(tick=480, channel=0, data=[39, 95]),
   midi.NoteOnEvent(tick=0, channel=0, data=[39, 95]),
   midi.NoteOffEvent(tick=240, channel=0, data=[39, 95]),
   midi.NoteOnEvent(tick=0, channel=0, data=[39, 95]),
   midi.NoteOffEvent(tick=240, channel=0, data=[39, 95]),
   midi.NoteOnEvent(tick=0, channel=0, data=[39, 95]),
   midi.NoteOffEvent(tick=480, channel=0, data=[39, 95]),
   midi.NoteOnEvent(tick=0, channel=0, data=[39, 95]),
   midi.NoteOffEvent(tick=480, channel=0, data=[39, 95]),
   midi.NoteOnEvent(tick=0, channel=0, data=[39, 95]),
   midi.NoteOffEvent(tick=240, channel=0, data=[39, 95]),
   midi.NoteOnEvent(tick=0, channel=0, data=[39, 95]),
   midi.NoteOffEvent(tick=240, channel=0, data=[39, 95]),
   midi.NoteOnEvent(tick=0, channel=0, data=[39, 95]),
   midi.NoteOffEvent(tick=480, channel=0, data=[39, 95]),
   midi.NoteOnEvent(tick=0, channel=0, data=[39, 95]),
   midi.NoteOffEvent(tick=480, channel=0, data=[39, 95]),
   midi.NoteOnEvent(tick=0, channel=0, data=[39, 95]),
   midi.NoteOffEvent(tick=480, channel=0, data=[39, 95]),
   midi.NoteOnEvent(tick=0, channel=0, data=[39, 95]),
   midi.NoteOffEvent(tick=480, channel=0, data=[39, 95]),
   midi.NoteOnEvent(tick=0, channel=0, data=[39, 95]),
   midi.NoteOffEvent(tick=480, channel=0, data=[39, 95]),
   midi.NoteOnEvent(tick=0, channel=0, data=[39, 95]),
   midi.NoteOffEvent(tick=480, channel=0, data=[39, 95]),
   midi.NoteOnEvent(tick=0, channel=0, data=[39, 95]),
   midi.NoteOffEvent(tick=480, channel=0, data=[39, 95]),
   midi.NoteOnEvent(tick=0, channel=0, data=[39, 95]),
   midi.NoteOffEvent(tick=480, channel=0, data=[39, 95]),
   midi.NoteOnEvent(tick=0, channel=0, data=[39, 95]),
   midi.NoteOffEvent(tick=480, channel=0, data=[39, 95]),
   midi.NoteOnEvent(tick=0, channel=0, data=[39, 95]),
   midi.NoteOffEvent(tick=240, channel=0, data=[39, 95]),
   midi.NoteOnEvent(tick=0, channel=0, data=[39, 95]),
   midi.NoteOffEvent(tick=240, channel=0, data=[39, 95]),
   midi.NoteOnEvent(tick=0, channel=0, data=[39, 95]),
   midi.NoteOffEvent(tick=480, channel=0, data=[39, 95]),
   midi.NoteOnEvent(tick=0, channel=0, data=[39, 95]),
   midi.NoteOffEvent(tick=480, channel=0, data=[39, 95]),
   midi.NoteOnEvent(tick=0, channel=0, data=[39, 95]),
   midi.NoteOffEvent(tick=240, channel=0, data=[39, 95]),
   midi.NoteOnEvent(tick=0, channel=0, data=[39, 95]),
   midi.NoteOffEvent(tick=240, channel=0, data=[39, 95]),
   midi.NoteOnEvent(tick=0, channel=0, data=[39, 95]),
   midi.NoteOffEvent(tick=480, channel=0, data=[39, 95]),
   midi.NoteOnEvent(tick=0, channel=0, data=[39, 95]),
   midi.NoteOffEvent(tick=480, channel=0, data=[39, 95]),
   midi.NoteOnEvent(tick=0, channel=0, data=[39, 95]),
   midi.NoteOffEvent(tick=240, channel=0, data=[39, 95]),
   midi.NoteOnEvent(tick=0, channel=0, data=[39, 95]),
   midi.NoteOffEvent(tick=240, channel=0, data=[39, 95]),
   midi.NoteOnEvent(tick=0, channel=0, data=[39, 95]),
   midi.NoteOffEvent(tick=480, channel=0, data=[39, 95]),
   midi.NoteOnEvent(tick=0, channel=0, data=[39, 95]),
   midi.NoteOffEvent(tick=480, channel=0, data=[39, 95]),
   midi.NoteOnEvent(tick=0, channel=0, data=[39, 95]),
   midi.NoteOffEvent(tick=480, channel=0, data=[39, 95]),
   midi.NoteOnEvent(tick=0, channel=0, data=[39, 95]),
   midi.NoteOffEvent(tick=480, channel=0, data=[39, 95]),
   midi.NoteOnEvent(tick=0, channel=0, data=[39, 95]),
   midi.NoteOffEvent(tick=480, channel=0, data=[39, 95]),
   midi.NoteOnEvent(tick=0, channel=0, data=[39, 95]),
   midi.NoteOffEvent(tick=480, channel=0, data=[39, 95]),
   midi.NoteOnEvent(tick=0, channel=0, data=[39, 95]),
   midi.NoteOffEvent(tick=480, channel=0, data=[39, 95]),
   midi.NoteOnEvent(tick=0, channel=0, data=[39, 95]),
   midi.NoteOffEvent(tick=480, channel=0, data=[39, 95]),
   midi.NoteOnEvent(tick=0, channel=0, data=[39, 95]),
   midi.NoteOffEvent(tick=480, channel=0, data=[39, 95]),
   midi.NoteOnEvent(tick=0, channel=0, data=[39, 95]),
   midi.NoteOffEvent(tick=240, channel=0, data=[39, 95]),
   midi.NoteOnEvent(tick=0, channel=0, data=[39, 95]),
   midi.NoteOffEvent(tick=240, channel=0, data=[39, 95]),
   midi.NoteOnEvent(tick=0, channel=0, data=[39, 95]),
   midi.NoteOffEvent(tick=480, channel=0, data=[39, 95]),
   midi.NoteOnEvent(tick=0, channel=0, data=[39, 95]),
   midi.NoteOffEvent(tick=480, channel=0, data=[39, 95]),
   midi.NoteOnEvent(tick=0, channel=0, data=[39, 95]),
   midi.NoteOffEvent(tick=240, channel=0, data=[39, 95]),
   midi.NoteOnEvent(tick=0, channel=0, data=[39, 95]),
   midi.NoteOffEvent(tick=240, channel=0, data=[39, 95]),
   midi.NoteOnEvent(tick=0, channel=0, data=[39, 95]),
   midi.NoteOffEvent(tick=480, channel=0, data=[39, 95]),
   midi.NoteOnEvent(tick=0, channel=0, data=[39, 95]),
   midi.NoteOffEvent(tick=480, channel=0, data=[39, 95]),
   midi.NoteOnEvent(tick=0, channel=0, data=[39, 95]),
   midi.NoteOffEvent(tick=240, channel=0, data=[39, 95]),
   midi.NoteOnEvent(tick=0, channel=0, data=[39, 95]),
   midi.NoteOffEvent(tick=240, channel=0, data=[39, 95]),
   midi.NoteOnEvent(tick=0, channel=0, data=[39, 95]),
   midi.NoteOffEvent(tick=480, channel=0, data=[39, 95]),
   midi.NoteOnEvent(tick=0, channel=0, data=[39, 95]),
   midi.NoteOffEvent(tick=480, channel=0, data=[39, 95]),
   midi.NoteOnEvent(tick=0, channel=0, data=[39, 95]),
   midi.NoteOffEvent(tick=480, channel=0, data=[39, 95]),
   midi.NoteOnEvent(tick=0, channel=0, data=[39, 95]),
   midi.NoteOffEvent(tick=480, channel=0, data=[39, 95]),
   midi.NoteOnEvent(tick=0, channel=0, data=[39, 95]),
   midi.NoteOffEvent(tick=480, channel=0, data=[39, 95]),
   midi.NoteOnEvent(tick=0, channel=0, data=[39, 95]),
   midi.NoteOffEvent(tick=480, channel=0, data=[39, 95]),
   midi.NoteOnEvent(tick=0, channel=0, data=[39, 95]),
   midi.NoteOffEvent(tick=480, channel=0, data=[39, 95]),
   midi.NoteOnEvent(tick=0, channel=0, data=[39, 95]),
   midi.NoteOffEvent(tick=480, channel=0, data=[39, 95]),
   midi.NoteOnEvent(tick=0, channel=0, data=[39, 95]),
   midi.NoteOffEvent(tick=480, channel=0, data=[39, 95]),
   midi.NoteOnEvent(tick=0, channel=0, data=[39, 95]),
   midi.NoteOffEvent(tick=240, channel=0, data=[39, 95]),
   midi.NoteOnEvent(tick=0, channel=0, data=[39, 95]),
   midi.NoteOffEvent(tick=240, channel=0, data=[39, 95]),
   midi.NoteOnEvent(tick=0, channel=0, data=[39, 95]),
   midi.NoteOffEvent(tick=480, channel=0, data=[39, 95]),
   midi.NoteOnEvent(tick=0, channel=0, data=[39, 95]),
   midi.NoteOffEvent(tick=480, channel=0, data=[39, 95]),
   midi.NoteOnEvent(tick=0, channel=0, data=[39, 95]),
   midi.NoteOffEvent(tick=240, channel=0, data=[39, 95]),
   midi.NoteOnEvent(tick=0, channel=0, data=[39, 95]),
   midi.NoteOffEvent(tick=240, channel=0, data=[39, 95]),
   midi.NoteOnEvent(tick=0, channel=0, data=[39, 95]),
   midi.NoteOffEvent(tick=480, channel=0, data=[39, 95]),
   midi.NoteOnEvent(tick=0, channel=0, data=[39, 95]),
   midi.NoteOffEvent(tick=480, channel=0, data=[39, 95]),
   midi.NoteOnEvent(tick=0, channel=0, data=[39, 95]),
   midi.NoteOffEvent(tick=240, channel=0, data=[39, 95]),
   midi.NoteOnEvent(tick=0, channel=0, data=[39, 95]),
   midi.NoteOffEvent(tick=240, channel=0, data=[39, 95]),
   midi.NoteOnEvent(tick=0, channel=0, data=[39, 95]),
   midi.NoteOffEvent(tick=480, channel=0, data=[39, 95]),
   midi.NoteOnEvent(tick=0, channel=0, data=[39, 95]),
   midi.NoteOffEvent(tick=480, channel=0, data=[39, 95]),
   midi.NoteOnEvent(tick=0, channel=0, data=[39, 95]),
   midi.NoteOffEvent(tick=480, channel=0, data=[39, 95]),
   midi.NoteOnEvent(tick=0, channel=0, data=[39, 95]),
   midi.NoteOffEvent(tick=480, channel=0, data=[39, 95]),
   midi.NoteOnEvent(tick=0, channel=0, data=[39, 95]),
   midi.NoteOffEvent(tick=480, channel=0, data=[39, 95]),
   midi.NoteOnEvent(tick=0, channel=0, data=[39, 95]),
   midi.NoteOffEvent(tick=480, channel=0, data=[39, 95]),
   midi.NoteOnEvent(tick=0, channel=0, data=[39, 95]),
   midi.NoteOffEvent(tick=480, channel=0, data=[39, 95]),
   midi.NoteOnEvent(tick=0, channel=0, data=[39, 95]),
   midi.NoteOffEvent(tick=480, channel=0, data=[39, 95]),
   midi.NoteOnEvent(tick=0, channel=0, data=[39, 95]),
   midi.NoteOffEvent(tick=480, channel=0, data=[39, 95]),
   midi.NoteOnEvent(tick=0, channel=0, data=[39, 95]),
   midi.NoteOffEvent(tick=240, channel=0, data=[39, 95]),
   midi.NoteOnEvent(tick=0, channel=0, data=[39, 95]),
   midi.NoteOffEvent(tick=240, channel=0, data=[39, 95]),
   midi.NoteOnEvent(tick=0, channel=0, data=[39, 95]),
   midi.NoteOffEvent(tick=480, channel=0, data=[39, 95]),
   midi.NoteOnEvent(tick=0, channel=0, data=[39, 95]),
   midi.NoteOffEvent(tick=480, channel=0, data=[39, 95]),
   midi.NoteOnEvent(tick=0, channel=0, data=[39, 95]),
   midi.NoteOffEvent(tick=240, channel=0, data=[39, 95]),
   midi.NoteOnEvent(tick=0, channel=0, data=[39, 95]),
   midi.NoteOffEvent(tick=240, channel=0, data=[39, 95]),
   midi.NoteOnEvent(tick=0, channel=0, data=[39, 95]),
   midi.NoteOffEvent(tick=480, channel=0, data=[39, 95]),
   midi.NoteOnEvent(tick=0, channel=0, data=[39, 95]),
   midi.NoteOffEvent(tick=480, channel=0, data=[39, 95]),
   midi.NoteOnEvent(tick=0, channel=0, data=[39, 95]),
   midi.NoteOffEvent(tick=240, channel=0, data=[39, 95]),
   midi.NoteOnEvent(tick=0, channel=0, data=[39, 95]),
   midi.NoteOffEvent(tick=240, channel=0, data=[39, 95]),
   midi.NoteOnEvent(tick=0, channel=0, data=[39, 95]),
   midi.NoteOffEvent(tick=480, channel=0, data=[39, 95]),
   midi.NoteOnEvent(tick=0, channel=0, data=[39, 95]),
   midi.NoteOffEvent(tick=480, channel=0, data=[39, 95]),
   midi.NoteOnEvent(tick=0, channel=0, data=[39, 95]),
   midi.NoteOffEvent(tick=480, channel=0, data=[39, 95]),
   midi.NoteOnEvent(tick=0, channel=0, data=[39, 95]),
   midi.NoteOffEvent(tick=480, channel=0, data=[39, 95]),
   midi.NoteOnEvent(tick=0, channel=0, data=[39, 95]),
   midi.NoteOffEvent(tick=480, channel=0, data=[39, 95]),
   midi.NoteOnEvent(tick=0, channel=0, data=[39, 95]),
   midi.NoteOffEvent(tick=480, channel=0, data=[39, 95]),
   midi.NoteOnEvent(tick=0, channel=0, data=[39, 95]),
   midi.NoteOffEvent(tick=480, channel=0, data=[39, 95]),
   midi.NoteOnEvent(tick=0, channel=0, data=[39, 95]),
   midi.NoteOffEvent(tick=480, channel=0, data=[39, 95]),
   midi.NoteOnEvent(tick=0, channel=0, data=[39, 95]),
   midi.NoteOffEvent(tick=480, channel=0, data=[39, 95]),
   midi.NoteOnEvent(tick=0, channel=0, data=[39, 95]),
   midi.NoteOffEvent(tick=240, channel=0, data=[39, 95]),
   midi.NoteOnEvent(tick=0, channel=0, data=[39, 95]),
   midi.NoteOffEvent(tick=240, channel=0, data=[39, 95]),
   midi.NoteOnEvent(tick=0, channel=0, data=[39, 95]),
   midi.NoteOffEvent(tick=480, channel=0, data=[39, 95]),
   midi.NoteOnEvent(tick=0, channel=0, data=[39, 95]),
   midi.NoteOffEvent(tick=480, channel=0, data=[39, 95]),
   midi.NoteOnEvent(tick=0, channel=0, data=[39, 95]),
   midi.NoteOffEvent(tick=240, channel=0, data=[39, 95]),
   midi.NoteOnEvent(tick=0, channel=0, data=[39, 95]),
   midi.NoteOffEvent(tick=240, channel=0, data=[39, 95]),
   midi.NoteOnEvent(tick=0, channel=0, data=[39, 95]),
   midi.NoteOffEvent(tick=480, channel=0, data=[39, 95]),
   midi.NoteOnEvent(tick=0, channel=0, data=[39, 95]),
   midi.NoteOffEvent(tick=480, channel=0, data=[39, 95]),
   midi.NoteOnEvent(tick=0, channel=0, data=[39, 95]),
   midi.NoteOffEvent(tick=240, channel=0, data=[39, 95]),
   midi.NoteOnEvent(tick=0, channel=0, data=[39, 95]),
   midi.NoteOffEvent(tick=240, channel=0, data=[39, 95]),
   midi.NoteOnEvent(tick=0, channel=0, data=[39, 95]),
   midi.NoteOffEvent(tick=480, channel=0, data=[39, 95]),
   midi.NoteOnEvent(tick=0, channel=0, data=[39, 95]),
   midi.NoteOffEvent(tick=480, channel=0, data=[39, 95]),
   midi.NoteOnEvent(tick=0, channel=0, data=[39, 95]),
   midi.NoteOffEvent(tick=480, channel=0, data=[39, 95]),
   midi.NoteOnEvent(tick=0, channel=0, data=[39, 95]),
   midi.NoteOffEvent(tick=480, channel=0, data=[39, 95]),
   midi.NoteOnEvent(tick=0, channel=0, data=[39, 95]),
   midi.NoteOffEvent(tick=480, channel=0, data=[39, 95]),
   midi.NoteOnEvent(tick=0, channel=0, data=[39, 95]),
   midi.NoteOffEvent(tick=480, channel=0, data=[39, 95]),
   midi.NoteOnEvent(tick=0, channel=0, data=[39, 95]),
   midi.NoteOffEvent(tick=480, channel=0, data=[39, 95]),
   midi.NoteOnEvent(tick=0, channel=0, data=[39, 95]),
   midi.NoteOffEvent(tick=480, channel=0, data=[39, 95]),
   midi.NoteOnEvent(tick=0, channel=0, data=[39, 95]),
   midi.NoteOffEvent(tick=480, channel=0, data=[39, 95]),
   midi.NoteOnEvent(tick=0, channel=0, data=[39, 95]),
   midi.NoteOffEvent(tick=240, channel=0, data=[39, 95]),
   midi.NoteOnEvent(tick=0, channel=0, data=[39, 95]),
   midi.NoteOffEvent(tick=240, channel=0, data=[39, 95]),
   midi.NoteOnEvent(tick=0, channel=0, data=[39, 95]),
   midi.NoteOffEvent(tick=480, channel=0, data=[39, 95]),
   midi.NoteOnEvent(tick=0, channel=0, data=[39, 95]),
   midi.NoteOffEvent(tick=480, channel=0, data=[39, 95]),
   midi.NoteOnEvent(tick=0, channel=0, data=[39, 95]),
   midi.NoteOffEvent(tick=240, channel=0, data=[39, 95]),
   midi.NoteOnEvent(tick=0, channel=0, data=[39, 95]),
   midi.NoteOffEvent(tick=240, channel=0, data=[39, 95]),
   midi.NoteOnEvent(tick=0, channel=0, data=[39, 95]),
   midi.NoteOffEvent(tick=480, channel=0, data=[39, 95]),
   midi.NoteOnEvent(tick=0, channel=0, data=[39, 95]),
   midi.NoteOffEvent(tick=480, channel=0, data=[39, 95]),
   midi.NoteOnEvent(tick=0, channel=0, data=[39, 95]),
   midi.NoteOffEvent(tick=240, channel=0, data=[39, 95]),
   midi.NoteOnEvent(tick=0, channel=0, data=[39, 95]),
   midi.NoteOffEvent(tick=240, channel=0, data=[39, 95]),
   midi.NoteOnEvent(tick=0, channel=0, data=[39, 95]),
   midi.NoteOffEvent(tick=480, channel=0, data=[39, 95]),
   midi.NoteOnEvent(tick=0, channel=0, data=[39, 95]),
   midi.NoteOffEvent(tick=480, channel=0, data=[39, 95]),
   midi.NoteOnEvent(tick=0, channel=0, data=[39, 95]),
   midi.NoteOffEvent(tick=480, channel=0, data=[39, 95]),
   midi.NoteOnEvent(tick=0, channel=0, data=[39, 95]),
   midi.NoteOffEvent(tick=480, channel=0, data=[39, 95]),
   midi.NoteOnEvent(tick=0, channel=0, data=[39, 95]),
   midi.NoteOffEvent(tick=480, channel=0, data=[39, 95]),
   midi.NoteOnEvent(tick=0, channel=0, data=[39, 95]),
   midi.NoteOffEvent(tick=480, channel=0, data=[39, 95]),
   midi.NoteOnEvent(tick=0, channel=0, data=[39, 95]),
   midi.NoteOffEvent(tick=480, channel=0, data=[39, 95]),
   midi.NoteOnEvent(tick=0, channel=0, data=[39, 95]),
   midi.NoteOffEvent(tick=480, channel=0, data=[39, 95]),
   midi.NoteOnEvent(tick=0, channel=0, data=[39, 95]),
   midi.NoteOffEvent(tick=480, channel=0, data=[39, 95]),
   midi.NoteOnEvent(tick=0, channel=0, data=[39, 95]),
   midi.NoteOffEvent(tick=240, channel=0, data=[39, 95]),
   midi.NoteOnEvent(tick=0, channel=0, data=[39, 95]),
   midi.NoteOffEvent(tick=240, channel=0, data=[39, 95]),
   midi.NoteOnEvent(tick=0, channel=0, data=[39, 95]),
   midi.NoteOffEvent(tick=480, channel=0, data=[39, 95]),
   midi.NoteOnEvent(tick=0, channel=0, data=[39, 95]),
   midi.NoteOffEvent(tick=480, channel=0, data=[39, 95]),
   midi.NoteOnEvent(tick=0, channel=0, data=[39, 95]),
   midi.NoteOffEvent(tick=240, channel=0, data=[39, 95]),
   midi.NoteOnEvent(tick=0, channel=0, data=[39, 95]),
   midi.NoteOffEvent(tick=240, channel=0, data=[39, 95]),
   midi.NoteOnEvent(tick=0, channel=0, data=[39, 95]),
   midi.NoteOffEvent(tick=480, channel=0, data=[39, 95]),
   midi.NoteOnEvent(tick=0, channel=0, data=[39, 95]),
   midi.NoteOffEvent(tick=480, channel=0, data=[39, 95]),
   midi.NoteOnEvent(tick=0, channel=0, data=[39, 95]),
   midi.NoteOffEvent(tick=240, channel=0, data=[39, 95]),
   midi.NoteOnEvent(tick=0, channel=0, data=[39, 95]),
   midi.NoteOffEvent(tick=240, channel=0, data=[39, 95]),
   midi.NoteOnEvent(tick=0, channel=0, data=[39, 95]),
   midi.NoteOffEvent(tick=480, channel=0, data=[39, 95]),
   midi.NoteOnEvent(tick=0, channel=0, data=[39, 95]),
   midi.NoteOffEvent(tick=480, channel=0, data=[39, 95]),
   midi.NoteOnEvent(tick=0, channel=0, data=[39, 95]),
   midi.NoteOffEvent(tick=480, channel=0, data=[39, 95]),
   midi.NoteOnEvent(tick=0, channel=0, data=[39, 95]),
   midi.NoteOffEvent(tick=480, channel=0, data=[39, 95]),
   midi.NoteOnEvent(tick=0, channel=0, data=[39, 95]),
   midi.NoteOffEvent(tick=480, channel=0, data=[39, 95]),
   midi.NoteOnEvent(tick=0, channel=0, data=[39, 95]),
   midi.NoteOffEvent(tick=480, channel=0, data=[39, 95]),
   midi.NoteOnEvent(tick=0, channel=0, data=[39, 95]),
   midi.NoteOffEvent(tick=480, channel=0, data=[39, 95]),
   midi.NoteOnEvent(tick=0, channel=0, data=[39, 95]),
   midi.NoteOffEvent(tick=480, channel=0, data=[39, 95]),
   midi.NoteOnEvent(tick=0, channel=0, data=[39, 95]),
   midi.NoteOffEvent(tick=480, channel=0, data=[39, 95]),
   midi.NoteOnEvent(tick=0, channel=0, data=[39, 95]),
   midi.NoteOffEvent(tick=240, channel=0, data=[39, 95]),
   midi.NoteOnEvent(tick=0, channel=0, data=[39, 95]),
   midi.NoteOffEvent(tick=240, channel=0, data=[39, 95]),
   midi.NoteOnEvent(tick=0, channel=0, data=[39, 95]),
   midi.NoteOffEvent(tick=480, channel=0, data=[39, 95]),
   midi.NoteOnEvent(tick=0, channel=0, data=[39, 95]),
   midi.NoteOffEvent(tick=480, channel=0, data=[39, 95]),
   midi.NoteOnEvent(tick=0, channel=0, data=[39, 95]),
   midi.NoteOffEvent(tick=240, channel=0, data=[39, 95]),
   midi.NoteOnEvent(tick=0, channel=0, data=[39, 95]),
   midi.NoteOffEvent(tick=240, channel=0, data=[39, 95]),
   midi.NoteOnEvent(tick=0, channel=0, data=[39, 95]),
   midi.NoteOffEvent(tick=480, channel=0, data=[39, 95]),
   midi.NoteOnEvent(tick=0, channel=0, data=[39, 95]),
   midi.NoteOffEvent(tick=480, channel=0, data=[39, 95]),
   midi.NoteOnEvent(tick=0, channel=0, data=[39, 95]),
   midi.NoteOffEvent(tick=240, channel=0, data=[39, 95]),
   midi.NoteOnEvent(tick=0, channel=0, data=[39, 95]),
   midi.NoteOffEvent(tick=240, channel=0, data=[39, 95]),
   midi.NoteOnEvent(tick=0, channel=0, data=[39, 95]),
   midi.NoteOffEvent(tick=480, channel=0, data=[39, 95]),
   midi.NoteOnEvent(tick=0, channel=0, data=[39, 95]),
   midi.NoteOffEvent(tick=480, channel=0, data=[39, 95]),
   midi.NoteOnEvent(tick=0, channel=0, data=[39, 95]),
   midi.NoteOffEvent(tick=480, channel=0, data=[39, 95]),
   midi.NoteOnEvent(tick=0, channel=0, data=[39, 95]),
   midi.NoteOffEvent(tick=480, channel=0, data=[39, 95]),
   midi.NoteOnEvent(tick=0, channel=0, data=[39, 95]),
   midi.NoteOffEvent(tick=480, channel=0, data=[39, 95]),
   midi.NoteOnEvent(tick=0, channel=0, data=[39, 95]),
   midi.NoteOffEvent(tick=480, channel=0, data=[39, 95]),
   midi.NoteOnEvent(tick=0, channel=0, data=[39, 95]),
   midi.NoteOffEvent(tick=480, channel=0, data=[39, 95]),
   midi.NoteOnEvent(tick=0, channel=0, data=[39, 95]),
   midi.NoteOffEvent(tick=480, channel=0, data=[39, 95]),
   midi.NoteOnEvent(tick=0, channel=0, data=[39, 95]),
   midi.NoteOffEvent(tick=480, channel=0, data=[39, 95]),
   midi.NoteOnEvent(tick=0, channel=0, data=[39, 95]),
   midi.NoteOffEvent(tick=240, channel=0, data=[39, 95]),
   midi.NoteOnEvent(tick=0, channel=0, data=[39, 95]),
   midi.NoteOffEvent(tick=240, channel=0, data=[39, 95]),
   midi.NoteOnEvent(tick=0, channel=0, data=[39, 95]),
   midi.NoteOffEvent(tick=480, channel=0, data=[39, 95]),
   midi.NoteOnEvent(tick=0, channel=0, data=[39, 95]),
   midi.NoteOffEvent(tick=480, channel=0, data=[39, 95]),
   midi.NoteOnEvent(tick=0, channel=0, data=[39, 95]),
   midi.NoteOffEvent(tick=240, channel=0, data=[39, 95]),
   midi.NoteOnEvent(tick=0, channel=0, data=[39, 95]),
   midi.NoteOffEvent(tick=240, channel=0, data=[39, 95]),
   midi.NoteOnEvent(tick=0, channel=0, data=[39, 95]),
   midi.NoteOffEvent(tick=480, channel=0, data=[39, 95]),
   midi.NoteOnEvent(tick=0, channel=0, data=[39, 95]),
   midi.NoteOffEvent(tick=480, channel=0, data=[39, 95]),
   midi.NoteOnEvent(tick=0, channel=0, data=[39, 95]),
   midi.NoteOffEvent(tick=240, channel=0, data=[39, 95]),
   midi.NoteOnEvent(tick=0, channel=0, data=[39, 95]),
   midi.NoteOffEvent(tick=240, channel=0, data=[39, 95]),
   midi.NoteOnEvent(tick=0, channel=0, data=[39, 95]),
   midi.NoteOffEvent(tick=480, channel=0, data=[39, 95]),
   midi.NoteOnEvent(tick=0, channel=1, data=[64, 95]),
   midi.NoteOnEvent(tick=0, channel=1, data=[57, 95]),
   midi.NoteOffEvent(tick=960, channel=1, data=[64, 95]),
   midi.NoteOffEvent(tick=0, channel=1, data=[57, 95]),
   midi.NoteOnEvent(tick=2880, channel=0, data=[39, 95]),
   midi.NoteOffEvent(tick=240, channel=0, data=[39, 95]),
   midi.NoteOnEvent(tick=0, channel=0, data=[39, 95]),
   midi.NoteOffEvent(tick=240, channel=0, data=[39, 95]),
   midi.NoteOnEvent(tick=0, channel=0, data=[39, 95]),
   midi.NoteOffEvent(tick=240, channel=0, data=[39, 95]),
   midi.NoteOnEvent(tick=0, channel=0, data=[39, 95]),
   midi.NoteOffEvent(tick=240, channel=0, data=[39, 95]),
   midi.NoteOnEvent(tick=0, channel=0, data=[39, 95]),
   midi.NoteOffEvent(tick=240, channel=0, data=[39, 95]),
   midi.NoteOnEvent(tick=0, channel=0, data=[39, 95]),
   midi.NoteOffEvent(tick=240, channel=0, data=[39, 95]),
   midi.NoteOnEvent(tick=0, channel=0, data=[39, 95]),
   midi.NoteOffEvent(tick=240, channel=0, data=[39, 95]),
   midi.NoteOnEvent(tick=0, channel=0, data=[39, 95]),
   midi.NoteOffEvent(tick=240, channel=0, data=[39, 95]),
   midi.NoteOnEvent(tick=0, channel=0, data=[39, 95]),
   midi.NoteOffEvent(tick=240, channel=0, data=[39, 95]),
   midi.NoteOnEvent(tick=0, channel=0, data=[39, 95]),
   midi.NoteOffEvent(tick=240, channel=0, data=[39, 95]),
   midi.NoteOnEvent(tick=0, channel=0, data=[39, 95]),
   midi.NoteOffEvent(tick=240, channel=0, data=[39, 95]),
   midi.NoteOnEvent(tick=0, channel=0, data=[39, 95]),
   midi.NoteOffEvent(tick=240, channel=0, data=[39, 95]),
   midi.NoteOnEvent(tick=0, channel=0, data=[39, 95]),
   midi.NoteOffEvent(tick=240, channel=0, data=[39, 95]),
   midi.NoteOnEvent(tick=0, channel=0, data=[39, 95]),
   midi.NoteOffEvent(tick=240, channel=0, data=[39, 95]),
   midi.NoteOnEvent(tick=0, channel=0, data=[39, 95]),
   midi.NoteOffEvent(tick=240, channel=0, data=[39, 95]),
   midi.NoteOnEvent(tick=0, channel=0, data=[39, 95]),
   midi.NoteOffEvent(tick=240, channel=0, data=[39, 95]),
   midi.NoteOnEvent(tick=0, channel=0, data=[42, 95]),
   midi.NoteOffEvent(tick=240, channel=0, data=[42, 95]),
   midi.NoteOnEvent(tick=0, channel=0, data=[42, 95]),
   midi.NoteOffEvent(tick=240, channel=0, data=[42, 95]),
   midi.NoteOnEvent(tick=0, channel=0, data=[42, 95]),
   midi.NoteOffEvent(tick=240, channel=0, data=[42, 95]),
   midi.NoteOnEvent(tick=0, channel=0, data=[42, 95]),
   midi.NoteOffEvent(tick=240, channel=0, data=[42, 95]),
   midi.NoteOnEvent(tick=0, channel=0, data=[42, 95]),
   midi.NoteOffEvent(tick=240, channel=0, data=[42, 95]),
   midi.NoteOnEvent(tick=0, channel=0, data=[42, 95]),
   midi.NoteOffEvent(tick=240, channel=0, data=[42, 95]),
   midi.NoteOnEvent(tick=0, channel=0, data=[42, 95]),
   midi.NoteOffEvent(tick=240, channel=0, data=[42, 95]),
   midi.NoteOnEvent(tick=0, channel=0, data=[42, 95]),
   midi.NoteOffEvent(tick=240, channel=0, data=[42, 95]),
   midi.NoteOnEvent(tick=0, channel=0, data=[40, 95]),
   midi.NoteOffEvent(tick=240, channel=0, data=[40, 95]),
   midi.NoteOnEvent(tick=0, channel=0, data=[40, 95]),
   midi.NoteOffEvent(tick=240, channel=0, data=[40, 95]),
   midi.NoteOnEvent(tick=0, channel=0, data=[40, 95]),
   midi.NoteOffEvent(tick=240, channel=0, data=[40, 95]),
   midi.NoteOnEvent(tick=0, channel=0, data=[40, 95]),
   midi.NoteOffEvent(tick=240, channel=0, data=[40, 95]),
   midi.NoteOnEvent(tick=0, channel=0, data=[40, 95]),
   midi.NoteOffEvent(tick=240, channel=0, data=[40, 95]),
   midi.NoteOnEvent(tick=0, channel=0, data=[40, 95]),
   midi.NoteOffEvent(tick=240, channel=0, data=[40, 95]),
   midi.NoteOnEvent(tick=0, channel=0, data=[40, 95]),
   midi.NoteOffEvent(tick=240, channel=0, data=[40, 95]),
   midi.NoteOnEvent(tick=0, channel=0, data=[46, 95]),
   midi.NoteOffEvent(tick=240, channel=0, data=[46, 95]),
   midi.NoteOnEvent(tick=0, channel=0, data=[39, 95]),
   midi.NoteOffEvent(tick=240, channel=0, data=[39, 95]),
   midi.NoteOnEvent(tick=0, channel=0, data=[39, 95]),
   midi.NoteOffEvent(tick=240, channel=0, data=[39, 95]),
   midi.NoteOnEvent(tick=0, channel=0, data=[39, 95]),
   midi.NoteOffEvent(tick=240, channel=0, data=[39, 95]),
   midi.NoteOnEvent(tick=0, channel=0, data=[39, 95]),
   midi.NoteOffEvent(tick=240, channel=0, data=[39, 95]),
   midi.NoteOnEvent(tick=0, channel=0, data=[39, 95]),
   midi.NoteOffEvent(tick=240, channel=0, data=[39, 95]),
   midi.NoteOnEvent(tick=0, channel=0, data=[39, 95]),
   midi.NoteOffEvent(tick=240, channel=0, data=[39, 95]),
   midi.NoteOnEvent(tick=0, channel=0, data=[39, 95]),
   midi.NoteOffEvent(tick=240, channel=0, data=[39, 95]),
   midi.NoteOnEvent(tick=0, channel=0, data=[39, 95]),
   midi.NoteOffEvent(tick=240, channel=0, data=[39, 95]),
   midi.NoteOnEvent(tick=0, channel=0, data=[39, 95]),
   midi.NoteOffEvent(tick=240, channel=0, data=[39, 95]),
   midi.NoteOnEvent(tick=0, channel=0, data=[39, 95]),
   midi.NoteOffEvent(tick=240, channel=0, data=[39, 95]),
   midi.NoteOnEvent(tick=0, channel=0, data=[39, 95]),
   midi.NoteOffEvent(tick=240, channel=0, data=[39, 95]),
   midi.NoteOnEvent(tick=0, channel=0, data=[39, 95]),
   midi.NoteOffEvent(tick=240, channel=0, data=[39, 95]),
   midi.NoteOnEvent(tick=0, channel=0, data=[39, 95]),
   midi.NoteOffEvent(tick=240, channel=0, data=[39, 95]),
   midi.NoteOnEvent(tick=0, channel=0, data=[39, 95]),
   midi.NoteOffEvent(tick=240, channel=0, data=[39, 95]),
   midi.NoteOnEvent(tick=0, channel=0, data=[39, 95]),
   midi.NoteOffEvent(tick=240, channel=0, data=[39, 95]),
   midi.NoteOnEvent(tick=0, channel=0, data=[39, 95]),
   midi.NoteOffEvent(tick=240, channel=0, data=[39, 95]),
   midi.NoteOnEvent(tick=0, channel=0, data=[42, 95]),
   midi.NoteOffEvent(tick=240, channel=0, data=[42, 95]),
   midi.NoteOnEvent(tick=0, channel=0, data=[42, 95]),
   midi.NoteOffEvent(tick=240, channel=0, data=[42, 95]),
   midi.NoteOnEvent(tick=0, channel=0, data=[42, 95]),
   midi.NoteOffEvent(tick=240, channel=0, data=[42, 95]),
   midi.NoteOnEvent(tick=0, channel=0, data=[42, 95]),
   midi.NoteOffEvent(tick=240, channel=0, data=[42, 95]),
   midi.NoteOnEvent(tick=0, channel=0, data=[42, 95]),
   midi.NoteOffEvent(tick=240, channel=0, data=[42, 95]),
   midi.NoteOnEvent(tick=0, channel=0, data=[42, 95]),
   midi.NoteOffEvent(tick=240, channel=0, data=[42, 95]),
   midi.NoteOnEvent(tick=0, channel=0, data=[42, 95]),
   midi.NoteOffEvent(tick=240, channel=0, data=[42, 95]),
   midi.NoteOnEvent(tick=0, channel=0, data=[42, 95]),
   midi.NoteOffEvent(tick=240, channel=0, data=[42, 95]),
   midi.NoteOnEvent(tick=0, channel=0, data=[40, 95]),
   midi.NoteOffEvent(tick=240, channel=0, data=[40, 95]),
   midi.NoteOnEvent(tick=0, channel=0, data=[40, 95]),
   midi.NoteOffEvent(tick=240, channel=0, data=[40, 95]),
   midi.NoteOnEvent(tick=0, channel=0, data=[40, 95]),
   midi.NoteOffEvent(tick=240, channel=0, data=[40, 95]),
   midi.NoteOnEvent(tick=0, channel=0, data=[40, 95]),
   midi.NoteOffEvent(tick=240, channel=0, data=[40, 95]),
   midi.NoteOnEvent(tick=0, channel=0, data=[40, 95]),
   midi.NoteOffEvent(tick=240, channel=0, data=[40, 95]),
   midi.NoteOnEvent(tick=0, channel=0, data=[40, 95]),
   midi.NoteOffEvent(tick=240, channel=0, data=[40, 95]),
   midi.NoteOnEvent(tick=0, channel=0, data=[40, 95]),
   midi.NoteOffEvent(tick=240, channel=0, data=[40, 95]),
   midi.NoteOnEvent(tick=0, channel=0, data=[46, 95]),
   midi.NoteOffEvent(tick=240, channel=0, data=[46, 95]),
   midi.NoteOnEvent(tick=0, channel=0, data=[39, 95]),
   midi.NoteOffEvent(tick=240, channel=0, data=[39, 95]),
   midi.NoteOnEvent(tick=0, channel=0, data=[39, 95]),
   midi.NoteOffEvent(tick=240, channel=0, data=[39, 95]),
   midi.NoteOnEvent(tick=0, channel=0, data=[39, 95]),
   midi.NoteOffEvent(tick=240, channel=0, data=[39, 95]),
   midi.NoteOnEvent(tick=0, channel=0, data=[39, 95]),
   midi.NoteOffEvent(tick=240, channel=0, data=[39, 95]),
   midi.NoteOnEvent(tick=0, channel=0, data=[39, 95]),
   midi.NoteOffEvent(tick=240, channel=0, data=[39, 95]),
   midi.NoteOnEvent(tick=0, channel=0, data=[39, 95]),
   midi.NoteOffEvent(tick=240, channel=0, data=[39, 95]),
   midi.NoteOnEvent(tick=0, channel=0, data=[39, 95]),
   midi.NoteOffEvent(tick=240, channel=0, data=[39, 95]),
   midi.NoteOnEvent(tick=0, channel=0, data=[39, 95]),
   midi.NoteOffEvent(tick=240, channel=0, data=[39, 95]),
   midi.NoteOnEvent(tick=0, channel=0, data=[39, 95]),
   midi.NoteOffEvent(tick=240, channel=0, data=[39, 95]),
   midi.NoteOnEvent(tick=0, channel=0, data=[39, 95]),
   midi.NoteOffEvent(tick=240, channel=0, data=[39, 95]),
   midi.NoteOnEvent(tick=0, channel=0, data=[39, 95]),
   midi.NoteOffEvent(tick=240, channel=0, data=[39, 95]),
   midi.NoteOnEvent(tick=0, channel=0, data=[39, 95]),
   midi.NoteOffEvent(tick=240, channel=0, data=[39, 95]),
   midi.NoteOnEvent(tick=0, channel=0, data=[39, 95]),
   midi.NoteOffEvent(tick=240, channel=0, data=[39, 95]),
   midi.NoteOnEvent(tick=0, channel=0, data=[39, 95]),
   midi.NoteOffEvent(tick=240, channel=0, data=[39, 95]),
   midi.NoteOnEvent(tick=0, channel=0, data=[39, 95]),
   midi.NoteOffEvent(tick=240, channel=0, data=[39, 95]),
   midi.NoteOnEvent(tick=0, channel=0, data=[39, 95]),
   midi.NoteOffEvent(tick=240, channel=0, data=[39, 95]),
   midi.NoteOnEvent(tick=0, channel=0, data=[42, 95]),
   midi.NoteOffEvent(tick=240, channel=0, data=[42, 95]),
   midi.NoteOnEvent(tick=0, channel=0, data=[42, 95]),
   midi.NoteOffEvent(tick=240, channel=0, data=[42, 95]),
   midi.NoteOnEvent(tick=0, channel=0, data=[42, 95]),
   midi.NoteOffEvent(tick=240, channel=0, data=[42, 95]),
   midi.NoteOnEvent(tick=0, channel=0, data=[42, 95]),
   midi.NoteOffEvent(tick=240, channel=0, data=[42, 95]),
   midi.NoteOnEvent(tick=0, channel=0, data=[42, 95]),
   midi.NoteOffEvent(tick=240, channel=0, data=[42, 95]),
   midi.NoteOnEvent(tick=0, channel=0, data=[42, 95]),
   midi.NoteOffEvent(tick=240, channel=0, data=[42, 95]),
   midi.NoteOnEvent(tick=0, channel=0, data=[42, 95]),
   midi.NoteOffEvent(tick=240, channel=0, data=[42, 95]),
   midi.NoteOnEvent(tick=0, channel=0, data=[42, 95]),
   midi.NoteOffEvent(tick=240, channel=0, data=[42, 95]),
   midi.NoteOnEvent(tick=0, channel=0, data=[40, 95]),
   midi.NoteOffEvent(tick=240, channel=0, data=[40, 95]),
   midi.NoteOnEvent(tick=0, channel=0, data=[40, 95]),
   midi.NoteOffEvent(tick=240, channel=0, data=[40, 95]),
   midi.NoteOnEvent(tick=0, channel=0, data=[40, 95]),
   midi.NoteOffEvent(tick=240, channel=0, data=[40, 95]),
   midi.NoteOnEvent(tick=0, channel=0, data=[40, 95]),
   midi.NoteOffEvent(tick=240, channel=0, data=[40, 95]),
   midi.NoteOnEvent(tick=0, channel=0, data=[40, 95]),
   midi.NoteOffEvent(tick=240, channel=0, data=[40, 95]),
   midi.NoteOnEvent(tick=0, channel=0, data=[40, 95]),
   midi.NoteOffEvent(tick=240, channel=0, data=[40, 95]),
   midi.NoteOnEvent(tick=0, channel=0, data=[40, 95]),
   midi.NoteOffEvent(tick=240, channel=0, data=[40, 95]),
   midi.NoteOnEvent(tick=0, channel=0, data=[46, 95]),
   midi.NoteOffEvent(tick=240, channel=0, data=[46, 95]),
   midi.NoteOnEvent(tick=0, channel=0, data=[39, 95]),
   midi.NoteOffEvent(tick=240, channel=0, data=[39, 95]),
   midi.NoteOnEvent(tick=0, channel=0, data=[39, 95]),
   midi.NoteOffEvent(tick=240, channel=0, data=[39, 95]),
   midi.NoteOnEvent(tick=0, channel=0, data=[39, 95]),
   midi.NoteOffEvent(tick=240, channel=0, data=[39, 95]),
   midi.NoteOnEvent(tick=0, channel=0, data=[39, 95]),
   midi.NoteOffEvent(tick=240, channel=0, data=[39, 95]),
   midi.NoteOnEvent(tick=0, channel=0, data=[39, 95]),
   midi.NoteOffEvent(tick=240, channel=0, data=[39, 95]),
   midi.NoteOnEvent(tick=0, channel=0, data=[39, 95]),
   midi.NoteOffEvent(tick=240, channel=0, data=[39, 95]),
   midi.NoteOnEvent(tick=0, channel=0, data=[39, 95]),
   midi.NoteOffEvent(tick=240, channel=0, data=[39, 95]),
   midi.NoteOnEvent(tick=0, channel=0, data=[39, 95]),
   midi.NoteOffEvent(tick=240, channel=0, data=[39, 95]),
   midi.NoteOnEvent(tick=0, channel=0, data=[39, 95]),
   midi.NoteOffEvent(tick=240, channel=0, data=[39, 95]),
   midi.NoteOnEvent(tick=0, channel=0, data=[39, 95]),
   midi.NoteOffEvent(tick=240, channel=0, data=[39, 95]),
   midi.NoteOnEvent(tick=0, channel=0, data=[39, 95]),
   midi.NoteOffEvent(tick=240, channel=0, data=[39, 95]),
   midi.NoteOnEvent(tick=0, channel=0, data=[39, 95]),
   midi.NoteOffEvent(tick=240, channel=0, data=[39, 95]),
   midi.NoteOnEvent(tick=0, channel=0, data=[39, 95]),
   midi.NoteOffEvent(tick=240, channel=0, data=[39, 95]),
   midi.NoteOnEvent(tick=0, channel=0, data=[39, 95]),
   midi.NoteOffEvent(tick=240, channel=0, data=[39, 95]),
   midi.NoteOnEvent(tick=0, channel=0, data=[39, 95]),
   midi.NoteOffEvent(tick=240, channel=0, data=[39, 95]),
   midi.NoteOnEvent(tick=0, channel=0, data=[39, 95]),
   midi.NoteOffEvent(tick=240, channel=0, data=[39, 95]),
   midi.NoteOnEvent(tick=0, channel=0, data=[42, 95]),
   midi.NoteOffEvent(tick=240, channel=0, data=[42, 95]),
   midi.NoteOnEvent(tick=0, channel=0, data=[42, 95]),
   midi.NoteOffEvent(tick=240, channel=0, data=[42, 95]),
   midi.NoteOnEvent(tick=0, channel=0, data=[42, 95]),
   midi.NoteOffEvent(tick=240, channel=0, data=[42, 95]),
   midi.NoteOnEvent(tick=0, channel=0, data=[42, 95]),
   midi.NoteOffEvent(tick=240, channel=0, data=[42, 95]),
   midi.NoteOnEvent(tick=0, channel=0, data=[42, 95]),
   midi.NoteOffEvent(tick=240, channel=0, data=[42, 95]),
   midi.NoteOnEvent(tick=0, channel=0, data=[42, 95]),
   midi.NoteOffEvent(tick=240, channel=0, data=[42, 95]),
   midi.NoteOnEvent(tick=0, channel=0, data=[42, 95]),
   midi.NoteOffEvent(tick=240, channel=0, data=[42, 95]),
   midi.NoteOnEvent(tick=0, channel=0, data=[42, 95]),
   midi.NoteOffEvent(tick=240, channel=0, data=[42, 95]),
   midi.NoteOnEvent(tick=0, channel=0, data=[40, 95]),
   midi.NoteOffEvent(tick=240, channel=0, data=[40, 95]),
   midi.NoteOnEvent(tick=0, channel=0, data=[40, 95]),
   midi.NoteOffEvent(tick=240, channel=0, data=[40, 95]),
   midi.NoteOnEvent(tick=0, channel=0, data=[40, 95]),
   midi.NoteOffEvent(tick=240, channel=0, data=[40, 95]),
   midi.NoteOnEvent(tick=0, channel=0, data=[40, 95]),
   midi.NoteOffEvent(tick=240, channel=0, data=[40, 95]),
   midi.NoteOnEvent(tick=0, channel=0, data=[40, 95]),
   midi.NoteOffEvent(tick=240, channel=0, data=[40, 95]),
   midi.NoteOnEvent(tick=0, channel=0, data=[40, 95]),
   midi.NoteOffEvent(tick=240, channel=0, data=[40, 95]),
   midi.NoteOnEvent(tick=0, channel=0, data=[40, 95]),
   midi.NoteOffEvent(tick=240, channel=0, data=[40, 95]),
   midi.NoteOnEvent(tick=0, channel=0, data=[46, 95]),
   midi.NoteOffEvent(tick=240, channel=0, data=[46, 95]),
   midi.NoteOnEvent(tick=0, channel=0, data=[39, 95]),
   midi.NoteOffEvent(tick=240, channel=0, data=[39, 95]),
   midi.NoteOnEvent(tick=0, channel=0, data=[39, 95]),
   midi.NoteOffEvent(tick=240, channel=0, data=[39, 95]),
   midi.NoteOnEvent(tick=0, channel=0, data=[39, 95]),
   midi.NoteOffEvent(tick=240, channel=0, data=[39, 95]),
   midi.NoteOnEvent(tick=0, channel=0, data=[39, 95]),
   midi.NoteOffEvent(tick=240, channel=0, data=[39, 95]),
   midi.NoteOnEvent(tick=0, channel=0, data=[39, 95]),
   midi.NoteOffEvent(tick=240, channel=0, data=[39, 95]),
   midi.NoteOnEvent(tick=0, channel=0, data=[39, 95]),
   midi.NoteOffEvent(tick=240, channel=0, data=[39, 95]),
   midi.NoteOnEvent(tick=0, channel=0, data=[39, 95]),
   midi.NoteOffEvent(tick=240, channel=0, data=[39, 95]),
   midi.NoteOnEvent(tick=0, channel=0, data=[39, 95]),
   midi.NoteOffEvent(tick=240, channel=0, data=[39, 95]),
   midi.NoteOnEvent(tick=0, channel=0, data=[39, 95]),
   midi.NoteOffEvent(tick=240, channel=0, data=[39, 95]),
   midi.NoteOnEvent(tick=0, channel=0, data=[39, 95]),
   midi.NoteOffEvent(tick=240, channel=0, data=[39, 95]),
   midi.NoteOnEvent(tick=0, channel=0, data=[39, 95]),
   midi.NoteOffEvent(tick=240, channel=0, data=[39, 95]),
   midi.NoteOnEvent(tick=0, channel=0, data=[39, 95]),
   midi.NoteOffEvent(tick=240, channel=0, data=[39, 95]),
   midi.NoteOnEvent(tick=0, channel=0, data=[39, 95]),
   midi.NoteOffEvent(tick=240, channel=0, data=[39, 95]),
   midi.NoteOnEvent(tick=0, channel=0, data=[39, 95]),
   midi.NoteOffEvent(tick=240, channel=0, data=[39, 95]),
   midi.NoteOnEvent(tick=0, channel=0, data=[39, 95]),
   midi.NoteOffEvent(tick=240, channel=0, data=[39, 95]),
   midi.NoteOnEvent(tick=0, channel=0, data=[39, 95]),
   midi.NoteOffEvent(tick=240, channel=0, data=[39, 95]),
   midi.NoteOnEvent(tick=0, channel=0, data=[42, 95]),
   midi.NoteOffEvent(tick=240, channel=0, data=[42, 95]),
   midi.NoteOnEvent(tick=0, channel=0, data=[42, 95]),
   midi.NoteOffEvent(tick=240, channel=0, data=[42, 95]),
   midi.NoteOnEvent(tick=0, channel=0, data=[42, 95]),
   midi.NoteOffEvent(tick=240, channel=0, data=[42, 95]),
   midi.NoteOnEvent(tick=0, channel=0, data=[42, 95]),
   midi.NoteOffEvent(tick=240, channel=0, data=[42, 95]),
   midi.NoteOnEvent(tick=0, channel=0, data=[42, 95]),
   midi.NoteOffEvent(tick=240, channel=0, data=[42, 95]),
   midi.NoteOnEvent(tick=0, channel=0, data=[42, 95]),
   midi.NoteOffEvent(tick=240, channel=0, data=[42, 95]),
   midi.NoteOnEvent(tick=0, channel=0, data=[42, 95]),
   midi.NoteOffEvent(tick=240, channel=0, data=[42, 95]),
   midi.NoteOnEvent(tick=0, channel=0, data=[42, 95]),
   midi.NoteOffEvent(tick=240, channel=0, data=[42, 95]),
   midi.NoteOnEvent(tick=0, channel=0, data=[40, 95]),
   midi.NoteOffEvent(tick=240, channel=0, data=[40, 95]),
   midi.NoteOnEvent(tick=0, channel=0, data=[40, 95]),
   midi.NoteOffEvent(tick=240, channel=0, data=[40, 95]),
   midi.NoteOnEvent(tick=0, channel=0, data=[40, 95]),
   midi.NoteOffEvent(tick=240, channel=0, data=[40, 95]),
   midi.NoteOnEvent(tick=0, channel=0, data=[40, 95]),
   midi.NoteOffEvent(tick=240, channel=0, data=[40, 95]),
   midi.NoteOnEvent(tick=0, channel=0, data=[40, 95]),
   midi.NoteOffEvent(tick=240, channel=0, data=[40, 95]),
   midi.NoteOnEvent(tick=0, channel=0, data=[40, 95]),
   midi.NoteOffEvent(tick=240, channel=0, data=[40, 95]),
   midi.NoteOnEvent(tick=0, channel=0, data=[40, 95]),
   midi.NoteOffEvent(tick=240, channel=0, data=[40, 95]),
   midi.NoteOnEvent(tick=0, channel=0, data=[46, 95]),
   midi.NoteOffEvent(tick=240, channel=0, data=[46, 95]),
   midi.NoteOnEvent(tick=0, channel=0, data=[39, 95]),
   midi.NoteOffEvent(tick=240, channel=0, data=[39, 95]),
   midi.NoteOnEvent(tick=0, channel=0, data=[39, 95]),
   midi.NoteOffEvent(tick=240, channel=0, data=[39, 95]),
   midi.NoteOnEvent(tick=0, channel=0, data=[39, 95]),
   midi.NoteOffEvent(tick=240, channel=0, data=[39, 95]),
   midi.NoteOnEvent(tick=0, channel=0, data=[39, 95]),
   midi.NoteOffEvent(tick=240, channel=0, data=[39, 95]),
   midi.NoteOnEvent(tick=0, channel=0, data=[39, 95]),
   midi.NoteOffEvent(tick=240, channel=0, data=[39, 95]),
   midi.NoteOnEvent(tick=0, channel=0, data=[39, 95]),
   midi.NoteOffEvent(tick=240, channel=0, data=[39, 95]),
   midi.NoteOnEvent(tick=0, channel=0, data=[39, 95]),
   midi.NoteOffEvent(tick=240, channel=0, data=[39, 95]),
   midi.NoteOnEvent(tick=0, channel=0, data=[39, 95]),
   midi.NoteOffEvent(tick=240, channel=0, data=[39, 95]),
   midi.NoteOnEvent(tick=0, channel=0, data=[39, 95]),
   midi.NoteOffEvent(tick=240, channel=0, data=[39, 95]),
   midi.NoteOnEvent(tick=0, channel=0, data=[39, 95]),
   midi.NoteOffEvent(tick=240, channel=0, data=[39, 95]),
   midi.NoteOnEvent(tick=0, channel=0, data=[39, 95]),
   midi.NoteOffEvent(tick=240, channel=0, data=[39, 95]),
   midi.NoteOnEvent(tick=0, channel=0, data=[39, 95]),
   midi.NoteOffEvent(tick=240, channel=0, data=[39, 95]),
   midi.NoteOnEvent(tick=0, channel=0, data=[39, 95]),
   midi.NoteOffEvent(tick=240, channel=0, data=[39, 95]),
   midi.NoteOnEvent(tick=0, channel=0, data=[39, 95]),
   midi.NoteOffEvent(tick=240, channel=0, data=[39, 95]),
   midi.NoteOnEvent(tick=0, channel=0, data=[39, 95]),
   midi.NoteOffEvent(tick=240, channel=0, data=[39, 95]),
   midi.NoteOnEvent(tick=0, channel=0, data=[39, 95]),
   midi.NoteOffEvent(tick=240, channel=0, data=[39, 95]),
   midi.NoteOnEvent(tick=0, channel=0, data=[42, 95]),
   midi.NoteOffEvent(tick=240, channel=0, data=[42, 95]),
   midi.NoteOnEvent(tick=0, channel=0, data=[42, 95]),
   midi.NoteOffEvent(tick=240, channel=0, data=[42, 95]),
   midi.NoteOnEvent(tick=0, channel=0, data=[42, 95]),
   midi.NoteOffEvent(tick=240, channel=0, data=[42, 95]),
   midi.NoteOnEvent(tick=0, channel=0, data=[42, 95]),
   midi.NoteOffEvent(tick=240, channel=0, data=[42, 95]),
   midi.NoteOnEvent(tick=0, channel=0, data=[42, 95]),
   midi.NoteOffEvent(tick=240, channel=0, data=[42, 95]),
   midi.NoteOnEvent(tick=0, channel=0, data=[42, 95]),
   midi.NoteOffEvent(tick=240, channel=0, data=[42, 95]),
   midi.NoteOnEvent(tick=0, channel=0, data=[42, 95]),
   midi.NoteOffEvent(tick=240, channel=0, data=[42, 95]),
   midi.NoteOnEvent(tick=0, channel=0, data=[42, 95]),
   midi.NoteOffEvent(tick=240, channel=0, data=[42, 95]),
   midi.NoteOnEvent(tick=0, channel=0, data=[40, 95]),
   midi.NoteOffEvent(tick=240, channel=0, data=[40, 95]),
   midi.NoteOnEvent(tick=0, channel=0, data=[40, 95]),
   midi.NoteOffEvent(tick=240, channel=0, data=[40, 95]),
   midi.NoteOnEvent(tick=0, channel=0, data=[40, 95]),
   midi.NoteOffEvent(tick=240, channel=0, data=[40, 95]),
   midi.NoteOnEvent(tick=0, channel=0, data=[40, 95]),
   midi.NoteOffEvent(tick=240, channel=0, data=[40, 95]),
   midi.NoteOnEvent(tick=0, channel=0, data=[40, 95]),
   midi.NoteOffEvent(tick=240, channel=0, data=[40, 95]),
   midi.NoteOnEvent(tick=0, channel=0, data=[40, 95]),
   midi.NoteOffEvent(tick=240, channel=0, data=[40, 95]),
   midi.NoteOnEvent(tick=0, channel=0, data=[40, 95]),
   midi.NoteOffEvent(tick=240, channel=0, data=[40, 95]),
   midi.NoteOnEvent(tick=0, channel=0, data=[46, 95]),
   midi.NoteOffEvent(tick=240, channel=0, data=[46, 95]),
   midi.NoteOnEvent(tick=0, channel=0, data=[39, 95]),
   midi.NoteOffEvent(tick=240, channel=0, data=[39, 95]),
   midi.NoteOnEvent(tick=0, channel=0, data=[39, 95]),
   midi.NoteOffEvent(tick=240, channel=0, data=[39, 95]),
   midi.NoteOnEvent(tick=0, channel=0, data=[39, 95]),
   midi.NoteOffEvent(tick=240, channel=0, data=[39, 95]),
   midi.NoteOnEvent(tick=0, channel=0, data=[39, 95]),
   midi.NoteOffEvent(tick=240, channel=0, data=[39, 95]),
   midi.NoteOnEvent(tick=0, channel=0, data=[39, 95]),
   midi.NoteOffEvent(tick=240, channel=0, data=[39, 95]),
   midi.NoteOnEvent(tick=0, channel=0, data=[39, 95]),
   midi.NoteOffEvent(tick=240, channel=0, data=[39, 95]),
   midi.NoteOnEvent(tick=0, channel=0, data=[39, 95]),
   midi.NoteOffEvent(tick=240, channel=0, data=[39, 95]),
   midi.NoteOnEvent(tick=0, channel=0, data=[39, 95]),
   midi.NoteOffEvent(tick=240, channel=0, data=[39, 95]),
   midi.NoteOnEvent(tick=0, channel=0, data=[39, 95]),
   midi.NoteOffEvent(tick=240, channel=0, data=[39, 95]),
   midi.NoteOnEvent(tick=0, channel=0, data=[39, 95]),
   midi.NoteOffEvent(tick=240, channel=0, data=[39, 95]),
   midi.NoteOnEvent(tick=0, channel=0, data=[39, 95]),
   midi.NoteOffEvent(tick=240, channel=0, data=[39, 95]),
   midi.NoteOnEvent(tick=0, channel=0, data=[39, 95]),
   midi.NoteOffEvent(tick=240, channel=0, data=[39, 95]),
   midi.NoteOnEvent(tick=0, channel=0, data=[39, 95]),
   midi.NoteOffEvent(tick=240, channel=0, data=[39, 95]),
   midi.NoteOnEvent(tick=0, channel=0, data=[39, 95]),
   midi.NoteOffEvent(tick=240, channel=0, data=[39, 95]),
   midi.NoteOnEvent(tick=0, channel=0, data=[39, 95]),
   midi.NoteOffEvent(tick=240, channel=0, data=[39, 95]),
   midi.NoteOnEvent(tick=0, channel=0, data=[39, 95]),
   midi.NoteOffEvent(tick=240, channel=0, data=[39, 95]),
   midi.NoteOnEvent(tick=0, channel=0, data=[42, 95]),
   midi.NoteOffEvent(tick=240, channel=0, data=[42, 95]),
   midi.NoteOnEvent(tick=0, channel=0, data=[42, 95]),
   midi.NoteOffEvent(tick=240, channel=0, data=[42, 95]),
   midi.NoteOnEvent(tick=0, channel=0, data=[42, 95]),
   midi.NoteOffEvent(tick=240, channel=0, data=[42, 95]),
   midi.NoteOnEvent(tick=0, channel=0, data=[42, 95]),
   midi.NoteOffEvent(tick=240, channel=0, data=[42, 95]),
   midi.NoteOnEvent(tick=0, channel=0, data=[42, 95]),
   midi.NoteOffEvent(tick=240, channel=0, data=[42, 95]),
   midi.NoteOnEvent(tick=0, channel=0, data=[42, 95]),
   midi.NoteOffEvent(tick=240, channel=0, data=[42, 95]),
   midi.NoteOnEvent(tick=0, channel=0, data=[42, 95]),
   midi.NoteOffEvent(tick=240, channel=0, data=[42, 95]),
   midi.NoteOnEvent(tick=0, channel=0, data=[42, 95]),
   midi.NoteOffEvent(tick=240, channel=0, data=[42, 95]),
   midi.NoteOnEvent(tick=0, channel=0, data=[40, 95]),
   midi.NoteOffEvent(tick=240, channel=0, data=[40, 95]),
   midi.NoteOnEvent(tick=0, channel=0, data=[40, 95]),
   midi.NoteOffEvent(tick=240, channel=0, data=[40, 95]),
   midi.NoteOnEvent(tick=0, channel=0, data=[40, 95]),
   midi.NoteOffEvent(tick=240, channel=0, data=[40, 95]),
   midi.NoteOnEvent(tick=0, channel=0, data=[40, 95]),
   midi.NoteOffEvent(tick=240, channel=0, data=[40, 95]),
   midi.NoteOnEvent(tick=0, channel=0, data=[40, 95]),
   midi.NoteOffEvent(tick=240, channel=0, data=[40, 95]),
   midi.NoteOnEvent(tick=0, channel=0, data=[40, 95]),
   midi.NoteOffEvent(tick=240, channel=0, data=[40, 95]),
   midi.NoteOnEvent(tick=0, channel=0, data=[40, 95]),
   midi.NoteOffEvent(tick=240, channel=0, data=[40, 95]),
   midi.NoteOnEvent(tick=0, channel=0, data=[46, 95]),
   midi.NoteOffEvent(tick=240, channel=0, data=[46, 95]),
   midi.NoteOnEvent(tick=0, channel=0, data=[39, 95]),
   midi.NoteOffEvent(tick=240, channel=0, data=[39, 95]),
   midi.NoteOnEvent(tick=0, channel=0, data=[39, 95]),
   midi.NoteOffEvent(tick=240, channel=0, data=[39, 95]),
   midi.NoteOnEvent(tick=0, channel=0, data=[39, 95]),
   midi.NoteOffEvent(tick=240, channel=0, data=[39, 95]),
   midi.NoteOnEvent(tick=0, channel=0, data=[39, 95]),
   midi.NoteOffEvent(tick=240, channel=0, data=[39, 95]),
   midi.NoteOnEvent(tick=0, channel=0, data=[39, 95]),
   midi.NoteOffEvent(tick=240, channel=0, data=[39, 95]),
   midi.NoteOnEvent(tick=0, channel=0, data=[39, 95]),
   midi.NoteOffEvent(tick=240, channel=0, data=[39, 95]),
   midi.NoteOnEvent(tick=0, channel=0, data=[39, 95]),
   midi.NoteOffEvent(tick=240, channel=0, data=[39, 95]),
   midi.NoteOnEvent(tick=0, channel=0, data=[39, 95]),
   midi.NoteOffEvent(tick=240, channel=0, data=[39, 95]),
   midi.NoteOnEvent(tick=0, channel=0, data=[39, 95]),
   midi.NoteOffEvent(tick=240, channel=0, data=[39, 95]),
   midi.NoteOnEvent(tick=0, channel=0, data=[39, 95]),
   midi.NoteOffEvent(tick=240, channel=0, data=[39, 95]),
   midi.NoteOnEvent(tick=0, channel=0, data=[39, 95]),
   midi.NoteOffEvent(tick=240, channel=0, data=[39, 95]),
   midi.NoteOnEvent(tick=0, channel=0, data=[39, 95]),
   midi.NoteOffEvent(tick=240, channel=0, data=[39, 95]),
   midi.NoteOnEvent(tick=0, channel=0, data=[39, 95]),
   midi.NoteOffEvent(tick=240, channel=0, data=[39, 95]),
   midi.NoteOnEvent(tick=0, channel=0, data=[39, 95]),
   midi.NoteOffEvent(tick=240, channel=0, data=[39, 95]),
   midi.NoteOnEvent(tick=0, channel=0, data=[39, 95]),
   midi.NoteOffEvent(tick=240, channel=0, data=[39, 95]),
   midi.NoteOnEvent(tick=0, channel=0, data=[39, 95]),
   midi.NoteOffEvent(tick=240, channel=0, data=[39, 95]),
   midi.NoteOnEvent(tick=0, channel=0, data=[42, 95]),
   midi.NoteOffEvent(tick=240, channel=0, data=[42, 95]),
   midi.NoteOnEvent(tick=0, channel=0, data=[42, 95]),
   midi.NoteOffEvent(tick=240, channel=0, data=[42, 95]),
   midi.NoteOnEvent(tick=0, channel=0, data=[42, 95]),
   midi.NoteOffEvent(tick=240, channel=0, data=[42, 95]),
   midi.NoteOnEvent(tick=0, channel=0, data=[42, 95]),
   midi.NoteOffEvent(tick=240, channel=0, data=[42, 95]),
   midi.NoteOnEvent(tick=0, channel=0, data=[42, 95]),
   midi.NoteOffEvent(tick=240, channel=0, data=[42, 95]),
   midi.NoteOnEvent(tick=0, channel=0, data=[42, 95]),
   midi.NoteOffEvent(tick=240, channel=0, data=[42, 95]),
   midi.NoteOnEvent(tick=0, channel=0, data=[42, 95]),
   midi.NoteOffEvent(tick=240, channel=0, data=[42, 95]),
   midi.NoteOnEvent(tick=0, channel=0, data=[42, 95]),
   midi.NoteOffEvent(tick=240, channel=0, data=[42, 95]),
   midi.NoteOnEvent(tick=0, channel=0, data=[40, 95]),
   midi.NoteOffEvent(tick=240, channel=0, data=[40, 95]),
   midi.NoteOnEvent(tick=0, channel=0, data=[40, 95]),
   midi.NoteOffEvent(tick=240, channel=0, data=[40, 95]),
   midi.NoteOnEvent(tick=0, channel=0, data=[40, 95]),
   midi.NoteOffEvent(tick=240, channel=0, data=[40, 95]),
   midi.NoteOnEvent(tick=0, channel=0, data=[40, 95]),
   midi.NoteOffEvent(tick=240, channel=0, data=[40, 95]),
   midi.NoteOnEvent(tick=0, channel=0, data=[40, 95]),
   midi.NoteOffEvent(tick=240, channel=0, data=[40, 95]),
   midi.NoteOnEvent(tick=0, channel=0, data=[40, 95]),
   midi.NoteOffEvent(tick=240, channel=0, data=[40, 95]),
   midi.NoteOnEvent(tick=0, channel=0, data=[40, 95]),
   midi.NoteOffEvent(tick=240, channel=0, data=[40, 95]),
   midi.NoteOnEvent(tick=0, channel=0, data=[46, 95]),
   midi.NoteOffEvent(tick=240, channel=0, data=[46, 95]),
   midi.NoteOnEvent(tick=0, channel=0, data=[39, 95]),
   midi.NoteOffEvent(tick=240, channel=0, data=[39, 95]),
   midi.NoteOnEvent(tick=0, channel=0, data=[39, 95]),
   midi.NoteOffEvent(tick=240, channel=0, data=[39, 95]),
   midi.NoteOnEvent(tick=0, channel=0, data=[39, 95]),
   midi.NoteOffEvent(tick=240, channel=0, data=[39, 95]),
   midi.NoteOnEvent(tick=0, channel=0, data=[39, 95]),
   midi.NoteOffEvent(tick=240, channel=0, data=[39, 95]),
   midi.NoteOnEvent(tick=0, channel=0, data=[39, 95]),
   midi.NoteOffEvent(tick=240, channel=0, data=[39, 95]),
   midi.NoteOnEvent(tick=0, channel=0, data=[39, 95]),
   midi.NoteOffEvent(tick=240, channel=0, data=[39, 95]),
   midi.NoteOnEvent(tick=0, channel=0, data=[39, 95]),
   midi.NoteOffEvent(tick=240, channel=0, data=[39, 95]),
   midi.NoteOnEvent(tick=0, channel=0, data=[39, 95]),
   midi.NoteOffEvent(tick=240, channel=0, data=[39, 95]),
   midi.NoteOnEvent(tick=0, channel=0, data=[39, 95]),
   midi.NoteOffEvent(tick=240, channel=0, data=[39, 95]),
   midi.NoteOnEvent(tick=0, channel=0, data=[39, 95]),
   midi.NoteOffEvent(tick=240, channel=0, data=[39, 95]),
   midi.NoteOnEvent(tick=0, channel=0, data=[39, 95]),
   midi.NoteOffEvent(tick=240, channel=0, data=[39, 95]),
   midi.NoteOnEvent(tick=0, channel=0, data=[39, 95]),
   midi.NoteOffEvent(tick=240, channel=0, data=[39, 95]),
   midi.NoteOnEvent(tick=0, channel=0, data=[39, 95]),
   midi.NoteOffEvent(tick=240, channel=0, data=[39, 95]),
   midi.NoteOnEvent(tick=0, channel=0, data=[39, 95]),
   midi.NoteOffEvent(tick=240, channel=0, data=[39, 95]),
   midi.NoteOnEvent(tick=0, channel=0, data=[39, 95]),
   midi.NoteOffEvent(tick=240, channel=0, data=[39, 95]),
   midi.NoteOnEvent(tick=0, channel=0, data=[39, 95]),
   midi.NoteOffEvent(tick=240, channel=0, data=[39, 95]),
   midi.NoteOnEvent(tick=0, channel=0, data=[42, 95]),
   midi.NoteOffEvent(tick=240, channel=0, data=[42, 95]),
   midi.NoteOnEvent(tick=0, channel=0, data=[42, 95]),
   midi.NoteOffEvent(tick=240, channel=0, data=[42, 95]),
   midi.NoteOnEvent(tick=0, channel=0, data=[42, 95]),
   midi.NoteOffEvent(tick=240, channel=0, data=[42, 95]),
   midi.NoteOnEvent(tick=0, channel=0, data=[42, 95]),
   midi.NoteOffEvent(tick=240, channel=0, data=[42, 95]),
   midi.NoteOnEvent(tick=0, channel=0, data=[42, 95]),
   midi.NoteOffEvent(tick=240, channel=0, data=[42, 95]),
   midi.NoteOnEvent(tick=0, channel=0, data=[42, 95]),
   midi.NoteOffEvent(tick=240, channel=0, data=[42, 95]),
   midi.NoteOnEvent(tick=0, channel=0, data=[42, 95]),
   midi.NoteOffEvent(tick=240, channel=0, data=[42, 95]),
   midi.NoteOnEvent(tick=0, channel=0, data=[42, 95]),
   midi.NoteOffEvent(tick=240, channel=0, data=[42, 95]),
   midi.NoteOnEvent(tick=0, channel=0, data=[40, 95]),
   midi.NoteOffEvent(tick=240, channel=0, data=[40, 95]),
   midi.NoteOnEvent(tick=0, channel=0, data=[40, 95]),
   midi.NoteOffEvent(tick=240, channel=0, data=[40, 95]),
   midi.NoteOnEvent(tick=0, channel=0, data=[40, 95]),
   midi.NoteOffEvent(tick=240, channel=0, data=[40, 95]),
   midi.NoteOnEvent(tick=0, channel=0, data=[40, 95]),
   midi.NoteOffEvent(tick=240, channel=0, data=[40, 95]),
   midi.NoteOnEvent(tick=0, channel=0, data=[40, 95]),
   midi.NoteOffEvent(tick=240, channel=0, data=[40, 95]),
   midi.NoteOnEvent(tick=0, channel=0, data=[40, 95]),
   midi.NoteOffEvent(tick=240, channel=0, data=[40, 95]),
   midi.NoteOnEvent(tick=0, channel=0, data=[40, 95]),
   midi.NoteOffEvent(tick=240, channel=0, data=[40, 95]),
   midi.NoteOnEvent(tick=0, channel=0, data=[46, 95]),
   midi.NoteOffEvent(tick=240, channel=0, data=[46, 95]),
   midi.NoteOnEvent(tick=0, channel=0, data=[39, 95]),
   midi.NoteOffEvent(tick=240, channel=0, data=[39, 95]),
   midi.NoteOnEvent(tick=0, channel=0, data=[39, 95]),
   midi.NoteOffEvent(tick=240, channel=0, data=[39, 95]),
   midi.NoteOnEvent(tick=0, channel=0, data=[39, 95]),
   midi.NoteOffEvent(tick=240, channel=0, data=[39, 95]),
   midi.NoteOnEvent(tick=0, channel=0, data=[39, 95]),
   midi.NoteOffEvent(tick=240, channel=0, data=[39, 95]),
   midi.NoteOnEvent(tick=0, channel=0, data=[39, 95]),
   midi.NoteOffEvent(tick=240, channel=0, data=[39, 95]),
   midi.NoteOnEvent(tick=0, channel=0, data=[39, 95]),
   midi.NoteOffEvent(tick=240, channel=0, data=[39, 95]),
   midi.NoteOnEvent(tick=0, channel=0, data=[39, 95]),
   midi.NoteOffEvent(tick=240, channel=0, data=[39, 95]),
   midi.NoteOnEvent(tick=0, channel=0, data=[39, 95]),
   midi.NoteOffEvent(tick=240, channel=0, data=[39, 95]),
   midi.NoteOnEvent(tick=0, channel=0, data=[39, 95]),
   midi.NoteOffEvent(tick=240, channel=0, data=[39, 95]),
   midi.NoteOnEvent(tick=0, channel=0, data=[39, 95]),
   midi.NoteOffEvent(tick=240, channel=0, data=[39, 95]),
   midi.NoteOnEvent(tick=0, channel=0, data=[39, 95]),
   midi.NoteOffEvent(tick=240, channel=0, data=[39, 95]),
   midi.NoteOnEvent(tick=0, channel=0, data=[39, 95]),
   midi.NoteOffEvent(tick=240, channel=0, data=[39, 95]),
   midi.NoteOnEvent(tick=0, channel=0, data=[39, 95]),
   midi.NoteOffEvent(tick=240, channel=0, data=[39, 95]),
   midi.NoteOnEvent(tick=0, channel=0, data=[39, 95]),
   midi.NoteOffEvent(tick=240, channel=0, data=[39, 95]),
   midi.NoteOnEvent(tick=0, channel=0, data=[39, 95]),
   midi.NoteOffEvent(tick=240, channel=0, data=[39, 95]),
   midi.NoteOnEvent(tick=0, channel=0, data=[39, 95]),
   midi.NoteOffEvent(tick=240, channel=0, data=[39, 95]),
   midi.NoteOnEvent(tick=0, channel=0, data=[42, 95]),
   midi.NoteOffEvent(tick=240, channel=0, data=[42, 95]),
   midi.NoteOnEvent(tick=0, channel=0, data=[42, 95]),
   midi.NoteOffEvent(tick=240, channel=0, data=[42, 95]),
   midi.NoteOnEvent(tick=0, channel=0, data=[42, 95]),
   midi.NoteOffEvent(tick=240, channel=0, data=[42, 95]),
   midi.NoteOnEvent(tick=0, channel=0, data=[42, 95]),
   midi.NoteOffEvent(tick=240, channel=0, data=[42, 95]),
   midi.NoteOnEvent(tick=0, channel=0, data=[42, 95]),
   midi.NoteOffEvent(tick=240, channel=0, data=[42, 95]),
   midi.NoteOnEvent(tick=0, channel=0, data=[42, 95]),
   midi.NoteOffEvent(tick=240, channel=0, data=[42, 95]),
   midi.NoteOnEvent(tick=0, channel=0, data=[42, 95]),
   midi.NoteOffEvent(tick=240, channel=0, data=[42, 95]),
   midi.NoteOnEvent(tick=0, channel=0, data=[42, 95]),
   midi.NoteOffEvent(tick=240, channel=0, data=[42, 95]),
   midi.NoteOnEvent(tick=0, channel=0, data=[40, 95]),
   midi.NoteOffEvent(tick=240, channel=0, data=[40, 95]),
   midi.NoteOnEvent(tick=0, channel=0, data=[40, 95]),
   midi.NoteOffEvent(tick=240, channel=0, data=[40, 95]),
   midi.NoteOnEvent(tick=0, channel=0, data=[40, 95]),
   midi.NoteOffEvent(tick=240, channel=0, data=[40, 95]),
   midi.NoteOnEvent(tick=0, channel=0, data=[40, 95]),
   midi.NoteOffEvent(tick=240, channel=0, data=[40, 95]),
   midi.NoteOnEvent(tick=0, channel=0, data=[40, 95]),
   midi.NoteOffEvent(tick=240, channel=0, data=[40, 95]),
   midi.NoteOnEvent(tick=0, channel=0, data=[40, 95]),
   midi.NoteOffEvent(tick=240, channel=0, data=[40, 95]),
   midi.NoteOnEvent(tick=0, channel=0, data=[40, 95]),
   midi.NoteOffEvent(tick=240, channel=0, data=[40, 95]),
   midi.NoteOnEvent(tick=0, channel=0, data=[46, 95]),
   midi.NoteOffEvent(tick=240, channel=0, data=[46, 95]),
   midi.NoteOnEvent(tick=0, channel=0, data=[39, 95]),
   midi.NoteOffEvent(tick=240, channel=0, data=[39, 95]),
   midi.NoteOnEvent(tick=0, channel=0, data=[39, 95]),
   midi.NoteOffEvent(tick=240, channel=0, data=[39, 95]),
   midi.NoteOnEvent(tick=0, channel=0, data=[39, 95]),
   midi.NoteOffEvent(tick=240, channel=0, data=[39, 95]),
   midi.NoteOnEvent(tick=0, channel=0, data=[39, 95]),
   midi.NoteOffEvent(tick=240, channel=0, data=[39, 95]),
   midi.NoteOnEvent(tick=0, channel=0, data=[39, 95]),
   midi.NoteOffEvent(tick=240, channel=0, data=[39, 95]),
   midi.NoteOnEvent(tick=0, channel=0, data=[39, 95]),
   midi.NoteOffEvent(tick=240, channel=0, data=[39, 95]),
   midi.NoteOnEvent(tick=0, channel=0, data=[39, 95]),
   midi.NoteOffEvent(tick=240, channel=0, data=[39, 95]),
   midi.NoteOnEvent(tick=0, channel=0, data=[39, 95]),
   midi.NoteOffEvent(tick=240, channel=0, data=[39, 95]),
   midi.NoteOnEvent(tick=0, channel=0, data=[39, 95]),
   midi.NoteOffEvent(tick=240, channel=0, data=[39, 95]),
   midi.NoteOnEvent(tick=0, channel=0, data=[39, 95]),
   midi.NoteOffEvent(tick=240, channel=0, data=[39, 95]),
   midi.NoteOnEvent(tick=0, channel=0, data=[39, 95]),
   midi.NoteOffEvent(tick=240, channel=0, data=[39, 95]),
   midi.NoteOnEvent(tick=0, channel=0, data=[39, 95]),
   midi.NoteOffEvent(tick=240, channel=0, data=[39, 95]),
   midi.NoteOnEvent(tick=0, channel=0, data=[39, 95]),
   midi.NoteOffEvent(tick=240, channel=0, data=[39, 95]),
   midi.NoteOnEvent(tick=0, channel=0, data=[39, 95]),
   midi.NoteOffEvent(tick=240, channel=0, data=[39, 95]),
   midi.NoteOnEvent(tick=0, channel=0, data=[39, 95]),
   midi.NoteOffEvent(tick=240, channel=0, data=[39, 95]),
   midi.NoteOnEvent(tick=0, channel=0, data=[39, 95]),
   midi.NoteOffEvent(tick=240, channel=0, data=[39, 95]),
   midi.NoteOnEvent(tick=0, channel=0, data=[42, 95]),
   midi.NoteOffEvent(tick=240, channel=0, data=[42, 95]),
   midi.NoteOnEvent(tick=0, channel=0, data=[42, 95]),
   midi.NoteOffEvent(tick=240, channel=0, data=[42, 95]),
   midi.NoteOnEvent(tick=0, channel=0, data=[42, 95]),
   midi.NoteOffEvent(tick=240, channel=0, data=[42, 95]),
   midi.NoteOnEvent(tick=0, channel=0, data=[42, 95]),
   midi.NoteOffEvent(tick=240, channel=0, data=[42, 95]),
   midi.NoteOnEvent(tick=0, channel=0, data=[42, 95]),
   midi.NoteOffEvent(tick=240, channel=0, data=[42, 95]),
   midi.NoteOnEvent(tick=0, channel=0, data=[42, 95]),
   midi.NoteOffEvent(tick=240, channel=0, data=[42, 95]),
   midi.NoteOnEvent(tick=0, channel=0, data=[42, 95]),
   midi.NoteOffEvent(tick=240, channel=0, data=[42, 95]),
   midi.NoteOnEvent(tick=0, channel=0, data=[42, 95]),
   midi.NoteOffEvent(tick=240, channel=0, data=[42, 95]),
   midi.NoteOnEvent(tick=0, channel=0, data=[40, 95]),
   midi.NoteOffEvent(tick=240, channel=0, data=[40, 95]),
   midi.NoteOnEvent(tick=0, channel=0, data=[40, 95]),
   midi.NoteOffEvent(tick=240, channel=0, data=[40, 95]),
   midi.NoteOnEvent(tick=0, channel=0, data=[40, 95]),
   midi.NoteOffEvent(tick=240, channel=0, data=[40, 95]),
   midi.NoteOnEvent(tick=0, channel=0, data=[40, 95]),
   midi.NoteOffEvent(tick=240, channel=0, data=[40, 95]),
   midi.NoteOnEvent(tick=0, channel=0, data=[40, 95]),
   midi.NoteOffEvent(tick=240, channel=0, data=[40, 95]),
   midi.NoteOnEvent(tick=0, channel=0, data=[40, 95]),
   midi.NoteOffEvent(tick=240, channel=0, data=[40, 95]),
   midi.NoteOnEvent(tick=0, channel=0, data=[40, 95]),
   midi.NoteOffEvent(tick=240, channel=0, data=[40, 95]),
   midi.NoteOnEvent(tick=0, channel=0, data=[46, 95]),
   midi.NoteOffEvent(tick=240, channel=0, data=[46, 95]),
   midi.NoteOnEvent(tick=0, channel=0, data=[39, 95]),
   midi.NoteOffEvent(tick=240, channel=0, data=[39, 95]),
   midi.NoteOnEvent(tick=0, channel=0, data=[39, 95]),
   midi.NoteOffEvent(tick=240, channel=0, data=[39, 95]),
   midi.NoteOnEvent(tick=0, channel=0, data=[39, 95]),
   midi.NoteOffEvent(tick=240, channel=0, data=[39, 95]),
   midi.NoteOnEvent(tick=0, channel=0, data=[39, 95]),
   midi.NoteOffEvent(tick=240, channel=0, data=[39, 95]),
   midi.NoteOnEvent(tick=0, channel=0, data=[39, 95]),
   midi.NoteOffEvent(tick=240, channel=0, data=[39, 95]),
   midi.NoteOnEvent(tick=0, channel=0, data=[39, 95]),
   midi.NoteOffEvent(tick=240, channel=0, data=[39, 95]),
   midi.NoteOnEvent(tick=0, channel=0, data=[39, 95]),
   midi.NoteOffEvent(tick=240, channel=0, data=[39, 95]),
   midi.NoteOnEvent(tick=0, channel=0, data=[39, 95]),
   midi.NoteOffEvent(tick=240, channel=0, data=[39, 95]),
   midi.NoteOnEvent(tick=0, channel=0, data=[39, 95]),
   midi.NoteOffEvent(tick=240, channel=0, data=[39, 95]),
   midi.NoteOnEvent(tick=0, channel=0, data=[39, 95]),
   midi.NoteOffEvent(tick=240, channel=0, data=[39, 95]),
   midi.NoteOnEvent(tick=0, channel=0, data=[39, 95]),
   midi.NoteOffEvent(tick=240, channel=0, data=[39, 95]),
   midi.NoteOnEvent(tick=0, channel=0, data=[39, 95]),
   midi.NoteOffEvent(tick=240, channel=0, data=[39, 95]),
   midi.NoteOnEvent(tick=0, channel=0, data=[39, 95]),
   midi.NoteOffEvent(tick=240, channel=0, data=[39, 95]),
   midi.NoteOnEvent(tick=0, channel=0, data=[39, 95]),
   midi.NoteOffEvent(tick=240, channel=0, data=[39, 95]),
   midi.NoteOnEvent(tick=0, channel=0, data=[39, 95]),
   midi.NoteOffEvent(tick=240, channel=0, data=[39, 95]),
   midi.NoteOnEvent(tick=0, channel=0, data=[39, 95]),
   midi.NoteOffEvent(tick=240, channel=0, data=[39, 95]),
   midi.NoteOnEvent(tick=0, channel=0, data=[42, 95]),
   midi.NoteOffEvent(tick=240, channel=0, data=[42, 95]),
   midi.NoteOnEvent(tick=0, channel=0, data=[42, 95]),
   midi.NoteOffEvent(tick=240, channel=0, data=[42, 95]),
   midi.NoteOnEvent(tick=0, channel=0, data=[42, 95]),
   midi.NoteOffEvent(tick=240, channel=0, data=[42, 95]),
   midi.NoteOnEvent(tick=0, channel=0, data=[42, 95]),
   midi.NoteOffEvent(tick=240, channel=0, data=[42, 95]),
   midi.NoteOnEvent(tick=0, channel=0, data=[42, 95]),
   midi.NoteOffEvent(tick=240, channel=0, data=[42, 95]),
   midi.NoteOnEvent(tick=0, channel=0, data=[42, 95]),
   midi.NoteOffEvent(tick=240, channel=0, data=[42, 95]),
   midi.NoteOnEvent(tick=0, channel=0, data=[42, 95]),
   midi.NoteOffEvent(tick=240, channel=0, data=[42, 95]),
   midi.NoteOnEvent(tick=0, channel=0, data=[42, 95]),
   midi.NoteOffEvent(tick=240, channel=0, data=[42, 95]),
   midi.NoteOnEvent(tick=0, channel=0, data=[40, 95]),
   midi.NoteOffEvent(tick=240, channel=0, data=[40, 95]),
   midi.NoteOnEvent(tick=0, channel=0, data=[40, 95]),
   midi.NoteOffEvent(tick=240, channel=0, data=[40, 95]),
   midi.NoteOnEvent(tick=0, channel=0, data=[40, 95]),
   midi.NoteOffEvent(tick=240, channel=0, data=[40, 95]),
   midi.NoteOnEvent(tick=0, channel=0, data=[40, 95]),
   midi.NoteOffEvent(tick=240, channel=0, data=[40, 95]),
   midi.NoteOnEvent(tick=0, channel=0, data=[40, 95]),
   midi.NoteOffEvent(tick=240, channel=0, data=[40, 95]),
   midi.NoteOnEvent(tick=0, channel=0, data=[40, 95]),
   midi.NoteOffEvent(tick=240, channel=0, data=[40, 95]),
   midi.NoteOnEvent(tick=0, channel=0, data=[40, 95]),
   midi.NoteOffEvent(tick=240, channel=0, data=[40, 95]),
   midi.NoteOnEvent(tick=0, channel=0, data=[46, 95]),
   midi.NoteOffEvent(tick=240, channel=0, data=[46, 95]),
   midi.NoteOnEvent(tick=0, channel=0, data=[52, 95]),
   midi.NoteOnEvent(tick=0, channel=0, data=[45, 95]),
   midi.NoteOffEvent(tick=4800, channel=0, data=[52, 95]),
   midi.NoteOffEvent(tick=0, channel=0, data=[45, 95]),
   midi.NoteOnEvent(tick=0, channel=0, data=[51, 95]),
   midi.NoteOnEvent(tick=0, channel=0, data=[44, 95]),
   midi.NoteOffEvent(tick=960, channel=0, data=[51, 95]),
   midi.NoteOffEvent(tick=0, channel=0, data=[44, 95]),
   midi.NoteOnEvent(tick=0, channel=0, data=[52, 95]),
   midi.NoteOnEvent(tick=0, channel=0, data=[45, 95]),
   midi.NoteOffEvent(tick=960, channel=0, data=[52, 95]),
   midi.NoteOffEvent(tick=0, channel=0, data=[45, 95]),
   midi.NoteOnEvent(tick=0, channel=0, data=[51, 95]),
   midi.NoteOnEvent(tick=0, channel=0, data=[44, 95]),
   midi.NoteOffEvent(tick=960, channel=0, data=[51, 95]),
   midi.NoteOffEvent(tick=0, channel=0, data=[44, 95]),
   midi.NoteOnEvent(tick=0, channel=0, data=[48, 95]),
   midi.NoteOnEvent(tick=0, channel=0, data=[41, 95]),
   midi.NoteOffEvent(tick=6720, channel=0, data=[48, 95]),
   midi.NoteOffEvent(tick=0, channel=0, data=[41, 95]),
   midi.NoteOnEvent(tick=0, channel=0, data=[51, 95]),
   midi.NoteOnEvent(tick=0, channel=0, data=[44, 95]),
   midi.NoteOffEvent(tick=960, channel=0, data=[51, 95]),
   midi.NoteOffEvent(tick=0, channel=0, data=[44, 95]),
   midi.NoteOnEvent(tick=0, channel=0, data=[52, 95]),
   midi.NoteOnEvent(tick=0, channel=0, data=[45, 95]),
   midi.NoteOffEvent(tick=4800, channel=0, data=[52, 95]),
   midi.NoteOffEvent(tick=0, channel=0, data=[45, 95]),
   midi.NoteOnEvent(tick=0, channel=0, data=[51, 95]),
   midi.NoteOnEvent(tick=0, channel=0, data=[44, 95]),
   midi.NoteOffEvent(tick=480, channel=0, data=[51, 95]),
   midi.NoteOffEvent(tick=0, channel=0, data=[44, 95]),
   midi.NoteOnEvent(tick=0, channel=0, data=[52, 95]),
   midi.NoteOnEvent(tick=0, channel=0, data=[45, 95]),
   midi.NoteOffEvent(tick=480, channel=0, data=[52, 95]),
   midi.NoteOffEvent(tick=0, channel=0, data=[45, 95]),
   midi.NoteOnEvent(tick=0, channel=0, data=[51, 95]),
   midi.NoteOnEvent(tick=0, channel=0, data=[44, 95]),
   midi.NoteOffEvent(tick=480, channel=0, data=[51, 95]),
   midi.NoteOffEvent(tick=0, channel=0, data=[44, 95]),
   midi.NoteOnEvent(tick=0, channel=0, data=[51, 95]),
   midi.NoteOnEvent(tick=0, channel=0, data=[44, 95]),
   midi.NoteOffEvent(tick=480, channel=0, data=[51, 95]),
   midi.NoteOffEvent(tick=0, channel=0, data=[44, 95]),
   midi.NoteOnEvent(tick=0, channel=0, data=[52, 95]),
   midi.NoteOnEvent(tick=0, channel=0, data=[45, 95]),
   midi.NoteOffEvent(tick=480, channel=0, data=[52, 95]),
   midi.NoteOffEvent(tick=0, channel=0, data=[45, 95]),
   midi.NoteOnEvent(tick=0, channel=0, data=[51, 95]),
   midi.NoteOnEvent(tick=0, channel=0, data=[44, 95]),
   midi.NoteOffEvent(tick=480, channel=0, data=[51, 95]),
   midi.NoteOffEvent(tick=0, channel=0, data=[44, 95]),
   midi.NoteOnEvent(tick=0, channel=0, data=[48, 95]),
   midi.NoteOnEvent(tick=0, channel=0, data=[41, 95]),
   midi.NoteOffEvent(tick=6720, channel=0, data=[48, 95]),
   midi.NoteOffEvent(tick=0, channel=0, data=[41, 95]),
   midi.NoteOnEvent(tick=0, channel=1, data=[51, 95]),
   midi.NoteOnEvent(tick=0, channel=1, data=[44, 95]),
   midi.NoteOffEvent(tick=960, channel=1, data=[51, 95]),
   midi.NoteOffEvent(tick=0, channel=1, data=[44, 95]),
   midi.NoteOnEvent(tick=0, channel=0, data=[52, 95]),
   midi.NoteOnEvent(tick=0, channel=0, data=[45, 95]),
   midi.NoteOffEvent(tick=4800, channel=0, data=[52, 95]),
   midi.NoteOffEvent(tick=0, channel=0, data=[45, 95]),
   midi.NoteOnEvent(tick=0, channel=0, data=[51, 95]),
   midi.NoteOnEvent(tick=0, channel=0, data=[44, 95]),
   midi.NoteOffEvent(tick=960, channel=0, data=[51, 95]),
   midi.NoteOffEvent(tick=0, channel=0, data=[44, 95]),
   midi.NoteOnEvent(tick=0, channel=0, data=[52, 95]),
   midi.NoteOnEvent(tick=0, channel=0, data=[45, 95]),
   midi.NoteOffEvent(tick=960, channel=0, data=[52, 95]),
   midi.NoteOffEvent(tick=0, channel=0, data=[45, 95]),
   midi.NoteOnEvent(tick=0, channel=0, data=[51, 95]),
   midi.NoteOnEvent(tick=0, channel=0, data=[44, 95]),
   midi.NoteOffEvent(tick=960, channel=0, data=[51, 95]),
   midi.NoteOffEvent(tick=0, channel=0, data=[44, 95]),
   midi.NoteOnEvent(tick=0, channel=0, data=[48, 95]),
   midi.NoteOnEvent(tick=0, channel=0, data=[41, 95]),
   midi.NoteOffEvent(tick=6720, channel=0, data=[48, 95]),
   midi.NoteOffEvent(tick=0, channel=0, data=[41, 95]),
   midi.NoteOnEvent(tick=0, channel=0, data=[51, 95]),
   midi.NoteOnEvent(tick=0, channel=0, data=[44, 95]),
   midi.NoteOffEvent(tick=960, channel=0, data=[51, 95]),
   midi.NoteOffEvent(tick=0, channel=0, data=[44, 95]),
   midi.NoteOnEvent(tick=0, channel=0, data=[52, 95]),
   midi.NoteOnEvent(tick=0, channel=0, data=[45, 95]),
   midi.NoteOffEvent(tick=4800, channel=0, data=[52, 95]),
   midi.NoteOffEvent(tick=0, channel=0, data=[45, 95]),
   midi.NoteOnEvent(tick=0, channel=0, data=[51, 95]),
   midi.NoteOnEvent(tick=0, channel=0, data=[44, 95]),
   midi.NoteOffEvent(tick=480, channel=0, data=[51, 95]),
   midi.NoteOffEvent(tick=0, channel=0, data=[44, 95]),
   midi.NoteOnEvent(tick=0, channel=0, data=[52, 95]),
   midi.NoteOnEvent(tick=0, channel=0, data=[45, 95]),
   midi.NoteOffEvent(tick=480, channel=0, data=[52, 95]),
   midi.NoteOffEvent(tick=0, channel=0, data=[45, 95]),
   midi.NoteOnEvent(tick=0, channel=0, data=[51, 95]),
   midi.NoteOnEvent(tick=0, channel=0, data=[44, 95]),
   midi.NoteOffEvent(tick=480, channel=0, data=[51, 95]),
   midi.NoteOffEvent(tick=0, channel=0, data=[44, 95]),
   midi.NoteOnEvent(tick=0, channel=0, data=[51, 95]),
   midi.NoteOnEvent(tick=0, channel=0, data=[44, 95]),
   midi.NoteOffEvent(tick=480, channel=0, data=[51, 95]),
   midi.NoteOffEvent(tick=0, channel=0, data=[44, 95]),
   midi.NoteOnEvent(tick=0, channel=0, data=[52, 95]),
   midi.NoteOnEvent(tick=0, channel=0, data=[45, 95]),
   midi.NoteOffEvent(tick=480, channel=0, data=[52, 95]),
   midi.NoteOffEvent(tick=0, channel=0, data=[45, 95]),
   midi.NoteOnEvent(tick=0, channel=0, data=[51, 95]),
   midi.NoteOnEvent(tick=0, channel=0, data=[44, 95]),
   midi.NoteOffEvent(tick=480, channel=0, data=[51, 95]),
   midi.NoteOffEvent(tick=0, channel=0, data=[44, 95]),
   midi.NoteOnEvent(tick=0, channel=0, data=[48, 95]),
   midi.NoteOnEvent(tick=0, channel=0, data=[41, 95]),
   midi.NoteOffEvent(tick=6720, channel=0, data=[48, 95]),
   midi.NoteOffEvent(tick=0, channel=0, data=[41, 95]),
   midi.NoteOnEvent(tick=0, channel=1, data=[51, 95]),
   midi.NoteOnEvent(tick=0, channel=1, data=[44, 95]),
   midi.NoteOffEvent(tick=960, channel=1, data=[51, 95]),
   midi.NoteOffEvent(tick=0, channel=1, data=[44, 95]),
   midi.NoteOnEvent(tick=3840, channel=0, data=[39, 95]),
   midi.NoteOffEvent(tick=240, channel=0, data=[39, 95]),
   midi.NoteOnEvent(tick=0, channel=0, data=[39, 95]),
   midi.NoteOffEvent(tick=240, channel=0, data=[39, 95]),
   midi.NoteOnEvent(tick=0, channel=0, data=[39, 95]),
   midi.NoteOffEvent(tick=240, channel=0, data=[39, 95]),
   midi.NoteOnEvent(tick=0, channel=0, data=[39, 95]),
   midi.NoteOffEvent(tick=240, channel=0, data=[39, 95]),
   midi.NoteOnEvent(tick=0, channel=0, data=[39, 95]),
   midi.NoteOffEvent(tick=240, channel=0, data=[39, 95]),
   midi.NoteOnEvent(tick=0, channel=0, data=[39, 95]),
   midi.NoteOffEvent(tick=240, channel=0, data=[39, 95]),
   midi.NoteOnEvent(tick=0, channel=0, data=[39, 95]),
   midi.NoteOffEvent(tick=240, channel=0, data=[39, 95]),
   midi.NoteOnEvent(tick=0, channel=0, data=[39, 95]),
   midi.NoteOffEvent(tick=240, channel=0, data=[39, 95]),
   midi.NoteOnEvent(tick=0, channel=0, data=[39, 95]),
   midi.NoteOffEvent(tick=240, channel=0, data=[39, 95]),
   midi.NoteOnEvent(tick=0, channel=0, data=[39, 95]),
   midi.NoteOffEvent(tick=240, channel=0, data=[39, 95]),
   midi.NoteOnEvent(tick=0, channel=0, data=[39, 95]),
   midi.NoteOffEvent(tick=240, channel=0, data=[39, 95]),
   midi.NoteOnEvent(tick=0, channel=0, data=[39, 95]),
   midi.NoteOffEvent(tick=240, channel=0, data=[39, 95]),
   midi.NoteOnEvent(tick=0, channel=0, data=[39, 95]),
   midi.NoteOffEvent(tick=240, channel=0, data=[39, 95]),
   midi.NoteOnEvent(tick=0, channel=0, data=[39, 95]),
   midi.NoteOffEvent(tick=240, channel=0, data=[39, 95]),
   midi.NoteOnEvent(tick=0, channel=0, data=[39, 95]),
   midi.NoteOffEvent(tick=240, channel=0, data=[39, 95]),
   midi.NoteOnEvent(tick=0, channel=0, data=[39, 95]),
   midi.NoteOffEvent(tick=240, channel=0, data=[39, 95]),
   midi.NoteOnEvent(tick=0, channel=0, data=[42, 95]),
   midi.NoteOffEvent(tick=240, channel=0, data=[42, 95]),
   midi.NoteOnEvent(tick=0, channel=0, data=[42, 95]),
   midi.NoteOffEvent(tick=240, channel=0, data=[42, 95]),
   midi.NoteOnEvent(tick=0, channel=0, data=[42, 95]),
   midi.NoteOffEvent(tick=240, channel=0, data=[42, 95]),
   midi.NoteOnEvent(tick=0, channel=0, data=[42, 95]),
   midi.NoteOffEvent(tick=240, channel=0, data=[42, 95]),
   midi.NoteOnEvent(tick=0, channel=0, data=[42, 95]),
   midi.NoteOffEvent(tick=240, channel=0, data=[42, 95]),
   midi.NoteOnEvent(tick=0, channel=0, data=[42, 95]),
   midi.NoteOffEvent(tick=240, channel=0, data=[42, 95]),
   midi.NoteOnEvent(tick=0, channel=0, data=[42, 95]),
   midi.NoteOffEvent(tick=240, channel=0, data=[42, 95]),
   midi.NoteOnEvent(tick=0, channel=0, data=[42, 95]),
   midi.NoteOffEvent(tick=240, channel=0, data=[42, 95]),
   midi.NoteOnEvent(tick=0, channel=0, data=[40, 95]),
   midi.NoteOffEvent(tick=240, channel=0, data=[40, 95]),
   midi.NoteOnEvent(tick=0, channel=0, data=[40, 95]),
   midi.NoteOffEvent(tick=240, channel=0, data=[40, 95]),
   midi.NoteOnEvent(tick=0, channel=0, data=[40, 95]),
   midi.NoteOffEvent(tick=240, channel=0, data=[40, 95]),
   midi.NoteOnEvent(tick=0, channel=0, data=[40, 95]),
   midi.NoteOffEvent(tick=240, channel=0, data=[40, 95]),
   midi.NoteOnEvent(tick=0, channel=0, data=[40, 95]),
   midi.NoteOffEvent(tick=240, channel=0, data=[40, 95]),
   midi.NoteOnEvent(tick=0, channel=0, data=[40, 95]),
   midi.NoteOffEvent(tick=240, channel=0, data=[40, 95]),
   midi.NoteOnEvent(tick=0, channel=0, data=[40, 95]),
   midi.NoteOffEvent(tick=240, channel=0, data=[40, 95]),
   midi.NoteOnEvent(tick=0, channel=0, data=[46, 95]),
   midi.NoteOffEvent(tick=240, channel=0, data=[46, 95]),
   midi.NoteOnEvent(tick=0, channel=0, data=[39, 95]),
   midi.NoteOffEvent(tick=240, channel=0, data=[39, 95]),
   midi.NoteOnEvent(tick=0, channel=0, data=[39, 95]),
   midi.NoteOffEvent(tick=240, channel=0, data=[39, 95]),
   midi.NoteOnEvent(tick=0, channel=0, data=[39, 95]),
   midi.NoteOffEvent(tick=240, channel=0, data=[39, 95]),
   midi.NoteOnEvent(tick=0, channel=0, data=[39, 95]),
   midi.NoteOffEvent(tick=240, channel=0, data=[39, 95]),
   midi.NoteOnEvent(tick=0, channel=0, data=[39, 95]),
   midi.NoteOffEvent(tick=240, channel=0, data=[39, 95]),
   midi.NoteOnEvent(tick=0, channel=0, data=[39, 95]),
   midi.NoteOffEvent(tick=240, channel=0, data=[39, 95]),
   midi.NoteOnEvent(tick=0, channel=0, data=[39, 95]),
   midi.NoteOffEvent(tick=240, channel=0, data=[39, 95]),
   midi.NoteOnEvent(tick=0, channel=0, data=[39, 95]),
   midi.NoteOffEvent(tick=240, channel=0, data=[39, 95]),
   midi.NoteOnEvent(tick=0, channel=0, data=[39, 95]),
   midi.NoteOffEvent(tick=240, channel=0, data=[39, 95]),
   midi.NoteOnEvent(tick=0, channel=0, data=[39, 95]),
   midi.NoteOffEvent(tick=240, channel=0, data=[39, 95]),
   midi.NoteOnEvent(tick=0, channel=0, data=[39, 95]),
   midi.NoteOffEvent(tick=240, channel=0, data=[39, 95]),
   midi.NoteOnEvent(tick=0, channel=0, data=[39, 95]),
   midi.NoteOffEvent(tick=240, channel=0, data=[39, 95]),
   midi.NoteOnEvent(tick=0, channel=0, data=[39, 95]),
   midi.NoteOffEvent(tick=240, channel=0, data=[39, 95]),
   midi.NoteOnEvent(tick=0, channel=0, data=[39, 95]),
   midi.NoteOffEvent(tick=240, channel=0, data=[39, 95]),
   midi.NoteOnEvent(tick=0, channel=0, data=[39, 95]),
   midi.NoteOffEvent(tick=240, channel=0, data=[39, 95]),
   midi.NoteOnEvent(tick=0, channel=0, data=[39, 95]),
   midi.NoteOffEvent(tick=240, channel=0, data=[39, 95]),
   midi.NoteOnEvent(tick=0, channel=0, data=[42, 95]),
   midi.NoteOffEvent(tick=240, channel=0, data=[42, 95]),
   midi.NoteOnEvent(tick=0, channel=0, data=[42, 95]),
   midi.NoteOffEvent(tick=240, channel=0, data=[42, 95]),
   midi.NoteOnEvent(tick=0, channel=0, data=[42, 95]),
   midi.NoteOffEvent(tick=240, channel=0, data=[42, 95]),
   midi.NoteOnEvent(tick=0, channel=0, data=[42, 95]),
   midi.NoteOffEvent(tick=240, channel=0, data=[42, 95]),
   midi.NoteOnEvent(tick=0, channel=0, data=[42, 95]),
   midi.NoteOffEvent(tick=240, channel=0, data=[42, 95]),
   midi.NoteOnEvent(tick=0, channel=0, data=[42, 95]),
   midi.NoteOffEvent(tick=240, channel=0, data=[42, 95]),
   midi.NoteOnEvent(tick=0, channel=0, data=[42, 95]),
   midi.NoteOffEvent(tick=240, channel=0, data=[42, 95]),
   midi.NoteOnEvent(tick=0, channel=0, data=[42, 95]),
   midi.NoteOffEvent(tick=240, channel=0, data=[42, 95]),
   midi.NoteOnEvent(tick=0, channel=0, data=[40, 95]),
   midi.NoteOffEvent(tick=240, channel=0, data=[40, 95]),
   midi.NoteOnEvent(tick=0, channel=0, data=[40, 95]),
   midi.NoteOffEvent(tick=240, channel=0, data=[40, 95]),
   midi.NoteOnEvent(tick=0, channel=0, data=[40, 95]),
   midi.NoteOffEvent(tick=240, channel=0, data=[40, 95]),
   midi.NoteOnEvent(tick=0, channel=0, data=[40, 95]),
   midi.NoteOffEvent(tick=240, channel=0, data=[40, 95]),
   midi.NoteOnEvent(tick=0, channel=0, data=[40, 95]),
   midi.NoteOffEvent(tick=240, channel=0, data=[40, 95]),
   midi.NoteOnEvent(tick=0, channel=0, data=[40, 95]),
   midi.NoteOffEvent(tick=240, channel=0, data=[40, 95]),
   midi.NoteOnEvent(tick=0, channel=0, data=[40, 95]),
   midi.NoteOffEvent(tick=240, channel=0, data=[40, 95]),
   midi.NoteOnEvent(tick=0, channel=0, data=[46, 95]),
   midi.NoteOffEvent(tick=240, channel=0, data=[46, 95]),
   midi.NoteOnEvent(tick=0, channel=0, data=[39, 95]),
   midi.NoteOffEvent(tick=240, channel=0, data=[39, 95]),
   midi.NoteOnEvent(tick=0, channel=0, data=[39, 95]),
   midi.NoteOffEvent(tick=240, channel=0, data=[39, 95]),
   midi.NoteOnEvent(tick=0, channel=0, data=[39, 95]),
   midi.NoteOffEvent(tick=240, channel=0, data=[39, 95]),
   midi.NoteOnEvent(tick=0, channel=0, data=[39, 95]),
   midi.NoteOffEvent(tick=240, channel=0, data=[39, 95]),
   midi.NoteOnEvent(tick=0, channel=0, data=[39, 95]),
   midi.NoteOffEvent(tick=240, channel=0, data=[39, 95]),
   midi.NoteOnEvent(tick=0, channel=0, data=[39, 95]),
   midi.NoteOffEvent(tick=240, channel=0, data=[39, 95]),
   midi.NoteOnEvent(tick=0, channel=0, data=[39, 95]),
   midi.NoteOffEvent(tick=240, channel=0, data=[39, 95]),
   midi.NoteOnEvent(tick=0, channel=0, data=[39, 95]),
   midi.NoteOffEvent(tick=240, channel=0, data=[39, 95]),
   midi.NoteOnEvent(tick=0, channel=0, data=[39, 95]),
   midi.NoteOffEvent(tick=240, channel=0, data=[39, 95]),
   midi.NoteOnEvent(tick=0, channel=0, data=[39, 95]),
   midi.NoteOffEvent(tick=240, channel=0, data=[39, 95]),
   midi.NoteOnEvent(tick=0, channel=0, data=[39, 95]),
   midi.NoteOffEvent(tick=240, channel=0, data=[39, 95]),
   midi.NoteOnEvent(tick=0, channel=0, data=[39, 95]),
   midi.NoteOffEvent(tick=240, channel=0, data=[39, 95]),
   midi.NoteOnEvent(tick=0, channel=0, data=[39, 95]),
   midi.NoteOffEvent(tick=240, channel=0, data=[39, 95]),
   midi.NoteOnEvent(tick=0, channel=0, data=[39, 95]),
   midi.NoteOffEvent(tick=240, channel=0, data=[39, 95]),
   midi.NoteOnEvent(tick=0, channel=0, data=[39, 95]),
   midi.NoteOffEvent(tick=240, channel=0, data=[39, 95]),
   midi.NoteOnEvent(tick=0, channel=0, data=[39, 95]),
   midi.NoteOffEvent(tick=240, channel=0, data=[39, 95]),
   midi.NoteOnEvent(tick=0, channel=0, data=[42, 95]),
   midi.NoteOffEvent(tick=240, channel=0, data=[42, 95]),
   midi.NoteOnEvent(tick=0, channel=0, data=[42, 95]),
   midi.NoteOffEvent(tick=240, channel=0, data=[42, 95]),
   midi.NoteOnEvent(tick=0, channel=0, data=[42, 95]),
   midi.NoteOffEvent(tick=240, channel=0, data=[42, 95]),
   midi.NoteOnEvent(tick=0, channel=0, data=[42, 95]),
   midi.NoteOffEvent(tick=240, channel=0, data=[42, 95]),
   midi.NoteOnEvent(tick=0, channel=0, data=[42, 95]),
   midi.NoteOffEvent(tick=240, channel=0, data=[42, 95]),
   midi.NoteOnEvent(tick=0, channel=0, data=[42, 95]),
   midi.NoteOffEvent(tick=240, channel=0, data=[42, 95]),
   midi.NoteOnEvent(tick=0, channel=0, data=[42, 95]),
   midi.NoteOffEvent(tick=240, channel=0, data=[42, 95]),
   midi.NoteOnEvent(tick=0, channel=0, data=[42, 95]),
   midi.NoteOffEvent(tick=240, channel=0, data=[42, 95]),
   midi.NoteOnEvent(tick=0, channel=0, data=[40, 95]),
   midi.NoteOffEvent(tick=240, channel=0, data=[40, 95]),
   midi.NoteOnEvent(tick=0, channel=0, data=[40, 95]),
   midi.NoteOffEvent(tick=240, channel=0, data=[40, 95]),
   midi.NoteOnEvent(tick=0, channel=0, data=[40, 95]),
   midi.NoteOffEvent(tick=240, channel=0, data=[40, 95]),
   midi.NoteOnEvent(tick=0, channel=0, data=[40, 95]),
   midi.NoteOffEvent(tick=240, channel=0, data=[40, 95]),
   midi.NoteOnEvent(tick=0, channel=0, data=[40, 95]),
   midi.NoteOffEvent(tick=240, channel=0, data=[40, 95]),
   midi.NoteOnEvent(tick=0, channel=0, data=[40, 95]),
   midi.NoteOffEvent(tick=240, channel=0, data=[40, 95]),
   midi.NoteOnEvent(tick=0, channel=0, data=[40, 95]),
   midi.NoteOffEvent(tick=240, channel=0, data=[40, 95]),
   midi.NoteOnEvent(tick=0, channel=0, data=[46, 95]),
   midi.NoteOffEvent(tick=240, channel=0, data=[46, 95]),
   midi.NoteOnEvent(tick=0, channel=0, data=[39, 95]),
   midi.NoteOffEvent(tick=240, channel=0, data=[39, 95]),
   midi.NoteOnEvent(tick=0, channel=0, data=[39, 95]),
   midi.NoteOffEvent(tick=240, channel=0, data=[39, 95]),
   midi.NoteOnEvent(tick=0, channel=0, data=[39, 95]),
   midi.NoteOffEvent(tick=240, channel=0, data=[39, 95]),
   midi.NoteOnEvent(tick=0, channel=0, data=[39, 95]),
   midi.NoteOffEvent(tick=240, channel=0, data=[39, 95]),
   midi.NoteOnEvent(tick=0, channel=0, data=[39, 95]),
   midi.NoteOffEvent(tick=240, channel=0, data=[39, 95]),
   midi.NoteOnEvent(tick=0, channel=0, data=[39, 95]),
   midi.NoteOffEvent(tick=240, channel=0, data=[39, 95]),
   midi.NoteOnEvent(tick=0, channel=0, data=[39, 95]),
   midi.NoteOffEvent(tick=240, channel=0, data=[39, 95]),
   midi.NoteOnEvent(tick=0, channel=0, data=[39, 95]),
   midi.NoteOffEvent(tick=240, channel=0, data=[39, 95]),
   midi.NoteOnEvent(tick=0, channel=0, data=[39, 95]),
   midi.NoteOffEvent(tick=240, channel=0, data=[39, 95]),
   midi.NoteOnEvent(tick=0, channel=0, data=[39, 95]),
   midi.NoteOffEvent(tick=240, channel=0, data=[39, 95]),
   midi.NoteOnEvent(tick=0, channel=0, data=[39, 95]),
   midi.NoteOffEvent(tick=240, channel=0, data=[39, 95]),
   midi.NoteOnEvent(tick=0, channel=0, data=[39, 95]),
   midi.NoteOffEvent(tick=240, channel=0, data=[39, 95]),
   midi.NoteOnEvent(tick=0, channel=0, data=[39, 95]),
   midi.NoteOffEvent(tick=240, channel=0, data=[39, 95]),
   midi.NoteOnEvent(tick=0, channel=0, data=[39, 95]),
   midi.NoteOffEvent(tick=240, channel=0, data=[39, 95]),
   midi.NoteOnEvent(tick=0, channel=0, data=[39, 95]),
   midi.NoteOffEvent(tick=240, channel=0, data=[39, 95]),
   midi.NoteOnEvent(tick=0, channel=0, data=[39, 95]),
   midi.NoteOffEvent(tick=240, channel=0, data=[39, 95]),
   midi.NoteOnEvent(tick=0, channel=0, data=[49, 95]),
   midi.NoteOnEvent(tick=0, channel=0, data=[42, 95]),
   midi.NoteOffEvent(tick=1920, channel=0, data=[49, 95]),
   midi.NoteOffEvent(tick=0, channel=0, data=[42, 95]),
   midi.NoteOnEvent(tick=0, channel=0, data=[47, 95]),
   midi.NoteOnEvent(tick=0, channel=0, data=[40, 95]),
   midi.NoteOffEvent(tick=1920, channel=0, data=[47, 95]),
   midi.NoteOffEvent(tick=0, channel=0, data=[40, 95]),
   midi.NoteOnEvent(tick=0, channel=0, data=[39, 95]),
   midi.NoteOffEvent(tick=240, channel=0, data=[39, 95]),
   midi.NoteOnEvent(tick=0, channel=0, data=[39, 95]),
   midi.NoteOffEvent(tick=240, channel=0, data=[39, 95]),
   midi.NoteOnEvent(tick=0, channel=0, data=[39, 95]),
   midi.NoteOffEvent(tick=240, channel=0, data=[39, 95]),
   midi.NoteOnEvent(tick=0, channel=0, data=[39, 95]),
   midi.NoteOffEvent(tick=240, channel=0, data=[39, 95]),
   midi.NoteOnEvent(tick=0, channel=0, data=[39, 95]),
   midi.NoteOffEvent(tick=240, channel=0, data=[39, 95]),
   midi.NoteOnEvent(tick=0, channel=0, data=[39, 95]),
   midi.NoteOffEvent(tick=240, channel=0, data=[39, 95]),
   midi.NoteOnEvent(tick=0, channel=0, data=[39, 95]),
   midi.NoteOffEvent(tick=240, channel=0, data=[39, 95]),
   midi.NoteOnEvent(tick=0, channel=0, data=[39, 95]),
   midi.NoteOffEvent(tick=240, channel=0, data=[39, 95]),
   midi.NoteOnEvent(tick=0, channel=0, data=[39, 95]),
   midi.NoteOffEvent(tick=240, channel=0, data=[39, 95]),
   midi.NoteOnEvent(tick=0, channel=0, data=[39, 95]),
   midi.NoteOffEvent(tick=240, channel=0, data=[39, 95]),
   midi.NoteOnEvent(tick=0, channel=0, data=[39, 95]),
   midi.NoteOffEvent(tick=240, channel=0, data=[39, 95]),
   midi.NoteOnEvent(tick=0, channel=0, data=[39, 95]),
   midi.NoteOffEvent(tick=240, channel=0, data=[39, 95]),
   midi.NoteOnEvent(tick=0, channel=0, data=[39, 95]),
   midi.NoteOffEvent(tick=240, channel=0, data=[39, 95]),
   midi.NoteOnEvent(tick=0, channel=0, data=[39, 95]),
   midi.NoteOffEvent(tick=240, channel=0, data=[39, 95]),
   midi.NoteOnEvent(tick=0, channel=0, data=[39, 95]),
   midi.NoteOffEvent(tick=240, channel=0, data=[39, 95]),
   midi.NoteOnEvent(tick=0, channel=0, data=[39, 95]),
   midi.NoteOffEvent(tick=240, channel=0, data=[39, 95]),
   midi.NoteOnEvent(tick=0, channel=0, data=[42, 95]),
   midi.NoteOffEvent(tick=240, channel=0, data=[42, 95]),
   midi.NoteOnEvent(tick=0, channel=0, data=[42, 95]),
   midi.NoteOffEvent(tick=240, channel=0, data=[42, 95]),
   midi.NoteOnEvent(tick=0, channel=0, data=[42, 95]),
   midi.NoteOffEvent(tick=240, channel=0, data=[42, 95]),
   midi.NoteOnEvent(tick=0, channel=0, data=[42, 95]),
   midi.NoteOffEvent(tick=240, channel=0, data=[42, 95]),
   midi.NoteOnEvent(tick=0, channel=0, data=[42, 95]),
   midi.NoteOffEvent(tick=240, channel=0, data=[42, 95]),
   midi.NoteOnEvent(tick=0, channel=0, data=[42, 95]),
   midi.NoteOffEvent(tick=240, channel=0, data=[42, 95]),
   midi.NoteOnEvent(tick=0, channel=0, data=[42, 95]),
   midi.NoteOffEvent(tick=240, channel=0, data=[42, 95]),
   midi.NoteOnEvent(tick=0, channel=0, data=[42, 95]),
   midi.NoteOffEvent(tick=240, channel=0, data=[42, 95]),
   midi.NoteOnEvent(tick=0, channel=0, data=[40, 95]),
   midi.NoteOffEvent(tick=240, channel=0, data=[40, 95]),
   midi.NoteOnEvent(tick=0, channel=0, data=[40, 95]),
   midi.NoteOffEvent(tick=240, channel=0, data=[40, 95]),
   midi.NoteOnEvent(tick=0, channel=0, data=[40, 95]),
   midi.NoteOffEvent(tick=240, channel=0, data=[40, 95]),
   midi.NoteOnEvent(tick=0, channel=0, data=[40, 95]),
   midi.NoteOffEvent(tick=240, channel=0, data=[40, 95]),
   midi.NoteOnEvent(tick=0, channel=0, data=[40, 95]),
   midi.NoteOffEvent(tick=240, channel=0, data=[40, 95]),
   midi.NoteOnEvent(tick=0, channel=0, data=[40, 95]),
   midi.NoteOffEvent(tick=240, channel=0, data=[40, 95]),
   midi.NoteOnEvent(tick=0, channel=0, data=[40, 95]),
   midi.NoteOffEvent(tick=240, channel=0, data=[40, 95]),
   midi.NoteOnEvent(tick=0, channel=0, data=[46, 95]),
   midi.NoteOffEvent(tick=240, channel=0, data=[46, 95]),
   midi.NoteOnEvent(tick=0, channel=0, data=[39, 95]),
   midi.NoteOffEvent(tick=240, channel=0, data=[39, 95]),
   midi.NoteOnEvent(tick=0, channel=0, data=[39, 95]),
   midi.NoteOffEvent(tick=240, channel=0, data=[39, 95]),
   midi.NoteOnEvent(tick=0, channel=0, data=[39, 95]),
   midi.NoteOffEvent(tick=240, channel=0, data=[39, 95]),
   midi.NoteOnEvent(tick=0, channel=0, data=[39, 95]),
   midi.NoteOffEvent(tick=240, channel=0, data=[39, 95]),
   midi.NoteOnEvent(tick=0, channel=0, data=[39, 95]),
   midi.NoteOffEvent(tick=240, channel=0, data=[39, 95]),
   midi.NoteOnEvent(tick=0, channel=0, data=[39, 95]),
   midi.NoteOffEvent(tick=240, channel=0, data=[39, 95]),
   midi.NoteOnEvent(tick=0, channel=0, data=[39, 95]),
   midi.NoteOffEvent(tick=240, channel=0, data=[39, 95]),
   midi.NoteOnEvent(tick=0, channel=0, data=[39, 95]),
   midi.NoteOffEvent(tick=240, channel=0, data=[39, 95]),
   midi.NoteOnEvent(tick=0, channel=0, data=[39, 95]),
   midi.NoteOffEvent(tick=240, channel=0, data=[39, 95]),
   midi.NoteOnEvent(tick=0, channel=0, data=[39, 95]),
   midi.NoteOffEvent(tick=240, channel=0, data=[39, 95]),
   midi.NoteOnEvent(tick=0, channel=0, data=[39, 95]),
   midi.NoteOffEvent(tick=240, channel=0, data=[39, 95]),
   midi.NoteOnEvent(tick=0, channel=0, data=[39, 95]),
   midi.NoteOffEvent(tick=240, channel=0, data=[39, 95]),
   midi.NoteOnEvent(tick=0, channel=0, data=[39, 95]),
   midi.NoteOffEvent(tick=240, channel=0, data=[39, 95]),
   midi.NoteOnEvent(tick=0, channel=0, data=[39, 95]),
   midi.NoteOffEvent(tick=240, channel=0, data=[39, 95]),
   midi.NoteOnEvent(tick=0, channel=0, data=[39, 95]),
   midi.NoteOffEvent(tick=240, channel=0, data=[39, 95]),
   midi.NoteOnEvent(tick=0, channel=0, data=[39, 95]),
   midi.NoteOffEvent(tick=240, channel=0, data=[39, 95]),
   midi.NoteOnEvent(tick=0, channel=0, data=[42, 95]),
   midi.NoteOffEvent(tick=240, channel=0, data=[42, 95]),
   midi.NoteOnEvent(tick=0, channel=0, data=[42, 95]),
   midi.NoteOffEvent(tick=240, channel=0, data=[42, 95]),
   midi.NoteOnEvent(tick=0, channel=0, data=[42, 95]),
   midi.NoteOffEvent(tick=240, channel=0, data=[42, 95]),
   midi.NoteOnEvent(tick=0, channel=0, data=[42, 95]),
   midi.NoteOffEvent(tick=240, channel=0, data=[42, 95]),
   midi.NoteOnEvent(tick=0, channel=0, data=[42, 95]),
   midi.NoteOffEvent(tick=240, channel=0, data=[42, 95]),
   midi.NoteOnEvent(tick=0, channel=0, data=[42, 95]),
   midi.NoteOffEvent(tick=240, channel=0, data=[42, 95]),
   midi.NoteOnEvent(tick=0, channel=0, data=[42, 95]),
   midi.NoteOffEvent(tick=240, channel=0, data=[42, 95]),
   midi.NoteOnEvent(tick=0, channel=0, data=[42, 95]),
   midi.NoteOffEvent(tick=240, channel=0, data=[42, 95]),
   midi.NoteOnEvent(tick=0, channel=0, data=[40, 95]),
   midi.NoteOffEvent(tick=240, channel=0, data=[40, 95]),
   midi.NoteOnEvent(tick=0, channel=0, data=[40, 95]),
   midi.NoteOffEvent(tick=240, channel=0, data=[40, 95]),
   midi.NoteOnEvent(tick=0, channel=0, data=[40, 95]),
   midi.NoteOffEvent(tick=240, channel=0, data=[40, 95]),
   midi.NoteOnEvent(tick=0, channel=0, data=[40, 95]),
   midi.NoteOffEvent(tick=240, channel=0, data=[40, 95]),
   midi.NoteOnEvent(tick=0, channel=0, data=[40, 95]),
   midi.NoteOffEvent(tick=240, channel=0, data=[40, 95]),
   midi.NoteOnEvent(tick=0, channel=0, data=[40, 95]),
   midi.NoteOffEvent(tick=240, channel=0, data=[40, 95]),
   midi.NoteOnEvent(tick=0, channel=0, data=[40, 95]),
   midi.NoteOffEvent(tick=240, channel=0, data=[40, 95]),
   midi.NoteOnEvent(tick=0, channel=0, data=[46, 95]),
   midi.NoteOffEvent(tick=240, channel=0, data=[46, 95]),
   midi.NoteOnEvent(tick=0, channel=0, data=[39, 95]),
   midi.NoteOffEvent(tick=240, channel=0, data=[39, 95]),
   midi.NoteOnEvent(tick=0, channel=0, data=[39, 95]),
   midi.NoteOffEvent(tick=240, channel=0, data=[39, 95]),
   midi.NoteOnEvent(tick=0, channel=0, data=[39, 95]),
   midi.NoteOffEvent(tick=240, channel=0, data=[39, 95]),
   midi.NoteOnEvent(tick=0, channel=0, data=[39, 95]),
   midi.NoteOffEvent(tick=240, channel=0, data=[39, 95]),
   midi.NoteOnEvent(tick=0, channel=0, data=[39, 95]),
   midi.NoteOffEvent(tick=240, channel=0, data=[39, 95]),
   midi.NoteOnEvent(tick=0, channel=0, data=[39, 95]),
   midi.NoteOffEvent(tick=240, channel=0, data=[39, 95]),
   midi.NoteOnEvent(tick=0, channel=0, data=[39, 95]),
   midi.NoteOffEvent(tick=240, channel=0, data=[39, 95]),
   midi.NoteOnEvent(tick=0, channel=0, data=[39, 95]),
   midi.NoteOffEvent(tick=240, channel=0, data=[39, 95]),
   midi.NoteOnEvent(tick=0, channel=0, data=[39, 95]),
   midi.NoteOffEvent(tick=240, channel=0, data=[39, 95]),
   midi.NoteOnEvent(tick=0, channel=0, data=[39, 95]),
   midi.NoteOffEvent(tick=240, channel=0, data=[39, 95]),
   midi.NoteOnEvent(tick=0, channel=0, data=[39, 95]),
   midi.NoteOffEvent(tick=240, channel=0, data=[39, 95]),
   midi.NoteOnEvent(tick=0, channel=0, data=[39, 95]),
   midi.NoteOffEvent(tick=240, channel=0, data=[39, 95]),
   midi.NoteOnEvent(tick=0, channel=0, data=[39, 95]),
   midi.NoteOffEvent(tick=240, channel=0, data=[39, 95]),
   midi.NoteOnEvent(tick=0, channel=0, data=[39, 95]),
   midi.NoteOffEvent(tick=240, channel=0, data=[39, 95]),
   midi.NoteOnEvent(tick=0, channel=0, data=[39, 95]),
   midi.NoteOffEvent(tick=240, channel=0, data=[39, 95]),
   midi.NoteOnEvent(tick=0, channel=0, data=[39, 95]),
   midi.NoteOffEvent(tick=240, channel=0, data=[39, 95]),
   midi.NoteOnEvent(tick=0, channel=0, data=[42, 95]),
   midi.NoteOffEvent(tick=240, channel=0, data=[42, 95]),
   midi.NoteOnEvent(tick=0, channel=0, data=[42, 95]),
   midi.NoteOffEvent(tick=240, channel=0, data=[42, 95]),
   midi.NoteOnEvent(tick=0, channel=0, data=[42, 95]),
   midi.NoteOffEvent(tick=240, channel=0, data=[42, 95]),
   midi.NoteOnEvent(tick=0, channel=0, data=[42, 95]),
   midi.NoteOffEvent(tick=240, channel=0, data=[42, 95]),
   midi.NoteOnEvent(tick=0, channel=0, data=[42, 95]),
   midi.NoteOffEvent(tick=240, channel=0, data=[42, 95]),
   midi.NoteOnEvent(tick=0, channel=0, data=[42, 95]),
   midi.NoteOffEvent(tick=240, channel=0, data=[42, 95]),
   midi.NoteOnEvent(tick=0, channel=0, data=[42, 95]),
   midi.NoteOffEvent(tick=240, channel=0, data=[42, 95]),
   midi.NoteOnEvent(tick=0, channel=0, data=[42, 95]),
   midi.NoteOffEvent(tick=240, channel=0, data=[42, 95]),
   midi.NoteOnEvent(tick=0, channel=0, data=[40, 95]),
   midi.NoteOffEvent(tick=240, channel=0, data=[40, 95]),
   midi.NoteOnEvent(tick=0, channel=0, data=[40, 95]),
   midi.NoteOffEvent(tick=240, channel=0, data=[40, 95]),
   midi.NoteOnEvent(tick=0, channel=0, data=[40, 95]),
   midi.NoteOffEvent(tick=240, channel=0, data=[40, 95]),
   midi.NoteOnEvent(tick=0, channel=0, data=[40, 95]),
   midi.NoteOffEvent(tick=240, channel=0, data=[40, 95]),
   midi.NoteOnEvent(tick=0, channel=0, data=[40, 95]),
   midi.NoteOffEvent(tick=240, channel=0, data=[40, 95]),
   midi.NoteOnEvent(tick=0, channel=0, data=[40, 95]),
   midi.NoteOffEvent(tick=240, channel=0, data=[40, 95]),
   midi.NoteOnEvent(tick=0, channel=0, data=[40, 95]),
   midi.NoteOffEvent(tick=240, channel=0, data=[40, 95]),
   midi.NoteOnEvent(tick=0, channel=0, data=[46, 95]),
   midi.NoteOffEvent(tick=240, channel=0, data=[46, 95]),
   midi.NoteOnEvent(tick=0, channel=0, data=[39, 95]),
   midi.NoteOffEvent(tick=240, channel=0, data=[39, 95]),
   midi.NoteOnEvent(tick=0, channel=0, data=[39, 95]),
   midi.NoteOffEvent(tick=240, channel=0, data=[39, 95]),
   midi.NoteOnEvent(tick=0, channel=0, data=[39, 95]),
   midi.NoteOffEvent(tick=240, channel=0, data=[39, 95]),
   midi.NoteOnEvent(tick=0, channel=0, data=[39, 95]),
   midi.NoteOffEvent(tick=240, channel=0, data=[39, 95]),
   midi.NoteOnEvent(tick=0, channel=0, data=[39, 95]),
   midi.NoteOffEvent(tick=240, channel=0, data=[39, 95]),
   midi.NoteOnEvent(tick=0, channel=0, data=[39, 95]),
   midi.NoteOffEvent(tick=240, channel=0, data=[39, 95]),
   midi.NoteOnEvent(tick=0, channel=0, data=[39, 95]),
   midi.NoteOffEvent(tick=240, channel=0, data=[39, 95]),
   midi.NoteOnEvent(tick=0, channel=0, data=[39, 95]),
   midi.NoteOffEvent(tick=240, channel=0, data=[39, 95]),
   midi.NoteOnEvent(tick=0, channel=0, data=[39, 95]),
   midi.NoteOffEvent(tick=240, channel=0, data=[39, 95]),
   midi.NoteOnEvent(tick=0, channel=0, data=[39, 95]),
   midi.NoteOffEvent(tick=240, channel=0, data=[39, 95]),
   midi.NoteOnEvent(tick=0, channel=0, data=[39, 95]),
   midi.NoteOffEvent(tick=240, channel=0, data=[39, 95]),
   midi.NoteOnEvent(tick=0, channel=0, data=[39, 95]),
   midi.NoteOffEvent(tick=240, channel=0, data=[39, 95]),
   midi.NoteOnEvent(tick=0, channel=0, data=[39, 95]),
   midi.NoteOffEvent(tick=240, channel=0, data=[39, 95]),
   midi.NoteOnEvent(tick=0, channel=0, data=[39, 95]),
   midi.NoteOffEvent(tick=240, channel=0, data=[39, 95]),
   midi.NoteOnEvent(tick=0, channel=0, data=[39, 95]),
   midi.NoteOffEvent(tick=240, channel=0, data=[39, 95]),
   midi.NoteOnEvent(tick=0, channel=0, data=[39, 95]),
   midi.NoteOffEvent(tick=240, channel=0, data=[39, 95]),
   midi.NoteOnEvent(tick=0, channel=0, data=[42, 95]),
   midi.NoteOffEvent(tick=240, channel=0, data=[42, 95]),
   midi.NoteOnEvent(tick=0, channel=0, data=[42, 95]),
   midi.NoteOffEvent(tick=240, channel=0, data=[42, 95]),
   midi.NoteOnEvent(tick=0, channel=0, data=[42, 95]),
   midi.NoteOffEvent(tick=240, channel=0, data=[42, 95]),
   midi.NoteOnEvent(tick=0, channel=0, data=[42, 95]),
   midi.NoteOffEvent(tick=240, channel=0, data=[42, 95]),
   midi.NoteOnEvent(tick=0, channel=0, data=[42, 95]),
   midi.NoteOffEvent(tick=240, channel=0, data=[42, 95]),
   midi.NoteOnEvent(tick=0, channel=0, data=[42, 95]),
   midi.NoteOffEvent(tick=240, channel=0, data=[42, 95]),
   midi.NoteOnEvent(tick=0, channel=0, data=[42, 95]),
   midi.NoteOffEvent(tick=240, channel=0, data=[42, 95]),
   midi.NoteOnEvent(tick=0, channel=0, data=[42, 95]),
   midi.NoteOffEvent(tick=240, channel=0, data=[42, 95]),
   midi.NoteOnEvent(tick=0, channel=0, data=[40, 95]),
   midi.NoteOffEvent(tick=240, channel=0, data=[40, 95]),
   midi.NoteOnEvent(tick=0, channel=0, data=[40, 95]),
   midi.NoteOffEvent(tick=240, channel=0, data=[40, 95]),
   midi.NoteOnEvent(tick=0, channel=0, data=[40, 95]),
   midi.NoteOffEvent(tick=240, channel=0, data=[40, 95]),
   midi.NoteOnEvent(tick=0, channel=0, data=[40, 95]),
   midi.NoteOffEvent(tick=240, channel=0, data=[40, 95]),
   midi.NoteOnEvent(tick=0, channel=0, data=[40, 95]),
   midi.NoteOffEvent(tick=240, channel=0, data=[40, 95]),
   midi.NoteOnEvent(tick=0, channel=0, data=[40, 95]),
   midi.NoteOffEvent(tick=240, channel=0, data=[40, 95]),
   midi.NoteOnEvent(tick=0, channel=0, data=[40, 95]),
   midi.NoteOffEvent(tick=240, channel=0, data=[40, 95]),
   midi.NoteOnEvent(tick=0, channel=0, data=[46, 95]),
   midi.NoteOffEvent(tick=240, channel=0, data=[46, 95]),
   midi.NoteOnEvent(tick=0, channel=0, data=[39, 95]),
   midi.NoteOffEvent(tick=240, channel=0, data=[39, 95]),
   midi.NoteOnEvent(tick=0, channel=0, data=[39, 95]),
   midi.NoteOffEvent(tick=240, channel=0, data=[39, 95]),
   midi.NoteOnEvent(tick=0, channel=0, data=[39, 95]),
   midi.NoteOffEvent(tick=240, channel=0, data=[39, 95]),
   midi.NoteOnEvent(tick=0, channel=0, data=[39, 95]),
   midi.NoteOffEvent(tick=240, channel=0, data=[39, 95]),
   midi.NoteOnEvent(tick=0, channel=0, data=[39, 95]),
   midi.NoteOffEvent(tick=240, channel=0, data=[39, 95]),
   midi.NoteOnEvent(tick=0, channel=0, data=[39, 95]),
   midi.NoteOffEvent(tick=240, channel=0, data=[39, 95]),
   midi.NoteOnEvent(tick=0, channel=0, data=[39, 95]),
   midi.NoteOffEvent(tick=240, channel=0, data=[39, 95]),
   midi.NoteOnEvent(tick=0, channel=0, data=[39, 95]),
   midi.NoteOffEvent(tick=240, channel=0, data=[39, 95]),
   midi.NoteOnEvent(tick=0, channel=0, data=[39, 95]),
   midi.NoteOffEvent(tick=240, channel=0, data=[39, 95]),
   midi.NoteOnEvent(tick=0, channel=0, data=[39, 95]),
   midi.NoteOffEvent(tick=240, channel=0, data=[39, 95]),
   midi.NoteOnEvent(tick=0, channel=0, data=[39, 95]),
   midi.NoteOffEvent(tick=240, channel=0, data=[39, 95]),
   midi.NoteOnEvent(tick=0, channel=0, data=[39, 95]),
   midi.NoteOffEvent(tick=240, channel=0, data=[39, 95]),
   midi.NoteOnEvent(tick=0, channel=0, data=[39, 95]),
   midi.NoteOffEvent(tick=240, channel=0, data=[39, 95]),
   midi.NoteOnEvent(tick=0, channel=0, data=[39, 95]),
   midi.NoteOffEvent(tick=240, channel=0, data=[39, 95]),
   midi.NoteOnEvent(tick=0, channel=0, data=[39, 95]),
   midi.NoteOffEvent(tick=240, channel=0, data=[39, 95]),
   midi.NoteOnEvent(tick=0, channel=0, data=[39, 95]),
   midi.NoteOffEvent(tick=240, channel=0, data=[39, 95]),
   midi.NoteOnEvent(tick=0, channel=0, data=[42, 95]),
   midi.NoteOffEvent(tick=240, channel=0, data=[42, 95]),
   midi.NoteOnEvent(tick=0, channel=0, data=[42, 95]),
   midi.NoteOffEvent(tick=240, channel=0, data=[42, 95]),
   midi.NoteOnEvent(tick=0, channel=0, data=[42, 95]),
   midi.NoteOffEvent(tick=240, channel=0, data=[42, 95]),
   midi.NoteOnEvent(tick=0, channel=0, data=[42, 95]),
   midi.NoteOffEvent(tick=240, channel=0, data=[42, 95]),
   midi.NoteOnEvent(tick=0, channel=0, data=[42, 95]),
   midi.NoteOffEvent(tick=240, channel=0, data=[42, 95]),
   midi.NoteOnEvent(tick=0, channel=0, data=[42, 95]),
   midi.NoteOffEvent(tick=240, channel=0, data=[42, 95]),
   midi.NoteOnEvent(tick=0, channel=0, data=[42, 95]),
   midi.NoteOffEvent(tick=240, channel=0, data=[42, 95]),
   midi.NoteOnEvent(tick=0, channel=0, data=[42, 95]),
   midi.NoteOffEvent(tick=240, channel=0, data=[42, 95]),
   midi.NoteOnEvent(tick=0, channel=0, data=[40, 95]),
   midi.NoteOffEvent(tick=240, channel=0, data=[40, 95]),
   midi.NoteOnEvent(tick=0, channel=0, data=[40, 95]),
   midi.NoteOffEvent(tick=240, channel=0, data=[40, 95]),
   midi.NoteOnEvent(tick=0, channel=0, data=[40, 95]),
   midi.NoteOffEvent(tick=240, channel=0, data=[40, 95]),
   midi.NoteOnEvent(tick=0, channel=0, data=[40, 95]),
   midi.NoteOffEvent(tick=240, channel=0, data=[40, 95]),
   midi.NoteOnEvent(tick=0, channel=0, data=[40, 95]),
   midi.NoteOffEvent(tick=240, channel=0, data=[40, 95]),
   midi.NoteOnEvent(tick=0, channel=0, data=[40, 95]),
   midi.NoteOffEvent(tick=240, channel=0, data=[40, 95]),
   midi.NoteOnEvent(tick=0, channel=0, data=[40, 95]),
   midi.NoteOffEvent(tick=240, channel=0, data=[40, 95]),
   midi.NoteOnEvent(tick=0, channel=0, data=[46, 95]),
   midi.NoteOffEvent(tick=240, channel=0, data=[46, 95]),
   midi.NoteOnEvent(tick=0, channel=0, data=[39, 95]),
   midi.NoteOffEvent(tick=240, channel=0, data=[39, 95]),
   midi.NoteOnEvent(tick=0, channel=0, data=[39, 95]),
   midi.NoteOffEvent(tick=240, channel=0, data=[39, 95]),
   midi.NoteOnEvent(tick=0, channel=0, data=[39, 95]),
   midi.NoteOffEvent(tick=240, channel=0, data=[39, 95]),
   midi.NoteOnEvent(tick=0, channel=0, data=[39, 95]),
   midi.NoteOffEvent(tick=240, channel=0, data=[39, 95]),
   midi.NoteOnEvent(tick=0, channel=0, data=[39, 95]),
   midi.NoteOffEvent(tick=240, channel=0, data=[39, 95]),
   midi.NoteOnEvent(tick=0, channel=0, data=[39, 95]),
   midi.NoteOffEvent(tick=240, channel=0, data=[39, 95]),
   midi.NoteOnEvent(tick=0, channel=0, data=[39, 95]),
   midi.NoteOffEvent(tick=240, channel=0, data=[39, 95]),
   midi.NoteOnEvent(tick=0, channel=0, data=[39, 95]),
   midi.NoteOffEvent(tick=240, channel=0, data=[39, 95]),
   midi.NoteOnEvent(tick=0, channel=0, data=[39, 95]),
   midi.NoteOffEvent(tick=240, channel=0, data=[39, 95]),
   midi.NoteOnEvent(tick=0, channel=0, data=[39, 95]),
   midi.NoteOffEvent(tick=240, channel=0, data=[39, 95]),
   midi.NoteOnEvent(tick=0, channel=0, data=[39, 95]),
   midi.NoteOffEvent(tick=240, channel=0, data=[39, 95]),
   midi.NoteOnEvent(tick=0, channel=0, data=[39, 95]),
   midi.NoteOffEvent(tick=240, channel=0, data=[39, 95]),
   midi.NoteOnEvent(tick=0, channel=0, data=[39, 95]),
   midi.NoteOffEvent(tick=240, channel=0, data=[39, 95]),
   midi.NoteOnEvent(tick=0, channel=0, data=[39, 95]),
   midi.NoteOffEvent(tick=240, channel=0, data=[39, 95]),
   midi.NoteOnEvent(tick=0, channel=0, data=[39, 95]),
   midi.NoteOffEvent(tick=240, channel=0, data=[39, 95]),
   midi.NoteOnEvent(tick=0, channel=0, data=[39, 95]),
   midi.NoteOffEvent(tick=240, channel=0, data=[39, 95]),
   midi.NoteOnEvent(tick=0, channel=0, data=[42, 95]),
   midi.NoteOffEvent(tick=240, channel=0, data=[42, 95]),
   midi.NoteOnEvent(tick=0, channel=0, data=[42, 95]),
   midi.NoteOffEvent(tick=240, channel=0, data=[42, 95]),
   midi.NoteOnEvent(tick=0, channel=0, data=[42, 95]),
   midi.NoteOffEvent(tick=240, channel=0, data=[42, 95]),
   midi.NoteOnEvent(tick=0, channel=0, data=[42, 95]),
   midi.NoteOffEvent(tick=240, channel=0, data=[42, 95]),
   midi.NoteOnEvent(tick=0, channel=0, data=[42, 95]),
   midi.NoteOffEvent(tick=240, channel=0, data=[42, 95]),
   midi.NoteOnEvent(tick=0, channel=0, data=[42, 95]),
   midi.NoteOffEvent(tick=240, channel=0, data=[42, 95]),
   midi.NoteOnEvent(tick=0, channel=0, data=[42, 95]),
   midi.NoteOffEvent(tick=240, channel=0, data=[42, 95]),
   midi.NoteOnEvent(tick=0, channel=0, data=[42, 95]),
   midi.NoteOffEvent(tick=240, channel=0, data=[42, 95]),
   midi.NoteOnEvent(tick=0, channel=0, data=[40, 95]),
   midi.NoteOffEvent(tick=240, channel=0, data=[40, 95]),
   midi.NoteOnEvent(tick=0, channel=0, data=[40, 95]),
   midi.NoteOffEvent(tick=240, channel=0, data=[40, 95]),
   midi.NoteOnEvent(tick=0, channel=0, data=[40, 95]),
   midi.NoteOffEvent(tick=240, channel=0, data=[40, 95]),
   midi.NoteOnEvent(tick=0, channel=0, data=[40, 95]),
   midi.NoteOffEvent(tick=240, channel=0, data=[40, 95]),
   midi.NoteOnEvent(tick=0, channel=0, data=[40, 95]),
   midi.NoteOffEvent(tick=240, channel=0, data=[40, 95]),
   midi.NoteOnEvent(tick=0, channel=0, data=[40, 95]),
   midi.NoteOffEvent(tick=240, channel=0, data=[40, 95]),
   midi.NoteOnEvent(tick=0, channel=0, data=[40, 95]),
   midi.NoteOffEvent(tick=240, channel=0, data=[40, 95]),
   midi.NoteOnEvent(tick=0, channel=0, data=[46, 95]),
   midi.NoteOffEvent(tick=240, channel=0, data=[46, 95]),
   midi.NoteOnEvent(tick=0, channel=0, data=[39, 95]),
   midi.NoteOffEvent(tick=240, channel=0, data=[39, 95]),
   midi.NoteOnEvent(tick=0, channel=0, data=[39, 95]),
   midi.NoteOffEvent(tick=240, channel=0, data=[39, 95]),
   midi.NoteOnEvent(tick=0, channel=0, data=[39, 95]),
   midi.NoteOffEvent(tick=240, channel=0, data=[39, 95]),
   midi.NoteOnEvent(tick=0, channel=0, data=[39, 95]),
   midi.NoteOffEvent(tick=240, channel=0, data=[39, 95]),
   midi.NoteOnEvent(tick=0, channel=0, data=[39, 95]),
   midi.NoteOffEvent(tick=240, channel=0, data=[39, 95]),
   midi.NoteOnEvent(tick=0, channel=0, data=[39, 95]),
   midi.NoteOffEvent(tick=240, channel=0, data=[39, 95]),
   midi.NoteOnEvent(tick=0, channel=0, data=[39, 95]),
   midi.NoteOffEvent(tick=240, channel=0, data=[39, 95]),
   midi.NoteOnEvent(tick=0, channel=0, data=[39, 95]),
   midi.NoteOffEvent(tick=240, channel=0, data=[39, 95]),
   midi.NoteOnEvent(tick=0, channel=0, data=[39, 95]),
   midi.NoteOffEvent(tick=240, channel=0, data=[39, 95]),
   midi.NoteOnEvent(tick=0, channel=0, data=[39, 95]),
   midi.NoteOffEvent(tick=240, channel=0, data=[39, 95]),
   midi.NoteOnEvent(tick=0, channel=0, data=[39, 95]),
   midi.NoteOffEvent(tick=240, channel=0, data=[39, 95]),
   midi.NoteOnEvent(tick=0, channel=0, data=[39, 95]),
   midi.NoteOffEvent(tick=240, channel=0, data=[39, 95]),
   midi.NoteOnEvent(tick=0, channel=0, data=[39, 95]),
   midi.NoteOffEvent(tick=240, channel=0, data=[39, 95]),
   midi.NoteOnEvent(tick=0, channel=0, data=[39, 95]),
   midi.NoteOffEvent(tick=240, channel=0, data=[39, 95]),
   midi.NoteOnEvent(tick=0, channel=0, data=[39, 95]),
   midi.NoteOffEvent(tick=240, channel=0, data=[39, 95]),
   midi.NoteOnEvent(tick=0, channel=0, data=[39, 95]),
   midi.NoteOffEvent(tick=240, channel=0, data=[39, 95]),
   midi.NoteOnEvent(tick=0, channel=0, data=[42, 95]),
   midi.NoteOffEvent(tick=240, channel=0, data=[42, 95]),
   midi.NoteOnEvent(tick=0, channel=0, data=[42, 95]),
   midi.NoteOffEvent(tick=240, channel=0, data=[42, 95]),
   midi.NoteOnEvent(tick=0, channel=0, data=[42, 95]),
   midi.NoteOffEvent(tick=240, channel=0, data=[42, 95]),
   midi.NoteOnEvent(tick=0, channel=0, data=[42, 95]),
   midi.NoteOffEvent(tick=240, channel=0, data=[42, 95]),
   midi.NoteOnEvent(tick=0, channel=0, data=[42, 95]),
   midi.NoteOffEvent(tick=240, channel=0, data=[42, 95]),
   midi.NoteOnEvent(tick=0, channel=0, data=[42, 95]),
   midi.NoteOffEvent(tick=240, channel=0, data=[42, 95]),
   midi.NoteOnEvent(tick=0, channel=0, data=[42, 95]),
   midi.NoteOffEvent(tick=240, channel=0, data=[42, 95]),
   midi.NoteOnEvent(tick=0, channel=0, data=[42, 95]),
   midi.NoteOffEvent(tick=240, channel=0, data=[42, 95]),
   midi.NoteOnEvent(tick=0, channel=0, data=[40, 95]),
   midi.NoteOffEvent(tick=240, channel=0, data=[40, 95]),
   midi.NoteOnEvent(tick=0, channel=0, data=[40, 95]),
   midi.NoteOffEvent(tick=240, channel=0, data=[40, 95]),
   midi.NoteOnEvent(tick=0, channel=0, data=[40, 95]),
   midi.NoteOffEvent(tick=240, channel=0, data=[40, 95]),
   midi.NoteOnEvent(tick=0, channel=0, data=[40, 95]),
   midi.NoteOffEvent(tick=240, channel=0, data=[40, 95]),
   midi.NoteOnEvent(tick=0, channel=0, data=[40, 95]),
   midi.NoteOffEvent(tick=240, channel=0, data=[40, 95]),
   midi.NoteOnEvent(tick=0, channel=0, data=[40, 95]),
   midi.NoteOffEvent(tick=240, channel=0, data=[40, 95]),
   midi.NoteOnEvent(tick=0, channel=0, data=[40, 95]),
   midi.NoteOffEvent(tick=240, channel=0, data=[40, 95]),
   midi.NoteOnEvent(tick=0, channel=0, data=[46, 95]),
   midi.NoteOffEvent(tick=240, channel=0, data=[46, 95]),
   midi.NoteOnEvent(tick=0, channel=0, data=[39, 95]),
   midi.NoteOffEvent(tick=240, channel=0, data=[39, 95]),
   midi.NoteOnEvent(tick=0, channel=0, data=[39, 95]),
   midi.NoteOffEvent(tick=240, channel=0, data=[39, 95]),
   midi.NoteOnEvent(tick=0, channel=0, data=[39, 95]),
   midi.NoteOffEvent(tick=240, channel=0, data=[39, 95]),
   midi.NoteOnEvent(tick=0, channel=0, data=[39, 95]),
   midi.NoteOffEvent(tick=240, channel=0, data=[39, 95]),
   midi.NoteOnEvent(tick=0, channel=0, data=[39, 95]),
   midi.NoteOffEvent(tick=240, channel=0, data=[39, 95]),
   midi.NoteOnEvent(tick=0, channel=0, data=[39, 95]),
   midi.NoteOffEvent(tick=240, channel=0, data=[39, 95]),
   midi.NoteOnEvent(tick=0, channel=0, data=[39, 95]),
   midi.NoteOffEvent(tick=240, channel=0, data=[39, 95]),
   midi.NoteOnEvent(tick=0, channel=0, data=[39, 95]),
   midi.NoteOffEvent(tick=240, channel=0, data=[39, 95]),
   midi.NoteOnEvent(tick=0, channel=0, data=[39, 95]),
   midi.NoteOffEvent(tick=240, channel=0, data=[39, 95]),
   midi.NoteOnEvent(tick=0, channel=0, data=[39, 95]),
   midi.NoteOffEvent(tick=240, channel=0, data=[39, 95]),
   midi.NoteOnEvent(tick=0, channel=0, data=[39, 95]),
   midi.NoteOffEvent(tick=240, channel=0, data=[39, 95]),
   midi.NoteOnEvent(tick=0, channel=0, data=[39, 95]),
   midi.NoteOffEvent(tick=240, channel=0, data=[39, 95]),
   midi.NoteOnEvent(tick=0, channel=0, data=[39, 95]),
   midi.NoteOffEvent(tick=240, channel=0, data=[39, 95]),
   midi.NoteOnEvent(tick=0, channel=0, data=[39, 95]),
   midi.NoteOffEvent(tick=240, channel=0, data=[39, 95]),
   midi.NoteOnEvent(tick=0, channel=0, data=[39, 95]),
   midi.NoteOffEvent(tick=240, channel=0, data=[39, 95]),
   midi.NoteOnEvent(tick=0, channel=0, data=[39, 95]),
   midi.NoteOffEvent(tick=240, channel=0, data=[39, 95]),
   midi.NoteOnEvent(tick=0, channel=0, data=[42, 95]),
   midi.NoteOffEvent(tick=240, channel=0, data=[42, 95]),
   midi.NoteOnEvent(tick=0, channel=0, data=[42, 95]),
   midi.NoteOffEvent(tick=240, channel=0, data=[42, 95]),
   midi.NoteOnEvent(tick=0, channel=0, data=[42, 95]),
   midi.NoteOffEvent(tick=240, channel=0, data=[42, 95]),
   midi.NoteOnEvent(tick=0, channel=0, data=[42, 95]),
   midi.NoteOffEvent(tick=240, channel=0, data=[42, 95]),
   midi.NoteOnEvent(tick=0, channel=0, data=[42, 95]),
   midi.NoteOffEvent(tick=240, channel=0, data=[42, 95]),
   midi.NoteOnEvent(tick=0, channel=0, data=[42, 95]),
   midi.NoteOffEvent(tick=240, channel=0, data=[42, 95]),
   midi.NoteOnEvent(tick=0, channel=0, data=[42, 95]),
   midi.NoteOffEvent(tick=240, channel=0, data=[42, 95]),
   midi.NoteOnEvent(tick=0, channel=0, data=[42, 95]),
   midi.NoteOffEvent(tick=240, channel=0, data=[42, 95]),
   midi.NoteOnEvent(tick=0, channel=0, data=[40, 95]),
   midi.NoteOffEvent(tick=240, channel=0, data=[40, 95]),
   midi.NoteOnEvent(tick=0, channel=0, data=[40, 95]),
   midi.NoteOffEvent(tick=240, channel=0, data=[40, 95]),
   midi.NoteOnEvent(tick=0, channel=0, data=[40, 95]),
   midi.NoteOffEvent(tick=240, channel=0, data=[40, 95]),
   midi.NoteOnEvent(tick=0, channel=0, data=[40, 95]),
   midi.NoteOffEvent(tick=240, channel=0, data=[40, 95]),
   midi.NoteOnEvent(tick=0, channel=0, data=[40, 95]),
   midi.NoteOffEvent(tick=240, channel=0, data=[40, 95]),
   midi.NoteOnEvent(tick=0, channel=0, data=[40, 95]),
   midi.NoteOffEvent(tick=240, channel=0, data=[40, 95]),
   midi.NoteOnEvent(tick=0, channel=0, data=[40, 95]),
   midi.NoteOffEvent(tick=240, channel=0, data=[40, 95]),
   midi.NoteOnEvent(tick=0, channel=0, data=[46, 95]),
   midi.NoteOffEvent(tick=240, channel=0, data=[46, 95]),
   midi.NoteOnEvent(tick=0, channel=0, data=[52, 95]),
   midi.NoteOnEvent(tick=0, channel=0, data=[45, 95]),
   midi.NoteOffEvent(tick=4800, channel=0, data=[52, 95]),
   midi.NoteOffEvent(tick=0, channel=0, data=[45, 95]),
   midi.NoteOnEvent(tick=0, channel=0, data=[51, 95]),
   midi.NoteOnEvent(tick=0, channel=0, data=[44, 95]),
   midi.NoteOffEvent(tick=960, channel=0, data=[51, 95]),
   midi.NoteOffEvent(tick=0, channel=0, data=[44, 95]),
   midi.NoteOnEvent(tick=0, channel=0, data=[52, 95]),
   midi.NoteOnEvent(tick=0, channel=0, data=[45, 95]),
   midi.NoteOffEvent(tick=960, channel=0, data=[52, 95]),
   midi.NoteOffEvent(tick=0, channel=0, data=[45, 95]),
   midi.NoteOnEvent(tick=0, channel=0, data=[51, 95]),
   midi.NoteOnEvent(tick=0, channel=0, data=[44, 95]),
   midi.NoteOffEvent(tick=960, channel=0, data=[51, 95]),
   midi.NoteOffEvent(tick=0, channel=0, data=[44, 95]),
   midi.NoteOnEvent(tick=0, channel=0, data=[48, 95]),
   midi.NoteOnEvent(tick=0, channel=0, data=[41, 95]),
   midi.NoteOffEvent(tick=6720, channel=0, data=[48, 95]),
   midi.NoteOffEvent(tick=0, channel=0, data=[41, 95]),
   midi.NoteOnEvent(tick=0, channel=0, data=[51, 95]),
   midi.NoteOnEvent(tick=0, channel=0, data=[44, 95]),
   midi.NoteOffEvent(tick=960, channel=0, data=[51, 95]),
   midi.NoteOffEvent(tick=0, channel=0, data=[44, 95]),
   midi.NoteOnEvent(tick=0, channel=0, data=[52, 95]),
   midi.NoteOnEvent(tick=0, channel=0, data=[45, 95]),
   midi.NoteOffEvent(tick=4800, channel=0, data=[52, 95]),
   midi.NoteOffEvent(tick=0, channel=0, data=[45, 95]),
   midi.NoteOnEvent(tick=0, channel=0, data=[51, 95]),
   midi.NoteOnEvent(tick=0, channel=0, data=[44, 95]),
   midi.NoteOffEvent(tick=480, channel=0, data=[51, 95]),
   midi.NoteOffEvent(tick=0, channel=0, data=[44, 95]),
   midi.NoteOnEvent(tick=0, channel=0, data=[52, 95]),
   midi.NoteOnEvent(tick=0, channel=0, data=[45, 95]),
   midi.NoteOffEvent(tick=480, channel=0, data=[52, 95]),
   midi.NoteOffEvent(tick=0, channel=0, data=[45, 95]),
   midi.NoteOnEvent(tick=0, channel=0, data=[51, 95]),
   midi.NoteOnEvent(tick=0, channel=0, data=[44, 95]),
   midi.NoteOffEvent(tick=480, channel=0, data=[51, 95]),
   midi.NoteOffEvent(tick=0, channel=0, data=[44, 95]),
   midi.NoteOnEvent(tick=0, channel=0, data=[51, 95]),
   midi.NoteOnEvent(tick=0, channel=0, data=[44, 95]),
   midi.NoteOffEvent(tick=480, channel=0, data=[51, 95]),
   midi.NoteOffEvent(tick=0, channel=0, data=[44, 95]),
   midi.NoteOnEvent(tick=0, channel=0, data=[52, 95]),
   midi.NoteOnEvent(tick=0, channel=0, data=[45, 95]),
   midi.NoteOffEvent(tick=480, channel=0, data=[52, 95]),
   midi.NoteOffEvent(tick=0, channel=0, data=[45, 95]),
   midi.NoteOnEvent(tick=0, channel=0, data=[51, 95]),
   midi.NoteOnEvent(tick=0, channel=0, data=[44, 95]),
   midi.NoteOffEvent(tick=480, channel=0, data=[51, 95]),
   midi.NoteOffEvent(tick=0, channel=0, data=[44, 95]),
   midi.NoteOnEvent(tick=0, channel=0, data=[48, 95]),
   midi.NoteOnEvent(tick=0, channel=0, data=[41, 95]),
   midi.NoteOffEvent(tick=6720, channel=0, data=[48, 95]),
   midi.NoteOffEvent(tick=0, channel=0, data=[41, 95]),
   midi.NoteOnEvent(tick=0, channel=1, data=[51, 95]),
   midi.NoteOnEvent(tick=0, channel=1, data=[44, 95]),
   midi.NoteOffEvent(tick=960, channel=1, data=[51, 95]),
   midi.NoteOffEvent(tick=0, channel=1, data=[44, 95]),
   midi.NoteOnEvent(tick=0, channel=0, data=[52, 95]),
   midi.NoteOnEvent(tick=0, channel=0, data=[45, 95]),
   midi.NoteOffEvent(tick=4800, channel=0, data=[52, 95]),
   midi.NoteOffEvent(tick=0, channel=0, data=[45, 95]),
   midi.NoteOnEvent(tick=0, channel=0, data=[51, 95]),
   midi.NoteOnEvent(tick=0, channel=0, data=[44, 95]),
   midi.NoteOffEvent(tick=960, channel=0, data=[51, 95]),
   midi.NoteOffEvent(tick=0, channel=0, data=[44, 95]),
   midi.NoteOnEvent(tick=0, channel=0, data=[52, 95]),
   midi.NoteOnEvent(tick=0, channel=0, data=[45, 95]),
   midi.NoteOffEvent(tick=960, channel=0, data=[52, 95]),
   midi.NoteOffEvent(tick=0, channel=0, data=[45, 95]),
   midi.NoteOnEvent(tick=0, channel=0, data=[51, 95]),
   midi.NoteOnEvent(tick=0, channel=0, data=[44, 95]),
   midi.NoteOffEvent(tick=960, channel=0, data=[51, 95]),
   midi.NoteOffEvent(tick=0, channel=0, data=[44, 95]),
   midi.NoteOnEvent(tick=0, channel=0, data=[48, 95]),
   midi.NoteOnEvent(tick=0, channel=0, data=[41, 95]),
   midi.NoteOffEvent(tick=6720, channel=0, data=[48, 95]),
   midi.NoteOffEvent(tick=0, channel=0, data=[41, 95]),
   midi.NoteOnEvent(tick=0, channel=0, data=[51, 95]),
   midi.NoteOnEvent(tick=0, channel=0, data=[44, 95]),
   midi.NoteOffEvent(tick=960, channel=0, data=[51, 95]),
   midi.NoteOffEvent(tick=0, channel=0, data=[44, 95]),
   midi.NoteOnEvent(tick=0, channel=0, data=[52, 95]),
   midi.NoteOnEvent(tick=0, channel=0, data=[45, 95]),
   midi.NoteOffEvent(tick=4800, channel=0, data=[52, 95]),
   midi.NoteOffEvent(tick=0, channel=0, data=[45, 95]),
   midi.NoteOnEvent(tick=0, channel=0, data=[51, 95]),
   midi.NoteOnEvent(tick=0, channel=0, data=[44, 95]),
   midi.NoteOffEvent(tick=480, channel=0, data=[51, 95]),
   midi.NoteOffEvent(tick=0, channel=0, data=[44, 95]),
   midi.NoteOnEvent(tick=0, channel=0, data=[52, 95]),
   midi.NoteOnEvent(tick=0, channel=0, data=[45, 95]),
   midi.NoteOffEvent(tick=480, channel=0, data=[52, 95]),
   midi.NoteOffEvent(tick=0, channel=0, data=[45, 95]),
   midi.NoteOnEvent(tick=0, channel=0, data=[51, 95]),
   midi.NoteOnEvent(tick=0, channel=0, data=[44, 95]),
   midi.NoteOffEvent(tick=480, channel=0, data=[51, 95]),
   midi.NoteOffEvent(tick=0, channel=0, data=[44, 95]),
   midi.NoteOnEvent(tick=0, channel=0, data=[51, 95]),
   midi.NoteOnEvent(tick=0, channel=0, data=[44, 95]),
   midi.NoteOffEvent(tick=480, channel=0, data=[51, 95]),
   midi.NoteOffEvent(tick=0, channel=0, data=[44, 95]),
   midi.NoteOnEvent(tick=0, channel=0, data=[52, 95]),
   midi.NoteOnEvent(tick=0, channel=0, data=[45, 95]),
   midi.NoteOffEvent(tick=480, channel=0, data=[52, 95]),
   midi.NoteOffEvent(tick=0, channel=0, data=[45, 95]),
   midi.NoteOnEvent(tick=0, channel=0, data=[51, 95]),
   midi.NoteOnEvent(tick=0, channel=0, data=[44, 95]),
   midi.NoteOffEvent(tick=480, channel=0, data=[51, 95]),
   midi.NoteOffEvent(tick=0, channel=0, data=[44, 95]),
   midi.NoteOnEvent(tick=0, channel=0, data=[48, 95]),
   midi.NoteOnEvent(tick=0, channel=0, data=[41, 95]),
   midi.NoteOffEvent(tick=6720, channel=0, data=[48, 95]),
   midi.NoteOffEvent(tick=0, channel=0, data=[41, 95]),
   midi.NoteOnEvent(tick=0, channel=1, data=[51, 95]),
   midi.NoteOnEvent(tick=0, channel=1, data=[44, 95]),
   midi.NoteOffEvent(tick=960, channel=1, data=[51, 95]),
   midi.NoteOffEvent(tick=0, channel=1, data=[44, 95]),
   midi.NoteOnEvent(tick=3840, channel=0, data=[39, 95]),
   midi.NoteOffEvent(tick=480, channel=0, data=[39, 95]),
   midi.NoteOnEvent(tick=0, channel=0, data=[39, 95]),
   midi.NoteOffEvent(tick=480, channel=0, data=[39, 95]),
   midi.NoteOnEvent(tick=0, channel=0, data=[39, 95]),
   midi.NoteOffEvent(tick=480, channel=0, data=[39, 95]),
   midi.NoteOnEvent(tick=0, channel=0, data=[39, 95]),
   midi.NoteOffEvent(tick=480, channel=0, data=[39, 95]),
   midi.NoteOnEvent(tick=0, channel=1, data=[59, 95]),
   midi.NoteOnEvent(tick=0, channel=1, data=[52, 95]),
   midi.PitchWheelEvent(tick=120, channel=1, data=[0, 63]),
   midi.PitchWheelEvent(tick=0, channel=1, data=[0, 63]),
   midi.PitchWheelEvent(tick=120, channel=1, data=[0, 62]),
   midi.PitchWheelEvent(tick=0, channel=1, data=[0, 62]),
   midi.PitchWheelEvent(tick=120, channel=1, data=[0, 60]),
   midi.PitchWheelEvent(tick=0, channel=1, data=[0, 60]),
   midi.PitchWheelEvent(tick=120, channel=1, data=[0, 59]),
   midi.PitchWheelEvent(tick=0, channel=1, data=[0, 64]),
   midi.NoteOffEvent(tick=0, channel=1, data=[59, 95]),
   midi.PitchWheelEvent(tick=0, channel=1, data=[0, 59]),
   midi.PitchWheelEvent(tick=0, channel=1, data=[0, 64]),
   midi.NoteOffEvent(tick=0, channel=1, data=[52, 95]),
   midi.NoteOnEvent(tick=0, channel=0, data=[58, 95]),
   midi.NoteOnEvent(tick=0, channel=0, data=[51, 95]),
   midi.NoteOffEvent(tick=480, channel=0, data=[58, 95]),
   midi.NoteOffEvent(tick=0, channel=0, data=[51, 95]),
   midi.NoteOnEvent(tick=0, channel=0, data=[39, 95]),
   midi.NoteOffEvent(tick=480, channel=0, data=[39, 95]),
   midi.NoteOnEvent(tick=0, channel=0, data=[39, 95]),
   midi.NoteOffEvent(tick=480, channel=0, data=[39, 95]),
   midi.NoteOnEvent(tick=0, channel=0, data=[39, 95]),
   midi.NoteOffEvent(tick=480, channel=0, data=[39, 95]),
   midi.NoteOnEvent(tick=0, channel=0, data=[39, 95]),
   midi.NoteOffEvent(tick=480, channel=0, data=[39, 95]),
   midi.NoteOnEvent(tick=0, channel=0, data=[39, 95]),
   midi.NoteOffEvent(tick=480, channel=0, data=[39, 95]),
   midi.NoteOnEvent(tick=0, channel=0, data=[39, 95]),
   midi.NoteOffEvent(tick=480, channel=0, data=[39, 95]),
   midi.NoteOnEvent(tick=0, channel=0, data=[39, 95]),
   midi.NoteOffEvent(tick=480, channel=0, data=[39, 95]),
   midi.NoteOnEvent(tick=0, channel=0, data=[39, 95]),
   midi.NoteOffEvent(tick=480, channel=0, data=[39, 95]),
   midi.NoteOnEvent(tick=0, channel=0, data=[59, 95]),
   midi.NoteOnEvent(tick=0, channel=0, data=[52, 95]),
   midi.NoteOffEvent(tick=960, channel=0, data=[59, 95]),
   midi.NoteOffEvent(tick=0, channel=0, data=[52, 95]),
   midi.NoteOnEvent(tick=0, channel=0, data=[39, 95]),
   midi.NoteOffEvent(tick=480, channel=0, data=[39, 95]),
   midi.NoteOnEvent(tick=0, channel=0, data=[39, 95]),
   midi.NoteOffEvent(tick=480, channel=0, data=[39, 95]),
   midi.NoteOnEvent(tick=0, channel=0, data=[39, 95]),
   midi.NoteOffEvent(tick=480, channel=0, data=[39, 95]),
   midi.NoteOnEvent(tick=0, channel=0, data=[39, 95]),
   midi.NoteOffEvent(tick=480, channel=0, data=[39, 95]),
   midi.NoteOnEvent(tick=0, channel=1, data=[59, 95]),
   midi.NoteOnEvent(tick=0, channel=1, data=[52, 95]),
   midi.PitchWheelEvent(tick=120, channel=1, data=[0, 63]),
   midi.PitchWheelEvent(tick=0, channel=1, data=[0, 63]),
   midi.PitchWheelEvent(tick=120, channel=1, data=[0, 62]),
   midi.PitchWheelEvent(tick=0, channel=1, data=[0, 62]),
   midi.PitchWheelEvent(tick=120, channel=1, data=[0, 60]),
   midi.PitchWheelEvent(tick=0, channel=1, data=[0, 60]),
   midi.PitchWheelEvent(tick=120, channel=1, data=[0, 59]),
   midi.PitchWheelEvent(tick=0, channel=1, data=[0, 64]),
   midi.NoteOffEvent(tick=0, channel=1, data=[59, 95]),
   midi.PitchWheelEvent(tick=0, channel=1, data=[0, 59]),
   midi.PitchWheelEvent(tick=0, channel=1, data=[0, 64]),
   midi.NoteOffEvent(tick=0, channel=1, data=[52, 95]),
   midi.NoteOnEvent(tick=0, channel=0, data=[58, 95]),
   midi.NoteOnEvent(tick=0, channel=0, data=[51, 95]),
   midi.NoteOffEvent(tick=480, channel=0, data=[58, 95]),
   midi.NoteOffEvent(tick=0, channel=0, data=[51, 95]),
   midi.NoteOnEvent(tick=0, channel=0, data=[39, 95]),
   midi.NoteOffEvent(tick=480, channel=0, data=[39, 95]),
   midi.NoteOnEvent(tick=0, channel=0, data=[39, 95]),
   midi.NoteOffEvent(tick=480, channel=0, data=[39, 95]),
   midi.NoteOnEvent(tick=0, channel=0, data=[39, 95]),
   midi.NoteOffEvent(tick=480, channel=0, data=[39, 95]),
   midi.NoteOnEvent(tick=0, channel=0, data=[39, 95]),
   midi.NoteOffEvent(tick=480, channel=0, data=[39, 95]),
   midi.NoteOnEvent(tick=0, channel=0, data=[46, 95]),
   midi.NoteOffEvent(tick=480, channel=0, data=[46, 95]),
   midi.NoteOnEvent(tick=0, channel=0, data=[47, 95]),
   midi.NoteOffEvent(tick=480, channel=0, data=[47, 95]),
   midi.NoteOnEvent(tick=0, channel=0, data=[50, 95]),
   midi.NoteOffEvent(tick=480, channel=0, data=[50, 95]),
   midi.NoteOnEvent(tick=0, channel=0, data=[49, 95]),
   midi.NoteOffEvent(tick=480, channel=0, data=[49, 95]),
   midi.NoteOnEvent(tick=0, channel=0, data=[48, 95]),
   midi.NoteOffEvent(tick=480, channel=0, data=[48, 95]),
   midi.NoteOnEvent(tick=0, channel=0, data=[47, 95]),
   midi.NoteOffEvent(tick=480, channel=0, data=[47, 95]),
   midi.NoteOnEvent(tick=0, channel=0, data=[39, 95]),
   midi.NoteOffEvent(tick=480, channel=0, data=[39, 95]),
   midi.NoteOnEvent(tick=0, channel=0, data=[39, 95]),
   midi.NoteOffEvent(tick=480, channel=0, data=[39, 95]),
   midi.NoteOnEvent(tick=0, channel=0, data=[39, 95]),
   midi.NoteOffEvent(tick=480, channel=0, data=[39, 95]),
   midi.NoteOnEvent(tick=0, channel=0, data=[39, 95]),
   midi.NoteOffEvent(tick=480, channel=0, data=[39, 95]),
   midi.NoteOnEvent(tick=0, channel=1, data=[59, 95]),
   midi.NoteOnEvent(tick=0, channel=1, data=[52, 95]),
   midi.PitchWheelEvent(tick=120, channel=1, data=[0, 63]),
   midi.PitchWheelEvent(tick=0, channel=1, data=[0, 63]),
   midi.PitchWheelEvent(tick=120, channel=1, data=[0, 62]),
   midi.PitchWheelEvent(tick=0, channel=1, data=[0, 62]),
   midi.PitchWheelEvent(tick=120, channel=1, data=[0, 60]),
   midi.PitchWheelEvent(tick=0, channel=1, data=[0, 60]),
   midi.PitchWheelEvent(tick=120, channel=1, data=[0, 59]),
   midi.PitchWheelEvent(tick=0, channel=1, data=[0, 64]),
   midi.NoteOffEvent(tick=0, channel=1, data=[59, 95]),
   midi.PitchWheelEvent(tick=0, channel=1, data=[0, 59]),
   midi.PitchWheelEvent(tick=0, channel=1, data=[0, 64]),
   midi.NoteOffEvent(tick=0, channel=1, data=[52, 95]),
   midi.NoteOnEvent(tick=0, channel=0, data=[58, 95]),
   midi.NoteOnEvent(tick=0, channel=0, data=[51, 95]),
   midi.NoteOffEvent(tick=480, channel=0, data=[58, 95]),
   midi.NoteOffEvent(tick=0, channel=0, data=[51, 95]),
   midi.NoteOnEvent(tick=0, channel=0, data=[39, 95]),
   midi.NoteOffEvent(tick=480, channel=0, data=[39, 95]),
   midi.NoteOnEvent(tick=0, channel=0, data=[39, 95]),
   midi.NoteOffEvent(tick=480, channel=0, data=[39, 95]),
   midi.NoteOnEvent(tick=0, channel=0, data=[39, 95]),
   midi.NoteOffEvent(tick=480, channel=0, data=[39, 95]),
   midi.NoteOnEvent(tick=0, channel=0, data=[39, 95]),
   midi.NoteOffEvent(tick=480, channel=0, data=[39, 95]),
   midi.NoteOnEvent(tick=0, channel=0, data=[39, 95]),
   midi.NoteOffEvent(tick=480, channel=0, data=[39, 95]),
   midi.NoteOnEvent(tick=0, channel=0, data=[39, 95]),
   midi.NoteOffEvent(tick=480, channel=0, data=[39, 95]),
   midi.NoteOnEvent(tick=0, channel=0, data=[39, 95]),
   midi.NoteOffEvent(tick=480, channel=0, data=[39, 95]),
   midi.NoteOnEvent(tick=0, channel=0, data=[39, 95]),
   midi.NoteOffEvent(tick=480, channel=0, data=[39, 95]),
   midi.NoteOnEvent(tick=0, channel=0, data=[59, 95]),
   midi.NoteOnEvent(tick=0, channel=0, data=[52, 95]),
   midi.NoteOffEvent(tick=960, channel=0, data=[59, 95]),
   midi.NoteOffEvent(tick=0, channel=0, data=[52, 95]),
   midi.NoteOnEvent(tick=0, channel=0, data=[39, 95]),
   midi.NoteOffEvent(tick=480, channel=0, data=[39, 95]),
   midi.NoteOnEvent(tick=0, channel=0, data=[39, 95]),
   midi.NoteOffEvent(tick=480, channel=0, data=[39, 95]),
   midi.NoteOnEvent(tick=0, channel=0, data=[39, 95]),
   midi.NoteOffEvent(tick=480, channel=0, data=[39, 95]),
   midi.NoteOnEvent(tick=0, channel=0, data=[39, 95]),
   midi.NoteOffEvent(tick=480, channel=0, data=[39, 95]),
   midi.NoteOnEvent(tick=0, channel=1, data=[59, 95]),
   midi.NoteOnEvent(tick=0, channel=1, data=[52, 95]),
   midi.PitchWheelEvent(tick=120, channel=1, data=[0, 63]),
   midi.PitchWheelEvent(tick=0, channel=1, data=[0, 63]),
   midi.PitchWheelEvent(tick=120, channel=1, data=[0, 62]),
   midi.PitchWheelEvent(tick=0, channel=1, data=[0, 62]),
   midi.PitchWheelEvent(tick=120, channel=1, data=[0, 60]),
   midi.PitchWheelEvent(tick=0, channel=1, data=[0, 60]),
   midi.PitchWheelEvent(tick=120, channel=1, data=[0, 59]),
   midi.PitchWheelEvent(tick=0, channel=1, data=[0, 64]),
   midi.NoteOffEvent(tick=0, channel=1, data=[59, 95]),
   midi.PitchWheelEvent(tick=0, channel=1, data=[0, 59]),
   midi.PitchWheelEvent(tick=0, channel=1, data=[0, 64]),
   midi.NoteOffEvent(tick=0, channel=1, data=[52, 95]),
   midi.NoteOnEvent(tick=0, channel=0, data=[58, 95]),
   midi.NoteOnEvent(tick=0, channel=0, data=[51, 95]),
   midi.NoteOffEvent(tick=480, channel=0, data=[58, 95]),
   midi.NoteOffEvent(tick=0, channel=0, data=[51, 95]),
   midi.NoteOnEvent(tick=0, channel=0, data=[39, 95]),
   midi.NoteOffEvent(tick=480, channel=0, data=[39, 95]),
   midi.NoteOnEvent(tick=0, channel=0, data=[39, 95]),
   midi.NoteOffEvent(tick=480, channel=0, data=[39, 95]),
   midi.NoteOnEvent(tick=0, channel=0, data=[39, 95]),
   midi.NoteOffEvent(tick=480, channel=0, data=[39, 95]),
   midi.NoteOnEvent(tick=0, channel=0, data=[39, 95]),
   midi.NoteOffEvent(tick=480, channel=0, data=[39, 95]),
   midi.NoteOnEvent(tick=0, channel=0, data=[46, 95]),
   midi.NoteOffEvent(tick=480, channel=0, data=[46, 95]),
   midi.NoteOnEvent(tick=0, channel=0, data=[47, 95]),
   midi.NoteOffEvent(tick=480, channel=0, data=[47, 95]),
   midi.NoteOnEvent(tick=0, channel=0, data=[50, 95]),
   midi.NoteOffEvent(tick=480, channel=0, data=[50, 95]),
   midi.NoteOnEvent(tick=0, channel=0, data=[49, 95]),
   midi.NoteOffEvent(tick=480, channel=0, data=[49, 95]),
   midi.NoteOnEvent(tick=0, channel=0, data=[48, 95]),
   midi.NoteOffEvent(tick=480, channel=0, data=[48, 95]),
   midi.NoteOnEvent(tick=0, channel=0, data=[47, 95]),
   midi.NoteOffEvent(tick=480, channel=0, data=[47, 95]),
   midi.NoteOnEvent(tick=0, channel=0, data=[39, 95]),
   midi.NoteOffEvent(tick=480, channel=0, data=[39, 95]),
   midi.NoteOnEvent(tick=0, channel=0, data=[39, 95]),
   midi.NoteOffEvent(tick=480, channel=0, data=[39, 95]),
   midi.NoteOnEvent(tick=0, channel=0, data=[39, 95]),
   midi.NoteOffEvent(tick=480, channel=0, data=[39, 95]),
   midi.NoteOnEvent(tick=0, channel=0, data=[39, 95]),
   midi.NoteOffEvent(tick=480, channel=0, data=[39, 95]),
   midi.NoteOnEvent(tick=0, channel=1, data=[59, 95]),
   midi.NoteOnEvent(tick=0, channel=1, data=[52, 95]),
   midi.PitchWheelEvent(tick=120, channel=1, data=[0, 63]),
   midi.PitchWheelEvent(tick=0, channel=1, data=[0, 63]),
   midi.PitchWheelEvent(tick=120, channel=1, data=[0, 62]),
   midi.PitchWheelEvent(tick=0, channel=1, data=[0, 62]),
   midi.PitchWheelEvent(tick=120, channel=1, data=[0, 60]),
   midi.PitchWheelEvent(tick=0, channel=1, data=[0, 60]),
   midi.PitchWheelEvent(tick=120, channel=1, data=[0, 59]),
   midi.PitchWheelEvent(tick=0, channel=1, data=[0, 64]),
   midi.NoteOffEvent(tick=0, channel=1, data=[59, 95]),
   midi.PitchWheelEvent(tick=0, channel=1, data=[0, 59]),
   midi.PitchWheelEvent(tick=0, channel=1, data=[0, 64]),
   midi.NoteOffEvent(tick=0, channel=1, data=[52, 95]),
   midi.NoteOnEvent(tick=0, channel=0, data=[58, 95]),
   midi.NoteOnEvent(tick=0, channel=0, data=[51, 95]),
   midi.NoteOffEvent(tick=480, channel=0, data=[58, 95]),
   midi.NoteOffEvent(tick=0, channel=0, data=[51, 95]),
   midi.NoteOnEvent(tick=0, channel=0, data=[39, 95]),
   midi.NoteOffEvent(tick=480, channel=0, data=[39, 95]),
   midi.NoteOnEvent(tick=0, channel=0, data=[39, 95]),
   midi.NoteOffEvent(tick=480, channel=0, data=[39, 95]),
   midi.NoteOnEvent(tick=0, channel=0, data=[39, 95]),
   midi.NoteOffEvent(tick=480, channel=0, data=[39, 95]),
   midi.NoteOnEvent(tick=0, channel=0, data=[39, 95]),
   midi.NoteOffEvent(tick=480, channel=0, data=[39, 95]),
   midi.NoteOnEvent(tick=0, channel=0, data=[39, 95]),
   midi.NoteOffEvent(tick=480, channel=0, data=[39, 95]),
   midi.NoteOnEvent(tick=0, channel=0, data=[39, 95]),
   midi.NoteOffEvent(tick=480, channel=0, data=[39, 95]),
   midi.NoteOnEvent(tick=0, channel=0, data=[39, 95]),
   midi.NoteOffEvent(tick=480, channel=0, data=[39, 95]),
   midi.NoteOnEvent(tick=0, channel=0, data=[39, 95]),
   midi.NoteOffEvent(tick=480, channel=0, data=[39, 95]),
   midi.NoteOnEvent(tick=0, channel=0, data=[59, 95]),
   midi.NoteOnEvent(tick=0, channel=0, data=[52, 95]),
   midi.NoteOffEvent(tick=960, channel=0, data=[59, 95]),
   midi.NoteOffEvent(tick=0, channel=0, data=[52, 95]),
   midi.NoteOnEvent(tick=0, channel=0, data=[39, 95]),
   midi.NoteOffEvent(tick=480, channel=0, data=[39, 95]),
   midi.NoteOnEvent(tick=0, channel=0, data=[39, 95]),
   midi.NoteOffEvent(tick=480, channel=0, data=[39, 95]),
   midi.NoteOnEvent(tick=0, channel=0, data=[39, 95]),
   midi.NoteOffEvent(tick=480, channel=0, data=[39, 95]),
   midi.NoteOnEvent(tick=0, channel=0, data=[39, 95]),
   midi.NoteOffEvent(tick=480, channel=0, data=[39, 95]),
   midi.NoteOnEvent(tick=0, channel=1, data=[59, 95]),
   midi.NoteOnEvent(tick=0, channel=1, data=[52, 95]),
   midi.PitchWheelEvent(tick=120, channel=1, data=[0, 63]),
   midi.PitchWheelEvent(tick=0, channel=1, data=[0, 63]),
   midi.PitchWheelEvent(tick=120, channel=1, data=[0, 62]),
   midi.PitchWheelEvent(tick=0, channel=1, data=[0, 62]),
   midi.PitchWheelEvent(tick=120, channel=1, data=[0, 60]),
   midi.PitchWheelEvent(tick=0, channel=1, data=[0, 60]),
   midi.PitchWheelEvent(tick=120, channel=1, data=[0, 59]),
   midi.PitchWheelEvent(tick=0, channel=1, data=[0, 64]),
   midi.NoteOffEvent(tick=0, channel=1, data=[59, 95]),
   midi.PitchWheelEvent(tick=0, channel=1, data=[0, 59]),
   midi.PitchWheelEvent(tick=0, channel=1, data=[0, 64]),
   midi.NoteOffEvent(tick=0, channel=1, data=[52, 95]),
   midi.NoteOnEvent(tick=0, channel=0, data=[58, 95]),
   midi.NoteOnEvent(tick=0, channel=0, data=[51, 95]),
   midi.NoteOffEvent(tick=480, channel=0, data=[58, 95]),
   midi.NoteOffEvent(tick=0, channel=0, data=[51, 95]),
   midi.NoteOnEvent(tick=0, channel=0, data=[39, 95]),
   midi.NoteOffEvent(tick=480, channel=0, data=[39, 95]),
   midi.NoteOnEvent(tick=0, channel=0, data=[39, 95]),
   midi.NoteOffEvent(tick=480, channel=0, data=[39, 95]),
   midi.NoteOnEvent(tick=0, channel=0, data=[39, 95]),
   midi.NoteOffEvent(tick=480, channel=0, data=[39, 95]),
   midi.NoteOnEvent(tick=0, channel=0, data=[39, 95]),
   midi.NoteOffEvent(tick=480, channel=0, data=[39, 95]),
   midi.NoteOnEvent(tick=0, channel=0, data=[46, 95]),
   midi.NoteOffEvent(tick=480, channel=0, data=[46, 95]),
   midi.NoteOnEvent(tick=0, channel=0, data=[47, 95]),
   midi.NoteOffEvent(tick=480, channel=0, data=[47, 95]),
   midi.NoteOnEvent(tick=0, channel=0, data=[50, 95]),
   midi.NoteOffEvent(tick=480, channel=0, data=[50, 95]),
   midi.NoteOnEvent(tick=0, channel=0, data=[49, 95]),
   midi.NoteOffEvent(tick=480, channel=0, data=[49, 95]),
   midi.NoteOnEvent(tick=0, channel=0, data=[48, 95]),
   midi.NoteOffEvent(tick=480, channel=0, data=[48, 95]),
   midi.NoteOnEvent(tick=0, channel=0, data=[47, 95]),
   midi.NoteOffEvent(tick=480, channel=0, data=[47, 95]),
   midi.NoteOnEvent(tick=0, channel=0, data=[39, 95]),
   midi.NoteOffEvent(tick=480, channel=0, data=[39, 95]),
   midi.NoteOnEvent(tick=0, channel=0, data=[39, 95]),
   midi.NoteOffEvent(tick=480, channel=0, data=[39, 95]),
   midi.NoteOnEvent(tick=0, channel=0, data=[39, 95]),
   midi.NoteOffEvent(tick=480, channel=0, data=[39, 95]),
   midi.NoteOnEvent(tick=0, channel=0, data=[39, 95]),
   midi.NoteOffEvent(tick=480, channel=0, data=[39, 95]),
   midi.NoteOnEvent(tick=0, channel=1, data=[59, 95]),
   midi.NoteOnEvent(tick=0, channel=1, data=[52, 95]),
   midi.PitchWheelEvent(tick=120, channel=1, data=[0, 63]),
   midi.PitchWheelEvent(tick=0, channel=1, data=[0, 63]),
   midi.PitchWheelEvent(tick=120, channel=1, data=[0, 62]),
   midi.PitchWheelEvent(tick=0, channel=1, data=[0, 62]),
   midi.PitchWheelEvent(tick=120, channel=1, data=[0, 60]),
   midi.PitchWheelEvent(tick=0, channel=1, data=[0, 60]),
   midi.PitchWheelEvent(tick=120, channel=1, data=[0, 59]),
   midi.PitchWheelEvent(tick=0, channel=1, data=[0, 64]),
   midi.NoteOffEvent(tick=0, channel=1, data=[59, 95]),
   midi.PitchWheelEvent(tick=0, channel=1, data=[0, 59]),
   midi.PitchWheelEvent(tick=0, channel=1, data=[0, 64]),
   midi.NoteOffEvent(tick=0, channel=1, data=[52, 95]),
   midi.NoteOnEvent(tick=0, channel=0, data=[58, 95]),
   midi.NoteOnEvent(tick=0, channel=0, data=[51, 95]),
   midi.NoteOffEvent(tick=480, channel=0, data=[58, 95]),
   midi.NoteOffEvent(tick=0, channel=0, data=[51, 95]),
   midi.NoteOnEvent(tick=0, channel=0, data=[39, 95]),
   midi.NoteOffEvent(tick=480, channel=0, data=[39, 95]),
   midi.NoteOnEvent(tick=0, channel=0, data=[39, 95]),
   midi.NoteOffEvent(tick=480, channel=0, data=[39, 95]),
   midi.NoteOnEvent(tick=0, channel=0, data=[39, 95]),
   midi.NoteOffEvent(tick=480, channel=0, data=[39, 95]),
   midi.NoteOnEvent(tick=0, channel=0, data=[39, 95]),
   midi.NoteOffEvent(tick=480, channel=0, data=[39, 95]),
   midi.NoteOnEvent(tick=0, channel=0, data=[39, 95]),
   midi.NoteOffEvent(tick=480, channel=0, data=[39, 95]),
   midi.NoteOnEvent(tick=0, channel=0, data=[39, 95]),
   midi.NoteOffEvent(tick=480, channel=0, data=[39, 95]),
   midi.NoteOnEvent(tick=0, channel=0, data=[39, 95]),
   midi.NoteOffEvent(tick=480, channel=0, data=[39, 95]),
   midi.NoteOnEvent(tick=0, channel=0, data=[39, 95]),
   midi.NoteOffEvent(tick=480, channel=0, data=[39, 95]),
   midi.NoteOnEvent(tick=0, channel=0, data=[59, 95]),
   midi.NoteOnEvent(tick=0, channel=0, data=[52, 95]),
   midi.NoteOffEvent(tick=960, channel=0, data=[59, 95]),
   midi.NoteOffEvent(tick=0, channel=0, data=[52, 95]),
   midi.NoteOnEvent(tick=0, channel=0, data=[39, 95]),
   midi.NoteOffEvent(tick=480, channel=0, data=[39, 95]),
   midi.NoteOnEvent(tick=0, channel=0, data=[39, 95]),
   midi.NoteOffEvent(tick=480, channel=0, data=[39, 95]),
   midi.NoteOnEvent(tick=0, channel=0, data=[39, 95]),
   midi.NoteOffEvent(tick=480, channel=0, data=[39, 95]),
   midi.NoteOnEvent(tick=0, channel=0, data=[39, 95]),
   midi.NoteOffEvent(tick=480, channel=0, data=[39, 95]),
   midi.NoteOnEvent(tick=0, channel=1, data=[59, 95]),
   midi.NoteOnEvent(tick=0, channel=1, data=[52, 95]),
   midi.PitchWheelEvent(tick=120, channel=1, data=[0, 63]),
   midi.PitchWheelEvent(tick=0, channel=1, data=[0, 63]),
   midi.PitchWheelEvent(tick=120, channel=1, data=[0, 62]),
   midi.PitchWheelEvent(tick=0, channel=1, data=[0, 62]),
   midi.PitchWheelEvent(tick=120, channel=1, data=[0, 60]),
   midi.PitchWheelEvent(tick=0, channel=1, data=[0, 60]),
   midi.PitchWheelEvent(tick=120, channel=1, data=[0, 59]),
   midi.PitchWheelEvent(tick=0, channel=1, data=[0, 64]),
   midi.NoteOffEvent(tick=0, channel=1, data=[59, 95]),
   midi.PitchWheelEvent(tick=0, channel=1, data=[0, 59]),
   midi.PitchWheelEvent(tick=0, channel=1, data=[0, 64]),
   midi.NoteOffEvent(tick=0, channel=1, data=[52, 95]),
   midi.NoteOnEvent(tick=0, channel=0, data=[58, 95]),
   midi.NoteOnEvent(tick=0, channel=0, data=[51, 95]),
   midi.NoteOffEvent(tick=480, channel=0, data=[58, 95]),
   midi.NoteOffEvent(tick=0, channel=0, data=[51, 95]),
   midi.NoteOnEvent(tick=0, channel=0, data=[39, 95]),
   midi.NoteOffEvent(tick=480, channel=0, data=[39, 95]),
   midi.NoteOnEvent(tick=0, channel=0, data=[39, 95]),
   midi.NoteOffEvent(tick=480, channel=0, data=[39, 95]),
   midi.NoteOnEvent(tick=0, channel=0, data=[39, 95]),
   midi.NoteOffEvent(tick=480, channel=0, data=[39, 95]),
   midi.NoteOnEvent(tick=0, channel=0, data=[39, 95]),
   midi.NoteOffEvent(tick=480, channel=0, data=[39, 95]),
   midi.NoteOnEvent(tick=0, channel=0, data=[46, 95]),
   midi.NoteOffEvent(tick=480, channel=0, data=[46, 95]),
   midi.NoteOnEvent(tick=0, channel=0, data=[47, 95]),
   midi.NoteOffEvent(tick=480, channel=0, data=[47, 95]),
   midi.NoteOnEvent(tick=0, channel=0, data=[50, 95]),
   midi.NoteOffEvent(tick=480, channel=0, data=[50, 95]),
   midi.NoteOnEvent(tick=0, channel=0, data=[49, 95]),
   midi.NoteOffEvent(tick=480, channel=0, data=[49, 95]),
   midi.NoteOnEvent(tick=0, channel=0, data=[48, 95]),
   midi.NoteOffEvent(tick=480, channel=0, data=[48, 95]),
   midi.NoteOnEvent(tick=0, channel=0, data=[47, 95]),
   midi.NoteOffEvent(tick=480, channel=0, data=[47, 95]),
   midi.NoteOnEvent(tick=0, channel=0, data=[39, 95]),
   midi.NoteOffEvent(tick=480, channel=0, data=[39, 95]),
   midi.NoteOnEvent(tick=0, channel=0, data=[39, 95]),
   midi.NoteOffEvent(tick=480, channel=0, data=[39, 95]),
   midi.NoteOnEvent(tick=0, channel=0, data=[39, 95]),
   midi.NoteOffEvent(tick=480, channel=0, data=[39, 95]),
   midi.NoteOnEvent(tick=0, channel=0, data=[39, 95]),
   midi.NoteOffEvent(tick=480, channel=0, data=[39, 95]),
   midi.NoteOnEvent(tick=0, channel=1, data=[52, 95]),
   midi.NoteOnEvent(tick=0, channel=1, data=[45, 95]),
   midi.PitchWheelEvent(tick=120, channel=1, data=[0, 63]),
   midi.PitchWheelEvent(tick=0, channel=1, data=[0, 63]),
   midi.PitchWheelEvent(tick=120, channel=1, data=[0, 62]),
   midi.PitchWheelEvent(tick=0, channel=1, data=[0, 62]),
   midi.PitchWheelEvent(tick=120, channel=1, data=[0, 60]),
   midi.PitchWheelEvent(tick=0, channel=1, data=[0, 60]),
   midi.PitchWheelEvent(tick=120, channel=1, data=[0, 59]),
   midi.PitchWheelEvent(tick=0, channel=1, data=[0, 64]),
   midi.NoteOffEvent(tick=0, channel=1, data=[52, 95]),
   midi.PitchWheelEvent(tick=0, channel=1, data=[0, 59]),
   midi.PitchWheelEvent(tick=0, channel=1, data=[0, 64]),
   midi.NoteOffEvent(tick=0, channel=1, data=[45, 95]),
   midi.NoteOnEvent(tick=0, channel=0, data=[51, 95]),
   midi.NoteOnEvent(tick=0, channel=0, data=[44, 95]),
   midi.NoteOffEvent(tick=480, channel=0, data=[51, 95]),
   midi.NoteOffEvent(tick=0, channel=0, data=[44, 95]),
   midi.NoteOnEvent(tick=0, channel=0, data=[39, 95]),
   midi.NoteOffEvent(tick=480, channel=0, data=[39, 95]),
   midi.NoteOnEvent(tick=0, channel=0, data=[39, 95]),
   midi.NoteOffEvent(tick=480, channel=0, data=[39, 95]),
   midi.NoteOnEvent(tick=0, channel=0, data=[39, 95]),
   midi.NoteOffEvent(tick=480, channel=0, data=[39, 95]),
   midi.NoteOnEvent(tick=0, channel=0, data=[39, 95]),
   midi.NoteOffEvent(tick=480, channel=0, data=[39, 95]),
   midi.NoteOnEvent(tick=0, channel=0, data=[39, 95]),
   midi.NoteOffEvent(tick=480, channel=0, data=[39, 95]),
   midi.NoteOnEvent(tick=0, channel=0, data=[39, 95]),
   midi.NoteOffEvent(tick=480, channel=0, data=[39, 95]),
   midi.NoteOnEvent(tick=0, channel=0, data=[39, 95]),
   midi.NoteOffEvent(tick=480, channel=0, data=[39, 95]),
   midi.NoteOnEvent(tick=0, channel=0, data=[39, 95]),
   midi.NoteOffEvent(tick=480, channel=0, data=[39, 95]),
   midi.NoteOnEvent(tick=0, channel=0, data=[52, 95]),
   midi.NoteOnEvent(tick=0, channel=0, data=[45, 95]),
   midi.NoteOffEvent(tick=960, channel=0, data=[52, 95]),
   midi.NoteOffEvent(tick=0, channel=0, data=[45, 95]),
   midi.NoteOnEvent(tick=0, channel=0, data=[39, 95]),
   midi.NoteOffEvent(tick=480, channel=0, data=[39, 95]),
   midi.NoteOnEvent(tick=0, channel=0, data=[39, 95]),
   midi.NoteOffEvent(tick=480, channel=0, data=[39, 95]),
   midi.NoteOnEvent(tick=0, channel=0, data=[39, 95]),
   midi.NoteOffEvent(tick=480, channel=0, data=[39, 95]),
   midi.NoteOnEvent(tick=0, channel=0, data=[39, 95]),
   midi.NoteOffEvent(tick=480, channel=0, data=[39, 95]),
   midi.NoteOnEvent(tick=0, channel=0, data=[45, 95]),
   midi.NoteOffEvent(tick=480, channel=0, data=[45, 95]),
   midi.NoteOnEvent(tick=0, channel=0, data=[44, 95]),
   midi.NoteOffEvent(tick=480, channel=0, data=[44, 95]),
   midi.NoteOnEvent(tick=0, channel=0, data=[39, 95]),
   midi.NoteOffEvent(tick=480, channel=0, data=[39, 95]),
   midi.NoteOnEvent(tick=0, channel=0, data=[39, 95]),
   midi.NoteOffEvent(tick=480, channel=0, data=[39, 95]),
   midi.NoteOnEvent(tick=0, channel=0, data=[39, 95]),
   midi.NoteOffEvent(tick=480, channel=0, data=[39, 95]),
   midi.NoteOnEvent(tick=0, channel=0, data=[39, 95]),
   midi.NoteOffEvent(tick=480, channel=0, data=[39, 95]),
   midi.NoteOnEvent(tick=0, channel=0, data=[40, 95]),
   midi.NoteOffEvent(tick=480, channel=0, data=[40, 95]),
   midi.NoteOnEvent(tick=0, channel=0, data=[43, 95]),
   midi.NoteOffEvent(tick=480, channel=0, data=[43, 95]),
   midi.NoteOnEvent(tick=0, channel=0, data=[42, 95]),
   midi.NoteOffEvent(tick=480, channel=0, data=[42, 95]),
   midi.NoteOnEvent(tick=0, channel=0, data=[41, 95]),
   midi.NoteOffEvent(tick=480, channel=0, data=[41, 95]),
   midi.NoteOnEvent(tick=0, channel=0, data=[40, 95]),
   midi.NoteOffEvent(tick=480, channel=0, data=[40, 95]),
   midi.NoteOnEvent(tick=0, channel=0, data=[39, 95]),
   midi.NoteOffEvent(tick=480, channel=0, data=[39, 95]),
   midi.NoteOnEvent(tick=0, channel=0, data=[39, 95]),
   midi.NoteOffEvent(tick=480, channel=0, data=[39, 95]),
   midi.NoteOnEvent(tick=0, channel=0, data=[39, 95]),
   midi.NoteOffEvent(tick=480, channel=0, data=[39, 95]),
   midi.NoteOnEvent(tick=0, channel=0, data=[39, 95]),
   midi.NoteOffEvent(tick=480, channel=0, data=[39, 95]),
   midi.NoteOnEvent(tick=0, channel=0, data=[39, 95]),
   midi.NoteOffEvent(tick=480, channel=0, data=[39, 95]),
   midi.NoteOnEvent(tick=0, channel=1, data=[52, 95]),
   midi.NoteOnEvent(tick=0, channel=1, data=[45, 95]),
   midi.PitchWheelEvent(tick=120, channel=1, data=[0, 63]),
   midi.PitchWheelEvent(tick=0, channel=1, data=[0, 63]),
   midi.PitchWheelEvent(tick=120, channel=1, data=[0, 62]),
   midi.PitchWheelEvent(tick=0, channel=1, data=[0, 62]),
   midi.PitchWheelEvent(tick=120, channel=1, data=[0, 60]),
   midi.PitchWheelEvent(tick=0, channel=1, data=[0, 60]),
   midi.PitchWheelEvent(tick=120, channel=1, data=[0, 59]),
   midi.PitchWheelEvent(tick=0, channel=1, data=[0, 64]),
   midi.NoteOffEvent(tick=0, channel=1, data=[52, 95]),
   midi.PitchWheelEvent(tick=0, channel=1, data=[0, 59]),
   midi.PitchWheelEvent(tick=0, channel=1, data=[0, 64]),
   midi.NoteOffEvent(tick=0, channel=1, data=[45, 95]),
   midi.NoteOnEvent(tick=0, channel=0, data=[51, 95]),
   midi.NoteOnEvent(tick=0, channel=0, data=[44, 95]),
   midi.NoteOffEvent(tick=480, channel=0, data=[51, 95]),
   midi.NoteOffEvent(tick=0, channel=0, data=[44, 95]),
   midi.NoteOnEvent(tick=0, channel=0, data=[39, 95]),
   midi.NoteOffEvent(tick=480, channel=0, data=[39, 95]),
   midi.NoteOnEvent(tick=0, channel=0, data=[39, 95]),
   midi.NoteOffEvent(tick=480, channel=0, data=[39, 95]),
   midi.NoteOnEvent(tick=0, channel=0, data=[39, 95]),
   midi.NoteOffEvent(tick=480, channel=0, data=[39, 95]),
   midi.NoteOnEvent(tick=0, channel=0, data=[39, 95]),
   midi.NoteOffEvent(tick=480, channel=0, data=[39, 95]),
   midi.NoteOnEvent(tick=0, channel=0, data=[39, 95]),
   midi.NoteOffEvent(tick=480, channel=0, data=[39, 95]),
   midi.NoteOnEvent(tick=0, channel=0, data=[39, 95]),
   midi.NoteOffEvent(tick=480, channel=0, data=[39, 95]),
   midi.NoteOnEvent(tick=0, channel=0, data=[39, 95]),
   midi.NoteOffEvent(tick=480, channel=0, data=[39, 95]),
   midi.NoteOnEvent(tick=0, channel=0, data=[39, 95]),
   midi.NoteOffEvent(tick=480, channel=0, data=[39, 95]),
   midi.NoteOnEvent(tick=0, channel=0, data=[52, 95]),
   midi.NoteOnEvent(tick=0, channel=0, data=[45, 95]),
   midi.NoteOffEvent(tick=960, channel=0, data=[52, 95]),
   midi.NoteOffEvent(tick=0, channel=0, data=[45, 95]),
   midi.NoteOnEvent(tick=0, channel=0, data=[39, 95]),
   midi.NoteOffEvent(tick=480, channel=0, data=[39, 95]),
   midi.NoteOnEvent(tick=0, channel=0, data=[39, 95]),
   midi.NoteOffEvent(tick=480, channel=0, data=[39, 95]),
   midi.NoteOnEvent(tick=0, channel=0, data=[39, 95]),
   midi.NoteOffEvent(tick=480, channel=0, data=[39, 95]),
   midi.NoteOnEvent(tick=0, channel=0, data=[39, 95]),
   midi.NoteOffEvent(tick=480, channel=0, data=[39, 95]),
   midi.NoteOnEvent(tick=0, channel=0, data=[45, 95]),
   midi.NoteOffEvent(tick=480, channel=0, data=[45, 95]),
   midi.NoteOnEvent(tick=0, channel=0, data=[44, 95]),
   midi.NoteOffEvent(tick=480, channel=0, data=[44, 95]),
   midi.NoteOnEvent(tick=0, channel=0, data=[39, 95]),
   midi.NoteOffEvent(tick=480, channel=0, data=[39, 95]),
   midi.NoteOnEvent(tick=0, channel=0, data=[39, 95]),
   midi.NoteOffEvent(tick=480, channel=0, data=[39, 95]),
   midi.NoteOnEvent(tick=0, channel=0, data=[39, 95]),
   midi.NoteOffEvent(tick=480, channel=0, data=[39, 95]),
   midi.NoteOnEvent(tick=0, channel=0, data=[39, 95]),
   midi.NoteOffEvent(tick=480, channel=0, data=[39, 95]),
   midi.NoteOnEvent(tick=0, channel=0, data=[40, 95]),
   midi.NoteOffEvent(tick=480, channel=0, data=[40, 95]),
   midi.NoteOnEvent(tick=0, channel=0, data=[43, 95]),
   midi.NoteOffEvent(tick=480, channel=0, data=[43, 95]),
   midi.NoteOnEvent(tick=0, channel=0, data=[42, 95]),
   midi.NoteOffEvent(tick=480, channel=0, data=[42, 95]),
   midi.NoteOnEvent(tick=0, channel=0, data=[41, 95]),
   midi.NoteOffEvent(tick=480, channel=0, data=[41, 95]),
   midi.NoteOnEvent(tick=0, channel=0, data=[40, 95]),
   midi.NoteOffEvent(tick=480, channel=0, data=[40, 95]),
   midi.NoteOnEvent(tick=0, channel=0, data=[39, 95]),
   midi.NoteOffEvent(tick=480, channel=0, data=[39, 95]),
   midi.NoteOnEvent(tick=0, channel=0, data=[39, 95]),
   midi.NoteOffEvent(tick=480, channel=0, data=[39, 95]),
   midi.NoteOnEvent(tick=0, channel=0, data=[39, 95]),
   midi.NoteOffEvent(tick=480, channel=0, data=[39, 95]),
   midi.NoteOnEvent(tick=0, channel=0, data=[39, 95]),
   midi.NoteOffEvent(tick=480, channel=0, data=[39, 95]),
   midi.NoteOnEvent(tick=0, channel=0, data=[39, 95]),
   midi.NoteOffEvent(tick=480, channel=0, data=[39, 95]),
   midi.NoteOnEvent(tick=0, channel=1, data=[56, 95]),
   midi.NoteOnEvent(tick=0, channel=1, data=[49, 95]),
   midi.PitchWheelEvent(tick=120, channel=1, data=[0, 63]),
   midi.PitchWheelEvent(tick=0, channel=1, data=[0, 63]),
   midi.PitchWheelEvent(tick=120, channel=1, data=[0, 62]),
   midi.PitchWheelEvent(tick=0, channel=1, data=[0, 62]),
   midi.PitchWheelEvent(tick=120, channel=1, data=[0, 60]),
   midi.PitchWheelEvent(tick=0, channel=1, data=[0, 60]),
   midi.PitchWheelEvent(tick=120, channel=1, data=[0, 59]),
   midi.PitchWheelEvent(tick=0, channel=1, data=[0, 64]),
   midi.NoteOffEvent(tick=0, channel=1, data=[56, 95]),
   midi.PitchWheelEvent(tick=0, channel=1, data=[0, 59]),
   midi.PitchWheelEvent(tick=0, channel=1, data=[0, 64]),
   midi.NoteOffEvent(tick=0, channel=1, data=[49, 95]),
   midi.NoteOnEvent(tick=0, channel=0, data=[55, 95]),
   midi.NoteOnEvent(tick=0, channel=0, data=[48, 95]),
   midi.NoteOffEvent(tick=480, channel=0, data=[55, 95]),
   midi.NoteOffEvent(tick=0, channel=0, data=[48, 95]),
   midi.NoteOnEvent(tick=0, channel=0, data=[39, 95]),
   midi.NoteOffEvent(tick=480, channel=0, data=[39, 95]),
   midi.NoteOnEvent(tick=0, channel=0, data=[39, 95]),
   midi.NoteOffEvent(tick=480, channel=0, data=[39, 95]),
   midi.NoteOnEvent(tick=0, channel=0, data=[39, 95]),
   midi.NoteOffEvent(tick=480, channel=0, data=[39, 95]),
   midi.NoteOnEvent(tick=0, channel=0, data=[39, 95]),
   midi.NoteOffEvent(tick=480, channel=0, data=[39, 95]),
   midi.NoteOnEvent(tick=0, channel=0, data=[39, 95]),
   midi.NoteOffEvent(tick=480, channel=0, data=[39, 95]),
   midi.NoteOnEvent(tick=0, channel=0, data=[39, 95]),
   midi.NoteOffEvent(tick=480, channel=0, data=[39, 95]),
   midi.NoteOnEvent(tick=0, channel=0, data=[39, 95]),
   midi.NoteOffEvent(tick=480, channel=0, data=[39, 95]),
   midi.NoteOnEvent(tick=0, channel=0, data=[39, 95]),
   midi.NoteOffEvent(tick=480, channel=0, data=[39, 95]),
   midi.NoteOnEvent(tick=0, channel=0, data=[56, 95]),
   midi.NoteOnEvent(tick=0, channel=0, data=[49, 95]),
   midi.NoteOffEvent(tick=960, channel=0, data=[56, 95]),
   midi.NoteOffEvent(tick=0, channel=0, data=[49, 95]),
   midi.NoteOnEvent(tick=0, channel=0, data=[39, 95]),
   midi.NoteOffEvent(tick=480, channel=0, data=[39, 95]),
   midi.NoteOnEvent(tick=0, channel=0, data=[39, 95]),
   midi.NoteOffEvent(tick=480, channel=0, data=[39, 95]),
   midi.NoteOnEvent(tick=0, channel=0, data=[39, 95]),
   midi.NoteOffEvent(tick=480, channel=0, data=[39, 95]),
   midi.NoteOnEvent(tick=0, channel=0, data=[39, 95]),
   midi.NoteOffEvent(tick=480, channel=0, data=[39, 95]),
   midi.NoteOnEvent(tick=0, channel=1, data=[56, 95]),
   midi.NoteOnEvent(tick=0, channel=1, data=[49, 95]),
   midi.PitchWheelEvent(tick=120, channel=1, data=[0, 63]),
   midi.PitchWheelEvent(tick=0, channel=1, data=[0, 63]),
   midi.PitchWheelEvent(tick=120, channel=1, data=[0, 62]),
   midi.PitchWheelEvent(tick=0, channel=1, data=[0, 62]),
   midi.PitchWheelEvent(tick=120, channel=1, data=[0, 60]),
   midi.PitchWheelEvent(tick=0, channel=1, data=[0, 60]),
   midi.PitchWheelEvent(tick=120, channel=1, data=[0, 59]),
   midi.PitchWheelEvent(tick=0, channel=1, data=[0, 64]),
   midi.NoteOffEvent(tick=0, channel=1, data=[56, 95]),
   midi.PitchWheelEvent(tick=0, channel=1, data=[0, 59]),
   midi.PitchWheelEvent(tick=0, channel=1, data=[0, 64]),
   midi.NoteOffEvent(tick=0, channel=1, data=[49, 95]),
   midi.NoteOnEvent(tick=0, channel=0, data=[55, 95]),
   midi.NoteOnEvent(tick=0, channel=0, data=[48, 95]),
   midi.NoteOffEvent(tick=480, channel=0, data=[55, 95]),
   midi.NoteOffEvent(tick=0, channel=0, data=[48, 95]),
   midi.NoteOnEvent(tick=0, channel=0, data=[39, 95]),
   midi.NoteOffEvent(tick=480, channel=0, data=[39, 95]),
   midi.NoteOnEvent(tick=0, channel=0, data=[39, 95]),
   midi.NoteOffEvent(tick=480, channel=0, data=[39, 95]),
   midi.NoteOnEvent(tick=0, channel=0, data=[39, 95]),
   midi.NoteOffEvent(tick=480, channel=0, data=[39, 95]),
   midi.NoteOnEvent(tick=0, channel=0, data=[39, 95]),
   midi.NoteOffEvent(tick=480, channel=0, data=[39, 95]),
   midi.NoteOnEvent(tick=0, channel=0, data=[43, 95]),
   midi.NoteOffEvent(tick=480, channel=0, data=[43, 95]),
   midi.NoteOnEvent(tick=0, channel=0, data=[44, 95]),
   midi.NoteOffEvent(tick=480, channel=0, data=[44, 95]),
   midi.NoteOnEvent(tick=0, channel=0, data=[47, 95]),
   midi.NoteOffEvent(tick=480, channel=0, data=[47, 95]),
   midi.NoteOnEvent(tick=0, channel=0, data=[46, 95]),
   midi.NoteOffEvent(tick=480, channel=0, data=[46, 95]),
   midi.NoteOnEvent(tick=0, channel=0, data=[45, 95]),
   midi.NoteOffEvent(tick=480, channel=0, data=[45, 95]),
   midi.NoteOnEvent(tick=0, channel=0, data=[44, 95]),
   midi.NoteOffEvent(tick=480, channel=0, data=[44, 95]),
   midi.NoteOnEvent(tick=0, channel=0, data=[39, 95]),
   midi.NoteOffEvent(tick=480, channel=0, data=[39, 95]),
   midi.NoteOnEvent(tick=0, channel=0, data=[39, 95]),
   midi.NoteOffEvent(tick=480, channel=0, data=[39, 95]),
   midi.NoteOnEvent(tick=0, channel=0, data=[39, 95]),
   midi.NoteOffEvent(tick=480, channel=0, data=[39, 95]),
   midi.NoteOnEvent(tick=0, channel=0, data=[39, 95]),
   midi.NoteOffEvent(tick=480, channel=0, data=[39, 95]),
   midi.NoteOnEvent(tick=0, channel=1, data=[56, 95]),
   midi.NoteOnEvent(tick=0, channel=1, data=[49, 95]),
   midi.PitchWheelEvent(tick=120, channel=1, data=[0, 63]),
   midi.PitchWheelEvent(tick=0, channel=1, data=[0, 63]),
   midi.PitchWheelEvent(tick=120, channel=1, data=[0, 62]),
   midi.PitchWheelEvent(tick=0, channel=1, data=[0, 62]),
   midi.PitchWheelEvent(tick=120, channel=1, data=[0, 60]),
   midi.PitchWheelEvent(tick=0, channel=1, data=[0, 60]),
   midi.PitchWheelEvent(tick=120, channel=1, data=[0, 59]),
   midi.PitchWheelEvent(tick=0, channel=1, data=[0, 64]),
   midi.NoteOffEvent(tick=0, channel=1, data=[56, 95]),
   midi.PitchWheelEvent(tick=0, channel=1, data=[0, 59]),
   midi.PitchWheelEvent(tick=0, channel=1, data=[0, 64]),
   midi.NoteOffEvent(tick=0, channel=1, data=[49, 95]),
   midi.NoteOnEvent(tick=0, channel=0, data=[55, 95]),
   midi.NoteOnEvent(tick=0, channel=0, data=[48, 95]),
   midi.NoteOffEvent(tick=480, channel=0, data=[55, 95]),
   midi.NoteOffEvent(tick=0, channel=0, data=[48, 95]),
   midi.NoteOnEvent(tick=0, channel=0, data=[39, 95]),
   midi.NoteOffEvent(tick=480, channel=0, data=[39, 95]),
   midi.NoteOnEvent(tick=0, channel=0, data=[39, 95]),
   midi.NoteOffEvent(tick=480, channel=0, data=[39, 95]),
   midi.NoteOnEvent(tick=0, channel=0, data=[39, 95]),
   midi.NoteOffEvent(tick=480, channel=0, data=[39, 95]),
   midi.NoteOnEvent(tick=0, channel=0, data=[39, 95]),
   midi.NoteOffEvent(tick=480, channel=0, data=[39, 95]),
   midi.NoteOnEvent(tick=0, channel=0, data=[39, 95]),
   midi.NoteOffEvent(tick=480, channel=0, data=[39, 95]),
   midi.NoteOnEvent(tick=0, channel=0, data=[39, 95]),
   midi.NoteOffEvent(tick=480, channel=0, data=[39, 95]),
   midi.NoteOnEvent(tick=0, channel=0, data=[39, 95]),
   midi.NoteOffEvent(tick=480, channel=0, data=[39, 95]),
   midi.NoteOnEvent(tick=0, channel=0, data=[39, 95]),
   midi.NoteOffEvent(tick=480, channel=0, data=[39, 95]),
   midi.NoteOnEvent(tick=0, channel=0, data=[56, 95]),
   midi.NoteOnEvent(tick=0, channel=0, data=[49, 95]),
   midi.NoteOffEvent(tick=960, channel=0, data=[56, 95]),
   midi.NoteOffEvent(tick=0, channel=0, data=[49, 95]),
   midi.NoteOnEvent(tick=0, channel=0, data=[39, 95]),
   midi.NoteOffEvent(tick=480, channel=0, data=[39, 95]),
   midi.NoteOnEvent(tick=0, channel=0, data=[39, 95]),
   midi.NoteOffEvent(tick=480, channel=0, data=[39, 95]),
   midi.NoteOnEvent(tick=0, channel=0, data=[39, 95]),
   midi.NoteOffEvent(tick=480, channel=0, data=[39, 95]),
   midi.NoteOnEvent(tick=0, channel=0, data=[39, 95]),
   midi.NoteOffEvent(tick=480, channel=0, data=[39, 95]),
   midi.NoteOnEvent(tick=0, channel=1, data=[56, 95]),
   midi.NoteOnEvent(tick=0, channel=1, data=[49, 95]),
   midi.PitchWheelEvent(tick=120, channel=1, data=[0, 63]),
   midi.PitchWheelEvent(tick=0, channel=1, data=[0, 63]),
   midi.PitchWheelEvent(tick=120, channel=1, data=[0, 62]),
   midi.PitchWheelEvent(tick=0, channel=1, data=[0, 62]),
   midi.PitchWheelEvent(tick=120, channel=1, data=[0, 60]),
   midi.PitchWheelEvent(tick=0, channel=1, data=[0, 60]),
   midi.PitchWheelEvent(tick=120, channel=1, data=[0, 59]),
   midi.PitchWheelEvent(tick=0, channel=1, data=[0, 64]),
   midi.NoteOffEvent(tick=0, channel=1, data=[56, 95]),
   midi.PitchWheelEvent(tick=0, channel=1, data=[0, 59]),
   midi.PitchWheelEvent(tick=0, channel=1, data=[0, 64]),
   midi.NoteOffEvent(tick=0, channel=1, data=[49, 95]),
   midi.NoteOnEvent(tick=0, channel=0, data=[55, 95]),
   midi.NoteOnEvent(tick=0, channel=0, data=[48, 95]),
   midi.NoteOffEvent(tick=480, channel=0, data=[55, 95]),
   midi.NoteOffEvent(tick=0, channel=0, data=[48, 95]),
   midi.NoteOnEvent(tick=0, channel=0, data=[39, 95]),
   midi.NoteOffEvent(tick=480, channel=0, data=[39, 95]),
   midi.NoteOnEvent(tick=0, channel=0, data=[39, 95]),
   midi.NoteOffEvent(tick=480, channel=0, data=[39, 95]),
   midi.NoteOnEvent(tick=0, channel=0, data=[39, 95]),
   midi.NoteOffEvent(tick=480, channel=0, data=[39, 95]),
   midi.NoteOnEvent(tick=0, channel=0, data=[39, 95]),
   midi.NoteOffEvent(tick=480, channel=0, data=[39, 95]),
   midi.NoteOnEvent(tick=0, channel=0, data=[43, 95]),
   midi.NoteOffEvent(tick=480, channel=0, data=[43, 95]),
   midi.NoteOnEvent(tick=0, channel=0, data=[44, 95]),
   midi.NoteOffEvent(tick=480, channel=0, data=[44, 95]),
   midi.NoteOnEvent(tick=0, channel=0, data=[47, 95]),
   midi.NoteOffEvent(tick=480, channel=0, data=[47, 95]),
   midi.NoteOnEvent(tick=0, channel=0, data=[46, 95]),
   midi.NoteOffEvent(tick=480, channel=0, data=[46, 95]),
   midi.NoteOnEvent(tick=0, channel=0, data=[45, 95]),
   midi.NoteOffEvent(tick=480, channel=0, data=[45, 95]),
   midi.NoteOnEvent(tick=0, channel=0, data=[44, 95]),
   midi.NoteOffEvent(tick=480, channel=0, data=[44, 95]),
   midi.NoteOnEvent(tick=0, channel=0, data=[39, 95]),
   midi.NoteOffEvent(tick=480, channel=0, data=[39, 95]),
   midi.NoteOnEvent(tick=0, channel=0, data=[39, 95]),
   midi.NoteOffEvent(tick=480, channel=0, data=[39, 95]),
   midi.NoteOnEvent(tick=0, channel=0, data=[39, 95]),
   midi.NoteOffEvent(tick=480, channel=0, data=[39, 95]),
   midi.NoteOnEvent(tick=0, channel=0, data=[39, 95]),
   midi.NoteOffEvent(tick=480, channel=0, data=[39, 95]),
   midi.NoteOnEvent(tick=0, channel=1, data=[56, 95]),
   midi.NoteOnEvent(tick=0, channel=1, data=[49, 95]),
   midi.PitchWheelEvent(tick=120, channel=1, data=[0, 63]),
   midi.PitchWheelEvent(tick=0, channel=1, data=[0, 63]),
   midi.PitchWheelEvent(tick=120, channel=1, data=[0, 62]),
   midi.PitchWheelEvent(tick=0, channel=1, data=[0, 62]),
   midi.PitchWheelEvent(tick=120, channel=1, data=[0, 60]),
   midi.PitchWheelEvent(tick=0, channel=1, data=[0, 60]),
   midi.PitchWheelEvent(tick=120, channel=1, data=[0, 59]),
   midi.PitchWheelEvent(tick=0, channel=1, data=[0, 64]),
   midi.NoteOffEvent(tick=0, channel=1, data=[56, 95]),
   midi.PitchWheelEvent(tick=0, channel=1, data=[0, 59]),
   midi.PitchWheelEvent(tick=0, channel=1, data=[0, 64]),
   midi.NoteOffEvent(tick=0, channel=1, data=[49, 95]),
   midi.NoteOnEvent(tick=0, channel=0, data=[55, 95]),
   midi.NoteOnEvent(tick=0, channel=0, data=[48, 95]),
   midi.NoteOffEvent(tick=480, channel=0, data=[55, 95]),
   midi.NoteOffEvent(tick=0, channel=0, data=[48, 95]),
   midi.NoteOnEvent(tick=0, channel=0, data=[39, 95]),
   midi.NoteOffEvent(tick=480, channel=0, data=[39, 95]),
   midi.NoteOnEvent(tick=0, channel=0, data=[39, 95]),
   midi.NoteOffEvent(tick=480, channel=0, data=[39, 95]),
   midi.NoteOnEvent(tick=0, channel=0, data=[39, 95]),
   midi.NoteOffEvent(tick=480, channel=0, data=[39, 95]),
   midi.NoteOnEvent(tick=0, channel=0, data=[39, 95]),
   midi.NoteOffEvent(tick=480, channel=0, data=[39, 95]),
   midi.NoteOnEvent(tick=0, channel=0, data=[39, 95]),
   midi.NoteOffEvent(tick=480, channel=0, data=[39, 95]),
   midi.NoteOnEvent(tick=0, channel=0, data=[39, 95]),
   midi.NoteOffEvent(tick=480, channel=0, data=[39, 95]),
   midi.NoteOnEvent(tick=0, channel=0, data=[39, 95]),
   midi.NoteOffEvent(tick=480, channel=0, data=[39, 95]),
   midi.NoteOnEvent(tick=0, channel=0, data=[39, 95]),
   midi.NoteOffEvent(tick=480, channel=0, data=[39, 95]),
   midi.NoteOnEvent(tick=0, channel=0, data=[56, 95]),
   midi.NoteOnEvent(tick=0, channel=0, data=[49, 95]),
   midi.NoteOffEvent(tick=960, channel=0, data=[56, 95]),
   midi.NoteOffEvent(tick=0, channel=0, data=[49, 95]),
   midi.NoteOnEvent(tick=0, channel=0, data=[39, 95]),
   midi.NoteOffEvent(tick=480, channel=0, data=[39, 95]),
   midi.NoteOnEvent(tick=0, channel=0, data=[39, 95]),
   midi.NoteOffEvent(tick=480, channel=0, data=[39, 95]),
   midi.NoteOnEvent(tick=0, channel=0, data=[39, 95]),
   midi.NoteOffEvent(tick=480, channel=0, data=[39, 95]),
   midi.NoteOnEvent(tick=0, channel=0, data=[39, 95]),
   midi.NoteOffEvent(tick=480, channel=0, data=[39, 95]),
   midi.NoteOnEvent(tick=0, channel=1, data=[56, 95]),
   midi.NoteOnEvent(tick=0, channel=1, data=[49, 95]),
   midi.PitchWheelEvent(tick=120, channel=1, data=[0, 63]),
   midi.PitchWheelEvent(tick=0, channel=1, data=[0, 63]),
   midi.PitchWheelEvent(tick=120, channel=1, data=[0, 62]),
   midi.PitchWheelEvent(tick=0, channel=1, data=[0, 62]),
   midi.PitchWheelEvent(tick=120, channel=1, data=[0, 60]),
   midi.PitchWheelEvent(tick=0, channel=1, data=[0, 60]),
   midi.PitchWheelEvent(tick=120, channel=1, data=[0, 59]),
   midi.PitchWheelEvent(tick=0, channel=1, data=[0, 64]),
   midi.NoteOffEvent(tick=0, channel=1, data=[56, 95]),
   midi.PitchWheelEvent(tick=0, channel=1, data=[0, 59]),
   midi.PitchWheelEvent(tick=0, channel=1, data=[0, 64]),
   midi.NoteOffEvent(tick=0, channel=1, data=[49, 95]),
   midi.NoteOnEvent(tick=0, channel=0, data=[55, 95]),
   midi.NoteOnEvent(tick=0, channel=0, data=[48, 95]),
   midi.NoteOffEvent(tick=480, channel=0, data=[55, 95]),
   midi.NoteOffEvent(tick=0, channel=0, data=[48, 95]),
   midi.NoteOnEvent(tick=0, channel=0, data=[39, 95]),
   midi.NoteOffEvent(tick=480, channel=0, data=[39, 95]),
   midi.NoteOnEvent(tick=0, channel=0, data=[39, 95]),
   midi.NoteOffEvent(tick=480, channel=0, data=[39, 95]),
   midi.NoteOnEvent(tick=0, channel=0, data=[39, 95]),
   midi.NoteOffEvent(tick=480, channel=0, data=[39, 95]),
   midi.NoteOnEvent(tick=0, channel=0, data=[39, 95]),
   midi.NoteOffEvent(tick=480, channel=0, data=[39, 95]),
   midi.NoteOnEvent(tick=0, channel=0, data=[43, 95]),
   midi.NoteOffEvent(tick=480, channel=0, data=[43, 95]),
   midi.NoteOnEvent(tick=0, channel=0, data=[44, 95]),
   midi.NoteOffEvent(tick=480, channel=0, data=[44, 95]),
   midi.NoteOnEvent(tick=0, channel=0, data=[47, 95]),
   midi.NoteOffEvent(tick=480, channel=0, data=[47, 95]),
   midi.NoteOnEvent(tick=0, channel=0, data=[46, 95]),
   midi.NoteOffEvent(tick=480, channel=0, data=[46, 95]),
   midi.NoteOnEvent(tick=0, channel=0, data=[45, 95]),
   midi.NoteOffEvent(tick=480, channel=0, data=[45, 95]),
   midi.NoteOnEvent(tick=0, channel=0, data=[44, 95]),
   midi.NoteOffEvent(tick=480, channel=0, data=[44, 95]),
   midi.NoteOnEvent(tick=0, channel=0, data=[39, 95]),
   midi.NoteOffEvent(tick=480, channel=0, data=[39, 95]),
   midi.NoteOnEvent(tick=0, channel=0, data=[39, 95]),
   midi.NoteOffEvent(tick=480, channel=0, data=[39, 95]),
   midi.NoteOnEvent(tick=0, channel=0, data=[39, 95]),
   midi.NoteOffEvent(tick=480, channel=0, data=[39, 95]),
   midi.NoteOnEvent(tick=0, channel=0, data=[39, 95]),
   midi.NoteOffEvent(tick=480, channel=0, data=[39, 95]),
   midi.NoteOnEvent(tick=0, channel=1, data=[56, 95]),
   midi.NoteOnEvent(tick=0, channel=1, data=[49, 95]),
   midi.PitchWheelEvent(tick=120, channel=1, data=[0, 63]),
   midi.PitchWheelEvent(tick=0, channel=1, data=[0, 63]),
   midi.PitchWheelEvent(tick=120, channel=1, data=[0, 62]),
   midi.PitchWheelEvent(tick=0, channel=1, data=[0, 62]),
   midi.PitchWheelEvent(tick=120, channel=1, data=[0, 60]),
   midi.PitchWheelEvent(tick=0, channel=1, data=[0, 60]),
   midi.PitchWheelEvent(tick=120, channel=1, data=[0, 59]),
   midi.PitchWheelEvent(tick=0, channel=1, data=[0, 64]),
   midi.NoteOffEvent(tick=0, channel=1, data=[56, 95]),
   midi.PitchWheelEvent(tick=0, channel=1, data=[0, 59]),
   midi.PitchWheelEvent(tick=0, channel=1, data=[0, 64]),
   midi.NoteOffEvent(tick=0, channel=1, data=[49, 95]),
   midi.NoteOnEvent(tick=0, channel=0, data=[55, 95]),
   midi.NoteOnEvent(tick=0, channel=0, data=[48, 95]),
   midi.NoteOffEvent(tick=480, channel=0, data=[55, 95]),
   midi.NoteOffEvent(tick=0, channel=0, data=[48, 95]),
   midi.NoteOnEvent(tick=0, channel=0, data=[39, 95]),
   midi.NoteOffEvent(tick=480, channel=0, data=[39, 95]),
   midi.NoteOnEvent(tick=0, channel=0, data=[39, 95]),
   midi.NoteOffEvent(tick=480, channel=0, data=[39, 95]),
   midi.NoteOnEvent(tick=0, channel=0, data=[39, 95]),
   midi.NoteOffEvent(tick=480, channel=0, data=[39, 95]),
   midi.NoteOnEvent(tick=0, channel=0, data=[39, 95]),
   midi.NoteOffEvent(tick=480, channel=0, data=[39, 95]),
   midi.NoteOnEvent(tick=0, channel=0, data=[39, 95]),
   midi.NoteOffEvent(tick=480, channel=0, data=[39, 95]),
   midi.NoteOnEvent(tick=0, channel=0, data=[39, 95]),
   midi.NoteOffEvent(tick=480, channel=0, data=[39, 95]),
   midi.NoteOnEvent(tick=0, channel=0, data=[39, 95]),
   midi.NoteOffEvent(tick=480, channel=0, data=[39, 95]),
   midi.NoteOnEvent(tick=0, channel=0, data=[39, 95]),
   midi.NoteOffEvent(tick=480, channel=0, data=[39, 95]),
   midi.NoteOnEvent(tick=0, channel=0, data=[56, 95]),
   midi.NoteOnEvent(tick=0, channel=0, data=[49, 95]),
   midi.NoteOffEvent(tick=960, channel=0, data=[56, 95]),
   midi.NoteOffEvent(tick=0, channel=0, data=[49, 95]),
   midi.NoteOnEvent(tick=0, channel=0, data=[39, 95]),
   midi.NoteOffEvent(tick=480, channel=0, data=[39, 95]),
   midi.NoteOnEvent(tick=0, channel=0, data=[39, 95]),
   midi.NoteOffEvent(tick=480, channel=0, data=[39, 95]),
   midi.NoteOnEvent(tick=0, channel=0, data=[39, 95]),
   midi.NoteOffEvent(tick=480, channel=0, data=[39, 95]),
   midi.NoteOnEvent(tick=0, channel=0, data=[39, 95]),
   midi.NoteOffEvent(tick=480, channel=0, data=[39, 95]),
   midi.NoteOnEvent(tick=0, channel=1, data=[56, 95]),
   midi.NoteOnEvent(tick=0, channel=1, data=[49, 95]),
   midi.PitchWheelEvent(tick=120, channel=1, data=[0, 63]),
   midi.PitchWheelEvent(tick=0, channel=1, data=[0, 63]),
   midi.PitchWheelEvent(tick=120, channel=1, data=[0, 62]),
   midi.PitchWheelEvent(tick=0, channel=1, data=[0, 62]),
   midi.PitchWheelEvent(tick=120, channel=1, data=[0, 60]),
   midi.PitchWheelEvent(tick=0, channel=1, data=[0, 60]),
   midi.PitchWheelEvent(tick=120, channel=1, data=[0, 59]),
   midi.PitchWheelEvent(tick=0, channel=1, data=[0, 64]),
   midi.NoteOffEvent(tick=0, channel=1, data=[56, 95]),
   midi.PitchWheelEvent(tick=0, channel=1, data=[0, 59]),
   midi.PitchWheelEvent(tick=0, channel=1, data=[0, 64]),
   midi.NoteOffEvent(tick=0, channel=1, data=[49, 95]),
   midi.NoteOnEvent(tick=0, channel=0, data=[55, 95]),
   midi.NoteOnEvent(tick=0, channel=0, data=[48, 95]),
   midi.NoteOffEvent(tick=480, channel=0, data=[55, 95]),
   midi.NoteOffEvent(tick=0, channel=0, data=[48, 95]),
   midi.NoteOnEvent(tick=0, channel=0, data=[39, 95]),
   midi.NoteOffEvent(tick=480, channel=0, data=[39, 95]),
   midi.NoteOnEvent(tick=0, channel=0, data=[39, 95]),
   midi.NoteOffEvent(tick=480, channel=0, data=[39, 95]),
   midi.NoteOnEvent(tick=0, channel=0, data=[39, 95]),
   midi.NoteOffEvent(tick=480, channel=0, data=[39, 95]),
   midi.NoteOnEvent(tick=0, channel=0, data=[39, 95]),
   midi.NoteOffEvent(tick=480, channel=0, data=[39, 95]),
   midi.NoteOnEvent(tick=0, channel=0, data=[43, 95]),
   midi.NoteOffEvent(tick=480, channel=0, data=[43, 95]),
   midi.NoteOnEvent(tick=0, channel=0, data=[44, 95]),
   midi.NoteOffEvent(tick=480, channel=0, data=[44, 95]),
   midi.NoteOnEvent(tick=0, channel=0, data=[47, 95]),
   midi.NoteOffEvent(tick=480, channel=0, data=[47, 95]),
   midi.NoteOnEvent(tick=0, channel=0, data=[46, 95]),
   midi.NoteOffEvent(tick=480, channel=0, data=[46, 95]),
   midi.NoteOnEvent(tick=0, channel=0, data=[45, 95]),
   midi.NoteOffEvent(tick=480, channel=0, data=[45, 95]),
   midi.NoteOnEvent(tick=0, channel=0, data=[44, 95]),
   midi.NoteOffEvent(tick=480, channel=0, data=[44, 95]),
   midi.NoteOnEvent(tick=0, channel=0, data=[39, 95]),
   midi.NoteOffEvent(tick=480, channel=0, data=[39, 95]),
   midi.NoteOnEvent(tick=0, channel=0, data=[39, 95]),
   midi.NoteOffEvent(tick=480, channel=0, data=[39, 95]),
   midi.NoteOnEvent(tick=0, channel=0, data=[39, 95]),
   midi.NoteOffEvent(tick=480, channel=0, data=[39, 95]),
   midi.NoteOnEvent(tick=0, channel=0, data=[39, 95]),
   midi.NoteOffEvent(tick=480, channel=0, data=[39, 95]),
   midi.NoteOnEvent(tick=0, channel=0, data=[39, 95]),
   midi.NoteOffEvent(tick=480, channel=0, data=[39, 95]),
   midi.NoteOnEvent(tick=0, channel=0, data=[39, 95]),
   midi.NoteOffEvent(tick=480, channel=0, data=[39, 95]),
   midi.NoteOnEvent(tick=0, channel=0, data=[39, 95]),
   midi.NoteOffEvent(tick=480, channel=0, data=[39, 95]),
   midi.NoteOnEvent(tick=0, channel=0, data=[39, 95]),
   midi.NoteOffEvent(tick=480, channel=0, data=[39, 95]),
   midi.NoteOnEvent(tick=0, channel=0, data=[39, 95]),
   midi.NoteOffEvent(tick=240, channel=0, data=[39, 95]),
   midi.NoteOnEvent(tick=0, channel=0, data=[39, 95]),
   midi.NoteOffEvent(tick=240, channel=0, data=[39, 95]),
   midi.NoteOnEvent(tick=0, channel=0, data=[39, 95]),
   midi.NoteOffEvent(tick=480, channel=0, data=[39, 95]),
   midi.NoteOnEvent(tick=0, channel=0, data=[39, 95]),
   midi.NoteOffEvent(tick=480, channel=0, data=[39, 95]),
   midi.NoteOnEvent(tick=0, channel=0, data=[39, 95]),
   midi.NoteOffEvent(tick=240, channel=0, data=[39, 95]),
   midi.NoteOnEvent(tick=0, channel=0, data=[39, 95]),
   midi.NoteOffEvent(tick=240, channel=0, data=[39, 95]),
   midi.NoteOnEvent(tick=0, channel=0, data=[39, 95]),
   midi.NoteOffEvent(tick=480, channel=0, data=[39, 95]),
   midi.NoteOnEvent(tick=0, channel=0, data=[39, 95]),
   midi.NoteOffEvent(tick=480, channel=0, data=[39, 95]),
   midi.NoteOnEvent(tick=0, channel=0, data=[39, 95]),
   midi.NoteOffEvent(tick=240, channel=0, data=[39, 95]),
   midi.NoteOnEvent(tick=0, channel=0, data=[39, 95]),
   midi.NoteOffEvent(tick=240, channel=0, data=[39, 95]),
   midi.NoteOnEvent(tick=0, channel=0, data=[39, 95]),
   midi.NoteOffEvent(tick=480, channel=0, data=[39, 95]),
   midi.NoteOnEvent(tick=0, channel=0, data=[39, 95]),
   midi.NoteOffEvent(tick=480, channel=0, data=[39, 95]),
   midi.NoteOnEvent(tick=0, channel=0, data=[39, 95]),
   midi.NoteOffEvent(tick=480, channel=0, data=[39, 95]),
   midi.NoteOnEvent(tick=0, channel=0, data=[39, 95]),
   midi.NoteOffEvent(tick=480, channel=0, data=[39, 95]),
   midi.NoteOnEvent(tick=0, channel=0, data=[39, 95]),
   midi.NoteOffEvent(tick=480, channel=0, data=[39, 95]),
   midi.NoteOnEvent(tick=0, channel=0, data=[39, 95]),
   midi.NoteOffEvent(tick=480, channel=0, data=[39, 95]),
   midi.NoteOnEvent(tick=0, channel=0, data=[39, 95]),
   midi.NoteOffEvent(tick=480, channel=0, data=[39, 95]),
   midi.NoteOnEvent(tick=0, channel=0, data=[39, 95]),
   midi.NoteOffEvent(tick=480, channel=0, data=[39, 95]),
   midi.NoteOnEvent(tick=0, channel=0, data=[39, 95]),
   midi.NoteOffEvent(tick=480, channel=0, data=[39, 95]),
   midi.NoteOnEvent(tick=0, channel=0, data=[39, 95]),
   midi.NoteOffEvent(tick=240, channel=0, data=[39, 95]),
   midi.NoteOnEvent(tick=0, channel=0, data=[39, 95]),
   midi.NoteOffEvent(tick=240, channel=0, data=[39, 95]),
   midi.NoteOnEvent(tick=0, channel=0, data=[39, 95]),
   midi.NoteOffEvent(tick=480, channel=0, data=[39, 95]),
   midi.NoteOnEvent(tick=0, channel=0, data=[39, 95]),
   midi.NoteOffEvent(tick=480, channel=0, data=[39, 95]),
   midi.NoteOnEvent(tick=0, channel=0, data=[39, 95]),
   midi.NoteOffEvent(tick=240, channel=0, data=[39, 95]),
   midi.NoteOnEvent(tick=0, channel=0, data=[39, 95]),
   midi.NoteOffEvent(tick=240, channel=0, data=[39, 95]),
   midi.NoteOnEvent(tick=0, channel=0, data=[39, 95]),
   midi.NoteOffEvent(tick=480, channel=0, data=[39, 95]),
   midi.NoteOnEvent(tick=0, channel=0, data=[39, 95]),
   midi.NoteOffEvent(tick=480, channel=0, data=[39, 95]),
   midi.NoteOnEvent(tick=0, channel=0, data=[39, 95]),
   midi.NoteOffEvent(tick=240, channel=0, data=[39, 95]),
   midi.NoteOnEvent(tick=0, channel=0, data=[39, 95]),
   midi.NoteOffEvent(tick=240, channel=0, data=[39, 95]),
   midi.NoteOnEvent(tick=0, channel=0, data=[39, 95]),
   midi.NoteOffEvent(tick=480, channel=0, data=[39, 95]),
   midi.NoteOnEvent(tick=0, channel=0, data=[39, 95]),
   midi.NoteOffEvent(tick=480, channel=0, data=[39, 95]),
   midi.NoteOnEvent(tick=0, channel=0, data=[39, 95]),
   midi.NoteOffEvent(tick=480, channel=0, data=[39, 95]),
   midi.NoteOnEvent(tick=0, channel=0, data=[39, 95]),
   midi.NoteOffEvent(tick=480, channel=0, data=[39, 95]),
   midi.NoteOnEvent(tick=0, channel=0, data=[39, 95]),
   midi.NoteOffEvent(tick=480, channel=0, data=[39, 95]),
   midi.NoteOnEvent(tick=0, channel=0, data=[39, 95]),
   midi.NoteOffEvent(tick=480, channel=0, data=[39, 95]),
   midi.NoteOnEvent(tick=0, channel=0, data=[39, 95]),
   midi.NoteOffEvent(tick=480, channel=0, data=[39, 95]),
   midi.NoteOnEvent(tick=0, channel=0, data=[39, 95]),
   midi.NoteOffEvent(tick=480, channel=0, data=[39, 95]),
   midi.NoteOnEvent(tick=0, channel=0, data=[39, 95]),
   midi.NoteOffEvent(tick=480, channel=0, data=[39, 95]),
   midi.NoteOnEvent(tick=0, channel=0, data=[39, 95]),
   midi.NoteOffEvent(tick=240, channel=0, data=[39, 95]),
   midi.NoteOnEvent(tick=0, channel=0, data=[39, 95]),
   midi.NoteOffEvent(tick=240, channel=0, data=[39, 95]),
   midi.NoteOnEvent(tick=0, channel=0, data=[39, 95]),
   midi.NoteOffEvent(tick=480, channel=0, data=[39, 95]),
   midi.NoteOnEvent(tick=0, channel=0, data=[39, 95]),
   midi.NoteOffEvent(tick=480, channel=0, data=[39, 95]),
   midi.NoteOnEvent(tick=0, channel=0, data=[39, 95]),
   midi.NoteOffEvent(tick=240, channel=0, data=[39, 95]),
   midi.NoteOnEvent(tick=0, channel=0, data=[39, 95]),
   midi.NoteOffEvent(tick=240, channel=0, data=[39, 95]),
   midi.NoteOnEvent(tick=0, channel=0, data=[39, 95]),
   midi.NoteOffEvent(tick=480, channel=0, data=[39, 95]),
   midi.NoteOnEvent(tick=0, channel=0, data=[39, 95]),
   midi.NoteOffEvent(tick=480, channel=0, data=[39, 95]),
   midi.NoteOnEvent(tick=0, channel=0, data=[39, 95]),
   midi.NoteOffEvent(tick=240, channel=0, data=[39, 95]),
   midi.NoteOnEvent(tick=0, channel=0, data=[39, 95]),
   midi.NoteOffEvent(tick=240, channel=0, data=[39, 95]),
   midi.NoteOnEvent(tick=0, channel=0, data=[39, 95]),
   midi.NoteOffEvent(tick=480, channel=0, data=[39, 95]),
   midi.NoteOnEvent(tick=0, channel=0, data=[39, 95]),
   midi.NoteOffEvent(tick=480, channel=0, data=[39, 95]),
   midi.NoteOnEvent(tick=0, channel=0, data=[39, 95]),
   midi.NoteOffEvent(tick=480, channel=0, data=[39, 95]),
   midi.NoteOnEvent(tick=0, channel=0, data=[39, 95]),
   midi.NoteOffEvent(tick=480, channel=0, data=[39, 95]),
   midi.NoteOnEvent(tick=0, channel=0, data=[39, 95]),
   midi.NoteOffEvent(tick=480, channel=0, data=[39, 95]),
   midi.NoteOnEvent(tick=0, channel=0, data=[39, 95]),
   midi.NoteOffEvent(tick=480, channel=0, data=[39, 95]),
   midi.NoteOnEvent(tick=0, channel=0, data=[39, 95]),
   midi.NoteOffEvent(tick=480, channel=0, data=[39, 95]),
   midi.NoteOnEvent(tick=0, channel=0, data=[39, 95]),
   midi.NoteOffEvent(tick=480, channel=0, data=[39, 95]),
   midi.NoteOnEvent(tick=0, channel=0, data=[39, 95]),
   midi.NoteOffEvent(tick=480, channel=0, data=[39, 95]),
   midi.NoteOnEvent(tick=0, channel=0, data=[39, 95]),
   midi.NoteOffEvent(tick=240, channel=0, data=[39, 95]),
   midi.NoteOnEvent(tick=0, channel=0, data=[39, 95]),
   midi.NoteOffEvent(tick=240, channel=0, data=[39, 95]),
   midi.NoteOnEvent(tick=0, channel=0, data=[39, 95]),
   midi.NoteOffEvent(tick=480, channel=0, data=[39, 95]),
   midi.NoteOnEvent(tick=0, channel=0, data=[39, 95]),
   midi.NoteOffEvent(tick=480, channel=0, data=[39, 95]),
   midi.NoteOnEvent(tick=0, channel=0, data=[39, 95]),
   midi.NoteOffEvent(tick=240, channel=0, data=[39, 95]),
   midi.NoteOnEvent(tick=0, channel=0, data=[39, 95]),
   midi.NoteOffEvent(tick=240, channel=0, data=[39, 95]),
   midi.NoteOnEvent(tick=0, channel=0, data=[39, 95]),
   midi.NoteOffEvent(tick=480, channel=0, data=[39, 95]),
   midi.NoteOnEvent(tick=0, channel=0, data=[39, 95]),
   midi.NoteOffEvent(tick=480, channel=0, data=[39, 95]),
   midi.NoteOnEvent(tick=0, channel=0, data=[39, 95]),
   midi.NoteOffEvent(tick=240, channel=0, data=[39, 95]),
   midi.NoteOnEvent(tick=0, channel=0, data=[39, 95]),
   midi.NoteOffEvent(tick=240, channel=0, data=[39, 95]),
   midi.NoteOnEvent(tick=0, channel=0, data=[39, 95]),
   midi.NoteOffEvent(tick=480, channel=0, data=[39, 95]),
   midi.NoteOnEvent(tick=0, channel=0, data=[39, 95]),
   midi.NoteOffEvent(tick=480, channel=0, data=[39, 95]),
   midi.NoteOnEvent(tick=0, channel=0, data=[39, 95]),
   midi.NoteOffEvent(tick=480, channel=0, data=[39, 95]),
   midi.NoteOnEvent(tick=0, channel=0, data=[39, 95]),
   midi.NoteOffEvent(tick=480, channel=0, data=[39, 95]),
   midi.NoteOnEvent(tick=0, channel=0, data=[39, 95]),
   midi.NoteOffEvent(tick=480, channel=0, data=[39, 95]),
   midi.NoteOnEvent(tick=0, channel=0, data=[39, 95]),
   midi.NoteOffEvent(tick=480, channel=0, data=[39, 95]),
   midi.NoteOnEvent(tick=0, channel=0, data=[39, 95]),
   midi.NoteOffEvent(tick=480, channel=0, data=[39, 95]),
   midi.NoteOnEvent(tick=0, channel=0, data=[39, 95]),
   midi.NoteOffEvent(tick=480, channel=0, data=[39, 95]),
   midi.NoteOnEvent(tick=0, channel=0, data=[39, 95]),
   midi.NoteOffEvent(tick=480, channel=0, data=[39, 95]),
   midi.NoteOnEvent(tick=0, channel=0, data=[39, 95]),
   midi.NoteOffEvent(tick=240, channel=0, data=[39, 95]),
   midi.NoteOnEvent(tick=0, channel=0, data=[39, 95]),
   midi.NoteOffEvent(tick=240, channel=0, data=[39, 95]),
   midi.NoteOnEvent(tick=0, channel=0, data=[39, 95]),
   midi.NoteOffEvent(tick=480, channel=0, data=[39, 95]),
   midi.NoteOnEvent(tick=0, channel=0, data=[39, 95]),
   midi.NoteOffEvent(tick=480, channel=0, data=[39, 95]),
   midi.NoteOnEvent(tick=0, channel=0, data=[39, 95]),
   midi.NoteOffEvent(tick=240, channel=0, data=[39, 95]),
   midi.NoteOnEvent(tick=0, channel=0, data=[39, 95]),
   midi.NoteOffEvent(tick=240, channel=0, data=[39, 95]),
   midi.NoteOnEvent(tick=0, channel=0, data=[39, 95]),
   midi.NoteOffEvent(tick=480, channel=0, data=[39, 95]),
   midi.NoteOnEvent(tick=0, channel=0, data=[39, 95]),
   midi.NoteOffEvent(tick=480, channel=0, data=[39, 95]),
   midi.NoteOnEvent(tick=0, channel=0, data=[39, 95]),
   midi.NoteOffEvent(tick=240, channel=0, data=[39, 95]),
   midi.NoteOnEvent(tick=0, channel=0, data=[39, 95]),
   midi.NoteOffEvent(tick=240, channel=0, data=[39, 95]),
   midi.NoteOnEvent(tick=0, channel=0, data=[39, 95]),
   midi.NoteOffEvent(tick=480, channel=0, data=[39, 95]),
   midi.NoteOnEvent(tick=0, channel=0, data=[39, 95]),
   midi.NoteOffEvent(tick=480, channel=0, data=[39, 95]),
   midi.NoteOnEvent(tick=0, channel=0, data=[39, 95]),
   midi.NoteOffEvent(tick=480, channel=0, data=[39, 95]),
   midi.NoteOnEvent(tick=0, channel=0, data=[39, 95]),
   midi.NoteOffEvent(tick=480, channel=0, data=[39, 95]),
   midi.NoteOnEvent(tick=0, channel=0, data=[39, 95]),
   midi.NoteOffEvent(tick=480, channel=0, data=[39, 95]),
   midi.NoteOnEvent(tick=0, channel=0, data=[39, 95]),
   midi.NoteOffEvent(tick=480, channel=0, data=[39, 95]),
   midi.NoteOnEvent(tick=0, channel=0, data=[39, 95]),
   midi.NoteOffEvent(tick=480, channel=0, data=[39, 95]),
   midi.NoteOnEvent(tick=0, channel=0, data=[39, 95]),
   midi.NoteOffEvent(tick=480, channel=0, data=[39, 95]),
   midi.NoteOnEvent(tick=0, channel=0, data=[39, 95]),
   midi.NoteOffEvent(tick=480, channel=0, data=[39, 95]),
   midi.NoteOnEvent(tick=0, channel=0, data=[39, 95]),
   midi.NoteOffEvent(tick=240, channel=0, data=[39, 95]),
   midi.NoteOnEvent(tick=0, channel=0, data=[39, 95]),
   midi.NoteOffEvent(tick=240, channel=0, data=[39, 95]),
   midi.NoteOnEvent(tick=0, channel=0, data=[39, 95]),
   midi.NoteOffEvent(tick=480, channel=0, data=[39, 95]),
   midi.NoteOnEvent(tick=0, channel=0, data=[39, 95]),
   midi.NoteOffEvent(tick=480, channel=0, data=[39, 95]),
   midi.NoteOnEvent(tick=0, channel=0, data=[39, 95]),
   midi.NoteOffEvent(tick=240, channel=0, data=[39, 95]),
   midi.NoteOnEvent(tick=0, channel=0, data=[39, 95]),
   midi.NoteOffEvent(tick=240, channel=0, data=[39, 95]),
   midi.NoteOnEvent(tick=0, channel=0, data=[39, 95]),
   midi.NoteOffEvent(tick=480, channel=0, data=[39, 95]),
   midi.NoteOnEvent(tick=0, channel=0, data=[39, 95]),
   midi.NoteOffEvent(tick=480, channel=0, data=[39, 95]),
   midi.NoteOnEvent(tick=0, channel=0, data=[39, 95]),
   midi.NoteOffEvent(tick=240, channel=0, data=[39, 95]),
   midi.NoteOnEvent(tick=0, channel=0, data=[39, 95]),
   midi.NoteOffEvent(tick=240, channel=0, data=[39, 95]),
   midi.NoteOnEvent(tick=0, channel=0, data=[39, 95]),
   midi.NoteOffEvent(tick=480, channel=0, data=[39, 95]),
   midi.NoteOnEvent(tick=0, channel=0, data=[39, 95]),
   midi.NoteOffEvent(tick=480, channel=0, data=[39, 95]),
   midi.NoteOnEvent(tick=0, channel=0, data=[39, 95]),
   midi.NoteOffEvent(tick=480, channel=0, data=[39, 95]),
   midi.NoteOnEvent(tick=0, channel=0, data=[39, 95]),
   midi.NoteOffEvent(tick=480, channel=0, data=[39, 95]),
   midi.NoteOnEvent(tick=0, channel=0, data=[39, 95]),
   midi.NoteOffEvent(tick=480, channel=0, data=[39, 95]),
   midi.NoteOnEvent(tick=0, channel=0, data=[39, 95]),
   midi.NoteOffEvent(tick=480, channel=0, data=[39, 95]),
   midi.NoteOnEvent(tick=0, channel=0, data=[39, 95]),
   midi.NoteOffEvent(tick=480, channel=0, data=[39, 95]),
   midi.NoteOnEvent(tick=0, channel=0, data=[39, 95]),
   midi.NoteOffEvent(tick=480, channel=0, data=[39, 95]),
   midi.NoteOnEvent(tick=0, channel=0, data=[39, 95]),
   midi.NoteOffEvent(tick=480, channel=0, data=[39, 95]),
   midi.NoteOnEvent(tick=0, channel=0, data=[39, 95]),
   midi.NoteOffEvent(tick=240, channel=0, data=[39, 95]),
   midi.NoteOnEvent(tick=0, channel=0, data=[39, 95]),
   midi.NoteOffEvent(tick=240, channel=0, data=[39, 95]),
   midi.NoteOnEvent(tick=0, channel=0, data=[39, 95]),
   midi.NoteOffEvent(tick=480, channel=0, data=[39, 95]),
   midi.NoteOnEvent(tick=0, channel=0, data=[39, 95]),
   midi.NoteOffEvent(tick=480, channel=0, data=[39, 95]),
   midi.NoteOnEvent(tick=0, channel=0, data=[39, 95]),
   midi.NoteOffEvent(tick=240, channel=0, data=[39, 95]),
   midi.NoteOnEvent(tick=0, channel=0, data=[39, 95]),
   midi.NoteOffEvent(tick=240, channel=0, data=[39, 95]),
   midi.NoteOnEvent(tick=0, channel=0, data=[39, 95]),
   midi.NoteOffEvent(tick=480, channel=0, data=[39, 95]),
   midi.NoteOnEvent(tick=0, channel=0, data=[39, 95]),
   midi.NoteOffEvent(tick=480, channel=0, data=[39, 95]),
   midi.NoteOnEvent(tick=0, channel=0, data=[39, 95]),
   midi.NoteOffEvent(tick=240, channel=0, data=[39, 95]),
   midi.NoteOnEvent(tick=0, channel=0, data=[39, 95]),
   midi.NoteOffEvent(tick=240, channel=0, data=[39, 95]),
   midi.NoteOnEvent(tick=0, channel=0, data=[39, 95]),
   midi.NoteOffEvent(tick=480, channel=0, data=[39, 95]),
   midi.NoteOnEvent(tick=3840, channel=0, data=[48, 95]),
   midi.NoteOffEvent(tick=240, channel=0, data=[48, 95]),
   midi.NoteOnEvent(tick=0, channel=0, data=[48, 95]),
   midi.NoteOffEvent(tick=240, channel=0, data=[48, 95]),
   midi.NoteOnEvent(tick=0, channel=0, data=[48, 95]),
   midi.NoteOffEvent(tick=240, channel=0, data=[48, 95]),
   midi.NoteOnEvent(tick=0, channel=0, data=[48, 95]),
   midi.NoteOffEvent(tick=240, channel=0, data=[48, 95]),
   midi.NoteOnEvent(tick=0, channel=0, data=[48, 95]),
   midi.NoteOffEvent(tick=240, channel=0, data=[48, 95]),
   midi.NoteOnEvent(tick=0, channel=0, data=[48, 95]),
   midi.NoteOffEvent(tick=240, channel=0, data=[48, 95]),
   midi.NoteOnEvent(tick=0, channel=0, data=[48, 95]),
   midi.NoteOffEvent(tick=240, channel=0, data=[48, 95]),
   midi.NoteOnEvent(tick=0, channel=0, data=[48, 95]),
   midi.NoteOffEvent(tick=240, channel=0, data=[48, 95]),
   midi.NoteOnEvent(tick=0, channel=0, data=[48, 95]),
   midi.NoteOffEvent(tick=240, channel=0, data=[48, 95]),
   midi.NoteOnEvent(tick=0, channel=0, data=[48, 95]),
   midi.NoteOffEvent(tick=240, channel=0, data=[48, 95]),
   midi.NoteOnEvent(tick=0, channel=0, data=[48, 95]),
   midi.NoteOffEvent(tick=240, channel=0, data=[48, 95]),
   midi.NoteOnEvent(tick=0, channel=0, data=[48, 95]),
   midi.NoteOffEvent(tick=240, channel=0, data=[48, 95]),
   midi.NoteOnEvent(tick=0, channel=0, data=[48, 95]),
   midi.NoteOffEvent(tick=240, channel=0, data=[48, 95]),
   midi.NoteOnEvent(tick=0, channel=0, data=[48, 95]),
   midi.NoteOffEvent(tick=240, channel=0, data=[48, 95]),
   midi.NoteOnEvent(tick=0, channel=0, data=[48, 95]),
   midi.NoteOffEvent(tick=240, channel=0, data=[48, 95]),
   midi.NoteOnEvent(tick=0, channel=0, data=[48, 95]),
   midi.NoteOffEvent(tick=240, channel=0, data=[48, 95]),
   midi.NoteOnEvent(tick=0, channel=0, data=[48, 95]),
   midi.NoteOffEvent(tick=240, channel=0, data=[48, 95]),
   midi.NoteOnEvent(tick=0, channel=0, data=[48, 95]),
   midi.NoteOffEvent(tick=240, channel=0, data=[48, 95]),
   midi.NoteOnEvent(tick=0, channel=0, data=[48, 95]),
   midi.NoteOffEvent(tick=240, channel=0, data=[48, 95]),
   midi.NoteOnEvent(tick=0, channel=0, data=[48, 95]),
   midi.NoteOffEvent(tick=240, channel=0, data=[48, 95]),
   midi.NoteOnEvent(tick=0, channel=0, data=[48, 95]),
   midi.NoteOffEvent(tick=240, channel=0, data=[48, 95]),
   midi.NoteOnEvent(tick=0, channel=0, data=[48, 95]),
   midi.NoteOffEvent(tick=240, channel=0, data=[48, 95]),
   midi.NoteOnEvent(tick=0, channel=0, data=[48, 95]),
   midi.NoteOffEvent(tick=240, channel=0, data=[48, 95]),
   midi.NoteOnEvent(tick=0, channel=0, data=[48, 95]),
   midi.NoteOffEvent(tick=240, channel=0, data=[48, 95]),
   midi.NoteOnEvent(tick=0, channel=0, data=[61, 95]),
   midi.NoteOnEvent(tick=0, channel=0, data=[54, 95]),
   midi.NoteOffEvent(tick=640, channel=0, data=[61, 95]),
   midi.NoteOffEvent(tick=0, channel=0, data=[54, 95]),
   midi.NoteOnEvent(tick=0, channel=0, data=[56, 95]),
   midi.NoteOnEvent(tick=0, channel=0, data=[49, 95]),
   midi.NoteOffEvent(tick=640, channel=0, data=[56, 95]),
   midi.NoteOffEvent(tick=0, channel=0, data=[49, 95]),
   midi.NoteOnEvent(tick=0, channel=0, data=[58, 95]),
   midi.NoteOnEvent(tick=0, channel=0, data=[51, 95]),
   midi.NoteOffEvent(tick=640, channel=0, data=[58, 95]),
   midi.NoteOffEvent(tick=0, channel=0, data=[51, 95]),
   midi.NoteOnEvent(tick=0, channel=0, data=[48, 95]),
   midi.NoteOffEvent(tick=240, channel=0, data=[48, 95]),
   midi.NoteOnEvent(tick=0, channel=0, data=[48, 95]),
   midi.NoteOffEvent(tick=240, channel=0, data=[48, 95]),
   midi.NoteOnEvent(tick=0, channel=0, data=[48, 95]),
   midi.NoteOffEvent(tick=240, channel=0, data=[48, 95]),
   midi.NoteOnEvent(tick=0, channel=0, data=[48, 95]),
   midi.NoteOffEvent(tick=240, channel=0, data=[48, 95]),
   midi.NoteOnEvent(tick=0, channel=0, data=[48, 95]),
   midi.NoteOffEvent(tick=240, channel=0, data=[48, 95]),
   midi.NoteOnEvent(tick=0, channel=0, data=[48, 95]),
   midi.NoteOffEvent(tick=240, channel=0, data=[48, 95]),
   midi.NoteOnEvent(tick=0, channel=0, data=[48, 95]),
   midi.NoteOffEvent(tick=240, channel=0, data=[48, 95]),
   midi.NoteOnEvent(tick=0, channel=0, data=[48, 95]),
   midi.NoteOffEvent(tick=240, channel=0, data=[48, 95]),
   midi.NoteOnEvent(tick=0, channel=0, data=[48, 95]),
   midi.NoteOffEvent(tick=240, channel=0, data=[48, 95]),
   midi.NoteOnEvent(tick=0, channel=0, data=[48, 95]),
   midi.NoteOffEvent(tick=240, channel=0, data=[48, 95]),
   midi.NoteOnEvent(tick=0, channel=0, data=[48, 95]),
   midi.NoteOffEvent(tick=240, channel=0, data=[48, 95]),
   midi.NoteOnEvent(tick=0, channel=0, data=[48, 95]),
   midi.NoteOffEvent(tick=240, channel=0, data=[48, 95]),
   midi.NoteOnEvent(tick=0, channel=0, data=[48, 95]),
   midi.NoteOffEvent(tick=240, channel=0, data=[48, 95]),
   midi.NoteOnEvent(tick=0, channel=0, data=[48, 95]),
   midi.NoteOffEvent(tick=240, channel=0, data=[48, 95]),
   midi.NoteOnEvent(tick=0, channel=0, data=[48, 95]),
   midi.NoteOffEvent(tick=240, channel=0, data=[48, 95]),
   midi.NoteOnEvent(tick=0, channel=0, data=[48, 95]),
   midi.NoteOffEvent(tick=240, channel=0, data=[48, 95]),
   midi.NoteOnEvent(tick=0, channel=0, data=[48, 95]),
   midi.NoteOffEvent(tick=240, channel=0, data=[48, 95]),
   midi.NoteOnEvent(tick=0, channel=0, data=[48, 95]),
   midi.NoteOffEvent(tick=240, channel=0, data=[48, 95]),
   midi.NoteOnEvent(tick=0, channel=0, data=[48, 95]),
   midi.NoteOffEvent(tick=240, channel=0, data=[48, 95]),
   midi.NoteOnEvent(tick=0, channel=0, data=[48, 95]),
   midi.NoteOffEvent(tick=240, channel=0, data=[48, 95]),
   midi.NoteOnEvent(tick=0, channel=0, data=[48, 95]),
   midi.NoteOffEvent(tick=240, channel=0, data=[48, 95]),
   midi.NoteOnEvent(tick=0, channel=0, data=[48, 95]),
   midi.NoteOffEvent(tick=240, channel=0, data=[48, 95]),
   midi.NoteOnEvent(tick=0, channel=0, data=[48, 95]),
   midi.NoteOffEvent(tick=240, channel=0, data=[48, 95]),
   midi.NoteOnEvent(tick=0, channel=0, data=[48, 95]),
   midi.NoteOffEvent(tick=240, channel=0, data=[48, 95]),
   midi.NoteOnEvent(tick=0, channel=0, data=[61, 95]),
   midi.NoteOnEvent(tick=0, channel=0, data=[54, 95]),
   midi.NoteOffEvent(tick=640, channel=0, data=[61, 95]),
   midi.NoteOffEvent(tick=0, channel=0, data=[54, 95]),
   midi.NoteOnEvent(tick=0, channel=0, data=[56, 95]),
   midi.NoteOnEvent(tick=0, channel=0, data=[49, 95]),
   midi.NoteOffEvent(tick=640, channel=0, data=[56, 95]),
   midi.NoteOffEvent(tick=0, channel=0, data=[49, 95]),
   midi.NoteOnEvent(tick=0, channel=0, data=[58, 95]),
   midi.NoteOnEvent(tick=0, channel=0, data=[51, 95]),
   midi.NoteOffEvent(tick=640, channel=0, data=[58, 95]),
   midi.NoteOffEvent(tick=0, channel=0, data=[51, 95]),
   midi.NoteOnEvent(tick=0, channel=0, data=[48, 95]),
   midi.NoteOffEvent(tick=240, channel=0, data=[48, 95]),
   midi.NoteOnEvent(tick=0, channel=0, data=[48, 95]),
   midi.NoteOffEvent(tick=240, channel=0, data=[48, 95]),
   midi.NoteOnEvent(tick=0, channel=0, data=[48, 95]),
   midi.NoteOffEvent(tick=240, channel=0, data=[48, 95]),
   midi.NoteOnEvent(tick=0, channel=0, data=[48, 95]),
   midi.NoteOffEvent(tick=240, channel=0, data=[48, 95]),
   midi.NoteOnEvent(tick=0, channel=0, data=[48, 95]),
   midi.NoteOffEvent(tick=240, channel=0, data=[48, 95]),
   midi.NoteOnEvent(tick=0, channel=0, data=[48, 95]),
   midi.NoteOffEvent(tick=240, channel=0, data=[48, 95]),
   midi.NoteOnEvent(tick=0, channel=0, data=[48, 95]),
   midi.NoteOffEvent(tick=240, channel=0, data=[48, 95]),
   midi.NoteOnEvent(tick=0, channel=0, data=[48, 95]),
   midi.NoteOffEvent(tick=240, channel=0, data=[48, 95]),
   midi.NoteOnEvent(tick=0, channel=0, data=[48, 95]),
   midi.NoteOffEvent(tick=240, channel=0, data=[48, 95]),
   midi.NoteOnEvent(tick=0, channel=0, data=[48, 95]),
   midi.NoteOffEvent(tick=240, channel=0, data=[48, 95]),
   midi.NoteOnEvent(tick=0, channel=0, data=[48, 95]),
   midi.NoteOffEvent(tick=240, channel=0, data=[48, 95]),
   midi.NoteOnEvent(tick=0, channel=0, data=[48, 95]),
   midi.NoteOffEvent(tick=240, channel=0, data=[48, 95]),
   midi.NoteOnEvent(tick=0, channel=0, data=[48, 95]),
   midi.NoteOffEvent(tick=240, channel=0, data=[48, 95]),
   midi.NoteOnEvent(tick=0, channel=0, data=[48, 95]),
   midi.NoteOffEvent(tick=240, channel=0, data=[48, 95]),
   midi.NoteOnEvent(tick=0, channel=0, data=[48, 95]),
   midi.NoteOffEvent(tick=240, channel=0, data=[48, 95]),
   midi.NoteOnEvent(tick=0, channel=0, data=[48, 95]),
   midi.NoteOffEvent(tick=240, channel=0, data=[48, 95]),
   midi.NoteOnEvent(tick=0, channel=0, data=[48, 95]),
   midi.NoteOffEvent(tick=240, channel=0, data=[48, 95]),
   midi.NoteOnEvent(tick=0, channel=0, data=[48, 95]),
   midi.NoteOffEvent(tick=240, channel=0, data=[48, 95]),
   midi.NoteOnEvent(tick=0, channel=0, data=[48, 95]),
   midi.NoteOffEvent(tick=240, channel=0, data=[48, 95]),
   midi.NoteOnEvent(tick=0, channel=0, data=[48, 95]),
   midi.NoteOffEvent(tick=240, channel=0, data=[48, 95]),
   midi.NoteOnEvent(tick=0, channel=0, data=[48, 95]),
   midi.NoteOffEvent(tick=240, channel=0, data=[48, 95]),
   midi.NoteOnEvent(tick=0, channel=0, data=[48, 95]),
   midi.NoteOffEvent(tick=240, channel=0, data=[48, 95]),
   midi.NoteOnEvent(tick=0, channel=0, data=[48, 95]),
   midi.NoteOffEvent(tick=240, channel=0, data=[48, 95]),
   midi.NoteOnEvent(tick=0, channel=0, data=[48, 95]),
   midi.NoteOffEvent(tick=240, channel=0, data=[48, 95]),
   midi.NoteOnEvent(tick=0, channel=0, data=[61, 95]),
   midi.NoteOnEvent(tick=0, channel=0, data=[54, 95]),
   midi.NoteOffEvent(tick=640, channel=0, data=[61, 95]),
   midi.NoteOffEvent(tick=0, channel=0, data=[54, 95]),
   midi.NoteOnEvent(tick=0, channel=0, data=[56, 95]),
   midi.NoteOnEvent(tick=0, channel=0, data=[49, 95]),
   midi.NoteOffEvent(tick=640, channel=0, data=[56, 95]),
   midi.NoteOffEvent(tick=0, channel=0, data=[49, 95]),
   midi.NoteOnEvent(tick=0, channel=0, data=[58, 95]),
   midi.NoteOnEvent(tick=0, channel=0, data=[51, 95]),
   midi.NoteOffEvent(tick=640, channel=0, data=[58, 95]),
   midi.NoteOffEvent(tick=0, channel=0, data=[51, 95]),
   midi.NoteOnEvent(tick=0, channel=0, data=[48, 95]),
   midi.NoteOffEvent(tick=240, channel=0, data=[48, 95]),
   midi.NoteOnEvent(tick=0, channel=0, data=[48, 95]),
   midi.NoteOffEvent(tick=240, channel=0, data=[48, 95]),
   midi.NoteOnEvent(tick=0, channel=0, data=[48, 95]),
   midi.NoteOffEvent(tick=240, channel=0, data=[48, 95]),
   midi.NoteOnEvent(tick=0, channel=0, data=[48, 95]),
   midi.NoteOffEvent(tick=240, channel=0, data=[48, 95]),
   midi.NoteOnEvent(tick=0, channel=0, data=[48, 95]),
   midi.NoteOffEvent(tick=240, channel=0, data=[48, 95]),
   midi.NoteOnEvent(tick=0, channel=0, data=[48, 95]),
   midi.NoteOffEvent(tick=240, channel=0, data=[48, 95]),
   midi.NoteOnEvent(tick=0, channel=0, data=[48, 95]),
   midi.NoteOffEvent(tick=240, channel=0, data=[48, 95]),
   midi.NoteOnEvent(tick=0, channel=0, data=[48, 95]),
   midi.NoteOffEvent(tick=240, channel=0, data=[48, 95]),
   midi.NoteOnEvent(tick=0, channel=0, data=[48, 95]),
   midi.NoteOffEvent(tick=240, channel=0, data=[48, 95]),
   midi.NoteOnEvent(tick=0, channel=0, data=[48, 95]),
   midi.NoteOffEvent(tick=240, channel=0, data=[48, 95]),
   midi.NoteOnEvent(tick=0, channel=0, data=[48, 95]),
   midi.NoteOffEvent(tick=240, channel=0, data=[48, 95]),
   midi.NoteOnEvent(tick=0, channel=0, data=[48, 95]),
   midi.NoteOffEvent(tick=240, channel=0, data=[48, 95]),
   midi.NoteOnEvent(tick=0, channel=0, data=[48, 95]),
   midi.NoteOffEvent(tick=240, channel=0, data=[48, 95]),
   midi.NoteOnEvent(tick=0, channel=0, data=[48, 95]),
   midi.NoteOffEvent(tick=240, channel=0, data=[48, 95]),
   midi.NoteOnEvent(tick=0, channel=0, data=[48, 95]),
   midi.NoteOffEvent(tick=240, channel=0, data=[48, 95]),
   midi.NoteOnEvent(tick=0, channel=0, data=[48, 95]),
   midi.NoteOffEvent(tick=240, channel=0, data=[48, 95]),
   midi.NoteOnEvent(tick=0, channel=0, data=[61, 95]),
   midi.NoteOnEvent(tick=0, channel=0, data=[54, 95]),
   midi.NoteOffEvent(tick=640, channel=0, data=[61, 95]),
   midi.NoteOffEvent(tick=0, channel=0, data=[54, 95]),
   midi.NoteOnEvent(tick=0, channel=0, data=[60, 95]),
   midi.NoteOnEvent(tick=0, channel=0, data=[53, 95]),
   midi.NoteOffEvent(tick=640, channel=0, data=[60, 95]),
   midi.NoteOffEvent(tick=0, channel=0, data=[53, 95]),
   midi.NoteOnEvent(tick=0, channel=0, data=[59, 95]),
   midi.NoteOnEvent(tick=0, channel=0, data=[52, 95]),
   midi.NoteOffEvent(tick=640, channel=0, data=[59, 95]),
   midi.NoteOffEvent(tick=0, channel=0, data=[52, 95]),
   midi.NoteOnEvent(tick=0, channel=0, data=[56, 95]),
   midi.NoteOnEvent(tick=0, channel=0, data=[49, 95]),
   midi.NoteOffEvent(tick=640, channel=0, data=[56, 95]),
   midi.NoteOffEvent(tick=0, channel=0, data=[49, 95]),
   midi.NoteOnEvent(tick=0, channel=0, data=[57, 95]),
   midi.NoteOnEvent(tick=0, channel=0, data=[50, 95]),
   midi.NoteOffEvent(tick=640, channel=0, data=[57, 95]),
   midi.NoteOffEvent(tick=0, channel=0, data=[50, 95]),
   midi.NoteOnEvent(tick=0, channel=0, data=[56, 95]),
   midi.NoteOnEvent(tick=0, channel=0, data=[49, 95]),
   midi.NoteOffEvent(tick=640, channel=0, data=[56, 95]),
   midi.NoteOffEvent(tick=0, channel=0, data=[49, 95]),
   midi.NoteOnEvent(tick=0, channel=0, data=[82, 95]),
   midi.NoteOffEvent(tick=240, channel=0, data=[82, 95]),
   midi.NoteOnEvent(tick=0, channel=0, data=[75, 95]),
   midi.NoteOffEvent(tick=240, channel=0, data=[75, 95]),
   midi.NoteOnEvent(tick=0, channel=0, data=[78, 70]),
   midi.NoteOffEvent(tick=240, channel=0, data=[78, 70]),
   midi.NoteOnEvent(tick=0, channel=0, data=[82, 95]),
   midi.NoteOffEvent(tick=240, channel=0, data=[82, 95]),
   midi.NoteOnEvent(tick=0, channel=0, data=[75, 95]),
   midi.NoteOffEvent(tick=240, channel=0, data=[75, 95]),
   midi.NoteOnEvent(tick=0, channel=0, data=[78, 70]),
   midi.NoteOffEvent(tick=240, channel=0, data=[78, 70]),
   midi.NoteOnEvent(tick=0, channel=0, data=[82, 95]),
   midi.NoteOffEvent(tick=240, channel=0, data=[82, 95]),
   midi.NoteOnEvent(tick=0, channel=0, data=[75, 95]),
   midi.NoteOffEvent(tick=240, channel=0, data=[75, 95]),
   midi.NoteOnEvent(tick=0, channel=0, data=[78, 70]),
   midi.NoteOffEvent(tick=240, channel=0, data=[78, 70]),
   midi.NoteOnEvent(tick=0, channel=0, data=[82, 95]),
   midi.NoteOffEvent(tick=240, channel=0, data=[82, 95]),
   midi.NoteOnEvent(tick=0, channel=0, data=[75, 95]),
   midi.NoteOffEvent(tick=240, channel=0, data=[75, 95]),
   midi.NoteOnEvent(tick=0, channel=0, data=[78, 70]),
   midi.NoteOffEvent(tick=240, channel=0, data=[78, 70]),
   midi.NoteOnEvent(tick=0, channel=0, data=[82, 95]),
   midi.NoteOffEvent(tick=240, channel=0, data=[82, 95]),
   midi.NoteOnEvent(tick=0, channel=0, data=[75, 95]),
   midi.NoteOffEvent(tick=240, channel=0, data=[75, 95]),
   midi.NoteOnEvent(tick=0, channel=0, data=[78, 70]),
   midi.NoteOffEvent(tick=240, channel=0, data=[78, 70]),
   midi.NoteOnEvent(tick=0, channel=0, data=[82, 70]),
   midi.NoteOffEvent(tick=240, channel=0, data=[82, 70]),
   midi.NoteOnEvent(tick=0, channel=0, data=[80, 95]),
   midi.NoteOffEvent(tick=240, channel=0, data=[80, 95]),
   midi.NoteOnEvent(tick=0, channel=0, data=[75, 95]),
   midi.NoteOffEvent(tick=240, channel=0, data=[75, 95]),
   midi.NoteOnEvent(tick=0, channel=0, data=[78, 70]),
   midi.NoteOffEvent(tick=240, channel=0, data=[78, 70]),
   midi.NoteOnEvent(tick=0, channel=0, data=[80, 95]),
   midi.NoteOffEvent(tick=240, channel=0, data=[80, 95]),
   midi.NoteOnEvent(tick=0, channel=0, data=[75, 95]),
   midi.NoteOffEvent(tick=240, channel=0, data=[75, 95]),
   midi.NoteOnEvent(tick=0, channel=0, data=[78, 70]),
   midi.NoteOffEvent(tick=240, channel=0, data=[78, 70]),
   midi.NoteOnEvent(tick=0, channel=0, data=[80, 95]),
   midi.NoteOffEvent(tick=240, channel=0, data=[80, 95]),
   midi.NoteOnEvent(tick=0, channel=0, data=[75, 95]),
   midi.NoteOffEvent(tick=240, channel=0, data=[75, 95]),
   midi.NoteOnEvent(tick=0, channel=0, data=[78, 70]),
   midi.NoteOffEvent(tick=240, channel=0, data=[78, 70]),
   midi.NoteOnEvent(tick=0, channel=0, data=[80, 95]),
   midi.NoteOffEvent(tick=240, channel=0, data=[80, 95]),
   midi.NoteOnEvent(tick=0, channel=0, data=[75, 95]),
   midi.NoteOffEvent(tick=240, channel=0, data=[75, 95]),
   midi.NoteOnEvent(tick=0, channel=0, data=[78, 70]),
   midi.NoteOffEvent(tick=240, channel=0, data=[78, 70]),
   midi.NoteOnEvent(tick=0, channel=0, data=[80, 95]),
   midi.NoteOffEvent(tick=240, channel=0, data=[80, 95]),
   midi.NoteOnEvent(tick=0, channel=0, data=[75, 95]),
   midi.NoteOffEvent(tick=240, channel=0, data=[75, 95]),
   midi.NoteOnEvent(tick=0, channel=0, data=[78, 70]),
   midi.NoteOffEvent(tick=240, channel=0, data=[78, 70]),
   midi.NoteOnEvent(tick=0, channel=0, data=[82, 70]),
   midi.NoteOffEvent(tick=240, channel=0, data=[82, 70]),
   midi.NoteOnEvent(tick=0, channel=0, data=[78, 95]),
   midi.NoteOffEvent(tick=240, channel=0, data=[78, 95]),
   midi.NoteOnEvent(tick=0, channel=0, data=[73, 95]),
   midi.NoteOffEvent(tick=240, channel=0, data=[73, 95]),
   midi.NoteOnEvent(tick=0, channel=0, data=[75, 70]),
   midi.NoteOffEvent(tick=240, channel=0, data=[75, 70]),
   midi.NoteOnEvent(tick=0, channel=0, data=[78, 95]),
   midi.NoteOffEvent(tick=240, channel=0, data=[78, 95]),
   midi.NoteOnEvent(tick=0, channel=0, data=[73, 95]),
   midi.NoteOffEvent(tick=240, channel=0, data=[73, 95]),
   midi.NoteOnEvent(tick=0, channel=0, data=[75, 70]),
   midi.NoteOffEvent(tick=240, channel=0, data=[75, 70]),
   midi.NoteOnEvent(tick=0, channel=0, data=[78, 95]),
   midi.NoteOffEvent(tick=240, channel=0, data=[78, 95]),
   midi.NoteOnEvent(tick=0, channel=0, data=[73, 95]),
   midi.NoteOffEvent(tick=240, channel=0, data=[73, 95]),
   midi.NoteOnEvent(tick=0, channel=0, data=[75, 70]),
   midi.NoteOffEvent(tick=240, channel=0, data=[75, 70]),
   midi.NoteOnEvent(tick=0, channel=0, data=[78, 95]),
   midi.NoteOffEvent(tick=240, channel=0, data=[78, 95]),
   midi.NoteOnEvent(tick=0, channel=0, data=[73, 95]),
   midi.NoteOffEvent(tick=240, channel=0, data=[73, 95]),
   midi.NoteOnEvent(tick=0, channel=0, data=[75, 70]),
   midi.NoteOffEvent(tick=240, channel=0, data=[75, 70]),
   midi.NoteOnEvent(tick=0, channel=0, data=[78, 95]),
   midi.NoteOffEvent(tick=240, channel=0, data=[78, 95]),
   midi.NoteOnEvent(tick=0, channel=0, data=[73, 95]),
   midi.NoteOffEvent(tick=240, channel=0, data=[73, 95]),
   midi.NoteOnEvent(tick=0, channel=0, data=[75, 70]),
   midi.NoteOffEvent(tick=240, channel=0, data=[75, 70]),
   midi.NoteOnEvent(tick=0, channel=0, data=[78, 70]),
   midi.NoteOffEvent(tick=240, channel=0, data=[78, 70]),
   midi.NoteOnEvent(tick=0, channel=0, data=[75, 95]),
   midi.NoteOffEvent(tick=240, channel=0, data=[75, 95]),
   midi.NoteOnEvent(tick=0, channel=0, data=[71, 95]),
   midi.NoteOffEvent(tick=240, channel=0, data=[71, 95]),
   midi.NoteOnEvent(tick=0, channel=0, data=[73, 70]),
   midi.NoteOffEvent(tick=240, channel=0, data=[73, 70]),
   midi.NoteOnEvent(tick=0, channel=0, data=[75, 95]),
   midi.NoteOffEvent(tick=240, channel=0, data=[75, 95]),
   midi.NoteOnEvent(tick=0, channel=0, data=[71, 95]),
   midi.NoteOffEvent(tick=240, channel=0, data=[71, 95]),
   midi.NoteOnEvent(tick=0, channel=0, data=[73, 70]),
   midi.NoteOffEvent(tick=240, channel=0, data=[73, 70]),
   midi.NoteOnEvent(tick=0, channel=0, data=[75, 95]),
   midi.NoteOffEvent(tick=240, channel=0, data=[75, 95]),
   midi.NoteOnEvent(tick=0, channel=0, data=[71, 95]),
   midi.NoteOffEvent(tick=240, channel=0, data=[71, 95]),
   midi.NoteOnEvent(tick=0, channel=0, data=[73, 70]),
   midi.NoteOffEvent(tick=240, channel=0, data=[73, 70]),
   midi.NoteOnEvent(tick=0, channel=0, data=[75, 95]),
   midi.NoteOffEvent(tick=240, channel=0, data=[75, 95]),
   midi.NoteOnEvent(tick=0, channel=0, data=[71, 95]),
   midi.NoteOffEvent(tick=240, channel=0, data=[71, 95]),
   midi.NoteOnEvent(tick=0, channel=0, data=[73, 70]),
   midi.NoteOffEvent(tick=240, channel=0, data=[73, 70]),
   midi.NoteOnEvent(tick=0, channel=0, data=[75, 95]),
   midi.NoteOffEvent(tick=240, channel=0, data=[75, 95]),
   midi.NoteOnEvent(tick=0, channel=0, data=[71, 95]),
   midi.NoteOffEvent(tick=240, channel=0, data=[71, 95]),
   midi.NoteOnEvent(tick=0, channel=0, data=[73, 70]),
   midi.NoteOffEvent(tick=240, channel=0, data=[73, 70]),
   midi.NoteOnEvent(tick=0, channel=0, data=[75, 95]),
   midi.NoteOffEvent(tick=240, channel=0, data=[75, 95]),
   midi.NoteOnEvent(tick=0, channel=0, data=[73, 95]),
   midi.NoteOffEvent(tick=240, channel=0, data=[73, 95]),
   midi.NoteOnEvent(tick=0, channel=0, data=[68, 95]),
   midi.NoteOffEvent(tick=240, channel=0, data=[68, 95]),
   midi.NoteOnEvent(tick=0, channel=0, data=[70, 70]),
   midi.NoteOffEvent(tick=240, channel=0, data=[70, 70]),
   midi.NoteOnEvent(tick=0, channel=0, data=[73, 95]),
   midi.NoteOffEvent(tick=240, channel=0, data=[73, 95]),
   midi.NoteOnEvent(tick=0, channel=0, data=[68, 95]),
   midi.NoteOffEvent(tick=240, channel=0, data=[68, 95]),
   midi.NoteOnEvent(tick=0, channel=0, data=[70, 70]),
   midi.NoteOffEvent(tick=240, channel=0, data=[70, 70]),
   midi.NoteOnEvent(tick=0, channel=0, data=[73, 95]),
   midi.NoteOffEvent(tick=240, channel=0, data=[73, 95]),
   midi.NoteOnEvent(tick=0, channel=0, data=[68, 95]),
   midi.NoteOffEvent(tick=240, channel=0, data=[68, 95]),
   midi.NoteOnEvent(tick=0, channel=0, data=[70, 70]),
   midi.NoteOffEvent(tick=240, channel=0, data=[70, 70]),
   midi.NoteOnEvent(tick=0, channel=0, data=[73, 95]),
   midi.NoteOffEvent(tick=240, channel=0, data=[73, 95]),
   midi.NoteOnEvent(tick=0, channel=0, data=[68, 95]),
   midi.NoteOffEvent(tick=240, channel=0, data=[68, 95]),
   midi.NoteOnEvent(tick=0, channel=0, data=[70, 70]),
   midi.NoteOffEvent(tick=240, channel=0, data=[70, 70]),
   midi.NoteOnEvent(tick=0, channel=0, data=[73, 95]),
   midi.NoteOffEvent(tick=240, channel=0, data=[73, 95]),
   midi.NoteOnEvent(tick=0, channel=0, data=[68, 95]),
   midi.NoteOffEvent(tick=240, channel=0, data=[68, 95]),
   midi.NoteOnEvent(tick=0, channel=0, data=[70, 70]),
   midi.NoteOffEvent(tick=240, channel=0, data=[70, 70]),
   midi.NoteOnEvent(tick=0, channel=0, data=[73, 95]),
   midi.NoteOffEvent(tick=240, channel=0, data=[73, 95]),
   midi.PitchWheelEvent(tick=0, channel=1, data=[0, 64]),
   midi.NoteOnEvent(tick=0, channel=1, data=[57, 95]),
   midi.PitchWheelEvent(tick=58, channel=1, data=[0, 65]),
   midi.PitchWheelEvent(tick=58, channel=1, data=[0, 66]),
   midi.PitchWheelEvent(tick=58, channel=1, data=[0, 67]),
   midi.PitchWheelEvent(tick=58, channel=1, data=[0, 68]),
   midi.PitchWheelEvent(tick=58, channel=1, data=[0, 69]),
   midi.PitchWheelEvent(tick=58, channel=1, data=[0, 70]),
   midi.PitchWheelEvent(tick=58, channel=1, data=[0, 71]),
   midi.PitchWheelEvent(tick=58, channel=1, data=[0, 72]),
   midi.PitchWheelEvent(tick=58, channel=1, data=[0, 73]),
   midi.PitchWheelEvent(tick=58, channel=1, data=[0, 74]),
   midi.PitchWheelEvent(tick=58, channel=1, data=[0, 75]),
   midi.PitchWheelEvent(tick=2, channel=1, data=[0, 75]),
   midi.PitchWheelEvent(tick=640, channel=1, data=[0, 75]),
   midi.PitchWheelEvent(tick=58, channel=1, data=[0, 74]),
   midi.PitchWheelEvent(tick=58, channel=1, data=[0, 73]),
   midi.PitchWheelEvent(tick=58, channel=1, data=[0, 72]),
   midi.PitchWheelEvent(tick=58, channel=1, data=[0, 71]),
   midi.PitchWheelEvent(tick=58, channel=1, data=[0, 70]),
   midi.PitchWheelEvent(tick=58, channel=1, data=[0, 69]),
   midi.PitchWheelEvent(tick=58, channel=1, data=[0, 68]),
   midi.PitchWheelEvent(tick=58, channel=1, data=[0, 67]),
   midi.PitchWheelEvent(tick=58, channel=1, data=[0, 66]),
   midi.PitchWheelEvent(tick=58, channel=1, data=[0, 65]),
   midi.PitchWheelEvent(tick=58, channel=1, data=[0, 64]),
   midi.PitchWheelEvent(tick=2, channel=1, data=[0, 64]),
   midi.PitchWheelEvent(tick=640, channel=1, data=[0, 64]),
   midi.PitchWheelEvent(tick=58, channel=1, data=[0, 65]),
   midi.PitchWheelEvent(tick=58, channel=1, data=[0, 66]),
   midi.PitchWheelEvent(tick=58, channel=1, data=[0, 67]),
   midi.PitchWheelEvent(tick=58, channel=1, data=[0, 68]),
   midi.PitchWheelEvent(tick=58, channel=1, data=[0, 69]),
   midi.PitchWheelEvent(tick=58, channel=1, data=[0, 70]),
   midi.PitchWheelEvent(tick=58, channel=1, data=[0, 71]),
   midi.PitchWheelEvent(tick=58, channel=1, data=[0, 72]),
   midi.PitchWheelEvent(tick=58, channel=1, data=[0, 73]),
   midi.PitchWheelEvent(tick=58, channel=1, data=[0, 74]),
   midi.PitchWheelEvent(tick=58, channel=1, data=[0, 75]),
   midi.PitchWheelEvent(tick=2, channel=1, data=[0, 75]),
   midi.PitchWheelEvent(tick=640, channel=1, data=[0, 75]),
   midi.PitchWheelEvent(tick=0, channel=1, data=[0, 64]),
   midi.NoteOffEvent(tick=0, channel=1, data=[57, 95]),
   midi.NoteOnEvent(tick=0, channel=0, data=[75, 95]),
   midi.NoteOffEvent(tick=240, channel=0, data=[75, 95]),
   midi.NoteOnEvent(tick=0, channel=0, data=[77, 95]),
   midi.NoteOffEvent(tick=240, channel=0, data=[77, 95]),
   midi.NoteOnEvent(tick=0, channel=0, data=[78, 95]),
   midi.NoteOffEvent(tick=240, channel=0, data=[78, 95]),
   midi.NoteOnEvent(tick=0, channel=0, data=[70, 95]),
   midi.NoteOffEvent(tick=240, channel=0, data=[70, 95]),
   midi.NoteOnEvent(tick=0, channel=0, data=[71, 95]),
   midi.NoteOffEvent(tick=240, channel=0, data=[71, 95]),
   midi.NoteOnEvent(tick=0, channel=0, data=[73, 95]),
   midi.NoteOffEvent(tick=240, channel=0, data=[73, 95]),
   midi.NoteOnEvent(tick=0, channel=0, data=[66, 95]),
   midi.NoteOffEvent(tick=240, channel=0, data=[66, 95]),
   midi.NoteOnEvent(tick=0, channel=0, data=[68, 95]),
   midi.NoteOffEvent(tick=240, channel=0, data=[68, 95]),
   midi.NoteOnEvent(tick=0, channel=0, data=[69, 95]),
   midi.NoteOffEvent(tick=240, channel=0, data=[69, 95]),
   midi.NoteOnEvent(tick=0, channel=0, data=[61, 95]),
   midi.NoteOffEvent(tick=240, channel=0, data=[61, 95]),
   midi.NoteOnEvent(tick=0, channel=0, data=[63, 95]),
   midi.NoteOffEvent(tick=240, channel=0, data=[63, 95]),
   midi.NoteOnEvent(tick=0, channel=0, data=[64, 95]),
   midi.NoteOffEvent(tick=240, channel=0, data=[64, 95]),
   midi.NoteOnEvent(tick=0, channel=0, data=[56, 95]),
   midi.NoteOffEvent(tick=240, channel=0, data=[56, 95]),
   midi.NoteOnEvent(tick=0, channel=0, data=[58, 95]),
   midi.NoteOffEvent(tick=240, channel=0, data=[58, 95]),
   midi.NoteOnEvent(tick=0, channel=1, data=[59, 95]),
   midi.PitchWheelEvent(tick=160, channel=1, data=[0, 64]),
   midi.PitchWheelEvent(tick=160, channel=1, data=[0, 65]),
   midi.PitchWheelEvent(tick=160, channel=1, data=[0, 64]),
   midi.PitchWheelEvent(tick=0, channel=1, data=[0, 65]),
   midi.PitchWheelEvent(tick=0, channel=1, data=[0, 64]),
   midi.NoteOffEvent(tick=0, channel=1, data=[59, 95]),
   midi.PitchWheelEvent(tick=0, channel=1, data=[0, 64]),
   midi.NoteOnEvent(tick=0, channel=1, data=[78, 31]),
   midi.NoteOnEvent(tick=0, channel=1, data=[90, 95]),
   midi.PitchWheelEvent(tick=58, channel=1, data=[0, 65]),
   midi.PitchWheelEvent(tick=58, channel=1, data=[0, 66]),
   midi.PitchWheelEvent(tick=58, channel=1, data=[0, 67]),
   midi.PitchWheelEvent(tick=58, channel=1, data=[0, 68]),
   midi.PitchWheelEvent(tick=58, channel=1, data=[0, 69]),
   midi.PitchWheelEvent(tick=58, channel=1, data=[0, 70]),
   midi.PitchWheelEvent(tick=58, channel=1, data=[0, 71]),
   midi.PitchWheelEvent(tick=58, channel=1, data=[0, 72]),
   midi.PitchWheelEvent(tick=58, channel=1, data=[0, 73]),
   midi.PitchWheelEvent(tick=58, channel=1, data=[0, 74]),
   midi.PitchWheelEvent(tick=58, channel=1, data=[0, 75]),
   midi.PitchWheelEvent(tick=2, channel=1, data=[0, 75]),
   midi.PitchWheelEvent(tick=640, channel=1, data=[0, 75]),
   midi.PitchWheelEvent(tick=58, channel=1, data=[0, 74]),
   midi.PitchWheelEvent(tick=58, channel=1, data=[0, 73]),
   midi.PitchWheelEvent(tick=58, channel=1, data=[0, 72]),
   midi.PitchWheelEvent(tick=58, channel=1, data=[0, 71]),
   midi.PitchWheelEvent(tick=58, channel=1, data=[0, 70]),
   midi.PitchWheelEvent(tick=58, channel=1, data=[0, 69]),
   midi.PitchWheelEvent(tick=58, channel=1, data=[0, 68]),
   midi.PitchWheelEvent(tick=58, channel=1, data=[0, 67]),
   midi.PitchWheelEvent(tick=58, channel=1, data=[0, 66]),
   midi.PitchWheelEvent(tick=58, channel=1, data=[0, 65]),
   midi.PitchWheelEvent(tick=58, channel=1, data=[0, 64]),
   midi.PitchWheelEvent(tick=2, channel=1, data=[0, 64]),
   midi.PitchWheelEvent(tick=640, channel=1, data=[0, 64]),
   midi.PitchWheelEvent(tick=58, channel=1, data=[0, 65]),
   midi.PitchWheelEvent(tick=58, channel=1, data=[0, 66]),
   midi.PitchWheelEvent(tick=58, channel=1, data=[0, 67]),
   midi.PitchWheelEvent(tick=58, channel=1, data=[0, 68]),
   midi.PitchWheelEvent(tick=58, channel=1, data=[0, 69]),
   midi.PitchWheelEvent(tick=58, channel=1, data=[0, 70]),
   midi.PitchWheelEvent(tick=58, channel=1, data=[0, 71]),
   midi.PitchWheelEvent(tick=58, channel=1, data=[0, 72]),
   midi.PitchWheelEvent(tick=58, channel=1, data=[0, 73]),
   midi.PitchWheelEvent(tick=58, channel=1, data=[0, 74]),
   midi.PitchWheelEvent(tick=58, channel=1, data=[0, 75]),
   midi.PitchWheelEvent(tick=2, channel=1, data=[0, 75]),
   midi.PitchWheelEvent(tick=640, channel=1, data=[0, 75]),
   midi.PitchWheelEvent(tick=0, channel=1, data=[0, 64]),
   midi.NoteOffEvent(tick=0, channel=1, data=[78, 31]),
   midi.NoteOffEvent(tick=0, channel=1, data=[90, 95]),
   midi.NoteOnEvent(tick=0, channel=0, data=[43, 95]),
   midi.NoteOffEvent(tick=240, channel=0, data=[43, 95]),
   midi.NoteOnEvent(tick=0, channel=0, data=[43, 95]),
   midi.NoteOffEvent(tick=240, channel=0, data=[43, 95]),
   midi.NoteOnEvent(tick=0, channel=0, data=[43, 95]),
   midi.NoteOffEvent(tick=240, channel=0, data=[43, 95]),
   midi.NoteOnEvent(tick=0, channel=0, data=[43, 95]),
   midi.NoteOffEvent(tick=240, channel=0, data=[43, 95]),
   midi.NoteOnEvent(tick=0, channel=0, data=[43, 95]),
   midi.NoteOffEvent(tick=240, channel=0, data=[43, 95]),
   midi.NoteOnEvent(tick=0, channel=0, data=[43, 95]),
   midi.NoteOffEvent(tick=240, channel=0, data=[43, 95]),
   midi.NoteOnEvent(tick=0, channel=0, data=[43, 95]),
   midi.NoteOffEvent(tick=240, channel=0, data=[43, 95]),
   midi.NoteOnEvent(tick=0, channel=0, data=[43, 95]),
   midi.NoteOffEvent(tick=240, channel=0, data=[43, 95]),
   midi.NoteOnEvent(tick=0, channel=0, data=[43, 95]),
   midi.NoteOffEvent(tick=240, channel=0, data=[43, 95]),
   midi.NoteOnEvent(tick=0, channel=0, data=[43, 95]),
   midi.NoteOffEvent(tick=240, channel=0, data=[43, 95]),
   midi.NoteOnEvent(tick=0, channel=0, data=[43, 95]),
   midi.NoteOffEvent(tick=240, channel=0, data=[43, 95]),
   midi.NoteOnEvent(tick=0, channel=0, data=[43, 95]),
   midi.NoteOffEvent(tick=240, channel=0, data=[43, 95]),
   midi.NoteOnEvent(tick=0, channel=0, data=[43, 95]),
   midi.NoteOffEvent(tick=240, channel=0, data=[43, 95]),
   midi.NoteOnEvent(tick=0, channel=0, data=[43, 95]),
   midi.NoteOffEvent(tick=240, channel=0, data=[43, 95]),
   midi.NoteOnEvent(tick=0, channel=0, data=[43, 95]),
   midi.NoteOffEvent(tick=240, channel=0, data=[43, 95]),
   midi.NoteOnEvent(tick=0, channel=0, data=[43, 95]),
   midi.NoteOffEvent(tick=240, channel=0, data=[43, 95]),
   midi.NoteOnEvent(tick=0, channel=0, data=[49, 95]),
   midi.NoteOffEvent(tick=240, channel=0, data=[49, 95]),
   midi.NoteOnEvent(tick=0, channel=0, data=[49, 95]),
   midi.NoteOffEvent(tick=240, channel=0, data=[49, 95]),
   midi.NoteOnEvent(tick=0, channel=0, data=[49, 95]),
   midi.NoteOffEvent(tick=240, channel=0, data=[49, 95]),
   midi.NoteOnEvent(tick=0, channel=0, data=[49, 95]),
   midi.NoteOffEvent(tick=240, channel=0, data=[49, 95]),
   midi.NoteOnEvent(tick=0, channel=0, data=[44, 95]),
   midi.NoteOffEvent(tick=240, channel=0, data=[44, 95]),
   midi.NoteOnEvent(tick=0, channel=0, data=[44, 95]),
   midi.NoteOffEvent(tick=240, channel=0, data=[44, 95]),
   midi.NoteOnEvent(tick=0, channel=0, data=[44, 95]),
   midi.NoteOffEvent(tick=240, channel=0, data=[44, 95]),
   midi.NoteOnEvent(tick=0, channel=0, data=[44, 95]),
   midi.NoteOffEvent(tick=240, channel=0, data=[44, 95]),
   midi.NoteOnEvent(tick=0, channel=0, data=[46, 95]),
   midi.NoteOffEvent(tick=240, channel=0, data=[46, 95]),
   midi.NoteOnEvent(tick=0, channel=0, data=[46, 95]),
   midi.NoteOffEvent(tick=240, channel=0, data=[46, 95]),
   midi.NoteOnEvent(tick=0, channel=0, data=[46, 95]),
   midi.NoteOffEvent(tick=240, channel=0, data=[46, 95]),
   midi.NoteOnEvent(tick=0, channel=0, data=[46, 95]),
   midi.NoteOffEvent(tick=240, channel=0, data=[46, 95]),
   midi.NoteOnEvent(tick=0, channel=0, data=[46, 95]),
   midi.NoteOffEvent(tick=240, channel=0, data=[46, 95]),
   midi.NoteOnEvent(tick=0, channel=0, data=[46, 95]),
   midi.NoteOffEvent(tick=240, channel=0, data=[46, 95]),
   midi.NoteOnEvent(tick=0, channel=0, data=[46, 95]),
   midi.NoteOffEvent(tick=240, channel=0, data=[46, 95]),
   midi.NoteOnEvent(tick=0, channel=0, data=[46, 95]),
   midi.NoteOffEvent(tick=240, channel=0, data=[46, 95]),
   midi.NoteOnEvent(tick=0, channel=0, data=[41, 95]),
   midi.NoteOffEvent(tick=240, channel=0, data=[41, 95]),
   midi.NoteOnEvent(tick=0, channel=0, data=[41, 95]),
   midi.NoteOffEvent(tick=240, channel=0, data=[41, 95]),
   midi.NoteOnEvent(tick=0, channel=0, data=[41, 95]),
   midi.NoteOffEvent(tick=240, channel=0, data=[41, 95]),
   midi.NoteOnEvent(tick=0, channel=0, data=[41, 95]),
   midi.NoteOffEvent(tick=240, channel=0, data=[41, 95]),
   midi.NoteOnEvent(tick=0, channel=0, data=[41, 95]),
   midi.NoteOffEvent(tick=240, channel=0, data=[41, 95]),
   midi.NoteOnEvent(tick=0, channel=0, data=[41, 95]),
   midi.NoteOffEvent(tick=240, channel=0, data=[41, 95]),
   midi.NoteOnEvent(tick=0, channel=0, data=[41, 95]),
   midi.NoteOffEvent(tick=240, channel=0, data=[41, 95]),
   midi.NoteOnEvent(tick=0, channel=0, data=[41, 95]),
   midi.NoteOffEvent(tick=240, channel=0, data=[41, 95]),
   midi.NoteOnEvent(tick=0, channel=0, data=[43, 95]),
   midi.NoteOffEvent(tick=240, channel=0, data=[43, 95]),
   midi.NoteOnEvent(tick=0, channel=0, data=[43, 95]),
   midi.NoteOffEvent(tick=240, channel=0, data=[43, 95]),
   midi.NoteOnEvent(tick=0, channel=0, data=[43, 95]),
   midi.NoteOffEvent(tick=240, channel=0, data=[43, 95]),
   midi.NoteOnEvent(tick=0, channel=0, data=[43, 95]),
   midi.NoteOffEvent(tick=240, channel=0, data=[43, 95]),
   midi.NoteOnEvent(tick=0, channel=0, data=[43, 95]),
   midi.NoteOffEvent(tick=240, channel=0, data=[43, 95]),
   midi.NoteOnEvent(tick=0, channel=0, data=[43, 95]),
   midi.NoteOffEvent(tick=240, channel=0, data=[43, 95]),
   midi.NoteOnEvent(tick=0, channel=0, data=[43, 95]),
   midi.NoteOffEvent(tick=240, channel=0, data=[43, 95]),
   midi.NoteOnEvent(tick=0, channel=0, data=[43, 95]),
   midi.NoteOffEvent(tick=240, channel=0, data=[43, 95]),
   midi.NoteOnEvent(tick=0, channel=0, data=[43, 95]),
   midi.NoteOffEvent(tick=240, channel=0, data=[43, 95]),
   midi.NoteOnEvent(tick=0, channel=0, data=[43, 95]),
   midi.NoteOffEvent(tick=240, channel=0, data=[43, 95]),
   midi.NoteOnEvent(tick=0, channel=0, data=[43, 95]),
   midi.NoteOffEvent(tick=240, channel=0, data=[43, 95]),
   midi.NoteOnEvent(tick=0, channel=0, data=[43, 95]),
   midi.NoteOffEvent(tick=240, channel=0, data=[43, 95]),
   midi.NoteOnEvent(tick=0, channel=0, data=[43, 95]),
   midi.NoteOffEvent(tick=240, channel=0, data=[43, 95]),
   midi.NoteOnEvent(tick=0, channel=0, data=[43, 95]),
   midi.NoteOffEvent(tick=240, channel=0, data=[43, 95]),
   midi.NoteOnEvent(tick=0, channel=0, data=[43, 95]),
   midi.NoteOffEvent(tick=240, channel=0, data=[43, 95]),
   midi.NoteOnEvent(tick=0, channel=0, data=[43, 95]),
   midi.NoteOffEvent(tick=240, channel=0, data=[43, 95]),
   midi.NoteOnEvent(tick=0, channel=0, data=[49, 95]),
   midi.NoteOffEvent(tick=240, channel=0, data=[49, 95]),
   midi.NoteOnEvent(tick=0, channel=0, data=[49, 95]),
   midi.NoteOffEvent(tick=240, channel=0, data=[49, 95]),
   midi.NoteOnEvent(tick=0, channel=0, data=[49, 95]),
   midi.NoteOffEvent(tick=240, channel=0, data=[49, 95]),
   midi.NoteOnEvent(tick=0, channel=0, data=[49, 95]),
   midi.NoteOffEvent(tick=240, channel=0, data=[49, 95]),
   midi.NoteOnEvent(tick=0, channel=0, data=[44, 95]),
   midi.NoteOffEvent(tick=240, channel=0, data=[44, 95]),
   midi.NoteOnEvent(tick=0, channel=0, data=[44, 95]),
   midi.NoteOffEvent(tick=240, channel=0, data=[44, 95]),
   midi.NoteOnEvent(tick=0, channel=0, data=[44, 95]),
   midi.NoteOffEvent(tick=240, channel=0, data=[44, 95]),
   midi.NoteOnEvent(tick=0, channel=0, data=[44, 95]),
   midi.NoteOffEvent(tick=240, channel=0, data=[44, 95]),
   midi.NoteOnEvent(tick=0, channel=0, data=[46, 95]),
   midi.NoteOffEvent(tick=240, channel=0, data=[46, 95]),
   midi.NoteOnEvent(tick=0, channel=0, data=[46, 95]),
   midi.NoteOffEvent(tick=240, channel=0, data=[46, 95]),
   midi.NoteOnEvent(tick=0, channel=0, data=[46, 95]),
   midi.NoteOffEvent(tick=240, channel=0, data=[46, 95]),
   midi.NoteOnEvent(tick=0, channel=0, data=[46, 95]),
   midi.NoteOffEvent(tick=240, channel=0, data=[46, 95]),
   midi.NoteOnEvent(tick=0, channel=0, data=[46, 95]),
   midi.NoteOffEvent(tick=240, channel=0, data=[46, 95]),
   midi.NoteOnEvent(tick=0, channel=0, data=[46, 95]),
   midi.NoteOffEvent(tick=240, channel=0, data=[46, 95]),
   midi.NoteOnEvent(tick=0, channel=0, data=[46, 95]),
   midi.NoteOffEvent(tick=240, channel=0, data=[46, 95]),
   midi.NoteOnEvent(tick=0, channel=0, data=[46, 95]),
   midi.NoteOffEvent(tick=240, channel=0, data=[46, 95]),
   midi.NoteOnEvent(tick=0, channel=0, data=[41, 95]),
   midi.NoteOffEvent(tick=240, channel=0, data=[41, 95]),
   midi.NoteOnEvent(tick=0, channel=0, data=[41, 95]),
   midi.NoteOffEvent(tick=240, channel=0, data=[41, 95]),
   midi.NoteOnEvent(tick=0, channel=0, data=[41, 95]),
   midi.NoteOffEvent(tick=240, channel=0, data=[41, 95]),
   midi.NoteOnEvent(tick=0, channel=0, data=[41, 95]),
   midi.NoteOffEvent(tick=240, channel=0, data=[41, 95]),
   midi.NoteOnEvent(tick=0, channel=0, data=[41, 95]),
   midi.NoteOffEvent(tick=240, channel=0, data=[41, 95]),
   midi.NoteOnEvent(tick=0, channel=0, data=[41, 95]),
   midi.NoteOffEvent(tick=240, channel=0, data=[41, 95]),
   midi.NoteOnEvent(tick=0, channel=0, data=[41, 95]),
   midi.NoteOffEvent(tick=240, channel=0, data=[41, 95]),
   midi.NoteOnEvent(tick=0, channel=0, data=[41, 95]),
   midi.NoteOffEvent(tick=240, channel=0, data=[41, 95]),
   midi.NoteOnEvent(tick=0, channel=0, data=[43, 95]),
   midi.NoteOffEvent(tick=240, channel=0, data=[43, 95]),
   midi.NoteOnEvent(tick=0, channel=0, data=[43, 95]),
   midi.NoteOffEvent(tick=240, channel=0, data=[43, 95]),
   midi.NoteOnEvent(tick=0, channel=0, data=[43, 95]),
   midi.NoteOffEvent(tick=240, channel=0, data=[43, 95]),
   midi.NoteOnEvent(tick=0, channel=0, data=[43, 95]),
   midi.NoteOffEvent(tick=240, channel=0, data=[43, 95]),
   midi.NoteOnEvent(tick=0, channel=0, data=[43, 95]),
   midi.NoteOffEvent(tick=240, channel=0, data=[43, 95]),
   midi.NoteOnEvent(tick=0, channel=0, data=[43, 95]),
   midi.NoteOffEvent(tick=240, channel=0, data=[43, 95]),
   midi.NoteOnEvent(tick=0, channel=0, data=[43, 95]),
   midi.NoteOffEvent(tick=240, channel=0, data=[43, 95]),
   midi.NoteOnEvent(tick=0, channel=0, data=[43, 95]),
   midi.NoteOffEvent(tick=240, channel=0, data=[43, 95]),
   midi.NoteOnEvent(tick=0, channel=0, data=[43, 95]),
   midi.NoteOffEvent(tick=240, channel=0, data=[43, 95]),
   midi.NoteOnEvent(tick=0, channel=0, data=[43, 95]),
   midi.NoteOffEvent(tick=240, channel=0, data=[43, 95]),
   midi.NoteOnEvent(tick=0, channel=0, data=[43, 95]),
   midi.NoteOffEvent(tick=240, channel=0, data=[43, 95]),
   midi.NoteOnEvent(tick=0, channel=0, data=[43, 95]),
   midi.NoteOffEvent(tick=240, channel=0, data=[43, 95]),
   midi.NoteOnEvent(tick=0, channel=0, data=[43, 95]),
   midi.NoteOffEvent(tick=240, channel=0, data=[43, 95]),
   midi.NoteOnEvent(tick=0, channel=0, data=[43, 95]),
   midi.NoteOffEvent(tick=240, channel=0, data=[43, 95]),
   midi.NoteOnEvent(tick=0, channel=0, data=[43, 95]),
   midi.NoteOffEvent(tick=240, channel=0, data=[43, 95]),
   midi.NoteOnEvent(tick=0, channel=0, data=[43, 95]),
   midi.NoteOffEvent(tick=240, channel=0, data=[43, 95]),
   midi.NoteOnEvent(tick=0, channel=0, data=[49, 95]),
   midi.NoteOffEvent(tick=240, channel=0, data=[49, 95]),
   midi.NoteOnEvent(tick=0, channel=0, data=[49, 95]),
   midi.NoteOffEvent(tick=240, channel=0, data=[49, 95]),
   midi.NoteOnEvent(tick=0, channel=0, data=[49, 95]),
   midi.NoteOffEvent(tick=240, channel=0, data=[49, 95]),
   midi.NoteOnEvent(tick=0, channel=0, data=[49, 95]),
   midi.NoteOffEvent(tick=240, channel=0, data=[49, 95]),
   midi.NoteOnEvent(tick=0, channel=0, data=[44, 95]),
   midi.NoteOffEvent(tick=240, channel=0, data=[44, 95]),
   midi.NoteOnEvent(tick=0, channel=0, data=[44, 95]),
   midi.NoteOffEvent(tick=240, channel=0, data=[44, 95]),
   midi.NoteOnEvent(tick=0, channel=0, data=[44, 95]),
   midi.NoteOffEvent(tick=240, channel=0, data=[44, 95]),
   midi.NoteOnEvent(tick=0, channel=0, data=[44, 95]),
   midi.NoteOffEvent(tick=240, channel=0, data=[44, 95]),
   midi.NoteOnEvent(tick=0, channel=0, data=[46, 95]),
   midi.NoteOffEvent(tick=240, channel=0, data=[46, 95]),
   midi.NoteOnEvent(tick=0, channel=0, data=[46, 95]),
   midi.NoteOffEvent(tick=240, channel=0, data=[46, 95]),
   midi.NoteOnEvent(tick=0, channel=0, data=[46, 95]),
   midi.NoteOffEvent(tick=240, channel=0, data=[46, 95]),
   midi.NoteOnEvent(tick=0, channel=0, data=[46, 95]),
   midi.NoteOffEvent(tick=240, channel=0, data=[46, 95]),
   midi.NoteOnEvent(tick=0, channel=0, data=[46, 95]),
   midi.NoteOffEvent(tick=240, channel=0, data=[46, 95]),
   midi.NoteOnEvent(tick=0, channel=0, data=[46, 95]),
   midi.NoteOffEvent(tick=240, channel=0, data=[46, 95]),
   midi.NoteOnEvent(tick=0, channel=0, data=[46, 95]),
   midi.NoteOffEvent(tick=240, channel=0, data=[46, 95]),
   midi.NoteOnEvent(tick=0, channel=0, data=[46, 95]),
   midi.NoteOffEvent(tick=240, channel=0, data=[46, 95]),
   midi.NoteOnEvent(tick=0, channel=0, data=[41, 95]),
   midi.NoteOffEvent(tick=240, channel=0, data=[41, 95]),
   midi.NoteOnEvent(tick=0, channel=0, data=[41, 95]),
   midi.NoteOffEvent(tick=240, channel=0, data=[41, 95]),
   midi.NoteOnEvent(tick=0, channel=0, data=[41, 95]),
   midi.NoteOffEvent(tick=240, channel=0, data=[41, 95]),
   midi.NoteOnEvent(tick=0, channel=0, data=[41, 95]),
   midi.NoteOffEvent(tick=240, channel=0, data=[41, 95]),
   midi.NoteOnEvent(tick=0, channel=0, data=[41, 95]),
   midi.NoteOffEvent(tick=240, channel=0, data=[41, 95]),
   midi.NoteOnEvent(tick=0, channel=0, data=[41, 95]),
   midi.NoteOffEvent(tick=240, channel=0, data=[41, 95]),
   midi.NoteOnEvent(tick=0, channel=0, data=[41, 95]),
   midi.NoteOffEvent(tick=240, channel=0, data=[41, 95]),
   midi.NoteOnEvent(tick=0, channel=0, data=[41, 95]),
   midi.NoteOffEvent(tick=240, channel=0, data=[41, 95]),
   midi.NoteOnEvent(tick=0, channel=0, data=[43, 95]),
   midi.NoteOffEvent(tick=240, channel=0, data=[43, 95]),
   midi.NoteOnEvent(tick=0, channel=0, data=[43, 95]),
   midi.NoteOffEvent(tick=240, channel=0, data=[43, 95]),
   midi.NoteOnEvent(tick=0, channel=0, data=[43, 95]),
   midi.NoteOffEvent(tick=240, channel=0, data=[43, 95]),
   midi.NoteOnEvent(tick=0, channel=0, data=[43, 95]),
   midi.NoteOffEvent(tick=240, channel=0, data=[43, 95]),
   midi.NoteOnEvent(tick=0, channel=0, data=[43, 95]),
   midi.NoteOffEvent(tick=240, channel=0, data=[43, 95]),
   midi.NoteOnEvent(tick=0, channel=0, data=[43, 95]),
   midi.NoteOffEvent(tick=240, channel=0, data=[43, 95]),
   midi.NoteOnEvent(tick=0, channel=0, data=[43, 95]),
   midi.NoteOffEvent(tick=240, channel=0, data=[43, 95]),
   midi.NoteOnEvent(tick=0, channel=0, data=[43, 95]),
   midi.NoteOffEvent(tick=240, channel=0, data=[43, 95]),
   midi.NoteOnEvent(tick=0, channel=0, data=[43, 95]),
   midi.NoteOffEvent(tick=240, channel=0, data=[43, 95]),
   midi.NoteOnEvent(tick=0, channel=0, data=[43, 95]),
   midi.NoteOffEvent(tick=240, channel=0, data=[43, 95]),
   midi.NoteOnEvent(tick=0, channel=0, data=[43, 95]),
   midi.NoteOffEvent(tick=240, channel=0, data=[43, 95]),
   midi.NoteOnEvent(tick=0, channel=0, data=[43, 95]),
   midi.NoteOffEvent(tick=240, channel=0, data=[43, 95]),
   midi.NoteOnEvent(tick=0, channel=0, data=[43, 95]),
   midi.NoteOffEvent(tick=240, channel=0, data=[43, 95]),
   midi.NoteOnEvent(tick=0, channel=0, data=[43, 95]),
   midi.NoteOffEvent(tick=240, channel=0, data=[43, 95]),
   midi.NoteOnEvent(tick=0, channel=0, data=[43, 95]),
   midi.NoteOffEvent(tick=240, channel=0, data=[43, 95]),
   midi.NoteOnEvent(tick=0, channel=0, data=[43, 95]),
   midi.NoteOffEvent(tick=240, channel=0, data=[43, 95]),
   midi.NoteOnEvent(tick=0, channel=0, data=[49, 95]),
   midi.NoteOffEvent(tick=240, channel=0, data=[49, 95]),
   midi.NoteOnEvent(tick=0, channel=0, data=[49, 95]),
   midi.NoteOffEvent(tick=240, channel=0, data=[49, 95]),
   midi.NoteOnEvent(tick=0, channel=0, data=[49, 95]),
   midi.NoteOffEvent(tick=240, channel=0, data=[49, 95]),
   midi.NoteOnEvent(tick=0, channel=0, data=[49, 95]),
   midi.NoteOffEvent(tick=240, channel=0, data=[49, 95]),
   midi.NoteOnEvent(tick=0, channel=0, data=[44, 95]),
   midi.NoteOffEvent(tick=240, channel=0, data=[44, 95]),
   midi.NoteOnEvent(tick=0, channel=0, data=[44, 95]),
   midi.NoteOffEvent(tick=240, channel=0, data=[44, 95]),
   midi.NoteOnEvent(tick=0, channel=0, data=[44, 95]),
   midi.NoteOffEvent(tick=240, channel=0, data=[44, 95]),
   midi.NoteOnEvent(tick=0, channel=0, data=[44, 95]),
   midi.NoteOffEvent(tick=240, channel=0, data=[44, 95]),
   midi.NoteOnEvent(tick=0, channel=0, data=[46, 95]),
   midi.NoteOffEvent(tick=240, channel=0, data=[46, 95]),
   midi.NoteOnEvent(tick=0, channel=0, data=[46, 95]),
   midi.NoteOffEvent(tick=240, channel=0, data=[46, 95]),
   midi.NoteOnEvent(tick=0, channel=0, data=[46, 95]),
   midi.NoteOffEvent(tick=240, channel=0, data=[46, 95]),
   midi.NoteOnEvent(tick=0, channel=0, data=[46, 95]),
   midi.NoteOffEvent(tick=240, channel=0, data=[46, 95]),
   midi.NoteOnEvent(tick=0, channel=0, data=[46, 95]),
   midi.NoteOffEvent(tick=240, channel=0, data=[46, 95]),
   midi.NoteOnEvent(tick=0, channel=0, data=[46, 95]),
   midi.NoteOffEvent(tick=240, channel=0, data=[46, 95]),
   midi.NoteOnEvent(tick=0, channel=0, data=[46, 95]),
   midi.NoteOffEvent(tick=240, channel=0, data=[46, 95]),
   midi.NoteOnEvent(tick=0, channel=0, data=[46, 95]),
   midi.NoteOffEvent(tick=240, channel=0, data=[46, 95]),
   midi.NoteOnEvent(tick=0, channel=0, data=[41, 95]),
   midi.NoteOffEvent(tick=240, channel=0, data=[41, 95]),
   midi.NoteOnEvent(tick=0, channel=0, data=[41, 95]),
   midi.NoteOffEvent(tick=240, channel=0, data=[41, 95]),
   midi.NoteOnEvent(tick=0, channel=0, data=[41, 95]),
   midi.NoteOffEvent(tick=240, channel=0, data=[41, 95]),
   midi.NoteOnEvent(tick=0, channel=0, data=[41, 95]),
   midi.NoteOffEvent(tick=240, channel=0, data=[41, 95]),
   midi.NoteOnEvent(tick=0, channel=0, data=[41, 95]),
   midi.NoteOffEvent(tick=240, channel=0, data=[41, 95]),
   midi.NoteOnEvent(tick=0, channel=0, data=[41, 95]),
   midi.NoteOffEvent(tick=240, channel=0, data=[41, 95]),
   midi.NoteOnEvent(tick=0, channel=0, data=[41, 95]),
   midi.NoteOffEvent(tick=240, channel=0, data=[41, 95]),
   midi.NoteOnEvent(tick=0, channel=0, data=[41, 95]),
   midi.NoteOffEvent(tick=240, channel=0, data=[41, 95]),
   midi.NoteOnEvent(tick=0, channel=0, data=[39, 95]),
   midi.NoteOffEvent(tick=240, channel=0, data=[39, 95]),
   midi.NoteOnEvent(tick=0, channel=0, data=[39, 95]),
   midi.NoteOffEvent(tick=240, channel=0, data=[39, 95]),
   midi.NoteOnEvent(tick=0, channel=0, data=[39, 95]),
   midi.NoteOffEvent(tick=240, channel=0, data=[39, 95]),
   midi.NoteOnEvent(tick=0, channel=0, data=[39, 95]),
   midi.NoteOffEvent(tick=240, channel=0, data=[39, 95]),
   midi.NoteOnEvent(tick=0, channel=0, data=[39, 95]),
   midi.NoteOffEvent(tick=240, channel=0, data=[39, 95]),
   midi.NoteOnEvent(tick=0, channel=0, data=[39, 95]),
   midi.NoteOffEvent(tick=240, channel=0, data=[39, 95]),
   midi.NoteOnEvent(tick=0, channel=0, data=[39, 95]),
   midi.NoteOffEvent(tick=240, channel=0, data=[39, 95]),
   midi.NoteOnEvent(tick=0, channel=0, data=[39, 95]),
   midi.NoteOffEvent(tick=240, channel=0, data=[39, 95]),
   midi.NoteOnEvent(tick=0, channel=0, data=[39, 95]),
   midi.NoteOffEvent(tick=240, channel=0, data=[39, 95]),
   midi.NoteOnEvent(tick=0, channel=0, data=[39, 95]),
   midi.NoteOffEvent(tick=240, channel=0, data=[39, 95]),
   midi.NoteOnEvent(tick=0, channel=0, data=[39, 95]),
   midi.NoteOffEvent(tick=240, channel=0, data=[39, 95]),
   midi.NoteOnEvent(tick=0, channel=0, data=[39, 95]),
   midi.NoteOffEvent(tick=240, channel=0, data=[39, 95]),
   midi.NoteOnEvent(tick=0, channel=0, data=[39, 95]),
   midi.NoteOffEvent(tick=240, channel=0, data=[39, 95]),
   midi.NoteOnEvent(tick=0, channel=0, data=[39, 95]),
   midi.NoteOffEvent(tick=240, channel=0, data=[39, 95]),
   midi.NoteOnEvent(tick=0, channel=0, data=[39, 95]),
   midi.NoteOffEvent(tick=240, channel=0, data=[39, 95]),
   midi.NoteOnEvent(tick=0, channel=0, data=[39, 95]),
   midi.NoteOffEvent(tick=240, channel=0, data=[39, 95]),
   midi.NoteOnEvent(tick=0, channel=0, data=[42, 95]),
   midi.NoteOffEvent(tick=240, channel=0, data=[42, 95]),
   midi.NoteOnEvent(tick=0, channel=0, data=[42, 95]),
   midi.NoteOffEvent(tick=240, channel=0, data=[42, 95]),
   midi.NoteOnEvent(tick=0, channel=0, data=[42, 95]),
   midi.NoteOffEvent(tick=240, channel=0, data=[42, 95]),
   midi.NoteOnEvent(tick=0, channel=0, data=[42, 95]),
   midi.NoteOffEvent(tick=240, channel=0, data=[42, 95]),
   midi.NoteOnEvent(tick=0, channel=0, data=[42, 95]),
   midi.NoteOffEvent(tick=240, channel=0, data=[42, 95]),
   midi.NoteOnEvent(tick=0, channel=0, data=[42, 95]),
   midi.NoteOffEvent(tick=240, channel=0, data=[42, 95]),
   midi.NoteOnEvent(tick=0, channel=0, data=[42, 95]),
   midi.NoteOffEvent(tick=240, channel=0, data=[42, 95]),
   midi.NoteOnEvent(tick=0, channel=0, data=[42, 95]),
   midi.NoteOffEvent(tick=240, channel=0, data=[42, 95]),
   midi.NoteOnEvent(tick=0, channel=0, data=[40, 95]),
   midi.NoteOffEvent(tick=240, channel=0, data=[40, 95]),
   midi.NoteOnEvent(tick=0, channel=0, data=[40, 95]),
   midi.NoteOffEvent(tick=240, channel=0, data=[40, 95]),
   midi.NoteOnEvent(tick=0, channel=0, data=[40, 95]),
   midi.NoteOffEvent(tick=240, channel=0, data=[40, 95]),
   midi.NoteOnEvent(tick=0, channel=0, data=[40, 95]),
   midi.NoteOffEvent(tick=240, channel=0, data=[40, 95]),
   midi.NoteOnEvent(tick=0, channel=0, data=[40, 95]),
   midi.NoteOffEvent(tick=240, channel=0, data=[40, 95]),
   midi.NoteOnEvent(tick=0, channel=0, data=[40, 95]),
   midi.NoteOffEvent(tick=240, channel=0, data=[40, 95]),
   midi.NoteOnEvent(tick=0, channel=0, data=[40, 95]),
   midi.NoteOffEvent(tick=240, channel=0, data=[40, 95]),
   midi.NoteOnEvent(tick=0, channel=0, data=[46, 95]),
   midi.NoteOffEvent(tick=240, channel=0, data=[46, 95]),
   midi.NoteOnEvent(tick=0, channel=0, data=[39, 95]),
   midi.NoteOffEvent(tick=240, channel=0, data=[39, 95]),
   midi.NoteOnEvent(tick=0, channel=0, data=[39, 95]),
   midi.NoteOffEvent(tick=240, channel=0, data=[39, 95]),
   midi.NoteOnEvent(tick=0, channel=0, data=[39, 95]),
   midi.NoteOffEvent(tick=240, channel=0, data=[39, 95]),
   midi.NoteOnEvent(tick=0, channel=0, data=[39, 95]),
   midi.NoteOffEvent(tick=240, channel=0, data=[39, 95]),
   midi.NoteOnEvent(tick=0, channel=0, data=[39, 95]),
   midi.NoteOffEvent(tick=240, channel=0, data=[39, 95]),
   midi.NoteOnEvent(tick=0, channel=0, data=[39, 95]),
   midi.NoteOffEvent(tick=240, channel=0, data=[39, 95]),
   midi.NoteOnEvent(tick=0, channel=0, data=[39, 95]),
   midi.NoteOffEvent(tick=240, channel=0, data=[39, 95]),
   midi.NoteOnEvent(tick=0, channel=0, data=[39, 95]),
   midi.NoteOffEvent(tick=240, channel=0, data=[39, 95]),
   midi.NoteOnEvent(tick=0, channel=0, data=[39, 95]),
   midi.NoteOffEvent(tick=240, channel=0, data=[39, 95]),
   midi.NoteOnEvent(tick=0, channel=0, data=[39, 95]),
   midi.NoteOffEvent(tick=240, channel=0, data=[39, 95]),
   midi.NoteOnEvent(tick=0, channel=0, data=[39, 95]),
   midi.NoteOffEvent(tick=240, channel=0, data=[39, 95]),
   midi.NoteOnEvent(tick=0, channel=0, data=[39, 95]),
   midi.NoteOffEvent(tick=240, channel=0, data=[39, 95]),
   midi.NoteOnEvent(tick=0, channel=0, data=[39, 95]),
   midi.NoteOffEvent(tick=240, channel=0, data=[39, 95]),
   midi.NoteOnEvent(tick=0, channel=0, data=[39, 95]),
   midi.NoteOffEvent(tick=240, channel=0, data=[39, 95]),
   midi.NoteOnEvent(tick=0, channel=0, data=[39, 95]),
   midi.NoteOffEvent(tick=240, channel=0, data=[39, 95]),
   midi.NoteOnEvent(tick=0, channel=0, data=[39, 95]),
   midi.NoteOffEvent(tick=240, channel=0, data=[39, 95]),
   midi.NoteOnEvent(tick=0, channel=0, data=[42, 95]),
   midi.NoteOffEvent(tick=240, channel=0, data=[42, 95]),
   midi.NoteOnEvent(tick=0, channel=0, data=[42, 95]),
   midi.NoteOffEvent(tick=240, channel=0, data=[42, 95]),
   midi.NoteOnEvent(tick=0, channel=0, data=[42, 95]),
   midi.NoteOffEvent(tick=240, channel=0, data=[42, 95]),
   midi.NoteOnEvent(tick=0, channel=0, data=[42, 95]),
   midi.NoteOffEvent(tick=240, channel=0, data=[42, 95]),
   midi.NoteOnEvent(tick=0, channel=0, data=[42, 95]),
   midi.NoteOffEvent(tick=240, channel=0, data=[42, 95]),
   midi.NoteOnEvent(tick=0, channel=0, data=[42, 95]),
   midi.NoteOffEvent(tick=240, channel=0, data=[42, 95]),
   midi.NoteOnEvent(tick=0, channel=0, data=[42, 95]),
   midi.NoteOffEvent(tick=240, channel=0, data=[42, 95]),
   midi.NoteOnEvent(tick=0, channel=0, data=[42, 95]),
   midi.NoteOffEvent(tick=240, channel=0, data=[42, 95]),
   midi.NoteOnEvent(tick=0, channel=0, data=[40, 95]),
   midi.NoteOffEvent(tick=240, channel=0, data=[40, 95]),
   midi.NoteOnEvent(tick=0, channel=0, data=[40, 95]),
   midi.NoteOffEvent(tick=240, channel=0, data=[40, 95]),
   midi.NoteOnEvent(tick=0, channel=0, data=[40, 95]),
   midi.NoteOffEvent(tick=240, channel=0, data=[40, 95]),
   midi.NoteOnEvent(tick=0, channel=0, data=[40, 95]),
   midi.NoteOffEvent(tick=240, channel=0, data=[40, 95]),
   midi.NoteOnEvent(tick=0, channel=0, data=[40, 95]),
   midi.NoteOffEvent(tick=240, channel=0, data=[40, 95]),
   midi.NoteOnEvent(tick=0, channel=0, data=[40, 95]),
   midi.NoteOffEvent(tick=240, channel=0, data=[40, 95]),
   midi.NoteOnEvent(tick=0, channel=0, data=[40, 95]),
   midi.NoteOffEvent(tick=240, channel=0, data=[40, 95]),
   midi.NoteOnEvent(tick=0, channel=0, data=[46, 95]),
   midi.NoteOffEvent(tick=240, channel=0, data=[46, 95]),
   midi.NoteOnEvent(tick=0, channel=0, data=[39, 95]),
   midi.NoteOffEvent(tick=240, channel=0, data=[39, 95]),
   midi.NoteOnEvent(tick=0, channel=0, data=[39, 95]),
   midi.NoteOffEvent(tick=240, channel=0, data=[39, 95]),
   midi.NoteOnEvent(tick=0, channel=0, data=[39, 95]),
   midi.NoteOffEvent(tick=240, channel=0, data=[39, 95]),
   midi.NoteOnEvent(tick=0, channel=0, data=[39, 95]),
   midi.NoteOffEvent(tick=240, channel=0, data=[39, 95]),
   midi.NoteOnEvent(tick=0, channel=0, data=[39, 95]),
   midi.NoteOffEvent(tick=240, channel=0, data=[39, 95]),
   midi.NoteOnEvent(tick=0, channel=0, data=[39, 95]),
   midi.NoteOffEvent(tick=240, channel=0, data=[39, 95]),
   midi.NoteOnEvent(tick=0, channel=0, data=[39, 95]),
   midi.NoteOffEvent(tick=240, channel=0, data=[39, 95]),
   midi.NoteOnEvent(tick=0, channel=0, data=[39, 95]),
   midi.NoteOffEvent(tick=240, channel=0, data=[39, 95]),
   midi.NoteOnEvent(tick=0, channel=0, data=[39, 95]),
   midi.NoteOffEvent(tick=240, channel=0, data=[39, 95]),
   midi.NoteOnEvent(tick=0, channel=0, data=[39, 95]),
   midi.NoteOffEvent(tick=240, channel=0, data=[39, 95]),
   midi.NoteOnEvent(tick=0, channel=0, data=[39, 95]),
   midi.NoteOffEvent(tick=240, channel=0, data=[39, 95]),
   midi.NoteOnEvent(tick=0, channel=0, data=[39, 95]),
   midi.NoteOffEvent(tick=240, channel=0, data=[39, 95]),
   midi.NoteOnEvent(tick=0, channel=0, data=[39, 95]),
   midi.NoteOffEvent(tick=240, channel=0, data=[39, 95]),
   midi.NoteOnEvent(tick=0, channel=0, data=[39, 95]),
   midi.NoteOffEvent(tick=240, channel=0, data=[39, 95]),
   midi.NoteOnEvent(tick=0, channel=0, data=[39, 95]),
   midi.NoteOffEvent(tick=240, channel=0, data=[39, 95]),
   midi.NoteOnEvent(tick=0, channel=0, data=[39, 95]),
   midi.NoteOffEvent(tick=240, channel=0, data=[39, 95]),
   midi.NoteOnEvent(tick=0, channel=0, data=[42, 95]),
   midi.NoteOffEvent(tick=240, channel=0, data=[42, 95]),
   midi.NoteOnEvent(tick=0, channel=0, data=[42, 95]),
   midi.NoteOffEvent(tick=240, channel=0, data=[42, 95]),
   midi.NoteOnEvent(tick=0, channel=0, data=[42, 95]),
   midi.NoteOffEvent(tick=240, channel=0, data=[42, 95]),
   midi.NoteOnEvent(tick=0, channel=0, data=[42, 95]),
   midi.NoteOffEvent(tick=240, channel=0, data=[42, 95]),
   midi.NoteOnEvent(tick=0, channel=0, data=[42, 95]),
   midi.NoteOffEvent(tick=240, channel=0, data=[42, 95]),
   midi.NoteOnEvent(tick=0, channel=0, data=[42, 95]),
   midi.NoteOffEvent(tick=240, channel=0, data=[42, 95]),
   midi.NoteOnEvent(tick=0, channel=0, data=[42, 95]),
   midi.NoteOffEvent(tick=240, channel=0, data=[42, 95]),
   midi.NoteOnEvent(tick=0, channel=0, data=[42, 95]),
   midi.NoteOffEvent(tick=240, channel=0, data=[42, 95]),
   midi.NoteOnEvent(tick=0, channel=0, data=[40, 95]),
   midi.NoteOffEvent(tick=240, channel=0, data=[40, 95]),
   midi.NoteOnEvent(tick=0, channel=0, data=[40, 95]),
   midi.NoteOffEvent(tick=240, channel=0, data=[40, 95]),
   midi.NoteOnEvent(tick=0, channel=0, data=[40, 95]),
   midi.NoteOffEvent(tick=240, channel=0, data=[40, 95]),
   midi.NoteOnEvent(tick=0, channel=0, data=[40, 95]),
   midi.NoteOffEvent(tick=240, channel=0, data=[40, 95]),
   midi.NoteOnEvent(tick=0, channel=0, data=[40, 95]),
   midi.NoteOffEvent(tick=240, channel=0, data=[40, 95]),
   midi.NoteOnEvent(tick=0, channel=0, data=[40, 95]),
   midi.NoteOffEvent(tick=240, channel=0, data=[40, 95]),
   midi.NoteOnEvent(tick=0, channel=0, data=[40, 95]),
   midi.NoteOffEvent(tick=240, channel=0, data=[40, 95]),
   midi.NoteOnEvent(tick=0, channel=0, data=[46, 95]),
   midi.NoteOffEvent(tick=240, channel=0, data=[46, 95]),
   midi.NoteOnEvent(tick=0, channel=0, data=[39, 95]),
   midi.NoteOffEvent(tick=240, channel=0, data=[39, 95]),
   midi.NoteOnEvent(tick=0, channel=0, data=[39, 95]),
   midi.NoteOffEvent(tick=240, channel=0, data=[39, 95]),
   midi.NoteOnEvent(tick=0, channel=0, data=[39, 95]),
   midi.NoteOffEvent(tick=240, channel=0, data=[39, 95]),
   midi.NoteOnEvent(tick=0, channel=0, data=[39, 95]),
   midi.NoteOffEvent(tick=240, channel=0, data=[39, 95]),
   midi.NoteOnEvent(tick=0, channel=0, data=[39, 95]),
   midi.NoteOffEvent(tick=240, channel=0, data=[39, 95]),
   midi.NoteOnEvent(tick=0, channel=0, data=[39, 95]),
   midi.NoteOffEvent(tick=240, channel=0, data=[39, 95]),
   midi.NoteOnEvent(tick=0, channel=0, data=[39, 95]),
   midi.NoteOffEvent(tick=240, channel=0, data=[39, 95]),
   midi.NoteOnEvent(tick=0, channel=0, data=[39, 95]),
   midi.NoteOffEvent(tick=240, channel=0, data=[39, 95]),
   midi.NoteOnEvent(tick=0, channel=0, data=[39, 95]),
   midi.NoteOffEvent(tick=240, channel=0, data=[39, 95]),
   midi.NoteOnEvent(tick=0, channel=0, data=[39, 95]),
   midi.NoteOffEvent(tick=240, channel=0, data=[39, 95]),
   midi.NoteOnEvent(tick=0, channel=0, data=[39, 95]),
   midi.NoteOffEvent(tick=240, channel=0, data=[39, 95]),
   midi.NoteOnEvent(tick=0, channel=0, data=[39, 95]),
   midi.NoteOffEvent(tick=240, channel=0, data=[39, 95]),
   midi.NoteOnEvent(tick=0, channel=0, data=[39, 95]),
   midi.NoteOffEvent(tick=240, channel=0, data=[39, 95]),
   midi.NoteOnEvent(tick=0, channel=0, data=[39, 95]),
   midi.NoteOffEvent(tick=240, channel=0, data=[39, 95]),
   midi.NoteOnEvent(tick=0, channel=0, data=[39, 95]),
   midi.NoteOffEvent(tick=240, channel=0, data=[39, 95]),
   midi.NoteOnEvent(tick=0, channel=0, data=[39, 95]),
   midi.NoteOffEvent(tick=240, channel=0, data=[39, 95]),
   midi.NoteOnEvent(tick=0, channel=0, data=[42, 95]),
   midi.NoteOffEvent(tick=240, channel=0, data=[42, 95]),
   midi.NoteOnEvent(tick=0, channel=0, data=[42, 95]),
   midi.NoteOffEvent(tick=240, channel=0, data=[42, 95]),
   midi.NoteOnEvent(tick=0, channel=0, data=[42, 95]),
   midi.NoteOffEvent(tick=240, channel=0, data=[42, 95]),
   midi.NoteOnEvent(tick=0, channel=0, data=[42, 95]),
   midi.NoteOffEvent(tick=240, channel=0, data=[42, 95]),
   midi.NoteOnEvent(tick=0, channel=0, data=[42, 95]),
   midi.NoteOffEvent(tick=240, channel=0, data=[42, 95]),
   midi.NoteOnEvent(tick=0, channel=0, data=[42, 95]),
   midi.NoteOffEvent(tick=240, channel=0, data=[42, 95]),
   midi.NoteOnEvent(tick=0, channel=0, data=[42, 95]),
   midi.NoteOffEvent(tick=240, channel=0, data=[42, 95]),
   midi.NoteOnEvent(tick=0, channel=0, data=[42, 95]),
   midi.NoteOffEvent(tick=240, channel=0, data=[42, 95]),
   midi.NoteOnEvent(tick=0, channel=0, data=[40, 95]),
   midi.NoteOffEvent(tick=240, channel=0, data=[40, 95]),
   midi.NoteOnEvent(tick=0, channel=0, data=[40, 95]),
   midi.NoteOffEvent(tick=240, channel=0, data=[40, 95]),
   midi.NoteOnEvent(tick=0, channel=0, data=[40, 95]),
   midi.NoteOffEvent(tick=240, channel=0, data=[40, 95]),
   midi.NoteOnEvent(tick=0, channel=0, data=[40, 95]),
   midi.NoteOffEvent(tick=240, channel=0, data=[40, 95]),
   midi.NoteOnEvent(tick=0, channel=0, data=[40, 95]),
   midi.NoteOffEvent(tick=240, channel=0, data=[40, 95]),
   midi.NoteOnEvent(tick=0, channel=0, data=[40, 95]),
   midi.NoteOffEvent(tick=240, channel=0, data=[40, 95]),
   midi.NoteOnEvent(tick=0, channel=0, data=[40, 95]),
   midi.NoteOffEvent(tick=240, channel=0, data=[40, 95]),
   midi.NoteOnEvent(tick=0, channel=0, data=[46, 95]),
   midi.NoteOffEvent(tick=240, channel=0, data=[46, 95]),
   midi.NoteOnEvent(tick=0, channel=0, data=[39, 95]),
   midi.NoteOffEvent(tick=240, channel=0, data=[39, 95]),
   midi.NoteOnEvent(tick=0, channel=0, data=[39, 95]),
   midi.NoteOffEvent(tick=240, channel=0, data=[39, 95]),
   midi.NoteOnEvent(tick=0, channel=0, data=[39, 95]),
   midi.NoteOffEvent(tick=240, channel=0, data=[39, 95]),
   midi.NoteOnEvent(tick=0, channel=0, data=[39, 95]),
   midi.NoteOffEvent(tick=240, channel=0, data=[39, 95]),
   midi.NoteOnEvent(tick=0, channel=0, data=[39, 95]),
   midi.NoteOffEvent(tick=240, channel=0, data=[39, 95]),
   midi.NoteOnEvent(tick=0, channel=0, data=[39, 95]),
   midi.NoteOffEvent(tick=240, channel=0, data=[39, 95]),
   midi.NoteOnEvent(tick=0, channel=0, data=[39, 95]),
   midi.NoteOffEvent(tick=240, channel=0, data=[39, 95]),
   midi.NoteOnEvent(tick=0, channel=0, data=[39, 95]),
   midi.NoteOffEvent(tick=240, channel=0, data=[39, 95]),
   midi.NoteOnEvent(tick=0, channel=0, data=[39, 95]),
   midi.NoteOffEvent(tick=240, channel=0, data=[39, 95]),
   midi.NoteOnEvent(tick=0, channel=0, data=[39, 95]),
   midi.NoteOffEvent(tick=240, channel=0, data=[39, 95]),
   midi.NoteOnEvent(tick=0, channel=0, data=[39, 95]),
   midi.NoteOffEvent(tick=240, channel=0, data=[39, 95]),
   midi.NoteOnEvent(tick=0, channel=0, data=[39, 95]),
   midi.NoteOffEvent(tick=240, channel=0, data=[39, 95]),
   midi.NoteOnEvent(tick=0, channel=0, data=[39, 95]),
   midi.NoteOffEvent(tick=240, channel=0, data=[39, 95]),
   midi.NoteOnEvent(tick=0, channel=0, data=[39, 95]),
   midi.NoteOffEvent(tick=240, channel=0, data=[39, 95]),
   midi.NoteOnEvent(tick=0, channel=0, data=[39, 95]),
   midi.NoteOffEvent(tick=240, channel=0, data=[39, 95]),
   midi.NoteOnEvent(tick=0, channel=0, data=[39, 95]),
   midi.NoteOffEvent(tick=240, channel=0, data=[39, 95]),
   midi.NoteOnEvent(tick=0, channel=0, data=[42, 95]),
   midi.NoteOffEvent(tick=240, channel=0, data=[42, 95]),
   midi.NoteOnEvent(tick=0, channel=0, data=[42, 95]),
   midi.NoteOffEvent(tick=240, channel=0, data=[42, 95]),
   midi.NoteOnEvent(tick=0, channel=0, data=[42, 95]),
   midi.NoteOffEvent(tick=240, channel=0, data=[42, 95]),
   midi.NoteOnEvent(tick=0, channel=0, data=[42, 95]),
   midi.NoteOffEvent(tick=240, channel=0, data=[42, 95]),
   midi.NoteOnEvent(tick=0, channel=0, data=[42, 95]),
   midi.NoteOffEvent(tick=240, channel=0, data=[42, 95]),
   midi.NoteOnEvent(tick=0, channel=0, data=[42, 95]),
   midi.NoteOffEvent(tick=240, channel=0, data=[42, 95]),
   midi.NoteOnEvent(tick=0, channel=0, data=[42, 95]),
   midi.NoteOffEvent(tick=240, channel=0, data=[42, 95]),
   midi.NoteOnEvent(tick=0, channel=0, data=[42, 95]),
   midi.NoteOffEvent(tick=240, channel=0, data=[42, 95]),
   midi.NoteOnEvent(tick=0, channel=0, data=[40, 95]),
   midi.NoteOffEvent(tick=240, channel=0, data=[40, 95]),
   midi.NoteOnEvent(tick=0, channel=0, data=[40, 95]),
   midi.NoteOffEvent(tick=240, channel=0, data=[40, 95]),
   midi.NoteOnEvent(tick=0, channel=0, data=[40, 95]),
   midi.NoteOffEvent(tick=240, channel=0, data=[40, 95]),
   midi.NoteOnEvent(tick=0, channel=0, data=[40, 95]),
   midi.NoteOffEvent(tick=240, channel=0, data=[40, 95]),
   midi.NoteOnEvent(tick=0, channel=0, data=[40, 95]),
   midi.NoteOffEvent(tick=240, channel=0, data=[40, 95]),
   midi.NoteOnEvent(tick=0, channel=0, data=[40, 95]),
   midi.NoteOffEvent(tick=240, channel=0, data=[40, 95]),
   midi.NoteOnEvent(tick=0, channel=0, data=[40, 95]),
   midi.NoteOffEvent(tick=240, channel=0, data=[40, 95]),
   midi.NoteOnEvent(tick=0, channel=0, data=[46, 95]),
   midi.NoteOffEvent(tick=240, channel=0, data=[46, 95]),
   midi.NoteOnEvent(tick=0, channel=0, data=[39, 95]),
   midi.NoteOffEvent(tick=240, channel=0, data=[39, 95]),
   midi.NoteOnEvent(tick=0, channel=0, data=[39, 95]),
   midi.NoteOffEvent(tick=240, channel=0, data=[39, 95]),
   midi.NoteOnEvent(tick=0, channel=0, data=[39, 95]),
   midi.NoteOffEvent(tick=240, channel=0, data=[39, 95]),
   midi.NoteOnEvent(tick=0, channel=0, data=[39, 95]),
   midi.NoteOffEvent(tick=240, channel=0, data=[39, 95]),
   midi.NoteOnEvent(tick=0, channel=0, data=[39, 95]),
   midi.NoteOffEvent(tick=240, channel=0, data=[39, 95]),
   midi.NoteOnEvent(tick=0, channel=0, data=[39, 95]),
   midi.NoteOffEvent(tick=240, channel=0, data=[39, 95]),
   midi.NoteOnEvent(tick=0, channel=0, data=[39, 95]),
   midi.NoteOffEvent(tick=240, channel=0, data=[39, 95]),
   midi.NoteOnEvent(tick=0, channel=0, data=[39, 95]),
   midi.NoteOffEvent(tick=240, channel=0, data=[39, 95]),
   midi.NoteOnEvent(tick=0, channel=0, data=[39, 95]),
   midi.NoteOffEvent(tick=240, channel=0, data=[39, 95]),
   midi.NoteOnEvent(tick=0, channel=0, data=[39, 95]),
   midi.NoteOffEvent(tick=240, channel=0, data=[39, 95]),
   midi.NoteOnEvent(tick=0, channel=0, data=[39, 95]),
   midi.NoteOffEvent(tick=240, channel=0, data=[39, 95]),
   midi.NoteOnEvent(tick=0, channel=0, data=[39, 95]),
   midi.NoteOffEvent(tick=240, channel=0, data=[39, 95]),
   midi.NoteOnEvent(tick=0, channel=0, data=[39, 95]),
   midi.NoteOffEvent(tick=240, channel=0, data=[39, 95]),
   midi.NoteOnEvent(tick=0, channel=0, data=[39, 95]),
   midi.NoteOffEvent(tick=240, channel=0, data=[39, 95]),
   midi.NoteOnEvent(tick=0, channel=0, data=[39, 95]),
   midi.NoteOffEvent(tick=240, channel=0, data=[39, 95]),
   midi.NoteOnEvent(tick=0, channel=0, data=[39, 95]),
   midi.NoteOffEvent(tick=240, channel=0, data=[39, 95]),
   midi.NoteOnEvent(tick=0, channel=0, data=[42, 95]),
   midi.NoteOffEvent(tick=240, channel=0, data=[42, 95]),
   midi.NoteOnEvent(tick=0, channel=0, data=[42, 95]),
   midi.NoteOffEvent(tick=240, channel=0, data=[42, 95]),
   midi.NoteOnEvent(tick=0, channel=0, data=[42, 95]),
   midi.NoteOffEvent(tick=240, channel=0, data=[42, 95]),
   midi.NoteOnEvent(tick=0, channel=0, data=[42, 95]),
   midi.NoteOffEvent(tick=240, channel=0, data=[42, 95]),
   midi.NoteOnEvent(tick=0, channel=0, data=[42, 95]),
   midi.NoteOffEvent(tick=240, channel=0, data=[42, 95]),
   midi.NoteOnEvent(tick=0, channel=0, data=[42, 95]),
   midi.NoteOffEvent(tick=240, channel=0, data=[42, 95]),
   midi.NoteOnEvent(tick=0, channel=0, data=[42, 95]),
   midi.NoteOffEvent(tick=240, channel=0, data=[42, 95]),
   midi.NoteOnEvent(tick=0, channel=0, data=[42, 95]),
   midi.NoteOffEvent(tick=240, channel=0, data=[42, 95]),
   midi.NoteOnEvent(tick=0, channel=0, data=[40, 95]),
   midi.NoteOffEvent(tick=240, channel=0, data=[40, 95]),
   midi.NoteOnEvent(tick=0, channel=0, data=[40, 95]),
   midi.NoteOffEvent(tick=240, channel=0, data=[40, 95]),
   midi.NoteOnEvent(tick=0, channel=0, data=[40, 95]),
   midi.NoteOffEvent(tick=240, channel=0, data=[40, 95]),
   midi.NoteOnEvent(tick=0, channel=0, data=[40, 95]),
   midi.NoteOffEvent(tick=240, channel=0, data=[40, 95]),
   midi.NoteOnEvent(tick=0, channel=0, data=[40, 95]),
   midi.NoteOffEvent(tick=240, channel=0, data=[40, 95]),
   midi.NoteOnEvent(tick=0, channel=0, data=[40, 95]),
   midi.NoteOffEvent(tick=240, channel=0, data=[40, 95]),
   midi.NoteOnEvent(tick=0, channel=0, data=[40, 95]),
   midi.NoteOffEvent(tick=240, channel=0, data=[40, 95]),
   midi.NoteOnEvent(tick=0, channel=0, data=[46, 95]),
   midi.NoteOffEvent(tick=240, channel=0, data=[46, 95]),
   midi.NoteOnEvent(tick=0, channel=0, data=[39, 95]),
   midi.NoteOffEvent(tick=240, channel=0, data=[39, 95]),
   midi.NoteOnEvent(tick=0, channel=0, data=[39, 95]),
   midi.NoteOffEvent(tick=240, channel=0, data=[39, 95]),
   midi.NoteOnEvent(tick=0, channel=0, data=[39, 95]),
   midi.NoteOffEvent(tick=240, channel=0, data=[39, 95]),
   midi.NoteOnEvent(tick=0, channel=0, data=[39, 95]),
   midi.NoteOffEvent(tick=240, channel=0, data=[39, 95]),
   midi.NoteOnEvent(tick=0, channel=0, data=[39, 95]),
   midi.NoteOffEvent(tick=240, channel=0, data=[39, 95]),
   midi.NoteOnEvent(tick=0, channel=0, data=[39, 95]),
   midi.NoteOffEvent(tick=240, channel=0, data=[39, 95]),
   midi.NoteOnEvent(tick=0, channel=0, data=[39, 95]),
   midi.NoteOffEvent(tick=240, channel=0, data=[39, 95]),
   midi.NoteOnEvent(tick=0, channel=0, data=[39, 95]),
   midi.NoteOffEvent(tick=240, channel=0, data=[39, 95]),
   midi.NoteOnEvent(tick=0, channel=0, data=[39, 95]),
   midi.NoteOffEvent(tick=240, channel=0, data=[39, 95]),
   midi.NoteOnEvent(tick=0, channel=0, data=[39, 95]),
   midi.NoteOffEvent(tick=240, channel=0, data=[39, 95]),
   midi.NoteOnEvent(tick=0, channel=0, data=[39, 95]),
   midi.NoteOffEvent(tick=240, channel=0, data=[39, 95]),
   midi.NoteOnEvent(tick=0, channel=0, data=[39, 95]),
   midi.NoteOffEvent(tick=240, channel=0, data=[39, 95]),
   midi.NoteOnEvent(tick=0, channel=0, data=[39, 95]),
   midi.NoteOffEvent(tick=240, channel=0, data=[39, 95]),
   midi.NoteOnEvent(tick=0, channel=0, data=[39, 95]),
   midi.NoteOffEvent(tick=240, channel=0, data=[39, 95]),
   midi.NoteOnEvent(tick=0, channel=0, data=[39, 95]),
   midi.NoteOffEvent(tick=240, channel=0, data=[39, 95]),
   midi.NoteOnEvent(tick=0, channel=0, data=[39, 95]),
   midi.NoteOffEvent(tick=240, channel=0, data=[39, 95]),
   midi.NoteOnEvent(tick=0, channel=0, data=[42, 95]),
   midi.NoteOffEvent(tick=240, channel=0, data=[42, 95]),
   midi.NoteOnEvent(tick=0, channel=0, data=[42, 95]),
   midi.NoteOffEvent(tick=240, channel=0, data=[42, 95]),
   midi.NoteOnEvent(tick=0, channel=0, data=[42, 95]),
   midi.NoteOffEvent(tick=240, channel=0, data=[42, 95]),
   midi.NoteOnEvent(tick=0, channel=0, data=[42, 95]),
   midi.NoteOffEvent(tick=240, channel=0, data=[42, 95]),
   midi.NoteOnEvent(tick=0, channel=0, data=[42, 95]),
   midi.NoteOffEvent(tick=240, channel=0, data=[42, 95]),
   midi.NoteOnEvent(tick=0, channel=0, data=[42, 95]),
   midi.NoteOffEvent(tick=240, channel=0, data=[42, 95]),
   midi.NoteOnEvent(tick=0, channel=0, data=[42, 95]),
   midi.NoteOffEvent(tick=240, channel=0, data=[42, 95]),
   midi.NoteOnEvent(tick=0, channel=0, data=[42, 95]),
   midi.NoteOffEvent(tick=240, channel=0, data=[42, 95]),
   midi.NoteOnEvent(tick=0, channel=0, data=[40, 95]),
   midi.NoteOffEvent(tick=240, channel=0, data=[40, 95]),
   midi.NoteOnEvent(tick=0, channel=0, data=[40, 95]),
   midi.NoteOffEvent(tick=240, channel=0, data=[40, 95]),
   midi.NoteOnEvent(tick=0, channel=0, data=[40, 95]),
   midi.NoteOffEvent(tick=240, channel=0, data=[40, 95]),
   midi.NoteOnEvent(tick=0, channel=0, data=[40, 95]),
   midi.NoteOffEvent(tick=240, channel=0, data=[40, 95]),
   midi.NoteOnEvent(tick=0, channel=0, data=[40, 95]),
   midi.NoteOffEvent(tick=240, channel=0, data=[40, 95]),
   midi.NoteOnEvent(tick=0, channel=0, data=[40, 95]),
   midi.NoteOffEvent(tick=240, channel=0, data=[40, 95]),
   midi.NoteOnEvent(tick=0, channel=0, data=[40, 95]),
   midi.NoteOffEvent(tick=240, channel=0, data=[40, 95]),
   midi.NoteOnEvent(tick=0, channel=0, data=[46, 95]),
   midi.NoteOffEvent(tick=240, channel=0, data=[46, 95]),
   midi.NoteOnEvent(tick=0, channel=0, data=[39, 95]),
   midi.NoteOffEvent(tick=240, channel=0, data=[39, 95]),
   midi.NoteOnEvent(tick=0, channel=0, data=[39, 95]),
   midi.NoteOffEvent(tick=240, channel=0, data=[39, 95]),
   midi.NoteOnEvent(tick=0, channel=0, data=[39, 95]),
   midi.NoteOffEvent(tick=240, channel=0, data=[39, 95]),
   midi.NoteOnEvent(tick=0, channel=0, data=[39, 95]),
   midi.NoteOffEvent(tick=240, channel=0, data=[39, 95]),
   midi.NoteOnEvent(tick=0, channel=0, data=[39, 95]),
   midi.NoteOffEvent(tick=240, channel=0, data=[39, 95]),
   midi.NoteOnEvent(tick=0, channel=0, data=[39, 95]),
   midi.NoteOffEvent(tick=240, channel=0, data=[39, 95]),
   midi.NoteOnEvent(tick=0, channel=0, data=[39, 95]),
   midi.NoteOffEvent(tick=240, channel=0, data=[39, 95]),
   midi.NoteOnEvent(tick=0, channel=0, data=[39, 95]),
   midi.NoteOffEvent(tick=240, channel=0, data=[39, 95]),
   midi.NoteOnEvent(tick=0, channel=0, data=[39, 95]),
   midi.NoteOffEvent(tick=240, channel=0, data=[39, 95]),
   midi.NoteOnEvent(tick=0, channel=0, data=[39, 95]),
   midi.NoteOffEvent(tick=240, channel=0, data=[39, 95]),
   midi.NoteOnEvent(tick=0, channel=0, data=[39, 95]),
   midi.NoteOffEvent(tick=240, channel=0, data=[39, 95]),
   midi.NoteOnEvent(tick=0, channel=0, data=[39, 95]),
   midi.NoteOffEvent(tick=240, channel=0, data=[39, 95]),
   midi.NoteOnEvent(tick=0, channel=0, data=[39, 95]),
   midi.NoteOffEvent(tick=240, channel=0, data=[39, 95]),
   midi.NoteOnEvent(tick=0, channel=0, data=[39, 95]),
   midi.NoteOffEvent(tick=240, channel=0, data=[39, 95]),
   midi.NoteOnEvent(tick=0, channel=0, data=[39, 95]),
   midi.NoteOffEvent(tick=240, channel=0, data=[39, 95]),
   midi.NoteOnEvent(tick=0, channel=0, data=[39, 95]),
   midi.NoteOffEvent(tick=240, channel=0, data=[39, 95]),
   midi.NoteOnEvent(tick=0, channel=0, data=[42, 95]),
   midi.NoteOffEvent(tick=240, channel=0, data=[42, 95]),
   midi.NoteOnEvent(tick=0, channel=0, data=[42, 95]),
   midi.NoteOffEvent(tick=240, channel=0, data=[42, 95]),
   midi.NoteOnEvent(tick=0, channel=0, data=[42, 95]),
   midi.NoteOffEvent(tick=240, channel=0, data=[42, 95]),
   midi.NoteOnEvent(tick=0, channel=0, data=[42, 95]),
   midi.NoteOffEvent(tick=240, channel=0, data=[42, 95]),
   midi.NoteOnEvent(tick=0, channel=0, data=[42, 95]),
   midi.NoteOffEvent(tick=240, channel=0, data=[42, 95]),
   midi.NoteOnEvent(tick=0, channel=0, data=[42, 95]),
   midi.NoteOffEvent(tick=240, channel=0, data=[42, 95]),
   midi.NoteOnEvent(tick=0, channel=0, data=[42, 95]),
   midi.NoteOffEvent(tick=240, channel=0, data=[42, 95]),
   midi.NoteOnEvent(tick=0, channel=0, data=[42, 95]),
   midi.NoteOffEvent(tick=240, channel=0, data=[42, 95]),
   midi.NoteOnEvent(tick=0, channel=0, data=[40, 95]),
   midi.NoteOffEvent(tick=240, channel=0, data=[40, 95]),
   midi.NoteOnEvent(tick=0, channel=0, data=[40, 95]),
   midi.NoteOffEvent(tick=240, channel=0, data=[40, 95]),
   midi.NoteOnEvent(tick=0, channel=0, data=[40, 95]),
   midi.NoteOffEvent(tick=240, channel=0, data=[40, 95]),
   midi.NoteOnEvent(tick=0, channel=0, data=[40, 95]),
   midi.NoteOffEvent(tick=240, channel=0, data=[40, 95]),
   midi.NoteOnEvent(tick=0, channel=0, data=[40, 95]),
   midi.NoteOffEvent(tick=240, channel=0, data=[40, 95]),
   midi.NoteOnEvent(tick=0, channel=0, data=[40, 95]),
   midi.NoteOffEvent(tick=240, channel=0, data=[40, 95]),
   midi.NoteOnEvent(tick=0, channel=0, data=[40, 95]),
   midi.NoteOffEvent(tick=240, channel=0, data=[40, 95]),
   midi.NoteOnEvent(tick=0, channel=0, data=[46, 95]),
   midi.NoteOffEvent(tick=240, channel=0, data=[46, 95]),
   midi.NoteOnEvent(tick=0, channel=0, data=[63, 95]),
   midi.NoteOffEvent(tick=240, channel=0, data=[63, 95]),
   midi.NoteOnEvent(tick=0, channel=0, data=[64, 95]),
   midi.NoteOffEvent(tick=240, channel=0, data=[64, 95]),
   midi.NoteOnEvent(tick=0, channel=0, data=[66, 95]),
   midi.NoteOffEvent(tick=240, channel=0, data=[66, 95]),
   midi.NoteOnEvent(tick=0, channel=0, data=[65, 95]),
   midi.NoteOffEvent(tick=240, channel=0, data=[65, 95]),
   midi.NoteOnEvent(tick=0, channel=0, data=[66, 95]),
   midi.NoteOffEvent(tick=240, channel=0, data=[66, 95]),
   midi.NoteOnEvent(tick=0, channel=0, data=[68, 95]),
   midi.NoteOffEvent(tick=240, channel=0, data=[68, 95]),
   midi.NoteOnEvent(tick=0, channel=0, data=[66, 95]),
   midi.NoteOffEvent(tick=240, channel=0, data=[66, 95]),
   midi.NoteOnEvent(tick=0, channel=0, data=[67, 95]),
   midi.NoteOffEvent(tick=240, channel=0, data=[67, 95]),
   midi.NoteOnEvent(tick=0, channel=0, data=[69, 95]),
   midi.NoteOffEvent(tick=240, channel=0, data=[69, 95]),
   midi.NoteOnEvent(tick=0, channel=0, data=[68, 95]),
   midi.NoteOffEvent(tick=240, channel=0, data=[68, 95]),
   midi.NoteOnEvent(tick=0, channel=0, data=[69, 95]),
   midi.NoteOffEvent(tick=240, channel=0, data=[69, 95]),
   midi.NoteOnEvent(tick=0, channel=0, data=[68, 95]),
   midi.NoteOffEvent(tick=240, channel=0, data=[68, 95]),
   midi.NoteOnEvent(tick=0, channel=0, data=[69, 95]),
   midi.NoteOffEvent(tick=240, channel=0, data=[69, 95]),
   midi.NoteOnEvent(tick=0, channel=0, data=[71, 95]),
   midi.NoteOffEvent(tick=240, channel=0, data=[71, 95]),
   midi.NoteOnEvent(tick=0, channel=0, data=[70, 95]),
   midi.NoteOffEvent(tick=240, channel=0, data=[70, 95]),
   midi.NoteOnEvent(tick=0, channel=0, data=[71, 95]),
   midi.NoteOffEvent(tick=240, channel=0, data=[71, 95]),
   midi.NoteOnEvent(tick=0, channel=0, data=[73, 95]),
   midi.NoteOffEvent(tick=240, channel=0, data=[73, 95]),
   midi.NoteOnEvent(tick=0, channel=0, data=[72, 95]),
   midi.NoteOffEvent(tick=240, channel=0, data=[72, 95]),
   midi.NoteOnEvent(tick=0, channel=0, data=[73, 95]),
   midi.NoteOffEvent(tick=240, channel=0, data=[73, 95]),
   midi.NoteOnEvent(tick=0, channel=0, data=[75, 95]),
   midi.NoteOffEvent(tick=240, channel=0, data=[75, 95]),
   midi.NoteOnEvent(tick=0, channel=0, data=[73, 95]),
   midi.NoteOffEvent(tick=240, channel=0, data=[73, 95]),
   midi.NoteOnEvent(tick=0, channel=0, data=[74, 95]),
   midi.NoteOffEvent(tick=240, channel=0, data=[74, 95]),
   midi.NoteOnEvent(tick=0, channel=0, data=[76, 95]),
   midi.NoteOffEvent(tick=480, channel=0, data=[76, 95]),
   midi.PitchWheelEvent(tick=0, channel=1, data=[0, 64]),
   midi.NoteOnEvent(tick=0, channel=1, data=[85, 95]),
   midi.PitchWheelEvent(tick=87, channel=1, data=[0, 65]),
   midi.PitchWheelEvent(tick=87, channel=1, data=[0, 66]),
   midi.PitchWheelEvent(tick=87, channel=1, data=[0, 67]),
   midi.PitchWheelEvent(tick=87, channel=1, data=[0, 68]),
   midi.PitchWheelEvent(tick=87, channel=1, data=[0, 69]),
   midi.PitchWheelEvent(tick=87, channel=1, data=[0, 70]),
   midi.PitchWheelEvent(tick=87, channel=1, data=[0, 71]),
   midi.PitchWheelEvent(tick=87, channel=1, data=[0, 72]),
   midi.PitchWheelEvent(tick=87, channel=1, data=[0, 73]),
   midi.PitchWheelEvent(tick=87, channel=1, data=[0, 74]),
   midi.PitchWheelEvent(tick=87, channel=1, data=[0, 75]),
   midi.PitchWheelEvent(tick=3, channel=1, data=[0, 75]),
   midi.PitchWheelEvent(tick=960, channel=1, data=[0, 75]),
   midi.PitchWheelEvent(tick=0, channel=1, data=[0, 64]),
   midi.NoteOffEvent(tick=0, channel=1, data=[85, 95]),
   midi.PitchWheelEvent(tick=0, channel=1, data=[0, 64]),
   midi.NoteOnEvent(tick=0, channel=1, data=[85, 95]),
   midi.PitchWheelEvent(tick=87, channel=1, data=[0, 65]),
   midi.PitchWheelEvent(tick=87, channel=1, data=[0, 66]),
   midi.PitchWheelEvent(tick=87, channel=1, data=[0, 67]),
   midi.PitchWheelEvent(tick=87, channel=1, data=[0, 68]),
   midi.PitchWheelEvent(tick=87, channel=1, data=[0, 69]),
   midi.PitchWheelEvent(tick=87, channel=1, data=[0, 70]),
   midi.PitchWheelEvent(tick=87, channel=1, data=[0, 71]),
   midi.PitchWheelEvent(tick=87, channel=1, data=[0, 72]),
   midi.PitchWheelEvent(tick=87, channel=1, data=[0, 73]),
   midi.PitchWheelEvent(tick=87, channel=1, data=[0, 74]),
   midi.PitchWheelEvent(tick=87, channel=1, data=[0, 75]),
   midi.PitchWheelEvent(tick=3, channel=1, data=[0, 75]),
   midi.PitchWheelEvent(tick=960, channel=1, data=[0, 75]),
   midi.PitchWheelEvent(tick=0, channel=1, data=[0, 64]),
   midi.NoteOffEvent(tick=0, channel=1, data=[85, 95]),
   midi.PitchWheelEvent(tick=0, channel=1, data=[0, 64]),
   midi.NoteOnEvent(tick=0, channel=1, data=[85, 95]),
   midi.PitchWheelEvent(tick=261, channel=1, data=[0, 65]),
   midi.PitchWheelEvent(tick=261, channel=1, data=[0, 66]),
   midi.PitchWheelEvent(tick=261, channel=1, data=[0, 67]),
   midi.PitchWheelEvent(tick=261, channel=1, data=[0, 68]),
   midi.PitchWheelEvent(tick=261, channel=1, data=[0, 69]),
   midi.PitchWheelEvent(tick=261, channel=1, data=[0, 70]),
   midi.PitchWheelEvent(tick=261, channel=1, data=[0, 71]),
   midi.PitchWheelEvent(tick=261, channel=1, data=[0, 72]),
   midi.PitchWheelEvent(tick=261, channel=1, data=[0, 73]),
   midi.PitchWheelEvent(tick=261, channel=1, data=[0, 74]),
   midi.PitchWheelEvent(tick=261, channel=1, data=[0, 75]),
   midi.PitchWheelEvent(tick=9, channel=1, data=[0, 75]),
   midi.PitchWheelEvent(tick=2880, channel=1, data=[0, 75]),
   midi.PitchWheelEvent(tick=0, channel=1, data=[0, 64]),
   midi.NoteOffEvent(tick=0, channel=1, data=[85, 95]),
   midi.NoteOnEvent(tick=0, channel=0, data=[82, 95]),
   midi.NoteOffEvent(tick=240, channel=0, data=[82, 95]),
   midi.NoteOnEvent(tick=0, channel=0, data=[84, 95]),
   midi.NoteOffEvent(tick=240, channel=0, data=[84, 95]),
   midi.NoteOnEvent(tick=0, channel=0, data=[82, 95]),
   midi.NoteOffEvent(tick=240, channel=0, data=[82, 95]),
   midi.NoteOnEvent(tick=0, channel=0, data=[85, 95]),
   midi.NoteOffEvent(tick=240, channel=0, data=[85, 95]),
   midi.NoteOnEvent(tick=0, channel=0, data=[82, 95]),
   midi.NoteOffEvent(tick=240, channel=0, data=[82, 95]),
   midi.NoteOnEvent(tick=0, channel=0, data=[84, 95]),
   midi.NoteOffEvent(tick=240, channel=0, data=[84, 95]),
   midi.NoteOnEvent(tick=0, channel=0, data=[82, 95]),
   midi.NoteOffEvent(tick=240, channel=0, data=[82, 95]),
   midi.NoteOnEvent(tick=0, channel=0, data=[85, 95]),
   midi.NoteOffEvent(tick=240, channel=0, data=[85, 95]),
   midi.NoteOnEvent(tick=0, channel=0, data=[82, 95]),
   midi.NoteOffEvent(tick=240, channel=0, data=[82, 95]),
   midi.NoteOnEvent(tick=0, channel=0, data=[84, 95]),
   midi.NoteOffEvent(tick=240, channel=0, data=[84, 95]),
   midi.NoteOnEvent(tick=0, channel=0, data=[82, 95]),
   midi.NoteOffEvent(tick=240, channel=0, data=[82, 95]),
   midi.NoteOnEvent(tick=0, channel=0, data=[85, 95]),
   midi.NoteOffEvent(tick=240, channel=0, data=[85, 95]),
   midi.NoteOnEvent(tick=0, channel=0, data=[82, 95]),
   midi.NoteOffEvent(tick=240, channel=0, data=[82, 95]),
   midi.NoteOnEvent(tick=0, channel=0, data=[84, 95]),
   midi.NoteOffEvent(tick=240, channel=0, data=[84, 95]),
   midi.NoteOnEvent(tick=0, channel=0, data=[82, 95]),
   midi.NoteOffEvent(tick=240, channel=0, data=[82, 95]),
   midi.NoteOnEvent(tick=0, channel=0, data=[85, 95]),
   midi.NoteOffEvent(tick=240, channel=0, data=[85, 95]),
   midi.NoteOnEvent(tick=0, channel=0, data=[82, 95]),
   midi.NoteOffEvent(tick=240, channel=0, data=[82, 95]),
   midi.NoteOnEvent(tick=0, channel=0, data=[84, 95]),
   midi.NoteOffEvent(tick=240, channel=0, data=[84, 95]),
   midi.NoteOnEvent(tick=0, channel=0, data=[82, 95]),
   midi.NoteOffEvent(tick=240, channel=0, data=[82, 95]),
   midi.NoteOnEvent(tick=0, channel=0, data=[85, 95]),
   midi.NoteOffEvent(tick=240, channel=0, data=[85, 95]),
   midi.NoteOnEvent(tick=0, channel=0, data=[82, 95]),
   midi.NoteOffEvent(tick=240, channel=0, data=[82, 95]),
   midi.NoteOnEvent(tick=0, channel=0, data=[84, 95]),
   midi.NoteOffEvent(tick=240, channel=0, data=[84, 95]),
   midi.NoteOnEvent(tick=0, channel=0, data=[82, 95]),
   midi.NoteOffEvent(tick=240, channel=0, data=[82, 95]),
   midi.NoteOnEvent(tick=0, channel=0, data=[85, 95]),
   midi.NoteOffEvent(tick=240, channel=0, data=[85, 95]),
   midi.NoteOnEvent(tick=0, channel=0, data=[82, 95]),
   midi.NoteOffEvent(tick=240, channel=0, data=[82, 95]),
   midi.NoteOnEvent(tick=0, channel=0, data=[84, 95]),
   midi.NoteOffEvent(tick=240, channel=0, data=[84, 95]),
   midi.NoteOnEvent(tick=0, channel=0, data=[82, 95]),
   midi.NoteOffEvent(tick=240, channel=0, data=[82, 95]),
   midi.NoteOnEvent(tick=0, channel=0, data=[85, 95]),
   midi.NoteOffEvent(tick=240, channel=0, data=[85, 95]),
   midi.NoteOnEvent(tick=0, channel=0, data=[82, 95]),
   midi.NoteOffEvent(tick=240, channel=0, data=[82, 95]),
   midi.NoteOnEvent(tick=0, channel=0, data=[84, 95]),
   midi.NoteOffEvent(tick=240, channel=0, data=[84, 95]),
   midi.NoteOnEvent(tick=0, channel=0, data=[82, 95]),
   midi.NoteOffEvent(tick=240, channel=0, data=[82, 95]),
   midi.NoteOnEvent(tick=0, channel=0, data=[85, 95]),
   midi.NoteOffEvent(tick=240, channel=0, data=[85, 95]),
   midi.NoteOnEvent(tick=0, channel=0, data=[82, 95]),
   midi.NoteOffEvent(tick=240, channel=0, data=[82, 95]),
   midi.NoteOnEvent(tick=0, channel=0, data=[83, 95]),
   midi.NoteOffEvent(tick=240, channel=0, data=[83, 95]),
   midi.NoteOnEvent(tick=0, channel=0, data=[85, 95]),
   midi.NoteOffEvent(tick=240, channel=0, data=[85, 95]),
   midi.NoteOnEvent(tick=0, channel=0, data=[83, 95]),
   midi.NoteOffEvent(tick=240, channel=0, data=[83, 95]),
   midi.NoteOnEvent(tick=0, channel=0, data=[82, 95]),
   midi.NoteOffEvent(tick=240, channel=0, data=[82, 95]),
   midi.NoteOnEvent(tick=0, channel=0, data=[79, 95]),
   midi.NoteOffEvent(tick=240, channel=0, data=[79, 95]),
   midi.NoteOnEvent(tick=0, channel=0, data=[76, 95]),
   midi.NoteOffEvent(tick=240, channel=0, data=[76, 95]),
   midi.NoteOnEvent(tick=0, channel=0, data=[77, 95]),
   midi.NoteOffEvent(tick=240, channel=0, data=[77, 95]),
   midi.NoteOnEvent(tick=0, channel=0, data=[76, 95]),
   midi.NoteOffEvent(tick=240, channel=0, data=[76, 95]),
   midi.NoteOnEvent(tick=0, channel=0, data=[75, 95]),
   midi.NoteOffEvent(tick=240, channel=0, data=[75, 95]),
   midi.NoteOnEvent(tick=0, channel=0, data=[72, 95]),
   midi.NoteOffEvent(tick=240, channel=0, data=[72, 95]),
   midi.NoteOnEvent(tick=0, channel=0, data=[73, 95]),
   midi.NoteOffEvent(tick=240, channel=0, data=[73, 95]),
   midi.NoteOnEvent(tick=0, channel=0, data=[72, 95]),
   midi.NoteOffEvent(tick=240, channel=0, data=[72, 95]),
   midi.NoteOnEvent(tick=0, channel=0, data=[70, 95]),
   midi.NoteOffEvent(tick=240, channel=0, data=[70, 95]),
   midi.NoteOnEvent(tick=0, channel=0, data=[67, 95]),
   midi.NoteOffEvent(tick=240, channel=0, data=[67, 95]),
   midi.NoteOnEvent(tick=0, channel=0, data=[68, 95]),
   midi.NoteOffEvent(tick=240, channel=0, data=[68, 95]),
   midi.NoteOnEvent(tick=0, channel=0, data=[67, 95]),
   midi.NoteOffEvent(tick=240, channel=0, data=[67, 95]),
   midi.NoteOnEvent(tick=0, channel=1, data=[65, 95]),
   midi.NoteOffEvent(tick=480, channel=1, data=[65, 95]),
   midi.PitchWheelEvent(tick=0, channel=1, data=[0, 64]),
   midi.NoteOnEvent(tick=0, channel=1, data=[80, 95]),
   midi.PitchWheelEvent(tick=87, channel=1, data=[0, 65]),
   midi.PitchWheelEvent(tick=87, channel=1, data=[0, 66]),
   midi.PitchWheelEvent(tick=87, channel=1, data=[0, 67]),
   midi.PitchWheelEvent(tick=87, channel=1, data=[0, 68]),
   midi.PitchWheelEvent(tick=87, channel=1, data=[0, 69]),
   midi.PitchWheelEvent(tick=87, channel=1, data=[0, 70]),
   midi.PitchWheelEvent(tick=87, channel=1, data=[0, 71]),
   midi.PitchWheelEvent(tick=87, channel=1, data=[0, 72]),
   midi.PitchWheelEvent(tick=87, channel=1, data=[0, 73]),
   midi.PitchWheelEvent(tick=87, channel=1, data=[0, 74]),
   midi.PitchWheelEvent(tick=87, channel=1, data=[0, 75]),
   midi.PitchWheelEvent(tick=3, channel=1, data=[0, 75]),
   midi.PitchWheelEvent(tick=960, channel=1, data=[0, 75]),
   midi.PitchWheelEvent(tick=0, channel=1, data=[0, 64]),
   midi.NoteOffEvent(tick=0, channel=1, data=[80, 95]),
   midi.PitchWheelEvent(tick=0, channel=1, data=[0, 75]),
   midi.NoteOnEvent(tick=0, channel=1, data=[80, 95]),
   midi.PitchWheelEvent(tick=240, channel=1, data=[0, 75]),
   midi.PitchWheelEvent(tick=0, channel=1, data=[0, 64]),
   midi.NoteOffEvent(tick=0, channel=1, data=[80, 95]),
   midi.PitchWheelEvent(tick=0, channel=1, data=[0, 75]),
   midi.NoteOnEvent(tick=0, channel=1, data=[80, 95]),
   midi.PitchWheelEvent(tick=240, channel=1, data=[0, 75]),
   midi.PitchWheelEvent(tick=0, channel=1, data=[0, 64]),
   midi.NoteOffEvent(tick=0, channel=1, data=[80, 95]),
   midi.PitchWheelEvent(tick=0, channel=1, data=[0, 75]),
   midi.NoteOnEvent(tick=0, channel=1, data=[80, 95]),
   midi.PitchWheelEvent(tick=240, channel=1, data=[0, 75]),
   midi.PitchWheelEvent(tick=0, channel=1, data=[0, 64]),
   midi.NoteOffEvent(tick=0, channel=1, data=[80, 95]),
   midi.PitchWheelEvent(tick=0, channel=1, data=[0, 75]),
   midi.NoteOnEvent(tick=0, channel=1, data=[80, 95]),
   midi.PitchWheelEvent(tick=240, channel=1, data=[0, 75]),
   midi.PitchWheelEvent(tick=0, channel=1, data=[0, 64]),
   midi.NoteOffEvent(tick=0, channel=1, data=[80, 95]),
   midi.PitchWheelEvent(tick=0, channel=1, data=[0, 75]),
   midi.NoteOnEvent(tick=0, channel=1, data=[80, 95]),
   midi.PitchWheelEvent(tick=240, channel=1, data=[0, 75]),
   midi.PitchWheelEvent(tick=0, channel=1, data=[0, 64]),
   midi.NoteOffEvent(tick=0, channel=1, data=[80, 95]),
   midi.PitchWheelEvent(tick=0, channel=1, data=[0, 75]),
   midi.NoteOnEvent(tick=0, channel=1, data=[80, 95]),
   midi.PitchWheelEvent(tick=240, channel=1, data=[0, 75]),
   midi.PitchWheelEvent(tick=0, channel=1, data=[0, 64]),
   midi.NoteOffEvent(tick=0, channel=1, data=[80, 95]),
   midi.PitchWheelEvent(tick=0, channel=1, data=[0, 75]),
   midi.NoteOnEvent(tick=0, channel=1, data=[80, 95]),
   midi.PitchWheelEvent(tick=240, channel=1, data=[0, 75]),
   midi.PitchWheelEvent(tick=0, channel=1, data=[0, 64]),
   midi.NoteOffEvent(tick=0, channel=1, data=[80, 95]),
   midi.PitchWheelEvent(tick=0, channel=1, data=[0, 75]),
   midi.NoteOnEvent(tick=0, channel=1, data=[80, 95]),
   midi.PitchWheelEvent(tick=240, channel=1, data=[0, 75]),
   midi.PitchWheelEvent(tick=0, channel=1, data=[0, 64]),
   midi.NoteOffEvent(tick=0, channel=1, data=[80, 95]),
   midi.PitchWheelEvent(tick=0, channel=1, data=[0, 75]),
   midi.NoteOnEvent(tick=0, channel=1, data=[80, 95]),
   midi.PitchWheelEvent(tick=240, channel=1, data=[0, 75]),
   midi.PitchWheelEvent(tick=0, channel=1, data=[0, 64]),
   midi.NoteOffEvent(tick=0, channel=1, data=[80, 95]),
   midi.PitchWheelEvent(tick=0, channel=1, data=[0, 75]),
   midi.NoteOnEvent(tick=0, channel=1, data=[80, 95]),
   midi.PitchWheelEvent(tick=240, channel=1, data=[0, 75]),
   midi.PitchWheelEvent(tick=0, channel=1, data=[0, 64]),
   midi.NoteOffEvent(tick=0, channel=1, data=[80, 95]),
   midi.PitchWheelEvent(tick=0, channel=1, data=[0, 75]),
   midi.NoteOnEvent(tick=0, channel=1, data=[80, 95]),
   midi.PitchWheelEvent(tick=240, channel=1, data=[0, 75]),
   midi.PitchWheelEvent(tick=0, channel=1, data=[0, 64]),
   midi.NoteOffEvent(tick=0, channel=1, data=[80, 95]),
   midi.PitchWheelEvent(tick=0, channel=1, data=[0, 75]),
   midi.NoteOnEvent(tick=0, channel=1, data=[80, 95]),
   midi.PitchWheelEvent(tick=240, channel=1, data=[0, 75]),
   midi.PitchWheelEvent(tick=0, channel=1, data=[0, 64]),
   midi.NoteOffEvent(tick=0, channel=1, data=[80, 95]),
   midi.PitchWheelEvent(tick=0, channel=1, data=[0, 75]),
   midi.NoteOnEvent(tick=0, channel=1, data=[80, 95]),
   midi.PitchWheelEvent(tick=240, channel=1, data=[0, 75]),
   midi.PitchWheelEvent(tick=0, channel=1, data=[0, 64]),
   midi.NoteOffEvent(tick=0, channel=1, data=[80, 95]),
   midi.PitchWheelEvent(tick=0, channel=1, data=[0, 75]),
   midi.NoteOnEvent(tick=0, channel=1, data=[80, 95]),
   midi.PitchWheelEvent(tick=240, channel=1, data=[0, 75]),
   midi.PitchWheelEvent(tick=0, channel=1, data=[0, 64]),
   midi.NoteOffEvent(tick=0, channel=1, data=[80, 95]),
   midi.PitchWheelEvent(tick=0, channel=1, data=[0, 75]),
   midi.NoteOnEvent(tick=0, channel=1, data=[80, 95]),
   midi.PitchWheelEvent(tick=240, channel=1, data=[0, 75]),
   midi.PitchWheelEvent(tick=0, channel=1, data=[0, 64]),
   midi.NoteOffEvent(tick=0, channel=1, data=[80, 95]),
   midi.PitchWheelEvent(tick=0, channel=1, data=[0, 75]),
   midi.NoteOnEvent(tick=0, channel=1, data=[80, 95]),
   midi.PitchWheelEvent(tick=240, channel=1, data=[0, 75]),
   midi.PitchWheelEvent(tick=0, channel=1, data=[0, 64]),
   midi.NoteOffEvent(tick=0, channel=1, data=[80, 95]),
   midi.PitchWheelEvent(tick=0, channel=1, data=[0, 75]),
   midi.NoteOnEvent(tick=0, channel=1, data=[80, 95]),
   midi.PitchWheelEvent(tick=240, channel=1, data=[0, 75]),
   midi.PitchWheelEvent(tick=0, channel=1, data=[0, 64]),
   midi.NoteOffEvent(tick=0, channel=1, data=[80, 95]),
   midi.PitchWheelEvent(tick=0, channel=1, data=[0, 75]),
   midi.NoteOnEvent(tick=0, channel=1, data=[80, 95]),
   midi.PitchWheelEvent(tick=240, channel=1, data=[0, 75]),
   midi.PitchWheelEvent(tick=0, channel=1, data=[0, 64]),
   midi.NoteOffEvent(tick=0, channel=1, data=[80, 95]),
   midi.PitchWheelEvent(tick=0, channel=1, data=[0, 75]),
   midi.NoteOnEvent(tick=0, channel=1, data=[80, 95]),
   midi.PitchWheelEvent(tick=240, channel=1, data=[0, 75]),
   midi.PitchWheelEvent(tick=0, channel=1, data=[0, 64]),
   midi.NoteOffEvent(tick=0, channel=1, data=[80, 95]),
   midi.PitchWheelEvent(tick=0, channel=1, data=[0, 75]),
   midi.NoteOnEvent(tick=0, channel=1, data=[80, 95]),
   midi.PitchWheelEvent(tick=240, channel=1, data=[0, 75]),
   midi.PitchWheelEvent(tick=0, channel=1, data=[0, 64]),
   midi.NoteOffEvent(tick=0, channel=1, data=[80, 95]),
   midi.PitchWheelEvent(tick=0, channel=1, data=[0, 75]),
   midi.NoteOnEvent(tick=0, channel=1, data=[80, 95]),
   midi.PitchWheelEvent(tick=240, channel=1, data=[0, 75]),
   midi.PitchWheelEvent(tick=0, channel=1, data=[0, 64]),
   midi.NoteOffEvent(tick=0, channel=1, data=[80, 95]),
   midi.PitchWheelEvent(tick=0, channel=1, data=[0, 75]),
   midi.NoteOnEvent(tick=0, channel=1, data=[80, 95]),
   midi.PitchWheelEvent(tick=240, channel=1, data=[0, 75]),
   midi.PitchWheelEvent(tick=0, channel=1, data=[0, 64]),
   midi.NoteOffEvent(tick=0, channel=1, data=[80, 95]),
   midi.PitchWheelEvent(tick=0, channel=1, data=[0, 75]),
   midi.NoteOnEvent(tick=0, channel=1, data=[80, 95]),
   midi.PitchWheelEvent(tick=240, channel=1, data=[0, 75]),
   midi.PitchWheelEvent(tick=0, channel=1, data=[0, 64]),
   midi.NoteOffEvent(tick=0, channel=1, data=[80, 95]),
   midi.PitchWheelEvent(tick=0, channel=1, data=[0, 75]),
   midi.NoteOnEvent(tick=0, channel=1, data=[80, 95]),
   midi.PitchWheelEvent(tick=240, channel=1, data=[0, 75]),
   midi.PitchWheelEvent(tick=0, channel=1, data=[0, 64]),
   midi.NoteOffEvent(tick=0, channel=1, data=[80, 95]),
   midi.PitchWheelEvent(tick=0, channel=1, data=[0, 75]),
   midi.NoteOnEvent(tick=0, channel=1, data=[80, 95]),
   midi.PitchWheelEvent(tick=240, channel=1, data=[0, 75]),
   midi.PitchWheelEvent(tick=0, channel=1, data=[0, 64]),
   midi.NoteOffEvent(tick=0, channel=1, data=[80, 95]),
   midi.PitchWheelEvent(tick=0, channel=1, data=[0, 75]),
   midi.NoteOnEvent(tick=0, channel=1, data=[80, 95]),
   midi.PitchWheelEvent(tick=80, channel=1, data=[0, 75]),
   midi.PitchWheelEvent(tick=7, channel=1, data=[0, 74]),
   midi.PitchWheelEvent(tick=7, channel=1, data=[0, 73]),
   midi.PitchWheelEvent(tick=7, channel=1, data=[0, 72]),
   midi.PitchWheelEvent(tick=7, channel=1, data=[0, 71]),
   midi.PitchWheelEvent(tick=7, channel=1, data=[0, 70]),
   midi.PitchWheelEvent(tick=7, channel=1, data=[0, 69]),
   midi.PitchWheelEvent(tick=7, channel=1, data=[0, 68]),
   midi.PitchWheelEvent(tick=7, channel=1, data=[0, 67]),
   midi.PitchWheelEvent(tick=7, channel=1, data=[0, 66]),
   midi.PitchWheelEvent(tick=7, channel=1, data=[0, 65]),
   midi.PitchWheelEvent(tick=7, channel=1, data=[0, 64]),
   midi.PitchWheelEvent(tick=3, channel=1, data=[0, 64]),
   midi.PitchWheelEvent(tick=80, channel=1, data=[0, 64]),
   midi.PitchWheelEvent(tick=0, channel=1, data=[0, 64]),
   midi.NoteOffEvent(tick=0, channel=1, data=[80, 95]),
   midi.NoteOnEvent(tick=0, channel=0, data=[76, 95]),
   midi.NoteOffEvent(tick=240, channel=0, data=[76, 95]),
   midi.NoteOnEvent(tick=0, channel=0, data=[77, 95]),
   midi.NoteOffEvent(tick=240, channel=0, data=[77, 95]),
   midi.NoteOnEvent(tick=0, channel=0, data=[79, 95]),
   midi.NoteOffEvent(tick=240, channel=0, data=[79, 95]),
   midi.NoteOnEvent(tick=0, channel=0, data=[77, 95]),
   midi.NoteOffEvent(tick=240, channel=0, data=[77, 95]),
   midi.NoteOnEvent(tick=0, channel=0, data=[76, 95]),
   midi.NoteOffEvent(tick=240, channel=0, data=[76, 95]),
   midi.NoteOnEvent(tick=0, channel=0, data=[77, 95]),
   midi.NoteOffEvent(tick=240, channel=0, data=[77, 95]),
   midi.NoteOnEvent(tick=0, channel=0, data=[79, 95]),
   midi.NoteOffEvent(tick=240, channel=0, data=[79, 95]),
   midi.NoteOnEvent(tick=0, channel=0, data=[77, 95]),
   midi.NoteOffEvent(tick=240, channel=0, data=[77, 95]),
   midi.NoteOnEvent(tick=0, channel=0, data=[76, 95]),
   midi.NoteOffEvent(tick=240, channel=0, data=[76, 95]),
   midi.NoteOnEvent(tick=0, channel=0, data=[77, 95]),
   midi.NoteOffEvent(tick=240, channel=0, data=[77, 95]),
   midi.NoteOnEvent(tick=0, channel=0, data=[79, 95]),
   midi.NoteOffEvent(tick=240, channel=0, data=[79, 95]),
   midi.NoteOnEvent(tick=0, channel=0, data=[77, 95]),
   midi.NoteOffEvent(tick=240, channel=0, data=[77, 95]),
   midi.NoteOnEvent(tick=0, channel=0, data=[76, 95]),
   midi.NoteOffEvent(tick=240, channel=0, data=[76, 95]),
   midi.NoteOnEvent(tick=0, channel=0, data=[77, 95]),
   midi.NoteOffEvent(tick=240, channel=0, data=[77, 95]),
   midi.NoteOnEvent(tick=0, channel=0, data=[79, 95]),
   midi.NoteOffEvent(tick=240, channel=0, data=[79, 95]),
   midi.NoteOnEvent(tick=0, channel=0, data=[77, 95]),
   midi.NoteOffEvent(tick=240, channel=0, data=[77, 95]),
   midi.NoteOnEvent(tick=0, channel=0, data=[76, 95]),
   midi.NoteOffEvent(tick=240, channel=0, data=[76, 95]),
   midi.NoteOnEvent(tick=0, channel=0, data=[77, 95]),
   midi.NoteOffEvent(tick=240, channel=0, data=[77, 95]),
   midi.NoteOnEvent(tick=0, channel=0, data=[79, 95]),
   midi.NoteOffEvent(tick=240, channel=0, data=[79, 95]),
   midi.NoteOnEvent(tick=0, channel=0, data=[76, 95]),
   midi.NoteOffEvent(tick=240, channel=0, data=[76, 95]),
   midi.NoteOnEvent(tick=0, channel=0, data=[77, 95]),
   midi.NoteOffEvent(tick=240, channel=0, data=[77, 95]),
   midi.NoteOnEvent(tick=0, channel=0, data=[79, 95]),
   midi.NoteOffEvent(tick=240, channel=0, data=[79, 95]),
   midi.NoteOnEvent(tick=0, channel=0, data=[77, 95]),
   midi.NoteOffEvent(tick=240, channel=0, data=[77, 95]),
   midi.NoteOnEvent(tick=0, channel=0, data=[76, 95]),
   midi.NoteOffEvent(tick=240, channel=0, data=[76, 95]),
   midi.NoteOnEvent(tick=0, channel=0, data=[79, 95]),
   midi.NoteOffEvent(tick=240, channel=0, data=[79, 95]),
   midi.NoteOnEvent(tick=0, channel=0, data=[77, 95]),
   midi.NoteOffEvent(tick=240, channel=0, data=[77, 95]),
   midi.NoteOnEvent(tick=0, channel=0, data=[76, 95]),
   midi.NoteOffEvent(tick=240, channel=0, data=[76, 95]),
   midi.NoteOnEvent(tick=0, channel=0, data=[76, 95]),
   midi.NoteOffEvent(tick=240, channel=0, data=[76, 95]),
   midi.NoteOnEvent(tick=0, channel=0, data=[77, 95]),
   midi.NoteOffEvent(tick=240, channel=0, data=[77, 95]),
   midi.NoteOnEvent(tick=0, channel=0, data=[79, 95]),
   midi.NoteOffEvent(tick=240, channel=0, data=[79, 95]),
   midi.NoteOnEvent(tick=0, channel=0, data=[81, 95]),
   midi.NoteOffEvent(tick=240, channel=0, data=[81, 95]),
   midi.NoteOnEvent(tick=0, channel=0, data=[76, 95]),
   midi.NoteOffEvent(tick=240, channel=0, data=[76, 95]),
   midi.NoteOnEvent(tick=0, channel=0, data=[77, 95]),
   midi.NoteOffEvent(tick=240, channel=0, data=[77, 95]),
   midi.NoteOnEvent(tick=0, channel=0, data=[76, 95]),
   midi.NoteOffEvent(tick=240, channel=0, data=[76, 95]),
   midi.NoteOnEvent(tick=0, channel=0, data=[75, 95]),
   midi.NoteOffEvent(tick=240, channel=0, data=[75, 95]),
   midi.NoteOnEvent(tick=0, channel=0, data=[72, 95]),
   midi.NoteOffEvent(tick=240, channel=0, data=[72, 95]),
   midi.NoteOnEvent(tick=0, channel=0, data=[73, 95]),
   midi.NoteOffEvent(tick=240, channel=0, data=[73, 95]),
   midi.NoteOnEvent(tick=0, channel=0, data=[72, 95]),
   midi.NoteOffEvent(tick=240, channel=0, data=[72, 95]),
   midi.NoteOnEvent(tick=0, channel=0, data=[71, 95]),
   midi.NoteOffEvent(tick=240, channel=0, data=[71, 95]),
   midi.NoteOnEvent(tick=0, channel=0, data=[68, 95]),
   midi.NoteOffEvent(tick=240, channel=0, data=[68, 95]),
   midi.NoteOnEvent(tick=0, channel=0, data=[69, 95]),
   midi.NoteOffEvent(tick=240, channel=0, data=[69, 95]),
   midi.NoteOnEvent(tick=0, channel=0, data=[68, 95]),
   midi.NoteOffEvent(tick=240, channel=0, data=[68, 95]),
   midi.NoteOnEvent(tick=0, channel=0, data=[66, 95]),
   midi.NoteOffEvent(tick=240, channel=0, data=[66, 95]),
   midi.NoteOnEvent(tick=0, channel=0, data=[63, 95]),
   midi.NoteOffEvent(tick=240, channel=0, data=[63, 95]),
   midi.NoteOnEvent(tick=0, channel=0, data=[64, 95]),
   midi.NoteOffEvent(tick=240, channel=0, data=[64, 95]),
   midi.NoteOnEvent(tick=0, channel=0, data=[63, 95]),
   midi.NoteOffEvent(tick=240, channel=0, data=[63, 95]),
   midi.NoteOnEvent(tick=0, channel=0, data=[61, 95]),
   midi.NoteOffEvent(tick=240, channel=0, data=[61, 95]),
   midi.NoteOnEvent(tick=0, channel=0, data=[58, 95]),
   midi.NoteOffEvent(tick=240, channel=0, data=[58, 95]),
   midi.NoteOnEvent(tick=0, channel=0, data=[59, 95]),
   midi.NoteOffEvent(tick=240, channel=0, data=[59, 95]),
   midi.NoteOnEvent(tick=0, channel=0, data=[58, 95]),
   midi.NoteOffEvent(tick=240, channel=0, data=[58, 95]),
   midi.NoteOnEvent(tick=0, channel=0, data=[56, 95]),
   midi.NoteOffEvent(tick=240, channel=0, data=[56, 95]),
   midi.NoteOnEvent(tick=0, channel=0, data=[53, 95]),
   midi.NoteOffEvent(tick=240, channel=0, data=[53, 95]),
   midi.NoteOnEvent(tick=0, channel=0, data=[54, 95]),
   midi.NoteOffEvent(tick=240, channel=0, data=[54, 95]),
   midi.NoteOnEvent(tick=0, channel=0, data=[53, 95]),
   midi.NoteOffEvent(tick=240, channel=0, data=[53, 95]),
   midi.NoteOnEvent(tick=240, channel=0, data=[48, 95]),
   midi.NoteOffEvent(tick=240, channel=0, data=[48, 95]),
   midi.NoteOnEvent(tick=0, channel=0, data=[51, 95]),
   midi.NoteOffEvent(tick=240, channel=0, data=[51, 95]),
   midi.NoteOnEvent(tick=0, channel=0, data=[48, 95]),
   midi.NoteOffEvent(tick=240, channel=0, data=[48, 95]),
   midi.NoteOnEvent(tick=0, channel=0, data=[51, 95]),
   midi.NoteOffEvent(tick=240, channel=0, data=[51, 95]),
   midi.NoteOnEvent(tick=0, channel=0, data=[51, 95]),
   midi.NoteOffEvent(tick=240, channel=0, data=[51, 95]),
   midi.NoteOnEvent(tick=0, channel=0, data=[54, 95]),
   midi.NoteOffEvent(tick=240, channel=0, data=[54, 95]),
   midi.NoteOnEvent(tick=0, channel=0, data=[51, 95]),
   midi.NoteOffEvent(tick=240, channel=0, data=[51, 95]),
   midi.NoteOnEvent(tick=0, channel=0, data=[54, 95]),
   midi.NoteOffEvent(tick=240, channel=0, data=[54, 95]),
   midi.NoteOnEvent(tick=0, channel=0, data=[56, 95]),
   midi.NoteOffEvent(tick=240, channel=0, data=[56, 95]),
   midi.NoteOnEvent(tick=0, channel=0, data=[58, 95]),
   midi.NoteOffEvent(tick=240, channel=0, data=[58, 95]),
   midi.NoteOnEvent(tick=0, channel=0, data=[56, 95]),
   midi.NoteOffEvent(tick=240, channel=0, data=[56, 95]),
   midi.NoteOnEvent(tick=0, channel=0, data=[58, 95]),
   midi.NoteOffEvent(tick=240, channel=0, data=[58, 95]),
   midi.NoteOnEvent(tick=0, channel=0, data=[61, 95]),
   midi.NoteOffEvent(tick=240, channel=0, data=[61, 95]),
   midi.NoteOnEvent(tick=0, channel=0, data=[63, 95]),
   midi.NoteOffEvent(tick=240, channel=0, data=[63, 95]),
   midi.NoteOnEvent(tick=0, channel=0, data=[61, 95]),
   midi.NoteOffEvent(tick=240, channel=0, data=[61, 95]),
   midi.NoteOnEvent(tick=0, channel=0, data=[63, 95]),
   midi.NoteOffEvent(tick=240, channel=0, data=[63, 95]),
   midi.NoteOnEvent(tick=0, channel=0, data=[66, 95]),
   midi.NoteOffEvent(tick=240, channel=0, data=[66, 95]),
   midi.NoteOnEvent(tick=0, channel=0, data=[68, 95]),
   midi.NoteOffEvent(tick=240, channel=0, data=[68, 95]),
   midi.NoteOnEvent(tick=0, channel=0, data=[66, 95]),
   midi.NoteOffEvent(tick=240, channel=0, data=[66, 95]),
   midi.NoteOnEvent(tick=0, channel=0, data=[68, 95]),
   midi.NoteOffEvent(tick=240, channel=0, data=[68, 95]),
   midi.PitchWheelEvent(tick=0, channel=1, data=[0, 64]),
   midi.NoteOnEvent(tick=0, channel=1, data=[75, 95]),
   midi.PitchWheelEvent(tick=0, channel=1, data=[0, 64]),
   midi.NoteOnEvent(tick=0, channel=1, data=[70, 95]),
   midi.PitchWheelEvent(tick=349, channel=1, data=[0, 65]),
   midi.PitchWheelEvent(tick=0, channel=1, data=[0, 65]),
   midi.PitchWheelEvent(tick=349, channel=1, data=[0, 66]),
   midi.PitchWheelEvent(tick=0, channel=1, data=[0, 66]),
   midi.PitchWheelEvent(tick=349, channel=1, data=[0, 67]),
   midi.PitchWheelEvent(tick=0, channel=1, data=[0, 67]),
   midi.PitchWheelEvent(tick=349, channel=1, data=[0, 68]),
   midi.PitchWheelEvent(tick=0, channel=1, data=[0, 68]),
   midi.PitchWheelEvent(tick=349, channel=1, data=[0, 69]),
   midi.PitchWheelEvent(tick=0, channel=1, data=[0, 69]),
   midi.PitchWheelEvent(tick=349, channel=1, data=[0, 70]),
   midi.PitchWheelEvent(tick=0, channel=1, data=[0, 70]),
   midi.PitchWheelEvent(tick=349, channel=1, data=[0, 71]),
   midi.PitchWheelEvent(tick=0, channel=1, data=[0, 71]),
   midi.PitchWheelEvent(tick=349, channel=1, data=[0, 72]),
   midi.PitchWheelEvent(tick=0, channel=1, data=[0, 72]),
   midi.PitchWheelEvent(tick=349, channel=1, data=[0, 73]),
   midi.PitchWheelEvent(tick=0, channel=1, data=[0, 73]),
   midi.PitchWheelEvent(tick=349, channel=1, data=[0, 74]),
   midi.PitchWheelEvent(tick=0, channel=1, data=[0, 74]),
   midi.PitchWheelEvent(tick=349, channel=1, data=[0, 75]),
   midi.PitchWheelEvent(tick=0, channel=1, data=[0, 75]),
   midi.PitchWheelEvent(tick=1, channel=1, data=[0, 75]),
   midi.PitchWheelEvent(tick=0, channel=1, data=[0, 75]),
   midi.PitchWheelEvent(tick=3840, channel=1, data=[0, 75]),
   midi.PitchWheelEvent(tick=0, channel=1, data=[0, 64]),
   midi.NoteOffEvent(tick=0, channel=1, data=[75, 95]),
   midi.PitchWheelEvent(tick=0, channel=1, data=[0, 75]),
   midi.PitchWheelEvent(tick=0, channel=1, data=[0, 64]),
   midi.NoteOffEvent(tick=0, channel=1, data=[70, 95]),
   midi.NoteOnEvent(tick=3840, channel=0, data=[46, 95]),
   midi.NoteOffEvent(tick=240, channel=0, data=[46, 95]),
   midi.NoteOnEvent(tick=0, channel=0, data=[46, 95]),
   midi.NoteOffEvent(tick=240, channel=0, data=[46, 95]),
   midi.NoteOnEvent(tick=0, channel=0, data=[46, 95]),
   midi.NoteOffEvent(tick=240, channel=0, data=[46, 95]),
   midi.NoteOnEvent(tick=0, channel=0, data=[46, 95]),
   midi.NoteOffEvent(tick=240, channel=0, data=[46, 95]),
   midi.NoteOnEvent(tick=0, channel=0, data=[46, 95]),
   midi.NoteOffEvent(tick=240, channel=0, data=[46, 95]),
   midi.NoteOnEvent(tick=0, channel=0, data=[46, 95]),
   midi.NoteOffEvent(tick=240, channel=0, data=[46, 95]),
   midi.NoteOnEvent(tick=0, channel=0, data=[46, 95]),
   midi.NoteOffEvent(tick=240, channel=0, data=[46, 95]),
   midi.NoteOnEvent(tick=0, channel=0, data=[46, 95]),
   midi.NoteOffEvent(tick=240, channel=0, data=[46, 95]),
   midi.NoteOnEvent(tick=0, channel=0, data=[48, 95]),
   midi.NoteOffEvent(tick=640, channel=0, data=[48, 95]),
   midi.NoteOnEvent(tick=0, channel=0, data=[51, 95]),
   midi.NoteOffEvent(tick=640, channel=0, data=[51, 95]),
   midi.NoteOnEvent(tick=0, channel=0, data=[50, 95]),
   midi.NoteOffEvent(tick=640, channel=0, data=[50, 95]),
   midi.NoteOnEvent(tick=0, channel=0, data=[46, 95]),
   midi.NoteOffEvent(tick=240, channel=0, data=[46, 95]),
   midi.NoteOnEvent(tick=0, channel=0, data=[46, 95]),
   midi.NoteOffEvent(tick=240, channel=0, data=[46, 95]),
   midi.NoteOnEvent(tick=0, channel=0, data=[46, 95]),
   midi.NoteOffEvent(tick=240, channel=0, data=[46, 95]),
   midi.NoteOnEvent(tick=0, channel=0, data=[46, 95]),
   midi.NoteOffEvent(tick=240, channel=0, data=[46, 95]),
   midi.NoteOnEvent(tick=0, channel=0, data=[46, 95]),
   midi.NoteOffEvent(tick=240, channel=0, data=[46, 95]),
   midi.NoteOnEvent(tick=0, channel=0, data=[46, 95]),
   midi.NoteOffEvent(tick=240, channel=0, data=[46, 95]),
   midi.NoteOnEvent(tick=0, channel=0, data=[46, 95]),
   midi.NoteOffEvent(tick=240, channel=0, data=[46, 95]),
   midi.NoteOnEvent(tick=0, channel=0, data=[46, 95]),
   midi.NoteOffEvent(tick=240, channel=0, data=[46, 95]),
   midi.NoteOnEvent(tick=0, channel=0, data=[48, 95]),
   midi.NoteOffEvent(tick=640, channel=0, data=[48, 95]),
   midi.NoteOnEvent(tick=0, channel=0, data=[51, 95]),
   midi.NoteOffEvent(tick=640, channel=0, data=[51, 95]),
   midi.NoteOnEvent(tick=0, channel=0, data=[50, 95]),
   midi.NoteOffEvent(tick=640, channel=0, data=[50, 95]),
   midi.NoteOnEvent(tick=0, channel=0, data=[46, 95]),
   midi.NoteOffEvent(tick=240, channel=0, data=[46, 95]),
   midi.NoteOnEvent(tick=0, channel=0, data=[46, 95]),
   midi.NoteOffEvent(tick=240, channel=0, data=[46, 95]),
   midi.NoteOnEvent(tick=0, channel=0, data=[46, 95]),
   midi.NoteOffEvent(tick=240, channel=0, data=[46, 95]),
   midi.NoteOnEvent(tick=0, channel=0, data=[46, 95]),
   midi.NoteOffEvent(tick=240, channel=0, data=[46, 95]),
   midi.NoteOnEvent(tick=0, channel=0, data=[46, 95]),
   midi.NoteOffEvent(tick=240, channel=0, data=[46, 95]),
   midi.NoteOnEvent(tick=0, channel=0, data=[46, 95]),
   midi.NoteOffEvent(tick=240, channel=0, data=[46, 95]),
   midi.NoteOnEvent(tick=0, channel=0, data=[46, 95]),
   midi.NoteOffEvent(tick=240, channel=0, data=[46, 95]),
   midi.NoteOnEvent(tick=0, channel=0, data=[46, 95]),
   midi.NoteOffEvent(tick=240, channel=0, data=[46, 95]),
   midi.NoteOnEvent(tick=0, channel=0, data=[48, 95]),
   midi.NoteOffEvent(tick=640, channel=0, data=[48, 95]),
   midi.NoteOnEvent(tick=0, channel=0, data=[51, 95]),
   midi.NoteOffEvent(tick=640, channel=0, data=[51, 95]),
   midi.NoteOnEvent(tick=0, channel=0, data=[50, 95]),
   midi.NoteOffEvent(tick=640, channel=0, data=[50, 95]),
   midi.NoteOnEvent(tick=0, channel=0, data=[46, 95]),
   midi.NoteOffEvent(tick=240, channel=0, data=[46, 95]),
   midi.NoteOnEvent(tick=0, channel=0, data=[46, 95]),
   midi.NoteOffEvent(tick=240, channel=0, data=[46, 95]),
   midi.NoteOnEvent(tick=0, channel=0, data=[46, 95]),
   midi.NoteOffEvent(tick=240, channel=0, data=[46, 95]),
   midi.NoteOnEvent(tick=0, channel=0, data=[46, 95]),
   midi.NoteOffEvent(tick=240, channel=0, data=[46, 95]),
   midi.NoteOnEvent(tick=0, channel=0, data=[46, 95]),
   midi.NoteOffEvent(tick=240, channel=0, data=[46, 95]),
   midi.NoteOnEvent(tick=0, channel=0, data=[46, 95]),
   midi.NoteOffEvent(tick=240, channel=0, data=[46, 95]),
   midi.NoteOnEvent(tick=0, channel=0, data=[46, 95]),
   midi.NoteOffEvent(tick=240, channel=0, data=[46, 95]),
   midi.NoteOnEvent(tick=0, channel=0, data=[46, 95]),
   midi.NoteOffEvent(tick=240, channel=0, data=[46, 95]),
   midi.NoteOnEvent(tick=0, channel=0, data=[47, 95]),
   midi.NoteOffEvent(tick=640, channel=0, data=[47, 95]),
   midi.NoteOnEvent(tick=0, channel=0, data=[48, 95]),
   midi.NoteOffEvent(tick=640, channel=0, data=[48, 95]),
   midi.NoteOnEvent(tick=0, channel=0, data=[49, 95]),
   midi.NoteOffEvent(tick=640, channel=0, data=[49, 95]),
   midi.NoteOnEvent(tick=0, channel=0, data=[46, 95]),
   midi.NoteOffEvent(tick=240, channel=0, data=[46, 95]),
   midi.NoteOnEvent(tick=0, channel=0, data=[46, 95]),
   midi.NoteOffEvent(tick=240, channel=0, data=[46, 95]),
   midi.NoteOnEvent(tick=0, channel=0, data=[46, 95]),
   midi.NoteOffEvent(tick=240, channel=0, data=[46, 95]),
   midi.NoteOnEvent(tick=0, channel=0, data=[46, 95]),
   midi.NoteOffEvent(tick=240, channel=0, data=[46, 95]),
   midi.NoteOnEvent(tick=0, channel=0, data=[46, 95]),
   midi.NoteOffEvent(tick=240, channel=0, data=[46, 95]),
   midi.NoteOnEvent(tick=0, channel=0, data=[46, 95]),
   midi.NoteOffEvent(tick=240, channel=0, data=[46, 95]),
   midi.NoteOnEvent(tick=0, channel=0, data=[46, 95]),
   midi.NoteOffEvent(tick=240, channel=0, data=[46, 95]),
   midi.NoteOnEvent(tick=0, channel=0, data=[46, 95]),
   midi.NoteOffEvent(tick=240, channel=0, data=[46, 95]),
   midi.NoteOnEvent(tick=0, channel=0, data=[48, 95]),
   midi.NoteOffEvent(tick=640, channel=0, data=[48, 95]),
   midi.NoteOnEvent(tick=0, channel=0, data=[51, 95]),
   midi.NoteOffEvent(tick=640, channel=0, data=[51, 95]),
   midi.NoteOnEvent(tick=0, channel=0, data=[50, 95]),
   midi.NoteOffEvent(tick=640, channel=0, data=[50, 95]),
   midi.NoteOnEvent(tick=0, channel=0, data=[46, 95]),
   midi.NoteOffEvent(tick=240, channel=0, data=[46, 95]),
   midi.NoteOnEvent(tick=0, channel=0, data=[46, 95]),
   midi.NoteOffEvent(tick=240, channel=0, data=[46, 95]),
   midi.NoteOnEvent(tick=0, channel=0, data=[46, 95]),
   midi.NoteOffEvent(tick=240, channel=0, data=[46, 95]),
   midi.NoteOnEvent(tick=0, channel=0, data=[46, 95]),
   midi.NoteOffEvent(tick=240, channel=0, data=[46, 95]),
   midi.NoteOnEvent(tick=0, channel=0, data=[46, 95]),
   midi.NoteOffEvent(tick=240, channel=0, data=[46, 95]),
   midi.NoteOnEvent(tick=0, channel=0, data=[46, 95]),
   midi.NoteOffEvent(tick=240, channel=0, data=[46, 95]),
   midi.NoteOnEvent(tick=0, channel=0, data=[46, 95]),
   midi.NoteOffEvent(tick=240, channel=0, data=[46, 95]),
   midi.NoteOnEvent(tick=0, channel=0, data=[46, 95]),
   midi.NoteOffEvent(tick=240, channel=0, data=[46, 95]),
   midi.NoteOnEvent(tick=0, channel=0, data=[48, 95]),
   midi.NoteOffEvent(tick=640, channel=0, data=[48, 95]),
   midi.NoteOnEvent(tick=0, channel=0, data=[51, 95]),
   midi.NoteOffEvent(tick=640, channel=0, data=[51, 95]),
   midi.NoteOnEvent(tick=0, channel=0, data=[50, 95]),
   midi.NoteOffEvent(tick=640, channel=0, data=[50, 95]),
   midi.NoteOnEvent(tick=0, channel=0, data=[46, 95]),
   midi.NoteOffEvent(tick=240, channel=0, data=[46, 95]),
   midi.NoteOnEvent(tick=0, channel=0, data=[46, 95]),
   midi.NoteOffEvent(tick=240, channel=0, data=[46, 95]),
   midi.NoteOnEvent(tick=0, channel=0, data=[46, 95]),
   midi.NoteOffEvent(tick=240, channel=0, data=[46, 95]),
   midi.NoteOnEvent(tick=0, channel=0, data=[46, 95]),
   midi.NoteOffEvent(tick=240, channel=0, data=[46, 95]),
   midi.NoteOnEvent(tick=0, channel=0, data=[46, 95]),
   midi.NoteOffEvent(tick=240, channel=0, data=[46, 95]),
   midi.NoteOnEvent(tick=0, channel=0, data=[46, 95]),
   midi.NoteOffEvent(tick=240, channel=0, data=[46, 95]),
   midi.NoteOnEvent(tick=0, channel=0, data=[46, 95]),
   midi.NoteOffEvent(tick=240, channel=0, data=[46, 95]),
   midi.NoteOnEvent(tick=0, channel=0, data=[46, 95]),
   midi.NoteOffEvent(tick=240, channel=0, data=[46, 95]),
   midi.NoteOnEvent(tick=0, channel=0, data=[48, 95]),
   midi.NoteOffEvent(tick=640, channel=0, data=[48, 95]),
   midi.NoteOnEvent(tick=0, channel=0, data=[51, 95]),
   midi.NoteOffEvent(tick=640, channel=0, data=[51, 95]),
   midi.NoteOnEvent(tick=0, channel=0, data=[50, 95]),
   midi.NoteOffEvent(tick=640, channel=0, data=[50, 95]),
   midi.NoteOnEvent(tick=0, channel=0, data=[46, 95]),
   midi.NoteOffEvent(tick=240, channel=0, data=[46, 95]),
   midi.NoteOnEvent(tick=0, channel=0, data=[46, 95]),
   midi.NoteOffEvent(tick=240, channel=0, data=[46, 95]),
   midi.NoteOnEvent(tick=0, channel=0, data=[46, 95]),
   midi.NoteOffEvent(tick=240, channel=0, data=[46, 95]),
   midi.NoteOnEvent(tick=0, channel=0, data=[46, 95]),
   midi.NoteOffEvent(tick=240, channel=0, data=[46, 95]),
   midi.NoteOnEvent(tick=0, channel=0, data=[46, 95]),
   midi.NoteOffEvent(tick=240, channel=0, data=[46, 95]),
   midi.NoteOnEvent(tick=0, channel=0, data=[46, 95]),
   midi.NoteOffEvent(tick=240, channel=0, data=[46, 95]),
   midi.NoteOnEvent(tick=0, channel=0, data=[46, 95]),
   midi.NoteOffEvent(tick=240, channel=0, data=[46, 95]),
   midi.NoteOnEvent(tick=0, channel=0, data=[46, 95]),
   midi.NoteOffEvent(tick=240, channel=0, data=[46, 95]),
   midi.NoteOnEvent(tick=0, channel=0, data=[47, 95]),
   midi.NoteOffEvent(tick=640, channel=0, data=[47, 95]),
   midi.NoteOnEvent(tick=0, channel=0, data=[48, 95]),
   midi.NoteOffEvent(tick=640, channel=0, data=[48, 95]),
   midi.NoteOnEvent(tick=0, channel=0, data=[49, 95]),
   midi.NoteOffEvent(tick=640, channel=0, data=[49, 95]),
   midi.NoteOnEvent(tick=0, channel=0, data=[46, 95]),
   midi.NoteOffEvent(tick=240, channel=0, data=[46, 95]),
   midi.NoteOnEvent(tick=0, channel=0, data=[46, 95]),
   midi.NoteOffEvent(tick=240, channel=0, data=[46, 95]),
   midi.NoteOnEvent(tick=0, channel=0, data=[46, 95]),
   midi.NoteOffEvent(tick=240, channel=0, data=[46, 95]),
   midi.NoteOnEvent(tick=0, channel=0, data=[46, 95]),
   midi.NoteOffEvent(tick=240, channel=0, data=[46, 95]),
   midi.NoteOnEvent(tick=0, channel=0, data=[46, 95]),
   midi.NoteOffEvent(tick=240, channel=0, data=[46, 95]),
   midi.NoteOnEvent(tick=0, channel=0, data=[46, 95]),
   midi.NoteOffEvent(tick=240, channel=0, data=[46, 95]),
   midi.NoteOnEvent(tick=0, channel=0, data=[46, 95]),
   midi.NoteOffEvent(tick=240, channel=0, data=[46, 95]),
   midi.NoteOnEvent(tick=0, channel=0, data=[46, 95]),
   midi.NoteOffEvent(tick=240, channel=0, data=[46, 95]),
   midi.NoteOnEvent(tick=0, channel=0, data=[48, 95]),
   midi.NoteOffEvent(tick=640, channel=0, data=[48, 95]),
   midi.NoteOnEvent(tick=0, channel=0, data=[51, 95]),
   midi.NoteOffEvent(tick=640, channel=0, data=[51, 95]),
   midi.NoteOnEvent(tick=0, channel=0, data=[50, 95]),
   midi.NoteOffEvent(tick=640, channel=0, data=[50, 95]),
   midi.NoteOnEvent(tick=0, channel=0, data=[46, 95]),
   midi.NoteOffEvent(tick=240, channel=0, data=[46, 95]),
   midi.NoteOnEvent(tick=0, channel=0, data=[46, 95]),
   midi.NoteOffEvent(tick=240, channel=0, data=[46, 95]),
   midi.NoteOnEvent(tick=0, channel=0, data=[46, 95]),
   midi.NoteOffEvent(tick=240, channel=0, data=[46, 95]),
   midi.NoteOnEvent(tick=0, channel=0, data=[46, 95]),
   midi.NoteOffEvent(tick=240, channel=0, data=[46, 95]),
   midi.NoteOnEvent(tick=0, channel=0, data=[46, 95]),
   midi.NoteOffEvent(tick=240, channel=0, data=[46, 95]),
   midi.NoteOnEvent(tick=0, channel=0, data=[46, 95]),
   midi.NoteOffEvent(tick=240, channel=0, data=[46, 95]),
   midi.NoteOnEvent(tick=0, channel=0, data=[46, 95]),
   midi.NoteOffEvent(tick=240, channel=0, data=[46, 95]),
   midi.NoteOnEvent(tick=0, channel=0, data=[46, 95]),
   midi.NoteOffEvent(tick=240, channel=0, data=[46, 95]),
   midi.NoteOnEvent(tick=0, channel=0, data=[48, 95]),
   midi.NoteOffEvent(tick=640, channel=0, data=[48, 95]),
   midi.NoteOnEvent(tick=0, channel=0, data=[51, 95]),
   midi.NoteOffEvent(tick=640, channel=0, data=[51, 95]),
   midi.NoteOnEvent(tick=0, channel=0, data=[50, 95]),
   midi.NoteOffEvent(tick=640, channel=0, data=[50, 95]),
   midi.NoteOnEvent(tick=0, channel=0, data=[46, 95]),
   midi.NoteOffEvent(tick=240, channel=0, data=[46, 95]),
   midi.NoteOnEvent(tick=0, channel=0, data=[46, 95]),
   midi.NoteOffEvent(tick=240, channel=0, data=[46, 95]),
   midi.NoteOnEvent(tick=0, channel=0, data=[46, 95]),
   midi.NoteOffEvent(tick=240, channel=0, data=[46, 95]),
   midi.NoteOnEvent(tick=0, channel=0, data=[46, 95]),
   midi.NoteOffEvent(tick=240, channel=0, data=[46, 95]),
   midi.NoteOnEvent(tick=0, channel=0, data=[46, 95]),
   midi.NoteOffEvent(tick=240, channel=0, data=[46, 95]),
   midi.NoteOnEvent(tick=0, channel=0, data=[46, 95]),
   midi.NoteOffEvent(tick=240, channel=0, data=[46, 95]),
   midi.NoteOnEvent(tick=0, channel=0, data=[46, 95]),
   midi.NoteOffEvent(tick=240, channel=0, data=[46, 95]),
   midi.NoteOnEvent(tick=0, channel=0, data=[46, 95]),
   midi.NoteOffEvent(tick=240, channel=0, data=[46, 95]),
   midi.NoteOnEvent(tick=0, channel=0, data=[48, 95]),
   midi.NoteOffEvent(tick=640, channel=0, data=[48, 95]),
   midi.NoteOnEvent(tick=0, channel=0, data=[51, 95]),
   midi.NoteOffEvent(tick=640, channel=0, data=[51, 95]),
   midi.NoteOnEvent(tick=0, channel=0, data=[50, 95]),
   midi.NoteOffEvent(tick=640, channel=0, data=[50, 95]),
   midi.NoteOnEvent(tick=0, channel=0, data=[46, 95]),
   midi.NoteOffEvent(tick=240, channel=0, data=[46, 95]),
   midi.NoteOnEvent(tick=0, channel=0, data=[46, 95]),
   midi.NoteOffEvent(tick=240, channel=0, data=[46, 95]),
   midi.NoteOnEvent(tick=0, channel=0, data=[46, 95]),
   midi.NoteOffEvent(tick=240, channel=0, data=[46, 95]),
   midi.NoteOnEvent(tick=0, channel=0, data=[46, 95]),
   midi.NoteOffEvent(tick=240, channel=0, data=[46, 95]),
   midi.NoteOnEvent(tick=0, channel=0, data=[46, 95]),
   midi.NoteOffEvent(tick=240, channel=0, data=[46, 95]),
   midi.NoteOnEvent(tick=0, channel=0, data=[46, 95]),
   midi.NoteOffEvent(tick=240, channel=0, data=[46, 95]),
   midi.NoteOnEvent(tick=0, channel=0, data=[46, 95]),
   midi.NoteOffEvent(tick=240, channel=0, data=[46, 95]),
   midi.NoteOnEvent(tick=0, channel=0, data=[46, 95]),
   midi.NoteOffEvent(tick=240, channel=0, data=[46, 95]),
   midi.NoteOnEvent(tick=0, channel=0, data=[47, 95]),
   midi.NoteOffEvent(tick=640, channel=0, data=[47, 95]),
   midi.NoteOnEvent(tick=0, channel=0, data=[48, 95]),
   midi.NoteOffEvent(tick=640, channel=0, data=[48, 95]),
   midi.NoteOnEvent(tick=0, channel=0, data=[49, 95]),
   midi.NoteOffEvent(tick=640, channel=0, data=[49, 95]),
   midi.NoteOnEvent(tick=0, channel=0, data=[46, 95]),
   midi.NoteOffEvent(tick=240, channel=0, data=[46, 95]),
   midi.NoteOnEvent(tick=0, channel=0, data=[46, 95]),
   midi.NoteOffEvent(tick=240, channel=0, data=[46, 95]),
   midi.NoteOnEvent(tick=0, channel=0, data=[46, 95]),
   midi.NoteOffEvent(tick=240, channel=0, data=[46, 95]),
   midi.NoteOnEvent(tick=0, channel=0, data=[46, 95]),
   midi.NoteOffEvent(tick=240, channel=0, data=[46, 95]),
   midi.NoteOnEvent(tick=0, channel=0, data=[46, 95]),
   midi.NoteOffEvent(tick=240, channel=0, data=[46, 95]),
   midi.NoteOnEvent(tick=0, channel=0, data=[46, 95]),
   midi.NoteOffEvent(tick=240, channel=0, data=[46, 95]),
   midi.NoteOnEvent(tick=0, channel=0, data=[46, 95]),
   midi.NoteOffEvent(tick=240, channel=0, data=[46, 95]),
   midi.NoteOnEvent(tick=0, channel=0, data=[46, 95]),
   midi.NoteOffEvent(tick=240, channel=0, data=[46, 95]),
   midi.NoteOnEvent(tick=0, channel=0, data=[48, 95]),
   midi.NoteOffEvent(tick=640, channel=0, data=[48, 95]),
   midi.NoteOnEvent(tick=0, channel=0, data=[51, 95]),
   midi.NoteOffEvent(tick=640, channel=0, data=[51, 95]),
   midi.NoteOnEvent(tick=0, channel=0, data=[50, 95]),
   midi.NoteOffEvent(tick=640, channel=0, data=[50, 95]),
   midi.NoteOnEvent(tick=0, channel=0, data=[46, 95]),
   midi.NoteOffEvent(tick=240, channel=0, data=[46, 95]),
   midi.NoteOnEvent(tick=0, channel=0, data=[46, 95]),
   midi.NoteOffEvent(tick=240, channel=0, data=[46, 95]),
   midi.NoteOnEvent(tick=0, channel=0, data=[46, 95]),
   midi.NoteOffEvent(tick=240, channel=0, data=[46, 95]),
   midi.NoteOnEvent(tick=0, channel=0, data=[46, 95]),
   midi.NoteOffEvent(tick=240, channel=0, data=[46, 95]),
   midi.NoteOnEvent(tick=0, channel=0, data=[46, 95]),
   midi.NoteOffEvent(tick=240, channel=0, data=[46, 95]),
   midi.NoteOnEvent(tick=0, channel=0, data=[46, 95]),
   midi.NoteOffEvent(tick=240, channel=0, data=[46, 95]),
   midi.NoteOnEvent(tick=0, channel=0, data=[46, 95]),
   midi.NoteOffEvent(tick=240, channel=0, data=[46, 95]),
   midi.NoteOnEvent(tick=0, channel=0, data=[46, 95]),
   midi.NoteOffEvent(tick=240, channel=0, data=[46, 95]),
   midi.NoteOnEvent(tick=0, channel=0, data=[48, 95]),
   midi.NoteOffEvent(tick=640, channel=0, data=[48, 95]),
   midi.NoteOnEvent(tick=0, channel=0, data=[51, 95]),
   midi.NoteOffEvent(tick=640, channel=0, data=[51, 95]),
   midi.NoteOnEvent(tick=0, channel=0, data=[50, 95]),
   midi.NoteOffEvent(tick=640, channel=0, data=[50, 95]),
   midi.NoteOnEvent(tick=0, channel=0, data=[46, 95]),
   midi.NoteOffEvent(tick=240, channel=0, data=[46, 95]),
   midi.NoteOnEvent(tick=0, channel=0, data=[46, 95]),
   midi.NoteOffEvent(tick=240, channel=0, data=[46, 95]),
   midi.NoteOnEvent(tick=0, channel=0, data=[46, 95]),
   midi.NoteOffEvent(tick=240, channel=0, data=[46, 95]),
   midi.NoteOnEvent(tick=0, channel=0, data=[46, 95]),
   midi.NoteOffEvent(tick=240, channel=0, data=[46, 95]),
   midi.NoteOnEvent(tick=0, channel=0, data=[46, 95]),
   midi.NoteOffEvent(tick=240, channel=0, data=[46, 95]),
   midi.NoteOnEvent(tick=0, channel=0, data=[46, 95]),
   midi.NoteOffEvent(tick=240, channel=0, data=[46, 95]),
   midi.NoteOnEvent(tick=0, channel=0, data=[46, 95]),
   midi.NoteOffEvent(tick=240, channel=0, data=[46, 95]),
   midi.NoteOnEvent(tick=0, channel=0, data=[46, 95]),
   midi.NoteOffEvent(tick=240, channel=0, data=[46, 95]),
   midi.NoteOnEvent(tick=0, channel=0, data=[48, 95]),
   midi.NoteOffEvent(tick=640, channel=0, data=[48, 95]),
   midi.NoteOnEvent(tick=0, channel=0, data=[51, 95]),
   midi.NoteOffEvent(tick=640, channel=0, data=[51, 95]),
   midi.NoteOnEvent(tick=0, channel=0, data=[50, 95]),
   midi.NoteOffEvent(tick=640, channel=0, data=[50, 95]),
   midi.NoteOnEvent(tick=0, channel=0, data=[46, 95]),
   midi.NoteOffEvent(tick=240, channel=0, data=[46, 95]),
   midi.NoteOnEvent(tick=0, channel=0, data=[46, 95]),
   midi.NoteOffEvent(tick=240, channel=0, data=[46, 95]),
   midi.NoteOnEvent(tick=0, channel=0, data=[46, 95]),
   midi.NoteOffEvent(tick=240, channel=0, data=[46, 95]),
   midi.NoteOnEvent(tick=0, channel=0, data=[46, 95]),
   midi.NoteOffEvent(tick=240, channel=0, data=[46, 95]),
   midi.NoteOnEvent(tick=0, channel=0, data=[46, 95]),
   midi.NoteOffEvent(tick=240, channel=0, data=[46, 95]),
   midi.NoteOnEvent(tick=0, channel=0, data=[46, 95]),
   midi.NoteOffEvent(tick=240, channel=0, data=[46, 95]),
   midi.NoteOnEvent(tick=0, channel=0, data=[46, 95]),
   midi.NoteOffEvent(tick=240, channel=0, data=[46, 95]),
   midi.NoteOnEvent(tick=0, channel=0, data=[46, 95]),
   midi.NoteOffEvent(tick=240, channel=0, data=[46, 95]),
   midi.NoteOnEvent(tick=0, channel=0, data=[47, 95]),
   midi.NoteOffEvent(tick=640, channel=0, data=[47, 95]),
   midi.NoteOnEvent(tick=0, channel=0, data=[48, 95]),
   midi.NoteOffEvent(tick=640, channel=0, data=[48, 95]),
   midi.NoteOnEvent(tick=0, channel=0, data=[49, 95]),
   midi.NoteOffEvent(tick=640, channel=0, data=[49, 95]),
   midi.NoteOnEvent(tick=0, channel=0, data=[46, 95]),
   midi.NoteOffEvent(tick=240, channel=0, data=[46, 95]),
   midi.NoteOnEvent(tick=0, channel=0, data=[46, 95]),
   midi.NoteOffEvent(tick=240, channel=0, data=[46, 95]),
   midi.NoteOnEvent(tick=0, channel=0, data=[46, 95]),
   midi.NoteOffEvent(tick=240, channel=0, data=[46, 95]),
   midi.NoteOnEvent(tick=0, channel=0, data=[46, 95]),
   midi.NoteOffEvent(tick=240, channel=0, data=[46, 95]),
   midi.NoteOnEvent(tick=0, channel=0, data=[46, 95]),
   midi.NoteOffEvent(tick=240, channel=0, data=[46, 95]),
   midi.NoteOnEvent(tick=0, channel=0, data=[46, 95]),
   midi.NoteOffEvent(tick=240, channel=0, data=[46, 95]),
   midi.NoteOnEvent(tick=0, channel=0, data=[46, 95]),
   midi.NoteOffEvent(tick=240, channel=0, data=[46, 95]),
   midi.NoteOnEvent(tick=0, channel=0, data=[46, 95]),
   midi.NoteOffEvent(tick=240, channel=0, data=[46, 95]),
   midi.NoteOnEvent(tick=0, channel=0, data=[48, 95]),
   midi.NoteOffEvent(tick=640, channel=0, data=[48, 95]),
   midi.NoteOnEvent(tick=0, channel=0, data=[51, 95]),
   midi.NoteOffEvent(tick=640, channel=0, data=[51, 95]),
   midi.NoteOnEvent(tick=0, channel=0, data=[50, 95]),
   midi.NoteOffEvent(tick=640, channel=0, data=[50, 95]),
   midi.NoteOnEvent(tick=0, channel=0, data=[46, 95]),
   midi.NoteOffEvent(tick=240, channel=0, data=[46, 95]),
   midi.NoteOnEvent(tick=0, channel=0, data=[46, 95]),
   midi.NoteOffEvent(tick=240, channel=0, data=[46, 95]),
   midi.NoteOnEvent(tick=0, channel=0, data=[46, 95]),
   midi.NoteOffEvent(tick=240, channel=0, data=[46, 95]),
   midi.NoteOnEvent(tick=0, channel=0, data=[46, 95]),
   midi.NoteOffEvent(tick=240, channel=0, data=[46, 95]),
   midi.NoteOnEvent(tick=0, channel=0, data=[46, 95]),
   midi.NoteOffEvent(tick=240, channel=0, data=[46, 95]),
   midi.NoteOnEvent(tick=0, channel=0, data=[46, 95]),
   midi.NoteOffEvent(tick=240, channel=0, data=[46, 95]),
   midi.NoteOnEvent(tick=0, channel=0, data=[46, 95]),
   midi.NoteOffEvent(tick=240, channel=0, data=[46, 95]),
   midi.NoteOnEvent(tick=0, channel=0, data=[46, 95]),
   midi.NoteOffEvent(tick=240, channel=0, data=[46, 95]),
   midi.NoteOnEvent(tick=0, channel=0, data=[48, 95]),
   midi.NoteOffEvent(tick=640, channel=0, data=[48, 95]),
   midi.NoteOnEvent(tick=0, channel=0, data=[51, 95]),
   midi.NoteOffEvent(tick=640, channel=0, data=[51, 95]),
   midi.NoteOnEvent(tick=0, channel=0, data=[50, 95]),
   midi.NoteOffEvent(tick=640, channel=0, data=[50, 95]),
   midi.NoteOnEvent(tick=0, channel=0, data=[46, 95]),
   midi.NoteOffEvent(tick=240, channel=0, data=[46, 95]),
   midi.NoteOnEvent(tick=0, channel=0, data=[46, 95]),
   midi.NoteOffEvent(tick=240, channel=0, data=[46, 95]),
   midi.NoteOnEvent(tick=0, channel=0, data=[46, 95]),
   midi.NoteOffEvent(tick=240, channel=0, data=[46, 95]),
   midi.NoteOnEvent(tick=0, channel=0, data=[46, 95]),
   midi.NoteOffEvent(tick=240, channel=0, data=[46, 95]),
   midi.NoteOnEvent(tick=0, channel=0, data=[46, 95]),
   midi.NoteOffEvent(tick=240, channel=0, data=[46, 95]),
   midi.NoteOnEvent(tick=0, channel=0, data=[46, 95]),
   midi.NoteOffEvent(tick=240, channel=0, data=[46, 95]),
   midi.NoteOnEvent(tick=0, channel=0, data=[46, 95]),
   midi.NoteOffEvent(tick=240, channel=0, data=[46, 95]),
   midi.NoteOnEvent(tick=0, channel=0, data=[46, 95]),
   midi.NoteOffEvent(tick=240, channel=0, data=[46, 95]),
   midi.NoteOnEvent(tick=0, channel=0, data=[48, 95]),
   midi.NoteOffEvent(tick=640, channel=0, data=[48, 95]),
   midi.NoteOnEvent(tick=0, channel=0, data=[51, 95]),
   midi.NoteOffEvent(tick=640, channel=0, data=[51, 95]),
   midi.NoteOnEvent(tick=0, channel=0, data=[50, 95]),
   midi.NoteOffEvent(tick=640, channel=0, data=[50, 95]),
   midi.NoteOnEvent(tick=0, channel=0, data=[46, 95]),
   midi.NoteOffEvent(tick=240, channel=0, data=[46, 95]),
   midi.NoteOnEvent(tick=0, channel=0, data=[46, 95]),
   midi.NoteOffEvent(tick=240, channel=0, data=[46, 95]),
   midi.NoteOnEvent(tick=0, channel=0, data=[46, 95]),
   midi.NoteOffEvent(tick=240, channel=0, data=[46, 95]),
   midi.NoteOnEvent(tick=0, channel=0, data=[46, 95]),
   midi.NoteOffEvent(tick=240, channel=0, data=[46, 95]),
   midi.NoteOnEvent(tick=0, channel=0, data=[46, 95]),
   midi.NoteOffEvent(tick=240, channel=0, data=[46, 95]),
   midi.NoteOnEvent(tick=0, channel=0, data=[46, 95]),
   midi.NoteOffEvent(tick=240, channel=0, data=[46, 95]),
   midi.NoteOnEvent(tick=0, channel=0, data=[46, 95]),
   midi.NoteOffEvent(tick=240, channel=0, data=[46, 95]),
   midi.NoteOnEvent(tick=0, channel=0, data=[46, 95]),
   midi.NoteOffEvent(tick=240, channel=0, data=[46, 95]),
   midi.NoteOnEvent(tick=0, channel=0, data=[47, 95]),
   midi.NoteOffEvent(tick=640, channel=0, data=[47, 95]),
   midi.NoteOnEvent(tick=0, channel=0, data=[48, 95]),
   midi.NoteOffEvent(tick=640, channel=0, data=[48, 95]),
   midi.NoteOnEvent(tick=0, channel=0, data=[49, 95]),
   midi.NoteOffEvent(tick=640, channel=0, data=[49, 95]),
   midi.NoteOnEvent(tick=0, channel=0, data=[46, 95]),
   midi.NoteOffEvent(tick=240, channel=0, data=[46, 95]),
   midi.NoteOnEvent(tick=0, channel=0, data=[46, 95]),
   midi.NoteOffEvent(tick=240, channel=0, data=[46, 95]),
   midi.NoteOnEvent(tick=0, channel=0, data=[46, 95]),
   midi.NoteOffEvent(tick=240, channel=0, data=[46, 95]),
   midi.NoteOnEvent(tick=0, channel=0, data=[46, 95]),
   midi.NoteOffEvent(tick=240, channel=0, data=[46, 95]),
   midi.NoteOnEvent(tick=0, channel=0, data=[46, 95]),
   midi.NoteOffEvent(tick=240, channel=0, data=[46, 95]),
   midi.NoteOnEvent(tick=0, channel=0, data=[46, 95]),
   midi.NoteOffEvent(tick=240, channel=0, data=[46, 95]),
   midi.NoteOnEvent(tick=0, channel=0, data=[46, 95]),
   midi.NoteOffEvent(tick=240, channel=0, data=[46, 95]),
   midi.NoteOnEvent(tick=0, channel=0, data=[46, 95]),
   midi.NoteOffEvent(tick=240, channel=0, data=[46, 95]),
   midi.NoteOnEvent(tick=0, channel=0, data=[48, 95]),
   midi.NoteOffEvent(tick=640, channel=0, data=[48, 95]),
   midi.NoteOnEvent(tick=0, channel=0, data=[51, 95]),
   midi.NoteOffEvent(tick=640, channel=0, data=[51, 95]),
   midi.NoteOnEvent(tick=0, channel=0, data=[50, 95]),
   midi.NoteOffEvent(tick=640, channel=0, data=[50, 95]),
   midi.NoteOnEvent(tick=0, channel=0, data=[46, 95]),
   midi.NoteOffEvent(tick=240, channel=0, data=[46, 95]),
   midi.NoteOnEvent(tick=0, channel=0, data=[46, 95]),
   midi.NoteOffEvent(tick=240, channel=0, data=[46, 95]),
   midi.NoteOnEvent(tick=0, channel=0, data=[46, 95]),
   midi.NoteOffEvent(tick=240, channel=0, data=[46, 95]),
   midi.NoteOnEvent(tick=0, channel=0, data=[46, 95]),
   midi.NoteOffEvent(tick=240, channel=0, data=[46, 95]),
   midi.NoteOnEvent(tick=0, channel=0, data=[46, 95]),
   midi.NoteOffEvent(tick=240, channel=0, data=[46, 95]),
   midi.NoteOnEvent(tick=0, channel=0, data=[46, 95]),
   midi.NoteOffEvent(tick=240, channel=0, data=[46, 95]),
   midi.NoteOnEvent(tick=0, channel=0, data=[46, 95]),
   midi.NoteOffEvent(tick=240, channel=0, data=[46, 95]),
   midi.NoteOnEvent(tick=0, channel=0, data=[46, 95]),
   midi.NoteOffEvent(tick=240, channel=0, data=[46, 95]),
   midi.NoteOnEvent(tick=0, channel=0, data=[48, 95]),
   midi.NoteOffEvent(tick=640, channel=0, data=[48, 95]),
   midi.NoteOnEvent(tick=0, channel=0, data=[51, 95]),
   midi.NoteOffEvent(tick=640, channel=0, data=[51, 95]),
   midi.NoteOnEvent(tick=0, channel=0, data=[50, 95]),
   midi.NoteOffEvent(tick=640, channel=0, data=[50, 95]),
   midi.NoteOnEvent(tick=0, channel=0, data=[46, 95]),
   midi.NoteOffEvent(tick=240, channel=0, data=[46, 95]),
   midi.NoteOnEvent(tick=0, channel=0, data=[46, 95]),
   midi.NoteOffEvent(tick=240, channel=0, data=[46, 95]),
   midi.NoteOnEvent(tick=0, channel=0, data=[46, 95]),
   midi.NoteOffEvent(tick=240, channel=0, data=[46, 95]),
   midi.NoteOnEvent(tick=0, channel=0, data=[46, 95]),
   midi.NoteOffEvent(tick=240, channel=0, data=[46, 95]),
   midi.NoteOnEvent(tick=0, channel=0, data=[46, 95]),
   midi.NoteOffEvent(tick=240, channel=0, data=[46, 95]),
   midi.NoteOnEvent(tick=0, channel=0, data=[46, 95]),
   midi.NoteOffEvent(tick=240, channel=0, data=[46, 95]),
   midi.NoteOnEvent(tick=0, channel=0, data=[46, 95]),
   midi.NoteOffEvent(tick=240, channel=0, data=[46, 95]),
   midi.NoteOnEvent(tick=0, channel=0, data=[46, 95]),
   midi.NoteOffEvent(tick=240, channel=0, data=[46, 95]),
   midi.NoteOnEvent(tick=0, channel=0, data=[48, 95]),
   midi.NoteOffEvent(tick=640, channel=0, data=[48, 95]),
   midi.NoteOnEvent(tick=0, channel=0, data=[51, 95]),
   midi.NoteOffEvent(tick=640, channel=0, data=[51, 95]),
   midi.NoteOnEvent(tick=0, channel=0, data=[50, 95]),
   midi.NoteOffEvent(tick=640, channel=0, data=[50, 95]),
   midi.NoteOnEvent(tick=0, channel=0, data=[46, 95]),
   midi.NoteOffEvent(tick=240, channel=0, data=[46, 95]),
   midi.NoteOnEvent(tick=0, channel=0, data=[46, 95]),
   midi.NoteOffEvent(tick=240, channel=0, data=[46, 95]),
   midi.NoteOnEvent(tick=0, channel=0, data=[46, 95]),
   midi.NoteOffEvent(tick=240, channel=0, data=[46, 95]),
   midi.NoteOnEvent(tick=0, channel=0, data=[46, 95]),
   midi.NoteOffEvent(tick=240, channel=0, data=[46, 95]),
   midi.NoteOnEvent(tick=0, channel=0, data=[46, 95]),
   midi.NoteOffEvent(tick=240, channel=0, data=[46, 95]),
   midi.NoteOnEvent(tick=0, channel=0, data=[46, 95]),
   midi.NoteOffEvent(tick=240, channel=0, data=[46, 95]),
   midi.NoteOnEvent(tick=0, channel=0, data=[46, 95]),
   midi.NoteOffEvent(tick=240, channel=0, data=[46, 95]),
   midi.NoteOnEvent(tick=0, channel=0, data=[46, 95]),
   midi.NoteOffEvent(tick=240, channel=0, data=[46, 95]),
   midi.NoteOnEvent(tick=0, channel=0, data=[47, 95]),
   midi.NoteOffEvent(tick=640, channel=0, data=[47, 95]),
   midi.NoteOnEvent(tick=0, channel=0, data=[48, 95]),
   midi.NoteOffEvent(tick=640, channel=0, data=[48, 95]),
   midi.NoteOnEvent(tick=0, channel=0, data=[49, 95]),
   midi.NoteOffEvent(tick=640, channel=0, data=[49, 95]),
   midi.NoteOnEvent(tick=0, channel=0, data=[42, 95]),
   midi.NoteOffEvent(tick=640, channel=0, data=[42, 95]),
   midi.NoteOnEvent(tick=0, channel=0, data=[43, 95]),
   midi.NoteOffEvent(tick=640, channel=0, data=[43, 95]),
   midi.NoteOnEvent(tick=0, channel=0, data=[44, 95]),
   midi.NoteOffEvent(tick=640, channel=0, data=[44, 95]),
   midi.NoteOnEvent(tick=0, channel=0, data=[42, 95]),
   midi.NoteOffEvent(tick=640, channel=0, data=[42, 95]),
   midi.NoteOnEvent(tick=0, channel=0, data=[43, 95]),
   midi.NoteOffEvent(tick=640, channel=0, data=[43, 95]),
   midi.NoteOnEvent(tick=0, channel=0, data=[44, 95]),
   midi.NoteOffEvent(tick=640, channel=0, data=[44, 95]),
   midi.NoteOnEvent(tick=0, channel=0, data=[52, 95]),
   midi.NoteOnEvent(tick=0, channel=0, data=[45, 95]),
   midi.NoteOffEvent(tick=4800, channel=0, data=[52, 95]),
   midi.NoteOffEvent(tick=0, channel=0, data=[45, 95]),
   midi.NoteOnEvent(tick=0, channel=0, data=[51, 95]),
   midi.NoteOnEvent(tick=0, channel=0, data=[44, 95]),
   midi.NoteOffEvent(tick=960, channel=0, data=[51, 95]),
   midi.NoteOffEvent(tick=0, channel=0, data=[44, 95]),
   midi.NoteOnEvent(tick=0, channel=0, data=[52, 95]),
   midi.NoteOnEvent(tick=0, channel=0, data=[45, 95]),
   midi.NoteOffEvent(tick=960, channel=0, data=[52, 95]),
   midi.NoteOffEvent(tick=0, channel=0, data=[45, 95]),
   midi.NoteOnEvent(tick=0, channel=0, data=[51, 95]),
   midi.NoteOnEvent(tick=0, channel=0, data=[44, 95]),
   midi.NoteOffEvent(tick=960, channel=0, data=[51, 95]),
   midi.NoteOffEvent(tick=0, channel=0, data=[44, 95]),
   midi.NoteOnEvent(tick=0, channel=0, data=[48, 95]),
   midi.NoteOnEvent(tick=0, channel=0, data=[41, 95]),
   midi.NoteOffEvent(tick=6720, channel=0, data=[48, 95]),
   midi.NoteOffEvent(tick=0, channel=0, data=[41, 95]),
   midi.NoteOnEvent(tick=0, channel=0, data=[51, 95]),
   midi.NoteOnEvent(tick=0, channel=0, data=[44, 95]),
   midi.NoteOffEvent(tick=960, channel=0, data=[51, 95]),
   midi.NoteOffEvent(tick=0, channel=0, data=[44, 95]),
   midi.NoteOnEvent(tick=0, channel=0, data=[52, 95]),
   midi.NoteOnEvent(tick=0, channel=0, data=[45, 95]),
   midi.NoteOffEvent(tick=4800, channel=0, data=[52, 95]),
   midi.NoteOffEvent(tick=0, channel=0, data=[45, 95]),
   midi.NoteOnEvent(tick=0, channel=0, data=[51, 95]),
   midi.NoteOnEvent(tick=0, channel=0, data=[44, 95]),
   midi.NoteOffEvent(tick=480, channel=0, data=[51, 95]),
   midi.NoteOffEvent(tick=0, channel=0, data=[44, 95]),
   midi.NoteOnEvent(tick=0, channel=0, data=[52, 95]),
   midi.NoteOnEvent(tick=0, channel=0, data=[45, 95]),
   midi.NoteOffEvent(tick=480, channel=0, data=[52, 95]),
   midi.NoteOffEvent(tick=0, channel=0, data=[45, 95]),
   midi.NoteOnEvent(tick=0, channel=0, data=[51, 95]),
   midi.NoteOnEvent(tick=0, channel=0, data=[44, 95]),
   midi.NoteOffEvent(tick=480, channel=0, data=[51, 95]),
   midi.NoteOffEvent(tick=0, channel=0, data=[44, 95]),
   midi.NoteOnEvent(tick=0, channel=0, data=[51, 95]),
   midi.NoteOnEvent(tick=0, channel=0, data=[44, 95]),
   midi.NoteOffEvent(tick=480, channel=0, data=[51, 95]),
   midi.NoteOffEvent(tick=0, channel=0, data=[44, 95]),
   midi.NoteOnEvent(tick=0, channel=0, data=[52, 95]),
   midi.NoteOnEvent(tick=0, channel=0, data=[45, 95]),
   midi.NoteOffEvent(tick=480, channel=0, data=[52, 95]),
   midi.NoteOffEvent(tick=0, channel=0, data=[45, 95]),
   midi.NoteOnEvent(tick=0, channel=0, data=[51, 95]),
   midi.NoteOnEvent(tick=0, channel=0, data=[44, 95]),
   midi.NoteOffEvent(tick=480, channel=0, data=[51, 95]),
   midi.NoteOffEvent(tick=0, channel=0, data=[44, 95]),
   midi.NoteOnEvent(tick=0, channel=0, data=[48, 95]),
   midi.NoteOnEvent(tick=0, channel=0, data=[41, 95]),
   midi.NoteOffEvent(tick=6720, channel=0, data=[48, 95]),
   midi.NoteOffEvent(tick=0, channel=0, data=[41, 95]),
   midi.NoteOnEvent(tick=0, channel=1, data=[51, 95]),
   midi.NoteOnEvent(tick=0, channel=1, data=[44, 95]),
   midi.PitchWheelEvent(tick=120, channel=1, data=[0, 67]),
   midi.PitchWheelEvent(tick=120, channel=1, data=[0, 70]),
   midi.PitchWheelEvent(tick=120, channel=1, data=[0, 74]),
   midi.PitchWheelEvent(tick=120, channel=1, data=[0, 77]),
   midi.PitchWheelEvent(tick=120, channel=1, data=[0, 81]),
   midi.PitchWheelEvent(tick=120, channel=1, data=[0, 84]),
   midi.PitchWheelEvent(tick=120, channel=1, data=[0, 88]),
   midi.NoteOffEvent(tick=120, channel=1, data=[51, 95]),
   midi.PitchWheelEvent(tick=0, channel=1, data=[0, 91]),
   midi.PitchWheelEvent(tick=0, channel=1, data=[0, 64]),
   midi.NoteOffEvent(tick=0, channel=1, data=[44, 95]),
   midi.NoteOnEvent(tick=0, channel=0, data=[52, 95]),
   midi.NoteOnEvent(tick=0, channel=0, data=[45, 95]),
   midi.NoteOffEvent(tick=4800, channel=0, data=[52, 95]),
   midi.NoteOffEvent(tick=0, channel=0, data=[45, 95]),
   midi.NoteOnEvent(tick=0, channel=0, data=[51, 95]),
   midi.NoteOnEvent(tick=0, channel=0, data=[44, 95]),
   midi.NoteOffEvent(tick=960, channel=0, data=[51, 95]),
   midi.NoteOffEvent(tick=0, channel=0, data=[44, 95]),
   midi.NoteOnEvent(tick=0, channel=0, data=[52, 95]),
   midi.NoteOnEvent(tick=0, channel=0, data=[45, 95]),
   midi.NoteOffEvent(tick=960, channel=0, data=[52, 95]),
   midi.NoteOffEvent(tick=0, channel=0, data=[45, 95]),
   midi.NoteOnEvent(tick=0, channel=0, data=[51, 95]),
   midi.NoteOnEvent(tick=0, channel=0, data=[44, 95]),
   midi.NoteOffEvent(tick=960, channel=0, data=[51, 95]),
   midi.NoteOffEvent(tick=0, channel=0, data=[44, 95]),
   midi.NoteOnEvent(tick=0, channel=0, data=[48, 95]),
   midi.NoteOnEvent(tick=0, channel=0, data=[41, 95]),
   midi.NoteOffEvent(tick=6720, channel=0, data=[48, 95]),
   midi.NoteOffEvent(tick=0, channel=0, data=[41, 95]),
   midi.NoteOnEvent(tick=0, channel=0, data=[51, 95]),
   midi.NoteOnEvent(tick=0, channel=0, data=[44, 95]),
   midi.NoteOffEvent(tick=960, channel=0, data=[51, 95]),
   midi.NoteOffEvent(tick=0, channel=0, data=[44, 95]),
   midi.NoteOnEvent(tick=0, channel=0, data=[52, 95]),
   midi.NoteOnEvent(tick=0, channel=0, data=[45, 95]),
   midi.NoteOffEvent(tick=4800, channel=0, data=[52, 95]),
   midi.NoteOffEvent(tick=0, channel=0, data=[45, 95]),
   midi.NoteOnEvent(tick=0, channel=0, data=[51, 95]),
   midi.NoteOnEvent(tick=0, channel=0, data=[44, 95]),
   midi.NoteOffEvent(tick=480, channel=0, data=[51, 95]),
   midi.NoteOffEvent(tick=0, channel=0, data=[44, 95]),
   midi.NoteOnEvent(tick=0, channel=0, data=[52, 95]),
   midi.NoteOnEvent(tick=0, channel=0, data=[45, 95]),
   midi.NoteOffEvent(tick=480, channel=0, data=[52, 95]),
   midi.NoteOffEvent(tick=0, channel=0, data=[45, 95]),
   midi.NoteOnEvent(tick=0, channel=0, data=[51, 95]),
   midi.NoteOnEvent(tick=0, channel=0, data=[44, 95]),
   midi.NoteOffEvent(tick=480, channel=0, data=[51, 95]),
   midi.NoteOffEvent(tick=0, channel=0, data=[44, 95]),
   midi.NoteOnEvent(tick=0, channel=0, data=[51, 95]),
   midi.NoteOnEvent(tick=0, channel=0, data=[44, 95]),
   midi.NoteOffEvent(tick=480, channel=0, data=[51, 95]),
   midi.NoteOffEvent(tick=0, channel=0, data=[44, 95]),
   midi.NoteOnEvent(tick=0, channel=0, data=[52, 95]),
   midi.NoteOnEvent(tick=0, channel=0, data=[45, 95]),
   midi.NoteOffEvent(tick=480, channel=0, data=[52, 95]),
   midi.NoteOffEvent(tick=0, channel=0, data=[45, 95]),
   midi.NoteOnEvent(tick=0, channel=0, data=[51, 95]),
   midi.NoteOnEvent(tick=0, channel=0, data=[44, 95]),
   midi.NoteOffEvent(tick=480, channel=0, data=[51, 95]),
   midi.NoteOffEvent(tick=0, channel=0, data=[44, 95]),
   midi.NoteOnEvent(tick=0, channel=0, data=[48, 95]),
   midi.NoteOnEvent(tick=0, channel=0, data=[41, 95]),
   midi.NoteOffEvent(tick=6720, channel=0, data=[48, 95]),
   midi.NoteOffEvent(tick=0, channel=0, data=[41, 95]),
   midi.NoteOnEvent(tick=0, channel=1, data=[51, 95]),
   midi.NoteOnEvent(tick=0, channel=1, data=[44, 95]),
   midi.PitchWheelEvent(tick=120, channel=1, data=[0, 67]),
   midi.PitchWheelEvent(tick=120, channel=1, data=[0, 70]),
   midi.PitchWheelEvent(tick=120, channel=1, data=[0, 74]),
   midi.PitchWheelEvent(tick=120, channel=1, data=[0, 77]),
   midi.PitchWheelEvent(tick=120, channel=1, data=[0, 81]),
   midi.PitchWheelEvent(tick=120, channel=1, data=[0, 84]),
   midi.PitchWheelEvent(tick=120, channel=1, data=[0, 88]),
   midi.NoteOffEvent(tick=120, channel=1, data=[51, 95]),
   midi.PitchWheelEvent(tick=0, channel=1, data=[0, 91]),
   midi.PitchWheelEvent(tick=0, channel=1, data=[0, 64]),
   midi.NoteOffEvent(tick=0, channel=1, data=[44, 95]),
   midi.NoteOnEvent(tick=0, channel=0, data=[49, 95]),
   midi.NoteOffEvent(tick=480, channel=0, data=[49, 95]),
   midi.NoteOnEvent(tick=0, channel=0, data=[41, 95]),
   midi.NoteOffEvent(tick=240, channel=0, data=[41, 95]),
   midi.NoteOnEvent(tick=0, channel=0, data=[41, 95]),
   midi.NoteOffEvent(tick=240, channel=0, data=[41, 95]),
   midi.NoteOnEvent(tick=0, channel=0, data=[41, 95]),
   midi.NoteOffEvent(tick=240, channel=0, data=[41, 95]),
   midi.NoteOnEvent(tick=0, channel=0, data=[41, 95]),
   midi.NoteOffEvent(tick=240, channel=0, data=[41, 95]),
   midi.NoteOnEvent(tick=0, channel=0, data=[41, 95]),
   midi.NoteOffEvent(tick=480, channel=0, data=[41, 95]),
   midi.NoteOnEvent(tick=0, channel=0, data=[48, 95]),
   midi.NoteOffEvent(tick=480, channel=0, data=[48, 95]),
   midi.NoteOnEvent(tick=0, channel=0, data=[41, 95]),
   midi.NoteOffEvent(tick=240, channel=0, data=[41, 95]),
   midi.NoteOnEvent(tick=0, channel=0, data=[41, 95]),
   midi.NoteOffEvent(tick=240, channel=0, data=[41, 95]),
   midi.NoteOnEvent(tick=0, channel=0, data=[41, 95]),
   midi.NoteOffEvent(tick=240, channel=0, data=[41, 95]),
   midi.NoteOnEvent(tick=0, channel=0, data=[41, 95]),
   midi.NoteOffEvent(tick=240, channel=0, data=[41, 95]),
   midi.NoteOnEvent(tick=0, channel=0, data=[41, 95]),
   midi.NoteOffEvent(tick=480, channel=0, data=[41, 95]),
   midi.NoteOnEvent(tick=0, channel=0, data=[52, 95]),
   midi.NoteOffEvent(tick=480, channel=0, data=[52, 95]),
   midi.NoteOnEvent(tick=0, channel=0, data=[41, 95]),
   midi.NoteOffEvent(tick=240, channel=0, data=[41, 95]),
   midi.NoteOnEvent(tick=0, channel=0, data=[41, 95]),
   midi.NoteOffEvent(tick=240, channel=0, data=[41, 95]),
   midi.NoteOnEvent(tick=0, channel=0, data=[41, 95]),
   midi.NoteOffEvent(tick=480, channel=0, data=[41, 95]),
   midi.NoteOnEvent(tick=0, channel=0, data=[51, 95]),
   midi.NoteOffEvent(tick=480, channel=0, data=[51, 95]),
   midi.NoteOnEvent(tick=0, channel=0, data=[41, 95]),
   midi.NoteOffEvent(tick=240, channel=0, data=[41, 95]),
   midi.NoteOnEvent(tick=0, channel=0, data=[41, 95]),
   midi.NoteOffEvent(tick=240, channel=0, data=[41, 95]),
   midi.NoteOnEvent(tick=0, channel=0, data=[41, 95]),
   midi.NoteOffEvent(tick=480, channel=0, data=[41, 95]),
   midi.NoteOnEvent(tick=0, channel=0, data=[47, 95]),
   midi.NoteOffEvent(tick=480, channel=0, data=[47, 95]),
   midi.NoteOnEvent(tick=0, channel=0, data=[41, 95]),
   midi.NoteOffEvent(tick=480, channel=0, data=[41, 95]),
   midi.NoteOnEvent(tick=0, channel=0, data=[49, 95]),
   midi.NoteOffEvent(tick=480, channel=0, data=[49, 95]),
   midi.NoteOnEvent(tick=0, channel=0, data=[41, 95]),
   midi.NoteOffEvent(tick=240, channel=0, data=[41, 95]),
   midi.NoteOnEvent(tick=0, channel=0, data=[41, 95]),
   midi.NoteOffEvent(tick=240, channel=0, data=[41, 95]),
   midi.NoteOnEvent(tick=0, channel=0, data=[41, 95]),
   midi.NoteOffEvent(tick=240, channel=0, data=[41, 95]),
   midi.NoteOnEvent(tick=0, channel=0, data=[41, 95]),
   midi.NoteOffEvent(tick=240, channel=0, data=[41, 95]),
   midi.NoteOnEvent(tick=0, channel=0, data=[41, 95]),
   midi.NoteOffEvent(tick=480, channel=0, data=[41, 95]),
   midi.NoteOnEvent(tick=0, channel=0, data=[48, 95]),
   midi.NoteOffEvent(tick=480, channel=0, data=[48, 95]),
   midi.NoteOnEvent(tick=0, channel=0, data=[41, 95]),
   midi.NoteOffEvent(tick=240, channel=0, data=[41, 95]),
   midi.NoteOnEvent(tick=0, channel=0, data=[41, 95]),
   midi.NoteOffEvent(tick=240, channel=0, data=[41, 95]),
   midi.NoteOnEvent(tick=0, channel=0, data=[41, 95]),
   midi.NoteOffEvent(tick=240, channel=0, data=[41, 95]),
   midi.NoteOnEvent(tick=0, channel=0, data=[41, 95]),
   midi.NoteOffEvent(tick=240, channel=0, data=[41, 95]),
   midi.NoteOnEvent(tick=0, channel=0, data=[41, 95]),
   midi.NoteOffEvent(tick=480, channel=0, data=[41, 95]),
   midi.NoteOnEvent(tick=0, channel=0, data=[52, 95]),
   midi.NoteOffEvent(tick=480, channel=0, data=[52, 95]),
   midi.NoteOnEvent(tick=0, channel=0, data=[41, 95]),
   midi.NoteOffEvent(tick=240, channel=0, data=[41, 95]),
   midi.NoteOnEvent(tick=0, channel=0, data=[41, 95]),
   midi.NoteOffEvent(tick=240, channel=0, data=[41, 95]),
   midi.NoteOnEvent(tick=0, channel=0, data=[41, 95]),
   midi.NoteOffEvent(tick=480, channel=0, data=[41, 95]),
   midi.NoteOnEvent(tick=0, channel=0, data=[51, 95]),
   midi.NoteOffEvent(tick=480, channel=0, data=[51, 95]),
   midi.NoteOnEvent(tick=0, channel=0, data=[41, 95]),
   midi.NoteOffEvent(tick=240, channel=0, data=[41, 95]),
   midi.NoteOnEvent(tick=0, channel=0, data=[41, 95]),
   midi.NoteOffEvent(tick=240, channel=0, data=[41, 95]),
   midi.NoteOnEvent(tick=0, channel=0, data=[41, 95]),
   midi.NoteOffEvent(tick=480, channel=0, data=[41, 95]),
   midi.NoteOnEvent(tick=0, channel=0, data=[47, 95]),
   midi.NoteOffEvent(tick=480, channel=0, data=[47, 95]),
   midi.NoteOnEvent(tick=0, channel=0, data=[41, 95]),
   midi.NoteOffEvent(tick=480, channel=0, data=[41, 95]),
   midi.NoteOnEvent(tick=0, channel=0, data=[49, 95]),
   midi.NoteOffEvent(tick=480, channel=0, data=[49, 95]),
   midi.NoteOnEvent(tick=0, channel=0, data=[41, 95]),
   midi.NoteOffEvent(tick=240, channel=0, data=[41, 95]),
   midi.NoteOnEvent(tick=0, channel=0, data=[41, 95]),
   midi.NoteOffEvent(tick=240, channel=0, data=[41, 95]),
   midi.NoteOnEvent(tick=0, channel=0, data=[41, 95]),
   midi.NoteOffEvent(tick=240, channel=0, data=[41, 95]),
   midi.NoteOnEvent(tick=0, channel=0, data=[41, 95]),
   midi.NoteOffEvent(tick=240, channel=0, data=[41, 95]),
   midi.NoteOnEvent(tick=0, channel=0, data=[41, 95]),
   midi.NoteOffEvent(tick=480, channel=0, data=[41, 95]),
   midi.NoteOnEvent(tick=0, channel=0, data=[48, 95]),
   midi.NoteOffEvent(tick=480, channel=0, data=[48, 95]),
   midi.NoteOnEvent(tick=0, channel=0, data=[41, 95]),
   midi.NoteOffEvent(tick=240, channel=0, data=[41, 95]),
   midi.NoteOnEvent(tick=0, channel=0, data=[41, 95]),
   midi.NoteOffEvent(tick=240, channel=0, data=[41, 95]),
   midi.NoteOnEvent(tick=0, channel=0, data=[41, 95]),
   midi.NoteOffEvent(tick=240, channel=0, data=[41, 95]),
   midi.NoteOnEvent(tick=0, channel=0, data=[41, 95]),
   midi.NoteOffEvent(tick=240, channel=0, data=[41, 95]),
   midi.NoteOnEvent(tick=0, channel=0, data=[41, 95]),
   midi.NoteOffEvent(tick=480, channel=0, data=[41, 95]),
   midi.NoteOnEvent(tick=0, channel=0, data=[52, 95]),
   midi.NoteOffEvent(tick=480, channel=0, data=[52, 95]),
   midi.NoteOnEvent(tick=0, channel=0, data=[41, 95]),
   midi.NoteOffEvent(tick=240, channel=0, data=[41, 95]),
   midi.NoteOnEvent(tick=0, channel=0, data=[41, 95]),
   midi.NoteOffEvent(tick=240, channel=0, data=[41, 95]),
   midi.NoteOnEvent(tick=0, channel=0, data=[41, 95]),
   midi.NoteOffEvent(tick=480, channel=0, data=[41, 95]),
   midi.NoteOnEvent(tick=0, channel=0, data=[51, 95]),
   midi.NoteOffEvent(tick=480, channel=0, data=[51, 95]),
   midi.NoteOnEvent(tick=0, channel=0, data=[41, 95]),
   midi.NoteOffEvent(tick=240, channel=0, data=[41, 95]),
   midi.NoteOnEvent(tick=0, channel=0, data=[41, 95]),
   midi.NoteOffEvent(tick=240, channel=0, data=[41, 95]),
   midi.NoteOnEvent(tick=0, channel=0, data=[41, 95]),
   midi.NoteOffEvent(tick=480, channel=0, data=[41, 95]),
   midi.NoteOnEvent(tick=0, channel=0, data=[47, 95]),
   midi.NoteOffEvent(tick=480, channel=0, data=[47, 95]),
   midi.NoteOnEvent(tick=0, channel=0, data=[41, 95]),
   midi.NoteOffEvent(tick=480, channel=0, data=[41, 95]),
   midi.NoteOnEvent(tick=0, channel=0, data=[49, 95]),
   midi.NoteOffEvent(tick=480, channel=0, data=[49, 95]),
   midi.NoteOnEvent(tick=0, channel=0, data=[41, 95]),
   midi.NoteOffEvent(tick=240, channel=0, data=[41, 95]),
   midi.NoteOnEvent(tick=0, channel=0, data=[41, 95]),
   midi.NoteOffEvent(tick=240, channel=0, data=[41, 95]),
   midi.NoteOnEvent(tick=0, channel=0, data=[41, 95]),
   midi.NoteOffEvent(tick=240, channel=0, data=[41, 95]),
   midi.NoteOnEvent(tick=0, channel=0, data=[41, 95]),
   midi.NoteOffEvent(tick=240, channel=0, data=[41, 95]),
   midi.NoteOnEvent(tick=0, channel=0, data=[41, 95]),
   midi.NoteOffEvent(tick=480, channel=0, data=[41, 95]),
   midi.NoteOnEvent(tick=0, channel=0, data=[48, 95]),
   midi.NoteOffEvent(tick=480, channel=0, data=[48, 95]),
   midi.NoteOnEvent(tick=0, channel=0, data=[41, 95]),
   midi.NoteOffEvent(tick=240, channel=0, data=[41, 95]),
   midi.NoteOnEvent(tick=0, channel=0, data=[41, 95]),
   midi.NoteOffEvent(tick=240, channel=0, data=[41, 95]),
   midi.NoteOnEvent(tick=0, channel=0, data=[41, 95]),
   midi.NoteOffEvent(tick=240, channel=0, data=[41, 95]),
   midi.NoteOnEvent(tick=0, channel=0, data=[41, 95]),
   midi.NoteOffEvent(tick=240, channel=0, data=[41, 95]),
   midi.NoteOnEvent(tick=0, channel=0, data=[41, 95]),
   midi.NoteOffEvent(tick=480, channel=0, data=[41, 95]),
   midi.NoteOnEvent(tick=0, channel=0, data=[52, 95]),
   midi.NoteOffEvent(tick=480, channel=0, data=[52, 95]),
   midi.NoteOnEvent(tick=0, channel=0, data=[41, 95]),
   midi.NoteOffEvent(tick=240, channel=0, data=[41, 95]),
   midi.NoteOnEvent(tick=0, channel=0, data=[41, 95]),
   midi.NoteOffEvent(tick=240, channel=0, data=[41, 95]),
   midi.NoteOnEvent(tick=0, channel=0, data=[41, 95]),
   midi.NoteOffEvent(tick=480, channel=0, data=[41, 95]),
   midi.NoteOnEvent(tick=0, channel=0, data=[51, 95]),
   midi.NoteOffEvent(tick=480, channel=0, data=[51, 95]),
   midi.NoteOnEvent(tick=0, channel=0, data=[41, 95]),
   midi.NoteOffEvent(tick=240, channel=0, data=[41, 95]),
   midi.NoteOnEvent(tick=0, channel=0, data=[41, 95]),
   midi.NoteOffEvent(tick=240, channel=0, data=[41, 95]),
   midi.NoteOnEvent(tick=0, channel=0, data=[41, 95]),
   midi.NoteOffEvent(tick=480, channel=0, data=[41, 95]),
   midi.NoteOnEvent(tick=0, channel=0, data=[47, 95]),
   midi.NoteOffEvent(tick=480, channel=0, data=[47, 95]),
   midi.NoteOnEvent(tick=0, channel=0, data=[41, 95]),
   midi.NoteOffEvent(tick=480, channel=0, data=[41, 95]),
   midi.NoteOnEvent(tick=0, channel=0, data=[43, 95]),
   midi.NoteOffEvent(tick=240, channel=0, data=[43, 95]),
   midi.NoteOnEvent(tick=0, channel=0, data=[43, 95]),
   midi.NoteOffEvent(tick=240, channel=0, data=[43, 95]),
   midi.NoteOnEvent(tick=0, channel=0, data=[43, 95]),
   midi.NoteOffEvent(tick=480, channel=0, data=[43, 95]),
   midi.NoteOnEvent(tick=0, channel=0, data=[47, 95]),
   midi.NoteOffEvent(tick=480, channel=0, data=[47, 95]),
   midi.NoteOnEvent(tick=0, channel=0, data=[46, 95]),
   midi.NoteOffEvent(tick=480, channel=0, data=[46, 95]),
   midi.NoteOnEvent(tick=0, channel=0, data=[43, 95]),
   midi.NoteOffEvent(tick=240, channel=0, data=[43, 95]),
   midi.NoteOnEvent(tick=0, channel=0, data=[43, 95]),
   midi.NoteOffEvent(tick=240, channel=0, data=[43, 95]),
   midi.NoteOnEvent(tick=0, channel=0, data=[43, 95]),
   midi.NoteOffEvent(tick=480, channel=0, data=[43, 95]),
   midi.NoteOnEvent(tick=0, channel=0, data=[46, 95]),
   midi.NoteOffEvent(tick=480, channel=0, data=[46, 95]),
   midi.NoteOnEvent(tick=0, channel=0, data=[44, 95]),
   midi.NoteOffEvent(tick=480, channel=0, data=[44, 95]),
   midi.NoteOnEvent(tick=0, channel=0, data=[43, 95]),
   midi.NoteOffEvent(tick=240, channel=0, data=[43, 95]),
   midi.NoteOnEvent(tick=0, channel=0, data=[43, 95]),
   midi.NoteOffEvent(tick=240, channel=0, data=[43, 95]),
   midi.NoteOnEvent(tick=0, channel=0, data=[43, 95]),
   midi.NoteOffEvent(tick=480, channel=0, data=[43, 95]),
   midi.NoteOnEvent(tick=0, channel=0, data=[47, 95]),
   midi.NoteOffEvent(tick=480, channel=0, data=[47, 95]),
   midi.NoteOnEvent(tick=0, channel=0, data=[46, 95]),
   midi.NoteOffEvent(tick=480, channel=0, data=[46, 95]),
   midi.NoteOnEvent(tick=0, channel=0, data=[43, 95]),
   midi.NoteOffEvent(tick=240, channel=0, data=[43, 95]),
   midi.NoteOnEvent(tick=0, channel=0, data=[43, 95]),
   midi.NoteOffEvent(tick=240, channel=0, data=[43, 95]),
   midi.NoteOnEvent(tick=0, channel=0, data=[43, 95]),
   midi.NoteOffEvent(tick=480, channel=0, data=[43, 95]),
   midi.NoteOnEvent(tick=0, channel=0, data=[50, 95]),
   midi.NoteOffEvent(tick=480, channel=0, data=[50, 95]),
   midi.NoteOnEvent(tick=0, channel=0, data=[51, 95]),
   midi.NoteOffEvent(tick=480, channel=0, data=[51, 95]),
   midi.NoteOnEvent(tick=0, channel=0, data=[43, 95]),
   midi.NoteOffEvent(tick=240, channel=0, data=[43, 95]),
   midi.NoteOnEvent(tick=0, channel=0, data=[43, 95]),
   midi.NoteOffEvent(tick=240, channel=0, data=[43, 95]),
   midi.NoteOnEvent(tick=0, channel=0, data=[43, 95]),
   midi.NoteOffEvent(tick=480, channel=0, data=[43, 95]),
   midi.NoteOnEvent(tick=0, channel=0, data=[47, 95]),
   midi.NoteOffEvent(tick=480, channel=0, data=[47, 95]),
   midi.NoteOnEvent(tick=0, channel=0, data=[46, 95]),
   midi.NoteOffEvent(tick=480, channel=0, data=[46, 95]),
   midi.NoteOnEvent(tick=0, channel=0, data=[43, 95]),
   midi.NoteOffEvent(tick=240, channel=0, data=[43, 95]),
   midi.NoteOnEvent(tick=0, channel=0, data=[43, 95]),
   midi.NoteOffEvent(tick=240, channel=0, data=[43, 95]),
   midi.NoteOnEvent(tick=0, channel=0, data=[43, 95]),
   midi.NoteOffEvent(tick=480, channel=0, data=[43, 95]),
   midi.NoteOnEvent(tick=0, channel=0, data=[46, 95]),
   midi.NoteOffEvent(tick=480, channel=0, data=[46, 95]),
   midi.NoteOnEvent(tick=0, channel=0, data=[44, 95]),
   midi.NoteOffEvent(tick=480, channel=0, data=[44, 95]),
   midi.NoteOnEvent(tick=0, channel=0, data=[43, 95]),
   midi.NoteOffEvent(tick=240, channel=0, data=[43, 95]),
   midi.NoteOnEvent(tick=0, channel=0, data=[43, 95]),
   midi.NoteOffEvent(tick=240, channel=0, data=[43, 95]),
   midi.NoteOnEvent(tick=0, channel=0, data=[43, 95]),
   midi.NoteOffEvent(tick=480, channel=0, data=[43, 95]),
   midi.NoteOnEvent(tick=0, channel=0, data=[47, 95]),
   midi.NoteOffEvent(tick=480, channel=0, data=[47, 95]),
   midi.NoteOnEvent(tick=0, channel=0, data=[46, 95]),
   midi.NoteOffEvent(tick=480, channel=0, data=[46, 95]),
   midi.NoteOnEvent(tick=0, channel=0, data=[43, 95]),
   midi.NoteOffEvent(tick=240, channel=0, data=[43, 95]),
   midi.NoteOnEvent(tick=0, channel=0, data=[43, 95]),
   midi.NoteOffEvent(tick=240, channel=0, data=[43, 95]),
   midi.NoteOnEvent(tick=0, channel=0, data=[43, 95]),
   midi.NoteOffEvent(tick=480, channel=0, data=[43, 95]),
   midi.NoteOnEvent(tick=0, channel=0, data=[46, 95]),
   midi.NoteOffEvent(tick=480, channel=0, data=[46, 95]),
   midi.NoteOnEvent(tick=0, channel=0, data=[44, 95]),
   midi.NoteOffEvent(tick=480, channel=0, data=[44, 95]),
   midi.NoteOnEvent(tick=0, channel=0, data=[43, 95]),
   midi.NoteOffEvent(tick=240, channel=0, data=[43, 95]),
   midi.NoteOnEvent(tick=0, channel=0, data=[43, 95]),
   midi.NoteOffEvent(tick=240, channel=0, data=[43, 95]),
   midi.NoteOnEvent(tick=0, channel=0, data=[43, 95]),
   midi.NoteOffEvent(tick=480, channel=0, data=[43, 95]),
   midi.NoteOnEvent(tick=0, channel=0, data=[47, 95]),
   midi.NoteOffEvent(tick=480, channel=0, data=[47, 95]),
   midi.NoteOnEvent(tick=0, channel=0, data=[46, 95]),
   midi.NoteOffEvent(tick=480, channel=0, data=[46, 95]),
   midi.NoteOnEvent(tick=0, channel=0, data=[43, 95]),
   midi.NoteOffEvent(tick=240, channel=0, data=[43, 95]),
   midi.NoteOnEvent(tick=0, channel=0, data=[43, 95]),
   midi.NoteOffEvent(tick=240, channel=0, data=[43, 95]),
   midi.NoteOnEvent(tick=0, channel=0, data=[43, 95]),
   midi.NoteOffEvent(tick=480, channel=0, data=[43, 95]),
   midi.NoteOnEvent(tick=0, channel=0, data=[50, 95]),
   midi.NoteOffEvent(tick=480, channel=0, data=[50, 95]),
   midi.NoteOnEvent(tick=0, channel=0, data=[51, 95]),
   midi.NoteOffEvent(tick=480, channel=0, data=[51, 95]),
   midi.NoteOnEvent(tick=0, channel=0, data=[43, 95]),
   midi.NoteOffEvent(tick=240, channel=0, data=[43, 95]),
   midi.NoteOnEvent(tick=0, channel=0, data=[43, 95]),
   midi.NoteOffEvent(tick=240, channel=0, data=[43, 95]),
   midi.NoteOnEvent(tick=0, channel=0, data=[43, 95]),
   midi.NoteOffEvent(tick=480, channel=0, data=[43, 95]),
   midi.NoteOnEvent(tick=0, channel=0, data=[47, 95]),
   midi.NoteOffEvent(tick=480, channel=0, data=[47, 95]),
   midi.NoteOnEvent(tick=0, channel=0, data=[46, 95]),
   midi.NoteOffEvent(tick=480, channel=0, data=[46, 95]),
   midi.NoteOnEvent(tick=0, channel=0, data=[43, 95]),
   midi.NoteOffEvent(tick=240, channel=0, data=[43, 95]),
   midi.NoteOnEvent(tick=0, channel=0, data=[43, 95]),
   midi.NoteOffEvent(tick=240, channel=0, data=[43, 95]),
   midi.NoteOnEvent(tick=0, channel=0, data=[43, 95]),
   midi.NoteOffEvent(tick=480, channel=0, data=[43, 95]),
   midi.NoteOnEvent(tick=0, channel=0, data=[46, 95]),
   midi.NoteOffEvent(tick=480, channel=0, data=[46, 95]),
   midi.NoteOnEvent(tick=0, channel=0, data=[44, 95]),
   midi.NoteOffEvent(tick=480, channel=0, data=[44, 95]),
   midi.NoteOnEvent(tick=0, channel=0, data=[43, 95]),
   midi.NoteOffEvent(tick=240, channel=0, data=[43, 95]),
   midi.NoteOnEvent(tick=0, channel=0, data=[43, 95]),
   midi.NoteOffEvent(tick=240, channel=0, data=[43, 95]),
   midi.NoteOnEvent(tick=0, channel=0, data=[43, 95]),
   midi.NoteOffEvent(tick=480, channel=0, data=[43, 95]),
   midi.NoteOnEvent(tick=0, channel=0, data=[47, 95]),
   midi.NoteOffEvent(tick=480, channel=0, data=[47, 95]),
   midi.NoteOnEvent(tick=0, channel=0, data=[46, 95]),
   midi.NoteOffEvent(tick=480, channel=0, data=[46, 95]),
   midi.NoteOnEvent(tick=0, channel=0, data=[43, 95]),
   midi.NoteOffEvent(tick=240, channel=0, data=[43, 95]),
   midi.NoteOnEvent(tick=0, channel=0, data=[43, 95]),
   midi.NoteOffEvent(tick=240, channel=0, data=[43, 95]),
   midi.NoteOnEvent(tick=0, channel=0, data=[43, 95]),
   midi.NoteOffEvent(tick=480, channel=0, data=[43, 95]),
   midi.NoteOnEvent(tick=0, channel=0, data=[50, 95]),
   midi.NoteOffEvent(tick=480, channel=0, data=[50, 95]),
   midi.NoteOnEvent(tick=0, channel=0, data=[51, 95]),
   midi.NoteOffEvent(tick=480, channel=0, data=[51, 95]),
   midi.NoteOnEvent(tick=0, channel=0, data=[43, 95]),
   midi.NoteOffEvent(tick=240, channel=0, data=[43, 95]),
   midi.NoteOnEvent(tick=0, channel=0, data=[43, 95]),
   midi.NoteOffEvent(tick=240, channel=0, data=[43, 95]),
   midi.NoteOnEvent(tick=0, channel=0, data=[43, 95]),
   midi.NoteOffEvent(tick=480, channel=0, data=[43, 95]),
   midi.NoteOnEvent(tick=0, channel=0, data=[47, 95]),
   midi.NoteOffEvent(tick=480, channel=0, data=[47, 95]),
   midi.NoteOnEvent(tick=0, channel=0, data=[46, 95]),
   midi.NoteOffEvent(tick=480, channel=0, data=[46, 95]),
   midi.NoteOnEvent(tick=0, channel=0, data=[42, 95]),
   midi.NoteOffEvent(tick=240, channel=0, data=[42, 95]),
   midi.NoteOnEvent(tick=0, channel=0, data=[42, 95]),
   midi.NoteOffEvent(tick=240, channel=0, data=[42, 95]),
   midi.NoteOnEvent(tick=0, channel=0, data=[42, 95]),
   midi.NoteOffEvent(tick=240, channel=0, data=[42, 95]),
   midi.NoteOnEvent(tick=0, channel=0, data=[42, 95]),
   midi.NoteOffEvent(tick=240, channel=0, data=[42, 95]),
   midi.NoteOnEvent(tick=0, channel=0, data=[42, 95]),
   midi.NoteOffEvent(tick=240, channel=0, data=[42, 95]),
   midi.NoteOnEvent(tick=0, channel=0, data=[42, 95]),
   midi.NoteOffEvent(tick=240, channel=0, data=[42, 95]),
   midi.NoteOnEvent(tick=0, channel=0, data=[42, 95]),
   midi.NoteOffEvent(tick=240, channel=0, data=[42, 95]),
   midi.NoteOnEvent(tick=0, channel=0, data=[42, 95]),
   midi.NoteOffEvent(tick=240, channel=0, data=[42, 95]),
   midi.NoteOnEvent(tick=0, channel=0, data=[42, 95]),
   midi.NoteOffEvent(tick=240, channel=0, data=[42, 95]),
   midi.NoteOnEvent(tick=0, channel=0, data=[42, 95]),
   midi.NoteOffEvent(tick=240, channel=0, data=[42, 95]),
   midi.NoteOnEvent(tick=0, channel=0, data=[42, 95]),
   midi.NoteOffEvent(tick=240, channel=0, data=[42, 95]),
   midi.NoteOnEvent(tick=0, channel=0, data=[42, 95]),
   midi.NoteOffEvent(tick=240, channel=0, data=[42, 95]),
   midi.NoteOnEvent(tick=0, channel=0, data=[42, 95]),
   midi.NoteOffEvent(tick=240, channel=0, data=[42, 95]),
   midi.NoteOnEvent(tick=0, channel=0, data=[42, 95]),
   midi.NoteOffEvent(tick=240, channel=0, data=[42, 95]),
   midi.NoteOnEvent(tick=0, channel=0, data=[42, 95]),
   midi.NoteOffEvent(tick=240, channel=0, data=[42, 95]),
   midi.NoteOnEvent(tick=0, channel=0, data=[42, 95]),
   midi.NoteOffEvent(tick=240, channel=0, data=[42, 95]),
   midi.NoteOnEvent(tick=0, channel=0, data=[42, 95]),
   midi.NoteOffEvent(tick=240, channel=0, data=[42, 95]),
   midi.NoteOnEvent(tick=0, channel=0, data=[42, 95]),
   midi.NoteOffEvent(tick=240, channel=0, data=[42, 95]),
   midi.NoteOnEvent(tick=0, channel=0, data=[42, 95]),
   midi.NoteOffEvent(tick=240, channel=0, data=[42, 95]),
   midi.NoteOnEvent(tick=0, channel=0, data=[42, 95]),
   midi.NoteOffEvent(tick=240, channel=0, data=[42, 95]),
   midi.NoteOnEvent(tick=0, channel=0, data=[42, 95]),
   midi.NoteOffEvent(tick=240, channel=0, data=[42, 95]),
   midi.NoteOnEvent(tick=0, channel=0, data=[42, 95]),
   midi.NoteOffEvent(tick=240, channel=0, data=[42, 95]),
   midi.NoteOnEvent(tick=0, channel=0, data=[42, 95]),
   midi.NoteOffEvent(tick=240, channel=0, data=[42, 95]),
   midi.NoteOnEvent(tick=0, channel=0, data=[42, 95]),
   midi.NoteOffEvent(tick=240, channel=0, data=[42, 95]),
   midi.NoteOnEvent(tick=0, channel=0, data=[42, 95]),
   midi.NoteOffEvent(tick=240, channel=0, data=[42, 95]),
   midi.NoteOnEvent(tick=0, channel=0, data=[42, 95]),
   midi.NoteOffEvent(tick=240, channel=0, data=[42, 95]),
   midi.NoteOnEvent(tick=0, channel=0, data=[42, 95]),
   midi.NoteOffEvent(tick=240, channel=0, data=[42, 95]),
   midi.NoteOnEvent(tick=0, channel=0, data=[42, 95]),
   midi.NoteOffEvent(tick=240, channel=0, data=[42, 95]),
   midi.NoteOnEvent(tick=0, channel=0, data=[42, 95]),
   midi.NoteOffEvent(tick=240, channel=0, data=[42, 95]),
   midi.NoteOnEvent(tick=0, channel=0, data=[42, 95]),
   midi.NoteOffEvent(tick=240, channel=0, data=[42, 95]),
   midi.NoteOnEvent(tick=0, channel=0, data=[42, 95]),
   midi.NoteOffEvent(tick=240, channel=0, data=[42, 95]),
   midi.NoteOnEvent(tick=0, channel=0, data=[42, 95]),
   midi.NoteOffEvent(tick=240, channel=0, data=[42, 95]),
   midi.NoteOnEvent(tick=0, channel=0, data=[42, 95]),
   midi.NoteOffEvent(tick=240, channel=0, data=[42, 95]),
   midi.NoteOnEvent(tick=0, channel=0, data=[42, 95]),
   midi.NoteOffEvent(tick=240, channel=0, data=[42, 95]),
   midi.NoteOnEvent(tick=0, channel=0, data=[42, 95]),
   midi.NoteOffEvent(tick=240, channel=0, data=[42, 95]),
   midi.NoteOnEvent(tick=0, channel=0, data=[42, 95]),
   midi.NoteOffEvent(tick=240, channel=0, data=[42, 95]),
   midi.NoteOnEvent(tick=0, channel=0, data=[42, 95]),
   midi.NoteOffEvent(tick=240, channel=0, data=[42, 95]),
   midi.NoteOnEvent(tick=0, channel=0, data=[42, 95]),
   midi.NoteOffEvent(tick=240, channel=0, data=[42, 95]),
   midi.NoteOnEvent(tick=0, channel=0, data=[42, 95]),
   midi.NoteOffEvent(tick=240, channel=0, data=[42, 95]),
   midi.NoteOnEvent(tick=0, channel=0, data=[42, 95]),
   midi.NoteOffEvent(tick=240, channel=0, data=[42, 95]),
   midi.NoteOnEvent(tick=0, channel=0, data=[51, 95]),
   midi.NoteOnEvent(tick=0, channel=0, data=[46, 95]),
   midi.NoteOnEvent(tick=0, channel=0, data=[39, 95]),
   midi.NoteOffEvent(tick=15360, channel=0, data=[51, 95]),
   midi.NoteOffEvent(tick=0, channel=0, data=[46, 95]),
   midi.NoteOffEvent(tick=0, channel=0, data=[39, 95]),
   midi.NoteOnEvent(tick=0, channel=0, data=[51, 95]),
   midi.NoteOnEvent(tick=0, channel=0, data=[46, 95]),
   midi.NoteOnEvent(tick=0, channel=0, data=[39, 95]),
   midi.NoteOffEvent(tick=1920, channel=0, data=[51, 95]),
   midi.NoteOffEvent(tick=0, channel=0, data=[46, 95]),
   midi.NoteOffEvent(tick=0, channel=0, data=[39, 95]),
   midi.EndOfTrackEvent(tick=0, data=[])]),
 midi.Track(\
  [midi.PitchWheelEvent(tick=0, channel=2, data=[0, 64]),
   midi.ControlChangeEvent(tick=0, channel=2, data=[7, 127]),
   midi.ControlChangeEvent(tick=0, channel=2, data=[10, 127]),
   midi.ControlChangeEvent(tick=0, channel=2, data=[93, 0]),
   midi.ControlChangeEvent(tick=0, channel=2, data=[91, 0]),
   midi.ControlChangeEvent(tick=0, channel=2, data=[95, 0]),
   midi.ControlChangeEvent(tick=0, channel=2, data=[92, 0]),
   midi.ControlChangeEvent(tick=0, channel=2, data=[11, 127]),
   midi.ProgramChangeEvent(tick=0, channel=2, data=[30]),
   midi.ControlChangeEvent(tick=0, channel=3, data=[7, 127]),
   midi.ControlChangeEvent(tick=0, channel=3, data=[10, 127]),
   midi.ControlChangeEvent(tick=0, channel=3, data=[93, 0]),
   midi.ControlChangeEvent(tick=0, channel=3, data=[91, 0]),
   midi.ControlChangeEvent(tick=0, channel=3, data=[95, 0]),
   midi.ControlChangeEvent(tick=0, channel=3, data=[92, 0]),
   midi.ControlChangeEvent(tick=0, channel=3, data=[11, 127]),
   midi.ProgramChangeEvent(tick=0, channel=3, data=[30]),
   midi.NoteOnEvent(tick=15360, channel=2, data=[39, 95]),
   midi.NoteOffEvent(tick=480, channel=2, data=[39, 95]),
   midi.NoteOnEvent(tick=0, channel=2, data=[39, 95]),
   midi.NoteOffEvent(tick=480, channel=2, data=[39, 95]),
   midi.NoteOnEvent(tick=0, channel=2, data=[39, 95]),
   midi.NoteOffEvent(tick=480, channel=2, data=[39, 95]),
   midi.NoteOnEvent(tick=0, channel=2, data=[39, 95]),
   midi.NoteOffEvent(tick=480, channel=2, data=[39, 95]),
   midi.NoteOnEvent(tick=0, channel=2, data=[39, 95]),
   midi.NoteOffEvent(tick=480, channel=2, data=[39, 95]),
   midi.NoteOnEvent(tick=0, channel=2, data=[39, 95]),
   midi.NoteOffEvent(tick=480, channel=2, data=[39, 95]),
   midi.NoteOnEvent(tick=0, channel=2, data=[39, 95]),
   midi.NoteOffEvent(tick=480, channel=2, data=[39, 95]),
   midi.NoteOnEvent(tick=0, channel=2, data=[39, 95]),
   midi.NoteOffEvent(tick=480, channel=2, data=[39, 95]),
   midi.NoteOnEvent(tick=0, channel=2, data=[39, 95]),
   midi.NoteOffEvent(tick=240, channel=2, data=[39, 95]),
   midi.NoteOnEvent(tick=0, channel=2, data=[39, 95]),
   midi.NoteOffEvent(tick=240, channel=2, data=[39, 95]),
   midi.NoteOnEvent(tick=0, channel=2, data=[39, 95]),
   midi.NoteOffEvent(tick=480, channel=2, data=[39, 95]),
   midi.NoteOnEvent(tick=0, channel=2, data=[39, 95]),
   midi.NoteOffEvent(tick=480, channel=2, data=[39, 95]),
   midi.NoteOnEvent(tick=0, channel=2, data=[39, 95]),
   midi.NoteOffEvent(tick=240, channel=2, data=[39, 95]),
   midi.NoteOnEvent(tick=0, channel=2, data=[39, 95]),
   midi.NoteOffEvent(tick=240, channel=2, data=[39, 95]),
   midi.NoteOnEvent(tick=0, channel=2, data=[39, 95]),
   midi.NoteOffEvent(tick=480, channel=2, data=[39, 95]),
   midi.NoteOnEvent(tick=0, channel=2, data=[39, 95]),
   midi.NoteOffEvent(tick=480, channel=2, data=[39, 95]),
   midi.NoteOnEvent(tick=0, channel=2, data=[39, 95]),
   midi.NoteOffEvent(tick=240, channel=2, data=[39, 95]),
   midi.NoteOnEvent(tick=0, channel=2, data=[39, 95]),
   midi.NoteOffEvent(tick=240, channel=2, data=[39, 95]),
   midi.NoteOnEvent(tick=0, channel=2, data=[39, 95]),
   midi.NoteOffEvent(tick=480, channel=2, data=[39, 95]),
   midi.NoteOnEvent(tick=0, channel=2, data=[39, 95]),
   midi.NoteOffEvent(tick=480, channel=2, data=[39, 95]),
   midi.NoteOnEvent(tick=0, channel=2, data=[39, 95]),
   midi.NoteOffEvent(tick=480, channel=2, data=[39, 95]),
   midi.NoteOnEvent(tick=0, channel=2, data=[39, 95]),
   midi.NoteOffEvent(tick=480, channel=2, data=[39, 95]),
   midi.NoteOnEvent(tick=0, channel=2, data=[39, 95]),
   midi.NoteOffEvent(tick=480, channel=2, data=[39, 95]),
   midi.NoteOnEvent(tick=0, channel=2, data=[39, 95]),
   midi.NoteOffEvent(tick=480, channel=2, data=[39, 95]),
   midi.NoteOnEvent(tick=0, channel=2, data=[39, 95]),
   midi.NoteOffEvent(tick=480, channel=2, data=[39, 95]),
   midi.NoteOnEvent(tick=0, channel=2, data=[39, 95]),
   midi.NoteOffEvent(tick=480, channel=2, data=[39, 95]),
   midi.NoteOnEvent(tick=0, channel=2, data=[39, 95]),
   midi.NoteOffEvent(tick=480, channel=2, data=[39, 95]),
   midi.NoteOnEvent(tick=0, channel=2, data=[39, 95]),
   midi.NoteOffEvent(tick=240, channel=2, data=[39, 95]),
   midi.NoteOnEvent(tick=0, channel=2, data=[39, 95]),
   midi.NoteOffEvent(tick=240, channel=2, data=[39, 95]),
   midi.NoteOnEvent(tick=0, channel=2, data=[39, 95]),
   midi.NoteOffEvent(tick=480, channel=2, data=[39, 95]),
   midi.NoteOnEvent(tick=0, channel=2, data=[39, 95]),
   midi.NoteOffEvent(tick=480, channel=2, data=[39, 95]),
   midi.NoteOnEvent(tick=0, channel=2, data=[39, 95]),
   midi.NoteOffEvent(tick=240, channel=2, data=[39, 95]),
   midi.NoteOnEvent(tick=0, channel=2, data=[39, 95]),
   midi.NoteOffEvent(tick=240, channel=2, data=[39, 95]),
   midi.NoteOnEvent(tick=0, channel=2, data=[39, 95]),
   midi.NoteOffEvent(tick=480, channel=2, data=[39, 95]),
   midi.NoteOnEvent(tick=0, channel=2, data=[39, 95]),
   midi.NoteOffEvent(tick=480, channel=2, data=[39, 95]),
   midi.NoteOnEvent(tick=0, channel=2, data=[39, 95]),
   midi.NoteOffEvent(tick=240, channel=2, data=[39, 95]),
   midi.NoteOnEvent(tick=0, channel=2, data=[39, 95]),
   midi.NoteOffEvent(tick=240, channel=2, data=[39, 95]),
   midi.NoteOnEvent(tick=0, channel=2, data=[39, 95]),
   midi.NoteOffEvent(tick=480, channel=2, data=[39, 95]),
   midi.NoteOnEvent(tick=0, channel=2, data=[39, 95]),
   midi.NoteOffEvent(tick=480, channel=2, data=[39, 95]),
   midi.NoteOnEvent(tick=0, channel=2, data=[39, 95]),
   midi.NoteOffEvent(tick=480, channel=2, data=[39, 95]),
   midi.NoteOnEvent(tick=0, channel=2, data=[39, 95]),
   midi.NoteOffEvent(tick=480, channel=2, data=[39, 95]),
   midi.NoteOnEvent(tick=0, channel=2, data=[39, 95]),
   midi.NoteOffEvent(tick=480, channel=2, data=[39, 95]),
   midi.NoteOnEvent(tick=0, channel=2, data=[39, 95]),
   midi.NoteOffEvent(tick=480, channel=2, data=[39, 95]),
   midi.NoteOnEvent(tick=0, channel=2, data=[39, 95]),
   midi.NoteOffEvent(tick=480, channel=2, data=[39, 95]),
   midi.NoteOnEvent(tick=0, channel=2, data=[39, 95]),
   midi.NoteOffEvent(tick=480, channel=2, data=[39, 95]),
   midi.NoteOnEvent(tick=0, channel=2, data=[39, 95]),
   midi.NoteOffEvent(tick=480, channel=2, data=[39, 95]),
   midi.NoteOnEvent(tick=0, channel=2, data=[39, 95]),
   midi.NoteOffEvent(tick=240, channel=2, data=[39, 95]),
   midi.NoteOnEvent(tick=0, channel=2, data=[39, 95]),
   midi.NoteOffEvent(tick=240, channel=2, data=[39, 95]),
   midi.NoteOnEvent(tick=0, channel=2, data=[39, 95]),
   midi.NoteOffEvent(tick=480, channel=2, data=[39, 95]),
   midi.NoteOnEvent(tick=0, channel=2, data=[39, 95]),
   midi.NoteOffEvent(tick=480, channel=2, data=[39, 95]),
   midi.NoteOnEvent(tick=0, channel=2, data=[39, 95]),
   midi.NoteOffEvent(tick=240, channel=2, data=[39, 95]),
   midi.NoteOnEvent(tick=0, channel=2, data=[39, 95]),
   midi.NoteOffEvent(tick=240, channel=2, data=[39, 95]),
   midi.NoteOnEvent(tick=0, channel=2, data=[39, 95]),
   midi.NoteOffEvent(tick=480, channel=2, data=[39, 95]),
   midi.NoteOnEvent(tick=0, channel=2, data=[39, 95]),
   midi.NoteOffEvent(tick=480, channel=2, data=[39, 95]),
   midi.NoteOnEvent(tick=0, channel=2, data=[39, 95]),
   midi.NoteOffEvent(tick=240, channel=2, data=[39, 95]),
   midi.NoteOnEvent(tick=0, channel=2, data=[39, 95]),
   midi.NoteOffEvent(tick=240, channel=2, data=[39, 95]),
   midi.NoteOnEvent(tick=0, channel=2, data=[39, 95]),
   midi.NoteOffEvent(tick=480, channel=2, data=[39, 95]),
   midi.NoteOnEvent(tick=0, channel=2, data=[39, 95]),
   midi.NoteOffEvent(tick=480, channel=2, data=[39, 95]),
   midi.NoteOnEvent(tick=0, channel=2, data=[39, 95]),
   midi.NoteOffEvent(tick=480, channel=2, data=[39, 95]),
   midi.NoteOnEvent(tick=0, channel=2, data=[39, 95]),
   midi.NoteOffEvent(tick=480, channel=2, data=[39, 95]),
   midi.NoteOnEvent(tick=0, channel=2, data=[39, 95]),
   midi.NoteOffEvent(tick=480, channel=2, data=[39, 95]),
   midi.NoteOnEvent(tick=0, channel=2, data=[39, 95]),
   midi.NoteOffEvent(tick=480, channel=2, data=[39, 95]),
   midi.NoteOnEvent(tick=0, channel=2, data=[39, 95]),
   midi.NoteOffEvent(tick=480, channel=2, data=[39, 95]),
   midi.NoteOnEvent(tick=0, channel=2, data=[39, 95]),
   midi.NoteOffEvent(tick=480, channel=2, data=[39, 95]),
   midi.NoteOnEvent(tick=0, channel=2, data=[39, 95]),
   midi.NoteOffEvent(tick=480, channel=2, data=[39, 95]),
   midi.NoteOnEvent(tick=0, channel=2, data=[39, 95]),
   midi.NoteOffEvent(tick=240, channel=2, data=[39, 95]),
   midi.NoteOnEvent(tick=0, channel=2, data=[39, 95]),
   midi.NoteOffEvent(tick=240, channel=2, data=[39, 95]),
   midi.NoteOnEvent(tick=0, channel=2, data=[39, 95]),
   midi.NoteOffEvent(tick=480, channel=2, data=[39, 95]),
   midi.NoteOnEvent(tick=0, channel=2, data=[39, 95]),
   midi.NoteOffEvent(tick=480, channel=2, data=[39, 95]),
   midi.NoteOnEvent(tick=0, channel=2, data=[39, 95]),
   midi.NoteOffEvent(tick=240, channel=2, data=[39, 95]),
   midi.NoteOnEvent(tick=0, channel=2, data=[39, 95]),
   midi.NoteOffEvent(tick=240, channel=2, data=[39, 95]),
   midi.NoteOnEvent(tick=0, channel=2, data=[39, 95]),
   midi.NoteOffEvent(tick=480, channel=2, data=[39, 95]),
   midi.NoteOnEvent(tick=0, channel=2, data=[39, 95]),
   midi.NoteOffEvent(tick=480, channel=2, data=[39, 95]),
   midi.NoteOnEvent(tick=0, channel=2, data=[39, 95]),
   midi.NoteOffEvent(tick=240, channel=2, data=[39, 95]),
   midi.NoteOnEvent(tick=0, channel=2, data=[39, 95]),
   midi.NoteOffEvent(tick=240, channel=2, data=[39, 95]),
   midi.NoteOnEvent(tick=0, channel=2, data=[39, 95]),
   midi.NoteOffEvent(tick=480, channel=2, data=[39, 95]),
   midi.NoteOnEvent(tick=0, channel=2, data=[39, 95]),
   midi.NoteOffEvent(tick=480, channel=2, data=[39, 95]),
   midi.NoteOnEvent(tick=0, channel=2, data=[39, 95]),
   midi.NoteOffEvent(tick=480, channel=2, data=[39, 95]),
   midi.NoteOnEvent(tick=0, channel=2, data=[39, 95]),
   midi.NoteOffEvent(tick=480, channel=2, data=[39, 95]),
   midi.NoteOnEvent(tick=0, channel=2, data=[39, 95]),
   midi.NoteOffEvent(tick=480, channel=2, data=[39, 95]),
   midi.NoteOnEvent(tick=0, channel=2, data=[39, 95]),
   midi.NoteOffEvent(tick=480, channel=2, data=[39, 95]),
   midi.NoteOnEvent(tick=0, channel=2, data=[39, 95]),
   midi.NoteOffEvent(tick=480, channel=2, data=[39, 95]),
   midi.NoteOnEvent(tick=0, channel=2, data=[39, 95]),
   midi.NoteOffEvent(tick=480, channel=2, data=[39, 95]),
   midi.NoteOnEvent(tick=0, channel=2, data=[39, 95]),
   midi.NoteOffEvent(tick=480, channel=2, data=[39, 95]),
   midi.NoteOnEvent(tick=0, channel=2, data=[39, 95]),
   midi.NoteOffEvent(tick=240, channel=2, data=[39, 95]),
   midi.NoteOnEvent(tick=0, channel=2, data=[39, 95]),
   midi.NoteOffEvent(tick=240, channel=2, data=[39, 95]),
   midi.NoteOnEvent(tick=0, channel=2, data=[39, 95]),
   midi.NoteOffEvent(tick=480, channel=2, data=[39, 95]),
   midi.NoteOnEvent(tick=0, channel=2, data=[39, 95]),
   midi.NoteOffEvent(tick=480, channel=2, data=[39, 95]),
   midi.NoteOnEvent(tick=0, channel=2, data=[39, 95]),
   midi.NoteOffEvent(tick=240, channel=2, data=[39, 95]),
   midi.NoteOnEvent(tick=0, channel=2, data=[39, 95]),
   midi.NoteOffEvent(tick=240, channel=2, data=[39, 95]),
   midi.NoteOnEvent(tick=0, channel=2, data=[39, 95]),
   midi.NoteOffEvent(tick=480, channel=2, data=[39, 95]),
   midi.NoteOnEvent(tick=0, channel=2, data=[39, 95]),
   midi.NoteOffEvent(tick=480, channel=2, data=[39, 95]),
   midi.NoteOnEvent(tick=0, channel=2, data=[39, 95]),
   midi.NoteOffEvent(tick=240, channel=2, data=[39, 95]),
   midi.NoteOnEvent(tick=0, channel=2, data=[39, 95]),
   midi.NoteOffEvent(tick=240, channel=2, data=[39, 95]),
   midi.NoteOnEvent(tick=0, channel=2, data=[39, 95]),
   midi.NoteOffEvent(tick=480, channel=2, data=[39, 95]),
   midi.NoteOnEvent(tick=0, channel=2, data=[39, 95]),
   midi.NoteOffEvent(tick=480, channel=2, data=[39, 95]),
   midi.NoteOnEvent(tick=0, channel=2, data=[39, 95]),
   midi.NoteOffEvent(tick=480, channel=2, data=[39, 95]),
   midi.NoteOnEvent(tick=0, channel=2, data=[39, 95]),
   midi.NoteOffEvent(tick=480, channel=2, data=[39, 95]),
   midi.NoteOnEvent(tick=0, channel=2, data=[39, 95]),
   midi.NoteOffEvent(tick=480, channel=2, data=[39, 95]),
   midi.NoteOnEvent(tick=0, channel=2, data=[39, 95]),
   midi.NoteOffEvent(tick=480, channel=2, data=[39, 95]),
   midi.NoteOnEvent(tick=0, channel=2, data=[39, 95]),
   midi.NoteOffEvent(tick=480, channel=2, data=[39, 95]),
   midi.NoteOnEvent(tick=0, channel=2, data=[39, 95]),
   midi.NoteOffEvent(tick=480, channel=2, data=[39, 95]),
   midi.NoteOnEvent(tick=0, channel=2, data=[39, 95]),
   midi.NoteOffEvent(tick=480, channel=2, data=[39, 95]),
   midi.NoteOnEvent(tick=0, channel=2, data=[39, 95]),
   midi.NoteOffEvent(tick=240, channel=2, data=[39, 95]),
   midi.NoteOnEvent(tick=0, channel=2, data=[39, 95]),
   midi.NoteOffEvent(tick=240, channel=2, data=[39, 95]),
   midi.NoteOnEvent(tick=0, channel=2, data=[39, 95]),
   midi.NoteOffEvent(tick=480, channel=2, data=[39, 95]),
   midi.NoteOnEvent(tick=0, channel=2, data=[39, 95]),
   midi.NoteOffEvent(tick=480, channel=2, data=[39, 95]),
   midi.NoteOnEvent(tick=0, channel=2, data=[39, 95]),
   midi.NoteOffEvent(tick=240, channel=2, data=[39, 95]),
   midi.NoteOnEvent(tick=0, channel=2, data=[39, 95]),
   midi.NoteOffEvent(tick=240, channel=2, data=[39, 95]),
   midi.NoteOnEvent(tick=0, channel=2, data=[39, 95]),
   midi.NoteOffEvent(tick=480, channel=2, data=[39, 95]),
   midi.NoteOnEvent(tick=0, channel=2, data=[39, 95]),
   midi.NoteOffEvent(tick=480, channel=2, data=[39, 95]),
   midi.NoteOnEvent(tick=0, channel=2, data=[39, 95]),
   midi.NoteOffEvent(tick=240, channel=2, data=[39, 95]),
   midi.NoteOnEvent(tick=0, channel=2, data=[39, 95]),
   midi.NoteOffEvent(tick=240, channel=2, data=[39, 95]),
   midi.NoteOnEvent(tick=0, channel=2, data=[39, 95]),
   midi.NoteOffEvent(tick=480, channel=2, data=[39, 95]),
   midi.NoteOnEvent(tick=0, channel=2, data=[39, 95]),
   midi.NoteOffEvent(tick=480, channel=2, data=[39, 95]),
   midi.NoteOnEvent(tick=0, channel=2, data=[39, 95]),
   midi.NoteOffEvent(tick=480, channel=2, data=[39, 95]),
   midi.NoteOnEvent(tick=0, channel=2, data=[39, 95]),
   midi.NoteOffEvent(tick=480, channel=2, data=[39, 95]),
   midi.NoteOnEvent(tick=0, channel=2, data=[39, 95]),
   midi.NoteOffEvent(tick=480, channel=2, data=[39, 95]),
   midi.NoteOnEvent(tick=0, channel=2, data=[39, 95]),
   midi.NoteOffEvent(tick=480, channel=2, data=[39, 95]),
   midi.NoteOnEvent(tick=0, channel=2, data=[39, 95]),
   midi.NoteOffEvent(tick=480, channel=2, data=[39, 95]),
   midi.NoteOnEvent(tick=0, channel=2, data=[39, 95]),
   midi.NoteOffEvent(tick=480, channel=2, data=[39, 95]),
   midi.NoteOnEvent(tick=0, channel=2, data=[39, 95]),
   midi.NoteOffEvent(tick=480, channel=2, data=[39, 95]),
   midi.NoteOnEvent(tick=0, channel=2, data=[39, 95]),
   midi.NoteOffEvent(tick=240, channel=2, data=[39, 95]),
   midi.NoteOnEvent(tick=0, channel=2, data=[39, 95]),
   midi.NoteOffEvent(tick=240, channel=2, data=[39, 95]),
   midi.NoteOnEvent(tick=0, channel=2, data=[39, 95]),
   midi.NoteOffEvent(tick=480, channel=2, data=[39, 95]),
   midi.NoteOnEvent(tick=0, channel=2, data=[39, 95]),
   midi.NoteOffEvent(tick=480, channel=2, data=[39, 95]),
   midi.NoteOnEvent(tick=0, channel=2, data=[39, 95]),
   midi.NoteOffEvent(tick=240, channel=2, data=[39, 95]),
   midi.NoteOnEvent(tick=0, channel=2, data=[39, 95]),
   midi.NoteOffEvent(tick=240, channel=2, data=[39, 95]),
   midi.NoteOnEvent(tick=0, channel=2, data=[39, 95]),
   midi.NoteOffEvent(tick=480, channel=2, data=[39, 95]),
   midi.NoteOnEvent(tick=0, channel=2, data=[39, 95]),
   midi.NoteOffEvent(tick=480, channel=2, data=[39, 95]),
   midi.NoteOnEvent(tick=0, channel=2, data=[39, 95]),
   midi.NoteOffEvent(tick=240, channel=2, data=[39, 95]),
   midi.NoteOnEvent(tick=0, channel=2, data=[39, 95]),
   midi.NoteOffEvent(tick=240, channel=2, data=[39, 95]),
   midi.NoteOnEvent(tick=0, channel=2, data=[39, 95]),
   midi.NoteOffEvent(tick=480, channel=2, data=[39, 95]),
   midi.NoteOnEvent(tick=0, channel=2, data=[39, 95]),
   midi.NoteOffEvent(tick=480, channel=2, data=[39, 95]),
   midi.NoteOnEvent(tick=0, channel=2, data=[39, 95]),
   midi.NoteOffEvent(tick=480, channel=2, data=[39, 95]),
   midi.NoteOnEvent(tick=0, channel=2, data=[39, 95]),
   midi.NoteOffEvent(tick=480, channel=2, data=[39, 95]),
   midi.NoteOnEvent(tick=0, channel=2, data=[39, 95]),
   midi.NoteOffEvent(tick=480, channel=2, data=[39, 95]),
   midi.NoteOnEvent(tick=0, channel=2, data=[39, 95]),
   midi.NoteOffEvent(tick=480, channel=2, data=[39, 95]),
   midi.NoteOnEvent(tick=0, channel=2, data=[39, 95]),
   midi.NoteOffEvent(tick=480, channel=2, data=[39, 95]),
   midi.NoteOnEvent(tick=0, channel=2, data=[39, 95]),
   midi.NoteOffEvent(tick=480, channel=2, data=[39, 95]),
   midi.NoteOnEvent(tick=0, channel=2, data=[39, 95]),
   midi.NoteOffEvent(tick=480, channel=2, data=[39, 95]),
   midi.NoteOnEvent(tick=0, channel=2, data=[39, 95]),
   midi.NoteOffEvent(tick=240, channel=2, data=[39, 95]),
   midi.NoteOnEvent(tick=0, channel=2, data=[39, 95]),
   midi.NoteOffEvent(tick=240, channel=2, data=[39, 95]),
   midi.NoteOnEvent(tick=0, channel=2, data=[39, 95]),
   midi.NoteOffEvent(tick=480, channel=2, data=[39, 95]),
   midi.NoteOnEvent(tick=0, channel=2, data=[39, 95]),
   midi.NoteOffEvent(tick=480, channel=2, data=[39, 95]),
   midi.NoteOnEvent(tick=0, channel=2, data=[39, 95]),
   midi.NoteOffEvent(tick=240, channel=2, data=[39, 95]),
   midi.NoteOnEvent(tick=0, channel=2, data=[39, 95]),
   midi.NoteOffEvent(tick=240, channel=2, data=[39, 95]),
   midi.NoteOnEvent(tick=0, channel=2, data=[39, 95]),
   midi.NoteOffEvent(tick=480, channel=2, data=[39, 95]),
   midi.NoteOnEvent(tick=0, channel=2, data=[39, 95]),
   midi.NoteOffEvent(tick=480, channel=2, data=[39, 95]),
   midi.NoteOnEvent(tick=0, channel=2, data=[39, 95]),
   midi.NoteOffEvent(tick=240, channel=2, data=[39, 95]),
   midi.NoteOnEvent(tick=0, channel=2, data=[39, 95]),
   midi.NoteOffEvent(tick=240, channel=2, data=[39, 95]),
   midi.NoteOnEvent(tick=0, channel=2, data=[39, 95]),
   midi.NoteOffEvent(tick=480, channel=2, data=[39, 95]),
   midi.NoteOnEvent(tick=3840, channel=2, data=[39, 95]),
   midi.NoteOffEvent(tick=240, channel=2, data=[39, 95]),
   midi.NoteOnEvent(tick=0, channel=2, data=[39, 95]),
   midi.NoteOffEvent(tick=240, channel=2, data=[39, 95]),
   midi.NoteOnEvent(tick=0, channel=2, data=[39, 95]),
   midi.NoteOffEvent(tick=240, channel=2, data=[39, 95]),
   midi.NoteOnEvent(tick=0, channel=2, data=[39, 95]),
   midi.NoteOffEvent(tick=240, channel=2, data=[39, 95]),
   midi.NoteOnEvent(tick=0, channel=2, data=[39, 95]),
   midi.NoteOffEvent(tick=240, channel=2, data=[39, 95]),
   midi.NoteOnEvent(tick=0, channel=2, data=[39, 95]),
   midi.NoteOffEvent(tick=240, channel=2, data=[39, 95]),
   midi.NoteOnEvent(tick=0, channel=2, data=[39, 95]),
   midi.NoteOffEvent(tick=240, channel=2, data=[39, 95]),
   midi.NoteOnEvent(tick=0, channel=2, data=[39, 95]),
   midi.NoteOffEvent(tick=240, channel=2, data=[39, 95]),
   midi.NoteOnEvent(tick=0, channel=2, data=[39, 95]),
   midi.NoteOffEvent(tick=240, channel=2, data=[39, 95]),
   midi.NoteOnEvent(tick=0, channel=2, data=[39, 95]),
   midi.NoteOffEvent(tick=240, channel=2, data=[39, 95]),
   midi.NoteOnEvent(tick=0, channel=2, data=[39, 95]),
   midi.NoteOffEvent(tick=240, channel=2, data=[39, 95]),
   midi.NoteOnEvent(tick=0, channel=2, data=[39, 95]),
   midi.NoteOffEvent(tick=240, channel=2, data=[39, 95]),
   midi.NoteOnEvent(tick=0, channel=2, data=[39, 95]),
   midi.NoteOffEvent(tick=240, channel=2, data=[39, 95]),
   midi.NoteOnEvent(tick=0, channel=2, data=[39, 95]),
   midi.NoteOffEvent(tick=240, channel=2, data=[39, 95]),
   midi.NoteOnEvent(tick=0, channel=2, data=[39, 95]),
   midi.NoteOffEvent(tick=240, channel=2, data=[39, 95]),
   midi.NoteOnEvent(tick=0, channel=2, data=[39, 95]),
   midi.NoteOffEvent(tick=240, channel=2, data=[39, 95]),
   midi.NoteOnEvent(tick=0, channel=2, data=[42, 95]),
   midi.NoteOffEvent(tick=240, channel=2, data=[42, 95]),
   midi.NoteOnEvent(tick=0, channel=2, data=[42, 95]),
   midi.NoteOffEvent(tick=240, channel=2, data=[42, 95]),
   midi.NoteOnEvent(tick=0, channel=2, data=[42, 95]),
   midi.NoteOffEvent(tick=240, channel=2, data=[42, 95]),
   midi.NoteOnEvent(tick=0, channel=2, data=[42, 95]),
   midi.NoteOffEvent(tick=240, channel=2, data=[42, 95]),
   midi.NoteOnEvent(tick=0, channel=2, data=[42, 95]),
   midi.NoteOffEvent(tick=240, channel=2, data=[42, 95]),
   midi.NoteOnEvent(tick=0, channel=2, data=[42, 95]),
   midi.NoteOffEvent(tick=240, channel=2, data=[42, 95]),
   midi.NoteOnEvent(tick=0, channel=2, data=[42, 95]),
   midi.NoteOffEvent(tick=240, channel=2, data=[42, 95]),
   midi.NoteOnEvent(tick=0, channel=2, data=[42, 95]),
   midi.NoteOffEvent(tick=240, channel=2, data=[42, 95]),
   midi.NoteOnEvent(tick=0, channel=2, data=[40, 95]),
   midi.NoteOffEvent(tick=240, channel=2, data=[40, 95]),
   midi.NoteOnEvent(tick=0, channel=2, data=[40, 95]),
   midi.NoteOffEvent(tick=240, channel=2, data=[40, 95]),
   midi.NoteOnEvent(tick=0, channel=2, data=[40, 95]),
   midi.NoteOffEvent(tick=240, channel=2, data=[40, 95]),
   midi.NoteOnEvent(tick=0, channel=2, data=[40, 95]),
   midi.NoteOffEvent(tick=240, channel=2, data=[40, 95]),
   midi.NoteOnEvent(tick=0, channel=2, data=[40, 95]),
   midi.NoteOffEvent(tick=240, channel=2, data=[40, 95]),
   midi.NoteOnEvent(tick=0, channel=2, data=[40, 95]),
   midi.NoteOffEvent(tick=240, channel=2, data=[40, 95]),
   midi.NoteOnEvent(tick=0, channel=2, data=[40, 95]),
   midi.NoteOffEvent(tick=240, channel=2, data=[40, 95]),
   midi.NoteOnEvent(tick=0, channel=2, data=[46, 95]),
   midi.NoteOffEvent(tick=240, channel=2, data=[46, 95]),
   midi.NoteOnEvent(tick=0, channel=2, data=[39, 95]),
   midi.NoteOffEvent(tick=240, channel=2, data=[39, 95]),
   midi.NoteOnEvent(tick=0, channel=2, data=[39, 95]),
   midi.NoteOffEvent(tick=240, channel=2, data=[39, 95]),
   midi.NoteOnEvent(tick=0, channel=2, data=[39, 95]),
   midi.NoteOffEvent(tick=240, channel=2, data=[39, 95]),
   midi.NoteOnEvent(tick=0, channel=2, data=[39, 95]),
   midi.NoteOffEvent(tick=240, channel=2, data=[39, 95]),
   midi.NoteOnEvent(tick=0, channel=2, data=[39, 95]),
   midi.NoteOffEvent(tick=240, channel=2, data=[39, 95]),
   midi.NoteOnEvent(tick=0, channel=2, data=[39, 95]),
   midi.NoteOffEvent(tick=240, channel=2, data=[39, 95]),
   midi.NoteOnEvent(tick=0, channel=2, data=[39, 95]),
   midi.NoteOffEvent(tick=240, channel=2, data=[39, 95]),
   midi.NoteOnEvent(tick=0, channel=2, data=[39, 95]),
   midi.NoteOffEvent(tick=240, channel=2, data=[39, 95]),
   midi.NoteOnEvent(tick=0, channel=2, data=[39, 95]),
   midi.NoteOffEvent(tick=240, channel=2, data=[39, 95]),
   midi.NoteOnEvent(tick=0, channel=2, data=[39, 95]),
   midi.NoteOffEvent(tick=240, channel=2, data=[39, 95]),
   midi.NoteOnEvent(tick=0, channel=2, data=[39, 95]),
   midi.NoteOffEvent(tick=240, channel=2, data=[39, 95]),
   midi.NoteOnEvent(tick=0, channel=2, data=[39, 95]),
   midi.NoteOffEvent(tick=240, channel=2, data=[39, 95]),
   midi.NoteOnEvent(tick=0, channel=2, data=[39, 95]),
   midi.NoteOffEvent(tick=240, channel=2, data=[39, 95]),
   midi.NoteOnEvent(tick=0, channel=2, data=[39, 95]),
   midi.NoteOffEvent(tick=240, channel=2, data=[39, 95]),
   midi.NoteOnEvent(tick=0, channel=2, data=[39, 95]),
   midi.NoteOffEvent(tick=240, channel=2, data=[39, 95]),
   midi.NoteOnEvent(tick=0, channel=2, data=[39, 95]),
   midi.NoteOffEvent(tick=240, channel=2, data=[39, 95]),
   midi.NoteOnEvent(tick=0, channel=2, data=[42, 95]),
   midi.NoteOffEvent(tick=240, channel=2, data=[42, 95]),
   midi.NoteOnEvent(tick=0, channel=2, data=[42, 95]),
   midi.NoteOffEvent(tick=240, channel=2, data=[42, 95]),
   midi.NoteOnEvent(tick=0, channel=2, data=[42, 95]),
   midi.NoteOffEvent(tick=240, channel=2, data=[42, 95]),
   midi.NoteOnEvent(tick=0, channel=2, data=[42, 95]),
   midi.NoteOffEvent(tick=240, channel=2, data=[42, 95]),
   midi.NoteOnEvent(tick=0, channel=2, data=[42, 95]),
   midi.NoteOffEvent(tick=240, channel=2, data=[42, 95]),
   midi.NoteOnEvent(tick=0, channel=2, data=[42, 95]),
   midi.NoteOffEvent(tick=240, channel=2, data=[42, 95]),
   midi.NoteOnEvent(tick=0, channel=2, data=[42, 95]),
   midi.NoteOffEvent(tick=240, channel=2, data=[42, 95]),
   midi.NoteOnEvent(tick=0, channel=2, data=[42, 95]),
   midi.NoteOffEvent(tick=240, channel=2, data=[42, 95]),
   midi.NoteOnEvent(tick=0, channel=2, data=[40, 95]),
   midi.NoteOffEvent(tick=240, channel=2, data=[40, 95]),
   midi.NoteOnEvent(tick=0, channel=2, data=[40, 95]),
   midi.NoteOffEvent(tick=240, channel=2, data=[40, 95]),
   midi.NoteOnEvent(tick=0, channel=2, data=[40, 95]),
   midi.NoteOffEvent(tick=240, channel=2, data=[40, 95]),
   midi.NoteOnEvent(tick=0, channel=2, data=[40, 95]),
   midi.NoteOffEvent(tick=240, channel=2, data=[40, 95]),
   midi.NoteOnEvent(tick=0, channel=2, data=[40, 95]),
   midi.NoteOffEvent(tick=240, channel=2, data=[40, 95]),
   midi.NoteOnEvent(tick=0, channel=2, data=[40, 95]),
   midi.NoteOffEvent(tick=240, channel=2, data=[40, 95]),
   midi.NoteOnEvent(tick=0, channel=2, data=[40, 95]),
   midi.NoteOffEvent(tick=240, channel=2, data=[40, 95]),
   midi.NoteOnEvent(tick=0, channel=2, data=[46, 95]),
   midi.NoteOffEvent(tick=240, channel=2, data=[46, 95]),
   midi.NoteOnEvent(tick=0, channel=2, data=[39, 95]),
   midi.NoteOffEvent(tick=240, channel=2, data=[39, 95]),
   midi.NoteOnEvent(tick=0, channel=2, data=[39, 95]),
   midi.NoteOffEvent(tick=240, channel=2, data=[39, 95]),
   midi.NoteOnEvent(tick=0, channel=2, data=[39, 95]),
   midi.NoteOffEvent(tick=240, channel=2, data=[39, 95]),
   midi.NoteOnEvent(tick=0, channel=2, data=[39, 95]),
   midi.NoteOffEvent(tick=240, channel=2, data=[39, 95]),
   midi.NoteOnEvent(tick=0, channel=2, data=[39, 95]),
   midi.NoteOffEvent(tick=240, channel=2, data=[39, 95]),
   midi.NoteOnEvent(tick=0, channel=2, data=[39, 95]),
   midi.NoteOffEvent(tick=240, channel=2, data=[39, 95]),
   midi.NoteOnEvent(tick=0, channel=2, data=[39, 95]),
   midi.NoteOffEvent(tick=240, channel=2, data=[39, 95]),
   midi.NoteOnEvent(tick=0, channel=2, data=[39, 95]),
   midi.NoteOffEvent(tick=240, channel=2, data=[39, 95]),
   midi.NoteOnEvent(tick=0, channel=2, data=[39, 95]),
   midi.NoteOffEvent(tick=240, channel=2, data=[39, 95]),
   midi.NoteOnEvent(tick=0, channel=2, data=[39, 95]),
   midi.NoteOffEvent(tick=240, channel=2, data=[39, 95]),
   midi.NoteOnEvent(tick=0, channel=2, data=[39, 95]),
   midi.NoteOffEvent(tick=240, channel=2, data=[39, 95]),
   midi.NoteOnEvent(tick=0, channel=2, data=[39, 95]),
   midi.NoteOffEvent(tick=240, channel=2, data=[39, 95]),
   midi.NoteOnEvent(tick=0, channel=2, data=[39, 95]),
   midi.NoteOffEvent(tick=240, channel=2, data=[39, 95]),
   midi.NoteOnEvent(tick=0, channel=2, data=[39, 95]),
   midi.NoteOffEvent(tick=240, channel=2, data=[39, 95]),
   midi.NoteOnEvent(tick=0, channel=2, data=[39, 95]),
   midi.NoteOffEvent(tick=240, channel=2, data=[39, 95]),
   midi.NoteOnEvent(tick=0, channel=2, data=[39, 95]),
   midi.NoteOffEvent(tick=240, channel=2, data=[39, 95]),
   midi.NoteOnEvent(tick=0, channel=2, data=[42, 95]),
   midi.NoteOffEvent(tick=240, channel=2, data=[42, 95]),
   midi.NoteOnEvent(tick=0, channel=2, data=[42, 95]),
   midi.NoteOffEvent(tick=240, channel=2, data=[42, 95]),
   midi.NoteOnEvent(tick=0, channel=2, data=[42, 95]),
   midi.NoteOffEvent(tick=240, channel=2, data=[42, 95]),
   midi.NoteOnEvent(tick=0, channel=2, data=[42, 95]),
   midi.NoteOffEvent(tick=240, channel=2, data=[42, 95]),
   midi.NoteOnEvent(tick=0, channel=2, data=[42, 95]),
   midi.NoteOffEvent(tick=240, channel=2, data=[42, 95]),
   midi.NoteOnEvent(tick=0, channel=2, data=[42, 95]),
   midi.NoteOffEvent(tick=240, channel=2, data=[42, 95]),
   midi.NoteOnEvent(tick=0, channel=2, data=[42, 95]),
   midi.NoteOffEvent(tick=240, channel=2, data=[42, 95]),
   midi.NoteOnEvent(tick=0, channel=2, data=[42, 95]),
   midi.NoteOffEvent(tick=240, channel=2, data=[42, 95]),
   midi.NoteOnEvent(tick=0, channel=2, data=[40, 95]),
   midi.NoteOffEvent(tick=240, channel=2, data=[40, 95]),
   midi.NoteOnEvent(tick=0, channel=2, data=[40, 95]),
   midi.NoteOffEvent(tick=240, channel=2, data=[40, 95]),
   midi.NoteOnEvent(tick=0, channel=2, data=[40, 95]),
   midi.NoteOffEvent(tick=240, channel=2, data=[40, 95]),
   midi.NoteOnEvent(tick=0, channel=2, data=[40, 95]),
   midi.NoteOffEvent(tick=240, channel=2, data=[40, 95]),
   midi.NoteOnEvent(tick=0, channel=2, data=[40, 95]),
   midi.NoteOffEvent(tick=240, channel=2, data=[40, 95]),
   midi.NoteOnEvent(tick=0, channel=2, data=[40, 95]),
   midi.NoteOffEvent(tick=240, channel=2, data=[40, 95]),
   midi.NoteOnEvent(tick=0, channel=2, data=[40, 95]),
   midi.NoteOffEvent(tick=240, channel=2, data=[40, 95]),
   midi.NoteOnEvent(tick=0, channel=2, data=[46, 95]),
   midi.NoteOffEvent(tick=240, channel=2, data=[46, 95]),
   midi.NoteOnEvent(tick=0, channel=2, data=[39, 95]),
   midi.NoteOffEvent(tick=240, channel=2, data=[39, 95]),
   midi.NoteOnEvent(tick=0, channel=2, data=[39, 95]),
   midi.NoteOffEvent(tick=240, channel=2, data=[39, 95]),
   midi.NoteOnEvent(tick=0, channel=2, data=[39, 95]),
   midi.NoteOffEvent(tick=240, channel=2, data=[39, 95]),
   midi.NoteOnEvent(tick=0, channel=2, data=[39, 95]),
   midi.NoteOffEvent(tick=240, channel=2, data=[39, 95]),
   midi.NoteOnEvent(tick=0, channel=2, data=[39, 95]),
   midi.NoteOffEvent(tick=240, channel=2, data=[39, 95]),
   midi.NoteOnEvent(tick=0, channel=2, data=[39, 95]),
   midi.NoteOffEvent(tick=240, channel=2, data=[39, 95]),
   midi.NoteOnEvent(tick=0, channel=2, data=[39, 95]),
   midi.NoteOffEvent(tick=240, channel=2, data=[39, 95]),
   midi.NoteOnEvent(tick=0, channel=2, data=[39, 95]),
   midi.NoteOffEvent(tick=240, channel=2, data=[39, 95]),
   midi.NoteOnEvent(tick=0, channel=2, data=[39, 95]),
   midi.NoteOffEvent(tick=240, channel=2, data=[39, 95]),
   midi.NoteOnEvent(tick=0, channel=2, data=[39, 95]),
   midi.NoteOffEvent(tick=240, channel=2, data=[39, 95]),
   midi.NoteOnEvent(tick=0, channel=2, data=[39, 95]),
   midi.NoteOffEvent(tick=240, channel=2, data=[39, 95]),
   midi.NoteOnEvent(tick=0, channel=2, data=[39, 95]),
   midi.NoteOffEvent(tick=240, channel=2, data=[39, 95]),
   midi.NoteOnEvent(tick=0, channel=2, data=[39, 95]),
   midi.NoteOffEvent(tick=240, channel=2, data=[39, 95]),
   midi.NoteOnEvent(tick=0, channel=2, data=[39, 95]),
   midi.NoteOffEvent(tick=240, channel=2, data=[39, 95]),
   midi.NoteOnEvent(tick=0, channel=2, data=[39, 95]),
   midi.NoteOffEvent(tick=240, channel=2, data=[39, 95]),
   midi.NoteOnEvent(tick=0, channel=2, data=[39, 95]),
   midi.NoteOffEvent(tick=240, channel=2, data=[39, 95]),
   midi.NoteOnEvent(tick=0, channel=2, data=[42, 95]),
   midi.NoteOffEvent(tick=240, channel=2, data=[42, 95]),
   midi.NoteOnEvent(tick=0, channel=2, data=[42, 95]),
   midi.NoteOffEvent(tick=240, channel=2, data=[42, 95]),
   midi.NoteOnEvent(tick=0, channel=2, data=[42, 95]),
   midi.NoteOffEvent(tick=240, channel=2, data=[42, 95]),
   midi.NoteOnEvent(tick=0, channel=2, data=[42, 95]),
   midi.NoteOffEvent(tick=240, channel=2, data=[42, 95]),
   midi.NoteOnEvent(tick=0, channel=2, data=[42, 95]),
   midi.NoteOffEvent(tick=240, channel=2, data=[42, 95]),
   midi.NoteOnEvent(tick=0, channel=2, data=[42, 95]),
   midi.NoteOffEvent(tick=240, channel=2, data=[42, 95]),
   midi.NoteOnEvent(tick=0, channel=2, data=[42, 95]),
   midi.NoteOffEvent(tick=240, channel=2, data=[42, 95]),
   midi.NoteOnEvent(tick=0, channel=2, data=[42, 95]),
   midi.NoteOffEvent(tick=240, channel=2, data=[42, 95]),
   midi.NoteOnEvent(tick=0, channel=2, data=[40, 95]),
   midi.NoteOffEvent(tick=240, channel=2, data=[40, 95]),
   midi.NoteOnEvent(tick=0, channel=2, data=[40, 95]),
   midi.NoteOffEvent(tick=240, channel=2, data=[40, 95]),
   midi.NoteOnEvent(tick=0, channel=2, data=[40, 95]),
   midi.NoteOffEvent(tick=240, channel=2, data=[40, 95]),
   midi.NoteOnEvent(tick=0, channel=2, data=[40, 95]),
   midi.NoteOffEvent(tick=240, channel=2, data=[40, 95]),
   midi.NoteOnEvent(tick=0, channel=2, data=[40, 95]),
   midi.NoteOffEvent(tick=240, channel=2, data=[40, 95]),
   midi.NoteOnEvent(tick=0, channel=2, data=[40, 95]),
   midi.NoteOffEvent(tick=240, channel=2, data=[40, 95]),
   midi.NoteOnEvent(tick=0, channel=2, data=[40, 95]),
   midi.NoteOffEvent(tick=240, channel=2, data=[40, 95]),
   midi.NoteOnEvent(tick=0, channel=2, data=[46, 95]),
   midi.NoteOffEvent(tick=240, channel=2, data=[46, 95]),
   midi.NoteOnEvent(tick=0, channel=2, data=[39, 95]),
   midi.NoteOffEvent(tick=240, channel=2, data=[39, 95]),
   midi.NoteOnEvent(tick=0, channel=2, data=[39, 95]),
   midi.NoteOffEvent(tick=240, channel=2, data=[39, 95]),
   midi.NoteOnEvent(tick=0, channel=2, data=[39, 95]),
   midi.NoteOffEvent(tick=240, channel=2, data=[39, 95]),
   midi.NoteOnEvent(tick=0, channel=2, data=[39, 95]),
   midi.NoteOffEvent(tick=240, channel=2, data=[39, 95]),
   midi.NoteOnEvent(tick=0, channel=2, data=[39, 95]),
   midi.NoteOffEvent(tick=240, channel=2, data=[39, 95]),
   midi.NoteOnEvent(tick=0, channel=2, data=[39, 95]),
   midi.NoteOffEvent(tick=240, channel=2, data=[39, 95]),
   midi.NoteOnEvent(tick=0, channel=2, data=[39, 95]),
   midi.NoteOffEvent(tick=240, channel=2, data=[39, 95]),
   midi.NoteOnEvent(tick=0, channel=2, data=[39, 95]),
   midi.NoteOffEvent(tick=240, channel=2, data=[39, 95]),
   midi.NoteOnEvent(tick=0, channel=2, data=[39, 95]),
   midi.NoteOffEvent(tick=240, channel=2, data=[39, 95]),
   midi.NoteOnEvent(tick=0, channel=2, data=[39, 95]),
   midi.NoteOffEvent(tick=240, channel=2, data=[39, 95]),
   midi.NoteOnEvent(tick=0, channel=2, data=[39, 95]),
   midi.NoteOffEvent(tick=240, channel=2, data=[39, 95]),
   midi.NoteOnEvent(tick=0, channel=2, data=[39, 95]),
   midi.NoteOffEvent(tick=240, channel=2, data=[39, 95]),
   midi.NoteOnEvent(tick=0, channel=2, data=[39, 95]),
   midi.NoteOffEvent(tick=240, channel=2, data=[39, 95]),
   midi.NoteOnEvent(tick=0, channel=2, data=[39, 95]),
   midi.NoteOffEvent(tick=240, channel=2, data=[39, 95]),
   midi.NoteOnEvent(tick=0, channel=2, data=[39, 95]),
   midi.NoteOffEvent(tick=240, channel=2, data=[39, 95]),
   midi.NoteOnEvent(tick=0, channel=2, data=[39, 95]),
   midi.NoteOffEvent(tick=240, channel=2, data=[39, 95]),
   midi.NoteOnEvent(tick=0, channel=2, data=[42, 95]),
   midi.NoteOffEvent(tick=240, channel=2, data=[42, 95]),
   midi.NoteOnEvent(tick=0, channel=2, data=[42, 95]),
   midi.NoteOffEvent(tick=240, channel=2, data=[42, 95]),
   midi.NoteOnEvent(tick=0, channel=2, data=[42, 95]),
   midi.NoteOffEvent(tick=240, channel=2, data=[42, 95]),
   midi.NoteOnEvent(tick=0, channel=2, data=[42, 95]),
   midi.NoteOffEvent(tick=240, channel=2, data=[42, 95]),
   midi.NoteOnEvent(tick=0, channel=2, data=[42, 95]),
   midi.NoteOffEvent(tick=240, channel=2, data=[42, 95]),
   midi.NoteOnEvent(tick=0, channel=2, data=[42, 95]),
   midi.NoteOffEvent(tick=240, channel=2, data=[42, 95]),
   midi.NoteOnEvent(tick=0, channel=2, data=[42, 95]),
   midi.NoteOffEvent(tick=240, channel=2, data=[42, 95]),
   midi.NoteOnEvent(tick=0, channel=2, data=[42, 95]),
   midi.NoteOffEvent(tick=240, channel=2, data=[42, 95]),
   midi.NoteOnEvent(tick=0, channel=2, data=[40, 95]),
   midi.NoteOffEvent(tick=240, channel=2, data=[40, 95]),
   midi.NoteOnEvent(tick=0, channel=2, data=[40, 95]),
   midi.NoteOffEvent(tick=240, channel=2, data=[40, 95]),
   midi.NoteOnEvent(tick=0, channel=2, data=[40, 95]),
   midi.NoteOffEvent(tick=240, channel=2, data=[40, 95]),
   midi.NoteOnEvent(tick=0, channel=2, data=[40, 95]),
   midi.NoteOffEvent(tick=240, channel=2, data=[40, 95]),
   midi.NoteOnEvent(tick=0, channel=2, data=[40, 95]),
   midi.NoteOffEvent(tick=240, channel=2, data=[40, 95]),
   midi.NoteOnEvent(tick=0, channel=2, data=[40, 95]),
   midi.NoteOffEvent(tick=240, channel=2, data=[40, 95]),
   midi.NoteOnEvent(tick=0, channel=2, data=[40, 95]),
   midi.NoteOffEvent(tick=240, channel=2, data=[40, 95]),
   midi.NoteOnEvent(tick=0, channel=2, data=[46, 95]),
   midi.NoteOffEvent(tick=240, channel=2, data=[46, 95]),
   midi.NoteOnEvent(tick=0, channel=2, data=[39, 95]),
   midi.NoteOffEvent(tick=240, channel=2, data=[39, 95]),
   midi.NoteOnEvent(tick=0, channel=2, data=[39, 95]),
   midi.NoteOffEvent(tick=240, channel=2, data=[39, 95]),
   midi.NoteOnEvent(tick=0, channel=2, data=[39, 95]),
   midi.NoteOffEvent(tick=240, channel=2, data=[39, 95]),
   midi.NoteOnEvent(tick=0, channel=2, data=[39, 95]),
   midi.NoteOffEvent(tick=240, channel=2, data=[39, 95]),
   midi.NoteOnEvent(tick=0, channel=2, data=[39, 95]),
   midi.NoteOffEvent(tick=240, channel=2, data=[39, 95]),
   midi.NoteOnEvent(tick=0, channel=2, data=[39, 95]),
   midi.NoteOffEvent(tick=240, channel=2, data=[39, 95]),
   midi.NoteOnEvent(tick=0, channel=2, data=[39, 95]),
   midi.NoteOffEvent(tick=240, channel=2, data=[39, 95]),
   midi.NoteOnEvent(tick=0, channel=2, data=[39, 95]),
   midi.NoteOffEvent(tick=240, channel=2, data=[39, 95]),
   midi.NoteOnEvent(tick=0, channel=2, data=[39, 95]),
   midi.NoteOffEvent(tick=240, channel=2, data=[39, 95]),
   midi.NoteOnEvent(tick=0, channel=2, data=[39, 95]),
   midi.NoteOffEvent(tick=240, channel=2, data=[39, 95]),
   midi.NoteOnEvent(tick=0, channel=2, data=[39, 95]),
   midi.NoteOffEvent(tick=240, channel=2, data=[39, 95]),
   midi.NoteOnEvent(tick=0, channel=2, data=[39, 95]),
   midi.NoteOffEvent(tick=240, channel=2, data=[39, 95]),
   midi.NoteOnEvent(tick=0, channel=2, data=[39, 95]),
   midi.NoteOffEvent(tick=240, channel=2, data=[39, 95]),
   midi.NoteOnEvent(tick=0, channel=2, data=[39, 95]),
   midi.NoteOffEvent(tick=240, channel=2, data=[39, 95]),
   midi.NoteOnEvent(tick=0, channel=2, data=[39, 95]),
   midi.NoteOffEvent(tick=240, channel=2, data=[39, 95]),
   midi.NoteOnEvent(tick=0, channel=2, data=[39, 95]),
   midi.NoteOffEvent(tick=240, channel=2, data=[39, 95]),
   midi.NoteOnEvent(tick=0, channel=2, data=[42, 95]),
   midi.NoteOffEvent(tick=240, channel=2, data=[42, 95]),
   midi.NoteOnEvent(tick=0, channel=2, data=[42, 95]),
   midi.NoteOffEvent(tick=240, channel=2, data=[42, 95]),
   midi.NoteOnEvent(tick=0, channel=2, data=[42, 95]),
   midi.NoteOffEvent(tick=240, channel=2, data=[42, 95]),
   midi.NoteOnEvent(tick=0, channel=2, data=[42, 95]),
   midi.NoteOffEvent(tick=240, channel=2, data=[42, 95]),
   midi.NoteOnEvent(tick=0, channel=2, data=[42, 95]),
   midi.NoteOffEvent(tick=240, channel=2, data=[42, 95]),
   midi.NoteOnEvent(tick=0, channel=2, data=[42, 95]),
   midi.NoteOffEvent(tick=240, channel=2, data=[42, 95]),
   midi.NoteOnEvent(tick=0, channel=2, data=[42, 95]),
   midi.NoteOffEvent(tick=240, channel=2, data=[42, 95]),
   midi.NoteOnEvent(tick=0, channel=2, data=[42, 95]),
   midi.NoteOffEvent(tick=240, channel=2, data=[42, 95]),
   midi.NoteOnEvent(tick=0, channel=2, data=[40, 95]),
   midi.NoteOffEvent(tick=240, channel=2, data=[40, 95]),
   midi.NoteOnEvent(tick=0, channel=2, data=[40, 95]),
   midi.NoteOffEvent(tick=240, channel=2, data=[40, 95]),
   midi.NoteOnEvent(tick=0, channel=2, data=[40, 95]),
   midi.NoteOffEvent(tick=240, channel=2, data=[40, 95]),
   midi.NoteOnEvent(tick=0, channel=2, data=[40, 95]),
   midi.NoteOffEvent(tick=240, channel=2, data=[40, 95]),
   midi.NoteOnEvent(tick=0, channel=2, data=[40, 95]),
   midi.NoteOffEvent(tick=240, channel=2, data=[40, 95]),
   midi.NoteOnEvent(tick=0, channel=2, data=[40, 95]),
   midi.NoteOffEvent(tick=240, channel=2, data=[40, 95]),
   midi.NoteOnEvent(tick=0, channel=2, data=[40, 95]),
   midi.NoteOffEvent(tick=240, channel=2, data=[40, 95]),
   midi.NoteOnEvent(tick=0, channel=2, data=[46, 95]),
   midi.NoteOffEvent(tick=240, channel=2, data=[46, 95]),
   midi.NoteOnEvent(tick=0, channel=2, data=[39, 95]),
   midi.NoteOffEvent(tick=240, channel=2, data=[39, 95]),
   midi.NoteOnEvent(tick=0, channel=2, data=[39, 95]),
   midi.NoteOffEvent(tick=240, channel=2, data=[39, 95]),
   midi.NoteOnEvent(tick=0, channel=2, data=[39, 95]),
   midi.NoteOffEvent(tick=240, channel=2, data=[39, 95]),
   midi.NoteOnEvent(tick=0, channel=2, data=[39, 95]),
   midi.NoteOffEvent(tick=240, channel=2, data=[39, 95]),
   midi.NoteOnEvent(tick=0, channel=2, data=[39, 95]),
   midi.NoteOffEvent(tick=240, channel=2, data=[39, 95]),
   midi.NoteOnEvent(tick=0, channel=2, data=[39, 95]),
   midi.NoteOffEvent(tick=240, channel=2, data=[39, 95]),
   midi.NoteOnEvent(tick=0, channel=2, data=[39, 95]),
   midi.NoteOffEvent(tick=240, channel=2, data=[39, 95]),
   midi.NoteOnEvent(tick=0, channel=2, data=[39, 95]),
   midi.NoteOffEvent(tick=240, channel=2, data=[39, 95]),
   midi.NoteOnEvent(tick=0, channel=2, data=[39, 95]),
   midi.NoteOffEvent(tick=240, channel=2, data=[39, 95]),
   midi.NoteOnEvent(tick=0, channel=2, data=[39, 95]),
   midi.NoteOffEvent(tick=240, channel=2, data=[39, 95]),
   midi.NoteOnEvent(tick=0, channel=2, data=[39, 95]),
   midi.NoteOffEvent(tick=240, channel=2, data=[39, 95]),
   midi.NoteOnEvent(tick=0, channel=2, data=[39, 95]),
   midi.NoteOffEvent(tick=240, channel=2, data=[39, 95]),
   midi.NoteOnEvent(tick=0, channel=2, data=[39, 95]),
   midi.NoteOffEvent(tick=240, channel=2, data=[39, 95]),
   midi.NoteOnEvent(tick=0, channel=2, data=[39, 95]),
   midi.NoteOffEvent(tick=240, channel=2, data=[39, 95]),
   midi.NoteOnEvent(tick=0, channel=2, data=[39, 95]),
   midi.NoteOffEvent(tick=240, channel=2, data=[39, 95]),
   midi.NoteOnEvent(tick=0, channel=2, data=[39, 95]),
   midi.NoteOffEvent(tick=240, channel=2, data=[39, 95]),
   midi.NoteOnEvent(tick=0, channel=2, data=[42, 95]),
   midi.NoteOffEvent(tick=240, channel=2, data=[42, 95]),
   midi.NoteOnEvent(tick=0, channel=2, data=[42, 95]),
   midi.NoteOffEvent(tick=240, channel=2, data=[42, 95]),
   midi.NoteOnEvent(tick=0, channel=2, data=[42, 95]),
   midi.NoteOffEvent(tick=240, channel=2, data=[42, 95]),
   midi.NoteOnEvent(tick=0, channel=2, data=[42, 95]),
   midi.NoteOffEvent(tick=240, channel=2, data=[42, 95]),
   midi.NoteOnEvent(tick=0, channel=2, data=[42, 95]),
   midi.NoteOffEvent(tick=240, channel=2, data=[42, 95]),
   midi.NoteOnEvent(tick=0, channel=2, data=[42, 95]),
   midi.NoteOffEvent(tick=240, channel=2, data=[42, 95]),
   midi.NoteOnEvent(tick=0, channel=2, data=[42, 95]),
   midi.NoteOffEvent(tick=240, channel=2, data=[42, 95]),
   midi.NoteOnEvent(tick=0, channel=2, data=[42, 95]),
   midi.NoteOffEvent(tick=240, channel=2, data=[42, 95]),
   midi.NoteOnEvent(tick=0, channel=2, data=[40, 95]),
   midi.NoteOffEvent(tick=240, channel=2, data=[40, 95]),
   midi.NoteOnEvent(tick=0, channel=2, data=[40, 95]),
   midi.NoteOffEvent(tick=240, channel=2, data=[40, 95]),
   midi.NoteOnEvent(tick=0, channel=2, data=[40, 95]),
   midi.NoteOffEvent(tick=240, channel=2, data=[40, 95]),
   midi.NoteOnEvent(tick=0, channel=2, data=[40, 95]),
   midi.NoteOffEvent(tick=240, channel=2, data=[40, 95]),
   midi.NoteOnEvent(tick=0, channel=2, data=[40, 95]),
   midi.NoteOffEvent(tick=240, channel=2, data=[40, 95]),
   midi.NoteOnEvent(tick=0, channel=2, data=[40, 95]),
   midi.NoteOffEvent(tick=240, channel=2, data=[40, 95]),
   midi.NoteOnEvent(tick=0, channel=2, data=[40, 95]),
   midi.NoteOffEvent(tick=240, channel=2, data=[40, 95]),
   midi.NoteOnEvent(tick=0, channel=2, data=[46, 95]),
   midi.NoteOffEvent(tick=240, channel=2, data=[46, 95]),
   midi.NoteOnEvent(tick=0, channel=2, data=[39, 95]),
   midi.NoteOffEvent(tick=240, channel=2, data=[39, 95]),
   midi.NoteOnEvent(tick=0, channel=2, data=[39, 95]),
   midi.NoteOffEvent(tick=240, channel=2, data=[39, 95]),
   midi.NoteOnEvent(tick=0, channel=2, data=[39, 95]),
   midi.NoteOffEvent(tick=240, channel=2, data=[39, 95]),
   midi.NoteOnEvent(tick=0, channel=2, data=[39, 95]),
   midi.NoteOffEvent(tick=240, channel=2, data=[39, 95]),
   midi.NoteOnEvent(tick=0, channel=2, data=[39, 95]),
   midi.NoteOffEvent(tick=240, channel=2, data=[39, 95]),
   midi.NoteOnEvent(tick=0, channel=2, data=[39, 95]),
   midi.NoteOffEvent(tick=240, channel=2, data=[39, 95]),
   midi.NoteOnEvent(tick=0, channel=2, data=[39, 95]),
   midi.NoteOffEvent(tick=240, channel=2, data=[39, 95]),
   midi.NoteOnEvent(tick=0, channel=2, data=[39, 95]),
   midi.NoteOffEvent(tick=240, channel=2, data=[39, 95]),
   midi.NoteOnEvent(tick=0, channel=2, data=[39, 95]),
   midi.NoteOffEvent(tick=240, channel=2, data=[39, 95]),
   midi.NoteOnEvent(tick=0, channel=2, data=[39, 95]),
   midi.NoteOffEvent(tick=240, channel=2, data=[39, 95]),
   midi.NoteOnEvent(tick=0, channel=2, data=[39, 95]),
   midi.NoteOffEvent(tick=240, channel=2, data=[39, 95]),
   midi.NoteOnEvent(tick=0, channel=2, data=[39, 95]),
   midi.NoteOffEvent(tick=240, channel=2, data=[39, 95]),
   midi.NoteOnEvent(tick=0, channel=2, data=[39, 95]),
   midi.NoteOffEvent(tick=240, channel=2, data=[39, 95]),
   midi.NoteOnEvent(tick=0, channel=2, data=[39, 95]),
   midi.NoteOffEvent(tick=240, channel=2, data=[39, 95]),
   midi.NoteOnEvent(tick=0, channel=2, data=[39, 95]),
   midi.NoteOffEvent(tick=240, channel=2, data=[39, 95]),
   midi.NoteOnEvent(tick=0, channel=2, data=[39, 95]),
   midi.NoteOffEvent(tick=240, channel=2, data=[39, 95]),
   midi.NoteOnEvent(tick=0, channel=2, data=[42, 95]),
   midi.NoteOffEvent(tick=240, channel=2, data=[42, 95]),
   midi.NoteOnEvent(tick=0, channel=2, data=[42, 95]),
   midi.NoteOffEvent(tick=240, channel=2, data=[42, 95]),
   midi.NoteOnEvent(tick=0, channel=2, data=[42, 95]),
   midi.NoteOffEvent(tick=240, channel=2, data=[42, 95]),
   midi.NoteOnEvent(tick=0, channel=2, data=[42, 95]),
   midi.NoteOffEvent(tick=240, channel=2, data=[42, 95]),
   midi.NoteOnEvent(tick=0, channel=2, data=[42, 95]),
   midi.NoteOffEvent(tick=240, channel=2, data=[42, 95]),
   midi.NoteOnEvent(tick=0, channel=2, data=[42, 95]),
   midi.NoteOffEvent(tick=240, channel=2, data=[42, 95]),
   midi.NoteOnEvent(tick=0, channel=2, data=[42, 95]),
   midi.NoteOffEvent(tick=240, channel=2, data=[42, 95]),
   midi.NoteOnEvent(tick=0, channel=2, data=[42, 95]),
   midi.NoteOffEvent(tick=240, channel=2, data=[42, 95]),
   midi.NoteOnEvent(tick=0, channel=2, data=[40, 95]),
   midi.NoteOffEvent(tick=240, channel=2, data=[40, 95]),
   midi.NoteOnEvent(tick=0, channel=2, data=[40, 95]),
   midi.NoteOffEvent(tick=240, channel=2, data=[40, 95]),
   midi.NoteOnEvent(tick=0, channel=2, data=[40, 95]),
   midi.NoteOffEvent(tick=240, channel=2, data=[40, 95]),
   midi.NoteOnEvent(tick=0, channel=2, data=[40, 95]),
   midi.NoteOffEvent(tick=240, channel=2, data=[40, 95]),
   midi.NoteOnEvent(tick=0, channel=2, data=[40, 95]),
   midi.NoteOffEvent(tick=240, channel=2, data=[40, 95]),
   midi.NoteOnEvent(tick=0, channel=2, data=[40, 95]),
   midi.NoteOffEvent(tick=240, channel=2, data=[40, 95]),
   midi.NoteOnEvent(tick=0, channel=2, data=[40, 95]),
   midi.NoteOffEvent(tick=240, channel=2, data=[40, 95]),
   midi.NoteOnEvent(tick=0, channel=2, data=[46, 95]),
   midi.NoteOffEvent(tick=240, channel=2, data=[46, 95]),
   midi.NoteOnEvent(tick=0, channel=2, data=[39, 95]),
   midi.NoteOffEvent(tick=240, channel=2, data=[39, 95]),
   midi.NoteOnEvent(tick=0, channel=2, data=[39, 95]),
   midi.NoteOffEvent(tick=240, channel=2, data=[39, 95]),
   midi.NoteOnEvent(tick=0, channel=2, data=[39, 95]),
   midi.NoteOffEvent(tick=240, channel=2, data=[39, 95]),
   midi.NoteOnEvent(tick=0, channel=2, data=[39, 95]),
   midi.NoteOffEvent(tick=240, channel=2, data=[39, 95]),
   midi.NoteOnEvent(tick=0, channel=2, data=[39, 95]),
   midi.NoteOffEvent(tick=240, channel=2, data=[39, 95]),
   midi.NoteOnEvent(tick=0, channel=2, data=[39, 95]),
   midi.NoteOffEvent(tick=240, channel=2, data=[39, 95]),
   midi.NoteOnEvent(tick=0, channel=2, data=[39, 95]),
   midi.NoteOffEvent(tick=240, channel=2, data=[39, 95]),
   midi.NoteOnEvent(tick=0, channel=2, data=[39, 95]),
   midi.NoteOffEvent(tick=240, channel=2, data=[39, 95]),
   midi.NoteOnEvent(tick=0, channel=2, data=[39, 95]),
   midi.NoteOffEvent(tick=240, channel=2, data=[39, 95]),
   midi.NoteOnEvent(tick=0, channel=2, data=[39, 95]),
   midi.NoteOffEvent(tick=240, channel=2, data=[39, 95]),
   midi.NoteOnEvent(tick=0, channel=2, data=[39, 95]),
   midi.NoteOffEvent(tick=240, channel=2, data=[39, 95]),
   midi.NoteOnEvent(tick=0, channel=2, data=[39, 95]),
   midi.NoteOffEvent(tick=240, channel=2, data=[39, 95]),
   midi.NoteOnEvent(tick=0, channel=2, data=[39, 95]),
   midi.NoteOffEvent(tick=240, channel=2, data=[39, 95]),
   midi.NoteOnEvent(tick=0, channel=2, data=[39, 95]),
   midi.NoteOffEvent(tick=240, channel=2, data=[39, 95]),
   midi.NoteOnEvent(tick=0, channel=2, data=[39, 95]),
   midi.NoteOffEvent(tick=240, channel=2, data=[39, 95]),
   midi.NoteOnEvent(tick=0, channel=2, data=[39, 95]),
   midi.NoteOffEvent(tick=240, channel=2, data=[39, 95]),
   midi.NoteOnEvent(tick=0, channel=2, data=[42, 95]),
   midi.NoteOffEvent(tick=240, channel=2, data=[42, 95]),
   midi.NoteOnEvent(tick=0, channel=2, data=[42, 95]),
   midi.NoteOffEvent(tick=240, channel=2, data=[42, 95]),
   midi.NoteOnEvent(tick=0, channel=2, data=[42, 95]),
   midi.NoteOffEvent(tick=240, channel=2, data=[42, 95]),
   midi.NoteOnEvent(tick=0, channel=2, data=[42, 95]),
   midi.NoteOffEvent(tick=240, channel=2, data=[42, 95]),
   midi.NoteOnEvent(tick=0, channel=2, data=[42, 95]),
   midi.NoteOffEvent(tick=240, channel=2, data=[42, 95]),
   midi.NoteOnEvent(tick=0, channel=2, data=[42, 95]),
   midi.NoteOffEvent(tick=240, channel=2, data=[42, 95]),
   midi.NoteOnEvent(tick=0, channel=2, data=[42, 95]),
   midi.NoteOffEvent(tick=240, channel=2, data=[42, 95]),
   midi.NoteOnEvent(tick=0, channel=2, data=[42, 95]),
   midi.NoteOffEvent(tick=240, channel=2, data=[42, 95]),
   midi.NoteOnEvent(tick=0, channel=2, data=[40, 95]),
   midi.NoteOffEvent(tick=240, channel=2, data=[40, 95]),
   midi.NoteOnEvent(tick=0, channel=2, data=[40, 95]),
   midi.NoteOffEvent(tick=240, channel=2, data=[40, 95]),
   midi.NoteOnEvent(tick=0, channel=2, data=[40, 95]),
   midi.NoteOffEvent(tick=240, channel=2, data=[40, 95]),
   midi.NoteOnEvent(tick=0, channel=2, data=[40, 95]),
   midi.NoteOffEvent(tick=240, channel=2, data=[40, 95]),
   midi.NoteOnEvent(tick=0, channel=2, data=[40, 95]),
   midi.NoteOffEvent(tick=240, channel=2, data=[40, 95]),
   midi.NoteOnEvent(tick=0, channel=2, data=[40, 95]),
   midi.NoteOffEvent(tick=240, channel=2, data=[40, 95]),
   midi.NoteOnEvent(tick=0, channel=2, data=[40, 95]),
   midi.NoteOffEvent(tick=240, channel=2, data=[40, 95]),
   midi.NoteOnEvent(tick=0, channel=2, data=[46, 95]),
   midi.NoteOffEvent(tick=240, channel=2, data=[46, 95]),
   midi.NoteOnEvent(tick=0, channel=2, data=[39, 95]),
   midi.NoteOffEvent(tick=240, channel=2, data=[39, 95]),
   midi.NoteOnEvent(tick=0, channel=2, data=[39, 95]),
   midi.NoteOffEvent(tick=240, channel=2, data=[39, 95]),
   midi.NoteOnEvent(tick=0, channel=2, data=[39, 95]),
   midi.NoteOffEvent(tick=240, channel=2, data=[39, 95]),
   midi.NoteOnEvent(tick=0, channel=2, data=[39, 95]),
   midi.NoteOffEvent(tick=240, channel=2, data=[39, 95]),
   midi.NoteOnEvent(tick=0, channel=2, data=[39, 95]),
   midi.NoteOffEvent(tick=240, channel=2, data=[39, 95]),
   midi.NoteOnEvent(tick=0, channel=2, data=[39, 95]),
   midi.NoteOffEvent(tick=240, channel=2, data=[39, 95]),
   midi.NoteOnEvent(tick=0, channel=2, data=[39, 95]),
   midi.NoteOffEvent(tick=240, channel=2, data=[39, 95]),
   midi.NoteOnEvent(tick=0, channel=2, data=[39, 95]),
   midi.NoteOffEvent(tick=240, channel=2, data=[39, 95]),
   midi.NoteOnEvent(tick=0, channel=2, data=[39, 95]),
   midi.NoteOffEvent(tick=240, channel=2, data=[39, 95]),
   midi.NoteOnEvent(tick=0, channel=2, data=[39, 95]),
   midi.NoteOffEvent(tick=240, channel=2, data=[39, 95]),
   midi.NoteOnEvent(tick=0, channel=2, data=[39, 95]),
   midi.NoteOffEvent(tick=240, channel=2, data=[39, 95]),
   midi.NoteOnEvent(tick=0, channel=2, data=[39, 95]),
   midi.NoteOffEvent(tick=240, channel=2, data=[39, 95]),
   midi.NoteOnEvent(tick=0, channel=2, data=[39, 95]),
   midi.NoteOffEvent(tick=240, channel=2, data=[39, 95]),
   midi.NoteOnEvent(tick=0, channel=2, data=[39, 95]),
   midi.NoteOffEvent(tick=240, channel=2, data=[39, 95]),
   midi.NoteOnEvent(tick=0, channel=2, data=[39, 95]),
   midi.NoteOffEvent(tick=240, channel=2, data=[39, 95]),
   midi.NoteOnEvent(tick=0, channel=2, data=[39, 95]),
   midi.NoteOffEvent(tick=240, channel=2, data=[39, 95]),
   midi.NoteOnEvent(tick=0, channel=2, data=[42, 95]),
   midi.NoteOffEvent(tick=240, channel=2, data=[42, 95]),
   midi.NoteOnEvent(tick=0, channel=2, data=[42, 95]),
   midi.NoteOffEvent(tick=240, channel=2, data=[42, 95]),
   midi.NoteOnEvent(tick=0, channel=2, data=[42, 95]),
   midi.NoteOffEvent(tick=240, channel=2, data=[42, 95]),
   midi.NoteOnEvent(tick=0, channel=2, data=[42, 95]),
   midi.NoteOffEvent(tick=240, channel=2, data=[42, 95]),
   midi.NoteOnEvent(tick=0, channel=2, data=[42, 95]),
   midi.NoteOffEvent(tick=240, channel=2, data=[42, 95]),
   midi.NoteOnEvent(tick=0, channel=2, data=[42, 95]),
   midi.NoteOffEvent(tick=240, channel=2, data=[42, 95]),
   midi.NoteOnEvent(tick=0, channel=2, data=[42, 95]),
   midi.NoteOffEvent(tick=240, channel=2, data=[42, 95]),
   midi.NoteOnEvent(tick=0, channel=2, data=[42, 95]),
   midi.NoteOffEvent(tick=240, channel=2, data=[42, 95]),
   midi.NoteOnEvent(tick=0, channel=2, data=[40, 95]),
   midi.NoteOffEvent(tick=240, channel=2, data=[40, 95]),
   midi.NoteOnEvent(tick=0, channel=2, data=[40, 95]),
   midi.NoteOffEvent(tick=240, channel=2, data=[40, 95]),
   midi.NoteOnEvent(tick=0, channel=2, data=[40, 95]),
   midi.NoteOffEvent(tick=240, channel=2, data=[40, 95]),
   midi.NoteOnEvent(tick=0, channel=2, data=[40, 95]),
   midi.NoteOffEvent(tick=240, channel=2, data=[40, 95]),
   midi.NoteOnEvent(tick=0, channel=2, data=[40, 95]),
   midi.NoteOffEvent(tick=240, channel=2, data=[40, 95]),
   midi.NoteOnEvent(tick=0, channel=2, data=[40, 95]),
   midi.NoteOffEvent(tick=240, channel=2, data=[40, 95]),
   midi.NoteOnEvent(tick=0, channel=2, data=[40, 95]),
   midi.NoteOffEvent(tick=240, channel=2, data=[40, 95]),
   midi.NoteOnEvent(tick=0, channel=2, data=[46, 95]),
   midi.NoteOffEvent(tick=240, channel=2, data=[46, 95]),
   midi.NoteOnEvent(tick=0, channel=2, data=[39, 95]),
   midi.NoteOffEvent(tick=240, channel=2, data=[39, 95]),
   midi.NoteOnEvent(tick=0, channel=2, data=[39, 95]),
   midi.NoteOffEvent(tick=240, channel=2, data=[39, 95]),
   midi.NoteOnEvent(tick=0, channel=2, data=[39, 95]),
   midi.NoteOffEvent(tick=240, channel=2, data=[39, 95]),
   midi.NoteOnEvent(tick=0, channel=2, data=[39, 95]),
   midi.NoteOffEvent(tick=240, channel=2, data=[39, 95]),
   midi.NoteOnEvent(tick=0, channel=2, data=[39, 95]),
   midi.NoteOffEvent(tick=240, channel=2, data=[39, 95]),
   midi.NoteOnEvent(tick=0, channel=2, data=[39, 95]),
   midi.NoteOffEvent(tick=240, channel=2, data=[39, 95]),
   midi.NoteOnEvent(tick=0, channel=2, data=[39, 95]),
   midi.NoteOffEvent(tick=240, channel=2, data=[39, 95]),
   midi.NoteOnEvent(tick=0, channel=2, data=[39, 95]),
   midi.NoteOffEvent(tick=240, channel=2, data=[39, 95]),
   midi.NoteOnEvent(tick=0, channel=2, data=[39, 95]),
   midi.NoteOffEvent(tick=240, channel=2, data=[39, 95]),
   midi.NoteOnEvent(tick=0, channel=2, data=[39, 95]),
   midi.NoteOffEvent(tick=240, channel=2, data=[39, 95]),
   midi.NoteOnEvent(tick=0, channel=2, data=[39, 95]),
   midi.NoteOffEvent(tick=240, channel=2, data=[39, 95]),
   midi.NoteOnEvent(tick=0, channel=2, data=[39, 95]),
   midi.NoteOffEvent(tick=240, channel=2, data=[39, 95]),
   midi.NoteOnEvent(tick=0, channel=2, data=[39, 95]),
   midi.NoteOffEvent(tick=240, channel=2, data=[39, 95]),
   midi.NoteOnEvent(tick=0, channel=2, data=[39, 95]),
   midi.NoteOffEvent(tick=240, channel=2, data=[39, 95]),
   midi.NoteOnEvent(tick=0, channel=2, data=[39, 95]),
   midi.NoteOffEvent(tick=240, channel=2, data=[39, 95]),
   midi.NoteOnEvent(tick=0, channel=2, data=[39, 95]),
   midi.NoteOffEvent(tick=240, channel=2, data=[39, 95]),
   midi.NoteOnEvent(tick=0, channel=2, data=[42, 95]),
   midi.NoteOffEvent(tick=240, channel=2, data=[42, 95]),
   midi.NoteOnEvent(tick=0, channel=2, data=[42, 95]),
   midi.NoteOffEvent(tick=240, channel=2, data=[42, 95]),
   midi.NoteOnEvent(tick=0, channel=2, data=[42, 95]),
   midi.NoteOffEvent(tick=240, channel=2, data=[42, 95]),
   midi.NoteOnEvent(tick=0, channel=2, data=[42, 95]),
   midi.NoteOffEvent(tick=240, channel=2, data=[42, 95]),
   midi.NoteOnEvent(tick=0, channel=2, data=[42, 95]),
   midi.NoteOffEvent(tick=240, channel=2, data=[42, 95]),
   midi.NoteOnEvent(tick=0, channel=2, data=[42, 95]),
   midi.NoteOffEvent(tick=240, channel=2, data=[42, 95]),
   midi.NoteOnEvent(tick=0, channel=2, data=[42, 95]),
   midi.NoteOffEvent(tick=240, channel=2, data=[42, 95]),
   midi.NoteOnEvent(tick=0, channel=2, data=[42, 95]),
   midi.NoteOffEvent(tick=240, channel=2, data=[42, 95]),
   midi.NoteOnEvent(tick=0, channel=2, data=[40, 95]),
   midi.NoteOffEvent(tick=240, channel=2, data=[40, 95]),
   midi.NoteOnEvent(tick=0, channel=2, data=[40, 95]),
   midi.NoteOffEvent(tick=240, channel=2, data=[40, 95]),
   midi.NoteOnEvent(tick=0, channel=2, data=[40, 95]),
   midi.NoteOffEvent(tick=240, channel=2, data=[40, 95]),
   midi.NoteOnEvent(tick=0, channel=2, data=[40, 95]),
   midi.NoteOffEvent(tick=240, channel=2, data=[40, 95]),
   midi.NoteOnEvent(tick=0, channel=2, data=[40, 95]),
   midi.NoteOffEvent(tick=240, channel=2, data=[40, 95]),
   midi.NoteOnEvent(tick=0, channel=2, data=[40, 95]),
   midi.NoteOffEvent(tick=240, channel=2, data=[40, 95]),
   midi.NoteOnEvent(tick=0, channel=2, data=[40, 95]),
   midi.NoteOffEvent(tick=240, channel=2, data=[40, 95]),
   midi.NoteOnEvent(tick=0, channel=2, data=[46, 95]),
   midi.NoteOffEvent(tick=240, channel=2, data=[46, 95]),
   midi.NoteOnEvent(tick=0, channel=2, data=[39, 95]),
   midi.NoteOffEvent(tick=240, channel=2, data=[39, 95]),
   midi.NoteOnEvent(tick=0, channel=2, data=[39, 95]),
   midi.NoteOffEvent(tick=240, channel=2, data=[39, 95]),
   midi.NoteOnEvent(tick=0, channel=2, data=[39, 95]),
   midi.NoteOffEvent(tick=240, channel=2, data=[39, 95]),
   midi.NoteOnEvent(tick=0, channel=2, data=[39, 95]),
   midi.NoteOffEvent(tick=240, channel=2, data=[39, 95]),
   midi.NoteOnEvent(tick=0, channel=2, data=[39, 95]),
   midi.NoteOffEvent(tick=240, channel=2, data=[39, 95]),
   midi.NoteOnEvent(tick=0, channel=2, data=[39, 95]),
   midi.NoteOffEvent(tick=240, channel=2, data=[39, 95]),
   midi.NoteOnEvent(tick=0, channel=2, data=[39, 95]),
   midi.NoteOffEvent(tick=240, channel=2, data=[39, 95]),
   midi.NoteOnEvent(tick=0, channel=2, data=[39, 95]),
   midi.NoteOffEvent(tick=240, channel=2, data=[39, 95]),
   midi.NoteOnEvent(tick=0, channel=2, data=[39, 95]),
   midi.NoteOffEvent(tick=240, channel=2, data=[39, 95]),
   midi.NoteOnEvent(tick=0, channel=2, data=[39, 95]),
   midi.NoteOffEvent(tick=240, channel=2, data=[39, 95]),
   midi.NoteOnEvent(tick=0, channel=2, data=[39, 95]),
   midi.NoteOffEvent(tick=240, channel=2, data=[39, 95]),
   midi.NoteOnEvent(tick=0, channel=2, data=[39, 95]),
   midi.NoteOffEvent(tick=240, channel=2, data=[39, 95]),
   midi.NoteOnEvent(tick=0, channel=2, data=[39, 95]),
   midi.NoteOffEvent(tick=240, channel=2, data=[39, 95]),
   midi.NoteOnEvent(tick=0, channel=2, data=[39, 95]),
   midi.NoteOffEvent(tick=240, channel=2, data=[39, 95]),
   midi.NoteOnEvent(tick=0, channel=2, data=[39, 95]),
   midi.NoteOffEvent(tick=240, channel=2, data=[39, 95]),
   midi.NoteOnEvent(tick=0, channel=2, data=[39, 95]),
   midi.NoteOffEvent(tick=240, channel=2, data=[39, 95]),
   midi.NoteOnEvent(tick=0, channel=2, data=[42, 95]),
   midi.NoteOffEvent(tick=240, channel=2, data=[42, 95]),
   midi.NoteOnEvent(tick=0, channel=2, data=[42, 95]),
   midi.NoteOffEvent(tick=240, channel=2, data=[42, 95]),
   midi.NoteOnEvent(tick=0, channel=2, data=[42, 95]),
   midi.NoteOffEvent(tick=240, channel=2, data=[42, 95]),
   midi.NoteOnEvent(tick=0, channel=2, data=[42, 95]),
   midi.NoteOffEvent(tick=240, channel=2, data=[42, 95]),
   midi.NoteOnEvent(tick=0, channel=2, data=[42, 95]),
   midi.NoteOffEvent(tick=240, channel=2, data=[42, 95]),
   midi.NoteOnEvent(tick=0, channel=2, data=[42, 95]),
   midi.NoteOffEvent(tick=240, channel=2, data=[42, 95]),
   midi.NoteOnEvent(tick=0, channel=2, data=[42, 95]),
   midi.NoteOffEvent(tick=240, channel=2, data=[42, 95]),
   midi.NoteOnEvent(tick=0, channel=2, data=[42, 95]),
   midi.NoteOffEvent(tick=240, channel=2, data=[42, 95]),
   midi.NoteOnEvent(tick=0, channel=2, data=[40, 95]),
   midi.NoteOffEvent(tick=240, channel=2, data=[40, 95]),
   midi.NoteOnEvent(tick=0, channel=2, data=[40, 95]),
   midi.NoteOffEvent(tick=240, channel=2, data=[40, 95]),
   midi.NoteOnEvent(tick=0, channel=2, data=[40, 95]),
   midi.NoteOffEvent(tick=240, channel=2, data=[40, 95]),
   midi.NoteOnEvent(tick=0, channel=2, data=[40, 95]),
   midi.NoteOffEvent(tick=240, channel=2, data=[40, 95]),
   midi.NoteOnEvent(tick=0, channel=2, data=[40, 95]),
   midi.NoteOffEvent(tick=240, channel=2, data=[40, 95]),
   midi.NoteOnEvent(tick=0, channel=2, data=[40, 95]),
   midi.NoteOffEvent(tick=240, channel=2, data=[40, 95]),
   midi.NoteOnEvent(tick=0, channel=2, data=[40, 95]),
   midi.NoteOffEvent(tick=240, channel=2, data=[40, 95]),
   midi.NoteOnEvent(tick=0, channel=2, data=[46, 95]),
   midi.NoteOffEvent(tick=240, channel=2, data=[46, 95]),
   midi.NoteOnEvent(tick=0, channel=2, data=[52, 95]),
   midi.NoteOnEvent(tick=0, channel=2, data=[45, 95]),
   midi.NoteOffEvent(tick=4800, channel=2, data=[52, 95]),
   midi.NoteOffEvent(tick=0, channel=2, data=[45, 95]),
   midi.NoteOnEvent(tick=0, channel=2, data=[51, 95]),
   midi.NoteOnEvent(tick=0, channel=2, data=[44, 95]),
   midi.NoteOffEvent(tick=960, channel=2, data=[51, 95]),
   midi.NoteOffEvent(tick=0, channel=2, data=[44, 95]),
   midi.NoteOnEvent(tick=0, channel=2, data=[52, 95]),
   midi.NoteOnEvent(tick=0, channel=2, data=[45, 95]),
   midi.NoteOffEvent(tick=960, channel=2, data=[52, 95]),
   midi.NoteOffEvent(tick=0, channel=2, data=[45, 95]),
   midi.NoteOnEvent(tick=0, channel=2, data=[51, 95]),
   midi.NoteOnEvent(tick=0, channel=2, data=[44, 95]),
   midi.NoteOffEvent(tick=960, channel=2, data=[51, 95]),
   midi.NoteOffEvent(tick=0, channel=2, data=[44, 95]),
   midi.NoteOnEvent(tick=0, channel=2, data=[48, 95]),
   midi.NoteOnEvent(tick=0, channel=2, data=[41, 95]),
   midi.NoteOffEvent(tick=6720, channel=2, data=[48, 95]),
   midi.NoteOffEvent(tick=0, channel=2, data=[41, 95]),
   midi.NoteOnEvent(tick=0, channel=2, data=[51, 95]),
   midi.NoteOnEvent(tick=0, channel=2, data=[44, 95]),
   midi.NoteOffEvent(tick=960, channel=2, data=[51, 95]),
   midi.NoteOffEvent(tick=0, channel=2, data=[44, 95]),
   midi.NoteOnEvent(tick=0, channel=2, data=[52, 95]),
   midi.NoteOnEvent(tick=0, channel=2, data=[45, 95]),
   midi.NoteOffEvent(tick=4800, channel=2, data=[52, 95]),
   midi.NoteOffEvent(tick=0, channel=2, data=[45, 95]),
   midi.NoteOnEvent(tick=0, channel=2, data=[51, 95]),
   midi.NoteOnEvent(tick=0, channel=2, data=[44, 95]),
   midi.NoteOffEvent(tick=480, channel=2, data=[51, 95]),
   midi.NoteOffEvent(tick=0, channel=2, data=[44, 95]),
   midi.NoteOnEvent(tick=0, channel=2, data=[52, 95]),
   midi.NoteOnEvent(tick=0, channel=2, data=[45, 95]),
   midi.NoteOffEvent(tick=480, channel=2, data=[52, 95]),
   midi.NoteOffEvent(tick=0, channel=2, data=[45, 95]),
   midi.NoteOnEvent(tick=0, channel=2, data=[51, 95]),
   midi.NoteOnEvent(tick=0, channel=2, data=[44, 95]),
   midi.NoteOffEvent(tick=480, channel=2, data=[51, 95]),
   midi.NoteOffEvent(tick=0, channel=2, data=[44, 95]),
   midi.NoteOnEvent(tick=0, channel=2, data=[51, 95]),
   midi.NoteOnEvent(tick=0, channel=2, data=[44, 95]),
   midi.NoteOffEvent(tick=480, channel=2, data=[51, 95]),
   midi.NoteOffEvent(tick=0, channel=2, data=[44, 95]),
   midi.NoteOnEvent(tick=0, channel=2, data=[52, 95]),
   midi.NoteOnEvent(tick=0, channel=2, data=[45, 95]),
   midi.NoteOffEvent(tick=480, channel=2, data=[52, 95]),
   midi.NoteOffEvent(tick=0, channel=2, data=[45, 95]),
   midi.NoteOnEvent(tick=0, channel=2, data=[51, 95]),
   midi.NoteOnEvent(tick=0, channel=2, data=[44, 95]),
   midi.NoteOffEvent(tick=480, channel=2, data=[51, 95]),
   midi.NoteOffEvent(tick=0, channel=2, data=[44, 95]),
   midi.NoteOnEvent(tick=0, channel=2, data=[48, 95]),
   midi.NoteOnEvent(tick=0, channel=2, data=[41, 95]),
   midi.NoteOffEvent(tick=6720, channel=2, data=[48, 95]),
   midi.NoteOffEvent(tick=0, channel=2, data=[41, 95]),
   midi.NoteOnEvent(tick=0, channel=3, data=[51, 95]),
   midi.NoteOnEvent(tick=0, channel=3, data=[44, 95]),
   midi.NoteOffEvent(tick=960, channel=3, data=[51, 95]),
   midi.NoteOffEvent(tick=0, channel=3, data=[44, 95]),
   midi.NoteOnEvent(tick=0, channel=2, data=[52, 95]),
   midi.NoteOnEvent(tick=0, channel=2, data=[45, 95]),
   midi.NoteOffEvent(tick=4800, channel=2, data=[52, 95]),
   midi.NoteOffEvent(tick=0, channel=2, data=[45, 95]),
   midi.NoteOnEvent(tick=0, channel=2, data=[51, 95]),
   midi.NoteOnEvent(tick=0, channel=2, data=[44, 95]),
   midi.NoteOffEvent(tick=960, channel=2, data=[51, 95]),
   midi.NoteOffEvent(tick=0, channel=2, data=[44, 95]),
   midi.NoteOnEvent(tick=0, channel=2, data=[52, 95]),
   midi.NoteOnEvent(tick=0, channel=2, data=[45, 95]),
   midi.NoteOffEvent(tick=960, channel=2, data=[52, 95]),
   midi.NoteOffEvent(tick=0, channel=2, data=[45, 95]),
   midi.NoteOnEvent(tick=0, channel=2, data=[51, 95]),
   midi.NoteOnEvent(tick=0, channel=2, data=[44, 95]),
   midi.NoteOffEvent(tick=960, channel=2, data=[51, 95]),
   midi.NoteOffEvent(tick=0, channel=2, data=[44, 95]),
   midi.NoteOnEvent(tick=0, channel=2, data=[48, 95]),
   midi.NoteOnEvent(tick=0, channel=2, data=[41, 95]),
   midi.NoteOffEvent(tick=6720, channel=2, data=[48, 95]),
   midi.NoteOffEvent(tick=0, channel=2, data=[41, 95]),
   midi.NoteOnEvent(tick=0, channel=2, data=[51, 95]),
   midi.NoteOnEvent(tick=0, channel=2, data=[44, 95]),
   midi.NoteOffEvent(tick=960, channel=2, data=[51, 95]),
   midi.NoteOffEvent(tick=0, channel=2, data=[44, 95]),
   midi.NoteOnEvent(tick=0, channel=2, data=[52, 95]),
   midi.NoteOnEvent(tick=0, channel=2, data=[45, 95]),
   midi.NoteOffEvent(tick=4800, channel=2, data=[52, 95]),
   midi.NoteOffEvent(tick=0, channel=2, data=[45, 95]),
   midi.NoteOnEvent(tick=0, channel=2, data=[51, 95]),
   midi.NoteOnEvent(tick=0, channel=2, data=[44, 95]),
   midi.NoteOffEvent(tick=480, channel=2, data=[51, 95]),
   midi.NoteOffEvent(tick=0, channel=2, data=[44, 95]),
   midi.NoteOnEvent(tick=0, channel=2, data=[52, 95]),
   midi.NoteOnEvent(tick=0, channel=2, data=[45, 95]),
   midi.NoteOffEvent(tick=480, channel=2, data=[52, 95]),
   midi.NoteOffEvent(tick=0, channel=2, data=[45, 95]),
   midi.NoteOnEvent(tick=0, channel=2, data=[51, 95]),
   midi.NoteOnEvent(tick=0, channel=2, data=[44, 95]),
   midi.NoteOffEvent(tick=480, channel=2, data=[51, 95]),
   midi.NoteOffEvent(tick=0, channel=2, data=[44, 95]),
   midi.NoteOnEvent(tick=0, channel=2, data=[51, 95]),
   midi.NoteOnEvent(tick=0, channel=2, data=[44, 95]),
   midi.NoteOffEvent(tick=480, channel=2, data=[51, 95]),
   midi.NoteOffEvent(tick=0, channel=2, data=[44, 95]),
   midi.NoteOnEvent(tick=0, channel=2, data=[52, 95]),
   midi.NoteOnEvent(tick=0, channel=2, data=[45, 95]),
   midi.NoteOffEvent(tick=480, channel=2, data=[52, 95]),
   midi.NoteOffEvent(tick=0, channel=2, data=[45, 95]),
   midi.NoteOnEvent(tick=0, channel=2, data=[51, 95]),
   midi.NoteOnEvent(tick=0, channel=2, data=[44, 95]),
   midi.NoteOffEvent(tick=480, channel=2, data=[51, 95]),
   midi.NoteOffEvent(tick=0, channel=2, data=[44, 95]),
   midi.NoteOnEvent(tick=0, channel=2, data=[48, 95]),
   midi.NoteOnEvent(tick=0, channel=2, data=[41, 95]),
   midi.NoteOffEvent(tick=6720, channel=2, data=[48, 95]),
   midi.NoteOffEvent(tick=0, channel=2, data=[41, 95]),
   midi.NoteOnEvent(tick=0, channel=3, data=[51, 95]),
   midi.NoteOnEvent(tick=0, channel=3, data=[44, 95]),
   midi.NoteOffEvent(tick=960, channel=3, data=[51, 95]),
   midi.NoteOffEvent(tick=0, channel=3, data=[44, 95]),
   midi.NoteOnEvent(tick=3840, channel=2, data=[39, 95]),
   midi.NoteOffEvent(tick=240, channel=2, data=[39, 95]),
   midi.NoteOnEvent(tick=0, channel=2, data=[39, 95]),
   midi.NoteOffEvent(tick=240, channel=2, data=[39, 95]),
   midi.NoteOnEvent(tick=0, channel=2, data=[39, 95]),
   midi.NoteOffEvent(tick=240, channel=2, data=[39, 95]),
   midi.NoteOnEvent(tick=0, channel=2, data=[39, 95]),
   midi.NoteOffEvent(tick=240, channel=2, data=[39, 95]),
   midi.NoteOnEvent(tick=0, channel=2, data=[39, 95]),
   midi.NoteOffEvent(tick=240, channel=2, data=[39, 95]),
   midi.NoteOnEvent(tick=0, channel=2, data=[39, 95]),
   midi.NoteOffEvent(tick=240, channel=2, data=[39, 95]),
   midi.NoteOnEvent(tick=0, channel=2, data=[39, 95]),
   midi.NoteOffEvent(tick=240, channel=2, data=[39, 95]),
   midi.NoteOnEvent(tick=0, channel=2, data=[39, 95]),
   midi.NoteOffEvent(tick=240, channel=2, data=[39, 95]),
   midi.NoteOnEvent(tick=0, channel=2, data=[39, 95]),
   midi.NoteOffEvent(tick=240, channel=2, data=[39, 95]),
   midi.NoteOnEvent(tick=0, channel=2, data=[39, 95]),
   midi.NoteOffEvent(tick=240, channel=2, data=[39, 95]),
   midi.NoteOnEvent(tick=0, channel=2, data=[39, 95]),
   midi.NoteOffEvent(tick=240, channel=2, data=[39, 95]),
   midi.NoteOnEvent(tick=0, channel=2, data=[39, 95]),
   midi.NoteOffEvent(tick=240, channel=2, data=[39, 95]),
   midi.NoteOnEvent(tick=0, channel=2, data=[39, 95]),
   midi.NoteOffEvent(tick=240, channel=2, data=[39, 95]),
   midi.NoteOnEvent(tick=0, channel=2, data=[39, 95]),
   midi.NoteOffEvent(tick=240, channel=2, data=[39, 95]),
   midi.NoteOnEvent(tick=0, channel=2, data=[39, 95]),
   midi.NoteOffEvent(tick=240, channel=2, data=[39, 95]),
   midi.NoteOnEvent(tick=0, channel=2, data=[39, 95]),
   midi.NoteOffEvent(tick=240, channel=2, data=[39, 95]),
   midi.NoteOnEvent(tick=0, channel=2, data=[42, 95]),
   midi.NoteOffEvent(tick=240, channel=2, data=[42, 95]),
   midi.NoteOnEvent(tick=0, channel=2, data=[42, 95]),
   midi.NoteOffEvent(tick=240, channel=2, data=[42, 95]),
   midi.NoteOnEvent(tick=0, channel=2, data=[42, 95]),
   midi.NoteOffEvent(tick=240, channel=2, data=[42, 95]),
   midi.NoteOnEvent(tick=0, channel=2, data=[42, 95]),
   midi.NoteOffEvent(tick=240, channel=2, data=[42, 95]),
   midi.NoteOnEvent(tick=0, channel=2, data=[42, 95]),
   midi.NoteOffEvent(tick=240, channel=2, data=[42, 95]),
   midi.NoteOnEvent(tick=0, channel=2, data=[42, 95]),
   midi.NoteOffEvent(tick=240, channel=2, data=[42, 95]),
   midi.NoteOnEvent(tick=0, channel=2, data=[42, 95]),
   midi.NoteOffEvent(tick=240, channel=2, data=[42, 95]),
   midi.NoteOnEvent(tick=0, channel=2, data=[42, 95]),
   midi.NoteOffEvent(tick=240, channel=2, data=[42, 95]),
   midi.NoteOnEvent(tick=0, channel=2, data=[40, 95]),
   midi.NoteOffEvent(tick=240, channel=2, data=[40, 95]),
   midi.NoteOnEvent(tick=0, channel=2, data=[40, 95]),
   midi.NoteOffEvent(tick=240, channel=2, data=[40, 95]),
   midi.NoteOnEvent(tick=0, channel=2, data=[40, 95]),
   midi.NoteOffEvent(tick=240, channel=2, data=[40, 95]),
   midi.NoteOnEvent(tick=0, channel=2, data=[40, 95]),
   midi.NoteOffEvent(tick=240, channel=2, data=[40, 95]),
   midi.NoteOnEvent(tick=0, channel=2, data=[40, 95]),
   midi.NoteOffEvent(tick=240, channel=2, data=[40, 95]),
   midi.NoteOnEvent(tick=0, channel=2, data=[40, 95]),
   midi.NoteOffEvent(tick=240, channel=2, data=[40, 95]),
   midi.NoteOnEvent(tick=0, channel=2, data=[40, 95]),
   midi.NoteOffEvent(tick=240, channel=2, data=[40, 95]),
   midi.NoteOnEvent(tick=0, channel=2, data=[46, 95]),
   midi.NoteOffEvent(tick=240, channel=2, data=[46, 95]),
   midi.NoteOnEvent(tick=0, channel=2, data=[39, 95]),
   midi.NoteOffEvent(tick=240, channel=2, data=[39, 95]),
   midi.NoteOnEvent(tick=0, channel=2, data=[39, 95]),
   midi.NoteOffEvent(tick=240, channel=2, data=[39, 95]),
   midi.NoteOnEvent(tick=0, channel=2, data=[39, 95]),
   midi.NoteOffEvent(tick=240, channel=2, data=[39, 95]),
   midi.NoteOnEvent(tick=0, channel=2, data=[39, 95]),
   midi.NoteOffEvent(tick=240, channel=2, data=[39, 95]),
   midi.NoteOnEvent(tick=0, channel=2, data=[39, 95]),
   midi.NoteOffEvent(tick=240, channel=2, data=[39, 95]),
   midi.NoteOnEvent(tick=0, channel=2, data=[39, 95]),
   midi.NoteOffEvent(tick=240, channel=2, data=[39, 95]),
   midi.NoteOnEvent(tick=0, channel=2, data=[39, 95]),
   midi.NoteOffEvent(tick=240, channel=2, data=[39, 95]),
   midi.NoteOnEvent(tick=0, channel=2, data=[39, 95]),
   midi.NoteOffEvent(tick=240, channel=2, data=[39, 95]),
   midi.NoteOnEvent(tick=0, channel=2, data=[39, 95]),
   midi.NoteOffEvent(tick=240, channel=2, data=[39, 95]),
   midi.NoteOnEvent(tick=0, channel=2, data=[39, 95]),
   midi.NoteOffEvent(tick=240, channel=2, data=[39, 95]),
   midi.NoteOnEvent(tick=0, channel=2, data=[39, 95]),
   midi.NoteOffEvent(tick=240, channel=2, data=[39, 95]),
   midi.NoteOnEvent(tick=0, channel=2, data=[39, 95]),
   midi.NoteOffEvent(tick=240, channel=2, data=[39, 95]),
   midi.NoteOnEvent(tick=0, channel=2, data=[39, 95]),
   midi.NoteOffEvent(tick=240, channel=2, data=[39, 95]),
   midi.NoteOnEvent(tick=0, channel=2, data=[39, 95]),
   midi.NoteOffEvent(tick=240, channel=2, data=[39, 95]),
   midi.NoteOnEvent(tick=0, channel=2, data=[39, 95]),
   midi.NoteOffEvent(tick=240, channel=2, data=[39, 95]),
   midi.NoteOnEvent(tick=0, channel=2, data=[39, 95]),
   midi.NoteOffEvent(tick=240, channel=2, data=[39, 95]),
   midi.NoteOnEvent(tick=0, channel=2, data=[42, 95]),
   midi.NoteOffEvent(tick=240, channel=2, data=[42, 95]),
   midi.NoteOnEvent(tick=0, channel=2, data=[42, 95]),
   midi.NoteOffEvent(tick=240, channel=2, data=[42, 95]),
   midi.NoteOnEvent(tick=0, channel=2, data=[42, 95]),
   midi.NoteOffEvent(tick=240, channel=2, data=[42, 95]),
   midi.NoteOnEvent(tick=0, channel=2, data=[42, 95]),
   midi.NoteOffEvent(tick=240, channel=2, data=[42, 95]),
   midi.NoteOnEvent(tick=0, channel=2, data=[42, 95]),
   midi.NoteOffEvent(tick=240, channel=2, data=[42, 95]),
   midi.NoteOnEvent(tick=0, channel=2, data=[42, 95]),
   midi.NoteOffEvent(tick=240, channel=2, data=[42, 95]),
   midi.NoteOnEvent(tick=0, channel=2, data=[42, 95]),
   midi.NoteOffEvent(tick=240, channel=2, data=[42, 95]),
   midi.NoteOnEvent(tick=0, channel=2, data=[42, 95]),
   midi.NoteOffEvent(tick=240, channel=2, data=[42, 95]),
   midi.NoteOnEvent(tick=0, channel=2, data=[40, 95]),
   midi.NoteOffEvent(tick=240, channel=2, data=[40, 95]),
   midi.NoteOnEvent(tick=0, channel=2, data=[40, 95]),
   midi.NoteOffEvent(tick=240, channel=2, data=[40, 95]),
   midi.NoteOnEvent(tick=0, channel=2, data=[40, 95]),
   midi.NoteOffEvent(tick=240, channel=2, data=[40, 95]),
   midi.NoteOnEvent(tick=0, channel=2, data=[40, 95]),
   midi.NoteOffEvent(tick=240, channel=2, data=[40, 95]),
   midi.NoteOnEvent(tick=0, channel=2, data=[40, 95]),
   midi.NoteOffEvent(tick=240, channel=2, data=[40, 95]),
   midi.NoteOnEvent(tick=0, channel=2, data=[40, 95]),
   midi.NoteOffEvent(tick=240, channel=2, data=[40, 95]),
   midi.NoteOnEvent(tick=0, channel=2, data=[40, 95]),
   midi.NoteOffEvent(tick=240, channel=2, data=[40, 95]),
   midi.NoteOnEvent(tick=0, channel=2, data=[46, 95]),
   midi.NoteOffEvent(tick=240, channel=2, data=[46, 95]),
   midi.NoteOnEvent(tick=0, channel=2, data=[39, 95]),
   midi.NoteOffEvent(tick=240, channel=2, data=[39, 95]),
   midi.NoteOnEvent(tick=0, channel=2, data=[39, 95]),
   midi.NoteOffEvent(tick=240, channel=2, data=[39, 95]),
   midi.NoteOnEvent(tick=0, channel=2, data=[39, 95]),
   midi.NoteOffEvent(tick=240, channel=2, data=[39, 95]),
   midi.NoteOnEvent(tick=0, channel=2, data=[39, 95]),
   midi.NoteOffEvent(tick=240, channel=2, data=[39, 95]),
   midi.NoteOnEvent(tick=0, channel=2, data=[39, 95]),
   midi.NoteOffEvent(tick=240, channel=2, data=[39, 95]),
   midi.NoteOnEvent(tick=0, channel=2, data=[39, 95]),
   midi.NoteOffEvent(tick=240, channel=2, data=[39, 95]),
   midi.NoteOnEvent(tick=0, channel=2, data=[39, 95]),
   midi.NoteOffEvent(tick=240, channel=2, data=[39, 95]),
   midi.NoteOnEvent(tick=0, channel=2, data=[39, 95]),
   midi.NoteOffEvent(tick=240, channel=2, data=[39, 95]),
   midi.NoteOnEvent(tick=0, channel=2, data=[39, 95]),
   midi.NoteOffEvent(tick=240, channel=2, data=[39, 95]),
   midi.NoteOnEvent(tick=0, channel=2, data=[39, 95]),
   midi.NoteOffEvent(tick=240, channel=2, data=[39, 95]),
   midi.NoteOnEvent(tick=0, channel=2, data=[39, 95]),
   midi.NoteOffEvent(tick=240, channel=2, data=[39, 95]),
   midi.NoteOnEvent(tick=0, channel=2, data=[39, 95]),
   midi.NoteOffEvent(tick=240, channel=2, data=[39, 95]),
   midi.NoteOnEvent(tick=0, channel=2, data=[39, 95]),
   midi.NoteOffEvent(tick=240, channel=2, data=[39, 95]),
   midi.NoteOnEvent(tick=0, channel=2, data=[39, 95]),
   midi.NoteOffEvent(tick=240, channel=2, data=[39, 95]),
   midi.NoteOnEvent(tick=0, channel=2, data=[39, 95]),
   midi.NoteOffEvent(tick=240, channel=2, data=[39, 95]),
   midi.NoteOnEvent(tick=0, channel=2, data=[39, 95]),
   midi.NoteOffEvent(tick=240, channel=2, data=[39, 95]),
   midi.NoteOnEvent(tick=0, channel=2, data=[42, 95]),
   midi.NoteOffEvent(tick=240, channel=2, data=[42, 95]),
   midi.NoteOnEvent(tick=0, channel=2, data=[42, 95]),
   midi.NoteOffEvent(tick=240, channel=2, data=[42, 95]),
   midi.NoteOnEvent(tick=0, channel=2, data=[42, 95]),
   midi.NoteOffEvent(tick=240, channel=2, data=[42, 95]),
   midi.NoteOnEvent(tick=0, channel=2, data=[42, 95]),
   midi.NoteOffEvent(tick=240, channel=2, data=[42, 95]),
   midi.NoteOnEvent(tick=0, channel=2, data=[42, 95]),
   midi.NoteOffEvent(tick=240, channel=2, data=[42, 95]),
   midi.NoteOnEvent(tick=0, channel=2, data=[42, 95]),
   midi.NoteOffEvent(tick=240, channel=2, data=[42, 95]),
   midi.NoteOnEvent(tick=0, channel=2, data=[42, 95]),
   midi.NoteOffEvent(tick=240, channel=2, data=[42, 95]),
   midi.NoteOnEvent(tick=0, channel=2, data=[42, 95]),
   midi.NoteOffEvent(tick=240, channel=2, data=[42, 95]),
   midi.NoteOnEvent(tick=0, channel=2, data=[40, 95]),
   midi.NoteOffEvent(tick=240, channel=2, data=[40, 95]),
   midi.NoteOnEvent(tick=0, channel=2, data=[40, 95]),
   midi.NoteOffEvent(tick=240, channel=2, data=[40, 95]),
   midi.NoteOnEvent(tick=0, channel=2, data=[40, 95]),
   midi.NoteOffEvent(tick=240, channel=2, data=[40, 95]),
   midi.NoteOnEvent(tick=0, channel=2, data=[40, 95]),
   midi.NoteOffEvent(tick=240, channel=2, data=[40, 95]),
   midi.NoteOnEvent(tick=0, channel=2, data=[40, 95]),
   midi.NoteOffEvent(tick=240, channel=2, data=[40, 95]),
   midi.NoteOnEvent(tick=0, channel=2, data=[40, 95]),
   midi.NoteOffEvent(tick=240, channel=2, data=[40, 95]),
   midi.NoteOnEvent(tick=0, channel=2, data=[40, 95]),
   midi.NoteOffEvent(tick=240, channel=2, data=[40, 95]),
   midi.NoteOnEvent(tick=0, channel=2, data=[46, 95]),
   midi.NoteOffEvent(tick=240, channel=2, data=[46, 95]),
   midi.NoteOnEvent(tick=0, channel=2, data=[39, 95]),
   midi.NoteOffEvent(tick=240, channel=2, data=[39, 95]),
   midi.NoteOnEvent(tick=0, channel=2, data=[39, 95]),
   midi.NoteOffEvent(tick=240, channel=2, data=[39, 95]),
   midi.NoteOnEvent(tick=0, channel=2, data=[39, 95]),
   midi.NoteOffEvent(tick=240, channel=2, data=[39, 95]),
   midi.NoteOnEvent(tick=0, channel=2, data=[39, 95]),
   midi.NoteOffEvent(tick=240, channel=2, data=[39, 95]),
   midi.NoteOnEvent(tick=0, channel=2, data=[39, 95]),
   midi.NoteOffEvent(tick=240, channel=2, data=[39, 95]),
   midi.NoteOnEvent(tick=0, channel=2, data=[39, 95]),
   midi.NoteOffEvent(tick=240, channel=2, data=[39, 95]),
   midi.NoteOnEvent(tick=0, channel=2, data=[39, 95]),
   midi.NoteOffEvent(tick=240, channel=2, data=[39, 95]),
   midi.NoteOnEvent(tick=0, channel=2, data=[39, 95]),
   midi.NoteOffEvent(tick=240, channel=2, data=[39, 95]),
   midi.NoteOnEvent(tick=0, channel=2, data=[39, 95]),
   midi.NoteOffEvent(tick=240, channel=2, data=[39, 95]),
   midi.NoteOnEvent(tick=0, channel=2, data=[39, 95]),
   midi.NoteOffEvent(tick=240, channel=2, data=[39, 95]),
   midi.NoteOnEvent(tick=0, channel=2, data=[39, 95]),
   midi.NoteOffEvent(tick=240, channel=2, data=[39, 95]),
   midi.NoteOnEvent(tick=0, channel=2, data=[39, 95]),
   midi.NoteOffEvent(tick=240, channel=2, data=[39, 95]),
   midi.NoteOnEvent(tick=0, channel=2, data=[39, 95]),
   midi.NoteOffEvent(tick=240, channel=2, data=[39, 95]),
   midi.NoteOnEvent(tick=0, channel=2, data=[39, 95]),
   midi.NoteOffEvent(tick=240, channel=2, data=[39, 95]),
   midi.NoteOnEvent(tick=0, channel=2, data=[39, 95]),
   midi.NoteOffEvent(tick=240, channel=2, data=[39, 95]),
   midi.NoteOnEvent(tick=0, channel=2, data=[39, 95]),
   midi.NoteOffEvent(tick=240, channel=2, data=[39, 95]),
   midi.NoteOnEvent(tick=0, channel=2, data=[49, 95]),
   midi.NoteOnEvent(tick=0, channel=2, data=[42, 95]),
   midi.NoteOffEvent(tick=1920, channel=2, data=[49, 95]),
   midi.NoteOffEvent(tick=0, channel=2, data=[42, 95]),
   midi.NoteOnEvent(tick=0, channel=2, data=[47, 95]),
   midi.NoteOnEvent(tick=0, channel=2, data=[40, 95]),
   midi.NoteOffEvent(tick=1920, channel=2, data=[47, 95]),
   midi.NoteOffEvent(tick=0, channel=2, data=[40, 95]),
   midi.NoteOnEvent(tick=0, channel=2, data=[39, 95]),
   midi.NoteOffEvent(tick=240, channel=2, data=[39, 95]),
   midi.NoteOnEvent(tick=0, channel=2, data=[39, 95]),
   midi.NoteOffEvent(tick=240, channel=2, data=[39, 95]),
   midi.NoteOnEvent(tick=0, channel=2, data=[39, 95]),
   midi.NoteOffEvent(tick=240, channel=2, data=[39, 95]),
   midi.NoteOnEvent(tick=0, channel=2, data=[39, 95]),
   midi.NoteOffEvent(tick=240, channel=2, data=[39, 95]),
   midi.NoteOnEvent(tick=0, channel=2, data=[39, 95]),
   midi.NoteOffEvent(tick=240, channel=2, data=[39, 95]),
   midi.NoteOnEvent(tick=0, channel=2, data=[39, 95]),
   midi.NoteOffEvent(tick=240, channel=2, data=[39, 95]),
   midi.NoteOnEvent(tick=0, channel=2, data=[39, 95]),
   midi.NoteOffEvent(tick=240, channel=2, data=[39, 95]),
   midi.NoteOnEvent(tick=0, channel=2, data=[39, 95]),
   midi.NoteOffEvent(tick=240, channel=2, data=[39, 95]),
   midi.NoteOnEvent(tick=0, channel=2, data=[39, 95]),
   midi.NoteOffEvent(tick=240, channel=2, data=[39, 95]),
   midi.NoteOnEvent(tick=0, channel=2, data=[39, 95]),
   midi.NoteOffEvent(tick=240, channel=2, data=[39, 95]),
   midi.NoteOnEvent(tick=0, channel=2, data=[39, 95]),
   midi.NoteOffEvent(tick=240, channel=2, data=[39, 95]),
   midi.NoteOnEvent(tick=0, channel=2, data=[39, 95]),
   midi.NoteOffEvent(tick=240, channel=2, data=[39, 95]),
   midi.NoteOnEvent(tick=0, channel=2, data=[39, 95]),
   midi.NoteOffEvent(tick=240, channel=2, data=[39, 95]),
   midi.NoteOnEvent(tick=0, channel=2, data=[39, 95]),
   midi.NoteOffEvent(tick=240, channel=2, data=[39, 95]),
   midi.NoteOnEvent(tick=0, channel=2, data=[39, 95]),
   midi.NoteOffEvent(tick=240, channel=2, data=[39, 95]),
   midi.NoteOnEvent(tick=0, channel=2, data=[39, 95]),
   midi.NoteOffEvent(tick=240, channel=2, data=[39, 95]),
   midi.NoteOnEvent(tick=0, channel=2, data=[42, 95]),
   midi.NoteOffEvent(tick=240, channel=2, data=[42, 95]),
   midi.NoteOnEvent(tick=0, channel=2, data=[42, 95]),
   midi.NoteOffEvent(tick=240, channel=2, data=[42, 95]),
   midi.NoteOnEvent(tick=0, channel=2, data=[42, 95]),
   midi.NoteOffEvent(tick=240, channel=2, data=[42, 95]),
   midi.NoteOnEvent(tick=0, channel=2, data=[42, 95]),
   midi.NoteOffEvent(tick=240, channel=2, data=[42, 95]),
   midi.NoteOnEvent(tick=0, channel=2, data=[42, 95]),
   midi.NoteOffEvent(tick=240, channel=2, data=[42, 95]),
   midi.NoteOnEvent(tick=0, channel=2, data=[42, 95]),
   midi.NoteOffEvent(tick=240, channel=2, data=[42, 95]),
   midi.NoteOnEvent(tick=0, channel=2, data=[42, 95]),
   midi.NoteOffEvent(tick=240, channel=2, data=[42, 95]),
   midi.NoteOnEvent(tick=0, channel=2, data=[42, 95]),
   midi.NoteOffEvent(tick=240, channel=2, data=[42, 95]),
   midi.NoteOnEvent(tick=0, channel=2, data=[40, 95]),
   midi.NoteOffEvent(tick=240, channel=2, data=[40, 95]),
   midi.NoteOnEvent(tick=0, channel=2, data=[40, 95]),
   midi.NoteOffEvent(tick=240, channel=2, data=[40, 95]),
   midi.NoteOnEvent(tick=0, channel=2, data=[40, 95]),
   midi.NoteOffEvent(tick=240, channel=2, data=[40, 95]),
   midi.NoteOnEvent(tick=0, channel=2, data=[40, 95]),
   midi.NoteOffEvent(tick=240, channel=2, data=[40, 95]),
   midi.NoteOnEvent(tick=0, channel=2, data=[40, 95]),
   midi.NoteOffEvent(tick=240, channel=2, data=[40, 95]),
   midi.NoteOnEvent(tick=0, channel=2, data=[40, 95]),
   midi.NoteOffEvent(tick=240, channel=2, data=[40, 95]),
   midi.NoteOnEvent(tick=0, channel=2, data=[40, 95]),
   midi.NoteOffEvent(tick=240, channel=2, data=[40, 95]),
   midi.NoteOnEvent(tick=0, channel=2, data=[46, 95]),
   midi.NoteOffEvent(tick=240, channel=2, data=[46, 95]),
   midi.NoteOnEvent(tick=0, channel=2, data=[39, 95]),
   midi.NoteOffEvent(tick=240, channel=2, data=[39, 95]),
   midi.NoteOnEvent(tick=0, channel=2, data=[39, 95]),
   midi.NoteOffEvent(tick=240, channel=2, data=[39, 95]),
   midi.NoteOnEvent(tick=0, channel=2, data=[39, 95]),
   midi.NoteOffEvent(tick=240, channel=2, data=[39, 95]),
   midi.NoteOnEvent(tick=0, channel=2, data=[39, 95]),
   midi.NoteOffEvent(tick=240, channel=2, data=[39, 95]),
   midi.NoteOnEvent(tick=0, channel=2, data=[39, 95]),
   midi.NoteOffEvent(tick=240, channel=2, data=[39, 95]),
   midi.NoteOnEvent(tick=0, channel=2, data=[39, 95]),
   midi.NoteOffEvent(tick=240, channel=2, data=[39, 95]),
   midi.NoteOnEvent(tick=0, channel=2, data=[39, 95]),
   midi.NoteOffEvent(tick=240, channel=2, data=[39, 95]),
   midi.NoteOnEvent(tick=0, channel=2, data=[39, 95]),
   midi.NoteOffEvent(tick=240, channel=2, data=[39, 95]),
   midi.NoteOnEvent(tick=0, channel=2, data=[39, 95]),
   midi.NoteOffEvent(tick=240, channel=2, data=[39, 95]),
   midi.NoteOnEvent(tick=0, channel=2, data=[39, 95]),
   midi.NoteOffEvent(tick=240, channel=2, data=[39, 95]),
   midi.NoteOnEvent(tick=0, channel=2, data=[39, 95]),
   midi.NoteOffEvent(tick=240, channel=2, data=[39, 95]),
   midi.NoteOnEvent(tick=0, channel=2, data=[39, 95]),
   midi.NoteOffEvent(tick=240, channel=2, data=[39, 95]),
   midi.NoteOnEvent(tick=0, channel=2, data=[39, 95]),
   midi.NoteOffEvent(tick=240, channel=2, data=[39, 95]),
   midi.NoteOnEvent(tick=0, channel=2, data=[39, 95]),
   midi.NoteOffEvent(tick=240, channel=2, data=[39, 95]),
   midi.NoteOnEvent(tick=0, channel=2, data=[39, 95]),
   midi.NoteOffEvent(tick=240, channel=2, data=[39, 95]),
   midi.NoteOnEvent(tick=0, channel=2, data=[39, 95]),
   midi.NoteOffEvent(tick=240, channel=2, data=[39, 95]),
   midi.NoteOnEvent(tick=0, channel=2, data=[42, 95]),
   midi.NoteOffEvent(tick=240, channel=2, data=[42, 95]),
   midi.NoteOnEvent(tick=0, channel=2, data=[42, 95]),
   midi.NoteOffEvent(tick=240, channel=2, data=[42, 95]),
   midi.NoteOnEvent(tick=0, channel=2, data=[42, 95]),
   midi.NoteOffEvent(tick=240, channel=2, data=[42, 95]),
   midi.NoteOnEvent(tick=0, channel=2, data=[42, 95]),
   midi.NoteOffEvent(tick=240, channel=2, data=[42, 95]),
   midi.NoteOnEvent(tick=0, channel=2, data=[42, 95]),
   midi.NoteOffEvent(tick=240, channel=2, data=[42, 95]),
   midi.NoteOnEvent(tick=0, channel=2, data=[42, 95]),
   midi.NoteOffEvent(tick=240, channel=2, data=[42, 95]),
   midi.NoteOnEvent(tick=0, channel=2, data=[42, 95]),
   midi.NoteOffEvent(tick=240, channel=2, data=[42, 95]),
   midi.NoteOnEvent(tick=0, channel=2, data=[42, 95]),
   midi.NoteOffEvent(tick=240, channel=2, data=[42, 95]),
   midi.NoteOnEvent(tick=0, channel=2, data=[40, 95]),
   midi.NoteOffEvent(tick=240, channel=2, data=[40, 95]),
   midi.NoteOnEvent(tick=0, channel=2, data=[40, 95]),
   midi.NoteOffEvent(tick=240, channel=2, data=[40, 95]),
   midi.NoteOnEvent(tick=0, channel=2, data=[40, 95]),
   midi.NoteOffEvent(tick=240, channel=2, data=[40, 95]),
   midi.NoteOnEvent(tick=0, channel=2, data=[40, 95]),
   midi.NoteOffEvent(tick=240, channel=2, data=[40, 95]),
   midi.NoteOnEvent(tick=0, channel=2, data=[40, 95]),
   midi.NoteOffEvent(tick=240, channel=2, data=[40, 95]),
   midi.NoteOnEvent(tick=0, channel=2, data=[40, 95]),
   midi.NoteOffEvent(tick=240, channel=2, data=[40, 95]),
   midi.NoteOnEvent(tick=0, channel=2, data=[40, 95]),
   midi.NoteOffEvent(tick=240, channel=2, data=[40, 95]),
   midi.NoteOnEvent(tick=0, channel=2, data=[46, 95]),
   midi.NoteOffEvent(tick=240, channel=2, data=[46, 95]),
   midi.NoteOnEvent(tick=0, channel=2, data=[39, 95]),
   midi.NoteOffEvent(tick=240, channel=2, data=[39, 95]),
   midi.NoteOnEvent(tick=0, channel=2, data=[39, 95]),
   midi.NoteOffEvent(tick=240, channel=2, data=[39, 95]),
   midi.NoteOnEvent(tick=0, channel=2, data=[39, 95]),
   midi.NoteOffEvent(tick=240, channel=2, data=[39, 95]),
   midi.NoteOnEvent(tick=0, channel=2, data=[39, 95]),
   midi.NoteOffEvent(tick=240, channel=2, data=[39, 95]),
   midi.NoteOnEvent(tick=0, channel=2, data=[39, 95]),
   midi.NoteOffEvent(tick=240, channel=2, data=[39, 95]),
   midi.NoteOnEvent(tick=0, channel=2, data=[39, 95]),
   midi.NoteOffEvent(tick=240, channel=2, data=[39, 95]),
   midi.NoteOnEvent(tick=0, channel=2, data=[39, 95]),
   midi.NoteOffEvent(tick=240, channel=2, data=[39, 95]),
   midi.NoteOnEvent(tick=0, channel=2, data=[39, 95]),
   midi.NoteOffEvent(tick=240, channel=2, data=[39, 95]),
   midi.NoteOnEvent(tick=0, channel=2, data=[39, 95]),
   midi.NoteOffEvent(tick=240, channel=2, data=[39, 95]),
   midi.NoteOnEvent(tick=0, channel=2, data=[39, 95]),
   midi.NoteOffEvent(tick=240, channel=2, data=[39, 95]),
   midi.NoteOnEvent(tick=0, channel=2, data=[39, 95]),
   midi.NoteOffEvent(tick=240, channel=2, data=[39, 95]),
   midi.NoteOnEvent(tick=0, channel=2, data=[39, 95]),
   midi.NoteOffEvent(tick=240, channel=2, data=[39, 95]),
   midi.NoteOnEvent(tick=0, channel=2, data=[39, 95]),
   midi.NoteOffEvent(tick=240, channel=2, data=[39, 95]),
   midi.NoteOnEvent(tick=0, channel=2, data=[39, 95]),
   midi.NoteOffEvent(tick=240, channel=2, data=[39, 95]),
   midi.NoteOnEvent(tick=0, channel=2, data=[39, 95]),
   midi.NoteOffEvent(tick=240, channel=2, data=[39, 95]),
   midi.NoteOnEvent(tick=0, channel=2, data=[39, 95]),
   midi.NoteOffEvent(tick=240, channel=2, data=[39, 95]),
   midi.NoteOnEvent(tick=0, channel=2, data=[42, 95]),
   midi.NoteOffEvent(tick=240, channel=2, data=[42, 95]),
   midi.NoteOnEvent(tick=0, channel=2, data=[42, 95]),
   midi.NoteOffEvent(tick=240, channel=2, data=[42, 95]),
   midi.NoteOnEvent(tick=0, channel=2, data=[42, 95]),
   midi.NoteOffEvent(tick=240, channel=2, data=[42, 95]),
   midi.NoteOnEvent(tick=0, channel=2, data=[42, 95]),
   midi.NoteOffEvent(tick=240, channel=2, data=[42, 95]),
   midi.NoteOnEvent(tick=0, channel=2, data=[42, 95]),
   midi.NoteOffEvent(tick=240, channel=2, data=[42, 95]),
   midi.NoteOnEvent(tick=0, channel=2, data=[42, 95]),
   midi.NoteOffEvent(tick=240, channel=2, data=[42, 95]),
   midi.NoteOnEvent(tick=0, channel=2, data=[42, 95]),
   midi.NoteOffEvent(tick=240, channel=2, data=[42, 95]),
   midi.NoteOnEvent(tick=0, channel=2, data=[42, 95]),
   midi.NoteOffEvent(tick=240, channel=2, data=[42, 95]),
   midi.NoteOnEvent(tick=0, channel=2, data=[40, 95]),
   midi.NoteOffEvent(tick=240, channel=2, data=[40, 95]),
   midi.NoteOnEvent(tick=0, channel=2, data=[40, 95]),
   midi.NoteOffEvent(tick=240, channel=2, data=[40, 95]),
   midi.NoteOnEvent(tick=0, channel=2, data=[40, 95]),
   midi.NoteOffEvent(tick=240, channel=2, data=[40, 95]),
   midi.NoteOnEvent(tick=0, channel=2, data=[40, 95]),
   midi.NoteOffEvent(tick=240, channel=2, data=[40, 95]),
   midi.NoteOnEvent(tick=0, channel=2, data=[40, 95]),
   midi.NoteOffEvent(tick=240, channel=2, data=[40, 95]),
   midi.NoteOnEvent(tick=0, channel=2, data=[40, 95]),
   midi.NoteOffEvent(tick=240, channel=2, data=[40, 95]),
   midi.NoteOnEvent(tick=0, channel=2, data=[40, 95]),
   midi.NoteOffEvent(tick=240, channel=2, data=[40, 95]),
   midi.NoteOnEvent(tick=0, channel=2, data=[46, 95]),
   midi.NoteOffEvent(tick=240, channel=2, data=[46, 95]),
   midi.NoteOnEvent(tick=0, channel=2, data=[39, 95]),
   midi.NoteOffEvent(tick=240, channel=2, data=[39, 95]),
   midi.NoteOnEvent(tick=0, channel=2, data=[39, 95]),
   midi.NoteOffEvent(tick=240, channel=2, data=[39, 95]),
   midi.NoteOnEvent(tick=0, channel=2, data=[39, 95]),
   midi.NoteOffEvent(tick=240, channel=2, data=[39, 95]),
   midi.NoteOnEvent(tick=0, channel=2, data=[39, 95]),
   midi.NoteOffEvent(tick=240, channel=2, data=[39, 95]),
   midi.NoteOnEvent(tick=0, channel=2, data=[39, 95]),
   midi.NoteOffEvent(tick=240, channel=2, data=[39, 95]),
   midi.NoteOnEvent(tick=0, channel=2, data=[39, 95]),
   midi.NoteOffEvent(tick=240, channel=2, data=[39, 95]),
   midi.NoteOnEvent(tick=0, channel=2, data=[39, 95]),
   midi.NoteOffEvent(tick=240, channel=2, data=[39, 95]),
   midi.NoteOnEvent(tick=0, channel=2, data=[39, 95]),
   midi.NoteOffEvent(tick=240, channel=2, data=[39, 95]),
   midi.NoteOnEvent(tick=0, channel=2, data=[39, 95]),
   midi.NoteOffEvent(tick=240, channel=2, data=[39, 95]),
   midi.NoteOnEvent(tick=0, channel=2, data=[39, 95]),
   midi.NoteOffEvent(tick=240, channel=2, data=[39, 95]),
   midi.NoteOnEvent(tick=0, channel=2, data=[39, 95]),
   midi.NoteOffEvent(tick=240, channel=2, data=[39, 95]),
   midi.NoteOnEvent(tick=0, channel=2, data=[39, 95]),
   midi.NoteOffEvent(tick=240, channel=2, data=[39, 95]),
   midi.NoteOnEvent(tick=0, channel=2, data=[39, 95]),
   midi.NoteOffEvent(tick=240, channel=2, data=[39, 95]),
   midi.NoteOnEvent(tick=0, channel=2, data=[39, 95]),
   midi.NoteOffEvent(tick=240, channel=2, data=[39, 95]),
   midi.NoteOnEvent(tick=0, channel=2, data=[39, 95]),
   midi.NoteOffEvent(tick=240, channel=2, data=[39, 95]),
   midi.NoteOnEvent(tick=0, channel=2, data=[39, 95]),
   midi.NoteOffEvent(tick=240, channel=2, data=[39, 95]),
   midi.NoteOnEvent(tick=0, channel=2, data=[42, 95]),
   midi.NoteOffEvent(tick=240, channel=2, data=[42, 95]),
   midi.NoteOnEvent(tick=0, channel=2, data=[42, 95]),
   midi.NoteOffEvent(tick=240, channel=2, data=[42, 95]),
   midi.NoteOnEvent(tick=0, channel=2, data=[42, 95]),
   midi.NoteOffEvent(tick=240, channel=2, data=[42, 95]),
   midi.NoteOnEvent(tick=0, channel=2, data=[42, 95]),
   midi.NoteOffEvent(tick=240, channel=2, data=[42, 95]),
   midi.NoteOnEvent(tick=0, channel=2, data=[42, 95]),
   midi.NoteOffEvent(tick=240, channel=2, data=[42, 95]),
   midi.NoteOnEvent(tick=0, channel=2, data=[42, 95]),
   midi.NoteOffEvent(tick=240, channel=2, data=[42, 95]),
   midi.NoteOnEvent(tick=0, channel=2, data=[42, 95]),
   midi.NoteOffEvent(tick=240, channel=2, data=[42, 95]),
   midi.NoteOnEvent(tick=0, channel=2, data=[42, 95]),
   midi.NoteOffEvent(tick=240, channel=2, data=[42, 95]),
   midi.NoteOnEvent(tick=0, channel=2, data=[40, 95]),
   midi.NoteOffEvent(tick=240, channel=2, data=[40, 95]),
   midi.NoteOnEvent(tick=0, channel=2, data=[40, 95]),
   midi.NoteOffEvent(tick=240, channel=2, data=[40, 95]),
   midi.NoteOnEvent(tick=0, channel=2, data=[40, 95]),
   midi.NoteOffEvent(tick=240, channel=2, data=[40, 95]),
   midi.NoteOnEvent(tick=0, channel=2, data=[40, 95]),
   midi.NoteOffEvent(tick=240, channel=2, data=[40, 95]),
   midi.NoteOnEvent(tick=0, channel=2, data=[40, 95]),
   midi.NoteOffEvent(tick=240, channel=2, data=[40, 95]),
   midi.NoteOnEvent(tick=0, channel=2, data=[40, 95]),
   midi.NoteOffEvent(tick=240, channel=2, data=[40, 95]),
   midi.NoteOnEvent(tick=0, channel=2, data=[40, 95]),
   midi.NoteOffEvent(tick=240, channel=2, data=[40, 95]),
   midi.NoteOnEvent(tick=0, channel=2, data=[46, 95]),
   midi.NoteOffEvent(tick=240, channel=2, data=[46, 95]),
   midi.NoteOnEvent(tick=0, channel=2, data=[39, 95]),
   midi.NoteOffEvent(tick=240, channel=2, data=[39, 95]),
   midi.NoteOnEvent(tick=0, channel=2, data=[39, 95]),
   midi.NoteOffEvent(tick=240, channel=2, data=[39, 95]),
   midi.NoteOnEvent(tick=0, channel=2, data=[39, 95]),
   midi.NoteOffEvent(tick=240, channel=2, data=[39, 95]),
   midi.NoteOnEvent(tick=0, channel=2, data=[39, 95]),
   midi.NoteOffEvent(tick=240, channel=2, data=[39, 95]),
   midi.NoteOnEvent(tick=0, channel=2, data=[39, 95]),
   midi.NoteOffEvent(tick=240, channel=2, data=[39, 95]),
   midi.NoteOnEvent(tick=0, channel=2, data=[39, 95]),
   midi.NoteOffEvent(tick=240, channel=2, data=[39, 95]),
   midi.NoteOnEvent(tick=0, channel=2, data=[39, 95]),
   midi.NoteOffEvent(tick=240, channel=2, data=[39, 95]),
   midi.NoteOnEvent(tick=0, channel=2, data=[39, 95]),
   midi.NoteOffEvent(tick=240, channel=2, data=[39, 95]),
   midi.NoteOnEvent(tick=0, channel=2, data=[39, 95]),
   midi.NoteOffEvent(tick=240, channel=2, data=[39, 95]),
   midi.NoteOnEvent(tick=0, channel=2, data=[39, 95]),
   midi.NoteOffEvent(tick=240, channel=2, data=[39, 95]),
   midi.NoteOnEvent(tick=0, channel=2, data=[39, 95]),
   midi.NoteOffEvent(tick=240, channel=2, data=[39, 95]),
   midi.NoteOnEvent(tick=0, channel=2, data=[39, 95]),
   midi.NoteOffEvent(tick=240, channel=2, data=[39, 95]),
   midi.NoteOnEvent(tick=0, channel=2, data=[39, 95]),
   midi.NoteOffEvent(tick=240, channel=2, data=[39, 95]),
   midi.NoteOnEvent(tick=0, channel=2, data=[39, 95]),
   midi.NoteOffEvent(tick=240, channel=2, data=[39, 95]),
   midi.NoteOnEvent(tick=0, channel=2, data=[39, 95]),
   midi.NoteOffEvent(tick=240, channel=2, data=[39, 95]),
   midi.NoteOnEvent(tick=0, channel=2, data=[39, 95]),
   midi.NoteOffEvent(tick=240, channel=2, data=[39, 95]),
   midi.NoteOnEvent(tick=0, channel=2, data=[42, 95]),
   midi.NoteOffEvent(tick=240, channel=2, data=[42, 95]),
   midi.NoteOnEvent(tick=0, channel=2, data=[42, 95]),
   midi.NoteOffEvent(tick=240, channel=2, data=[42, 95]),
   midi.NoteOnEvent(tick=0, channel=2, data=[42, 95]),
   midi.NoteOffEvent(tick=240, channel=2, data=[42, 95]),
   midi.NoteOnEvent(tick=0, channel=2, data=[42, 95]),
   midi.NoteOffEvent(tick=240, channel=2, data=[42, 95]),
   midi.NoteOnEvent(tick=0, channel=2, data=[42, 95]),
   midi.NoteOffEvent(tick=240, channel=2, data=[42, 95]),
   midi.NoteOnEvent(tick=0, channel=2, data=[42, 95]),
   midi.NoteOffEvent(tick=240, channel=2, data=[42, 95]),
   midi.NoteOnEvent(tick=0, channel=2, data=[42, 95]),
   midi.NoteOffEvent(tick=240, channel=2, data=[42, 95]),
   midi.NoteOnEvent(tick=0, channel=2, data=[42, 95]),
   midi.NoteOffEvent(tick=240, channel=2, data=[42, 95]),
   midi.NoteOnEvent(tick=0, channel=2, data=[40, 95]),
   midi.NoteOffEvent(tick=240, channel=2, data=[40, 95]),
   midi.NoteOnEvent(tick=0, channel=2, data=[40, 95]),
   midi.NoteOffEvent(tick=240, channel=2, data=[40, 95]),
   midi.NoteOnEvent(tick=0, channel=2, data=[40, 95]),
   midi.NoteOffEvent(tick=240, channel=2, data=[40, 95]),
   midi.NoteOnEvent(tick=0, channel=2, data=[40, 95]),
   midi.NoteOffEvent(tick=240, channel=2, data=[40, 95]),
   midi.NoteOnEvent(tick=0, channel=2, data=[40, 95]),
   midi.NoteOffEvent(tick=240, channel=2, data=[40, 95]),
   midi.NoteOnEvent(tick=0, channel=2, data=[40, 95]),
   midi.NoteOffEvent(tick=240, channel=2, data=[40, 95]),
   midi.NoteOnEvent(tick=0, channel=2, data=[40, 95]),
   midi.NoteOffEvent(tick=240, channel=2, data=[40, 95]),
   midi.NoteOnEvent(tick=0, channel=2, data=[46, 95]),
   midi.NoteOffEvent(tick=240, channel=2, data=[46, 95]),
   midi.NoteOnEvent(tick=0, channel=2, data=[39, 95]),
   midi.NoteOffEvent(tick=240, channel=2, data=[39, 95]),
   midi.NoteOnEvent(tick=0, channel=2, data=[39, 95]),
   midi.NoteOffEvent(tick=240, channel=2, data=[39, 95]),
   midi.NoteOnEvent(tick=0, channel=2, data=[39, 95]),
   midi.NoteOffEvent(tick=240, channel=2, data=[39, 95]),
   midi.NoteOnEvent(tick=0, channel=2, data=[39, 95]),
   midi.NoteOffEvent(tick=240, channel=2, data=[39, 95]),
   midi.NoteOnEvent(tick=0, channel=2, data=[39, 95]),
   midi.NoteOffEvent(tick=240, channel=2, data=[39, 95]),
   midi.NoteOnEvent(tick=0, channel=2, data=[39, 95]),
   midi.NoteOffEvent(tick=240, channel=2, data=[39, 95]),
   midi.NoteOnEvent(tick=0, channel=2, data=[39, 95]),
   midi.NoteOffEvent(tick=240, channel=2, data=[39, 95]),
   midi.NoteOnEvent(tick=0, channel=2, data=[39, 95]),
   midi.NoteOffEvent(tick=240, channel=2, data=[39, 95]),
   midi.NoteOnEvent(tick=0, channel=2, data=[39, 95]),
   midi.NoteOffEvent(tick=240, channel=2, data=[39, 95]),
   midi.NoteOnEvent(tick=0, channel=2, data=[39, 95]),
   midi.NoteOffEvent(tick=240, channel=2, data=[39, 95]),
   midi.NoteOnEvent(tick=0, channel=2, data=[39, 95]),
   midi.NoteOffEvent(tick=240, channel=2, data=[39, 95]),
   midi.NoteOnEvent(tick=0, channel=2, data=[39, 95]),
   midi.NoteOffEvent(tick=240, channel=2, data=[39, 95]),
   midi.NoteOnEvent(tick=0, channel=2, data=[39, 95]),
   midi.NoteOffEvent(tick=240, channel=2, data=[39, 95]),
   midi.NoteOnEvent(tick=0, channel=2, data=[39, 95]),
   midi.NoteOffEvent(tick=240, channel=2, data=[39, 95]),
   midi.NoteOnEvent(tick=0, channel=2, data=[39, 95]),
   midi.NoteOffEvent(tick=240, channel=2, data=[39, 95]),
   midi.NoteOnEvent(tick=0, channel=2, data=[39, 95]),
   midi.NoteOffEvent(tick=240, channel=2, data=[39, 95]),
   midi.NoteOnEvent(tick=0, channel=2, data=[42, 95]),
   midi.NoteOffEvent(tick=240, channel=2, data=[42, 95]),
   midi.NoteOnEvent(tick=0, channel=2, data=[42, 95]),
   midi.NoteOffEvent(tick=240, channel=2, data=[42, 95]),
   midi.NoteOnEvent(tick=0, channel=2, data=[42, 95]),
   midi.NoteOffEvent(tick=240, channel=2, data=[42, 95]),
   midi.NoteOnEvent(tick=0, channel=2, data=[42, 95]),
   midi.NoteOffEvent(tick=240, channel=2, data=[42, 95]),
   midi.NoteOnEvent(tick=0, channel=2, data=[42, 95]),
   midi.NoteOffEvent(tick=240, channel=2, data=[42, 95]),
   midi.NoteOnEvent(tick=0, channel=2, data=[42, 95]),
   midi.NoteOffEvent(tick=240, channel=2, data=[42, 95]),
   midi.NoteOnEvent(tick=0, channel=2, data=[42, 95]),
   midi.NoteOffEvent(tick=240, channel=2, data=[42, 95]),
   midi.NoteOnEvent(tick=0, channel=2, data=[42, 95]),
   midi.NoteOffEvent(tick=240, channel=2, data=[42, 95]),
   midi.NoteOnEvent(tick=0, channel=2, data=[40, 95]),
   midi.NoteOffEvent(tick=240, channel=2, data=[40, 95]),
   midi.NoteOnEvent(tick=0, channel=2, data=[40, 95]),
   midi.NoteOffEvent(tick=240, channel=2, data=[40, 95]),
   midi.NoteOnEvent(tick=0, channel=2, data=[40, 95]),
   midi.NoteOffEvent(tick=240, channel=2, data=[40, 95]),
   midi.NoteOnEvent(tick=0, channel=2, data=[40, 95]),
   midi.NoteOffEvent(tick=240, channel=2, data=[40, 95]),
   midi.NoteOnEvent(tick=0, channel=2, data=[40, 95]),
   midi.NoteOffEvent(tick=240, channel=2, data=[40, 95]),
   midi.NoteOnEvent(tick=0, channel=2, data=[40, 95]),
   midi.NoteOffEvent(tick=240, channel=2, data=[40, 95]),
   midi.NoteOnEvent(tick=0, channel=2, data=[40, 95]),
   midi.NoteOffEvent(tick=240, channel=2, data=[40, 95]),
   midi.NoteOnEvent(tick=0, channel=2, data=[46, 95]),
   midi.NoteOffEvent(tick=240, channel=2, data=[46, 95]),
   midi.NoteOnEvent(tick=0, channel=2, data=[39, 95]),
   midi.NoteOffEvent(tick=240, channel=2, data=[39, 95]),
   midi.NoteOnEvent(tick=0, channel=2, data=[39, 95]),
   midi.NoteOffEvent(tick=240, channel=2, data=[39, 95]),
   midi.NoteOnEvent(tick=0, channel=2, data=[39, 95]),
   midi.NoteOffEvent(tick=240, channel=2, data=[39, 95]),
   midi.NoteOnEvent(tick=0, channel=2, data=[39, 95]),
   midi.NoteOffEvent(tick=240, channel=2, data=[39, 95]),
   midi.NoteOnEvent(tick=0, channel=2, data=[39, 95]),
   midi.NoteOffEvent(tick=240, channel=2, data=[39, 95]),
   midi.NoteOnEvent(tick=0, channel=2, data=[39, 95]),
   midi.NoteOffEvent(tick=240, channel=2, data=[39, 95]),
   midi.NoteOnEvent(tick=0, channel=2, data=[39, 95]),
   midi.NoteOffEvent(tick=240, channel=2, data=[39, 95]),
   midi.NoteOnEvent(tick=0, channel=2, data=[39, 95]),
   midi.NoteOffEvent(tick=240, channel=2, data=[39, 95]),
   midi.NoteOnEvent(tick=0, channel=2, data=[39, 95]),
   midi.NoteOffEvent(tick=240, channel=2, data=[39, 95]),
   midi.NoteOnEvent(tick=0, channel=2, data=[39, 95]),
   midi.NoteOffEvent(tick=240, channel=2, data=[39, 95]),
   midi.NoteOnEvent(tick=0, channel=2, data=[39, 95]),
   midi.NoteOffEvent(tick=240, channel=2, data=[39, 95]),
   midi.NoteOnEvent(tick=0, channel=2, data=[39, 95]),
   midi.NoteOffEvent(tick=240, channel=2, data=[39, 95]),
   midi.NoteOnEvent(tick=0, channel=2, data=[39, 95]),
   midi.NoteOffEvent(tick=240, channel=2, data=[39, 95]),
   midi.NoteOnEvent(tick=0, channel=2, data=[39, 95]),
   midi.NoteOffEvent(tick=240, channel=2, data=[39, 95]),
   midi.NoteOnEvent(tick=0, channel=2, data=[39, 95]),
   midi.NoteOffEvent(tick=240, channel=2, data=[39, 95]),
   midi.NoteOnEvent(tick=0, channel=2, data=[39, 95]),
   midi.NoteOffEvent(tick=240, channel=2, data=[39, 95]),
   midi.NoteOnEvent(tick=0, channel=2, data=[42, 95]),
   midi.NoteOffEvent(tick=240, channel=2, data=[42, 95]),
   midi.NoteOnEvent(tick=0, channel=2, data=[42, 95]),
   midi.NoteOffEvent(tick=240, channel=2, data=[42, 95]),
   midi.NoteOnEvent(tick=0, channel=2, data=[42, 95]),
   midi.NoteOffEvent(tick=240, channel=2, data=[42, 95]),
   midi.NoteOnEvent(tick=0, channel=2, data=[42, 95]),
   midi.NoteOffEvent(tick=240, channel=2, data=[42, 95]),
   midi.NoteOnEvent(tick=0, channel=2, data=[42, 95]),
   midi.NoteOffEvent(tick=240, channel=2, data=[42, 95]),
   midi.NoteOnEvent(tick=0, channel=2, data=[42, 95]),
   midi.NoteOffEvent(tick=240, channel=2, data=[42, 95]),
   midi.NoteOnEvent(tick=0, channel=2, data=[42, 95]),
   midi.NoteOffEvent(tick=240, channel=2, data=[42, 95]),
   midi.NoteOnEvent(tick=0, channel=2, data=[42, 95]),
   midi.NoteOffEvent(tick=240, channel=2, data=[42, 95]),
   midi.NoteOnEvent(tick=0, channel=2, data=[40, 95]),
   midi.NoteOffEvent(tick=240, channel=2, data=[40, 95]),
   midi.NoteOnEvent(tick=0, channel=2, data=[40, 95]),
   midi.NoteOffEvent(tick=240, channel=2, data=[40, 95]),
   midi.NoteOnEvent(tick=0, channel=2, data=[40, 95]),
   midi.NoteOffEvent(tick=240, channel=2, data=[40, 95]),
   midi.NoteOnEvent(tick=0, channel=2, data=[40, 95]),
   midi.NoteOffEvent(tick=240, channel=2, data=[40, 95]),
   midi.NoteOnEvent(tick=0, channel=2, data=[40, 95]),
   midi.NoteOffEvent(tick=240, channel=2, data=[40, 95]),
   midi.NoteOnEvent(tick=0, channel=2, data=[40, 95]),
   midi.NoteOffEvent(tick=240, channel=2, data=[40, 95]),
   midi.NoteOnEvent(tick=0, channel=2, data=[40, 95]),
   midi.NoteOffEvent(tick=240, channel=2, data=[40, 95]),
   midi.NoteOnEvent(tick=0, channel=2, data=[46, 95]),
   midi.NoteOffEvent(tick=240, channel=2, data=[46, 95]),
   midi.NoteOnEvent(tick=0, channel=2, data=[39, 95]),
   midi.NoteOffEvent(tick=240, channel=2, data=[39, 95]),
   midi.NoteOnEvent(tick=0, channel=2, data=[39, 95]),
   midi.NoteOffEvent(tick=240, channel=2, data=[39, 95]),
   midi.NoteOnEvent(tick=0, channel=2, data=[39, 95]),
   midi.NoteOffEvent(tick=240, channel=2, data=[39, 95]),
   midi.NoteOnEvent(tick=0, channel=2, data=[39, 95]),
   midi.NoteOffEvent(tick=240, channel=2, data=[39, 95]),
   midi.NoteOnEvent(tick=0, channel=2, data=[39, 95]),
   midi.NoteOffEvent(tick=240, channel=2, data=[39, 95]),
   midi.NoteOnEvent(tick=0, channel=2, data=[39, 95]),
   midi.NoteOffEvent(tick=240, channel=2, data=[39, 95]),
   midi.NoteOnEvent(tick=0, channel=2, data=[39, 95]),
   midi.NoteOffEvent(tick=240, channel=2, data=[39, 95]),
   midi.NoteOnEvent(tick=0, channel=2, data=[39, 95]),
   midi.NoteOffEvent(tick=240, channel=2, data=[39, 95]),
   midi.NoteOnEvent(tick=0, channel=2, data=[39, 95]),
   midi.NoteOffEvent(tick=240, channel=2, data=[39, 95]),
   midi.NoteOnEvent(tick=0, channel=2, data=[39, 95]),
   midi.NoteOffEvent(tick=240, channel=2, data=[39, 95]),
   midi.NoteOnEvent(tick=0, channel=2, data=[39, 95]),
   midi.NoteOffEvent(tick=240, channel=2, data=[39, 95]),
   midi.NoteOnEvent(tick=0, channel=2, data=[39, 95]),
   midi.NoteOffEvent(tick=240, channel=2, data=[39, 95]),
   midi.NoteOnEvent(tick=0, channel=2, data=[39, 95]),
   midi.NoteOffEvent(tick=240, channel=2, data=[39, 95]),
   midi.NoteOnEvent(tick=0, channel=2, data=[39, 95]),
   midi.NoteOffEvent(tick=240, channel=2, data=[39, 95]),
   midi.NoteOnEvent(tick=0, channel=2, data=[39, 95]),
   midi.NoteOffEvent(tick=240, channel=2, data=[39, 95]),
   midi.NoteOnEvent(tick=0, channel=2, data=[39, 95]),
   midi.NoteOffEvent(tick=240, channel=2, data=[39, 95]),
   midi.NoteOnEvent(tick=0, channel=2, data=[42, 95]),
   midi.NoteOffEvent(tick=240, channel=2, data=[42, 95]),
   midi.NoteOnEvent(tick=0, channel=2, data=[42, 95]),
   midi.NoteOffEvent(tick=240, channel=2, data=[42, 95]),
   midi.NoteOnEvent(tick=0, channel=2, data=[42, 95]),
   midi.NoteOffEvent(tick=240, channel=2, data=[42, 95]),
   midi.NoteOnEvent(tick=0, channel=2, data=[42, 95]),
   midi.NoteOffEvent(tick=240, channel=2, data=[42, 95]),
   midi.NoteOnEvent(tick=0, channel=2, data=[42, 95]),
   midi.NoteOffEvent(tick=240, channel=2, data=[42, 95]),
   midi.NoteOnEvent(tick=0, channel=2, data=[42, 95]),
   midi.NoteOffEvent(tick=240, channel=2, data=[42, 95]),
   midi.NoteOnEvent(tick=0, channel=2, data=[42, 95]),
   midi.NoteOffEvent(tick=240, channel=2, data=[42, 95]),
   midi.NoteOnEvent(tick=0, channel=2, data=[42, 95]),
   midi.NoteOffEvent(tick=240, channel=2, data=[42, 95]),
   midi.NoteOnEvent(tick=0, channel=2, data=[40, 95]),
   midi.NoteOffEvent(tick=240, channel=2, data=[40, 95]),
   midi.NoteOnEvent(tick=0, channel=2, data=[40, 95]),
   midi.NoteOffEvent(tick=240, channel=2, data=[40, 95]),
   midi.NoteOnEvent(tick=0, channel=2, data=[40, 95]),
   midi.NoteOffEvent(tick=240, channel=2, data=[40, 95]),
   midi.NoteOnEvent(tick=0, channel=2, data=[40, 95]),
   midi.NoteOffEvent(tick=240, channel=2, data=[40, 95]),
   midi.NoteOnEvent(tick=0, channel=2, data=[40, 95]),
   midi.NoteOffEvent(tick=240, channel=2, data=[40, 95]),
   midi.NoteOnEvent(tick=0, channel=2, data=[40, 95]),
   midi.NoteOffEvent(tick=240, channel=2, data=[40, 95]),
   midi.NoteOnEvent(tick=0, channel=2, data=[40, 95]),
   midi.NoteOffEvent(tick=240, channel=2, data=[40, 95]),
   midi.NoteOnEvent(tick=0, channel=2, data=[46, 95]),
   midi.NoteOffEvent(tick=240, channel=2, data=[46, 95]),
   midi.NoteOnEvent(tick=0, channel=2, data=[52, 95]),
   midi.NoteOnEvent(tick=0, channel=2, data=[45, 95]),
   midi.NoteOffEvent(tick=4800, channel=2, data=[52, 95]),
   midi.NoteOffEvent(tick=0, channel=2, data=[45, 95]),
   midi.NoteOnEvent(tick=0, channel=2, data=[51, 95]),
   midi.NoteOnEvent(tick=0, channel=2, data=[44, 95]),
   midi.NoteOffEvent(tick=960, channel=2, data=[51, 95]),
   midi.NoteOffEvent(tick=0, channel=2, data=[44, 95]),
   midi.NoteOnEvent(tick=0, channel=2, data=[52, 95]),
   midi.NoteOnEvent(tick=0, channel=2, data=[45, 95]),
   midi.NoteOffEvent(tick=960, channel=2, data=[52, 95]),
   midi.NoteOffEvent(tick=0, channel=2, data=[45, 95]),
   midi.NoteOnEvent(tick=0, channel=2, data=[51, 95]),
   midi.NoteOnEvent(tick=0, channel=2, data=[44, 95]),
   midi.NoteOffEvent(tick=960, channel=2, data=[51, 95]),
   midi.NoteOffEvent(tick=0, channel=2, data=[44, 95]),
   midi.NoteOnEvent(tick=0, channel=2, data=[48, 95]),
   midi.NoteOnEvent(tick=0, channel=2, data=[41, 95]),
   midi.NoteOffEvent(tick=6720, channel=2, data=[48, 95]),
   midi.NoteOffEvent(tick=0, channel=2, data=[41, 95]),
   midi.NoteOnEvent(tick=0, channel=2, data=[51, 95]),
   midi.NoteOnEvent(tick=0, channel=2, data=[44, 95]),
   midi.NoteOffEvent(tick=960, channel=2, data=[51, 95]),
   midi.NoteOffEvent(tick=0, channel=2, data=[44, 95]),
   midi.NoteOnEvent(tick=0, channel=2, data=[52, 95]),
   midi.NoteOnEvent(tick=0, channel=2, data=[45, 95]),
   midi.NoteOffEvent(tick=4800, channel=2, data=[52, 95]),
   midi.NoteOffEvent(tick=0, channel=2, data=[45, 95]),
   midi.NoteOnEvent(tick=0, channel=2, data=[51, 95]),
   midi.NoteOnEvent(tick=0, channel=2, data=[44, 95]),
   midi.NoteOffEvent(tick=480, channel=2, data=[51, 95]),
   midi.NoteOffEvent(tick=0, channel=2, data=[44, 95]),
   midi.NoteOnEvent(tick=0, channel=2, data=[52, 95]),
   midi.NoteOnEvent(tick=0, channel=2, data=[45, 95]),
   midi.NoteOffEvent(tick=480, channel=2, data=[52, 95]),
   midi.NoteOffEvent(tick=0, channel=2, data=[45, 95]),
   midi.NoteOnEvent(tick=0, channel=2, data=[51, 95]),
   midi.NoteOnEvent(tick=0, channel=2, data=[44, 95]),
   midi.NoteOffEvent(tick=480, channel=2, data=[51, 95]),
   midi.NoteOffEvent(tick=0, channel=2, data=[44, 95]),
   midi.NoteOnEvent(tick=0, channel=2, data=[51, 95]),
   midi.NoteOnEvent(tick=0, channel=2, data=[44, 95]),
   midi.NoteOffEvent(tick=480, channel=2, data=[51, 95]),
   midi.NoteOffEvent(tick=0, channel=2, data=[44, 95]),
   midi.NoteOnEvent(tick=0, channel=2, data=[52, 95]),
   midi.NoteOnEvent(tick=0, channel=2, data=[45, 95]),
   midi.NoteOffEvent(tick=480, channel=2, data=[52, 95]),
   midi.NoteOffEvent(tick=0, channel=2, data=[45, 95]),
   midi.NoteOnEvent(tick=0, channel=2, data=[51, 95]),
   midi.NoteOnEvent(tick=0, channel=2, data=[44, 95]),
   midi.NoteOffEvent(tick=480, channel=2, data=[51, 95]),
   midi.NoteOffEvent(tick=0, channel=2, data=[44, 95]),
   midi.NoteOnEvent(tick=0, channel=2, data=[48, 95]),
   midi.NoteOnEvent(tick=0, channel=2, data=[41, 95]),
   midi.NoteOffEvent(tick=6720, channel=2, data=[48, 95]),
   midi.NoteOffEvent(tick=0, channel=2, data=[41, 95]),
   midi.NoteOnEvent(tick=0, channel=3, data=[51, 95]),
   midi.NoteOnEvent(tick=0, channel=3, data=[44, 95]),
   midi.NoteOffEvent(tick=960, channel=3, data=[51, 95]),
   midi.NoteOffEvent(tick=0, channel=3, data=[44, 95]),
   midi.NoteOnEvent(tick=0, channel=2, data=[52, 95]),
   midi.NoteOnEvent(tick=0, channel=2, data=[45, 95]),
   midi.NoteOffEvent(tick=4800, channel=2, data=[52, 95]),
   midi.NoteOffEvent(tick=0, channel=2, data=[45, 95]),
   midi.NoteOnEvent(tick=0, channel=2, data=[51, 95]),
   midi.NoteOnEvent(tick=0, channel=2, data=[44, 95]),
   midi.NoteOffEvent(tick=960, channel=2, data=[51, 95]),
   midi.NoteOffEvent(tick=0, channel=2, data=[44, 95]),
   midi.NoteOnEvent(tick=0, channel=2, data=[52, 95]),
   midi.NoteOnEvent(tick=0, channel=2, data=[45, 95]),
   midi.NoteOffEvent(tick=960, channel=2, data=[52, 95]),
   midi.NoteOffEvent(tick=0, channel=2, data=[45, 95]),
   midi.NoteOnEvent(tick=0, channel=2, data=[51, 95]),
   midi.NoteOnEvent(tick=0, channel=2, data=[44, 95]),
   midi.NoteOffEvent(tick=960, channel=2, data=[51, 95]),
   midi.NoteOffEvent(tick=0, channel=2, data=[44, 95]),
   midi.NoteOnEvent(tick=0, channel=2, data=[48, 95]),
   midi.NoteOnEvent(tick=0, channel=2, data=[41, 95]),
   midi.NoteOffEvent(tick=6720, channel=2, data=[48, 95]),
   midi.NoteOffEvent(tick=0, channel=2, data=[41, 95]),
   midi.NoteOnEvent(tick=0, channel=2, data=[51, 95]),
   midi.NoteOnEvent(tick=0, channel=2, data=[44, 95]),
   midi.NoteOffEvent(tick=960, channel=2, data=[51, 95]),
   midi.NoteOffEvent(tick=0, channel=2, data=[44, 95]),
   midi.NoteOnEvent(tick=0, channel=2, data=[52, 95]),
   midi.NoteOnEvent(tick=0, channel=2, data=[45, 95]),
   midi.NoteOffEvent(tick=4800, channel=2, data=[52, 95]),
   midi.NoteOffEvent(tick=0, channel=2, data=[45, 95]),
   midi.NoteOnEvent(tick=0, channel=2, data=[51, 95]),
   midi.NoteOnEvent(tick=0, channel=2, data=[44, 95]),
   midi.NoteOffEvent(tick=480, channel=2, data=[51, 95]),
   midi.NoteOffEvent(tick=0, channel=2, data=[44, 95]),
   midi.NoteOnEvent(tick=0, channel=2, data=[52, 95]),
   midi.NoteOnEvent(tick=0, channel=2, data=[45, 95]),
   midi.NoteOffEvent(tick=480, channel=2, data=[52, 95]),
   midi.NoteOffEvent(tick=0, channel=2, data=[45, 95]),
   midi.NoteOnEvent(tick=0, channel=2, data=[51, 95]),
   midi.NoteOnEvent(tick=0, channel=2, data=[44, 95]),
   midi.NoteOffEvent(tick=480, channel=2, data=[51, 95]),
   midi.NoteOffEvent(tick=0, channel=2, data=[44, 95]),
   midi.NoteOnEvent(tick=0, channel=2, data=[51, 95]),
   midi.NoteOnEvent(tick=0, channel=2, data=[44, 95]),
   midi.NoteOffEvent(tick=480, channel=2, data=[51, 95]),
   midi.NoteOffEvent(tick=0, channel=2, data=[44, 95]),
   midi.NoteOnEvent(tick=0, channel=2, data=[52, 95]),
   midi.NoteOnEvent(tick=0, channel=2, data=[45, 95]),
   midi.NoteOffEvent(tick=480, channel=2, data=[52, 95]),
   midi.NoteOffEvent(tick=0, channel=2, data=[45, 95]),
   midi.NoteOnEvent(tick=0, channel=2, data=[51, 95]),
   midi.NoteOnEvent(tick=0, channel=2, data=[44, 95]),
   midi.NoteOffEvent(tick=480, channel=2, data=[51, 95]),
   midi.NoteOffEvent(tick=0, channel=2, data=[44, 95]),
   midi.NoteOnEvent(tick=0, channel=2, data=[48, 95]),
   midi.NoteOnEvent(tick=0, channel=2, data=[41, 95]),
   midi.NoteOffEvent(tick=6720, channel=2, data=[48, 95]),
   midi.NoteOffEvent(tick=0, channel=2, data=[41, 95]),
   midi.NoteOnEvent(tick=0, channel=3, data=[51, 95]),
   midi.NoteOnEvent(tick=0, channel=3, data=[44, 95]),
   midi.NoteOffEvent(tick=960, channel=3, data=[51, 95]),
   midi.NoteOffEvent(tick=0, channel=3, data=[44, 95]),
   midi.NoteOnEvent(tick=3840, channel=2, data=[39, 95]),
   midi.NoteOffEvent(tick=480, channel=2, data=[39, 95]),
   midi.NoteOnEvent(tick=0, channel=2, data=[39, 95]),
   midi.NoteOffEvent(tick=480, channel=2, data=[39, 95]),
   midi.NoteOnEvent(tick=0, channel=2, data=[39, 95]),
   midi.NoteOffEvent(tick=480, channel=2, data=[39, 95]),
   midi.NoteOnEvent(tick=0, channel=2, data=[39, 95]),
   midi.NoteOffEvent(tick=480, channel=2, data=[39, 95]),
   midi.NoteOnEvent(tick=0, channel=3, data=[59, 95]),
   midi.NoteOnEvent(tick=0, channel=3, data=[52, 95]),
   midi.PitchWheelEvent(tick=120, channel=3, data=[0, 63]),
   midi.PitchWheelEvent(tick=0, channel=3, data=[0, 63]),
   midi.PitchWheelEvent(tick=120, channel=3, data=[0, 62]),
   midi.PitchWheelEvent(tick=0, channel=3, data=[0, 62]),
   midi.PitchWheelEvent(tick=120, channel=3, data=[0, 60]),
   midi.PitchWheelEvent(tick=0, channel=3, data=[0, 60]),
   midi.PitchWheelEvent(tick=120, channel=3, data=[0, 59]),
   midi.PitchWheelEvent(tick=0, channel=3, data=[0, 64]),
   midi.NoteOffEvent(tick=0, channel=3, data=[59, 95]),
   midi.PitchWheelEvent(tick=0, channel=3, data=[0, 59]),
   midi.PitchWheelEvent(tick=0, channel=3, data=[0, 64]),
   midi.NoteOffEvent(tick=0, channel=3, data=[52, 95]),
   midi.NoteOnEvent(tick=0, channel=2, data=[58, 95]),
   midi.NoteOnEvent(tick=0, channel=2, data=[51, 95]),
   midi.NoteOffEvent(tick=480, channel=2, data=[58, 95]),
   midi.NoteOffEvent(tick=0, channel=2, data=[51, 95]),
   midi.NoteOnEvent(tick=0, channel=2, data=[39, 95]),
   midi.NoteOffEvent(tick=480, channel=2, data=[39, 95]),
   midi.NoteOnEvent(tick=0, channel=2, data=[39, 95]),
   midi.NoteOffEvent(tick=480, channel=2, data=[39, 95]),
   midi.NoteOnEvent(tick=0, channel=2, data=[39, 95]),
   midi.NoteOffEvent(tick=480, channel=2, data=[39, 95]),
   midi.NoteOnEvent(tick=0, channel=2, data=[39, 95]),
   midi.NoteOffEvent(tick=480, channel=2, data=[39, 95]),
   midi.NoteOnEvent(tick=0, channel=2, data=[39, 95]),
   midi.NoteOffEvent(tick=480, channel=2, data=[39, 95]),
   midi.NoteOnEvent(tick=0, channel=2, data=[39, 95]),
   midi.NoteOffEvent(tick=480, channel=2, data=[39, 95]),
   midi.NoteOnEvent(tick=0, channel=2, data=[39, 95]),
   midi.NoteOffEvent(tick=480, channel=2, data=[39, 95]),
   midi.NoteOnEvent(tick=0, channel=2, data=[39, 95]),
   midi.NoteOffEvent(tick=480, channel=2, data=[39, 95]),
   midi.NoteOnEvent(tick=0, channel=2, data=[59, 95]),
   midi.NoteOnEvent(tick=0, channel=2, data=[52, 95]),
   midi.NoteOffEvent(tick=960, channel=2, data=[59, 95]),
   midi.NoteOffEvent(tick=0, channel=2, data=[52, 95]),
   midi.NoteOnEvent(tick=0, channel=2, data=[39, 95]),
   midi.NoteOffEvent(tick=480, channel=2, data=[39, 95]),
   midi.NoteOnEvent(tick=0, channel=2, data=[39, 95]),
   midi.NoteOffEvent(tick=480, channel=2, data=[39, 95]),
   midi.NoteOnEvent(tick=0, channel=2, data=[39, 95]),
   midi.NoteOffEvent(tick=480, channel=2, data=[39, 95]),
   midi.NoteOnEvent(tick=0, channel=2, data=[39, 95]),
   midi.NoteOffEvent(tick=480, channel=2, data=[39, 95]),
   midi.NoteOnEvent(tick=0, channel=3, data=[59, 95]),
   midi.NoteOnEvent(tick=0, channel=3, data=[52, 95]),
   midi.PitchWheelEvent(tick=120, channel=3, data=[0, 63]),
   midi.PitchWheelEvent(tick=0, channel=3, data=[0, 63]),
   midi.PitchWheelEvent(tick=120, channel=3, data=[0, 62]),
   midi.PitchWheelEvent(tick=0, channel=3, data=[0, 62]),
   midi.PitchWheelEvent(tick=120, channel=3, data=[0, 60]),
   midi.PitchWheelEvent(tick=0, channel=3, data=[0, 60]),
   midi.PitchWheelEvent(tick=120, channel=3, data=[0, 59]),
   midi.PitchWheelEvent(tick=0, channel=3, data=[0, 64]),
   midi.NoteOffEvent(tick=0, channel=3, data=[59, 95]),
   midi.PitchWheelEvent(tick=0, channel=3, data=[0, 59]),
   midi.PitchWheelEvent(tick=0, channel=3, data=[0, 64]),
   midi.NoteOffEvent(tick=0, channel=3, data=[52, 95]),
   midi.NoteOnEvent(tick=0, channel=2, data=[58, 95]),
   midi.NoteOnEvent(tick=0, channel=2, data=[51, 95]),
   midi.NoteOffEvent(tick=480, channel=2, data=[58, 95]),
   midi.NoteOffEvent(tick=0, channel=2, data=[51, 95]),
   midi.NoteOnEvent(tick=0, channel=2, data=[39, 95]),
   midi.NoteOffEvent(tick=480, channel=2, data=[39, 95]),
   midi.NoteOnEvent(tick=0, channel=2, data=[39, 95]),
   midi.NoteOffEvent(tick=480, channel=2, data=[39, 95]),
   midi.NoteOnEvent(tick=0, channel=2, data=[39, 95]),
   midi.NoteOffEvent(tick=480, channel=2, data=[39, 95]),
   midi.NoteOnEvent(tick=0, channel=2, data=[39, 95]),
   midi.NoteOffEvent(tick=480, channel=2, data=[39, 95]),
   midi.NoteOnEvent(tick=0, channel=2, data=[46, 95]),
   midi.NoteOffEvent(tick=480, channel=2, data=[46, 95]),
   midi.NoteOnEvent(tick=0, channel=2, data=[47, 95]),
   midi.NoteOffEvent(tick=480, channel=2, data=[47, 95]),
   midi.NoteOnEvent(tick=0, channel=2, data=[50, 95]),
   midi.NoteOffEvent(tick=480, channel=2, data=[50, 95]),
   midi.NoteOnEvent(tick=0, channel=2, data=[49, 95]),
   midi.NoteOffEvent(tick=480, channel=2, data=[49, 95]),
   midi.NoteOnEvent(tick=0, channel=2, data=[48, 95]),
   midi.NoteOffEvent(tick=480, channel=2, data=[48, 95]),
   midi.NoteOnEvent(tick=0, channel=2, data=[47, 95]),
   midi.NoteOffEvent(tick=480, channel=2, data=[47, 95]),
   midi.NoteOnEvent(tick=0, channel=2, data=[39, 95]),
   midi.NoteOffEvent(tick=480, channel=2, data=[39, 95]),
   midi.NoteOnEvent(tick=0, channel=2, data=[39, 95]),
   midi.NoteOffEvent(tick=480, channel=2, data=[39, 95]),
   midi.NoteOnEvent(tick=0, channel=2, data=[39, 95]),
   midi.NoteOffEvent(tick=480, channel=2, data=[39, 95]),
   midi.NoteOnEvent(tick=0, channel=2, data=[39, 95]),
   midi.NoteOffEvent(tick=480, channel=2, data=[39, 95]),
   midi.NoteOnEvent(tick=0, channel=3, data=[59, 95]),
   midi.NoteOnEvent(tick=0, channel=3, data=[52, 95]),
   midi.PitchWheelEvent(tick=120, channel=3, data=[0, 63]),
   midi.PitchWheelEvent(tick=0, channel=3, data=[0, 63]),
   midi.PitchWheelEvent(tick=120, channel=3, data=[0, 62]),
   midi.PitchWheelEvent(tick=0, channel=3, data=[0, 62]),
   midi.PitchWheelEvent(tick=120, channel=3, data=[0, 60]),
   midi.PitchWheelEvent(tick=0, channel=3, data=[0, 60]),
   midi.PitchWheelEvent(tick=120, channel=3, data=[0, 59]),
   midi.PitchWheelEvent(tick=0, channel=3, data=[0, 64]),
   midi.NoteOffEvent(tick=0, channel=3, data=[59, 95]),
   midi.PitchWheelEvent(tick=0, channel=3, data=[0, 59]),
   midi.PitchWheelEvent(tick=0, channel=3, data=[0, 64]),
   midi.NoteOffEvent(tick=0, channel=3, data=[52, 95]),
   midi.NoteOnEvent(tick=0, channel=2, data=[58, 95]),
   midi.NoteOnEvent(tick=0, channel=2, data=[51, 95]),
   midi.NoteOffEvent(tick=480, channel=2, data=[58, 95]),
   midi.NoteOffEvent(tick=0, channel=2, data=[51, 95]),
   midi.NoteOnEvent(tick=0, channel=2, data=[39, 95]),
   midi.NoteOffEvent(tick=480, channel=2, data=[39, 95]),
   midi.NoteOnEvent(tick=0, channel=2, data=[39, 95]),
   midi.NoteOffEvent(tick=480, channel=2, data=[39, 95]),
   midi.NoteOnEvent(tick=0, channel=2, data=[39, 95]),
   midi.NoteOffEvent(tick=480, channel=2, data=[39, 95]),
   midi.NoteOnEvent(tick=0, channel=2, data=[39, 95]),
   midi.NoteOffEvent(tick=480, channel=2, data=[39, 95]),
   midi.NoteOnEvent(tick=0, channel=2, data=[39, 95]),
   midi.NoteOffEvent(tick=480, channel=2, data=[39, 95]),
   midi.NoteOnEvent(tick=0, channel=2, data=[39, 95]),
   midi.NoteOffEvent(tick=480, channel=2, data=[39, 95]),
   midi.NoteOnEvent(tick=0, channel=2, data=[39, 95]),
   midi.NoteOffEvent(tick=480, channel=2, data=[39, 95]),
   midi.NoteOnEvent(tick=0, channel=2, data=[39, 95]),
   midi.NoteOffEvent(tick=480, channel=2, data=[39, 95]),
   midi.NoteOnEvent(tick=0, channel=2, data=[59, 95]),
   midi.NoteOnEvent(tick=0, channel=2, data=[52, 95]),
   midi.NoteOffEvent(tick=960, channel=2, data=[59, 95]),
   midi.NoteOffEvent(tick=0, channel=2, data=[52, 95]),
   midi.NoteOnEvent(tick=0, channel=2, data=[39, 95]),
   midi.NoteOffEvent(tick=480, channel=2, data=[39, 95]),
   midi.NoteOnEvent(tick=0, channel=2, data=[39, 95]),
   midi.NoteOffEvent(tick=480, channel=2, data=[39, 95]),
   midi.NoteOnEvent(tick=0, channel=2, data=[39, 95]),
   midi.NoteOffEvent(tick=480, channel=2, data=[39, 95]),
   midi.NoteOnEvent(tick=0, channel=2, data=[39, 95]),
   midi.NoteOffEvent(tick=480, channel=2, data=[39, 95]),
   midi.NoteOnEvent(tick=0, channel=3, data=[59, 95]),
   midi.NoteOnEvent(tick=0, channel=3, data=[52, 95]),
   midi.PitchWheelEvent(tick=120, channel=3, data=[0, 63]),
   midi.PitchWheelEvent(tick=0, channel=3, data=[0, 63]),
   midi.PitchWheelEvent(tick=120, channel=3, data=[0, 62]),
   midi.PitchWheelEvent(tick=0, channel=3, data=[0, 62]),
   midi.PitchWheelEvent(tick=120, channel=3, data=[0, 60]),
   midi.PitchWheelEvent(tick=0, channel=3, data=[0, 60]),
   midi.PitchWheelEvent(tick=120, channel=3, data=[0, 59]),
   midi.PitchWheelEvent(tick=0, channel=3, data=[0, 64]),
   midi.NoteOffEvent(tick=0, channel=3, data=[59, 95]),
   midi.PitchWheelEvent(tick=0, channel=3, data=[0, 59]),
   midi.PitchWheelEvent(tick=0, channel=3, data=[0, 64]),
   midi.NoteOffEvent(tick=0, channel=3, data=[52, 95]),
   midi.NoteOnEvent(tick=0, channel=2, data=[58, 95]),
   midi.NoteOnEvent(tick=0, channel=2, data=[51, 95]),
   midi.NoteOffEvent(tick=480, channel=2, data=[58, 95]),
   midi.NoteOffEvent(tick=0, channel=2, data=[51, 95]),
   midi.NoteOnEvent(tick=0, channel=2, data=[39, 95]),
   midi.NoteOffEvent(tick=480, channel=2, data=[39, 95]),
   midi.NoteOnEvent(tick=0, channel=2, data=[39, 95]),
   midi.NoteOffEvent(tick=480, channel=2, data=[39, 95]),
   midi.NoteOnEvent(tick=0, channel=2, data=[39, 95]),
   midi.NoteOffEvent(tick=480, channel=2, data=[39, 95]),
   midi.NoteOnEvent(tick=0, channel=2, data=[39, 95]),
   midi.NoteOffEvent(tick=480, channel=2, data=[39, 95]),
   midi.NoteOnEvent(tick=0, channel=2, data=[46, 95]),
   midi.NoteOffEvent(tick=480, channel=2, data=[46, 95]),
   midi.NoteOnEvent(tick=0, channel=2, data=[47, 95]),
   midi.NoteOffEvent(tick=480, channel=2, data=[47, 95]),
   midi.NoteOnEvent(tick=0, channel=2, data=[50, 95]),
   midi.NoteOffEvent(tick=480, channel=2, data=[50, 95]),
   midi.NoteOnEvent(tick=0, channel=2, data=[49, 95]),
   midi.NoteOffEvent(tick=480, channel=2, data=[49, 95]),
   midi.NoteOnEvent(tick=0, channel=2, data=[48, 95]),
   midi.NoteOffEvent(tick=480, channel=2, data=[48, 95]),
   midi.NoteOnEvent(tick=0, channel=2, data=[47, 95]),
   midi.NoteOffEvent(tick=480, channel=2, data=[47, 95]),
   midi.NoteOnEvent(tick=0, channel=2, data=[39, 95]),
   midi.NoteOffEvent(tick=480, channel=2, data=[39, 95]),
   midi.NoteOnEvent(tick=0, channel=2, data=[39, 95]),
   midi.NoteOffEvent(tick=480, channel=2, data=[39, 95]),
   midi.NoteOnEvent(tick=0, channel=2, data=[39, 95]),
   midi.NoteOffEvent(tick=480, channel=2, data=[39, 95]),
   midi.NoteOnEvent(tick=0, channel=2, data=[39, 95]),
   midi.NoteOffEvent(tick=480, channel=2, data=[39, 95]),
   midi.NoteOnEvent(tick=0, channel=3, data=[59, 95]),
   midi.NoteOnEvent(tick=0, channel=3, data=[52, 95]),
   midi.PitchWheelEvent(tick=120, channel=3, data=[0, 63]),
   midi.PitchWheelEvent(tick=0, channel=3, data=[0, 63]),
   midi.PitchWheelEvent(tick=120, channel=3, data=[0, 62]),
   midi.PitchWheelEvent(tick=0, channel=3, data=[0, 62]),
   midi.PitchWheelEvent(tick=120, channel=3, data=[0, 60]),
   midi.PitchWheelEvent(tick=0, channel=3, data=[0, 60]),
   midi.PitchWheelEvent(tick=120, channel=3, data=[0, 59]),
   midi.PitchWheelEvent(tick=0, channel=3, data=[0, 64]),
   midi.NoteOffEvent(tick=0, channel=3, data=[59, 95]),
   midi.PitchWheelEvent(tick=0, channel=3, data=[0, 59]),
   midi.PitchWheelEvent(tick=0, channel=3, data=[0, 64]),
   midi.NoteOffEvent(tick=0, channel=3, data=[52, 95]),
   midi.NoteOnEvent(tick=0, channel=2, data=[58, 95]),
   midi.NoteOnEvent(tick=0, channel=2, data=[51, 95]),
   midi.NoteOffEvent(tick=480, channel=2, data=[58, 95]),
   midi.NoteOffEvent(tick=0, channel=2, data=[51, 95]),
   midi.NoteOnEvent(tick=0, channel=2, data=[39, 95]),
   midi.NoteOffEvent(tick=480, channel=2, data=[39, 95]),
   midi.NoteOnEvent(tick=0, channel=2, data=[39, 95]),
   midi.NoteOffEvent(tick=480, channel=2, data=[39, 95]),
   midi.NoteOnEvent(tick=0, channel=2, data=[39, 95]),
   midi.NoteOffEvent(tick=480, channel=2, data=[39, 95]),
   midi.NoteOnEvent(tick=0, channel=2, data=[39, 95]),
   midi.NoteOffEvent(tick=480, channel=2, data=[39, 95]),
   midi.NoteOnEvent(tick=0, channel=2, data=[39, 95]),
   midi.NoteOffEvent(tick=480, channel=2, data=[39, 95]),
   midi.NoteOnEvent(tick=0, channel=2, data=[39, 95]),
   midi.NoteOffEvent(tick=480, channel=2, data=[39, 95]),
   midi.NoteOnEvent(tick=0, channel=2, data=[39, 95]),
   midi.NoteOffEvent(tick=480, channel=2, data=[39, 95]),
   midi.NoteOnEvent(tick=0, channel=2, data=[39, 95]),
   midi.NoteOffEvent(tick=480, channel=2, data=[39, 95]),
   midi.NoteOnEvent(tick=0, channel=2, data=[59, 95]),
   midi.NoteOnEvent(tick=0, channel=2, data=[52, 95]),
   midi.NoteOffEvent(tick=960, channel=2, data=[59, 95]),
   midi.NoteOffEvent(tick=0, channel=2, data=[52, 95]),
   midi.NoteOnEvent(tick=0, channel=2, data=[39, 95]),
   midi.NoteOffEvent(tick=480, channel=2, data=[39, 95]),
   midi.NoteOnEvent(tick=0, channel=2, data=[39, 95]),
   midi.NoteOffEvent(tick=480, channel=2, data=[39, 95]),
   midi.NoteOnEvent(tick=0, channel=2, data=[39, 95]),
   midi.NoteOffEvent(tick=480, channel=2, data=[39, 95]),
   midi.NoteOnEvent(tick=0, channel=2, data=[39, 95]),
   midi.NoteOffEvent(tick=480, channel=2, data=[39, 95]),
   midi.NoteOnEvent(tick=0, channel=3, data=[59, 95]),
   midi.NoteOnEvent(tick=0, channel=3, data=[52, 95]),
   midi.PitchWheelEvent(tick=120, channel=3, data=[0, 63]),
   midi.PitchWheelEvent(tick=0, channel=3, data=[0, 63]),
   midi.PitchWheelEvent(tick=120, channel=3, data=[0, 62]),
   midi.PitchWheelEvent(tick=0, channel=3, data=[0, 62]),
   midi.PitchWheelEvent(tick=120, channel=3, data=[0, 60]),
   midi.PitchWheelEvent(tick=0, channel=3, data=[0, 60]),
   midi.PitchWheelEvent(tick=120, channel=3, data=[0, 59]),
   midi.PitchWheelEvent(tick=0, channel=3, data=[0, 64]),
   midi.NoteOffEvent(tick=0, channel=3, data=[59, 95]),
   midi.PitchWheelEvent(tick=0, channel=3, data=[0, 59]),
   midi.PitchWheelEvent(tick=0, channel=3, data=[0, 64]),
   midi.NoteOffEvent(tick=0, channel=3, data=[52, 95]),
   midi.NoteOnEvent(tick=0, channel=2, data=[58, 95]),
   midi.NoteOnEvent(tick=0, channel=2, data=[51, 95]),
   midi.NoteOffEvent(tick=480, channel=2, data=[58, 95]),
   midi.NoteOffEvent(tick=0, channel=2, data=[51, 95]),
   midi.NoteOnEvent(tick=0, channel=2, data=[39, 95]),
   midi.NoteOffEvent(tick=480, channel=2, data=[39, 95]),
   midi.NoteOnEvent(tick=0, channel=2, data=[39, 95]),
   midi.NoteOffEvent(tick=480, channel=2, data=[39, 95]),
   midi.NoteOnEvent(tick=0, channel=2, data=[39, 95]),
   midi.NoteOffEvent(tick=480, channel=2, data=[39, 95]),
   midi.NoteOnEvent(tick=0, channel=2, data=[39, 95]),
   midi.NoteOffEvent(tick=480, channel=2, data=[39, 95]),
   midi.NoteOnEvent(tick=0, channel=2, data=[46, 95]),
   midi.NoteOffEvent(tick=480, channel=2, data=[46, 95]),
   midi.NoteOnEvent(tick=0, channel=2, data=[47, 95]),
   midi.NoteOffEvent(tick=480, channel=2, data=[47, 95]),
   midi.NoteOnEvent(tick=0, channel=2, data=[50, 95]),
   midi.NoteOffEvent(tick=480, channel=2, data=[50, 95]),
   midi.NoteOnEvent(tick=0, channel=2, data=[49, 95]),
   midi.NoteOffEvent(tick=480, channel=2, data=[49, 95]),
   midi.NoteOnEvent(tick=0, channel=2, data=[48, 95]),
   midi.NoteOffEvent(tick=480, channel=2, data=[48, 95]),
   midi.NoteOnEvent(tick=0, channel=2, data=[47, 95]),
   midi.NoteOffEvent(tick=480, channel=2, data=[47, 95]),
   midi.NoteOnEvent(tick=0, channel=2, data=[39, 95]),
   midi.NoteOffEvent(tick=480, channel=2, data=[39, 95]),
   midi.NoteOnEvent(tick=0, channel=2, data=[39, 95]),
   midi.NoteOffEvent(tick=480, channel=2, data=[39, 95]),
   midi.NoteOnEvent(tick=0, channel=2, data=[39, 95]),
   midi.NoteOffEvent(tick=480, channel=2, data=[39, 95]),
   midi.NoteOnEvent(tick=0, channel=2, data=[39, 95]),
   midi.NoteOffEvent(tick=480, channel=2, data=[39, 95]),
   midi.NoteOnEvent(tick=0, channel=3, data=[59, 95]),
   midi.NoteOnEvent(tick=0, channel=3, data=[52, 95]),
   midi.PitchWheelEvent(tick=120, channel=3, data=[0, 63]),
   midi.PitchWheelEvent(tick=0, channel=3, data=[0, 63]),
   midi.PitchWheelEvent(tick=120, channel=3, data=[0, 62]),
   midi.PitchWheelEvent(tick=0, channel=3, data=[0, 62]),
   midi.PitchWheelEvent(tick=120, channel=3, data=[0, 60]),
   midi.PitchWheelEvent(tick=0, channel=3, data=[0, 60]),
   midi.PitchWheelEvent(tick=120, channel=3, data=[0, 59]),
   midi.PitchWheelEvent(tick=0, channel=3, data=[0, 64]),
   midi.NoteOffEvent(tick=0, channel=3, data=[59, 95]),
   midi.PitchWheelEvent(tick=0, channel=3, data=[0, 59]),
   midi.PitchWheelEvent(tick=0, channel=3, data=[0, 64]),
   midi.NoteOffEvent(tick=0, channel=3, data=[52, 95]),
   midi.NoteOnEvent(tick=0, channel=2, data=[58, 95]),
   midi.NoteOnEvent(tick=0, channel=2, data=[51, 95]),
   midi.NoteOffEvent(tick=480, channel=2, data=[58, 95]),
   midi.NoteOffEvent(tick=0, channel=2, data=[51, 95]),
   midi.NoteOnEvent(tick=0, channel=2, data=[39, 95]),
   midi.NoteOffEvent(tick=480, channel=2, data=[39, 95]),
   midi.NoteOnEvent(tick=0, channel=2, data=[39, 95]),
   midi.NoteOffEvent(tick=480, channel=2, data=[39, 95]),
   midi.NoteOnEvent(tick=0, channel=2, data=[39, 95]),
   midi.NoteOffEvent(tick=480, channel=2, data=[39, 95]),
   midi.NoteOnEvent(tick=0, channel=2, data=[39, 95]),
   midi.NoteOffEvent(tick=480, channel=2, data=[39, 95]),
   midi.NoteOnEvent(tick=0, channel=2, data=[39, 95]),
   midi.NoteOffEvent(tick=480, channel=2, data=[39, 95]),
   midi.NoteOnEvent(tick=0, channel=2, data=[39, 95]),
   midi.NoteOffEvent(tick=480, channel=2, data=[39, 95]),
   midi.NoteOnEvent(tick=0, channel=2, data=[39, 95]),
   midi.NoteOffEvent(tick=480, channel=2, data=[39, 95]),
   midi.NoteOnEvent(tick=0, channel=2, data=[39, 95]),
   midi.NoteOffEvent(tick=480, channel=2, data=[39, 95]),
   midi.NoteOnEvent(tick=0, channel=2, data=[59, 95]),
   midi.NoteOnEvent(tick=0, channel=2, data=[52, 95]),
   midi.NoteOffEvent(tick=960, channel=2, data=[59, 95]),
   midi.NoteOffEvent(tick=0, channel=2, data=[52, 95]),
   midi.NoteOnEvent(tick=0, channel=2, data=[39, 95]),
   midi.NoteOffEvent(tick=480, channel=2, data=[39, 95]),
   midi.NoteOnEvent(tick=0, channel=2, data=[39, 95]),
   midi.NoteOffEvent(tick=480, channel=2, data=[39, 95]),
   midi.NoteOnEvent(tick=0, channel=2, data=[39, 95]),
   midi.NoteOffEvent(tick=480, channel=2, data=[39, 95]),
   midi.NoteOnEvent(tick=0, channel=2, data=[39, 95]),
   midi.NoteOffEvent(tick=480, channel=2, data=[39, 95]),
   midi.NoteOnEvent(tick=0, channel=3, data=[59, 95]),
   midi.NoteOnEvent(tick=0, channel=3, data=[52, 95]),
   midi.PitchWheelEvent(tick=120, channel=3, data=[0, 63]),
   midi.PitchWheelEvent(tick=0, channel=3, data=[0, 63]),
   midi.PitchWheelEvent(tick=120, channel=3, data=[0, 62]),
   midi.PitchWheelEvent(tick=0, channel=3, data=[0, 62]),
   midi.PitchWheelEvent(tick=120, channel=3, data=[0, 60]),
   midi.PitchWheelEvent(tick=0, channel=3, data=[0, 60]),
   midi.PitchWheelEvent(tick=120, channel=3, data=[0, 59]),
   midi.PitchWheelEvent(tick=0, channel=3, data=[0, 64]),
   midi.NoteOffEvent(tick=0, channel=3, data=[59, 95]),
   midi.PitchWheelEvent(tick=0, channel=3, data=[0, 59]),
   midi.PitchWheelEvent(tick=0, channel=3, data=[0, 64]),
   midi.NoteOffEvent(tick=0, channel=3, data=[52, 95]),
   midi.NoteOnEvent(tick=0, channel=2, data=[58, 95]),
   midi.NoteOnEvent(tick=0, channel=2, data=[51, 95]),
   midi.NoteOffEvent(tick=480, channel=2, data=[58, 95]),
   midi.NoteOffEvent(tick=0, channel=2, data=[51, 95]),
   midi.NoteOnEvent(tick=0, channel=2, data=[39, 95]),
   midi.NoteOffEvent(tick=480, channel=2, data=[39, 95]),
   midi.NoteOnEvent(tick=0, channel=2, data=[39, 95]),
   midi.NoteOffEvent(tick=480, channel=2, data=[39, 95]),
   midi.NoteOnEvent(tick=0, channel=2, data=[39, 95]),
   midi.NoteOffEvent(tick=480, channel=2, data=[39, 95]),
   midi.NoteOnEvent(tick=0, channel=2, data=[39, 95]),
   midi.NoteOffEvent(tick=480, channel=2, data=[39, 95]),
   midi.NoteOnEvent(tick=0, channel=2, data=[46, 95]),
   midi.NoteOffEvent(tick=480, channel=2, data=[46, 95]),
   midi.NoteOnEvent(tick=0, channel=2, data=[47, 95]),
   midi.NoteOffEvent(tick=480, channel=2, data=[47, 95]),
   midi.NoteOnEvent(tick=0, channel=2, data=[50, 95]),
   midi.NoteOffEvent(tick=480, channel=2, data=[50, 95]),
   midi.NoteOnEvent(tick=0, channel=2, data=[49, 95]),
   midi.NoteOffEvent(tick=480, channel=2, data=[49, 95]),
   midi.NoteOnEvent(tick=0, channel=2, data=[48, 95]),
   midi.NoteOffEvent(tick=480, channel=2, data=[48, 95]),
   midi.NoteOnEvent(tick=0, channel=2, data=[47, 95]),
   midi.NoteOffEvent(tick=480, channel=2, data=[47, 95]),
   midi.NoteOnEvent(tick=0, channel=2, data=[39, 95]),
   midi.NoteOffEvent(tick=480, channel=2, data=[39, 95]),
   midi.NoteOnEvent(tick=0, channel=2, data=[39, 95]),
   midi.NoteOffEvent(tick=480, channel=2, data=[39, 95]),
   midi.NoteOnEvent(tick=0, channel=2, data=[39, 95]),
   midi.NoteOffEvent(tick=480, channel=2, data=[39, 95]),
   midi.NoteOnEvent(tick=0, channel=2, data=[39, 95]),
   midi.NoteOffEvent(tick=480, channel=2, data=[39, 95]),
   midi.NoteOnEvent(tick=0, channel=3, data=[52, 95]),
   midi.NoteOnEvent(tick=0, channel=3, data=[45, 95]),
   midi.PitchWheelEvent(tick=120, channel=3, data=[0, 63]),
   midi.PitchWheelEvent(tick=0, channel=3, data=[0, 63]),
   midi.PitchWheelEvent(tick=120, channel=3, data=[0, 62]),
   midi.PitchWheelEvent(tick=0, channel=3, data=[0, 62]),
   midi.PitchWheelEvent(tick=120, channel=3, data=[0, 60]),
   midi.PitchWheelEvent(tick=0, channel=3, data=[0, 60]),
   midi.PitchWheelEvent(tick=120, channel=3, data=[0, 59]),
   midi.PitchWheelEvent(tick=0, channel=3, data=[0, 64]),
   midi.NoteOffEvent(tick=0, channel=3, data=[52, 95]),
   midi.PitchWheelEvent(tick=0, channel=3, data=[0, 59]),
   midi.PitchWheelEvent(tick=0, channel=3, data=[0, 64]),
   midi.NoteOffEvent(tick=0, channel=3, data=[45, 95]),
   midi.NoteOnEvent(tick=0, channel=2, data=[51, 95]),
   midi.NoteOnEvent(tick=0, channel=2, data=[44, 95]),
   midi.NoteOffEvent(tick=480, channel=2, data=[51, 95]),
   midi.NoteOffEvent(tick=0, channel=2, data=[44, 95]),
   midi.NoteOnEvent(tick=0, channel=2, data=[39, 95]),
   midi.NoteOffEvent(tick=480, channel=2, data=[39, 95]),
   midi.NoteOnEvent(tick=0, channel=2, data=[39, 95]),
   midi.NoteOffEvent(tick=480, channel=2, data=[39, 95]),
   midi.NoteOnEvent(tick=0, channel=2, data=[39, 95]),
   midi.NoteOffEvent(tick=480, channel=2, data=[39, 95]),
   midi.NoteOnEvent(tick=0, channel=2, data=[39, 95]),
   midi.NoteOffEvent(tick=480, channel=2, data=[39, 95]),
   midi.NoteOnEvent(tick=0, channel=2, data=[39, 95]),
   midi.NoteOffEvent(tick=480, channel=2, data=[39, 95]),
   midi.NoteOnEvent(tick=0, channel=2, data=[39, 95]),
   midi.NoteOffEvent(tick=480, channel=2, data=[39, 95]),
   midi.NoteOnEvent(tick=0, channel=2, data=[39, 95]),
   midi.NoteOffEvent(tick=480, channel=2, data=[39, 95]),
   midi.NoteOnEvent(tick=0, channel=2, data=[39, 95]),
   midi.NoteOffEvent(tick=480, channel=2, data=[39, 95]),
   midi.NoteOnEvent(tick=0, channel=2, data=[52, 95]),
   midi.NoteOnEvent(tick=0, channel=2, data=[45, 95]),
   midi.NoteOffEvent(tick=960, channel=2, data=[52, 95]),
   midi.NoteOffEvent(tick=0, channel=2, data=[45, 95]),
   midi.NoteOnEvent(tick=0, channel=2, data=[39, 95]),
   midi.NoteOffEvent(tick=480, channel=2, data=[39, 95]),
   midi.NoteOnEvent(tick=0, channel=2, data=[39, 95]),
   midi.NoteOffEvent(tick=480, channel=2, data=[39, 95]),
   midi.NoteOnEvent(tick=0, channel=2, data=[39, 95]),
   midi.NoteOffEvent(tick=480, channel=2, data=[39, 95]),
   midi.NoteOnEvent(tick=0, channel=2, data=[39, 95]),
   midi.NoteOffEvent(tick=480, channel=2, data=[39, 95]),
   midi.NoteOnEvent(tick=0, channel=2, data=[45, 95]),
   midi.NoteOffEvent(tick=480, channel=2, data=[45, 95]),
   midi.NoteOnEvent(tick=0, channel=2, data=[44, 95]),
   midi.NoteOffEvent(tick=480, channel=2, data=[44, 95]),
   midi.NoteOnEvent(tick=0, channel=2, data=[39, 95]),
   midi.NoteOffEvent(tick=480, channel=2, data=[39, 95]),
   midi.NoteOnEvent(tick=0, channel=2, data=[39, 95]),
   midi.NoteOffEvent(tick=480, channel=2, data=[39, 95]),
   midi.NoteOnEvent(tick=0, channel=2, data=[39, 95]),
   midi.NoteOffEvent(tick=480, channel=2, data=[39, 95]),
   midi.NoteOnEvent(tick=0, channel=2, data=[39, 95]),
   midi.NoteOffEvent(tick=480, channel=2, data=[39, 95]),
   midi.NoteOnEvent(tick=0, channel=2, data=[40, 95]),
   midi.NoteOffEvent(tick=480, channel=2, data=[40, 95]),
   midi.NoteOnEvent(tick=0, channel=2, data=[43, 95]),
   midi.NoteOffEvent(tick=480, channel=2, data=[43, 95]),
   midi.NoteOnEvent(tick=0, channel=2, data=[42, 95]),
   midi.NoteOffEvent(tick=480, channel=2, data=[42, 95]),
   midi.NoteOnEvent(tick=0, channel=2, data=[41, 95]),
   midi.NoteOffEvent(tick=480, channel=2, data=[41, 95]),
   midi.NoteOnEvent(tick=0, channel=2, data=[40, 95]),
   midi.NoteOffEvent(tick=480, channel=2, data=[40, 95]),
   midi.NoteOnEvent(tick=0, channel=2, data=[39, 95]),
   midi.NoteOffEvent(tick=480, channel=2, data=[39, 95]),
   midi.NoteOnEvent(tick=0, channel=2, data=[39, 95]),
   midi.NoteOffEvent(tick=480, channel=2, data=[39, 95]),
   midi.NoteOnEvent(tick=0, channel=2, data=[39, 95]),
   midi.NoteOffEvent(tick=480, channel=2, data=[39, 95]),
   midi.NoteOnEvent(tick=0, channel=2, data=[39, 95]),
   midi.NoteOffEvent(tick=480, channel=2, data=[39, 95]),
   midi.NoteOnEvent(tick=0, channel=2, data=[39, 95]),
   midi.NoteOffEvent(tick=480, channel=2, data=[39, 95]),
   midi.NoteOnEvent(tick=0, channel=3, data=[52, 95]),
   midi.NoteOnEvent(tick=0, channel=3, data=[45, 95]),
   midi.PitchWheelEvent(tick=120, channel=3, data=[0, 63]),
   midi.PitchWheelEvent(tick=0, channel=3, data=[0, 63]),
   midi.PitchWheelEvent(tick=120, channel=3, data=[0, 62]),
   midi.PitchWheelEvent(tick=0, channel=3, data=[0, 62]),
   midi.PitchWheelEvent(tick=120, channel=3, data=[0, 60]),
   midi.PitchWheelEvent(tick=0, channel=3, data=[0, 60]),
   midi.PitchWheelEvent(tick=120, channel=3, data=[0, 59]),
   midi.PitchWheelEvent(tick=0, channel=3, data=[0, 64]),
   midi.NoteOffEvent(tick=0, channel=3, data=[52, 95]),
   midi.PitchWheelEvent(tick=0, channel=3, data=[0, 59]),
   midi.PitchWheelEvent(tick=0, channel=3, data=[0, 64]),
   midi.NoteOffEvent(tick=0, channel=3, data=[45, 95]),
   midi.NoteOnEvent(tick=0, channel=2, data=[51, 95]),
   midi.NoteOnEvent(tick=0, channel=2, data=[44, 95]),
   midi.NoteOffEvent(tick=480, channel=2, data=[51, 95]),
   midi.NoteOffEvent(tick=0, channel=2, data=[44, 95]),
   midi.NoteOnEvent(tick=0, channel=2, data=[39, 95]),
   midi.NoteOffEvent(tick=480, channel=2, data=[39, 95]),
   midi.NoteOnEvent(tick=0, channel=2, data=[39, 95]),
   midi.NoteOffEvent(tick=480, channel=2, data=[39, 95]),
   midi.NoteOnEvent(tick=0, channel=2, data=[39, 95]),
   midi.NoteOffEvent(tick=480, channel=2, data=[39, 95]),
   midi.NoteOnEvent(tick=0, channel=2, data=[39, 95]),
   midi.NoteOffEvent(tick=480, channel=2, data=[39, 95]),
   midi.NoteOnEvent(tick=0, channel=2, data=[39, 95]),
   midi.NoteOffEvent(tick=480, channel=2, data=[39, 95]),
   midi.NoteOnEvent(tick=0, channel=2, data=[39, 95]),
   midi.NoteOffEvent(tick=480, channel=2, data=[39, 95]),
   midi.NoteOnEvent(tick=0, channel=2, data=[39, 95]),
   midi.NoteOffEvent(tick=480, channel=2, data=[39, 95]),
   midi.NoteOnEvent(tick=0, channel=2, data=[39, 95]),
   midi.NoteOffEvent(tick=480, channel=2, data=[39, 95]),
   midi.NoteOnEvent(tick=0, channel=2, data=[52, 95]),
   midi.NoteOnEvent(tick=0, channel=2, data=[45, 95]),
   midi.NoteOffEvent(tick=960, channel=2, data=[52, 95]),
   midi.NoteOffEvent(tick=0, channel=2, data=[45, 95]),
   midi.NoteOnEvent(tick=0, channel=2, data=[39, 95]),
   midi.NoteOffEvent(tick=480, channel=2, data=[39, 95]),
   midi.NoteOnEvent(tick=0, channel=2, data=[39, 95]),
   midi.NoteOffEvent(tick=480, channel=2, data=[39, 95]),
   midi.NoteOnEvent(tick=0, channel=2, data=[39, 95]),
   midi.NoteOffEvent(tick=480, channel=2, data=[39, 95]),
   midi.NoteOnEvent(tick=0, channel=2, data=[39, 95]),
   midi.NoteOffEvent(tick=480, channel=2, data=[39, 95]),
   midi.NoteOnEvent(tick=0, channel=2, data=[45, 95]),
   midi.NoteOffEvent(tick=480, channel=2, data=[45, 95]),
   midi.NoteOnEvent(tick=0, channel=2, data=[44, 95]),
   midi.NoteOffEvent(tick=480, channel=2, data=[44, 95]),
   midi.NoteOnEvent(tick=0, channel=2, data=[39, 95]),
   midi.NoteOffEvent(tick=480, channel=2, data=[39, 95]),
   midi.NoteOnEvent(tick=0, channel=2, data=[39, 95]),
   midi.NoteOffEvent(tick=480, channel=2, data=[39, 95]),
   midi.NoteOnEvent(tick=0, channel=2, data=[39, 95]),
   midi.NoteOffEvent(tick=480, channel=2, data=[39, 95]),
   midi.NoteOnEvent(tick=0, channel=2, data=[39, 95]),
   midi.NoteOffEvent(tick=480, channel=2, data=[39, 95]),
   midi.NoteOnEvent(tick=0, channel=2, data=[40, 95]),
   midi.NoteOffEvent(tick=480, channel=2, data=[40, 95]),
   midi.NoteOnEvent(tick=0, channel=2, data=[43, 95]),
   midi.NoteOffEvent(tick=480, channel=2, data=[43, 95]),
   midi.NoteOnEvent(tick=0, channel=2, data=[42, 95]),
   midi.NoteOffEvent(tick=480, channel=2, data=[42, 95]),
   midi.NoteOnEvent(tick=0, channel=2, data=[41, 95]),
   midi.NoteOffEvent(tick=480, channel=2, data=[41, 95]),
   midi.NoteOnEvent(tick=0, channel=2, data=[40, 95]),
   midi.NoteOffEvent(tick=480, channel=2, data=[40, 95]),
   midi.NoteOnEvent(tick=0, channel=2, data=[39, 95]),
   midi.NoteOffEvent(tick=480, channel=2, data=[39, 95]),
   midi.NoteOnEvent(tick=0, channel=2, data=[39, 95]),
   midi.NoteOffEvent(tick=480, channel=2, data=[39, 95]),
   midi.NoteOnEvent(tick=0, channel=2, data=[39, 95]),
   midi.NoteOffEvent(tick=480, channel=2, data=[39, 95]),
   midi.NoteOnEvent(tick=0, channel=2, data=[39, 95]),
   midi.NoteOffEvent(tick=480, channel=2, data=[39, 95]),
   midi.NoteOnEvent(tick=0, channel=2, data=[39, 95]),
   midi.NoteOffEvent(tick=480, channel=2, data=[39, 95]),
   midi.NoteOnEvent(tick=0, channel=3, data=[56, 95]),
   midi.NoteOnEvent(tick=0, channel=3, data=[49, 95]),
   midi.PitchWheelEvent(tick=120, channel=3, data=[0, 63]),
   midi.PitchWheelEvent(tick=0, channel=3, data=[0, 63]),
   midi.PitchWheelEvent(tick=120, channel=3, data=[0, 62]),
   midi.PitchWheelEvent(tick=0, channel=3, data=[0, 62]),
   midi.PitchWheelEvent(tick=120, channel=3, data=[0, 60]),
   midi.PitchWheelEvent(tick=0, channel=3, data=[0, 60]),
   midi.PitchWheelEvent(tick=120, channel=3, data=[0, 59]),
   midi.PitchWheelEvent(tick=0, channel=3, data=[0, 64]),
   midi.NoteOffEvent(tick=0, channel=3, data=[56, 95]),
   midi.PitchWheelEvent(tick=0, channel=3, data=[0, 59]),
   midi.PitchWheelEvent(tick=0, channel=3, data=[0, 64]),
   midi.NoteOffEvent(tick=0, channel=3, data=[49, 95]),
   midi.NoteOnEvent(tick=0, channel=2, data=[55, 95]),
   midi.NoteOnEvent(tick=0, channel=2, data=[48, 95]),
   midi.NoteOffEvent(tick=480, channel=2, data=[55, 95]),
   midi.NoteOffEvent(tick=0, channel=2, data=[48, 95]),
   midi.NoteOnEvent(tick=0, channel=2, data=[39, 95]),
   midi.NoteOffEvent(tick=480, channel=2, data=[39, 95]),
   midi.NoteOnEvent(tick=0, channel=2, data=[39, 95]),
   midi.NoteOffEvent(tick=480, channel=2, data=[39, 95]),
   midi.NoteOnEvent(tick=0, channel=2, data=[39, 95]),
   midi.NoteOffEvent(tick=480, channel=2, data=[39, 95]),
   midi.NoteOnEvent(tick=0, channel=2, data=[39, 95]),
   midi.NoteOffEvent(tick=480, channel=2, data=[39, 95]),
   midi.NoteOnEvent(tick=0, channel=2, data=[39, 95]),
   midi.NoteOffEvent(tick=480, channel=2, data=[39, 95]),
   midi.NoteOnEvent(tick=0, channel=2, data=[39, 95]),
   midi.NoteOffEvent(tick=480, channel=2, data=[39, 95]),
   midi.NoteOnEvent(tick=0, channel=2, data=[39, 95]),
   midi.NoteOffEvent(tick=480, channel=2, data=[39, 95]),
   midi.NoteOnEvent(tick=0, channel=2, data=[39, 95]),
   midi.NoteOffEvent(tick=480, channel=2, data=[39, 95]),
   midi.NoteOnEvent(tick=0, channel=2, data=[56, 95]),
   midi.NoteOnEvent(tick=0, channel=2, data=[49, 95]),
   midi.NoteOffEvent(tick=960, channel=2, data=[56, 95]),
   midi.NoteOffEvent(tick=0, channel=2, data=[49, 95]),
   midi.NoteOnEvent(tick=0, channel=2, data=[39, 95]),
   midi.NoteOffEvent(tick=480, channel=2, data=[39, 95]),
   midi.NoteOnEvent(tick=0, channel=2, data=[39, 95]),
   midi.NoteOffEvent(tick=480, channel=2, data=[39, 95]),
   midi.NoteOnEvent(tick=0, channel=2, data=[39, 95]),
   midi.NoteOffEvent(tick=480, channel=2, data=[39, 95]),
   midi.NoteOnEvent(tick=0, channel=2, data=[39, 95]),
   midi.NoteOffEvent(tick=480, channel=2, data=[39, 95]),
   midi.NoteOnEvent(tick=0, channel=3, data=[56, 95]),
   midi.NoteOnEvent(tick=0, channel=3, data=[49, 95]),
   midi.PitchWheelEvent(tick=120, channel=3, data=[0, 63]),
   midi.PitchWheelEvent(tick=0, channel=3, data=[0, 63]),
   midi.PitchWheelEvent(tick=120, channel=3, data=[0, 62]),
   midi.PitchWheelEvent(tick=0, channel=3, data=[0, 62]),
   midi.PitchWheelEvent(tick=120, channel=3, data=[0, 60]),
   midi.PitchWheelEvent(tick=0, channel=3, data=[0, 60]),
   midi.PitchWheelEvent(tick=120, channel=3, data=[0, 59]),
   midi.PitchWheelEvent(tick=0, channel=3, data=[0, 64]),
   midi.NoteOffEvent(tick=0, channel=3, data=[56, 95]),
   midi.PitchWheelEvent(tick=0, channel=3, data=[0, 59]),
   midi.PitchWheelEvent(tick=0, channel=3, data=[0, 64]),
   midi.NoteOffEvent(tick=0, channel=3, data=[49, 95]),
   midi.NoteOnEvent(tick=0, channel=2, data=[55, 95]),
   midi.NoteOnEvent(tick=0, channel=2, data=[48, 95]),
   midi.NoteOffEvent(tick=480, channel=2, data=[55, 95]),
   midi.NoteOffEvent(tick=0, channel=2, data=[48, 95]),
   midi.NoteOnEvent(tick=0, channel=2, data=[39, 95]),
   midi.NoteOffEvent(tick=480, channel=2, data=[39, 95]),
   midi.NoteOnEvent(tick=0, channel=2, data=[39, 95]),
   midi.NoteOffEvent(tick=480, channel=2, data=[39, 95]),
   midi.NoteOnEvent(tick=0, channel=2, data=[39, 95]),
   midi.NoteOffEvent(tick=480, channel=2, data=[39, 95]),
   midi.NoteOnEvent(tick=0, channel=2, data=[39, 95]),
   midi.NoteOffEvent(tick=480, channel=2, data=[39, 95]),
   midi.NoteOnEvent(tick=0, channel=2, data=[43, 95]),
   midi.NoteOffEvent(tick=480, channel=2, data=[43, 95]),
   midi.NoteOnEvent(tick=0, channel=2, data=[44, 95]),
   midi.NoteOffEvent(tick=480, channel=2, data=[44, 95]),
   midi.NoteOnEvent(tick=0, channel=2, data=[47, 95]),
   midi.NoteOffEvent(tick=480, channel=2, data=[47, 95]),
   midi.NoteOnEvent(tick=0, channel=2, data=[46, 95]),
   midi.NoteOffEvent(tick=480, channel=2, data=[46, 95]),
   midi.NoteOnEvent(tick=0, channel=2, data=[45, 95]),
   midi.NoteOffEvent(tick=480, channel=2, data=[45, 95]),
   midi.NoteOnEvent(tick=0, channel=2, data=[44, 95]),
   midi.NoteOffEvent(tick=480, channel=2, data=[44, 95]),
   midi.NoteOnEvent(tick=0, channel=2, data=[39, 95]),
   midi.NoteOffEvent(tick=480, channel=2, data=[39, 95]),
   midi.NoteOnEvent(tick=0, channel=2, data=[39, 95]),
   midi.NoteOffEvent(tick=480, channel=2, data=[39, 95]),
   midi.NoteOnEvent(tick=0, channel=2, data=[39, 95]),
   midi.NoteOffEvent(tick=480, channel=2, data=[39, 95]),
   midi.NoteOnEvent(tick=0, channel=2, data=[39, 95]),
   midi.NoteOffEvent(tick=480, channel=2, data=[39, 95]),
   midi.NoteOnEvent(tick=0, channel=3, data=[56, 95]),
   midi.NoteOnEvent(tick=0, channel=3, data=[49, 95]),
   midi.PitchWheelEvent(tick=120, channel=3, data=[0, 63]),
   midi.PitchWheelEvent(tick=0, channel=3, data=[0, 63]),
   midi.PitchWheelEvent(tick=120, channel=3, data=[0, 62]),
   midi.PitchWheelEvent(tick=0, channel=3, data=[0, 62]),
   midi.PitchWheelEvent(tick=120, channel=3, data=[0, 60]),
   midi.PitchWheelEvent(tick=0, channel=3, data=[0, 60]),
   midi.PitchWheelEvent(tick=120, channel=3, data=[0, 59]),
   midi.PitchWheelEvent(tick=0, channel=3, data=[0, 64]),
   midi.NoteOffEvent(tick=0, channel=3, data=[56, 95]),
   midi.PitchWheelEvent(tick=0, channel=3, data=[0, 59]),
   midi.PitchWheelEvent(tick=0, channel=3, data=[0, 64]),
   midi.NoteOffEvent(tick=0, channel=3, data=[49, 95]),
   midi.NoteOnEvent(tick=0, channel=2, data=[55, 95]),
   midi.NoteOnEvent(tick=0, channel=2, data=[48, 95]),
   midi.NoteOffEvent(tick=480, channel=2, data=[55, 95]),
   midi.NoteOffEvent(tick=0, channel=2, data=[48, 95]),
   midi.NoteOnEvent(tick=0, channel=2, data=[39, 95]),
   midi.NoteOffEvent(tick=480, channel=2, data=[39, 95]),
   midi.NoteOnEvent(tick=0, channel=2, data=[39, 95]),
   midi.NoteOffEvent(tick=480, channel=2, data=[39, 95]),
   midi.NoteOnEvent(tick=0, channel=2, data=[39, 95]),
   midi.NoteOffEvent(tick=480, channel=2, data=[39, 95]),
   midi.NoteOnEvent(tick=0, channel=2, data=[39, 95]),
   midi.NoteOffEvent(tick=480, channel=2, data=[39, 95]),
   midi.NoteOnEvent(tick=0, channel=2, data=[39, 95]),
   midi.NoteOffEvent(tick=480, channel=2, data=[39, 95]),
   midi.NoteOnEvent(tick=0, channel=2, data=[39, 95]),
   midi.NoteOffEvent(tick=480, channel=2, data=[39, 95]),
   midi.NoteOnEvent(tick=0, channel=2, data=[39, 95]),
   midi.NoteOffEvent(tick=480, channel=2, data=[39, 95]),
   midi.NoteOnEvent(tick=0, channel=2, data=[39, 95]),
   midi.NoteOffEvent(tick=480, channel=2, data=[39, 95]),
   midi.NoteOnEvent(tick=0, channel=2, data=[56, 95]),
   midi.NoteOnEvent(tick=0, channel=2, data=[49, 95]),
   midi.NoteOffEvent(tick=960, channel=2, data=[56, 95]),
   midi.NoteOffEvent(tick=0, channel=2, data=[49, 95]),
   midi.NoteOnEvent(tick=0, channel=2, data=[39, 95]),
   midi.NoteOffEvent(tick=480, channel=2, data=[39, 95]),
   midi.NoteOnEvent(tick=0, channel=2, data=[39, 95]),
   midi.NoteOffEvent(tick=480, channel=2, data=[39, 95]),
   midi.NoteOnEvent(tick=0, channel=2, data=[39, 95]),
   midi.NoteOffEvent(tick=480, channel=2, data=[39, 95]),
   midi.NoteOnEvent(tick=0, channel=2, data=[39, 95]),
   midi.NoteOffEvent(tick=480, channel=2, data=[39, 95]),
   midi.NoteOnEvent(tick=0, channel=3, data=[56, 95]),
   midi.NoteOnEvent(tick=0, channel=3, data=[49, 95]),
   midi.PitchWheelEvent(tick=120, channel=3, data=[0, 63]),
   midi.PitchWheelEvent(tick=0, channel=3, data=[0, 63]),
   midi.PitchWheelEvent(tick=120, channel=3, data=[0, 62]),
   midi.PitchWheelEvent(tick=0, channel=3, data=[0, 62]),
   midi.PitchWheelEvent(tick=120, channel=3, data=[0, 60]),
   midi.PitchWheelEvent(tick=0, channel=3, data=[0, 60]),
   midi.PitchWheelEvent(tick=120, channel=3, data=[0, 59]),
   midi.PitchWheelEvent(tick=0, channel=3, data=[0, 64]),
   midi.NoteOffEvent(tick=0, channel=3, data=[56, 95]),
   midi.PitchWheelEvent(tick=0, channel=3, data=[0, 59]),
   midi.PitchWheelEvent(tick=0, channel=3, data=[0, 64]),
   midi.NoteOffEvent(tick=0, channel=3, data=[49, 95]),
   midi.NoteOnEvent(tick=0, channel=2, data=[55, 95]),
   midi.NoteOnEvent(tick=0, channel=2, data=[48, 95]),
   midi.NoteOffEvent(tick=480, channel=2, data=[55, 95]),
   midi.NoteOffEvent(tick=0, channel=2, data=[48, 95]),
   midi.NoteOnEvent(tick=0, channel=2, data=[39, 95]),
   midi.NoteOffEvent(tick=480, channel=2, data=[39, 95]),
   midi.NoteOnEvent(tick=0, channel=2, data=[39, 95]),
   midi.NoteOffEvent(tick=480, channel=2, data=[39, 95]),
   midi.NoteOnEvent(tick=0, channel=2, data=[39, 95]),
   midi.NoteOffEvent(tick=480, channel=2, data=[39, 95]),
   midi.NoteOnEvent(tick=0, channel=2, data=[39, 95]),
   midi.NoteOffEvent(tick=480, channel=2, data=[39, 95]),
   midi.NoteOnEvent(tick=0, channel=2, data=[43, 95]),
   midi.NoteOffEvent(tick=480, channel=2, data=[43, 95]),
   midi.NoteOnEvent(tick=0, channel=2, data=[44, 95]),
   midi.NoteOffEvent(tick=480, channel=2, data=[44, 95]),
   midi.NoteOnEvent(tick=0, channel=2, data=[47, 95]),
   midi.NoteOffEvent(tick=480, channel=2, data=[47, 95]),
   midi.NoteOnEvent(tick=0, channel=2, data=[46, 95]),
   midi.NoteOffEvent(tick=480, channel=2, data=[46, 95]),
   midi.NoteOnEvent(tick=0, channel=2, data=[45, 95]),
   midi.NoteOffEvent(tick=480, channel=2, data=[45, 95]),
   midi.NoteOnEvent(tick=0, channel=2, data=[44, 95]),
   midi.NoteOffEvent(tick=480, channel=2, data=[44, 95]),
   midi.NoteOnEvent(tick=0, channel=2, data=[39, 95]),
   midi.NoteOffEvent(tick=480, channel=2, data=[39, 95]),
   midi.NoteOnEvent(tick=0, channel=2, data=[39, 95]),
   midi.NoteOffEvent(tick=480, channel=2, data=[39, 95]),
   midi.NoteOnEvent(tick=0, channel=2, data=[39, 95]),
   midi.NoteOffEvent(tick=480, channel=2, data=[39, 95]),
   midi.NoteOnEvent(tick=0, channel=2, data=[39, 95]),
   midi.NoteOffEvent(tick=480, channel=2, data=[39, 95]),
   midi.NoteOnEvent(tick=0, channel=3, data=[56, 95]),
   midi.NoteOnEvent(tick=0, channel=3, data=[49, 95]),
   midi.PitchWheelEvent(tick=120, channel=3, data=[0, 63]),
   midi.PitchWheelEvent(tick=0, channel=3, data=[0, 63]),
   midi.PitchWheelEvent(tick=120, channel=3, data=[0, 62]),
   midi.PitchWheelEvent(tick=0, channel=3, data=[0, 62]),
   midi.PitchWheelEvent(tick=120, channel=3, data=[0, 60]),
   midi.PitchWheelEvent(tick=0, channel=3, data=[0, 60]),
   midi.PitchWheelEvent(tick=120, channel=3, data=[0, 59]),
   midi.PitchWheelEvent(tick=0, channel=3, data=[0, 64]),
   midi.NoteOffEvent(tick=0, channel=3, data=[56, 95]),
   midi.PitchWheelEvent(tick=0, channel=3, data=[0, 59]),
   midi.PitchWheelEvent(tick=0, channel=3, data=[0, 64]),
   midi.NoteOffEvent(tick=0, channel=3, data=[49, 95]),
   midi.NoteOnEvent(tick=0, channel=2, data=[55, 95]),
   midi.NoteOnEvent(tick=0, channel=2, data=[48, 95]),
   midi.NoteOffEvent(tick=480, channel=2, data=[55, 95]),
   midi.NoteOffEvent(tick=0, channel=2, data=[48, 95]),
   midi.NoteOnEvent(tick=0, channel=2, data=[39, 95]),
   midi.NoteOffEvent(tick=480, channel=2, data=[39, 95]),
   midi.NoteOnEvent(tick=0, channel=2, data=[39, 95]),
   midi.NoteOffEvent(tick=480, channel=2, data=[39, 95]),
   midi.NoteOnEvent(tick=0, channel=2, data=[39, 95]),
   midi.NoteOffEvent(tick=480, channel=2, data=[39, 95]),
   midi.NoteOnEvent(tick=0, channel=2, data=[39, 95]),
   midi.NoteOffEvent(tick=480, channel=2, data=[39, 95]),
   midi.NoteOnEvent(tick=0, channel=2, data=[39, 95]),
   midi.NoteOffEvent(tick=480, channel=2, data=[39, 95]),
   midi.NoteOnEvent(tick=0, channel=2, data=[39, 95]),
   midi.NoteOffEvent(tick=480, channel=2, data=[39, 95]),
   midi.NoteOnEvent(tick=0, channel=2, data=[39, 95]),
   midi.NoteOffEvent(tick=480, channel=2, data=[39, 95]),
   midi.NoteOnEvent(tick=0, channel=2, data=[39, 95]),
   midi.NoteOffEvent(tick=480, channel=2, data=[39, 95]),
   midi.NoteOnEvent(tick=0, channel=2, data=[56, 95]),
   midi.NoteOnEvent(tick=0, channel=2, data=[49, 95]),
   midi.NoteOffEvent(tick=960, channel=2, data=[56, 95]),
   midi.NoteOffEvent(tick=0, channel=2, data=[49, 95]),
   midi.NoteOnEvent(tick=0, channel=2, data=[39, 95]),
   midi.NoteOffEvent(tick=480, channel=2, data=[39, 95]),
   midi.NoteOnEvent(tick=0, channel=2, data=[39, 95]),
   midi.NoteOffEvent(tick=480, channel=2, data=[39, 95]),
   midi.NoteOnEvent(tick=0, channel=2, data=[39, 95]),
   midi.NoteOffEvent(tick=480, channel=2, data=[39, 95]),
   midi.NoteOnEvent(tick=0, channel=2, data=[39, 95]),
   midi.NoteOffEvent(tick=480, channel=2, data=[39, 95]),
   midi.NoteOnEvent(tick=0, channel=3, data=[56, 95]),
   midi.NoteOnEvent(tick=0, channel=3, data=[49, 95]),
   midi.PitchWheelEvent(tick=120, channel=3, data=[0, 63]),
   midi.PitchWheelEvent(tick=0, channel=3, data=[0, 63]),
   midi.PitchWheelEvent(tick=120, channel=3, data=[0, 62]),
   midi.PitchWheelEvent(tick=0, channel=3, data=[0, 62]),
   midi.PitchWheelEvent(tick=120, channel=3, data=[0, 60]),
   midi.PitchWheelEvent(tick=0, channel=3, data=[0, 60]),
   midi.PitchWheelEvent(tick=120, channel=3, data=[0, 59]),
   midi.PitchWheelEvent(tick=0, channel=3, data=[0, 64]),
   midi.NoteOffEvent(tick=0, channel=3, data=[56, 95]),
   midi.PitchWheelEvent(tick=0, channel=3, data=[0, 59]),
   midi.PitchWheelEvent(tick=0, channel=3, data=[0, 64]),
   midi.NoteOffEvent(tick=0, channel=3, data=[49, 95]),
   midi.NoteOnEvent(tick=0, channel=2, data=[55, 95]),
   midi.NoteOnEvent(tick=0, channel=2, data=[48, 95]),
   midi.NoteOffEvent(tick=480, channel=2, data=[55, 95]),
   midi.NoteOffEvent(tick=0, channel=2, data=[48, 95]),
   midi.NoteOnEvent(tick=0, channel=2, data=[39, 95]),
   midi.NoteOffEvent(tick=480, channel=2, data=[39, 95]),
   midi.NoteOnEvent(tick=0, channel=2, data=[39, 95]),
   midi.NoteOffEvent(tick=480, channel=2, data=[39, 95]),
   midi.NoteOnEvent(tick=0, channel=2, data=[39, 95]),
   midi.NoteOffEvent(tick=480, channel=2, data=[39, 95]),
   midi.NoteOnEvent(tick=0, channel=2, data=[39, 95]),
   midi.NoteOffEvent(tick=480, channel=2, data=[39, 95]),
   midi.NoteOnEvent(tick=0, channel=2, data=[43, 95]),
   midi.NoteOffEvent(tick=480, channel=2, data=[43, 95]),
   midi.NoteOnEvent(tick=0, channel=2, data=[44, 95]),
   midi.NoteOffEvent(tick=480, channel=2, data=[44, 95]),
   midi.NoteOnEvent(tick=0, channel=2, data=[47, 95]),
   midi.NoteOffEvent(tick=480, channel=2, data=[47, 95]),
   midi.NoteOnEvent(tick=0, channel=2, data=[46, 95]),
   midi.NoteOffEvent(tick=480, channel=2, data=[46, 95]),
   midi.NoteOnEvent(tick=0, channel=2, data=[45, 95]),
   midi.NoteOffEvent(tick=480, channel=2, data=[45, 95]),
   midi.NoteOnEvent(tick=0, channel=2, data=[44, 95]),
   midi.NoteOffEvent(tick=480, channel=2, data=[44, 95]),
   midi.NoteOnEvent(tick=0, channel=2, data=[39, 95]),
   midi.NoteOffEvent(tick=480, channel=2, data=[39, 95]),
   midi.NoteOnEvent(tick=0, channel=2, data=[39, 95]),
   midi.NoteOffEvent(tick=480, channel=2, data=[39, 95]),
   midi.NoteOnEvent(tick=0, channel=2, data=[39, 95]),
   midi.NoteOffEvent(tick=480, channel=2, data=[39, 95]),
   midi.NoteOnEvent(tick=0, channel=2, data=[39, 95]),
   midi.NoteOffEvent(tick=480, channel=2, data=[39, 95]),
   midi.NoteOnEvent(tick=0, channel=3, data=[56, 95]),
   midi.NoteOnEvent(tick=0, channel=3, data=[49, 95]),
   midi.PitchWheelEvent(tick=120, channel=3, data=[0, 63]),
   midi.PitchWheelEvent(tick=0, channel=3, data=[0, 63]),
   midi.PitchWheelEvent(tick=120, channel=3, data=[0, 62]),
   midi.PitchWheelEvent(tick=0, channel=3, data=[0, 62]),
   midi.PitchWheelEvent(tick=120, channel=3, data=[0, 60]),
   midi.PitchWheelEvent(tick=0, channel=3, data=[0, 60]),
   midi.PitchWheelEvent(tick=120, channel=3, data=[0, 59]),
   midi.PitchWheelEvent(tick=0, channel=3, data=[0, 64]),
   midi.NoteOffEvent(tick=0, channel=3, data=[56, 95]),
   midi.PitchWheelEvent(tick=0, channel=3, data=[0, 59]),
   midi.PitchWheelEvent(tick=0, channel=3, data=[0, 64]),
   midi.NoteOffEvent(tick=0, channel=3, data=[49, 95]),
   midi.NoteOnEvent(tick=0, channel=2, data=[55, 95]),
   midi.NoteOnEvent(tick=0, channel=2, data=[48, 95]),
   midi.NoteOffEvent(tick=480, channel=2, data=[55, 95]),
   midi.NoteOffEvent(tick=0, channel=2, data=[48, 95]),
   midi.NoteOnEvent(tick=0, channel=2, data=[39, 95]),
   midi.NoteOffEvent(tick=480, channel=2, data=[39, 95]),
   midi.NoteOnEvent(tick=0, channel=2, data=[39, 95]),
   midi.NoteOffEvent(tick=480, channel=2, data=[39, 95]),
   midi.NoteOnEvent(tick=0, channel=2, data=[39, 95]),
   midi.NoteOffEvent(tick=480, channel=2, data=[39, 95]),
   midi.NoteOnEvent(tick=0, channel=2, data=[39, 95]),
   midi.NoteOffEvent(tick=480, channel=2, data=[39, 95]),
   midi.NoteOnEvent(tick=0, channel=2, data=[39, 95]),
   midi.NoteOffEvent(tick=480, channel=2, data=[39, 95]),
   midi.NoteOnEvent(tick=0, channel=2, data=[39, 95]),
   midi.NoteOffEvent(tick=480, channel=2, data=[39, 95]),
   midi.NoteOnEvent(tick=0, channel=2, data=[39, 95]),
   midi.NoteOffEvent(tick=480, channel=2, data=[39, 95]),
   midi.NoteOnEvent(tick=0, channel=2, data=[39, 95]),
   midi.NoteOffEvent(tick=480, channel=2, data=[39, 95]),
   midi.NoteOnEvent(tick=0, channel=2, data=[56, 95]),
   midi.NoteOnEvent(tick=0, channel=2, data=[49, 95]),
   midi.NoteOffEvent(tick=960, channel=2, data=[56, 95]),
   midi.NoteOffEvent(tick=0, channel=2, data=[49, 95]),
   midi.NoteOnEvent(tick=0, channel=2, data=[39, 95]),
   midi.NoteOffEvent(tick=480, channel=2, data=[39, 95]),
   midi.NoteOnEvent(tick=0, channel=2, data=[39, 95]),
   midi.NoteOffEvent(tick=480, channel=2, data=[39, 95]),
   midi.NoteOnEvent(tick=0, channel=2, data=[39, 95]),
   midi.NoteOffEvent(tick=480, channel=2, data=[39, 95]),
   midi.NoteOnEvent(tick=0, channel=2, data=[39, 95]),
   midi.NoteOffEvent(tick=480, channel=2, data=[39, 95]),
   midi.NoteOnEvent(tick=0, channel=3, data=[56, 95]),
   midi.NoteOnEvent(tick=0, channel=3, data=[49, 95]),
   midi.PitchWheelEvent(tick=120, channel=3, data=[0, 63]),
   midi.PitchWheelEvent(tick=0, channel=3, data=[0, 63]),
   midi.PitchWheelEvent(tick=120, channel=3, data=[0, 62]),
   midi.PitchWheelEvent(tick=0, channel=3, data=[0, 62]),
   midi.PitchWheelEvent(tick=120, channel=3, data=[0, 60]),
   midi.PitchWheelEvent(tick=0, channel=3, data=[0, 60]),
   midi.PitchWheelEvent(tick=120, channel=3, data=[0, 59]),
   midi.PitchWheelEvent(tick=0, channel=3, data=[0, 64]),
   midi.NoteOffEvent(tick=0, channel=3, data=[56, 95]),
   midi.PitchWheelEvent(tick=0, channel=3, data=[0, 59]),
   midi.PitchWheelEvent(tick=0, channel=3, data=[0, 64]),
   midi.NoteOffEvent(tick=0, channel=3, data=[49, 95]),
   midi.NoteOnEvent(tick=0, channel=2, data=[55, 95]),
   midi.NoteOnEvent(tick=0, channel=2, data=[48, 95]),
   midi.NoteOffEvent(tick=480, channel=2, data=[55, 95]),
   midi.NoteOffEvent(tick=0, channel=2, data=[48, 95]),
   midi.NoteOnEvent(tick=0, channel=2, data=[39, 95]),
   midi.NoteOffEvent(tick=480, channel=2, data=[39, 95]),
   midi.NoteOnEvent(tick=0, channel=2, data=[39, 95]),
   midi.NoteOffEvent(tick=480, channel=2, data=[39, 95]),
   midi.NoteOnEvent(tick=0, channel=2, data=[39, 95]),
   midi.NoteOffEvent(tick=480, channel=2, data=[39, 95]),
   midi.NoteOnEvent(tick=0, channel=2, data=[39, 95]),
   midi.NoteOffEvent(tick=480, channel=2, data=[39, 95]),
   midi.NoteOnEvent(tick=0, channel=2, data=[43, 95]),
   midi.NoteOffEvent(tick=480, channel=2, data=[43, 95]),
   midi.NoteOnEvent(tick=0, channel=2, data=[44, 95]),
   midi.NoteOffEvent(tick=480, channel=2, data=[44, 95]),
   midi.NoteOnEvent(tick=0, channel=2, data=[47, 95]),
   midi.NoteOffEvent(tick=480, channel=2, data=[47, 95]),
   midi.NoteOnEvent(tick=0, channel=2, data=[46, 95]),
   midi.NoteOffEvent(tick=480, channel=2, data=[46, 95]),
   midi.NoteOnEvent(tick=0, channel=2, data=[45, 95]),
   midi.NoteOffEvent(tick=480, channel=2, data=[45, 95]),
   midi.NoteOnEvent(tick=0, channel=2, data=[44, 95]),
   midi.NoteOffEvent(tick=480, channel=2, data=[44, 95]),
   midi.NoteOnEvent(tick=7680, channel=2, data=[39, 95]),
   midi.NoteOffEvent(tick=480, channel=2, data=[39, 95]),
   midi.NoteOnEvent(tick=0, channel=2, data=[39, 95]),
   midi.NoteOffEvent(tick=480, channel=2, data=[39, 95]),
   midi.NoteOnEvent(tick=0, channel=2, data=[39, 95]),
   midi.NoteOffEvent(tick=480, channel=2, data=[39, 95]),
   midi.NoteOnEvent(tick=0, channel=2, data=[39, 95]),
   midi.NoteOffEvent(tick=480, channel=2, data=[39, 95]),
   midi.NoteOnEvent(tick=0, channel=2, data=[39, 95]),
   midi.NoteOffEvent(tick=480, channel=2, data=[39, 95]),
   midi.NoteOnEvent(tick=0, channel=2, data=[39, 95]),
   midi.NoteOffEvent(tick=480, channel=2, data=[39, 95]),
   midi.NoteOnEvent(tick=0, channel=2, data=[39, 95]),
   midi.NoteOffEvent(tick=480, channel=2, data=[39, 95]),
   midi.NoteOnEvent(tick=0, channel=2, data=[39, 95]),
   midi.NoteOffEvent(tick=480, channel=2, data=[39, 95]),
   midi.NoteOnEvent(tick=0, channel=2, data=[39, 95]),
   midi.NoteOffEvent(tick=240, channel=2, data=[39, 95]),
   midi.NoteOnEvent(tick=0, channel=2, data=[39, 95]),
   midi.NoteOffEvent(tick=240, channel=2, data=[39, 95]),
   midi.NoteOnEvent(tick=0, channel=2, data=[39, 95]),
   midi.NoteOffEvent(tick=480, channel=2, data=[39, 95]),
   midi.NoteOnEvent(tick=0, channel=2, data=[39, 95]),
   midi.NoteOffEvent(tick=480, channel=2, data=[39, 95]),
   midi.NoteOnEvent(tick=0, channel=2, data=[39, 95]),
   midi.NoteOffEvent(tick=240, channel=2, data=[39, 95]),
   midi.NoteOnEvent(tick=0, channel=2, data=[39, 95]),
   midi.NoteOffEvent(tick=240, channel=2, data=[39, 95]),
   midi.NoteOnEvent(tick=0, channel=2, data=[39, 95]),
   midi.NoteOffEvent(tick=480, channel=2, data=[39, 95]),
   midi.NoteOnEvent(tick=0, channel=2, data=[39, 95]),
   midi.NoteOffEvent(tick=480, channel=2, data=[39, 95]),
   midi.NoteOnEvent(tick=0, channel=2, data=[39, 95]),
   midi.NoteOffEvent(tick=240, channel=2, data=[39, 95]),
   midi.NoteOnEvent(tick=0, channel=2, data=[39, 95]),
   midi.NoteOffEvent(tick=240, channel=2, data=[39, 95]),
   midi.NoteOnEvent(tick=0, channel=2, data=[39, 95]),
   midi.NoteOffEvent(tick=480, channel=2, data=[39, 95]),
   midi.NoteOnEvent(tick=0, channel=2, data=[39, 95]),
   midi.NoteOffEvent(tick=480, channel=2, data=[39, 95]),
   midi.NoteOnEvent(tick=0, channel=2, data=[39, 95]),
   midi.NoteOffEvent(tick=480, channel=2, data=[39, 95]),
   midi.NoteOnEvent(tick=0, channel=2, data=[39, 95]),
   midi.NoteOffEvent(tick=480, channel=2, data=[39, 95]),
   midi.NoteOnEvent(tick=0, channel=2, data=[39, 95]),
   midi.NoteOffEvent(tick=480, channel=2, data=[39, 95]),
   midi.NoteOnEvent(tick=0, channel=2, data=[39, 95]),
   midi.NoteOffEvent(tick=480, channel=2, data=[39, 95]),
   midi.NoteOnEvent(tick=0, channel=2, data=[39, 95]),
   midi.NoteOffEvent(tick=480, channel=2, data=[39, 95]),
   midi.NoteOnEvent(tick=0, channel=2, data=[39, 95]),
   midi.NoteOffEvent(tick=480, channel=2, data=[39, 95]),
   midi.NoteOnEvent(tick=0, channel=2, data=[39, 95]),
   midi.NoteOffEvent(tick=480, channel=2, data=[39, 95]),
   midi.NoteOnEvent(tick=0, channel=2, data=[39, 95]),
   midi.NoteOffEvent(tick=240, channel=2, data=[39, 95]),
   midi.NoteOnEvent(tick=0, channel=2, data=[39, 95]),
   midi.NoteOffEvent(tick=240, channel=2, data=[39, 95]),
   midi.NoteOnEvent(tick=0, channel=2, data=[39, 95]),
   midi.NoteOffEvent(tick=480, channel=2, data=[39, 95]),
   midi.NoteOnEvent(tick=0, channel=2, data=[39, 95]),
   midi.NoteOffEvent(tick=480, channel=2, data=[39, 95]),
   midi.NoteOnEvent(tick=0, channel=2, data=[39, 95]),
   midi.NoteOffEvent(tick=240, channel=2, data=[39, 95]),
   midi.NoteOnEvent(tick=0, channel=2, data=[39, 95]),
   midi.NoteOffEvent(tick=240, channel=2, data=[39, 95]),
   midi.NoteOnEvent(tick=0, channel=2, data=[39, 95]),
   midi.NoteOffEvent(tick=480, channel=2, data=[39, 95]),
   midi.NoteOnEvent(tick=0, channel=2, data=[39, 95]),
   midi.NoteOffEvent(tick=480, channel=2, data=[39, 95]),
   midi.NoteOnEvent(tick=0, channel=2, data=[39, 95]),
   midi.NoteOffEvent(tick=240, channel=2, data=[39, 95]),
   midi.NoteOnEvent(tick=0, channel=2, data=[39, 95]),
   midi.NoteOffEvent(tick=240, channel=2, data=[39, 95]),
   midi.NoteOnEvent(tick=0, channel=2, data=[39, 95]),
   midi.NoteOffEvent(tick=480, channel=2, data=[39, 95]),
   midi.NoteOnEvent(tick=0, channel=2, data=[39, 95]),
   midi.NoteOffEvent(tick=480, channel=2, data=[39, 95]),
   midi.NoteOnEvent(tick=0, channel=2, data=[39, 95]),
   midi.NoteOffEvent(tick=480, channel=2, data=[39, 95]),
   midi.NoteOnEvent(tick=0, channel=2, data=[39, 95]),
   midi.NoteOffEvent(tick=480, channel=2, data=[39, 95]),
   midi.NoteOnEvent(tick=0, channel=2, data=[39, 95]),
   midi.NoteOffEvent(tick=480, channel=2, data=[39, 95]),
   midi.NoteOnEvent(tick=0, channel=2, data=[39, 95]),
   midi.NoteOffEvent(tick=480, channel=2, data=[39, 95]),
   midi.NoteOnEvent(tick=0, channel=2, data=[39, 95]),
   midi.NoteOffEvent(tick=480, channel=2, data=[39, 95]),
   midi.NoteOnEvent(tick=0, channel=2, data=[39, 95]),
   midi.NoteOffEvent(tick=480, channel=2, data=[39, 95]),
   midi.NoteOnEvent(tick=0, channel=2, data=[39, 95]),
   midi.NoteOffEvent(tick=480, channel=2, data=[39, 95]),
   midi.NoteOnEvent(tick=0, channel=2, data=[39, 95]),
   midi.NoteOffEvent(tick=240, channel=2, data=[39, 95]),
   midi.NoteOnEvent(tick=0, channel=2, data=[39, 95]),
   midi.NoteOffEvent(tick=240, channel=2, data=[39, 95]),
   midi.NoteOnEvent(tick=0, channel=2, data=[39, 95]),
   midi.NoteOffEvent(tick=480, channel=2, data=[39, 95]),
   midi.NoteOnEvent(tick=0, channel=2, data=[39, 95]),
   midi.NoteOffEvent(tick=480, channel=2, data=[39, 95]),
   midi.NoteOnEvent(tick=0, channel=2, data=[39, 95]),
   midi.NoteOffEvent(tick=240, channel=2, data=[39, 95]),
   midi.NoteOnEvent(tick=0, channel=2, data=[39, 95]),
   midi.NoteOffEvent(tick=240, channel=2, data=[39, 95]),
   midi.NoteOnEvent(tick=0, channel=2, data=[39, 95]),
   midi.NoteOffEvent(tick=480, channel=2, data=[39, 95]),
   midi.NoteOnEvent(tick=0, channel=2, data=[39, 95]),
   midi.NoteOffEvent(tick=480, channel=2, data=[39, 95]),
   midi.NoteOnEvent(tick=0, channel=2, data=[39, 95]),
   midi.NoteOffEvent(tick=240, channel=2, data=[39, 95]),
   midi.NoteOnEvent(tick=0, channel=2, data=[39, 95]),
   midi.NoteOffEvent(tick=240, channel=2, data=[39, 95]),
   midi.NoteOnEvent(tick=0, channel=2, data=[39, 95]),
   midi.NoteOffEvent(tick=480, channel=2, data=[39, 95]),
   midi.NoteOnEvent(tick=0, channel=2, data=[39, 95]),
   midi.NoteOffEvent(tick=480, channel=2, data=[39, 95]),
   midi.NoteOnEvent(tick=0, channel=2, data=[39, 95]),
   midi.NoteOffEvent(tick=480, channel=2, data=[39, 95]),
   midi.NoteOnEvent(tick=0, channel=2, data=[39, 95]),
   midi.NoteOffEvent(tick=480, channel=2, data=[39, 95]),
   midi.NoteOnEvent(tick=0, channel=2, data=[39, 95]),
   midi.NoteOffEvent(tick=480, channel=2, data=[39, 95]),
   midi.NoteOnEvent(tick=0, channel=2, data=[39, 95]),
   midi.NoteOffEvent(tick=480, channel=2, data=[39, 95]),
   midi.NoteOnEvent(tick=0, channel=2, data=[39, 95]),
   midi.NoteOffEvent(tick=480, channel=2, data=[39, 95]),
   midi.NoteOnEvent(tick=0, channel=2, data=[39, 95]),
   midi.NoteOffEvent(tick=480, channel=2, data=[39, 95]),
   midi.NoteOnEvent(tick=0, channel=2, data=[39, 95]),
   midi.NoteOffEvent(tick=480, channel=2, data=[39, 95]),
   midi.NoteOnEvent(tick=0, channel=2, data=[39, 95]),
   midi.NoteOffEvent(tick=240, channel=2, data=[39, 95]),
   midi.NoteOnEvent(tick=0, channel=2, data=[39, 95]),
   midi.NoteOffEvent(tick=240, channel=2, data=[39, 95]),
   midi.NoteOnEvent(tick=0, channel=2, data=[39, 95]),
   midi.NoteOffEvent(tick=480, channel=2, data=[39, 95]),
   midi.NoteOnEvent(tick=0, channel=2, data=[39, 95]),
   midi.NoteOffEvent(tick=480, channel=2, data=[39, 95]),
   midi.NoteOnEvent(tick=0, channel=2, data=[39, 95]),
   midi.NoteOffEvent(tick=240, channel=2, data=[39, 95]),
   midi.NoteOnEvent(tick=0, channel=2, data=[39, 95]),
   midi.NoteOffEvent(tick=240, channel=2, data=[39, 95]),
   midi.NoteOnEvent(tick=0, channel=2, data=[39, 95]),
   midi.NoteOffEvent(tick=480, channel=2, data=[39, 95]),
   midi.NoteOnEvent(tick=0, channel=2, data=[39, 95]),
   midi.NoteOffEvent(tick=480, channel=2, data=[39, 95]),
   midi.NoteOnEvent(tick=0, channel=2, data=[39, 95]),
   midi.NoteOffEvent(tick=240, channel=2, data=[39, 95]),
   midi.NoteOnEvent(tick=0, channel=2, data=[39, 95]),
   midi.NoteOffEvent(tick=240, channel=2, data=[39, 95]),
   midi.NoteOnEvent(tick=0, channel=2, data=[39, 95]),
   midi.NoteOffEvent(tick=480, channel=2, data=[39, 95]),
   midi.NoteOnEvent(tick=0, channel=2, data=[39, 95]),
   midi.NoteOffEvent(tick=480, channel=2, data=[39, 95]),
   midi.NoteOnEvent(tick=0, channel=2, data=[39, 95]),
   midi.NoteOffEvent(tick=480, channel=2, data=[39, 95]),
   midi.NoteOnEvent(tick=0, channel=2, data=[39, 95]),
   midi.NoteOffEvent(tick=480, channel=2, data=[39, 95]),
   midi.NoteOnEvent(tick=0, channel=2, data=[39, 95]),
   midi.NoteOffEvent(tick=480, channel=2, data=[39, 95]),
   midi.NoteOnEvent(tick=0, channel=2, data=[39, 95]),
   midi.NoteOffEvent(tick=480, channel=2, data=[39, 95]),
   midi.NoteOnEvent(tick=0, channel=2, data=[39, 95]),
   midi.NoteOffEvent(tick=480, channel=2, data=[39, 95]),
   midi.NoteOnEvent(tick=0, channel=2, data=[39, 95]),
   midi.NoteOffEvent(tick=480, channel=2, data=[39, 95]),
   midi.NoteOnEvent(tick=0, channel=2, data=[39, 95]),
   midi.NoteOffEvent(tick=480, channel=2, data=[39, 95]),
   midi.NoteOnEvent(tick=0, channel=2, data=[39, 95]),
   midi.NoteOffEvent(tick=240, channel=2, data=[39, 95]),
   midi.NoteOnEvent(tick=0, channel=2, data=[39, 95]),
   midi.NoteOffEvent(tick=240, channel=2, data=[39, 95]),
   midi.NoteOnEvent(tick=0, channel=2, data=[39, 95]),
   midi.NoteOffEvent(tick=480, channel=2, data=[39, 95]),
   midi.NoteOnEvent(tick=0, channel=2, data=[39, 95]),
   midi.NoteOffEvent(tick=480, channel=2, data=[39, 95]),
   midi.NoteOnEvent(tick=0, channel=2, data=[39, 95]),
   midi.NoteOffEvent(tick=240, channel=2, data=[39, 95]),
   midi.NoteOnEvent(tick=0, channel=2, data=[39, 95]),
   midi.NoteOffEvent(tick=240, channel=2, data=[39, 95]),
   midi.NoteOnEvent(tick=0, channel=2, data=[39, 95]),
   midi.NoteOffEvent(tick=480, channel=2, data=[39, 95]),
   midi.NoteOnEvent(tick=0, channel=2, data=[39, 95]),
   midi.NoteOffEvent(tick=480, channel=2, data=[39, 95]),
   midi.NoteOnEvent(tick=0, channel=2, data=[39, 95]),
   midi.NoteOffEvent(tick=240, channel=2, data=[39, 95]),
   midi.NoteOnEvent(tick=0, channel=2, data=[39, 95]),
   midi.NoteOffEvent(tick=240, channel=2, data=[39, 95]),
   midi.NoteOnEvent(tick=0, channel=2, data=[39, 95]),
   midi.NoteOffEvent(tick=480, channel=2, data=[39, 95]),
   midi.NoteOnEvent(tick=0, channel=2, data=[39, 95]),
   midi.NoteOffEvent(tick=480, channel=2, data=[39, 95]),
   midi.NoteOnEvent(tick=0, channel=2, data=[39, 95]),
   midi.NoteOffEvent(tick=480, channel=2, data=[39, 95]),
   midi.NoteOnEvent(tick=0, channel=2, data=[39, 95]),
   midi.NoteOffEvent(tick=480, channel=2, data=[39, 95]),
   midi.NoteOnEvent(tick=0, channel=2, data=[39, 95]),
   midi.NoteOffEvent(tick=480, channel=2, data=[39, 95]),
   midi.NoteOnEvent(tick=0, channel=2, data=[39, 95]),
   midi.NoteOffEvent(tick=480, channel=2, data=[39, 95]),
   midi.NoteOnEvent(tick=0, channel=2, data=[39, 95]),
   midi.NoteOffEvent(tick=480, channel=2, data=[39, 95]),
   midi.NoteOnEvent(tick=0, channel=2, data=[39, 95]),
   midi.NoteOffEvent(tick=480, channel=2, data=[39, 95]),
   midi.NoteOnEvent(tick=0, channel=2, data=[39, 95]),
   midi.NoteOffEvent(tick=480, channel=2, data=[39, 95]),
   midi.NoteOnEvent(tick=0, channel=2, data=[39, 95]),
   midi.NoteOffEvent(tick=240, channel=2, data=[39, 95]),
   midi.NoteOnEvent(tick=0, channel=2, data=[39, 95]),
   midi.NoteOffEvent(tick=240, channel=2, data=[39, 95]),
   midi.NoteOnEvent(tick=0, channel=2, data=[39, 95]),
   midi.NoteOffEvent(tick=480, channel=2, data=[39, 95]),
   midi.NoteOnEvent(tick=0, channel=2, data=[39, 95]),
   midi.NoteOffEvent(tick=480, channel=2, data=[39, 95]),
   midi.NoteOnEvent(tick=0, channel=2, data=[39, 95]),
   midi.NoteOffEvent(tick=240, channel=2, data=[39, 95]),
   midi.NoteOnEvent(tick=0, channel=2, data=[39, 95]),
   midi.NoteOffEvent(tick=240, channel=2, data=[39, 95]),
   midi.NoteOnEvent(tick=0, channel=2, data=[39, 95]),
   midi.NoteOffEvent(tick=480, channel=2, data=[39, 95]),
   midi.NoteOnEvent(tick=0, channel=2, data=[39, 95]),
   midi.NoteOffEvent(tick=480, channel=2, data=[39, 95]),
   midi.NoteOnEvent(tick=0, channel=2, data=[39, 95]),
   midi.NoteOffEvent(tick=240, channel=2, data=[39, 95]),
   midi.NoteOnEvent(tick=0, channel=2, data=[39, 95]),
   midi.NoteOffEvent(tick=240, channel=2, data=[39, 95]),
   midi.NoteOnEvent(tick=0, channel=2, data=[39, 95]),
   midi.NoteOffEvent(tick=480, channel=2, data=[39, 95]),
   midi.NoteOnEvent(tick=3840, channel=2, data=[48, 95]),
   midi.NoteOffEvent(tick=240, channel=2, data=[48, 95]),
   midi.NoteOnEvent(tick=0, channel=2, data=[48, 95]),
   midi.NoteOffEvent(tick=240, channel=2, data=[48, 95]),
   midi.NoteOnEvent(tick=0, channel=2, data=[48, 95]),
   midi.NoteOffEvent(tick=240, channel=2, data=[48, 95]),
   midi.NoteOnEvent(tick=0, channel=2, data=[48, 95]),
   midi.NoteOffEvent(tick=240, channel=2, data=[48, 95]),
   midi.NoteOnEvent(tick=0, channel=2, data=[48, 95]),
   midi.NoteOffEvent(tick=240, channel=2, data=[48, 95]),
   midi.NoteOnEvent(tick=0, channel=2, data=[48, 95]),
   midi.NoteOffEvent(tick=240, channel=2, data=[48, 95]),
   midi.NoteOnEvent(tick=0, channel=2, data=[48, 95]),
   midi.NoteOffEvent(tick=240, channel=2, data=[48, 95]),
   midi.NoteOnEvent(tick=0, channel=2, data=[48, 95]),
   midi.NoteOffEvent(tick=240, channel=2, data=[48, 95]),
   midi.NoteOnEvent(tick=0, channel=2, data=[48, 95]),
   midi.NoteOffEvent(tick=240, channel=2, data=[48, 95]),
   midi.NoteOnEvent(tick=0, channel=2, data=[48, 95]),
   midi.NoteOffEvent(tick=240, channel=2, data=[48, 95]),
   midi.NoteOnEvent(tick=0, channel=2, data=[48, 95]),
   midi.NoteOffEvent(tick=240, channel=2, data=[48, 95]),
   midi.NoteOnEvent(tick=0, channel=2, data=[48, 95]),
   midi.NoteOffEvent(tick=240, channel=2, data=[48, 95]),
   midi.NoteOnEvent(tick=0, channel=2, data=[48, 95]),
   midi.NoteOffEvent(tick=240, channel=2, data=[48, 95]),
   midi.NoteOnEvent(tick=0, channel=2, data=[48, 95]),
   midi.NoteOffEvent(tick=240, channel=2, data=[48, 95]),
   midi.NoteOnEvent(tick=0, channel=2, data=[48, 95]),
   midi.NoteOffEvent(tick=240, channel=2, data=[48, 95]),
   midi.NoteOnEvent(tick=0, channel=2, data=[48, 95]),
   midi.NoteOffEvent(tick=240, channel=2, data=[48, 95]),
   midi.NoteOnEvent(tick=0, channel=2, data=[48, 95]),
   midi.NoteOffEvent(tick=240, channel=2, data=[48, 95]),
   midi.NoteOnEvent(tick=0, channel=2, data=[48, 95]),
   midi.NoteOffEvent(tick=240, channel=2, data=[48, 95]),
   midi.NoteOnEvent(tick=0, channel=2, data=[48, 95]),
   midi.NoteOffEvent(tick=240, channel=2, data=[48, 95]),
   midi.NoteOnEvent(tick=0, channel=2, data=[48, 95]),
   midi.NoteOffEvent(tick=240, channel=2, data=[48, 95]),
   midi.NoteOnEvent(tick=0, channel=2, data=[48, 95]),
   midi.NoteOffEvent(tick=240, channel=2, data=[48, 95]),
   midi.NoteOnEvent(tick=0, channel=2, data=[48, 95]),
   midi.NoteOffEvent(tick=240, channel=2, data=[48, 95]),
   midi.NoteOnEvent(tick=0, channel=2, data=[48, 95]),
   midi.NoteOffEvent(tick=240, channel=2, data=[48, 95]),
   midi.NoteOnEvent(tick=0, channel=2, data=[48, 95]),
   midi.NoteOffEvent(tick=240, channel=2, data=[48, 95]),
   midi.NoteOnEvent(tick=0, channel=2, data=[61, 95]),
   midi.NoteOnEvent(tick=0, channel=2, data=[54, 95]),
   midi.NoteOffEvent(tick=640, channel=2, data=[61, 95]),
   midi.NoteOffEvent(tick=0, channel=2, data=[54, 95]),
   midi.NoteOnEvent(tick=0, channel=2, data=[56, 95]),
   midi.NoteOnEvent(tick=0, channel=2, data=[49, 95]),
   midi.NoteOffEvent(tick=640, channel=2, data=[56, 95]),
   midi.NoteOffEvent(tick=0, channel=2, data=[49, 95]),
   midi.NoteOnEvent(tick=0, channel=2, data=[58, 95]),
   midi.NoteOnEvent(tick=0, channel=2, data=[51, 95]),
   midi.NoteOffEvent(tick=640, channel=2, data=[58, 95]),
   midi.NoteOffEvent(tick=0, channel=2, data=[51, 95]),
   midi.NoteOnEvent(tick=0, channel=2, data=[48, 95]),
   midi.NoteOffEvent(tick=240, channel=2, data=[48, 95]),
   midi.NoteOnEvent(tick=0, channel=2, data=[48, 95]),
   midi.NoteOffEvent(tick=240, channel=2, data=[48, 95]),
   midi.NoteOnEvent(tick=0, channel=2, data=[48, 95]),
   midi.NoteOffEvent(tick=240, channel=2, data=[48, 95]),
   midi.NoteOnEvent(tick=0, channel=2, data=[48, 95]),
   midi.NoteOffEvent(tick=240, channel=2, data=[48, 95]),
   midi.NoteOnEvent(tick=0, channel=2, data=[48, 95]),
   midi.NoteOffEvent(tick=240, channel=2, data=[48, 95]),
   midi.NoteOnEvent(tick=0, channel=2, data=[48, 95]),
   midi.NoteOffEvent(tick=240, channel=2, data=[48, 95]),
   midi.NoteOnEvent(tick=0, channel=2, data=[48, 95]),
   midi.NoteOffEvent(tick=240, channel=2, data=[48, 95]),
   midi.NoteOnEvent(tick=0, channel=2, data=[48, 95]),
   midi.NoteOffEvent(tick=240, channel=2, data=[48, 95]),
   midi.NoteOnEvent(tick=0, channel=2, data=[48, 95]),
   midi.NoteOffEvent(tick=240, channel=2, data=[48, 95]),
   midi.NoteOnEvent(tick=0, channel=2, data=[48, 95]),
   midi.NoteOffEvent(tick=240, channel=2, data=[48, 95]),
   midi.NoteOnEvent(tick=0, channel=2, data=[48, 95]),
   midi.NoteOffEvent(tick=240, channel=2, data=[48, 95]),
   midi.NoteOnEvent(tick=0, channel=2, data=[48, 95]),
   midi.NoteOffEvent(tick=240, channel=2, data=[48, 95]),
   midi.NoteOnEvent(tick=0, channel=2, data=[48, 95]),
   midi.NoteOffEvent(tick=240, channel=2, data=[48, 95]),
   midi.NoteOnEvent(tick=0, channel=2, data=[48, 95]),
   midi.NoteOffEvent(tick=240, channel=2, data=[48, 95]),
   midi.NoteOnEvent(tick=0, channel=2, data=[48, 95]),
   midi.NoteOffEvent(tick=240, channel=2, data=[48, 95]),
   midi.NoteOnEvent(tick=0, channel=2, data=[48, 95]),
   midi.NoteOffEvent(tick=240, channel=2, data=[48, 95]),
   midi.NoteOnEvent(tick=0, channel=2, data=[48, 95]),
   midi.NoteOffEvent(tick=240, channel=2, data=[48, 95]),
   midi.NoteOnEvent(tick=0, channel=2, data=[48, 95]),
   midi.NoteOffEvent(tick=240, channel=2, data=[48, 95]),
   midi.NoteOnEvent(tick=0, channel=2, data=[48, 95]),
   midi.NoteOffEvent(tick=240, channel=2, data=[48, 95]),
   midi.NoteOnEvent(tick=0, channel=2, data=[48, 95]),
   midi.NoteOffEvent(tick=240, channel=2, data=[48, 95]),
   midi.NoteOnEvent(tick=0, channel=2, data=[48, 95]),
   midi.NoteOffEvent(tick=240, channel=2, data=[48, 95]),
   midi.NoteOnEvent(tick=0, channel=2, data=[48, 95]),
   midi.NoteOffEvent(tick=240, channel=2, data=[48, 95]),
   midi.NoteOnEvent(tick=0, channel=2, data=[48, 95]),
   midi.NoteOffEvent(tick=240, channel=2, data=[48, 95]),
   midi.NoteOnEvent(tick=0, channel=2, data=[48, 95]),
   midi.NoteOffEvent(tick=240, channel=2, data=[48, 95]),
   midi.NoteOnEvent(tick=0, channel=2, data=[61, 95]),
   midi.NoteOnEvent(tick=0, channel=2, data=[54, 95]),
   midi.NoteOffEvent(tick=640, channel=2, data=[61, 95]),
   midi.NoteOffEvent(tick=0, channel=2, data=[54, 95]),
   midi.NoteOnEvent(tick=0, channel=2, data=[56, 95]),
   midi.NoteOnEvent(tick=0, channel=2, data=[49, 95]),
   midi.NoteOffEvent(tick=640, channel=2, data=[56, 95]),
   midi.NoteOffEvent(tick=0, channel=2, data=[49, 95]),
   midi.NoteOnEvent(tick=0, channel=2, data=[58, 95]),
   midi.NoteOnEvent(tick=0, channel=2, data=[51, 95]),
   midi.NoteOffEvent(tick=640, channel=2, data=[58, 95]),
   midi.NoteOffEvent(tick=0, channel=2, data=[51, 95]),
   midi.NoteOnEvent(tick=0, channel=2, data=[48, 95]),
   midi.NoteOffEvent(tick=240, channel=2, data=[48, 95]),
   midi.NoteOnEvent(tick=0, channel=2, data=[48, 95]),
   midi.NoteOffEvent(tick=240, channel=2, data=[48, 95]),
   midi.NoteOnEvent(tick=0, channel=2, data=[48, 95]),
   midi.NoteOffEvent(tick=240, channel=2, data=[48, 95]),
   midi.NoteOnEvent(tick=0, channel=2, data=[48, 95]),
   midi.NoteOffEvent(tick=240, channel=2, data=[48, 95]),
   midi.NoteOnEvent(tick=0, channel=2, data=[48, 95]),
   midi.NoteOffEvent(tick=240, channel=2, data=[48, 95]),
   midi.NoteOnEvent(tick=0, channel=2, data=[48, 95]),
   midi.NoteOffEvent(tick=240, channel=2, data=[48, 95]),
   midi.NoteOnEvent(tick=0, channel=2, data=[48, 95]),
   midi.NoteOffEvent(tick=240, channel=2, data=[48, 95]),
   midi.NoteOnEvent(tick=0, channel=2, data=[48, 95]),
   midi.NoteOffEvent(tick=240, channel=2, data=[48, 95]),
   midi.NoteOnEvent(tick=0, channel=2, data=[48, 95]),
   midi.NoteOffEvent(tick=240, channel=2, data=[48, 95]),
   midi.NoteOnEvent(tick=0, channel=2, data=[48, 95]),
   midi.NoteOffEvent(tick=240, channel=2, data=[48, 95]),
   midi.NoteOnEvent(tick=0, channel=2, data=[48, 95]),
   midi.NoteOffEvent(tick=240, channel=2, data=[48, 95]),
   midi.NoteOnEvent(tick=0, channel=2, data=[48, 95]),
   midi.NoteOffEvent(tick=240, channel=2, data=[48, 95]),
   midi.NoteOnEvent(tick=0, channel=2, data=[48, 95]),
   midi.NoteOffEvent(tick=240, channel=2, data=[48, 95]),
   midi.NoteOnEvent(tick=0, channel=2, data=[48, 95]),
   midi.NoteOffEvent(tick=240, channel=2, data=[48, 95]),
   midi.NoteOnEvent(tick=0, channel=2, data=[48, 95]),
   midi.NoteOffEvent(tick=240, channel=2, data=[48, 95]),
   midi.NoteOnEvent(tick=0, channel=2, data=[48, 95]),
   midi.NoteOffEvent(tick=240, channel=2, data=[48, 95]),
   midi.NoteOnEvent(tick=0, channel=2, data=[48, 95]),
   midi.NoteOffEvent(tick=240, channel=2, data=[48, 95]),
   midi.NoteOnEvent(tick=0, channel=2, data=[48, 95]),
   midi.NoteOffEvent(tick=240, channel=2, data=[48, 95]),
   midi.NoteOnEvent(tick=0, channel=2, data=[48, 95]),
   midi.NoteOffEvent(tick=240, channel=2, data=[48, 95]),
   midi.NoteOnEvent(tick=0, channel=2, data=[48, 95]),
   midi.NoteOffEvent(tick=240, channel=2, data=[48, 95]),
   midi.NoteOnEvent(tick=0, channel=2, data=[48, 95]),
   midi.NoteOffEvent(tick=240, channel=2, data=[48, 95]),
   midi.NoteOnEvent(tick=0, channel=2, data=[48, 95]),
   midi.NoteOffEvent(tick=240, channel=2, data=[48, 95]),
   midi.NoteOnEvent(tick=0, channel=2, data=[48, 95]),
   midi.NoteOffEvent(tick=240, channel=2, data=[48, 95]),
   midi.NoteOnEvent(tick=0, channel=2, data=[48, 95]),
   midi.NoteOffEvent(tick=240, channel=2, data=[48, 95]),
   midi.NoteOnEvent(tick=0, channel=2, data=[61, 95]),
   midi.NoteOnEvent(tick=0, channel=2, data=[54, 95]),
   midi.NoteOffEvent(tick=640, channel=2, data=[61, 95]),
   midi.NoteOffEvent(tick=0, channel=2, data=[54, 95]),
   midi.NoteOnEvent(tick=0, channel=2, data=[56, 95]),
   midi.NoteOnEvent(tick=0, channel=2, data=[49, 95]),
   midi.NoteOffEvent(tick=640, channel=2, data=[56, 95]),
   midi.NoteOffEvent(tick=0, channel=2, data=[49, 95]),
   midi.NoteOnEvent(tick=0, channel=2, data=[58, 95]),
   midi.NoteOnEvent(tick=0, channel=2, data=[51, 95]),
   midi.NoteOffEvent(tick=640, channel=2, data=[58, 95]),
   midi.NoteOffEvent(tick=0, channel=2, data=[51, 95]),
   midi.NoteOnEvent(tick=0, channel=2, data=[48, 95]),
   midi.NoteOffEvent(tick=240, channel=2, data=[48, 95]),
   midi.NoteOnEvent(tick=0, channel=2, data=[48, 95]),
   midi.NoteOffEvent(tick=240, channel=2, data=[48, 95]),
   midi.NoteOnEvent(tick=0, channel=2, data=[48, 95]),
   midi.NoteOffEvent(tick=240, channel=2, data=[48, 95]),
   midi.NoteOnEvent(tick=0, channel=2, data=[48, 95]),
   midi.NoteOffEvent(tick=240, channel=2, data=[48, 95]),
   midi.NoteOnEvent(tick=0, channel=2, data=[48, 95]),
   midi.NoteOffEvent(tick=240, channel=2, data=[48, 95]),
   midi.NoteOnEvent(tick=0, channel=2, data=[48, 95]),
   midi.NoteOffEvent(tick=240, channel=2, data=[48, 95]),
   midi.NoteOnEvent(tick=0, channel=2, data=[48, 95]),
   midi.NoteOffEvent(tick=240, channel=2, data=[48, 95]),
   midi.NoteOnEvent(tick=0, channel=2, data=[48, 95]),
   midi.NoteOffEvent(tick=240, channel=2, data=[48, 95]),
   midi.NoteOnEvent(tick=0, channel=2, data=[48, 95]),
   midi.NoteOffEvent(tick=240, channel=2, data=[48, 95]),
   midi.NoteOnEvent(tick=0, channel=2, data=[48, 95]),
   midi.NoteOffEvent(tick=240, channel=2, data=[48, 95]),
   midi.NoteOnEvent(tick=0, channel=2, data=[48, 95]),
   midi.NoteOffEvent(tick=240, channel=2, data=[48, 95]),
   midi.NoteOnEvent(tick=0, channel=2, data=[48, 95]),
   midi.NoteOffEvent(tick=240, channel=2, data=[48, 95]),
   midi.NoteOnEvent(tick=0, channel=2, data=[48, 95]),
   midi.NoteOffEvent(tick=240, channel=2, data=[48, 95]),
   midi.NoteOnEvent(tick=0, channel=2, data=[48, 95]),
   midi.NoteOffEvent(tick=240, channel=2, data=[48, 95]),
   midi.NoteOnEvent(tick=0, channel=2, data=[48, 95]),
   midi.NoteOffEvent(tick=240, channel=2, data=[48, 95]),
   midi.NoteOnEvent(tick=0, channel=2, data=[48, 95]),
   midi.NoteOffEvent(tick=240, channel=2, data=[48, 95]),
   midi.NoteOnEvent(tick=0, channel=2, data=[61, 95]),
   midi.NoteOnEvent(tick=0, channel=2, data=[54, 95]),
   midi.NoteOffEvent(tick=640, channel=2, data=[61, 95]),
   midi.NoteOffEvent(tick=0, channel=2, data=[54, 95]),
   midi.NoteOnEvent(tick=0, channel=2, data=[60, 95]),
   midi.NoteOnEvent(tick=0, channel=2, data=[53, 95]),
   midi.NoteOffEvent(tick=640, channel=2, data=[60, 95]),
   midi.NoteOffEvent(tick=0, channel=2, data=[53, 95]),
   midi.NoteOnEvent(tick=0, channel=2, data=[59, 95]),
   midi.NoteOnEvent(tick=0, channel=2, data=[52, 95]),
   midi.NoteOffEvent(tick=640, channel=2, data=[59, 95]),
   midi.NoteOffEvent(tick=0, channel=2, data=[52, 95]),
   midi.NoteOnEvent(tick=0, channel=2, data=[56, 95]),
   midi.NoteOnEvent(tick=0, channel=2, data=[49, 95]),
   midi.NoteOffEvent(tick=640, channel=2, data=[56, 95]),
   midi.NoteOffEvent(tick=0, channel=2, data=[49, 95]),
   midi.NoteOnEvent(tick=0, channel=2, data=[57, 95]),
   midi.NoteOnEvent(tick=0, channel=2, data=[50, 95]),
   midi.NoteOffEvent(tick=640, channel=2, data=[57, 95]),
   midi.NoteOffEvent(tick=0, channel=2, data=[50, 95]),
   midi.NoteOnEvent(tick=0, channel=2, data=[56, 95]),
   midi.NoteOnEvent(tick=0, channel=2, data=[49, 95]),
   midi.NoteOffEvent(tick=640, channel=2, data=[56, 95]),
   midi.NoteOffEvent(tick=0, channel=2, data=[49, 95]),
   midi.NoteOnEvent(tick=0, channel=2, data=[48, 95]),
   midi.NoteOffEvent(tick=240, channel=2, data=[48, 95]),
   midi.NoteOnEvent(tick=0, channel=2, data=[48, 95]),
   midi.NoteOffEvent(tick=240, channel=2, data=[48, 95]),
   midi.NoteOnEvent(tick=0, channel=2, data=[48, 95]),
   midi.NoteOffEvent(tick=240, channel=2, data=[48, 95]),
   midi.NoteOnEvent(tick=0, channel=2, data=[48, 95]),
   midi.NoteOffEvent(tick=240, channel=2, data=[48, 95]),
   midi.NoteOnEvent(tick=0, channel=2, data=[48, 95]),
   midi.NoteOffEvent(tick=240, channel=2, data=[48, 95]),
   midi.NoteOnEvent(tick=0, channel=2, data=[48, 95]),
   midi.NoteOffEvent(tick=240, channel=2, data=[48, 95]),
   midi.NoteOnEvent(tick=0, channel=2, data=[48, 95]),
   midi.NoteOffEvent(tick=240, channel=2, data=[48, 95]),
   midi.NoteOnEvent(tick=0, channel=2, data=[48, 95]),
   midi.NoteOffEvent(tick=240, channel=2, data=[48, 95]),
   midi.NoteOnEvent(tick=0, channel=2, data=[48, 95]),
   midi.NoteOffEvent(tick=240, channel=2, data=[48, 95]),
   midi.NoteOnEvent(tick=0, channel=2, data=[48, 95]),
   midi.NoteOffEvent(tick=240, channel=2, data=[48, 95]),
   midi.NoteOnEvent(tick=0, channel=2, data=[48, 95]),
   midi.NoteOffEvent(tick=240, channel=2, data=[48, 95]),
   midi.NoteOnEvent(tick=0, channel=2, data=[48, 95]),
   midi.NoteOffEvent(tick=240, channel=2, data=[48, 95]),
   midi.NoteOnEvent(tick=0, channel=2, data=[48, 95]),
   midi.NoteOffEvent(tick=240, channel=2, data=[48, 95]),
   midi.NoteOnEvent(tick=0, channel=2, data=[48, 95]),
   midi.NoteOffEvent(tick=240, channel=2, data=[48, 95]),
   midi.NoteOnEvent(tick=0, channel=2, data=[48, 95]),
   midi.NoteOffEvent(tick=240, channel=2, data=[48, 95]),
   midi.NoteOnEvent(tick=0, channel=2, data=[48, 95]),
   midi.NoteOffEvent(tick=240, channel=2, data=[48, 95]),
   midi.NoteOnEvent(tick=0, channel=2, data=[48, 95]),
   midi.NoteOffEvent(tick=240, channel=2, data=[48, 95]),
   midi.NoteOnEvent(tick=0, channel=2, data=[48, 95]),
   midi.NoteOffEvent(tick=240, channel=2, data=[48, 95]),
   midi.NoteOnEvent(tick=0, channel=2, data=[48, 95]),
   midi.NoteOffEvent(tick=240, channel=2, data=[48, 95]),
   midi.NoteOnEvent(tick=0, channel=2, data=[48, 95]),
   midi.NoteOffEvent(tick=240, channel=2, data=[48, 95]),
   midi.NoteOnEvent(tick=0, channel=2, data=[48, 95]),
   midi.NoteOffEvent(tick=240, channel=2, data=[48, 95]),
   midi.NoteOnEvent(tick=0, channel=2, data=[48, 95]),
   midi.NoteOffEvent(tick=240, channel=2, data=[48, 95]),
   midi.NoteOnEvent(tick=0, channel=2, data=[48, 95]),
   midi.NoteOffEvent(tick=240, channel=2, data=[48, 95]),
   midi.NoteOnEvent(tick=0, channel=2, data=[48, 95]),
   midi.NoteOffEvent(tick=240, channel=2, data=[48, 95]),
   midi.NoteOnEvent(tick=0, channel=2, data=[61, 95]),
   midi.NoteOnEvent(tick=0, channel=2, data=[54, 95]),
   midi.NoteOffEvent(tick=640, channel=2, data=[61, 95]),
   midi.NoteOffEvent(tick=0, channel=2, data=[54, 95]),
   midi.NoteOnEvent(tick=0, channel=2, data=[56, 95]),
   midi.NoteOnEvent(tick=0, channel=2, data=[49, 95]),
   midi.NoteOffEvent(tick=640, channel=2, data=[56, 95]),
   midi.NoteOffEvent(tick=0, channel=2, data=[49, 95]),
   midi.NoteOnEvent(tick=0, channel=2, data=[58, 95]),
   midi.NoteOnEvent(tick=0, channel=2, data=[51, 95]),
   midi.NoteOffEvent(tick=640, channel=2, data=[58, 95]),
   midi.NoteOffEvent(tick=0, channel=2, data=[51, 95]),
   midi.NoteOnEvent(tick=0, channel=2, data=[48, 95]),
   midi.NoteOffEvent(tick=240, channel=2, data=[48, 95]),
   midi.NoteOnEvent(tick=0, channel=2, data=[48, 95]),
   midi.NoteOffEvent(tick=240, channel=2, data=[48, 95]),
   midi.NoteOnEvent(tick=0, channel=2, data=[48, 95]),
   midi.NoteOffEvent(tick=240, channel=2, data=[48, 95]),
   midi.NoteOnEvent(tick=0, channel=2, data=[48, 95]),
   midi.NoteOffEvent(tick=240, channel=2, data=[48, 95]),
   midi.NoteOnEvent(tick=0, channel=2, data=[48, 95]),
   midi.NoteOffEvent(tick=240, channel=2, data=[48, 95]),
   midi.NoteOnEvent(tick=0, channel=2, data=[48, 95]),
   midi.NoteOffEvent(tick=240, channel=2, data=[48, 95]),
   midi.NoteOnEvent(tick=0, channel=2, data=[48, 95]),
   midi.NoteOffEvent(tick=240, channel=2, data=[48, 95]),
   midi.NoteOnEvent(tick=0, channel=2, data=[48, 95]),
   midi.NoteOffEvent(tick=240, channel=2, data=[48, 95]),
   midi.NoteOnEvent(tick=0, channel=2, data=[48, 95]),
   midi.NoteOffEvent(tick=240, channel=2, data=[48, 95]),
   midi.NoteOnEvent(tick=0, channel=2, data=[48, 95]),
   midi.NoteOffEvent(tick=240, channel=2, data=[48, 95]),
   midi.NoteOnEvent(tick=0, channel=2, data=[48, 95]),
   midi.NoteOffEvent(tick=240, channel=2, data=[48, 95]),
   midi.NoteOnEvent(tick=0, channel=2, data=[48, 95]),
   midi.NoteOffEvent(tick=240, channel=2, data=[48, 95]),
   midi.NoteOnEvent(tick=0, channel=2, data=[48, 95]),
   midi.NoteOffEvent(tick=240, channel=2, data=[48, 95]),
   midi.NoteOnEvent(tick=0, channel=2, data=[48, 95]),
   midi.NoteOffEvent(tick=240, channel=2, data=[48, 95]),
   midi.NoteOnEvent(tick=0, channel=2, data=[48, 95]),
   midi.NoteOffEvent(tick=240, channel=2, data=[48, 95]),
   midi.NoteOnEvent(tick=0, channel=2, data=[48, 95]),
   midi.NoteOffEvent(tick=240, channel=2, data=[48, 95]),
   midi.NoteOnEvent(tick=0, channel=2, data=[48, 95]),
   midi.NoteOffEvent(tick=240, channel=2, data=[48, 95]),
   midi.NoteOnEvent(tick=0, channel=2, data=[48, 95]),
   midi.NoteOffEvent(tick=240, channel=2, data=[48, 95]),
   midi.NoteOnEvent(tick=0, channel=2, data=[48, 95]),
   midi.NoteOffEvent(tick=240, channel=2, data=[48, 95]),
   midi.NoteOnEvent(tick=0, channel=2, data=[48, 95]),
   midi.NoteOffEvent(tick=240, channel=2, data=[48, 95]),
   midi.NoteOnEvent(tick=0, channel=2, data=[48, 95]),
   midi.NoteOffEvent(tick=240, channel=2, data=[48, 95]),
   midi.NoteOnEvent(tick=0, channel=2, data=[48, 95]),
   midi.NoteOffEvent(tick=240, channel=2, data=[48, 95]),
   midi.NoteOnEvent(tick=0, channel=2, data=[48, 95]),
   midi.NoteOffEvent(tick=240, channel=2, data=[48, 95]),
   midi.NoteOnEvent(tick=0, channel=2, data=[48, 95]),
   midi.NoteOffEvent(tick=240, channel=2, data=[48, 95]),
   midi.NoteOnEvent(tick=0, channel=2, data=[61, 95]),
   midi.NoteOnEvent(tick=0, channel=2, data=[54, 95]),
   midi.NoteOffEvent(tick=640, channel=2, data=[61, 95]),
   midi.NoteOffEvent(tick=0, channel=2, data=[54, 95]),
   midi.NoteOnEvent(tick=0, channel=2, data=[56, 95]),
   midi.NoteOnEvent(tick=0, channel=2, data=[49, 95]),
   midi.NoteOffEvent(tick=640, channel=2, data=[56, 95]),
   midi.NoteOffEvent(tick=0, channel=2, data=[49, 95]),
   midi.NoteOnEvent(tick=0, channel=2, data=[58, 95]),
   midi.NoteOnEvent(tick=0, channel=2, data=[51, 95]),
   midi.NoteOffEvent(tick=640, channel=2, data=[58, 95]),
   midi.NoteOffEvent(tick=0, channel=2, data=[51, 95]),
   midi.NoteOnEvent(tick=0, channel=2, data=[48, 95]),
   midi.NoteOffEvent(tick=240, channel=2, data=[48, 95]),
   midi.NoteOnEvent(tick=0, channel=2, data=[48, 95]),
   midi.NoteOffEvent(tick=240, channel=2, data=[48, 95]),
   midi.NoteOnEvent(tick=0, channel=2, data=[48, 95]),
   midi.NoteOffEvent(tick=240, channel=2, data=[48, 95]),
   midi.NoteOnEvent(tick=0, channel=2, data=[48, 95]),
   midi.NoteOffEvent(tick=240, channel=2, data=[48, 95]),
   midi.NoteOnEvent(tick=0, channel=2, data=[48, 95]),
   midi.NoteOffEvent(tick=240, channel=2, data=[48, 95]),
   midi.NoteOnEvent(tick=0, channel=2, data=[48, 95]),
   midi.NoteOffEvent(tick=240, channel=2, data=[48, 95]),
   midi.NoteOnEvent(tick=0, channel=2, data=[48, 95]),
   midi.NoteOffEvent(tick=240, channel=2, data=[48, 95]),
   midi.NoteOnEvent(tick=0, channel=2, data=[48, 95]),
   midi.NoteOffEvent(tick=240, channel=2, data=[48, 95]),
   midi.NoteOnEvent(tick=0, channel=2, data=[48, 95]),
   midi.NoteOffEvent(tick=240, channel=2, data=[48, 95]),
   midi.NoteOnEvent(tick=0, channel=2, data=[48, 95]),
   midi.NoteOffEvent(tick=240, channel=2, data=[48, 95]),
   midi.NoteOnEvent(tick=0, channel=2, data=[48, 95]),
   midi.NoteOffEvent(tick=240, channel=2, data=[48, 95]),
   midi.NoteOnEvent(tick=0, channel=2, data=[48, 95]),
   midi.NoteOffEvent(tick=240, channel=2, data=[48, 95]),
   midi.NoteOnEvent(tick=0, channel=2, data=[48, 95]),
   midi.NoteOffEvent(tick=240, channel=2, data=[48, 95]),
   midi.NoteOnEvent(tick=0, channel=2, data=[48, 95]),
   midi.NoteOffEvent(tick=240, channel=2, data=[48, 95]),
   midi.NoteOnEvent(tick=0, channel=2, data=[48, 95]),
   midi.NoteOffEvent(tick=240, channel=2, data=[48, 95]),
   midi.NoteOnEvent(tick=0, channel=2, data=[48, 95]),
   midi.NoteOffEvent(tick=240, channel=2, data=[48, 95]),
   midi.NoteOnEvent(tick=0, channel=2, data=[48, 95]),
   midi.NoteOffEvent(tick=240, channel=2, data=[48, 95]),
   midi.NoteOnEvent(tick=0, channel=2, data=[48, 95]),
   midi.NoteOffEvent(tick=240, channel=2, data=[48, 95]),
   midi.NoteOnEvent(tick=0, channel=2, data=[48, 95]),
   midi.NoteOffEvent(tick=240, channel=2, data=[48, 95]),
   midi.NoteOnEvent(tick=0, channel=2, data=[48, 95]),
   midi.NoteOffEvent(tick=240, channel=2, data=[48, 95]),
   midi.NoteOnEvent(tick=0, channel=2, data=[48, 95]),
   midi.NoteOffEvent(tick=240, channel=2, data=[48, 95]),
   midi.NoteOnEvent(tick=0, channel=2, data=[48, 95]),
   midi.NoteOffEvent(tick=240, channel=2, data=[48, 95]),
   midi.NoteOnEvent(tick=0, channel=2, data=[48, 95]),
   midi.NoteOffEvent(tick=240, channel=2, data=[48, 95]),
   midi.NoteOnEvent(tick=0, channel=2, data=[48, 95]),
   midi.NoteOffEvent(tick=240, channel=2, data=[48, 95]),
   midi.NoteOnEvent(tick=0, channel=2, data=[61, 95]),
   midi.NoteOnEvent(tick=0, channel=2, data=[54, 95]),
   midi.NoteOffEvent(tick=640, channel=2, data=[61, 95]),
   midi.NoteOffEvent(tick=0, channel=2, data=[54, 95]),
   midi.NoteOnEvent(tick=0, channel=2, data=[56, 95]),
   midi.NoteOnEvent(tick=0, channel=2, data=[49, 95]),
   midi.NoteOffEvent(tick=640, channel=2, data=[56, 95]),
   midi.NoteOffEvent(tick=0, channel=2, data=[49, 95]),
   midi.NoteOnEvent(tick=0, channel=2, data=[58, 95]),
   midi.NoteOnEvent(tick=0, channel=2, data=[51, 95]),
   midi.NoteOffEvent(tick=640, channel=2, data=[58, 95]),
   midi.NoteOffEvent(tick=0, channel=2, data=[51, 95]),
   midi.NoteOnEvent(tick=0, channel=2, data=[48, 95]),
   midi.NoteOffEvent(tick=240, channel=2, data=[48, 95]),
   midi.NoteOnEvent(tick=0, channel=2, data=[48, 95]),
   midi.NoteOffEvent(tick=240, channel=2, data=[48, 95]),
   midi.NoteOnEvent(tick=0, channel=2, data=[48, 95]),
   midi.NoteOffEvent(tick=240, channel=2, data=[48, 95]),
   midi.NoteOnEvent(tick=0, channel=2, data=[48, 95]),
   midi.NoteOffEvent(tick=240, channel=2, data=[48, 95]),
   midi.NoteOnEvent(tick=0, channel=2, data=[48, 95]),
   midi.NoteOffEvent(tick=240, channel=2, data=[48, 95]),
   midi.NoteOnEvent(tick=0, channel=2, data=[48, 95]),
   midi.NoteOffEvent(tick=240, channel=2, data=[48, 95]),
   midi.NoteOnEvent(tick=0, channel=2, data=[48, 95]),
   midi.NoteOffEvent(tick=240, channel=2, data=[48, 95]),
   midi.NoteOnEvent(tick=0, channel=2, data=[48, 95]),
   midi.NoteOffEvent(tick=240, channel=2, data=[48, 95]),
   midi.NoteOnEvent(tick=0, channel=2, data=[48, 95]),
   midi.NoteOffEvent(tick=240, channel=2, data=[48, 95]),
   midi.NoteOnEvent(tick=0, channel=2, data=[48, 95]),
   midi.NoteOffEvent(tick=240, channel=2, data=[48, 95]),
   midi.NoteOnEvent(tick=0, channel=2, data=[48, 95]),
   midi.NoteOffEvent(tick=240, channel=2, data=[48, 95]),
   midi.NoteOnEvent(tick=0, channel=2, data=[48, 95]),
   midi.NoteOffEvent(tick=240, channel=2, data=[48, 95]),
   midi.NoteOnEvent(tick=0, channel=2, data=[48, 95]),
   midi.NoteOffEvent(tick=240, channel=2, data=[48, 95]),
   midi.NoteOnEvent(tick=0, channel=2, data=[48, 95]),
   midi.NoteOffEvent(tick=240, channel=2, data=[48, 95]),
   midi.NoteOnEvent(tick=0, channel=2, data=[48, 95]),
   midi.NoteOffEvent(tick=240, channel=2, data=[48, 95]),
   midi.NoteOnEvent(tick=0, channel=2, data=[48, 95]),
   midi.NoteOffEvent(tick=240, channel=2, data=[48, 95]),
   midi.NoteOnEvent(tick=0, channel=2, data=[61, 95]),
   midi.NoteOnEvent(tick=0, channel=2, data=[54, 95]),
   midi.NoteOffEvent(tick=640, channel=2, data=[61, 95]),
   midi.NoteOffEvent(tick=0, channel=2, data=[54, 95]),
   midi.NoteOnEvent(tick=0, channel=2, data=[60, 95]),
   midi.NoteOnEvent(tick=0, channel=2, data=[53, 95]),
   midi.NoteOffEvent(tick=640, channel=2, data=[60, 95]),
   midi.NoteOffEvent(tick=0, channel=2, data=[53, 95]),
   midi.NoteOnEvent(tick=0, channel=2, data=[59, 95]),
   midi.NoteOnEvent(tick=0, channel=2, data=[52, 95]),
   midi.NoteOffEvent(tick=640, channel=2, data=[59, 95]),
   midi.NoteOffEvent(tick=0, channel=2, data=[52, 95]),
   midi.NoteOnEvent(tick=0, channel=2, data=[56, 95]),
   midi.NoteOnEvent(tick=0, channel=2, data=[49, 95]),
   midi.NoteOffEvent(tick=640, channel=2, data=[56, 95]),
   midi.NoteOffEvent(tick=0, channel=2, data=[49, 95]),
   midi.NoteOnEvent(tick=0, channel=2, data=[57, 95]),
   midi.NoteOnEvent(tick=0, channel=2, data=[50, 95]),
   midi.NoteOffEvent(tick=640, channel=2, data=[57, 95]),
   midi.NoteOffEvent(tick=0, channel=2, data=[50, 95]),
   midi.NoteOnEvent(tick=0, channel=2, data=[56, 95]),
   midi.NoteOnEvent(tick=0, channel=2, data=[49, 95]),
   midi.NoteOffEvent(tick=640, channel=2, data=[56, 95]),
   midi.NoteOffEvent(tick=0, channel=2, data=[49, 95]),
   midi.NoteOnEvent(tick=0, channel=2, data=[43, 95]),
   midi.NoteOffEvent(tick=240, channel=2, data=[43, 95]),
   midi.NoteOnEvent(tick=0, channel=2, data=[43, 95]),
   midi.NoteOffEvent(tick=240, channel=2, data=[43, 95]),
   midi.NoteOnEvent(tick=0, channel=2, data=[43, 95]),
   midi.NoteOffEvent(tick=240, channel=2, data=[43, 95]),
   midi.NoteOnEvent(tick=0, channel=2, data=[43, 95]),
   midi.NoteOffEvent(tick=240, channel=2, data=[43, 95]),
   midi.NoteOnEvent(tick=0, channel=2, data=[43, 95]),
   midi.NoteOffEvent(tick=240, channel=2, data=[43, 95]),
   midi.NoteOnEvent(tick=0, channel=2, data=[43, 95]),
   midi.NoteOffEvent(tick=240, channel=2, data=[43, 95]),
   midi.NoteOnEvent(tick=0, channel=2, data=[43, 95]),
   midi.NoteOffEvent(tick=240, channel=2, data=[43, 95]),
   midi.NoteOnEvent(tick=0, channel=2, data=[43, 95]),
   midi.NoteOffEvent(tick=240, channel=2, data=[43, 95]),
   midi.NoteOnEvent(tick=0, channel=2, data=[43, 95]),
   midi.NoteOffEvent(tick=240, channel=2, data=[43, 95]),
   midi.NoteOnEvent(tick=0, channel=2, data=[43, 95]),
   midi.NoteOffEvent(tick=240, channel=2, data=[43, 95]),
   midi.NoteOnEvent(tick=0, channel=2, data=[43, 95]),
   midi.NoteOffEvent(tick=240, channel=2, data=[43, 95]),
   midi.NoteOnEvent(tick=0, channel=2, data=[43, 95]),
   midi.NoteOffEvent(tick=240, channel=2, data=[43, 95]),
   midi.NoteOnEvent(tick=0, channel=2, data=[43, 95]),
   midi.NoteOffEvent(tick=240, channel=2, data=[43, 95]),
   midi.NoteOnEvent(tick=0, channel=2, data=[43, 95]),
   midi.NoteOffEvent(tick=240, channel=2, data=[43, 95]),
   midi.NoteOnEvent(tick=0, channel=2, data=[43, 95]),
   midi.NoteOffEvent(tick=240, channel=2, data=[43, 95]),
   midi.NoteOnEvent(tick=0, channel=2, data=[43, 95]),
   midi.NoteOffEvent(tick=240, channel=2, data=[43, 95]),
   midi.NoteOnEvent(tick=0, channel=2, data=[49, 95]),
   midi.NoteOffEvent(tick=240, channel=2, data=[49, 95]),
   midi.NoteOnEvent(tick=0, channel=2, data=[49, 95]),
   midi.NoteOffEvent(tick=240, channel=2, data=[49, 95]),
   midi.NoteOnEvent(tick=0, channel=2, data=[49, 95]),
   midi.NoteOffEvent(tick=240, channel=2, data=[49, 95]),
   midi.NoteOnEvent(tick=0, channel=2, data=[49, 95]),
   midi.NoteOffEvent(tick=240, channel=2, data=[49, 95]),
   midi.NoteOnEvent(tick=0, channel=2, data=[44, 95]),
   midi.NoteOffEvent(tick=240, channel=2, data=[44, 95]),
   midi.NoteOnEvent(tick=0, channel=2, data=[44, 95]),
   midi.NoteOffEvent(tick=240, channel=2, data=[44, 95]),
   midi.NoteOnEvent(tick=0, channel=2, data=[44, 95]),
   midi.NoteOffEvent(tick=240, channel=2, data=[44, 95]),
   midi.NoteOnEvent(tick=0, channel=2, data=[44, 95]),
   midi.NoteOffEvent(tick=240, channel=2, data=[44, 95]),
   midi.NoteOnEvent(tick=0, channel=2, data=[46, 95]),
   midi.NoteOffEvent(tick=240, channel=2, data=[46, 95]),
   midi.NoteOnEvent(tick=0, channel=2, data=[46, 95]),
   midi.NoteOffEvent(tick=240, channel=2, data=[46, 95]),
   midi.NoteOnEvent(tick=0, channel=2, data=[46, 95]),
   midi.NoteOffEvent(tick=240, channel=2, data=[46, 95]),
   midi.NoteOnEvent(tick=0, channel=2, data=[46, 95]),
   midi.NoteOffEvent(tick=240, channel=2, data=[46, 95]),
   midi.NoteOnEvent(tick=0, channel=2, data=[46, 95]),
   midi.NoteOffEvent(tick=240, channel=2, data=[46, 95]),
   midi.NoteOnEvent(tick=0, channel=2, data=[46, 95]),
   midi.NoteOffEvent(tick=240, channel=2, data=[46, 95]),
   midi.NoteOnEvent(tick=0, channel=2, data=[46, 95]),
   midi.NoteOffEvent(tick=240, channel=2, data=[46, 95]),
   midi.NoteOnEvent(tick=0, channel=2, data=[46, 95]),
   midi.NoteOffEvent(tick=240, channel=2, data=[46, 95]),
   midi.NoteOnEvent(tick=0, channel=2, data=[41, 95]),
   midi.NoteOffEvent(tick=240, channel=2, data=[41, 95]),
   midi.NoteOnEvent(tick=0, channel=2, data=[41, 95]),
   midi.NoteOffEvent(tick=240, channel=2, data=[41, 95]),
   midi.NoteOnEvent(tick=0, channel=2, data=[41, 95]),
   midi.NoteOffEvent(tick=240, channel=2, data=[41, 95]),
   midi.NoteOnEvent(tick=0, channel=2, data=[41, 95]),
   midi.NoteOffEvent(tick=240, channel=2, data=[41, 95]),
   midi.NoteOnEvent(tick=0, channel=2, data=[41, 95]),
   midi.NoteOffEvent(tick=240, channel=2, data=[41, 95]),
   midi.NoteOnEvent(tick=0, channel=2, data=[41, 95]),
   midi.NoteOffEvent(tick=240, channel=2, data=[41, 95]),
   midi.NoteOnEvent(tick=0, channel=2, data=[41, 95]),
   midi.NoteOffEvent(tick=240, channel=2, data=[41, 95]),
   midi.NoteOnEvent(tick=0, channel=2, data=[41, 95]),
   midi.NoteOffEvent(tick=240, channel=2, data=[41, 95]),
   midi.NoteOnEvent(tick=0, channel=2, data=[43, 95]),
   midi.NoteOffEvent(tick=240, channel=2, data=[43, 95]),
   midi.NoteOnEvent(tick=0, channel=2, data=[43, 95]),
   midi.NoteOffEvent(tick=240, channel=2, data=[43, 95]),
   midi.NoteOnEvent(tick=0, channel=2, data=[43, 95]),
   midi.NoteOffEvent(tick=240, channel=2, data=[43, 95]),
   midi.NoteOnEvent(tick=0, channel=2, data=[43, 95]),
   midi.NoteOffEvent(tick=240, channel=2, data=[43, 95]),
   midi.NoteOnEvent(tick=0, channel=2, data=[43, 95]),
   midi.NoteOffEvent(tick=240, channel=2, data=[43, 95]),
   midi.NoteOnEvent(tick=0, channel=2, data=[43, 95]),
   midi.NoteOffEvent(tick=240, channel=2, data=[43, 95]),
   midi.NoteOnEvent(tick=0, channel=2, data=[43, 95]),
   midi.NoteOffEvent(tick=240, channel=2, data=[43, 95]),
   midi.NoteOnEvent(tick=0, channel=2, data=[43, 95]),
   midi.NoteOffEvent(tick=240, channel=2, data=[43, 95]),
   midi.NoteOnEvent(tick=0, channel=2, data=[43, 95]),
   midi.NoteOffEvent(tick=240, channel=2, data=[43, 95]),
   midi.NoteOnEvent(tick=0, channel=2, data=[43, 95]),
   midi.NoteOffEvent(tick=240, channel=2, data=[43, 95]),
   midi.NoteOnEvent(tick=0, channel=2, data=[43, 95]),
   midi.NoteOffEvent(tick=240, channel=2, data=[43, 95]),
   midi.NoteOnEvent(tick=0, channel=2, data=[43, 95]),
   midi.NoteOffEvent(tick=240, channel=2, data=[43, 95]),
   midi.NoteOnEvent(tick=0, channel=2, data=[43, 95]),
   midi.NoteOffEvent(tick=240, channel=2, data=[43, 95]),
   midi.NoteOnEvent(tick=0, channel=2, data=[43, 95]),
   midi.NoteOffEvent(tick=240, channel=2, data=[43, 95]),
   midi.NoteOnEvent(tick=0, channel=2, data=[43, 95]),
   midi.NoteOffEvent(tick=240, channel=2, data=[43, 95]),
   midi.NoteOnEvent(tick=0, channel=2, data=[43, 95]),
   midi.NoteOffEvent(tick=240, channel=2, data=[43, 95]),
   midi.NoteOnEvent(tick=0, channel=2, data=[49, 95]),
   midi.NoteOffEvent(tick=240, channel=2, data=[49, 95]),
   midi.NoteOnEvent(tick=0, channel=2, data=[49, 95]),
   midi.NoteOffEvent(tick=240, channel=2, data=[49, 95]),
   midi.NoteOnEvent(tick=0, channel=2, data=[49, 95]),
   midi.NoteOffEvent(tick=240, channel=2, data=[49, 95]),
   midi.NoteOnEvent(tick=0, channel=2, data=[49, 95]),
   midi.NoteOffEvent(tick=240, channel=2, data=[49, 95]),
   midi.NoteOnEvent(tick=0, channel=2, data=[44, 95]),
   midi.NoteOffEvent(tick=240, channel=2, data=[44, 95]),
   midi.NoteOnEvent(tick=0, channel=2, data=[44, 95]),
   midi.NoteOffEvent(tick=240, channel=2, data=[44, 95]),
   midi.NoteOnEvent(tick=0, channel=2, data=[44, 95]),
   midi.NoteOffEvent(tick=240, channel=2, data=[44, 95]),
   midi.NoteOnEvent(tick=0, channel=2, data=[44, 95]),
   midi.NoteOffEvent(tick=240, channel=2, data=[44, 95]),
   midi.NoteOnEvent(tick=0, channel=2, data=[46, 95]),
   midi.NoteOffEvent(tick=240, channel=2, data=[46, 95]),
   midi.NoteOnEvent(tick=0, channel=2, data=[46, 95]),
   midi.NoteOffEvent(tick=240, channel=2, data=[46, 95]),
   midi.NoteOnEvent(tick=0, channel=2, data=[46, 95]),
   midi.NoteOffEvent(tick=240, channel=2, data=[46, 95]),
   midi.NoteOnEvent(tick=0, channel=2, data=[46, 95]),
   midi.NoteOffEvent(tick=240, channel=2, data=[46, 95]),
   midi.NoteOnEvent(tick=0, channel=2, data=[46, 95]),
   midi.NoteOffEvent(tick=240, channel=2, data=[46, 95]),
   midi.NoteOnEvent(tick=0, channel=2, data=[46, 95]),
   midi.NoteOffEvent(tick=240, channel=2, data=[46, 95]),
   midi.NoteOnEvent(tick=0, channel=2, data=[46, 95]),
   midi.NoteOffEvent(tick=240, channel=2, data=[46, 95]),
   midi.NoteOnEvent(tick=0, channel=2, data=[46, 95]),
   midi.NoteOffEvent(tick=240, channel=2, data=[46, 95]),
   midi.NoteOnEvent(tick=0, channel=2, data=[41, 95]),
   midi.NoteOffEvent(tick=240, channel=2, data=[41, 95]),
   midi.NoteOnEvent(tick=0, channel=2, data=[41, 95]),
   midi.NoteOffEvent(tick=240, channel=2, data=[41, 95]),
   midi.NoteOnEvent(tick=0, channel=2, data=[41, 95]),
   midi.NoteOffEvent(tick=240, channel=2, data=[41, 95]),
   midi.NoteOnEvent(tick=0, channel=2, data=[41, 95]),
   midi.NoteOffEvent(tick=240, channel=2, data=[41, 95]),
   midi.NoteOnEvent(tick=0, channel=2, data=[41, 95]),
   midi.NoteOffEvent(tick=240, channel=2, data=[41, 95]),
   midi.NoteOnEvent(tick=0, channel=2, data=[41, 95]),
   midi.NoteOffEvent(tick=240, channel=2, data=[41, 95]),
   midi.NoteOnEvent(tick=0, channel=2, data=[41, 95]),
   midi.NoteOffEvent(tick=240, channel=2, data=[41, 95]),
   midi.NoteOnEvent(tick=0, channel=2, data=[41, 95]),
   midi.NoteOffEvent(tick=240, channel=2, data=[41, 95]),
   midi.NoteOnEvent(tick=0, channel=2, data=[43, 95]),
   midi.NoteOffEvent(tick=240, channel=2, data=[43, 95]),
   midi.NoteOnEvent(tick=0, channel=2, data=[43, 95]),
   midi.NoteOffEvent(tick=240, channel=2, data=[43, 95]),
   midi.NoteOnEvent(tick=0, channel=2, data=[43, 95]),
   midi.NoteOffEvent(tick=240, channel=2, data=[43, 95]),
   midi.NoteOnEvent(tick=0, channel=2, data=[43, 95]),
   midi.NoteOffEvent(tick=240, channel=2, data=[43, 95]),
   midi.NoteOnEvent(tick=0, channel=2, data=[43, 95]),
   midi.NoteOffEvent(tick=240, channel=2, data=[43, 95]),
   midi.NoteOnEvent(tick=0, channel=2, data=[43, 95]),
   midi.NoteOffEvent(tick=240, channel=2, data=[43, 95]),
   midi.NoteOnEvent(tick=0, channel=2, data=[43, 95]),
   midi.NoteOffEvent(tick=240, channel=2, data=[43, 95]),
   midi.NoteOnEvent(tick=0, channel=2, data=[43, 95]),
   midi.NoteOffEvent(tick=240, channel=2, data=[43, 95]),
   midi.NoteOnEvent(tick=0, channel=2, data=[43, 95]),
   midi.NoteOffEvent(tick=240, channel=2, data=[43, 95]),
   midi.NoteOnEvent(tick=0, channel=2, data=[43, 95]),
   midi.NoteOffEvent(tick=240, channel=2, data=[43, 95]),
   midi.NoteOnEvent(tick=0, channel=2, data=[43, 95]),
   midi.NoteOffEvent(tick=240, channel=2, data=[43, 95]),
   midi.NoteOnEvent(tick=0, channel=2, data=[43, 95]),
   midi.NoteOffEvent(tick=240, channel=2, data=[43, 95]),
   midi.NoteOnEvent(tick=0, channel=2, data=[43, 95]),
   midi.NoteOffEvent(tick=240, channel=2, data=[43, 95]),
   midi.NoteOnEvent(tick=0, channel=2, data=[43, 95]),
   midi.NoteOffEvent(tick=240, channel=2, data=[43, 95]),
   midi.NoteOnEvent(tick=0, channel=2, data=[43, 95]),
   midi.NoteOffEvent(tick=240, channel=2, data=[43, 95]),
   midi.NoteOnEvent(tick=0, channel=2, data=[43, 95]),
   midi.NoteOffEvent(tick=240, channel=2, data=[43, 95]),
   midi.NoteOnEvent(tick=0, channel=2, data=[49, 95]),
   midi.NoteOffEvent(tick=240, channel=2, data=[49, 95]),
   midi.NoteOnEvent(tick=0, channel=2, data=[49, 95]),
   midi.NoteOffEvent(tick=240, channel=2, data=[49, 95]),
   midi.NoteOnEvent(tick=0, channel=2, data=[49, 95]),
   midi.NoteOffEvent(tick=240, channel=2, data=[49, 95]),
   midi.NoteOnEvent(tick=0, channel=2, data=[49, 95]),
   midi.NoteOffEvent(tick=240, channel=2, data=[49, 95]),
   midi.NoteOnEvent(tick=0, channel=2, data=[44, 95]),
   midi.NoteOffEvent(tick=240, channel=2, data=[44, 95]),
   midi.NoteOnEvent(tick=0, channel=2, data=[44, 95]),
   midi.NoteOffEvent(tick=240, channel=2, data=[44, 95]),
   midi.NoteOnEvent(tick=0, channel=2, data=[44, 95]),
   midi.NoteOffEvent(tick=240, channel=2, data=[44, 95]),
   midi.NoteOnEvent(tick=0, channel=2, data=[44, 95]),
   midi.NoteOffEvent(tick=240, channel=2, data=[44, 95]),
   midi.NoteOnEvent(tick=0, channel=2, data=[46, 95]),
   midi.NoteOffEvent(tick=240, channel=2, data=[46, 95]),
   midi.NoteOnEvent(tick=0, channel=2, data=[46, 95]),
   midi.NoteOffEvent(tick=240, channel=2, data=[46, 95]),
   midi.NoteOnEvent(tick=0, channel=2, data=[46, 95]),
   midi.NoteOffEvent(tick=240, channel=2, data=[46, 95]),
   midi.NoteOnEvent(tick=0, channel=2, data=[46, 95]),
   midi.NoteOffEvent(tick=240, channel=2, data=[46, 95]),
   midi.NoteOnEvent(tick=0, channel=2, data=[46, 95]),
   midi.NoteOffEvent(tick=240, channel=2, data=[46, 95]),
   midi.NoteOnEvent(tick=0, channel=2, data=[46, 95]),
   midi.NoteOffEvent(tick=240, channel=2, data=[46, 95]),
   midi.NoteOnEvent(tick=0, channel=2, data=[46, 95]),
   midi.NoteOffEvent(tick=240, channel=2, data=[46, 95]),
   midi.NoteOnEvent(tick=0, channel=2, data=[46, 95]),
   midi.NoteOffEvent(tick=240, channel=2, data=[46, 95]),
   midi.NoteOnEvent(tick=0, channel=2, data=[41, 95]),
   midi.NoteOffEvent(tick=240, channel=2, data=[41, 95]),
   midi.NoteOnEvent(tick=0, channel=2, data=[41, 95]),
   midi.NoteOffEvent(tick=240, channel=2, data=[41, 95]),
   midi.NoteOnEvent(tick=0, channel=2, data=[41, 95]),
   midi.NoteOffEvent(tick=240, channel=2, data=[41, 95]),
   midi.NoteOnEvent(tick=0, channel=2, data=[41, 95]),
   midi.NoteOffEvent(tick=240, channel=2, data=[41, 95]),
   midi.NoteOnEvent(tick=0, channel=2, data=[41, 95]),
   midi.NoteOffEvent(tick=240, channel=2, data=[41, 95]),
   midi.NoteOnEvent(tick=0, channel=2, data=[41, 95]),
   midi.NoteOffEvent(tick=240, channel=2, data=[41, 95]),
   midi.NoteOnEvent(tick=0, channel=2, data=[41, 95]),
   midi.NoteOffEvent(tick=240, channel=2, data=[41, 95]),
   midi.NoteOnEvent(tick=0, channel=2, data=[41, 95]),
   midi.NoteOffEvent(tick=240, channel=2, data=[41, 95]),
   midi.NoteOnEvent(tick=0, channel=2, data=[43, 95]),
   midi.NoteOffEvent(tick=240, channel=2, data=[43, 95]),
   midi.NoteOnEvent(tick=0, channel=2, data=[43, 95]),
   midi.NoteOffEvent(tick=240, channel=2, data=[43, 95]),
   midi.NoteOnEvent(tick=0, channel=2, data=[43, 95]),
   midi.NoteOffEvent(tick=240, channel=2, data=[43, 95]),
   midi.NoteOnEvent(tick=0, channel=2, data=[43, 95]),
   midi.NoteOffEvent(tick=240, channel=2, data=[43, 95]),
   midi.NoteOnEvent(tick=0, channel=2, data=[43, 95]),
   midi.NoteOffEvent(tick=240, channel=2, data=[43, 95]),
   midi.NoteOnEvent(tick=0, channel=2, data=[43, 95]),
   midi.NoteOffEvent(tick=240, channel=2, data=[43, 95]),
   midi.NoteOnEvent(tick=0, channel=2, data=[43, 95]),
   midi.NoteOffEvent(tick=240, channel=2, data=[43, 95]),
   midi.NoteOnEvent(tick=0, channel=2, data=[43, 95]),
   midi.NoteOffEvent(tick=240, channel=2, data=[43, 95]),
   midi.NoteOnEvent(tick=0, channel=2, data=[43, 95]),
   midi.NoteOffEvent(tick=240, channel=2, data=[43, 95]),
   midi.NoteOnEvent(tick=0, channel=2, data=[43, 95]),
   midi.NoteOffEvent(tick=240, channel=2, data=[43, 95]),
   midi.NoteOnEvent(tick=0, channel=2, data=[43, 95]),
   midi.NoteOffEvent(tick=240, channel=2, data=[43, 95]),
   midi.NoteOnEvent(tick=0, channel=2, data=[43, 95]),
   midi.NoteOffEvent(tick=240, channel=2, data=[43, 95]),
   midi.NoteOnEvent(tick=0, channel=2, data=[43, 95]),
   midi.NoteOffEvent(tick=240, channel=2, data=[43, 95]),
   midi.NoteOnEvent(tick=0, channel=2, data=[43, 95]),
   midi.NoteOffEvent(tick=240, channel=2, data=[43, 95]),
   midi.NoteOnEvent(tick=0, channel=2, data=[43, 95]),
   midi.NoteOffEvent(tick=240, channel=2, data=[43, 95]),
   midi.NoteOnEvent(tick=0, channel=2, data=[43, 95]),
   midi.NoteOffEvent(tick=240, channel=2, data=[43, 95]),
   midi.NoteOnEvent(tick=0, channel=2, data=[49, 95]),
   midi.NoteOffEvent(tick=240, channel=2, data=[49, 95]),
   midi.NoteOnEvent(tick=0, channel=2, data=[49, 95]),
   midi.NoteOffEvent(tick=240, channel=2, data=[49, 95]),
   midi.NoteOnEvent(tick=0, channel=2, data=[49, 95]),
   midi.NoteOffEvent(tick=240, channel=2, data=[49, 95]),
   midi.NoteOnEvent(tick=0, channel=2, data=[49, 95]),
   midi.NoteOffEvent(tick=240, channel=2, data=[49, 95]),
   midi.NoteOnEvent(tick=0, channel=2, data=[44, 95]),
   midi.NoteOffEvent(tick=240, channel=2, data=[44, 95]),
   midi.NoteOnEvent(tick=0, channel=2, data=[44, 95]),
   midi.NoteOffEvent(tick=240, channel=2, data=[44, 95]),
   midi.NoteOnEvent(tick=0, channel=2, data=[44, 95]),
   midi.NoteOffEvent(tick=240, channel=2, data=[44, 95]),
   midi.NoteOnEvent(tick=0, channel=2, data=[44, 95]),
   midi.NoteOffEvent(tick=240, channel=2, data=[44, 95]),
   midi.NoteOnEvent(tick=0, channel=2, data=[46, 95]),
   midi.NoteOffEvent(tick=240, channel=2, data=[46, 95]),
   midi.NoteOnEvent(tick=0, channel=2, data=[46, 95]),
   midi.NoteOffEvent(tick=240, channel=2, data=[46, 95]),
   midi.NoteOnEvent(tick=0, channel=2, data=[46, 95]),
   midi.NoteOffEvent(tick=240, channel=2, data=[46, 95]),
   midi.NoteOnEvent(tick=0, channel=2, data=[46, 95]),
   midi.NoteOffEvent(tick=240, channel=2, data=[46, 95]),
   midi.NoteOnEvent(tick=0, channel=2, data=[46, 95]),
   midi.NoteOffEvent(tick=240, channel=2, data=[46, 95]),
   midi.NoteOnEvent(tick=0, channel=2, data=[46, 95]),
   midi.NoteOffEvent(tick=240, channel=2, data=[46, 95]),
   midi.NoteOnEvent(tick=0, channel=2, data=[46, 95]),
   midi.NoteOffEvent(tick=240, channel=2, data=[46, 95]),
   midi.NoteOnEvent(tick=0, channel=2, data=[46, 95]),
   midi.NoteOffEvent(tick=240, channel=2, data=[46, 95]),
   midi.NoteOnEvent(tick=0, channel=2, data=[41, 95]),
   midi.NoteOffEvent(tick=240, channel=2, data=[41, 95]),
   midi.NoteOnEvent(tick=0, channel=2, data=[41, 95]),
   midi.NoteOffEvent(tick=240, channel=2, data=[41, 95]),
   midi.NoteOnEvent(tick=0, channel=2, data=[41, 95]),
   midi.NoteOffEvent(tick=240, channel=2, data=[41, 95]),
   midi.NoteOnEvent(tick=0, channel=2, data=[41, 95]),
   midi.NoteOffEvent(tick=240, channel=2, data=[41, 95]),
   midi.NoteOnEvent(tick=0, channel=2, data=[41, 95]),
   midi.NoteOffEvent(tick=240, channel=2, data=[41, 95]),
   midi.NoteOnEvent(tick=0, channel=2, data=[41, 95]),
   midi.NoteOffEvent(tick=240, channel=2, data=[41, 95]),
   midi.NoteOnEvent(tick=0, channel=2, data=[41, 95]),
   midi.NoteOffEvent(tick=240, channel=2, data=[41, 95]),
   midi.NoteOnEvent(tick=0, channel=2, data=[41, 95]),
   midi.NoteOffEvent(tick=240, channel=2, data=[41, 95]),
   midi.NoteOnEvent(tick=0, channel=2, data=[71, 95]),
   midi.NoteOffEvent(tick=240, channel=2, data=[71, 95]),
   midi.NoteOnEvent(tick=0, channel=2, data=[69, 95]),
   midi.NoteOffEvent(tick=240, channel=2, data=[69, 95]),
   midi.NoteOnEvent(tick=0, channel=2, data=[71, 95]),
   midi.NoteOffEvent(tick=240, channel=2, data=[71, 95]),
   midi.NoteOnEvent(tick=0, channel=2, data=[69, 95]),
   midi.NoteOffEvent(tick=240, channel=2, data=[69, 95]),
   midi.NoteOnEvent(tick=0, channel=2, data=[71, 95]),
   midi.NoteOffEvent(tick=240, channel=2, data=[71, 95]),
   midi.NoteOnEvent(tick=0, channel=2, data=[69, 95]),
   midi.NoteOffEvent(tick=240, channel=2, data=[69, 95]),
   midi.NoteOnEvent(tick=0, channel=2, data=[71, 95]),
   midi.NoteOffEvent(tick=240, channel=2, data=[71, 95]),
   midi.NoteOnEvent(tick=0, channel=2, data=[69, 95]),
   midi.NoteOffEvent(tick=240, channel=2, data=[69, 95]),
   midi.NoteOnEvent(tick=0, channel=2, data=[71, 95]),
   midi.NoteOffEvent(tick=240, channel=2, data=[71, 95]),
   midi.NoteOnEvent(tick=0, channel=2, data=[69, 95]),
   midi.NoteOffEvent(tick=240, channel=2, data=[69, 95]),
   midi.NoteOnEvent(tick=0, channel=2, data=[71, 95]),
   midi.NoteOffEvent(tick=240, channel=2, data=[71, 95]),
   midi.NoteOnEvent(tick=0, channel=2, data=[69, 95]),
   midi.NoteOffEvent(tick=240, channel=2, data=[69, 95]),
   midi.NoteOnEvent(tick=0, channel=2, data=[71, 95]),
   midi.NoteOffEvent(tick=240, channel=2, data=[71, 95]),
   midi.NoteOnEvent(tick=0, channel=2, data=[69, 95]),
   midi.NoteOffEvent(tick=240, channel=2, data=[69, 95]),
   midi.NoteOnEvent(tick=0, channel=2, data=[71, 95]),
   midi.NoteOffEvent(tick=240, channel=2, data=[71, 95]),
   midi.NoteOnEvent(tick=0, channel=2, data=[69, 95]),
   midi.NoteOffEvent(tick=240, channel=2, data=[69, 95]),
   midi.PitchWheelEvent(tick=0, channel=3, data=[0, 64]),
   midi.NoteOnEvent(tick=0, channel=3, data=[74, 95]),
   midi.PitchWheelEvent(tick=174, channel=3, data=[0, 63]),
   midi.PitchWheelEvent(tick=174, channel=3, data=[0, 62]),
   midi.PitchWheelEvent(tick=174, channel=3, data=[0, 61]),
   midi.PitchWheelEvent(tick=174, channel=3, data=[0, 60]),
   midi.PitchWheelEvent(tick=174, channel=3, data=[0, 59]),
   midi.PitchWheelEvent(tick=174, channel=3, data=[0, 58]),
   midi.PitchWheelEvent(tick=174, channel=3, data=[0, 57]),
   midi.PitchWheelEvent(tick=174, channel=3, data=[0, 56]),
   midi.PitchWheelEvent(tick=174, channel=3, data=[0, 55]),
   midi.PitchWheelEvent(tick=174, channel=3, data=[0, 54]),
   midi.PitchWheelEvent(tick=174, channel=3, data=[0, 53]),
   midi.PitchWheelEvent(tick=6, channel=3, data=[0, 53]),
   midi.PitchWheelEvent(tick=174, channel=3, data=[0, 54]),
   midi.PitchWheelEvent(tick=174, channel=3, data=[0, 55]),
   midi.PitchWheelEvent(tick=174, channel=3, data=[0, 56]),
   midi.PitchWheelEvent(tick=174, channel=3, data=[0, 57]),
   midi.PitchWheelEvent(tick=174, channel=3, data=[0, 58]),
   midi.PitchWheelEvent(tick=174, channel=3, data=[0, 59]),
   midi.PitchWheelEvent(tick=174, channel=3, data=[0, 60]),
   midi.PitchWheelEvent(tick=174, channel=3, data=[0, 61]),
   midi.PitchWheelEvent(tick=174, channel=3, data=[0, 62]),
   midi.PitchWheelEvent(tick=174, channel=3, data=[0, 63]),
   midi.PitchWheelEvent(tick=174, channel=3, data=[0, 64]),
   midi.PitchWheelEvent(tick=6, channel=3, data=[0, 64]),
   midi.PitchWheelEvent(tick=0, channel=3, data=[0, 64]),
   midi.NoteOffEvent(tick=0, channel=3, data=[74, 95]),
   midi.NoteOnEvent(tick=0, channel=2, data=[71, 95]),
   midi.NoteOffEvent(tick=240, channel=2, data=[71, 95]),
   midi.NoteOnEvent(tick=0, channel=2, data=[69, 95]),
   midi.NoteOffEvent(tick=240, channel=2, data=[69, 95]),
   midi.NoteOnEvent(tick=0, channel=2, data=[71, 95]),
   midi.NoteOffEvent(tick=240, channel=2, data=[71, 95]),
   midi.NoteOnEvent(tick=0, channel=2, data=[69, 95]),
   midi.NoteOffEvent(tick=240, channel=2, data=[69, 95]),
   midi.NoteOnEvent(tick=0, channel=2, data=[71, 95]),
   midi.NoteOffEvent(tick=240, channel=2, data=[71, 95]),
   midi.NoteOnEvent(tick=0, channel=2, data=[69, 95]),
   midi.NoteOffEvent(tick=240, channel=2, data=[69, 95]),
   midi.NoteOnEvent(tick=0, channel=2, data=[71, 95]),
   midi.NoteOffEvent(tick=240, channel=2, data=[71, 95]),
   midi.NoteOnEvent(tick=0, channel=2, data=[69, 95]),
   midi.NoteOffEvent(tick=240, channel=2, data=[69, 95]),
   midi.NoteOnEvent(tick=0, channel=2, data=[71, 95]),
   midi.NoteOffEvent(tick=240, channel=2, data=[71, 95]),
   midi.NoteOnEvent(tick=0, channel=2, data=[69, 95]),
   midi.NoteOffEvent(tick=240, channel=2, data=[69, 95]),
   midi.NoteOnEvent(tick=0, channel=2, data=[71, 95]),
   midi.NoteOffEvent(tick=240, channel=2, data=[71, 95]),
   midi.NoteOnEvent(tick=0, channel=2, data=[69, 95]),
   midi.NoteOffEvent(tick=240, channel=2, data=[69, 95]),
   midi.NoteOnEvent(tick=0, channel=2, data=[71, 95]),
   midi.NoteOffEvent(tick=240, channel=2, data=[71, 95]),
   midi.NoteOnEvent(tick=0, channel=2, data=[69, 95]),
   midi.NoteOffEvent(tick=240, channel=2, data=[69, 95]),
   midi.NoteOnEvent(tick=0, channel=2, data=[71, 95]),
   midi.NoteOffEvent(tick=240, channel=2, data=[71, 95]),
   midi.NoteOnEvent(tick=0, channel=2, data=[69, 95]),
   midi.NoteOffEvent(tick=240, channel=2, data=[69, 95]),
   midi.PitchWheelEvent(tick=0, channel=3, data=[0, 64]),
   midi.NoteOnEvent(tick=0, channel=3, data=[69, 95]),
   midi.PitchWheelEvent(tick=174, channel=3, data=[0, 63]),
   midi.PitchWheelEvent(tick=174, channel=3, data=[0, 62]),
   midi.PitchWheelEvent(tick=174, channel=3, data=[0, 61]),
   midi.PitchWheelEvent(tick=174, channel=3, data=[0, 60]),
   midi.PitchWheelEvent(tick=174, channel=3, data=[0, 59]),
   midi.PitchWheelEvent(tick=174, channel=3, data=[0, 58]),
   midi.PitchWheelEvent(tick=174, channel=3, data=[0, 57]),
   midi.PitchWheelEvent(tick=174, channel=3, data=[0, 56]),
   midi.PitchWheelEvent(tick=174, channel=3, data=[0, 55]),
   midi.PitchWheelEvent(tick=174, channel=3, data=[0, 54]),
   midi.PitchWheelEvent(tick=174, channel=3, data=[0, 53]),
   midi.PitchWheelEvent(tick=6, channel=3, data=[0, 53]),
   midi.PitchWheelEvent(tick=174, channel=3, data=[0, 54]),
   midi.PitchWheelEvent(tick=174, channel=3, data=[0, 55]),
   midi.PitchWheelEvent(tick=174, channel=3, data=[0, 56]),
   midi.PitchWheelEvent(tick=174, channel=3, data=[0, 57]),
   midi.PitchWheelEvent(tick=174, channel=3, data=[0, 58]),
   midi.PitchWheelEvent(tick=174, channel=3, data=[0, 59]),
   midi.PitchWheelEvent(tick=174, channel=3, data=[0, 60]),
   midi.PitchWheelEvent(tick=174, channel=3, data=[0, 61]),
   midi.PitchWheelEvent(tick=174, channel=3, data=[0, 62]),
   midi.PitchWheelEvent(tick=174, channel=3, data=[0, 63]),
   midi.PitchWheelEvent(tick=174, channel=3, data=[0, 64]),
   midi.PitchWheelEvent(tick=6, channel=3, data=[0, 64]),
   midi.PitchWheelEvent(tick=0, channel=3, data=[0, 64]),
   midi.NoteOffEvent(tick=0, channel=3, data=[69, 95]),
   midi.NoteOnEvent(tick=0, channel=2, data=[53, 95]),
   midi.NoteOffEvent(tick=240, channel=2, data=[53, 95]),
   midi.NoteOnEvent(tick=0, channel=2, data=[56, 95]),
   midi.NoteOffEvent(tick=240, channel=2, data=[56, 95]),
   midi.NoteOnEvent(tick=0, channel=2, data=[53, 95]),
   midi.NoteOffEvent(tick=240, channel=2, data=[53, 95]),
   midi.NoteOnEvent(tick=0, channel=2, data=[56, 95]),
   midi.NoteOffEvent(tick=240, channel=2, data=[56, 95]),
   midi.NoteOnEvent(tick=0, channel=2, data=[58, 95]),
   midi.NoteOffEvent(tick=240, channel=2, data=[58, 95]),
   midi.NoteOnEvent(tick=0, channel=2, data=[60, 95]),
   midi.NoteOffEvent(tick=240, channel=2, data=[60, 95]),
   midi.NoteOnEvent(tick=0, channel=2, data=[58, 95]),
   midi.NoteOffEvent(tick=240, channel=2, data=[58, 95]),
   midi.NoteOnEvent(tick=0, channel=2, data=[60, 95]),
   midi.NoteOffEvent(tick=240, channel=2, data=[60, 95]),
   midi.NoteOnEvent(tick=0, channel=2, data=[63, 95]),
   midi.NoteOffEvent(tick=240, channel=2, data=[63, 95]),
   midi.NoteOnEvent(tick=0, channel=2, data=[65, 95]),
   midi.NoteOffEvent(tick=240, channel=2, data=[65, 95]),
   midi.NoteOnEvent(tick=0, channel=2, data=[63, 95]),
   midi.NoteOffEvent(tick=240, channel=2, data=[63, 95]),
   midi.NoteOnEvent(tick=0, channel=2, data=[65, 95]),
   midi.NoteOffEvent(tick=240, channel=2, data=[65, 95]),
   midi.NoteOnEvent(tick=0, channel=2, data=[68, 95]),
   midi.NoteOffEvent(tick=240, channel=2, data=[68, 95]),
   midi.NoteOnEvent(tick=0, channel=2, data=[70, 95]),
   midi.NoteOffEvent(tick=240, channel=2, data=[70, 95]),
   midi.NoteOnEvent(tick=0, channel=2, data=[68, 95]),
   midi.NoteOffEvent(tick=240, channel=2, data=[68, 95]),
   midi.PitchWheelEvent(tick=0, channel=3, data=[0, 64]),
   midi.NoteOnEvent(tick=0, channel=3, data=[70, 95]),
   midi.PitchWheelEvent(tick=10, channel=3, data=[0, 65]),
   midi.PitchWheelEvent(tick=10, channel=3, data=[0, 66]),
   midi.PitchWheelEvent(tick=10, channel=3, data=[0, 67]),
   midi.PitchWheelEvent(tick=10, channel=3, data=[0, 68]),
   midi.PitchWheelEvent(tick=10, channel=3, data=[0, 69]),
   midi.PitchWheelEvent(tick=10, channel=3, data=[0, 70]),
   midi.PitchWheelEvent(tick=10, channel=3, data=[0, 71]),
   midi.PitchWheelEvent(tick=10, channel=3, data=[0, 72]),
   midi.PitchWheelEvent(tick=10, channel=3, data=[0, 73]),
   midi.PitchWheelEvent(tick=10, channel=3, data=[0, 74]),
   midi.PitchWheelEvent(tick=10, channel=3, data=[0, 75]),
   midi.PitchWheelEvent(tick=10, channel=3, data=[0, 75]),
   midi.PitchWheelEvent(tick=120, channel=3, data=[0, 75]),
   midi.PitchWheelEvent(tick=0, channel=3, data=[0, 64]),
   midi.NoteOffEvent(tick=0, channel=3, data=[70, 95]),
   midi.NoteOnEvent(tick=0, channel=2, data=[77, 95]),
   midi.NoteOffEvent(tick=240, channel=2, data=[77, 95]),
   midi.NoteOnEvent(tick=0, channel=2, data=[80, 95]),
   midi.NoteOffEvent(tick=240, channel=2, data=[80, 95]),
   midi.NoteOnEvent(tick=0, channel=2, data=[77, 95]),
   midi.NoteOffEvent(tick=240, channel=2, data=[77, 95]),
   midi.NoteOnEvent(tick=0, channel=2, data=[80, 95]),
   midi.NoteOffEvent(tick=240, channel=2, data=[80, 95]),
   midi.NoteOnEvent(tick=0, channel=2, data=[72, 95]),
   midi.NoteOffEvent(tick=240, channel=2, data=[72, 95]),
   midi.NoteOnEvent(tick=0, channel=2, data=[75, 95]),
   midi.NoteOffEvent(tick=240, channel=2, data=[75, 95]),
   midi.NoteOnEvent(tick=0, channel=2, data=[72, 95]),
   midi.NoteOffEvent(tick=240, channel=2, data=[72, 95]),
   midi.NoteOnEvent(tick=0, channel=2, data=[75, 95]),
   midi.NoteOffEvent(tick=240, channel=2, data=[75, 95]),
   midi.NoteOnEvent(tick=0, channel=2, data=[68, 95]),
   midi.NoteOffEvent(tick=240, channel=2, data=[68, 95]),
   midi.NoteOnEvent(tick=0, channel=2, data=[70, 95]),
   midi.NoteOffEvent(tick=240, channel=2, data=[70, 95]),
   midi.NoteOnEvent(tick=0, channel=2, data=[68, 95]),
   midi.NoteOffEvent(tick=240, channel=2, data=[68, 95]),
   midi.NoteOnEvent(tick=0, channel=2, data=[70, 95]),
   midi.NoteOffEvent(tick=240, channel=2, data=[70, 95]),
   midi.NoteOnEvent(tick=0, channel=2, data=[65, 95]),
   midi.NoteOffEvent(tick=240, channel=2, data=[65, 95]),
   midi.NoteOnEvent(tick=0, channel=2, data=[68, 95]),
   midi.NoteOffEvent(tick=240, channel=2, data=[68, 95]),
   midi.PitchWheelEvent(tick=0, channel=3, data=[0, 64]),
   midi.NoteOnEvent(tick=0, channel=3, data=[70, 95]),
   midi.PitchWheelEvent(tick=21, channel=3, data=[0, 65]),
   midi.PitchWheelEvent(tick=21, channel=3, data=[0, 66]),
   midi.PitchWheelEvent(tick=21, channel=3, data=[0, 67]),
   midi.PitchWheelEvent(tick=21, channel=3, data=[0, 68]),
   midi.PitchWheelEvent(tick=21, channel=3, data=[0, 69]),
   midi.PitchWheelEvent(tick=21, channel=3, data=[0, 70]),
   midi.PitchWheelEvent(tick=21, channel=3, data=[0, 71]),
   midi.PitchWheelEvent(tick=21, channel=3, data=[0, 72]),
   midi.PitchWheelEvent(tick=21, channel=3, data=[0, 73]),
   midi.PitchWheelEvent(tick=21, channel=3, data=[0, 74]),
   midi.PitchWheelEvent(tick=21, channel=3, data=[0, 75]),
   midi.PitchWheelEvent(tick=9, channel=3, data=[0, 75]),
   midi.PitchWheelEvent(tick=240, channel=3, data=[0, 75]),
   midi.PitchWheelEvent(tick=0, channel=3, data=[0, 64]),
   midi.NoteOffEvent(tick=0, channel=3, data=[70, 95]),
   midi.NoteOnEvent(tick=0, channel=3, data=[39, 95]),
   midi.PitchWheelEvent(tick=120, channel=3, data=[0, 83]),
   midi.PitchWheelEvent(tick=120, channel=3, data=[0, 102]),
   midi.PitchWheelEvent(tick=0, channel=3, data=[0, 64]),
   midi.NoteOffEvent(tick=0, channel=3, data=[39, 95]),
   midi.NoteOnEvent(tick=0, channel=3, data=[46, 95]),
   midi.PitchWheelEvent(tick=120, channel=3, data=[0, 66]),
   midi.PitchWheelEvent(tick=120, channel=3, data=[0, 69]),
   midi.PitchWheelEvent(tick=0, channel=3, data=[0, 64]),
   midi.NoteOffEvent(tick=0, channel=3, data=[46, 95]),
   midi.NoteOnEvent(tick=0, channel=3, data=[47, 95]),
   midi.PitchWheelEvent(tick=120, channel=3, data=[0, 69]),
   midi.PitchWheelEvent(tick=120, channel=3, data=[0, 75]),
   midi.PitchWheelEvent(tick=0, channel=3, data=[0, 64]),
   midi.NoteOffEvent(tick=0, channel=3, data=[47, 95]),
   midi.NoteOnEvent(tick=0, channel=2, data=[49, 95]),
   midi.NoteOffEvent(tick=240, channel=2, data=[49, 95]),
   midi.NoteOnEvent(tick=0, channel=2, data=[46, 95]),
   midi.NoteOffEvent(tick=240, channel=2, data=[46, 95]),
   midi.NoteOnEvent(tick=0, channel=2, data=[47, 95]),
   midi.NoteOffEvent(tick=240, channel=2, data=[47, 95]),
   midi.NoteOnEvent(tick=0, channel=2, data=[49, 95]),
   midi.NoteOffEvent(tick=240, channel=2, data=[49, 95]),
   midi.NoteOnEvent(tick=0, channel=2, data=[48, 95]),
   midi.NoteOffEvent(tick=240, channel=2, data=[48, 95]),
   midi.NoteOnEvent(tick=0, channel=2, data=[49, 95]),
   midi.NoteOffEvent(tick=240, channel=2, data=[49, 95]),
   midi.NoteOnEvent(tick=0, channel=2, data=[51, 95]),
   midi.NoteOffEvent(tick=240, channel=2, data=[51, 95]),
   midi.NoteOnEvent(tick=0, channel=2, data=[48, 95]),
   midi.NoteOffEvent(tick=240, channel=2, data=[48, 95]),
   midi.NoteOnEvent(tick=0, channel=2, data=[49, 95]),
   midi.NoteOffEvent(tick=240, channel=2, data=[49, 95]),
   midi.NoteOnEvent(tick=0, channel=2, data=[51, 95]),
   midi.NoteOffEvent(tick=240, channel=2, data=[51, 95]),
   midi.NoteOnEvent(tick=0, channel=2, data=[49, 95]),
   midi.NoteOffEvent(tick=240, channel=2, data=[49, 95]),
   midi.NoteOnEvent(tick=0, channel=2, data=[50, 95]),
   midi.NoteOffEvent(tick=240, channel=2, data=[50, 95]),
   midi.NoteOnEvent(tick=0, channel=2, data=[52, 95]),
   midi.NoteOffEvent(tick=240, channel=2, data=[52, 95]),
   midi.NoteOnEvent(tick=0, channel=2, data=[49, 95]),
   midi.NoteOffEvent(tick=240, channel=2, data=[49, 95]),
   midi.NoteOnEvent(tick=0, channel=2, data=[50, 95]),
   midi.NoteOffEvent(tick=240, channel=2, data=[50, 95]),
   midi.NoteOnEvent(tick=0, channel=2, data=[52, 95]),
   midi.NoteOffEvent(tick=240, channel=2, data=[52, 95]),
   midi.NoteOnEvent(tick=0, channel=2, data=[49, 95]),
   midi.NoteOffEvent(tick=240, channel=2, data=[49, 95]),
   midi.NoteOnEvent(tick=0, channel=2, data=[50, 95]),
   midi.NoteOffEvent(tick=240, channel=2, data=[50, 95]),
   midi.NoteOnEvent(tick=0, channel=2, data=[52, 95]),
   midi.NoteOffEvent(tick=240, channel=2, data=[52, 95]),
   midi.NoteOnEvent(tick=0, channel=2, data=[50, 95]),
   midi.NoteOffEvent(tick=240, channel=2, data=[50, 95]),
   midi.NoteOnEvent(tick=0, channel=2, data=[51, 95]),
   midi.NoteOffEvent(tick=240, channel=2, data=[51, 95]),
   midi.NoteOnEvent(tick=0, channel=2, data=[53, 95]),
   midi.NoteOffEvent(tick=240, channel=2, data=[53, 95]),
   midi.NoteOnEvent(tick=0, channel=2, data=[50, 95]),
   midi.NoteOffEvent(tick=240, channel=2, data=[50, 95]),
   midi.NoteOnEvent(tick=0, channel=2, data=[51, 95]),
   midi.NoteOffEvent(tick=240, channel=2, data=[51, 95]),
   midi.NoteOnEvent(tick=0, channel=2, data=[53, 95]),
   midi.NoteOffEvent(tick=240, channel=2, data=[53, 95]),
   midi.NoteOnEvent(tick=0, channel=2, data=[51, 95]),
   midi.NoteOffEvent(tick=240, channel=2, data=[51, 95]),
   midi.NoteOnEvent(tick=0, channel=2, data=[52, 95]),
   midi.NoteOffEvent(tick=240, channel=2, data=[52, 95]),
   midi.NoteOnEvent(tick=0, channel=2, data=[54, 95]),
   midi.NoteOffEvent(tick=240, channel=2, data=[54, 95]),
   midi.NoteOnEvent(tick=0, channel=2, data=[51, 95]),
   midi.NoteOffEvent(tick=240, channel=2, data=[51, 95]),
   midi.NoteOnEvent(tick=0, channel=2, data=[52, 95]),
   midi.NoteOffEvent(tick=240, channel=2, data=[52, 95]),
   midi.NoteOnEvent(tick=0, channel=2, data=[54, 95]),
   midi.NoteOffEvent(tick=240, channel=2, data=[54, 95]),
   midi.NoteOnEvent(tick=0, channel=2, data=[56, 95]),
   midi.NoteOffEvent(tick=240, channel=2, data=[56, 95]),
   midi.NoteOnEvent(tick=0, channel=2, data=[57, 95]),
   midi.NoteOffEvent(tick=240, channel=2, data=[57, 95]),
   midi.NoteOnEvent(tick=0, channel=2, data=[56, 95]),
   midi.NoteOffEvent(tick=240, channel=2, data=[56, 95]),
   midi.NoteOnEvent(tick=0, channel=2, data=[57, 95]),
   midi.NoteOffEvent(tick=240, channel=2, data=[57, 95]),
   midi.NoteOnEvent(tick=0, channel=2, data=[61, 95]),
   midi.NoteOffEvent(tick=240, channel=2, data=[61, 95]),
   midi.NoteOnEvent(tick=0, channel=2, data=[62, 95]),
   midi.NoteOffEvent(tick=240, channel=2, data=[62, 95]),
   midi.NoteOnEvent(tick=0, channel=2, data=[61, 95]),
   midi.NoteOffEvent(tick=240, channel=2, data=[61, 95]),
   midi.NoteOnEvent(tick=0, channel=2, data=[62, 95]),
   midi.NoteOffEvent(tick=240, channel=2, data=[62, 95]),
   midi.PitchWheelEvent(tick=0, channel=3, data=[0, 64]),
   midi.NoteOnEvent(tick=0, channel=3, data=[85, 95]),
   midi.PitchWheelEvent(tick=65, channel=3, data=[0, 65]),
   midi.PitchWheelEvent(tick=65, channel=3, data=[0, 66]),
   midi.PitchWheelEvent(tick=65, channel=3, data=[0, 67]),
   midi.PitchWheelEvent(tick=65, channel=3, data=[0, 68]),
   midi.PitchWheelEvent(tick=65, channel=3, data=[0, 69]),
   midi.PitchWheelEvent(tick=65, channel=3, data=[0, 70]),
   midi.PitchWheelEvent(tick=65, channel=3, data=[0, 71]),
   midi.PitchWheelEvent(tick=65, channel=3, data=[0, 72]),
   midi.PitchWheelEvent(tick=65, channel=3, data=[0, 73]),
   midi.PitchWheelEvent(tick=65, channel=3, data=[0, 74]),
   midi.PitchWheelEvent(tick=65, channel=3, data=[0, 75]),
   midi.PitchWheelEvent(tick=5, channel=3, data=[0, 75]),
   midi.PitchWheelEvent(tick=720, channel=3, data=[0, 75]),
   midi.PitchWheelEvent(tick=0, channel=3, data=[0, 64]),
   midi.NoteOffEvent(tick=0, channel=3, data=[85, 95]),
   midi.NoteOnEvent(tick=0, channel=2, data=[68, 95]),
   midi.NoteOffEvent(tick=480, channel=2, data=[68, 95]),
   midi.NoteOnEvent(tick=0, channel=2, data=[68, 95]),
   midi.NoteOffEvent(tick=480, channel=2, data=[68, 95]),
   midi.NoteOnEvent(tick=0, channel=2, data=[79, 95]),
   midi.NoteOffEvent(tick=480, channel=2, data=[79, 95]),
   midi.NoteOnEvent(tick=0, channel=2, data=[73, 95]),
   midi.NoteOffEvent(tick=480, channel=2, data=[73, 95]),
   midi.NoteOnEvent(tick=0, channel=2, data=[68, 95]),
   midi.NoteOffEvent(tick=480, channel=2, data=[68, 95]),
   midi.NoteOnEvent(tick=0, channel=2, data=[80, 95]),
   midi.NoteOffEvent(tick=480, channel=2, data=[80, 95]),
   midi.NoteOnEvent(tick=0, channel=2, data=[74, 95]),
   midi.NoteOffEvent(tick=480, channel=2, data=[74, 95]),
   midi.NoteOnEvent(tick=0, channel=2, data=[69, 95]),
   midi.NoteOffEvent(tick=960, channel=2, data=[69, 95]),
   midi.NoteOnEvent(tick=0, channel=2, data=[66, 95]),
   midi.NoteOffEvent(tick=240, channel=2, data=[66, 95]),
   midi.NoteOnEvent(tick=0, channel=2, data=[68, 95]),
   midi.NoteOffEvent(tick=240, channel=2, data=[68, 95]),
   midi.NoteOnEvent(tick=0, channel=2, data=[66, 95]),
   midi.NoteOffEvent(tick=240, channel=2, data=[66, 95]),
   midi.NoteOnEvent(tick=0, channel=2, data=[68, 95]),
   midi.NoteOffEvent(tick=240, channel=2, data=[68, 95]),
   midi.NoteOnEvent(tick=0, channel=2, data=[61, 95]),
   midi.NoteOffEvent(tick=240, channel=2, data=[61, 95]),
   midi.NoteOnEvent(tick=0, channel=2, data=[63, 95]),
   midi.NoteOffEvent(tick=240, channel=2, data=[63, 95]),
   midi.NoteOnEvent(tick=0, channel=2, data=[61, 95]),
   midi.NoteOffEvent(tick=240, channel=2, data=[61, 95]),
   midi.NoteOnEvent(tick=0, channel=2, data=[63, 95]),
   midi.NoteOffEvent(tick=240, channel=2, data=[63, 95]),
   midi.NoteOnEvent(tick=0, channel=2, data=[56, 95]),
   midi.NoteOffEvent(tick=240, channel=2, data=[56, 95]),
   midi.NoteOnEvent(tick=0, channel=2, data=[58, 95]),
   midi.NoteOffEvent(tick=240, channel=2, data=[58, 95]),
   midi.NoteOnEvent(tick=0, channel=2, data=[56, 95]),
   midi.NoteOffEvent(tick=240, channel=2, data=[56, 95]),
   midi.NoteOnEvent(tick=0, channel=2, data=[58, 95]),
   midi.NoteOffEvent(tick=240, channel=2, data=[58, 95]),
   midi.NoteOnEvent(tick=0, channel=2, data=[54, 95]),
   midi.NoteOffEvent(tick=240, channel=2, data=[54, 95]),
   midi.NoteOnEvent(tick=0, channel=2, data=[51, 95]),
   midi.NoteOffEvent(tick=240, channel=2, data=[51, 95]),
   midi.PitchWheelEvent(tick=0, channel=3, data=[0, 64]),
   midi.NoteOnEvent(tick=0, channel=3, data=[78, 95]),
   midi.PitchWheelEvent(tick=698, channel=3, data=[0, 65]),
   midi.PitchWheelEvent(tick=698, channel=3, data=[0, 66]),
   midi.PitchWheelEvent(tick=698, channel=3, data=[0, 67]),
   midi.PitchWheelEvent(tick=698, channel=3, data=[0, 68]),
   midi.PitchWheelEvent(tick=698, channel=3, data=[0, 69]),
   midi.PitchWheelEvent(tick=698, channel=3, data=[0, 70]),
   midi.PitchWheelEvent(tick=698, channel=3, data=[0, 71]),
   midi.PitchWheelEvent(tick=698, channel=3, data=[0, 72]),
   midi.PitchWheelEvent(tick=698, channel=3, data=[0, 73]),
   midi.PitchWheelEvent(tick=698, channel=3, data=[0, 74]),
   midi.PitchWheelEvent(tick=698, channel=3, data=[0, 75]),
   midi.PitchWheelEvent(tick=2, channel=3, data=[0, 75]),
   midi.PitchWheelEvent(tick=7680, channel=3, data=[0, 75]),
   midi.PitchWheelEvent(tick=0, channel=3, data=[0, 64]),
   midi.NoteOffEvent(tick=0, channel=3, data=[78, 95]),
   midi.NoteOnEvent(tick=0, channel=3, data=[78, 95]),
   midi.NoteOffEvent(tick=3840, channel=3, data=[78, 95]),
   midi.NoteOnEvent(tick=0, channel=2, data=[52, 95]),
   midi.NoteOnEvent(tick=0, channel=2, data=[45, 95]),
   midi.NoteOffEvent(tick=4800, channel=2, data=[52, 95]),
   midi.NoteOffEvent(tick=0, channel=2, data=[45, 95]),
   midi.NoteOnEvent(tick=0, channel=2, data=[51, 95]),
   midi.NoteOnEvent(tick=0, channel=2, data=[44, 95]),
   midi.NoteOffEvent(tick=960, channel=2, data=[51, 95]),
   midi.NoteOffEvent(tick=0, channel=2, data=[44, 95]),
   midi.NoteOnEvent(tick=0, channel=2, data=[52, 95]),
   midi.NoteOnEvent(tick=0, channel=2, data=[45, 95]),
   midi.NoteOffEvent(tick=960, channel=2, data=[52, 95]),
   midi.NoteOffEvent(tick=0, channel=2, data=[45, 95]),
   midi.NoteOnEvent(tick=0, channel=2, data=[51, 95]),
   midi.NoteOnEvent(tick=0, channel=2, data=[44, 95]),
   midi.NoteOffEvent(tick=960, channel=2, data=[51, 95]),
   midi.NoteOffEvent(tick=0, channel=2, data=[44, 95]),
   midi.NoteOnEvent(tick=0, channel=2, data=[48, 95]),
   midi.NoteOnEvent(tick=0, channel=2, data=[41, 95]),
   midi.NoteOffEvent(tick=6720, channel=2, data=[48, 95]),
   midi.NoteOffEvent(tick=0, channel=2, data=[41, 95]),
   midi.NoteOnEvent(tick=0, channel=2, data=[51, 95]),
   midi.NoteOnEvent(tick=0, channel=2, data=[44, 95]),
   midi.NoteOffEvent(tick=960, channel=2, data=[51, 95]),
   midi.NoteOffEvent(tick=0, channel=2, data=[44, 95]),
   midi.NoteOnEvent(tick=0, channel=2, data=[52, 95]),
   midi.NoteOnEvent(tick=0, channel=2, data=[45, 95]),
   midi.NoteOffEvent(tick=4800, channel=2, data=[52, 95]),
   midi.NoteOffEvent(tick=0, channel=2, data=[45, 95]),
   midi.NoteOnEvent(tick=0, channel=2, data=[51, 95]),
   midi.NoteOnEvent(tick=0, channel=2, data=[44, 95]),
   midi.NoteOffEvent(tick=480, channel=2, data=[51, 95]),
   midi.NoteOffEvent(tick=0, channel=2, data=[44, 95]),
   midi.NoteOnEvent(tick=0, channel=2, data=[52, 95]),
   midi.NoteOnEvent(tick=0, channel=2, data=[45, 95]),
   midi.NoteOffEvent(tick=480, channel=2, data=[52, 95]),
   midi.NoteOffEvent(tick=0, channel=2, data=[45, 95]),
   midi.NoteOnEvent(tick=0, channel=2, data=[51, 95]),
   midi.NoteOnEvent(tick=0, channel=2, data=[44, 95]),
   midi.NoteOffEvent(tick=480, channel=2, data=[51, 95]),
   midi.NoteOffEvent(tick=0, channel=2, data=[44, 95]),
   midi.NoteOnEvent(tick=0, channel=2, data=[51, 95]),
   midi.NoteOnEvent(tick=0, channel=2, data=[44, 95]),
   midi.NoteOffEvent(tick=480, channel=2, data=[51, 95]),
   midi.NoteOffEvent(tick=0, channel=2, data=[44, 95]),
   midi.NoteOnEvent(tick=0, channel=2, data=[52, 95]),
   midi.NoteOnEvent(tick=0, channel=2, data=[45, 95]),
   midi.NoteOffEvent(tick=480, channel=2, data=[52, 95]),
   midi.NoteOffEvent(tick=0, channel=2, data=[45, 95]),
   midi.NoteOnEvent(tick=0, channel=2, data=[51, 95]),
   midi.NoteOnEvent(tick=0, channel=2, data=[44, 95]),
   midi.NoteOffEvent(tick=480, channel=2, data=[51, 95]),
   midi.NoteOffEvent(tick=0, channel=2, data=[44, 95]),
   midi.NoteOnEvent(tick=0, channel=2, data=[48, 95]),
   midi.NoteOnEvent(tick=0, channel=2, data=[41, 95]),
   midi.NoteOffEvent(tick=6720, channel=2, data=[48, 95]),
   midi.NoteOffEvent(tick=0, channel=2, data=[41, 95]),
   midi.NoteOnEvent(tick=0, channel=2, data=[51, 95]),
   midi.NoteOnEvent(tick=0, channel=2, data=[44, 95]),
   midi.NoteOffEvent(tick=960, channel=2, data=[51, 95]),
   midi.NoteOffEvent(tick=0, channel=2, data=[44, 95]),
   midi.NoteOnEvent(tick=0, channel=2, data=[52, 95]),
   midi.NoteOnEvent(tick=0, channel=2, data=[45, 95]),
   midi.NoteOffEvent(tick=4800, channel=2, data=[52, 95]),
   midi.NoteOffEvent(tick=0, channel=2, data=[45, 95]),
   midi.NoteOnEvent(tick=0, channel=2, data=[51, 95]),
   midi.NoteOnEvent(tick=0, channel=2, data=[44, 95]),
   midi.NoteOffEvent(tick=960, channel=2, data=[51, 95]),
   midi.NoteOffEvent(tick=0, channel=2, data=[44, 95]),
   midi.NoteOnEvent(tick=0, channel=2, data=[52, 95]),
   midi.NoteOnEvent(tick=0, channel=2, data=[45, 95]),
   midi.NoteOffEvent(tick=960, channel=2, data=[52, 95]),
   midi.NoteOffEvent(tick=0, channel=2, data=[45, 95]),
   midi.NoteOnEvent(tick=0, channel=2, data=[51, 95]),
   midi.NoteOnEvent(tick=0, channel=2, data=[44, 95]),
   midi.NoteOffEvent(tick=960, channel=2, data=[51, 95]),
   midi.NoteOffEvent(tick=0, channel=2, data=[44, 95]),
   midi.NoteOnEvent(tick=0, channel=2, data=[48, 95]),
   midi.NoteOnEvent(tick=0, channel=2, data=[41, 95]),
   midi.NoteOffEvent(tick=6720, channel=2, data=[48, 95]),
   midi.NoteOffEvent(tick=0, channel=2, data=[41, 95]),
   midi.NoteOnEvent(tick=0, channel=2, data=[51, 95]),
   midi.NoteOnEvent(tick=0, channel=2, data=[44, 95]),
   midi.NoteOffEvent(tick=960, channel=2, data=[51, 95]),
   midi.NoteOffEvent(tick=0, channel=2, data=[44, 95]),
   midi.NoteOnEvent(tick=0, channel=2, data=[52, 95]),
   midi.NoteOnEvent(tick=0, channel=2, data=[45, 95]),
   midi.NoteOffEvent(tick=4800, channel=2, data=[52, 95]),
   midi.NoteOffEvent(tick=0, channel=2, data=[45, 95]),
   midi.NoteOnEvent(tick=0, channel=2, data=[51, 95]),
   midi.NoteOnEvent(tick=0, channel=2, data=[44, 95]),
   midi.NoteOffEvent(tick=480, channel=2, data=[51, 95]),
   midi.NoteOffEvent(tick=0, channel=2, data=[44, 95]),
   midi.NoteOnEvent(tick=0, channel=2, data=[52, 95]),
   midi.NoteOnEvent(tick=0, channel=2, data=[45, 95]),
   midi.NoteOffEvent(tick=480, channel=2, data=[52, 95]),
   midi.NoteOffEvent(tick=0, channel=2, data=[45, 95]),
   midi.NoteOnEvent(tick=0, channel=2, data=[51, 95]),
   midi.NoteOnEvent(tick=0, channel=2, data=[44, 95]),
   midi.NoteOffEvent(tick=480, channel=2, data=[51, 95]),
   midi.NoteOffEvent(tick=0, channel=2, data=[44, 95]),
   midi.NoteOnEvent(tick=0, channel=2, data=[51, 95]),
   midi.NoteOnEvent(tick=0, channel=2, data=[44, 95]),
   midi.NoteOffEvent(tick=480, channel=2, data=[51, 95]),
   midi.NoteOffEvent(tick=0, channel=2, data=[44, 95]),
   midi.NoteOnEvent(tick=0, channel=2, data=[52, 95]),
   midi.NoteOnEvent(tick=0, channel=2, data=[45, 95]),
   midi.NoteOffEvent(tick=480, channel=2, data=[52, 95]),
   midi.NoteOffEvent(tick=0, channel=2, data=[45, 95]),
   midi.NoteOnEvent(tick=0, channel=2, data=[51, 95]),
   midi.NoteOnEvent(tick=0, channel=2, data=[44, 95]),
   midi.NoteOffEvent(tick=480, channel=2, data=[51, 95]),
   midi.NoteOffEvent(tick=0, channel=2, data=[44, 95]),
   midi.NoteOnEvent(tick=0, channel=2, data=[48, 95]),
   midi.NoteOnEvent(tick=0, channel=2, data=[41, 95]),
   midi.NoteOffEvent(tick=6720, channel=2, data=[48, 95]),
   midi.NoteOffEvent(tick=0, channel=2, data=[41, 95]),
   midi.NoteOnEvent(tick=0, channel=2, data=[51, 95]),
   midi.NoteOnEvent(tick=0, channel=2, data=[44, 95]),
   midi.NoteOffEvent(tick=960, channel=2, data=[51, 95]),
   midi.NoteOffEvent(tick=0, channel=2, data=[44, 95]),
   midi.NoteOnEvent(tick=3840, channel=2, data=[46, 95]),
   midi.NoteOffEvent(tick=240, channel=2, data=[46, 95]),
   midi.NoteOnEvent(tick=0, channel=2, data=[46, 95]),
   midi.NoteOffEvent(tick=240, channel=2, data=[46, 95]),
   midi.NoteOnEvent(tick=0, channel=2, data=[46, 95]),
   midi.NoteOffEvent(tick=240, channel=2, data=[46, 95]),
   midi.NoteOnEvent(tick=0, channel=2, data=[46, 95]),
   midi.NoteOffEvent(tick=240, channel=2, data=[46, 95]),
   midi.NoteOnEvent(tick=0, channel=2, data=[46, 95]),
   midi.NoteOffEvent(tick=240, channel=2, data=[46, 95]),
   midi.NoteOnEvent(tick=0, channel=2, data=[46, 95]),
   midi.NoteOffEvent(tick=240, channel=2, data=[46, 95]),
   midi.NoteOnEvent(tick=0, channel=2, data=[46, 95]),
   midi.NoteOffEvent(tick=240, channel=2, data=[46, 95]),
   midi.NoteOnEvent(tick=0, channel=2, data=[46, 95]),
   midi.NoteOffEvent(tick=240, channel=2, data=[46, 95]),
   midi.NoteOnEvent(tick=0, channel=2, data=[48, 95]),
   midi.NoteOffEvent(tick=640, channel=2, data=[48, 95]),
   midi.NoteOnEvent(tick=0, channel=2, data=[51, 95]),
   midi.NoteOffEvent(tick=640, channel=2, data=[51, 95]),
   midi.NoteOnEvent(tick=0, channel=2, data=[50, 95]),
   midi.NoteOffEvent(tick=640, channel=2, data=[50, 95]),
   midi.NoteOnEvent(tick=0, channel=2, data=[46, 95]),
   midi.NoteOffEvent(tick=240, channel=2, data=[46, 95]),
   midi.NoteOnEvent(tick=0, channel=2, data=[46, 95]),
   midi.NoteOffEvent(tick=240, channel=2, data=[46, 95]),
   midi.NoteOnEvent(tick=0, channel=2, data=[46, 95]),
   midi.NoteOffEvent(tick=240, channel=2, data=[46, 95]),
   midi.NoteOnEvent(tick=0, channel=2, data=[46, 95]),
   midi.NoteOffEvent(tick=240, channel=2, data=[46, 95]),
   midi.NoteOnEvent(tick=0, channel=2, data=[46, 95]),
   midi.NoteOffEvent(tick=240, channel=2, data=[46, 95]),
   midi.NoteOnEvent(tick=0, channel=2, data=[46, 95]),
   midi.NoteOffEvent(tick=240, channel=2, data=[46, 95]),
   midi.NoteOnEvent(tick=0, channel=2, data=[46, 95]),
   midi.NoteOffEvent(tick=240, channel=2, data=[46, 95]),
   midi.NoteOnEvent(tick=0, channel=2, data=[46, 95]),
   midi.NoteOffEvent(tick=240, channel=2, data=[46, 95]),
   midi.NoteOnEvent(tick=0, channel=2, data=[48, 95]),
   midi.NoteOffEvent(tick=640, channel=2, data=[48, 95]),
   midi.NoteOnEvent(tick=0, channel=2, data=[51, 95]),
   midi.NoteOffEvent(tick=640, channel=2, data=[51, 95]),
   midi.NoteOnEvent(tick=0, channel=2, data=[50, 95]),
   midi.NoteOffEvent(tick=640, channel=2, data=[50, 95]),
   midi.NoteOnEvent(tick=0, channel=2, data=[46, 95]),
   midi.NoteOffEvent(tick=240, channel=2, data=[46, 95]),
   midi.NoteOnEvent(tick=0, channel=2, data=[46, 95]),
   midi.NoteOffEvent(tick=240, channel=2, data=[46, 95]),
   midi.NoteOnEvent(tick=0, channel=2, data=[46, 95]),
   midi.NoteOffEvent(tick=240, channel=2, data=[46, 95]),
   midi.NoteOnEvent(tick=0, channel=2, data=[46, 95]),
   midi.NoteOffEvent(tick=240, channel=2, data=[46, 95]),
   midi.NoteOnEvent(tick=0, channel=2, data=[46, 95]),
   midi.NoteOffEvent(tick=240, channel=2, data=[46, 95]),
   midi.NoteOnEvent(tick=0, channel=2, data=[46, 95]),
   midi.NoteOffEvent(tick=240, channel=2, data=[46, 95]),
   midi.NoteOnEvent(tick=0, channel=2, data=[46, 95]),
   midi.NoteOffEvent(tick=240, channel=2, data=[46, 95]),
   midi.NoteOnEvent(tick=0, channel=2, data=[46, 95]),
   midi.NoteOffEvent(tick=240, channel=2, data=[46, 95]),
   midi.NoteOnEvent(tick=0, channel=2, data=[48, 95]),
   midi.NoteOffEvent(tick=640, channel=2, data=[48, 95]),
   midi.NoteOnEvent(tick=0, channel=2, data=[51, 95]),
   midi.NoteOffEvent(tick=640, channel=2, data=[51, 95]),
   midi.NoteOnEvent(tick=0, channel=2, data=[50, 95]),
   midi.NoteOffEvent(tick=640, channel=2, data=[50, 95]),
   midi.NoteOnEvent(tick=0, channel=2, data=[46, 95]),
   midi.NoteOffEvent(tick=240, channel=2, data=[46, 95]),
   midi.NoteOnEvent(tick=0, channel=2, data=[46, 95]),
   midi.NoteOffEvent(tick=240, channel=2, data=[46, 95]),
   midi.NoteOnEvent(tick=0, channel=2, data=[46, 95]),
   midi.NoteOffEvent(tick=240, channel=2, data=[46, 95]),
   midi.NoteOnEvent(tick=0, channel=2, data=[46, 95]),
   midi.NoteOffEvent(tick=240, channel=2, data=[46, 95]),
   midi.NoteOnEvent(tick=0, channel=2, data=[46, 95]),
   midi.NoteOffEvent(tick=240, channel=2, data=[46, 95]),
   midi.NoteOnEvent(tick=0, channel=2, data=[46, 95]),
   midi.NoteOffEvent(tick=240, channel=2, data=[46, 95]),
   midi.NoteOnEvent(tick=0, channel=2, data=[46, 95]),
   midi.NoteOffEvent(tick=240, channel=2, data=[46, 95]),
   midi.NoteOnEvent(tick=0, channel=2, data=[46, 95]),
   midi.NoteOffEvent(tick=240, channel=2, data=[46, 95]),
   midi.NoteOnEvent(tick=0, channel=2, data=[47, 95]),
   midi.NoteOffEvent(tick=640, channel=2, data=[47, 95]),
   midi.NoteOnEvent(tick=0, channel=2, data=[48, 95]),
   midi.NoteOffEvent(tick=640, channel=2, data=[48, 95]),
   midi.NoteOnEvent(tick=0, channel=2, data=[49, 95]),
   midi.NoteOffEvent(tick=640, channel=2, data=[49, 95]),
   midi.NoteOnEvent(tick=0, channel=2, data=[46, 95]),
   midi.NoteOffEvent(tick=240, channel=2, data=[46, 95]),
   midi.NoteOnEvent(tick=0, channel=2, data=[46, 95]),
   midi.NoteOffEvent(tick=240, channel=2, data=[46, 95]),
   midi.NoteOnEvent(tick=0, channel=2, data=[46, 95]),
   midi.NoteOffEvent(tick=240, channel=2, data=[46, 95]),
   midi.NoteOnEvent(tick=0, channel=2, data=[46, 95]),
   midi.NoteOffEvent(tick=240, channel=2, data=[46, 95]),
   midi.NoteOnEvent(tick=0, channel=2, data=[46, 95]),
   midi.NoteOffEvent(tick=240, channel=2, data=[46, 95]),
   midi.NoteOnEvent(tick=0, channel=2, data=[46, 95]),
   midi.NoteOffEvent(tick=240, channel=2, data=[46, 95]),
   midi.NoteOnEvent(tick=0, channel=2, data=[46, 95]),
   midi.NoteOffEvent(tick=240, channel=2, data=[46, 95]),
   midi.NoteOnEvent(tick=0, channel=2, data=[46, 95]),
   midi.NoteOffEvent(tick=240, channel=2, data=[46, 95]),
   midi.NoteOnEvent(tick=0, channel=2, data=[48, 95]),
   midi.NoteOffEvent(tick=640, channel=2, data=[48, 95]),
   midi.NoteOnEvent(tick=0, channel=2, data=[51, 95]),
   midi.NoteOffEvent(tick=640, channel=2, data=[51, 95]),
   midi.NoteOnEvent(tick=0, channel=2, data=[50, 95]),
   midi.NoteOffEvent(tick=640, channel=2, data=[50, 95]),
   midi.NoteOnEvent(tick=0, channel=2, data=[46, 95]),
   midi.NoteOffEvent(tick=240, channel=2, data=[46, 95]),
   midi.NoteOnEvent(tick=0, channel=2, data=[46, 95]),
   midi.NoteOffEvent(tick=240, channel=2, data=[46, 95]),
   midi.NoteOnEvent(tick=0, channel=2, data=[46, 95]),
   midi.NoteOffEvent(tick=240, channel=2, data=[46, 95]),
   midi.NoteOnEvent(tick=0, channel=2, data=[46, 95]),
   midi.NoteOffEvent(tick=240, channel=2, data=[46, 95]),
   midi.NoteOnEvent(tick=0, channel=2, data=[46, 95]),
   midi.NoteOffEvent(tick=240, channel=2, data=[46, 95]),
   midi.NoteOnEvent(tick=0, channel=2, data=[46, 95]),
   midi.NoteOffEvent(tick=240, channel=2, data=[46, 95]),
   midi.NoteOnEvent(tick=0, channel=2, data=[46, 95]),
   midi.NoteOffEvent(tick=240, channel=2, data=[46, 95]),
   midi.NoteOnEvent(tick=0, channel=2, data=[46, 95]),
   midi.NoteOffEvent(tick=240, channel=2, data=[46, 95]),
   midi.NoteOnEvent(tick=0, channel=2, data=[48, 95]),
   midi.NoteOffEvent(tick=640, channel=2, data=[48, 95]),
   midi.NoteOnEvent(tick=0, channel=2, data=[51, 95]),
   midi.NoteOffEvent(tick=640, channel=2, data=[51, 95]),
   midi.NoteOnEvent(tick=0, channel=2, data=[50, 95]),
   midi.NoteOffEvent(tick=640, channel=2, data=[50, 95]),
   midi.NoteOnEvent(tick=0, channel=2, data=[46, 95]),
   midi.NoteOffEvent(tick=240, channel=2, data=[46, 95]),
   midi.NoteOnEvent(tick=0, channel=2, data=[46, 95]),
   midi.NoteOffEvent(tick=240, channel=2, data=[46, 95]),
   midi.NoteOnEvent(tick=0, channel=2, data=[46, 95]),
   midi.NoteOffEvent(tick=240, channel=2, data=[46, 95]),
   midi.NoteOnEvent(tick=0, channel=2, data=[46, 95]),
   midi.NoteOffEvent(tick=240, channel=2, data=[46, 95]),
   midi.NoteOnEvent(tick=0, channel=2, data=[46, 95]),
   midi.NoteOffEvent(tick=240, channel=2, data=[46, 95]),
   midi.NoteOnEvent(tick=0, channel=2, data=[46, 95]),
   midi.NoteOffEvent(tick=240, channel=2, data=[46, 95]),
   midi.NoteOnEvent(tick=0, channel=2, data=[46, 95]),
   midi.NoteOffEvent(tick=240, channel=2, data=[46, 95]),
   midi.NoteOnEvent(tick=0, channel=2, data=[46, 95]),
   midi.NoteOffEvent(tick=240, channel=2, data=[46, 95]),
   midi.NoteOnEvent(tick=0, channel=2, data=[48, 95]),
   midi.NoteOffEvent(tick=640, channel=2, data=[48, 95]),
   midi.NoteOnEvent(tick=0, channel=2, data=[51, 95]),
   midi.NoteOffEvent(tick=640, channel=2, data=[51, 95]),
   midi.NoteOnEvent(tick=0, channel=2, data=[50, 95]),
   midi.NoteOffEvent(tick=640, channel=2, data=[50, 95]),
   midi.NoteOnEvent(tick=0, channel=2, data=[46, 95]),
   midi.NoteOffEvent(tick=240, channel=2, data=[46, 95]),
   midi.NoteOnEvent(tick=0, channel=2, data=[46, 95]),
   midi.NoteOffEvent(tick=240, channel=2, data=[46, 95]),
   midi.NoteOnEvent(tick=0, channel=2, data=[46, 95]),
   midi.NoteOffEvent(tick=240, channel=2, data=[46, 95]),
   midi.NoteOnEvent(tick=0, channel=2, data=[46, 95]),
   midi.NoteOffEvent(tick=240, channel=2, data=[46, 95]),
   midi.NoteOnEvent(tick=0, channel=2, data=[46, 95]),
   midi.NoteOffEvent(tick=240, channel=2, data=[46, 95]),
   midi.NoteOnEvent(tick=0, channel=2, data=[46, 95]),
   midi.NoteOffEvent(tick=240, channel=2, data=[46, 95]),
   midi.NoteOnEvent(tick=0, channel=2, data=[46, 95]),
   midi.NoteOffEvent(tick=240, channel=2, data=[46, 95]),
   midi.NoteOnEvent(tick=0, channel=2, data=[46, 95]),
   midi.NoteOffEvent(tick=240, channel=2, data=[46, 95]),
   midi.NoteOnEvent(tick=0, channel=2, data=[47, 95]),
   midi.NoteOffEvent(tick=640, channel=2, data=[47, 95]),
   midi.NoteOnEvent(tick=0, channel=2, data=[48, 95]),
   midi.NoteOffEvent(tick=640, channel=2, data=[48, 95]),
   midi.NoteOnEvent(tick=0, channel=2, data=[49, 95]),
   midi.NoteOffEvent(tick=640, channel=2, data=[49, 95]),
   midi.NoteOnEvent(tick=0, channel=2, data=[46, 95]),
   midi.NoteOffEvent(tick=240, channel=2, data=[46, 95]),
   midi.NoteOnEvent(tick=0, channel=2, data=[46, 95]),
   midi.NoteOffEvent(tick=240, channel=2, data=[46, 95]),
   midi.NoteOnEvent(tick=0, channel=2, data=[46, 95]),
   midi.NoteOffEvent(tick=240, channel=2, data=[46, 95]),
   midi.NoteOnEvent(tick=0, channel=2, data=[46, 95]),
   midi.NoteOffEvent(tick=240, channel=2, data=[46, 95]),
   midi.NoteOnEvent(tick=0, channel=2, data=[46, 95]),
   midi.NoteOffEvent(tick=240, channel=2, data=[46, 95]),
   midi.NoteOnEvent(tick=0, channel=2, data=[46, 95]),
   midi.NoteOffEvent(tick=240, channel=2, data=[46, 95]),
   midi.NoteOnEvent(tick=0, channel=2, data=[46, 95]),
   midi.NoteOffEvent(tick=240, channel=2, data=[46, 95]),
   midi.NoteOnEvent(tick=0, channel=2, data=[46, 95]),
   midi.NoteOffEvent(tick=240, channel=2, data=[46, 95]),
   midi.NoteOnEvent(tick=0, channel=2, data=[48, 95]),
   midi.NoteOffEvent(tick=640, channel=2, data=[48, 95]),
   midi.NoteOnEvent(tick=0, channel=2, data=[51, 95]),
   midi.NoteOffEvent(tick=640, channel=2, data=[51, 95]),
   midi.NoteOnEvent(tick=0, channel=2, data=[50, 95]),
   midi.NoteOffEvent(tick=640, channel=2, data=[50, 95]),
   midi.NoteOnEvent(tick=0, channel=2, data=[46, 95]),
   midi.NoteOffEvent(tick=240, channel=2, data=[46, 95]),
   midi.NoteOnEvent(tick=0, channel=2, data=[46, 95]),
   midi.NoteOffEvent(tick=240, channel=2, data=[46, 95]),
   midi.NoteOnEvent(tick=0, channel=2, data=[46, 95]),
   midi.NoteOffEvent(tick=240, channel=2, data=[46, 95]),
   midi.NoteOnEvent(tick=0, channel=2, data=[46, 95]),
   midi.NoteOffEvent(tick=240, channel=2, data=[46, 95]),
   midi.NoteOnEvent(tick=0, channel=2, data=[46, 95]),
   midi.NoteOffEvent(tick=240, channel=2, data=[46, 95]),
   midi.NoteOnEvent(tick=0, channel=2, data=[46, 95]),
   midi.NoteOffEvent(tick=240, channel=2, data=[46, 95]),
   midi.NoteOnEvent(tick=0, channel=2, data=[46, 95]),
   midi.NoteOffEvent(tick=240, channel=2, data=[46, 95]),
   midi.NoteOnEvent(tick=0, channel=2, data=[46, 95]),
   midi.NoteOffEvent(tick=240, channel=2, data=[46, 95]),
   midi.NoteOnEvent(tick=0, channel=2, data=[48, 95]),
   midi.NoteOffEvent(tick=640, channel=2, data=[48, 95]),
   midi.NoteOnEvent(tick=0, channel=2, data=[51, 95]),
   midi.NoteOffEvent(tick=640, channel=2, data=[51, 95]),
   midi.NoteOnEvent(tick=0, channel=2, data=[50, 95]),
   midi.NoteOffEvent(tick=640, channel=2, data=[50, 95]),
   midi.NoteOnEvent(tick=0, channel=2, data=[46, 95]),
   midi.NoteOffEvent(tick=240, channel=2, data=[46, 95]),
   midi.NoteOnEvent(tick=0, channel=2, data=[46, 95]),
   midi.NoteOffEvent(tick=240, channel=2, data=[46, 95]),
   midi.NoteOnEvent(tick=0, channel=2, data=[46, 95]),
   midi.NoteOffEvent(tick=240, channel=2, data=[46, 95]),
   midi.NoteOnEvent(tick=0, channel=2, data=[46, 95]),
   midi.NoteOffEvent(tick=240, channel=2, data=[46, 95]),
   midi.NoteOnEvent(tick=0, channel=2, data=[46, 95]),
   midi.NoteOffEvent(tick=240, channel=2, data=[46, 95]),
   midi.NoteOnEvent(tick=0, channel=2, data=[46, 95]),
   midi.NoteOffEvent(tick=240, channel=2, data=[46, 95]),
   midi.NoteOnEvent(tick=0, channel=2, data=[46, 95]),
   midi.NoteOffEvent(tick=240, channel=2, data=[46, 95]),
   midi.NoteOnEvent(tick=0, channel=2, data=[46, 95]),
   midi.NoteOffEvent(tick=240, channel=2, data=[46, 95]),
   midi.NoteOnEvent(tick=0, channel=2, data=[48, 95]),
   midi.NoteOffEvent(tick=640, channel=2, data=[48, 95]),
   midi.NoteOnEvent(tick=0, channel=2, data=[51, 95]),
   midi.NoteOffEvent(tick=640, channel=2, data=[51, 95]),
   midi.NoteOnEvent(tick=0, channel=2, data=[50, 95]),
   midi.NoteOffEvent(tick=640, channel=2, data=[50, 95]),
   midi.NoteOnEvent(tick=0, channel=2, data=[46, 95]),
   midi.NoteOffEvent(tick=240, channel=2, data=[46, 95]),
   midi.NoteOnEvent(tick=0, channel=2, data=[46, 95]),
   midi.NoteOffEvent(tick=240, channel=2, data=[46, 95]),
   midi.NoteOnEvent(tick=0, channel=2, data=[46, 95]),
   midi.NoteOffEvent(tick=240, channel=2, data=[46, 95]),
   midi.NoteOnEvent(tick=0, channel=2, data=[46, 95]),
   midi.NoteOffEvent(tick=240, channel=2, data=[46, 95]),
   midi.NoteOnEvent(tick=0, channel=2, data=[46, 95]),
   midi.NoteOffEvent(tick=240, channel=2, data=[46, 95]),
   midi.NoteOnEvent(tick=0, channel=2, data=[46, 95]),
   midi.NoteOffEvent(tick=240, channel=2, data=[46, 95]),
   midi.NoteOnEvent(tick=0, channel=2, data=[46, 95]),
   midi.NoteOffEvent(tick=240, channel=2, data=[46, 95]),
   midi.NoteOnEvent(tick=0, channel=2, data=[46, 95]),
   midi.NoteOffEvent(tick=240, channel=2, data=[46, 95]),
   midi.NoteOnEvent(tick=0, channel=2, data=[47, 95]),
   midi.NoteOffEvent(tick=640, channel=2, data=[47, 95]),
   midi.NoteOnEvent(tick=0, channel=2, data=[48, 95]),
   midi.NoteOffEvent(tick=640, channel=2, data=[48, 95]),
   midi.NoteOnEvent(tick=0, channel=2, data=[49, 95]),
   midi.NoteOffEvent(tick=640, channel=2, data=[49, 95]),
   midi.NoteOnEvent(tick=0, channel=2, data=[46, 95]),
   midi.NoteOffEvent(tick=240, channel=2, data=[46, 95]),
   midi.NoteOnEvent(tick=0, channel=2, data=[46, 95]),
   midi.NoteOffEvent(tick=240, channel=2, data=[46, 95]),
   midi.NoteOnEvent(tick=0, channel=2, data=[46, 95]),
   midi.NoteOffEvent(tick=240, channel=2, data=[46, 95]),
   midi.NoteOnEvent(tick=0, channel=2, data=[46, 95]),
   midi.NoteOffEvent(tick=240, channel=2, data=[46, 95]),
   midi.NoteOnEvent(tick=0, channel=2, data=[46, 95]),
   midi.NoteOffEvent(tick=240, channel=2, data=[46, 95]),
   midi.NoteOnEvent(tick=0, channel=2, data=[46, 95]),
   midi.NoteOffEvent(tick=240, channel=2, data=[46, 95]),
   midi.NoteOnEvent(tick=0, channel=2, data=[46, 95]),
   midi.NoteOffEvent(tick=240, channel=2, data=[46, 95]),
   midi.NoteOnEvent(tick=0, channel=2, data=[46, 95]),
   midi.NoteOffEvent(tick=240, channel=2, data=[46, 95]),
   midi.NoteOnEvent(tick=0, channel=2, data=[48, 95]),
   midi.NoteOffEvent(tick=640, channel=2, data=[48, 95]),
   midi.NoteOnEvent(tick=0, channel=2, data=[51, 95]),
   midi.NoteOffEvent(tick=640, channel=2, data=[51, 95]),
   midi.NoteOnEvent(tick=0, channel=2, data=[50, 95]),
   midi.NoteOffEvent(tick=640, channel=2, data=[50, 95]),
   midi.NoteOnEvent(tick=0, channel=2, data=[46, 95]),
   midi.NoteOffEvent(tick=240, channel=2, data=[46, 95]),
   midi.NoteOnEvent(tick=0, channel=2, data=[46, 95]),
   midi.NoteOffEvent(tick=240, channel=2, data=[46, 95]),
   midi.NoteOnEvent(tick=0, channel=2, data=[46, 95]),
   midi.NoteOffEvent(tick=240, channel=2, data=[46, 95]),
   midi.NoteOnEvent(tick=0, channel=2, data=[46, 95]),
   midi.NoteOffEvent(tick=240, channel=2, data=[46, 95]),
   midi.NoteOnEvent(tick=0, channel=2, data=[46, 95]),
   midi.NoteOffEvent(tick=240, channel=2, data=[46, 95]),
   midi.NoteOnEvent(tick=0, channel=2, data=[46, 95]),
   midi.NoteOffEvent(tick=240, channel=2, data=[46, 95]),
   midi.NoteOnEvent(tick=0, channel=2, data=[46, 95]),
   midi.NoteOffEvent(tick=240, channel=2, data=[46, 95]),
   midi.NoteOnEvent(tick=0, channel=2, data=[46, 95]),
   midi.NoteOffEvent(tick=240, channel=2, data=[46, 95]),
   midi.NoteOnEvent(tick=0, channel=2, data=[48, 95]),
   midi.NoteOffEvent(tick=640, channel=2, data=[48, 95]),
   midi.NoteOnEvent(tick=0, channel=2, data=[51, 95]),
   midi.NoteOffEvent(tick=640, channel=2, data=[51, 95]),
   midi.NoteOnEvent(tick=0, channel=2, data=[50, 95]),
   midi.NoteOffEvent(tick=640, channel=2, data=[50, 95]),
   midi.NoteOnEvent(tick=0, channel=2, data=[46, 95]),
   midi.NoteOffEvent(tick=240, channel=2, data=[46, 95]),
   midi.NoteOnEvent(tick=0, channel=2, data=[46, 95]),
   midi.NoteOffEvent(tick=240, channel=2, data=[46, 95]),
   midi.NoteOnEvent(tick=0, channel=2, data=[46, 95]),
   midi.NoteOffEvent(tick=240, channel=2, data=[46, 95]),
   midi.NoteOnEvent(tick=0, channel=2, data=[46, 95]),
   midi.NoteOffEvent(tick=240, channel=2, data=[46, 95]),
   midi.NoteOnEvent(tick=0, channel=2, data=[46, 95]),
   midi.NoteOffEvent(tick=240, channel=2, data=[46, 95]),
   midi.NoteOnEvent(tick=0, channel=2, data=[46, 95]),
   midi.NoteOffEvent(tick=240, channel=2, data=[46, 95]),
   midi.NoteOnEvent(tick=0, channel=2, data=[46, 95]),
   midi.NoteOffEvent(tick=240, channel=2, data=[46, 95]),
   midi.NoteOnEvent(tick=0, channel=2, data=[46, 95]),
   midi.NoteOffEvent(tick=240, channel=2, data=[46, 95]),
   midi.NoteOnEvent(tick=0, channel=2, data=[48, 95]),
   midi.NoteOffEvent(tick=640, channel=2, data=[48, 95]),
   midi.NoteOnEvent(tick=0, channel=2, data=[51, 95]),
   midi.NoteOffEvent(tick=640, channel=2, data=[51, 95]),
   midi.NoteOnEvent(tick=0, channel=2, data=[50, 95]),
   midi.NoteOffEvent(tick=640, channel=2, data=[50, 95]),
   midi.NoteOnEvent(tick=0, channel=2, data=[46, 95]),
   midi.NoteOffEvent(tick=240, channel=2, data=[46, 95]),
   midi.NoteOnEvent(tick=0, channel=2, data=[46, 95]),
   midi.NoteOffEvent(tick=240, channel=2, data=[46, 95]),
   midi.NoteOnEvent(tick=0, channel=2, data=[46, 95]),
   midi.NoteOffEvent(tick=240, channel=2, data=[46, 95]),
   midi.NoteOnEvent(tick=0, channel=2, data=[46, 95]),
   midi.NoteOffEvent(tick=240, channel=2, data=[46, 95]),
   midi.NoteOnEvent(tick=0, channel=2, data=[46, 95]),
   midi.NoteOffEvent(tick=240, channel=2, data=[46, 95]),
   midi.NoteOnEvent(tick=0, channel=2, data=[46, 95]),
   midi.NoteOffEvent(tick=240, channel=2, data=[46, 95]),
   midi.NoteOnEvent(tick=0, channel=2, data=[46, 95]),
   midi.NoteOffEvent(tick=240, channel=2, data=[46, 95]),
   midi.NoteOnEvent(tick=0, channel=2, data=[46, 95]),
   midi.NoteOffEvent(tick=240, channel=2, data=[46, 95]),
   midi.NoteOnEvent(tick=0, channel=2, data=[47, 95]),
   midi.NoteOffEvent(tick=640, channel=2, data=[47, 95]),
   midi.NoteOnEvent(tick=0, channel=2, data=[48, 95]),
   midi.NoteOffEvent(tick=640, channel=2, data=[48, 95]),
   midi.NoteOnEvent(tick=0, channel=2, data=[49, 95]),
   midi.NoteOffEvent(tick=640, channel=2, data=[49, 95]),
   midi.NoteOnEvent(tick=0, channel=2, data=[46, 95]),
   midi.NoteOffEvent(tick=240, channel=2, data=[46, 95]),
   midi.NoteOnEvent(tick=0, channel=2, data=[46, 95]),
   midi.NoteOffEvent(tick=240, channel=2, data=[46, 95]),
   midi.NoteOnEvent(tick=0, channel=2, data=[46, 95]),
   midi.NoteOffEvent(tick=240, channel=2, data=[46, 95]),
   midi.NoteOnEvent(tick=0, channel=2, data=[46, 95]),
   midi.NoteOffEvent(tick=240, channel=2, data=[46, 95]),
   midi.NoteOnEvent(tick=0, channel=2, data=[46, 95]),
   midi.NoteOffEvent(tick=240, channel=2, data=[46, 95]),
   midi.NoteOnEvent(tick=0, channel=2, data=[46, 95]),
   midi.NoteOffEvent(tick=240, channel=2, data=[46, 95]),
   midi.NoteOnEvent(tick=0, channel=2, data=[46, 95]),
   midi.NoteOffEvent(tick=240, channel=2, data=[46, 95]),
   midi.NoteOnEvent(tick=0, channel=2, data=[46, 95]),
   midi.NoteOffEvent(tick=240, channel=2, data=[46, 95]),
   midi.NoteOnEvent(tick=0, channel=2, data=[48, 95]),
   midi.NoteOffEvent(tick=640, channel=2, data=[48, 95]),
   midi.NoteOnEvent(tick=0, channel=2, data=[51, 95]),
   midi.NoteOffEvent(tick=640, channel=2, data=[51, 95]),
   midi.NoteOnEvent(tick=0, channel=2, data=[50, 95]),
   midi.NoteOffEvent(tick=640, channel=2, data=[50, 95]),
   midi.NoteOnEvent(tick=0, channel=2, data=[46, 95]),
   midi.NoteOffEvent(tick=240, channel=2, data=[46, 95]),
   midi.NoteOnEvent(tick=0, channel=2, data=[46, 95]),
   midi.NoteOffEvent(tick=240, channel=2, data=[46, 95]),
   midi.NoteOnEvent(tick=0, channel=2, data=[46, 95]),
   midi.NoteOffEvent(tick=240, channel=2, data=[46, 95]),
   midi.NoteOnEvent(tick=0, channel=2, data=[46, 95]),
   midi.NoteOffEvent(tick=240, channel=2, data=[46, 95]),
   midi.NoteOnEvent(tick=0, channel=2, data=[46, 95]),
   midi.NoteOffEvent(tick=240, channel=2, data=[46, 95]),
   midi.NoteOnEvent(tick=0, channel=2, data=[46, 95]),
   midi.NoteOffEvent(tick=240, channel=2, data=[46, 95]),
   midi.NoteOnEvent(tick=0, channel=2, data=[46, 95]),
   midi.NoteOffEvent(tick=240, channel=2, data=[46, 95]),
   midi.NoteOnEvent(tick=0, channel=2, data=[46, 95]),
   midi.NoteOffEvent(tick=240, channel=2, data=[46, 95]),
   midi.NoteOnEvent(tick=0, channel=2, data=[48, 95]),
   midi.NoteOffEvent(tick=640, channel=2, data=[48, 95]),
   midi.NoteOnEvent(tick=0, channel=2, data=[51, 95]),
   midi.NoteOffEvent(tick=640, channel=2, data=[51, 95]),
   midi.NoteOnEvent(tick=0, channel=2, data=[50, 95]),
   midi.NoteOffEvent(tick=640, channel=2, data=[50, 95]),
   midi.NoteOnEvent(tick=0, channel=2, data=[46, 95]),
   midi.NoteOffEvent(tick=240, channel=2, data=[46, 95]),
   midi.NoteOnEvent(tick=0, channel=2, data=[46, 95]),
   midi.NoteOffEvent(tick=240, channel=2, data=[46, 95]),
   midi.NoteOnEvent(tick=0, channel=2, data=[46, 95]),
   midi.NoteOffEvent(tick=240, channel=2, data=[46, 95]),
   midi.NoteOnEvent(tick=0, channel=2, data=[46, 95]),
   midi.NoteOffEvent(tick=240, channel=2, data=[46, 95]),
   midi.NoteOnEvent(tick=0, channel=2, data=[46, 95]),
   midi.NoteOffEvent(tick=240, channel=2, data=[46, 95]),
   midi.NoteOnEvent(tick=0, channel=2, data=[46, 95]),
   midi.NoteOffEvent(tick=240, channel=2, data=[46, 95]),
   midi.NoteOnEvent(tick=0, channel=2, data=[46, 95]),
   midi.NoteOffEvent(tick=240, channel=2, data=[46, 95]),
   midi.NoteOnEvent(tick=0, channel=2, data=[46, 95]),
   midi.NoteOffEvent(tick=240, channel=2, data=[46, 95]),
   midi.NoteOnEvent(tick=0, channel=2, data=[48, 95]),
   midi.NoteOffEvent(tick=640, channel=2, data=[48, 95]),
   midi.NoteOnEvent(tick=0, channel=2, data=[51, 95]),
   midi.NoteOffEvent(tick=640, channel=2, data=[51, 95]),
   midi.NoteOnEvent(tick=0, channel=2, data=[50, 95]),
   midi.NoteOffEvent(tick=640, channel=2, data=[50, 95]),
   midi.NoteOnEvent(tick=0, channel=2, data=[46, 95]),
   midi.NoteOffEvent(tick=240, channel=2, data=[46, 95]),
   midi.NoteOnEvent(tick=0, channel=2, data=[46, 95]),
   midi.NoteOffEvent(tick=240, channel=2, data=[46, 95]),
   midi.NoteOnEvent(tick=0, channel=2, data=[46, 95]),
   midi.NoteOffEvent(tick=240, channel=2, data=[46, 95]),
   midi.NoteOnEvent(tick=0, channel=2, data=[46, 95]),
   midi.NoteOffEvent(tick=240, channel=2, data=[46, 95]),
   midi.NoteOnEvent(tick=0, channel=2, data=[46, 95]),
   midi.NoteOffEvent(tick=240, channel=2, data=[46, 95]),
   midi.NoteOnEvent(tick=0, channel=2, data=[46, 95]),
   midi.NoteOffEvent(tick=240, channel=2, data=[46, 95]),
   midi.NoteOnEvent(tick=0, channel=2, data=[46, 95]),
   midi.NoteOffEvent(tick=240, channel=2, data=[46, 95]),
   midi.NoteOnEvent(tick=0, channel=2, data=[46, 95]),
   midi.NoteOffEvent(tick=240, channel=2, data=[46, 95]),
   midi.NoteOnEvent(tick=0, channel=2, data=[47, 95]),
   midi.NoteOffEvent(tick=640, channel=2, data=[47, 95]),
   midi.NoteOnEvent(tick=0, channel=2, data=[48, 95]),
   midi.NoteOffEvent(tick=640, channel=2, data=[48, 95]),
   midi.NoteOnEvent(tick=0, channel=2, data=[49, 95]),
   midi.NoteOffEvent(tick=640, channel=2, data=[49, 95]),
   midi.NoteOnEvent(tick=0, channel=2, data=[46, 95]),
   midi.NoteOffEvent(tick=240, channel=2, data=[46, 95]),
   midi.NoteOnEvent(tick=0, channel=2, data=[46, 95]),
   midi.NoteOffEvent(tick=240, channel=2, data=[46, 95]),
   midi.NoteOnEvent(tick=0, channel=2, data=[46, 95]),
   midi.NoteOffEvent(tick=240, channel=2, data=[46, 95]),
   midi.NoteOnEvent(tick=0, channel=2, data=[46, 95]),
   midi.NoteOffEvent(tick=240, channel=2, data=[46, 95]),
   midi.NoteOnEvent(tick=0, channel=2, data=[46, 95]),
   midi.NoteOffEvent(tick=240, channel=2, data=[46, 95]),
   midi.NoteOnEvent(tick=0, channel=2, data=[46, 95]),
   midi.NoteOffEvent(tick=240, channel=2, data=[46, 95]),
   midi.NoteOnEvent(tick=0, channel=2, data=[46, 95]),
   midi.NoteOffEvent(tick=240, channel=2, data=[46, 95]),
   midi.NoteOnEvent(tick=0, channel=2, data=[46, 95]),
   midi.NoteOffEvent(tick=240, channel=2, data=[46, 95]),
   midi.NoteOnEvent(tick=0, channel=2, data=[48, 95]),
   midi.NoteOffEvent(tick=640, channel=2, data=[48, 95]),
   midi.NoteOnEvent(tick=0, channel=2, data=[51, 95]),
   midi.NoteOffEvent(tick=640, channel=2, data=[51, 95]),
   midi.NoteOnEvent(tick=0, channel=2, data=[50, 95]),
   midi.NoteOffEvent(tick=640, channel=2, data=[50, 95]),
   midi.NoteOnEvent(tick=0, channel=2, data=[46, 95]),
   midi.NoteOffEvent(tick=240, channel=2, data=[46, 95]),
   midi.NoteOnEvent(tick=0, channel=2, data=[46, 95]),
   midi.NoteOffEvent(tick=240, channel=2, data=[46, 95]),
   midi.NoteOnEvent(tick=0, channel=2, data=[46, 95]),
   midi.NoteOffEvent(tick=240, channel=2, data=[46, 95]),
   midi.NoteOnEvent(tick=0, channel=2, data=[46, 95]),
   midi.NoteOffEvent(tick=240, channel=2, data=[46, 95]),
   midi.NoteOnEvent(tick=0, channel=2, data=[46, 95]),
   midi.NoteOffEvent(tick=240, channel=2, data=[46, 95]),
   midi.NoteOnEvent(tick=0, channel=2, data=[46, 95]),
   midi.NoteOffEvent(tick=240, channel=2, data=[46, 95]),
   midi.NoteOnEvent(tick=0, channel=2, data=[46, 95]),
   midi.NoteOffEvent(tick=240, channel=2, data=[46, 95]),
   midi.NoteOnEvent(tick=0, channel=2, data=[46, 95]),
   midi.NoteOffEvent(tick=240, channel=2, data=[46, 95]),
   midi.NoteOnEvent(tick=0, channel=2, data=[48, 95]),
   midi.NoteOffEvent(tick=640, channel=2, data=[48, 95]),
   midi.NoteOnEvent(tick=0, channel=2, data=[51, 95]),
   midi.NoteOffEvent(tick=640, channel=2, data=[51, 95]),
   midi.NoteOnEvent(tick=0, channel=2, data=[50, 95]),
   midi.NoteOffEvent(tick=640, channel=2, data=[50, 95]),
   midi.NoteOnEvent(tick=0, channel=2, data=[46, 95]),
   midi.NoteOffEvent(tick=240, channel=2, data=[46, 95]),
   midi.NoteOnEvent(tick=0, channel=2, data=[46, 95]),
   midi.NoteOffEvent(tick=240, channel=2, data=[46, 95]),
   midi.NoteOnEvent(tick=0, channel=2, data=[46, 95]),
   midi.NoteOffEvent(tick=240, channel=2, data=[46, 95]),
   midi.NoteOnEvent(tick=0, channel=2, data=[46, 95]),
   midi.NoteOffEvent(tick=240, channel=2, data=[46, 95]),
   midi.NoteOnEvent(tick=0, channel=2, data=[46, 95]),
   midi.NoteOffEvent(tick=240, channel=2, data=[46, 95]),
   midi.NoteOnEvent(tick=0, channel=2, data=[46, 95]),
   midi.NoteOffEvent(tick=240, channel=2, data=[46, 95]),
   midi.NoteOnEvent(tick=0, channel=2, data=[46, 95]),
   midi.NoteOffEvent(tick=240, channel=2, data=[46, 95]),
   midi.NoteOnEvent(tick=0, channel=2, data=[46, 95]),
   midi.NoteOffEvent(tick=240, channel=2, data=[46, 95]),
   midi.NoteOnEvent(tick=0, channel=2, data=[48, 95]),
   midi.NoteOffEvent(tick=640, channel=2, data=[48, 95]),
   midi.NoteOnEvent(tick=0, channel=2, data=[51, 95]),
   midi.NoteOffEvent(tick=640, channel=2, data=[51, 95]),
   midi.NoteOnEvent(tick=0, channel=2, data=[50, 95]),
   midi.NoteOffEvent(tick=640, channel=2, data=[50, 95]),
   midi.NoteOnEvent(tick=0, channel=2, data=[46, 95]),
   midi.NoteOffEvent(tick=240, channel=2, data=[46, 95]),
   midi.NoteOnEvent(tick=0, channel=2, data=[46, 95]),
   midi.NoteOffEvent(tick=240, channel=2, data=[46, 95]),
   midi.NoteOnEvent(tick=0, channel=2, data=[46, 95]),
   midi.NoteOffEvent(tick=240, channel=2, data=[46, 95]),
   midi.NoteOnEvent(tick=0, channel=2, data=[46, 95]),
   midi.NoteOffEvent(tick=240, channel=2, data=[46, 95]),
   midi.NoteOnEvent(tick=0, channel=2, data=[46, 95]),
   midi.NoteOffEvent(tick=240, channel=2, data=[46, 95]),
   midi.NoteOnEvent(tick=0, channel=2, data=[46, 95]),
   midi.NoteOffEvent(tick=240, channel=2, data=[46, 95]),
   midi.NoteOnEvent(tick=0, channel=2, data=[46, 95]),
   midi.NoteOffEvent(tick=240, channel=2, data=[46, 95]),
   midi.NoteOnEvent(tick=0, channel=2, data=[46, 95]),
   midi.NoteOffEvent(tick=240, channel=2, data=[46, 95]),
   midi.NoteOnEvent(tick=0, channel=2, data=[47, 95]),
   midi.NoteOffEvent(tick=640, channel=2, data=[47, 95]),
   midi.NoteOnEvent(tick=0, channel=2, data=[48, 95]),
   midi.NoteOffEvent(tick=640, channel=2, data=[48, 95]),
   midi.NoteOnEvent(tick=0, channel=2, data=[49, 95]),
   midi.NoteOffEvent(tick=640, channel=2, data=[49, 95]),
   midi.NoteOnEvent(tick=0, channel=2, data=[42, 95]),
   midi.NoteOffEvent(tick=640, channel=2, data=[42, 95]),
   midi.NoteOnEvent(tick=0, channel=2, data=[43, 95]),
   midi.NoteOffEvent(tick=640, channel=2, data=[43, 95]),
   midi.NoteOnEvent(tick=0, channel=2, data=[44, 95]),
   midi.NoteOffEvent(tick=640, channel=2, data=[44, 95]),
   midi.NoteOnEvent(tick=0, channel=2, data=[42, 95]),
   midi.NoteOffEvent(tick=640, channel=2, data=[42, 95]),
   midi.NoteOnEvent(tick=0, channel=2, data=[43, 95]),
   midi.NoteOffEvent(tick=640, channel=2, data=[43, 95]),
   midi.NoteOnEvent(tick=0, channel=2, data=[44, 95]),
   midi.NoteOffEvent(tick=640, channel=2, data=[44, 95]),
   midi.NoteOnEvent(tick=0, channel=2, data=[52, 95]),
   midi.NoteOnEvent(tick=0, channel=2, data=[45, 95]),
   midi.NoteOffEvent(tick=4800, channel=2, data=[52, 95]),
   midi.NoteOffEvent(tick=0, channel=2, data=[45, 95]),
   midi.NoteOnEvent(tick=0, channel=2, data=[51, 95]),
   midi.NoteOnEvent(tick=0, channel=2, data=[44, 95]),
   midi.NoteOffEvent(tick=960, channel=2, data=[51, 95]),
   midi.NoteOffEvent(tick=0, channel=2, data=[44, 95]),
   midi.NoteOnEvent(tick=0, channel=2, data=[52, 95]),
   midi.NoteOnEvent(tick=0, channel=2, data=[45, 95]),
   midi.NoteOffEvent(tick=960, channel=2, data=[52, 95]),
   midi.NoteOffEvent(tick=0, channel=2, data=[45, 95]),
   midi.NoteOnEvent(tick=0, channel=2, data=[51, 95]),
   midi.NoteOnEvent(tick=0, channel=2, data=[44, 95]),
   midi.NoteOffEvent(tick=960, channel=2, data=[51, 95]),
   midi.NoteOffEvent(tick=0, channel=2, data=[44, 95]),
   midi.NoteOnEvent(tick=0, channel=2, data=[48, 95]),
   midi.NoteOnEvent(tick=0, channel=2, data=[41, 95]),
   midi.NoteOffEvent(tick=6720, channel=2, data=[48, 95]),
   midi.NoteOffEvent(tick=0, channel=2, data=[41, 95]),
   midi.NoteOnEvent(tick=0, channel=2, data=[51, 95]),
   midi.NoteOnEvent(tick=0, channel=2, data=[44, 95]),
   midi.NoteOffEvent(tick=960, channel=2, data=[51, 95]),
   midi.NoteOffEvent(tick=0, channel=2, data=[44, 95]),
   midi.NoteOnEvent(tick=0, channel=2, data=[52, 95]),
   midi.NoteOnEvent(tick=0, channel=2, data=[45, 95]),
   midi.NoteOffEvent(tick=4800, channel=2, data=[52, 95]),
   midi.NoteOffEvent(tick=0, channel=2, data=[45, 95]),
   midi.NoteOnEvent(tick=0, channel=2, data=[51, 95]),
   midi.NoteOnEvent(tick=0, channel=2, data=[44, 95]),
   midi.NoteOffEvent(tick=480, channel=2, data=[51, 95]),
   midi.NoteOffEvent(tick=0, channel=2, data=[44, 95]),
   midi.NoteOnEvent(tick=0, channel=2, data=[52, 95]),
   midi.NoteOnEvent(tick=0, channel=2, data=[45, 95]),
   midi.NoteOffEvent(tick=480, channel=2, data=[52, 95]),
   midi.NoteOffEvent(tick=0, channel=2, data=[45, 95]),
   midi.NoteOnEvent(tick=0, channel=2, data=[51, 95]),
   midi.NoteOnEvent(tick=0, channel=2, data=[44, 95]),
   midi.NoteOffEvent(tick=480, channel=2, data=[51, 95]),
   midi.NoteOffEvent(tick=0, channel=2, data=[44, 95]),
   midi.NoteOnEvent(tick=0, channel=2, data=[51, 95]),
   midi.NoteOnEvent(tick=0, channel=2, data=[44, 95]),
   midi.NoteOffEvent(tick=480, channel=2, data=[51, 95]),
   midi.NoteOffEvent(tick=0, channel=2, data=[44, 95]),
   midi.NoteOnEvent(tick=0, channel=2, data=[52, 95]),
   midi.NoteOnEvent(tick=0, channel=2, data=[45, 95]),
   midi.NoteOffEvent(tick=480, channel=2, data=[52, 95]),
   midi.NoteOffEvent(tick=0, channel=2, data=[45, 95]),
   midi.NoteOnEvent(tick=0, channel=2, data=[51, 95]),
   midi.NoteOnEvent(tick=0, channel=2, data=[44, 95]),
   midi.NoteOffEvent(tick=480, channel=2, data=[51, 95]),
   midi.NoteOffEvent(tick=0, channel=2, data=[44, 95]),
   midi.NoteOnEvent(tick=0, channel=2, data=[48, 95]),
   midi.NoteOnEvent(tick=0, channel=2, data=[41, 95]),
   midi.NoteOffEvent(tick=6720, channel=2, data=[48, 95]),
   midi.NoteOffEvent(tick=0, channel=2, data=[41, 95]),
   midi.NoteOnEvent(tick=0, channel=3, data=[51, 95]),
   midi.NoteOnEvent(tick=0, channel=3, data=[44, 95]),
   midi.PitchWheelEvent(tick=120, channel=3, data=[0, 67]),
   midi.PitchWheelEvent(tick=120, channel=3, data=[0, 70]),
   midi.PitchWheelEvent(tick=120, channel=3, data=[0, 74]),
   midi.PitchWheelEvent(tick=120, channel=3, data=[0, 77]),
   midi.PitchWheelEvent(tick=120, channel=3, data=[0, 81]),
   midi.PitchWheelEvent(tick=120, channel=3, data=[0, 84]),
   midi.PitchWheelEvent(tick=120, channel=3, data=[0, 88]),
   midi.NoteOffEvent(tick=120, channel=3, data=[51, 95]),
   midi.PitchWheelEvent(tick=0, channel=3, data=[0, 91]),
   midi.PitchWheelEvent(tick=0, channel=3, data=[0, 64]),
   midi.NoteOffEvent(tick=0, channel=3, data=[44, 95]),
   midi.NoteOnEvent(tick=0, channel=2, data=[52, 95]),
   midi.NoteOnEvent(tick=0, channel=2, data=[45, 95]),
   midi.NoteOffEvent(tick=4800, channel=2, data=[52, 95]),
   midi.NoteOffEvent(tick=0, channel=2, data=[45, 95]),
   midi.NoteOnEvent(tick=0, channel=2, data=[51, 95]),
   midi.NoteOnEvent(tick=0, channel=2, data=[44, 95]),
   midi.NoteOffEvent(tick=960, channel=2, data=[51, 95]),
   midi.NoteOffEvent(tick=0, channel=2, data=[44, 95]),
   midi.NoteOnEvent(tick=0, channel=2, data=[52, 95]),
   midi.NoteOnEvent(tick=0, channel=2, data=[45, 95]),
   midi.NoteOffEvent(tick=960, channel=2, data=[52, 95]),
   midi.NoteOffEvent(tick=0, channel=2, data=[45, 95]),
   midi.NoteOnEvent(tick=0, channel=2, data=[51, 95]),
   midi.NoteOnEvent(tick=0, channel=2, data=[44, 95]),
   midi.NoteOffEvent(tick=960, channel=2, data=[51, 95]),
   midi.NoteOffEvent(tick=0, channel=2, data=[44, 95]),
   midi.NoteOnEvent(tick=0, channel=2, data=[48, 95]),
   midi.NoteOnEvent(tick=0, channel=2, data=[41, 95]),
   midi.NoteOffEvent(tick=6720, channel=2, data=[48, 95]),
   midi.NoteOffEvent(tick=0, channel=2, data=[41, 95]),
   midi.NoteOnEvent(tick=0, channel=2, data=[51, 95]),
   midi.NoteOnEvent(tick=0, channel=2, data=[44, 95]),
   midi.NoteOffEvent(tick=960, channel=2, data=[51, 95]),
   midi.NoteOffEvent(tick=0, channel=2, data=[44, 95]),
   midi.NoteOnEvent(tick=0, channel=2, data=[52, 95]),
   midi.NoteOnEvent(tick=0, channel=2, data=[45, 95]),
   midi.NoteOffEvent(tick=4800, channel=2, data=[52, 95]),
   midi.NoteOffEvent(tick=0, channel=2, data=[45, 95]),
   midi.NoteOnEvent(tick=0, channel=2, data=[51, 95]),
   midi.NoteOnEvent(tick=0, channel=2, data=[44, 95]),
   midi.NoteOffEvent(tick=480, channel=2, data=[51, 95]),
   midi.NoteOffEvent(tick=0, channel=2, data=[44, 95]),
   midi.NoteOnEvent(tick=0, channel=2, data=[52, 95]),
   midi.NoteOnEvent(tick=0, channel=2, data=[45, 95]),
   midi.NoteOffEvent(tick=480, channel=2, data=[52, 95]),
   midi.NoteOffEvent(tick=0, channel=2, data=[45, 95]),
   midi.NoteOnEvent(tick=0, channel=2, data=[51, 95]),
   midi.NoteOnEvent(tick=0, channel=2, data=[44, 95]),
   midi.NoteOffEvent(tick=480, channel=2, data=[51, 95]),
   midi.NoteOffEvent(tick=0, channel=2, data=[44, 95]),
   midi.NoteOnEvent(tick=0, channel=2, data=[51, 95]),
   midi.NoteOnEvent(tick=0, channel=2, data=[44, 95]),
   midi.NoteOffEvent(tick=480, channel=2, data=[51, 95]),
   midi.NoteOffEvent(tick=0, channel=2, data=[44, 95]),
   midi.NoteOnEvent(tick=0, channel=2, data=[52, 95]),
   midi.NoteOnEvent(tick=0, channel=2, data=[45, 95]),
   midi.NoteOffEvent(tick=480, channel=2, data=[52, 95]),
   midi.NoteOffEvent(tick=0, channel=2, data=[45, 95]),
   midi.NoteOnEvent(tick=0, channel=2, data=[51, 95]),
   midi.NoteOnEvent(tick=0, channel=2, data=[44, 95]),
   midi.NoteOffEvent(tick=480, channel=2, data=[51, 95]),
   midi.NoteOffEvent(tick=0, channel=2, data=[44, 95]),
   midi.NoteOnEvent(tick=0, channel=2, data=[48, 95]),
   midi.NoteOnEvent(tick=0, channel=2, data=[41, 95]),
   midi.NoteOffEvent(tick=6720, channel=2, data=[48, 95]),
   midi.NoteOffEvent(tick=0, channel=2, data=[41, 95]),
   midi.NoteOnEvent(tick=0, channel=3, data=[51, 95]),
   midi.NoteOnEvent(tick=0, channel=3, data=[44, 95]),
   midi.PitchWheelEvent(tick=120, channel=3, data=[0, 67]),
   midi.PitchWheelEvent(tick=120, channel=3, data=[0, 70]),
   midi.PitchWheelEvent(tick=120, channel=3, data=[0, 74]),
   midi.PitchWheelEvent(tick=120, channel=3, data=[0, 77]),
   midi.PitchWheelEvent(tick=120, channel=3, data=[0, 81]),
   midi.PitchWheelEvent(tick=120, channel=3, data=[0, 84]),
   midi.PitchWheelEvent(tick=120, channel=3, data=[0, 88]),
   midi.NoteOffEvent(tick=120, channel=3, data=[51, 95]),
   midi.PitchWheelEvent(tick=0, channel=3, data=[0, 91]),
   midi.PitchWheelEvent(tick=0, channel=3, data=[0, 64]),
   midi.NoteOffEvent(tick=0, channel=3, data=[44, 95]),
   midi.NoteOnEvent(tick=0, channel=2, data=[49, 95]),
   midi.NoteOffEvent(tick=480, channel=2, data=[49, 95]),
   midi.NoteOnEvent(tick=0, channel=2, data=[41, 95]),
   midi.NoteOffEvent(tick=240, channel=2, data=[41, 95]),
   midi.NoteOnEvent(tick=0, channel=2, data=[41, 95]),
   midi.NoteOffEvent(tick=240, channel=2, data=[41, 95]),
   midi.NoteOnEvent(tick=0, channel=2, data=[41, 95]),
   midi.NoteOffEvent(tick=240, channel=2, data=[41, 95]),
   midi.NoteOnEvent(tick=0, channel=2, data=[41, 95]),
   midi.NoteOffEvent(tick=240, channel=2, data=[41, 95]),
   midi.NoteOnEvent(tick=0, channel=2, data=[41, 95]),
   midi.NoteOffEvent(tick=480, channel=2, data=[41, 95]),
   midi.NoteOnEvent(tick=0, channel=2, data=[48, 95]),
   midi.NoteOffEvent(tick=480, channel=2, data=[48, 95]),
   midi.NoteOnEvent(tick=0, channel=2, data=[41, 95]),
   midi.NoteOffEvent(tick=240, channel=2, data=[41, 95]),
   midi.NoteOnEvent(tick=0, channel=2, data=[41, 95]),
   midi.NoteOffEvent(tick=240, channel=2, data=[41, 95]),
   midi.NoteOnEvent(tick=0, channel=2, data=[41, 95]),
   midi.NoteOffEvent(tick=240, channel=2, data=[41, 95]),
   midi.NoteOnEvent(tick=0, channel=2, data=[41, 95]),
   midi.NoteOffEvent(tick=240, channel=2, data=[41, 95]),
   midi.NoteOnEvent(tick=0, channel=2, data=[41, 95]),
   midi.NoteOffEvent(tick=480, channel=2, data=[41, 95]),
   midi.NoteOnEvent(tick=0, channel=2, data=[52, 95]),
   midi.NoteOffEvent(tick=480, channel=2, data=[52, 95]),
   midi.NoteOnEvent(tick=0, channel=2, data=[41, 95]),
   midi.NoteOffEvent(tick=240, channel=2, data=[41, 95]),
   midi.NoteOnEvent(tick=0, channel=2, data=[41, 95]),
   midi.NoteOffEvent(tick=240, channel=2, data=[41, 95]),
   midi.NoteOnEvent(tick=0, channel=2, data=[41, 95]),
   midi.NoteOffEvent(tick=480, channel=2, data=[41, 95]),
   midi.NoteOnEvent(tick=0, channel=2, data=[51, 95]),
   midi.NoteOffEvent(tick=480, channel=2, data=[51, 95]),
   midi.NoteOnEvent(tick=0, channel=2, data=[41, 95]),
   midi.NoteOffEvent(tick=240, channel=2, data=[41, 95]),
   midi.NoteOnEvent(tick=0, channel=2, data=[41, 95]),
   midi.NoteOffEvent(tick=240, channel=2, data=[41, 95]),
   midi.NoteOnEvent(tick=0, channel=2, data=[41, 95]),
   midi.NoteOffEvent(tick=480, channel=2, data=[41, 95]),
   midi.NoteOnEvent(tick=0, channel=2, data=[47, 95]),
   midi.NoteOffEvent(tick=480, channel=2, data=[47, 95]),
   midi.NoteOnEvent(tick=0, channel=2, data=[41, 95]),
   midi.NoteOffEvent(tick=480, channel=2, data=[41, 95]),
   midi.NoteOnEvent(tick=0, channel=2, data=[49, 95]),
   midi.NoteOffEvent(tick=480, channel=2, data=[49, 95]),
   midi.NoteOnEvent(tick=0, channel=2, data=[41, 95]),
   midi.NoteOffEvent(tick=240, channel=2, data=[41, 95]),
   midi.NoteOnEvent(tick=0, channel=2, data=[41, 95]),
   midi.NoteOffEvent(tick=240, channel=2, data=[41, 95]),
   midi.NoteOnEvent(tick=0, channel=2, data=[41, 95]),
   midi.NoteOffEvent(tick=240, channel=2, data=[41, 95]),
   midi.NoteOnEvent(tick=0, channel=2, data=[41, 95]),
   midi.NoteOffEvent(tick=240, channel=2, data=[41, 95]),
   midi.NoteOnEvent(tick=0, channel=2, data=[41, 95]),
   midi.NoteOffEvent(tick=480, channel=2, data=[41, 95]),
   midi.NoteOnEvent(tick=0, channel=2, data=[48, 95]),
   midi.NoteOffEvent(tick=480, channel=2, data=[48, 95]),
   midi.NoteOnEvent(tick=0, channel=2, data=[41, 95]),
   midi.NoteOffEvent(tick=240, channel=2, data=[41, 95]),
   midi.NoteOnEvent(tick=0, channel=2, data=[41, 95]),
   midi.NoteOffEvent(tick=240, channel=2, data=[41, 95]),
   midi.NoteOnEvent(tick=0, channel=2, data=[41, 95]),
   midi.NoteOffEvent(tick=240, channel=2, data=[41, 95]),
   midi.NoteOnEvent(tick=0, channel=2, data=[41, 95]),
   midi.NoteOffEvent(tick=240, channel=2, data=[41, 95]),
   midi.NoteOnEvent(tick=0, channel=2, data=[41, 95]),
   midi.NoteOffEvent(tick=480, channel=2, data=[41, 95]),
   midi.NoteOnEvent(tick=0, channel=2, data=[52, 95]),
   midi.NoteOffEvent(tick=480, channel=2, data=[52, 95]),
   midi.NoteOnEvent(tick=0, channel=2, data=[41, 95]),
   midi.NoteOffEvent(tick=240, channel=2, data=[41, 95]),
   midi.NoteOnEvent(tick=0, channel=2, data=[41, 95]),
   midi.NoteOffEvent(tick=240, channel=2, data=[41, 95]),
   midi.NoteOnEvent(tick=0, channel=2, data=[41, 95]),
   midi.NoteOffEvent(tick=480, channel=2, data=[41, 95]),
   midi.NoteOnEvent(tick=0, channel=2, data=[51, 95]),
   midi.NoteOffEvent(tick=480, channel=2, data=[51, 95]),
   midi.NoteOnEvent(tick=0, channel=2, data=[41, 95]),
   midi.NoteOffEvent(tick=240, channel=2, data=[41, 95]),
   midi.NoteOnEvent(tick=0, channel=2, data=[41, 95]),
   midi.NoteOffEvent(tick=240, channel=2, data=[41, 95]),
   midi.NoteOnEvent(tick=0, channel=2, data=[41, 95]),
   midi.NoteOffEvent(tick=480, channel=2, data=[41, 95]),
   midi.NoteOnEvent(tick=0, channel=2, data=[47, 95]),
   midi.NoteOffEvent(tick=480, channel=2, data=[47, 95]),
   midi.NoteOnEvent(tick=0, channel=2, data=[41, 95]),
   midi.NoteOffEvent(tick=480, channel=2, data=[41, 95]),
   midi.NoteOnEvent(tick=0, channel=2, data=[49, 95]),
   midi.NoteOffEvent(tick=480, channel=2, data=[49, 95]),
   midi.NoteOnEvent(tick=0, channel=2, data=[41, 95]),
   midi.NoteOffEvent(tick=240, channel=2, data=[41, 95]),
   midi.NoteOnEvent(tick=0, channel=2, data=[41, 95]),
   midi.NoteOffEvent(tick=240, channel=2, data=[41, 95]),
   midi.NoteOnEvent(tick=0, channel=2, data=[41, 95]),
   midi.NoteOffEvent(tick=240, channel=2, data=[41, 95]),
   midi.NoteOnEvent(tick=0, channel=2, data=[41, 95]),
   midi.NoteOffEvent(tick=240, channel=2, data=[41, 95]),
   midi.NoteOnEvent(tick=0, channel=2, data=[41, 95]),
   midi.NoteOffEvent(tick=480, channel=2, data=[41, 95]),
   midi.NoteOnEvent(tick=0, channel=2, data=[48, 95]),
   midi.NoteOffEvent(tick=480, channel=2, data=[48, 95]),
   midi.NoteOnEvent(tick=0, channel=2, data=[41, 95]),
   midi.NoteOffEvent(tick=240, channel=2, data=[41, 95]),
   midi.NoteOnEvent(tick=0, channel=2, data=[41, 95]),
   midi.NoteOffEvent(tick=240, channel=2, data=[41, 95]),
   midi.NoteOnEvent(tick=0, channel=2, data=[41, 95]),
   midi.NoteOffEvent(tick=240, channel=2, data=[41, 95]),
   midi.NoteOnEvent(tick=0, channel=2, data=[41, 95]),
   midi.NoteOffEvent(tick=240, channel=2, data=[41, 95]),
   midi.NoteOnEvent(tick=0, channel=2, data=[41, 95]),
   midi.NoteOffEvent(tick=480, channel=2, data=[41, 95]),
   midi.NoteOnEvent(tick=0, channel=2, data=[52, 95]),
   midi.NoteOffEvent(tick=480, channel=2, data=[52, 95]),
   midi.NoteOnEvent(tick=0, channel=2, data=[41, 95]),
   midi.NoteOffEvent(tick=240, channel=2, data=[41, 95]),
   midi.NoteOnEvent(tick=0, channel=2, data=[41, 95]),
   midi.NoteOffEvent(tick=240, channel=2, data=[41, 95]),
   midi.NoteOnEvent(tick=0, channel=2, data=[41, 95]),
   midi.NoteOffEvent(tick=480, channel=2, data=[41, 95]),
   midi.NoteOnEvent(tick=0, channel=2, data=[51, 95]),
   midi.NoteOffEvent(tick=480, channel=2, data=[51, 95]),
   midi.NoteOnEvent(tick=0, channel=2, data=[41, 95]),
   midi.NoteOffEvent(tick=240, channel=2, data=[41, 95]),
   midi.NoteOnEvent(tick=0, channel=2, data=[41, 95]),
   midi.NoteOffEvent(tick=240, channel=2, data=[41, 95]),
   midi.NoteOnEvent(tick=0, channel=2, data=[41, 95]),
   midi.NoteOffEvent(tick=480, channel=2, data=[41, 95]),
   midi.NoteOnEvent(tick=0, channel=2, data=[47, 95]),
   midi.NoteOffEvent(tick=480, channel=2, data=[47, 95]),
   midi.NoteOnEvent(tick=0, channel=2, data=[41, 95]),
   midi.NoteOffEvent(tick=480, channel=2, data=[41, 95]),
   midi.NoteOnEvent(tick=0, channel=2, data=[49, 95]),
   midi.NoteOffEvent(tick=480, channel=2, data=[49, 95]),
   midi.NoteOnEvent(tick=0, channel=2, data=[41, 95]),
   midi.NoteOffEvent(tick=240, channel=2, data=[41, 95]),
   midi.NoteOnEvent(tick=0, channel=2, data=[41, 95]),
   midi.NoteOffEvent(tick=240, channel=2, data=[41, 95]),
   midi.NoteOnEvent(tick=0, channel=2, data=[41, 95]),
   midi.NoteOffEvent(tick=240, channel=2, data=[41, 95]),
   midi.NoteOnEvent(tick=0, channel=2, data=[41, 95]),
   midi.NoteOffEvent(tick=240, channel=2, data=[41, 95]),
   midi.NoteOnEvent(tick=0, channel=2, data=[41, 95]),
   midi.NoteOffEvent(tick=480, channel=2, data=[41, 95]),
   midi.NoteOnEvent(tick=0, channel=2, data=[48, 95]),
   midi.NoteOffEvent(tick=480, channel=2, data=[48, 95]),
   midi.NoteOnEvent(tick=0, channel=2, data=[41, 95]),
   midi.NoteOffEvent(tick=240, channel=2, data=[41, 95]),
   midi.NoteOnEvent(tick=0, channel=2, data=[41, 95]),
   midi.NoteOffEvent(tick=240, channel=2, data=[41, 95]),
   midi.NoteOnEvent(tick=0, channel=2, data=[41, 95]),
   midi.NoteOffEvent(tick=240, channel=2, data=[41, 95]),
   midi.NoteOnEvent(tick=0, channel=2, data=[41, 95]),
   midi.NoteOffEvent(tick=240, channel=2, data=[41, 95]),
   midi.NoteOnEvent(tick=0, channel=2, data=[41, 95]),
   midi.NoteOffEvent(tick=480, channel=2, data=[41, 95]),
   midi.NoteOnEvent(tick=0, channel=2, data=[52, 95]),
   midi.NoteOffEvent(tick=480, channel=2, data=[52, 95]),
   midi.NoteOnEvent(tick=0, channel=2, data=[41, 95]),
   midi.NoteOffEvent(tick=240, channel=2, data=[41, 95]),
   midi.NoteOnEvent(tick=0, channel=2, data=[41, 95]),
   midi.NoteOffEvent(tick=240, channel=2, data=[41, 95]),
   midi.NoteOnEvent(tick=0, channel=2, data=[41, 95]),
   midi.NoteOffEvent(tick=480, channel=2, data=[41, 95]),
   midi.NoteOnEvent(tick=0, channel=2, data=[51, 95]),
   midi.NoteOffEvent(tick=480, channel=2, data=[51, 95]),
   midi.NoteOnEvent(tick=0, channel=2, data=[41, 95]),
   midi.NoteOffEvent(tick=240, channel=2, data=[41, 95]),
   midi.NoteOnEvent(tick=0, channel=2, data=[41, 95]),
   midi.NoteOffEvent(tick=240, channel=2, data=[41, 95]),
   midi.NoteOnEvent(tick=0, channel=2, data=[41, 95]),
   midi.NoteOffEvent(tick=480, channel=2, data=[41, 95]),
   midi.NoteOnEvent(tick=0, channel=2, data=[47, 95]),
   midi.NoteOffEvent(tick=480, channel=2, data=[47, 95]),
   midi.NoteOnEvent(tick=0, channel=2, data=[41, 95]),
   midi.NoteOffEvent(tick=480, channel=2, data=[41, 95]),
   midi.NoteOnEvent(tick=0, channel=2, data=[43, 95]),
   midi.NoteOffEvent(tick=240, channel=2, data=[43, 95]),
   midi.NoteOnEvent(tick=0, channel=2, data=[43, 95]),
   midi.NoteOffEvent(tick=240, channel=2, data=[43, 95]),
   midi.NoteOnEvent(tick=0, channel=2, data=[43, 95]),
   midi.NoteOffEvent(tick=480, channel=2, data=[43, 95]),
   midi.NoteOnEvent(tick=0, channel=2, data=[47, 95]),
   midi.NoteOffEvent(tick=480, channel=2, data=[47, 95]),
   midi.NoteOnEvent(tick=0, channel=2, data=[46, 95]),
   midi.NoteOffEvent(tick=480, channel=2, data=[46, 95]),
   midi.NoteOnEvent(tick=0, channel=2, data=[43, 95]),
   midi.NoteOffEvent(tick=240, channel=2, data=[43, 95]),
   midi.NoteOnEvent(tick=0, channel=2, data=[43, 95]),
   midi.NoteOffEvent(tick=240, channel=2, data=[43, 95]),
   midi.NoteOnEvent(tick=0, channel=2, data=[43, 95]),
   midi.NoteOffEvent(tick=480, channel=2, data=[43, 95]),
   midi.NoteOnEvent(tick=0, channel=2, data=[46, 95]),
   midi.NoteOffEvent(tick=480, channel=2, data=[46, 95]),
   midi.NoteOnEvent(tick=0, channel=2, data=[44, 95]),
   midi.NoteOffEvent(tick=480, channel=2, data=[44, 95]),
   midi.NoteOnEvent(tick=0, channel=2, data=[43, 95]),
   midi.NoteOffEvent(tick=240, channel=2, data=[43, 95]),
   midi.NoteOnEvent(tick=0, channel=2, data=[43, 95]),
   midi.NoteOffEvent(tick=240, channel=2, data=[43, 95]),
   midi.NoteOnEvent(tick=0, channel=2, data=[43, 95]),
   midi.NoteOffEvent(tick=480, channel=2, data=[43, 95]),
   midi.NoteOnEvent(tick=0, channel=2, data=[47, 95]),
   midi.NoteOffEvent(tick=480, channel=2, data=[47, 95]),
   midi.NoteOnEvent(tick=0, channel=2, data=[46, 95]),
   midi.NoteOffEvent(tick=480, channel=2, data=[46, 95]),
   midi.NoteOnEvent(tick=0, channel=2, data=[43, 95]),
   midi.NoteOffEvent(tick=240, channel=2, data=[43, 95]),
   midi.NoteOnEvent(tick=0, channel=2, data=[43, 95]),
   midi.NoteOffEvent(tick=240, channel=2, data=[43, 95]),
   midi.NoteOnEvent(tick=0, channel=2, data=[43, 95]),
   midi.NoteOffEvent(tick=480, channel=2, data=[43, 95]),
   midi.NoteOnEvent(tick=0, channel=2, data=[50, 95]),
   midi.NoteOffEvent(tick=480, channel=2, data=[50, 95]),
   midi.NoteOnEvent(tick=0, channel=2, data=[51, 95]),
   midi.NoteOffEvent(tick=480, channel=2, data=[51, 95]),
   midi.NoteOnEvent(tick=0, channel=2, data=[43, 95]),
   midi.NoteOffEvent(tick=240, channel=2, data=[43, 95]),
   midi.NoteOnEvent(tick=0, channel=2, data=[43, 95]),
   midi.NoteOffEvent(tick=240, channel=2, data=[43, 95]),
   midi.NoteOnEvent(tick=0, channel=2, data=[43, 95]),
   midi.NoteOffEvent(tick=480, channel=2, data=[43, 95]),
   midi.NoteOnEvent(tick=0, channel=2, data=[47, 95]),
   midi.NoteOffEvent(tick=480, channel=2, data=[47, 95]),
   midi.NoteOnEvent(tick=0, channel=2, data=[46, 95]),
   midi.NoteOffEvent(tick=480, channel=2, data=[46, 95]),
   midi.NoteOnEvent(tick=0, channel=2, data=[43, 95]),
   midi.NoteOffEvent(tick=240, channel=2, data=[43, 95]),
   midi.NoteOnEvent(tick=0, channel=2, data=[43, 95]),
   midi.NoteOffEvent(tick=240, channel=2, data=[43, 95]),
   midi.NoteOnEvent(tick=0, channel=2, data=[43, 95]),
   midi.NoteOffEvent(tick=480, channel=2, data=[43, 95]),
   midi.NoteOnEvent(tick=0, channel=2, data=[46, 95]),
   midi.NoteOffEvent(tick=480, channel=2, data=[46, 95]),
   midi.NoteOnEvent(tick=0, channel=2, data=[44, 95]),
   midi.NoteOffEvent(tick=480, channel=2, data=[44, 95]),
   midi.NoteOnEvent(tick=0, channel=2, data=[43, 95]),
   midi.NoteOffEvent(tick=240, channel=2, data=[43, 95]),
   midi.NoteOnEvent(tick=0, channel=2, data=[43, 95]),
   midi.NoteOffEvent(tick=240, channel=2, data=[43, 95]),
   midi.NoteOnEvent(tick=0, channel=2, data=[43, 95]),
   midi.NoteOffEvent(tick=480, channel=2, data=[43, 95]),
   midi.NoteOnEvent(tick=0, channel=2, data=[47, 95]),
   midi.NoteOffEvent(tick=480, channel=2, data=[47, 95]),
   midi.NoteOnEvent(tick=0, channel=2, data=[46, 95]),
   midi.NoteOffEvent(tick=480, channel=2, data=[46, 95]),
   midi.NoteOnEvent(tick=0, channel=2, data=[43, 95]),
   midi.NoteOffEvent(tick=240, channel=2, data=[43, 95]),
   midi.NoteOnEvent(tick=0, channel=2, data=[43, 95]),
   midi.NoteOffEvent(tick=240, channel=2, data=[43, 95]),
   midi.NoteOnEvent(tick=0, channel=2, data=[43, 95]),
   midi.NoteOffEvent(tick=480, channel=2, data=[43, 95]),
   midi.NoteOnEvent(tick=0, channel=2, data=[46, 95]),
   midi.NoteOffEvent(tick=480, channel=2, data=[46, 95]),
   midi.NoteOnEvent(tick=0, channel=2, data=[44, 95]),
   midi.NoteOffEvent(tick=480, channel=2, data=[44, 95]),
   midi.NoteOnEvent(tick=0, channel=2, data=[43, 95]),
   midi.NoteOffEvent(tick=240, channel=2, data=[43, 95]),
   midi.NoteOnEvent(tick=0, channel=2, data=[43, 95]),
   midi.NoteOffEvent(tick=240, channel=2, data=[43, 95]),
   midi.NoteOnEvent(tick=0, channel=2, data=[43, 95]),
   midi.NoteOffEvent(tick=480, channel=2, data=[43, 95]),
   midi.NoteOnEvent(tick=0, channel=2, data=[47, 95]),
   midi.NoteOffEvent(tick=480, channel=2, data=[47, 95]),
   midi.NoteOnEvent(tick=0, channel=2, data=[46, 95]),
   midi.NoteOffEvent(tick=480, channel=2, data=[46, 95]),
   midi.NoteOnEvent(tick=0, channel=2, data=[43, 95]),
   midi.NoteOffEvent(tick=240, channel=2, data=[43, 95]),
   midi.NoteOnEvent(tick=0, channel=2, data=[43, 95]),
   midi.NoteOffEvent(tick=240, channel=2, data=[43, 95]),
   midi.NoteOnEvent(tick=0, channel=2, data=[43, 95]),
   midi.NoteOffEvent(tick=480, channel=2, data=[43, 95]),
   midi.NoteOnEvent(tick=0, channel=2, data=[50, 95]),
   midi.NoteOffEvent(tick=480, channel=2, data=[50, 95]),
   midi.NoteOnEvent(tick=0, channel=2, data=[51, 95]),
   midi.NoteOffEvent(tick=480, channel=2, data=[51, 95]),
   midi.NoteOnEvent(tick=0, channel=2, data=[43, 95]),
   midi.NoteOffEvent(tick=240, channel=2, data=[43, 95]),
   midi.NoteOnEvent(tick=0, channel=2, data=[43, 95]),
   midi.NoteOffEvent(tick=240, channel=2, data=[43, 95]),
   midi.NoteOnEvent(tick=0, channel=2, data=[43, 95]),
   midi.NoteOffEvent(tick=480, channel=2, data=[43, 95]),
   midi.NoteOnEvent(tick=0, channel=2, data=[47, 95]),
   midi.NoteOffEvent(tick=480, channel=2, data=[47, 95]),
   midi.NoteOnEvent(tick=0, channel=2, data=[46, 95]),
   midi.NoteOffEvent(tick=480, channel=2, data=[46, 95]),
   midi.NoteOnEvent(tick=0, channel=2, data=[43, 95]),
   midi.NoteOffEvent(tick=240, channel=2, data=[43, 95]),
   midi.NoteOnEvent(tick=0, channel=2, data=[43, 95]),
   midi.NoteOffEvent(tick=240, channel=2, data=[43, 95]),
   midi.NoteOnEvent(tick=0, channel=2, data=[43, 95]),
   midi.NoteOffEvent(tick=480, channel=2, data=[43, 95]),
   midi.NoteOnEvent(tick=0, channel=2, data=[46, 95]),
   midi.NoteOffEvent(tick=480, channel=2, data=[46, 95]),
   midi.NoteOnEvent(tick=0, channel=2, data=[44, 95]),
   midi.NoteOffEvent(tick=480, channel=2, data=[44, 95]),
   midi.NoteOnEvent(tick=0, channel=2, data=[43, 95]),
   midi.NoteOffEvent(tick=240, channel=2, data=[43, 95]),
   midi.NoteOnEvent(tick=0, channel=2, data=[43, 95]),
   midi.NoteOffEvent(tick=240, channel=2, data=[43, 95]),
   midi.NoteOnEvent(tick=0, channel=2, data=[43, 95]),
   midi.NoteOffEvent(tick=480, channel=2, data=[43, 95]),
   midi.NoteOnEvent(tick=0, channel=2, data=[47, 95]),
   midi.NoteOffEvent(tick=480, channel=2, data=[47, 95]),
   midi.NoteOnEvent(tick=0, channel=2, data=[46, 95]),
   midi.NoteOffEvent(tick=480, channel=2, data=[46, 95]),
   midi.NoteOnEvent(tick=0, channel=2, data=[43, 95]),
   midi.NoteOffEvent(tick=240, channel=2, data=[43, 95]),
   midi.NoteOnEvent(tick=0, channel=2, data=[43, 95]),
   midi.NoteOffEvent(tick=240, channel=2, data=[43, 95]),
   midi.NoteOnEvent(tick=0, channel=2, data=[43, 95]),
   midi.NoteOffEvent(tick=480, channel=2, data=[43, 95]),
   midi.NoteOnEvent(tick=0, channel=2, data=[50, 95]),
   midi.NoteOffEvent(tick=480, channel=2, data=[50, 95]),
   midi.NoteOnEvent(tick=0, channel=2, data=[51, 95]),
   midi.NoteOffEvent(tick=480, channel=2, data=[51, 95]),
   midi.NoteOnEvent(tick=0, channel=2, data=[43, 95]),
   midi.NoteOffEvent(tick=240, channel=2, data=[43, 95]),
   midi.NoteOnEvent(tick=0, channel=2, data=[43, 95]),
   midi.NoteOffEvent(tick=240, channel=2, data=[43, 95]),
   midi.NoteOnEvent(tick=0, channel=2, data=[43, 95]),
   midi.NoteOffEvent(tick=480, channel=2, data=[43, 95]),
   midi.NoteOnEvent(tick=0, channel=2, data=[47, 95]),
   midi.NoteOffEvent(tick=480, channel=2, data=[47, 95]),
   midi.NoteOnEvent(tick=0, channel=2, data=[46, 95]),
   midi.NoteOffEvent(tick=480, channel=2, data=[46, 95]),
   midi.NoteOnEvent(tick=0, channel=2, data=[42, 95]),
   midi.NoteOffEvent(tick=240, channel=2, data=[42, 95]),
   midi.NoteOnEvent(tick=0, channel=2, data=[42, 95]),
   midi.NoteOffEvent(tick=240, channel=2, data=[42, 95]),
   midi.NoteOnEvent(tick=0, channel=2, data=[42, 95]),
   midi.NoteOffEvent(tick=240, channel=2, data=[42, 95]),
   midi.NoteOnEvent(tick=0, channel=2, data=[42, 95]),
   midi.NoteOffEvent(tick=240, channel=2, data=[42, 95]),
   midi.NoteOnEvent(tick=0, channel=2, data=[42, 95]),
   midi.NoteOffEvent(tick=240, channel=2, data=[42, 95]),
   midi.NoteOnEvent(tick=0, channel=2, data=[42, 95]),
   midi.NoteOffEvent(tick=240, channel=2, data=[42, 95]),
   midi.NoteOnEvent(tick=0, channel=2, data=[42, 95]),
   midi.NoteOffEvent(tick=240, channel=2, data=[42, 95]),
   midi.NoteOnEvent(tick=0, channel=2, data=[42, 95]),
   midi.NoteOffEvent(tick=240, channel=2, data=[42, 95]),
   midi.NoteOnEvent(tick=0, channel=2, data=[42, 95]),
   midi.NoteOffEvent(tick=240, channel=2, data=[42, 95]),
   midi.NoteOnEvent(tick=0, channel=2, data=[42, 95]),
   midi.NoteOffEvent(tick=240, channel=2, data=[42, 95]),
   midi.NoteOnEvent(tick=0, channel=2, data=[42, 95]),
   midi.NoteOffEvent(tick=240, channel=2, data=[42, 95]),
   midi.NoteOnEvent(tick=0, channel=2, data=[42, 95]),
   midi.NoteOffEvent(tick=240, channel=2, data=[42, 95]),
   midi.NoteOnEvent(tick=0, channel=2, data=[42, 95]),
   midi.NoteOffEvent(tick=240, channel=2, data=[42, 95]),
   midi.NoteOnEvent(tick=0, channel=2, data=[42, 95]),
   midi.NoteOffEvent(tick=240, channel=2, data=[42, 95]),
   midi.NoteOnEvent(tick=0, channel=2, data=[42, 95]),
   midi.NoteOffEvent(tick=240, channel=2, data=[42, 95]),
   midi.NoteOnEvent(tick=0, channel=2, data=[42, 95]),
   midi.NoteOffEvent(tick=240, channel=2, data=[42, 95]),
   midi.NoteOnEvent(tick=0, channel=2, data=[42, 95]),
   midi.NoteOffEvent(tick=240, channel=2, data=[42, 95]),
   midi.NoteOnEvent(tick=0, channel=2, data=[42, 95]),
   midi.NoteOffEvent(tick=240, channel=2, data=[42, 95]),
   midi.NoteOnEvent(tick=0, channel=2, data=[42, 95]),
   midi.NoteOffEvent(tick=240, channel=2, data=[42, 95]),
   midi.NoteOnEvent(tick=0, channel=2, data=[42, 95]),
   midi.NoteOffEvent(tick=240, channel=2, data=[42, 95]),
   midi.NoteOnEvent(tick=0, channel=2, data=[42, 95]),
   midi.NoteOffEvent(tick=240, channel=2, data=[42, 95]),
   midi.NoteOnEvent(tick=0, channel=2, data=[42, 95]),
   midi.NoteOffEvent(tick=240, channel=2, data=[42, 95]),
   midi.NoteOnEvent(tick=0, channel=2, data=[42, 95]),
   midi.NoteOffEvent(tick=240, channel=2, data=[42, 95]),
   midi.NoteOnEvent(tick=0, channel=2, data=[42, 95]),
   midi.NoteOffEvent(tick=240, channel=2, data=[42, 95]),
   midi.NoteOnEvent(tick=0, channel=2, data=[42, 95]),
   midi.NoteOffEvent(tick=240, channel=2, data=[42, 95]),
   midi.NoteOnEvent(tick=0, channel=2, data=[42, 95]),
   midi.NoteOffEvent(tick=240, channel=2, data=[42, 95]),
   midi.NoteOnEvent(tick=0, channel=2, data=[42, 95]),
   midi.NoteOffEvent(tick=240, channel=2, data=[42, 95]),
   midi.NoteOnEvent(tick=0, channel=2, data=[42, 95]),
   midi.NoteOffEvent(tick=240, channel=2, data=[42, 95]),
   midi.NoteOnEvent(tick=0, channel=2, data=[42, 95]),
   midi.NoteOffEvent(tick=240, channel=2, data=[42, 95]),
   midi.NoteOnEvent(tick=0, channel=2, data=[42, 95]),
   midi.NoteOffEvent(tick=240, channel=2, data=[42, 95]),
   midi.NoteOnEvent(tick=0, channel=2, data=[42, 95]),
   midi.NoteOffEvent(tick=240, channel=2, data=[42, 95]),
   midi.NoteOnEvent(tick=0, channel=2, data=[42, 95]),
   midi.NoteOffEvent(tick=240, channel=2, data=[42, 95]),
   midi.NoteOnEvent(tick=0, channel=2, data=[42, 95]),
   midi.NoteOffEvent(tick=240, channel=2, data=[42, 95]),
   midi.NoteOnEvent(tick=0, channel=2, data=[42, 95]),
   midi.NoteOffEvent(tick=240, channel=2, data=[42, 95]),
   midi.NoteOnEvent(tick=0, channel=2, data=[42, 95]),
   midi.NoteOffEvent(tick=240, channel=2, data=[42, 95]),
   midi.NoteOnEvent(tick=0, channel=2, data=[42, 95]),
   midi.NoteOffEvent(tick=240, channel=2, data=[42, 95]),
   midi.NoteOnEvent(tick=0, channel=2, data=[42, 95]),
   midi.NoteOffEvent(tick=240, channel=2, data=[42, 95]),
   midi.NoteOnEvent(tick=0, channel=2, data=[42, 95]),
   midi.NoteOffEvent(tick=240, channel=2, data=[42, 95]),
   midi.NoteOnEvent(tick=0, channel=2, data=[42, 95]),
   midi.NoteOffEvent(tick=240, channel=2, data=[42, 95]),
   midi.NoteOnEvent(tick=0, channel=2, data=[42, 95]),
   midi.NoteOffEvent(tick=240, channel=2, data=[42, 95]),
   midi.NoteOnEvent(tick=0, channel=2, data=[51, 95]),
   midi.NoteOnEvent(tick=0, channel=2, data=[46, 95]),
   midi.NoteOnEvent(tick=0, channel=2, data=[39, 95]),
   midi.NoteOffEvent(tick=15360, channel=2, data=[51, 95]),
   midi.NoteOffEvent(tick=0, channel=2, data=[46, 95]),
   midi.NoteOffEvent(tick=0, channel=2, data=[39, 95]),
   midi.NoteOnEvent(tick=0, channel=2, data=[51, 95]),
   midi.NoteOnEvent(tick=0, channel=2, data=[46, 95]),
   midi.NoteOnEvent(tick=0, channel=2, data=[39, 95]),
   midi.NoteOffEvent(tick=1920, channel=2, data=[51, 95]),
   midi.NoteOffEvent(tick=0, channel=2, data=[46, 95]),
   midi.NoteOffEvent(tick=0, channel=2, data=[39, 95]),
   midi.EndOfTrackEvent(tick=0, data=[])]),
 midi.Track(\
  [midi.PitchWheelEvent(tick=0, channel=4, data=[0, 64]),
   midi.ControlChangeEvent(tick=0, channel=4, data=[7, 127]),
   midi.ControlChangeEvent(tick=0, channel=4, data=[10, 63]),
   midi.ControlChangeEvent(tick=0, channel=4, data=[93, 0]),
   midi.ControlChangeEvent(tick=0, channel=4, data=[91, 0]),
   midi.ControlChangeEvent(tick=0, channel=4, data=[95, 0]),
   midi.ControlChangeEvent(tick=0, channel=4, data=[92, 0]),
   midi.ControlChangeEvent(tick=0, channel=4, data=[11, 127]),
   midi.ProgramChangeEvent(tick=0, channel=4, data=[33]),
   midi.ControlChangeEvent(tick=0, channel=5, data=[7, 127]),
   midi.ControlChangeEvent(tick=0, channel=5, data=[10, 63]),
   midi.ControlChangeEvent(tick=0, channel=5, data=[93, 0]),
   midi.ControlChangeEvent(tick=0, channel=5, data=[91, 0]),
   midi.ControlChangeEvent(tick=0, channel=5, data=[95, 0]),
   midi.ControlChangeEvent(tick=0, channel=5, data=[92, 0]),
   midi.ControlChangeEvent(tick=0, channel=5, data=[11, 127]),
   midi.ProgramChangeEvent(tick=0, channel=5, data=[33]),
   midi.NoteOnEvent(tick=30720, channel=4, data=[39, 95]),
   midi.NoteOffEvent(tick=480, channel=4, data=[39, 95]),
   midi.NoteOnEvent(tick=0, channel=4, data=[39, 95]),
   midi.NoteOffEvent(tick=480, channel=4, data=[39, 95]),
   midi.NoteOnEvent(tick=0, channel=4, data=[39, 95]),
   midi.NoteOffEvent(tick=480, channel=4, data=[39, 95]),
   midi.NoteOnEvent(tick=0, channel=4, data=[39, 95]),
   midi.NoteOffEvent(tick=480, channel=4, data=[39, 95]),
   midi.NoteOnEvent(tick=0, channel=4, data=[39, 95]),
   midi.NoteOffEvent(tick=480, channel=4, data=[39, 95]),
   midi.NoteOnEvent(tick=0, channel=4, data=[39, 95]),
   midi.NoteOffEvent(tick=480, channel=4, data=[39, 95]),
   midi.NoteOnEvent(tick=0, channel=4, data=[39, 95]),
   midi.NoteOffEvent(tick=480, channel=4, data=[39, 95]),
   midi.NoteOnEvent(tick=0, channel=4, data=[39, 95]),
   midi.NoteOffEvent(tick=480, channel=4, data=[39, 95]),
   midi.NoteOnEvent(tick=0, channel=4, data=[39, 95]),
   midi.NoteOffEvent(tick=240, channel=4, data=[39, 95]),
   midi.NoteOnEvent(tick=0, channel=4, data=[39, 95]),
   midi.NoteOffEvent(tick=240, channel=4, data=[39, 95]),
   midi.NoteOnEvent(tick=0, channel=4, data=[39, 95]),
   midi.NoteOffEvent(tick=480, channel=4, data=[39, 95]),
   midi.NoteOnEvent(tick=0, channel=4, data=[39, 95]),
   midi.NoteOffEvent(tick=480, channel=4, data=[39, 95]),
   midi.NoteOnEvent(tick=0, channel=4, data=[39, 95]),
   midi.NoteOffEvent(tick=240, channel=4, data=[39, 95]),
   midi.NoteOnEvent(tick=0, channel=4, data=[39, 95]),
   midi.NoteOffEvent(tick=240, channel=4, data=[39, 95]),
   midi.NoteOnEvent(tick=0, channel=4, data=[39, 95]),
   midi.NoteOffEvent(tick=480, channel=4, data=[39, 95]),
   midi.NoteOnEvent(tick=0, channel=4, data=[39, 95]),
   midi.NoteOffEvent(tick=480, channel=4, data=[39, 95]),
   midi.NoteOnEvent(tick=0, channel=4, data=[39, 95]),
   midi.NoteOffEvent(tick=240, channel=4, data=[39, 95]),
   midi.NoteOnEvent(tick=0, channel=4, data=[39, 95]),
   midi.NoteOffEvent(tick=240, channel=4, data=[39, 95]),
   midi.NoteOnEvent(tick=0, channel=4, data=[39, 95]),
   midi.NoteOffEvent(tick=480, channel=4, data=[39, 95]),
   midi.NoteOnEvent(tick=0, channel=4, data=[39, 95]),
   midi.NoteOffEvent(tick=480, channel=4, data=[39, 95]),
   midi.NoteOnEvent(tick=0, channel=4, data=[39, 95]),
   midi.NoteOffEvent(tick=480, channel=4, data=[39, 95]),
   midi.NoteOnEvent(tick=0, channel=4, data=[39, 95]),
   midi.NoteOffEvent(tick=480, channel=4, data=[39, 95]),
   midi.NoteOnEvent(tick=0, channel=4, data=[39, 95]),
   midi.NoteOffEvent(tick=480, channel=4, data=[39, 95]),
   midi.NoteOnEvent(tick=0, channel=4, data=[39, 95]),
   midi.NoteOffEvent(tick=480, channel=4, data=[39, 95]),
   midi.NoteOnEvent(tick=0, channel=4, data=[39, 95]),
   midi.NoteOffEvent(tick=480, channel=4, data=[39, 95]),
   midi.NoteOnEvent(tick=0, channel=4, data=[39, 95]),
   midi.NoteOffEvent(tick=480, channel=4, data=[39, 95]),
   midi.NoteOnEvent(tick=0, channel=4, data=[39, 95]),
   midi.NoteOffEvent(tick=480, channel=4, data=[39, 95]),
   midi.NoteOnEvent(tick=0, channel=4, data=[39, 95]),
   midi.NoteOffEvent(tick=240, channel=4, data=[39, 95]),
   midi.NoteOnEvent(tick=0, channel=4, data=[39, 95]),
   midi.NoteOffEvent(tick=240, channel=4, data=[39, 95]),
   midi.NoteOnEvent(tick=0, channel=4, data=[39, 95]),
   midi.NoteOffEvent(tick=480, channel=4, data=[39, 95]),
   midi.NoteOnEvent(tick=0, channel=4, data=[39, 95]),
   midi.NoteOffEvent(tick=480, channel=4, data=[39, 95]),
   midi.NoteOnEvent(tick=0, channel=4, data=[39, 95]),
   midi.NoteOffEvent(tick=240, channel=4, data=[39, 95]),
   midi.NoteOnEvent(tick=0, channel=4, data=[39, 95]),
   midi.NoteOffEvent(tick=240, channel=4, data=[39, 95]),
   midi.NoteOnEvent(tick=0, channel=4, data=[39, 95]),
   midi.NoteOffEvent(tick=480, channel=4, data=[39, 95]),
   midi.NoteOnEvent(tick=0, channel=4, data=[39, 95]),
   midi.NoteOffEvent(tick=480, channel=4, data=[39, 95]),
   midi.NoteOnEvent(tick=0, channel=4, data=[39, 95]),
   midi.NoteOffEvent(tick=240, channel=4, data=[39, 95]),
   midi.NoteOnEvent(tick=0, channel=4, data=[39, 95]),
   midi.NoteOffEvent(tick=240, channel=4, data=[39, 95]),
   midi.NoteOnEvent(tick=0, channel=4, data=[39, 95]),
   midi.NoteOffEvent(tick=480, channel=4, data=[39, 95]),
   midi.NoteOnEvent(tick=0, channel=4, data=[39, 95]),
   midi.NoteOffEvent(tick=480, channel=4, data=[39, 95]),
   midi.NoteOnEvent(tick=0, channel=4, data=[39, 95]),
   midi.NoteOffEvent(tick=480, channel=4, data=[39, 95]),
   midi.NoteOnEvent(tick=0, channel=4, data=[39, 95]),
   midi.NoteOffEvent(tick=480, channel=4, data=[39, 95]),
   midi.NoteOnEvent(tick=0, channel=4, data=[39, 95]),
   midi.NoteOffEvent(tick=480, channel=4, data=[39, 95]),
   midi.NoteOnEvent(tick=0, channel=4, data=[39, 95]),
   midi.NoteOffEvent(tick=480, channel=4, data=[39, 95]),
   midi.NoteOnEvent(tick=0, channel=4, data=[39, 95]),
   midi.NoteOffEvent(tick=480, channel=4, data=[39, 95]),
   midi.NoteOnEvent(tick=0, channel=4, data=[39, 95]),
   midi.NoteOffEvent(tick=480, channel=4, data=[39, 95]),
   midi.NoteOnEvent(tick=0, channel=4, data=[39, 95]),
   midi.NoteOffEvent(tick=480, channel=4, data=[39, 95]),
   midi.NoteOnEvent(tick=0, channel=4, data=[39, 95]),
   midi.NoteOffEvent(tick=240, channel=4, data=[39, 95]),
   midi.NoteOnEvent(tick=0, channel=4, data=[39, 95]),
   midi.NoteOffEvent(tick=240, channel=4, data=[39, 95]),
   midi.NoteOnEvent(tick=0, channel=4, data=[39, 95]),
   midi.NoteOffEvent(tick=480, channel=4, data=[39, 95]),
   midi.NoteOnEvent(tick=0, channel=4, data=[39, 95]),
   midi.NoteOffEvent(tick=480, channel=4, data=[39, 95]),
   midi.NoteOnEvent(tick=0, channel=4, data=[39, 95]),
   midi.NoteOffEvent(tick=240, channel=4, data=[39, 95]),
   midi.NoteOnEvent(tick=0, channel=4, data=[39, 95]),
   midi.NoteOffEvent(tick=240, channel=4, data=[39, 95]),
   midi.NoteOnEvent(tick=0, channel=4, data=[39, 95]),
   midi.NoteOffEvent(tick=480, channel=4, data=[39, 95]),
   midi.NoteOnEvent(tick=0, channel=4, data=[39, 95]),
   midi.NoteOffEvent(tick=480, channel=4, data=[39, 95]),
   midi.NoteOnEvent(tick=0, channel=4, data=[39, 95]),
   midi.NoteOffEvent(tick=240, channel=4, data=[39, 95]),
   midi.NoteOnEvent(tick=0, channel=4, data=[39, 95]),
   midi.NoteOffEvent(tick=240, channel=4, data=[39, 95]),
   midi.NoteOnEvent(tick=0, channel=4, data=[39, 95]),
   midi.NoteOffEvent(tick=480, channel=4, data=[39, 95]),
   midi.NoteOnEvent(tick=0, channel=4, data=[39, 95]),
   midi.NoteOffEvent(tick=480, channel=4, data=[39, 95]),
   midi.NoteOnEvent(tick=0, channel=4, data=[39, 95]),
   midi.NoteOffEvent(tick=480, channel=4, data=[39, 95]),
   midi.NoteOnEvent(tick=0, channel=4, data=[39, 95]),
   midi.NoteOffEvent(tick=480, channel=4, data=[39, 95]),
   midi.NoteOnEvent(tick=0, channel=4, data=[39, 95]),
   midi.NoteOffEvent(tick=480, channel=4, data=[39, 95]),
   midi.NoteOnEvent(tick=0, channel=4, data=[39, 95]),
   midi.NoteOffEvent(tick=480, channel=4, data=[39, 95]),
   midi.NoteOnEvent(tick=0, channel=4, data=[39, 95]),
   midi.NoteOffEvent(tick=480, channel=4, data=[39, 95]),
   midi.NoteOnEvent(tick=0, channel=4, data=[39, 95]),
   midi.NoteOffEvent(tick=480, channel=4, data=[39, 95]),
   midi.NoteOnEvent(tick=0, channel=4, data=[39, 95]),
   midi.NoteOffEvent(tick=480, channel=4, data=[39, 95]),
   midi.NoteOnEvent(tick=0, channel=4, data=[39, 95]),
   midi.NoteOffEvent(tick=240, channel=4, data=[39, 95]),
   midi.NoteOnEvent(tick=0, channel=4, data=[39, 95]),
   midi.NoteOffEvent(tick=240, channel=4, data=[39, 95]),
   midi.NoteOnEvent(tick=0, channel=4, data=[39, 95]),
   midi.NoteOffEvent(tick=480, channel=4, data=[39, 95]),
   midi.NoteOnEvent(tick=0, channel=4, data=[39, 95]),
   midi.NoteOffEvent(tick=480, channel=4, data=[39, 95]),
   midi.NoteOnEvent(tick=0, channel=4, data=[39, 95]),
   midi.NoteOffEvent(tick=240, channel=4, data=[39, 95]),
   midi.NoteOnEvent(tick=0, channel=4, data=[39, 95]),
   midi.NoteOffEvent(tick=240, channel=4, data=[39, 95]),
   midi.NoteOnEvent(tick=0, channel=4, data=[39, 95]),
   midi.NoteOffEvent(tick=480, channel=4, data=[39, 95]),
   midi.NoteOnEvent(tick=0, channel=4, data=[39, 95]),
   midi.NoteOffEvent(tick=480, channel=4, data=[39, 95]),
   midi.NoteOnEvent(tick=0, channel=4, data=[39, 95]),
   midi.NoteOffEvent(tick=240, channel=4, data=[39, 95]),
   midi.NoteOnEvent(tick=0, channel=4, data=[39, 95]),
   midi.NoteOffEvent(tick=240, channel=4, data=[39, 95]),
   midi.NoteOnEvent(tick=0, channel=4, data=[39, 95]),
   midi.NoteOffEvent(tick=480, channel=4, data=[39, 95]),
   midi.NoteOnEvent(tick=0, channel=4, data=[39, 95]),
   midi.NoteOffEvent(tick=480, channel=4, data=[39, 95]),
   midi.NoteOnEvent(tick=0, channel=4, data=[39, 95]),
   midi.NoteOffEvent(tick=480, channel=4, data=[39, 95]),
   midi.NoteOnEvent(tick=0, channel=4, data=[39, 95]),
   midi.NoteOffEvent(tick=480, channel=4, data=[39, 95]),
   midi.NoteOnEvent(tick=0, channel=4, data=[39, 95]),
   midi.NoteOffEvent(tick=480, channel=4, data=[39, 95]),
   midi.NoteOnEvent(tick=0, channel=4, data=[39, 95]),
   midi.NoteOffEvent(tick=480, channel=4, data=[39, 95]),
   midi.NoteOnEvent(tick=0, channel=4, data=[39, 95]),
   midi.NoteOffEvent(tick=480, channel=4, data=[39, 95]),
   midi.NoteOnEvent(tick=0, channel=4, data=[39, 95]),
   midi.NoteOffEvent(tick=480, channel=4, data=[39, 95]),
   midi.NoteOnEvent(tick=0, channel=4, data=[39, 95]),
   midi.NoteOffEvent(tick=480, channel=4, data=[39, 95]),
   midi.NoteOnEvent(tick=0, channel=4, data=[39, 95]),
   midi.NoteOffEvent(tick=240, channel=4, data=[39, 95]),
   midi.NoteOnEvent(tick=0, channel=4, data=[39, 95]),
   midi.NoteOffEvent(tick=240, channel=4, data=[39, 95]),
   midi.NoteOnEvent(tick=0, channel=4, data=[39, 95]),
   midi.NoteOffEvent(tick=480, channel=4, data=[39, 95]),
   midi.NoteOnEvent(tick=0, channel=4, data=[39, 95]),
   midi.NoteOffEvent(tick=480, channel=4, data=[39, 95]),
   midi.NoteOnEvent(tick=0, channel=4, data=[39, 95]),
   midi.NoteOffEvent(tick=240, channel=4, data=[39, 95]),
   midi.NoteOnEvent(tick=0, channel=4, data=[39, 95]),
   midi.NoteOffEvent(tick=240, channel=4, data=[39, 95]),
   midi.NoteOnEvent(tick=0, channel=4, data=[39, 95]),
   midi.NoteOffEvent(tick=480, channel=4, data=[39, 95]),
   midi.NoteOnEvent(tick=0, channel=4, data=[39, 95]),
   midi.NoteOffEvent(tick=480, channel=4, data=[39, 95]),
   midi.NoteOnEvent(tick=0, channel=4, data=[39, 95]),
   midi.NoteOffEvent(tick=240, channel=4, data=[39, 95]),
   midi.NoteOnEvent(tick=0, channel=4, data=[39, 95]),
   midi.NoteOffEvent(tick=240, channel=4, data=[39, 95]),
   midi.NoteOnEvent(tick=0, channel=4, data=[39, 95]),
   midi.NoteOffEvent(tick=480, channel=4, data=[39, 95]),
   midi.NoteOnEvent(tick=0, channel=4, data=[39, 95]),
   midi.NoteOffEvent(tick=480, channel=4, data=[39, 95]),
   midi.NoteOnEvent(tick=0, channel=4, data=[39, 95]),
   midi.NoteOffEvent(tick=480, channel=4, data=[39, 95]),
   midi.NoteOnEvent(tick=0, channel=4, data=[39, 95]),
   midi.NoteOffEvent(tick=480, channel=4, data=[39, 95]),
   midi.NoteOnEvent(tick=0, channel=4, data=[39, 95]),
   midi.NoteOffEvent(tick=480, channel=4, data=[39, 95]),
   midi.NoteOnEvent(tick=0, channel=4, data=[39, 95]),
   midi.NoteOffEvent(tick=480, channel=4, data=[39, 95]),
   midi.NoteOnEvent(tick=0, channel=4, data=[39, 95]),
   midi.NoteOffEvent(tick=480, channel=4, data=[39, 95]),
   midi.NoteOnEvent(tick=0, channel=4, data=[39, 95]),
   midi.NoteOffEvent(tick=480, channel=4, data=[39, 95]),
   midi.NoteOnEvent(tick=0, channel=4, data=[39, 95]),
   midi.NoteOffEvent(tick=480, channel=4, data=[39, 95]),
   midi.NoteOnEvent(tick=0, channel=4, data=[39, 95]),
   midi.NoteOffEvent(tick=240, channel=4, data=[39, 95]),
   midi.NoteOnEvent(tick=0, channel=4, data=[39, 95]),
   midi.NoteOffEvent(tick=240, channel=4, data=[39, 95]),
   midi.NoteOnEvent(tick=0, channel=4, data=[39, 95]),
   midi.NoteOffEvent(tick=480, channel=4, data=[39, 95]),
   midi.NoteOnEvent(tick=0, channel=4, data=[39, 95]),
   midi.NoteOffEvent(tick=480, channel=4, data=[39, 95]),
   midi.NoteOnEvent(tick=0, channel=4, data=[39, 95]),
   midi.NoteOffEvent(tick=240, channel=4, data=[39, 95]),
   midi.NoteOnEvent(tick=0, channel=4, data=[39, 95]),
   midi.NoteOffEvent(tick=240, channel=4, data=[39, 95]),
   midi.NoteOnEvent(tick=0, channel=4, data=[39, 95]),
   midi.NoteOffEvent(tick=480, channel=4, data=[39, 95]),
   midi.NoteOnEvent(tick=0, channel=4, data=[39, 95]),
   midi.NoteOffEvent(tick=480, channel=4, data=[39, 95]),
   midi.NoteOnEvent(tick=0, channel=4, data=[39, 95]),
   midi.NoteOffEvent(tick=240, channel=4, data=[39, 95]),
   midi.NoteOnEvent(tick=0, channel=4, data=[39, 95]),
   midi.NoteOffEvent(tick=240, channel=4, data=[39, 95]),
   midi.NoteOnEvent(tick=0, channel=4, data=[39, 95]),
   midi.NoteOffEvent(tick=480, channel=4, data=[39, 95]),
   midi.NoteOnEvent(tick=0, channel=4, data=[27, 95]),
   midi.NoteOffEvent(tick=960, channel=4, data=[27, 95]),
   midi.NoteOnEvent(tick=2880, channel=4, data=[27, 95]),
   midi.NoteOffEvent(tick=480, channel=4, data=[27, 95]),
   midi.NoteOnEvent(tick=0, channel=4, data=[27, 95]),
   midi.NoteOffEvent(tick=480, channel=4, data=[27, 95]),
   midi.NoteOnEvent(tick=0, channel=4, data=[27, 95]),
   midi.NoteOffEvent(tick=480, channel=4, data=[27, 95]),
   midi.NoteOnEvent(tick=0, channel=4, data=[27, 95]),
   midi.NoteOffEvent(tick=480, channel=4, data=[27, 95]),
   midi.NoteOnEvent(tick=0, channel=4, data=[27, 95]),
   midi.NoteOffEvent(tick=480, channel=4, data=[27, 95]),
   midi.NoteOnEvent(tick=0, channel=4, data=[27, 95]),
   midi.NoteOffEvent(tick=480, channel=4, data=[27, 95]),
   midi.NoteOnEvent(tick=0, channel=4, data=[27, 95]),
   midi.NoteOffEvent(tick=480, channel=4, data=[27, 95]),
   midi.NoteOnEvent(tick=0, channel=4, data=[27, 95]),
   midi.NoteOffEvent(tick=480, channel=4, data=[27, 95]),
   midi.NoteOnEvent(tick=0, channel=4, data=[30, 95]),
   midi.NoteOffEvent(tick=480, channel=4, data=[30, 95]),
   midi.NoteOnEvent(tick=0, channel=4, data=[30, 95]),
   midi.NoteOffEvent(tick=480, channel=4, data=[30, 95]),
   midi.NoteOnEvent(tick=0, channel=4, data=[30, 95]),
   midi.NoteOffEvent(tick=480, channel=4, data=[30, 95]),
   midi.NoteOnEvent(tick=0, channel=4, data=[30, 95]),
   midi.NoteOffEvent(tick=480, channel=4, data=[30, 95]),
   midi.NoteOnEvent(tick=0, channel=4, data=[28, 95]),
   midi.NoteOffEvent(tick=480, channel=4, data=[28, 95]),
   midi.NoteOnEvent(tick=0, channel=4, data=[28, 95]),
   midi.NoteOffEvent(tick=480, channel=4, data=[28, 95]),
   midi.NoteOnEvent(tick=0, channel=4, data=[28, 95]),
   midi.NoteOffEvent(tick=480, channel=4, data=[28, 95]),
   midi.NoteOnEvent(tick=0, channel=4, data=[28, 95]),
   midi.NoteOffEvent(tick=480, channel=4, data=[28, 95]),
   midi.NoteOnEvent(tick=0, channel=4, data=[27, 95]),
   midi.NoteOffEvent(tick=480, channel=4, data=[27, 95]),
   midi.NoteOnEvent(tick=0, channel=4, data=[27, 95]),
   midi.NoteOffEvent(tick=480, channel=4, data=[27, 95]),
   midi.NoteOnEvent(tick=0, channel=4, data=[27, 95]),
   midi.NoteOffEvent(tick=480, channel=4, data=[27, 95]),
   midi.NoteOnEvent(tick=0, channel=4, data=[27, 95]),
   midi.NoteOffEvent(tick=480, channel=4, data=[27, 95]),
   midi.NoteOnEvent(tick=0, channel=4, data=[27, 95]),
   midi.NoteOffEvent(tick=480, channel=4, data=[27, 95]),
   midi.NoteOnEvent(tick=0, channel=4, data=[27, 95]),
   midi.NoteOffEvent(tick=480, channel=4, data=[27, 95]),
   midi.NoteOnEvent(tick=0, channel=4, data=[27, 95]),
   midi.NoteOffEvent(tick=480, channel=4, data=[27, 95]),
   midi.NoteOnEvent(tick=0, channel=4, data=[27, 95]),
   midi.NoteOffEvent(tick=480, channel=4, data=[27, 95]),
   midi.NoteOnEvent(tick=0, channel=4, data=[30, 95]),
   midi.NoteOffEvent(tick=480, channel=4, data=[30, 95]),
   midi.NoteOnEvent(tick=0, channel=4, data=[30, 95]),
   midi.NoteOffEvent(tick=480, channel=4, data=[30, 95]),
   midi.NoteOnEvent(tick=0, channel=4, data=[30, 95]),
   midi.NoteOffEvent(tick=480, channel=4, data=[30, 95]),
   midi.NoteOnEvent(tick=0, channel=4, data=[30, 95]),
   midi.NoteOffEvent(tick=480, channel=4, data=[30, 95]),
   midi.NoteOnEvent(tick=0, channel=4, data=[28, 95]),
   midi.NoteOffEvent(tick=480, channel=4, data=[28, 95]),
   midi.NoteOnEvent(tick=0, channel=4, data=[28, 95]),
   midi.NoteOffEvent(tick=480, channel=4, data=[28, 95]),
   midi.NoteOnEvent(tick=0, channel=4, data=[28, 95]),
   midi.NoteOffEvent(tick=480, channel=4, data=[28, 95]),
   midi.NoteOnEvent(tick=0, channel=4, data=[28, 95]),
   midi.NoteOffEvent(tick=480, channel=4, data=[28, 95]),
   midi.NoteOnEvent(tick=0, channel=4, data=[27, 95]),
   midi.NoteOffEvent(tick=480, channel=4, data=[27, 95]),
   midi.NoteOnEvent(tick=0, channel=4, data=[27, 95]),
   midi.NoteOffEvent(tick=480, channel=4, data=[27, 95]),
   midi.NoteOnEvent(tick=0, channel=4, data=[27, 95]),
   midi.NoteOffEvent(tick=480, channel=4, data=[27, 95]),
   midi.NoteOnEvent(tick=0, channel=4, data=[27, 95]),
   midi.NoteOffEvent(tick=480, channel=4, data=[27, 95]),
   midi.NoteOnEvent(tick=0, channel=4, data=[27, 95]),
   midi.NoteOffEvent(tick=480, channel=4, data=[27, 95]),
   midi.NoteOnEvent(tick=0, channel=4, data=[27, 95]),
   midi.NoteOffEvent(tick=480, channel=4, data=[27, 95]),
   midi.NoteOnEvent(tick=0, channel=4, data=[27, 95]),
   midi.NoteOffEvent(tick=480, channel=4, data=[27, 95]),
   midi.NoteOnEvent(tick=0, channel=4, data=[27, 95]),
   midi.NoteOffEvent(tick=480, channel=4, data=[27, 95]),
   midi.NoteOnEvent(tick=0, channel=4, data=[30, 95]),
   midi.NoteOffEvent(tick=480, channel=4, data=[30, 95]),
   midi.NoteOnEvent(tick=0, channel=4, data=[30, 95]),
   midi.NoteOffEvent(tick=480, channel=4, data=[30, 95]),
   midi.NoteOnEvent(tick=0, channel=4, data=[30, 95]),
   midi.NoteOffEvent(tick=480, channel=4, data=[30, 95]),
   midi.NoteOnEvent(tick=0, channel=4, data=[30, 95]),
   midi.NoteOffEvent(tick=480, channel=4, data=[30, 95]),
   midi.NoteOnEvent(tick=0, channel=4, data=[28, 95]),
   midi.NoteOffEvent(tick=480, channel=4, data=[28, 95]),
   midi.NoteOnEvent(tick=0, channel=4, data=[28, 95]),
   midi.NoteOffEvent(tick=480, channel=4, data=[28, 95]),
   midi.NoteOnEvent(tick=0, channel=4, data=[28, 95]),
   midi.NoteOffEvent(tick=480, channel=4, data=[28, 95]),
   midi.NoteOnEvent(tick=0, channel=4, data=[28, 95]),
   midi.NoteOffEvent(tick=480, channel=4, data=[28, 95]),
   midi.NoteOnEvent(tick=0, channel=4, data=[27, 95]),
   midi.NoteOffEvent(tick=480, channel=4, data=[27, 95]),
   midi.NoteOnEvent(tick=0, channel=4, data=[27, 95]),
   midi.NoteOffEvent(tick=480, channel=4, data=[27, 95]),
   midi.NoteOnEvent(tick=0, channel=4, data=[27, 95]),
   midi.NoteOffEvent(tick=480, channel=4, data=[27, 95]),
   midi.NoteOnEvent(tick=0, channel=4, data=[27, 95]),
   midi.NoteOffEvent(tick=480, channel=4, data=[27, 95]),
   midi.NoteOnEvent(tick=0, channel=4, data=[27, 95]),
   midi.NoteOffEvent(tick=480, channel=4, data=[27, 95]),
   midi.NoteOnEvent(tick=0, channel=4, data=[27, 95]),
   midi.NoteOffEvent(tick=480, channel=4, data=[27, 95]),
   midi.NoteOnEvent(tick=0, channel=4, data=[27, 95]),
   midi.NoteOffEvent(tick=480, channel=4, data=[27, 95]),
   midi.NoteOnEvent(tick=0, channel=4, data=[27, 95]),
   midi.NoteOffEvent(tick=480, channel=4, data=[27, 95]),
   midi.NoteOnEvent(tick=0, channel=4, data=[30, 95]),
   midi.NoteOffEvent(tick=480, channel=4, data=[30, 95]),
   midi.NoteOnEvent(tick=0, channel=4, data=[30, 95]),
   midi.NoteOffEvent(tick=480, channel=4, data=[30, 95]),
   midi.NoteOnEvent(tick=0, channel=4, data=[30, 95]),
   midi.NoteOffEvent(tick=480, channel=4, data=[30, 95]),
   midi.NoteOnEvent(tick=0, channel=4, data=[30, 95]),
   midi.NoteOffEvent(tick=480, channel=4, data=[30, 95]),
   midi.NoteOnEvent(tick=0, channel=4, data=[28, 95]),
   midi.NoteOffEvent(tick=480, channel=4, data=[28, 95]),
   midi.NoteOnEvent(tick=0, channel=4, data=[28, 95]),
   midi.NoteOffEvent(tick=480, channel=4, data=[28, 95]),
   midi.NoteOnEvent(tick=0, channel=4, data=[28, 95]),
   midi.NoteOffEvent(tick=480, channel=4, data=[28, 95]),
   midi.NoteOnEvent(tick=0, channel=4, data=[28, 95]),
   midi.NoteOffEvent(tick=480, channel=4, data=[28, 95]),
   midi.NoteOnEvent(tick=0, channel=4, data=[27, 95]),
   midi.NoteOffEvent(tick=480, channel=4, data=[27, 95]),
   midi.NoteOnEvent(tick=0, channel=4, data=[27, 95]),
   midi.NoteOffEvent(tick=480, channel=4, data=[27, 95]),
   midi.NoteOnEvent(tick=0, channel=4, data=[27, 95]),
   midi.NoteOffEvent(tick=480, channel=4, data=[27, 95]),
   midi.NoteOnEvent(tick=0, channel=4, data=[27, 95]),
   midi.NoteOffEvent(tick=480, channel=4, data=[27, 95]),
   midi.NoteOnEvent(tick=0, channel=4, data=[27, 95]),
   midi.NoteOffEvent(tick=480, channel=4, data=[27, 95]),
   midi.NoteOnEvent(tick=0, channel=4, data=[27, 95]),
   midi.NoteOffEvent(tick=480, channel=4, data=[27, 95]),
   midi.NoteOnEvent(tick=0, channel=4, data=[27, 95]),
   midi.NoteOffEvent(tick=480, channel=4, data=[27, 95]),
   midi.NoteOnEvent(tick=0, channel=4, data=[27, 95]),
   midi.NoteOffEvent(tick=480, channel=4, data=[27, 95]),
   midi.NoteOnEvent(tick=0, channel=4, data=[30, 95]),
   midi.NoteOffEvent(tick=480, channel=4, data=[30, 95]),
   midi.NoteOnEvent(tick=0, channel=4, data=[30, 95]),
   midi.NoteOffEvent(tick=480, channel=4, data=[30, 95]),
   midi.NoteOnEvent(tick=0, channel=4, data=[30, 95]),
   midi.NoteOffEvent(tick=480, channel=4, data=[30, 95]),
   midi.NoteOnEvent(tick=0, channel=4, data=[30, 95]),
   midi.NoteOffEvent(tick=480, channel=4, data=[30, 95]),
   midi.NoteOnEvent(tick=0, channel=4, data=[28, 95]),
   midi.NoteOffEvent(tick=480, channel=4, data=[28, 95]),
   midi.NoteOnEvent(tick=0, channel=4, data=[28, 95]),
   midi.NoteOffEvent(tick=480, channel=4, data=[28, 95]),
   midi.NoteOnEvent(tick=0, channel=4, data=[28, 95]),
   midi.NoteOffEvent(tick=480, channel=4, data=[28, 95]),
   midi.NoteOnEvent(tick=0, channel=4, data=[28, 95]),
   midi.NoteOffEvent(tick=480, channel=4, data=[28, 95]),
   midi.NoteOnEvent(tick=0, channel=4, data=[27, 95]),
   midi.NoteOffEvent(tick=480, channel=4, data=[27, 95]),
   midi.NoteOnEvent(tick=0, channel=4, data=[27, 95]),
   midi.NoteOffEvent(tick=480, channel=4, data=[27, 95]),
   midi.NoteOnEvent(tick=0, channel=4, data=[27, 95]),
   midi.NoteOffEvent(tick=480, channel=4, data=[27, 95]),
   midi.NoteOnEvent(tick=0, channel=4, data=[27, 95]),
   midi.NoteOffEvent(tick=480, channel=4, data=[27, 95]),
   midi.NoteOnEvent(tick=0, channel=4, data=[27, 95]),
   midi.NoteOffEvent(tick=480, channel=4, data=[27, 95]),
   midi.NoteOnEvent(tick=0, channel=4, data=[27, 95]),
   midi.NoteOffEvent(tick=480, channel=4, data=[27, 95]),
   midi.NoteOnEvent(tick=0, channel=4, data=[27, 95]),
   midi.NoteOffEvent(tick=480, channel=4, data=[27, 95]),
   midi.NoteOnEvent(tick=0, channel=4, data=[27, 95]),
   midi.NoteOffEvent(tick=480, channel=4, data=[27, 95]),
   midi.NoteOnEvent(tick=0, channel=4, data=[30, 95]),
   midi.NoteOffEvent(tick=480, channel=4, data=[30, 95]),
   midi.NoteOnEvent(tick=0, channel=4, data=[30, 95]),
   midi.NoteOffEvent(tick=480, channel=4, data=[30, 95]),
   midi.NoteOnEvent(tick=0, channel=4, data=[30, 95]),
   midi.NoteOffEvent(tick=480, channel=4, data=[30, 95]),
   midi.NoteOnEvent(tick=0, channel=4, data=[30, 95]),
   midi.NoteOffEvent(tick=480, channel=4, data=[30, 95]),
   midi.NoteOnEvent(tick=0, channel=4, data=[28, 95]),
   midi.NoteOffEvent(tick=480, channel=4, data=[28, 95]),
   midi.NoteOnEvent(tick=0, channel=4, data=[28, 95]),
   midi.NoteOffEvent(tick=480, channel=4, data=[28, 95]),
   midi.NoteOnEvent(tick=0, channel=4, data=[28, 95]),
   midi.NoteOffEvent(tick=480, channel=4, data=[28, 95]),
   midi.NoteOnEvent(tick=0, channel=4, data=[28, 95]),
   midi.NoteOffEvent(tick=480, channel=4, data=[28, 95]),
   midi.NoteOnEvent(tick=0, channel=4, data=[27, 95]),
   midi.NoteOffEvent(tick=480, channel=4, data=[27, 95]),
   midi.NoteOnEvent(tick=0, channel=4, data=[27, 95]),
   midi.NoteOffEvent(tick=480, channel=4, data=[27, 95]),
   midi.NoteOnEvent(tick=0, channel=4, data=[27, 95]),
   midi.NoteOffEvent(tick=480, channel=4, data=[27, 95]),
   midi.NoteOnEvent(tick=0, channel=4, data=[27, 95]),
   midi.NoteOffEvent(tick=480, channel=4, data=[27, 95]),
   midi.NoteOnEvent(tick=0, channel=4, data=[27, 95]),
   midi.NoteOffEvent(tick=480, channel=4, data=[27, 95]),
   midi.NoteOnEvent(tick=0, channel=4, data=[27, 95]),
   midi.NoteOffEvent(tick=480, channel=4, data=[27, 95]),
   midi.NoteOnEvent(tick=0, channel=4, data=[27, 95]),
   midi.NoteOffEvent(tick=480, channel=4, data=[27, 95]),
   midi.NoteOnEvent(tick=0, channel=4, data=[27, 95]),
   midi.NoteOffEvent(tick=480, channel=4, data=[27, 95]),
   midi.NoteOnEvent(tick=0, channel=4, data=[30, 95]),
   midi.NoteOffEvent(tick=480, channel=4, data=[30, 95]),
   midi.NoteOnEvent(tick=0, channel=4, data=[30, 95]),
   midi.NoteOffEvent(tick=480, channel=4, data=[30, 95]),
   midi.NoteOnEvent(tick=0, channel=4, data=[30, 95]),
   midi.NoteOffEvent(tick=480, channel=4, data=[30, 95]),
   midi.NoteOnEvent(tick=0, channel=4, data=[30, 95]),
   midi.NoteOffEvent(tick=480, channel=4, data=[30, 95]),
   midi.NoteOnEvent(tick=0, channel=4, data=[28, 95]),
   midi.NoteOffEvent(tick=480, channel=4, data=[28, 95]),
   midi.NoteOnEvent(tick=0, channel=4, data=[28, 95]),
   midi.NoteOffEvent(tick=480, channel=4, data=[28, 95]),
   midi.NoteOnEvent(tick=0, channel=4, data=[28, 95]),
   midi.NoteOffEvent(tick=480, channel=4, data=[28, 95]),
   midi.NoteOnEvent(tick=0, channel=4, data=[28, 95]),
   midi.NoteOffEvent(tick=480, channel=4, data=[28, 95]),
   midi.NoteOnEvent(tick=0, channel=4, data=[27, 95]),
   midi.NoteOffEvent(tick=480, channel=4, data=[27, 95]),
   midi.NoteOnEvent(tick=0, channel=4, data=[27, 95]),
   midi.NoteOffEvent(tick=480, channel=4, data=[27, 95]),
   midi.NoteOnEvent(tick=0, channel=4, data=[27, 95]),
   midi.NoteOffEvent(tick=480, channel=4, data=[27, 95]),
   midi.NoteOnEvent(tick=0, channel=4, data=[27, 95]),
   midi.NoteOffEvent(tick=480, channel=4, data=[27, 95]),
   midi.NoteOnEvent(tick=0, channel=4, data=[27, 95]),
   midi.NoteOffEvent(tick=480, channel=4, data=[27, 95]),
   midi.NoteOnEvent(tick=0, channel=4, data=[27, 95]),
   midi.NoteOffEvent(tick=480, channel=4, data=[27, 95]),
   midi.NoteOnEvent(tick=0, channel=4, data=[27, 95]),
   midi.NoteOffEvent(tick=480, channel=4, data=[27, 95]),
   midi.NoteOnEvent(tick=0, channel=4, data=[27, 95]),
   midi.NoteOffEvent(tick=480, channel=4, data=[27, 95]),
   midi.NoteOnEvent(tick=0, channel=4, data=[30, 95]),
   midi.NoteOffEvent(tick=480, channel=4, data=[30, 95]),
   midi.NoteOnEvent(tick=0, channel=4, data=[30, 95]),
   midi.NoteOffEvent(tick=480, channel=4, data=[30, 95]),
   midi.NoteOnEvent(tick=0, channel=4, data=[30, 95]),
   midi.NoteOffEvent(tick=480, channel=4, data=[30, 95]),
   midi.NoteOnEvent(tick=0, channel=4, data=[30, 95]),
   midi.NoteOffEvent(tick=480, channel=4, data=[30, 95]),
   midi.NoteOnEvent(tick=0, channel=4, data=[28, 95]),
   midi.NoteOffEvent(tick=480, channel=4, data=[28, 95]),
   midi.NoteOnEvent(tick=0, channel=4, data=[28, 95]),
   midi.NoteOffEvent(tick=480, channel=4, data=[28, 95]),
   midi.NoteOnEvent(tick=0, channel=4, data=[28, 95]),
   midi.NoteOffEvent(tick=480, channel=4, data=[28, 95]),
   midi.NoteOnEvent(tick=0, channel=4, data=[28, 95]),
   midi.NoteOffEvent(tick=480, channel=4, data=[28, 95]),
   midi.NoteOnEvent(tick=0, channel=4, data=[27, 95]),
   midi.NoteOffEvent(tick=480, channel=4, data=[27, 95]),
   midi.NoteOnEvent(tick=0, channel=4, data=[27, 95]),
   midi.NoteOffEvent(tick=480, channel=4, data=[27, 95]),
   midi.NoteOnEvent(tick=0, channel=4, data=[27, 95]),
   midi.NoteOffEvent(tick=480, channel=4, data=[27, 95]),
   midi.NoteOnEvent(tick=0, channel=4, data=[27, 95]),
   midi.NoteOffEvent(tick=480, channel=4, data=[27, 95]),
   midi.NoteOnEvent(tick=0, channel=4, data=[27, 95]),
   midi.NoteOffEvent(tick=480, channel=4, data=[27, 95]),
   midi.NoteOnEvent(tick=0, channel=4, data=[27, 95]),
   midi.NoteOffEvent(tick=480, channel=4, data=[27, 95]),
   midi.NoteOnEvent(tick=0, channel=4, data=[27, 95]),
   midi.NoteOffEvent(tick=480, channel=4, data=[27, 95]),
   midi.NoteOnEvent(tick=0, channel=4, data=[27, 95]),
   midi.NoteOffEvent(tick=480, channel=4, data=[27, 95]),
   midi.NoteOnEvent(tick=0, channel=4, data=[30, 95]),
   midi.NoteOffEvent(tick=480, channel=4, data=[30, 95]),
   midi.NoteOnEvent(tick=0, channel=4, data=[30, 95]),
   midi.NoteOffEvent(tick=480, channel=4, data=[30, 95]),
   midi.NoteOnEvent(tick=0, channel=4, data=[30, 95]),
   midi.NoteOffEvent(tick=480, channel=4, data=[30, 95]),
   midi.NoteOnEvent(tick=0, channel=4, data=[30, 95]),
   midi.NoteOffEvent(tick=480, channel=4, data=[30, 95]),
   midi.NoteOnEvent(tick=0, channel=4, data=[28, 95]),
   midi.NoteOffEvent(tick=480, channel=4, data=[28, 95]),
   midi.NoteOnEvent(tick=0, channel=4, data=[28, 95]),
   midi.NoteOffEvent(tick=480, channel=4, data=[28, 95]),
   midi.NoteOnEvent(tick=0, channel=4, data=[28, 95]),
   midi.NoteOffEvent(tick=480, channel=4, data=[28, 95]),
   midi.NoteOnEvent(tick=0, channel=4, data=[28, 95]),
   midi.NoteOffEvent(tick=480, channel=4, data=[28, 95]),
   midi.NoteOnEvent(tick=0, channel=4, data=[27, 95]),
   midi.NoteOffEvent(tick=480, channel=4, data=[27, 95]),
   midi.NoteOnEvent(tick=0, channel=4, data=[27, 95]),
   midi.NoteOffEvent(tick=480, channel=4, data=[27, 95]),
   midi.NoteOnEvent(tick=0, channel=4, data=[27, 95]),
   midi.NoteOffEvent(tick=480, channel=4, data=[27, 95]),
   midi.NoteOnEvent(tick=0, channel=4, data=[27, 95]),
   midi.NoteOffEvent(tick=480, channel=4, data=[27, 95]),
   midi.NoteOnEvent(tick=0, channel=4, data=[27, 95]),
   midi.NoteOffEvent(tick=480, channel=4, data=[27, 95]),
   midi.NoteOnEvent(tick=0, channel=4, data=[27, 95]),
   midi.NoteOffEvent(tick=480, channel=4, data=[27, 95]),
   midi.NoteOnEvent(tick=0, channel=4, data=[27, 95]),
   midi.NoteOffEvent(tick=480, channel=4, data=[27, 95]),
   midi.NoteOnEvent(tick=0, channel=4, data=[27, 95]),
   midi.NoteOffEvent(tick=480, channel=4, data=[27, 95]),
   midi.NoteOnEvent(tick=0, channel=4, data=[30, 95]),
   midi.NoteOffEvent(tick=480, channel=4, data=[30, 95]),
   midi.NoteOnEvent(tick=0, channel=4, data=[30, 95]),
   midi.NoteOffEvent(tick=480, channel=4, data=[30, 95]),
   midi.NoteOnEvent(tick=0, channel=4, data=[30, 95]),
   midi.NoteOffEvent(tick=480, channel=4, data=[30, 95]),
   midi.NoteOnEvent(tick=0, channel=4, data=[30, 95]),
   midi.NoteOffEvent(tick=480, channel=4, data=[30, 95]),
   midi.NoteOnEvent(tick=0, channel=4, data=[28, 95]),
   midi.NoteOffEvent(tick=480, channel=4, data=[28, 95]),
   midi.NoteOnEvent(tick=0, channel=4, data=[28, 95]),
   midi.NoteOffEvent(tick=480, channel=4, data=[28, 95]),
   midi.NoteOnEvent(tick=0, channel=4, data=[28, 95]),
   midi.NoteOffEvent(tick=480, channel=4, data=[28, 95]),
   midi.NoteOnEvent(tick=0, channel=4, data=[28, 95]),
   midi.NoteOffEvent(tick=480, channel=4, data=[28, 95]),
   midi.NoteOnEvent(tick=0, channel=4, data=[27, 95]),
   midi.NoteOffEvent(tick=480, channel=4, data=[27, 95]),
   midi.NoteOnEvent(tick=0, channel=4, data=[27, 95]),
   midi.NoteOffEvent(tick=480, channel=4, data=[27, 95]),
   midi.NoteOnEvent(tick=0, channel=4, data=[27, 95]),
   midi.NoteOffEvent(tick=480, channel=4, data=[27, 95]),
   midi.NoteOnEvent(tick=0, channel=4, data=[27, 95]),
   midi.NoteOffEvent(tick=480, channel=4, data=[27, 95]),
   midi.NoteOnEvent(tick=0, channel=4, data=[27, 95]),
   midi.NoteOffEvent(tick=480, channel=4, data=[27, 95]),
   midi.NoteOnEvent(tick=0, channel=4, data=[27, 95]),
   midi.NoteOffEvent(tick=480, channel=4, data=[27, 95]),
   midi.NoteOnEvent(tick=0, channel=4, data=[27, 95]),
   midi.NoteOffEvent(tick=480, channel=4, data=[27, 95]),
   midi.NoteOnEvent(tick=0, channel=4, data=[27, 95]),
   midi.NoteOffEvent(tick=480, channel=4, data=[27, 95]),
   midi.NoteOnEvent(tick=0, channel=4, data=[30, 95]),
   midi.NoteOffEvent(tick=480, channel=4, data=[30, 95]),
   midi.NoteOnEvent(tick=0, channel=4, data=[30, 95]),
   midi.NoteOffEvent(tick=480, channel=4, data=[30, 95]),
   midi.NoteOnEvent(tick=0, channel=4, data=[30, 95]),
   midi.NoteOffEvent(tick=480, channel=4, data=[30, 95]),
   midi.NoteOnEvent(tick=0, channel=4, data=[30, 95]),
   midi.NoteOffEvent(tick=480, channel=4, data=[30, 95]),
   midi.NoteOnEvent(tick=0, channel=4, data=[28, 95]),
   midi.NoteOffEvent(tick=480, channel=4, data=[28, 95]),
   midi.NoteOnEvent(tick=0, channel=4, data=[28, 95]),
   midi.NoteOffEvent(tick=480, channel=4, data=[28, 95]),
   midi.NoteOnEvent(tick=0, channel=4, data=[28, 95]),
   midi.NoteOffEvent(tick=480, channel=4, data=[28, 95]),
   midi.NoteOnEvent(tick=0, channel=4, data=[28, 95]),
   midi.NoteOffEvent(tick=480, channel=4, data=[28, 95]),
   midi.NoteOnEvent(tick=0, channel=4, data=[27, 95]),
   midi.NoteOffEvent(tick=480, channel=4, data=[27, 95]),
   midi.NoteOnEvent(tick=0, channel=4, data=[27, 95]),
   midi.NoteOffEvent(tick=480, channel=4, data=[27, 95]),
   midi.NoteOnEvent(tick=0, channel=4, data=[27, 95]),
   midi.NoteOffEvent(tick=480, channel=4, data=[27, 95]),
   midi.NoteOnEvent(tick=0, channel=4, data=[27, 95]),
   midi.NoteOffEvent(tick=480, channel=4, data=[27, 95]),
   midi.NoteOnEvent(tick=0, channel=4, data=[27, 95]),
   midi.NoteOffEvent(tick=480, channel=4, data=[27, 95]),
   midi.NoteOnEvent(tick=0, channel=4, data=[27, 95]),
   midi.NoteOffEvent(tick=480, channel=4, data=[27, 95]),
   midi.NoteOnEvent(tick=0, channel=4, data=[27, 95]),
   midi.NoteOffEvent(tick=480, channel=4, data=[27, 95]),
   midi.NoteOnEvent(tick=0, channel=4, data=[27, 95]),
   midi.NoteOffEvent(tick=480, channel=4, data=[27, 95]),
   midi.NoteOnEvent(tick=0, channel=4, data=[30, 95]),
   midi.NoteOffEvent(tick=480, channel=4, data=[30, 95]),
   midi.NoteOnEvent(tick=0, channel=4, data=[30, 95]),
   midi.NoteOffEvent(tick=480, channel=4, data=[30, 95]),
   midi.NoteOnEvent(tick=0, channel=4, data=[30, 95]),
   midi.NoteOffEvent(tick=480, channel=4, data=[30, 95]),
   midi.NoteOnEvent(tick=0, channel=4, data=[30, 95]),
   midi.NoteOffEvent(tick=480, channel=4, data=[30, 95]),
   midi.NoteOnEvent(tick=0, channel=4, data=[28, 95]),
   midi.NoteOffEvent(tick=480, channel=4, data=[28, 95]),
   midi.NoteOnEvent(tick=0, channel=4, data=[28, 95]),
   midi.NoteOffEvent(tick=480, channel=4, data=[28, 95]),
   midi.NoteOnEvent(tick=0, channel=4, data=[28, 95]),
   midi.NoteOffEvent(tick=480, channel=4, data=[28, 95]),
   midi.NoteOnEvent(tick=0, channel=4, data=[28, 95]),
   midi.NoteOffEvent(tick=480, channel=4, data=[28, 95]),
   midi.NoteOnEvent(tick=0, channel=4, data=[33, 95]),
   midi.NoteOffEvent(tick=480, channel=4, data=[33, 95]),
   midi.NoteOnEvent(tick=0, channel=4, data=[33, 95]),
   midi.NoteOffEvent(tick=480, channel=4, data=[33, 95]),
   midi.NoteOnEvent(tick=0, channel=4, data=[33, 95]),
   midi.NoteOffEvent(tick=480, channel=4, data=[33, 95]),
   midi.NoteOnEvent(tick=0, channel=4, data=[33, 95]),
   midi.NoteOffEvent(tick=480, channel=4, data=[33, 95]),
   midi.NoteOnEvent(tick=0, channel=4, data=[33, 95]),
   midi.NoteOffEvent(tick=480, channel=4, data=[33, 95]),
   midi.NoteOnEvent(tick=0, channel=4, data=[33, 95]),
   midi.NoteOffEvent(tick=480, channel=4, data=[33, 95]),
   midi.NoteOnEvent(tick=0, channel=4, data=[33, 95]),
   midi.NoteOffEvent(tick=480, channel=4, data=[33, 95]),
   midi.NoteOnEvent(tick=0, channel=4, data=[33, 95]),
   midi.NoteOffEvent(tick=480, channel=4, data=[33, 95]),
   midi.NoteOnEvent(tick=0, channel=4, data=[33, 95]),
   midi.NoteOffEvent(tick=480, channel=4, data=[33, 95]),
   midi.NoteOnEvent(tick=0, channel=4, data=[33, 95]),
   midi.NoteOffEvent(tick=480, channel=4, data=[33, 95]),
   midi.NoteOnEvent(tick=0, channel=4, data=[32, 95]),
   midi.NoteOffEvent(tick=480, channel=4, data=[32, 95]),
   midi.NoteOnEvent(tick=0, channel=4, data=[32, 95]),
   midi.NoteOffEvent(tick=480, channel=4, data=[32, 95]),
   midi.NoteOnEvent(tick=0, channel=4, data=[33, 95]),
   midi.NoteOffEvent(tick=480, channel=4, data=[33, 95]),
   midi.NoteOnEvent(tick=0, channel=4, data=[33, 95]),
   midi.NoteOffEvent(tick=480, channel=4, data=[33, 95]),
   midi.NoteOnEvent(tick=0, channel=4, data=[32, 95]),
   midi.NoteOffEvent(tick=480, channel=4, data=[32, 95]),
   midi.NoteOnEvent(tick=0, channel=4, data=[32, 95]),
   midi.NoteOffEvent(tick=480, channel=4, data=[32, 95]),
   midi.NoteOnEvent(tick=0, channel=4, data=[29, 95]),
   midi.NoteOffEvent(tick=480, channel=4, data=[29, 95]),
   midi.NoteOnEvent(tick=0, channel=4, data=[29, 95]),
   midi.NoteOffEvent(tick=480, channel=4, data=[29, 95]),
   midi.NoteOnEvent(tick=0, channel=4, data=[29, 95]),
   midi.NoteOffEvent(tick=480, channel=4, data=[29, 95]),
   midi.NoteOnEvent(tick=0, channel=4, data=[29, 95]),
   midi.NoteOffEvent(tick=480, channel=4, data=[29, 95]),
   midi.NoteOnEvent(tick=0, channel=4, data=[29, 95]),
   midi.NoteOffEvent(tick=480, channel=4, data=[29, 95]),
   midi.NoteOnEvent(tick=0, channel=4, data=[29, 95]),
   midi.NoteOffEvent(tick=480, channel=4, data=[29, 95]),
   midi.NoteOnEvent(tick=0, channel=4, data=[29, 95]),
   midi.NoteOffEvent(tick=480, channel=4, data=[29, 95]),
   midi.NoteOnEvent(tick=0, channel=4, data=[29, 95]),
   midi.NoteOffEvent(tick=480, channel=4, data=[29, 95]),
   midi.NoteOnEvent(tick=0, channel=4, data=[29, 95]),
   midi.NoteOffEvent(tick=480, channel=4, data=[29, 95]),
   midi.NoteOnEvent(tick=0, channel=4, data=[29, 95]),
   midi.NoteOffEvent(tick=480, channel=4, data=[29, 95]),
   midi.NoteOnEvent(tick=0, channel=4, data=[29, 95]),
   midi.NoteOffEvent(tick=480, channel=4, data=[29, 95]),
   midi.NoteOnEvent(tick=0, channel=4, data=[29, 95]),
   midi.NoteOffEvent(tick=480, channel=4, data=[29, 95]),
   midi.NoteOnEvent(tick=0, channel=4, data=[29, 95]),
   midi.NoteOffEvent(tick=480, channel=4, data=[29, 95]),
   midi.NoteOnEvent(tick=0, channel=4, data=[29, 95]),
   midi.NoteOffEvent(tick=480, channel=4, data=[29, 95]),
   midi.NoteOnEvent(tick=0, channel=4, data=[32, 95]),
   midi.NoteOffEvent(tick=480, channel=4, data=[32, 95]),
   midi.NoteOnEvent(tick=0, channel=4, data=[32, 95]),
   midi.NoteOffEvent(tick=480, channel=4, data=[32, 95]),
   midi.NoteOnEvent(tick=0, channel=4, data=[33, 95]),
   midi.NoteOffEvent(tick=480, channel=4, data=[33, 95]),
   midi.NoteOnEvent(tick=0, channel=4, data=[33, 95]),
   midi.NoteOffEvent(tick=480, channel=4, data=[33, 95]),
   midi.NoteOnEvent(tick=0, channel=4, data=[33, 95]),
   midi.NoteOffEvent(tick=480, channel=4, data=[33, 95]),
   midi.NoteOnEvent(tick=0, channel=4, data=[33, 95]),
   midi.NoteOffEvent(tick=480, channel=4, data=[33, 95]),
   midi.NoteOnEvent(tick=0, channel=4, data=[33, 95]),
   midi.NoteOffEvent(tick=480, channel=4, data=[33, 95]),
   midi.NoteOnEvent(tick=0, channel=4, data=[33, 95]),
   midi.NoteOffEvent(tick=480, channel=4, data=[33, 95]),
   midi.NoteOnEvent(tick=0, channel=4, data=[33, 95]),
   midi.NoteOffEvent(tick=480, channel=4, data=[33, 95]),
   midi.NoteOnEvent(tick=0, channel=4, data=[33, 95]),
   midi.NoteOffEvent(tick=480, channel=4, data=[33, 95]),
   midi.NoteOnEvent(tick=0, channel=4, data=[33, 95]),
   midi.NoteOffEvent(tick=480, channel=4, data=[33, 95]),
   midi.NoteOnEvent(tick=0, channel=4, data=[33, 95]),
   midi.NoteOffEvent(tick=480, channel=4, data=[33, 95]),
   midi.NoteOnEvent(tick=0, channel=4, data=[32, 95]),
   midi.NoteOffEvent(tick=480, channel=4, data=[32, 95]),
   midi.NoteOnEvent(tick=0, channel=4, data=[33, 95]),
   midi.NoteOffEvent(tick=480, channel=4, data=[33, 95]),
   midi.NoteOnEvent(tick=0, channel=4, data=[32, 95]),
   midi.NoteOffEvent(tick=480, channel=4, data=[32, 95]),
   midi.NoteOnEvent(tick=0, channel=4, data=[32, 95]),
   midi.NoteOffEvent(tick=480, channel=4, data=[32, 95]),
   midi.NoteOnEvent(tick=0, channel=4, data=[33, 95]),
   midi.NoteOffEvent(tick=480, channel=4, data=[33, 95]),
   midi.NoteOnEvent(tick=0, channel=4, data=[32, 95]),
   midi.NoteOffEvent(tick=480, channel=4, data=[32, 95]),
   midi.NoteOnEvent(tick=0, channel=4, data=[29, 95]),
   midi.NoteOffEvent(tick=480, channel=4, data=[29, 95]),
   midi.NoteOnEvent(tick=0, channel=4, data=[29, 95]),
   midi.NoteOffEvent(tick=480, channel=4, data=[29, 95]),
   midi.NoteOnEvent(tick=0, channel=4, data=[29, 95]),
   midi.NoteOffEvent(tick=480, channel=4, data=[29, 95]),
   midi.NoteOnEvent(tick=0, channel=4, data=[29, 95]),
   midi.NoteOffEvent(tick=480, channel=4, data=[29, 95]),
   midi.NoteOnEvent(tick=0, channel=4, data=[29, 95]),
   midi.NoteOffEvent(tick=480, channel=4, data=[29, 95]),
   midi.NoteOnEvent(tick=0, channel=4, data=[29, 95]),
   midi.NoteOffEvent(tick=480, channel=4, data=[29, 95]),
   midi.NoteOnEvent(tick=0, channel=4, data=[29, 95]),
   midi.NoteOffEvent(tick=480, channel=4, data=[29, 95]),
   midi.NoteOnEvent(tick=0, channel=4, data=[29, 95]),
   midi.NoteOffEvent(tick=480, channel=4, data=[29, 95]),
   midi.NoteOnEvent(tick=0, channel=4, data=[29, 95]),
   midi.NoteOffEvent(tick=480, channel=4, data=[29, 95]),
   midi.NoteOnEvent(tick=0, channel=4, data=[29, 95]),
   midi.NoteOffEvent(tick=480, channel=4, data=[29, 95]),
   midi.NoteOnEvent(tick=0, channel=4, data=[29, 95]),
   midi.NoteOffEvent(tick=480, channel=4, data=[29, 95]),
   midi.NoteOnEvent(tick=0, channel=4, data=[29, 95]),
   midi.NoteOffEvent(tick=480, channel=4, data=[29, 95]),
   midi.NoteOnEvent(tick=0, channel=4, data=[29, 95]),
   midi.NoteOffEvent(tick=480, channel=4, data=[29, 95]),
   midi.NoteOnEvent(tick=0, channel=4, data=[29, 95]),
   midi.NoteOffEvent(tick=480, channel=4, data=[29, 95]),
   midi.NoteOnEvent(tick=0, channel=4, data=[29, 95]),
   midi.NoteOffEvent(tick=480, channel=4, data=[29, 95]),
   midi.NoteOnEvent(tick=0, channel=4, data=[29, 95]),
   midi.NoteOffEvent(tick=480, channel=4, data=[29, 95]),
   midi.NoteOnEvent(tick=0, channel=4, data=[33, 95]),
   midi.NoteOffEvent(tick=480, channel=4, data=[33, 95]),
   midi.NoteOnEvent(tick=0, channel=4, data=[33, 95]),
   midi.NoteOffEvent(tick=480, channel=4, data=[33, 95]),
   midi.NoteOnEvent(tick=0, channel=4, data=[33, 95]),
   midi.NoteOffEvent(tick=480, channel=4, data=[33, 95]),
   midi.NoteOnEvent(tick=0, channel=4, data=[33, 95]),
   midi.NoteOffEvent(tick=480, channel=4, data=[33, 95]),
   midi.NoteOnEvent(tick=0, channel=4, data=[33, 95]),
   midi.NoteOffEvent(tick=480, channel=4, data=[33, 95]),
   midi.NoteOnEvent(tick=0, channel=4, data=[33, 95]),
   midi.NoteOffEvent(tick=480, channel=4, data=[33, 95]),
   midi.NoteOnEvent(tick=0, channel=4, data=[33, 95]),
   midi.NoteOffEvent(tick=480, channel=4, data=[33, 95]),
   midi.NoteOnEvent(tick=0, channel=4, data=[33, 95]),
   midi.NoteOffEvent(tick=480, channel=4, data=[33, 95]),
   midi.NoteOnEvent(tick=0, channel=4, data=[33, 95]),
   midi.NoteOffEvent(tick=480, channel=4, data=[33, 95]),
   midi.NoteOnEvent(tick=0, channel=4, data=[33, 95]),
   midi.NoteOffEvent(tick=480, channel=4, data=[33, 95]),
   midi.NoteOnEvent(tick=0, channel=4, data=[32, 95]),
   midi.NoteOffEvent(tick=480, channel=4, data=[32, 95]),
   midi.NoteOnEvent(tick=0, channel=4, data=[32, 95]),
   midi.NoteOffEvent(tick=480, channel=4, data=[32, 95]),
   midi.NoteOnEvent(tick=0, channel=4, data=[33, 95]),
   midi.NoteOffEvent(tick=480, channel=4, data=[33, 95]),
   midi.NoteOnEvent(tick=0, channel=4, data=[33, 95]),
   midi.NoteOffEvent(tick=480, channel=4, data=[33, 95]),
   midi.NoteOnEvent(tick=0, channel=4, data=[32, 95]),
   midi.NoteOffEvent(tick=480, channel=4, data=[32, 95]),
   midi.NoteOnEvent(tick=0, channel=4, data=[32, 95]),
   midi.NoteOffEvent(tick=480, channel=4, data=[32, 95]),
   midi.NoteOnEvent(tick=0, channel=4, data=[29, 95]),
   midi.NoteOffEvent(tick=480, channel=4, data=[29, 95]),
   midi.NoteOnEvent(tick=0, channel=4, data=[29, 95]),
   midi.NoteOffEvent(tick=480, channel=4, data=[29, 95]),
   midi.NoteOnEvent(tick=0, channel=4, data=[29, 95]),
   midi.NoteOffEvent(tick=480, channel=4, data=[29, 95]),
   midi.NoteOnEvent(tick=0, channel=4, data=[29, 95]),
   midi.NoteOffEvent(tick=480, channel=4, data=[29, 95]),
   midi.NoteOnEvent(tick=0, channel=4, data=[29, 95]),
   midi.NoteOffEvent(tick=480, channel=4, data=[29, 95]),
   midi.NoteOnEvent(tick=0, channel=4, data=[29, 95]),
   midi.NoteOffEvent(tick=480, channel=4, data=[29, 95]),
   midi.NoteOnEvent(tick=0, channel=4, data=[29, 95]),
   midi.NoteOffEvent(tick=480, channel=4, data=[29, 95]),
   midi.NoteOnEvent(tick=0, channel=4, data=[29, 95]),
   midi.NoteOffEvent(tick=480, channel=4, data=[29, 95]),
   midi.NoteOnEvent(tick=0, channel=4, data=[29, 95]),
   midi.NoteOffEvent(tick=480, channel=4, data=[29, 95]),
   midi.NoteOnEvent(tick=0, channel=4, data=[29, 95]),
   midi.NoteOffEvent(tick=480, channel=4, data=[29, 95]),
   midi.NoteOnEvent(tick=0, channel=4, data=[29, 95]),
   midi.NoteOffEvent(tick=480, channel=4, data=[29, 95]),
   midi.NoteOnEvent(tick=0, channel=4, data=[29, 95]),
   midi.NoteOffEvent(tick=480, channel=4, data=[29, 95]),
   midi.NoteOnEvent(tick=0, channel=4, data=[29, 95]),
   midi.NoteOffEvent(tick=480, channel=4, data=[29, 95]),
   midi.NoteOnEvent(tick=0, channel=4, data=[29, 95]),
   midi.NoteOffEvent(tick=480, channel=4, data=[29, 95]),
   midi.NoteOnEvent(tick=0, channel=4, data=[32, 95]),
   midi.NoteOffEvent(tick=480, channel=4, data=[32, 95]),
   midi.NoteOnEvent(tick=0, channel=4, data=[32, 95]),
   midi.NoteOffEvent(tick=480, channel=4, data=[32, 95]),
   midi.NoteOnEvent(tick=0, channel=4, data=[33, 95]),
   midi.NoteOffEvent(tick=480, channel=4, data=[33, 95]),
   midi.NoteOnEvent(tick=0, channel=4, data=[33, 95]),
   midi.NoteOffEvent(tick=480, channel=4, data=[33, 95]),
   midi.NoteOnEvent(tick=0, channel=4, data=[33, 95]),
   midi.NoteOffEvent(tick=480, channel=4, data=[33, 95]),
   midi.NoteOnEvent(tick=0, channel=4, data=[33, 95]),
   midi.NoteOffEvent(tick=480, channel=4, data=[33, 95]),
   midi.NoteOnEvent(tick=0, channel=4, data=[33, 95]),
   midi.NoteOffEvent(tick=480, channel=4, data=[33, 95]),
   midi.NoteOnEvent(tick=0, channel=4, data=[33, 95]),
   midi.NoteOffEvent(tick=480, channel=4, data=[33, 95]),
   midi.NoteOnEvent(tick=0, channel=4, data=[33, 95]),
   midi.NoteOffEvent(tick=480, channel=4, data=[33, 95]),
   midi.NoteOnEvent(tick=0, channel=4, data=[33, 95]),
   midi.NoteOffEvent(tick=480, channel=4, data=[33, 95]),
   midi.NoteOnEvent(tick=0, channel=4, data=[33, 95]),
   midi.NoteOffEvent(tick=480, channel=4, data=[33, 95]),
   midi.NoteOnEvent(tick=0, channel=4, data=[33, 95]),
   midi.NoteOffEvent(tick=480, channel=4, data=[33, 95]),
   midi.NoteOnEvent(tick=0, channel=4, data=[32, 95]),
   midi.NoteOffEvent(tick=480, channel=4, data=[32, 95]),
   midi.NoteOnEvent(tick=0, channel=4, data=[33, 95]),
   midi.NoteOffEvent(tick=480, channel=4, data=[33, 95]),
   midi.NoteOnEvent(tick=0, channel=4, data=[32, 95]),
   midi.NoteOffEvent(tick=480, channel=4, data=[32, 95]),
   midi.NoteOnEvent(tick=0, channel=4, data=[32, 95]),
   midi.NoteOffEvent(tick=480, channel=4, data=[32, 95]),
   midi.NoteOnEvent(tick=0, channel=4, data=[33, 95]),
   midi.NoteOffEvent(tick=480, channel=4, data=[33, 95]),
   midi.NoteOnEvent(tick=0, channel=4, data=[32, 95]),
   midi.NoteOffEvent(tick=480, channel=4, data=[32, 95]),
   midi.NoteOnEvent(tick=0, channel=4, data=[29, 95]),
   midi.NoteOffEvent(tick=480, channel=4, data=[29, 95]),
   midi.NoteOnEvent(tick=0, channel=4, data=[29, 95]),
   midi.NoteOffEvent(tick=480, channel=4, data=[29, 95]),
   midi.NoteOnEvent(tick=0, channel=4, data=[29, 95]),
   midi.NoteOffEvent(tick=480, channel=4, data=[29, 95]),
   midi.NoteOnEvent(tick=0, channel=4, data=[29, 95]),
   midi.NoteOffEvent(tick=480, channel=4, data=[29, 95]),
   midi.NoteOnEvent(tick=0, channel=4, data=[29, 95]),
   midi.NoteOffEvent(tick=480, channel=4, data=[29, 95]),
   midi.NoteOnEvent(tick=0, channel=4, data=[29, 95]),
   midi.NoteOffEvent(tick=480, channel=4, data=[29, 95]),
   midi.NoteOnEvent(tick=0, channel=4, data=[29, 95]),
   midi.NoteOffEvent(tick=480, channel=4, data=[29, 95]),
   midi.NoteOnEvent(tick=0, channel=4, data=[29, 95]),
   midi.NoteOffEvent(tick=480, channel=4, data=[29, 95]),
   midi.NoteOnEvent(tick=0, channel=4, data=[29, 95]),
   midi.NoteOffEvent(tick=480, channel=4, data=[29, 95]),
   midi.NoteOnEvent(tick=0, channel=4, data=[29, 95]),
   midi.NoteOffEvent(tick=480, channel=4, data=[29, 95]),
   midi.NoteOnEvent(tick=0, channel=4, data=[29, 95]),
   midi.NoteOffEvent(tick=480, channel=4, data=[29, 95]),
   midi.NoteOnEvent(tick=0, channel=4, data=[29, 95]),
   midi.NoteOffEvent(tick=480, channel=4, data=[29, 95]),
   midi.NoteOnEvent(tick=0, channel=4, data=[29, 95]),
   midi.NoteOffEvent(tick=480, channel=4, data=[29, 95]),
   midi.NoteOnEvent(tick=0, channel=4, data=[29, 95]),
   midi.NoteOffEvent(tick=480, channel=4, data=[29, 95]),
   midi.NoteOnEvent(tick=0, channel=4, data=[29, 95]),
   midi.NoteOffEvent(tick=480, channel=4, data=[29, 95]),
   midi.NoteOnEvent(tick=0, channel=4, data=[29, 95]),
   midi.NoteOffEvent(tick=480, channel=4, data=[29, 95]),
   midi.NoteOnEvent(tick=3840, channel=4, data=[27, 95]),
   midi.NoteOffEvent(tick=480, channel=4, data=[27, 95]),
   midi.NoteOnEvent(tick=0, channel=4, data=[27, 95]),
   midi.NoteOffEvent(tick=480, channel=4, data=[27, 95]),
   midi.NoteOnEvent(tick=0, channel=4, data=[27, 95]),
   midi.NoteOffEvent(tick=480, channel=4, data=[27, 95]),
   midi.NoteOnEvent(tick=0, channel=4, data=[27, 95]),
   midi.NoteOffEvent(tick=480, channel=4, data=[27, 95]),
   midi.NoteOnEvent(tick=0, channel=4, data=[27, 95]),
   midi.NoteOffEvent(tick=480, channel=4, data=[27, 95]),
   midi.NoteOnEvent(tick=0, channel=4, data=[27, 95]),
   midi.NoteOffEvent(tick=480, channel=4, data=[27, 95]),
   midi.NoteOnEvent(tick=0, channel=4, data=[27, 95]),
   midi.NoteOffEvent(tick=480, channel=4, data=[27, 95]),
   midi.NoteOnEvent(tick=0, channel=4, data=[27, 95]),
   midi.NoteOffEvent(tick=480, channel=4, data=[27, 95]),
   midi.NoteOnEvent(tick=0, channel=4, data=[30, 95]),
   midi.NoteOffEvent(tick=480, channel=4, data=[30, 95]),
   midi.NoteOnEvent(tick=0, channel=4, data=[30, 95]),
   midi.NoteOffEvent(tick=480, channel=4, data=[30, 95]),
   midi.NoteOnEvent(tick=0, channel=4, data=[30, 95]),
   midi.NoteOffEvent(tick=480, channel=4, data=[30, 95]),
   midi.NoteOnEvent(tick=0, channel=4, data=[30, 95]),
   midi.NoteOffEvent(tick=480, channel=4, data=[30, 95]),
   midi.NoteOnEvent(tick=0, channel=4, data=[28, 95]),
   midi.NoteOffEvent(tick=480, channel=4, data=[28, 95]),
   midi.NoteOnEvent(tick=0, channel=4, data=[28, 95]),
   midi.NoteOffEvent(tick=480, channel=4, data=[28, 95]),
   midi.NoteOnEvent(tick=0, channel=4, data=[28, 95]),
   midi.NoteOffEvent(tick=480, channel=4, data=[28, 95]),
   midi.NoteOnEvent(tick=0, channel=4, data=[28, 95]),
   midi.NoteOffEvent(tick=480, channel=4, data=[28, 95]),
   midi.NoteOnEvent(tick=0, channel=4, data=[27, 95]),
   midi.NoteOffEvent(tick=480, channel=4, data=[27, 95]),
   midi.NoteOnEvent(tick=0, channel=4, data=[27, 95]),
   midi.NoteOffEvent(tick=480, channel=4, data=[27, 95]),
   midi.NoteOnEvent(tick=0, channel=4, data=[27, 95]),
   midi.NoteOffEvent(tick=480, channel=4, data=[27, 95]),
   midi.NoteOnEvent(tick=0, channel=4, data=[27, 95]),
   midi.NoteOffEvent(tick=480, channel=4, data=[27, 95]),
   midi.NoteOnEvent(tick=0, channel=4, data=[27, 95]),
   midi.NoteOffEvent(tick=480, channel=4, data=[27, 95]),
   midi.NoteOnEvent(tick=0, channel=4, data=[27, 95]),
   midi.NoteOffEvent(tick=480, channel=4, data=[27, 95]),
   midi.NoteOnEvent(tick=0, channel=4, data=[27, 95]),
   midi.NoteOffEvent(tick=480, channel=4, data=[27, 95]),
   midi.NoteOnEvent(tick=0, channel=4, data=[27, 95]),
   midi.NoteOffEvent(tick=480, channel=4, data=[27, 95]),
   midi.NoteOnEvent(tick=0, channel=4, data=[30, 95]),
   midi.NoteOffEvent(tick=480, channel=4, data=[30, 95]),
   midi.NoteOnEvent(tick=0, channel=4, data=[30, 95]),
   midi.NoteOffEvent(tick=480, channel=4, data=[30, 95]),
   midi.NoteOnEvent(tick=0, channel=4, data=[30, 95]),
   midi.NoteOffEvent(tick=480, channel=4, data=[30, 95]),
   midi.NoteOnEvent(tick=0, channel=4, data=[30, 95]),
   midi.NoteOffEvent(tick=480, channel=4, data=[30, 95]),
   midi.NoteOnEvent(tick=0, channel=4, data=[28, 95]),
   midi.NoteOffEvent(tick=480, channel=4, data=[28, 95]),
   midi.NoteOnEvent(tick=0, channel=4, data=[28, 95]),
   midi.NoteOffEvent(tick=480, channel=4, data=[28, 95]),
   midi.NoteOnEvent(tick=0, channel=4, data=[28, 95]),
   midi.NoteOffEvent(tick=480, channel=4, data=[28, 95]),
   midi.NoteOnEvent(tick=0, channel=4, data=[28, 95]),
   midi.NoteOffEvent(tick=480, channel=4, data=[28, 95]),
   midi.NoteOnEvent(tick=0, channel=4, data=[27, 95]),
   midi.NoteOffEvent(tick=480, channel=4, data=[27, 95]),
   midi.NoteOnEvent(tick=0, channel=4, data=[27, 95]),
   midi.NoteOffEvent(tick=480, channel=4, data=[27, 95]),
   midi.NoteOnEvent(tick=0, channel=4, data=[27, 95]),
   midi.NoteOffEvent(tick=480, channel=4, data=[27, 95]),
   midi.NoteOnEvent(tick=0, channel=4, data=[27, 95]),
   midi.NoteOffEvent(tick=480, channel=4, data=[27, 95]),
   midi.NoteOnEvent(tick=0, channel=4, data=[27, 95]),
   midi.NoteOffEvent(tick=480, channel=4, data=[27, 95]),
   midi.NoteOnEvent(tick=0, channel=4, data=[27, 95]),
   midi.NoteOffEvent(tick=480, channel=4, data=[27, 95]),
   midi.NoteOnEvent(tick=0, channel=4, data=[27, 95]),
   midi.NoteOffEvent(tick=480, channel=4, data=[27, 95]),
   midi.NoteOnEvent(tick=0, channel=4, data=[27, 95]),
   midi.NoteOffEvent(tick=480, channel=4, data=[27, 95]),
   midi.NoteOnEvent(tick=0, channel=4, data=[30, 95]),
   midi.NoteOffEvent(tick=480, channel=4, data=[30, 95]),
   midi.NoteOnEvent(tick=0, channel=4, data=[30, 95]),
   midi.NoteOffEvent(tick=480, channel=4, data=[30, 95]),
   midi.NoteOnEvent(tick=0, channel=4, data=[30, 95]),
   midi.NoteOffEvent(tick=480, channel=4, data=[30, 95]),
   midi.NoteOnEvent(tick=0, channel=4, data=[30, 95]),
   midi.NoteOffEvent(tick=480, channel=4, data=[30, 95]),
   midi.NoteOnEvent(tick=0, channel=4, data=[28, 95]),
   midi.NoteOffEvent(tick=480, channel=4, data=[28, 95]),
   midi.NoteOnEvent(tick=0, channel=4, data=[28, 95]),
   midi.NoteOffEvent(tick=480, channel=4, data=[28, 95]),
   midi.NoteOnEvent(tick=0, channel=4, data=[28, 95]),
   midi.NoteOffEvent(tick=480, channel=4, data=[28, 95]),
   midi.NoteOnEvent(tick=0, channel=4, data=[28, 95]),
   midi.NoteOffEvent(tick=480, channel=4, data=[28, 95]),
   midi.NoteOnEvent(tick=0, channel=4, data=[27, 95]),
   midi.NoteOffEvent(tick=480, channel=4, data=[27, 95]),
   midi.NoteOnEvent(tick=0, channel=4, data=[27, 95]),
   midi.NoteOffEvent(tick=480, channel=4, data=[27, 95]),
   midi.NoteOnEvent(tick=0, channel=4, data=[27, 95]),
   midi.NoteOffEvent(tick=480, channel=4, data=[27, 95]),
   midi.NoteOnEvent(tick=0, channel=4, data=[27, 95]),
   midi.NoteOffEvent(tick=480, channel=4, data=[27, 95]),
   midi.NoteOnEvent(tick=0, channel=4, data=[27, 95]),
   midi.NoteOffEvent(tick=480, channel=4, data=[27, 95]),
   midi.NoteOnEvent(tick=0, channel=4, data=[27, 95]),
   midi.NoteOffEvent(tick=480, channel=4, data=[27, 95]),
   midi.NoteOnEvent(tick=0, channel=4, data=[27, 95]),
   midi.NoteOffEvent(tick=480, channel=4, data=[27, 95]),
   midi.NoteOnEvent(tick=0, channel=4, data=[27, 95]),
   midi.NoteOffEvent(tick=480, channel=4, data=[27, 95]),
   midi.NoteOnEvent(tick=0, channel=4, data=[30, 95]),
   midi.NoteOffEvent(tick=1920, channel=4, data=[30, 95]),
   midi.NoteOnEvent(tick=0, channel=4, data=[28, 95]),
   midi.NoteOffEvent(tick=1920, channel=4, data=[28, 95]),
   midi.NoteOnEvent(tick=0, channel=4, data=[27, 95]),
   midi.NoteOffEvent(tick=480, channel=4, data=[27, 95]),
   midi.NoteOnEvent(tick=0, channel=4, data=[27, 95]),
   midi.NoteOffEvent(tick=480, channel=4, data=[27, 95]),
   midi.NoteOnEvent(tick=0, channel=4, data=[27, 95]),
   midi.NoteOffEvent(tick=480, channel=4, data=[27, 95]),
   midi.NoteOnEvent(tick=0, channel=4, data=[27, 95]),
   midi.NoteOffEvent(tick=480, channel=4, data=[27, 95]),
   midi.NoteOnEvent(tick=0, channel=4, data=[27, 95]),
   midi.NoteOffEvent(tick=480, channel=4, data=[27, 95]),
   midi.NoteOnEvent(tick=0, channel=4, data=[27, 95]),
   midi.NoteOffEvent(tick=480, channel=4, data=[27, 95]),
   midi.NoteOnEvent(tick=0, channel=4, data=[27, 95]),
   midi.NoteOffEvent(tick=480, channel=4, data=[27, 95]),
   midi.NoteOnEvent(tick=0, channel=4, data=[27, 95]),
   midi.NoteOffEvent(tick=480, channel=4, data=[27, 95]),
   midi.NoteOnEvent(tick=0, channel=4, data=[30, 95]),
   midi.NoteOffEvent(tick=480, channel=4, data=[30, 95]),
   midi.NoteOnEvent(tick=0, channel=4, data=[30, 95]),
   midi.NoteOffEvent(tick=480, channel=4, data=[30, 95]),
   midi.NoteOnEvent(tick=0, channel=4, data=[30, 95]),
   midi.NoteOffEvent(tick=480, channel=4, data=[30, 95]),
   midi.NoteOnEvent(tick=0, channel=4, data=[30, 95]),
   midi.NoteOffEvent(tick=480, channel=4, data=[30, 95]),
   midi.NoteOnEvent(tick=0, channel=4, data=[28, 95]),
   midi.NoteOffEvent(tick=480, channel=4, data=[28, 95]),
   midi.NoteOnEvent(tick=0, channel=4, data=[28, 95]),
   midi.NoteOffEvent(tick=480, channel=4, data=[28, 95]),
   midi.NoteOnEvent(tick=0, channel=4, data=[28, 95]),
   midi.NoteOffEvent(tick=480, channel=4, data=[28, 95]),
   midi.NoteOnEvent(tick=0, channel=4, data=[28, 95]),
   midi.NoteOffEvent(tick=480, channel=4, data=[28, 95]),
   midi.NoteOnEvent(tick=0, channel=4, data=[27, 95]),
   midi.NoteOffEvent(tick=480, channel=4, data=[27, 95]),
   midi.NoteOnEvent(tick=0, channel=4, data=[27, 95]),
   midi.NoteOffEvent(tick=480, channel=4, data=[27, 95]),
   midi.NoteOnEvent(tick=0, channel=4, data=[27, 95]),
   midi.NoteOffEvent(tick=480, channel=4, data=[27, 95]),
   midi.NoteOnEvent(tick=0, channel=4, data=[27, 95]),
   midi.NoteOffEvent(tick=480, channel=4, data=[27, 95]),
   midi.NoteOnEvent(tick=0, channel=4, data=[27, 95]),
   midi.NoteOffEvent(tick=480, channel=4, data=[27, 95]),
   midi.NoteOnEvent(tick=0, channel=4, data=[27, 95]),
   midi.NoteOffEvent(tick=480, channel=4, data=[27, 95]),
   midi.NoteOnEvent(tick=0, channel=4, data=[27, 95]),
   midi.NoteOffEvent(tick=480, channel=4, data=[27, 95]),
   midi.NoteOnEvent(tick=0, channel=4, data=[27, 95]),
   midi.NoteOffEvent(tick=480, channel=4, data=[27, 95]),
   midi.NoteOnEvent(tick=0, channel=4, data=[30, 95]),
   midi.NoteOffEvent(tick=480, channel=4, data=[30, 95]),
   midi.NoteOnEvent(tick=0, channel=4, data=[30, 95]),
   midi.NoteOffEvent(tick=480, channel=4, data=[30, 95]),
   midi.NoteOnEvent(tick=0, channel=4, data=[30, 95]),
   midi.NoteOffEvent(tick=480, channel=4, data=[30, 95]),
   midi.NoteOnEvent(tick=0, channel=4, data=[30, 95]),
   midi.NoteOffEvent(tick=480, channel=4, data=[30, 95]),
   midi.NoteOnEvent(tick=0, channel=4, data=[28, 95]),
   midi.NoteOffEvent(tick=480, channel=4, data=[28, 95]),
   midi.NoteOnEvent(tick=0, channel=4, data=[28, 95]),
   midi.NoteOffEvent(tick=480, channel=4, data=[28, 95]),
   midi.NoteOnEvent(tick=0, channel=4, data=[28, 95]),
   midi.NoteOffEvent(tick=480, channel=4, data=[28, 95]),
   midi.NoteOnEvent(tick=0, channel=4, data=[28, 95]),
   midi.NoteOffEvent(tick=480, channel=4, data=[28, 95]),
   midi.NoteOnEvent(tick=0, channel=4, data=[27, 95]),
   midi.NoteOffEvent(tick=480, channel=4, data=[27, 95]),
   midi.NoteOnEvent(tick=0, channel=4, data=[27, 95]),
   midi.NoteOffEvent(tick=480, channel=4, data=[27, 95]),
   midi.NoteOnEvent(tick=0, channel=4, data=[27, 95]),
   midi.NoteOffEvent(tick=480, channel=4, data=[27, 95]),
   midi.NoteOnEvent(tick=0, channel=4, data=[27, 95]),
   midi.NoteOffEvent(tick=480, channel=4, data=[27, 95]),
   midi.NoteOnEvent(tick=0, channel=4, data=[27, 95]),
   midi.NoteOffEvent(tick=480, channel=4, data=[27, 95]),
   midi.NoteOnEvent(tick=0, channel=4, data=[27, 95]),
   midi.NoteOffEvent(tick=480, channel=4, data=[27, 95]),
   midi.NoteOnEvent(tick=0, channel=4, data=[27, 95]),
   midi.NoteOffEvent(tick=480, channel=4, data=[27, 95]),
   midi.NoteOnEvent(tick=0, channel=4, data=[27, 95]),
   midi.NoteOffEvent(tick=480, channel=4, data=[27, 95]),
   midi.NoteOnEvent(tick=0, channel=4, data=[30, 95]),
   midi.NoteOffEvent(tick=480, channel=4, data=[30, 95]),
   midi.NoteOnEvent(tick=0, channel=4, data=[30, 95]),
   midi.NoteOffEvent(tick=480, channel=4, data=[30, 95]),
   midi.NoteOnEvent(tick=0, channel=4, data=[30, 95]),
   midi.NoteOffEvent(tick=480, channel=4, data=[30, 95]),
   midi.NoteOnEvent(tick=0, channel=4, data=[30, 95]),
   midi.NoteOffEvent(tick=480, channel=4, data=[30, 95]),
   midi.NoteOnEvent(tick=0, channel=4, data=[28, 95]),
   midi.NoteOffEvent(tick=480, channel=4, data=[28, 95]),
   midi.NoteOnEvent(tick=0, channel=4, data=[28, 95]),
   midi.NoteOffEvent(tick=480, channel=4, data=[28, 95]),
   midi.NoteOnEvent(tick=0, channel=4, data=[28, 95]),
   midi.NoteOffEvent(tick=480, channel=4, data=[28, 95]),
   midi.NoteOnEvent(tick=0, channel=4, data=[28, 95]),
   midi.NoteOffEvent(tick=480, channel=4, data=[28, 95]),
   midi.NoteOnEvent(tick=0, channel=4, data=[27, 95]),
   midi.NoteOffEvent(tick=480, channel=4, data=[27, 95]),
   midi.NoteOnEvent(tick=0, channel=4, data=[27, 95]),
   midi.NoteOffEvent(tick=480, channel=4, data=[27, 95]),
   midi.NoteOnEvent(tick=0, channel=4, data=[27, 95]),
   midi.NoteOffEvent(tick=480, channel=4, data=[27, 95]),
   midi.NoteOnEvent(tick=0, channel=4, data=[27, 95]),
   midi.NoteOffEvent(tick=480, channel=4, data=[27, 95]),
   midi.NoteOnEvent(tick=0, channel=4, data=[27, 95]),
   midi.NoteOffEvent(tick=480, channel=4, data=[27, 95]),
   midi.NoteOnEvent(tick=0, channel=4, data=[27, 95]),
   midi.NoteOffEvent(tick=480, channel=4, data=[27, 95]),
   midi.NoteOnEvent(tick=0, channel=4, data=[27, 95]),
   midi.NoteOffEvent(tick=480, channel=4, data=[27, 95]),
   midi.NoteOnEvent(tick=0, channel=4, data=[27, 95]),
   midi.NoteOffEvent(tick=480, channel=4, data=[27, 95]),
   midi.NoteOnEvent(tick=0, channel=4, data=[30, 95]),
   midi.NoteOffEvent(tick=480, channel=4, data=[30, 95]),
   midi.NoteOnEvent(tick=0, channel=4, data=[30, 95]),
   midi.NoteOffEvent(tick=480, channel=4, data=[30, 95]),
   midi.NoteOnEvent(tick=0, channel=4, data=[30, 95]),
   midi.NoteOffEvent(tick=480, channel=4, data=[30, 95]),
   midi.NoteOnEvent(tick=0, channel=4, data=[30, 95]),
   midi.NoteOffEvent(tick=480, channel=4, data=[30, 95]),
   midi.NoteOnEvent(tick=0, channel=4, data=[28, 95]),
   midi.NoteOffEvent(tick=480, channel=4, data=[28, 95]),
   midi.NoteOnEvent(tick=0, channel=4, data=[28, 95]),
   midi.NoteOffEvent(tick=480, channel=4, data=[28, 95]),
   midi.NoteOnEvent(tick=0, channel=4, data=[28, 95]),
   midi.NoteOffEvent(tick=480, channel=4, data=[28, 95]),
   midi.NoteOnEvent(tick=0, channel=4, data=[28, 95]),
   midi.NoteOffEvent(tick=480, channel=4, data=[28, 95]),
   midi.NoteOnEvent(tick=0, channel=4, data=[27, 95]),
   midi.NoteOffEvent(tick=480, channel=4, data=[27, 95]),
   midi.NoteOnEvent(tick=0, channel=4, data=[27, 95]),
   midi.NoteOffEvent(tick=480, channel=4, data=[27, 95]),
   midi.NoteOnEvent(tick=0, channel=4, data=[27, 95]),
   midi.NoteOffEvent(tick=480, channel=4, data=[27, 95]),
   midi.NoteOnEvent(tick=0, channel=4, data=[27, 95]),
   midi.NoteOffEvent(tick=480, channel=4, data=[27, 95]),
   midi.NoteOnEvent(tick=0, channel=4, data=[27, 95]),
   midi.NoteOffEvent(tick=480, channel=4, data=[27, 95]),
   midi.NoteOnEvent(tick=0, channel=4, data=[27, 95]),
   midi.NoteOffEvent(tick=480, channel=4, data=[27, 95]),
   midi.NoteOnEvent(tick=0, channel=4, data=[27, 95]),
   midi.NoteOffEvent(tick=480, channel=4, data=[27, 95]),
   midi.NoteOnEvent(tick=0, channel=4, data=[27, 95]),
   midi.NoteOffEvent(tick=480, channel=4, data=[27, 95]),
   midi.NoteOnEvent(tick=0, channel=4, data=[30, 95]),
   midi.NoteOffEvent(tick=480, channel=4, data=[30, 95]),
   midi.NoteOnEvent(tick=0, channel=4, data=[30, 95]),
   midi.NoteOffEvent(tick=480, channel=4, data=[30, 95]),
   midi.NoteOnEvent(tick=0, channel=4, data=[30, 95]),
   midi.NoteOffEvent(tick=480, channel=4, data=[30, 95]),
   midi.NoteOnEvent(tick=0, channel=4, data=[30, 95]),
   midi.NoteOffEvent(tick=480, channel=4, data=[30, 95]),
   midi.NoteOnEvent(tick=0, channel=4, data=[28, 95]),
   midi.NoteOffEvent(tick=480, channel=4, data=[28, 95]),
   midi.NoteOnEvent(tick=0, channel=4, data=[28, 95]),
   midi.NoteOffEvent(tick=480, channel=4, data=[28, 95]),
   midi.NoteOnEvent(tick=0, channel=4, data=[28, 95]),
   midi.NoteOffEvent(tick=480, channel=4, data=[28, 95]),
   midi.NoteOnEvent(tick=0, channel=4, data=[28, 95]),
   midi.NoteOffEvent(tick=480, channel=4, data=[28, 95]),
   midi.NoteOnEvent(tick=0, channel=4, data=[27, 95]),
   midi.NoteOffEvent(tick=480, channel=4, data=[27, 95]),
   midi.NoteOnEvent(tick=0, channel=4, data=[27, 95]),
   midi.NoteOffEvent(tick=480, channel=4, data=[27, 95]),
   midi.NoteOnEvent(tick=0, channel=4, data=[27, 95]),
   midi.NoteOffEvent(tick=480, channel=4, data=[27, 95]),
   midi.NoteOnEvent(tick=0, channel=4, data=[27, 95]),
   midi.NoteOffEvent(tick=480, channel=4, data=[27, 95]),
   midi.NoteOnEvent(tick=0, channel=4, data=[27, 95]),
   midi.NoteOffEvent(tick=480, channel=4, data=[27, 95]),
   midi.NoteOnEvent(tick=0, channel=4, data=[27, 95]),
   midi.NoteOffEvent(tick=480, channel=4, data=[27, 95]),
   midi.NoteOnEvent(tick=0, channel=4, data=[27, 95]),
   midi.NoteOffEvent(tick=480, channel=4, data=[27, 95]),
   midi.NoteOnEvent(tick=0, channel=4, data=[27, 95]),
   midi.NoteOffEvent(tick=480, channel=4, data=[27, 95]),
   midi.NoteOnEvent(tick=0, channel=4, data=[30, 95]),
   midi.NoteOffEvent(tick=480, channel=4, data=[30, 95]),
   midi.NoteOnEvent(tick=0, channel=4, data=[30, 95]),
   midi.NoteOffEvent(tick=480, channel=4, data=[30, 95]),
   midi.NoteOnEvent(tick=0, channel=4, data=[30, 95]),
   midi.NoteOffEvent(tick=480, channel=4, data=[30, 95]),
   midi.NoteOnEvent(tick=0, channel=4, data=[30, 95]),
   midi.NoteOffEvent(tick=480, channel=4, data=[30, 95]),
   midi.NoteOnEvent(tick=0, channel=4, data=[28, 95]),
   midi.NoteOffEvent(tick=480, channel=4, data=[28, 95]),
   midi.NoteOnEvent(tick=0, channel=4, data=[28, 95]),
   midi.NoteOffEvent(tick=480, channel=4, data=[28, 95]),
   midi.NoteOnEvent(tick=0, channel=4, data=[28, 95]),
   midi.NoteOffEvent(tick=480, channel=4, data=[28, 95]),
   midi.NoteOnEvent(tick=0, channel=4, data=[28, 95]),
   midi.NoteOffEvent(tick=480, channel=4, data=[28, 95]),
   midi.NoteOnEvent(tick=0, channel=4, data=[27, 95]),
   midi.NoteOffEvent(tick=480, channel=4, data=[27, 95]),
   midi.NoteOnEvent(tick=0, channel=4, data=[27, 95]),
   midi.NoteOffEvent(tick=480, channel=4, data=[27, 95]),
   midi.NoteOnEvent(tick=0, channel=4, data=[27, 95]),
   midi.NoteOffEvent(tick=480, channel=4, data=[27, 95]),
   midi.NoteOnEvent(tick=0, channel=4, data=[27, 95]),
   midi.NoteOffEvent(tick=480, channel=4, data=[27, 95]),
   midi.NoteOnEvent(tick=0, channel=4, data=[27, 95]),
   midi.NoteOffEvent(tick=480, channel=4, data=[27, 95]),
   midi.NoteOnEvent(tick=0, channel=4, data=[27, 95]),
   midi.NoteOffEvent(tick=480, channel=4, data=[27, 95]),
   midi.NoteOnEvent(tick=0, channel=4, data=[27, 95]),
   midi.NoteOffEvent(tick=480, channel=4, data=[27, 95]),
   midi.NoteOnEvent(tick=0, channel=4, data=[27, 95]),
   midi.NoteOffEvent(tick=480, channel=4, data=[27, 95]),
   midi.NoteOnEvent(tick=0, channel=4, data=[30, 95]),
   midi.NoteOffEvent(tick=480, channel=4, data=[30, 95]),
   midi.NoteOnEvent(tick=0, channel=4, data=[30, 95]),
   midi.NoteOffEvent(tick=480, channel=4, data=[30, 95]),
   midi.NoteOnEvent(tick=0, channel=4, data=[30, 95]),
   midi.NoteOffEvent(tick=480, channel=4, data=[30, 95]),
   midi.NoteOnEvent(tick=0, channel=4, data=[30, 95]),
   midi.NoteOffEvent(tick=480, channel=4, data=[30, 95]),
   midi.NoteOnEvent(tick=0, channel=4, data=[28, 95]),
   midi.NoteOffEvent(tick=480, channel=4, data=[28, 95]),
   midi.NoteOnEvent(tick=0, channel=4, data=[28, 95]),
   midi.NoteOffEvent(tick=480, channel=4, data=[28, 95]),
   midi.NoteOnEvent(tick=0, channel=4, data=[28, 95]),
   midi.NoteOffEvent(tick=480, channel=4, data=[28, 95]),
   midi.NoteOnEvent(tick=0, channel=4, data=[28, 95]),
   midi.NoteOffEvent(tick=480, channel=4, data=[28, 95]),
   midi.NoteOnEvent(tick=0, channel=4, data=[27, 95]),
   midi.NoteOffEvent(tick=480, channel=4, data=[27, 95]),
   midi.NoteOnEvent(tick=0, channel=4, data=[27, 95]),
   midi.NoteOffEvent(tick=480, channel=4, data=[27, 95]),
   midi.NoteOnEvent(tick=0, channel=4, data=[27, 95]),
   midi.NoteOffEvent(tick=480, channel=4, data=[27, 95]),
   midi.NoteOnEvent(tick=0, channel=4, data=[27, 95]),
   midi.NoteOffEvent(tick=480, channel=4, data=[27, 95]),
   midi.NoteOnEvent(tick=0, channel=4, data=[27, 95]),
   midi.NoteOffEvent(tick=480, channel=4, data=[27, 95]),
   midi.NoteOnEvent(tick=0, channel=4, data=[27, 95]),
   midi.NoteOffEvent(tick=480, channel=4, data=[27, 95]),
   midi.NoteOnEvent(tick=0, channel=4, data=[27, 95]),
   midi.NoteOffEvent(tick=480, channel=4, data=[27, 95]),
   midi.NoteOnEvent(tick=0, channel=4, data=[27, 95]),
   midi.NoteOffEvent(tick=480, channel=4, data=[27, 95]),
   midi.NoteOnEvent(tick=0, channel=4, data=[30, 95]),
   midi.NoteOffEvent(tick=480, channel=4, data=[30, 95]),
   midi.NoteOnEvent(tick=0, channel=4, data=[30, 95]),
   midi.NoteOffEvent(tick=480, channel=4, data=[30, 95]),
   midi.NoteOnEvent(tick=0, channel=4, data=[30, 95]),
   midi.NoteOffEvent(tick=480, channel=4, data=[30, 95]),
   midi.NoteOnEvent(tick=0, channel=4, data=[30, 95]),
   midi.NoteOffEvent(tick=480, channel=4, data=[30, 95]),
   midi.NoteOnEvent(tick=0, channel=4, data=[28, 95]),
   midi.NoteOffEvent(tick=480, channel=4, data=[28, 95]),
   midi.NoteOnEvent(tick=0, channel=4, data=[28, 95]),
   midi.NoteOffEvent(tick=480, channel=4, data=[28, 95]),
   midi.NoteOnEvent(tick=0, channel=4, data=[28, 95]),
   midi.NoteOffEvent(tick=480, channel=4, data=[28, 95]),
   midi.NoteOnEvent(tick=0, channel=4, data=[28, 95]),
   midi.NoteOffEvent(tick=480, channel=4, data=[28, 95]),
   midi.NoteOnEvent(tick=0, channel=4, data=[33, 95]),
   midi.NoteOffEvent(tick=480, channel=4, data=[33, 95]),
   midi.NoteOnEvent(tick=0, channel=4, data=[33, 95]),
   midi.NoteOffEvent(tick=480, channel=4, data=[33, 95]),
   midi.NoteOnEvent(tick=0, channel=4, data=[33, 95]),
   midi.NoteOffEvent(tick=480, channel=4, data=[33, 95]),
   midi.NoteOnEvent(tick=0, channel=4, data=[33, 95]),
   midi.NoteOffEvent(tick=480, channel=4, data=[33, 95]),
   midi.NoteOnEvent(tick=0, channel=4, data=[33, 95]),
   midi.NoteOffEvent(tick=480, channel=4, data=[33, 95]),
   midi.NoteOnEvent(tick=0, channel=4, data=[33, 95]),
   midi.NoteOffEvent(tick=480, channel=4, data=[33, 95]),
   midi.NoteOnEvent(tick=0, channel=4, data=[33, 95]),
   midi.NoteOffEvent(tick=480, channel=4, data=[33, 95]),
   midi.NoteOnEvent(tick=0, channel=4, data=[33, 95]),
   midi.NoteOffEvent(tick=480, channel=4, data=[33, 95]),
   midi.NoteOnEvent(tick=0, channel=4, data=[33, 95]),
   midi.NoteOffEvent(tick=480, channel=4, data=[33, 95]),
   midi.NoteOnEvent(tick=0, channel=4, data=[33, 95]),
   midi.NoteOffEvent(tick=480, channel=4, data=[33, 95]),
   midi.NoteOnEvent(tick=0, channel=4, data=[32, 95]),
   midi.NoteOffEvent(tick=480, channel=4, data=[32, 95]),
   midi.NoteOnEvent(tick=0, channel=4, data=[32, 95]),
   midi.NoteOffEvent(tick=480, channel=4, data=[32, 95]),
   midi.NoteOnEvent(tick=0, channel=4, data=[33, 95]),
   midi.NoteOffEvent(tick=480, channel=4, data=[33, 95]),
   midi.NoteOnEvent(tick=0, channel=4, data=[33, 95]),
   midi.NoteOffEvent(tick=480, channel=4, data=[33, 95]),
   midi.NoteOnEvent(tick=0, channel=4, data=[32, 95]),
   midi.NoteOffEvent(tick=480, channel=4, data=[32, 95]),
   midi.NoteOnEvent(tick=0, channel=4, data=[32, 95]),
   midi.NoteOffEvent(tick=480, channel=4, data=[32, 95]),
   midi.NoteOnEvent(tick=0, channel=4, data=[29, 95]),
   midi.NoteOffEvent(tick=480, channel=4, data=[29, 95]),
   midi.NoteOnEvent(tick=0, channel=4, data=[29, 95]),
   midi.NoteOffEvent(tick=480, channel=4, data=[29, 95]),
   midi.NoteOnEvent(tick=0, channel=4, data=[29, 95]),
   midi.NoteOffEvent(tick=480, channel=4, data=[29, 95]),
   midi.NoteOnEvent(tick=0, channel=4, data=[29, 95]),
   midi.NoteOffEvent(tick=480, channel=4, data=[29, 95]),
   midi.NoteOnEvent(tick=0, channel=4, data=[29, 95]),
   midi.NoteOffEvent(tick=480, channel=4, data=[29, 95]),
   midi.NoteOnEvent(tick=0, channel=4, data=[29, 95]),
   midi.NoteOffEvent(tick=480, channel=4, data=[29, 95]),
   midi.NoteOnEvent(tick=0, channel=4, data=[29, 95]),
   midi.NoteOffEvent(tick=480, channel=4, data=[29, 95]),
   midi.NoteOnEvent(tick=0, channel=4, data=[29, 95]),
   midi.NoteOffEvent(tick=480, channel=4, data=[29, 95]),
   midi.NoteOnEvent(tick=0, channel=4, data=[29, 95]),
   midi.NoteOffEvent(tick=480, channel=4, data=[29, 95]),
   midi.NoteOnEvent(tick=0, channel=4, data=[29, 95]),
   midi.NoteOffEvent(tick=480, channel=4, data=[29, 95]),
   midi.NoteOnEvent(tick=0, channel=4, data=[29, 95]),
   midi.NoteOffEvent(tick=480, channel=4, data=[29, 95]),
   midi.NoteOnEvent(tick=0, channel=4, data=[29, 95]),
   midi.NoteOffEvent(tick=480, channel=4, data=[29, 95]),
   midi.NoteOnEvent(tick=0, channel=4, data=[29, 95]),
   midi.NoteOffEvent(tick=480, channel=4, data=[29, 95]),
   midi.NoteOnEvent(tick=0, channel=4, data=[29, 95]),
   midi.NoteOffEvent(tick=480, channel=4, data=[29, 95]),
   midi.NoteOnEvent(tick=0, channel=4, data=[32, 95]),
   midi.NoteOffEvent(tick=480, channel=4, data=[32, 95]),
   midi.NoteOnEvent(tick=0, channel=4, data=[32, 95]),
   midi.NoteOffEvent(tick=480, channel=4, data=[32, 95]),
   midi.NoteOnEvent(tick=0, channel=4, data=[33, 95]),
   midi.NoteOffEvent(tick=480, channel=4, data=[33, 95]),
   midi.NoteOnEvent(tick=0, channel=4, data=[33, 95]),
   midi.NoteOffEvent(tick=480, channel=4, data=[33, 95]),
   midi.NoteOnEvent(tick=0, channel=4, data=[33, 95]),
   midi.NoteOffEvent(tick=480, channel=4, data=[33, 95]),
   midi.NoteOnEvent(tick=0, channel=4, data=[33, 95]),
   midi.NoteOffEvent(tick=480, channel=4, data=[33, 95]),
   midi.NoteOnEvent(tick=0, channel=4, data=[33, 95]),
   midi.NoteOffEvent(tick=480, channel=4, data=[33, 95]),
   midi.NoteOnEvent(tick=0, channel=4, data=[33, 95]),
   midi.NoteOffEvent(tick=480, channel=4, data=[33, 95]),
   midi.NoteOnEvent(tick=0, channel=4, data=[33, 95]),
   midi.NoteOffEvent(tick=480, channel=4, data=[33, 95]),
   midi.NoteOnEvent(tick=0, channel=4, data=[33, 95]),
   midi.NoteOffEvent(tick=480, channel=4, data=[33, 95]),
   midi.NoteOnEvent(tick=0, channel=4, data=[33, 95]),
   midi.NoteOffEvent(tick=480, channel=4, data=[33, 95]),
   midi.NoteOnEvent(tick=0, channel=4, data=[33, 95]),
   midi.NoteOffEvent(tick=480, channel=4, data=[33, 95]),
   midi.NoteOnEvent(tick=0, channel=4, data=[32, 95]),
   midi.NoteOffEvent(tick=480, channel=4, data=[32, 95]),
   midi.NoteOnEvent(tick=0, channel=4, data=[33, 95]),
   midi.NoteOffEvent(tick=480, channel=4, data=[33, 95]),
   midi.NoteOnEvent(tick=0, channel=4, data=[32, 95]),
   midi.NoteOffEvent(tick=480, channel=4, data=[32, 95]),
   midi.NoteOnEvent(tick=0, channel=4, data=[32, 95]),
   midi.NoteOffEvent(tick=480, channel=4, data=[32, 95]),
   midi.NoteOnEvent(tick=0, channel=4, data=[33, 95]),
   midi.NoteOffEvent(tick=480, channel=4, data=[33, 95]),
   midi.NoteOnEvent(tick=0, channel=4, data=[32, 95]),
   midi.NoteOffEvent(tick=480, channel=4, data=[32, 95]),
   midi.NoteOnEvent(tick=0, channel=4, data=[29, 95]),
   midi.NoteOffEvent(tick=480, channel=4, data=[29, 95]),
   midi.NoteOnEvent(tick=0, channel=4, data=[29, 95]),
   midi.NoteOffEvent(tick=480, channel=4, data=[29, 95]),
   midi.NoteOnEvent(tick=0, channel=4, data=[29, 95]),
   midi.NoteOffEvent(tick=480, channel=4, data=[29, 95]),
   midi.NoteOnEvent(tick=0, channel=4, data=[29, 95]),
   midi.NoteOffEvent(tick=480, channel=4, data=[29, 95]),
   midi.NoteOnEvent(tick=0, channel=4, data=[29, 95]),
   midi.NoteOffEvent(tick=480, channel=4, data=[29, 95]),
   midi.NoteOnEvent(tick=0, channel=4, data=[29, 95]),
   midi.NoteOffEvent(tick=480, channel=4, data=[29, 95]),
   midi.NoteOnEvent(tick=0, channel=4, data=[29, 95]),
   midi.NoteOffEvent(tick=480, channel=4, data=[29, 95]),
   midi.NoteOnEvent(tick=0, channel=4, data=[29, 95]),
   midi.NoteOffEvent(tick=480, channel=4, data=[29, 95]),
   midi.NoteOnEvent(tick=0, channel=4, data=[29, 95]),
   midi.NoteOffEvent(tick=480, channel=4, data=[29, 95]),
   midi.NoteOnEvent(tick=0, channel=4, data=[29, 95]),
   midi.NoteOffEvent(tick=480, channel=4, data=[29, 95]),
   midi.NoteOnEvent(tick=0, channel=4, data=[29, 95]),
   midi.NoteOffEvent(tick=480, channel=4, data=[29, 95]),
   midi.NoteOnEvent(tick=0, channel=4, data=[29, 95]),
   midi.NoteOffEvent(tick=480, channel=4, data=[29, 95]),
   midi.NoteOnEvent(tick=0, channel=4, data=[29, 95]),
   midi.NoteOffEvent(tick=480, channel=4, data=[29, 95]),
   midi.NoteOnEvent(tick=0, channel=4, data=[29, 95]),
   midi.NoteOffEvent(tick=480, channel=4, data=[29, 95]),
   midi.NoteOnEvent(tick=0, channel=4, data=[29, 95]),
   midi.NoteOffEvent(tick=480, channel=4, data=[29, 95]),
   midi.NoteOnEvent(tick=0, channel=4, data=[29, 95]),
   midi.NoteOffEvent(tick=480, channel=4, data=[29, 95]),
   midi.NoteOnEvent(tick=0, channel=4, data=[33, 95]),
   midi.NoteOffEvent(tick=480, channel=4, data=[33, 95]),
   midi.NoteOnEvent(tick=0, channel=4, data=[33, 95]),
   midi.NoteOffEvent(tick=480, channel=4, data=[33, 95]),
   midi.NoteOnEvent(tick=0, channel=4, data=[33, 95]),
   midi.NoteOffEvent(tick=480, channel=4, data=[33, 95]),
   midi.NoteOnEvent(tick=0, channel=4, data=[33, 95]),
   midi.NoteOffEvent(tick=480, channel=4, data=[33, 95]),
   midi.NoteOnEvent(tick=0, channel=4, data=[33, 95]),
   midi.NoteOffEvent(tick=480, channel=4, data=[33, 95]),
   midi.NoteOnEvent(tick=0, channel=4, data=[33, 95]),
   midi.NoteOffEvent(tick=480, channel=4, data=[33, 95]),
   midi.NoteOnEvent(tick=0, channel=4, data=[33, 95]),
   midi.NoteOffEvent(tick=480, channel=4, data=[33, 95]),
   midi.NoteOnEvent(tick=0, channel=4, data=[33, 95]),
   midi.NoteOffEvent(tick=480, channel=4, data=[33, 95]),
   midi.NoteOnEvent(tick=0, channel=4, data=[33, 95]),
   midi.NoteOffEvent(tick=480, channel=4, data=[33, 95]),
   midi.NoteOnEvent(tick=0, channel=4, data=[33, 95]),
   midi.NoteOffEvent(tick=480, channel=4, data=[33, 95]),
   midi.NoteOnEvent(tick=0, channel=4, data=[32, 95]),
   midi.NoteOffEvent(tick=480, channel=4, data=[32, 95]),
   midi.NoteOnEvent(tick=0, channel=4, data=[32, 95]),
   midi.NoteOffEvent(tick=480, channel=4, data=[32, 95]),
   midi.NoteOnEvent(tick=0, channel=4, data=[33, 95]),
   midi.NoteOffEvent(tick=480, channel=4, data=[33, 95]),
   midi.NoteOnEvent(tick=0, channel=4, data=[33, 95]),
   midi.NoteOffEvent(tick=480, channel=4, data=[33, 95]),
   midi.NoteOnEvent(tick=0, channel=4, data=[32, 95]),
   midi.NoteOffEvent(tick=480, channel=4, data=[32, 95]),
   midi.NoteOnEvent(tick=0, channel=4, data=[32, 95]),
   midi.NoteOffEvent(tick=480, channel=4, data=[32, 95]),
   midi.NoteOnEvent(tick=0, channel=4, data=[29, 95]),
   midi.NoteOffEvent(tick=480, channel=4, data=[29, 95]),
   midi.NoteOnEvent(tick=0, channel=4, data=[29, 95]),
   midi.NoteOffEvent(tick=480, channel=4, data=[29, 95]),
   midi.NoteOnEvent(tick=0, channel=4, data=[29, 95]),
   midi.NoteOffEvent(tick=480, channel=4, data=[29, 95]),
   midi.NoteOnEvent(tick=0, channel=4, data=[29, 95]),
   midi.NoteOffEvent(tick=480, channel=4, data=[29, 95]),
   midi.NoteOnEvent(tick=0, channel=4, data=[29, 95]),
   midi.NoteOffEvent(tick=480, channel=4, data=[29, 95]),
   midi.NoteOnEvent(tick=0, channel=4, data=[29, 95]),
   midi.NoteOffEvent(tick=480, channel=4, data=[29, 95]),
   midi.NoteOnEvent(tick=0, channel=4, data=[29, 95]),
   midi.NoteOffEvent(tick=480, channel=4, data=[29, 95]),
   midi.NoteOnEvent(tick=0, channel=4, data=[29, 95]),
   midi.NoteOffEvent(tick=480, channel=4, data=[29, 95]),
   midi.NoteOnEvent(tick=0, channel=4, data=[29, 95]),
   midi.NoteOffEvent(tick=480, channel=4, data=[29, 95]),
   midi.NoteOnEvent(tick=0, channel=4, data=[29, 95]),
   midi.NoteOffEvent(tick=480, channel=4, data=[29, 95]),
   midi.NoteOnEvent(tick=0, channel=4, data=[29, 95]),
   midi.NoteOffEvent(tick=480, channel=4, data=[29, 95]),
   midi.NoteOnEvent(tick=0, channel=4, data=[29, 95]),
   midi.NoteOffEvent(tick=480, channel=4, data=[29, 95]),
   midi.NoteOnEvent(tick=0, channel=4, data=[29, 95]),
   midi.NoteOffEvent(tick=480, channel=4, data=[29, 95]),
   midi.NoteOnEvent(tick=0, channel=4, data=[29, 95]),
   midi.NoteOffEvent(tick=480, channel=4, data=[29, 95]),
   midi.NoteOnEvent(tick=0, channel=4, data=[32, 95]),
   midi.NoteOffEvent(tick=480, channel=4, data=[32, 95]),
   midi.NoteOnEvent(tick=0, channel=4, data=[32, 95]),
   midi.NoteOffEvent(tick=480, channel=4, data=[32, 95]),
   midi.NoteOnEvent(tick=0, channel=4, data=[33, 95]),
   midi.NoteOffEvent(tick=480, channel=4, data=[33, 95]),
   midi.NoteOnEvent(tick=0, channel=4, data=[33, 95]),
   midi.NoteOffEvent(tick=480, channel=4, data=[33, 95]),
   midi.NoteOnEvent(tick=0, channel=4, data=[33, 95]),
   midi.NoteOffEvent(tick=480, channel=4, data=[33, 95]),
   midi.NoteOnEvent(tick=0, channel=4, data=[33, 95]),
   midi.NoteOffEvent(tick=480, channel=4, data=[33, 95]),
   midi.NoteOnEvent(tick=0, channel=4, data=[33, 95]),
   midi.NoteOffEvent(tick=480, channel=4, data=[33, 95]),
   midi.NoteOnEvent(tick=0, channel=4, data=[33, 95]),
   midi.NoteOffEvent(tick=480, channel=4, data=[33, 95]),
   midi.NoteOnEvent(tick=0, channel=4, data=[33, 95]),
   midi.NoteOffEvent(tick=480, channel=4, data=[33, 95]),
   midi.NoteOnEvent(tick=0, channel=4, data=[33, 95]),
   midi.NoteOffEvent(tick=480, channel=4, data=[33, 95]),
   midi.NoteOnEvent(tick=0, channel=4, data=[33, 95]),
   midi.NoteOffEvent(tick=480, channel=4, data=[33, 95]),
   midi.NoteOnEvent(tick=0, channel=4, data=[33, 95]),
   midi.NoteOffEvent(tick=480, channel=4, data=[33, 95]),
   midi.NoteOnEvent(tick=0, channel=4, data=[32, 95]),
   midi.NoteOffEvent(tick=480, channel=4, data=[32, 95]),
   midi.NoteOnEvent(tick=0, channel=4, data=[33, 95]),
   midi.NoteOffEvent(tick=480, channel=4, data=[33, 95]),
   midi.NoteOnEvent(tick=0, channel=4, data=[32, 95]),
   midi.NoteOffEvent(tick=480, channel=4, data=[32, 95]),
   midi.NoteOnEvent(tick=0, channel=4, data=[32, 95]),
   midi.NoteOffEvent(tick=480, channel=4, data=[32, 95]),
   midi.NoteOnEvent(tick=0, channel=4, data=[33, 95]),
   midi.NoteOffEvent(tick=480, channel=4, data=[33, 95]),
   midi.NoteOnEvent(tick=0, channel=4, data=[32, 95]),
   midi.NoteOffEvent(tick=480, channel=4, data=[32, 95]),
   midi.NoteOnEvent(tick=0, channel=4, data=[29, 95]),
   midi.NoteOffEvent(tick=480, channel=4, data=[29, 95]),
   midi.NoteOnEvent(tick=0, channel=4, data=[29, 95]),
   midi.NoteOffEvent(tick=480, channel=4, data=[29, 95]),
   midi.NoteOnEvent(tick=0, channel=4, data=[29, 95]),
   midi.NoteOffEvent(tick=480, channel=4, data=[29, 95]),
   midi.NoteOnEvent(tick=0, channel=4, data=[29, 95]),
   midi.NoteOffEvent(tick=480, channel=4, data=[29, 95]),
   midi.NoteOnEvent(tick=0, channel=4, data=[29, 95]),
   midi.NoteOffEvent(tick=480, channel=4, data=[29, 95]),
   midi.NoteOnEvent(tick=0, channel=4, data=[29, 95]),
   midi.NoteOffEvent(tick=480, channel=4, data=[29, 95]),
   midi.NoteOnEvent(tick=0, channel=4, data=[29, 95]),
   midi.NoteOffEvent(tick=480, channel=4, data=[29, 95]),
   midi.NoteOnEvent(tick=0, channel=4, data=[29, 95]),
   midi.NoteOffEvent(tick=480, channel=4, data=[29, 95]),
   midi.NoteOnEvent(tick=0, channel=4, data=[29, 95]),
   midi.NoteOffEvent(tick=480, channel=4, data=[29, 95]),
   midi.NoteOnEvent(tick=0, channel=4, data=[29, 95]),
   midi.NoteOffEvent(tick=480, channel=4, data=[29, 95]),
   midi.NoteOnEvent(tick=0, channel=4, data=[29, 95]),
   midi.NoteOffEvent(tick=480, channel=4, data=[29, 95]),
   midi.NoteOnEvent(tick=0, channel=4, data=[29, 95]),
   midi.NoteOffEvent(tick=480, channel=4, data=[29, 95]),
   midi.NoteOnEvent(tick=0, channel=4, data=[29, 95]),
   midi.NoteOffEvent(tick=480, channel=4, data=[29, 95]),
   midi.NoteOnEvent(tick=0, channel=4, data=[29, 95]),
   midi.NoteOffEvent(tick=480, channel=4, data=[29, 95]),
   midi.NoteOnEvent(tick=0, channel=4, data=[29, 95]),
   midi.NoteOffEvent(tick=480, channel=4, data=[29, 95]),
   midi.NoteOnEvent(tick=0, channel=4, data=[29, 95]),
   midi.NoteOffEvent(tick=480, channel=4, data=[29, 95]),
   midi.NoteOnEvent(tick=3840, channel=4, data=[27, 95]),
   midi.NoteOffEvent(tick=480, channel=4, data=[27, 95]),
   midi.NoteOnEvent(tick=0, channel=4, data=[27, 95]),
   midi.NoteOffEvent(tick=480, channel=4, data=[27, 95]),
   midi.NoteOnEvent(tick=0, channel=4, data=[27, 95]),
   midi.NoteOffEvent(tick=480, channel=4, data=[27, 95]),
   midi.NoteOnEvent(tick=0, channel=4, data=[27, 95]),
   midi.NoteOffEvent(tick=480, channel=4, data=[27, 95]),
   midi.NoteOnEvent(tick=0, channel=4, data=[40, 95]),
   midi.NoteOffEvent(tick=480, channel=4, data=[40, 95]),
   midi.NoteOnEvent(tick=0, channel=4, data=[39, 95]),
   midi.NoteOffEvent(tick=480, channel=4, data=[39, 95]),
   midi.NoteOnEvent(tick=0, channel=4, data=[27, 95]),
   midi.NoteOffEvent(tick=480, channel=4, data=[27, 95]),
   midi.NoteOnEvent(tick=0, channel=4, data=[27, 95]),
   midi.NoteOffEvent(tick=480, channel=4, data=[27, 95]),
   midi.NoteOnEvent(tick=0, channel=4, data=[27, 95]),
   midi.NoteOffEvent(tick=480, channel=4, data=[27, 95]),
   midi.NoteOnEvent(tick=0, channel=4, data=[27, 95]),
   midi.NoteOffEvent(tick=480, channel=4, data=[27, 95]),
   midi.NoteOnEvent(tick=0, channel=4, data=[27, 95]),
   midi.NoteOffEvent(tick=480, channel=4, data=[27, 95]),
   midi.NoteOnEvent(tick=0, channel=4, data=[27, 95]),
   midi.NoteOffEvent(tick=480, channel=4, data=[27, 95]),
   midi.NoteOnEvent(tick=0, channel=4, data=[27, 95]),
   midi.NoteOffEvent(tick=480, channel=4, data=[27, 95]),
   midi.NoteOnEvent(tick=0, channel=4, data=[27, 95]),
   midi.NoteOffEvent(tick=480, channel=4, data=[27, 95]),
   midi.NoteOnEvent(tick=0, channel=4, data=[40, 95]),
   midi.NoteOffEvent(tick=960, channel=4, data=[40, 95]),
   midi.NoteOnEvent(tick=0, channel=4, data=[27, 95]),
   midi.NoteOffEvent(tick=480, channel=4, data=[27, 95]),
   midi.NoteOnEvent(tick=0, channel=4, data=[27, 95]),
   midi.NoteOffEvent(tick=480, channel=4, data=[27, 95]),
   midi.NoteOnEvent(tick=0, channel=4, data=[27, 95]),
   midi.NoteOffEvent(tick=480, channel=4, data=[27, 95]),
   midi.NoteOnEvent(tick=0, channel=4, data=[27, 95]),
   midi.NoteOffEvent(tick=480, channel=4, data=[27, 95]),
   midi.NoteOnEvent(tick=0, channel=4, data=[40, 95]),
   midi.NoteOffEvent(tick=480, channel=4, data=[40, 95]),
   midi.NoteOnEvent(tick=0, channel=4, data=[39, 95]),
   midi.NoteOffEvent(tick=480, channel=4, data=[39, 95]),
   midi.NoteOnEvent(tick=0, channel=4, data=[27, 95]),
   midi.NoteOffEvent(tick=480, channel=4, data=[27, 95]),
   midi.NoteOnEvent(tick=0, channel=4, data=[27, 95]),
   midi.NoteOffEvent(tick=480, channel=4, data=[27, 95]),
   midi.NoteOnEvent(tick=0, channel=4, data=[27, 95]),
   midi.NoteOffEvent(tick=480, channel=4, data=[27, 95]),
   midi.NoteOnEvent(tick=0, channel=4, data=[27, 95]),
   midi.NoteOffEvent(tick=480, channel=4, data=[27, 95]),
   midi.NoteOnEvent(tick=0, channel=4, data=[34, 95]),
   midi.NoteOffEvent(tick=480, channel=4, data=[34, 95]),
   midi.NoteOnEvent(tick=0, channel=4, data=[35, 95]),
   midi.NoteOffEvent(tick=480, channel=4, data=[35, 95]),
   midi.NoteOnEvent(tick=0, channel=4, data=[38, 95]),
   midi.NoteOffEvent(tick=480, channel=4, data=[38, 95]),
   midi.NoteOnEvent(tick=0, channel=4, data=[37, 95]),
   midi.NoteOffEvent(tick=480, channel=4, data=[37, 95]),
   midi.NoteOnEvent(tick=0, channel=4, data=[36, 95]),
   midi.NoteOffEvent(tick=480, channel=4, data=[36, 95]),
   midi.NoteOnEvent(tick=0, channel=4, data=[35, 95]),
   midi.NoteOffEvent(tick=480, channel=4, data=[35, 95]),
   midi.NoteOnEvent(tick=0, channel=4, data=[27, 95]),
   midi.NoteOffEvent(tick=480, channel=4, data=[27, 95]),
   midi.NoteOnEvent(tick=0, channel=4, data=[27, 95]),
   midi.NoteOffEvent(tick=480, channel=4, data=[27, 95]),
   midi.NoteOnEvent(tick=0, channel=4, data=[27, 95]),
   midi.NoteOffEvent(tick=480, channel=4, data=[27, 95]),
   midi.NoteOnEvent(tick=0, channel=4, data=[27, 95]),
   midi.NoteOffEvent(tick=480, channel=4, data=[27, 95]),
   midi.NoteOnEvent(tick=0, channel=4, data=[40, 95]),
   midi.NoteOffEvent(tick=480, channel=4, data=[40, 95]),
   midi.NoteOnEvent(tick=0, channel=4, data=[39, 95]),
   midi.NoteOffEvent(tick=480, channel=4, data=[39, 95]),
   midi.NoteOnEvent(tick=0, channel=4, data=[27, 95]),
   midi.NoteOffEvent(tick=480, channel=4, data=[27, 95]),
   midi.NoteOnEvent(tick=0, channel=4, data=[27, 95]),
   midi.NoteOffEvent(tick=480, channel=4, data=[27, 95]),
   midi.NoteOnEvent(tick=0, channel=4, data=[27, 95]),
   midi.NoteOffEvent(tick=480, channel=4, data=[27, 95]),
   midi.NoteOnEvent(tick=0, channel=4, data=[27, 95]),
   midi.NoteOffEvent(tick=480, channel=4, data=[27, 95]),
   midi.NoteOnEvent(tick=0, channel=4, data=[27, 95]),
   midi.NoteOffEvent(tick=480, channel=4, data=[27, 95]),
   midi.NoteOnEvent(tick=0, channel=4, data=[27, 95]),
   midi.NoteOffEvent(tick=480, channel=4, data=[27, 95]),
   midi.NoteOnEvent(tick=0, channel=4, data=[27, 95]),
   midi.NoteOffEvent(tick=480, channel=4, data=[27, 95]),
   midi.NoteOnEvent(tick=0, channel=4, data=[27, 95]),
   midi.NoteOffEvent(tick=480, channel=4, data=[27, 95]),
   midi.NoteOnEvent(tick=0, channel=4, data=[40, 95]),
   midi.NoteOffEvent(tick=960, channel=4, data=[40, 95]),
   midi.NoteOnEvent(tick=0, channel=4, data=[27, 95]),
   midi.NoteOffEvent(tick=480, channel=4, data=[27, 95]),
   midi.NoteOnEvent(tick=0, channel=4, data=[27, 95]),
   midi.NoteOffEvent(tick=480, channel=4, data=[27, 95]),
   midi.NoteOnEvent(tick=0, channel=4, data=[27, 95]),
   midi.NoteOffEvent(tick=480, channel=4, data=[27, 95]),
   midi.NoteOnEvent(tick=0, channel=4, data=[27, 95]),
   midi.NoteOffEvent(tick=480, channel=4, data=[27, 95]),
   midi.NoteOnEvent(tick=0, channel=4, data=[40, 95]),
   midi.NoteOffEvent(tick=480, channel=4, data=[40, 95]),
   midi.NoteOnEvent(tick=0, channel=4, data=[39, 95]),
   midi.NoteOffEvent(tick=480, channel=4, data=[39, 95]),
   midi.NoteOnEvent(tick=0, channel=4, data=[27, 95]),
   midi.NoteOffEvent(tick=480, channel=4, data=[27, 95]),
   midi.NoteOnEvent(tick=0, channel=4, data=[27, 95]),
   midi.NoteOffEvent(tick=480, channel=4, data=[27, 95]),
   midi.NoteOnEvent(tick=0, channel=4, data=[27, 95]),
   midi.NoteOffEvent(tick=480, channel=4, data=[27, 95]),
   midi.NoteOnEvent(tick=0, channel=4, data=[27, 95]),
   midi.NoteOffEvent(tick=480, channel=4, data=[27, 95]),
   midi.NoteOnEvent(tick=0, channel=4, data=[34, 95]),
   midi.NoteOffEvent(tick=480, channel=4, data=[34, 95]),
   midi.NoteOnEvent(tick=0, channel=4, data=[35, 95]),
   midi.NoteOffEvent(tick=480, channel=4, data=[35, 95]),
   midi.NoteOnEvent(tick=0, channel=4, data=[38, 95]),
   midi.NoteOffEvent(tick=480, channel=4, data=[38, 95]),
   midi.NoteOnEvent(tick=0, channel=4, data=[37, 95]),
   midi.NoteOffEvent(tick=480, channel=4, data=[37, 95]),
   midi.NoteOnEvent(tick=0, channel=4, data=[36, 95]),
   midi.NoteOffEvent(tick=480, channel=4, data=[36, 95]),
   midi.NoteOnEvent(tick=0, channel=4, data=[35, 95]),
   midi.NoteOffEvent(tick=480, channel=4, data=[35, 95]),
   midi.NoteOnEvent(tick=0, channel=4, data=[27, 95]),
   midi.NoteOffEvent(tick=480, channel=4, data=[27, 95]),
   midi.NoteOnEvent(tick=0, channel=4, data=[27, 95]),
   midi.NoteOffEvent(tick=480, channel=4, data=[27, 95]),
   midi.NoteOnEvent(tick=0, channel=4, data=[27, 95]),
   midi.NoteOffEvent(tick=480, channel=4, data=[27, 95]),
   midi.NoteOnEvent(tick=0, channel=4, data=[27, 95]),
   midi.NoteOffEvent(tick=480, channel=4, data=[27, 95]),
   midi.NoteOnEvent(tick=0, channel=4, data=[40, 95]),
   midi.NoteOffEvent(tick=480, channel=4, data=[40, 95]),
   midi.NoteOnEvent(tick=0, channel=4, data=[39, 95]),
   midi.NoteOffEvent(tick=480, channel=4, data=[39, 95]),
   midi.NoteOnEvent(tick=0, channel=4, data=[27, 95]),
   midi.NoteOffEvent(tick=480, channel=4, data=[27, 95]),
   midi.NoteOnEvent(tick=0, channel=4, data=[27, 95]),
   midi.NoteOffEvent(tick=480, channel=4, data=[27, 95]),
   midi.NoteOnEvent(tick=0, channel=4, data=[27, 95]),
   midi.NoteOffEvent(tick=480, channel=4, data=[27, 95]),
   midi.NoteOnEvent(tick=0, channel=4, data=[27, 95]),
   midi.NoteOffEvent(tick=480, channel=4, data=[27, 95]),
   midi.NoteOnEvent(tick=0, channel=4, data=[27, 95]),
   midi.NoteOffEvent(tick=480, channel=4, data=[27, 95]),
   midi.NoteOnEvent(tick=0, channel=4, data=[27, 95]),
   midi.NoteOffEvent(tick=480, channel=4, data=[27, 95]),
   midi.NoteOnEvent(tick=0, channel=4, data=[27, 95]),
   midi.NoteOffEvent(tick=480, channel=4, data=[27, 95]),
   midi.NoteOnEvent(tick=0, channel=4, data=[27, 95]),
   midi.NoteOffEvent(tick=480, channel=4, data=[27, 95]),
   midi.NoteOnEvent(tick=0, channel=4, data=[40, 95]),
   midi.NoteOffEvent(tick=960, channel=4, data=[40, 95]),
   midi.NoteOnEvent(tick=0, channel=4, data=[27, 95]),
   midi.NoteOffEvent(tick=480, channel=4, data=[27, 95]),
   midi.NoteOnEvent(tick=0, channel=4, data=[27, 95]),
   midi.NoteOffEvent(tick=480, channel=4, data=[27, 95]),
   midi.NoteOnEvent(tick=0, channel=4, data=[27, 95]),
   midi.NoteOffEvent(tick=480, channel=4, data=[27, 95]),
   midi.NoteOnEvent(tick=0, channel=4, data=[27, 95]),
   midi.NoteOffEvent(tick=480, channel=4, data=[27, 95]),
   midi.NoteOnEvent(tick=0, channel=4, data=[40, 95]),
   midi.NoteOffEvent(tick=480, channel=4, data=[40, 95]),
   midi.NoteOnEvent(tick=0, channel=4, data=[39, 95]),
   midi.NoteOffEvent(tick=480, channel=4, data=[39, 95]),
   midi.NoteOnEvent(tick=0, channel=4, data=[27, 95]),
   midi.NoteOffEvent(tick=480, channel=4, data=[27, 95]),
   midi.NoteOnEvent(tick=0, channel=4, data=[27, 95]),
   midi.NoteOffEvent(tick=480, channel=4, data=[27, 95]),
   midi.NoteOnEvent(tick=0, channel=4, data=[27, 95]),
   midi.NoteOffEvent(tick=480, channel=4, data=[27, 95]),
   midi.NoteOnEvent(tick=0, channel=4, data=[27, 95]),
   midi.NoteOffEvent(tick=480, channel=4, data=[27, 95]),
   midi.NoteOnEvent(tick=0, channel=4, data=[34, 95]),
   midi.NoteOffEvent(tick=480, channel=4, data=[34, 95]),
   midi.NoteOnEvent(tick=0, channel=4, data=[35, 95]),
   midi.NoteOffEvent(tick=480, channel=4, data=[35, 95]),
   midi.NoteOnEvent(tick=0, channel=4, data=[38, 95]),
   midi.NoteOffEvent(tick=480, channel=4, data=[38, 95]),
   midi.NoteOnEvent(tick=0, channel=4, data=[37, 95]),
   midi.NoteOffEvent(tick=480, channel=4, data=[37, 95]),
   midi.NoteOnEvent(tick=0, channel=4, data=[36, 95]),
   midi.NoteOffEvent(tick=480, channel=4, data=[36, 95]),
   midi.NoteOnEvent(tick=0, channel=4, data=[35, 95]),
   midi.NoteOffEvent(tick=480, channel=4, data=[35, 95]),
   midi.NoteOnEvent(tick=0, channel=4, data=[27, 95]),
   midi.NoteOffEvent(tick=480, channel=4, data=[27, 95]),
   midi.NoteOnEvent(tick=0, channel=4, data=[27, 95]),
   midi.NoteOffEvent(tick=480, channel=4, data=[27, 95]),
   midi.NoteOnEvent(tick=0, channel=4, data=[27, 95]),
   midi.NoteOffEvent(tick=480, channel=4, data=[27, 95]),
   midi.NoteOnEvent(tick=0, channel=4, data=[27, 95]),
   midi.NoteOffEvent(tick=480, channel=4, data=[27, 95]),
   midi.NoteOnEvent(tick=0, channel=4, data=[40, 95]),
   midi.NoteOffEvent(tick=480, channel=4, data=[40, 95]),
   midi.NoteOnEvent(tick=0, channel=4, data=[39, 95]),
   midi.NoteOffEvent(tick=480, channel=4, data=[39, 95]),
   midi.NoteOnEvent(tick=0, channel=4, data=[27, 95]),
   midi.NoteOffEvent(tick=480, channel=4, data=[27, 95]),
   midi.NoteOnEvent(tick=0, channel=4, data=[27, 95]),
   midi.NoteOffEvent(tick=480, channel=4, data=[27, 95]),
   midi.NoteOnEvent(tick=0, channel=4, data=[27, 95]),
   midi.NoteOffEvent(tick=480, channel=4, data=[27, 95]),
   midi.NoteOnEvent(tick=0, channel=4, data=[27, 95]),
   midi.NoteOffEvent(tick=480, channel=4, data=[27, 95]),
   midi.NoteOnEvent(tick=0, channel=4, data=[27, 95]),
   midi.NoteOffEvent(tick=480, channel=4, data=[27, 95]),
   midi.NoteOnEvent(tick=0, channel=4, data=[27, 95]),
   midi.NoteOffEvent(tick=480, channel=4, data=[27, 95]),
   midi.NoteOnEvent(tick=0, channel=4, data=[27, 95]),
   midi.NoteOffEvent(tick=480, channel=4, data=[27, 95]),
   midi.NoteOnEvent(tick=0, channel=4, data=[27, 95]),
   midi.NoteOffEvent(tick=480, channel=4, data=[27, 95]),
   midi.NoteOnEvent(tick=0, channel=4, data=[40, 95]),
   midi.NoteOffEvent(tick=960, channel=4, data=[40, 95]),
   midi.NoteOnEvent(tick=0, channel=4, data=[27, 95]),
   midi.NoteOffEvent(tick=480, channel=4, data=[27, 95]),
   midi.NoteOnEvent(tick=0, channel=4, data=[27, 95]),
   midi.NoteOffEvent(tick=480, channel=4, data=[27, 95]),
   midi.NoteOnEvent(tick=0, channel=4, data=[27, 95]),
   midi.NoteOffEvent(tick=480, channel=4, data=[27, 95]),
   midi.NoteOnEvent(tick=0, channel=4, data=[27, 95]),
   midi.NoteOffEvent(tick=480, channel=4, data=[27, 95]),
   midi.NoteOnEvent(tick=0, channel=4, data=[40, 95]),
   midi.NoteOffEvent(tick=480, channel=4, data=[40, 95]),
   midi.NoteOnEvent(tick=0, channel=4, data=[39, 95]),
   midi.NoteOffEvent(tick=480, channel=4, data=[39, 95]),
   midi.NoteOnEvent(tick=0, channel=4, data=[27, 95]),
   midi.NoteOffEvent(tick=480, channel=4, data=[27, 95]),
   midi.NoteOnEvent(tick=0, channel=4, data=[27, 95]),
   midi.NoteOffEvent(tick=480, channel=4, data=[27, 95]),
   midi.NoteOnEvent(tick=0, channel=4, data=[27, 95]),
   midi.NoteOffEvent(tick=480, channel=4, data=[27, 95]),
   midi.NoteOnEvent(tick=0, channel=4, data=[27, 95]),
   midi.NoteOffEvent(tick=480, channel=4, data=[27, 95]),
   midi.NoteOnEvent(tick=0, channel=4, data=[34, 95]),
   midi.NoteOffEvent(tick=480, channel=4, data=[34, 95]),
   midi.NoteOnEvent(tick=0, channel=4, data=[35, 95]),
   midi.NoteOffEvent(tick=480, channel=4, data=[35, 95]),
   midi.NoteOnEvent(tick=0, channel=4, data=[38, 95]),
   midi.NoteOffEvent(tick=480, channel=4, data=[38, 95]),
   midi.NoteOnEvent(tick=0, channel=4, data=[37, 95]),
   midi.NoteOffEvent(tick=480, channel=4, data=[37, 95]),
   midi.NoteOnEvent(tick=0, channel=4, data=[36, 95]),
   midi.NoteOffEvent(tick=480, channel=4, data=[36, 95]),
   midi.NoteOnEvent(tick=0, channel=4, data=[35, 95]),
   midi.NoteOffEvent(tick=480, channel=4, data=[35, 95]),
   midi.NoteOnEvent(tick=0, channel=4, data=[27, 95]),
   midi.NoteOffEvent(tick=480, channel=4, data=[27, 95]),
   midi.NoteOnEvent(tick=0, channel=4, data=[27, 95]),
   midi.NoteOffEvent(tick=480, channel=4, data=[27, 95]),
   midi.NoteOnEvent(tick=0, channel=4, data=[27, 95]),
   midi.NoteOffEvent(tick=480, channel=4, data=[27, 95]),
   midi.NoteOnEvent(tick=0, channel=4, data=[27, 95]),
   midi.NoteOffEvent(tick=480, channel=4, data=[27, 95]),
   midi.NoteOnEvent(tick=0, channel=4, data=[33, 95]),
   midi.NoteOffEvent(tick=480, channel=4, data=[33, 95]),
   midi.NoteOnEvent(tick=0, channel=4, data=[32, 95]),
   midi.NoteOffEvent(tick=480, channel=4, data=[32, 95]),
   midi.NoteOnEvent(tick=0, channel=4, data=[27, 95]),
   midi.NoteOffEvent(tick=480, channel=4, data=[27, 95]),
   midi.NoteOnEvent(tick=0, channel=4, data=[27, 95]),
   midi.NoteOffEvent(tick=480, channel=4, data=[27, 95]),
   midi.NoteOnEvent(tick=0, channel=4, data=[27, 95]),
   midi.NoteOffEvent(tick=480, channel=4, data=[27, 95]),
   midi.NoteOnEvent(tick=0, channel=4, data=[27, 95]),
   midi.NoteOffEvent(tick=480, channel=4, data=[27, 95]),
   midi.NoteOnEvent(tick=0, channel=4, data=[27, 95]),
   midi.NoteOffEvent(tick=480, channel=4, data=[27, 95]),
   midi.NoteOnEvent(tick=0, channel=4, data=[27, 95]),
   midi.NoteOffEvent(tick=480, channel=4, data=[27, 95]),
   midi.NoteOnEvent(tick=0, channel=4, data=[27, 95]),
   midi.NoteOffEvent(tick=480, channel=4, data=[27, 95]),
   midi.NoteOnEvent(tick=0, channel=4, data=[27, 95]),
   midi.NoteOffEvent(tick=480, channel=4, data=[27, 95]),
   midi.NoteOnEvent(tick=0, channel=4, data=[33, 95]),
   midi.NoteOffEvent(tick=960, channel=4, data=[33, 95]),
   midi.NoteOnEvent(tick=0, channel=4, data=[27, 95]),
   midi.NoteOffEvent(tick=480, channel=4, data=[27, 95]),
   midi.NoteOnEvent(tick=0, channel=4, data=[27, 95]),
   midi.NoteOffEvent(tick=480, channel=4, data=[27, 95]),
   midi.NoteOnEvent(tick=0, channel=4, data=[27, 95]),
   midi.NoteOffEvent(tick=480, channel=4, data=[27, 95]),
   midi.NoteOnEvent(tick=0, channel=4, data=[27, 95]),
   midi.NoteOffEvent(tick=480, channel=4, data=[27, 95]),
   midi.NoteOnEvent(tick=0, channel=4, data=[33, 95]),
   midi.NoteOffEvent(tick=480, channel=4, data=[33, 95]),
   midi.NoteOnEvent(tick=0, channel=4, data=[32, 95]),
   midi.NoteOffEvent(tick=480, channel=4, data=[32, 95]),
   midi.NoteOnEvent(tick=0, channel=4, data=[27, 95]),
   midi.NoteOffEvent(tick=480, channel=4, data=[27, 95]),
   midi.NoteOnEvent(tick=0, channel=4, data=[27, 95]),
   midi.NoteOffEvent(tick=480, channel=4, data=[27, 95]),
   midi.NoteOnEvent(tick=0, channel=4, data=[27, 95]),
   midi.NoteOffEvent(tick=480, channel=4, data=[27, 95]),
   midi.NoteOnEvent(tick=0, channel=4, data=[27, 95]),
   midi.NoteOffEvent(tick=480, channel=4, data=[27, 95]),
   midi.NoteOnEvent(tick=0, channel=4, data=[28, 95]),
   midi.NoteOffEvent(tick=480, channel=4, data=[28, 95]),
   midi.NoteOnEvent(tick=0, channel=4, data=[31, 95]),
   midi.NoteOffEvent(tick=480, channel=4, data=[31, 95]),
   midi.NoteOnEvent(tick=0, channel=4, data=[30, 95]),
   midi.NoteOffEvent(tick=480, channel=4, data=[30, 95]),
   midi.NoteOnEvent(tick=0, channel=4, data=[29, 95]),
   midi.NoteOffEvent(tick=480, channel=4, data=[29, 95]),
   midi.NoteOnEvent(tick=0, channel=4, data=[28, 95]),
   midi.NoteOffEvent(tick=480, channel=4, data=[28, 95]),
   midi.NoteOnEvent(tick=0, channel=4, data=[27, 95]),
   midi.NoteOffEvent(tick=480, channel=4, data=[27, 95]),
   midi.NoteOnEvent(tick=0, channel=4, data=[27, 95]),
   midi.NoteOffEvent(tick=480, channel=4, data=[27, 95]),
   midi.NoteOnEvent(tick=0, channel=4, data=[27, 95]),
   midi.NoteOffEvent(tick=480, channel=4, data=[27, 95]),
   midi.NoteOnEvent(tick=0, channel=4, data=[27, 95]),
   midi.NoteOffEvent(tick=480, channel=4, data=[27, 95]),
   midi.NoteOnEvent(tick=0, channel=4, data=[27, 95]),
   midi.NoteOffEvent(tick=480, channel=4, data=[27, 95]),
   midi.NoteOnEvent(tick=0, channel=4, data=[33, 95]),
   midi.NoteOffEvent(tick=480, channel=4, data=[33, 95]),
   midi.NoteOnEvent(tick=0, channel=4, data=[32, 95]),
   midi.NoteOffEvent(tick=480, channel=4, data=[32, 95]),
   midi.NoteOnEvent(tick=0, channel=4, data=[27, 95]),
   midi.NoteOffEvent(tick=480, channel=4, data=[27, 95]),
   midi.NoteOnEvent(tick=0, channel=4, data=[27, 95]),
   midi.NoteOffEvent(tick=480, channel=4, data=[27, 95]),
   midi.NoteOnEvent(tick=0, channel=4, data=[27, 95]),
   midi.NoteOffEvent(tick=480, channel=4, data=[27, 95]),
   midi.NoteOnEvent(tick=0, channel=4, data=[27, 95]),
   midi.NoteOffEvent(tick=480, channel=4, data=[27, 95]),
   midi.NoteOnEvent(tick=0, channel=4, data=[27, 95]),
   midi.NoteOffEvent(tick=480, channel=4, data=[27, 95]),
   midi.NoteOnEvent(tick=0, channel=4, data=[27, 95]),
   midi.NoteOffEvent(tick=480, channel=4, data=[27, 95]),
   midi.NoteOnEvent(tick=0, channel=4, data=[27, 95]),
   midi.NoteOffEvent(tick=480, channel=4, data=[27, 95]),
   midi.NoteOnEvent(tick=0, channel=4, data=[27, 95]),
   midi.NoteOffEvent(tick=480, channel=4, data=[27, 95]),
   midi.NoteOnEvent(tick=0, channel=4, data=[33, 95]),
   midi.NoteOffEvent(tick=960, channel=4, data=[33, 95]),
   midi.NoteOnEvent(tick=0, channel=4, data=[27, 95]),
   midi.NoteOffEvent(tick=480, channel=4, data=[27, 95]),
   midi.NoteOnEvent(tick=0, channel=4, data=[27, 95]),
   midi.NoteOffEvent(tick=480, channel=4, data=[27, 95]),
   midi.NoteOnEvent(tick=0, channel=4, data=[27, 95]),
   midi.NoteOffEvent(tick=480, channel=4, data=[27, 95]),
   midi.NoteOnEvent(tick=0, channel=4, data=[27, 95]),
   midi.NoteOffEvent(tick=480, channel=4, data=[27, 95]),
   midi.NoteOnEvent(tick=0, channel=4, data=[33, 95]),
   midi.NoteOffEvent(tick=480, channel=4, data=[33, 95]),
   midi.NoteOnEvent(tick=0, channel=4, data=[32, 95]),
   midi.NoteOffEvent(tick=480, channel=4, data=[32, 95]),
   midi.NoteOnEvent(tick=0, channel=4, data=[27, 95]),
   midi.NoteOffEvent(tick=480, channel=4, data=[27, 95]),
   midi.NoteOnEvent(tick=0, channel=4, data=[27, 95]),
   midi.NoteOffEvent(tick=480, channel=4, data=[27, 95]),
   midi.NoteOnEvent(tick=0, channel=4, data=[27, 95]),
   midi.NoteOffEvent(tick=480, channel=4, data=[27, 95]),
   midi.NoteOnEvent(tick=0, channel=4, data=[27, 95]),
   midi.NoteOffEvent(tick=480, channel=4, data=[27, 95]),
   midi.NoteOnEvent(tick=0, channel=4, data=[28, 95]),
   midi.NoteOffEvent(tick=480, channel=4, data=[28, 95]),
   midi.NoteOnEvent(tick=0, channel=4, data=[31, 95]),
   midi.NoteOffEvent(tick=480, channel=4, data=[31, 95]),
   midi.NoteOnEvent(tick=0, channel=4, data=[30, 95]),
   midi.NoteOffEvent(tick=480, channel=4, data=[30, 95]),
   midi.NoteOnEvent(tick=0, channel=4, data=[29, 95]),
   midi.NoteOffEvent(tick=480, channel=4, data=[29, 95]),
   midi.NoteOnEvent(tick=0, channel=4, data=[28, 95]),
   midi.NoteOffEvent(tick=480, channel=4, data=[28, 95]),
   midi.NoteOnEvent(tick=0, channel=4, data=[27, 95]),
   midi.NoteOffEvent(tick=480, channel=4, data=[27, 95]),
   midi.NoteOnEvent(tick=0, channel=4, data=[27, 95]),
   midi.NoteOffEvent(tick=480, channel=4, data=[27, 95]),
   midi.NoteOnEvent(tick=0, channel=4, data=[27, 95]),
   midi.NoteOffEvent(tick=480, channel=4, data=[27, 95]),
   midi.NoteOnEvent(tick=0, channel=4, data=[27, 95]),
   midi.NoteOffEvent(tick=480, channel=4, data=[27, 95]),
   midi.NoteOnEvent(tick=0, channel=4, data=[27, 95]),
   midi.NoteOffEvent(tick=480, channel=4, data=[27, 95]),
   midi.NoteOnEvent(tick=0, channel=4, data=[37, 95]),
   midi.NoteOffEvent(tick=480, channel=4, data=[37, 95]),
   midi.NoteOnEvent(tick=0, channel=4, data=[36, 95]),
   midi.NoteOffEvent(tick=480, channel=4, data=[36, 95]),
   midi.NoteOnEvent(tick=0, channel=4, data=[27, 95]),
   midi.NoteOffEvent(tick=480, channel=4, data=[27, 95]),
   midi.NoteOnEvent(tick=0, channel=4, data=[27, 95]),
   midi.NoteOffEvent(tick=480, channel=4, data=[27, 95]),
   midi.NoteOnEvent(tick=0, channel=4, data=[27, 95]),
   midi.NoteOffEvent(tick=480, channel=4, data=[27, 95]),
   midi.NoteOnEvent(tick=0, channel=4, data=[27, 95]),
   midi.NoteOffEvent(tick=480, channel=4, data=[27, 95]),
   midi.NoteOnEvent(tick=0, channel=4, data=[27, 95]),
   midi.NoteOffEvent(tick=480, channel=4, data=[27, 95]),
   midi.NoteOnEvent(tick=0, channel=4, data=[27, 95]),
   midi.NoteOffEvent(tick=480, channel=4, data=[27, 95]),
   midi.NoteOnEvent(tick=0, channel=4, data=[27, 95]),
   midi.NoteOffEvent(tick=480, channel=4, data=[27, 95]),
   midi.NoteOnEvent(tick=0, channel=4, data=[27, 95]),
   midi.NoteOffEvent(tick=480, channel=4, data=[27, 95]),
   midi.NoteOnEvent(tick=0, channel=4, data=[32, 95]),
   midi.NoteOffEvent(tick=960, channel=4, data=[32, 95]),
   midi.NoteOnEvent(tick=0, channel=4, data=[27, 95]),
   midi.NoteOffEvent(tick=480, channel=4, data=[27, 95]),
   midi.NoteOnEvent(tick=0, channel=4, data=[27, 95]),
   midi.NoteOffEvent(tick=480, channel=4, data=[27, 95]),
   midi.NoteOnEvent(tick=0, channel=4, data=[27, 95]),
   midi.NoteOffEvent(tick=480, channel=4, data=[27, 95]),
   midi.NoteOnEvent(tick=0, channel=4, data=[27, 95]),
   midi.NoteOffEvent(tick=480, channel=4, data=[27, 95]),
   midi.NoteOnEvent(tick=0, channel=4, data=[37, 95]),
   midi.NoteOffEvent(tick=480, channel=4, data=[37, 95]),
   midi.NoteOnEvent(tick=0, channel=4, data=[36, 95]),
   midi.NoteOffEvent(tick=480, channel=4, data=[36, 95]),
   midi.NoteOnEvent(tick=0, channel=4, data=[27, 95]),
   midi.NoteOffEvent(tick=480, channel=4, data=[27, 95]),
   midi.NoteOnEvent(tick=0, channel=4, data=[27, 95]),
   midi.NoteOffEvent(tick=480, channel=4, data=[27, 95]),
   midi.NoteOnEvent(tick=0, channel=4, data=[27, 95]),
   midi.NoteOffEvent(tick=480, channel=4, data=[27, 95]),
   midi.NoteOnEvent(tick=0, channel=4, data=[27, 95]),
   midi.NoteOffEvent(tick=480, channel=4, data=[27, 95]),
   midi.NoteOnEvent(tick=0, channel=4, data=[31, 95]),
   midi.NoteOffEvent(tick=480, channel=4, data=[31, 95]),
   midi.NoteOnEvent(tick=0, channel=4, data=[32, 95]),
   midi.NoteOffEvent(tick=480, channel=4, data=[32, 95]),
   midi.NoteOnEvent(tick=0, channel=4, data=[35, 95]),
   midi.NoteOffEvent(tick=480, channel=4, data=[35, 95]),
   midi.NoteOnEvent(tick=0, channel=4, data=[34, 95]),
   midi.NoteOffEvent(tick=480, channel=4, data=[34, 95]),
   midi.NoteOnEvent(tick=0, channel=4, data=[33, 95]),
   midi.NoteOffEvent(tick=480, channel=4, data=[33, 95]),
   midi.NoteOnEvent(tick=0, channel=4, data=[32, 95]),
   midi.NoteOffEvent(tick=480, channel=4, data=[32, 95]),
   midi.NoteOnEvent(tick=0, channel=4, data=[27, 95]),
   midi.NoteOffEvent(tick=480, channel=4, data=[27, 95]),
   midi.NoteOnEvent(tick=0, channel=4, data=[27, 95]),
   midi.NoteOffEvent(tick=480, channel=4, data=[27, 95]),
   midi.NoteOnEvent(tick=0, channel=4, data=[27, 95]),
   midi.NoteOffEvent(tick=480, channel=4, data=[27, 95]),
   midi.NoteOnEvent(tick=0, channel=4, data=[27, 95]),
   midi.NoteOffEvent(tick=480, channel=4, data=[27, 95]),
   midi.NoteOnEvent(tick=0, channel=4, data=[37, 95]),
   midi.NoteOffEvent(tick=480, channel=4, data=[37, 95]),
   midi.NoteOnEvent(tick=0, channel=4, data=[36, 95]),
   midi.NoteOffEvent(tick=480, channel=4, data=[36, 95]),
   midi.NoteOnEvent(tick=0, channel=4, data=[27, 95]),
   midi.NoteOffEvent(tick=480, channel=4, data=[27, 95]),
   midi.NoteOnEvent(tick=0, channel=4, data=[27, 95]),
   midi.NoteOffEvent(tick=480, channel=4, data=[27, 95]),
   midi.NoteOnEvent(tick=0, channel=4, data=[27, 95]),
   midi.NoteOffEvent(tick=480, channel=4, data=[27, 95]),
   midi.NoteOnEvent(tick=0, channel=4, data=[27, 95]),
   midi.NoteOffEvent(tick=480, channel=4, data=[27, 95]),
   midi.NoteOnEvent(tick=0, channel=4, data=[27, 95]),
   midi.NoteOffEvent(tick=480, channel=4, data=[27, 95]),
   midi.NoteOnEvent(tick=0, channel=4, data=[27, 95]),
   midi.NoteOffEvent(tick=480, channel=4, data=[27, 95]),
   midi.NoteOnEvent(tick=0, channel=4, data=[27, 95]),
   midi.NoteOffEvent(tick=480, channel=4, data=[27, 95]),
   midi.NoteOnEvent(tick=0, channel=4, data=[27, 95]),
   midi.NoteOffEvent(tick=480, channel=4, data=[27, 95]),
   midi.NoteOnEvent(tick=0, channel=4, data=[32, 95]),
   midi.NoteOffEvent(tick=960, channel=4, data=[32, 95]),
   midi.NoteOnEvent(tick=0, channel=4, data=[27, 95]),
   midi.NoteOffEvent(tick=480, channel=4, data=[27, 95]),
   midi.NoteOnEvent(tick=0, channel=4, data=[27, 95]),
   midi.NoteOffEvent(tick=480, channel=4, data=[27, 95]),
   midi.NoteOnEvent(tick=0, channel=4, data=[27, 95]),
   midi.NoteOffEvent(tick=480, channel=4, data=[27, 95]),
   midi.NoteOnEvent(tick=0, channel=4, data=[27, 95]),
   midi.NoteOffEvent(tick=480, channel=4, data=[27, 95]),
   midi.NoteOnEvent(tick=0, channel=4, data=[37, 95]),
   midi.NoteOffEvent(tick=480, channel=4, data=[37, 95]),
   midi.NoteOnEvent(tick=0, channel=4, data=[36, 95]),
   midi.NoteOffEvent(tick=480, channel=4, data=[36, 95]),
   midi.NoteOnEvent(tick=0, channel=4, data=[27, 95]),
   midi.NoteOffEvent(tick=480, channel=4, data=[27, 95]),
   midi.NoteOnEvent(tick=0, channel=4, data=[27, 95]),
   midi.NoteOffEvent(tick=480, channel=4, data=[27, 95]),
   midi.NoteOnEvent(tick=0, channel=4, data=[27, 95]),
   midi.NoteOffEvent(tick=480, channel=4, data=[27, 95]),
   midi.NoteOnEvent(tick=0, channel=4, data=[27, 95]),
   midi.NoteOffEvent(tick=480, channel=4, data=[27, 95]),
   midi.NoteOnEvent(tick=0, channel=4, data=[31, 95]),
   midi.NoteOffEvent(tick=480, channel=4, data=[31, 95]),
   midi.NoteOnEvent(tick=0, channel=4, data=[32, 95]),
   midi.NoteOffEvent(tick=480, channel=4, data=[32, 95]),
   midi.NoteOnEvent(tick=0, channel=4, data=[35, 95]),
   midi.NoteOffEvent(tick=480, channel=4, data=[35, 95]),
   midi.NoteOnEvent(tick=0, channel=4, data=[34, 95]),
   midi.NoteOffEvent(tick=480, channel=4, data=[34, 95]),
   midi.NoteOnEvent(tick=0, channel=4, data=[33, 95]),
   midi.NoteOffEvent(tick=480, channel=4, data=[33, 95]),
   midi.NoteOnEvent(tick=0, channel=4, data=[32, 95]),
   midi.NoteOffEvent(tick=480, channel=4, data=[32, 95]),
   midi.NoteOnEvent(tick=0, channel=4, data=[27, 95]),
   midi.NoteOffEvent(tick=480, channel=4, data=[27, 95]),
   midi.NoteOnEvent(tick=0, channel=4, data=[27, 95]),
   midi.NoteOffEvent(tick=480, channel=4, data=[27, 95]),
   midi.NoteOnEvent(tick=0, channel=4, data=[27, 95]),
   midi.NoteOffEvent(tick=480, channel=4, data=[27, 95]),
   midi.NoteOnEvent(tick=0, channel=4, data=[27, 95]),
   midi.NoteOffEvent(tick=480, channel=4, data=[27, 95]),
   midi.NoteOnEvent(tick=0, channel=4, data=[37, 95]),
   midi.NoteOffEvent(tick=480, channel=4, data=[37, 95]),
   midi.NoteOnEvent(tick=0, channel=4, data=[36, 95]),
   midi.NoteOffEvent(tick=480, channel=4, data=[36, 95]),
   midi.NoteOnEvent(tick=0, channel=4, data=[27, 95]),
   midi.NoteOffEvent(tick=480, channel=4, data=[27, 95]),
   midi.NoteOnEvent(tick=0, channel=4, data=[27, 95]),
   midi.NoteOffEvent(tick=480, channel=4, data=[27, 95]),
   midi.NoteOnEvent(tick=0, channel=4, data=[27, 95]),
   midi.NoteOffEvent(tick=480, channel=4, data=[27, 95]),
   midi.NoteOnEvent(tick=0, channel=4, data=[27, 95]),
   midi.NoteOffEvent(tick=480, channel=4, data=[27, 95]),
   midi.NoteOnEvent(tick=0, channel=4, data=[27, 95]),
   midi.NoteOffEvent(tick=480, channel=4, data=[27, 95]),
   midi.NoteOnEvent(tick=0, channel=4, data=[27, 95]),
   midi.NoteOffEvent(tick=480, channel=4, data=[27, 95]),
   midi.NoteOnEvent(tick=0, channel=4, data=[27, 95]),
   midi.NoteOffEvent(tick=480, channel=4, data=[27, 95]),
   midi.NoteOnEvent(tick=0, channel=4, data=[27, 95]),
   midi.NoteOffEvent(tick=480, channel=4, data=[27, 95]),
   midi.NoteOnEvent(tick=0, channel=4, data=[32, 95]),
   midi.NoteOffEvent(tick=960, channel=4, data=[32, 95]),
   midi.NoteOnEvent(tick=0, channel=4, data=[27, 95]),
   midi.NoteOffEvent(tick=480, channel=4, data=[27, 95]),
   midi.NoteOnEvent(tick=0, channel=4, data=[27, 95]),
   midi.NoteOffEvent(tick=480, channel=4, data=[27, 95]),
   midi.NoteOnEvent(tick=0, channel=4, data=[27, 95]),
   midi.NoteOffEvent(tick=480, channel=4, data=[27, 95]),
   midi.NoteOnEvent(tick=0, channel=4, data=[27, 95]),
   midi.NoteOffEvent(tick=480, channel=4, data=[27, 95]),
   midi.NoteOnEvent(tick=0, channel=4, data=[37, 95]),
   midi.NoteOffEvent(tick=480, channel=4, data=[37, 95]),
   midi.NoteOnEvent(tick=0, channel=4, data=[36, 95]),
   midi.NoteOffEvent(tick=480, channel=4, data=[36, 95]),
   midi.NoteOnEvent(tick=0, channel=4, data=[27, 95]),
   midi.NoteOffEvent(tick=480, channel=4, data=[27, 95]),
   midi.NoteOnEvent(tick=0, channel=4, data=[27, 95]),
   midi.NoteOffEvent(tick=480, channel=4, data=[27, 95]),
   midi.NoteOnEvent(tick=0, channel=4, data=[27, 95]),
   midi.NoteOffEvent(tick=480, channel=4, data=[27, 95]),
   midi.NoteOnEvent(tick=0, channel=4, data=[27, 95]),
   midi.NoteOffEvent(tick=480, channel=4, data=[27, 95]),
   midi.NoteOnEvent(tick=0, channel=4, data=[31, 95]),
   midi.NoteOffEvent(tick=480, channel=4, data=[31, 95]),
   midi.NoteOnEvent(tick=0, channel=4, data=[32, 95]),
   midi.NoteOffEvent(tick=480, channel=4, data=[32, 95]),
   midi.NoteOnEvent(tick=0, channel=4, data=[35, 95]),
   midi.NoteOffEvent(tick=480, channel=4, data=[35, 95]),
   midi.NoteOnEvent(tick=0, channel=4, data=[34, 95]),
   midi.NoteOffEvent(tick=480, channel=4, data=[34, 95]),
   midi.NoteOnEvent(tick=0, channel=4, data=[33, 95]),
   midi.NoteOffEvent(tick=480, channel=4, data=[33, 95]),
   midi.NoteOnEvent(tick=0, channel=4, data=[32, 95]),
   midi.NoteOffEvent(tick=480, channel=4, data=[32, 95]),
   midi.NoteOnEvent(tick=0, channel=4, data=[27, 95]),
   midi.NoteOffEvent(tick=480, channel=4, data=[27, 95]),
   midi.NoteOnEvent(tick=0, channel=4, data=[27, 95]),
   midi.NoteOffEvent(tick=480, channel=4, data=[27, 95]),
   midi.NoteOnEvent(tick=0, channel=4, data=[27, 95]),
   midi.NoteOffEvent(tick=480, channel=4, data=[27, 95]),
   midi.NoteOnEvent(tick=0, channel=4, data=[27, 95]),
   midi.NoteOffEvent(tick=480, channel=4, data=[27, 95]),
   midi.NoteOnEvent(tick=0, channel=4, data=[37, 95]),
   midi.NoteOffEvent(tick=480, channel=4, data=[37, 95]),
   midi.NoteOnEvent(tick=0, channel=4, data=[36, 95]),
   midi.NoteOffEvent(tick=480, channel=4, data=[36, 95]),
   midi.NoteOnEvent(tick=0, channel=4, data=[27, 95]),
   midi.NoteOffEvent(tick=480, channel=4, data=[27, 95]),
   midi.NoteOnEvent(tick=0, channel=4, data=[27, 95]),
   midi.NoteOffEvent(tick=480, channel=4, data=[27, 95]),
   midi.NoteOnEvent(tick=0, channel=4, data=[27, 95]),
   midi.NoteOffEvent(tick=480, channel=4, data=[27, 95]),
   midi.NoteOnEvent(tick=0, channel=4, data=[27, 95]),
   midi.NoteOffEvent(tick=480, channel=4, data=[27, 95]),
   midi.NoteOnEvent(tick=0, channel=4, data=[27, 95]),
   midi.NoteOffEvent(tick=480, channel=4, data=[27, 95]),
   midi.NoteOnEvent(tick=0, channel=4, data=[27, 95]),
   midi.NoteOffEvent(tick=480, channel=4, data=[27, 95]),
   midi.NoteOnEvent(tick=0, channel=4, data=[27, 95]),
   midi.NoteOffEvent(tick=480, channel=4, data=[27, 95]),
   midi.NoteOnEvent(tick=0, channel=4, data=[27, 95]),
   midi.NoteOffEvent(tick=480, channel=4, data=[27, 95]),
   midi.NoteOnEvent(tick=0, channel=4, data=[32, 95]),
   midi.NoteOffEvent(tick=960, channel=4, data=[32, 95]),
   midi.NoteOnEvent(tick=0, channel=4, data=[27, 95]),
   midi.NoteOffEvent(tick=480, channel=4, data=[27, 95]),
   midi.NoteOnEvent(tick=0, channel=4, data=[27, 95]),
   midi.NoteOffEvent(tick=480, channel=4, data=[27, 95]),
   midi.NoteOnEvent(tick=0, channel=4, data=[27, 95]),
   midi.NoteOffEvent(tick=480, channel=4, data=[27, 95]),
   midi.NoteOnEvent(tick=0, channel=4, data=[27, 95]),
   midi.NoteOffEvent(tick=480, channel=4, data=[27, 95]),
   midi.NoteOnEvent(tick=0, channel=4, data=[37, 95]),
   midi.NoteOffEvent(tick=480, channel=4, data=[37, 95]),
   midi.NoteOnEvent(tick=0, channel=4, data=[36, 95]),
   midi.NoteOffEvent(tick=480, channel=4, data=[36, 95]),
   midi.NoteOnEvent(tick=0, channel=4, data=[27, 95]),
   midi.NoteOffEvent(tick=480, channel=4, data=[27, 95]),
   midi.NoteOnEvent(tick=0, channel=4, data=[27, 95]),
   midi.NoteOffEvent(tick=480, channel=4, data=[27, 95]),
   midi.NoteOnEvent(tick=0, channel=4, data=[27, 95]),
   midi.NoteOffEvent(tick=480, channel=4, data=[27, 95]),
   midi.NoteOnEvent(tick=0, channel=4, data=[27, 95]),
   midi.NoteOffEvent(tick=480, channel=4, data=[27, 95]),
   midi.NoteOnEvent(tick=0, channel=4, data=[31, 95]),
   midi.NoteOffEvent(tick=480, channel=4, data=[31, 95]),
   midi.NoteOnEvent(tick=0, channel=4, data=[32, 95]),
   midi.NoteOffEvent(tick=480, channel=4, data=[32, 95]),
   midi.NoteOnEvent(tick=0, channel=4, data=[35, 95]),
   midi.NoteOffEvent(tick=480, channel=4, data=[35, 95]),
   midi.NoteOnEvent(tick=0, channel=4, data=[34, 95]),
   midi.NoteOffEvent(tick=480, channel=4, data=[34, 95]),
   midi.NoteOnEvent(tick=0, channel=4, data=[33, 95]),
   midi.NoteOffEvent(tick=480, channel=4, data=[33, 95]),
   midi.NoteOnEvent(tick=0, channel=4, data=[32, 95]),
   midi.NoteOffEvent(tick=480, channel=4, data=[32, 95]),
   midi.NoteOnEvent(tick=7680, channel=4, data=[39, 95]),
   midi.NoteOffEvent(tick=480, channel=4, data=[39, 95]),
   midi.NoteOnEvent(tick=0, channel=4, data=[39, 95]),
   midi.NoteOffEvent(tick=480, channel=4, data=[39, 95]),
   midi.NoteOnEvent(tick=0, channel=4, data=[39, 95]),
   midi.NoteOffEvent(tick=480, channel=4, data=[39, 95]),
   midi.NoteOnEvent(tick=0, channel=4, data=[39, 95]),
   midi.NoteOffEvent(tick=480, channel=4, data=[39, 95]),
   midi.NoteOnEvent(tick=0, channel=4, data=[39, 95]),
   midi.NoteOffEvent(tick=480, channel=4, data=[39, 95]),
   midi.NoteOnEvent(tick=0, channel=4, data=[39, 95]),
   midi.NoteOffEvent(tick=480, channel=4, data=[39, 95]),
   midi.NoteOnEvent(tick=0, channel=4, data=[39, 95]),
   midi.NoteOffEvent(tick=480, channel=4, data=[39, 95]),
   midi.NoteOnEvent(tick=0, channel=4, data=[39, 95]),
   midi.NoteOffEvent(tick=480, channel=4, data=[39, 95]),
   midi.NoteOnEvent(tick=0, channel=4, data=[39, 95]),
   midi.NoteOffEvent(tick=240, channel=4, data=[39, 95]),
   midi.NoteOnEvent(tick=0, channel=4, data=[39, 95]),
   midi.NoteOffEvent(tick=240, channel=4, data=[39, 95]),
   midi.NoteOnEvent(tick=0, channel=4, data=[39, 95]),
   midi.NoteOffEvent(tick=480, channel=4, data=[39, 95]),
   midi.NoteOnEvent(tick=0, channel=4, data=[39, 95]),
   midi.NoteOffEvent(tick=480, channel=4, data=[39, 95]),
   midi.NoteOnEvent(tick=0, channel=4, data=[39, 95]),
   midi.NoteOffEvent(tick=240, channel=4, data=[39, 95]),
   midi.NoteOnEvent(tick=0, channel=4, data=[39, 95]),
   midi.NoteOffEvent(tick=240, channel=4, data=[39, 95]),
   midi.NoteOnEvent(tick=0, channel=4, data=[39, 95]),
   midi.NoteOffEvent(tick=480, channel=4, data=[39, 95]),
   midi.NoteOnEvent(tick=0, channel=4, data=[39, 95]),
   midi.NoteOffEvent(tick=480, channel=4, data=[39, 95]),
   midi.NoteOnEvent(tick=0, channel=4, data=[39, 95]),
   midi.NoteOffEvent(tick=240, channel=4, data=[39, 95]),
   midi.NoteOnEvent(tick=0, channel=4, data=[39, 95]),
   midi.NoteOffEvent(tick=240, channel=4, data=[39, 95]),
   midi.NoteOnEvent(tick=0, channel=4, data=[39, 95]),
   midi.NoteOffEvent(tick=480, channel=4, data=[39, 95]),
   midi.NoteOnEvent(tick=0, channel=4, data=[39, 95]),
   midi.NoteOffEvent(tick=480, channel=4, data=[39, 95]),
   midi.NoteOnEvent(tick=0, channel=4, data=[39, 95]),
   midi.NoteOffEvent(tick=480, channel=4, data=[39, 95]),
   midi.NoteOnEvent(tick=0, channel=4, data=[39, 95]),
   midi.NoteOffEvent(tick=480, channel=4, data=[39, 95]),
   midi.NoteOnEvent(tick=0, channel=4, data=[39, 95]),
   midi.NoteOffEvent(tick=480, channel=4, data=[39, 95]),
   midi.NoteOnEvent(tick=0, channel=4, data=[39, 95]),
   midi.NoteOffEvent(tick=480, channel=4, data=[39, 95]),
   midi.NoteOnEvent(tick=0, channel=4, data=[39, 95]),
   midi.NoteOffEvent(tick=480, channel=4, data=[39, 95]),
   midi.NoteOnEvent(tick=0, channel=4, data=[39, 95]),
   midi.NoteOffEvent(tick=480, channel=4, data=[39, 95]),
   midi.NoteOnEvent(tick=0, channel=4, data=[39, 95]),
   midi.NoteOffEvent(tick=480, channel=4, data=[39, 95]),
   midi.NoteOnEvent(tick=0, channel=4, data=[39, 95]),
   midi.NoteOffEvent(tick=240, channel=4, data=[39, 95]),
   midi.NoteOnEvent(tick=0, channel=4, data=[39, 95]),
   midi.NoteOffEvent(tick=240, channel=4, data=[39, 95]),
   midi.NoteOnEvent(tick=0, channel=4, data=[39, 95]),
   midi.NoteOffEvent(tick=480, channel=4, data=[39, 95]),
   midi.NoteOnEvent(tick=0, channel=4, data=[39, 95]),
   midi.NoteOffEvent(tick=480, channel=4, data=[39, 95]),
   midi.NoteOnEvent(tick=0, channel=4, data=[39, 95]),
   midi.NoteOffEvent(tick=240, channel=4, data=[39, 95]),
   midi.NoteOnEvent(tick=0, channel=4, data=[39, 95]),
   midi.NoteOffEvent(tick=240, channel=4, data=[39, 95]),
   midi.NoteOnEvent(tick=0, channel=4, data=[39, 95]),
   midi.NoteOffEvent(tick=480, channel=4, data=[39, 95]),
   midi.NoteOnEvent(tick=0, channel=4, data=[39, 95]),
   midi.NoteOffEvent(tick=480, channel=4, data=[39, 95]),
   midi.NoteOnEvent(tick=0, channel=4, data=[39, 95]),
   midi.NoteOffEvent(tick=240, channel=4, data=[39, 95]),
   midi.NoteOnEvent(tick=0, channel=4, data=[39, 95]),
   midi.NoteOffEvent(tick=240, channel=4, data=[39, 95]),
   midi.NoteOnEvent(tick=0, channel=4, data=[39, 95]),
   midi.NoteOffEvent(tick=480, channel=4, data=[39, 95]),
   midi.NoteOnEvent(tick=0, channel=4, data=[39, 95]),
   midi.NoteOffEvent(tick=480, channel=4, data=[39, 95]),
   midi.NoteOnEvent(tick=0, channel=4, data=[39, 95]),
   midi.NoteOffEvent(tick=480, channel=4, data=[39, 95]),
   midi.NoteOnEvent(tick=0, channel=4, data=[39, 95]),
   midi.NoteOffEvent(tick=480, channel=4, data=[39, 95]),
   midi.NoteOnEvent(tick=0, channel=4, data=[39, 95]),
   midi.NoteOffEvent(tick=480, channel=4, data=[39, 95]),
   midi.NoteOnEvent(tick=0, channel=4, data=[39, 95]),
   midi.NoteOffEvent(tick=480, channel=4, data=[39, 95]),
   midi.NoteOnEvent(tick=0, channel=4, data=[39, 95]),
   midi.NoteOffEvent(tick=480, channel=4, data=[39, 95]),
   midi.NoteOnEvent(tick=0, channel=4, data=[39, 95]),
   midi.NoteOffEvent(tick=480, channel=4, data=[39, 95]),
   midi.NoteOnEvent(tick=0, channel=4, data=[39, 95]),
   midi.NoteOffEvent(tick=480, channel=4, data=[39, 95]),
   midi.NoteOnEvent(tick=0, channel=4, data=[39, 95]),
   midi.NoteOffEvent(tick=240, channel=4, data=[39, 95]),
   midi.NoteOnEvent(tick=0, channel=4, data=[39, 95]),
   midi.NoteOffEvent(tick=240, channel=4, data=[39, 95]),
   midi.NoteOnEvent(tick=0, channel=4, data=[39, 95]),
   midi.NoteOffEvent(tick=480, channel=4, data=[39, 95]),
   midi.NoteOnEvent(tick=0, channel=4, data=[39, 95]),
   midi.NoteOffEvent(tick=480, channel=4, data=[39, 95]),
   midi.NoteOnEvent(tick=0, channel=4, data=[39, 95]),
   midi.NoteOffEvent(tick=240, channel=4, data=[39, 95]),
   midi.NoteOnEvent(tick=0, channel=4, data=[39, 95]),
   midi.NoteOffEvent(tick=240, channel=4, data=[39, 95]),
   midi.NoteOnEvent(tick=0, channel=4, data=[39, 95]),
   midi.NoteOffEvent(tick=480, channel=4, data=[39, 95]),
   midi.NoteOnEvent(tick=0, channel=4, data=[39, 95]),
   midi.NoteOffEvent(tick=480, channel=4, data=[39, 95]),
   midi.NoteOnEvent(tick=0, channel=4, data=[39, 95]),
   midi.NoteOffEvent(tick=240, channel=4, data=[39, 95]),
   midi.NoteOnEvent(tick=0, channel=4, data=[39, 95]),
   midi.NoteOffEvent(tick=240, channel=4, data=[39, 95]),
   midi.NoteOnEvent(tick=0, channel=4, data=[39, 95]),
   midi.NoteOffEvent(tick=480, channel=4, data=[39, 95]),
   midi.NoteOnEvent(tick=0, channel=4, data=[39, 95]),
   midi.NoteOffEvent(tick=480, channel=4, data=[39, 95]),
   midi.NoteOnEvent(tick=0, channel=4, data=[39, 95]),
   midi.NoteOffEvent(tick=480, channel=4, data=[39, 95]),
   midi.NoteOnEvent(tick=0, channel=4, data=[39, 95]),
   midi.NoteOffEvent(tick=480, channel=4, data=[39, 95]),
   midi.NoteOnEvent(tick=0, channel=4, data=[39, 95]),
   midi.NoteOffEvent(tick=480, channel=4, data=[39, 95]),
   midi.NoteOnEvent(tick=0, channel=4, data=[39, 95]),
   midi.NoteOffEvent(tick=480, channel=4, data=[39, 95]),
   midi.NoteOnEvent(tick=0, channel=4, data=[39, 95]),
   midi.NoteOffEvent(tick=480, channel=4, data=[39, 95]),
   midi.NoteOnEvent(tick=0, channel=4, data=[39, 95]),
   midi.NoteOffEvent(tick=480, channel=4, data=[39, 95]),
   midi.NoteOnEvent(tick=0, channel=4, data=[39, 95]),
   midi.NoteOffEvent(tick=480, channel=4, data=[39, 95]),
   midi.NoteOnEvent(tick=0, channel=4, data=[39, 95]),
   midi.NoteOffEvent(tick=240, channel=4, data=[39, 95]),
   midi.NoteOnEvent(tick=0, channel=4, data=[39, 95]),
   midi.NoteOffEvent(tick=240, channel=4, data=[39, 95]),
   midi.NoteOnEvent(tick=0, channel=4, data=[39, 95]),
   midi.NoteOffEvent(tick=480, channel=4, data=[39, 95]),
   midi.NoteOnEvent(tick=0, channel=4, data=[39, 95]),
   midi.NoteOffEvent(tick=480, channel=4, data=[39, 95]),
   midi.NoteOnEvent(tick=0, channel=4, data=[39, 95]),
   midi.NoteOffEvent(tick=240, channel=4, data=[39, 95]),
   midi.NoteOnEvent(tick=0, channel=4, data=[39, 95]),
   midi.NoteOffEvent(tick=240, channel=4, data=[39, 95]),
   midi.NoteOnEvent(tick=0, channel=4, data=[39, 95]),
   midi.NoteOffEvent(tick=480, channel=4, data=[39, 95]),
   midi.NoteOnEvent(tick=0, channel=4, data=[39, 95]),
   midi.NoteOffEvent(tick=480, channel=4, data=[39, 95]),
   midi.NoteOnEvent(tick=0, channel=4, data=[39, 95]),
   midi.NoteOffEvent(tick=240, channel=4, data=[39, 95]),
   midi.NoteOnEvent(tick=0, channel=4, data=[39, 95]),
   midi.NoteOffEvent(tick=240, channel=4, data=[39, 95]),
   midi.NoteOnEvent(tick=0, channel=4, data=[39, 95]),
   midi.NoteOffEvent(tick=480, channel=4, data=[39, 95]),
   midi.NoteOnEvent(tick=0, channel=4, data=[39, 95]),
   midi.NoteOffEvent(tick=480, channel=4, data=[39, 95]),
   midi.NoteOnEvent(tick=0, channel=4, data=[39, 95]),
   midi.NoteOffEvent(tick=480, channel=4, data=[39, 95]),
   midi.NoteOnEvent(tick=0, channel=4, data=[39, 95]),
   midi.NoteOffEvent(tick=480, channel=4, data=[39, 95]),
   midi.NoteOnEvent(tick=0, channel=4, data=[39, 95]),
   midi.NoteOffEvent(tick=480, channel=4, data=[39, 95]),
   midi.NoteOnEvent(tick=0, channel=4, data=[39, 95]),
   midi.NoteOffEvent(tick=480, channel=4, data=[39, 95]),
   midi.NoteOnEvent(tick=0, channel=4, data=[39, 95]),
   midi.NoteOffEvent(tick=480, channel=4, data=[39, 95]),
   midi.NoteOnEvent(tick=0, channel=4, data=[39, 95]),
   midi.NoteOffEvent(tick=480, channel=4, data=[39, 95]),
   midi.NoteOnEvent(tick=0, channel=4, data=[39, 95]),
   midi.NoteOffEvent(tick=480, channel=4, data=[39, 95]),
   midi.NoteOnEvent(tick=0, channel=4, data=[39, 95]),
   midi.NoteOffEvent(tick=240, channel=4, data=[39, 95]),
   midi.NoteOnEvent(tick=0, channel=4, data=[39, 95]),
   midi.NoteOffEvent(tick=240, channel=4, data=[39, 95]),
   midi.NoteOnEvent(tick=0, channel=4, data=[39, 95]),
   midi.NoteOffEvent(tick=480, channel=4, data=[39, 95]),
   midi.NoteOnEvent(tick=0, channel=4, data=[39, 95]),
   midi.NoteOffEvent(tick=480, channel=4, data=[39, 95]),
   midi.NoteOnEvent(tick=0, channel=4, data=[39, 95]),
   midi.NoteOffEvent(tick=240, channel=4, data=[39, 95]),
   midi.NoteOnEvent(tick=0, channel=4, data=[39, 95]),
   midi.NoteOffEvent(tick=240, channel=4, data=[39, 95]),
   midi.NoteOnEvent(tick=0, channel=4, data=[39, 95]),
   midi.NoteOffEvent(tick=480, channel=4, data=[39, 95]),
   midi.NoteOnEvent(tick=0, channel=4, data=[39, 95]),
   midi.NoteOffEvent(tick=480, channel=4, data=[39, 95]),
   midi.NoteOnEvent(tick=0, channel=4, data=[39, 95]),
   midi.NoteOffEvent(tick=240, channel=4, data=[39, 95]),
   midi.NoteOnEvent(tick=0, channel=4, data=[39, 95]),
   midi.NoteOffEvent(tick=240, channel=4, data=[39, 95]),
   midi.NoteOnEvent(tick=0, channel=4, data=[39, 95]),
   midi.NoteOffEvent(tick=480, channel=4, data=[39, 95]),
   midi.NoteOnEvent(tick=0, channel=4, data=[39, 95]),
   midi.NoteOffEvent(tick=480, channel=4, data=[39, 95]),
   midi.NoteOnEvent(tick=0, channel=4, data=[39, 95]),
   midi.NoteOffEvent(tick=480, channel=4, data=[39, 95]),
   midi.NoteOnEvent(tick=0, channel=4, data=[39, 95]),
   midi.NoteOffEvent(tick=480, channel=4, data=[39, 95]),
   midi.NoteOnEvent(tick=0, channel=4, data=[39, 95]),
   midi.NoteOffEvent(tick=480, channel=4, data=[39, 95]),
   midi.NoteOnEvent(tick=0, channel=4, data=[39, 95]),
   midi.NoteOffEvent(tick=480, channel=4, data=[39, 95]),
   midi.NoteOnEvent(tick=0, channel=4, data=[39, 95]),
   midi.NoteOffEvent(tick=480, channel=4, data=[39, 95]),
   midi.NoteOnEvent(tick=0, channel=4, data=[39, 95]),
   midi.NoteOffEvent(tick=480, channel=4, data=[39, 95]),
   midi.NoteOnEvent(tick=0, channel=4, data=[39, 95]),
   midi.NoteOffEvent(tick=480, channel=4, data=[39, 95]),
   midi.NoteOnEvent(tick=0, channel=4, data=[39, 95]),
   midi.NoteOffEvent(tick=240, channel=4, data=[39, 95]),
   midi.NoteOnEvent(tick=0, channel=4, data=[39, 95]),
   midi.NoteOffEvent(tick=240, channel=4, data=[39, 95]),
   midi.NoteOnEvent(tick=0, channel=4, data=[39, 95]),
   midi.NoteOffEvent(tick=480, channel=4, data=[39, 95]),
   midi.NoteOnEvent(tick=0, channel=4, data=[39, 95]),
   midi.NoteOffEvent(tick=480, channel=4, data=[39, 95]),
   midi.NoteOnEvent(tick=0, channel=4, data=[39, 95]),
   midi.NoteOffEvent(tick=240, channel=4, data=[39, 95]),
   midi.NoteOnEvent(tick=0, channel=4, data=[39, 95]),
   midi.NoteOffEvent(tick=240, channel=4, data=[39, 95]),
   midi.NoteOnEvent(tick=0, channel=4, data=[39, 95]),
   midi.NoteOffEvent(tick=480, channel=4, data=[39, 95]),
   midi.NoteOnEvent(tick=0, channel=4, data=[39, 95]),
   midi.NoteOffEvent(tick=480, channel=4, data=[39, 95]),
   midi.NoteOnEvent(tick=0, channel=4, data=[39, 95]),
   midi.NoteOffEvent(tick=240, channel=4, data=[39, 95]),
   midi.NoteOnEvent(tick=0, channel=4, data=[39, 95]),
   midi.NoteOffEvent(tick=240, channel=4, data=[39, 95]),
   midi.NoteOnEvent(tick=0, channel=4, data=[39, 95]),
   midi.NoteOffEvent(tick=480, channel=4, data=[39, 95]),
   midi.NoteOnEvent(tick=3840, channel=4, data=[36, 95]),
   midi.NoteOffEvent(tick=480, channel=4, data=[36, 95]),
   midi.NoteOnEvent(tick=0, channel=4, data=[36, 95]),
   midi.NoteOffEvent(tick=480, channel=4, data=[36, 95]),
   midi.NoteOnEvent(tick=0, channel=4, data=[36, 95]),
   midi.NoteOffEvent(tick=480, channel=4, data=[36, 95]),
   midi.NoteOnEvent(tick=0, channel=4, data=[36, 95]),
   midi.NoteOffEvent(tick=480, channel=4, data=[36, 95]),
   midi.NoteOnEvent(tick=0, channel=4, data=[36, 95]),
   midi.NoteOffEvent(tick=480, channel=4, data=[36, 95]),
   midi.NoteOnEvent(tick=0, channel=4, data=[36, 95]),
   midi.NoteOffEvent(tick=480, channel=4, data=[36, 95]),
   midi.NoteOnEvent(tick=0, channel=4, data=[36, 95]),
   midi.NoteOffEvent(tick=480, channel=4, data=[36, 95]),
   midi.NoteOnEvent(tick=0, channel=4, data=[36, 95]),
   midi.NoteOffEvent(tick=480, channel=4, data=[36, 95]),
   midi.NoteOnEvent(tick=0, channel=4, data=[36, 95]),
   midi.NoteOffEvent(tick=480, channel=4, data=[36, 95]),
   midi.NoteOnEvent(tick=0, channel=4, data=[36, 95]),
   midi.NoteOffEvent(tick=480, channel=4, data=[36, 95]),
   midi.NoteOnEvent(tick=0, channel=4, data=[36, 95]),
   midi.NoteOffEvent(tick=480, channel=4, data=[36, 95]),
   midi.NoteOnEvent(tick=0, channel=4, data=[36, 95]),
   midi.NoteOffEvent(tick=480, channel=4, data=[36, 95]),
   midi.NoteOnEvent(tick=0, channel=4, data=[42, 95]),
   midi.NoteOffEvent(tick=640, channel=4, data=[42, 95]),
   midi.NoteOnEvent(tick=0, channel=4, data=[37, 95]),
   midi.NoteOffEvent(tick=640, channel=4, data=[37, 95]),
   midi.NoteOnEvent(tick=0, channel=4, data=[39, 95]),
   midi.NoteOffEvent(tick=640, channel=4, data=[39, 95]),
   midi.NoteOnEvent(tick=0, channel=4, data=[36, 95]),
   midi.NoteOffEvent(tick=480, channel=4, data=[36, 95]),
   midi.NoteOnEvent(tick=0, channel=4, data=[36, 95]),
   midi.NoteOffEvent(tick=480, channel=4, data=[36, 95]),
   midi.NoteOnEvent(tick=0, channel=4, data=[36, 95]),
   midi.NoteOffEvent(tick=480, channel=4, data=[36, 95]),
   midi.NoteOnEvent(tick=0, channel=4, data=[36, 95]),
   midi.NoteOffEvent(tick=480, channel=4, data=[36, 95]),
   midi.NoteOnEvent(tick=0, channel=4, data=[36, 95]),
   midi.NoteOffEvent(tick=480, channel=4, data=[36, 95]),
   midi.NoteOnEvent(tick=0, channel=4, data=[36, 95]),
   midi.NoteOffEvent(tick=480, channel=4, data=[36, 95]),
   midi.NoteOnEvent(tick=0, channel=4, data=[36, 95]),
   midi.NoteOffEvent(tick=480, channel=4, data=[36, 95]),
   midi.NoteOnEvent(tick=0, channel=4, data=[36, 95]),
   midi.NoteOffEvent(tick=480, channel=4, data=[36, 95]),
   midi.NoteOnEvent(tick=0, channel=4, data=[36, 95]),
   midi.NoteOffEvent(tick=480, channel=4, data=[36, 95]),
   midi.NoteOnEvent(tick=0, channel=4, data=[36, 95]),
   midi.NoteOffEvent(tick=480, channel=4, data=[36, 95]),
   midi.NoteOnEvent(tick=0, channel=4, data=[36, 95]),
   midi.NoteOffEvent(tick=480, channel=4, data=[36, 95]),
   midi.NoteOnEvent(tick=0, channel=4, data=[36, 95]),
   midi.NoteOffEvent(tick=480, channel=4, data=[36, 95]),
   midi.NoteOnEvent(tick=0, channel=4, data=[42, 95]),
   midi.NoteOffEvent(tick=640, channel=4, data=[42, 95]),
   midi.NoteOnEvent(tick=0, channel=4, data=[37, 95]),
   midi.NoteOffEvent(tick=640, channel=4, data=[37, 95]),
   midi.NoteOnEvent(tick=0, channel=4, data=[39, 95]),
   midi.NoteOffEvent(tick=640, channel=4, data=[39, 95]),
   midi.NoteOnEvent(tick=0, channel=4, data=[36, 95]),
   midi.NoteOffEvent(tick=480, channel=4, data=[36, 95]),
   midi.NoteOnEvent(tick=0, channel=4, data=[36, 95]),
   midi.NoteOffEvent(tick=480, channel=4, data=[36, 95]),
   midi.NoteOnEvent(tick=0, channel=4, data=[36, 95]),
   midi.NoteOffEvent(tick=480, channel=4, data=[36, 95]),
   midi.NoteOnEvent(tick=0, channel=4, data=[36, 95]),
   midi.NoteOffEvent(tick=480, channel=4, data=[36, 95]),
   midi.NoteOnEvent(tick=0, channel=4, data=[36, 95]),
   midi.NoteOffEvent(tick=480, channel=4, data=[36, 95]),
   midi.NoteOnEvent(tick=0, channel=4, data=[36, 95]),
   midi.NoteOffEvent(tick=480, channel=4, data=[36, 95]),
   midi.NoteOnEvent(tick=0, channel=4, data=[36, 95]),
   midi.NoteOffEvent(tick=480, channel=4, data=[36, 95]),
   midi.NoteOnEvent(tick=0, channel=4, data=[36, 95]),
   midi.NoteOffEvent(tick=480, channel=4, data=[36, 95]),
   midi.NoteOnEvent(tick=0, channel=4, data=[36, 95]),
   midi.NoteOffEvent(tick=480, channel=4, data=[36, 95]),
   midi.NoteOnEvent(tick=0, channel=4, data=[36, 95]),
   midi.NoteOffEvent(tick=480, channel=4, data=[36, 95]),
   midi.NoteOnEvent(tick=0, channel=4, data=[36, 95]),
   midi.NoteOffEvent(tick=480, channel=4, data=[36, 95]),
   midi.NoteOnEvent(tick=0, channel=4, data=[36, 95]),
   midi.NoteOffEvent(tick=480, channel=4, data=[36, 95]),
   midi.NoteOnEvent(tick=0, channel=4, data=[42, 95]),
   midi.NoteOffEvent(tick=640, channel=4, data=[42, 95]),
   midi.NoteOnEvent(tick=0, channel=4, data=[37, 95]),
   midi.NoteOffEvent(tick=640, channel=4, data=[37, 95]),
   midi.NoteOnEvent(tick=0, channel=4, data=[39, 95]),
   midi.NoteOffEvent(tick=640, channel=4, data=[39, 95]),
   midi.NoteOnEvent(tick=0, channel=4, data=[36, 95]),
   midi.NoteOffEvent(tick=480, channel=4, data=[36, 95]),
   midi.NoteOnEvent(tick=0, channel=4, data=[36, 95]),
   midi.NoteOffEvent(tick=480, channel=4, data=[36, 95]),
   midi.NoteOnEvent(tick=0, channel=4, data=[36, 95]),
   midi.NoteOffEvent(tick=480, channel=4, data=[36, 95]),
   midi.NoteOnEvent(tick=0, channel=4, data=[36, 95]),
   midi.NoteOffEvent(tick=480, channel=4, data=[36, 95]),
   midi.NoteOnEvent(tick=0, channel=4, data=[36, 95]),
   midi.NoteOffEvent(tick=480, channel=4, data=[36, 95]),
   midi.NoteOnEvent(tick=0, channel=4, data=[36, 95]),
   midi.NoteOffEvent(tick=480, channel=4, data=[36, 95]),
   midi.NoteOnEvent(tick=0, channel=4, data=[36, 95]),
   midi.NoteOffEvent(tick=480, channel=4, data=[36, 95]),
   midi.NoteOnEvent(tick=0, channel=4, data=[36, 95]),
   midi.NoteOffEvent(tick=480, channel=4, data=[36, 95]),
   midi.NoteOnEvent(tick=0, channel=4, data=[42, 95]),
   midi.NoteOffEvent(tick=640, channel=4, data=[42, 95]),
   midi.NoteOnEvent(tick=0, channel=4, data=[41, 95]),
   midi.NoteOffEvent(tick=640, channel=4, data=[41, 95]),
   midi.NoteOnEvent(tick=0, channel=4, data=[40, 95]),
   midi.NoteOffEvent(tick=640, channel=4, data=[40, 95]),
   midi.NoteOnEvent(tick=0, channel=4, data=[37, 95]),
   midi.NoteOffEvent(tick=640, channel=4, data=[37, 95]),
   midi.NoteOnEvent(tick=0, channel=4, data=[38, 95]),
   midi.NoteOffEvent(tick=640, channel=4, data=[38, 95]),
   midi.NoteOnEvent(tick=0, channel=4, data=[37, 95]),
   midi.NoteOffEvent(tick=640, channel=4, data=[37, 95]),
   midi.NoteOnEvent(tick=0, channel=4, data=[36, 95]),
   midi.NoteOffEvent(tick=480, channel=4, data=[36, 95]),
   midi.NoteOnEvent(tick=0, channel=4, data=[36, 95]),
   midi.NoteOffEvent(tick=480, channel=4, data=[36, 95]),
   midi.NoteOnEvent(tick=0, channel=4, data=[36, 95]),
   midi.NoteOffEvent(tick=480, channel=4, data=[36, 95]),
   midi.NoteOnEvent(tick=0, channel=4, data=[36, 95]),
   midi.NoteOffEvent(tick=480, channel=4, data=[36, 95]),
   midi.NoteOnEvent(tick=0, channel=4, data=[36, 95]),
   midi.NoteOffEvent(tick=480, channel=4, data=[36, 95]),
   midi.NoteOnEvent(tick=0, channel=4, data=[36, 95]),
   midi.NoteOffEvent(tick=480, channel=4, data=[36, 95]),
   midi.NoteOnEvent(tick=0, channel=4, data=[36, 95]),
   midi.NoteOffEvent(tick=480, channel=4, data=[36, 95]),
   midi.NoteOnEvent(tick=0, channel=4, data=[36, 95]),
   midi.NoteOffEvent(tick=480, channel=4, data=[36, 95]),
   midi.NoteOnEvent(tick=0, channel=4, data=[36, 95]),
   midi.NoteOffEvent(tick=480, channel=4, data=[36, 95]),
   midi.NoteOnEvent(tick=0, channel=4, data=[36, 95]),
   midi.NoteOffEvent(tick=480, channel=4, data=[36, 95]),
   midi.NoteOnEvent(tick=0, channel=4, data=[36, 95]),
   midi.NoteOffEvent(tick=480, channel=4, data=[36, 95]),
   midi.NoteOnEvent(tick=0, channel=4, data=[36, 95]),
   midi.NoteOffEvent(tick=480, channel=4, data=[36, 95]),
   midi.NoteOnEvent(tick=0, channel=4, data=[42, 95]),
   midi.NoteOffEvent(tick=640, channel=4, data=[42, 95]),
   midi.NoteOnEvent(tick=0, channel=4, data=[37, 95]),
   midi.NoteOffEvent(tick=640, channel=4, data=[37, 95]),
   midi.NoteOnEvent(tick=0, channel=4, data=[39, 95]),
   midi.NoteOffEvent(tick=640, channel=4, data=[39, 95]),
   midi.NoteOnEvent(tick=0, channel=4, data=[36, 95]),
   midi.NoteOffEvent(tick=480, channel=4, data=[36, 95]),
   midi.NoteOnEvent(tick=0, channel=4, data=[36, 95]),
   midi.NoteOffEvent(tick=480, channel=4, data=[36, 95]),
   midi.NoteOnEvent(tick=0, channel=4, data=[36, 95]),
   midi.NoteOffEvent(tick=480, channel=4, data=[36, 95]),
   midi.NoteOnEvent(tick=0, channel=4, data=[36, 95]),
   midi.NoteOffEvent(tick=480, channel=4, data=[36, 95]),
   midi.NoteOnEvent(tick=0, channel=4, data=[36, 95]),
   midi.NoteOffEvent(tick=480, channel=4, data=[36, 95]),
   midi.NoteOnEvent(tick=0, channel=4, data=[36, 95]),
   midi.NoteOffEvent(tick=480, channel=4, data=[36, 95]),
   midi.NoteOnEvent(tick=0, channel=4, data=[36, 95]),
   midi.NoteOffEvent(tick=480, channel=4, data=[36, 95]),
   midi.NoteOnEvent(tick=0, channel=4, data=[36, 95]),
   midi.NoteOffEvent(tick=480, channel=4, data=[36, 95]),
   midi.NoteOnEvent(tick=0, channel=4, data=[36, 95]),
   midi.NoteOffEvent(tick=480, channel=4, data=[36, 95]),
   midi.NoteOnEvent(tick=0, channel=4, data=[36, 95]),
   midi.NoteOffEvent(tick=480, channel=4, data=[36, 95]),
   midi.NoteOnEvent(tick=0, channel=4, data=[36, 95]),
   midi.NoteOffEvent(tick=480, channel=4, data=[36, 95]),
   midi.NoteOnEvent(tick=0, channel=4, data=[36, 95]),
   midi.NoteOffEvent(tick=480, channel=4, data=[36, 95]),
   midi.NoteOnEvent(tick=0, channel=4, data=[42, 95]),
   midi.NoteOffEvent(tick=640, channel=4, data=[42, 95]),
   midi.NoteOnEvent(tick=0, channel=4, data=[37, 95]),
   midi.NoteOffEvent(tick=640, channel=4, data=[37, 95]),
   midi.NoteOnEvent(tick=0, channel=4, data=[39, 95]),
   midi.NoteOffEvent(tick=640, channel=4, data=[39, 95]),
   midi.NoteOnEvent(tick=0, channel=4, data=[36, 95]),
   midi.NoteOffEvent(tick=480, channel=4, data=[36, 95]),
   midi.NoteOnEvent(tick=0, channel=4, data=[36, 95]),
   midi.NoteOffEvent(tick=480, channel=4, data=[36, 95]),
   midi.NoteOnEvent(tick=0, channel=4, data=[36, 95]),
   midi.NoteOffEvent(tick=480, channel=4, data=[36, 95]),
   midi.NoteOnEvent(tick=0, channel=4, data=[36, 95]),
   midi.NoteOffEvent(tick=480, channel=4, data=[36, 95]),
   midi.NoteOnEvent(tick=0, channel=4, data=[36, 95]),
   midi.NoteOffEvent(tick=480, channel=4, data=[36, 95]),
   midi.NoteOnEvent(tick=0, channel=4, data=[36, 95]),
   midi.NoteOffEvent(tick=480, channel=4, data=[36, 95]),
   midi.NoteOnEvent(tick=0, channel=4, data=[36, 95]),
   midi.NoteOffEvent(tick=480, channel=4, data=[36, 95]),
   midi.NoteOnEvent(tick=0, channel=4, data=[36, 95]),
   midi.NoteOffEvent(tick=480, channel=4, data=[36, 95]),
   midi.NoteOnEvent(tick=0, channel=4, data=[36, 95]),
   midi.NoteOffEvent(tick=480, channel=4, data=[36, 95]),
   midi.NoteOnEvent(tick=0, channel=4, data=[36, 95]),
   midi.NoteOffEvent(tick=480, channel=4, data=[36, 95]),
   midi.NoteOnEvent(tick=0, channel=4, data=[36, 95]),
   midi.NoteOffEvent(tick=480, channel=4, data=[36, 95]),
   midi.NoteOnEvent(tick=0, channel=4, data=[36, 95]),
   midi.NoteOffEvent(tick=480, channel=4, data=[36, 95]),
   midi.NoteOnEvent(tick=0, channel=4, data=[42, 95]),
   midi.NoteOffEvent(tick=640, channel=4, data=[42, 95]),
   midi.NoteOnEvent(tick=0, channel=4, data=[37, 95]),
   midi.NoteOffEvent(tick=640, channel=4, data=[37, 95]),
   midi.NoteOnEvent(tick=0, channel=4, data=[39, 95]),
   midi.NoteOffEvent(tick=640, channel=4, data=[39, 95]),
   midi.NoteOnEvent(tick=0, channel=4, data=[36, 95]),
   midi.NoteOffEvent(tick=480, channel=4, data=[36, 95]),
   midi.NoteOnEvent(tick=0, channel=4, data=[36, 95]),
   midi.NoteOffEvent(tick=480, channel=4, data=[36, 95]),
   midi.NoteOnEvent(tick=0, channel=4, data=[36, 95]),
   midi.NoteOffEvent(tick=480, channel=4, data=[36, 95]),
   midi.NoteOnEvent(tick=0, channel=4, data=[36, 95]),
   midi.NoteOffEvent(tick=480, channel=4, data=[36, 95]),
   midi.NoteOnEvent(tick=0, channel=4, data=[36, 95]),
   midi.NoteOffEvent(tick=480, channel=4, data=[36, 95]),
   midi.NoteOnEvent(tick=0, channel=4, data=[36, 95]),
   midi.NoteOffEvent(tick=480, channel=4, data=[36, 95]),
   midi.NoteOnEvent(tick=0, channel=4, data=[36, 95]),
   midi.NoteOffEvent(tick=480, channel=4, data=[36, 95]),
   midi.NoteOnEvent(tick=0, channel=4, data=[36, 95]),
   midi.NoteOffEvent(tick=480, channel=4, data=[36, 95]),
   midi.NoteOnEvent(tick=0, channel=4, data=[42, 95]),
   midi.NoteOffEvent(tick=640, channel=4, data=[42, 95]),
   midi.NoteOnEvent(tick=0, channel=4, data=[41, 95]),
   midi.NoteOffEvent(tick=640, channel=4, data=[41, 95]),
   midi.NoteOnEvent(tick=0, channel=4, data=[40, 95]),
   midi.NoteOffEvent(tick=640, channel=4, data=[40, 95]),
   midi.NoteOnEvent(tick=0, channel=4, data=[37, 95]),
   midi.NoteOffEvent(tick=640, channel=4, data=[37, 95]),
   midi.NoteOnEvent(tick=0, channel=4, data=[38, 95]),
   midi.NoteOffEvent(tick=640, channel=4, data=[38, 95]),
   midi.NoteOnEvent(tick=0, channel=4, data=[37, 95]),
   midi.NoteOffEvent(tick=640, channel=4, data=[37, 95]),
   midi.NoteOnEvent(tick=0, channel=4, data=[31, 95]),
   midi.NoteOffEvent(tick=480, channel=4, data=[31, 95]),
   midi.NoteOnEvent(tick=0, channel=4, data=[31, 95]),
   midi.NoteOffEvent(tick=480, channel=4, data=[31, 95]),
   midi.NoteOnEvent(tick=0, channel=4, data=[31, 95]),
   midi.NoteOffEvent(tick=480, channel=4, data=[31, 95]),
   midi.NoteOnEvent(tick=0, channel=4, data=[31, 95]),
   midi.NoteOffEvent(tick=480, channel=4, data=[31, 95]),
   midi.NoteOnEvent(tick=0, channel=4, data=[31, 95]),
   midi.NoteOffEvent(tick=480, channel=4, data=[31, 95]),
   midi.NoteOnEvent(tick=0, channel=4, data=[31, 95]),
   midi.NoteOffEvent(tick=480, channel=4, data=[31, 95]),
   midi.NoteOnEvent(tick=0, channel=4, data=[31, 95]),
   midi.NoteOffEvent(tick=480, channel=4, data=[31, 95]),
   midi.NoteOnEvent(tick=0, channel=4, data=[31, 95]),
   midi.NoteOffEvent(tick=480, channel=4, data=[31, 95]),
   midi.NoteOnEvent(tick=0, channel=4, data=[37, 95]),
   midi.NoteOffEvent(tick=480, channel=4, data=[37, 95]),
   midi.NoteOnEvent(tick=0, channel=4, data=[37, 95]),
   midi.NoteOffEvent(tick=480, channel=4, data=[37, 95]),
   midi.NoteOnEvent(tick=0, channel=4, data=[32, 95]),
   midi.NoteOffEvent(tick=480, channel=4, data=[32, 95]),
   midi.NoteOnEvent(tick=0, channel=4, data=[32, 95]),
   midi.NoteOffEvent(tick=480, channel=4, data=[32, 95]),
   midi.NoteOnEvent(tick=0, channel=4, data=[34, 95]),
   midi.NoteOffEvent(tick=480, channel=4, data=[34, 95]),
   midi.NoteOnEvent(tick=0, channel=4, data=[34, 95]),
   midi.NoteOffEvent(tick=480, channel=4, data=[34, 95]),
   midi.NoteOnEvent(tick=0, channel=4, data=[34, 95]),
   midi.NoteOffEvent(tick=480, channel=4, data=[34, 95]),
   midi.NoteOnEvent(tick=0, channel=4, data=[34, 95]),
   midi.NoteOffEvent(tick=480, channel=4, data=[34, 95]),
   midi.NoteOnEvent(tick=0, channel=4, data=[29, 95]),
   midi.NoteOffEvent(tick=480, channel=4, data=[29, 95]),
   midi.NoteOnEvent(tick=0, channel=4, data=[29, 95]),
   midi.NoteOffEvent(tick=480, channel=4, data=[29, 95]),
   midi.NoteOnEvent(tick=0, channel=4, data=[29, 95]),
   midi.NoteOffEvent(tick=480, channel=4, data=[29, 95]),
   midi.NoteOnEvent(tick=0, channel=4, data=[29, 95]),
   midi.NoteOffEvent(tick=480, channel=4, data=[29, 95]),
   midi.NoteOnEvent(tick=0, channel=4, data=[31, 95]),
   midi.NoteOffEvent(tick=480, channel=4, data=[31, 95]),
   midi.NoteOnEvent(tick=0, channel=4, data=[31, 95]),
   midi.NoteOffEvent(tick=480, channel=4, data=[31, 95]),
   midi.NoteOnEvent(tick=0, channel=4, data=[31, 95]),
   midi.NoteOffEvent(tick=480, channel=4, data=[31, 95]),
   midi.NoteOnEvent(tick=0, channel=4, data=[31, 95]),
   midi.NoteOffEvent(tick=480, channel=4, data=[31, 95]),
   midi.NoteOnEvent(tick=0, channel=4, data=[31, 95]),
   midi.NoteOffEvent(tick=480, channel=4, data=[31, 95]),
   midi.NoteOnEvent(tick=0, channel=4, data=[31, 95]),
   midi.NoteOffEvent(tick=480, channel=4, data=[31, 95]),
   midi.NoteOnEvent(tick=0, channel=4, data=[31, 95]),
   midi.NoteOffEvent(tick=480, channel=4, data=[31, 95]),
   midi.NoteOnEvent(tick=0, channel=4, data=[31, 95]),
   midi.NoteOffEvent(tick=480, channel=4, data=[31, 95]),
   midi.NoteOnEvent(tick=0, channel=4, data=[37, 95]),
   midi.NoteOffEvent(tick=480, channel=4, data=[37, 95]),
   midi.NoteOnEvent(tick=0, channel=4, data=[37, 95]),
   midi.NoteOffEvent(tick=480, channel=4, data=[37, 95]),
   midi.NoteOnEvent(tick=0, channel=4, data=[32, 95]),
   midi.NoteOffEvent(tick=480, channel=4, data=[32, 95]),
   midi.NoteOnEvent(tick=0, channel=4, data=[32, 95]),
   midi.NoteOffEvent(tick=480, channel=4, data=[32, 95]),
   midi.NoteOnEvent(tick=0, channel=4, data=[34, 95]),
   midi.NoteOffEvent(tick=480, channel=4, data=[34, 95]),
   midi.NoteOnEvent(tick=0, channel=4, data=[34, 95]),
   midi.NoteOffEvent(tick=480, channel=4, data=[34, 95]),
   midi.NoteOnEvent(tick=0, channel=4, data=[34, 95]),
   midi.NoteOffEvent(tick=480, channel=4, data=[34, 95]),
   midi.NoteOnEvent(tick=0, channel=4, data=[34, 95]),
   midi.NoteOffEvent(tick=480, channel=4, data=[34, 95]),
   midi.NoteOnEvent(tick=0, channel=4, data=[29, 95]),
   midi.NoteOffEvent(tick=480, channel=4, data=[29, 95]),
   midi.NoteOnEvent(tick=0, channel=4, data=[29, 95]),
   midi.NoteOffEvent(tick=480, channel=4, data=[29, 95]),
   midi.NoteOnEvent(tick=0, channel=4, data=[29, 95]),
   midi.NoteOffEvent(tick=480, channel=4, data=[29, 95]),
   midi.NoteOnEvent(tick=0, channel=4, data=[29, 95]),
   midi.NoteOffEvent(tick=480, channel=4, data=[29, 95]),
   midi.NoteOnEvent(tick=0, channel=4, data=[31, 95]),
   midi.NoteOffEvent(tick=480, channel=4, data=[31, 95]),
   midi.NoteOnEvent(tick=0, channel=4, data=[31, 95]),
   midi.NoteOffEvent(tick=480, channel=4, data=[31, 95]),
   midi.NoteOnEvent(tick=0, channel=4, data=[31, 95]),
   midi.NoteOffEvent(tick=480, channel=4, data=[31, 95]),
   midi.NoteOnEvent(tick=0, channel=4, data=[31, 95]),
   midi.NoteOffEvent(tick=480, channel=4, data=[31, 95]),
   midi.NoteOnEvent(tick=0, channel=4, data=[31, 95]),
   midi.NoteOffEvent(tick=480, channel=4, data=[31, 95]),
   midi.NoteOnEvent(tick=0, channel=4, data=[31, 95]),
   midi.NoteOffEvent(tick=480, channel=4, data=[31, 95]),
   midi.NoteOnEvent(tick=0, channel=4, data=[31, 95]),
   midi.NoteOffEvent(tick=480, channel=4, data=[31, 95]),
   midi.NoteOnEvent(tick=0, channel=4, data=[31, 95]),
   midi.NoteOffEvent(tick=480, channel=4, data=[31, 95]),
   midi.NoteOnEvent(tick=0, channel=4, data=[37, 95]),
   midi.NoteOffEvent(tick=480, channel=4, data=[37, 95]),
   midi.NoteOnEvent(tick=0, channel=4, data=[37, 95]),
   midi.NoteOffEvent(tick=480, channel=4, data=[37, 95]),
   midi.NoteOnEvent(tick=0, channel=4, data=[32, 95]),
   midi.NoteOffEvent(tick=480, channel=4, data=[32, 95]),
   midi.NoteOnEvent(tick=0, channel=4, data=[32, 95]),
   midi.NoteOffEvent(tick=480, channel=4, data=[32, 95]),
   midi.NoteOnEvent(tick=0, channel=4, data=[34, 95]),
   midi.NoteOffEvent(tick=480, channel=4, data=[34, 95]),
   midi.NoteOnEvent(tick=0, channel=4, data=[34, 95]),
   midi.NoteOffEvent(tick=480, channel=4, data=[34, 95]),
   midi.NoteOnEvent(tick=0, channel=4, data=[34, 95]),
   midi.NoteOffEvent(tick=480, channel=4, data=[34, 95]),
   midi.NoteOnEvent(tick=0, channel=4, data=[34, 95]),
   midi.NoteOffEvent(tick=480, channel=4, data=[34, 95]),
   midi.NoteOnEvent(tick=0, channel=4, data=[29, 95]),
   midi.NoteOffEvent(tick=480, channel=4, data=[29, 95]),
   midi.NoteOnEvent(tick=0, channel=4, data=[29, 95]),
   midi.NoteOffEvent(tick=480, channel=4, data=[29, 95]),
   midi.NoteOnEvent(tick=0, channel=4, data=[29, 95]),
   midi.NoteOffEvent(tick=480, channel=4, data=[29, 95]),
   midi.NoteOnEvent(tick=0, channel=4, data=[29, 95]),
   midi.NoteOffEvent(tick=480, channel=4, data=[29, 95]),
   midi.NoteOnEvent(tick=0, channel=4, data=[31, 95]),
   midi.NoteOffEvent(tick=480, channel=4, data=[31, 95]),
   midi.NoteOnEvent(tick=0, channel=4, data=[31, 95]),
   midi.NoteOffEvent(tick=480, channel=4, data=[31, 95]),
   midi.NoteOnEvent(tick=0, channel=4, data=[31, 95]),
   midi.NoteOffEvent(tick=480, channel=4, data=[31, 95]),
   midi.NoteOnEvent(tick=0, channel=4, data=[31, 95]),
   midi.NoteOffEvent(tick=480, channel=4, data=[31, 95]),
   midi.NoteOnEvent(tick=0, channel=4, data=[31, 95]),
   midi.NoteOffEvent(tick=480, channel=4, data=[31, 95]),
   midi.NoteOnEvent(tick=0, channel=4, data=[31, 95]),
   midi.NoteOffEvent(tick=480, channel=4, data=[31, 95]),
   midi.NoteOnEvent(tick=0, channel=4, data=[31, 95]),
   midi.NoteOffEvent(tick=480, channel=4, data=[31, 95]),
   midi.NoteOnEvent(tick=0, channel=4, data=[31, 95]),
   midi.NoteOffEvent(tick=480, channel=4, data=[31, 95]),
   midi.NoteOnEvent(tick=0, channel=4, data=[37, 95]),
   midi.NoteOffEvent(tick=480, channel=4, data=[37, 95]),
   midi.NoteOnEvent(tick=0, channel=4, data=[37, 95]),
   midi.NoteOffEvent(tick=480, channel=4, data=[37, 95]),
   midi.NoteOnEvent(tick=0, channel=4, data=[32, 95]),
   midi.NoteOffEvent(tick=480, channel=4, data=[32, 95]),
   midi.NoteOnEvent(tick=0, channel=4, data=[32, 95]),
   midi.NoteOffEvent(tick=480, channel=4, data=[32, 95]),
   midi.NoteOnEvent(tick=0, channel=4, data=[34, 95]),
   midi.NoteOffEvent(tick=480, channel=4, data=[34, 95]),
   midi.NoteOnEvent(tick=0, channel=4, data=[34, 95]),
   midi.NoteOffEvent(tick=480, channel=4, data=[34, 95]),
   midi.NoteOnEvent(tick=0, channel=4, data=[34, 95]),
   midi.NoteOffEvent(tick=480, channel=4, data=[34, 95]),
   midi.NoteOnEvent(tick=0, channel=4, data=[34, 95]),
   midi.NoteOffEvent(tick=480, channel=4, data=[34, 95]),
   midi.NoteOnEvent(tick=0, channel=4, data=[29, 95]),
   midi.NoteOffEvent(tick=480, channel=4, data=[29, 95]),
   midi.NoteOnEvent(tick=0, channel=4, data=[29, 95]),
   midi.NoteOffEvent(tick=480, channel=4, data=[29, 95]),
   midi.NoteOnEvent(tick=0, channel=4, data=[29, 95]),
   midi.NoteOffEvent(tick=480, channel=4, data=[29, 95]),
   midi.NoteOnEvent(tick=0, channel=4, data=[29, 95]),
   midi.NoteOffEvent(tick=480, channel=4, data=[29, 95]),
   midi.NoteOnEvent(tick=0, channel=4, data=[27, 95]),
   midi.NoteOffEvent(tick=480, channel=4, data=[27, 95]),
   midi.NoteOnEvent(tick=0, channel=4, data=[27, 95]),
   midi.NoteOffEvent(tick=480, channel=4, data=[27, 95]),
   midi.NoteOnEvent(tick=0, channel=4, data=[27, 95]),
   midi.NoteOffEvent(tick=480, channel=4, data=[27, 95]),
   midi.NoteOnEvent(tick=0, channel=4, data=[27, 95]),
   midi.NoteOffEvent(tick=480, channel=4, data=[27, 95]),
   midi.NoteOnEvent(tick=0, channel=4, data=[27, 95]),
   midi.NoteOffEvent(tick=480, channel=4, data=[27, 95]),
   midi.NoteOnEvent(tick=0, channel=4, data=[27, 95]),
   midi.NoteOffEvent(tick=480, channel=4, data=[27, 95]),
   midi.NoteOnEvent(tick=0, channel=4, data=[27, 95]),
   midi.NoteOffEvent(tick=480, channel=4, data=[27, 95]),
   midi.NoteOnEvent(tick=0, channel=4, data=[27, 95]),
   midi.NoteOffEvent(tick=480, channel=4, data=[27, 95]),
   midi.NoteOnEvent(tick=0, channel=4, data=[30, 95]),
   midi.NoteOffEvent(tick=480, channel=4, data=[30, 95]),
   midi.NoteOnEvent(tick=0, channel=4, data=[30, 95]),
   midi.NoteOffEvent(tick=480, channel=4, data=[30, 95]),
   midi.NoteOnEvent(tick=0, channel=4, data=[30, 95]),
   midi.NoteOffEvent(tick=480, channel=4, data=[30, 95]),
   midi.NoteOnEvent(tick=0, channel=4, data=[30, 95]),
   midi.NoteOffEvent(tick=480, channel=4, data=[30, 95]),
   midi.NoteOnEvent(tick=0, channel=4, data=[28, 95]),
   midi.NoteOffEvent(tick=480, channel=4, data=[28, 95]),
   midi.NoteOnEvent(tick=0, channel=4, data=[28, 95]),
   midi.NoteOffEvent(tick=480, channel=4, data=[28, 95]),
   midi.NoteOnEvent(tick=0, channel=4, data=[28, 95]),
   midi.NoteOffEvent(tick=480, channel=4, data=[28, 95]),
   midi.NoteOnEvent(tick=0, channel=4, data=[28, 95]),
   midi.NoteOffEvent(tick=480, channel=4, data=[28, 95]),
   midi.NoteOnEvent(tick=0, channel=4, data=[27, 95]),
   midi.NoteOffEvent(tick=480, channel=4, data=[27, 95]),
   midi.NoteOnEvent(tick=0, channel=4, data=[27, 95]),
   midi.NoteOffEvent(tick=480, channel=4, data=[27, 95]),
   midi.NoteOnEvent(tick=0, channel=4, data=[27, 95]),
   midi.NoteOffEvent(tick=480, channel=4, data=[27, 95]),
   midi.NoteOnEvent(tick=0, channel=4, data=[27, 95]),
   midi.NoteOffEvent(tick=480, channel=4, data=[27, 95]),
   midi.NoteOnEvent(tick=0, channel=4, data=[27, 95]),
   midi.NoteOffEvent(tick=480, channel=4, data=[27, 95]),
   midi.NoteOnEvent(tick=0, channel=4, data=[27, 95]),
   midi.NoteOffEvent(tick=480, channel=4, data=[27, 95]),
   midi.NoteOnEvent(tick=0, channel=4, data=[27, 95]),
   midi.NoteOffEvent(tick=480, channel=4, data=[27, 95]),
   midi.NoteOnEvent(tick=0, channel=4, data=[27, 95]),
   midi.NoteOffEvent(tick=480, channel=4, data=[27, 95]),
   midi.NoteOnEvent(tick=0, channel=4, data=[30, 95]),
   midi.NoteOffEvent(tick=480, channel=4, data=[30, 95]),
   midi.NoteOnEvent(tick=0, channel=4, data=[30, 95]),
   midi.NoteOffEvent(tick=480, channel=4, data=[30, 95]),
   midi.NoteOnEvent(tick=0, channel=4, data=[30, 95]),
   midi.NoteOffEvent(tick=480, channel=4, data=[30, 95]),
   midi.NoteOnEvent(tick=0, channel=4, data=[30, 95]),
   midi.NoteOffEvent(tick=480, channel=4, data=[30, 95]),
   midi.NoteOnEvent(tick=0, channel=4, data=[28, 95]),
   midi.NoteOffEvent(tick=480, channel=4, data=[28, 95]),
   midi.NoteOnEvent(tick=0, channel=4, data=[28, 95]),
   midi.NoteOffEvent(tick=480, channel=4, data=[28, 95]),
   midi.NoteOnEvent(tick=0, channel=4, data=[28, 95]),
   midi.NoteOffEvent(tick=480, channel=4, data=[28, 95]),
   midi.NoteOnEvent(tick=0, channel=4, data=[28, 95]),
   midi.NoteOffEvent(tick=480, channel=4, data=[28, 95]),
   midi.NoteOnEvent(tick=0, channel=4, data=[27, 95]),
   midi.NoteOffEvent(tick=480, channel=4, data=[27, 95]),
   midi.NoteOnEvent(tick=0, channel=4, data=[27, 95]),
   midi.NoteOffEvent(tick=480, channel=4, data=[27, 95]),
   midi.NoteOnEvent(tick=0, channel=4, data=[27, 95]),
   midi.NoteOffEvent(tick=480, channel=4, data=[27, 95]),
   midi.NoteOnEvent(tick=0, channel=4, data=[27, 95]),
   midi.NoteOffEvent(tick=480, channel=4, data=[27, 95]),
   midi.NoteOnEvent(tick=0, channel=4, data=[27, 95]),
   midi.NoteOffEvent(tick=480, channel=4, data=[27, 95]),
   midi.NoteOnEvent(tick=0, channel=4, data=[27, 95]),
   midi.NoteOffEvent(tick=480, channel=4, data=[27, 95]),
   midi.NoteOnEvent(tick=0, channel=4, data=[27, 95]),
   midi.NoteOffEvent(tick=480, channel=4, data=[27, 95]),
   midi.NoteOnEvent(tick=0, channel=4, data=[27, 95]),
   midi.NoteOffEvent(tick=480, channel=4, data=[27, 95]),
   midi.NoteOnEvent(tick=0, channel=4, data=[30, 95]),
   midi.NoteOffEvent(tick=480, channel=4, data=[30, 95]),
   midi.NoteOnEvent(tick=0, channel=4, data=[30, 95]),
   midi.NoteOffEvent(tick=480, channel=4, data=[30, 95]),
   midi.NoteOnEvent(tick=0, channel=4, data=[30, 95]),
   midi.NoteOffEvent(tick=480, channel=4, data=[30, 95]),
   midi.NoteOnEvent(tick=0, channel=4, data=[30, 95]),
   midi.NoteOffEvent(tick=480, channel=4, data=[30, 95]),
   midi.NoteOnEvent(tick=0, channel=4, data=[28, 95]),
   midi.NoteOffEvent(tick=480, channel=4, data=[28, 95]),
   midi.NoteOnEvent(tick=0, channel=4, data=[28, 95]),
   midi.NoteOffEvent(tick=480, channel=4, data=[28, 95]),
   midi.NoteOnEvent(tick=0, channel=4, data=[28, 95]),
   midi.NoteOffEvent(tick=480, channel=4, data=[28, 95]),
   midi.NoteOnEvent(tick=0, channel=4, data=[28, 95]),
   midi.NoteOffEvent(tick=480, channel=4, data=[28, 95]),
   midi.NoteOnEvent(tick=0, channel=4, data=[27, 95]),
   midi.NoteOffEvent(tick=480, channel=4, data=[27, 95]),
   midi.NoteOnEvent(tick=0, channel=4, data=[27, 95]),
   midi.NoteOffEvent(tick=480, channel=4, data=[27, 95]),
   midi.NoteOnEvent(tick=0, channel=4, data=[27, 95]),
   midi.NoteOffEvent(tick=480, channel=4, data=[27, 95]),
   midi.NoteOnEvent(tick=0, channel=4, data=[27, 95]),
   midi.NoteOffEvent(tick=480, channel=4, data=[27, 95]),
   midi.NoteOnEvent(tick=0, channel=4, data=[27, 95]),
   midi.NoteOffEvent(tick=480, channel=4, data=[27, 95]),
   midi.NoteOnEvent(tick=0, channel=4, data=[27, 95]),
   midi.NoteOffEvent(tick=480, channel=4, data=[27, 95]),
   midi.NoteOnEvent(tick=0, channel=4, data=[27, 95]),
   midi.NoteOffEvent(tick=480, channel=4, data=[27, 95]),
   midi.NoteOnEvent(tick=0, channel=4, data=[27, 95]),
   midi.NoteOffEvent(tick=480, channel=4, data=[27, 95]),
   midi.NoteOnEvent(tick=0, channel=4, data=[30, 95]),
   midi.NoteOffEvent(tick=480, channel=4, data=[30, 95]),
   midi.NoteOnEvent(tick=0, channel=4, data=[30, 95]),
   midi.NoteOffEvent(tick=480, channel=4, data=[30, 95]),
   midi.NoteOnEvent(tick=0, channel=4, data=[30, 95]),
   midi.NoteOffEvent(tick=480, channel=4, data=[30, 95]),
   midi.NoteOnEvent(tick=0, channel=4, data=[30, 95]),
   midi.NoteOffEvent(tick=480, channel=4, data=[30, 95]),
   midi.NoteOnEvent(tick=0, channel=4, data=[28, 95]),
   midi.NoteOffEvent(tick=480, channel=4, data=[28, 95]),
   midi.NoteOnEvent(tick=0, channel=4, data=[28, 95]),
   midi.NoteOffEvent(tick=480, channel=4, data=[28, 95]),
   midi.NoteOnEvent(tick=0, channel=4, data=[28, 95]),
   midi.NoteOffEvent(tick=480, channel=4, data=[28, 95]),
   midi.NoteOnEvent(tick=0, channel=4, data=[28, 95]),
   midi.NoteOffEvent(tick=480, channel=4, data=[28, 95]),
   midi.NoteOnEvent(tick=0, channel=4, data=[27, 95]),
   midi.NoteOffEvent(tick=480, channel=4, data=[27, 95]),
   midi.NoteOnEvent(tick=0, channel=4, data=[27, 95]),
   midi.NoteOffEvent(tick=480, channel=4, data=[27, 95]),
   midi.NoteOnEvent(tick=0, channel=4, data=[27, 95]),
   midi.NoteOffEvent(tick=480, channel=4, data=[27, 95]),
   midi.NoteOnEvent(tick=0, channel=4, data=[27, 95]),
   midi.NoteOffEvent(tick=480, channel=4, data=[27, 95]),
   midi.NoteOnEvent(tick=0, channel=4, data=[27, 95]),
   midi.NoteOffEvent(tick=480, channel=4, data=[27, 95]),
   midi.NoteOnEvent(tick=0, channel=4, data=[27, 95]),
   midi.NoteOffEvent(tick=480, channel=4, data=[27, 95]),
   midi.NoteOnEvent(tick=0, channel=4, data=[27, 95]),
   midi.NoteOffEvent(tick=480, channel=4, data=[27, 95]),
   midi.NoteOnEvent(tick=0, channel=4, data=[27, 95]),
   midi.NoteOffEvent(tick=480, channel=4, data=[27, 95]),
   midi.NoteOnEvent(tick=0, channel=4, data=[30, 95]),
   midi.NoteOffEvent(tick=480, channel=4, data=[30, 95]),
   midi.NoteOnEvent(tick=0, channel=4, data=[30, 95]),
   midi.NoteOffEvent(tick=480, channel=4, data=[30, 95]),
   midi.NoteOnEvent(tick=0, channel=4, data=[30, 95]),
   midi.NoteOffEvent(tick=480, channel=4, data=[30, 95]),
   midi.NoteOnEvent(tick=0, channel=4, data=[30, 95]),
   midi.NoteOffEvent(tick=480, channel=4, data=[30, 95]),
   midi.NoteOnEvent(tick=0, channel=4, data=[28, 95]),
   midi.NoteOffEvent(tick=480, channel=4, data=[28, 95]),
   midi.NoteOnEvent(tick=0, channel=4, data=[28, 95]),
   midi.NoteOffEvent(tick=480, channel=4, data=[28, 95]),
   midi.NoteOnEvent(tick=0, channel=4, data=[28, 95]),
   midi.NoteOffEvent(tick=480, channel=4, data=[28, 95]),
   midi.NoteOnEvent(tick=0, channel=4, data=[28, 95]),
   midi.NoteOffEvent(tick=480, channel=4, data=[28, 95]),
   midi.NoteOnEvent(tick=0, channel=4, data=[27, 95]),
   midi.NoteOffEvent(tick=480, channel=4, data=[27, 95]),
   midi.NoteOnEvent(tick=0, channel=4, data=[27, 95]),
   midi.NoteOffEvent(tick=480, channel=4, data=[27, 95]),
   midi.NoteOnEvent(tick=0, channel=4, data=[27, 95]),
   midi.NoteOffEvent(tick=480, channel=4, data=[27, 95]),
   midi.NoteOnEvent(tick=0, channel=4, data=[27, 95]),
   midi.NoteOffEvent(tick=480, channel=4, data=[27, 95]),
   midi.NoteOnEvent(tick=0, channel=4, data=[27, 95]),
   midi.NoteOffEvent(tick=480, channel=4, data=[27, 95]),
   midi.NoteOnEvent(tick=0, channel=4, data=[27, 95]),
   midi.NoteOffEvent(tick=480, channel=4, data=[27, 95]),
   midi.NoteOnEvent(tick=0, channel=4, data=[27, 95]),
   midi.NoteOffEvent(tick=480, channel=4, data=[27, 95]),
   midi.NoteOnEvent(tick=0, channel=4, data=[27, 95]),
   midi.NoteOffEvent(tick=480, channel=4, data=[27, 95]),
   midi.NoteOnEvent(tick=0, channel=4, data=[30, 95]),
   midi.NoteOffEvent(tick=480, channel=4, data=[30, 95]),
   midi.NoteOnEvent(tick=0, channel=4, data=[30, 95]),
   midi.NoteOffEvent(tick=480, channel=4, data=[30, 95]),
   midi.NoteOnEvent(tick=0, channel=4, data=[30, 95]),
   midi.NoteOffEvent(tick=480, channel=4, data=[30, 95]),
   midi.NoteOnEvent(tick=0, channel=4, data=[30, 95]),
   midi.NoteOffEvent(tick=480, channel=4, data=[30, 95]),
   midi.NoteOnEvent(tick=0, channel=4, data=[28, 95]),
   midi.NoteOffEvent(tick=480, channel=4, data=[28, 95]),
   midi.NoteOnEvent(tick=0, channel=4, data=[28, 95]),
   midi.NoteOffEvent(tick=480, channel=4, data=[28, 95]),
   midi.NoteOnEvent(tick=0, channel=4, data=[28, 95]),
   midi.NoteOffEvent(tick=480, channel=4, data=[28, 95]),
   midi.NoteOnEvent(tick=0, channel=4, data=[28, 95]),
   midi.NoteOffEvent(tick=480, channel=4, data=[28, 95]),
   midi.NoteOnEvent(tick=0, channel=4, data=[27, 95]),
   midi.NoteOffEvent(tick=480, channel=4, data=[27, 95]),
   midi.NoteOnEvent(tick=0, channel=4, data=[27, 95]),
   midi.NoteOffEvent(tick=480, channel=4, data=[27, 95]),
   midi.NoteOnEvent(tick=0, channel=4, data=[27, 95]),
   midi.NoteOffEvent(tick=480, channel=4, data=[27, 95]),
   midi.NoteOnEvent(tick=0, channel=4, data=[27, 95]),
   midi.NoteOffEvent(tick=480, channel=4, data=[27, 95]),
   midi.NoteOnEvent(tick=0, channel=4, data=[27, 95]),
   midi.NoteOffEvent(tick=480, channel=4, data=[27, 95]),
   midi.NoteOnEvent(tick=0, channel=4, data=[27, 95]),
   midi.NoteOffEvent(tick=480, channel=4, data=[27, 95]),
   midi.NoteOnEvent(tick=0, channel=4, data=[27, 95]),
   midi.NoteOffEvent(tick=480, channel=4, data=[27, 95]),
   midi.NoteOnEvent(tick=0, channel=4, data=[27, 95]),
   midi.NoteOffEvent(tick=480, channel=4, data=[27, 95]),
   midi.NoteOnEvent(tick=0, channel=4, data=[30, 95]),
   midi.NoteOffEvent(tick=480, channel=4, data=[30, 95]),
   midi.NoteOnEvent(tick=0, channel=4, data=[30, 95]),
   midi.NoteOffEvent(tick=480, channel=4, data=[30, 95]),
   midi.NoteOnEvent(tick=0, channel=4, data=[30, 95]),
   midi.NoteOffEvent(tick=480, channel=4, data=[30, 95]),
   midi.NoteOnEvent(tick=0, channel=4, data=[30, 95]),
   midi.NoteOffEvent(tick=480, channel=4, data=[30, 95]),
   midi.NoteOnEvent(tick=0, channel=4, data=[28, 95]),
   midi.NoteOffEvent(tick=480, channel=4, data=[28, 95]),
   midi.NoteOnEvent(tick=0, channel=4, data=[28, 95]),
   midi.NoteOffEvent(tick=480, channel=4, data=[28, 95]),
   midi.NoteOnEvent(tick=0, channel=4, data=[28, 95]),
   midi.NoteOffEvent(tick=480, channel=4, data=[28, 95]),
   midi.NoteOnEvent(tick=0, channel=4, data=[28, 95]),
   midi.NoteOffEvent(tick=480, channel=4, data=[28, 95]),
   midi.NoteOnEvent(tick=0, channel=4, data=[27, 95]),
   midi.NoteOffEvent(tick=480, channel=4, data=[27, 95]),
   midi.NoteOnEvent(tick=0, channel=4, data=[27, 95]),
   midi.NoteOffEvent(tick=480, channel=4, data=[27, 95]),
   midi.NoteOnEvent(tick=0, channel=4, data=[27, 95]),
   midi.NoteOffEvent(tick=480, channel=4, data=[27, 95]),
   midi.NoteOnEvent(tick=0, channel=4, data=[27, 95]),
   midi.NoteOffEvent(tick=480, channel=4, data=[27, 95]),
   midi.NoteOnEvent(tick=0, channel=4, data=[27, 95]),
   midi.NoteOffEvent(tick=480, channel=4, data=[27, 95]),
   midi.NoteOnEvent(tick=0, channel=4, data=[27, 95]),
   midi.NoteOffEvent(tick=480, channel=4, data=[27, 95]),
   midi.NoteOnEvent(tick=0, channel=4, data=[27, 95]),
   midi.NoteOffEvent(tick=480, channel=4, data=[27, 95]),
   midi.NoteOnEvent(tick=0, channel=4, data=[27, 95]),
   midi.NoteOffEvent(tick=480, channel=4, data=[27, 95]),
   midi.NoteOnEvent(tick=0, channel=4, data=[30, 95]),
   midi.NoteOffEvent(tick=480, channel=4, data=[30, 95]),
   midi.NoteOnEvent(tick=0, channel=4, data=[30, 95]),
   midi.NoteOffEvent(tick=480, channel=4, data=[30, 95]),
   midi.NoteOnEvent(tick=0, channel=4, data=[30, 95]),
   midi.NoteOffEvent(tick=480, channel=4, data=[30, 95]),
   midi.NoteOnEvent(tick=0, channel=4, data=[30, 95]),
   midi.NoteOffEvent(tick=480, channel=4, data=[30, 95]),
   midi.NoteOnEvent(tick=0, channel=4, data=[28, 95]),
   midi.NoteOffEvent(tick=480, channel=4, data=[28, 95]),
   midi.NoteOnEvent(tick=0, channel=4, data=[28, 95]),
   midi.NoteOffEvent(tick=480, channel=4, data=[28, 95]),
   midi.NoteOnEvent(tick=0, channel=4, data=[28, 95]),
   midi.NoteOffEvent(tick=480, channel=4, data=[28, 95]),
   midi.NoteOnEvent(tick=0, channel=4, data=[28, 95]),
   midi.NoteOffEvent(tick=480, channel=4, data=[28, 95]),
   midi.NoteOnEvent(tick=0, channel=4, data=[33, 95]),
   midi.NoteOffEvent(tick=480, channel=4, data=[33, 95]),
   midi.NoteOnEvent(tick=0, channel=4, data=[33, 95]),
   midi.NoteOffEvent(tick=480, channel=4, data=[33, 95]),
   midi.NoteOnEvent(tick=0, channel=4, data=[33, 95]),
   midi.NoteOffEvent(tick=480, channel=4, data=[33, 95]),
   midi.NoteOnEvent(tick=0, channel=4, data=[33, 95]),
   midi.NoteOffEvent(tick=480, channel=4, data=[33, 95]),
   midi.NoteOnEvent(tick=0, channel=4, data=[33, 95]),
   midi.NoteOffEvent(tick=480, channel=4, data=[33, 95]),
   midi.NoteOnEvent(tick=0, channel=4, data=[33, 95]),
   midi.NoteOffEvent(tick=480, channel=4, data=[33, 95]),
   midi.NoteOnEvent(tick=0, channel=4, data=[33, 95]),
   midi.NoteOffEvent(tick=480, channel=4, data=[33, 95]),
   midi.NoteOnEvent(tick=0, channel=4, data=[33, 95]),
   midi.NoteOffEvent(tick=480, channel=4, data=[33, 95]),
   midi.NoteOnEvent(tick=0, channel=4, data=[33, 95]),
   midi.NoteOffEvent(tick=480, channel=4, data=[33, 95]),
   midi.NoteOnEvent(tick=0, channel=4, data=[33, 95]),
   midi.NoteOffEvent(tick=480, channel=4, data=[33, 95]),
   midi.NoteOnEvent(tick=0, channel=4, data=[32, 95]),
   midi.NoteOffEvent(tick=480, channel=4, data=[32, 95]),
   midi.NoteOnEvent(tick=0, channel=4, data=[32, 95]),
   midi.NoteOffEvent(tick=480, channel=4, data=[32, 95]),
   midi.NoteOnEvent(tick=0, channel=4, data=[33, 95]),
   midi.NoteOffEvent(tick=480, channel=4, data=[33, 95]),
   midi.NoteOnEvent(tick=0, channel=4, data=[33, 95]),
   midi.NoteOffEvent(tick=480, channel=4, data=[33, 95]),
   midi.NoteOnEvent(tick=0, channel=4, data=[32, 95]),
   midi.NoteOffEvent(tick=480, channel=4, data=[32, 95]),
   midi.NoteOnEvent(tick=0, channel=4, data=[32, 95]),
   midi.NoteOffEvent(tick=480, channel=4, data=[32, 95]),
   midi.NoteOnEvent(tick=0, channel=4, data=[29, 95]),
   midi.NoteOffEvent(tick=480, channel=4, data=[29, 95]),
   midi.NoteOnEvent(tick=0, channel=4, data=[29, 95]),
   midi.NoteOffEvent(tick=480, channel=4, data=[29, 95]),
   midi.NoteOnEvent(tick=0, channel=4, data=[29, 95]),
   midi.NoteOffEvent(tick=480, channel=4, data=[29, 95]),
   midi.NoteOnEvent(tick=0, channel=4, data=[29, 95]),
   midi.NoteOffEvent(tick=480, channel=4, data=[29, 95]),
   midi.NoteOnEvent(tick=0, channel=4, data=[29, 95]),
   midi.NoteOffEvent(tick=480, channel=4, data=[29, 95]),
   midi.NoteOnEvent(tick=0, channel=4, data=[29, 95]),
   midi.NoteOffEvent(tick=480, channel=4, data=[29, 95]),
   midi.NoteOnEvent(tick=0, channel=4, data=[29, 95]),
   midi.NoteOffEvent(tick=480, channel=4, data=[29, 95]),
   midi.NoteOnEvent(tick=0, channel=4, data=[29, 95]),
   midi.NoteOffEvent(tick=480, channel=4, data=[29, 95]),
   midi.NoteOnEvent(tick=0, channel=4, data=[29, 95]),
   midi.NoteOffEvent(tick=480, channel=4, data=[29, 95]),
   midi.NoteOnEvent(tick=0, channel=4, data=[29, 95]),
   midi.NoteOffEvent(tick=480, channel=4, data=[29, 95]),
   midi.NoteOnEvent(tick=0, channel=4, data=[29, 95]),
   midi.NoteOffEvent(tick=480, channel=4, data=[29, 95]),
   midi.NoteOnEvent(tick=0, channel=4, data=[29, 95]),
   midi.NoteOffEvent(tick=480, channel=4, data=[29, 95]),
   midi.NoteOnEvent(tick=0, channel=4, data=[29, 95]),
   midi.NoteOffEvent(tick=480, channel=4, data=[29, 95]),
   midi.NoteOnEvent(tick=0, channel=4, data=[29, 95]),
   midi.NoteOffEvent(tick=480, channel=4, data=[29, 95]),
   midi.NoteOnEvent(tick=0, channel=4, data=[32, 95]),
   midi.NoteOffEvent(tick=480, channel=4, data=[32, 95]),
   midi.NoteOnEvent(tick=0, channel=4, data=[32, 95]),
   midi.NoteOffEvent(tick=480, channel=4, data=[32, 95]),
   midi.NoteOnEvent(tick=0, channel=4, data=[33, 95]),
   midi.NoteOffEvent(tick=480, channel=4, data=[33, 95]),
   midi.NoteOnEvent(tick=0, channel=4, data=[33, 95]),
   midi.NoteOffEvent(tick=480, channel=4, data=[33, 95]),
   midi.NoteOnEvent(tick=0, channel=4, data=[33, 95]),
   midi.NoteOffEvent(tick=480, channel=4, data=[33, 95]),
   midi.NoteOnEvent(tick=0, channel=4, data=[33, 95]),
   midi.NoteOffEvent(tick=480, channel=4, data=[33, 95]),
   midi.NoteOnEvent(tick=0, channel=4, data=[33, 95]),
   midi.NoteOffEvent(tick=480, channel=4, data=[33, 95]),
   midi.NoteOnEvent(tick=0, channel=4, data=[33, 95]),
   midi.NoteOffEvent(tick=480, channel=4, data=[33, 95]),
   midi.NoteOnEvent(tick=0, channel=4, data=[33, 95]),
   midi.NoteOffEvent(tick=480, channel=4, data=[33, 95]),
   midi.NoteOnEvent(tick=0, channel=4, data=[33, 95]),
   midi.NoteOffEvent(tick=480, channel=4, data=[33, 95]),
   midi.NoteOnEvent(tick=0, channel=4, data=[33, 95]),
   midi.NoteOffEvent(tick=480, channel=4, data=[33, 95]),
   midi.NoteOnEvent(tick=0, channel=4, data=[33, 95]),
   midi.NoteOffEvent(tick=480, channel=4, data=[33, 95]),
   midi.NoteOnEvent(tick=0, channel=4, data=[32, 95]),
   midi.NoteOffEvent(tick=480, channel=4, data=[32, 95]),
   midi.NoteOnEvent(tick=0, channel=4, data=[33, 95]),
   midi.NoteOffEvent(tick=480, channel=4, data=[33, 95]),
   midi.NoteOnEvent(tick=0, channel=4, data=[32, 95]),
   midi.NoteOffEvent(tick=480, channel=4, data=[32, 95]),
   midi.NoteOnEvent(tick=0, channel=4, data=[32, 95]),
   midi.NoteOffEvent(tick=480, channel=4, data=[32, 95]),
   midi.NoteOnEvent(tick=0, channel=4, data=[33, 95]),
   midi.NoteOffEvent(tick=480, channel=4, data=[33, 95]),
   midi.NoteOnEvent(tick=0, channel=4, data=[32, 95]),
   midi.NoteOffEvent(tick=480, channel=4, data=[32, 95]),
   midi.NoteOnEvent(tick=0, channel=4, data=[29, 95]),
   midi.NoteOffEvent(tick=480, channel=4, data=[29, 95]),
   midi.NoteOnEvent(tick=0, channel=4, data=[29, 95]),
   midi.NoteOffEvent(tick=480, channel=4, data=[29, 95]),
   midi.NoteOnEvent(tick=0, channel=4, data=[29, 95]),
   midi.NoteOffEvent(tick=480, channel=4, data=[29, 95]),
   midi.NoteOnEvent(tick=0, channel=4, data=[29, 95]),
   midi.NoteOffEvent(tick=480, channel=4, data=[29, 95]),
   midi.NoteOnEvent(tick=0, channel=4, data=[29, 95]),
   midi.NoteOffEvent(tick=480, channel=4, data=[29, 95]),
   midi.NoteOnEvent(tick=0, channel=4, data=[29, 95]),
   midi.NoteOffEvent(tick=480, channel=4, data=[29, 95]),
   midi.NoteOnEvent(tick=0, channel=4, data=[29, 95]),
   midi.NoteOffEvent(tick=480, channel=4, data=[29, 95]),
   midi.NoteOnEvent(tick=0, channel=4, data=[29, 95]),
   midi.NoteOffEvent(tick=480, channel=4, data=[29, 95]),
   midi.NoteOnEvent(tick=0, channel=4, data=[29, 95]),
   midi.NoteOffEvent(tick=480, channel=4, data=[29, 95]),
   midi.NoteOnEvent(tick=0, channel=4, data=[29, 95]),
   midi.NoteOffEvent(tick=480, channel=4, data=[29, 95]),
   midi.NoteOnEvent(tick=0, channel=4, data=[29, 95]),
   midi.NoteOffEvent(tick=480, channel=4, data=[29, 95]),
   midi.NoteOnEvent(tick=0, channel=4, data=[29, 95]),
   midi.NoteOffEvent(tick=480, channel=4, data=[29, 95]),
   midi.NoteOnEvent(tick=0, channel=4, data=[29, 95]),
   midi.NoteOffEvent(tick=480, channel=4, data=[29, 95]),
   midi.NoteOnEvent(tick=0, channel=4, data=[29, 95]),
   midi.NoteOffEvent(tick=480, channel=4, data=[29, 95]),
   midi.NoteOnEvent(tick=0, channel=4, data=[29, 95]),
   midi.NoteOffEvent(tick=480, channel=4, data=[29, 95]),
   midi.NoteOnEvent(tick=0, channel=4, data=[29, 95]),
   midi.NoteOffEvent(tick=480, channel=4, data=[29, 95]),
   midi.NoteOnEvent(tick=0, channel=4, data=[33, 95]),
   midi.NoteOffEvent(tick=480, channel=4, data=[33, 95]),
   midi.NoteOnEvent(tick=0, channel=4, data=[33, 95]),
   midi.NoteOffEvent(tick=480, channel=4, data=[33, 95]),
   midi.NoteOnEvent(tick=0, channel=4, data=[33, 95]),
   midi.NoteOffEvent(tick=480, channel=4, data=[33, 95]),
   midi.NoteOnEvent(tick=0, channel=4, data=[33, 95]),
   midi.NoteOffEvent(tick=480, channel=4, data=[33, 95]),
   midi.NoteOnEvent(tick=0, channel=4, data=[33, 95]),
   midi.NoteOffEvent(tick=480, channel=4, data=[33, 95]),
   midi.NoteOnEvent(tick=0, channel=4, data=[33, 95]),
   midi.NoteOffEvent(tick=480, channel=4, data=[33, 95]),
   midi.NoteOnEvent(tick=0, channel=4, data=[33, 95]),
   midi.NoteOffEvent(tick=480, channel=4, data=[33, 95]),
   midi.NoteOnEvent(tick=0, channel=4, data=[33, 95]),
   midi.NoteOffEvent(tick=480, channel=4, data=[33, 95]),
   midi.NoteOnEvent(tick=0, channel=4, data=[33, 95]),
   midi.NoteOffEvent(tick=480, channel=4, data=[33, 95]),
   midi.NoteOnEvent(tick=0, channel=4, data=[33, 95]),
   midi.NoteOffEvent(tick=480, channel=4, data=[33, 95]),
   midi.NoteOnEvent(tick=0, channel=4, data=[32, 95]),
   midi.NoteOffEvent(tick=480, channel=4, data=[32, 95]),
   midi.NoteOnEvent(tick=0, channel=4, data=[32, 95]),
   midi.NoteOffEvent(tick=480, channel=4, data=[32, 95]),
   midi.NoteOnEvent(tick=0, channel=4, data=[33, 95]),
   midi.NoteOffEvent(tick=480, channel=4, data=[33, 95]),
   midi.NoteOnEvent(tick=0, channel=4, data=[33, 95]),
   midi.NoteOffEvent(tick=480, channel=4, data=[33, 95]),
   midi.NoteOnEvent(tick=0, channel=4, data=[32, 95]),
   midi.NoteOffEvent(tick=480, channel=4, data=[32, 95]),
   midi.NoteOnEvent(tick=0, channel=4, data=[32, 95]),
   midi.NoteOffEvent(tick=480, channel=4, data=[32, 95]),
   midi.NoteOnEvent(tick=0, channel=4, data=[29, 95]),
   midi.NoteOffEvent(tick=480, channel=4, data=[29, 95]),
   midi.NoteOnEvent(tick=0, channel=4, data=[29, 95]),
   midi.NoteOffEvent(tick=480, channel=4, data=[29, 95]),
   midi.NoteOnEvent(tick=0, channel=4, data=[29, 95]),
   midi.NoteOffEvent(tick=480, channel=4, data=[29, 95]),
   midi.NoteOnEvent(tick=0, channel=4, data=[29, 95]),
   midi.NoteOffEvent(tick=480, channel=4, data=[29, 95]),
   midi.NoteOnEvent(tick=0, channel=4, data=[29, 95]),
   midi.NoteOffEvent(tick=480, channel=4, data=[29, 95]),
   midi.NoteOnEvent(tick=0, channel=4, data=[29, 95]),
   midi.NoteOffEvent(tick=480, channel=4, data=[29, 95]),
   midi.NoteOnEvent(tick=0, channel=4, data=[29, 95]),
   midi.NoteOffEvent(tick=480, channel=4, data=[29, 95]),
   midi.NoteOnEvent(tick=0, channel=4, data=[29, 95]),
   midi.NoteOffEvent(tick=480, channel=4, data=[29, 95]),
   midi.NoteOnEvent(tick=0, channel=4, data=[29, 95]),
   midi.NoteOffEvent(tick=480, channel=4, data=[29, 95]),
   midi.NoteOnEvent(tick=0, channel=4, data=[29, 95]),
   midi.NoteOffEvent(tick=480, channel=4, data=[29, 95]),
   midi.NoteOnEvent(tick=0, channel=4, data=[29, 95]),
   midi.NoteOffEvent(tick=480, channel=4, data=[29, 95]),
   midi.NoteOnEvent(tick=0, channel=4, data=[29, 95]),
   midi.NoteOffEvent(tick=480, channel=4, data=[29, 95]),
   midi.NoteOnEvent(tick=0, channel=4, data=[29, 95]),
   midi.NoteOffEvent(tick=480, channel=4, data=[29, 95]),
   midi.NoteOnEvent(tick=0, channel=4, data=[29, 95]),
   midi.NoteOffEvent(tick=480, channel=4, data=[29, 95]),
   midi.NoteOnEvent(tick=0, channel=4, data=[32, 95]),
   midi.NoteOffEvent(tick=480, channel=4, data=[32, 95]),
   midi.NoteOnEvent(tick=0, channel=4, data=[32, 95]),
   midi.NoteOffEvent(tick=480, channel=4, data=[32, 95]),
   midi.NoteOnEvent(tick=0, channel=4, data=[33, 95]),
   midi.NoteOffEvent(tick=480, channel=4, data=[33, 95]),
   midi.NoteOnEvent(tick=0, channel=4, data=[33, 95]),
   midi.NoteOffEvent(tick=480, channel=4, data=[33, 95]),
   midi.NoteOnEvent(tick=0, channel=4, data=[33, 95]),
   midi.NoteOffEvent(tick=480, channel=4, data=[33, 95]),
   midi.NoteOnEvent(tick=0, channel=4, data=[33, 95]),
   midi.NoteOffEvent(tick=480, channel=4, data=[33, 95]),
   midi.NoteOnEvent(tick=0, channel=4, data=[33, 95]),
   midi.NoteOffEvent(tick=480, channel=4, data=[33, 95]),
   midi.NoteOnEvent(tick=0, channel=4, data=[33, 95]),
   midi.NoteOffEvent(tick=480, channel=4, data=[33, 95]),
   midi.NoteOnEvent(tick=0, channel=4, data=[33, 95]),
   midi.NoteOffEvent(tick=480, channel=4, data=[33, 95]),
   midi.NoteOnEvent(tick=0, channel=4, data=[33, 95]),
   midi.NoteOffEvent(tick=480, channel=4, data=[33, 95]),
   midi.NoteOnEvent(tick=0, channel=4, data=[33, 95]),
   midi.NoteOffEvent(tick=480, channel=4, data=[33, 95]),
   midi.NoteOnEvent(tick=0, channel=4, data=[33, 95]),
   midi.NoteOffEvent(tick=480, channel=4, data=[33, 95]),
   midi.NoteOnEvent(tick=0, channel=4, data=[32, 95]),
   midi.NoteOffEvent(tick=480, channel=4, data=[32, 95]),
   midi.NoteOnEvent(tick=0, channel=4, data=[33, 95]),
   midi.NoteOffEvent(tick=480, channel=4, data=[33, 95]),
   midi.NoteOnEvent(tick=0, channel=4, data=[32, 95]),
   midi.NoteOffEvent(tick=480, channel=4, data=[32, 95]),
   midi.NoteOnEvent(tick=0, channel=4, data=[32, 95]),
   midi.NoteOffEvent(tick=480, channel=4, data=[32, 95]),
   midi.NoteOnEvent(tick=0, channel=4, data=[33, 95]),
   midi.NoteOffEvent(tick=480, channel=4, data=[33, 95]),
   midi.NoteOnEvent(tick=0, channel=4, data=[32, 95]),
   midi.NoteOffEvent(tick=480, channel=4, data=[32, 95]),
   midi.NoteOnEvent(tick=0, channel=4, data=[29, 95]),
   midi.NoteOffEvent(tick=480, channel=4, data=[29, 95]),
   midi.NoteOnEvent(tick=0, channel=4, data=[29, 95]),
   midi.NoteOffEvent(tick=480, channel=4, data=[29, 95]),
   midi.NoteOnEvent(tick=0, channel=4, data=[29, 95]),
   midi.NoteOffEvent(tick=480, channel=4, data=[29, 95]),
   midi.NoteOnEvent(tick=0, channel=4, data=[29, 95]),
   midi.NoteOffEvent(tick=480, channel=4, data=[29, 95]),
   midi.NoteOnEvent(tick=0, channel=4, data=[29, 95]),
   midi.NoteOffEvent(tick=480, channel=4, data=[29, 95]),
   midi.NoteOnEvent(tick=0, channel=4, data=[29, 95]),
   midi.NoteOffEvent(tick=480, channel=4, data=[29, 95]),
   midi.NoteOnEvent(tick=0, channel=4, data=[29, 95]),
   midi.NoteOffEvent(tick=480, channel=4, data=[29, 95]),
   midi.NoteOnEvent(tick=0, channel=4, data=[29, 95]),
   midi.NoteOffEvent(tick=480, channel=4, data=[29, 95]),
   midi.NoteOnEvent(tick=0, channel=4, data=[29, 95]),
   midi.NoteOffEvent(tick=480, channel=4, data=[29, 95]),
   midi.NoteOnEvent(tick=0, channel=4, data=[29, 95]),
   midi.NoteOffEvent(tick=480, channel=4, data=[29, 95]),
   midi.NoteOnEvent(tick=0, channel=4, data=[29, 95]),
   midi.NoteOffEvent(tick=480, channel=4, data=[29, 95]),
   midi.NoteOnEvent(tick=0, channel=4, data=[29, 95]),
   midi.NoteOffEvent(tick=480, channel=4, data=[29, 95]),
   midi.NoteOnEvent(tick=0, channel=4, data=[29, 95]),
   midi.NoteOffEvent(tick=480, channel=4, data=[29, 95]),
   midi.NoteOnEvent(tick=0, channel=4, data=[29, 95]),
   midi.NoteOffEvent(tick=480, channel=4, data=[29, 95]),
   midi.NoteOnEvent(tick=0, channel=4, data=[29, 95]),
   midi.NoteOffEvent(tick=480, channel=4, data=[29, 95]),
   midi.NoteOnEvent(tick=0, channel=4, data=[29, 95]),
   midi.NoteOffEvent(tick=480, channel=4, data=[29, 95]),
   midi.NoteOnEvent(tick=3840, channel=4, data=[34, 95]),
   midi.NoteOffEvent(tick=480, channel=4, data=[34, 95]),
   midi.NoteOnEvent(tick=0, channel=4, data=[34, 95]),
   midi.NoteOffEvent(tick=480, channel=4, data=[34, 95]),
   midi.NoteOnEvent(tick=0, channel=4, data=[34, 95]),
   midi.NoteOffEvent(tick=480, channel=4, data=[34, 95]),
   midi.NoteOnEvent(tick=0, channel=4, data=[34, 95]),
   midi.NoteOffEvent(tick=480, channel=4, data=[34, 95]),
   midi.NoteOnEvent(tick=0, channel=4, data=[36, 95]),
   midi.NoteOffEvent(tick=640, channel=4, data=[36, 95]),
   midi.NoteOnEvent(tick=0, channel=4, data=[39, 95]),
   midi.NoteOffEvent(tick=640, channel=4, data=[39, 95]),
   midi.NoteOnEvent(tick=0, channel=4, data=[38, 95]),
   midi.NoteOffEvent(tick=640, channel=4, data=[38, 95]),
   midi.NoteOnEvent(tick=0, channel=4, data=[34, 95]),
   midi.NoteOffEvent(tick=480, channel=4, data=[34, 95]),
   midi.NoteOnEvent(tick=0, channel=4, data=[34, 95]),
   midi.NoteOffEvent(tick=480, channel=4, data=[34, 95]),
   midi.NoteOnEvent(tick=0, channel=4, data=[34, 95]),
   midi.NoteOffEvent(tick=480, channel=4, data=[34, 95]),
   midi.NoteOnEvent(tick=0, channel=4, data=[34, 95]),
   midi.NoteOffEvent(tick=480, channel=4, data=[34, 95]),
   midi.NoteOnEvent(tick=0, channel=4, data=[36, 95]),
   midi.NoteOffEvent(tick=640, channel=4, data=[36, 95]),
   midi.NoteOnEvent(tick=0, channel=4, data=[39, 95]),
   midi.NoteOffEvent(tick=640, channel=4, data=[39, 95]),
   midi.NoteOnEvent(tick=0, channel=4, data=[38, 95]),
   midi.NoteOffEvent(tick=640, channel=4, data=[38, 95]),
   midi.NoteOnEvent(tick=0, channel=4, data=[34, 95]),
   midi.NoteOffEvent(tick=480, channel=4, data=[34, 95]),
   midi.NoteOnEvent(tick=0, channel=4, data=[34, 95]),
   midi.NoteOffEvent(tick=480, channel=4, data=[34, 95]),
   midi.NoteOnEvent(tick=0, channel=4, data=[34, 95]),
   midi.NoteOffEvent(tick=480, channel=4, data=[34, 95]),
   midi.NoteOnEvent(tick=0, channel=4, data=[34, 95]),
   midi.NoteOffEvent(tick=480, channel=4, data=[34, 95]),
   midi.NoteOnEvent(tick=0, channel=4, data=[36, 95]),
   midi.NoteOffEvent(tick=640, channel=4, data=[36, 95]),
   midi.NoteOnEvent(tick=0, channel=4, data=[39, 95]),
   midi.NoteOffEvent(tick=640, channel=4, data=[39, 95]),
   midi.NoteOnEvent(tick=0, channel=4, data=[38, 95]),
   midi.NoteOffEvent(tick=640, channel=4, data=[38, 95]),
   midi.NoteOnEvent(tick=0, channel=4, data=[34, 95]),
   midi.NoteOffEvent(tick=480, channel=4, data=[34, 95]),
   midi.NoteOnEvent(tick=0, channel=4, data=[34, 95]),
   midi.NoteOffEvent(tick=480, channel=4, data=[34, 95]),
   midi.NoteOnEvent(tick=0, channel=4, data=[34, 95]),
   midi.NoteOffEvent(tick=480, channel=4, data=[34, 95]),
   midi.NoteOnEvent(tick=0, channel=4, data=[34, 95]),
   midi.NoteOffEvent(tick=480, channel=4, data=[34, 95]),
   midi.NoteOnEvent(tick=0, channel=4, data=[35, 95]),
   midi.NoteOffEvent(tick=640, channel=4, data=[35, 95]),
   midi.NoteOnEvent(tick=0, channel=4, data=[36, 95]),
   midi.NoteOffEvent(tick=640, channel=4, data=[36, 95]),
   midi.NoteOnEvent(tick=0, channel=4, data=[37, 95]),
   midi.NoteOffEvent(tick=640, channel=4, data=[37, 95]),
   midi.NoteOnEvent(tick=0, channel=4, data=[34, 95]),
   midi.NoteOffEvent(tick=480, channel=4, data=[34, 95]),
   midi.NoteOnEvent(tick=0, channel=4, data=[34, 95]),
   midi.NoteOffEvent(tick=480, channel=4, data=[34, 95]),
   midi.NoteOnEvent(tick=0, channel=4, data=[34, 95]),
   midi.NoteOffEvent(tick=480, channel=4, data=[34, 95]),
   midi.NoteOnEvent(tick=0, channel=4, data=[34, 95]),
   midi.NoteOffEvent(tick=480, channel=4, data=[34, 95]),
   midi.NoteOnEvent(tick=0, channel=4, data=[36, 95]),
   midi.NoteOffEvent(tick=640, channel=4, data=[36, 95]),
   midi.NoteOnEvent(tick=0, channel=4, data=[39, 95]),
   midi.NoteOffEvent(tick=640, channel=4, data=[39, 95]),
   midi.NoteOnEvent(tick=0, channel=4, data=[38, 95]),
   midi.NoteOffEvent(tick=640, channel=4, data=[38, 95]),
   midi.NoteOnEvent(tick=0, channel=4, data=[34, 95]),
   midi.NoteOffEvent(tick=480, channel=4, data=[34, 95]),
   midi.NoteOnEvent(tick=0, channel=4, data=[34, 95]),
   midi.NoteOffEvent(tick=480, channel=4, data=[34, 95]),
   midi.NoteOnEvent(tick=0, channel=4, data=[34, 95]),
   midi.NoteOffEvent(tick=480, channel=4, data=[34, 95]),
   midi.NoteOnEvent(tick=0, channel=4, data=[34, 95]),
   midi.NoteOffEvent(tick=480, channel=4, data=[34, 95]),
   midi.NoteOnEvent(tick=0, channel=4, data=[36, 95]),
   midi.NoteOffEvent(tick=640, channel=4, data=[36, 95]),
   midi.NoteOnEvent(tick=0, channel=4, data=[39, 95]),
   midi.NoteOffEvent(tick=640, channel=4, data=[39, 95]),
   midi.NoteOnEvent(tick=0, channel=4, data=[38, 95]),
   midi.NoteOffEvent(tick=640, channel=4, data=[38, 95]),
   midi.NoteOnEvent(tick=0, channel=4, data=[34, 95]),
   midi.NoteOffEvent(tick=480, channel=4, data=[34, 95]),
   midi.NoteOnEvent(tick=0, channel=4, data=[34, 95]),
   midi.NoteOffEvent(tick=480, channel=4, data=[34, 95]),
   midi.NoteOnEvent(tick=0, channel=4, data=[34, 95]),
   midi.NoteOffEvent(tick=480, channel=4, data=[34, 95]),
   midi.NoteOnEvent(tick=0, channel=4, data=[34, 95]),
   midi.NoteOffEvent(tick=480, channel=4, data=[34, 95]),
   midi.NoteOnEvent(tick=0, channel=4, data=[36, 95]),
   midi.NoteOffEvent(tick=640, channel=4, data=[36, 95]),
   midi.NoteOnEvent(tick=0, channel=4, data=[39, 95]),
   midi.NoteOffEvent(tick=640, channel=4, data=[39, 95]),
   midi.NoteOnEvent(tick=0, channel=4, data=[38, 95]),
   midi.NoteOffEvent(tick=640, channel=4, data=[38, 95]),
   midi.NoteOnEvent(tick=0, channel=4, data=[34, 95]),
   midi.NoteOffEvent(tick=480, channel=4, data=[34, 95]),
   midi.NoteOnEvent(tick=0, channel=4, data=[34, 95]),
   midi.NoteOffEvent(tick=480, channel=4, data=[34, 95]),
   midi.NoteOnEvent(tick=0, channel=4, data=[34, 95]),
   midi.NoteOffEvent(tick=480, channel=4, data=[34, 95]),
   midi.NoteOnEvent(tick=0, channel=4, data=[34, 95]),
   midi.NoteOffEvent(tick=480, channel=4, data=[34, 95]),
   midi.NoteOnEvent(tick=0, channel=4, data=[35, 95]),
   midi.NoteOffEvent(tick=640, channel=4, data=[35, 95]),
   midi.NoteOnEvent(tick=0, channel=4, data=[36, 95]),
   midi.NoteOffEvent(tick=640, channel=4, data=[36, 95]),
   midi.NoteOnEvent(tick=0, channel=4, data=[37, 95]),
   midi.NoteOffEvent(tick=640, channel=4, data=[37, 95]),
   midi.NoteOnEvent(tick=0, channel=4, data=[34, 95]),
   midi.NoteOffEvent(tick=480, channel=4, data=[34, 95]),
   midi.NoteOnEvent(tick=0, channel=4, data=[34, 95]),
   midi.NoteOffEvent(tick=480, channel=4, data=[34, 95]),
   midi.NoteOnEvent(tick=0, channel=4, data=[34, 95]),
   midi.NoteOffEvent(tick=480, channel=4, data=[34, 95]),
   midi.NoteOnEvent(tick=0, channel=4, data=[34, 95]),
   midi.NoteOffEvent(tick=480, channel=4, data=[34, 95]),
   midi.NoteOnEvent(tick=0, channel=4, data=[36, 95]),
   midi.NoteOffEvent(tick=640, channel=4, data=[36, 95]),
   midi.NoteOnEvent(tick=0, channel=4, data=[39, 95]),
   midi.NoteOffEvent(tick=640, channel=4, data=[39, 95]),
   midi.NoteOnEvent(tick=0, channel=4, data=[38, 95]),
   midi.NoteOffEvent(tick=640, channel=4, data=[38, 95]),
   midi.NoteOnEvent(tick=0, channel=4, data=[34, 95]),
   midi.NoteOffEvent(tick=480, channel=4, data=[34, 95]),
   midi.NoteOnEvent(tick=0, channel=4, data=[34, 95]),
   midi.NoteOffEvent(tick=480, channel=4, data=[34, 95]),
   midi.NoteOnEvent(tick=0, channel=4, data=[34, 95]),
   midi.NoteOffEvent(tick=480, channel=4, data=[34, 95]),
   midi.NoteOnEvent(tick=0, channel=4, data=[34, 95]),
   midi.NoteOffEvent(tick=480, channel=4, data=[34, 95]),
   midi.NoteOnEvent(tick=0, channel=4, data=[36, 95]),
   midi.NoteOffEvent(tick=640, channel=4, data=[36, 95]),
   midi.NoteOnEvent(tick=0, channel=4, data=[39, 95]),
   midi.NoteOffEvent(tick=640, channel=4, data=[39, 95]),
   midi.NoteOnEvent(tick=0, channel=4, data=[38, 95]),
   midi.NoteOffEvent(tick=640, channel=4, data=[38, 95]),
   midi.NoteOnEvent(tick=0, channel=4, data=[34, 95]),
   midi.NoteOffEvent(tick=480, channel=4, data=[34, 95]),
   midi.NoteOnEvent(tick=0, channel=4, data=[34, 95]),
   midi.NoteOffEvent(tick=480, channel=4, data=[34, 95]),
   midi.NoteOnEvent(tick=0, channel=4, data=[34, 95]),
   midi.NoteOffEvent(tick=480, channel=4, data=[34, 95]),
   midi.NoteOnEvent(tick=0, channel=4, data=[34, 95]),
   midi.NoteOffEvent(tick=480, channel=4, data=[34, 95]),
   midi.NoteOnEvent(tick=0, channel=4, data=[36, 95]),
   midi.NoteOffEvent(tick=640, channel=4, data=[36, 95]),
   midi.NoteOnEvent(tick=0, channel=4, data=[39, 95]),
   midi.NoteOffEvent(tick=640, channel=4, data=[39, 95]),
   midi.NoteOnEvent(tick=0, channel=4, data=[38, 95]),
   midi.NoteOffEvent(tick=640, channel=4, data=[38, 95]),
   midi.NoteOnEvent(tick=0, channel=4, data=[34, 95]),
   midi.NoteOffEvent(tick=480, channel=4, data=[34, 95]),
   midi.NoteOnEvent(tick=0, channel=4, data=[34, 95]),
   midi.NoteOffEvent(tick=480, channel=4, data=[34, 95]),
   midi.NoteOnEvent(tick=0, channel=4, data=[34, 95]),
   midi.NoteOffEvent(tick=480, channel=4, data=[34, 95]),
   midi.NoteOnEvent(tick=0, channel=4, data=[34, 95]),
   midi.NoteOffEvent(tick=480, channel=4, data=[34, 95]),
   midi.NoteOnEvent(tick=0, channel=4, data=[35, 95]),
   midi.NoteOffEvent(tick=640, channel=4, data=[35, 95]),
   midi.NoteOnEvent(tick=0, channel=4, data=[36, 95]),
   midi.NoteOffEvent(tick=640, channel=4, data=[36, 95]),
   midi.NoteOnEvent(tick=0, channel=4, data=[37, 95]),
   midi.NoteOffEvent(tick=640, channel=4, data=[37, 95]),
   midi.NoteOnEvent(tick=0, channel=4, data=[34, 95]),
   midi.NoteOffEvent(tick=480, channel=4, data=[34, 95]),
   midi.NoteOnEvent(tick=0, channel=4, data=[34, 95]),
   midi.NoteOffEvent(tick=480, channel=4, data=[34, 95]),
   midi.NoteOnEvent(tick=0, channel=4, data=[34, 95]),
   midi.NoteOffEvent(tick=480, channel=4, data=[34, 95]),
   midi.NoteOnEvent(tick=0, channel=4, data=[34, 95]),
   midi.NoteOffEvent(tick=480, channel=4, data=[34, 95]),
   midi.NoteOnEvent(tick=0, channel=4, data=[36, 95]),
   midi.NoteOffEvent(tick=640, channel=4, data=[36, 95]),
   midi.NoteOnEvent(tick=0, channel=4, data=[39, 95]),
   midi.NoteOffEvent(tick=640, channel=4, data=[39, 95]),
   midi.NoteOnEvent(tick=0, channel=4, data=[38, 95]),
   midi.NoteOffEvent(tick=640, channel=4, data=[38, 95]),
   midi.NoteOnEvent(tick=0, channel=4, data=[34, 95]),
   midi.NoteOffEvent(tick=480, channel=4, data=[34, 95]),
   midi.NoteOnEvent(tick=0, channel=4, data=[34, 95]),
   midi.NoteOffEvent(tick=480, channel=4, data=[34, 95]),
   midi.NoteOnEvent(tick=0, channel=4, data=[34, 95]),
   midi.NoteOffEvent(tick=480, channel=4, data=[34, 95]),
   midi.NoteOnEvent(tick=0, channel=4, data=[34, 95]),
   midi.NoteOffEvent(tick=480, channel=4, data=[34, 95]),
   midi.NoteOnEvent(tick=0, channel=4, data=[36, 95]),
   midi.NoteOffEvent(tick=640, channel=4, data=[36, 95]),
   midi.NoteOnEvent(tick=0, channel=4, data=[39, 95]),
   midi.NoteOffEvent(tick=640, channel=4, data=[39, 95]),
   midi.NoteOnEvent(tick=0, channel=4, data=[38, 95]),
   midi.NoteOffEvent(tick=640, channel=4, data=[38, 95]),
   midi.NoteOnEvent(tick=0, channel=4, data=[34, 95]),
   midi.NoteOffEvent(tick=480, channel=4, data=[34, 95]),
   midi.NoteOnEvent(tick=0, channel=4, data=[34, 95]),
   midi.NoteOffEvent(tick=480, channel=4, data=[34, 95]),
   midi.NoteOnEvent(tick=0, channel=4, data=[34, 95]),
   midi.NoteOffEvent(tick=480, channel=4, data=[34, 95]),
   midi.NoteOnEvent(tick=0, channel=4, data=[34, 95]),
   midi.NoteOffEvent(tick=480, channel=4, data=[34, 95]),
   midi.NoteOnEvent(tick=0, channel=4, data=[36, 95]),
   midi.NoteOffEvent(tick=640, channel=4, data=[36, 95]),
   midi.NoteOnEvent(tick=0, channel=4, data=[39, 95]),
   midi.NoteOffEvent(tick=640, channel=4, data=[39, 95]),
   midi.NoteOnEvent(tick=0, channel=4, data=[38, 95]),
   midi.NoteOffEvent(tick=640, channel=4, data=[38, 95]),
   midi.NoteOnEvent(tick=0, channel=4, data=[34, 95]),
   midi.NoteOffEvent(tick=480, channel=4, data=[34, 95]),
   midi.NoteOnEvent(tick=0, channel=4, data=[34, 95]),
   midi.NoteOffEvent(tick=480, channel=4, data=[34, 95]),
   midi.NoteOnEvent(tick=0, channel=4, data=[34, 95]),
   midi.NoteOffEvent(tick=480, channel=4, data=[34, 95]),
   midi.NoteOnEvent(tick=0, channel=4, data=[34, 95]),
   midi.NoteOffEvent(tick=480, channel=4, data=[34, 95]),
   midi.NoteOnEvent(tick=0, channel=4, data=[35, 95]),
   midi.NoteOffEvent(tick=640, channel=4, data=[35, 95]),
   midi.NoteOnEvent(tick=0, channel=4, data=[36, 95]),
   midi.NoteOffEvent(tick=640, channel=4, data=[36, 95]),
   midi.NoteOnEvent(tick=0, channel=4, data=[37, 95]),
   midi.NoteOffEvent(tick=640, channel=4, data=[37, 95]),
   midi.NoteOnEvent(tick=0, channel=4, data=[34, 95]),
   midi.NoteOffEvent(tick=480, channel=4, data=[34, 95]),
   midi.NoteOnEvent(tick=0, channel=4, data=[34, 95]),
   midi.NoteOffEvent(tick=480, channel=4, data=[34, 95]),
   midi.NoteOnEvent(tick=0, channel=4, data=[34, 95]),
   midi.NoteOffEvent(tick=480, channel=4, data=[34, 95]),
   midi.NoteOnEvent(tick=0, channel=4, data=[34, 95]),
   midi.NoteOffEvent(tick=480, channel=4, data=[34, 95]),
   midi.NoteOnEvent(tick=0, channel=4, data=[36, 95]),
   midi.NoteOffEvent(tick=640, channel=4, data=[36, 95]),
   midi.NoteOnEvent(tick=0, channel=4, data=[39, 95]),
   midi.NoteOffEvent(tick=640, channel=4, data=[39, 95]),
   midi.NoteOnEvent(tick=0, channel=4, data=[38, 95]),
   midi.NoteOffEvent(tick=640, channel=4, data=[38, 95]),
   midi.NoteOnEvent(tick=0, channel=4, data=[34, 95]),
   midi.NoteOffEvent(tick=480, channel=4, data=[34, 95]),
   midi.NoteOnEvent(tick=0, channel=4, data=[34, 95]),
   midi.NoteOffEvent(tick=480, channel=4, data=[34, 95]),
   midi.NoteOnEvent(tick=0, channel=4, data=[34, 95]),
   midi.NoteOffEvent(tick=480, channel=4, data=[34, 95]),
   midi.NoteOnEvent(tick=0, channel=4, data=[34, 95]),
   midi.NoteOffEvent(tick=480, channel=4, data=[34, 95]),
   midi.NoteOnEvent(tick=0, channel=4, data=[36, 95]),
   midi.NoteOffEvent(tick=640, channel=4, data=[36, 95]),
   midi.NoteOnEvent(tick=0, channel=4, data=[39, 95]),
   midi.NoteOffEvent(tick=640, channel=4, data=[39, 95]),
   midi.NoteOnEvent(tick=0, channel=4, data=[38, 95]),
   midi.NoteOffEvent(tick=640, channel=4, data=[38, 95]),
   midi.NoteOnEvent(tick=0, channel=4, data=[34, 95]),
   midi.NoteOffEvent(tick=480, channel=4, data=[34, 95]),
   midi.NoteOnEvent(tick=0, channel=4, data=[34, 95]),
   midi.NoteOffEvent(tick=480, channel=4, data=[34, 95]),
   midi.NoteOnEvent(tick=0, channel=4, data=[34, 95]),
   midi.NoteOffEvent(tick=480, channel=4, data=[34, 95]),
   midi.NoteOnEvent(tick=0, channel=4, data=[34, 95]),
   midi.NoteOffEvent(tick=480, channel=4, data=[34, 95]),
   midi.NoteOnEvent(tick=0, channel=4, data=[36, 95]),
   midi.NoteOffEvent(tick=640, channel=4, data=[36, 95]),
   midi.NoteOnEvent(tick=0, channel=4, data=[39, 95]),
   midi.NoteOffEvent(tick=640, channel=4, data=[39, 95]),
   midi.NoteOnEvent(tick=0, channel=4, data=[38, 95]),
   midi.NoteOffEvent(tick=640, channel=4, data=[38, 95]),
   midi.NoteOnEvent(tick=0, channel=4, data=[34, 95]),
   midi.NoteOffEvent(tick=480, channel=4, data=[34, 95]),
   midi.NoteOnEvent(tick=0, channel=4, data=[34, 95]),
   midi.NoteOffEvent(tick=480, channel=4, data=[34, 95]),
   midi.NoteOnEvent(tick=0, channel=4, data=[34, 95]),
   midi.NoteOffEvent(tick=480, channel=4, data=[34, 95]),
   midi.NoteOnEvent(tick=0, channel=4, data=[34, 95]),
   midi.NoteOffEvent(tick=480, channel=4, data=[34, 95]),
   midi.NoteOnEvent(tick=0, channel=4, data=[35, 95]),
   midi.NoteOffEvent(tick=640, channel=4, data=[35, 95]),
   midi.NoteOnEvent(tick=0, channel=4, data=[36, 95]),
   midi.NoteOffEvent(tick=640, channel=4, data=[36, 95]),
   midi.NoteOnEvent(tick=0, channel=4, data=[37, 95]),
   midi.NoteOffEvent(tick=640, channel=4, data=[37, 95]),
   midi.NoteOnEvent(tick=0, channel=4, data=[34, 95]),
   midi.NoteOffEvent(tick=480, channel=4, data=[34, 95]),
   midi.NoteOnEvent(tick=0, channel=4, data=[34, 95]),
   midi.NoteOffEvent(tick=480, channel=4, data=[34, 95]),
   midi.NoteOnEvent(tick=0, channel=4, data=[34, 95]),
   midi.NoteOffEvent(tick=480, channel=4, data=[34, 95]),
   midi.NoteOnEvent(tick=0, channel=4, data=[34, 95]),
   midi.NoteOffEvent(tick=480, channel=4, data=[34, 95]),
   midi.NoteOnEvent(tick=0, channel=4, data=[36, 95]),
   midi.NoteOffEvent(tick=640, channel=4, data=[36, 95]),
   midi.NoteOnEvent(tick=0, channel=4, data=[39, 95]),
   midi.NoteOffEvent(tick=640, channel=4, data=[39, 95]),
   midi.NoteOnEvent(tick=0, channel=4, data=[38, 95]),
   midi.NoteOffEvent(tick=640, channel=4, data=[38, 95]),
   midi.NoteOnEvent(tick=0, channel=4, data=[34, 95]),
   midi.NoteOffEvent(tick=480, channel=4, data=[34, 95]),
   midi.NoteOnEvent(tick=0, channel=4, data=[34, 95]),
   midi.NoteOffEvent(tick=480, channel=4, data=[34, 95]),
   midi.NoteOnEvent(tick=0, channel=4, data=[34, 95]),
   midi.NoteOffEvent(tick=480, channel=4, data=[34, 95]),
   midi.NoteOnEvent(tick=0, channel=4, data=[34, 95]),
   midi.NoteOffEvent(tick=480, channel=4, data=[34, 95]),
   midi.NoteOnEvent(tick=0, channel=4, data=[36, 95]),
   midi.NoteOffEvent(tick=640, channel=4, data=[36, 95]),
   midi.NoteOnEvent(tick=0, channel=4, data=[39, 95]),
   midi.NoteOffEvent(tick=640, channel=4, data=[39, 95]),
   midi.NoteOnEvent(tick=0, channel=4, data=[38, 95]),
   midi.NoteOffEvent(tick=640, channel=4, data=[38, 95]),
   midi.NoteOnEvent(tick=0, channel=4, data=[34, 95]),
   midi.NoteOffEvent(tick=480, channel=4, data=[34, 95]),
   midi.NoteOnEvent(tick=0, channel=4, data=[34, 95]),
   midi.NoteOffEvent(tick=480, channel=4, data=[34, 95]),
   midi.NoteOnEvent(tick=0, channel=4, data=[34, 95]),
   midi.NoteOffEvent(tick=480, channel=4, data=[34, 95]),
   midi.NoteOnEvent(tick=0, channel=4, data=[34, 95]),
   midi.NoteOffEvent(tick=480, channel=4, data=[34, 95]),
   midi.NoteOnEvent(tick=0, channel=4, data=[36, 95]),
   midi.NoteOffEvent(tick=640, channel=4, data=[36, 95]),
   midi.NoteOnEvent(tick=0, channel=4, data=[39, 95]),
   midi.NoteOffEvent(tick=640, channel=4, data=[39, 95]),
   midi.NoteOnEvent(tick=0, channel=4, data=[38, 95]),
   midi.NoteOffEvent(tick=640, channel=4, data=[38, 95]),
   midi.NoteOnEvent(tick=0, channel=4, data=[34, 95]),
   midi.NoteOffEvent(tick=480, channel=4, data=[34, 95]),
   midi.NoteOnEvent(tick=0, channel=4, data=[34, 95]),
   midi.NoteOffEvent(tick=480, channel=4, data=[34, 95]),
   midi.NoteOnEvent(tick=0, channel=4, data=[34, 95]),
   midi.NoteOffEvent(tick=480, channel=4, data=[34, 95]),
   midi.NoteOnEvent(tick=0, channel=4, data=[34, 95]),
   midi.NoteOffEvent(tick=480, channel=4, data=[34, 95]),
   midi.NoteOnEvent(tick=0, channel=4, data=[35, 95]),
   midi.NoteOffEvent(tick=640, channel=4, data=[35, 95]),
   midi.NoteOnEvent(tick=0, channel=4, data=[36, 95]),
   midi.NoteOffEvent(tick=640, channel=4, data=[36, 95]),
   midi.NoteOnEvent(tick=0, channel=4, data=[37, 95]),
   midi.NoteOffEvent(tick=640, channel=4, data=[37, 95]),
   midi.NoteOnEvent(tick=0, channel=4, data=[30, 95]),
   midi.NoteOffEvent(tick=640, channel=4, data=[30, 95]),
   midi.NoteOnEvent(tick=0, channel=4, data=[31, 95]),
   midi.NoteOffEvent(tick=640, channel=4, data=[31, 95]),
   midi.NoteOnEvent(tick=0, channel=4, data=[32, 95]),
   midi.NoteOffEvent(tick=640, channel=4, data=[32, 95]),
   midi.NoteOnEvent(tick=0, channel=4, data=[30, 95]),
   midi.NoteOffEvent(tick=640, channel=4, data=[30, 95]),
   midi.NoteOnEvent(tick=0, channel=4, data=[31, 95]),
   midi.NoteOffEvent(tick=640, channel=4, data=[31, 95]),
   midi.NoteOnEvent(tick=0, channel=4, data=[32, 95]),
   midi.NoteOffEvent(tick=640, channel=4, data=[32, 95]),
   midi.NoteOnEvent(tick=0, channel=4, data=[33, 95]),
   midi.NoteOffEvent(tick=480, channel=4, data=[33, 95]),
   midi.NoteOnEvent(tick=0, channel=4, data=[33, 95]),
   midi.NoteOffEvent(tick=480, channel=4, data=[33, 95]),
   midi.NoteOnEvent(tick=0, channel=4, data=[33, 95]),
   midi.NoteOffEvent(tick=480, channel=4, data=[33, 95]),
   midi.NoteOnEvent(tick=0, channel=4, data=[33, 95]),
   midi.NoteOffEvent(tick=480, channel=4, data=[33, 95]),
   midi.NoteOnEvent(tick=0, channel=4, data=[33, 95]),
   midi.NoteOffEvent(tick=480, channel=4, data=[33, 95]),
   midi.NoteOnEvent(tick=0, channel=4, data=[33, 95]),
   midi.NoteOffEvent(tick=480, channel=4, data=[33, 95]),
   midi.NoteOnEvent(tick=0, channel=4, data=[33, 95]),
   midi.NoteOffEvent(tick=480, channel=4, data=[33, 95]),
   midi.NoteOnEvent(tick=0, channel=4, data=[33, 95]),
   midi.NoteOffEvent(tick=480, channel=4, data=[33, 95]),
   midi.NoteOnEvent(tick=0, channel=4, data=[33, 95]),
   midi.NoteOffEvent(tick=480, channel=4, data=[33, 95]),
   midi.NoteOnEvent(tick=0, channel=4, data=[33, 95]),
   midi.NoteOffEvent(tick=480, channel=4, data=[33, 95]),
   midi.NoteOnEvent(tick=0, channel=4, data=[32, 95]),
   midi.NoteOffEvent(tick=480, channel=4, data=[32, 95]),
   midi.NoteOnEvent(tick=0, channel=4, data=[32, 95]),
   midi.NoteOffEvent(tick=480, channel=4, data=[32, 95]),
   midi.NoteOnEvent(tick=0, channel=4, data=[33, 95]),
   midi.NoteOffEvent(tick=480, channel=4, data=[33, 95]),
   midi.NoteOnEvent(tick=0, channel=4, data=[33, 95]),
   midi.NoteOffEvent(tick=480, channel=4, data=[33, 95]),
   midi.NoteOnEvent(tick=0, channel=4, data=[32, 95]),
   midi.NoteOffEvent(tick=480, channel=4, data=[32, 95]),
   midi.NoteOnEvent(tick=0, channel=4, data=[32, 95]),
   midi.NoteOffEvent(tick=480, channel=4, data=[32, 95]),
   midi.NoteOnEvent(tick=0, channel=4, data=[29, 95]),
   midi.NoteOffEvent(tick=480, channel=4, data=[29, 95]),
   midi.NoteOnEvent(tick=0, channel=4, data=[29, 95]),
   midi.NoteOffEvent(tick=480, channel=4, data=[29, 95]),
   midi.NoteOnEvent(tick=0, channel=4, data=[29, 95]),
   midi.NoteOffEvent(tick=480, channel=4, data=[29, 95]),
   midi.NoteOnEvent(tick=0, channel=4, data=[29, 95]),
   midi.NoteOffEvent(tick=480, channel=4, data=[29, 95]),
   midi.NoteOnEvent(tick=0, channel=4, data=[29, 95]),
   midi.NoteOffEvent(tick=480, channel=4, data=[29, 95]),
   midi.NoteOnEvent(tick=0, channel=4, data=[29, 95]),
   midi.NoteOffEvent(tick=480, channel=4, data=[29, 95]),
   midi.NoteOnEvent(tick=0, channel=4, data=[29, 95]),
   midi.NoteOffEvent(tick=480, channel=4, data=[29, 95]),
   midi.NoteOnEvent(tick=0, channel=4, data=[29, 95]),
   midi.NoteOffEvent(tick=480, channel=4, data=[29, 95]),
   midi.NoteOnEvent(tick=0, channel=4, data=[29, 95]),
   midi.NoteOffEvent(tick=480, channel=4, data=[29, 95]),
   midi.NoteOnEvent(tick=0, channel=4, data=[29, 95]),
   midi.NoteOffEvent(tick=480, channel=4, data=[29, 95]),
   midi.NoteOnEvent(tick=0, channel=4, data=[29, 95]),
   midi.NoteOffEvent(tick=480, channel=4, data=[29, 95]),
   midi.NoteOnEvent(tick=0, channel=4, data=[29, 95]),
   midi.NoteOffEvent(tick=480, channel=4, data=[29, 95]),
   midi.NoteOnEvent(tick=0, channel=4, data=[29, 95]),
   midi.NoteOffEvent(tick=480, channel=4, data=[29, 95]),
   midi.NoteOnEvent(tick=0, channel=4, data=[29, 95]),
   midi.NoteOffEvent(tick=480, channel=4, data=[29, 95]),
   midi.NoteOnEvent(tick=0, channel=4, data=[32, 95]),
   midi.NoteOffEvent(tick=480, channel=4, data=[32, 95]),
   midi.NoteOnEvent(tick=0, channel=4, data=[32, 95]),
   midi.NoteOffEvent(tick=480, channel=4, data=[32, 95]),
   midi.NoteOnEvent(tick=0, channel=4, data=[33, 95]),
   midi.NoteOffEvent(tick=480, channel=4, data=[33, 95]),
   midi.NoteOnEvent(tick=0, channel=4, data=[33, 95]),
   midi.NoteOffEvent(tick=480, channel=4, data=[33, 95]),
   midi.NoteOnEvent(tick=0, channel=4, data=[33, 95]),
   midi.NoteOffEvent(tick=480, channel=4, data=[33, 95]),
   midi.NoteOnEvent(tick=0, channel=4, data=[33, 95]),
   midi.NoteOffEvent(tick=480, channel=4, data=[33, 95]),
   midi.NoteOnEvent(tick=0, channel=4, data=[33, 95]),
   midi.NoteOffEvent(tick=480, channel=4, data=[33, 95]),
   midi.NoteOnEvent(tick=0, channel=4, data=[33, 95]),
   midi.NoteOffEvent(tick=480, channel=4, data=[33, 95]),
   midi.NoteOnEvent(tick=0, channel=4, data=[33, 95]),
   midi.NoteOffEvent(tick=480, channel=4, data=[33, 95]),
   midi.NoteOnEvent(tick=0, channel=4, data=[33, 95]),
   midi.NoteOffEvent(tick=480, channel=4, data=[33, 95]),
   midi.NoteOnEvent(tick=0, channel=4, data=[33, 95]),
   midi.NoteOffEvent(tick=480, channel=4, data=[33, 95]),
   midi.NoteOnEvent(tick=0, channel=4, data=[33, 95]),
   midi.NoteOffEvent(tick=480, channel=4, data=[33, 95]),
   midi.NoteOnEvent(tick=0, channel=4, data=[32, 95]),
   midi.NoteOffEvent(tick=480, channel=4, data=[32, 95]),
   midi.NoteOnEvent(tick=0, channel=4, data=[33, 95]),
   midi.NoteOffEvent(tick=480, channel=4, data=[33, 95]),
   midi.NoteOnEvent(tick=0, channel=4, data=[32, 95]),
   midi.NoteOffEvent(tick=480, channel=4, data=[32, 95]),
   midi.NoteOnEvent(tick=0, channel=4, data=[32, 95]),
   midi.NoteOffEvent(tick=480, channel=4, data=[32, 95]),
   midi.NoteOnEvent(tick=0, channel=4, data=[33, 95]),
   midi.NoteOffEvent(tick=480, channel=4, data=[33, 95]),
   midi.NoteOnEvent(tick=0, channel=4, data=[32, 95]),
   midi.NoteOffEvent(tick=480, channel=4, data=[32, 95]),
   midi.NoteOnEvent(tick=0, channel=4, data=[29, 95]),
   midi.NoteOffEvent(tick=480, channel=4, data=[29, 95]),
   midi.NoteOnEvent(tick=0, channel=4, data=[29, 95]),
   midi.NoteOffEvent(tick=480, channel=4, data=[29, 95]),
   midi.NoteOnEvent(tick=0, channel=4, data=[29, 95]),
   midi.NoteOffEvent(tick=480, channel=4, data=[29, 95]),
   midi.NoteOnEvent(tick=0, channel=4, data=[29, 95]),
   midi.NoteOffEvent(tick=480, channel=4, data=[29, 95]),
   midi.NoteOnEvent(tick=0, channel=4, data=[29, 95]),
   midi.NoteOffEvent(tick=480, channel=4, data=[29, 95]),
   midi.NoteOnEvent(tick=0, channel=4, data=[29, 95]),
   midi.NoteOffEvent(tick=480, channel=4, data=[29, 95]),
   midi.NoteOnEvent(tick=0, channel=4, data=[29, 95]),
   midi.NoteOffEvent(tick=480, channel=4, data=[29, 95]),
   midi.NoteOnEvent(tick=0, channel=4, data=[29, 95]),
   midi.NoteOffEvent(tick=480, channel=4, data=[29, 95]),
   midi.NoteOnEvent(tick=0, channel=4, data=[29, 95]),
   midi.NoteOffEvent(tick=480, channel=4, data=[29, 95]),
   midi.NoteOnEvent(tick=0, channel=4, data=[29, 95]),
   midi.NoteOffEvent(tick=480, channel=4, data=[29, 95]),
   midi.NoteOnEvent(tick=0, channel=4, data=[29, 95]),
   midi.NoteOffEvent(tick=480, channel=4, data=[29, 95]),
   midi.NoteOnEvent(tick=0, channel=4, data=[29, 95]),
   midi.NoteOffEvent(tick=480, channel=4, data=[29, 95]),
   midi.NoteOnEvent(tick=0, channel=4, data=[29, 95]),
   midi.NoteOffEvent(tick=480, channel=4, data=[29, 95]),
   midi.NoteOnEvent(tick=0, channel=4, data=[29, 95]),
   midi.NoteOffEvent(tick=480, channel=4, data=[29, 95]),
   midi.NoteOnEvent(tick=0, channel=4, data=[29, 95]),
   midi.NoteOffEvent(tick=480, channel=4, data=[29, 95]),
   midi.NoteOnEvent(tick=0, channel=4, data=[29, 95]),
   midi.NoteOffEvent(tick=480, channel=4, data=[29, 95]),
   midi.NoteOnEvent(tick=0, channel=4, data=[33, 95]),
   midi.NoteOffEvent(tick=480, channel=4, data=[33, 95]),
   midi.NoteOnEvent(tick=0, channel=4, data=[33, 95]),
   midi.NoteOffEvent(tick=480, channel=4, data=[33, 95]),
   midi.NoteOnEvent(tick=0, channel=4, data=[33, 95]),
   midi.NoteOffEvent(tick=480, channel=4, data=[33, 95]),
   midi.NoteOnEvent(tick=0, channel=4, data=[33, 95]),
   midi.NoteOffEvent(tick=480, channel=4, data=[33, 95]),
   midi.NoteOnEvent(tick=0, channel=4, data=[33, 95]),
   midi.NoteOffEvent(tick=480, channel=4, data=[33, 95]),
   midi.NoteOnEvent(tick=0, channel=4, data=[33, 95]),
   midi.NoteOffEvent(tick=480, channel=4, data=[33, 95]),
   midi.NoteOnEvent(tick=0, channel=4, data=[33, 95]),
   midi.NoteOffEvent(tick=480, channel=4, data=[33, 95]),
   midi.NoteOnEvent(tick=0, channel=4, data=[33, 95]),
   midi.NoteOffEvent(tick=480, channel=4, data=[33, 95]),
   midi.NoteOnEvent(tick=0, channel=4, data=[33, 95]),
   midi.NoteOffEvent(tick=480, channel=4, data=[33, 95]),
   midi.NoteOnEvent(tick=0, channel=4, data=[33, 95]),
   midi.NoteOffEvent(tick=480, channel=4, data=[33, 95]),
   midi.NoteOnEvent(tick=0, channel=4, data=[32, 95]),
   midi.NoteOffEvent(tick=480, channel=4, data=[32, 95]),
   midi.NoteOnEvent(tick=0, channel=4, data=[32, 95]),
   midi.NoteOffEvent(tick=480, channel=4, data=[32, 95]),
   midi.NoteOnEvent(tick=0, channel=4, data=[33, 95]),
   midi.NoteOffEvent(tick=480, channel=4, data=[33, 95]),
   midi.NoteOnEvent(tick=0, channel=4, data=[33, 95]),
   midi.NoteOffEvent(tick=480, channel=4, data=[33, 95]),
   midi.NoteOnEvent(tick=0, channel=4, data=[32, 95]),
   midi.NoteOffEvent(tick=480, channel=4, data=[32, 95]),
   midi.NoteOnEvent(tick=0, channel=4, data=[32, 95]),
   midi.NoteOffEvent(tick=480, channel=4, data=[32, 95]),
   midi.NoteOnEvent(tick=0, channel=4, data=[29, 95]),
   midi.NoteOffEvent(tick=480, channel=4, data=[29, 95]),
   midi.NoteOnEvent(tick=0, channel=4, data=[29, 95]),
   midi.NoteOffEvent(tick=480, channel=4, data=[29, 95]),
   midi.NoteOnEvent(tick=0, channel=4, data=[29, 95]),
   midi.NoteOffEvent(tick=480, channel=4, data=[29, 95]),
   midi.NoteOnEvent(tick=0, channel=4, data=[29, 95]),
   midi.NoteOffEvent(tick=480, channel=4, data=[29, 95]),
   midi.NoteOnEvent(tick=0, channel=4, data=[29, 95]),
   midi.NoteOffEvent(tick=480, channel=4, data=[29, 95]),
   midi.NoteOnEvent(tick=0, channel=4, data=[29, 95]),
   midi.NoteOffEvent(tick=480, channel=4, data=[29, 95]),
   midi.NoteOnEvent(tick=0, channel=4, data=[29, 95]),
   midi.NoteOffEvent(tick=480, channel=4, data=[29, 95]),
   midi.NoteOnEvent(tick=0, channel=4, data=[29, 95]),
   midi.NoteOffEvent(tick=480, channel=4, data=[29, 95]),
   midi.NoteOnEvent(tick=0, channel=4, data=[29, 95]),
   midi.NoteOffEvent(tick=480, channel=4, data=[29, 95]),
   midi.NoteOnEvent(tick=0, channel=4, data=[29, 95]),
   midi.NoteOffEvent(tick=480, channel=4, data=[29, 95]),
   midi.NoteOnEvent(tick=0, channel=4, data=[29, 95]),
   midi.NoteOffEvent(tick=480, channel=4, data=[29, 95]),
   midi.NoteOnEvent(tick=0, channel=4, data=[29, 95]),
   midi.NoteOffEvent(tick=480, channel=4, data=[29, 95]),
   midi.NoteOnEvent(tick=0, channel=4, data=[29, 95]),
   midi.NoteOffEvent(tick=480, channel=4, data=[29, 95]),
   midi.NoteOnEvent(tick=0, channel=4, data=[29, 95]),
   midi.NoteOffEvent(tick=480, channel=4, data=[29, 95]),
   midi.NoteOnEvent(tick=0, channel=4, data=[32, 95]),
   midi.NoteOffEvent(tick=480, channel=4, data=[32, 95]),
   midi.NoteOnEvent(tick=0, channel=4, data=[32, 95]),
   midi.NoteOffEvent(tick=480, channel=4, data=[32, 95]),
   midi.NoteOnEvent(tick=0, channel=4, data=[33, 95]),
   midi.NoteOffEvent(tick=480, channel=4, data=[33, 95]),
   midi.NoteOnEvent(tick=0, channel=4, data=[33, 95]),
   midi.NoteOffEvent(tick=480, channel=4, data=[33, 95]),
   midi.NoteOnEvent(tick=0, channel=4, data=[33, 95]),
   midi.NoteOffEvent(tick=480, channel=4, data=[33, 95]),
   midi.NoteOnEvent(tick=0, channel=4, data=[33, 95]),
   midi.NoteOffEvent(tick=480, channel=4, data=[33, 95]),
   midi.NoteOnEvent(tick=0, channel=4, data=[33, 95]),
   midi.NoteOffEvent(tick=480, channel=4, data=[33, 95]),
   midi.NoteOnEvent(tick=0, channel=4, data=[33, 95]),
   midi.NoteOffEvent(tick=480, channel=4, data=[33, 95]),
   midi.NoteOnEvent(tick=0, channel=4, data=[33, 95]),
   midi.NoteOffEvent(tick=480, channel=4, data=[33, 95]),
   midi.NoteOnEvent(tick=0, channel=4, data=[33, 95]),
   midi.NoteOffEvent(tick=480, channel=4, data=[33, 95]),
   midi.NoteOnEvent(tick=0, channel=4, data=[33, 95]),
   midi.NoteOffEvent(tick=480, channel=4, data=[33, 95]),
   midi.NoteOnEvent(tick=0, channel=4, data=[33, 95]),
   midi.NoteOffEvent(tick=480, channel=4, data=[33, 95]),
   midi.NoteOnEvent(tick=0, channel=4, data=[32, 95]),
   midi.NoteOffEvent(tick=480, channel=4, data=[32, 95]),
   midi.NoteOnEvent(tick=0, channel=4, data=[33, 95]),
   midi.NoteOffEvent(tick=480, channel=4, data=[33, 95]),
   midi.NoteOnEvent(tick=0, channel=4, data=[32, 95]),
   midi.NoteOffEvent(tick=480, channel=4, data=[32, 95]),
   midi.NoteOnEvent(tick=0, channel=4, data=[32, 95]),
   midi.NoteOffEvent(tick=480, channel=4, data=[32, 95]),
   midi.NoteOnEvent(tick=0, channel=4, data=[33, 95]),
   midi.NoteOffEvent(tick=480, channel=4, data=[33, 95]),
   midi.NoteOnEvent(tick=0, channel=4, data=[32, 95]),
   midi.NoteOffEvent(tick=480, channel=4, data=[32, 95]),
   midi.NoteOnEvent(tick=0, channel=4, data=[29, 95]),
   midi.NoteOffEvent(tick=480, channel=4, data=[29, 95]),
   midi.NoteOnEvent(tick=0, channel=4, data=[29, 95]),
   midi.NoteOffEvent(tick=480, channel=4, data=[29, 95]),
   midi.NoteOnEvent(tick=0, channel=4, data=[29, 95]),
   midi.NoteOffEvent(tick=480, channel=4, data=[29, 95]),
   midi.NoteOnEvent(tick=0, channel=4, data=[29, 95]),
   midi.NoteOffEvent(tick=480, channel=4, data=[29, 95]),
   midi.NoteOnEvent(tick=0, channel=4, data=[29, 95]),
   midi.NoteOffEvent(tick=480, channel=4, data=[29, 95]),
   midi.NoteOnEvent(tick=0, channel=4, data=[29, 95]),
   midi.NoteOffEvent(tick=480, channel=4, data=[29, 95]),
   midi.NoteOnEvent(tick=0, channel=4, data=[29, 95]),
   midi.NoteOffEvent(tick=480, channel=4, data=[29, 95]),
   midi.NoteOnEvent(tick=0, channel=4, data=[29, 95]),
   midi.NoteOffEvent(tick=480, channel=4, data=[29, 95]),
   midi.NoteOnEvent(tick=0, channel=4, data=[29, 95]),
   midi.NoteOffEvent(tick=480, channel=4, data=[29, 95]),
   midi.NoteOnEvent(tick=0, channel=4, data=[29, 95]),
   midi.NoteOffEvent(tick=480, channel=4, data=[29, 95]),
   midi.NoteOnEvent(tick=0, channel=4, data=[29, 95]),
   midi.NoteOffEvent(tick=480, channel=4, data=[29, 95]),
   midi.NoteOnEvent(tick=0, channel=4, data=[29, 95]),
   midi.NoteOffEvent(tick=480, channel=4, data=[29, 95]),
   midi.NoteOnEvent(tick=0, channel=4, data=[29, 95]),
   midi.NoteOffEvent(tick=480, channel=4, data=[29, 95]),
   midi.NoteOnEvent(tick=0, channel=4, data=[29, 95]),
   midi.NoteOffEvent(tick=480, channel=4, data=[29, 95]),
   midi.NoteOnEvent(tick=0, channel=4, data=[29, 95]),
   midi.NoteOffEvent(tick=480, channel=4, data=[29, 95]),
   midi.NoteOnEvent(tick=0, channel=4, data=[29, 95]),
   midi.NoteOffEvent(tick=480, channel=4, data=[29, 95]),
   midi.NoteOnEvent(tick=0, channel=4, data=[37, 95]),
   midi.NoteOffEvent(tick=480, channel=4, data=[37, 95]),
   midi.NoteOnEvent(tick=0, channel=4, data=[29, 95]),
   midi.NoteOffEvent(tick=240, channel=4, data=[29, 95]),
   midi.NoteOnEvent(tick=0, channel=4, data=[29, 95]),
   midi.NoteOffEvent(tick=240, channel=4, data=[29, 95]),
   midi.NoteOnEvent(tick=0, channel=4, data=[29, 95]),
   midi.NoteOffEvent(tick=240, channel=4, data=[29, 95]),
   midi.NoteOnEvent(tick=0, channel=4, data=[29, 95]),
   midi.NoteOffEvent(tick=240, channel=4, data=[29, 95]),
   midi.NoteOnEvent(tick=0, channel=4, data=[29, 95]),
   midi.NoteOffEvent(tick=480, channel=4, data=[29, 95]),
   midi.NoteOnEvent(tick=0, channel=4, data=[36, 95]),
   midi.NoteOffEvent(tick=480, channel=4, data=[36, 95]),
   midi.NoteOnEvent(tick=0, channel=4, data=[29, 95]),
   midi.NoteOffEvent(tick=240, channel=4, data=[29, 95]),
   midi.NoteOnEvent(tick=0, channel=4, data=[29, 95]),
   midi.NoteOffEvent(tick=240, channel=4, data=[29, 95]),
   midi.NoteOnEvent(tick=0, channel=4, data=[29, 95]),
   midi.NoteOffEvent(tick=240, channel=4, data=[29, 95]),
   midi.NoteOnEvent(tick=0, channel=4, data=[29, 95]),
   midi.NoteOffEvent(tick=240, channel=4, data=[29, 95]),
   midi.NoteOnEvent(tick=0, channel=4, data=[29, 95]),
   midi.NoteOffEvent(tick=480, channel=4, data=[29, 95]),
   midi.NoteOnEvent(tick=0, channel=4, data=[40, 95]),
   midi.NoteOffEvent(tick=480, channel=4, data=[40, 95]),
   midi.NoteOnEvent(tick=0, channel=4, data=[29, 95]),
   midi.NoteOffEvent(tick=240, channel=4, data=[29, 95]),
   midi.NoteOnEvent(tick=0, channel=4, data=[29, 95]),
   midi.NoteOffEvent(tick=240, channel=4, data=[29, 95]),
   midi.NoteOnEvent(tick=0, channel=4, data=[29, 95]),
   midi.NoteOffEvent(tick=480, channel=4, data=[29, 95]),
   midi.NoteOnEvent(tick=0, channel=4, data=[39, 95]),
   midi.NoteOffEvent(tick=480, channel=4, data=[39, 95]),
   midi.NoteOnEvent(tick=0, channel=4, data=[29, 95]),
   midi.NoteOffEvent(tick=240, channel=4, data=[29, 95]),
   midi.NoteOnEvent(tick=0, channel=4, data=[29, 95]),
   midi.NoteOffEvent(tick=240, channel=4, data=[29, 95]),
   midi.NoteOnEvent(tick=0, channel=4, data=[29, 95]),
   midi.NoteOffEvent(tick=480, channel=4, data=[29, 95]),
   midi.NoteOnEvent(tick=0, channel=4, data=[35, 95]),
   midi.NoteOffEvent(tick=480, channel=4, data=[35, 95]),
   midi.NoteOnEvent(tick=0, channel=4, data=[29, 95]),
   midi.NoteOffEvent(tick=480, channel=4, data=[29, 95]),
   midi.NoteOnEvent(tick=0, channel=4, data=[37, 95]),
   midi.NoteOffEvent(tick=480, channel=4, data=[37, 95]),
   midi.NoteOnEvent(tick=0, channel=4, data=[29, 95]),
   midi.NoteOffEvent(tick=240, channel=4, data=[29, 95]),
   midi.NoteOnEvent(tick=0, channel=4, data=[29, 95]),
   midi.NoteOffEvent(tick=240, channel=4, data=[29, 95]),
   midi.NoteOnEvent(tick=0, channel=4, data=[29, 95]),
   midi.NoteOffEvent(tick=240, channel=4, data=[29, 95]),
   midi.NoteOnEvent(tick=0, channel=4, data=[29, 95]),
   midi.NoteOffEvent(tick=240, channel=4, data=[29, 95]),
   midi.NoteOnEvent(tick=0, channel=4, data=[29, 95]),
   midi.NoteOffEvent(tick=480, channel=4, data=[29, 95]),
   midi.NoteOnEvent(tick=0, channel=4, data=[36, 95]),
   midi.NoteOffEvent(tick=480, channel=4, data=[36, 95]),
   midi.NoteOnEvent(tick=0, channel=4, data=[29, 95]),
   midi.NoteOffEvent(tick=240, channel=4, data=[29, 95]),
   midi.NoteOnEvent(tick=0, channel=4, data=[29, 95]),
   midi.NoteOffEvent(tick=240, channel=4, data=[29, 95]),
   midi.NoteOnEvent(tick=0, channel=4, data=[29, 95]),
   midi.NoteOffEvent(tick=240, channel=4, data=[29, 95]),
   midi.NoteOnEvent(tick=0, channel=4, data=[29, 95]),
   midi.NoteOffEvent(tick=240, channel=4, data=[29, 95]),
   midi.NoteOnEvent(tick=0, channel=4, data=[29, 95]),
   midi.NoteOffEvent(tick=480, channel=4, data=[29, 95]),
   midi.NoteOnEvent(tick=0, channel=4, data=[40, 95]),
   midi.NoteOffEvent(tick=480, channel=4, data=[40, 95]),
   midi.NoteOnEvent(tick=0, channel=4, data=[29, 95]),
   midi.NoteOffEvent(tick=240, channel=4, data=[29, 95]),
   midi.NoteOnEvent(tick=0, channel=4, data=[29, 95]),
   midi.NoteOffEvent(tick=240, channel=4, data=[29, 95]),
   midi.NoteOnEvent(tick=0, channel=4, data=[29, 95]),
   midi.NoteOffEvent(tick=480, channel=4, data=[29, 95]),
   midi.NoteOnEvent(tick=0, channel=4, data=[39, 95]),
   midi.NoteOffEvent(tick=480, channel=4, data=[39, 95]),
   midi.NoteOnEvent(tick=0, channel=4, data=[29, 95]),
   midi.NoteOffEvent(tick=240, channel=4, data=[29, 95]),
   midi.NoteOnEvent(tick=0, channel=4, data=[29, 95]),
   midi.NoteOffEvent(tick=240, channel=4, data=[29, 95]),
   midi.NoteOnEvent(tick=0, channel=4, data=[29, 95]),
   midi.NoteOffEvent(tick=480, channel=4, data=[29, 95]),
   midi.NoteOnEvent(tick=0, channel=4, data=[35, 95]),
   midi.NoteOffEvent(tick=480, channel=4, data=[35, 95]),
   midi.NoteOnEvent(tick=0, channel=4, data=[29, 95]),
   midi.NoteOffEvent(tick=480, channel=4, data=[29, 95]),
   midi.NoteOnEvent(tick=0, channel=4, data=[37, 95]),
   midi.NoteOffEvent(tick=480, channel=4, data=[37, 95]),
   midi.NoteOnEvent(tick=0, channel=4, data=[29, 95]),
   midi.NoteOffEvent(tick=240, channel=4, data=[29, 95]),
   midi.NoteOnEvent(tick=0, channel=4, data=[29, 95]),
   midi.NoteOffEvent(tick=240, channel=4, data=[29, 95]),
   midi.NoteOnEvent(tick=0, channel=4, data=[29, 95]),
   midi.NoteOffEvent(tick=240, channel=4, data=[29, 95]),
   midi.NoteOnEvent(tick=0, channel=4, data=[29, 95]),
   midi.NoteOffEvent(tick=240, channel=4, data=[29, 95]),
   midi.NoteOnEvent(tick=0, channel=4, data=[29, 95]),
   midi.NoteOffEvent(tick=480, channel=4, data=[29, 95]),
   midi.NoteOnEvent(tick=0, channel=4, data=[36, 95]),
   midi.NoteOffEvent(tick=480, channel=4, data=[36, 95]),
   midi.NoteOnEvent(tick=0, channel=4, data=[29, 95]),
   midi.NoteOffEvent(tick=240, channel=4, data=[29, 95]),
   midi.NoteOnEvent(tick=0, channel=4, data=[29, 95]),
   midi.NoteOffEvent(tick=240, channel=4, data=[29, 95]),
   midi.NoteOnEvent(tick=0, channel=4, data=[29, 95]),
   midi.NoteOffEvent(tick=240, channel=4, data=[29, 95]),
   midi.NoteOnEvent(tick=0, channel=4, data=[29, 95]),
   midi.NoteOffEvent(tick=240, channel=4, data=[29, 95]),
   midi.NoteOnEvent(tick=0, channel=4, data=[29, 95]),
   midi.NoteOffEvent(tick=480, channel=4, data=[29, 95]),
   midi.NoteOnEvent(tick=0, channel=4, data=[40, 95]),
   midi.NoteOffEvent(tick=480, channel=4, data=[40, 95]),
   midi.NoteOnEvent(tick=0, channel=4, data=[29, 95]),
   midi.NoteOffEvent(tick=240, channel=4, data=[29, 95]),
   midi.NoteOnEvent(tick=0, channel=4, data=[29, 95]),
   midi.NoteOffEvent(tick=240, channel=4, data=[29, 95]),
   midi.NoteOnEvent(tick=0, channel=4, data=[29, 95]),
   midi.NoteOffEvent(tick=480, channel=4, data=[29, 95]),
   midi.NoteOnEvent(tick=0, channel=4, data=[39, 95]),
   midi.NoteOffEvent(tick=480, channel=4, data=[39, 95]),
   midi.NoteOnEvent(tick=0, channel=4, data=[29, 95]),
   midi.NoteOffEvent(tick=240, channel=4, data=[29, 95]),
   midi.NoteOnEvent(tick=0, channel=4, data=[29, 95]),
   midi.NoteOffEvent(tick=240, channel=4, data=[29, 95]),
   midi.NoteOnEvent(tick=0, channel=4, data=[29, 95]),
   midi.NoteOffEvent(tick=480, channel=4, data=[29, 95]),
   midi.NoteOnEvent(tick=0, channel=4, data=[35, 95]),
   midi.NoteOffEvent(tick=480, channel=4, data=[35, 95]),
   midi.NoteOnEvent(tick=0, channel=4, data=[29, 95]),
   midi.NoteOffEvent(tick=480, channel=4, data=[29, 95]),
   midi.NoteOnEvent(tick=0, channel=4, data=[37, 95]),
   midi.NoteOffEvent(tick=480, channel=4, data=[37, 95]),
   midi.NoteOnEvent(tick=0, channel=4, data=[29, 95]),
   midi.NoteOffEvent(tick=240, channel=4, data=[29, 95]),
   midi.NoteOnEvent(tick=0, channel=4, data=[29, 95]),
   midi.NoteOffEvent(tick=240, channel=4, data=[29, 95]),
   midi.NoteOnEvent(tick=0, channel=4, data=[29, 95]),
   midi.NoteOffEvent(tick=240, channel=4, data=[29, 95]),
   midi.NoteOnEvent(tick=0, channel=4, data=[29, 95]),
   midi.NoteOffEvent(tick=240, channel=4, data=[29, 95]),
   midi.NoteOnEvent(tick=0, channel=4, data=[29, 95]),
   midi.NoteOffEvent(tick=480, channel=4, data=[29, 95]),
   midi.NoteOnEvent(tick=0, channel=4, data=[36, 95]),
   midi.NoteOffEvent(tick=480, channel=4, data=[36, 95]),
   midi.NoteOnEvent(tick=0, channel=4, data=[29, 95]),
   midi.NoteOffEvent(tick=240, channel=4, data=[29, 95]),
   midi.NoteOnEvent(tick=0, channel=4, data=[29, 95]),
   midi.NoteOffEvent(tick=240, channel=4, data=[29, 95]),
   midi.NoteOnEvent(tick=0, channel=4, data=[29, 95]),
   midi.NoteOffEvent(tick=240, channel=4, data=[29, 95]),
   midi.NoteOnEvent(tick=0, channel=4, data=[29, 95]),
   midi.NoteOffEvent(tick=240, channel=4, data=[29, 95]),
   midi.NoteOnEvent(tick=0, channel=4, data=[29, 95]),
   midi.NoteOffEvent(tick=480, channel=4, data=[29, 95]),
   midi.NoteOnEvent(tick=0, channel=4, data=[40, 95]),
   midi.NoteOffEvent(tick=480, channel=4, data=[40, 95]),
   midi.NoteOnEvent(tick=0, channel=4, data=[29, 95]),
   midi.NoteOffEvent(tick=240, channel=4, data=[29, 95]),
   midi.NoteOnEvent(tick=0, channel=4, data=[29, 95]),
   midi.NoteOffEvent(tick=240, channel=4, data=[29, 95]),
   midi.NoteOnEvent(tick=0, channel=4, data=[29, 95]),
   midi.NoteOffEvent(tick=480, channel=4, data=[29, 95]),
   midi.NoteOnEvent(tick=0, channel=4, data=[39, 95]),
   midi.NoteOffEvent(tick=480, channel=4, data=[39, 95]),
   midi.NoteOnEvent(tick=0, channel=4, data=[29, 95]),
   midi.NoteOffEvent(tick=240, channel=4, data=[29, 95]),
   midi.NoteOnEvent(tick=0, channel=4, data=[29, 95]),
   midi.NoteOffEvent(tick=240, channel=4, data=[29, 95]),
   midi.NoteOnEvent(tick=0, channel=4, data=[29, 95]),
   midi.NoteOffEvent(tick=480, channel=4, data=[29, 95]),
   midi.NoteOnEvent(tick=0, channel=4, data=[35, 95]),
   midi.NoteOffEvent(tick=480, channel=4, data=[35, 95]),
   midi.NoteOnEvent(tick=0, channel=4, data=[29, 95]),
   midi.NoteOffEvent(tick=480, channel=4, data=[29, 95]),
   midi.NoteOnEvent(tick=0, channel=4, data=[31, 95]),
   midi.NoteOffEvent(tick=240, channel=4, data=[31, 95]),
   midi.NoteOnEvent(tick=0, channel=4, data=[31, 95]),
   midi.NoteOffEvent(tick=240, channel=4, data=[31, 95]),
   midi.NoteOnEvent(tick=0, channel=4, data=[31, 95]),
   midi.NoteOffEvent(tick=480, channel=4, data=[31, 95]),
   midi.NoteOnEvent(tick=0, channel=4, data=[35, 95]),
   midi.NoteOffEvent(tick=480, channel=4, data=[35, 95]),
   midi.NoteOnEvent(tick=0, channel=4, data=[34, 95]),
   midi.NoteOffEvent(tick=480, channel=4, data=[34, 95]),
   midi.NoteOnEvent(tick=0, channel=4, data=[31, 95]),
   midi.NoteOffEvent(tick=240, channel=4, data=[31, 95]),
   midi.NoteOnEvent(tick=0, channel=4, data=[31, 95]),
   midi.NoteOffEvent(tick=240, channel=4, data=[31, 95]),
   midi.NoteOnEvent(tick=0, channel=4, data=[31, 95]),
   midi.NoteOffEvent(tick=480, channel=4, data=[31, 95]),
   midi.NoteOnEvent(tick=0, channel=4, data=[34, 95]),
   midi.NoteOffEvent(tick=480, channel=4, data=[34, 95]),
   midi.NoteOnEvent(tick=0, channel=4, data=[32, 95]),
   midi.NoteOffEvent(tick=480, channel=4, data=[32, 95]),
   midi.NoteOnEvent(tick=0, channel=4, data=[31, 95]),
   midi.NoteOffEvent(tick=240, channel=4, data=[31, 95]),
   midi.NoteOnEvent(tick=0, channel=4, data=[31, 95]),
   midi.NoteOffEvent(tick=240, channel=4, data=[31, 95]),
   midi.NoteOnEvent(tick=0, channel=4, data=[31, 95]),
   midi.NoteOffEvent(tick=480, channel=4, data=[31, 95]),
   midi.NoteOnEvent(tick=0, channel=4, data=[35, 95]),
   midi.NoteOffEvent(tick=480, channel=4, data=[35, 95]),
   midi.NoteOnEvent(tick=0, channel=4, data=[34, 95]),
   midi.NoteOffEvent(tick=480, channel=4, data=[34, 95]),
   midi.NoteOnEvent(tick=0, channel=4, data=[31, 95]),
   midi.NoteOffEvent(tick=240, channel=4, data=[31, 95]),
   midi.NoteOnEvent(tick=0, channel=4, data=[31, 95]),
   midi.NoteOffEvent(tick=240, channel=4, data=[31, 95]),
   midi.NoteOnEvent(tick=0, channel=4, data=[31, 95]),
   midi.NoteOffEvent(tick=480, channel=4, data=[31, 95]),
   midi.NoteOnEvent(tick=0, channel=4, data=[38, 95]),
   midi.NoteOffEvent(tick=480, channel=4, data=[38, 95]),
   midi.NoteOnEvent(tick=0, channel=4, data=[39, 95]),
   midi.NoteOffEvent(tick=480, channel=4, data=[39, 95]),
   midi.NoteOnEvent(tick=0, channel=4, data=[31, 95]),
   midi.NoteOffEvent(tick=240, channel=4, data=[31, 95]),
   midi.NoteOnEvent(tick=0, channel=4, data=[31, 95]),
   midi.NoteOffEvent(tick=240, channel=4, data=[31, 95]),
   midi.NoteOnEvent(tick=0, channel=4, data=[31, 95]),
   midi.NoteOffEvent(tick=480, channel=4, data=[31, 95]),
   midi.NoteOnEvent(tick=0, channel=4, data=[35, 95]),
   midi.NoteOffEvent(tick=480, channel=4, data=[35, 95]),
   midi.NoteOnEvent(tick=0, channel=4, data=[34, 95]),
   midi.NoteOffEvent(tick=480, channel=4, data=[34, 95]),
   midi.NoteOnEvent(tick=0, channel=4, data=[31, 95]),
   midi.NoteOffEvent(tick=240, channel=4, data=[31, 95]),
   midi.NoteOnEvent(tick=0, channel=4, data=[31, 95]),
   midi.NoteOffEvent(tick=240, channel=4, data=[31, 95]),
   midi.NoteOnEvent(tick=0, channel=4, data=[31, 95]),
   midi.NoteOffEvent(tick=480, channel=4, data=[31, 95]),
   midi.NoteOnEvent(tick=0, channel=4, data=[34, 95]),
   midi.NoteOffEvent(tick=480, channel=4, data=[34, 95]),
   midi.NoteOnEvent(tick=0, channel=4, data=[32, 95]),
   midi.NoteOffEvent(tick=480, channel=4, data=[32, 95]),
   midi.NoteOnEvent(tick=0, channel=4, data=[31, 95]),
   midi.NoteOffEvent(tick=240, channel=4, data=[31, 95]),
   midi.NoteOnEvent(tick=0, channel=4, data=[31, 95]),
   midi.NoteOffEvent(tick=240, channel=4, data=[31, 95]),
   midi.NoteOnEvent(tick=0, channel=4, data=[31, 95]),
   midi.NoteOffEvent(tick=480, channel=4, data=[31, 95]),
   midi.NoteOnEvent(tick=0, channel=4, data=[35, 95]),
   midi.NoteOffEvent(tick=480, channel=4, data=[35, 95]),
   midi.NoteOnEvent(tick=0, channel=4, data=[34, 95]),
   midi.NoteOffEvent(tick=480, channel=4, data=[34, 95]),
   midi.NoteOnEvent(tick=0, channel=4, data=[31, 95]),
   midi.NoteOffEvent(tick=240, channel=4, data=[31, 95]),
   midi.NoteOnEvent(tick=0, channel=4, data=[31, 95]),
   midi.NoteOffEvent(tick=240, channel=4, data=[31, 95]),
   midi.NoteOnEvent(tick=0, channel=4, data=[31, 95]),
   midi.NoteOffEvent(tick=480, channel=4, data=[31, 95]),
   midi.NoteOnEvent(tick=0, channel=4, data=[34, 95]),
   midi.NoteOffEvent(tick=480, channel=4, data=[34, 95]),
   midi.NoteOnEvent(tick=0, channel=4, data=[32, 95]),
   midi.NoteOffEvent(tick=480, channel=4, data=[32, 95]),
   midi.NoteOnEvent(tick=0, channel=4, data=[31, 95]),
   midi.NoteOffEvent(tick=240, channel=4, data=[31, 95]),
   midi.NoteOnEvent(tick=0, channel=4, data=[31, 95]),
   midi.NoteOffEvent(tick=240, channel=4, data=[31, 95]),
   midi.NoteOnEvent(tick=0, channel=4, data=[31, 95]),
   midi.NoteOffEvent(tick=480, channel=4, data=[31, 95]),
   midi.NoteOnEvent(tick=0, channel=4, data=[35, 95]),
   midi.NoteOffEvent(tick=480, channel=4, data=[35, 95]),
   midi.NoteOnEvent(tick=0, channel=4, data=[34, 95]),
   midi.NoteOffEvent(tick=480, channel=4, data=[34, 95]),
   midi.NoteOnEvent(tick=0, channel=4, data=[31, 95]),
   midi.NoteOffEvent(tick=240, channel=4, data=[31, 95]),
   midi.NoteOnEvent(tick=0, channel=4, data=[31, 95]),
   midi.NoteOffEvent(tick=240, channel=4, data=[31, 95]),
   midi.NoteOnEvent(tick=0, channel=4, data=[31, 95]),
   midi.NoteOffEvent(tick=480, channel=4, data=[31, 95]),
   midi.NoteOnEvent(tick=0, channel=4, data=[38, 95]),
   midi.NoteOffEvent(tick=480, channel=4, data=[38, 95]),
   midi.NoteOnEvent(tick=0, channel=4, data=[39, 95]),
   midi.NoteOffEvent(tick=480, channel=4, data=[39, 95]),
   midi.NoteOnEvent(tick=0, channel=4, data=[31, 95]),
   midi.NoteOffEvent(tick=240, channel=4, data=[31, 95]),
   midi.NoteOnEvent(tick=0, channel=4, data=[31, 95]),
   midi.NoteOffEvent(tick=240, channel=4, data=[31, 95]),
   midi.NoteOnEvent(tick=0, channel=4, data=[31, 95]),
   midi.NoteOffEvent(tick=480, channel=4, data=[31, 95]),
   midi.NoteOnEvent(tick=0, channel=4, data=[35, 95]),
   midi.NoteOffEvent(tick=480, channel=4, data=[35, 95]),
   midi.NoteOnEvent(tick=0, channel=4, data=[34, 95]),
   midi.NoteOffEvent(tick=480, channel=4, data=[34, 95]),
   midi.NoteOnEvent(tick=0, channel=4, data=[31, 95]),
   midi.NoteOffEvent(tick=240, channel=4, data=[31, 95]),
   midi.NoteOnEvent(tick=0, channel=4, data=[31, 95]),
   midi.NoteOffEvent(tick=240, channel=4, data=[31, 95]),
   midi.NoteOnEvent(tick=0, channel=4, data=[31, 95]),
   midi.NoteOffEvent(tick=480, channel=4, data=[31, 95]),
   midi.NoteOnEvent(tick=0, channel=4, data=[34, 95]),
   midi.NoteOffEvent(tick=480, channel=4, data=[34, 95]),
   midi.NoteOnEvent(tick=0, channel=4, data=[32, 95]),
   midi.NoteOffEvent(tick=480, channel=4, data=[32, 95]),
   midi.NoteOnEvent(tick=0, channel=4, data=[31, 95]),
   midi.NoteOffEvent(tick=240, channel=4, data=[31, 95]),
   midi.NoteOnEvent(tick=0, channel=4, data=[31, 95]),
   midi.NoteOffEvent(tick=240, channel=4, data=[31, 95]),
   midi.NoteOnEvent(tick=0, channel=4, data=[31, 95]),
   midi.NoteOffEvent(tick=480, channel=4, data=[31, 95]),
   midi.NoteOnEvent(tick=0, channel=4, data=[35, 95]),
   midi.NoteOffEvent(tick=480, channel=4, data=[35, 95]),
   midi.NoteOnEvent(tick=0, channel=4, data=[34, 95]),
   midi.NoteOffEvent(tick=480, channel=4, data=[34, 95]),
   midi.NoteOnEvent(tick=0, channel=4, data=[31, 95]),
   midi.NoteOffEvent(tick=240, channel=4, data=[31, 95]),
   midi.NoteOnEvent(tick=0, channel=4, data=[31, 95]),
   midi.NoteOffEvent(tick=240, channel=4, data=[31, 95]),
   midi.NoteOnEvent(tick=0, channel=4, data=[31, 95]),
   midi.NoteOffEvent(tick=480, channel=4, data=[31, 95]),
   midi.NoteOnEvent(tick=0, channel=4, data=[38, 95]),
   midi.NoteOffEvent(tick=480, channel=4, data=[38, 95]),
   midi.NoteOnEvent(tick=0, channel=4, data=[39, 95]),
   midi.NoteOffEvent(tick=480, channel=4, data=[39, 95]),
   midi.NoteOnEvent(tick=0, channel=4, data=[31, 95]),
   midi.NoteOffEvent(tick=240, channel=4, data=[31, 95]),
   midi.NoteOnEvent(tick=0, channel=4, data=[31, 95]),
   midi.NoteOffEvent(tick=240, channel=4, data=[31, 95]),
   midi.NoteOnEvent(tick=0, channel=4, data=[31, 95]),
   midi.NoteOffEvent(tick=480, channel=4, data=[31, 95]),
   midi.NoteOnEvent(tick=0, channel=4, data=[35, 95]),
   midi.NoteOffEvent(tick=480, channel=4, data=[35, 95]),
   midi.NoteOnEvent(tick=0, channel=4, data=[34, 95]),
   midi.NoteOffEvent(tick=480, channel=4, data=[34, 95]),
   midi.NoteOnEvent(tick=0, channel=4, data=[30, 95]),
   midi.NoteOffEvent(tick=480, channel=4, data=[30, 95]),
   midi.NoteOnEvent(tick=0, channel=4, data=[30, 95]),
   midi.NoteOffEvent(tick=480, channel=4, data=[30, 95]),
   midi.NoteOnEvent(tick=0, channel=4, data=[30, 95]),
   midi.NoteOffEvent(tick=480, channel=4, data=[30, 95]),
   midi.NoteOnEvent(tick=0, channel=4, data=[30, 95]),
   midi.NoteOffEvent(tick=480, channel=4, data=[30, 95]),
   midi.NoteOnEvent(tick=0, channel=4, data=[30, 95]),
   midi.NoteOffEvent(tick=480, channel=4, data=[30, 95]),
   midi.NoteOnEvent(tick=0, channel=4, data=[30, 95]),
   midi.NoteOffEvent(tick=480, channel=4, data=[30, 95]),
   midi.NoteOnEvent(tick=0, channel=4, data=[30, 95]),
   midi.NoteOffEvent(tick=480, channel=4, data=[30, 95]),
   midi.NoteOnEvent(tick=0, channel=4, data=[30, 95]),
   midi.NoteOffEvent(tick=480, channel=4, data=[30, 95]),
   midi.NoteOnEvent(tick=0, channel=4, data=[30, 95]),
   midi.NoteOffEvent(tick=480, channel=4, data=[30, 95]),
   midi.NoteOnEvent(tick=0, channel=4, data=[30, 95]),
   midi.NoteOffEvent(tick=480, channel=4, data=[30, 95]),
   midi.NoteOnEvent(tick=0, channel=4, data=[30, 95]),
   midi.NoteOffEvent(tick=480, channel=4, data=[30, 95]),
   midi.NoteOnEvent(tick=0, channel=4, data=[30, 95]),
   midi.NoteOffEvent(tick=480, channel=4, data=[30, 95]),
   midi.NoteOnEvent(tick=0, channel=4, data=[30, 95]),
   midi.NoteOffEvent(tick=480, channel=4, data=[30, 95]),
   midi.NoteOnEvent(tick=0, channel=4, data=[30, 95]),
   midi.NoteOffEvent(tick=480, channel=4, data=[30, 95]),
   midi.NoteOnEvent(tick=0, channel=4, data=[30, 95]),
   midi.NoteOffEvent(tick=480, channel=4, data=[30, 95]),
   midi.NoteOnEvent(tick=0, channel=4, data=[30, 95]),
   midi.NoteOffEvent(tick=480, channel=4, data=[30, 95]),
   midi.NoteOnEvent(tick=0, channel=4, data=[30, 95]),
   midi.NoteOffEvent(tick=480, channel=4, data=[30, 95]),
   midi.NoteOnEvent(tick=0, channel=4, data=[30, 95]),
   midi.NoteOffEvent(tick=480, channel=4, data=[30, 95]),
   midi.NoteOnEvent(tick=0, channel=4, data=[30, 95]),
   midi.NoteOffEvent(tick=480, channel=4, data=[30, 95]),
   midi.NoteOnEvent(tick=0, channel=4, data=[30, 95]),
   midi.NoteOffEvent(tick=480, channel=4, data=[30, 95]),
   midi.NoteOnEvent(tick=0, channel=4, data=[27, 95]),
   midi.NoteOffEvent(tick=15360, channel=4, data=[27, 95]),
   midi.NoteOnEvent(tick=0, channel=4, data=[27, 95]),
   midi.NoteOffEvent(tick=1920, channel=4, data=[27, 95]),
   midi.EndOfTrackEvent(tick=0, data=[])]),
 midi.Track(\
  [midi.PitchWheelEvent(tick=0, channel=9, data=[0, 64]),
   midi.ControlChangeEvent(tick=0, channel=9, data=[7, 127]),
   midi.ControlChangeEvent(tick=0, channel=9, data=[10, 63]),
   midi.ControlChangeEvent(tick=0, channel=9, data=[93, 0]),
   midi.ControlChangeEvent(tick=0, channel=9, data=[91, 0]),
   midi.ControlChangeEvent(tick=0, channel=9, data=[95, 0]),
   midi.ControlChangeEvent(tick=0, channel=9, data=[92, 0]),
   midi.ControlChangeEvent(tick=0, channel=9, data=[11, 127]),
   midi.ProgramChangeEvent(tick=0, channel=9, data=[0]),
   midi.NoteOnEvent(tick=30720, channel=9, data=[47, 95]),
   midi.NoteOffEvent(tick=480, channel=9, data=[47, 95]),
   midi.NoteOnEvent(tick=0, channel=9, data=[47, 95]),
   midi.NoteOffEvent(tick=480, channel=9, data=[47, 95]),
   midi.NoteOnEvent(tick=0, channel=9, data=[47, 95]),
   midi.NoteOffEvent(tick=480, channel=9, data=[47, 95]),
   midi.NoteOnEvent(tick=0, channel=9, data=[47, 95]),
   midi.NoteOffEvent(tick=480, channel=9, data=[47, 95]),
   midi.NoteOnEvent(tick=0, channel=9, data=[47, 95]),
   midi.NoteOffEvent(tick=480, channel=9, data=[47, 95]),
   midi.NoteOnEvent(tick=0, channel=9, data=[47, 95]),
   midi.NoteOffEvent(tick=480, channel=9, data=[47, 95]),
   midi.NoteOnEvent(tick=0, channel=9, data=[47, 95]),
   midi.NoteOffEvent(tick=480, channel=9, data=[47, 95]),
   midi.NoteOnEvent(tick=0, channel=9, data=[47, 95]),
   midi.NoteOffEvent(tick=480, channel=9, data=[47, 95]),
   midi.NoteOnEvent(tick=0, channel=9, data=[45, 95]),
   midi.NoteOffEvent(tick=240, channel=9, data=[45, 95]),
   midi.NoteOnEvent(tick=0, channel=9, data=[45, 95]),
   midi.NoteOffEvent(tick=240, channel=9, data=[45, 95]),
   midi.NoteOnEvent(tick=0, channel=9, data=[45, 95]),
   midi.NoteOffEvent(tick=480, channel=9, data=[45, 95]),
   midi.NoteOnEvent(tick=0, channel=9, data=[47, 95]),
   midi.NoteOffEvent(tick=480, channel=9, data=[47, 95]),
   midi.NoteOnEvent(tick=0, channel=9, data=[47, 95]),
   midi.NoteOffEvent(tick=240, channel=9, data=[47, 95]),
   midi.NoteOnEvent(tick=0, channel=9, data=[47, 95]),
   midi.NoteOffEvent(tick=240, channel=9, data=[47, 95]),
   midi.NoteOnEvent(tick=0, channel=9, data=[48, 95]),
   midi.NoteOffEvent(tick=480, channel=9, data=[48, 95]),
   midi.NoteOnEvent(tick=0, channel=9, data=[48, 95]),
   midi.NoteOffEvent(tick=480, channel=9, data=[48, 95]),
   midi.NoteOnEvent(tick=0, channel=9, data=[48, 95]),
   midi.NoteOffEvent(tick=240, channel=9, data=[48, 95]),
   midi.NoteOnEvent(tick=0, channel=9, data=[48, 95]),
   midi.NoteOffEvent(tick=240, channel=9, data=[48, 95]),
   midi.NoteOnEvent(tick=0, channel=9, data=[48, 95]),
   midi.NoteOffEvent(tick=480, channel=9, data=[48, 95]),
   midi.NoteOnEvent(tick=0, channel=9, data=[47, 95]),
   midi.NoteOffEvent(tick=480, channel=9, data=[47, 95]),
   midi.NoteOnEvent(tick=0, channel=9, data=[47, 95]),
   midi.NoteOffEvent(tick=480, channel=9, data=[47, 95]),
   midi.NoteOnEvent(tick=0, channel=9, data=[47, 95]),
   midi.NoteOffEvent(tick=480, channel=9, data=[47, 95]),
   midi.NoteOnEvent(tick=0, channel=9, data=[47, 95]),
   midi.NoteOffEvent(tick=480, channel=9, data=[47, 95]),
   midi.NoteOnEvent(tick=0, channel=9, data=[47, 95]),
   midi.NoteOffEvent(tick=480, channel=9, data=[47, 95]),
   midi.NoteOnEvent(tick=0, channel=9, data=[47, 95]),
   midi.NoteOffEvent(tick=480, channel=9, data=[47, 95]),
   midi.NoteOnEvent(tick=0, channel=9, data=[47, 95]),
   midi.NoteOffEvent(tick=480, channel=9, data=[47, 95]),
   midi.NoteOnEvent(tick=0, channel=9, data=[47, 95]),
   midi.NoteOffEvent(tick=480, channel=9, data=[47, 95]),
   midi.NoteOnEvent(tick=0, channel=9, data=[45, 95]),
   midi.NoteOffEvent(tick=240, channel=9, data=[45, 95]),
   midi.NoteOnEvent(tick=0, channel=9, data=[45, 95]),
   midi.NoteOffEvent(tick=240, channel=9, data=[45, 95]),
   midi.NoteOnEvent(tick=0, channel=9, data=[45, 95]),
   midi.NoteOffEvent(tick=480, channel=9, data=[45, 95]),
   midi.NoteOnEvent(tick=0, channel=9, data=[47, 95]),
   midi.NoteOffEvent(tick=480, channel=9, data=[47, 95]),
   midi.NoteOnEvent(tick=0, channel=9, data=[47, 95]),
   midi.NoteOffEvent(tick=240, channel=9, data=[47, 95]),
   midi.NoteOnEvent(tick=0, channel=9, data=[47, 95]),
   midi.NoteOffEvent(tick=240, channel=9, data=[47, 95]),
   midi.NoteOnEvent(tick=0, channel=9, data=[48, 95]),
   midi.NoteOffEvent(tick=480, channel=9, data=[48, 95]),
   midi.NoteOnEvent(tick=0, channel=9, data=[48, 95]),
   midi.NoteOffEvent(tick=480, channel=9, data=[48, 95]),
   midi.NoteOnEvent(tick=0, channel=9, data=[48, 95]),
   midi.NoteOffEvent(tick=240, channel=9, data=[48, 95]),
   midi.NoteOnEvent(tick=0, channel=9, data=[48, 95]),
   midi.NoteOffEvent(tick=240, channel=9, data=[48, 95]),
   midi.NoteOnEvent(tick=0, channel=9, data=[48, 95]),
   midi.NoteOffEvent(tick=480, channel=9, data=[48, 95]),
   midi.NoteOnEvent(tick=0, channel=9, data=[47, 95]),
   midi.NoteOffEvent(tick=480, channel=9, data=[47, 95]),
   midi.NoteOnEvent(tick=0, channel=9, data=[47, 95]),
   midi.NoteOffEvent(tick=480, channel=9, data=[47, 95]),
   midi.NoteOnEvent(tick=0, channel=9, data=[47, 95]),
   midi.NoteOffEvent(tick=480, channel=9, data=[47, 95]),
   midi.NoteOnEvent(tick=0, channel=9, data=[47, 95]),
   midi.NoteOffEvent(tick=480, channel=9, data=[47, 95]),
   midi.NoteOnEvent(tick=0, channel=9, data=[47, 95]),
   midi.NoteOffEvent(tick=480, channel=9, data=[47, 95]),
   midi.NoteOnEvent(tick=0, channel=9, data=[47, 95]),
   midi.NoteOffEvent(tick=480, channel=9, data=[47, 95]),
   midi.NoteOnEvent(tick=0, channel=9, data=[47, 95]),
   midi.NoteOffEvent(tick=480, channel=9, data=[47, 95]),
   midi.NoteOnEvent(tick=0, channel=9, data=[47, 95]),
   midi.NoteOffEvent(tick=480, channel=9, data=[47, 95]),
   midi.NoteOnEvent(tick=0, channel=9, data=[45, 95]),
   midi.NoteOffEvent(tick=240, channel=9, data=[45, 95]),
   midi.NoteOnEvent(tick=0, channel=9, data=[45, 95]),
   midi.NoteOffEvent(tick=240, channel=9, data=[45, 95]),
   midi.NoteOnEvent(tick=0, channel=9, data=[45, 95]),
   midi.NoteOffEvent(tick=480, channel=9, data=[45, 95]),
   midi.NoteOnEvent(tick=0, channel=9, data=[47, 95]),
   midi.NoteOffEvent(tick=480, channel=9, data=[47, 95]),
   midi.NoteOnEvent(tick=0, channel=9, data=[47, 95]),
   midi.NoteOffEvent(tick=240, channel=9, data=[47, 95]),
   midi.NoteOnEvent(tick=0, channel=9, data=[47, 95]),
   midi.NoteOffEvent(tick=240, channel=9, data=[47, 95]),
   midi.NoteOnEvent(tick=0, channel=9, data=[48, 95]),
   midi.NoteOffEvent(tick=480, channel=9, data=[48, 95]),
   midi.NoteOnEvent(tick=0, channel=9, data=[48, 95]),
   midi.NoteOffEvent(tick=480, channel=9, data=[48, 95]),
   midi.NoteOnEvent(tick=0, channel=9, data=[48, 95]),
   midi.NoteOffEvent(tick=240, channel=9, data=[48, 95]),
   midi.NoteOnEvent(tick=0, channel=9, data=[48, 95]),
   midi.NoteOffEvent(tick=240, channel=9, data=[48, 95]),
   midi.NoteOnEvent(tick=0, channel=9, data=[48, 95]),
   midi.NoteOffEvent(tick=480, channel=9, data=[48, 95]),
   midi.NoteOnEvent(tick=0, channel=9, data=[47, 95]),
   midi.NoteOffEvent(tick=480, channel=9, data=[47, 95]),
   midi.NoteOnEvent(tick=0, channel=9, data=[47, 95]),
   midi.NoteOffEvent(tick=480, channel=9, data=[47, 95]),
   midi.NoteOnEvent(tick=0, channel=9, data=[47, 95]),
   midi.NoteOffEvent(tick=480, channel=9, data=[47, 95]),
   midi.NoteOnEvent(tick=0, channel=9, data=[47, 95]),
   midi.NoteOffEvent(tick=480, channel=9, data=[47, 95]),
   midi.NoteOnEvent(tick=0, channel=9, data=[47, 95]),
   midi.NoteOffEvent(tick=480, channel=9, data=[47, 95]),
   midi.NoteOnEvent(tick=0, channel=9, data=[47, 95]),
   midi.NoteOffEvent(tick=480, channel=9, data=[47, 95]),
   midi.NoteOnEvent(tick=0, channel=9, data=[47, 95]),
   midi.NoteOffEvent(tick=480, channel=9, data=[47, 95]),
   midi.NoteOnEvent(tick=0, channel=9, data=[47, 95]),
   midi.NoteOffEvent(tick=480, channel=9, data=[47, 95]),
   midi.NoteOnEvent(tick=0, channel=9, data=[45, 95]),
   midi.NoteOffEvent(tick=240, channel=9, data=[45, 95]),
   midi.NoteOnEvent(tick=0, channel=9, data=[45, 95]),
   midi.NoteOffEvent(tick=240, channel=9, data=[45, 95]),
   midi.NoteOnEvent(tick=0, channel=9, data=[45, 95]),
   midi.NoteOffEvent(tick=480, channel=9, data=[45, 95]),
   midi.NoteOnEvent(tick=0, channel=9, data=[47, 95]),
   midi.NoteOffEvent(tick=480, channel=9, data=[47, 95]),
   midi.NoteOnEvent(tick=0, channel=9, data=[47, 95]),
   midi.NoteOffEvent(tick=240, channel=9, data=[47, 95]),
   midi.NoteOnEvent(tick=0, channel=9, data=[47, 95]),
   midi.NoteOffEvent(tick=240, channel=9, data=[47, 95]),
   midi.NoteOnEvent(tick=0, channel=9, data=[48, 95]),
   midi.NoteOffEvent(tick=480, channel=9, data=[48, 95]),
   midi.NoteOnEvent(tick=0, channel=9, data=[48, 95]),
   midi.NoteOffEvent(tick=480, channel=9, data=[48, 95]),
   midi.NoteOnEvent(tick=0, channel=9, data=[48, 95]),
   midi.NoteOffEvent(tick=240, channel=9, data=[48, 95]),
   midi.NoteOnEvent(tick=0, channel=9, data=[48, 95]),
   midi.NoteOffEvent(tick=240, channel=9, data=[48, 95]),
   midi.NoteOnEvent(tick=0, channel=9, data=[48, 95]),
   midi.NoteOffEvent(tick=480, channel=9, data=[48, 95]),
   midi.NoteOnEvent(tick=0, channel=9, data=[47, 95]),
   midi.NoteOffEvent(tick=480, channel=9, data=[47, 95]),
   midi.NoteOnEvent(tick=0, channel=9, data=[47, 95]),
   midi.NoteOffEvent(tick=480, channel=9, data=[47, 95]),
   midi.NoteOnEvent(tick=0, channel=9, data=[47, 95]),
   midi.NoteOffEvent(tick=480, channel=9, data=[47, 95]),
   midi.NoteOnEvent(tick=0, channel=9, data=[47, 95]),
   midi.NoteOffEvent(tick=480, channel=9, data=[47, 95]),
   midi.NoteOnEvent(tick=0, channel=9, data=[47, 95]),
   midi.NoteOffEvent(tick=480, channel=9, data=[47, 95]),
   midi.NoteOnEvent(tick=0, channel=9, data=[47, 95]),
   midi.NoteOffEvent(tick=480, channel=9, data=[47, 95]),
   midi.NoteOnEvent(tick=0, channel=9, data=[47, 95]),
   midi.NoteOffEvent(tick=480, channel=9, data=[47, 95]),
   midi.NoteOnEvent(tick=0, channel=9, data=[47, 95]),
   midi.NoteOffEvent(tick=480, channel=9, data=[47, 95]),
   midi.NoteOnEvent(tick=0, channel=9, data=[45, 95]),
   midi.NoteOffEvent(tick=240, channel=9, data=[45, 95]),
   midi.NoteOnEvent(tick=0, channel=9, data=[45, 95]),
   midi.NoteOffEvent(tick=240, channel=9, data=[45, 95]),
   midi.NoteOnEvent(tick=0, channel=9, data=[45, 95]),
   midi.NoteOffEvent(tick=480, channel=9, data=[45, 95]),
   midi.NoteOnEvent(tick=0, channel=9, data=[47, 95]),
   midi.NoteOffEvent(tick=480, channel=9, data=[47, 95]),
   midi.NoteOnEvent(tick=0, channel=9, data=[47, 95]),
   midi.NoteOffEvent(tick=240, channel=9, data=[47, 95]),
   midi.NoteOnEvent(tick=0, channel=9, data=[47, 95]),
   midi.NoteOffEvent(tick=240, channel=9, data=[47, 95]),
   midi.NoteOnEvent(tick=0, channel=9, data=[48, 95]),
   midi.NoteOffEvent(tick=480, channel=9, data=[48, 95]),
   midi.NoteOnEvent(tick=0, channel=9, data=[48, 95]),
   midi.NoteOffEvent(tick=480, channel=9, data=[48, 95]),
   midi.NoteOnEvent(tick=0, channel=9, data=[48, 95]),
   midi.NoteOffEvent(tick=240, channel=9, data=[48, 95]),
   midi.NoteOnEvent(tick=0, channel=9, data=[48, 95]),
   midi.NoteOffEvent(tick=240, channel=9, data=[48, 95]),
   midi.NoteOnEvent(tick=0, channel=9, data=[48, 95]),
   midi.NoteOffEvent(tick=480, channel=9, data=[48, 95]),
   midi.NoteOnEvent(tick=0, channel=9, data=[47, 95]),
   midi.NoteOffEvent(tick=480, channel=9, data=[47, 95]),
   midi.NoteOnEvent(tick=0, channel=9, data=[47, 95]),
   midi.NoteOffEvent(tick=480, channel=9, data=[47, 95]),
   midi.NoteOnEvent(tick=0, channel=9, data=[47, 95]),
   midi.NoteOffEvent(tick=480, channel=9, data=[47, 95]),
   midi.NoteOnEvent(tick=0, channel=9, data=[47, 95]),
   midi.NoteOffEvent(tick=480, channel=9, data=[47, 95]),
   midi.NoteOnEvent(tick=0, channel=9, data=[47, 95]),
   midi.NoteOffEvent(tick=480, channel=9, data=[47, 95]),
   midi.NoteOnEvent(tick=0, channel=9, data=[47, 95]),
   midi.NoteOffEvent(tick=480, channel=9, data=[47, 95]),
   midi.NoteOnEvent(tick=0, channel=9, data=[47, 95]),
   midi.NoteOffEvent(tick=480, channel=9, data=[47, 95]),
   midi.NoteOnEvent(tick=0, channel=9, data=[47, 95]),
   midi.NoteOffEvent(tick=480, channel=9, data=[47, 95]),
   midi.NoteOnEvent(tick=0, channel=9, data=[45, 95]),
   midi.NoteOffEvent(tick=240, channel=9, data=[45, 95]),
   midi.NoteOnEvent(tick=0, channel=9, data=[45, 95]),
   midi.NoteOffEvent(tick=240, channel=9, data=[45, 95]),
   midi.NoteOnEvent(tick=0, channel=9, data=[45, 95]),
   midi.NoteOffEvent(tick=480, channel=9, data=[45, 95]),
   midi.NoteOnEvent(tick=0, channel=9, data=[47, 95]),
   midi.NoteOffEvent(tick=480, channel=9, data=[47, 95]),
   midi.NoteOnEvent(tick=0, channel=9, data=[47, 95]),
   midi.NoteOffEvent(tick=240, channel=9, data=[47, 95]),
   midi.NoteOnEvent(tick=0, channel=9, data=[47, 95]),
   midi.NoteOffEvent(tick=240, channel=9, data=[47, 95]),
   midi.NoteOnEvent(tick=0, channel=9, data=[48, 95]),
   midi.NoteOffEvent(tick=480, channel=9, data=[48, 95]),
   midi.NoteOnEvent(tick=0, channel=9, data=[48, 95]),
   midi.NoteOffEvent(tick=480, channel=9, data=[48, 95]),
   midi.NoteOnEvent(tick=0, channel=9, data=[48, 95]),
   midi.NoteOffEvent(tick=240, channel=9, data=[48, 95]),
   midi.NoteOnEvent(tick=0, channel=9, data=[48, 95]),
   midi.NoteOffEvent(tick=240, channel=9, data=[48, 95]),
   midi.NoteOnEvent(tick=0, channel=9, data=[48, 95]),
   midi.NoteOffEvent(tick=480, channel=9, data=[48, 95]),
   midi.NoteOnEvent(tick=0, channel=9, data=[46, 95]),
   midi.NoteOffEvent(tick=960, channel=9, data=[46, 95]),
   midi.NoteOnEvent(tick=0, channel=9, data=[46, 95]),
   midi.NoteOffEvent(tick=960, channel=9, data=[46, 95]),
   midi.NoteOnEvent(tick=0, channel=9, data=[46, 95]),
   midi.NoteOffEvent(tick=960, channel=9, data=[46, 95]),
   midi.NoteOnEvent(tick=0, channel=9, data=[46, 95]),
   midi.NoteOffEvent(tick=960, channel=9, data=[46, 95]),
   midi.NoteOnEvent(tick=0, channel=9, data=[49, 95]),
   midi.NoteOnEvent(tick=0, channel=9, data=[35, 95]),
   midi.NoteOffEvent(tick=480, channel=9, data=[49, 95]),
   midi.NoteOffEvent(tick=0, channel=9, data=[35, 95]),
   midi.NoteOnEvent(tick=0, channel=9, data=[46, 95]),
   midi.NoteOnEvent(tick=0, channel=9, data=[38, 95]),
   midi.NoteOffEvent(tick=480, channel=9, data=[46, 95]),
   midi.NoteOffEvent(tick=0, channel=9, data=[38, 95]),
   midi.NoteOnEvent(tick=0, channel=9, data=[46, 95]),
   midi.NoteOnEvent(tick=0, channel=9, data=[35, 95]),
   midi.NoteOffEvent(tick=480, channel=9, data=[46, 95]),
   midi.NoteOffEvent(tick=0, channel=9, data=[35, 95]),
   midi.NoteOnEvent(tick=0, channel=9, data=[46, 95]),
   midi.NoteOnEvent(tick=0, channel=9, data=[38, 95]),
   midi.NoteOffEvent(tick=480, channel=9, data=[46, 95]),
   midi.NoteOffEvent(tick=0, channel=9, data=[38, 95]),
   midi.NoteOnEvent(tick=0, channel=9, data=[46, 95]),
   midi.NoteOnEvent(tick=0, channel=9, data=[35, 95]),
   midi.NoteOffEvent(tick=480, channel=9, data=[46, 95]),
   midi.NoteOffEvent(tick=0, channel=9, data=[35, 95]),
   midi.NoteOnEvent(tick=0, channel=9, data=[46, 95]),
   midi.NoteOnEvent(tick=0, channel=9, data=[38, 95]),
   midi.NoteOffEvent(tick=480, channel=9, data=[46, 95]),
   midi.NoteOffEvent(tick=0, channel=9, data=[38, 95]),
   midi.NoteOnEvent(tick=0, channel=9, data=[46, 95]),
   midi.NoteOnEvent(tick=0, channel=9, data=[35, 95]),
   midi.NoteOffEvent(tick=480, channel=9, data=[46, 95]),
   midi.NoteOffEvent(tick=0, channel=9, data=[35, 95]),
   midi.NoteOnEvent(tick=0, channel=9, data=[46, 95]),
   midi.NoteOnEvent(tick=0, channel=9, data=[38, 95]),
   midi.NoteOffEvent(tick=480, channel=9, data=[46, 95]),
   midi.NoteOffEvent(tick=0, channel=9, data=[38, 95]),
   midi.NoteOnEvent(tick=0, channel=9, data=[46, 95]),
   midi.NoteOnEvent(tick=0, channel=9, data=[35, 95]),
   midi.NoteOffEvent(tick=480, channel=9, data=[46, 95]),
   midi.NoteOffEvent(tick=0, channel=9, data=[35, 95]),
   midi.NoteOnEvent(tick=0, channel=9, data=[46, 95]),
   midi.NoteOnEvent(tick=0, channel=9, data=[38, 95]),
   midi.NoteOffEvent(tick=480, channel=9, data=[46, 95]),
   midi.NoteOffEvent(tick=0, channel=9, data=[38, 95]),
   midi.NoteOnEvent(tick=0, channel=9, data=[46, 95]),
   midi.NoteOnEvent(tick=0, channel=9, data=[35, 95]),
   midi.NoteOffEvent(tick=480, channel=9, data=[46, 95]),
   midi.NoteOffEvent(tick=0, channel=9, data=[35, 95]),
   midi.NoteOnEvent(tick=0, channel=9, data=[46, 95]),
   midi.NoteOnEvent(tick=0, channel=9, data=[38, 95]),
   midi.NoteOffEvent(tick=480, channel=9, data=[46, 95]),
   midi.NoteOffEvent(tick=0, channel=9, data=[38, 95]),
   midi.NoteOnEvent(tick=0, channel=9, data=[46, 95]),
   midi.NoteOnEvent(tick=0, channel=9, data=[35, 95]),
   midi.NoteOffEvent(tick=480, channel=9, data=[46, 95]),
   midi.NoteOffEvent(tick=0, channel=9, data=[35, 95]),
   midi.NoteOnEvent(tick=0, channel=9, data=[46, 95]),
   midi.NoteOnEvent(tick=0, channel=9, data=[38, 95]),
   midi.NoteOffEvent(tick=480, channel=9, data=[46, 95]),
   midi.NoteOffEvent(tick=0, channel=9, data=[38, 95]),
   midi.NoteOnEvent(tick=0, channel=9, data=[46, 95]),
   midi.NoteOnEvent(tick=0, channel=9, data=[35, 95]),
   midi.NoteOffEvent(tick=480, channel=9, data=[46, 95]),
   midi.NoteOffEvent(tick=0, channel=9, data=[35, 95]),
   midi.NoteOnEvent(tick=0, channel=9, data=[46, 95]),
   midi.NoteOnEvent(tick=0, channel=9, data=[38, 95]),
   midi.NoteOffEvent(tick=480, channel=9, data=[46, 95]),
   midi.NoteOffEvent(tick=0, channel=9, data=[38, 95]),
   midi.NoteOnEvent(tick=0, channel=9, data=[49, 95]),
   midi.NoteOnEvent(tick=0, channel=9, data=[35, 95]),
   midi.NoteOffEvent(tick=480, channel=9, data=[49, 95]),
   midi.NoteOffEvent(tick=0, channel=9, data=[35, 95]),
   midi.NoteOnEvent(tick=0, channel=9, data=[46, 95]),
   midi.NoteOnEvent(tick=0, channel=9, data=[38, 95]),
   midi.NoteOffEvent(tick=480, channel=9, data=[46, 95]),
   midi.NoteOffEvent(tick=0, channel=9, data=[38, 95]),
   midi.NoteOnEvent(tick=0, channel=9, data=[46, 95]),
   midi.NoteOnEvent(tick=0, channel=9, data=[35, 95]),
   midi.NoteOffEvent(tick=480, channel=9, data=[46, 95]),
   midi.NoteOffEvent(tick=0, channel=9, data=[35, 95]),
   midi.NoteOnEvent(tick=0, channel=9, data=[46, 95]),
   midi.NoteOnEvent(tick=0, channel=9, data=[38, 95]),
   midi.NoteOffEvent(tick=480, channel=9, data=[46, 95]),
   midi.NoteOffEvent(tick=0, channel=9, data=[38, 95]),
   midi.NoteOnEvent(tick=0, channel=9, data=[46, 95]),
   midi.NoteOnEvent(tick=0, channel=9, data=[35, 95]),
   midi.NoteOffEvent(tick=480, channel=9, data=[46, 95]),
   midi.NoteOffEvent(tick=0, channel=9, data=[35, 95]),
   midi.NoteOnEvent(tick=0, channel=9, data=[46, 95]),
   midi.NoteOnEvent(tick=0, channel=9, data=[38, 95]),
   midi.NoteOffEvent(tick=480, channel=9, data=[46, 95]),
   midi.NoteOffEvent(tick=0, channel=9, data=[38, 95]),
   midi.NoteOnEvent(tick=0, channel=9, data=[46, 95]),
   midi.NoteOnEvent(tick=0, channel=9, data=[35, 95]),
   midi.NoteOffEvent(tick=480, channel=9, data=[46, 95]),
   midi.NoteOffEvent(tick=0, channel=9, data=[35, 95]),
   midi.NoteOnEvent(tick=0, channel=9, data=[46, 95]),
   midi.NoteOnEvent(tick=0, channel=9, data=[38, 95]),
   midi.NoteOffEvent(tick=480, channel=9, data=[46, 95]),
   midi.NoteOffEvent(tick=0, channel=9, data=[38, 95]),
   midi.NoteOnEvent(tick=0, channel=9, data=[46, 95]),
   midi.NoteOnEvent(tick=0, channel=9, data=[35, 95]),
   midi.NoteOffEvent(tick=480, channel=9, data=[46, 95]),
   midi.NoteOffEvent(tick=0, channel=9, data=[35, 95]),
   midi.NoteOnEvent(tick=0, channel=9, data=[46, 95]),
   midi.NoteOnEvent(tick=0, channel=9, data=[38, 95]),
   midi.NoteOffEvent(tick=480, channel=9, data=[46, 95]),
   midi.NoteOffEvent(tick=0, channel=9, data=[38, 95]),
   midi.NoteOnEvent(tick=0, channel=9, data=[46, 95]),
   midi.NoteOnEvent(tick=0, channel=9, data=[35, 95]),
   midi.NoteOffEvent(tick=480, channel=9, data=[46, 95]),
   midi.NoteOffEvent(tick=0, channel=9, data=[35, 95]),
   midi.NoteOnEvent(tick=0, channel=9, data=[46, 95]),
   midi.NoteOnEvent(tick=0, channel=9, data=[38, 95]),
   midi.NoteOffEvent(tick=480, channel=9, data=[46, 95]),
   midi.NoteOffEvent(tick=0, channel=9, data=[38, 95]),
   midi.NoteOnEvent(tick=0, channel=9, data=[46, 95]),
   midi.NoteOnEvent(tick=0, channel=9, data=[35, 95]),
   midi.NoteOffEvent(tick=480, channel=9, data=[46, 95]),
   midi.NoteOffEvent(tick=0, channel=9, data=[35, 95]),
   midi.NoteOnEvent(tick=0, channel=9, data=[46, 95]),
   midi.NoteOnEvent(tick=0, channel=9, data=[38, 95]),
   midi.NoteOffEvent(tick=480, channel=9, data=[46, 95]),
   midi.NoteOffEvent(tick=0, channel=9, data=[38, 95]),
   midi.NoteOnEvent(tick=0, channel=9, data=[46, 95]),
   midi.NoteOnEvent(tick=0, channel=9, data=[35, 95]),
   midi.NoteOffEvent(tick=480, channel=9, data=[46, 95]),
   midi.NoteOffEvent(tick=0, channel=9, data=[35, 95]),
   midi.NoteOnEvent(tick=0, channel=9, data=[46, 95]),
   midi.NoteOnEvent(tick=0, channel=9, data=[38, 95]),
   midi.NoteOffEvent(tick=480, channel=9, data=[46, 95]),
   midi.NoteOffEvent(tick=0, channel=9, data=[38, 95]),
   midi.NoteOnEvent(tick=0, channel=9, data=[49, 95]),
   midi.NoteOnEvent(tick=0, channel=9, data=[35, 95]),
   midi.NoteOffEvent(tick=480, channel=9, data=[49, 95]),
   midi.NoteOffEvent(tick=0, channel=9, data=[35, 95]),
   midi.NoteOnEvent(tick=0, channel=9, data=[46, 95]),
   midi.NoteOnEvent(tick=0, channel=9, data=[38, 95]),
   midi.NoteOffEvent(tick=480, channel=9, data=[46, 95]),
   midi.NoteOffEvent(tick=0, channel=9, data=[38, 95]),
   midi.NoteOnEvent(tick=0, channel=9, data=[46, 95]),
   midi.NoteOnEvent(tick=0, channel=9, data=[35, 95]),
   midi.NoteOffEvent(tick=480, channel=9, data=[46, 95]),
   midi.NoteOffEvent(tick=0, channel=9, data=[35, 95]),
   midi.NoteOnEvent(tick=0, channel=9, data=[46, 95]),
   midi.NoteOnEvent(tick=0, channel=9, data=[38, 95]),
   midi.NoteOffEvent(tick=480, channel=9, data=[46, 95]),
   midi.NoteOffEvent(tick=0, channel=9, data=[38, 95]),
   midi.NoteOnEvent(tick=0, channel=9, data=[46, 95]),
   midi.NoteOnEvent(tick=0, channel=9, data=[35, 95]),
   midi.NoteOffEvent(tick=480, channel=9, data=[46, 95]),
   midi.NoteOffEvent(tick=0, channel=9, data=[35, 95]),
   midi.NoteOnEvent(tick=0, channel=9, data=[46, 95]),
   midi.NoteOnEvent(tick=0, channel=9, data=[38, 95]),
   midi.NoteOffEvent(tick=480, channel=9, data=[46, 95]),
   midi.NoteOffEvent(tick=0, channel=9, data=[38, 95]),
   midi.NoteOnEvent(tick=0, channel=9, data=[46, 95]),
   midi.NoteOnEvent(tick=0, channel=9, data=[35, 95]),
   midi.NoteOffEvent(tick=480, channel=9, data=[46, 95]),
   midi.NoteOffEvent(tick=0, channel=9, data=[35, 95]),
   midi.NoteOnEvent(tick=0, channel=9, data=[46, 95]),
   midi.NoteOnEvent(tick=0, channel=9, data=[38, 95]),
   midi.NoteOffEvent(tick=480, channel=9, data=[46, 95]),
   midi.NoteOffEvent(tick=0, channel=9, data=[38, 95]),
   midi.NoteOnEvent(tick=0, channel=9, data=[46, 95]),
   midi.NoteOnEvent(tick=0, channel=9, data=[35, 95]),
   midi.NoteOffEvent(tick=480, channel=9, data=[46, 95]),
   midi.NoteOffEvent(tick=0, channel=9, data=[35, 95]),
   midi.NoteOnEvent(tick=0, channel=9, data=[46, 95]),
   midi.NoteOnEvent(tick=0, channel=9, data=[38, 95]),
   midi.NoteOffEvent(tick=480, channel=9, data=[46, 95]),
   midi.NoteOffEvent(tick=0, channel=9, data=[38, 95]),
   midi.NoteOnEvent(tick=0, channel=9, data=[46, 95]),
   midi.NoteOnEvent(tick=0, channel=9, data=[35, 95]),
   midi.NoteOffEvent(tick=480, channel=9, data=[46, 95]),
   midi.NoteOffEvent(tick=0, channel=9, data=[35, 95]),
   midi.NoteOnEvent(tick=0, channel=9, data=[46, 95]),
   midi.NoteOnEvent(tick=0, channel=9, data=[38, 95]),
   midi.NoteOffEvent(tick=480, channel=9, data=[46, 95]),
   midi.NoteOffEvent(tick=0, channel=9, data=[38, 95]),
   midi.NoteOnEvent(tick=0, channel=9, data=[46, 95]),
   midi.NoteOnEvent(tick=0, channel=9, data=[35, 95]),
   midi.NoteOffEvent(tick=480, channel=9, data=[46, 95]),
   midi.NoteOffEvent(tick=0, channel=9, data=[35, 95]),
   midi.NoteOnEvent(tick=0, channel=9, data=[46, 95]),
   midi.NoteOnEvent(tick=0, channel=9, data=[38, 95]),
   midi.NoteOffEvent(tick=480, channel=9, data=[46, 95]),
   midi.NoteOffEvent(tick=0, channel=9, data=[38, 95]),
   midi.NoteOnEvent(tick=0, channel=9, data=[46, 95]),
   midi.NoteOnEvent(tick=0, channel=9, data=[35, 95]),
   midi.NoteOffEvent(tick=480, channel=9, data=[46, 95]),
   midi.NoteOffEvent(tick=0, channel=9, data=[35, 95]),
   midi.NoteOnEvent(tick=0, channel=9, data=[46, 95]),
   midi.NoteOnEvent(tick=0, channel=9, data=[38, 95]),
   midi.NoteOffEvent(tick=480, channel=9, data=[46, 95]),
   midi.NoteOffEvent(tick=0, channel=9, data=[38, 95]),
   midi.NoteOnEvent(tick=0, channel=9, data=[49, 95]),
   midi.NoteOnEvent(tick=0, channel=9, data=[35, 95]),
   midi.NoteOffEvent(tick=480, channel=9, data=[49, 95]),
   midi.NoteOffEvent(tick=0, channel=9, data=[35, 95]),
   midi.NoteOnEvent(tick=0, channel=9, data=[46, 95]),
   midi.NoteOnEvent(tick=0, channel=9, data=[38, 95]),
   midi.NoteOffEvent(tick=480, channel=9, data=[46, 95]),
   midi.NoteOffEvent(tick=0, channel=9, data=[38, 95]),
   midi.NoteOnEvent(tick=0, channel=9, data=[46, 95]),
   midi.NoteOnEvent(tick=0, channel=9, data=[35, 95]),
   midi.NoteOffEvent(tick=480, channel=9, data=[46, 95]),
   midi.NoteOffEvent(tick=0, channel=9, data=[35, 95]),
   midi.NoteOnEvent(tick=0, channel=9, data=[46, 95]),
   midi.NoteOnEvent(tick=0, channel=9, data=[38, 95]),
   midi.NoteOffEvent(tick=480, channel=9, data=[46, 95]),
   midi.NoteOffEvent(tick=0, channel=9, data=[38, 95]),
   midi.NoteOnEvent(tick=0, channel=9, data=[46, 95]),
   midi.NoteOnEvent(tick=0, channel=9, data=[35, 95]),
   midi.NoteOffEvent(tick=480, channel=9, data=[46, 95]),
   midi.NoteOffEvent(tick=0, channel=9, data=[35, 95]),
   midi.NoteOnEvent(tick=0, channel=9, data=[46, 95]),
   midi.NoteOnEvent(tick=0, channel=9, data=[38, 95]),
   midi.NoteOffEvent(tick=480, channel=9, data=[46, 95]),
   midi.NoteOffEvent(tick=0, channel=9, data=[38, 95]),
   midi.NoteOnEvent(tick=0, channel=9, data=[46, 95]),
   midi.NoteOnEvent(tick=0, channel=9, data=[35, 95]),
   midi.NoteOffEvent(tick=480, channel=9, data=[46, 95]),
   midi.NoteOffEvent(tick=0, channel=9, data=[35, 95]),
   midi.NoteOnEvent(tick=0, channel=9, data=[46, 95]),
   midi.NoteOnEvent(tick=0, channel=9, data=[38, 95]),
   midi.NoteOffEvent(tick=480, channel=9, data=[46, 95]),
   midi.NoteOffEvent(tick=0, channel=9, data=[38, 95]),
   midi.NoteOnEvent(tick=0, channel=9, data=[46, 95]),
   midi.NoteOnEvent(tick=0, channel=9, data=[35, 95]),
   midi.NoteOffEvent(tick=480, channel=9, data=[46, 95]),
   midi.NoteOffEvent(tick=0, channel=9, data=[35, 95]),
   midi.NoteOnEvent(tick=0, channel=9, data=[46, 95]),
   midi.NoteOnEvent(tick=0, channel=9, data=[38, 95]),
   midi.NoteOffEvent(tick=480, channel=9, data=[46, 95]),
   midi.NoteOffEvent(tick=0, channel=9, data=[38, 95]),
   midi.NoteOnEvent(tick=0, channel=9, data=[46, 95]),
   midi.NoteOnEvent(tick=0, channel=9, data=[35, 95]),
   midi.NoteOffEvent(tick=480, channel=9, data=[46, 95]),
   midi.NoteOffEvent(tick=0, channel=9, data=[35, 95]),
   midi.NoteOnEvent(tick=0, channel=9, data=[46, 95]),
   midi.NoteOnEvent(tick=0, channel=9, data=[38, 95]),
   midi.NoteOffEvent(tick=480, channel=9, data=[46, 95]),
   midi.NoteOffEvent(tick=0, channel=9, data=[38, 95]),
   midi.NoteOnEvent(tick=0, channel=9, data=[46, 95]),
   midi.NoteOnEvent(tick=0, channel=9, data=[35, 95]),
   midi.NoteOffEvent(tick=480, channel=9, data=[46, 95]),
   midi.NoteOffEvent(tick=0, channel=9, data=[35, 95]),
   midi.NoteOnEvent(tick=0, channel=9, data=[46, 95]),
   midi.NoteOnEvent(tick=0, channel=9, data=[38, 95]),
   midi.NoteOffEvent(tick=480, channel=9, data=[46, 95]),
   midi.NoteOffEvent(tick=0, channel=9, data=[38, 95]),
   midi.NoteOnEvent(tick=0, channel=9, data=[46, 95]),
   midi.NoteOnEvent(tick=0, channel=9, data=[35, 95]),
   midi.NoteOffEvent(tick=480, channel=9, data=[46, 95]),
   midi.NoteOffEvent(tick=0, channel=9, data=[35, 95]),
   midi.NoteOnEvent(tick=0, channel=9, data=[46, 95]),
   midi.NoteOnEvent(tick=0, channel=9, data=[38, 95]),
   midi.NoteOffEvent(tick=480, channel=9, data=[46, 95]),
   midi.NoteOffEvent(tick=0, channel=9, data=[38, 95]),
   midi.NoteOnEvent(tick=0, channel=9, data=[49, 95]),
   midi.NoteOnEvent(tick=0, channel=9, data=[35, 95]),
   midi.NoteOffEvent(tick=480, channel=9, data=[49, 95]),
   midi.NoteOffEvent(tick=0, channel=9, data=[35, 95]),
   midi.NoteOnEvent(tick=0, channel=9, data=[46, 95]),
   midi.NoteOnEvent(tick=0, channel=9, data=[38, 95]),
   midi.NoteOffEvent(tick=480, channel=9, data=[46, 95]),
   midi.NoteOffEvent(tick=0, channel=9, data=[38, 95]),
   midi.NoteOnEvent(tick=0, channel=9, data=[46, 95]),
   midi.NoteOnEvent(tick=0, channel=9, data=[35, 95]),
   midi.NoteOffEvent(tick=480, channel=9, data=[46, 95]),
   midi.NoteOffEvent(tick=0, channel=9, data=[35, 95]),
   midi.NoteOnEvent(tick=0, channel=9, data=[46, 95]),
   midi.NoteOnEvent(tick=0, channel=9, data=[38, 95]),
   midi.NoteOffEvent(tick=480, channel=9, data=[46, 95]),
   midi.NoteOffEvent(tick=0, channel=9, data=[38, 95]),
   midi.NoteOnEvent(tick=0, channel=9, data=[46, 95]),
   midi.NoteOnEvent(tick=0, channel=9, data=[35, 95]),
   midi.NoteOffEvent(tick=480, channel=9, data=[46, 95]),
   midi.NoteOffEvent(tick=0, channel=9, data=[35, 95]),
   midi.NoteOnEvent(tick=0, channel=9, data=[46, 95]),
   midi.NoteOnEvent(tick=0, channel=9, data=[38, 95]),
   midi.NoteOffEvent(tick=480, channel=9, data=[46, 95]),
   midi.NoteOffEvent(tick=0, channel=9, data=[38, 95]),
   midi.NoteOnEvent(tick=0, channel=9, data=[46, 95]),
   midi.NoteOnEvent(tick=0, channel=9, data=[35, 95]),
   midi.NoteOffEvent(tick=480, channel=9, data=[46, 95]),
   midi.NoteOffEvent(tick=0, channel=9, data=[35, 95]),
   midi.NoteOnEvent(tick=0, channel=9, data=[46, 95]),
   midi.NoteOnEvent(tick=0, channel=9, data=[38, 95]),
   midi.NoteOffEvent(tick=480, channel=9, data=[46, 95]),
   midi.NoteOffEvent(tick=0, channel=9, data=[38, 95]),
   midi.NoteOnEvent(tick=0, channel=9, data=[46, 95]),
   midi.NoteOnEvent(tick=0, channel=9, data=[35, 95]),
   midi.NoteOffEvent(tick=480, channel=9, data=[46, 95]),
   midi.NoteOffEvent(tick=0, channel=9, data=[35, 95]),
   midi.NoteOnEvent(tick=0, channel=9, data=[46, 95]),
   midi.NoteOnEvent(tick=0, channel=9, data=[38, 95]),
   midi.NoteOffEvent(tick=480, channel=9, data=[46, 95]),
   midi.NoteOffEvent(tick=0, channel=9, data=[38, 95]),
   midi.NoteOnEvent(tick=0, channel=9, data=[46, 95]),
   midi.NoteOnEvent(tick=0, channel=9, data=[35, 95]),
   midi.NoteOffEvent(tick=480, channel=9, data=[46, 95]),
   midi.NoteOffEvent(tick=0, channel=9, data=[35, 95]),
   midi.NoteOnEvent(tick=0, channel=9, data=[46, 95]),
   midi.NoteOnEvent(tick=0, channel=9, data=[38, 95]),
   midi.NoteOffEvent(tick=480, channel=9, data=[46, 95]),
   midi.NoteOffEvent(tick=0, channel=9, data=[38, 95]),
   midi.NoteOnEvent(tick=0, channel=9, data=[46, 95]),
   midi.NoteOnEvent(tick=0, channel=9, data=[35, 95]),
   midi.NoteOffEvent(tick=480, channel=9, data=[46, 95]),
   midi.NoteOffEvent(tick=0, channel=9, data=[35, 95]),
   midi.NoteOnEvent(tick=0, channel=9, data=[46, 95]),
   midi.NoteOnEvent(tick=0, channel=9, data=[38, 95]),
   midi.NoteOffEvent(tick=480, channel=9, data=[46, 95]),
   midi.NoteOffEvent(tick=0, channel=9, data=[38, 95]),
   midi.NoteOnEvent(tick=0, channel=9, data=[46, 95]),
   midi.NoteOnEvent(tick=0, channel=9, data=[35, 95]),
   midi.NoteOffEvent(tick=480, channel=9, data=[46, 95]),
   midi.NoteOffEvent(tick=0, channel=9, data=[35, 95]),
   midi.NoteOnEvent(tick=0, channel=9, data=[46, 95]),
   midi.NoteOnEvent(tick=0, channel=9, data=[38, 95]),
   midi.NoteOffEvent(tick=480, channel=9, data=[46, 95]),
   midi.NoteOffEvent(tick=0, channel=9, data=[38, 95]),
   midi.NoteOnEvent(tick=0, channel=9, data=[49, 95]),
   midi.NoteOnEvent(tick=0, channel=9, data=[35, 95]),
   midi.NoteOffEvent(tick=480, channel=9, data=[49, 95]),
   midi.NoteOffEvent(tick=0, channel=9, data=[35, 95]),
   midi.NoteOnEvent(tick=0, channel=9, data=[46, 95]),
   midi.NoteOnEvent(tick=0, channel=9, data=[38, 95]),
   midi.NoteOffEvent(tick=480, channel=9, data=[46, 95]),
   midi.NoteOffEvent(tick=0, channel=9, data=[38, 95]),
   midi.NoteOnEvent(tick=0, channel=9, data=[46, 95]),
   midi.NoteOnEvent(tick=0, channel=9, data=[35, 95]),
   midi.NoteOffEvent(tick=480, channel=9, data=[46, 95]),
   midi.NoteOffEvent(tick=0, channel=9, data=[35, 95]),
   midi.NoteOnEvent(tick=0, channel=9, data=[46, 95]),
   midi.NoteOnEvent(tick=0, channel=9, data=[38, 95]),
   midi.NoteOffEvent(tick=480, channel=9, data=[46, 95]),
   midi.NoteOffEvent(tick=0, channel=9, data=[38, 95]),
   midi.NoteOnEvent(tick=0, channel=9, data=[46, 95]),
   midi.NoteOnEvent(tick=0, channel=9, data=[35, 95]),
   midi.NoteOffEvent(tick=480, channel=9, data=[46, 95]),
   midi.NoteOffEvent(tick=0, channel=9, data=[35, 95]),
   midi.NoteOnEvent(tick=0, channel=9, data=[46, 95]),
   midi.NoteOnEvent(tick=0, channel=9, data=[38, 95]),
   midi.NoteOffEvent(tick=480, channel=9, data=[46, 95]),
   midi.NoteOffEvent(tick=0, channel=9, data=[38, 95]),
   midi.NoteOnEvent(tick=0, channel=9, data=[46, 95]),
   midi.NoteOnEvent(tick=0, channel=9, data=[35, 95]),
   midi.NoteOffEvent(tick=480, channel=9, data=[46, 95]),
   midi.NoteOffEvent(tick=0, channel=9, data=[35, 95]),
   midi.NoteOnEvent(tick=0, channel=9, data=[46, 95]),
   midi.NoteOnEvent(tick=0, channel=9, data=[38, 95]),
   midi.NoteOffEvent(tick=480, channel=9, data=[46, 95]),
   midi.NoteOffEvent(tick=0, channel=9, data=[38, 95]),
   midi.NoteOnEvent(tick=0, channel=9, data=[46, 95]),
   midi.NoteOnEvent(tick=0, channel=9, data=[35, 95]),
   midi.NoteOffEvent(tick=480, channel=9, data=[46, 95]),
   midi.NoteOffEvent(tick=0, channel=9, data=[35, 95]),
   midi.NoteOnEvent(tick=0, channel=9, data=[46, 95]),
   midi.NoteOnEvent(tick=0, channel=9, data=[38, 95]),
   midi.NoteOffEvent(tick=480, channel=9, data=[46, 95]),
   midi.NoteOffEvent(tick=0, channel=9, data=[38, 95]),
   midi.NoteOnEvent(tick=0, channel=9, data=[46, 95]),
   midi.NoteOnEvent(tick=0, channel=9, data=[35, 95]),
   midi.NoteOffEvent(tick=480, channel=9, data=[46, 95]),
   midi.NoteOffEvent(tick=0, channel=9, data=[35, 95]),
   midi.NoteOnEvent(tick=0, channel=9, data=[46, 95]),
   midi.NoteOnEvent(tick=0, channel=9, data=[38, 95]),
   midi.NoteOffEvent(tick=480, channel=9, data=[46, 95]),
   midi.NoteOffEvent(tick=0, channel=9, data=[38, 95]),
   midi.NoteOnEvent(tick=0, channel=9, data=[46, 95]),
   midi.NoteOnEvent(tick=0, channel=9, data=[35, 95]),
   midi.NoteOffEvent(tick=480, channel=9, data=[46, 95]),
   midi.NoteOffEvent(tick=0, channel=9, data=[35, 95]),
   midi.NoteOnEvent(tick=0, channel=9, data=[46, 95]),
   midi.NoteOnEvent(tick=0, channel=9, data=[38, 95]),
   midi.NoteOffEvent(tick=480, channel=9, data=[46, 95]),
   midi.NoteOffEvent(tick=0, channel=9, data=[38, 95]),
   midi.NoteOnEvent(tick=0, channel=9, data=[46, 95]),
   midi.NoteOnEvent(tick=0, channel=9, data=[35, 95]),
   midi.NoteOffEvent(tick=480, channel=9, data=[46, 95]),
   midi.NoteOffEvent(tick=0, channel=9, data=[35, 95]),
   midi.NoteOnEvent(tick=0, channel=9, data=[46, 95]),
   midi.NoteOnEvent(tick=0, channel=9, data=[38, 95]),
   midi.NoteOffEvent(tick=480, channel=9, data=[46, 95]),
   midi.NoteOffEvent(tick=0, channel=9, data=[38, 95]),
   midi.NoteOnEvent(tick=0, channel=9, data=[49, 95]),
   midi.NoteOnEvent(tick=0, channel=9, data=[35, 95]),
   midi.NoteOffEvent(tick=480, channel=9, data=[49, 95]),
   midi.NoteOffEvent(tick=0, channel=9, data=[35, 95]),
   midi.NoteOnEvent(tick=0, channel=9, data=[46, 95]),
   midi.NoteOnEvent(tick=0, channel=9, data=[38, 95]),
   midi.NoteOffEvent(tick=480, channel=9, data=[46, 95]),
   midi.NoteOffEvent(tick=0, channel=9, data=[38, 95]),
   midi.NoteOnEvent(tick=0, channel=9, data=[46, 95]),
   midi.NoteOnEvent(tick=0, channel=9, data=[35, 95]),
   midi.NoteOffEvent(tick=480, channel=9, data=[46, 95]),
   midi.NoteOffEvent(tick=0, channel=9, data=[35, 95]),
   midi.NoteOnEvent(tick=0, channel=9, data=[46, 95]),
   midi.NoteOnEvent(tick=0, channel=9, data=[38, 95]),
   midi.NoteOffEvent(tick=480, channel=9, data=[46, 95]),
   midi.NoteOffEvent(tick=0, channel=9, data=[38, 95]),
   midi.NoteOnEvent(tick=0, channel=9, data=[46, 95]),
   midi.NoteOnEvent(tick=0, channel=9, data=[35, 95]),
   midi.NoteOffEvent(tick=480, channel=9, data=[46, 95]),
   midi.NoteOffEvent(tick=0, channel=9, data=[35, 95]),
   midi.NoteOnEvent(tick=0, channel=9, data=[46, 95]),
   midi.NoteOnEvent(tick=0, channel=9, data=[38, 95]),
   midi.NoteOffEvent(tick=480, channel=9, data=[46, 95]),
   midi.NoteOffEvent(tick=0, channel=9, data=[38, 95]),
   midi.NoteOnEvent(tick=0, channel=9, data=[46, 95]),
   midi.NoteOnEvent(tick=0, channel=9, data=[35, 95]),
   midi.NoteOffEvent(tick=480, channel=9, data=[46, 95]),
   midi.NoteOffEvent(tick=0, channel=9, data=[35, 95]),
   midi.NoteOnEvent(tick=0, channel=9, data=[46, 95]),
   midi.NoteOnEvent(tick=0, channel=9, data=[38, 95]),
   midi.NoteOffEvent(tick=480, channel=9, data=[46, 95]),
   midi.NoteOffEvent(tick=0, channel=9, data=[38, 95]),
   midi.NoteOnEvent(tick=0, channel=9, data=[46, 95]),
   midi.NoteOnEvent(tick=0, channel=9, data=[35, 95]),
   midi.NoteOffEvent(tick=480, channel=9, data=[46, 95]),
   midi.NoteOffEvent(tick=0, channel=9, data=[35, 95]),
   midi.NoteOnEvent(tick=0, channel=9, data=[46, 95]),
   midi.NoteOnEvent(tick=0, channel=9, data=[38, 95]),
   midi.NoteOffEvent(tick=480, channel=9, data=[46, 95]),
   midi.NoteOffEvent(tick=0, channel=9, data=[38, 95]),
   midi.NoteOnEvent(tick=0, channel=9, data=[46, 95]),
   midi.NoteOnEvent(tick=0, channel=9, data=[35, 95]),
   midi.NoteOffEvent(tick=480, channel=9, data=[46, 95]),
   midi.NoteOffEvent(tick=0, channel=9, data=[35, 95]),
   midi.NoteOnEvent(tick=0, channel=9, data=[46, 95]),
   midi.NoteOnEvent(tick=0, channel=9, data=[38, 95]),
   midi.NoteOffEvent(tick=480, channel=9, data=[46, 95]),
   midi.NoteOffEvent(tick=0, channel=9, data=[38, 95]),
   midi.NoteOnEvent(tick=0, channel=9, data=[46, 95]),
   midi.NoteOnEvent(tick=0, channel=9, data=[35, 95]),
   midi.NoteOffEvent(tick=480, channel=9, data=[46, 95]),
   midi.NoteOffEvent(tick=0, channel=9, data=[35, 95]),
   midi.NoteOnEvent(tick=0, channel=9, data=[46, 95]),
   midi.NoteOnEvent(tick=0, channel=9, data=[38, 95]),
   midi.NoteOffEvent(tick=480, channel=9, data=[46, 95]),
   midi.NoteOffEvent(tick=0, channel=9, data=[38, 95]),
   midi.NoteOnEvent(tick=0, channel=9, data=[46, 95]),
   midi.NoteOnEvent(tick=0, channel=9, data=[35, 95]),
   midi.NoteOffEvent(tick=480, channel=9, data=[46, 95]),
   midi.NoteOffEvent(tick=0, channel=9, data=[35, 95]),
   midi.NoteOnEvent(tick=0, channel=9, data=[46, 95]),
   midi.NoteOnEvent(tick=0, channel=9, data=[38, 95]),
   midi.NoteOffEvent(tick=480, channel=9, data=[46, 95]),
   midi.NoteOffEvent(tick=0, channel=9, data=[38, 95]),
   midi.NoteOnEvent(tick=0, channel=9, data=[49, 95]),
   midi.NoteOnEvent(tick=0, channel=9, data=[35, 95]),
   midi.NoteOffEvent(tick=480, channel=9, data=[49, 95]),
   midi.NoteOffEvent(tick=0, channel=9, data=[35, 95]),
   midi.NoteOnEvent(tick=0, channel=9, data=[46, 95]),
   midi.NoteOnEvent(tick=0, channel=9, data=[38, 95]),
   midi.NoteOffEvent(tick=480, channel=9, data=[46, 95]),
   midi.NoteOffEvent(tick=0, channel=9, data=[38, 95]),
   midi.NoteOnEvent(tick=0, channel=9, data=[46, 95]),
   midi.NoteOnEvent(tick=0, channel=9, data=[35, 95]),
   midi.NoteOffEvent(tick=480, channel=9, data=[46, 95]),
   midi.NoteOffEvent(tick=0, channel=9, data=[35, 95]),
   midi.NoteOnEvent(tick=0, channel=9, data=[46, 95]),
   midi.NoteOnEvent(tick=0, channel=9, data=[38, 95]),
   midi.NoteOffEvent(tick=480, channel=9, data=[46, 95]),
   midi.NoteOffEvent(tick=0, channel=9, data=[38, 95]),
   midi.NoteOnEvent(tick=0, channel=9, data=[46, 95]),
   midi.NoteOnEvent(tick=0, channel=9, data=[35, 95]),
   midi.NoteOffEvent(tick=480, channel=9, data=[46, 95]),
   midi.NoteOffEvent(tick=0, channel=9, data=[35, 95]),
   midi.NoteOnEvent(tick=0, channel=9, data=[46, 95]),
   midi.NoteOnEvent(tick=0, channel=9, data=[38, 95]),
   midi.NoteOffEvent(tick=480, channel=9, data=[46, 95]),
   midi.NoteOffEvent(tick=0, channel=9, data=[38, 95]),
   midi.NoteOnEvent(tick=0, channel=9, data=[46, 95]),
   midi.NoteOnEvent(tick=0, channel=9, data=[35, 95]),
   midi.NoteOffEvent(tick=480, channel=9, data=[46, 95]),
   midi.NoteOffEvent(tick=0, channel=9, data=[35, 95]),
   midi.NoteOnEvent(tick=0, channel=9, data=[46, 95]),
   midi.NoteOnEvent(tick=0, channel=9, data=[38, 95]),
   midi.NoteOffEvent(tick=480, channel=9, data=[46, 95]),
   midi.NoteOffEvent(tick=0, channel=9, data=[38, 95]),
   midi.NoteOnEvent(tick=0, channel=9, data=[46, 95]),
   midi.NoteOnEvent(tick=0, channel=9, data=[35, 95]),
   midi.NoteOffEvent(tick=480, channel=9, data=[46, 95]),
   midi.NoteOffEvent(tick=0, channel=9, data=[35, 95]),
   midi.NoteOnEvent(tick=0, channel=9, data=[46, 95]),
   midi.NoteOnEvent(tick=0, channel=9, data=[38, 95]),
   midi.NoteOffEvent(tick=480, channel=9, data=[46, 95]),
   midi.NoteOffEvent(tick=0, channel=9, data=[38, 95]),
   midi.NoteOnEvent(tick=0, channel=9, data=[46, 95]),
   midi.NoteOnEvent(tick=0, channel=9, data=[35, 95]),
   midi.NoteOffEvent(tick=480, channel=9, data=[46, 95]),
   midi.NoteOffEvent(tick=0, channel=9, data=[35, 95]),
   midi.NoteOnEvent(tick=0, channel=9, data=[46, 95]),
   midi.NoteOnEvent(tick=0, channel=9, data=[38, 95]),
   midi.NoteOffEvent(tick=480, channel=9, data=[46, 95]),
   midi.NoteOffEvent(tick=0, channel=9, data=[38, 95]),
   midi.NoteOnEvent(tick=0, channel=9, data=[46, 95]),
   midi.NoteOnEvent(tick=0, channel=9, data=[35, 95]),
   midi.NoteOffEvent(tick=480, channel=9, data=[46, 95]),
   midi.NoteOffEvent(tick=0, channel=9, data=[35, 95]),
   midi.NoteOnEvent(tick=0, channel=9, data=[46, 95]),
   midi.NoteOnEvent(tick=0, channel=9, data=[38, 95]),
   midi.NoteOffEvent(tick=480, channel=9, data=[46, 95]),
   midi.NoteOffEvent(tick=0, channel=9, data=[38, 95]),
   midi.NoteOnEvent(tick=0, channel=9, data=[46, 95]),
   midi.NoteOnEvent(tick=0, channel=9, data=[35, 95]),
   midi.NoteOffEvent(tick=480, channel=9, data=[46, 95]),
   midi.NoteOffEvent(tick=0, channel=9, data=[35, 95]),
   midi.NoteOnEvent(tick=0, channel=9, data=[46, 95]),
   midi.NoteOnEvent(tick=0, channel=9, data=[38, 95]),
   midi.NoteOffEvent(tick=480, channel=9, data=[46, 95]),
   midi.NoteOffEvent(tick=0, channel=9, data=[38, 95]),
   midi.NoteOnEvent(tick=0, channel=9, data=[49, 95]),
   midi.NoteOnEvent(tick=0, channel=9, data=[35, 95]),
   midi.NoteOffEvent(tick=480, channel=9, data=[49, 95]),
   midi.NoteOffEvent(tick=0, channel=9, data=[35, 95]),
   midi.NoteOnEvent(tick=0, channel=9, data=[46, 95]),
   midi.NoteOnEvent(tick=0, channel=9, data=[38, 95]),
   midi.NoteOffEvent(tick=480, channel=9, data=[46, 95]),
   midi.NoteOffEvent(tick=0, channel=9, data=[38, 95]),
   midi.NoteOnEvent(tick=0, channel=9, data=[46, 95]),
   midi.NoteOnEvent(tick=0, channel=9, data=[35, 95]),
   midi.NoteOffEvent(tick=480, channel=9, data=[46, 95]),
   midi.NoteOffEvent(tick=0, channel=9, data=[35, 95]),
   midi.NoteOnEvent(tick=0, channel=9, data=[46, 95]),
   midi.NoteOnEvent(tick=0, channel=9, data=[38, 95]),
   midi.NoteOffEvent(tick=480, channel=9, data=[46, 95]),
   midi.NoteOffEvent(tick=0, channel=9, data=[38, 95]),
   midi.NoteOnEvent(tick=0, channel=9, data=[46, 95]),
   midi.NoteOnEvent(tick=0, channel=9, data=[35, 95]),
   midi.NoteOffEvent(tick=480, channel=9, data=[46, 95]),
   midi.NoteOffEvent(tick=0, channel=9, data=[35, 95]),
   midi.NoteOnEvent(tick=0, channel=9, data=[46, 95]),
   midi.NoteOnEvent(tick=0, channel=9, data=[38, 95]),
   midi.NoteOffEvent(tick=480, channel=9, data=[46, 95]),
   midi.NoteOffEvent(tick=0, channel=9, data=[38, 95]),
   midi.NoteOnEvent(tick=0, channel=9, data=[46, 95]),
   midi.NoteOnEvent(tick=0, channel=9, data=[35, 95]),
   midi.NoteOffEvent(tick=480, channel=9, data=[46, 95]),
   midi.NoteOffEvent(tick=0, channel=9, data=[35, 95]),
   midi.NoteOnEvent(tick=0, channel=9, data=[46, 95]),
   midi.NoteOnEvent(tick=0, channel=9, data=[38, 95]),
   midi.NoteOffEvent(tick=480, channel=9, data=[46, 95]),
   midi.NoteOffEvent(tick=0, channel=9, data=[38, 95]),
   midi.NoteOnEvent(tick=0, channel=9, data=[46, 95]),
   midi.NoteOnEvent(tick=0, channel=9, data=[35, 95]),
   midi.NoteOffEvent(tick=480, channel=9, data=[46, 95]),
   midi.NoteOffEvent(tick=0, channel=9, data=[35, 95]),
   midi.NoteOnEvent(tick=0, channel=9, data=[46, 95]),
   midi.NoteOnEvent(tick=0, channel=9, data=[38, 95]),
   midi.NoteOffEvent(tick=480, channel=9, data=[46, 95]),
   midi.NoteOffEvent(tick=0, channel=9, data=[38, 95]),
   midi.NoteOnEvent(tick=0, channel=9, data=[46, 95]),
   midi.NoteOnEvent(tick=0, channel=9, data=[35, 95]),
   midi.NoteOffEvent(tick=480, channel=9, data=[46, 95]),
   midi.NoteOffEvent(tick=0, channel=9, data=[35, 95]),
   midi.NoteOnEvent(tick=0, channel=9, data=[46, 95]),
   midi.NoteOnEvent(tick=0, channel=9, data=[38, 95]),
   midi.NoteOffEvent(tick=480, channel=9, data=[46, 95]),
   midi.NoteOffEvent(tick=0, channel=9, data=[38, 95]),
   midi.NoteOnEvent(tick=0, channel=9, data=[46, 95]),
   midi.NoteOnEvent(tick=0, channel=9, data=[35, 95]),
   midi.NoteOffEvent(tick=480, channel=9, data=[46, 95]),
   midi.NoteOffEvent(tick=0, channel=9, data=[35, 95]),
   midi.NoteOnEvent(tick=0, channel=9, data=[46, 95]),
   midi.NoteOnEvent(tick=0, channel=9, data=[38, 95]),
   midi.NoteOffEvent(tick=480, channel=9, data=[46, 95]),
   midi.NoteOffEvent(tick=0, channel=9, data=[38, 95]),
   midi.NoteOnEvent(tick=0, channel=9, data=[46, 95]),
   midi.NoteOnEvent(tick=0, channel=9, data=[35, 95]),
   midi.NoteOffEvent(tick=480, channel=9, data=[46, 95]),
   midi.NoteOffEvent(tick=0, channel=9, data=[35, 95]),
   midi.NoteOnEvent(tick=0, channel=9, data=[46, 95]),
   midi.NoteOnEvent(tick=0, channel=9, data=[38, 95]),
   midi.NoteOffEvent(tick=480, channel=9, data=[46, 95]),
   midi.NoteOffEvent(tick=0, channel=9, data=[38, 95]),
   midi.NoteOnEvent(tick=0, channel=9, data=[49, 95]),
   midi.NoteOnEvent(tick=0, channel=9, data=[35, 95]),
   midi.NoteOffEvent(tick=480, channel=9, data=[49, 95]),
   midi.NoteOffEvent(tick=0, channel=9, data=[35, 95]),
   midi.NoteOnEvent(tick=0, channel=9, data=[46, 95]),
   midi.NoteOnEvent(tick=0, channel=9, data=[38, 95]),
   midi.NoteOffEvent(tick=480, channel=9, data=[46, 95]),
   midi.NoteOffEvent(tick=0, channel=9, data=[38, 95]),
   midi.NoteOnEvent(tick=0, channel=9, data=[46, 95]),
   midi.NoteOnEvent(tick=0, channel=9, data=[35, 95]),
   midi.NoteOffEvent(tick=480, channel=9, data=[46, 95]),
   midi.NoteOffEvent(tick=0, channel=9, data=[35, 95]),
   midi.NoteOnEvent(tick=0, channel=9, data=[46, 95]),
   midi.NoteOnEvent(tick=0, channel=9, data=[38, 95]),
   midi.NoteOffEvent(tick=480, channel=9, data=[46, 95]),
   midi.NoteOffEvent(tick=0, channel=9, data=[38, 95]),
   midi.NoteOnEvent(tick=0, channel=9, data=[46, 95]),
   midi.NoteOnEvent(tick=0, channel=9, data=[35, 95]),
   midi.NoteOffEvent(tick=480, channel=9, data=[46, 95]),
   midi.NoteOffEvent(tick=0, channel=9, data=[35, 95]),
   midi.NoteOnEvent(tick=0, channel=9, data=[46, 95]),
   midi.NoteOnEvent(tick=0, channel=9, data=[38, 95]),
   midi.NoteOffEvent(tick=480, channel=9, data=[46, 95]),
   midi.NoteOffEvent(tick=0, channel=9, data=[38, 95]),
   midi.NoteOnEvent(tick=0, channel=9, data=[46, 95]),
   midi.NoteOnEvent(tick=0, channel=9, data=[35, 95]),
   midi.NoteOffEvent(tick=480, channel=9, data=[46, 95]),
   midi.NoteOffEvent(tick=0, channel=9, data=[35, 95]),
   midi.NoteOnEvent(tick=0, channel=9, data=[46, 95]),
   midi.NoteOnEvent(tick=0, channel=9, data=[38, 95]),
   midi.NoteOffEvent(tick=480, channel=9, data=[46, 95]),
   midi.NoteOffEvent(tick=0, channel=9, data=[38, 95]),
   midi.NoteOnEvent(tick=0, channel=9, data=[46, 95]),
   midi.NoteOnEvent(tick=0, channel=9, data=[35, 95]),
   midi.NoteOffEvent(tick=480, channel=9, data=[46, 95]),
   midi.NoteOffEvent(tick=0, channel=9, data=[35, 95]),
   midi.NoteOnEvent(tick=0, channel=9, data=[46, 95]),
   midi.NoteOnEvent(tick=0, channel=9, data=[38, 95]),
   midi.NoteOffEvent(tick=480, channel=9, data=[46, 95]),
   midi.NoteOffEvent(tick=0, channel=9, data=[38, 95]),
   midi.NoteOnEvent(tick=0, channel=9, data=[46, 95]),
   midi.NoteOnEvent(tick=0, channel=9, data=[35, 95]),
   midi.NoteOffEvent(tick=480, channel=9, data=[46, 95]),
   midi.NoteOffEvent(tick=0, channel=9, data=[35, 95]),
   midi.NoteOnEvent(tick=0, channel=9, data=[46, 95]),
   midi.NoteOnEvent(tick=0, channel=9, data=[38, 95]),
   midi.NoteOffEvent(tick=480, channel=9, data=[46, 95]),
   midi.NoteOffEvent(tick=0, channel=9, data=[38, 95]),
   midi.NoteOnEvent(tick=0, channel=9, data=[46, 95]),
   midi.NoteOnEvent(tick=0, channel=9, data=[35, 95]),
   midi.NoteOffEvent(tick=480, channel=9, data=[46, 95]),
   midi.NoteOffEvent(tick=0, channel=9, data=[35, 95]),
   midi.NoteOnEvent(tick=0, channel=9, data=[46, 95]),
   midi.NoteOnEvent(tick=0, channel=9, data=[38, 95]),
   midi.NoteOffEvent(tick=480, channel=9, data=[46, 95]),
   midi.NoteOffEvent(tick=0, channel=9, data=[38, 95]),
   midi.NoteOnEvent(tick=0, channel=9, data=[46, 95]),
   midi.NoteOnEvent(tick=0, channel=9, data=[35, 95]),
   midi.NoteOffEvent(tick=480, channel=9, data=[46, 95]),
   midi.NoteOffEvent(tick=0, channel=9, data=[35, 95]),
   midi.NoteOnEvent(tick=0, channel=9, data=[46, 95]),
   midi.NoteOnEvent(tick=0, channel=9, data=[38, 95]),
   midi.NoteOffEvent(tick=480, channel=9, data=[46, 95]),
   midi.NoteOffEvent(tick=0, channel=9, data=[38, 95]),
   midi.NoteOnEvent(tick=0, channel=9, data=[49, 95]),
   midi.NoteOnEvent(tick=0, channel=9, data=[35, 95]),
   midi.NoteOffEvent(tick=480, channel=9, data=[49, 95]),
   midi.NoteOffEvent(tick=0, channel=9, data=[35, 95]),
   midi.NoteOnEvent(tick=0, channel=9, data=[46, 95]),
   midi.NoteOnEvent(tick=0, channel=9, data=[38, 95]),
   midi.NoteOffEvent(tick=480, channel=9, data=[46, 95]),
   midi.NoteOffEvent(tick=0, channel=9, data=[38, 95]),
   midi.NoteOnEvent(tick=0, channel=9, data=[46, 95]),
   midi.NoteOnEvent(tick=0, channel=9, data=[35, 95]),
   midi.NoteOffEvent(tick=480, channel=9, data=[46, 95]),
   midi.NoteOffEvent(tick=0, channel=9, data=[35, 95]),
   midi.NoteOnEvent(tick=0, channel=9, data=[46, 95]),
   midi.NoteOnEvent(tick=0, channel=9, data=[38, 95]),
   midi.NoteOffEvent(tick=480, channel=9, data=[46, 95]),
   midi.NoteOffEvent(tick=0, channel=9, data=[38, 95]),
   midi.NoteOnEvent(tick=0, channel=9, data=[46, 95]),
   midi.NoteOnEvent(tick=0, channel=9, data=[35, 95]),
   midi.NoteOffEvent(tick=480, channel=9, data=[46, 95]),
   midi.NoteOffEvent(tick=0, channel=9, data=[35, 95]),
   midi.NoteOnEvent(tick=0, channel=9, data=[46, 95]),
   midi.NoteOnEvent(tick=0, channel=9, data=[38, 95]),
   midi.NoteOffEvent(tick=480, channel=9, data=[46, 95]),
   midi.NoteOffEvent(tick=0, channel=9, data=[38, 95]),
   midi.NoteOnEvent(tick=0, channel=9, data=[46, 95]),
   midi.NoteOnEvent(tick=0, channel=9, data=[35, 95]),
   midi.NoteOffEvent(tick=480, channel=9, data=[46, 95]),
   midi.NoteOffEvent(tick=0, channel=9, data=[35, 95]),
   midi.NoteOnEvent(tick=0, channel=9, data=[46, 95]),
   midi.NoteOnEvent(tick=0, channel=9, data=[38, 95]),
   midi.NoteOffEvent(tick=480, channel=9, data=[46, 95]),
   midi.NoteOffEvent(tick=0, channel=9, data=[38, 95]),
   midi.NoteOnEvent(tick=0, channel=9, data=[46, 95]),
   midi.NoteOnEvent(tick=0, channel=9, data=[35, 95]),
   midi.NoteOffEvent(tick=480, channel=9, data=[46, 95]),
   midi.NoteOffEvent(tick=0, channel=9, data=[35, 95]),
   midi.NoteOnEvent(tick=0, channel=9, data=[46, 95]),
   midi.NoteOnEvent(tick=0, channel=9, data=[38, 95]),
   midi.NoteOffEvent(tick=480, channel=9, data=[46, 95]),
   midi.NoteOffEvent(tick=0, channel=9, data=[38, 95]),
   midi.NoteOnEvent(tick=0, channel=9, data=[46, 95]),
   midi.NoteOnEvent(tick=0, channel=9, data=[35, 95]),
   midi.NoteOffEvent(tick=480, channel=9, data=[46, 95]),
   midi.NoteOffEvent(tick=0, channel=9, data=[35, 95]),
   midi.NoteOnEvent(tick=0, channel=9, data=[46, 95]),
   midi.NoteOnEvent(tick=0, channel=9, data=[38, 95]),
   midi.NoteOffEvent(tick=480, channel=9, data=[46, 95]),
   midi.NoteOffEvent(tick=0, channel=9, data=[38, 95]),
   midi.NoteOnEvent(tick=0, channel=9, data=[46, 95]),
   midi.NoteOnEvent(tick=0, channel=9, data=[35, 95]),
   midi.NoteOffEvent(tick=480, channel=9, data=[46, 95]),
   midi.NoteOffEvent(tick=0, channel=9, data=[35, 95]),
   midi.NoteOnEvent(tick=0, channel=9, data=[46, 95]),
   midi.NoteOnEvent(tick=0, channel=9, data=[38, 95]),
   midi.NoteOffEvent(tick=480, channel=9, data=[46, 95]),
   midi.NoteOffEvent(tick=0, channel=9, data=[38, 95]),
   midi.NoteOnEvent(tick=0, channel=9, data=[46, 95]),
   midi.NoteOnEvent(tick=0, channel=9, data=[35, 95]),
   midi.NoteOffEvent(tick=480, channel=9, data=[46, 95]),
   midi.NoteOffEvent(tick=0, channel=9, data=[35, 95]),
   midi.NoteOnEvent(tick=0, channel=9, data=[46, 95]),
   midi.NoteOnEvent(tick=0, channel=9, data=[38, 95]),
   midi.NoteOffEvent(tick=480, channel=9, data=[46, 95]),
   midi.NoteOffEvent(tick=0, channel=9, data=[38, 95]),
   midi.NoteOnEvent(tick=0, channel=9, data=[49, 95]),
   midi.NoteOnEvent(tick=0, channel=9, data=[35, 95]),
   midi.NoteOffEvent(tick=480, channel=9, data=[49, 95]),
   midi.NoteOffEvent(tick=0, channel=9, data=[35, 95]),
   midi.NoteOnEvent(tick=0, channel=9, data=[46, 95]),
   midi.NoteOnEvent(tick=0, channel=9, data=[38, 95]),
   midi.NoteOffEvent(tick=480, channel=9, data=[46, 95]),
   midi.NoteOffEvent(tick=0, channel=9, data=[38, 95]),
   midi.NoteOnEvent(tick=0, channel=9, data=[46, 95]),
   midi.NoteOnEvent(tick=0, channel=9, data=[35, 95]),
   midi.NoteOffEvent(tick=480, channel=9, data=[46, 95]),
   midi.NoteOffEvent(tick=0, channel=9, data=[35, 95]),
   midi.NoteOnEvent(tick=0, channel=9, data=[46, 95]),
   midi.NoteOnEvent(tick=0, channel=9, data=[38, 95]),
   midi.NoteOffEvent(tick=480, channel=9, data=[46, 95]),
   midi.NoteOffEvent(tick=0, channel=9, data=[38, 95]),
   midi.NoteOnEvent(tick=0, channel=9, data=[46, 95]),
   midi.NoteOnEvent(tick=0, channel=9, data=[35, 95]),
   midi.NoteOffEvent(tick=480, channel=9, data=[46, 95]),
   midi.NoteOffEvent(tick=0, channel=9, data=[35, 95]),
   midi.NoteOnEvent(tick=0, channel=9, data=[46, 95]),
   midi.NoteOnEvent(tick=0, channel=9, data=[38, 95]),
   midi.NoteOffEvent(tick=480, channel=9, data=[46, 95]),
   midi.NoteOffEvent(tick=0, channel=9, data=[38, 95]),
   midi.NoteOnEvent(tick=0, channel=9, data=[46, 95]),
   midi.NoteOnEvent(tick=0, channel=9, data=[35, 95]),
   midi.NoteOffEvent(tick=480, channel=9, data=[46, 95]),
   midi.NoteOffEvent(tick=0, channel=9, data=[35, 95]),
   midi.NoteOnEvent(tick=0, channel=9, data=[46, 95]),
   midi.NoteOnEvent(tick=0, channel=9, data=[38, 95]),
   midi.NoteOffEvent(tick=480, channel=9, data=[46, 95]),
   midi.NoteOffEvent(tick=0, channel=9, data=[38, 95]),
   midi.NoteOnEvent(tick=0, channel=9, data=[46, 95]),
   midi.NoteOnEvent(tick=0, channel=9, data=[35, 95]),
   midi.NoteOffEvent(tick=480, channel=9, data=[46, 95]),
   midi.NoteOffEvent(tick=0, channel=9, data=[35, 95]),
   midi.NoteOnEvent(tick=0, channel=9, data=[46, 95]),
   midi.NoteOnEvent(tick=0, channel=9, data=[38, 95]),
   midi.NoteOffEvent(tick=480, channel=9, data=[46, 95]),
   midi.NoteOffEvent(tick=0, channel=9, data=[38, 95]),
   midi.NoteOnEvent(tick=0, channel=9, data=[46, 95]),
   midi.NoteOnEvent(tick=0, channel=9, data=[35, 95]),
   midi.NoteOffEvent(tick=480, channel=9, data=[46, 95]),
   midi.NoteOffEvent(tick=0, channel=9, data=[35, 95]),
   midi.NoteOnEvent(tick=0, channel=9, data=[46, 95]),
   midi.NoteOnEvent(tick=0, channel=9, data=[38, 95]),
   midi.NoteOffEvent(tick=480, channel=9, data=[46, 95]),
   midi.NoteOffEvent(tick=0, channel=9, data=[38, 95]),
   midi.NoteOnEvent(tick=0, channel=9, data=[46, 95]),
   midi.NoteOnEvent(tick=0, channel=9, data=[35, 95]),
   midi.NoteOffEvent(tick=480, channel=9, data=[46, 95]),
   midi.NoteOffEvent(tick=0, channel=9, data=[35, 95]),
   midi.NoteOnEvent(tick=0, channel=9, data=[46, 95]),
   midi.NoteOnEvent(tick=0, channel=9, data=[38, 95]),
   midi.NoteOffEvent(tick=480, channel=9, data=[46, 95]),
   midi.NoteOffEvent(tick=0, channel=9, data=[38, 95]),
   midi.NoteOnEvent(tick=0, channel=9, data=[46, 95]),
   midi.NoteOnEvent(tick=0, channel=9, data=[35, 95]),
   midi.NoteOffEvent(tick=480, channel=9, data=[46, 95]),
   midi.NoteOffEvent(tick=0, channel=9, data=[35, 95]),
   midi.NoteOnEvent(tick=0, channel=9, data=[46, 95]),
   midi.NoteOnEvent(tick=0, channel=9, data=[38, 95]),
   midi.NoteOffEvent(tick=480, channel=9, data=[46, 95]),
   midi.NoteOffEvent(tick=0, channel=9, data=[38, 95]),
   midi.NoteOnEvent(tick=0, channel=9, data=[49, 95]),
   midi.NoteOnEvent(tick=0, channel=9, data=[35, 95]),
   midi.NoteOffEvent(tick=480, channel=9, data=[49, 95]),
   midi.NoteOffEvent(tick=0, channel=9, data=[35, 95]),
   midi.NoteOnEvent(tick=0, channel=9, data=[46, 95]),
   midi.NoteOnEvent(tick=0, channel=9, data=[38, 95]),
   midi.NoteOffEvent(tick=480, channel=9, data=[46, 95]),
   midi.NoteOffEvent(tick=0, channel=9, data=[38, 95]),
   midi.NoteOnEvent(tick=0, channel=9, data=[46, 95]),
   midi.NoteOnEvent(tick=0, channel=9, data=[35, 95]),
   midi.NoteOffEvent(tick=480, channel=9, data=[46, 95]),
   midi.NoteOffEvent(tick=0, channel=9, data=[35, 95]),
   midi.NoteOnEvent(tick=0, channel=9, data=[46, 95]),
   midi.NoteOnEvent(tick=0, channel=9, data=[38, 95]),
   midi.NoteOffEvent(tick=480, channel=9, data=[46, 95]),
   midi.NoteOffEvent(tick=0, channel=9, data=[38, 95]),
   midi.NoteOnEvent(tick=0, channel=9, data=[46, 95]),
   midi.NoteOnEvent(tick=0, channel=9, data=[35, 95]),
   midi.NoteOffEvent(tick=480, channel=9, data=[46, 95]),
   midi.NoteOffEvent(tick=0, channel=9, data=[35, 95]),
   midi.NoteOnEvent(tick=0, channel=9, data=[46, 95]),
   midi.NoteOnEvent(tick=0, channel=9, data=[38, 95]),
   midi.NoteOffEvent(tick=480, channel=9, data=[46, 95]),
   midi.NoteOffEvent(tick=0, channel=9, data=[38, 95]),
   midi.NoteOnEvent(tick=0, channel=9, data=[46, 95]),
   midi.NoteOnEvent(tick=0, channel=9, data=[35, 95]),
   midi.NoteOffEvent(tick=480, channel=9, data=[46, 95]),
   midi.NoteOffEvent(tick=0, channel=9, data=[35, 95]),
   midi.NoteOnEvent(tick=0, channel=9, data=[46, 95]),
   midi.NoteOnEvent(tick=0, channel=9, data=[38, 95]),
   midi.NoteOffEvent(tick=480, channel=9, data=[46, 95]),
   midi.NoteOffEvent(tick=0, channel=9, data=[38, 95]),
   midi.NoteOnEvent(tick=0, channel=9, data=[46, 95]),
   midi.NoteOnEvent(tick=0, channel=9, data=[35, 95]),
   midi.NoteOffEvent(tick=480, channel=9, data=[46, 95]),
   midi.NoteOffEvent(tick=0, channel=9, data=[35, 95]),
   midi.NoteOnEvent(tick=0, channel=9, data=[46, 95]),
   midi.NoteOnEvent(tick=0, channel=9, data=[38, 95]),
   midi.NoteOffEvent(tick=480, channel=9, data=[46, 95]),
   midi.NoteOffEvent(tick=0, channel=9, data=[38, 95]),
   midi.NoteOnEvent(tick=0, channel=9, data=[46, 95]),
   midi.NoteOnEvent(tick=0, channel=9, data=[35, 95]),
   midi.NoteOffEvent(tick=480, channel=9, data=[46, 95]),
   midi.NoteOffEvent(tick=0, channel=9, data=[35, 95]),
   midi.NoteOnEvent(tick=0, channel=9, data=[46, 95]),
   midi.NoteOnEvent(tick=0, channel=9, data=[38, 95]),
   midi.NoteOffEvent(tick=480, channel=9, data=[46, 95]),
   midi.NoteOffEvent(tick=0, channel=9, data=[38, 95]),
   midi.NoteOnEvent(tick=0, channel=9, data=[46, 95]),
   midi.NoteOnEvent(tick=0, channel=9, data=[35, 95]),
   midi.NoteOffEvent(tick=480, channel=9, data=[46, 95]),
   midi.NoteOffEvent(tick=0, channel=9, data=[35, 95]),
   midi.NoteOnEvent(tick=0, channel=9, data=[46, 95]),
   midi.NoteOnEvent(tick=0, channel=9, data=[38, 95]),
   midi.NoteOffEvent(tick=480, channel=9, data=[46, 95]),
   midi.NoteOffEvent(tick=0, channel=9, data=[38, 95]),
   midi.NoteOnEvent(tick=0, channel=9, data=[46, 95]),
   midi.NoteOnEvent(tick=0, channel=9, data=[35, 95]),
   midi.NoteOffEvent(tick=480, channel=9, data=[46, 95]),
   midi.NoteOffEvent(tick=0, channel=9, data=[35, 95]),
   midi.NoteOnEvent(tick=0, channel=9, data=[46, 95]),
   midi.NoteOnEvent(tick=0, channel=9, data=[38, 95]),
   midi.NoteOffEvent(tick=480, channel=9, data=[46, 95]),
   midi.NoteOffEvent(tick=0, channel=9, data=[38, 95]),
   midi.NoteOnEvent(tick=0, channel=9, data=[49, 95]),
   midi.NoteOnEvent(tick=0, channel=9, data=[35, 95]),
   midi.NoteOffEvent(tick=480, channel=9, data=[49, 95]),
   midi.NoteOffEvent(tick=0, channel=9, data=[35, 95]),
   midi.NoteOnEvent(tick=0, channel=9, data=[46, 95]),
   midi.NoteOnEvent(tick=0, channel=9, data=[38, 95]),
   midi.NoteOffEvent(tick=480, channel=9, data=[46, 95]),
   midi.NoteOffEvent(tick=0, channel=9, data=[38, 95]),
   midi.NoteOnEvent(tick=0, channel=9, data=[46, 95]),
   midi.NoteOnEvent(tick=0, channel=9, data=[35, 95]),
   midi.NoteOffEvent(tick=480, channel=9, data=[46, 95]),
   midi.NoteOffEvent(tick=0, channel=9, data=[35, 95]),
   midi.NoteOnEvent(tick=0, channel=9, data=[46, 95]),
   midi.NoteOnEvent(tick=0, channel=9, data=[38, 95]),
   midi.NoteOffEvent(tick=480, channel=9, data=[46, 95]),
   midi.NoteOffEvent(tick=0, channel=9, data=[38, 95]),
   midi.NoteOnEvent(tick=0, channel=9, data=[46, 95]),
   midi.NoteOnEvent(tick=0, channel=9, data=[35, 95]),
   midi.NoteOffEvent(tick=480, channel=9, data=[46, 95]),
   midi.NoteOffEvent(tick=0, channel=9, data=[35, 95]),
   midi.NoteOnEvent(tick=0, channel=9, data=[46, 95]),
   midi.NoteOnEvent(tick=0, channel=9, data=[38, 95]),
   midi.NoteOffEvent(tick=480, channel=9, data=[46, 95]),
   midi.NoteOffEvent(tick=0, channel=9, data=[38, 95]),
   midi.NoteOnEvent(tick=0, channel=9, data=[46, 95]),
   midi.NoteOnEvent(tick=0, channel=9, data=[35, 95]),
   midi.NoteOffEvent(tick=480, channel=9, data=[46, 95]),
   midi.NoteOffEvent(tick=0, channel=9, data=[35, 95]),
   midi.NoteOnEvent(tick=0, channel=9, data=[46, 95]),
   midi.NoteOnEvent(tick=0, channel=9, data=[38, 95]),
   midi.NoteOffEvent(tick=480, channel=9, data=[46, 95]),
   midi.NoteOffEvent(tick=0, channel=9, data=[38, 95]),
   midi.NoteOnEvent(tick=0, channel=9, data=[46, 95]),
   midi.NoteOnEvent(tick=0, channel=9, data=[35, 95]),
   midi.NoteOffEvent(tick=480, channel=9, data=[46, 95]),
   midi.NoteOffEvent(tick=0, channel=9, data=[35, 95]),
   midi.NoteOnEvent(tick=0, channel=9, data=[46, 95]),
   midi.NoteOnEvent(tick=0, channel=9, data=[38, 95]),
   midi.NoteOffEvent(tick=480, channel=9, data=[46, 95]),
   midi.NoteOffEvent(tick=0, channel=9, data=[38, 95]),
   midi.NoteOnEvent(tick=0, channel=9, data=[46, 95]),
   midi.NoteOnEvent(tick=0, channel=9, data=[35, 95]),
   midi.NoteOffEvent(tick=480, channel=9, data=[46, 95]),
   midi.NoteOffEvent(tick=0, channel=9, data=[35, 95]),
   midi.NoteOnEvent(tick=0, channel=9, data=[46, 95]),
   midi.NoteOnEvent(tick=0, channel=9, data=[38, 95]),
   midi.NoteOffEvent(tick=480, channel=9, data=[46, 95]),
   midi.NoteOffEvent(tick=0, channel=9, data=[38, 95]),
   midi.NoteOnEvent(tick=0, channel=9, data=[35, 95]),
   midi.NoteOnEvent(tick=0, channel=9, data=[38, 95]),
   midi.NoteOffEvent(tick=240, channel=9, data=[35, 95]),
   midi.NoteOffEvent(tick=0, channel=9, data=[38, 95]),
   midi.NoteOnEvent(tick=0, channel=9, data=[35, 95]),
   midi.NoteOnEvent(tick=0, channel=9, data=[38, 95]),
   midi.NoteOffEvent(tick=240, channel=9, data=[35, 95]),
   midi.NoteOffEvent(tick=0, channel=9, data=[38, 95]),
   midi.NoteOnEvent(tick=0, channel=9, data=[35, 95]),
   midi.NoteOffEvent(tick=240, channel=9, data=[35, 95]),
   midi.NoteOnEvent(tick=0, channel=9, data=[45, 95]),
   midi.NoteOffEvent(tick=240, channel=9, data=[45, 95]),
   midi.NoteOnEvent(tick=0, channel=9, data=[45, 95]),
   midi.NoteOffEvent(tick=240, channel=9, data=[45, 95]),
   midi.NoteOnEvent(tick=0, channel=9, data=[35, 95]),
   midi.NoteOnEvent(tick=0, channel=9, data=[38, 95]),
   midi.NoteOffEvent(tick=240, channel=9, data=[35, 95]),
   midi.NoteOffEvent(tick=0, channel=9, data=[38, 95]),
   midi.NoteOnEvent(tick=0, channel=9, data=[35, 95]),
   midi.NoteOnEvent(tick=0, channel=9, data=[38, 95]),
   midi.NoteOffEvent(tick=240, channel=9, data=[35, 95]),
   midi.NoteOffEvent(tick=0, channel=9, data=[38, 95]),
   midi.NoteOnEvent(tick=0, channel=9, data=[35, 95]),
   midi.NoteOffEvent(tick=240, channel=9, data=[35, 95]),
   midi.NoteOnEvent(tick=0, channel=9, data=[49, 95]),
   midi.NoteOnEvent(tick=0, channel=9, data=[35, 95]),
   midi.NoteOffEvent(tick=480, channel=9, data=[49, 95]),
   midi.NoteOffEvent(tick=0, channel=9, data=[35, 95]),
   midi.NoteOnEvent(tick=0, channel=9, data=[46, 95]),
   midi.NoteOnEvent(tick=0, channel=9, data=[38, 95]),
   midi.NoteOffEvent(tick=480, channel=9, data=[46, 95]),
   midi.NoteOffEvent(tick=0, channel=9, data=[38, 95]),
   midi.NoteOnEvent(tick=0, channel=9, data=[46, 95]),
   midi.NoteOnEvent(tick=0, channel=9, data=[35, 95]),
   midi.NoteOffEvent(tick=480, channel=9, data=[46, 95]),
   midi.NoteOffEvent(tick=0, channel=9, data=[35, 95]),
   midi.NoteOnEvent(tick=0, channel=9, data=[46, 95]),
   midi.NoteOnEvent(tick=0, channel=9, data=[38, 95]),
   midi.NoteOffEvent(tick=480, channel=9, data=[46, 95]),
   midi.NoteOffEvent(tick=0, channel=9, data=[38, 95]),
   midi.NoteOnEvent(tick=0, channel=9, data=[46, 95]),
   midi.NoteOnEvent(tick=0, channel=9, data=[35, 95]),
   midi.NoteOffEvent(tick=480, channel=9, data=[46, 95]),
   midi.NoteOffEvent(tick=0, channel=9, data=[35, 95]),
   midi.NoteOnEvent(tick=0, channel=9, data=[46, 95]),
   midi.NoteOnEvent(tick=0, channel=9, data=[38, 95]),
   midi.NoteOffEvent(tick=480, channel=9, data=[46, 95]),
   midi.NoteOffEvent(tick=0, channel=9, data=[38, 95]),
   midi.NoteOnEvent(tick=0, channel=9, data=[46, 95]),
   midi.NoteOnEvent(tick=0, channel=9, data=[35, 95]),
   midi.NoteOffEvent(tick=480, channel=9, data=[46, 95]),
   midi.NoteOffEvent(tick=0, channel=9, data=[35, 95]),
   midi.NoteOnEvent(tick=0, channel=9, data=[46, 95]),
   midi.NoteOnEvent(tick=0, channel=9, data=[38, 95]),
   midi.NoteOffEvent(tick=480, channel=9, data=[46, 95]),
   midi.NoteOffEvent(tick=0, channel=9, data=[38, 95]),
   midi.NoteOnEvent(tick=0, channel=9, data=[46, 95]),
   midi.NoteOnEvent(tick=0, channel=9, data=[35, 95]),
   midi.NoteOffEvent(tick=480, channel=9, data=[46, 95]),
   midi.NoteOffEvent(tick=0, channel=9, data=[35, 95]),
   midi.NoteOnEvent(tick=0, channel=9, data=[46, 95]),
   midi.NoteOnEvent(tick=0, channel=9, data=[38, 95]),
   midi.NoteOffEvent(tick=480, channel=9, data=[46, 95]),
   midi.NoteOffEvent(tick=0, channel=9, data=[38, 95]),
   midi.NoteOnEvent(tick=0, channel=9, data=[49, 95]),
   midi.NoteOnEvent(tick=0, channel=9, data=[35, 95]),
   midi.NoteOffEvent(tick=480, channel=9, data=[49, 95]),
   midi.NoteOffEvent(tick=0, channel=9, data=[35, 95]),
   midi.NoteOnEvent(tick=0, channel=9, data=[57, 95]),
   midi.NoteOnEvent(tick=0, channel=9, data=[38, 95]),
   midi.NoteOffEvent(tick=480, channel=9, data=[57, 95]),
   midi.NoteOffEvent(tick=0, channel=9, data=[38, 95]),
   midi.NoteOnEvent(tick=0, channel=9, data=[49, 95]),
   midi.NoteOnEvent(tick=0, channel=9, data=[35, 95]),
   midi.NoteOffEvent(tick=480, channel=9, data=[49, 95]),
   midi.NoteOffEvent(tick=0, channel=9, data=[35, 95]),
   midi.NoteOnEvent(tick=0, channel=9, data=[57, 95]),
   midi.NoteOnEvent(tick=0, channel=9, data=[38, 95]),
   midi.NoteOffEvent(tick=480, channel=9, data=[57, 95]),
   midi.NoteOffEvent(tick=0, channel=9, data=[38, 95]),
   midi.NoteOnEvent(tick=0, channel=9, data=[49, 95]),
   midi.NoteOnEvent(tick=0, channel=9, data=[35, 95]),
   midi.NoteOffEvent(tick=480, channel=9, data=[49, 95]),
   midi.NoteOffEvent(tick=0, channel=9, data=[35, 95]),
   midi.NoteOnEvent(tick=0, channel=9, data=[57, 95]),
   midi.NoteOnEvent(tick=0, channel=9, data=[38, 95]),
   midi.NoteOffEvent(tick=480, channel=9, data=[57, 95]),
   midi.NoteOffEvent(tick=0, channel=9, data=[38, 95]),
   midi.NoteOnEvent(tick=0, channel=9, data=[49, 95]),
   midi.NoteOnEvent(tick=0, channel=9, data=[35, 95]),
   midi.NoteOffEvent(tick=480, channel=9, data=[49, 95]),
   midi.NoteOffEvent(tick=0, channel=9, data=[35, 95]),
   midi.NoteOnEvent(tick=0, channel=9, data=[46, 95]),
   midi.NoteOnEvent(tick=0, channel=9, data=[38, 95]),
   midi.NoteOffEvent(tick=480, channel=9, data=[46, 95]),
   midi.NoteOffEvent(tick=0, channel=9, data=[38, 95]),
   midi.NoteOnEvent(tick=0, channel=9, data=[46, 95]),
   midi.NoteOnEvent(tick=0, channel=9, data=[35, 95]),
   midi.NoteOffEvent(tick=480, channel=9, data=[46, 95]),
   midi.NoteOffEvent(tick=0, channel=9, data=[35, 95]),
   midi.NoteOnEvent(tick=0, channel=9, data=[46, 95]),
   midi.NoteOnEvent(tick=0, channel=9, data=[38, 95]),
   midi.NoteOffEvent(tick=480, channel=9, data=[46, 95]),
   midi.NoteOffEvent(tick=0, channel=9, data=[38, 95]),
   midi.NoteOnEvent(tick=0, channel=9, data=[46, 95]),
   midi.NoteOnEvent(tick=0, channel=9, data=[35, 95]),
   midi.NoteOffEvent(tick=480, channel=9, data=[46, 95]),
   midi.NoteOffEvent(tick=0, channel=9, data=[35, 95]),
   midi.NoteOnEvent(tick=0, channel=9, data=[46, 95]),
   midi.NoteOnEvent(tick=0, channel=9, data=[38, 95]),
   midi.NoteOffEvent(tick=480, channel=9, data=[46, 95]),
   midi.NoteOffEvent(tick=0, channel=9, data=[38, 95]),
   midi.NoteOnEvent(tick=0, channel=9, data=[46, 95]),
   midi.NoteOnEvent(tick=0, channel=9, data=[35, 95]),
   midi.NoteOffEvent(tick=480, channel=9, data=[46, 95]),
   midi.NoteOffEvent(tick=0, channel=9, data=[35, 95]),
   midi.NoteOnEvent(tick=0, channel=9, data=[46, 95]),
   midi.NoteOnEvent(tick=0, channel=9, data=[38, 95]),
   midi.NoteOffEvent(tick=480, channel=9, data=[46, 95]),
   midi.NoteOffEvent(tick=0, channel=9, data=[38, 95]),
   midi.NoteOnEvent(tick=0, channel=9, data=[35, 95]),
   midi.NoteOnEvent(tick=0, channel=9, data=[38, 95]),
   midi.NoteOffEvent(tick=240, channel=9, data=[35, 95]),
   midi.NoteOffEvent(tick=0, channel=9, data=[38, 95]),
   midi.NoteOnEvent(tick=0, channel=9, data=[35, 95]),
   midi.NoteOnEvent(tick=0, channel=9, data=[38, 95]),
   midi.NoteOffEvent(tick=240, channel=9, data=[35, 95]),
   midi.NoteOffEvent(tick=0, channel=9, data=[38, 95]),
   midi.NoteOnEvent(tick=0, channel=9, data=[35, 95]),
   midi.NoteOnEvent(tick=0, channel=9, data=[43, 95]),
   midi.NoteOffEvent(tick=240, channel=9, data=[35, 95]),
   midi.NoteOffEvent(tick=0, channel=9, data=[43, 95]),
   midi.NoteOnEvent(tick=0, channel=9, data=[35, 95]),
   midi.NoteOnEvent(tick=0, channel=9, data=[43, 95]),
   midi.NoteOffEvent(tick=240, channel=9, data=[35, 95]),
   midi.NoteOffEvent(tick=0, channel=9, data=[43, 95]),
   midi.NoteOnEvent(tick=0, channel=9, data=[35, 95]),
   midi.NoteOnEvent(tick=0, channel=9, data=[45, 95]),
   midi.NoteOffEvent(tick=240, channel=9, data=[35, 95]),
   midi.NoteOffEvent(tick=0, channel=9, data=[45, 95]),
   midi.NoteOnEvent(tick=0, channel=9, data=[35, 95]),
   midi.NoteOnEvent(tick=0, channel=9, data=[45, 95]),
   midi.NoteOffEvent(tick=240, channel=9, data=[35, 95]),
   midi.NoteOffEvent(tick=0, channel=9, data=[45, 95]),
   midi.NoteOnEvent(tick=0, channel=9, data=[35, 95]),
   midi.NoteOnEvent(tick=0, channel=9, data=[47, 95]),
   midi.NoteOffEvent(tick=240, channel=9, data=[35, 95]),
   midi.NoteOffEvent(tick=0, channel=9, data=[47, 95]),
   midi.NoteOnEvent(tick=0, channel=9, data=[35, 95]),
   midi.NoteOnEvent(tick=0, channel=9, data=[47, 95]),
   midi.NoteOffEvent(tick=240, channel=9, data=[35, 95]),
   midi.NoteOffEvent(tick=0, channel=9, data=[47, 95]),
   midi.NoteOnEvent(tick=0, channel=9, data=[35, 95]),
   midi.NoteOnEvent(tick=0, channel=9, data=[48, 95]),
   midi.NoteOffEvent(tick=240, channel=9, data=[35, 95]),
   midi.NoteOffEvent(tick=0, channel=9, data=[48, 95]),
   midi.NoteOnEvent(tick=0, channel=9, data=[35, 95]),
   midi.NoteOnEvent(tick=0, channel=9, data=[48, 95]),
   midi.NoteOffEvent(tick=240, channel=9, data=[35, 95]),
   midi.NoteOffEvent(tick=0, channel=9, data=[48, 95]),
   midi.NoteOnEvent(tick=0, channel=9, data=[35, 95]),
   midi.NoteOnEvent(tick=0, channel=9, data=[50, 95]),
   midi.NoteOffEvent(tick=240, channel=9, data=[35, 95]),
   midi.NoteOffEvent(tick=0, channel=9, data=[50, 95]),
   midi.NoteOnEvent(tick=0, channel=9, data=[35, 95]),
   midi.NoteOnEvent(tick=0, channel=9, data=[50, 95]),
   midi.NoteOffEvent(tick=240, channel=9, data=[35, 95]),
   midi.NoteOffEvent(tick=0, channel=9, data=[50, 95]),
   midi.NoteOnEvent(tick=0, channel=9, data=[35, 95]),
   midi.NoteOnEvent(tick=0, channel=9, data=[41, 95]),
   midi.NoteOffEvent(tick=240, channel=9, data=[35, 95]),
   midi.NoteOffEvent(tick=0, channel=9, data=[41, 95]),
   midi.NoteOnEvent(tick=0, channel=9, data=[35, 95]),
   midi.NoteOnEvent(tick=0, channel=9, data=[41, 95]),
   midi.NoteOffEvent(tick=240, channel=9, data=[35, 95]),
   midi.NoteOffEvent(tick=0, channel=9, data=[41, 95]),
   midi.NoteOnEvent(tick=0, channel=9, data=[35, 95]),
   midi.NoteOnEvent(tick=0, channel=9, data=[38, 95]),
   midi.NoteOffEvent(tick=240, channel=9, data=[35, 95]),
   midi.NoteOffEvent(tick=0, channel=9, data=[38, 95]),
   midi.NoteOnEvent(tick=0, channel=9, data=[35, 95]),
   midi.NoteOnEvent(tick=0, channel=9, data=[38, 95]),
   midi.NoteOffEvent(tick=240, channel=9, data=[35, 95]),
   midi.NoteOffEvent(tick=0, channel=9, data=[38, 95]),
   midi.NoteOnEvent(tick=0, channel=9, data=[49, 95]),
   midi.NoteOnEvent(tick=0, channel=9, data=[35, 95]),
   midi.NoteOffEvent(tick=480, channel=9, data=[49, 95]),
   midi.NoteOffEvent(tick=0, channel=9, data=[35, 95]),
   midi.NoteOnEvent(tick=0, channel=9, data=[46, 95]),
   midi.NoteOnEvent(tick=0, channel=9, data=[38, 95]),
   midi.NoteOffEvent(tick=480, channel=9, data=[46, 95]),
   midi.NoteOffEvent(tick=0, channel=9, data=[38, 95]),
   midi.NoteOnEvent(tick=0, channel=9, data=[46, 95]),
   midi.NoteOnEvent(tick=0, channel=9, data=[35, 95]),
   midi.NoteOffEvent(tick=480, channel=9, data=[46, 95]),
   midi.NoteOffEvent(tick=0, channel=9, data=[35, 95]),
   midi.NoteOnEvent(tick=0, channel=9, data=[46, 95]),
   midi.NoteOnEvent(tick=0, channel=9, data=[38, 95]),
   midi.NoteOffEvent(tick=480, channel=9, data=[46, 95]),
   midi.NoteOffEvent(tick=0, channel=9, data=[38, 95]),
   midi.NoteOnEvent(tick=0, channel=9, data=[46, 95]),
   midi.NoteOnEvent(tick=0, channel=9, data=[35, 95]),
   midi.NoteOffEvent(tick=480, channel=9, data=[46, 95]),
   midi.NoteOffEvent(tick=0, channel=9, data=[35, 95]),
   midi.NoteOnEvent(tick=0, channel=9, data=[46, 95]),
   midi.NoteOnEvent(tick=0, channel=9, data=[38, 95]),
   midi.NoteOffEvent(tick=480, channel=9, data=[46, 95]),
   midi.NoteOffEvent(tick=0, channel=9, data=[38, 95]),
   midi.NoteOnEvent(tick=0, channel=9, data=[46, 95]),
   midi.NoteOnEvent(tick=0, channel=9, data=[35, 95]),
   midi.NoteOffEvent(tick=480, channel=9, data=[46, 95]),
   midi.NoteOffEvent(tick=0, channel=9, data=[35, 95]),
   midi.NoteOnEvent(tick=0, channel=9, data=[46, 95]),
   midi.NoteOnEvent(tick=0, channel=9, data=[38, 95]),
   midi.NoteOffEvent(tick=480, channel=9, data=[46, 95]),
   midi.NoteOffEvent(tick=0, channel=9, data=[38, 95]),
   midi.NoteOnEvent(tick=0, channel=9, data=[46, 95]),
   midi.NoteOnEvent(tick=0, channel=9, data=[35, 95]),
   midi.NoteOffEvent(tick=480, channel=9, data=[46, 95]),
   midi.NoteOffEvent(tick=0, channel=9, data=[35, 95]),
   midi.NoteOnEvent(tick=0, channel=9, data=[46, 95]),
   midi.NoteOnEvent(tick=0, channel=9, data=[38, 95]),
   midi.NoteOffEvent(tick=480, channel=9, data=[46, 95]),
   midi.NoteOffEvent(tick=0, channel=9, data=[38, 95]),
   midi.NoteOnEvent(tick=0, channel=9, data=[46, 95]),
   midi.NoteOnEvent(tick=0, channel=9, data=[35, 95]),
   midi.NoteOffEvent(tick=480, channel=9, data=[46, 95]),
   midi.NoteOffEvent(tick=0, channel=9, data=[35, 95]),
   midi.NoteOnEvent(tick=0, channel=9, data=[46, 95]),
   midi.NoteOnEvent(tick=0, channel=9, data=[38, 95]),
   midi.NoteOffEvent(tick=480, channel=9, data=[46, 95]),
   midi.NoteOffEvent(tick=0, channel=9, data=[38, 95]),
   midi.NoteOnEvent(tick=0, channel=9, data=[46, 95]),
   midi.NoteOnEvent(tick=0, channel=9, data=[35, 95]),
   midi.NoteOffEvent(tick=480, channel=9, data=[46, 95]),
   midi.NoteOffEvent(tick=0, channel=9, data=[35, 95]),
   midi.NoteOnEvent(tick=0, channel=9, data=[46, 95]),
   midi.NoteOnEvent(tick=0, channel=9, data=[38, 95]),
   midi.NoteOffEvent(tick=480, channel=9, data=[46, 95]),
   midi.NoteOffEvent(tick=0, channel=9, data=[38, 95]),
   midi.NoteOnEvent(tick=0, channel=9, data=[46, 95]),
   midi.NoteOnEvent(tick=0, channel=9, data=[35, 95]),
   midi.NoteOffEvent(tick=480, channel=9, data=[46, 95]),
   midi.NoteOffEvent(tick=0, channel=9, data=[35, 95]),
   midi.NoteOnEvent(tick=0, channel=9, data=[46, 95]),
   midi.NoteOnEvent(tick=0, channel=9, data=[38, 95]),
   midi.NoteOffEvent(tick=480, channel=9, data=[46, 95]),
   midi.NoteOffEvent(tick=0, channel=9, data=[38, 95]),
   midi.NoteOnEvent(tick=0, channel=9, data=[49, 95]),
   midi.NoteOnEvent(tick=0, channel=9, data=[35, 95]),
   midi.NoteOffEvent(tick=480, channel=9, data=[49, 95]),
   midi.NoteOffEvent(tick=0, channel=9, data=[35, 95]),
   midi.NoteOnEvent(tick=0, channel=9, data=[46, 95]),
   midi.NoteOnEvent(tick=0, channel=9, data=[38, 95]),
   midi.NoteOffEvent(tick=480, channel=9, data=[46, 95]),
   midi.NoteOffEvent(tick=0, channel=9, data=[38, 95]),
   midi.NoteOnEvent(tick=0, channel=9, data=[46, 95]),
   midi.NoteOnEvent(tick=0, channel=9, data=[35, 95]),
   midi.NoteOffEvent(tick=480, channel=9, data=[46, 95]),
   midi.NoteOffEvent(tick=0, channel=9, data=[35, 95]),
   midi.NoteOnEvent(tick=0, channel=9, data=[46, 95]),
   midi.NoteOnEvent(tick=0, channel=9, data=[38, 95]),
   midi.NoteOffEvent(tick=480, channel=9, data=[46, 95]),
   midi.NoteOffEvent(tick=0, channel=9, data=[38, 95]),
   midi.NoteOnEvent(tick=0, channel=9, data=[46, 95]),
   midi.NoteOnEvent(tick=0, channel=9, data=[35, 95]),
   midi.NoteOffEvent(tick=480, channel=9, data=[46, 95]),
   midi.NoteOffEvent(tick=0, channel=9, data=[35, 95]),
   midi.NoteOnEvent(tick=0, channel=9, data=[46, 95]),
   midi.NoteOnEvent(tick=0, channel=9, data=[38, 95]),
   midi.NoteOffEvent(tick=480, channel=9, data=[46, 95]),
   midi.NoteOffEvent(tick=0, channel=9, data=[38, 95]),
   midi.NoteOnEvent(tick=0, channel=9, data=[46, 95]),
   midi.NoteOnEvent(tick=0, channel=9, data=[35, 95]),
   midi.NoteOffEvent(tick=480, channel=9, data=[46, 95]),
   midi.NoteOffEvent(tick=0, channel=9, data=[35, 95]),
   midi.NoteOnEvent(tick=0, channel=9, data=[46, 95]),
   midi.NoteOnEvent(tick=0, channel=9, data=[38, 95]),
   midi.NoteOffEvent(tick=480, channel=9, data=[46, 95]),
   midi.NoteOffEvent(tick=0, channel=9, data=[38, 95]),
   midi.NoteOnEvent(tick=0, channel=9, data=[46, 95]),
   midi.NoteOnEvent(tick=0, channel=9, data=[35, 95]),
   midi.NoteOffEvent(tick=480, channel=9, data=[46, 95]),
   midi.NoteOffEvent(tick=0, channel=9, data=[35, 95]),
   midi.NoteOnEvent(tick=0, channel=9, data=[46, 95]),
   midi.NoteOnEvent(tick=0, channel=9, data=[38, 95]),
   midi.NoteOffEvent(tick=480, channel=9, data=[46, 95]),
   midi.NoteOffEvent(tick=0, channel=9, data=[38, 95]),
   midi.NoteOnEvent(tick=0, channel=9, data=[46, 95]),
   midi.NoteOnEvent(tick=0, channel=9, data=[35, 95]),
   midi.NoteOffEvent(tick=480, channel=9, data=[46, 95]),
   midi.NoteOffEvent(tick=0, channel=9, data=[35, 95]),
   midi.NoteOnEvent(tick=0, channel=9, data=[46, 95]),
   midi.NoteOnEvent(tick=0, channel=9, data=[38, 95]),
   midi.NoteOffEvent(tick=480, channel=9, data=[46, 95]),
   midi.NoteOffEvent(tick=0, channel=9, data=[38, 95]),
   midi.NoteOnEvent(tick=0, channel=9, data=[35, 95]),
   midi.NoteOnEvent(tick=0, channel=9, data=[38, 95]),
   midi.NoteOffEvent(tick=240, channel=9, data=[35, 95]),
   midi.NoteOffEvent(tick=0, channel=9, data=[38, 95]),
   midi.NoteOnEvent(tick=0, channel=9, data=[35, 95]),
   midi.NoteOnEvent(tick=0, channel=9, data=[38, 95]),
   midi.NoteOffEvent(tick=240, channel=9, data=[35, 95]),
   midi.NoteOffEvent(tick=0, channel=9, data=[38, 95]),
   midi.NoteOnEvent(tick=0, channel=9, data=[35, 95]),
   midi.NoteOffEvent(tick=240, channel=9, data=[35, 95]),
   midi.NoteOnEvent(tick=0, channel=9, data=[45, 95]),
   midi.NoteOffEvent(tick=240, channel=9, data=[45, 95]),
   midi.NoteOnEvent(tick=0, channel=9, data=[45, 95]),
   midi.NoteOffEvent(tick=240, channel=9, data=[45, 95]),
   midi.NoteOnEvent(tick=0, channel=9, data=[35, 95]),
   midi.NoteOnEvent(tick=0, channel=9, data=[38, 95]),
   midi.NoteOffEvent(tick=240, channel=9, data=[35, 95]),
   midi.NoteOffEvent(tick=0, channel=9, data=[38, 95]),
   midi.NoteOnEvent(tick=0, channel=9, data=[35, 95]),
   midi.NoteOnEvent(tick=0, channel=9, data=[38, 95]),
   midi.NoteOffEvent(tick=240, channel=9, data=[35, 95]),
   midi.NoteOffEvent(tick=0, channel=9, data=[38, 95]),
   midi.NoteOnEvent(tick=0, channel=9, data=[35, 95]),
   midi.NoteOffEvent(tick=240, channel=9, data=[35, 95]),
   midi.NoteOnEvent(tick=0, channel=9, data=[49, 95]),
   midi.NoteOnEvent(tick=0, channel=9, data=[35, 95]),
   midi.NoteOffEvent(tick=480, channel=9, data=[49, 95]),
   midi.NoteOffEvent(tick=0, channel=9, data=[35, 95]),
   midi.NoteOnEvent(tick=0, channel=9, data=[46, 95]),
   midi.NoteOnEvent(tick=0, channel=9, data=[38, 95]),
   midi.NoteOffEvent(tick=480, channel=9, data=[46, 95]),
   midi.NoteOffEvent(tick=0, channel=9, data=[38, 95]),
   midi.NoteOnEvent(tick=0, channel=9, data=[46, 95]),
   midi.NoteOnEvent(tick=0, channel=9, data=[35, 95]),
   midi.NoteOffEvent(tick=480, channel=9, data=[46, 95]),
   midi.NoteOffEvent(tick=0, channel=9, data=[35, 95]),
   midi.NoteOnEvent(tick=0, channel=9, data=[46, 95]),
   midi.NoteOnEvent(tick=0, channel=9, data=[38, 95]),
   midi.NoteOffEvent(tick=480, channel=9, data=[46, 95]),
   midi.NoteOffEvent(tick=0, channel=9, data=[38, 95]),
   midi.NoteOnEvent(tick=0, channel=9, data=[46, 95]),
   midi.NoteOnEvent(tick=0, channel=9, data=[35, 95]),
   midi.NoteOffEvent(tick=480, channel=9, data=[46, 95]),
   midi.NoteOffEvent(tick=0, channel=9, data=[35, 95]),
   midi.NoteOnEvent(tick=0, channel=9, data=[46, 95]),
   midi.NoteOnEvent(tick=0, channel=9, data=[38, 95]),
   midi.NoteOffEvent(tick=480, channel=9, data=[46, 95]),
   midi.NoteOffEvent(tick=0, channel=9, data=[38, 95]),
   midi.NoteOnEvent(tick=0, channel=9, data=[46, 95]),
   midi.NoteOnEvent(tick=0, channel=9, data=[35, 95]),
   midi.NoteOffEvent(tick=480, channel=9, data=[46, 95]),
   midi.NoteOffEvent(tick=0, channel=9, data=[35, 95]),
   midi.NoteOnEvent(tick=0, channel=9, data=[46, 95]),
   midi.NoteOnEvent(tick=0, channel=9, data=[38, 95]),
   midi.NoteOffEvent(tick=480, channel=9, data=[46, 95]),
   midi.NoteOffEvent(tick=0, channel=9, data=[38, 95]),
   midi.NoteOnEvent(tick=0, channel=9, data=[46, 95]),
   midi.NoteOnEvent(tick=0, channel=9, data=[35, 95]),
   midi.NoteOffEvent(tick=480, channel=9, data=[46, 95]),
   midi.NoteOffEvent(tick=0, channel=9, data=[35, 95]),
   midi.NoteOnEvent(tick=0, channel=9, data=[46, 95]),
   midi.NoteOnEvent(tick=0, channel=9, data=[38, 95]),
   midi.NoteOffEvent(tick=480, channel=9, data=[46, 95]),
   midi.NoteOffEvent(tick=0, channel=9, data=[38, 95]),
   midi.NoteOnEvent(tick=0, channel=9, data=[49, 95]),
   midi.NoteOnEvent(tick=0, channel=9, data=[35, 95]),
   midi.NoteOffEvent(tick=480, channel=9, data=[49, 95]),
   midi.NoteOffEvent(tick=0, channel=9, data=[35, 95]),
   midi.NoteOnEvent(tick=0, channel=9, data=[57, 95]),
   midi.NoteOnEvent(tick=0, channel=9, data=[38, 95]),
   midi.NoteOffEvent(tick=480, channel=9, data=[57, 95]),
   midi.NoteOffEvent(tick=0, channel=9, data=[38, 95]),
   midi.NoteOnEvent(tick=0, channel=9, data=[49, 95]),
   midi.NoteOnEvent(tick=0, channel=9, data=[35, 95]),
   midi.NoteOffEvent(tick=480, channel=9, data=[49, 95]),
   midi.NoteOffEvent(tick=0, channel=9, data=[35, 95]),
   midi.NoteOnEvent(tick=0, channel=9, data=[57, 95]),
   midi.NoteOnEvent(tick=0, channel=9, data=[38, 95]),
   midi.NoteOffEvent(tick=480, channel=9, data=[57, 95]),
   midi.NoteOffEvent(tick=0, channel=9, data=[38, 95]),
   midi.NoteOnEvent(tick=0, channel=9, data=[49, 95]),
   midi.NoteOnEvent(tick=0, channel=9, data=[35, 95]),
   midi.NoteOffEvent(tick=480, channel=9, data=[49, 95]),
   midi.NoteOffEvent(tick=0, channel=9, data=[35, 95]),
   midi.NoteOnEvent(tick=0, channel=9, data=[57, 95]),
   midi.NoteOnEvent(tick=0, channel=9, data=[38, 95]),
   midi.NoteOffEvent(tick=480, channel=9, data=[57, 95]),
   midi.NoteOffEvent(tick=0, channel=9, data=[38, 95]),
   midi.NoteOnEvent(tick=0, channel=9, data=[49, 95]),
   midi.NoteOnEvent(tick=0, channel=9, data=[35, 95]),
   midi.NoteOffEvent(tick=480, channel=9, data=[49, 95]),
   midi.NoteOffEvent(tick=0, channel=9, data=[35, 95]),
   midi.NoteOnEvent(tick=0, channel=9, data=[46, 95]),
   midi.NoteOnEvent(tick=0, channel=9, data=[38, 95]),
   midi.NoteOffEvent(tick=480, channel=9, data=[46, 95]),
   midi.NoteOffEvent(tick=0, channel=9, data=[38, 95]),
   midi.NoteOnEvent(tick=0, channel=9, data=[46, 95]),
   midi.NoteOnEvent(tick=0, channel=9, data=[35, 95]),
   midi.NoteOffEvent(tick=480, channel=9, data=[46, 95]),
   midi.NoteOffEvent(tick=0, channel=9, data=[35, 95]),
   midi.NoteOnEvent(tick=0, channel=9, data=[46, 95]),
   midi.NoteOnEvent(tick=0, channel=9, data=[38, 95]),
   midi.NoteOffEvent(tick=480, channel=9, data=[46, 95]),
   midi.NoteOffEvent(tick=0, channel=9, data=[38, 95]),
   midi.NoteOnEvent(tick=0, channel=9, data=[46, 95]),
   midi.NoteOnEvent(tick=0, channel=9, data=[35, 95]),
   midi.NoteOffEvent(tick=480, channel=9, data=[46, 95]),
   midi.NoteOffEvent(tick=0, channel=9, data=[35, 95]),
   midi.NoteOnEvent(tick=0, channel=9, data=[46, 95]),
   midi.NoteOnEvent(tick=0, channel=9, data=[38, 95]),
   midi.NoteOffEvent(tick=480, channel=9, data=[46, 95]),
   midi.NoteOffEvent(tick=0, channel=9, data=[38, 95]),
   midi.NoteOnEvent(tick=0, channel=9, data=[46, 95]),
   midi.NoteOnEvent(tick=0, channel=9, data=[35, 95]),
   midi.NoteOffEvent(tick=480, channel=9, data=[46, 95]),
   midi.NoteOffEvent(tick=0, channel=9, data=[35, 95]),
   midi.NoteOnEvent(tick=0, channel=9, data=[46, 95]),
   midi.NoteOnEvent(tick=0, channel=9, data=[38, 95]),
   midi.NoteOffEvent(tick=480, channel=9, data=[46, 95]),
   midi.NoteOffEvent(tick=0, channel=9, data=[38, 95]),
   midi.NoteOnEvent(tick=0, channel=9, data=[35, 95]),
   midi.NoteOnEvent(tick=0, channel=9, data=[38, 95]),
   midi.NoteOffEvent(tick=240, channel=9, data=[35, 95]),
   midi.NoteOffEvent(tick=0, channel=9, data=[38, 95]),
   midi.NoteOnEvent(tick=0, channel=9, data=[35, 95]),
   midi.NoteOnEvent(tick=0, channel=9, data=[38, 95]),
   midi.NoteOffEvent(tick=240, channel=9, data=[35, 95]),
   midi.NoteOffEvent(tick=0, channel=9, data=[38, 95]),
   midi.NoteOnEvent(tick=0, channel=9, data=[35, 95]),
   midi.NoteOnEvent(tick=0, channel=9, data=[43, 95]),
   midi.NoteOffEvent(tick=240, channel=9, data=[35, 95]),
   midi.NoteOffEvent(tick=0, channel=9, data=[43, 95]),
   midi.NoteOnEvent(tick=0, channel=9, data=[35, 95]),
   midi.NoteOnEvent(tick=0, channel=9, data=[43, 95]),
   midi.NoteOffEvent(tick=240, channel=9, data=[35, 95]),
   midi.NoteOffEvent(tick=0, channel=9, data=[43, 95]),
   midi.NoteOnEvent(tick=0, channel=9, data=[35, 95]),
   midi.NoteOnEvent(tick=0, channel=9, data=[45, 95]),
   midi.NoteOffEvent(tick=240, channel=9, data=[35, 95]),
   midi.NoteOffEvent(tick=0, channel=9, data=[45, 95]),
   midi.NoteOnEvent(tick=0, channel=9, data=[35, 95]),
   midi.NoteOnEvent(tick=0, channel=9, data=[45, 95]),
   midi.NoteOffEvent(tick=240, channel=9, data=[35, 95]),
   midi.NoteOffEvent(tick=0, channel=9, data=[45, 95]),
   midi.NoteOnEvent(tick=0, channel=9, data=[35, 95]),
   midi.NoteOnEvent(tick=0, channel=9, data=[47, 95]),
   midi.NoteOffEvent(tick=240, channel=9, data=[35, 95]),
   midi.NoteOffEvent(tick=0, channel=9, data=[47, 95]),
   midi.NoteOnEvent(tick=0, channel=9, data=[35, 95]),
   midi.NoteOnEvent(tick=0, channel=9, data=[47, 95]),
   midi.NoteOffEvent(tick=240, channel=9, data=[35, 95]),
   midi.NoteOffEvent(tick=0, channel=9, data=[47, 95]),
   midi.NoteOnEvent(tick=0, channel=9, data=[35, 95]),
   midi.NoteOnEvent(tick=0, channel=9, data=[48, 95]),
   midi.NoteOffEvent(tick=240, channel=9, data=[35, 95]),
   midi.NoteOffEvent(tick=0, channel=9, data=[48, 95]),
   midi.NoteOnEvent(tick=0, channel=9, data=[35, 95]),
   midi.NoteOnEvent(tick=0, channel=9, data=[48, 95]),
   midi.NoteOffEvent(tick=240, channel=9, data=[35, 95]),
   midi.NoteOffEvent(tick=0, channel=9, data=[48, 95]),
   midi.NoteOnEvent(tick=0, channel=9, data=[35, 95]),
   midi.NoteOnEvent(tick=0, channel=9, data=[50, 95]),
   midi.NoteOffEvent(tick=240, channel=9, data=[35, 95]),
   midi.NoteOffEvent(tick=0, channel=9, data=[50, 95]),
   midi.NoteOnEvent(tick=0, channel=9, data=[35, 95]),
   midi.NoteOnEvent(tick=0, channel=9, data=[50, 95]),
   midi.NoteOffEvent(tick=240, channel=9, data=[35, 95]),
   midi.NoteOffEvent(tick=0, channel=9, data=[50, 95]),
   midi.NoteOnEvent(tick=0, channel=9, data=[35, 95]),
   midi.NoteOnEvent(tick=0, channel=9, data=[41, 95]),
   midi.NoteOffEvent(tick=240, channel=9, data=[35, 95]),
   midi.NoteOffEvent(tick=0, channel=9, data=[41, 95]),
   midi.NoteOnEvent(tick=0, channel=9, data=[35, 95]),
   midi.NoteOnEvent(tick=0, channel=9, data=[41, 95]),
   midi.NoteOffEvent(tick=240, channel=9, data=[35, 95]),
   midi.NoteOffEvent(tick=0, channel=9, data=[41, 95]),
   midi.NoteOnEvent(tick=0, channel=9, data=[35, 95]),
   midi.NoteOnEvent(tick=0, channel=9, data=[38, 95]),
   midi.NoteOffEvent(tick=240, channel=9, data=[35, 95]),
   midi.NoteOffEvent(tick=0, channel=9, data=[38, 95]),
   midi.NoteOnEvent(tick=0, channel=9, data=[35, 95]),
   midi.NoteOnEvent(tick=0, channel=9, data=[38, 95]),
   midi.NoteOffEvent(tick=240, channel=9, data=[35, 95]),
   midi.NoteOffEvent(tick=0, channel=9, data=[38, 95]),
   midi.NoteOnEvent(tick=0, channel=9, data=[46, 95]),
   midi.NoteOffEvent(tick=960, channel=9, data=[46, 95]),
   midi.NoteOnEvent(tick=0, channel=9, data=[46, 95]),
   midi.NoteOffEvent(tick=960, channel=9, data=[46, 95]),
   midi.NoteOnEvent(tick=0, channel=9, data=[46, 95]),
   midi.NoteOffEvent(tick=960, channel=9, data=[46, 95]),
   midi.NoteOnEvent(tick=0, channel=9, data=[46, 95]),
   midi.NoteOffEvent(tick=960, channel=9, data=[46, 95]),
   midi.NoteOnEvent(tick=0, channel=9, data=[49, 95]),
   midi.NoteOnEvent(tick=0, channel=9, data=[35, 95]),
   midi.NoteOffEvent(tick=480, channel=9, data=[49, 95]),
   midi.NoteOffEvent(tick=0, channel=9, data=[35, 95]),
   midi.NoteOnEvent(tick=0, channel=9, data=[46, 95]),
   midi.NoteOnEvent(tick=0, channel=9, data=[38, 95]),
   midi.NoteOffEvent(tick=480, channel=9, data=[46, 95]),
   midi.NoteOffEvent(tick=0, channel=9, data=[38, 95]),
   midi.NoteOnEvent(tick=0, channel=9, data=[46, 95]),
   midi.NoteOnEvent(tick=0, channel=9, data=[35, 95]),
   midi.NoteOffEvent(tick=480, channel=9, data=[46, 95]),
   midi.NoteOffEvent(tick=0, channel=9, data=[35, 95]),
   midi.NoteOnEvent(tick=0, channel=9, data=[46, 95]),
   midi.NoteOnEvent(tick=0, channel=9, data=[38, 95]),
   midi.NoteOffEvent(tick=480, channel=9, data=[46, 95]),
   midi.NoteOffEvent(tick=0, channel=9, data=[38, 95]),
   midi.NoteOnEvent(tick=0, channel=9, data=[46, 95]),
   midi.NoteOnEvent(tick=0, channel=9, data=[35, 95]),
   midi.NoteOffEvent(tick=480, channel=9, data=[46, 95]),
   midi.NoteOffEvent(tick=0, channel=9, data=[35, 95]),
   midi.NoteOnEvent(tick=0, channel=9, data=[46, 95]),
   midi.NoteOnEvent(tick=0, channel=9, data=[38, 95]),
   midi.NoteOffEvent(tick=480, channel=9, data=[46, 95]),
   midi.NoteOffEvent(tick=0, channel=9, data=[38, 95]),
   midi.NoteOnEvent(tick=0, channel=9, data=[46, 95]),
   midi.NoteOnEvent(tick=0, channel=9, data=[35, 95]),
   midi.NoteOffEvent(tick=480, channel=9, data=[46, 95]),
   midi.NoteOffEvent(tick=0, channel=9, data=[35, 95]),
   midi.NoteOnEvent(tick=0, channel=9, data=[46, 95]),
   midi.NoteOnEvent(tick=0, channel=9, data=[38, 95]),
   midi.NoteOffEvent(tick=480, channel=9, data=[46, 95]),
   midi.NoteOffEvent(tick=0, channel=9, data=[38, 95]),
   midi.NoteOnEvent(tick=0, channel=9, data=[46, 95]),
   midi.NoteOnEvent(tick=0, channel=9, data=[35, 95]),
   midi.NoteOffEvent(tick=480, channel=9, data=[46, 95]),
   midi.NoteOffEvent(tick=0, channel=9, data=[35, 95]),
   midi.NoteOnEvent(tick=0, channel=9, data=[46, 95]),
   midi.NoteOnEvent(tick=0, channel=9, data=[38, 95]),
   midi.NoteOffEvent(tick=480, channel=9, data=[46, 95]),
   midi.NoteOffEvent(tick=0, channel=9, data=[38, 95]),
   midi.NoteOnEvent(tick=0, channel=9, data=[46, 95]),
   midi.NoteOnEvent(tick=0, channel=9, data=[35, 95]),
   midi.NoteOffEvent(tick=480, channel=9, data=[46, 95]),
   midi.NoteOffEvent(tick=0, channel=9, data=[35, 95]),
   midi.NoteOnEvent(tick=0, channel=9, data=[46, 95]),
   midi.NoteOnEvent(tick=0, channel=9, data=[38, 95]),
   midi.NoteOffEvent(tick=480, channel=9, data=[46, 95]),
   midi.NoteOffEvent(tick=0, channel=9, data=[38, 95]),
   midi.NoteOnEvent(tick=0, channel=9, data=[46, 95]),
   midi.NoteOnEvent(tick=0, channel=9, data=[35, 95]),
   midi.NoteOffEvent(tick=480, channel=9, data=[46, 95]),
   midi.NoteOffEvent(tick=0, channel=9, data=[35, 95]),
   midi.NoteOnEvent(tick=0, channel=9, data=[46, 95]),
   midi.NoteOnEvent(tick=0, channel=9, data=[38, 95]),
   midi.NoteOffEvent(tick=480, channel=9, data=[46, 95]),
   midi.NoteOffEvent(tick=0, channel=9, data=[38, 95]),
   midi.NoteOnEvent(tick=0, channel=9, data=[46, 95]),
   midi.NoteOnEvent(tick=0, channel=9, data=[35, 95]),
   midi.NoteOffEvent(tick=480, channel=9, data=[46, 95]),
   midi.NoteOffEvent(tick=0, channel=9, data=[35, 95]),
   midi.NoteOnEvent(tick=0, channel=9, data=[46, 95]),
   midi.NoteOnEvent(tick=0, channel=9, data=[38, 95]),
   midi.NoteOffEvent(tick=480, channel=9, data=[46, 95]),
   midi.NoteOffEvent(tick=0, channel=9, data=[38, 95]),
   midi.NoteOnEvent(tick=0, channel=9, data=[49, 95]),
   midi.NoteOnEvent(tick=0, channel=9, data=[35, 95]),
   midi.NoteOffEvent(tick=480, channel=9, data=[49, 95]),
   midi.NoteOffEvent(tick=0, channel=9, data=[35, 95]),
   midi.NoteOnEvent(tick=0, channel=9, data=[46, 95]),
   midi.NoteOnEvent(tick=0, channel=9, data=[38, 95]),
   midi.NoteOffEvent(tick=480, channel=9, data=[46, 95]),
   midi.NoteOffEvent(tick=0, channel=9, data=[38, 95]),
   midi.NoteOnEvent(tick=0, channel=9, data=[46, 95]),
   midi.NoteOnEvent(tick=0, channel=9, data=[35, 95]),
   midi.NoteOffEvent(tick=480, channel=9, data=[46, 95]),
   midi.NoteOffEvent(tick=0, channel=9, data=[35, 95]),
   midi.NoteOnEvent(tick=0, channel=9, data=[46, 95]),
   midi.NoteOnEvent(tick=0, channel=9, data=[38, 95]),
   midi.NoteOffEvent(tick=480, channel=9, data=[46, 95]),
   midi.NoteOffEvent(tick=0, channel=9, data=[38, 95]),
   midi.NoteOnEvent(tick=0, channel=9, data=[46, 95]),
   midi.NoteOnEvent(tick=0, channel=9, data=[35, 95]),
   midi.NoteOffEvent(tick=480, channel=9, data=[46, 95]),
   midi.NoteOffEvent(tick=0, channel=9, data=[35, 95]),
   midi.NoteOnEvent(tick=0, channel=9, data=[46, 95]),
   midi.NoteOnEvent(tick=0, channel=9, data=[38, 95]),
   midi.NoteOffEvent(tick=480, channel=9, data=[46, 95]),
   midi.NoteOffEvent(tick=0, channel=9, data=[38, 95]),
   midi.NoteOnEvent(tick=0, channel=9, data=[46, 95]),
   midi.NoteOnEvent(tick=0, channel=9, data=[35, 95]),
   midi.NoteOffEvent(tick=480, channel=9, data=[46, 95]),
   midi.NoteOffEvent(tick=0, channel=9, data=[35, 95]),
   midi.NoteOnEvent(tick=0, channel=9, data=[46, 95]),
   midi.NoteOnEvent(tick=0, channel=9, data=[38, 95]),
   midi.NoteOffEvent(tick=480, channel=9, data=[46, 95]),
   midi.NoteOffEvent(tick=0, channel=9, data=[38, 95]),
   midi.NoteOnEvent(tick=0, channel=9, data=[46, 95]),
   midi.NoteOnEvent(tick=0, channel=9, data=[35, 95]),
   midi.NoteOffEvent(tick=480, channel=9, data=[46, 95]),
   midi.NoteOffEvent(tick=0, channel=9, data=[35, 95]),
   midi.NoteOnEvent(tick=0, channel=9, data=[46, 95]),
   midi.NoteOnEvent(tick=0, channel=9, data=[38, 95]),
   midi.NoteOffEvent(tick=480, channel=9, data=[46, 95]),
   midi.NoteOffEvent(tick=0, channel=9, data=[38, 95]),
   midi.NoteOnEvent(tick=0, channel=9, data=[46, 95]),
   midi.NoteOnEvent(tick=0, channel=9, data=[35, 95]),
   midi.NoteOffEvent(tick=480, channel=9, data=[46, 95]),
   midi.NoteOffEvent(tick=0, channel=9, data=[35, 95]),
   midi.NoteOnEvent(tick=0, channel=9, data=[46, 95]),
   midi.NoteOnEvent(tick=0, channel=9, data=[38, 95]),
   midi.NoteOffEvent(tick=480, channel=9, data=[46, 95]),
   midi.NoteOffEvent(tick=0, channel=9, data=[38, 95]),
   midi.NoteOnEvent(tick=0, channel=9, data=[46, 95]),
   midi.NoteOnEvent(tick=0, channel=9, data=[35, 95]),
   midi.NoteOffEvent(tick=480, channel=9, data=[46, 95]),
   midi.NoteOffEvent(tick=0, channel=9, data=[35, 95]),
   midi.NoteOnEvent(tick=0, channel=9, data=[46, 95]),
   midi.NoteOnEvent(tick=0, channel=9, data=[38, 95]),
   midi.NoteOffEvent(tick=480, channel=9, data=[46, 95]),
   midi.NoteOffEvent(tick=0, channel=9, data=[38, 95]),
   midi.NoteOnEvent(tick=0, channel=9, data=[46, 95]),
   midi.NoteOnEvent(tick=0, channel=9, data=[35, 95]),
   midi.NoteOffEvent(tick=480, channel=9, data=[46, 95]),
   midi.NoteOffEvent(tick=0, channel=9, data=[35, 95]),
   midi.NoteOnEvent(tick=0, channel=9, data=[46, 95]),
   midi.NoteOnEvent(tick=0, channel=9, data=[38, 95]),
   midi.NoteOffEvent(tick=480, channel=9, data=[46, 95]),
   midi.NoteOffEvent(tick=0, channel=9, data=[38, 95]),
   midi.NoteOnEvent(tick=0, channel=9, data=[49, 95]),
   midi.NoteOnEvent(tick=0, channel=9, data=[35, 95]),
   midi.NoteOffEvent(tick=480, channel=9, data=[49, 95]),
   midi.NoteOffEvent(tick=0, channel=9, data=[35, 95]),
   midi.NoteOnEvent(tick=0, channel=9, data=[46, 95]),
   midi.NoteOnEvent(tick=0, channel=9, data=[38, 95]),
   midi.NoteOffEvent(tick=480, channel=9, data=[46, 95]),
   midi.NoteOffEvent(tick=0, channel=9, data=[38, 95]),
   midi.NoteOnEvent(tick=0, channel=9, data=[46, 95]),
   midi.NoteOnEvent(tick=0, channel=9, data=[35, 95]),
   midi.NoteOffEvent(tick=480, channel=9, data=[46, 95]),
   midi.NoteOffEvent(tick=0, channel=9, data=[35, 95]),
   midi.NoteOnEvent(tick=0, channel=9, data=[46, 95]),
   midi.NoteOnEvent(tick=0, channel=9, data=[38, 95]),
   midi.NoteOffEvent(tick=480, channel=9, data=[46, 95]),
   midi.NoteOffEvent(tick=0, channel=9, data=[38, 95]),
   midi.NoteOnEvent(tick=0, channel=9, data=[46, 95]),
   midi.NoteOnEvent(tick=0, channel=9, data=[35, 95]),
   midi.NoteOffEvent(tick=480, channel=9, data=[46, 95]),
   midi.NoteOffEvent(tick=0, channel=9, data=[35, 95]),
   midi.NoteOnEvent(tick=0, channel=9, data=[46, 95]),
   midi.NoteOnEvent(tick=0, channel=9, data=[38, 95]),
   midi.NoteOffEvent(tick=480, channel=9, data=[46, 95]),
   midi.NoteOffEvent(tick=0, channel=9, data=[38, 95]),
   midi.NoteOnEvent(tick=0, channel=9, data=[46, 95]),
   midi.NoteOnEvent(tick=0, channel=9, data=[35, 95]),
   midi.NoteOffEvent(tick=480, channel=9, data=[46, 95]),
   midi.NoteOffEvent(tick=0, channel=9, data=[35, 95]),
   midi.NoteOnEvent(tick=0, channel=9, data=[46, 95]),
   midi.NoteOnEvent(tick=0, channel=9, data=[38, 95]),
   midi.NoteOffEvent(tick=480, channel=9, data=[46, 95]),
   midi.NoteOffEvent(tick=0, channel=9, data=[38, 95]),
   midi.NoteOnEvent(tick=0, channel=9, data=[46, 95]),
   midi.NoteOnEvent(tick=0, channel=9, data=[35, 95]),
   midi.NoteOffEvent(tick=480, channel=9, data=[46, 95]),
   midi.NoteOffEvent(tick=0, channel=9, data=[35, 95]),
   midi.NoteOnEvent(tick=0, channel=9, data=[46, 95]),
   midi.NoteOnEvent(tick=0, channel=9, data=[38, 95]),
   midi.NoteOffEvent(tick=480, channel=9, data=[46, 95]),
   midi.NoteOffEvent(tick=0, channel=9, data=[38, 95]),
   midi.NoteOnEvent(tick=0, channel=9, data=[46, 95]),
   midi.NoteOnEvent(tick=0, channel=9, data=[35, 95]),
   midi.NoteOffEvent(tick=480, channel=9, data=[46, 95]),
   midi.NoteOffEvent(tick=0, channel=9, data=[35, 95]),
   midi.NoteOnEvent(tick=0, channel=9, data=[46, 95]),
   midi.NoteOnEvent(tick=0, channel=9, data=[38, 95]),
   midi.NoteOffEvent(tick=480, channel=9, data=[46, 95]),
   midi.NoteOffEvent(tick=0, channel=9, data=[38, 95]),
   midi.NoteOnEvent(tick=0, channel=9, data=[46, 95]),
   midi.NoteOnEvent(tick=0, channel=9, data=[35, 95]),
   midi.NoteOffEvent(tick=480, channel=9, data=[46, 95]),
   midi.NoteOffEvent(tick=0, channel=9, data=[35, 95]),
   midi.NoteOnEvent(tick=0, channel=9, data=[46, 95]),
   midi.NoteOnEvent(tick=0, channel=9, data=[38, 95]),
   midi.NoteOffEvent(tick=480, channel=9, data=[46, 95]),
   midi.NoteOffEvent(tick=0, channel=9, data=[38, 95]),
   midi.NoteOnEvent(tick=0, channel=9, data=[46, 95]),
   midi.NoteOnEvent(tick=0, channel=9, data=[35, 95]),
   midi.NoteOffEvent(tick=480, channel=9, data=[46, 95]),
   midi.NoteOffEvent(tick=0, channel=9, data=[35, 95]),
   midi.NoteOnEvent(tick=0, channel=9, data=[46, 95]),
   midi.NoteOnEvent(tick=0, channel=9, data=[38, 95]),
   midi.NoteOffEvent(tick=480, channel=9, data=[46, 95]),
   midi.NoteOffEvent(tick=0, channel=9, data=[38, 95]),
   midi.NoteOnEvent(tick=0, channel=9, data=[49, 95]),
   midi.NoteOnEvent(tick=0, channel=9, data=[35, 95]),
   midi.NoteOffEvent(tick=480, channel=9, data=[49, 95]),
   midi.NoteOffEvent(tick=0, channel=9, data=[35, 95]),
   midi.NoteOnEvent(tick=0, channel=9, data=[46, 95]),
   midi.NoteOnEvent(tick=0, channel=9, data=[38, 95]),
   midi.NoteOffEvent(tick=480, channel=9, data=[46, 95]),
   midi.NoteOffEvent(tick=0, channel=9, data=[38, 95]),
   midi.NoteOnEvent(tick=0, channel=9, data=[46, 95]),
   midi.NoteOnEvent(tick=0, channel=9, data=[35, 95]),
   midi.NoteOffEvent(tick=480, channel=9, data=[46, 95]),
   midi.NoteOffEvent(tick=0, channel=9, data=[35, 95]),
   midi.NoteOnEvent(tick=0, channel=9, data=[46, 95]),
   midi.NoteOnEvent(tick=0, channel=9, data=[38, 95]),
   midi.NoteOffEvent(tick=480, channel=9, data=[46, 95]),
   midi.NoteOffEvent(tick=0, channel=9, data=[38, 95]),
   midi.NoteOnEvent(tick=0, channel=9, data=[46, 95]),
   midi.NoteOnEvent(tick=0, channel=9, data=[35, 95]),
   midi.NoteOffEvent(tick=480, channel=9, data=[46, 95]),
   midi.NoteOffEvent(tick=0, channel=9, data=[35, 95]),
   midi.NoteOnEvent(tick=0, channel=9, data=[46, 95]),
   midi.NoteOnEvent(tick=0, channel=9, data=[38, 95]),
   midi.NoteOffEvent(tick=480, channel=9, data=[46, 95]),
   midi.NoteOffEvent(tick=0, channel=9, data=[38, 95]),
   midi.NoteOnEvent(tick=0, channel=9, data=[46, 95]),
   midi.NoteOnEvent(tick=0, channel=9, data=[35, 95]),
   midi.NoteOffEvent(tick=480, channel=9, data=[46, 95]),
   midi.NoteOffEvent(tick=0, channel=9, data=[35, 95]),
   midi.NoteOnEvent(tick=0, channel=9, data=[46, 95]),
   midi.NoteOnEvent(tick=0, channel=9, data=[38, 95]),
   midi.NoteOffEvent(tick=480, channel=9, data=[46, 95]),
   midi.NoteOffEvent(tick=0, channel=9, data=[38, 95]),
   midi.NoteOnEvent(tick=0, channel=9, data=[57, 95]),
   midi.NoteOnEvent(tick=0, channel=9, data=[49, 95]),
   midi.NoteOnEvent(tick=0, channel=9, data=[35, 95]),
   midi.NoteOffEvent(tick=1920, channel=9, data=[57, 95]),
   midi.NoteOffEvent(tick=0, channel=9, data=[49, 95]),
   midi.NoteOffEvent(tick=0, channel=9, data=[35, 95]),
   midi.NoteOnEvent(tick=0, channel=9, data=[57, 95]),
   midi.NoteOnEvent(tick=0, channel=9, data=[49, 95]),
   midi.NoteOnEvent(tick=0, channel=9, data=[35, 95]),
   midi.NoteOffEvent(tick=1920, channel=9, data=[57, 95]),
   midi.NoteOffEvent(tick=0, channel=9, data=[49, 95]),
   midi.NoteOffEvent(tick=0, channel=9, data=[35, 95]),
   midi.NoteOnEvent(tick=0, channel=9, data=[49, 95]),
   midi.NoteOnEvent(tick=0, channel=9, data=[35, 95]),
   midi.NoteOffEvent(tick=480, channel=9, data=[49, 95]),
   midi.NoteOffEvent(tick=0, channel=9, data=[35, 95]),
   midi.NoteOnEvent(tick=0, channel=9, data=[46, 95]),
   midi.NoteOnEvent(tick=0, channel=9, data=[38, 95]),
   midi.NoteOffEvent(tick=480, channel=9, data=[46, 95]),
   midi.NoteOffEvent(tick=0, channel=9, data=[38, 95]),
   midi.NoteOnEvent(tick=0, channel=9, data=[46, 95]),
   midi.NoteOnEvent(tick=0, channel=9, data=[35, 95]),
   midi.NoteOffEvent(tick=480, channel=9, data=[46, 95]),
   midi.NoteOffEvent(tick=0, channel=9, data=[35, 95]),
   midi.NoteOnEvent(tick=0, channel=9, data=[46, 95]),
   midi.NoteOnEvent(tick=0, channel=9, data=[38, 95]),
   midi.NoteOffEvent(tick=480, channel=9, data=[46, 95]),
   midi.NoteOffEvent(tick=0, channel=9, data=[38, 95]),
   midi.NoteOnEvent(tick=0, channel=9, data=[46, 95]),
   midi.NoteOnEvent(tick=0, channel=9, data=[35, 95]),
   midi.NoteOffEvent(tick=480, channel=9, data=[46, 95]),
   midi.NoteOffEvent(tick=0, channel=9, data=[35, 95]),
   midi.NoteOnEvent(tick=0, channel=9, data=[46, 95]),
   midi.NoteOnEvent(tick=0, channel=9, data=[38, 95]),
   midi.NoteOffEvent(tick=480, channel=9, data=[46, 95]),
   midi.NoteOffEvent(tick=0, channel=9, data=[38, 95]),
   midi.NoteOnEvent(tick=0, channel=9, data=[46, 95]),
   midi.NoteOnEvent(tick=0, channel=9, data=[35, 95]),
   midi.NoteOffEvent(tick=480, channel=9, data=[46, 95]),
   midi.NoteOffEvent(tick=0, channel=9, data=[35, 95]),
   midi.NoteOnEvent(tick=0, channel=9, data=[46, 95]),
   midi.NoteOnEvent(tick=0, channel=9, data=[38, 95]),
   midi.NoteOffEvent(tick=480, channel=9, data=[46, 95]),
   midi.NoteOffEvent(tick=0, channel=9, data=[38, 95]),
   midi.NoteOnEvent(tick=0, channel=9, data=[46, 95]),
   midi.NoteOnEvent(tick=0, channel=9, data=[35, 95]),
   midi.NoteOffEvent(tick=480, channel=9, data=[46, 95]),
   midi.NoteOffEvent(tick=0, channel=9, data=[35, 95]),
   midi.NoteOnEvent(tick=0, channel=9, data=[46, 95]),
   midi.NoteOnEvent(tick=0, channel=9, data=[38, 95]),
   midi.NoteOffEvent(tick=480, channel=9, data=[46, 95]),
   midi.NoteOffEvent(tick=0, channel=9, data=[38, 95]),
   midi.NoteOnEvent(tick=0, channel=9, data=[46, 95]),
   midi.NoteOnEvent(tick=0, channel=9, data=[35, 95]),
   midi.NoteOffEvent(tick=480, channel=9, data=[46, 95]),
   midi.NoteOffEvent(tick=0, channel=9, data=[35, 95]),
   midi.NoteOnEvent(tick=0, channel=9, data=[46, 95]),
   midi.NoteOnEvent(tick=0, channel=9, data=[38, 95]),
   midi.NoteOffEvent(tick=480, channel=9, data=[46, 95]),
   midi.NoteOffEvent(tick=0, channel=9, data=[38, 95]),
   midi.NoteOnEvent(tick=0, channel=9, data=[46, 95]),
   midi.NoteOnEvent(tick=0, channel=9, data=[35, 95]),
   midi.NoteOffEvent(tick=480, channel=9, data=[46, 95]),
   midi.NoteOffEvent(tick=0, channel=9, data=[35, 95]),
   midi.NoteOnEvent(tick=0, channel=9, data=[46, 95]),
   midi.NoteOnEvent(tick=0, channel=9, data=[38, 95]),
   midi.NoteOffEvent(tick=480, channel=9, data=[46, 95]),
   midi.NoteOffEvent(tick=0, channel=9, data=[38, 95]),
   midi.NoteOnEvent(tick=0, channel=9, data=[46, 95]),
   midi.NoteOnEvent(tick=0, channel=9, data=[35, 95]),
   midi.NoteOffEvent(tick=480, channel=9, data=[46, 95]),
   midi.NoteOffEvent(tick=0, channel=9, data=[35, 95]),
   midi.NoteOnEvent(tick=0, channel=9, data=[46, 95]),
   midi.NoteOnEvent(tick=0, channel=9, data=[38, 95]),
   midi.NoteOffEvent(tick=480, channel=9, data=[46, 95]),
   midi.NoteOffEvent(tick=0, channel=9, data=[38, 95]),
   midi.NoteOnEvent(tick=0, channel=9, data=[49, 95]),
   midi.NoteOnEvent(tick=0, channel=9, data=[35, 95]),
   midi.NoteOffEvent(tick=480, channel=9, data=[49, 95]),
   midi.NoteOffEvent(tick=0, channel=9, data=[35, 95]),
   midi.NoteOnEvent(tick=0, channel=9, data=[46, 95]),
   midi.NoteOnEvent(tick=0, channel=9, data=[38, 95]),
   midi.NoteOffEvent(tick=480, channel=9, data=[46, 95]),
   midi.NoteOffEvent(tick=0, channel=9, data=[38, 95]),
   midi.NoteOnEvent(tick=0, channel=9, data=[46, 95]),
   midi.NoteOnEvent(tick=0, channel=9, data=[35, 95]),
   midi.NoteOffEvent(tick=480, channel=9, data=[46, 95]),
   midi.NoteOffEvent(tick=0, channel=9, data=[35, 95]),
   midi.NoteOnEvent(tick=0, channel=9, data=[46, 95]),
   midi.NoteOnEvent(tick=0, channel=9, data=[38, 95]),
   midi.NoteOffEvent(tick=480, channel=9, data=[46, 95]),
   midi.NoteOffEvent(tick=0, channel=9, data=[38, 95]),
   midi.NoteOnEvent(tick=0, channel=9, data=[46, 95]),
   midi.NoteOnEvent(tick=0, channel=9, data=[35, 95]),
   midi.NoteOffEvent(tick=480, channel=9, data=[46, 95]),
   midi.NoteOffEvent(tick=0, channel=9, data=[35, 95]),
   midi.NoteOnEvent(tick=0, channel=9, data=[46, 95]),
   midi.NoteOnEvent(tick=0, channel=9, data=[38, 95]),
   midi.NoteOffEvent(tick=480, channel=9, data=[46, 95]),
   midi.NoteOffEvent(tick=0, channel=9, data=[38, 95]),
   midi.NoteOnEvent(tick=0, channel=9, data=[46, 95]),
   midi.NoteOnEvent(tick=0, channel=9, data=[35, 95]),
   midi.NoteOffEvent(tick=480, channel=9, data=[46, 95]),
   midi.NoteOffEvent(tick=0, channel=9, data=[35, 95]),
   midi.NoteOnEvent(tick=0, channel=9, data=[46, 95]),
   midi.NoteOnEvent(tick=0, channel=9, data=[38, 95]),
   midi.NoteOffEvent(tick=480, channel=9, data=[46, 95]),
   midi.NoteOffEvent(tick=0, channel=9, data=[38, 95]),
   midi.NoteOnEvent(tick=0, channel=9, data=[46, 95]),
   midi.NoteOnEvent(tick=0, channel=9, data=[35, 95]),
   midi.NoteOffEvent(tick=480, channel=9, data=[46, 95]),
   midi.NoteOffEvent(tick=0, channel=9, data=[35, 95]),
   midi.NoteOnEvent(tick=0, channel=9, data=[46, 95]),
   midi.NoteOnEvent(tick=0, channel=9, data=[38, 95]),
   midi.NoteOffEvent(tick=480, channel=9, data=[46, 95]),
   midi.NoteOffEvent(tick=0, channel=9, data=[38, 95]),
   midi.NoteOnEvent(tick=0, channel=9, data=[46, 95]),
   midi.NoteOnEvent(tick=0, channel=9, data=[35, 95]),
   midi.NoteOffEvent(tick=480, channel=9, data=[46, 95]),
   midi.NoteOffEvent(tick=0, channel=9, data=[35, 95]),
   midi.NoteOnEvent(tick=0, channel=9, data=[46, 95]),
   midi.NoteOnEvent(tick=0, channel=9, data=[38, 95]),
   midi.NoteOffEvent(tick=480, channel=9, data=[46, 95]),
   midi.NoteOffEvent(tick=0, channel=9, data=[38, 95]),
   midi.NoteOnEvent(tick=0, channel=9, data=[46, 95]),
   midi.NoteOnEvent(tick=0, channel=9, data=[35, 95]),
   midi.NoteOffEvent(tick=480, channel=9, data=[46, 95]),
   midi.NoteOffEvent(tick=0, channel=9, data=[35, 95]),
   midi.NoteOnEvent(tick=0, channel=9, data=[46, 95]),
   midi.NoteOnEvent(tick=0, channel=9, data=[38, 95]),
   midi.NoteOffEvent(tick=480, channel=9, data=[46, 95]),
   midi.NoteOffEvent(tick=0, channel=9, data=[38, 95]),
   midi.NoteOnEvent(tick=0, channel=9, data=[46, 95]),
   midi.NoteOnEvent(tick=0, channel=9, data=[35, 95]),
   midi.NoteOffEvent(tick=480, channel=9, data=[46, 95]),
   midi.NoteOffEvent(tick=0, channel=9, data=[35, 95]),
   midi.NoteOnEvent(tick=0, channel=9, data=[46, 95]),
   midi.NoteOnEvent(tick=0, channel=9, data=[38, 95]),
   midi.NoteOffEvent(tick=480, channel=9, data=[46, 95]),
   midi.NoteOffEvent(tick=0, channel=9, data=[38, 95]),
   midi.NoteOnEvent(tick=0, channel=9, data=[49, 95]),
   midi.NoteOnEvent(tick=0, channel=9, data=[35, 95]),
   midi.NoteOffEvent(tick=480, channel=9, data=[49, 95]),
   midi.NoteOffEvent(tick=0, channel=9, data=[35, 95]),
   midi.NoteOnEvent(tick=0, channel=9, data=[46, 95]),
   midi.NoteOnEvent(tick=0, channel=9, data=[38, 95]),
   midi.NoteOffEvent(tick=480, channel=9, data=[46, 95]),
   midi.NoteOffEvent(tick=0, channel=9, data=[38, 95]),
   midi.NoteOnEvent(tick=0, channel=9, data=[46, 95]),
   midi.NoteOnEvent(tick=0, channel=9, data=[35, 95]),
   midi.NoteOffEvent(tick=480, channel=9, data=[46, 95]),
   midi.NoteOffEvent(tick=0, channel=9, data=[35, 95]),
   midi.NoteOnEvent(tick=0, channel=9, data=[46, 95]),
   midi.NoteOnEvent(tick=0, channel=9, data=[38, 95]),
   midi.NoteOffEvent(tick=480, channel=9, data=[46, 95]),
   midi.NoteOffEvent(tick=0, channel=9, data=[38, 95]),
   midi.NoteOnEvent(tick=0, channel=9, data=[46, 95]),
   midi.NoteOnEvent(tick=0, channel=9, data=[35, 95]),
   midi.NoteOffEvent(tick=480, channel=9, data=[46, 95]),
   midi.NoteOffEvent(tick=0, channel=9, data=[35, 95]),
   midi.NoteOnEvent(tick=0, channel=9, data=[46, 95]),
   midi.NoteOnEvent(tick=0, channel=9, data=[38, 95]),
   midi.NoteOffEvent(tick=480, channel=9, data=[46, 95]),
   midi.NoteOffEvent(tick=0, channel=9, data=[38, 95]),
   midi.NoteOnEvent(tick=0, channel=9, data=[46, 95]),
   midi.NoteOnEvent(tick=0, channel=9, data=[35, 95]),
   midi.NoteOffEvent(tick=480, channel=9, data=[46, 95]),
   midi.NoteOffEvent(tick=0, channel=9, data=[35, 95]),
   midi.NoteOnEvent(tick=0, channel=9, data=[46, 95]),
   midi.NoteOnEvent(tick=0, channel=9, data=[38, 95]),
   midi.NoteOffEvent(tick=480, channel=9, data=[46, 95]),
   midi.NoteOffEvent(tick=0, channel=9, data=[38, 95]),
   midi.NoteOnEvent(tick=0, channel=9, data=[46, 95]),
   midi.NoteOnEvent(tick=0, channel=9, data=[35, 95]),
   midi.NoteOffEvent(tick=480, channel=9, data=[46, 95]),
   midi.NoteOffEvent(tick=0, channel=9, data=[35, 95]),
   midi.NoteOnEvent(tick=0, channel=9, data=[46, 95]),
   midi.NoteOnEvent(tick=0, channel=9, data=[38, 95]),
   midi.NoteOffEvent(tick=480, channel=9, data=[46, 95]),
   midi.NoteOffEvent(tick=0, channel=9, data=[38, 95]),
   midi.NoteOnEvent(tick=0, channel=9, data=[46, 95]),
   midi.NoteOnEvent(tick=0, channel=9, data=[35, 95]),
   midi.NoteOffEvent(tick=480, channel=9, data=[46, 95]),
   midi.NoteOffEvent(tick=0, channel=9, data=[35, 95]),
   midi.NoteOnEvent(tick=0, channel=9, data=[46, 95]),
   midi.NoteOnEvent(tick=0, channel=9, data=[38, 95]),
   midi.NoteOffEvent(tick=480, channel=9, data=[46, 95]),
   midi.NoteOffEvent(tick=0, channel=9, data=[38, 95]),
   midi.NoteOnEvent(tick=0, channel=9, data=[46, 95]),
   midi.NoteOnEvent(tick=0, channel=9, data=[35, 95]),
   midi.NoteOffEvent(tick=480, channel=9, data=[46, 95]),
   midi.NoteOffEvent(tick=0, channel=9, data=[35, 95]),
   midi.NoteOnEvent(tick=0, channel=9, data=[46, 95]),
   midi.NoteOnEvent(tick=0, channel=9, data=[38, 95]),
   midi.NoteOffEvent(tick=480, channel=9, data=[46, 95]),
   midi.NoteOffEvent(tick=0, channel=9, data=[38, 95]),
   midi.NoteOnEvent(tick=0, channel=9, data=[46, 95]),
   midi.NoteOnEvent(tick=0, channel=9, data=[35, 95]),
   midi.NoteOffEvent(tick=480, channel=9, data=[46, 95]),
   midi.NoteOffEvent(tick=0, channel=9, data=[35, 95]),
   midi.NoteOnEvent(tick=0, channel=9, data=[46, 95]),
   midi.NoteOnEvent(tick=0, channel=9, data=[38, 95]),
   midi.NoteOffEvent(tick=480, channel=9, data=[46, 95]),
   midi.NoteOffEvent(tick=0, channel=9, data=[38, 95]),
   midi.NoteOnEvent(tick=0, channel=9, data=[49, 95]),
   midi.NoteOnEvent(tick=0, channel=9, data=[35, 95]),
   midi.NoteOffEvent(tick=480, channel=9, data=[49, 95]),
   midi.NoteOffEvent(tick=0, channel=9, data=[35, 95]),
   midi.NoteOnEvent(tick=0, channel=9, data=[46, 95]),
   midi.NoteOnEvent(tick=0, channel=9, data=[38, 95]),
   midi.NoteOffEvent(tick=480, channel=9, data=[46, 95]),
   midi.NoteOffEvent(tick=0, channel=9, data=[38, 95]),
   midi.NoteOnEvent(tick=0, channel=9, data=[46, 95]),
   midi.NoteOnEvent(tick=0, channel=9, data=[35, 95]),
   midi.NoteOffEvent(tick=480, channel=9, data=[46, 95]),
   midi.NoteOffEvent(tick=0, channel=9, data=[35, 95]),
   midi.NoteOnEvent(tick=0, channel=9, data=[46, 95]),
   midi.NoteOnEvent(tick=0, channel=9, data=[38, 95]),
   midi.NoteOffEvent(tick=480, channel=9, data=[46, 95]),
   midi.NoteOffEvent(tick=0, channel=9, data=[38, 95]),
   midi.NoteOnEvent(tick=0, channel=9, data=[46, 95]),
   midi.NoteOnEvent(tick=0, channel=9, data=[35, 95]),
   midi.NoteOffEvent(tick=480, channel=9, data=[46, 95]),
   midi.NoteOffEvent(tick=0, channel=9, data=[35, 95]),
   midi.NoteOnEvent(tick=0, channel=9, data=[46, 95]),
   midi.NoteOnEvent(tick=0, channel=9, data=[38, 95]),
   midi.NoteOffEvent(tick=480, channel=9, data=[46, 95]),
   midi.NoteOffEvent(tick=0, channel=9, data=[38, 95]),
   midi.NoteOnEvent(tick=0, channel=9, data=[46, 95]),
   midi.NoteOnEvent(tick=0, channel=9, data=[35, 95]),
   midi.NoteOffEvent(tick=480, channel=9, data=[46, 95]),
   midi.NoteOffEvent(tick=0, channel=9, data=[35, 95]),
   midi.NoteOnEvent(tick=0, channel=9, data=[46, 95]),
   midi.NoteOnEvent(tick=0, channel=9, data=[38, 95]),
   midi.NoteOffEvent(tick=480, channel=9, data=[46, 95]),
   midi.NoteOffEvent(tick=0, channel=9, data=[38, 95]),
   midi.NoteOnEvent(tick=0, channel=9, data=[46, 95]),
   midi.NoteOnEvent(tick=0, channel=9, data=[35, 95]),
   midi.NoteOffEvent(tick=480, channel=9, data=[46, 95]),
   midi.NoteOffEvent(tick=0, channel=9, data=[35, 95]),
   midi.NoteOnEvent(tick=0, channel=9, data=[46, 95]),
   midi.NoteOnEvent(tick=0, channel=9, data=[38, 95]),
   midi.NoteOffEvent(tick=480, channel=9, data=[46, 95]),
   midi.NoteOffEvent(tick=0, channel=9, data=[38, 95]),
   midi.NoteOnEvent(tick=0, channel=9, data=[46, 95]),
   midi.NoteOnEvent(tick=0, channel=9, data=[35, 95]),
   midi.NoteOffEvent(tick=480, channel=9, data=[46, 95]),
   midi.NoteOffEvent(tick=0, channel=9, data=[35, 95]),
   midi.NoteOnEvent(tick=0, channel=9, data=[46, 95]),
   midi.NoteOnEvent(tick=0, channel=9, data=[38, 95]),
   midi.NoteOffEvent(tick=480, channel=9, data=[46, 95]),
   midi.NoteOffEvent(tick=0, channel=9, data=[38, 95]),
   midi.NoteOnEvent(tick=0, channel=9, data=[46, 95]),
   midi.NoteOnEvent(tick=0, channel=9, data=[35, 95]),
   midi.NoteOffEvent(tick=480, channel=9, data=[46, 95]),
   midi.NoteOffEvent(tick=0, channel=9, data=[35, 95]),
   midi.NoteOnEvent(tick=0, channel=9, data=[46, 95]),
   midi.NoteOnEvent(tick=0, channel=9, data=[38, 95]),
   midi.NoteOffEvent(tick=480, channel=9, data=[46, 95]),
   midi.NoteOffEvent(tick=0, channel=9, data=[38, 95]),
   midi.NoteOnEvent(tick=0, channel=9, data=[46, 95]),
   midi.NoteOnEvent(tick=0, channel=9, data=[35, 95]),
   midi.NoteOffEvent(tick=480, channel=9, data=[46, 95]),
   midi.NoteOffEvent(tick=0, channel=9, data=[35, 95]),
   midi.NoteOnEvent(tick=0, channel=9, data=[46, 95]),
   midi.NoteOnEvent(tick=0, channel=9, data=[38, 95]),
   midi.NoteOffEvent(tick=480, channel=9, data=[46, 95]),
   midi.NoteOffEvent(tick=0, channel=9, data=[38, 95]),
   midi.NoteOnEvent(tick=0, channel=9, data=[49, 95]),
   midi.NoteOnEvent(tick=0, channel=9, data=[35, 95]),
   midi.NoteOffEvent(tick=480, channel=9, data=[49, 95]),
   midi.NoteOffEvent(tick=0, channel=9, data=[35, 95]),
   midi.NoteOnEvent(tick=0, channel=9, data=[46, 95]),
   midi.NoteOnEvent(tick=0, channel=9, data=[38, 95]),
   midi.NoteOffEvent(tick=480, channel=9, data=[46, 95]),
   midi.NoteOffEvent(tick=0, channel=9, data=[38, 95]),
   midi.NoteOnEvent(tick=0, channel=9, data=[46, 95]),
   midi.NoteOnEvent(tick=0, channel=9, data=[35, 95]),
   midi.NoteOffEvent(tick=480, channel=9, data=[46, 95]),
   midi.NoteOffEvent(tick=0, channel=9, data=[35, 95]),
   midi.NoteOnEvent(tick=0, channel=9, data=[46, 95]),
   midi.NoteOnEvent(tick=0, channel=9, data=[38, 95]),
   midi.NoteOffEvent(tick=480, channel=9, data=[46, 95]),
   midi.NoteOffEvent(tick=0, channel=9, data=[38, 95]),
   midi.NoteOnEvent(tick=0, channel=9, data=[46, 95]),
   midi.NoteOnEvent(tick=0, channel=9, data=[35, 95]),
   midi.NoteOffEvent(tick=480, channel=9, data=[46, 95]),
   midi.NoteOffEvent(tick=0, channel=9, data=[35, 95]),
   midi.NoteOnEvent(tick=0, channel=9, data=[46, 95]),
   midi.NoteOnEvent(tick=0, channel=9, data=[38, 95]),
   midi.NoteOffEvent(tick=480, channel=9, data=[46, 95]),
   midi.NoteOffEvent(tick=0, channel=9, data=[38, 95]),
   midi.NoteOnEvent(tick=0, channel=9, data=[46, 95]),
   midi.NoteOnEvent(tick=0, channel=9, data=[35, 95]),
   midi.NoteOffEvent(tick=480, channel=9, data=[46, 95]),
   midi.NoteOffEvent(tick=0, channel=9, data=[35, 95]),
   midi.NoteOnEvent(tick=0, channel=9, data=[46, 95]),
   midi.NoteOnEvent(tick=0, channel=9, data=[38, 95]),
   midi.NoteOffEvent(tick=480, channel=9, data=[46, 95]),
   midi.NoteOffEvent(tick=0, channel=9, data=[38, 95]),
   midi.NoteOnEvent(tick=0, channel=9, data=[46, 95]),
   midi.NoteOnEvent(tick=0, channel=9, data=[35, 95]),
   midi.NoteOffEvent(tick=480, channel=9, data=[46, 95]),
   midi.NoteOffEvent(tick=0, channel=9, data=[35, 95]),
   midi.NoteOnEvent(tick=0, channel=9, data=[46, 95]),
   midi.NoteOnEvent(tick=0, channel=9, data=[38, 95]),
   midi.NoteOffEvent(tick=480, channel=9, data=[46, 95]),
   midi.NoteOffEvent(tick=0, channel=9, data=[38, 95]),
   midi.NoteOnEvent(tick=0, channel=9, data=[46, 95]),
   midi.NoteOnEvent(tick=0, channel=9, data=[35, 95]),
   midi.NoteOffEvent(tick=480, channel=9, data=[46, 95]),
   midi.NoteOffEvent(tick=0, channel=9, data=[35, 95]),
   midi.NoteOnEvent(tick=0, channel=9, data=[46, 95]),
   midi.NoteOnEvent(tick=0, channel=9, data=[38, 95]),
   midi.NoteOffEvent(tick=480, channel=9, data=[46, 95]),
   midi.NoteOffEvent(tick=0, channel=9, data=[38, 95]),
   midi.NoteOnEvent(tick=0, channel=9, data=[46, 95]),
   midi.NoteOnEvent(tick=0, channel=9, data=[35, 95]),
   midi.NoteOffEvent(tick=480, channel=9, data=[46, 95]),
   midi.NoteOffEvent(tick=0, channel=9, data=[35, 95]),
   midi.NoteOnEvent(tick=0, channel=9, data=[46, 95]),
   midi.NoteOnEvent(tick=0, channel=9, data=[38, 95]),
   midi.NoteOffEvent(tick=480, channel=9, data=[46, 95]),
   midi.NoteOffEvent(tick=0, channel=9, data=[38, 95]),
   midi.NoteOnEvent(tick=0, channel=9, data=[46, 95]),
   midi.NoteOnEvent(tick=0, channel=9, data=[35, 95]),
   midi.NoteOffEvent(tick=480, channel=9, data=[46, 95]),
   midi.NoteOffEvent(tick=0, channel=9, data=[35, 95]),
   midi.NoteOnEvent(tick=0, channel=9, data=[46, 95]),
   midi.NoteOnEvent(tick=0, channel=9, data=[38, 95]),
   midi.NoteOffEvent(tick=480, channel=9, data=[46, 95]),
   midi.NoteOffEvent(tick=0, channel=9, data=[38, 95]),
   midi.NoteOnEvent(tick=0, channel=9, data=[49, 95]),
   midi.NoteOnEvent(tick=0, channel=9, data=[35, 95]),
   midi.NoteOffEvent(tick=480, channel=9, data=[49, 95]),
   midi.NoteOffEvent(tick=0, channel=9, data=[35, 95]),
   midi.NoteOnEvent(tick=0, channel=9, data=[46, 95]),
   midi.NoteOnEvent(tick=0, channel=9, data=[38, 95]),
   midi.NoteOffEvent(tick=480, channel=9, data=[46, 95]),
   midi.NoteOffEvent(tick=0, channel=9, data=[38, 95]),
   midi.NoteOnEvent(tick=0, channel=9, data=[46, 95]),
   midi.NoteOnEvent(tick=0, channel=9, data=[35, 95]),
   midi.NoteOffEvent(tick=480, channel=9, data=[46, 95]),
   midi.NoteOffEvent(tick=0, channel=9, data=[35, 95]),
   midi.NoteOnEvent(tick=0, channel=9, data=[46, 95]),
   midi.NoteOnEvent(tick=0, channel=9, data=[38, 95]),
   midi.NoteOffEvent(tick=480, channel=9, data=[46, 95]),
   midi.NoteOffEvent(tick=0, channel=9, data=[38, 95]),
   midi.NoteOnEvent(tick=0, channel=9, data=[46, 95]),
   midi.NoteOnEvent(tick=0, channel=9, data=[35, 95]),
   midi.NoteOffEvent(tick=480, channel=9, data=[46, 95]),
   midi.NoteOffEvent(tick=0, channel=9, data=[35, 95]),
   midi.NoteOnEvent(tick=0, channel=9, data=[46, 95]),
   midi.NoteOnEvent(tick=0, channel=9, data=[38, 95]),
   midi.NoteOffEvent(tick=480, channel=9, data=[46, 95]),
   midi.NoteOffEvent(tick=0, channel=9, data=[38, 95]),
   midi.NoteOnEvent(tick=0, channel=9, data=[46, 95]),
   midi.NoteOnEvent(tick=0, channel=9, data=[35, 95]),
   midi.NoteOffEvent(tick=480, channel=9, data=[46, 95]),
   midi.NoteOffEvent(tick=0, channel=9, data=[35, 95]),
   midi.NoteOnEvent(tick=0, channel=9, data=[46, 95]),
   midi.NoteOnEvent(tick=0, channel=9, data=[38, 95]),
   midi.NoteOffEvent(tick=480, channel=9, data=[46, 95]),
   midi.NoteOffEvent(tick=0, channel=9, data=[38, 95]),
   midi.NoteOnEvent(tick=0, channel=9, data=[46, 95]),
   midi.NoteOnEvent(tick=0, channel=9, data=[35, 95]),
   midi.NoteOffEvent(tick=480, channel=9, data=[46, 95]),
   midi.NoteOffEvent(tick=0, channel=9, data=[35, 95]),
   midi.NoteOnEvent(tick=0, channel=9, data=[46, 95]),
   midi.NoteOnEvent(tick=0, channel=9, data=[38, 95]),
   midi.NoteOffEvent(tick=480, channel=9, data=[46, 95]),
   midi.NoteOffEvent(tick=0, channel=9, data=[38, 95]),
   midi.NoteOnEvent(tick=0, channel=9, data=[46, 95]),
   midi.NoteOnEvent(tick=0, channel=9, data=[35, 95]),
   midi.NoteOffEvent(tick=480, channel=9, data=[46, 95]),
   midi.NoteOffEvent(tick=0, channel=9, data=[35, 95]),
   midi.NoteOnEvent(tick=0, channel=9, data=[46, 95]),
   midi.NoteOnEvent(tick=0, channel=9, data=[38, 95]),
   midi.NoteOffEvent(tick=480, channel=9, data=[46, 95]),
   midi.NoteOffEvent(tick=0, channel=9, data=[38, 95]),
   midi.NoteOnEvent(tick=0, channel=9, data=[46, 95]),
   midi.NoteOnEvent(tick=0, channel=9, data=[35, 95]),
   midi.NoteOffEvent(tick=480, channel=9, data=[46, 95]),
   midi.NoteOffEvent(tick=0, channel=9, data=[35, 95]),
   midi.NoteOnEvent(tick=0, channel=9, data=[46, 95]),
   midi.NoteOnEvent(tick=0, channel=9, data=[38, 95]),
   midi.NoteOffEvent(tick=480, channel=9, data=[46, 95]),
   midi.NoteOffEvent(tick=0, channel=9, data=[38, 95]),
   midi.NoteOnEvent(tick=0, channel=9, data=[46, 95]),
   midi.NoteOnEvent(tick=0, channel=9, data=[35, 95]),
   midi.NoteOffEvent(tick=480, channel=9, data=[46, 95]),
   midi.NoteOffEvent(tick=0, channel=9, data=[35, 95]),
   midi.NoteOnEvent(tick=0, channel=9, data=[46, 95]),
   midi.NoteOnEvent(tick=0, channel=9, data=[38, 95]),
   midi.NoteOffEvent(tick=480, channel=9, data=[46, 95]),
   midi.NoteOffEvent(tick=0, channel=9, data=[38, 95]),
   midi.NoteOnEvent(tick=0, channel=9, data=[49, 95]),
   midi.NoteOnEvent(tick=0, channel=9, data=[35, 95]),
   midi.NoteOffEvent(tick=480, channel=9, data=[49, 95]),
   midi.NoteOffEvent(tick=0, channel=9, data=[35, 95]),
   midi.NoteOnEvent(tick=0, channel=9, data=[46, 95]),
   midi.NoteOnEvent(tick=0, channel=9, data=[38, 95]),
   midi.NoteOffEvent(tick=480, channel=9, data=[46, 95]),
   midi.NoteOffEvent(tick=0, channel=9, data=[38, 95]),
   midi.NoteOnEvent(tick=0, channel=9, data=[46, 95]),
   midi.NoteOnEvent(tick=0, channel=9, data=[35, 95]),
   midi.NoteOffEvent(tick=480, channel=9, data=[46, 95]),
   midi.NoteOffEvent(tick=0, channel=9, data=[35, 95]),
   midi.NoteOnEvent(tick=0, channel=9, data=[46, 95]),
   midi.NoteOnEvent(tick=0, channel=9, data=[38, 95]),
   midi.NoteOffEvent(tick=480, channel=9, data=[46, 95]),
   midi.NoteOffEvent(tick=0, channel=9, data=[38, 95]),
   midi.NoteOnEvent(tick=0, channel=9, data=[46, 95]),
   midi.NoteOnEvent(tick=0, channel=9, data=[35, 95]),
   midi.NoteOffEvent(tick=480, channel=9, data=[46, 95]),
   midi.NoteOffEvent(tick=0, channel=9, data=[35, 95]),
   midi.NoteOnEvent(tick=0, channel=9, data=[46, 95]),
   midi.NoteOnEvent(tick=0, channel=9, data=[38, 95]),
   midi.NoteOffEvent(tick=480, channel=9, data=[46, 95]),
   midi.NoteOffEvent(tick=0, channel=9, data=[38, 95]),
   midi.NoteOnEvent(tick=0, channel=9, data=[46, 95]),
   midi.NoteOnEvent(tick=0, channel=9, data=[35, 95]),
   midi.NoteOffEvent(tick=480, channel=9, data=[46, 95]),
   midi.NoteOffEvent(tick=0, channel=9, data=[35, 95]),
   midi.NoteOnEvent(tick=0, channel=9, data=[46, 95]),
   midi.NoteOnEvent(tick=0, channel=9, data=[38, 95]),
   midi.NoteOffEvent(tick=480, channel=9, data=[46, 95]),
   midi.NoteOffEvent(tick=0, channel=9, data=[38, 95]),
   midi.NoteOnEvent(tick=0, channel=9, data=[46, 95]),
   midi.NoteOnEvent(tick=0, channel=9, data=[35, 95]),
   midi.NoteOffEvent(tick=480, channel=9, data=[46, 95]),
   midi.NoteOffEvent(tick=0, channel=9, data=[35, 95]),
   midi.NoteOnEvent(tick=0, channel=9, data=[46, 95]),
   midi.NoteOnEvent(tick=0, channel=9, data=[38, 95]),
   midi.NoteOffEvent(tick=480, channel=9, data=[46, 95]),
   midi.NoteOffEvent(tick=0, channel=9, data=[38, 95]),
   midi.NoteOnEvent(tick=0, channel=9, data=[46, 95]),
   midi.NoteOnEvent(tick=0, channel=9, data=[35, 95]),
   midi.NoteOffEvent(tick=480, channel=9, data=[46, 95]),
   midi.NoteOffEvent(tick=0, channel=9, data=[35, 95]),
   midi.NoteOnEvent(tick=0, channel=9, data=[46, 95]),
   midi.NoteOnEvent(tick=0, channel=9, data=[38, 95]),
   midi.NoteOffEvent(tick=480, channel=9, data=[46, 95]),
   midi.NoteOffEvent(tick=0, channel=9, data=[38, 95]),
   midi.NoteOnEvent(tick=0, channel=9, data=[46, 95]),
   midi.NoteOnEvent(tick=0, channel=9, data=[35, 95]),
   midi.NoteOffEvent(tick=480, channel=9, data=[46, 95]),
   midi.NoteOffEvent(tick=0, channel=9, data=[35, 95]),
   midi.NoteOnEvent(tick=0, channel=9, data=[46, 95]),
   midi.NoteOnEvent(tick=0, channel=9, data=[38, 95]),
   midi.NoteOffEvent(tick=480, channel=9, data=[46, 95]),
   midi.NoteOffEvent(tick=0, channel=9, data=[38, 95]),
   midi.NoteOnEvent(tick=0, channel=9, data=[46, 95]),
   midi.NoteOnEvent(tick=0, channel=9, data=[35, 95]),
   midi.NoteOffEvent(tick=480, channel=9, data=[46, 95]),
   midi.NoteOffEvent(tick=0, channel=9, data=[35, 95]),
   midi.NoteOnEvent(tick=0, channel=9, data=[46, 95]),
   midi.NoteOnEvent(tick=0, channel=9, data=[38, 95]),
   midi.NoteOffEvent(tick=480, channel=9, data=[46, 95]),
   midi.NoteOffEvent(tick=0, channel=9, data=[38, 95]),
   midi.NoteOnEvent(tick=0, channel=9, data=[49, 95]),
   midi.NoteOnEvent(tick=0, channel=9, data=[35, 95]),
   midi.NoteOffEvent(tick=480, channel=9, data=[49, 95]),
   midi.NoteOffEvent(tick=0, channel=9, data=[35, 95]),
   midi.NoteOnEvent(tick=0, channel=9, data=[46, 95]),
   midi.NoteOnEvent(tick=0, channel=9, data=[38, 95]),
   midi.NoteOffEvent(tick=480, channel=9, data=[46, 95]),
   midi.NoteOffEvent(tick=0, channel=9, data=[38, 95]),
   midi.NoteOnEvent(tick=0, channel=9, data=[46, 95]),
   midi.NoteOnEvent(tick=0, channel=9, data=[35, 95]),
   midi.NoteOffEvent(tick=480, channel=9, data=[46, 95]),
   midi.NoteOffEvent(tick=0, channel=9, data=[35, 95]),
   midi.NoteOnEvent(tick=0, channel=9, data=[46, 95]),
   midi.NoteOnEvent(tick=0, channel=9, data=[38, 95]),
   midi.NoteOffEvent(tick=480, channel=9, data=[46, 95]),
   midi.NoteOffEvent(tick=0, channel=9, data=[38, 95]),
   midi.NoteOnEvent(tick=0, channel=9, data=[46, 95]),
   midi.NoteOnEvent(tick=0, channel=9, data=[35, 95]),
   midi.NoteOffEvent(tick=480, channel=9, data=[46, 95]),
   midi.NoteOffEvent(tick=0, channel=9, data=[35, 95]),
   midi.NoteOnEvent(tick=0, channel=9, data=[46, 95]),
   midi.NoteOnEvent(tick=0, channel=9, data=[38, 95]),
   midi.NoteOffEvent(tick=480, channel=9, data=[46, 95]),
   midi.NoteOffEvent(tick=0, channel=9, data=[38, 95]),
   midi.NoteOnEvent(tick=0, channel=9, data=[46, 95]),
   midi.NoteOnEvent(tick=0, channel=9, data=[35, 95]),
   midi.NoteOffEvent(tick=480, channel=9, data=[46, 95]),
   midi.NoteOffEvent(tick=0, channel=9, data=[35, 95]),
   midi.NoteOnEvent(tick=0, channel=9, data=[46, 95]),
   midi.NoteOnEvent(tick=0, channel=9, data=[38, 95]),
   midi.NoteOffEvent(tick=480, channel=9, data=[46, 95]),
   midi.NoteOffEvent(tick=0, channel=9, data=[38, 95]),
   midi.NoteOnEvent(tick=0, channel=9, data=[46, 95]),
   midi.NoteOnEvent(tick=0, channel=9, data=[35, 95]),
   midi.NoteOffEvent(tick=480, channel=9, data=[46, 95]),
   midi.NoteOffEvent(tick=0, channel=9, data=[35, 95]),
   midi.NoteOnEvent(tick=0, channel=9, data=[46, 95]),
   midi.NoteOnEvent(tick=0, channel=9, data=[38, 95]),
   midi.NoteOffEvent(tick=480, channel=9, data=[46, 95]),
   midi.NoteOffEvent(tick=0, channel=9, data=[38, 95]),
   midi.NoteOnEvent(tick=0, channel=9, data=[46, 95]),
   midi.NoteOnEvent(tick=0, channel=9, data=[35, 95]),
   midi.NoteOffEvent(tick=480, channel=9, data=[46, 95]),
   midi.NoteOffEvent(tick=0, channel=9, data=[35, 95]),
   midi.NoteOnEvent(tick=0, channel=9, data=[46, 95]),
   midi.NoteOnEvent(tick=0, channel=9, data=[38, 95]),
   midi.NoteOffEvent(tick=480, channel=9, data=[46, 95]),
   midi.NoteOffEvent(tick=0, channel=9, data=[38, 95]),
   midi.NoteOnEvent(tick=0, channel=9, data=[46, 95]),
   midi.NoteOnEvent(tick=0, channel=9, data=[35, 95]),
   midi.NoteOffEvent(tick=480, channel=9, data=[46, 95]),
   midi.NoteOffEvent(tick=0, channel=9, data=[35, 95]),
   midi.NoteOnEvent(tick=0, channel=9, data=[46, 95]),
   midi.NoteOnEvent(tick=0, channel=9, data=[38, 95]),
   midi.NoteOffEvent(tick=480, channel=9, data=[46, 95]),
   midi.NoteOffEvent(tick=0, channel=9, data=[38, 95]),
   midi.NoteOnEvent(tick=0, channel=9, data=[46, 95]),
   midi.NoteOnEvent(tick=0, channel=9, data=[35, 95]),
   midi.NoteOffEvent(tick=480, channel=9, data=[46, 95]),
   midi.NoteOffEvent(tick=0, channel=9, data=[35, 95]),
   midi.NoteOnEvent(tick=0, channel=9, data=[46, 95]),
   midi.NoteOnEvent(tick=0, channel=9, data=[38, 95]),
   midi.NoteOffEvent(tick=480, channel=9, data=[46, 95]),
   midi.NoteOffEvent(tick=0, channel=9, data=[38, 95]),
   midi.NoteOnEvent(tick=0, channel=9, data=[49, 95]),
   midi.NoteOnEvent(tick=0, channel=9, data=[35, 95]),
   midi.NoteOffEvent(tick=480, channel=9, data=[49, 95]),
   midi.NoteOffEvent(tick=0, channel=9, data=[35, 95]),
   midi.NoteOnEvent(tick=0, channel=9, data=[46, 95]),
   midi.NoteOnEvent(tick=0, channel=9, data=[38, 95]),
   midi.NoteOffEvent(tick=480, channel=9, data=[46, 95]),
   midi.NoteOffEvent(tick=0, channel=9, data=[38, 95]),
   midi.NoteOnEvent(tick=0, channel=9, data=[46, 95]),
   midi.NoteOnEvent(tick=0, channel=9, data=[35, 95]),
   midi.NoteOffEvent(tick=480, channel=9, data=[46, 95]),
   midi.NoteOffEvent(tick=0, channel=9, data=[35, 95]),
   midi.NoteOnEvent(tick=0, channel=9, data=[46, 95]),
   midi.NoteOnEvent(tick=0, channel=9, data=[38, 95]),
   midi.NoteOffEvent(tick=480, channel=9, data=[46, 95]),
   midi.NoteOffEvent(tick=0, channel=9, data=[38, 95]),
   midi.NoteOnEvent(tick=0, channel=9, data=[46, 95]),
   midi.NoteOnEvent(tick=0, channel=9, data=[35, 95]),
   midi.NoteOffEvent(tick=480, channel=9, data=[46, 95]),
   midi.NoteOffEvent(tick=0, channel=9, data=[35, 95]),
   midi.NoteOnEvent(tick=0, channel=9, data=[46, 95]),
   midi.NoteOnEvent(tick=0, channel=9, data=[38, 95]),
   midi.NoteOffEvent(tick=480, channel=9, data=[46, 95]),
   midi.NoteOffEvent(tick=0, channel=9, data=[38, 95]),
   midi.NoteOnEvent(tick=0, channel=9, data=[46, 95]),
   midi.NoteOnEvent(tick=0, channel=9, data=[35, 95]),
   midi.NoteOffEvent(tick=480, channel=9, data=[46, 95]),
   midi.NoteOffEvent(tick=0, channel=9, data=[35, 95]),
   midi.NoteOnEvent(tick=0, channel=9, data=[46, 95]),
   midi.NoteOnEvent(tick=0, channel=9, data=[38, 95]),
   midi.NoteOffEvent(tick=480, channel=9, data=[46, 95]),
   midi.NoteOffEvent(tick=0, channel=9, data=[38, 95]),
   midi.NoteOnEvent(tick=0, channel=9, data=[46, 95]),
   midi.NoteOnEvent(tick=0, channel=9, data=[35, 95]),
   midi.NoteOffEvent(tick=480, channel=9, data=[46, 95]),
   midi.NoteOffEvent(tick=0, channel=9, data=[35, 95]),
   midi.NoteOnEvent(tick=0, channel=9, data=[46, 95]),
   midi.NoteOnEvent(tick=0, channel=9, data=[38, 95]),
   midi.NoteOffEvent(tick=480, channel=9, data=[46, 95]),
   midi.NoteOffEvent(tick=0, channel=9, data=[38, 95]),
   midi.NoteOnEvent(tick=0, channel=9, data=[46, 95]),
   midi.NoteOnEvent(tick=0, channel=9, data=[35, 95]),
   midi.NoteOffEvent(tick=480, channel=9, data=[46, 95]),
   midi.NoteOffEvent(tick=0, channel=9, data=[35, 95]),
   midi.NoteOnEvent(tick=0, channel=9, data=[46, 95]),
   midi.NoteOnEvent(tick=0, channel=9, data=[38, 95]),
   midi.NoteOffEvent(tick=480, channel=9, data=[46, 95]),
   midi.NoteOffEvent(tick=0, channel=9, data=[38, 95]),
   midi.NoteOnEvent(tick=0, channel=9, data=[46, 95]),
   midi.NoteOnEvent(tick=0, channel=9, data=[35, 95]),
   midi.NoteOffEvent(tick=480, channel=9, data=[46, 95]),
   midi.NoteOffEvent(tick=0, channel=9, data=[35, 95]),
   midi.NoteOnEvent(tick=0, channel=9, data=[46, 95]),
   midi.NoteOnEvent(tick=0, channel=9, data=[38, 95]),
   midi.NoteOffEvent(tick=480, channel=9, data=[46, 95]),
   midi.NoteOffEvent(tick=0, channel=9, data=[38, 95]),
   midi.NoteOnEvent(tick=0, channel=9, data=[46, 95]),
   midi.NoteOnEvent(tick=0, channel=9, data=[35, 95]),
   midi.NoteOffEvent(tick=480, channel=9, data=[46, 95]),
   midi.NoteOffEvent(tick=0, channel=9, data=[35, 95]),
   midi.NoteOnEvent(tick=0, channel=9, data=[46, 95]),
   midi.NoteOnEvent(tick=0, channel=9, data=[38, 95]),
   midi.NoteOffEvent(tick=480, channel=9, data=[46, 95]),
   midi.NoteOffEvent(tick=0, channel=9, data=[38, 95]),
   midi.NoteOnEvent(tick=0, channel=9, data=[49, 95]),
   midi.NoteOnEvent(tick=0, channel=9, data=[35, 95]),
   midi.NoteOffEvent(tick=480, channel=9, data=[49, 95]),
   midi.NoteOffEvent(tick=0, channel=9, data=[35, 95]),
   midi.NoteOnEvent(tick=0, channel=9, data=[46, 95]),
   midi.NoteOnEvent(tick=0, channel=9, data=[38, 95]),
   midi.NoteOffEvent(tick=480, channel=9, data=[46, 95]),
   midi.NoteOffEvent(tick=0, channel=9, data=[38, 95]),
   midi.NoteOnEvent(tick=0, channel=9, data=[46, 95]),
   midi.NoteOnEvent(tick=0, channel=9, data=[35, 95]),
   midi.NoteOffEvent(tick=480, channel=9, data=[46, 95]),
   midi.NoteOffEvent(tick=0, channel=9, data=[35, 95]),
   midi.NoteOnEvent(tick=0, channel=9, data=[46, 95]),
   midi.NoteOnEvent(tick=0, channel=9, data=[38, 95]),
   midi.NoteOffEvent(tick=480, channel=9, data=[46, 95]),
   midi.NoteOffEvent(tick=0, channel=9, data=[38, 95]),
   midi.NoteOnEvent(tick=0, channel=9, data=[46, 95]),
   midi.NoteOnEvent(tick=0, channel=9, data=[35, 95]),
   midi.NoteOffEvent(tick=480, channel=9, data=[46, 95]),
   midi.NoteOffEvent(tick=0, channel=9, data=[35, 95]),
   midi.NoteOnEvent(tick=0, channel=9, data=[46, 95]),
   midi.NoteOnEvent(tick=0, channel=9, data=[38, 95]),
   midi.NoteOffEvent(tick=480, channel=9, data=[46, 95]),
   midi.NoteOffEvent(tick=0, channel=9, data=[38, 95]),
   midi.NoteOnEvent(tick=0, channel=9, data=[46, 95]),
   midi.NoteOnEvent(tick=0, channel=9, data=[35, 95]),
   midi.NoteOffEvent(tick=480, channel=9, data=[46, 95]),
   midi.NoteOffEvent(tick=0, channel=9, data=[35, 95]),
   midi.NoteOnEvent(tick=0, channel=9, data=[46, 95]),
   midi.NoteOnEvent(tick=0, channel=9, data=[38, 95]),
   midi.NoteOffEvent(tick=480, channel=9, data=[46, 95]),
   midi.NoteOffEvent(tick=0, channel=9, data=[38, 95]),
   midi.NoteOnEvent(tick=0, channel=9, data=[46, 95]),
   midi.NoteOnEvent(tick=0, channel=9, data=[35, 95]),
   midi.NoteOffEvent(tick=480, channel=9, data=[46, 95]),
   midi.NoteOffEvent(tick=0, channel=9, data=[35, 95]),
   midi.NoteOnEvent(tick=0, channel=9, data=[46, 95]),
   midi.NoteOnEvent(tick=0, channel=9, data=[38, 95]),
   midi.NoteOffEvent(tick=480, channel=9, data=[46, 95]),
   midi.NoteOffEvent(tick=0, channel=9, data=[38, 95]),
   midi.NoteOnEvent(tick=0, channel=9, data=[46, 95]),
   midi.NoteOnEvent(tick=0, channel=9, data=[35, 95]),
   midi.NoteOffEvent(tick=480, channel=9, data=[46, 95]),
   midi.NoteOffEvent(tick=0, channel=9, data=[35, 95]),
   midi.NoteOnEvent(tick=0, channel=9, data=[46, 95]),
   midi.NoteOnEvent(tick=0, channel=9, data=[38, 95]),
   midi.NoteOffEvent(tick=480, channel=9, data=[46, 95]),
   midi.NoteOffEvent(tick=0, channel=9, data=[38, 95]),
   midi.NoteOnEvent(tick=0, channel=9, data=[35, 95]),
   midi.NoteOnEvent(tick=0, channel=9, data=[38, 95]),
   midi.NoteOffEvent(tick=240, channel=9, data=[35, 95]),
   midi.NoteOffEvent(tick=0, channel=9, data=[38, 95]),
   midi.NoteOnEvent(tick=0, channel=9, data=[35, 95]),
   midi.NoteOnEvent(tick=0, channel=9, data=[38, 95]),
   midi.NoteOffEvent(tick=240, channel=9, data=[35, 95]),
   midi.NoteOffEvent(tick=0, channel=9, data=[38, 95]),
   midi.NoteOnEvent(tick=0, channel=9, data=[35, 95]),
   midi.NoteOffEvent(tick=240, channel=9, data=[35, 95]),
   midi.NoteOnEvent(tick=0, channel=9, data=[45, 95]),
   midi.NoteOffEvent(tick=240, channel=9, data=[45, 95]),
   midi.NoteOnEvent(tick=0, channel=9, data=[45, 95]),
   midi.NoteOffEvent(tick=240, channel=9, data=[45, 95]),
   midi.NoteOnEvent(tick=0, channel=9, data=[35, 95]),
   midi.NoteOnEvent(tick=0, channel=9, data=[38, 95]),
   midi.NoteOffEvent(tick=240, channel=9, data=[35, 95]),
   midi.NoteOffEvent(tick=0, channel=9, data=[38, 95]),
   midi.NoteOnEvent(tick=0, channel=9, data=[35, 95]),
   midi.NoteOnEvent(tick=0, channel=9, data=[38, 95]),
   midi.NoteOffEvent(tick=240, channel=9, data=[35, 95]),
   midi.NoteOffEvent(tick=0, channel=9, data=[38, 95]),
   midi.NoteOnEvent(tick=0, channel=9, data=[35, 95]),
   midi.NoteOffEvent(tick=240, channel=9, data=[35, 95]),
   midi.NoteOnEvent(tick=0, channel=9, data=[49, 95]),
   midi.NoteOnEvent(tick=0, channel=9, data=[35, 95]),
   midi.NoteOffEvent(tick=480, channel=9, data=[49, 95]),
   midi.NoteOffEvent(tick=0, channel=9, data=[35, 95]),
   midi.NoteOnEvent(tick=0, channel=9, data=[46, 95]),
   midi.NoteOnEvent(tick=0, channel=9, data=[38, 95]),
   midi.NoteOffEvent(tick=480, channel=9, data=[46, 95]),
   midi.NoteOffEvent(tick=0, channel=9, data=[38, 95]),
   midi.NoteOnEvent(tick=0, channel=9, data=[46, 95]),
   midi.NoteOnEvent(tick=0, channel=9, data=[35, 95]),
   midi.NoteOffEvent(tick=480, channel=9, data=[46, 95]),
   midi.NoteOffEvent(tick=0, channel=9, data=[35, 95]),
   midi.NoteOnEvent(tick=0, channel=9, data=[46, 95]),
   midi.NoteOnEvent(tick=0, channel=9, data=[38, 95]),
   midi.NoteOffEvent(tick=480, channel=9, data=[46, 95]),
   midi.NoteOffEvent(tick=0, channel=9, data=[38, 95]),
   midi.NoteOnEvent(tick=0, channel=9, data=[46, 95]),
   midi.NoteOnEvent(tick=0, channel=9, data=[35, 95]),
   midi.NoteOffEvent(tick=480, channel=9, data=[46, 95]),
   midi.NoteOffEvent(tick=0, channel=9, data=[35, 95]),
   midi.NoteOnEvent(tick=0, channel=9, data=[46, 95]),
   midi.NoteOnEvent(tick=0, channel=9, data=[38, 95]),
   midi.NoteOffEvent(tick=480, channel=9, data=[46, 95]),
   midi.NoteOffEvent(tick=0, channel=9, data=[38, 95]),
   midi.NoteOnEvent(tick=0, channel=9, data=[46, 95]),
   midi.NoteOnEvent(tick=0, channel=9, data=[35, 95]),
   midi.NoteOffEvent(tick=480, channel=9, data=[46, 95]),
   midi.NoteOffEvent(tick=0, channel=9, data=[35, 95]),
   midi.NoteOnEvent(tick=0, channel=9, data=[46, 95]),
   midi.NoteOnEvent(tick=0, channel=9, data=[38, 95]),
   midi.NoteOffEvent(tick=480, channel=9, data=[46, 95]),
   midi.NoteOffEvent(tick=0, channel=9, data=[38, 95]),
   midi.NoteOnEvent(tick=0, channel=9, data=[46, 95]),
   midi.NoteOnEvent(tick=0, channel=9, data=[35, 95]),
   midi.NoteOffEvent(tick=480, channel=9, data=[46, 95]),
   midi.NoteOffEvent(tick=0, channel=9, data=[35, 95]),
   midi.NoteOnEvent(tick=0, channel=9, data=[46, 95]),
   midi.NoteOnEvent(tick=0, channel=9, data=[38, 95]),
   midi.NoteOffEvent(tick=480, channel=9, data=[46, 95]),
   midi.NoteOffEvent(tick=0, channel=9, data=[38, 95]),
   midi.NoteOnEvent(tick=0, channel=9, data=[49, 95]),
   midi.NoteOnEvent(tick=0, channel=9, data=[35, 95]),
   midi.NoteOffEvent(tick=480, channel=9, data=[49, 95]),
   midi.NoteOffEvent(tick=0, channel=9, data=[35, 95]),
   midi.NoteOnEvent(tick=0, channel=9, data=[57, 95]),
   midi.NoteOnEvent(tick=0, channel=9, data=[38, 95]),
   midi.NoteOffEvent(tick=480, channel=9, data=[57, 95]),
   midi.NoteOffEvent(tick=0, channel=9, data=[38, 95]),
   midi.NoteOnEvent(tick=0, channel=9, data=[49, 95]),
   midi.NoteOnEvent(tick=0, channel=9, data=[35, 95]),
   midi.NoteOffEvent(tick=480, channel=9, data=[49, 95]),
   midi.NoteOffEvent(tick=0, channel=9, data=[35, 95]),
   midi.NoteOnEvent(tick=0, channel=9, data=[57, 95]),
   midi.NoteOnEvent(tick=0, channel=9, data=[38, 95]),
   midi.NoteOffEvent(tick=480, channel=9, data=[57, 95]),
   midi.NoteOffEvent(tick=0, channel=9, data=[38, 95]),
   midi.NoteOnEvent(tick=0, channel=9, data=[49, 95]),
   midi.NoteOnEvent(tick=0, channel=9, data=[35, 95]),
   midi.NoteOffEvent(tick=480, channel=9, data=[49, 95]),
   midi.NoteOffEvent(tick=0, channel=9, data=[35, 95]),
   midi.NoteOnEvent(tick=0, channel=9, data=[57, 95]),
   midi.NoteOnEvent(tick=0, channel=9, data=[38, 95]),
   midi.NoteOffEvent(tick=480, channel=9, data=[57, 95]),
   midi.NoteOffEvent(tick=0, channel=9, data=[38, 95]),
   midi.NoteOnEvent(tick=0, channel=9, data=[49, 95]),
   midi.NoteOnEvent(tick=0, channel=9, data=[35, 95]),
   midi.NoteOffEvent(tick=480, channel=9, data=[49, 95]),
   midi.NoteOffEvent(tick=0, channel=9, data=[35, 95]),
   midi.NoteOnEvent(tick=0, channel=9, data=[46, 95]),
   midi.NoteOnEvent(tick=0, channel=9, data=[38, 95]),
   midi.NoteOffEvent(tick=480, channel=9, data=[46, 95]),
   midi.NoteOffEvent(tick=0, channel=9, data=[38, 95]),
   midi.NoteOnEvent(tick=0, channel=9, data=[46, 95]),
   midi.NoteOnEvent(tick=0, channel=9, data=[35, 95]),
   midi.NoteOffEvent(tick=480, channel=9, data=[46, 95]),
   midi.NoteOffEvent(tick=0, channel=9, data=[35, 95]),
   midi.NoteOnEvent(tick=0, channel=9, data=[46, 95]),
   midi.NoteOnEvent(tick=0, channel=9, data=[38, 95]),
   midi.NoteOffEvent(tick=480, channel=9, data=[46, 95]),
   midi.NoteOffEvent(tick=0, channel=9, data=[38, 95]),
   midi.NoteOnEvent(tick=0, channel=9, data=[46, 95]),
   midi.NoteOnEvent(tick=0, channel=9, data=[35, 95]),
   midi.NoteOffEvent(tick=480, channel=9, data=[46, 95]),
   midi.NoteOffEvent(tick=0, channel=9, data=[35, 95]),
   midi.NoteOnEvent(tick=0, channel=9, data=[46, 95]),
   midi.NoteOnEvent(tick=0, channel=9, data=[38, 95]),
   midi.NoteOffEvent(tick=480, channel=9, data=[46, 95]),
   midi.NoteOffEvent(tick=0, channel=9, data=[38, 95]),
   midi.NoteOnEvent(tick=0, channel=9, data=[46, 95]),
   midi.NoteOnEvent(tick=0, channel=9, data=[35, 95]),
   midi.NoteOffEvent(tick=480, channel=9, data=[46, 95]),
   midi.NoteOffEvent(tick=0, channel=9, data=[35, 95]),
   midi.NoteOnEvent(tick=0, channel=9, data=[46, 95]),
   midi.NoteOnEvent(tick=0, channel=9, data=[38, 95]),
   midi.NoteOffEvent(tick=480, channel=9, data=[46, 95]),
   midi.NoteOffEvent(tick=0, channel=9, data=[38, 95]),
   midi.NoteOnEvent(tick=0, channel=9, data=[35, 95]),
   midi.NoteOnEvent(tick=0, channel=9, data=[38, 95]),
   midi.NoteOffEvent(tick=240, channel=9, data=[35, 95]),
   midi.NoteOffEvent(tick=0, channel=9, data=[38, 95]),
   midi.NoteOnEvent(tick=0, channel=9, data=[35, 95]),
   midi.NoteOnEvent(tick=0, channel=9, data=[38, 95]),
   midi.NoteOffEvent(tick=240, channel=9, data=[35, 95]),
   midi.NoteOffEvent(tick=0, channel=9, data=[38, 95]),
   midi.NoteOnEvent(tick=0, channel=9, data=[35, 95]),
   midi.NoteOnEvent(tick=0, channel=9, data=[43, 95]),
   midi.NoteOffEvent(tick=240, channel=9, data=[35, 95]),
   midi.NoteOffEvent(tick=0, channel=9, data=[43, 95]),
   midi.NoteOnEvent(tick=0, channel=9, data=[35, 95]),
   midi.NoteOnEvent(tick=0, channel=9, data=[43, 95]),
   midi.NoteOffEvent(tick=240, channel=9, data=[35, 95]),
   midi.NoteOffEvent(tick=0, channel=9, data=[43, 95]),
   midi.NoteOnEvent(tick=0, channel=9, data=[35, 95]),
   midi.NoteOnEvent(tick=0, channel=9, data=[45, 95]),
   midi.NoteOffEvent(tick=240, channel=9, data=[35, 95]),
   midi.NoteOffEvent(tick=0, channel=9, data=[45, 95]),
   midi.NoteOnEvent(tick=0, channel=9, data=[35, 95]),
   midi.NoteOnEvent(tick=0, channel=9, data=[45, 95]),
   midi.NoteOffEvent(tick=240, channel=9, data=[35, 95]),
   midi.NoteOffEvent(tick=0, channel=9, data=[45, 95]),
   midi.NoteOnEvent(tick=0, channel=9, data=[35, 95]),
   midi.NoteOnEvent(tick=0, channel=9, data=[47, 95]),
   midi.NoteOffEvent(tick=240, channel=9, data=[35, 95]),
   midi.NoteOffEvent(tick=0, channel=9, data=[47, 95]),
   midi.NoteOnEvent(tick=0, channel=9, data=[35, 95]),
   midi.NoteOnEvent(tick=0, channel=9, data=[47, 95]),
   midi.NoteOffEvent(tick=240, channel=9, data=[35, 95]),
   midi.NoteOffEvent(tick=0, channel=9, data=[47, 95]),
   midi.NoteOnEvent(tick=0, channel=9, data=[35, 95]),
   midi.NoteOnEvent(tick=0, channel=9, data=[48, 95]),
   midi.NoteOffEvent(tick=240, channel=9, data=[35, 95]),
   midi.NoteOffEvent(tick=0, channel=9, data=[48, 95]),
   midi.NoteOnEvent(tick=0, channel=9, data=[35, 95]),
   midi.NoteOnEvent(tick=0, channel=9, data=[48, 95]),
   midi.NoteOffEvent(tick=240, channel=9, data=[35, 95]),
   midi.NoteOffEvent(tick=0, channel=9, data=[48, 95]),
   midi.NoteOnEvent(tick=0, channel=9, data=[35, 95]),
   midi.NoteOnEvent(tick=0, channel=9, data=[50, 95]),
   midi.NoteOffEvent(tick=240, channel=9, data=[35, 95]),
   midi.NoteOffEvent(tick=0, channel=9, data=[50, 95]),
   midi.NoteOnEvent(tick=0, channel=9, data=[35, 95]),
   midi.NoteOnEvent(tick=0, channel=9, data=[50, 95]),
   midi.NoteOffEvent(tick=240, channel=9, data=[35, 95]),
   midi.NoteOffEvent(tick=0, channel=9, data=[50, 95]),
   midi.NoteOnEvent(tick=0, channel=9, data=[35, 95]),
   midi.NoteOnEvent(tick=0, channel=9, data=[41, 95]),
   midi.NoteOffEvent(tick=240, channel=9, data=[35, 95]),
   midi.NoteOffEvent(tick=0, channel=9, data=[41, 95]),
   midi.NoteOnEvent(tick=0, channel=9, data=[35, 95]),
   midi.NoteOnEvent(tick=0, channel=9, data=[41, 95]),
   midi.NoteOffEvent(tick=240, channel=9, data=[35, 95]),
   midi.NoteOffEvent(tick=0, channel=9, data=[41, 95]),
   midi.NoteOnEvent(tick=0, channel=9, data=[35, 95]),
   midi.NoteOnEvent(tick=0, channel=9, data=[38, 95]),
   midi.NoteOffEvent(tick=240, channel=9, data=[35, 95]),
   midi.NoteOffEvent(tick=0, channel=9, data=[38, 95]),
   midi.NoteOnEvent(tick=0, channel=9, data=[35, 95]),
   midi.NoteOnEvent(tick=0, channel=9, data=[38, 95]),
   midi.NoteOffEvent(tick=240, channel=9, data=[35, 95]),
   midi.NoteOffEvent(tick=0, channel=9, data=[38, 95]),
   midi.NoteOnEvent(tick=0, channel=9, data=[49, 95]),
   midi.NoteOnEvent(tick=0, channel=9, data=[35, 95]),
   midi.NoteOffEvent(tick=480, channel=9, data=[49, 95]),
   midi.NoteOffEvent(tick=0, channel=9, data=[35, 95]),
   midi.NoteOnEvent(tick=0, channel=9, data=[46, 95]),
   midi.NoteOnEvent(tick=0, channel=9, data=[38, 95]),
   midi.NoteOffEvent(tick=480, channel=9, data=[46, 95]),
   midi.NoteOffEvent(tick=0, channel=9, data=[38, 95]),
   midi.NoteOnEvent(tick=0, channel=9, data=[46, 95]),
   midi.NoteOnEvent(tick=0, channel=9, data=[35, 95]),
   midi.NoteOffEvent(tick=480, channel=9, data=[46, 95]),
   midi.NoteOffEvent(tick=0, channel=9, data=[35, 95]),
   midi.NoteOnEvent(tick=0, channel=9, data=[46, 95]),
   midi.NoteOnEvent(tick=0, channel=9, data=[38, 95]),
   midi.NoteOffEvent(tick=480, channel=9, data=[46, 95]),
   midi.NoteOffEvent(tick=0, channel=9, data=[38, 95]),
   midi.NoteOnEvent(tick=0, channel=9, data=[46, 95]),
   midi.NoteOnEvent(tick=0, channel=9, data=[35, 95]),
   midi.NoteOffEvent(tick=480, channel=9, data=[46, 95]),
   midi.NoteOffEvent(tick=0, channel=9, data=[35, 95]),
   midi.NoteOnEvent(tick=0, channel=9, data=[46, 95]),
   midi.NoteOnEvent(tick=0, channel=9, data=[38, 95]),
   midi.NoteOffEvent(tick=480, channel=9, data=[46, 95]),
   midi.NoteOffEvent(tick=0, channel=9, data=[38, 95]),
   midi.NoteOnEvent(tick=0, channel=9, data=[46, 95]),
   midi.NoteOnEvent(tick=0, channel=9, data=[35, 95]),
   midi.NoteOffEvent(tick=480, channel=9, data=[46, 95]),
   midi.NoteOffEvent(tick=0, channel=9, data=[35, 95]),
   midi.NoteOnEvent(tick=0, channel=9, data=[46, 95]),
   midi.NoteOnEvent(tick=0, channel=9, data=[38, 95]),
   midi.NoteOffEvent(tick=480, channel=9, data=[46, 95]),
   midi.NoteOffEvent(tick=0, channel=9, data=[38, 95]),
   midi.NoteOnEvent(tick=0, channel=9, data=[46, 95]),
   midi.NoteOnEvent(tick=0, channel=9, data=[35, 95]),
   midi.NoteOffEvent(tick=480, channel=9, data=[46, 95]),
   midi.NoteOffEvent(tick=0, channel=9, data=[35, 95]),
   midi.NoteOnEvent(tick=0, channel=9, data=[46, 95]),
   midi.NoteOnEvent(tick=0, channel=9, data=[38, 95]),
   midi.NoteOffEvent(tick=480, channel=9, data=[46, 95]),
   midi.NoteOffEvent(tick=0, channel=9, data=[38, 95]),
   midi.NoteOnEvent(tick=0, channel=9, data=[46, 95]),
   midi.NoteOnEvent(tick=0, channel=9, data=[35, 95]),
   midi.NoteOffEvent(tick=480, channel=9, data=[46, 95]),
   midi.NoteOffEvent(tick=0, channel=9, data=[35, 95]),
   midi.NoteOnEvent(tick=0, channel=9, data=[46, 95]),
   midi.NoteOnEvent(tick=0, channel=9, data=[38, 95]),
   midi.NoteOffEvent(tick=480, channel=9, data=[46, 95]),
   midi.NoteOffEvent(tick=0, channel=9, data=[38, 95]),
   midi.NoteOnEvent(tick=0, channel=9, data=[46, 95]),
   midi.NoteOnEvent(tick=0, channel=9, data=[35, 95]),
   midi.NoteOffEvent(tick=480, channel=9, data=[46, 95]),
   midi.NoteOffEvent(tick=0, channel=9, data=[35, 95]),
   midi.NoteOnEvent(tick=0, channel=9, data=[46, 95]),
   midi.NoteOnEvent(tick=0, channel=9, data=[38, 95]),
   midi.NoteOffEvent(tick=480, channel=9, data=[46, 95]),
   midi.NoteOffEvent(tick=0, channel=9, data=[38, 95]),
   midi.NoteOnEvent(tick=0, channel=9, data=[46, 95]),
   midi.NoteOnEvent(tick=0, channel=9, data=[35, 95]),
   midi.NoteOffEvent(tick=480, channel=9, data=[46, 95]),
   midi.NoteOffEvent(tick=0, channel=9, data=[35, 95]),
   midi.NoteOnEvent(tick=0, channel=9, data=[46, 95]),
   midi.NoteOnEvent(tick=0, channel=9, data=[38, 95]),
   midi.NoteOffEvent(tick=480, channel=9, data=[46, 95]),
   midi.NoteOffEvent(tick=0, channel=9, data=[38, 95]),
   midi.NoteOnEvent(tick=0, channel=9, data=[49, 95]),
   midi.NoteOnEvent(tick=0, channel=9, data=[35, 95]),
   midi.NoteOffEvent(tick=480, channel=9, data=[49, 95]),
   midi.NoteOffEvent(tick=0, channel=9, data=[35, 95]),
   midi.NoteOnEvent(tick=0, channel=9, data=[46, 95]),
   midi.NoteOnEvent(tick=0, channel=9, data=[38, 95]),
   midi.NoteOffEvent(tick=480, channel=9, data=[46, 95]),
   midi.NoteOffEvent(tick=0, channel=9, data=[38, 95]),
   midi.NoteOnEvent(tick=0, channel=9, data=[46, 95]),
   midi.NoteOnEvent(tick=0, channel=9, data=[35, 95]),
   midi.NoteOffEvent(tick=480, channel=9, data=[46, 95]),
   midi.NoteOffEvent(tick=0, channel=9, data=[35, 95]),
   midi.NoteOnEvent(tick=0, channel=9, data=[46, 95]),
   midi.NoteOnEvent(tick=0, channel=9, data=[38, 95]),
   midi.NoteOffEvent(tick=480, channel=9, data=[46, 95]),
   midi.NoteOffEvent(tick=0, channel=9, data=[38, 95]),
   midi.NoteOnEvent(tick=0, channel=9, data=[46, 95]),
   midi.NoteOnEvent(tick=0, channel=9, data=[35, 95]),
   midi.NoteOffEvent(tick=480, channel=9, data=[46, 95]),
   midi.NoteOffEvent(tick=0, channel=9, data=[35, 95]),
   midi.NoteOnEvent(tick=0, channel=9, data=[46, 95]),
   midi.NoteOnEvent(tick=0, channel=9, data=[38, 95]),
   midi.NoteOffEvent(tick=480, channel=9, data=[46, 95]),
   midi.NoteOffEvent(tick=0, channel=9, data=[38, 95]),
   midi.NoteOnEvent(tick=0, channel=9, data=[46, 95]),
   midi.NoteOnEvent(tick=0, channel=9, data=[35, 95]),
   midi.NoteOffEvent(tick=480, channel=9, data=[46, 95]),
   midi.NoteOffEvent(tick=0, channel=9, data=[35, 95]),
   midi.NoteOnEvent(tick=0, channel=9, data=[46, 95]),
   midi.NoteOnEvent(tick=0, channel=9, data=[38, 95]),
   midi.NoteOffEvent(tick=480, channel=9, data=[46, 95]),
   midi.NoteOffEvent(tick=0, channel=9, data=[38, 95]),
   midi.NoteOnEvent(tick=0, channel=9, data=[46, 95]),
   midi.NoteOnEvent(tick=0, channel=9, data=[35, 95]),
   midi.NoteOffEvent(tick=480, channel=9, data=[46, 95]),
   midi.NoteOffEvent(tick=0, channel=9, data=[35, 95]),
   midi.NoteOnEvent(tick=0, channel=9, data=[46, 95]),
   midi.NoteOnEvent(tick=0, channel=9, data=[38, 95]),
   midi.NoteOffEvent(tick=480, channel=9, data=[46, 95]),
   midi.NoteOffEvent(tick=0, channel=9, data=[38, 95]),
   midi.NoteOnEvent(tick=0, channel=9, data=[46, 95]),
   midi.NoteOnEvent(tick=0, channel=9, data=[35, 95]),
   midi.NoteOffEvent(tick=480, channel=9, data=[46, 95]),
   midi.NoteOffEvent(tick=0, channel=9, data=[35, 95]),
   midi.NoteOnEvent(tick=0, channel=9, data=[46, 95]),
   midi.NoteOnEvent(tick=0, channel=9, data=[38, 95]),
   midi.NoteOffEvent(tick=480, channel=9, data=[46, 95]),
   midi.NoteOffEvent(tick=0, channel=9, data=[38, 95]),
   midi.NoteOnEvent(tick=0, channel=9, data=[35, 95]),
   midi.NoteOnEvent(tick=0, channel=9, data=[38, 95]),
   midi.NoteOffEvent(tick=240, channel=9, data=[35, 95]),
   midi.NoteOffEvent(tick=0, channel=9, data=[38, 95]),
   midi.NoteOnEvent(tick=0, channel=9, data=[35, 95]),
   midi.NoteOnEvent(tick=0, channel=9, data=[38, 95]),
   midi.NoteOffEvent(tick=240, channel=9, data=[35, 95]),
   midi.NoteOffEvent(tick=0, channel=9, data=[38, 95]),
   midi.NoteOnEvent(tick=0, channel=9, data=[35, 95]),
   midi.NoteOffEvent(tick=240, channel=9, data=[35, 95]),
   midi.NoteOnEvent(tick=0, channel=9, data=[45, 95]),
   midi.NoteOffEvent(tick=240, channel=9, data=[45, 95]),
   midi.NoteOnEvent(tick=0, channel=9, data=[45, 95]),
   midi.NoteOffEvent(tick=240, channel=9, data=[45, 95]),
   midi.NoteOnEvent(tick=0, channel=9, data=[35, 95]),
   midi.NoteOnEvent(tick=0, channel=9, data=[38, 95]),
   midi.NoteOffEvent(tick=240, channel=9, data=[35, 95]),
   midi.NoteOffEvent(tick=0, channel=9, data=[38, 95]),
   midi.NoteOnEvent(tick=0, channel=9, data=[35, 95]),
   midi.NoteOnEvent(tick=0, channel=9, data=[38, 95]),
   midi.NoteOffEvent(tick=240, channel=9, data=[35, 95]),
   midi.NoteOffEvent(tick=0, channel=9, data=[38, 95]),
   midi.NoteOnEvent(tick=0, channel=9, data=[35, 95]),
   midi.NoteOffEvent(tick=240, channel=9, data=[35, 95]),
   midi.NoteOnEvent(tick=0, channel=9, data=[49, 95]),
   midi.NoteOnEvent(tick=0, channel=9, data=[35, 95]),
   midi.NoteOffEvent(tick=480, channel=9, data=[49, 95]),
   midi.NoteOffEvent(tick=0, channel=9, data=[35, 95]),
   midi.NoteOnEvent(tick=0, channel=9, data=[46, 95]),
   midi.NoteOnEvent(tick=0, channel=9, data=[38, 95]),
   midi.NoteOffEvent(tick=480, channel=9, data=[46, 95]),
   midi.NoteOffEvent(tick=0, channel=9, data=[38, 95]),
   midi.NoteOnEvent(tick=0, channel=9, data=[46, 95]),
   midi.NoteOnEvent(tick=0, channel=9, data=[35, 95]),
   midi.NoteOffEvent(tick=480, channel=9, data=[46, 95]),
   midi.NoteOffEvent(tick=0, channel=9, data=[35, 95]),
   midi.NoteOnEvent(tick=0, channel=9, data=[46, 95]),
   midi.NoteOnEvent(tick=0, channel=9, data=[38, 95]),
   midi.NoteOffEvent(tick=480, channel=9, data=[46, 95]),
   midi.NoteOffEvent(tick=0, channel=9, data=[38, 95]),
   midi.NoteOnEvent(tick=0, channel=9, data=[46, 95]),
   midi.NoteOnEvent(tick=0, channel=9, data=[35, 95]),
   midi.NoteOffEvent(tick=480, channel=9, data=[46, 95]),
   midi.NoteOffEvent(tick=0, channel=9, data=[35, 95]),
   midi.NoteOnEvent(tick=0, channel=9, data=[46, 95]),
   midi.NoteOnEvent(tick=0, channel=9, data=[38, 95]),
   midi.NoteOffEvent(tick=480, channel=9, data=[46, 95]),
   midi.NoteOffEvent(tick=0, channel=9, data=[38, 95]),
   midi.NoteOnEvent(tick=0, channel=9, data=[46, 95]),
   midi.NoteOnEvent(tick=0, channel=9, data=[35, 95]),
   midi.NoteOffEvent(tick=480, channel=9, data=[46, 95]),
   midi.NoteOffEvent(tick=0, channel=9, data=[35, 95]),
   midi.NoteOnEvent(tick=0, channel=9, data=[46, 95]),
   midi.NoteOnEvent(tick=0, channel=9, data=[38, 95]),
   midi.NoteOffEvent(tick=480, channel=9, data=[46, 95]),
   midi.NoteOffEvent(tick=0, channel=9, data=[38, 95]),
   midi.NoteOnEvent(tick=0, channel=9, data=[46, 95]),
   midi.NoteOnEvent(tick=0, channel=9, data=[35, 95]),
   midi.NoteOffEvent(tick=480, channel=9, data=[46, 95]),
   midi.NoteOffEvent(tick=0, channel=9, data=[35, 95]),
   midi.NoteOnEvent(tick=0, channel=9, data=[46, 95]),
   midi.NoteOnEvent(tick=0, channel=9, data=[38, 95]),
   midi.NoteOffEvent(tick=480, channel=9, data=[46, 95]),
   midi.NoteOffEvent(tick=0, channel=9, data=[38, 95]),
   midi.NoteOnEvent(tick=0, channel=9, data=[49, 95]),
   midi.NoteOnEvent(tick=0, channel=9, data=[35, 95]),
   midi.NoteOffEvent(tick=480, channel=9, data=[49, 95]),
   midi.NoteOffEvent(tick=0, channel=9, data=[35, 95]),
   midi.NoteOnEvent(tick=0, channel=9, data=[57, 95]),
   midi.NoteOnEvent(tick=0, channel=9, data=[38, 95]),
   midi.NoteOffEvent(tick=480, channel=9, data=[57, 95]),
   midi.NoteOffEvent(tick=0, channel=9, data=[38, 95]),
   midi.NoteOnEvent(tick=0, channel=9, data=[49, 95]),
   midi.NoteOnEvent(tick=0, channel=9, data=[35, 95]),
   midi.NoteOffEvent(tick=480, channel=9, data=[49, 95]),
   midi.NoteOffEvent(tick=0, channel=9, data=[35, 95]),
   midi.NoteOnEvent(tick=0, channel=9, data=[57, 95]),
   midi.NoteOnEvent(tick=0, channel=9, data=[38, 95]),
   midi.NoteOffEvent(tick=480, channel=9, data=[57, 95]),
   midi.NoteOffEvent(tick=0, channel=9, data=[38, 95]),
   midi.NoteOnEvent(tick=0, channel=9, data=[49, 95]),
   midi.NoteOnEvent(tick=0, channel=9, data=[35, 95]),
   midi.NoteOffEvent(tick=480, channel=9, data=[49, 95]),
   midi.NoteOffEvent(tick=0, channel=9, data=[35, 95]),
   midi.NoteOnEvent(tick=0, channel=9, data=[57, 95]),
   midi.NoteOnEvent(tick=0, channel=9, data=[38, 95]),
   midi.NoteOffEvent(tick=480, channel=9, data=[57, 95]),
   midi.NoteOffEvent(tick=0, channel=9, data=[38, 95]),
   midi.NoteOnEvent(tick=0, channel=9, data=[49, 95]),
   midi.NoteOnEvent(tick=0, channel=9, data=[35, 95]),
   midi.NoteOffEvent(tick=480, channel=9, data=[49, 95]),
   midi.NoteOffEvent(tick=0, channel=9, data=[35, 95]),
   midi.NoteOnEvent(tick=0, channel=9, data=[46, 95]),
   midi.NoteOnEvent(tick=0, channel=9, data=[38, 95]),
   midi.NoteOffEvent(tick=480, channel=9, data=[46, 95]),
   midi.NoteOffEvent(tick=0, channel=9, data=[38, 95]),
   midi.NoteOnEvent(tick=0, channel=9, data=[46, 95]),
   midi.NoteOnEvent(tick=0, channel=9, data=[35, 95]),
   midi.NoteOffEvent(tick=480, channel=9, data=[46, 95]),
   midi.NoteOffEvent(tick=0, channel=9, data=[35, 95]),
   midi.NoteOnEvent(tick=0, channel=9, data=[46, 95]),
   midi.NoteOnEvent(tick=0, channel=9, data=[38, 95]),
   midi.NoteOffEvent(tick=480, channel=9, data=[46, 95]),
   midi.NoteOffEvent(tick=0, channel=9, data=[38, 95]),
   midi.NoteOnEvent(tick=0, channel=9, data=[46, 95]),
   midi.NoteOnEvent(tick=0, channel=9, data=[35, 95]),
   midi.NoteOffEvent(tick=480, channel=9, data=[46, 95]),
   midi.NoteOffEvent(tick=0, channel=9, data=[35, 95]),
   midi.NoteOnEvent(tick=0, channel=9, data=[46, 95]),
   midi.NoteOnEvent(tick=0, channel=9, data=[38, 95]),
   midi.NoteOffEvent(tick=480, channel=9, data=[46, 95]),
   midi.NoteOffEvent(tick=0, channel=9, data=[38, 95]),
   midi.NoteOnEvent(tick=0, channel=9, data=[46, 95]),
   midi.NoteOnEvent(tick=0, channel=9, data=[35, 95]),
   midi.NoteOffEvent(tick=480, channel=9, data=[46, 95]),
   midi.NoteOffEvent(tick=0, channel=9, data=[35, 95]),
   midi.NoteOnEvent(tick=0, channel=9, data=[46, 95]),
   midi.NoteOnEvent(tick=0, channel=9, data=[38, 95]),
   midi.NoteOffEvent(tick=480, channel=9, data=[46, 95]),
   midi.NoteOffEvent(tick=0, channel=9, data=[38, 95]),
   midi.NoteOnEvent(tick=0, channel=9, data=[35, 95]),
   midi.NoteOnEvent(tick=0, channel=9, data=[38, 95]),
   midi.NoteOffEvent(tick=240, channel=9, data=[35, 95]),
   midi.NoteOffEvent(tick=0, channel=9, data=[38, 95]),
   midi.NoteOnEvent(tick=0, channel=9, data=[35, 95]),
   midi.NoteOnEvent(tick=0, channel=9, data=[38, 95]),
   midi.NoteOffEvent(tick=240, channel=9, data=[35, 95]),
   midi.NoteOffEvent(tick=0, channel=9, data=[38, 95]),
   midi.NoteOnEvent(tick=0, channel=9, data=[35, 95]),
   midi.NoteOnEvent(tick=0, channel=9, data=[43, 95]),
   midi.NoteOffEvent(tick=240, channel=9, data=[35, 95]),
   midi.NoteOffEvent(tick=0, channel=9, data=[43, 95]),
   midi.NoteOnEvent(tick=0, channel=9, data=[35, 95]),
   midi.NoteOnEvent(tick=0, channel=9, data=[43, 95]),
   midi.NoteOffEvent(tick=240, channel=9, data=[35, 95]),
   midi.NoteOffEvent(tick=0, channel=9, data=[43, 95]),
   midi.NoteOnEvent(tick=0, channel=9, data=[35, 95]),
   midi.NoteOnEvent(tick=0, channel=9, data=[45, 95]),
   midi.NoteOffEvent(tick=240, channel=9, data=[35, 95]),
   midi.NoteOffEvent(tick=0, channel=9, data=[45, 95]),
   midi.NoteOnEvent(tick=0, channel=9, data=[35, 95]),
   midi.NoteOnEvent(tick=0, channel=9, data=[45, 95]),
   midi.NoteOffEvent(tick=240, channel=9, data=[35, 95]),
   midi.NoteOffEvent(tick=0, channel=9, data=[45, 95]),
   midi.NoteOnEvent(tick=0, channel=9, data=[35, 95]),
   midi.NoteOnEvent(tick=0, channel=9, data=[47, 95]),
   midi.NoteOffEvent(tick=240, channel=9, data=[35, 95]),
   midi.NoteOffEvent(tick=0, channel=9, data=[47, 95]),
   midi.NoteOnEvent(tick=0, channel=9, data=[35, 95]),
   midi.NoteOnEvent(tick=0, channel=9, data=[47, 95]),
   midi.NoteOffEvent(tick=240, channel=9, data=[35, 95]),
   midi.NoteOffEvent(tick=0, channel=9, data=[47, 95]),
   midi.NoteOnEvent(tick=0, channel=9, data=[35, 95]),
   midi.NoteOnEvent(tick=0, channel=9, data=[48, 95]),
   midi.NoteOffEvent(tick=240, channel=9, data=[35, 95]),
   midi.NoteOffEvent(tick=0, channel=9, data=[48, 95]),
   midi.NoteOnEvent(tick=0, channel=9, data=[35, 95]),
   midi.NoteOnEvent(tick=0, channel=9, data=[48, 95]),
   midi.NoteOffEvent(tick=240, channel=9, data=[35, 95]),
   midi.NoteOffEvent(tick=0, channel=9, data=[48, 95]),
   midi.NoteOnEvent(tick=0, channel=9, data=[35, 95]),
   midi.NoteOnEvent(tick=0, channel=9, data=[50, 95]),
   midi.NoteOffEvent(tick=240, channel=9, data=[35, 95]),
   midi.NoteOffEvent(tick=0, channel=9, data=[50, 95]),
   midi.NoteOnEvent(tick=0, channel=9, data=[35, 95]),
   midi.NoteOnEvent(tick=0, channel=9, data=[50, 95]),
   midi.NoteOffEvent(tick=240, channel=9, data=[35, 95]),
   midi.NoteOffEvent(tick=0, channel=9, data=[50, 95]),
   midi.NoteOnEvent(tick=0, channel=9, data=[35, 95]),
   midi.NoteOnEvent(tick=0, channel=9, data=[41, 95]),
   midi.NoteOffEvent(tick=240, channel=9, data=[35, 95]),
   midi.NoteOffEvent(tick=0, channel=9, data=[41, 95]),
   midi.NoteOnEvent(tick=0, channel=9, data=[35, 95]),
   midi.NoteOnEvent(tick=0, channel=9, data=[41, 95]),
   midi.NoteOffEvent(tick=240, channel=9, data=[35, 95]),
   midi.NoteOffEvent(tick=0, channel=9, data=[41, 95]),
   midi.NoteOnEvent(tick=0, channel=9, data=[35, 95]),
   midi.NoteOnEvent(tick=0, channel=9, data=[38, 95]),
   midi.NoteOffEvent(tick=240, channel=9, data=[35, 95]),
   midi.NoteOffEvent(tick=0, channel=9, data=[38, 95]),
   midi.NoteOnEvent(tick=0, channel=9, data=[35, 95]),
   midi.NoteOnEvent(tick=0, channel=9, data=[38, 95]),
   midi.NoteOffEvent(tick=240, channel=9, data=[35, 95]),
   midi.NoteOffEvent(tick=0, channel=9, data=[38, 95]),
   midi.NoteOnEvent(tick=0, channel=9, data=[46, 95]),
   midi.NoteOffEvent(tick=960, channel=9, data=[46, 95]),
   midi.NoteOnEvent(tick=0, channel=9, data=[46, 95]),
   midi.NoteOffEvent(tick=960, channel=9, data=[46, 95]),
   midi.NoteOnEvent(tick=0, channel=9, data=[46, 95]),
   midi.NoteOffEvent(tick=960, channel=9, data=[46, 95]),
   midi.NoteOnEvent(tick=0, channel=9, data=[46, 95]),
   midi.NoteOffEvent(tick=960, channel=9, data=[46, 95]),
   midi.NoteOnEvent(tick=0, channel=9, data=[51, 95]),
   midi.NoteOnEvent(tick=0, channel=9, data=[35, 95]),
   midi.NoteOffEvent(tick=480, channel=9, data=[51, 95]),
   midi.NoteOffEvent(tick=0, channel=9, data=[35, 95]),
   midi.NoteOnEvent(tick=0, channel=9, data=[35, 95]),
   midi.NoteOffEvent(tick=480, channel=9, data=[35, 95]),
   midi.NoteOnEvent(tick=0, channel=9, data=[51, 95]),
   midi.NoteOnEvent(tick=0, channel=9, data=[35, 95]),
   midi.NoteOffEvent(tick=480, channel=9, data=[51, 95]),
   midi.NoteOffEvent(tick=0, channel=9, data=[35, 95]),
   midi.NoteOnEvent(tick=0, channel=9, data=[35, 95]),
   midi.NoteOffEvent(tick=480, channel=9, data=[35, 95]),
   midi.NoteOnEvent(tick=0, channel=9, data=[49, 95]),
   midi.NoteOnEvent(tick=0, channel=9, data=[38, 95]),
   midi.NoteOnEvent(tick=0, channel=9, data=[35, 95]),
   midi.NoteOffEvent(tick=480, channel=9, data=[49, 95]),
   midi.NoteOffEvent(tick=0, channel=9, data=[38, 95]),
   midi.NoteOffEvent(tick=0, channel=9, data=[35, 95]),
   midi.NoteOnEvent(tick=0, channel=9, data=[51, 95]),
   midi.NoteOnEvent(tick=0, channel=9, data=[35, 95]),
   midi.NoteOffEvent(tick=480, channel=9, data=[51, 95]),
   midi.NoteOffEvent(tick=0, channel=9, data=[35, 95]),
   midi.NoteOnEvent(tick=0, channel=9, data=[35, 95]),
   midi.NoteOffEvent(tick=480, channel=9, data=[35, 95]),
   midi.NoteOnEvent(tick=0, channel=9, data=[51, 95]),
   midi.NoteOnEvent(tick=0, channel=9, data=[35, 95]),
   midi.NoteOffEvent(tick=480, channel=9, data=[51, 95]),
   midi.NoteOffEvent(tick=0, channel=9, data=[35, 95]),
   midi.NoteOnEvent(tick=0, channel=9, data=[51, 95]),
   midi.NoteOnEvent(tick=0, channel=9, data=[35, 95]),
   midi.NoteOffEvent(tick=480, channel=9, data=[51, 95]),
   midi.NoteOffEvent(tick=0, channel=9, data=[35, 95]),
   midi.NoteOnEvent(tick=0, channel=9, data=[35, 95]),
   midi.NoteOffEvent(tick=480, channel=9, data=[35, 95]),
   midi.NoteOnEvent(tick=0, channel=9, data=[51, 95]),
   midi.NoteOnEvent(tick=0, channel=9, data=[35, 95]),
   midi.NoteOffEvent(tick=480, channel=9, data=[51, 95]),
   midi.NoteOffEvent(tick=0, channel=9, data=[35, 95]),
   midi.NoteOnEvent(tick=0, channel=9, data=[35, 95]),
   midi.NoteOffEvent(tick=480, channel=9, data=[35, 95]),
   midi.NoteOnEvent(tick=0, channel=9, data=[51, 95]),
   midi.NoteOnEvent(tick=0, channel=9, data=[35, 95]),
   midi.NoteOffEvent(tick=480, channel=9, data=[51, 95]),
   midi.NoteOffEvent(tick=0, channel=9, data=[35, 95]),
   midi.NoteOnEvent(tick=0, channel=9, data=[35, 95]),
   midi.NoteOffEvent(tick=480, channel=9, data=[35, 95]),
   midi.NoteOnEvent(tick=0, channel=9, data=[38, 95]),
   midi.NoteOnEvent(tick=0, channel=9, data=[49, 95]),
   midi.NoteOnEvent(tick=0, channel=9, data=[35, 95]),
   midi.NoteOffEvent(tick=480, channel=9, data=[38, 95]),
   midi.NoteOffEvent(tick=0, channel=9, data=[49, 95]),
   midi.NoteOffEvent(tick=0, channel=9, data=[35, 95]),
   midi.NoteOnEvent(tick=0, channel=9, data=[51, 95]),
   midi.NoteOnEvent(tick=0, channel=9, data=[35, 95]),
   midi.NoteOffEvent(tick=480, channel=9, data=[51, 95]),
   midi.NoteOffEvent(tick=0, channel=9, data=[35, 95]),
   midi.NoteOnEvent(tick=0, channel=9, data=[51, 95]),
   midi.NoteOnEvent(tick=0, channel=9, data=[35, 95]),
   midi.NoteOffEvent(tick=480, channel=9, data=[51, 95]),
   midi.NoteOffEvent(tick=0, channel=9, data=[35, 95]),
   midi.NoteOnEvent(tick=0, channel=9, data=[35, 95]),
   midi.NoteOffEvent(tick=480, channel=9, data=[35, 95]),
   midi.NoteOnEvent(tick=0, channel=9, data=[51, 95]),
   midi.NoteOnEvent(tick=0, channel=9, data=[35, 95]),
   midi.NoteOffEvent(tick=480, channel=9, data=[51, 95]),
   midi.NoteOffEvent(tick=0, channel=9, data=[35, 95]),
   midi.NoteOnEvent(tick=0, channel=9, data=[35, 95]),
   midi.NoteOffEvent(tick=480, channel=9, data=[35, 95]),
   midi.NoteOnEvent(tick=0, channel=9, data=[49, 95]),
   midi.NoteOnEvent(tick=0, channel=9, data=[38, 95]),
   midi.NoteOnEvent(tick=0, channel=9, data=[35, 95]),
   midi.NoteOffEvent(tick=480, channel=9, data=[49, 95]),
   midi.NoteOffEvent(tick=0, channel=9, data=[38, 95]),
   midi.NoteOffEvent(tick=0, channel=9, data=[35, 95]),
   midi.NoteOnEvent(tick=0, channel=9, data=[51, 95]),
   midi.NoteOnEvent(tick=0, channel=9, data=[35, 95]),
   midi.NoteOffEvent(tick=480, channel=9, data=[51, 95]),
   midi.NoteOffEvent(tick=0, channel=9, data=[35, 95]),
   midi.NoteOnEvent(tick=0, channel=9, data=[35, 95]),
   midi.NoteOffEvent(tick=480, channel=9, data=[35, 95]),
   midi.NoteOnEvent(tick=0, channel=9, data=[51, 95]),
   midi.NoteOnEvent(tick=0, channel=9, data=[35, 95]),
   midi.NoteOffEvent(tick=480, channel=9, data=[51, 95]),
   midi.NoteOffEvent(tick=0, channel=9, data=[35, 95]),
   midi.NoteOnEvent(tick=0, channel=9, data=[51, 95]),
   midi.NoteOnEvent(tick=0, channel=9, data=[35, 95]),
   midi.NoteOffEvent(tick=480, channel=9, data=[51, 95]),
   midi.NoteOffEvent(tick=0, channel=9, data=[35, 95]),
   midi.NoteOnEvent(tick=0, channel=9, data=[35, 95]),
   midi.NoteOffEvent(tick=480, channel=9, data=[35, 95]),
   midi.NoteOnEvent(tick=0, channel=9, data=[51, 95]),
   midi.NoteOnEvent(tick=0, channel=9, data=[35, 95]),
   midi.NoteOffEvent(tick=480, channel=9, data=[51, 95]),
   midi.NoteOffEvent(tick=0, channel=9, data=[35, 95]),
   midi.NoteOnEvent(tick=0, channel=9, data=[35, 95]),
   midi.NoteOffEvent(tick=480, channel=9, data=[35, 95]),
   midi.NoteOnEvent(tick=0, channel=9, data=[51, 95]),
   midi.NoteOnEvent(tick=0, channel=9, data=[35, 95]),
   midi.NoteOffEvent(tick=480, channel=9, data=[51, 95]),
   midi.NoteOffEvent(tick=0, channel=9, data=[35, 95]),
   midi.NoteOnEvent(tick=0, channel=9, data=[35, 95]),
   midi.NoteOffEvent(tick=480, channel=9, data=[35, 95]),
   midi.NoteOnEvent(tick=0, channel=9, data=[38, 95]),
   midi.NoteOnEvent(tick=0, channel=9, data=[49, 95]),
   midi.NoteOnEvent(tick=0, channel=9, data=[35, 95]),
   midi.NoteOffEvent(tick=480, channel=9, data=[38, 95]),
   midi.NoteOffEvent(tick=0, channel=9, data=[49, 95]),
   midi.NoteOffEvent(tick=0, channel=9, data=[35, 95]),
   midi.NoteOnEvent(tick=0, channel=9, data=[51, 95]),
   midi.NoteOnEvent(tick=0, channel=9, data=[35, 95]),
   midi.NoteOffEvent(tick=480, channel=9, data=[51, 95]),
   midi.NoteOffEvent(tick=0, channel=9, data=[35, 95]),
   midi.NoteOnEvent(tick=0, channel=9, data=[51, 95]),
   midi.NoteOnEvent(tick=0, channel=9, data=[35, 95]),
   midi.NoteOffEvent(tick=480, channel=9, data=[51, 95]),
   midi.NoteOffEvent(tick=0, channel=9, data=[35, 95]),
   midi.NoteOnEvent(tick=0, channel=9, data=[35, 95]),
   midi.NoteOffEvent(tick=480, channel=9, data=[35, 95]),
   midi.NoteOnEvent(tick=0, channel=9, data=[51, 95]),
   midi.NoteOnEvent(tick=0, channel=9, data=[35, 95]),
   midi.NoteOffEvent(tick=480, channel=9, data=[51, 95]),
   midi.NoteOffEvent(tick=0, channel=9, data=[35, 95]),
   midi.NoteOnEvent(tick=0, channel=9, data=[35, 95]),
   midi.NoteOffEvent(tick=480, channel=9, data=[35, 95]),
   midi.NoteOnEvent(tick=0, channel=9, data=[49, 95]),
   midi.NoteOnEvent(tick=0, channel=9, data=[38, 95]),
   midi.NoteOnEvent(tick=0, channel=9, data=[35, 95]),
   midi.NoteOffEvent(tick=480, channel=9, data=[49, 95]),
   midi.NoteOffEvent(tick=0, channel=9, data=[38, 95]),
   midi.NoteOffEvent(tick=0, channel=9, data=[35, 95]),
   midi.NoteOnEvent(tick=0, channel=9, data=[51, 95]),
   midi.NoteOnEvent(tick=0, channel=9, data=[35, 95]),
   midi.NoteOffEvent(tick=480, channel=9, data=[51, 95]),
   midi.NoteOffEvent(tick=0, channel=9, data=[35, 95]),
   midi.NoteOnEvent(tick=0, channel=9, data=[35, 95]),
   midi.NoteOffEvent(tick=480, channel=9, data=[35, 95]),
   midi.NoteOnEvent(tick=0, channel=9, data=[51, 95]),
   midi.NoteOnEvent(tick=0, channel=9, data=[35, 95]),
   midi.NoteOffEvent(tick=480, channel=9, data=[51, 95]),
   midi.NoteOffEvent(tick=0, channel=9, data=[35, 95]),
   midi.NoteOnEvent(tick=0, channel=9, data=[51, 95]),
   midi.NoteOnEvent(tick=0, channel=9, data=[35, 95]),
   midi.NoteOffEvent(tick=480, channel=9, data=[51, 95]),
   midi.NoteOffEvent(tick=0, channel=9, data=[35, 95]),
   midi.NoteOnEvent(tick=0, channel=9, data=[35, 95]),
   midi.NoteOffEvent(tick=480, channel=9, data=[35, 95]),
   midi.NoteOnEvent(tick=0, channel=9, data=[51, 95]),
   midi.NoteOnEvent(tick=0, channel=9, data=[35, 95]),
   midi.NoteOffEvent(tick=480, channel=9, data=[51, 95]),
   midi.NoteOffEvent(tick=0, channel=9, data=[35, 95]),
   midi.NoteOnEvent(tick=0, channel=9, data=[35, 95]),
   midi.NoteOffEvent(tick=480, channel=9, data=[35, 95]),
   midi.NoteOnEvent(tick=0, channel=9, data=[51, 95]),
   midi.NoteOnEvent(tick=0, channel=9, data=[35, 95]),
   midi.NoteOffEvent(tick=480, channel=9, data=[51, 95]),
   midi.NoteOffEvent(tick=0, channel=9, data=[35, 95]),
   midi.NoteOnEvent(tick=0, channel=9, data=[35, 95]),
   midi.NoteOffEvent(tick=480, channel=9, data=[35, 95]),
   midi.NoteOnEvent(tick=0, channel=9, data=[38, 95]),
   midi.NoteOnEvent(tick=0, channel=9, data=[49, 95]),
   midi.NoteOnEvent(tick=0, channel=9, data=[35, 95]),
   midi.NoteOffEvent(tick=480, channel=9, data=[38, 95]),
   midi.NoteOffEvent(tick=0, channel=9, data=[49, 95]),
   midi.NoteOffEvent(tick=0, channel=9, data=[35, 95]),
   midi.NoteOnEvent(tick=0, channel=9, data=[51, 95]),
   midi.NoteOnEvent(tick=0, channel=9, data=[35, 95]),
   midi.NoteOffEvent(tick=480, channel=9, data=[51, 95]),
   midi.NoteOffEvent(tick=0, channel=9, data=[35, 95]),
   midi.NoteOnEvent(tick=0, channel=9, data=[51, 95]),
   midi.NoteOnEvent(tick=0, channel=9, data=[35, 95]),
   midi.NoteOffEvent(tick=480, channel=9, data=[51, 95]),
   midi.NoteOffEvent(tick=0, channel=9, data=[35, 95]),
   midi.NoteOnEvent(tick=0, channel=9, data=[35, 95]),
   midi.NoteOffEvent(tick=480, channel=9, data=[35, 95]),
   midi.NoteOnEvent(tick=0, channel=9, data=[51, 95]),
   midi.NoteOnEvent(tick=0, channel=9, data=[35, 95]),
   midi.NoteOffEvent(tick=480, channel=9, data=[51, 95]),
   midi.NoteOffEvent(tick=0, channel=9, data=[35, 95]),
   midi.NoteOnEvent(tick=0, channel=9, data=[35, 95]),
   midi.NoteOffEvent(tick=480, channel=9, data=[35, 95]),
   midi.NoteOnEvent(tick=0, channel=9, data=[49, 95]),
   midi.NoteOnEvent(tick=0, channel=9, data=[38, 95]),
   midi.NoteOnEvent(tick=0, channel=9, data=[35, 95]),
   midi.NoteOffEvent(tick=480, channel=9, data=[49, 95]),
   midi.NoteOffEvent(tick=0, channel=9, data=[38, 95]),
   midi.NoteOffEvent(tick=0, channel=9, data=[35, 95]),
   midi.NoteOnEvent(tick=0, channel=9, data=[51, 95]),
   midi.NoteOnEvent(tick=0, channel=9, data=[35, 95]),
   midi.NoteOffEvent(tick=480, channel=9, data=[51, 95]),
   midi.NoteOffEvent(tick=0, channel=9, data=[35, 95]),
   midi.NoteOnEvent(tick=0, channel=9, data=[35, 95]),
   midi.NoteOffEvent(tick=480, channel=9, data=[35, 95]),
   midi.NoteOnEvent(tick=0, channel=9, data=[51, 95]),
   midi.NoteOnEvent(tick=0, channel=9, data=[35, 95]),
   midi.NoteOffEvent(tick=480, channel=9, data=[51, 95]),
   midi.NoteOffEvent(tick=0, channel=9, data=[35, 95]),
   midi.NoteOnEvent(tick=0, channel=9, data=[51, 95]),
   midi.NoteOnEvent(tick=0, channel=9, data=[35, 95]),
   midi.NoteOffEvent(tick=480, channel=9, data=[51, 95]),
   midi.NoteOffEvent(tick=0, channel=9, data=[35, 95]),
   midi.NoteOnEvent(tick=0, channel=9, data=[35, 95]),
   midi.NoteOffEvent(tick=480, channel=9, data=[35, 95]),
   midi.NoteOnEvent(tick=0, channel=9, data=[51, 95]),
   midi.NoteOnEvent(tick=0, channel=9, data=[35, 95]),
   midi.NoteOffEvent(tick=480, channel=9, data=[51, 95]),
   midi.NoteOffEvent(tick=0, channel=9, data=[35, 95]),
   midi.NoteOnEvent(tick=0, channel=9, data=[35, 95]),
   midi.NoteOffEvent(tick=480, channel=9, data=[35, 95]),
   midi.NoteOnEvent(tick=0, channel=9, data=[51, 95]),
   midi.NoteOnEvent(tick=0, channel=9, data=[35, 95]),
   midi.NoteOffEvent(tick=480, channel=9, data=[51, 95]),
   midi.NoteOffEvent(tick=0, channel=9, data=[35, 95]),
   midi.NoteOnEvent(tick=0, channel=9, data=[35, 95]),
   midi.NoteOffEvent(tick=480, channel=9, data=[35, 95]),
   midi.NoteOnEvent(tick=0, channel=9, data=[38, 95]),
   midi.NoteOnEvent(tick=0, channel=9, data=[49, 95]),
   midi.NoteOnEvent(tick=0, channel=9, data=[35, 95]),
   midi.NoteOffEvent(tick=480, channel=9, data=[38, 95]),
   midi.NoteOffEvent(tick=0, channel=9, data=[49, 95]),
   midi.NoteOffEvent(tick=0, channel=9, data=[35, 95]),
   midi.NoteOnEvent(tick=0, channel=9, data=[51, 95]),
   midi.NoteOnEvent(tick=0, channel=9, data=[35, 95]),
   midi.NoteOffEvent(tick=480, channel=9, data=[51, 95]),
   midi.NoteOffEvent(tick=0, channel=9, data=[35, 95]),
   midi.NoteOnEvent(tick=0, channel=9, data=[51, 95]),
   midi.NoteOnEvent(tick=0, channel=9, data=[35, 95]),
   midi.NoteOffEvent(tick=480, channel=9, data=[51, 95]),
   midi.NoteOffEvent(tick=0, channel=9, data=[35, 95]),
   midi.NoteOnEvent(tick=0, channel=9, data=[35, 95]),
   midi.NoteOffEvent(tick=480, channel=9, data=[35, 95]),
   midi.NoteOnEvent(tick=0, channel=9, data=[51, 95]),
   midi.NoteOnEvent(tick=0, channel=9, data=[35, 95]),
   midi.NoteOffEvent(tick=480, channel=9, data=[51, 95]),
   midi.NoteOffEvent(tick=0, channel=9, data=[35, 95]),
   midi.NoteOnEvent(tick=0, channel=9, data=[35, 95]),
   midi.NoteOffEvent(tick=480, channel=9, data=[35, 95]),
   midi.NoteOnEvent(tick=0, channel=9, data=[49, 95]),
   midi.NoteOnEvent(tick=0, channel=9, data=[38, 95]),
   midi.NoteOnEvent(tick=0, channel=9, data=[35, 95]),
   midi.NoteOffEvent(tick=480, channel=9, data=[49, 95]),
   midi.NoteOffEvent(tick=0, channel=9, data=[38, 95]),
   midi.NoteOffEvent(tick=0, channel=9, data=[35, 95]),
   midi.NoteOnEvent(tick=0, channel=9, data=[51, 95]),
   midi.NoteOnEvent(tick=0, channel=9, data=[35, 95]),
   midi.NoteOffEvent(tick=480, channel=9, data=[51, 95]),
   midi.NoteOffEvent(tick=0, channel=9, data=[35, 95]),
   midi.NoteOnEvent(tick=0, channel=9, data=[35, 95]),
   midi.NoteOffEvent(tick=480, channel=9, data=[35, 95]),
   midi.NoteOnEvent(tick=0, channel=9, data=[51, 95]),
   midi.NoteOnEvent(tick=0, channel=9, data=[35, 95]),
   midi.NoteOffEvent(tick=480, channel=9, data=[51, 95]),
   midi.NoteOffEvent(tick=0, channel=9, data=[35, 95]),
   midi.NoteOnEvent(tick=0, channel=9, data=[51, 95]),
   midi.NoteOnEvent(tick=0, channel=9, data=[35, 95]),
   midi.NoteOffEvent(tick=480, channel=9, data=[51, 95]),
   midi.NoteOffEvent(tick=0, channel=9, data=[35, 95]),
   midi.NoteOnEvent(tick=0, channel=9, data=[35, 95]),
   midi.NoteOffEvent(tick=480, channel=9, data=[35, 95]),
   midi.NoteOnEvent(tick=0, channel=9, data=[51, 95]),
   midi.NoteOnEvent(tick=0, channel=9, data=[35, 95]),
   midi.NoteOffEvent(tick=480, channel=9, data=[51, 95]),
   midi.NoteOffEvent(tick=0, channel=9, data=[35, 95]),
   midi.NoteOnEvent(tick=0, channel=9, data=[35, 95]),
   midi.NoteOffEvent(tick=480, channel=9, data=[35, 95]),
   midi.NoteOnEvent(tick=0, channel=9, data=[51, 95]),
   midi.NoteOnEvent(tick=0, channel=9, data=[35, 95]),
   midi.NoteOffEvent(tick=480, channel=9, data=[51, 95]),
   midi.NoteOffEvent(tick=0, channel=9, data=[35, 95]),
   midi.NoteOnEvent(tick=0, channel=9, data=[35, 95]),
   midi.NoteOffEvent(tick=480, channel=9, data=[35, 95]),
   midi.NoteOnEvent(tick=0, channel=9, data=[38, 95]),
   midi.NoteOnEvent(tick=0, channel=9, data=[49, 95]),
   midi.NoteOnEvent(tick=0, channel=9, data=[35, 95]),
   midi.NoteOffEvent(tick=480, channel=9, data=[38, 95]),
   midi.NoteOffEvent(tick=0, channel=9, data=[49, 95]),
   midi.NoteOffEvent(tick=0, channel=9, data=[35, 95]),
   midi.NoteOnEvent(tick=0, channel=9, data=[51, 95]),
   midi.NoteOnEvent(tick=0, channel=9, data=[35, 95]),
   midi.NoteOffEvent(tick=480, channel=9, data=[51, 95]),
   midi.NoteOffEvent(tick=0, channel=9, data=[35, 95]),
   midi.NoteOnEvent(tick=0, channel=9, data=[51, 95]),
   midi.NoteOnEvent(tick=0, channel=9, data=[35, 95]),
   midi.NoteOffEvent(tick=480, channel=9, data=[51, 95]),
   midi.NoteOffEvent(tick=0, channel=9, data=[35, 95]),
   midi.NoteOnEvent(tick=0, channel=9, data=[35, 95]),
   midi.NoteOffEvent(tick=480, channel=9, data=[35, 95]),
   midi.NoteOnEvent(tick=0, channel=9, data=[51, 95]),
   midi.NoteOnEvent(tick=0, channel=9, data=[35, 95]),
   midi.NoteOffEvent(tick=480, channel=9, data=[51, 95]),
   midi.NoteOffEvent(tick=0, channel=9, data=[35, 95]),
   midi.NoteOnEvent(tick=0, channel=9, data=[35, 95]),
   midi.NoteOffEvent(tick=480, channel=9, data=[35, 95]),
   midi.NoteOnEvent(tick=0, channel=9, data=[49, 95]),
   midi.NoteOnEvent(tick=0, channel=9, data=[38, 95]),
   midi.NoteOnEvent(tick=0, channel=9, data=[35, 95]),
   midi.NoteOffEvent(tick=480, channel=9, data=[49, 95]),
   midi.NoteOffEvent(tick=0, channel=9, data=[38, 95]),
   midi.NoteOffEvent(tick=0, channel=9, data=[35, 95]),
   midi.NoteOnEvent(tick=0, channel=9, data=[51, 95]),
   midi.NoteOnEvent(tick=0, channel=9, data=[35, 95]),
   midi.NoteOffEvent(tick=480, channel=9, data=[51, 95]),
   midi.NoteOffEvent(tick=0, channel=9, data=[35, 95]),
   midi.NoteOnEvent(tick=0, channel=9, data=[35, 95]),
   midi.NoteOffEvent(tick=480, channel=9, data=[35, 95]),
   midi.NoteOnEvent(tick=0, channel=9, data=[51, 95]),
   midi.NoteOnEvent(tick=0, channel=9, data=[35, 95]),
   midi.NoteOffEvent(tick=480, channel=9, data=[51, 95]),
   midi.NoteOffEvent(tick=0, channel=9, data=[35, 95]),
   midi.NoteOnEvent(tick=0, channel=9, data=[51, 95]),
   midi.NoteOnEvent(tick=0, channel=9, data=[35, 95]),
   midi.NoteOffEvent(tick=480, channel=9, data=[51, 95]),
   midi.NoteOffEvent(tick=0, channel=9, data=[35, 95]),
   midi.NoteOnEvent(tick=0, channel=9, data=[35, 95]),
   midi.NoteOffEvent(tick=480, channel=9, data=[35, 95]),
   midi.NoteOnEvent(tick=0, channel=9, data=[51, 95]),
   midi.NoteOnEvent(tick=0, channel=9, data=[35, 95]),
   midi.NoteOffEvent(tick=480, channel=9, data=[51, 95]),
   midi.NoteOffEvent(tick=0, channel=9, data=[35, 95]),
   midi.NoteOnEvent(tick=0, channel=9, data=[35, 95]),
   midi.NoteOffEvent(tick=480, channel=9, data=[35, 95]),
   midi.NoteOnEvent(tick=0, channel=9, data=[51, 95]),
   midi.NoteOnEvent(tick=0, channel=9, data=[35, 95]),
   midi.NoteOffEvent(tick=480, channel=9, data=[51, 95]),
   midi.NoteOffEvent(tick=0, channel=9, data=[35, 95]),
   midi.NoteOnEvent(tick=0, channel=9, data=[35, 95]),
   midi.NoteOffEvent(tick=480, channel=9, data=[35, 95]),
   midi.NoteOnEvent(tick=0, channel=9, data=[38, 95]),
   midi.NoteOnEvent(tick=0, channel=9, data=[49, 95]),
   midi.NoteOnEvent(tick=0, channel=9, data=[35, 95]),
   midi.NoteOffEvent(tick=480, channel=9, data=[38, 95]),
   midi.NoteOffEvent(tick=0, channel=9, data=[49, 95]),
   midi.NoteOffEvent(tick=0, channel=9, data=[35, 95]),
   midi.NoteOnEvent(tick=0, channel=9, data=[51, 95]),
   midi.NoteOnEvent(tick=0, channel=9, data=[35, 95]),
   midi.NoteOffEvent(tick=480, channel=9, data=[51, 95]),
   midi.NoteOffEvent(tick=0, channel=9, data=[35, 95]),
   midi.NoteOnEvent(tick=0, channel=9, data=[51, 95]),
   midi.NoteOnEvent(tick=0, channel=9, data=[35, 95]),
   midi.NoteOffEvent(tick=480, channel=9, data=[51, 95]),
   midi.NoteOffEvent(tick=0, channel=9, data=[35, 95]),
   midi.NoteOnEvent(tick=0, channel=9, data=[35, 95]),
   midi.NoteOffEvent(tick=480, channel=9, data=[35, 95]),
   midi.NoteOnEvent(tick=0, channel=9, data=[51, 95]),
   midi.NoteOnEvent(tick=0, channel=9, data=[35, 95]),
   midi.NoteOffEvent(tick=480, channel=9, data=[51, 95]),
   midi.NoteOffEvent(tick=0, channel=9, data=[35, 95]),
   midi.NoteOnEvent(tick=0, channel=9, data=[35, 95]),
   midi.NoteOffEvent(tick=480, channel=9, data=[35, 95]),
   midi.NoteOnEvent(tick=0, channel=9, data=[49, 95]),
   midi.NoteOnEvent(tick=0, channel=9, data=[38, 95]),
   midi.NoteOnEvent(tick=0, channel=9, data=[35, 95]),
   midi.NoteOffEvent(tick=480, channel=9, data=[49, 95]),
   midi.NoteOffEvent(tick=0, channel=9, data=[38, 95]),
   midi.NoteOffEvent(tick=0, channel=9, data=[35, 95]),
   midi.NoteOnEvent(tick=0, channel=9, data=[51, 95]),
   midi.NoteOnEvent(tick=0, channel=9, data=[35, 95]),
   midi.NoteOffEvent(tick=480, channel=9, data=[51, 95]),
   midi.NoteOffEvent(tick=0, channel=9, data=[35, 95]),
   midi.NoteOnEvent(tick=0, channel=9, data=[35, 95]),
   midi.NoteOffEvent(tick=480, channel=9, data=[35, 95]),
   midi.NoteOnEvent(tick=0, channel=9, data=[51, 95]),
   midi.NoteOnEvent(tick=0, channel=9, data=[35, 95]),
   midi.NoteOffEvent(tick=480, channel=9, data=[51, 95]),
   midi.NoteOffEvent(tick=0, channel=9, data=[35, 95]),
   midi.NoteOnEvent(tick=0, channel=9, data=[51, 95]),
   midi.NoteOnEvent(tick=0, channel=9, data=[35, 95]),
   midi.NoteOffEvent(tick=480, channel=9, data=[51, 95]),
   midi.NoteOffEvent(tick=0, channel=9, data=[35, 95]),
   midi.NoteOnEvent(tick=0, channel=9, data=[35, 95]),
   midi.NoteOffEvent(tick=480, channel=9, data=[35, 95]),
   midi.NoteOnEvent(tick=0, channel=9, data=[51, 95]),
   midi.NoteOnEvent(tick=0, channel=9, data=[35, 95]),
   midi.NoteOffEvent(tick=480, channel=9, data=[51, 95]),
   midi.NoteOffEvent(tick=0, channel=9, data=[35, 95]),
   midi.NoteOnEvent(tick=0, channel=9, data=[35, 95]),
   midi.NoteOffEvent(tick=480, channel=9, data=[35, 95]),
   midi.NoteOnEvent(tick=0, channel=9, data=[51, 95]),
   midi.NoteOnEvent(tick=0, channel=9, data=[35, 95]),
   midi.NoteOffEvent(tick=480, channel=9, data=[51, 95]),
   midi.NoteOffEvent(tick=0, channel=9, data=[35, 95]),
   midi.NoteOnEvent(tick=0, channel=9, data=[35, 95]),
   midi.NoteOffEvent(tick=480, channel=9, data=[35, 95]),
   midi.NoteOnEvent(tick=0, channel=9, data=[38, 95]),
   midi.NoteOnEvent(tick=0, channel=9, data=[49, 95]),
   midi.NoteOnEvent(tick=0, channel=9, data=[35, 95]),
   midi.NoteOffEvent(tick=480, channel=9, data=[38, 95]),
   midi.NoteOffEvent(tick=0, channel=9, data=[49, 95]),
   midi.NoteOffEvent(tick=0, channel=9, data=[35, 95]),
   midi.NoteOnEvent(tick=0, channel=9, data=[51, 95]),
   midi.NoteOnEvent(tick=0, channel=9, data=[35, 95]),
   midi.NoteOffEvent(tick=480, channel=9, data=[51, 95]),
   midi.NoteOffEvent(tick=0, channel=9, data=[35, 95]),
   midi.NoteOnEvent(tick=0, channel=9, data=[51, 95]),
   midi.NoteOnEvent(tick=0, channel=9, data=[35, 95]),
   midi.NoteOffEvent(tick=480, channel=9, data=[51, 95]),
   midi.NoteOffEvent(tick=0, channel=9, data=[35, 95]),
   midi.NoteOnEvent(tick=0, channel=9, data=[35, 95]),
   midi.NoteOffEvent(tick=480, channel=9, data=[35, 95]),
   midi.NoteOnEvent(tick=0, channel=9, data=[51, 95]),
   midi.NoteOnEvent(tick=0, channel=9, data=[35, 95]),
   midi.NoteOffEvent(tick=480, channel=9, data=[51, 95]),
   midi.NoteOffEvent(tick=0, channel=9, data=[35, 95]),
   midi.NoteOnEvent(tick=0, channel=9, data=[35, 95]),
   midi.NoteOffEvent(tick=480, channel=9, data=[35, 95]),
   midi.NoteOnEvent(tick=0, channel=9, data=[49, 95]),
   midi.NoteOnEvent(tick=0, channel=9, data=[38, 95]),
   midi.NoteOnEvent(tick=0, channel=9, data=[35, 95]),
   midi.NoteOffEvent(tick=480, channel=9, data=[49, 95]),
   midi.NoteOffEvent(tick=0, channel=9, data=[38, 95]),
   midi.NoteOffEvent(tick=0, channel=9, data=[35, 95]),
   midi.NoteOnEvent(tick=0, channel=9, data=[51, 95]),
   midi.NoteOnEvent(tick=0, channel=9, data=[35, 95]),
   midi.NoteOffEvent(tick=480, channel=9, data=[51, 95]),
   midi.NoteOffEvent(tick=0, channel=9, data=[35, 95]),
   midi.NoteOnEvent(tick=0, channel=9, data=[35, 95]),
   midi.NoteOffEvent(tick=480, channel=9, data=[35, 95]),
   midi.NoteOnEvent(tick=0, channel=9, data=[51, 95]),
   midi.NoteOnEvent(tick=0, channel=9, data=[35, 95]),
   midi.NoteOffEvent(tick=480, channel=9, data=[51, 95]),
   midi.NoteOffEvent(tick=0, channel=9, data=[35, 95]),
   midi.NoteOnEvent(tick=0, channel=9, data=[51, 95]),
   midi.NoteOnEvent(tick=0, channel=9, data=[35, 95]),
   midi.NoteOffEvent(tick=480, channel=9, data=[51, 95]),
   midi.NoteOffEvent(tick=0, channel=9, data=[35, 95]),
   midi.NoteOnEvent(tick=0, channel=9, data=[35, 95]),
   midi.NoteOffEvent(tick=480, channel=9, data=[35, 95]),
   midi.NoteOnEvent(tick=0, channel=9, data=[51, 95]),
   midi.NoteOnEvent(tick=0, channel=9, data=[35, 95]),
   midi.NoteOffEvent(tick=480, channel=9, data=[51, 95]),
   midi.NoteOffEvent(tick=0, channel=9, data=[35, 95]),
   midi.NoteOnEvent(tick=0, channel=9, data=[35, 95]),
   midi.NoteOffEvent(tick=480, channel=9, data=[35, 95]),
   midi.NoteOnEvent(tick=0, channel=9, data=[51, 95]),
   midi.NoteOnEvent(tick=0, channel=9, data=[35, 95]),
   midi.NoteOffEvent(tick=480, channel=9, data=[51, 95]),
   midi.NoteOffEvent(tick=0, channel=9, data=[35, 95]),
   midi.NoteOnEvent(tick=0, channel=9, data=[35, 95]),
   midi.NoteOffEvent(tick=480, channel=9, data=[35, 95]),
   midi.NoteOnEvent(tick=0, channel=9, data=[38, 95]),
   midi.NoteOnEvent(tick=0, channel=9, data=[49, 95]),
   midi.NoteOnEvent(tick=0, channel=9, data=[35, 95]),
   midi.NoteOffEvent(tick=480, channel=9, data=[38, 95]),
   midi.NoteOffEvent(tick=0, channel=9, data=[49, 95]),
   midi.NoteOffEvent(tick=0, channel=9, data=[35, 95]),
   midi.NoteOnEvent(tick=0, channel=9, data=[51, 95]),
   midi.NoteOnEvent(tick=0, channel=9, data=[35, 95]),
   midi.NoteOffEvent(tick=480, channel=9, data=[51, 95]),
   midi.NoteOffEvent(tick=0, channel=9, data=[35, 95]),
   midi.NoteOnEvent(tick=0, channel=9, data=[51, 95]),
   midi.NoteOnEvent(tick=0, channel=9, data=[35, 95]),
   midi.NoteOffEvent(tick=480, channel=9, data=[51, 95]),
   midi.NoteOffEvent(tick=0, channel=9, data=[35, 95]),
   midi.NoteOnEvent(tick=0, channel=9, data=[35, 95]),
   midi.NoteOffEvent(tick=480, channel=9, data=[35, 95]),
   midi.NoteOnEvent(tick=0, channel=9, data=[51, 95]),
   midi.NoteOnEvent(tick=0, channel=9, data=[35, 95]),
   midi.NoteOffEvent(tick=480, channel=9, data=[51, 95]),
   midi.NoteOffEvent(tick=0, channel=9, data=[35, 95]),
   midi.NoteOnEvent(tick=0, channel=9, data=[35, 95]),
   midi.NoteOffEvent(tick=480, channel=9, data=[35, 95]),
   midi.NoteOnEvent(tick=0, channel=9, data=[49, 95]),
   midi.NoteOnEvent(tick=0, channel=9, data=[38, 95]),
   midi.NoteOnEvent(tick=0, channel=9, data=[35, 95]),
   midi.NoteOffEvent(tick=480, channel=9, data=[49, 95]),
   midi.NoteOffEvent(tick=0, channel=9, data=[38, 95]),
   midi.NoteOffEvent(tick=0, channel=9, data=[35, 95]),
   midi.NoteOnEvent(tick=0, channel=9, data=[51, 95]),
   midi.NoteOnEvent(tick=0, channel=9, data=[35, 95]),
   midi.NoteOffEvent(tick=480, channel=9, data=[51, 95]),
   midi.NoteOffEvent(tick=0, channel=9, data=[35, 95]),
   midi.NoteOnEvent(tick=0, channel=9, data=[35, 95]),
   midi.NoteOffEvent(tick=480, channel=9, data=[35, 95]),
   midi.NoteOnEvent(tick=0, channel=9, data=[51, 95]),
   midi.NoteOnEvent(tick=0, channel=9, data=[35, 95]),
   midi.NoteOffEvent(tick=480, channel=9, data=[51, 95]),
   midi.NoteOffEvent(tick=0, channel=9, data=[35, 95]),
   midi.NoteOnEvent(tick=0, channel=9, data=[51, 95]),
   midi.NoteOnEvent(tick=0, channel=9, data=[35, 95]),
   midi.NoteOffEvent(tick=480, channel=9, data=[51, 95]),
   midi.NoteOffEvent(tick=0, channel=9, data=[35, 95]),
   midi.NoteOnEvent(tick=0, channel=9, data=[35, 95]),
   midi.NoteOffEvent(tick=480, channel=9, data=[35, 95]),
   midi.NoteOnEvent(tick=0, channel=9, data=[51, 95]),
   midi.NoteOnEvent(tick=0, channel=9, data=[35, 95]),
   midi.NoteOffEvent(tick=480, channel=9, data=[51, 95]),
   midi.NoteOffEvent(tick=0, channel=9, data=[35, 95]),
   midi.NoteOnEvent(tick=0, channel=9, data=[35, 95]),
   midi.NoteOffEvent(tick=480, channel=9, data=[35, 95]),
   midi.NoteOnEvent(tick=0, channel=9, data=[51, 95]),
   midi.NoteOnEvent(tick=0, channel=9, data=[35, 95]),
   midi.NoteOffEvent(tick=480, channel=9, data=[51, 95]),
   midi.NoteOffEvent(tick=0, channel=9, data=[35, 95]),
   midi.NoteOnEvent(tick=0, channel=9, data=[35, 95]),
   midi.NoteOffEvent(tick=480, channel=9, data=[35, 95]),
   midi.NoteOnEvent(tick=0, channel=9, data=[38, 95]),
   midi.NoteOnEvent(tick=0, channel=9, data=[49, 95]),
   midi.NoteOnEvent(tick=0, channel=9, data=[35, 95]),
   midi.NoteOffEvent(tick=480, channel=9, data=[38, 95]),
   midi.NoteOffEvent(tick=0, channel=9, data=[49, 95]),
   midi.NoteOffEvent(tick=0, channel=9, data=[35, 95]),
   midi.NoteOnEvent(tick=0, channel=9, data=[51, 95]),
   midi.NoteOnEvent(tick=0, channel=9, data=[35, 95]),
   midi.NoteOffEvent(tick=480, channel=9, data=[51, 95]),
   midi.NoteOffEvent(tick=0, channel=9, data=[35, 95]),
   midi.NoteOnEvent(tick=0, channel=9, data=[51, 95]),
   midi.NoteOnEvent(tick=0, channel=9, data=[35, 95]),
   midi.NoteOffEvent(tick=480, channel=9, data=[51, 95]),
   midi.NoteOffEvent(tick=0, channel=9, data=[35, 95]),
   midi.NoteOnEvent(tick=0, channel=9, data=[35, 95]),
   midi.NoteOffEvent(tick=480, channel=9, data=[35, 95]),
   midi.NoteOnEvent(tick=0, channel=9, data=[51, 95]),
   midi.NoteOnEvent(tick=0, channel=9, data=[35, 95]),
   midi.NoteOffEvent(tick=480, channel=9, data=[51, 95]),
   midi.NoteOffEvent(tick=0, channel=9, data=[35, 95]),
   midi.NoteOnEvent(tick=0, channel=9, data=[35, 95]),
   midi.NoteOffEvent(tick=480, channel=9, data=[35, 95]),
   midi.NoteOnEvent(tick=0, channel=9, data=[49, 95]),
   midi.NoteOnEvent(tick=0, channel=9, data=[38, 95]),
   midi.NoteOnEvent(tick=0, channel=9, data=[35, 95]),
   midi.NoteOffEvent(tick=480, channel=9, data=[49, 95]),
   midi.NoteOffEvent(tick=0, channel=9, data=[38, 95]),
   midi.NoteOffEvent(tick=0, channel=9, data=[35, 95]),
   midi.NoteOnEvent(tick=0, channel=9, data=[51, 95]),
   midi.NoteOnEvent(tick=0, channel=9, data=[35, 95]),
   midi.NoteOffEvent(tick=480, channel=9, data=[51, 95]),
   midi.NoteOffEvent(tick=0, channel=9, data=[35, 95]),
   midi.NoteOnEvent(tick=0, channel=9, data=[35, 95]),
   midi.NoteOffEvent(tick=480, channel=9, data=[35, 95]),
   midi.NoteOnEvent(tick=0, channel=9, data=[51, 95]),
   midi.NoteOnEvent(tick=0, channel=9, data=[35, 95]),
   midi.NoteOffEvent(tick=480, channel=9, data=[51, 95]),
   midi.NoteOffEvent(tick=0, channel=9, data=[35, 95]),
   midi.NoteOnEvent(tick=0, channel=9, data=[51, 95]),
   midi.NoteOnEvent(tick=0, channel=9, data=[35, 95]),
   midi.NoteOffEvent(tick=480, channel=9, data=[51, 95]),
   midi.NoteOffEvent(tick=0, channel=9, data=[35, 95]),
   midi.NoteOnEvent(tick=0, channel=9, data=[35, 95]),
   midi.NoteOffEvent(tick=480, channel=9, data=[35, 95]),
   midi.NoteOnEvent(tick=0, channel=9, data=[51, 95]),
   midi.NoteOnEvent(tick=0, channel=9, data=[35, 95]),
   midi.NoteOffEvent(tick=480, channel=9, data=[51, 95]),
   midi.NoteOffEvent(tick=0, channel=9, data=[35, 95]),
   midi.NoteOnEvent(tick=0, channel=9, data=[35, 95]),
   midi.NoteOffEvent(tick=480, channel=9, data=[35, 95]),
   midi.NoteOnEvent(tick=0, channel=9, data=[51, 95]),
   midi.NoteOnEvent(tick=0, channel=9, data=[35, 95]),
   midi.NoteOffEvent(tick=480, channel=9, data=[51, 95]),
   midi.NoteOffEvent(tick=0, channel=9, data=[35, 95]),
   midi.NoteOnEvent(tick=0, channel=9, data=[35, 95]),
   midi.NoteOffEvent(tick=480, channel=9, data=[35, 95]),
   midi.NoteOnEvent(tick=0, channel=9, data=[38, 95]),
   midi.NoteOnEvent(tick=0, channel=9, data=[49, 95]),
   midi.NoteOnEvent(tick=0, channel=9, data=[35, 95]),
   midi.NoteOffEvent(tick=480, channel=9, data=[38, 95]),
   midi.NoteOffEvent(tick=0, channel=9, data=[49, 95]),
   midi.NoteOffEvent(tick=0, channel=9, data=[35, 95]),
   midi.NoteOnEvent(tick=0, channel=9, data=[51, 95]),
   midi.NoteOnEvent(tick=0, channel=9, data=[35, 95]),
   midi.NoteOffEvent(tick=480, channel=9, data=[51, 95]),
   midi.NoteOffEvent(tick=0, channel=9, data=[35, 95]),
   midi.NoteOnEvent(tick=0, channel=9, data=[51, 95]),
   midi.NoteOnEvent(tick=0, channel=9, data=[35, 95]),
   midi.NoteOffEvent(tick=480, channel=9, data=[51, 95]),
   midi.NoteOffEvent(tick=0, channel=9, data=[35, 95]),
   midi.NoteOnEvent(tick=0, channel=9, data=[35, 95]),
   midi.NoteOffEvent(tick=480, channel=9, data=[35, 95]),
   midi.NoteOnEvent(tick=0, channel=9, data=[51, 95]),
   midi.NoteOnEvent(tick=0, channel=9, data=[35, 95]),
   midi.NoteOffEvent(tick=480, channel=9, data=[51, 95]),
   midi.NoteOffEvent(tick=0, channel=9, data=[35, 95]),
   midi.NoteOnEvent(tick=0, channel=9, data=[35, 95]),
   midi.NoteOffEvent(tick=480, channel=9, data=[35, 95]),
   midi.NoteOnEvent(tick=0, channel=9, data=[49, 95]),
   midi.NoteOnEvent(tick=0, channel=9, data=[38, 95]),
   midi.NoteOnEvent(tick=0, channel=9, data=[35, 95]),
   midi.NoteOffEvent(tick=480, channel=9, data=[49, 95]),
   midi.NoteOffEvent(tick=0, channel=9, data=[38, 95]),
   midi.NoteOffEvent(tick=0, channel=9, data=[35, 95]),
   midi.NoteOnEvent(tick=0, channel=9, data=[51, 95]),
   midi.NoteOnEvent(tick=0, channel=9, data=[35, 95]),
   midi.NoteOffEvent(tick=480, channel=9, data=[51, 95]),
   midi.NoteOffEvent(tick=0, channel=9, data=[35, 95]),
   midi.NoteOnEvent(tick=0, channel=9, data=[35, 95]),
   midi.NoteOffEvent(tick=480, channel=9, data=[35, 95]),
   midi.NoteOnEvent(tick=0, channel=9, data=[51, 95]),
   midi.NoteOnEvent(tick=0, channel=9, data=[35, 95]),
   midi.NoteOffEvent(tick=480, channel=9, data=[51, 95]),
   midi.NoteOffEvent(tick=0, channel=9, data=[35, 95]),
   midi.NoteOnEvent(tick=0, channel=9, data=[51, 95]),
   midi.NoteOnEvent(tick=0, channel=9, data=[35, 95]),
   midi.NoteOffEvent(tick=480, channel=9, data=[51, 95]),
   midi.NoteOffEvent(tick=0, channel=9, data=[35, 95]),
   midi.NoteOnEvent(tick=0, channel=9, data=[35, 95]),
   midi.NoteOffEvent(tick=480, channel=9, data=[35, 95]),
   midi.NoteOnEvent(tick=0, channel=9, data=[51, 95]),
   midi.NoteOnEvent(tick=0, channel=9, data=[35, 95]),
   midi.NoteOffEvent(tick=480, channel=9, data=[51, 95]),
   midi.NoteOffEvent(tick=0, channel=9, data=[35, 95]),
   midi.NoteOnEvent(tick=0, channel=9, data=[35, 95]),
   midi.NoteOffEvent(tick=480, channel=9, data=[35, 95]),
   midi.NoteOnEvent(tick=0, channel=9, data=[51, 95]),
   midi.NoteOnEvent(tick=0, channel=9, data=[35, 95]),
   midi.NoteOffEvent(tick=480, channel=9, data=[51, 95]),
   midi.NoteOffEvent(tick=0, channel=9, data=[35, 95]),
   midi.NoteOnEvent(tick=0, channel=9, data=[35, 95]),
   midi.NoteOffEvent(tick=480, channel=9, data=[35, 95]),
   midi.NoteOnEvent(tick=0, channel=9, data=[38, 95]),
   midi.NoteOnEvent(tick=0, channel=9, data=[49, 95]),
   midi.NoteOnEvent(tick=0, channel=9, data=[35, 95]),
   midi.NoteOffEvent(tick=480, channel=9, data=[38, 95]),
   midi.NoteOffEvent(tick=0, channel=9, data=[49, 95]),
   midi.NoteOffEvent(tick=0, channel=9, data=[35, 95]),
   midi.NoteOnEvent(tick=0, channel=9, data=[51, 95]),
   midi.NoteOnEvent(tick=0, channel=9, data=[35, 95]),
   midi.NoteOffEvent(tick=480, channel=9, data=[51, 95]),
   midi.NoteOffEvent(tick=0, channel=9, data=[35, 95]),
   midi.NoteOnEvent(tick=0, channel=9, data=[51, 95]),
   midi.NoteOnEvent(tick=0, channel=9, data=[35, 95]),
   midi.NoteOffEvent(tick=480, channel=9, data=[51, 95]),
   midi.NoteOffEvent(tick=0, channel=9, data=[35, 95]),
   midi.NoteOnEvent(tick=0, channel=9, data=[35, 95]),
   midi.NoteOffEvent(tick=480, channel=9, data=[35, 95]),
   midi.NoteOnEvent(tick=0, channel=9, data=[51, 95]),
   midi.NoteOnEvent(tick=0, channel=9, data=[35, 95]),
   midi.NoteOffEvent(tick=480, channel=9, data=[51, 95]),
   midi.NoteOffEvent(tick=0, channel=9, data=[35, 95]),
   midi.NoteOnEvent(tick=0, channel=9, data=[35, 95]),
   midi.NoteOffEvent(tick=480, channel=9, data=[35, 95]),
   midi.NoteOnEvent(tick=0, channel=9, data=[49, 95]),
   midi.NoteOnEvent(tick=0, channel=9, data=[38, 95]),
   midi.NoteOnEvent(tick=0, channel=9, data=[35, 95]),
   midi.NoteOffEvent(tick=480, channel=9, data=[49, 95]),
   midi.NoteOffEvent(tick=0, channel=9, data=[38, 95]),
   midi.NoteOffEvent(tick=0, channel=9, data=[35, 95]),
   midi.NoteOnEvent(tick=0, channel=9, data=[51, 95]),
   midi.NoteOnEvent(tick=0, channel=9, data=[35, 95]),
   midi.NoteOffEvent(tick=480, channel=9, data=[51, 95]),
   midi.NoteOffEvent(tick=0, channel=9, data=[35, 95]),
   midi.NoteOnEvent(tick=0, channel=9, data=[35, 95]),
   midi.NoteOffEvent(tick=480, channel=9, data=[35, 95]),
   midi.NoteOnEvent(tick=0, channel=9, data=[51, 95]),
   midi.NoteOnEvent(tick=0, channel=9, data=[35, 95]),
   midi.NoteOffEvent(tick=480, channel=9, data=[51, 95]),
   midi.NoteOffEvent(tick=0, channel=9, data=[35, 95]),
   midi.NoteOnEvent(tick=0, channel=9, data=[51, 95]),
   midi.NoteOnEvent(tick=0, channel=9, data=[35, 95]),
   midi.NoteOffEvent(tick=480, channel=9, data=[51, 95]),
   midi.NoteOffEvent(tick=0, channel=9, data=[35, 95]),
   midi.NoteOnEvent(tick=0, channel=9, data=[35, 95]),
   midi.NoteOffEvent(tick=480, channel=9, data=[35, 95]),
   midi.NoteOnEvent(tick=0, channel=9, data=[51, 95]),
   midi.NoteOnEvent(tick=0, channel=9, data=[35, 95]),
   midi.NoteOffEvent(tick=480, channel=9, data=[51, 95]),
   midi.NoteOffEvent(tick=0, channel=9, data=[35, 95]),
   midi.NoteOnEvent(tick=0, channel=9, data=[35, 95]),
   midi.NoteOffEvent(tick=480, channel=9, data=[35, 95]),
   midi.NoteOnEvent(tick=0, channel=9, data=[51, 95]),
   midi.NoteOnEvent(tick=0, channel=9, data=[35, 95]),
   midi.NoteOffEvent(tick=480, channel=9, data=[51, 95]),
   midi.NoteOffEvent(tick=0, channel=9, data=[35, 95]),
   midi.NoteOnEvent(tick=0, channel=9, data=[35, 95]),
   midi.NoteOffEvent(tick=480, channel=9, data=[35, 95]),
   midi.NoteOnEvent(tick=0, channel=9, data=[38, 95]),
   midi.NoteOnEvent(tick=0, channel=9, data=[49, 95]),
   midi.NoteOnEvent(tick=0, channel=9, data=[35, 95]),
   midi.NoteOffEvent(tick=480, channel=9, data=[38, 95]),
   midi.NoteOffEvent(tick=0, channel=9, data=[49, 95]),
   midi.NoteOffEvent(tick=0, channel=9, data=[35, 95]),
   midi.NoteOnEvent(tick=0, channel=9, data=[51, 95]),
   midi.NoteOnEvent(tick=0, channel=9, data=[35, 95]),
   midi.NoteOffEvent(tick=480, channel=9, data=[51, 95]),
   midi.NoteOffEvent(tick=0, channel=9, data=[35, 95]),
   midi.NoteOnEvent(tick=0, channel=9, data=[51, 95]),
   midi.NoteOnEvent(tick=0, channel=9, data=[35, 95]),
   midi.NoteOffEvent(tick=480, channel=9, data=[51, 95]),
   midi.NoteOffEvent(tick=0, channel=9, data=[35, 95]),
   midi.NoteOnEvent(tick=0, channel=9, data=[35, 95]),
   midi.NoteOffEvent(tick=480, channel=9, data=[35, 95]),
   midi.NoteOnEvent(tick=0, channel=9, data=[51, 95]),
   midi.NoteOnEvent(tick=0, channel=9, data=[35, 95]),
   midi.NoteOffEvent(tick=480, channel=9, data=[51, 95]),
   midi.NoteOffEvent(tick=0, channel=9, data=[35, 95]),
   midi.NoteOnEvent(tick=0, channel=9, data=[35, 95]),
   midi.NoteOffEvent(tick=480, channel=9, data=[35, 95]),
   midi.NoteOnEvent(tick=0, channel=9, data=[49, 95]),
   midi.NoteOnEvent(tick=0, channel=9, data=[38, 95]),
   midi.NoteOnEvent(tick=0, channel=9, data=[35, 95]),
   midi.NoteOffEvent(tick=480, channel=9, data=[49, 95]),
   midi.NoteOffEvent(tick=0, channel=9, data=[38, 95]),
   midi.NoteOffEvent(tick=0, channel=9, data=[35, 95]),
   midi.NoteOnEvent(tick=0, channel=9, data=[51, 95]),
   midi.NoteOnEvent(tick=0, channel=9, data=[35, 95]),
   midi.NoteOffEvent(tick=480, channel=9, data=[51, 95]),
   midi.NoteOffEvent(tick=0, channel=9, data=[35, 95]),
   midi.NoteOnEvent(tick=0, channel=9, data=[35, 95]),
   midi.NoteOffEvent(tick=480, channel=9, data=[35, 95]),
   midi.NoteOnEvent(tick=0, channel=9, data=[51, 95]),
   midi.NoteOnEvent(tick=0, channel=9, data=[35, 95]),
   midi.NoteOffEvent(tick=480, channel=9, data=[51, 95]),
   midi.NoteOffEvent(tick=0, channel=9, data=[35, 95]),
   midi.NoteOnEvent(tick=0, channel=9, data=[51, 95]),
   midi.NoteOnEvent(tick=0, channel=9, data=[35, 95]),
   midi.NoteOffEvent(tick=480, channel=9, data=[51, 95]),
   midi.NoteOffEvent(tick=0, channel=9, data=[35, 95]),
   midi.NoteOnEvent(tick=0, channel=9, data=[35, 95]),
   midi.NoteOffEvent(tick=480, channel=9, data=[35, 95]),
   midi.NoteOnEvent(tick=0, channel=9, data=[51, 95]),
   midi.NoteOnEvent(tick=0, channel=9, data=[35, 95]),
   midi.NoteOffEvent(tick=480, channel=9, data=[51, 95]),
   midi.NoteOffEvent(tick=0, channel=9, data=[35, 95]),
   midi.NoteOnEvent(tick=0, channel=9, data=[35, 95]),
   midi.NoteOffEvent(tick=480, channel=9, data=[35, 95]),
   midi.NoteOnEvent(tick=0, channel=9, data=[51, 95]),
   midi.NoteOnEvent(tick=0, channel=9, data=[35, 95]),
   midi.NoteOffEvent(tick=480, channel=9, data=[51, 95]),
   midi.NoteOffEvent(tick=0, channel=9, data=[35, 95]),
   midi.NoteOnEvent(tick=0, channel=9, data=[35, 95]),
   midi.NoteOffEvent(tick=480, channel=9, data=[35, 95]),
   midi.NoteOnEvent(tick=0, channel=9, data=[38, 95]),
   midi.NoteOnEvent(tick=0, channel=9, data=[49, 95]),
   midi.NoteOnEvent(tick=0, channel=9, data=[35, 95]),
   midi.NoteOffEvent(tick=480, channel=9, data=[38, 95]),
   midi.NoteOffEvent(tick=0, channel=9, data=[49, 95]),
   midi.NoteOffEvent(tick=0, channel=9, data=[35, 95]),
   midi.NoteOnEvent(tick=0, channel=9, data=[51, 95]),
   midi.NoteOnEvent(tick=0, channel=9, data=[35, 95]),
   midi.NoteOffEvent(tick=480, channel=9, data=[51, 95]),
   midi.NoteOffEvent(tick=0, channel=9, data=[35, 95]),
   midi.NoteOnEvent(tick=0, channel=9, data=[51, 95]),
   midi.NoteOnEvent(tick=0, channel=9, data=[35, 95]),
   midi.NoteOffEvent(tick=480, channel=9, data=[51, 95]),
   midi.NoteOffEvent(tick=0, channel=9, data=[35, 95]),
   midi.NoteOnEvent(tick=0, channel=9, data=[35, 95]),
   midi.NoteOffEvent(tick=480, channel=9, data=[35, 95]),
   midi.NoteOnEvent(tick=0, channel=9, data=[51, 95]),
   midi.NoteOnEvent(tick=0, channel=9, data=[35, 95]),
   midi.NoteOffEvent(tick=480, channel=9, data=[51, 95]),
   midi.NoteOffEvent(tick=0, channel=9, data=[35, 95]),
   midi.NoteOnEvent(tick=0, channel=9, data=[35, 95]),
   midi.NoteOffEvent(tick=480, channel=9, data=[35, 95]),
   midi.NoteOnEvent(tick=0, channel=9, data=[49, 95]),
   midi.NoteOnEvent(tick=0, channel=9, data=[38, 95]),
   midi.NoteOnEvent(tick=0, channel=9, data=[35, 95]),
   midi.NoteOffEvent(tick=480, channel=9, data=[49, 95]),
   midi.NoteOffEvent(tick=0, channel=9, data=[38, 95]),
   midi.NoteOffEvent(tick=0, channel=9, data=[35, 95]),
   midi.NoteOnEvent(tick=0, channel=9, data=[51, 95]),
   midi.NoteOnEvent(tick=0, channel=9, data=[35, 95]),
   midi.NoteOffEvent(tick=480, channel=9, data=[51, 95]),
   midi.NoteOffEvent(tick=0, channel=9, data=[35, 95]),
   midi.NoteOnEvent(tick=0, channel=9, data=[35, 95]),
   midi.NoteOffEvent(tick=480, channel=9, data=[35, 95]),
   midi.NoteOnEvent(tick=0, channel=9, data=[51, 95]),
   midi.NoteOnEvent(tick=0, channel=9, data=[35, 95]),
   midi.NoteOffEvent(tick=480, channel=9, data=[51, 95]),
   midi.NoteOffEvent(tick=0, channel=9, data=[35, 95]),
   midi.NoteOnEvent(tick=0, channel=9, data=[51, 95]),
   midi.NoteOnEvent(tick=0, channel=9, data=[35, 95]),
   midi.NoteOffEvent(tick=480, channel=9, data=[51, 95]),
   midi.NoteOffEvent(tick=0, channel=9, data=[35, 95]),
   midi.NoteOnEvent(tick=0, channel=9, data=[35, 95]),
   midi.NoteOffEvent(tick=480, channel=9, data=[35, 95]),
   midi.NoteOnEvent(tick=0, channel=9, data=[51, 95]),
   midi.NoteOnEvent(tick=0, channel=9, data=[35, 95]),
   midi.NoteOffEvent(tick=480, channel=9, data=[51, 95]),
   midi.NoteOffEvent(tick=0, channel=9, data=[35, 95]),
   midi.NoteOnEvent(tick=0, channel=9, data=[35, 95]),
   midi.NoteOffEvent(tick=480, channel=9, data=[35, 95]),
   midi.NoteOnEvent(tick=0, channel=9, data=[51, 95]),
   midi.NoteOnEvent(tick=0, channel=9, data=[35, 95]),
   midi.NoteOffEvent(tick=480, channel=9, data=[51, 95]),
   midi.NoteOffEvent(tick=0, channel=9, data=[35, 95]),
   midi.NoteOnEvent(tick=0, channel=9, data=[35, 95]),
   midi.NoteOffEvent(tick=480, channel=9, data=[35, 95]),
   midi.NoteOnEvent(tick=0, channel=9, data=[38, 95]),
   midi.NoteOnEvent(tick=0, channel=9, data=[49, 95]),
   midi.NoteOnEvent(tick=0, channel=9, data=[35, 95]),
   midi.NoteOffEvent(tick=480, channel=9, data=[38, 95]),
   midi.NoteOffEvent(tick=0, channel=9, data=[49, 95]),
   midi.NoteOffEvent(tick=0, channel=9, data=[35, 95]),
   midi.NoteOnEvent(tick=0, channel=9, data=[51, 95]),
   midi.NoteOnEvent(tick=0, channel=9, data=[35, 95]),
   midi.NoteOffEvent(tick=480, channel=9, data=[51, 95]),
   midi.NoteOffEvent(tick=0, channel=9, data=[35, 95]),
   midi.NoteOnEvent(tick=0, channel=9, data=[51, 95]),
   midi.NoteOnEvent(tick=0, channel=9, data=[35, 95]),
   midi.NoteOffEvent(tick=480, channel=9, data=[51, 95]),
   midi.NoteOffEvent(tick=0, channel=9, data=[35, 95]),
   midi.NoteOnEvent(tick=0, channel=9, data=[35, 95]),
   midi.NoteOffEvent(tick=480, channel=9, data=[35, 95]),
   midi.NoteOnEvent(tick=0, channel=9, data=[51, 95]),
   midi.NoteOnEvent(tick=0, channel=9, data=[35, 95]),
   midi.NoteOffEvent(tick=480, channel=9, data=[51, 95]),
   midi.NoteOffEvent(tick=0, channel=9, data=[35, 95]),
   midi.NoteOnEvent(tick=0, channel=9, data=[35, 95]),
   midi.NoteOffEvent(tick=480, channel=9, data=[35, 95]),
   midi.NoteOnEvent(tick=0, channel=9, data=[49, 95]),
   midi.NoteOnEvent(tick=0, channel=9, data=[38, 95]),
   midi.NoteOnEvent(tick=0, channel=9, data=[35, 95]),
   midi.NoteOffEvent(tick=480, channel=9, data=[49, 95]),
   midi.NoteOffEvent(tick=0, channel=9, data=[38, 95]),
   midi.NoteOffEvent(tick=0, channel=9, data=[35, 95]),
   midi.NoteOnEvent(tick=0, channel=9, data=[51, 95]),
   midi.NoteOnEvent(tick=0, channel=9, data=[35, 95]),
   midi.NoteOffEvent(tick=480, channel=9, data=[51, 95]),
   midi.NoteOffEvent(tick=0, channel=9, data=[35, 95]),
   midi.NoteOnEvent(tick=0, channel=9, data=[35, 95]),
   midi.NoteOffEvent(tick=480, channel=9, data=[35, 95]),
   midi.NoteOnEvent(tick=0, channel=9, data=[51, 95]),
   midi.NoteOnEvent(tick=0, channel=9, data=[35, 95]),
   midi.NoteOffEvent(tick=480, channel=9, data=[51, 95]),
   midi.NoteOffEvent(tick=0, channel=9, data=[35, 95]),
   midi.NoteOnEvent(tick=0, channel=9, data=[51, 95]),
   midi.NoteOnEvent(tick=0, channel=9, data=[35, 95]),
   midi.NoteOffEvent(tick=480, channel=9, data=[51, 95]),
   midi.NoteOffEvent(tick=0, channel=9, data=[35, 95]),
   midi.NoteOnEvent(tick=0, channel=9, data=[35, 95]),
   midi.NoteOffEvent(tick=480, channel=9, data=[35, 95]),
   midi.NoteOnEvent(tick=0, channel=9, data=[51, 95]),
   midi.NoteOnEvent(tick=0, channel=9, data=[35, 95]),
   midi.NoteOffEvent(tick=480, channel=9, data=[51, 95]),
   midi.NoteOffEvent(tick=0, channel=9, data=[35, 95]),
   midi.NoteOnEvent(tick=0, channel=9, data=[35, 95]),
   midi.NoteOffEvent(tick=480, channel=9, data=[35, 95]),
   midi.NoteOnEvent(tick=0, channel=9, data=[51, 95]),
   midi.NoteOnEvent(tick=0, channel=9, data=[35, 95]),
   midi.NoteOffEvent(tick=480, channel=9, data=[51, 95]),
   midi.NoteOffEvent(tick=0, channel=9, data=[35, 95]),
   midi.NoteOnEvent(tick=0, channel=9, data=[35, 95]),
   midi.NoteOffEvent(tick=480, channel=9, data=[35, 95]),
   midi.NoteOnEvent(tick=0, channel=9, data=[38, 95]),
   midi.NoteOnEvent(tick=0, channel=9, data=[49, 95]),
   midi.NoteOnEvent(tick=0, channel=9, data=[35, 95]),
   midi.NoteOffEvent(tick=480, channel=9, data=[38, 95]),
   midi.NoteOffEvent(tick=0, channel=9, data=[49, 95]),
   midi.NoteOffEvent(tick=0, channel=9, data=[35, 95]),
   midi.NoteOnEvent(tick=0, channel=9, data=[51, 95]),
   midi.NoteOnEvent(tick=0, channel=9, data=[35, 95]),
   midi.NoteOffEvent(tick=480, channel=9, data=[51, 95]),
   midi.NoteOffEvent(tick=0, channel=9, data=[35, 95]),
   midi.NoteOnEvent(tick=0, channel=9, data=[51, 95]),
   midi.NoteOnEvent(tick=0, channel=9, data=[35, 95]),
   midi.NoteOffEvent(tick=480, channel=9, data=[51, 95]),
   midi.NoteOffEvent(tick=0, channel=9, data=[35, 95]),
   midi.NoteOnEvent(tick=0, channel=9, data=[35, 95]),
   midi.NoteOffEvent(tick=480, channel=9, data=[35, 95]),
   midi.NoteOnEvent(tick=0, channel=9, data=[51, 95]),
   midi.NoteOnEvent(tick=0, channel=9, data=[35, 95]),
   midi.NoteOffEvent(tick=480, channel=9, data=[51, 95]),
   midi.NoteOffEvent(tick=0, channel=9, data=[35, 95]),
   midi.NoteOnEvent(tick=0, channel=9, data=[35, 95]),
   midi.NoteOffEvent(tick=480, channel=9, data=[35, 95]),
   midi.NoteOnEvent(tick=0, channel=9, data=[49, 95]),
   midi.NoteOnEvent(tick=0, channel=9, data=[38, 95]),
   midi.NoteOnEvent(tick=0, channel=9, data=[35, 95]),
   midi.NoteOffEvent(tick=480, channel=9, data=[49, 95]),
   midi.NoteOffEvent(tick=0, channel=9, data=[38, 95]),
   midi.NoteOffEvent(tick=0, channel=9, data=[35, 95]),
   midi.NoteOnEvent(tick=0, channel=9, data=[51, 95]),
   midi.NoteOnEvent(tick=0, channel=9, data=[35, 95]),
   midi.NoteOffEvent(tick=480, channel=9, data=[51, 95]),
   midi.NoteOffEvent(tick=0, channel=9, data=[35, 95]),
   midi.NoteOnEvent(tick=0, channel=9, data=[35, 95]),
   midi.NoteOffEvent(tick=480, channel=9, data=[35, 95]),
   midi.NoteOnEvent(tick=0, channel=9, data=[51, 95]),
   midi.NoteOnEvent(tick=0, channel=9, data=[35, 95]),
   midi.NoteOffEvent(tick=480, channel=9, data=[51, 95]),
   midi.NoteOffEvent(tick=0, channel=9, data=[35, 95]),
   midi.NoteOnEvent(tick=0, channel=9, data=[51, 95]),
   midi.NoteOnEvent(tick=0, channel=9, data=[35, 95]),
   midi.NoteOffEvent(tick=480, channel=9, data=[51, 95]),
   midi.NoteOffEvent(tick=0, channel=9, data=[35, 95]),
   midi.NoteOnEvent(tick=0, channel=9, data=[35, 95]),
   midi.NoteOffEvent(tick=480, channel=9, data=[35, 95]),
   midi.NoteOnEvent(tick=0, channel=9, data=[51, 95]),
   midi.NoteOnEvent(tick=0, channel=9, data=[35, 95]),
   midi.NoteOffEvent(tick=480, channel=9, data=[51, 95]),
   midi.NoteOffEvent(tick=0, channel=9, data=[35, 95]),
   midi.NoteOnEvent(tick=0, channel=9, data=[35, 95]),
   midi.NoteOffEvent(tick=480, channel=9, data=[35, 95]),
   midi.NoteOnEvent(tick=0, channel=9, data=[51, 95]),
   midi.NoteOnEvent(tick=0, channel=9, data=[35, 95]),
   midi.NoteOffEvent(tick=480, channel=9, data=[51, 95]),
   midi.NoteOffEvent(tick=0, channel=9, data=[35, 95]),
   midi.NoteOnEvent(tick=0, channel=9, data=[35, 95]),
   midi.NoteOffEvent(tick=480, channel=9, data=[35, 95]),
   midi.NoteOnEvent(tick=0, channel=9, data=[38, 95]),
   midi.NoteOnEvent(tick=0, channel=9, data=[49, 95]),
   midi.NoteOnEvent(tick=0, channel=9, data=[35, 95]),
   midi.NoteOffEvent(tick=480, channel=9, data=[38, 95]),
   midi.NoteOffEvent(tick=0, channel=9, data=[49, 95]),
   midi.NoteOffEvent(tick=0, channel=9, data=[35, 95]),
   midi.NoteOnEvent(tick=0, channel=9, data=[51, 95]),
   midi.NoteOnEvent(tick=0, channel=9, data=[35, 95]),
   midi.NoteOffEvent(tick=480, channel=9, data=[51, 95]),
   midi.NoteOffEvent(tick=0, channel=9, data=[35, 95]),
   midi.NoteOnEvent(tick=0, channel=9, data=[51, 95]),
   midi.NoteOnEvent(tick=0, channel=9, data=[35, 95]),
   midi.NoteOffEvent(tick=480, channel=9, data=[51, 95]),
   midi.NoteOffEvent(tick=0, channel=9, data=[35, 95]),
   midi.NoteOnEvent(tick=0, channel=9, data=[35, 95]),
   midi.NoteOffEvent(tick=480, channel=9, data=[35, 95]),
   midi.NoteOnEvent(tick=0, channel=9, data=[51, 95]),
   midi.NoteOnEvent(tick=0, channel=9, data=[35, 95]),
   midi.NoteOffEvent(tick=480, channel=9, data=[51, 95]),
   midi.NoteOffEvent(tick=0, channel=9, data=[35, 95]),
   midi.NoteOnEvent(tick=0, channel=9, data=[35, 95]),
   midi.NoteOffEvent(tick=480, channel=9, data=[35, 95]),
   midi.NoteOnEvent(tick=0, channel=9, data=[49, 95]),
   midi.NoteOnEvent(tick=0, channel=9, data=[38, 95]),
   midi.NoteOnEvent(tick=0, channel=9, data=[35, 95]),
   midi.NoteOffEvent(tick=480, channel=9, data=[49, 95]),
   midi.NoteOffEvent(tick=0, channel=9, data=[38, 95]),
   midi.NoteOffEvent(tick=0, channel=9, data=[35, 95]),
   midi.NoteOnEvent(tick=0, channel=9, data=[51, 95]),
   midi.NoteOnEvent(tick=0, channel=9, data=[35, 95]),
   midi.NoteOffEvent(tick=480, channel=9, data=[51, 95]),
   midi.NoteOffEvent(tick=0, channel=9, data=[35, 95]),
   midi.NoteOnEvent(tick=0, channel=9, data=[35, 95]),
   midi.NoteOffEvent(tick=480, channel=9, data=[35, 95]),
   midi.NoteOnEvent(tick=0, channel=9, data=[51, 95]),
   midi.NoteOnEvent(tick=0, channel=9, data=[35, 95]),
   midi.NoteOffEvent(tick=480, channel=9, data=[51, 95]),
   midi.NoteOffEvent(tick=0, channel=9, data=[35, 95]),
   midi.NoteOnEvent(tick=0, channel=9, data=[51, 95]),
   midi.NoteOnEvent(tick=0, channel=9, data=[35, 95]),
   midi.NoteOffEvent(tick=480, channel=9, data=[51, 95]),
   midi.NoteOffEvent(tick=0, channel=9, data=[35, 95]),
   midi.NoteOnEvent(tick=0, channel=9, data=[35, 95]),
   midi.NoteOffEvent(tick=480, channel=9, data=[35, 95]),
   midi.NoteOnEvent(tick=0, channel=9, data=[51, 95]),
   midi.NoteOnEvent(tick=0, channel=9, data=[35, 95]),
   midi.NoteOffEvent(tick=480, channel=9, data=[51, 95]),
   midi.NoteOffEvent(tick=0, channel=9, data=[35, 95]),
   midi.NoteOnEvent(tick=0, channel=9, data=[35, 95]),
   midi.NoteOffEvent(tick=480, channel=9, data=[35, 95]),
   midi.NoteOnEvent(tick=0, channel=9, data=[51, 95]),
   midi.NoteOnEvent(tick=0, channel=9, data=[35, 95]),
   midi.NoteOffEvent(tick=480, channel=9, data=[51, 95]),
   midi.NoteOffEvent(tick=0, channel=9, data=[35, 95]),
   midi.NoteOnEvent(tick=0, channel=9, data=[35, 95]),
   midi.NoteOffEvent(tick=480, channel=9, data=[35, 95]),
   midi.NoteOnEvent(tick=0, channel=9, data=[38, 95]),
   midi.NoteOnEvent(tick=0, channel=9, data=[49, 95]),
   midi.NoteOnEvent(tick=0, channel=9, data=[35, 95]),
   midi.NoteOffEvent(tick=480, channel=9, data=[38, 95]),
   midi.NoteOffEvent(tick=0, channel=9, data=[49, 95]),
   midi.NoteOffEvent(tick=0, channel=9, data=[35, 95]),
   midi.NoteOnEvent(tick=0, channel=9, data=[51, 95]),
   midi.NoteOnEvent(tick=0, channel=9, data=[35, 95]),
   midi.NoteOffEvent(tick=480, channel=9, data=[51, 95]),
   midi.NoteOffEvent(tick=0, channel=9, data=[35, 95]),
   midi.NoteOnEvent(tick=0, channel=9, data=[51, 95]),
   midi.NoteOnEvent(tick=0, channel=9, data=[35, 95]),
   midi.NoteOffEvent(tick=480, channel=9, data=[51, 95]),
   midi.NoteOffEvent(tick=0, channel=9, data=[35, 95]),
   midi.NoteOnEvent(tick=0, channel=9, data=[35, 95]),
   midi.NoteOffEvent(tick=480, channel=9, data=[35, 95]),
   midi.NoteOnEvent(tick=0, channel=9, data=[51, 95]),
   midi.NoteOnEvent(tick=0, channel=9, data=[35, 95]),
   midi.NoteOffEvent(tick=480, channel=9, data=[51, 95]),
   midi.NoteOffEvent(tick=0, channel=9, data=[35, 95]),
   midi.NoteOnEvent(tick=0, channel=9, data=[35, 95]),
   midi.NoteOffEvent(tick=480, channel=9, data=[35, 95]),
   midi.NoteOnEvent(tick=0, channel=9, data=[49, 95]),
   midi.NoteOnEvent(tick=0, channel=9, data=[38, 95]),
   midi.NoteOnEvent(tick=0, channel=9, data=[35, 95]),
   midi.NoteOffEvent(tick=480, channel=9, data=[49, 95]),
   midi.NoteOffEvent(tick=0, channel=9, data=[38, 95]),
   midi.NoteOffEvent(tick=0, channel=9, data=[35, 95]),
   midi.NoteOnEvent(tick=0, channel=9, data=[51, 95]),
   midi.NoteOnEvent(tick=0, channel=9, data=[35, 95]),
   midi.NoteOffEvent(tick=480, channel=9, data=[51, 95]),
   midi.NoteOffEvent(tick=0, channel=9, data=[35, 95]),
   midi.NoteOnEvent(tick=0, channel=9, data=[35, 95]),
   midi.NoteOffEvent(tick=480, channel=9, data=[35, 95]),
   midi.NoteOnEvent(tick=0, channel=9, data=[51, 95]),
   midi.NoteOnEvent(tick=0, channel=9, data=[35, 95]),
   midi.NoteOffEvent(tick=480, channel=9, data=[51, 95]),
   midi.NoteOffEvent(tick=0, channel=9, data=[35, 95]),
   midi.NoteOnEvent(tick=0, channel=9, data=[51, 95]),
   midi.NoteOnEvent(tick=0, channel=9, data=[35, 95]),
   midi.NoteOffEvent(tick=480, channel=9, data=[51, 95]),
   midi.NoteOffEvent(tick=0, channel=9, data=[35, 95]),
   midi.NoteOnEvent(tick=0, channel=9, data=[35, 95]),
   midi.NoteOffEvent(tick=480, channel=9, data=[35, 95]),
   midi.NoteOnEvent(tick=0, channel=9, data=[51, 95]),
   midi.NoteOnEvent(tick=0, channel=9, data=[35, 95]),
   midi.NoteOffEvent(tick=480, channel=9, data=[51, 95]),
   midi.NoteOffEvent(tick=0, channel=9, data=[35, 95]),
   midi.NoteOnEvent(tick=0, channel=9, data=[35, 95]),
   midi.NoteOffEvent(tick=480, channel=9, data=[35, 95]),
   midi.NoteOnEvent(tick=0, channel=9, data=[51, 95]),
   midi.NoteOnEvent(tick=0, channel=9, data=[35, 95]),
   midi.NoteOffEvent(tick=480, channel=9, data=[51, 95]),
   midi.NoteOffEvent(tick=0, channel=9, data=[35, 95]),
   midi.NoteOnEvent(tick=0, channel=9, data=[35, 95]),
   midi.NoteOffEvent(tick=480, channel=9, data=[35, 95]),
   midi.NoteOnEvent(tick=0, channel=9, data=[38, 95]),
   midi.NoteOnEvent(tick=0, channel=9, data=[49, 95]),
   midi.NoteOnEvent(tick=0, channel=9, data=[35, 95]),
   midi.NoteOffEvent(tick=480, channel=9, data=[38, 95]),
   midi.NoteOffEvent(tick=0, channel=9, data=[49, 95]),
   midi.NoteOffEvent(tick=0, channel=9, data=[35, 95]),
   midi.NoteOnEvent(tick=0, channel=9, data=[51, 95]),
   midi.NoteOnEvent(tick=0, channel=9, data=[35, 95]),
   midi.NoteOffEvent(tick=480, channel=9, data=[51, 95]),
   midi.NoteOffEvent(tick=0, channel=9, data=[35, 95]),
   midi.NoteOnEvent(tick=0, channel=9, data=[51, 95]),
   midi.NoteOnEvent(tick=0, channel=9, data=[35, 95]),
   midi.NoteOffEvent(tick=480, channel=9, data=[51, 95]),
   midi.NoteOffEvent(tick=0, channel=9, data=[35, 95]),
   midi.NoteOnEvent(tick=0, channel=9, data=[35, 95]),
   midi.NoteOffEvent(tick=480, channel=9, data=[35, 95]),
   midi.NoteOnEvent(tick=0, channel=9, data=[51, 95]),
   midi.NoteOnEvent(tick=0, channel=9, data=[35, 95]),
   midi.NoteOffEvent(tick=480, channel=9, data=[51, 95]),
   midi.NoteOffEvent(tick=0, channel=9, data=[35, 95]),
   midi.NoteOnEvent(tick=0, channel=9, data=[35, 95]),
   midi.NoteOffEvent(tick=480, channel=9, data=[35, 95]),
   midi.NoteOnEvent(tick=0, channel=9, data=[49, 95]),
   midi.NoteOnEvent(tick=0, channel=9, data=[38, 95]),
   midi.NoteOnEvent(tick=0, channel=9, data=[35, 95]),
   midi.NoteOffEvent(tick=480, channel=9, data=[49, 95]),
   midi.NoteOffEvent(tick=0, channel=9, data=[38, 95]),
   midi.NoteOffEvent(tick=0, channel=9, data=[35, 95]),
   midi.NoteOnEvent(tick=0, channel=9, data=[51, 95]),
   midi.NoteOnEvent(tick=0, channel=9, data=[35, 95]),
   midi.NoteOffEvent(tick=480, channel=9, data=[51, 95]),
   midi.NoteOffEvent(tick=0, channel=9, data=[35, 95]),
   midi.NoteOnEvent(tick=0, channel=9, data=[35, 95]),
   midi.NoteOffEvent(tick=480, channel=9, data=[35, 95]),
   midi.NoteOnEvent(tick=0, channel=9, data=[51, 95]),
   midi.NoteOnEvent(tick=0, channel=9, data=[35, 95]),
   midi.NoteOffEvent(tick=480, channel=9, data=[51, 95]),
   midi.NoteOffEvent(tick=0, channel=9, data=[35, 95]),
   midi.NoteOnEvent(tick=0, channel=9, data=[51, 95]),
   midi.NoteOnEvent(tick=0, channel=9, data=[35, 95]),
   midi.NoteOffEvent(tick=480, channel=9, data=[51, 95]),
   midi.NoteOffEvent(tick=0, channel=9, data=[35, 95]),
   midi.NoteOnEvent(tick=0, channel=9, data=[35, 95]),
   midi.NoteOffEvent(tick=480, channel=9, data=[35, 95]),
   midi.NoteOnEvent(tick=0, channel=9, data=[51, 95]),
   midi.NoteOnEvent(tick=0, channel=9, data=[35, 95]),
   midi.NoteOffEvent(tick=480, channel=9, data=[51, 95]),
   midi.NoteOffEvent(tick=0, channel=9, data=[35, 95]),
   midi.NoteOnEvent(tick=0, channel=9, data=[35, 95]),
   midi.NoteOffEvent(tick=480, channel=9, data=[35, 95]),
   midi.NoteOnEvent(tick=0, channel=9, data=[51, 95]),
   midi.NoteOnEvent(tick=0, channel=9, data=[35, 95]),
   midi.NoteOffEvent(tick=480, channel=9, data=[51, 95]),
   midi.NoteOffEvent(tick=0, channel=9, data=[35, 95]),
   midi.NoteOnEvent(tick=0, channel=9, data=[35, 95]),
   midi.NoteOffEvent(tick=480, channel=9, data=[35, 95]),
   midi.NoteOnEvent(tick=0, channel=9, data=[38, 95]),
   midi.NoteOnEvent(tick=0, channel=9, data=[49, 95]),
   midi.NoteOnEvent(tick=0, channel=9, data=[35, 95]),
   midi.NoteOffEvent(tick=480, channel=9, data=[38, 95]),
   midi.NoteOffEvent(tick=0, channel=9, data=[49, 95]),
   midi.NoteOffEvent(tick=0, channel=9, data=[35, 95]),
   midi.NoteOnEvent(tick=0, channel=9, data=[51, 95]),
   midi.NoteOnEvent(tick=0, channel=9, data=[35, 95]),
   midi.NoteOffEvent(tick=480, channel=9, data=[51, 95]),
   midi.NoteOffEvent(tick=0, channel=9, data=[35, 95]),
   midi.NoteOnEvent(tick=0, channel=9, data=[51, 95]),
   midi.NoteOnEvent(tick=0, channel=9, data=[35, 95]),
   midi.NoteOffEvent(tick=480, channel=9, data=[51, 95]),
   midi.NoteOffEvent(tick=0, channel=9, data=[35, 95]),
   midi.NoteOnEvent(tick=0, channel=9, data=[35, 95]),
   midi.NoteOffEvent(tick=480, channel=9, data=[35, 95]),
   midi.NoteOnEvent(tick=0, channel=9, data=[51, 95]),
   midi.NoteOnEvent(tick=0, channel=9, data=[35, 95]),
   midi.NoteOffEvent(tick=480, channel=9, data=[51, 95]),
   midi.NoteOffEvent(tick=0, channel=9, data=[35, 95]),
   midi.NoteOnEvent(tick=0, channel=9, data=[35, 95]),
   midi.NoteOffEvent(tick=480, channel=9, data=[35, 95]),
   midi.NoteOnEvent(tick=0, channel=9, data=[49, 95]),
   midi.NoteOnEvent(tick=0, channel=9, data=[38, 95]),
   midi.NoteOnEvent(tick=0, channel=9, data=[35, 95]),
   midi.NoteOffEvent(tick=480, channel=9, data=[49, 95]),
   midi.NoteOffEvent(tick=0, channel=9, data=[38, 95]),
   midi.NoteOffEvent(tick=0, channel=9, data=[35, 95]),
   midi.NoteOnEvent(tick=0, channel=9, data=[51, 95]),
   midi.NoteOnEvent(tick=0, channel=9, data=[35, 95]),
   midi.NoteOffEvent(tick=480, channel=9, data=[51, 95]),
   midi.NoteOffEvent(tick=0, channel=9, data=[35, 95]),
   midi.NoteOnEvent(tick=0, channel=9, data=[35, 95]),
   midi.NoteOffEvent(tick=480, channel=9, data=[35, 95]),
   midi.NoteOnEvent(tick=0, channel=9, data=[51, 95]),
   midi.NoteOnEvent(tick=0, channel=9, data=[35, 95]),
   midi.NoteOffEvent(tick=480, channel=9, data=[51, 95]),
   midi.NoteOffEvent(tick=0, channel=9, data=[35, 95]),
   midi.NoteOnEvent(tick=0, channel=9, data=[51, 95]),
   midi.NoteOnEvent(tick=0, channel=9, data=[35, 95]),
   midi.NoteOffEvent(tick=480, channel=9, data=[51, 95]),
   midi.NoteOffEvent(tick=0, channel=9, data=[35, 95]),
   midi.NoteOnEvent(tick=0, channel=9, data=[35, 95]),
   midi.NoteOffEvent(tick=480, channel=9, data=[35, 95]),
   midi.NoteOnEvent(tick=0, channel=9, data=[51, 95]),
   midi.NoteOnEvent(tick=0, channel=9, data=[35, 95]),
   midi.NoteOffEvent(tick=480, channel=9, data=[51, 95]),
   midi.NoteOffEvent(tick=0, channel=9, data=[35, 95]),
   midi.NoteOnEvent(tick=0, channel=9, data=[35, 95]),
   midi.NoteOffEvent(tick=480, channel=9, data=[35, 95]),
   midi.NoteOnEvent(tick=0, channel=9, data=[51, 95]),
   midi.NoteOnEvent(tick=0, channel=9, data=[35, 95]),
   midi.NoteOffEvent(tick=480, channel=9, data=[51, 95]),
   midi.NoteOffEvent(tick=0, channel=9, data=[35, 95]),
   midi.NoteOnEvent(tick=0, channel=9, data=[35, 95]),
   midi.NoteOffEvent(tick=480, channel=9, data=[35, 95]),
   midi.NoteOnEvent(tick=0, channel=9, data=[38, 95]),
   midi.NoteOnEvent(tick=0, channel=9, data=[49, 95]),
   midi.NoteOnEvent(tick=0, channel=9, data=[35, 95]),
   midi.NoteOffEvent(tick=480, channel=9, data=[38, 95]),
   midi.NoteOffEvent(tick=0, channel=9, data=[49, 95]),
   midi.NoteOffEvent(tick=0, channel=9, data=[35, 95]),
   midi.NoteOnEvent(tick=0, channel=9, data=[51, 95]),
   midi.NoteOnEvent(tick=0, channel=9, data=[35, 95]),
   midi.NoteOffEvent(tick=480, channel=9, data=[51, 95]),
   midi.NoteOffEvent(tick=0, channel=9, data=[35, 95]),
   midi.NoteOnEvent(tick=7680, channel=9, data=[47, 95]),
   midi.NoteOffEvent(tick=480, channel=9, data=[47, 95]),
   midi.NoteOnEvent(tick=0, channel=9, data=[47, 95]),
   midi.NoteOffEvent(tick=480, channel=9, data=[47, 95]),
   midi.NoteOnEvent(tick=0, channel=9, data=[47, 95]),
   midi.NoteOffEvent(tick=480, channel=9, data=[47, 95]),
   midi.NoteOnEvent(tick=0, channel=9, data=[47, 95]),
   midi.NoteOffEvent(tick=480, channel=9, data=[47, 95]),
   midi.NoteOnEvent(tick=0, channel=9, data=[47, 95]),
   midi.NoteOffEvent(tick=480, channel=9, data=[47, 95]),
   midi.NoteOnEvent(tick=0, channel=9, data=[47, 95]),
   midi.NoteOffEvent(tick=480, channel=9, data=[47, 95]),
   midi.NoteOnEvent(tick=0, channel=9, data=[47, 95]),
   midi.NoteOffEvent(tick=480, channel=9, data=[47, 95]),
   midi.NoteOnEvent(tick=0, channel=9, data=[47, 95]),
   midi.NoteOffEvent(tick=480, channel=9, data=[47, 95]),
   midi.NoteOnEvent(tick=0, channel=9, data=[45, 95]),
   midi.NoteOffEvent(tick=240, channel=9, data=[45, 95]),
   midi.NoteOnEvent(tick=0, channel=9, data=[45, 95]),
   midi.NoteOffEvent(tick=240, channel=9, data=[45, 95]),
   midi.NoteOnEvent(tick=0, channel=9, data=[45, 95]),
   midi.NoteOffEvent(tick=480, channel=9, data=[45, 95]),
   midi.NoteOnEvent(tick=0, channel=9, data=[47, 95]),
   midi.NoteOffEvent(tick=480, channel=9, data=[47, 95]),
   midi.NoteOnEvent(tick=0, channel=9, data=[47, 95]),
   midi.NoteOffEvent(tick=240, channel=9, data=[47, 95]),
   midi.NoteOnEvent(tick=0, channel=9, data=[47, 95]),
   midi.NoteOffEvent(tick=240, channel=9, data=[47, 95]),
   midi.NoteOnEvent(tick=0, channel=9, data=[48, 95]),
   midi.NoteOffEvent(tick=480, channel=9, data=[48, 95]),
   midi.NoteOnEvent(tick=0, channel=9, data=[48, 95]),
   midi.NoteOffEvent(tick=480, channel=9, data=[48, 95]),
   midi.NoteOnEvent(tick=0, channel=9, data=[48, 95]),
   midi.NoteOffEvent(tick=240, channel=9, data=[48, 95]),
   midi.NoteOnEvent(tick=0, channel=9, data=[48, 95]),
   midi.NoteOffEvent(tick=240, channel=9, data=[48, 95]),
   midi.NoteOnEvent(tick=0, channel=9, data=[48, 95]),
   midi.NoteOffEvent(tick=480, channel=9, data=[48, 95]),
   midi.NoteOnEvent(tick=0, channel=9, data=[47, 95]),
   midi.NoteOffEvent(tick=480, channel=9, data=[47, 95]),
   midi.NoteOnEvent(tick=0, channel=9, data=[47, 95]),
   midi.NoteOffEvent(tick=480, channel=9, data=[47, 95]),
   midi.NoteOnEvent(tick=0, channel=9, data=[47, 95]),
   midi.NoteOffEvent(tick=480, channel=9, data=[47, 95]),
   midi.NoteOnEvent(tick=0, channel=9, data=[47, 95]),
   midi.NoteOffEvent(tick=480, channel=9, data=[47, 95]),
   midi.NoteOnEvent(tick=0, channel=9, data=[47, 95]),
   midi.NoteOffEvent(tick=480, channel=9, data=[47, 95]),
   midi.NoteOnEvent(tick=0, channel=9, data=[47, 95]),
   midi.NoteOffEvent(tick=480, channel=9, data=[47, 95]),
   midi.NoteOnEvent(tick=0, channel=9, data=[47, 95]),
   midi.NoteOffEvent(tick=480, channel=9, data=[47, 95]),
   midi.NoteOnEvent(tick=0, channel=9, data=[47, 95]),
   midi.NoteOffEvent(tick=480, channel=9, data=[47, 95]),
   midi.NoteOnEvent(tick=0, channel=9, data=[45, 95]),
   midi.NoteOffEvent(tick=240, channel=9, data=[45, 95]),
   midi.NoteOnEvent(tick=0, channel=9, data=[45, 95]),
   midi.NoteOffEvent(tick=240, channel=9, data=[45, 95]),
   midi.NoteOnEvent(tick=0, channel=9, data=[45, 95]),
   midi.NoteOffEvent(tick=480, channel=9, data=[45, 95]),
   midi.NoteOnEvent(tick=0, channel=9, data=[47, 95]),
   midi.NoteOffEvent(tick=480, channel=9, data=[47, 95]),
   midi.NoteOnEvent(tick=0, channel=9, data=[47, 95]),
   midi.NoteOffEvent(tick=240, channel=9, data=[47, 95]),
   midi.NoteOnEvent(tick=0, channel=9, data=[47, 95]),
   midi.NoteOffEvent(tick=240, channel=9, data=[47, 95]),
   midi.NoteOnEvent(tick=0, channel=9, data=[48, 95]),
   midi.NoteOffEvent(tick=480, channel=9, data=[48, 95]),
   midi.NoteOnEvent(tick=0, channel=9, data=[48, 95]),
   midi.NoteOffEvent(tick=480, channel=9, data=[48, 95]),
   midi.NoteOnEvent(tick=0, channel=9, data=[48, 95]),
   midi.NoteOffEvent(tick=240, channel=9, data=[48, 95]),
   midi.NoteOnEvent(tick=0, channel=9, data=[48, 95]),
   midi.NoteOffEvent(tick=240, channel=9, data=[48, 95]),
   midi.NoteOnEvent(tick=0, channel=9, data=[48, 95]),
   midi.NoteOffEvent(tick=480, channel=9, data=[48, 95]),
   midi.NoteOnEvent(tick=0, channel=9, data=[47, 95]),
   midi.NoteOffEvent(tick=480, channel=9, data=[47, 95]),
   midi.NoteOnEvent(tick=0, channel=9, data=[47, 95]),
   midi.NoteOffEvent(tick=480, channel=9, data=[47, 95]),
   midi.NoteOnEvent(tick=0, channel=9, data=[47, 95]),
   midi.NoteOffEvent(tick=480, channel=9, data=[47, 95]),
   midi.NoteOnEvent(tick=0, channel=9, data=[47, 95]),
   midi.NoteOffEvent(tick=480, channel=9, data=[47, 95]),
   midi.NoteOnEvent(tick=0, channel=9, data=[47, 95]),
   midi.NoteOffEvent(tick=480, channel=9, data=[47, 95]),
   midi.NoteOnEvent(tick=0, channel=9, data=[47, 95]),
   midi.NoteOffEvent(tick=480, channel=9, data=[47, 95]),
   midi.NoteOnEvent(tick=0, channel=9, data=[47, 95]),
   midi.NoteOffEvent(tick=480, channel=9, data=[47, 95]),
   midi.NoteOnEvent(tick=0, channel=9, data=[47, 95]),
   midi.NoteOffEvent(tick=480, channel=9, data=[47, 95]),
   midi.NoteOnEvent(tick=0, channel=9, data=[45, 95]),
   midi.NoteOffEvent(tick=240, channel=9, data=[45, 95]),
   midi.NoteOnEvent(tick=0, channel=9, data=[45, 95]),
   midi.NoteOffEvent(tick=240, channel=9, data=[45, 95]),
   midi.NoteOnEvent(tick=0, channel=9, data=[45, 95]),
   midi.NoteOffEvent(tick=480, channel=9, data=[45, 95]),
   midi.NoteOnEvent(tick=0, channel=9, data=[47, 95]),
   midi.NoteOffEvent(tick=480, channel=9, data=[47, 95]),
   midi.NoteOnEvent(tick=0, channel=9, data=[47, 95]),
   midi.NoteOffEvent(tick=240, channel=9, data=[47, 95]),
   midi.NoteOnEvent(tick=0, channel=9, data=[47, 95]),
   midi.NoteOffEvent(tick=240, channel=9, data=[47, 95]),
   midi.NoteOnEvent(tick=0, channel=9, data=[48, 95]),
   midi.NoteOffEvent(tick=480, channel=9, data=[48, 95]),
   midi.NoteOnEvent(tick=0, channel=9, data=[48, 95]),
   midi.NoteOffEvent(tick=480, channel=9, data=[48, 95]),
   midi.NoteOnEvent(tick=0, channel=9, data=[48, 95]),
   midi.NoteOffEvent(tick=240, channel=9, data=[48, 95]),
   midi.NoteOnEvent(tick=0, channel=9, data=[48, 95]),
   midi.NoteOffEvent(tick=240, channel=9, data=[48, 95]),
   midi.NoteOnEvent(tick=0, channel=9, data=[48, 95]),
   midi.NoteOffEvent(tick=480, channel=9, data=[48, 95]),
   midi.NoteOnEvent(tick=0, channel=9, data=[47, 95]),
   midi.NoteOffEvent(tick=480, channel=9, data=[47, 95]),
   midi.NoteOnEvent(tick=0, channel=9, data=[47, 95]),
   midi.NoteOffEvent(tick=480, channel=9, data=[47, 95]),
   midi.NoteOnEvent(tick=0, channel=9, data=[47, 95]),
   midi.NoteOffEvent(tick=480, channel=9, data=[47, 95]),
   midi.NoteOnEvent(tick=0, channel=9, data=[47, 95]),
   midi.NoteOffEvent(tick=480, channel=9, data=[47, 95]),
   midi.NoteOnEvent(tick=0, channel=9, data=[47, 95]),
   midi.NoteOffEvent(tick=480, channel=9, data=[47, 95]),
   midi.NoteOnEvent(tick=0, channel=9, data=[47, 95]),
   midi.NoteOffEvent(tick=480, channel=9, data=[47, 95]),
   midi.NoteOnEvent(tick=0, channel=9, data=[47, 95]),
   midi.NoteOffEvent(tick=480, channel=9, data=[47, 95]),
   midi.NoteOnEvent(tick=0, channel=9, data=[47, 95]),
   midi.NoteOffEvent(tick=480, channel=9, data=[47, 95]),
   midi.NoteOnEvent(tick=0, channel=9, data=[45, 95]),
   midi.NoteOffEvent(tick=240, channel=9, data=[45, 95]),
   midi.NoteOnEvent(tick=0, channel=9, data=[45, 95]),
   midi.NoteOffEvent(tick=240, channel=9, data=[45, 95]),
   midi.NoteOnEvent(tick=0, channel=9, data=[45, 95]),
   midi.NoteOffEvent(tick=480, channel=9, data=[45, 95]),
   midi.NoteOnEvent(tick=0, channel=9, data=[47, 95]),
   midi.NoteOffEvent(tick=480, channel=9, data=[47, 95]),
   midi.NoteOnEvent(tick=0, channel=9, data=[47, 95]),
   midi.NoteOffEvent(tick=240, channel=9, data=[47, 95]),
   midi.NoteOnEvent(tick=0, channel=9, data=[47, 95]),
   midi.NoteOffEvent(tick=240, channel=9, data=[47, 95]),
   midi.NoteOnEvent(tick=0, channel=9, data=[48, 95]),
   midi.NoteOffEvent(tick=480, channel=9, data=[48, 95]),
   midi.NoteOnEvent(tick=0, channel=9, data=[48, 95]),
   midi.NoteOffEvent(tick=480, channel=9, data=[48, 95]),
   midi.NoteOnEvent(tick=0, channel=9, data=[48, 95]),
   midi.NoteOffEvent(tick=240, channel=9, data=[48, 95]),
   midi.NoteOnEvent(tick=0, channel=9, data=[48, 95]),
   midi.NoteOffEvent(tick=240, channel=9, data=[48, 95]),
   midi.NoteOnEvent(tick=0, channel=9, data=[48, 95]),
   midi.NoteOffEvent(tick=480, channel=9, data=[48, 95]),
   midi.NoteOnEvent(tick=0, channel=9, data=[47, 95]),
   midi.NoteOffEvent(tick=480, channel=9, data=[47, 95]),
   midi.NoteOnEvent(tick=0, channel=9, data=[47, 95]),
   midi.NoteOffEvent(tick=480, channel=9, data=[47, 95]),
   midi.NoteOnEvent(tick=0, channel=9, data=[47, 95]),
   midi.NoteOffEvent(tick=480, channel=9, data=[47, 95]),
   midi.NoteOnEvent(tick=0, channel=9, data=[47, 95]),
   midi.NoteOffEvent(tick=480, channel=9, data=[47, 95]),
   midi.NoteOnEvent(tick=0, channel=9, data=[47, 95]),
   midi.NoteOffEvent(tick=480, channel=9, data=[47, 95]),
   midi.NoteOnEvent(tick=0, channel=9, data=[47, 95]),
   midi.NoteOffEvent(tick=480, channel=9, data=[47, 95]),
   midi.NoteOnEvent(tick=0, channel=9, data=[47, 95]),
   midi.NoteOffEvent(tick=480, channel=9, data=[47, 95]),
   midi.NoteOnEvent(tick=0, channel=9, data=[47, 95]),
   midi.NoteOffEvent(tick=480, channel=9, data=[47, 95]),
   midi.NoteOnEvent(tick=0, channel=9, data=[45, 95]),
   midi.NoteOffEvent(tick=240, channel=9, data=[45, 95]),
   midi.NoteOnEvent(tick=0, channel=9, data=[45, 95]),
   midi.NoteOffEvent(tick=240, channel=9, data=[45, 95]),
   midi.NoteOnEvent(tick=0, channel=9, data=[45, 95]),
   midi.NoteOffEvent(tick=480, channel=9, data=[45, 95]),
   midi.NoteOnEvent(tick=0, channel=9, data=[47, 95]),
   midi.NoteOffEvent(tick=480, channel=9, data=[47, 95]),
   midi.NoteOnEvent(tick=0, channel=9, data=[47, 95]),
   midi.NoteOffEvent(tick=240, channel=9, data=[47, 95]),
   midi.NoteOnEvent(tick=0, channel=9, data=[47, 95]),
   midi.NoteOffEvent(tick=240, channel=9, data=[47, 95]),
   midi.NoteOnEvent(tick=0, channel=9, data=[48, 95]),
   midi.NoteOffEvent(tick=480, channel=9, data=[48, 95]),
   midi.NoteOnEvent(tick=0, channel=9, data=[48, 95]),
   midi.NoteOffEvent(tick=480, channel=9, data=[48, 95]),
   midi.NoteOnEvent(tick=0, channel=9, data=[48, 95]),
   midi.NoteOffEvent(tick=240, channel=9, data=[48, 95]),
   midi.NoteOnEvent(tick=0, channel=9, data=[48, 95]),
   midi.NoteOffEvent(tick=240, channel=9, data=[48, 95]),
   midi.NoteOnEvent(tick=0, channel=9, data=[48, 95]),
   midi.NoteOffEvent(tick=480, channel=9, data=[48, 95]),
   midi.NoteOnEvent(tick=0, channel=9, data=[47, 95]),
   midi.NoteOffEvent(tick=480, channel=9, data=[47, 95]),
   midi.NoteOnEvent(tick=0, channel=9, data=[47, 95]),
   midi.NoteOffEvent(tick=480, channel=9, data=[47, 95]),
   midi.NoteOnEvent(tick=0, channel=9, data=[47, 95]),
   midi.NoteOffEvent(tick=480, channel=9, data=[47, 95]),
   midi.NoteOnEvent(tick=0, channel=9, data=[47, 95]),
   midi.NoteOffEvent(tick=480, channel=9, data=[47, 95]),
   midi.NoteOnEvent(tick=0, channel=9, data=[47, 95]),
   midi.NoteOffEvent(tick=480, channel=9, data=[47, 95]),
   midi.NoteOnEvent(tick=0, channel=9, data=[47, 95]),
   midi.NoteOffEvent(tick=480, channel=9, data=[47, 95]),
   midi.NoteOnEvent(tick=0, channel=9, data=[47, 95]),
   midi.NoteOffEvent(tick=480, channel=9, data=[47, 95]),
   midi.NoteOnEvent(tick=0, channel=9, data=[47, 95]),
   midi.NoteOffEvent(tick=480, channel=9, data=[47, 95]),
   midi.NoteOnEvent(tick=0, channel=9, data=[45, 95]),
   midi.NoteOffEvent(tick=240, channel=9, data=[45, 95]),
   midi.NoteOnEvent(tick=0, channel=9, data=[45, 95]),
   midi.NoteOffEvent(tick=240, channel=9, data=[45, 95]),
   midi.NoteOnEvent(tick=0, channel=9, data=[45, 95]),
   midi.NoteOffEvent(tick=480, channel=9, data=[45, 95]),
   midi.NoteOnEvent(tick=0, channel=9, data=[47, 95]),
   midi.NoteOffEvent(tick=480, channel=9, data=[47, 95]),
   midi.NoteOnEvent(tick=0, channel=9, data=[47, 95]),
   midi.NoteOffEvent(tick=240, channel=9, data=[47, 95]),
   midi.NoteOnEvent(tick=0, channel=9, data=[47, 95]),
   midi.NoteOffEvent(tick=240, channel=9, data=[47, 95]),
   midi.NoteOnEvent(tick=0, channel=9, data=[48, 95]),
   midi.NoteOffEvent(tick=480, channel=9, data=[48, 95]),
   midi.NoteOnEvent(tick=0, channel=9, data=[48, 95]),
   midi.NoteOffEvent(tick=480, channel=9, data=[48, 95]),
   midi.NoteOnEvent(tick=0, channel=9, data=[48, 95]),
   midi.NoteOffEvent(tick=240, channel=9, data=[48, 95]),
   midi.NoteOnEvent(tick=0, channel=9, data=[48, 95]),
   midi.NoteOffEvent(tick=240, channel=9, data=[48, 95]),
   midi.NoteOnEvent(tick=0, channel=9, data=[48, 95]),
   midi.NoteOffEvent(tick=480, channel=9, data=[48, 95]),
   midi.NoteOnEvent(tick=0, channel=9, data=[38, 95]),
   midi.NoteOffEvent(tick=960, channel=9, data=[38, 95]),
   midi.NoteOnEvent(tick=2880, channel=9, data=[49, 95]),
   midi.NoteOnEvent(tick=0, channel=9, data=[35, 95]),
   midi.NoteOffEvent(tick=480, channel=9, data=[49, 95]),
   midi.NoteOffEvent(tick=0, channel=9, data=[35, 95]),
   midi.NoteOnEvent(tick=0, channel=9, data=[46, 95]),
   midi.NoteOnEvent(tick=0, channel=9, data=[38, 95]),
   midi.NoteOffEvent(tick=480, channel=9, data=[46, 95]),
   midi.NoteOffEvent(tick=0, channel=9, data=[38, 95]),
   midi.NoteOnEvent(tick=0, channel=9, data=[46, 95]),
   midi.NoteOnEvent(tick=0, channel=9, data=[35, 95]),
   midi.NoteOffEvent(tick=480, channel=9, data=[46, 95]),
   midi.NoteOffEvent(tick=0, channel=9, data=[35, 95]),
   midi.NoteOnEvent(tick=0, channel=9, data=[46, 95]),
   midi.NoteOnEvent(tick=0, channel=9, data=[38, 95]),
   midi.NoteOffEvent(tick=480, channel=9, data=[46, 95]),
   midi.NoteOffEvent(tick=0, channel=9, data=[38, 95]),
   midi.NoteOnEvent(tick=0, channel=9, data=[46, 95]),
   midi.NoteOnEvent(tick=0, channel=9, data=[35, 95]),
   midi.NoteOffEvent(tick=480, channel=9, data=[46, 95]),
   midi.NoteOffEvent(tick=0, channel=9, data=[35, 95]),
   midi.NoteOnEvent(tick=0, channel=9, data=[46, 95]),
   midi.NoteOnEvent(tick=0, channel=9, data=[38, 95]),
   midi.NoteOffEvent(tick=480, channel=9, data=[46, 95]),
   midi.NoteOffEvent(tick=0, channel=9, data=[38, 95]),
   midi.NoteOnEvent(tick=0, channel=9, data=[46, 95]),
   midi.NoteOnEvent(tick=0, channel=9, data=[35, 95]),
   midi.NoteOffEvent(tick=480, channel=9, data=[46, 95]),
   midi.NoteOffEvent(tick=0, channel=9, data=[35, 95]),
   midi.NoteOnEvent(tick=0, channel=9, data=[46, 95]),
   midi.NoteOnEvent(tick=0, channel=9, data=[38, 95]),
   midi.NoteOffEvent(tick=480, channel=9, data=[46, 95]),
   midi.NoteOffEvent(tick=0, channel=9, data=[38, 95]),
   midi.NoteOnEvent(tick=0, channel=9, data=[46, 95]),
   midi.NoteOnEvent(tick=0, channel=9, data=[35, 95]),
   midi.NoteOffEvent(tick=480, channel=9, data=[46, 95]),
   midi.NoteOffEvent(tick=0, channel=9, data=[35, 95]),
   midi.NoteOnEvent(tick=0, channel=9, data=[46, 95]),
   midi.NoteOnEvent(tick=0, channel=9, data=[38, 95]),
   midi.NoteOffEvent(tick=480, channel=9, data=[46, 95]),
   midi.NoteOffEvent(tick=0, channel=9, data=[38, 95]),
   midi.NoteOnEvent(tick=0, channel=9, data=[46, 95]),
   midi.NoteOnEvent(tick=0, channel=9, data=[35, 95]),
   midi.NoteOffEvent(tick=480, channel=9, data=[46, 95]),
   midi.NoteOffEvent(tick=0, channel=9, data=[35, 95]),
   midi.NoteOnEvent(tick=0, channel=9, data=[46, 95]),
   midi.NoteOnEvent(tick=0, channel=9, data=[38, 95]),
   midi.NoteOffEvent(tick=480, channel=9, data=[46, 95]),
   midi.NoteOffEvent(tick=0, channel=9, data=[38, 95]),
   midi.NoteOnEvent(tick=0, channel=9, data=[46, 95]),
   midi.NoteOnEvent(tick=0, channel=9, data=[35, 95]),
   midi.NoteOffEvent(tick=480, channel=9, data=[46, 95]),
   midi.NoteOffEvent(tick=0, channel=9, data=[35, 95]),
   midi.NoteOnEvent(tick=0, channel=9, data=[46, 95]),
   midi.NoteOnEvent(tick=0, channel=9, data=[38, 95]),
   midi.NoteOffEvent(tick=480, channel=9, data=[46, 95]),
   midi.NoteOffEvent(tick=0, channel=9, data=[38, 95]),
   midi.NoteOnEvent(tick=0, channel=9, data=[46, 95]),
   midi.NoteOnEvent(tick=0, channel=9, data=[35, 95]),
   midi.NoteOffEvent(tick=480, channel=9, data=[46, 95]),
   midi.NoteOffEvent(tick=0, channel=9, data=[35, 95]),
   midi.NoteOnEvent(tick=0, channel=9, data=[46, 95]),
   midi.NoteOnEvent(tick=0, channel=9, data=[38, 95]),
   midi.NoteOffEvent(tick=480, channel=9, data=[46, 95]),
   midi.NoteOffEvent(tick=0, channel=9, data=[38, 95]),
   midi.NoteOnEvent(tick=0, channel=9, data=[49, 95]),
   midi.NoteOnEvent(tick=0, channel=9, data=[35, 95]),
   midi.NoteOffEvent(tick=480, channel=9, data=[49, 95]),
   midi.NoteOffEvent(tick=0, channel=9, data=[35, 95]),
   midi.NoteOnEvent(tick=0, channel=9, data=[46, 95]),
   midi.NoteOnEvent(tick=0, channel=9, data=[38, 95]),
   midi.NoteOffEvent(tick=480, channel=9, data=[46, 95]),
   midi.NoteOffEvent(tick=0, channel=9, data=[38, 95]),
   midi.NoteOnEvent(tick=0, channel=9, data=[46, 95]),
   midi.NoteOnEvent(tick=0, channel=9, data=[35, 95]),
   midi.NoteOffEvent(tick=480, channel=9, data=[46, 95]),
   midi.NoteOffEvent(tick=0, channel=9, data=[35, 95]),
   midi.NoteOnEvent(tick=0, channel=9, data=[46, 95]),
   midi.NoteOnEvent(tick=0, channel=9, data=[38, 95]),
   midi.NoteOffEvent(tick=480, channel=9, data=[46, 95]),
   midi.NoteOffEvent(tick=0, channel=9, data=[38, 95]),
   midi.NoteOnEvent(tick=0, channel=9, data=[46, 95]),
   midi.NoteOnEvent(tick=0, channel=9, data=[35, 95]),
   midi.NoteOffEvent(tick=480, channel=9, data=[46, 95]),
   midi.NoteOffEvent(tick=0, channel=9, data=[35, 95]),
   midi.NoteOnEvent(tick=0, channel=9, data=[46, 95]),
   midi.NoteOnEvent(tick=0, channel=9, data=[38, 95]),
   midi.NoteOffEvent(tick=480, channel=9, data=[46, 95]),
   midi.NoteOffEvent(tick=0, channel=9, data=[38, 95]),
   midi.NoteOnEvent(tick=0, channel=9, data=[46, 95]),
   midi.NoteOnEvent(tick=0, channel=9, data=[35, 95]),
   midi.NoteOffEvent(tick=480, channel=9, data=[46, 95]),
   midi.NoteOffEvent(tick=0, channel=9, data=[35, 95]),
   midi.NoteOnEvent(tick=0, channel=9, data=[46, 95]),
   midi.NoteOnEvent(tick=0, channel=9, data=[38, 95]),
   midi.NoteOffEvent(tick=480, channel=9, data=[46, 95]),
   midi.NoteOffEvent(tick=0, channel=9, data=[38, 95]),
   midi.NoteOnEvent(tick=0, channel=9, data=[46, 95]),
   midi.NoteOnEvent(tick=0, channel=9, data=[35, 95]),
   midi.NoteOffEvent(tick=480, channel=9, data=[46, 95]),
   midi.NoteOffEvent(tick=0, channel=9, data=[35, 95]),
   midi.NoteOnEvent(tick=0, channel=9, data=[46, 95]),
   midi.NoteOnEvent(tick=0, channel=9, data=[38, 95]),
   midi.NoteOffEvent(tick=480, channel=9, data=[46, 95]),
   midi.NoteOffEvent(tick=0, channel=9, data=[38, 95]),
   midi.NoteOnEvent(tick=0, channel=9, data=[46, 95]),
   midi.NoteOnEvent(tick=0, channel=9, data=[35, 95]),
   midi.NoteOffEvent(tick=480, channel=9, data=[46, 95]),
   midi.NoteOffEvent(tick=0, channel=9, data=[35, 95]),
   midi.NoteOnEvent(tick=0, channel=9, data=[46, 95]),
   midi.NoteOnEvent(tick=0, channel=9, data=[38, 95]),
   midi.NoteOffEvent(tick=480, channel=9, data=[46, 95]),
   midi.NoteOffEvent(tick=0, channel=9, data=[38, 95]),
   midi.NoteOnEvent(tick=0, channel=9, data=[46, 95]),
   midi.NoteOnEvent(tick=0, channel=9, data=[35, 95]),
   midi.NoteOffEvent(tick=480, channel=9, data=[46, 95]),
   midi.NoteOffEvent(tick=0, channel=9, data=[35, 95]),
   midi.NoteOnEvent(tick=0, channel=9, data=[46, 95]),
   midi.NoteOnEvent(tick=0, channel=9, data=[38, 95]),
   midi.NoteOffEvent(tick=480, channel=9, data=[46, 95]),
   midi.NoteOffEvent(tick=0, channel=9, data=[38, 95]),
   midi.NoteOnEvent(tick=0, channel=9, data=[46, 95]),
   midi.NoteOnEvent(tick=0, channel=9, data=[35, 95]),
   midi.NoteOffEvent(tick=480, channel=9, data=[46, 95]),
   midi.NoteOffEvent(tick=0, channel=9, data=[35, 95]),
   midi.NoteOnEvent(tick=0, channel=9, data=[46, 95]),
   midi.NoteOnEvent(tick=0, channel=9, data=[38, 95]),
   midi.NoteOffEvent(tick=480, channel=9, data=[46, 95]),
   midi.NoteOffEvent(tick=0, channel=9, data=[38, 95]),
   midi.NoteOnEvent(tick=0, channel=9, data=[49, 95]),
   midi.NoteOnEvent(tick=0, channel=9, data=[35, 95]),
   midi.NoteOffEvent(tick=480, channel=9, data=[49, 95]),
   midi.NoteOffEvent(tick=0, channel=9, data=[35, 95]),
   midi.NoteOnEvent(tick=0, channel=9, data=[46, 95]),
   midi.NoteOnEvent(tick=0, channel=9, data=[38, 95]),
   midi.NoteOffEvent(tick=480, channel=9, data=[46, 95]),
   midi.NoteOffEvent(tick=0, channel=9, data=[38, 95]),
   midi.NoteOnEvent(tick=0, channel=9, data=[46, 95]),
   midi.NoteOnEvent(tick=0, channel=9, data=[35, 95]),
   midi.NoteOffEvent(tick=480, channel=9, data=[46, 95]),
   midi.NoteOffEvent(tick=0, channel=9, data=[35, 95]),
   midi.NoteOnEvent(tick=0, channel=9, data=[46, 95]),
   midi.NoteOnEvent(tick=0, channel=9, data=[38, 95]),
   midi.NoteOffEvent(tick=480, channel=9, data=[46, 95]),
   midi.NoteOffEvent(tick=0, channel=9, data=[38, 95]),
   midi.NoteOnEvent(tick=0, channel=9, data=[46, 95]),
   midi.NoteOnEvent(tick=0, channel=9, data=[35, 95]),
   midi.NoteOffEvent(tick=480, channel=9, data=[46, 95]),
   midi.NoteOffEvent(tick=0, channel=9, data=[35, 95]),
   midi.NoteOnEvent(tick=0, channel=9, data=[46, 95]),
   midi.NoteOnEvent(tick=0, channel=9, data=[38, 95]),
   midi.NoteOffEvent(tick=480, channel=9, data=[46, 95]),
   midi.NoteOffEvent(tick=0, channel=9, data=[38, 95]),
   midi.NoteOnEvent(tick=0, channel=9, data=[46, 95]),
   midi.NoteOnEvent(tick=0, channel=9, data=[35, 95]),
   midi.NoteOffEvent(tick=480, channel=9, data=[46, 95]),
   midi.NoteOffEvent(tick=0, channel=9, data=[35, 95]),
   midi.NoteOnEvent(tick=0, channel=9, data=[46, 95]),
   midi.NoteOnEvent(tick=0, channel=9, data=[38, 95]),
   midi.NoteOffEvent(tick=480, channel=9, data=[46, 95]),
   midi.NoteOffEvent(tick=0, channel=9, data=[38, 95]),
   midi.NoteOnEvent(tick=0, channel=9, data=[46, 95]),
   midi.NoteOnEvent(tick=0, channel=9, data=[35, 95]),
   midi.NoteOffEvent(tick=480, channel=9, data=[46, 95]),
   midi.NoteOffEvent(tick=0, channel=9, data=[35, 95]),
   midi.NoteOnEvent(tick=0, channel=9, data=[46, 95]),
   midi.NoteOnEvent(tick=0, channel=9, data=[38, 95]),
   midi.NoteOffEvent(tick=480, channel=9, data=[46, 95]),
   midi.NoteOffEvent(tick=0, channel=9, data=[38, 95]),
   midi.NoteOnEvent(tick=0, channel=9, data=[46, 95]),
   midi.NoteOnEvent(tick=0, channel=9, data=[35, 95]),
   midi.NoteOffEvent(tick=480, channel=9, data=[46, 95]),
   midi.NoteOffEvent(tick=0, channel=9, data=[35, 95]),
   midi.NoteOnEvent(tick=0, channel=9, data=[46, 95]),
   midi.NoteOnEvent(tick=0, channel=9, data=[38, 95]),
   midi.NoteOffEvent(tick=480, channel=9, data=[46, 95]),
   midi.NoteOffEvent(tick=0, channel=9, data=[38, 95]),
   midi.NoteOnEvent(tick=0, channel=9, data=[46, 95]),
   midi.NoteOnEvent(tick=0, channel=9, data=[35, 95]),
   midi.NoteOffEvent(tick=480, channel=9, data=[46, 95]),
   midi.NoteOffEvent(tick=0, channel=9, data=[35, 95]),
   midi.NoteOnEvent(tick=0, channel=9, data=[46, 95]),
   midi.NoteOnEvent(tick=0, channel=9, data=[38, 95]),
   midi.NoteOffEvent(tick=480, channel=9, data=[46, 95]),
   midi.NoteOffEvent(tick=0, channel=9, data=[38, 95]),
   midi.NoteOnEvent(tick=0, channel=9, data=[46, 95]),
   midi.NoteOnEvent(tick=0, channel=9, data=[35, 95]),
   midi.NoteOffEvent(tick=480, channel=9, data=[46, 95]),
   midi.NoteOffEvent(tick=0, channel=9, data=[35, 95]),
   midi.NoteOnEvent(tick=0, channel=9, data=[46, 95]),
   midi.NoteOnEvent(tick=0, channel=9, data=[38, 95]),
   midi.NoteOffEvent(tick=480, channel=9, data=[46, 95]),
   midi.NoteOffEvent(tick=0, channel=9, data=[38, 95]),
   midi.NoteOnEvent(tick=0, channel=9, data=[49, 95]),
   midi.NoteOnEvent(tick=0, channel=9, data=[35, 95]),
   midi.NoteOffEvent(tick=480, channel=9, data=[49, 95]),
   midi.NoteOffEvent(tick=0, channel=9, data=[35, 95]),
   midi.NoteOnEvent(tick=0, channel=9, data=[46, 95]),
   midi.NoteOnEvent(tick=0, channel=9, data=[38, 95]),
   midi.NoteOffEvent(tick=480, channel=9, data=[46, 95]),
   midi.NoteOffEvent(tick=0, channel=9, data=[38, 95]),
   midi.NoteOnEvent(tick=0, channel=9, data=[46, 95]),
   midi.NoteOnEvent(tick=0, channel=9, data=[35, 95]),
   midi.NoteOffEvent(tick=480, channel=9, data=[46, 95]),
   midi.NoteOffEvent(tick=0, channel=9, data=[35, 95]),
   midi.NoteOnEvent(tick=0, channel=9, data=[46, 95]),
   midi.NoteOnEvent(tick=0, channel=9, data=[38, 95]),
   midi.NoteOffEvent(tick=480, channel=9, data=[46, 95]),
   midi.NoteOffEvent(tick=0, channel=9, data=[38, 95]),
   midi.NoteOnEvent(tick=0, channel=9, data=[46, 95]),
   midi.NoteOnEvent(tick=0, channel=9, data=[35, 95]),
   midi.NoteOffEvent(tick=480, channel=9, data=[46, 95]),
   midi.NoteOffEvent(tick=0, channel=9, data=[35, 95]),
   midi.NoteOnEvent(tick=0, channel=9, data=[46, 95]),
   midi.NoteOnEvent(tick=0, channel=9, data=[38, 95]),
   midi.NoteOffEvent(tick=480, channel=9, data=[46, 95]),
   midi.NoteOffEvent(tick=0, channel=9, data=[38, 95]),
   midi.NoteOnEvent(tick=0, channel=9, data=[46, 95]),
   midi.NoteOnEvent(tick=0, channel=9, data=[35, 95]),
   midi.NoteOffEvent(tick=480, channel=9, data=[46, 95]),
   midi.NoteOffEvent(tick=0, channel=9, data=[35, 95]),
   midi.NoteOnEvent(tick=0, channel=9, data=[46, 95]),
   midi.NoteOnEvent(tick=0, channel=9, data=[38, 95]),
   midi.NoteOffEvent(tick=480, channel=9, data=[46, 95]),
   midi.NoteOffEvent(tick=0, channel=9, data=[38, 95]),
   midi.NoteOnEvent(tick=0, channel=9, data=[46, 95]),
   midi.NoteOnEvent(tick=0, channel=9, data=[35, 95]),
   midi.NoteOffEvent(tick=480, channel=9, data=[46, 95]),
   midi.NoteOffEvent(tick=0, channel=9, data=[35, 95]),
   midi.NoteOnEvent(tick=0, channel=9, data=[46, 95]),
   midi.NoteOnEvent(tick=0, channel=9, data=[38, 95]),
   midi.NoteOffEvent(tick=480, channel=9, data=[46, 95]),
   midi.NoteOffEvent(tick=0, channel=9, data=[38, 95]),
   midi.NoteOnEvent(tick=0, channel=9, data=[46, 95]),
   midi.NoteOnEvent(tick=0, channel=9, data=[35, 95]),
   midi.NoteOffEvent(tick=480, channel=9, data=[46, 95]),
   midi.NoteOffEvent(tick=0, channel=9, data=[35, 95]),
   midi.NoteOnEvent(tick=0, channel=9, data=[46, 95]),
   midi.NoteOnEvent(tick=0, channel=9, data=[38, 95]),
   midi.NoteOffEvent(tick=480, channel=9, data=[46, 95]),
   midi.NoteOffEvent(tick=0, channel=9, data=[38, 95]),
   midi.NoteOnEvent(tick=0, channel=9, data=[46, 95]),
   midi.NoteOnEvent(tick=0, channel=9, data=[35, 95]),
   midi.NoteOffEvent(tick=480, channel=9, data=[46, 95]),
   midi.NoteOffEvent(tick=0, channel=9, data=[35, 95]),
   midi.NoteOnEvent(tick=0, channel=9, data=[46, 95]),
   midi.NoteOnEvent(tick=0, channel=9, data=[38, 95]),
   midi.NoteOffEvent(tick=480, channel=9, data=[46, 95]),
   midi.NoteOffEvent(tick=0, channel=9, data=[38, 95]),
   midi.NoteOnEvent(tick=0, channel=9, data=[46, 95]),
   midi.NoteOnEvent(tick=0, channel=9, data=[35, 95]),
   midi.NoteOffEvent(tick=480, channel=9, data=[46, 95]),
   midi.NoteOffEvent(tick=0, channel=9, data=[35, 95]),
   midi.NoteOnEvent(tick=0, channel=9, data=[46, 95]),
   midi.NoteOnEvent(tick=0, channel=9, data=[38, 95]),
   midi.NoteOffEvent(tick=480, channel=9, data=[46, 95]),
   midi.NoteOffEvent(tick=0, channel=9, data=[38, 95]),
   midi.NoteOnEvent(tick=0, channel=9, data=[49, 95]),
   midi.NoteOnEvent(tick=0, channel=9, data=[35, 95]),
   midi.NoteOffEvent(tick=480, channel=9, data=[49, 95]),
   midi.NoteOffEvent(tick=0, channel=9, data=[35, 95]),
   midi.NoteOnEvent(tick=0, channel=9, data=[46, 95]),
   midi.NoteOnEvent(tick=0, channel=9, data=[38, 95]),
   midi.NoteOffEvent(tick=480, channel=9, data=[46, 95]),
   midi.NoteOffEvent(tick=0, channel=9, data=[38, 95]),
   midi.NoteOnEvent(tick=0, channel=9, data=[46, 95]),
   midi.NoteOnEvent(tick=0, channel=9, data=[35, 95]),
   midi.NoteOffEvent(tick=480, channel=9, data=[46, 95]),
   midi.NoteOffEvent(tick=0, channel=9, data=[35, 95]),
   midi.NoteOnEvent(tick=0, channel=9, data=[46, 95]),
   midi.NoteOnEvent(tick=0, channel=9, data=[38, 95]),
   midi.NoteOffEvent(tick=480, channel=9, data=[46, 95]),
   midi.NoteOffEvent(tick=0, channel=9, data=[38, 95]),
   midi.NoteOnEvent(tick=0, channel=9, data=[46, 95]),
   midi.NoteOnEvent(tick=0, channel=9, data=[35, 95]),
   midi.NoteOffEvent(tick=480, channel=9, data=[46, 95]),
   midi.NoteOffEvent(tick=0, channel=9, data=[35, 95]),
   midi.NoteOnEvent(tick=0, channel=9, data=[46, 95]),
   midi.NoteOnEvent(tick=0, channel=9, data=[38, 95]),
   midi.NoteOffEvent(tick=480, channel=9, data=[46, 95]),
   midi.NoteOffEvent(tick=0, channel=9, data=[38, 95]),
   midi.NoteOnEvent(tick=0, channel=9, data=[46, 95]),
   midi.NoteOnEvent(tick=0, channel=9, data=[35, 95]),
   midi.NoteOffEvent(tick=480, channel=9, data=[46, 95]),
   midi.NoteOffEvent(tick=0, channel=9, data=[35, 95]),
   midi.NoteOnEvent(tick=0, channel=9, data=[46, 95]),
   midi.NoteOnEvent(tick=0, channel=9, data=[38, 95]),
   midi.NoteOffEvent(tick=480, channel=9, data=[46, 95]),
   midi.NoteOffEvent(tick=0, channel=9, data=[38, 95]),
   midi.NoteOnEvent(tick=0, channel=9, data=[49, 95]),
   midi.NoteOnEvent(tick=0, channel=9, data=[35, 95]),
   midi.NoteOffEvent(tick=480, channel=9, data=[49, 95]),
   midi.NoteOffEvent(tick=0, channel=9, data=[35, 95]),
   midi.NoteOnEvent(tick=0, channel=9, data=[46, 95]),
   midi.NoteOnEvent(tick=0, channel=9, data=[38, 95]),
   midi.NoteOffEvent(tick=480, channel=9, data=[46, 95]),
   midi.NoteOffEvent(tick=0, channel=9, data=[38, 95]),
   midi.NoteOnEvent(tick=0, channel=9, data=[46, 95]),
   midi.NoteOnEvent(tick=0, channel=9, data=[35, 95]),
   midi.NoteOffEvent(tick=480, channel=9, data=[46, 95]),
   midi.NoteOffEvent(tick=0, channel=9, data=[35, 95]),
   midi.NoteOnEvent(tick=0, channel=9, data=[46, 95]),
   midi.NoteOnEvent(tick=0, channel=9, data=[38, 95]),
   midi.NoteOffEvent(tick=480, channel=9, data=[46, 95]),
   midi.NoteOffEvent(tick=0, channel=9, data=[38, 95]),
   midi.NoteOnEvent(tick=0, channel=9, data=[46, 95]),
   midi.NoteOnEvent(tick=0, channel=9, data=[35, 95]),
   midi.NoteOffEvent(tick=480, channel=9, data=[46, 95]),
   midi.NoteOffEvent(tick=0, channel=9, data=[35, 95]),
   midi.NoteOnEvent(tick=0, channel=9, data=[46, 95]),
   midi.NoteOnEvent(tick=0, channel=9, data=[38, 95]),
   midi.NoteOffEvent(tick=480, channel=9, data=[46, 95]),
   midi.NoteOffEvent(tick=0, channel=9, data=[38, 95]),
   midi.NoteOnEvent(tick=0, channel=9, data=[46, 95]),
   midi.NoteOnEvent(tick=0, channel=9, data=[35, 95]),
   midi.NoteOffEvent(tick=480, channel=9, data=[46, 95]),
   midi.NoteOffEvent(tick=0, channel=9, data=[35, 95]),
   midi.NoteOnEvent(tick=0, channel=9, data=[46, 95]),
   midi.NoteOnEvent(tick=0, channel=9, data=[38, 95]),
   midi.NoteOffEvent(tick=480, channel=9, data=[46, 95]),
   midi.NoteOffEvent(tick=0, channel=9, data=[38, 95]),
   midi.NoteOnEvent(tick=0, channel=9, data=[46, 95]),
   midi.NoteOnEvent(tick=0, channel=9, data=[35, 95]),
   midi.NoteOffEvent(tick=480, channel=9, data=[46, 95]),
   midi.NoteOffEvent(tick=0, channel=9, data=[35, 95]),
   midi.NoteOnEvent(tick=0, channel=9, data=[46, 95]),
   midi.NoteOnEvent(tick=0, channel=9, data=[38, 95]),
   midi.NoteOffEvent(tick=480, channel=9, data=[46, 95]),
   midi.NoteOffEvent(tick=0, channel=9, data=[38, 95]),
   midi.NoteOnEvent(tick=0, channel=9, data=[46, 95]),
   midi.NoteOnEvent(tick=0, channel=9, data=[35, 95]),
   midi.NoteOffEvent(tick=480, channel=9, data=[46, 95]),
   midi.NoteOffEvent(tick=0, channel=9, data=[35, 95]),
   midi.NoteOnEvent(tick=0, channel=9, data=[46, 95]),
   midi.NoteOnEvent(tick=0, channel=9, data=[38, 95]),
   midi.NoteOffEvent(tick=480, channel=9, data=[46, 95]),
   midi.NoteOffEvent(tick=0, channel=9, data=[38, 95]),
   midi.NoteOnEvent(tick=0, channel=9, data=[46, 95]),
   midi.NoteOnEvent(tick=0, channel=9, data=[35, 95]),
   midi.NoteOffEvent(tick=480, channel=9, data=[46, 95]),
   midi.NoteOffEvent(tick=0, channel=9, data=[35, 95]),
   midi.NoteOnEvent(tick=0, channel=9, data=[46, 95]),
   midi.NoteOnEvent(tick=0, channel=9, data=[38, 95]),
   midi.NoteOffEvent(tick=480, channel=9, data=[46, 95]),
   midi.NoteOffEvent(tick=0, channel=9, data=[38, 95]),
   midi.NoteOnEvent(tick=0, channel=9, data=[46, 95]),
   midi.NoteOnEvent(tick=0, channel=9, data=[35, 95]),
   midi.NoteOffEvent(tick=480, channel=9, data=[46, 95]),
   midi.NoteOffEvent(tick=0, channel=9, data=[35, 95]),
   midi.NoteOnEvent(tick=0, channel=9, data=[46, 95]),
   midi.NoteOnEvent(tick=0, channel=9, data=[38, 95]),
   midi.NoteOffEvent(tick=480, channel=9, data=[46, 95]),
   midi.NoteOffEvent(tick=0, channel=9, data=[38, 95]),
   midi.NoteOnEvent(tick=0, channel=9, data=[49, 95]),
   midi.NoteOnEvent(tick=0, channel=9, data=[35, 95]),
   midi.NoteOffEvent(tick=480, channel=9, data=[49, 95]),
   midi.NoteOffEvent(tick=0, channel=9, data=[35, 95]),
   midi.NoteOnEvent(tick=0, channel=9, data=[46, 95]),
   midi.NoteOnEvent(tick=0, channel=9, data=[38, 95]),
   midi.NoteOffEvent(tick=480, channel=9, data=[46, 95]),
   midi.NoteOffEvent(tick=0, channel=9, data=[38, 95]),
   midi.NoteOnEvent(tick=0, channel=9, data=[46, 95]),
   midi.NoteOnEvent(tick=0, channel=9, data=[35, 95]),
   midi.NoteOffEvent(tick=480, channel=9, data=[46, 95]),
   midi.NoteOffEvent(tick=0, channel=9, data=[35, 95]),
   midi.NoteOnEvent(tick=0, channel=9, data=[46, 95]),
   midi.NoteOnEvent(tick=0, channel=9, data=[38, 95]),
   midi.NoteOffEvent(tick=480, channel=9, data=[46, 95]),
   midi.NoteOffEvent(tick=0, channel=9, data=[38, 95]),
   midi.NoteOnEvent(tick=0, channel=9, data=[46, 95]),
   midi.NoteOnEvent(tick=0, channel=9, data=[35, 95]),
   midi.NoteOffEvent(tick=480, channel=9, data=[46, 95]),
   midi.NoteOffEvent(tick=0, channel=9, data=[35, 95]),
   midi.NoteOnEvent(tick=0, channel=9, data=[46, 95]),
   midi.NoteOnEvent(tick=0, channel=9, data=[38, 95]),
   midi.NoteOffEvent(tick=480, channel=9, data=[46, 95]),
   midi.NoteOffEvent(tick=0, channel=9, data=[38, 95]),
   midi.NoteOnEvent(tick=0, channel=9, data=[46, 95]),
   midi.NoteOnEvent(tick=0, channel=9, data=[35, 95]),
   midi.NoteOffEvent(tick=480, channel=9, data=[46, 95]),
   midi.NoteOffEvent(tick=0, channel=9, data=[35, 95]),
   midi.NoteOnEvent(tick=0, channel=9, data=[46, 95]),
   midi.NoteOnEvent(tick=0, channel=9, data=[38, 95]),
   midi.NoteOffEvent(tick=480, channel=9, data=[46, 95]),
   midi.NoteOffEvent(tick=0, channel=9, data=[38, 95]),
   midi.NoteOnEvent(tick=0, channel=9, data=[46, 95]),
   midi.NoteOnEvent(tick=0, channel=9, data=[35, 95]),
   midi.NoteOffEvent(tick=480, channel=9, data=[46, 95]),
   midi.NoteOffEvent(tick=0, channel=9, data=[35, 95]),
   midi.NoteOnEvent(tick=0, channel=9, data=[46, 95]),
   midi.NoteOnEvent(tick=0, channel=9, data=[38, 95]),
   midi.NoteOffEvent(tick=480, channel=9, data=[46, 95]),
   midi.NoteOffEvent(tick=0, channel=9, data=[38, 95]),
   midi.NoteOnEvent(tick=0, channel=9, data=[46, 95]),
   midi.NoteOnEvent(tick=0, channel=9, data=[35, 95]),
   midi.NoteOffEvent(tick=480, channel=9, data=[46, 95]),
   midi.NoteOffEvent(tick=0, channel=9, data=[35, 95]),
   midi.NoteOnEvent(tick=0, channel=9, data=[46, 95]),
   midi.NoteOnEvent(tick=0, channel=9, data=[38, 95]),
   midi.NoteOffEvent(tick=480, channel=9, data=[46, 95]),
   midi.NoteOffEvent(tick=0, channel=9, data=[38, 95]),
   midi.NoteOnEvent(tick=0, channel=9, data=[46, 95]),
   midi.NoteOnEvent(tick=0, channel=9, data=[35, 95]),
   midi.NoteOffEvent(tick=480, channel=9, data=[46, 95]),
   midi.NoteOffEvent(tick=0, channel=9, data=[35, 95]),
   midi.NoteOnEvent(tick=0, channel=9, data=[46, 95]),
   midi.NoteOnEvent(tick=0, channel=9, data=[38, 95]),
   midi.NoteOffEvent(tick=480, channel=9, data=[46, 95]),
   midi.NoteOffEvent(tick=0, channel=9, data=[38, 95]),
   midi.NoteOnEvent(tick=0, channel=9, data=[46, 95]),
   midi.NoteOnEvent(tick=0, channel=9, data=[35, 95]),
   midi.NoteOffEvent(tick=480, channel=9, data=[46, 95]),
   midi.NoteOffEvent(tick=0, channel=9, data=[35, 95]),
   midi.NoteOnEvent(tick=0, channel=9, data=[46, 95]),
   midi.NoteOnEvent(tick=0, channel=9, data=[38, 95]),
   midi.NoteOffEvent(tick=480, channel=9, data=[46, 95]),
   midi.NoteOffEvent(tick=0, channel=9, data=[38, 95]),
   midi.NoteOnEvent(tick=0, channel=9, data=[46, 95]),
   midi.NoteOnEvent(tick=0, channel=9, data=[35, 95]),
   midi.NoteOffEvent(tick=480, channel=9, data=[46, 95]),
   midi.NoteOffEvent(tick=0, channel=9, data=[35, 95]),
   midi.NoteOnEvent(tick=0, channel=9, data=[46, 95]),
   midi.NoteOnEvent(tick=0, channel=9, data=[38, 95]),
   midi.NoteOffEvent(tick=480, channel=9, data=[46, 95]),
   midi.NoteOffEvent(tick=0, channel=9, data=[38, 95]),
   midi.NoteOnEvent(tick=0, channel=9, data=[46, 95]),
   midi.NoteOnEvent(tick=0, channel=9, data=[35, 95]),
   midi.NoteOffEvent(tick=480, channel=9, data=[46, 95]),
   midi.NoteOffEvent(tick=0, channel=9, data=[35, 95]),
   midi.NoteOnEvent(tick=0, channel=9, data=[46, 95]),
   midi.NoteOnEvent(tick=0, channel=9, data=[38, 95]),
   midi.NoteOffEvent(tick=480, channel=9, data=[46, 95]),
   midi.NoteOffEvent(tick=0, channel=9, data=[38, 95]),
   midi.NoteOnEvent(tick=0, channel=9, data=[46, 95]),
   midi.NoteOnEvent(tick=0, channel=9, data=[35, 95]),
   midi.NoteOffEvent(tick=480, channel=9, data=[46, 95]),
   midi.NoteOffEvent(tick=0, channel=9, data=[35, 95]),
   midi.NoteOnEvent(tick=0, channel=9, data=[46, 95]),
   midi.NoteOnEvent(tick=0, channel=9, data=[38, 95]),
   midi.NoteOffEvent(tick=480, channel=9, data=[46, 95]),
   midi.NoteOffEvent(tick=0, channel=9, data=[38, 95]),
   midi.NoteOnEvent(tick=0, channel=9, data=[46, 95]),
   midi.NoteOnEvent(tick=0, channel=9, data=[35, 95]),
   midi.NoteOffEvent(tick=480, channel=9, data=[46, 95]),
   midi.NoteOffEvent(tick=0, channel=9, data=[35, 95]),
   midi.NoteOnEvent(tick=0, channel=9, data=[46, 95]),
   midi.NoteOnEvent(tick=0, channel=9, data=[38, 95]),
   midi.NoteOffEvent(tick=480, channel=9, data=[46, 95]),
   midi.NoteOffEvent(tick=0, channel=9, data=[38, 95]),
   midi.NoteOnEvent(tick=0, channel=9, data=[49, 95]),
   midi.NoteOnEvent(tick=0, channel=9, data=[35, 95]),
   midi.NoteOffEvent(tick=480, channel=9, data=[49, 95]),
   midi.NoteOffEvent(tick=0, channel=9, data=[35, 95]),
   midi.NoteOnEvent(tick=0, channel=9, data=[46, 95]),
   midi.NoteOnEvent(tick=0, channel=9, data=[38, 95]),
   midi.NoteOffEvent(tick=480, channel=9, data=[46, 95]),
   midi.NoteOffEvent(tick=0, channel=9, data=[38, 95]),
   midi.NoteOnEvent(tick=0, channel=9, data=[46, 95]),
   midi.NoteOnEvent(tick=0, channel=9, data=[35, 95]),
   midi.NoteOffEvent(tick=480, channel=9, data=[46, 95]),
   midi.NoteOffEvent(tick=0, channel=9, data=[35, 95]),
   midi.NoteOnEvent(tick=0, channel=9, data=[46, 95]),
   midi.NoteOnEvent(tick=0, channel=9, data=[38, 95]),
   midi.NoteOffEvent(tick=480, channel=9, data=[46, 95]),
   midi.NoteOffEvent(tick=0, channel=9, data=[38, 95]),
   midi.NoteOnEvent(tick=0, channel=9, data=[46, 95]),
   midi.NoteOnEvent(tick=0, channel=9, data=[35, 95]),
   midi.NoteOffEvent(tick=480, channel=9, data=[46, 95]),
   midi.NoteOffEvent(tick=0, channel=9, data=[35, 95]),
   midi.NoteOnEvent(tick=0, channel=9, data=[46, 95]),
   midi.NoteOnEvent(tick=0, channel=9, data=[38, 95]),
   midi.NoteOffEvent(tick=480, channel=9, data=[46, 95]),
   midi.NoteOffEvent(tick=0, channel=9, data=[38, 95]),
   midi.NoteOnEvent(tick=0, channel=9, data=[46, 95]),
   midi.NoteOnEvent(tick=0, channel=9, data=[35, 95]),
   midi.NoteOffEvent(tick=480, channel=9, data=[46, 95]),
   midi.NoteOffEvent(tick=0, channel=9, data=[35, 95]),
   midi.NoteOnEvent(tick=0, channel=9, data=[46, 95]),
   midi.NoteOnEvent(tick=0, channel=9, data=[38, 95]),
   midi.NoteOffEvent(tick=480, channel=9, data=[46, 95]),
   midi.NoteOffEvent(tick=0, channel=9, data=[38, 95]),
   midi.NoteOnEvent(tick=0, channel=9, data=[46, 95]),
   midi.NoteOnEvent(tick=0, channel=9, data=[35, 95]),
   midi.NoteOffEvent(tick=480, channel=9, data=[46, 95]),
   midi.NoteOffEvent(tick=0, channel=9, data=[35, 95]),
   midi.NoteOnEvent(tick=0, channel=9, data=[46, 95]),
   midi.NoteOnEvent(tick=0, channel=9, data=[38, 95]),
   midi.NoteOffEvent(tick=480, channel=9, data=[46, 95]),
   midi.NoteOffEvent(tick=0, channel=9, data=[38, 95]),
   midi.NoteOnEvent(tick=0, channel=9, data=[49, 95]),
   midi.NoteOnEvent(tick=0, channel=9, data=[35, 95]),
   midi.NoteOffEvent(tick=480, channel=9, data=[49, 95]),
   midi.NoteOffEvent(tick=0, channel=9, data=[35, 95]),
   midi.NoteOnEvent(tick=0, channel=9, data=[57, 95]),
   midi.NoteOnEvent(tick=0, channel=9, data=[38, 95]),
   midi.NoteOffEvent(tick=480, channel=9, data=[57, 95]),
   midi.NoteOffEvent(tick=0, channel=9, data=[38, 95]),
   midi.NoteOnEvent(tick=0, channel=9, data=[49, 95]),
   midi.NoteOnEvent(tick=0, channel=9, data=[35, 95]),
   midi.NoteOffEvent(tick=480, channel=9, data=[49, 95]),
   midi.NoteOffEvent(tick=0, channel=9, data=[35, 95]),
   midi.NoteOnEvent(tick=0, channel=9, data=[57, 95]),
   midi.NoteOnEvent(tick=0, channel=9, data=[38, 95]),
   midi.NoteOffEvent(tick=480, channel=9, data=[57, 95]),
   midi.NoteOffEvent(tick=0, channel=9, data=[38, 95]),
   midi.NoteOnEvent(tick=0, channel=9, data=[49, 95]),
   midi.NoteOnEvent(tick=0, channel=9, data=[35, 95]),
   midi.NoteOffEvent(tick=480, channel=9, data=[49, 95]),
   midi.NoteOffEvent(tick=0, channel=9, data=[35, 95]),
   midi.NoteOnEvent(tick=0, channel=9, data=[57, 95]),
   midi.NoteOnEvent(tick=0, channel=9, data=[38, 95]),
   midi.NoteOffEvent(tick=480, channel=9, data=[57, 95]),
   midi.NoteOffEvent(tick=0, channel=9, data=[38, 95]),
   midi.NoteOnEvent(tick=0, channel=9, data=[49, 95]),
   midi.NoteOnEvent(tick=0, channel=9, data=[35, 95]),
   midi.NoteOffEvent(tick=480, channel=9, data=[49, 95]),
   midi.NoteOffEvent(tick=0, channel=9, data=[35, 95]),
   midi.NoteOnEvent(tick=0, channel=9, data=[46, 95]),
   midi.NoteOnEvent(tick=0, channel=9, data=[38, 95]),
   midi.NoteOffEvent(tick=480, channel=9, data=[46, 95]),
   midi.NoteOffEvent(tick=0, channel=9, data=[38, 95]),
   midi.NoteOnEvent(tick=0, channel=9, data=[46, 95]),
   midi.NoteOnEvent(tick=0, channel=9, data=[35, 95]),
   midi.NoteOffEvent(tick=480, channel=9, data=[46, 95]),
   midi.NoteOffEvent(tick=0, channel=9, data=[35, 95]),
   midi.NoteOnEvent(tick=0, channel=9, data=[46, 95]),
   midi.NoteOnEvent(tick=0, channel=9, data=[38, 95]),
   midi.NoteOffEvent(tick=480, channel=9, data=[46, 95]),
   midi.NoteOffEvent(tick=0, channel=9, data=[38, 95]),
   midi.NoteOnEvent(tick=0, channel=9, data=[46, 95]),
   midi.NoteOnEvent(tick=0, channel=9, data=[35, 95]),
   midi.NoteOffEvent(tick=480, channel=9, data=[46, 95]),
   midi.NoteOffEvent(tick=0, channel=9, data=[35, 95]),
   midi.NoteOnEvent(tick=0, channel=9, data=[46, 95]),
   midi.NoteOnEvent(tick=0, channel=9, data=[38, 95]),
   midi.NoteOffEvent(tick=480, channel=9, data=[46, 95]),
   midi.NoteOffEvent(tick=0, channel=9, data=[38, 95]),
   midi.NoteOnEvent(tick=0, channel=9, data=[46, 95]),
   midi.NoteOnEvent(tick=0, channel=9, data=[35, 95]),
   midi.NoteOffEvent(tick=480, channel=9, data=[46, 95]),
   midi.NoteOffEvent(tick=0, channel=9, data=[35, 95]),
   midi.NoteOnEvent(tick=0, channel=9, data=[46, 95]),
   midi.NoteOnEvent(tick=0, channel=9, data=[38, 95]),
   midi.NoteOffEvent(tick=480, channel=9, data=[46, 95]),
   midi.NoteOffEvent(tick=0, channel=9, data=[38, 95]),
   midi.NoteOnEvent(tick=0, channel=9, data=[46, 95]),
   midi.NoteOnEvent(tick=0, channel=9, data=[35, 95]),
   midi.NoteOffEvent(tick=480, channel=9, data=[46, 95]),
   midi.NoteOffEvent(tick=0, channel=9, data=[35, 95]),
   midi.NoteOnEvent(tick=0, channel=9, data=[46, 95]),
   midi.NoteOnEvent(tick=0, channel=9, data=[38, 95]),
   midi.NoteOffEvent(tick=480, channel=9, data=[46, 95]),
   midi.NoteOffEvent(tick=0, channel=9, data=[38, 95]),
   midi.NoteOnEvent(tick=0, channel=9, data=[46, 95]),
   midi.NoteOnEvent(tick=0, channel=9, data=[35, 95]),
   midi.NoteOffEvent(tick=480, channel=9, data=[46, 95]),
   midi.NoteOffEvent(tick=0, channel=9, data=[35, 95]),
   midi.NoteOnEvent(tick=0, channel=9, data=[46, 95]),
   midi.NoteOnEvent(tick=0, channel=9, data=[38, 95]),
   midi.NoteOffEvent(tick=480, channel=9, data=[46, 95]),
   midi.NoteOffEvent(tick=0, channel=9, data=[38, 95]),
   midi.NoteOnEvent(tick=0, channel=9, data=[46, 95]),
   midi.NoteOnEvent(tick=0, channel=9, data=[35, 95]),
   midi.NoteOffEvent(tick=480, channel=9, data=[46, 95]),
   midi.NoteOffEvent(tick=0, channel=9, data=[35, 95]),
   midi.NoteOnEvent(tick=0, channel=9, data=[46, 95]),
   midi.NoteOnEvent(tick=0, channel=9, data=[38, 95]),
   midi.NoteOffEvent(tick=480, channel=9, data=[46, 95]),
   midi.NoteOffEvent(tick=0, channel=9, data=[38, 95]),
   midi.NoteOnEvent(tick=0, channel=9, data=[46, 95]),
   midi.NoteOnEvent(tick=0, channel=9, data=[35, 95]),
   midi.NoteOffEvent(tick=480, channel=9, data=[46, 95]),
   midi.NoteOffEvent(tick=0, channel=9, data=[35, 95]),
   midi.NoteOnEvent(tick=0, channel=9, data=[46, 95]),
   midi.NoteOnEvent(tick=0, channel=9, data=[38, 95]),
   midi.NoteOffEvent(tick=480, channel=9, data=[46, 95]),
   midi.NoteOffEvent(tick=0, channel=9, data=[38, 95]),
   midi.NoteOnEvent(tick=0, channel=9, data=[49, 95]),
   midi.NoteOnEvent(tick=0, channel=9, data=[35, 95]),
   midi.NoteOffEvent(tick=480, channel=9, data=[49, 95]),
   midi.NoteOffEvent(tick=0, channel=9, data=[35, 95]),
   midi.NoteOnEvent(tick=0, channel=9, data=[46, 95]),
   midi.NoteOnEvent(tick=0, channel=9, data=[38, 95]),
   midi.NoteOffEvent(tick=480, channel=9, data=[46, 95]),
   midi.NoteOffEvent(tick=0, channel=9, data=[38, 95]),
   midi.NoteOnEvent(tick=0, channel=9, data=[46, 95]),
   midi.NoteOnEvent(tick=0, channel=9, data=[35, 95]),
   midi.NoteOffEvent(tick=480, channel=9, data=[46, 95]),
   midi.NoteOffEvent(tick=0, channel=9, data=[35, 95]),
   midi.NoteOnEvent(tick=0, channel=9, data=[46, 95]),
   midi.NoteOnEvent(tick=0, channel=9, data=[38, 95]),
   midi.NoteOffEvent(tick=480, channel=9, data=[46, 95]),
   midi.NoteOffEvent(tick=0, channel=9, data=[38, 95]),
   midi.NoteOnEvent(tick=0, channel=9, data=[49, 95]),
   midi.NoteOnEvent(tick=0, channel=9, data=[35, 95]),
   midi.NoteOffEvent(tick=480, channel=9, data=[49, 95]),
   midi.NoteOffEvent(tick=0, channel=9, data=[35, 95]),
   midi.NoteOnEvent(tick=0, channel=9, data=[46, 95]),
   midi.NoteOnEvent(tick=0, channel=9, data=[38, 95]),
   midi.NoteOffEvent(tick=480, channel=9, data=[46, 95]),
   midi.NoteOffEvent(tick=0, channel=9, data=[38, 95]),
   midi.NoteOnEvent(tick=0, channel=9, data=[46, 95]),
   midi.NoteOnEvent(tick=0, channel=9, data=[35, 95]),
   midi.NoteOffEvent(tick=480, channel=9, data=[46, 95]),
   midi.NoteOffEvent(tick=0, channel=9, data=[35, 95]),
   midi.NoteOnEvent(tick=0, channel=9, data=[46, 95]),
   midi.NoteOnEvent(tick=0, channel=9, data=[38, 95]),
   midi.NoteOffEvent(tick=480, channel=9, data=[46, 95]),
   midi.NoteOffEvent(tick=0, channel=9, data=[38, 95]),
   midi.NoteOnEvent(tick=0, channel=9, data=[46, 95]),
   midi.NoteOnEvent(tick=0, channel=9, data=[35, 95]),
   midi.NoteOffEvent(tick=480, channel=9, data=[46, 95]),
   midi.NoteOffEvent(tick=0, channel=9, data=[35, 95]),
   midi.NoteOnEvent(tick=0, channel=9, data=[46, 95]),
   midi.NoteOnEvent(tick=0, channel=9, data=[38, 95]),
   midi.NoteOffEvent(tick=480, channel=9, data=[46, 95]),
   midi.NoteOffEvent(tick=0, channel=9, data=[38, 95]),
   midi.NoteOnEvent(tick=0, channel=9, data=[46, 95]),
   midi.NoteOnEvent(tick=0, channel=9, data=[35, 95]),
   midi.NoteOffEvent(tick=480, channel=9, data=[46, 95]),
   midi.NoteOffEvent(tick=0, channel=9, data=[35, 95]),
   midi.NoteOnEvent(tick=0, channel=9, data=[46, 95]),
   midi.NoteOnEvent(tick=0, channel=9, data=[38, 95]),
   midi.NoteOffEvent(tick=480, channel=9, data=[46, 95]),
   midi.NoteOffEvent(tick=0, channel=9, data=[38, 95]),
   midi.NoteOnEvent(tick=0, channel=9, data=[46, 95]),
   midi.NoteOnEvent(tick=0, channel=9, data=[35, 95]),
   midi.NoteOffEvent(tick=480, channel=9, data=[46, 95]),
   midi.NoteOffEvent(tick=0, channel=9, data=[35, 95]),
   midi.NoteOnEvent(tick=0, channel=9, data=[46, 95]),
   midi.NoteOnEvent(tick=0, channel=9, data=[38, 95]),
   midi.NoteOffEvent(tick=480, channel=9, data=[46, 95]),
   midi.NoteOffEvent(tick=0, channel=9, data=[38, 95]),
   midi.NoteOnEvent(tick=0, channel=9, data=[46, 95]),
   midi.NoteOnEvent(tick=0, channel=9, data=[35, 95]),
   midi.NoteOffEvent(tick=480, channel=9, data=[46, 95]),
   midi.NoteOffEvent(tick=0, channel=9, data=[35, 95]),
   midi.NoteOnEvent(tick=0, channel=9, data=[46, 95]),
   midi.NoteOnEvent(tick=0, channel=9, data=[38, 95]),
   midi.NoteOffEvent(tick=480, channel=9, data=[46, 95]),
   midi.NoteOffEvent(tick=0, channel=9, data=[38, 95]),
   midi.NoteOnEvent(tick=0, channel=9, data=[46, 95]),
   midi.NoteOnEvent(tick=0, channel=9, data=[35, 95]),
   midi.NoteOffEvent(tick=480, channel=9, data=[46, 95]),
   midi.NoteOffEvent(tick=0, channel=9, data=[35, 95]),
   midi.NoteOnEvent(tick=0, channel=9, data=[46, 95]),
   midi.NoteOnEvent(tick=0, channel=9, data=[38, 95]),
   midi.NoteOffEvent(tick=480, channel=9, data=[46, 95]),
   midi.NoteOffEvent(tick=0, channel=9, data=[38, 95]),
   midi.NoteOnEvent(tick=0, channel=9, data=[46, 95]),
   midi.NoteOnEvent(tick=0, channel=9, data=[35, 95]),
   midi.NoteOffEvent(tick=480, channel=9, data=[46, 95]),
   midi.NoteOffEvent(tick=0, channel=9, data=[35, 95]),
   midi.NoteOnEvent(tick=0, channel=9, data=[46, 95]),
   midi.NoteOnEvent(tick=0, channel=9, data=[38, 95]),
   midi.NoteOffEvent(tick=480, channel=9, data=[46, 95]),
   midi.NoteOffEvent(tick=0, channel=9, data=[38, 95]),
   midi.NoteOnEvent(tick=0, channel=9, data=[49, 95]),
   midi.NoteOnEvent(tick=0, channel=9, data=[35, 95]),
   midi.NoteOffEvent(tick=480, channel=9, data=[49, 95]),
   midi.NoteOffEvent(tick=0, channel=9, data=[35, 95]),
   midi.NoteOnEvent(tick=0, channel=9, data=[46, 95]),
   midi.NoteOnEvent(tick=0, channel=9, data=[38, 95]),
   midi.NoteOffEvent(tick=480, channel=9, data=[46, 95]),
   midi.NoteOffEvent(tick=0, channel=9, data=[38, 95]),
   midi.NoteOnEvent(tick=0, channel=9, data=[46, 95]),
   midi.NoteOnEvent(tick=0, channel=9, data=[35, 95]),
   midi.NoteOffEvent(tick=480, channel=9, data=[46, 95]),
   midi.NoteOffEvent(tick=0, channel=9, data=[35, 95]),
   midi.NoteOnEvent(tick=0, channel=9, data=[46, 95]),
   midi.NoteOnEvent(tick=0, channel=9, data=[38, 95]),
   midi.NoteOffEvent(tick=480, channel=9, data=[46, 95]),
   midi.NoteOffEvent(tick=0, channel=9, data=[38, 95]),
   midi.NoteOnEvent(tick=0, channel=9, data=[49, 95]),
   midi.NoteOnEvent(tick=0, channel=9, data=[35, 95]),
   midi.NoteOffEvent(tick=480, channel=9, data=[49, 95]),
   midi.NoteOffEvent(tick=0, channel=9, data=[35, 95]),
   midi.NoteOnEvent(tick=0, channel=9, data=[46, 95]),
   midi.NoteOnEvent(tick=0, channel=9, data=[38, 95]),
   midi.NoteOffEvent(tick=480, channel=9, data=[46, 95]),
   midi.NoteOffEvent(tick=0, channel=9, data=[38, 95]),
   midi.NoteOnEvent(tick=0, channel=9, data=[46, 95]),
   midi.NoteOnEvent(tick=0, channel=9, data=[35, 95]),
   midi.NoteOffEvent(tick=480, channel=9, data=[46, 95]),
   midi.NoteOffEvent(tick=0, channel=9, data=[35, 95]),
   midi.NoteOnEvent(tick=0, channel=9, data=[46, 95]),
   midi.NoteOnEvent(tick=0, channel=9, data=[38, 95]),
   midi.NoteOffEvent(tick=480, channel=9, data=[46, 95]),
   midi.NoteOffEvent(tick=0, channel=9, data=[38, 95]),
   midi.NoteOnEvent(tick=0, channel=9, data=[46, 95]),
   midi.NoteOnEvent(tick=0, channel=9, data=[35, 95]),
   midi.NoteOffEvent(tick=480, channel=9, data=[46, 95]),
   midi.NoteOffEvent(tick=0, channel=9, data=[35, 95]),
   midi.NoteOnEvent(tick=0, channel=9, data=[46, 95]),
   midi.NoteOnEvent(tick=0, channel=9, data=[38, 95]),
   midi.NoteOffEvent(tick=480, channel=9, data=[46, 95]),
   midi.NoteOffEvent(tick=0, channel=9, data=[38, 95]),
   midi.NoteOnEvent(tick=0, channel=9, data=[46, 95]),
   midi.NoteOnEvent(tick=0, channel=9, data=[35, 95]),
   midi.NoteOffEvent(tick=480, channel=9, data=[46, 95]),
   midi.NoteOffEvent(tick=0, channel=9, data=[35, 95]),
   midi.NoteOnEvent(tick=0, channel=9, data=[46, 95]),
   midi.NoteOnEvent(tick=0, channel=9, data=[38, 95]),
   midi.NoteOffEvent(tick=480, channel=9, data=[46, 95]),
   midi.NoteOffEvent(tick=0, channel=9, data=[38, 95]),
   midi.NoteOnEvent(tick=0, channel=9, data=[46, 95]),
   midi.NoteOnEvent(tick=0, channel=9, data=[35, 95]),
   midi.NoteOffEvent(tick=480, channel=9, data=[46, 95]),
   midi.NoteOffEvent(tick=0, channel=9, data=[35, 95]),
   midi.NoteOnEvent(tick=0, channel=9, data=[46, 95]),
   midi.NoteOnEvent(tick=0, channel=9, data=[38, 95]),
   midi.NoteOffEvent(tick=480, channel=9, data=[46, 95]),
   midi.NoteOffEvent(tick=0, channel=9, data=[38, 95]),
   midi.NoteOnEvent(tick=0, channel=9, data=[46, 95]),
   midi.NoteOnEvent(tick=0, channel=9, data=[35, 95]),
   midi.NoteOffEvent(tick=480, channel=9, data=[46, 95]),
   midi.NoteOffEvent(tick=0, channel=9, data=[35, 95]),
   midi.NoteOnEvent(tick=0, channel=9, data=[46, 95]),
   midi.NoteOnEvent(tick=0, channel=9, data=[38, 95]),
   midi.NoteOffEvent(tick=480, channel=9, data=[46, 95]),
   midi.NoteOffEvent(tick=0, channel=9, data=[38, 95]),
   midi.NoteOnEvent(tick=0, channel=9, data=[46, 95]),
   midi.NoteOnEvent(tick=0, channel=9, data=[35, 95]),
   midi.NoteOffEvent(tick=480, channel=9, data=[46, 95]),
   midi.NoteOffEvent(tick=0, channel=9, data=[35, 95]),
   midi.NoteOnEvent(tick=0, channel=9, data=[46, 95]),
   midi.NoteOnEvent(tick=0, channel=9, data=[38, 95]),
   midi.NoteOffEvent(tick=480, channel=9, data=[46, 95]),
   midi.NoteOffEvent(tick=0, channel=9, data=[38, 95]),
   midi.NoteOnEvent(tick=0, channel=9, data=[46, 95]),
   midi.NoteOnEvent(tick=0, channel=9, data=[35, 95]),
   midi.NoteOffEvent(tick=480, channel=9, data=[46, 95]),
   midi.NoteOffEvent(tick=0, channel=9, data=[35, 95]),
   midi.NoteOnEvent(tick=0, channel=9, data=[46, 95]),
   midi.NoteOnEvent(tick=0, channel=9, data=[38, 95]),
   midi.NoteOffEvent(tick=480, channel=9, data=[46, 95]),
   midi.NoteOffEvent(tick=0, channel=9, data=[38, 95]),
   midi.NoteOnEvent(tick=0, channel=9, data=[49, 95]),
   midi.NoteOnEvent(tick=0, channel=9, data=[35, 95]),
   midi.NoteOffEvent(tick=480, channel=9, data=[49, 95]),
   midi.NoteOffEvent(tick=0, channel=9, data=[35, 95]),
   midi.NoteOnEvent(tick=0, channel=9, data=[46, 95]),
   midi.NoteOnEvent(tick=0, channel=9, data=[38, 95]),
   midi.NoteOffEvent(tick=480, channel=9, data=[46, 95]),
   midi.NoteOffEvent(tick=0, channel=9, data=[38, 95]),
   midi.NoteOnEvent(tick=0, channel=9, data=[46, 95]),
   midi.NoteOnEvent(tick=0, channel=9, data=[35, 95]),
   midi.NoteOffEvent(tick=480, channel=9, data=[46, 95]),
   midi.NoteOffEvent(tick=0, channel=9, data=[35, 95]),
   midi.NoteOnEvent(tick=0, channel=9, data=[46, 95]),
   midi.NoteOnEvent(tick=0, channel=9, data=[38, 95]),
   midi.NoteOffEvent(tick=480, channel=9, data=[46, 95]),
   midi.NoteOffEvent(tick=0, channel=9, data=[38, 95]),
   midi.NoteOnEvent(tick=0, channel=9, data=[49, 95]),
   midi.NoteOnEvent(tick=0, channel=9, data=[35, 95]),
   midi.NoteOffEvent(tick=480, channel=9, data=[49, 95]),
   midi.NoteOffEvent(tick=0, channel=9, data=[35, 95]),
   midi.NoteOnEvent(tick=0, channel=9, data=[46, 95]),
   midi.NoteOnEvent(tick=0, channel=9, data=[38, 95]),
   midi.NoteOffEvent(tick=480, channel=9, data=[46, 95]),
   midi.NoteOffEvent(tick=0, channel=9, data=[38, 95]),
   midi.NoteOnEvent(tick=0, channel=9, data=[46, 95]),
   midi.NoteOnEvent(tick=0, channel=9, data=[35, 95]),
   midi.NoteOffEvent(tick=480, channel=9, data=[46, 95]),
   midi.NoteOffEvent(tick=0, channel=9, data=[35, 95]),
   midi.NoteOnEvent(tick=0, channel=9, data=[46, 95]),
   midi.NoteOnEvent(tick=0, channel=9, data=[38, 95]),
   midi.NoteOffEvent(tick=480, channel=9, data=[46, 95]),
   midi.NoteOffEvent(tick=0, channel=9, data=[38, 95]),
   midi.NoteOnEvent(tick=0, channel=9, data=[46, 95]),
   midi.NoteOnEvent(tick=0, channel=9, data=[35, 95]),
   midi.NoteOffEvent(tick=480, channel=9, data=[46, 95]),
   midi.NoteOffEvent(tick=0, channel=9, data=[35, 95]),
   midi.NoteOnEvent(tick=0, channel=9, data=[46, 95]),
   midi.NoteOnEvent(tick=0, channel=9, data=[38, 95]),
   midi.NoteOffEvent(tick=480, channel=9, data=[46, 95]),
   midi.NoteOffEvent(tick=0, channel=9, data=[38, 95]),
   midi.NoteOnEvent(tick=0, channel=9, data=[46, 95]),
   midi.NoteOnEvent(tick=0, channel=9, data=[35, 95]),
   midi.NoteOffEvent(tick=480, channel=9, data=[46, 95]),
   midi.NoteOffEvent(tick=0, channel=9, data=[35, 95]),
   midi.NoteOnEvent(tick=0, channel=9, data=[46, 95]),
   midi.NoteOnEvent(tick=0, channel=9, data=[38, 95]),
   midi.NoteOffEvent(tick=480, channel=9, data=[46, 95]),
   midi.NoteOffEvent(tick=0, channel=9, data=[38, 95]),
   midi.NoteOnEvent(tick=0, channel=9, data=[46, 95]),
   midi.NoteOnEvent(tick=0, channel=9, data=[35, 95]),
   midi.NoteOffEvent(tick=480, channel=9, data=[46, 95]),
   midi.NoteOffEvent(tick=0, channel=9, data=[35, 95]),
   midi.NoteOnEvent(tick=0, channel=9, data=[46, 95]),
   midi.NoteOnEvent(tick=0, channel=9, data=[38, 95]),
   midi.NoteOffEvent(tick=480, channel=9, data=[46, 95]),
   midi.NoteOffEvent(tick=0, channel=9, data=[38, 95]),
   midi.NoteOnEvent(tick=0, channel=9, data=[46, 95]),
   midi.NoteOnEvent(tick=0, channel=9, data=[35, 95]),
   midi.NoteOffEvent(tick=480, channel=9, data=[46, 95]),
   midi.NoteOffEvent(tick=0, channel=9, data=[35, 95]),
   midi.NoteOnEvent(tick=0, channel=9, data=[46, 95]),
   midi.NoteOnEvent(tick=0, channel=9, data=[38, 95]),
   midi.NoteOffEvent(tick=480, channel=9, data=[46, 95]),
   midi.NoteOffEvent(tick=0, channel=9, data=[38, 95]),
   midi.NoteOnEvent(tick=0, channel=9, data=[46, 95]),
   midi.NoteOnEvent(tick=0, channel=9, data=[35, 95]),
   midi.NoteOffEvent(tick=480, channel=9, data=[46, 95]),
   midi.NoteOffEvent(tick=0, channel=9, data=[35, 95]),
   midi.NoteOnEvent(tick=0, channel=9, data=[46, 95]),
   midi.NoteOnEvent(tick=0, channel=9, data=[38, 95]),
   midi.NoteOffEvent(tick=480, channel=9, data=[46, 95]),
   midi.NoteOffEvent(tick=0, channel=9, data=[38, 95]),
   midi.NoteOnEvent(tick=0, channel=9, data=[46, 95]),
   midi.NoteOnEvent(tick=0, channel=9, data=[35, 95]),
   midi.NoteOffEvent(tick=480, channel=9, data=[46, 95]),
   midi.NoteOffEvent(tick=0, channel=9, data=[35, 95]),
   midi.NoteOnEvent(tick=0, channel=9, data=[46, 95]),
   midi.NoteOnEvent(tick=0, channel=9, data=[38, 95]),
   midi.NoteOffEvent(tick=480, channel=9, data=[46, 95]),
   midi.NoteOffEvent(tick=0, channel=9, data=[38, 95]),
   midi.NoteOnEvent(tick=0, channel=9, data=[49, 95]),
   midi.NoteOnEvent(tick=0, channel=9, data=[35, 95]),
   midi.NoteOffEvent(tick=480, channel=9, data=[49, 95]),
   midi.NoteOffEvent(tick=0, channel=9, data=[35, 95]),
   midi.NoteOnEvent(tick=0, channel=9, data=[46, 95]),
   midi.NoteOnEvent(tick=0, channel=9, data=[38, 95]),
   midi.NoteOffEvent(tick=480, channel=9, data=[46, 95]),
   midi.NoteOffEvent(tick=0, channel=9, data=[38, 95]),
   midi.NoteOnEvent(tick=0, channel=9, data=[46, 95]),
   midi.NoteOnEvent(tick=0, channel=9, data=[35, 95]),
   midi.NoteOffEvent(tick=480, channel=9, data=[46, 95]),
   midi.NoteOffEvent(tick=0, channel=9, data=[35, 95]),
   midi.NoteOnEvent(tick=0, channel=9, data=[46, 95]),
   midi.NoteOnEvent(tick=0, channel=9, data=[38, 95]),
   midi.NoteOffEvent(tick=480, channel=9, data=[46, 95]),
   midi.NoteOffEvent(tick=0, channel=9, data=[38, 95]),
   midi.NoteOnEvent(tick=0, channel=9, data=[49, 95]),
   midi.NoteOnEvent(tick=0, channel=9, data=[35, 95]),
   midi.NoteOffEvent(tick=480, channel=9, data=[49, 95]),
   midi.NoteOffEvent(tick=0, channel=9, data=[35, 95]),
   midi.NoteOnEvent(tick=0, channel=9, data=[46, 95]),
   midi.NoteOnEvent(tick=0, channel=9, data=[38, 95]),
   midi.NoteOffEvent(tick=480, channel=9, data=[46, 95]),
   midi.NoteOffEvent(tick=0, channel=9, data=[38, 95]),
   midi.NoteOnEvent(tick=0, channel=9, data=[46, 95]),
   midi.NoteOnEvent(tick=0, channel=9, data=[35, 95]),
   midi.NoteOffEvent(tick=480, channel=9, data=[46, 95]),
   midi.NoteOffEvent(tick=0, channel=9, data=[35, 95]),
   midi.NoteOnEvent(tick=0, channel=9, data=[46, 95]),
   midi.NoteOnEvent(tick=0, channel=9, data=[38, 95]),
   midi.NoteOffEvent(tick=480, channel=9, data=[46, 95]),
   midi.NoteOffEvent(tick=0, channel=9, data=[38, 95]),
   midi.NoteOnEvent(tick=0, channel=9, data=[46, 95]),
   midi.NoteOnEvent(tick=0, channel=9, data=[35, 95]),
   midi.NoteOffEvent(tick=480, channel=9, data=[46, 95]),
   midi.NoteOffEvent(tick=0, channel=9, data=[35, 95]),
   midi.NoteOnEvent(tick=0, channel=9, data=[46, 95]),
   midi.NoteOnEvent(tick=0, channel=9, data=[38, 95]),
   midi.NoteOffEvent(tick=480, channel=9, data=[46, 95]),
   midi.NoteOffEvent(tick=0, channel=9, data=[38, 95]),
   midi.NoteOnEvent(tick=0, channel=9, data=[46, 95]),
   midi.NoteOnEvent(tick=0, channel=9, data=[35, 95]),
   midi.NoteOffEvent(tick=480, channel=9, data=[46, 95]),
   midi.NoteOffEvent(tick=0, channel=9, data=[35, 95]),
   midi.NoteOnEvent(tick=0, channel=9, data=[46, 95]),
   midi.NoteOnEvent(tick=0, channel=9, data=[38, 95]),
   midi.NoteOffEvent(tick=480, channel=9, data=[46, 95]),
   midi.NoteOffEvent(tick=0, channel=9, data=[38, 95]),
   midi.NoteOnEvent(tick=0, channel=9, data=[46, 95]),
   midi.NoteOnEvent(tick=0, channel=9, data=[35, 95]),
   midi.NoteOffEvent(tick=480, channel=9, data=[46, 95]),
   midi.NoteOffEvent(tick=0, channel=9, data=[35, 95]),
   midi.NoteOnEvent(tick=0, channel=9, data=[46, 95]),
   midi.NoteOnEvent(tick=0, channel=9, data=[38, 95]),
   midi.NoteOffEvent(tick=480, channel=9, data=[46, 95]),
   midi.NoteOffEvent(tick=0, channel=9, data=[38, 95]),
   midi.NoteOnEvent(tick=0, channel=9, data=[46, 95]),
   midi.NoteOnEvent(tick=0, channel=9, data=[35, 95]),
   midi.NoteOffEvent(tick=480, channel=9, data=[46, 95]),
   midi.NoteOffEvent(tick=0, channel=9, data=[35, 95]),
   midi.NoteOnEvent(tick=0, channel=9, data=[46, 95]),
   midi.NoteOnEvent(tick=0, channel=9, data=[38, 95]),
   midi.NoteOffEvent(tick=480, channel=9, data=[46, 95]),
   midi.NoteOffEvent(tick=0, channel=9, data=[38, 95]),
   midi.NoteOnEvent(tick=0, channel=9, data=[46, 95]),
   midi.NoteOnEvent(tick=0, channel=9, data=[35, 95]),
   midi.NoteOffEvent(tick=480, channel=9, data=[46, 95]),
   midi.NoteOffEvent(tick=0, channel=9, data=[35, 95]),
   midi.NoteOnEvent(tick=0, channel=9, data=[46, 95]),
   midi.NoteOnEvent(tick=0, channel=9, data=[38, 95]),
   midi.NoteOffEvent(tick=480, channel=9, data=[46, 95]),
   midi.NoteOffEvent(tick=0, channel=9, data=[38, 95]),
   midi.NoteOnEvent(tick=0, channel=9, data=[46, 95]),
   midi.NoteOnEvent(tick=0, channel=9, data=[35, 95]),
   midi.NoteOffEvent(tick=480, channel=9, data=[46, 95]),
   midi.NoteOffEvent(tick=0, channel=9, data=[35, 95]),
   midi.NoteOnEvent(tick=0, channel=9, data=[46, 95]),
   midi.NoteOnEvent(tick=0, channel=9, data=[38, 95]),
   midi.NoteOffEvent(tick=480, channel=9, data=[46, 95]),
   midi.NoteOffEvent(tick=0, channel=9, data=[38, 95]),
   midi.NoteOnEvent(tick=0, channel=9, data=[49, 95]),
   midi.NoteOnEvent(tick=0, channel=9, data=[35, 95]),
   midi.NoteOffEvent(tick=480, channel=9, data=[49, 95]),
   midi.NoteOffEvent(tick=0, channel=9, data=[35, 95]),
   midi.NoteOnEvent(tick=0, channel=9, data=[46, 95]),
   midi.NoteOnEvent(tick=0, channel=9, data=[38, 95]),
   midi.NoteOffEvent(tick=480, channel=9, data=[46, 95]),
   midi.NoteOffEvent(tick=0, channel=9, data=[38, 95]),
   midi.NoteOnEvent(tick=0, channel=9, data=[46, 95]),
   midi.NoteOnEvent(tick=0, channel=9, data=[35, 95]),
   midi.NoteOffEvent(tick=480, channel=9, data=[46, 95]),
   midi.NoteOffEvent(tick=0, channel=9, data=[35, 95]),
   midi.NoteOnEvent(tick=0, channel=9, data=[46, 95]),
   midi.NoteOnEvent(tick=0, channel=9, data=[38, 95]),
   midi.NoteOffEvent(tick=480, channel=9, data=[46, 95]),
   midi.NoteOffEvent(tick=0, channel=9, data=[38, 95]),
   midi.NoteOnEvent(tick=0, channel=9, data=[46, 95]),
   midi.NoteOnEvent(tick=0, channel=9, data=[35, 95]),
   midi.NoteOffEvent(tick=480, channel=9, data=[46, 95]),
   midi.NoteOffEvent(tick=0, channel=9, data=[35, 95]),
   midi.NoteOnEvent(tick=0, channel=9, data=[46, 95]),
   midi.NoteOnEvent(tick=0, channel=9, data=[38, 95]),
   midi.NoteOffEvent(tick=480, channel=9, data=[46, 95]),
   midi.NoteOffEvent(tick=0, channel=9, data=[38, 95]),
   midi.NoteOnEvent(tick=0, channel=9, data=[46, 95]),
   midi.NoteOnEvent(tick=0, channel=9, data=[35, 95]),
   midi.NoteOffEvent(tick=480, channel=9, data=[46, 95]),
   midi.NoteOffEvent(tick=0, channel=9, data=[35, 95]),
   midi.NoteOnEvent(tick=0, channel=9, data=[46, 95]),
   midi.NoteOnEvent(tick=0, channel=9, data=[38, 95]),
   midi.NoteOffEvent(tick=480, channel=9, data=[46, 95]),
   midi.NoteOffEvent(tick=0, channel=9, data=[38, 95]),
   midi.NoteOnEvent(tick=0, channel=9, data=[46, 95]),
   midi.NoteOnEvent(tick=0, channel=9, data=[35, 95]),
   midi.NoteOffEvent(tick=480, channel=9, data=[46, 95]),
   midi.NoteOffEvent(tick=0, channel=9, data=[35, 95]),
   midi.NoteOnEvent(tick=0, channel=9, data=[46, 95]),
   midi.NoteOnEvent(tick=0, channel=9, data=[38, 95]),
   midi.NoteOffEvent(tick=480, channel=9, data=[46, 95]),
   midi.NoteOffEvent(tick=0, channel=9, data=[38, 95]),
   midi.NoteOnEvent(tick=0, channel=9, data=[46, 95]),
   midi.NoteOnEvent(tick=0, channel=9, data=[35, 95]),
   midi.NoteOffEvent(tick=480, channel=9, data=[46, 95]),
   midi.NoteOffEvent(tick=0, channel=9, data=[35, 95]),
   midi.NoteOnEvent(tick=0, channel=9, data=[46, 95]),
   midi.NoteOnEvent(tick=0, channel=9, data=[38, 95]),
   midi.NoteOffEvent(tick=480, channel=9, data=[46, 95]),
   midi.NoteOffEvent(tick=0, channel=9, data=[38, 95]),
   midi.NoteOnEvent(tick=0, channel=9, data=[46, 95]),
   midi.NoteOnEvent(tick=0, channel=9, data=[35, 95]),
   midi.NoteOffEvent(tick=480, channel=9, data=[46, 95]),
   midi.NoteOffEvent(tick=0, channel=9, data=[35, 95]),
   midi.NoteOnEvent(tick=0, channel=9, data=[46, 95]),
   midi.NoteOnEvent(tick=0, channel=9, data=[38, 95]),
   midi.NoteOffEvent(tick=480, channel=9, data=[46, 95]),
   midi.NoteOffEvent(tick=0, channel=9, data=[38, 95]),
   midi.NoteOnEvent(tick=0, channel=9, data=[46, 95]),
   midi.NoteOnEvent(tick=0, channel=9, data=[35, 95]),
   midi.NoteOffEvent(tick=480, channel=9, data=[46, 95]),
   midi.NoteOffEvent(tick=0, channel=9, data=[35, 95]),
   midi.NoteOnEvent(tick=0, channel=9, data=[46, 95]),
   midi.NoteOnEvent(tick=0, channel=9, data=[38, 95]),
   midi.NoteOffEvent(tick=480, channel=9, data=[46, 95]),
   midi.NoteOffEvent(tick=0, channel=9, data=[38, 95]),
   midi.NoteOnEvent(tick=0, channel=9, data=[49, 95]),
   midi.NoteOnEvent(tick=0, channel=9, data=[35, 95]),
   midi.NoteOffEvent(tick=480, channel=9, data=[49, 95]),
   midi.NoteOffEvent(tick=0, channel=9, data=[35, 95]),
   midi.NoteOnEvent(tick=0, channel=9, data=[46, 95]),
   midi.NoteOnEvent(tick=0, channel=9, data=[38, 95]),
   midi.NoteOffEvent(tick=480, channel=9, data=[46, 95]),
   midi.NoteOffEvent(tick=0, channel=9, data=[38, 95]),
   midi.NoteOnEvent(tick=0, channel=9, data=[46, 95]),
   midi.NoteOnEvent(tick=0, channel=9, data=[35, 95]),
   midi.NoteOffEvent(tick=480, channel=9, data=[46, 95]),
   midi.NoteOffEvent(tick=0, channel=9, data=[35, 95]),
   midi.NoteOnEvent(tick=0, channel=9, data=[46, 95]),
   midi.NoteOnEvent(tick=0, channel=9, data=[38, 95]),
   midi.NoteOffEvent(tick=480, channel=9, data=[46, 95]),
   midi.NoteOffEvent(tick=0, channel=9, data=[38, 95]),
   midi.NoteOnEvent(tick=0, channel=9, data=[46, 95]),
   midi.NoteOnEvent(tick=0, channel=9, data=[35, 95]),
   midi.NoteOffEvent(tick=480, channel=9, data=[46, 95]),
   midi.NoteOffEvent(tick=0, channel=9, data=[35, 95]),
   midi.NoteOnEvent(tick=0, channel=9, data=[46, 95]),
   midi.NoteOnEvent(tick=0, channel=9, data=[38, 95]),
   midi.NoteOffEvent(tick=480, channel=9, data=[46, 95]),
   midi.NoteOffEvent(tick=0, channel=9, data=[38, 95]),
   midi.NoteOnEvent(tick=0, channel=9, data=[46, 95]),
   midi.NoteOnEvent(tick=0, channel=9, data=[35, 95]),
   midi.NoteOffEvent(tick=480, channel=9, data=[46, 95]),
   midi.NoteOffEvent(tick=0, channel=9, data=[35, 95]),
   midi.NoteOnEvent(tick=0, channel=9, data=[46, 95]),
   midi.NoteOnEvent(tick=0, channel=9, data=[38, 95]),
   midi.NoteOffEvent(tick=480, channel=9, data=[46, 95]),
   midi.NoteOffEvent(tick=0, channel=9, data=[38, 95]),
   midi.NoteOnEvent(tick=0, channel=9, data=[46, 95]),
   midi.NoteOnEvent(tick=0, channel=9, data=[35, 95]),
   midi.NoteOffEvent(tick=480, channel=9, data=[46, 95]),
   midi.NoteOffEvent(tick=0, channel=9, data=[35, 95]),
   midi.NoteOnEvent(tick=0, channel=9, data=[46, 95]),
   midi.NoteOnEvent(tick=0, channel=9, data=[38, 95]),
   midi.NoteOffEvent(tick=480, channel=9, data=[46, 95]),
   midi.NoteOffEvent(tick=0, channel=9, data=[38, 95]),
   midi.NoteOnEvent(tick=0, channel=9, data=[46, 95]),
   midi.NoteOnEvent(tick=0, channel=9, data=[35, 95]),
   midi.NoteOffEvent(tick=480, channel=9, data=[46, 95]),
   midi.NoteOffEvent(tick=0, channel=9, data=[35, 95]),
   midi.NoteOnEvent(tick=0, channel=9, data=[46, 95]),
   midi.NoteOnEvent(tick=0, channel=9, data=[38, 95]),
   midi.NoteOffEvent(tick=480, channel=9, data=[46, 95]),
   midi.NoteOffEvent(tick=0, channel=9, data=[38, 95]),
   midi.NoteOnEvent(tick=0, channel=9, data=[46, 95]),
   midi.NoteOnEvent(tick=0, channel=9, data=[35, 95]),
   midi.NoteOffEvent(tick=480, channel=9, data=[46, 95]),
   midi.NoteOffEvent(tick=0, channel=9, data=[35, 95]),
   midi.NoteOnEvent(tick=0, channel=9, data=[46, 95]),
   midi.NoteOnEvent(tick=0, channel=9, data=[38, 95]),
   midi.NoteOffEvent(tick=480, channel=9, data=[46, 95]),
   midi.NoteOffEvent(tick=0, channel=9, data=[38, 95]),
   midi.NoteOnEvent(tick=0, channel=9, data=[46, 95]),
   midi.NoteOnEvent(tick=0, channel=9, data=[35, 95]),
   midi.NoteOffEvent(tick=480, channel=9, data=[46, 95]),
   midi.NoteOffEvent(tick=0, channel=9, data=[35, 95]),
   midi.NoteOnEvent(tick=0, channel=9, data=[46, 95]),
   midi.NoteOnEvent(tick=0, channel=9, data=[38, 95]),
   midi.NoteOffEvent(tick=480, channel=9, data=[46, 95]),
   midi.NoteOffEvent(tick=0, channel=9, data=[38, 95]),
   midi.NoteOnEvent(tick=0, channel=9, data=[49, 95]),
   midi.NoteOnEvent(tick=0, channel=9, data=[35, 95]),
   midi.NoteOffEvent(tick=480, channel=9, data=[49, 95]),
   midi.NoteOffEvent(tick=0, channel=9, data=[35, 95]),
   midi.NoteOnEvent(tick=0, channel=9, data=[46, 95]),
   midi.NoteOnEvent(tick=0, channel=9, data=[38, 95]),
   midi.NoteOffEvent(tick=480, channel=9, data=[46, 95]),
   midi.NoteOffEvent(tick=0, channel=9, data=[38, 95]),
   midi.NoteOnEvent(tick=0, channel=9, data=[46, 95]),
   midi.NoteOnEvent(tick=0, channel=9, data=[35, 95]),
   midi.NoteOffEvent(tick=480, channel=9, data=[46, 95]),
   midi.NoteOffEvent(tick=0, channel=9, data=[35, 95]),
   midi.NoteOnEvent(tick=0, channel=9, data=[46, 95]),
   midi.NoteOnEvent(tick=0, channel=9, data=[38, 95]),
   midi.NoteOffEvent(tick=480, channel=9, data=[46, 95]),
   midi.NoteOffEvent(tick=0, channel=9, data=[38, 95]),
   midi.NoteOnEvent(tick=0, channel=9, data=[46, 95]),
   midi.NoteOnEvent(tick=0, channel=9, data=[35, 95]),
   midi.NoteOffEvent(tick=480, channel=9, data=[46, 95]),
   midi.NoteOffEvent(tick=0, channel=9, data=[35, 95]),
   midi.NoteOnEvent(tick=0, channel=9, data=[46, 95]),
   midi.NoteOnEvent(tick=0, channel=9, data=[38, 95]),
   midi.NoteOffEvent(tick=480, channel=9, data=[46, 95]),
   midi.NoteOffEvent(tick=0, channel=9, data=[38, 95]),
   midi.NoteOnEvent(tick=0, channel=9, data=[46, 95]),
   midi.NoteOnEvent(tick=0, channel=9, data=[35, 95]),
   midi.NoteOffEvent(tick=480, channel=9, data=[46, 95]),
   midi.NoteOffEvent(tick=0, channel=9, data=[35, 95]),
   midi.NoteOnEvent(tick=0, channel=9, data=[46, 95]),
   midi.NoteOnEvent(tick=0, channel=9, data=[38, 95]),
   midi.NoteOffEvent(tick=480, channel=9, data=[46, 95]),
   midi.NoteOffEvent(tick=0, channel=9, data=[38, 95]),
   midi.NoteOnEvent(tick=0, channel=9, data=[46, 95]),
   midi.NoteOnEvent(tick=0, channel=9, data=[35, 95]),
   midi.NoteOffEvent(tick=480, channel=9, data=[46, 95]),
   midi.NoteOffEvent(tick=0, channel=9, data=[35, 95]),
   midi.NoteOnEvent(tick=0, channel=9, data=[46, 95]),
   midi.NoteOnEvent(tick=0, channel=9, data=[38, 95]),
   midi.NoteOffEvent(tick=480, channel=9, data=[46, 95]),
   midi.NoteOffEvent(tick=0, channel=9, data=[38, 95]),
   midi.NoteOnEvent(tick=0, channel=9, data=[46, 95]),
   midi.NoteOnEvent(tick=0, channel=9, data=[35, 95]),
   midi.NoteOffEvent(tick=480, channel=9, data=[46, 95]),
   midi.NoteOffEvent(tick=0, channel=9, data=[35, 95]),
   midi.NoteOnEvent(tick=0, channel=9, data=[46, 95]),
   midi.NoteOnEvent(tick=0, channel=9, data=[38, 95]),
   midi.NoteOffEvent(tick=480, channel=9, data=[46, 95]),
   midi.NoteOffEvent(tick=0, channel=9, data=[38, 95]),
   midi.NoteOnEvent(tick=0, channel=9, data=[46, 95]),
   midi.NoteOnEvent(tick=0, channel=9, data=[35, 95]),
   midi.NoteOffEvent(tick=480, channel=9, data=[46, 95]),
   midi.NoteOffEvent(tick=0, channel=9, data=[35, 95]),
   midi.NoteOnEvent(tick=0, channel=9, data=[46, 95]),
   midi.NoteOnEvent(tick=0, channel=9, data=[38, 95]),
   midi.NoteOffEvent(tick=480, channel=9, data=[46, 95]),
   midi.NoteOffEvent(tick=0, channel=9, data=[38, 95]),
   midi.NoteOnEvent(tick=0, channel=9, data=[46, 95]),
   midi.NoteOnEvent(tick=0, channel=9, data=[35, 95]),
   midi.NoteOffEvent(tick=480, channel=9, data=[46, 95]),
   midi.NoteOffEvent(tick=0, channel=9, data=[35, 95]),
   midi.NoteOnEvent(tick=0, channel=9, data=[46, 95]),
   midi.NoteOnEvent(tick=0, channel=9, data=[38, 95]),
   midi.NoteOffEvent(tick=480, channel=9, data=[46, 95]),
   midi.NoteOffEvent(tick=0, channel=9, data=[38, 95]),
   midi.NoteOnEvent(tick=0, channel=9, data=[49, 95]),
   midi.NoteOnEvent(tick=0, channel=9, data=[35, 95]),
   midi.NoteOffEvent(tick=480, channel=9, data=[49, 95]),
   midi.NoteOffEvent(tick=0, channel=9, data=[35, 95]),
   midi.NoteOnEvent(tick=0, channel=9, data=[46, 95]),
   midi.NoteOnEvent(tick=0, channel=9, data=[38, 95]),
   midi.NoteOffEvent(tick=480, channel=9, data=[46, 95]),
   midi.NoteOffEvent(tick=0, channel=9, data=[38, 95]),
   midi.NoteOnEvent(tick=0, channel=9, data=[46, 95]),
   midi.NoteOnEvent(tick=0, channel=9, data=[35, 95]),
   midi.NoteOffEvent(tick=480, channel=9, data=[46, 95]),
   midi.NoteOffEvent(tick=0, channel=9, data=[35, 95]),
   midi.NoteOnEvent(tick=0, channel=9, data=[46, 95]),
   midi.NoteOnEvent(tick=0, channel=9, data=[38, 95]),
   midi.NoteOffEvent(tick=480, channel=9, data=[46, 95]),
   midi.NoteOffEvent(tick=0, channel=9, data=[38, 95]),
   midi.NoteOnEvent(tick=0, channel=9, data=[46, 95]),
   midi.NoteOnEvent(tick=0, channel=9, data=[35, 95]),
   midi.NoteOffEvent(tick=480, channel=9, data=[46, 95]),
   midi.NoteOffEvent(tick=0, channel=9, data=[35, 95]),
   midi.NoteOnEvent(tick=0, channel=9, data=[46, 95]),
   midi.NoteOnEvent(tick=0, channel=9, data=[38, 95]),
   midi.NoteOffEvent(tick=480, channel=9, data=[46, 95]),
   midi.NoteOffEvent(tick=0, channel=9, data=[38, 95]),
   midi.NoteOnEvent(tick=0, channel=9, data=[46, 95]),
   midi.NoteOnEvent(tick=0, channel=9, data=[35, 95]),
   midi.NoteOffEvent(tick=480, channel=9, data=[46, 95]),
   midi.NoteOffEvent(tick=0, channel=9, data=[35, 95]),
   midi.NoteOnEvent(tick=0, channel=9, data=[46, 95]),
   midi.NoteOnEvent(tick=0, channel=9, data=[38, 95]),
   midi.NoteOffEvent(tick=480, channel=9, data=[46, 95]),
   midi.NoteOffEvent(tick=0, channel=9, data=[38, 95]),
   midi.NoteOnEvent(tick=0, channel=9, data=[46, 95]),
   midi.NoteOnEvent(tick=0, channel=9, data=[35, 95]),
   midi.NoteOffEvent(tick=480, channel=9, data=[46, 95]),
   midi.NoteOffEvent(tick=0, channel=9, data=[35, 95]),
   midi.NoteOnEvent(tick=0, channel=9, data=[46, 95]),
   midi.NoteOnEvent(tick=0, channel=9, data=[38, 95]),
   midi.NoteOffEvent(tick=480, channel=9, data=[46, 95]),
   midi.NoteOffEvent(tick=0, channel=9, data=[38, 95]),
   midi.NoteOnEvent(tick=0, channel=9, data=[46, 95]),
   midi.NoteOnEvent(tick=0, channel=9, data=[35, 95]),
   midi.NoteOffEvent(tick=480, channel=9, data=[46, 95]),
   midi.NoteOffEvent(tick=0, channel=9, data=[35, 95]),
   midi.NoteOnEvent(tick=0, channel=9, data=[46, 95]),
   midi.NoteOnEvent(tick=0, channel=9, data=[38, 95]),
   midi.NoteOffEvent(tick=480, channel=9, data=[46, 95]),
   midi.NoteOffEvent(tick=0, channel=9, data=[38, 95]),
   midi.NoteOnEvent(tick=0, channel=9, data=[46, 95]),
   midi.NoteOnEvent(tick=0, channel=9, data=[35, 95]),
   midi.NoteOffEvent(tick=480, channel=9, data=[46, 95]),
   midi.NoteOffEvent(tick=0, channel=9, data=[35, 95]),
   midi.NoteOnEvent(tick=0, channel=9, data=[46, 95]),
   midi.NoteOnEvent(tick=0, channel=9, data=[38, 95]),
   midi.NoteOffEvent(tick=480, channel=9, data=[46, 95]),
   midi.NoteOffEvent(tick=0, channel=9, data=[38, 95]),
   midi.NoteOnEvent(tick=0, channel=9, data=[46, 95]),
   midi.NoteOnEvent(tick=0, channel=9, data=[35, 95]),
   midi.NoteOffEvent(tick=480, channel=9, data=[46, 95]),
   midi.NoteOffEvent(tick=0, channel=9, data=[35, 95]),
   midi.NoteOnEvent(tick=0, channel=9, data=[46, 95]),
   midi.NoteOnEvent(tick=0, channel=9, data=[38, 95]),
   midi.NoteOffEvent(tick=480, channel=9, data=[46, 95]),
   midi.NoteOffEvent(tick=0, channel=9, data=[38, 95]),
   midi.NoteOnEvent(tick=0, channel=9, data=[49, 95]),
   midi.NoteOnEvent(tick=0, channel=9, data=[35, 95]),
   midi.NoteOffEvent(tick=480, channel=9, data=[49, 95]),
   midi.NoteOffEvent(tick=0, channel=9, data=[35, 95]),
   midi.NoteOnEvent(tick=0, channel=9, data=[46, 95]),
   midi.NoteOnEvent(tick=0, channel=9, data=[38, 95]),
   midi.NoteOffEvent(tick=480, channel=9, data=[46, 95]),
   midi.NoteOffEvent(tick=0, channel=9, data=[38, 95]),
   midi.NoteOnEvent(tick=0, channel=9, data=[46, 95]),
   midi.NoteOnEvent(tick=0, channel=9, data=[35, 95]),
   midi.NoteOffEvent(tick=480, channel=9, data=[46, 95]),
   midi.NoteOffEvent(tick=0, channel=9, data=[35, 95]),
   midi.NoteOnEvent(tick=0, channel=9, data=[46, 95]),
   midi.NoteOnEvent(tick=0, channel=9, data=[38, 95]),
   midi.NoteOffEvent(tick=480, channel=9, data=[46, 95]),
   midi.NoteOffEvent(tick=0, channel=9, data=[38, 95]),
   midi.NoteOnEvent(tick=0, channel=9, data=[46, 95]),
   midi.NoteOnEvent(tick=0, channel=9, data=[35, 95]),
   midi.NoteOffEvent(tick=480, channel=9, data=[46, 95]),
   midi.NoteOffEvent(tick=0, channel=9, data=[35, 95]),
   midi.NoteOnEvent(tick=0, channel=9, data=[46, 95]),
   midi.NoteOnEvent(tick=0, channel=9, data=[38, 95]),
   midi.NoteOffEvent(tick=480, channel=9, data=[46, 95]),
   midi.NoteOffEvent(tick=0, channel=9, data=[38, 95]),
   midi.NoteOnEvent(tick=0, channel=9, data=[46, 95]),
   midi.NoteOnEvent(tick=0, channel=9, data=[35, 95]),
   midi.NoteOffEvent(tick=480, channel=9, data=[46, 95]),
   midi.NoteOffEvent(tick=0, channel=9, data=[35, 95]),
   midi.NoteOnEvent(tick=0, channel=9, data=[46, 95]),
   midi.NoteOnEvent(tick=0, channel=9, data=[38, 95]),
   midi.NoteOffEvent(tick=480, channel=9, data=[46, 95]),
   midi.NoteOffEvent(tick=0, channel=9, data=[38, 95]),
   midi.NoteOnEvent(tick=0, channel=9, data=[46, 95]),
   midi.NoteOnEvent(tick=0, channel=9, data=[35, 95]),
   midi.NoteOffEvent(tick=480, channel=9, data=[46, 95]),
   midi.NoteOffEvent(tick=0, channel=9, data=[35, 95]),
   midi.NoteOnEvent(tick=0, channel=9, data=[46, 95]),
   midi.NoteOnEvent(tick=0, channel=9, data=[38, 95]),
   midi.NoteOffEvent(tick=480, channel=9, data=[46, 95]),
   midi.NoteOffEvent(tick=0, channel=9, data=[38, 95]),
   midi.NoteOnEvent(tick=0, channel=9, data=[46, 95]),
   midi.NoteOnEvent(tick=0, channel=9, data=[35, 95]),
   midi.NoteOffEvent(tick=480, channel=9, data=[46, 95]),
   midi.NoteOffEvent(tick=0, channel=9, data=[35, 95]),
   midi.NoteOnEvent(tick=0, channel=9, data=[46, 95]),
   midi.NoteOnEvent(tick=0, channel=9, data=[38, 95]),
   midi.NoteOffEvent(tick=480, channel=9, data=[46, 95]),
   midi.NoteOffEvent(tick=0, channel=9, data=[38, 95]),
   midi.NoteOnEvent(tick=0, channel=9, data=[46, 95]),
   midi.NoteOnEvent(tick=0, channel=9, data=[35, 95]),
   midi.NoteOffEvent(tick=480, channel=9, data=[46, 95]),
   midi.NoteOffEvent(tick=0, channel=9, data=[35, 95]),
   midi.NoteOnEvent(tick=0, channel=9, data=[46, 95]),
   midi.NoteOnEvent(tick=0, channel=9, data=[38, 95]),
   midi.NoteOffEvent(tick=480, channel=9, data=[46, 95]),
   midi.NoteOffEvent(tick=0, channel=9, data=[38, 95]),
   midi.NoteOnEvent(tick=0, channel=9, data=[46, 95]),
   midi.NoteOnEvent(tick=0, channel=9, data=[35, 95]),
   midi.NoteOffEvent(tick=480, channel=9, data=[46, 95]),
   midi.NoteOffEvent(tick=0, channel=9, data=[35, 95]),
   midi.NoteOnEvent(tick=0, channel=9, data=[46, 95]),
   midi.NoteOnEvent(tick=0, channel=9, data=[38, 95]),
   midi.NoteOffEvent(tick=480, channel=9, data=[46, 95]),
   midi.NoteOffEvent(tick=0, channel=9, data=[38, 95]),
   midi.NoteOnEvent(tick=0, channel=9, data=[49, 95]),
   midi.NoteOnEvent(tick=0, channel=9, data=[35, 95]),
   midi.NoteOffEvent(tick=480, channel=9, data=[49, 95]),
   midi.NoteOffEvent(tick=0, channel=9, data=[35, 95]),
   midi.NoteOnEvent(tick=0, channel=9, data=[46, 95]),
   midi.NoteOnEvent(tick=0, channel=9, data=[38, 95]),
   midi.NoteOffEvent(tick=480, channel=9, data=[46, 95]),
   midi.NoteOffEvent(tick=0, channel=9, data=[38, 95]),
   midi.NoteOnEvent(tick=0, channel=9, data=[46, 95]),
   midi.NoteOnEvent(tick=0, channel=9, data=[35, 95]),
   midi.NoteOffEvent(tick=480, channel=9, data=[46, 95]),
   midi.NoteOffEvent(tick=0, channel=9, data=[35, 95]),
   midi.NoteOnEvent(tick=0, channel=9, data=[46, 95]),
   midi.NoteOnEvent(tick=0, channel=9, data=[38, 95]),
   midi.NoteOffEvent(tick=480, channel=9, data=[46, 95]),
   midi.NoteOffEvent(tick=0, channel=9, data=[38, 95]),
   midi.NoteOnEvent(tick=0, channel=9, data=[46, 95]),
   midi.NoteOnEvent(tick=0, channel=9, data=[35, 95]),
   midi.NoteOffEvent(tick=480, channel=9, data=[46, 95]),
   midi.NoteOffEvent(tick=0, channel=9, data=[35, 95]),
   midi.NoteOnEvent(tick=0, channel=9, data=[46, 95]),
   midi.NoteOnEvent(tick=0, channel=9, data=[38, 95]),
   midi.NoteOffEvent(tick=480, channel=9, data=[46, 95]),
   midi.NoteOffEvent(tick=0, channel=9, data=[38, 95]),
   midi.NoteOnEvent(tick=0, channel=9, data=[46, 95]),
   midi.NoteOnEvent(tick=0, channel=9, data=[35, 95]),
   midi.NoteOffEvent(tick=480, channel=9, data=[46, 95]),
   midi.NoteOffEvent(tick=0, channel=9, data=[35, 95]),
   midi.NoteOnEvent(tick=0, channel=9, data=[46, 95]),
   midi.NoteOnEvent(tick=0, channel=9, data=[38, 95]),
   midi.NoteOffEvent(tick=480, channel=9, data=[46, 95]),
   midi.NoteOffEvent(tick=0, channel=9, data=[38, 95]),
   midi.NoteOnEvent(tick=0, channel=9, data=[46, 95]),
   midi.NoteOnEvent(tick=0, channel=9, data=[35, 95]),
   midi.NoteOffEvent(tick=480, channel=9, data=[46, 95]),
   midi.NoteOffEvent(tick=0, channel=9, data=[35, 95]),
   midi.NoteOnEvent(tick=0, channel=9, data=[46, 95]),
   midi.NoteOnEvent(tick=0, channel=9, data=[38, 95]),
   midi.NoteOffEvent(tick=480, channel=9, data=[46, 95]),
   midi.NoteOffEvent(tick=0, channel=9, data=[38, 95]),
   midi.NoteOnEvent(tick=0, channel=9, data=[46, 95]),
   midi.NoteOnEvent(tick=0, channel=9, data=[35, 95]),
   midi.NoteOffEvent(tick=480, channel=9, data=[46, 95]),
   midi.NoteOffEvent(tick=0, channel=9, data=[35, 95]),
   midi.NoteOnEvent(tick=0, channel=9, data=[46, 95]),
   midi.NoteOnEvent(tick=0, channel=9, data=[38, 95]),
   midi.NoteOffEvent(tick=480, channel=9, data=[46, 95]),
   midi.NoteOffEvent(tick=0, channel=9, data=[38, 95]),
   midi.NoteOnEvent(tick=0, channel=9, data=[46, 95]),
   midi.NoteOnEvent(tick=0, channel=9, data=[35, 95]),
   midi.NoteOffEvent(tick=480, channel=9, data=[46, 95]),
   midi.NoteOffEvent(tick=0, channel=9, data=[35, 95]),
   midi.NoteOnEvent(tick=0, channel=9, data=[46, 95]),
   midi.NoteOnEvent(tick=0, channel=9, data=[38, 95]),
   midi.NoteOffEvent(tick=480, channel=9, data=[46, 95]),
   midi.NoteOffEvent(tick=0, channel=9, data=[38, 95]),
   midi.NoteOnEvent(tick=0, channel=9, data=[46, 95]),
   midi.NoteOnEvent(tick=0, channel=9, data=[35, 95]),
   midi.NoteOffEvent(tick=480, channel=9, data=[46, 95]),
   midi.NoteOffEvent(tick=0, channel=9, data=[35, 95]),
   midi.NoteOnEvent(tick=0, channel=9, data=[46, 95]),
   midi.NoteOnEvent(tick=0, channel=9, data=[38, 95]),
   midi.NoteOffEvent(tick=480, channel=9, data=[46, 95]),
   midi.NoteOffEvent(tick=0, channel=9, data=[38, 95]),
   midi.NoteOnEvent(tick=0, channel=9, data=[49, 95]),
   midi.NoteOnEvent(tick=0, channel=9, data=[35, 95]),
   midi.NoteOffEvent(tick=480, channel=9, data=[49, 95]),
   midi.NoteOffEvent(tick=0, channel=9, data=[35, 95]),
   midi.NoteOnEvent(tick=0, channel=9, data=[46, 95]),
   midi.NoteOnEvent(tick=0, channel=9, data=[38, 95]),
   midi.NoteOffEvent(tick=480, channel=9, data=[46, 95]),
   midi.NoteOffEvent(tick=0, channel=9, data=[38, 95]),
   midi.NoteOnEvent(tick=0, channel=9, data=[46, 95]),
   midi.NoteOnEvent(tick=0, channel=9, data=[35, 95]),
   midi.NoteOffEvent(tick=480, channel=9, data=[46, 95]),
   midi.NoteOffEvent(tick=0, channel=9, data=[35, 95]),
   midi.NoteOnEvent(tick=0, channel=9, data=[46, 95]),
   midi.NoteOnEvent(tick=0, channel=9, data=[38, 95]),
   midi.NoteOffEvent(tick=480, channel=9, data=[46, 95]),
   midi.NoteOffEvent(tick=0, channel=9, data=[38, 95]),
   midi.NoteOnEvent(tick=0, channel=9, data=[46, 95]),
   midi.NoteOnEvent(tick=0, channel=9, data=[35, 95]),
   midi.NoteOffEvent(tick=480, channel=9, data=[46, 95]),
   midi.NoteOffEvent(tick=0, channel=9, data=[35, 95]),
   midi.NoteOnEvent(tick=0, channel=9, data=[46, 95]),
   midi.NoteOnEvent(tick=0, channel=9, data=[38, 95]),
   midi.NoteOffEvent(tick=480, channel=9, data=[46, 95]),
   midi.NoteOffEvent(tick=0, channel=9, data=[38, 95]),
   midi.NoteOnEvent(tick=0, channel=9, data=[46, 95]),
   midi.NoteOnEvent(tick=0, channel=9, data=[35, 95]),
   midi.NoteOffEvent(tick=480, channel=9, data=[46, 95]),
   midi.NoteOffEvent(tick=0, channel=9, data=[35, 95]),
   midi.NoteOnEvent(tick=0, channel=9, data=[46, 95]),
   midi.NoteOnEvent(tick=0, channel=9, data=[38, 95]),
   midi.NoteOffEvent(tick=480, channel=9, data=[46, 95]),
   midi.NoteOffEvent(tick=0, channel=9, data=[38, 95]),
   midi.NoteOnEvent(tick=0, channel=9, data=[46, 95]),
   midi.NoteOnEvent(tick=0, channel=9, data=[35, 95]),
   midi.NoteOffEvent(tick=480, channel=9, data=[46, 95]),
   midi.NoteOffEvent(tick=0, channel=9, data=[35, 95]),
   midi.NoteOnEvent(tick=0, channel=9, data=[46, 95]),
   midi.NoteOnEvent(tick=0, channel=9, data=[38, 95]),
   midi.NoteOffEvent(tick=480, channel=9, data=[46, 95]),
   midi.NoteOffEvent(tick=0, channel=9, data=[38, 95]),
   midi.NoteOnEvent(tick=0, channel=9, data=[46, 95]),
   midi.NoteOnEvent(tick=0, channel=9, data=[35, 95]),
   midi.NoteOffEvent(tick=480, channel=9, data=[46, 95]),
   midi.NoteOffEvent(tick=0, channel=9, data=[35, 95]),
   midi.NoteOnEvent(tick=0, channel=9, data=[46, 95]),
   midi.NoteOnEvent(tick=0, channel=9, data=[38, 95]),
   midi.NoteOffEvent(tick=480, channel=9, data=[46, 95]),
   midi.NoteOffEvent(tick=0, channel=9, data=[38, 95]),
   midi.NoteOnEvent(tick=0, channel=9, data=[46, 95]),
   midi.NoteOnEvent(tick=0, channel=9, data=[35, 95]),
   midi.NoteOffEvent(tick=480, channel=9, data=[46, 95]),
   midi.NoteOffEvent(tick=0, channel=9, data=[35, 95]),
   midi.NoteOnEvent(tick=0, channel=9, data=[46, 95]),
   midi.NoteOnEvent(tick=0, channel=9, data=[38, 95]),
   midi.NoteOffEvent(tick=480, channel=9, data=[46, 95]),
   midi.NoteOffEvent(tick=0, channel=9, data=[38, 95]),
   midi.NoteOnEvent(tick=0, channel=9, data=[46, 95]),
   midi.NoteOnEvent(tick=0, channel=9, data=[35, 95]),
   midi.NoteOffEvent(tick=480, channel=9, data=[46, 95]),
   midi.NoteOffEvent(tick=0, channel=9, data=[35, 95]),
   midi.NoteOnEvent(tick=0, channel=9, data=[46, 95]),
   midi.NoteOnEvent(tick=0, channel=9, data=[38, 95]),
   midi.NoteOffEvent(tick=480, channel=9, data=[46, 95]),
   midi.NoteOffEvent(tick=0, channel=9, data=[38, 95]),
   midi.NoteOnEvent(tick=0, channel=9, data=[49, 95]),
   midi.NoteOnEvent(tick=0, channel=9, data=[35, 95]),
   midi.NoteOffEvent(tick=480, channel=9, data=[49, 95]),
   midi.NoteOffEvent(tick=0, channel=9, data=[35, 95]),
   midi.NoteOnEvent(tick=0, channel=9, data=[46, 95]),
   midi.NoteOnEvent(tick=0, channel=9, data=[38, 95]),
   midi.NoteOffEvent(tick=480, channel=9, data=[46, 95]),
   midi.NoteOffEvent(tick=0, channel=9, data=[38, 95]),
   midi.NoteOnEvent(tick=0, channel=9, data=[46, 95]),
   midi.NoteOnEvent(tick=0, channel=9, data=[35, 95]),
   midi.NoteOffEvent(tick=480, channel=9, data=[46, 95]),
   midi.NoteOffEvent(tick=0, channel=9, data=[35, 95]),
   midi.NoteOnEvent(tick=0, channel=9, data=[46, 95]),
   midi.NoteOnEvent(tick=0, channel=9, data=[38, 95]),
   midi.NoteOffEvent(tick=480, channel=9, data=[46, 95]),
   midi.NoteOffEvent(tick=0, channel=9, data=[38, 95]),
   midi.NoteOnEvent(tick=0, channel=9, data=[46, 95]),
   midi.NoteOnEvent(tick=0, channel=9, data=[35, 95]),
   midi.NoteOffEvent(tick=480, channel=9, data=[46, 95]),
   midi.NoteOffEvent(tick=0, channel=9, data=[35, 95]),
   midi.NoteOnEvent(tick=0, channel=9, data=[46, 95]),
   midi.NoteOnEvent(tick=0, channel=9, data=[38, 95]),
   midi.NoteOffEvent(tick=480, channel=9, data=[46, 95]),
   midi.NoteOffEvent(tick=0, channel=9, data=[38, 95]),
   midi.NoteOnEvent(tick=0, channel=9, data=[46, 95]),
   midi.NoteOnEvent(tick=0, channel=9, data=[35, 95]),
   midi.NoteOffEvent(tick=480, channel=9, data=[46, 95]),
   midi.NoteOffEvent(tick=0, channel=9, data=[35, 95]),
   midi.NoteOnEvent(tick=0, channel=9, data=[46, 95]),
   midi.NoteOnEvent(tick=0, channel=9, data=[38, 95]),
   midi.NoteOffEvent(tick=480, channel=9, data=[46, 95]),
   midi.NoteOffEvent(tick=0, channel=9, data=[38, 95]),
   midi.NoteOnEvent(tick=0, channel=9, data=[46, 95]),
   midi.NoteOnEvent(tick=0, channel=9, data=[35, 95]),
   midi.NoteOffEvent(tick=480, channel=9, data=[46, 95]),
   midi.NoteOffEvent(tick=0, channel=9, data=[35, 95]),
   midi.NoteOnEvent(tick=0, channel=9, data=[46, 95]),
   midi.NoteOnEvent(tick=0, channel=9, data=[38, 95]),
   midi.NoteOffEvent(tick=480, channel=9, data=[46, 95]),
   midi.NoteOffEvent(tick=0, channel=9, data=[38, 95]),
   midi.NoteOnEvent(tick=0, channel=9, data=[46, 95]),
   midi.NoteOnEvent(tick=0, channel=9, data=[35, 95]),
   midi.NoteOffEvent(tick=480, channel=9, data=[46, 95]),
   midi.NoteOffEvent(tick=0, channel=9, data=[35, 95]),
   midi.NoteOnEvent(tick=0, channel=9, data=[46, 95]),
   midi.NoteOnEvent(tick=0, channel=9, data=[38, 95]),
   midi.NoteOffEvent(tick=480, channel=9, data=[46, 95]),
   midi.NoteOffEvent(tick=0, channel=9, data=[38, 95]),
   midi.NoteOnEvent(tick=0, channel=9, data=[46, 95]),
   midi.NoteOnEvent(tick=0, channel=9, data=[35, 95]),
   midi.NoteOffEvent(tick=480, channel=9, data=[46, 95]),
   midi.NoteOffEvent(tick=0, channel=9, data=[35, 95]),
   midi.NoteOnEvent(tick=0, channel=9, data=[46, 95]),
   midi.NoteOnEvent(tick=0, channel=9, data=[38, 95]),
   midi.NoteOffEvent(tick=480, channel=9, data=[46, 95]),
   midi.NoteOffEvent(tick=0, channel=9, data=[38, 95]),
   midi.NoteOnEvent(tick=0, channel=9, data=[46, 95]),
   midi.NoteOnEvent(tick=0, channel=9, data=[35, 95]),
   midi.NoteOffEvent(tick=480, channel=9, data=[46, 95]),
   midi.NoteOffEvent(tick=0, channel=9, data=[35, 95]),
   midi.NoteOnEvent(tick=0, channel=9, data=[46, 95]),
   midi.NoteOnEvent(tick=0, channel=9, data=[38, 95]),
   midi.NoteOffEvent(tick=480, channel=9, data=[46, 95]),
   midi.NoteOffEvent(tick=0, channel=9, data=[38, 95]),
   midi.NoteOnEvent(tick=0, channel=9, data=[49, 95]),
   midi.NoteOnEvent(tick=0, channel=9, data=[35, 95]),
   midi.NoteOffEvent(tick=480, channel=9, data=[49, 95]),
   midi.NoteOffEvent(tick=0, channel=9, data=[35, 95]),
   midi.NoteOnEvent(tick=0, channel=9, data=[46, 95]),
   midi.NoteOnEvent(tick=0, channel=9, data=[38, 95]),
   midi.NoteOffEvent(tick=480, channel=9, data=[46, 95]),
   midi.NoteOffEvent(tick=0, channel=9, data=[38, 95]),
   midi.NoteOnEvent(tick=0, channel=9, data=[46, 95]),
   midi.NoteOnEvent(tick=0, channel=9, data=[35, 95]),
   midi.NoteOffEvent(tick=480, channel=9, data=[46, 95]),
   midi.NoteOffEvent(tick=0, channel=9, data=[35, 95]),
   midi.NoteOnEvent(tick=0, channel=9, data=[46, 95]),
   midi.NoteOnEvent(tick=0, channel=9, data=[38, 95]),
   midi.NoteOffEvent(tick=480, channel=9, data=[46, 95]),
   midi.NoteOffEvent(tick=0, channel=9, data=[38, 95]),
   midi.NoteOnEvent(tick=0, channel=9, data=[46, 95]),
   midi.NoteOnEvent(tick=0, channel=9, data=[35, 95]),
   midi.NoteOffEvent(tick=480, channel=9, data=[46, 95]),
   midi.NoteOffEvent(tick=0, channel=9, data=[35, 95]),
   midi.NoteOnEvent(tick=0, channel=9, data=[46, 95]),
   midi.NoteOnEvent(tick=0, channel=9, data=[38, 95]),
   midi.NoteOffEvent(tick=480, channel=9, data=[46, 95]),
   midi.NoteOffEvent(tick=0, channel=9, data=[38, 95]),
   midi.NoteOnEvent(tick=0, channel=9, data=[46, 95]),
   midi.NoteOnEvent(tick=0, channel=9, data=[35, 95]),
   midi.NoteOffEvent(tick=480, channel=9, data=[46, 95]),
   midi.NoteOffEvent(tick=0, channel=9, data=[35, 95]),
   midi.NoteOnEvent(tick=0, channel=9, data=[46, 95]),
   midi.NoteOnEvent(tick=0, channel=9, data=[38, 95]),
   midi.NoteOffEvent(tick=480, channel=9, data=[46, 95]),
   midi.NoteOffEvent(tick=0, channel=9, data=[38, 95]),
   midi.NoteOnEvent(tick=0, channel=9, data=[46, 95]),
   midi.NoteOnEvent(tick=0, channel=9, data=[35, 95]),
   midi.NoteOffEvent(tick=480, channel=9, data=[46, 95]),
   midi.NoteOffEvent(tick=0, channel=9, data=[35, 95]),
   midi.NoteOnEvent(tick=0, channel=9, data=[46, 95]),
   midi.NoteOnEvent(tick=0, channel=9, data=[38, 95]),
   midi.NoteOffEvent(tick=480, channel=9, data=[46, 95]),
   midi.NoteOffEvent(tick=0, channel=9, data=[38, 95]),
   midi.NoteOnEvent(tick=0, channel=9, data=[46, 95]),
   midi.NoteOnEvent(tick=0, channel=9, data=[35, 95]),
   midi.NoteOffEvent(tick=480, channel=9, data=[46, 95]),
   midi.NoteOffEvent(tick=0, channel=9, data=[35, 95]),
   midi.NoteOnEvent(tick=0, channel=9, data=[46, 95]),
   midi.NoteOnEvent(tick=0, channel=9, data=[38, 95]),
   midi.NoteOffEvent(tick=480, channel=9, data=[46, 95]),
   midi.NoteOffEvent(tick=0, channel=9, data=[38, 95]),
   midi.NoteOnEvent(tick=0, channel=9, data=[35, 95]),
   midi.NoteOnEvent(tick=0, channel=9, data=[38, 95]),
   midi.NoteOffEvent(tick=240, channel=9, data=[35, 95]),
   midi.NoteOffEvent(tick=0, channel=9, data=[38, 95]),
   midi.NoteOnEvent(tick=0, channel=9, data=[35, 95]),
   midi.NoteOnEvent(tick=0, channel=9, data=[38, 95]),
   midi.NoteOffEvent(tick=240, channel=9, data=[35, 95]),
   midi.NoteOffEvent(tick=0, channel=9, data=[38, 95]),
   midi.NoteOnEvent(tick=0, channel=9, data=[35, 95]),
   midi.NoteOffEvent(tick=240, channel=9, data=[35, 95]),
   midi.NoteOnEvent(tick=0, channel=9, data=[45, 95]),
   midi.NoteOffEvent(tick=240, channel=9, data=[45, 95]),
   midi.NoteOnEvent(tick=0, channel=9, data=[45, 95]),
   midi.NoteOffEvent(tick=240, channel=9, data=[45, 95]),
   midi.NoteOnEvent(tick=0, channel=9, data=[35, 95]),
   midi.NoteOnEvent(tick=0, channel=9, data=[38, 95]),
   midi.NoteOffEvent(tick=240, channel=9, data=[35, 95]),
   midi.NoteOffEvent(tick=0, channel=9, data=[38, 95]),
   midi.NoteOnEvent(tick=0, channel=9, data=[35, 95]),
   midi.NoteOnEvent(tick=0, channel=9, data=[38, 95]),
   midi.NoteOffEvent(tick=240, channel=9, data=[35, 95]),
   midi.NoteOffEvent(tick=0, channel=9, data=[38, 95]),
   midi.NoteOnEvent(tick=0, channel=9, data=[35, 95]),
   midi.NoteOffEvent(tick=240, channel=9, data=[35, 95]),
   midi.NoteOnEvent(tick=0, channel=9, data=[49, 95]),
   midi.NoteOnEvent(tick=0, channel=9, data=[35, 95]),
   midi.NoteOffEvent(tick=480, channel=9, data=[49, 95]),
   midi.NoteOffEvent(tick=0, channel=9, data=[35, 95]),
   midi.NoteOnEvent(tick=0, channel=9, data=[46, 95]),
   midi.NoteOnEvent(tick=0, channel=9, data=[38, 95]),
   midi.NoteOffEvent(tick=480, channel=9, data=[46, 95]),
   midi.NoteOffEvent(tick=0, channel=9, data=[38, 95]),
   midi.NoteOnEvent(tick=0, channel=9, data=[46, 95]),
   midi.NoteOnEvent(tick=0, channel=9, data=[35, 95]),
   midi.NoteOffEvent(tick=480, channel=9, data=[46, 95]),
   midi.NoteOffEvent(tick=0, channel=9, data=[35, 95]),
   midi.NoteOnEvent(tick=0, channel=9, data=[46, 95]),
   midi.NoteOnEvent(tick=0, channel=9, data=[38, 95]),
   midi.NoteOffEvent(tick=480, channel=9, data=[46, 95]),
   midi.NoteOffEvent(tick=0, channel=9, data=[38, 95]),
   midi.NoteOnEvent(tick=0, channel=9, data=[46, 95]),
   midi.NoteOnEvent(tick=0, channel=9, data=[35, 95]),
   midi.NoteOffEvent(tick=480, channel=9, data=[46, 95]),
   midi.NoteOffEvent(tick=0, channel=9, data=[35, 95]),
   midi.NoteOnEvent(tick=0, channel=9, data=[46, 95]),
   midi.NoteOnEvent(tick=0, channel=9, data=[38, 95]),
   midi.NoteOffEvent(tick=480, channel=9, data=[46, 95]),
   midi.NoteOffEvent(tick=0, channel=9, data=[38, 95]),
   midi.NoteOnEvent(tick=0, channel=9, data=[46, 95]),
   midi.NoteOnEvent(tick=0, channel=9, data=[35, 95]),
   midi.NoteOffEvent(tick=480, channel=9, data=[46, 95]),
   midi.NoteOffEvent(tick=0, channel=9, data=[35, 95]),
   midi.NoteOnEvent(tick=0, channel=9, data=[46, 95]),
   midi.NoteOnEvent(tick=0, channel=9, data=[38, 95]),
   midi.NoteOffEvent(tick=480, channel=9, data=[46, 95]),
   midi.NoteOffEvent(tick=0, channel=9, data=[38, 95]),
   midi.NoteOnEvent(tick=0, channel=9, data=[46, 95]),
   midi.NoteOnEvent(tick=0, channel=9, data=[35, 95]),
   midi.NoteOffEvent(tick=480, channel=9, data=[46, 95]),
   midi.NoteOffEvent(tick=0, channel=9, data=[35, 95]),
   midi.NoteOnEvent(tick=0, channel=9, data=[46, 95]),
   midi.NoteOnEvent(tick=0, channel=9, data=[38, 95]),
   midi.NoteOffEvent(tick=480, channel=9, data=[46, 95]),
   midi.NoteOffEvent(tick=0, channel=9, data=[38, 95]),
   midi.NoteOnEvent(tick=0, channel=9, data=[49, 95]),
   midi.NoteOnEvent(tick=0, channel=9, data=[35, 95]),
   midi.NoteOffEvent(tick=480, channel=9, data=[49, 95]),
   midi.NoteOffEvent(tick=0, channel=9, data=[35, 95]),
   midi.NoteOnEvent(tick=0, channel=9, data=[57, 95]),
   midi.NoteOnEvent(tick=0, channel=9, data=[38, 95]),
   midi.NoteOffEvent(tick=480, channel=9, data=[57, 95]),
   midi.NoteOffEvent(tick=0, channel=9, data=[38, 95]),
   midi.NoteOnEvent(tick=0, channel=9, data=[49, 95]),
   midi.NoteOnEvent(tick=0, channel=9, data=[35, 95]),
   midi.NoteOffEvent(tick=480, channel=9, data=[49, 95]),
   midi.NoteOffEvent(tick=0, channel=9, data=[35, 95]),
   midi.NoteOnEvent(tick=0, channel=9, data=[57, 95]),
   midi.NoteOnEvent(tick=0, channel=9, data=[38, 95]),
   midi.NoteOffEvent(tick=480, channel=9, data=[57, 95]),
   midi.NoteOffEvent(tick=0, channel=9, data=[38, 95]),
   midi.NoteOnEvent(tick=0, channel=9, data=[49, 95]),
   midi.NoteOnEvent(tick=0, channel=9, data=[35, 95]),
   midi.NoteOffEvent(tick=480, channel=9, data=[49, 95]),
   midi.NoteOffEvent(tick=0, channel=9, data=[35, 95]),
   midi.NoteOnEvent(tick=0, channel=9, data=[57, 95]),
   midi.NoteOnEvent(tick=0, channel=9, data=[38, 95]),
   midi.NoteOffEvent(tick=480, channel=9, data=[57, 95]),
   midi.NoteOffEvent(tick=0, channel=9, data=[38, 95]),
   midi.NoteOnEvent(tick=0, channel=9, data=[49, 95]),
   midi.NoteOnEvent(tick=0, channel=9, data=[35, 95]),
   midi.NoteOffEvent(tick=480, channel=9, data=[49, 95]),
   midi.NoteOffEvent(tick=0, channel=9, data=[35, 95]),
   midi.NoteOnEvent(tick=0, channel=9, data=[46, 95]),
   midi.NoteOnEvent(tick=0, channel=9, data=[38, 95]),
   midi.NoteOffEvent(tick=480, channel=9, data=[46, 95]),
   midi.NoteOffEvent(tick=0, channel=9, data=[38, 95]),
   midi.NoteOnEvent(tick=0, channel=9, data=[46, 95]),
   midi.NoteOnEvent(tick=0, channel=9, data=[35, 95]),
   midi.NoteOffEvent(tick=480, channel=9, data=[46, 95]),
   midi.NoteOffEvent(tick=0, channel=9, data=[35, 95]),
   midi.NoteOnEvent(tick=0, channel=9, data=[46, 95]),
   midi.NoteOnEvent(tick=0, channel=9, data=[38, 95]),
   midi.NoteOffEvent(tick=480, channel=9, data=[46, 95]),
   midi.NoteOffEvent(tick=0, channel=9, data=[38, 95]),
   midi.NoteOnEvent(tick=0, channel=9, data=[46, 95]),
   midi.NoteOnEvent(tick=0, channel=9, data=[35, 95]),
   midi.NoteOffEvent(tick=480, channel=9, data=[46, 95]),
   midi.NoteOffEvent(tick=0, channel=9, data=[35, 95]),
   midi.NoteOnEvent(tick=0, channel=9, data=[46, 95]),
   midi.NoteOnEvent(tick=0, channel=9, data=[38, 95]),
   midi.NoteOffEvent(tick=480, channel=9, data=[46, 95]),
   midi.NoteOffEvent(tick=0, channel=9, data=[38, 95]),
   midi.NoteOnEvent(tick=0, channel=9, data=[46, 95]),
   midi.NoteOnEvent(tick=0, channel=9, data=[35, 95]),
   midi.NoteOffEvent(tick=480, channel=9, data=[46, 95]),
   midi.NoteOffEvent(tick=0, channel=9, data=[35, 95]),
   midi.NoteOnEvent(tick=0, channel=9, data=[46, 95]),
   midi.NoteOnEvent(tick=0, channel=9, data=[38, 95]),
   midi.NoteOffEvent(tick=480, channel=9, data=[46, 95]),
   midi.NoteOffEvent(tick=0, channel=9, data=[38, 95]),
   midi.NoteOnEvent(tick=0, channel=9, data=[35, 95]),
   midi.NoteOnEvent(tick=0, channel=9, data=[38, 95]),
   midi.NoteOffEvent(tick=240, channel=9, data=[35, 95]),
   midi.NoteOffEvent(tick=0, channel=9, data=[38, 95]),
   midi.NoteOnEvent(tick=0, channel=9, data=[35, 95]),
   midi.NoteOnEvent(tick=0, channel=9, data=[38, 95]),
   midi.NoteOffEvent(tick=240, channel=9, data=[35, 95]),
   midi.NoteOffEvent(tick=0, channel=9, data=[38, 95]),
   midi.NoteOnEvent(tick=0, channel=9, data=[35, 95]),
   midi.NoteOnEvent(tick=0, channel=9, data=[43, 95]),
   midi.NoteOffEvent(tick=240, channel=9, data=[35, 95]),
   midi.NoteOffEvent(tick=0, channel=9, data=[43, 95]),
   midi.NoteOnEvent(tick=0, channel=9, data=[35, 95]),
   midi.NoteOnEvent(tick=0, channel=9, data=[43, 95]),
   midi.NoteOffEvent(tick=240, channel=9, data=[35, 95]),
   midi.NoteOffEvent(tick=0, channel=9, data=[43, 95]),
   midi.NoteOnEvent(tick=0, channel=9, data=[35, 95]),
   midi.NoteOnEvent(tick=0, channel=9, data=[45, 95]),
   midi.NoteOffEvent(tick=240, channel=9, data=[35, 95]),
   midi.NoteOffEvent(tick=0, channel=9, data=[45, 95]),
   midi.NoteOnEvent(tick=0, channel=9, data=[35, 95]),
   midi.NoteOnEvent(tick=0, channel=9, data=[45, 95]),
   midi.NoteOffEvent(tick=240, channel=9, data=[35, 95]),
   midi.NoteOffEvent(tick=0, channel=9, data=[45, 95]),
   midi.NoteOnEvent(tick=0, channel=9, data=[35, 95]),
   midi.NoteOnEvent(tick=0, channel=9, data=[47, 95]),
   midi.NoteOffEvent(tick=240, channel=9, data=[35, 95]),
   midi.NoteOffEvent(tick=0, channel=9, data=[47, 95]),
   midi.NoteOnEvent(tick=0, channel=9, data=[35, 95]),
   midi.NoteOnEvent(tick=0, channel=9, data=[47, 95]),
   midi.NoteOffEvent(tick=240, channel=9, data=[35, 95]),
   midi.NoteOffEvent(tick=0, channel=9, data=[47, 95]),
   midi.NoteOnEvent(tick=0, channel=9, data=[35, 95]),
   midi.NoteOnEvent(tick=0, channel=9, data=[48, 95]),
   midi.NoteOffEvent(tick=240, channel=9, data=[35, 95]),
   midi.NoteOffEvent(tick=0, channel=9, data=[48, 95]),
   midi.NoteOnEvent(tick=0, channel=9, data=[35, 95]),
   midi.NoteOnEvent(tick=0, channel=9, data=[48, 95]),
   midi.NoteOffEvent(tick=240, channel=9, data=[35, 95]),
   midi.NoteOffEvent(tick=0, channel=9, data=[48, 95]),
   midi.NoteOnEvent(tick=0, channel=9, data=[35, 95]),
   midi.NoteOnEvent(tick=0, channel=9, data=[50, 95]),
   midi.NoteOffEvent(tick=240, channel=9, data=[35, 95]),
   midi.NoteOffEvent(tick=0, channel=9, data=[50, 95]),
   midi.NoteOnEvent(tick=0, channel=9, data=[35, 95]),
   midi.NoteOnEvent(tick=0, channel=9, data=[50, 95]),
   midi.NoteOffEvent(tick=240, channel=9, data=[35, 95]),
   midi.NoteOffEvent(tick=0, channel=9, data=[50, 95]),
   midi.NoteOnEvent(tick=0, channel=9, data=[35, 95]),
   midi.NoteOnEvent(tick=0, channel=9, data=[41, 95]),
   midi.NoteOffEvent(tick=240, channel=9, data=[35, 95]),
   midi.NoteOffEvent(tick=0, channel=9, data=[41, 95]),
   midi.NoteOnEvent(tick=0, channel=9, data=[35, 95]),
   midi.NoteOnEvent(tick=0, channel=9, data=[41, 95]),
   midi.NoteOffEvent(tick=240, channel=9, data=[35, 95]),
   midi.NoteOffEvent(tick=0, channel=9, data=[41, 95]),
   midi.NoteOnEvent(tick=0, channel=9, data=[35, 95]),
   midi.NoteOnEvent(tick=0, channel=9, data=[38, 95]),
   midi.NoteOffEvent(tick=240, channel=9, data=[35, 95]),
   midi.NoteOffEvent(tick=0, channel=9, data=[38, 95]),
   midi.NoteOnEvent(tick=0, channel=9, data=[35, 95]),
   midi.NoteOnEvent(tick=0, channel=9, data=[38, 95]),
   midi.NoteOffEvent(tick=240, channel=9, data=[35, 95]),
   midi.NoteOffEvent(tick=0, channel=9, data=[38, 95]),
   midi.NoteOnEvent(tick=0, channel=9, data=[49, 95]),
   midi.NoteOnEvent(tick=0, channel=9, data=[35, 95]),
   midi.NoteOffEvent(tick=480, channel=9, data=[49, 95]),
   midi.NoteOffEvent(tick=0, channel=9, data=[35, 95]),
   midi.NoteOnEvent(tick=0, channel=9, data=[46, 95]),
   midi.NoteOnEvent(tick=0, channel=9, data=[38, 95]),
   midi.NoteOffEvent(tick=480, channel=9, data=[46, 95]),
   midi.NoteOffEvent(tick=0, channel=9, data=[38, 95]),
   midi.NoteOnEvent(tick=0, channel=9, data=[46, 95]),
   midi.NoteOnEvent(tick=0, channel=9, data=[35, 95]),
   midi.NoteOffEvent(tick=480, channel=9, data=[46, 95]),
   midi.NoteOffEvent(tick=0, channel=9, data=[35, 95]),
   midi.NoteOnEvent(tick=0, channel=9, data=[46, 95]),
   midi.NoteOnEvent(tick=0, channel=9, data=[38, 95]),
   midi.NoteOffEvent(tick=480, channel=9, data=[46, 95]),
   midi.NoteOffEvent(tick=0, channel=9, data=[38, 95]),
   midi.NoteOnEvent(tick=0, channel=9, data=[46, 95]),
   midi.NoteOnEvent(tick=0, channel=9, data=[35, 95]),
   midi.NoteOffEvent(tick=480, channel=9, data=[46, 95]),
   midi.NoteOffEvent(tick=0, channel=9, data=[35, 95]),
   midi.NoteOnEvent(tick=0, channel=9, data=[46, 95]),
   midi.NoteOnEvent(tick=0, channel=9, data=[38, 95]),
   midi.NoteOffEvent(tick=480, channel=9, data=[46, 95]),
   midi.NoteOffEvent(tick=0, channel=9, data=[38, 95]),
   midi.NoteOnEvent(tick=0, channel=9, data=[46, 95]),
   midi.NoteOnEvent(tick=0, channel=9, data=[35, 95]),
   midi.NoteOffEvent(tick=480, channel=9, data=[46, 95]),
   midi.NoteOffEvent(tick=0, channel=9, data=[35, 95]),
   midi.NoteOnEvent(tick=0, channel=9, data=[46, 95]),
   midi.NoteOnEvent(tick=0, channel=9, data=[38, 95]),
   midi.NoteOffEvent(tick=480, channel=9, data=[46, 95]),
   midi.NoteOffEvent(tick=0, channel=9, data=[38, 95]),
   midi.NoteOnEvent(tick=0, channel=9, data=[46, 95]),
   midi.NoteOnEvent(tick=0, channel=9, data=[35, 95]),
   midi.NoteOffEvent(tick=480, channel=9, data=[46, 95]),
   midi.NoteOffEvent(tick=0, channel=9, data=[35, 95]),
   midi.NoteOnEvent(tick=0, channel=9, data=[46, 95]),
   midi.NoteOnEvent(tick=0, channel=9, data=[38, 95]),
   midi.NoteOffEvent(tick=480, channel=9, data=[46, 95]),
   midi.NoteOffEvent(tick=0, channel=9, data=[38, 95]),
   midi.NoteOnEvent(tick=0, channel=9, data=[46, 95]),
   midi.NoteOnEvent(tick=0, channel=9, data=[35, 95]),
   midi.NoteOffEvent(tick=480, channel=9, data=[46, 95]),
   midi.NoteOffEvent(tick=0, channel=9, data=[35, 95]),
   midi.NoteOnEvent(tick=0, channel=9, data=[46, 95]),
   midi.NoteOnEvent(tick=0, channel=9, data=[38, 95]),
   midi.NoteOffEvent(tick=480, channel=9, data=[46, 95]),
   midi.NoteOffEvent(tick=0, channel=9, data=[38, 95]),
   midi.NoteOnEvent(tick=0, channel=9, data=[46, 95]),
   midi.NoteOnEvent(tick=0, channel=9, data=[35, 95]),
   midi.NoteOffEvent(tick=480, channel=9, data=[46, 95]),
   midi.NoteOffEvent(tick=0, channel=9, data=[35, 95]),
   midi.NoteOnEvent(tick=0, channel=9, data=[46, 95]),
   midi.NoteOnEvent(tick=0, channel=9, data=[38, 95]),
   midi.NoteOffEvent(tick=480, channel=9, data=[46, 95]),
   midi.NoteOffEvent(tick=0, channel=9, data=[38, 95]),
   midi.NoteOnEvent(tick=0, channel=9, data=[46, 95]),
   midi.NoteOnEvent(tick=0, channel=9, data=[35, 95]),
   midi.NoteOffEvent(tick=480, channel=9, data=[46, 95]),
   midi.NoteOffEvent(tick=0, channel=9, data=[35, 95]),
   midi.NoteOnEvent(tick=0, channel=9, data=[46, 95]),
   midi.NoteOnEvent(tick=0, channel=9, data=[38, 95]),
   midi.NoteOffEvent(tick=480, channel=9, data=[46, 95]),
   midi.NoteOffEvent(tick=0, channel=9, data=[38, 95]),
   midi.NoteOnEvent(tick=0, channel=9, data=[49, 95]),
   midi.NoteOnEvent(tick=0, channel=9, data=[35, 95]),
   midi.NoteOffEvent(tick=480, channel=9, data=[49, 95]),
   midi.NoteOffEvent(tick=0, channel=9, data=[35, 95]),
   midi.NoteOnEvent(tick=0, channel=9, data=[46, 95]),
   midi.NoteOnEvent(tick=0, channel=9, data=[38, 95]),
   midi.NoteOffEvent(tick=480, channel=9, data=[46, 95]),
   midi.NoteOffEvent(tick=0, channel=9, data=[38, 95]),
   midi.NoteOnEvent(tick=0, channel=9, data=[46, 95]),
   midi.NoteOnEvent(tick=0, channel=9, data=[35, 95]),
   midi.NoteOffEvent(tick=480, channel=9, data=[46, 95]),
   midi.NoteOffEvent(tick=0, channel=9, data=[35, 95]),
   midi.NoteOnEvent(tick=0, channel=9, data=[46, 95]),
   midi.NoteOnEvent(tick=0, channel=9, data=[38, 95]),
   midi.NoteOffEvent(tick=480, channel=9, data=[46, 95]),
   midi.NoteOffEvent(tick=0, channel=9, data=[38, 95]),
   midi.NoteOnEvent(tick=0, channel=9, data=[46, 95]),
   midi.NoteOnEvent(tick=0, channel=9, data=[35, 95]),
   midi.NoteOffEvent(tick=480, channel=9, data=[46, 95]),
   midi.NoteOffEvent(tick=0, channel=9, data=[35, 95]),
   midi.NoteOnEvent(tick=0, channel=9, data=[46, 95]),
   midi.NoteOnEvent(tick=0, channel=9, data=[38, 95]),
   midi.NoteOffEvent(tick=480, channel=9, data=[46, 95]),
   midi.NoteOffEvent(tick=0, channel=9, data=[38, 95]),
   midi.NoteOnEvent(tick=0, channel=9, data=[46, 95]),
   midi.NoteOnEvent(tick=0, channel=9, data=[35, 95]),
   midi.NoteOffEvent(tick=480, channel=9, data=[46, 95]),
   midi.NoteOffEvent(tick=0, channel=9, data=[35, 95]),
   midi.NoteOnEvent(tick=0, channel=9, data=[46, 95]),
   midi.NoteOnEvent(tick=0, channel=9, data=[38, 95]),
   midi.NoteOffEvent(tick=480, channel=9, data=[46, 95]),
   midi.NoteOffEvent(tick=0, channel=9, data=[38, 95]),
   midi.NoteOnEvent(tick=0, channel=9, data=[46, 95]),
   midi.NoteOnEvent(tick=0, channel=9, data=[35, 95]),
   midi.NoteOffEvent(tick=480, channel=9, data=[46, 95]),
   midi.NoteOffEvent(tick=0, channel=9, data=[35, 95]),
   midi.NoteOnEvent(tick=0, channel=9, data=[46, 95]),
   midi.NoteOnEvent(tick=0, channel=9, data=[38, 95]),
   midi.NoteOffEvent(tick=480, channel=9, data=[46, 95]),
   midi.NoteOffEvent(tick=0, channel=9, data=[38, 95]),
   midi.NoteOnEvent(tick=0, channel=9, data=[46, 95]),
   midi.NoteOnEvent(tick=0, channel=9, data=[35, 95]),
   midi.NoteOffEvent(tick=480, channel=9, data=[46, 95]),
   midi.NoteOffEvent(tick=0, channel=9, data=[35, 95]),
   midi.NoteOnEvent(tick=0, channel=9, data=[46, 95]),
   midi.NoteOnEvent(tick=0, channel=9, data=[38, 95]),
   midi.NoteOffEvent(tick=480, channel=9, data=[46, 95]),
   midi.NoteOffEvent(tick=0, channel=9, data=[38, 95]),
   midi.NoteOnEvent(tick=0, channel=9, data=[35, 95]),
   midi.NoteOnEvent(tick=0, channel=9, data=[38, 95]),
   midi.NoteOffEvent(tick=240, channel=9, data=[35, 95]),
   midi.NoteOffEvent(tick=0, channel=9, data=[38, 95]),
   midi.NoteOnEvent(tick=0, channel=9, data=[35, 95]),
   midi.NoteOnEvent(tick=0, channel=9, data=[38, 95]),
   midi.NoteOffEvent(tick=240, channel=9, data=[35, 95]),
   midi.NoteOffEvent(tick=0, channel=9, data=[38, 95]),
   midi.NoteOnEvent(tick=0, channel=9, data=[35, 95]),
   midi.NoteOffEvent(tick=240, channel=9, data=[35, 95]),
   midi.NoteOnEvent(tick=0, channel=9, data=[45, 95]),
   midi.NoteOffEvent(tick=240, channel=9, data=[45, 95]),
   midi.NoteOnEvent(tick=0, channel=9, data=[45, 95]),
   midi.NoteOffEvent(tick=240, channel=9, data=[45, 95]),
   midi.NoteOnEvent(tick=0, channel=9, data=[35, 95]),
   midi.NoteOnEvent(tick=0, channel=9, data=[38, 95]),
   midi.NoteOffEvent(tick=240, channel=9, data=[35, 95]),
   midi.NoteOffEvent(tick=0, channel=9, data=[38, 95]),
   midi.NoteOnEvent(tick=0, channel=9, data=[35, 95]),
   midi.NoteOnEvent(tick=0, channel=9, data=[38, 95]),
   midi.NoteOffEvent(tick=240, channel=9, data=[35, 95]),
   midi.NoteOffEvent(tick=0, channel=9, data=[38, 95]),
   midi.NoteOnEvent(tick=0, channel=9, data=[35, 95]),
   midi.NoteOffEvent(tick=240, channel=9, data=[35, 95]),
   midi.NoteOnEvent(tick=0, channel=9, data=[49, 95]),
   midi.NoteOnEvent(tick=0, channel=9, data=[35, 95]),
   midi.NoteOffEvent(tick=480, channel=9, data=[49, 95]),
   midi.NoteOffEvent(tick=0, channel=9, data=[35, 95]),
   midi.NoteOnEvent(tick=0, channel=9, data=[46, 95]),
   midi.NoteOnEvent(tick=0, channel=9, data=[38, 95]),
   midi.NoteOffEvent(tick=480, channel=9, data=[46, 95]),
   midi.NoteOffEvent(tick=0, channel=9, data=[38, 95]),
   midi.NoteOnEvent(tick=0, channel=9, data=[46, 95]),
   midi.NoteOnEvent(tick=0, channel=9, data=[35, 95]),
   midi.NoteOffEvent(tick=480, channel=9, data=[46, 95]),
   midi.NoteOffEvent(tick=0, channel=9, data=[35, 95]),
   midi.NoteOnEvent(tick=0, channel=9, data=[46, 95]),
   midi.NoteOnEvent(tick=0, channel=9, data=[38, 95]),
   midi.NoteOffEvent(tick=480, channel=9, data=[46, 95]),
   midi.NoteOffEvent(tick=0, channel=9, data=[38, 95]),
   midi.NoteOnEvent(tick=0, channel=9, data=[46, 95]),
   midi.NoteOnEvent(tick=0, channel=9, data=[35, 95]),
   midi.NoteOffEvent(tick=480, channel=9, data=[46, 95]),
   midi.NoteOffEvent(tick=0, channel=9, data=[35, 95]),
   midi.NoteOnEvent(tick=0, channel=9, data=[46, 95]),
   midi.NoteOnEvent(tick=0, channel=9, data=[38, 95]),
   midi.NoteOffEvent(tick=480, channel=9, data=[46, 95]),
   midi.NoteOffEvent(tick=0, channel=9, data=[38, 95]),
   midi.NoteOnEvent(tick=0, channel=9, data=[46, 95]),
   midi.NoteOnEvent(tick=0, channel=9, data=[35, 95]),
   midi.NoteOffEvent(tick=480, channel=9, data=[46, 95]),
   midi.NoteOffEvent(tick=0, channel=9, data=[35, 95]),
   midi.NoteOnEvent(tick=0, channel=9, data=[46, 95]),
   midi.NoteOnEvent(tick=0, channel=9, data=[38, 95]),
   midi.NoteOffEvent(tick=480, channel=9, data=[46, 95]),
   midi.NoteOffEvent(tick=0, channel=9, data=[38, 95]),
   midi.NoteOnEvent(tick=0, channel=9, data=[46, 95]),
   midi.NoteOnEvent(tick=0, channel=9, data=[35, 95]),
   midi.NoteOffEvent(tick=480, channel=9, data=[46, 95]),
   midi.NoteOffEvent(tick=0, channel=9, data=[35, 95]),
   midi.NoteOnEvent(tick=0, channel=9, data=[46, 95]),
   midi.NoteOnEvent(tick=0, channel=9, data=[38, 95]),
   midi.NoteOffEvent(tick=480, channel=9, data=[46, 95]),
   midi.NoteOffEvent(tick=0, channel=9, data=[38, 95]),
   midi.NoteOnEvent(tick=0, channel=9, data=[49, 95]),
   midi.NoteOnEvent(tick=0, channel=9, data=[35, 95]),
   midi.NoteOffEvent(tick=480, channel=9, data=[49, 95]),
   midi.NoteOffEvent(tick=0, channel=9, data=[35, 95]),
   midi.NoteOnEvent(tick=0, channel=9, data=[57, 95]),
   midi.NoteOnEvent(tick=0, channel=9, data=[38, 95]),
   midi.NoteOffEvent(tick=480, channel=9, data=[57, 95]),
   midi.NoteOffEvent(tick=0, channel=9, data=[38, 95]),
   midi.NoteOnEvent(tick=0, channel=9, data=[49, 95]),
   midi.NoteOnEvent(tick=0, channel=9, data=[35, 95]),
   midi.NoteOffEvent(tick=480, channel=9, data=[49, 95]),
   midi.NoteOffEvent(tick=0, channel=9, data=[35, 95]),
   midi.NoteOnEvent(tick=0, channel=9, data=[57, 95]),
   midi.NoteOnEvent(tick=0, channel=9, data=[38, 95]),
   midi.NoteOffEvent(tick=480, channel=9, data=[57, 95]),
   midi.NoteOffEvent(tick=0, channel=9, data=[38, 95]),
   midi.NoteOnEvent(tick=0, channel=9, data=[49, 95]),
   midi.NoteOnEvent(tick=0, channel=9, data=[35, 95]),
   midi.NoteOffEvent(tick=480, channel=9, data=[49, 95]),
   midi.NoteOffEvent(tick=0, channel=9, data=[35, 95]),
   midi.NoteOnEvent(tick=0, channel=9, data=[57, 95]),
   midi.NoteOnEvent(tick=0, channel=9, data=[38, 95]),
   midi.NoteOffEvent(tick=480, channel=9, data=[57, 95]),
   midi.NoteOffEvent(tick=0, channel=9, data=[38, 95]),
   midi.NoteOnEvent(tick=0, channel=9, data=[49, 95]),
   midi.NoteOnEvent(tick=0, channel=9, data=[35, 95]),
   midi.NoteOffEvent(tick=480, channel=9, data=[49, 95]),
   midi.NoteOffEvent(tick=0, channel=9, data=[35, 95]),
   midi.NoteOnEvent(tick=0, channel=9, data=[46, 95]),
   midi.NoteOnEvent(tick=0, channel=9, data=[38, 95]),
   midi.NoteOffEvent(tick=480, channel=9, data=[46, 95]),
   midi.NoteOffEvent(tick=0, channel=9, data=[38, 95]),
   midi.NoteOnEvent(tick=0, channel=9, data=[46, 95]),
   midi.NoteOnEvent(tick=0, channel=9, data=[35, 95]),
   midi.NoteOffEvent(tick=480, channel=9, data=[46, 95]),
   midi.NoteOffEvent(tick=0, channel=9, data=[35, 95]),
   midi.NoteOnEvent(tick=0, channel=9, data=[46, 95]),
   midi.NoteOnEvent(tick=0, channel=9, data=[38, 95]),
   midi.NoteOffEvent(tick=480, channel=9, data=[46, 95]),
   midi.NoteOffEvent(tick=0, channel=9, data=[38, 95]),
   midi.NoteOnEvent(tick=0, channel=9, data=[46, 95]),
   midi.NoteOnEvent(tick=0, channel=9, data=[35, 95]),
   midi.NoteOffEvent(tick=480, channel=9, data=[46, 95]),
   midi.NoteOffEvent(tick=0, channel=9, data=[35, 95]),
   midi.NoteOnEvent(tick=0, channel=9, data=[46, 95]),
   midi.NoteOnEvent(tick=0, channel=9, data=[38, 95]),
   midi.NoteOffEvent(tick=480, channel=9, data=[46, 95]),
   midi.NoteOffEvent(tick=0, channel=9, data=[38, 95]),
   midi.NoteOnEvent(tick=0, channel=9, data=[46, 95]),
   midi.NoteOnEvent(tick=0, channel=9, data=[35, 95]),
   midi.NoteOffEvent(tick=480, channel=9, data=[46, 95]),
   midi.NoteOffEvent(tick=0, channel=9, data=[35, 95]),
   midi.NoteOnEvent(tick=0, channel=9, data=[46, 95]),
   midi.NoteOnEvent(tick=0, channel=9, data=[38, 95]),
   midi.NoteOffEvent(tick=480, channel=9, data=[46, 95]),
   midi.NoteOffEvent(tick=0, channel=9, data=[38, 95]),
   midi.NoteOnEvent(tick=0, channel=9, data=[35, 95]),
   midi.NoteOnEvent(tick=0, channel=9, data=[38, 95]),
   midi.NoteOffEvent(tick=240, channel=9, data=[35, 95]),
   midi.NoteOffEvent(tick=0, channel=9, data=[38, 95]),
   midi.NoteOnEvent(tick=0, channel=9, data=[35, 95]),
   midi.NoteOnEvent(tick=0, channel=9, data=[38, 95]),
   midi.NoteOffEvent(tick=240, channel=9, data=[35, 95]),
   midi.NoteOffEvent(tick=0, channel=9, data=[38, 95]),
   midi.NoteOnEvent(tick=0, channel=9, data=[35, 95]),
   midi.NoteOnEvent(tick=0, channel=9, data=[43, 95]),
   midi.NoteOffEvent(tick=240, channel=9, data=[35, 95]),
   midi.NoteOffEvent(tick=0, channel=9, data=[43, 95]),
   midi.NoteOnEvent(tick=0, channel=9, data=[35, 95]),
   midi.NoteOnEvent(tick=0, channel=9, data=[43, 95]),
   midi.NoteOffEvent(tick=240, channel=9, data=[35, 95]),
   midi.NoteOffEvent(tick=0, channel=9, data=[43, 95]),
   midi.NoteOnEvent(tick=0, channel=9, data=[35, 95]),
   midi.NoteOnEvent(tick=0, channel=9, data=[45, 95]),
   midi.NoteOffEvent(tick=240, channel=9, data=[35, 95]),
   midi.NoteOffEvent(tick=0, channel=9, data=[45, 95]),
   midi.NoteOnEvent(tick=0, channel=9, data=[35, 95]),
   midi.NoteOnEvent(tick=0, channel=9, data=[45, 95]),
   midi.NoteOffEvent(tick=240, channel=9, data=[35, 95]),
   midi.NoteOffEvent(tick=0, channel=9, data=[45, 95]),
   midi.NoteOnEvent(tick=0, channel=9, data=[35, 95]),
   midi.NoteOnEvent(tick=0, channel=9, data=[47, 95]),
   midi.NoteOffEvent(tick=240, channel=9, data=[35, 95]),
   midi.NoteOffEvent(tick=0, channel=9, data=[47, 95]),
   midi.NoteOnEvent(tick=0, channel=9, data=[35, 95]),
   midi.NoteOnEvent(tick=0, channel=9, data=[47, 95]),
   midi.NoteOffEvent(tick=240, channel=9, data=[35, 95]),
   midi.NoteOffEvent(tick=0, channel=9, data=[47, 95]),
   midi.NoteOnEvent(tick=0, channel=9, data=[35, 95]),
   midi.NoteOnEvent(tick=0, channel=9, data=[48, 95]),
   midi.NoteOffEvent(tick=240, channel=9, data=[35, 95]),
   midi.NoteOffEvent(tick=0, channel=9, data=[48, 95]),
   midi.NoteOnEvent(tick=0, channel=9, data=[35, 95]),
   midi.NoteOnEvent(tick=0, channel=9, data=[48, 95]),
   midi.NoteOffEvent(tick=240, channel=9, data=[35, 95]),
   midi.NoteOffEvent(tick=0, channel=9, data=[48, 95]),
   midi.NoteOnEvent(tick=0, channel=9, data=[35, 95]),
   midi.NoteOnEvent(tick=0, channel=9, data=[50, 95]),
   midi.NoteOffEvent(tick=240, channel=9, data=[35, 95]),
   midi.NoteOffEvent(tick=0, channel=9, data=[50, 95]),
   midi.NoteOnEvent(tick=0, channel=9, data=[35, 95]),
   midi.NoteOnEvent(tick=0, channel=9, data=[50, 95]),
   midi.NoteOffEvent(tick=240, channel=9, data=[35, 95]),
   midi.NoteOffEvent(tick=0, channel=9, data=[50, 95]),
   midi.NoteOnEvent(tick=0, channel=9, data=[35, 95]),
   midi.NoteOnEvent(tick=0, channel=9, data=[41, 95]),
   midi.NoteOffEvent(tick=240, channel=9, data=[35, 95]),
   midi.NoteOffEvent(tick=0, channel=9, data=[41, 95]),
   midi.NoteOnEvent(tick=0, channel=9, data=[35, 95]),
   midi.NoteOnEvent(tick=0, channel=9, data=[41, 95]),
   midi.NoteOffEvent(tick=240, channel=9, data=[35, 95]),
   midi.NoteOffEvent(tick=0, channel=9, data=[41, 95]),
   midi.NoteOnEvent(tick=0, channel=9, data=[35, 95]),
   midi.NoteOnEvent(tick=0, channel=9, data=[38, 95]),
   midi.NoteOffEvent(tick=240, channel=9, data=[35, 95]),
   midi.NoteOffEvent(tick=0, channel=9, data=[38, 95]),
   midi.NoteOnEvent(tick=0, channel=9, data=[35, 95]),
   midi.NoteOnEvent(tick=0, channel=9, data=[38, 95]),
   midi.NoteOffEvent(tick=240, channel=9, data=[35, 95]),
   midi.NoteOffEvent(tick=0, channel=9, data=[38, 95]),
   midi.NoteOnEvent(tick=0, channel=9, data=[46, 95]),
   midi.NoteOffEvent(tick=960, channel=9, data=[46, 95]),
   midi.NoteOnEvent(tick=0, channel=9, data=[46, 95]),
   midi.NoteOffEvent(tick=960, channel=9, data=[46, 95]),
   midi.NoteOnEvent(tick=0, channel=9, data=[46, 95]),
   midi.NoteOffEvent(tick=960, channel=9, data=[46, 95]),
   midi.NoteOnEvent(tick=0, channel=9, data=[38, 95]),
   midi.NoteOffEvent(tick=960, channel=9, data=[38, 95]),
   midi.NoteOnEvent(tick=0, channel=9, data=[49, 95]),
   midi.NoteOnEvent(tick=0, channel=9, data=[35, 95]),
   midi.NoteOffEvent(tick=480, channel=9, data=[49, 95]),
   midi.NoteOffEvent(tick=0, channel=9, data=[35, 95]),
   midi.NoteOnEvent(tick=0, channel=9, data=[46, 95]),
   midi.NoteOnEvent(tick=0, channel=9, data=[38, 95]),
   midi.NoteOffEvent(tick=480, channel=9, data=[46, 95]),
   midi.NoteOffEvent(tick=0, channel=9, data=[38, 95]),
   midi.NoteOnEvent(tick=0, channel=9, data=[46, 95]),
   midi.NoteOnEvent(tick=0, channel=9, data=[35, 95]),
   midi.NoteOffEvent(tick=480, channel=9, data=[46, 95]),
   midi.NoteOffEvent(tick=0, channel=9, data=[35, 95]),
   midi.NoteOnEvent(tick=0, channel=9, data=[46, 95]),
   midi.NoteOnEvent(tick=0, channel=9, data=[38, 95]),
   midi.NoteOffEvent(tick=480, channel=9, data=[46, 95]),
   midi.NoteOffEvent(tick=0, channel=9, data=[38, 95]),
   midi.NoteOnEvent(tick=0, channel=9, data=[46, 95]),
   midi.NoteOnEvent(tick=0, channel=9, data=[35, 95]),
   midi.NoteOffEvent(tick=480, channel=9, data=[46, 95]),
   midi.NoteOffEvent(tick=0, channel=9, data=[35, 95]),
   midi.NoteOnEvent(tick=0, channel=9, data=[46, 95]),
   midi.NoteOnEvent(tick=0, channel=9, data=[38, 95]),
   midi.NoteOffEvent(tick=480, channel=9, data=[46, 95]),
   midi.NoteOffEvent(tick=0, channel=9, data=[38, 95]),
   midi.NoteOnEvent(tick=0, channel=9, data=[46, 95]),
   midi.NoteOnEvent(tick=0, channel=9, data=[35, 95]),
   midi.NoteOffEvent(tick=480, channel=9, data=[46, 95]),
   midi.NoteOffEvent(tick=0, channel=9, data=[35, 95]),
   midi.NoteOnEvent(tick=0, channel=9, data=[46, 95]),
   midi.NoteOnEvent(tick=0, channel=9, data=[38, 95]),
   midi.NoteOffEvent(tick=480, channel=9, data=[46, 95]),
   midi.NoteOffEvent(tick=0, channel=9, data=[38, 95]),
   midi.NoteOnEvent(tick=0, channel=9, data=[49, 95]),
   midi.NoteOnEvent(tick=0, channel=9, data=[35, 95]),
   midi.NoteOffEvent(tick=480, channel=9, data=[49, 95]),
   midi.NoteOffEvent(tick=0, channel=9, data=[35, 95]),
   midi.NoteOnEvent(tick=0, channel=9, data=[46, 95]),
   midi.NoteOnEvent(tick=0, channel=9, data=[38, 95]),
   midi.NoteOffEvent(tick=480, channel=9, data=[46, 95]),
   midi.NoteOffEvent(tick=0, channel=9, data=[38, 95]),
   midi.NoteOnEvent(tick=0, channel=9, data=[46, 95]),
   midi.NoteOnEvent(tick=0, channel=9, data=[35, 95]),
   midi.NoteOffEvent(tick=480, channel=9, data=[46, 95]),
   midi.NoteOffEvent(tick=0, channel=9, data=[35, 95]),
   midi.NoteOnEvent(tick=0, channel=9, data=[46, 95]),
   midi.NoteOnEvent(tick=0, channel=9, data=[38, 95]),
   midi.NoteOffEvent(tick=480, channel=9, data=[46, 95]),
   midi.NoteOffEvent(tick=0, channel=9, data=[38, 95]),
   midi.NoteOnEvent(tick=0, channel=9, data=[46, 95]),
   midi.NoteOnEvent(tick=0, channel=9, data=[35, 95]),
   midi.NoteOffEvent(tick=480, channel=9, data=[46, 95]),
   midi.NoteOffEvent(tick=0, channel=9, data=[35, 95]),
   midi.NoteOnEvent(tick=0, channel=9, data=[46, 95]),
   midi.NoteOnEvent(tick=0, channel=9, data=[38, 95]),
   midi.NoteOffEvent(tick=480, channel=9, data=[46, 95]),
   midi.NoteOffEvent(tick=0, channel=9, data=[38, 95]),
   midi.NoteOnEvent(tick=0, channel=9, data=[46, 95]),
   midi.NoteOnEvent(tick=0, channel=9, data=[35, 95]),
   midi.NoteOffEvent(tick=480, channel=9, data=[46, 95]),
   midi.NoteOffEvent(tick=0, channel=9, data=[35, 95]),
   midi.NoteOnEvent(tick=0, channel=9, data=[46, 95]),
   midi.NoteOnEvent(tick=0, channel=9, data=[38, 95]),
   midi.NoteOffEvent(tick=480, channel=9, data=[46, 95]),
   midi.NoteOffEvent(tick=0, channel=9, data=[38, 95]),
   midi.NoteOnEvent(tick=0, channel=9, data=[49, 95]),
   midi.NoteOnEvent(tick=0, channel=9, data=[35, 95]),
   midi.NoteOffEvent(tick=480, channel=9, data=[49, 95]),
   midi.NoteOffEvent(tick=0, channel=9, data=[35, 95]),
   midi.NoteOnEvent(tick=0, channel=9, data=[46, 95]),
   midi.NoteOnEvent(tick=0, channel=9, data=[38, 95]),
   midi.NoteOffEvent(tick=480, channel=9, data=[46, 95]),
   midi.NoteOffEvent(tick=0, channel=9, data=[38, 95]),
   midi.NoteOnEvent(tick=0, channel=9, data=[46, 95]),
   midi.NoteOnEvent(tick=0, channel=9, data=[35, 95]),
   midi.NoteOffEvent(tick=480, channel=9, data=[46, 95]),
   midi.NoteOffEvent(tick=0, channel=9, data=[35, 95]),
   midi.NoteOnEvent(tick=0, channel=9, data=[46, 95]),
   midi.NoteOnEvent(tick=0, channel=9, data=[38, 95]),
   midi.NoteOffEvent(tick=480, channel=9, data=[46, 95]),
   midi.NoteOffEvent(tick=0, channel=9, data=[38, 95]),
   midi.NoteOnEvent(tick=0, channel=9, data=[46, 95]),
   midi.NoteOnEvent(tick=0, channel=9, data=[35, 95]),
   midi.NoteOffEvent(tick=480, channel=9, data=[46, 95]),
   midi.NoteOffEvent(tick=0, channel=9, data=[35, 95]),
   midi.NoteOnEvent(tick=0, channel=9, data=[46, 95]),
   midi.NoteOnEvent(tick=0, channel=9, data=[38, 95]),
   midi.NoteOffEvent(tick=480, channel=9, data=[46, 95]),
   midi.NoteOffEvent(tick=0, channel=9, data=[38, 95]),
   midi.NoteOnEvent(tick=0, channel=9, data=[46, 95]),
   midi.NoteOnEvent(tick=0, channel=9, data=[35, 95]),
   midi.NoteOffEvent(tick=480, channel=9, data=[46, 95]),
   midi.NoteOffEvent(tick=0, channel=9, data=[35, 95]),
   midi.NoteOnEvent(tick=0, channel=9, data=[46, 95]),
   midi.NoteOnEvent(tick=0, channel=9, data=[38, 95]),
   midi.NoteOffEvent(tick=480, channel=9, data=[46, 95]),
   midi.NoteOffEvent(tick=0, channel=9, data=[38, 95]),
   midi.NoteOnEvent(tick=0, channel=9, data=[46, 95]),
   midi.NoteOnEvent(tick=0, channel=9, data=[35, 95]),
   midi.NoteOffEvent(tick=480, channel=9, data=[46, 95]),
   midi.NoteOffEvent(tick=0, channel=9, data=[35, 95]),
   midi.NoteOnEvent(tick=0, channel=9, data=[46, 95]),
   midi.NoteOnEvent(tick=0, channel=9, data=[38, 95]),
   midi.NoteOffEvent(tick=480, channel=9, data=[46, 95]),
   midi.NoteOffEvent(tick=0, channel=9, data=[38, 95]),
   midi.NoteOnEvent(tick=0, channel=9, data=[46, 95]),
   midi.NoteOnEvent(tick=0, channel=9, data=[35, 95]),
   midi.NoteOffEvent(tick=480, channel=9, data=[46, 95]),
   midi.NoteOffEvent(tick=0, channel=9, data=[35, 95]),
   midi.NoteOnEvent(tick=0, channel=9, data=[46, 95]),
   midi.NoteOnEvent(tick=0, channel=9, data=[38, 95]),
   midi.NoteOffEvent(tick=480, channel=9, data=[46, 95]),
   midi.NoteOffEvent(tick=0, channel=9, data=[38, 95]),
   midi.NoteOnEvent(tick=0, channel=9, data=[46, 95]),
   midi.NoteOnEvent(tick=0, channel=9, data=[35, 95]),
   midi.NoteOffEvent(tick=480, channel=9, data=[46, 95]),
   midi.NoteOffEvent(tick=0, channel=9, data=[35, 95]),
   midi.NoteOnEvent(tick=0, channel=9, data=[46, 95]),
   midi.NoteOnEvent(tick=0, channel=9, data=[38, 95]),
   midi.NoteOffEvent(tick=480, channel=9, data=[46, 95]),
   midi.NoteOffEvent(tick=0, channel=9, data=[38, 95]),
   midi.NoteOnEvent(tick=0, channel=9, data=[46, 95]),
   midi.NoteOnEvent(tick=0, channel=9, data=[35, 95]),
   midi.NoteOffEvent(tick=480, channel=9, data=[46, 95]),
   midi.NoteOffEvent(tick=0, channel=9, data=[35, 95]),
   midi.NoteOnEvent(tick=0, channel=9, data=[46, 95]),
   midi.NoteOnEvent(tick=0, channel=9, data=[38, 95]),
   midi.NoteOffEvent(tick=480, channel=9, data=[46, 95]),
   midi.NoteOffEvent(tick=0, channel=9, data=[38, 95]),
   midi.NoteOnEvent(tick=0, channel=9, data=[49, 95]),
   midi.NoteOnEvent(tick=0, channel=9, data=[35, 95]),
   midi.NoteOffEvent(tick=480, channel=9, data=[49, 95]),
   midi.NoteOffEvent(tick=0, channel=9, data=[35, 95]),
   midi.NoteOnEvent(tick=0, channel=9, data=[46, 95]),
   midi.NoteOnEvent(tick=0, channel=9, data=[38, 95]),
   midi.NoteOffEvent(tick=480, channel=9, data=[46, 95]),
   midi.NoteOffEvent(tick=0, channel=9, data=[38, 95]),
   midi.NoteOnEvent(tick=0, channel=9, data=[46, 95]),
   midi.NoteOnEvent(tick=0, channel=9, data=[35, 95]),
   midi.NoteOffEvent(tick=480, channel=9, data=[46, 95]),
   midi.NoteOffEvent(tick=0, channel=9, data=[35, 95]),
   midi.NoteOnEvent(tick=0, channel=9, data=[46, 95]),
   midi.NoteOnEvent(tick=0, channel=9, data=[38, 95]),
   midi.NoteOffEvent(tick=480, channel=9, data=[46, 95]),
   midi.NoteOffEvent(tick=0, channel=9, data=[38, 95]),
   midi.NoteOnEvent(tick=0, channel=9, data=[46, 95]),
   midi.NoteOnEvent(tick=0, channel=9, data=[35, 95]),
   midi.NoteOffEvent(tick=480, channel=9, data=[46, 95]),
   midi.NoteOffEvent(tick=0, channel=9, data=[35, 95]),
   midi.NoteOnEvent(tick=0, channel=9, data=[46, 95]),
   midi.NoteOnEvent(tick=0, channel=9, data=[38, 95]),
   midi.NoteOffEvent(tick=480, channel=9, data=[46, 95]),
   midi.NoteOffEvent(tick=0, channel=9, data=[38, 95]),
   midi.NoteOnEvent(tick=0, channel=9, data=[46, 95]),
   midi.NoteOnEvent(tick=0, channel=9, data=[35, 95]),
   midi.NoteOffEvent(tick=480, channel=9, data=[46, 95]),
   midi.NoteOffEvent(tick=0, channel=9, data=[35, 95]),
   midi.NoteOnEvent(tick=0, channel=9, data=[46, 95]),
   midi.NoteOnEvent(tick=0, channel=9, data=[38, 95]),
   midi.NoteOffEvent(tick=480, channel=9, data=[46, 95]),
   midi.NoteOffEvent(tick=0, channel=9, data=[38, 95]),
   midi.NoteOnEvent(tick=0, channel=9, data=[49, 95]),
   midi.NoteOnEvent(tick=0, channel=9, data=[35, 95]),
   midi.NoteOffEvent(tick=480, channel=9, data=[49, 95]),
   midi.NoteOffEvent(tick=0, channel=9, data=[35, 95]),
   midi.NoteOnEvent(tick=0, channel=9, data=[46, 95]),
   midi.NoteOnEvent(tick=0, channel=9, data=[38, 95]),
   midi.NoteOffEvent(tick=480, channel=9, data=[46, 95]),
   midi.NoteOffEvent(tick=0, channel=9, data=[38, 95]),
   midi.NoteOnEvent(tick=0, channel=9, data=[46, 95]),
   midi.NoteOnEvent(tick=0, channel=9, data=[35, 95]),
   midi.NoteOffEvent(tick=480, channel=9, data=[46, 95]),
   midi.NoteOffEvent(tick=0, channel=9, data=[35, 95]),
   midi.NoteOnEvent(tick=0, channel=9, data=[46, 95]),
   midi.NoteOnEvent(tick=0, channel=9, data=[38, 95]),
   midi.NoteOffEvent(tick=480, channel=9, data=[46, 95]),
   midi.NoteOffEvent(tick=0, channel=9, data=[38, 95]),
   midi.NoteOnEvent(tick=0, channel=9, data=[46, 95]),
   midi.NoteOnEvent(tick=0, channel=9, data=[35, 95]),
   midi.NoteOffEvent(tick=480, channel=9, data=[46, 95]),
   midi.NoteOffEvent(tick=0, channel=9, data=[35, 95]),
   midi.NoteOnEvent(tick=0, channel=9, data=[46, 95]),
   midi.NoteOnEvent(tick=0, channel=9, data=[38, 95]),
   midi.NoteOffEvent(tick=480, channel=9, data=[46, 95]),
   midi.NoteOffEvent(tick=0, channel=9, data=[38, 95]),
   midi.NoteOnEvent(tick=0, channel=9, data=[46, 95]),
   midi.NoteOnEvent(tick=0, channel=9, data=[35, 95]),
   midi.NoteOffEvent(tick=480, channel=9, data=[46, 95]),
   midi.NoteOffEvent(tick=0, channel=9, data=[35, 95]),
   midi.NoteOnEvent(tick=0, channel=9, data=[46, 95]),
   midi.NoteOnEvent(tick=0, channel=9, data=[38, 95]),
   midi.NoteOffEvent(tick=480, channel=9, data=[46, 95]),
   midi.NoteOffEvent(tick=0, channel=9, data=[38, 95]),
   midi.NoteOnEvent(tick=0, channel=9, data=[49, 95]),
   midi.NoteOnEvent(tick=0, channel=9, data=[35, 95]),
   midi.NoteOffEvent(tick=480, channel=9, data=[49, 95]),
   midi.NoteOffEvent(tick=0, channel=9, data=[35, 95]),
   midi.NoteOnEvent(tick=0, channel=9, data=[46, 95]),
   midi.NoteOnEvent(tick=0, channel=9, data=[38, 95]),
   midi.NoteOffEvent(tick=480, channel=9, data=[46, 95]),
   midi.NoteOffEvent(tick=0, channel=9, data=[38, 95]),
   midi.NoteOnEvent(tick=0, channel=9, data=[46, 95]),
   midi.NoteOnEvent(tick=0, channel=9, data=[35, 95]),
   midi.NoteOffEvent(tick=480, channel=9, data=[46, 95]),
   midi.NoteOffEvent(tick=0, channel=9, data=[35, 95]),
   midi.NoteOnEvent(tick=0, channel=9, data=[46, 95]),
   midi.NoteOnEvent(tick=0, channel=9, data=[38, 95]),
   midi.NoteOffEvent(tick=480, channel=9, data=[46, 95]),
   midi.NoteOffEvent(tick=0, channel=9, data=[38, 95]),
   midi.NoteOnEvent(tick=0, channel=9, data=[46, 95]),
   midi.NoteOnEvent(tick=0, channel=9, data=[35, 95]),
   midi.NoteOffEvent(tick=480, channel=9, data=[46, 95]),
   midi.NoteOffEvent(tick=0, channel=9, data=[35, 95]),
   midi.NoteOnEvent(tick=0, channel=9, data=[46, 95]),
   midi.NoteOnEvent(tick=0, channel=9, data=[38, 95]),
   midi.NoteOffEvent(tick=480, channel=9, data=[46, 95]),
   midi.NoteOffEvent(tick=0, channel=9, data=[38, 95]),
   midi.NoteOnEvent(tick=0, channel=9, data=[46, 95]),
   midi.NoteOnEvent(tick=0, channel=9, data=[35, 95]),
   midi.NoteOffEvent(tick=480, channel=9, data=[46, 95]),
   midi.NoteOffEvent(tick=0, channel=9, data=[35, 95]),
   midi.NoteOnEvent(tick=0, channel=9, data=[46, 95]),
   midi.NoteOnEvent(tick=0, channel=9, data=[38, 95]),
   midi.NoteOffEvent(tick=480, channel=9, data=[46, 95]),
   midi.NoteOffEvent(tick=0, channel=9, data=[38, 95]),
   midi.NoteOnEvent(tick=0, channel=9, data=[46, 95]),
   midi.NoteOnEvent(tick=0, channel=9, data=[35, 95]),
   midi.NoteOffEvent(tick=480, channel=9, data=[46, 95]),
   midi.NoteOffEvent(tick=0, channel=9, data=[35, 95]),
   midi.NoteOnEvent(tick=0, channel=9, data=[46, 95]),
   midi.NoteOnEvent(tick=0, channel=9, data=[38, 95]),
   midi.NoteOffEvent(tick=480, channel=9, data=[46, 95]),
   midi.NoteOffEvent(tick=0, channel=9, data=[38, 95]),
   midi.NoteOnEvent(tick=0, channel=9, data=[46, 95]),
   midi.NoteOnEvent(tick=0, channel=9, data=[35, 95]),
   midi.NoteOffEvent(tick=480, channel=9, data=[46, 95]),
   midi.NoteOffEvent(tick=0, channel=9, data=[35, 95]),
   midi.NoteOnEvent(tick=0, channel=9, data=[46, 95]),
   midi.NoteOnEvent(tick=0, channel=9, data=[38, 95]),
   midi.NoteOffEvent(tick=480, channel=9, data=[46, 95]),
   midi.NoteOffEvent(tick=0, channel=9, data=[38, 95]),
   midi.NoteOnEvent(tick=0, channel=9, data=[46, 95]),
   midi.NoteOnEvent(tick=0, channel=9, data=[35, 95]),
   midi.NoteOffEvent(tick=480, channel=9, data=[46, 95]),
   midi.NoteOffEvent(tick=0, channel=9, data=[35, 95]),
   midi.NoteOnEvent(tick=0, channel=9, data=[46, 95]),
   midi.NoteOnEvent(tick=0, channel=9, data=[38, 95]),
   midi.NoteOffEvent(tick=480, channel=9, data=[46, 95]),
   midi.NoteOffEvent(tick=0, channel=9, data=[38, 95]),
   midi.NoteOnEvent(tick=0, channel=9, data=[46, 95]),
   midi.NoteOnEvent(tick=0, channel=9, data=[35, 95]),
   midi.NoteOffEvent(tick=480, channel=9, data=[46, 95]),
   midi.NoteOffEvent(tick=0, channel=9, data=[35, 95]),
   midi.NoteOnEvent(tick=0, channel=9, data=[46, 95]),
   midi.NoteOnEvent(tick=0, channel=9, data=[38, 95]),
   midi.NoteOffEvent(tick=480, channel=9, data=[46, 95]),
   midi.NoteOffEvent(tick=0, channel=9, data=[38, 95]),
   midi.NoteOnEvent(tick=0, channel=9, data=[49, 95]),
   midi.NoteOnEvent(tick=0, channel=9, data=[35, 95]),
   midi.NoteOffEvent(tick=480, channel=9, data=[49, 95]),
   midi.NoteOffEvent(tick=0, channel=9, data=[35, 95]),
   midi.NoteOnEvent(tick=0, channel=9, data=[46, 95]),
   midi.NoteOnEvent(tick=0, channel=9, data=[38, 95]),
   midi.NoteOffEvent(tick=480, channel=9, data=[46, 95]),
   midi.NoteOffEvent(tick=0, channel=9, data=[38, 95]),
   midi.NoteOnEvent(tick=0, channel=9, data=[46, 95]),
   midi.NoteOnEvent(tick=0, channel=9, data=[35, 95]),
   midi.NoteOffEvent(tick=480, channel=9, data=[46, 95]),
   midi.NoteOffEvent(tick=0, channel=9, data=[35, 95]),
   midi.NoteOnEvent(tick=0, channel=9, data=[46, 95]),
   midi.NoteOnEvent(tick=0, channel=9, data=[38, 95]),
   midi.NoteOffEvent(tick=480, channel=9, data=[46, 95]),
   midi.NoteOffEvent(tick=0, channel=9, data=[38, 95]),
   midi.NoteOnEvent(tick=0, channel=9, data=[46, 95]),
   midi.NoteOnEvent(tick=0, channel=9, data=[35, 95]),
   midi.NoteOffEvent(tick=480, channel=9, data=[46, 95]),
   midi.NoteOffEvent(tick=0, channel=9, data=[35, 95]),
   midi.NoteOnEvent(tick=0, channel=9, data=[46, 95]),
   midi.NoteOnEvent(tick=0, channel=9, data=[38, 95]),
   midi.NoteOffEvent(tick=480, channel=9, data=[46, 95]),
   midi.NoteOffEvent(tick=0, channel=9, data=[38, 95]),
   midi.NoteOnEvent(tick=0, channel=9, data=[46, 95]),
   midi.NoteOnEvent(tick=0, channel=9, data=[35, 95]),
   midi.NoteOffEvent(tick=480, channel=9, data=[46, 95]),
   midi.NoteOffEvent(tick=0, channel=9, data=[35, 95]),
   midi.NoteOnEvent(tick=0, channel=9, data=[46, 95]),
   midi.NoteOnEvent(tick=0, channel=9, data=[38, 95]),
   midi.NoteOffEvent(tick=480, channel=9, data=[46, 95]),
   midi.NoteOffEvent(tick=0, channel=9, data=[38, 95]),
   midi.NoteOnEvent(tick=0, channel=9, data=[49, 95]),
   midi.NoteOnEvent(tick=0, channel=9, data=[35, 95]),
   midi.NoteOffEvent(tick=480, channel=9, data=[49, 95]),
   midi.NoteOffEvent(tick=0, channel=9, data=[35, 95]),
   midi.NoteOnEvent(tick=0, channel=9, data=[46, 95]),
   midi.NoteOnEvent(tick=0, channel=9, data=[38, 95]),
   midi.NoteOffEvent(tick=480, channel=9, data=[46, 95]),
   midi.NoteOffEvent(tick=0, channel=9, data=[38, 95]),
   midi.NoteOnEvent(tick=0, channel=9, data=[46, 95]),
   midi.NoteOnEvent(tick=0, channel=9, data=[35, 95]),
   midi.NoteOffEvent(tick=480, channel=9, data=[46, 95]),
   midi.NoteOffEvent(tick=0, channel=9, data=[35, 95]),
   midi.NoteOnEvent(tick=0, channel=9, data=[46, 95]),
   midi.NoteOnEvent(tick=0, channel=9, data=[38, 95]),
   midi.NoteOffEvent(tick=480, channel=9, data=[46, 95]),
   midi.NoteOffEvent(tick=0, channel=9, data=[38, 95]),
   midi.NoteOnEvent(tick=0, channel=9, data=[46, 95]),
   midi.NoteOnEvent(tick=0, channel=9, data=[35, 95]),
   midi.NoteOffEvent(tick=480, channel=9, data=[46, 95]),
   midi.NoteOffEvent(tick=0, channel=9, data=[35, 95]),
   midi.NoteOnEvent(tick=0, channel=9, data=[46, 95]),
   midi.NoteOnEvent(tick=0, channel=9, data=[38, 95]),
   midi.NoteOffEvent(tick=480, channel=9, data=[46, 95]),
   midi.NoteOffEvent(tick=0, channel=9, data=[38, 95]),
   midi.NoteOnEvent(tick=0, channel=9, data=[46, 95]),
   midi.NoteOnEvent(tick=0, channel=9, data=[35, 95]),
   midi.NoteOffEvent(tick=480, channel=9, data=[46, 95]),
   midi.NoteOffEvent(tick=0, channel=9, data=[35, 95]),
   midi.NoteOnEvent(tick=0, channel=9, data=[46, 95]),
   midi.NoteOnEvent(tick=0, channel=9, data=[38, 95]),
   midi.NoteOffEvent(tick=480, channel=9, data=[46, 95]),
   midi.NoteOffEvent(tick=0, channel=9, data=[38, 95]),
   midi.NoteOnEvent(tick=0, channel=9, data=[49, 95]),
   midi.NoteOnEvent(tick=0, channel=9, data=[35, 95]),
   midi.NoteOffEvent(tick=480, channel=9, data=[49, 95]),
   midi.NoteOffEvent(tick=0, channel=9, data=[35, 95]),
   midi.NoteOnEvent(tick=0, channel=9, data=[46, 95]),
   midi.NoteOnEvent(tick=0, channel=9, data=[38, 95]),
   midi.NoteOffEvent(tick=480, channel=9, data=[46, 95]),
   midi.NoteOffEvent(tick=0, channel=9, data=[38, 95]),
   midi.NoteOnEvent(tick=0, channel=9, data=[46, 95]),
   midi.NoteOnEvent(tick=0, channel=9, data=[35, 95]),
   midi.NoteOffEvent(tick=480, channel=9, data=[46, 95]),
   midi.NoteOffEvent(tick=0, channel=9, data=[35, 95]),
   midi.NoteOnEvent(tick=0, channel=9, data=[46, 95]),
   midi.NoteOnEvent(tick=0, channel=9, data=[38, 95]),
   midi.NoteOffEvent(tick=480, channel=9, data=[46, 95]),
   midi.NoteOffEvent(tick=0, channel=9, data=[38, 95]),
   midi.NoteOnEvent(tick=0, channel=9, data=[46, 95]),
   midi.NoteOnEvent(tick=0, channel=9, data=[35, 95]),
   midi.NoteOffEvent(tick=480, channel=9, data=[46, 95]),
   midi.NoteOffEvent(tick=0, channel=9, data=[35, 95]),
   midi.NoteOnEvent(tick=0, channel=9, data=[46, 95]),
   midi.NoteOnEvent(tick=0, channel=9, data=[38, 95]),
   midi.NoteOffEvent(tick=480, channel=9, data=[46, 95]),
   midi.NoteOffEvent(tick=0, channel=9, data=[38, 95]),
   midi.NoteOnEvent(tick=0, channel=9, data=[46, 95]),
   midi.NoteOnEvent(tick=0, channel=9, data=[35, 95]),
   midi.NoteOffEvent(tick=480, channel=9, data=[46, 95]),
   midi.NoteOffEvent(tick=0, channel=9, data=[35, 95]),
   midi.NoteOnEvent(tick=0, channel=9, data=[46, 95]),
   midi.NoteOnEvent(tick=0, channel=9, data=[38, 95]),
   midi.NoteOffEvent(tick=480, channel=9, data=[46, 95]),
   midi.NoteOffEvent(tick=0, channel=9, data=[38, 95]),
   midi.NoteOnEvent(tick=0, channel=9, data=[46, 95]),
   midi.NoteOnEvent(tick=0, channel=9, data=[35, 95]),
   midi.NoteOffEvent(tick=480, channel=9, data=[46, 95]),
   midi.NoteOffEvent(tick=0, channel=9, data=[35, 95]),
   midi.NoteOnEvent(tick=0, channel=9, data=[46, 95]),
   midi.NoteOnEvent(tick=0, channel=9, data=[38, 95]),
   midi.NoteOffEvent(tick=480, channel=9, data=[46, 95]),
   midi.NoteOffEvent(tick=0, channel=9, data=[38, 95]),
   midi.NoteOnEvent(tick=0, channel=9, data=[46, 95]),
   midi.NoteOnEvent(tick=0, channel=9, data=[35, 95]),
   midi.NoteOffEvent(tick=480, channel=9, data=[46, 95]),
   midi.NoteOffEvent(tick=0, channel=9, data=[35, 95]),
   midi.NoteOnEvent(tick=0, channel=9, data=[46, 95]),
   midi.NoteOnEvent(tick=0, channel=9, data=[38, 95]),
   midi.NoteOffEvent(tick=480, channel=9, data=[46, 95]),
   midi.NoteOffEvent(tick=0, channel=9, data=[38, 95]),
   midi.NoteOnEvent(tick=0, channel=9, data=[46, 95]),
   midi.NoteOnEvent(tick=0, channel=9, data=[35, 95]),
   midi.NoteOffEvent(tick=480, channel=9, data=[46, 95]),
   midi.NoteOffEvent(tick=0, channel=9, data=[35, 95]),
   midi.NoteOnEvent(tick=0, channel=9, data=[46, 95]),
   midi.NoteOnEvent(tick=0, channel=9, data=[38, 95]),
   midi.NoteOffEvent(tick=480, channel=9, data=[46, 95]),
   midi.NoteOffEvent(tick=0, channel=9, data=[38, 95]),
   midi.NoteOnEvent(tick=0, channel=9, data=[46, 95]),
   midi.NoteOnEvent(tick=0, channel=9, data=[35, 95]),
   midi.NoteOffEvent(tick=480, channel=9, data=[46, 95]),
   midi.NoteOffEvent(tick=0, channel=9, data=[35, 95]),
   midi.NoteOnEvent(tick=0, channel=9, data=[46, 95]),
   midi.NoteOnEvent(tick=0, channel=9, data=[38, 95]),
   midi.NoteOffEvent(tick=480, channel=9, data=[46, 95]),
   midi.NoteOffEvent(tick=0, channel=9, data=[38, 95]),
   midi.NoteOnEvent(tick=0, channel=9, data=[49, 95]),
   midi.NoteOnEvent(tick=0, channel=9, data=[35, 95]),
   midi.NoteOffEvent(tick=480, channel=9, data=[49, 95]),
   midi.NoteOffEvent(tick=0, channel=9, data=[35, 95]),
   midi.NoteOnEvent(tick=0, channel=9, data=[46, 95]),
   midi.NoteOnEvent(tick=0, channel=9, data=[38, 95]),
   midi.NoteOffEvent(tick=480, channel=9, data=[46, 95]),
   midi.NoteOffEvent(tick=0, channel=9, data=[38, 95]),
   midi.NoteOnEvent(tick=0, channel=9, data=[46, 95]),
   midi.NoteOnEvent(tick=0, channel=9, data=[35, 95]),
   midi.NoteOffEvent(tick=480, channel=9, data=[46, 95]),
   midi.NoteOffEvent(tick=0, channel=9, data=[35, 95]),
   midi.NoteOnEvent(tick=0, channel=9, data=[46, 95]),
   midi.NoteOnEvent(tick=0, channel=9, data=[38, 95]),
   midi.NoteOffEvent(tick=480, channel=9, data=[46, 95]),
   midi.NoteOffEvent(tick=0, channel=9, data=[38, 95]),
   midi.NoteOnEvent(tick=0, channel=9, data=[46, 95]),
   midi.NoteOnEvent(tick=0, channel=9, data=[35, 95]),
   midi.NoteOffEvent(tick=480, channel=9, data=[46, 95]),
   midi.NoteOffEvent(tick=0, channel=9, data=[35, 95]),
   midi.NoteOnEvent(tick=0, channel=9, data=[46, 95]),
   midi.NoteOnEvent(tick=0, channel=9, data=[38, 95]),
   midi.NoteOffEvent(tick=480, channel=9, data=[46, 95]),
   midi.NoteOffEvent(tick=0, channel=9, data=[38, 95]),
   midi.NoteOnEvent(tick=0, channel=9, data=[46, 95]),
   midi.NoteOnEvent(tick=0, channel=9, data=[35, 95]),
   midi.NoteOffEvent(tick=480, channel=9, data=[46, 95]),
   midi.NoteOffEvent(tick=0, channel=9, data=[35, 95]),
   midi.NoteOnEvent(tick=0, channel=9, data=[46, 95]),
   midi.NoteOnEvent(tick=0, channel=9, data=[38, 95]),
   midi.NoteOffEvent(tick=480, channel=9, data=[46, 95]),
   midi.NoteOffEvent(tick=0, channel=9, data=[38, 95]),
   midi.NoteOnEvent(tick=0, channel=9, data=[49, 95]),
   midi.NoteOnEvent(tick=0, channel=9, data=[35, 95]),
   midi.NoteOffEvent(tick=480, channel=9, data=[49, 95]),
   midi.NoteOffEvent(tick=0, channel=9, data=[35, 95]),
   midi.NoteOnEvent(tick=0, channel=9, data=[46, 95]),
   midi.NoteOnEvent(tick=0, channel=9, data=[38, 95]),
   midi.NoteOffEvent(tick=480, channel=9, data=[46, 95]),
   midi.NoteOffEvent(tick=0, channel=9, data=[38, 95]),
   midi.NoteOnEvent(tick=0, channel=9, data=[46, 95]),
   midi.NoteOnEvent(tick=0, channel=9, data=[35, 95]),
   midi.NoteOffEvent(tick=480, channel=9, data=[46, 95]),
   midi.NoteOffEvent(tick=0, channel=9, data=[35, 95]),
   midi.NoteOnEvent(tick=0, channel=9, data=[46, 95]),
   midi.NoteOnEvent(tick=0, channel=9, data=[38, 95]),
   midi.NoteOffEvent(tick=480, channel=9, data=[46, 95]),
   midi.NoteOffEvent(tick=0, channel=9, data=[38, 95]),
   midi.NoteOnEvent(tick=0, channel=9, data=[46, 95]),
   midi.NoteOnEvent(tick=0, channel=9, data=[35, 95]),
   midi.NoteOffEvent(tick=480, channel=9, data=[46, 95]),
   midi.NoteOffEvent(tick=0, channel=9, data=[35, 95]),
   midi.NoteOnEvent(tick=0, channel=9, data=[46, 95]),
   midi.NoteOnEvent(tick=0, channel=9, data=[38, 95]),
   midi.NoteOffEvent(tick=480, channel=9, data=[46, 95]),
   midi.NoteOffEvent(tick=0, channel=9, data=[38, 95]),
   midi.NoteOnEvent(tick=0, channel=9, data=[46, 95]),
   midi.NoteOnEvent(tick=0, channel=9, data=[35, 95]),
   midi.NoteOffEvent(tick=480, channel=9, data=[46, 95]),
   midi.NoteOffEvent(tick=0, channel=9, data=[35, 95]),
   midi.NoteOnEvent(tick=0, channel=9, data=[46, 95]),
   midi.NoteOnEvent(tick=0, channel=9, data=[38, 95]),
   midi.NoteOffEvent(tick=480, channel=9, data=[46, 95]),
   midi.NoteOffEvent(tick=0, channel=9, data=[38, 95]),
   midi.NoteOnEvent(tick=0, channel=9, data=[49, 95]),
   midi.NoteOnEvent(tick=0, channel=9, data=[35, 95]),
   midi.NoteOffEvent(tick=480, channel=9, data=[49, 95]),
   midi.NoteOffEvent(tick=0, channel=9, data=[35, 95]),
   midi.NoteOnEvent(tick=0, channel=9, data=[46, 95]),
   midi.NoteOnEvent(tick=0, channel=9, data=[38, 95]),
   midi.NoteOffEvent(tick=480, channel=9, data=[46, 95]),
   midi.NoteOffEvent(tick=0, channel=9, data=[38, 95]),
   midi.NoteOnEvent(tick=0, channel=9, data=[46, 95]),
   midi.NoteOnEvent(tick=0, channel=9, data=[35, 95]),
   midi.NoteOffEvent(tick=480, channel=9, data=[46, 95]),
   midi.NoteOffEvent(tick=0, channel=9, data=[35, 95]),
   midi.NoteOnEvent(tick=0, channel=9, data=[46, 95]),
   midi.NoteOnEvent(tick=0, channel=9, data=[38, 95]),
   midi.NoteOffEvent(tick=480, channel=9, data=[46, 95]),
   midi.NoteOffEvent(tick=0, channel=9, data=[38, 95]),
   midi.NoteOnEvent(tick=0, channel=9, data=[46, 95]),
   midi.NoteOnEvent(tick=0, channel=9, data=[35, 95]),
   midi.NoteOffEvent(tick=480, channel=9, data=[46, 95]),
   midi.NoteOffEvent(tick=0, channel=9, data=[35, 95]),
   midi.NoteOnEvent(tick=0, channel=9, data=[46, 95]),
   midi.NoteOnEvent(tick=0, channel=9, data=[38, 95]),
   midi.NoteOffEvent(tick=480, channel=9, data=[46, 95]),
   midi.NoteOffEvent(tick=0, channel=9, data=[38, 95]),
   midi.NoteOnEvent(tick=0, channel=9, data=[46, 95]),
   midi.NoteOnEvent(tick=0, channel=9, data=[35, 95]),
   midi.NoteOffEvent(tick=480, channel=9, data=[46, 95]),
   midi.NoteOffEvent(tick=0, channel=9, data=[35, 95]),
   midi.NoteOnEvent(tick=0, channel=9, data=[46, 95]),
   midi.NoteOnEvent(tick=0, channel=9, data=[38, 95]),
   midi.NoteOffEvent(tick=480, channel=9, data=[46, 95]),
   midi.NoteOffEvent(tick=0, channel=9, data=[38, 95]),
   midi.NoteOnEvent(tick=0, channel=9, data=[46, 95]),
   midi.NoteOnEvent(tick=0, channel=9, data=[35, 95]),
   midi.NoteOffEvent(tick=480, channel=9, data=[46, 95]),
   midi.NoteOffEvent(tick=0, channel=9, data=[35, 95]),
   midi.NoteOnEvent(tick=0, channel=9, data=[46, 95]),
   midi.NoteOnEvent(tick=0, channel=9, data=[38, 95]),
   midi.NoteOffEvent(tick=480, channel=9, data=[46, 95]),
   midi.NoteOffEvent(tick=0, channel=9, data=[38, 95]),
   midi.NoteOnEvent(tick=0, channel=9, data=[46, 95]),
   midi.NoteOnEvent(tick=0, channel=9, data=[35, 95]),
   midi.NoteOffEvent(tick=480, channel=9, data=[46, 95]),
   midi.NoteOffEvent(tick=0, channel=9, data=[35, 95]),
   midi.NoteOnEvent(tick=0, channel=9, data=[46, 95]),
   midi.NoteOnEvent(tick=0, channel=9, data=[38, 95]),
   midi.NoteOffEvent(tick=480, channel=9, data=[46, 95]),
   midi.NoteOffEvent(tick=0, channel=9, data=[38, 95]),
   midi.NoteOnEvent(tick=0, channel=9, data=[46, 95]),
   midi.NoteOnEvent(tick=0, channel=9, data=[35, 95]),
   midi.NoteOffEvent(tick=480, channel=9, data=[46, 95]),
   midi.NoteOffEvent(tick=0, channel=9, data=[35, 95]),
   midi.NoteOnEvent(tick=0, channel=9, data=[46, 95]),
   midi.NoteOnEvent(tick=0, channel=9, data=[38, 95]),
   midi.NoteOffEvent(tick=480, channel=9, data=[46, 95]),
   midi.NoteOffEvent(tick=0, channel=9, data=[38, 95]),
   midi.NoteOnEvent(tick=0, channel=9, data=[46, 95]),
   midi.NoteOnEvent(tick=0, channel=9, data=[35, 95]),
   midi.NoteOffEvent(tick=480, channel=9, data=[46, 95]),
   midi.NoteOffEvent(tick=0, channel=9, data=[35, 95]),
   midi.NoteOnEvent(tick=0, channel=9, data=[46, 95]),
   midi.NoteOnEvent(tick=0, channel=9, data=[38, 95]),
   midi.NoteOffEvent(tick=480, channel=9, data=[46, 95]),
   midi.NoteOffEvent(tick=0, channel=9, data=[38, 95]),
   midi.NoteOnEvent(tick=0, channel=9, data=[49, 95]),
   midi.NoteOnEvent(tick=0, channel=9, data=[35, 95]),
   midi.NoteOffEvent(tick=480, channel=9, data=[49, 95]),
   midi.NoteOffEvent(tick=0, channel=9, data=[35, 95]),
   midi.NoteOnEvent(tick=0, channel=9, data=[46, 95]),
   midi.NoteOnEvent(tick=0, channel=9, data=[38, 95]),
   midi.NoteOffEvent(tick=480, channel=9, data=[46, 95]),
   midi.NoteOffEvent(tick=0, channel=9, data=[38, 95]),
   midi.NoteOnEvent(tick=0, channel=9, data=[46, 95]),
   midi.NoteOnEvent(tick=0, channel=9, data=[35, 95]),
   midi.NoteOffEvent(tick=480, channel=9, data=[46, 95]),
   midi.NoteOffEvent(tick=0, channel=9, data=[35, 95]),
   midi.NoteOnEvent(tick=0, channel=9, data=[46, 95]),
   midi.NoteOnEvent(tick=0, channel=9, data=[38, 95]),
   midi.NoteOffEvent(tick=480, channel=9, data=[46, 95]),
   midi.NoteOffEvent(tick=0, channel=9, data=[38, 95]),
   midi.NoteOnEvent(tick=0, channel=9, data=[46, 95]),
   midi.NoteOnEvent(tick=0, channel=9, data=[35, 95]),
   midi.NoteOffEvent(tick=480, channel=9, data=[46, 95]),
   midi.NoteOffEvent(tick=0, channel=9, data=[35, 95]),
   midi.NoteOnEvent(tick=0, channel=9, data=[46, 95]),
   midi.NoteOnEvent(tick=0, channel=9, data=[38, 95]),
   midi.NoteOffEvent(tick=480, channel=9, data=[46, 95]),
   midi.NoteOffEvent(tick=0, channel=9, data=[38, 95]),
   midi.NoteOnEvent(tick=0, channel=9, data=[46, 95]),
   midi.NoteOnEvent(tick=0, channel=9, data=[35, 95]),
   midi.NoteOffEvent(tick=480, channel=9, data=[46, 95]),
   midi.NoteOffEvent(tick=0, channel=9, data=[35, 95]),
   midi.NoteOnEvent(tick=0, channel=9, data=[46, 95]),
   midi.NoteOnEvent(tick=0, channel=9, data=[38, 95]),
   midi.NoteOffEvent(tick=480, channel=9, data=[46, 95]),
   midi.NoteOffEvent(tick=0, channel=9, data=[38, 95]),
   midi.NoteOnEvent(tick=0, channel=9, data=[49, 95]),
   midi.NoteOnEvent(tick=0, channel=9, data=[35, 95]),
   midi.NoteOffEvent(tick=480, channel=9, data=[49, 95]),
   midi.NoteOffEvent(tick=0, channel=9, data=[35, 95]),
   midi.NoteOnEvent(tick=0, channel=9, data=[46, 95]),
   midi.NoteOnEvent(tick=0, channel=9, data=[38, 95]),
   midi.NoteOffEvent(tick=480, channel=9, data=[46, 95]),
   midi.NoteOffEvent(tick=0, channel=9, data=[38, 95]),
   midi.NoteOnEvent(tick=0, channel=9, data=[46, 95]),
   midi.NoteOnEvent(tick=0, channel=9, data=[35, 95]),
   midi.NoteOffEvent(tick=480, channel=9, data=[46, 95]),
   midi.NoteOffEvent(tick=0, channel=9, data=[35, 95]),
   midi.NoteOnEvent(tick=0, channel=9, data=[46, 95]),
   midi.NoteOnEvent(tick=0, channel=9, data=[38, 95]),
   midi.NoteOffEvent(tick=480, channel=9, data=[46, 95]),
   midi.NoteOffEvent(tick=0, channel=9, data=[38, 95]),
   midi.NoteOnEvent(tick=0, channel=9, data=[46, 95]),
   midi.NoteOnEvent(tick=0, channel=9, data=[35, 95]),
   midi.NoteOffEvent(tick=480, channel=9, data=[46, 95]),
   midi.NoteOffEvent(tick=0, channel=9, data=[35, 95]),
   midi.NoteOnEvent(tick=0, channel=9, data=[46, 95]),
   midi.NoteOnEvent(tick=0, channel=9, data=[38, 95]),
   midi.NoteOffEvent(tick=480, channel=9, data=[46, 95]),
   midi.NoteOffEvent(tick=0, channel=9, data=[38, 95]),
   midi.NoteOnEvent(tick=0, channel=9, data=[46, 95]),
   midi.NoteOnEvent(tick=0, channel=9, data=[35, 95]),
   midi.NoteOffEvent(tick=480, channel=9, data=[46, 95]),
   midi.NoteOffEvent(tick=0, channel=9, data=[35, 95]),
   midi.NoteOnEvent(tick=0, channel=9, data=[46, 95]),
   midi.NoteOnEvent(tick=0, channel=9, data=[38, 95]),
   midi.NoteOffEvent(tick=480, channel=9, data=[46, 95]),
   midi.NoteOffEvent(tick=0, channel=9, data=[38, 95]),
   midi.NoteOnEvent(tick=0, channel=9, data=[49, 95]),
   midi.NoteOnEvent(tick=0, channel=9, data=[35, 95]),
   midi.NoteOffEvent(tick=480, channel=9, data=[49, 95]),
   midi.NoteOffEvent(tick=0, channel=9, data=[35, 95]),
   midi.NoteOnEvent(tick=0, channel=9, data=[46, 95]),
   midi.NoteOnEvent(tick=0, channel=9, data=[38, 95]),
   midi.NoteOffEvent(tick=480, channel=9, data=[46, 95]),
   midi.NoteOffEvent(tick=0, channel=9, data=[38, 95]),
   midi.NoteOnEvent(tick=0, channel=9, data=[46, 95]),
   midi.NoteOnEvent(tick=0, channel=9, data=[35, 95]),
   midi.NoteOffEvent(tick=480, channel=9, data=[46, 95]),
   midi.NoteOffEvent(tick=0, channel=9, data=[35, 95]),
   midi.NoteOnEvent(tick=0, channel=9, data=[46, 95]),
   midi.NoteOnEvent(tick=0, channel=9, data=[38, 95]),
   midi.NoteOffEvent(tick=480, channel=9, data=[46, 95]),
   midi.NoteOffEvent(tick=0, channel=9, data=[38, 95]),
   midi.NoteOnEvent(tick=0, channel=9, data=[46, 95]),
   midi.NoteOnEvent(tick=0, channel=9, data=[35, 95]),
   midi.NoteOffEvent(tick=480, channel=9, data=[46, 95]),
   midi.NoteOffEvent(tick=0, channel=9, data=[35, 95]),
   midi.NoteOnEvent(tick=0, channel=9, data=[46, 95]),
   midi.NoteOnEvent(tick=0, channel=9, data=[38, 95]),
   midi.NoteOffEvent(tick=480, channel=9, data=[46, 95]),
   midi.NoteOffEvent(tick=0, channel=9, data=[38, 95]),
   midi.NoteOnEvent(tick=0, channel=9, data=[46, 95]),
   midi.NoteOnEvent(tick=0, channel=9, data=[35, 95]),
   midi.NoteOffEvent(tick=480, channel=9, data=[46, 95]),
   midi.NoteOffEvent(tick=0, channel=9, data=[35, 95]),
   midi.NoteOnEvent(tick=0, channel=9, data=[46, 95]),
   midi.NoteOnEvent(tick=0, channel=9, data=[38, 95]),
   midi.NoteOffEvent(tick=480, channel=9, data=[46, 95]),
   midi.NoteOffEvent(tick=0, channel=9, data=[38, 95]),
   midi.NoteOnEvent(tick=0, channel=9, data=[46, 95]),
   midi.NoteOnEvent(tick=0, channel=9, data=[35, 95]),
   midi.NoteOffEvent(tick=480, channel=9, data=[46, 95]),
   midi.NoteOffEvent(tick=0, channel=9, data=[35, 95]),
   midi.NoteOnEvent(tick=0, channel=9, data=[46, 95]),
   midi.NoteOnEvent(tick=0, channel=9, data=[38, 95]),
   midi.NoteOffEvent(tick=480, channel=9, data=[46, 95]),
   midi.NoteOffEvent(tick=0, channel=9, data=[38, 95]),
   midi.NoteOnEvent(tick=0, channel=9, data=[46, 95]),
   midi.NoteOnEvent(tick=0, channel=9, data=[35, 95]),
   midi.NoteOffEvent(tick=480, channel=9, data=[46, 95]),
   midi.NoteOffEvent(tick=0, channel=9, data=[35, 95]),
   midi.NoteOnEvent(tick=0, channel=9, data=[46, 95]),
   midi.NoteOnEvent(tick=0, channel=9, data=[38, 95]),
   midi.NoteOffEvent(tick=480, channel=9, data=[46, 95]),
   midi.NoteOffEvent(tick=0, channel=9, data=[38, 95]),
   midi.NoteOnEvent(tick=0, channel=9, data=[46, 95]),
   midi.NoteOnEvent(tick=0, channel=9, data=[35, 95]),
   midi.NoteOffEvent(tick=480, channel=9, data=[46, 95]),
   midi.NoteOffEvent(tick=0, channel=9, data=[35, 95]),
   midi.NoteOnEvent(tick=0, channel=9, data=[46, 95]),
   midi.NoteOnEvent(tick=0, channel=9, data=[38, 95]),
   midi.NoteOffEvent(tick=480, channel=9, data=[46, 95]),
   midi.NoteOffEvent(tick=0, channel=9, data=[38, 95]),
   midi.NoteOnEvent(tick=0, channel=9, data=[46, 95]),
   midi.NoteOnEvent(tick=0, channel=9, data=[35, 95]),
   midi.NoteOffEvent(tick=480, channel=9, data=[46, 95]),
   midi.NoteOffEvent(tick=0, channel=9, data=[35, 95]),
   midi.NoteOnEvent(tick=0, channel=9, data=[46, 95]),
   midi.NoteOnEvent(tick=0, channel=9, data=[38, 95]),
   midi.NoteOffEvent(tick=480, channel=9, data=[46, 95]),
   midi.NoteOffEvent(tick=0, channel=9, data=[38, 95]),
   midi.NoteOnEvent(tick=0, channel=9, data=[49, 95]),
   midi.NoteOnEvent(tick=0, channel=9, data=[35, 95]),
   midi.NoteOffEvent(tick=480, channel=9, data=[49, 95]),
   midi.NoteOffEvent(tick=0, channel=9, data=[35, 95]),
   midi.NoteOnEvent(tick=0, channel=9, data=[46, 95]),
   midi.NoteOnEvent(tick=0, channel=9, data=[38, 95]),
   midi.NoteOffEvent(tick=480, channel=9, data=[46, 95]),
   midi.NoteOffEvent(tick=0, channel=9, data=[38, 95]),
   midi.NoteOnEvent(tick=0, channel=9, data=[46, 95]),
   midi.NoteOnEvent(tick=0, channel=9, data=[35, 95]),
   midi.NoteOffEvent(tick=480, channel=9, data=[46, 95]),
   midi.NoteOffEvent(tick=0, channel=9, data=[35, 95]),
   midi.NoteOnEvent(tick=0, channel=9, data=[46, 95]),
   midi.NoteOnEvent(tick=0, channel=9, data=[38, 95]),
   midi.NoteOffEvent(tick=480, channel=9, data=[46, 95]),
   midi.NoteOffEvent(tick=0, channel=9, data=[38, 95]),
   midi.NoteOnEvent(tick=0, channel=9, data=[46, 95]),
   midi.NoteOnEvent(tick=0, channel=9, data=[35, 95]),
   midi.NoteOffEvent(tick=480, channel=9, data=[46, 95]),
   midi.NoteOffEvent(tick=0, channel=9, data=[35, 95]),
   midi.NoteOnEvent(tick=0, channel=9, data=[46, 95]),
   midi.NoteOnEvent(tick=0, channel=9, data=[38, 95]),
   midi.NoteOffEvent(tick=480, channel=9, data=[46, 95]),
   midi.NoteOffEvent(tick=0, channel=9, data=[38, 95]),
   midi.NoteOnEvent(tick=0, channel=9, data=[46, 95]),
   midi.NoteOnEvent(tick=0, channel=9, data=[35, 95]),
   midi.NoteOffEvent(tick=480, channel=9, data=[46, 95]),
   midi.NoteOffEvent(tick=0, channel=9, data=[35, 95]),
   midi.NoteOnEvent(tick=0, channel=9, data=[46, 95]),
   midi.NoteOnEvent(tick=0, channel=9, data=[38, 95]),
   midi.NoteOffEvent(tick=480, channel=9, data=[46, 95]),
   midi.NoteOffEvent(tick=0, channel=9, data=[38, 95]),
   midi.NoteOnEvent(tick=0, channel=9, data=[49, 95]),
   midi.NoteOnEvent(tick=0, channel=9, data=[35, 95]),
   midi.NoteOffEvent(tick=480, channel=9, data=[49, 95]),
   midi.NoteOffEvent(tick=0, channel=9, data=[35, 95]),
   midi.NoteOnEvent(tick=0, channel=9, data=[46, 95]),
   midi.NoteOnEvent(tick=0, channel=9, data=[38, 95]),
   midi.NoteOffEvent(tick=480, channel=9, data=[46, 95]),
   midi.NoteOffEvent(tick=0, channel=9, data=[38, 95]),
   midi.NoteOnEvent(tick=0, channel=9, data=[46, 95]),
   midi.NoteOnEvent(tick=0, channel=9, data=[35, 95]),
   midi.NoteOffEvent(tick=480, channel=9, data=[46, 95]),
   midi.NoteOffEvent(tick=0, channel=9, data=[35, 95]),
   midi.NoteOnEvent(tick=0, channel=9, data=[46, 95]),
   midi.NoteOnEvent(tick=0, channel=9, data=[38, 95]),
   midi.NoteOffEvent(tick=480, channel=9, data=[46, 95]),
   midi.NoteOffEvent(tick=0, channel=9, data=[38, 95]),
   midi.NoteOnEvent(tick=0, channel=9, data=[46, 95]),
   midi.NoteOnEvent(tick=0, channel=9, data=[35, 95]),
   midi.NoteOffEvent(tick=480, channel=9, data=[46, 95]),
   midi.NoteOffEvent(tick=0, channel=9, data=[35, 95]),
   midi.NoteOnEvent(tick=0, channel=9, data=[46, 95]),
   midi.NoteOnEvent(tick=0, channel=9, data=[38, 95]),
   midi.NoteOffEvent(tick=480, channel=9, data=[46, 95]),
   midi.NoteOffEvent(tick=0, channel=9, data=[38, 95]),
   midi.NoteOnEvent(tick=0, channel=9, data=[46, 95]),
   midi.NoteOnEvent(tick=0, channel=9, data=[35, 95]),
   midi.NoteOffEvent(tick=480, channel=9, data=[46, 95]),
   midi.NoteOffEvent(tick=0, channel=9, data=[35, 95]),
   midi.NoteOnEvent(tick=0, channel=9, data=[46, 95]),
   midi.NoteOnEvent(tick=0, channel=9, data=[38, 95]),
   midi.NoteOffEvent(tick=480, channel=9, data=[46, 95]),
   midi.NoteOffEvent(tick=0, channel=9, data=[38, 95]),
   midi.NoteOnEvent(tick=0, channel=9, data=[49, 95]),
   midi.NoteOnEvent(tick=0, channel=9, data=[35, 95]),
   midi.NoteOffEvent(tick=480, channel=9, data=[49, 95]),
   midi.NoteOffEvent(tick=0, channel=9, data=[35, 95]),
   midi.NoteOnEvent(tick=0, channel=9, data=[46, 95]),
   midi.NoteOnEvent(tick=0, channel=9, data=[38, 95]),
   midi.NoteOffEvent(tick=480, channel=9, data=[46, 95]),
   midi.NoteOffEvent(tick=0, channel=9, data=[38, 95]),
   midi.NoteOnEvent(tick=0, channel=9, data=[46, 95]),
   midi.NoteOnEvent(tick=0, channel=9, data=[35, 95]),
   midi.NoteOffEvent(tick=480, channel=9, data=[46, 95]),
   midi.NoteOffEvent(tick=0, channel=9, data=[35, 95]),
   midi.NoteOnEvent(tick=0, channel=9, data=[46, 95]),
   midi.NoteOnEvent(tick=0, channel=9, data=[38, 95]),
   midi.NoteOffEvent(tick=480, channel=9, data=[46, 95]),
   midi.NoteOffEvent(tick=0, channel=9, data=[38, 95]),
   midi.NoteOnEvent(tick=0, channel=9, data=[46, 95]),
   midi.NoteOnEvent(tick=0, channel=9, data=[35, 95]),
   midi.NoteOffEvent(tick=480, channel=9, data=[46, 95]),
   midi.NoteOffEvent(tick=0, channel=9, data=[35, 95]),
   midi.NoteOnEvent(tick=0, channel=9, data=[46, 95]),
   midi.NoteOnEvent(tick=0, channel=9, data=[38, 95]),
   midi.NoteOffEvent(tick=480, channel=9, data=[46, 95]),
   midi.NoteOffEvent(tick=0, channel=9, data=[38, 95]),
   midi.NoteOnEvent(tick=0, channel=9, data=[46, 95]),
   midi.NoteOnEvent(tick=0, channel=9, data=[35, 95]),
   midi.NoteOffEvent(tick=480, channel=9, data=[46, 95]),
   midi.NoteOffEvent(tick=0, channel=9, data=[35, 95]),
   midi.NoteOnEvent(tick=0, channel=9, data=[46, 95]),
   midi.NoteOnEvent(tick=0, channel=9, data=[38, 95]),
   midi.NoteOffEvent(tick=480, channel=9, data=[46, 95]),
   midi.NoteOffEvent(tick=0, channel=9, data=[38, 95]),
   midi.NoteOnEvent(tick=0, channel=9, data=[46, 95]),
   midi.NoteOnEvent(tick=0, channel=9, data=[35, 95]),
   midi.NoteOffEvent(tick=480, channel=9, data=[46, 95]),
   midi.NoteOffEvent(tick=0, channel=9, data=[35, 95]),
   midi.NoteOnEvent(tick=0, channel=9, data=[46, 95]),
   midi.NoteOnEvent(tick=0, channel=9, data=[38, 95]),
   midi.NoteOffEvent(tick=480, channel=9, data=[46, 95]),
   midi.NoteOffEvent(tick=0, channel=9, data=[38, 95]),
   midi.NoteOnEvent(tick=0, channel=9, data=[46, 95]),
   midi.NoteOnEvent(tick=0, channel=9, data=[35, 95]),
   midi.NoteOffEvent(tick=480, channel=9, data=[46, 95]),
   midi.NoteOffEvent(tick=0, channel=9, data=[35, 95]),
   midi.NoteOnEvent(tick=0, channel=9, data=[46, 95]),
   midi.NoteOnEvent(tick=0, channel=9, data=[38, 95]),
   midi.NoteOffEvent(tick=480, channel=9, data=[46, 95]),
   midi.NoteOffEvent(tick=0, channel=9, data=[38, 95]),
   midi.NoteOnEvent(tick=0, channel=9, data=[46, 95]),
   midi.NoteOnEvent(tick=0, channel=9, data=[35, 95]),
   midi.NoteOffEvent(tick=480, channel=9, data=[46, 95]),
   midi.NoteOffEvent(tick=0, channel=9, data=[35, 95]),
   midi.NoteOnEvent(tick=0, channel=9, data=[46, 95]),
   midi.NoteOnEvent(tick=0, channel=9, data=[38, 95]),
   midi.NoteOffEvent(tick=480, channel=9, data=[46, 95]),
   midi.NoteOffEvent(tick=0, channel=9, data=[38, 95]),
   midi.NoteOnEvent(tick=0, channel=9, data=[46, 95]),
   midi.NoteOnEvent(tick=0, channel=9, data=[35, 95]),
   midi.NoteOffEvent(tick=480, channel=9, data=[46, 95]),
   midi.NoteOffEvent(tick=0, channel=9, data=[35, 95]),
   midi.NoteOnEvent(tick=0, channel=9, data=[46, 95]),
   midi.NoteOnEvent(tick=0, channel=9, data=[38, 95]),
   midi.NoteOffEvent(tick=480, channel=9, data=[46, 95]),
   midi.NoteOffEvent(tick=0, channel=9, data=[38, 95]),
   midi.NoteOnEvent(tick=0, channel=9, data=[45, 95]),
   midi.NoteOffEvent(tick=240, channel=9, data=[45, 95]),
   midi.NoteOnEvent(tick=0, channel=9, data=[45, 95]),
   midi.NoteOffEvent(tick=240, channel=9, data=[45, 95]),
   midi.NoteOnEvent(tick=0, channel=9, data=[45, 95]),
   midi.NoteOffEvent(tick=240, channel=9, data=[45, 95]),
   midi.NoteOnEvent(tick=0, channel=9, data=[45, 95]),
   midi.NoteOffEvent(tick=240, channel=9, data=[45, 95]),
   midi.NoteOnEvent(tick=0, channel=9, data=[47, 95]),
   midi.NoteOffEvent(tick=240, channel=9, data=[47, 95]),
   midi.NoteOnEvent(tick=0, channel=9, data=[47, 95]),
   midi.NoteOffEvent(tick=240, channel=9, data=[47, 95]),
   midi.NoteOnEvent(tick=0, channel=9, data=[47, 95]),
   midi.NoteOffEvent(tick=240, channel=9, data=[47, 95]),
   midi.NoteOnEvent(tick=0, channel=9, data=[47, 95]),
   midi.NoteOffEvent(tick=240, channel=9, data=[47, 95]),
   midi.NoteOnEvent(tick=0, channel=9, data=[43, 95]),
   midi.NoteOffEvent(tick=240, channel=9, data=[43, 95]),
   midi.NoteOnEvent(tick=0, channel=9, data=[43, 95]),
   midi.NoteOffEvent(tick=240, channel=9, data=[43, 95]),
   midi.NoteOnEvent(tick=0, channel=9, data=[43, 95]),
   midi.NoteOffEvent(tick=240, channel=9, data=[43, 95]),
   midi.NoteOnEvent(tick=0, channel=9, data=[43, 95]),
   midi.NoteOffEvent(tick=240, channel=9, data=[43, 95]),
   midi.NoteOnEvent(tick=0, channel=9, data=[48, 95]),
   midi.NoteOffEvent(tick=240, channel=9, data=[48, 95]),
   midi.NoteOnEvent(tick=0, channel=9, data=[48, 95]),
   midi.NoteOffEvent(tick=240, channel=9, data=[48, 95]),
   midi.NoteOnEvent(tick=0, channel=9, data=[48, 95]),
   midi.NoteOffEvent(tick=240, channel=9, data=[48, 95]),
   midi.NoteOnEvent(tick=0, channel=9, data=[48, 95]),
   midi.NoteOffEvent(tick=240, channel=9, data=[48, 95]),
   midi.NoteOnEvent(tick=0, channel=9, data=[49, 95]),
   midi.NoteOnEvent(tick=0, channel=9, data=[35, 95]),
   midi.NoteOffEvent(tick=480, channel=9, data=[49, 95]),
   midi.NoteOffEvent(tick=0, channel=9, data=[35, 95]),
   midi.NoteOnEvent(tick=0, channel=9, data=[46, 95]),
   midi.NoteOnEvent(tick=0, channel=9, data=[38, 95]),
   midi.NoteOffEvent(tick=480, channel=9, data=[46, 95]),
   midi.NoteOffEvent(tick=0, channel=9, data=[38, 95]),
   midi.NoteOnEvent(tick=0, channel=9, data=[46, 95]),
   midi.NoteOnEvent(tick=0, channel=9, data=[35, 95]),
   midi.NoteOffEvent(tick=480, channel=9, data=[46, 95]),
   midi.NoteOffEvent(tick=0, channel=9, data=[35, 95]),
   midi.NoteOnEvent(tick=0, channel=9, data=[46, 95]),
   midi.NoteOnEvent(tick=0, channel=9, data=[38, 95]),
   midi.NoteOffEvent(tick=480, channel=9, data=[46, 95]),
   midi.NoteOffEvent(tick=0, channel=9, data=[38, 95]),
   midi.NoteOnEvent(tick=0, channel=9, data=[46, 95]),
   midi.NoteOnEvent(tick=0, channel=9, data=[35, 95]),
   midi.NoteOffEvent(tick=480, channel=9, data=[46, 95]),
   midi.NoteOffEvent(tick=0, channel=9, data=[35, 95]),
   midi.NoteOnEvent(tick=0, channel=9, data=[46, 95]),
   midi.NoteOnEvent(tick=0, channel=9, data=[38, 95]),
   midi.NoteOffEvent(tick=480, channel=9, data=[46, 95]),
   midi.NoteOffEvent(tick=0, channel=9, data=[38, 95]),
   midi.NoteOnEvent(tick=0, channel=9, data=[46, 95]),
   midi.NoteOnEvent(tick=0, channel=9, data=[35, 95]),
   midi.NoteOffEvent(tick=480, channel=9, data=[46, 95]),
   midi.NoteOffEvent(tick=0, channel=9, data=[35, 95]),
   midi.NoteOnEvent(tick=0, channel=9, data=[46, 95]),
   midi.NoteOnEvent(tick=0, channel=9, data=[38, 95]),
   midi.NoteOffEvent(tick=480, channel=9, data=[46, 95]),
   midi.NoteOffEvent(tick=0, channel=9, data=[38, 95]),
   midi.NoteOnEvent(tick=0, channel=9, data=[46, 95]),
   midi.NoteOnEvent(tick=0, channel=9, data=[35, 95]),
   midi.NoteOffEvent(tick=480, channel=9, data=[46, 95]),
   midi.NoteOffEvent(tick=0, channel=9, data=[35, 95]),
   midi.NoteOnEvent(tick=0, channel=9, data=[46, 95]),
   midi.NoteOnEvent(tick=0, channel=9, data=[38, 95]),
   midi.NoteOffEvent(tick=480, channel=9, data=[46, 95]),
   midi.NoteOffEvent(tick=0, channel=9, data=[38, 95]),
   midi.NoteOnEvent(tick=0, channel=9, data=[46, 95]),
   midi.NoteOnEvent(tick=0, channel=9, data=[35, 95]),
   midi.NoteOffEvent(tick=480, channel=9, data=[46, 95]),
   midi.NoteOffEvent(tick=0, channel=9, data=[35, 95]),
   midi.NoteOnEvent(tick=0, channel=9, data=[46, 95]),
   midi.NoteOnEvent(tick=0, channel=9, data=[38, 95]),
   midi.NoteOffEvent(tick=480, channel=9, data=[46, 95]),
   midi.NoteOffEvent(tick=0, channel=9, data=[38, 95]),
   midi.NoteOnEvent(tick=0, channel=9, data=[46, 95]),
   midi.NoteOnEvent(tick=0, channel=9, data=[35, 95]),
   midi.NoteOffEvent(tick=480, channel=9, data=[46, 95]),
   midi.NoteOffEvent(tick=0, channel=9, data=[35, 95]),
   midi.NoteOnEvent(tick=0, channel=9, data=[46, 95]),
   midi.NoteOnEvent(tick=0, channel=9, data=[38, 95]),
   midi.NoteOffEvent(tick=480, channel=9, data=[46, 95]),
   midi.NoteOffEvent(tick=0, channel=9, data=[38, 95]),
   midi.NoteOnEvent(tick=0, channel=9, data=[46, 95]),
   midi.NoteOnEvent(tick=0, channel=9, data=[35, 95]),
   midi.NoteOffEvent(tick=480, channel=9, data=[46, 95]),
   midi.NoteOffEvent(tick=0, channel=9, data=[35, 95]),
   midi.NoteOnEvent(tick=0, channel=9, data=[46, 95]),
   midi.NoteOnEvent(tick=0, channel=9, data=[38, 95]),
   midi.NoteOffEvent(tick=480, channel=9, data=[46, 95]),
   midi.NoteOffEvent(tick=0, channel=9, data=[38, 95]),
   midi.NoteOnEvent(tick=0, channel=9, data=[49, 95]),
   midi.NoteOnEvent(tick=0, channel=9, data=[35, 95]),
   midi.NoteOffEvent(tick=480, channel=9, data=[49, 95]),
   midi.NoteOffEvent(tick=0, channel=9, data=[35, 95]),
   midi.NoteOnEvent(tick=0, channel=9, data=[46, 95]),
   midi.NoteOnEvent(tick=0, channel=9, data=[38, 95]),
   midi.NoteOffEvent(tick=480, channel=9, data=[46, 95]),
   midi.NoteOffEvent(tick=0, channel=9, data=[38, 95]),
   midi.NoteOnEvent(tick=0, channel=9, data=[46, 95]),
   midi.NoteOnEvent(tick=0, channel=9, data=[35, 95]),
   midi.NoteOffEvent(tick=480, channel=9, data=[46, 95]),
   midi.NoteOffEvent(tick=0, channel=9, data=[35, 95]),
   midi.NoteOnEvent(tick=0, channel=9, data=[46, 95]),
   midi.NoteOnEvent(tick=0, channel=9, data=[38, 95]),
   midi.NoteOffEvent(tick=480, channel=9, data=[46, 95]),
   midi.NoteOffEvent(tick=0, channel=9, data=[38, 95]),
   midi.NoteOnEvent(tick=0, channel=9, data=[46, 95]),
   midi.NoteOnEvent(tick=0, channel=9, data=[35, 95]),
   midi.NoteOffEvent(tick=480, channel=9, data=[46, 95]),
   midi.NoteOffEvent(tick=0, channel=9, data=[35, 95]),
   midi.NoteOnEvent(tick=0, channel=9, data=[46, 95]),
   midi.NoteOnEvent(tick=0, channel=9, data=[38, 95]),
   midi.NoteOffEvent(tick=480, channel=9, data=[46, 95]),
   midi.NoteOffEvent(tick=0, channel=9, data=[38, 95]),
   midi.NoteOnEvent(tick=0, channel=9, data=[46, 95]),
   midi.NoteOnEvent(tick=0, channel=9, data=[35, 95]),
   midi.NoteOffEvent(tick=480, channel=9, data=[46, 95]),
   midi.NoteOffEvent(tick=0, channel=9, data=[35, 95]),
   midi.NoteOnEvent(tick=0, channel=9, data=[46, 95]),
   midi.NoteOnEvent(tick=0, channel=9, data=[38, 95]),
   midi.NoteOffEvent(tick=480, channel=9, data=[46, 95]),
   midi.NoteOffEvent(tick=0, channel=9, data=[38, 95]),
   midi.NoteOnEvent(tick=0, channel=9, data=[46, 95]),
   midi.NoteOnEvent(tick=0, channel=9, data=[35, 95]),
   midi.NoteOffEvent(tick=480, channel=9, data=[46, 95]),
   midi.NoteOffEvent(tick=0, channel=9, data=[35, 95]),
   midi.NoteOnEvent(tick=0, channel=9, data=[46, 95]),
   midi.NoteOnEvent(tick=0, channel=9, data=[38, 95]),
   midi.NoteOffEvent(tick=480, channel=9, data=[46, 95]),
   midi.NoteOffEvent(tick=0, channel=9, data=[38, 95]),
   midi.NoteOnEvent(tick=0, channel=9, data=[46, 95]),
   midi.NoteOnEvent(tick=0, channel=9, data=[35, 95]),
   midi.NoteOffEvent(tick=480, channel=9, data=[46, 95]),
   midi.NoteOffEvent(tick=0, channel=9, data=[35, 95]),
   midi.NoteOnEvent(tick=0, channel=9, data=[46, 95]),
   midi.NoteOnEvent(tick=0, channel=9, data=[38, 95]),
   midi.NoteOffEvent(tick=480, channel=9, data=[46, 95]),
   midi.NoteOffEvent(tick=0, channel=9, data=[38, 95]),
   midi.NoteOnEvent(tick=0, channel=9, data=[38, 95]),
   midi.NoteOffEvent(tick=240, channel=9, data=[38, 95]),
   midi.NoteOnEvent(tick=0, channel=9, data=[38, 95]),
   midi.NoteOffEvent(tick=240, channel=9, data=[38, 95]),
   midi.NoteOnEvent(tick=0, channel=9, data=[38, 95]),
   midi.NoteOffEvent(tick=240, channel=9, data=[38, 95]),
   midi.NoteOnEvent(tick=0, channel=9, data=[38, 95]),
   midi.NoteOffEvent(tick=240, channel=9, data=[38, 95]),
   midi.NoteOnEvent(tick=0, channel=9, data=[38, 95]),
   midi.NoteOffEvent(tick=240, channel=9, data=[38, 95]),
   midi.NoteOnEvent(tick=0, channel=9, data=[38, 95]),
   midi.NoteOffEvent(tick=240, channel=9, data=[38, 95]),
   midi.NoteOnEvent(tick=0, channel=9, data=[38, 95]),
   midi.NoteOffEvent(tick=240, channel=9, data=[38, 95]),
   midi.NoteOnEvent(tick=0, channel=9, data=[38, 95]),
   midi.NoteOffEvent(tick=240, channel=9, data=[38, 95]),
   midi.NoteOnEvent(tick=0, channel=9, data=[49, 95]),
   midi.NoteOnEvent(tick=0, channel=9, data=[35, 95]),
   midi.NoteOffEvent(tick=480, channel=9, data=[49, 95]),
   midi.NoteOffEvent(tick=0, channel=9, data=[35, 95]),
   midi.NoteOnEvent(tick=0, channel=9, data=[46, 95]),
   midi.NoteOnEvent(tick=0, channel=9, data=[38, 95]),
   midi.NoteOffEvent(tick=480, channel=9, data=[46, 95]),
   midi.NoteOffEvent(tick=0, channel=9, data=[38, 95]),
   midi.NoteOnEvent(tick=0, channel=9, data=[46, 95]),
   midi.NoteOnEvent(tick=0, channel=9, data=[35, 95]),
   midi.NoteOffEvent(tick=480, channel=9, data=[46, 95]),
   midi.NoteOffEvent(tick=0, channel=9, data=[35, 95]),
   midi.NoteOnEvent(tick=0, channel=9, data=[46, 95]),
   midi.NoteOnEvent(tick=0, channel=9, data=[38, 95]),
   midi.NoteOffEvent(tick=480, channel=9, data=[46, 95]),
   midi.NoteOffEvent(tick=0, channel=9, data=[38, 95]),
   midi.NoteOnEvent(tick=0, channel=9, data=[46, 95]),
   midi.NoteOnEvent(tick=0, channel=9, data=[35, 95]),
   midi.NoteOffEvent(tick=480, channel=9, data=[46, 95]),
   midi.NoteOffEvent(tick=0, channel=9, data=[35, 95]),
   midi.NoteOnEvent(tick=0, channel=9, data=[46, 95]),
   midi.NoteOnEvent(tick=0, channel=9, data=[38, 95]),
   midi.NoteOffEvent(tick=480, channel=9, data=[46, 95]),
   midi.NoteOffEvent(tick=0, channel=9, data=[38, 95]),
   midi.NoteOnEvent(tick=0, channel=9, data=[46, 95]),
   midi.NoteOnEvent(tick=0, channel=9, data=[35, 95]),
   midi.NoteOffEvent(tick=480, channel=9, data=[46, 95]),
   midi.NoteOffEvent(tick=0, channel=9, data=[35, 95]),
   midi.NoteOnEvent(tick=0, channel=9, data=[46, 95]),
   midi.NoteOnEvent(tick=0, channel=9, data=[38, 95]),
   midi.NoteOffEvent(tick=480, channel=9, data=[46, 95]),
   midi.NoteOffEvent(tick=0, channel=9, data=[38, 95]),
   midi.NoteOnEvent(tick=0, channel=9, data=[46, 95]),
   midi.NoteOnEvent(tick=0, channel=9, data=[35, 95]),
   midi.NoteOffEvent(tick=480, channel=9, data=[46, 95]),
   midi.NoteOffEvent(tick=0, channel=9, data=[35, 95]),
   midi.NoteOnEvent(tick=0, channel=9, data=[46, 95]),
   midi.NoteOnEvent(tick=0, channel=9, data=[38, 95]),
   midi.NoteOffEvent(tick=480, channel=9, data=[46, 95]),
   midi.NoteOffEvent(tick=0, channel=9, data=[38, 95]),
   midi.NoteOnEvent(tick=0, channel=9, data=[49, 95]),
   midi.NoteOnEvent(tick=0, channel=9, data=[35, 95]),
   midi.NoteOffEvent(tick=480, channel=9, data=[49, 95]),
   midi.NoteOffEvent(tick=0, channel=9, data=[35, 95]),
   midi.NoteOnEvent(tick=0, channel=9, data=[57, 95]),
   midi.NoteOnEvent(tick=0, channel=9, data=[38, 95]),
   midi.NoteOffEvent(tick=480, channel=9, data=[57, 95]),
   midi.NoteOffEvent(tick=0, channel=9, data=[38, 95]),
   midi.NoteOnEvent(tick=0, channel=9, data=[49, 95]),
   midi.NoteOnEvent(tick=0, channel=9, data=[35, 95]),
   midi.NoteOffEvent(tick=480, channel=9, data=[49, 95]),
   midi.NoteOffEvent(tick=0, channel=9, data=[35, 95]),
   midi.NoteOnEvent(tick=0, channel=9, data=[57, 95]),
   midi.NoteOnEvent(tick=0, channel=9, data=[38, 95]),
   midi.NoteOffEvent(tick=480, channel=9, data=[57, 95]),
   midi.NoteOffEvent(tick=0, channel=9, data=[38, 95]),
   midi.NoteOnEvent(tick=0, channel=9, data=[49, 95]),
   midi.NoteOnEvent(tick=0, channel=9, data=[35, 95]),
   midi.NoteOffEvent(tick=480, channel=9, data=[49, 95]),
   midi.NoteOffEvent(tick=0, channel=9, data=[35, 95]),
   midi.NoteOnEvent(tick=0, channel=9, data=[57, 95]),
   midi.NoteOnEvent(tick=0, channel=9, data=[38, 95]),
   midi.NoteOffEvent(tick=480, channel=9, data=[57, 95]),
   midi.NoteOffEvent(tick=0, channel=9, data=[38, 95]),
   midi.NoteOnEvent(tick=0, channel=9, data=[49, 95]),
   midi.NoteOnEvent(tick=0, channel=9, data=[35, 95]),
   midi.NoteOffEvent(tick=480, channel=9, data=[49, 95]),
   midi.NoteOffEvent(tick=0, channel=9, data=[35, 95]),
   midi.NoteOnEvent(tick=0, channel=9, data=[46, 95]),
   midi.NoteOnEvent(tick=0, channel=9, data=[38, 95]),
   midi.NoteOffEvent(tick=480, channel=9, data=[46, 95]),
   midi.NoteOffEvent(tick=0, channel=9, data=[38, 95]),
   midi.NoteOnEvent(tick=0, channel=9, data=[46, 95]),
   midi.NoteOnEvent(tick=0, channel=9, data=[35, 95]),
   midi.NoteOffEvent(tick=480, channel=9, data=[46, 95]),
   midi.NoteOffEvent(tick=0, channel=9, data=[35, 95]),
   midi.NoteOnEvent(tick=0, channel=9, data=[46, 95]),
   midi.NoteOnEvent(tick=0, channel=9, data=[38, 95]),
   midi.NoteOffEvent(tick=480, channel=9, data=[46, 95]),
   midi.NoteOffEvent(tick=0, channel=9, data=[38, 95]),
   midi.NoteOnEvent(tick=0, channel=9, data=[46, 95]),
   midi.NoteOnEvent(tick=0, channel=9, data=[35, 95]),
   midi.NoteOffEvent(tick=480, channel=9, data=[46, 95]),
   midi.NoteOffEvent(tick=0, channel=9, data=[35, 95]),
   midi.NoteOnEvent(tick=0, channel=9, data=[46, 95]),
   midi.NoteOnEvent(tick=0, channel=9, data=[38, 95]),
   midi.NoteOffEvent(tick=480, channel=9, data=[46, 95]),
   midi.NoteOffEvent(tick=0, channel=9, data=[38, 95]),
   midi.NoteOnEvent(tick=0, channel=9, data=[46, 95]),
   midi.NoteOnEvent(tick=0, channel=9, data=[35, 95]),
   midi.NoteOffEvent(tick=480, channel=9, data=[46, 95]),
   midi.NoteOffEvent(tick=0, channel=9, data=[35, 95]),
   midi.NoteOnEvent(tick=0, channel=9, data=[46, 95]),
   midi.NoteOnEvent(tick=0, channel=9, data=[38, 95]),
   midi.NoteOffEvent(tick=480, channel=9, data=[46, 95]),
   midi.NoteOffEvent(tick=0, channel=9, data=[38, 95]),
   midi.NoteOnEvent(tick=0, channel=9, data=[46, 95]),
   midi.NoteOnEvent(tick=0, channel=9, data=[35, 95]),
   midi.NoteOffEvent(tick=480, channel=9, data=[46, 95]),
   midi.NoteOffEvent(tick=0, channel=9, data=[35, 95]),
   midi.NoteOnEvent(tick=0, channel=9, data=[46, 95]),
   midi.NoteOnEvent(tick=0, channel=9, data=[38, 95]),
   midi.NoteOffEvent(tick=480, channel=9, data=[46, 95]),
   midi.NoteOffEvent(tick=0, channel=9, data=[38, 95]),
   midi.NoteOnEvent(tick=0, channel=9, data=[46, 95]),
   midi.NoteOnEvent(tick=0, channel=9, data=[35, 95]),
   midi.NoteOffEvent(tick=480, channel=9, data=[46, 95]),
   midi.NoteOffEvent(tick=0, channel=9, data=[35, 95]),
   midi.NoteOnEvent(tick=0, channel=9, data=[46, 95]),
   midi.NoteOnEvent(tick=0, channel=9, data=[38, 95]),
   midi.NoteOffEvent(tick=480, channel=9, data=[46, 95]),
   midi.NoteOffEvent(tick=0, channel=9, data=[38, 95]),
   midi.NoteOnEvent(tick=0, channel=9, data=[46, 95]),
   midi.NoteOffEvent(tick=480, channel=9, data=[46, 95]),
   midi.NoteOnEvent(tick=0, channel=9, data=[46, 95]),
   midi.NoteOffEvent(tick=480, channel=9, data=[46, 95]),
   midi.NoteOnEvent(tick=0, channel=9, data=[46, 95]),
   midi.NoteOffEvent(tick=480, channel=9, data=[46, 95]),
   midi.NoteOnEvent(tick=0, channel=9, data=[46, 95]),
   midi.NoteOffEvent(tick=480, channel=9, data=[46, 95]),
   midi.NoteOnEvent(tick=0, channel=9, data=[49, 95]),
   midi.NoteOnEvent(tick=0, channel=9, data=[35, 95]),
   midi.NoteOffEvent(tick=480, channel=9, data=[49, 95]),
   midi.NoteOffEvent(tick=0, channel=9, data=[35, 95]),
   midi.NoteOnEvent(tick=0, channel=9, data=[46, 95]),
   midi.NoteOnEvent(tick=0, channel=9, data=[38, 95]),
   midi.NoteOffEvent(tick=480, channel=9, data=[46, 95]),
   midi.NoteOffEvent(tick=0, channel=9, data=[38, 95]),
   midi.NoteOnEvent(tick=0, channel=9, data=[46, 95]),
   midi.NoteOnEvent(tick=0, channel=9, data=[35, 95]),
   midi.NoteOffEvent(tick=480, channel=9, data=[46, 95]),
   midi.NoteOffEvent(tick=0, channel=9, data=[35, 95]),
   midi.NoteOnEvent(tick=0, channel=9, data=[46, 95]),
   midi.NoteOnEvent(tick=0, channel=9, data=[38, 95]),
   midi.NoteOffEvent(tick=480, channel=9, data=[46, 95]),
   midi.NoteOffEvent(tick=0, channel=9, data=[38, 95]),
   midi.NoteOnEvent(tick=0, channel=9, data=[46, 95]),
   midi.NoteOnEvent(tick=0, channel=9, data=[35, 95]),
   midi.NoteOffEvent(tick=480, channel=9, data=[46, 95]),
   midi.NoteOffEvent(tick=0, channel=9, data=[35, 95]),
   midi.NoteOnEvent(tick=0, channel=9, data=[46, 95]),
   midi.NoteOnEvent(tick=0, channel=9, data=[38, 95]),
   midi.NoteOffEvent(tick=480, channel=9, data=[46, 95]),
   midi.NoteOffEvent(tick=0, channel=9, data=[38, 95]),
   midi.NoteOnEvent(tick=0, channel=9, data=[46, 95]),
   midi.NoteOnEvent(tick=0, channel=9, data=[35, 95]),
   midi.NoteOffEvent(tick=480, channel=9, data=[46, 95]),
   midi.NoteOffEvent(tick=0, channel=9, data=[35, 95]),
   midi.NoteOnEvent(tick=0, channel=9, data=[46, 95]),
   midi.NoteOnEvent(tick=0, channel=9, data=[38, 95]),
   midi.NoteOffEvent(tick=480, channel=9, data=[46, 95]),
   midi.NoteOffEvent(tick=0, channel=9, data=[38, 95]),
   midi.NoteOnEvent(tick=0, channel=9, data=[46, 95]),
   midi.NoteOnEvent(tick=0, channel=9, data=[35, 95]),
   midi.NoteOffEvent(tick=480, channel=9, data=[46, 95]),
   midi.NoteOffEvent(tick=0, channel=9, data=[35, 95]),
   midi.NoteOnEvent(tick=0, channel=9, data=[46, 95]),
   midi.NoteOnEvent(tick=0, channel=9, data=[38, 95]),
   midi.NoteOffEvent(tick=480, channel=9, data=[46, 95]),
   midi.NoteOffEvent(tick=0, channel=9, data=[38, 95]),
   midi.NoteOnEvent(tick=0, channel=9, data=[46, 95]),
   midi.NoteOnEvent(tick=0, channel=9, data=[35, 95]),
   midi.NoteOffEvent(tick=480, channel=9, data=[46, 95]),
   midi.NoteOffEvent(tick=0, channel=9, data=[35, 95]),
   midi.NoteOnEvent(tick=0, channel=9, data=[46, 95]),
   midi.NoteOnEvent(tick=0, channel=9, data=[38, 95]),
   midi.NoteOffEvent(tick=480, channel=9, data=[46, 95]),
   midi.NoteOffEvent(tick=0, channel=9, data=[38, 95]),
   midi.NoteOnEvent(tick=0, channel=9, data=[46, 95]),
   midi.NoteOnEvent(tick=0, channel=9, data=[35, 95]),
   midi.NoteOffEvent(tick=480, channel=9, data=[46, 95]),
   midi.NoteOffEvent(tick=0, channel=9, data=[35, 95]),
   midi.NoteOnEvent(tick=0, channel=9, data=[46, 95]),
   midi.NoteOnEvent(tick=0, channel=9, data=[38, 95]),
   midi.NoteOffEvent(tick=480, channel=9, data=[46, 95]),
   midi.NoteOffEvent(tick=0, channel=9, data=[38, 95]),
   midi.NoteOnEvent(tick=0, channel=9, data=[46, 95]),
   midi.NoteOnEvent(tick=0, channel=9, data=[35, 95]),
   midi.NoteOffEvent(tick=480, channel=9, data=[46, 95]),
   midi.NoteOffEvent(tick=0, channel=9, data=[35, 95]),
   midi.NoteOnEvent(tick=0, channel=9, data=[46, 95]),
   midi.NoteOnEvent(tick=0, channel=9, data=[38, 95]),
   midi.NoteOffEvent(tick=480, channel=9, data=[46, 95]),
   midi.NoteOffEvent(tick=0, channel=9, data=[38, 95]),
   midi.NoteOnEvent(tick=0, channel=9, data=[49, 95]),
   midi.NoteOnEvent(tick=0, channel=9, data=[35, 95]),
   midi.NoteOffEvent(tick=480, channel=9, data=[49, 95]),
   midi.NoteOffEvent(tick=0, channel=9, data=[35, 95]),
   midi.NoteOnEvent(tick=0, channel=9, data=[46, 95]),
   midi.NoteOnEvent(tick=0, channel=9, data=[38, 95]),
   midi.NoteOffEvent(tick=480, channel=9, data=[46, 95]),
   midi.NoteOffEvent(tick=0, channel=9, data=[38, 95]),
   midi.NoteOnEvent(tick=0, channel=9, data=[46, 95]),
   midi.NoteOnEvent(tick=0, channel=9, data=[35, 95]),
   midi.NoteOffEvent(tick=480, channel=9, data=[46, 95]),
   midi.NoteOffEvent(tick=0, channel=9, data=[35, 95]),
   midi.NoteOnEvent(tick=0, channel=9, data=[46, 95]),
   midi.NoteOnEvent(tick=0, channel=9, data=[38, 95]),
   midi.NoteOffEvent(tick=480, channel=9, data=[46, 95]),
   midi.NoteOffEvent(tick=0, channel=9, data=[38, 95]),
   midi.NoteOnEvent(tick=0, channel=9, data=[46, 95]),
   midi.NoteOnEvent(tick=0, channel=9, data=[35, 95]),
   midi.NoteOffEvent(tick=480, channel=9, data=[46, 95]),
   midi.NoteOffEvent(tick=0, channel=9, data=[35, 95]),
   midi.NoteOnEvent(tick=0, channel=9, data=[46, 95]),
   midi.NoteOnEvent(tick=0, channel=9, data=[38, 95]),
   midi.NoteOffEvent(tick=480, channel=9, data=[46, 95]),
   midi.NoteOffEvent(tick=0, channel=9, data=[38, 95]),
   midi.NoteOnEvent(tick=0, channel=9, data=[46, 95]),
   midi.NoteOnEvent(tick=0, channel=9, data=[35, 95]),
   midi.NoteOffEvent(tick=480, channel=9, data=[46, 95]),
   midi.NoteOffEvent(tick=0, channel=9, data=[35, 95]),
   midi.NoteOnEvent(tick=0, channel=9, data=[46, 95]),
   midi.NoteOnEvent(tick=0, channel=9, data=[38, 95]),
   midi.NoteOffEvent(tick=480, channel=9, data=[46, 95]),
   midi.NoteOffEvent(tick=0, channel=9, data=[38, 95]),
   midi.NoteOnEvent(tick=0, channel=9, data=[46, 95]),
   midi.NoteOnEvent(tick=0, channel=9, data=[35, 95]),
   midi.NoteOffEvent(tick=480, channel=9, data=[46, 95]),
   midi.NoteOffEvent(tick=0, channel=9, data=[35, 95]),
   midi.NoteOnEvent(tick=0, channel=9, data=[46, 95]),
   midi.NoteOnEvent(tick=0, channel=9, data=[38, 95]),
   midi.NoteOffEvent(tick=480, channel=9, data=[46, 95]),
   midi.NoteOffEvent(tick=0, channel=9, data=[38, 95]),
   midi.NoteOnEvent(tick=0, channel=9, data=[46, 95]),
   midi.NoteOnEvent(tick=0, channel=9, data=[35, 95]),
   midi.NoteOffEvent(tick=480, channel=9, data=[46, 95]),
   midi.NoteOffEvent(tick=0, channel=9, data=[35, 95]),
   midi.NoteOnEvent(tick=0, channel=9, data=[46, 95]),
   midi.NoteOnEvent(tick=0, channel=9, data=[38, 95]),
   midi.NoteOffEvent(tick=480, channel=9, data=[46, 95]),
   midi.NoteOffEvent(tick=0, channel=9, data=[38, 95]),
   midi.NoteOnEvent(tick=0, channel=9, data=[38, 95]),
   midi.NoteOffEvent(tick=240, channel=9, data=[38, 95]),
   midi.NoteOnEvent(tick=0, channel=9, data=[38, 95]),
   midi.NoteOffEvent(tick=240, channel=9, data=[38, 95]),
   midi.NoteOnEvent(tick=0, channel=9, data=[38, 95]),
   midi.NoteOffEvent(tick=240, channel=9, data=[38, 95]),
   midi.NoteOnEvent(tick=0, channel=9, data=[38, 95]),
   midi.NoteOffEvent(tick=240, channel=9, data=[38, 95]),
   midi.NoteOnEvent(tick=0, channel=9, data=[38, 95]),
   midi.NoteOffEvent(tick=240, channel=9, data=[38, 95]),
   midi.NoteOnEvent(tick=0, channel=9, data=[38, 95]),
   midi.NoteOffEvent(tick=240, channel=9, data=[38, 95]),
   midi.NoteOnEvent(tick=0, channel=9, data=[38, 95]),
   midi.NoteOffEvent(tick=240, channel=9, data=[38, 95]),
   midi.NoteOnEvent(tick=0, channel=9, data=[38, 95]),
   midi.NoteOffEvent(tick=240, channel=9, data=[38, 95]),
   midi.NoteOnEvent(tick=0, channel=9, data=[49, 95]),
   midi.NoteOnEvent(tick=0, channel=9, data=[35, 95]),
   midi.NoteOffEvent(tick=480, channel=9, data=[49, 95]),
   midi.NoteOffEvent(tick=0, channel=9, data=[35, 95]),
   midi.NoteOnEvent(tick=0, channel=9, data=[46, 95]),
   midi.NoteOnEvent(tick=0, channel=9, data=[38, 95]),
   midi.NoteOffEvent(tick=480, channel=9, data=[46, 95]),
   midi.NoteOffEvent(tick=0, channel=9, data=[38, 95]),
   midi.NoteOnEvent(tick=0, channel=9, data=[46, 95]),
   midi.NoteOnEvent(tick=0, channel=9, data=[35, 95]),
   midi.NoteOffEvent(tick=480, channel=9, data=[46, 95]),
   midi.NoteOffEvent(tick=0, channel=9, data=[35, 95]),
   midi.NoteOnEvent(tick=0, channel=9, data=[46, 95]),
   midi.NoteOnEvent(tick=0, channel=9, data=[38, 95]),
   midi.NoteOffEvent(tick=480, channel=9, data=[46, 95]),
   midi.NoteOffEvent(tick=0, channel=9, data=[38, 95]),
   midi.NoteOnEvent(tick=0, channel=9, data=[46, 95]),
   midi.NoteOnEvent(tick=0, channel=9, data=[35, 95]),
   midi.NoteOffEvent(tick=480, channel=9, data=[46, 95]),
   midi.NoteOffEvent(tick=0, channel=9, data=[35, 95]),
   midi.NoteOnEvent(tick=0, channel=9, data=[46, 95]),
   midi.NoteOnEvent(tick=0, channel=9, data=[38, 95]),
   midi.NoteOffEvent(tick=480, channel=9, data=[46, 95]),
   midi.NoteOffEvent(tick=0, channel=9, data=[38, 95]),
   midi.NoteOnEvent(tick=0, channel=9, data=[46, 95]),
   midi.NoteOnEvent(tick=0, channel=9, data=[35, 95]),
   midi.NoteOffEvent(tick=480, channel=9, data=[46, 95]),
   midi.NoteOffEvent(tick=0, channel=9, data=[35, 95]),
   midi.NoteOnEvent(tick=0, channel=9, data=[46, 95]),
   midi.NoteOnEvent(tick=0, channel=9, data=[38, 95]),
   midi.NoteOffEvent(tick=480, channel=9, data=[46, 95]),
   midi.NoteOffEvent(tick=0, channel=9, data=[38, 95]),
   midi.NoteOnEvent(tick=0, channel=9, data=[46, 95]),
   midi.NoteOnEvent(tick=0, channel=9, data=[35, 95]),
   midi.NoteOffEvent(tick=480, channel=9, data=[46, 95]),
   midi.NoteOffEvent(tick=0, channel=9, data=[35, 95]),
   midi.NoteOnEvent(tick=0, channel=9, data=[46, 95]),
   midi.NoteOnEvent(tick=0, channel=9, data=[38, 95]),
   midi.NoteOffEvent(tick=480, channel=9, data=[46, 95]),
   midi.NoteOffEvent(tick=0, channel=9, data=[38, 95]),
   midi.NoteOnEvent(tick=0, channel=9, data=[49, 95]),
   midi.NoteOnEvent(tick=0, channel=9, data=[35, 95]),
   midi.NoteOffEvent(tick=480, channel=9, data=[49, 95]),
   midi.NoteOffEvent(tick=0, channel=9, data=[35, 95]),
   midi.NoteOnEvent(tick=0, channel=9, data=[57, 95]),
   midi.NoteOnEvent(tick=0, channel=9, data=[38, 95]),
   midi.NoteOffEvent(tick=480, channel=9, data=[57, 95]),
   midi.NoteOffEvent(tick=0, channel=9, data=[38, 95]),
   midi.NoteOnEvent(tick=0, channel=9, data=[49, 95]),
   midi.NoteOnEvent(tick=0, channel=9, data=[35, 95]),
   midi.NoteOffEvent(tick=480, channel=9, data=[49, 95]),
   midi.NoteOffEvent(tick=0, channel=9, data=[35, 95]),
   midi.NoteOnEvent(tick=0, channel=9, data=[57, 95]),
   midi.NoteOnEvent(tick=0, channel=9, data=[38, 95]),
   midi.NoteOffEvent(tick=480, channel=9, data=[57, 95]),
   midi.NoteOffEvent(tick=0, channel=9, data=[38, 95]),
   midi.NoteOnEvent(tick=0, channel=9, data=[49, 95]),
   midi.NoteOnEvent(tick=0, channel=9, data=[35, 95]),
   midi.NoteOffEvent(tick=480, channel=9, data=[49, 95]),
   midi.NoteOffEvent(tick=0, channel=9, data=[35, 95]),
   midi.NoteOnEvent(tick=0, channel=9, data=[57, 95]),
   midi.NoteOnEvent(tick=0, channel=9, data=[38, 95]),
   midi.NoteOffEvent(tick=480, channel=9, data=[57, 95]),
   midi.NoteOffEvent(tick=0, channel=9, data=[38, 95]),
   midi.NoteOnEvent(tick=0, channel=9, data=[49, 95]),
   midi.NoteOnEvent(tick=0, channel=9, data=[35, 95]),
   midi.NoteOffEvent(tick=480, channel=9, data=[49, 95]),
   midi.NoteOffEvent(tick=0, channel=9, data=[35, 95]),
   midi.NoteOnEvent(tick=0, channel=9, data=[46, 95]),
   midi.NoteOnEvent(tick=0, channel=9, data=[38, 95]),
   midi.NoteOffEvent(tick=480, channel=9, data=[46, 95]),
   midi.NoteOffEvent(tick=0, channel=9, data=[38, 95]),
   midi.NoteOnEvent(tick=0, channel=9, data=[46, 95]),
   midi.NoteOnEvent(tick=0, channel=9, data=[35, 95]),
   midi.NoteOffEvent(tick=480, channel=9, data=[46, 95]),
   midi.NoteOffEvent(tick=0, channel=9, data=[35, 95]),
   midi.NoteOnEvent(tick=0, channel=9, data=[46, 95]),
   midi.NoteOnEvent(tick=0, channel=9, data=[38, 95]),
   midi.NoteOffEvent(tick=480, channel=9, data=[46, 95]),
   midi.NoteOffEvent(tick=0, channel=9, data=[38, 95]),
   midi.NoteOnEvent(tick=0, channel=9, data=[46, 95]),
   midi.NoteOnEvent(tick=0, channel=9, data=[35, 95]),
   midi.NoteOffEvent(tick=480, channel=9, data=[46, 95]),
   midi.NoteOffEvent(tick=0, channel=9, data=[35, 95]),
   midi.NoteOnEvent(tick=0, channel=9, data=[46, 95]),
   midi.NoteOnEvent(tick=0, channel=9, data=[38, 95]),
   midi.NoteOffEvent(tick=480, channel=9, data=[46, 95]),
   midi.NoteOffEvent(tick=0, channel=9, data=[38, 95]),
   midi.NoteOnEvent(tick=0, channel=9, data=[46, 95]),
   midi.NoteOnEvent(tick=0, channel=9, data=[35, 95]),
   midi.NoteOffEvent(tick=480, channel=9, data=[46, 95]),
   midi.NoteOffEvent(tick=0, channel=9, data=[35, 95]),
   midi.NoteOnEvent(tick=0, channel=9, data=[46, 95]),
   midi.NoteOnEvent(tick=0, channel=9, data=[38, 95]),
   midi.NoteOffEvent(tick=480, channel=9, data=[46, 95]),
   midi.NoteOffEvent(tick=0, channel=9, data=[38, 95]),
   midi.NoteOnEvent(tick=0, channel=9, data=[46, 95]),
   midi.NoteOnEvent(tick=0, channel=9, data=[35, 95]),
   midi.NoteOffEvent(tick=480, channel=9, data=[46, 95]),
   midi.NoteOffEvent(tick=0, channel=9, data=[35, 95]),
   midi.NoteOnEvent(tick=0, channel=9, data=[46, 95]),
   midi.NoteOnEvent(tick=0, channel=9, data=[38, 95]),
   midi.NoteOffEvent(tick=480, channel=9, data=[46, 95]),
   midi.NoteOffEvent(tick=0, channel=9, data=[38, 95]),
   midi.NoteOnEvent(tick=0, channel=9, data=[46, 95]),
   midi.NoteOnEvent(tick=0, channel=9, data=[35, 95]),
   midi.NoteOffEvent(tick=480, channel=9, data=[46, 95]),
   midi.NoteOffEvent(tick=0, channel=9, data=[35, 95]),
   midi.NoteOnEvent(tick=0, channel=9, data=[46, 95]),
   midi.NoteOnEvent(tick=0, channel=9, data=[38, 95]),
   midi.NoteOffEvent(tick=480, channel=9, data=[46, 95]),
   midi.NoteOffEvent(tick=0, channel=9, data=[38, 95]),
   midi.NoteOnEvent(tick=0, channel=9, data=[46, 95]),
   midi.NoteOffEvent(tick=480, channel=9, data=[46, 95]),
   midi.NoteOnEvent(tick=0, channel=9, data=[46, 95]),
   midi.NoteOffEvent(tick=480, channel=9, data=[46, 95]),
   midi.NoteOnEvent(tick=0, channel=9, data=[46, 95]),
   midi.NoteOffEvent(tick=480, channel=9, data=[46, 95]),
   midi.NoteOnEvent(tick=0, channel=9, data=[46, 95]),
   midi.NoteOffEvent(tick=480, channel=9, data=[46, 95]),
   midi.NoteOnEvent(tick=0, channel=9, data=[46, 95]),
   midi.NoteOffEvent(tick=960, channel=9, data=[46, 95]),
   midi.NoteOnEvent(tick=0, channel=9, data=[46, 95]),
   midi.NoteOffEvent(tick=960, channel=9, data=[46, 95]),
   midi.NoteOnEvent(tick=0, channel=9, data=[46, 95]),
   midi.NoteOffEvent(tick=960, channel=9, data=[46, 95]),
   midi.NoteOnEvent(tick=0, channel=9, data=[46, 95]),
   midi.NoteOffEvent(tick=960, channel=9, data=[46, 95]),
   midi.NoteOnEvent(tick=0, channel=9, data=[46, 95]),
   midi.NoteOffEvent(tick=960, channel=9, data=[46, 95]),
   midi.NoteOnEvent(tick=0, channel=9, data=[46, 95]),
   midi.NoteOffEvent(tick=960, channel=9, data=[46, 95]),
   midi.NoteOnEvent(tick=0, channel=9, data=[46, 95]),
   midi.NoteOffEvent(tick=960, channel=9, data=[46, 95]),
   midi.NoteOnEvent(tick=0, channel=9, data=[46, 95]),
   midi.NoteOffEvent(tick=960, channel=9, data=[46, 95]),
   midi.NoteOnEvent(tick=0, channel=9, data=[46, 95]),
   midi.NoteOffEvent(tick=960, channel=9, data=[46, 95]),
   midi.NoteOnEvent(tick=0, channel=9, data=[46, 95]),
   midi.NoteOffEvent(tick=960, channel=9, data=[46, 95]),
   midi.NoteOnEvent(tick=0, channel=9, data=[46, 95]),
   midi.NoteOffEvent(tick=960, channel=9, data=[46, 95]),
   midi.NoteOnEvent(tick=0, channel=9, data=[46, 95]),
   midi.NoteOffEvent(tick=960, channel=9, data=[46, 95]),
   midi.NoteOnEvent(tick=0, channel=9, data=[46, 95]),
   midi.NoteOffEvent(tick=960, channel=9, data=[46, 95]),
   midi.NoteOnEvent(tick=0, channel=9, data=[46, 95]),
   midi.NoteOffEvent(tick=960, channel=9, data=[46, 95]),
   midi.NoteOnEvent(tick=0, channel=9, data=[38, 95]),
   midi.NoteOffEvent(tick=240, channel=9, data=[38, 95]),
   midi.NoteOnEvent(tick=0, channel=9, data=[38, 95]),
   midi.NoteOffEvent(tick=240, channel=9, data=[38, 95]),
   midi.NoteOnEvent(tick=0, channel=9, data=[38, 95]),
   midi.NoteOffEvent(tick=240, channel=9, data=[38, 95]),
   midi.NoteOnEvent(tick=0, channel=9, data=[38, 95]),
   midi.NoteOffEvent(tick=240, channel=9, data=[38, 95]),
   midi.NoteOnEvent(tick=0, channel=9, data=[38, 95]),
   midi.NoteOffEvent(tick=240, channel=9, data=[38, 95]),
   midi.NoteOnEvent(tick=0, channel=9, data=[38, 95]),
   midi.NoteOffEvent(tick=240, channel=9, data=[38, 95]),
   midi.NoteOnEvent(tick=0, channel=9, data=[38, 95]),
   midi.NoteOffEvent(tick=240, channel=9, data=[38, 95]),
   midi.NoteOnEvent(tick=0, channel=9, data=[38, 95]),
   midi.NoteOffEvent(tick=240, channel=9, data=[38, 95]),
   midi.NoteOnEvent(tick=0, channel=9, data=[49, 95]),
   midi.NoteOnEvent(tick=0, channel=9, data=[35, 95]),
   midi.NoteOffEvent(tick=480, channel=9, data=[49, 95]),
   midi.NoteOffEvent(tick=0, channel=9, data=[35, 95]),
   midi.NoteOnEvent(tick=0, channel=9, data=[46, 95]),
   midi.NoteOnEvent(tick=0, channel=9, data=[38, 95]),
   midi.NoteOffEvent(tick=480, channel=9, data=[46, 95]),
   midi.NoteOffEvent(tick=0, channel=9, data=[38, 95]),
   midi.NoteOnEvent(tick=0, channel=9, data=[46, 95]),
   midi.NoteOnEvent(tick=0, channel=9, data=[35, 95]),
   midi.NoteOffEvent(tick=480, channel=9, data=[46, 95]),
   midi.NoteOffEvent(tick=0, channel=9, data=[35, 95]),
   midi.NoteOnEvent(tick=0, channel=9, data=[46, 95]),
   midi.NoteOnEvent(tick=0, channel=9, data=[38, 95]),
   midi.NoteOffEvent(tick=480, channel=9, data=[46, 95]),
   midi.NoteOffEvent(tick=0, channel=9, data=[38, 95]),
   midi.NoteOnEvent(tick=0, channel=9, data=[46, 95]),
   midi.NoteOnEvent(tick=0, channel=9, data=[35, 95]),
   midi.NoteOffEvent(tick=480, channel=9, data=[46, 95]),
   midi.NoteOffEvent(tick=0, channel=9, data=[35, 95]),
   midi.NoteOnEvent(tick=0, channel=9, data=[46, 95]),
   midi.NoteOnEvent(tick=0, channel=9, data=[38, 95]),
   midi.NoteOffEvent(tick=480, channel=9, data=[46, 95]),
   midi.NoteOffEvent(tick=0, channel=9, data=[38, 95]),
   midi.NoteOnEvent(tick=0, channel=9, data=[46, 95]),
   midi.NoteOnEvent(tick=0, channel=9, data=[35, 95]),
   midi.NoteOffEvent(tick=480, channel=9, data=[46, 95]),
   midi.NoteOffEvent(tick=0, channel=9, data=[35, 95]),
   midi.NoteOnEvent(tick=0, channel=9, data=[46, 95]),
   midi.NoteOnEvent(tick=0, channel=9, data=[38, 95]),
   midi.NoteOffEvent(tick=480, channel=9, data=[46, 95]),
   midi.NoteOffEvent(tick=0, channel=9, data=[38, 95]),
   midi.NoteOnEvent(tick=0, channel=9, data=[46, 95]),
   midi.NoteOnEvent(tick=0, channel=9, data=[35, 95]),
   midi.NoteOffEvent(tick=480, channel=9, data=[46, 95]),
   midi.NoteOffEvent(tick=0, channel=9, data=[35, 95]),
   midi.NoteOnEvent(tick=0, channel=9, data=[46, 95]),
   midi.NoteOnEvent(tick=0, channel=9, data=[38, 95]),
   midi.NoteOffEvent(tick=480, channel=9, data=[46, 95]),
   midi.NoteOffEvent(tick=0, channel=9, data=[38, 95]),
   midi.NoteOnEvent(tick=0, channel=9, data=[46, 95]),
   midi.NoteOnEvent(tick=0, channel=9, data=[35, 95]),
   midi.NoteOffEvent(tick=480, channel=9, data=[46, 95]),
   midi.NoteOffEvent(tick=0, channel=9, data=[35, 95]),
   midi.NoteOnEvent(tick=0, channel=9, data=[46, 95]),
   midi.NoteOnEvent(tick=0, channel=9, data=[38, 95]),
   midi.NoteOffEvent(tick=480, channel=9, data=[46, 95]),
   midi.NoteOffEvent(tick=0, channel=9, data=[38, 95]),
   midi.NoteOnEvent(tick=0, channel=9, data=[46, 95]),
   midi.NoteOnEvent(tick=0, channel=9, data=[35, 95]),
   midi.NoteOffEvent(tick=480, channel=9, data=[46, 95]),
   midi.NoteOffEvent(tick=0, channel=9, data=[35, 95]),
   midi.NoteOnEvent(tick=0, channel=9, data=[46, 95]),
   midi.NoteOnEvent(tick=0, channel=9, data=[38, 95]),
   midi.NoteOffEvent(tick=480, channel=9, data=[46, 95]),
   midi.NoteOffEvent(tick=0, channel=9, data=[38, 95]),
   midi.NoteOnEvent(tick=0, channel=9, data=[46, 95]),
   midi.NoteOnEvent(tick=0, channel=9, data=[35, 95]),
   midi.NoteOffEvent(tick=480, channel=9, data=[46, 95]),
   midi.NoteOffEvent(tick=0, channel=9, data=[35, 95]),
   midi.NoteOnEvent(tick=0, channel=9, data=[46, 95]),
   midi.NoteOnEvent(tick=0, channel=9, data=[38, 95]),
   midi.NoteOffEvent(tick=480, channel=9, data=[46, 95]),
   midi.NoteOffEvent(tick=0, channel=9, data=[38, 95]),
   midi.NoteOnEvent(tick=0, channel=9, data=[49, 95]),
   midi.NoteOnEvent(tick=0, channel=9, data=[35, 95]),
   midi.NoteOffEvent(tick=480, channel=9, data=[49, 95]),
   midi.NoteOffEvent(tick=0, channel=9, data=[35, 95]),
   midi.NoteOnEvent(tick=0, channel=9, data=[46, 95]),
   midi.NoteOnEvent(tick=0, channel=9, data=[38, 95]),
   midi.NoteOffEvent(tick=480, channel=9, data=[46, 95]),
   midi.NoteOffEvent(tick=0, channel=9, data=[38, 95]),
   midi.NoteOnEvent(tick=0, channel=9, data=[46, 95]),
   midi.NoteOnEvent(tick=0, channel=9, data=[35, 95]),
   midi.NoteOffEvent(tick=480, channel=9, data=[46, 95]),
   midi.NoteOffEvent(tick=0, channel=9, data=[35, 95]),
   midi.NoteOnEvent(tick=0, channel=9, data=[46, 95]),
   midi.NoteOnEvent(tick=0, channel=9, data=[38, 95]),
   midi.NoteOffEvent(tick=480, channel=9, data=[46, 95]),
   midi.NoteOffEvent(tick=0, channel=9, data=[38, 95]),
   midi.NoteOnEvent(tick=0, channel=9, data=[46, 95]),
   midi.NoteOnEvent(tick=0, channel=9, data=[35, 95]),
   midi.NoteOffEvent(tick=480, channel=9, data=[46, 95]),
   midi.NoteOffEvent(tick=0, channel=9, data=[35, 95]),
   midi.NoteOnEvent(tick=0, channel=9, data=[46, 95]),
   midi.NoteOnEvent(tick=0, channel=9, data=[38, 95]),
   midi.NoteOffEvent(tick=480, channel=9, data=[46, 95]),
   midi.NoteOffEvent(tick=0, channel=9, data=[38, 95]),
   midi.NoteOnEvent(tick=0, channel=9, data=[46, 95]),
   midi.NoteOnEvent(tick=0, channel=9, data=[35, 95]),
   midi.NoteOffEvent(tick=480, channel=9, data=[46, 95]),
   midi.NoteOffEvent(tick=0, channel=9, data=[35, 95]),
   midi.NoteOnEvent(tick=0, channel=9, data=[46, 95]),
   midi.NoteOnEvent(tick=0, channel=9, data=[38, 95]),
   midi.NoteOffEvent(tick=480, channel=9, data=[46, 95]),
   midi.NoteOffEvent(tick=0, channel=9, data=[38, 95]),
   midi.NoteOnEvent(tick=0, channel=9, data=[46, 95]),
   midi.NoteOnEvent(tick=0, channel=9, data=[35, 95]),
   midi.NoteOffEvent(tick=480, channel=9, data=[46, 95]),
   midi.NoteOffEvent(tick=0, channel=9, data=[35, 95]),
   midi.NoteOnEvent(tick=0, channel=9, data=[46, 95]),
   midi.NoteOnEvent(tick=0, channel=9, data=[38, 95]),
   midi.NoteOffEvent(tick=480, channel=9, data=[46, 95]),
   midi.NoteOffEvent(tick=0, channel=9, data=[38, 95]),
   midi.NoteOnEvent(tick=0, channel=9, data=[46, 95]),
   midi.NoteOnEvent(tick=0, channel=9, data=[35, 95]),
   midi.NoteOffEvent(tick=480, channel=9, data=[46, 95]),
   midi.NoteOffEvent(tick=0, channel=9, data=[35, 95]),
   midi.NoteOnEvent(tick=0, channel=9, data=[46, 95]),
   midi.NoteOnEvent(tick=0, channel=9, data=[38, 95]),
   midi.NoteOffEvent(tick=480, channel=9, data=[46, 95]),
   midi.NoteOffEvent(tick=0, channel=9, data=[38, 95]),
   midi.NoteOnEvent(tick=0, channel=9, data=[46, 95]),
   midi.NoteOnEvent(tick=0, channel=9, data=[35, 95]),
   midi.NoteOffEvent(tick=480, channel=9, data=[46, 95]),
   midi.NoteOffEvent(tick=0, channel=9, data=[35, 95]),
   midi.NoteOnEvent(tick=0, channel=9, data=[46, 95]),
   midi.NoteOnEvent(tick=0, channel=9, data=[38, 95]),
   midi.NoteOffEvent(tick=480, channel=9, data=[46, 95]),
   midi.NoteOffEvent(tick=0, channel=9, data=[38, 95]),
   midi.NoteOnEvent(tick=0, channel=9, data=[46, 95]),
   midi.NoteOnEvent(tick=0, channel=9, data=[35, 95]),
   midi.NoteOffEvent(tick=480, channel=9, data=[46, 95]),
   midi.NoteOffEvent(tick=0, channel=9, data=[35, 95]),
   midi.NoteOnEvent(tick=0, channel=9, data=[46, 95]),
   midi.NoteOnEvent(tick=0, channel=9, data=[38, 95]),
   midi.NoteOffEvent(tick=480, channel=9, data=[46, 95]),
   midi.NoteOffEvent(tick=0, channel=9, data=[38, 95]),
   midi.NoteOnEvent(tick=0, channel=9, data=[49, 95]),
   midi.NoteOnEvent(tick=0, channel=9, data=[35, 95]),
   midi.NoteOffEvent(tick=480, channel=9, data=[49, 95]),
   midi.NoteOffEvent(tick=0, channel=9, data=[35, 95]),
   midi.NoteOnEvent(tick=0, channel=9, data=[46, 95]),
   midi.NoteOnEvent(tick=0, channel=9, data=[38, 95]),
   midi.NoteOffEvent(tick=480, channel=9, data=[46, 95]),
   midi.NoteOffEvent(tick=0, channel=9, data=[38, 95]),
   midi.NoteOnEvent(tick=0, channel=9, data=[46, 95]),
   midi.NoteOnEvent(tick=0, channel=9, data=[35, 95]),
   midi.NoteOffEvent(tick=480, channel=9, data=[46, 95]),
   midi.NoteOffEvent(tick=0, channel=9, data=[35, 95]),
   midi.NoteOnEvent(tick=0, channel=9, data=[46, 95]),
   midi.NoteOnEvent(tick=0, channel=9, data=[38, 95]),
   midi.NoteOffEvent(tick=480, channel=9, data=[46, 95]),
   midi.NoteOffEvent(tick=0, channel=9, data=[38, 95]),
   midi.NoteOnEvent(tick=0, channel=9, data=[46, 95]),
   midi.NoteOnEvent(tick=0, channel=9, data=[35, 95]),
   midi.NoteOffEvent(tick=480, channel=9, data=[46, 95]),
   midi.NoteOffEvent(tick=0, channel=9, data=[35, 95]),
   midi.NoteOnEvent(tick=0, channel=9, data=[46, 95]),
   midi.NoteOnEvent(tick=0, channel=9, data=[38, 95]),
   midi.NoteOffEvent(tick=480, channel=9, data=[46, 95]),
   midi.NoteOffEvent(tick=0, channel=9, data=[38, 95]),
   midi.NoteOnEvent(tick=0, channel=9, data=[46, 95]),
   midi.NoteOnEvent(tick=0, channel=9, data=[35, 95]),
   midi.NoteOffEvent(tick=480, channel=9, data=[46, 95]),
   midi.NoteOffEvent(tick=0, channel=9, data=[35, 95]),
   midi.NoteOnEvent(tick=0, channel=9, data=[46, 95]),
   midi.NoteOnEvent(tick=0, channel=9, data=[38, 95]),
   midi.NoteOffEvent(tick=480, channel=9, data=[46, 95]),
   midi.NoteOffEvent(tick=0, channel=9, data=[38, 95]),
   midi.NoteOnEvent(tick=0, channel=9, data=[46, 95]),
   midi.NoteOnEvent(tick=0, channel=9, data=[35, 95]),
   midi.NoteOffEvent(tick=480, channel=9, data=[46, 95]),
   midi.NoteOffEvent(tick=0, channel=9, data=[35, 95]),
   midi.NoteOnEvent(tick=0, channel=9, data=[46, 95]),
   midi.NoteOnEvent(tick=0, channel=9, data=[38, 95]),
   midi.NoteOffEvent(tick=480, channel=9, data=[46, 95]),
   midi.NoteOffEvent(tick=0, channel=9, data=[38, 95]),
   midi.NoteOnEvent(tick=0, channel=9, data=[46, 95]),
   midi.NoteOnEvent(tick=0, channel=9, data=[35, 95]),
   midi.NoteOffEvent(tick=480, channel=9, data=[46, 95]),
   midi.NoteOffEvent(tick=0, channel=9, data=[35, 95]),
   midi.NoteOnEvent(tick=0, channel=9, data=[46, 95]),
   midi.NoteOnEvent(tick=0, channel=9, data=[38, 95]),
   midi.NoteOffEvent(tick=480, channel=9, data=[46, 95]),
   midi.NoteOffEvent(tick=0, channel=9, data=[38, 95]),
   midi.NoteOnEvent(tick=0, channel=9, data=[46, 95]),
   midi.NoteOnEvent(tick=0, channel=9, data=[35, 95]),
   midi.NoteOffEvent(tick=480, channel=9, data=[46, 95]),
   midi.NoteOffEvent(tick=0, channel=9, data=[35, 95]),
   midi.NoteOnEvent(tick=0, channel=9, data=[46, 95]),
   midi.NoteOnEvent(tick=0, channel=9, data=[38, 95]),
   midi.NoteOffEvent(tick=480, channel=9, data=[46, 95]),
   midi.NoteOffEvent(tick=0, channel=9, data=[38, 95]),
   midi.NoteOnEvent(tick=0, channel=9, data=[46, 95]),
   midi.NoteOnEvent(tick=0, channel=9, data=[35, 95]),
   midi.NoteOffEvent(tick=480, channel=9, data=[46, 95]),
   midi.NoteOffEvent(tick=0, channel=9, data=[35, 95]),
   midi.NoteOnEvent(tick=0, channel=9, data=[46, 95]),
   midi.NoteOnEvent(tick=0, channel=9, data=[38, 95]),
   midi.NoteOffEvent(tick=480, channel=9, data=[46, 95]),
   midi.NoteOffEvent(tick=0, channel=9, data=[38, 95]),
   midi.NoteOnEvent(tick=0, channel=9, data=[49, 95]),
   midi.NoteOnEvent(tick=0, channel=9, data=[35, 95]),
   midi.NoteOffEvent(tick=480, channel=9, data=[49, 95]),
   midi.NoteOffEvent(tick=0, channel=9, data=[35, 95]),
   midi.NoteOnEvent(tick=0, channel=9, data=[46, 95]),
   midi.NoteOnEvent(tick=0, channel=9, data=[38, 95]),
   midi.NoteOffEvent(tick=480, channel=9, data=[46, 95]),
   midi.NoteOffEvent(tick=0, channel=9, data=[38, 95]),
   midi.NoteOnEvent(tick=0, channel=9, data=[46, 95]),
   midi.NoteOnEvent(tick=0, channel=9, data=[35, 95]),
   midi.NoteOffEvent(tick=480, channel=9, data=[46, 95]),
   midi.NoteOffEvent(tick=0, channel=9, data=[35, 95]),
   midi.NoteOnEvent(tick=0, channel=9, data=[46, 95]),
   midi.NoteOnEvent(tick=0, channel=9, data=[38, 95]),
   midi.NoteOffEvent(tick=480, channel=9, data=[46, 95]),
   midi.NoteOffEvent(tick=0, channel=9, data=[38, 95]),
   midi.NoteOnEvent(tick=0, channel=9, data=[46, 95]),
   midi.NoteOnEvent(tick=0, channel=9, data=[35, 95]),
   midi.NoteOffEvent(tick=480, channel=9, data=[46, 95]),
   midi.NoteOffEvent(tick=0, channel=9, data=[35, 95]),
   midi.NoteOnEvent(tick=0, channel=9, data=[46, 95]),
   midi.NoteOnEvent(tick=0, channel=9, data=[38, 95]),
   midi.NoteOffEvent(tick=480, channel=9, data=[46, 95]),
   midi.NoteOffEvent(tick=0, channel=9, data=[38, 95]),
   midi.NoteOnEvent(tick=0, channel=9, data=[46, 95]),
   midi.NoteOnEvent(tick=0, channel=9, data=[35, 95]),
   midi.NoteOffEvent(tick=480, channel=9, data=[46, 95]),
   midi.NoteOffEvent(tick=0, channel=9, data=[35, 95]),
   midi.NoteOnEvent(tick=0, channel=9, data=[46, 95]),
   midi.NoteOnEvent(tick=0, channel=9, data=[38, 95]),
   midi.NoteOffEvent(tick=480, channel=9, data=[46, 95]),
   midi.NoteOffEvent(tick=0, channel=9, data=[38, 95]),
   midi.NoteOnEvent(tick=0, channel=9, data=[46, 95]),
   midi.NoteOnEvent(tick=0, channel=9, data=[35, 95]),
   midi.NoteOffEvent(tick=480, channel=9, data=[46, 95]),
   midi.NoteOffEvent(tick=0, channel=9, data=[35, 95]),
   midi.NoteOnEvent(tick=0, channel=9, data=[46, 95]),
   midi.NoteOnEvent(tick=0, channel=9, data=[38, 95]),
   midi.NoteOffEvent(tick=480, channel=9, data=[46, 95]),
   midi.NoteOffEvent(tick=0, channel=9, data=[38, 95]),
   midi.NoteOnEvent(tick=0, channel=9, data=[46, 95]),
   midi.NoteOnEvent(tick=0, channel=9, data=[35, 95]),
   midi.NoteOffEvent(tick=480, channel=9, data=[46, 95]),
   midi.NoteOffEvent(tick=0, channel=9, data=[35, 95]),
   midi.NoteOnEvent(tick=0, channel=9, data=[46, 95]),
   midi.NoteOnEvent(tick=0, channel=9, data=[38, 95]),
   midi.NoteOffEvent(tick=480, channel=9, data=[46, 95]),
   midi.NoteOffEvent(tick=0, channel=9, data=[38, 95]),
   midi.NoteOnEvent(tick=0, channel=9, data=[46, 95]),
   midi.NoteOnEvent(tick=0, channel=9, data=[35, 95]),
   midi.NoteOffEvent(tick=480, channel=9, data=[46, 95]),
   midi.NoteOffEvent(tick=0, channel=9, data=[35, 95]),
   midi.NoteOnEvent(tick=0, channel=9, data=[46, 95]),
   midi.NoteOnEvent(tick=0, channel=9, data=[38, 95]),
   midi.NoteOffEvent(tick=480, channel=9, data=[46, 95]),
   midi.NoteOffEvent(tick=0, channel=9, data=[38, 95]),
   midi.NoteOnEvent(tick=0, channel=9, data=[46, 95]),
   midi.NoteOnEvent(tick=0, channel=9, data=[35, 95]),
   midi.NoteOffEvent(tick=480, channel=9, data=[46, 95]),
   midi.NoteOffEvent(tick=0, channel=9, data=[35, 95]),
   midi.NoteOnEvent(tick=0, channel=9, data=[46, 95]),
   midi.NoteOnEvent(tick=0, channel=9, data=[38, 95]),
   midi.NoteOffEvent(tick=480, channel=9, data=[46, 95]),
   midi.NoteOffEvent(tick=0, channel=9, data=[38, 95]),
   midi.NoteOnEvent(tick=0, channel=9, data=[49, 95]),
   midi.NoteOnEvent(tick=0, channel=9, data=[35, 95]),
   midi.NoteOffEvent(tick=480, channel=9, data=[49, 95]),
   midi.NoteOffEvent(tick=0, channel=9, data=[35, 95]),
   midi.NoteOnEvent(tick=0, channel=9, data=[46, 95]),
   midi.NoteOnEvent(tick=0, channel=9, data=[38, 95]),
   midi.NoteOffEvent(tick=480, channel=9, data=[46, 95]),
   midi.NoteOffEvent(tick=0, channel=9, data=[38, 95]),
   midi.NoteOnEvent(tick=0, channel=9, data=[46, 95]),
   midi.NoteOnEvent(tick=0, channel=9, data=[35, 95]),
   midi.NoteOffEvent(tick=480, channel=9, data=[46, 95]),
   midi.NoteOffEvent(tick=0, channel=9, data=[35, 95]),
   midi.NoteOnEvent(tick=0, channel=9, data=[46, 95]),
   midi.NoteOnEvent(tick=0, channel=9, data=[38, 95]),
   midi.NoteOffEvent(tick=480, channel=9, data=[46, 95]),
   midi.NoteOffEvent(tick=0, channel=9, data=[38, 95]),
   midi.NoteOnEvent(tick=0, channel=9, data=[46, 95]),
   midi.NoteOnEvent(tick=0, channel=9, data=[35, 95]),
   midi.NoteOffEvent(tick=480, channel=9, data=[46, 95]),
   midi.NoteOffEvent(tick=0, channel=9, data=[35, 95]),
   midi.NoteOnEvent(tick=0, channel=9, data=[46, 95]),
   midi.NoteOnEvent(tick=0, channel=9, data=[38, 95]),
   midi.NoteOffEvent(tick=480, channel=9, data=[46, 95]),
   midi.NoteOffEvent(tick=0, channel=9, data=[38, 95]),
   midi.NoteOnEvent(tick=0, channel=9, data=[46, 95]),
   midi.NoteOnEvent(tick=0, channel=9, data=[35, 95]),
   midi.NoteOffEvent(tick=480, channel=9, data=[46, 95]),
   midi.NoteOffEvent(tick=0, channel=9, data=[35, 95]),
   midi.NoteOnEvent(tick=0, channel=9, data=[46, 95]),
   midi.NoteOnEvent(tick=0, channel=9, data=[38, 95]),
   midi.NoteOffEvent(tick=480, channel=9, data=[46, 95]),
   midi.NoteOffEvent(tick=0, channel=9, data=[38, 95]),
   midi.NoteOnEvent(tick=0, channel=9, data=[46, 95]),
   midi.NoteOnEvent(tick=0, channel=9, data=[35, 95]),
   midi.NoteOffEvent(tick=480, channel=9, data=[46, 95]),
   midi.NoteOffEvent(tick=0, channel=9, data=[35, 95]),
   midi.NoteOnEvent(tick=0, channel=9, data=[46, 95]),
   midi.NoteOnEvent(tick=0, channel=9, data=[38, 95]),
   midi.NoteOffEvent(tick=480, channel=9, data=[46, 95]),
   midi.NoteOffEvent(tick=0, channel=9, data=[38, 95]),
   midi.NoteOnEvent(tick=0, channel=9, data=[46, 95]),
   midi.NoteOnEvent(tick=0, channel=9, data=[35, 95]),
   midi.NoteOffEvent(tick=480, channel=9, data=[46, 95]),
   midi.NoteOffEvent(tick=0, channel=9, data=[35, 95]),
   midi.NoteOnEvent(tick=0, channel=9, data=[46, 95]),
   midi.NoteOnEvent(tick=0, channel=9, data=[38, 95]),
   midi.NoteOffEvent(tick=480, channel=9, data=[46, 95]),
   midi.NoteOffEvent(tick=0, channel=9, data=[38, 95]),
   midi.NoteOnEvent(tick=0, channel=9, data=[46, 95]),
   midi.NoteOnEvent(tick=0, channel=9, data=[35, 95]),
   midi.NoteOffEvent(tick=480, channel=9, data=[46, 95]),
   midi.NoteOffEvent(tick=0, channel=9, data=[35, 95]),
   midi.NoteOnEvent(tick=0, channel=9, data=[46, 95]),
   midi.NoteOnEvent(tick=0, channel=9, data=[38, 95]),
   midi.NoteOffEvent(tick=480, channel=9, data=[46, 95]),
   midi.NoteOffEvent(tick=0, channel=9, data=[38, 95]),
   midi.NoteOnEvent(tick=0, channel=9, data=[46, 95]),
   midi.NoteOnEvent(tick=0, channel=9, data=[35, 95]),
   midi.NoteOffEvent(tick=480, channel=9, data=[46, 95]),
   midi.NoteOffEvent(tick=0, channel=9, data=[35, 95]),
   midi.NoteOnEvent(tick=0, channel=9, data=[46, 95]),
   midi.NoteOnEvent(tick=0, channel=9, data=[38, 95]),
   midi.NoteOffEvent(tick=480, channel=9, data=[46, 95]),
   midi.NoteOffEvent(tick=0, channel=9, data=[38, 95]),
   midi.NoteOnEvent(tick=0, channel=9, data=[49, 95]),
   midi.NoteOnEvent(tick=0, channel=9, data=[35, 95]),
   midi.NoteOffEvent(tick=480, channel=9, data=[49, 95]),
   midi.NoteOffEvent(tick=0, channel=9, data=[35, 95]),
   midi.NoteOnEvent(tick=0, channel=9, data=[46, 95]),
   midi.NoteOnEvent(tick=0, channel=9, data=[38, 95]),
   midi.NoteOffEvent(tick=480, channel=9, data=[46, 95]),
   midi.NoteOffEvent(tick=0, channel=9, data=[38, 95]),
   midi.NoteOnEvent(tick=0, channel=9, data=[46, 95]),
   midi.NoteOnEvent(tick=0, channel=9, data=[35, 95]),
   midi.NoteOffEvent(tick=480, channel=9, data=[46, 95]),
   midi.NoteOffEvent(tick=0, channel=9, data=[35, 95]),
   midi.NoteOnEvent(tick=0, channel=9, data=[46, 95]),
   midi.NoteOnEvent(tick=0, channel=9, data=[38, 95]),
   midi.NoteOffEvent(tick=480, channel=9, data=[46, 95]),
   midi.NoteOffEvent(tick=0, channel=9, data=[38, 95]),
   midi.NoteOnEvent(tick=0, channel=9, data=[46, 95]),
   midi.NoteOnEvent(tick=0, channel=9, data=[35, 95]),
   midi.NoteOffEvent(tick=480, channel=9, data=[46, 95]),
   midi.NoteOffEvent(tick=0, channel=9, data=[35, 95]),
   midi.NoteOnEvent(tick=0, channel=9, data=[46, 95]),
   midi.NoteOnEvent(tick=0, channel=9, data=[38, 95]),
   midi.NoteOffEvent(tick=480, channel=9, data=[46, 95]),
   midi.NoteOffEvent(tick=0, channel=9, data=[38, 95]),
   midi.NoteOnEvent(tick=0, channel=9, data=[46, 95]),
   midi.NoteOnEvent(tick=0, channel=9, data=[35, 95]),
   midi.NoteOffEvent(tick=480, channel=9, data=[46, 95]),
   midi.NoteOffEvent(tick=0, channel=9, data=[35, 95]),
   midi.NoteOnEvent(tick=0, channel=9, data=[46, 95]),
   midi.NoteOnEvent(tick=0, channel=9, data=[38, 95]),
   midi.NoteOffEvent(tick=480, channel=9, data=[46, 95]),
   midi.NoteOffEvent(tick=0, channel=9, data=[38, 95]),
   midi.NoteOnEvent(tick=0, channel=9, data=[46, 95]),
   midi.NoteOnEvent(tick=0, channel=9, data=[35, 95]),
   midi.NoteOffEvent(tick=480, channel=9, data=[46, 95]),
   midi.NoteOffEvent(tick=0, channel=9, data=[35, 95]),
   midi.NoteOnEvent(tick=0, channel=9, data=[46, 95]),
   midi.NoteOnEvent(tick=0, channel=9, data=[38, 95]),
   midi.NoteOffEvent(tick=480, channel=9, data=[46, 95]),
   midi.NoteOffEvent(tick=0, channel=9, data=[38, 95]),
   midi.NoteOnEvent(tick=0, channel=9, data=[46, 95]),
   midi.NoteOnEvent(tick=0, channel=9, data=[35, 95]),
   midi.NoteOffEvent(tick=480, channel=9, data=[46, 95]),
   midi.NoteOffEvent(tick=0, channel=9, data=[35, 95]),
   midi.NoteOnEvent(tick=0, channel=9, data=[46, 95]),
   midi.NoteOnEvent(tick=0, channel=9, data=[38, 95]),
   midi.NoteOffEvent(tick=480, channel=9, data=[46, 95]),
   midi.NoteOffEvent(tick=0, channel=9, data=[38, 95]),
   midi.NoteOnEvent(tick=0, channel=9, data=[46, 95]),
   midi.NoteOnEvent(tick=0, channel=9, data=[35, 95]),
   midi.NoteOffEvent(tick=480, channel=9, data=[46, 95]),
   midi.NoteOffEvent(tick=0, channel=9, data=[35, 95]),
   midi.NoteOnEvent(tick=0, channel=9, data=[46, 95]),
   midi.NoteOnEvent(tick=0, channel=9, data=[38, 95]),
   midi.NoteOffEvent(tick=480, channel=9, data=[46, 95]),
   midi.NoteOffEvent(tick=0, channel=9, data=[38, 95]),
   midi.NoteOnEvent(tick=0, channel=9, data=[46, 95]),
   midi.NoteOnEvent(tick=0, channel=9, data=[35, 95]),
   midi.NoteOffEvent(tick=480, channel=9, data=[46, 95]),
   midi.NoteOffEvent(tick=0, channel=9, data=[35, 95]),
   midi.NoteOnEvent(tick=0, channel=9, data=[46, 95]),
   midi.NoteOnEvent(tick=0, channel=9, data=[38, 95]),
   midi.NoteOffEvent(tick=480, channel=9, data=[46, 95]),
   midi.NoteOffEvent(tick=0, channel=9, data=[38, 95]),
   midi.NoteOnEvent(tick=0, channel=9, data=[49, 95]),
   midi.NoteOnEvent(tick=0, channel=9, data=[35, 95]),
   midi.NoteOffEvent(tick=480, channel=9, data=[49, 95]),
   midi.NoteOffEvent(tick=0, channel=9, data=[35, 95]),
   midi.NoteOnEvent(tick=0, channel=9, data=[46, 95]),
   midi.NoteOnEvent(tick=0, channel=9, data=[38, 95]),
   midi.NoteOffEvent(tick=480, channel=9, data=[46, 95]),
   midi.NoteOffEvent(tick=0, channel=9, data=[38, 95]),
   midi.NoteOnEvent(tick=0, channel=9, data=[46, 95]),
   midi.NoteOnEvent(tick=0, channel=9, data=[35, 95]),
   midi.NoteOffEvent(tick=480, channel=9, data=[46, 95]),
   midi.NoteOffEvent(tick=0, channel=9, data=[35, 95]),
   midi.NoteOnEvent(tick=0, channel=9, data=[46, 95]),
   midi.NoteOnEvent(tick=0, channel=9, data=[38, 95]),
   midi.NoteOffEvent(tick=480, channel=9, data=[46, 95]),
   midi.NoteOffEvent(tick=0, channel=9, data=[38, 95]),
   midi.NoteOnEvent(tick=0, channel=9, data=[46, 95]),
   midi.NoteOnEvent(tick=0, channel=9, data=[35, 95]),
   midi.NoteOffEvent(tick=480, channel=9, data=[46, 95]),
   midi.NoteOffEvent(tick=0, channel=9, data=[35, 95]),
   midi.NoteOnEvent(tick=0, channel=9, data=[46, 95]),
   midi.NoteOnEvent(tick=0, channel=9, data=[38, 95]),
   midi.NoteOffEvent(tick=480, channel=9, data=[46, 95]),
   midi.NoteOffEvent(tick=0, channel=9, data=[38, 95]),
   midi.NoteOnEvent(tick=0, channel=9, data=[46, 95]),
   midi.NoteOnEvent(tick=0, channel=9, data=[35, 95]),
   midi.NoteOffEvent(tick=480, channel=9, data=[46, 95]),
   midi.NoteOffEvent(tick=0, channel=9, data=[35, 95]),
   midi.NoteOnEvent(tick=0, channel=9, data=[46, 95]),
   midi.NoteOnEvent(tick=0, channel=9, data=[38, 95]),
   midi.NoteOffEvent(tick=480, channel=9, data=[46, 95]),
   midi.NoteOffEvent(tick=0, channel=9, data=[38, 95]),
   midi.NoteOnEvent(tick=0, channel=9, data=[46, 95]),
   midi.NoteOnEvent(tick=0, channel=9, data=[35, 95]),
   midi.NoteOffEvent(tick=480, channel=9, data=[46, 95]),
   midi.NoteOffEvent(tick=0, channel=9, data=[35, 95]),
   midi.NoteOnEvent(tick=0, channel=9, data=[46, 95]),
   midi.NoteOnEvent(tick=0, channel=9, data=[38, 95]),
   midi.NoteOffEvent(tick=480, channel=9, data=[46, 95]),
   midi.NoteOffEvent(tick=0, channel=9, data=[38, 95]),
   midi.NoteOnEvent(tick=0, channel=9, data=[46, 95]),
   midi.NoteOnEvent(tick=0, channel=9, data=[35, 95]),
   midi.NoteOffEvent(tick=480, channel=9, data=[46, 95]),
   midi.NoteOffEvent(tick=0, channel=9, data=[35, 95]),
   midi.NoteOnEvent(tick=0, channel=9, data=[46, 95]),
   midi.NoteOnEvent(tick=0, channel=9, data=[38, 95]),
   midi.NoteOffEvent(tick=480, channel=9, data=[46, 95]),
   midi.NoteOffEvent(tick=0, channel=9, data=[38, 95]),
   midi.NoteOnEvent(tick=0, channel=9, data=[38, 95]),
   midi.NoteOffEvent(tick=240, channel=9, data=[38, 95]),
   midi.NoteOnEvent(tick=0, channel=9, data=[38, 95]),
   midi.NoteOffEvent(tick=240, channel=9, data=[38, 95]),
   midi.NoteOnEvent(tick=0, channel=9, data=[38, 95]),
   midi.NoteOffEvent(tick=240, channel=9, data=[38, 95]),
   midi.NoteOnEvent(tick=0, channel=9, data=[38, 95]),
   midi.NoteOffEvent(tick=240, channel=9, data=[38, 95]),
   midi.NoteOnEvent(tick=0, channel=9, data=[38, 95]),
   midi.NoteOffEvent(tick=240, channel=9, data=[38, 95]),
   midi.NoteOnEvent(tick=0, channel=9, data=[38, 95]),
   midi.NoteOffEvent(tick=240, channel=9, data=[38, 95]),
   midi.NoteOnEvent(tick=0, channel=9, data=[38, 95]),
   midi.NoteOffEvent(tick=240, channel=9, data=[38, 95]),
   midi.NoteOnEvent(tick=0, channel=9, data=[38, 95]),
   midi.NoteOffEvent(tick=240, channel=9, data=[38, 95]),
   midi.NoteOnEvent(tick=0, channel=9, data=[49, 95]),
   midi.NoteOnEvent(tick=0, channel=9, data=[35, 95]),
   midi.NoteOffEvent(tick=960, channel=9, data=[49, 95]),
   midi.NoteOffEvent(tick=0, channel=9, data=[35, 95]),
   midi.NoteOnEvent(tick=0, channel=9, data=[49, 95]),
   midi.NoteOnEvent(tick=0, channel=9, data=[35, 95]),
   midi.NoteOffEvent(tick=960, channel=9, data=[49, 95]),
   midi.NoteOffEvent(tick=0, channel=9, data=[35, 95]),
   midi.NoteOnEvent(tick=0, channel=9, data=[57, 95]),
   midi.NoteOnEvent(tick=0, channel=9, data=[35, 95]),
   midi.NoteOffEvent(tick=960, channel=9, data=[57, 95]),
   midi.NoteOffEvent(tick=0, channel=9, data=[35, 95]),
   midi.NoteOnEvent(tick=0, channel=9, data=[57, 95]),
   midi.NoteOnEvent(tick=0, channel=9, data=[35, 95]),
   midi.NoteOffEvent(tick=960, channel=9, data=[57, 95]),
   midi.NoteOffEvent(tick=0, channel=9, data=[35, 95]),
   midi.NoteOnEvent(tick=0, channel=9, data=[55, 95]),
   midi.NoteOnEvent(tick=0, channel=9, data=[49, 95]),
   midi.NoteOnEvent(tick=0, channel=9, data=[57, 95]),
   midi.NoteOnEvent(tick=0, channel=9, data=[38, 95]),
   midi.NoteOnEvent(tick=0, channel=9, data=[35, 95]),
   midi.NoteOffEvent(tick=480, channel=9, data=[55, 95]),
   midi.NoteOffEvent(tick=0, channel=9, data=[49, 95]),
   midi.NoteOffEvent(tick=0, channel=9, data=[57, 95]),
   midi.NoteOffEvent(tick=0, channel=9, data=[38, 95]),
   midi.NoteOffEvent(tick=0, channel=9, data=[35, 95]),
   midi.NoteOnEvent(tick=0, channel=9, data=[55, 95]),
   midi.NoteOnEvent(tick=0, channel=9, data=[57, 95]),
   midi.NoteOnEvent(tick=0, channel=9, data=[35, 95]),
   midi.NoteOffEvent(tick=480, channel=9, data=[55, 95]),
   midi.NoteOffEvent(tick=0, channel=9, data=[57, 95]),
   midi.NoteOffEvent(tick=0, channel=9, data=[35, 95]),
   midi.NoteOnEvent(tick=0, channel=9, data=[55, 95]),
   midi.NoteOnEvent(tick=0, channel=9, data=[38, 95]),
   midi.NoteOnEvent(tick=0, channel=9, data=[49, 95]),
   midi.NoteOnEvent(tick=0, channel=9, data=[35, 95]),
   midi.NoteOffEvent(tick=480, channel=9, data=[55, 95]),
   midi.NoteOffEvent(tick=0, channel=9, data=[38, 95]),
   midi.NoteOffEvent(tick=0, channel=9, data=[49, 95]),
   midi.NoteOffEvent(tick=0, channel=9, data=[35, 95]),
   midi.NoteOnEvent(tick=0, channel=9, data=[55, 95]),
   midi.NoteOnEvent(tick=0, channel=9, data=[49, 95]),
   midi.NoteOnEvent(tick=0, channel=9, data=[35, 95]),
   midi.NoteOffEvent(tick=480, channel=9, data=[55, 95]),
   midi.NoteOffEvent(tick=0, channel=9, data=[49, 95]),
   midi.NoteOffEvent(tick=0, channel=9, data=[35, 95]),
   midi.NoteOnEvent(tick=0, channel=9, data=[55, 95]),
   midi.NoteOnEvent(tick=0, channel=9, data=[57, 95]),
   midi.NoteOnEvent(tick=0, channel=9, data=[35, 95]),
   midi.NoteOffEvent(tick=480, channel=9, data=[55, 95]),
   midi.NoteOffEvent(tick=0, channel=9, data=[57, 95]),
   midi.NoteOffEvent(tick=0, channel=9, data=[35, 95]),
   midi.NoteOnEvent(tick=0, channel=9, data=[55, 95]),
   midi.NoteOnEvent(tick=0, channel=9, data=[38, 95]),
   midi.NoteOnEvent(tick=0, channel=9, data=[49, 95]),
   midi.NoteOnEvent(tick=0, channel=9, data=[57, 95]),
   midi.NoteOnEvent(tick=0, channel=9, data=[35, 95]),
   midi.NoteOffEvent(tick=480, channel=9, data=[55, 95]),
   midi.NoteOffEvent(tick=0, channel=9, data=[38, 95]),
   midi.NoteOffEvent(tick=0, channel=9, data=[49, 95]),
   midi.NoteOffEvent(tick=0, channel=9, data=[57, 95]),
   midi.NoteOffEvent(tick=0, channel=9, data=[35, 95]),
   midi.NoteOnEvent(tick=0, channel=9, data=[49, 95]),
   midi.NoteOnEvent(tick=0, channel=9, data=[57, 95]),
   midi.NoteOnEvent(tick=0, channel=9, data=[35, 95]),
   midi.NoteOffEvent(tick=480, channel=9, data=[49, 95]),
   midi.NoteOffEvent(tick=0, channel=9, data=[57, 95]),
   midi.NoteOffEvent(tick=0, channel=9, data=[35, 95]),
   midi.NoteOnEvent(tick=0, channel=9, data=[57, 95]),
   midi.NoteOnEvent(tick=0, channel=9, data=[49, 95]),
   midi.NoteOnEvent(tick=0, channel=9, data=[35, 95]),
   midi.NoteOffEvent(tick=480, channel=9, data=[57, 95]),
   midi.NoteOffEvent(tick=0, channel=9, data=[49, 95]),
   midi.NoteOffEvent(tick=0, channel=9, data=[35, 95]),
   midi.NoteOnEvent(tick=0, channel=9, data=[55, 95]),
   midi.NoteOnEvent(tick=0, channel=9, data=[49, 95]),
   midi.NoteOnEvent(tick=0, channel=9, data=[57, 95]),
   midi.NoteOnEvent(tick=0, channel=9, data=[38, 95]),
   midi.NoteOnEvent(tick=0, channel=9, data=[35, 95]),
   midi.NoteOffEvent(tick=480, channel=9, data=[55, 95]),
   midi.NoteOffEvent(tick=0, channel=9, data=[49, 95]),
   midi.NoteOffEvent(tick=0, channel=9, data=[57, 95]),
   midi.NoteOffEvent(tick=0, channel=9, data=[38, 95]),
   midi.NoteOffEvent(tick=0, channel=9, data=[35, 95]),
   midi.NoteOnEvent(tick=0, channel=9, data=[55, 95]),
   midi.NoteOnEvent(tick=0, channel=9, data=[57, 95]),
   midi.NoteOnEvent(tick=0, channel=9, data=[35, 95]),
   midi.NoteOffEvent(tick=480, channel=9, data=[55, 95]),
   midi.NoteOffEvent(tick=0, channel=9, data=[57, 95]),
   midi.NoteOffEvent(tick=0, channel=9, data=[35, 95]),
   midi.NoteOnEvent(tick=0, channel=9, data=[55, 95]),
   midi.NoteOnEvent(tick=0, channel=9, data=[38, 95]),
   midi.NoteOnEvent(tick=0, channel=9, data=[49, 95]),
   midi.NoteOnEvent(tick=0, channel=9, data=[35, 95]),
   midi.NoteOffEvent(tick=480, channel=9, data=[55, 95]),
   midi.NoteOffEvent(tick=0, channel=9, data=[38, 95]),
   midi.NoteOffEvent(tick=0, channel=9, data=[49, 95]),
   midi.NoteOffEvent(tick=0, channel=9, data=[35, 95]),
   midi.NoteOnEvent(tick=0, channel=9, data=[55, 95]),
   midi.NoteOnEvent(tick=0, channel=9, data=[49, 95]),
   midi.NoteOnEvent(tick=0, channel=9, data=[35, 95]),
   midi.NoteOffEvent(tick=480, channel=9, data=[55, 95]),
   midi.NoteOffEvent(tick=0, channel=9, data=[49, 95]),
   midi.NoteOffEvent(tick=0, channel=9, data=[35, 95]),
   midi.NoteOnEvent(tick=0, channel=9, data=[55, 95]),
   midi.NoteOnEvent(tick=0, channel=9, data=[57, 95]),
   midi.NoteOnEvent(tick=0, channel=9, data=[35, 95]),
   midi.NoteOffEvent(tick=480, channel=9, data=[55, 95]),
   midi.NoteOffEvent(tick=0, channel=9, data=[57, 95]),
   midi.NoteOffEvent(tick=0, channel=9, data=[35, 95]),
   midi.NoteOnEvent(tick=0, channel=9, data=[55, 95]),
   midi.NoteOnEvent(tick=0, channel=9, data=[38, 95]),
   midi.NoteOnEvent(tick=0, channel=9, data=[49, 95]),
   midi.NoteOnEvent(tick=0, channel=9, data=[57, 95]),
   midi.NoteOnEvent(tick=0, channel=9, data=[35, 95]),
   midi.NoteOffEvent(tick=480, channel=9, data=[55, 95]),
   midi.NoteOffEvent(tick=0, channel=9, data=[38, 95]),
   midi.NoteOffEvent(tick=0, channel=9, data=[49, 95]),
   midi.NoteOffEvent(tick=0, channel=9, data=[57, 95]),
   midi.NoteOffEvent(tick=0, channel=9, data=[35, 95]),
   midi.NoteOnEvent(tick=0, channel=9, data=[49, 95]),
   midi.NoteOnEvent(tick=0, channel=9, data=[57, 95]),
   midi.NoteOnEvent(tick=0, channel=9, data=[35, 95]),
   midi.NoteOffEvent(tick=480, channel=9, data=[49, 95]),
   midi.NoteOffEvent(tick=0, channel=9, data=[57, 95]),
   midi.NoteOffEvent(tick=0, channel=9, data=[35, 95]),
   midi.NoteOnEvent(tick=0, channel=9, data=[57, 95]),
   midi.NoteOnEvent(tick=0, channel=9, data=[49, 95]),
   midi.NoteOnEvent(tick=0, channel=9, data=[35, 95]),
   midi.NoteOffEvent(tick=480, channel=9, data=[57, 95]),
   midi.NoteOffEvent(tick=0, channel=9, data=[49, 95]),
   midi.NoteOffEvent(tick=0, channel=9, data=[35, 95]),
   midi.NoteOnEvent(tick=0, channel=9, data=[55, 95]),
   midi.NoteOnEvent(tick=0, channel=9, data=[49, 95]),
   midi.NoteOnEvent(tick=0, channel=9, data=[57, 95]),
   midi.NoteOnEvent(tick=0, channel=9, data=[38, 95]),
   midi.NoteOnEvent(tick=0, channel=9, data=[35, 95]),
   midi.NoteOffEvent(tick=480, channel=9, data=[55, 95]),
   midi.NoteOffEvent(tick=0, channel=9, data=[49, 95]),
   midi.NoteOffEvent(tick=0, channel=9, data=[57, 95]),
   midi.NoteOffEvent(tick=0, channel=9, data=[38, 95]),
   midi.NoteOffEvent(tick=0, channel=9, data=[35, 95]),
   midi.NoteOnEvent(tick=0, channel=9, data=[55, 95]),
   midi.NoteOnEvent(tick=0, channel=9, data=[57, 95]),
   midi.NoteOnEvent(tick=0, channel=9, data=[35, 95]),
   midi.NoteOffEvent(tick=480, channel=9, data=[55, 95]),
   midi.NoteOffEvent(tick=0, channel=9, data=[57, 95]),
   midi.NoteOffEvent(tick=0, channel=9, data=[35, 95]),
   midi.NoteOnEvent(tick=0, channel=9, data=[55, 95]),
   midi.NoteOnEvent(tick=0, channel=9, data=[38, 95]),
   midi.NoteOnEvent(tick=0, channel=9, data=[49, 95]),
   midi.NoteOnEvent(tick=0, channel=9, data=[35, 95]),
   midi.NoteOffEvent(tick=480, channel=9, data=[55, 95]),
   midi.NoteOffEvent(tick=0, channel=9, data=[38, 95]),
   midi.NoteOffEvent(tick=0, channel=9, data=[49, 95]),
   midi.NoteOffEvent(tick=0, channel=9, data=[35, 95]),
   midi.NoteOnEvent(tick=0, channel=9, data=[55, 95]),
   midi.NoteOnEvent(tick=0, channel=9, data=[49, 95]),
   midi.NoteOnEvent(tick=0, channel=9, data=[35, 95]),
   midi.NoteOffEvent(tick=480, channel=9, data=[55, 95]),
   midi.NoteOffEvent(tick=0, channel=9, data=[49, 95]),
   midi.NoteOffEvent(tick=0, channel=9, data=[35, 95]),
   midi.NoteOnEvent(tick=0, channel=9, data=[55, 95]),
   midi.NoteOnEvent(tick=0, channel=9, data=[57, 95]),
   midi.NoteOnEvent(tick=0, channel=9, data=[35, 95]),
   midi.NoteOffEvent(tick=480, channel=9, data=[55, 95]),
   midi.NoteOffEvent(tick=0, channel=9, data=[57, 95]),
   midi.NoteOffEvent(tick=0, channel=9, data=[35, 95]),
   midi.NoteOnEvent(tick=0, channel=9, data=[55, 95]),
   midi.NoteOnEvent(tick=0, channel=9, data=[38, 95]),
   midi.NoteOnEvent(tick=0, channel=9, data=[49, 95]),
   midi.NoteOnEvent(tick=0, channel=9, data=[57, 95]),
   midi.NoteOnEvent(tick=0, channel=9, data=[35, 95]),
   midi.NoteOffEvent(tick=480, channel=9, data=[55, 95]),
   midi.NoteOffEvent(tick=0, channel=9, data=[38, 95]),
   midi.NoteOffEvent(tick=0, channel=9, data=[49, 95]),
   midi.NoteOffEvent(tick=0, channel=9, data=[57, 95]),
   midi.NoteOffEvent(tick=0, channel=9, data=[35, 95]),
   midi.NoteOnEvent(tick=0, channel=9, data=[49, 95]),
   midi.NoteOnEvent(tick=0, channel=9, data=[57, 95]),
   midi.NoteOnEvent(tick=0, channel=9, data=[35, 95]),
   midi.NoteOffEvent(tick=480, channel=9, data=[49, 95]),
   midi.NoteOffEvent(tick=0, channel=9, data=[57, 95]),
   midi.NoteOffEvent(tick=0, channel=9, data=[35, 95]),
   midi.NoteOnEvent(tick=0, channel=9, data=[57, 95]),
   midi.NoteOnEvent(tick=0, channel=9, data=[49, 95]),
   midi.NoteOnEvent(tick=0, channel=9, data=[35, 95]),
   midi.NoteOffEvent(tick=480, channel=9, data=[57, 95]),
   midi.NoteOffEvent(tick=0, channel=9, data=[49, 95]),
   midi.NoteOffEvent(tick=0, channel=9, data=[35, 95]),
   midi.NoteOnEvent(tick=0, channel=9, data=[57, 95]),
   midi.NoteOnEvent(tick=0, channel=9, data=[49, 95]),
   midi.NoteOnEvent(tick=0, channel=9, data=[35, 95]),
   midi.NoteOffEvent(tick=1920, channel=9, data=[57, 95]),
   midi.NoteOffEvent(tick=0, channel=9, data=[49, 95]),
   midi.NoteOffEvent(tick=0, channel=9, data=[35, 95]),
   midi.EndOfTrackEvent(tick=0, data=[])])])