midi.Pattern(format=1, resolution=960, tracks=\
[midi.Track(\
  [midi.ControlChangeEvent(tick=0, channel=0, data=[101, 0]),
   midi.ControlChangeEvent(tick=0, channel=0, data=[100, 0]),
   midi.ControlChangeEvent(tick=0, channel=0, data=[6, 12]),
   midi.ControlChangeEvent(tick=0, channel=0, data=[38, 0]),
   midi.ControlChangeEvent(tick=0, channel=1, data=[101, 0]),
   midi.ControlChangeEvent(tick=0, channel=1, data=[100, 0]),
   midi.ControlChangeEvent(tick=0, channel=1, data=[6, 12]),
   midi.ControlChangeEvent(tick=0, channel=1, data=[38, 0]),
   midi.ControlChangeEvent(tick=0, channel=2, data=[101, 0]),
   midi.ControlChangeEvent(tick=0, channel=2, data=[100, 0]),
   midi.ControlChangeEvent(tick=0, channel=2, data=[6, 12]),
   midi.ControlChangeEvent(tick=0, channel=2, data=[38, 0]),
   midi.ControlChangeEvent(tick=0, channel=3, data=[101, 0]),
   midi.ControlChangeEvent(tick=0, channel=3, data=[100, 0]),
   midi.ControlChangeEvent(tick=0, channel=3, data=[6, 12]),
   midi.ControlChangeEvent(tick=0, channel=3, data=[38, 0]),
   midi.ControlChangeEvent(tick=0, channel=4, data=[101, 0]),
   midi.ControlChangeEvent(tick=0, channel=4, data=[100, 0]),
   midi.ControlChangeEvent(tick=0, channel=4, data=[6, 12]),
   midi.ControlChangeEvent(tick=0, channel=4, data=[38, 0]),
   midi.ControlChangeEvent(tick=0, channel=5, data=[101, 0]),
   midi.ControlChangeEvent(tick=0, channel=5, data=[100, 0]),
   midi.ControlChangeEvent(tick=0, channel=5, data=[6, 12]),
   midi.ControlChangeEvent(tick=0, channel=5, data=[38, 0]),
   midi.ControlChangeEvent(tick=0, channel=6, data=[101, 0]),
   midi.ControlChangeEvent(tick=0, channel=6, data=[100, 0]),
   midi.ControlChangeEvent(tick=0, channel=6, data=[6, 12]),
   midi.ControlChangeEvent(tick=0, channel=6, data=[38, 0]),
   midi.ControlChangeEvent(tick=0, channel=7, data=[101, 0]),
   midi.ControlChangeEvent(tick=0, channel=7, data=[100, 0]),
   midi.ControlChangeEvent(tick=0, channel=7, data=[6, 12]),
   midi.ControlChangeEvent(tick=0, channel=7, data=[38, 0]),
   midi.ControlChangeEvent(tick=0, channel=8, data=[101, 0]),
   midi.ControlChangeEvent(tick=0, channel=8, data=[100, 0]),
   midi.ControlChangeEvent(tick=0, channel=8, data=[6, 12]),
   midi.ControlChangeEvent(tick=0, channel=8, data=[38, 0]),
   midi.ControlChangeEvent(tick=0, channel=9, data=[101, 0]),
   midi.ControlChangeEvent(tick=0, channel=9, data=[100, 0]),
   midi.ControlChangeEvent(tick=0, channel=9, data=[6, 12]),
   midi.ControlChangeEvent(tick=0, channel=9, data=[38, 0]),
   midi.ControlChangeEvent(tick=0, channel=10, data=[101, 0]),
   midi.ControlChangeEvent(tick=0, channel=10, data=[100, 0]),
   midi.ControlChangeEvent(tick=0, channel=10, data=[6, 12]),
   midi.ControlChangeEvent(tick=0, channel=10, data=[38, 0]),
   midi.ControlChangeEvent(tick=0, channel=11, data=[101, 0]),
   midi.ControlChangeEvent(tick=0, channel=11, data=[100, 0]),
   midi.ControlChangeEvent(tick=0, channel=11, data=[6, 12]),
   midi.ControlChangeEvent(tick=0, channel=11, data=[38, 0]),
   midi.ControlChangeEvent(tick=0, channel=12, data=[101, 0]),
   midi.ControlChangeEvent(tick=0, channel=12, data=[100, 0]),
   midi.ControlChangeEvent(tick=0, channel=12, data=[6, 12]),
   midi.ControlChangeEvent(tick=0, channel=12, data=[38, 0]),
   midi.ControlChangeEvent(tick=0, channel=13, data=[101, 0]),
   midi.ControlChangeEvent(tick=0, channel=13, data=[100, 0]),
   midi.ControlChangeEvent(tick=0, channel=13, data=[6, 12]),
   midi.ControlChangeEvent(tick=0, channel=13, data=[38, 0]),
   midi.ControlChangeEvent(tick=0, channel=14, data=[101, 0]),
   midi.ControlChangeEvent(tick=0, channel=14, data=[100, 0]),
   midi.ControlChangeEvent(tick=0, channel=14, data=[6, 12]),
   midi.ControlChangeEvent(tick=0, channel=14, data=[38, 0]),
   midi.ControlChangeEvent(tick=0, channel=15, data=[101, 0]),
   midi.ControlChangeEvent(tick=0, channel=15, data=[100, 0]),
   midi.ControlChangeEvent(tick=0, channel=15, data=[6, 12]),
   midi.ControlChangeEvent(tick=0, channel=15, data=[38, 0]),
   midi.TimeSignatureEvent(tick=0, data=[4, 2, 24, 8]),
   midi.SetTempoEvent(tick=0, data=[5, 82, 165]),
   midi.SetTempoEvent(tick=480000, data=[5, 90, 157]),
   midi.SetTempoEvent(tick=3840, data=[5, 241, 234]),
   midi.SetTempoEvent(tick=3840, data=[7, 177, 137]),
   midi.SetTempoEvent(tick=3840, data=[8, 82, 174]),
   midi.SetTempoEvent(tick=3840, data=[8, 227, 124]),
   midi.SetTempoEvent(tick=3840, data=[10, 15, 140]),
   midi.EndOfTrackEvent(tick=0, data=[])]),
 midi.Track(\
  [midi.PitchWheelEvent(tick=0, channel=0, data=[0, 64]),
   midi.ControlChangeEvent(tick=0, channel=0, data=[7, 127]),
   midi.ControlChangeEvent(tick=0, channel=0, data=[10, 119]),
   midi.ControlChangeEvent(tick=0, channel=0, data=[93, 39]),
   midi.ControlChangeEvent(tick=0, channel=0, data=[91, 47]),
   midi.ControlChangeEvent(tick=0, channel=0, data=[95, 63]),
   midi.ControlChangeEvent(tick=0, channel=0, data=[92, 0]),
   midi.ControlChangeEvent(tick=0, channel=0, data=[11, 127]),
   midi.ProgramChangeEvent(tick=0, channel=0, data=[30]),
   midi.NoteOnEvent(tick=0, channel=0, data=[50, 95]),
   midi.NoteOnEvent(tick=0, channel=0, data=[40, 79]),
   midi.NoteOffEvent(tick=240, channel=0, data=[50, 95]),
   midi.NoteOffEvent(tick=0, channel=0, data=[40, 79]),
   midi.NoteOnEvent(tick=0, channel=0, data=[52, 70]),
   midi.NoteOffEvent(tick=240, channel=0, data=[52, 70]),
   midi.NoteOnEvent(tick=0, channel=0, data=[40, 79]),
   midi.NoteOffEvent(tick=240, channel=0, data=[40, 79]),
   midi.NoteOnEvent(tick=0, channel=0, data=[40, 79]),
   midi.NoteOffEvent(tick=240, channel=0, data=[40, 79]),
   midi.NoteOnEvent(tick=0, channel=0, data=[40, 79]),
   midi.NoteOffEvent(tick=240, channel=0, data=[40, 79]),
   midi.NoteOnEvent(tick=0, channel=0, data=[40, 79]),
   midi.NoteOffEvent(tick=240, channel=0, data=[40, 79]),
   midi.NoteOnEvent(tick=0, channel=0, data=[40, 79]),
   midi.NoteOffEvent(tick=240, channel=0, data=[40, 79]),
   midi.NoteOnEvent(tick=0, channel=0, data=[40, 79]),
   midi.NoteOffEvent(tick=240, channel=0, data=[40, 79]),
   midi.NoteOnEvent(tick=0, channel=0, data=[50, 95]),
   midi.NoteOnEvent(tick=0, channel=0, data=[40, 79]),
   midi.NoteOffEvent(tick=240, channel=0, data=[50, 95]),
   midi.NoteOffEvent(tick=0, channel=0, data=[40, 79]),
   midi.NoteOnEvent(tick=0, channel=0, data=[52, 70]),
   midi.NoteOffEvent(tick=240, channel=0, data=[52, 70]),
   midi.NoteOnEvent(tick=0, channel=0, data=[40, 79]),
   midi.NoteOffEvent(tick=240, channel=0, data=[40, 79]),
   midi.NoteOnEvent(tick=0, channel=0, data=[40, 79]),
   midi.NoteOffEvent(tick=240, channel=0, data=[40, 79]),
   midi.NoteOnEvent(tick=0, channel=0, data=[40, 79]),
   midi.NoteOffEvent(tick=240, channel=0, data=[40, 79]),
   midi.NoteOnEvent(tick=0, channel=0, data=[40, 79]),
   midi.NoteOffEvent(tick=240, channel=0, data=[40, 79]),
   midi.NoteOnEvent(tick=0, channel=0, data=[40, 79]),
   midi.NoteOffEvent(tick=240, channel=0, data=[40, 79]),
   midi.NoteOnEvent(tick=0, channel=0, data=[40, 79]),
   midi.NoteOffEvent(tick=240, channel=0, data=[40, 79]),
   midi.NoteOnEvent(tick=0, channel=0, data=[50, 95]),
   midi.NoteOnEvent(tick=0, channel=0, data=[40, 79]),
   midi.NoteOffEvent(tick=240, channel=0, data=[50, 95]),
   midi.NoteOffEvent(tick=0, channel=0, data=[40, 79]),
   midi.NoteOnEvent(tick=0, channel=0, data=[52, 70]),
   midi.NoteOffEvent(tick=240, channel=0, data=[52, 70]),
   midi.NoteOnEvent(tick=0, channel=0, data=[40, 79]),
   midi.NoteOffEvent(tick=240, channel=0, data=[40, 79]),
   midi.NoteOnEvent(tick=0, channel=0, data=[40, 79]),
   midi.NoteOffEvent(tick=240, channel=0, data=[40, 79]),
   midi.NoteOnEvent(tick=0, channel=0, data=[40, 79]),
   midi.NoteOffEvent(tick=240, channel=0, data=[40, 79]),
   midi.NoteOnEvent(tick=0, channel=0, data=[40, 79]),
   midi.NoteOffEvent(tick=240, channel=0, data=[40, 79]),
   midi.NoteOnEvent(tick=0, channel=0, data=[40, 79]),
   midi.NoteOffEvent(tick=240, channel=0, data=[40, 79]),
   midi.NoteOnEvent(tick=0, channel=0, data=[40, 79]),
   midi.NoteOffEvent(tick=240, channel=0, data=[40, 79]),
   midi.NoteOnEvent(tick=0, channel=0, data=[54, 79]),
   midi.NoteOnEvent(tick=0, channel=0, data=[47, 95]),
   midi.NoteOffEvent(tick=480, channel=0, data=[54, 79]),
   midi.NoteOffEvent(tick=0, channel=0, data=[47, 95]),
   midi.NoteOnEvent(tick=0, channel=0, data=[52, 79]),
   midi.NoteOnEvent(tick=0, channel=0, data=[45, 95]),
   midi.NoteOffEvent(tick=480, channel=0, data=[52, 79]),
   midi.NoteOffEvent(tick=0, channel=0, data=[45, 95]),
   midi.NoteOnEvent(tick=0, channel=0, data=[56, 79]),
   midi.NoteOnEvent(tick=0, channel=0, data=[49, 79]),
   midi.NoteOffEvent(tick=480, channel=0, data=[56, 79]),
   midi.NoteOffEvent(tick=0, channel=0, data=[49, 79]),
   midi.NoteOnEvent(tick=0, channel=0, data=[57, 79]),
   midi.NoteOnEvent(tick=0, channel=0, data=[50, 95]),
   midi.NoteOffEvent(tick=480, channel=0, data=[57, 79]),
   midi.NoteOffEvent(tick=0, channel=0, data=[50, 95]),
   midi.NoteOnEvent(tick=0, channel=0, data=[50, 95]),
   midi.NoteOnEvent(tick=0, channel=0, data=[40, 79]),
   midi.NoteOffEvent(tick=240, channel=0, data=[50, 95]),
   midi.NoteOffEvent(tick=0, channel=0, data=[40, 79]),
   midi.NoteOnEvent(tick=0, channel=0, data=[52, 70]),
   midi.NoteOffEvent(tick=240, channel=0, data=[52, 70]),
   midi.NoteOnEvent(tick=0, channel=0, data=[40, 79]),
   midi.NoteOffEvent(tick=240, channel=0, data=[40, 79]),
   midi.NoteOnEvent(tick=0, channel=0, data=[40, 79]),
   midi.NoteOffEvent(tick=240, channel=0, data=[40, 79]),
   midi.NoteOnEvent(tick=0, channel=0, data=[40, 79]),
   midi.NoteOffEvent(tick=240, channel=0, data=[40, 79]),
   midi.NoteOnEvent(tick=0, channel=0, data=[40, 79]),
   midi.NoteOffEvent(tick=240, channel=0, data=[40, 79]),
   midi.NoteOnEvent(tick=0, channel=0, data=[40, 79]),
   midi.NoteOffEvent(tick=240, channel=0, data=[40, 79]),
   midi.NoteOnEvent(tick=0, channel=0, data=[40, 79]),
   midi.NoteOffEvent(tick=240, channel=0, data=[40, 79]),
   midi.NoteOnEvent(tick=0, channel=0, data=[50, 95]),
   midi.NoteOnEvent(tick=0, channel=0, data=[40, 79]),
   midi.NoteOffEvent(tick=240, channel=0, data=[50, 95]),
   midi.NoteOffEvent(tick=0, channel=0, data=[40, 79]),
   midi.NoteOnEvent(tick=0, channel=0, data=[52, 70]),
   midi.NoteOffEvent(tick=240, channel=0, data=[52, 70]),
   midi.NoteOnEvent(tick=0, channel=0, data=[40, 79]),
   midi.NoteOffEvent(tick=240, channel=0, data=[40, 79]),
   midi.NoteOnEvent(tick=0, channel=0, data=[40, 79]),
   midi.NoteOffEvent(tick=240, channel=0, data=[40, 79]),
   midi.NoteOnEvent(tick=0, channel=0, data=[40, 79]),
   midi.NoteOffEvent(tick=240, channel=0, data=[40, 79]),
   midi.NoteOnEvent(tick=0, channel=0, data=[40, 79]),
   midi.NoteOffEvent(tick=240, channel=0, data=[40, 79]),
   midi.NoteOnEvent(tick=0, channel=0, data=[40, 79]),
   midi.NoteOffEvent(tick=240, channel=0, data=[40, 79]),
   midi.NoteOnEvent(tick=0, channel=0, data=[40, 79]),
   midi.NoteOffEvent(tick=240, channel=0, data=[40, 79]),
   midi.NoteOnEvent(tick=0, channel=0, data=[50, 95]),
   midi.NoteOnEvent(tick=0, channel=0, data=[40, 79]),
   midi.NoteOffEvent(tick=240, channel=0, data=[50, 95]),
   midi.NoteOffEvent(tick=0, channel=0, data=[40, 79]),
   midi.NoteOnEvent(tick=0, channel=0, data=[52, 70]),
   midi.NoteOffEvent(tick=240, channel=0, data=[52, 70]),
   midi.NoteOnEvent(tick=0, channel=0, data=[40, 79]),
   midi.NoteOffEvent(tick=240, channel=0, data=[40, 79]),
   midi.NoteOnEvent(tick=0, channel=0, data=[40, 79]),
   midi.NoteOffEvent(tick=240, channel=0, data=[40, 79]),
   midi.NoteOnEvent(tick=0, channel=0, data=[40, 79]),
   midi.NoteOffEvent(tick=240, channel=0, data=[40, 79]),
   midi.NoteOnEvent(tick=0, channel=0, data=[40, 79]),
   midi.NoteOffEvent(tick=240, channel=0, data=[40, 79]),
   midi.NoteOnEvent(tick=0, channel=0, data=[40, 79]),
   midi.NoteOffEvent(tick=240, channel=0, data=[40, 79]),
   midi.NoteOnEvent(tick=0, channel=0, data=[40, 79]),
   midi.NoteOffEvent(tick=240, channel=0, data=[40, 79]),
   midi.NoteOnEvent(tick=0, channel=0, data=[54, 79]),
   midi.NoteOnEvent(tick=0, channel=0, data=[47, 95]),
   midi.NoteOffEvent(tick=480, channel=0, data=[54, 79]),
   midi.NoteOffEvent(tick=0, channel=0, data=[47, 95]),
   midi.NoteOnEvent(tick=0, channel=0, data=[52, 79]),
   midi.NoteOnEvent(tick=0, channel=0, data=[45, 95]),
   midi.NoteOffEvent(tick=480, channel=0, data=[52, 79]),
   midi.NoteOffEvent(tick=0, channel=0, data=[45, 95]),
   midi.NoteOnEvent(tick=0, channel=0, data=[60, 79]),
   midi.NoteOnEvent(tick=0, channel=0, data=[53, 95]),
   midi.NoteOffEvent(tick=960, channel=0, data=[60, 79]),
   midi.NoteOffEvent(tick=0, channel=0, data=[53, 95]),
   midi.NoteOnEvent(tick=0, channel=0, data=[50, 95]),
   midi.NoteOnEvent(tick=0, channel=0, data=[40, 79]),
   midi.NoteOffEvent(tick=240, channel=0, data=[50, 95]),
   midi.NoteOffEvent(tick=0, channel=0, data=[40, 79]),
   midi.NoteOnEvent(tick=0, channel=0, data=[52, 70]),
   midi.NoteOffEvent(tick=240, channel=0, data=[52, 70]),
   midi.NoteOnEvent(tick=0, channel=0, data=[40, 79]),
   midi.NoteOffEvent(tick=240, channel=0, data=[40, 79]),
   midi.NoteOnEvent(tick=0, channel=0, data=[40, 79]),
   midi.NoteOffEvent(tick=240, channel=0, data=[40, 79]),
   midi.NoteOnEvent(tick=0, channel=0, data=[40, 79]),
   midi.NoteOffEvent(tick=240, channel=0, data=[40, 79]),
   midi.NoteOnEvent(tick=0, channel=0, data=[40, 79]),
   midi.NoteOffEvent(tick=240, channel=0, data=[40, 79]),
   midi.NoteOnEvent(tick=0, channel=0, data=[40, 79]),
   midi.NoteOffEvent(tick=240, channel=0, data=[40, 79]),
   midi.NoteOnEvent(tick=0, channel=0, data=[40, 79]),
   midi.NoteOffEvent(tick=240, channel=0, data=[40, 79]),
   midi.NoteOnEvent(tick=0, channel=0, data=[50, 95]),
   midi.NoteOnEvent(tick=0, channel=0, data=[40, 79]),
   midi.NoteOffEvent(tick=240, channel=0, data=[50, 95]),
   midi.NoteOffEvent(tick=0, channel=0, data=[40, 79]),
   midi.NoteOnEvent(tick=0, channel=0, data=[52, 70]),
   midi.NoteOffEvent(tick=240, channel=0, data=[52, 70]),
   midi.NoteOnEvent(tick=0, channel=0, data=[40, 79]),
   midi.NoteOffEvent(tick=240, channel=0, data=[40, 79]),
   midi.NoteOnEvent(tick=0, channel=0, data=[40, 79]),
   midi.NoteOffEvent(tick=240, channel=0, data=[40, 79]),
   midi.NoteOnEvent(tick=0, channel=0, data=[40, 79]),
   midi.NoteOffEvent(tick=240, channel=0, data=[40, 79]),
   midi.NoteOnEvent(tick=0, channel=0, data=[40, 79]),
   midi.NoteOffEvent(tick=240, channel=0, data=[40, 79]),
   midi.NoteOnEvent(tick=0, channel=0, data=[40, 79]),
   midi.NoteOffEvent(tick=240, channel=0, data=[40, 79]),
   midi.NoteOnEvent(tick=0, channel=0, data=[40, 79]),
   midi.NoteOffEvent(tick=240, channel=0, data=[40, 79]),
   midi.NoteOnEvent(tick=0, channel=0, data=[50, 95]),
   midi.NoteOnEvent(tick=0, channel=0, data=[40, 79]),
   midi.NoteOffEvent(tick=240, channel=0, data=[50, 95]),
   midi.NoteOffEvent(tick=0, channel=0, data=[40, 79]),
   midi.NoteOnEvent(tick=0, channel=0, data=[52, 70]),
   midi.NoteOffEvent(tick=240, channel=0, data=[52, 70]),
   midi.NoteOnEvent(tick=0, channel=0, data=[40, 79]),
   midi.NoteOffEvent(tick=240, channel=0, data=[40, 79]),
   midi.NoteOnEvent(tick=0, channel=0, data=[40, 79]),
   midi.NoteOffEvent(tick=240, channel=0, data=[40, 79]),
   midi.NoteOnEvent(tick=0, channel=0, data=[40, 79]),
   midi.NoteOffEvent(tick=240, channel=0, data=[40, 79]),
   midi.NoteOnEvent(tick=0, channel=0, data=[40, 79]),
   midi.NoteOffEvent(tick=240, channel=0, data=[40, 79]),
   midi.NoteOnEvent(tick=0, channel=0, data=[40, 79]),
   midi.NoteOffEvent(tick=240, channel=0, data=[40, 79]),
   midi.NoteOnEvent(tick=0, channel=0, data=[40, 79]),
   midi.NoteOffEvent(tick=240, channel=0, data=[40, 79]),
   midi.NoteOnEvent(tick=0, channel=0, data=[54, 79]),
   midi.NoteOnEvent(tick=0, channel=0, data=[47, 95]),
   midi.NoteOffEvent(tick=480, channel=0, data=[54, 79]),
   midi.NoteOffEvent(tick=0, channel=0, data=[47, 95]),
   midi.NoteOnEvent(tick=0, channel=0, data=[52, 79]),
   midi.NoteOnEvent(tick=0, channel=0, data=[45, 95]),
   midi.NoteOffEvent(tick=480, channel=0, data=[52, 79]),
   midi.NoteOffEvent(tick=0, channel=0, data=[45, 95]),
   midi.NoteOnEvent(tick=0, channel=0, data=[56, 79]),
   midi.NoteOnEvent(tick=0, channel=0, data=[49, 79]),
   midi.NoteOffEvent(tick=480, channel=0, data=[56, 79]),
   midi.NoteOffEvent(tick=0, channel=0, data=[49, 79]),
   midi.NoteOnEvent(tick=0, channel=0, data=[57, 79]),
   midi.NoteOnEvent(tick=0, channel=0, data=[50, 95]),
   midi.NoteOffEvent(tick=480, channel=0, data=[57, 79]),
   midi.NoteOffEvent(tick=0, channel=0, data=[50, 95]),
   midi.NoteOnEvent(tick=0, channel=0, data=[50, 95]),
   midi.NoteOnEvent(tick=0, channel=0, data=[40, 79]),
   midi.NoteOffEvent(tick=240, channel=0, data=[50, 95]),
   midi.NoteOffEvent(tick=0, channel=0, data=[40, 79]),
   midi.NoteOnEvent(tick=0, channel=0, data=[52, 70]),
   midi.NoteOffEvent(tick=240, channel=0, data=[52, 70]),
   midi.NoteOnEvent(tick=0, channel=0, data=[40, 79]),
   midi.NoteOffEvent(tick=240, channel=0, data=[40, 79]),
   midi.NoteOnEvent(tick=0, channel=0, data=[40, 79]),
   midi.NoteOffEvent(tick=240, channel=0, data=[40, 79]),
   midi.NoteOnEvent(tick=0, channel=0, data=[40, 79]),
   midi.NoteOffEvent(tick=240, channel=0, data=[40, 79]),
   midi.NoteOnEvent(tick=0, channel=0, data=[40, 79]),
   midi.NoteOffEvent(tick=240, channel=0, data=[40, 79]),
   midi.NoteOnEvent(tick=0, channel=0, data=[40, 79]),
   midi.NoteOffEvent(tick=240, channel=0, data=[40, 79]),
   midi.NoteOnEvent(tick=0, channel=0, data=[40, 79]),
   midi.NoteOffEvent(tick=240, channel=0, data=[40, 79]),
   midi.NoteOnEvent(tick=0, channel=0, data=[50, 95]),
   midi.NoteOnEvent(tick=0, channel=0, data=[40, 79]),
   midi.NoteOffEvent(tick=240, channel=0, data=[50, 95]),
   midi.NoteOffEvent(tick=0, channel=0, data=[40, 79]),
   midi.NoteOnEvent(tick=0, channel=0, data=[52, 70]),
   midi.NoteOffEvent(tick=240, channel=0, data=[52, 70]),
   midi.NoteOnEvent(tick=0, channel=0, data=[40, 79]),
   midi.NoteOffEvent(tick=240, channel=0, data=[40, 79]),
   midi.NoteOnEvent(tick=0, channel=0, data=[40, 79]),
   midi.NoteOffEvent(tick=240, channel=0, data=[40, 79]),
   midi.NoteOnEvent(tick=0, channel=0, data=[40, 79]),
   midi.NoteOffEvent(tick=240, channel=0, data=[40, 79]),
   midi.NoteOnEvent(tick=0, channel=0, data=[40, 79]),
   midi.NoteOffEvent(tick=240, channel=0, data=[40, 79]),
   midi.NoteOnEvent(tick=0, channel=0, data=[40, 79]),
   midi.NoteOffEvent(tick=240, channel=0, data=[40, 79]),
   midi.NoteOnEvent(tick=0, channel=0, data=[40, 79]),
   midi.NoteOffEvent(tick=240, channel=0, data=[40, 79]),
   midi.NoteOnEvent(tick=0, channel=0, data=[50, 95]),
   midi.NoteOnEvent(tick=0, channel=0, data=[40, 79]),
   midi.NoteOffEvent(tick=240, channel=0, data=[50, 95]),
   midi.NoteOffEvent(tick=0, channel=0, data=[40, 79]),
   midi.NoteOnEvent(tick=0, channel=0, data=[52, 70]),
   midi.NoteOffEvent(tick=240, channel=0, data=[52, 70]),
   midi.NoteOnEvent(tick=0, channel=0, data=[40, 79]),
   midi.NoteOffEvent(tick=240, channel=0, data=[40, 79]),
   midi.NoteOnEvent(tick=0, channel=0, data=[40, 79]),
   midi.NoteOffEvent(tick=240, channel=0, data=[40, 79]),
   midi.NoteOnEvent(tick=0, channel=0, data=[40, 79]),
   midi.NoteOffEvent(tick=240, channel=0, data=[40, 79]),
   midi.NoteOnEvent(tick=0, channel=0, data=[40, 79]),
   midi.NoteOffEvent(tick=240, channel=0, data=[40, 79]),
   midi.NoteOnEvent(tick=0, channel=0, data=[40, 79]),
   midi.NoteOffEvent(tick=240, channel=0, data=[40, 79]),
   midi.NoteOnEvent(tick=0, channel=0, data=[40, 79]),
   midi.NoteOffEvent(tick=240, channel=0, data=[40, 79]),
   midi.NoteOnEvent(tick=0, channel=0, data=[54, 79]),
   midi.NoteOnEvent(tick=0, channel=0, data=[47, 95]),
   midi.NoteOffEvent(tick=480, channel=0, data=[54, 79]),
   midi.NoteOffEvent(tick=0, channel=0, data=[47, 95]),
   midi.NoteOnEvent(tick=0, channel=0, data=[52, 79]),
   midi.NoteOnEvent(tick=0, channel=0, data=[45, 95]),
   midi.NoteOffEvent(tick=480, channel=0, data=[52, 79]),
   midi.NoteOffEvent(tick=0, channel=0, data=[45, 95]),
   midi.NoteOnEvent(tick=0, channel=0, data=[60, 79]),
   midi.NoteOnEvent(tick=0, channel=0, data=[53, 95]),
   midi.NoteOffEvent(tick=960, channel=0, data=[60, 79]),
   midi.NoteOffEvent(tick=0, channel=0, data=[53, 95]),
   midi.NoteOnEvent(tick=0, channel=0, data=[50, 95]),
   midi.NoteOnEvent(tick=0, channel=0, data=[40, 79]),
   midi.NoteOffEvent(tick=240, channel=0, data=[50, 95]),
   midi.NoteOffEvent(tick=0, channel=0, data=[40, 79]),
   midi.NoteOnEvent(tick=0, channel=0, data=[52, 70]),
   midi.NoteOffEvent(tick=240, channel=0, data=[52, 70]),
   midi.NoteOnEvent(tick=0, channel=0, data=[40, 79]),
   midi.NoteOffEvent(tick=240, channel=0, data=[40, 79]),
   midi.NoteOnEvent(tick=0, channel=0, data=[40, 79]),
   midi.NoteOffEvent(tick=240, channel=0, data=[40, 79]),
   midi.NoteOnEvent(tick=0, channel=0, data=[40, 79]),
   midi.NoteOffEvent(tick=240, channel=0, data=[40, 79]),
   midi.NoteOnEvent(tick=0, channel=0, data=[40, 79]),
   midi.NoteOffEvent(tick=240, channel=0, data=[40, 79]),
   midi.NoteOnEvent(tick=0, channel=0, data=[40, 79]),
   midi.NoteOffEvent(tick=240, channel=0, data=[40, 79]),
   midi.NoteOnEvent(tick=0, channel=0, data=[40, 79]),
   midi.NoteOffEvent(tick=240, channel=0, data=[40, 79]),
   midi.NoteOnEvent(tick=0, channel=0, data=[50, 95]),
   midi.NoteOnEvent(tick=0, channel=0, data=[40, 79]),
   midi.NoteOffEvent(tick=240, channel=0, data=[50, 95]),
   midi.NoteOffEvent(tick=0, channel=0, data=[40, 79]),
   midi.NoteOnEvent(tick=0, channel=0, data=[52, 70]),
   midi.NoteOffEvent(tick=240, channel=0, data=[52, 70]),
   midi.NoteOnEvent(tick=0, channel=0, data=[40, 79]),
   midi.NoteOffEvent(tick=240, channel=0, data=[40, 79]),
   midi.NoteOnEvent(tick=0, channel=0, data=[40, 79]),
   midi.NoteOffEvent(tick=240, channel=0, data=[40, 79]),
   midi.NoteOnEvent(tick=0, channel=0, data=[40, 79]),
   midi.NoteOffEvent(tick=240, channel=0, data=[40, 79]),
   midi.NoteOnEvent(tick=0, channel=0, data=[40, 79]),
   midi.NoteOffEvent(tick=240, channel=0, data=[40, 79]),
   midi.NoteOnEvent(tick=0, channel=0, data=[40, 79]),
   midi.NoteOffEvent(tick=240, channel=0, data=[40, 79]),
   midi.NoteOnEvent(tick=0, channel=0, data=[40, 79]),
   midi.NoteOffEvent(tick=240, channel=0, data=[40, 79]),
   midi.NoteOnEvent(tick=0, channel=0, data=[50, 95]),
   midi.NoteOnEvent(tick=0, channel=0, data=[40, 79]),
   midi.NoteOffEvent(tick=240, channel=0, data=[50, 95]),
   midi.NoteOffEvent(tick=0, channel=0, data=[40, 79]),
   midi.NoteOnEvent(tick=0, channel=0, data=[52, 70]),
   midi.NoteOffEvent(tick=240, channel=0, data=[52, 70]),
   midi.NoteOnEvent(tick=0, channel=0, data=[40, 79]),
   midi.NoteOffEvent(tick=240, channel=0, data=[40, 79]),
   midi.NoteOnEvent(tick=0, channel=0, data=[40, 79]),
   midi.NoteOffEvent(tick=240, channel=0, data=[40, 79]),
   midi.NoteOnEvent(tick=0, channel=0, data=[40, 79]),
   midi.NoteOffEvent(tick=240, channel=0, data=[40, 79]),
   midi.NoteOnEvent(tick=0, channel=0, data=[40, 79]),
   midi.NoteOffEvent(tick=240, channel=0, data=[40, 79]),
   midi.NoteOnEvent(tick=0, channel=0, data=[40, 79]),
   midi.NoteOffEvent(tick=240, channel=0, data=[40, 79]),
   midi.NoteOnEvent(tick=0, channel=0, data=[40, 79]),
   midi.NoteOffEvent(tick=240, channel=0, data=[40, 79]),
   midi.NoteOnEvent(tick=0, channel=0, data=[54, 79]),
   midi.NoteOnEvent(tick=0, channel=0, data=[47, 95]),
   midi.NoteOffEvent(tick=480, channel=0, data=[54, 79]),
   midi.NoteOffEvent(tick=0, channel=0, data=[47, 95]),
   midi.NoteOnEvent(tick=0, channel=0, data=[52, 79]),
   midi.NoteOnEvent(tick=0, channel=0, data=[45, 95]),
   midi.NoteOffEvent(tick=480, channel=0, data=[52, 79]),
   midi.NoteOffEvent(tick=0, channel=0, data=[45, 95]),
   midi.NoteOnEvent(tick=0, channel=0, data=[56, 79]),
   midi.NoteOnEvent(tick=0, channel=0, data=[49, 79]),
   midi.NoteOffEvent(tick=480, channel=0, data=[56, 79]),
   midi.NoteOffEvent(tick=0, channel=0, data=[49, 79]),
   midi.NoteOnEvent(tick=0, channel=0, data=[57, 79]),
   midi.NoteOnEvent(tick=0, channel=0, data=[50, 95]),
   midi.NoteOffEvent(tick=480, channel=0, data=[57, 79]),
   midi.NoteOffEvent(tick=0, channel=0, data=[50, 95]),
   midi.NoteOnEvent(tick=0, channel=0, data=[50, 95]),
   midi.NoteOnEvent(tick=0, channel=0, data=[40, 79]),
   midi.NoteOffEvent(tick=240, channel=0, data=[50, 95]),
   midi.NoteOffEvent(tick=0, channel=0, data=[40, 79]),
   midi.NoteOnEvent(tick=0, channel=0, data=[52, 70]),
   midi.NoteOffEvent(tick=240, channel=0, data=[52, 70]),
   midi.NoteOnEvent(tick=0, channel=0, data=[40, 79]),
   midi.NoteOffEvent(tick=240, channel=0, data=[40, 79]),
   midi.NoteOnEvent(tick=0, channel=0, data=[40, 79]),
   midi.NoteOffEvent(tick=240, channel=0, data=[40, 79]),
   midi.NoteOnEvent(tick=0, channel=0, data=[40, 79]),
   midi.NoteOffEvent(tick=240, channel=0, data=[40, 79]),
   midi.NoteOnEvent(tick=0, channel=0, data=[40, 79]),
   midi.NoteOffEvent(tick=240, channel=0, data=[40, 79]),
   midi.NoteOnEvent(tick=0, channel=0, data=[40, 79]),
   midi.NoteOffEvent(tick=240, channel=0, data=[40, 79]),
   midi.NoteOnEvent(tick=0, channel=0, data=[40, 79]),
   midi.NoteOffEvent(tick=240, channel=0, data=[40, 79]),
   midi.NoteOnEvent(tick=0, channel=0, data=[50, 95]),
   midi.NoteOnEvent(tick=0, channel=0, data=[40, 79]),
   midi.NoteOffEvent(tick=240, channel=0, data=[50, 95]),
   midi.NoteOffEvent(tick=0, channel=0, data=[40, 79]),
   midi.NoteOnEvent(tick=0, channel=0, data=[52, 70]),
   midi.NoteOffEvent(tick=240, channel=0, data=[52, 70]),
   midi.NoteOnEvent(tick=0, channel=0, data=[40, 79]),
   midi.NoteOffEvent(tick=240, channel=0, data=[40, 79]),
   midi.NoteOnEvent(tick=0, channel=0, data=[40, 79]),
   midi.NoteOffEvent(tick=240, channel=0, data=[40, 79]),
   midi.NoteOnEvent(tick=0, channel=0, data=[40, 79]),
   midi.NoteOffEvent(tick=240, channel=0, data=[40, 79]),
   midi.NoteOnEvent(tick=0, channel=0, data=[40, 79]),
   midi.NoteOffEvent(tick=240, channel=0, data=[40, 79]),
   midi.NoteOnEvent(tick=0, channel=0, data=[40, 79]),
   midi.NoteOffEvent(tick=240, channel=0, data=[40, 79]),
   midi.NoteOnEvent(tick=0, channel=0, data=[40, 79]),
   midi.NoteOffEvent(tick=240, channel=0, data=[40, 79]),
   midi.NoteOnEvent(tick=0, channel=0, data=[50, 95]),
   midi.NoteOnEvent(tick=0, channel=0, data=[40, 79]),
   midi.NoteOffEvent(tick=240, channel=0, data=[50, 95]),
   midi.NoteOffEvent(tick=0, channel=0, data=[40, 79]),
   midi.NoteOnEvent(tick=0, channel=0, data=[52, 70]),
   midi.NoteOffEvent(tick=240, channel=0, data=[52, 70]),
   midi.NoteOnEvent(tick=0, channel=0, data=[40, 79]),
   midi.NoteOffEvent(tick=240, channel=0, data=[40, 79]),
   midi.NoteOnEvent(tick=0, channel=0, data=[40, 79]),
   midi.NoteOffEvent(tick=240, channel=0, data=[40, 79]),
   midi.NoteOnEvent(tick=0, channel=0, data=[40, 79]),
   midi.NoteOffEvent(tick=240, channel=0, data=[40, 79]),
   midi.NoteOnEvent(tick=0, channel=0, data=[40, 79]),
   midi.NoteOffEvent(tick=240, channel=0, data=[40, 79]),
   midi.NoteOnEvent(tick=0, channel=0, data=[40, 79]),
   midi.NoteOffEvent(tick=240, channel=0, data=[40, 79]),
   midi.NoteOnEvent(tick=0, channel=0, data=[40, 79]),
   midi.NoteOffEvent(tick=240, channel=0, data=[40, 79]),
   midi.NoteOnEvent(tick=0, channel=0, data=[54, 79]),
   midi.NoteOnEvent(tick=0, channel=0, data=[47, 95]),
   midi.NoteOffEvent(tick=480, channel=0, data=[54, 79]),
   midi.NoteOffEvent(tick=0, channel=0, data=[47, 95]),
   midi.NoteOnEvent(tick=0, channel=0, data=[52, 79]),
   midi.NoteOnEvent(tick=0, channel=0, data=[45, 95]),
   midi.NoteOffEvent(tick=480, channel=0, data=[52, 79]),
   midi.NoteOffEvent(tick=0, channel=0, data=[45, 95]),
   midi.NoteOnEvent(tick=0, channel=0, data=[60, 79]),
   midi.NoteOnEvent(tick=0, channel=0, data=[53, 95]),
   midi.NoteOffEvent(tick=960, channel=0, data=[60, 79]),
   midi.NoteOffEvent(tick=0, channel=0, data=[53, 95]),
   midi.NoteOnEvent(tick=0, channel=0, data=[50, 95]),
   midi.NoteOnEvent(tick=0, channel=0, data=[40, 79]),
   midi.NoteOffEvent(tick=240, channel=0, data=[50, 95]),
   midi.NoteOffEvent(tick=0, channel=0, data=[40, 79]),
   midi.NoteOnEvent(tick=0, channel=0, data=[52, 70]),
   midi.NoteOffEvent(tick=240, channel=0, data=[52, 70]),
   midi.NoteOnEvent(tick=0, channel=0, data=[40, 79]),
   midi.NoteOffEvent(tick=240, channel=0, data=[40, 79]),
   midi.NoteOnEvent(tick=0, channel=0, data=[40, 79]),
   midi.NoteOffEvent(tick=240, channel=0, data=[40, 79]),
   midi.NoteOnEvent(tick=0, channel=0, data=[40, 79]),
   midi.NoteOffEvent(tick=240, channel=0, data=[40, 79]),
   midi.NoteOnEvent(tick=0, channel=0, data=[40, 79]),
   midi.NoteOffEvent(tick=240, channel=0, data=[40, 79]),
   midi.NoteOnEvent(tick=0, channel=0, data=[40, 79]),
   midi.NoteOffEvent(tick=240, channel=0, data=[40, 79]),
   midi.NoteOnEvent(tick=0, channel=0, data=[40, 79]),
   midi.NoteOffEvent(tick=240, channel=0, data=[40, 79]),
   midi.NoteOnEvent(tick=0, channel=0, data=[50, 95]),
   midi.NoteOnEvent(tick=0, channel=0, data=[40, 95]),
   midi.NoteOffEvent(tick=240, channel=0, data=[50, 95]),
   midi.NoteOffEvent(tick=0, channel=0, data=[40, 95]),
   midi.NoteOnEvent(tick=0, channel=0, data=[52, 70]),
   midi.NoteOffEvent(tick=240, channel=0, data=[52, 70]),
   midi.NoteOnEvent(tick=0, channel=0, data=[40, 79]),
   midi.NoteOffEvent(tick=240, channel=0, data=[40, 79]),
   midi.NoteOnEvent(tick=0, channel=0, data=[40, 79]),
   midi.NoteOffEvent(tick=240, channel=0, data=[40, 79]),
   midi.NoteOnEvent(tick=0, channel=0, data=[40, 79]),
   midi.NoteOffEvent(tick=240, channel=0, data=[40, 79]),
   midi.NoteOnEvent(tick=0, channel=0, data=[40, 79]),
   midi.NoteOffEvent(tick=240, channel=0, data=[40, 79]),
   midi.NoteOnEvent(tick=0, channel=0, data=[40, 79]),
   midi.NoteOffEvent(tick=240, channel=0, data=[40, 79]),
   midi.NoteOnEvent(tick=0, channel=0, data=[40, 79]),
   midi.NoteOffEvent(tick=240, channel=0, data=[40, 79]),
   midi.NoteOnEvent(tick=0, channel=0, data=[50, 95]),
   midi.NoteOnEvent(tick=0, channel=0, data=[40, 79]),
   midi.NoteOffEvent(tick=240, channel=0, data=[50, 95]),
   midi.NoteOffEvent(tick=0, channel=0, data=[40, 79]),
   midi.NoteOnEvent(tick=0, channel=0, data=[52, 70]),
   midi.NoteOffEvent(tick=240, channel=0, data=[52, 70]),
   midi.NoteOnEvent(tick=0, channel=0, data=[40, 79]),
   midi.NoteOffEvent(tick=240, channel=0, data=[40, 79]),
   midi.NoteOnEvent(tick=0, channel=0, data=[40, 79]),
   midi.NoteOffEvent(tick=240, channel=0, data=[40, 79]),
   midi.NoteOnEvent(tick=0, channel=0, data=[40, 79]),
   midi.NoteOffEvent(tick=240, channel=0, data=[40, 79]),
   midi.NoteOnEvent(tick=0, channel=0, data=[40, 79]),
   midi.NoteOffEvent(tick=240, channel=0, data=[40, 79]),
   midi.NoteOnEvent(tick=0, channel=0, data=[40, 79]),
   midi.NoteOffEvent(tick=240, channel=0, data=[40, 79]),
   midi.NoteOnEvent(tick=0, channel=0, data=[40, 79]),
   midi.NoteOffEvent(tick=240, channel=0, data=[40, 79]),
   midi.NoteOnEvent(tick=0, channel=0, data=[54, 79]),
   midi.NoteOnEvent(tick=0, channel=0, data=[47, 95]),
   midi.NoteOffEvent(tick=480, channel=0, data=[54, 79]),
   midi.NoteOffEvent(tick=0, channel=0, data=[47, 95]),
   midi.NoteOnEvent(tick=0, channel=0, data=[52, 79]),
   midi.NoteOnEvent(tick=0, channel=0, data=[45, 95]),
   midi.NoteOffEvent(tick=480, channel=0, data=[52, 79]),
   midi.NoteOffEvent(tick=0, channel=0, data=[45, 95]),
   midi.NoteOnEvent(tick=0, channel=0, data=[56, 79]),
   midi.NoteOnEvent(tick=0, channel=0, data=[49, 79]),
   midi.NoteOffEvent(tick=480, channel=0, data=[56, 79]),
   midi.NoteOffEvent(tick=0, channel=0, data=[49, 79]),
   midi.NoteOnEvent(tick=0, channel=0, data=[57, 79]),
   midi.NoteOnEvent(tick=0, channel=0, data=[50, 95]),
   midi.NoteOffEvent(tick=480, channel=0, data=[57, 79]),
   midi.NoteOffEvent(tick=0, channel=0, data=[50, 95]),
   midi.NoteOnEvent(tick=0, channel=0, data=[50, 95]),
   midi.NoteOnEvent(tick=0, channel=0, data=[40, 79]),
   midi.NoteOffEvent(tick=240, channel=0, data=[50, 95]),
   midi.NoteOffEvent(tick=0, channel=0, data=[40, 79]),
   midi.NoteOnEvent(tick=0, channel=0, data=[52, 70]),
   midi.NoteOffEvent(tick=240, channel=0, data=[52, 70]),
   midi.NoteOnEvent(tick=0, channel=0, data=[40, 79]),
   midi.NoteOffEvent(tick=240, channel=0, data=[40, 79]),
   midi.NoteOnEvent(tick=0, channel=0, data=[40, 79]),
   midi.NoteOffEvent(tick=240, channel=0, data=[40, 79]),
   midi.NoteOnEvent(tick=0, channel=0, data=[40, 79]),
   midi.NoteOffEvent(tick=240, channel=0, data=[40, 79]),
   midi.NoteOnEvent(tick=0, channel=0, data=[40, 79]),
   midi.NoteOffEvent(tick=240, channel=0, data=[40, 79]),
   midi.NoteOnEvent(tick=0, channel=0, data=[40, 79]),
   midi.NoteOffEvent(tick=240, channel=0, data=[40, 79]),
   midi.NoteOnEvent(tick=0, channel=0, data=[40, 79]),
   midi.NoteOffEvent(tick=240, channel=0, data=[40, 79]),
   midi.NoteOnEvent(tick=0, channel=0, data=[50, 95]),
   midi.NoteOnEvent(tick=0, channel=0, data=[40, 79]),
   midi.NoteOffEvent(tick=240, channel=0, data=[50, 95]),
   midi.NoteOffEvent(tick=0, channel=0, data=[40, 79]),
   midi.NoteOnEvent(tick=0, channel=0, data=[52, 70]),
   midi.NoteOffEvent(tick=240, channel=0, data=[52, 70]),
   midi.NoteOnEvent(tick=0, channel=0, data=[40, 79]),
   midi.NoteOffEvent(tick=240, channel=0, data=[40, 79]),
   midi.NoteOnEvent(tick=0, channel=0, data=[40, 79]),
   midi.NoteOffEvent(tick=240, channel=0, data=[40, 79]),
   midi.NoteOnEvent(tick=0, channel=0, data=[40, 79]),
   midi.NoteOffEvent(tick=240, channel=0, data=[40, 79]),
   midi.NoteOnEvent(tick=0, channel=0, data=[40, 79]),
   midi.NoteOffEvent(tick=240, channel=0, data=[40, 79]),
   midi.NoteOnEvent(tick=0, channel=0, data=[40, 79]),
   midi.NoteOffEvent(tick=240, channel=0, data=[40, 79]),
   midi.NoteOnEvent(tick=0, channel=0, data=[40, 79]),
   midi.NoteOffEvent(tick=240, channel=0, data=[40, 79]),
   midi.NoteOnEvent(tick=0, channel=0, data=[50, 95]),
   midi.NoteOnEvent(tick=0, channel=0, data=[40, 79]),
   midi.NoteOffEvent(tick=240, channel=0, data=[50, 95]),
   midi.NoteOffEvent(tick=0, channel=0, data=[40, 79]),
   midi.NoteOnEvent(tick=0, channel=0, data=[52, 70]),
   midi.NoteOffEvent(tick=240, channel=0, data=[52, 70]),
   midi.NoteOnEvent(tick=0, channel=0, data=[40, 79]),
   midi.NoteOffEvent(tick=240, channel=0, data=[40, 79]),
   midi.NoteOnEvent(tick=0, channel=0, data=[40, 79]),
   midi.NoteOffEvent(tick=240, channel=0, data=[40, 79]),
   midi.NoteOnEvent(tick=0, channel=0, data=[40, 79]),
   midi.NoteOffEvent(tick=240, channel=0, data=[40, 79]),
   midi.NoteOnEvent(tick=0, channel=0, data=[40, 79]),
   midi.NoteOffEvent(tick=240, channel=0, data=[40, 79]),
   midi.NoteOnEvent(tick=0, channel=0, data=[40, 79]),
   midi.NoteOffEvent(tick=240, channel=0, data=[40, 79]),
   midi.NoteOnEvent(tick=0, channel=0, data=[40, 79]),
   midi.NoteOffEvent(tick=240, channel=0, data=[40, 79]),
   midi.NoteOnEvent(tick=0, channel=0, data=[54, 79]),
   midi.NoteOnEvent(tick=0, channel=0, data=[47, 95]),
   midi.NoteOffEvent(tick=480, channel=0, data=[54, 79]),
   midi.NoteOffEvent(tick=0, channel=0, data=[47, 95]),
   midi.NoteOnEvent(tick=0, channel=0, data=[52, 79]),
   midi.NoteOnEvent(tick=0, channel=0, data=[45, 95]),
   midi.NoteOffEvent(tick=480, channel=0, data=[52, 79]),
   midi.NoteOffEvent(tick=0, channel=0, data=[45, 95]),
   midi.NoteOnEvent(tick=0, channel=0, data=[60, 79]),
   midi.NoteOnEvent(tick=0, channel=0, data=[53, 95]),
   midi.NoteOffEvent(tick=960, channel=0, data=[60, 79]),
   midi.NoteOffEvent(tick=0, channel=0, data=[53, 95]),
   midi.NoteOnEvent(tick=0, channel=0, data=[50, 95]),
   midi.NoteOnEvent(tick=0, channel=0, data=[40, 79]),
   midi.NoteOffEvent(tick=240, channel=0, data=[50, 95]),
   midi.NoteOffEvent(tick=0, channel=0, data=[40, 79]),
   midi.NoteOnEvent(tick=0, channel=0, data=[52, 70]),
   midi.NoteOffEvent(tick=240, channel=0, data=[52, 70]),
   midi.NoteOnEvent(tick=0, channel=0, data=[40, 79]),
   midi.NoteOffEvent(tick=240, channel=0, data=[40, 79]),
   midi.NoteOnEvent(tick=0, channel=0, data=[40, 79]),
   midi.NoteOffEvent(tick=240, channel=0, data=[40, 79]),
   midi.NoteOnEvent(tick=0, channel=0, data=[40, 79]),
   midi.NoteOffEvent(tick=240, channel=0, data=[40, 79]),
   midi.NoteOnEvent(tick=0, channel=0, data=[40, 79]),
   midi.NoteOffEvent(tick=240, channel=0, data=[40, 79]),
   midi.NoteOnEvent(tick=0, channel=0, data=[40, 79]),
   midi.NoteOffEvent(tick=240, channel=0, data=[40, 79]),
   midi.NoteOnEvent(tick=0, channel=0, data=[40, 79]),
   midi.NoteOffEvent(tick=240, channel=0, data=[40, 79]),
   midi.NoteOnEvent(tick=0, channel=0, data=[50, 95]),
   midi.NoteOnEvent(tick=0, channel=0, data=[40, 79]),
   midi.NoteOffEvent(tick=240, channel=0, data=[50, 95]),
   midi.NoteOffEvent(tick=0, channel=0, data=[40, 79]),
   midi.NoteOnEvent(tick=0, channel=0, data=[52, 70]),
   midi.NoteOffEvent(tick=240, channel=0, data=[52, 70]),
   midi.NoteOnEvent(tick=0, channel=0, data=[40, 79]),
   midi.NoteOffEvent(tick=240, channel=0, data=[40, 79]),
   midi.NoteOnEvent(tick=0, channel=0, data=[40, 79]),
   midi.NoteOffEvent(tick=240, channel=0, data=[40, 79]),
   midi.NoteOnEvent(tick=0, channel=0, data=[40, 79]),
   midi.NoteOffEvent(tick=240, channel=0, data=[40, 79]),
   midi.NoteOnEvent(tick=0, channel=0, data=[40, 79]),
   midi.NoteOffEvent(tick=240, channel=0, data=[40, 79]),
   midi.NoteOnEvent(tick=0, channel=0, data=[40, 79]),
   midi.NoteOffEvent(tick=240, channel=0, data=[40, 79]),
   midi.NoteOnEvent(tick=0, channel=0, data=[40, 79]),
   midi.NoteOffEvent(tick=240, channel=0, data=[40, 79]),
   midi.NoteOnEvent(tick=0, channel=0, data=[50, 95]),
   midi.NoteOnEvent(tick=0, channel=0, data=[40, 79]),
   midi.NoteOffEvent(tick=240, channel=0, data=[50, 95]),
   midi.NoteOffEvent(tick=0, channel=0, data=[40, 79]),
   midi.NoteOnEvent(tick=0, channel=0, data=[52, 70]),
   midi.NoteOffEvent(tick=240, channel=0, data=[52, 70]),
   midi.NoteOnEvent(tick=0, channel=0, data=[40, 79]),
   midi.NoteOffEvent(tick=240, channel=0, data=[40, 79]),
   midi.NoteOnEvent(tick=0, channel=0, data=[40, 79]),
   midi.NoteOffEvent(tick=240, channel=0, data=[40, 79]),
   midi.NoteOnEvent(tick=0, channel=0, data=[40, 79]),
   midi.NoteOffEvent(tick=240, channel=0, data=[40, 79]),
   midi.NoteOnEvent(tick=0, channel=0, data=[40, 79]),
   midi.NoteOffEvent(tick=240, channel=0, data=[40, 79]),
   midi.NoteOnEvent(tick=0, channel=0, data=[40, 79]),
   midi.NoteOffEvent(tick=240, channel=0, data=[40, 79]),
   midi.NoteOnEvent(tick=0, channel=0, data=[40, 79]),
   midi.NoteOffEvent(tick=240, channel=0, data=[40, 79]),
   midi.NoteOnEvent(tick=0, channel=0, data=[54, 79]),
   midi.NoteOnEvent(tick=0, channel=0, data=[47, 95]),
   midi.NoteOffEvent(tick=480, channel=0, data=[54, 79]),
   midi.NoteOffEvent(tick=0, channel=0, data=[47, 95]),
   midi.NoteOnEvent(tick=0, channel=0, data=[52, 79]),
   midi.NoteOnEvent(tick=0, channel=0, data=[45, 95]),
   midi.NoteOffEvent(tick=480, channel=0, data=[52, 79]),
   midi.NoteOffEvent(tick=0, channel=0, data=[45, 95]),
   midi.NoteOnEvent(tick=0, channel=0, data=[56, 79]),
   midi.NoteOnEvent(tick=0, channel=0, data=[49, 79]),
   midi.NoteOffEvent(tick=480, channel=0, data=[56, 79]),
   midi.NoteOffEvent(tick=0, channel=0, data=[49, 79]),
   midi.NoteOnEvent(tick=0, channel=0, data=[57, 79]),
   midi.NoteOnEvent(tick=0, channel=0, data=[50, 95]),
   midi.NoteOffEvent(tick=480, channel=0, data=[57, 79]),
   midi.NoteOffEvent(tick=0, channel=0, data=[50, 95]),
   midi.NoteOnEvent(tick=0, channel=0, data=[50, 95]),
   midi.NoteOnEvent(tick=0, channel=0, data=[40, 79]),
   midi.NoteOffEvent(tick=240, channel=0, data=[50, 95]),
   midi.NoteOffEvent(tick=0, channel=0, data=[40, 79]),
   midi.NoteOnEvent(tick=0, channel=0, data=[52, 70]),
   midi.NoteOffEvent(tick=240, channel=0, data=[52, 70]),
   midi.NoteOnEvent(tick=0, channel=0, data=[40, 79]),
   midi.NoteOffEvent(tick=240, channel=0, data=[40, 79]),
   midi.NoteOnEvent(tick=0, channel=0, data=[40, 79]),
   midi.NoteOffEvent(tick=240, channel=0, data=[40, 79]),
   midi.NoteOnEvent(tick=0, channel=0, data=[40, 79]),
   midi.NoteOffEvent(tick=240, channel=0, data=[40, 79]),
   midi.NoteOnEvent(tick=0, channel=0, data=[40, 79]),
   midi.NoteOffEvent(tick=240, channel=0, data=[40, 79]),
   midi.NoteOnEvent(tick=0, channel=0, data=[40, 79]),
   midi.NoteOffEvent(tick=240, channel=0, data=[40, 79]),
   midi.NoteOnEvent(tick=0, channel=0, data=[40, 79]),
   midi.NoteOffEvent(tick=240, channel=0, data=[40, 79]),
   midi.NoteOnEvent(tick=0, channel=0, data=[50, 95]),
   midi.NoteOnEvent(tick=0, channel=0, data=[40, 79]),
   midi.NoteOffEvent(tick=240, channel=0, data=[50, 95]),
   midi.NoteOffEvent(tick=0, channel=0, data=[40, 79]),
   midi.NoteOnEvent(tick=0, channel=0, data=[52, 70]),
   midi.NoteOffEvent(tick=240, channel=0, data=[52, 70]),
   midi.NoteOnEvent(tick=0, channel=0, data=[40, 79]),
   midi.NoteOffEvent(tick=240, channel=0, data=[40, 79]),
   midi.NoteOnEvent(tick=0, channel=0, data=[40, 79]),
   midi.NoteOffEvent(tick=240, channel=0, data=[40, 79]),
   midi.NoteOnEvent(tick=0, channel=0, data=[40, 79]),
   midi.NoteOffEvent(tick=240, channel=0, data=[40, 79]),
   midi.NoteOnEvent(tick=0, channel=0, data=[40, 79]),
   midi.NoteOffEvent(tick=240, channel=0, data=[40, 79]),
   midi.NoteOnEvent(tick=0, channel=0, data=[40, 79]),
   midi.NoteOffEvent(tick=240, channel=0, data=[40, 79]),
   midi.NoteOnEvent(tick=0, channel=0, data=[40, 79]),
   midi.NoteOffEvent(tick=240, channel=0, data=[40, 79]),
   midi.NoteOnEvent(tick=0, channel=0, data=[50, 95]),
   midi.NoteOnEvent(tick=0, channel=0, data=[40, 79]),
   midi.NoteOffEvent(tick=240, channel=0, data=[50, 95]),
   midi.NoteOffEvent(tick=0, channel=0, data=[40, 79]),
   midi.NoteOnEvent(tick=0, channel=0, data=[52, 70]),
   midi.NoteOffEvent(tick=240, channel=0, data=[52, 70]),
   midi.NoteOnEvent(tick=0, channel=0, data=[40, 79]),
   midi.NoteOffEvent(tick=240, channel=0, data=[40, 79]),
   midi.NoteOnEvent(tick=0, channel=0, data=[40, 79]),
   midi.NoteOffEvent(tick=240, channel=0, data=[40, 79]),
   midi.NoteOnEvent(tick=0, channel=0, data=[40, 79]),
   midi.NoteOffEvent(tick=240, channel=0, data=[40, 79]),
   midi.NoteOnEvent(tick=0, channel=0, data=[40, 79]),
   midi.NoteOffEvent(tick=240, channel=0, data=[40, 79]),
   midi.NoteOnEvent(tick=0, channel=0, data=[40, 79]),
   midi.NoteOffEvent(tick=240, channel=0, data=[40, 79]),
   midi.NoteOnEvent(tick=0, channel=0, data=[40, 79]),
   midi.NoteOffEvent(tick=240, channel=0, data=[40, 79]),
   midi.NoteOnEvent(tick=0, channel=0, data=[54, 79]),
   midi.NoteOnEvent(tick=0, channel=0, data=[47, 95]),
   midi.NoteOffEvent(tick=480, channel=0, data=[54, 79]),
   midi.NoteOffEvent(tick=0, channel=0, data=[47, 95]),
   midi.NoteOnEvent(tick=0, channel=0, data=[52, 79]),
   midi.NoteOnEvent(tick=0, channel=0, data=[45, 95]),
   midi.NoteOffEvent(tick=480, channel=0, data=[52, 79]),
   midi.NoteOffEvent(tick=0, channel=0, data=[45, 95]),
   midi.NoteOnEvent(tick=0, channel=0, data=[60, 79]),
   midi.NoteOnEvent(tick=0, channel=0, data=[53, 95]),
   midi.NoteOffEvent(tick=960, channel=0, data=[60, 79]),
   midi.NoteOffEvent(tick=0, channel=0, data=[53, 95]),
   midi.NoteOnEvent(tick=0, channel=0, data=[50, 95]),
   midi.NoteOnEvent(tick=0, channel=0, data=[40, 79]),
   midi.NoteOffEvent(tick=240, channel=0, data=[50, 95]),
   midi.NoteOffEvent(tick=0, channel=0, data=[40, 79]),
   midi.NoteOnEvent(tick=0, channel=0, data=[52, 70]),
   midi.NoteOffEvent(tick=240, channel=0, data=[52, 70]),
   midi.NoteOnEvent(tick=0, channel=0, data=[40, 79]),
   midi.NoteOffEvent(tick=240, channel=0, data=[40, 79]),
   midi.NoteOnEvent(tick=0, channel=0, data=[40, 79]),
   midi.NoteOffEvent(tick=240, channel=0, data=[40, 79]),
   midi.NoteOnEvent(tick=0, channel=0, data=[40, 79]),
   midi.NoteOffEvent(tick=240, channel=0, data=[40, 79]),
   midi.NoteOnEvent(tick=0, channel=0, data=[40, 79]),
   midi.NoteOffEvent(tick=240, channel=0, data=[40, 79]),
   midi.NoteOnEvent(tick=0, channel=0, data=[40, 79]),
   midi.NoteOffEvent(tick=240, channel=0, data=[40, 79]),
   midi.NoteOnEvent(tick=0, channel=0, data=[40, 79]),
   midi.NoteOffEvent(tick=240, channel=0, data=[40, 79]),
   midi.NoteOnEvent(tick=0, channel=0, data=[50, 95]),
   midi.NoteOnEvent(tick=0, channel=0, data=[40, 79]),
   midi.NoteOffEvent(tick=240, channel=0, data=[50, 95]),
   midi.NoteOffEvent(tick=0, channel=0, data=[40, 79]),
   midi.NoteOnEvent(tick=0, channel=0, data=[52, 70]),
   midi.NoteOffEvent(tick=240, channel=0, data=[52, 70]),
   midi.NoteOnEvent(tick=0, channel=0, data=[40, 79]),
   midi.NoteOffEvent(tick=240, channel=0, data=[40, 79]),
   midi.NoteOnEvent(tick=0, channel=0, data=[40, 79]),
   midi.NoteOffEvent(tick=240, channel=0, data=[40, 79]),
   midi.NoteOnEvent(tick=0, channel=0, data=[40, 79]),
   midi.NoteOffEvent(tick=240, channel=0, data=[40, 79]),
   midi.NoteOnEvent(tick=0, channel=0, data=[40, 79]),
   midi.NoteOffEvent(tick=240, channel=0, data=[40, 79]),
   midi.NoteOnEvent(tick=0, channel=0, data=[40, 79]),
   midi.NoteOffEvent(tick=240, channel=0, data=[40, 79]),
   midi.NoteOnEvent(tick=0, channel=0, data=[40, 79]),
   midi.NoteOffEvent(tick=240, channel=0, data=[40, 79]),
   midi.NoteOnEvent(tick=0, channel=0, data=[50, 95]),
   midi.NoteOnEvent(tick=0, channel=0, data=[40, 79]),
   midi.NoteOffEvent(tick=240, channel=0, data=[50, 95]),
   midi.NoteOffEvent(tick=0, channel=0, data=[40, 79]),
   midi.NoteOnEvent(tick=0, channel=0, data=[52, 70]),
   midi.NoteOnEvent(tick=0, channel=0, data=[40, 79]),
   midi.NoteOffEvent(tick=240, channel=0, data=[52, 70]),
   midi.NoteOffEvent(tick=0, channel=0, data=[40, 79]),
   midi.NoteOnEvent(tick=0, channel=0, data=[40, 79]),
   midi.NoteOffEvent(tick=240, channel=0, data=[40, 79]),
   midi.NoteOnEvent(tick=0, channel=0, data=[40, 79]),
   midi.NoteOffEvent(tick=240, channel=0, data=[40, 79]),
   midi.NoteOnEvent(tick=0, channel=0, data=[40, 79]),
   midi.NoteOffEvent(tick=240, channel=0, data=[40, 79]),
   midi.NoteOnEvent(tick=0, channel=0, data=[40, 79]),
   midi.NoteOffEvent(tick=240, channel=0, data=[40, 79]),
   midi.NoteOnEvent(tick=0, channel=0, data=[40, 79]),
   midi.NoteOffEvent(tick=240, channel=0, data=[40, 79]),
   midi.NoteOnEvent(tick=0, channel=0, data=[40, 79]),
   midi.NoteOffEvent(tick=240, channel=0, data=[40, 79]),
   midi.NoteOnEvent(tick=0, channel=0, data=[54, 79]),
   midi.NoteOnEvent(tick=0, channel=0, data=[47, 95]),
   midi.NoteOffEvent(tick=480, channel=0, data=[54, 79]),
   midi.NoteOffEvent(tick=0, channel=0, data=[47, 95]),
   midi.NoteOnEvent(tick=0, channel=0, data=[52, 79]),
   midi.NoteOnEvent(tick=0, channel=0, data=[45, 95]),
   midi.NoteOffEvent(tick=480, channel=0, data=[52, 79]),
   midi.NoteOffEvent(tick=0, channel=0, data=[45, 95]),
   midi.NoteOnEvent(tick=0, channel=0, data=[56, 79]),
   midi.NoteOnEvent(tick=0, channel=0, data=[49, 79]),
   midi.NoteOffEvent(tick=480, channel=0, data=[56, 79]),
   midi.NoteOffEvent(tick=0, channel=0, data=[49, 79]),
   midi.NoteOnEvent(tick=0, channel=0, data=[57, 79]),
   midi.NoteOnEvent(tick=0, channel=0, data=[50, 95]),
   midi.NoteOffEvent(tick=480, channel=0, data=[57, 79]),
   midi.NoteOffEvent(tick=0, channel=0, data=[50, 95]),
   midi.NoteOnEvent(tick=0, channel=0, data=[50, 95]),
   midi.NoteOnEvent(tick=0, channel=0, data=[40, 79]),
   midi.NoteOffEvent(tick=240, channel=0, data=[50, 95]),
   midi.NoteOffEvent(tick=0, channel=0, data=[40, 79]),
   midi.NoteOnEvent(tick=0, channel=0, data=[52, 70]),
   midi.NoteOffEvent(tick=240, channel=0, data=[52, 70]),
   midi.NoteOnEvent(tick=0, channel=0, data=[40, 79]),
   midi.NoteOffEvent(tick=240, channel=0, data=[40, 79]),
   midi.NoteOnEvent(tick=0, channel=0, data=[40, 79]),
   midi.NoteOffEvent(tick=240, channel=0, data=[40, 79]),
   midi.NoteOnEvent(tick=0, channel=0, data=[40, 79]),
   midi.NoteOffEvent(tick=240, channel=0, data=[40, 79]),
   midi.NoteOnEvent(tick=0, channel=0, data=[40, 79]),
   midi.NoteOffEvent(tick=240, channel=0, data=[40, 79]),
   midi.NoteOnEvent(tick=0, channel=0, data=[40, 79]),
   midi.NoteOffEvent(tick=240, channel=0, data=[40, 79]),
   midi.NoteOnEvent(tick=0, channel=0, data=[40, 79]),
   midi.NoteOffEvent(tick=240, channel=0, data=[40, 79]),
   midi.NoteOnEvent(tick=0, channel=0, data=[50, 95]),
   midi.NoteOnEvent(tick=0, channel=0, data=[40, 79]),
   midi.NoteOffEvent(tick=240, channel=0, data=[50, 95]),
   midi.NoteOffEvent(tick=0, channel=0, data=[40, 79]),
   midi.NoteOnEvent(tick=0, channel=0, data=[52, 70]),
   midi.NoteOffEvent(tick=240, channel=0, data=[52, 70]),
   midi.NoteOnEvent(tick=0, channel=0, data=[40, 79]),
   midi.NoteOffEvent(tick=240, channel=0, data=[40, 79]),
   midi.NoteOnEvent(tick=0, channel=0, data=[40, 79]),
   midi.NoteOffEvent(tick=240, channel=0, data=[40, 79]),
   midi.NoteOnEvent(tick=0, channel=0, data=[40, 79]),
   midi.NoteOffEvent(tick=240, channel=0, data=[40, 79]),
   midi.NoteOnEvent(tick=0, channel=0, data=[40, 79]),
   midi.NoteOffEvent(tick=240, channel=0, data=[40, 79]),
   midi.NoteOnEvent(tick=0, channel=0, data=[40, 79]),
   midi.NoteOffEvent(tick=240, channel=0, data=[40, 79]),
   midi.NoteOnEvent(tick=0, channel=0, data=[40, 79]),
   midi.NoteOffEvent(tick=240, channel=0, data=[40, 79]),
   midi.NoteOnEvent(tick=0, channel=0, data=[50, 95]),
   midi.NoteOnEvent(tick=0, channel=0, data=[40, 79]),
   midi.NoteOffEvent(tick=240, channel=0, data=[50, 95]),
   midi.NoteOffEvent(tick=0, channel=0, data=[40, 79]),
   midi.NoteOnEvent(tick=0, channel=0, data=[52, 70]),
   midi.NoteOffEvent(tick=240, channel=0, data=[52, 70]),
   midi.NoteOnEvent(tick=0, channel=0, data=[40, 79]),
   midi.NoteOffEvent(tick=240, channel=0, data=[40, 79]),
   midi.NoteOnEvent(tick=0, channel=0, data=[40, 79]),
   midi.NoteOffEvent(tick=240, channel=0, data=[40, 79]),
   midi.NoteOnEvent(tick=0, channel=0, data=[40, 79]),
   midi.NoteOffEvent(tick=240, channel=0, data=[40, 79]),
   midi.NoteOnEvent(tick=0, channel=0, data=[40, 79]),
   midi.NoteOffEvent(tick=240, channel=0, data=[40, 79]),
   midi.NoteOnEvent(tick=0, channel=0, data=[40, 79]),
   midi.NoteOffEvent(tick=240, channel=0, data=[40, 79]),
   midi.NoteOnEvent(tick=0, channel=0, data=[40, 79]),
   midi.NoteOffEvent(tick=240, channel=0, data=[40, 79]),
   midi.NoteOnEvent(tick=0, channel=0, data=[54, 79]),
   midi.NoteOnEvent(tick=0, channel=0, data=[47, 95]),
   midi.NoteOffEvent(tick=480, channel=0, data=[54, 79]),
   midi.NoteOffEvent(tick=0, channel=0, data=[47, 95]),
   midi.NoteOnEvent(tick=0, channel=0, data=[52, 79]),
   midi.NoteOnEvent(tick=0, channel=0, data=[45, 95]),
   midi.NoteOffEvent(tick=480, channel=0, data=[52, 79]),
   midi.NoteOffEvent(tick=0, channel=0, data=[45, 95]),
   midi.NoteOnEvent(tick=0, channel=0, data=[60, 79]),
   midi.NoteOnEvent(tick=0, channel=0, data=[53, 95]),
   midi.NoteOffEvent(tick=960, channel=0, data=[60, 79]),
   midi.NoteOffEvent(tick=0, channel=0, data=[53, 95]),
   midi.NoteOnEvent(tick=0, channel=0, data=[50, 95]),
   midi.NoteOnEvent(tick=0, channel=0, data=[40, 79]),
   midi.NoteOffEvent(tick=240, channel=0, data=[50, 95]),
   midi.NoteOffEvent(tick=0, channel=0, data=[40, 79]),
   midi.NoteOnEvent(tick=0, channel=0, data=[52, 70]),
   midi.NoteOffEvent(tick=240, channel=0, data=[52, 70]),
   midi.NoteOnEvent(tick=0, channel=0, data=[40, 79]),
   midi.NoteOffEvent(tick=240, channel=0, data=[40, 79]),
   midi.NoteOnEvent(tick=0, channel=0, data=[40, 79]),
   midi.NoteOffEvent(tick=240, channel=0, data=[40, 79]),
   midi.NoteOnEvent(tick=0, channel=0, data=[40, 79]),
   midi.NoteOffEvent(tick=240, channel=0, data=[40, 79]),
   midi.NoteOnEvent(tick=0, channel=0, data=[40, 79]),
   midi.NoteOffEvent(tick=240, channel=0, data=[40, 79]),
   midi.NoteOnEvent(tick=0, channel=0, data=[40, 79]),
   midi.NoteOffEvent(tick=240, channel=0, data=[40, 79]),
   midi.NoteOnEvent(tick=0, channel=0, data=[40, 79]),
   midi.NoteOffEvent(tick=240, channel=0, data=[40, 79]),
   midi.NoteOnEvent(tick=0, channel=0, data=[50, 95]),
   midi.NoteOnEvent(tick=0, channel=0, data=[40, 79]),
   midi.NoteOffEvent(tick=240, channel=0, data=[50, 95]),
   midi.NoteOffEvent(tick=0, channel=0, data=[40, 79]),
   midi.NoteOnEvent(tick=0, channel=0, data=[52, 70]),
   midi.NoteOffEvent(tick=240, channel=0, data=[52, 70]),
   midi.NoteOnEvent(tick=0, channel=0, data=[40, 79]),
   midi.NoteOffEvent(tick=240, channel=0, data=[40, 79]),
   midi.NoteOnEvent(tick=0, channel=0, data=[40, 79]),
   midi.NoteOffEvent(tick=240, channel=0, data=[40, 79]),
   midi.NoteOnEvent(tick=0, channel=0, data=[40, 79]),
   midi.NoteOffEvent(tick=240, channel=0, data=[40, 79]),
   midi.NoteOnEvent(tick=0, channel=0, data=[40, 79]),
   midi.NoteOffEvent(tick=240, channel=0, data=[40, 79]),
   midi.NoteOnEvent(tick=0, channel=0, data=[40, 79]),
   midi.NoteOffEvent(tick=240, channel=0, data=[40, 79]),
   midi.NoteOnEvent(tick=0, channel=0, data=[40, 79]),
   midi.NoteOffEvent(tick=240, channel=0, data=[40, 79]),
   midi.NoteOnEvent(tick=0, channel=0, data=[50, 95]),
   midi.NoteOnEvent(tick=0, channel=0, data=[40, 79]),
   midi.NoteOffEvent(tick=240, channel=0, data=[50, 95]),
   midi.NoteOffEvent(tick=0, channel=0, data=[40, 79]),
   midi.NoteOnEvent(tick=0, channel=0, data=[52, 70]),
   midi.NoteOffEvent(tick=240, channel=0, data=[52, 70]),
   midi.NoteOnEvent(tick=0, channel=0, data=[40, 79]),
   midi.NoteOffEvent(tick=240, channel=0, data=[40, 79]),
   midi.NoteOnEvent(tick=0, channel=0, data=[40, 79]),
   midi.NoteOffEvent(tick=240, channel=0, data=[40, 79]),
   midi.NoteOnEvent(tick=0, channel=0, data=[40, 79]),
   midi.NoteOffEvent(tick=240, channel=0, data=[40, 79]),
   midi.NoteOnEvent(tick=0, channel=0, data=[40, 79]),
   midi.NoteOffEvent(tick=240, channel=0, data=[40, 79]),
   midi.NoteOnEvent(tick=0, channel=0, data=[40, 79]),
   midi.NoteOffEvent(tick=240, channel=0, data=[40, 79]),
   midi.NoteOnEvent(tick=0, channel=0, data=[40, 79]),
   midi.NoteOffEvent(tick=240, channel=0, data=[40, 79]),
   midi.NoteOnEvent(tick=0, channel=0, data=[54, 79]),
   midi.NoteOnEvent(tick=0, channel=0, data=[47, 95]),
   midi.NoteOffEvent(tick=480, channel=0, data=[54, 79]),
   midi.NoteOffEvent(tick=0, channel=0, data=[47, 95]),
   midi.NoteOnEvent(tick=0, channel=0, data=[52, 79]),
   midi.NoteOnEvent(tick=0, channel=0, data=[45, 95]),
   midi.NoteOffEvent(tick=480, channel=0, data=[52, 79]),
   midi.NoteOffEvent(tick=0, channel=0, data=[45, 95]),
   midi.NoteOnEvent(tick=0, channel=0, data=[56, 79]),
   midi.NoteOnEvent(tick=0, channel=0, data=[49, 79]),
   midi.NoteOffEvent(tick=480, channel=0, data=[56, 79]),
   midi.NoteOffEvent(tick=0, channel=0, data=[49, 79]),
   midi.NoteOnEvent(tick=0, channel=0, data=[57, 79]),
   midi.NoteOnEvent(tick=0, channel=0, data=[50, 95]),
   midi.NoteOffEvent(tick=480, channel=0, data=[57, 79]),
   midi.NoteOffEvent(tick=0, channel=0, data=[50, 95]),
   midi.NoteOnEvent(tick=0, channel=0, data=[50, 95]),
   midi.NoteOnEvent(tick=0, channel=0, data=[40, 79]),
   midi.NoteOffEvent(tick=240, channel=0, data=[50, 95]),
   midi.NoteOffEvent(tick=0, channel=0, data=[40, 79]),
   midi.NoteOnEvent(tick=0, channel=0, data=[52, 70]),
   midi.NoteOffEvent(tick=240, channel=0, data=[52, 70]),
   midi.NoteOnEvent(tick=0, channel=0, data=[40, 79]),
   midi.NoteOffEvent(tick=240, channel=0, data=[40, 79]),
   midi.NoteOnEvent(tick=0, channel=0, data=[40, 79]),
   midi.NoteOffEvent(tick=240, channel=0, data=[40, 79]),
   midi.NoteOnEvent(tick=0, channel=0, data=[40, 79]),
   midi.NoteOffEvent(tick=240, channel=0, data=[40, 79]),
   midi.NoteOnEvent(tick=0, channel=0, data=[40, 79]),
   midi.NoteOffEvent(tick=240, channel=0, data=[40, 79]),
   midi.NoteOnEvent(tick=0, channel=0, data=[40, 79]),
   midi.NoteOffEvent(tick=240, channel=0, data=[40, 79]),
   midi.NoteOnEvent(tick=0, channel=0, data=[40, 79]),
   midi.NoteOffEvent(tick=240, channel=0, data=[40, 79]),
   midi.NoteOnEvent(tick=0, channel=0, data=[50, 95]),
   midi.NoteOnEvent(tick=0, channel=0, data=[40, 79]),
   midi.NoteOffEvent(tick=240, channel=0, data=[50, 95]),
   midi.NoteOffEvent(tick=0, channel=0, data=[40, 79]),
   midi.NoteOnEvent(tick=0, channel=0, data=[52, 70]),
   midi.NoteOffEvent(tick=240, channel=0, data=[52, 70]),
   midi.NoteOnEvent(tick=0, channel=0, data=[40, 79]),
   midi.NoteOffEvent(tick=240, channel=0, data=[40, 79]),
   midi.NoteOnEvent(tick=0, channel=0, data=[40, 79]),
   midi.NoteOffEvent(tick=240, channel=0, data=[40, 79]),
   midi.NoteOnEvent(tick=0, channel=0, data=[40, 79]),
   midi.NoteOffEvent(tick=240, channel=0, data=[40, 79]),
   midi.NoteOnEvent(tick=0, channel=0, data=[40, 79]),
   midi.NoteOffEvent(tick=240, channel=0, data=[40, 79]),
   midi.NoteOnEvent(tick=0, channel=0, data=[40, 79]),
   midi.NoteOffEvent(tick=240, channel=0, data=[40, 79]),
   midi.NoteOnEvent(tick=0, channel=0, data=[40, 79]),
   midi.NoteOffEvent(tick=240, channel=0, data=[40, 79]),
   midi.NoteOnEvent(tick=0, channel=0, data=[50, 95]),
   midi.NoteOnEvent(tick=0, channel=0, data=[40, 79]),
   midi.NoteOffEvent(tick=240, channel=0, data=[50, 95]),
   midi.NoteOffEvent(tick=0, channel=0, data=[40, 79]),
   midi.NoteOnEvent(tick=0, channel=0, data=[52, 70]),
   midi.NoteOffEvent(tick=240, channel=0, data=[52, 70]),
   midi.NoteOnEvent(tick=0, channel=0, data=[40, 79]),
   midi.NoteOffEvent(tick=240, channel=0, data=[40, 79]),
   midi.NoteOnEvent(tick=0, channel=0, data=[40, 79]),
   midi.NoteOffEvent(tick=240, channel=0, data=[40, 79]),
   midi.NoteOnEvent(tick=0, channel=0, data=[40, 79]),
   midi.NoteOffEvent(tick=240, channel=0, data=[40, 79]),
   midi.NoteOnEvent(tick=0, channel=0, data=[40, 79]),
   midi.NoteOffEvent(tick=240, channel=0, data=[40, 79]),
   midi.NoteOnEvent(tick=0, channel=0, data=[40, 79]),
   midi.NoteOffEvent(tick=240, channel=0, data=[40, 79]),
   midi.NoteOnEvent(tick=0, channel=0, data=[40, 79]),
   midi.NoteOffEvent(tick=240, channel=0, data=[40, 79]),
   midi.NoteOnEvent(tick=0, channel=0, data=[54, 79]),
   midi.NoteOnEvent(tick=0, channel=0, data=[47, 95]),
   midi.NoteOffEvent(tick=480, channel=0, data=[54, 79]),
   midi.NoteOffEvent(tick=0, channel=0, data=[47, 95]),
   midi.NoteOnEvent(tick=0, channel=0, data=[52, 79]),
   midi.NoteOnEvent(tick=0, channel=0, data=[45, 95]),
   midi.NoteOffEvent(tick=480, channel=0, data=[52, 79]),
   midi.NoteOffEvent(tick=0, channel=0, data=[45, 95]),
   midi.NoteOnEvent(tick=0, channel=0, data=[60, 79]),
   midi.NoteOnEvent(tick=0, channel=0, data=[53, 95]),
   midi.NoteOffEvent(tick=960, channel=0, data=[60, 79]),
   midi.NoteOffEvent(tick=0, channel=0, data=[53, 95]),
   midi.NoteOnEvent(tick=0, channel=0, data=[50, 95]),
   midi.NoteOnEvent(tick=0, channel=0, data=[40, 79]),
   midi.NoteOffEvent(tick=240, channel=0, data=[50, 95]),
   midi.NoteOffEvent(tick=0, channel=0, data=[40, 79]),
   midi.NoteOnEvent(tick=0, channel=0, data=[52, 70]),
   midi.NoteOffEvent(tick=240, channel=0, data=[52, 70]),
   midi.NoteOnEvent(tick=0, channel=0, data=[40, 79]),
   midi.NoteOffEvent(tick=240, channel=0, data=[40, 79]),
   midi.NoteOnEvent(tick=0, channel=0, data=[40, 79]),
   midi.NoteOffEvent(tick=240, channel=0, data=[40, 79]),
   midi.NoteOnEvent(tick=0, channel=0, data=[40, 79]),
   midi.NoteOffEvent(tick=240, channel=0, data=[40, 79]),
   midi.NoteOnEvent(tick=0, channel=0, data=[40, 79]),
   midi.NoteOffEvent(tick=240, channel=0, data=[40, 79]),
   midi.NoteOnEvent(tick=0, channel=0, data=[40, 79]),
   midi.NoteOffEvent(tick=240, channel=0, data=[40, 79]),
   midi.NoteOnEvent(tick=0, channel=0, data=[40, 79]),
   midi.NoteOffEvent(tick=240, channel=0, data=[40, 79]),
   midi.NoteOnEvent(tick=0, channel=0, data=[50, 95]),
   midi.NoteOnEvent(tick=0, channel=0, data=[40, 79]),
   midi.NoteOffEvent(tick=240, channel=0, data=[50, 95]),
   midi.NoteOffEvent(tick=0, channel=0, data=[40, 79]),
   midi.NoteOnEvent(tick=0, channel=0, data=[52, 70]),
   midi.NoteOffEvent(tick=240, channel=0, data=[52, 70]),
   midi.NoteOnEvent(tick=0, channel=0, data=[40, 79]),
   midi.NoteOffEvent(tick=240, channel=0, data=[40, 79]),
   midi.NoteOnEvent(tick=0, channel=0, data=[40, 79]),
   midi.NoteOffEvent(tick=240, channel=0, data=[40, 79]),
   midi.NoteOnEvent(tick=0, channel=0, data=[40, 79]),
   midi.NoteOffEvent(tick=240, channel=0, data=[40, 79]),
   midi.NoteOnEvent(tick=0, channel=0, data=[40, 79]),
   midi.NoteOffEvent(tick=240, channel=0, data=[40, 79]),
   midi.NoteOnEvent(tick=0, channel=0, data=[40, 79]),
   midi.NoteOffEvent(tick=240, channel=0, data=[40, 79]),
   midi.NoteOnEvent(tick=0, channel=0, data=[40, 79]),
   midi.NoteOffEvent(tick=240, channel=0, data=[40, 79]),
   midi.NoteOnEvent(tick=0, channel=0, data=[50, 95]),
   midi.NoteOnEvent(tick=0, channel=0, data=[40, 79]),
   midi.NoteOffEvent(tick=240, channel=0, data=[50, 95]),
   midi.NoteOffEvent(tick=0, channel=0, data=[40, 79]),
   midi.NoteOnEvent(tick=0, channel=0, data=[52, 70]),
   midi.NoteOffEvent(tick=240, channel=0, data=[52, 70]),
   midi.NoteOnEvent(tick=0, channel=0, data=[40, 79]),
   midi.NoteOffEvent(tick=240, channel=0, data=[40, 79]),
   midi.NoteOnEvent(tick=0, channel=0, data=[40, 79]),
   midi.NoteOffEvent(tick=240, channel=0, data=[40, 79]),
   midi.NoteOnEvent(tick=0, channel=0, data=[40, 79]),
   midi.NoteOffEvent(tick=240, channel=0, data=[40, 79]),
   midi.NoteOnEvent(tick=0, channel=0, data=[40, 79]),
   midi.NoteOffEvent(tick=240, channel=0, data=[40, 79]),
   midi.NoteOnEvent(tick=0, channel=0, data=[40, 79]),
   midi.NoteOffEvent(tick=240, channel=0, data=[40, 79]),
   midi.NoteOnEvent(tick=0, channel=0, data=[40, 79]),
   midi.NoteOffEvent(tick=240, channel=0, data=[40, 79]),
   midi.NoteOnEvent(tick=0, channel=0, data=[54, 79]),
   midi.NoteOnEvent(tick=0, channel=0, data=[47, 95]),
   midi.NoteOffEvent(tick=480, channel=0, data=[54, 79]),
   midi.NoteOffEvent(tick=0, channel=0, data=[47, 95]),
   midi.NoteOnEvent(tick=0, channel=0, data=[52, 79]),
   midi.NoteOnEvent(tick=0, channel=0, data=[45, 95]),
   midi.NoteOffEvent(tick=480, channel=0, data=[52, 79]),
   midi.NoteOffEvent(tick=0, channel=0, data=[45, 95]),
   midi.NoteOnEvent(tick=0, channel=0, data=[56, 79]),
   midi.NoteOnEvent(tick=0, channel=0, data=[49, 79]),
   midi.NoteOffEvent(tick=480, channel=0, data=[56, 79]),
   midi.NoteOffEvent(tick=0, channel=0, data=[49, 79]),
   midi.NoteOnEvent(tick=0, channel=0, data=[57, 79]),
   midi.NoteOnEvent(tick=0, channel=0, data=[50, 95]),
   midi.NoteOffEvent(tick=480, channel=0, data=[57, 79]),
   midi.NoteOffEvent(tick=0, channel=0, data=[50, 95]),
   midi.NoteOnEvent(tick=0, channel=0, data=[50, 95]),
   midi.NoteOnEvent(tick=0, channel=0, data=[40, 79]),
   midi.NoteOffEvent(tick=240, channel=0, data=[50, 95]),
   midi.NoteOffEvent(tick=0, channel=0, data=[40, 79]),
   midi.NoteOnEvent(tick=0, channel=0, data=[52, 70]),
   midi.NoteOffEvent(tick=240, channel=0, data=[52, 70]),
   midi.NoteOnEvent(tick=0, channel=0, data=[40, 79]),
   midi.NoteOffEvent(tick=240, channel=0, data=[40, 79]),
   midi.NoteOnEvent(tick=0, channel=0, data=[40, 79]),
   midi.NoteOffEvent(tick=240, channel=0, data=[40, 79]),
   midi.NoteOnEvent(tick=0, channel=0, data=[40, 79]),
   midi.NoteOffEvent(tick=240, channel=0, data=[40, 79]),
   midi.NoteOnEvent(tick=0, channel=0, data=[40, 79]),
   midi.NoteOffEvent(tick=240, channel=0, data=[40, 79]),
   midi.NoteOnEvent(tick=0, channel=0, data=[40, 79]),
   midi.NoteOffEvent(tick=240, channel=0, data=[40, 79]),
   midi.NoteOnEvent(tick=0, channel=0, data=[40, 79]),
   midi.NoteOffEvent(tick=240, channel=0, data=[40, 79]),
   midi.NoteOnEvent(tick=0, channel=0, data=[50, 95]),
   midi.NoteOnEvent(tick=0, channel=0, data=[40, 79]),
   midi.NoteOffEvent(tick=240, channel=0, data=[50, 95]),
   midi.NoteOffEvent(tick=0, channel=0, data=[40, 79]),
   midi.NoteOnEvent(tick=0, channel=0, data=[52, 70]),
   midi.NoteOffEvent(tick=240, channel=0, data=[52, 70]),
   midi.NoteOnEvent(tick=0, channel=0, data=[40, 79]),
   midi.NoteOffEvent(tick=240, channel=0, data=[40, 79]),
   midi.NoteOnEvent(tick=0, channel=0, data=[40, 79]),
   midi.NoteOffEvent(tick=240, channel=0, data=[40, 79]),
   midi.NoteOnEvent(tick=0, channel=0, data=[40, 79]),
   midi.NoteOffEvent(tick=240, channel=0, data=[40, 79]),
   midi.NoteOnEvent(tick=0, channel=0, data=[40, 79]),
   midi.NoteOffEvent(tick=240, channel=0, data=[40, 79]),
   midi.NoteOnEvent(tick=0, channel=0, data=[40, 79]),
   midi.NoteOffEvent(tick=240, channel=0, data=[40, 79]),
   midi.NoteOnEvent(tick=0, channel=0, data=[40, 79]),
   midi.NoteOffEvent(tick=240, channel=0, data=[40, 79]),
   midi.NoteOnEvent(tick=0, channel=0, data=[50, 95]),
   midi.NoteOnEvent(tick=0, channel=0, data=[40, 79]),
   midi.NoteOffEvent(tick=240, channel=0, data=[50, 95]),
   midi.NoteOffEvent(tick=0, channel=0, data=[40, 79]),
   midi.NoteOnEvent(tick=0, channel=0, data=[52, 70]),
   midi.NoteOffEvent(tick=240, channel=0, data=[52, 70]),
   midi.NoteOnEvent(tick=0, channel=0, data=[40, 79]),
   midi.NoteOffEvent(tick=240, channel=0, data=[40, 79]),
   midi.NoteOnEvent(tick=0, channel=0, data=[40, 79]),
   midi.NoteOffEvent(tick=240, channel=0, data=[40, 79]),
   midi.NoteOnEvent(tick=0, channel=0, data=[40, 79]),
   midi.NoteOffEvent(tick=240, channel=0, data=[40, 79]),
   midi.NoteOnEvent(tick=0, channel=0, data=[40, 79]),
   midi.NoteOffEvent(tick=240, channel=0, data=[40, 79]),
   midi.NoteOnEvent(tick=0, channel=0, data=[40, 79]),
   midi.NoteOffEvent(tick=240, channel=0, data=[40, 79]),
   midi.NoteOnEvent(tick=0, channel=0, data=[40, 79]),
   midi.NoteOffEvent(tick=240, channel=0, data=[40, 79]),
   midi.NoteOnEvent(tick=0, channel=0, data=[54, 79]),
   midi.NoteOnEvent(tick=0, channel=0, data=[47, 95]),
   midi.NoteOffEvent(tick=480, channel=0, data=[54, 79]),
   midi.NoteOffEvent(tick=0, channel=0, data=[47, 95]),
   midi.NoteOnEvent(tick=0, channel=0, data=[52, 79]),
   midi.NoteOnEvent(tick=0, channel=0, data=[45, 95]),
   midi.NoteOffEvent(tick=480, channel=0, data=[52, 79]),
   midi.NoteOffEvent(tick=0, channel=0, data=[45, 95]),
   midi.NoteOnEvent(tick=0, channel=0, data=[60, 79]),
   midi.NoteOnEvent(tick=0, channel=0, data=[53, 95]),
   midi.NoteOffEvent(tick=960, channel=0, data=[60, 79]),
   midi.NoteOffEvent(tick=0, channel=0, data=[53, 95]),
   midi.NoteOnEvent(tick=0, channel=0, data=[54, 79]),
   midi.NoteOnEvent(tick=0, channel=0, data=[47, 79]),
   midi.NoteOffEvent(tick=1920, channel=0, data=[54, 79]),
   midi.NoteOffEvent(tick=0, channel=0, data=[47, 79]),
   midi.NoteOnEvent(tick=0, channel=0, data=[47, 79]),
   midi.NoteOnEvent(tick=0, channel=0, data=[40, 79]),
   midi.NoteOffEvent(tick=1920, channel=0, data=[47, 79]),
   midi.NoteOffEvent(tick=0, channel=0, data=[40, 79]),
   midi.NoteOnEvent(tick=0, channel=0, data=[50, 95]),
   midi.NoteOnEvent(tick=0, channel=0, data=[43, 79]),
   midi.NoteOffEvent(tick=1920, channel=0, data=[50, 95]),
   midi.NoteOffEvent(tick=0, channel=0, data=[43, 79]),
   midi.NoteOnEvent(tick=0, channel=0, data=[49, 79]),
   midi.NoteOnEvent(tick=0, channel=0, data=[42, 79]),
   midi.NoteOffEvent(tick=1920, channel=0, data=[49, 79]),
   midi.NoteOffEvent(tick=0, channel=0, data=[42, 79]),
   midi.NoteOnEvent(tick=0, channel=0, data=[54, 79]),
   midi.NoteOnEvent(tick=0, channel=0, data=[47, 79]),
   midi.NoteOffEvent(tick=1920, channel=0, data=[54, 79]),
   midi.NoteOffEvent(tick=0, channel=0, data=[47, 79]),
   midi.NoteOnEvent(tick=0, channel=0, data=[47, 79]),
   midi.NoteOnEvent(tick=0, channel=0, data=[40, 79]),
   midi.NoteOffEvent(tick=1920, channel=0, data=[47, 79]),
   midi.NoteOffEvent(tick=0, channel=0, data=[40, 79]),
   midi.NoteOnEvent(tick=0, channel=0, data=[57, 79]),
   midi.NoteOnEvent(tick=0, channel=0, data=[50, 95]),
   midi.NoteOffEvent(tick=1920, channel=0, data=[57, 79]),
   midi.NoteOffEvent(tick=0, channel=0, data=[50, 95]),
   midi.NoteOnEvent(tick=0, channel=0, data=[56, 79]),
   midi.NoteOnEvent(tick=0, channel=0, data=[49, 79]),
   midi.NoteOffEvent(tick=1920, channel=0, data=[56, 79]),
   midi.NoteOffEvent(tick=0, channel=0, data=[49, 79]),
   midi.NoteOnEvent(tick=0, channel=0, data=[54, 79]),
   midi.NoteOnEvent(tick=0, channel=0, data=[47, 79]),
   midi.NoteOffEvent(tick=1920, channel=0, data=[54, 79]),
   midi.NoteOffEvent(tick=0, channel=0, data=[47, 79]),
   midi.NoteOnEvent(tick=0, channel=0, data=[47, 79]),
   midi.NoteOnEvent(tick=0, channel=0, data=[40, 79]),
   midi.NoteOffEvent(tick=1920, channel=0, data=[47, 79]),
   midi.NoteOffEvent(tick=0, channel=0, data=[40, 79]),
   midi.NoteOnEvent(tick=0, channel=0, data=[50, 95]),
   midi.NoteOnEvent(tick=0, channel=0, data=[43, 79]),
   midi.NoteOffEvent(tick=1920, channel=0, data=[50, 95]),
   midi.NoteOffEvent(tick=0, channel=0, data=[43, 79]),
   midi.NoteOnEvent(tick=0, channel=0, data=[49, 79]),
   midi.NoteOnEvent(tick=0, channel=0, data=[42, 79]),
   midi.NoteOffEvent(tick=1920, channel=0, data=[49, 79]),
   midi.NoteOffEvent(tick=0, channel=0, data=[42, 79]),
   midi.NoteOnEvent(tick=0, channel=0, data=[54, 79]),
   midi.NoteOnEvent(tick=0, channel=0, data=[47, 79]),
   midi.NoteOffEvent(tick=1920, channel=0, data=[54, 79]),
   midi.NoteOffEvent(tick=0, channel=0, data=[47, 79]),
   midi.NoteOnEvent(tick=0, channel=0, data=[47, 79]),
   midi.NoteOnEvent(tick=0, channel=0, data=[40, 79]),
   midi.NoteOffEvent(tick=1920, channel=0, data=[47, 79]),
   midi.NoteOffEvent(tick=0, channel=0, data=[40, 79]),
   midi.NoteOnEvent(tick=0, channel=0, data=[57, 79]),
   midi.NoteOnEvent(tick=0, channel=0, data=[50, 95]),
   midi.NoteOffEvent(tick=1920, channel=0, data=[57, 79]),
   midi.NoteOffEvent(tick=0, channel=0, data=[50, 95]),
   midi.NoteOnEvent(tick=0, channel=0, data=[59, 79]),
   midi.NoteOnEvent(tick=0, channel=0, data=[52, 95]),
   midi.NoteOffEvent(tick=1920, channel=0, data=[59, 79]),
   midi.NoteOffEvent(tick=0, channel=0, data=[52, 95]),
   midi.NoteOnEvent(tick=0, channel=0, data=[50, 95]),
   midi.NoteOnEvent(tick=0, channel=0, data=[40, 79]),
   midi.NoteOffEvent(tick=240, channel=0, data=[50, 95]),
   midi.NoteOffEvent(tick=0, channel=0, data=[40, 79]),
   midi.NoteOnEvent(tick=0, channel=0, data=[52, 70]),
   midi.NoteOffEvent(tick=240, channel=0, data=[52, 70]),
   midi.NoteOnEvent(tick=0, channel=0, data=[40, 79]),
   midi.NoteOffEvent(tick=240, channel=0, data=[40, 79]),
   midi.NoteOnEvent(tick=0, channel=0, data=[40, 79]),
   midi.NoteOffEvent(tick=240, channel=0, data=[40, 79]),
   midi.NoteOnEvent(tick=0, channel=0, data=[40, 79]),
   midi.NoteOffEvent(tick=240, channel=0, data=[40, 79]),
   midi.NoteOnEvent(tick=0, channel=0, data=[40, 79]),
   midi.NoteOffEvent(tick=240, channel=0, data=[40, 79]),
   midi.NoteOnEvent(tick=0, channel=0, data=[40, 79]),
   midi.NoteOffEvent(tick=240, channel=0, data=[40, 79]),
   midi.NoteOnEvent(tick=0, channel=0, data=[40, 79]),
   midi.NoteOffEvent(tick=240, channel=0, data=[40, 79]),
   midi.NoteOnEvent(tick=0, channel=0, data=[50, 95]),
   midi.NoteOnEvent(tick=0, channel=0, data=[40, 79]),
   midi.NoteOffEvent(tick=240, channel=0, data=[50, 95]),
   midi.NoteOffEvent(tick=0, channel=0, data=[40, 79]),
   midi.NoteOnEvent(tick=0, channel=0, data=[52, 70]),
   midi.NoteOffEvent(tick=240, channel=0, data=[52, 70]),
   midi.NoteOnEvent(tick=0, channel=0, data=[40, 79]),
   midi.NoteOffEvent(tick=240, channel=0, data=[40, 79]),
   midi.NoteOnEvent(tick=0, channel=0, data=[40, 79]),
   midi.NoteOffEvent(tick=240, channel=0, data=[40, 79]),
   midi.NoteOnEvent(tick=0, channel=0, data=[40, 79]),
   midi.NoteOffEvent(tick=240, channel=0, data=[40, 79]),
   midi.NoteOnEvent(tick=0, channel=0, data=[40, 79]),
   midi.NoteOffEvent(tick=240, channel=0, data=[40, 79]),
   midi.NoteOnEvent(tick=0, channel=0, data=[40, 79]),
   midi.NoteOffEvent(tick=240, channel=0, data=[40, 79]),
   midi.NoteOnEvent(tick=0, channel=0, data=[40, 79]),
   midi.NoteOffEvent(tick=240, channel=0, data=[40, 79]),
   midi.NoteOnEvent(tick=0, channel=0, data=[50, 95]),
   midi.NoteOnEvent(tick=0, channel=0, data=[40, 79]),
   midi.NoteOffEvent(tick=240, channel=0, data=[50, 95]),
   midi.NoteOffEvent(tick=0, channel=0, data=[40, 79]),
   midi.NoteOnEvent(tick=0, channel=0, data=[52, 70]),
   midi.NoteOffEvent(tick=240, channel=0, data=[52, 70]),
   midi.NoteOnEvent(tick=0, channel=0, data=[40, 79]),
   midi.NoteOffEvent(tick=240, channel=0, data=[40, 79]),
   midi.NoteOnEvent(tick=0, channel=0, data=[40, 79]),
   midi.NoteOffEvent(tick=240, channel=0, data=[40, 79]),
   midi.NoteOnEvent(tick=0, channel=0, data=[40, 79]),
   midi.NoteOffEvent(tick=240, channel=0, data=[40, 79]),
   midi.NoteOnEvent(tick=0, channel=0, data=[40, 79]),
   midi.NoteOffEvent(tick=240, channel=0, data=[40, 79]),
   midi.NoteOnEvent(tick=0, channel=0, data=[40, 79]),
   midi.NoteOffEvent(tick=240, channel=0, data=[40, 79]),
   midi.NoteOnEvent(tick=0, channel=0, data=[40, 79]),
   midi.NoteOffEvent(tick=240, channel=0, data=[40, 79]),
   midi.NoteOnEvent(tick=0, channel=0, data=[54, 79]),
   midi.NoteOnEvent(tick=0, channel=0, data=[47, 95]),
   midi.NoteOffEvent(tick=480, channel=0, data=[54, 79]),
   midi.NoteOffEvent(tick=0, channel=0, data=[47, 95]),
   midi.NoteOnEvent(tick=0, channel=0, data=[52, 79]),
   midi.NoteOnEvent(tick=0, channel=0, data=[45, 95]),
   midi.NoteOffEvent(tick=480, channel=0, data=[52, 79]),
   midi.NoteOffEvent(tick=0, channel=0, data=[45, 95]),
   midi.NoteOnEvent(tick=0, channel=0, data=[56, 79]),
   midi.NoteOnEvent(tick=0, channel=0, data=[49, 79]),
   midi.NoteOffEvent(tick=480, channel=0, data=[56, 79]),
   midi.NoteOffEvent(tick=0, channel=0, data=[49, 79]),
   midi.NoteOnEvent(tick=0, channel=0, data=[57, 79]),
   midi.NoteOnEvent(tick=0, channel=0, data=[50, 95]),
   midi.NoteOffEvent(tick=480, channel=0, data=[57, 79]),
   midi.NoteOffEvent(tick=0, channel=0, data=[50, 95]),
   midi.NoteOnEvent(tick=0, channel=0, data=[50, 95]),
   midi.NoteOnEvent(tick=0, channel=0, data=[40, 79]),
   midi.NoteOffEvent(tick=240, channel=0, data=[50, 95]),
   midi.NoteOffEvent(tick=0, channel=0, data=[40, 79]),
   midi.NoteOnEvent(tick=0, channel=0, data=[52, 70]),
   midi.NoteOffEvent(tick=240, channel=0, data=[52, 70]),
   midi.NoteOnEvent(tick=0, channel=0, data=[40, 79]),
   midi.NoteOffEvent(tick=240, channel=0, data=[40, 79]),
   midi.NoteOnEvent(tick=0, channel=0, data=[40, 79]),
   midi.NoteOffEvent(tick=240, channel=0, data=[40, 79]),
   midi.NoteOnEvent(tick=0, channel=0, data=[40, 79]),
   midi.NoteOffEvent(tick=240, channel=0, data=[40, 79]),
   midi.NoteOnEvent(tick=0, channel=0, data=[40, 79]),
   midi.NoteOffEvent(tick=240, channel=0, data=[40, 79]),
   midi.NoteOnEvent(tick=0, channel=0, data=[40, 79]),
   midi.NoteOffEvent(tick=240, channel=0, data=[40, 79]),
   midi.NoteOnEvent(tick=0, channel=0, data=[40, 79]),
   midi.NoteOffEvent(tick=240, channel=0, data=[40, 79]),
   midi.NoteOnEvent(tick=0, channel=0, data=[50, 95]),
   midi.NoteOnEvent(tick=0, channel=0, data=[40, 79]),
   midi.NoteOffEvent(tick=240, channel=0, data=[50, 95]),
   midi.NoteOffEvent(tick=0, channel=0, data=[40, 79]),
   midi.NoteOnEvent(tick=0, channel=0, data=[52, 70]),
   midi.NoteOffEvent(tick=240, channel=0, data=[52, 70]),
   midi.NoteOnEvent(tick=0, channel=0, data=[40, 79]),
   midi.NoteOffEvent(tick=240, channel=0, data=[40, 79]),
   midi.NoteOnEvent(tick=0, channel=0, data=[40, 79]),
   midi.NoteOffEvent(tick=240, channel=0, data=[40, 79]),
   midi.NoteOnEvent(tick=0, channel=0, data=[40, 79]),
   midi.NoteOffEvent(tick=240, channel=0, data=[40, 79]),
   midi.NoteOnEvent(tick=0, channel=0, data=[40, 79]),
   midi.NoteOffEvent(tick=240, channel=0, data=[40, 79]),
   midi.NoteOnEvent(tick=0, channel=0, data=[40, 79]),
   midi.NoteOffEvent(tick=240, channel=0, data=[40, 79]),
   midi.NoteOnEvent(tick=0, channel=0, data=[40, 79]),
   midi.NoteOffEvent(tick=240, channel=0, data=[40, 79]),
   midi.NoteOnEvent(tick=0, channel=0, data=[50, 95]),
   midi.NoteOnEvent(tick=0, channel=0, data=[40, 79]),
   midi.NoteOffEvent(tick=240, channel=0, data=[50, 95]),
   midi.NoteOffEvent(tick=0, channel=0, data=[40, 79]),
   midi.NoteOnEvent(tick=0, channel=0, data=[52, 70]),
   midi.NoteOffEvent(tick=240, channel=0, data=[52, 70]),
   midi.NoteOnEvent(tick=0, channel=0, data=[40, 79]),
   midi.NoteOffEvent(tick=240, channel=0, data=[40, 79]),
   midi.NoteOnEvent(tick=0, channel=0, data=[40, 79]),
   midi.NoteOffEvent(tick=240, channel=0, data=[40, 79]),
   midi.NoteOnEvent(tick=0, channel=0, data=[40, 79]),
   midi.NoteOffEvent(tick=240, channel=0, data=[40, 79]),
   midi.NoteOnEvent(tick=0, channel=0, data=[40, 79]),
   midi.NoteOffEvent(tick=240, channel=0, data=[40, 79]),
   midi.NoteOnEvent(tick=0, channel=0, data=[40, 79]),
   midi.NoteOffEvent(tick=240, channel=0, data=[40, 79]),
   midi.NoteOnEvent(tick=0, channel=0, data=[40, 79]),
   midi.NoteOffEvent(tick=240, channel=0, data=[40, 79]),
   midi.NoteOnEvent(tick=0, channel=0, data=[54, 79]),
   midi.NoteOnEvent(tick=0, channel=0, data=[47, 95]),
   midi.NoteOffEvent(tick=480, channel=0, data=[54, 79]),
   midi.NoteOffEvent(tick=0, channel=0, data=[47, 95]),
   midi.NoteOnEvent(tick=0, channel=0, data=[52, 79]),
   midi.NoteOnEvent(tick=0, channel=0, data=[45, 95]),
   midi.NoteOffEvent(tick=480, channel=0, data=[52, 79]),
   midi.NoteOffEvent(tick=0, channel=0, data=[45, 95]),
   midi.NoteOnEvent(tick=0, channel=0, data=[60, 79]),
   midi.NoteOnEvent(tick=0, channel=0, data=[53, 95]),
   midi.NoteOffEvent(tick=960, channel=0, data=[60, 79]),
   midi.NoteOffEvent(tick=0, channel=0, data=[53, 95]),
   midi.NoteOnEvent(tick=0, channel=0, data=[50, 95]),
   midi.NoteOnEvent(tick=0, channel=0, data=[40, 79]),
   midi.NoteOffEvent(tick=240, channel=0, data=[50, 95]),
   midi.NoteOffEvent(tick=0, channel=0, data=[40, 79]),
   midi.NoteOnEvent(tick=0, channel=0, data=[52, 70]),
   midi.NoteOffEvent(tick=240, channel=0, data=[52, 70]),
   midi.NoteOnEvent(tick=0, channel=0, data=[40, 79]),
   midi.NoteOffEvent(tick=240, channel=0, data=[40, 79]),
   midi.NoteOnEvent(tick=0, channel=0, data=[40, 79]),
   midi.NoteOffEvent(tick=240, channel=0, data=[40, 79]),
   midi.NoteOnEvent(tick=0, channel=0, data=[40, 79]),
   midi.NoteOffEvent(tick=240, channel=0, data=[40, 79]),
   midi.NoteOnEvent(tick=0, channel=0, data=[40, 79]),
   midi.NoteOffEvent(tick=240, channel=0, data=[40, 79]),
   midi.NoteOnEvent(tick=0, channel=0, data=[40, 79]),
   midi.NoteOffEvent(tick=240, channel=0, data=[40, 79]),
   midi.NoteOnEvent(tick=0, channel=0, data=[40, 79]),
   midi.NoteOffEvent(tick=240, channel=0, data=[40, 79]),
   midi.NoteOnEvent(tick=0, channel=0, data=[50, 95]),
   midi.NoteOnEvent(tick=0, channel=0, data=[40, 79]),
   midi.NoteOffEvent(tick=240, channel=0, data=[50, 95]),
   midi.NoteOffEvent(tick=0, channel=0, data=[40, 79]),
   midi.NoteOnEvent(tick=0, channel=0, data=[52, 70]),
   midi.NoteOffEvent(tick=240, channel=0, data=[52, 70]),
   midi.NoteOnEvent(tick=0, channel=0, data=[40, 79]),
   midi.NoteOffEvent(tick=240, channel=0, data=[40, 79]),
   midi.NoteOnEvent(tick=0, channel=0, data=[40, 79]),
   midi.NoteOffEvent(tick=240, channel=0, data=[40, 79]),
   midi.NoteOnEvent(tick=0, channel=0, data=[40, 79]),
   midi.NoteOffEvent(tick=240, channel=0, data=[40, 79]),
   midi.NoteOnEvent(tick=0, channel=0, data=[40, 79]),
   midi.NoteOffEvent(tick=240, channel=0, data=[40, 79]),
   midi.NoteOnEvent(tick=0, channel=0, data=[40, 79]),
   midi.NoteOffEvent(tick=240, channel=0, data=[40, 79]),
   midi.NoteOnEvent(tick=0, channel=0, data=[40, 79]),
   midi.NoteOffEvent(tick=240, channel=0, data=[40, 79]),
   midi.NoteOnEvent(tick=0, channel=0, data=[50, 95]),
   midi.NoteOnEvent(tick=0, channel=0, data=[40, 79]),
   midi.NoteOffEvent(tick=240, channel=0, data=[50, 95]),
   midi.NoteOffEvent(tick=0, channel=0, data=[40, 79]),
   midi.NoteOnEvent(tick=0, channel=0, data=[52, 70]),
   midi.NoteOffEvent(tick=240, channel=0, data=[52, 70]),
   midi.NoteOnEvent(tick=0, channel=0, data=[40, 79]),
   midi.NoteOffEvent(tick=240, channel=0, data=[40, 79]),
   midi.NoteOnEvent(tick=0, channel=0, data=[40, 79]),
   midi.NoteOffEvent(tick=240, channel=0, data=[40, 79]),
   midi.NoteOnEvent(tick=0, channel=0, data=[40, 79]),
   midi.NoteOffEvent(tick=240, channel=0, data=[40, 79]),
   midi.NoteOnEvent(tick=0, channel=0, data=[40, 79]),
   midi.NoteOffEvent(tick=240, channel=0, data=[40, 79]),
   midi.NoteOnEvent(tick=0, channel=0, data=[40, 79]),
   midi.NoteOffEvent(tick=240, channel=0, data=[40, 79]),
   midi.NoteOnEvent(tick=0, channel=0, data=[40, 79]),
   midi.NoteOffEvent(tick=240, channel=0, data=[40, 79]),
   midi.NoteOnEvent(tick=0, channel=0, data=[54, 79]),
   midi.NoteOnEvent(tick=0, channel=0, data=[47, 95]),
   midi.NoteOffEvent(tick=480, channel=0, data=[54, 79]),
   midi.NoteOffEvent(tick=0, channel=0, data=[47, 95]),
   midi.NoteOnEvent(tick=0, channel=0, data=[52, 79]),
   midi.NoteOnEvent(tick=0, channel=0, data=[45, 95]),
   midi.NoteOffEvent(tick=480, channel=0, data=[52, 79]),
   midi.NoteOffEvent(tick=0, channel=0, data=[45, 95]),
   midi.NoteOnEvent(tick=0, channel=0, data=[56, 79]),
   midi.NoteOnEvent(tick=0, channel=0, data=[49, 79]),
   midi.NoteOffEvent(tick=480, channel=0, data=[56, 79]),
   midi.NoteOffEvent(tick=0, channel=0, data=[49, 79]),
   midi.NoteOnEvent(tick=0, channel=0, data=[57, 79]),
   midi.NoteOnEvent(tick=0, channel=0, data=[50, 95]),
   midi.NoteOffEvent(tick=480, channel=0, data=[57, 79]),
   midi.NoteOffEvent(tick=0, channel=0, data=[50, 95]),
   midi.NoteOnEvent(tick=0, channel=0, data=[50, 95]),
   midi.NoteOnEvent(tick=0, channel=0, data=[40, 79]),
   midi.NoteOffEvent(tick=240, channel=0, data=[50, 95]),
   midi.NoteOffEvent(tick=0, channel=0, data=[40, 79]),
   midi.NoteOnEvent(tick=0, channel=0, data=[52, 70]),
   midi.NoteOffEvent(tick=240, channel=0, data=[52, 70]),
   midi.NoteOnEvent(tick=0, channel=0, data=[40, 79]),
   midi.NoteOffEvent(tick=240, channel=0, data=[40, 79]),
   midi.NoteOnEvent(tick=0, channel=0, data=[40, 79]),
   midi.NoteOffEvent(tick=240, channel=0, data=[40, 79]),
   midi.NoteOnEvent(tick=0, channel=0, data=[40, 79]),
   midi.NoteOffEvent(tick=240, channel=0, data=[40, 79]),
   midi.NoteOnEvent(tick=0, channel=0, data=[40, 79]),
   midi.NoteOffEvent(tick=240, channel=0, data=[40, 79]),
   midi.NoteOnEvent(tick=0, channel=0, data=[40, 79]),
   midi.NoteOffEvent(tick=240, channel=0, data=[40, 79]),
   midi.NoteOnEvent(tick=0, channel=0, data=[40, 79]),
   midi.NoteOffEvent(tick=240, channel=0, data=[40, 79]),
   midi.NoteOnEvent(tick=0, channel=0, data=[50, 95]),
   midi.NoteOnEvent(tick=0, channel=0, data=[40, 79]),
   midi.NoteOffEvent(tick=240, channel=0, data=[50, 95]),
   midi.NoteOffEvent(tick=0, channel=0, data=[40, 79]),
   midi.NoteOnEvent(tick=0, channel=0, data=[52, 70]),
   midi.NoteOffEvent(tick=240, channel=0, data=[52, 70]),
   midi.NoteOnEvent(tick=0, channel=0, data=[40, 79]),
   midi.NoteOffEvent(tick=240, channel=0, data=[40, 79]),
   midi.NoteOnEvent(tick=0, channel=0, data=[40, 79]),
   midi.NoteOffEvent(tick=240, channel=0, data=[40, 79]),
   midi.NoteOnEvent(tick=0, channel=0, data=[40, 79]),
   midi.NoteOffEvent(tick=240, channel=0, data=[40, 79]),
   midi.NoteOnEvent(tick=0, channel=0, data=[40, 79]),
   midi.NoteOffEvent(tick=240, channel=0, data=[40, 79]),
   midi.NoteOnEvent(tick=0, channel=0, data=[40, 79]),
   midi.NoteOffEvent(tick=240, channel=0, data=[40, 79]),
   midi.NoteOnEvent(tick=0, channel=0, data=[40, 79]),
   midi.NoteOffEvent(tick=240, channel=0, data=[40, 79]),
   midi.NoteOnEvent(tick=0, channel=0, data=[50, 95]),
   midi.NoteOnEvent(tick=0, channel=0, data=[40, 79]),
   midi.NoteOffEvent(tick=240, channel=0, data=[50, 95]),
   midi.NoteOffEvent(tick=0, channel=0, data=[40, 79]),
   midi.NoteOnEvent(tick=0, channel=0, data=[52, 70]),
   midi.NoteOffEvent(tick=240, channel=0, data=[52, 70]),
   midi.NoteOnEvent(tick=0, channel=0, data=[40, 79]),
   midi.NoteOffEvent(tick=240, channel=0, data=[40, 79]),
   midi.NoteOnEvent(tick=0, channel=0, data=[40, 79]),
   midi.NoteOffEvent(tick=240, channel=0, data=[40, 79]),
   midi.NoteOnEvent(tick=0, channel=0, data=[40, 79]),
   midi.NoteOffEvent(tick=240, channel=0, data=[40, 79]),
   midi.NoteOnEvent(tick=0, channel=0, data=[40, 79]),
   midi.NoteOffEvent(tick=240, channel=0, data=[40, 79]),
   midi.NoteOnEvent(tick=0, channel=0, data=[40, 79]),
   midi.NoteOffEvent(tick=240, channel=0, data=[40, 79]),
   midi.NoteOnEvent(tick=0, channel=0, data=[40, 79]),
   midi.NoteOffEvent(tick=240, channel=0, data=[40, 79]),
   midi.NoteOnEvent(tick=0, channel=0, data=[54, 79]),
   midi.NoteOnEvent(tick=0, channel=0, data=[47, 95]),
   midi.NoteOffEvent(tick=480, channel=0, data=[54, 79]),
   midi.NoteOffEvent(tick=0, channel=0, data=[47, 95]),
   midi.NoteOnEvent(tick=0, channel=0, data=[52, 79]),
   midi.NoteOnEvent(tick=0, channel=0, data=[45, 95]),
   midi.NoteOffEvent(tick=480, channel=0, data=[52, 79]),
   midi.NoteOffEvent(tick=0, channel=0, data=[45, 95]),
   midi.NoteOnEvent(tick=0, channel=0, data=[60, 79]),
   midi.NoteOnEvent(tick=0, channel=0, data=[53, 95]),
   midi.NoteOffEvent(tick=960, channel=0, data=[60, 79]),
   midi.NoteOffEvent(tick=0, channel=0, data=[53, 95]),
   midi.NoteOnEvent(tick=0, channel=0, data=[50, 95]),
   midi.NoteOnEvent(tick=0, channel=0, data=[40, 79]),
   midi.NoteOffEvent(tick=240, channel=0, data=[50, 95]),
   midi.NoteOffEvent(tick=0, channel=0, data=[40, 79]),
   midi.NoteOnEvent(tick=0, channel=0, data=[52, 70]),
   midi.NoteOffEvent(tick=240, channel=0, data=[52, 70]),
   midi.NoteOnEvent(tick=0, channel=0, data=[40, 79]),
   midi.NoteOffEvent(tick=240, channel=0, data=[40, 79]),
   midi.NoteOnEvent(tick=0, channel=0, data=[40, 79]),
   midi.NoteOffEvent(tick=240, channel=0, data=[40, 79]),
   midi.NoteOnEvent(tick=0, channel=0, data=[40, 79]),
   midi.NoteOffEvent(tick=240, channel=0, data=[40, 79]),
   midi.NoteOnEvent(tick=0, channel=0, data=[40, 79]),
   midi.NoteOffEvent(tick=240, channel=0, data=[40, 79]),
   midi.NoteOnEvent(tick=0, channel=0, data=[40, 79]),
   midi.NoteOffEvent(tick=240, channel=0, data=[40, 79]),
   midi.NoteOnEvent(tick=0, channel=0, data=[40, 79]),
   midi.NoteOffEvent(tick=240, channel=0, data=[40, 79]),
   midi.NoteOnEvent(tick=0, channel=0, data=[50, 95]),
   midi.NoteOnEvent(tick=0, channel=0, data=[40, 79]),
   midi.NoteOffEvent(tick=240, channel=0, data=[50, 95]),
   midi.NoteOffEvent(tick=0, channel=0, data=[40, 79]),
   midi.NoteOnEvent(tick=0, channel=0, data=[52, 70]),
   midi.NoteOffEvent(tick=240, channel=0, data=[52, 70]),
   midi.NoteOnEvent(tick=0, channel=0, data=[40, 79]),
   midi.NoteOffEvent(tick=240, channel=0, data=[40, 79]),
   midi.NoteOnEvent(tick=0, channel=0, data=[40, 79]),
   midi.NoteOffEvent(tick=240, channel=0, data=[40, 79]),
   midi.NoteOnEvent(tick=0, channel=0, data=[40, 79]),
   midi.NoteOffEvent(tick=240, channel=0, data=[40, 79]),
   midi.NoteOnEvent(tick=0, channel=0, data=[40, 79]),
   midi.NoteOffEvent(tick=240, channel=0, data=[40, 79]),
   midi.NoteOnEvent(tick=0, channel=0, data=[40, 79]),
   midi.NoteOffEvent(tick=240, channel=0, data=[40, 79]),
   midi.NoteOnEvent(tick=0, channel=0, data=[40, 79]),
   midi.NoteOffEvent(tick=240, channel=0, data=[40, 79]),
   midi.NoteOnEvent(tick=0, channel=0, data=[50, 95]),
   midi.NoteOnEvent(tick=0, channel=0, data=[40, 79]),
   midi.NoteOffEvent(tick=240, channel=0, data=[50, 95]),
   midi.NoteOffEvent(tick=0, channel=0, data=[40, 79]),
   midi.NoteOnEvent(tick=0, channel=0, data=[52, 70]),
   midi.NoteOffEvent(tick=240, channel=0, data=[52, 70]),
   midi.NoteOnEvent(tick=0, channel=0, data=[40, 79]),
   midi.NoteOffEvent(tick=240, channel=0, data=[40, 79]),
   midi.NoteOnEvent(tick=0, channel=0, data=[40, 79]),
   midi.NoteOffEvent(tick=240, channel=0, data=[40, 79]),
   midi.NoteOnEvent(tick=0, channel=0, data=[40, 79]),
   midi.NoteOffEvent(tick=240, channel=0, data=[40, 79]),
   midi.NoteOnEvent(tick=0, channel=0, data=[40, 79]),
   midi.NoteOffEvent(tick=240, channel=0, data=[40, 79]),
   midi.NoteOnEvent(tick=0, channel=0, data=[40, 79]),
   midi.NoteOffEvent(tick=240, channel=0, data=[40, 79]),
   midi.NoteOnEvent(tick=0, channel=0, data=[40, 79]),
   midi.NoteOffEvent(tick=240, channel=0, data=[40, 79]),
   midi.NoteOnEvent(tick=0, channel=0, data=[54, 79]),
   midi.NoteOnEvent(tick=0, channel=0, data=[47, 95]),
   midi.NoteOffEvent(tick=480, channel=0, data=[54, 79]),
   midi.NoteOffEvent(tick=0, channel=0, data=[47, 95]),
   midi.NoteOnEvent(tick=0, channel=0, data=[52, 79]),
   midi.NoteOnEvent(tick=0, channel=0, data=[45, 95]),
   midi.NoteOffEvent(tick=480, channel=0, data=[52, 79]),
   midi.NoteOffEvent(tick=0, channel=0, data=[45, 95]),
   midi.NoteOnEvent(tick=0, channel=0, data=[56, 79]),
   midi.NoteOnEvent(tick=0, channel=0, data=[49, 79]),
   midi.NoteOffEvent(tick=480, channel=0, data=[56, 79]),
   midi.NoteOffEvent(tick=0, channel=0, data=[49, 79]),
   midi.NoteOnEvent(tick=0, channel=0, data=[57, 79]),
   midi.NoteOnEvent(tick=0, channel=0, data=[50, 95]),
   midi.NoteOffEvent(tick=480, channel=0, data=[57, 79]),
   midi.NoteOffEvent(tick=0, channel=0, data=[50, 95]),
   midi.NoteOnEvent(tick=0, channel=0, data=[50, 95]),
   midi.NoteOnEvent(tick=0, channel=0, data=[40, 79]),
   midi.NoteOffEvent(tick=240, channel=0, data=[50, 95]),
   midi.NoteOffEvent(tick=0, channel=0, data=[40, 79]),
   midi.NoteOnEvent(tick=0, channel=0, data=[52, 70]),
   midi.NoteOffEvent(tick=240, channel=0, data=[52, 70]),
   midi.NoteOnEvent(tick=0, channel=0, data=[40, 79]),
   midi.NoteOffEvent(tick=240, channel=0, data=[40, 79]),
   midi.NoteOnEvent(tick=0, channel=0, data=[40, 79]),
   midi.NoteOffEvent(tick=240, channel=0, data=[40, 79]),
   midi.NoteOnEvent(tick=0, channel=0, data=[40, 79]),
   midi.NoteOffEvent(tick=240, channel=0, data=[40, 79]),
   midi.NoteOnEvent(tick=0, channel=0, data=[40, 79]),
   midi.NoteOffEvent(tick=240, channel=0, data=[40, 79]),
   midi.NoteOnEvent(tick=0, channel=0, data=[40, 79]),
   midi.NoteOffEvent(tick=240, channel=0, data=[40, 79]),
   midi.NoteOnEvent(tick=0, channel=0, data=[40, 79]),
   midi.NoteOffEvent(tick=240, channel=0, data=[40, 79]),
   midi.NoteOnEvent(tick=0, channel=0, data=[50, 95]),
   midi.NoteOnEvent(tick=0, channel=0, data=[40, 79]),
   midi.NoteOffEvent(tick=240, channel=0, data=[50, 95]),
   midi.NoteOffEvent(tick=0, channel=0, data=[40, 79]),
   midi.NoteOnEvent(tick=0, channel=0, data=[52, 70]),
   midi.NoteOffEvent(tick=240, channel=0, data=[52, 70]),
   midi.NoteOnEvent(tick=0, channel=0, data=[40, 79]),
   midi.NoteOffEvent(tick=240, channel=0, data=[40, 79]),
   midi.NoteOnEvent(tick=0, channel=0, data=[40, 79]),
   midi.NoteOffEvent(tick=240, channel=0, data=[40, 79]),
   midi.NoteOnEvent(tick=0, channel=0, data=[40, 79]),
   midi.NoteOffEvent(tick=240, channel=0, data=[40, 79]),
   midi.NoteOnEvent(tick=0, channel=0, data=[40, 79]),
   midi.NoteOffEvent(tick=240, channel=0, data=[40, 79]),
   midi.NoteOnEvent(tick=0, channel=0, data=[40, 79]),
   midi.NoteOffEvent(tick=240, channel=0, data=[40, 79]),
   midi.NoteOnEvent(tick=0, channel=0, data=[40, 79]),
   midi.NoteOffEvent(tick=240, channel=0, data=[40, 79]),
   midi.NoteOnEvent(tick=0, channel=0, data=[50, 95]),
   midi.NoteOnEvent(tick=0, channel=0, data=[40, 79]),
   midi.NoteOffEvent(tick=240, channel=0, data=[50, 95]),
   midi.NoteOffEvent(tick=0, channel=0, data=[40, 79]),
   midi.NoteOnEvent(tick=0, channel=0, data=[52, 70]),
   midi.NoteOffEvent(tick=240, channel=0, data=[52, 70]),
   midi.NoteOnEvent(tick=0, channel=0, data=[40, 79]),
   midi.NoteOffEvent(tick=240, channel=0, data=[40, 79]),
   midi.NoteOnEvent(tick=0, channel=0, data=[40, 79]),
   midi.NoteOffEvent(tick=240, channel=0, data=[40, 79]),
   midi.NoteOnEvent(tick=0, channel=0, data=[40, 79]),
   midi.NoteOffEvent(tick=240, channel=0, data=[40, 79]),
   midi.NoteOnEvent(tick=0, channel=0, data=[40, 79]),
   midi.NoteOffEvent(tick=240, channel=0, data=[40, 79]),
   midi.NoteOnEvent(tick=0, channel=0, data=[40, 79]),
   midi.NoteOffEvent(tick=240, channel=0, data=[40, 79]),
   midi.NoteOnEvent(tick=0, channel=0, data=[40, 79]),
   midi.NoteOffEvent(tick=240, channel=0, data=[40, 79]),
   midi.NoteOnEvent(tick=0, channel=0, data=[54, 79]),
   midi.NoteOnEvent(tick=0, channel=0, data=[47, 95]),
   midi.NoteOffEvent(tick=480, channel=0, data=[54, 79]),
   midi.NoteOffEvent(tick=0, channel=0, data=[47, 95]),
   midi.NoteOnEvent(tick=0, channel=0, data=[52, 79]),
   midi.NoteOnEvent(tick=0, channel=0, data=[45, 95]),
   midi.NoteOffEvent(tick=480, channel=0, data=[52, 79]),
   midi.NoteOffEvent(tick=0, channel=0, data=[45, 95]),
   midi.NoteOnEvent(tick=0, channel=0, data=[60, 79]),
   midi.NoteOnEvent(tick=0, channel=0, data=[53, 95]),
   midi.NoteOffEvent(tick=960, channel=0, data=[60, 79]),
   midi.NoteOffEvent(tick=0, channel=0, data=[53, 95]),
   midi.NoteOnEvent(tick=0, channel=0, data=[50, 95]),
   midi.NoteOnEvent(tick=0, channel=0, data=[40, 79]),
   midi.NoteOffEvent(tick=240, channel=0, data=[50, 95]),
   midi.NoteOffEvent(tick=0, channel=0, data=[40, 79]),
   midi.NoteOnEvent(tick=0, channel=0, data=[52, 70]),
   midi.NoteOffEvent(tick=240, channel=0, data=[52, 70]),
   midi.NoteOnEvent(tick=0, channel=0, data=[40, 79]),
   midi.NoteOffEvent(tick=240, channel=0, data=[40, 79]),
   midi.NoteOnEvent(tick=0, channel=0, data=[40, 79]),
   midi.NoteOffEvent(tick=240, channel=0, data=[40, 79]),
   midi.NoteOnEvent(tick=0, channel=0, data=[40, 79]),
   midi.NoteOffEvent(tick=240, channel=0, data=[40, 79]),
   midi.NoteOnEvent(tick=0, channel=0, data=[40, 79]),
   midi.NoteOffEvent(tick=240, channel=0, data=[40, 79]),
   midi.NoteOnEvent(tick=0, channel=0, data=[40, 79]),
   midi.NoteOffEvent(tick=240, channel=0, data=[40, 79]),
   midi.NoteOnEvent(tick=0, channel=0, data=[40, 79]),
   midi.NoteOffEvent(tick=240, channel=0, data=[40, 79]),
   midi.NoteOnEvent(tick=0, channel=0, data=[50, 95]),
   midi.NoteOnEvent(tick=0, channel=0, data=[40, 79]),
   midi.NoteOffEvent(tick=240, channel=0, data=[50, 95]),
   midi.NoteOffEvent(tick=0, channel=0, data=[40, 79]),
   midi.NoteOnEvent(tick=0, channel=0, data=[52, 70]),
   midi.NoteOffEvent(tick=240, channel=0, data=[52, 70]),
   midi.NoteOnEvent(tick=0, channel=0, data=[40, 79]),
   midi.NoteOffEvent(tick=240, channel=0, data=[40, 79]),
   midi.NoteOnEvent(tick=0, channel=0, data=[40, 79]),
   midi.NoteOffEvent(tick=240, channel=0, data=[40, 79]),
   midi.NoteOnEvent(tick=0, channel=0, data=[40, 79]),
   midi.NoteOffEvent(tick=240, channel=0, data=[40, 79]),
   midi.NoteOnEvent(tick=0, channel=0, data=[40, 79]),
   midi.NoteOffEvent(tick=240, channel=0, data=[40, 79]),
   midi.NoteOnEvent(tick=0, channel=0, data=[40, 79]),
   midi.NoteOffEvent(tick=240, channel=0, data=[40, 79]),
   midi.NoteOnEvent(tick=0, channel=0, data=[40, 79]),
   midi.NoteOffEvent(tick=240, channel=0, data=[40, 79]),
   midi.NoteOnEvent(tick=0, channel=0, data=[50, 95]),
   midi.NoteOnEvent(tick=0, channel=0, data=[40, 79]),
   midi.NoteOffEvent(tick=240, channel=0, data=[50, 95]),
   midi.NoteOffEvent(tick=0, channel=0, data=[40, 79]),
   midi.NoteOnEvent(tick=0, channel=0, data=[52, 70]),
   midi.NoteOffEvent(tick=240, channel=0, data=[52, 70]),
   midi.NoteOnEvent(tick=0, channel=0, data=[40, 79]),
   midi.NoteOffEvent(tick=240, channel=0, data=[40, 79]),
   midi.NoteOnEvent(tick=0, channel=0, data=[40, 79]),
   midi.NoteOffEvent(tick=240, channel=0, data=[40, 79]),
   midi.NoteOnEvent(tick=0, channel=0, data=[40, 79]),
   midi.NoteOffEvent(tick=240, channel=0, data=[40, 79]),
   midi.NoteOnEvent(tick=0, channel=0, data=[40, 79]),
   midi.NoteOffEvent(tick=240, channel=0, data=[40, 79]),
   midi.NoteOnEvent(tick=0, channel=0, data=[40, 79]),
   midi.NoteOffEvent(tick=240, channel=0, data=[40, 79]),
   midi.NoteOnEvent(tick=0, channel=0, data=[40, 79]),
   midi.NoteOffEvent(tick=240, channel=0, data=[40, 79]),
   midi.NoteOnEvent(tick=0, channel=0, data=[54, 79]),
   midi.NoteOnEvent(tick=0, channel=0, data=[47, 95]),
   midi.NoteOffEvent(tick=480, channel=0, data=[54, 79]),
   midi.NoteOffEvent(tick=0, channel=0, data=[47, 95]),
   midi.NoteOnEvent(tick=0, channel=0, data=[52, 79]),
   midi.NoteOnEvent(tick=0, channel=0, data=[45, 95]),
   midi.NoteOffEvent(tick=480, channel=0, data=[52, 79]),
   midi.NoteOffEvent(tick=0, channel=0, data=[45, 95]),
   midi.NoteOnEvent(tick=0, channel=0, data=[56, 79]),
   midi.NoteOnEvent(tick=0, channel=0, data=[49, 79]),
   midi.NoteOffEvent(tick=480, channel=0, data=[56, 79]),
   midi.NoteOffEvent(tick=0, channel=0, data=[49, 79]),
   midi.NoteOnEvent(tick=0, channel=0, data=[57, 79]),
   midi.NoteOnEvent(tick=0, channel=0, data=[50, 95]),
   midi.NoteOffEvent(tick=480, channel=0, data=[57, 79]),
   midi.NoteOffEvent(tick=0, channel=0, data=[50, 95]),
   midi.NoteOnEvent(tick=0, channel=0, data=[50, 95]),
   midi.NoteOnEvent(tick=0, channel=0, data=[40, 79]),
   midi.NoteOffEvent(tick=240, channel=0, data=[50, 95]),
   midi.NoteOffEvent(tick=0, channel=0, data=[40, 79]),
   midi.NoteOnEvent(tick=0, channel=0, data=[52, 70]),
   midi.NoteOffEvent(tick=240, channel=0, data=[52, 70]),
   midi.NoteOnEvent(tick=0, channel=0, data=[40, 79]),
   midi.NoteOffEvent(tick=240, channel=0, data=[40, 79]),
   midi.NoteOnEvent(tick=0, channel=0, data=[40, 79]),
   midi.NoteOffEvent(tick=240, channel=0, data=[40, 79]),
   midi.NoteOnEvent(tick=0, channel=0, data=[40, 79]),
   midi.NoteOffEvent(tick=240, channel=0, data=[40, 79]),
   midi.NoteOnEvent(tick=0, channel=0, data=[40, 79]),
   midi.NoteOffEvent(tick=240, channel=0, data=[40, 79]),
   midi.NoteOnEvent(tick=0, channel=0, data=[40, 79]),
   midi.NoteOffEvent(tick=240, channel=0, data=[40, 79]),
   midi.NoteOnEvent(tick=0, channel=0, data=[40, 79]),
   midi.NoteOffEvent(tick=240, channel=0, data=[40, 79]),
   midi.NoteOnEvent(tick=0, channel=0, data=[50, 95]),
   midi.NoteOnEvent(tick=0, channel=0, data=[40, 79]),
   midi.NoteOffEvent(tick=240, channel=0, data=[50, 95]),
   midi.NoteOffEvent(tick=0, channel=0, data=[40, 79]),
   midi.NoteOnEvent(tick=0, channel=0, data=[52, 70]),
   midi.NoteOffEvent(tick=240, channel=0, data=[52, 70]),
   midi.NoteOnEvent(tick=0, channel=0, data=[40, 79]),
   midi.NoteOffEvent(tick=240, channel=0, data=[40, 79]),
   midi.NoteOnEvent(tick=0, channel=0, data=[40, 79]),
   midi.NoteOffEvent(tick=240, channel=0, data=[40, 79]),
   midi.NoteOnEvent(tick=0, channel=0, data=[40, 79]),
   midi.NoteOffEvent(tick=240, channel=0, data=[40, 79]),
   midi.NoteOnEvent(tick=0, channel=0, data=[40, 79]),
   midi.NoteOffEvent(tick=240, channel=0, data=[40, 79]),
   midi.NoteOnEvent(tick=0, channel=0, data=[40, 79]),
   midi.NoteOffEvent(tick=240, channel=0, data=[40, 79]),
   midi.NoteOnEvent(tick=0, channel=0, data=[40, 79]),
   midi.NoteOffEvent(tick=240, channel=0, data=[40, 79]),
   midi.NoteOnEvent(tick=0, channel=0, data=[50, 95]),
   midi.NoteOnEvent(tick=0, channel=0, data=[40, 79]),
   midi.NoteOffEvent(tick=240, channel=0, data=[50, 95]),
   midi.NoteOffEvent(tick=0, channel=0, data=[40, 79]),
   midi.NoteOnEvent(tick=0, channel=0, data=[52, 70]),
   midi.NoteOffEvent(tick=240, channel=0, data=[52, 70]),
   midi.NoteOnEvent(tick=0, channel=0, data=[40, 79]),
   midi.NoteOffEvent(tick=240, channel=0, data=[40, 79]),
   midi.NoteOnEvent(tick=0, channel=0, data=[40, 79]),
   midi.NoteOffEvent(tick=240, channel=0, data=[40, 79]),
   midi.NoteOnEvent(tick=0, channel=0, data=[40, 79]),
   midi.NoteOffEvent(tick=240, channel=0, data=[40, 79]),
   midi.NoteOnEvent(tick=0, channel=0, data=[40, 79]),
   midi.NoteOffEvent(tick=240, channel=0, data=[40, 79]),
   midi.NoteOnEvent(tick=0, channel=0, data=[40, 79]),
   midi.NoteOffEvent(tick=240, channel=0, data=[40, 79]),
   midi.NoteOnEvent(tick=0, channel=0, data=[40, 79]),
   midi.NoteOffEvent(tick=240, channel=0, data=[40, 79]),
   midi.NoteOnEvent(tick=0, channel=0, data=[54, 79]),
   midi.NoteOnEvent(tick=0, channel=0, data=[47, 95]),
   midi.NoteOffEvent(tick=480, channel=0, data=[54, 79]),
   midi.NoteOffEvent(tick=0, channel=0, data=[47, 95]),
   midi.NoteOnEvent(tick=0, channel=0, data=[52, 79]),
   midi.NoteOnEvent(tick=0, channel=0, data=[45, 95]),
   midi.NoteOffEvent(tick=480, channel=0, data=[52, 79]),
   midi.NoteOffEvent(tick=0, channel=0, data=[45, 95]),
   midi.NoteOnEvent(tick=0, channel=0, data=[60, 79]),
   midi.NoteOnEvent(tick=0, channel=0, data=[53, 95]),
   midi.NoteOffEvent(tick=960, channel=0, data=[60, 79]),
   midi.NoteOffEvent(tick=0, channel=0, data=[53, 95]),
   midi.NoteOnEvent(tick=0, channel=0, data=[47, 95]),
   midi.NoteOffEvent(tick=240, channel=0, data=[47, 95]),
   midi.NoteOnEvent(tick=0, channel=0, data=[47, 95]),
   midi.NoteOffEvent(tick=240, channel=0, data=[47, 95]),
   midi.NoteOnEvent(tick=0, channel=0, data=[47, 95]),
   midi.NoteOffEvent(tick=240, channel=0, data=[47, 95]),
   midi.NoteOnEvent(tick=0, channel=0, data=[47, 95]),
   midi.NoteOffEvent(tick=240, channel=0, data=[47, 95]),
   midi.NoteOnEvent(tick=0, channel=0, data=[47, 95]),
   midi.NoteOffEvent(tick=240, channel=0, data=[47, 95]),
   midi.NoteOnEvent(tick=0, channel=0, data=[47, 95]),
   midi.NoteOffEvent(tick=240, channel=0, data=[47, 95]),
   midi.NoteOnEvent(tick=0, channel=0, data=[47, 95]),
   midi.NoteOffEvent(tick=240, channel=0, data=[47, 95]),
   midi.NoteOnEvent(tick=0, channel=0, data=[47, 95]),
   midi.NoteOffEvent(tick=240, channel=0, data=[47, 95]),
   midi.NoteOnEvent(tick=0, channel=0, data=[47, 95]),
   midi.NoteOffEvent(tick=240, channel=0, data=[47, 95]),
   midi.NoteOnEvent(tick=0, channel=0, data=[47, 95]),
   midi.NoteOffEvent(tick=240, channel=0, data=[47, 95]),
   midi.NoteOnEvent(tick=0, channel=0, data=[47, 95]),
   midi.NoteOffEvent(tick=240, channel=0, data=[47, 95]),
   midi.NoteOnEvent(tick=0, channel=0, data=[47, 95]),
   midi.NoteOffEvent(tick=240, channel=0, data=[47, 95]),
   midi.NoteOnEvent(tick=0, channel=0, data=[47, 95]),
   midi.NoteOffEvent(tick=240, channel=0, data=[47, 95]),
   midi.NoteOnEvent(tick=0, channel=0, data=[47, 95]),
   midi.NoteOffEvent(tick=240, channel=0, data=[47, 95]),
   midi.NoteOnEvent(tick=0, channel=0, data=[47, 95]),
   midi.NoteOffEvent(tick=240, channel=0, data=[47, 95]),
   midi.NoteOnEvent(tick=0, channel=0, data=[47, 95]),
   midi.NoteOffEvent(tick=240, channel=0, data=[47, 95]),
   midi.NoteOnEvent(tick=0, channel=0, data=[47, 95]),
   midi.NoteOffEvent(tick=240, channel=0, data=[47, 95]),
   midi.NoteOnEvent(tick=0, channel=0, data=[47, 95]),
   midi.NoteOffEvent(tick=240, channel=0, data=[47, 95]),
   midi.NoteOnEvent(tick=0, channel=0, data=[47, 95]),
   midi.NoteOffEvent(tick=240, channel=0, data=[47, 95]),
   midi.NoteOnEvent(tick=0, channel=0, data=[47, 95]),
   midi.NoteOffEvent(tick=240, channel=0, data=[47, 95]),
   midi.NoteOnEvent(tick=0, channel=0, data=[47, 95]),
   midi.NoteOffEvent(tick=240, channel=0, data=[47, 95]),
   midi.NoteOnEvent(tick=0, channel=0, data=[47, 95]),
   midi.NoteOffEvent(tick=240, channel=0, data=[47, 95]),
   midi.NoteOnEvent(tick=0, channel=0, data=[47, 95]),
   midi.NoteOffEvent(tick=240, channel=0, data=[47, 95]),
   midi.NoteOnEvent(tick=0, channel=0, data=[47, 95]),
   midi.NoteOffEvent(tick=240, channel=0, data=[47, 95]),
   midi.NoteOnEvent(tick=0, channel=0, data=[59, 79]),
   midi.NoteOnEvent(tick=0, channel=0, data=[52, 95]),
   midi.NoteOffEvent(tick=480, channel=0, data=[59, 79]),
   midi.NoteOffEvent(tick=0, channel=0, data=[52, 95]),
   midi.NoteOnEvent(tick=0, channel=0, data=[57, 79]),
   midi.NoteOnEvent(tick=0, channel=0, data=[50, 95]),
   midi.NoteOffEvent(tick=480, channel=0, data=[57, 79]),
   midi.NoteOffEvent(tick=0, channel=0, data=[50, 95]),
   midi.NoteOnEvent(tick=0, channel=0, data=[59, 79]),
   midi.NoteOnEvent(tick=0, channel=0, data=[52, 95]),
   midi.NoteOffEvent(tick=480, channel=0, data=[59, 79]),
   midi.NoteOffEvent(tick=0, channel=0, data=[52, 95]),
   midi.NoteOnEvent(tick=0, channel=0, data=[60, 79]),
   midi.NoteOnEvent(tick=0, channel=0, data=[53, 95]),
   midi.NoteOffEvent(tick=480, channel=0, data=[60, 79]),
   midi.NoteOffEvent(tick=0, channel=0, data=[53, 95]),
   midi.NoteOnEvent(tick=0, channel=0, data=[47, 95]),
   midi.NoteOffEvent(tick=240, channel=0, data=[47, 95]),
   midi.NoteOnEvent(tick=0, channel=0, data=[47, 95]),
   midi.NoteOffEvent(tick=240, channel=0, data=[47, 95]),
   midi.NoteOnEvent(tick=0, channel=0, data=[47, 95]),
   midi.NoteOffEvent(tick=240, channel=0, data=[47, 95]),
   midi.NoteOnEvent(tick=0, channel=0, data=[47, 95]),
   midi.NoteOffEvent(tick=240, channel=0, data=[47, 95]),
   midi.NoteOnEvent(tick=0, channel=0, data=[47, 95]),
   midi.NoteOffEvent(tick=240, channel=0, data=[47, 95]),
   midi.NoteOnEvent(tick=0, channel=0, data=[47, 95]),
   midi.NoteOffEvent(tick=240, channel=0, data=[47, 95]),
   midi.NoteOnEvent(tick=0, channel=0, data=[47, 95]),
   midi.NoteOffEvent(tick=240, channel=0, data=[47, 95]),
   midi.NoteOnEvent(tick=0, channel=0, data=[47, 95]),
   midi.NoteOffEvent(tick=240, channel=0, data=[47, 95]),
   midi.NoteOnEvent(tick=0, channel=0, data=[47, 95]),
   midi.NoteOffEvent(tick=240, channel=0, data=[47, 95]),
   midi.NoteOnEvent(tick=0, channel=0, data=[47, 95]),
   midi.NoteOffEvent(tick=240, channel=0, data=[47, 95]),
   midi.NoteOnEvent(tick=0, channel=0, data=[47, 95]),
   midi.NoteOffEvent(tick=240, channel=0, data=[47, 95]),
   midi.NoteOnEvent(tick=0, channel=0, data=[47, 95]),
   midi.NoteOffEvent(tick=240, channel=0, data=[47, 95]),
   midi.NoteOnEvent(tick=0, channel=0, data=[47, 95]),
   midi.NoteOffEvent(tick=240, channel=0, data=[47, 95]),
   midi.NoteOnEvent(tick=0, channel=0, data=[47, 95]),
   midi.NoteOffEvent(tick=240, channel=0, data=[47, 95]),
   midi.NoteOnEvent(tick=0, channel=0, data=[47, 95]),
   midi.NoteOffEvent(tick=240, channel=0, data=[47, 95]),
   midi.NoteOnEvent(tick=0, channel=0, data=[47, 95]),
   midi.NoteOffEvent(tick=240, channel=0, data=[47, 95]),
   midi.NoteOnEvent(tick=0, channel=0, data=[47, 95]),
   midi.NoteOffEvent(tick=240, channel=0, data=[47, 95]),
   midi.NoteOnEvent(tick=0, channel=0, data=[47, 95]),
   midi.NoteOffEvent(tick=240, channel=0, data=[47, 95]),
   midi.NoteOnEvent(tick=0, channel=0, data=[47, 95]),
   midi.NoteOffEvent(tick=240, channel=0, data=[47, 95]),
   midi.NoteOnEvent(tick=0, channel=0, data=[47, 95]),
   midi.NoteOffEvent(tick=240, channel=0, data=[47, 95]),
   midi.NoteOnEvent(tick=0, channel=0, data=[47, 95]),
   midi.NoteOffEvent(tick=240, channel=0, data=[47, 95]),
   midi.NoteOnEvent(tick=0, channel=0, data=[47, 95]),
   midi.NoteOffEvent(tick=240, channel=0, data=[47, 95]),
   midi.NoteOnEvent(tick=0, channel=0, data=[47, 95]),
   midi.NoteOffEvent(tick=240, channel=0, data=[47, 95]),
   midi.NoteOnEvent(tick=0, channel=0, data=[47, 95]),
   midi.NoteOffEvent(tick=240, channel=0, data=[47, 95]),
   midi.NoteOnEvent(tick=0, channel=0, data=[59, 79]),
   midi.NoteOnEvent(tick=0, channel=0, data=[52, 95]),
   midi.NoteOffEvent(tick=480, channel=0, data=[59, 79]),
   midi.NoteOffEvent(tick=0, channel=0, data=[52, 95]),
   midi.NoteOnEvent(tick=0, channel=0, data=[57, 79]),
   midi.NoteOnEvent(tick=0, channel=0, data=[50, 95]),
   midi.NoteOffEvent(tick=480, channel=0, data=[57, 79]),
   midi.NoteOffEvent(tick=0, channel=0, data=[50, 95]),
   midi.NoteOnEvent(tick=0, channel=0, data=[62, 95]),
   midi.NoteOnEvent(tick=0, channel=0, data=[55, 95]),
   midi.NoteOffEvent(tick=960, channel=0, data=[62, 95]),
   midi.NoteOffEvent(tick=0, channel=0, data=[55, 95]),
   midi.NoteOnEvent(tick=0, channel=0, data=[47, 95]),
   midi.NoteOffEvent(tick=240, channel=0, data=[47, 95]),
   midi.NoteOnEvent(tick=0, channel=0, data=[47, 95]),
   midi.NoteOffEvent(tick=240, channel=0, data=[47, 95]),
   midi.NoteOnEvent(tick=0, channel=0, data=[47, 95]),
   midi.NoteOffEvent(tick=240, channel=0, data=[47, 95]),
   midi.NoteOnEvent(tick=0, channel=0, data=[47, 95]),
   midi.NoteOffEvent(tick=240, channel=0, data=[47, 95]),
   midi.NoteOnEvent(tick=0, channel=0, data=[47, 95]),
   midi.NoteOffEvent(tick=240, channel=0, data=[47, 95]),
   midi.NoteOnEvent(tick=0, channel=0, data=[47, 95]),
   midi.NoteOffEvent(tick=240, channel=0, data=[47, 95]),
   midi.NoteOnEvent(tick=0, channel=0, data=[47, 95]),
   midi.NoteOffEvent(tick=240, channel=0, data=[47, 95]),
   midi.NoteOnEvent(tick=0, channel=0, data=[47, 95]),
   midi.NoteOffEvent(tick=240, channel=0, data=[47, 95]),
   midi.NoteOnEvent(tick=0, channel=0, data=[47, 95]),
   midi.NoteOffEvent(tick=240, channel=0, data=[47, 95]),
   midi.NoteOnEvent(tick=0, channel=0, data=[47, 95]),
   midi.NoteOffEvent(tick=240, channel=0, data=[47, 95]),
   midi.NoteOnEvent(tick=0, channel=0, data=[47, 95]),
   midi.NoteOffEvent(tick=240, channel=0, data=[47, 95]),
   midi.NoteOnEvent(tick=0, channel=0, data=[47, 95]),
   midi.NoteOffEvent(tick=240, channel=0, data=[47, 95]),
   midi.NoteOnEvent(tick=0, channel=0, data=[47, 95]),
   midi.NoteOffEvent(tick=240, channel=0, data=[47, 95]),
   midi.NoteOnEvent(tick=0, channel=0, data=[47, 95]),
   midi.NoteOffEvent(tick=240, channel=0, data=[47, 95]),
   midi.NoteOnEvent(tick=0, channel=0, data=[47, 95]),
   midi.NoteOffEvent(tick=240, channel=0, data=[47, 95]),
   midi.NoteOnEvent(tick=0, channel=0, data=[47, 95]),
   midi.NoteOffEvent(tick=240, channel=0, data=[47, 95]),
   midi.NoteOnEvent(tick=0, channel=0, data=[47, 95]),
   midi.NoteOffEvent(tick=240, channel=0, data=[47, 95]),
   midi.NoteOnEvent(tick=0, channel=0, data=[47, 95]),
   midi.NoteOffEvent(tick=240, channel=0, data=[47, 95]),
   midi.NoteOnEvent(tick=0, channel=0, data=[47, 95]),
   midi.NoteOffEvent(tick=240, channel=0, data=[47, 95]),
   midi.NoteOnEvent(tick=0, channel=0, data=[47, 95]),
   midi.NoteOffEvent(tick=240, channel=0, data=[47, 95]),
   midi.NoteOnEvent(tick=0, channel=0, data=[47, 95]),
   midi.NoteOffEvent(tick=240, channel=0, data=[47, 95]),
   midi.NoteOnEvent(tick=0, channel=0, data=[47, 95]),
   midi.NoteOffEvent(tick=240, channel=0, data=[47, 95]),
   midi.NoteOnEvent(tick=0, channel=0, data=[47, 95]),
   midi.NoteOffEvent(tick=240, channel=0, data=[47, 95]),
   midi.NoteOnEvent(tick=0, channel=0, data=[47, 95]),
   midi.NoteOffEvent(tick=240, channel=0, data=[47, 95]),
   midi.NoteOnEvent(tick=0, channel=0, data=[59, 79]),
   midi.NoteOnEvent(tick=0, channel=0, data=[52, 95]),
   midi.NoteOffEvent(tick=480, channel=0, data=[59, 79]),
   midi.NoteOffEvent(tick=0, channel=0, data=[52, 95]),
   midi.NoteOnEvent(tick=0, channel=0, data=[57, 79]),
   midi.NoteOnEvent(tick=0, channel=0, data=[50, 95]),
   midi.NoteOffEvent(tick=480, channel=0, data=[57, 79]),
   midi.NoteOffEvent(tick=0, channel=0, data=[50, 95]),
   midi.NoteOnEvent(tick=0, channel=0, data=[59, 79]),
   midi.NoteOnEvent(tick=0, channel=0, data=[52, 95]),
   midi.NoteOffEvent(tick=480, channel=0, data=[59, 79]),
   midi.NoteOffEvent(tick=0, channel=0, data=[52, 95]),
   midi.NoteOnEvent(tick=0, channel=0, data=[60, 79]),
   midi.NoteOnEvent(tick=0, channel=0, data=[53, 95]),
   midi.NoteOffEvent(tick=480, channel=0, data=[60, 79]),
   midi.NoteOffEvent(tick=0, channel=0, data=[53, 95]),
   midi.NoteOnEvent(tick=0, channel=0, data=[47, 95]),
   midi.NoteOffEvent(tick=240, channel=0, data=[47, 95]),
   midi.NoteOnEvent(tick=0, channel=0, data=[47, 95]),
   midi.NoteOffEvent(tick=240, channel=0, data=[47, 95]),
   midi.NoteOnEvent(tick=0, channel=0, data=[47, 95]),
   midi.NoteOffEvent(tick=240, channel=0, data=[47, 95]),
   midi.NoteOnEvent(tick=0, channel=0, data=[47, 95]),
   midi.NoteOffEvent(tick=240, channel=0, data=[47, 95]),
   midi.NoteOnEvent(tick=0, channel=0, data=[47, 95]),
   midi.NoteOffEvent(tick=240, channel=0, data=[47, 95]),
   midi.NoteOnEvent(tick=0, channel=0, data=[47, 95]),
   midi.NoteOffEvent(tick=240, channel=0, data=[47, 95]),
   midi.NoteOnEvent(tick=0, channel=0, data=[47, 95]),
   midi.NoteOffEvent(tick=240, channel=0, data=[47, 95]),
   midi.NoteOnEvent(tick=0, channel=0, data=[47, 95]),
   midi.NoteOffEvent(tick=240, channel=0, data=[47, 95]),
   midi.NoteOnEvent(tick=0, channel=0, data=[47, 95]),
   midi.NoteOffEvent(tick=240, channel=0, data=[47, 95]),
   midi.NoteOnEvent(tick=0, channel=0, data=[47, 95]),
   midi.NoteOffEvent(tick=240, channel=0, data=[47, 95]),
   midi.NoteOnEvent(tick=0, channel=0, data=[47, 95]),
   midi.NoteOffEvent(tick=240, channel=0, data=[47, 95]),
   midi.NoteOnEvent(tick=0, channel=0, data=[47, 95]),
   midi.NoteOffEvent(tick=240, channel=0, data=[47, 95]),
   midi.NoteOnEvent(tick=0, channel=0, data=[47, 95]),
   midi.NoteOffEvent(tick=240, channel=0, data=[47, 95]),
   midi.NoteOnEvent(tick=0, channel=0, data=[47, 95]),
   midi.NoteOffEvent(tick=240, channel=0, data=[47, 95]),
   midi.NoteOnEvent(tick=0, channel=0, data=[47, 95]),
   midi.NoteOffEvent(tick=240, channel=0, data=[47, 95]),
   midi.NoteOnEvent(tick=0, channel=0, data=[47, 95]),
   midi.NoteOffEvent(tick=240, channel=0, data=[47, 95]),
   midi.NoteOnEvent(tick=0, channel=0, data=[47, 95]),
   midi.NoteOffEvent(tick=240, channel=0, data=[47, 95]),
   midi.NoteOnEvent(tick=0, channel=0, data=[47, 95]),
   midi.NoteOffEvent(tick=240, channel=0, data=[47, 95]),
   midi.NoteOnEvent(tick=0, channel=0, data=[47, 95]),
   midi.NoteOffEvent(tick=240, channel=0, data=[47, 95]),
   midi.NoteOnEvent(tick=0, channel=0, data=[47, 95]),
   midi.NoteOffEvent(tick=240, channel=0, data=[47, 95]),
   midi.NoteOnEvent(tick=0, channel=0, data=[47, 95]),
   midi.NoteOffEvent(tick=240, channel=0, data=[47, 95]),
   midi.NoteOnEvent(tick=0, channel=0, data=[47, 95]),
   midi.NoteOffEvent(tick=240, channel=0, data=[47, 95]),
   midi.NoteOnEvent(tick=0, channel=0, data=[47, 95]),
   midi.NoteOffEvent(tick=240, channel=0, data=[47, 95]),
   midi.NoteOnEvent(tick=0, channel=0, data=[47, 95]),
   midi.NoteOffEvent(tick=240, channel=0, data=[47, 95]),
   midi.NoteOnEvent(tick=0, channel=0, data=[59, 79]),
   midi.NoteOnEvent(tick=0, channel=0, data=[52, 95]),
   midi.NoteOffEvent(tick=480, channel=0, data=[59, 79]),
   midi.NoteOffEvent(tick=0, channel=0, data=[52, 95]),
   midi.NoteOnEvent(tick=0, channel=0, data=[57, 79]),
   midi.NoteOnEvent(tick=0, channel=0, data=[50, 95]),
   midi.NoteOffEvent(tick=480, channel=0, data=[57, 79]),
   midi.NoteOffEvent(tick=0, channel=0, data=[50, 95]),
   midi.NoteOnEvent(tick=0, channel=0, data=[62, 95]),
   midi.NoteOnEvent(tick=0, channel=0, data=[55, 95]),
   midi.NoteOffEvent(tick=960, channel=0, data=[62, 95]),
   midi.NoteOffEvent(tick=0, channel=0, data=[55, 95]),
   midi.NoteOnEvent(tick=0, channel=0, data=[54, 79]),
   midi.NoteOnEvent(tick=0, channel=0, data=[47, 79]),
   midi.NoteOffEvent(tick=1920, channel=0, data=[54, 79]),
   midi.NoteOffEvent(tick=0, channel=0, data=[47, 79]),
   midi.NoteOnEvent(tick=0, channel=0, data=[47, 79]),
   midi.NoteOnEvent(tick=0, channel=0, data=[40, 79]),
   midi.NoteOffEvent(tick=1920, channel=0, data=[47, 79]),
   midi.NoteOffEvent(tick=0, channel=0, data=[40, 79]),
   midi.NoteOnEvent(tick=0, channel=0, data=[50, 95]),
   midi.NoteOnEvent(tick=0, channel=0, data=[43, 79]),
   midi.NoteOffEvent(tick=1920, channel=0, data=[50, 95]),
   midi.NoteOffEvent(tick=0, channel=0, data=[43, 79]),
   midi.NoteOnEvent(tick=0, channel=0, data=[49, 79]),
   midi.NoteOnEvent(tick=0, channel=0, data=[42, 79]),
   midi.NoteOffEvent(tick=1920, channel=0, data=[49, 79]),
   midi.NoteOffEvent(tick=0, channel=0, data=[42, 79]),
   midi.NoteOnEvent(tick=0, channel=0, data=[54, 79]),
   midi.NoteOnEvent(tick=0, channel=0, data=[47, 79]),
   midi.NoteOffEvent(tick=1920, channel=0, data=[54, 79]),
   midi.NoteOffEvent(tick=0, channel=0, data=[47, 79]),
   midi.NoteOnEvent(tick=0, channel=0, data=[47, 79]),
   midi.NoteOnEvent(tick=0, channel=0, data=[40, 79]),
   midi.NoteOffEvent(tick=1920, channel=0, data=[47, 79]),
   midi.NoteOffEvent(tick=0, channel=0, data=[40, 79]),
   midi.NoteOnEvent(tick=0, channel=0, data=[57, 79]),
   midi.NoteOnEvent(tick=0, channel=0, data=[50, 95]),
   midi.NoteOffEvent(tick=1920, channel=0, data=[57, 79]),
   midi.NoteOffEvent(tick=0, channel=0, data=[50, 95]),
   midi.NoteOnEvent(tick=0, channel=0, data=[56, 79]),
   midi.NoteOnEvent(tick=0, channel=0, data=[49, 79]),
   midi.NoteOffEvent(tick=1920, channel=0, data=[56, 79]),
   midi.NoteOffEvent(tick=0, channel=0, data=[49, 79]),
   midi.NoteOnEvent(tick=0, channel=0, data=[54, 79]),
   midi.NoteOnEvent(tick=0, channel=0, data=[47, 79]),
   midi.NoteOffEvent(tick=1920, channel=0, data=[54, 79]),
   midi.NoteOffEvent(tick=0, channel=0, data=[47, 79]),
   midi.NoteOnEvent(tick=0, channel=0, data=[47, 79]),
   midi.NoteOnEvent(tick=0, channel=0, data=[40, 79]),
   midi.NoteOffEvent(tick=1920, channel=0, data=[47, 79]),
   midi.NoteOffEvent(tick=0, channel=0, data=[40, 79]),
   midi.NoteOnEvent(tick=0, channel=0, data=[50, 95]),
   midi.NoteOnEvent(tick=0, channel=0, data=[43, 79]),
   midi.NoteOffEvent(tick=1920, channel=0, data=[50, 95]),
   midi.NoteOffEvent(tick=0, channel=0, data=[43, 79]),
   midi.NoteOnEvent(tick=0, channel=0, data=[49, 79]),
   midi.NoteOnEvent(tick=0, channel=0, data=[42, 79]),
   midi.NoteOffEvent(tick=1920, channel=0, data=[49, 79]),
   midi.NoteOffEvent(tick=0, channel=0, data=[42, 79]),
   midi.NoteOnEvent(tick=0, channel=0, data=[54, 79]),
   midi.NoteOnEvent(tick=0, channel=0, data=[47, 79]),
   midi.NoteOffEvent(tick=1920, channel=0, data=[54, 79]),
   midi.NoteOffEvent(tick=0, channel=0, data=[47, 79]),
   midi.NoteOnEvent(tick=0, channel=0, data=[47, 79]),
   midi.NoteOnEvent(tick=0, channel=0, data=[40, 79]),
   midi.NoteOffEvent(tick=1920, channel=0, data=[47, 79]),
   midi.NoteOffEvent(tick=0, channel=0, data=[40, 79]),
   midi.NoteOnEvent(tick=0, channel=0, data=[57, 79]),
   midi.NoteOnEvent(tick=0, channel=0, data=[50, 95]),
   midi.NoteOffEvent(tick=1920, channel=0, data=[57, 79]),
   midi.NoteOffEvent(tick=0, channel=0, data=[50, 95]),
   midi.NoteOnEvent(tick=0, channel=0, data=[59, 79]),
   midi.NoteOnEvent(tick=0, channel=0, data=[52, 95]),
   midi.NoteOffEvent(tick=1920, channel=0, data=[59, 79]),
   midi.NoteOffEvent(tick=0, channel=0, data=[52, 95]),
   midi.NoteOnEvent(tick=0, channel=0, data=[50, 95]),
   midi.NoteOnEvent(tick=0, channel=0, data=[40, 79]),
   midi.NoteOffEvent(tick=240, channel=0, data=[50, 95]),
   midi.NoteOffEvent(tick=0, channel=0, data=[40, 79]),
   midi.NoteOnEvent(tick=0, channel=0, data=[52, 70]),
   midi.NoteOffEvent(tick=240, channel=0, data=[52, 70]),
   midi.NoteOnEvent(tick=0, channel=0, data=[40, 79]),
   midi.NoteOffEvent(tick=240, channel=0, data=[40, 79]),
   midi.NoteOnEvent(tick=0, channel=0, data=[40, 79]),
   midi.NoteOffEvent(tick=240, channel=0, data=[40, 79]),
   midi.NoteOnEvent(tick=0, channel=0, data=[40, 79]),
   midi.NoteOffEvent(tick=240, channel=0, data=[40, 79]),
   midi.NoteOnEvent(tick=0, channel=0, data=[40, 79]),
   midi.NoteOffEvent(tick=240, channel=0, data=[40, 79]),
   midi.NoteOnEvent(tick=0, channel=0, data=[40, 79]),
   midi.NoteOffEvent(tick=240, channel=0, data=[40, 79]),
   midi.NoteOnEvent(tick=0, channel=0, data=[40, 79]),
   midi.NoteOffEvent(tick=240, channel=0, data=[40, 79]),
   midi.NoteOnEvent(tick=0, channel=0, data=[50, 95]),
   midi.NoteOnEvent(tick=0, channel=0, data=[40, 79]),
   midi.NoteOffEvent(tick=240, channel=0, data=[50, 95]),
   midi.NoteOffEvent(tick=0, channel=0, data=[40, 79]),
   midi.NoteOnEvent(tick=0, channel=0, data=[52, 70]),
   midi.NoteOffEvent(tick=240, channel=0, data=[52, 70]),
   midi.NoteOnEvent(tick=0, channel=0, data=[40, 79]),
   midi.NoteOffEvent(tick=240, channel=0, data=[40, 79]),
   midi.NoteOnEvent(tick=0, channel=0, data=[40, 79]),
   midi.NoteOffEvent(tick=240, channel=0, data=[40, 79]),
   midi.NoteOnEvent(tick=0, channel=0, data=[40, 79]),
   midi.NoteOffEvent(tick=240, channel=0, data=[40, 79]),
   midi.NoteOnEvent(tick=0, channel=0, data=[40, 79]),
   midi.NoteOffEvent(tick=240, channel=0, data=[40, 79]),
   midi.NoteOnEvent(tick=0, channel=0, data=[40, 79]),
   midi.NoteOffEvent(tick=240, channel=0, data=[40, 79]),
   midi.NoteOnEvent(tick=0, channel=0, data=[40, 79]),
   midi.NoteOffEvent(tick=240, channel=0, data=[40, 79]),
   midi.NoteOnEvent(tick=0, channel=0, data=[50, 95]),
   midi.NoteOnEvent(tick=0, channel=0, data=[40, 79]),
   midi.NoteOffEvent(tick=240, channel=0, data=[50, 95]),
   midi.NoteOffEvent(tick=0, channel=0, data=[40, 79]),
   midi.NoteOnEvent(tick=0, channel=0, data=[52, 70]),
   midi.NoteOffEvent(tick=240, channel=0, data=[52, 70]),
   midi.NoteOnEvent(tick=0, channel=0, data=[40, 79]),
   midi.NoteOffEvent(tick=240, channel=0, data=[40, 79]),
   midi.NoteOnEvent(tick=0, channel=0, data=[40, 79]),
   midi.NoteOffEvent(tick=240, channel=0, data=[40, 79]),
   midi.NoteOnEvent(tick=0, channel=0, data=[40, 79]),
   midi.NoteOffEvent(tick=240, channel=0, data=[40, 79]),
   midi.NoteOnEvent(tick=0, channel=0, data=[40, 79]),
   midi.NoteOffEvent(tick=240, channel=0, data=[40, 79]),
   midi.NoteOnEvent(tick=0, channel=0, data=[40, 79]),
   midi.NoteOffEvent(tick=240, channel=0, data=[40, 79]),
   midi.NoteOnEvent(tick=0, channel=0, data=[40, 79]),
   midi.NoteOffEvent(tick=240, channel=0, data=[40, 79]),
   midi.NoteOnEvent(tick=0, channel=0, data=[50, 95]),
   midi.NoteOnEvent(tick=0, channel=0, data=[40, 79]),
   midi.NoteOffEvent(tick=240, channel=0, data=[50, 95]),
   midi.NoteOffEvent(tick=0, channel=0, data=[40, 79]),
   midi.NoteOnEvent(tick=0, channel=0, data=[52, 70]),
   midi.NoteOffEvent(tick=240, channel=0, data=[52, 70]),
   midi.NoteOnEvent(tick=0, channel=0, data=[40, 79]),
   midi.NoteOffEvent(tick=240, channel=0, data=[40, 79]),
   midi.NoteOnEvent(tick=0, channel=0, data=[40, 79]),
   midi.NoteOffEvent(tick=240, channel=0, data=[40, 79]),
   midi.NoteOnEvent(tick=0, channel=0, data=[40, 79]),
   midi.NoteOffEvent(tick=240, channel=0, data=[40, 79]),
   midi.NoteOnEvent(tick=0, channel=0, data=[40, 79]),
   midi.NoteOffEvent(tick=240, channel=0, data=[40, 79]),
   midi.NoteOnEvent(tick=0, channel=0, data=[40, 79]),
   midi.NoteOffEvent(tick=240, channel=0, data=[40, 79]),
   midi.NoteOnEvent(tick=0, channel=0, data=[40, 79]),
   midi.NoteOffEvent(tick=240, channel=0, data=[40, 79]),
   midi.NoteOnEvent(tick=0, channel=0, data=[50, 95]),
   midi.NoteOnEvent(tick=0, channel=0, data=[40, 79]),
   midi.NoteOffEvent(tick=240, channel=0, data=[50, 95]),
   midi.NoteOffEvent(tick=0, channel=0, data=[40, 79]),
   midi.NoteOnEvent(tick=0, channel=0, data=[52, 70]),
   midi.NoteOffEvent(tick=240, channel=0, data=[52, 70]),
   midi.NoteOnEvent(tick=0, channel=0, data=[40, 79]),
   midi.NoteOffEvent(tick=240, channel=0, data=[40, 79]),
   midi.NoteOnEvent(tick=0, channel=0, data=[40, 79]),
   midi.NoteOffEvent(tick=240, channel=0, data=[40, 79]),
   midi.NoteOnEvent(tick=0, channel=0, data=[40, 79]),
   midi.NoteOffEvent(tick=240, channel=0, data=[40, 79]),
   midi.NoteOnEvent(tick=0, channel=0, data=[40, 79]),
   midi.NoteOffEvent(tick=240, channel=0, data=[40, 79]),
   midi.NoteOnEvent(tick=0, channel=0, data=[40, 79]),
   midi.NoteOffEvent(tick=240, channel=0, data=[40, 79]),
   midi.NoteOnEvent(tick=0, channel=0, data=[40, 79]),
   midi.NoteOffEvent(tick=240, channel=0, data=[40, 79]),
   midi.NoteOnEvent(tick=0, channel=0, data=[50, 95]),
   midi.NoteOnEvent(tick=0, channel=0, data=[40, 79]),
   midi.NoteOffEvent(tick=240, channel=0, data=[50, 95]),
   midi.NoteOffEvent(tick=0, channel=0, data=[40, 79]),
   midi.NoteOnEvent(tick=0, channel=0, data=[52, 70]),
   midi.NoteOffEvent(tick=240, channel=0, data=[52, 70]),
   midi.NoteOnEvent(tick=0, channel=0, data=[40, 79]),
   midi.NoteOffEvent(tick=240, channel=0, data=[40, 79]),
   midi.NoteOnEvent(tick=0, channel=0, data=[40, 79]),
   midi.NoteOffEvent(tick=240, channel=0, data=[40, 79]),
   midi.NoteOnEvent(tick=0, channel=0, data=[40, 79]),
   midi.NoteOffEvent(tick=240, channel=0, data=[40, 79]),
   midi.NoteOnEvent(tick=0, channel=0, data=[40, 79]),
   midi.NoteOffEvent(tick=240, channel=0, data=[40, 79]),
   midi.NoteOnEvent(tick=0, channel=0, data=[40, 79]),
   midi.NoteOffEvent(tick=240, channel=0, data=[40, 79]),
   midi.NoteOnEvent(tick=0, channel=0, data=[40, 79]),
   midi.NoteOffEvent(tick=240, channel=0, data=[40, 79]),
   midi.NoteOnEvent(tick=0, channel=0, data=[55, 95]),
   midi.NoteOnEvent(tick=0, channel=0, data=[48, 79]),
   midi.NoteOffEvent(tick=960, channel=0, data=[55, 95]),
   midi.NoteOffEvent(tick=0, channel=0, data=[48, 79]),
   midi.NoteOnEvent(tick=0, channel=0, data=[54, 79]),
   midi.NoteOnEvent(tick=0, channel=0, data=[47, 79]),
   midi.NoteOffEvent(tick=480, channel=0, data=[54, 79]),
   midi.NoteOffEvent(tick=0, channel=0, data=[47, 79]),
   midi.NoteOnEvent(tick=0, channel=0, data=[55, 95]),
   midi.NoteOnEvent(tick=0, channel=0, data=[48, 79]),
   midi.NoteOffEvent(tick=960, channel=0, data=[55, 95]),
   midi.NoteOffEvent(tick=0, channel=0, data=[48, 79]),
   midi.NoteOnEvent(tick=0, channel=0, data=[54, 79]),
   midi.NoteOnEvent(tick=0, channel=0, data=[47, 79]),
   midi.NoteOffEvent(tick=480, channel=0, data=[54, 79]),
   midi.NoteOffEvent(tick=0, channel=0, data=[47, 79]),
   midi.NoteOnEvent(tick=0, channel=0, data=[55, 95]),
   midi.NoteOnEvent(tick=0, channel=0, data=[48, 79]),
   midi.NoteOffEvent(tick=480, channel=0, data=[55, 95]),
   midi.NoteOffEvent(tick=0, channel=0, data=[48, 79]),
   midi.NoteOnEvent(tick=0, channel=0, data=[57, 79]),
   midi.NoteOnEvent(tick=0, channel=0, data=[50, 95]),
   midi.NoteOffEvent(tick=480, channel=0, data=[57, 79]),
   midi.NoteOffEvent(tick=0, channel=0, data=[50, 95]),
   midi.NoteOnEvent(tick=0, channel=0, data=[50, 95]),
   midi.NoteOnEvent(tick=0, channel=0, data=[40, 79]),
   midi.NoteOffEvent(tick=240, channel=0, data=[50, 95]),
   midi.NoteOffEvent(tick=0, channel=0, data=[40, 79]),
   midi.NoteOnEvent(tick=0, channel=0, data=[52, 70]),
   midi.NoteOffEvent(tick=240, channel=0, data=[52, 70]),
   midi.NoteOnEvent(tick=0, channel=0, data=[40, 79]),
   midi.NoteOffEvent(tick=240, channel=0, data=[40, 79]),
   midi.NoteOnEvent(tick=0, channel=0, data=[40, 79]),
   midi.NoteOffEvent(tick=240, channel=0, data=[40, 79]),
   midi.NoteOnEvent(tick=0, channel=0, data=[40, 79]),
   midi.NoteOffEvent(tick=240, channel=0, data=[40, 79]),
   midi.NoteOnEvent(tick=0, channel=0, data=[40, 79]),
   midi.NoteOffEvent(tick=240, channel=0, data=[40, 79]),
   midi.NoteOnEvent(tick=0, channel=0, data=[40, 79]),
   midi.NoteOffEvent(tick=240, channel=0, data=[40, 79]),
   midi.NoteOnEvent(tick=0, channel=0, data=[40, 79]),
   midi.NoteOffEvent(tick=240, channel=0, data=[40, 79]),
   midi.NoteOnEvent(tick=0, channel=0, data=[50, 95]),
   midi.NoteOnEvent(tick=0, channel=0, data=[40, 79]),
   midi.NoteOffEvent(tick=240, channel=0, data=[50, 95]),
   midi.NoteOffEvent(tick=0, channel=0, data=[40, 79]),
   midi.NoteOnEvent(tick=0, channel=0, data=[52, 70]),
   midi.NoteOffEvent(tick=240, channel=0, data=[52, 70]),
   midi.NoteOnEvent(tick=0, channel=0, data=[40, 79]),
   midi.NoteOffEvent(tick=240, channel=0, data=[40, 79]),
   midi.NoteOnEvent(tick=0, channel=0, data=[40, 79]),
   midi.NoteOffEvent(tick=240, channel=0, data=[40, 79]),
   midi.NoteOnEvent(tick=0, channel=0, data=[40, 79]),
   midi.NoteOffEvent(tick=240, channel=0, data=[40, 79]),
   midi.NoteOnEvent(tick=0, channel=0, data=[40, 79]),
   midi.NoteOffEvent(tick=240, channel=0, data=[40, 79]),
   midi.NoteOnEvent(tick=0, channel=0, data=[40, 79]),
   midi.NoteOffEvent(tick=240, channel=0, data=[40, 79]),
   midi.NoteOnEvent(tick=0, channel=0, data=[40, 79]),
   midi.NoteOffEvent(tick=240, channel=0, data=[40, 79]),
   midi.NoteOnEvent(tick=0, channel=0, data=[50, 95]),
   midi.NoteOnEvent(tick=0, channel=0, data=[40, 79]),
   midi.NoteOffEvent(tick=240, channel=0, data=[50, 95]),
   midi.NoteOffEvent(tick=0, channel=0, data=[40, 79]),
   midi.NoteOnEvent(tick=0, channel=0, data=[52, 70]),
   midi.NoteOffEvent(tick=240, channel=0, data=[52, 70]),
   midi.NoteOnEvent(tick=0, channel=0, data=[40, 79]),
   midi.NoteOffEvent(tick=240, channel=0, data=[40, 79]),
   midi.NoteOnEvent(tick=0, channel=0, data=[40, 79]),
   midi.NoteOffEvent(tick=240, channel=0, data=[40, 79]),
   midi.NoteOnEvent(tick=0, channel=0, data=[40, 79]),
   midi.NoteOffEvent(tick=240, channel=0, data=[40, 79]),
   midi.NoteOnEvent(tick=0, channel=0, data=[40, 79]),
   midi.NoteOffEvent(tick=240, channel=0, data=[40, 79]),
   midi.NoteOnEvent(tick=0, channel=0, data=[40, 79]),
   midi.NoteOffEvent(tick=240, channel=0, data=[40, 79]),
   midi.NoteOnEvent(tick=0, channel=0, data=[40, 79]),
   midi.NoteOffEvent(tick=240, channel=0, data=[40, 79]),
   midi.NoteOnEvent(tick=0, channel=0, data=[50, 95]),
   midi.NoteOnEvent(tick=0, channel=0, data=[40, 79]),
   midi.NoteOffEvent(tick=240, channel=0, data=[50, 95]),
   midi.NoteOffEvent(tick=0, channel=0, data=[40, 79]),
   midi.NoteOnEvent(tick=0, channel=0, data=[52, 70]),
   midi.NoteOffEvent(tick=240, channel=0, data=[52, 70]),
   midi.NoteOnEvent(tick=0, channel=0, data=[40, 79]),
   midi.NoteOffEvent(tick=240, channel=0, data=[40, 79]),
   midi.NoteOnEvent(tick=0, channel=0, data=[40, 79]),
   midi.NoteOffEvent(tick=240, channel=0, data=[40, 79]),
   midi.NoteOnEvent(tick=0, channel=0, data=[40, 79]),
   midi.NoteOffEvent(tick=240, channel=0, data=[40, 79]),
   midi.NoteOnEvent(tick=0, channel=0, data=[40, 79]),
   midi.NoteOffEvent(tick=240, channel=0, data=[40, 79]),
   midi.NoteOnEvent(tick=0, channel=0, data=[40, 79]),
   midi.NoteOffEvent(tick=240, channel=0, data=[40, 79]),
   midi.NoteOnEvent(tick=0, channel=0, data=[40, 79]),
   midi.NoteOffEvent(tick=240, channel=0, data=[40, 79]),
   midi.NoteOnEvent(tick=0, channel=0, data=[50, 95]),
   midi.NoteOnEvent(tick=0, channel=0, data=[40, 79]),
   midi.NoteOffEvent(tick=240, channel=0, data=[50, 95]),
   midi.NoteOffEvent(tick=0, channel=0, data=[40, 79]),
   midi.NoteOnEvent(tick=0, channel=0, data=[52, 70]),
   midi.NoteOffEvent(tick=240, channel=0, data=[52, 70]),
   midi.NoteOnEvent(tick=0, channel=0, data=[40, 79]),
   midi.NoteOffEvent(tick=240, channel=0, data=[40, 79]),
   midi.NoteOnEvent(tick=0, channel=0, data=[40, 79]),
   midi.NoteOffEvent(tick=240, channel=0, data=[40, 79]),
   midi.NoteOnEvent(tick=0, channel=0, data=[40, 79]),
   midi.NoteOffEvent(tick=240, channel=0, data=[40, 79]),
   midi.NoteOnEvent(tick=0, channel=0, data=[40, 79]),
   midi.NoteOffEvent(tick=240, channel=0, data=[40, 79]),
   midi.NoteOnEvent(tick=0, channel=0, data=[40, 79]),
   midi.NoteOffEvent(tick=240, channel=0, data=[40, 79]),
   midi.NoteOnEvent(tick=0, channel=0, data=[40, 79]),
   midi.NoteOffEvent(tick=240, channel=0, data=[40, 79]),
   midi.NoteOnEvent(tick=0, channel=0, data=[50, 95]),
   midi.NoteOnEvent(tick=0, channel=0, data=[40, 79]),
   midi.NoteOffEvent(tick=240, channel=0, data=[50, 95]),
   midi.NoteOffEvent(tick=0, channel=0, data=[40, 79]),
   midi.NoteOnEvent(tick=0, channel=0, data=[52, 70]),
   midi.NoteOffEvent(tick=240, channel=0, data=[52, 70]),
   midi.NoteOnEvent(tick=0, channel=0, data=[40, 79]),
   midi.NoteOffEvent(tick=240, channel=0, data=[40, 79]),
   midi.NoteOnEvent(tick=0, channel=0, data=[40, 79]),
   midi.NoteOffEvent(tick=240, channel=0, data=[40, 79]),
   midi.NoteOnEvent(tick=0, channel=0, data=[40, 79]),
   midi.NoteOffEvent(tick=240, channel=0, data=[40, 79]),
   midi.NoteOnEvent(tick=0, channel=0, data=[40, 79]),
   midi.NoteOffEvent(tick=240, channel=0, data=[40, 79]),
   midi.NoteOnEvent(tick=0, channel=0, data=[40, 79]),
   midi.NoteOffEvent(tick=240, channel=0, data=[40, 79]),
   midi.NoteOnEvent(tick=0, channel=0, data=[40, 79]),
   midi.NoteOffEvent(tick=240, channel=0, data=[40, 79]),
   midi.NoteOnEvent(tick=0, channel=0, data=[55, 95]),
   midi.NoteOnEvent(tick=0, channel=0, data=[48, 79]),
   midi.NoteOffEvent(tick=960, channel=0, data=[55, 95]),
   midi.NoteOffEvent(tick=0, channel=0, data=[48, 79]),
   midi.NoteOnEvent(tick=0, channel=0, data=[54, 79]),
   midi.NoteOnEvent(tick=0, channel=0, data=[47, 79]),
   midi.NoteOffEvent(tick=480, channel=0, data=[54, 79]),
   midi.NoteOffEvent(tick=0, channel=0, data=[47, 79]),
   midi.NoteOnEvent(tick=0, channel=0, data=[55, 95]),
   midi.NoteOnEvent(tick=0, channel=0, data=[48, 79]),
   midi.NoteOffEvent(tick=960, channel=0, data=[55, 95]),
   midi.NoteOffEvent(tick=0, channel=0, data=[48, 79]),
   midi.NoteOnEvent(tick=0, channel=0, data=[54, 79]),
   midi.NoteOnEvent(tick=0, channel=0, data=[47, 79]),
   midi.NoteOffEvent(tick=480, channel=0, data=[54, 79]),
   midi.NoteOffEvent(tick=0, channel=0, data=[47, 79]),
   midi.NoteOnEvent(tick=0, channel=0, data=[55, 95]),
   midi.NoteOnEvent(tick=0, channel=0, data=[48, 79]),
   midi.NoteOffEvent(tick=480, channel=0, data=[55, 95]),
   midi.NoteOffEvent(tick=0, channel=0, data=[48, 79]),
   midi.NoteOnEvent(tick=0, channel=0, data=[57, 79]),
   midi.NoteOnEvent(tick=0, channel=0, data=[50, 95]),
   midi.NoteOffEvent(tick=480, channel=0, data=[57, 79]),
   midi.NoteOffEvent(tick=0, channel=0, data=[50, 95]),
   midi.NoteOnEvent(tick=0, channel=0, data=[50, 95]),
   midi.NoteOnEvent(tick=0, channel=0, data=[40, 79]),
   midi.NoteOffEvent(tick=240, channel=0, data=[50, 95]),
   midi.NoteOffEvent(tick=0, channel=0, data=[40, 79]),
   midi.NoteOnEvent(tick=0, channel=0, data=[52, 70]),
   midi.NoteOffEvent(tick=240, channel=0, data=[52, 70]),
   midi.NoteOnEvent(tick=0, channel=0, data=[40, 79]),
   midi.NoteOffEvent(tick=240, channel=0, data=[40, 79]),
   midi.NoteOnEvent(tick=0, channel=0, data=[40, 79]),
   midi.NoteOffEvent(tick=240, channel=0, data=[40, 79]),
   midi.NoteOnEvent(tick=0, channel=0, data=[40, 79]),
   midi.NoteOffEvent(tick=240, channel=0, data=[40, 79]),
   midi.NoteOnEvent(tick=0, channel=0, data=[40, 79]),
   midi.NoteOffEvent(tick=240, channel=0, data=[40, 79]),
   midi.NoteOnEvent(tick=0, channel=0, data=[40, 79]),
   midi.NoteOffEvent(tick=240, channel=0, data=[40, 79]),
   midi.NoteOnEvent(tick=0, channel=0, data=[40, 79]),
   midi.NoteOffEvent(tick=240, channel=0, data=[40, 79]),
   midi.NoteOnEvent(tick=0, channel=0, data=[50, 95]),
   midi.NoteOnEvent(tick=0, channel=0, data=[40, 79]),
   midi.NoteOffEvent(tick=240, channel=0, data=[50, 95]),
   midi.NoteOffEvent(tick=0, channel=0, data=[40, 79]),
   midi.NoteOnEvent(tick=0, channel=0, data=[52, 70]),
   midi.NoteOnEvent(tick=0, channel=0, data=[40, 79]),
   midi.NoteOffEvent(tick=240, channel=0, data=[52, 70]),
   midi.NoteOffEvent(tick=0, channel=0, data=[40, 79]),
   midi.NoteOnEvent(tick=0, channel=0, data=[40, 79]),
   midi.NoteOffEvent(tick=240, channel=0, data=[40, 79]),
   midi.NoteOnEvent(tick=0, channel=0, data=[40, 79]),
   midi.NoteOffEvent(tick=240, channel=0, data=[40, 79]),
   midi.NoteOnEvent(tick=0, channel=0, data=[40, 79]),
   midi.NoteOffEvent(tick=240, channel=0, data=[40, 79]),
   midi.NoteOnEvent(tick=0, channel=0, data=[40, 79]),
   midi.NoteOffEvent(tick=240, channel=0, data=[40, 79]),
   midi.NoteOnEvent(tick=0, channel=0, data=[40, 79]),
   midi.NoteOffEvent(tick=240, channel=0, data=[40, 79]),
   midi.NoteOnEvent(tick=0, channel=0, data=[40, 79]),
   midi.NoteOffEvent(tick=240, channel=0, data=[40, 79]),
   midi.NoteOnEvent(tick=0, channel=0, data=[50, 95]),
   midi.NoteOnEvent(tick=0, channel=0, data=[40, 79]),
   midi.NoteOffEvent(tick=240, channel=0, data=[50, 95]),
   midi.NoteOffEvent(tick=0, channel=0, data=[40, 79]),
   midi.NoteOnEvent(tick=0, channel=0, data=[52, 70]),
   midi.NoteOffEvent(tick=240, channel=0, data=[52, 70]),
   midi.NoteOnEvent(tick=0, channel=0, data=[40, 79]),
   midi.NoteOffEvent(tick=240, channel=0, data=[40, 79]),
   midi.NoteOnEvent(tick=0, channel=0, data=[40, 79]),
   midi.NoteOffEvent(tick=240, channel=0, data=[40, 79]),
   midi.NoteOnEvent(tick=0, channel=0, data=[40, 79]),
   midi.NoteOffEvent(tick=240, channel=0, data=[40, 79]),
   midi.NoteOnEvent(tick=0, channel=0, data=[40, 79]),
   midi.NoteOffEvent(tick=240, channel=0, data=[40, 79]),
   midi.NoteOnEvent(tick=0, channel=0, data=[40, 79]),
   midi.NoteOffEvent(tick=240, channel=0, data=[40, 79]),
   midi.NoteOnEvent(tick=0, channel=0, data=[40, 79]),
   midi.NoteOffEvent(tick=240, channel=0, data=[40, 79]),
   midi.NoteOnEvent(tick=0, channel=0, data=[50, 95]),
   midi.NoteOnEvent(tick=0, channel=0, data=[40, 79]),
   midi.NoteOffEvent(tick=240, channel=0, data=[50, 95]),
   midi.NoteOffEvent(tick=0, channel=0, data=[40, 79]),
   midi.NoteOnEvent(tick=0, channel=0, data=[52, 70]),
   midi.NoteOnEvent(tick=0, channel=0, data=[40, 79]),
   midi.NoteOffEvent(tick=240, channel=0, data=[52, 70]),
   midi.NoteOffEvent(tick=0, channel=0, data=[40, 79]),
   midi.NoteOnEvent(tick=0, channel=0, data=[40, 79]),
   midi.NoteOffEvent(tick=240, channel=0, data=[40, 79]),
   midi.NoteOnEvent(tick=0, channel=0, data=[40, 79]),
   midi.NoteOffEvent(tick=240, channel=0, data=[40, 79]),
   midi.NoteOnEvent(tick=0, channel=0, data=[40, 79]),
   midi.NoteOffEvent(tick=240, channel=0, data=[40, 79]),
   midi.NoteOnEvent(tick=0, channel=0, data=[40, 79]),
   midi.NoteOffEvent(tick=240, channel=0, data=[40, 79]),
   midi.NoteOnEvent(tick=0, channel=0, data=[40, 79]),
   midi.NoteOffEvent(tick=240, channel=0, data=[40, 79]),
   midi.NoteOnEvent(tick=0, channel=0, data=[40, 79]),
   midi.NoteOffEvent(tick=240, channel=0, data=[40, 79]),
   midi.NoteOnEvent(tick=0, channel=0, data=[50, 95]),
   midi.NoteOnEvent(tick=0, channel=0, data=[40, 79]),
   midi.NoteOffEvent(tick=240, channel=0, data=[50, 95]),
   midi.NoteOffEvent(tick=0, channel=0, data=[40, 79]),
   midi.NoteOnEvent(tick=0, channel=0, data=[52, 70]),
   midi.NoteOffEvent(tick=240, channel=0, data=[52, 70]),
   midi.NoteOnEvent(tick=0, channel=0, data=[40, 79]),
   midi.NoteOffEvent(tick=240, channel=0, data=[40, 79]),
   midi.NoteOnEvent(tick=0, channel=0, data=[40, 79]),
   midi.NoteOffEvent(tick=240, channel=0, data=[40, 79]),
   midi.NoteOnEvent(tick=0, channel=0, data=[40, 79]),
   midi.NoteOffEvent(tick=240, channel=0, data=[40, 79]),
   midi.NoteOnEvent(tick=0, channel=0, data=[40, 79]),
   midi.NoteOffEvent(tick=240, channel=0, data=[40, 79]),
   midi.NoteOnEvent(tick=0, channel=0, data=[40, 79]),
   midi.NoteOffEvent(tick=240, channel=0, data=[40, 79]),
   midi.NoteOnEvent(tick=0, channel=0, data=[40, 79]),
   midi.NoteOffEvent(tick=240, channel=0, data=[40, 79]),
   midi.NoteOnEvent(tick=0, channel=0, data=[50, 95]),
   midi.NoteOnEvent(tick=0, channel=0, data=[40, 79]),
   midi.NoteOffEvent(tick=240, channel=0, data=[50, 95]),
   midi.NoteOffEvent(tick=0, channel=0, data=[40, 79]),
   midi.NoteOnEvent(tick=0, channel=0, data=[52, 70]),
   midi.NoteOffEvent(tick=240, channel=0, data=[52, 70]),
   midi.NoteOnEvent(tick=0, channel=0, data=[40, 79]),
   midi.NoteOffEvent(tick=240, channel=0, data=[40, 79]),
   midi.NoteOnEvent(tick=0, channel=0, data=[40, 79]),
   midi.NoteOffEvent(tick=240, channel=0, data=[40, 79]),
   midi.NoteOnEvent(tick=0, channel=0, data=[40, 79]),
   midi.NoteOffEvent(tick=240, channel=0, data=[40, 79]),
   midi.NoteOnEvent(tick=0, channel=0, data=[40, 79]),
   midi.NoteOffEvent(tick=240, channel=0, data=[40, 79]),
   midi.NoteOnEvent(tick=0, channel=0, data=[40, 79]),
   midi.NoteOffEvent(tick=240, channel=0, data=[40, 79]),
   midi.NoteOnEvent(tick=0, channel=0, data=[40, 79]),
   midi.NoteOffEvent(tick=240, channel=0, data=[40, 79]),
   midi.NoteOnEvent(tick=0, channel=0, data=[55, 95]),
   midi.NoteOnEvent(tick=0, channel=0, data=[48, 79]),
   midi.NoteOffEvent(tick=960, channel=0, data=[55, 95]),
   midi.NoteOffEvent(tick=0, channel=0, data=[48, 79]),
   midi.NoteOnEvent(tick=0, channel=0, data=[54, 79]),
   midi.NoteOnEvent(tick=0, channel=0, data=[47, 79]),
   midi.NoteOffEvent(tick=480, channel=0, data=[54, 79]),
   midi.NoteOffEvent(tick=0, channel=0, data=[47, 79]),
   midi.NoteOnEvent(tick=0, channel=0, data=[55, 95]),
   midi.NoteOnEvent(tick=0, channel=0, data=[48, 79]),
   midi.NoteOffEvent(tick=960, channel=0, data=[55, 95]),
   midi.NoteOffEvent(tick=0, channel=0, data=[48, 79]),
   midi.NoteOnEvent(tick=0, channel=0, data=[54, 79]),
   midi.NoteOnEvent(tick=0, channel=0, data=[47, 79]),
   midi.NoteOffEvent(tick=480, channel=0, data=[54, 79]),
   midi.NoteOffEvent(tick=0, channel=0, data=[47, 79]),
   midi.NoteOnEvent(tick=0, channel=0, data=[55, 95]),
   midi.NoteOnEvent(tick=0, channel=0, data=[48, 79]),
   midi.NoteOffEvent(tick=480, channel=0, data=[55, 95]),
   midi.NoteOffEvent(tick=0, channel=0, data=[48, 79]),
   midi.NoteOnEvent(tick=0, channel=0, data=[57, 79]),
   midi.NoteOnEvent(tick=0, channel=0, data=[50, 95]),
   midi.NoteOffEvent(tick=480, channel=0, data=[57, 79]),
   midi.NoteOffEvent(tick=0, channel=0, data=[50, 95]),
   midi.NoteOnEvent(tick=0, channel=0, data=[50, 95]),
   midi.NoteOnEvent(tick=0, channel=0, data=[40, 79]),
   midi.NoteOffEvent(tick=240, channel=0, data=[50, 95]),
   midi.NoteOffEvent(tick=0, channel=0, data=[40, 79]),
   midi.NoteOnEvent(tick=0, channel=0, data=[52, 70]),
   midi.NoteOffEvent(tick=240, channel=0, data=[52, 70]),
   midi.NoteOnEvent(tick=0, channel=0, data=[40, 79]),
   midi.NoteOffEvent(tick=240, channel=0, data=[40, 79]),
   midi.NoteOnEvent(tick=0, channel=0, data=[40, 79]),
   midi.NoteOffEvent(tick=240, channel=0, data=[40, 79]),
   midi.NoteOnEvent(tick=0, channel=0, data=[40, 79]),
   midi.NoteOffEvent(tick=240, channel=0, data=[40, 79]),
   midi.NoteOnEvent(tick=0, channel=0, data=[40, 79]),
   midi.NoteOffEvent(tick=240, channel=0, data=[40, 79]),
   midi.NoteOnEvent(tick=0, channel=0, data=[40, 79]),
   midi.NoteOffEvent(tick=240, channel=0, data=[40, 79]),
   midi.NoteOnEvent(tick=0, channel=0, data=[40, 79]),
   midi.NoteOffEvent(tick=240, channel=0, data=[40, 79]),
   midi.NoteOnEvent(tick=0, channel=0, data=[50, 95]),
   midi.NoteOnEvent(tick=0, channel=0, data=[40, 79]),
   midi.NoteOffEvent(tick=240, channel=0, data=[50, 95]),
   midi.NoteOffEvent(tick=0, channel=0, data=[40, 79]),
   midi.NoteOnEvent(tick=0, channel=0, data=[52, 70]),
   midi.NoteOffEvent(tick=240, channel=0, data=[52, 70]),
   midi.NoteOnEvent(tick=0, channel=0, data=[40, 79]),
   midi.NoteOffEvent(tick=240, channel=0, data=[40, 79]),
   midi.NoteOnEvent(tick=0, channel=0, data=[40, 79]),
   midi.NoteOffEvent(tick=240, channel=0, data=[40, 79]),
   midi.NoteOnEvent(tick=0, channel=0, data=[40, 79]),
   midi.NoteOffEvent(tick=240, channel=0, data=[40, 79]),
   midi.NoteOnEvent(tick=0, channel=0, data=[40, 79]),
   midi.NoteOffEvent(tick=240, channel=0, data=[40, 79]),
   midi.NoteOnEvent(tick=0, channel=0, data=[40, 79]),
   midi.NoteOffEvent(tick=240, channel=0, data=[40, 79]),
   midi.NoteOnEvent(tick=0, channel=0, data=[40, 79]),
   midi.NoteOffEvent(tick=240, channel=0, data=[40, 79]),
   midi.NoteOnEvent(tick=0, channel=0, data=[50, 95]),
   midi.NoteOnEvent(tick=0, channel=0, data=[40, 79]),
   midi.NoteOffEvent(tick=240, channel=0, data=[50, 95]),
   midi.NoteOffEvent(tick=0, channel=0, data=[40, 79]),
   midi.NoteOnEvent(tick=0, channel=0, data=[52, 70]),
   midi.NoteOffEvent(tick=240, channel=0, data=[52, 70]),
   midi.NoteOnEvent(tick=0, channel=0, data=[40, 79]),
   midi.NoteOffEvent(tick=240, channel=0, data=[40, 79]),
   midi.NoteOnEvent(tick=0, channel=0, data=[40, 79]),
   midi.NoteOffEvent(tick=240, channel=0, data=[40, 79]),
   midi.NoteOnEvent(tick=0, channel=0, data=[40, 79]),
   midi.NoteOffEvent(tick=240, channel=0, data=[40, 79]),
   midi.NoteOnEvent(tick=0, channel=0, data=[40, 79]),
   midi.NoteOffEvent(tick=240, channel=0, data=[40, 79]),
   midi.NoteOnEvent(tick=0, channel=0, data=[40, 79]),
   midi.NoteOffEvent(tick=240, channel=0, data=[40, 79]),
   midi.NoteOnEvent(tick=0, channel=0, data=[40, 79]),
   midi.NoteOffEvent(tick=240, channel=0, data=[40, 79]),
   midi.NoteOnEvent(tick=0, channel=0, data=[50, 95]),
   midi.NoteOnEvent(tick=0, channel=0, data=[40, 79]),
   midi.NoteOffEvent(tick=240, channel=0, data=[50, 95]),
   midi.NoteOffEvent(tick=0, channel=0, data=[40, 79]),
   midi.NoteOnEvent(tick=0, channel=0, data=[52, 70]),
   midi.NoteOffEvent(tick=240, channel=0, data=[52, 70]),
   midi.NoteOnEvent(tick=0, channel=0, data=[40, 79]),
   midi.NoteOffEvent(tick=240, channel=0, data=[40, 79]),
   midi.NoteOnEvent(tick=0, channel=0, data=[40, 79]),
   midi.NoteOffEvent(tick=240, channel=0, data=[40, 79]),
   midi.NoteOnEvent(tick=0, channel=0, data=[40, 79]),
   midi.NoteOffEvent(tick=240, channel=0, data=[40, 79]),
   midi.NoteOnEvent(tick=0, channel=0, data=[40, 79]),
   midi.NoteOffEvent(tick=240, channel=0, data=[40, 79]),
   midi.NoteOnEvent(tick=0, channel=0, data=[40, 79]),
   midi.NoteOffEvent(tick=240, channel=0, data=[40, 79]),
   midi.NoteOnEvent(tick=0, channel=0, data=[40, 79]),
   midi.NoteOffEvent(tick=240, channel=0, data=[40, 79]),
   midi.NoteOnEvent(tick=0, channel=0, data=[50, 95]),
   midi.NoteOnEvent(tick=0, channel=0, data=[40, 79]),
   midi.NoteOffEvent(tick=240, channel=0, data=[50, 95]),
   midi.NoteOffEvent(tick=0, channel=0, data=[40, 79]),
   midi.NoteOnEvent(tick=0, channel=0, data=[52, 70]),
   midi.NoteOffEvent(tick=240, channel=0, data=[52, 70]),
   midi.NoteOnEvent(tick=0, channel=0, data=[40, 79]),
   midi.NoteOffEvent(tick=240, channel=0, data=[40, 79]),
   midi.NoteOnEvent(tick=0, channel=0, data=[40, 79]),
   midi.NoteOffEvent(tick=240, channel=0, data=[40, 79]),
   midi.NoteOnEvent(tick=0, channel=0, data=[40, 79]),
   midi.NoteOffEvent(tick=240, channel=0, data=[40, 79]),
   midi.NoteOnEvent(tick=0, channel=0, data=[40, 79]),
   midi.NoteOffEvent(tick=240, channel=0, data=[40, 79]),
   midi.NoteOnEvent(tick=0, channel=0, data=[40, 79]),
   midi.NoteOffEvent(tick=240, channel=0, data=[40, 79]),
   midi.NoteOnEvent(tick=0, channel=0, data=[40, 79]),
   midi.NoteOffEvent(tick=240, channel=0, data=[40, 79]),
   midi.NoteOnEvent(tick=0, channel=0, data=[50, 95]),
   midi.NoteOnEvent(tick=0, channel=0, data=[40, 79]),
   midi.NoteOffEvent(tick=240, channel=0, data=[50, 95]),
   midi.NoteOffEvent(tick=0, channel=0, data=[40, 79]),
   midi.NoteOnEvent(tick=0, channel=0, data=[52, 70]),
   midi.NoteOffEvent(tick=240, channel=0, data=[52, 70]),
   midi.NoteOnEvent(tick=0, channel=0, data=[40, 79]),
   midi.NoteOffEvent(tick=240, channel=0, data=[40, 79]),
   midi.NoteOnEvent(tick=0, channel=0, data=[40, 79]),
   midi.NoteOffEvent(tick=240, channel=0, data=[40, 79]),
   midi.NoteOnEvent(tick=0, channel=0, data=[40, 79]),
   midi.NoteOffEvent(tick=240, channel=0, data=[40, 79]),
   midi.NoteOnEvent(tick=0, channel=0, data=[40, 79]),
   midi.NoteOffEvent(tick=240, channel=0, data=[40, 79]),
   midi.NoteOnEvent(tick=0, channel=0, data=[40, 79]),
   midi.NoteOffEvent(tick=240, channel=0, data=[40, 79]),
   midi.NoteOnEvent(tick=0, channel=0, data=[40, 79]),
   midi.NoteOffEvent(tick=240, channel=0, data=[40, 79]),
   midi.NoteOnEvent(tick=0, channel=0, data=[55, 95]),
   midi.NoteOnEvent(tick=0, channel=0, data=[48, 79]),
   midi.NoteOffEvent(tick=960, channel=0, data=[55, 95]),
   midi.NoteOffEvent(tick=0, channel=0, data=[48, 79]),
   midi.NoteOnEvent(tick=0, channel=0, data=[54, 79]),
   midi.NoteOnEvent(tick=0, channel=0, data=[47, 79]),
   midi.NoteOffEvent(tick=480, channel=0, data=[54, 79]),
   midi.NoteOffEvent(tick=0, channel=0, data=[47, 79]),
   midi.NoteOnEvent(tick=0, channel=0, data=[55, 95]),
   midi.NoteOnEvent(tick=0, channel=0, data=[48, 79]),
   midi.NoteOffEvent(tick=960, channel=0, data=[55, 95]),
   midi.NoteOffEvent(tick=0, channel=0, data=[48, 79]),
   midi.NoteOnEvent(tick=0, channel=0, data=[54, 79]),
   midi.NoteOnEvent(tick=0, channel=0, data=[47, 79]),
   midi.NoteOffEvent(tick=480, channel=0, data=[54, 79]),
   midi.NoteOffEvent(tick=0, channel=0, data=[47, 79]),
   midi.NoteOnEvent(tick=0, channel=0, data=[55, 95]),
   midi.NoteOnEvent(tick=0, channel=0, data=[48, 79]),
   midi.NoteOffEvent(tick=480, channel=0, data=[55, 95]),
   midi.NoteOffEvent(tick=0, channel=0, data=[48, 79]),
   midi.NoteOnEvent(tick=0, channel=0, data=[57, 79]),
   midi.NoteOnEvent(tick=0, channel=0, data=[50, 95]),
   midi.NoteOffEvent(tick=480, channel=0, data=[57, 79]),
   midi.NoteOffEvent(tick=0, channel=0, data=[50, 95]),
   midi.NoteOnEvent(tick=0, channel=0, data=[59, 79]),
   midi.NoteOnEvent(tick=0, channel=0, data=[52, 95]),
   midi.NoteOffEvent(tick=3840, channel=0, data=[59, 79]),
   midi.NoteOffEvent(tick=0, channel=0, data=[52, 95]),
   midi.NoteOnEvent(tick=0, channel=0, data=[55, 95]),
   midi.NoteOnEvent(tick=0, channel=0, data=[48, 79]),
   midi.NoteOffEvent(tick=3840, channel=0, data=[55, 95]),
   midi.NoteOffEvent(tick=0, channel=0, data=[48, 79]),
   midi.NoteOnEvent(tick=0, channel=0, data=[55, 95]),
   midi.NoteOnEvent(tick=0, channel=0, data=[48, 79]),
   midi.PitchWheelEvent(tick=120, channel=0, data=[0, 66]),
   midi.PitchWheelEvent(tick=0, channel=0, data=[0, 66]),
   midi.PitchWheelEvent(tick=120, channel=0, data=[0, 69]),
   midi.PitchWheelEvent(tick=0, channel=0, data=[0, 69]),
   midi.PitchWheelEvent(tick=120, channel=0, data=[0, 72]),
   midi.PitchWheelEvent(tick=0, channel=0, data=[0, 72]),
   midi.PitchWheelEvent(tick=120, channel=0, data=[0, 75]),
   midi.PitchWheelEvent(tick=0, channel=0, data=[0, 64]),
   midi.NoteOffEvent(tick=0, channel=0, data=[55, 95]),
   midi.PitchWheelEvent(tick=0, channel=0, data=[0, 75]),
   midi.PitchWheelEvent(tick=0, channel=0, data=[0, 64]),
   midi.NoteOffEvent(tick=0, channel=0, data=[48, 79]),
   midi.NoteOnEvent(tick=0, channel=0, data=[57, 95]),
   midi.NoteOnEvent(tick=0, channel=0, data=[50, 95]),
   midi.NoteOffEvent(tick=3360, channel=0, data=[57, 95]),
   midi.NoteOffEvent(tick=0, channel=0, data=[50, 95]),
   midi.NoteOnEvent(tick=0, channel=0, data=[55, 95]),
   midi.NoteOnEvent(tick=0, channel=0, data=[48, 79]),
   midi.NoteOffEvent(tick=960, channel=0, data=[55, 95]),
   midi.NoteOffEvent(tick=0, channel=0, data=[48, 79]),
   midi.NoteOnEvent(tick=0, channel=0, data=[54, 79]),
   midi.NoteOnEvent(tick=0, channel=0, data=[47, 79]),
   midi.NoteOffEvent(tick=480, channel=0, data=[54, 79]),
   midi.NoteOffEvent(tick=0, channel=0, data=[47, 79]),
   midi.NoteOnEvent(tick=0, channel=0, data=[55, 95]),
   midi.NoteOnEvent(tick=0, channel=0, data=[48, 79]),
   midi.NoteOffEvent(tick=960, channel=0, data=[55, 95]),
   midi.NoteOffEvent(tick=0, channel=0, data=[48, 79]),
   midi.NoteOnEvent(tick=0, channel=0, data=[54, 79]),
   midi.NoteOnEvent(tick=0, channel=0, data=[47, 79]),
   midi.NoteOffEvent(tick=480, channel=0, data=[54, 79]),
   midi.NoteOffEvent(tick=0, channel=0, data=[47, 79]),
   midi.NoteOnEvent(tick=0, channel=0, data=[55, 95]),
   midi.NoteOnEvent(tick=0, channel=0, data=[48, 79]),
   midi.NoteOffEvent(tick=480, channel=0, data=[55, 95]),
   midi.NoteOffEvent(tick=0, channel=0, data=[48, 79]),
   midi.NoteOnEvent(tick=0, channel=0, data=[57, 79]),
   midi.NoteOnEvent(tick=0, channel=0, data=[50, 95]),
   midi.NoteOffEvent(tick=480, channel=0, data=[57, 79]),
   midi.NoteOffEvent(tick=0, channel=0, data=[50, 95]),
   midi.NoteOnEvent(tick=0, channel=0, data=[59, 79]),
   midi.NoteOnEvent(tick=0, channel=0, data=[52, 95]),
   midi.NoteOffEvent(tick=3840, channel=0, data=[59, 79]),
   midi.NoteOffEvent(tick=0, channel=0, data=[52, 95]),
   midi.NoteOnEvent(tick=0, channel=0, data=[55, 95]),
   midi.NoteOnEvent(tick=0, channel=0, data=[48, 79]),
   midi.NoteOffEvent(tick=3840, channel=0, data=[55, 95]),
   midi.NoteOffEvent(tick=0, channel=0, data=[48, 79]),
   midi.NoteOnEvent(tick=0, channel=0, data=[55, 95]),
   midi.NoteOnEvent(tick=0, channel=0, data=[48, 79]),
   midi.PitchWheelEvent(tick=120, channel=0, data=[0, 66]),
   midi.PitchWheelEvent(tick=0, channel=0, data=[0, 66]),
   midi.PitchWheelEvent(tick=120, channel=0, data=[0, 69]),
   midi.PitchWheelEvent(tick=0, channel=0, data=[0, 69]),
   midi.PitchWheelEvent(tick=120, channel=0, data=[0, 72]),
   midi.PitchWheelEvent(tick=0, channel=0, data=[0, 72]),
   midi.PitchWheelEvent(tick=120, channel=0, data=[0, 75]),
   midi.PitchWheelEvent(tick=0, channel=0, data=[0, 64]),
   midi.NoteOffEvent(tick=0, channel=0, data=[55, 95]),
   midi.PitchWheelEvent(tick=0, channel=0, data=[0, 75]),
   midi.PitchWheelEvent(tick=0, channel=0, data=[0, 64]),
   midi.NoteOffEvent(tick=0, channel=0, data=[48, 79]),
   midi.NoteOnEvent(tick=0, channel=0, data=[57, 95]),
   midi.NoteOnEvent(tick=0, channel=0, data=[50, 95]),
   midi.NoteOffEvent(tick=3360, channel=0, data=[57, 95]),
   midi.NoteOffEvent(tick=0, channel=0, data=[50, 95]),
   midi.NoteOnEvent(tick=0, channel=0, data=[55, 95]),
   midi.NoteOnEvent(tick=0, channel=0, data=[48, 79]),
   midi.NoteOffEvent(tick=960, channel=0, data=[55, 95]),
   midi.NoteOffEvent(tick=0, channel=0, data=[48, 79]),
   midi.NoteOnEvent(tick=0, channel=0, data=[54, 79]),
   midi.NoteOnEvent(tick=0, channel=0, data=[47, 79]),
   midi.NoteOffEvent(tick=480, channel=0, data=[54, 79]),
   midi.NoteOffEvent(tick=0, channel=0, data=[47, 79]),
   midi.NoteOnEvent(tick=0, channel=0, data=[55, 95]),
   midi.NoteOnEvent(tick=0, channel=0, data=[48, 79]),
   midi.NoteOffEvent(tick=960, channel=0, data=[55, 95]),
   midi.NoteOffEvent(tick=0, channel=0, data=[48, 79]),
   midi.NoteOnEvent(tick=0, channel=0, data=[54, 79]),
   midi.NoteOnEvent(tick=0, channel=0, data=[47, 79]),
   midi.NoteOffEvent(tick=480, channel=0, data=[54, 79]),
   midi.NoteOffEvent(tick=0, channel=0, data=[47, 79]),
   midi.NoteOnEvent(tick=0, channel=0, data=[55, 95]),
   midi.NoteOnEvent(tick=0, channel=0, data=[48, 79]),
   midi.NoteOffEvent(tick=480, channel=0, data=[55, 95]),
   midi.NoteOffEvent(tick=0, channel=0, data=[48, 79]),
   midi.NoteOnEvent(tick=0, channel=0, data=[57, 79]),
   midi.NoteOnEvent(tick=0, channel=0, data=[50, 95]),
   midi.NoteOffEvent(tick=480, channel=0, data=[57, 79]),
   midi.NoteOffEvent(tick=0, channel=0, data=[50, 95]),
   midi.NoteOnEvent(tick=0, channel=0, data=[59, 79]),
   midi.NoteOnEvent(tick=0, channel=0, data=[52, 95]),
   midi.NoteOffEvent(tick=3840, channel=0, data=[59, 79]),
   midi.NoteOffEvent(tick=0, channel=0, data=[52, 95]),
   midi.NoteOnEvent(tick=0, channel=0, data=[55, 95]),
   midi.NoteOnEvent(tick=0, channel=0, data=[48, 79]),
   midi.NoteOffEvent(tick=3840, channel=0, data=[55, 95]),
   midi.NoteOffEvent(tick=0, channel=0, data=[48, 79]),
   midi.NoteOnEvent(tick=0, channel=0, data=[55, 95]),
   midi.NoteOnEvent(tick=0, channel=0, data=[48, 79]),
   midi.PitchWheelEvent(tick=120, channel=0, data=[0, 66]),
   midi.PitchWheelEvent(tick=0, channel=0, data=[0, 66]),
   midi.PitchWheelEvent(tick=120, channel=0, data=[0, 69]),
   midi.PitchWheelEvent(tick=0, channel=0, data=[0, 69]),
   midi.PitchWheelEvent(tick=120, channel=0, data=[0, 72]),
   midi.PitchWheelEvent(tick=0, channel=0, data=[0, 72]),
   midi.PitchWheelEvent(tick=120, channel=0, data=[0, 75]),
   midi.PitchWheelEvent(tick=0, channel=0, data=[0, 64]),
   midi.NoteOffEvent(tick=0, channel=0, data=[55, 95]),
   midi.PitchWheelEvent(tick=0, channel=0, data=[0, 75]),
   midi.PitchWheelEvent(tick=0, channel=0, data=[0, 64]),
   midi.NoteOffEvent(tick=0, channel=0, data=[48, 79]),
   midi.NoteOnEvent(tick=0, channel=0, data=[57, 95]),
   midi.NoteOnEvent(tick=0, channel=0, data=[50, 95]),
   midi.NoteOffEvent(tick=3360, channel=0, data=[57, 95]),
   midi.NoteOffEvent(tick=0, channel=0, data=[50, 95]),
   midi.NoteOnEvent(tick=0, channel=0, data=[55, 95]),
   midi.NoteOnEvent(tick=0, channel=0, data=[48, 79]),
   midi.NoteOffEvent(tick=960, channel=0, data=[55, 95]),
   midi.NoteOffEvent(tick=0, channel=0, data=[48, 79]),
   midi.NoteOnEvent(tick=0, channel=0, data=[54, 79]),
   midi.NoteOnEvent(tick=0, channel=0, data=[47, 79]),
   midi.NoteOffEvent(tick=480, channel=0, data=[54, 79]),
   midi.NoteOffEvent(tick=0, channel=0, data=[47, 79]),
   midi.NoteOnEvent(tick=0, channel=0, data=[55, 95]),
   midi.NoteOnEvent(tick=0, channel=0, data=[48, 79]),
   midi.NoteOffEvent(tick=960, channel=0, data=[55, 95]),
   midi.NoteOffEvent(tick=0, channel=0, data=[48, 79]),
   midi.NoteOnEvent(tick=0, channel=0, data=[54, 79]),
   midi.NoteOnEvent(tick=0, channel=0, data=[47, 79]),
   midi.NoteOffEvent(tick=480, channel=0, data=[54, 79]),
   midi.NoteOffEvent(tick=0, channel=0, data=[47, 79]),
   midi.NoteOnEvent(tick=0, channel=0, data=[55, 95]),
   midi.NoteOnEvent(tick=0, channel=0, data=[48, 79]),
   midi.NoteOffEvent(tick=480, channel=0, data=[55, 95]),
   midi.NoteOffEvent(tick=0, channel=0, data=[48, 79]),
   midi.NoteOnEvent(tick=0, channel=0, data=[57, 79]),
   midi.NoteOnEvent(tick=0, channel=0, data=[50, 95]),
   midi.NoteOffEvent(tick=480, channel=0, data=[57, 79]),
   midi.NoteOffEvent(tick=0, channel=0, data=[50, 95]),
   midi.NoteOnEvent(tick=0, channel=0, data=[59, 79]),
   midi.NoteOnEvent(tick=0, channel=0, data=[52, 95]),
   midi.NoteOffEvent(tick=3840, channel=0, data=[59, 79]),
   midi.NoteOffEvent(tick=0, channel=0, data=[52, 95]),
   midi.NoteOnEvent(tick=0, channel=0, data=[55, 95]),
   midi.NoteOnEvent(tick=0, channel=0, data=[48, 79]),
   midi.NoteOffEvent(tick=3840, channel=0, data=[55, 95]),
   midi.NoteOffEvent(tick=0, channel=0, data=[48, 79]),
   midi.NoteOnEvent(tick=0, channel=0, data=[55, 95]),
   midi.NoteOnEvent(tick=0, channel=0, data=[48, 79]),
   midi.PitchWheelEvent(tick=120, channel=0, data=[0, 66]),
   midi.PitchWheelEvent(tick=0, channel=0, data=[0, 66]),
   midi.PitchWheelEvent(tick=120, channel=0, data=[0, 69]),
   midi.PitchWheelEvent(tick=0, channel=0, data=[0, 69]),
   midi.PitchWheelEvent(tick=120, channel=0, data=[0, 72]),
   midi.PitchWheelEvent(tick=0, channel=0, data=[0, 72]),
   midi.PitchWheelEvent(tick=120, channel=0, data=[0, 75]),
   midi.PitchWheelEvent(tick=0, channel=0, data=[0, 64]),
   midi.NoteOffEvent(tick=0, channel=0, data=[55, 95]),
   midi.PitchWheelEvent(tick=0, channel=0, data=[0, 75]),
   midi.PitchWheelEvent(tick=0, channel=0, data=[0, 64]),
   midi.NoteOffEvent(tick=0, channel=0, data=[48, 79]),
   midi.NoteOnEvent(tick=0, channel=0, data=[57, 95]),
   midi.NoteOnEvent(tick=0, channel=0, data=[50, 95]),
   midi.NoteOffEvent(tick=3360, channel=0, data=[57, 95]),
   midi.NoteOffEvent(tick=0, channel=0, data=[50, 95]),
   midi.NoteOnEvent(tick=0, channel=0, data=[55, 95]),
   midi.NoteOnEvent(tick=0, channel=0, data=[48, 79]),
   midi.NoteOffEvent(tick=960, channel=0, data=[55, 95]),
   midi.NoteOffEvent(tick=0, channel=0, data=[48, 79]),
   midi.NoteOnEvent(tick=0, channel=0, data=[54, 79]),
   midi.NoteOnEvent(tick=0, channel=0, data=[47, 79]),
   midi.NoteOffEvent(tick=480, channel=0, data=[54, 79]),
   midi.NoteOffEvent(tick=0, channel=0, data=[47, 79]),
   midi.NoteOnEvent(tick=0, channel=0, data=[55, 95]),
   midi.NoteOnEvent(tick=0, channel=0, data=[48, 79]),
   midi.NoteOffEvent(tick=960, channel=0, data=[55, 95]),
   midi.NoteOffEvent(tick=0, channel=0, data=[48, 79]),
   midi.NoteOnEvent(tick=0, channel=0, data=[54, 79]),
   midi.NoteOnEvent(tick=0, channel=0, data=[47, 79]),
   midi.NoteOffEvent(tick=480, channel=0, data=[54, 79]),
   midi.NoteOffEvent(tick=0, channel=0, data=[47, 79]),
   midi.NoteOnEvent(tick=0, channel=0, data=[55, 95]),
   midi.NoteOnEvent(tick=0, channel=0, data=[48, 79]),
   midi.NoteOffEvent(tick=480, channel=0, data=[55, 95]),
   midi.NoteOffEvent(tick=0, channel=0, data=[48, 79]),
   midi.NoteOnEvent(tick=0, channel=0, data=[57, 79]),
   midi.NoteOnEvent(tick=0, channel=0, data=[50, 95]),
   midi.NoteOffEvent(tick=480, channel=0, data=[57, 79]),
   midi.NoteOffEvent(tick=0, channel=0, data=[50, 95]),
   midi.NoteOnEvent(tick=0, channel=0, data=[59, 79]),
   midi.NoteOnEvent(tick=0, channel=0, data=[52, 95]),
   midi.NoteOffEvent(tick=480, channel=0, data=[59, 79]),
   midi.NoteOffEvent(tick=0, channel=0, data=[52, 95]),
   midi.NoteOnEvent(tick=0, channel=0, data=[40, 79]),
   midi.NoteOffEvent(tick=240, channel=0, data=[40, 79]),
   midi.NoteOnEvent(tick=0, channel=0, data=[40, 79]),
   midi.NoteOffEvent(tick=240, channel=0, data=[40, 79]),
   midi.NoteOnEvent(tick=0, channel=0, data=[40, 79]),
   midi.NoteOffEvent(tick=240, channel=0, data=[40, 79]),
   midi.NoteOnEvent(tick=0, channel=0, data=[40, 79]),
   midi.NoteOffEvent(tick=240, channel=0, data=[40, 79]),
   midi.NoteOnEvent(tick=0, channel=0, data=[40, 79]),
   midi.NoteOffEvent(tick=240, channel=0, data=[40, 79]),
   midi.NoteOnEvent(tick=0, channel=0, data=[40, 79]),
   midi.NoteOffEvent(tick=240, channel=0, data=[40, 79]),
   midi.NoteOnEvent(tick=0, channel=0, data=[40, 79]),
   midi.NoteOffEvent(tick=240, channel=0, data=[40, 79]),
   midi.NoteOnEvent(tick=0, channel=0, data=[40, 79]),
   midi.NoteOffEvent(tick=240, channel=0, data=[40, 79]),
   midi.NoteOnEvent(tick=0, channel=0, data=[40, 79]),
   midi.NoteOffEvent(tick=240, channel=0, data=[40, 79]),
   midi.NoteOnEvent(tick=0, channel=0, data=[40, 79]),
   midi.NoteOffEvent(tick=240, channel=0, data=[40, 79]),
   midi.NoteOnEvent(tick=0, channel=0, data=[40, 79]),
   midi.NoteOffEvent(tick=240, channel=0, data=[40, 79]),
   midi.NoteOnEvent(tick=0, channel=0, data=[40, 79]),
   midi.NoteOffEvent(tick=240, channel=0, data=[40, 79]),
   midi.NoteOnEvent(tick=0, channel=0, data=[40, 79]),
   midi.NoteOffEvent(tick=240, channel=0, data=[40, 79]),
   midi.NoteOnEvent(tick=0, channel=0, data=[40, 79]),
   midi.NoteOffEvent(tick=240, channel=0, data=[40, 79]),
   midi.NoteOnEvent(tick=0, channel=0, data=[55, 95]),
   midi.NoteOnEvent(tick=0, channel=0, data=[48, 79]),
   midi.NoteOffEvent(tick=480, channel=0, data=[55, 95]),
   midi.NoteOffEvent(tick=0, channel=0, data=[48, 79]),
   midi.NoteOnEvent(tick=0, channel=0, data=[40, 79]),
   midi.NoteOffEvent(tick=240, channel=0, data=[40, 79]),
   midi.NoteOnEvent(tick=0, channel=0, data=[40, 79]),
   midi.NoteOffEvent(tick=240, channel=0, data=[40, 79]),
   midi.NoteOnEvent(tick=0, channel=0, data=[40, 79]),
   midi.NoteOffEvent(tick=240, channel=0, data=[40, 79]),
   midi.NoteOnEvent(tick=0, channel=0, data=[40, 79]),
   midi.NoteOffEvent(tick=240, channel=0, data=[40, 79]),
   midi.NoteOnEvent(tick=0, channel=0, data=[40, 79]),
   midi.NoteOffEvent(tick=240, channel=0, data=[40, 79]),
   midi.NoteOnEvent(tick=0, channel=0, data=[40, 79]),
   midi.NoteOffEvent(tick=240, channel=0, data=[40, 79]),
   midi.NoteOnEvent(tick=0, channel=0, data=[40, 79]),
   midi.NoteOffEvent(tick=240, channel=0, data=[40, 79]),
   midi.NoteOnEvent(tick=0, channel=0, data=[40, 79]),
   midi.NoteOffEvent(tick=240, channel=0, data=[40, 79]),
   midi.NoteOnEvent(tick=0, channel=0, data=[40, 79]),
   midi.NoteOffEvent(tick=240, channel=0, data=[40, 79]),
   midi.NoteOnEvent(tick=0, channel=0, data=[40, 79]),
   midi.NoteOffEvent(tick=240, channel=0, data=[40, 79]),
   midi.NoteOnEvent(tick=0, channel=0, data=[40, 79]),
   midi.NoteOffEvent(tick=240, channel=0, data=[40, 79]),
   midi.NoteOnEvent(tick=0, channel=0, data=[40, 79]),
   midi.NoteOffEvent(tick=240, channel=0, data=[40, 79]),
   midi.NoteOnEvent(tick=0, channel=0, data=[40, 79]),
   midi.NoteOffEvent(tick=240, channel=0, data=[40, 79]),
   midi.NoteOnEvent(tick=0, channel=0, data=[40, 79]),
   midi.NoteOffEvent(tick=240, channel=0, data=[40, 79]),
   midi.NoteOnEvent(tick=0, channel=0, data=[57, 79]),
   midi.NoteOnEvent(tick=0, channel=0, data=[50, 95]),
   midi.NoteOffEvent(tick=480, channel=0, data=[57, 79]),
   midi.NoteOffEvent(tick=0, channel=0, data=[50, 95]),
   midi.NoteOnEvent(tick=0, channel=0, data=[40, 79]),
   midi.NoteOffEvent(tick=240, channel=0, data=[40, 79]),
   midi.NoteOnEvent(tick=0, channel=0, data=[40, 79]),
   midi.NoteOffEvent(tick=240, channel=0, data=[40, 79]),
   midi.NoteOnEvent(tick=0, channel=0, data=[40, 79]),
   midi.NoteOffEvent(tick=240, channel=0, data=[40, 79]),
   midi.NoteOnEvent(tick=0, channel=0, data=[40, 79]),
   midi.NoteOffEvent(tick=240, channel=0, data=[40, 79]),
   midi.NoteOnEvent(tick=0, channel=0, data=[40, 79]),
   midi.NoteOffEvent(tick=240, channel=0, data=[40, 79]),
   midi.NoteOnEvent(tick=0, channel=0, data=[40, 79]),
   midi.NoteOffEvent(tick=240, channel=0, data=[40, 79]),
   midi.NoteOnEvent(tick=0, channel=0, data=[40, 79]),
   midi.NoteOffEvent(tick=240, channel=0, data=[40, 79]),
   midi.NoteOnEvent(tick=0, channel=0, data=[40, 79]),
   midi.NoteOffEvent(tick=240, channel=0, data=[40, 79]),
   midi.NoteOnEvent(tick=0, channel=0, data=[40, 79]),
   midi.NoteOffEvent(tick=240, channel=0, data=[40, 79]),
   midi.NoteOnEvent(tick=0, channel=0, data=[40, 79]),
   midi.NoteOffEvent(tick=240, channel=0, data=[40, 79]),
   midi.NoteOnEvent(tick=0, channel=0, data=[40, 79]),
   midi.NoteOffEvent(tick=240, channel=0, data=[40, 79]),
   midi.NoteOnEvent(tick=0, channel=0, data=[40, 79]),
   midi.NoteOffEvent(tick=240, channel=0, data=[40, 79]),
   midi.NoteOnEvent(tick=0, channel=0, data=[40, 79]),
   midi.NoteOffEvent(tick=240, channel=0, data=[40, 79]),
   midi.NoteOnEvent(tick=0, channel=0, data=[40, 79]),
   midi.NoteOffEvent(tick=240, channel=0, data=[40, 79]),
   midi.NoteOnEvent(tick=0, channel=0, data=[55, 95]),
   midi.NoteOnEvent(tick=0, channel=0, data=[48, 79]),
   midi.NoteOffEvent(tick=960, channel=0, data=[55, 95]),
   midi.NoteOffEvent(tick=0, channel=0, data=[48, 79]),
   midi.NoteOnEvent(tick=0, channel=0, data=[54, 79]),
   midi.NoteOnEvent(tick=0, channel=0, data=[47, 79]),
   midi.NoteOffEvent(tick=480, channel=0, data=[54, 79]),
   midi.NoteOffEvent(tick=0, channel=0, data=[47, 79]),
   midi.NoteOnEvent(tick=0, channel=0, data=[55, 95]),
   midi.NoteOnEvent(tick=0, channel=0, data=[48, 79]),
   midi.NoteOffEvent(tick=960, channel=0, data=[55, 95]),
   midi.NoteOffEvent(tick=0, channel=0, data=[48, 79]),
   midi.NoteOnEvent(tick=0, channel=0, data=[54, 79]),
   midi.NoteOnEvent(tick=0, channel=0, data=[47, 79]),
   midi.NoteOffEvent(tick=480, channel=0, data=[54, 79]),
   midi.NoteOffEvent(tick=0, channel=0, data=[47, 79]),
   midi.NoteOnEvent(tick=0, channel=0, data=[55, 95]),
   midi.NoteOnEvent(tick=0, channel=0, data=[48, 79]),
   midi.NoteOffEvent(tick=480, channel=0, data=[55, 95]),
   midi.NoteOffEvent(tick=0, channel=0, data=[48, 79]),
   midi.NoteOnEvent(tick=0, channel=0, data=[57, 79]),
   midi.NoteOnEvent(tick=0, channel=0, data=[50, 95]),
   midi.NoteOffEvent(tick=480, channel=0, data=[57, 79]),
   midi.NoteOffEvent(tick=0, channel=0, data=[50, 95]),
   midi.NoteOnEvent(tick=0, channel=0, data=[59, 79]),
   midi.NoteOnEvent(tick=0, channel=0, data=[52, 95]),
   midi.NoteOffEvent(tick=480, channel=0, data=[59, 79]),
   midi.NoteOffEvent(tick=0, channel=0, data=[52, 95]),
   midi.NoteOnEvent(tick=0, channel=0, data=[40, 79]),
   midi.NoteOffEvent(tick=240, channel=0, data=[40, 79]),
   midi.NoteOnEvent(tick=0, channel=0, data=[40, 79]),
   midi.NoteOffEvent(tick=240, channel=0, data=[40, 79]),
   midi.NoteOnEvent(tick=0, channel=0, data=[40, 79]),
   midi.NoteOffEvent(tick=240, channel=0, data=[40, 79]),
   midi.NoteOnEvent(tick=0, channel=0, data=[40, 79]),
   midi.NoteOffEvent(tick=240, channel=0, data=[40, 79]),
   midi.NoteOnEvent(tick=0, channel=0, data=[40, 79]),
   midi.NoteOffEvent(tick=240, channel=0, data=[40, 79]),
   midi.NoteOnEvent(tick=0, channel=0, data=[40, 79]),
   midi.NoteOffEvent(tick=240, channel=0, data=[40, 79]),
   midi.NoteOnEvent(tick=0, channel=0, data=[40, 79]),
   midi.NoteOffEvent(tick=240, channel=0, data=[40, 79]),
   midi.NoteOnEvent(tick=0, channel=0, data=[40, 79]),
   midi.NoteOffEvent(tick=240, channel=0, data=[40, 79]),
   midi.NoteOnEvent(tick=0, channel=0, data=[40, 79]),
   midi.NoteOffEvent(tick=240, channel=0, data=[40, 79]),
   midi.NoteOnEvent(tick=0, channel=0, data=[40, 79]),
   midi.NoteOffEvent(tick=240, channel=0, data=[40, 79]),
   midi.NoteOnEvent(tick=0, channel=0, data=[40, 79]),
   midi.NoteOffEvent(tick=240, channel=0, data=[40, 79]),
   midi.NoteOnEvent(tick=0, channel=0, data=[40, 79]),
   midi.NoteOffEvent(tick=240, channel=0, data=[40, 79]),
   midi.NoteOnEvent(tick=0, channel=0, data=[40, 79]),
   midi.NoteOffEvent(tick=240, channel=0, data=[40, 79]),
   midi.NoteOnEvent(tick=0, channel=0, data=[40, 79]),
   midi.NoteOffEvent(tick=240, channel=0, data=[40, 79]),
   midi.NoteOnEvent(tick=0, channel=0, data=[55, 95]),
   midi.NoteOnEvent(tick=0, channel=0, data=[48, 79]),
   midi.NoteOffEvent(tick=480, channel=0, data=[55, 95]),
   midi.NoteOffEvent(tick=0, channel=0, data=[48, 79]),
   midi.NoteOnEvent(tick=0, channel=0, data=[40, 79]),
   midi.NoteOffEvent(tick=240, channel=0, data=[40, 79]),
   midi.NoteOnEvent(tick=0, channel=0, data=[40, 79]),
   midi.NoteOffEvent(tick=240, channel=0, data=[40, 79]),
   midi.NoteOnEvent(tick=0, channel=0, data=[40, 79]),
   midi.NoteOffEvent(tick=240, channel=0, data=[40, 79]),
   midi.NoteOnEvent(tick=0, channel=0, data=[40, 79]),
   midi.NoteOffEvent(tick=240, channel=0, data=[40, 79]),
   midi.NoteOnEvent(tick=0, channel=0, data=[40, 79]),
   midi.NoteOffEvent(tick=240, channel=0, data=[40, 79]),
   midi.NoteOnEvent(tick=0, channel=0, data=[40, 79]),
   midi.NoteOffEvent(tick=240, channel=0, data=[40, 79]),
   midi.NoteOnEvent(tick=0, channel=0, data=[40, 79]),
   midi.NoteOffEvent(tick=240, channel=0, data=[40, 79]),
   midi.NoteOnEvent(tick=0, channel=0, data=[40, 79]),
   midi.NoteOffEvent(tick=240, channel=0, data=[40, 79]),
   midi.NoteOnEvent(tick=0, channel=0, data=[40, 79]),
   midi.NoteOffEvent(tick=240, channel=0, data=[40, 79]),
   midi.NoteOnEvent(tick=0, channel=0, data=[40, 79]),
   midi.NoteOffEvent(tick=240, channel=0, data=[40, 79]),
   midi.NoteOnEvent(tick=0, channel=0, data=[40, 79]),
   midi.NoteOffEvent(tick=240, channel=0, data=[40, 79]),
   midi.NoteOnEvent(tick=0, channel=0, data=[40, 79]),
   midi.NoteOffEvent(tick=240, channel=0, data=[40, 79]),
   midi.NoteOnEvent(tick=0, channel=0, data=[40, 79]),
   midi.NoteOffEvent(tick=240, channel=0, data=[40, 79]),
   midi.NoteOnEvent(tick=0, channel=0, data=[40, 79]),
   midi.NoteOffEvent(tick=240, channel=0, data=[40, 79]),
   midi.NoteOnEvent(tick=0, channel=0, data=[57, 79]),
   midi.NoteOnEvent(tick=0, channel=0, data=[50, 95]),
   midi.NoteOffEvent(tick=480, channel=0, data=[57, 79]),
   midi.NoteOffEvent(tick=0, channel=0, data=[50, 95]),
   midi.NoteOnEvent(tick=0, channel=0, data=[40, 79]),
   midi.NoteOffEvent(tick=240, channel=0, data=[40, 79]),
   midi.NoteOnEvent(tick=0, channel=0, data=[40, 79]),
   midi.NoteOffEvent(tick=240, channel=0, data=[40, 79]),
   midi.NoteOnEvent(tick=0, channel=0, data=[40, 79]),
   midi.NoteOffEvent(tick=240, channel=0, data=[40, 79]),
   midi.NoteOnEvent(tick=0, channel=0, data=[40, 79]),
   midi.NoteOffEvent(tick=240, channel=0, data=[40, 79]),
   midi.NoteOnEvent(tick=0, channel=0, data=[40, 79]),
   midi.NoteOffEvent(tick=240, channel=0, data=[40, 79]),
   midi.NoteOnEvent(tick=0, channel=0, data=[40, 79]),
   midi.NoteOffEvent(tick=240, channel=0, data=[40, 79]),
   midi.NoteOnEvent(tick=0, channel=0, data=[40, 79]),
   midi.NoteOffEvent(tick=240, channel=0, data=[40, 79]),
   midi.NoteOnEvent(tick=0, channel=0, data=[40, 79]),
   midi.NoteOffEvent(tick=240, channel=0, data=[40, 79]),
   midi.NoteOnEvent(tick=0, channel=0, data=[40, 79]),
   midi.NoteOffEvent(tick=240, channel=0, data=[40, 79]),
   midi.NoteOnEvent(tick=0, channel=0, data=[40, 79]),
   midi.NoteOffEvent(tick=240, channel=0, data=[40, 79]),
   midi.NoteOnEvent(tick=0, channel=0, data=[40, 79]),
   midi.NoteOffEvent(tick=240, channel=0, data=[40, 79]),
   midi.NoteOnEvent(tick=0, channel=0, data=[40, 79]),
   midi.NoteOffEvent(tick=240, channel=0, data=[40, 79]),
   midi.NoteOnEvent(tick=0, channel=0, data=[40, 79]),
   midi.NoteOffEvent(tick=240, channel=0, data=[40, 79]),
   midi.NoteOnEvent(tick=0, channel=0, data=[40, 79]),
   midi.NoteOffEvent(tick=240, channel=0, data=[40, 79]),
   midi.NoteOnEvent(tick=0, channel=0, data=[55, 95]),
   midi.NoteOnEvent(tick=0, channel=0, data=[48, 79]),
   midi.NoteOffEvent(tick=960, channel=0, data=[55, 95]),
   midi.NoteOffEvent(tick=0, channel=0, data=[48, 79]),
   midi.NoteOnEvent(tick=0, channel=0, data=[54, 79]),
   midi.NoteOnEvent(tick=0, channel=0, data=[47, 79]),
   midi.NoteOffEvent(tick=480, channel=0, data=[54, 79]),
   midi.NoteOffEvent(tick=0, channel=0, data=[47, 79]),
   midi.NoteOnEvent(tick=0, channel=0, data=[55, 95]),
   midi.NoteOnEvent(tick=0, channel=0, data=[48, 79]),
   midi.NoteOffEvent(tick=960, channel=0, data=[55, 95]),
   midi.NoteOffEvent(tick=0, channel=0, data=[48, 79]),
   midi.NoteOnEvent(tick=0, channel=0, data=[54, 79]),
   midi.NoteOnEvent(tick=0, channel=0, data=[47, 79]),
   midi.NoteOffEvent(tick=480, channel=0, data=[54, 79]),
   midi.NoteOffEvent(tick=0, channel=0, data=[47, 79]),
   midi.NoteOnEvent(tick=0, channel=0, data=[55, 95]),
   midi.NoteOnEvent(tick=0, channel=0, data=[48, 79]),
   midi.NoteOffEvent(tick=480, channel=0, data=[55, 95]),
   midi.NoteOffEvent(tick=0, channel=0, data=[48, 79]),
   midi.NoteOnEvent(tick=0, channel=0, data=[57, 79]),
   midi.NoteOnEvent(tick=0, channel=0, data=[50, 95]),
   midi.NoteOffEvent(tick=480, channel=0, data=[57, 79]),
   midi.NoteOffEvent(tick=0, channel=0, data=[50, 95]),
   midi.NoteOnEvent(tick=0, channel=0, data=[59, 79]),
   midi.NoteOnEvent(tick=0, channel=0, data=[52, 95]),
   midi.NoteOffEvent(tick=480, channel=0, data=[59, 79]),
   midi.NoteOffEvent(tick=0, channel=0, data=[52, 95]),
   midi.NoteOnEvent(tick=0, channel=0, data=[40, 79]),
   midi.NoteOffEvent(tick=240, channel=0, data=[40, 79]),
   midi.NoteOnEvent(tick=0, channel=0, data=[40, 79]),
   midi.NoteOffEvent(tick=240, channel=0, data=[40, 79]),
   midi.NoteOnEvent(tick=0, channel=0, data=[40, 79]),
   midi.NoteOffEvent(tick=240, channel=0, data=[40, 79]),
   midi.NoteOnEvent(tick=0, channel=0, data=[40, 79]),
   midi.NoteOffEvent(tick=240, channel=0, data=[40, 79]),
   midi.NoteOnEvent(tick=0, channel=0, data=[40, 79]),
   midi.NoteOffEvent(tick=240, channel=0, data=[40, 79]),
   midi.NoteOnEvent(tick=0, channel=0, data=[40, 79]),
   midi.NoteOffEvent(tick=240, channel=0, data=[40, 79]),
   midi.NoteOnEvent(tick=0, channel=0, data=[40, 79]),
   midi.NoteOffEvent(tick=240, channel=0, data=[40, 79]),
   midi.NoteOnEvent(tick=0, channel=0, data=[40, 79]),
   midi.NoteOffEvent(tick=240, channel=0, data=[40, 79]),
   midi.NoteOnEvent(tick=0, channel=0, data=[40, 79]),
   midi.NoteOffEvent(tick=240, channel=0, data=[40, 79]),
   midi.NoteOnEvent(tick=0, channel=0, data=[40, 79]),
   midi.NoteOffEvent(tick=240, channel=0, data=[40, 79]),
   midi.NoteOnEvent(tick=0, channel=0, data=[40, 79]),
   midi.NoteOffEvent(tick=240, channel=0, data=[40, 79]),
   midi.NoteOnEvent(tick=0, channel=0, data=[40, 79]),
   midi.NoteOffEvent(tick=240, channel=0, data=[40, 79]),
   midi.NoteOnEvent(tick=0, channel=0, data=[40, 79]),
   midi.NoteOffEvent(tick=240, channel=0, data=[40, 79]),
   midi.NoteOnEvent(tick=0, channel=0, data=[40, 79]),
   midi.NoteOffEvent(tick=240, channel=0, data=[40, 79]),
   midi.NoteOnEvent(tick=0, channel=0, data=[55, 95]),
   midi.NoteOnEvent(tick=0, channel=0, data=[48, 79]),
   midi.NoteOffEvent(tick=480, channel=0, data=[55, 95]),
   midi.NoteOffEvent(tick=0, channel=0, data=[48, 79]),
   midi.NoteOnEvent(tick=0, channel=0, data=[40, 79]),
   midi.NoteOffEvent(tick=240, channel=0, data=[40, 79]),
   midi.NoteOnEvent(tick=0, channel=0, data=[40, 79]),
   midi.NoteOffEvent(tick=240, channel=0, data=[40, 79]),
   midi.NoteOnEvent(tick=0, channel=0, data=[40, 79]),
   midi.NoteOffEvent(tick=240, channel=0, data=[40, 79]),
   midi.NoteOnEvent(tick=0, channel=0, data=[40, 79]),
   midi.NoteOffEvent(tick=240, channel=0, data=[40, 79]),
   midi.NoteOnEvent(tick=0, channel=0, data=[40, 79]),
   midi.NoteOffEvent(tick=240, channel=0, data=[40, 79]),
   midi.NoteOnEvent(tick=0, channel=0, data=[40, 79]),
   midi.NoteOffEvent(tick=240, channel=0, data=[40, 79]),
   midi.NoteOnEvent(tick=0, channel=0, data=[40, 79]),
   midi.NoteOffEvent(tick=240, channel=0, data=[40, 79]),
   midi.NoteOnEvent(tick=0, channel=0, data=[40, 79]),
   midi.NoteOffEvent(tick=240, channel=0, data=[40, 79]),
   midi.NoteOnEvent(tick=0, channel=0, data=[40, 79]),
   midi.NoteOffEvent(tick=240, channel=0, data=[40, 79]),
   midi.NoteOnEvent(tick=0, channel=0, data=[40, 79]),
   midi.NoteOffEvent(tick=240, channel=0, data=[40, 79]),
   midi.NoteOnEvent(tick=0, channel=0, data=[40, 79]),
   midi.NoteOffEvent(tick=240, channel=0, data=[40, 79]),
   midi.NoteOnEvent(tick=0, channel=0, data=[40, 79]),
   midi.NoteOffEvent(tick=240, channel=0, data=[40, 79]),
   midi.NoteOnEvent(tick=0, channel=0, data=[40, 79]),
   midi.NoteOffEvent(tick=240, channel=0, data=[40, 79]),
   midi.NoteOnEvent(tick=0, channel=0, data=[40, 79]),
   midi.NoteOffEvent(tick=240, channel=0, data=[40, 79]),
   midi.NoteOnEvent(tick=0, channel=0, data=[57, 79]),
   midi.NoteOnEvent(tick=0, channel=0, data=[50, 95]),
   midi.NoteOffEvent(tick=480, channel=0, data=[57, 79]),
   midi.NoteOffEvent(tick=0, channel=0, data=[50, 95]),
   midi.NoteOnEvent(tick=0, channel=0, data=[40, 79]),
   midi.NoteOffEvent(tick=240, channel=0, data=[40, 79]),
   midi.NoteOnEvent(tick=0, channel=0, data=[40, 79]),
   midi.NoteOffEvent(tick=240, channel=0, data=[40, 79]),
   midi.NoteOnEvent(tick=0, channel=0, data=[40, 79]),
   midi.NoteOffEvent(tick=240, channel=0, data=[40, 79]),
   midi.NoteOnEvent(tick=0, channel=0, data=[40, 79]),
   midi.NoteOffEvent(tick=240, channel=0, data=[40, 79]),
   midi.NoteOnEvent(tick=0, channel=0, data=[40, 79]),
   midi.NoteOffEvent(tick=240, channel=0, data=[40, 79]),
   midi.NoteOnEvent(tick=0, channel=0, data=[40, 79]),
   midi.NoteOffEvent(tick=240, channel=0, data=[40, 79]),
   midi.NoteOnEvent(tick=0, channel=0, data=[40, 79]),
   midi.NoteOffEvent(tick=240, channel=0, data=[40, 79]),
   midi.NoteOnEvent(tick=0, channel=0, data=[40, 79]),
   midi.NoteOffEvent(tick=240, channel=0, data=[40, 79]),
   midi.NoteOnEvent(tick=0, channel=0, data=[40, 79]),
   midi.NoteOffEvent(tick=240, channel=0, data=[40, 79]),
   midi.NoteOnEvent(tick=0, channel=0, data=[40, 79]),
   midi.NoteOffEvent(tick=240, channel=0, data=[40, 79]),
   midi.NoteOnEvent(tick=0, channel=0, data=[40, 79]),
   midi.NoteOffEvent(tick=240, channel=0, data=[40, 79]),
   midi.NoteOnEvent(tick=0, channel=0, data=[40, 79]),
   midi.NoteOffEvent(tick=240, channel=0, data=[40, 79]),
   midi.NoteOnEvent(tick=0, channel=0, data=[40, 79]),
   midi.NoteOffEvent(tick=240, channel=0, data=[40, 79]),
   midi.NoteOnEvent(tick=0, channel=0, data=[40, 79]),
   midi.NoteOffEvent(tick=240, channel=0, data=[40, 79]),
   midi.NoteOnEvent(tick=0, channel=0, data=[55, 95]),
   midi.NoteOnEvent(tick=0, channel=0, data=[48, 79]),
   midi.NoteOffEvent(tick=960, channel=0, data=[55, 95]),
   midi.NoteOffEvent(tick=0, channel=0, data=[48, 79]),
   midi.NoteOnEvent(tick=0, channel=0, data=[54, 79]),
   midi.NoteOnEvent(tick=0, channel=0, data=[47, 79]),
   midi.NoteOffEvent(tick=480, channel=0, data=[54, 79]),
   midi.NoteOffEvent(tick=0, channel=0, data=[47, 79]),
   midi.NoteOnEvent(tick=0, channel=0, data=[55, 95]),
   midi.NoteOnEvent(tick=0, channel=0, data=[48, 79]),
   midi.NoteOffEvent(tick=960, channel=0, data=[55, 95]),
   midi.NoteOffEvent(tick=0, channel=0, data=[48, 79]),
   midi.NoteOnEvent(tick=0, channel=0, data=[54, 79]),
   midi.NoteOnEvent(tick=0, channel=0, data=[47, 79]),
   midi.NoteOffEvent(tick=480, channel=0, data=[54, 79]),
   midi.NoteOffEvent(tick=0, channel=0, data=[47, 79]),
   midi.NoteOnEvent(tick=0, channel=0, data=[55, 95]),
   midi.NoteOnEvent(tick=0, channel=0, data=[48, 79]),
   midi.NoteOffEvent(tick=480, channel=0, data=[55, 95]),
   midi.NoteOffEvent(tick=0, channel=0, data=[48, 79]),
   midi.NoteOnEvent(tick=0, channel=0, data=[57, 79]),
   midi.NoteOnEvent(tick=0, channel=0, data=[50, 95]),
   midi.NoteOffEvent(tick=480, channel=0, data=[57, 79]),
   midi.NoteOffEvent(tick=0, channel=0, data=[50, 95]),
   midi.NoteOnEvent(tick=0, channel=0, data=[59, 79]),
   midi.NoteOnEvent(tick=0, channel=0, data=[52, 95]),
   midi.NoteOffEvent(tick=480, channel=0, data=[59, 79]),
   midi.NoteOffEvent(tick=0, channel=0, data=[52, 95]),
   midi.NoteOnEvent(tick=0, channel=0, data=[40, 79]),
   midi.NoteOffEvent(tick=240, channel=0, data=[40, 79]),
   midi.NoteOnEvent(tick=0, channel=0, data=[40, 79]),
   midi.NoteOffEvent(tick=240, channel=0, data=[40, 79]),
   midi.NoteOnEvent(tick=0, channel=0, data=[40, 79]),
   midi.NoteOffEvent(tick=240, channel=0, data=[40, 79]),
   midi.NoteOnEvent(tick=0, channel=0, data=[40, 79]),
   midi.NoteOffEvent(tick=240, channel=0, data=[40, 79]),
   midi.NoteOnEvent(tick=0, channel=0, data=[40, 79]),
   midi.NoteOffEvent(tick=240, channel=0, data=[40, 79]),
   midi.NoteOnEvent(tick=0, channel=0, data=[40, 79]),
   midi.NoteOffEvent(tick=240, channel=0, data=[40, 79]),
   midi.NoteOnEvent(tick=0, channel=0, data=[40, 79]),
   midi.NoteOffEvent(tick=240, channel=0, data=[40, 79]),
   midi.NoteOnEvent(tick=0, channel=0, data=[40, 79]),
   midi.NoteOffEvent(tick=240, channel=0, data=[40, 79]),
   midi.NoteOnEvent(tick=0, channel=0, data=[40, 79]),
   midi.NoteOffEvent(tick=240, channel=0, data=[40, 79]),
   midi.NoteOnEvent(tick=0, channel=0, data=[40, 79]),
   midi.NoteOffEvent(tick=240, channel=0, data=[40, 79]),
   midi.NoteOnEvent(tick=0, channel=0, data=[40, 79]),
   midi.NoteOffEvent(tick=240, channel=0, data=[40, 79]),
   midi.NoteOnEvent(tick=0, channel=0, data=[40, 79]),
   midi.NoteOffEvent(tick=240, channel=0, data=[40, 79]),
   midi.NoteOnEvent(tick=0, channel=0, data=[40, 79]),
   midi.NoteOffEvent(tick=240, channel=0, data=[40, 79]),
   midi.NoteOnEvent(tick=0, channel=0, data=[40, 79]),
   midi.NoteOffEvent(tick=240, channel=0, data=[40, 79]),
   midi.NoteOnEvent(tick=0, channel=0, data=[55, 95]),
   midi.NoteOnEvent(tick=0, channel=0, data=[48, 79]),
   midi.NoteOffEvent(tick=480, channel=0, data=[55, 95]),
   midi.NoteOffEvent(tick=0, channel=0, data=[48, 79]),
   midi.NoteOnEvent(tick=0, channel=0, data=[40, 79]),
   midi.NoteOffEvent(tick=240, channel=0, data=[40, 79]),
   midi.NoteOnEvent(tick=0, channel=0, data=[40, 79]),
   midi.NoteOffEvent(tick=240, channel=0, data=[40, 79]),
   midi.NoteOnEvent(tick=0, channel=0, data=[40, 79]),
   midi.NoteOffEvent(tick=240, channel=0, data=[40, 79]),
   midi.NoteOnEvent(tick=0, channel=0, data=[40, 79]),
   midi.NoteOffEvent(tick=240, channel=0, data=[40, 79]),
   midi.NoteOnEvent(tick=0, channel=0, data=[40, 79]),
   midi.NoteOffEvent(tick=240, channel=0, data=[40, 79]),
   midi.NoteOnEvent(tick=0, channel=0, data=[40, 79]),
   midi.NoteOffEvent(tick=240, channel=0, data=[40, 79]),
   midi.NoteOnEvent(tick=0, channel=0, data=[40, 79]),
   midi.NoteOffEvent(tick=240, channel=0, data=[40, 79]),
   midi.NoteOnEvent(tick=0, channel=0, data=[40, 79]),
   midi.NoteOffEvent(tick=240, channel=0, data=[40, 79]),
   midi.NoteOnEvent(tick=0, channel=0, data=[40, 79]),
   midi.NoteOffEvent(tick=240, channel=0, data=[40, 79]),
   midi.NoteOnEvent(tick=0, channel=0, data=[40, 79]),
   midi.NoteOffEvent(tick=240, channel=0, data=[40, 79]),
   midi.NoteOnEvent(tick=0, channel=0, data=[40, 79]),
   midi.NoteOffEvent(tick=240, channel=0, data=[40, 79]),
   midi.NoteOnEvent(tick=0, channel=0, data=[40, 79]),
   midi.NoteOffEvent(tick=240, channel=0, data=[40, 79]),
   midi.NoteOnEvent(tick=0, channel=0, data=[40, 79]),
   midi.NoteOffEvent(tick=240, channel=0, data=[40, 79]),
   midi.NoteOnEvent(tick=0, channel=0, data=[40, 79]),
   midi.NoteOffEvent(tick=240, channel=0, data=[40, 79]),
   midi.NoteOnEvent(tick=0, channel=0, data=[57, 79]),
   midi.NoteOnEvent(tick=0, channel=0, data=[50, 95]),
   midi.NoteOffEvent(tick=480, channel=0, data=[57, 79]),
   midi.NoteOffEvent(tick=0, channel=0, data=[50, 95]),
   midi.NoteOnEvent(tick=0, channel=0, data=[40, 79]),
   midi.NoteOffEvent(tick=240, channel=0, data=[40, 79]),
   midi.NoteOnEvent(tick=0, channel=0, data=[40, 79]),
   midi.NoteOffEvent(tick=240, channel=0, data=[40, 79]),
   midi.NoteOnEvent(tick=0, channel=0, data=[40, 79]),
   midi.NoteOffEvent(tick=240, channel=0, data=[40, 79]),
   midi.NoteOnEvent(tick=0, channel=0, data=[40, 79]),
   midi.NoteOffEvent(tick=240, channel=0, data=[40, 79]),
   midi.NoteOnEvent(tick=0, channel=0, data=[40, 79]),
   midi.NoteOffEvent(tick=240, channel=0, data=[40, 79]),
   midi.NoteOnEvent(tick=0, channel=0, data=[40, 79]),
   midi.NoteOffEvent(tick=240, channel=0, data=[40, 79]),
   midi.NoteOnEvent(tick=0, channel=0, data=[40, 79]),
   midi.NoteOffEvent(tick=240, channel=0, data=[40, 79]),
   midi.NoteOnEvent(tick=0, channel=0, data=[40, 79]),
   midi.NoteOffEvent(tick=240, channel=0, data=[40, 79]),
   midi.NoteOnEvent(tick=0, channel=0, data=[40, 79]),
   midi.NoteOffEvent(tick=240, channel=0, data=[40, 79]),
   midi.NoteOnEvent(tick=0, channel=0, data=[40, 79]),
   midi.NoteOffEvent(tick=240, channel=0, data=[40, 79]),
   midi.NoteOnEvent(tick=0, channel=0, data=[40, 79]),
   midi.NoteOffEvent(tick=240, channel=0, data=[40, 79]),
   midi.NoteOnEvent(tick=0, channel=0, data=[40, 79]),
   midi.NoteOffEvent(tick=240, channel=0, data=[40, 79]),
   midi.NoteOnEvent(tick=0, channel=0, data=[40, 79]),
   midi.NoteOffEvent(tick=240, channel=0, data=[40, 79]),
   midi.NoteOnEvent(tick=0, channel=0, data=[40, 79]),
   midi.NoteOffEvent(tick=240, channel=0, data=[40, 79]),
   midi.NoteOnEvent(tick=0, channel=0, data=[55, 95]),
   midi.NoteOnEvent(tick=0, channel=0, data=[48, 79]),
   midi.NoteOffEvent(tick=960, channel=0, data=[55, 95]),
   midi.NoteOffEvent(tick=0, channel=0, data=[48, 79]),
   midi.NoteOnEvent(tick=0, channel=0, data=[54, 79]),
   midi.NoteOnEvent(tick=0, channel=0, data=[47, 79]),
   midi.NoteOffEvent(tick=480, channel=0, data=[54, 79]),
   midi.NoteOffEvent(tick=0, channel=0, data=[47, 79]),
   midi.NoteOnEvent(tick=0, channel=0, data=[55, 95]),
   midi.NoteOnEvent(tick=0, channel=0, data=[48, 79]),
   midi.NoteOffEvent(tick=960, channel=0, data=[55, 95]),
   midi.NoteOffEvent(tick=0, channel=0, data=[48, 79]),
   midi.NoteOnEvent(tick=0, channel=0, data=[54, 79]),
   midi.NoteOnEvent(tick=0, channel=0, data=[47, 79]),
   midi.NoteOffEvent(tick=480, channel=0, data=[54, 79]),
   midi.NoteOffEvent(tick=0, channel=0, data=[47, 79]),
   midi.NoteOnEvent(tick=0, channel=0, data=[55, 95]),
   midi.NoteOnEvent(tick=0, channel=0, data=[48, 79]),
   midi.NoteOffEvent(tick=480, channel=0, data=[55, 95]),
   midi.NoteOffEvent(tick=0, channel=0, data=[48, 79]),
   midi.NoteOnEvent(tick=0, channel=0, data=[57, 79]),
   midi.NoteOnEvent(tick=0, channel=0, data=[50, 95]),
   midi.NoteOffEvent(tick=480, channel=0, data=[57, 79]),
   midi.NoteOffEvent(tick=0, channel=0, data=[50, 95]),
   midi.NoteOnEvent(tick=0, channel=0, data=[55, 95]),
   midi.NoteOnEvent(tick=0, channel=0, data=[48, 79]),
   midi.NoteOffEvent(tick=3360, channel=0, data=[55, 95]),
   midi.NoteOffEvent(tick=0, channel=0, data=[48, 79]),
   midi.NoteOnEvent(tick=0, channel=0, data=[55, 95]),
   midi.NoteOnEvent(tick=0, channel=0, data=[48, 79]),
   midi.PitchWheelEvent(tick=120, channel=0, data=[0, 68]),
   midi.PitchWheelEvent(tick=0, channel=0, data=[0, 68]),
   midi.PitchWheelEvent(tick=120, channel=0, data=[0, 72]),
   midi.PitchWheelEvent(tick=0, channel=0, data=[0, 72]),
   midi.PitchWheelEvent(tick=120, channel=0, data=[0, 76]),
   midi.PitchWheelEvent(tick=0, channel=0, data=[0, 76]),
   midi.PitchWheelEvent(tick=120, channel=0, data=[0, 80]),
   midi.PitchWheelEvent(tick=0, channel=0, data=[0, 64]),
   midi.NoteOffEvent(tick=0, channel=0, data=[55, 95]),
   midi.PitchWheelEvent(tick=0, channel=0, data=[0, 80]),
   midi.PitchWheelEvent(tick=0, channel=0, data=[0, 64]),
   midi.NoteOffEvent(tick=0, channel=0, data=[48, 79]),
   midi.NoteOnEvent(tick=0, channel=0, data=[58, 95]),
   midi.NoteOnEvent(tick=0, channel=0, data=[51, 95]),
   midi.NoteOffEvent(tick=3840, channel=0, data=[58, 95]),
   midi.NoteOffEvent(tick=0, channel=0, data=[51, 95]),
   midi.NoteOnEvent(tick=0, channel=0, data=[50, 95]),
   midi.NoteOnEvent(tick=0, channel=0, data=[43, 79]),
   midi.NoteOffEvent(tick=3360, channel=0, data=[50, 95]),
   midi.NoteOffEvent(tick=0, channel=0, data=[43, 79]),
   midi.NoteOnEvent(tick=0, channel=0, data=[50, 95]),
   midi.NoteOnEvent(tick=0, channel=0, data=[43, 79]),
   midi.NoteOffEvent(tick=480, channel=0, data=[50, 95]),
   midi.NoteOffEvent(tick=0, channel=0, data=[43, 79]),
   midi.NoteOnEvent(tick=0, channel=0, data=[52, 79]),
   midi.NoteOnEvent(tick=0, channel=0, data=[45, 95]),
   midi.PitchWheelEvent(tick=120, channel=0, data=[0, 62]),
   midi.PitchWheelEvent(tick=0, channel=0, data=[0, 62]),
   midi.PitchWheelEvent(tick=120, channel=0, data=[0, 59]),
   midi.PitchWheelEvent(tick=0, channel=0, data=[0, 59]),
   midi.PitchWheelEvent(tick=120, channel=0, data=[0, 56]),
   midi.PitchWheelEvent(tick=0, channel=0, data=[0, 56]),
   midi.PitchWheelEvent(tick=120, channel=0, data=[0, 53]),
   midi.PitchWheelEvent(tick=0, channel=0, data=[0, 53]),
   midi.PitchWheelEvent(tick=120, channel=0, data=[0, 51]),
   midi.PitchWheelEvent(tick=0, channel=0, data=[0, 51]),
   midi.PitchWheelEvent(tick=120, channel=0, data=[0, 48]),
   midi.PitchWheelEvent(tick=0, channel=0, data=[0, 48]),
   midi.PitchWheelEvent(tick=120, channel=0, data=[0, 45]),
   midi.PitchWheelEvent(tick=0, channel=0, data=[0, 45]),
   midi.PitchWheelEvent(tick=120, channel=0, data=[0, 42]),
   midi.PitchWheelEvent(tick=0, channel=0, data=[0, 64]),
   midi.NoteOffEvent(tick=0, channel=0, data=[52, 79]),
   midi.PitchWheelEvent(tick=0, channel=0, data=[0, 42]),
   midi.PitchWheelEvent(tick=0, channel=0, data=[0, 64]),
   midi.NoteOffEvent(tick=0, channel=0, data=[45, 95]),
   midi.NoteOnEvent(tick=0, channel=0, data=[48, 79]),
   midi.NoteOnEvent(tick=0, channel=0, data=[41, 79]),
   midi.NoteOffEvent(tick=960, channel=0, data=[48, 79]),
   midi.NoteOffEvent(tick=0, channel=0, data=[41, 79]),
   midi.NoteOnEvent(tick=0, channel=0, data=[53, 79]),
   midi.NoteOnEvent(tick=0, channel=0, data=[46, 95]),
   midi.PitchWheelEvent(tick=120, channel=0, data=[0, 64]),
   midi.PitchWheelEvent(tick=0, channel=0, data=[0, 64]),
   midi.PitchWheelEvent(tick=120, channel=0, data=[0, 63]),
   midi.PitchWheelEvent(tick=0, channel=0, data=[0, 63]),
   midi.PitchWheelEvent(tick=120, channel=0, data=[0, 62]),
   midi.PitchWheelEvent(tick=0, channel=0, data=[0, 62]),
   midi.PitchWheelEvent(tick=120, channel=0, data=[0, 62]),
   midi.PitchWheelEvent(tick=0, channel=0, data=[0, 62]),
   midi.PitchWheelEvent(tick=120, channel=0, data=[0, 61]),
   midi.PitchWheelEvent(tick=0, channel=0, data=[0, 61]),
   midi.PitchWheelEvent(tick=120, channel=0, data=[0, 60]),
   midi.PitchWheelEvent(tick=0, channel=0, data=[0, 60]),
   midi.PitchWheelEvent(tick=120, channel=0, data=[0, 60]),
   midi.PitchWheelEvent(tick=0, channel=0, data=[0, 60]),
   midi.PitchWheelEvent(tick=120, channel=0, data=[0, 59]),
   midi.PitchWheelEvent(tick=0, channel=0, data=[0, 64]),
   midi.NoteOffEvent(tick=0, channel=0, data=[53, 79]),
   midi.PitchWheelEvent(tick=0, channel=0, data=[0, 59]),
   midi.PitchWheelEvent(tick=0, channel=0, data=[0, 64]),
   midi.NoteOffEvent(tick=0, channel=0, data=[46, 95]),
   midi.NoteOnEvent(tick=0, channel=0, data=[52, 79]),
   midi.NoteOnEvent(tick=0, channel=0, data=[45, 95]),
   midi.NoteOffEvent(tick=960, channel=0, data=[52, 79]),
   midi.NoteOffEvent(tick=0, channel=0, data=[45, 95]),
   midi.NoteOnEvent(tick=0, channel=0, data=[55, 95]),
   midi.NoteOnEvent(tick=0, channel=0, data=[48, 79]),
   midi.NoteOffEvent(tick=3360, channel=0, data=[55, 95]),
   midi.NoteOffEvent(tick=0, channel=0, data=[48, 79]),
   midi.NoteOnEvent(tick=0, channel=0, data=[55, 95]),
   midi.NoteOnEvent(tick=0, channel=0, data=[48, 79]),
   midi.PitchWheelEvent(tick=120, channel=0, data=[0, 68]),
   midi.PitchWheelEvent(tick=0, channel=0, data=[0, 68]),
   midi.PitchWheelEvent(tick=120, channel=0, data=[0, 72]),
   midi.PitchWheelEvent(tick=0, channel=0, data=[0, 72]),
   midi.PitchWheelEvent(tick=120, channel=0, data=[0, 76]),
   midi.PitchWheelEvent(tick=0, channel=0, data=[0, 76]),
   midi.PitchWheelEvent(tick=120, channel=0, data=[0, 80]),
   midi.PitchWheelEvent(tick=0, channel=0, data=[0, 64]),
   midi.NoteOffEvent(tick=0, channel=0, data=[55, 95]),
   midi.PitchWheelEvent(tick=0, channel=0, data=[0, 80]),
   midi.PitchWheelEvent(tick=0, channel=0, data=[0, 64]),
   midi.NoteOffEvent(tick=0, channel=0, data=[48, 79]),
   midi.NoteOnEvent(tick=0, channel=0, data=[58, 95]),
   midi.NoteOnEvent(tick=0, channel=0, data=[51, 95]),
   midi.NoteOffEvent(tick=3840, channel=0, data=[58, 95]),
   midi.NoteOffEvent(tick=0, channel=0, data=[51, 95]),
   midi.NoteOnEvent(tick=0, channel=0, data=[48, 79]),
   midi.NoteOnEvent(tick=0, channel=0, data=[41, 79]),
   midi.NoteOffEvent(tick=3840, channel=0, data=[48, 79]),
   midi.NoteOffEvent(tick=0, channel=0, data=[41, 79]),
   midi.NoteOnEvent(tick=0, channel=0, data=[52, 79]),
   midi.NoteOnEvent(tick=0, channel=0, data=[45, 95]),
   midi.NoteOffEvent(tick=960, channel=0, data=[52, 79]),
   midi.NoteOffEvent(tick=0, channel=0, data=[45, 95]),
   midi.NoteOnEvent(tick=0, channel=0, data=[50, 95]),
   midi.NoteOnEvent(tick=0, channel=0, data=[43, 79]),
   midi.NoteOffEvent(tick=960, channel=0, data=[50, 95]),
   midi.NoteOffEvent(tick=0, channel=0, data=[43, 79]),
   midi.NoteOnEvent(tick=0, channel=0, data=[49, 79]),
   midi.NoteOnEvent(tick=0, channel=0, data=[42, 79]),
   midi.NoteOffEvent(tick=960, channel=0, data=[49, 79]),
   midi.NoteOffEvent(tick=0, channel=0, data=[42, 79]),
   midi.NoteOnEvent(tick=0, channel=0, data=[57, 79]),
   midi.NoteOnEvent(tick=0, channel=0, data=[50, 95]),
   midi.NoteOffEvent(tick=960, channel=0, data=[57, 79]),
   midi.NoteOffEvent(tick=0, channel=0, data=[50, 95]),
   midi.NoteOnEvent(tick=0, channel=0, data=[47, 79]),
   midi.NoteOnEvent(tick=0, channel=0, data=[40, 79]),
   midi.NoteOffEvent(tick=240, channel=0, data=[47, 79]),
   midi.NoteOffEvent(tick=0, channel=0, data=[40, 79]),
   midi.NoteOnEvent(tick=0, channel=0, data=[47, 79]),
   midi.NoteOnEvent(tick=0, channel=0, data=[40, 79]),
   midi.NoteOffEvent(tick=240, channel=0, data=[47, 79]),
   midi.NoteOffEvent(tick=0, channel=0, data=[40, 79]),
   midi.NoteOnEvent(tick=0, channel=0, data=[47, 79]),
   midi.NoteOnEvent(tick=0, channel=0, data=[40, 79]),
   midi.NoteOffEvent(tick=120, channel=0, data=[47, 79]),
   midi.NoteOffEvent(tick=0, channel=0, data=[40, 79]),
   midi.NoteOnEvent(tick=0, channel=0, data=[47, 79]),
   midi.NoteOnEvent(tick=0, channel=0, data=[40, 79]),
   midi.NoteOffEvent(tick=240, channel=0, data=[47, 79]),
   midi.NoteOffEvent(tick=0, channel=0, data=[40, 79]),
   midi.NoteOnEvent(tick=0, channel=0, data=[47, 79]),
   midi.NoteOnEvent(tick=0, channel=0, data=[40, 79]),
   midi.NoteOffEvent(tick=240, channel=0, data=[47, 79]),
   midi.NoteOffEvent(tick=0, channel=0, data=[40, 79]),
   midi.NoteOnEvent(tick=0, channel=0, data=[47, 79]),
   midi.NoteOnEvent(tick=0, channel=0, data=[40, 79]),
   midi.NoteOffEvent(tick=240, channel=0, data=[47, 79]),
   midi.NoteOffEvent(tick=0, channel=0, data=[40, 79]),
   midi.NoteOnEvent(tick=0, channel=0, data=[47, 79]),
   midi.NoteOnEvent(tick=0, channel=0, data=[40, 79]),
   midi.NoteOffEvent(tick=120, channel=0, data=[47, 79]),
   midi.NoteOffEvent(tick=0, channel=0, data=[40, 79]),
   midi.NoteOnEvent(tick=0, channel=0, data=[47, 79]),
   midi.NoteOnEvent(tick=0, channel=0, data=[40, 79]),
   midi.NoteOffEvent(tick=240, channel=0, data=[47, 79]),
   midi.NoteOffEvent(tick=0, channel=0, data=[40, 79]),
   midi.NoteOnEvent(tick=0, channel=0, data=[47, 79]),
   midi.NoteOnEvent(tick=0, channel=0, data=[40, 79]),
   midi.NoteOffEvent(tick=240, channel=0, data=[47, 79]),
   midi.NoteOffEvent(tick=0, channel=0, data=[40, 79]),
   midi.NoteOnEvent(tick=0, channel=0, data=[47, 79]),
   midi.NoteOnEvent(tick=0, channel=0, data=[40, 79]),
   midi.NoteOffEvent(tick=240, channel=0, data=[47, 79]),
   midi.NoteOffEvent(tick=0, channel=0, data=[40, 79]),
   midi.NoteOnEvent(tick=0, channel=0, data=[47, 79]),
   midi.NoteOnEvent(tick=0, channel=0, data=[40, 79]),
   midi.NoteOffEvent(tick=240, channel=0, data=[47, 79]),
   midi.NoteOffEvent(tick=0, channel=0, data=[40, 79]),
   midi.NoteOnEvent(tick=0, channel=0, data=[47, 79]),
   midi.NoteOnEvent(tick=0, channel=0, data=[40, 79]),
   midi.NoteOffEvent(tick=120, channel=0, data=[47, 79]),
   midi.NoteOffEvent(tick=0, channel=0, data=[40, 79]),
   midi.NoteOnEvent(tick=0, channel=0, data=[47, 79]),
   midi.NoteOnEvent(tick=0, channel=0, data=[40, 79]),
   midi.NoteOffEvent(tick=240, channel=0, data=[47, 79]),
   midi.NoteOffEvent(tick=0, channel=0, data=[40, 79]),
   midi.NoteOnEvent(tick=0, channel=0, data=[47, 79]),
   midi.NoteOnEvent(tick=0, channel=0, data=[40, 79]),
   midi.NoteOffEvent(tick=240, channel=0, data=[47, 79]),
   midi.NoteOffEvent(tick=0, channel=0, data=[40, 79]),
   midi.NoteOnEvent(tick=0, channel=0, data=[47, 79]),
   midi.NoteOnEvent(tick=0, channel=0, data=[40, 79]),
   midi.NoteOffEvent(tick=240, channel=0, data=[47, 79]),
   midi.NoteOffEvent(tick=0, channel=0, data=[40, 79]),
   midi.NoteOnEvent(tick=0, channel=0, data=[47, 79]),
   midi.NoteOnEvent(tick=0, channel=0, data=[40, 79]),
   midi.NoteOffEvent(tick=120, channel=0, data=[47, 79]),
   midi.NoteOffEvent(tick=0, channel=0, data=[40, 79]),
   midi.NoteOnEvent(tick=0, channel=0, data=[47, 79]),
   midi.NoteOnEvent(tick=0, channel=0, data=[40, 79]),
   midi.NoteOffEvent(tick=240, channel=0, data=[47, 79]),
   midi.NoteOffEvent(tick=0, channel=0, data=[40, 79]),
   midi.NoteOnEvent(tick=0, channel=0, data=[47, 79]),
   midi.NoteOnEvent(tick=0, channel=0, data=[40, 79]),
   midi.NoteOffEvent(tick=240, channel=0, data=[47, 79]),
   midi.NoteOffEvent(tick=3840, channel=0, data=[40, 79]),
   midi.NoteOnEvent(tick=0, channel=0, data=[59, 79]),
   midi.NoteOnEvent(tick=0, channel=0, data=[52, 95]),
   midi.NoteOnEvent(tick=0, channel=0, data=[40, 95]),
   midi.NoteOffEvent(tick=960, channel=0, data=[59, 79]),
   midi.NoteOffEvent(tick=0, channel=0, data=[52, 95]),
   midi.NoteOffEvent(tick=0, channel=0, data=[40, 95]),
   midi.EndOfTrackEvent(tick=0, data=[])]),
 midi.Track(\
  [midi.PitchWheelEvent(tick=0, channel=2, data=[0, 64]),
   midi.ControlChangeEvent(tick=0, channel=2, data=[7, 127]),
   midi.ControlChangeEvent(tick=0, channel=2, data=[10, 63]),
   midi.ControlChangeEvent(tick=0, channel=2, data=[93, 47]),
   midi.ControlChangeEvent(tick=0, channel=2, data=[91, 47]),
   midi.ControlChangeEvent(tick=0, channel=2, data=[95, 127]),
   midi.ControlChangeEvent(tick=0, channel=2, data=[92, 0]),
   midi.ControlChangeEvent(tick=0, channel=2, data=[11, 127]),
   midi.ProgramChangeEvent(tick=0, channel=2, data=[30]),
   midi.PitchWheelEvent(tick=30720, channel=2, data=[0, 64]),
   midi.NoteOnEvent(tick=0, channel=2, data=[79, 95]),
   midi.PitchWheelEvent(tick=14, channel=2, data=[0, 65]),
   midi.PitchWheelEvent(tick=14, channel=2, data=[0, 66]),
   midi.PitchWheelEvent(tick=14, channel=2, data=[0, 67]),
   midi.PitchWheelEvent(tick=14, channel=2, data=[0, 68]),
   midi.PitchWheelEvent(tick=14, channel=2, data=[0, 69]),
   midi.PitchWheelEvent(tick=14, channel=2, data=[0, 70]),
   midi.PitchWheelEvent(tick=14, channel=2, data=[0, 71]),
   midi.PitchWheelEvent(tick=14, channel=2, data=[0, 72]),
   midi.PitchWheelEvent(tick=14, channel=2, data=[0, 73]),
   midi.PitchWheelEvent(tick=14, channel=2, data=[0, 74]),
   midi.PitchWheelEvent(tick=14, channel=2, data=[0, 75]),
   midi.PitchWheelEvent(tick=6, channel=2, data=[0, 75]),
   midi.PitchWheelEvent(tick=320, channel=2, data=[0, 75]),
   midi.PitchWheelEvent(tick=480, channel=2, data=[0, 75]),
   midi.PitchWheelEvent(tick=43, channel=2, data=[0, 74]),
   midi.PitchWheelEvent(tick=43, channel=2, data=[0, 73]),
   midi.PitchWheelEvent(tick=43, channel=2, data=[0, 72]),
   midi.PitchWheelEvent(tick=43, channel=2, data=[0, 71]),
   midi.PitchWheelEvent(tick=43, channel=2, data=[0, 70]),
   midi.PitchWheelEvent(tick=43, channel=2, data=[0, 69]),
   midi.PitchWheelEvent(tick=43, channel=2, data=[0, 68]),
   midi.PitchWheelEvent(tick=43, channel=2, data=[0, 67]),
   midi.PitchWheelEvent(tick=43, channel=2, data=[0, 66]),
   midi.PitchWheelEvent(tick=43, channel=2, data=[0, 65]),
   midi.PitchWheelEvent(tick=43, channel=2, data=[0, 64]),
   midi.PitchWheelEvent(tick=7, channel=2, data=[0, 64]),
   midi.PitchWheelEvent(tick=480, channel=2, data=[0, 64]),
   midi.PitchWheelEvent(tick=0, channel=2, data=[0, 64]),
   midi.NoteOffEvent(tick=0, channel=2, data=[79, 95]),
   midi.PitchWheelEvent(tick=0, channel=2, data=[0, 64]),
   midi.NoteOnEvent(tick=0, channel=2, data=[79, 95]),
   midi.PitchWheelEvent(tick=19, channel=2, data=[0, 65]),
   midi.PitchWheelEvent(tick=19, channel=2, data=[0, 66]),
   midi.PitchWheelEvent(tick=19, channel=2, data=[0, 67]),
   midi.PitchWheelEvent(tick=19, channel=2, data=[0, 68]),
   midi.PitchWheelEvent(tick=19, channel=2, data=[0, 69]),
   midi.PitchWheelEvent(tick=19, channel=2, data=[0, 70]),
   midi.PitchWheelEvent(tick=19, channel=2, data=[0, 71]),
   midi.PitchWheelEvent(tick=19, channel=2, data=[0, 72]),
   midi.PitchWheelEvent(tick=19, channel=2, data=[0, 73]),
   midi.PitchWheelEvent(tick=19, channel=2, data=[0, 74]),
   midi.PitchWheelEvent(tick=19, channel=2, data=[0, 75]),
   midi.PitchWheelEvent(tick=4, channel=2, data=[0, 75]),
   midi.PitchWheelEvent(tick=213, channel=2, data=[0, 75]),
   midi.PitchWheelEvent(tick=19, channel=2, data=[0, 74]),
   midi.PitchWheelEvent(tick=19, channel=2, data=[0, 73]),
   midi.PitchWheelEvent(tick=19, channel=2, data=[0, 72]),
   midi.PitchWheelEvent(tick=19, channel=2, data=[0, 71]),
   midi.PitchWheelEvent(tick=19, channel=2, data=[0, 70]),
   midi.PitchWheelEvent(tick=19, channel=2, data=[0, 69]),
   midi.PitchWheelEvent(tick=19, channel=2, data=[0, 68]),
   midi.PitchWheelEvent(tick=19, channel=2, data=[0, 67]),
   midi.PitchWheelEvent(tick=19, channel=2, data=[0, 66]),
   midi.PitchWheelEvent(tick=19, channel=2, data=[0, 65]),
   midi.PitchWheelEvent(tick=19, channel=2, data=[0, 64]),
   midi.PitchWheelEvent(tick=5, channel=2, data=[0, 64]),
   midi.PitchWheelEvent(tick=213, channel=2, data=[0, 64]),
   midi.PitchWheelEvent(tick=19, channel=2, data=[0, 65]),
   midi.PitchWheelEvent(tick=19, channel=2, data=[0, 66]),
   midi.PitchWheelEvent(tick=19, channel=2, data=[0, 67]),
   midi.PitchWheelEvent(tick=19, channel=2, data=[0, 68]),
   midi.PitchWheelEvent(tick=19, channel=2, data=[0, 69]),
   midi.PitchWheelEvent(tick=19, channel=2, data=[0, 70]),
   midi.PitchWheelEvent(tick=19, channel=2, data=[0, 71]),
   midi.PitchWheelEvent(tick=19, channel=2, data=[0, 72]),
   midi.PitchWheelEvent(tick=19, channel=2, data=[0, 73]),
   midi.PitchWheelEvent(tick=19, channel=2, data=[0, 74]),
   midi.PitchWheelEvent(tick=19, channel=2, data=[0, 75]),
   midi.PitchWheelEvent(tick=4, channel=2, data=[0, 75]),
   midi.PitchWheelEvent(tick=214, channel=2, data=[0, 75]),
   midi.PitchWheelEvent(tick=0, channel=2, data=[0, 64]),
   midi.NoteOffEvent(tick=0, channel=2, data=[79, 95]),
   midi.NoteOnEvent(tick=0, channel=2, data=[81, 95]),
   midi.NoteOffEvent(tick=640, channel=2, data=[81, 95]),
   midi.PitchWheelEvent(tick=0, channel=2, data=[0, 64]),
   midi.NoteOnEvent(tick=0, channel=2, data=[84, 95]),
   midi.PitchWheelEvent(tick=50, channel=2, data=[0, 65]),
   midi.PitchWheelEvent(tick=50, channel=2, data=[0, 66]),
   midi.PitchWheelEvent(tick=50, channel=2, data=[0, 67]),
   midi.PitchWheelEvent(tick=50, channel=2, data=[0, 68]),
   midi.PitchWheelEvent(tick=50, channel=2, data=[0, 69]),
   midi.PitchWheelEvent(tick=50, channel=2, data=[0, 70]),
   midi.PitchWheelEvent(tick=50, channel=2, data=[0, 71]),
   midi.PitchWheelEvent(tick=50, channel=2, data=[0, 72]),
   midi.PitchWheelEvent(tick=50, channel=2, data=[0, 73]),
   midi.PitchWheelEvent(tick=50, channel=2, data=[0, 74]),
   midi.PitchWheelEvent(tick=50, channel=2, data=[0, 75]),
   midi.PitchWheelEvent(tick=10, channel=2, data=[0, 75]),
   midi.PitchWheelEvent(tick=560, channel=2, data=[0, 75]),
   midi.PitchWheelEvent(tick=50, channel=2, data=[0, 74]),
   midi.PitchWheelEvent(tick=50, channel=2, data=[0, 73]),
   midi.PitchWheelEvent(tick=50, channel=2, data=[0, 72]),
   midi.PitchWheelEvent(tick=50, channel=2, data=[0, 71]),
   midi.PitchWheelEvent(tick=50, channel=2, data=[0, 70]),
   midi.PitchWheelEvent(tick=50, channel=2, data=[0, 69]),
   midi.PitchWheelEvent(tick=50, channel=2, data=[0, 68]),
   midi.PitchWheelEvent(tick=50, channel=2, data=[0, 67]),
   midi.PitchWheelEvent(tick=50, channel=2, data=[0, 66]),
   midi.PitchWheelEvent(tick=50, channel=2, data=[0, 65]),
   midi.PitchWheelEvent(tick=50, channel=2, data=[0, 64]),
   midi.PitchWheelEvent(tick=10, channel=2, data=[0, 64]),
   midi.PitchWheelEvent(tick=560, channel=2, data=[0, 64]),
   midi.PitchWheelEvent(tick=50, channel=2, data=[0, 65]),
   midi.PitchWheelEvent(tick=50, channel=2, data=[0, 66]),
   midi.PitchWheelEvent(tick=50, channel=2, data=[0, 67]),
   midi.PitchWheelEvent(tick=50, channel=2, data=[0, 68]),
   midi.PitchWheelEvent(tick=50, channel=2, data=[0, 69]),
   midi.PitchWheelEvent(tick=50, channel=2, data=[0, 70]),
   midi.PitchWheelEvent(tick=50, channel=2, data=[0, 71]),
   midi.PitchWheelEvent(tick=50, channel=2, data=[0, 72]),
   midi.PitchWheelEvent(tick=50, channel=2, data=[0, 73]),
   midi.PitchWheelEvent(tick=50, channel=2, data=[0, 74]),
   midi.PitchWheelEvent(tick=50, channel=2, data=[0, 75]),
   midi.PitchWheelEvent(tick=10, channel=2, data=[0, 75]),
   midi.PitchWheelEvent(tick=560, channel=2, data=[0, 75]),
   midi.PitchWheelEvent(tick=0, channel=2, data=[0, 64]),
   midi.NoteOffEvent(tick=0, channel=2, data=[84, 95]),
   midi.NoteOnEvent(tick=0, channel=2, data=[84, 95]),
   midi.NoteOffEvent(tick=240, channel=2, data=[84, 95]),
   midi.NoteOnEvent(tick=0, channel=2, data=[81, 70]),
   midi.NoteOffEvent(tick=240, channel=2, data=[81, 70]),
   midi.NoteOnEvent(tick=0, channel=2, data=[83, 95]),
   midi.NoteOffEvent(tick=320, channel=2, data=[83, 95]),
   midi.NoteOnEvent(tick=0, channel=2, data=[81, 70]),
   midi.NoteOffEvent(tick=320, channel=2, data=[81, 70]),
   midi.NoteOnEvent(tick=0, channel=2, data=[84, 95]),
   midi.NoteOffEvent(tick=320, channel=2, data=[84, 95]),
   midi.NoteOnEvent(tick=0, channel=2, data=[81, 70]),
   midi.NoteOffEvent(tick=320, channel=2, data=[81, 70]),
   midi.NoteOnEvent(tick=0, channel=2, data=[86, 95]),
   midi.NoteOffEvent(tick=320, channel=2, data=[86, 95]),
   midi.NoteOnEvent(tick=0, channel=2, data=[83, 70]),
   midi.NoteOffEvent(tick=320, channel=2, data=[83, 70]),
   midi.NoteOnEvent(tick=0, channel=2, data=[81, 70]),
   midi.NoteOffEvent(tick=320, channel=2, data=[81, 70]),
   midi.NoteOnEvent(tick=0, channel=2, data=[83, 95]),
   midi.NoteOffEvent(tick=320, channel=2, data=[83, 95]),
   midi.NoteOnEvent(tick=0, channel=2, data=[81, 70]),
   midi.NoteOffEvent(tick=320, channel=2, data=[81, 70]),
   midi.NoteOnEvent(tick=0, channel=2, data=[86, 95]),
   midi.NoteOffEvent(tick=320, channel=2, data=[86, 95]),
   midi.NoteOnEvent(tick=0, channel=2, data=[83, 70]),
   midi.NoteOffEvent(tick=320, channel=2, data=[83, 70]),
   midi.NoteOnEvent(tick=0, channel=2, data=[81, 70]),
   midi.NoteOffEvent(tick=320, channel=2, data=[81, 70]),
   midi.NoteOnEvent(tick=0, channel=2, data=[83, 95]),
   midi.NoteOffEvent(tick=320, channel=2, data=[83, 95]),
   midi.NoteOnEvent(tick=0, channel=2, data=[81, 70]),
   midi.NoteOffEvent(tick=320, channel=2, data=[81, 70]),
   midi.NoteOnEvent(tick=0, channel=2, data=[86, 95]),
   midi.NoteOffEvent(tick=320, channel=2, data=[86, 95]),
   midi.NoteOnEvent(tick=0, channel=2, data=[83, 70]),
   midi.NoteOffEvent(tick=320, channel=2, data=[83, 70]),
   midi.NoteOnEvent(tick=0, channel=2, data=[84, 95]),
   midi.NoteOffEvent(tick=320, channel=2, data=[84, 95]),
   midi.NoteOnEvent(tick=0, channel=2, data=[81, 70]),
   midi.NoteOffEvent(tick=320, channel=2, data=[81, 70]),
   midi.NoteOnEvent(tick=0, channel=2, data=[79, 95]),
   midi.NoteOffEvent(tick=240, channel=2, data=[79, 95]),
   midi.NoteOnEvent(tick=0, channel=2, data=[76, 70]),
   midi.NoteOffEvent(tick=240, channel=2, data=[76, 70]),
   midi.PitchWheelEvent(tick=0, channel=2, data=[0, 64]),
   midi.NoteOnEvent(tick=0, channel=2, data=[79, 95]),
   midi.PitchWheelEvent(tick=21, channel=2, data=[0, 65]),
   midi.PitchWheelEvent(tick=21, channel=2, data=[0, 66]),
   midi.PitchWheelEvent(tick=21, channel=2, data=[0, 67]),
   midi.PitchWheelEvent(tick=21, channel=2, data=[0, 68]),
   midi.PitchWheelEvent(tick=21, channel=2, data=[0, 69]),
   midi.PitchWheelEvent(tick=21, channel=2, data=[0, 70]),
   midi.PitchWheelEvent(tick=21, channel=2, data=[0, 71]),
   midi.PitchWheelEvent(tick=21, channel=2, data=[0, 72]),
   midi.PitchWheelEvent(tick=21, channel=2, data=[0, 73]),
   midi.PitchWheelEvent(tick=21, channel=2, data=[0, 74]),
   midi.PitchWheelEvent(tick=21, channel=2, data=[0, 75]),
   midi.PitchWheelEvent(tick=9, channel=2, data=[0, 75]),
   midi.PitchWheelEvent(tick=480, channel=2, data=[0, 75]),
   midi.PitchWheelEvent(tick=720, channel=2, data=[0, 75]),
   midi.PitchWheelEvent(tick=0, channel=2, data=[0, 64]),
   midi.NoteOffEvent(tick=0, channel=2, data=[79, 95]),
   midi.NoteOnEvent(tick=0, channel=2, data=[57, 95]),
   midi.NoteOffEvent(tick=320, channel=2, data=[57, 95]),
   midi.NoteOnEvent(tick=0, channel=2, data=[59, 95]),
   midi.NoteOffEvent(tick=320, channel=2, data=[59, 95]),
   midi.NoteOnEvent(tick=0, channel=2, data=[60, 70]),
   midi.NoteOffEvent(tick=320, channel=2, data=[60, 70]),
   midi.NoteOnEvent(tick=0, channel=2, data=[62, 95]),
   midi.NoteOffEvent(tick=320, channel=2, data=[62, 95]),
   midi.NoteOnEvent(tick=0, channel=2, data=[60, 70]),
   midi.NoteOffEvent(tick=320, channel=2, data=[60, 70]),
   midi.NoteOnEvent(tick=0, channel=2, data=[59, 70]),
   midi.NoteOffEvent(tick=320, channel=2, data=[59, 70]),
   midi.NoteOnEvent(tick=0, channel=2, data=[62, 95]),
   midi.NoteOffEvent(tick=320, channel=2, data=[62, 95]),
   midi.NoteOnEvent(tick=0, channel=2, data=[60, 70]),
   midi.NoteOffEvent(tick=320, channel=2, data=[60, 70]),
   midi.NoteOnEvent(tick=0, channel=2, data=[59, 70]),
   midi.NoteOffEvent(tick=320, channel=2, data=[59, 70]),
   midi.NoteOnEvent(tick=0, channel=2, data=[57, 95]),
   midi.NoteOffEvent(tick=320, channel=2, data=[57, 95]),
   midi.NoteOnEvent(tick=0, channel=2, data=[55, 70]),
   midi.NoteOffEvent(tick=320, channel=2, data=[55, 70]),
   midi.NoteOnEvent(tick=0, channel=2, data=[54, 70]),
   midi.NoteOffEvent(tick=320, channel=2, data=[54, 70]),
   midi.NoteOnEvent(tick=0, channel=2, data=[55, 70]),
   midi.NoteOffEvent(tick=320, channel=2, data=[55, 70]),
   midi.NoteOnEvent(tick=0, channel=2, data=[59, 95]),
   midi.NoteOffEvent(tick=320, channel=2, data=[59, 95]),
   midi.NoteOnEvent(tick=0, channel=2, data=[60, 70]),
   midi.NoteOffEvent(tick=320, channel=2, data=[60, 70]),
   midi.NoteOnEvent(tick=0, channel=2, data=[62, 95]),
   midi.NoteOffEvent(tick=320, channel=2, data=[62, 95]),
   midi.NoteOnEvent(tick=0, channel=2, data=[60, 70]),
   midi.NoteOffEvent(tick=320, channel=2, data=[60, 70]),
   midi.NoteOnEvent(tick=0, channel=2, data=[59, 70]),
   midi.NoteOffEvent(tick=320, channel=2, data=[59, 70]),
   midi.PitchWheelEvent(tick=0, channel=2, data=[0, 64]),
   midi.NoteOnEvent(tick=0, channel=2, data=[62, 95]),
   midi.PitchWheelEvent(tick=10, channel=2, data=[0, 65]),
   midi.PitchWheelEvent(tick=10, channel=2, data=[0, 66]),
   midi.PitchWheelEvent(tick=10, channel=2, data=[0, 67]),
   midi.PitchWheelEvent(tick=10, channel=2, data=[0, 68]),
   midi.PitchWheelEvent(tick=10, channel=2, data=[0, 69]),
   midi.PitchWheelEvent(tick=10, channel=2, data=[0, 70]),
   midi.PitchWheelEvent(tick=10, channel=2, data=[0, 71]),
   midi.PitchWheelEvent(tick=10, channel=2, data=[0, 72]),
   midi.PitchWheelEvent(tick=10, channel=2, data=[0, 73]),
   midi.PitchWheelEvent(tick=10, channel=2, data=[0, 74]),
   midi.PitchWheelEvent(tick=10, channel=2, data=[0, 75]),
   midi.PitchWheelEvent(tick=10, channel=2, data=[0, 75]),
   midi.PitchWheelEvent(tick=240, channel=2, data=[0, 75]),
   midi.PitchWheelEvent(tick=360, channel=2, data=[0, 75]),
   midi.PitchWheelEvent(tick=32, channel=2, data=[0, 74]),
   midi.PitchWheelEvent(tick=32, channel=2, data=[0, 73]),
   midi.PitchWheelEvent(tick=32, channel=2, data=[0, 72]),
   midi.PitchWheelEvent(tick=32, channel=2, data=[0, 71]),
   midi.PitchWheelEvent(tick=32, channel=2, data=[0, 70]),
   midi.PitchWheelEvent(tick=32, channel=2, data=[0, 69]),
   midi.PitchWheelEvent(tick=32, channel=2, data=[0, 68]),
   midi.PitchWheelEvent(tick=32, channel=2, data=[0, 67]),
   midi.PitchWheelEvent(tick=32, channel=2, data=[0, 66]),
   midi.PitchWheelEvent(tick=32, channel=2, data=[0, 65]),
   midi.PitchWheelEvent(tick=32, channel=2, data=[0, 64]),
   midi.PitchWheelEvent(tick=8, channel=2, data=[0, 64]),
   midi.PitchWheelEvent(tick=360, channel=2, data=[0, 64]),
   midi.PitchWheelEvent(tick=0, channel=2, data=[0, 64]),
   midi.NoteOffEvent(tick=0, channel=2, data=[62, 95]),
   midi.NoteOnEvent(tick=0, channel=2, data=[74, 95]),
   midi.NoteOffEvent(tick=480, channel=2, data=[74, 95]),
   midi.NoteOnEvent(tick=0, channel=2, data=[84, 95]),
   midi.NoteOffEvent(tick=240, channel=2, data=[84, 95]),
   midi.NoteOnEvent(tick=0, channel=2, data=[81, 70]),
   midi.NoteOffEvent(tick=240, channel=2, data=[81, 70]),
   midi.NoteOnEvent(tick=0, channel=2, data=[86, 95]),
   midi.NoteOffEvent(tick=240, channel=2, data=[86, 95]),
   midi.NoteOnEvent(tick=0, channel=2, data=[83, 70]),
   midi.NoteOffEvent(tick=240, channel=2, data=[83, 70]),
   midi.NoteOnEvent(tick=0, channel=2, data=[84, 95]),
   midi.NoteOffEvent(tick=240, channel=2, data=[84, 95]),
   midi.NoteOnEvent(tick=0, channel=2, data=[81, 70]),
   midi.NoteOffEvent(tick=240, channel=2, data=[81, 70]),
   midi.NoteOnEvent(tick=0, channel=2, data=[86, 95]),
   midi.NoteOffEvent(tick=240, channel=2, data=[86, 95]),
   midi.NoteOnEvent(tick=0, channel=2, data=[83, 70]),
   midi.NoteOffEvent(tick=240, channel=2, data=[83, 70]),
   midi.NoteOnEvent(tick=0, channel=2, data=[81, 70]),
   midi.NoteOffEvent(tick=240, channel=2, data=[81, 70]),
   midi.NoteOnEvent(tick=0, channel=2, data=[84, 95]),
   midi.NoteOffEvent(tick=240, channel=2, data=[84, 95]),
   midi.NoteOnEvent(tick=0, channel=2, data=[83, 70]),
   midi.NoteOffEvent(tick=240, channel=2, data=[83, 70]),
   midi.NoteOnEvent(tick=0, channel=2, data=[81, 70]),
   midi.NoteOffEvent(tick=240, channel=2, data=[81, 70]),
   midi.NoteOnEvent(tick=0, channel=2, data=[86, 95]),
   midi.NoteOffEvent(tick=160, channel=2, data=[86, 95]),
   midi.NoteOnEvent(tick=0, channel=2, data=[83, 70]),
   midi.NoteOffEvent(tick=160, channel=2, data=[83, 70]),
   midi.NoteOnEvent(tick=0, channel=2, data=[81, 70]),
   midi.NoteOffEvent(tick=160, channel=2, data=[81, 70]),
   midi.NoteOnEvent(tick=0, channel=2, data=[84, 95]),
   midi.NoteOffEvent(tick=240, channel=2, data=[84, 95]),
   midi.NoteOnEvent(tick=0, channel=2, data=[81, 70]),
   midi.NoteOffEvent(tick=240, channel=2, data=[81, 70]),
   midi.PitchWheelEvent(tick=0, channel=2, data=[0, 64]),
   midi.NoteOnEvent(tick=0, channel=2, data=[79, 95]),
   midi.PitchWheelEvent(tick=58, channel=2, data=[0, 65]),
   midi.PitchWheelEvent(tick=58, channel=2, data=[0, 66]),
   midi.PitchWheelEvent(tick=58, channel=2, data=[0, 67]),
   midi.PitchWheelEvent(tick=58, channel=2, data=[0, 68]),
   midi.PitchWheelEvent(tick=58, channel=2, data=[0, 69]),
   midi.PitchWheelEvent(tick=58, channel=2, data=[0, 70]),
   midi.PitchWheelEvent(tick=58, channel=2, data=[0, 71]),
   midi.PitchWheelEvent(tick=58, channel=2, data=[0, 72]),
   midi.PitchWheelEvent(tick=58, channel=2, data=[0, 73]),
   midi.PitchWheelEvent(tick=58, channel=2, data=[0, 74]),
   midi.PitchWheelEvent(tick=58, channel=2, data=[0, 75]),
   midi.PitchWheelEvent(tick=2, channel=2, data=[0, 75]),
   midi.PitchWheelEvent(tick=640, channel=2, data=[0, 75]),
   midi.PitchWheelEvent(tick=58, channel=2, data=[0, 74]),
   midi.PitchWheelEvent(tick=58, channel=2, data=[0, 73]),
   midi.PitchWheelEvent(tick=58, channel=2, data=[0, 72]),
   midi.PitchWheelEvent(tick=58, channel=2, data=[0, 71]),
   midi.PitchWheelEvent(tick=58, channel=2, data=[0, 70]),
   midi.PitchWheelEvent(tick=58, channel=2, data=[0, 69]),
   midi.PitchWheelEvent(tick=58, channel=2, data=[0, 68]),
   midi.PitchWheelEvent(tick=58, channel=2, data=[0, 67]),
   midi.PitchWheelEvent(tick=58, channel=2, data=[0, 66]),
   midi.PitchWheelEvent(tick=58, channel=2, data=[0, 65]),
   midi.PitchWheelEvent(tick=58, channel=2, data=[0, 64]),
   midi.PitchWheelEvent(tick=2, channel=2, data=[0, 64]),
   midi.PitchWheelEvent(tick=640, channel=2, data=[0, 64]),
   midi.PitchWheelEvent(tick=58, channel=2, data=[0, 65]),
   midi.PitchWheelEvent(tick=58, channel=2, data=[0, 66]),
   midi.PitchWheelEvent(tick=58, channel=2, data=[0, 67]),
   midi.PitchWheelEvent(tick=58, channel=2, data=[0, 68]),
   midi.PitchWheelEvent(tick=58, channel=2, data=[0, 69]),
   midi.PitchWheelEvent(tick=58, channel=2, data=[0, 70]),
   midi.PitchWheelEvent(tick=58, channel=2, data=[0, 71]),
   midi.PitchWheelEvent(tick=58, channel=2, data=[0, 72]),
   midi.PitchWheelEvent(tick=58, channel=2, data=[0, 73]),
   midi.PitchWheelEvent(tick=58, channel=2, data=[0, 74]),
   midi.PitchWheelEvent(tick=58, channel=2, data=[0, 75]),
   midi.PitchWheelEvent(tick=2, channel=2, data=[0, 75]),
   midi.PitchWheelEvent(tick=640, channel=2, data=[0, 75]),
   midi.PitchWheelEvent(tick=0, channel=2, data=[0, 64]),
   midi.NoteOffEvent(tick=0, channel=2, data=[79, 95]),
   midi.PitchWheelEvent(tick=92160, channel=2, data=[0, 64]),
   midi.NoteOnEvent(tick=0, channel=2, data=[74, 95]),
   midi.PitchWheelEvent(tick=30, channel=2, data=[0, 63]),
   midi.PitchWheelEvent(tick=30, channel=2, data=[0, 62]),
   midi.PitchWheelEvent(tick=30, channel=2, data=[0, 61]),
   midi.PitchWheelEvent(tick=30, channel=2, data=[0, 60]),
   midi.PitchWheelEvent(tick=30, channel=2, data=[0, 59]),
   midi.PitchWheelEvent(tick=30, channel=2, data=[0, 58]),
   midi.PitchWheelEvent(tick=30, channel=2, data=[0, 57]),
   midi.PitchWheelEvent(tick=30, channel=2, data=[0, 56]),
   midi.PitchWheelEvent(tick=30, channel=2, data=[0, 55]),
   midi.PitchWheelEvent(tick=30, channel=2, data=[0, 54]),
   midi.PitchWheelEvent(tick=30, channel=2, data=[0, 53]),
   midi.PitchWheelEvent(tick=30, channel=2, data=[0, 52]),
   midi.PitchWheelEvent(tick=30, channel=2, data=[0, 51]),
   midi.PitchWheelEvent(tick=30, channel=2, data=[0, 50]),
   midi.PitchWheelEvent(tick=30, channel=2, data=[0, 49]),
   midi.PitchWheelEvent(tick=30, channel=2, data=[0, 48]),
   midi.PitchWheelEvent(tick=0, channel=2, data=[0, 48]),
   midi.PitchWheelEvent(tick=30, channel=2, data=[0, 49]),
   midi.PitchWheelEvent(tick=30, channel=2, data=[0, 50]),
   midi.PitchWheelEvent(tick=30, channel=2, data=[0, 51]),
   midi.PitchWheelEvent(tick=30, channel=2, data=[0, 52]),
   midi.PitchWheelEvent(tick=30, channel=2, data=[0, 53]),
   midi.PitchWheelEvent(tick=30, channel=2, data=[0, 54]),
   midi.PitchWheelEvent(tick=30, channel=2, data=[0, 55]),
   midi.PitchWheelEvent(tick=30, channel=2, data=[0, 56]),
   midi.PitchWheelEvent(tick=30, channel=2, data=[0, 57]),
   midi.PitchWheelEvent(tick=30, channel=2, data=[0, 58]),
   midi.PitchWheelEvent(tick=30, channel=2, data=[0, 59]),
   midi.PitchWheelEvent(tick=30, channel=2, data=[0, 60]),
   midi.PitchWheelEvent(tick=30, channel=2, data=[0, 61]),
   midi.PitchWheelEvent(tick=30, channel=2, data=[0, 62]),
   midi.PitchWheelEvent(tick=30, channel=2, data=[0, 63]),
   midi.PitchWheelEvent(tick=30, channel=2, data=[0, 64]),
   midi.PitchWheelEvent(tick=0, channel=2, data=[0, 64]),
   midi.PitchWheelEvent(tick=0, channel=2, data=[0, 64]),
   midi.NoteOffEvent(tick=0, channel=2, data=[74, 95]),
   midi.PitchWheelEvent(tick=0, channel=2, data=[0, 64]),
   midi.NoteOnEvent(tick=0, channel=2, data=[74, 47]),
   midi.PitchWheelEvent(tick=26, channel=2, data=[0, 63]),
   midi.PitchWheelEvent(tick=26, channel=2, data=[0, 62]),
   midi.PitchWheelEvent(tick=26, channel=2, data=[0, 61]),
   midi.PitchWheelEvent(tick=26, channel=2, data=[0, 60]),
   midi.PitchWheelEvent(tick=26, channel=2, data=[0, 59]),
   midi.PitchWheelEvent(tick=26, channel=2, data=[0, 58]),
   midi.PitchWheelEvent(tick=26, channel=2, data=[0, 57]),
   midi.PitchWheelEvent(tick=26, channel=2, data=[0, 56]),
   midi.PitchWheelEvent(tick=26, channel=2, data=[0, 55]),
   midi.PitchWheelEvent(tick=26, channel=2, data=[0, 54]),
   midi.PitchWheelEvent(tick=26, channel=2, data=[0, 53]),
   midi.PitchWheelEvent(tick=2, channel=2, data=[0, 53]),
   midi.PitchWheelEvent(tick=26, channel=2, data=[0, 54]),
   midi.PitchWheelEvent(tick=26, channel=2, data=[0, 55]),
   midi.PitchWheelEvent(tick=26, channel=2, data=[0, 56]),
   midi.PitchWheelEvent(tick=26, channel=2, data=[0, 57]),
   midi.PitchWheelEvent(tick=26, channel=2, data=[0, 58]),
   midi.PitchWheelEvent(tick=26, channel=2, data=[0, 59]),
   midi.PitchWheelEvent(tick=26, channel=2, data=[0, 60]),
   midi.PitchWheelEvent(tick=26, channel=2, data=[0, 61]),
   midi.PitchWheelEvent(tick=26, channel=2, data=[0, 62]),
   midi.PitchWheelEvent(tick=26, channel=2, data=[0, 63]),
   midi.PitchWheelEvent(tick=26, channel=2, data=[0, 64]),
   midi.PitchWheelEvent(tick=2, channel=2, data=[0, 64]),
   midi.PitchWheelEvent(tick=0, channel=2, data=[0, 64]),
   midi.NoteOffEvent(tick=0, channel=2, data=[74, 47]),
   midi.PitchWheelEvent(tick=0, channel=2, data=[0, 64]),
   midi.NoteOnEvent(tick=0, channel=2, data=[86, 95]),
   midi.PitchWheelEvent(tick=42, channel=2, data=[0, 63]),
   midi.PitchWheelEvent(tick=42, channel=2, data=[0, 62]),
   midi.PitchWheelEvent(tick=42, channel=2, data=[0, 61]),
   midi.PitchWheelEvent(tick=42, channel=2, data=[0, 60]),
   midi.PitchWheelEvent(tick=42, channel=2, data=[0, 59]),
   midi.PitchWheelEvent(tick=42, channel=2, data=[0, 58]),
   midi.PitchWheelEvent(tick=42, channel=2, data=[0, 57]),
   midi.PitchWheelEvent(tick=42, channel=2, data=[0, 56]),
   midi.PitchWheelEvent(tick=42, channel=2, data=[0, 55]),
   midi.PitchWheelEvent(tick=42, channel=2, data=[0, 54]),
   midi.PitchWheelEvent(tick=42, channel=2, data=[0, 53]),
   midi.PitchWheelEvent(tick=42, channel=2, data=[0, 52]),
   midi.PitchWheelEvent(tick=42, channel=2, data=[0, 51]),
   midi.PitchWheelEvent(tick=42, channel=2, data=[0, 50]),
   midi.PitchWheelEvent(tick=42, channel=2, data=[0, 49]),
   midi.PitchWheelEvent(tick=42, channel=2, data=[0, 48]),
   midi.PitchWheelEvent(tick=0, channel=2, data=[0, 48]),
   midi.PitchWheelEvent(tick=42, channel=2, data=[0, 49]),
   midi.PitchWheelEvent(tick=42, channel=2, data=[0, 50]),
   midi.PitchWheelEvent(tick=42, channel=2, data=[0, 51]),
   midi.PitchWheelEvent(tick=42, channel=2, data=[0, 52]),
   midi.PitchWheelEvent(tick=42, channel=2, data=[0, 53]),
   midi.PitchWheelEvent(tick=42, channel=2, data=[0, 54]),
   midi.PitchWheelEvent(tick=42, channel=2, data=[0, 55]),
   midi.PitchWheelEvent(tick=42, channel=2, data=[0, 56]),
   midi.PitchWheelEvent(tick=42, channel=2, data=[0, 57]),
   midi.PitchWheelEvent(tick=42, channel=2, data=[0, 58]),
   midi.PitchWheelEvent(tick=42, channel=2, data=[0, 59]),
   midi.PitchWheelEvent(tick=42, channel=2, data=[0, 60]),
   midi.PitchWheelEvent(tick=42, channel=2, data=[0, 61]),
   midi.PitchWheelEvent(tick=42, channel=2, data=[0, 62]),
   midi.PitchWheelEvent(tick=42, channel=2, data=[0, 63]),
   midi.PitchWheelEvent(tick=42, channel=2, data=[0, 64]),
   midi.PitchWheelEvent(tick=0, channel=2, data=[0, 64]),
   midi.PitchWheelEvent(tick=0, channel=2, data=[0, 64]),
   midi.NoteOffEvent(tick=0, channel=2, data=[86, 95]),
   midi.PitchWheelEvent(tick=0, channel=2, data=[0, 64]),
   midi.NoteOnEvent(tick=0, channel=2, data=[74, 95]),
   midi.PitchWheelEvent(tick=30, channel=2, data=[0, 63]),
   midi.PitchWheelEvent(tick=30, channel=2, data=[0, 62]),
   midi.PitchWheelEvent(tick=30, channel=2, data=[0, 61]),
   midi.PitchWheelEvent(tick=30, channel=2, data=[0, 60]),
   midi.PitchWheelEvent(tick=30, channel=2, data=[0, 59]),
   midi.PitchWheelEvent(tick=30, channel=2, data=[0, 58]),
   midi.PitchWheelEvent(tick=30, channel=2, data=[0, 57]),
   midi.PitchWheelEvent(tick=30, channel=2, data=[0, 56]),
   midi.PitchWheelEvent(tick=30, channel=2, data=[0, 55]),
   midi.PitchWheelEvent(tick=30, channel=2, data=[0, 54]),
   midi.PitchWheelEvent(tick=30, channel=2, data=[0, 53]),
   midi.PitchWheelEvent(tick=30, channel=2, data=[0, 52]),
   midi.PitchWheelEvent(tick=30, channel=2, data=[0, 51]),
   midi.PitchWheelEvent(tick=30, channel=2, data=[0, 50]),
   midi.PitchWheelEvent(tick=30, channel=2, data=[0, 49]),
   midi.PitchWheelEvent(tick=30, channel=2, data=[0, 48]),
   midi.PitchWheelEvent(tick=0, channel=2, data=[0, 48]),
   midi.PitchWheelEvent(tick=30, channel=2, data=[0, 49]),
   midi.PitchWheelEvent(tick=30, channel=2, data=[0, 50]),
   midi.PitchWheelEvent(tick=30, channel=2, data=[0, 51]),
   midi.PitchWheelEvent(tick=30, channel=2, data=[0, 52]),
   midi.PitchWheelEvent(tick=30, channel=2, data=[0, 53]),
   midi.PitchWheelEvent(tick=30, channel=2, data=[0, 54]),
   midi.PitchWheelEvent(tick=30, channel=2, data=[0, 55]),
   midi.PitchWheelEvent(tick=30, channel=2, data=[0, 56]),
   midi.PitchWheelEvent(tick=30, channel=2, data=[0, 57]),
   midi.PitchWheelEvent(tick=30, channel=2, data=[0, 58]),
   midi.PitchWheelEvent(tick=30, channel=2, data=[0, 59]),
   midi.PitchWheelEvent(tick=30, channel=2, data=[0, 60]),
   midi.PitchWheelEvent(tick=30, channel=2, data=[0, 61]),
   midi.PitchWheelEvent(tick=30, channel=2, data=[0, 62]),
   midi.PitchWheelEvent(tick=30, channel=2, data=[0, 63]),
   midi.PitchWheelEvent(tick=30, channel=2, data=[0, 64]),
   midi.PitchWheelEvent(tick=0, channel=2, data=[0, 64]),
   midi.PitchWheelEvent(tick=0, channel=2, data=[0, 64]),
   midi.NoteOffEvent(tick=0, channel=2, data=[74, 95]),
   midi.PitchWheelEvent(tick=0, channel=2, data=[0, 64]),
   midi.NoteOnEvent(tick=0, channel=2, data=[74, 95]),
   midi.PitchWheelEvent(tick=21, channel=2, data=[0, 63]),
   midi.PitchWheelEvent(tick=21, channel=2, data=[0, 62]),
   midi.PitchWheelEvent(tick=21, channel=2, data=[0, 61]),
   midi.PitchWheelEvent(tick=21, channel=2, data=[0, 60]),
   midi.PitchWheelEvent(tick=21, channel=2, data=[0, 59]),
   midi.PitchWheelEvent(tick=21, channel=2, data=[0, 58]),
   midi.PitchWheelEvent(tick=21, channel=2, data=[0, 57]),
   midi.PitchWheelEvent(tick=21, channel=2, data=[0, 56]),
   midi.PitchWheelEvent(tick=21, channel=2, data=[0, 55]),
   midi.PitchWheelEvent(tick=21, channel=2, data=[0, 54]),
   midi.PitchWheelEvent(tick=21, channel=2, data=[0, 53]),
   midi.PitchWheelEvent(tick=9, channel=2, data=[0, 53]),
   midi.PitchWheelEvent(tick=21, channel=2, data=[0, 54]),
   midi.PitchWheelEvent(tick=21, channel=2, data=[0, 55]),
   midi.PitchWheelEvent(tick=21, channel=2, data=[0, 56]),
   midi.PitchWheelEvent(tick=21, channel=2, data=[0, 57]),
   midi.PitchWheelEvent(tick=21, channel=2, data=[0, 58]),
   midi.PitchWheelEvent(tick=21, channel=2, data=[0, 59]),
   midi.PitchWheelEvent(tick=21, channel=2, data=[0, 60]),
   midi.PitchWheelEvent(tick=21, channel=2, data=[0, 61]),
   midi.PitchWheelEvent(tick=21, channel=2, data=[0, 62]),
   midi.PitchWheelEvent(tick=21, channel=2, data=[0, 63]),
   midi.PitchWheelEvent(tick=21, channel=2, data=[0, 64]),
   midi.PitchWheelEvent(tick=9, channel=2, data=[0, 64]),
   midi.PitchWheelEvent(tick=0, channel=2, data=[0, 64]),
   midi.NoteOffEvent(tick=0, channel=2, data=[74, 95]),
   midi.PitchWheelEvent(tick=0, channel=2, data=[0, 64]),
   midi.NoteOnEvent(tick=0, channel=2, data=[81, 95]),
   midi.PitchWheelEvent(tick=52, channel=2, data=[0, 63]),
   midi.PitchWheelEvent(tick=52, channel=2, data=[0, 62]),
   midi.PitchWheelEvent(tick=52, channel=2, data=[0, 61]),
   midi.PitchWheelEvent(tick=52, channel=2, data=[0, 60]),
   midi.PitchWheelEvent(tick=52, channel=2, data=[0, 59]),
   midi.PitchWheelEvent(tick=52, channel=2, data=[0, 58]),
   midi.PitchWheelEvent(tick=52, channel=2, data=[0, 57]),
   midi.PitchWheelEvent(tick=52, channel=2, data=[0, 56]),
   midi.PitchWheelEvent(tick=52, channel=2, data=[0, 55]),
   midi.PitchWheelEvent(tick=52, channel=2, data=[0, 54]),
   midi.PitchWheelEvent(tick=52, channel=2, data=[0, 53]),
   midi.PitchWheelEvent(tick=52, channel=2, data=[0, 52]),
   midi.PitchWheelEvent(tick=52, channel=2, data=[0, 51]),
   midi.PitchWheelEvent(tick=52, channel=2, data=[0, 50]),
   midi.PitchWheelEvent(tick=52, channel=2, data=[0, 49]),
   midi.PitchWheelEvent(tick=52, channel=2, data=[0, 48]),
   midi.PitchWheelEvent(tick=8, channel=2, data=[0, 48]),
   midi.PitchWheelEvent(tick=52, channel=2, data=[0, 49]),
   midi.PitchWheelEvent(tick=52, channel=2, data=[0, 50]),
   midi.PitchWheelEvent(tick=52, channel=2, data=[0, 51]),
   midi.PitchWheelEvent(tick=52, channel=2, data=[0, 52]),
   midi.PitchWheelEvent(tick=52, channel=2, data=[0, 53]),
   midi.PitchWheelEvent(tick=52, channel=2, data=[0, 54]),
   midi.PitchWheelEvent(tick=52, channel=2, data=[0, 55]),
   midi.PitchWheelEvent(tick=52, channel=2, data=[0, 56]),
   midi.PitchWheelEvent(tick=52, channel=2, data=[0, 57]),
   midi.PitchWheelEvent(tick=52, channel=2, data=[0, 58]),
   midi.PitchWheelEvent(tick=52, channel=2, data=[0, 59]),
   midi.PitchWheelEvent(tick=52, channel=2, data=[0, 60]),
   midi.PitchWheelEvent(tick=52, channel=2, data=[0, 61]),
   midi.PitchWheelEvent(tick=52, channel=2, data=[0, 62]),
   midi.PitchWheelEvent(tick=52, channel=2, data=[0, 63]),
   midi.PitchWheelEvent(tick=52, channel=2, data=[0, 64]),
   midi.PitchWheelEvent(tick=8, channel=2, data=[0, 64]),
   midi.PitchWheelEvent(tick=0, channel=2, data=[0, 64]),
   midi.NoteOffEvent(tick=0, channel=2, data=[81, 95]),
   midi.PitchWheelEvent(tick=0, channel=2, data=[0, 64]),
   midi.NoteOnEvent(tick=0, channel=2, data=[74, 95]),
   midi.PitchWheelEvent(tick=98, channel=2, data=[0, 63]),
   midi.PitchWheelEvent(tick=98, channel=2, data=[0, 62]),
   midi.PitchWheelEvent(tick=98, channel=2, data=[0, 61]),
   midi.PitchWheelEvent(tick=98, channel=2, data=[0, 60]),
   midi.PitchWheelEvent(tick=98, channel=2, data=[0, 59]),
   midi.PitchWheelEvent(tick=98, channel=2, data=[0, 58]),
   midi.PitchWheelEvent(tick=98, channel=2, data=[0, 57]),
   midi.PitchWheelEvent(tick=98, channel=2, data=[0, 56]),
   midi.PitchWheelEvent(tick=98, channel=2, data=[0, 55]),
   midi.PitchWheelEvent(tick=98, channel=2, data=[0, 54]),
   midi.PitchWheelEvent(tick=98, channel=2, data=[0, 53]),
   midi.PitchWheelEvent(tick=2, channel=2, data=[0, 53]),
   midi.PitchWheelEvent(tick=98, channel=2, data=[0, 54]),
   midi.PitchWheelEvent(tick=98, channel=2, data=[0, 55]),
   midi.PitchWheelEvent(tick=98, channel=2, data=[0, 56]),
   midi.PitchWheelEvent(tick=98, channel=2, data=[0, 57]),
   midi.PitchWheelEvent(tick=98, channel=2, data=[0, 58]),
   midi.PitchWheelEvent(tick=98, channel=2, data=[0, 59]),
   midi.PitchWheelEvent(tick=98, channel=2, data=[0, 60]),
   midi.PitchWheelEvent(tick=98, channel=2, data=[0, 61]),
   midi.PitchWheelEvent(tick=98, channel=2, data=[0, 62]),
   midi.PitchWheelEvent(tick=98, channel=2, data=[0, 63]),
   midi.PitchWheelEvent(tick=98, channel=2, data=[0, 64]),
   midi.PitchWheelEvent(tick=2, channel=2, data=[0, 64]),
   midi.PitchWheelEvent(tick=0, channel=2, data=[0, 64]),
   midi.NoteOffEvent(tick=0, channel=2, data=[74, 95]),
   midi.NoteOnEvent(tick=0, channel=2, data=[74, 95]),
   midi.PitchWheelEvent(tick=160, channel=2, data=[0, 64]),
   midi.PitchWheelEvent(tick=80, channel=2, data=[0, 65]),
   midi.PitchWheelEvent(tick=0, channel=2, data=[0, 64]),
   midi.NoteOffEvent(tick=0, channel=2, data=[74, 95]),
   midi.NoteOnEvent(tick=0, channel=2, data=[77, 70]),
   midi.PitchWheelEvent(tick=160, channel=2, data=[0, 64]),
   midi.PitchWheelEvent(tick=80, channel=2, data=[0, 65]),
   midi.PitchWheelEvent(tick=0, channel=2, data=[0, 64]),
   midi.NoteOffEvent(tick=0, channel=2, data=[77, 70]),
   midi.NoteOnEvent(tick=0, channel=2, data=[74, 70]),
   midi.PitchWheelEvent(tick=160, channel=2, data=[0, 64]),
   midi.PitchWheelEvent(tick=80, channel=2, data=[0, 65]),
   midi.PitchWheelEvent(tick=0, channel=2, data=[0, 64]),
   midi.NoteOffEvent(tick=0, channel=2, data=[74, 70]),
   midi.NoteOnEvent(tick=0, channel=2, data=[77, 70]),
   midi.PitchWheelEvent(tick=160, channel=2, data=[0, 64]),
   midi.PitchWheelEvent(tick=80, channel=2, data=[0, 65]),
   midi.PitchWheelEvent(tick=0, channel=2, data=[0, 64]),
   midi.NoteOffEvent(tick=0, channel=2, data=[77, 70]),
   midi.NoteOnEvent(tick=0, channel=2, data=[74, 70]),
   midi.PitchWheelEvent(tick=160, channel=2, data=[0, 64]),
   midi.PitchWheelEvent(tick=80, channel=2, data=[0, 65]),
   midi.PitchWheelEvent(tick=0, channel=2, data=[0, 64]),
   midi.NoteOffEvent(tick=0, channel=2, data=[74, 70]),
   midi.NoteOnEvent(tick=0, channel=2, data=[77, 70]),
   midi.PitchWheelEvent(tick=160, channel=2, data=[0, 64]),
   midi.PitchWheelEvent(tick=80, channel=2, data=[0, 65]),
   midi.PitchWheelEvent(tick=0, channel=2, data=[0, 64]),
   midi.NoteOffEvent(tick=0, channel=2, data=[77, 70]),
   midi.NoteOnEvent(tick=0, channel=2, data=[74, 70]),
   midi.PitchWheelEvent(tick=160, channel=2, data=[0, 64]),
   midi.PitchWheelEvent(tick=80, channel=2, data=[0, 65]),
   midi.PitchWheelEvent(tick=0, channel=2, data=[0, 64]),
   midi.NoteOffEvent(tick=0, channel=2, data=[74, 70]),
   midi.NoteOnEvent(tick=0, channel=2, data=[77, 70]),
   midi.PitchWheelEvent(tick=160, channel=2, data=[0, 64]),
   midi.PitchWheelEvent(tick=80, channel=2, data=[0, 65]),
   midi.PitchWheelEvent(tick=0, channel=2, data=[0, 64]),
   midi.NoteOffEvent(tick=0, channel=2, data=[77, 70]),
   midi.NoteOnEvent(tick=0, channel=2, data=[74, 70]),
   midi.PitchWheelEvent(tick=160, channel=2, data=[0, 64]),
   midi.PitchWheelEvent(tick=80, channel=2, data=[0, 65]),
   midi.PitchWheelEvent(tick=0, channel=2, data=[0, 64]),
   midi.NoteOffEvent(tick=0, channel=2, data=[74, 70]),
   midi.NoteOnEvent(tick=0, channel=2, data=[77, 70]),
   midi.PitchWheelEvent(tick=160, channel=2, data=[0, 64]),
   midi.PitchWheelEvent(tick=160, channel=2, data=[0, 65]),
   midi.PitchWheelEvent(tick=160, channel=2, data=[0, 64]),
   midi.PitchWheelEvent(tick=0, channel=2, data=[0, 65]),
   midi.PitchWheelEvent(tick=0, channel=2, data=[0, 64]),
   midi.NoteOffEvent(tick=0, channel=2, data=[77, 70]),
   midi.NoteOnEvent(tick=0, channel=2, data=[74, 70]),
   midi.PitchWheelEvent(tick=160, channel=2, data=[0, 64]),
   midi.PitchWheelEvent(tick=80, channel=2, data=[0, 65]),
   midi.PitchWheelEvent(tick=0, channel=2, data=[0, 64]),
   midi.NoteOffEvent(tick=0, channel=2, data=[74, 70]),
   midi.NoteOnEvent(tick=0, channel=2, data=[77, 70]),
   midi.PitchWheelEvent(tick=160, channel=2, data=[0, 64]),
   midi.PitchWheelEvent(tick=80, channel=2, data=[0, 65]),
   midi.PitchWheelEvent(tick=0, channel=2, data=[0, 64]),
   midi.NoteOffEvent(tick=0, channel=2, data=[77, 70]),
   midi.NoteOnEvent(tick=0, channel=2, data=[79, 70]),
   midi.PitchWheelEvent(tick=160, channel=2, data=[0, 64]),
   midi.PitchWheelEvent(tick=80, channel=2, data=[0, 65]),
   midi.PitchWheelEvent(tick=0, channel=2, data=[0, 64]),
   midi.NoteOffEvent(tick=0, channel=2, data=[79, 70]),
   midi.PitchWheelEvent(tick=0, channel=2, data=[0, 64]),
   midi.NoteOnEvent(tick=0, channel=2, data=[80, 95]),
   midi.PitchWheelEvent(tick=21, channel=2, data=[0, 65]),
   midi.PitchWheelEvent(tick=21, channel=2, data=[0, 66]),
   midi.PitchWheelEvent(tick=21, channel=2, data=[0, 67]),
   midi.PitchWheelEvent(tick=21, channel=2, data=[0, 68]),
   midi.PitchWheelEvent(tick=21, channel=2, data=[0, 69]),
   midi.PitchWheelEvent(tick=21, channel=2, data=[0, 70]),
   midi.PitchWheelEvent(tick=21, channel=2, data=[0, 71]),
   midi.PitchWheelEvent(tick=21, channel=2, data=[0, 72]),
   midi.PitchWheelEvent(tick=21, channel=2, data=[0, 73]),
   midi.PitchWheelEvent(tick=21, channel=2, data=[0, 74]),
   midi.PitchWheelEvent(tick=21, channel=2, data=[0, 75]),
   midi.PitchWheelEvent(tick=9, channel=2, data=[0, 75]),
   midi.PitchWheelEvent(tick=1200, channel=2, data=[0, 75]),
   midi.PitchWheelEvent(tick=1440, channel=2, data=[0, 75]),
   midi.PitchWheelEvent(tick=0, channel=2, data=[0, 64]),
   midi.NoteOffEvent(tick=0, channel=2, data=[80, 95]),
   midi.NoteOnEvent(tick=0, channel=2, data=[76, 95]),
   midi.NoteOffEvent(tick=480, channel=2, data=[76, 95]),
   midi.NoteOnEvent(tick=0, channel=2, data=[79, 95]),
   midi.NoteOffEvent(tick=480, channel=2, data=[79, 95]),
   midi.NoteOnEvent(tick=0, channel=2, data=[82, 95]),
   midi.NoteOffEvent(tick=192, channel=2, data=[82, 95]),
   midi.NoteOnEvent(tick=0, channel=2, data=[81, 70]),
   midi.NoteOffEvent(tick=192, channel=2, data=[81, 70]),
   midi.NoteOnEvent(tick=0, channel=2, data=[79, 70]),
   midi.NoteOffEvent(tick=192, channel=2, data=[79, 70]),
   midi.NoteOnEvent(tick=0, channel=2, data=[82, 95]),
   midi.NoteOffEvent(tick=192, channel=2, data=[82, 95]),
   midi.NoteOnEvent(tick=0, channel=2, data=[81, 70]),
   midi.NoteOffEvent(tick=192, channel=2, data=[81, 70]),
   midi.NoteOnEvent(tick=0, channel=2, data=[79, 70]),
   midi.NoteOffEvent(tick=192, channel=2, data=[79, 70]),
   midi.NoteOnEvent(tick=0, channel=2, data=[74, 95]),
   midi.NoteOffEvent(tick=192, channel=2, data=[74, 95]),
   midi.NoteOnEvent(tick=0, channel=2, data=[77, 95]),
   midi.NoteOffEvent(tick=192, channel=2, data=[77, 95]),
   midi.NoteOnEvent(tick=0, channel=2, data=[76, 70]),
   midi.NoteOffEvent(tick=192, channel=2, data=[76, 70]),
   midi.NoteOnEvent(tick=0, channel=2, data=[74, 70]),
   midi.NoteOffEvent(tick=192, channel=2, data=[74, 70]),
   midi.NoteOnEvent(tick=0, channel=2, data=[77, 95]),
   midi.NoteOffEvent(tick=240, channel=2, data=[77, 95]),
   midi.NoteOnEvent(tick=0, channel=2, data=[76, 70]),
   midi.NoteOffEvent(tick=240, channel=2, data=[76, 70]),
   midi.NoteOnEvent(tick=0, channel=2, data=[74, 70]),
   midi.NoteOffEvent(tick=240, channel=2, data=[74, 70]),
   midi.NoteOnEvent(tick=0, channel=2, data=[69, 95]),
   midi.NoteOffEvent(tick=240, channel=2, data=[69, 95]),
   midi.NoteOnEvent(tick=0, channel=2, data=[72, 95]),
   midi.NoteOffEvent(tick=160, channel=2, data=[72, 95]),
   midi.NoteOnEvent(tick=0, channel=2, data=[70, 70]),
   midi.NoteOffEvent(tick=160, channel=2, data=[70, 70]),
   midi.NoteOnEvent(tick=0, channel=2, data=[69, 70]),
   midi.NoteOffEvent(tick=160, channel=2, data=[69, 70]),
   midi.NoteOnEvent(tick=0, channel=2, data=[72, 95]),
   midi.NoteOffEvent(tick=160, channel=2, data=[72, 95]),
   midi.NoteOnEvent(tick=0, channel=2, data=[70, 70]),
   midi.NoteOffEvent(tick=160, channel=2, data=[70, 70]),
   midi.NoteOnEvent(tick=0, channel=2, data=[69, 70]),
   midi.NoteOffEvent(tick=160, channel=2, data=[69, 70]),
   midi.NoteOnEvent(tick=0, channel=2, data=[72, 95]),
   midi.NoteOffEvent(tick=240, channel=2, data=[72, 95]),
   midi.NoteOnEvent(tick=0, channel=2, data=[70, 70]),
   midi.NoteOffEvent(tick=240, channel=2, data=[70, 70]),
   midi.NoteOnEvent(tick=0, channel=2, data=[69, 70]),
   midi.NoteOffEvent(tick=240, channel=2, data=[69, 70]),
   midi.NoteOnEvent(tick=0, channel=2, data=[70, 95]),
   midi.NoteOffEvent(tick=240, channel=2, data=[70, 95]),
   midi.NoteOnEvent(tick=0, channel=2, data=[69, 70]),
   midi.NoteOffEvent(tick=240, channel=2, data=[69, 70]),
   midi.NoteOnEvent(tick=0, channel=2, data=[72, 95]),
   midi.NoteOffEvent(tick=240, channel=2, data=[72, 95]),
   midi.NoteOnEvent(tick=0, channel=2, data=[70, 70]),
   midi.NoteOffEvent(tick=240, channel=2, data=[70, 70]),
   midi.NoteOnEvent(tick=0, channel=2, data=[69, 70]),
   midi.NoteOffEvent(tick=240, channel=2, data=[69, 70]),
   midi.NoteOnEvent(tick=0, channel=2, data=[67, 95]),
   midi.NoteOffEvent(tick=960, channel=2, data=[67, 95]),
   midi.NoteOnEvent(tick=0, channel=2, data=[55, 95]),
   midi.NoteOffEvent(tick=86, channel=2, data=[55, 95]),
   midi.NoteOnEvent(tick=234, channel=2, data=[59, 95]),
   midi.NoteOffEvent(tick=86, channel=2, data=[59, 95]),
   midi.NoteOnEvent(tick=234, channel=2, data=[75, 95]),
   midi.NoteOffEvent(tick=320, channel=2, data=[75, 95]),
   midi.NoteOnEvent(tick=0, channel=2, data=[78, 95]),
   midi.NoteOffEvent(tick=320, channel=2, data=[78, 95]),
   midi.NoteOnEvent(tick=0, channel=2, data=[76, 70]),
   midi.NoteOffEvent(tick=320, channel=2, data=[76, 70]),
   midi.NoteOnEvent(tick=0, channel=2, data=[75, 70]),
   midi.NoteOffEvent(tick=320, channel=2, data=[75, 70]),
   midi.NoteOnEvent(tick=0, channel=2, data=[78, 95]),
   midi.NoteOffEvent(tick=320, channel=2, data=[78, 95]),
   midi.NoteOnEvent(tick=0, channel=2, data=[76, 70]),
   midi.NoteOffEvent(tick=320, channel=2, data=[76, 70]),
   midi.NoteOnEvent(tick=0, channel=2, data=[75, 70]),
   midi.NoteOffEvent(tick=320, channel=2, data=[75, 70]),
   midi.NoteOnEvent(tick=0, channel=2, data=[78, 95]),
   midi.NoteOffEvent(tick=320, channel=2, data=[78, 95]),
   midi.NoteOnEvent(tick=0, channel=2, data=[76, 70]),
   midi.NoteOffEvent(tick=320, channel=2, data=[76, 70]),
   midi.NoteOnEvent(tick=0, channel=2, data=[79, 95]),
   midi.NoteOffEvent(tick=320, channel=2, data=[79, 95]),
   midi.NoteOnEvent(tick=0, channel=2, data=[78, 70]),
   midi.NoteOffEvent(tick=240, channel=2, data=[78, 70]),
   midi.NoteOnEvent(tick=0, channel=2, data=[76, 70]),
   midi.NoteOffEvent(tick=240, channel=2, data=[76, 70]),
   midi.NoteOnEvent(tick=0, channel=2, data=[81, 95]),
   midi.NoteOffEvent(tick=240, channel=2, data=[81, 95]),
   midi.NoteOnEvent(tick=0, channel=2, data=[79, 70]),
   midi.NoteOffEvent(tick=240, channel=2, data=[79, 70]),
   midi.NoteOnEvent(tick=0, channel=2, data=[78, 70]),
   midi.NoteOffEvent(tick=240, channel=2, data=[78, 70]),
   midi.NoteOnEvent(tick=0, channel=2, data=[82, 95]),
   midi.NoteOffEvent(tick=240, channel=2, data=[82, 95]),
   midi.NoteOnEvent(tick=0, channel=2, data=[81, 70]),
   midi.NoteOffEvent(tick=240, channel=2, data=[81, 70]),
   midi.NoteOnEvent(tick=0, channel=2, data=[79, 70]),
   midi.NoteOffEvent(tick=240, channel=2, data=[79, 70]),
   midi.NoteOnEvent(tick=0, channel=2, data=[84, 95]),
   midi.NoteOffEvent(tick=320, channel=2, data=[84, 95]),
   midi.NoteOnEvent(tick=0, channel=2, data=[85, 95]),
   midi.NoteOffEvent(tick=320, channel=2, data=[85, 95]),
   midi.NoteOnEvent(tick=0, channel=2, data=[86, 95]),
   midi.NoteOffEvent(tick=320, channel=2, data=[86, 95]),
   midi.PitchWheelEvent(tick=0, channel=2, data=[0, 64]),
   midi.NoteOnEvent(tick=0, channel=2, data=[86, 95]),
   midi.PitchWheelEvent(tick=29, channel=2, data=[0, 65]),
   midi.PitchWheelEvent(tick=29, channel=2, data=[0, 66]),
   midi.PitchWheelEvent(tick=29, channel=2, data=[0, 67]),
   midi.PitchWheelEvent(tick=29, channel=2, data=[0, 68]),
   midi.PitchWheelEvent(tick=29, channel=2, data=[0, 69]),
   midi.PitchWheelEvent(tick=29, channel=2, data=[0, 70]),
   midi.PitchWheelEvent(tick=29, channel=2, data=[0, 71]),
   midi.PitchWheelEvent(tick=29, channel=2, data=[0, 72]),
   midi.PitchWheelEvent(tick=29, channel=2, data=[0, 73]),
   midi.PitchWheelEvent(tick=29, channel=2, data=[0, 74]),
   midi.PitchWheelEvent(tick=29, channel=2, data=[0, 75]),
   midi.PitchWheelEvent(tick=1, channel=2, data=[0, 75]),
   midi.PitchWheelEvent(tick=640, channel=2, data=[0, 75]),
   midi.PitchWheelEvent(tick=960, channel=2, data=[0, 75]),
   midi.PitchWheelEvent(tick=0, channel=2, data=[0, 64]),
   midi.NoteOffEvent(tick=0, channel=2, data=[86, 95]),
   midi.NoteOnEvent(tick=92160, channel=2, data=[76, 95]),
   midi.NoteOffEvent(tick=192, channel=2, data=[76, 95]),
   midi.NoteOnEvent(tick=0, channel=2, data=[74, 70]),
   midi.NoteOffEvent(tick=192, channel=2, data=[74, 70]),
   midi.NoteOnEvent(tick=0, channel=2, data=[71, 70]),
   midi.NoteOffEvent(tick=384, channel=2, data=[71, 70]),
   midi.NoteOnEvent(tick=0, channel=2, data=[74, 95]),
   midi.NoteOffEvent(tick=192, channel=2, data=[74, 95]),
   midi.NoteOnEvent(tick=0, channel=2, data=[76, 70]),
   midi.NoteOffEvent(tick=192, channel=2, data=[76, 70]),
   midi.NoteOnEvent(tick=0, channel=2, data=[74, 70]),
   midi.PitchWheelEvent(tick=192, channel=2, data=[0, 48]),
   midi.PitchWheelEvent(tick=0, channel=2, data=[0, 64]),
   midi.NoteOffEvent(tick=0, channel=2, data=[74, 70]),
   midi.NoteOnEvent(tick=0, channel=2, data=[71, 95]),
   midi.NoteOffEvent(tick=384, channel=2, data=[71, 95]),
   midi.NoteOnEvent(tick=0, channel=2, data=[74, 95]),
   midi.NoteOffEvent(tick=192, channel=2, data=[74, 95]),
   midi.NoteOnEvent(tick=0, channel=2, data=[76, 70]),
   midi.NoteOffEvent(tick=192, channel=2, data=[76, 70]),
   midi.NoteOnEvent(tick=0, channel=2, data=[74, 70]),
   midi.PitchWheelEvent(tick=192, channel=2, data=[0, 48]),
   midi.PitchWheelEvent(tick=0, channel=2, data=[0, 64]),
   midi.NoteOffEvent(tick=0, channel=2, data=[74, 70]),
   midi.NoteOnEvent(tick=0, channel=2, data=[71, 95]),
   midi.NoteOffEvent(tick=384, channel=2, data=[71, 95]),
   midi.NoteOnEvent(tick=0, channel=2, data=[74, 95]),
   midi.NoteOffEvent(tick=192, channel=2, data=[74, 95]),
   midi.NoteOnEvent(tick=0, channel=2, data=[76, 70]),
   midi.NoteOffEvent(tick=192, channel=2, data=[76, 70]),
   midi.NoteOnEvent(tick=0, channel=2, data=[74, 70]),
   midi.PitchWheelEvent(tick=192, channel=2, data=[0, 48]),
   midi.PitchWheelEvent(tick=0, channel=2, data=[0, 64]),
   midi.NoteOffEvent(tick=0, channel=2, data=[74, 70]),
   midi.NoteOnEvent(tick=0, channel=2, data=[71, 95]),
   midi.NoteOffEvent(tick=384, channel=2, data=[71, 95]),
   midi.NoteOnEvent(tick=0, channel=2, data=[74, 95]),
   midi.NoteOffEvent(tick=192, channel=2, data=[74, 95]),
   midi.NoteOnEvent(tick=0, channel=2, data=[76, 70]),
   midi.NoteOffEvent(tick=192, channel=2, data=[76, 70]),
   midi.NoteOnEvent(tick=0, channel=2, data=[74, 70]),
   midi.PitchWheelEvent(tick=192, channel=2, data=[0, 48]),
   midi.PitchWheelEvent(tick=0, channel=2, data=[0, 64]),
   midi.NoteOffEvent(tick=0, channel=2, data=[74, 70]),
   midi.NoteOnEvent(tick=0, channel=2, data=[71, 95]),
   midi.NoteOffEvent(tick=384, channel=2, data=[71, 95]),
   midi.NoteOnEvent(tick=0, channel=2, data=[74, 95]),
   midi.NoteOffEvent(tick=192, channel=2, data=[74, 95]),
   midi.NoteOnEvent(tick=0, channel=2, data=[76, 70]),
   midi.NoteOffEvent(tick=192, channel=2, data=[76, 70]),
   midi.NoteOnEvent(tick=0, channel=2, data=[74, 70]),
   midi.PitchWheelEvent(tick=192, channel=2, data=[0, 48]),
   midi.PitchWheelEvent(tick=0, channel=2, data=[0, 64]),
   midi.NoteOffEvent(tick=0, channel=2, data=[74, 70]),
   midi.NoteOnEvent(tick=0, channel=2, data=[71, 95]),
   midi.NoteOffEvent(tick=384, channel=2, data=[71, 95]),
   midi.NoteOnEvent(tick=0, channel=2, data=[74, 95]),
   midi.NoteOffEvent(tick=192, channel=2, data=[74, 95]),
   midi.NoteOnEvent(tick=0, channel=2, data=[76, 70]),
   midi.NoteOffEvent(tick=192, channel=2, data=[76, 70]),
   midi.NoteOnEvent(tick=0, channel=2, data=[74, 70]),
   midi.PitchWheelEvent(tick=192, channel=2, data=[0, 48]),
   midi.PitchWheelEvent(tick=0, channel=2, data=[0, 64]),
   midi.NoteOffEvent(tick=0, channel=2, data=[74, 70]),
   midi.NoteOnEvent(tick=0, channel=2, data=[71, 95]),
   midi.NoteOffEvent(tick=384, channel=2, data=[71, 95]),
   midi.NoteOnEvent(tick=0, channel=2, data=[74, 95]),
   midi.NoteOffEvent(tick=192, channel=2, data=[74, 95]),
   midi.NoteOnEvent(tick=0, channel=2, data=[76, 70]),
   midi.NoteOffEvent(tick=192, channel=2, data=[76, 70]),
   midi.NoteOnEvent(tick=0, channel=2, data=[74, 70]),
   midi.PitchWheelEvent(tick=192, channel=2, data=[0, 48]),
   midi.PitchWheelEvent(tick=0, channel=2, data=[0, 64]),
   midi.NoteOffEvent(tick=0, channel=2, data=[74, 70]),
   midi.NoteOnEvent(tick=0, channel=2, data=[71, 95]),
   midi.NoteOffEvent(tick=384, channel=2, data=[71, 95]),
   midi.NoteOnEvent(tick=0, channel=2, data=[74, 95]),
   midi.NoteOffEvent(tick=192, channel=2, data=[74, 95]),
   midi.NoteOnEvent(tick=0, channel=2, data=[81, 95]),
   midi.NoteOffEvent(tick=240, channel=2, data=[81, 95]),
   midi.NoteOnEvent(tick=0, channel=2, data=[78, 70]),
   midi.NoteOffEvent(tick=240, channel=2, data=[78, 70]),
   midi.NoteOnEvent(tick=0, channel=2, data=[76, 95]),
   midi.NoteOffEvent(tick=240, channel=2, data=[76, 95]),
   midi.NoteOnEvent(tick=0, channel=2, data=[74, 70]),
   midi.NoteOffEvent(tick=240, channel=2, data=[74, 70]),
   midi.NoteOnEvent(tick=0, channel=2, data=[81, 95]),
   midi.NoteOffEvent(tick=240, channel=2, data=[81, 95]),
   midi.NoteOnEvent(tick=0, channel=2, data=[78, 70]),
   midi.NoteOffEvent(tick=240, channel=2, data=[78, 70]),
   midi.NoteOnEvent(tick=0, channel=2, data=[76, 95]),
   midi.NoteOffEvent(tick=240, channel=2, data=[76, 95]),
   midi.NoteOnEvent(tick=0, channel=2, data=[74, 70]),
   midi.NoteOffEvent(tick=240, channel=2, data=[74, 70]),
   midi.NoteOnEvent(tick=0, channel=2, data=[81, 95]),
   midi.NoteOffEvent(tick=240, channel=2, data=[81, 95]),
   midi.NoteOnEvent(tick=0, channel=2, data=[78, 70]),
   midi.NoteOffEvent(tick=240, channel=2, data=[78, 70]),
   midi.NoteOnEvent(tick=0, channel=2, data=[76, 95]),
   midi.NoteOffEvent(tick=240, channel=2, data=[76, 95]),
   midi.NoteOnEvent(tick=0, channel=2, data=[74, 70]),
   midi.NoteOffEvent(tick=240, channel=2, data=[74, 70]),
   midi.NoteOnEvent(tick=0, channel=2, data=[81, 95]),
   midi.NoteOffEvent(tick=240, channel=2, data=[81, 95]),
   midi.NoteOnEvent(tick=0, channel=2, data=[78, 70]),
   midi.NoteOffEvent(tick=240, channel=2, data=[78, 70]),
   midi.NoteOnEvent(tick=0, channel=2, data=[74, 95]),
   midi.NoteOffEvent(tick=480, channel=2, data=[74, 95]),
   midi.PitchWheelEvent(tick=0, channel=2, data=[0, 64]),
   midi.NoteOnEvent(tick=0, channel=2, data=[72, 95]),
   midi.PitchWheelEvent(tick=10, channel=2, data=[0, 65]),
   midi.PitchWheelEvent(tick=10, channel=2, data=[0, 66]),
   midi.PitchWheelEvent(tick=10, channel=2, data=[0, 67]),
   midi.PitchWheelEvent(tick=10, channel=2, data=[0, 68]),
   midi.PitchWheelEvent(tick=10, channel=2, data=[0, 69]),
   midi.PitchWheelEvent(tick=10, channel=2, data=[0, 70]),
   midi.PitchWheelEvent(tick=10, channel=2, data=[0, 71]),
   midi.PitchWheelEvent(tick=10, channel=2, data=[0, 72]),
   midi.PitchWheelEvent(tick=10, channel=2, data=[0, 73]),
   midi.PitchWheelEvent(tick=10, channel=2, data=[0, 74]),
   midi.PitchWheelEvent(tick=10, channel=2, data=[0, 75]),
   midi.PitchWheelEvent(tick=10, channel=2, data=[0, 75]),
   midi.PitchWheelEvent(tick=600, channel=2, data=[0, 75]),
   midi.PitchWheelEvent(tick=720, channel=2, data=[0, 75]),
   midi.PitchWheelEvent(tick=0, channel=2, data=[0, 64]),
   midi.NoteOffEvent(tick=0, channel=2, data=[72, 95]),
   midi.NoteOnEvent(tick=0, channel=2, data=[74, 95]),
   midi.NoteOffEvent(tick=480, channel=2, data=[74, 95]),
   midi.PitchWheelEvent(tick=0, channel=2, data=[0, 64]),
   midi.NoteOnEvent(tick=0, channel=2, data=[74, 95]),
   midi.PitchWheelEvent(tick=15, channel=2, data=[0, 65]),
   midi.PitchWheelEvent(tick=15, channel=2, data=[0, 66]),
   midi.PitchWheelEvent(tick=15, channel=2, data=[0, 67]),
   midi.PitchWheelEvent(tick=15, channel=2, data=[0, 68]),
   midi.PitchWheelEvent(tick=15, channel=2, data=[0, 69]),
   midi.PitchWheelEvent(tick=15, channel=2, data=[0, 70]),
   midi.PitchWheelEvent(tick=15, channel=2, data=[0, 71]),
   midi.PitchWheelEvent(tick=15, channel=2, data=[0, 72]),
   midi.PitchWheelEvent(tick=15, channel=2, data=[0, 73]),
   midi.PitchWheelEvent(tick=15, channel=2, data=[0, 74]),
   midi.PitchWheelEvent(tick=15, channel=2, data=[0, 75]),
   midi.PitchWheelEvent(tick=15, channel=2, data=[0, 76]),
   midi.PitchWheelEvent(tick=15, channel=2, data=[0, 77]),
   midi.PitchWheelEvent(tick=15, channel=2, data=[0, 78]),
   midi.PitchWheelEvent(tick=15, channel=2, data=[0, 79]),
   midi.PitchWheelEvent(tick=15, channel=2, data=[0, 80]),
   midi.PitchWheelEvent(tick=0, channel=2, data=[0, 80]),
   midi.PitchWheelEvent(tick=480, channel=2, data=[0, 80]),
   midi.PitchWheelEvent(tick=720, channel=2, data=[0, 80]),
   midi.PitchWheelEvent(tick=0, channel=2, data=[0, 64]),
   midi.NoteOffEvent(tick=0, channel=2, data=[74, 95]),
   midi.NoteOnEvent(tick=240, channel=2, data=[76, 95]),
   midi.NoteOffEvent(tick=720, channel=2, data=[76, 95]),
   midi.NoteOnEvent(tick=0, channel=2, data=[76, 95]),
   midi.NoteOffEvent(tick=160, channel=2, data=[76, 95]),
   midi.NoteOnEvent(tick=0, channel=2, data=[72, 70]),
   midi.NoteOffEvent(tick=160, channel=2, data=[72, 70]),
   midi.NoteOnEvent(tick=0, channel=2, data=[69, 70]),
   midi.NoteOffEvent(tick=160, channel=2, data=[69, 70]),
   midi.NoteOnEvent(tick=0, channel=2, data=[76, 95]),
   midi.NoteOffEvent(tick=160, channel=2, data=[76, 95]),
   midi.NoteOnEvent(tick=0, channel=2, data=[72, 70]),
   midi.NoteOffEvent(tick=160, channel=2, data=[72, 70]),
   midi.NoteOnEvent(tick=0, channel=2, data=[69, 70]),
   midi.NoteOffEvent(tick=160, channel=2, data=[69, 70]),
   midi.NoteOnEvent(tick=0, channel=2, data=[76, 95]),
   midi.NoteOffEvent(tick=160, channel=2, data=[76, 95]),
   midi.NoteOnEvent(tick=0, channel=2, data=[72, 70]),
   midi.NoteOffEvent(tick=160, channel=2, data=[72, 70]),
   midi.NoteOnEvent(tick=0, channel=2, data=[69, 70]),
   midi.NoteOffEvent(tick=160, channel=2, data=[69, 70]),
   midi.NoteOnEvent(tick=0, channel=2, data=[77, 95]),
   midi.NoteOffEvent(tick=160, channel=2, data=[77, 95]),
   midi.NoteOnEvent(tick=0, channel=2, data=[73, 70]),
   midi.NoteOffEvent(tick=160, channel=2, data=[73, 70]),
   midi.NoteOnEvent(tick=0, channel=2, data=[70, 70]),
   midi.NoteOffEvent(tick=160, channel=2, data=[70, 70]),
   midi.NoteOnEvent(tick=0, channel=2, data=[77, 95]),
   midi.NoteOffEvent(tick=160, channel=2, data=[77, 95]),
   midi.NoteOnEvent(tick=0, channel=2, data=[73, 70]),
   midi.NoteOffEvent(tick=160, channel=2, data=[73, 70]),
   midi.NoteOnEvent(tick=0, channel=2, data=[70, 70]),
   midi.NoteOffEvent(tick=160, channel=2, data=[70, 70]),
   midi.NoteOnEvent(tick=0, channel=2, data=[77, 95]),
   midi.NoteOffEvent(tick=160, channel=2, data=[77, 95]),
   midi.NoteOnEvent(tick=0, channel=2, data=[73, 70]),
   midi.NoteOffEvent(tick=160, channel=2, data=[73, 70]),
   midi.NoteOnEvent(tick=0, channel=2, data=[70, 70]),
   midi.NoteOffEvent(tick=160, channel=2, data=[70, 70]),
   midi.NoteOnEvent(tick=0, channel=2, data=[77, 95]),
   midi.NoteOffEvent(tick=160, channel=2, data=[77, 95]),
   midi.NoteOnEvent(tick=0, channel=2, data=[73, 70]),
   midi.NoteOffEvent(tick=160, channel=2, data=[73, 70]),
   midi.NoteOnEvent(tick=0, channel=2, data=[70, 70]),
   midi.NoteOffEvent(tick=160, channel=2, data=[70, 70]),
   midi.NoteOnEvent(tick=0, channel=2, data=[78, 95]),
   midi.NoteOffEvent(tick=160, channel=2, data=[78, 95]),
   midi.NoteOnEvent(tick=0, channel=2, data=[74, 70]),
   midi.NoteOffEvent(tick=160, channel=2, data=[74, 70]),
   midi.NoteOnEvent(tick=0, channel=2, data=[71, 70]),
   midi.NoteOffEvent(tick=160, channel=2, data=[71, 70]),
   midi.NoteOnEvent(tick=0, channel=2, data=[78, 95]),
   midi.NoteOffEvent(tick=160, channel=2, data=[78, 95]),
   midi.NoteOnEvent(tick=0, channel=2, data=[74, 70]),
   midi.NoteOffEvent(tick=160, channel=2, data=[74, 70]),
   midi.NoteOnEvent(tick=0, channel=2, data=[71, 70]),
   midi.NoteOffEvent(tick=160, channel=2, data=[71, 70]),
   midi.NoteOnEvent(tick=0, channel=2, data=[78, 95]),
   midi.NoteOffEvent(tick=160, channel=2, data=[78, 95]),
   midi.NoteOnEvent(tick=0, channel=2, data=[74, 70]),
   midi.NoteOffEvent(tick=160, channel=2, data=[74, 70]),
   midi.NoteOnEvent(tick=0, channel=2, data=[71, 70]),
   midi.NoteOffEvent(tick=160, channel=2, data=[71, 70]),
   midi.NoteOnEvent(tick=0, channel=2, data=[78, 95]),
   midi.NoteOffEvent(tick=160, channel=2, data=[78, 95]),
   midi.NoteOnEvent(tick=0, channel=2, data=[74, 70]),
   midi.NoteOffEvent(tick=160, channel=2, data=[74, 70]),
   midi.NoteOnEvent(tick=0, channel=2, data=[71, 70]),
   midi.NoteOffEvent(tick=160, channel=2, data=[71, 70]),
   midi.NoteOnEvent(tick=0, channel=2, data=[79, 95]),
   midi.NoteOffEvent(tick=160, channel=2, data=[79, 95]),
   midi.NoteOnEvent(tick=0, channel=2, data=[75, 70]),
   midi.NoteOffEvent(tick=160, channel=2, data=[75, 70]),
   midi.NoteOnEvent(tick=0, channel=2, data=[72, 70]),
   midi.NoteOffEvent(tick=160, channel=2, data=[72, 70]),
   midi.NoteOnEvent(tick=0, channel=2, data=[79, 95]),
   midi.NoteOffEvent(tick=160, channel=2, data=[79, 95]),
   midi.NoteOnEvent(tick=0, channel=2, data=[75, 70]),
   midi.NoteOffEvent(tick=160, channel=2, data=[75, 70]),
   midi.NoteOnEvent(tick=0, channel=2, data=[72, 70]),
   midi.NoteOffEvent(tick=160, channel=2, data=[72, 70]),
   midi.NoteOnEvent(tick=0, channel=2, data=[79, 95]),
   midi.NoteOffEvent(tick=160, channel=2, data=[79, 95]),
   midi.NoteOnEvent(tick=0, channel=2, data=[75, 70]),
   midi.NoteOffEvent(tick=160, channel=2, data=[75, 70]),
   midi.NoteOnEvent(tick=0, channel=2, data=[72, 70]),
   midi.NoteOffEvent(tick=160, channel=2, data=[72, 70]),
   midi.NoteOnEvent(tick=0, channel=2, data=[72, 95]),
   midi.PitchWheelEvent(tick=120, channel=2, data=[0, 42]),
   midi.PitchWheelEvent(tick=120, channel=2, data=[0, 20]),
   midi.PitchWheelEvent(tick=0, channel=2, data=[0, 64]),
   midi.NoteOffEvent(tick=0, channel=2, data=[72, 95]),
   midi.NoteOnEvent(tick=0, channel=2, data=[64, 95]),
   midi.NoteOffEvent(tick=480, channel=2, data=[64, 95]),
   midi.NoteOnEvent(tick=0, channel=2, data=[67, 95]),
   midi.NoteOffEvent(tick=240, channel=2, data=[67, 95]),
   midi.NoteOnEvent(tick=0, channel=2, data=[64, 70]),
   midi.NoteOffEvent(tick=240, channel=2, data=[64, 70]),
   midi.NoteOnEvent(tick=0, channel=2, data=[69, 95]),
   midi.NoteOffEvent(tick=240, channel=2, data=[69, 95]),
   midi.NoteOnEvent(tick=0, channel=2, data=[67, 70]),
   midi.NoteOffEvent(tick=240, channel=2, data=[67, 70]),
   midi.NoteOnEvent(tick=0, channel=2, data=[64, 70]),
   midi.NoteOffEvent(tick=240, channel=2, data=[64, 70]),
   midi.NoteOnEvent(tick=0, channel=2, data=[67, 95]),
   midi.NoteOffEvent(tick=240, channel=2, data=[67, 95]),
   midi.NoteOnEvent(tick=0, channel=2, data=[64, 70]),
   midi.NoteOffEvent(tick=240, channel=2, data=[64, 70]),
   midi.NoteOnEvent(tick=0, channel=2, data=[69, 95]),
   midi.NoteOffEvent(tick=240, channel=2, data=[69, 95]),
   midi.NoteOnEvent(tick=0, channel=2, data=[67, 70]),
   midi.NoteOffEvent(tick=240, channel=2, data=[67, 70]),
   midi.NoteOnEvent(tick=0, channel=2, data=[64, 70]),
   midi.NoteOffEvent(tick=480, channel=2, data=[64, 70]),
   midi.NoteOnEvent(tick=0, channel=2, data=[67, 95]),
   midi.PitchWheelEvent(tick=120, channel=2, data=[0, 66]),
   midi.PitchWheelEvent(tick=120, channel=2, data=[0, 69]),
   midi.PitchWheelEvent(tick=120, channel=2, data=[0, 72]),
   midi.PitchWheelEvent(tick=120, channel=2, data=[0, 75]),
   midi.PitchWheelEvent(tick=0, channel=2, data=[0, 64]),
   midi.NoteOffEvent(tick=0, channel=2, data=[67, 95]),
   midi.NoteOnEvent(tick=0, channel=2, data=[69, 95]),
   midi.NoteOffEvent(tick=480, channel=2, data=[69, 95]),
   midi.NoteOnEvent(tick=0, channel=2, data=[69, 95]),
   midi.PitchWheelEvent(tick=120, channel=2, data=[0, 102]),
   midi.PitchWheelEvent(tick=120, channel=2, data=[0, 127]),
   midi.PitchWheelEvent(tick=0, channel=2, data=[0, 64]),
   midi.NoteOffEvent(tick=0, channel=2, data=[69, 95]),
   midi.NoteOnEvent(tick=0, channel=2, data=[83, 95]),
   midi.NoteOffEvent(tick=240, channel=2, data=[83, 95]),
   midi.NoteOnEvent(tick=480, channel=2, data=[83, 95]),
   midi.NoteOffEvent(tick=240, channel=2, data=[83, 95]),
   midi.NoteOnEvent(tick=0, channel=2, data=[83, 95]),
   midi.NoteOffEvent(tick=240, channel=2, data=[83, 95]),
   midi.NoteOnEvent(tick=240, channel=2, data=[83, 95]),
   midi.NoteOffEvent(tick=240, channel=2, data=[83, 95]),
   midi.NoteOnEvent(tick=0, channel=2, data=[83, 95]),
   midi.NoteOffEvent(tick=240, channel=2, data=[83, 95]),
   midi.NoteOnEvent(tick=0, channel=2, data=[83, 95]),
   midi.NoteOffEvent(tick=240, channel=2, data=[83, 95]),
   midi.NoteOnEvent(tick=0, channel=2, data=[83, 95]),
   midi.NoteOffEvent(tick=240, channel=2, data=[83, 95]),
   midi.NoteOnEvent(tick=0, channel=2, data=[83, 95]),
   midi.NoteOffEvent(tick=480, channel=2, data=[83, 95]),
   midi.NoteOnEvent(tick=0, channel=2, data=[50, 95]),
   midi.NoteOffEvent(tick=240, channel=2, data=[50, 95]),
   midi.NoteOnEvent(tick=0, channel=2, data=[52, 70]),
   midi.NoteOffEvent(tick=240, channel=2, data=[52, 70]),
   midi.NoteOnEvent(tick=0, channel=2, data=[50, 70]),
   midi.NoteOffEvent(tick=240, channel=2, data=[50, 70]),
   midi.NoteOnEvent(tick=0, channel=2, data=[52, 95]),
   midi.NoteOffEvent(tick=240, channel=2, data=[52, 95]),
   midi.NoteOnEvent(tick=0, channel=2, data=[50, 70]),
   midi.NoteOffEvent(tick=240, channel=2, data=[50, 70]),
   midi.NoteOnEvent(tick=0, channel=2, data=[54, 95]),
   midi.NoteOffEvent(tick=240, channel=2, data=[54, 95]),
   midi.NoteOnEvent(tick=0, channel=2, data=[50, 70]),
   midi.NoteOffEvent(tick=240, channel=2, data=[50, 70]),
   midi.NoteOnEvent(tick=0, channel=2, data=[52, 95]),
   midi.NoteOffEvent(tick=240, channel=2, data=[52, 95]),
   midi.NoteOnEvent(tick=0, channel=2, data=[50, 70]),
   midi.NoteOffEvent(tick=240, channel=2, data=[50, 70]),
   midi.NoteOnEvent(tick=0, channel=2, data=[54, 95]),
   midi.NoteOffEvent(tick=240, channel=2, data=[54, 95]),
   midi.NoteOnEvent(tick=0, channel=2, data=[50, 70]),
   midi.NoteOffEvent(tick=240, channel=2, data=[50, 70]),
   midi.NoteOnEvent(tick=0, channel=2, data=[54, 95]),
   midi.NoteOffEvent(tick=240, channel=2, data=[54, 95]),
   midi.NoteOnEvent(tick=0, channel=2, data=[50, 70]),
   midi.NoteOffEvent(tick=240, channel=2, data=[50, 70]),
   midi.NoteOnEvent(tick=0, channel=2, data=[55, 95]),
   midi.NoteOffEvent(tick=240, channel=2, data=[55, 95]),
   midi.NoteOnEvent(tick=0, channel=2, data=[50, 70]),
   midi.NoteOffEvent(tick=240, channel=2, data=[50, 70]),
   midi.NoteOnEvent(tick=0, channel=2, data=[54, 95]),
   midi.NoteOffEvent(tick=240, channel=2, data=[54, 95]),
   midi.NoteOnEvent(tick=0, channel=2, data=[50, 70]),
   midi.NoteOffEvent(tick=240, channel=2, data=[50, 70]),
   midi.NoteOnEvent(tick=0, channel=2, data=[55, 95]),
   midi.NoteOffEvent(tick=240, channel=2, data=[55, 95]),
   midi.NoteOnEvent(tick=0, channel=2, data=[50, 70]),
   midi.NoteOffEvent(tick=240, channel=2, data=[50, 70]),
   midi.NoteOnEvent(tick=0, channel=2, data=[55, 95]),
   midi.NoteOffEvent(tick=240, channel=2, data=[55, 95]),
   midi.NoteOnEvent(tick=0, channel=2, data=[50, 70]),
   midi.NoteOffEvent(tick=240, channel=2, data=[50, 70]),
   midi.NoteOnEvent(tick=0, channel=2, data=[57, 95]),
   midi.NoteOffEvent(tick=240, channel=2, data=[57, 95]),
   midi.NoteOnEvent(tick=0, channel=2, data=[50, 70]),
   midi.NoteOffEvent(tick=240, channel=2, data=[50, 70]),
   midi.NoteOnEvent(tick=0, channel=2, data=[55, 95]),
   midi.NoteOffEvent(tick=240, channel=2, data=[55, 95]),
   midi.NoteOnEvent(tick=0, channel=2, data=[50, 70]),
   midi.NoteOffEvent(tick=240, channel=2, data=[50, 70]),
   midi.NoteOnEvent(tick=0, channel=2, data=[57, 95]),
   midi.NoteOffEvent(tick=240, channel=2, data=[57, 95]),
   midi.NoteOnEvent(tick=0, channel=2, data=[50, 70]),
   midi.NoteOffEvent(tick=240, channel=2, data=[50, 70]),
   midi.NoteOnEvent(tick=0, channel=2, data=[57, 95]),
   midi.NoteOffEvent(tick=240, channel=2, data=[57, 95]),
   midi.NoteOnEvent(tick=0, channel=2, data=[50, 70]),
   midi.NoteOffEvent(tick=240, channel=2, data=[50, 70]),
   midi.NoteOnEvent(tick=0, channel=2, data=[59, 95]),
   midi.NoteOffEvent(tick=240, channel=2, data=[59, 95]),
   midi.NoteOnEvent(tick=0, channel=2, data=[50, 70]),
   midi.NoteOffEvent(tick=240, channel=2, data=[50, 70]),
   midi.NoteOnEvent(tick=0, channel=2, data=[57, 95]),
   midi.NoteOffEvent(tick=240, channel=2, data=[57, 95]),
   midi.NoteOnEvent(tick=0, channel=2, data=[50, 70]),
   midi.NoteOffEvent(tick=240, channel=2, data=[50, 70]),
   midi.NoteOnEvent(tick=0, channel=2, data=[59, 95]),
   midi.NoteOffEvent(tick=240, channel=2, data=[59, 95]),
   midi.NoteOnEvent(tick=0, channel=2, data=[50, 70]),
   midi.NoteOffEvent(tick=240, channel=2, data=[50, 70]),
   midi.NoteOnEvent(tick=0, channel=2, data=[59, 95]),
   midi.NoteOffEvent(tick=240, channel=2, data=[59, 95]),
   midi.NoteOnEvent(tick=0, channel=2, data=[50, 70]),
   midi.NoteOffEvent(tick=240, channel=2, data=[50, 70]),
   midi.NoteOnEvent(tick=0, channel=2, data=[60, 95]),
   midi.NoteOffEvent(tick=240, channel=2, data=[60, 95]),
   midi.NoteOnEvent(tick=0, channel=2, data=[50, 70]),
   midi.NoteOffEvent(tick=240, channel=2, data=[50, 70]),
   midi.NoteOnEvent(tick=0, channel=2, data=[59, 95]),
   midi.NoteOffEvent(tick=240, channel=2, data=[59, 95]),
   midi.NoteOnEvent(tick=0, channel=2, data=[50, 70]),
   midi.NoteOffEvent(tick=240, channel=2, data=[50, 70]),
   midi.NoteOnEvent(tick=0, channel=2, data=[60, 95]),
   midi.NoteOffEvent(tick=240, channel=2, data=[60, 95]),
   midi.NoteOnEvent(tick=0, channel=2, data=[50, 70]),
   midi.NoteOffEvent(tick=240, channel=2, data=[50, 70]),
   midi.NoteOnEvent(tick=0, channel=2, data=[60, 95]),
   midi.NoteOffEvent(tick=240, channel=2, data=[60, 95]),
   midi.NoteOnEvent(tick=0, channel=2, data=[50, 70]),
   midi.NoteOffEvent(tick=240, channel=2, data=[50, 70]),
   midi.NoteOnEvent(tick=0, channel=2, data=[62, 95]),
   midi.NoteOffEvent(tick=240, channel=2, data=[62, 95]),
   midi.NoteOnEvent(tick=0, channel=2, data=[50, 70]),
   midi.NoteOffEvent(tick=240, channel=2, data=[50, 70]),
   midi.NoteOnEvent(tick=0, channel=2, data=[62, 95]),
   midi.NoteOffEvent(tick=240, channel=2, data=[62, 95]),
   midi.NoteOnEvent(tick=0, channel=2, data=[50, 70]),
   midi.NoteOffEvent(tick=240, channel=2, data=[50, 70]),
   midi.NoteOnEvent(tick=0, channel=2, data=[62, 95]),
   midi.NoteOffEvent(tick=480, channel=2, data=[62, 95]),
   midi.PitchWheelEvent(tick=0, channel=2, data=[0, 64]),
   midi.NoteOnEvent(tick=0, channel=2, data=[64, 95]),
   midi.PitchWheelEvent(tick=7, channel=2, data=[0, 65]),
   midi.PitchWheelEvent(tick=7, channel=2, data=[0, 66]),
   midi.PitchWheelEvent(tick=7, channel=2, data=[0, 67]),
   midi.PitchWheelEvent(tick=7, channel=2, data=[0, 68]),
   midi.PitchWheelEvent(tick=7, channel=2, data=[0, 69]),
   midi.PitchWheelEvent(tick=7, channel=2, data=[0, 70]),
   midi.PitchWheelEvent(tick=7, channel=2, data=[0, 71]),
   midi.PitchWheelEvent(tick=7, channel=2, data=[0, 72]),
   midi.PitchWheelEvent(tick=7, channel=2, data=[0, 73]),
   midi.PitchWheelEvent(tick=7, channel=2, data=[0, 74]),
   midi.PitchWheelEvent(tick=7, channel=2, data=[0, 75]),
   midi.PitchWheelEvent(tick=3, channel=2, data=[0, 75]),
   midi.PitchWheelEvent(tick=160, channel=2, data=[0, 75]),
   midi.PitchWheelEvent(tick=240, channel=2, data=[0, 75]),
   midi.PitchWheelEvent(tick=21, channel=2, data=[0, 74]),
   midi.PitchWheelEvent(tick=21, channel=2, data=[0, 73]),
   midi.PitchWheelEvent(tick=21, channel=2, data=[0, 72]),
   midi.PitchWheelEvent(tick=21, channel=2, data=[0, 71]),
   midi.PitchWheelEvent(tick=21, channel=2, data=[0, 70]),
   midi.PitchWheelEvent(tick=21, channel=2, data=[0, 69]),
   midi.PitchWheelEvent(tick=21, channel=2, data=[0, 68]),
   midi.PitchWheelEvent(tick=21, channel=2, data=[0, 67]),
   midi.PitchWheelEvent(tick=21, channel=2, data=[0, 66]),
   midi.PitchWheelEvent(tick=21, channel=2, data=[0, 65]),
   midi.PitchWheelEvent(tick=21, channel=2, data=[0, 64]),
   midi.PitchWheelEvent(tick=9, channel=2, data=[0, 64]),
   midi.PitchWheelEvent(tick=240, channel=2, data=[0, 64]),
   midi.PitchWheelEvent(tick=0, channel=2, data=[0, 64]),
   midi.NoteOffEvent(tick=0, channel=2, data=[64, 95]),
   midi.PitchWheelEvent(tick=0, channel=2, data=[0, 64]),
   midi.NoteOnEvent(tick=0, channel=2, data=[64, 95]),
   midi.PitchWheelEvent(tick=3, channel=2, data=[0, 65]),
   midi.PitchWheelEvent(tick=3, channel=2, data=[0, 66]),
   midi.PitchWheelEvent(tick=3, channel=2, data=[0, 67]),
   midi.PitchWheelEvent(tick=3, channel=2, data=[0, 68]),
   midi.PitchWheelEvent(tick=3, channel=2, data=[0, 69]),
   midi.PitchWheelEvent(tick=3, channel=2, data=[0, 70]),
   midi.PitchWheelEvent(tick=3, channel=2, data=[0, 71]),
   midi.PitchWheelEvent(tick=3, channel=2, data=[0, 72]),
   midi.PitchWheelEvent(tick=3, channel=2, data=[0, 73]),
   midi.PitchWheelEvent(tick=3, channel=2, data=[0, 74]),
   midi.PitchWheelEvent(tick=3, channel=2, data=[0, 75]),
   midi.PitchWheelEvent(tick=7, channel=2, data=[0, 75]),
   midi.PitchWheelEvent(tick=80, channel=2, data=[0, 75]),
   midi.PitchWheelEvent(tick=120, channel=2, data=[0, 75]),
   midi.PitchWheelEvent(tick=10, channel=2, data=[0, 74]),
   midi.PitchWheelEvent(tick=10, channel=2, data=[0, 73]),
   midi.PitchWheelEvent(tick=10, channel=2, data=[0, 72]),
   midi.PitchWheelEvent(tick=10, channel=2, data=[0, 71]),
   midi.PitchWheelEvent(tick=10, channel=2, data=[0, 70]),
   midi.PitchWheelEvent(tick=10, channel=2, data=[0, 69]),
   midi.PitchWheelEvent(tick=10, channel=2, data=[0, 68]),
   midi.PitchWheelEvent(tick=10, channel=2, data=[0, 67]),
   midi.PitchWheelEvent(tick=10, channel=2, data=[0, 66]),
   midi.PitchWheelEvent(tick=10, channel=2, data=[0, 65]),
   midi.PitchWheelEvent(tick=10, channel=2, data=[0, 64]),
   midi.PitchWheelEvent(tick=10, channel=2, data=[0, 64]),
   midi.PitchWheelEvent(tick=120, channel=2, data=[0, 64]),
   midi.PitchWheelEvent(tick=0, channel=2, data=[0, 64]),
   midi.NoteOffEvent(tick=0, channel=2, data=[64, 95]),
   midi.PitchWheelEvent(tick=0, channel=2, data=[0, 64]),
   midi.NoteOnEvent(tick=0, channel=2, data=[64, 95]),
   midi.PitchWheelEvent(tick=3, channel=2, data=[0, 65]),
   midi.PitchWheelEvent(tick=3, channel=2, data=[0, 66]),
   midi.PitchWheelEvent(tick=3, channel=2, data=[0, 67]),
   midi.PitchWheelEvent(tick=3, channel=2, data=[0, 68]),
   midi.PitchWheelEvent(tick=3, channel=2, data=[0, 69]),
   midi.PitchWheelEvent(tick=3, channel=2, data=[0, 70]),
   midi.PitchWheelEvent(tick=3, channel=2, data=[0, 71]),
   midi.PitchWheelEvent(tick=3, channel=2, data=[0, 72]),
   midi.PitchWheelEvent(tick=3, channel=2, data=[0, 73]),
   midi.PitchWheelEvent(tick=3, channel=2, data=[0, 74]),
   midi.PitchWheelEvent(tick=3, channel=2, data=[0, 75]),
   midi.PitchWheelEvent(tick=7, channel=2, data=[0, 75]),
   midi.PitchWheelEvent(tick=80, channel=2, data=[0, 75]),
   midi.PitchWheelEvent(tick=120, channel=2, data=[0, 75]),
   midi.PitchWheelEvent(tick=10, channel=2, data=[0, 74]),
   midi.PitchWheelEvent(tick=10, channel=2, data=[0, 73]),
   midi.PitchWheelEvent(tick=10, channel=2, data=[0, 72]),
   midi.PitchWheelEvent(tick=10, channel=2, data=[0, 71]),
   midi.PitchWheelEvent(tick=10, channel=2, data=[0, 70]),
   midi.PitchWheelEvent(tick=10, channel=2, data=[0, 69]),
   midi.PitchWheelEvent(tick=10, channel=2, data=[0, 68]),
   midi.PitchWheelEvent(tick=10, channel=2, data=[0, 67]),
   midi.PitchWheelEvent(tick=10, channel=2, data=[0, 66]),
   midi.PitchWheelEvent(tick=10, channel=2, data=[0, 65]),
   midi.PitchWheelEvent(tick=10, channel=2, data=[0, 64]),
   midi.PitchWheelEvent(tick=10, channel=2, data=[0, 64]),
   midi.PitchWheelEvent(tick=120, channel=2, data=[0, 64]),
   midi.PitchWheelEvent(tick=0, channel=2, data=[0, 64]),
   midi.NoteOffEvent(tick=0, channel=2, data=[64, 95]),
   midi.PitchWheelEvent(tick=0, channel=2, data=[0, 64]),
   midi.NoteOnEvent(tick=0, channel=2, data=[64, 95]),
   midi.PitchWheelEvent(tick=7, channel=2, data=[0, 65]),
   midi.PitchWheelEvent(tick=7, channel=2, data=[0, 66]),
   midi.PitchWheelEvent(tick=7, channel=2, data=[0, 67]),
   midi.PitchWheelEvent(tick=7, channel=2, data=[0, 68]),
   midi.PitchWheelEvent(tick=7, channel=2, data=[0, 69]),
   midi.PitchWheelEvent(tick=7, channel=2, data=[0, 70]),
   midi.PitchWheelEvent(tick=7, channel=2, data=[0, 71]),
   midi.PitchWheelEvent(tick=7, channel=2, data=[0, 72]),
   midi.PitchWheelEvent(tick=7, channel=2, data=[0, 73]),
   midi.PitchWheelEvent(tick=7, channel=2, data=[0, 74]),
   midi.PitchWheelEvent(tick=7, channel=2, data=[0, 75]),
   midi.PitchWheelEvent(tick=3, channel=2, data=[0, 75]),
   midi.PitchWheelEvent(tick=160, channel=2, data=[0, 75]),
   midi.PitchWheelEvent(tick=240, channel=2, data=[0, 75]),
   midi.PitchWheelEvent(tick=21, channel=2, data=[0, 74]),
   midi.PitchWheelEvent(tick=21, channel=2, data=[0, 73]),
   midi.PitchWheelEvent(tick=21, channel=2, data=[0, 72]),
   midi.PitchWheelEvent(tick=21, channel=2, data=[0, 71]),
   midi.PitchWheelEvent(tick=21, channel=2, data=[0, 70]),
   midi.PitchWheelEvent(tick=21, channel=2, data=[0, 69]),
   midi.PitchWheelEvent(tick=21, channel=2, data=[0, 68]),
   midi.PitchWheelEvent(tick=21, channel=2, data=[0, 67]),
   midi.PitchWheelEvent(tick=21, channel=2, data=[0, 66]),
   midi.PitchWheelEvent(tick=21, channel=2, data=[0, 65]),
   midi.PitchWheelEvent(tick=21, channel=2, data=[0, 64]),
   midi.PitchWheelEvent(tick=9, channel=2, data=[0, 64]),
   midi.PitchWheelEvent(tick=240, channel=2, data=[0, 64]),
   midi.PitchWheelEvent(tick=0, channel=2, data=[0, 64]),
   midi.NoteOffEvent(tick=0, channel=2, data=[64, 95]),
   midi.PitchWheelEvent(tick=0, channel=2, data=[0, 64]),
   midi.NoteOnEvent(tick=0, channel=2, data=[64, 95]),
   midi.PitchWheelEvent(tick=7, channel=2, data=[0, 65]),
   midi.PitchWheelEvent(tick=7, channel=2, data=[0, 66]),
   midi.PitchWheelEvent(tick=7, channel=2, data=[0, 67]),
   midi.PitchWheelEvent(tick=7, channel=2, data=[0, 68]),
   midi.PitchWheelEvent(tick=7, channel=2, data=[0, 69]),
   midi.PitchWheelEvent(tick=7, channel=2, data=[0, 70]),
   midi.PitchWheelEvent(tick=7, channel=2, data=[0, 71]),
   midi.PitchWheelEvent(tick=7, channel=2, data=[0, 72]),
   midi.PitchWheelEvent(tick=7, channel=2, data=[0, 73]),
   midi.PitchWheelEvent(tick=7, channel=2, data=[0, 74]),
   midi.PitchWheelEvent(tick=7, channel=2, data=[0, 75]),
   midi.PitchWheelEvent(tick=3, channel=2, data=[0, 75]),
   midi.PitchWheelEvent(tick=160, channel=2, data=[0, 75]),
   midi.PitchWheelEvent(tick=240, channel=2, data=[0, 75]),
   midi.PitchWheelEvent(tick=21, channel=2, data=[0, 74]),
   midi.PitchWheelEvent(tick=21, channel=2, data=[0, 73]),
   midi.PitchWheelEvent(tick=21, channel=2, data=[0, 72]),
   midi.PitchWheelEvent(tick=21, channel=2, data=[0, 71]),
   midi.PitchWheelEvent(tick=21, channel=2, data=[0, 70]),
   midi.PitchWheelEvent(tick=21, channel=2, data=[0, 69]),
   midi.PitchWheelEvent(tick=21, channel=2, data=[0, 68]),
   midi.PitchWheelEvent(tick=21, channel=2, data=[0, 67]),
   midi.PitchWheelEvent(tick=21, channel=2, data=[0, 66]),
   midi.PitchWheelEvent(tick=21, channel=2, data=[0, 65]),
   midi.PitchWheelEvent(tick=21, channel=2, data=[0, 64]),
   midi.PitchWheelEvent(tick=9, channel=2, data=[0, 64]),
   midi.PitchWheelEvent(tick=240, channel=2, data=[0, 64]),
   midi.PitchWheelEvent(tick=0, channel=2, data=[0, 64]),
   midi.NoteOffEvent(tick=0, channel=2, data=[64, 95]),
   midi.PitchWheelEvent(tick=0, channel=2, data=[0, 64]),
   midi.NoteOnEvent(tick=0, channel=2, data=[46, 95]),
   midi.PitchWheelEvent(tick=174, channel=2, data=[0, 65]),
   midi.PitchWheelEvent(tick=174, channel=2, data=[0, 66]),
   midi.PitchWheelEvent(tick=174, channel=2, data=[0, 67]),
   midi.PitchWheelEvent(tick=174, channel=2, data=[0, 68]),
   midi.PitchWheelEvent(tick=174, channel=2, data=[0, 69]),
   midi.PitchWheelEvent(tick=174, channel=2, data=[0, 70]),
   midi.PitchWheelEvent(tick=174, channel=2, data=[0, 71]),
   midi.PitchWheelEvent(tick=174, channel=2, data=[0, 72]),
   midi.PitchWheelEvent(tick=174, channel=2, data=[0, 73]),
   midi.PitchWheelEvent(tick=174, channel=2, data=[0, 74]),
   midi.PitchWheelEvent(tick=174, channel=2, data=[0, 75]),
   midi.PitchWheelEvent(tick=6, channel=2, data=[0, 75]),
   midi.PitchWheelEvent(tick=1920, channel=2, data=[0, 75]),
   midi.PitchWheelEvent(tick=0, channel=2, data=[0, 64]),
   midi.NoteOffEvent(tick=0, channel=2, data=[46, 95]),
   midi.NoteOnEvent(tick=0, channel=2, data=[83, 95]),
   midi.PitchWheelEvent(tick=160, channel=2, data=[0, 64]),
   midi.PitchWheelEvent(tick=160, channel=2, data=[0, 65]),
   midi.PitchWheelEvent(tick=160, channel=2, data=[0, 64]),
   midi.PitchWheelEvent(tick=160, channel=2, data=[0, 65]),
   midi.PitchWheelEvent(tick=160, channel=2, data=[0, 64]),
   midi.PitchWheelEvent(tick=160, channel=2, data=[0, 65]),
   midi.PitchWheelEvent(tick=160, channel=2, data=[0, 64]),
   midi.PitchWheelEvent(tick=160, channel=2, data=[0, 65]),
   midi.PitchWheelEvent(tick=160, channel=2, data=[0, 64]),
   midi.PitchWheelEvent(tick=160, channel=2, data=[0, 65]),
   midi.PitchWheelEvent(tick=160, channel=2, data=[0, 64]),
   midi.PitchWheelEvent(tick=160, channel=2, data=[0, 65]),
   midi.PitchWheelEvent(tick=0, channel=2, data=[0, 64]),
   midi.NoteOffEvent(tick=0, channel=2, data=[83, 95]),
   midi.NoteOnEvent(tick=0, channel=2, data=[50, 95]),
   midi.PitchWheelEvent(tick=120, channel=2, data=[0, 66]),
   midi.PitchWheelEvent(tick=120, channel=2, data=[0, 68]),
   midi.PitchWheelEvent(tick=120, channel=2, data=[0, 70]),
   midi.PitchWheelEvent(tick=120, channel=2, data=[0, 73]),
   midi.PitchWheelEvent(tick=120, channel=2, data=[0, 75]),
   midi.PitchWheelEvent(tick=120, channel=2, data=[0, 77]),
   midi.PitchWheelEvent(tick=120, channel=2, data=[0, 80]),
   midi.PitchWheelEvent(tick=120, channel=2, data=[0, 82]),
   midi.PitchWheelEvent(tick=120, channel=2, data=[0, 84]),
   midi.PitchWheelEvent(tick=120, channel=2, data=[0, 86]),
   midi.PitchWheelEvent(tick=120, channel=2, data=[0, 89]),
   midi.PitchWheelEvent(tick=120, channel=2, data=[0, 91]),
   midi.PitchWheelEvent(tick=0, channel=2, data=[0, 64]),
   midi.NoteOffEvent(tick=0, channel=2, data=[50, 95]),
   midi.NoteOnEvent(tick=0, channel=2, data=[55, 95]),
   midi.NoteOffEvent(tick=480, channel=2, data=[55, 95]),
   midi.NoteOnEvent(tick=0, channel=2, data=[67, 95]),
   midi.NoteOffEvent(tick=480, channel=2, data=[67, 95]),
   midi.NoteOnEvent(tick=0, channel=2, data=[61, 95]),
   midi.NoteOffEvent(tick=480, channel=2, data=[61, 95]),
   midi.NoteOnEvent(tick=0, channel=2, data=[66, 95]),
   midi.NoteOffEvent(tick=480, channel=2, data=[66, 95]),
   midi.NoteOnEvent(tick=0, channel=2, data=[72, 95]),
   midi.NoteOffEvent(tick=480, channel=2, data=[72, 95]),
   midi.NoteOnEvent(tick=0, channel=2, data=[77, 95]),
   midi.NoteOffEvent(tick=480, channel=2, data=[77, 95]),
   midi.NoteOnEvent(tick=0, channel=2, data=[71, 95]),
   midi.NoteOffEvent(tick=480, channel=2, data=[71, 95]),
   midi.NoteOnEvent(tick=0, channel=2, data=[76, 95]),
   midi.NoteOffEvent(tick=480, channel=2, data=[76, 95]),
   midi.NoteOnEvent(tick=0, channel=2, data=[79, 95]),
   midi.PitchWheelEvent(tick=120, channel=2, data=[0, 66]),
   midi.PitchWheelEvent(tick=120, channel=2, data=[0, 69]),
   midi.PitchWheelEvent(tick=120, channel=2, data=[0, 72]),
   midi.PitchWheelEvent(tick=120, channel=2, data=[0, 75]),
   midi.PitchWheelEvent(tick=0, channel=2, data=[0, 64]),
   midi.NoteOffEvent(tick=0, channel=2, data=[79, 95]),
   midi.NoteOnEvent(tick=0, channel=2, data=[81, 95]),
   midi.NoteOnEvent(tick=0, channel=2, data=[76, 95]),
   midi.NoteOffEvent(tick=480, channel=2, data=[81, 95]),
   midi.NoteOffEvent(tick=0, channel=2, data=[76, 95]),
   midi.NoteOnEvent(tick=0, channel=2, data=[79, 95]),
   midi.NoteOffEvent(tick=960, channel=2, data=[79, 95]),
   midi.PitchWheelEvent(tick=0, channel=2, data=[0, 64]),
   midi.NoteOnEvent(tick=0, channel=2, data=[77, 95]),
   midi.PitchWheelEvent(tick=36, channel=2, data=[0, 65]),
   midi.PitchWheelEvent(tick=36, channel=2, data=[0, 66]),
   midi.PitchWheelEvent(tick=36, channel=2, data=[0, 67]),
   midi.PitchWheelEvent(tick=36, channel=2, data=[0, 68]),
   midi.PitchWheelEvent(tick=36, channel=2, data=[0, 69]),
   midi.PitchWheelEvent(tick=36, channel=2, data=[0, 70]),
   midi.PitchWheelEvent(tick=36, channel=2, data=[0, 71]),
   midi.PitchWheelEvent(tick=36, channel=2, data=[0, 72]),
   midi.PitchWheelEvent(tick=36, channel=2, data=[0, 73]),
   midi.PitchWheelEvent(tick=36, channel=2, data=[0, 74]),
   midi.PitchWheelEvent(tick=36, channel=2, data=[0, 75]),
   midi.PitchWheelEvent(tick=4, channel=2, data=[0, 75]),
   midi.PitchWheelEvent(tick=800, channel=2, data=[0, 75]),
   midi.PitchWheelEvent(tick=1200, channel=2, data=[0, 75]),
   midi.PitchWheelEvent(tick=0, channel=2, data=[0, 64]),
   midi.NoteOffEvent(tick=0, channel=2, data=[77, 95]),
   midi.PitchWheelEvent(tick=0, channel=2, data=[0, 64]),
   midi.NoteOnEvent(tick=0, channel=2, data=[81, 95]),
   midi.PitchWheelEvent(tick=58, channel=2, data=[0, 65]),
   midi.PitchWheelEvent(tick=58, channel=2, data=[0, 66]),
   midi.PitchWheelEvent(tick=58, channel=2, data=[0, 67]),
   midi.PitchWheelEvent(tick=58, channel=2, data=[0, 68]),
   midi.PitchWheelEvent(tick=58, channel=2, data=[0, 69]),
   midi.PitchWheelEvent(tick=58, channel=2, data=[0, 70]),
   midi.PitchWheelEvent(tick=58, channel=2, data=[0, 71]),
   midi.PitchWheelEvent(tick=58, channel=2, data=[0, 72]),
   midi.PitchWheelEvent(tick=58, channel=2, data=[0, 73]),
   midi.PitchWheelEvent(tick=58, channel=2, data=[0, 74]),
   midi.PitchWheelEvent(tick=58, channel=2, data=[0, 75]),
   midi.PitchWheelEvent(tick=2, channel=2, data=[0, 75]),
   midi.PitchWheelEvent(tick=320, channel=2, data=[0, 75]),
   midi.PitchWheelEvent(tick=960, channel=2, data=[0, 75]),
   midi.PitchWheelEvent(tick=87, channel=2, data=[0, 74]),
   midi.PitchWheelEvent(tick=87, channel=2, data=[0, 73]),
   midi.PitchWheelEvent(tick=87, channel=2, data=[0, 72]),
   midi.PitchWheelEvent(tick=87, channel=2, data=[0, 71]),
   midi.PitchWheelEvent(tick=87, channel=2, data=[0, 70]),
   midi.PitchWheelEvent(tick=87, channel=2, data=[0, 69]),
   midi.PitchWheelEvent(tick=87, channel=2, data=[0, 68]),
   midi.PitchWheelEvent(tick=87, channel=2, data=[0, 67]),
   midi.PitchWheelEvent(tick=87, channel=2, data=[0, 66]),
   midi.PitchWheelEvent(tick=87, channel=2, data=[0, 65]),
   midi.PitchWheelEvent(tick=87, channel=2, data=[0, 64]),
   midi.PitchWheelEvent(tick=3, channel=2, data=[0, 64]),
   midi.PitchWheelEvent(tick=960, channel=2, data=[0, 64]),
   midi.PitchWheelEvent(tick=0, channel=2, data=[0, 64]),
   midi.NoteOffEvent(tick=0, channel=2, data=[81, 95]),
   midi.PitchWheelEvent(tick=0, channel=2, data=[0, 64]),
   midi.NoteOnEvent(tick=0, channel=2, data=[40, 95]),
   midi.PitchWheelEvent(tick=29, channel=2, data=[0, 63]),
   midi.PitchWheelEvent(tick=29, channel=2, data=[0, 62]),
   midi.PitchWheelEvent(tick=29, channel=2, data=[0, 61]),
   midi.PitchWheelEvent(tick=29, channel=2, data=[0, 60]),
   midi.PitchWheelEvent(tick=29, channel=2, data=[0, 59]),
   midi.PitchWheelEvent(tick=29, channel=2, data=[0, 58]),
   midi.PitchWheelEvent(tick=29, channel=2, data=[0, 57]),
   midi.PitchWheelEvent(tick=29, channel=2, data=[0, 56]),
   midi.PitchWheelEvent(tick=29, channel=2, data=[0, 55]),
   midi.PitchWheelEvent(tick=29, channel=2, data=[0, 54]),
   midi.PitchWheelEvent(tick=29, channel=2, data=[0, 53]),
   midi.PitchWheelEvent(tick=29, channel=2, data=[0, 52]),
   midi.PitchWheelEvent(tick=29, channel=2, data=[0, 51]),
   midi.PitchWheelEvent(tick=29, channel=2, data=[0, 50]),
   midi.PitchWheelEvent(tick=29, channel=2, data=[0, 49]),
   midi.PitchWheelEvent(tick=29, channel=2, data=[0, 48]),
   midi.PitchWheelEvent(tick=29, channel=2, data=[0, 47]),
   midi.PitchWheelEvent(tick=29, channel=2, data=[0, 46]),
   midi.PitchWheelEvent(tick=29, channel=2, data=[0, 45]),
   midi.PitchWheelEvent(tick=29, channel=2, data=[0, 44]),
   midi.PitchWheelEvent(tick=29, channel=2, data=[0, 43]),
   midi.PitchWheelEvent(tick=29, channel=2, data=[0, 42]),
   midi.PitchWheelEvent(tick=29, channel=2, data=[0, 41]),
   midi.PitchWheelEvent(tick=29, channel=2, data=[0, 40]),
   midi.PitchWheelEvent(tick=29, channel=2, data=[0, 39]),
   midi.PitchWheelEvent(tick=29, channel=2, data=[0, 38]),
   midi.PitchWheelEvent(tick=29, channel=2, data=[0, 37]),
   midi.PitchWheelEvent(tick=29, channel=2, data=[0, 36]),
   midi.PitchWheelEvent(tick=29, channel=2, data=[0, 35]),
   midi.PitchWheelEvent(tick=29, channel=2, data=[0, 34]),
   midi.PitchWheelEvent(tick=29, channel=2, data=[0, 33]),
   midi.PitchWheelEvent(tick=29, channel=2, data=[0, 32]),
   midi.PitchWheelEvent(tick=29, channel=2, data=[0, 31]),
   midi.PitchWheelEvent(tick=29, channel=2, data=[0, 30]),
   midi.PitchWheelEvent(tick=29, channel=2, data=[0, 29]),
   midi.PitchWheelEvent(tick=29, channel=2, data=[0, 28]),
   midi.PitchWheelEvent(tick=29, channel=2, data=[0, 27]),
   midi.PitchWheelEvent(tick=29, channel=2, data=[0, 26]),
   midi.PitchWheelEvent(tick=29, channel=2, data=[0, 25]),
   midi.PitchWheelEvent(tick=29, channel=2, data=[0, 24]),
   midi.PitchWheelEvent(tick=29, channel=2, data=[0, 23]),
   midi.PitchWheelEvent(tick=29, channel=2, data=[0, 22]),
   midi.PitchWheelEvent(tick=29, channel=2, data=[0, 21]),
   midi.PitchWheelEvent(tick=29, channel=2, data=[0, 20]),
   midi.PitchWheelEvent(tick=29, channel=2, data=[0, 19]),
   midi.PitchWheelEvent(tick=29, channel=2, data=[0, 18]),
   midi.PitchWheelEvent(tick=29, channel=2, data=[0, 17]),
   midi.PitchWheelEvent(tick=29, channel=2, data=[0, 16]),
   midi.PitchWheelEvent(tick=29, channel=2, data=[0, 15]),
   midi.PitchWheelEvent(tick=29, channel=2, data=[0, 14]),
   midi.PitchWheelEvent(tick=29, channel=2, data=[0, 13]),
   midi.PitchWheelEvent(tick=29, channel=2, data=[0, 12]),
   midi.PitchWheelEvent(tick=29, channel=2, data=[0, 11]),
   midi.PitchWheelEvent(tick=29, channel=2, data=[0, 10]),
   midi.PitchWheelEvent(tick=29, channel=2, data=[0, 9]),
   midi.PitchWheelEvent(tick=29, channel=2, data=[0, 8]),
   midi.PitchWheelEvent(tick=29, channel=2, data=[0, 7]),
   midi.PitchWheelEvent(tick=29, channel=2, data=[0, 6]),
   midi.PitchWheelEvent(tick=29, channel=2, data=[0, 5]),
   midi.PitchWheelEvent(tick=29, channel=2, data=[0, 4]),
   midi.PitchWheelEvent(tick=29, channel=2, data=[0, 3]),
   midi.PitchWheelEvent(tick=29, channel=2, data=[0, 2]),
   midi.PitchWheelEvent(tick=29, channel=2, data=[0, 1]),
   midi.PitchWheelEvent(tick=29, channel=2, data=[0, 0]),
   midi.PitchWheelEvent(tick=29, channel=2, data=[0, 0]),
   midi.PitchWheelEvent(tick=29, channel=2, data=[0, 0]),
   midi.PitchWheelEvent(tick=6, channel=2, data=[0, 0]),
   midi.PitchWheelEvent(tick=30, channel=2, data=[0, 1]),
   midi.PitchWheelEvent(tick=30, channel=2, data=[0, 2]),
   midi.PitchWheelEvent(tick=30, channel=2, data=[0, 3]),
   midi.PitchWheelEvent(tick=30, channel=2, data=[0, 4]),
   midi.PitchWheelEvent(tick=30, channel=2, data=[0, 5]),
   midi.PitchWheelEvent(tick=30, channel=2, data=[0, 6]),
   midi.PitchWheelEvent(tick=30, channel=2, data=[0, 7]),
   midi.PitchWheelEvent(tick=30, channel=2, data=[0, 8]),
   midi.PitchWheelEvent(tick=30, channel=2, data=[0, 9]),
   midi.PitchWheelEvent(tick=30, channel=2, data=[0, 10]),
   midi.PitchWheelEvent(tick=30, channel=2, data=[0, 11]),
   midi.PitchWheelEvent(tick=30, channel=2, data=[0, 12]),
   midi.PitchWheelEvent(tick=30, channel=2, data=[0, 13]),
   midi.PitchWheelEvent(tick=30, channel=2, data=[0, 14]),
   midi.PitchWheelEvent(tick=30, channel=2, data=[0, 15]),
   midi.PitchWheelEvent(tick=30, channel=2, data=[0, 16]),
   midi.PitchWheelEvent(tick=30, channel=2, data=[0, 17]),
   midi.PitchWheelEvent(tick=30, channel=2, data=[0, 18]),
   midi.PitchWheelEvent(tick=30, channel=2, data=[0, 19]),
   midi.PitchWheelEvent(tick=30, channel=2, data=[0, 20]),
   midi.PitchWheelEvent(tick=30, channel=2, data=[0, 21]),
   midi.PitchWheelEvent(tick=30, channel=2, data=[0, 22]),
   midi.PitchWheelEvent(tick=30, channel=2, data=[0, 23]),
   midi.PitchWheelEvent(tick=30, channel=2, data=[0, 24]),
   midi.PitchWheelEvent(tick=30, channel=2, data=[0, 25]),
   midi.PitchWheelEvent(tick=30, channel=2, data=[0, 26]),
   midi.PitchWheelEvent(tick=30, channel=2, data=[0, 27]),
   midi.PitchWheelEvent(tick=30, channel=2, data=[0, 28]),
   midi.PitchWheelEvent(tick=30, channel=2, data=[0, 29]),
   midi.PitchWheelEvent(tick=30, channel=2, data=[0, 30]),
   midi.PitchWheelEvent(tick=30, channel=2, data=[0, 31]),
   midi.PitchWheelEvent(tick=30, channel=2, data=[0, 32]),
   midi.PitchWheelEvent(tick=30, channel=2, data=[0, 33]),
   midi.PitchWheelEvent(tick=30, channel=2, data=[0, 34]),
   midi.PitchWheelEvent(tick=30, channel=2, data=[0, 35]),
   midi.PitchWheelEvent(tick=30, channel=2, data=[0, 36]),
   midi.PitchWheelEvent(tick=30, channel=2, data=[0, 37]),
   midi.PitchWheelEvent(tick=30, channel=2, data=[0, 38]),
   midi.PitchWheelEvent(tick=30, channel=2, data=[0, 39]),
   midi.PitchWheelEvent(tick=30, channel=2, data=[0, 40]),
   midi.PitchWheelEvent(tick=30, channel=2, data=[0, 41]),
   midi.PitchWheelEvent(tick=30, channel=2, data=[0, 42]),
   midi.PitchWheelEvent(tick=30, channel=2, data=[0, 43]),
   midi.PitchWheelEvent(tick=30, channel=2, data=[0, 44]),
   midi.PitchWheelEvent(tick=30, channel=2, data=[0, 45]),
   midi.PitchWheelEvent(tick=30, channel=2, data=[0, 46]),
   midi.PitchWheelEvent(tick=30, channel=2, data=[0, 47]),
   midi.PitchWheelEvent(tick=30, channel=2, data=[0, 48]),
   midi.PitchWheelEvent(tick=30, channel=2, data=[0, 49]),
   midi.PitchWheelEvent(tick=30, channel=2, data=[0, 50]),
   midi.PitchWheelEvent(tick=30, channel=2, data=[0, 51]),
   midi.PitchWheelEvent(tick=30, channel=2, data=[0, 52]),
   midi.PitchWheelEvent(tick=30, channel=2, data=[0, 53]),
   midi.PitchWheelEvent(tick=30, channel=2, data=[0, 54]),
   midi.PitchWheelEvent(tick=30, channel=2, data=[0, 55]),
   midi.PitchWheelEvent(tick=30, channel=2, data=[0, 56]),
   midi.PitchWheelEvent(tick=30, channel=2, data=[0, 57]),
   midi.PitchWheelEvent(tick=30, channel=2, data=[0, 58]),
   midi.PitchWheelEvent(tick=30, channel=2, data=[0, 59]),
   midi.PitchWheelEvent(tick=30, channel=2, data=[0, 60]),
   midi.PitchWheelEvent(tick=30, channel=2, data=[0, 61]),
   midi.PitchWheelEvent(tick=30, channel=2, data=[0, 62]),
   midi.PitchWheelEvent(tick=30, channel=2, data=[0, 63]),
   midi.PitchWheelEvent(tick=30, channel=2, data=[0, 64]),
   midi.PitchWheelEvent(tick=0, channel=2, data=[0, 64]),
   midi.PitchWheelEvent(tick=0, channel=2, data=[0, 64]),
   midi.NoteOffEvent(tick=0, channel=2, data=[40, 95]),
   midi.PitchWheelEvent(tick=0, channel=2, data=[0, 64]),
   midi.NoteOnEvent(tick=0, channel=2, data=[64, 95]),
   midi.PitchWheelEvent(tick=0, channel=2, data=[0, 64]),
   midi.NoteOnEvent(tick=0, channel=2, data=[60, 95]),
   midi.PitchWheelEvent(tick=87, channel=2, data=[0, 63]),
   midi.PitchWheelEvent(tick=0, channel=2, data=[0, 63]),
   midi.PitchWheelEvent(tick=87, channel=2, data=[0, 62]),
   midi.PitchWheelEvent(tick=0, channel=2, data=[0, 62]),
   midi.PitchWheelEvent(tick=87, channel=2, data=[0, 61]),
   midi.PitchWheelEvent(tick=0, channel=2, data=[0, 61]),
   midi.PitchWheelEvent(tick=87, channel=2, data=[0, 60]),
   midi.PitchWheelEvent(tick=0, channel=2, data=[0, 60]),
   midi.PitchWheelEvent(tick=87, channel=2, data=[0, 59]),
   midi.PitchWheelEvent(tick=0, channel=2, data=[0, 59]),
   midi.PitchWheelEvent(tick=87, channel=2, data=[0, 58]),
   midi.PitchWheelEvent(tick=0, channel=2, data=[0, 58]),
   midi.PitchWheelEvent(tick=87, channel=2, data=[0, 57]),
   midi.PitchWheelEvent(tick=0, channel=2, data=[0, 57]),
   midi.PitchWheelEvent(tick=87, channel=2, data=[0, 56]),
   midi.PitchWheelEvent(tick=0, channel=2, data=[0, 56]),
   midi.PitchWheelEvent(tick=87, channel=2, data=[0, 55]),
   midi.PitchWheelEvent(tick=0, channel=2, data=[0, 55]),
   midi.PitchWheelEvent(tick=87, channel=2, data=[0, 54]),
   midi.PitchWheelEvent(tick=0, channel=2, data=[0, 54]),
   midi.PitchWheelEvent(tick=87, channel=2, data=[0, 53]),
   midi.PitchWheelEvent(tick=0, channel=2, data=[0, 53]),
   midi.PitchWheelEvent(tick=87, channel=2, data=[0, 52]),
   midi.PitchWheelEvent(tick=0, channel=2, data=[0, 52]),
   midi.PitchWheelEvent(tick=87, channel=2, data=[0, 51]),
   midi.PitchWheelEvent(tick=0, channel=2, data=[0, 51]),
   midi.PitchWheelEvent(tick=87, channel=2, data=[0, 50]),
   midi.PitchWheelEvent(tick=0, channel=2, data=[0, 50]),
   midi.PitchWheelEvent(tick=87, channel=2, data=[0, 49]),
   midi.PitchWheelEvent(tick=0, channel=2, data=[0, 49]),
   midi.PitchWheelEvent(tick=87, channel=2, data=[0, 48]),
   midi.PitchWheelEvent(tick=0, channel=2, data=[0, 48]),
   midi.PitchWheelEvent(tick=87, channel=2, data=[0, 47]),
   midi.PitchWheelEvent(tick=0, channel=2, data=[0, 47]),
   midi.PitchWheelEvent(tick=87, channel=2, data=[0, 46]),
   midi.PitchWheelEvent(tick=0, channel=2, data=[0, 46]),
   midi.PitchWheelEvent(tick=87, channel=2, data=[0, 45]),
   midi.PitchWheelEvent(tick=0, channel=2, data=[0, 45]),
   midi.PitchWheelEvent(tick=87, channel=2, data=[0, 44]),
   midi.PitchWheelEvent(tick=0, channel=2, data=[0, 44]),
   midi.PitchWheelEvent(tick=87, channel=2, data=[0, 43]),
   midi.PitchWheelEvent(tick=0, channel=2, data=[0, 43]),
   midi.PitchWheelEvent(tick=87, channel=2, data=[0, 42]),
   midi.PitchWheelEvent(tick=0, channel=2, data=[0, 42]),
   midi.PitchWheelEvent(tick=6, channel=2, data=[0, 42]),
   midi.PitchWheelEvent(tick=0, channel=2, data=[0, 42]),
   midi.PitchWheelEvent(tick=87, channel=2, data=[0, 43]),
   midi.PitchWheelEvent(tick=0, channel=2, data=[0, 43]),
   midi.PitchWheelEvent(tick=87, channel=2, data=[0, 44]),
   midi.PitchWheelEvent(tick=0, channel=2, data=[0, 44]),
   midi.PitchWheelEvent(tick=87, channel=2, data=[0, 45]),
   midi.PitchWheelEvent(tick=0, channel=2, data=[0, 45]),
   midi.PitchWheelEvent(tick=87, channel=2, data=[0, 46]),
   midi.PitchWheelEvent(tick=0, channel=2, data=[0, 46]),
   midi.PitchWheelEvent(tick=87, channel=2, data=[0, 47]),
   midi.PitchWheelEvent(tick=0, channel=2, data=[0, 47]),
   midi.PitchWheelEvent(tick=87, channel=2, data=[0, 48]),
   midi.PitchWheelEvent(tick=0, channel=2, data=[0, 48]),
   midi.PitchWheelEvent(tick=87, channel=2, data=[0, 49]),
   midi.PitchWheelEvent(tick=0, channel=2, data=[0, 49]),
   midi.PitchWheelEvent(tick=87, channel=2, data=[0, 50]),
   midi.PitchWheelEvent(tick=0, channel=2, data=[0, 50]),
   midi.PitchWheelEvent(tick=87, channel=2, data=[0, 51]),
   midi.PitchWheelEvent(tick=0, channel=2, data=[0, 51]),
   midi.PitchWheelEvent(tick=87, channel=2, data=[0, 52]),
   midi.PitchWheelEvent(tick=0, channel=2, data=[0, 52]),
   midi.PitchWheelEvent(tick=87, channel=2, data=[0, 53]),
   midi.PitchWheelEvent(tick=0, channel=2, data=[0, 53]),
   midi.PitchWheelEvent(tick=87, channel=2, data=[0, 54]),
   midi.PitchWheelEvent(tick=0, channel=2, data=[0, 54]),
   midi.PitchWheelEvent(tick=87, channel=2, data=[0, 55]),
   midi.PitchWheelEvent(tick=0, channel=2, data=[0, 55]),
   midi.PitchWheelEvent(tick=87, channel=2, data=[0, 56]),
   midi.PitchWheelEvent(tick=0, channel=2, data=[0, 56]),
   midi.PitchWheelEvent(tick=87, channel=2, data=[0, 57]),
   midi.PitchWheelEvent(tick=0, channel=2, data=[0, 57]),
   midi.PitchWheelEvent(tick=87, channel=2, data=[0, 58]),
   midi.PitchWheelEvent(tick=0, channel=2, data=[0, 58]),
   midi.PitchWheelEvent(tick=87, channel=2, data=[0, 59]),
   midi.PitchWheelEvent(tick=0, channel=2, data=[0, 59]),
   midi.PitchWheelEvent(tick=87, channel=2, data=[0, 60]),
   midi.PitchWheelEvent(tick=0, channel=2, data=[0, 60]),
   midi.PitchWheelEvent(tick=87, channel=2, data=[0, 61]),
   midi.PitchWheelEvent(tick=0, channel=2, data=[0, 61]),
   midi.PitchWheelEvent(tick=87, channel=2, data=[0, 62]),
   midi.PitchWheelEvent(tick=0, channel=2, data=[0, 62]),
   midi.PitchWheelEvent(tick=87, channel=2, data=[0, 63]),
   midi.PitchWheelEvent(tick=0, channel=2, data=[0, 63]),
   midi.PitchWheelEvent(tick=87, channel=2, data=[0, 64]),
   midi.PitchWheelEvent(tick=0, channel=2, data=[0, 64]),
   midi.PitchWheelEvent(tick=6, channel=2, data=[0, 64]),
   midi.PitchWheelEvent(tick=0, channel=2, data=[0, 64]),
   midi.NoteOffEvent(tick=0, channel=2, data=[64, 95]),
   midi.PitchWheelEvent(tick=0, channel=2, data=[0, 64]),
   midi.PitchWheelEvent(tick=0, channel=2, data=[0, 64]),
   midi.NoteOffEvent(tick=0, channel=2, data=[60, 95]),
   midi.PitchWheelEvent(tick=0, channel=2, data=[0, 64]),
   midi.NoteOnEvent(tick=0, channel=2, data=[79, 95]),
   midi.PitchWheelEvent(tick=76, channel=2, data=[0, 63]),
   midi.PitchWheelEvent(tick=76, channel=2, data=[0, 62]),
   midi.PitchWheelEvent(tick=76, channel=2, data=[0, 61]),
   midi.PitchWheelEvent(tick=76, channel=2, data=[0, 60]),
   midi.PitchWheelEvent(tick=76, channel=2, data=[0, 59]),
   midi.PitchWheelEvent(tick=76, channel=2, data=[0, 58]),
   midi.PitchWheelEvent(tick=76, channel=2, data=[0, 57]),
   midi.PitchWheelEvent(tick=76, channel=2, data=[0, 56]),
   midi.PitchWheelEvent(tick=76, channel=2, data=[0, 55]),
   midi.PitchWheelEvent(tick=76, channel=2, data=[0, 54]),
   midi.PitchWheelEvent(tick=76, channel=2, data=[0, 53]),
   midi.PitchWheelEvent(tick=76, channel=2, data=[0, 52]),
   midi.PitchWheelEvent(tick=76, channel=2, data=[0, 51]),
   midi.PitchWheelEvent(tick=76, channel=2, data=[0, 50]),
   midi.PitchWheelEvent(tick=76, channel=2, data=[0, 49]),
   midi.PitchWheelEvent(tick=76, channel=2, data=[0, 48]),
   midi.PitchWheelEvent(tick=76, channel=2, data=[0, 47]),
   midi.PitchWheelEvent(tick=76, channel=2, data=[0, 46]),
   midi.PitchWheelEvent(tick=76, channel=2, data=[0, 45]),
   midi.PitchWheelEvent(tick=76, channel=2, data=[0, 44]),
   midi.PitchWheelEvent(tick=76, channel=2, data=[0, 43]),
   midi.PitchWheelEvent(tick=76, channel=2, data=[0, 42]),
   midi.PitchWheelEvent(tick=8, channel=2, data=[0, 42]),
   midi.PitchWheelEvent(tick=76, channel=2, data=[0, 43]),
   midi.PitchWheelEvent(tick=76, channel=2, data=[0, 44]),
   midi.PitchWheelEvent(tick=76, channel=2, data=[0, 45]),
   midi.PitchWheelEvent(tick=76, channel=2, data=[0, 46]),
   midi.PitchWheelEvent(tick=76, channel=2, data=[0, 47]),
   midi.PitchWheelEvent(tick=76, channel=2, data=[0, 48]),
   midi.PitchWheelEvent(tick=76, channel=2, data=[0, 49]),
   midi.PitchWheelEvent(tick=76, channel=2, data=[0, 50]),
   midi.PitchWheelEvent(tick=76, channel=2, data=[0, 51]),
   midi.PitchWheelEvent(tick=76, channel=2, data=[0, 52]),
   midi.PitchWheelEvent(tick=76, channel=2, data=[0, 53]),
   midi.PitchWheelEvent(tick=76, channel=2, data=[0, 54]),
   midi.PitchWheelEvent(tick=76, channel=2, data=[0, 55]),
   midi.PitchWheelEvent(tick=76, channel=2, data=[0, 56]),
   midi.PitchWheelEvent(tick=76, channel=2, data=[0, 57]),
   midi.PitchWheelEvent(tick=76, channel=2, data=[0, 58]),
   midi.PitchWheelEvent(tick=76, channel=2, data=[0, 59]),
   midi.PitchWheelEvent(tick=76, channel=2, data=[0, 60]),
   midi.PitchWheelEvent(tick=76, channel=2, data=[0, 61]),
   midi.PitchWheelEvent(tick=76, channel=2, data=[0, 62]),
   midi.PitchWheelEvent(tick=76, channel=2, data=[0, 63]),
   midi.PitchWheelEvent(tick=76, channel=2, data=[0, 64]),
   midi.PitchWheelEvent(tick=8, channel=2, data=[0, 64]),
   midi.PitchWheelEvent(tick=0, channel=2, data=[0, 64]),
   midi.NoteOffEvent(tick=0, channel=2, data=[79, 95]),
   midi.NoteOnEvent(tick=0, channel=2, data=[79, 95]),
   midi.NoteOffEvent(tick=240, channel=2, data=[79, 95]),
   midi.NoteOnEvent(tick=0, channel=2, data=[81, 95]),
   midi.NoteOffEvent(tick=240, channel=2, data=[81, 95]),
   midi.NoteOnEvent(tick=0, channel=2, data=[83, 95]),
   midi.NoteOffEvent(tick=240, channel=2, data=[83, 95]),
   midi.NoteOnEvent(tick=0, channel=2, data=[81, 95]),
   midi.NoteOffEvent(tick=240, channel=2, data=[81, 95]),
   midi.NoteOnEvent(tick=0, channel=2, data=[79, 95]),
   midi.NoteOffEvent(tick=240, channel=2, data=[79, 95]),
   midi.NoteOnEvent(tick=0, channel=2, data=[83, 95]),
   midi.NoteOffEvent(tick=240, channel=2, data=[83, 95]),
   midi.NoteOnEvent(tick=0, channel=2, data=[83, 95]),
   midi.NoteOffEvent(tick=240, channel=2, data=[83, 95]),
   midi.NoteOnEvent(tick=0, channel=2, data=[81, 95]),
   midi.NoteOffEvent(tick=240, channel=2, data=[81, 95]),
   midi.NoteOnEvent(tick=0, channel=2, data=[79, 95]),
   midi.NoteOffEvent(tick=240, channel=2, data=[79, 95]),
   midi.NoteOnEvent(tick=0, channel=2, data=[83, 95]),
   midi.NoteOffEvent(tick=240, channel=2, data=[83, 95]),
   midi.NoteOnEvent(tick=0, channel=2, data=[83, 95]),
   midi.NoteOffEvent(tick=240, channel=2, data=[83, 95]),
   midi.NoteOnEvent(tick=0, channel=2, data=[79, 95]),
   midi.NoteOffEvent(tick=240, channel=2, data=[79, 95]),
   midi.NoteOnEvent(tick=0, channel=2, data=[78, 95]),
   midi.NoteOffEvent(tick=240, channel=2, data=[78, 95]),
   midi.NoteOnEvent(tick=0, channel=2, data=[76, 95]),
   midi.NoteOffEvent(tick=240, channel=2, data=[76, 95]),
   midi.NoteOnEvent(tick=0, channel=2, data=[79, 95]),
   midi.NoteOffEvent(tick=240, channel=2, data=[79, 95]),
   midi.NoteOnEvent(tick=0, channel=2, data=[78, 95]),
   midi.NoteOffEvent(tick=240, channel=2, data=[78, 95]),
   midi.NoteOnEvent(tick=0, channel=2, data=[76, 95]),
   midi.NoteOffEvent(tick=240, channel=2, data=[76, 95]),
   midi.NoteOnEvent(tick=0, channel=2, data=[79, 95]),
   midi.NoteOffEvent(tick=240, channel=2, data=[79, 95]),
   midi.NoteOnEvent(tick=0, channel=2, data=[78, 95]),
   midi.NoteOffEvent(tick=240, channel=2, data=[78, 95]),
   midi.NoteOnEvent(tick=0, channel=2, data=[76, 95]),
   midi.NoteOffEvent(tick=240, channel=2, data=[76, 95]),
   midi.NoteOnEvent(tick=0, channel=2, data=[74, 95]),
   midi.NoteOffEvent(tick=240, channel=2, data=[74, 95]),
   midi.NoteOnEvent(tick=0, channel=2, data=[72, 95]),
   midi.NoteOffEvent(tick=240, channel=2, data=[72, 95]),
   midi.NoteOnEvent(tick=0, channel=2, data=[72, 95]),
   midi.NoteOffEvent(tick=240, channel=2, data=[72, 95]),
   midi.NoteOnEvent(tick=0, channel=2, data=[71, 95]),
   midi.NoteOffEvent(tick=240, channel=2, data=[71, 95]),
   midi.NoteOnEvent(tick=0, channel=2, data=[72, 95]),
   midi.NoteOffEvent(tick=240, channel=2, data=[72, 95]),
   midi.NoteOnEvent(tick=0, channel=2, data=[74, 95]),
   midi.NoteOffEvent(tick=240, channel=2, data=[74, 95]),
   midi.NoteOnEvent(tick=0, channel=2, data=[72, 95]),
   midi.NoteOffEvent(tick=240, channel=2, data=[72, 95]),
   midi.NoteOnEvent(tick=0, channel=2, data=[71, 95]),
   midi.PitchWheelEvent(tick=160, channel=2, data=[0, 64]),
   midi.PitchWheelEvent(tick=160, channel=2, data=[0, 65]),
   midi.PitchWheelEvent(tick=160, channel=2, data=[0, 64]),
   midi.PitchWheelEvent(tick=160, channel=2, data=[0, 65]),
   midi.PitchWheelEvent(tick=80, channel=2, data=[0, 64]),
   midi.PitchWheelEvent(tick=0, channel=2, data=[0, 65]),
   midi.PitchWheelEvent(tick=0, channel=2, data=[0, 64]),
   midi.NoteOffEvent(tick=0, channel=2, data=[71, 95]),
   midi.NoteOnEvent(tick=0, channel=2, data=[72, 95]),
   midi.NoteOffEvent(tick=240, channel=2, data=[72, 95]),
   midi.NoteOnEvent(tick=0, channel=2, data=[71, 95]),
   midi.NoteOffEvent(tick=240, channel=2, data=[71, 95]),
   midi.NoteOnEvent(tick=0, channel=2, data=[71, 95]),
   midi.NoteOffEvent(tick=240, channel=2, data=[71, 95]),
   midi.NoteOnEvent(tick=0, channel=2, data=[71, 95]),
   midi.NoteOffEvent(tick=240, channel=2, data=[71, 95]),
   midi.NoteOnEvent(tick=0, channel=2, data=[71, 95]),
   midi.NoteOffEvent(tick=240, channel=2, data=[71, 95]),
   midi.NoteOnEvent(tick=0, channel=2, data=[71, 95]),
   midi.NoteOffEvent(tick=240, channel=2, data=[71, 95]),
   midi.NoteOnEvent(tick=0, channel=2, data=[71, 95]),
   midi.NoteOffEvent(tick=240, channel=2, data=[71, 95]),
   midi.NoteOnEvent(tick=0, channel=2, data=[69, 95]),
   midi.NoteOffEvent(tick=240, channel=2, data=[69, 95]),
   midi.NoteOnEvent(tick=0, channel=2, data=[67, 95]),
   midi.NoteOffEvent(tick=240, channel=2, data=[67, 95]),
   midi.NoteOnEvent(tick=0, channel=2, data=[66, 95]),
   midi.NoteOffEvent(tick=240, channel=2, data=[66, 95]),
   midi.NoteOnEvent(tick=0, channel=2, data=[69, 95]),
   midi.NoteOffEvent(tick=240, channel=2, data=[69, 95]),
   midi.NoteOnEvent(tick=0, channel=2, data=[67, 95]),
   midi.NoteOffEvent(tick=240, channel=2, data=[67, 95]),
   midi.NoteOnEvent(tick=0, channel=2, data=[66, 95]),
   midi.NoteOffEvent(tick=240, channel=2, data=[66, 95]),
   midi.NoteOnEvent(tick=0, channel=2, data=[69, 95]),
   midi.NoteOffEvent(tick=240, channel=2, data=[69, 95]),
   midi.NoteOnEvent(tick=0, channel=2, data=[67, 95]),
   midi.NoteOffEvent(tick=240, channel=2, data=[67, 95]),
   midi.NoteOnEvent(tick=0, channel=2, data=[66, 95]),
   midi.NoteOffEvent(tick=240, channel=2, data=[66, 95]),
   midi.NoteOnEvent(tick=0, channel=2, data=[62, 95]),
   midi.NoteOffEvent(tick=240, channel=2, data=[62, 95]),
   midi.NoteOnEvent(tick=0, channel=2, data=[59, 95]),
   midi.NoteOffEvent(tick=240, channel=2, data=[59, 95]),
   midi.NoteOnEvent(tick=0, channel=2, data=[60, 95]),
   midi.NoteOffEvent(tick=480, channel=2, data=[60, 95]),
   midi.NoteOnEvent(tick=0, channel=2, data=[62, 95]),
   midi.PitchWheelEvent(tick=160, channel=2, data=[0, 64]),
   midi.PitchWheelEvent(tick=160, channel=2, data=[0, 65]),
   midi.PitchWheelEvent(tick=160, channel=2, data=[0, 64]),
   midi.PitchWheelEvent(tick=160, channel=2, data=[0, 65]),
   midi.PitchWheelEvent(tick=160, channel=2, data=[0, 64]),
   midi.PitchWheelEvent(tick=160, channel=2, data=[0, 65]),
   midi.PitchWheelEvent(tick=160, channel=2, data=[0, 64]),
   midi.PitchWheelEvent(tick=160, channel=2, data=[0, 65]),
   midi.PitchWheelEvent(tick=160, channel=2, data=[0, 64]),
   midi.PitchWheelEvent(tick=160, channel=2, data=[0, 65]),
   midi.PitchWheelEvent(tick=160, channel=2, data=[0, 64]),
   midi.PitchWheelEvent(tick=160, channel=2, data=[0, 65]),
   midi.PitchWheelEvent(tick=160, channel=2, data=[0, 64]),
   midi.PitchWheelEvent(tick=160, channel=2, data=[0, 65]),
   midi.PitchWheelEvent(tick=160, channel=2, data=[0, 64]),
   midi.PitchWheelEvent(tick=160, channel=2, data=[0, 65]),
   midi.PitchWheelEvent(tick=160, channel=2, data=[0, 64]),
   midi.PitchWheelEvent(tick=160, channel=2, data=[0, 65]),
   midi.PitchWheelEvent(tick=160, channel=2, data=[0, 64]),
   midi.PitchWheelEvent(tick=160, channel=2, data=[0, 65]),
   midi.PitchWheelEvent(tick=160, channel=2, data=[0, 64]),
   midi.PitchWheelEvent(tick=160, channel=2, data=[0, 65]),
   midi.PitchWheelEvent(tick=160, channel=2, data=[0, 64]),
   midi.PitchWheelEvent(tick=160, channel=2, data=[0, 65]),
   midi.PitchWheelEvent(tick=0, channel=2, data=[0, 64]),
   midi.NoteOffEvent(tick=0, channel=2, data=[62, 95]),
   midi.NoteOnEvent(tick=0, channel=2, data=[59, 95]),
   midi.NoteOffEvent(tick=274, channel=2, data=[59, 95]),
   midi.NoteOnEvent(tick=0, channel=2, data=[66, 70]),
   midi.NoteOffEvent(tick=274, channel=2, data=[66, 70]),
   midi.NoteOnEvent(tick=0, channel=2, data=[69, 70]),
   midi.NoteOffEvent(tick=274, channel=2, data=[69, 70]),
   midi.NoteOnEvent(tick=0, channel=2, data=[59, 95]),
   midi.NoteOffEvent(tick=274, channel=2, data=[59, 95]),
   midi.NoteOnEvent(tick=0, channel=2, data=[68, 70]),
   midi.NoteOffEvent(tick=274, channel=2, data=[68, 70]),
   midi.NoteOnEvent(tick=0, channel=2, data=[71, 70]),
   midi.NoteOffEvent(tick=274, channel=2, data=[71, 70]),
   midi.NoteOnEvent(tick=0, channel=2, data=[59, 95]),
   midi.NoteOffEvent(tick=274, channel=2, data=[59, 95]),
   midi.NoteOnEvent(tick=0, channel=2, data=[66, 70]),
   midi.NoteOffEvent(tick=320, channel=2, data=[66, 70]),
   midi.NoteOnEvent(tick=0, channel=2, data=[69, 70]),
   midi.NoteOffEvent(tick=320, channel=2, data=[69, 70]),
   midi.NoteOnEvent(tick=0, channel=2, data=[59, 95]),
   midi.NoteOffEvent(tick=320, channel=2, data=[59, 95]),
   midi.NoteOnEvent(tick=0, channel=2, data=[68, 70]),
   midi.NoteOffEvent(tick=320, channel=2, data=[68, 70]),
   midi.NoteOnEvent(tick=0, channel=2, data=[71, 70]),
   midi.NoteOffEvent(tick=320, channel=2, data=[71, 70]),
   midi.NoteOnEvent(tick=0, channel=2, data=[59, 95]),
   midi.NoteOffEvent(tick=320, channel=2, data=[59, 95]),
   midi.NoteOnEvent(tick=2, channel=2, data=[66, 70]),
   midi.NoteOffEvent(tick=274, channel=2, data=[66, 70]),
   midi.NoteOnEvent(tick=0, channel=2, data=[69, 70]),
   midi.NoteOffEvent(tick=274, channel=2, data=[69, 70]),
   midi.NoteOnEvent(tick=0, channel=2, data=[59, 95]),
   midi.NoteOffEvent(tick=274, channel=2, data=[59, 95]),
   midi.NoteOnEvent(tick=0, channel=2, data=[68, 70]),
   midi.NoteOffEvent(tick=274, channel=2, data=[68, 70]),
   midi.NoteOnEvent(tick=0, channel=2, data=[71, 70]),
   midi.NoteOffEvent(tick=274, channel=2, data=[71, 70]),
   midi.NoteOnEvent(tick=0, channel=2, data=[59, 95]),
   midi.NoteOffEvent(tick=274, channel=2, data=[59, 95]),
   midi.NoteOnEvent(tick=0, channel=2, data=[66, 70]),
   midi.NoteOffEvent(tick=274, channel=2, data=[66, 70]),
   midi.NoteOnEvent(tick=0, channel=2, data=[69, 70]),
   midi.NoteOffEvent(tick=320, channel=2, data=[69, 70]),
   midi.NoteOnEvent(tick=0, channel=2, data=[59, 95]),
   midi.NoteOffEvent(tick=320, channel=2, data=[59, 95]),
   midi.NoteOnEvent(tick=0, channel=2, data=[68, 70]),
   midi.NoteOffEvent(tick=320, channel=2, data=[68, 70]),
   midi.NoteOnEvent(tick=0, channel=2, data=[71, 70]),
   midi.NoteOffEvent(tick=320, channel=2, data=[71, 70]),
   midi.NoteOnEvent(tick=0, channel=2, data=[59, 95]),
   midi.NoteOffEvent(tick=320, channel=2, data=[59, 95]),
   midi.NoteOnEvent(tick=0, channel=2, data=[66, 70]),
   midi.NoteOffEvent(tick=320, channel=2, data=[66, 70]),
   midi.NoteOnEvent(tick=2, channel=2, data=[69, 70]),
   midi.NoteOffEvent(tick=274, channel=2, data=[69, 70]),
   midi.NoteOnEvent(tick=0, channel=2, data=[59, 95]),
   midi.NoteOffEvent(tick=274, channel=2, data=[59, 95]),
   midi.NoteOnEvent(tick=0, channel=2, data=[68, 70]),
   midi.NoteOffEvent(tick=274, channel=2, data=[68, 70]),
   midi.NoteOnEvent(tick=0, channel=2, data=[71, 70]),
   midi.NoteOffEvent(tick=274, channel=2, data=[71, 70]),
   midi.NoteOnEvent(tick=0, channel=2, data=[59, 95]),
   midi.NoteOffEvent(tick=274, channel=2, data=[59, 95]),
   midi.NoteOnEvent(tick=0, channel=2, data=[69, 70]),
   midi.NoteOffEvent(tick=274, channel=2, data=[69, 70]),
   midi.NoteOnEvent(tick=0, channel=2, data=[72, 70]),
   midi.NoteOffEvent(tick=274, channel=2, data=[72, 70]),
   midi.NoteOnEvent(tick=0, channel=2, data=[59, 95]),
   midi.NoteOffEvent(tick=320, channel=2, data=[59, 95]),
   midi.NoteOnEvent(tick=0, channel=2, data=[71, 70]),
   midi.NoteOffEvent(tick=320, channel=2, data=[71, 70]),
   midi.NoteOnEvent(tick=0, channel=2, data=[74, 70]),
   midi.NoteOffEvent(tick=320, channel=2, data=[74, 70]),
   midi.NoteOnEvent(tick=0, channel=2, data=[59, 95]),
   midi.NoteOffEvent(tick=320, channel=2, data=[59, 95]),
   midi.NoteOnEvent(tick=0, channel=2, data=[72, 70]),
   midi.NoteOffEvent(tick=320, channel=2, data=[72, 70]),
   midi.NoteOnEvent(tick=0, channel=2, data=[75, 70]),
   midi.NoteOffEvent(tick=320, channel=2, data=[75, 70]),
   midi.NoteOnEvent(tick=2, channel=2, data=[59, 95]),
   midi.NoteOffEvent(tick=274, channel=2, data=[59, 95]),
   midi.NoteOnEvent(tick=0, channel=2, data=[74, 95]),
   midi.NoteOffEvent(tick=274, channel=2, data=[74, 95]),
   midi.NoteOnEvent(tick=0, channel=2, data=[77, 70]),
   midi.NoteOffEvent(tick=274, channel=2, data=[77, 70]),
   midi.NoteOnEvent(tick=0, channel=2, data=[59, 95]),
   midi.NoteOffEvent(tick=274, channel=2, data=[59, 95]),
   midi.NoteOnEvent(tick=0, channel=2, data=[75, 70]),
   midi.NoteOffEvent(tick=274, channel=2, data=[75, 70]),
   midi.NoteOnEvent(tick=0, channel=2, data=[78, 70]),
   midi.NoteOffEvent(tick=274, channel=2, data=[78, 70]),
   midi.NoteOnEvent(tick=0, channel=2, data=[59, 95]),
   midi.NoteOffEvent(tick=274, channel=2, data=[59, 95]),
   midi.NoteOnEvent(tick=0, channel=2, data=[75, 95]),
   midi.NoteOffEvent(tick=240, channel=2, data=[75, 95]),
   midi.NoteOnEvent(tick=0, channel=2, data=[78, 70]),
   midi.NoteOffEvent(tick=240, channel=2, data=[78, 70]),
   midi.NoteOnEvent(tick=0, channel=2, data=[76, 70]),
   midi.NoteOffEvent(tick=240, channel=2, data=[76, 70]),
   midi.NoteOnEvent(tick=0, channel=2, data=[79, 95]),
   midi.NoteOffEvent(tick=240, channel=2, data=[79, 95]),
   midi.NoteOnEvent(tick=0, channel=2, data=[77, 70]),
   midi.NoteOffEvent(tick=240, channel=2, data=[77, 70]),
   midi.NoteOnEvent(tick=0, channel=2, data=[80, 95]),
   midi.NoteOffEvent(tick=480, channel=2, data=[80, 95]),
   midi.NoteOnEvent(tick=0, channel=2, data=[81, 95]),
   midi.NoteOffEvent(tick=240, channel=2, data=[81, 95]),
   midi.PitchWheelEvent(tick=2, channel=2, data=[0, 64]),
   midi.NoteOnEvent(tick=0, channel=2, data=[81, 95]),
   midi.PitchWheelEvent(tick=7, channel=2, data=[0, 65]),
   midi.PitchWheelEvent(tick=7, channel=2, data=[0, 66]),
   midi.PitchWheelEvent(tick=7, channel=2, data=[0, 67]),
   midi.PitchWheelEvent(tick=7, channel=2, data=[0, 68]),
   midi.PitchWheelEvent(tick=7, channel=2, data=[0, 69]),
   midi.PitchWheelEvent(tick=7, channel=2, data=[0, 70]),
   midi.PitchWheelEvent(tick=7, channel=2, data=[0, 71]),
   midi.PitchWheelEvent(tick=7, channel=2, data=[0, 72]),
   midi.PitchWheelEvent(tick=7, channel=2, data=[0, 73]),
   midi.PitchWheelEvent(tick=7, channel=2, data=[0, 74]),
   midi.PitchWheelEvent(tick=7, channel=2, data=[0, 75]),
   midi.PitchWheelEvent(tick=7, channel=2, data=[0, 76]),
   midi.PitchWheelEvent(tick=7, channel=2, data=[0, 77]),
   midi.PitchWheelEvent(tick=7, channel=2, data=[0, 78]),
   midi.PitchWheelEvent(tick=7, channel=2, data=[0, 79]),
   midi.PitchWheelEvent(tick=7, channel=2, data=[0, 80]),
   midi.PitchWheelEvent(tick=8, channel=2, data=[0, 80]),
   midi.PitchWheelEvent(tick=240, channel=2, data=[0, 80]),
   midi.PitchWheelEvent(tick=360, channel=2, data=[0, 80]),
   midi.PitchWheelEvent(tick=22, channel=2, data=[0, 79]),
   midi.PitchWheelEvent(tick=22, channel=2, data=[0, 78]),
   midi.PitchWheelEvent(tick=22, channel=2, data=[0, 77]),
   midi.PitchWheelEvent(tick=22, channel=2, data=[0, 76]),
   midi.PitchWheelEvent(tick=22, channel=2, data=[0, 75]),
   midi.PitchWheelEvent(tick=22, channel=2, data=[0, 74]),
   midi.PitchWheelEvent(tick=22, channel=2, data=[0, 73]),
   midi.PitchWheelEvent(tick=22, channel=2, data=[0, 72]),
   midi.PitchWheelEvent(tick=22, channel=2, data=[0, 71]),
   midi.PitchWheelEvent(tick=22, channel=2, data=[0, 70]),
   midi.PitchWheelEvent(tick=22, channel=2, data=[0, 69]),
   midi.PitchWheelEvent(tick=22, channel=2, data=[0, 68]),
   midi.PitchWheelEvent(tick=22, channel=2, data=[0, 67]),
   midi.PitchWheelEvent(tick=22, channel=2, data=[0, 66]),
   midi.PitchWheelEvent(tick=22, channel=2, data=[0, 65]),
   midi.PitchWheelEvent(tick=22, channel=2, data=[0, 64]),
   midi.PitchWheelEvent(tick=8, channel=2, data=[0, 64]),
   midi.PitchWheelEvent(tick=360, channel=2, data=[0, 64]),
   midi.PitchWheelEvent(tick=0, channel=2, data=[0, 64]),
   midi.NoteOffEvent(tick=0, channel=2, data=[81, 95]),
   midi.PitchWheelEvent(tick=0, channel=2, data=[0, 64]),
   midi.NoteOnEvent(tick=0, channel=2, data=[81, 95]),
   midi.PitchWheelEvent(tick=36, channel=2, data=[0, 65]),
   midi.PitchWheelEvent(tick=36, channel=2, data=[0, 66]),
   midi.PitchWheelEvent(tick=36, channel=2, data=[0, 67]),
   midi.PitchWheelEvent(tick=36, channel=2, data=[0, 68]),
   midi.PitchWheelEvent(tick=36, channel=2, data=[0, 69]),
   midi.PitchWheelEvent(tick=36, channel=2, data=[0, 70]),
   midi.PitchWheelEvent(tick=36, channel=2, data=[0, 71]),
   midi.PitchWheelEvent(tick=36, channel=2, data=[0, 72]),
   midi.PitchWheelEvent(tick=36, channel=2, data=[0, 73]),
   midi.PitchWheelEvent(tick=36, channel=2, data=[0, 74]),
   midi.PitchWheelEvent(tick=36, channel=2, data=[0, 75]),
   midi.PitchWheelEvent(tick=4, channel=2, data=[0, 75]),
   midi.PitchWheelEvent(tick=400, channel=2, data=[0, 75]),
   midi.PitchWheelEvent(tick=36, channel=2, data=[0, 74]),
   midi.PitchWheelEvent(tick=36, channel=2, data=[0, 73]),
   midi.PitchWheelEvent(tick=36, channel=2, data=[0, 72]),
   midi.PitchWheelEvent(tick=36, channel=2, data=[0, 71]),
   midi.PitchWheelEvent(tick=36, channel=2, data=[0, 70]),
   midi.PitchWheelEvent(tick=36, channel=2, data=[0, 69]),
   midi.PitchWheelEvent(tick=36, channel=2, data=[0, 68]),
   midi.PitchWheelEvent(tick=36, channel=2, data=[0, 67]),
   midi.PitchWheelEvent(tick=36, channel=2, data=[0, 66]),
   midi.PitchWheelEvent(tick=36, channel=2, data=[0, 65]),
   midi.PitchWheelEvent(tick=36, channel=2, data=[0, 64]),
   midi.PitchWheelEvent(tick=4, channel=2, data=[0, 64]),
   midi.PitchWheelEvent(tick=400, channel=2, data=[0, 64]),
   midi.PitchWheelEvent(tick=36, channel=2, data=[0, 65]),
   midi.PitchWheelEvent(tick=36, channel=2, data=[0, 66]),
   midi.PitchWheelEvent(tick=36, channel=2, data=[0, 67]),
   midi.PitchWheelEvent(tick=36, channel=2, data=[0, 68]),
   midi.PitchWheelEvent(tick=36, channel=2, data=[0, 69]),
   midi.PitchWheelEvent(tick=36, channel=2, data=[0, 70]),
   midi.PitchWheelEvent(tick=36, channel=2, data=[0, 71]),
   midi.PitchWheelEvent(tick=36, channel=2, data=[0, 72]),
   midi.PitchWheelEvent(tick=36, channel=2, data=[0, 73]),
   midi.PitchWheelEvent(tick=36, channel=2, data=[0, 74]),
   midi.PitchWheelEvent(tick=36, channel=2, data=[0, 75]),
   midi.PitchWheelEvent(tick=4, channel=2, data=[0, 75]),
   midi.PitchWheelEvent(tick=400, channel=2, data=[0, 75]),
   midi.PitchWheelEvent(tick=0, channel=2, data=[0, 64]),
   midi.NoteOffEvent(tick=0, channel=2, data=[81, 95]),
   midi.PitchWheelEvent(tick=0, channel=2, data=[0, 64]),
   midi.NoteOnEvent(tick=0, channel=2, data=[81, 95]),
   midi.PitchWheelEvent(tick=5, channel=2, data=[0, 65]),
   midi.PitchWheelEvent(tick=5, channel=2, data=[0, 66]),
   midi.PitchWheelEvent(tick=5, channel=2, data=[0, 67]),
   midi.PitchWheelEvent(tick=5, channel=2, data=[0, 68]),
   midi.PitchWheelEvent(tick=5, channel=2, data=[0, 69]),
   midi.PitchWheelEvent(tick=5, channel=2, data=[0, 70]),
   midi.PitchWheelEvent(tick=5, channel=2, data=[0, 71]),
   midi.PitchWheelEvent(tick=5, channel=2, data=[0, 72]),
   midi.PitchWheelEvent(tick=5, channel=2, data=[0, 73]),
   midi.PitchWheelEvent(tick=5, channel=2, data=[0, 74]),
   midi.PitchWheelEvent(tick=5, channel=2, data=[0, 75]),
   midi.PitchWheelEvent(tick=5, channel=2, data=[0, 75]),
   midi.PitchWheelEvent(tick=120, channel=2, data=[0, 75]),
   midi.PitchWheelEvent(tick=180, channel=2, data=[0, 75]),
   midi.PitchWheelEvent(tick=16, channel=2, data=[0, 74]),
   midi.PitchWheelEvent(tick=16, channel=2, data=[0, 73]),
   midi.PitchWheelEvent(tick=16, channel=2, data=[0, 72]),
   midi.PitchWheelEvent(tick=16, channel=2, data=[0, 71]),
   midi.PitchWheelEvent(tick=16, channel=2, data=[0, 70]),
   midi.PitchWheelEvent(tick=16, channel=2, data=[0, 69]),
   midi.PitchWheelEvent(tick=16, channel=2, data=[0, 68]),
   midi.PitchWheelEvent(tick=16, channel=2, data=[0, 67]),
   midi.PitchWheelEvent(tick=16, channel=2, data=[0, 66]),
   midi.PitchWheelEvent(tick=16, channel=2, data=[0, 65]),
   midi.PitchWheelEvent(tick=16, channel=2, data=[0, 64]),
   midi.PitchWheelEvent(tick=4, channel=2, data=[0, 64]),
   midi.PitchWheelEvent(tick=180, channel=2, data=[0, 64]),
   midi.PitchWheelEvent(tick=0, channel=2, data=[0, 64]),
   midi.NoteOffEvent(tick=0, channel=2, data=[81, 95]),
   midi.NoteOnEvent(tick=0, channel=2, data=[78, 95]),
   midi.NoteOffEvent(tick=240, channel=2, data=[78, 95]),
   midi.PitchWheelEvent(tick=0, channel=2, data=[0, 64]),
   midi.NoteOnEvent(tick=0, channel=2, data=[81, 95]),
   midi.PitchWheelEvent(tick=5, channel=2, data=[0, 65]),
   midi.PitchWheelEvent(tick=5, channel=2, data=[0, 66]),
   midi.PitchWheelEvent(tick=5, channel=2, data=[0, 67]),
   midi.PitchWheelEvent(tick=5, channel=2, data=[0, 68]),
   midi.PitchWheelEvent(tick=5, channel=2, data=[0, 69]),
   midi.PitchWheelEvent(tick=5, channel=2, data=[0, 70]),
   midi.PitchWheelEvent(tick=5, channel=2, data=[0, 71]),
   midi.PitchWheelEvent(tick=5, channel=2, data=[0, 72]),
   midi.PitchWheelEvent(tick=5, channel=2, data=[0, 73]),
   midi.PitchWheelEvent(tick=5, channel=2, data=[0, 74]),
   midi.PitchWheelEvent(tick=5, channel=2, data=[0, 75]),
   midi.PitchWheelEvent(tick=5, channel=2, data=[0, 75]),
   midi.PitchWheelEvent(tick=120, channel=2, data=[0, 75]),
   midi.PitchWheelEvent(tick=180, channel=2, data=[0, 75]),
   midi.PitchWheelEvent(tick=16, channel=2, data=[0, 74]),
   midi.PitchWheelEvent(tick=16, channel=2, data=[0, 73]),
   midi.PitchWheelEvent(tick=16, channel=2, data=[0, 72]),
   midi.PitchWheelEvent(tick=16, channel=2, data=[0, 71]),
   midi.PitchWheelEvent(tick=16, channel=2, data=[0, 70]),
   midi.PitchWheelEvent(tick=16, channel=2, data=[0, 69]),
   midi.PitchWheelEvent(tick=16, channel=2, data=[0, 68]),
   midi.PitchWheelEvent(tick=16, channel=2, data=[0, 67]),
   midi.PitchWheelEvent(tick=16, channel=2, data=[0, 66]),
   midi.PitchWheelEvent(tick=16, channel=2, data=[0, 65]),
   midi.PitchWheelEvent(tick=16, channel=2, data=[0, 64]),
   midi.PitchWheelEvent(tick=4, channel=2, data=[0, 64]),
   midi.PitchWheelEvent(tick=180, channel=2, data=[0, 64]),
   midi.PitchWheelEvent(tick=0, channel=2, data=[0, 64]),
   midi.NoteOffEvent(tick=0, channel=2, data=[81, 95]),
   midi.NoteOnEvent(tick=0, channel=2, data=[78, 95]),
   midi.NoteOffEvent(tick=240, channel=2, data=[78, 95]),
   midi.PitchWheelEvent(tick=0, channel=2, data=[0, 64]),
   midi.NoteOnEvent(tick=0, channel=2, data=[81, 95]),
   midi.PitchWheelEvent(tick=5, channel=2, data=[0, 65]),
   midi.PitchWheelEvent(tick=5, channel=2, data=[0, 66]),
   midi.PitchWheelEvent(tick=5, channel=2, data=[0, 67]),
   midi.PitchWheelEvent(tick=5, channel=2, data=[0, 68]),
   midi.PitchWheelEvent(tick=5, channel=2, data=[0, 69]),
   midi.PitchWheelEvent(tick=5, channel=2, data=[0, 70]),
   midi.PitchWheelEvent(tick=5, channel=2, data=[0, 71]),
   midi.PitchWheelEvent(tick=5, channel=2, data=[0, 72]),
   midi.PitchWheelEvent(tick=5, channel=2, data=[0, 73]),
   midi.PitchWheelEvent(tick=5, channel=2, data=[0, 74]),
   midi.PitchWheelEvent(tick=5, channel=2, data=[0, 75]),
   midi.PitchWheelEvent(tick=5, channel=2, data=[0, 75]),
   midi.PitchWheelEvent(tick=120, channel=2, data=[0, 75]),
   midi.PitchWheelEvent(tick=180, channel=2, data=[0, 75]),
   midi.PitchWheelEvent(tick=16, channel=2, data=[0, 74]),
   midi.PitchWheelEvent(tick=16, channel=2, data=[0, 73]),
   midi.PitchWheelEvent(tick=16, channel=2, data=[0, 72]),
   midi.PitchWheelEvent(tick=16, channel=2, data=[0, 71]),
   midi.PitchWheelEvent(tick=16, channel=2, data=[0, 70]),
   midi.PitchWheelEvent(tick=16, channel=2, data=[0, 69]),
   midi.PitchWheelEvent(tick=16, channel=2, data=[0, 68]),
   midi.PitchWheelEvent(tick=16, channel=2, data=[0, 67]),
   midi.PitchWheelEvent(tick=16, channel=2, data=[0, 66]),
   midi.PitchWheelEvent(tick=16, channel=2, data=[0, 65]),
   midi.PitchWheelEvent(tick=16, channel=2, data=[0, 64]),
   midi.PitchWheelEvent(tick=4, channel=2, data=[0, 64]),
   midi.PitchWheelEvent(tick=180, channel=2, data=[0, 64]),
   midi.PitchWheelEvent(tick=0, channel=2, data=[0, 64]),
   midi.NoteOffEvent(tick=0, channel=2, data=[81, 95]),
   midi.NoteOnEvent(tick=0, channel=2, data=[78, 95]),
   midi.NoteOffEvent(tick=240, channel=2, data=[78, 95]),
   midi.PitchWheelEvent(tick=0, channel=2, data=[0, 64]),
   midi.NoteOnEvent(tick=0, channel=2, data=[81, 95]),
   midi.PitchWheelEvent(tick=5, channel=2, data=[0, 65]),
   midi.PitchWheelEvent(tick=5, channel=2, data=[0, 66]),
   midi.PitchWheelEvent(tick=5, channel=2, data=[0, 67]),
   midi.PitchWheelEvent(tick=5, channel=2, data=[0, 68]),
   midi.PitchWheelEvent(tick=5, channel=2, data=[0, 69]),
   midi.PitchWheelEvent(tick=5, channel=2, data=[0, 70]),
   midi.PitchWheelEvent(tick=5, channel=2, data=[0, 71]),
   midi.PitchWheelEvent(tick=5, channel=2, data=[0, 72]),
   midi.PitchWheelEvent(tick=5, channel=2, data=[0, 73]),
   midi.PitchWheelEvent(tick=5, channel=2, data=[0, 74]),
   midi.PitchWheelEvent(tick=5, channel=2, data=[0, 75]),
   midi.PitchWheelEvent(tick=5, channel=2, data=[0, 75]),
   midi.PitchWheelEvent(tick=120, channel=2, data=[0, 75]),
   midi.PitchWheelEvent(tick=180, channel=2, data=[0, 75]),
   midi.PitchWheelEvent(tick=16, channel=2, data=[0, 74]),
   midi.PitchWheelEvent(tick=16, channel=2, data=[0, 73]),
   midi.PitchWheelEvent(tick=16, channel=2, data=[0, 72]),
   midi.PitchWheelEvent(tick=16, channel=2, data=[0, 71]),
   midi.PitchWheelEvent(tick=16, channel=2, data=[0, 70]),
   midi.PitchWheelEvent(tick=16, channel=2, data=[0, 69]),
   midi.PitchWheelEvent(tick=16, channel=2, data=[0, 68]),
   midi.PitchWheelEvent(tick=16, channel=2, data=[0, 67]),
   midi.PitchWheelEvent(tick=16, channel=2, data=[0, 66]),
   midi.PitchWheelEvent(tick=16, channel=2, data=[0, 65]),
   midi.PitchWheelEvent(tick=16, channel=2, data=[0, 64]),
   midi.PitchWheelEvent(tick=4, channel=2, data=[0, 64]),
   midi.PitchWheelEvent(tick=180, channel=2, data=[0, 64]),
   midi.PitchWheelEvent(tick=0, channel=2, data=[0, 64]),
   midi.NoteOffEvent(tick=0, channel=2, data=[81, 95]),
   midi.NoteOnEvent(tick=0, channel=2, data=[78, 95]),
   midi.NoteOffEvent(tick=240, channel=2, data=[78, 95]),
   midi.PitchWheelEvent(tick=0, channel=2, data=[0, 64]),
   midi.NoteOnEvent(tick=0, channel=2, data=[81, 95]),
   midi.PitchWheelEvent(tick=5, channel=2, data=[0, 65]),
   midi.PitchWheelEvent(tick=5, channel=2, data=[0, 66]),
   midi.PitchWheelEvent(tick=5, channel=2, data=[0, 67]),
   midi.PitchWheelEvent(tick=5, channel=2, data=[0, 68]),
   midi.PitchWheelEvent(tick=5, channel=2, data=[0, 69]),
   midi.PitchWheelEvent(tick=5, channel=2, data=[0, 70]),
   midi.PitchWheelEvent(tick=5, channel=2, data=[0, 71]),
   midi.PitchWheelEvent(tick=5, channel=2, data=[0, 72]),
   midi.PitchWheelEvent(tick=5, channel=2, data=[0, 73]),
   midi.PitchWheelEvent(tick=5, channel=2, data=[0, 74]),
   midi.PitchWheelEvent(tick=5, channel=2, data=[0, 75]),
   midi.PitchWheelEvent(tick=5, channel=2, data=[0, 75]),
   midi.PitchWheelEvent(tick=120, channel=2, data=[0, 75]),
   midi.PitchWheelEvent(tick=180, channel=2, data=[0, 75]),
   midi.PitchWheelEvent(tick=16, channel=2, data=[0, 74]),
   midi.PitchWheelEvent(tick=16, channel=2, data=[0, 73]),
   midi.PitchWheelEvent(tick=16, channel=2, data=[0, 72]),
   midi.PitchWheelEvent(tick=16, channel=2, data=[0, 71]),
   midi.PitchWheelEvent(tick=16, channel=2, data=[0, 70]),
   midi.PitchWheelEvent(tick=16, channel=2, data=[0, 69]),
   midi.PitchWheelEvent(tick=16, channel=2, data=[0, 68]),
   midi.PitchWheelEvent(tick=16, channel=2, data=[0, 67]),
   midi.PitchWheelEvent(tick=16, channel=2, data=[0, 66]),
   midi.PitchWheelEvent(tick=16, channel=2, data=[0, 65]),
   midi.PitchWheelEvent(tick=16, channel=2, data=[0, 64]),
   midi.PitchWheelEvent(tick=4, channel=2, data=[0, 64]),
   midi.PitchWheelEvent(tick=180, channel=2, data=[0, 64]),
   midi.PitchWheelEvent(tick=0, channel=2, data=[0, 64]),
   midi.NoteOffEvent(tick=0, channel=2, data=[81, 95]),
   midi.NoteOnEvent(tick=0, channel=2, data=[78, 95]),
   midi.NoteOffEvent(tick=240, channel=2, data=[78, 95]),
   midi.NoteOnEvent(tick=0, channel=2, data=[81, 95]),
   midi.NoteOffEvent(tick=160, channel=2, data=[81, 95]),
   midi.NoteOnEvent(tick=0, channel=2, data=[81, 95]),
   midi.NoteOffEvent(tick=160, channel=2, data=[81, 95]),
   midi.NoteOnEvent(tick=0, channel=2, data=[80, 95]),
   midi.NoteOffEvent(tick=160, channel=2, data=[80, 95]),
   midi.NoteOnEvent(tick=0, channel=2, data=[78, 95]),
   midi.NoteOffEvent(tick=160, channel=2, data=[78, 95]),
   midi.NoteOnEvent(tick=0, channel=2, data=[81, 95]),
   midi.NoteOffEvent(tick=160, channel=2, data=[81, 95]),
   midi.NoteOnEvent(tick=0, channel=2, data=[74, 95]),
   midi.NoteOffEvent(tick=160, channel=2, data=[74, 95]),
   midi.NoteOnEvent(tick=0, channel=2, data=[78, 95]),
   midi.NoteOffEvent(tick=320, channel=2, data=[78, 95]),
   midi.NoteOnEvent(tick=0, channel=2, data=[78, 95]),
   midi.NoteOffEvent(tick=320, channel=2, data=[78, 95]),
   midi.NoteOnEvent(tick=0, channel=2, data=[78, 95]),
   midi.NoteOffEvent(tick=320, channel=2, data=[78, 95]),
   midi.NoteOnEvent(tick=0, channel=2, data=[76, 95]),
   midi.NoteOffEvent(tick=240, channel=2, data=[76, 95]),
   midi.NoteOnEvent(tick=0, channel=2, data=[74, 95]),
   midi.NoteOffEvent(tick=240, channel=2, data=[74, 95]),
   midi.NoteOnEvent(tick=0, channel=2, data=[74, 95]),
   midi.NoteOffEvent(tick=240, channel=2, data=[74, 95]),
   midi.NoteOnEvent(tick=0, channel=2, data=[74, 95]),
   midi.NoteOffEvent(tick=240, channel=2, data=[74, 95]),
   midi.NoteOnEvent(tick=0, channel=2, data=[74, 95]),
   midi.PitchWheelEvent(tick=0, channel=2, data=[0, 64]),
   midi.NoteOnEvent(tick=0, channel=2, data=[72, 95]),
   midi.PitchWheelEvent(tick=58, channel=2, data=[0, 65]),
   midi.PitchWheelEvent(tick=58, channel=2, data=[0, 66]),
   midi.PitchWheelEvent(tick=44, channel=2, data=[0, 64]),
   midi.PitchWheelEvent(tick=14, channel=2, data=[0, 67]),
   midi.PitchWheelEvent(tick=58, channel=2, data=[0, 68]),
   midi.PitchWheelEvent(tick=58, channel=2, data=[0, 69]),
   midi.PitchWheelEvent(tick=30, channel=2, data=[0, 65]),
   midi.PitchWheelEvent(tick=28, channel=2, data=[0, 70]),
   midi.PitchWheelEvent(tick=58, channel=2, data=[0, 71]),
   midi.PitchWheelEvent(tick=58, channel=2, data=[0, 72]),
   midi.PitchWheelEvent(tick=16, channel=2, data=[0, 64]),
   midi.PitchWheelEvent(tick=42, channel=2, data=[0, 73]),
   midi.PitchWheelEvent(tick=58, channel=2, data=[0, 74]),
   midi.PitchWheelEvent(tick=58, channel=2, data=[0, 75]),
   midi.PitchWheelEvent(tick=2, channel=2, data=[0, 65]),
   midi.PitchWheelEvent(tick=0, channel=2, data=[0, 75]),
   midi.PitchWheelEvent(tick=160, channel=2, data=[0, 64]),
   midi.PitchWheelEvent(tick=160, channel=2, data=[0, 65]),
   midi.PitchWheelEvent(tick=160, channel=2, data=[0, 64]),
   midi.PitchWheelEvent(tick=160, channel=2, data=[0, 65]),
   midi.PitchWheelEvent(tick=160, channel=2, data=[0, 64]),
   midi.PitchWheelEvent(tick=160, channel=2, data=[0, 65]),
   midi.PitchWheelEvent(tick=160, channel=2, data=[0, 64]),
   midi.PitchWheelEvent(tick=160, channel=2, data=[0, 65]),
   midi.PitchWheelEvent(tick=0, channel=2, data=[0, 75]),
   midi.PitchWheelEvent(tick=160, channel=2, data=[0, 64]),
   midi.PitchWheelEvent(tick=160, channel=2, data=[0, 65]),
   midi.PitchWheelEvent(tick=160, channel=2, data=[0, 64]),
   midi.PitchWheelEvent(tick=160, channel=2, data=[0, 65]),
   midi.PitchWheelEvent(tick=160, channel=2, data=[0, 64]),
   midi.PitchWheelEvent(tick=160, channel=2, data=[0, 65]),
   midi.PitchWheelEvent(tick=160, channel=2, data=[0, 64]),
   midi.PitchWheelEvent(tick=160, channel=2, data=[0, 65]),
   midi.PitchWheelEvent(tick=160, channel=2, data=[0, 64]),
   midi.PitchWheelEvent(tick=160, channel=2, data=[0, 65]),
   midi.PitchWheelEvent(tick=160, channel=2, data=[0, 64]),
   midi.PitchWheelEvent(tick=160, channel=2, data=[0, 65]),
   midi.PitchWheelEvent(tick=0, channel=2, data=[0, 64]),
   midi.NoteOffEvent(tick=0, channel=2, data=[74, 95]),
   midi.PitchWheelEvent(tick=0, channel=2, data=[0, 75]),
   midi.PitchWheelEvent(tick=0, channel=2, data=[0, 64]),
   midi.NoteOffEvent(tick=0, channel=2, data=[72, 95]),
   midi.EndOfTrackEvent(tick=0, data=[])]),
 midi.Track(\
  [midi.PitchWheelEvent(tick=0, channel=3, data=[0, 64]),
   midi.ControlChangeEvent(tick=0, channel=3, data=[7, 127]),
   midi.ControlChangeEvent(tick=0, channel=3, data=[10, 63]),
   midi.ControlChangeEvent(tick=0, channel=3, data=[93, 39]),
   midi.ControlChangeEvent(tick=0, channel=3, data=[91, 55]),
   midi.ControlChangeEvent(tick=0, channel=3, data=[95, 47]),
   midi.ControlChangeEvent(tick=0, channel=3, data=[92, 0]),
   midi.ControlChangeEvent(tick=0, channel=3, data=[11, 127]),
   midi.ProgramChangeEvent(tick=0, channel=3, data=[33]),
   midi.NoteOnEvent(tick=15360, channel=3, data=[28, 63]),
   midi.NoteOffEvent(tick=480, channel=3, data=[28, 63]),
   midi.NoteOnEvent(tick=1440, channel=3, data=[28, 63]),
   midi.NoteOffEvent(tick=480, channel=3, data=[28, 63]),
   midi.NoteOnEvent(tick=1440, channel=3, data=[28, 63]),
   midi.NoteOffEvent(tick=480, channel=3, data=[28, 63]),
   midi.NoteOnEvent(tick=1440, channel=3, data=[35, 63]),
   midi.NoteOffEvent(tick=480, channel=3, data=[35, 63]),
   midi.NoteOnEvent(tick=0, channel=3, data=[33, 63]),
   midi.NoteOffEvent(tick=480, channel=3, data=[33, 63]),
   midi.NoteOnEvent(tick=0, channel=3, data=[37, 63]),
   midi.NoteOffEvent(tick=480, channel=3, data=[37, 63]),
   midi.NoteOnEvent(tick=0, channel=3, data=[38, 95]),
   midi.NoteOffEvent(tick=480, channel=3, data=[38, 95]),
   midi.NoteOnEvent(tick=0, channel=3, data=[28, 63]),
   midi.NoteOffEvent(tick=480, channel=3, data=[28, 63]),
   midi.NoteOnEvent(tick=1440, channel=3, data=[28, 63]),
   midi.NoteOffEvent(tick=480, channel=3, data=[28, 63]),
   midi.NoteOnEvent(tick=1440, channel=3, data=[28, 63]),
   midi.NoteOffEvent(tick=480, channel=3, data=[28, 63]),
   midi.NoteOnEvent(tick=1440, channel=3, data=[35, 63]),
   midi.NoteOffEvent(tick=480, channel=3, data=[35, 63]),
   midi.NoteOnEvent(tick=0, channel=3, data=[33, 63]),
   midi.NoteOffEvent(tick=480, channel=3, data=[33, 63]),
   midi.NoteOnEvent(tick=0, channel=3, data=[41, 63]),
   midi.NoteOffEvent(tick=960, channel=3, data=[41, 63]),
   midi.NoteOnEvent(tick=0, channel=3, data=[38, 95]),
   midi.NoteOffEvent(tick=240, channel=3, data=[38, 95]),
   midi.NoteOnEvent(tick=0, channel=3, data=[40, 70]),
   midi.NoteOffEvent(tick=240, channel=3, data=[40, 70]),
   midi.NoteOnEvent(tick=0, channel=3, data=[28, 63]),
   midi.NoteOffEvent(tick=480, channel=3, data=[28, 63]),
   midi.NoteOnEvent(tick=0, channel=3, data=[28, 63]),
   midi.NoteOffEvent(tick=480, channel=3, data=[28, 63]),
   midi.NoteOnEvent(tick=0, channel=3, data=[28, 63]),
   midi.NoteOffEvent(tick=480, channel=3, data=[28, 63]),
   midi.NoteOnEvent(tick=0, channel=3, data=[38, 95]),
   midi.NoteOffEvent(tick=240, channel=3, data=[38, 95]),
   midi.NoteOnEvent(tick=0, channel=3, data=[40, 70]),
   midi.NoteOffEvent(tick=240, channel=3, data=[40, 70]),
   midi.NoteOnEvent(tick=0, channel=3, data=[28, 63]),
   midi.NoteOffEvent(tick=480, channel=3, data=[28, 63]),
   midi.NoteOnEvent(tick=0, channel=3, data=[28, 63]),
   midi.NoteOffEvent(tick=480, channel=3, data=[28, 63]),
   midi.NoteOnEvent(tick=0, channel=3, data=[28, 63]),
   midi.NoteOffEvent(tick=480, channel=3, data=[28, 63]),
   midi.NoteOnEvent(tick=0, channel=3, data=[38, 95]),
   midi.NoteOffEvent(tick=240, channel=3, data=[38, 95]),
   midi.NoteOnEvent(tick=0, channel=3, data=[40, 70]),
   midi.NoteOffEvent(tick=240, channel=3, data=[40, 70]),
   midi.NoteOnEvent(tick=0, channel=3, data=[28, 63]),
   midi.NoteOffEvent(tick=480, channel=3, data=[28, 63]),
   midi.NoteOnEvent(tick=0, channel=3, data=[28, 63]),
   midi.NoteOffEvent(tick=480, channel=3, data=[28, 63]),
   midi.NoteOnEvent(tick=0, channel=3, data=[28, 63]),
   midi.NoteOffEvent(tick=480, channel=3, data=[28, 63]),
   midi.NoteOnEvent(tick=0, channel=3, data=[35, 63]),
   midi.NoteOffEvent(tick=480, channel=3, data=[35, 63]),
   midi.NoteOnEvent(tick=0, channel=3, data=[33, 63]),
   midi.NoteOffEvent(tick=480, channel=3, data=[33, 63]),
   midi.NoteOnEvent(tick=0, channel=3, data=[37, 63]),
   midi.NoteOffEvent(tick=480, channel=3, data=[37, 63]),
   midi.NoteOnEvent(tick=0, channel=3, data=[38, 95]),
   midi.NoteOffEvent(tick=480, channel=3, data=[38, 95]),
   midi.NoteOnEvent(tick=0, channel=3, data=[38, 95]),
   midi.NoteOffEvent(tick=240, channel=3, data=[38, 95]),
   midi.NoteOnEvent(tick=0, channel=3, data=[40, 70]),
   midi.NoteOffEvent(tick=240, channel=3, data=[40, 70]),
   midi.NoteOnEvent(tick=0, channel=3, data=[28, 63]),
   midi.NoteOffEvent(tick=480, channel=3, data=[28, 63]),
   midi.NoteOnEvent(tick=0, channel=3, data=[28, 63]),
   midi.NoteOffEvent(tick=480, channel=3, data=[28, 63]),
   midi.NoteOnEvent(tick=0, channel=3, data=[28, 63]),
   midi.NoteOffEvent(tick=480, channel=3, data=[28, 63]),
   midi.NoteOnEvent(tick=0, channel=3, data=[38, 95]),
   midi.NoteOffEvent(tick=240, channel=3, data=[38, 95]),
   midi.NoteOnEvent(tick=0, channel=3, data=[40, 70]),
   midi.NoteOffEvent(tick=240, channel=3, data=[40, 70]),
   midi.NoteOnEvent(tick=0, channel=3, data=[28, 63]),
   midi.NoteOffEvent(tick=480, channel=3, data=[28, 63]),
   midi.NoteOnEvent(tick=0, channel=3, data=[28, 63]),
   midi.NoteOffEvent(tick=480, channel=3, data=[28, 63]),
   midi.NoteOnEvent(tick=0, channel=3, data=[28, 63]),
   midi.NoteOffEvent(tick=480, channel=3, data=[28, 63]),
   midi.NoteOnEvent(tick=0, channel=3, data=[38, 95]),
   midi.NoteOffEvent(tick=240, channel=3, data=[38, 95]),
   midi.NoteOnEvent(tick=0, channel=3, data=[40, 70]),
   midi.NoteOffEvent(tick=240, channel=3, data=[40, 70]),
   midi.NoteOnEvent(tick=0, channel=3, data=[28, 63]),
   midi.NoteOffEvent(tick=480, channel=3, data=[28, 63]),
   midi.NoteOnEvent(tick=0, channel=3, data=[28, 63]),
   midi.NoteOffEvent(tick=480, channel=3, data=[28, 63]),
   midi.NoteOnEvent(tick=0, channel=3, data=[28, 63]),
   midi.NoteOffEvent(tick=480, channel=3, data=[28, 63]),
   midi.NoteOnEvent(tick=0, channel=3, data=[35, 63]),
   midi.NoteOffEvent(tick=480, channel=3, data=[35, 63]),
   midi.NoteOnEvent(tick=0, channel=3, data=[33, 63]),
   midi.NoteOffEvent(tick=480, channel=3, data=[33, 63]),
   midi.NoteOnEvent(tick=0, channel=3, data=[41, 63]),
   midi.NoteOffEvent(tick=960, channel=3, data=[41, 63]),
   midi.NoteOnEvent(tick=0, channel=3, data=[38, 95]),
   midi.NoteOffEvent(tick=240, channel=3, data=[38, 95]),
   midi.NoteOnEvent(tick=0, channel=3, data=[40, 70]),
   midi.NoteOffEvent(tick=240, channel=3, data=[40, 70]),
   midi.NoteOnEvent(tick=0, channel=3, data=[28, 63]),
   midi.NoteOffEvent(tick=480, channel=3, data=[28, 63]),
   midi.NoteOnEvent(tick=0, channel=3, data=[28, 63]),
   midi.NoteOffEvent(tick=480, channel=3, data=[28, 63]),
   midi.NoteOnEvent(tick=0, channel=3, data=[28, 63]),
   midi.NoteOffEvent(tick=480, channel=3, data=[28, 63]),
   midi.NoteOnEvent(tick=0, channel=3, data=[38, 95]),
   midi.NoteOffEvent(tick=240, channel=3, data=[38, 95]),
   midi.NoteOnEvent(tick=0, channel=3, data=[40, 70]),
   midi.NoteOffEvent(tick=240, channel=3, data=[40, 70]),
   midi.NoteOnEvent(tick=0, channel=3, data=[28, 63]),
   midi.NoteOffEvent(tick=480, channel=3, data=[28, 63]),
   midi.NoteOnEvent(tick=0, channel=3, data=[28, 63]),
   midi.NoteOffEvent(tick=480, channel=3, data=[28, 63]),
   midi.NoteOnEvent(tick=0, channel=3, data=[28, 63]),
   midi.NoteOffEvent(tick=480, channel=3, data=[28, 63]),
   midi.NoteOnEvent(tick=0, channel=3, data=[38, 95]),
   midi.NoteOffEvent(tick=240, channel=3, data=[38, 95]),
   midi.NoteOnEvent(tick=0, channel=3, data=[40, 70]),
   midi.NoteOffEvent(tick=240, channel=3, data=[40, 70]),
   midi.NoteOnEvent(tick=0, channel=3, data=[28, 63]),
   midi.NoteOffEvent(tick=480, channel=3, data=[28, 63]),
   midi.NoteOnEvent(tick=0, channel=3, data=[28, 63]),
   midi.NoteOffEvent(tick=480, channel=3, data=[28, 63]),
   midi.NoteOnEvent(tick=0, channel=3, data=[28, 63]),
   midi.NoteOffEvent(tick=480, channel=3, data=[28, 63]),
   midi.NoteOnEvent(tick=0, channel=3, data=[35, 63]),
   midi.NoteOffEvent(tick=480, channel=3, data=[35, 63]),
   midi.NoteOnEvent(tick=0, channel=3, data=[33, 63]),
   midi.NoteOffEvent(tick=480, channel=3, data=[33, 63]),
   midi.NoteOnEvent(tick=0, channel=3, data=[37, 63]),
   midi.NoteOffEvent(tick=480, channel=3, data=[37, 63]),
   midi.NoteOnEvent(tick=0, channel=3, data=[38, 95]),
   midi.NoteOffEvent(tick=480, channel=3, data=[38, 95]),
   midi.NoteOnEvent(tick=0, channel=3, data=[38, 95]),
   midi.NoteOffEvent(tick=240, channel=3, data=[38, 95]),
   midi.NoteOnEvent(tick=0, channel=3, data=[40, 70]),
   midi.NoteOffEvent(tick=240, channel=3, data=[40, 70]),
   midi.NoteOnEvent(tick=0, channel=3, data=[28, 63]),
   midi.NoteOffEvent(tick=480, channel=3, data=[28, 63]),
   midi.NoteOnEvent(tick=0, channel=3, data=[28, 63]),
   midi.NoteOffEvent(tick=480, channel=3, data=[28, 63]),
   midi.NoteOnEvent(tick=0, channel=3, data=[28, 63]),
   midi.NoteOffEvent(tick=480, channel=3, data=[28, 63]),
   midi.NoteOnEvent(tick=0, channel=3, data=[38, 95]),
   midi.NoteOffEvent(tick=240, channel=3, data=[38, 95]),
   midi.NoteOnEvent(tick=0, channel=3, data=[40, 70]),
   midi.NoteOffEvent(tick=240, channel=3, data=[40, 70]),
   midi.NoteOnEvent(tick=0, channel=3, data=[28, 63]),
   midi.NoteOffEvent(tick=480, channel=3, data=[28, 63]),
   midi.NoteOnEvent(tick=0, channel=3, data=[28, 63]),
   midi.NoteOffEvent(tick=480, channel=3, data=[28, 63]),
   midi.NoteOnEvent(tick=0, channel=3, data=[28, 63]),
   midi.NoteOffEvent(tick=480, channel=3, data=[28, 63]),
   midi.NoteOnEvent(tick=0, channel=3, data=[38, 95]),
   midi.NoteOffEvent(tick=240, channel=3, data=[38, 95]),
   midi.NoteOnEvent(tick=0, channel=3, data=[40, 70]),
   midi.NoteOffEvent(tick=240, channel=3, data=[40, 70]),
   midi.NoteOnEvent(tick=0, channel=3, data=[28, 63]),
   midi.NoteOffEvent(tick=480, channel=3, data=[28, 63]),
   midi.NoteOnEvent(tick=0, channel=3, data=[28, 63]),
   midi.NoteOffEvent(tick=480, channel=3, data=[28, 63]),
   midi.NoteOnEvent(tick=0, channel=3, data=[28, 63]),
   midi.NoteOffEvent(tick=480, channel=3, data=[28, 63]),
   midi.NoteOnEvent(tick=0, channel=3, data=[35, 63]),
   midi.NoteOffEvent(tick=480, channel=3, data=[35, 63]),
   midi.NoteOnEvent(tick=0, channel=3, data=[33, 63]),
   midi.NoteOffEvent(tick=480, channel=3, data=[33, 63]),
   midi.NoteOnEvent(tick=0, channel=3, data=[41, 63]),
   midi.NoteOffEvent(tick=960, channel=3, data=[41, 63]),
   midi.NoteOnEvent(tick=0, channel=3, data=[38, 95]),
   midi.NoteOffEvent(tick=240, channel=3, data=[38, 95]),
   midi.NoteOnEvent(tick=0, channel=3, data=[40, 70]),
   midi.NoteOffEvent(tick=240, channel=3, data=[40, 70]),
   midi.NoteOnEvent(tick=0, channel=3, data=[28, 63]),
   midi.NoteOffEvent(tick=480, channel=3, data=[28, 63]),
   midi.NoteOnEvent(tick=0, channel=3, data=[28, 63]),
   midi.NoteOffEvent(tick=480, channel=3, data=[28, 63]),
   midi.NoteOnEvent(tick=0, channel=3, data=[28, 63]),
   midi.NoteOffEvent(tick=480, channel=3, data=[28, 63]),
   midi.NoteOnEvent(tick=0, channel=3, data=[38, 95]),
   midi.NoteOffEvent(tick=240, channel=3, data=[38, 95]),
   midi.NoteOnEvent(tick=0, channel=3, data=[40, 70]),
   midi.NoteOffEvent(tick=240, channel=3, data=[40, 70]),
   midi.NoteOnEvent(tick=0, channel=3, data=[28, 63]),
   midi.NoteOffEvent(tick=480, channel=3, data=[28, 63]),
   midi.NoteOnEvent(tick=0, channel=3, data=[28, 63]),
   midi.NoteOffEvent(tick=480, channel=3, data=[28, 63]),
   midi.NoteOnEvent(tick=0, channel=3, data=[28, 63]),
   midi.NoteOffEvent(tick=480, channel=3, data=[28, 63]),
   midi.NoteOnEvent(tick=0, channel=3, data=[38, 95]),
   midi.NoteOffEvent(tick=240, channel=3, data=[38, 95]),
   midi.NoteOnEvent(tick=0, channel=3, data=[40, 70]),
   midi.NoteOffEvent(tick=240, channel=3, data=[40, 70]),
   midi.NoteOnEvent(tick=0, channel=3, data=[28, 63]),
   midi.NoteOffEvent(tick=480, channel=3, data=[28, 63]),
   midi.NoteOnEvent(tick=0, channel=3, data=[28, 63]),
   midi.NoteOffEvent(tick=480, channel=3, data=[28, 63]),
   midi.NoteOnEvent(tick=0, channel=3, data=[28, 63]),
   midi.NoteOffEvent(tick=480, channel=3, data=[28, 63]),
   midi.NoteOnEvent(tick=0, channel=3, data=[35, 63]),
   midi.NoteOffEvent(tick=480, channel=3, data=[35, 63]),
   midi.NoteOnEvent(tick=0, channel=3, data=[33, 63]),
   midi.NoteOffEvent(tick=480, channel=3, data=[33, 63]),
   midi.NoteOnEvent(tick=0, channel=3, data=[37, 63]),
   midi.NoteOffEvent(tick=480, channel=3, data=[37, 63]),
   midi.NoteOnEvent(tick=0, channel=3, data=[38, 95]),
   midi.NoteOffEvent(tick=480, channel=3, data=[38, 95]),
   midi.NoteOnEvent(tick=0, channel=3, data=[38, 95]),
   midi.NoteOffEvent(tick=240, channel=3, data=[38, 95]),
   midi.NoteOnEvent(tick=0, channel=3, data=[40, 70]),
   midi.NoteOffEvent(tick=240, channel=3, data=[40, 70]),
   midi.NoteOnEvent(tick=0, channel=3, data=[28, 63]),
   midi.NoteOffEvent(tick=480, channel=3, data=[28, 63]),
   midi.NoteOnEvent(tick=0, channel=3, data=[28, 63]),
   midi.NoteOffEvent(tick=480, channel=3, data=[28, 63]),
   midi.NoteOnEvent(tick=0, channel=3, data=[28, 63]),
   midi.NoteOffEvent(tick=480, channel=3, data=[28, 63]),
   midi.NoteOnEvent(tick=0, channel=3, data=[38, 95]),
   midi.NoteOffEvent(tick=240, channel=3, data=[38, 95]),
   midi.NoteOnEvent(tick=0, channel=3, data=[40, 70]),
   midi.NoteOffEvent(tick=240, channel=3, data=[40, 70]),
   midi.NoteOnEvent(tick=0, channel=3, data=[28, 63]),
   midi.NoteOffEvent(tick=480, channel=3, data=[28, 63]),
   midi.NoteOnEvent(tick=0, channel=3, data=[28, 63]),
   midi.NoteOffEvent(tick=480, channel=3, data=[28, 63]),
   midi.NoteOnEvent(tick=0, channel=3, data=[28, 63]),
   midi.NoteOffEvent(tick=480, channel=3, data=[28, 63]),
   midi.NoteOnEvent(tick=0, channel=3, data=[38, 95]),
   midi.NoteOffEvent(tick=240, channel=3, data=[38, 95]),
   midi.NoteOnEvent(tick=0, channel=3, data=[40, 70]),
   midi.NoteOffEvent(tick=240, channel=3, data=[40, 70]),
   midi.NoteOnEvent(tick=0, channel=3, data=[28, 63]),
   midi.NoteOffEvent(tick=480, channel=3, data=[28, 63]),
   midi.NoteOnEvent(tick=0, channel=3, data=[28, 63]),
   midi.NoteOffEvent(tick=480, channel=3, data=[28, 63]),
   midi.NoteOnEvent(tick=0, channel=3, data=[28, 63]),
   midi.NoteOffEvent(tick=480, channel=3, data=[28, 63]),
   midi.NoteOnEvent(tick=0, channel=3, data=[35, 63]),
   midi.NoteOffEvent(tick=480, channel=3, data=[35, 63]),
   midi.NoteOnEvent(tick=0, channel=3, data=[33, 63]),
   midi.NoteOffEvent(tick=480, channel=3, data=[33, 63]),
   midi.NoteOnEvent(tick=0, channel=3, data=[41, 63]),
   midi.NoteOffEvent(tick=960, channel=3, data=[41, 63]),
   midi.NoteOnEvent(tick=0, channel=3, data=[38, 95]),
   midi.NoteOffEvent(tick=240, channel=3, data=[38, 95]),
   midi.NoteOnEvent(tick=0, channel=3, data=[40, 70]),
   midi.NoteOffEvent(tick=240, channel=3, data=[40, 70]),
   midi.NoteOnEvent(tick=0, channel=3, data=[28, 63]),
   midi.NoteOffEvent(tick=480, channel=3, data=[28, 63]),
   midi.NoteOnEvent(tick=0, channel=3, data=[28, 63]),
   midi.NoteOffEvent(tick=480, channel=3, data=[28, 63]),
   midi.NoteOnEvent(tick=0, channel=3, data=[28, 63]),
   midi.NoteOffEvent(tick=480, channel=3, data=[28, 63]),
   midi.NoteOnEvent(tick=0, channel=3, data=[38, 95]),
   midi.NoteOffEvent(tick=240, channel=3, data=[38, 95]),
   midi.NoteOnEvent(tick=0, channel=3, data=[40, 70]),
   midi.NoteOffEvent(tick=240, channel=3, data=[40, 70]),
   midi.NoteOnEvent(tick=0, channel=3, data=[28, 63]),
   midi.NoteOffEvent(tick=480, channel=3, data=[28, 63]),
   midi.NoteOnEvent(tick=0, channel=3, data=[28, 63]),
   midi.NoteOffEvent(tick=480, channel=3, data=[28, 63]),
   midi.NoteOnEvent(tick=0, channel=3, data=[28, 63]),
   midi.NoteOffEvent(tick=480, channel=3, data=[28, 63]),
   midi.NoteOnEvent(tick=0, channel=3, data=[38, 95]),
   midi.NoteOffEvent(tick=240, channel=3, data=[38, 95]),
   midi.NoteOnEvent(tick=0, channel=3, data=[40, 70]),
   midi.NoteOffEvent(tick=240, channel=3, data=[40, 70]),
   midi.NoteOnEvent(tick=0, channel=3, data=[28, 63]),
   midi.NoteOffEvent(tick=480, channel=3, data=[28, 63]),
   midi.NoteOnEvent(tick=0, channel=3, data=[28, 63]),
   midi.NoteOffEvent(tick=480, channel=3, data=[28, 63]),
   midi.NoteOnEvent(tick=0, channel=3, data=[28, 63]),
   midi.NoteOffEvent(tick=480, channel=3, data=[28, 63]),
   midi.NoteOnEvent(tick=0, channel=3, data=[35, 63]),
   midi.NoteOffEvent(tick=480, channel=3, data=[35, 63]),
   midi.NoteOnEvent(tick=0, channel=3, data=[33, 63]),
   midi.NoteOffEvent(tick=480, channel=3, data=[33, 63]),
   midi.NoteOnEvent(tick=0, channel=3, data=[37, 63]),
   midi.NoteOffEvent(tick=480, channel=3, data=[37, 63]),
   midi.NoteOnEvent(tick=0, channel=3, data=[38, 95]),
   midi.NoteOffEvent(tick=480, channel=3, data=[38, 95]),
   midi.NoteOnEvent(tick=0, channel=3, data=[38, 95]),
   midi.NoteOffEvent(tick=240, channel=3, data=[38, 95]),
   midi.NoteOnEvent(tick=0, channel=3, data=[40, 70]),
   midi.NoteOffEvent(tick=240, channel=3, data=[40, 70]),
   midi.NoteOnEvent(tick=0, channel=3, data=[28, 63]),
   midi.NoteOffEvent(tick=480, channel=3, data=[28, 63]),
   midi.NoteOnEvent(tick=0, channel=3, data=[28, 63]),
   midi.NoteOffEvent(tick=480, channel=3, data=[28, 63]),
   midi.NoteOnEvent(tick=0, channel=3, data=[28, 63]),
   midi.NoteOffEvent(tick=480, channel=3, data=[28, 63]),
   midi.NoteOnEvent(tick=0, channel=3, data=[38, 95]),
   midi.NoteOffEvent(tick=240, channel=3, data=[38, 95]),
   midi.NoteOnEvent(tick=0, channel=3, data=[40, 70]),
   midi.NoteOffEvent(tick=240, channel=3, data=[40, 70]),
   midi.NoteOnEvent(tick=0, channel=3, data=[28, 63]),
   midi.NoteOffEvent(tick=480, channel=3, data=[28, 63]),
   midi.NoteOnEvent(tick=0, channel=3, data=[28, 63]),
   midi.NoteOffEvent(tick=480, channel=3, data=[28, 63]),
   midi.NoteOnEvent(tick=0, channel=3, data=[28, 63]),
   midi.NoteOffEvent(tick=480, channel=3, data=[28, 63]),
   midi.NoteOnEvent(tick=0, channel=3, data=[38, 95]),
   midi.NoteOffEvent(tick=240, channel=3, data=[38, 95]),
   midi.NoteOnEvent(tick=0, channel=3, data=[40, 70]),
   midi.NoteOffEvent(tick=240, channel=3, data=[40, 70]),
   midi.NoteOnEvent(tick=0, channel=3, data=[28, 63]),
   midi.NoteOffEvent(tick=480, channel=3, data=[28, 63]),
   midi.NoteOnEvent(tick=0, channel=3, data=[28, 63]),
   midi.NoteOffEvent(tick=480, channel=3, data=[28, 63]),
   midi.NoteOnEvent(tick=0, channel=3, data=[28, 63]),
   midi.NoteOffEvent(tick=480, channel=3, data=[28, 63]),
   midi.NoteOnEvent(tick=0, channel=3, data=[35, 63]),
   midi.NoteOffEvent(tick=480, channel=3, data=[35, 63]),
   midi.NoteOnEvent(tick=0, channel=3, data=[33, 63]),
   midi.NoteOffEvent(tick=480, channel=3, data=[33, 63]),
   midi.NoteOnEvent(tick=0, channel=3, data=[41, 63]),
   midi.NoteOffEvent(tick=960, channel=3, data=[41, 63]),
   midi.NoteOnEvent(tick=0, channel=3, data=[38, 95]),
   midi.NoteOffEvent(tick=240, channel=3, data=[38, 95]),
   midi.NoteOnEvent(tick=0, channel=3, data=[40, 70]),
   midi.NoteOffEvent(tick=240, channel=3, data=[40, 70]),
   midi.NoteOnEvent(tick=0, channel=3, data=[28, 63]),
   midi.NoteOffEvent(tick=480, channel=3, data=[28, 63]),
   midi.NoteOnEvent(tick=0, channel=3, data=[28, 63]),
   midi.NoteOffEvent(tick=480, channel=3, data=[28, 63]),
   midi.NoteOnEvent(tick=0, channel=3, data=[28, 63]),
   midi.NoteOffEvent(tick=480, channel=3, data=[28, 63]),
   midi.NoteOnEvent(tick=0, channel=3, data=[38, 95]),
   midi.NoteOffEvent(tick=240, channel=3, data=[38, 95]),
   midi.NoteOnEvent(tick=0, channel=3, data=[40, 70]),
   midi.NoteOffEvent(tick=240, channel=3, data=[40, 70]),
   midi.NoteOnEvent(tick=0, channel=3, data=[28, 63]),
   midi.NoteOffEvent(tick=480, channel=3, data=[28, 63]),
   midi.NoteOnEvent(tick=0, channel=3, data=[28, 63]),
   midi.NoteOffEvent(tick=480, channel=3, data=[28, 63]),
   midi.NoteOnEvent(tick=0, channel=3, data=[28, 63]),
   midi.NoteOffEvent(tick=480, channel=3, data=[28, 63]),
   midi.NoteOnEvent(tick=0, channel=3, data=[38, 95]),
   midi.NoteOffEvent(tick=240, channel=3, data=[38, 95]),
   midi.NoteOnEvent(tick=0, channel=3, data=[40, 70]),
   midi.NoteOffEvent(tick=240, channel=3, data=[40, 70]),
   midi.NoteOnEvent(tick=0, channel=3, data=[28, 63]),
   midi.NoteOffEvent(tick=480, channel=3, data=[28, 63]),
   midi.NoteOnEvent(tick=0, channel=3, data=[28, 63]),
   midi.NoteOffEvent(tick=480, channel=3, data=[28, 63]),
   midi.NoteOnEvent(tick=0, channel=3, data=[28, 63]),
   midi.NoteOffEvent(tick=480, channel=3, data=[28, 63]),
   midi.NoteOnEvent(tick=0, channel=3, data=[35, 63]),
   midi.NoteOffEvent(tick=480, channel=3, data=[35, 63]),
   midi.NoteOnEvent(tick=0, channel=3, data=[33, 63]),
   midi.NoteOffEvent(tick=480, channel=3, data=[33, 63]),
   midi.NoteOnEvent(tick=0, channel=3, data=[37, 63]),
   midi.NoteOffEvent(tick=480, channel=3, data=[37, 63]),
   midi.NoteOnEvent(tick=0, channel=3, data=[38, 95]),
   midi.NoteOffEvent(tick=480, channel=3, data=[38, 95]),
   midi.NoteOnEvent(tick=0, channel=3, data=[38, 95]),
   midi.NoteOffEvent(tick=240, channel=3, data=[38, 95]),
   midi.NoteOnEvent(tick=0, channel=3, data=[40, 70]),
   midi.NoteOffEvent(tick=240, channel=3, data=[40, 70]),
   midi.NoteOnEvent(tick=0, channel=3, data=[28, 63]),
   midi.NoteOffEvent(tick=480, channel=3, data=[28, 63]),
   midi.NoteOnEvent(tick=0, channel=3, data=[28, 63]),
   midi.NoteOffEvent(tick=480, channel=3, data=[28, 63]),
   midi.NoteOnEvent(tick=0, channel=3, data=[28, 63]),
   midi.NoteOffEvent(tick=480, channel=3, data=[28, 63]),
   midi.NoteOnEvent(tick=0, channel=3, data=[38, 95]),
   midi.NoteOffEvent(tick=240, channel=3, data=[38, 95]),
   midi.NoteOnEvent(tick=0, channel=3, data=[40, 70]),
   midi.NoteOffEvent(tick=240, channel=3, data=[40, 70]),
   midi.NoteOnEvent(tick=0, channel=3, data=[28, 63]),
   midi.NoteOffEvent(tick=480, channel=3, data=[28, 63]),
   midi.NoteOnEvent(tick=0, channel=3, data=[28, 63]),
   midi.NoteOffEvent(tick=480, channel=3, data=[28, 63]),
   midi.NoteOnEvent(tick=0, channel=3, data=[28, 63]),
   midi.NoteOffEvent(tick=480, channel=3, data=[28, 63]),
   midi.NoteOnEvent(tick=0, channel=3, data=[38, 95]),
   midi.NoteOffEvent(tick=240, channel=3, data=[38, 95]),
   midi.NoteOnEvent(tick=0, channel=3, data=[40, 70]),
   midi.NoteOffEvent(tick=240, channel=3, data=[40, 70]),
   midi.NoteOnEvent(tick=0, channel=3, data=[28, 63]),
   midi.NoteOffEvent(tick=480, channel=3, data=[28, 63]),
   midi.NoteOnEvent(tick=0, channel=3, data=[28, 63]),
   midi.NoteOffEvent(tick=480, channel=3, data=[28, 63]),
   midi.NoteOnEvent(tick=0, channel=3, data=[28, 63]),
   midi.NoteOffEvent(tick=480, channel=3, data=[28, 63]),
   midi.NoteOnEvent(tick=0, channel=3, data=[35, 63]),
   midi.NoteOffEvent(tick=480, channel=3, data=[35, 63]),
   midi.NoteOnEvent(tick=0, channel=3, data=[33, 63]),
   midi.NoteOffEvent(tick=480, channel=3, data=[33, 63]),
   midi.NoteOnEvent(tick=0, channel=3, data=[41, 63]),
   midi.NoteOffEvent(tick=960, channel=3, data=[41, 63]),
   midi.NoteOnEvent(tick=0, channel=3, data=[38, 95]),
   midi.NoteOffEvent(tick=240, channel=3, data=[38, 95]),
   midi.NoteOnEvent(tick=0, channel=3, data=[40, 70]),
   midi.NoteOffEvent(tick=240, channel=3, data=[40, 70]),
   midi.NoteOnEvent(tick=0, channel=3, data=[28, 63]),
   midi.NoteOffEvent(tick=480, channel=3, data=[28, 63]),
   midi.NoteOnEvent(tick=0, channel=3, data=[28, 63]),
   midi.NoteOffEvent(tick=480, channel=3, data=[28, 63]),
   midi.NoteOnEvent(tick=0, channel=3, data=[28, 63]),
   midi.NoteOffEvent(tick=480, channel=3, data=[28, 63]),
   midi.NoteOnEvent(tick=0, channel=3, data=[38, 95]),
   midi.NoteOffEvent(tick=240, channel=3, data=[38, 95]),
   midi.NoteOnEvent(tick=0, channel=3, data=[40, 70]),
   midi.NoteOffEvent(tick=240, channel=3, data=[40, 70]),
   midi.NoteOnEvent(tick=0, channel=3, data=[28, 63]),
   midi.NoteOffEvent(tick=480, channel=3, data=[28, 63]),
   midi.NoteOnEvent(tick=0, channel=3, data=[28, 63]),
   midi.NoteOffEvent(tick=480, channel=3, data=[28, 63]),
   midi.NoteOnEvent(tick=0, channel=3, data=[28, 63]),
   midi.NoteOffEvent(tick=480, channel=3, data=[28, 63]),
   midi.NoteOnEvent(tick=0, channel=3, data=[38, 95]),
   midi.NoteOffEvent(tick=240, channel=3, data=[38, 95]),
   midi.NoteOnEvent(tick=0, channel=3, data=[40, 70]),
   midi.NoteOffEvent(tick=240, channel=3, data=[40, 70]),
   midi.NoteOnEvent(tick=0, channel=3, data=[28, 63]),
   midi.NoteOffEvent(tick=480, channel=3, data=[28, 63]),
   midi.NoteOnEvent(tick=0, channel=3, data=[28, 63]),
   midi.NoteOffEvent(tick=480, channel=3, data=[28, 63]),
   midi.NoteOnEvent(tick=0, channel=3, data=[28, 63]),
   midi.NoteOffEvent(tick=480, channel=3, data=[28, 63]),
   midi.NoteOnEvent(tick=0, channel=3, data=[35, 63]),
   midi.NoteOffEvent(tick=480, channel=3, data=[35, 63]),
   midi.NoteOnEvent(tick=0, channel=3, data=[33, 63]),
   midi.NoteOffEvent(tick=480, channel=3, data=[33, 63]),
   midi.NoteOnEvent(tick=0, channel=3, data=[37, 63]),
   midi.NoteOffEvent(tick=480, channel=3, data=[37, 63]),
   midi.NoteOnEvent(tick=0, channel=3, data=[38, 95]),
   midi.NoteOffEvent(tick=480, channel=3, data=[38, 95]),
   midi.NoteOnEvent(tick=0, channel=3, data=[38, 95]),
   midi.NoteOffEvent(tick=240, channel=3, data=[38, 95]),
   midi.NoteOnEvent(tick=0, channel=3, data=[40, 70]),
   midi.NoteOffEvent(tick=240, channel=3, data=[40, 70]),
   midi.NoteOnEvent(tick=0, channel=3, data=[28, 63]),
   midi.NoteOffEvent(tick=480, channel=3, data=[28, 63]),
   midi.NoteOnEvent(tick=0, channel=3, data=[28, 63]),
   midi.NoteOffEvent(tick=480, channel=3, data=[28, 63]),
   midi.NoteOnEvent(tick=0, channel=3, data=[28, 63]),
   midi.NoteOffEvent(tick=480, channel=3, data=[28, 63]),
   midi.NoteOnEvent(tick=0, channel=3, data=[38, 95]),
   midi.NoteOffEvent(tick=240, channel=3, data=[38, 95]),
   midi.NoteOnEvent(tick=0, channel=3, data=[40, 70]),
   midi.NoteOffEvent(tick=240, channel=3, data=[40, 70]),
   midi.NoteOnEvent(tick=0, channel=3, data=[28, 63]),
   midi.NoteOffEvent(tick=480, channel=3, data=[28, 63]),
   midi.NoteOnEvent(tick=0, channel=3, data=[28, 63]),
   midi.NoteOffEvent(tick=480, channel=3, data=[28, 63]),
   midi.NoteOnEvent(tick=0, channel=3, data=[28, 63]),
   midi.NoteOffEvent(tick=480, channel=3, data=[28, 63]),
   midi.NoteOnEvent(tick=0, channel=3, data=[38, 95]),
   midi.NoteOffEvent(tick=240, channel=3, data=[38, 95]),
   midi.NoteOnEvent(tick=0, channel=3, data=[40, 70]),
   midi.NoteOffEvent(tick=240, channel=3, data=[40, 70]),
   midi.NoteOnEvent(tick=0, channel=3, data=[28, 63]),
   midi.NoteOffEvent(tick=480, channel=3, data=[28, 63]),
   midi.NoteOnEvent(tick=0, channel=3, data=[28, 63]),
   midi.NoteOffEvent(tick=480, channel=3, data=[28, 63]),
   midi.NoteOnEvent(tick=0, channel=3, data=[28, 63]),
   midi.NoteOffEvent(tick=480, channel=3, data=[28, 63]),
   midi.NoteOnEvent(tick=0, channel=3, data=[35, 63]),
   midi.NoteOffEvent(tick=480, channel=3, data=[35, 63]),
   midi.NoteOnEvent(tick=0, channel=3, data=[33, 63]),
   midi.NoteOffEvent(tick=480, channel=3, data=[33, 63]),
   midi.NoteOnEvent(tick=0, channel=3, data=[41, 63]),
   midi.NoteOffEvent(tick=960, channel=3, data=[41, 63]),
   midi.NoteOnEvent(tick=0, channel=3, data=[35, 63]),
   midi.NoteOffEvent(tick=1920, channel=3, data=[35, 63]),
   midi.NoteOnEvent(tick=0, channel=3, data=[28, 63]),
   midi.NoteOffEvent(tick=1920, channel=3, data=[28, 63]),
   midi.NoteOnEvent(tick=0, channel=3, data=[31, 63]),
   midi.NoteOffEvent(tick=1920, channel=3, data=[31, 63]),
   midi.NoteOnEvent(tick=0, channel=3, data=[30, 63]),
   midi.NoteOffEvent(tick=1920, channel=3, data=[30, 63]),
   midi.NoteOnEvent(tick=0, channel=3, data=[35, 63]),
   midi.NoteOffEvent(tick=1920, channel=3, data=[35, 63]),
   midi.NoteOnEvent(tick=0, channel=3, data=[28, 63]),
   midi.NoteOffEvent(tick=1920, channel=3, data=[28, 63]),
   midi.NoteOnEvent(tick=0, channel=3, data=[38, 95]),
   midi.NoteOffEvent(tick=1920, channel=3, data=[38, 95]),
   midi.NoteOnEvent(tick=0, channel=3, data=[37, 63]),
   midi.NoteOffEvent(tick=1920, channel=3, data=[37, 63]),
   midi.NoteOnEvent(tick=0, channel=3, data=[35, 63]),
   midi.NoteOffEvent(tick=1920, channel=3, data=[35, 63]),
   midi.NoteOnEvent(tick=0, channel=3, data=[28, 63]),
   midi.NoteOffEvent(tick=1920, channel=3, data=[28, 63]),
   midi.NoteOnEvent(tick=0, channel=3, data=[31, 63]),
   midi.NoteOffEvent(tick=1920, channel=3, data=[31, 63]),
   midi.NoteOnEvent(tick=0, channel=3, data=[30, 63]),
   midi.NoteOffEvent(tick=1920, channel=3, data=[30, 63]),
   midi.NoteOnEvent(tick=0, channel=3, data=[35, 63]),
   midi.NoteOffEvent(tick=1920, channel=3, data=[35, 63]),
   midi.NoteOnEvent(tick=0, channel=3, data=[28, 63]),
   midi.NoteOffEvent(tick=1920, channel=3, data=[28, 63]),
   midi.NoteOnEvent(tick=0, channel=3, data=[38, 95]),
   midi.NoteOffEvent(tick=1920, channel=3, data=[38, 95]),
   midi.NoteOnEvent(tick=0, channel=3, data=[40, 95]),
   midi.NoteOffEvent(tick=1920, channel=3, data=[40, 95]),
   midi.NoteOnEvent(tick=0, channel=3, data=[38, 95]),
   midi.NoteOffEvent(tick=240, channel=3, data=[38, 95]),
   midi.NoteOnEvent(tick=0, channel=3, data=[40, 70]),
   midi.NoteOffEvent(tick=240, channel=3, data=[40, 70]),
   midi.NoteOnEvent(tick=0, channel=3, data=[28, 63]),
   midi.NoteOffEvent(tick=480, channel=3, data=[28, 63]),
   midi.NoteOnEvent(tick=0, channel=3, data=[28, 63]),
   midi.NoteOffEvent(tick=480, channel=3, data=[28, 63]),
   midi.NoteOnEvent(tick=0, channel=3, data=[28, 63]),
   midi.NoteOffEvent(tick=480, channel=3, data=[28, 63]),
   midi.NoteOnEvent(tick=0, channel=3, data=[38, 95]),
   midi.NoteOffEvent(tick=240, channel=3, data=[38, 95]),
   midi.NoteOnEvent(tick=0, channel=3, data=[40, 70]),
   midi.NoteOffEvent(tick=240, channel=3, data=[40, 70]),
   midi.NoteOnEvent(tick=0, channel=3, data=[28, 63]),
   midi.NoteOffEvent(tick=480, channel=3, data=[28, 63]),
   midi.NoteOnEvent(tick=0, channel=3, data=[28, 63]),
   midi.NoteOffEvent(tick=480, channel=3, data=[28, 63]),
   midi.NoteOnEvent(tick=0, channel=3, data=[28, 63]),
   midi.NoteOffEvent(tick=480, channel=3, data=[28, 63]),
   midi.NoteOnEvent(tick=0, channel=3, data=[38, 95]),
   midi.NoteOffEvent(tick=240, channel=3, data=[38, 95]),
   midi.NoteOnEvent(tick=0, channel=3, data=[40, 70]),
   midi.NoteOffEvent(tick=240, channel=3, data=[40, 70]),
   midi.NoteOnEvent(tick=0, channel=3, data=[28, 63]),
   midi.NoteOffEvent(tick=480, channel=3, data=[28, 63]),
   midi.NoteOnEvent(tick=0, channel=3, data=[28, 63]),
   midi.NoteOffEvent(tick=480, channel=3, data=[28, 63]),
   midi.NoteOnEvent(tick=0, channel=3, data=[28, 63]),
   midi.NoteOffEvent(tick=480, channel=3, data=[28, 63]),
   midi.NoteOnEvent(tick=0, channel=3, data=[35, 63]),
   midi.NoteOffEvent(tick=480, channel=3, data=[35, 63]),
   midi.NoteOnEvent(tick=0, channel=3, data=[33, 63]),
   midi.NoteOffEvent(tick=480, channel=3, data=[33, 63]),
   midi.NoteOnEvent(tick=0, channel=3, data=[37, 63]),
   midi.NoteOffEvent(tick=480, channel=3, data=[37, 63]),
   midi.NoteOnEvent(tick=0, channel=3, data=[38, 95]),
   midi.NoteOffEvent(tick=480, channel=3, data=[38, 95]),
   midi.NoteOnEvent(tick=0, channel=3, data=[38, 95]),
   midi.NoteOffEvent(tick=240, channel=3, data=[38, 95]),
   midi.NoteOnEvent(tick=0, channel=3, data=[40, 70]),
   midi.NoteOffEvent(tick=240, channel=3, data=[40, 70]),
   midi.NoteOnEvent(tick=0, channel=3, data=[28, 63]),
   midi.NoteOffEvent(tick=480, channel=3, data=[28, 63]),
   midi.NoteOnEvent(tick=0, channel=3, data=[28, 63]),
   midi.NoteOffEvent(tick=480, channel=3, data=[28, 63]),
   midi.NoteOnEvent(tick=0, channel=3, data=[28, 63]),
   midi.NoteOffEvent(tick=480, channel=3, data=[28, 63]),
   midi.NoteOnEvent(tick=0, channel=3, data=[38, 95]),
   midi.NoteOffEvent(tick=240, channel=3, data=[38, 95]),
   midi.NoteOnEvent(tick=0, channel=3, data=[40, 70]),
   midi.NoteOffEvent(tick=240, channel=3, data=[40, 70]),
   midi.NoteOnEvent(tick=0, channel=3, data=[28, 63]),
   midi.NoteOffEvent(tick=480, channel=3, data=[28, 63]),
   midi.NoteOnEvent(tick=0, channel=3, data=[28, 63]),
   midi.NoteOffEvent(tick=480, channel=3, data=[28, 63]),
   midi.NoteOnEvent(tick=0, channel=3, data=[28, 63]),
   midi.NoteOffEvent(tick=480, channel=3, data=[28, 63]),
   midi.NoteOnEvent(tick=0, channel=3, data=[38, 95]),
   midi.NoteOffEvent(tick=240, channel=3, data=[38, 95]),
   midi.NoteOnEvent(tick=0, channel=3, data=[40, 70]),
   midi.NoteOffEvent(tick=240, channel=3, data=[40, 70]),
   midi.NoteOnEvent(tick=0, channel=3, data=[28, 63]),
   midi.NoteOffEvent(tick=480, channel=3, data=[28, 63]),
   midi.NoteOnEvent(tick=0, channel=3, data=[28, 63]),
   midi.NoteOffEvent(tick=480, channel=3, data=[28, 63]),
   midi.NoteOnEvent(tick=0, channel=3, data=[28, 63]),
   midi.NoteOffEvent(tick=480, channel=3, data=[28, 63]),
   midi.NoteOnEvent(tick=0, channel=3, data=[35, 63]),
   midi.NoteOffEvent(tick=480, channel=3, data=[35, 63]),
   midi.NoteOnEvent(tick=0, channel=3, data=[33, 63]),
   midi.NoteOffEvent(tick=480, channel=3, data=[33, 63]),
   midi.NoteOnEvent(tick=0, channel=3, data=[41, 63]),
   midi.NoteOffEvent(tick=960, channel=3, data=[41, 63]),
   midi.NoteOnEvent(tick=0, channel=3, data=[38, 95]),
   midi.NoteOffEvent(tick=240, channel=3, data=[38, 95]),
   midi.NoteOnEvent(tick=0, channel=3, data=[40, 70]),
   midi.NoteOffEvent(tick=240, channel=3, data=[40, 70]),
   midi.NoteOnEvent(tick=0, channel=3, data=[28, 63]),
   midi.NoteOffEvent(tick=480, channel=3, data=[28, 63]),
   midi.NoteOnEvent(tick=0, channel=3, data=[28, 63]),
   midi.NoteOffEvent(tick=480, channel=3, data=[28, 63]),
   midi.NoteOnEvent(tick=0, channel=3, data=[28, 63]),
   midi.NoteOffEvent(tick=480, channel=3, data=[28, 63]),
   midi.NoteOnEvent(tick=0, channel=3, data=[38, 95]),
   midi.NoteOffEvent(tick=240, channel=3, data=[38, 95]),
   midi.NoteOnEvent(tick=0, channel=3, data=[40, 70]),
   midi.NoteOffEvent(tick=240, channel=3, data=[40, 70]),
   midi.NoteOnEvent(tick=0, channel=3, data=[28, 63]),
   midi.NoteOffEvent(tick=480, channel=3, data=[28, 63]),
   midi.NoteOnEvent(tick=0, channel=3, data=[28, 63]),
   midi.NoteOffEvent(tick=480, channel=3, data=[28, 63]),
   midi.NoteOnEvent(tick=0, channel=3, data=[28, 63]),
   midi.NoteOffEvent(tick=480, channel=3, data=[28, 63]),
   midi.NoteOnEvent(tick=0, channel=3, data=[38, 95]),
   midi.NoteOffEvent(tick=240, channel=3, data=[38, 95]),
   midi.NoteOnEvent(tick=0, channel=3, data=[40, 70]),
   midi.NoteOffEvent(tick=240, channel=3, data=[40, 70]),
   midi.NoteOnEvent(tick=0, channel=3, data=[28, 63]),
   midi.NoteOffEvent(tick=480, channel=3, data=[28, 63]),
   midi.NoteOnEvent(tick=0, channel=3, data=[28, 63]),
   midi.NoteOffEvent(tick=480, channel=3, data=[28, 63]),
   midi.NoteOnEvent(tick=0, channel=3, data=[28, 63]),
   midi.NoteOffEvent(tick=480, channel=3, data=[28, 63]),
   midi.NoteOnEvent(tick=0, channel=3, data=[35, 63]),
   midi.NoteOffEvent(tick=480, channel=3, data=[35, 63]),
   midi.NoteOnEvent(tick=0, channel=3, data=[33, 63]),
   midi.NoteOffEvent(tick=480, channel=3, data=[33, 63]),
   midi.NoteOnEvent(tick=0, channel=3, data=[37, 63]),
   midi.NoteOffEvent(tick=480, channel=3, data=[37, 63]),
   midi.NoteOnEvent(tick=0, channel=3, data=[38, 95]),
   midi.NoteOffEvent(tick=480, channel=3, data=[38, 95]),
   midi.NoteOnEvent(tick=0, channel=3, data=[38, 95]),
   midi.NoteOffEvent(tick=240, channel=3, data=[38, 95]),
   midi.NoteOnEvent(tick=0, channel=3, data=[40, 70]),
   midi.NoteOffEvent(tick=240, channel=3, data=[40, 70]),
   midi.NoteOnEvent(tick=0, channel=3, data=[28, 63]),
   midi.NoteOffEvent(tick=480, channel=3, data=[28, 63]),
   midi.NoteOnEvent(tick=0, channel=3, data=[28, 63]),
   midi.NoteOffEvent(tick=480, channel=3, data=[28, 63]),
   midi.NoteOnEvent(tick=0, channel=3, data=[28, 63]),
   midi.NoteOffEvent(tick=480, channel=3, data=[28, 63]),
   midi.NoteOnEvent(tick=0, channel=3, data=[38, 95]),
   midi.NoteOffEvent(tick=240, channel=3, data=[38, 95]),
   midi.NoteOnEvent(tick=0, channel=3, data=[40, 70]),
   midi.NoteOffEvent(tick=240, channel=3, data=[40, 70]),
   midi.NoteOnEvent(tick=0, channel=3, data=[28, 63]),
   midi.NoteOffEvent(tick=480, channel=3, data=[28, 63]),
   midi.NoteOnEvent(tick=0, channel=3, data=[28, 63]),
   midi.NoteOffEvent(tick=480, channel=3, data=[28, 63]),
   midi.NoteOnEvent(tick=0, channel=3, data=[28, 63]),
   midi.NoteOffEvent(tick=480, channel=3, data=[28, 63]),
   midi.NoteOnEvent(tick=0, channel=3, data=[38, 95]),
   midi.NoteOffEvent(tick=240, channel=3, data=[38, 95]),
   midi.NoteOnEvent(tick=0, channel=3, data=[40, 70]),
   midi.NoteOffEvent(tick=240, channel=3, data=[40, 70]),
   midi.NoteOnEvent(tick=0, channel=3, data=[28, 63]),
   midi.NoteOffEvent(tick=480, channel=3, data=[28, 63]),
   midi.NoteOnEvent(tick=0, channel=3, data=[28, 63]),
   midi.NoteOffEvent(tick=480, channel=3, data=[28, 63]),
   midi.NoteOnEvent(tick=0, channel=3, data=[28, 63]),
   midi.NoteOffEvent(tick=480, channel=3, data=[28, 63]),
   midi.NoteOnEvent(tick=0, channel=3, data=[35, 63]),
   midi.NoteOffEvent(tick=480, channel=3, data=[35, 63]),
   midi.NoteOnEvent(tick=0, channel=3, data=[33, 63]),
   midi.NoteOffEvent(tick=480, channel=3, data=[33, 63]),
   midi.NoteOnEvent(tick=0, channel=3, data=[41, 63]),
   midi.NoteOffEvent(tick=960, channel=3, data=[41, 63]),
   midi.NoteOnEvent(tick=0, channel=3, data=[38, 95]),
   midi.NoteOffEvent(tick=240, channel=3, data=[38, 95]),
   midi.NoteOnEvent(tick=0, channel=3, data=[40, 70]),
   midi.NoteOffEvent(tick=240, channel=3, data=[40, 70]),
   midi.NoteOnEvent(tick=0, channel=3, data=[28, 63]),
   midi.NoteOffEvent(tick=480, channel=3, data=[28, 63]),
   midi.NoteOnEvent(tick=0, channel=3, data=[28, 63]),
   midi.NoteOffEvent(tick=480, channel=3, data=[28, 63]),
   midi.NoteOnEvent(tick=0, channel=3, data=[28, 63]),
   midi.NoteOffEvent(tick=480, channel=3, data=[28, 63]),
   midi.NoteOnEvent(tick=0, channel=3, data=[38, 95]),
   midi.NoteOffEvent(tick=240, channel=3, data=[38, 95]),
   midi.NoteOnEvent(tick=0, channel=3, data=[40, 70]),
   midi.NoteOffEvent(tick=240, channel=3, data=[40, 70]),
   midi.NoteOnEvent(tick=0, channel=3, data=[28, 63]),
   midi.NoteOffEvent(tick=480, channel=3, data=[28, 63]),
   midi.NoteOnEvent(tick=0, channel=3, data=[28, 63]),
   midi.NoteOffEvent(tick=480, channel=3, data=[28, 63]),
   midi.NoteOnEvent(tick=0, channel=3, data=[28, 63]),
   midi.NoteOffEvent(tick=480, channel=3, data=[28, 63]),
   midi.NoteOnEvent(tick=0, channel=3, data=[38, 95]),
   midi.NoteOffEvent(tick=240, channel=3, data=[38, 95]),
   midi.NoteOnEvent(tick=0, channel=3, data=[40, 70]),
   midi.NoteOffEvent(tick=240, channel=3, data=[40, 70]),
   midi.NoteOnEvent(tick=0, channel=3, data=[28, 63]),
   midi.NoteOffEvent(tick=480, channel=3, data=[28, 63]),
   midi.NoteOnEvent(tick=0, channel=3, data=[28, 63]),
   midi.NoteOffEvent(tick=480, channel=3, data=[28, 63]),
   midi.NoteOnEvent(tick=0, channel=3, data=[28, 63]),
   midi.NoteOffEvent(tick=480, channel=3, data=[28, 63]),
   midi.NoteOnEvent(tick=0, channel=3, data=[35, 63]),
   midi.NoteOffEvent(tick=480, channel=3, data=[35, 63]),
   midi.NoteOnEvent(tick=0, channel=3, data=[33, 63]),
   midi.NoteOffEvent(tick=480, channel=3, data=[33, 63]),
   midi.NoteOnEvent(tick=0, channel=3, data=[37, 63]),
   midi.NoteOffEvent(tick=480, channel=3, data=[37, 63]),
   midi.NoteOnEvent(tick=0, channel=3, data=[38, 95]),
   midi.NoteOffEvent(tick=480, channel=3, data=[38, 95]),
   midi.NoteOnEvent(tick=0, channel=3, data=[38, 95]),
   midi.NoteOffEvent(tick=240, channel=3, data=[38, 95]),
   midi.NoteOnEvent(tick=0, channel=3, data=[40, 70]),
   midi.NoteOffEvent(tick=240, channel=3, data=[40, 70]),
   midi.NoteOnEvent(tick=0, channel=3, data=[28, 63]),
   midi.NoteOffEvent(tick=480, channel=3, data=[28, 63]),
   midi.NoteOnEvent(tick=0, channel=3, data=[28, 63]),
   midi.NoteOffEvent(tick=480, channel=3, data=[28, 63]),
   midi.NoteOnEvent(tick=0, channel=3, data=[28, 63]),
   midi.NoteOffEvent(tick=480, channel=3, data=[28, 63]),
   midi.NoteOnEvent(tick=0, channel=3, data=[38, 95]),
   midi.NoteOffEvent(tick=240, channel=3, data=[38, 95]),
   midi.NoteOnEvent(tick=0, channel=3, data=[40, 70]),
   midi.NoteOffEvent(tick=240, channel=3, data=[40, 70]),
   midi.NoteOnEvent(tick=0, channel=3, data=[28, 63]),
   midi.NoteOffEvent(tick=480, channel=3, data=[28, 63]),
   midi.NoteOnEvent(tick=0, channel=3, data=[28, 63]),
   midi.NoteOffEvent(tick=480, channel=3, data=[28, 63]),
   midi.NoteOnEvent(tick=0, channel=3, data=[28, 63]),
   midi.NoteOffEvent(tick=480, channel=3, data=[28, 63]),
   midi.NoteOnEvent(tick=0, channel=3, data=[38, 95]),
   midi.NoteOffEvent(tick=240, channel=3, data=[38, 95]),
   midi.NoteOnEvent(tick=0, channel=3, data=[40, 70]),
   midi.NoteOffEvent(tick=240, channel=3, data=[40, 70]),
   midi.NoteOnEvent(tick=0, channel=3, data=[28, 63]),
   midi.NoteOffEvent(tick=480, channel=3, data=[28, 63]),
   midi.NoteOnEvent(tick=0, channel=3, data=[28, 63]),
   midi.NoteOffEvent(tick=480, channel=3, data=[28, 63]),
   midi.NoteOnEvent(tick=0, channel=3, data=[28, 63]),
   midi.NoteOffEvent(tick=480, channel=3, data=[28, 63]),
   midi.NoteOnEvent(tick=0, channel=3, data=[35, 63]),
   midi.NoteOffEvent(tick=480, channel=3, data=[35, 63]),
   midi.NoteOnEvent(tick=0, channel=3, data=[33, 63]),
   midi.NoteOffEvent(tick=480, channel=3, data=[33, 63]),
   midi.NoteOnEvent(tick=0, channel=3, data=[41, 63]),
   midi.NoteOffEvent(tick=960, channel=3, data=[41, 63]),
   midi.NoteOnEvent(tick=0, channel=3, data=[38, 95]),
   midi.NoteOffEvent(tick=240, channel=3, data=[38, 95]),
   midi.NoteOnEvent(tick=0, channel=3, data=[40, 70]),
   midi.NoteOffEvent(tick=240, channel=3, data=[40, 70]),
   midi.NoteOnEvent(tick=0, channel=3, data=[28, 63]),
   midi.NoteOffEvent(tick=480, channel=3, data=[28, 63]),
   midi.NoteOnEvent(tick=0, channel=3, data=[28, 63]),
   midi.NoteOffEvent(tick=480, channel=3, data=[28, 63]),
   midi.NoteOnEvent(tick=0, channel=3, data=[28, 63]),
   midi.NoteOffEvent(tick=480, channel=3, data=[28, 63]),
   midi.NoteOnEvent(tick=0, channel=3, data=[38, 95]),
   midi.NoteOffEvent(tick=240, channel=3, data=[38, 95]),
   midi.NoteOnEvent(tick=0, channel=3, data=[40, 70]),
   midi.NoteOffEvent(tick=240, channel=3, data=[40, 70]),
   midi.NoteOnEvent(tick=0, channel=3, data=[28, 63]),
   midi.NoteOffEvent(tick=480, channel=3, data=[28, 63]),
   midi.NoteOnEvent(tick=0, channel=3, data=[28, 63]),
   midi.NoteOffEvent(tick=480, channel=3, data=[28, 63]),
   midi.NoteOnEvent(tick=0, channel=3, data=[28, 63]),
   midi.NoteOffEvent(tick=480, channel=3, data=[28, 63]),
   midi.NoteOnEvent(tick=0, channel=3, data=[38, 95]),
   midi.NoteOffEvent(tick=240, channel=3, data=[38, 95]),
   midi.NoteOnEvent(tick=0, channel=3, data=[40, 70]),
   midi.NoteOffEvent(tick=240, channel=3, data=[40, 70]),
   midi.NoteOnEvent(tick=0, channel=3, data=[28, 63]),
   midi.NoteOffEvent(tick=480, channel=3, data=[28, 63]),
   midi.NoteOnEvent(tick=0, channel=3, data=[28, 63]),
   midi.NoteOffEvent(tick=480, channel=3, data=[28, 63]),
   midi.NoteOnEvent(tick=0, channel=3, data=[28, 63]),
   midi.NoteOffEvent(tick=480, channel=3, data=[28, 63]),
   midi.NoteOnEvent(tick=0, channel=3, data=[35, 63]),
   midi.NoteOffEvent(tick=480, channel=3, data=[35, 63]),
   midi.NoteOnEvent(tick=0, channel=3, data=[33, 63]),
   midi.NoteOffEvent(tick=480, channel=3, data=[33, 63]),
   midi.NoteOnEvent(tick=0, channel=3, data=[37, 63]),
   midi.NoteOffEvent(tick=480, channel=3, data=[37, 63]),
   midi.NoteOnEvent(tick=0, channel=3, data=[38, 95]),
   midi.NoteOffEvent(tick=480, channel=3, data=[38, 95]),
   midi.NoteOnEvent(tick=0, channel=3, data=[38, 95]),
   midi.NoteOffEvent(tick=240, channel=3, data=[38, 95]),
   midi.NoteOnEvent(tick=0, channel=3, data=[40, 70]),
   midi.NoteOffEvent(tick=240, channel=3, data=[40, 70]),
   midi.NoteOnEvent(tick=0, channel=3, data=[28, 63]),
   midi.NoteOffEvent(tick=480, channel=3, data=[28, 63]),
   midi.NoteOnEvent(tick=0, channel=3, data=[28, 63]),
   midi.NoteOffEvent(tick=480, channel=3, data=[28, 63]),
   midi.NoteOnEvent(tick=0, channel=3, data=[28, 63]),
   midi.NoteOffEvent(tick=480, channel=3, data=[28, 63]),
   midi.NoteOnEvent(tick=0, channel=3, data=[38, 95]),
   midi.NoteOffEvent(tick=240, channel=3, data=[38, 95]),
   midi.NoteOnEvent(tick=0, channel=3, data=[40, 70]),
   midi.NoteOffEvent(tick=240, channel=3, data=[40, 70]),
   midi.NoteOnEvent(tick=0, channel=3, data=[28, 63]),
   midi.NoteOffEvent(tick=480, channel=3, data=[28, 63]),
   midi.NoteOnEvent(tick=0, channel=3, data=[28, 63]),
   midi.NoteOffEvent(tick=480, channel=3, data=[28, 63]),
   midi.NoteOnEvent(tick=0, channel=3, data=[28, 63]),
   midi.NoteOffEvent(tick=480, channel=3, data=[28, 63]),
   midi.NoteOnEvent(tick=0, channel=3, data=[38, 95]),
   midi.NoteOffEvent(tick=240, channel=3, data=[38, 95]),
   midi.NoteOnEvent(tick=0, channel=3, data=[40, 70]),
   midi.NoteOffEvent(tick=240, channel=3, data=[40, 70]),
   midi.NoteOnEvent(tick=0, channel=3, data=[28, 63]),
   midi.NoteOffEvent(tick=480, channel=3, data=[28, 63]),
   midi.NoteOnEvent(tick=0, channel=3, data=[28, 63]),
   midi.NoteOffEvent(tick=480, channel=3, data=[28, 63]),
   midi.NoteOnEvent(tick=0, channel=3, data=[28, 63]),
   midi.NoteOffEvent(tick=480, channel=3, data=[28, 63]),
   midi.NoteOnEvent(tick=0, channel=3, data=[35, 63]),
   midi.NoteOffEvent(tick=480, channel=3, data=[35, 63]),
   midi.NoteOnEvent(tick=0, channel=3, data=[33, 63]),
   midi.NoteOffEvent(tick=480, channel=3, data=[33, 63]),
   midi.NoteOnEvent(tick=0, channel=3, data=[41, 63]),
   midi.NoteOffEvent(tick=960, channel=3, data=[41, 63]),
   midi.NoteOnEvent(tick=0, channel=3, data=[35, 63]),
   midi.NoteOffEvent(tick=480, channel=3, data=[35, 63]),
   midi.NoteOnEvent(tick=0, channel=3, data=[35, 63]),
   midi.NoteOffEvent(tick=480, channel=3, data=[35, 63]),
   midi.NoteOnEvent(tick=0, channel=3, data=[35, 63]),
   midi.NoteOffEvent(tick=480, channel=3, data=[35, 63]),
   midi.NoteOnEvent(tick=0, channel=3, data=[35, 63]),
   midi.NoteOffEvent(tick=480, channel=3, data=[35, 63]),
   midi.NoteOnEvent(tick=0, channel=3, data=[35, 63]),
   midi.NoteOffEvent(tick=480, channel=3, data=[35, 63]),
   midi.NoteOnEvent(tick=0, channel=3, data=[35, 63]),
   midi.NoteOffEvent(tick=480, channel=3, data=[35, 63]),
   midi.NoteOnEvent(tick=0, channel=3, data=[35, 63]),
   midi.NoteOffEvent(tick=480, channel=3, data=[35, 63]),
   midi.NoteOnEvent(tick=0, channel=3, data=[35, 63]),
   midi.NoteOffEvent(tick=480, channel=3, data=[35, 63]),
   midi.NoteOnEvent(tick=0, channel=3, data=[35, 63]),
   midi.NoteOffEvent(tick=480, channel=3, data=[35, 63]),
   midi.NoteOnEvent(tick=0, channel=3, data=[35, 63]),
   midi.NoteOffEvent(tick=480, channel=3, data=[35, 63]),
   midi.NoteOnEvent(tick=0, channel=3, data=[35, 63]),
   midi.NoteOffEvent(tick=480, channel=3, data=[35, 63]),
   midi.NoteOnEvent(tick=0, channel=3, data=[35, 63]),
   midi.NoteOffEvent(tick=480, channel=3, data=[35, 63]),
   midi.NoteOnEvent(tick=0, channel=3, data=[40, 63]),
   midi.NoteOffEvent(tick=480, channel=3, data=[40, 63]),
   midi.NoteOnEvent(tick=0, channel=3, data=[38, 63]),
   midi.NoteOffEvent(tick=480, channel=3, data=[38, 63]),
   midi.NoteOnEvent(tick=0, channel=3, data=[40, 63]),
   midi.NoteOffEvent(tick=480, channel=3, data=[40, 63]),
   midi.NoteOnEvent(tick=0, channel=3, data=[41, 63]),
   midi.NoteOffEvent(tick=480, channel=3, data=[41, 63]),
   midi.NoteOnEvent(tick=0, channel=3, data=[35, 63]),
   midi.NoteOffEvent(tick=480, channel=3, data=[35, 63]),
   midi.NoteOnEvent(tick=0, channel=3, data=[35, 63]),
   midi.NoteOffEvent(tick=480, channel=3, data=[35, 63]),
   midi.NoteOnEvent(tick=0, channel=3, data=[35, 63]),
   midi.NoteOffEvent(tick=480, channel=3, data=[35, 63]),
   midi.NoteOnEvent(tick=0, channel=3, data=[35, 63]),
   midi.NoteOffEvent(tick=480, channel=3, data=[35, 63]),
   midi.NoteOnEvent(tick=0, channel=3, data=[35, 63]),
   midi.NoteOffEvent(tick=480, channel=3, data=[35, 63]),
   midi.NoteOnEvent(tick=0, channel=3, data=[35, 63]),
   midi.NoteOffEvent(tick=480, channel=3, data=[35, 63]),
   midi.NoteOnEvent(tick=0, channel=3, data=[35, 63]),
   midi.NoteOffEvent(tick=480, channel=3, data=[35, 63]),
   midi.NoteOnEvent(tick=0, channel=3, data=[35, 63]),
   midi.NoteOffEvent(tick=480, channel=3, data=[35, 63]),
   midi.NoteOnEvent(tick=0, channel=3, data=[35, 63]),
   midi.NoteOffEvent(tick=480, channel=3, data=[35, 63]),
   midi.NoteOnEvent(tick=0, channel=3, data=[35, 63]),
   midi.NoteOffEvent(tick=480, channel=3, data=[35, 63]),
   midi.NoteOnEvent(tick=0, channel=3, data=[35, 63]),
   midi.NoteOffEvent(tick=480, channel=3, data=[35, 63]),
   midi.NoteOnEvent(tick=0, channel=3, data=[35, 63]),
   midi.NoteOffEvent(tick=480, channel=3, data=[35, 63]),
   midi.NoteOnEvent(tick=0, channel=3, data=[40, 63]),
   midi.NoteOffEvent(tick=480, channel=3, data=[40, 63]),
   midi.NoteOnEvent(tick=0, channel=3, data=[38, 63]),
   midi.NoteOffEvent(tick=480, channel=3, data=[38, 63]),
   midi.NoteOnEvent(tick=0, channel=3, data=[43, 95]),
   midi.NoteOffEvent(tick=960, channel=3, data=[43, 95]),
   midi.NoteOnEvent(tick=0, channel=3, data=[35, 63]),
   midi.NoteOffEvent(tick=480, channel=3, data=[35, 63]),
   midi.NoteOnEvent(tick=0, channel=3, data=[35, 63]),
   midi.NoteOffEvent(tick=480, channel=3, data=[35, 63]),
   midi.NoteOnEvent(tick=0, channel=3, data=[35, 63]),
   midi.NoteOffEvent(tick=480, channel=3, data=[35, 63]),
   midi.NoteOnEvent(tick=0, channel=3, data=[35, 63]),
   midi.NoteOffEvent(tick=480, channel=3, data=[35, 63]),
   midi.NoteOnEvent(tick=0, channel=3, data=[35, 63]),
   midi.NoteOffEvent(tick=480, channel=3, data=[35, 63]),
   midi.NoteOnEvent(tick=0, channel=3, data=[35, 63]),
   midi.NoteOffEvent(tick=480, channel=3, data=[35, 63]),
   midi.NoteOnEvent(tick=0, channel=3, data=[35, 63]),
   midi.NoteOffEvent(tick=480, channel=3, data=[35, 63]),
   midi.NoteOnEvent(tick=0, channel=3, data=[35, 63]),
   midi.NoteOffEvent(tick=480, channel=3, data=[35, 63]),
   midi.NoteOnEvent(tick=0, channel=3, data=[35, 63]),
   midi.NoteOffEvent(tick=480, channel=3, data=[35, 63]),
   midi.NoteOnEvent(tick=0, channel=3, data=[35, 63]),
   midi.NoteOffEvent(tick=480, channel=3, data=[35, 63]),
   midi.NoteOnEvent(tick=0, channel=3, data=[35, 63]),
   midi.NoteOffEvent(tick=480, channel=3, data=[35, 63]),
   midi.NoteOnEvent(tick=0, channel=3, data=[35, 63]),
   midi.NoteOffEvent(tick=480, channel=3, data=[35, 63]),
   midi.NoteOnEvent(tick=0, channel=3, data=[40, 63]),
   midi.NoteOffEvent(tick=480, channel=3, data=[40, 63]),
   midi.NoteOnEvent(tick=0, channel=3, data=[38, 63]),
   midi.NoteOffEvent(tick=480, channel=3, data=[38, 63]),
   midi.NoteOnEvent(tick=0, channel=3, data=[40, 63]),
   midi.NoteOffEvent(tick=480, channel=3, data=[40, 63]),
   midi.NoteOnEvent(tick=0, channel=3, data=[41, 63]),
   midi.NoteOffEvent(tick=480, channel=3, data=[41, 63]),
   midi.NoteOnEvent(tick=0, channel=3, data=[35, 63]),
   midi.NoteOffEvent(tick=480, channel=3, data=[35, 63]),
   midi.NoteOnEvent(tick=0, channel=3, data=[35, 63]),
   midi.NoteOffEvent(tick=480, channel=3, data=[35, 63]),
   midi.NoteOnEvent(tick=0, channel=3, data=[35, 63]),
   midi.NoteOffEvent(tick=480, channel=3, data=[35, 63]),
   midi.NoteOnEvent(tick=0, channel=3, data=[35, 63]),
   midi.NoteOffEvent(tick=480, channel=3, data=[35, 63]),
   midi.NoteOnEvent(tick=0, channel=3, data=[35, 63]),
   midi.NoteOffEvent(tick=480, channel=3, data=[35, 63]),
   midi.NoteOnEvent(tick=0, channel=3, data=[35, 63]),
   midi.NoteOffEvent(tick=480, channel=3, data=[35, 63]),
   midi.NoteOnEvent(tick=0, channel=3, data=[35, 63]),
   midi.NoteOffEvent(tick=480, channel=3, data=[35, 63]),
   midi.NoteOnEvent(tick=0, channel=3, data=[35, 63]),
   midi.NoteOffEvent(tick=480, channel=3, data=[35, 63]),
   midi.NoteOnEvent(tick=0, channel=3, data=[35, 63]),
   midi.NoteOffEvent(tick=480, channel=3, data=[35, 63]),
   midi.NoteOnEvent(tick=0, channel=3, data=[35, 63]),
   midi.NoteOffEvent(tick=480, channel=3, data=[35, 63]),
   midi.NoteOnEvent(tick=0, channel=3, data=[35, 63]),
   midi.NoteOffEvent(tick=480, channel=3, data=[35, 63]),
   midi.NoteOnEvent(tick=0, channel=3, data=[35, 63]),
   midi.NoteOffEvent(tick=480, channel=3, data=[35, 63]),
   midi.NoteOnEvent(tick=0, channel=3, data=[40, 63]),
   midi.NoteOffEvent(tick=480, channel=3, data=[40, 63]),
   midi.NoteOnEvent(tick=0, channel=3, data=[38, 63]),
   midi.NoteOffEvent(tick=480, channel=3, data=[38, 63]),
   midi.NoteOnEvent(tick=0, channel=3, data=[43, 95]),
   midi.NoteOffEvent(tick=960, channel=3, data=[43, 95]),
   midi.NoteOnEvent(tick=0, channel=3, data=[35, 63]),
   midi.NoteOffEvent(tick=1920, channel=3, data=[35, 63]),
   midi.NoteOnEvent(tick=0, channel=3, data=[28, 63]),
   midi.NoteOffEvent(tick=1920, channel=3, data=[28, 63]),
   midi.NoteOnEvent(tick=0, channel=3, data=[31, 63]),
   midi.NoteOffEvent(tick=1920, channel=3, data=[31, 63]),
   midi.NoteOnEvent(tick=0, channel=3, data=[30, 63]),
   midi.NoteOffEvent(tick=1920, channel=3, data=[30, 63]),
   midi.NoteOnEvent(tick=0, channel=3, data=[35, 63]),
   midi.NoteOffEvent(tick=1920, channel=3, data=[35, 63]),
   midi.NoteOnEvent(tick=0, channel=3, data=[28, 63]),
   midi.NoteOffEvent(tick=1920, channel=3, data=[28, 63]),
   midi.NoteOnEvent(tick=0, channel=3, data=[38, 95]),
   midi.NoteOffEvent(tick=1920, channel=3, data=[38, 95]),
   midi.NoteOnEvent(tick=0, channel=3, data=[37, 63]),
   midi.NoteOffEvent(tick=1920, channel=3, data=[37, 63]),
   midi.NoteOnEvent(tick=0, channel=3, data=[35, 63]),
   midi.NoteOffEvent(tick=1920, channel=3, data=[35, 63]),
   midi.NoteOnEvent(tick=0, channel=3, data=[28, 63]),
   midi.NoteOffEvent(tick=1920, channel=3, data=[28, 63]),
   midi.NoteOnEvent(tick=0, channel=3, data=[31, 63]),
   midi.NoteOffEvent(tick=1920, channel=3, data=[31, 63]),
   midi.NoteOnEvent(tick=0, channel=3, data=[30, 63]),
   midi.NoteOffEvent(tick=1920, channel=3, data=[30, 63]),
   midi.NoteOnEvent(tick=0, channel=3, data=[35, 63]),
   midi.NoteOffEvent(tick=1920, channel=3, data=[35, 63]),
   midi.NoteOnEvent(tick=0, channel=3, data=[28, 63]),
   midi.NoteOffEvent(tick=1920, channel=3, data=[28, 63]),
   midi.NoteOnEvent(tick=0, channel=3, data=[38, 95]),
   midi.NoteOffEvent(tick=1920, channel=3, data=[38, 95]),
   midi.NoteOnEvent(tick=0, channel=3, data=[40, 95]),
   midi.NoteOffEvent(tick=1920, channel=3, data=[40, 95]),
   midi.NoteOnEvent(tick=0, channel=3, data=[38, 95]),
   midi.NoteOffEvent(tick=240, channel=3, data=[38, 95]),
   midi.NoteOnEvent(tick=0, channel=3, data=[40, 70]),
   midi.NoteOffEvent(tick=240, channel=3, data=[40, 70]),
   midi.NoteOnEvent(tick=0, channel=3, data=[28, 63]),
   midi.NoteOffEvent(tick=480, channel=3, data=[28, 63]),
   midi.NoteOnEvent(tick=0, channel=3, data=[28, 63]),
   midi.NoteOffEvent(tick=480, channel=3, data=[28, 63]),
   midi.NoteOnEvent(tick=0, channel=3, data=[28, 63]),
   midi.NoteOffEvent(tick=480, channel=3, data=[28, 63]),
   midi.NoteOnEvent(tick=0, channel=3, data=[38, 95]),
   midi.NoteOffEvent(tick=240, channel=3, data=[38, 95]),
   midi.NoteOnEvent(tick=0, channel=3, data=[40, 70]),
   midi.NoteOffEvent(tick=240, channel=3, data=[40, 70]),
   midi.NoteOnEvent(tick=0, channel=3, data=[28, 63]),
   midi.NoteOffEvent(tick=480, channel=3, data=[28, 63]),
   midi.NoteOnEvent(tick=0, channel=3, data=[28, 63]),
   midi.NoteOffEvent(tick=480, channel=3, data=[28, 63]),
   midi.NoteOnEvent(tick=0, channel=3, data=[28, 63]),
   midi.NoteOffEvent(tick=480, channel=3, data=[28, 63]),
   midi.NoteOnEvent(tick=0, channel=3, data=[38, 95]),
   midi.NoteOffEvent(tick=240, channel=3, data=[38, 95]),
   midi.NoteOnEvent(tick=0, channel=3, data=[40, 70]),
   midi.NoteOffEvent(tick=240, channel=3, data=[40, 70]),
   midi.NoteOnEvent(tick=0, channel=3, data=[28, 63]),
   midi.NoteOffEvent(tick=480, channel=3, data=[28, 63]),
   midi.NoteOnEvent(tick=0, channel=3, data=[28, 63]),
   midi.NoteOffEvent(tick=480, channel=3, data=[28, 63]),
   midi.NoteOnEvent(tick=0, channel=3, data=[28, 63]),
   midi.NoteOffEvent(tick=480, channel=3, data=[28, 63]),
   midi.NoteOnEvent(tick=0, channel=3, data=[38, 95]),
   midi.NoteOffEvent(tick=240, channel=3, data=[38, 95]),
   midi.NoteOnEvent(tick=0, channel=3, data=[40, 70]),
   midi.NoteOffEvent(tick=240, channel=3, data=[40, 70]),
   midi.NoteOnEvent(tick=0, channel=3, data=[28, 63]),
   midi.NoteOffEvent(tick=480, channel=3, data=[28, 63]),
   midi.NoteOnEvent(tick=0, channel=3, data=[28, 63]),
   midi.NoteOffEvent(tick=480, channel=3, data=[28, 63]),
   midi.NoteOnEvent(tick=0, channel=3, data=[28, 63]),
   midi.NoteOffEvent(tick=480, channel=3, data=[28, 63]),
   midi.NoteOnEvent(tick=0, channel=3, data=[38, 95]),
   midi.NoteOffEvent(tick=240, channel=3, data=[38, 95]),
   midi.NoteOnEvent(tick=0, channel=3, data=[40, 70]),
   midi.NoteOffEvent(tick=240, channel=3, data=[40, 70]),
   midi.NoteOnEvent(tick=0, channel=3, data=[28, 63]),
   midi.NoteOffEvent(tick=480, channel=3, data=[28, 63]),
   midi.NoteOnEvent(tick=0, channel=3, data=[28, 63]),
   midi.NoteOffEvent(tick=480, channel=3, data=[28, 63]),
   midi.NoteOnEvent(tick=0, channel=3, data=[28, 63]),
   midi.NoteOffEvent(tick=480, channel=3, data=[28, 63]),
   midi.NoteOnEvent(tick=0, channel=3, data=[38, 95]),
   midi.NoteOffEvent(tick=240, channel=3, data=[38, 95]),
   midi.NoteOnEvent(tick=0, channel=3, data=[40, 70]),
   midi.NoteOffEvent(tick=240, channel=3, data=[40, 70]),
   midi.NoteOnEvent(tick=0, channel=3, data=[28, 63]),
   midi.NoteOffEvent(tick=480, channel=3, data=[28, 63]),
   midi.NoteOnEvent(tick=0, channel=3, data=[28, 63]),
   midi.NoteOffEvent(tick=480, channel=3, data=[28, 63]),
   midi.NoteOnEvent(tick=0, channel=3, data=[28, 63]),
   midi.NoteOffEvent(tick=480, channel=3, data=[28, 63]),
   midi.NoteOnEvent(tick=0, channel=3, data=[36, 63]),
   midi.NoteOffEvent(tick=960, channel=3, data=[36, 63]),
   midi.NoteOnEvent(tick=0, channel=3, data=[35, 63]),
   midi.NoteOffEvent(tick=480, channel=3, data=[35, 63]),
   midi.NoteOnEvent(tick=0, channel=3, data=[36, 63]),
   midi.NoteOffEvent(tick=960, channel=3, data=[36, 63]),
   midi.NoteOnEvent(tick=0, channel=3, data=[35, 63]),
   midi.NoteOffEvent(tick=480, channel=3, data=[35, 63]),
   midi.NoteOnEvent(tick=0, channel=3, data=[36, 63]),
   midi.NoteOffEvent(tick=480, channel=3, data=[36, 63]),
   midi.NoteOnEvent(tick=0, channel=3, data=[38, 95]),
   midi.NoteOffEvent(tick=480, channel=3, data=[38, 95]),
   midi.NoteOnEvent(tick=0, channel=3, data=[38, 95]),
   midi.NoteOffEvent(tick=240, channel=3, data=[38, 95]),
   midi.NoteOnEvent(tick=0, channel=3, data=[40, 70]),
   midi.NoteOffEvent(tick=240, channel=3, data=[40, 70]),
   midi.NoteOnEvent(tick=0, channel=3, data=[28, 63]),
   midi.NoteOffEvent(tick=480, channel=3, data=[28, 63]),
   midi.NoteOnEvent(tick=0, channel=3, data=[28, 63]),
   midi.NoteOffEvent(tick=480, channel=3, data=[28, 63]),
   midi.NoteOnEvent(tick=0, channel=3, data=[28, 63]),
   midi.NoteOffEvent(tick=480, channel=3, data=[28, 63]),
   midi.NoteOnEvent(tick=0, channel=3, data=[38, 95]),
   midi.NoteOffEvent(tick=240, channel=3, data=[38, 95]),
   midi.NoteOnEvent(tick=0, channel=3, data=[40, 70]),
   midi.NoteOffEvent(tick=240, channel=3, data=[40, 70]),
   midi.NoteOnEvent(tick=0, channel=3, data=[28, 63]),
   midi.NoteOffEvent(tick=480, channel=3, data=[28, 63]),
   midi.NoteOnEvent(tick=0, channel=3, data=[28, 63]),
   midi.NoteOffEvent(tick=480, channel=3, data=[28, 63]),
   midi.NoteOnEvent(tick=0, channel=3, data=[28, 63]),
   midi.NoteOffEvent(tick=480, channel=3, data=[28, 63]),
   midi.NoteOnEvent(tick=0, channel=3, data=[38, 95]),
   midi.NoteOffEvent(tick=240, channel=3, data=[38, 95]),
   midi.NoteOnEvent(tick=0, channel=3, data=[40, 70]),
   midi.NoteOffEvent(tick=240, channel=3, data=[40, 70]),
   midi.NoteOnEvent(tick=0, channel=3, data=[28, 63]),
   midi.NoteOffEvent(tick=480, channel=3, data=[28, 63]),
   midi.NoteOnEvent(tick=0, channel=3, data=[28, 63]),
   midi.NoteOffEvent(tick=480, channel=3, data=[28, 63]),
   midi.NoteOnEvent(tick=0, channel=3, data=[28, 63]),
   midi.NoteOffEvent(tick=480, channel=3, data=[28, 63]),
   midi.NoteOnEvent(tick=0, channel=3, data=[38, 95]),
   midi.NoteOffEvent(tick=240, channel=3, data=[38, 95]),
   midi.NoteOnEvent(tick=0, channel=3, data=[40, 70]),
   midi.NoteOffEvent(tick=240, channel=3, data=[40, 70]),
   midi.NoteOnEvent(tick=0, channel=3, data=[28, 63]),
   midi.NoteOffEvent(tick=480, channel=3, data=[28, 63]),
   midi.NoteOnEvent(tick=0, channel=3, data=[28, 63]),
   midi.NoteOffEvent(tick=480, channel=3, data=[28, 63]),
   midi.NoteOnEvent(tick=0, channel=3, data=[28, 63]),
   midi.NoteOffEvent(tick=480, channel=3, data=[28, 63]),
   midi.NoteOnEvent(tick=0, channel=3, data=[38, 95]),
   midi.NoteOffEvent(tick=240, channel=3, data=[38, 95]),
   midi.NoteOnEvent(tick=0, channel=3, data=[40, 70]),
   midi.NoteOffEvent(tick=240, channel=3, data=[40, 70]),
   midi.NoteOnEvent(tick=0, channel=3, data=[28, 63]),
   midi.NoteOffEvent(tick=480, channel=3, data=[28, 63]),
   midi.NoteOnEvent(tick=0, channel=3, data=[28, 63]),
   midi.NoteOffEvent(tick=480, channel=3, data=[28, 63]),
   midi.NoteOnEvent(tick=0, channel=3, data=[28, 63]),
   midi.NoteOffEvent(tick=480, channel=3, data=[28, 63]),
   midi.NoteOnEvent(tick=0, channel=3, data=[38, 95]),
   midi.NoteOffEvent(tick=240, channel=3, data=[38, 95]),
   midi.NoteOnEvent(tick=0, channel=3, data=[40, 70]),
   midi.NoteOffEvent(tick=240, channel=3, data=[40, 70]),
   midi.NoteOnEvent(tick=0, channel=3, data=[28, 63]),
   midi.NoteOffEvent(tick=480, channel=3, data=[28, 63]),
   midi.NoteOnEvent(tick=0, channel=3, data=[28, 63]),
   midi.NoteOffEvent(tick=480, channel=3, data=[28, 63]),
   midi.NoteOnEvent(tick=0, channel=3, data=[28, 63]),
   midi.NoteOffEvent(tick=480, channel=3, data=[28, 63]),
   midi.NoteOnEvent(tick=0, channel=3, data=[36, 63]),
   midi.NoteOffEvent(tick=960, channel=3, data=[36, 63]),
   midi.NoteOnEvent(tick=0, channel=3, data=[35, 63]),
   midi.NoteOffEvent(tick=480, channel=3, data=[35, 63]),
   midi.NoteOnEvent(tick=0, channel=3, data=[36, 63]),
   midi.NoteOffEvent(tick=960, channel=3, data=[36, 63]),
   midi.NoteOnEvent(tick=0, channel=3, data=[35, 63]),
   midi.NoteOffEvent(tick=480, channel=3, data=[35, 63]),
   midi.NoteOnEvent(tick=0, channel=3, data=[36, 63]),
   midi.NoteOffEvent(tick=480, channel=3, data=[36, 63]),
   midi.NoteOnEvent(tick=0, channel=3, data=[38, 95]),
   midi.NoteOffEvent(tick=480, channel=3, data=[38, 95]),
   midi.NoteOnEvent(tick=0, channel=3, data=[38, 95]),
   midi.NoteOffEvent(tick=240, channel=3, data=[38, 95]),
   midi.NoteOnEvent(tick=0, channel=3, data=[40, 70]),
   midi.NoteOffEvent(tick=240, channel=3, data=[40, 70]),
   midi.NoteOnEvent(tick=0, channel=3, data=[28, 63]),
   midi.NoteOffEvent(tick=480, channel=3, data=[28, 63]),
   midi.NoteOnEvent(tick=0, channel=3, data=[28, 63]),
   midi.NoteOffEvent(tick=480, channel=3, data=[28, 63]),
   midi.NoteOnEvent(tick=0, channel=3, data=[28, 63]),
   midi.NoteOffEvent(tick=480, channel=3, data=[28, 63]),
   midi.NoteOnEvent(tick=0, channel=3, data=[38, 95]),
   midi.NoteOffEvent(tick=240, channel=3, data=[38, 95]),
   midi.NoteOnEvent(tick=0, channel=3, data=[40, 70]),
   midi.NoteOffEvent(tick=240, channel=3, data=[40, 70]),
   midi.NoteOnEvent(tick=0, channel=3, data=[28, 63]),
   midi.NoteOffEvent(tick=480, channel=3, data=[28, 63]),
   midi.NoteOnEvent(tick=0, channel=3, data=[28, 63]),
   midi.NoteOffEvent(tick=480, channel=3, data=[28, 63]),
   midi.NoteOnEvent(tick=0, channel=3, data=[28, 63]),
   midi.NoteOffEvent(tick=480, channel=3, data=[28, 63]),
   midi.NoteOnEvent(tick=0, channel=3, data=[38, 95]),
   midi.NoteOffEvent(tick=240, channel=3, data=[38, 95]),
   midi.NoteOnEvent(tick=0, channel=3, data=[40, 70]),
   midi.NoteOffEvent(tick=240, channel=3, data=[40, 70]),
   midi.NoteOnEvent(tick=0, channel=3, data=[28, 63]),
   midi.NoteOffEvent(tick=480, channel=3, data=[28, 63]),
   midi.NoteOnEvent(tick=0, channel=3, data=[28, 63]),
   midi.NoteOffEvent(tick=480, channel=3, data=[28, 63]),
   midi.NoteOnEvent(tick=0, channel=3, data=[28, 63]),
   midi.NoteOffEvent(tick=480, channel=3, data=[28, 63]),
   midi.NoteOnEvent(tick=0, channel=3, data=[38, 95]),
   midi.NoteOffEvent(tick=240, channel=3, data=[38, 95]),
   midi.NoteOnEvent(tick=0, channel=3, data=[40, 70]),
   midi.NoteOffEvent(tick=240, channel=3, data=[40, 70]),
   midi.NoteOnEvent(tick=0, channel=3, data=[28, 63]),
   midi.NoteOffEvent(tick=480, channel=3, data=[28, 63]),
   midi.NoteOnEvent(tick=0, channel=3, data=[28, 63]),
   midi.NoteOffEvent(tick=480, channel=3, data=[28, 63]),
   midi.NoteOnEvent(tick=0, channel=3, data=[28, 63]),
   midi.NoteOffEvent(tick=480, channel=3, data=[28, 63]),
   midi.NoteOnEvent(tick=0, channel=3, data=[38, 95]),
   midi.NoteOffEvent(tick=240, channel=3, data=[38, 95]),
   midi.NoteOnEvent(tick=0, channel=3, data=[40, 70]),
   midi.NoteOffEvent(tick=240, channel=3, data=[40, 70]),
   midi.NoteOnEvent(tick=0, channel=3, data=[28, 63]),
   midi.NoteOffEvent(tick=480, channel=3, data=[28, 63]),
   midi.NoteOnEvent(tick=0, channel=3, data=[28, 63]),
   midi.NoteOffEvent(tick=480, channel=3, data=[28, 63]),
   midi.NoteOnEvent(tick=0, channel=3, data=[28, 63]),
   midi.NoteOffEvent(tick=480, channel=3, data=[28, 63]),
   midi.NoteOnEvent(tick=0, channel=3, data=[38, 95]),
   midi.NoteOffEvent(tick=240, channel=3, data=[38, 95]),
   midi.NoteOnEvent(tick=0, channel=3, data=[40, 70]),
   midi.NoteOffEvent(tick=240, channel=3, data=[40, 70]),
   midi.NoteOnEvent(tick=0, channel=3, data=[28, 63]),
   midi.NoteOffEvent(tick=480, channel=3, data=[28, 63]),
   midi.NoteOnEvent(tick=0, channel=3, data=[28, 63]),
   midi.NoteOffEvent(tick=480, channel=3, data=[28, 63]),
   midi.NoteOnEvent(tick=0, channel=3, data=[28, 63]),
   midi.NoteOffEvent(tick=480, channel=3, data=[28, 63]),
   midi.NoteOnEvent(tick=0, channel=3, data=[36, 63]),
   midi.NoteOffEvent(tick=960, channel=3, data=[36, 63]),
   midi.NoteOnEvent(tick=0, channel=3, data=[35, 63]),
   midi.NoteOffEvent(tick=480, channel=3, data=[35, 63]),
   midi.NoteOnEvent(tick=0, channel=3, data=[36, 63]),
   midi.NoteOffEvent(tick=960, channel=3, data=[36, 63]),
   midi.NoteOnEvent(tick=0, channel=3, data=[35, 63]),
   midi.NoteOffEvent(tick=480, channel=3, data=[35, 63]),
   midi.NoteOnEvent(tick=0, channel=3, data=[36, 63]),
   midi.NoteOffEvent(tick=480, channel=3, data=[36, 63]),
   midi.NoteOnEvent(tick=0, channel=3, data=[38, 95]),
   midi.NoteOffEvent(tick=480, channel=3, data=[38, 95]),
   midi.NoteOnEvent(tick=0, channel=3, data=[38, 95]),
   midi.NoteOffEvent(tick=240, channel=3, data=[38, 95]),
   midi.NoteOnEvent(tick=0, channel=3, data=[40, 70]),
   midi.NoteOffEvent(tick=240, channel=3, data=[40, 70]),
   midi.NoteOnEvent(tick=0, channel=3, data=[28, 63]),
   midi.NoteOffEvent(tick=480, channel=3, data=[28, 63]),
   midi.NoteOnEvent(tick=0, channel=3, data=[28, 63]),
   midi.NoteOffEvent(tick=480, channel=3, data=[28, 63]),
   midi.NoteOnEvent(tick=0, channel=3, data=[28, 63]),
   midi.NoteOffEvent(tick=480, channel=3, data=[28, 63]),
   midi.NoteOnEvent(tick=0, channel=3, data=[38, 95]),
   midi.NoteOffEvent(tick=240, channel=3, data=[38, 95]),
   midi.NoteOnEvent(tick=0, channel=3, data=[40, 70]),
   midi.NoteOffEvent(tick=240, channel=3, data=[40, 70]),
   midi.NoteOnEvent(tick=0, channel=3, data=[28, 63]),
   midi.NoteOffEvent(tick=480, channel=3, data=[28, 63]),
   midi.NoteOnEvent(tick=0, channel=3, data=[28, 63]),
   midi.NoteOffEvent(tick=480, channel=3, data=[28, 63]),
   midi.NoteOnEvent(tick=0, channel=3, data=[28, 63]),
   midi.NoteOffEvent(tick=480, channel=3, data=[28, 63]),
   midi.NoteOnEvent(tick=0, channel=3, data=[38, 95]),
   midi.NoteOffEvent(tick=240, channel=3, data=[38, 95]),
   midi.NoteOnEvent(tick=0, channel=3, data=[40, 70]),
   midi.NoteOffEvent(tick=240, channel=3, data=[40, 70]),
   midi.NoteOnEvent(tick=0, channel=3, data=[28, 63]),
   midi.NoteOffEvent(tick=480, channel=3, data=[28, 63]),
   midi.NoteOnEvent(tick=0, channel=3, data=[28, 63]),
   midi.NoteOffEvent(tick=480, channel=3, data=[28, 63]),
   midi.NoteOnEvent(tick=0, channel=3, data=[28, 63]),
   midi.NoteOffEvent(tick=480, channel=3, data=[28, 63]),
   midi.NoteOnEvent(tick=0, channel=3, data=[38, 95]),
   midi.NoteOffEvent(tick=240, channel=3, data=[38, 95]),
   midi.NoteOnEvent(tick=0, channel=3, data=[40, 70]),
   midi.NoteOffEvent(tick=240, channel=3, data=[40, 70]),
   midi.NoteOnEvent(tick=0, channel=3, data=[28, 63]),
   midi.NoteOffEvent(tick=480, channel=3, data=[28, 63]),
   midi.NoteOnEvent(tick=0, channel=3, data=[28, 63]),
   midi.NoteOffEvent(tick=480, channel=3, data=[28, 63]),
   midi.NoteOnEvent(tick=0, channel=3, data=[28, 63]),
   midi.NoteOffEvent(tick=480, channel=3, data=[28, 63]),
   midi.NoteOnEvent(tick=0, channel=3, data=[38, 95]),
   midi.NoteOffEvent(tick=240, channel=3, data=[38, 95]),
   midi.NoteOnEvent(tick=0, channel=3, data=[40, 70]),
   midi.NoteOffEvent(tick=240, channel=3, data=[40, 70]),
   midi.NoteOnEvent(tick=0, channel=3, data=[28, 63]),
   midi.NoteOffEvent(tick=480, channel=3, data=[28, 63]),
   midi.NoteOnEvent(tick=0, channel=3, data=[28, 63]),
   midi.NoteOffEvent(tick=480, channel=3, data=[28, 63]),
   midi.NoteOnEvent(tick=0, channel=3, data=[28, 63]),
   midi.NoteOffEvent(tick=480, channel=3, data=[28, 63]),
   midi.NoteOnEvent(tick=0, channel=3, data=[38, 95]),
   midi.NoteOffEvent(tick=240, channel=3, data=[38, 95]),
   midi.NoteOnEvent(tick=0, channel=3, data=[40, 70]),
   midi.NoteOffEvent(tick=240, channel=3, data=[40, 70]),
   midi.NoteOnEvent(tick=0, channel=3, data=[28, 63]),
   midi.NoteOffEvent(tick=480, channel=3, data=[28, 63]),
   midi.NoteOnEvent(tick=0, channel=3, data=[28, 63]),
   midi.NoteOffEvent(tick=480, channel=3, data=[28, 63]),
   midi.NoteOnEvent(tick=0, channel=3, data=[28, 63]),
   midi.NoteOffEvent(tick=480, channel=3, data=[28, 63]),
   midi.NoteOnEvent(tick=0, channel=3, data=[36, 63]),
   midi.NoteOffEvent(tick=960, channel=3, data=[36, 63]),
   midi.NoteOnEvent(tick=0, channel=3, data=[35, 63]),
   midi.NoteOffEvent(tick=480, channel=3, data=[35, 63]),
   midi.NoteOnEvent(tick=0, channel=3, data=[36, 63]),
   midi.NoteOffEvent(tick=960, channel=3, data=[36, 63]),
   midi.NoteOnEvent(tick=0, channel=3, data=[35, 63]),
   midi.NoteOffEvent(tick=480, channel=3, data=[35, 63]),
   midi.NoteOnEvent(tick=0, channel=3, data=[36, 63]),
   midi.NoteOffEvent(tick=480, channel=3, data=[36, 63]),
   midi.NoteOnEvent(tick=0, channel=3, data=[38, 95]),
   midi.NoteOffEvent(tick=480, channel=3, data=[38, 95]),
   midi.NoteOnEvent(tick=0, channel=3, data=[40, 63]),
   midi.NoteOffEvent(tick=3840, channel=3, data=[40, 63]),
   midi.NoteOnEvent(tick=0, channel=3, data=[36, 63]),
   midi.NoteOffEvent(tick=3840, channel=3, data=[36, 63]),
   midi.NoteOnEvent(tick=0, channel=3, data=[38, 95]),
   midi.NoteOffEvent(tick=3840, channel=3, data=[38, 95]),
   midi.NoteOnEvent(tick=0, channel=3, data=[36, 63]),
   midi.NoteOffEvent(tick=960, channel=3, data=[36, 63]),
   midi.NoteOnEvent(tick=0, channel=3, data=[35, 63]),
   midi.NoteOffEvent(tick=480, channel=3, data=[35, 63]),
   midi.NoteOnEvent(tick=0, channel=3, data=[36, 63]),
   midi.NoteOffEvent(tick=960, channel=3, data=[36, 63]),
   midi.NoteOnEvent(tick=0, channel=3, data=[35, 63]),
   midi.NoteOffEvent(tick=480, channel=3, data=[35, 63]),
   midi.NoteOnEvent(tick=0, channel=3, data=[36, 63]),
   midi.NoteOffEvent(tick=480, channel=3, data=[36, 63]),
   midi.NoteOnEvent(tick=0, channel=3, data=[38, 95]),
   midi.NoteOffEvent(tick=480, channel=3, data=[38, 95]),
   midi.NoteOnEvent(tick=0, channel=3, data=[40, 63]),
   midi.NoteOffEvent(tick=3840, channel=3, data=[40, 63]),
   midi.NoteOnEvent(tick=0, channel=3, data=[36, 63]),
   midi.NoteOffEvent(tick=3840, channel=3, data=[36, 63]),
   midi.NoteOnEvent(tick=0, channel=3, data=[38, 95]),
   midi.NoteOffEvent(tick=3840, channel=3, data=[38, 95]),
   midi.NoteOnEvent(tick=0, channel=3, data=[36, 63]),
   midi.NoteOffEvent(tick=960, channel=3, data=[36, 63]),
   midi.NoteOnEvent(tick=0, channel=3, data=[35, 63]),
   midi.NoteOffEvent(tick=480, channel=3, data=[35, 63]),
   midi.NoteOnEvent(tick=0, channel=3, data=[36, 63]),
   midi.NoteOffEvent(tick=960, channel=3, data=[36, 63]),
   midi.NoteOnEvent(tick=0, channel=3, data=[35, 63]),
   midi.NoteOffEvent(tick=480, channel=3, data=[35, 63]),
   midi.NoteOnEvent(tick=0, channel=3, data=[36, 63]),
   midi.NoteOffEvent(tick=480, channel=3, data=[36, 63]),
   midi.NoteOnEvent(tick=0, channel=3, data=[38, 95]),
   midi.NoteOffEvent(tick=480, channel=3, data=[38, 95]),
   midi.NoteOnEvent(tick=0, channel=3, data=[40, 63]),
   midi.NoteOffEvent(tick=3840, channel=3, data=[40, 63]),
   midi.NoteOnEvent(tick=0, channel=3, data=[36, 63]),
   midi.NoteOffEvent(tick=3840, channel=3, data=[36, 63]),
   midi.NoteOnEvent(tick=0, channel=3, data=[38, 95]),
   midi.NoteOffEvent(tick=3840, channel=3, data=[38, 95]),
   midi.NoteOnEvent(tick=0, channel=3, data=[36, 63]),
   midi.NoteOffEvent(tick=960, channel=3, data=[36, 63]),
   midi.NoteOnEvent(tick=0, channel=3, data=[35, 63]),
   midi.NoteOffEvent(tick=480, channel=3, data=[35, 63]),
   midi.NoteOnEvent(tick=0, channel=3, data=[36, 63]),
   midi.NoteOffEvent(tick=960, channel=3, data=[36, 63]),
   midi.NoteOnEvent(tick=0, channel=3, data=[35, 63]),
   midi.NoteOffEvent(tick=480, channel=3, data=[35, 63]),
   midi.NoteOnEvent(tick=0, channel=3, data=[36, 63]),
   midi.NoteOffEvent(tick=480, channel=3, data=[36, 63]),
   midi.NoteOnEvent(tick=0, channel=3, data=[38, 95]),
   midi.NoteOffEvent(tick=480, channel=3, data=[38, 95]),
   midi.NoteOnEvent(tick=0, channel=3, data=[40, 63]),
   midi.NoteOffEvent(tick=3840, channel=3, data=[40, 63]),
   midi.NoteOnEvent(tick=0, channel=3, data=[36, 63]),
   midi.NoteOffEvent(tick=3840, channel=3, data=[36, 63]),
   midi.NoteOnEvent(tick=0, channel=3, data=[38, 95]),
   midi.NoteOffEvent(tick=3840, channel=3, data=[38, 95]),
   midi.NoteOnEvent(tick=0, channel=3, data=[36, 63]),
   midi.NoteOffEvent(tick=960, channel=3, data=[36, 63]),
   midi.NoteOnEvent(tick=0, channel=3, data=[35, 63]),
   midi.NoteOffEvent(tick=480, channel=3, data=[35, 63]),
   midi.NoteOnEvent(tick=0, channel=3, data=[36, 63]),
   midi.NoteOffEvent(tick=960, channel=3, data=[36, 63]),
   midi.NoteOnEvent(tick=0, channel=3, data=[35, 63]),
   midi.NoteOffEvent(tick=480, channel=3, data=[35, 63]),
   midi.NoteOnEvent(tick=0, channel=3, data=[36, 63]),
   midi.NoteOffEvent(tick=480, channel=3, data=[36, 63]),
   midi.NoteOnEvent(tick=0, channel=3, data=[38, 95]),
   midi.NoteOffEvent(tick=480, channel=3, data=[38, 95]),
   midi.NoteOnEvent(tick=0, channel=3, data=[40, 63]),
   midi.NoteOffEvent(tick=480, channel=3, data=[40, 63]),
   midi.NoteOnEvent(tick=3360, channel=3, data=[36, 63]),
   midi.NoteOffEvent(tick=480, channel=3, data=[36, 63]),
   midi.NoteOnEvent(tick=3360, channel=3, data=[38, 95]),
   midi.NoteOffEvent(tick=480, channel=3, data=[38, 95]),
   midi.NoteOnEvent(tick=3360, channel=3, data=[36, 63]),
   midi.NoteOffEvent(tick=960, channel=3, data=[36, 63]),
   midi.NoteOnEvent(tick=0, channel=3, data=[35, 63]),
   midi.NoteOffEvent(tick=480, channel=3, data=[35, 63]),
   midi.NoteOnEvent(tick=0, channel=3, data=[36, 63]),
   midi.NoteOffEvent(tick=960, channel=3, data=[36, 63]),
   midi.NoteOnEvent(tick=0, channel=3, data=[35, 63]),
   midi.NoteOffEvent(tick=480, channel=3, data=[35, 63]),
   midi.NoteOnEvent(tick=0, channel=3, data=[36, 63]),
   midi.NoteOffEvent(tick=480, channel=3, data=[36, 63]),
   midi.NoteOnEvent(tick=0, channel=3, data=[38, 95]),
   midi.NoteOffEvent(tick=480, channel=3, data=[38, 95]),
   midi.NoteOnEvent(tick=0, channel=3, data=[40, 63]),
   midi.NoteOffEvent(tick=480, channel=3, data=[40, 63]),
   midi.NoteOnEvent(tick=3360, channel=3, data=[36, 63]),
   midi.NoteOffEvent(tick=480, channel=3, data=[36, 63]),
   midi.NoteOnEvent(tick=3360, channel=3, data=[38, 95]),
   midi.NoteOffEvent(tick=480, channel=3, data=[38, 95]),
   midi.NoteOnEvent(tick=3360, channel=3, data=[36, 63]),
   midi.NoteOffEvent(tick=960, channel=3, data=[36, 63]),
   midi.NoteOnEvent(tick=0, channel=3, data=[35, 63]),
   midi.NoteOffEvent(tick=480, channel=3, data=[35, 63]),
   midi.NoteOnEvent(tick=0, channel=3, data=[36, 63]),
   midi.NoteOffEvent(tick=960, channel=3, data=[36, 63]),
   midi.NoteOnEvent(tick=0, channel=3, data=[35, 63]),
   midi.NoteOffEvent(tick=480, channel=3, data=[35, 63]),
   midi.NoteOnEvent(tick=0, channel=3, data=[36, 63]),
   midi.NoteOffEvent(tick=480, channel=3, data=[36, 63]),
   midi.NoteOnEvent(tick=0, channel=3, data=[38, 95]),
   midi.NoteOffEvent(tick=480, channel=3, data=[38, 95]),
   midi.NoteOnEvent(tick=0, channel=3, data=[40, 95]),
   midi.NoteOffEvent(tick=480, channel=3, data=[40, 95]),
   midi.NoteOnEvent(tick=0, channel=3, data=[28, 63]),
   midi.NoteOffEvent(tick=480, channel=3, data=[28, 63]),
   midi.NoteOnEvent(tick=0, channel=3, data=[28, 63]),
   midi.NoteOffEvent(tick=480, channel=3, data=[28, 63]),
   midi.NoteOnEvent(tick=0, channel=3, data=[28, 63]),
   midi.NoteOffEvent(tick=480, channel=3, data=[28, 63]),
   midi.NoteOnEvent(tick=0, channel=3, data=[28, 63]),
   midi.NoteOffEvent(tick=480, channel=3, data=[28, 63]),
   midi.NoteOnEvent(tick=0, channel=3, data=[28, 63]),
   midi.NoteOffEvent(tick=480, channel=3, data=[28, 63]),
   midi.NoteOnEvent(tick=0, channel=3, data=[28, 63]),
   midi.NoteOffEvent(tick=480, channel=3, data=[28, 63]),
   midi.NoteOnEvent(tick=0, channel=3, data=[28, 63]),
   midi.NoteOffEvent(tick=480, channel=3, data=[28, 63]),
   midi.NoteOnEvent(tick=0, channel=3, data=[36, 63]),
   midi.NoteOffEvent(tick=480, channel=3, data=[36, 63]),
   midi.NoteOnEvent(tick=0, channel=3, data=[28, 63]),
   midi.NoteOffEvent(tick=480, channel=3, data=[28, 63]),
   midi.NoteOnEvent(tick=0, channel=3, data=[28, 63]),
   midi.NoteOffEvent(tick=480, channel=3, data=[28, 63]),
   midi.NoteOnEvent(tick=0, channel=3, data=[28, 63]),
   midi.NoteOffEvent(tick=480, channel=3, data=[28, 63]),
   midi.NoteOnEvent(tick=0, channel=3, data=[28, 63]),
   midi.NoteOffEvent(tick=480, channel=3, data=[28, 63]),
   midi.NoteOnEvent(tick=0, channel=3, data=[28, 63]),
   midi.NoteOffEvent(tick=480, channel=3, data=[28, 63]),
   midi.NoteOnEvent(tick=0, channel=3, data=[28, 63]),
   midi.NoteOffEvent(tick=480, channel=3, data=[28, 63]),
   midi.NoteOnEvent(tick=0, channel=3, data=[28, 63]),
   midi.NoteOffEvent(tick=480, channel=3, data=[28, 63]),
   midi.NoteOnEvent(tick=0, channel=3, data=[38, 95]),
   midi.NoteOffEvent(tick=480, channel=3, data=[38, 95]),
   midi.NoteOnEvent(tick=0, channel=3, data=[28, 63]),
   midi.NoteOffEvent(tick=480, channel=3, data=[28, 63]),
   midi.NoteOnEvent(tick=0, channel=3, data=[28, 63]),
   midi.NoteOffEvent(tick=480, channel=3, data=[28, 63]),
   midi.NoteOnEvent(tick=0, channel=3, data=[28, 63]),
   midi.NoteOffEvent(tick=480, channel=3, data=[28, 63]),
   midi.NoteOnEvent(tick=0, channel=3, data=[28, 63]),
   midi.NoteOffEvent(tick=480, channel=3, data=[28, 63]),
   midi.NoteOnEvent(tick=0, channel=3, data=[28, 63]),
   midi.NoteOffEvent(tick=480, channel=3, data=[28, 63]),
   midi.NoteOnEvent(tick=0, channel=3, data=[28, 63]),
   midi.NoteOffEvent(tick=480, channel=3, data=[28, 63]),
   midi.NoteOnEvent(tick=0, channel=3, data=[28, 63]),
   midi.NoteOffEvent(tick=480, channel=3, data=[28, 63]),
   midi.NoteOnEvent(tick=0, channel=3, data=[36, 63]),
   midi.NoteOffEvent(tick=960, channel=3, data=[36, 63]),
   midi.NoteOnEvent(tick=0, channel=3, data=[35, 63]),
   midi.NoteOffEvent(tick=480, channel=3, data=[35, 63]),
   midi.NoteOnEvent(tick=0, channel=3, data=[36, 63]),
   midi.NoteOffEvent(tick=960, channel=3, data=[36, 63]),
   midi.NoteOnEvent(tick=0, channel=3, data=[35, 63]),
   midi.NoteOffEvent(tick=480, channel=3, data=[35, 63]),
   midi.NoteOnEvent(tick=0, channel=3, data=[36, 63]),
   midi.NoteOffEvent(tick=480, channel=3, data=[36, 63]),
   midi.NoteOnEvent(tick=0, channel=3, data=[38, 95]),
   midi.NoteOffEvent(tick=480, channel=3, data=[38, 95]),
   midi.NoteOnEvent(tick=0, channel=3, data=[40, 95]),
   midi.NoteOffEvent(tick=480, channel=3, data=[40, 95]),
   midi.NoteOnEvent(tick=0, channel=3, data=[28, 63]),
   midi.NoteOffEvent(tick=480, channel=3, data=[28, 63]),
   midi.NoteOnEvent(tick=0, channel=3, data=[28, 63]),
   midi.NoteOffEvent(tick=480, channel=3, data=[28, 63]),
   midi.NoteOnEvent(tick=0, channel=3, data=[28, 63]),
   midi.NoteOffEvent(tick=480, channel=3, data=[28, 63]),
   midi.NoteOnEvent(tick=0, channel=3, data=[28, 63]),
   midi.NoteOffEvent(tick=480, channel=3, data=[28, 63]),
   midi.NoteOnEvent(tick=0, channel=3, data=[28, 63]),
   midi.NoteOffEvent(tick=480, channel=3, data=[28, 63]),
   midi.NoteOnEvent(tick=0, channel=3, data=[28, 63]),
   midi.NoteOffEvent(tick=480, channel=3, data=[28, 63]),
   midi.NoteOnEvent(tick=0, channel=3, data=[28, 63]),
   midi.NoteOffEvent(tick=480, channel=3, data=[28, 63]),
   midi.NoteOnEvent(tick=0, channel=3, data=[36, 63]),
   midi.NoteOffEvent(tick=480, channel=3, data=[36, 63]),
   midi.NoteOnEvent(tick=0, channel=3, data=[28, 63]),
   midi.NoteOffEvent(tick=480, channel=3, data=[28, 63]),
   midi.NoteOnEvent(tick=0, channel=3, data=[28, 63]),
   midi.NoteOffEvent(tick=480, channel=3, data=[28, 63]),
   midi.NoteOnEvent(tick=0, channel=3, data=[28, 63]),
   midi.NoteOffEvent(tick=480, channel=3, data=[28, 63]),
   midi.NoteOnEvent(tick=0, channel=3, data=[28, 63]),
   midi.NoteOffEvent(tick=480, channel=3, data=[28, 63]),
   midi.NoteOnEvent(tick=0, channel=3, data=[28, 63]),
   midi.NoteOffEvent(tick=480, channel=3, data=[28, 63]),
   midi.NoteOnEvent(tick=0, channel=3, data=[28, 63]),
   midi.NoteOffEvent(tick=480, channel=3, data=[28, 63]),
   midi.NoteOnEvent(tick=0, channel=3, data=[28, 63]),
   midi.NoteOffEvent(tick=480, channel=3, data=[28, 63]),
   midi.NoteOnEvent(tick=0, channel=3, data=[38, 95]),
   midi.NoteOffEvent(tick=480, channel=3, data=[38, 95]),
   midi.NoteOnEvent(tick=0, channel=3, data=[28, 63]),
   midi.NoteOffEvent(tick=480, channel=3, data=[28, 63]),
   midi.NoteOnEvent(tick=0, channel=3, data=[28, 63]),
   midi.NoteOffEvent(tick=480, channel=3, data=[28, 63]),
   midi.NoteOnEvent(tick=0, channel=3, data=[28, 63]),
   midi.NoteOffEvent(tick=480, channel=3, data=[28, 63]),
   midi.NoteOnEvent(tick=0, channel=3, data=[28, 63]),
   midi.NoteOffEvent(tick=480, channel=3, data=[28, 63]),
   midi.NoteOnEvent(tick=0, channel=3, data=[28, 63]),
   midi.NoteOffEvent(tick=480, channel=3, data=[28, 63]),
   midi.NoteOnEvent(tick=0, channel=3, data=[28, 63]),
   midi.NoteOffEvent(tick=480, channel=3, data=[28, 63]),
   midi.NoteOnEvent(tick=0, channel=3, data=[28, 63]),
   midi.NoteOffEvent(tick=480, channel=3, data=[28, 63]),
   midi.NoteOnEvent(tick=0, channel=3, data=[36, 63]),
   midi.NoteOffEvent(tick=960, channel=3, data=[36, 63]),
   midi.NoteOnEvent(tick=0, channel=3, data=[35, 63]),
   midi.NoteOffEvent(tick=480, channel=3, data=[35, 63]),
   midi.NoteOnEvent(tick=0, channel=3, data=[36, 63]),
   midi.NoteOffEvent(tick=960, channel=3, data=[36, 63]),
   midi.NoteOnEvent(tick=0, channel=3, data=[35, 63]),
   midi.NoteOffEvent(tick=480, channel=3, data=[35, 63]),
   midi.NoteOnEvent(tick=0, channel=3, data=[36, 63]),
   midi.NoteOffEvent(tick=480, channel=3, data=[36, 63]),
   midi.NoteOnEvent(tick=0, channel=3, data=[38, 95]),
   midi.NoteOffEvent(tick=480, channel=3, data=[38, 95]),
   midi.NoteOnEvent(tick=0, channel=3, data=[36, 63]),
   midi.NoteOffEvent(tick=3360, channel=3, data=[36, 63]),
   midi.NoteOnEvent(tick=0, channel=3, data=[36, 63]),
   midi.NoteOffEvent(tick=4320, channel=3, data=[36, 63]),
   midi.NoteOnEvent(tick=0, channel=3, data=[31, 63]),
   midi.NoteOffEvent(tick=3840, channel=3, data=[31, 63]),
   midi.NoteOnEvent(tick=0, channel=3, data=[33, 95]),
   midi.PitchWheelEvent(tick=120, channel=3, data=[0, 62]),
   midi.PitchWheelEvent(tick=120, channel=3, data=[0, 59]),
   midi.PitchWheelEvent(tick=120, channel=3, data=[0, 56]),
   midi.PitchWheelEvent(tick=120, channel=3, data=[0, 53]),
   midi.PitchWheelEvent(tick=120, channel=3, data=[0, 51]),
   midi.PitchWheelEvent(tick=120, channel=3, data=[0, 48]),
   midi.PitchWheelEvent(tick=120, channel=3, data=[0, 45]),
   midi.PitchWheelEvent(tick=120, channel=3, data=[0, 42]),
   midi.PitchWheelEvent(tick=0, channel=3, data=[0, 64]),
   midi.NoteOffEvent(tick=0, channel=3, data=[33, 95]),
   midi.NoteOnEvent(tick=0, channel=3, data=[29, 63]),
   midi.NoteOffEvent(tick=960, channel=3, data=[29, 63]),
   midi.NoteOnEvent(tick=0, channel=3, data=[34, 95]),
   midi.PitchWheelEvent(tick=120, channel=3, data=[0, 64]),
   midi.PitchWheelEvent(tick=120, channel=3, data=[0, 63]),
   midi.PitchWheelEvent(tick=120, channel=3, data=[0, 62]),
   midi.PitchWheelEvent(tick=120, channel=3, data=[0, 62]),
   midi.PitchWheelEvent(tick=120, channel=3, data=[0, 61]),
   midi.PitchWheelEvent(tick=120, channel=3, data=[0, 60]),
   midi.PitchWheelEvent(tick=120, channel=3, data=[0, 60]),
   midi.PitchWheelEvent(tick=120, channel=3, data=[0, 59]),
   midi.PitchWheelEvent(tick=0, channel=3, data=[0, 64]),
   midi.NoteOffEvent(tick=0, channel=3, data=[34, 95]),
   midi.NoteOnEvent(tick=0, channel=3, data=[33, 95]),
   midi.NoteOffEvent(tick=960, channel=3, data=[33, 95]),
   midi.NoteOnEvent(tick=0, channel=3, data=[36, 63]),
   midi.NoteOffEvent(tick=3360, channel=3, data=[36, 63]),
   midi.NoteOnEvent(tick=0, channel=3, data=[36, 63]),
   midi.NoteOffEvent(tick=4320, channel=3, data=[36, 63]),
   midi.NoteOnEvent(tick=0, channel=3, data=[29, 63]),
   midi.NoteOffEvent(tick=3840, channel=3, data=[29, 63]),
   midi.NoteOnEvent(tick=0, channel=3, data=[33, 95]),
   midi.NoteOffEvent(tick=960, channel=3, data=[33, 95]),
   midi.NoteOnEvent(tick=0, channel=3, data=[31, 63]),
   midi.NoteOffEvent(tick=960, channel=3, data=[31, 63]),
   midi.NoteOnEvent(tick=0, channel=3, data=[30, 63]),
   midi.NoteOffEvent(tick=960, channel=3, data=[30, 63]),
   midi.NoteOnEvent(tick=0, channel=3, data=[38, 95]),
   midi.NoteOffEvent(tick=960, channel=3, data=[38, 95]),
   midi.NoteOnEvent(tick=0, channel=3, data=[28, 63]),
   midi.NoteOffEvent(tick=240, channel=3, data=[28, 63]),
   midi.NoteOnEvent(tick=0, channel=3, data=[28, 63]),
   midi.NoteOffEvent(tick=240, channel=3, data=[28, 63]),
   midi.NoteOnEvent(tick=0, channel=3, data=[28, 63]),
   midi.NoteOffEvent(tick=120, channel=3, data=[28, 63]),
   midi.NoteOnEvent(tick=0, channel=3, data=[28, 63]),
   midi.NoteOffEvent(tick=240, channel=3, data=[28, 63]),
   midi.NoteOnEvent(tick=0, channel=3, data=[28, 63]),
   midi.NoteOffEvent(tick=240, channel=3, data=[28, 63]),
   midi.NoteOnEvent(tick=0, channel=3, data=[28, 63]),
   midi.NoteOffEvent(tick=240, channel=3, data=[28, 63]),
   midi.NoteOnEvent(tick=0, channel=3, data=[28, 63]),
   midi.NoteOffEvent(tick=120, channel=3, data=[28, 63]),
   midi.NoteOnEvent(tick=0, channel=3, data=[28, 63]),
   midi.NoteOffEvent(tick=240, channel=3, data=[28, 63]),
   midi.NoteOnEvent(tick=0, channel=3, data=[28, 63]),
   midi.NoteOffEvent(tick=240, channel=3, data=[28, 63]),
   midi.NoteOnEvent(tick=0, channel=3, data=[28, 63]),
   midi.NoteOffEvent(tick=240, channel=3, data=[28, 63]),
   midi.NoteOnEvent(tick=0, channel=3, data=[28, 63]),
   midi.NoteOffEvent(tick=240, channel=3, data=[28, 63]),
   midi.NoteOnEvent(tick=0, channel=3, data=[28, 63]),
   midi.NoteOffEvent(tick=120, channel=3, data=[28, 63]),
   midi.NoteOnEvent(tick=0, channel=3, data=[28, 63]),
   midi.NoteOffEvent(tick=240, channel=3, data=[28, 63]),
   midi.NoteOnEvent(tick=0, channel=3, data=[28, 63]),
   midi.NoteOffEvent(tick=240, channel=3, data=[28, 63]),
   midi.NoteOnEvent(tick=0, channel=3, data=[28, 63]),
   midi.NoteOffEvent(tick=240, channel=3, data=[28, 63]),
   midi.NoteOnEvent(tick=0, channel=3, data=[28, 63]),
   midi.NoteOffEvent(tick=120, channel=3, data=[28, 63]),
   midi.NoteOnEvent(tick=0, channel=3, data=[28, 63]),
   midi.NoteOffEvent(tick=240, channel=3, data=[28, 63]),
   midi.NoteOnEvent(tick=0, channel=3, data=[28, 63]),
   midi.NoteOffEvent(tick=4080, channel=3, data=[28, 63]),
   midi.NoteOnEvent(tick=0, channel=3, data=[28, 63]),
   midi.NoteOffEvent(tick=960, channel=3, data=[28, 63]),
   midi.EndOfTrackEvent(tick=0, data=[])])])